0, 0, Header, 0, 1, 384
1, 0, Start_track
1, 0, Title_t, "Gibet+Scarbo-Vyacheslav Gryaznov"
1, 0, Text_t, "2009 Piano-e-Competition audition round"
1, 0, Text_t, "captured January 2009"
1, 0, Text_t, "http://www.piano-e-competition.com/"
1, 0, Text_t, "File processed for distribution by software from Zenph Studios, Inc., http://www.zenph.com"
1, 0, Instrument_name_t, "Yamaha Disklavier Pro Mark IV concert grand piano, model DCFIIISM4PRO"
1, 0, Sequencer_specific, 39, 67, 113, 0, 1, 0, 1, 0, 71, 105, 98, 101, 116, 32, 97, 110, 100, 32, 83, 99, 97, 114, 98, 111, 86, 46, 32, 71, 114, 121, 97, 122, 110, 111, 118, 32, 32, 32, 32, 32
1, 0, Sequencer_specific, 6, 67, 113, 0, 0, 0, 69
1, 0, System_exclusive, 21, 67, 113, 126, 21, 0, 2, 2, 0, 3, 14, 1, 4, 1, 13, 13, 10, 11, 9, 2, 7, 247
1, 0, Sequencer_specific, 5, 67, 123, 12, 2, 1
1, 0, Tempo, 512820
1, 0, Time_signature, 4, 2, 24, 8
1, 0, System_exclusive, 5, 126, 127, 9, 1, 247
1, 1, System_exclusive, 8, 67, 16, 76, 0, 0, 126, 0, 247
1, 2, System_exclusive, 8, 67, 16, 76, 8, 9, 7, 1, 247
1, 3, Control_c, 0, 0, 0
1, 3, Control_c, 1, 0, 0
1, 3, Control_c, 2, 0, 0
1, 3, Control_c, 3, 0, 0
1, 3, Control_c, 4, 0, 0
1, 3, Control_c, 5, 0, 0
1, 3, Control_c, 6, 0, 0
1, 3, Control_c, 7, 0, 0
1, 3, Control_c, 8, 0, 0
1, 3, Control_c, 9, 0, 127
1, 3, Control_c, 10, 0, 0
1, 3, Control_c, 11, 0, 0
1, 3, Control_c, 12, 0, 0
1, 3, Control_c, 13, 0, 0
1, 3, Control_c, 14, 0, 0
1, 3, Control_c, 15, 0, 0
1, 4, Control_c, 0, 32, 0
1, 4, Control_c, 1, 32, 0
1, 4, Control_c, 2, 32, 0
1, 4, Control_c, 3, 32, 0
1, 4, Control_c, 4, 32, 0
1, 4, Control_c, 5, 32, 0
1, 4, Control_c, 6, 32, 0
1, 4, Control_c, 7, 32, 0
1, 4, Control_c, 8, 32, 0
1, 4, Control_c, 9, 32, 0
1, 4, Control_c, 10, 32, 0
1, 4, Control_c, 11, 32, 0
1, 4, Control_c, 12, 32, 0
1, 4, Control_c, 13, 32, 0
1, 4, Control_c, 14, 32, 0
1, 4, Control_c, 15, 32, 0
1, 5, Program_c, 0, 0
1, 5, Program_c, 1, 0
1, 5, Program_c, 2, 0
1, 5, Program_c, 3, 0
1, 5, Program_c, 4, 0
1, 5, Program_c, 5, 0
1, 5, Program_c, 6, 0
1, 5, Program_c, 7, 0
1, 5, Program_c, 8, 0
1, 5, Program_c, 9, 0
1, 5, Program_c, 10, 0
1, 5, Program_c, 11, 0
1, 5, Program_c, 12, 0
1, 5, Program_c, 13, 0
1, 5, Program_c, 14, 0
1, 5, Program_c, 15, 0
1, 6, Control_c, 0, 7, 100
1, 6, Control_c, 1, 7, 100
1, 6, Control_c, 2, 7, 100
1, 6, Control_c, 3, 7, 100
1, 6, Control_c, 4, 7, 100
1, 6, Control_c, 5, 7, 100
1, 6, Control_c, 6, 7, 100
1, 6, Control_c, 7, 7, 100
1, 6, Control_c, 8, 7, 100
1, 6, Control_c, 9, 7, 100
1, 6, Control_c, 10, 7, 100
1, 6, Control_c, 11, 7, 100
1, 6, Control_c, 12, 7, 100
1, 6, Control_c, 13, 7, 100
1, 6, Control_c, 14, 7, 100
1, 6, Control_c, 15, 7, 100
1, 117, Control_c, 0, 64, 15
1, 117, Control_c, 0, 67, 15
1, 229, Control_c, 0, 64, 31
1, 229, Control_c, 0, 67, 31
1, 341, Control_c, 0, 64, 46
1, 341, Control_c, 0, 67, 46
1, 452, Control_c, 0, 64, 63
1, 452, Control_c, 0, 67, 63
1, 564, Control_c, 0, 64, 77
1, 564, Control_c, 0, 67, 77
1, 676, Control_c, 0, 64, 94
1, 676, Control_c, 0, 67, 94
1, 787, Control_c, 0, 64, 108
1, 787, Control_c, 0, 67, 108
1, 899, Control_c, 0, 64, 127
1, 899, Control_c, 0, 67, 127
1, 1135, Note_on_c, 0, 70, 35
1, 1141, Note_on_c, 0, 58, 26
1, 1264, Note_off_c, 0, 70, 32
1, 1713, Note_on_c, 0, 70, 26
1, 1822, Note_off_c, 0, 58, 3
1, 1869, Note_off_c, 0, 70, 38
1, 3017, Note_on_c, 0, 70, 32
1, 3037, Note_on_c, 0, 58, 26
1, 3175, Note_off_c, 0, 70, 33
1, 3616, Note_on_c, 0, 70, 31
1, 3777, Note_off_c, 0, 58, 25
1, 3843, Note_off_c, 0, 70, 26
1, 4783, Note_on_c, 0, 70, 26
1, 5246, Note_off_c, 0, 70, 29
1, 5964, Note_on_c, 0, 70, 38
1, 5986, Note_on_c, 0, 58, 29
1, 6071, Note_off_c, 0, 70, 51
1, 6558, Note_on_c, 0, 70, 18
1, 6689, Note_off_c, 0, 58, 30
1, 6784, Note_off_c, 0, 70, 24
1, 7866, Note_on_c, 0, 70, 28
1, 7880, Note_on_c, 0, 58, 26
1, 8020, Note_off_c, 0, 70, 34
1, 8476, Note_on_c, 0, 70, 18
1, 9088, Note_on_c, 0, 65, 34
1, 9106, Note_on_c, 0, 53, 28
1, 9109, Note_on_c, 0, 39, 25
1, 9113, Note_on_c, 0, 46, 35
1, 9181, Note_off_c, 0, 70, 39
1, 9200, Note_off_c, 0, 58, 33
1, 9762, Note_on_c, 0, 70, 34
1, 9792, Note_off_c, 0, 65, 36
1, 9800, Note_on_c, 0, 58, 14
1, 9935, Note_off_c, 0, 58, 39
1, 9971, Note_off_c, 0, 70, 35
1, 9978, Note_off_c, 0, 53, 34
1, 10355, Note_off_c, 0, 46, 33
1, 11017, Note_on_c, 0, 70, 40
1, 11041, Note_on_c, 0, 58, 29
1, 11120, Note_off_c, 0, 70, 53
1, 11621, Note_on_c, 0, 70, 30
1, 11691, Note_off_c, 0, 58, 29
1, 11759, Note_off_c, 0, 70, 46
1, 11983, Note_off_c, 0, 39, 49
1, 12229, Note_on_c, 0, 61, 40
1, 12253, Note_on_c, 0, 35, 30
1, 12260, Note_on_c, 0, 42, 33
1, 12262, Note_on_c, 0, 54, 25
1, 12268, Note_on_c, 0, 49, 20
1, 12381, Note_off_c, 0, 54, 31
1, 12411, Note_off_c, 0, 35, 56
1, 12436, Note_off_c, 0, 61, 51
1, 12494, Note_off_c, 0, 42, 55
1, 12591, Note_off_c, 0, 49, 35
1, 12874, Note_on_c, 0, 70, 46
1, 12888, Control_c, 0, 64, 93
1, 12889, Note_on_c, 0, 63, 40
1, 12889, Note_on_c, 0, 37, 37
1, 12895, Note_on_c, 0, 56, 30
1, 12901, Note_on_c, 0, 51, 34
1, 12902, Control_c, 0, 64, 77
1, 12907, Note_on_c, 0, 44, 39
1, 12918, Control_c, 0, 64, 65
1, 12933, Control_c, 0, 64, 55
1, 12948, Control_c, 0, 64, 50
1, 12963, Control_c, 0, 64, 56
1, 12978, Control_c, 0, 64, 64
1, 12990, Control_c, 0, 64, 73
1, 13005, Control_c, 0, 64, 85
1, 13020, Control_c, 0, 64, 99
1, 13035, Control_c, 0, 64, 106
1, 13057, Control_c, 0, 64, 114
1, 13072, Control_c, 0, 64, 127
1, 13119, Note_off_c, 0, 70, 38
1, 13143, Note_off_c, 0, 56, 34
1, 13186, Note_off_c, 0, 37, 35
1, 13258, Note_off_c, 0, 44, 47
1, 13277, Note_off_c, 0, 51, 35
1, 13495, Note_off_c, 0, 63, 16
1, 13527, Note_on_c, 0, 70, 27
1, 13935, Note_on_c, 0, 59, 32
1, 13956, Note_on_c, 0, 44, 21
1, 13957, Note_on_c, 0, 58, 33
1, 13965, Note_on_c, 0, 51, 33
1, 14027, Note_off_c, 0, 58, 58
1, 14028, Note_off_c, 0, 51, 54
1, 14028, Note_off_c, 0, 59, 62
1, 14030, Note_off_c, 0, 44, 59
1, 14320, Note_on_c, 0, 65, 36
1, 14332, Note_on_c, 0, 58, 33
1, 14340, Control_c, 0, 64, 117
1, 14343, Note_on_c, 0, 53, 37
1, 14348, Note_on_c, 0, 46, 39
1, 14349, Note_on_c, 0, 39, 27
1, 14354, Control_c, 0, 64, 88
1, 14369, Control_c, 0, 64, 73
1, 14384, Control_c, 0, 64, 59
1, 14398, Control_c, 0, 64, 46
1, 14413, Control_c, 0, 64, 40
1, 14428, Control_c, 0, 64, 40
1, 14443, Control_c, 0, 64, 45
1, 14458, Control_c, 0, 64, 52
1, 14472, Control_c, 0, 64, 62
1, 14487, Control_c, 0, 64, 68
1, 14502, Control_c, 0, 64, 75
1, 14506, Note_off_c, 0, 70, 35
1, 14518, Control_c, 0, 64, 85
1, 14533, Control_c, 0, 64, 95
1, 14555, Control_c, 0, 64, 106
1, 14570, Control_c, 0, 64, 127
1, 14783, Note_off_c, 0, 58, 28
1, 14947, Note_on_c, 0, 70, 34
1, 14980, Note_off_c, 0, 65, 30
1, 15136, Note_off_c, 0, 70, 30
1, 15989, Note_off_c, 0, 53, 31
1, 16295, Note_on_c, 0, 70, 41
1, 16305, Note_on_c, 0, 58, 37
1, 16390, Note_off_c, 0, 46, 39
1, 16434, Note_off_c, 0, 70, 32
1, 16929, Note_on_c, 0, 70, 27
1, 17021, Note_off_c, 0, 58, 37
1, 17064, Note_off_c, 0, 70, 32
1, 17323, Note_off_c, 0, 39, 39
1, 17563, Note_on_c, 0, 61, 35
1, 17564, Control_c, 0, 64, 109
1, 17572, Note_on_c, 0, 35, 23
1, 17574, Note_on_c, 0, 42, 36
1, 17578, Note_on_c, 0, 49, 32
1, 17578, Note_on_c, 0, 54, 29
1, 17579, Control_c, 0, 64, 90
1, 17594, Control_c, 0, 64, 80
1, 17609, Control_c, 0, 64, 75
1, 17623, Control_c, 0, 64, 74
1, 17638, Control_c, 0, 64, 74
1, 17653, Control_c, 0, 64, 78
1, 17667, Control_c, 0, 64, 85
1, 17682, Control_c, 0, 64, 97
1, 17697, Control_c, 0, 64, 127
1, 17715, Note_off_c, 0, 54, 47
1, 17763, Note_off_c, 0, 35, 61
1, 17770, Note_off_c, 0, 61, 53
1, 17813, Note_off_c, 0, 42, 59
1, 17850, Note_off_c, 0, 49, 54
1, 18194, Note_on_c, 0, 70, 41
1, 18219, Note_on_c, 0, 37, 38
1, 18219, Note_on_c, 0, 63, 28
1, 18224, Note_on_c, 0, 44, 36
1, 18225, Note_on_c, 0, 56, 27
1, 18229, Note_on_c, 0, 51, 28
1, 18232, Control_c, 0, 64, 99
1, 18246, Control_c, 0, 64, 76
1, 18261, Control_c, 0, 64, 63
1, 18276, Control_c, 0, 64, 49
1, 18298, Control_c, 0, 64, 38
1, 18313, Control_c, 0, 64, 35
1, 18328, Control_c, 0, 64, 36
1, 18343, Control_c, 0, 64, 41
1, 18358, Control_c, 0, 64, 53
1, 18372, Control_c, 0, 64, 63
1, 18387, Control_c, 0, 64, 72
1, 18402, Control_c, 0, 64, 82
1, 18417, Control_c, 0, 64, 95
1, 18432, Control_c, 0, 64, 107
1, 18446, Control_c, 0, 64, 127
1, 18481, Note_off_c, 0, 70, 38
1, 18548, Note_off_c, 0, 56, 32
1, 18561, Note_off_c, 0, 37, 37
1, 18639, Note_off_c, 0, 44, 35
1, 18658, Note_off_c, 0, 51, 36
1, 18907, Note_on_c, 0, 70, 34
1, 18986, Note_off_c, 0, 63, 23
1, 19369, Note_on_c, 0, 59, 29
1, 19387, Note_on_c, 0, 44, 26
1, 19399, Note_on_c, 0, 58, 26
1, 19403, Note_on_c, 0, 51, 28
1, 19463, Note_off_c, 0, 59, 59
1, 19468, Note_off_c, 0, 51, 54
1, 19497, Note_off_c, 0, 44, 58
1, 19498, Note_off_c, 0, 58, 35
1, 19765, Note_on_c, 0, 65, 28
1, 19776, Note_on_c, 0, 53, 38
1, 19777, Note_on_c, 0, 58, 23
1, 19794, Note_on_c, 0, 39, 34
1, 19797, Control_c, 0, 64, 101
1, 19799, Note_on_c, 0, 46, 37
1, 19811, Control_c, 0, 64, 83
1, 19826, Control_c, 0, 64, 71
1, 19841, Control_c, 0, 64, 60
1, 19856, Control_c, 0, 64, 49
1, 19870, Control_c, 0, 64, 43
1, 19885, Control_c, 0, 64, 44
1, 19900, Control_c, 0, 64, 46
1, 19915, Control_c, 0, 64, 51
1, 19925, Note_off_c, 0, 70, 43
1, 19930, Control_c, 0, 64, 57
1, 19945, Control_c, 0, 64, 64
1, 19960, Control_c, 0, 64, 71
1, 19974, Control_c, 0, 64, 83
1, 19989, Control_c, 0, 64, 96
1, 20004, Control_c, 0, 64, 106
1, 20019, Control_c, 0, 64, 119
1, 20034, Control_c, 0, 64, 127
1, 20302, Note_off_c, 0, 58, 28
1, 20387, Note_on_c, 0, 70, 25
1, 20411, Note_off_c, 0, 65, 24
1, 20593, Note_off_c, 0, 70, 36
1, 21628, Note_on_c, 0, 70, 34
1, 21647, Note_on_c, 0, 58, 26
1, 21660, Note_off_c, 0, 53, 30
1, 21773, Note_off_c, 0, 70, 31
1, 21840, Note_off_c, 0, 39, 32
1, 22072, Note_off_c, 0, 46, 40
1, 22225, Note_on_c, 0, 70, 28
1, 22319, Note_off_c, 0, 58, 34
1, 22322, Note_off_c, 0, 70, 0
1, 22372, Poly_aftertouch_c, 0, 70, 0
1, 23554, Note_on_c, 0, 70, 17
1, 23558, Note_on_c, 0, 58, 29
1, 23667, Note_off_c, 0, 70, 55
1, 24145, Note_on_c, 0, 70, 27
1, 24789, Note_on_c, 0, 73, 51
1, 24807, Control_c, 0, 64, 113
1, 24822, Control_c, 0, 64, 91
1, 24837, Control_c, 0, 64, 79
1, 24839, Note_on_c, 0, 61, 35
1, 24851, Control_c, 0, 64, 71
1, 24866, Control_c, 0, 64, 65
1, 24881, Control_c, 0, 64, 64
1, 24896, Control_c, 0, 64, 67
1, 24912, Control_c, 0, 64, 72
1, 24927, Control_c, 0, 64, 80
1, 24942, Control_c, 0, 64, 90
1, 24949, Note_off_c, 0, 70, 39
1, 24956, Control_c, 0, 64, 100
1, 24971, Control_c, 0, 64, 110
1, 24986, Control_c, 0, 64, 127
1, 25028, Note_off_c, 0, 58, 36
1, 25460, Note_on_c, 0, 58, 24
1, 25461, Note_on_c, 0, 70, 26
1, 25536, Note_off_c, 0, 61, 50
1, 25745, Note_on_c, 0, 75, 52
1, 25767, Note_on_c, 0, 63, 30
1, 25841, Note_off_c, 0, 73, 48
1, 26039, Control_c, 0, 64, 108
1, 26054, Control_c, 0, 64, 89
1, 26061, Note_on_c, 0, 73, 61
1, 26069, Control_c, 0, 64, 79
1, 26082, Note_on_c, 0, 61, 44
1, 26084, Control_c, 0, 64, 73
1, 26098, Control_c, 0, 64, 72
1, 26113, Control_c, 0, 64, 74
1, 26128, Control_c, 0, 64, 78
1, 26143, Control_c, 0, 64, 85
1, 26148, Note_off_c, 0, 63, 0
1, 26157, Control_c, 0, 64, 94
1, 26172, Control_c, 0, 64, 105
1, 26187, Control_c, 0, 64, 127
1, 26193, Poly_aftertouch_c, 0, 63, 0
1, 26209, Note_off_c, 0, 75, 34
1, 26210, Note_off_c, 0, 70, 40
1, 26243, Note_off_c, 0, 58, 36
1, 26615, Note_on_c, 0, 70, 39
1, 26624, Note_on_c, 0, 58, 38
1, 26694, Note_off_c, 0, 61, 52
1, 26841, Note_off_c, 0, 70, 30
1, 27211, Note_on_c, 0, 76, 61
1, 27225, Note_on_c, 0, 70, 38
1, 27233, Control_c, 0, 64, 121
1, 27247, Control_c, 0, 64, 92
1, 27255, Note_on_c, 0, 64, 40
1, 27262, Control_c, 0, 64, 78
1, 27284, Control_c, 0, 64, 69
1, 27300, Control_c, 0, 64, 62
1, 27310, Note_off_c, 0, 73, 53
1, 27315, Control_c, 0, 64, 60
1, 27330, Control_c, 0, 64, 61
1, 27345, Control_c, 0, 64, 65
1, 27359, Control_c, 0, 64, 69
1, 27374, Control_c, 0, 64, 76
1, 27389, Control_c, 0, 64, 86
1, 27403, Control_c, 0, 64, 100
1, 27418, Control_c, 0, 64, 114
1, 27433, Control_c, 0, 64, 127
1, 27817, Note_on_c, 0, 75, 62
1, 27861, Note_on_c, 0, 63, 39
1, 27863, Note_off_c, 0, 70, 35
1, 27880, Note_off_c, 0, 76, 51
1, 27892, Note_off_c, 0, 58, 37
1, 27954, Note_off_c, 0, 64, 33
1, 28413, Note_on_c, 0, 72, 53
1, 28425, Note_on_c, 0, 58, 34
1, 28431, Note_on_c, 0, 70, 32
1, 28437, Note_on_c, 0, 60, 41
1, 28447, Control_c, 0, 64, 107
1, 28462, Control_c, 0, 64, 85
1, 28477, Control_c, 0, 64, 73
1, 28492, Control_c, 0, 64, 65
1, 28495, Note_off_c, 0, 75, 48
1, 28504, Note_off_c, 0, 63, 42
1, 28506, Control_c, 0, 64, 62
1, 28521, Control_c, 0, 64, 65
1, 28536, Control_c, 0, 64, 70
1, 28550, Control_c, 0, 64, 78
1, 28565, Control_c, 0, 64, 91
1, 28580, Control_c, 0, 64, 110
1, 28595, Control_c, 0, 64, 127
1, 28668, Note_off_c, 0, 70, 36
1, 28681, Note_off_c, 0, 58, 38
1, 29016, Note_on_c, 0, 70, 24
1, 29040, Note_on_c, 0, 58, 34
1, 29135, Note_off_c, 0, 60, 33
1, 29352, Note_on_c, 0, 75, 51
1, 29387, Note_on_c, 0, 63, 30
1, 29415, Note_off_c, 0, 72, 37
1, 29462, Note_off_c, 0, 75, 49
1, 29475, Note_off_c, 0, 63, 50
1, 29720, Note_on_c, 0, 63, 29
1, 29734, Note_on_c, 0, 75, 49
1, 29783, Control_c, 0, 64, 101
1, 29797, Control_c, 0, 64, 82
1, 29812, Control_c, 0, 64, 69
1, 29827, Control_c, 0, 64, 58
1, 29842, Control_c, 0, 64, 49
1, 29857, Control_c, 0, 64, 47
1, 29866, Note_on_c, 0, 64, 69
1, 29871, Control_c, 0, 64, 50
1, 29886, Control_c, 0, 64, 55
1, 29901, Control_c, 0, 64, 62
1, 29916, Control_c, 0, 64, 69
1, 29931, Control_c, 0, 64, 78
1, 29946, Control_c, 0, 64, 92
1, 29960, Control_c, 0, 64, 100
1, 29975, Control_c, 0, 64, 107
1, 29990, Control_c, 0, 64, 117
1, 30005, Control_c, 0, 64, 127
1, 30011, Note_off_c, 0, 58, 36
1, 30023, Note_off_c, 0, 70, 42
1, 30619, Note_on_c, 0, 70, 21
1, 30639, Note_on_c, 0, 58, 24
1, 30765, Note_off_c, 0, 63, 34
1, 31219, Control_c, 0, 64, 118
1, 31223, Note_on_c, 0, 73, 40
1, 31234, Control_c, 0, 64, 89
1, 31244, Note_on_c, 0, 61, 36
1, 31249, Control_c, 0, 64, 75
1, 31264, Control_c, 0, 64, 66
1, 31278, Control_c, 0, 64, 62
1, 31287, Note_off_c, 0, 75, 35
1, 31294, Control_c, 0, 64, 63
1, 31309, Control_c, 0, 64, 67
1, 31324, Control_c, 0, 64, 74
1, 31339, Control_c, 0, 64, 86
1, 31354, Control_c, 0, 64, 101
1, 31368, Control_c, 0, 64, 127
1, 31381, Note_off_c, 0, 70, 39
1, 31419, Note_off_c, 0, 58, 36
1, 31792, Note_on_c, 0, 70, 27
1, 31795, Note_on_c, 0, 58, 26
1, 31862, Note_off_c, 0, 61, 52
1, 31922, Note_off_c, 0, 70, 50
1, 32337, Note_on_c, 0, 70, 34
1, 32445, Note_off_c, 0, 70, 33
1, 32470, Note_off_c, 0, 73, 34
1, 32942, Note_off_c, 0, 58, 47
1, 33584, Note_on_c, 0, 70, 29
1, 33621, Note_on_c, 0, 58, 14
1, 33696, Note_off_c, 0, 70, 50
1, 34184, Note_on_c, 0, 70, 26
1, 34277, Note_off_c, 0, 64, 37
1, 34872, Note_on_c, 0, 65, 31
1, 34890, Control_c, 0, 64, 112
1, 34892, Note_on_c, 0, 53, 18
1, 34901, Note_on_c, 0, 39, 29
1, 34905, Control_c, 0, 64, 92
1, 34906, Note_on_c, 0, 46, 34
1, 34919, Control_c, 0, 64, 79
1, 34934, Control_c, 0, 64, 68
1, 34949, Control_c, 0, 64, 59
1, 34964, Control_c, 0, 64, 53
1, 34979, Control_c, 0, 64, 51
1, 34980, Note_off_c, 0, 58, 36
1, 34993, Control_c, 0, 64, 51
1, 35006, Note_off_c, 0, 70, 38
1, 35008, Control_c, 0, 64, 53
1, 35023, Control_c, 0, 64, 57
1, 35037, Control_c, 0, 64, 62
1, 35052, Control_c, 0, 64, 68
1, 35067, Control_c, 0, 64, 76
1, 35082, Control_c, 0, 64, 89
1, 35097, Control_c, 0, 64, 107
1, 35111, Control_c, 0, 64, 127
1, 35477, Note_off_c, 0, 53, 39
1, 35564, Note_on_c, 0, 70, 34
1, 35586, Note_on_c, 0, 58, 28
1, 35655, Note_off_c, 0, 65, 32
1, 35759, Note_off_c, 0, 58, 33
1, 35775, Note_off_c, 0, 46, 34
1, 35792, Note_off_c, 0, 70, 36
1, 36894, Note_on_c, 0, 70, 42
1, 36908, Note_on_c, 0, 58, 33
1, 36989, Note_off_c, 0, 70, 52
1, 37522, Note_on_c, 0, 70, 30
1, 37544, Note_off_c, 0, 58, 25
1, 37665, Note_off_c, 0, 70, 35
1, 37857, Note_off_c, 0, 39, 47
1, 38149, Note_on_c, 0, 61, 37
1, 38161, Note_on_c, 0, 54, 23
1, 38179, Note_on_c, 0, 42, 38
1, 38183, Note_on_c, 0, 35, 38
1, 38203, Note_on_c, 0, 49, 26
1, 38304, Note_off_c, 0, 54, 39
1, 38336, Note_off_c, 0, 35, 58
1, 38337, Note_off_c, 0, 61, 52
1, 38426, Note_off_c, 0, 42, 57
1, 38514, Note_off_c, 0, 49, 45
1, 38760, Note_on_c, 0, 70, 54
1, 38774, Note_on_c, 0, 51, 43
1, 38774, Note_on_c, 0, 56, 37
1, 38776, Note_on_c, 0, 63, 44
1, 38781, Note_on_c, 0, 37, 45
1, 38783, Control_c, 0, 64, 101
1, 38789, Note_on_c, 0, 44, 46
1, 38798, Control_c, 0, 64, 77
1, 38812, Control_c, 0, 64, 65
1, 38827, Control_c, 0, 64, 56
1, 38857, Control_c, 0, 64, 61
1, 38872, Control_c, 0, 64, 67
1, 38886, Control_c, 0, 64, 76
1, 38901, Control_c, 0, 64, 93
1, 38916, Control_c, 0, 64, 113
1, 38930, Control_c, 0, 64, 127
1, 39000, Note_off_c, 0, 70, 37
1, 39016, Note_off_c, 0, 37, 35
1, 39016, Note_off_c, 0, 56, 43
1, 39124, Note_off_c, 0, 44, 35
1, 39162, Note_off_c, 0, 51, 31
1, 39435, Note_on_c, 0, 70, 38
1, 39459, Note_off_c, 0, 63, 39
1, 39845, Note_on_c, 0, 59, 42
1, 39852, Note_on_c, 0, 44, 37
1, 39856, Note_on_c, 0, 58, 39
1, 39857, Note_on_c, 0, 51, 37
1, 39896, Note_off_c, 0, 59, 56
1, 39897, Note_off_c, 0, 58, 55
1, 39923, Note_off_c, 0, 44, 60
1, 39929, Note_off_c, 0, 51, 54
1, 40192, Note_on_c, 0, 58, 38
1, 40198, Note_on_c, 0, 65, 41
1, 40206, Control_c, 0, 64, 88
1, 40221, Control_c, 0, 64, 69
1, 40222, Note_on_c, 0, 53, 37
1, 40223, Note_on_c, 0, 39, 40
1, 40224, Note_on_c, 0, 46, 47
1, 40236, Control_c, 0, 64, 45
1, 40251, Control_c, 0, 64, 0
1, 40325, Control_c, 0, 64, 34
1, 40340, Control_c, 0, 64, 52
1, 40355, Control_c, 0, 64, 61
1, 40370, Control_c, 0, 64, 65
1, 40384, Control_c, 0, 64, 70
1, 40399, Control_c, 0, 64, 75
1, 40414, Control_c, 0, 64, 82
1, 40416, Note_off_c, 0, 70, 33
1, 40429, Control_c, 0, 64, 93
1, 40444, Control_c, 0, 64, 106
1, 40458, Control_c, 0, 64, 127
1, 40724, Note_off_c, 0, 58, 41
1, 40810, Note_on_c, 0, 70, 39
1, 40879, Note_off_c, 0, 65, 38
1, 40973, Note_off_c, 0, 70, 34
1, 41939, Note_on_c, 0, 70, 40
1, 41943, Note_on_c, 0, 58, 32
1, 42025, Note_off_c, 0, 70, 53
1, 42084, Note_off_c, 0, 39, 56
1, 42162, Note_off_c, 0, 53, 33
1, 42400, Note_off_c, 0, 46, 34
1, 42546, Note_off_c, 0, 58, 25
1, 42551, Note_on_c, 0, 70, 26
1, 42684, Note_off_c, 0, 70, 34
1, 43804, Note_on_c, 0, 58, 35
1, 43804, Note_on_c, 0, 70, 29
1, 43910, Note_off_c, 0, 70, 58
1, 44424, Note_on_c, 0, 70, 25
1, 45037, Note_on_c, 0, 76, 62
1, 45054, Note_on_c, 0, 73, 46
1, 45070, Note_on_c, 0, 64, 38
1, 45081, Note_on_c, 0, 61, 32
1, 45084, Control_c, 0, 64, 110
1, 45098, Control_c, 0, 64, 95
1, 45113, Control_c, 0, 64, 86
1, 45128, Control_c, 0, 64, 84
1, 45172, Control_c, 0, 64, 84
1, 45186, Note_off_c, 0, 70, 38
1, 45187, Control_c, 0, 64, 85
1, 45202, Control_c, 0, 64, 86
1, 45220, Note_off_c, 0, 58, 40
1, 45254, Control_c, 0, 64, 85
1, 45269, Control_c, 0, 64, 81
1, 45284, Control_c, 0, 64, 75
1, 45298, Control_c, 0, 64, 69
1, 45313, Control_c, 0, 64, 66
1, 45328, Control_c, 0, 64, 69
1, 45343, Control_c, 0, 64, 76
1, 45358, Control_c, 0, 64, 89
1, 45372, Control_c, 0, 64, 127
1, 45452, Note_off_c, 0, 73, 20
1, 45708, Note_on_c, 0, 58, 31
1, 45713, Note_on_c, 0, 70, 27
1, 45753, Note_off_c, 0, 64, 36
1, 45780, Note_off_c, 0, 61, 40
1, 45968, Note_on_c, 0, 78, 64
1, 45984, Note_on_c, 0, 75, 52
1, 46007, Note_on_c, 0, 63, 38
1, 46019, Note_off_c, 0, 76, 52
1, 46021, Note_on_c, 0, 66, 37
1, 46078, Note_off_c, 0, 75, 54
1, 46091, Note_off_c, 0, 66, 46
1, 46123, Note_off_c, 0, 63, 54
1, 46269, Control_c, 0, 64, 105
1, 46283, Note_on_c, 0, 76, 68
1, 46284, Control_c, 0, 64, 85
1, 46299, Control_c, 0, 64, 70
1, 46305, Note_on_c, 0, 73, 53
1, 46310, Note_on_c, 0, 64, 40
1, 46314, Control_c, 0, 64, 58
1, 46329, Control_c, 0, 64, 44
1, 46330, Note_on_c, 0, 61, 28
1, 46333, Note_off_c, 0, 78, 56
1, 46343, Control_c, 0, 64, 39
1, 46373, Control_c, 0, 64, 40
1, 46388, Control_c, 0, 64, 46
1, 46403, Control_c, 0, 64, 55
1, 46418, Control_c, 0, 64, 65
1, 46433, Control_c, 0, 64, 76
1, 46447, Control_c, 0, 64, 90
1, 46456, Note_off_c, 0, 58, 34
1, 46462, Note_off_c, 0, 70, 34
1, 46463, Control_c, 0, 64, 107
1, 46478, Control_c, 0, 64, 127
1, 46759, Note_off_c, 0, 73, 32
1, 46827, Note_off_c, 0, 76, 29
1, 46913, Note_on_c, 0, 58, 26
1, 46913, Note_on_c, 0, 70, 38
1, 46976, Note_off_c, 0, 64, 37
1, 46984, Note_off_c, 0, 61, 36
1, 47154, Note_off_c, 0, 70, 44
1, 47475, Note_on_c, 0, 80, 71
1, 47500, Control_c, 0, 64, 95
1, 47503, Note_on_c, 0, 76, 60
1, 47506, Note_on_c, 0, 70, 48
1, 47515, Control_c, 0, 64, 81
1, 47529, Note_on_c, 0, 68, 40
1, 47530, Note_on_c, 0, 64, 43
1, 47530, Control_c, 0, 64, 75
1, 47545, Control_c, 0, 64, 74
1, 47560, Control_c, 0, 64, 78
1, 47575, Control_c, 0, 64, 86
1, 47590, Control_c, 0, 64, 99
1, 47604, Control_c, 0, 64, 127
1, 47607, Note_off_c, 0, 68, 0
1, 47607, Note_on_c, 0, 68, 6
1, 47741, Note_off_c, 0, 64, 32
1, 47745, Note_off_c, 0, 68, 46
1, 47756, Note_off_c, 0, 76, 34
1, 48070, Note_on_c, 0, 79, 72
1, 48094, Note_on_c, 0, 75, 54
1, 48096, Note_on_c, 0, 63, 35
1, 48106, Note_on_c, 0, 67, 41
1, 48133, Note_off_c, 0, 80, 61
1, 48168, Note_off_c, 0, 58, 38
1, 48198, Note_off_c, 0, 70, 36
1, 48253, Note_off_c, 0, 63, 55
1, 48308, Note_off_c, 0, 75, 56
1, 48421, Note_off_c, 0, 67, 46
1, 48675, Note_on_c, 0, 73, 63
1, 48686, Note_on_c, 0, 70, 43
1, 48693, Control_c, 0, 64, 109
1, 48708, Control_c, 0, 64, 84
1, 48709, Note_on_c, 0, 58, 33
1, 48710, Note_on_c, 0, 61, 43
1, 48723, Control_c, 0, 64, 69
1, 48738, Control_c, 0, 64, 57
1, 48753, Control_c, 0, 64, 48
1, 48767, Control_c, 0, 64, 45
1, 48782, Control_c, 0, 64, 48
1, 48797, Control_c, 0, 64, 55
1, 48812, Control_c, 0, 64, 63
1, 48827, Control_c, 0, 64, 73
1, 48841, Control_c, 0, 64, 87
1, 48853, Note_off_c, 0, 79, 32
1, 48856, Control_c, 0, 64, 114
1, 48872, Control_c, 0, 64, 127
1, 48905, Note_off_c, 0, 70, 38
1, 48913, Note_off_c, 0, 58, 32
1, 49371, Note_on_c, 0, 70, 28
1, 49377, Note_on_c, 0, 58, 27
1, 49464, Note_off_c, 0, 61, 34
1, 49709, Note_on_c, 0, 78, 61
1, 49748, Note_on_c, 0, 75, 46
1, 49764, Note_on_c, 0, 63, 31
1, 49768, Note_on_c, 0, 66, 33
1, 49881, Note_off_c, 0, 78, 53
1, 49882, Note_off_c, 0, 63, 49
1, 49882, Note_off_c, 0, 66, 55
1, 49968, Note_off_c, 0, 75, 29
1, 49984, Control_c, 0, 64, 112
1, 49999, Control_c, 0, 64, 78
1, 50013, Control_c, 0, 64, 60
1, 50023, Note_on_c, 0, 78, 58
1, 50028, Control_c, 0, 64, 32
1, 50043, Control_c, 0, 64, 0
1, 50049, Note_on_c, 0, 66, 31
1, 50049, Note_on_c, 0, 75, 34
1, 50052, Note_on_c, 0, 63, 17
1, 50070, Note_off_c, 0, 73, 55
1, 50073, Control_c, 0, 64, 10
1, 50088, Control_c, 0, 64, 36
1, 50102, Control_c, 0, 64, 55
1, 50117, Control_c, 0, 64, 62
1, 50132, Control_c, 0, 64, 66
1, 50147, Control_c, 0, 64, 68
1, 50162, Control_c, 0, 64, 72
1, 50177, Control_c, 0, 64, 78
1, 50178, Note_off_c, 0, 70, 33
1, 50192, Control_c, 0, 64, 87
1, 50207, Control_c, 0, 64, 98
1, 50221, Control_c, 0, 64, 114
1, 50232, Note_off_c, 0, 58, 40
1, 50236, Control_c, 0, 64, 127
1, 50657, Note_on_c, 0, 70, 38
1, 50682, Note_on_c, 0, 58, 22
1, 50742, Note_off_c, 0, 66, 32
1, 50749, Note_off_c, 0, 63, 20
1, 50788, Note_off_c, 0, 75, 34
1, 51235, Note_on_c, 0, 76, 53
1, 51259, Control_c, 0, 64, 99
1, 51264, Note_on_c, 0, 73, 36
1, 51271, Note_on_c, 0, 61, 29
1, 51274, Control_c, 0, 64, 79
1, 51284, Note_on_c, 0, 64, 28
1, 51289, Control_c, 0, 64, 67
1, 51304, Control_c, 0, 64, 58
1, 51314, Note_off_c, 0, 78, 43
1, 51319, Control_c, 0, 64, 54
1, 51334, Control_c, 0, 64, 57
1, 51348, Control_c, 0, 64, 63
1, 51363, Control_c, 0, 64, 70
1, 51378, Control_c, 0, 64, 82
1, 51393, Control_c, 0, 64, 101
1, 51408, Control_c, 0, 64, 127
1, 51422, Note_off_c, 0, 58, 32
1, 51473, Note_off_c, 0, 70, 37
1, 51775, Note_off_c, 0, 64, 26
1, 51822, Note_on_c, 0, 70, 29
1, 51831, Note_on_c, 0, 58, 30
1, 51870, Note_off_c, 0, 61, 26
1, 51945, Note_off_c, 0, 70, 51
1, 52430, Note_on_c, 0, 70, 31
1, 52571, Note_off_c, 0, 70, 30
1, 52629, Note_off_c, 0, 58, 33
1, 53682, Note_on_c, 0, 70, 29
1, 53718, Note_on_c, 0, 58, 20
1, 53775, Note_off_c, 0, 70, 37
1, 54288, Note_on_c, 0, 70, 23
1, 54373, Note_off_c, 0, 73, 38
1, 54420, Note_off_c, 0, 70, 56
1, 54493, Note_off_c, 0, 58, 21
1, 54961, Note_on_c, 0, 80, 41
1, 54993, Note_on_c, 0, 75, 31
1, 55000, Note_on_c, 0, 53, 34
1, 55000, Note_on_c, 0, 63, 28
1, 55001, Note_on_c, 0, 59, 32
1, 55003, Note_on_c, 0, 68, 35
1, 55003, Control_c, 0, 64, 96
1, 55006, Note_on_c, 0, 71, 26
1, 55018, Control_c, 0, 64, 77
1, 55024, Note_off_c, 0, 76, 31
1, 55033, Control_c, 0, 64, 64
1, 55048, Control_c, 0, 64, 53
1, 55063, Control_c, 0, 64, 50
1, 55078, Control_c, 0, 64, 55
1, 55092, Control_c, 0, 64, 64
1, 55107, Control_c, 0, 64, 73
1, 55122, Control_c, 0, 64, 86
1, 55137, Control_c, 0, 64, 113
1, 55152, Control_c, 0, 64, 127
1, 55182, Note_off_c, 0, 80, 35
1, 55207, Note_off_c, 0, 71, 36
1, 55220, Note_off_c, 0, 75, 41
1, 55233, Note_off_c, 0, 68, 56
1, 55236, Note_off_c, 0, 63, 43
1, 55351, Note_off_c, 0, 59, 35
1, 55396, Note_off_c, 0, 53, 56
1, 55706, Note_on_c, 0, 70, 30
1, 55757, Note_on_c, 0, 58, 24
1, 56213, Note_off_c, 0, 58, 29
1, 56305, Note_on_c, 0, 46, 35
1, 56307, Note_on_c, 0, 34, 38
1, 56333, Note_off_c, 0, 70, 15
1, 56573, Note_off_c, 0, 46, 20
1, 56812, Note_off_c, 0, 34, 40
1, 56952, Note_on_c, 0, 70, 35
1, 56964, Note_on_c, 0, 58, 29
1, 57094, Note_off_c, 0, 70, 30
1, 57462, Note_off_c, 0, 58, 35
1, 57526, Note_on_c, 0, 70, 32
1, 57719, Note_off_c, 0, 70, 35
1, 58082, Note_on_c, 0, 76, 55
1, 58112, Note_on_c, 0, 68, 41
1, 58118, Note_on_c, 0, 64, 39
1, 58126, Note_on_c, 0, 49, 35
1, 58130, Note_on_c, 0, 71, 14
1, 58136, Note_on_c, 0, 59, 36
1, 58143, Note_on_c, 0, 56, 35
1, 58211, Note_off_c, 0, 71, 0
1, 58268, Poly_aftertouch_c, 0, 71, 0
1, 58285, Note_off_c, 0, 64, 36
1, 58318, Note_off_c, 0, 76, 49
1, 58395, Note_off_c, 0, 56, 56
1, 58415, Note_off_c, 0, 68, 31
1, 58417, Note_off_c, 0, 49, 57
1, 58467, Note_off_c, 0, 59, 56
1, 58705, Note_on_c, 0, 77, 63
1, 58711, Control_c, 0, 64, 95
1, 58731, Note_on_c, 0, 70, 52
1, 58734, Control_c, 0, 64, 77
1, 58735, Note_on_c, 0, 50, 43
1, 58735, Note_on_c, 0, 60, 40
1, 58735, Note_on_c, 0, 68, 45
1, 58738, Note_on_c, 0, 56, 46
1, 58745, Note_on_c, 0, 58, 45
1, 58745, Note_on_c, 0, 65, 35
1, 58749, Control_c, 0, 64, 69
1, 58755, Note_on_c, 0, 72, 34
1, 58778, Control_c, 0, 64, 73
1, 58793, Note_off_c, 0, 60, 0
1, 58793, Note_on_c, 0, 60, 5
1, 58793, Control_c, 0, 64, 83
1, 58808, Control_c, 0, 64, 99
1, 58822, Control_c, 0, 64, 127
1, 58842, Note_off_c, 0, 72, 0
1, 58880, Poly_aftertouch_c, 0, 72, 127
1, 58896, Note_off_c, 0, 77, 48
1, 58898, Note_off_c, 0, 65, 38
1, 58920, Poly_aftertouch_c, 0, 72, 0
1, 58968, Note_off_c, 0, 68, 45
1, 58970, Note_off_c, 0, 50, 47
1, 58991, Note_off_c, 0, 70, 55
1, 59146, Note_off_c, 0, 60, 48
1, 59272, Note_off_c, 0, 58, 36
1, 59303, Note_off_c, 0, 56, 55
1, 59359, Note_on_c, 0, 70, 41
1, 59740, Note_on_c, 0, 82, 71
1, 59757, Note_on_c, 0, 66, 51
1, 59760, Note_on_c, 0, 62, 33
1, 59764, Note_on_c, 0, 78, 58
1, 59765, Note_on_c, 0, 74, 39
1, 59767, Note_on_c, 0, 56, 47
1, 59797, Note_off_c, 0, 74, 54
1, 59816, Note_off_c, 0, 62, 61
1, 59843, Note_off_c, 0, 82, 60
1, 59877, Note_off_c, 0, 66, 57
1, 59910, Note_off_c, 0, 70, 53
1, 59966, Note_off_c, 0, 56, 53
1, 60046, Control_c, 0, 64, 115
1, 60050, Note_on_c, 0, 80, 70
1, 60061, Control_c, 0, 64, 80
1, 60062, Note_on_c, 0, 71, 58
1, 60064, Note_on_c, 0, 75, 56
1, 60065, Note_on_c, 0, 63, 52
1, 60070, Note_on_c, 0, 53, 45
1, 60070, Note_on_c, 0, 59, 51
1, 60074, Note_off_c, 0, 78, 56
1, 60075, Note_on_c, 0, 68, 54
1, 60075, Control_c, 0, 64, 61
1, 60090, Control_c, 0, 64, 50
1, 60105, Control_c, 0, 64, 49
1, 60120, Control_c, 0, 64, 55
1, 60135, Control_c, 0, 64, 62
1, 60149, Control_c, 0, 64, 66
1, 60163, Control_c, 0, 64, 67
1, 60193, Control_c, 0, 64, 68
1, 60208, Control_c, 0, 64, 70
1, 60230, Control_c, 0, 64, 78
1, 60245, Control_c, 0, 64, 95
1, 60260, Control_c, 0, 64, 127
1, 60266, Note_off_c, 0, 80, 58
1, 60300, Note_off_c, 0, 71, 58
1, 60311, Note_off_c, 0, 75, 58
1, 60326, Note_off_c, 0, 68, 63
1, 60353, Note_off_c, 0, 63, 56
1, 60428, Note_off_c, 0, 59, 61
1, 60462, Note_off_c, 0, 53, 47
1, 60687, Note_on_c, 0, 70, 43
1, 60712, Note_on_c, 0, 58, 30
1, 61254, Note_on_c, 0, 46, 50
1, 61255, Note_on_c, 0, 34, 49
1, 61458, Note_off_c, 0, 58, 39
1, 61460, Note_off_c, 0, 70, 39
1, 61739, Note_off_c, 0, 46, 38
1, 61832, Note_on_c, 0, 70, 53
1, 61836, Note_on_c, 0, 58, 37
1, 61871, Note_off_c, 0, 34, 55
1, 61902, Note_off_c, 0, 70, 51
1, 62339, Note_off_c, 0, 58, 41
1, 62389, Note_on_c, 0, 70, 42
1, 62556, Note_off_c, 0, 70, 0
1, 62593, Poly_aftertouch_c, 0, 70, 127
1, 62633, Poly_aftertouch_c, 0, 70, 0
1, 62978, Note_on_c, 0, 76, 66
1, 62998, Note_on_c, 0, 49, 53
1, 63003, Note_on_c, 0, 59, 48
1, 63003, Note_on_c, 0, 68, 47
1, 63004, Note_on_c, 0, 64, 46
1, 63006, Note_on_c, 0, 71, 37
1, 63021, Note_on_c, 0, 56, 45
1, 63099, Note_off_c, 0, 68, 0
1, 63099, Note_on_c, 0, 68, 3
1, 63132, Note_off_c, 0, 71, 41
1, 63165, Note_off_c, 0, 64, 35
1, 63191, Note_off_c, 0, 76, 56
1, 63236, Note_off_c, 0, 68, 41
1, 63265, Note_off_c, 0, 56, 59
1, 63275, Note_off_c, 0, 49, 61
1, 63293, Note_off_c, 0, 59, 60
1, 63552, Control_c, 0, 64, 97
1, 63567, Control_c, 0, 64, 77
1, 63582, Control_c, 0, 64, 69
1, 63603, Note_on_c, 0, 50, 55
1, 63609, Note_on_c, 0, 77, 76
1, 63612, Control_c, 0, 64, 74
1, 63621, Note_on_c, 0, 60, 49
1, 63621, Note_on_c, 0, 70, 65
1, 63626, Note_on_c, 0, 56, 55
1, 63627, Control_c, 0, 64, 85
1, 63628, Note_on_c, 0, 68, 64
1, 63630, Note_on_c, 0, 65, 63
1, 63630, Note_on_c, 0, 58, 54
1, 63642, Control_c, 0, 64, 101
1, 63657, Control_c, 0, 64, 127
1, 63675, Note_on_c, 0, 72, 7
1, 63684, Note_off_c, 0, 65, 61
1, 63705, Note_off_c, 0, 70, 62
1, 63712, Note_off_c, 0, 68, 63
1, 63721, Note_off_c, 0, 77, 63
1, 63722, Note_off_c, 0, 72, 34
1, 63727, Note_off_c, 0, 50, 62
1, 63738, Note_off_c, 0, 60, 63
1, 63744, Note_off_c, 0, 58, 61
1, 63755, Note_off_c, 0, 56, 62
1, 64014, Note_on_c, 0, 82, 81
1, 64025, Note_on_c, 0, 78, 67
1, 64028, Note_on_c, 0, 56, 48
1, 64028, Note_on_c, 0, 62, 51
1, 64032, Note_on_c, 0, 70, 58
1, 64036, Note_on_c, 0, 66, 49
1, 64043, Note_on_c, 0, 74, 49
1, 64068, Note_off_c, 0, 70, 61
1, 64142, Note_off_c, 0, 62, 59
1, 64175, Note_off_c, 0, 74, 0
1, 64212, Poly_aftertouch_c, 0, 74, 127
1, 64223, Note_off_c, 0, 66, 35
1, 64252, Note_on_c, 0, 70, 64
1, 64283, Poly_aftertouch_c, 0, 74, 0
1, 64324, Note_off_c, 0, 82, 30
1, 64341, Note_off_c, 0, 70, 61
1, 64437, Note_on_c, 0, 61, 53
1, 64444, Note_on_c, 0, 65, 52
1, 64449, Note_off_c, 0, 78, 48
1, 64464, Control_c, 0, 64, 116
1, 64479, Control_c, 0, 64, 86
1, 64493, Control_c, 0, 64, 77
1, 64505, Note_on_c, 0, 81, 84
1, 64520, Note_on_c, 0, 77, 65
1, 64523, Note_on_c, 0, 69, 65
1, 64523, Control_c, 0, 64, 83
1, 64526, Note_on_c, 0, 73, 58
1, 64538, Control_c, 0, 64, 96
1, 64553, Control_c, 0, 64, 127
1, 64667, Note_off_c, 0, 81, 59
1, 64672, Note_off_c, 0, 65, 60
1, 64697, Note_off_c, 0, 69, 46
1, 64708, Note_off_c, 0, 73, 50
1, 64729, Note_off_c, 0, 61, 59
1, 65079, Note_on_c, 0, 80, 74
1, 65079, Control_c, 0, 64, 92
1, 65094, Control_c, 0, 64, 69
1, 65096, Note_on_c, 0, 71, 51
1, 65098, Note_on_c, 0, 68, 57
1, 65099, Note_off_c, 0, 77, 56
1, 65104, Note_on_c, 0, 75, 52
1, 65108, Control_c, 0, 64, 45
1, 65110, Note_on_c, 0, 63, 42
1, 65115, Note_off_c, 0, 56, 36
1, 65116, Note_on_c, 0, 53, 43
1, 65120, Note_on_c, 0, 59, 41
1, 65123, Control_c, 0, 64, 0
1, 65213, Control_c, 0, 64, 39
1, 65228, Control_c, 0, 64, 59
1, 65242, Control_c, 0, 64, 69
1, 65257, Control_c, 0, 64, 83
1, 65272, Control_c, 0, 64, 109
1, 65287, Control_c, 0, 64, 127
1, 65305, Note_off_c, 0, 80, 59
1, 65329, Note_off_c, 0, 71, 56
1, 65332, Note_off_c, 0, 75, 58
1, 65350, Note_off_c, 0, 63, 52
1, 65363, Note_off_c, 0, 68, 63
1, 65406, Note_off_c, 0, 59, 58
1, 65434, Note_off_c, 0, 53, 49
1, 65765, Note_on_c, 0, 70, 39
1, 65797, Note_on_c, 0, 58, 39
1, 65902, Note_off_c, 0, 58, 0
1, 65939, Poly_aftertouch_c, 0, 58, 127
1, 66323, Poly_aftertouch_c, 0, 58, 0
1, 66351, Note_on_c, 0, 46, 42
1, 66361, Note_on_c, 0, 34, 42
1, 66397, Note_off_c, 0, 70, 33
1, 66835, Note_off_c, 0, 34, 34
1, 66848, Note_off_c, 0, 46, 36
1, 66911, Note_on_c, 0, 70, 47
1, 66920, Note_on_c, 0, 58, 39
1, 66976, Note_off_c, 0, 70, 52
1, 67455, Note_off_c, 0, 58, 42
1, 67476, Note_on_c, 0, 70, 42
1, 67555, Note_off_c, 0, 70, 60
1, 68074, Note_on_c, 0, 78, 61
1, 68098, Note_on_c, 0, 74, 51
1, 68109, Note_on_c, 0, 62, 36
1, 68113, Note_on_c, 0, 66, 42
1, 68115, Note_on_c, 0, 53, 38
1, 68116, Note_on_c, 0, 70, 30
1, 68122, Note_on_c, 0, 58, 34
1, 68149, Control_c, 0, 64, 99
1, 68164, Control_c, 0, 64, 83
1, 68179, Control_c, 0, 64, 72
1, 68194, Control_c, 0, 64, 65
1, 68208, Control_c, 0, 64, 64
1, 68223, Control_c, 0, 64, 67
1, 68238, Control_c, 0, 64, 74
1, 68253, Control_c, 0, 64, 88
1, 68268, Control_c, 0, 64, 112
1, 68283, Control_c, 0, 64, 127
1, 68313, Note_off_c, 0, 70, 17
1, 68676, Note_off_c, 0, 66, 45
1, 68703, Note_on_c, 0, 70, 43
1, 68736, Note_off_c, 0, 53, 55
1, 68745, Note_off_c, 0, 62, 36
1, 68751, Note_off_c, 0, 78, 30
1, 68826, Note_off_c, 0, 74, 38
1, 68845, Note_off_c, 0, 58, 34
1, 68866, Note_off_c, 0, 70, 46
1, 69320, Control_c, 0, 64, 89
1, 69330, Note_on_c, 0, 77, 46
1, 69335, Control_c, 0, 64, 70
1, 69350, Control_c, 0, 64, 60
1, 69358, Note_on_c, 0, 65, 32
1, 69363, Note_on_c, 0, 72, 23
1, 69364, Note_on_c, 0, 50, 33
1, 69365, Control_c, 0, 64, 58
1, 69371, Note_on_c, 0, 60, 19
1, 69371, Note_on_c, 0, 58, 24
1, 69373, Note_on_c, 0, 70, 16
1, 69374, Note_on_c, 0, 56, 31
1, 69380, Control_c, 0, 64, 63
1, 69395, Control_c, 0, 64, 73
1, 69409, Control_c, 0, 64, 89
1, 69424, Control_c, 0, 64, 127
1, 69463, Note_off_c, 0, 77, 57
1, 69481, Note_off_c, 0, 60, 44
1, 69493, Note_off_c, 0, 72, 52
1, 69520, Note_off_c, 0, 58, 43
1, 69523, Note_off_c, 0, 65, 57
1, 69530, Note_off_c, 0, 56, 42
1, 69531, Note_off_c, 0, 50, 49
1, 69532, Note_off_c, 0, 70, 43
1, 70093, Note_on_c, 0, 56, 32
1, 70097, Note_on_c, 0, 39, 12
1, 70108, Note_on_c, 0, 46, 30
1, 70112, Note_on_c, 0, 51, 26
1, 70113, Control_c, 0, 64, 90
1, 70128, Control_c, 0, 64, 73
1, 70143, Control_c, 0, 64, 58
1, 70158, Control_c, 0, 64, 42
1, 70173, Control_c, 0, 64, 31
1, 70188, Control_c, 0, 64, 30
1, 70203, Control_c, 0, 64, 33
1, 70218, Control_c, 0, 64, 43
1, 70232, Control_c, 0, 64, 56
1, 70247, Control_c, 0, 64, 68
1, 70262, Control_c, 0, 64, 77
1, 70277, Control_c, 0, 64, 88
1, 70292, Control_c, 0, 64, 100
1, 70306, Control_c, 0, 64, 117
1, 70321, Control_c, 0, 64, 127
1, 70369, Note_off_c, 0, 56, 35
1, 70708, Note_off_c, 0, 51, 24
1, 70784, Note_on_c, 0, 70, 34
1, 70789, Note_on_c, 0, 58, 31
1, 70846, Note_off_c, 0, 46, 30
1, 70863, Note_off_c, 0, 70, 49
1, 70875, Note_off_c, 0, 39, 42
1, 71405, Note_on_c, 0, 70, 30
1, 71517, Note_off_c, 0, 58, 35
1, 71537, Note_off_c, 0, 70, 34
1, 72641, Note_on_c, 0, 51, 30
1, 72655, Note_on_c, 0, 34, 25
1, 72664, Note_on_c, 0, 41, 16
1, 72682, Note_on_c, 0, 46, 3
1, 72749, Note_off_c, 0, 46, 53
1, 72767, Note_off_c, 0, 51, 34
1, 72809, Note_off_c, 0, 41, 30
1, 72862, Note_off_c, 0, 34, 39
1, 73265, Note_on_c, 0, 70, 19
1, 73286, Note_on_c, 0, 58, 23
1, 73404, Note_off_c, 0, 58, 27
1, 73881, Note_on_c, 0, 46, 30
1, 73885, Note_on_c, 0, 56, 32
1, 73891, Note_on_c, 0, 51, 29
1, 73905, Note_on_c, 0, 39, 35
1, 73917, Control_c, 0, 64, 109
1, 73932, Control_c, 0, 64, 88
1, 73947, Control_c, 0, 64, 76
1, 73962, Control_c, 0, 64, 69
1, 73976, Control_c, 0, 64, 67
1, 73979, Note_off_c, 0, 70, 40
1, 73991, Control_c, 0, 64, 69
1, 74006, Control_c, 0, 64, 75
1, 74021, Control_c, 0, 64, 88
1, 74036, Control_c, 0, 64, 109
1, 74051, Control_c, 0, 64, 127
1, 74114, Note_off_c, 0, 56, 39
1, 74372, Note_off_c, 0, 51, 32
1, 74492, Note_on_c, 0, 70, 38
1, 74519, Note_on_c, 0, 58, 33
1, 74564, Note_off_c, 0, 46, 33
1, 74617, Note_off_c, 0, 70, 33
1, 75109, Note_on_c, 0, 70, 37
1, 75183, Note_off_c, 0, 58, 33
1, 75183, Note_off_c, 0, 70, 51
1, 76328, Note_on_c, 0, 51, 34
1, 76341, Note_on_c, 0, 34, 27
1, 76351, Note_on_c, 0, 46, 19
1, 76359, Note_on_c, 0, 41, 18
1, 76376, Note_off_c, 0, 39, 10
1, 76405, Note_off_c, 0, 51, 56
1, 76500, Note_off_c, 0, 46, 37
1, 76726, Note_off_c, 0, 41, 39
1, 76769, Note_off_c, 0, 34, 39
1, 76958, Note_on_c, 0, 70, 34
1, 76990, Note_on_c, 0, 58, 27
1, 77054, Note_off_c, 0, 58, 46
1, 77104, Control_c, 0, 64, 122
1, 77119, Control_c, 0, 64, 85
1, 77134, Control_c, 0, 64, 73
1, 77148, Control_c, 0, 64, 70
1, 77163, Control_c, 0, 64, 75
1, 77171, Note_off_c, 0, 70, 62
1, 77178, Control_c, 0, 64, 85
1, 77193, Control_c, 0, 64, 104
1, 77207, Note_on_c, 0, 46, 56
1, 77208, Control_c, 0, 64, 127
1, 77214, Note_on_c, 0, 39, 53
1, 77247, Note_off_c, 0, 39, 65
1, 77258, Note_off_c, 0, 46, 63
1, 77603, Note_on_c, 0, 85, 86
1, 77622, Note_on_c, 0, 76, 61
1, 77631, Note_on_c, 0, 73, 57
1, 77631, Note_on_c, 0, 80, 50
1, 77632, Note_on_c, 0, 68, 60
1, 77636, Note_on_c, 0, 64, 55
1, 77639, Note_on_c, 0, 58, 45
1, 77684, Note_off_c, 0, 80, 47
1, 77714, Note_off_c, 0, 76, 35
1, 77715, Note_off_c, 0, 68, 52
1, 77732, Note_off_c, 0, 85, 61
1, 77749, Note_off_c, 0, 73, 57
1, 77792, Note_off_c, 0, 64, 33
1, 77797, Note_off_c, 0, 58, 45
1, 78307, Note_on_c, 0, 70, 49
1, 78329, Note_on_c, 0, 58, 39
1, 78859, Note_on_c, 0, 27, 62
1, 78864, Note_on_c, 0, 39, 58
1, 78924, Note_off_c, 0, 58, 39
1, 78932, Note_off_c, 0, 70, 29
1, 79328, Note_off_c, 0, 27, 51
1, 79427, Note_on_c, 0, 58, 57
1, 79428, Note_on_c, 0, 70, 57
1, 79490, Note_off_c, 0, 70, 56
1, 79506, Note_off_c, 0, 39, 46
1, 79887, Note_off_c, 0, 58, 34
1, 79991, Note_on_c, 0, 70, 38
1, 80070, Note_off_c, 0, 70, 58
1, 80540, Note_on_c, 0, 81, 79
1, 80558, Note_on_c, 0, 69, 55
1, 80561, Note_on_c, 0, 64, 54
1, 80563, Note_on_c, 0, 72, 50
1, 80563, Note_on_c, 0, 76, 58
1, 80567, Note_on_c, 0, 54, 52
1, 80576, Note_on_c, 0, 60, 52
1, 80688, Note_off_c, 0, 72, 56
1, 80697, Note_off_c, 0, 69, 57
1, 80705, Note_off_c, 0, 76, 36
1, 80713, Note_off_c, 0, 81, 60
1, 80770, Note_off_c, 0, 60, 56
1, 80827, Note_off_c, 0, 54, 57
1, 80837, Note_off_c, 0, 64, 59
1, 81115, Control_c, 0, 64, 102
1, 81122, Note_on_c, 0, 82, 88
1, 81130, Control_c, 0, 64, 79
1, 81134, Note_on_c, 0, 70, 73
1, 81134, Note_on_c, 0, 73, 74
1, 81137, Note_on_c, 0, 65, 65
1, 81139, Note_on_c, 0, 77, 52
1, 81143, Note_on_c, 0, 58, 55
1, 81143, Note_on_c, 0, 55, 57
1, 81145, Control_c, 0, 64, 73
1, 81147, Note_on_c, 0, 61, 61
1, 81159, Control_c, 0, 64, 74
1, 81174, Control_c, 0, 64, 78
1, 81178, Note_off_c, 0, 77, 48
1, 81196, Control_c, 0, 64, 88
1, 81211, Control_c, 0, 64, 112
1, 81226, Control_c, 0, 64, 127
1, 81271, Note_off_c, 0, 73, 58
1, 81334, Note_off_c, 0, 70, 40
1, 81572, Note_off_c, 0, 55, 56
1, 81626, Note_off_c, 0, 65, 35
1, 81663, Note_off_c, 0, 58, 32
1, 81675, Note_off_c, 0, 61, 62
1, 81735, Note_on_c, 0, 70, 49
1, 81756, Note_off_c, 0, 70, 61
1, 82015, Note_on_c, 0, 87, 88
1, 82022, Note_on_c, 0, 75, 77
1, 82023, Note_on_c, 0, 83, 75
1, 82029, Note_on_c, 0, 71, 66
1, 82033, Note_on_c, 0, 61, 62
1, 82034, Note_on_c, 0, 67, 57
1, 82044, Note_on_c, 0, 79, 37
1, 82075, Note_off_c, 0, 79, 46
1, 82105, Note_off_c, 0, 82, 0
1, 82117, Note_off_c, 0, 67, 60
1, 82128, Note_off_c, 0, 87, 63
1, 82141, Note_off_c, 0, 71, 60
1, 82141, Poly_aftertouch_c, 0, 82, 127
1, 82171, Note_off_c, 0, 75, 35
1, 82361, Control_c, 0, 64, 87
1, 82364, Note_on_c, 0, 85, 81
1, 82368, Note_off_c, 0, 61, 58
1, 82374, Note_off_c, 0, 83, 59
1, 82376, Control_c, 0, 64, 65
1, 82377, Note_on_c, 0, 73, 73
1, 82377, Note_on_c, 0, 76, 69
1, 82380, Note_on_c, 0, 58, 60
1, 82380, Note_on_c, 0, 68, 64
1, 82380, Note_on_c, 0, 80, 62
1, 82382, Note_on_c, 0, 64, 62
1, 82382, Poly_aftertouch_c, 0, 82, 0
1, 82390, Control_c, 0, 64, 47
1, 82405, Control_c, 0, 64, 37
1, 82421, Control_c, 0, 64, 41
1, 82436, Control_c, 0, 64, 53
1, 82451, Control_c, 0, 64, 67
1, 82466, Control_c, 0, 64, 82
1, 82481, Control_c, 0, 64, 127
1, 82515, Note_off_c, 0, 85, 62
1, 82538, Note_off_c, 0, 76, 57
1, 82544, Note_off_c, 0, 80, 58
1, 82569, Note_off_c, 0, 68, 60
1, 82584, Note_off_c, 0, 73, 61
1, 82632, Note_off_c, 0, 64, 58
1, 82669, Note_off_c, 0, 58, 57
1, 83019, Note_on_c, 0, 70, 50
1, 83058, Note_on_c, 0, 58, 33
1, 83599, Note_on_c, 0, 27, 53
1, 83611, Note_on_c, 0, 39, 52
1, 83641, Note_off_c, 0, 70, 50
1, 83649, Note_off_c, 0, 58, 40
1, 83920, Note_off_c, 0, 27, 40
1, 84177, Note_off_c, 0, 39, 39
1, 84207, Note_on_c, 0, 70, 46
1, 84225, Note_on_c, 0, 58, 44
1, 84303, Note_off_c, 0, 70, 52
1, 84693, Note_off_c, 0, 58, 32
1, 84742, Note_on_c, 0, 70, 45
1, 84837, Note_off_c, 0, 70, 57
1, 85296, Note_on_c, 0, 81, 75
1, 85313, Note_on_c, 0, 72, 53
1, 85316, Note_on_c, 0, 54, 49
1, 85316, Note_on_c, 0, 76, 53
1, 85321, Note_on_c, 0, 64, 46
1, 85323, Note_on_c, 0, 69, 52
1, 85330, Note_on_c, 0, 60, 44
1, 85394, Note_off_c, 0, 69, 42
1, 85430, Note_off_c, 0, 76, 48
1, 85431, Note_off_c, 0, 72, 52
1, 85462, Note_off_c, 0, 81, 58
1, 85504, Note_off_c, 0, 60, 33
1, 85527, Note_off_c, 0, 64, 56
1, 85533, Note_off_c, 0, 54, 54
1, 85912, Control_c, 0, 64, 112
1, 85927, Control_c, 0, 64, 78
1, 85937, Note_on_c, 0, 82, 77
1, 85942, Control_c, 0, 64, 69
1, 85952, Note_on_c, 0, 73, 60
1, 85954, Note_on_c, 0, 55, 51
1, 85954, Note_on_c, 0, 77, 41
1, 85955, Note_on_c, 0, 65, 44
1, 85955, Note_on_c, 0, 70, 55
1, 85960, Note_on_c, 0, 61, 50
1, 85966, Note_on_c, 0, 58, 42
1, 85972, Control_c, 0, 64, 75
1, 85987, Control_c, 0, 64, 89
1, 86001, Control_c, 0, 64, 127
1, 86004, Note_off_c, 0, 77, 57
1, 86037, Note_off_c, 0, 73, 57
1, 86053, Note_off_c, 0, 70, 52
1, 86070, Note_off_c, 0, 58, 60
1, 86071, Note_off_c, 0, 55, 61
1, 86074, Note_off_c, 0, 61, 62
1, 86078, Note_off_c, 0, 65, 63
1, 86078, Note_off_c, 0, 82, 62
1, 86359, Note_on_c, 0, 87, 78
1, 86376, Note_on_c, 0, 75, 57
1, 86377, Note_on_c, 0, 83, 60
1, 86389, Note_on_c, 0, 61, 45
1, 86390, Note_on_c, 0, 79, 35
1, 86392, Note_on_c, 0, 71, 53
1, 86395, Note_on_c, 0, 67, 38
1, 86444, Note_off_c, 0, 79, 44
1, 86479, Note_off_c, 0, 71, 58
1, 86505, Note_off_c, 0, 75, 28
1, 86529, Note_off_c, 0, 67, 33
1, 86550, Note_off_c, 0, 87, 28
1, 86564, Note_off_c, 0, 61, 30
1, 86660, Note_on_c, 0, 58, 42
1, 86916, Note_off_c, 0, 83, 0
1, 86943, Control_c, 0, 64, 85
1, 86943, Note_on_c, 0, 86, 66
1, 86953, Poly_aftertouch_c, 0, 83, 127
1, 86957, Note_on_c, 0, 78, 49
1, 86958, Control_c, 0, 64, 69
1, 86961, Note_on_c, 0, 74, 47
1, 86962, Note_on_c, 0, 70, 41
1, 86971, Note_on_c, 0, 66, 38
1, 86973, Control_c, 0, 64, 59
1, 86974, Note_on_c, 0, 60, 41
1, 87002, Control_c, 0, 64, 66
1, 87017, Control_c, 0, 64, 76
1, 87031, Control_c, 0, 64, 101
1, 87042, Note_off_c, 0, 58, 0
1, 87046, Control_c, 0, 64, 127
1, 87063, Poly_aftertouch_c, 0, 82, 0
1, 87077, Poly_aftertouch_c, 0, 58, 0
1, 87084, Note_off_c, 0, 86, 57
1, 87098, Note_off_c, 0, 74, 58
1, 87162, Note_off_c, 0, 78, 35
1, 87182, Note_off_c, 0, 70, 35
1, 87212, Note_off_c, 0, 66, 35
1, 87492, Note_on_c, 0, 85, 57
1, 87513, Control_c, 0, 64, 119
1, 87519, Note_off_c, 0, 60, 33
1, 87525, Note_on_c, 0, 73, 42
1, 87528, Control_c, 0, 64, 82
1, 87531, Note_on_c, 0, 68, 36
1, 87533, Note_on_c, 0, 58, 40
1, 87534, Note_on_c, 0, 80, 37
1, 87535, Note_on_c, 0, 64, 41
1, 87537, Note_on_c, 0, 76, 34
1, 87537, Poly_aftertouch_c, 0, 83, 0
1, 87543, Control_c, 0, 64, 62
1, 87557, Control_c, 0, 64, 46
1, 87572, Control_c, 0, 64, 37
1, 87587, Control_c, 0, 64, 39
1, 87602, Control_c, 0, 64, 49
1, 87617, Control_c, 0, 64, 61
1, 87632, Control_c, 0, 64, 73
1, 87647, Control_c, 0, 64, 103
1, 87661, Control_c, 0, 64, 127
1, 87684, Note_off_c, 0, 85, 59
1, 87720, Note_off_c, 0, 76, 52
1, 87722, Note_off_c, 0, 80, 53
1, 87752, Note_off_c, 0, 73, 58
1, 87777, Note_off_c, 0, 68, 43
1, 87841, Note_off_c, 0, 64, 55
1, 87900, Note_off_c, 0, 58, 52
1, 88222, Note_on_c, 0, 70, 39
1, 88225, Note_on_c, 0, 58, 27
1, 88568, Note_off_c, 0, 58, 13
1, 88806, Note_on_c, 0, 39, 34
1, 88814, Note_on_c, 0, 27, 35
1, 88851, Note_off_c, 0, 70, 38
1, 89083, Note_off_c, 0, 27, 48
1, 89108, Note_off_c, 0, 39, 45
1, 89373, Note_on_c, 0, 70, 39
1, 89380, Note_on_c, 0, 58, 32
1, 89501, Note_off_c, 0, 70, 35
1, 89884, Note_off_c, 0, 58, 33
1, 89930, Note_on_c, 0, 70, 33
1, 90017, Note_off_c, 0, 70, 53
1, 90509, Note_on_c, 0, 83, 50
1, 90532, Note_on_c, 0, 79, 35
1, 90538, Note_on_c, 0, 67, 38
1, 90546, Note_on_c, 0, 71, 29
1, 90547, Note_on_c, 0, 63, 32
1, 90550, Note_on_c, 0, 58, 26
1, 90555, Note_on_c, 0, 75, 20
1, 90633, Note_off_c, 0, 75, 0
1, 90660, Note_off_c, 0, 71, 56
1, 90670, Poly_aftertouch_c, 0, 75, 127
1, 91123, Note_on_c, 0, 70, 41
1, 91154, Note_off_c, 0, 83, 32
1, 91187, Poly_aftertouch_c, 0, 75, 0
1, 91188, Note_off_c, 0, 67, 40
1, 91248, Note_off_c, 0, 63, 34
1, 91260, Note_off_c, 0, 70, 33
1, 91462, Note_off_c, 0, 58, 34
1, 91753, Control_c, 0, 64, 94
1, 91761, Note_on_c, 0, 82, 41
1, 91768, Control_c, 0, 64, 79
1, 91776, Note_on_c, 0, 70, 30
1, 91783, Control_c, 0, 64, 71
1, 91787, Note_on_c, 0, 55, 30
1, 91794, Note_on_c, 0, 61, 32
1, 91794, Note_on_c, 0, 73, 25
1, 91798, Control_c, 0, 64, 68
1, 91802, Note_on_c, 0, 65, 26
1, 91813, Control_c, 0, 64, 71
1, 91827, Control_c, 0, 64, 81
1, 91836, Poly_aftertouch_c, 0, 77, 127
1, 91842, Control_c, 0, 64, 98
1, 91857, Control_c, 0, 64, 127
1, 91880, Note_off_c, 0, 79, 39
1, 91902, Note_off_c, 0, 65, 58
1, 91922, Poly_aftertouch_c, 0, 77, 0
1, 91922, Note_off_c, 0, 61, 55
1, 91951, Note_off_c, 0, 82, 35
1, 91951, Note_off_c, 0, 55, 38
1, 91955, Note_off_c, 0, 70, 40
1, 92212, Note_off_c, 0, 73, 33
1, 92473, Control_c, 0, 64, 87
1, 92488, Control_c, 0, 64, 71
1, 92503, Control_c, 0, 64, 63
1, 92532, Control_c, 0, 64, 70
1, 92539, Note_on_c, 0, 32, 40
1, 92544, Note_on_c, 0, 44, 38
1, 92547, Control_c, 0, 64, 82
1, 92562, Control_c, 0, 64, 108
1, 92576, Control_c, 0, 64, 127
1, 92580, Note_off_c, 0, 32, 61
1, 92586, Note_off_c, 0, 44, 62
1, 92869, Note_on_c, 0, 70, 54
1, 92883, Note_on_c, 0, 58, 43
1, 92893, Note_off_c, 0, 70, 64
1, 92917, Note_off_c, 0, 58, 51
1, 93276, Note_on_c, 0, 100, 59
1, 93290, Note_on_c, 0, 44, 46
1, 93290, Note_on_c, 0, 59, 43
1, 93302, Note_on_c, 0, 50, 46
1, 93318, Note_on_c, 0, 92, 38
1, 93325, Note_on_c, 0, 86, 25
1, 93357, Note_off_c, 0, 92, 58
1, 93358, Note_off_c, 0, 44, 56
1, 93361, Note_off_c, 0, 86, 51
1, 93369, Note_off_c, 0, 50, 62
1, 93373, Note_off_c, 0, 100, 62
1, 93376, Note_off_c, 0, 59, 62
1, 93856, Note_on_c, 0, 95, 64
1, 93859, Note_on_c, 0, 47, 54
1, 93879, Note_on_c, 0, 62, 34
1, 93881, Note_on_c, 0, 52, 36
1, 93889, Note_off_c, 0, 47, 63
1, 93897, Note_on_c, 0, 93, 34
1, 93898, Note_on_c, 0, 86, 41
1, 93903, Note_on_c, 0, 90, 14
1, 93916, Note_off_c, 0, 52, 56
1, 93925, Note_off_c, 0, 62, 66
1, 93935, Note_off_c, 0, 93, 35
1, 93937, Note_off_c, 0, 95, 61
1, 94089, Note_off_c, 0, 90, 38
1, 94099, Note_off_c, 0, 86, 34
1, 94142, Note_on_c, 0, 70, 68
1, 94166, Note_off_c, 0, 70, 67
1, 94417, Note_on_c, 0, 50, 41
1, 94424, Note_on_c, 0, 92, 52
1, 94431, Note_on_c, 0, 56, 44
1, 94435, Note_on_c, 0, 64, 32
1, 94443, Note_off_c, 0, 50, 45
1, 94446, Note_on_c, 0, 83, 32
1, 94452, Note_on_c, 0, 78, 44
1, 94460, Note_off_c, 0, 56, 62
1, 94465, Note_off_c, 0, 64, 56
1, 94495, Note_off_c, 0, 83, 43
1, 94521, Note_off_c, 0, 92, 42
1, 94593, Note_off_c, 0, 78, 59
1, 94704, Note_on_c, 0, 70, 48
1, 94724, Note_off_c, 0, 70, 63
1, 94980, Note_on_c, 0, 90, 53
1, 95003, Note_on_c, 0, 52, 38
1, 95003, Note_on_c, 0, 62, 40
1, 95009, Note_on_c, 0, 56, 42
1, 95027, Note_on_c, 0, 76, 36
1, 95037, Note_on_c, 0, 80, 22
1, 95053, Note_on_c, 0, 86, 14
1, 95078, Poly_aftertouch_c, 0, 77, 127
1, 95094, Note_off_c, 0, 90, 61
1, 95096, Note_off_c, 0, 80, 41
1, 95108, Note_off_c, 0, 56, 61
1, 95114, Note_off_c, 0, 62, 60
1, 95125, Poly_aftertouch_c, 0, 77, 0
1, 95134, Note_off_c, 0, 86, 33
1, 95138, Note_off_c, 0, 52, 58
1, 95240, Note_off_c, 0, 76, 29
1, 95543, Note_on_c, 0, 88, 48
1, 95553, Note_on_c, 0, 66, 38
1, 95555, Note_on_c, 0, 62, 22
1, 95561, Note_on_c, 0, 78, 35
1, 95564, Note_on_c, 0, 56, 31
1, 95573, Note_on_c, 0, 74, 43
1, 95617, Note_off_c, 0, 74, 58
1, 95646, Note_off_c, 0, 56, 58
1, 95651, Note_off_c, 0, 88, 58
1, 95652, Note_off_c, 0, 62, 55
1, 95697, Note_off_c, 0, 66, 61
1, 95701, Note_off_c, 0, 78, 48
1, 96093, Note_on_c, 0, 83, 54
1, 96106, Note_on_c, 0, 70, 47
1, 96117, Note_on_c, 0, 64, 42
1, 96123, Note_on_c, 0, 78, 43
1, 96129, Note_on_c, 0, 59, 29
1, 96134, Note_on_c, 0, 74, 8
1, 96178, Note_off_c, 0, 83, 59
1, 96234, Note_off_c, 0, 74, 56
1, 96234, Note_off_c, 0, 78, 58
1, 96333, Note_off_c, 0, 70, 56
1, 96374, Note_off_c, 0, 59, 28
1, 96427, Note_off_c, 0, 64, 41
1, 96646, Note_on_c, 0, 80, 42
1, 96667, Note_on_c, 0, 70, 45
1, 96670, Note_on_c, 0, 66, 39
1, 96673, Note_on_c, 0, 71, 37
1, 96673, Note_on_c, 0, 76, 42
1, 96683, Note_on_c, 0, 62, 39
1, 96724, Note_off_c, 0, 80, 48
1, 96734, Note_off_c, 0, 71, 50
1, 96797, Note_off_c, 0, 66, 46
1, 96844, Note_off_c, 0, 70, 31
1, 97031, Note_off_c, 0, 62, 21
1, 97204, Note_on_c, 0, 78, 44
1, 97219, Note_on_c, 0, 64, 39
1, 97231, Note_on_c, 0, 59, 32
1, 97232, Note_on_c, 0, 74, 22
1, 97235, Note_on_c, 0, 68, 35
1, 97262, Note_off_c, 0, 76, 36
1, 97285, Note_off_c, 0, 59, 61
1, 97290, Note_off_c, 0, 64, 59
1, 97318, Note_off_c, 0, 68, 58
1, 97344, Note_off_c, 0, 74, 29
1, 97755, Note_on_c, 0, 76, 44
1, 97764, Note_on_c, 0, 70, 37
1, 97767, Note_on_c, 0, 56, 23
1, 97770, Note_on_c, 0, 62, 39
1, 97782, Note_on_c, 0, 66, 31
1, 97812, Note_off_c, 0, 78, 31
1, 97835, Note_off_c, 0, 70, 55
1, 97865, Note_off_c, 0, 62, 57
1, 97892, Note_off_c, 0, 56, 34
1, 97903, Note_off_c, 0, 66, 34
1, 98313, Note_on_c, 0, 71, 37
1, 98330, Note_on_c, 0, 56, 33
1, 98330, Note_on_c, 0, 52, 28
1, 98333, Note_on_c, 0, 62, 31
1, 98345, Note_on_c, 0, 66, 20
1, 98378, Note_off_c, 0, 76, 44
1, 98425, Note_off_c, 0, 71, 60
1, 98447, Note_off_c, 0, 56, 53
1, 98449, Note_off_c, 0, 62, 58
1, 98452, Note_off_c, 0, 52, 57
1, 98491, Note_off_c, 0, 66, 61
1, 98853, Note_on_c, 0, 70, 46
1, 98874, Note_on_c, 0, 47, 36
1, 98881, Note_on_c, 0, 59, 20
1, 98885, Note_on_c, 0, 54, 33
1, 98893, Note_on_c, 0, 58, 31
1, 98899, Note_on_c, 0, 68, 27
1, 98902, Note_on_c, 0, 64, 27
1, 98962, Note_off_c, 0, 59, 55
1, 99007, Note_off_c, 0, 64, 34
1, 99013, Note_off_c, 0, 68, 28
1, 99015, Note_off_c, 0, 54, 57
1, 99036, Note_off_c, 0, 70, 59
1, 99466, Note_on_c, 0, 70, 45
1, 99478, Note_on_c, 0, 66, 42
1, 99491, Note_on_c, 0, 62, 35
1, 99502, Note_on_c, 0, 52, 40
1, 99506, Note_on_c, 0, 44, 35
1, 99508, Control_c, 0, 64, 99
1, 99510, Note_on_c, 0, 56, 28
1, 99523, Control_c, 0, 64, 82
1, 99538, Control_c, 0, 64, 71
1, 99553, Note_off_c, 0, 58, 38
1, 99553, Control_c, 0, 64, 62
1, 99568, Control_c, 0, 64, 59
1, 99582, Control_c, 0, 64, 59
1, 99583, Note_off_c, 0, 47, 41
1, 99597, Control_c, 0, 64, 62
1, 99612, Control_c, 0, 64, 66
1, 99627, Control_c, 0, 64, 71
1, 99642, Control_c, 0, 64, 82
1, 99657, Control_c, 0, 64, 102
1, 99672, Control_c, 0, 64, 127
1, 99772, Note_off_c, 0, 56, 42
1, 99794, Note_off_c, 0, 62, 31
1, 99881, Note_off_c, 0, 52, 34
1, 100098, Note_on_c, 0, 65, 44
1, 100122, Note_on_c, 0, 61, 43
1, 100131, Note_on_c, 0, 53, 37
1, 100135, Note_on_c, 0, 49, 39
1, 100217, Note_off_c, 0, 70, 32
1, 100265, Note_off_c, 0, 53, 55
1, 100429, Note_off_c, 0, 61, 36
1, 100682, Note_off_c, 0, 66, 5
1, 100686, Note_on_c, 0, 70, 54
1, 100688, Note_on_c, 0, 64, 49
1, 100694, Control_c, 0, 64, 90
1, 100697, Note_on_c, 0, 54, 46
1, 100697, Note_on_c, 0, 60, 40
1, 100704, Note_on_c, 0, 50, 46
1, 100709, Control_c, 0, 64, 75
1, 100724, Control_c, 0, 64, 66
1, 100739, Control_c, 0, 64, 62
1, 100754, Control_c, 0, 64, 64
1, 100754, Note_off_c, 0, 65, 35
1, 100768, Control_c, 0, 64, 71
1, 100784, Control_c, 0, 64, 86
1, 100792, Note_off_c, 0, 49, 29
1, 100799, Control_c, 0, 64, 127
1, 100897, Note_off_c, 0, 70, 32
1, 100917, Note_off_c, 0, 60, 37
1, 100981, Note_off_c, 0, 64, 40
1, 101023, Note_off_c, 0, 54, 57
1, 101113, Note_off_c, 0, 50, 56
1, 101276, Note_on_c, 0, 70, 51
1, 101277, Note_on_c, 0, 59, 42
1, 101282, Note_on_c, 0, 63, 49
1, 101293, Note_on_c, 0, 47, 38
1, 101304, Note_on_c, 0, 51, 36
1, 101352, Note_off_c, 0, 44, 35
1, 101431, Note_off_c, 0, 51, 55
1, 101627, Note_off_c, 0, 63, 57
1, 101843, Control_c, 0, 64, 92
1, 101851, Note_on_c, 0, 66, 66
1, 101854, Note_on_c, 0, 44, 43
1, 101857, Note_on_c, 0, 62, 47
1, 101858, Control_c, 0, 64, 77
1, 101861, Note_on_c, 0, 56, 36
1, 101873, Control_c, 0, 64, 65
1, 101874, Note_on_c, 0, 52, 44
1, 101887, Control_c, 0, 64, 56
1, 101902, Control_c, 0, 64, 51
1, 101917, Control_c, 0, 64, 52
1, 101932, Control_c, 0, 64, 55
1, 101941, Note_off_c, 0, 47, 48
1, 101947, Control_c, 0, 64, 60
1, 101961, Control_c, 0, 64, 66
1, 101976, Control_c, 0, 64, 75
1, 101991, Control_c, 0, 64, 93
1, 102000, Note_off_c, 0, 70, 54
1, 102002, Note_off_c, 0, 59, 33
1, 102006, Control_c, 0, 64, 127
1, 102127, Note_off_c, 0, 56, 41
1, 102193, Note_off_c, 0, 62, 35
1, 102268, Note_off_c, 0, 52, 49
1, 102434, Note_on_c, 0, 49, 40
1, 102439, Note_on_c, 0, 53, 38
1, 102455, Note_on_c, 0, 65, 61
1, 102471, Note_on_c, 0, 70, 58
1, 102482, Note_on_c, 0, 61, 52
1, 102573, Note_off_c, 0, 53, 60
1, 102731, Note_off_c, 0, 61, 35
1, 102970, Control_c, 0, 64, 106
1, 102985, Control_c, 0, 64, 85
1, 103000, Control_c, 0, 64, 71
1, 103015, Note_on_c, 0, 64, 59
1, 103015, Control_c, 0, 64, 59
1, 103024, Note_off_c, 0, 66, 1
1, 103027, Note_on_c, 0, 60, 50
1, 103029, Note_on_c, 0, 54, 38
1, 103029, Control_c, 0, 64, 51
1, 103040, Note_on_c, 0, 50, 40
1, 103044, Control_c, 0, 64, 49
1, 103059, Control_c, 0, 64, 50
1, 103074, Control_c, 0, 64, 54
1, 103078, Note_off_c, 0, 65, 36
1, 103089, Control_c, 0, 64, 60
1, 103103, Control_c, 0, 64, 67
1, 103106, Note_off_c, 0, 49, 28
1, 103118, Control_c, 0, 64, 80
1, 103133, Control_c, 0, 64, 101
1, 103148, Control_c, 0, 64, 127
1, 103246, Note_off_c, 0, 60, 34
1, 103249, Note_off_c, 0, 70, 35
1, 103288, Note_off_c, 0, 64, 55
1, 103312, Note_off_c, 0, 54, 55
1, 103478, Note_off_c, 0, 50, 34
1, 103601, Note_on_c, 0, 70, 54
1, 103607, Note_on_c, 0, 63, 53
1, 103619, Note_on_c, 0, 59, 38
1, 103620, Note_on_c, 0, 51, 33
1, 103630, Note_on_c, 0, 47, 35
1, 103638, Control_c, 0, 64, 91
1, 103660, Control_c, 0, 64, 74
1, 103675, Control_c, 0, 64, 64
1, 103689, Note_off_c, 0, 44, 47
1, 103690, Control_c, 0, 64, 59
1, 103705, Control_c, 0, 64, 61
1, 103720, Control_c, 0, 64, 66
1, 103734, Control_c, 0, 64, 77
1, 103749, Control_c, 0, 64, 94
1, 103764, Control_c, 0, 64, 127
1, 103803, Note_off_c, 0, 51, 58
1, 103946, Note_off_c, 0, 63, 53
1, 103961, Note_off_c, 0, 70, 34
1, 104223, Note_on_c, 0, 70, 46
1, 104227, Note_on_c, 0, 44, 37
1, 104233, Note_on_c, 0, 66, 47
1, 104235, Note_on_c, 0, 62, 45
1, 104239, Control_c, 0, 64, 102
1, 104244, Note_on_c, 0, 52, 40
1, 104253, Note_on_c, 0, 56, 26
1, 104254, Control_c, 0, 64, 80
1, 104268, Control_c, 0, 64, 68
1, 104279, Note_off_c, 0, 47, 49
1, 104283, Control_c, 0, 64, 61
1, 104293, Note_off_c, 0, 59, 33
1, 104298, Control_c, 0, 64, 60
1, 104313, Control_c, 0, 64, 64
1, 104327, Control_c, 0, 64, 71
1, 104342, Control_c, 0, 64, 86
1, 104357, Control_c, 0, 64, 105
1, 104372, Control_c, 0, 64, 127
1, 104450, Note_off_c, 0, 62, 53
1, 104462, Note_off_c, 0, 56, 30
1, 104561, Note_off_c, 0, 52, 52
1, 104780, Control_c, 0, 64, 100
1, 104795, Control_c, 0, 64, 76
1, 104810, Control_c, 0, 64, 59
1, 104821, Note_on_c, 0, 61, 36
1, 104821, Note_on_c, 0, 65, 34
1, 104824, Control_c, 0, 64, 38
1, 104826, Note_on_c, 0, 53, 34
1, 104832, Note_on_c, 0, 49, 30
1, 104839, Control_c, 0, 64, 27
1, 104854, Control_c, 0, 64, 35
1, 104869, Control_c, 0, 64, 53
1, 104884, Control_c, 0, 64, 66
1, 104898, Control_c, 0, 64, 76
1, 104908, Note_off_c, 0, 70, 0
1, 104913, Control_c, 0, 64, 91
1, 104928, Control_c, 0, 64, 106
1, 104943, Control_c, 0, 64, 127
1, 104963, Note_off_c, 0, 66, 33
1, 104984, Poly_aftertouch_c, 0, 70, 0
1, 104990, Note_off_c, 0, 53, 60
1, 105077, Note_off_c, 0, 61, 60
1, 105078, Note_off_c, 0, 65, 38
1, 105395, Control_c, 0, 64, 84
1, 105402, Note_on_c, 0, 70, 42
1, 105410, Control_c, 0, 64, 63
1, 105422, Note_on_c, 0, 64, 34
1, 105425, Control_c, 0, 64, 32
1, 105426, Note_on_c, 0, 60, 31
1, 105438, Note_on_c, 0, 54, 14
1, 105440, Control_c, 0, 64, 0
1, 105446, Note_on_c, 0, 50, 26
1, 105469, Note_off_c, 0, 49, 28
1, 105471, Note_off_c, 0, 70, 0
1, 105471, Note_on_c, 0, 70, 3
1, 105484, Control_c, 0, 64, 37
1, 105499, Control_c, 0, 64, 57
1, 105514, Control_c, 0, 64, 66
1, 105529, Control_c, 0, 64, 73
1, 105544, Control_c, 0, 64, 83
1, 105558, Control_c, 0, 64, 104
1, 105574, Control_c, 0, 64, 127
1, 105600, Note_off_c, 0, 64, 39
1, 105629, Note_off_c, 0, 70, 37
1, 105658, Note_off_c, 0, 60, 38
1, 105707, Note_off_c, 0, 54, 57
1, 105791, Note_off_c, 0, 50, 53
1, 106032, Note_on_c, 0, 70, 36
1, 106039, Control_c, 0, 64, 106
1, 106052, Note_on_c, 0, 59, 24
1, 106054, Control_c, 0, 64, 83
1, 106060, Note_on_c, 0, 47, 31
1, 106066, Note_on_c, 0, 51, 28
1, 106069, Control_c, 0, 64, 69
1, 106070, Note_on_c, 0, 63, 28
1, 106084, Control_c, 0, 64, 65
1, 106098, Control_c, 0, 64, 69
1, 106113, Control_c, 0, 64, 79
1, 106128, Control_c, 0, 64, 97
1, 106143, Control_c, 0, 64, 127
1, 106180, Note_off_c, 0, 47, 57
1, 106188, Note_off_c, 0, 51, 57
1, 106218, Note_off_c, 0, 44, 59
1, 106322, Note_off_c, 0, 59, 35
1, 106332, Note_off_c, 0, 63, 31
1, 106543, Control_c, 0, 64, 115
1, 106558, Control_c, 0, 64, 89
1, 106562, Note_off_c, 0, 70, 38
1, 106573, Control_c, 0, 64, 84
1, 106588, Control_c, 0, 64, 86
1, 106602, Control_c, 0, 64, 97
1, 106617, Control_c, 0, 64, 127
1, 106620, Note_on_c, 0, 31, 50
1, 106620, Note_on_c, 0, 43, 43
1, 106659, Note_off_c, 0, 31, 59
1, 106665, Note_off_c, 0, 43, 65
1, 106939, Note_on_c, 0, 70, 45
1, 106946, Note_on_c, 0, 58, 41
1, 106973, Note_off_c, 0, 70, 64
1, 106976, Note_off_c, 0, 58, 50
1, 107305, Note_on_c, 0, 100, 52
1, 107320, Note_on_c, 0, 92, 39
1, 107333, Note_on_c, 0, 47, 37
1, 107340, Note_on_c, 0, 62, 36
1, 107343, Note_on_c, 0, 53, 33
1, 107345, Note_on_c, 0, 86, 44
1, 107398, Note_off_c, 0, 100, 60
1, 107431, Note_off_c, 0, 47, 59
1, 107443, Note_off_c, 0, 92, 42
1, 107446, Note_off_c, 0, 86, 0
1, 107446, Note_on_c, 0, 86, 8
1, 107465, Note_off_c, 0, 62, 55
1, 107470, Note_off_c, 0, 53, 48
1, 107524, Note_off_c, 0, 86, 45
1, 107923, Note_on_c, 0, 50, 40
1, 107923, Note_on_c, 0, 64, 44
1, 107925, Note_on_c, 0, 97, 56
1, 107933, Note_on_c, 0, 56, 45
1, 107936, Note_on_c, 0, 88, 40
1, 107938, Note_on_c, 0, 83, 40
1, 107949, Note_on_c, 0, 91, 18
1, 107955, Note_off_c, 0, 50, 53
1, 107980, Note_off_c, 0, 56, 58
1, 107996, Note_off_c, 0, 64, 62
1, 108007, Note_off_c, 0, 91, 0
1, 108057, Note_off_c, 0, 97, 57
1, 108069, Poly_aftertouch_c, 0, 91, 0
1, 108116, Note_off_c, 0, 88, 56
1, 108220, Note_on_c, 0, 70, 51
1, 108239, Note_off_c, 0, 83, 59
1, 108243, Note_off_c, 0, 70, 63
1, 108500, Note_on_c, 0, 53, 43
1, 108501, Note_on_c, 0, 94, 54
1, 108504, Note_on_c, 0, 65, 44
1, 108515, Note_on_c, 0, 91, 42
1, 108525, Note_on_c, 0, 80, 50
1, 108525, Note_on_c, 0, 59, 40
1, 108549, Note_on_c, 0, 86, 20
1, 108552, Note_off_c, 0, 53, 56
1, 108552, Note_off_c, 0, 65, 58
1, 108627, Note_off_c, 0, 91, 56
1, 108630, Note_off_c, 0, 94, 50
1, 108674, Note_off_c, 0, 86, 24
1, 108696, Note_off_c, 0, 80, 56
1, 108795, Note_on_c, 0, 70, 49
1, 108846, Note_off_c, 0, 70, 59
1, 108886, Note_off_c, 0, 59, 39
1, 109091, Note_on_c, 0, 91, 54
1, 109102, Note_on_c, 0, 67, 42
1, 109106, Note_on_c, 0, 53, 38
1, 109111, Note_on_c, 0, 83, 39
1, 109112, Note_on_c, 0, 77, 44
1, 109121, Note_on_c, 0, 88, 37
1, 109124, Note_on_c, 0, 62, 42
1, 109198, Note_off_c, 0, 53, 52
1, 109208, Note_off_c, 0, 91, 55
1, 109244, Note_off_c, 0, 88, 23
1, 109261, Note_off_c, 0, 83, 38
1, 109273, Note_off_c, 0, 67, 61
1, 109328, Note_off_c, 0, 77, 59
1, 109345, Note_off_c, 0, 62, 56
1, 109679, Note_on_c, 0, 88, 48
1, 109694, Note_on_c, 0, 56, 35
1, 109700, Note_on_c, 0, 68, 37
1, 109700, Note_on_c, 0, 62, 29
1, 109700, Note_on_c, 0, 77, 27
1, 109709, Note_on_c, 0, 74, 31
1, 109790, Note_off_c, 0, 88, 54
1, 109800, Note_off_c, 0, 56, 56
1, 109808, Note_off_c, 0, 74, 35
1, 109809, Note_off_c, 0, 62, 63
1, 109861, Note_off_c, 0, 68, 52
1, 110203, Note_off_c, 0, 77, 38
1, 110222, Note_on_c, 0, 85, 49
1, 110246, Note_on_c, 0, 76, 35
1, 110248, Note_on_c, 0, 64, 39
1, 110248, Note_on_c, 0, 70, 45
1, 110251, Note_on_c, 0, 59, 29
1, 110270, Note_on_c, 0, 79, 13
1, 110372, Note_off_c, 0, 76, 34
1, 110406, Note_off_c, 0, 79, 39
1, 110436, Note_off_c, 0, 70, 34
1, 110461, Note_off_c, 0, 64, 32
1, 110529, Note_off_c, 0, 59, 31
1, 110813, Note_on_c, 0, 82, 51
1, 110818, Note_on_c, 0, 77, 37
1, 110820, Note_on_c, 0, 74, 38
1, 110820, Note_on_c, 0, 70, 41
1, 110829, Note_on_c, 0, 62, 36
1, 110834, Note_off_c, 0, 85, 51
1, 110854, Note_on_c, 0, 65, 27
1, 110929, Note_off_c, 0, 82, 54
1, 110948, Note_off_c, 0, 77, 43
1, 110962, Note_off_c, 0, 62, 50
1, 110965, Note_off_c, 0, 70, 54
1, 110969, Note_off_c, 0, 65, 30
1, 111033, Note_off_c, 0, 74, 49
1, 111398, Note_on_c, 0, 79, 47
1, 111404, Note_on_c, 0, 76, 43
1, 111413, Note_on_c, 0, 65, 34
1, 111418, Note_on_c, 0, 56, 37
1, 111418, Note_on_c, 0, 62, 40
1, 111422, Note_on_c, 0, 71, 39
1, 111485, Note_off_c, 0, 76, 51
1, 111501, Note_off_c, 0, 79, 49
1, 111589, Note_off_c, 0, 65, 31
1, 111601, Note_off_c, 0, 62, 62
1, 111612, Note_off_c, 0, 71, 60
1, 111905, Note_off_c, 0, 56, 22
1, 111959, Note_on_c, 0, 76, 49
1, 111964, Note_on_c, 0, 70, 48
1, 111979, Note_on_c, 0, 53, 34
1, 111985, Note_on_c, 0, 62, 32
1, 111992, Note_on_c, 0, 59, 40
1, 111992, Note_on_c, 0, 65, 38
1, 112063, Note_off_c, 0, 53, 56
1, 112095, Note_off_c, 0, 62, 49
1, 112102, Note_off_c, 0, 76, 32
1, 112143, Note_off_c, 0, 65, 33
1, 112364, Note_off_c, 0, 59, 32
1, 112533, Note_on_c, 0, 73, 54
1, 112539, Note_on_c, 0, 50, 43
1, 112540, Note_on_c, 0, 59, 37
1, 112543, Note_on_c, 0, 67, 44
1, 112551, Note_on_c, 0, 64, 42
1, 112564, Note_off_c, 0, 70, 50
1, 112646, Note_off_c, 0, 67, 61
1, 112661, Note_off_c, 0, 73, 47
1, 112680, Note_off_c, 0, 59, 57
1, 112684, Note_off_c, 0, 50, 54
1, 112762, Note_off_c, 0, 64, 62
1, 113130, Note_on_c, 0, 70, 59
1, 113135, Control_c, 0, 64, 111
1, 113140, Note_on_c, 0, 65, 44
1, 113143, Note_on_c, 0, 47, 43
1, 113150, Note_on_c, 0, 59, 47
1, 113150, Control_c, 0, 64, 84
1, 113151, Note_on_c, 0, 55, 42
1, 113164, Control_c, 0, 64, 71
1, 113179, Control_c, 0, 64, 63
1, 113194, Control_c, 0, 64, 62
1, 113208, Control_c, 0, 64, 66
1, 113223, Control_c, 0, 64, 74
1, 113238, Control_c, 0, 64, 89
1, 113253, Control_c, 0, 64, 127
1, 113322, Note_off_c, 0, 70, 50
1, 113357, Note_off_c, 0, 65, 54
1, 113375, Note_off_c, 0, 59, 28
1, 113409, Note_off_c, 0, 55, 35
1, 113805, Note_on_c, 0, 70, 61
1, 113819, Note_off_c, 0, 47, 21
1, 113834, Note_on_c, 0, 43, 41
1, 113834, Note_on_c, 0, 64, 45
1, 113836, Note_on_c, 0, 59, 37
1, 113839, Control_c, 0, 64, 93
1, 113840, Note_on_c, 0, 53, 39
1, 113854, Control_c, 0, 64, 76
1, 113869, Control_c, 0, 64, 65
1, 113884, Control_c, 0, 64, 58
1, 113899, Control_c, 0, 64, 57
1, 113913, Control_c, 0, 64, 61
1, 113928, Control_c, 0, 64, 68
1, 113943, Control_c, 0, 64, 78
1, 113958, Control_c, 0, 64, 96
1, 113972, Control_c, 0, 64, 127
1, 114028, Note_off_c, 0, 43, 36
1, 114061, Note_off_c, 0, 59, 35
1, 114142, Note_off_c, 0, 53, 35
1, 114463, Note_on_c, 0, 69, 54
1, 114496, Note_on_c, 0, 58, 47
1, 114510, Note_on_c, 0, 52, 37
1, 114518, Note_on_c, 0, 36, 31
1, 114643, Note_off_c, 0, 52, 55
1, 114751, Note_off_c, 0, 69, 38
1, 114785, Note_off_c, 0, 36, 19
1, 114797, Note_off_c, 0, 70, 32
1, 114820, Note_off_c, 0, 64, 15
1, 114836, Note_off_c, 0, 58, 21
1, 115081, Note_on_c, 0, 70, 58
1, 115088, Note_on_c, 0, 68, 55
1, 115096, Note_on_c, 0, 58, 49
1, 115098, Note_on_c, 0, 64, 42
1, 115100, Control_c, 0, 64, 97
1, 115101, Note_on_c, 0, 30, 59
1, 115114, Control_c, 0, 64, 77
1, 115119, Note_on_c, 0, 42, 42
1, 115129, Control_c, 0, 64, 64
1, 115144, Control_c, 0, 64, 57
1, 115160, Control_c, 0, 64, 58
1, 115175, Control_c, 0, 64, 64
1, 115190, Control_c, 0, 64, 72
1, 115205, Control_c, 0, 64, 87
1, 115216, Note_off_c, 0, 30, 53
1, 115219, Control_c, 0, 64, 119
1, 115234, Control_c, 0, 64, 127
1, 115281, Note_off_c, 0, 64, 36
1, 115345, Note_off_c, 0, 68, 50
1, 115386, Note_off_c, 0, 70, 48
1, 115430, Note_off_c, 0, 58, 51
1, 115686, Control_c, 0, 64, 110
1, 115689, Note_on_c, 0, 70, 66
1, 115693, Note_on_c, 0, 67, 55
1, 115697, Note_on_c, 0, 62, 53
1, 115700, Control_c, 0, 64, 82
1, 115703, Note_on_c, 0, 46, 47
1, 115707, Note_on_c, 0, 56, 48
1, 115711, Note_on_c, 0, 34, 47
1, 115715, Control_c, 0, 64, 69
1, 115730, Control_c, 0, 64, 62
1, 115745, Control_c, 0, 64, 64
1, 115748, Note_off_c, 0, 42, 52
1, 115760, Control_c, 0, 64, 71
1, 115775, Control_c, 0, 64, 84
1, 115790, Control_c, 0, 64, 109
1, 115805, Control_c, 0, 64, 127
1, 115879, Note_off_c, 0, 56, 61
1, 115894, Note_off_c, 0, 67, 51
1, 115962, Note_off_c, 0, 62, 35
1, 116041, Note_off_c, 0, 46, 49
1, 116249, Control_c, 0, 64, 89
1, 116258, Note_on_c, 0, 66, 65
1, 116264, Control_c, 0, 64, 70
1, 116265, Note_on_c, 0, 55, 46
1, 116268, Note_on_c, 0, 61, 56
1, 116279, Control_c, 0, 64, 59
1, 116287, Note_on_c, 0, 39, 55
1, 116294, Control_c, 0, 64, 58
1, 116308, Control_c, 0, 64, 64
1, 116323, Control_c, 0, 64, 74
1, 116324, Note_off_c, 0, 34, 52
1, 116338, Control_c, 0, 64, 94
1, 116352, Control_c, 0, 64, 127
1, 116400, Note_off_c, 0, 70, 55
1, 116460, Note_off_c, 0, 55, 35
1, 116509, Note_off_c, 0, 39, 57
1, 116699, Note_off_c, 0, 66, 34
1, 116803, Note_off_c, 0, 61, 53
1, 116838, Note_on_c, 0, 65, 63
1, 116842, Note_on_c, 0, 70, 70
1, 116850, Control_c, 0, 64, 118
1, 116857, Note_on_c, 0, 44, 58
1, 116859, Note_on_c, 0, 60, 56
1, 116864, Control_c, 0, 64, 84
1, 116868, Note_on_c, 0, 54, 52
1, 116879, Control_c, 0, 64, 69
1, 116894, Control_c, 0, 64, 62
1, 116908, Control_c, 0, 64, 63
1, 116923, Control_c, 0, 64, 70
1, 116938, Control_c, 0, 64, 83
1, 116953, Control_c, 0, 64, 127
1, 117042, Control_c, 0, 67, 127
1, 117056, Control_c, 0, 67, 125
1, 117064, Note_off_c, 0, 60, 50
1, 117071, Control_c, 0, 67, 125
1, 117086, Control_c, 0, 67, 124
1, 117101, Control_c, 0, 67, 124
1, 117116, Control_c, 0, 67, 123
1, 117138, Control_c, 0, 67, 123
1, 117153, Control_c, 0, 67, 122
1, 117168, Control_c, 0, 67, 121
1, 117182, Control_c, 0, 67, 121
1, 117235, Note_off_c, 0, 65, 34
1, 117242, Control_c, 0, 67, 120
1, 117256, Control_c, 0, 67, 118
1, 117271, Control_c, 0, 67, 114
1, 117286, Control_c, 0, 67, 110
1, 117301, Control_c, 0, 67, 107
1, 117316, Control_c, 0, 67, 104
1, 117331, Note_off_c, 0, 54, 53
1, 117331, Control_c, 0, 67, 102
1, 117346, Control_c, 0, 67, 99
1, 117361, Control_c, 0, 67, 95
1, 117375, Control_c, 0, 67, 90
1, 117390, Control_c, 0, 67, 85
1, 117405, Control_c, 0, 67, 82
1, 117420, Control_c, 0, 67, 79
1, 117431, Note_on_c, 0, 64, 70
1, 117435, Control_c, 0, 67, 76
1, 117447, Note_on_c, 0, 59, 58
1, 117450, Control_c, 0, 64, 87
1, 117450, Control_c, 0, 67, 74
1, 117454, Note_on_c, 0, 43, 57
1, 117456, Note_on_c, 0, 53, 53
1, 117464, Control_c, 0, 64, 71
1, 117464, Control_c, 0, 67, 73
1, 117471, Note_off_c, 0, 44, 31
1, 117479, Control_c, 0, 64, 67
1, 117479, Control_c, 0, 67, 71
1, 117494, Control_c, 0, 64, 73
1, 117494, Control_c, 0, 67, 69
1, 117508, Control_c, 0, 64, 87
1, 117508, Control_c, 0, 67, 66
1, 117523, Control_c, 0, 64, 127
1, 117523, Control_c, 0, 67, 63
1, 117538, Control_c, 0, 67, 60
1, 117554, Control_c, 0, 67, 55
1, 117569, Control_c, 0, 67, 49
1, 117584, Control_c, 0, 67, 42
1, 117584, Note_off_c, 0, 59, 55
1, 117599, Control_c, 0, 67, 33
1, 117613, Control_c, 0, 67, 26
1, 117620, Note_off_c, 0, 70, 57
1, 117628, Control_c, 0, 67, 19
1, 117636, Note_off_c, 0, 43, 62
1, 117643, Control_c, 0, 67, 13
1, 117658, Control_c, 0, 67, 11
1, 117673, Control_c, 0, 67, 10
1, 117681, Note_off_c, 0, 64, 56
1, 117687, Control_c, 0, 67, 9
1, 117702, Control_c, 0, 67, 0
1, 117714, Note_off_c, 0, 53, 33
1, 118005, Control_c, 0, 64, 98
1, 118006, Note_on_c, 0, 69, 61
1, 118008, Note_on_c, 0, 70, 70
1, 118017, Note_on_c, 0, 64, 48
1, 118020, Control_c, 0, 64, 80
1, 118023, Note_on_c, 0, 52, 60
1, 118027, Note_on_c, 0, 58, 60
1, 118029, Note_on_c, 0, 36, 56
1, 118035, Control_c, 0, 64, 73
1, 118050, Control_c, 0, 64, 75
1, 118064, Control_c, 0, 64, 87
1, 118079, Control_c, 0, 64, 127
1, 118173, Note_off_c, 0, 52, 58
1, 118185, Note_off_c, 0, 58, 34
1, 118259, Note_off_c, 0, 64, 33
1, 118260, Note_off_c, 0, 69, 31
1, 118323, Note_off_c, 0, 70, 35
1, 118359, Note_off_c, 0, 36, 32
1, 118615, Control_c, 0, 64, 80
1, 118619, Note_on_c, 0, 70, 72
1, 118624, Note_on_c, 0, 68, 68
1, 118634, Note_on_c, 0, 42, 67
1, 118634, Note_on_c, 0, 64, 60
1, 118636, Control_c, 0, 64, 62
1, 118637, Note_on_c, 0, 58, 61
1, 118639, Note_on_c, 0, 30, 64
1, 118651, Control_c, 0, 64, 48
1, 118666, Control_c, 0, 64, 46
1, 118681, Control_c, 0, 64, 52
1, 118696, Control_c, 0, 64, 64
1, 118711, Control_c, 0, 64, 77
1, 118726, Control_c, 0, 64, 103
1, 118741, Control_c, 0, 64, 127
1, 118795, Note_off_c, 0, 30, 58
1, 118831, Note_off_c, 0, 64, 51
1, 118859, Control_c, 0, 67, 8
1, 118899, Note_off_c, 0, 68, 60
1, 118962, Control_c, 0, 67, 8
1, 118977, Control_c, 0, 67, 9
1, 118991, Note_off_c, 0, 58, 50
1, 119081, Control_c, 0, 67, 9
1, 119110, Control_c, 0, 67, 10
1, 119140, Control_c, 0, 67, 9
1, 119185, Control_c, 0, 64, 124
1, 119200, Control_c, 0, 64, 76
1, 119200, Control_c, 0, 67, 10
1, 119201, Note_on_c, 0, 67, 75
1, 119203, Note_on_c, 0, 62, 64
1, 119210, Note_on_c, 0, 46, 64
1, 119212, Note_on_c, 0, 34, 60
1, 119215, Control_c, 0, 64, 62
1, 119217, Note_on_c, 0, 56, 65
1, 119230, Control_c, 0, 64, 53
1, 119245, Control_c, 0, 64, 55
1, 119247, Note_off_c, 0, 42, 59
1, 119259, Control_c, 0, 64, 63
1, 119259, Control_c, 0, 67, 9
1, 119274, Control_c, 0, 64, 74
1, 119289, Control_c, 0, 64, 101
1, 119304, Control_c, 0, 64, 127
1, 119304, Control_c, 0, 67, 10
1, 119349, Control_c, 0, 67, 9
1, 119385, Control_c, 0, 67, 9
1, 119401, Note_off_c, 0, 56, 63
1, 119429, Note_off_c, 0, 70, 31
1, 119430, Note_off_c, 0, 67, 59
1, 119430, Control_c, 0, 67, 9
1, 119445, Control_c, 0, 67, 10
1, 119473, Note_off_c, 0, 62, 33
1, 119504, Control_c, 0, 67, 10
1, 119534, Control_c, 0, 67, 11
1, 119563, Control_c, 0, 67, 11
1, 119578, Control_c, 0, 67, 12
1, 119580, Note_off_c, 0, 46, 35
1, 119593, Control_c, 0, 67, 11
1, 119623, Control_c, 0, 67, 11
1, 119652, Control_c, 0, 67, 10
1, 119682, Control_c, 0, 67, 10
1, 119726, Control_c, 0, 67, 9
1, 119771, Control_c, 0, 67, 10
1, 119785, Control_c, 0, 67, 10
1, 119792, Note_on_c, 0, 70, 75
1, 119793, Note_on_c, 0, 55, 70
1, 119794, Note_on_c, 0, 61, 58
1, 119794, Note_on_c, 0, 66, 72
1, 119800, Control_c, 0, 64, 71
1, 119800, Control_c, 0, 67, 11
1, 119807, Note_on_c, 0, 39, 72
1, 119815, Control_c, 0, 64, 45
1, 119819, Note_off_c, 0, 34, 60
1, 119829, Control_c, 0, 64, 0
1, 119889, Control_c, 0, 64, 39
1, 119889, Control_c, 0, 67, 11
1, 119903, Control_c, 0, 64, 62
1, 119918, Control_c, 0, 64, 73
1, 119933, Control_c, 0, 64, 92
1, 119949, Control_c, 0, 64, 127
1, 119949, Control_c, 0, 67, 11
1, 119964, Control_c, 0, 67, 10
1, 120022, Note_off_c, 0, 55, 41
1, 120077, Note_off_c, 0, 70, 48
1, 120097, Control_c, 0, 67, 10
1, 120163, Control_c, 0, 67, 10
1, 120176, Note_off_c, 0, 39, 62
1, 120179, Note_off_c, 0, 61, 55
1, 120187, Note_on_c, 0, 32, 69
1, 120193, Note_on_c, 0, 44, 69
1, 120210, Note_off_c, 0, 66, 62
1, 120234, Note_off_c, 0, 32, 63
1, 120238, Note_off_c, 0, 44, 58
1, 120341, Control_c, 0, 67, 10
1, 120415, Control_c, 0, 67, 9
1, 120416, Note_on_c, 0, 70, 77
1, 120417, Note_on_c, 0, 65, 77
1, 120426, Note_on_c, 0, 60, 68
1, 120428, Note_on_c, 0, 54, 79
1, 120478, Note_off_c, 0, 54, 62
1, 120505, Note_off_c, 0, 70, 60
1, 120562, Note_off_c, 0, 60, 60
1, 120741, Control_c, 0, 67, 10
1, 120897, Control_c, 0, 67, 10
1, 121016, Control_c, 0, 67, 11
1, 121119, Control_c, 0, 67, 11
1, 121238, Control_c, 0, 67, 11
1, 121283, Note_on_c, 0, 64, 81
1, 121295, Note_on_c, 0, 59, 64
1, 121297, Control_c, 0, 67, 10
1, 121302, Note_on_c, 0, 53, 67
1, 121319, Note_on_c, 0, 25, 71
1, 121322, Note_on_c, 0, 37, 68
1, 121342, Control_c, 0, 64, 94
1, 121356, Control_c, 0, 64, 76
1, 121371, Control_c, 0, 64, 63
1, 121371, Control_c, 0, 67, 10
1, 121385, Note_off_c, 0, 65, 52
1, 121386, Control_c, 0, 64, 47
1, 121400, Control_c, 0, 64, 29
1, 121415, Control_c, 0, 64, 0
1, 121460, Control_c, 0, 67, 10
1, 121489, Control_c, 0, 64, 27
1, 121504, Control_c, 0, 64, 53
1, 121519, Control_c, 0, 64, 68
1, 121534, Control_c, 0, 64, 80
1, 121534, Control_c, 0, 67, 11
1, 121550, Control_c, 0, 64, 100
1, 121550, Control_c, 0, 67, 11
1, 121565, Control_c, 0, 64, 127
1, 121565, Control_c, 0, 67, 12
1, 121579, Control_c, 0, 67, 13
1, 121594, Control_c, 0, 67, 13
1, 121631, Control_c, 0, 67, 14
1, 121638, Note_off_c, 0, 53, 57
1, 121646, Control_c, 0, 67, 14
1, 121661, Control_c, 0, 67, 15
1, 121676, Control_c, 0, 67, 16
1, 121691, Control_c, 0, 67, 17
1, 121705, Control_c, 0, 67, 18
1, 121720, Control_c, 0, 67, 19
1, 121722, Note_off_c, 0, 59, 54
1, 121735, Control_c, 0, 67, 19
1, 121750, Control_c, 0, 67, 20
1, 121765, Control_c, 0, 67, 20
1, 121786, Note_off_c, 0, 25, 47
1, 121794, Control_c, 0, 67, 21
1, 121809, Control_c, 0, 67, 22
1, 121838, Control_c, 0, 67, 22
1, 121853, Control_c, 0, 67, 23
1, 121868, Control_c, 0, 67, 23
1, 121883, Note_off_c, 0, 37, 40
1, 121883, Control_c, 0, 67, 24
1, 121897, Control_c, 0, 67, 25
1, 121912, Control_c, 0, 67, 25
1, 121927, Control_c, 0, 67, 26
1, 121942, Control_c, 0, 67, 27
1, 121957, Control_c, 0, 67, 27
1, 121972, Control_c, 0, 67, 28
1, 121987, Control_c, 0, 67, 28
1, 122002, Control_c, 0, 67, 29
1, 122017, Control_c, 0, 67, 30
1, 122031, Control_c, 0, 67, 30
1, 122046, Control_c, 0, 67, 31
1, 122061, Control_c, 0, 67, 32
1, 122076, Control_c, 0, 67, 33
1, 122091, Control_c, 0, 67, 34
1, 122105, Control_c, 0, 67, 36
1, 122120, Control_c, 0, 67, 38
1, 122135, Control_c, 0, 67, 40
1, 122150, Control_c, 0, 67, 42
1, 122165, Control_c, 0, 67, 44
1, 122179, Control_c, 0, 67, 47
1, 122183, Note_off_c, 0, 64, 25
1, 122192, Note_on_c, 0, 70, 51
1, 122194, Control_c, 0, 67, 50
1, 122207, Note_on_c, 0, 58, 40
1, 122209, Control_c, 0, 67, 53
1, 122223, Control_c, 0, 67, 57
1, 122238, Control_c, 0, 67, 60
1, 122253, Control_c, 0, 67, 62
1, 122268, Control_c, 0, 67, 65
1, 122283, Control_c, 0, 67, 68
1, 122297, Control_c, 0, 67, 71
1, 122312, Control_c, 0, 67, 74
1, 122327, Control_c, 0, 67, 77
1, 122342, Control_c, 0, 67, 80
1, 122357, Control_c, 0, 67, 82
1, 122380, Control_c, 0, 67, 84
1, 122395, Control_c, 0, 67, 86
1, 122409, Control_c, 0, 67, 88
1, 122424, Control_c, 0, 67, 89
1, 122439, Control_c, 0, 67, 91
1, 122453, Control_c, 0, 67, 93
1, 122468, Control_c, 0, 67, 94
1, 122473, Note_off_c, 0, 58, 37
1, 122483, Control_c, 0, 67, 96
1, 122498, Control_c, 0, 67, 97
1, 122513, Control_c, 0, 67, 99
1, 122527, Control_c, 0, 67, 100
1, 122542, Control_c, 0, 67, 101
1, 122557, Control_c, 0, 67, 103
1, 122572, Control_c, 0, 67, 103
1, 122587, Control_c, 0, 67, 104
1, 122601, Control_c, 0, 67, 105
1, 122616, Control_c, 0, 67, 106
1, 122631, Control_c, 0, 67, 106
1, 122646, Control_c, 0, 67, 107
1, 122661, Control_c, 0, 67, 107
1, 122690, Control_c, 0, 67, 108
1, 122741, Note_on_c, 0, 62, 70
1, 122838, Note_off_c, 0, 70, 34
1, 122942, Control_c, 0, 67, 107
1, 123031, Control_c, 0, 67, 107
1, 123075, Control_c, 0, 67, 106
1, 123188, Control_c, 0, 67, 106
1, 123306, Control_c, 0, 67, 105
1, 123339, Note_on_c, 0, 70, 51
1, 123349, Note_on_c, 0, 58, 43
1, 123440, Note_off_c, 0, 70, 52
1, 123498, Control_c, 0, 67, 105
1, 123528, Control_c, 0, 67, 104
1, 123573, Control_c, 0, 67, 104
1, 123617, Control_c, 0, 67, 103
1, 123676, Control_c, 0, 67, 103
1, 123905, Note_on_c, 0, 70, 41
1, 124025, Control_c, 0, 67, 102
1, 124059, Note_off_c, 0, 70, 29
1, 124130, Note_off_c, 0, 58, 22
1, 124640, Control_c, 0, 67, 103
1, 124709, Note_off_c, 0, 62, 39
1, 125230, Note_on_c, 0, 70, 43
1, 125246, Note_on_c, 0, 58, 36
1, 125362, Note_off_c, 0, 70, 34
1, 125642, Control_c, 0, 67, 103
1, 125837, Note_on_c, 0, 70, 31
1, 125879, Control_c, 0, 67, 104
1, 125923, Control_c, 0, 67, 104
1, 125935, Note_off_c, 0, 58, 36
1, 125949, Note_off_c, 0, 70, 35
1, 125953, Control_c, 0, 67, 105
1, 125997, Control_c, 0, 67, 105
1, 126012, Control_c, 0, 67, 106
1, 126042, Control_c, 0, 67, 106
1, 126057, Control_c, 0, 67, 107
1, 126071, Control_c, 0, 67, 107
1, 126086, Control_c, 0, 67, 108
1, 126101, Control_c, 0, 67, 108
1, 126116, Control_c, 0, 67, 109
1, 126138, Control_c, 0, 67, 109
1, 126153, Control_c, 0, 67, 110
1, 126168, Control_c, 0, 67, 113
1, 126183, Control_c, 0, 67, 116
1, 126197, Control_c, 0, 67, 119
1, 126212, Control_c, 0, 67, 122
1, 126227, Control_c, 0, 67, 124
1, 126242, Control_c, 0, 67, 126
1, 126257, Control_c, 0, 67, 127
1, 126480, Note_on_c, 0, 64, 40
1, 126494, Control_c, 0, 64, 117
1, 126509, Control_c, 0, 64, 87
1, 126512, Note_on_c, 0, 53, 32
1, 126519, Note_on_c, 0, 25, 31
1, 126522, Note_on_c, 0, 37, 19
1, 126524, Control_c, 0, 64, 69
1, 126534, Note_on_c, 0, 59, 15
1, 126539, Control_c, 0, 64, 57
1, 126554, Control_c, 0, 64, 40
1, 126569, Control_c, 0, 64, 23
1, 126583, Control_c, 0, 64, 9
1, 126592, Note_off_c, 0, 59, 0
1, 126598, Control_c, 0, 64, 0
1, 126613, Control_c, 0, 64, 9
1, 126628, Control_c, 0, 64, 22
1, 126629, Poly_aftertouch_c, 0, 59, 127
1, 126643, Control_c, 0, 64, 40
1, 126658, Control_c, 0, 64, 58
1, 126673, Control_c, 0, 64, 69
1, 126687, Control_c, 0, 64, 79
1, 126702, Control_c, 0, 64, 95
1, 126717, Control_c, 0, 64, 127
1, 126766, Note_off_c, 0, 53, 51
1, 126814, Note_off_c, 0, 64, 33
1, 126844, Poly_aftertouch_c, 0, 59, 0
1, 126888, Note_off_c, 0, 25, 40
1, 126943, Note_off_c, 0, 37, 39
1, 127197, Note_on_c, 0, 70, 33
1, 127227, Note_on_c, 0, 58, 26
1, 127328, Note_off_c, 0, 58, 35
1, 127782, Note_on_c, 0, 62, 36
1, 127830, Note_off_c, 0, 70, 39
1, 128375, Note_on_c, 0, 70, 37
1, 128397, Note_on_c, 0, 58, 32
1, 128466, Note_off_c, 0, 70, 52
1, 128997, Note_on_c, 0, 70, 29
1, 129032, Note_off_c, 0, 62, 35
1, 129144, Note_off_c, 0, 70, 39
1, 129176, Note_off_c, 0, 58, 37
1, 130302, Note_on_c, 0, 70, 28
1, 130308, Note_on_c, 0, 58, 19
1, 130408, Note_off_c, 0, 70, 56
1, 130889, Note_on_c, 0, 70, 19
1, 131468, Control_c, 0, 64, 114
1, 131483, Control_c, 0, 64, 108
1, 131498, Control_c, 0, 64, 103
1, 131513, Control_c, 0, 64, 99
1, 131528, Control_c, 0, 64, 96
1, 131542, Control_c, 0, 64, 94
1, 131557, Control_c, 0, 64, 91
1, 131572, Control_c, 0, 64, 88
1, 131587, Control_c, 0, 64, 85
1, 131602, Control_c, 0, 64, 79
1, 131616, Control_c, 0, 64, 74
1, 131630, Note_on_c, 0, 77, 51
1, 131631, Control_c, 0, 64, 67
1, 131646, Control_c, 0, 64, 60
1, 131660, Control_c, 0, 64, 52
1, 131675, Control_c, 0, 64, 48
1, 131705, Control_c, 0, 64, 49
1, 131720, Control_c, 0, 64, 52
1, 131734, Control_c, 0, 64, 58
1, 131749, Control_c, 0, 64, 65
1, 131764, Control_c, 0, 64, 72
1, 131779, Control_c, 0, 64, 82
1, 131794, Control_c, 0, 64, 94
1, 131809, Control_c, 0, 64, 110
1, 131824, Control_c, 0, 64, 127
1, 131848, Note_off_c, 0, 70, 40
1, 131848, Note_off_c, 0, 58, 37
1, 132279, Note_on_c, 0, 70, 23
1, 132297, Note_on_c, 0, 58, 23
1, 132927, Note_on_c, 0, 76, 48
1, 132979, Note_off_c, 0, 77, 53
1, 133008, Note_off_c, 0, 70, 34
1, 133010, Note_off_c, 0, 58, 33
1, 133475, Note_on_c, 0, 70, 28
1, 133490, Note_on_c, 0, 58, 21
1, 133624, Note_off_c, 0, 70, 35
1, 134070, Note_on_c, 0, 70, 23
1, 134212, Note_off_c, 0, 70, 39
1, 134229, Note_off_c, 0, 58, 32
1, 135273, Note_on_c, 0, 70, 27
1, 135296, Note_on_c, 0, 58, 28
1, 135432, Note_off_c, 0, 70, 39
1, 135881, Note_on_c, 0, 77, 44
1, 135890, Note_on_c, 0, 70, 18
1, 135968, Note_off_c, 0, 76, 50
1, 136140, Note_off_c, 0, 58, 27
1, 136247, Note_off_c, 0, 70, 35
1, 136460, Note_on_c, 0, 73, 44
1, 136835, Note_off_c, 0, 77, 31
1, 137046, Note_on_c, 0, 70, 27
1, 137058, Note_on_c, 0, 58, 21
1, 137151, Note_off_c, 0, 70, 51
1, 137641, Note_on_c, 0, 77, 49
1, 137660, Note_on_c, 0, 70, 34
1, 137738, Note_off_c, 0, 73, 35
1, 137773, Note_off_c, 0, 58, 31
1, 137825, Note_off_c, 0, 70, 40
1, 137959, Note_off_c, 0, 77, 31
1, 138845, Note_on_c, 0, 77, 54
1, 138867, Control_c, 0, 64, 109
1, 138882, Control_c, 0, 64, 91
1, 138888, Note_on_c, 0, 70, 26
1, 138896, Note_on_c, 0, 58, 23
1, 138897, Control_c, 0, 64, 79
1, 138911, Control_c, 0, 64, 70
1, 138926, Control_c, 0, 64, 64
1, 138941, Control_c, 0, 64, 61
1, 138956, Control_c, 0, 64, 63
1, 138971, Control_c, 0, 64, 69
1, 138985, Control_c, 0, 64, 76
1, 139000, Control_c, 0, 64, 89
1, 139015, Control_c, 0, 64, 105
1, 139030, Control_c, 0, 64, 127
1, 139087, Note_off_c, 0, 70, 41
1, 139446, Note_on_c, 0, 70, 26
1, 139754, Note_off_c, 0, 58, 26
1, 139854, Note_off_c, 0, 70, 38
1, 140009, Note_on_c, 0, 76, 41
1, 140124, Note_off_c, 0, 77, 34
1, 140601, Note_on_c, 0, 70, 27
1, 140615, Note_on_c, 0, 58, 34
1, 140707, Note_off_c, 0, 70, 53
1, 141115, Note_off_c, 0, 76, 49
1, 141208, Note_on_c, 0, 70, 31
1, 141261, Note_off_c, 0, 58, 28
1, 141329, Note_off_c, 0, 70, 34
1, 141798, Note_on_c, 0, 67, 33
1, 141807, Note_on_c, 0, 61, 27
1, 141819, Note_on_c, 0, 57, 33
1, 141869, Note_off_c, 0, 57, 62
1, 141876, Note_off_c, 0, 61, 60
1, 141896, Note_off_c, 0, 67, 60
1, 142438, Note_on_c, 0, 58, 23
1, 142442, Note_on_c, 0, 70, 26
1, 142442, Note_on_c, 0, 76, 59
1, 142618, Note_off_c, 0, 70, 38
1, 143002, Note_on_c, 0, 70, 38
1, 143059, Note_on_c, 0, 77, 66
1, 143404, Note_off_c, 0, 70, 31
1, 143445, Note_off_c, 0, 58, 36
1, 143615, Note_on_c, 0, 79, 71
1, 143867, Note_off_c, 0, 77, 31
1, 143891, Note_off_c, 0, 76, 31
1, 144190, Note_on_c, 0, 70, 43
1, 144204, Note_on_c, 0, 58, 37
1, 144298, Note_off_c, 0, 70, 59
1, 144776, Note_on_c, 0, 77, 70
1, 144810, Note_on_c, 0, 70, 39
1, 144886, Note_off_c, 0, 79, 56
1, 144948, Note_off_c, 0, 70, 53
1, 145157, Note_off_c, 0, 58, 30
1, 145376, Note_on_c, 0, 76, 76
1, 145422, Note_off_c, 0, 77, 62
1, 145441, Note_off_c, 0, 76, 60
1, 145614, Note_on_c, 0, 37, 47
1, 145679, Note_on_c, 0, 49, 53
1, 145735, Note_on_c, 0, 53, 59
1, 145804, Note_on_c, 0, 59, 51
1, 145805, Note_off_c, 0, 53, 61
1, 145827, Note_off_c, 0, 59, 63
1, 146067, Note_on_c, 0, 76, 78
1, 146091, Note_off_c, 0, 37, 59
1, 146093, Note_on_c, 0, 64, 53
1, 146156, Note_off_c, 0, 49, 55
1, 146828, Note_on_c, 0, 70, 43
1, 146843, Note_on_c, 0, 58, 36
1, 146860, Note_off_c, 0, 64, 34
1, 147325, Note_off_c, 0, 58, 26
1, 147338, Note_off_c, 0, 70, 43
1, 147453, Note_on_c, 0, 74, 59
1, 147477, Note_on_c, 0, 62, 36
1, 147668, Note_off_c, 0, 76, 31
1, 148044, Note_on_c, 0, 70, 38
1, 148065, Note_on_c, 0, 58, 31
1, 148192, Note_off_c, 0, 70, 33
1, 148615, Note_on_c, 0, 70, 29
1, 148734, Note_off_c, 0, 70, 34
1, 148746, Note_off_c, 0, 58, 38
1, 149926, Note_on_c, 0, 70, 35
1, 149936, Note_on_c, 0, 58, 33
1, 149998, Note_off_c, 0, 62, 43
1, 150024, Note_off_c, 0, 70, 47
1, 150083, Note_off_c, 0, 58, 44
1, 150498, Note_on_c, 0, 70, 34
1, 150509, Note_off_c, 0, 74, 39
1, 150577, Note_off_c, 0, 70, 57
1, 151114, Note_on_c, 0, 64, 52
1, 151130, Control_c, 0, 64, 100
1, 151142, Note_on_c, 0, 56, 43
1, 151145, Control_c, 0, 64, 72
1, 151150, Note_on_c, 0, 50, 35
1, 151159, Control_c, 0, 64, 53
1, 151174, Note_on_c, 0, 34, 22
1, 151174, Control_c, 0, 64, 25
1, 151178, Note_on_c, 0, 46, 17
1, 151189, Control_c, 0, 64, 8
1, 151204, Control_c, 0, 64, 28
1, 151219, Control_c, 0, 64, 50
1, 151233, Control_c, 0, 64, 64
1, 151248, Control_c, 0, 64, 72
1, 151263, Control_c, 0, 64, 81
1, 151277, Control_c, 0, 64, 91
1, 151292, Control_c, 0, 64, 104
1, 151307, Control_c, 0, 64, 127
1, 151355, Note_off_c, 0, 50, 60
1, 151398, Note_off_c, 0, 64, 47
1, 151423, Note_off_c, 0, 56, 63
1, 151497, Note_off_c, 0, 34, 36
1, 151513, Note_off_c, 0, 46, 36
1, 151787, Note_on_c, 0, 70, 37
1, 151821, Note_on_c, 0, 58, 24
1, 151877, Note_off_c, 0, 58, 50
1, 152384, Note_on_c, 0, 62, 36
1, 152470, Note_off_c, 0, 70, 40
1, 152964, Note_on_c, 0, 70, 37
1, 152980, Note_on_c, 0, 58, 33
1, 153064, Note_off_c, 0, 70, 52
1, 153271, Note_off_c, 0, 62, 31
1, 153564, Note_on_c, 0, 70, 35
1, 153772, Note_off_c, 0, 58, 30
1, 154108, Note_on_c, 0, 77, 58
1, 154147, Note_on_c, 0, 65, 30
1, 154258, Note_off_c, 0, 70, 59
1, 154650, Control_c, 0, 64, 114
1, 154665, Control_c, 0, 64, 89
1, 154680, Control_c, 0, 64, 77
1, 154693, Note_on_c, 0, 58, 35
1, 154695, Control_c, 0, 64, 70
1, 154709, Control_c, 0, 64, 69
1, 154711, Note_on_c, 0, 70, 30
1, 154724, Control_c, 0, 64, 74
1, 154739, Control_c, 0, 64, 85
1, 154754, Control_c, 0, 64, 108
1, 154758, Note_off_c, 0, 58, 0
1, 154758, Note_on_c, 0, 58, 11
1, 154769, Control_c, 0, 64, 127
1, 154811, Note_off_c, 0, 65, 43
1, 154828, Note_off_c, 0, 70, 55
1, 155014, Note_off_c, 0, 58, 33
1, 155239, Note_on_c, 0, 70, 26
1, 155286, Note_off_c, 0, 70, 57
1, 155374, Note_on_c, 0, 79, 51
1, 155412, Note_on_c, 0, 67, 13
1, 155460, Note_off_c, 0, 77, 34
1, 155562, Note_off_c, 0, 67, 45
1, 155716, Note_on_c, 0, 43, 22
1, 155822, Note_on_c, 0, 50, 28
1, 156089, Note_on_c, 0, 81, 49
1, 156113, Note_on_c, 0, 74, 29
1, 156130, Note_on_c, 0, 69, 26
1, 156133, Control_c, 0, 64, 104
1, 156148, Control_c, 0, 64, 89
1, 156163, Control_c, 0, 64, 78
1, 156173, Note_off_c, 0, 79, 33
1, 156178, Control_c, 0, 64, 67
1, 156193, Control_c, 0, 64, 56
1, 156205, Note_on_c, 0, 58, 44
1, 156207, Control_c, 0, 64, 43
1, 156222, Control_c, 0, 64, 35
1, 156237, Control_c, 0, 64, 32
1, 156252, Control_c, 0, 64, 33
1, 156266, Control_c, 0, 64, 38
1, 156281, Control_c, 0, 64, 51
1, 156296, Control_c, 0, 64, 65
1, 156311, Control_c, 0, 64, 78
1, 156326, Control_c, 0, 64, 98
1, 156340, Control_c, 0, 64, 127
1, 156372, Note_off_c, 0, 43, 51
1, 156432, Note_off_c, 0, 50, 60
1, 156490, Note_off_c, 0, 58, 59
1, 156938, Note_off_c, 0, 69, 36
1, 157021, Note_on_c, 0, 70, 26
1, 157039, Note_on_c, 0, 58, 19
1, 157495, Note_off_c, 0, 70, 40
1, 157513, Note_off_c, 0, 58, 33
1, 157590, Note_on_c, 0, 79, 42
1, 157619, Note_on_c, 0, 67, 22
1, 157727, Note_off_c, 0, 81, 28
1, 158142, Note_on_c, 0, 70, 32
1, 158171, Note_on_c, 0, 58, 19
1, 158287, Note_off_c, 0, 67, 34
1, 158308, Note_off_c, 0, 70, 34
1, 158715, Note_off_c, 0, 74, 19
1, 158718, Note_on_c, 0, 70, 30
1, 158979, Note_off_c, 0, 70, 39
1, 159193, Note_off_c, 0, 58, 35
1, 159314, Note_on_c, 0, 81, 56
1, 159343, Note_on_c, 0, 69, 29
1, 159364, Note_off_c, 0, 79, 54
1, 159553, Note_off_c, 0, 69, 37
1, 159883, Note_on_c, 0, 84, 64
1, 159916, Note_on_c, 0, 72, 39
1, 159918, Note_on_c, 0, 70, 35
1, 159925, Note_on_c, 0, 58, 29
1, 159950, Note_off_c, 0, 81, 56
1, 160081, Note_off_c, 0, 70, 34
1, 160198, Note_off_c, 0, 72, 33
1, 160482, Note_on_c, 0, 70, 32
1, 160607, Note_off_c, 0, 70, 52
1, 161038, Note_on_c, 0, 82, 58
1, 161072, Note_on_c, 0, 70, 26
1, 161078, Note_off_c, 0, 84, 51
1, 161104, Note_off_c, 0, 58, 32
1, 161188, Note_off_c, 0, 82, 57
1, 161195, Note_off_c, 0, 70, 47
1, 161553, Note_on_c, 0, 58, 19
1, 161593, Note_off_c, 0, 58, 52
1, 161606, Note_on_c, 0, 81, 54
1, 161640, Note_on_c, 0, 69, 36
1, 161678, Note_off_c, 0, 81, 61
1, 161690, Note_off_c, 0, 69, 60
1, 161935, Note_on_c, 0, 39, 35
1, 161953, Control_c, 0, 64, 104
1, 161968, Control_c, 0, 64, 81
1, 161983, Control_c, 0, 64, 71
1, 161998, Control_c, 0, 64, 67
1, 162012, Control_c, 0, 64, 71
1, 162027, Control_c, 0, 64, 81
1, 162042, Control_c, 0, 64, 108
1, 162048, Note_on_c, 0, 46, 33
1, 162064, Control_c, 0, 64, 127
1, 162077, Note_on_c, 0, 65, 39
1, 162088, Note_on_c, 0, 61, 40
1, 162101, Note_off_c, 0, 39, 55
1, 162123, Note_off_c, 0, 65, 60
1, 162131, Note_off_c, 0, 61, 62
1, 162186, Note_off_c, 0, 46, 50
1, 162236, Note_on_c, 0, 55, 36
1, 162302, Note_off_c, 0, 55, 61
1, 162471, Note_on_c, 0, 81, 46
1, 162501, Note_on_c, 0, 69, 30
1, 163227, Note_on_c, 0, 70, 23
1, 163242, Note_on_c, 0, 58, 28
1, 163252, Note_off_c, 0, 69, 36
1, 163783, Note_off_c, 0, 70, 37
1, 163798, Note_off_c, 0, 58, 37
1, 163868, Note_on_c, 0, 79, 35
1, 163893, Note_on_c, 0, 67, 27
1, 164033, Note_off_c, 0, 81, 29
1, 164446, Note_on_c, 0, 70, 34
1, 164454, Note_on_c, 0, 58, 26
1, 164548, Note_off_c, 0, 70, 57
1, 165031, Note_on_c, 0, 70, 26
1, 165122, Note_off_c, 0, 70, 52
1, 165516, Note_off_c, 0, 58, 34
1, 166379, Note_on_c, 0, 58, 29
1, 166384, Note_on_c, 0, 70, 30
1, 166494, Note_off_c, 0, 70, 35
1, 166694, Note_off_c, 0, 79, 23
1, 166761, Note_off_c, 0, 67, 23
1, 166783, Note_off_c, 0, 58, 42
1, 166972, Note_on_c, 0, 70, 36
1, 167056, Note_off_c, 0, 70, 59
1, 167605, Note_on_c, 0, 69, 48
1, 167625, Note_on_c, 0, 61, 39
1, 167625, Note_on_c, 0, 64, 26
1, 167634, Note_on_c, 0, 55, 29
1, 167645, Control_c, 0, 64, 93
1, 167660, Note_on_c, 0, 46, 32
1, 167660, Control_c, 0, 64, 79
1, 167665, Note_on_c, 0, 39, 28
1, 167675, Control_c, 0, 64, 70
1, 167690, Control_c, 0, 64, 64
1, 167720, Control_c, 0, 64, 69
1, 167735, Control_c, 0, 64, 80
1, 167749, Control_c, 0, 64, 96
1, 167764, Control_c, 0, 64, 127
1, 167841, Note_off_c, 0, 55, 57
1, 167852, Note_off_c, 0, 69, 61
1, 168056, Note_off_c, 0, 39, 57
1, 168101, Note_off_c, 0, 46, 52
1, 168242, Note_off_c, 0, 64, 19
1, 168271, Note_on_c, 0, 70, 40
1, 168289, Note_on_c, 0, 58, 31
1, 168304, Note_off_c, 0, 61, 34
1, 168367, Note_off_c, 0, 58, 51
1, 168758, Note_off_c, 0, 70, 41
1, 168811, Note_on_c, 0, 67, 60
1, 169380, Note_on_c, 0, 70, 39
1, 169395, Note_on_c, 0, 58, 37
1, 169532, Note_off_c, 0, 70, 33
1, 170000, Note_on_c, 0, 70, 39
1, 170049, Note_off_c, 0, 58, 36
1, 170176, Note_off_c, 0, 67, 29
1, 170619, Note_on_c, 0, 69, 45
1, 170768, Note_off_c, 0, 70, 33
1, 171208, Note_on_c, 0, 72, 40
1, 171212, Control_c, 0, 64, 110
1, 171227, Control_c, 0, 64, 87
1, 171233, Note_on_c, 0, 58, 27
1, 171241, Control_c, 0, 64, 75
1, 171243, Note_on_c, 0, 70, 26
1, 171244, Note_on_c, 0, 64, 30
1, 171256, Control_c, 0, 64, 66
1, 171257, Note_off_c, 0, 69, 44
1, 171271, Control_c, 0, 64, 60
1, 171286, Control_c, 0, 64, 59
1, 171300, Control_c, 0, 64, 63
1, 171315, Control_c, 0, 64, 70
1, 171330, Control_c, 0, 64, 82
1, 171345, Control_c, 0, 64, 104
1, 171360, Control_c, 0, 64, 127
1, 171395, Note_off_c, 0, 70, 41
1, 171470, Note_off_c, 0, 58, 39
1, 171872, Note_on_c, 0, 70, 36
1, 171877, Note_on_c, 0, 58, 22
1, 171893, Note_off_c, 0, 72, 35
1, 171955, Note_off_c, 0, 70, 58
1, 171957, Note_off_c, 0, 64, 49
1, 171977, Note_off_c, 0, 58, 36
1, 172510, Control_c, 0, 64, 103
1, 172524, Control_c, 0, 64, 75
1, 172546, Control_c, 0, 64, 56
1, 172561, Control_c, 0, 64, 27
1, 172576, Control_c, 0, 64, 12
1, 172579, Note_on_c, 0, 58, 36
1, 172591, Control_c, 0, 64, 30
1, 172594, Note_on_c, 0, 54, 30
1, 172598, Note_on_c, 0, 36, 41
1, 172603, Note_on_c, 0, 51, 23
1, 172606, Control_c, 0, 64, 54
1, 172614, Note_on_c, 0, 48, 33
1, 172621, Control_c, 0, 64, 70
1, 172635, Control_c, 0, 64, 83
1, 172650, Control_c, 0, 64, 111
1, 172661, Note_off_c, 0, 51, 61
1, 172662, Note_off_c, 0, 54, 57
1, 172665, Control_c, 0, 64, 127
1, 172686, Note_off_c, 0, 58, 58
1, 172692, Note_off_c, 0, 36, 61
1, 172710, Note_off_c, 0, 48, 60
1, 173271, Note_on_c, 0, 87, 84
1, 173285, Note_on_c, 0, 70, 48
1, 173300, Note_on_c, 0, 75, 51
1, 173302, Note_on_c, 0, 58, 45
1, 173302, Note_on_c, 0, 78, 54
1, 173305, Note_on_c, 0, 82, 52
1, 173318, Note_on_c, 0, 66, 42
1, 173333, Note_on_c, 0, 63, 39
1, 173372, Note_off_c, 0, 70, 53
1, 173875, Note_on_c, 0, 70, 39
1, 173944, Note_off_c, 0, 58, 28
1, 174051, Note_off_c, 0, 70, 32
1, 174937, Note_off_c, 0, 75, 37
1, 174990, Note_off_c, 0, 87, 49
1, 175211, Note_on_c, 0, 70, 47
1, 175214, Note_on_c, 0, 58, 42
1, 175241, Note_off_c, 0, 78, 10
1, 175274, Note_off_c, 0, 66, 42
1, 175279, Note_off_c, 0, 63, 34
1, 175313, Note_off_c, 0, 70, 52
1, 175396, Note_off_c, 0, 82, 31
1, 175815, Note_on_c, 0, 83, 69
1, 175829, Note_on_c, 0, 75, 48
1, 175830, Note_on_c, 0, 63, 30
1, 175831, Note_on_c, 0, 78, 49
1, 175833, Note_on_c, 0, 59, 46
1, 175835, Note_on_c, 0, 71, 47
1, 175837, Note_on_c, 0, 70, 43
1, 175858, Note_on_c, 0, 66, 41
1, 175941, Note_off_c, 0, 78, 0
1, 175995, Note_off_c, 0, 71, 32
1, 176000, Poly_aftertouch_c, 0, 78, 0
1, 176010, Note_off_c, 0, 83, 57
1, 176046, Note_off_c, 0, 59, 32
1, 176055, Note_off_c, 0, 70, 0
1, 176062, Note_off_c, 0, 75, 38
1, 176092, Note_off_c, 0, 66, 39
1, 176096, Poly_aftertouch_c, 0, 70, 0
1, 176124, Note_off_c, 0, 63, 33
1, 176305, Control_c, 0, 67, 125
1, 176320, Control_c, 0, 67, 123
1, 176335, Control_c, 0, 67, 121
1, 176350, Control_c, 0, 67, 119
1, 176365, Control_c, 0, 67, 118
1, 176379, Control_c, 0, 67, 117
1, 176394, Control_c, 0, 64, 124
1, 176394, Control_c, 0, 67, 116
1, 176409, Control_c, 0, 64, 86
1, 176413, Note_on_c, 0, 84, 78
1, 176414, Note_off_c, 0, 58, 29
1, 176422, Note_on_c, 0, 78, 66
1, 176424, Control_c, 0, 64, 74
1, 176424, Control_c, 0, 67, 115
1, 176426, Note_on_c, 0, 72, 62
1, 176427, Note_on_c, 0, 75, 63
1, 176429, Note_on_c, 0, 70, 54
1, 176430, Note_on_c, 0, 63, 25
1, 176435, Note_on_c, 0, 60, 47
1, 176439, Control_c, 0, 64, 71
1, 176439, Control_c, 0, 67, 115
1, 176448, Note_on_c, 0, 66, 39
1, 176454, Control_c, 0, 64, 75
1, 176454, Control_c, 0, 67, 114
1, 176469, Control_c, 0, 64, 85
1, 176469, Control_c, 0, 67, 113
1, 176484, Control_c, 0, 64, 115
1, 176484, Control_c, 0, 67, 112
1, 176498, Control_c, 0, 64, 127
1, 176498, Control_c, 0, 67, 112
1, 176513, Note_off_c, 0, 63, 0
1, 176513, Control_c, 0, 67, 111
1, 176528, Control_c, 0, 67, 110
1, 176543, Control_c, 0, 67, 109
1, 176550, Poly_aftertouch_c, 0, 63, 127
1, 176558, Control_c, 0, 67, 107
1, 176572, Control_c, 0, 67, 106
1, 176587, Control_c, 0, 67, 105
1, 176597, Note_off_c, 0, 70, 48
1, 176602, Control_c, 0, 67, 105
1, 176612, Note_off_c, 0, 72, 33
1, 176616, Control_c, 0, 67, 104
1, 176631, Control_c, 0, 67, 104
1, 176646, Control_c, 0, 67, 103
1, 176648, Note_off_c, 0, 60, 39
1, 176662, Control_c, 0, 67, 102
1, 176677, Control_c, 0, 67, 101
1, 176692, Control_c, 0, 67, 100
1, 176707, Control_c, 0, 67, 99
1, 176712, Note_off_c, 0, 75, 35
1, 176721, Control_c, 0, 67, 97
1, 176736, Control_c, 0, 67, 95
1, 176741, Note_off_c, 0, 78, 35
1, 176743, Note_off_c, 0, 66, 36
1, 176743, Note_off_c, 0, 84, 52
1, 176751, Control_c, 0, 67, 93
1, 176758, Poly_aftertouch_c, 0, 63, 0
1, 176766, Control_c, 0, 67, 90
1, 176780, Control_c, 0, 67, 86
1, 176795, Control_c, 0, 67, 82
1, 176810, Control_c, 0, 67, 79
1, 176825, Control_c, 0, 67, 77
1, 176839, Control_c, 0, 67, 76
1, 176854, Control_c, 0, 67, 75
1, 176869, Control_c, 0, 67, 73
1, 176884, Control_c, 0, 67, 71
1, 176899, Control_c, 0, 67, 70
1, 176913, Control_c, 0, 67, 68
1, 176928, Control_c, 0, 67, 67
1, 176943, Control_c, 0, 67, 66
1, 176958, Control_c, 0, 67, 64
1, 176973, Control_c, 0, 67, 62
1, 176988, Control_c, 0, 67, 60
1, 177002, Control_c, 0, 67, 58
1, 177017, Control_c, 0, 67, 56
1, 177035, Note_on_c, 0, 70, 60
1, 177039, Control_c, 0, 67, 53
1, 177040, Note_on_c, 0, 58, 54
1, 177054, Control_c, 0, 67, 51
1, 177069, Control_c, 0, 67, 49
1, 177084, Control_c, 0, 67, 48
1, 177099, Control_c, 0, 67, 46
1, 177113, Note_off_c, 0, 70, 61
1, 177113, Control_c, 0, 67, 45
1, 177128, Control_c, 0, 67, 44
1, 177143, Control_c, 0, 67, 42
1, 177158, Control_c, 0, 67, 40
1, 177173, Control_c, 0, 67, 38
1, 177187, Control_c, 0, 67, 37
1, 177202, Control_c, 0, 67, 36
1, 177217, Control_c, 0, 67, 35
1, 177247, Control_c, 0, 67, 34
1, 177262, Control_c, 0, 67, 34
1, 177277, Control_c, 0, 67, 33
1, 177292, Control_c, 0, 67, 31
1, 177307, Control_c, 0, 67, 30
1, 177321, Control_c, 0, 67, 28
1, 177336, Control_c, 0, 67, 25
1, 177351, Control_c, 0, 67, 20
1, 177357, Note_on_c, 0, 89, 83
1, 177365, Control_c, 0, 67, 16
1, 177373, Note_on_c, 0, 73, 58
1, 177376, Note_on_c, 0, 82, 62
1, 177377, Note_on_c, 0, 77, 61
1, 177380, Control_c, 0, 67, 14
1, 177384, Note_on_c, 0, 65, 56
1, 177385, Note_on_c, 0, 85, 47
1, 177388, Note_on_c, 0, 66, 47
1, 177410, Note_off_c, 0, 85, 59
1, 177432, Note_off_c, 0, 82, 58
1, 177447, Note_off_c, 0, 89, 64
1, 177454, Note_off_c, 0, 77, 56
1, 177466, Note_off_c, 0, 73, 59
1, 177485, Control_c, 0, 67, 15
1, 177500, Control_c, 0, 67, 15
1, 177530, Control_c, 0, 67, 16
1, 177553, Note_off_c, 0, 66, 33
1, 177559, Control_c, 0, 67, 16
1, 177574, Control_c, 0, 67, 17
1, 177589, Control_c, 0, 67, 17
1, 177604, Control_c, 0, 67, 18
1, 177618, Control_c, 0, 67, 19
1, 177633, Control_c, 0, 67, 19
1, 177648, Control_c, 0, 64, 88
1, 177648, Control_c, 0, 67, 20
1, 177649, Note_on_c, 0, 87, 83
1, 177657, Note_on_c, 0, 78, 67
1, 177659, Note_on_c, 0, 82, 71
1, 177661, Note_on_c, 0, 75, 67
1, 177662, Control_c, 0, 64, 77
1, 177665, Note_on_c, 0, 66, 54
1, 177667, Note_on_c, 0, 63, 59
1, 177668, Note_on_c, 0, 70, 63
1, 177677, Control_c, 0, 64, 76
1, 177688, Note_off_c, 0, 65, 23
1, 177692, Control_c, 0, 64, 83
1, 177707, Control_c, 0, 64, 109
1, 177722, Control_c, 0, 64, 127
1, 177745, Note_off_c, 0, 70, 61
1, 177766, Control_c, 0, 67, 19
1, 177799, Note_off_c, 0, 66, 61
1, 177816, Note_off_c, 0, 63, 60
1, 177818, Control_c, 0, 67, 19
1, 177842, Note_off_c, 0, 58, 59
1, 177877, Control_c, 0, 67, 19
1, 177878, Note_off_c, 0, 87, 54
1, 177947, Note_off_c, 0, 75, 34
1, 178017, Note_off_c, 0, 82, 50
1, 178025, Note_off_c, 0, 78, 51
1, 178188, Control_c, 0, 67, 19
1, 178276, Note_on_c, 0, 48, 56
1, 178280, Note_on_c, 0, 36, 57
1, 178485, Control_c, 0, 67, 19
1, 178553, Control_c, 0, 67, 19
1, 178774, Control_c, 0, 67, 18
1, 178841, Note_on_c, 0, 70, 54
1, 178847, Note_off_c, 0, 48, 32
1, 178848, Control_c, 0, 67, 18
1, 178859, Note_on_c, 0, 58, 49
1, 178861, Note_off_c, 0, 36, 51
1, 178863, Control_c, 0, 67, 17
1, 178892, Control_c, 0, 67, 16
1, 178922, Control_c, 0, 67, 16
1, 178923, Note_off_c, 0, 70, 59
1, 178937, Control_c, 0, 67, 15
1, 178955, Note_off_c, 0, 58, 0
1, 178955, Note_on_c, 0, 58, 5
1, 178967, Control_c, 0, 67, 15
1, 178997, Control_c, 0, 67, 14
1, 179026, Control_c, 0, 67, 14
1, 179041, Control_c, 0, 67, 13
1, 179071, Control_c, 0, 67, 13
1, 179116, Control_c, 0, 67, 12
1, 179146, Control_c, 0, 67, 12
1, 179176, Control_c, 0, 67, 11
1, 179205, Control_c, 0, 67, 11
1, 179234, Control_c, 0, 67, 10
1, 179249, Control_c, 0, 67, 10
1, 179286, Control_c, 0, 67, 9
1, 179331, Control_c, 0, 67, 9
1, 179375, Control_c, 0, 67, 8
1, 179405, Control_c, 0, 67, 8
1, 179420, Control_c, 0, 67, 0
1, 179451, Note_on_c, 0, 70, 40
1, 179465, Note_off_c, 0, 58, 38
1, 179605, Note_off_c, 0, 70, 34
1, 180435, Control_c, 0, 67, 8
1, 180508, Control_c, 0, 67, 8
1, 180597, Control_c, 0, 67, 9
1, 180611, Note_on_c, 0, 58, 36
1, 180612, Note_on_c, 0, 83, 76
1, 180627, Note_on_c, 0, 71, 64
1, 180629, Note_on_c, 0, 63, 45
1, 180630, Note_on_c, 0, 75, 57
1, 180631, Note_on_c, 0, 78, 55
1, 180633, Note_on_c, 0, 59, 51
1, 180635, Note_on_c, 0, 70, 53
1, 180647, Note_on_c, 0, 66, 54
1, 180658, Control_c, 0, 67, 9
1, 180717, Control_c, 0, 67, 10
1, 180784, Control_c, 0, 67, 10
1, 180794, Note_off_c, 0, 71, 33
1, 180800, Note_off_c, 0, 59, 32
1, 180832, Note_off_c, 0, 83, 58
1, 180840, Note_off_c, 0, 78, 31
1, 180878, Note_off_c, 0, 75, 34
1, 180884, Note_off_c, 0, 66, 58
1, 180917, Note_off_c, 0, 63, 35
1, 180917, Control_c, 0, 67, 11
1, 180925, Note_off_c, 0, 70, 31
1, 180946, Control_c, 0, 67, 11
1, 181184, Control_c, 0, 67, 11
1, 181243, Control_c, 0, 67, 10
1, 181256, Note_on_c, 0, 84, 86
1, 181259, Note_on_c, 0, 78, 67
1, 181263, Note_on_c, 0, 70, 64
1, 181265, Note_on_c, 0, 60, 60
1, 181266, Note_on_c, 0, 75, 73
1, 181268, Note_on_c, 0, 66, 57
1, 181272, Note_on_c, 0, 72, 71
1, 181277, Note_on_c, 0, 63, 50
1, 181346, Control_c, 0, 67, 11
1, 181349, Note_off_c, 0, 78, 47
1, 181375, Note_off_c, 0, 72, 55
1, 181390, Note_off_c, 0, 60, 62
1, 181393, Note_off_c, 0, 75, 61
1, 181394, Note_off_c, 0, 63, 57
1, 181405, Control_c, 0, 67, 11
1, 181417, Note_off_c, 0, 66, 62
1, 181425, Note_off_c, 0, 84, 64
1, 181429, Note_off_c, 0, 58, 51
1, 181452, Note_off_c, 0, 70, 60
1, 181467, Control_c, 0, 67, 12
1, 181563, Control_c, 0, 67, 11
1, 181623, Control_c, 0, 67, 11
1, 181652, Control_c, 0, 67, 10
1, 181680, Note_on_c, 0, 89, 94
1, 181682, Control_c, 0, 67, 10
1, 181691, Note_on_c, 0, 72, 64
1, 181691, Note_on_c, 0, 80, 74
1, 181691, Note_on_c, 0, 84, 61
1, 181693, Note_on_c, 0, 68, 63
1, 181695, Note_on_c, 0, 77, 72
1, 181701, Note_on_c, 0, 65, 54
1, 181726, Control_c, 0, 67, 9
1, 181743, Note_off_c, 0, 84, 47
1, 181755, Control_c, 0, 67, 9
1, 181793, Note_off_c, 0, 72, 54
1, 181816, Note_off_c, 0, 89, 55
1, 181844, Control_c, 0, 67, 9
1, 181845, Note_off_c, 0, 80, 55
1, 181858, Note_off_c, 0, 77, 30
1, 181918, Control_c, 0, 67, 9
1, 181938, Note_off_c, 0, 68, 34
1, 181951, Note_off_c, 0, 65, 33
1, 181982, Note_on_c, 0, 58, 59
1, 182081, Control_c, 0, 67, 8
1, 182111, Control_c, 0, 67, 8
1, 182141, Note_on_c, 0, 88, 94
1, 182141, Control_c, 0, 67, 0
1, 182147, Note_on_c, 0, 83, 78
1, 182155, Note_on_c, 0, 71, 71
1, 182155, Note_on_c, 0, 76, 79
1, 182156, Note_on_c, 0, 79, 72
1, 182159, Note_on_c, 0, 67, 59
1, 182176, Note_on_c, 0, 64, 58
1, 182200, Control_c, 0, 67, 8
1, 182237, Note_off_c, 0, 83, 59
1, 182244, Control_c, 0, 67, 8
1, 182253, Note_off_c, 0, 71, 62
1, 182270, Note_off_c, 0, 79, 60
1, 182271, Note_off_c, 0, 88, 62
1, 182282, Control_c, 0, 67, 9
1, 182284, Note_off_c, 0, 64, 62
1, 182286, Note_off_c, 0, 67, 62
1, 182312, Control_c, 0, 67, 10
1, 182327, Control_c, 0, 67, 10
1, 182335, Note_off_c, 0, 76, 54
1, 182341, Control_c, 0, 67, 11
1, 182356, Control_c, 0, 67, 11
1, 182371, Control_c, 0, 67, 12
1, 182549, Control_c, 0, 64, 103
1, 182549, Control_c, 0, 67, 11
1, 182564, Control_c, 0, 64, 76
1, 182579, Control_c, 0, 64, 63
1, 182579, Control_c, 0, 67, 11
1, 182581, Note_on_c, 0, 87, 87
1, 182589, Note_on_c, 0, 82, 73
1, 182591, Note_on_c, 0, 75, 75
1, 182592, Note_on_c, 0, 78, 71
1, 182593, Control_c, 0, 64, 61
1, 182593, Control_c, 0, 67, 10
1, 182595, Note_on_c, 0, 70, 63
1, 182599, Note_on_c, 0, 66, 56
1, 182601, Note_on_c, 0, 63, 53
1, 182607, Note_on_c, 0, 60, 54
1, 182608, Control_c, 0, 64, 67
1, 182608, Control_c, 0, 67, 9
1, 182623, Control_c, 0, 64, 82
1, 182623, Control_c, 0, 67, 9
1, 182638, Control_c, 0, 64, 127
1, 182652, Control_c, 0, 67, 8
1, 182669, Note_off_c, 0, 70, 61
1, 182682, Control_c, 0, 67, 8
1, 182697, Control_c, 0, 67, 0
1, 182714, Note_off_c, 0, 87, 63
1, 182717, Note_off_c, 0, 66, 60
1, 182729, Note_off_c, 0, 63, 59
1, 182745, Note_off_c, 0, 60, 63
1, 182754, Note_off_c, 0, 82, 58
1, 182763, Note_off_c, 0, 58, 60
1, 182772, Note_off_c, 0, 78, 57
1, 182780, Note_off_c, 0, 75, 32
1, 182919, Control_c, 0, 67, 8
1, 182934, Control_c, 0, 67, 8
1, 183030, Control_c, 0, 67, 9
1, 183045, Control_c, 0, 67, 9
1, 183089, Control_c, 0, 67, 9
1, 183194, Note_on_c, 0, 36, 64
1, 183194, Note_on_c, 0, 70, 60
1, 183198, Note_on_c, 0, 48, 58
1, 183208, Control_c, 0, 67, 8
1, 183212, Note_on_c, 0, 58, 53
1, 183223, Control_c, 0, 67, 8
1, 183238, Control_c, 0, 67, 0
1, 183282, Note_off_c, 0, 70, 55
1, 183397, Note_off_c, 0, 48, 35
1, 183408, Note_off_c, 0, 36, 58
1, 183730, Note_on_c, 0, 70, 52
1, 183740, Note_off_c, 0, 58, 33
1, 183829, Note_off_c, 0, 70, 59
1, 184291, Note_on_c, 0, 82, 80
1, 184303, Note_on_c, 0, 78, 61
1, 184311, Note_on_c, 0, 58, 51
1, 184311, Note_on_c, 0, 66, 55
1, 184315, Note_on_c, 0, 70, 58
1, 184315, Note_on_c, 0, 63, 47
1, 184316, Note_on_c, 0, 75, 51
1, 184475, Note_off_c, 0, 75, 48
1, 184517, Note_off_c, 0, 78, 57
1, 184532, Note_off_c, 0, 70, 41
1, 184537, Note_off_c, 0, 63, 54
1, 184548, Note_off_c, 0, 66, 54
1, 184838, Note_off_c, 0, 58, 51
1, 184888, Note_on_c, 0, 80, 79
1, 184895, Note_on_c, 0, 68, 50
1, 184896, Note_on_c, 0, 75, 65
1, 184899, Note_on_c, 0, 63, 41
1, 184899, Note_on_c, 0, 70, 67
1, 184901, Note_on_c, 0, 56, 44
1, 184910, Note_on_c, 0, 60, 47
1, 184912, Control_c, 0, 64, 98
1, 184927, Control_c, 0, 64, 75
1, 184942, Control_c, 0, 64, 64
1, 184957, Control_c, 0, 64, 59
1, 184971, Control_c, 0, 64, 60
1, 184975, Note_off_c, 0, 82, 60
1, 184986, Control_c, 0, 64, 66
1, 185001, Control_c, 0, 64, 78
1, 185016, Control_c, 0, 64, 112
1, 185031, Control_c, 0, 64, 127
1, 185125, Note_off_c, 0, 75, 0
1, 185129, Note_off_c, 0, 70, 35
1, 185162, Poly_aftertouch_c, 0, 75, 127
1, 185198, Note_off_c, 0, 60, 31
1, 185211, Note_off_c, 0, 68, 33
1, 185427, Note_off_c, 0, 63, 29
1, 185537, Note_on_c, 0, 70, 52
1, 185558, Poly_aftertouch_c, 0, 75, 0
1, 185558, Control_c, 0, 67, 8
1, 185602, Control_c, 0, 67, 8
1, 185617, Control_c, 0, 67, 9
1, 185632, Control_c, 0, 67, 10
1, 185646, Control_c, 0, 67, 11
1, 185661, Control_c, 0, 67, 11
1, 185663, Note_off_c, 0, 80, 59
1, 185691, Control_c, 0, 67, 12
1, 185720, Control_c, 0, 67, 12
1, 185735, Control_c, 0, 67, 13
1, 185738, Note_off_c, 0, 70, 60
1, 185750, Control_c, 0, 67, 13
1, 185780, Control_c, 0, 67, 14
1, 185868, Control_c, 0, 67, 14
1, 185972, Control_c, 0, 67, 15
1, 186039, Control_c, 0, 67, 14
1, 186092, Note_off_c, 0, 56, 53
1, 186098, Note_on_c, 0, 78, 76
1, 186115, Note_on_c, 0, 54, 49
1, 186130, Note_on_c, 0, 66, 48
1, 186131, Note_on_c, 0, 70, 47
1, 186132, Note_on_c, 0, 63, 36
1, 186151, Note_on_c, 0, 58, 39
1, 186176, Poly_aftertouch_c, 0, 75, 127
1, 186219, Poly_aftertouch_c, 0, 75, 0
1, 186220, Note_off_c, 0, 70, 54
1, 186315, Note_off_c, 0, 58, 25
1, 186333, Note_off_c, 0, 66, 54
1, 186389, Note_off_c, 0, 63, 29
1, 186416, Note_off_c, 0, 54, 53
1, 186589, Control_c, 0, 67, 14
1, 186649, Note_on_c, 0, 80, 82
1, 186670, Note_on_c, 0, 60, 51
1, 186670, Note_on_c, 0, 63, 60
1, 186670, Note_on_c, 0, 68, 65
1, 186671, Note_on_c, 0, 70, 47
1, 186674, Note_on_c, 0, 56, 49
1, 186675, Note_off_c, 0, 78, 58
1, 186676, Note_on_c, 0, 75, 43
1, 186695, Note_off_c, 0, 70, 60
1, 186720, Note_off_c, 0, 75, 61
1, 186737, Control_c, 0, 67, 14
1, 186752, Note_off_c, 0, 60, 62
1, 186774, Control_c, 0, 67, 15
1, 186789, Control_c, 0, 67, 16
1, 186803, Control_c, 0, 67, 17
1, 186807, Note_off_c, 0, 68, 36
1, 186813, Note_off_c, 0, 63, 60
1, 186818, Control_c, 0, 67, 18
1, 186833, Control_c, 0, 67, 19
1, 186848, Control_c, 0, 67, 19
1, 186863, Control_c, 0, 67, 20
1, 186877, Control_c, 0, 67, 21
1, 186892, Control_c, 0, 67, 22
1, 186907, Control_c, 0, 67, 22
1, 186937, Control_c, 0, 67, 23
1, 186995, Control_c, 0, 67, 22
1, 187010, Control_c, 0, 67, 22
1, 187025, Control_c, 0, 67, 21
1, 187049, Note_off_c, 0, 56, 31
1, 187056, Control_c, 0, 67, 21
1, 187071, Control_c, 0, 67, 20
1, 187086, Control_c, 0, 67, 19
1, 187100, Control_c, 0, 67, 19
1, 187145, Control_c, 0, 67, 18
1, 187174, Control_c, 0, 67, 19
1, 187219, Control_c, 0, 64, 105
1, 187219, Note_on_c, 0, 85, 84
1, 187231, Note_on_c, 0, 82, 64
1, 187233, Control_c, 0, 64, 83
1, 187237, Note_on_c, 0, 73, 65
1, 187245, Note_on_c, 0, 70, 55
1, 187245, Note_on_c, 0, 78, 48
1, 187246, Note_on_c, 0, 61, 59
1, 187248, Control_c, 0, 64, 73
1, 187249, Note_on_c, 0, 66, 53
1, 187262, Note_off_c, 0, 80, 56
1, 187263, Control_c, 0, 64, 69
1, 187278, Control_c, 0, 64, 72
1, 187283, Note_off_c, 0, 78, 57
1, 187293, Control_c, 0, 64, 81
1, 187307, Control_c, 0, 64, 100
1, 187322, Control_c, 0, 64, 127
1, 187396, Note_off_c, 0, 85, 62
1, 187406, Note_off_c, 0, 82, 53
1, 187441, Control_c, 0, 67, 19
1, 187456, Control_c, 0, 67, 20
1, 187462, Note_off_c, 0, 70, 34
1, 187468, Note_off_c, 0, 73, 55
1, 187471, Control_c, 0, 67, 20
1, 187597, Control_c, 0, 67, 21
1, 187599, Note_off_c, 0, 66, 28
1, 187626, Control_c, 0, 67, 20
1, 187774, Control_c, 0, 67, 20
1, 187807, Note_on_c, 0, 82, 84
1, 187818, Control_c, 0, 67, 20
1, 187823, Note_off_c, 0, 61, 32
1, 187826, Note_on_c, 0, 63, 45
1, 187835, Note_on_c, 0, 70, 57
1, 187838, Note_on_c, 0, 58, 48
1, 187848, Note_on_c, 0, 66, 31
1, 187850, Note_on_c, 0, 75, 35
1, 187881, Note_off_c, 0, 75, 55
1, 187904, Note_off_c, 0, 63, 60
1, 187937, Note_off_c, 0, 82, 59
1, 187953, Control_c, 0, 67, 21
1, 187966, Note_off_c, 0, 66, 36
1, 187975, Note_off_c, 0, 70, 61
1, 188130, Control_c, 0, 67, 20
1, 188205, Control_c, 0, 67, 20
1, 188218, Note_off_c, 0, 58, 25
1, 188235, Control_c, 0, 67, 19
1, 188264, Control_c, 0, 67, 19
1, 188375, Control_c, 0, 67, 18
1, 188464, Note_on_c, 0, 77, 72
1, 188484, Note_on_c, 0, 72, 55
1, 188486, Note_on_c, 0, 68, 53
1, 188491, Note_on_c, 0, 65, 44
1, 188500, Note_on_c, 0, 70, 42
1, 188506, Note_on_c, 0, 53, 41
1, 188508, Note_on_c, 0, 60, 40
1, 188509, Control_c, 0, 64, 97
1, 188512, Note_on_c, 0, 56, 40
1, 188522, Note_on_c, 0, 58, 38
1, 188524, Control_c, 0, 64, 77
1, 188539, Control_c, 0, 64, 64
1, 188553, Control_c, 0, 64, 55
1, 188568, Control_c, 0, 64, 53
1, 188583, Control_c, 0, 64, 56
1, 188583, Control_c, 0, 67, 18
1, 188598, Control_c, 0, 64, 64
1, 188613, Control_c, 0, 64, 74
1, 188628, Control_c, 0, 64, 95
1, 188630, Note_off_c, 0, 70, 24
1, 188643, Control_c, 0, 64, 127
1, 188673, Control_c, 0, 67, 17
1, 188703, Control_c, 0, 67, 17
1, 188762, Control_c, 0, 67, 17
1, 188777, Control_c, 0, 67, 18
1, 188792, Control_c, 0, 67, 18
1, 188807, Control_c, 0, 67, 19
1, 188821, Control_c, 0, 67, 20
1, 188836, Control_c, 0, 67, 21
1, 188851, Control_c, 0, 67, 22
1, 188865, Control_c, 0, 67, 23
1, 188880, Control_c, 0, 67, 25
1, 188895, Control_c, 0, 67, 26
1, 188910, Control_c, 0, 67, 27
1, 188925, Control_c, 0, 67, 27
1, 188939, Control_c, 0, 67, 28
1, 188959, Note_off_c, 0, 60, 39
1, 188968, Control_c, 0, 67, 28
1, 188983, Control_c, 0, 67, 29
1, 188998, Control_c, 0, 67, 30
1, 189020, Control_c, 0, 67, 32
1, 189035, Control_c, 0, 67, 33
1, 189050, Control_c, 0, 67, 33
1, 189051, Note_off_c, 0, 53, 34
1, 189065, Control_c, 0, 67, 34
1, 189079, Control_c, 0, 67, 35
1, 189093, Note_off_c, 0, 58, 26
1, 189094, Control_c, 0, 67, 36
1, 189109, Control_c, 0, 67, 38
1, 189124, Control_c, 0, 67, 40
1, 189139, Control_c, 0, 67, 42
1, 189147, Note_on_c, 0, 70, 50
1, 189153, Control_c, 0, 67, 45
1, 189168, Control_c, 0, 67, 47
1, 189181, Note_off_c, 0, 77, 42
1, 189183, Control_c, 0, 67, 49
1, 189191, Note_off_c, 0, 68, 40
1, 189197, Control_c, 0, 67, 51
1, 189206, Note_off_c, 0, 65, 37
1, 189212, Control_c, 0, 67, 52
1, 189227, Control_c, 0, 67, 54
1, 189242, Control_c, 0, 67, 55
1, 189257, Control_c, 0, 67, 56
1, 189272, Control_c, 0, 67, 56
1, 189302, Note_off_c, 0, 56, 34
1, 189376, Control_c, 0, 67, 57
1, 189481, Control_c, 0, 67, 57
1, 189495, Control_c, 0, 67, 58
1, 189510, Control_c, 0, 67, 59
1, 189525, Control_c, 0, 67, 59
1, 189540, Control_c, 0, 67, 60
1, 189569, Control_c, 0, 67, 60
1, 189584, Control_c, 0, 67, 61
1, 189599, Control_c, 0, 67, 61
1, 189613, Control_c, 0, 67, 62
1, 189628, Control_c, 0, 67, 62
1, 189643, Control_c, 0, 67, 63
1, 189673, Control_c, 0, 67, 63
1, 189687, Control_c, 0, 67, 64
1, 189702, Control_c, 0, 67, 64
1, 189717, Control_c, 0, 67, 65
1, 189726, Note_on_c, 0, 75, 60
1, 189740, Note_on_c, 0, 51, 37
1, 189747, Control_c, 0, 67, 65
1, 189749, Note_on_c, 0, 63, 46
1, 189752, Note_on_c, 0, 66, 36
1, 189760, Note_on_c, 0, 54, 40
1, 189760, Note_on_c, 0, 58, 40
1, 189769, Control_c, 0, 67, 66
1, 189784, Control_c, 0, 67, 67
1, 189795, Note_off_c, 0, 66, 54
1, 189799, Control_c, 0, 67, 67
1, 189814, Note_off_c, 0, 72, 60
1, 189823, Note_off_c, 0, 70, 56
1, 189828, Control_c, 0, 67, 68
1, 189843, Control_c, 0, 67, 68
1, 189858, Control_c, 0, 67, 69
1, 189873, Control_c, 0, 67, 69
1, 189888, Control_c, 0, 67, 70
1, 189895, Note_off_c, 0, 63, 54
1, 189902, Control_c, 0, 67, 70
1, 189903, Note_off_c, 0, 54, 49
1, 189917, Control_c, 0, 67, 71
1, 189932, Control_c, 0, 67, 71
1, 189936, Note_off_c, 0, 51, 53
1, 189946, Control_c, 0, 67, 72
1, 189961, Control_c, 0, 67, 73
1, 189964, Note_off_c, 0, 58, 62
1, 189976, Control_c, 0, 67, 73
1, 189991, Control_c, 0, 67, 74
1, 190006, Control_c, 0, 67, 75
1, 190020, Control_c, 0, 67, 76
1, 190035, Control_c, 0, 67, 77
1, 190050, Control_c, 0, 67, 78
1, 190065, Control_c, 0, 67, 79
1, 190080, Control_c, 0, 67, 79
1, 190095, Control_c, 0, 67, 80
1, 190184, Control_c, 0, 67, 79
1, 190303, Control_c, 0, 64, 107
1, 190307, Note_on_c, 0, 77, 72
1, 190318, Control_c, 0, 64, 83
1, 190318, Control_c, 0, 67, 79
1, 190321, Note_on_c, 0, 68, 46
1, 190331, Note_on_c, 0, 53, 42
1, 190333, Control_c, 0, 64, 70
1, 190333, Control_c, 0, 67, 78
1, 190337, Note_on_c, 0, 60, 44
1, 190340, Note_on_c, 0, 56, 39
1, 190343, Note_on_c, 0, 65, 42
1, 190348, Control_c, 0, 64, 67
1, 190348, Control_c, 0, 67, 78
1, 190351, Note_on_c, 0, 58, 37
1, 190360, Note_off_c, 0, 75, 35
1, 190362, Control_c, 0, 64, 72
1, 190362, Control_c, 0, 67, 77
1, 190375, Note_off_c, 0, 68, 44
1, 190377, Control_c, 0, 64, 81
1, 190377, Control_c, 0, 67, 76
1, 190392, Control_c, 0, 64, 100
1, 190392, Control_c, 0, 67, 75
1, 190407, Control_c, 0, 64, 127
1, 190407, Control_c, 0, 67, 75
1, 190436, Control_c, 0, 67, 74
1, 190443, Note_off_c, 0, 65, 59
1, 190497, Note_off_c, 0, 56, 55
1, 190518, Control_c, 0, 67, 75
1, 190524, Note_off_c, 0, 58, 43
1, 190533, Control_c, 0, 67, 75
1, 190534, Note_off_c, 0, 60, 56
1, 190548, Control_c, 0, 67, 76
1, 190563, Control_c, 0, 67, 76
1, 190577, Control_c, 0, 67, 77
1, 190637, Control_c, 0, 67, 77
1, 190666, Control_c, 0, 67, 78
1, 190725, Control_c, 0, 67, 77
1, 190740, Control_c, 0, 67, 77
1, 190769, Control_c, 0, 67, 76
1, 190784, Control_c, 0, 67, 75
1, 190799, Control_c, 0, 67, 74
1, 190814, Control_c, 0, 67, 73
1, 190829, Control_c, 0, 67, 73
1, 190888, Control_c, 0, 67, 73
1, 190903, Control_c, 0, 64, 78
1, 190903, Control_c, 0, 67, 74
1, 190917, Control_c, 0, 64, 56
1, 190917, Control_c, 0, 67, 74
1, 190923, Note_on_c, 0, 80, 59
1, 190932, Control_c, 0, 64, 0
1, 190932, Control_c, 0, 67, 75
1, 190947, Control_c, 0, 67, 75
1, 190953, Note_off_c, 0, 77, 48
1, 190958, Note_on_c, 0, 75, 36
1, 190959, Note_on_c, 0, 68, 43
1, 190962, Control_c, 0, 67, 76
1, 190962, Note_on_c, 0, 70, 38
1, 190965, Note_on_c, 0, 60, 38
1, 190968, Note_off_c, 0, 53, 35
1, 190972, Note_on_c, 0, 63, 29
1, 190974, Note_on_c, 0, 56, 32
1, 190977, Note_on_c, 0, 58, 26
1, 190977, Control_c, 0, 64, 27
1, 190981, Note_on_c, 0, 72, 16
1, 190992, Control_c, 0, 64, 49
1, 191007, Control_c, 0, 64, 62
1, 191022, Control_c, 0, 64, 69
1, 191037, Control_c, 0, 64, 81
1, 191052, Control_c, 0, 64, 104
1, 191066, Control_c, 0, 64, 127
1, 191066, Control_c, 0, 67, 75
1, 191072, Note_off_c, 0, 63, 60
1, 191085, Note_off_c, 0, 60, 59
1, 191096, Control_c, 0, 67, 75
1, 191108, Note_off_c, 0, 58, 49
1, 191126, Note_off_c, 0, 56, 59
1, 191185, Control_c, 0, 67, 74
1, 191264, Note_off_c, 0, 70, 40
1, 191282, Control_c, 0, 67, 75
1, 191291, Note_off_c, 0, 80, 33
1, 191327, Control_c, 0, 67, 75
1, 191348, Note_off_c, 0, 72, 33
1, 191349, Note_off_c, 0, 68, 48
1, 191356, Control_c, 0, 67, 76
1, 191364, Note_off_c, 0, 75, 41
1, 191371, Control_c, 0, 67, 76
1, 191386, Control_c, 0, 67, 77
1, 191415, Control_c, 0, 67, 77
1, 191490, Control_c, 0, 67, 78
1, 191534, Control_c, 0, 67, 78
1, 191540, Note_on_c, 0, 36, 43
1, 191549, Note_on_c, 0, 48, 40
1, 191564, Control_c, 0, 67, 79
1, 191593, Control_c, 0, 67, 79
1, 191623, Control_c, 0, 67, 80
1, 191624, Note_off_c, 0, 36, 58
1, 191638, Control_c, 0, 67, 80
1, 191964, Control_c, 0, 67, 81
1, 192009, Control_c, 0, 67, 81
1, 192131, Note_on_c, 0, 70, 43
1, 192135, Control_c, 0, 67, 82
1, 192153, Note_on_c, 0, 58, 41
1, 192164, Control_c, 0, 67, 83
1, 192179, Control_c, 0, 67, 84
1, 192185, Note_off_c, 0, 58, 62
1, 192194, Control_c, 0, 67, 85
1, 192209, Control_c, 0, 67, 85
1, 192223, Control_c, 0, 67, 86
1, 192238, Control_c, 0, 67, 87
1, 192253, Control_c, 0, 67, 89
1, 192255, Note_off_c, 0, 70, 58
1, 192268, Control_c, 0, 67, 90
1, 192283, Control_c, 0, 67, 91
1, 192297, Control_c, 0, 67, 93
1, 192312, Control_c, 0, 67, 94
1, 192327, Control_c, 0, 67, 96
1, 192342, Control_c, 0, 67, 97
1, 192357, Control_c, 0, 67, 98
1, 192372, Control_c, 0, 67, 100
1, 192386, Note_off_c, 0, 48, 36
1, 192387, Control_c, 0, 67, 101
1, 192402, Control_c, 0, 67, 102
1, 192416, Control_c, 0, 67, 103
1, 192431, Control_c, 0, 67, 104
1, 192446, Control_c, 0, 67, 104
1, 192461, Control_c, 0, 67, 105
1, 192476, Control_c, 0, 67, 105
1, 192490, Control_c, 0, 67, 106
1, 192505, Control_c, 0, 67, 106
1, 192520, Control_c, 0, 67, 107
1, 192549, Control_c, 0, 67, 107
1, 192639, Control_c, 0, 67, 108
1, 192654, Control_c, 0, 67, 108
1, 192669, Control_c, 0, 67, 109
1, 192684, Control_c, 0, 67, 111
1, 192699, Control_c, 0, 67, 113
1, 192713, Control_c, 0, 67, 114
1, 192728, Control_c, 0, 67, 116
1, 192739, Note_on_c, 0, 78, 55
1, 192743, Control_c, 0, 67, 118
1, 192765, Control_c, 0, 67, 119
1, 192774, Note_on_c, 0, 63, 39
1, 192780, Note_on_c, 0, 75, 36
1, 192780, Control_c, 0, 67, 121
1, 192787, Note_on_c, 0, 66, 35
1, 192794, Note_on_c, 0, 58, 35
1, 192795, Control_c, 0, 67, 122
1, 192796, Note_on_c, 0, 54, 34
1, 192810, Control_c, 0, 67, 124
1, 192825, Control_c, 0, 67, 125
1, 192831, Poly_aftertouch_c, 0, 70, 127
1, 192839, Control_c, 0, 67, 126
1, 192854, Control_c, 0, 67, 127
1, 192869, Control_c, 0, 67, 127
1, 192877, Poly_aftertouch_c, 0, 70, 0
1, 192890, Note_off_c, 0, 78, 59
1, 192903, Note_off_c, 0, 75, 58
1, 192945, Note_off_c, 0, 63, 56
1, 192952, Note_off_c, 0, 66, 57
1, 192966, Note_off_c, 0, 54, 34
1, 192990, Note_off_c, 0, 58, 39
1, 193376, Note_on_c, 0, 75, 40
1, 193406, Note_on_c, 0, 66, 20
1, 193411, Note_on_c, 0, 63, 32
1, 193418, Note_on_c, 0, 70, 27
1, 193433, Control_c, 0, 64, 89
1, 193436, Note_on_c, 0, 58, 58
1, 193445, Note_on_c, 0, 54, 43
1, 193447, Control_c, 0, 64, 74
1, 193455, Note_on_c, 0, 51, 41
1, 193461, Control_c, 0, 64, 63
1, 193476, Control_c, 0, 64, 56
1, 193491, Control_c, 0, 64, 58
1, 193514, Control_c, 0, 64, 63
1, 193529, Control_c, 0, 64, 70
1, 193543, Control_c, 0, 64, 80
1, 193558, Control_c, 0, 64, 97
1, 193573, Control_c, 0, 64, 127
1, 193577, Note_off_c, 0, 51, 0
1, 193614, Poly_aftertouch_c, 0, 51, 127
1, 193666, Note_off_c, 0, 58, 56
1, 193825, Note_off_c, 0, 75, 40
1, 193919, Note_off_c, 0, 66, 24
1, 193980, Note_off_c, 0, 70, 39
1, 194059, Note_on_c, 0, 58, 32
1, 194081, Note_off_c, 0, 63, 38
1, 194133, Note_off_c, 0, 54, 41
1, 194145, Poly_aftertouch_c, 0, 51, 0
1, 194661, Control_c, 0, 64, 118
1, 194672, Note_on_c, 0, 70, 45
1, 194676, Control_c, 0, 64, 85
1, 194687, Note_on_c, 0, 46, 31
1, 194691, Note_on_c, 0, 66, 29
1, 194691, Control_c, 0, 64, 71
1, 194694, Note_on_c, 0, 54, 32
1, 194699, Note_on_c, 0, 63, 22
1, 194705, Note_on_c, 0, 51, 29
1, 194706, Control_c, 0, 64, 64
1, 194721, Control_c, 0, 64, 67
1, 194736, Control_c, 0, 64, 74
1, 194751, Control_c, 0, 64, 89
1, 194766, Control_c, 0, 64, 127
1, 194767, Note_off_c, 0, 66, 0
1, 194772, Note_off_c, 0, 63, 0
1, 194796, Note_off_c, 0, 58, 31
1, 194804, Poly_aftertouch_c, 0, 66, 127
1, 194809, Poly_aftertouch_c, 0, 63, 127
1, 195054, Note_off_c, 0, 54, 34
1, 195056, Note_off_c, 0, 51, 37
1, 195121, Note_off_c, 0, 46, 49
1, 195367, Note_on_c, 0, 58, 28
1, 195404, Poly_aftertouch_c, 0, 63, 0
1, 195459, Poly_aftertouch_c, 0, 66, 0
1, 195485, Note_off_c, 0, 70, 40
1, 196188, Note_off_c, 0, 58, 36
1, 196196, Note_on_c, 0, 73, 44
1, 196202, Note_on_c, 0, 70, 36
1, 196238, Note_on_c, 0, 22, 74
1, 196256, Note_on_c, 0, 34, 40
1, 196286, Note_off_c, 0, 22, 64
1, 196294, Note_off_c, 0, 34, 39
1, 196298, Note_off_c, 0, 70, 52
1, 196316, Poly_aftertouch_c, 0, 64, 0
1, 196325, Note_off_c, 0, 73, 61
1, 196976, Note_on_c, 0, 102, 38
1, 196983, Note_on_c, 0, 46, 38
1, 197002, Note_on_c, 0, 61, 37
1, 197009, Note_on_c, 0, 94, 26
1, 197013, Note_on_c, 0, 97, 28
1, 197015, Note_on_c, 0, 52, 34
1, 197045, Note_off_c, 0, 94, 50
1, 197046, Note_off_c, 0, 102, 54
1, 197051, Note_off_c, 0, 97, 47
1, 197088, Note_off_c, 0, 46, 60
1, 197202, Note_off_c, 0, 61, 35
1, 197394, Note_off_c, 0, 52, 25
1, 197533, Note_on_c, 0, 97, 47
1, 197547, Note_on_c, 0, 49, 40
1, 197548, Note_on_c, 0, 54, 46
1, 197552, Note_on_c, 0, 63, 37
1, 197559, Note_on_c, 0, 82, 37
1, 197569, Note_on_c, 0, 88, 33
1, 197571, Note_on_c, 0, 92, 31
1, 197615, Note_off_c, 0, 88, 45
1, 197622, Note_off_c, 0, 97, 53
1, 197630, Note_off_c, 0, 92, 50
1, 197633, Note_off_c, 0, 82, 0
1, 197633, Note_on_c, 0, 82, 7
1, 197643, Note_off_c, 0, 49, 53
1, 197711, Note_off_c, 0, 63, 58
1, 197759, Note_off_c, 0, 82, 48
1, 198063, Note_on_c, 0, 94, 45
1, 198069, Note_on_c, 0, 58, 59
1, 198082, Note_on_c, 0, 85, 37
1, 198083, Note_on_c, 0, 49, 37
1, 198087, Note_on_c, 0, 64, 47
1, 198101, Note_on_c, 0, 80, 31
1, 198110, Note_on_c, 0, 90, 22
1, 198157, Note_off_c, 0, 90, 47
1, 198166, Note_off_c, 0, 94, 41
1, 198174, Note_off_c, 0, 64, 60
1, 198181, Note_off_c, 0, 85, 34
1, 198185, Note_off_c, 0, 49, 35
1, 198231, Note_off_c, 0, 80, 50
1, 198338, Note_off_c, 0, 58, 53
1, 198340, Note_off_c, 0, 54, 0
1, 198377, Poly_aftertouch_c, 0, 54, 127
1, 198588, Note_on_c, 0, 92, 52
1, 198603, Note_on_c, 0, 58, 41
1, 198609, Note_on_c, 0, 66, 51
1, 198618, Note_on_c, 0, 82, 46
1, 198619, Note_on_c, 0, 78, 43
1, 198621, Note_on_c, 0, 88, 43
1, 198684, Note_off_c, 0, 92, 53
1, 198694, Poly_aftertouch_c, 0, 54, 0
1, 198729, Note_off_c, 0, 66, 34
1, 198736, Note_off_c, 0, 78, 48
1, 198811, Note_off_c, 0, 88, 32
1, 198831, Note_off_c, 0, 58, 29
1, 198845, Note_off_c, 0, 82, 27
1, 198859, Note_on_c, 0, 52, 9
1, 198903, Note_off_c, 0, 52, 29
1, 198987, Note_on_c, 0, 58, 36
1, 199141, Note_on_c, 0, 90, 53
1, 199153, Note_on_c, 0, 68, 47
1, 199177, Note_on_c, 0, 82, 36
1, 199195, Note_off_c, 0, 58, 59
1, 199215, Note_off_c, 0, 68, 58
1, 199234, Note_off_c, 0, 90, 60
1, 199440, Note_off_c, 0, 82, 0
1, 199476, Poly_aftertouch_c, 0, 82, 127
1, 199660, Note_on_c, 0, 87, 54
1, 199663, Note_on_c, 0, 78, 42
1, 199677, Note_on_c, 0, 56, 39
1, 199678, Note_on_c, 0, 70, 43
1, 199689, Note_on_c, 0, 73, 42
1, 199696, Note_on_c, 0, 61, 35
1, 199741, Note_off_c, 0, 87, 53
1, 199751, Note_off_c, 0, 56, 48
1, 199780, Note_off_c, 0, 70, 54
1, 199830, Poly_aftertouch_c, 0, 82, 0
1, 199845, Note_off_c, 0, 78, 55
1, 199847, Note_off_c, 0, 61, 46
1, 199853, Note_off_c, 0, 73, 22
1, 200192, Note_on_c, 0, 85, 54
1, 200212, Note_on_c, 0, 68, 39
1, 200222, Note_on_c, 0, 76, 36
1, 200224, Note_on_c, 0, 61, 41
1, 200224, Note_on_c, 0, 70, 43
1, 200235, Note_on_c, 0, 58, 36
1, 200258, Note_on_c, 0, 80, 23
1, 200286, Note_off_c, 0, 85, 60
1, 200304, Note_off_c, 0, 80, 48
1, 200340, Note_off_c, 0, 68, 54
1, 200358, Note_off_c, 0, 76, 32
1, 200391, Note_off_c, 0, 70, 58
1, 200410, Note_off_c, 0, 58, 58
1, 200561, Note_off_c, 0, 61, 37
1, 200748, Note_on_c, 0, 82, 57
1, 200758, Note_on_c, 0, 61, 45
1, 200769, Note_on_c, 0, 73, 40
1, 200771, Note_on_c, 0, 68, 36
1, 200775, Note_on_c, 0, 66, 38
1, 200787, Note_on_c, 0, 78, 33
1, 200838, Note_off_c, 0, 82, 56
1, 200840, Note_off_c, 0, 78, 50
1, 200894, Note_off_c, 0, 73, 33
1, 200915, Note_off_c, 0, 68, 60
1, 200933, Note_off_c, 0, 66, 50
1, 201164, Note_off_c, 0, 61, 0
1, 201201, Poly_aftertouch_c, 0, 61, 127
1, 201258, Note_on_c, 0, 80, 51
1, 201275, Note_on_c, 0, 70, 44
1, 201278, Note_on_c, 0, 64, 43
1, 201281, Note_on_c, 0, 58, 44
1, 201281, Note_on_c, 0, 76, 50
1, 201287, Poly_aftertouch_c, 0, 61, 0
1, 201288, Note_on_c, 0, 66, 40
1, 201349, Note_off_c, 0, 80, 58
1, 201386, Note_off_c, 0, 66, 59
1, 201398, Note_off_c, 0, 64, 57
1, 201443, Note_off_c, 0, 70, 40
1, 201464, Note_off_c, 0, 76, 29
1, 201771, Note_off_c, 0, 58, 18
1, 201824, Note_on_c, 0, 78, 58
1, 201837, Note_on_c, 0, 61, 45
1, 201839, Note_on_c, 0, 70, 51
1, 201845, Note_on_c, 0, 56, 40
1, 201919, Note_off_c, 0, 78, 59
1, 202038, Note_off_c, 0, 61, 34
1, 202060, Control_c, 0, 67, 125
1, 202069, Note_off_c, 0, 70, 0
1, 202069, Note_on_c, 0, 70, 4
1, 202075, Control_c, 0, 67, 123
1, 202090, Control_c, 0, 67, 121
1, 202105, Control_c, 0, 67, 118
1, 202120, Control_c, 0, 67, 116
1, 202132, Note_off_c, 0, 56, 0
1, 202134, Control_c, 0, 67, 114
1, 202149, Control_c, 0, 67, 112
1, 202164, Control_c, 0, 67, 110
1, 202179, Control_c, 0, 67, 107
1, 202187, Poly_aftertouch_c, 0, 56, 0
1, 202194, Control_c, 0, 67, 105
1, 202209, Control_c, 0, 67, 103
1, 202224, Control_c, 0, 67, 102
1, 202239, Control_c, 0, 67, 101
1, 202254, Control_c, 0, 67, 100
1, 202269, Control_c, 0, 67, 99
1, 202284, Control_c, 0, 67, 98
1, 202298, Control_c, 0, 67, 98
1, 202313, Control_c, 0, 67, 97
1, 202328, Control_c, 0, 67, 96
1, 202343, Control_c, 0, 67, 95
1, 202358, Control_c, 0, 67, 94
1, 202373, Control_c, 0, 67, 93
1, 202379, Note_on_c, 0, 75, 52
1, 202388, Control_c, 0, 67, 92
1, 202389, Note_on_c, 0, 66, 45
1, 202397, Note_on_c, 0, 58, 47
1, 202397, Note_on_c, 0, 61, 42
1, 202400, Note_on_c, 0, 52, 47
1, 202402, Control_c, 0, 67, 91
1, 202417, Control_c, 0, 67, 90
1, 202432, Control_c, 0, 67, 89
1, 202447, Control_c, 0, 67, 88
1, 202451, Note_off_c, 0, 58, 57
1, 202462, Control_c, 0, 67, 87
1, 202462, Note_off_c, 0, 52, 56
1, 202472, Note_off_c, 0, 75, 57
1, 202476, Control_c, 0, 67, 85
1, 202498, Control_c, 0, 67, 84
1, 202513, Note_off_c, 0, 70, 40
1, 202528, Control_c, 0, 67, 84
1, 202569, Note_off_c, 0, 61, 35
1, 202632, Control_c, 0, 67, 83
1, 202662, Control_c, 0, 67, 83
1, 202676, Control_c, 0, 67, 82
1, 202691, Control_c, 0, 67, 79
1, 202706, Control_c, 0, 67, 76
1, 202720, Control_c, 0, 67, 74
1, 202735, Control_c, 0, 67, 71
1, 202750, Control_c, 0, 67, 69
1, 202765, Control_c, 0, 67, 67
1, 202780, Control_c, 0, 67, 66
1, 202794, Control_c, 0, 67, 64
1, 202809, Control_c, 0, 67, 64
1, 202868, Control_c, 0, 67, 63
1, 203002, Note_on_c, 0, 73, 54
1, 203023, Note_on_c, 0, 58, 43
1, 203026, Note_on_c, 0, 70, 48
1, 203032, Control_c, 0, 64, 89
1, 203035, Note_on_c, 0, 61, 38
1, 203036, Note_on_c, 0, 22, 72
1, 203040, Note_on_c, 0, 34, 69
1, 203047, Control_c, 0, 64, 74
1, 203062, Control_c, 0, 64, 72
1, 203077, Control_c, 0, 64, 77
1, 203085, Note_off_c, 0, 61, 0
1, 203092, Control_c, 0, 64, 91
1, 203106, Control_c, 0, 64, 127
1, 203122, Poly_aftertouch_c, 0, 61, 127
1, 203125, Note_off_c, 0, 22, 62
1, 203136, Control_c, 0, 67, 63
1, 203151, Control_c, 0, 67, 62
1, 203158, Note_off_c, 0, 34, 61
1, 203166, Control_c, 0, 67, 61
1, 203181, Control_c, 0, 67, 59
1, 203196, Control_c, 0, 67, 57
1, 203211, Control_c, 0, 67, 54
1, 203225, Control_c, 0, 67, 51
1, 203247, Control_c, 0, 67, 48
1, 203249, Note_off_c, 0, 58, 51
1, 203262, Control_c, 0, 67, 44
1, 203277, Control_c, 0, 67, 40
1, 203292, Control_c, 0, 67, 36
1, 203306, Control_c, 0, 67, 33
1, 203309, Poly_aftertouch_c, 0, 61, 0
1, 203321, Control_c, 0, 67, 30
1, 203336, Control_c, 0, 67, 28
1, 203351, Control_c, 0, 67, 25
1, 203366, Control_c, 0, 67, 22
1, 203380, Control_c, 0, 67, 19
1, 203395, Control_c, 0, 67, 16
1, 203410, Control_c, 0, 67, 15
1, 203425, Control_c, 0, 67, 14
1, 203440, Control_c, 0, 67, 13
1, 203455, Control_c, 0, 67, 12
1, 203470, Control_c, 0, 67, 11
1, 203485, Control_c, 0, 67, 11
1, 203499, Control_c, 0, 67, 10
1, 203500, Note_off_c, 0, 70, 38
1, 203514, Control_c, 0, 67, 10
1, 203543, Control_c, 0, 67, 9
1, 203558, Control_c, 0, 67, 9
1, 203573, Control_c, 0, 67, 8
1, 203603, Control_c, 0, 67, 8
1, 203634, Note_on_c, 0, 64, 71
1, 203636, Note_on_c, 0, 52, 70
1, 203670, Note_off_c, 0, 66, 14
1, 203750, Control_c, 0, 67, 8
1, 203855, Control_c, 0, 67, 9
1, 203900, Control_c, 0, 67, 9
1, 204054, Control_c, 0, 67, 10
1, 204099, Control_c, 0, 67, 10
1, 204114, Control_c, 0, 67, 11
1, 204129, Control_c, 0, 67, 11
1, 204144, Control_c, 0, 67, 12
1, 204158, Control_c, 0, 67, 12
1, 204188, Control_c, 0, 67, 13
1, 204193, Note_on_c, 0, 70, 48
1, 204203, Note_on_c, 0, 58, 53
1, 204203, Control_c, 0, 67, 14
1, 204218, Control_c, 0, 67, 14
1, 204233, Control_c, 0, 67, 15
1, 204242, Note_off_c, 0, 64, 61
1, 204247, Control_c, 0, 67, 16
1, 204253, Note_off_c, 0, 58, 52
1, 204262, Control_c, 0, 67, 17
1, 204277, Control_c, 0, 67, 17
1, 204291, Control_c, 0, 67, 18
1, 204305, Note_off_c, 0, 70, 50
1, 204306, Control_c, 0, 67, 18
1, 204336, Control_c, 0, 67, 19
1, 204351, Control_c, 0, 67, 19
1, 204380, Control_c, 0, 67, 20
1, 204386, Note_off_c, 0, 52, 51
1, 204425, Control_c, 0, 67, 20
1, 204484, Control_c, 0, 67, 21
1, 204588, Control_c, 0, 67, 21
1, 204618, Control_c, 0, 67, 22
1, 204708, Control_c, 0, 67, 22
1, 204760, Control_c, 0, 67, 23
1, 204761, Note_on_c, 0, 70, 39
1, 204770, Note_on_c, 0, 58, 36
1, 204790, Control_c, 0, 67, 23
1, 204819, Control_c, 0, 67, 24
1, 204834, Control_c, 0, 67, 24
1, 204849, Control_c, 0, 67, 25
1, 204878, Control_c, 0, 67, 25
1, 204893, Control_c, 0, 67, 26
1, 204922, Control_c, 0, 67, 26
1, 204937, Control_c, 0, 67, 27
1, 204952, Control_c, 0, 67, 27
1, 204967, Control_c, 0, 67, 28
1, 204982, Control_c, 0, 67, 28
1, 205011, Control_c, 0, 67, 29
1, 205100, Control_c, 0, 67, 29
1, 205103, Note_off_c, 0, 58, 29
1, 205249, Control_c, 0, 67, 30
1, 205263, Note_on_c, 0, 34, 64
1, 205263, Control_c, 0, 67, 30
1, 205278, Control_c, 0, 67, 31
1, 205293, Control_c, 0, 67, 32
1, 205300, Note_off_c, 0, 73, 0
1, 205331, Note_off_c, 0, 70, 35
1, 205344, Poly_aftertouch_c, 0, 73, 0
1, 205382, Control_c, 0, 67, 31
1, 205468, Note_off_c, 0, 34, 48
1, 205472, Control_c, 0, 67, 32
1, 205509, Control_c, 0, 67, 32
1, 205524, Control_c, 0, 67, 33
1, 205539, Control_c, 0, 67, 34
1, 205553, Control_c, 0, 67, 35
1, 205568, Control_c, 0, 67, 37
1, 205583, Control_c, 0, 67, 39
1, 205598, Control_c, 0, 67, 42
1, 205613, Control_c, 0, 67, 44
1, 205627, Control_c, 0, 67, 46
1, 205642, Control_c, 0, 67, 47
1, 205657, Control_c, 0, 67, 49
1, 205671, Control_c, 0, 67, 51
1, 205686, Control_c, 0, 67, 54
1, 205701, Control_c, 0, 67, 56
1, 205716, Control_c, 0, 67, 59
1, 205731, Control_c, 0, 67, 60
1, 205745, Control_c, 0, 67, 62
1, 205760, Control_c, 0, 67, 64
1, 205775, Control_c, 0, 67, 67
1, 205790, Control_c, 0, 67, 69
1, 205805, Control_c, 0, 67, 71
1, 205819, Control_c, 0, 67, 72
1, 205834, Control_c, 0, 67, 74
1, 205845, Note_on_c, 0, 73, 36
1, 205849, Note_on_c, 0, 70, 47
1, 205849, Control_c, 0, 67, 75
1, 205856, Note_on_c, 0, 58, 42
1, 205864, Control_c, 0, 67, 77
1, 205878, Control_c, 0, 67, 78
1, 205893, Control_c, 0, 67, 79
1, 205908, Control_c, 0, 67, 79
1, 205920, Note_off_c, 0, 58, 0
1, 205923, Control_c, 0, 67, 80
1, 205938, Control_c, 0, 67, 81
1, 205955, Note_on_c, 0, 46, 37
1, 205957, Poly_aftertouch_c, 0, 58, 127
1, 205968, Control_c, 0, 67, 81
1, 206039, Poly_aftertouch_c, 0, 58, 0
1, 206087, Note_on_c, 0, 66, 72
1, 206093, Note_on_c, 0, 54, 63
1, 206131, Control_c, 0, 67, 81
1, 206224, Note_off_c, 0, 66, 63
1, 206352, Note_on_c, 0, 64, 76
1, 206361, Control_c, 0, 67, 81
1, 206367, Note_on_c, 0, 52, 69
1, 206391, Control_c, 0, 64, 106
1, 206391, Control_c, 0, 67, 82
1, 206406, Control_c, 0, 64, 88
1, 206421, Control_c, 0, 64, 86
1, 206436, Control_c, 0, 64, 86
1, 206450, Control_c, 0, 64, 94
1, 206451, Note_off_c, 0, 70, 35
1, 206465, Control_c, 0, 64, 127
1, 206486, Note_off_c, 0, 54, 36
1, 206539, Control_c, 0, 67, 81
1, 206797, Note_off_c, 0, 46, 38
1, 206850, Control_c, 0, 67, 82
1, 206901, Note_on_c, 0, 70, 56
1, 206922, Note_on_c, 0, 58, 46
1, 206939, Control_c, 0, 67, 81
1, 206961, Note_off_c, 0, 58, 48
1, 206975, Note_off_c, 0, 64, 34
1, 206983, Control_c, 0, 67, 81
1, 207005, Control_c, 0, 67, 80
1, 207032, Note_off_c, 0, 73, 32
1, 207036, Control_c, 0, 67, 80
1, 207051, Control_c, 0, 67, 79
1, 207065, Control_c, 0, 67, 79
1, 207087, Note_off_c, 0, 70, 34
1, 207095, Control_c, 0, 67, 78
1, 207124, Control_c, 0, 67, 78
1, 207139, Control_c, 0, 67, 77
1, 207154, Control_c, 0, 67, 77
1, 207169, Control_c, 0, 67, 76
1, 207184, Control_c, 0, 67, 76
1, 207199, Control_c, 0, 67, 75
1, 207229, Control_c, 0, 67, 75
1, 207244, Control_c, 0, 67, 74
1, 207259, Control_c, 0, 67, 73
1, 207273, Control_c, 0, 67, 73
1, 207317, Control_c, 0, 67, 72
1, 207435, Control_c, 0, 67, 73
1, 207476, Note_on_c, 0, 73, 57
1, 207476, Note_on_c, 0, 70, 59
1, 207480, Note_on_c, 0, 68, 63
1, 207491, Note_on_c, 0, 56, 72
1, 207495, Control_c, 0, 64, 106
1, 207497, Note_on_c, 0, 58, 42
1, 207509, Control_c, 0, 64, 83
1, 207524, Control_c, 0, 64, 69
1, 207539, Control_c, 0, 64, 64
1, 207554, Control_c, 0, 64, 65
1, 207561, Note_off_c, 0, 58, 41
1, 207569, Control_c, 0, 64, 72
1, 207584, Control_c, 0, 64, 84
1, 207598, Control_c, 0, 64, 108
1, 207613, Control_c, 0, 64, 127
1, 207717, Control_c, 0, 67, 73
1, 207732, Control_c, 0, 67, 74
1, 207754, Control_c, 0, 67, 74
1, 207844, Control_c, 0, 67, 75
1, 207888, Control_c, 0, 67, 74
1, 207918, Control_c, 0, 67, 74
1, 208089, Note_on_c, 0, 67, 66
1, 208099, Note_on_c, 0, 55, 71
1, 208169, Note_off_c, 0, 56, 38
1, 208202, Note_off_c, 0, 68, 35
1, 208206, Note_off_c, 0, 73, 35
1, 208212, Note_off_c, 0, 70, 33
1, 208218, Note_off_c, 0, 52, 52
1, 208303, Control_c, 0, 67, 74
1, 208332, Control_c, 0, 67, 75
1, 208347, Control_c, 0, 67, 75
1, 208362, Control_c, 0, 67, 76
1, 208392, Control_c, 0, 67, 76
1, 208421, Control_c, 0, 67, 76
1, 208451, Control_c, 0, 67, 75
1, 208466, Control_c, 0, 67, 75
1, 208503, Control_c, 0, 67, 74
1, 208591, Control_c, 0, 67, 75
1, 208638, Note_on_c, 0, 73, 54
1, 208652, Control_c, 0, 67, 75
1, 208656, Note_on_c, 0, 70, 48
1, 208659, Note_on_c, 0, 58, 49
1, 208662, Note_on_c, 0, 49, 59
1, 208663, Note_on_c, 0, 61, 65
1, 208667, Control_c, 0, 64, 85
1, 208682, Control_c, 0, 64, 69
1, 208682, Control_c, 0, 67, 76
1, 208696, Control_c, 0, 64, 58
1, 208711, Control_c, 0, 64, 53
1, 208726, Control_c, 0, 64, 55
1, 208741, Control_c, 0, 64, 61
1, 208756, Control_c, 0, 64, 71
1, 208756, Control_c, 0, 67, 76
1, 208770, Control_c, 0, 64, 86
1, 208785, Control_c, 0, 64, 127
1, 208817, Note_off_c, 0, 58, 37
1, 208830, Control_c, 0, 67, 77
1, 208860, Note_off_c, 0, 67, 37
1, 208870, Note_off_c, 0, 55, 38
1, 208874, Control_c, 0, 67, 77
1, 208889, Note_off_c, 0, 70, 29
1, 208889, Control_c, 0, 67, 78
1, 208904, Control_c, 0, 67, 78
1, 208934, Control_c, 0, 67, 79
1, 208949, Control_c, 0, 67, 79
1, 208963, Control_c, 0, 67, 80
1, 208978, Control_c, 0, 67, 80
1, 208993, Control_c, 0, 67, 81
1, 209007, Control_c, 0, 67, 82
1, 209022, Control_c, 0, 67, 82
1, 209037, Control_c, 0, 67, 83
1, 209052, Control_c, 0, 67, 84
1, 209056, Note_off_c, 0, 61, 47
1, 209067, Control_c, 0, 67, 85
1, 209081, Control_c, 0, 67, 87
1, 209096, Control_c, 0, 67, 88
1, 209111, Control_c, 0, 67, 90
1, 209126, Control_c, 0, 67, 92
1, 209141, Control_c, 0, 67, 94
1, 209155, Control_c, 0, 67, 96
1, 209170, Control_c, 0, 67, 98
1, 209185, Control_c, 0, 67, 101
1, 209200, Control_c, 0, 67, 103
1, 209214, Control_c, 0, 67, 106
1, 209237, Control_c, 0, 67, 108
1, 209252, Control_c, 0, 67, 111
1, 209254, Note_on_c, 0, 70, 40
1, 209267, Control_c, 0, 67, 114
1, 209282, Control_c, 0, 67, 117
1, 209292, Note_on_c, 0, 58, 43
1, 209296, Control_c, 0, 67, 119
1, 209311, Control_c, 0, 67, 121
1, 209326, Control_c, 0, 67, 122
1, 209341, Control_c, 0, 67, 122
1, 209356, Control_c, 0, 67, 123
1, 209370, Control_c, 0, 67, 124
1, 209385, Control_c, 0, 67, 124
1, 209400, Control_c, 0, 67, 125
1, 209432, Note_off_c, 0, 58, 40
1, 209445, Control_c, 0, 67, 125
1, 209475, Control_c, 0, 67, 126
1, 209490, Control_c, 0, 67, 126
1, 209505, Control_c, 0, 67, 127
1, 209519, Control_c, 0, 67, 127
1, 209528, Note_on_c, 0, 66, 63
1, 209542, Note_on_c, 0, 54, 63
1, 209682, Note_off_c, 0, 54, 58
1, 209712, Control_c, 0, 67, 127
1, 209715, Note_off_c, 0, 66, 35
1, 209801, Control_c, 0, 64, 102
1, 209813, Note_on_c, 0, 54, 65
1, 209813, Note_on_c, 0, 66, 69
1, 209816, Control_c, 0, 64, 80
1, 209831, Control_c, 0, 64, 68
1, 209845, Control_c, 0, 64, 62
1, 209860, Control_c, 0, 64, 64
1, 209860, Control_c, 0, 67, 126
1, 209875, Control_c, 0, 64, 71
1, 209878, Note_off_c, 0, 73, 56
1, 209890, Control_c, 0, 64, 83
1, 209904, Control_c, 0, 64, 105
1, 209904, Control_c, 0, 67, 126
1, 209909, Note_off_c, 0, 70, 34
1, 209919, Control_c, 0, 64, 127
1, 209934, Control_c, 0, 67, 125
1, 209964, Control_c, 0, 67, 125
1, 210030, Note_off_c, 0, 49, 57
1, 210090, Control_c, 0, 67, 124
1, 210105, Control_c, 0, 67, 124
1, 210119, Control_c, 0, 67, 123
1, 210149, Control_c, 0, 67, 123
1, 210193, Control_c, 0, 67, 122
1, 210209, Control_c, 0, 67, 121
1, 210224, Control_c, 0, 67, 121
1, 210313, Control_c, 0, 67, 120
1, 210357, Control_c, 0, 67, 120
1, 210386, Note_on_c, 0, 73, 37
1, 210413, Note_on_c, 0, 70, 45
1, 210424, Note_on_c, 0, 58, 35
1, 210431, Control_c, 0, 67, 119
1, 210490, Control_c, 0, 67, 119
1, 210594, Control_c, 0, 67, 118
1, 210698, Control_c, 0, 67, 118
1, 210868, Control_c, 0, 67, 118
1, 210898, Control_c, 0, 67, 119
1, 210908, Note_off_c, 0, 58, 32
1, 210909, Note_on_c, 0, 64, 64
1, 210913, Control_c, 0, 67, 119
1, 210918, Note_on_c, 0, 52, 59
1, 210924, Note_off_c, 0, 54, 60
1, 210928, Control_c, 0, 67, 120
1, 210957, Control_c, 0, 67, 120
1, 210971, Note_off_c, 0, 70, 28
1, 211057, Note_off_c, 0, 64, 60
1, 211093, Note_off_c, 0, 52, 37
1, 211195, Control_c, 0, 67, 121
1, 211239, Control_c, 0, 67, 121
1, 211254, Control_c, 0, 67, 122
1, 211269, Control_c, 0, 67, 122
1, 211283, Control_c, 0, 67, 123
1, 211298, Control_c, 0, 67, 123
1, 211313, Control_c, 0, 67, 124
1, 211328, Control_c, 0, 67, 125
1, 211343, Control_c, 0, 67, 125
1, 211357, Control_c, 0, 67, 126
1, 211372, Control_c, 0, 67, 126
1, 211387, Control_c, 0, 67, 127
1, 211402, Control_c, 0, 67, 127
1, 211473, Note_off_c, 0, 66, 0
1, 211474, Note_on_c, 0, 70, 42
1, 211497, Note_on_c, 0, 58, 37
1, 211517, Poly_aftertouch_c, 0, 66, 127
1, 211570, Poly_aftertouch_c, 0, 66, 0
1, 211580, Note_off_c, 0, 70, 49
1, 211644, Note_off_c, 0, 58, 22
1, 212014, Note_on_c, 0, 22, 53
1, 212025, Note_on_c, 0, 70, 47
1, 212025, Note_on_c, 0, 34, 44
1, 212031, Note_on_c, 0, 58, 32
1, 212061, Note_off_c, 0, 22, 63
1, 212062, Note_off_c, 0, 73, 33
1, 212063, Note_off_c, 0, 34, 64
1, 212064, Note_off_c, 0, 58, 41
1, 212069, Note_off_c, 0, 70, 60
1, 212552, Note_on_c, 0, 90, 52
1, 212556, Note_on_c, 0, 40, 23
1, 212565, Note_on_c, 0, 54, 47
1, 212577, Note_on_c, 0, 46, 44
1, 212584, Note_on_c, 0, 82, 37
1, 212586, Note_on_c, 0, 85, 30
1, 212606, Note_on_c, 0, 41, 17
1, 212620, Note_off_c, 0, 90, 59
1, 212627, Note_off_c, 0, 85, 50
1, 212638, Note_off_c, 0, 82, 54
1, 212644, Note_off_c, 0, 40, 53
1, 212647, Note_off_c, 0, 41, 36
1, 212687, Note_off_c, 0, 54, 60
1, 213055, Control_c, 0, 67, 127
1, 213064, Note_on_c, 0, 87, 53
1, 213068, Note_on_c, 0, 58, 48
1, 213070, Control_c, 0, 67, 126
1, 213080, Note_on_c, 0, 49, 52
1, 213085, Control_c, 0, 67, 124
1, 213088, Note_off_c, 0, 46, 46
1, 213091, Note_on_c, 0, 73, 47
1, 213094, Note_on_c, 0, 78, 33
1, 213100, Control_c, 0, 67, 123
1, 213101, Note_on_c, 0, 82, 40
1, 213115, Control_c, 0, 67, 122
1, 213129, Control_c, 0, 67, 121
1, 213144, Control_c, 0, 67, 120
1, 213147, Note_off_c, 0, 87, 50
1, 213151, Note_off_c, 0, 73, 50
1, 213159, Control_c, 0, 67, 120
1, 213174, Control_c, 0, 67, 119
1, 213188, Control_c, 0, 67, 118
1, 213198, Note_off_c, 0, 49, 62
1, 213201, Note_off_c, 0, 58, 62
1, 213233, Control_c, 0, 67, 118
1, 213250, Note_off_c, 0, 78, 38
1, 213292, Control_c, 0, 67, 117
1, 213337, Control_c, 0, 67, 117
1, 213352, Control_c, 0, 67, 116
1, 213367, Control_c, 0, 67, 116
1, 213381, Control_c, 0, 67, 114
1, 213396, Control_c, 0, 67, 113
1, 213411, Control_c, 0, 67, 112
1, 213426, Control_c, 0, 67, 111
1, 213441, Control_c, 0, 67, 110
1, 213456, Control_c, 0, 67, 108
1, 213471, Control_c, 0, 67, 107
1, 213486, Control_c, 0, 67, 105
1, 213501, Control_c, 0, 67, 104
1, 213516, Control_c, 0, 67, 104
1, 213530, Control_c, 0, 67, 103
1, 213545, Control_c, 0, 67, 102
1, 213560, Control_c, 0, 67, 101
1, 213573, Note_on_c, 0, 85, 56
1, 213575, Control_c, 0, 67, 99
1, 213581, Note_off_c, 0, 82, 31
1, 213587, Note_on_c, 0, 49, 38
1, 213587, Note_on_c, 0, 64, 38
1, 213590, Control_c, 0, 67, 98
1, 213593, Note_on_c, 0, 58, 48
1, 213599, Note_on_c, 0, 76, 39
1, 213603, Note_on_c, 0, 70, 47
1, 213604, Control_c, 0, 67, 96
1, 213608, Note_on_c, 0, 80, 34
1, 213619, Control_c, 0, 67, 95
1, 213634, Control_c, 0, 67, 94
1, 213649, Control_c, 0, 67, 93
1, 213653, Note_off_c, 0, 85, 54
1, 213659, Note_off_c, 0, 76, 50
1, 213659, Note_off_c, 0, 80, 51
1, 213664, Control_c, 0, 67, 91
1, 213678, Control_c, 0, 67, 90
1, 213693, Control_c, 0, 67, 88
1, 213708, Control_c, 0, 67, 87
1, 213711, Note_off_c, 0, 70, 0
1, 213711, Note_on_c, 0, 70, 7
1, 213728, Note_off_c, 0, 64, 54
1, 213730, Control_c, 0, 67, 86
1, 213745, Control_c, 0, 67, 84
1, 213753, Note_off_c, 0, 49, 49
1, 213755, Note_off_c, 0, 70, 54
1, 213760, Control_c, 0, 67, 83
1, 213775, Control_c, 0, 67, 82
1, 213790, Control_c, 0, 67, 80
1, 213804, Control_c, 0, 67, 79
1, 213819, Control_c, 0, 67, 79
1, 213834, Control_c, 0, 67, 78
1, 213849, Control_c, 0, 67, 78
1, 213864, Control_c, 0, 67, 77
1, 213878, Control_c, 0, 67, 76
1, 213893, Control_c, 0, 67, 75
1, 213908, Control_c, 0, 67, 74
1, 213923, Control_c, 0, 67, 73
1, 213937, Control_c, 0, 67, 73
1, 213952, Control_c, 0, 67, 72
1, 213967, Control_c, 0, 67, 70
1, 213982, Control_c, 0, 67, 67
1, 213997, Control_c, 0, 67, 64
1, 214011, Control_c, 0, 67, 60
1, 214026, Control_c, 0, 67, 57
1, 214041, Control_c, 0, 67, 53
1, 214056, Control_c, 0, 67, 49
1, 214071, Control_c, 0, 67, 46
1, 214085, Control_c, 0, 67, 40
1, 214093, Note_on_c, 0, 82, 59
1, 214100, Control_c, 0, 67, 35
1, 214115, Note_on_c, 0, 73, 36
1, 214115, Control_c, 0, 67, 30
1, 214117, Note_on_c, 0, 68, 44
1, 214119, Note_on_c, 0, 61, 44
1, 214130, Control_c, 0, 67, 25
1, 214133, Note_on_c, 0, 78, 35
1, 214134, Note_on_c, 0, 54, 41
1, 214145, Control_c, 0, 67, 21
1, 214160, Control_c, 0, 67, 18
1, 214175, Control_c, 0, 67, 16
1, 214190, Control_c, 0, 67, 14
1, 214201, Note_off_c, 0, 82, 50
1, 214206, Control_c, 0, 67, 13
1, 214221, Control_c, 0, 67, 11
1, 214235, Control_c, 0, 67, 10
1, 214250, Control_c, 0, 67, 9
1, 214251, Note_off_c, 0, 58, 50
1, 214265, Control_c, 0, 67, 8
1, 214274, Note_off_c, 0, 73, 50
1, 214274, Note_off_c, 0, 78, 29
1, 214280, Control_c, 0, 67, 0
1, 214288, Note_off_c, 0, 68, 43
1, 214304, Note_off_c, 0, 61, 53
1, 214469, Note_off_c, 0, 54, 33
1, 214621, Note_on_c, 0, 80, 54
1, 214625, Note_on_c, 0, 70, 49
1, 214634, Note_on_c, 0, 64, 49
1, 214636, Note_on_c, 0, 76, 45
1, 214636, Note_on_c, 0, 66, 45
1, 214647, Note_on_c, 0, 58, 52
1, 214727, Note_off_c, 0, 80, 56
1, 214735, Poly_aftertouch_c, 0, 78, 0
1, 214749, Note_off_c, 0, 66, 56
1, 214758, Note_off_c, 0, 64, 56
1, 214789, Note_off_c, 0, 70, 46
1, 214805, Note_off_c, 0, 76, 34
1, 215135, Note_on_c, 0, 78, 66
1, 215146, Note_on_c, 0, 70, 61
1, 215149, Note_on_c, 0, 56, 54
1, 215157, Note_on_c, 0, 61, 47
1, 215169, Note_off_c, 0, 58, 38
1, 215244, Note_off_c, 0, 78, 61
1, 215286, Note_off_c, 0, 61, 56
1, 215473, Note_off_c, 0, 56, 0
1, 215547, Poly_aftertouch_c, 0, 56, 0
1, 215682, Note_off_c, 0, 70, 60
1, 215688, Note_on_c, 0, 75, 72
1, 215696, Note_on_c, 0, 52, 52
1, 215696, Note_on_c, 0, 58, 52
1, 215699, Note_on_c, 0, 66, 54
1, 215705, Note_on_c, 0, 61, 69
1, 215737, Note_off_c, 0, 66, 61
1, 215742, Note_off_c, 0, 75, 64
1, 215820, Note_off_c, 0, 52, 56
1, 215829, Note_off_c, 0, 58, 34
1, 215843, Note_off_c, 0, 61, 33
1, 216083, Note_on_c, 0, 64, 97
1, 216299, Note_on_c, 0, 70, 75
1, 216303, Control_c, 0, 64, 82
1, 216303, Note_on_c, 0, 49, 75
1, 216303, Note_on_c, 0, 61, 74
1, 216304, Note_on_c, 0, 58, 76
1, 216304, Note_on_c, 0, 73, 73
1, 216309, Note_on_c, 0, 54, 75
1, 216318, Control_c, 0, 64, 59
1, 216332, Control_c, 0, 64, 30
1, 216347, Control_c, 0, 64, 0
1, 216362, Control_c, 0, 64, 23
1, 216377, Control_c, 0, 64, 50
1, 216392, Control_c, 0, 64, 66
1, 216406, Control_c, 0, 64, 77
1, 216421, Control_c, 0, 64, 94
1, 216436, Control_c, 0, 64, 127
1, 216533, Note_off_c, 0, 70, 35
1, 216755, Note_off_c, 0, 58, 34
1, 216782, Note_off_c, 0, 49, 34
1, 216818, Note_off_c, 0, 61, 34
1, 216833, Note_off_c, 0, 54, 53
1, 217034, Note_on_c, 0, 70, 65
1, 217074, Note_off_c, 0, 73, 58
1, 217545, Note_on_c, 0, 58, 91
1, 217659, Note_off_c, 0, 70, 53
1, 218097, Note_on_c, 0, 22, 86
1, 218101, Note_on_c, 0, 34, 82
1, 218101, Note_on_c, 0, 70, 81
1, 218235, Note_off_c, 0, 70, 48
1, 218680, Note_on_c, 0, 70, 47
1, 218720, Note_off_c, 0, 70, 58
1, 219194, Control_c, 0, 67, 9
1, 219209, Control_c, 0, 67, 9
1, 219224, Control_c, 0, 67, 10
1, 219239, Control_c, 0, 67, 11
1, 219254, Control_c, 0, 67, 12
1, 219268, Control_c, 0, 67, 13
1, 219283, Control_c, 0, 67, 14
1, 219298, Control_c, 0, 67, 15
1, 219313, Control_c, 0, 67, 15
1, 219328, Control_c, 0, 67, 16
1, 219342, Control_c, 0, 67, 17
1, 219357, Control_c, 0, 67, 18
1, 219372, Control_c, 0, 67, 19
1, 219387, Control_c, 0, 67, 19
1, 219402, Control_c, 0, 67, 20
1, 219416, Control_c, 0, 67, 21
1, 219431, Control_c, 0, 67, 21
1, 219446, Control_c, 0, 67, 22
1, 219461, Control_c, 0, 67, 23
1, 219475, Control_c, 0, 67, 23
1, 219490, Control_c, 0, 67, 24
1, 219520, Control_c, 0, 67, 24
1, 219535, Control_c, 0, 67, 25
1, 219549, Control_c, 0, 67, 25
1, 219564, Control_c, 0, 67, 26
1, 219579, Control_c, 0, 67, 26
1, 219594, Control_c, 0, 67, 27
1, 219623, Control_c, 0, 67, 27
1, 219653, Control_c, 0, 67, 28
1, 219668, Control_c, 0, 67, 28
1, 219683, Control_c, 0, 67, 29
1, 219698, Control_c, 0, 67, 29
1, 219720, Control_c, 0, 67, 30
1, 219735, Control_c, 0, 67, 30
1, 219749, Control_c, 0, 67, 31
1, 219764, Control_c, 0, 67, 32
1, 219779, Control_c, 0, 67, 33
1, 219787, Note_on_c, 0, 70, 68
1, 219795, Control_c, 0, 67, 34
1, 219810, Control_c, 0, 67, 36
1, 219825, Control_c, 0, 67, 38
1, 219840, Control_c, 0, 67, 39
1, 219854, Control_c, 0, 67, 41
1, 219862, Note_off_c, 0, 70, 54
1, 219869, Control_c, 0, 67, 43
1, 219884, Control_c, 0, 67, 45
1, 219898, Control_c, 0, 67, 47
1, 219913, Control_c, 0, 67, 49
1, 219928, Control_c, 0, 67, 52
1, 219943, Control_c, 0, 67, 54
1, 219958, Control_c, 0, 67, 57
1, 219972, Control_c, 0, 67, 59
1, 219987, Control_c, 0, 67, 62
1, 220002, Control_c, 0, 67, 63
1, 220017, Control_c, 0, 67, 64
1, 220032, Control_c, 0, 67, 65
1, 220047, Control_c, 0, 67, 66
1, 220062, Control_c, 0, 67, 67
1, 220077, Control_c, 0, 67, 68
1, 220091, Control_c, 0, 67, 69
1, 220106, Control_c, 0, 67, 70
1, 220121, Control_c, 0, 67, 71
1, 220136, Control_c, 0, 67, 71
1, 220151, Control_c, 0, 67, 72
1, 220165, Control_c, 0, 67, 73
1, 220180, Control_c, 0, 67, 73
1, 220195, Control_c, 0, 67, 74
1, 220210, Control_c, 0, 67, 74
1, 220224, Control_c, 0, 67, 75
1, 220239, Control_c, 0, 67, 76
1, 220254, Control_c, 0, 67, 77
1, 220269, Control_c, 0, 67, 77
1, 220284, Control_c, 0, 67, 78
1, 220298, Control_c, 0, 67, 78
1, 220313, Control_c, 0, 67, 79
1, 220328, Control_c, 0, 67, 79
1, 220343, Control_c, 0, 67, 80
1, 220347, Note_off_c, 0, 64, 45
1, 220354, Note_on_c, 0, 70, 48
1, 220358, Control_c, 0, 67, 80
1, 220387, Control_c, 0, 67, 81
1, 220402, Control_c, 0, 67, 81
1, 220416, Control_c, 0, 67, 82
1, 220446, Control_c, 0, 67, 82
1, 220513, Control_c, 0, 67, 83
1, 220603, Control_c, 0, 67, 83
1, 220707, Control_c, 0, 67, 83
1, 220721, Control_c, 0, 67, 82
1, 220736, Control_c, 0, 67, 82
1, 220751, Control_c, 0, 67, 81
1, 220766, Control_c, 0, 67, 81
1, 220795, Control_c, 0, 67, 80
1, 220810, Control_c, 0, 67, 80
1, 220825, Control_c, 0, 67, 79
1, 220840, Control_c, 0, 67, 78
1, 220855, Control_c, 0, 67, 78
1, 220863, Note_on_c, 0, 64, 89
1, 220869, Control_c, 0, 67, 77
1, 220870, Note_off_c, 0, 22, 51
1, 220884, Control_c, 0, 67, 77
1, 220893, Note_off_c, 0, 58, 62
1, 220899, Control_c, 0, 67, 76
1, 220914, Control_c, 0, 67, 76
1, 220923, Note_off_c, 0, 34, 38
1, 220929, Note_off_c, 0, 70, 60
1, 221018, Control_c, 0, 67, 76
1, 221062, Control_c, 0, 67, 76
1, 221399, Note_on_c, 0, 70, 72
1, 221407, Note_on_c, 0, 58, 64
1, 221427, Control_c, 0, 67, 76
1, 221501, Control_c, 0, 67, 77
1, 221509, Note_off_c, 0, 70, 58
1, 221531, Control_c, 0, 67, 77
1, 221604, Control_c, 0, 67, 78
1, 221767, Control_c, 0, 67, 78
1, 221797, Control_c, 0, 67, 79
1, 221841, Control_c, 0, 67, 79
1, 221856, Control_c, 0, 67, 80
1, 221871, Control_c, 0, 67, 80
1, 221886, Control_c, 0, 67, 81
1, 221901, Control_c, 0, 67, 81
1, 221916, Control_c, 0, 67, 82
1, 221931, Control_c, 0, 67, 82
1, 221960, Control_c, 0, 67, 83
1, 221976, Note_on_c, 0, 70, 52
1, 221982, Control_c, 0, 67, 83
1, 221996, Control_c, 0, 67, 84
1, 222026, Control_c, 0, 67, 85
1, 222041, Control_c, 0, 67, 85
1, 222056, Control_c, 0, 67, 86
1, 222071, Control_c, 0, 67, 86
1, 222086, Note_off_c, 0, 58, 30
1, 222143, Note_off_c, 0, 70, 32
1, 222184, Note_off_c, 0, 64, 40
1, 222250, Control_c, 0, 67, 87
1, 222265, Control_c, 0, 67, 87
1, 222309, Control_c, 0, 67, 88
1, 222457, Control_c, 0, 67, 87
1, 222679, Control_c, 0, 67, 88
1, 222730, Control_c, 0, 67, 88
1, 222744, Control_c, 0, 67, 89
1, 222759, Control_c, 0, 67, 89
1, 222774, Control_c, 0, 67, 90
1, 222789, Control_c, 0, 67, 91
1, 222804, Control_c, 0, 67, 92
1, 222819, Control_c, 0, 67, 93
1, 223042, Control_c, 0, 67, 92
1, 223087, Control_c, 0, 67, 92
1, 223120, Note_on_c, 0, 63, 76
1, 223131, Control_c, 0, 67, 91
1, 223135, Note_on_c, 0, 70, 72
1, 223141, Note_on_c, 0, 56, 72
1, 223144, Note_on_c, 0, 51, 67
1, 223146, Note_on_c, 0, 46, 61
1, 223147, Note_on_c, 0, 58, 52
1, 223161, Control_c, 0, 64, 89
1, 223176, Control_c, 0, 64, 73
1, 223190, Control_c, 0, 64, 59
1, 223190, Control_c, 0, 67, 91
1, 223205, Control_c, 0, 64, 48
1, 223220, Control_c, 0, 64, 44
1, 223220, Control_c, 0, 67, 90
1, 223234, Control_c, 0, 67, 90
1, 223249, Control_c, 0, 64, 46
1, 223264, Control_c, 0, 64, 52
1, 223264, Control_c, 0, 67, 89
1, 223279, Control_c, 0, 64, 62
1, 223294, Control_c, 0, 64, 75
1, 223294, Control_c, 0, 67, 89
1, 223308, Control_c, 0, 64, 93
1, 223323, Control_c, 0, 64, 127
1, 223338, Control_c, 0, 67, 88
1, 223453, Note_off_c, 0, 70, 33
1, 223479, Control_c, 0, 67, 89
1, 223523, Control_c, 0, 67, 89
1, 223566, Note_off_c, 0, 58, 33
1, 223627, Control_c, 0, 67, 90
1, 223642, Control_c, 0, 67, 90
1, 223731, Control_c, 0, 67, 91
1, 223818, Note_on_c, 0, 70, 56
1, 223907, Note_off_c, 0, 56, 56
1, 223925, Control_c, 0, 67, 90
1, 223943, Note_off_c, 0, 46, 34
1, 224072, Control_c, 0, 67, 91
1, 224163, Note_off_c, 0, 51, 35
1, 224354, Note_on_c, 0, 58, 63
1, 224376, Control_c, 0, 67, 91
1, 224473, Note_off_c, 0, 70, 33
1, 224479, Control_c, 0, 67, 92
1, 224733, Control_c, 0, 67, 92
1, 224929, Note_on_c, 0, 70, 56
1, 224934, Note_on_c, 0, 22, 58
1, 224940, Note_on_c, 0, 34, 55
1, 224992, Control_c, 0, 67, 92
1, 225039, Note_off_c, 0, 70, 52
1, 225481, Note_on_c, 0, 70, 43
1, 225579, Note_off_c, 0, 70, 40
1, 226519, Note_off_c, 0, 22, 21
1, 226819, Note_on_c, 0, 70, 43
1, 226850, Note_off_c, 0, 34, 55
1, 226880, Note_off_c, 0, 70, 53
1, 226903, Control_c, 0, 67, 92
1, 226979, Control_c, 0, 67, 93
1, 227410, Note_on_c, 0, 70, 35
1, 227505, Control_c, 0, 67, 92
1, 227549, Note_off_c, 0, 63, 32
1, 227608, Control_c, 0, 67, 92
1, 227623, Control_c, 0, 67, 91
1, 227712, Control_c, 0, 67, 91
1, 227906, Control_c, 0, 67, 90
1, 228003, Control_c, 0, 67, 90
1, 228032, Control_c, 0, 67, 90
1, 228058, Note_on_c, 0, 62, 56
1, 228074, Note_on_c, 0, 54, 52
1, 228085, Note_on_c, 0, 44, 46
1, 228091, Control_c, 0, 64, 97
1, 228098, Note_on_c, 0, 48, 45
1, 228106, Control_c, 0, 64, 83
1, 228121, Control_c, 0, 64, 71
1, 228128, Note_off_c, 0, 58, 31
1, 228136, Control_c, 0, 64, 62
1, 228151, Control_c, 0, 64, 52
1, 228151, Control_c, 0, 67, 90
1, 228165, Control_c, 0, 64, 46
1, 228180, Control_c, 0, 64, 46
1, 228195, Control_c, 0, 64, 48
1, 228210, Control_c, 0, 64, 53
1, 228225, Control_c, 0, 64, 60
1, 228239, Control_c, 0, 64, 70
1, 228254, Control_c, 0, 64, 83
1, 228269, Control_c, 0, 64, 110
1, 228283, Control_c, 0, 64, 127
1, 228288, Note_off_c, 0, 70, 34
1, 228343, Control_c, 0, 67, 90
1, 228387, Control_c, 0, 67, 91
1, 228491, Control_c, 0, 67, 91
1, 228581, Control_c, 0, 67, 92
1, 228670, Control_c, 0, 67, 92
1, 228706, Control_c, 0, 67, 93
1, 228718, Note_off_c, 0, 54, 35
1, 228756, Note_off_c, 0, 48, 30
1, 228766, Control_c, 0, 67, 93
1, 228820, Note_on_c, 0, 70, 35
1, 228840, Control_c, 0, 67, 94
1, 228851, Note_off_c, 0, 44, 13
1, 228959, Control_c, 0, 67, 94
1, 229092, Control_c, 0, 67, 95
1, 229285, Control_c, 0, 67, 95
1, 229299, Control_c, 0, 67, 96
1, 229380, Note_on_c, 0, 58, 42
1, 229404, Control_c, 0, 67, 96
1, 229434, Control_c, 0, 67, 97
1, 229456, Control_c, 0, 67, 97
1, 229487, Note_off_c, 0, 70, 45
1, 230011, Note_on_c, 0, 70, 39
1, 230034, Note_on_c, 0, 22, 38
1, 230034, Note_on_c, 0, 34, 35
1, 230121, Note_off_c, 0, 70, 45
1, 230218, Control_c, 0, 67, 97
1, 230307, Control_c, 0, 67, 96
1, 230514, Control_c, 0, 67, 96
1, 230605, Note_on_c, 0, 70, 35
1, 230721, Control_c, 0, 67, 95
1, 230765, Note_off_c, 0, 70, 42
1, 230881, Note_off_c, 0, 22, 20
1, 231011, Control_c, 0, 67, 95
1, 231233, Control_c, 0, 67, 94
1, 231654, Note_off_c, 0, 34, 36
1, 232011, Note_on_c, 0, 70, 28
1, 232143, Note_off_c, 0, 70, 32
1, 232294, Control_c, 0, 67, 95
1, 232479, Control_c, 0, 67, 95
1, 232568, Control_c, 0, 67, 96
1, 232628, Control_c, 0, 67, 96
1, 232638, Note_on_c, 0, 70, 26
1, 232687, Control_c, 0, 67, 97
1, 232717, Control_c, 0, 67, 97
1, 232746, Control_c, 0, 67, 98
1, 232756, Note_off_c, 0, 62, 33
1, 232761, Control_c, 0, 67, 98
1, 232791, Control_c, 0, 67, 99
1, 232805, Control_c, 0, 67, 100
1, 232820, Control_c, 0, 67, 101
1, 232835, Control_c, 0, 67, 105
1, 232850, Control_c, 0, 67, 108
1, 232865, Control_c, 0, 67, 111
1, 232879, Control_c, 0, 67, 114
1, 232894, Control_c, 0, 67, 117
1, 232909, Control_c, 0, 67, 120
1, 232924, Control_c, 0, 67, 124
1, 232939, Control_c, 0, 67, 127
1, 233137, Note_on_c, 0, 46, 28
1, 233147, Note_on_c, 0, 39, 25
1, 233420, Control_c, 0, 64, 119
1, 233435, Control_c, 0, 64, 114
1, 233450, Control_c, 0, 64, 110
1, 233465, Control_c, 0, 64, 107
1, 233480, Control_c, 0, 64, 104
1, 233494, Control_c, 0, 64, 102
1, 233509, Control_c, 0, 64, 99
1, 233524, Control_c, 0, 64, 97
1, 233535, Note_off_c, 0, 58, 31
1, 233539, Control_c, 0, 64, 95
1, 233544, Note_on_c, 0, 61, 36
1, 233554, Control_c, 0, 64, 92
1, 233568, Control_c, 0, 64, 89
1, 233574, Note_on_c, 0, 53, 39
1, 233583, Control_c, 0, 64, 84
1, 233598, Control_c, 0, 64, 79
1, 233613, Control_c, 0, 64, 71
1, 233628, Control_c, 0, 64, 62
1, 233631, Note_off_c, 0, 70, 40
1, 233643, Control_c, 0, 64, 49
1, 233658, Control_c, 0, 64, 24
1, 233672, Control_c, 0, 64, 0
1, 233776, Control_c, 0, 64, 43
1, 233791, Control_c, 0, 64, 60
1, 233806, Control_c, 0, 64, 67
1, 233820, Control_c, 0, 64, 72
1, 233835, Control_c, 0, 64, 80
1, 233850, Control_c, 0, 64, 90
1, 233865, Control_c, 0, 64, 104
1, 233880, Control_c, 0, 64, 127
1, 234111, Note_off_c, 0, 53, 40
1, 234374, Note_off_c, 0, 46, 34
1, 234388, Note_on_c, 0, 70, 27
1, 234421, Note_off_c, 0, 39, 35
1, 234961, Note_on_c, 0, 58, 24
1, 235035, Note_off_c, 0, 70, 35
1, 235576, Note_on_c, 0, 22, 24
1, 235583, Note_on_c, 0, 70, 30
1, 235640, Note_off_c, 0, 22, 62
1, 235660, Note_off_c, 0, 70, 52
1, 236203, Note_on_c, 0, 70, 14
1, 236764, Note_on_c, 0, 49, 40
1, 236787, Note_on_c, 0, 35, 30
1, 236790, Note_on_c, 0, 42, 31
1, 236926, Note_off_c, 0, 35, 34
1, 237012, Note_off_c, 0, 70, 37
1, 237035, Note_off_c, 0, 42, 50
1, 237175, Note_off_c, 0, 49, 34
1, 237413, Note_on_c, 0, 70, 36
1, 237417, Note_on_c, 0, 51, 43
1, 237431, Control_c, 0, 64, 118
1, 237437, Note_on_c, 0, 37, 36
1, 237446, Note_on_c, 0, 44, 40
1, 237446, Control_c, 0, 64, 88
1, 237461, Control_c, 0, 64, 75
1, 237476, Control_c, 0, 64, 65
1, 237491, Control_c, 0, 64, 60
1, 237506, Control_c, 0, 64, 61
1, 237520, Control_c, 0, 64, 66
1, 237535, Control_c, 0, 64, 78
1, 237550, Control_c, 0, 64, 110
1, 237565, Control_c, 0, 64, 127
1, 237610, Note_off_c, 0, 70, 39
1, 237781, Note_off_c, 0, 37, 34
1, 237883, Note_off_c, 0, 58, 27
1, 237955, Note_off_c, 0, 51, 33
1, 238024, Note_off_c, 0, 44, 30
1, 238080, Note_on_c, 0, 70, 30
1, 238199, Note_off_c, 0, 61, 29
1, 238528, Note_on_c, 0, 51, 34
1, 238533, Note_on_c, 0, 58, 35
1, 238538, Note_on_c, 0, 44, 31
1, 238585, Poly_aftertouch_c, 0, 47, 127
1, 238613, Poly_aftertouch_c, 0, 47, 0
1, 238643, Note_off_c, 0, 51, 59
1, 238796, Note_off_c, 0, 44, 0
1, 238962, Note_on_c, 0, 53, 43
1, 238968, Note_on_c, 0, 61, 36
1, 238970, Note_on_c, 0, 46, 37
1, 238978, Note_off_c, 0, 70, 34
1, 238981, Note_on_c, 0, 39, 35
1, 238989, Control_c, 0, 64, 96
1, 238990, Poly_aftertouch_c, 0, 44, 0
1, 239004, Control_c, 0, 64, 82
1, 239013, Note_off_c, 0, 58, 41
1, 239019, Control_c, 0, 64, 70
1, 239033, Control_c, 0, 64, 61
1, 239048, Control_c, 0, 64, 52
1, 239063, Control_c, 0, 64, 47
1, 239078, Control_c, 0, 64, 48
1, 239092, Control_c, 0, 64, 52
1, 239107, Control_c, 0, 64, 59
1, 239122, Control_c, 0, 64, 67
1, 239137, Control_c, 0, 64, 77
1, 239152, Control_c, 0, 64, 93
1, 239166, Control_c, 0, 64, 127
1, 239479, Note_off_c, 0, 53, 39
1, 239653, Note_on_c, 0, 70, 37
1, 239849, Note_off_c, 0, 46, 20
1, 240048, Note_off_c, 0, 39, 34
1, 240236, Note_on_c, 0, 58, 29
1, 240301, Note_off_c, 0, 70, 39
1, 240843, Note_on_c, 0, 22, 29
1, 240843, Note_on_c, 0, 70, 37
1, 240904, Note_off_c, 0, 22, 61
1, 240916, Note_off_c, 0, 70, 49
1, 241450, Note_on_c, 0, 70, 22
1, 242057, Note_on_c, 0, 35, 41
1, 242086, Note_on_c, 0, 42, 23
1, 242101, Poly_aftertouch_c, 0, 49, 127
1, 242248, Note_off_c, 0, 35, 57
1, 242324, Note_off_c, 0, 42, 50
1, 242328, Note_off_c, 0, 70, 33
1, 242354, Poly_aftertouch_c, 0, 49, 0
1, 242719, Note_on_c, 0, 70, 37
1, 242746, Note_on_c, 0, 37, 43
1, 242747, Control_c, 0, 64, 116
1, 242752, Note_on_c, 0, 44, 34
1, 242758, Note_on_c, 0, 51, 16
1, 242762, Control_c, 0, 64, 92
1, 242776, Control_c, 0, 64, 78
1, 242791, Control_c, 0, 64, 66
1, 242806, Control_c, 0, 64, 56
1, 242821, Control_c, 0, 64, 49
1, 242836, Control_c, 0, 64, 50
1, 242851, Control_c, 0, 64, 54
1, 242866, Control_c, 0, 64, 61
1, 242880, Control_c, 0, 64, 69
1, 242895, Control_c, 0, 64, 81
1, 242909, Note_off_c, 0, 70, 32
1, 242910, Control_c, 0, 64, 100
1, 242932, Control_c, 0, 64, 127
1, 243077, Note_off_c, 0, 51, 27
1, 243220, Note_off_c, 0, 37, 36
1, 243345, Note_off_c, 0, 44, 28
1, 243345, Note_off_c, 0, 58, 27
1, 243429, Note_on_c, 0, 70, 27
1, 243527, Note_off_c, 0, 61, 37
1, 243989, Note_on_c, 0, 58, 29
1, 244035, Note_on_c, 0, 44, 40
1, 244057, Note_on_c, 0, 51, 15
1, 244138, Note_off_c, 0, 51, 38
1, 244495, Note_on_c, 0, 61, 35
1, 244503, Note_on_c, 0, 53, 16
1, 244524, Note_on_c, 0, 46, 30
1, 244535, Note_on_c, 0, 39, 32
1, 244539, Note_off_c, 0, 58, 43
1, 244544, Note_off_c, 0, 70, 33
1, 244549, Control_c, 0, 64, 100
1, 244565, Control_c, 0, 64, 82
1, 244580, Control_c, 0, 64, 70
1, 244581, Note_off_c, 0, 44, 55
1, 244594, Control_c, 0, 64, 60
1, 244609, Control_c, 0, 64, 48
1, 244624, Control_c, 0, 64, 39
1, 244639, Control_c, 0, 64, 33
1, 244654, Control_c, 0, 64, 32
1, 244684, Control_c, 0, 64, 37
1, 244699, Control_c, 0, 64, 50
1, 244713, Control_c, 0, 64, 63
1, 244728, Control_c, 0, 64, 74
1, 244743, Control_c, 0, 64, 86
1, 244758, Control_c, 0, 64, 105
1, 244773, Control_c, 0, 64, 127
1, 245113, Note_off_c, 0, 53, 35
1, 245344, Note_off_c, 0, 46, 33
1, 245350, Note_on_c, 0, 70, 29
1, 245518, Note_off_c, 0, 39, 34
1, 245873, Note_on_c, 0, 58, 27
1, 245957, Note_off_c, 0, 70, 35
1, 245969, Note_off_c, 0, 61, 38
1, 246434, Note_on_c, 0, 70, 32
1, 246455, Note_on_c, 0, 22, 32
1, 246521, Note_off_c, 0, 70, 48
1, 246957, Note_off_c, 0, 58, 4
1, 246979, Note_on_c, 0, 70, 30
1, 247111, Note_off_c, 0, 70, 32
1, 247491, Poly_aftertouch_c, 0, 24, 127
1, 247846, Poly_aftertouch_c, 0, 26, 127
1, 248217, Note_on_c, 0, 70, 37
1, 248225, Note_on_c, 0, 58, 28
1, 248354, Note_off_c, 0, 70, 34
1, 248824, Note_on_c, 0, 70, 22
1, 249060, Note_off_c, 0, 70, 27
1, 249224, Note_off_c, 0, 58, 0
1, 249261, Poly_aftertouch_c, 0, 58, 127
1, 249406, Poly_aftertouch_c, 0, 29, 127
1, 249953, Note_on_c, 0, 70, 25
1, 250098, Note_off_c, 0, 70, 39
1, 250139, Poly_aftertouch_c, 0, 58, 0
1, 251242, Note_on_c, 0, 70, 32
1, 251255, Note_on_c, 0, 58, 27
1, 251376, Note_off_c, 0, 70, 34
1, 251832, Note_on_c, 0, 70, 23
1, 251969, Note_off_c, 0, 58, 30
1, 251991, Note_off_c, 0, 70, 35
1, 253331, Note_on_c, 0, 70, 11
1, 253355, Note_on_c, 0, 58, 9
1, 253500, Note_off_c, 0, 70, 38
1, 254145, Note_on_c, 0, 70, 13
1, 255510, Note_off_c, 0, 70, 5
1, 256529, Note_off_c, 0, 58, 1
1, 258725, Poly_aftertouch_c, 0, 29, 0
1, 258918, Poly_aftertouch_c, 0, 24, 0
1, 258944, Poly_aftertouch_c, 0, 26, 0
1, 259710, Note_off_c, 0, 22, 28
1, 260435, Control_c, 0, 64, 121
1, 260450, Control_c, 0, 64, 110
1, 260465, Control_c, 0, 64, 104
1, 260480, Control_c, 0, 64, 99
1, 260495, Control_c, 0, 64, 95
1, 260509, Control_c, 0, 64, 91
1, 260525, Control_c, 0, 64, 89
1, 260540, Control_c, 0, 64, 86
1, 260554, Control_c, 0, 64, 84
1, 260569, Control_c, 0, 64, 82
1, 260584, Control_c, 0, 64, 80
1, 260599, Control_c, 0, 64, 77
1, 260614, Control_c, 0, 64, 75
1, 260629, Control_c, 0, 64, 72
1, 260644, Control_c, 0, 64, 68
1, 260659, Control_c, 0, 64, 66
1, 260673, Control_c, 0, 64, 64
1, 260688, Control_c, 0, 64, 63
1, 260703, Control_c, 0, 64, 63
1, 260718, Control_c, 0, 64, 62
1, 260733, Control_c, 0, 64, 61
1, 260748, Control_c, 0, 64, 59
1, 260762, Control_c, 0, 64, 57
1, 260777, Control_c, 0, 64, 55
1, 260792, Control_c, 0, 64, 52
1, 260807, Control_c, 0, 64, 50
1, 260822, Control_c, 0, 64, 48
1, 260837, Control_c, 0, 64, 45
1, 260852, Control_c, 0, 64, 43
1, 260867, Control_c, 0, 64, 40
1, 260881, Control_c, 0, 64, 37
1, 260896, Control_c, 0, 64, 33
1, 260918, Control_c, 0, 64, 29
1, 260933, Control_c, 0, 64, 25
1, 260948, Control_c, 0, 64, 17
1, 260963, Control_c, 0, 64, 8
1, 260977, Control_c, 0, 64, 0
1, 261104, Note_on_c, 0, 31, 42
1, 261508, Note_off_c, 0, 31, 54
1, 261510, Note_on_c, 0, 32, 28
1, 261982, Note_off_c, 0, 32, 46
1, 262030, Note_on_c, 0, 39, 19
1, 262254, Note_off_c, 0, 39, 62
1, 262711, Control_c, 0, 64, 13
1, 262725, Control_c, 0, 64, 20
1, 262740, Control_c, 0, 64, 25
1, 262755, Control_c, 0, 64, 30
1, 262770, Control_c, 0, 64, 35
1, 262785, Control_c, 0, 64, 42
1, 262799, Control_c, 0, 64, 46
1, 262814, Control_c, 0, 64, 48
1, 262829, Control_c, 0, 64, 50
1, 262844, Control_c, 0, 64, 52
1, 262858, Control_c, 0, 64, 53
1, 262873, Control_c, 0, 64, 55
1, 262888, Control_c, 0, 64, 56
1, 262903, Control_c, 0, 64, 57
1, 262903, Control_c, 0, 67, 126
1, 262918, Control_c, 0, 64, 58
1, 262918, Control_c, 0, 67, 124
1, 262934, Control_c, 0, 64, 59
1, 262934, Control_c, 0, 67, 121
1, 262948, Control_c, 0, 64, 59
1, 262948, Control_c, 0, 67, 117
1, 262963, Control_c, 0, 64, 60
1, 262963, Control_c, 0, 67, 113
1, 262978, Control_c, 0, 64, 63
1, 262978, Control_c, 0, 67, 104
1, 262993, Control_c, 0, 64, 68
1, 262993, Control_c, 0, 67, 93
1, 263008, Note_on_c, 0, 64, 72
1, 263008, Control_c, 0, 64, 73
1, 263008, Control_c, 0, 67, 78
1, 263010, Note_on_c, 0, 56, 69
1, 263013, Note_on_c, 0, 50, 62
1, 263016, Note_on_c, 0, 59, 62
1, 263022, Control_c, 0, 64, 81
1, 263022, Control_c, 0, 67, 60
1, 263026, Note_on_c, 0, 51, 54
1, 263034, Note_off_c, 0, 64, 66
1, 263036, Note_off_c, 0, 59, 60
1, 263036, Note_off_c, 0, 56, 67
1, 263037, Control_c, 0, 64, 91
1, 263037, Control_c, 0, 67, 41
1, 263042, Note_off_c, 0, 50, 62
1, 263052, Note_off_c, 0, 51, 51
1, 263052, Control_c, 0, 64, 100
1, 263052, Control_c, 0, 67, 23
1, 263067, Control_c, 0, 64, 109
1, 263067, Control_c, 0, 67, 8
1, 263082, Control_c, 0, 64, 127
1, 263082, Control_c, 0, 67, 0
1, 263228, Note_on_c, 0, 51, 37
1, 263267, Control_c, 0, 67, 8
1, 263268, Note_off_c, 0, 51, 54
1, 263297, Control_c, 0, 67, 9
1, 263312, Control_c, 0, 67, 10
1, 263326, Control_c, 0, 67, 11
1, 263331, Note_on_c, 0, 50, 19
1, 263341, Control_c, 0, 67, 12
1, 263347, Note_on_c, 0, 56, 14
1, 263349, Note_on_c, 0, 64, 26
1, 263356, Control_c, 0, 67, 13
1, 263359, Note_on_c, 0, 59, 17
1, 263363, Note_on_c, 0, 51, 36
1, 263368, Note_on_c, 0, 52, 38
1, 263371, Control_c, 0, 67, 13
1, 263383, Note_off_c, 0, 51, 0
1, 263386, Control_c, 0, 67, 15
1, 263398, Poly_aftertouch_c, 0, 51, 0
1, 263400, Control_c, 0, 67, 17
1, 263415, Control_c, 0, 67, 19
1, 263420, Note_on_c, 0, 51, 7
1, 263430, Control_c, 0, 67, 20
1, 263445, Control_c, 0, 67, 22
1, 263449, Note_off_c, 0, 51, 61
1, 263460, Control_c, 0, 67, 23
1, 263474, Control_c, 0, 67, 25
1, 263489, Control_c, 0, 67, 27
1, 263499, Note_on_c, 0, 51, 42
1, 263504, Control_c, 0, 64, 114
1, 263504, Control_c, 0, 67, 28
1, 263519, Control_c, 0, 64, 104
1, 263519, Control_c, 0, 67, 30
1, 263526, Note_off_c, 0, 51, 55
1, 263534, Control_c, 0, 64, 96
1, 263534, Control_c, 0, 67, 32
1, 263548, Control_c, 0, 64, 89
1, 263548, Control_c, 0, 67, 35
1, 263563, Control_c, 0, 64, 83
1, 263563, Control_c, 0, 67, 38
1, 263566, Note_on_c, 0, 51, 49
1, 263578, Control_c, 0, 64, 78
1, 263578, Control_c, 0, 67, 41
1, 263593, Control_c, 0, 64, 72
1, 263593, Control_c, 0, 67, 44
1, 263605, Note_off_c, 0, 51, 0
1, 263607, Control_c, 0, 64, 68
1, 263607, Control_c, 0, 67, 47
1, 263616, Poly_aftertouch_c, 0, 51, 0
1, 263622, Control_c, 0, 64, 64
1, 263622, Control_c, 0, 67, 50
1, 263630, Note_on_c, 0, 51, 39
1, 263637, Control_c, 0, 64, 61
1, 263637, Control_c, 0, 67, 52
1, 263652, Control_c, 0, 64, 59
1, 263652, Control_c, 0, 67, 54
1, 263657, Note_off_c, 0, 51, 65
1, 263667, Control_c, 0, 67, 56
1, 263681, Control_c, 0, 67, 58
1, 263696, Control_c, 0, 67, 60
1, 263711, Control_c, 0, 67, 61
1, 263714, Note_on_c, 0, 51, 53
1, 263727, Control_c, 0, 67, 62
1, 263741, Note_off_c, 0, 51, 48
1, 263742, Control_c, 0, 64, 59
1, 263742, Control_c, 0, 67, 63
1, 263757, Control_c, 0, 67, 64
1, 263771, Control_c, 0, 64, 58
1, 263771, Control_c, 0, 67, 65
1, 263778, Note_on_c, 0, 51, 54
1, 263786, Control_c, 0, 64, 58
1, 263786, Control_c, 0, 67, 65
1, 263801, Control_c, 0, 64, 57
1, 263801, Control_c, 0, 67, 66
1, 263808, Note_off_c, 0, 51, 65
1, 263816, Control_c, 0, 64, 57
1, 263816, Control_c, 0, 67, 66
1, 263831, Control_c, 0, 64, 56
1, 263831, Control_c, 0, 67, 67
1, 263842, Note_on_c, 0, 51, 60
1, 263845, Control_c, 0, 64, 54
1, 263845, Control_c, 0, 67, 68
1, 263860, Control_c, 0, 64, 52
1, 263860, Control_c, 0, 67, 68
1, 263869, Note_off_c, 0, 51, 66
1, 263875, Control_c, 0, 64, 51
1, 263890, Control_c, 0, 64, 49
1, 263890, Control_c, 0, 67, 69
1, 263912, Control_c, 0, 64, 48
1, 263912, Control_c, 0, 67, 69
1, 263927, Control_c, 0, 64, 47
1, 263929, Note_on_c, 0, 51, 65
1, 263942, Control_c, 0, 64, 47
1, 263950, Note_off_c, 0, 51, 59
1, 263957, Control_c, 0, 64, 46
1, 263972, Control_c, 0, 64, 46
1, 263986, Control_c, 0, 64, 45
1, 263988, Note_on_c, 0, 51, 67
1, 264001, Control_c, 0, 64, 44
1, 264012, Note_off_c, 0, 51, 67
1, 264016, Control_c, 0, 64, 44
1, 264030, Control_c, 0, 64, 43
1, 264045, Control_c, 0, 64, 43
1, 264062, Note_on_c, 0, 51, 75
1, 264075, Control_c, 0, 64, 42
1, 264090, Note_off_c, 0, 51, 67
1, 264125, Note_on_c, 0, 51, 70
1, 264149, Control_c, 0, 64, 42
1, 264150, Note_off_c, 0, 51, 67
1, 264196, Note_on_c, 0, 51, 79
1, 264219, Note_off_c, 0, 51, 68
1, 264223, Control_c, 0, 64, 41
1, 264253, Control_c, 0, 64, 41
1, 264262, Note_on_c, 0, 51, 80
1, 264289, Note_off_c, 0, 51, 66
1, 264297, Control_c, 0, 64, 40
1, 264328, Note_on_c, 0, 51, 80
1, 264342, Control_c, 0, 64, 40
1, 264352, Note_off_c, 0, 51, 63
1, 264385, Note_on_c, 0, 51, 73
1, 264415, Note_off_c, 0, 51, 67
1, 264430, Control_c, 0, 64, 39
1, 264451, Note_on_c, 0, 51, 74
1, 264460, Control_c, 0, 67, 70
1, 264469, Note_off_c, 0, 51, 68
1, 264511, Note_on_c, 0, 51, 85
1, 264531, Note_off_c, 0, 51, 71
1, 264575, Note_on_c, 0, 51, 84
1, 264621, Note_off_c, 0, 51, 63
1, 264653, Note_on_c, 0, 51, 72
1, 264680, Note_off_c, 0, 51, 66
1, 264692, Control_c, 0, 67, 70
1, 264719, Note_on_c, 0, 51, 82
1, 264722, Control_c, 0, 67, 71
1, 264740, Note_off_c, 0, 51, 68
1, 264766, Control_c, 0, 67, 71
1, 264777, Note_on_c, 0, 51, 86
1, 264811, Note_off_c, 0, 51, 67
1, 264825, Control_c, 0, 67, 72
1, 264850, Note_on_c, 0, 51, 73
1, 264873, Note_off_c, 0, 51, 67
1, 264884, Control_c, 0, 67, 72
1, 264914, Control_c, 0, 67, 73
1, 264917, Note_on_c, 0, 51, 83
1, 264942, Note_off_c, 0, 51, 67
1, 264943, Control_c, 0, 67, 73
1, 264973, Control_c, 0, 67, 74
1, 264988, Control_c, 0, 67, 75
1, 264990, Note_on_c, 0, 51, 76
1, 265002, Control_c, 0, 67, 75
1, 265014, Note_off_c, 0, 51, 67
1, 265032, Control_c, 0, 67, 76
1, 265046, Control_c, 0, 67, 76
1, 265059, Note_on_c, 0, 51, 78
1, 265085, Note_off_c, 0, 51, 67
1, 265091, Control_c, 0, 67, 77
1, 265121, Control_c, 0, 64, 39
1, 265130, Note_on_c, 0, 51, 69
1, 265136, Control_c, 0, 67, 77
1, 265154, Note_off_c, 0, 51, 56
1, 265165, Control_c, 0, 64, 38
1, 265180, Control_c, 0, 67, 78
1, 265186, Note_on_c, 0, 51, 61
1, 265195, Control_c, 0, 67, 78
1, 265209, Note_off_c, 0, 51, 67
1, 265210, Control_c, 0, 67, 79
1, 265225, Control_c, 0, 67, 80
1, 265239, Control_c, 0, 64, 38
1, 265239, Control_c, 0, 67, 80
1, 265254, Control_c, 0, 64, 37
1, 265254, Control_c, 0, 67, 82
1, 265261, Note_on_c, 0, 51, 69
1, 265269, Control_c, 0, 64, 33
1, 265269, Control_c, 0, 67, 84
1, 265284, Control_c, 0, 64, 18
1, 265284, Control_c, 0, 67, 88
1, 265289, Note_off_c, 0, 51, 66
1, 265299, Control_c, 0, 64, 0
1, 265299, Control_c, 0, 67, 92
1, 265314, Control_c, 0, 67, 96
1, 265330, Note_on_c, 0, 51, 59
1, 265330, Control_c, 0, 67, 100
1, 265344, Control_c, 0, 67, 105
1, 265355, Note_off_c, 0, 51, 63
1, 265359, Control_c, 0, 67, 109
1, 265374, Control_c, 0, 67, 113
1, 265389, Control_c, 0, 67, 115
1, 265389, Note_on_c, 0, 51, 61
1, 265410, Control_c, 0, 64, 12
1, 265410, Control_c, 0, 67, 116
1, 265425, Control_c, 0, 64, 46
1, 265425, Control_c, 0, 67, 117
1, 265428, Note_off_c, 0, 51, 64
1, 265440, Control_c, 0, 64, 62
1, 265440, Control_c, 0, 67, 117
1, 265455, Control_c, 0, 64, 65
1, 265455, Control_c, 0, 67, 118
1, 265470, Control_c, 0, 64, 67
1, 265470, Control_c, 0, 67, 120
1, 265473, Note_on_c, 0, 51, 69
1, 265485, Control_c, 0, 64, 70
1, 265485, Control_c, 0, 67, 122
1, 265500, Control_c, 0, 64, 73
1, 265500, Control_c, 0, 67, 125
1, 265500, Note_off_c, 0, 51, 64
1, 265504, Note_off_c, 0, 64, 60
1, 265510, Note_off_c, 0, 59, 58
1, 265514, Control_c, 0, 64, 77
1, 265514, Control_c, 0, 67, 127
1, 265529, Control_c, 0, 64, 80
1, 265537, Note_off_c, 0, 56, 54
1, 265541, Note_off_c, 0, 52, 36
1, 265544, Note_on_c, 0, 51, 63
1, 265544, Control_c, 0, 64, 81
1, 265559, Control_c, 0, 64, 83
1, 265566, Note_off_c, 0, 51, 62
1, 265574, Control_c, 0, 64, 84
1, 265578, Note_off_c, 0, 50, 31
1, 265589, Control_c, 0, 64, 84
1, 265613, Note_on_c, 0, 51, 56
1, 265618, Control_c, 0, 64, 85
1, 265640, Note_off_c, 0, 51, 68
1, 265690, Note_on_c, 0, 51, 56
1, 265713, Note_off_c, 0, 51, 56
1, 265722, Control_c, 0, 64, 85
1, 265765, Note_on_c, 0, 51, 51
1, 265781, Control_c, 0, 64, 85
1, 265783, Note_on_c, 0, 50, 49
1, 265784, Note_on_c, 0, 59, 57
1, 265785, Note_on_c, 0, 56, 42
1, 265789, Note_on_c, 0, 52, 45
1, 265795, Control_c, 0, 64, 84
1, 265810, Control_c, 0, 64, 81
1, 265812, Note_off_c, 0, 51, 0
1, 265825, Control_c, 0, 64, 75
1, 265827, Note_on_c, 0, 51, 37
1, 265840, Control_c, 0, 64, 69
1, 265855, Control_c, 0, 64, 61
1, 265869, Control_c, 0, 64, 52
1, 265882, Note_off_c, 0, 51, 0
1, 265884, Control_c, 0, 64, 44
1, 265895, Note_on_c, 0, 51, 43
1, 265899, Control_c, 0, 64, 42
1, 265925, Note_off_c, 0, 51, 64
1, 265971, Note_on_c, 0, 51, 58
1, 266024, Note_off_c, 0, 51, 0
1, 266034, Note_on_c, 0, 51, 50
1, 266066, Note_off_c, 0, 51, 65
1, 266107, Note_on_c, 0, 51, 59
1, 266132, Note_off_c, 0, 51, 64
1, 266137, Control_c, 0, 64, 41
1, 266188, Note_on_c, 0, 51, 61
1, 266214, Note_off_c, 0, 51, 63
1, 266260, Note_on_c, 0, 51, 53
1, 266292, Note_off_c, 0, 51, 64
1, 266329, Note_on_c, 0, 51, 52
1, 266356, Note_off_c, 0, 51, 62
1, 266400, Note_on_c, 0, 51, 55
1, 266430, Note_off_c, 0, 51, 65
1, 266471, Note_on_c, 0, 51, 50
1, 266503, Note_off_c, 0, 51, 65
1, 266543, Note_on_c, 0, 51, 51
1, 266570, Note_off_c, 0, 51, 65
1, 266620, Note_on_c, 0, 51, 59
1, 266648, Note_off_c, 0, 51, 66
1, 266690, Note_on_c, 0, 51, 54
1, 266721, Note_off_c, 0, 51, 65
1, 266764, Note_on_c, 0, 51, 58
1, 266792, Note_off_c, 0, 51, 65
1, 266846, Note_on_c, 0, 51, 58
1, 266870, Control_c, 0, 64, 42
1, 266871, Note_off_c, 0, 51, 63
1, 266916, Note_on_c, 0, 51, 56
1, 266946, Note_off_c, 0, 51, 65
1, 267002, Note_on_c, 0, 51, 60
1, 267030, Note_off_c, 0, 51, 64
1, 267082, Note_on_c, 0, 51, 61
1, 267111, Note_off_c, 0, 51, 66
1, 267160, Note_on_c, 0, 51, 58
1, 267192, Note_off_c, 0, 51, 65
1, 267245, Note_on_c, 0, 51, 56
1, 267276, Note_off_c, 0, 51, 65
1, 267338, Note_on_c, 0, 51, 58
1, 267367, Note_off_c, 0, 51, 65
1, 267437, Note_on_c, 0, 51, 53
1, 267461, Note_off_c, 0, 51, 58
1, 267535, Note_on_c, 0, 51, 52
1, 267560, Note_off_c, 0, 51, 54
1, 267669, Note_on_c, 0, 51, 44
1, 267713, Note_off_c, 0, 51, 63
1, 267716, Control_c, 0, 64, 41
1, 267724, Note_off_c, 0, 52, 61
1, 267725, Note_off_c, 0, 59, 61
1, 267729, Note_off_c, 0, 56, 62
1, 267742, Note_off_c, 0, 50, 61
1, 267746, Control_c, 0, 64, 41
1, 267776, Control_c, 0, 64, 40
1, 268688, Control_c, 0, 64, 41
1, 268746, Control_c, 0, 64, 41
1, 268776, Control_c, 0, 64, 42
1, 268835, Control_c, 0, 64, 42
1, 268880, Control_c, 0, 64, 43
1, 268925, Control_c, 0, 64, 43
1, 268954, Control_c, 0, 64, 44
1, 269028, Control_c, 0, 64, 44
1, 269132, Control_c, 0, 64, 45
1, 269288, Control_c, 0, 64, 45
1, 269348, Control_c, 0, 64, 46
1, 269407, Control_c, 0, 64, 46
1, 269664, Note_on_c, 0, 31, 39
1, 269732, Control_c, 0, 64, 46
1, 269777, Control_c, 0, 64, 45
1, 269822, Control_c, 0, 64, 45
1, 269866, Control_c, 0, 64, 44
1, 269917, Control_c, 0, 64, 44
1, 269962, Control_c, 0, 64, 43
1, 269977, Control_c, 0, 64, 43
1, 270007, Control_c, 0, 64, 42
1, 270022, Control_c, 0, 64, 42
1, 270036, Control_c, 0, 64, 41
1, 270051, Control_c, 0, 64, 41
1, 270058, Note_off_c, 0, 31, 50
1, 270066, Control_c, 0, 64, 40
1, 270080, Note_on_c, 0, 32, 33
1, 270095, Control_c, 0, 64, 40
1, 270110, Control_c, 0, 64, 39
1, 270141, Control_c, 0, 64, 39
1, 270318, Control_c, 0, 64, 38
1, 270570, Control_c, 0, 64, 39
1, 270618, Note_on_c, 0, 39, 25
1, 270621, Note_off_c, 0, 32, 34
1, 270844, Control_c, 0, 64, 38
1, 270866, Note_off_c, 0, 39, 62
1, 270873, Control_c, 0, 64, 38
1, 270888, Control_c, 0, 64, 37
1, 270903, Control_c, 0, 64, 37
1, 271363, Control_c, 0, 64, 36
1, 271401, Control_c, 0, 64, 36
1, 271415, Control_c, 0, 64, 35
1, 271430, Control_c, 0, 64, 34
1, 271445, Control_c, 0, 64, 33
1, 271460, Control_c, 0, 64, 31
1, 271474, Control_c, 0, 64, 30
1, 271489, Control_c, 0, 64, 29
1, 271504, Control_c, 0, 64, 28
1, 271519, Control_c, 0, 64, 27
1, 271534, Control_c, 0, 64, 26
1, 271578, Control_c, 0, 64, 27
1, 271593, Control_c, 0, 64, 28
1, 271608, Control_c, 0, 64, 30
1, 271622, Control_c, 0, 64, 33
1, 271637, Control_c, 0, 64, 37
1, 271652, Control_c, 0, 64, 40
1, 271667, Control_c, 0, 64, 44
1, 271682, Control_c, 0, 64, 47
1, 271697, Control_c, 0, 64, 49
1, 271712, Control_c, 0, 64, 50
1, 271727, Control_c, 0, 64, 52
1, 271742, Control_c, 0, 64, 54
1, 271757, Control_c, 0, 64, 56
1, 271771, Control_c, 0, 64, 59
1, 271786, Control_c, 0, 64, 61
1, 271801, Control_c, 0, 64, 62
1, 271801, Control_c, 0, 67, 125
1, 271816, Control_c, 0, 64, 63
1, 271816, Control_c, 0, 67, 123
1, 271831, Control_c, 0, 64, 64
1, 271831, Control_c, 0, 67, 120
1, 271846, Control_c, 0, 64, 65
1, 271846, Control_c, 0, 67, 117
1, 271861, Control_c, 0, 64, 66
1, 271861, Control_c, 0, 67, 115
1, 271876, Control_c, 0, 64, 68
1, 271876, Control_c, 0, 67, 112
1, 271890, Control_c, 0, 64, 69
1, 271890, Control_c, 0, 67, 110
1, 271905, Control_c, 0, 64, 71
1, 271905, Control_c, 0, 67, 107
1, 271920, Control_c, 0, 64, 73
1, 271920, Control_c, 0, 67, 104
1, 271935, Control_c, 0, 64, 76
1, 271935, Control_c, 0, 67, 100
1, 271950, Control_c, 0, 64, 78
1, 271950, Control_c, 0, 67, 95
1, 271964, Control_c, 0, 64, 81
1, 271964, Control_c, 0, 67, 89
1, 271979, Control_c, 0, 64, 83
1, 271979, Control_c, 0, 67, 82
1, 271994, Control_c, 0, 64, 87
1, 271994, Control_c, 0, 67, 76
1, 272009, Control_c, 0, 64, 92
1, 272009, Control_c, 0, 67, 70
1, 272024, Control_c, 0, 64, 97
1, 272024, Control_c, 0, 67, 63
1, 272038, Control_c, 0, 64, 105
1, 272038, Control_c, 0, 67, 57
1, 272053, Control_c, 0, 64, 113
1, 272053, Control_c, 0, 67, 50
1, 272068, Control_c, 0, 64, 127
1, 272068, Control_c, 0, 67, 42
1, 272082, Control_c, 0, 67, 32
1, 272097, Control_c, 0, 67, 23
1, 272112, Control_c, 0, 67, 12
1, 272127, Control_c, 0, 67, 0
1, 272165, Note_on_c, 0, 44, 69
1, 272165, Note_on_c, 0, 52, 66
1, 272165, Note_on_c, 0, 38, 64
1, 272179, Note_on_c, 0, 47, 49
1, 272180, Note_on_c, 0, 51, 56
1, 272186, Note_on_c, 0, 40, 42
1, 272192, Note_off_c, 0, 44, 66
1, 272192, Note_off_c, 0, 52, 63
1, 272192, Note_off_c, 0, 38, 65
1, 272205, Note_off_c, 0, 51, 51
1, 272205, Note_off_c, 0, 47, 37
1, 272220, Note_off_c, 0, 40, 33
1, 272434, Note_on_c, 0, 51, 41
1, 272460, Note_off_c, 0, 51, 51
1, 272566, Note_on_c, 0, 44, 15
1, 272575, Note_on_c, 0, 52, 20
1, 272579, Poly_aftertouch_c, 0, 38, 127
1, 272588, Note_on_c, 0, 51, 34
1, 272591, Note_on_c, 0, 47, 31
1, 272646, Note_off_c, 0, 51, 64
1, 272689, Note_on_c, 0, 51, 47
1, 272690, Poly_aftertouch_c, 0, 40, 127
1, 272719, Note_off_c, 0, 51, 65
1, 272747, Poly_aftertouch_c, 0, 40, 0
1, 272779, Note_on_c, 0, 51, 63
1, 272784, Poly_aftertouch_c, 0, 40, 127
1, 272808, Note_off_c, 0, 51, 64
1, 272858, Note_on_c, 0, 51, 53
1, 272887, Note_off_c, 0, 51, 52
1, 272898, Control_c, 0, 64, 114
1, 272913, Control_c, 0, 64, 107
1, 272928, Control_c, 0, 64, 103
1, 272931, Note_on_c, 0, 51, 57
1, 272943, Control_c, 0, 64, 100
1, 272957, Note_off_c, 0, 51, 64
1, 272958, Control_c, 0, 64, 97
1, 272973, Control_c, 0, 64, 95
1, 272987, Control_c, 0, 64, 94
1, 273002, Control_c, 0, 64, 92
1, 273004, Note_on_c, 0, 51, 66
1, 273017, Control_c, 0, 64, 91
1, 273032, Control_c, 0, 64, 90
1, 273032, Control_c, 0, 67, 8
1, 273033, Note_off_c, 0, 51, 65
1, 273046, Control_c, 0, 64, 88
1, 273046, Control_c, 0, 67, 8
1, 273061, Control_c, 0, 64, 86
1, 273061, Control_c, 0, 67, 9
1, 273065, Note_on_c, 0, 51, 64
1, 273076, Control_c, 0, 64, 85
1, 273076, Control_c, 0, 67, 9
1, 273089, Note_off_c, 0, 51, 66
1, 273091, Control_c, 0, 64, 83
1, 273091, Control_c, 0, 67, 10
1, 273106, Control_c, 0, 64, 82
1, 273106, Control_c, 0, 67, 11
1, 273120, Control_c, 0, 64, 81
1, 273120, Control_c, 0, 67, 12
1, 273131, Note_on_c, 0, 51, 80
1, 273135, Control_c, 0, 64, 79
1, 273135, Control_c, 0, 67, 13
1, 273150, Control_c, 0, 64, 77
1, 273150, Control_c, 0, 67, 14
1, 273157, Note_off_c, 0, 51, 66
1, 273165, Control_c, 0, 64, 75
1, 273165, Control_c, 0, 67, 15
1, 273180, Control_c, 0, 64, 74
1, 273180, Control_c, 0, 67, 16
1, 273194, Control_c, 0, 64, 72
1, 273201, Note_on_c, 0, 51, 74
1, 273209, Control_c, 0, 64, 71
1, 273209, Control_c, 0, 67, 16
1, 273221, Note_off_c, 0, 51, 70
1, 273224, Control_c, 0, 64, 69
1, 273238, Control_c, 0, 64, 67
1, 273238, Control_c, 0, 67, 17
1, 273253, Control_c, 0, 64, 66
1, 273268, Note_on_c, 0, 51, 85
1, 273268, Control_c, 0, 64, 64
1, 273268, Control_c, 0, 67, 17
1, 273283, Control_c, 0, 64, 64
1, 273283, Control_c, 0, 67, 18
1, 273295, Note_off_c, 0, 51, 68
1, 273298, Control_c, 0, 64, 63
1, 273314, Control_c, 0, 64, 62
1, 273314, Control_c, 0, 67, 18
1, 273329, Control_c, 0, 64, 62
1, 273341, Note_on_c, 0, 51, 68
1, 273343, Control_c, 0, 64, 61
1, 273343, Control_c, 0, 67, 19
1, 273358, Control_c, 0, 64, 60
1, 273358, Control_c, 0, 67, 19
1, 273363, Note_off_c, 0, 51, 67
1, 273388, Control_c, 0, 64, 60
1, 273388, Control_c, 0, 67, 20
1, 273402, Control_c, 0, 64, 59
1, 273410, Note_on_c, 0, 51, 80
1, 273417, Control_c, 0, 64, 59
1, 273417, Control_c, 0, 67, 20
1, 273429, Note_off_c, 0, 51, 71
1, 273432, Control_c, 0, 64, 58
1, 273447, Control_c, 0, 64, 57
1, 273447, Control_c, 0, 67, 21
1, 273462, Control_c, 0, 64, 56
1, 273469, Note_on_c, 0, 51, 87
1, 273476, Control_c, 0, 64, 54
1, 273476, Control_c, 0, 67, 21
1, 273491, Control_c, 0, 64, 53
1, 273491, Control_c, 0, 67, 22
1, 273492, Note_off_c, 0, 51, 71
1, 273506, Control_c, 0, 64, 52
1, 273506, Control_c, 0, 67, 23
1, 273521, Control_c, 0, 64, 51
1, 273521, Control_c, 0, 67, 23
1, 273536, Control_c, 0, 64, 50
1, 273536, Control_c, 0, 67, 24
1, 273538, Note_on_c, 0, 51, 82
1, 273551, Control_c, 0, 64, 49
1, 273551, Control_c, 0, 67, 24
1, 273559, Note_off_c, 0, 51, 68
1, 273566, Control_c, 0, 64, 48
1, 273566, Control_c, 0, 67, 25
1, 273581, Control_c, 0, 67, 26
1, 273596, Control_c, 0, 64, 48
1, 273596, Control_c, 0, 67, 26
1, 273601, Note_on_c, 0, 51, 88
1, 273610, Control_c, 0, 64, 47
1, 273610, Control_c, 0, 67, 27
1, 273632, Control_c, 0, 64, 47
1, 273632, Control_c, 0, 67, 28
1, 273633, Note_off_c, 0, 51, 67
1, 273647, Control_c, 0, 64, 46
1, 273647, Control_c, 0, 67, 28
1, 273661, Control_c, 0, 64, 46
1, 273661, Control_c, 0, 67, 29
1, 273676, Control_c, 0, 64, 45
1, 273676, Control_c, 0, 67, 30
1, 273679, Note_on_c, 0, 51, 83
1, 273691, Control_c, 0, 67, 31
1, 273706, Note_off_c, 0, 51, 69
1, 273706, Control_c, 0, 64, 45
1, 273706, Control_c, 0, 67, 32
1, 273721, Control_c, 0, 64, 44
1, 273721, Control_c, 0, 67, 34
1, 273736, Control_c, 0, 64, 44
1, 273736, Control_c, 0, 67, 35
1, 273745, Note_on_c, 0, 51, 88
1, 273751, Control_c, 0, 67, 36
1, 273766, Control_c, 0, 67, 37
1, 273768, Note_off_c, 0, 51, 67
1, 273780, Control_c, 0, 64, 43
1, 273780, Control_c, 0, 67, 39
1, 273795, Control_c, 0, 67, 41
1, 273806, Note_on_c, 0, 51, 91
1, 273810, Control_c, 0, 64, 43
1, 273810, Control_c, 0, 67, 42
1, 273825, Control_c, 0, 67, 44
1, 273835, Note_off_c, 0, 51, 69
1, 273840, Control_c, 0, 64, 42
1, 273840, Control_c, 0, 67, 46
1, 273855, Control_c, 0, 64, 42
1, 273855, Control_c, 0, 67, 49
1, 273869, Control_c, 0, 67, 52
1, 273876, Note_on_c, 0, 51, 76
1, 273884, Control_c, 0, 64, 41
1, 273884, Control_c, 0, 67, 56
1, 273897, Note_off_c, 0, 51, 70
1, 273899, Control_c, 0, 67, 60
1, 273914, Control_c, 0, 64, 41
1, 273914, Control_c, 0, 67, 64
1, 273929, Control_c, 0, 67, 67
1, 273933, Note_on_c, 0, 51, 75
1, 273943, Control_c, 0, 64, 40
1, 273943, Control_c, 0, 67, 71
1, 273958, Control_c, 0, 67, 74
1, 273962, Note_off_c, 0, 51, 67
1, 273973, Control_c, 0, 67, 76
1, 273988, Control_c, 0, 67, 79
1, 273992, Poly_aftertouch_c, 0, 51, 0
1, 273997, Note_on_c, 0, 51, 74
1, 274003, Control_c, 0, 67, 81
1, 274017, Control_c, 0, 67, 83
1, 274024, Note_off_c, 0, 51, 69
1, 274032, Control_c, 0, 67, 85
1, 274047, Control_c, 0, 67, 86
1, 274061, Control_c, 0, 67, 89
1, 274076, Note_on_c, 0, 51, 62
1, 274076, Control_c, 0, 67, 92
1, 274091, Control_c, 0, 67, 97
1, 274103, Note_off_c, 0, 51, 37
1, 274106, Control_c, 0, 67, 100
1, 274122, Control_c, 0, 67, 102
1, 274137, Control_c, 0, 64, 41
1, 274137, Control_c, 0, 67, 104
1, 274152, Control_c, 0, 67, 106
1, 274161, Note_on_c, 0, 49, 58
1, 274166, Control_c, 0, 64, 41
1, 274166, Control_c, 0, 67, 108
1, 274181, Control_c, 0, 64, 42
1, 274181, Control_c, 0, 67, 110
1, 274186, Note_off_c, 0, 49, 49
1, 274196, Control_c, 0, 67, 112
1, 274211, Control_c, 0, 64, 42
1, 274211, Control_c, 0, 67, 113
1, 274214, Note_on_c, 0, 51, 56
1, 274225, Control_c, 0, 64, 43
1, 274225, Control_c, 0, 67, 115
1, 274240, Control_c, 0, 64, 44
1, 274240, Control_c, 0, 67, 116
1, 274255, Control_c, 0, 64, 45
1, 274255, Control_c, 0, 67, 117
1, 274256, Note_off_c, 0, 51, 0
1, 274267, Note_on_c, 0, 51, 63
1, 274270, Control_c, 0, 64, 45
1, 274270, Control_c, 0, 67, 118
1, 274284, Control_c, 0, 64, 46
1, 274284, Control_c, 0, 67, 120
1, 274298, Note_off_c, 0, 51, 66
1, 274299, Control_c, 0, 67, 120
1, 274314, Control_c, 0, 67, 122
1, 274329, Control_c, 0, 67, 124
1, 274335, Note_on_c, 0, 51, 76
1, 274344, Control_c, 0, 67, 127
1, 274359, Control_c, 0, 67, 127
1, 274368, Note_off_c, 0, 51, 65
1, 274415, Note_on_c, 0, 51, 60
1, 274448, Note_off_c, 0, 51, 64
1, 274486, Note_on_c, 0, 51, 73
1, 274514, Control_c, 0, 64, 47
1, 274515, Note_off_c, 0, 51, 65
1, 274544, Control_c, 0, 64, 48
1, 274558, Control_c, 0, 64, 49
1, 274561, Note_on_c, 0, 51, 71
1, 274573, Control_c, 0, 64, 51
1, 274588, Control_c, 0, 64, 53
1, 274592, Note_off_c, 0, 51, 65
1, 274603, Control_c, 0, 64, 55
1, 274618, Control_c, 0, 64, 58
1, 274631, Note_on_c, 0, 51, 69
1, 274633, Control_c, 0, 64, 60
1, 274648, Control_c, 0, 64, 62
1, 274655, Note_off_c, 0, 51, 67
1, 274663, Control_c, 0, 64, 64
1, 274678, Control_c, 0, 64, 66
1, 274692, Control_c, 0, 64, 69
1, 274700, Note_on_c, 0, 51, 74
1, 274707, Control_c, 0, 64, 72
1, 274709, Note_off_c, 0, 52, 58
1, 274717, Note_off_c, 0, 51, 66
1, 274722, Control_c, 0, 64, 74
1, 274734, Note_off_c, 0, 47, 57
1, 274737, Control_c, 0, 64, 76
1, 274752, Control_c, 0, 64, 77
1, 274766, Control_c, 0, 64, 79
1, 274770, Note_on_c, 0, 51, 72
1, 274774, Note_off_c, 0, 44, 59
1, 274781, Control_c, 0, 64, 81
1, 274788, Poly_aftertouch_c, 0, 38, 0
1, 274789, Poly_aftertouch_c, 0, 40, 0
1, 274796, Control_c, 0, 64, 83
1, 274797, Note_off_c, 0, 51, 64
1, 274810, Control_c, 0, 64, 84
1, 274825, Control_c, 0, 64, 85
1, 274840, Control_c, 0, 64, 86
1, 274845, Note_on_c, 0, 51, 67
1, 274870, Control_c, 0, 64, 86
1, 274873, Note_off_c, 0, 51, 64
1, 274899, Control_c, 0, 64, 87
1, 274915, Control_c, 0, 64, 87
1, 274931, Note_on_c, 0, 51, 63
1, 274948, Note_off_c, 0, 51, 66
1, 274981, Note_on_c, 0, 44, 58
1, 274983, Note_on_c, 0, 47, 65
1, 274993, Note_on_c, 0, 38, 40
1, 274994, Note_on_c, 0, 40, 42
1, 275004, Control_c, 0, 64, 87
1, 275014, Note_on_c, 0, 51, 59
1, 275019, Control_c, 0, 64, 86
1, 275033, Control_c, 0, 64, 83
1, 275035, Note_off_c, 0, 51, 58
1, 275048, Control_c, 0, 64, 78
1, 275063, Control_c, 0, 64, 72
1, 275078, Control_c, 0, 64, 65
1, 275090, Note_on_c, 0, 51, 58
1, 275093, Control_c, 0, 64, 57
1, 275107, Control_c, 0, 64, 51
1, 275122, Control_c, 0, 64, 49
1, 275143, Note_off_c, 0, 51, 0
1, 275155, Note_on_c, 0, 51, 52
1, 275175, Control_c, 0, 64, 50
1, 275180, Note_off_c, 0, 51, 65
1, 275234, Note_on_c, 0, 51, 60
1, 275263, Control_c, 0, 64, 49
1, 275283, Note_off_c, 0, 51, 0
1, 275295, Note_on_c, 0, 51, 47
1, 275324, Note_off_c, 0, 51, 63
1, 275366, Note_on_c, 0, 51, 58
1, 275393, Note_off_c, 0, 51, 65
1, 275446, Note_on_c, 0, 51, 66
1, 275467, Note_off_c, 0, 51, 65
1, 275517, Note_on_c, 0, 51, 63
1, 275545, Note_off_c, 0, 51, 65
1, 275589, Control_c, 0, 64, 49
1, 275593, Note_on_c, 0, 51, 64
1, 275617, Note_off_c, 0, 51, 54
1, 275670, Note_on_c, 0, 51, 57
1, 275694, Note_off_c, 0, 51, 52
1, 275737, Note_on_c, 0, 51, 57
1, 275767, Note_off_c, 0, 51, 65
1, 275816, Note_on_c, 0, 51, 65
1, 275837, Note_off_c, 0, 51, 62
1, 275856, Control_c, 0, 64, 48
1, 275909, Note_on_c, 0, 51, 61
1, 275932, Note_off_c, 0, 51, 55
1, 275987, Note_on_c, 0, 51, 62
1, 276011, Note_off_c, 0, 51, 63
1, 276062, Note_on_c, 0, 51, 65
1, 276088, Note_off_c, 0, 51, 66
1, 276153, Note_on_c, 0, 51, 65
1, 276183, Note_off_c, 0, 51, 64
1, 276244, Note_on_c, 0, 51, 60
1, 276264, Control_c, 0, 64, 49
1, 276274, Note_off_c, 0, 51, 64
1, 276331, Note_on_c, 0, 51, 60
1, 276353, Note_off_c, 0, 51, 62
1, 276422, Note_on_c, 0, 51, 67
1, 276445, Note_off_c, 0, 51, 62
1, 276525, Note_on_c, 0, 51, 65
1, 276556, Note_off_c, 0, 51, 64
1, 276650, Note_on_c, 0, 51, 65
1, 276681, Note_off_c, 0, 51, 65
1, 276700, Control_c, 0, 64, 48
1, 276804, Note_on_c, 0, 51, 57
1, 276836, Note_off_c, 0, 51, 64
1, 276848, Control_c, 0, 64, 48
1, 277097, Note_on_c, 0, 51, 58
1, 277121, Note_off_c, 0, 51, 63
1, 277139, Note_off_c, 0, 40, 62
1, 277145, Note_off_c, 0, 44, 62
1, 277145, Control_c, 0, 64, 47
1, 277146, Note_off_c, 0, 47, 62
1, 277155, Note_off_c, 0, 38, 62
1, 278747, Control_c, 0, 64, 48
1, 278791, Control_c, 0, 64, 48
1, 278836, Control_c, 0, 64, 49
1, 278850, Control_c, 0, 64, 49
1, 278903, Control_c, 0, 64, 50
1, 278933, Control_c, 0, 64, 50
1, 278948, Control_c, 0, 64, 51
1, 278962, Control_c, 0, 64, 52
1, 278977, Control_c, 0, 64, 52
1, 278992, Control_c, 0, 64, 53
1, 279021, Control_c, 0, 64, 54
1, 279036, Control_c, 0, 64, 54
1, 279066, Control_c, 0, 64, 55
1, 279081, Control_c, 0, 64, 55
1, 279095, Control_c, 0, 64, 56
1, 279110, Control_c, 0, 64, 56
1, 279125, Control_c, 0, 64, 57
1, 279140, Control_c, 0, 64, 57
1, 279155, Control_c, 0, 64, 58
1, 279170, Control_c, 0, 64, 59
1, 279185, Control_c, 0, 64, 60
1, 279199, Control_c, 0, 64, 61
1, 279214, Control_c, 0, 64, 62
1, 279229, Control_c, 0, 64, 62
1, 279244, Control_c, 0, 64, 63
1, 279259, Control_c, 0, 64, 64
1, 279273, Control_c, 0, 64, 65
1, 279288, Control_c, 0, 64, 66
1, 279303, Control_c, 0, 64, 67
1, 279318, Control_c, 0, 64, 68
1, 279332, Control_c, 0, 64, 69
1, 279347, Control_c, 0, 64, 71
1, 279362, Control_c, 0, 64, 73
1, 279377, Control_c, 0, 64, 74
1, 279392, Control_c, 0, 64, 75
1, 279406, Control_c, 0, 64, 76
1, 279421, Control_c, 0, 64, 78
1, 279436, Control_c, 0, 64, 80
1, 279451, Control_c, 0, 64, 81
1, 279466, Control_c, 0, 64, 84
1, 279480, Control_c, 0, 64, 86
1, 279495, Control_c, 0, 64, 88
1, 279510, Control_c, 0, 64, 90
1, 279525, Control_c, 0, 64, 93
1, 279540, Control_c, 0, 64, 96
1, 279554, Control_c, 0, 64, 99
1, 279569, Control_c, 0, 64, 106
1, 279584, Control_c, 0, 64, 115
1, 279599, Control_c, 0, 64, 127
1, 279666, Control_c, 0, 67, 126
1, 279680, Control_c, 0, 67, 124
1, 279695, Control_c, 0, 67, 123
1, 279711, Control_c, 0, 67, 121
1, 279726, Control_c, 0, 67, 119
1, 279741, Control_c, 0, 67, 117
1, 279755, Control_c, 0, 67, 115
1, 279770, Control_c, 0, 67, 113
1, 279785, Control_c, 0, 67, 110
1, 279800, Control_c, 0, 67, 108
1, 279815, Control_c, 0, 67, 107
1, 279829, Control_c, 0, 67, 105
1, 279844, Control_c, 0, 67, 103
1, 279859, Control_c, 0, 67, 101
1, 279874, Control_c, 0, 67, 98
1, 279889, Control_c, 0, 67, 94
1, 279903, Control_c, 0, 67, 91
1, 279918, Control_c, 0, 67, 87
1, 279933, Control_c, 0, 67, 85
1, 279948, Control_c, 0, 67, 83
1, 279963, Control_c, 0, 67, 81
1, 279978, Control_c, 0, 67, 80
1, 279993, Control_c, 0, 67, 79
1, 280008, Control_c, 0, 67, 78
1, 280022, Control_c, 0, 67, 77
1, 280172, Note_on_c, 0, 21, 23
1, 280303, Control_c, 0, 67, 78
1, 280362, Control_c, 0, 67, 78
1, 280415, Control_c, 0, 67, 79
1, 280505, Control_c, 0, 67, 79
1, 280578, Control_c, 0, 67, 80
1, 280810, Note_on_c, 0, 22, 28
1, 280821, Note_off_c, 0, 21, 36
1, 281277, Note_on_c, 0, 27, 31
1, 281278, Note_off_c, 0, 22, 24
1, 281427, Note_off_c, 0, 27, 47
1, 281490, Control_c, 0, 67, 80
1, 281564, Control_c, 0, 67, 81
1, 281646, Note_on_c, 0, 26, 11
1, 281647, Note_on_c, 0, 28, 11
1, 281666, Note_on_c, 0, 31, 24
1, 281739, Note_off_c, 0, 26, 55
1, 281741, Note_off_c, 0, 28, 55
1, 281972, Note_off_c, 0, 31, 44
1, 282016, Note_on_c, 0, 32, 41
1, 282090, Control_c, 0, 67, 81
1, 282210, Control_c, 0, 67, 81
1, 282306, Note_off_c, 0, 32, 39
1, 282313, Control_c, 0, 67, 80
1, 282316, Note_on_c, 0, 39, 42
1, 282387, Control_c, 0, 67, 80
1, 282416, Control_c, 0, 67, 79
1, 282441, Note_off_c, 0, 39, 33
1, 282446, Control_c, 0, 67, 79
1, 282461, Control_c, 0, 67, 78
1, 282491, Control_c, 0, 67, 78
1, 282550, Control_c, 0, 67, 77
1, 282607, Note_on_c, 0, 31, 40
1, 282690, Control_c, 0, 67, 77
1, 282780, Control_c, 0, 67, 76
1, 282805, Note_off_c, 0, 31, 52
1, 282831, Note_on_c, 0, 32, 42
1, 282839, Control_c, 0, 67, 76
1, 282868, Control_c, 0, 67, 75
1, 282883, Control_c, 0, 67, 74
1, 282899, Control_c, 0, 67, 72
1, 282914, Control_c, 0, 67, 70
1, 282929, Control_c, 0, 67, 68
1, 282944, Control_c, 0, 67, 67
1, 282959, Control_c, 0, 67, 65
1, 282973, Control_c, 0, 67, 64
1, 282988, Control_c, 0, 67, 63
1, 283003, Control_c, 0, 67, 62
1, 283018, Control_c, 0, 67, 61
1, 283024, Note_on_c, 0, 39, 44
1, 283033, Control_c, 0, 67, 59
1, 283047, Control_c, 0, 67, 58
1, 283061, Note_off_c, 0, 32, 36
1, 283062, Control_c, 0, 67, 58
1, 283077, Control_c, 0, 67, 57
1, 283091, Control_c, 0, 67, 56
1, 283106, Control_c, 0, 67, 55
1, 283117, Note_off_c, 0, 39, 60
1, 283121, Control_c, 0, 67, 54
1, 283136, Control_c, 0, 67, 54
1, 283151, Control_c, 0, 67, 53
1, 283165, Control_c, 0, 67, 52
1, 283173, Note_on_c, 0, 38, 40
1, 283179, Note_on_c, 0, 40, 39
1, 283180, Control_c, 0, 67, 51
1, 283182, Note_on_c, 0, 43, 22
1, 283195, Control_c, 0, 67, 50
1, 283210, Control_c, 0, 67, 48
1, 283225, Control_c, 0, 67, 46
1, 283239, Control_c, 0, 67, 44
1, 283254, Control_c, 0, 67, 42
1, 283269, Control_c, 0, 67, 40
1, 283284, Control_c, 0, 67, 38
1, 283299, Control_c, 0, 67, 36
1, 283313, Control_c, 0, 67, 34
1, 283328, Note_on_c, 0, 44, 36
1, 283328, Control_c, 0, 67, 31
1, 283333, Note_off_c, 0, 38, 34
1, 283343, Control_c, 0, 67, 29
1, 283354, Note_off_c, 0, 40, 37
1, 283358, Control_c, 0, 67, 26
1, 283380, Control_c, 0, 67, 24
1, 283386, Note_off_c, 0, 43, 51
1, 283395, Control_c, 0, 67, 21
1, 283410, Control_c, 0, 67, 19
1, 283425, Control_c, 0, 67, 17
1, 283440, Control_c, 0, 67, 17
1, 283454, Control_c, 0, 67, 16
1, 283469, Control_c, 0, 67, 16
1, 283483, Note_on_c, 0, 51, 49
1, 283484, Control_c, 0, 67, 15
1, 283489, Note_off_c, 0, 44, 53
1, 283498, Control_c, 0, 67, 15
1, 283528, Control_c, 0, 67, 14
1, 283532, Note_off_c, 0, 51, 57
1, 283573, Control_c, 0, 67, 14
1, 283603, Note_on_c, 0, 43, 44
1, 283696, Note_on_c, 0, 44, 56
1, 283699, Note_off_c, 0, 43, 59
1, 283737, Control_c, 0, 67, 13
1, 283789, Note_off_c, 0, 44, 61
1, 283792, Note_on_c, 0, 51, 58
1, 283835, Note_off_c, 0, 51, 62
1, 283898, Note_on_c, 0, 50, 51
1, 283904, Note_on_c, 0, 55, 43
1, 283904, Note_on_c, 0, 52, 52
1, 283931, Note_on_c, 0, 56, 54
1, 283984, Note_off_c, 0, 50, 62
1, 283994, Note_off_c, 0, 52, 62
1, 283997, Note_off_c, 0, 55, 60
1, 284020, Note_on_c, 0, 63, 57
1, 284026, Note_off_c, 0, 56, 63
1, 284049, Note_off_c, 0, 63, 65
1, 284117, Note_on_c, 0, 55, 62
1, 284172, Note_off_c, 0, 55, 63
1, 284174, Control_c, 0, 67, 14
1, 284183, Note_on_c, 0, 56, 64
1, 284203, Control_c, 0, 67, 14
1, 284215, Note_off_c, 0, 56, 62
1, 284233, Control_c, 0, 67, 15
1, 284237, Note_on_c, 0, 63, 68
1, 284247, Control_c, 0, 67, 15
1, 284262, Control_c, 0, 67, 16
1, 284263, Note_off_c, 0, 63, 67
1, 284277, Control_c, 0, 67, 16
1, 284292, Control_c, 0, 67, 17
1, 284295, Note_on_c, 0, 67, 60
1, 284299, Note_on_c, 0, 62, 59
1, 284302, Note_on_c, 0, 64, 53
1, 284307, Control_c, 0, 67, 17
1, 284321, Control_c, 0, 67, 18
1, 284328, Note_on_c, 0, 68, 65
1, 284336, Control_c, 0, 67, 19
1, 284348, Note_off_c, 0, 62, 65
1, 284351, Control_c, 0, 67, 20
1, 284357, Note_off_c, 0, 67, 63
1, 284357, Note_off_c, 0, 64, 62
1, 284364, Note_off_c, 0, 68, 62
1, 284366, Control_c, 0, 67, 21
1, 284373, Note_on_c, 0, 75, 73
1, 284381, Control_c, 0, 67, 23
1, 284395, Control_c, 0, 67, 22
1, 284400, Note_off_c, 0, 75, 64
1, 284410, Control_c, 0, 67, 18
1, 284425, Control_c, 0, 67, 11
1, 284440, Control_c, 0, 67, 0
1, 284461, Note_on_c, 0, 67, 42
1, 284488, Note_off_c, 0, 67, 51
1, 284489, Note_on_c, 0, 69, 14
1, 284523, Note_on_c, 0, 68, 29
1, 284540, Note_off_c, 0, 69, 64
1, 284548, Note_off_c, 0, 68, 61
1, 284584, Note_on_c, 0, 75, 72
1, 284606, Note_off_c, 0, 75, 70
1, 284625, Note_on_c, 0, 74, 71
1, 284625, Note_on_c, 0, 76, 65
1, 284628, Note_on_c, 0, 79, 68
1, 284655, Note_on_c, 0, 80, 70
1, 284670, Note_off_c, 0, 74, 64
1, 284679, Note_off_c, 0, 76, 62
1, 284682, Note_off_c, 0, 79, 64
1, 284699, Note_on_c, 0, 87, 80
1, 284702, Note_off_c, 0, 80, 63
1, 284721, Note_off_c, 0, 87, 68
1, 284742, Note_on_c, 0, 79, 82
1, 284780, Note_off_c, 0, 79, 65
1, 284806, Note_on_c, 0, 80, 78
1, 284826, Note_off_c, 0, 80, 66
1, 284871, Note_on_c, 0, 87, 91
1, 284907, Note_off_c, 0, 87, 66
1, 284934, Note_on_c, 0, 91, 68
1, 284936, Note_on_c, 0, 86, 59
1, 284945, Note_on_c, 0, 88, 62
1, 284957, Note_on_c, 0, 92, 75
1, 285002, Note_on_c, 0, 99, 86
1, 285006, Note_off_c, 0, 91, 62
1, 285018, Note_off_c, 0, 92, 64
1, 285026, Note_off_c, 0, 86, 52
1, 285026, Control_c, 0, 64, 111
1, 285039, Note_off_c, 0, 88, 51
1, 285041, Control_c, 0, 64, 84
1, 285056, Control_c, 0, 64, 70
1, 285057, Note_off_c, 0, 99, 66
1, 285070, Control_c, 0, 64, 61
1, 285085, Control_c, 0, 64, 59
1, 285100, Control_c, 0, 64, 62
1, 285105, Note_on_c, 0, 80, 51
1, 285115, Control_c, 0, 64, 69
1, 285120, Note_on_c, 0, 91, 63
1, 285123, Note_on_c, 0, 87, 56
1, 285130, Control_c, 0, 64, 80
1, 285144, Control_c, 0, 64, 94
1, 285146, Note_off_c, 0, 80, 57
1, 285153, Note_off_c, 0, 87, 66
1, 285156, Note_off_c, 0, 91, 60
1, 285159, Control_c, 0, 64, 111
1, 285174, Control_c, 0, 64, 127
1, 285199, Note_on_c, 0, 88, 40
1, 285200, Note_on_c, 0, 100, 54
1, 285209, Note_on_c, 0, 92, 39
1, 285223, Note_off_c, 0, 100, 58
1, 285227, Note_on_c, 0, 86, 32
1, 285233, Note_off_c, 0, 92, 50
1, 285237, Note_off_c, 0, 88, 45
1, 285257, Note_off_c, 0, 86, 33
1, 285289, Note_on_c, 0, 87, 52
1, 285289, Note_on_c, 0, 91, 49
1, 285296, Note_on_c, 0, 80, 42
1, 285309, Note_off_c, 0, 91, 58
1, 285314, Note_off_c, 0, 87, 64
1, 285320, Note_off_c, 0, 80, 55
1, 285337, Note_on_c, 0, 92, 49
1, 285346, Note_on_c, 0, 88, 53
1, 285347, Note_on_c, 0, 100, 30
1, 285351, Note_on_c, 0, 86, 48
1, 285366, Note_off_c, 0, 100, 51
1, 285367, Note_off_c, 0, 92, 62
1, 285368, Note_off_c, 0, 88, 55
1, 285370, Note_on_c, 0, 98, 7
1, 285370, Note_off_c, 0, 86, 60
1, 285389, Note_off_c, 0, 98, 34
1, 285398, Note_on_c, 0, 80, 54
1, 285403, Note_on_c, 0, 87, 63
1, 285403, Note_on_c, 0, 91, 53
1, 285430, Note_off_c, 0, 91, 55
1, 285432, Note_off_c, 0, 80, 63
1, 285433, Note_off_c, 0, 87, 64
1, 285454, Note_on_c, 0, 100, 56
1, 285456, Note_on_c, 0, 92, 58
1, 285457, Note_on_c, 0, 88, 56
1, 285463, Note_on_c, 0, 86, 47
1, 285472, Note_off_c, 0, 100, 63
1, 285483, Note_off_c, 0, 88, 52
1, 285483, Note_off_c, 0, 92, 64
1, 285484, Note_off_c, 0, 86, 61
1, 285519, Note_on_c, 0, 91, 64
1, 285522, Note_on_c, 0, 80, 58
1, 285529, Note_on_c, 0, 87, 63
1, 285544, Note_off_c, 0, 80, 63
1, 285547, Note_off_c, 0, 91, 60
1, 285553, Note_off_c, 0, 87, 65
1, 285558, Note_on_c, 0, 100, 57
1, 285566, Note_on_c, 0, 92, 56
1, 285567, Note_on_c, 0, 88, 60
1, 285571, Note_on_c, 0, 86, 50
1, 285580, Note_off_c, 0, 100, 66
1, 285584, Note_off_c, 0, 92, 62
1, 285587, Note_on_c, 0, 98, 9
1, 285588, Note_off_c, 0, 88, 57
1, 285592, Note_off_c, 0, 86, 63
1, 285602, Note_off_c, 0, 98, 33
1, 285627, Note_on_c, 0, 80, 60
1, 285632, Note_on_c, 0, 91, 65
1, 285634, Note_on_c, 0, 87, 67
1, 285655, Note_off_c, 0, 80, 65
1, 285657, Note_off_c, 0, 87, 69
1, 285659, Note_off_c, 0, 91, 62
1, 285669, Note_on_c, 0, 100, 64
1, 285673, Note_on_c, 0, 92, 61
1, 285674, Note_on_c, 0, 88, 63
1, 285677, Note_on_c, 0, 86, 61
1, 285691, Note_off_c, 0, 100, 66
1, 285695, Note_off_c, 0, 92, 63
1, 285702, Note_off_c, 0, 86, 66
1, 285704, Note_off_c, 0, 88, 61
1, 285736, Note_on_c, 0, 80, 54
1, 285742, Note_on_c, 0, 91, 68
1, 285752, Note_on_c, 0, 87, 60
1, 285756, Note_off_c, 0, 80, 60
1, 285758, Note_off_c, 0, 91, 65
1, 285767, Note_on_c, 0, 100, 70
1, 285768, Note_off_c, 0, 87, 65
1, 285774, Note_on_c, 0, 92, 62
1, 285779, Note_on_c, 0, 88, 63
1, 285785, Note_on_c, 0, 86, 61
1, 285790, Note_off_c, 0, 92, 64
1, 285791, Note_on_c, 0, 98, 4
1, 285791, Note_off_c, 0, 100, 71
1, 285796, Note_off_c, 0, 88, 62
1, 285802, Note_off_c, 0, 98, 45
1, 285803, Note_off_c, 0, 86, 65
1, 285829, Note_on_c, 0, 80, 59
1, 285832, Note_on_c, 0, 87, 77
1, 285834, Note_on_c, 0, 91, 76
1, 285853, Note_off_c, 0, 87, 70
1, 285856, Note_off_c, 0, 80, 65
1, 285861, Note_off_c, 0, 91, 62
1, 285868, Note_on_c, 0, 92, 64
1, 285869, Note_on_c, 0, 88, 68
1, 285874, Note_on_c, 0, 86, 65
1, 285878, Note_on_c, 0, 100, 64
1, 285892, Note_off_c, 0, 92, 64
1, 285894, Note_off_c, 0, 88, 62
1, 285894, Note_off_c, 0, 100, 66
1, 285898, Note_off_c, 0, 86, 68
1, 285929, Note_on_c, 0, 80, 60
1, 285929, Note_on_c, 0, 87, 83
1, 285937, Note_on_c, 0, 91, 72
1, 285946, Note_off_c, 0, 80, 65
1, 285949, Note_off_c, 0, 87, 71
1, 285953, Note_off_c, 0, 91, 65
1, 285963, Poly_aftertouch_c, 0, 98, 0
1, 285963, Note_on_c, 0, 100, 73
1, 285965, Note_on_c, 0, 98, 43
1, 285966, Note_on_c, 0, 92, 72
1, 285971, Note_on_c, 0, 88, 61
1, 285974, Note_on_c, 0, 86, 63
1, 285981, Note_off_c, 0, 92, 65
1, 285986, Note_off_c, 0, 100, 70
1, 285987, Note_off_c, 0, 88, 65
1, 285991, Note_off_c, 0, 98, 52
1, 285996, Note_off_c, 0, 86, 65
1, 286015, Note_on_c, 0, 80, 66
1, 286020, Note_on_c, 0, 91, 80
1, 286027, Note_on_c, 0, 87, 82
1, 286043, Note_off_c, 0, 87, 68
1, 286045, Note_off_c, 0, 80, 57
1, 286048, Note_off_c, 0, 91, 61
1, 286055, Note_on_c, 0, 88, 77
1, 286055, Note_on_c, 0, 92, 70
1, 286058, Note_on_c, 0, 98, 73
1, 286059, Note_on_c, 0, 100, 79
1, 286060, Note_on_c, 0, 86, 74
1, 286078, Note_off_c, 0, 92, 68
1, 286078, Note_off_c, 0, 100, 71
1, 286081, Note_off_c, 0, 98, 70
1, 286082, Note_off_c, 0, 86, 65
1, 286086, Note_off_c, 0, 88, 61
1, 286111, Note_on_c, 0, 87, 83
1, 286112, Note_on_c, 0, 80, 72
1, 286115, Note_on_c, 0, 91, 89
1, 286135, Note_off_c, 0, 80, 66
1, 286139, Note_off_c, 0, 91, 62
1, 286141, Note_off_c, 0, 87, 61
1, 286155, Note_on_c, 0, 100, 75
1, 286156, Note_on_c, 0, 88, 76
1, 286160, Note_on_c, 0, 86, 61
1, 286164, Note_on_c, 0, 92, 65
1, 286176, Note_on_c, 0, 98, 46
1, 286177, Note_off_c, 0, 88, 67
1, 286177, Note_off_c, 0, 100, 70
1, 286179, Note_off_c, 0, 92, 65
1, 286185, Note_off_c, 0, 86, 68
1, 286201, Note_off_c, 0, 98, 42
1, 286210, Note_on_c, 0, 91, 87
1, 286211, Note_on_c, 0, 80, 69
1, 286212, Note_on_c, 0, 87, 88
1, 286228, Note_off_c, 0, 80, 63
1, 286232, Note_off_c, 0, 91, 60
1, 286235, Note_off_c, 0, 87, 67
1, 286247, Note_on_c, 0, 92, 80
1, 286249, Note_on_c, 0, 100, 79
1, 286250, Note_on_c, 0, 88, 80
1, 286253, Note_on_c, 0, 86, 76
1, 286267, Note_off_c, 0, 92, 69
1, 286270, Note_off_c, 0, 100, 71
1, 286271, Note_on_c, 0, 98, 46
1, 286272, Note_off_c, 0, 98, 127
1, 286272, Note_off_c, 0, 88, 68
1, 286274, Note_off_c, 0, 86, 71
1, 286295, Note_on_c, 0, 80, 71
1, 286297, Note_on_c, 0, 91, 97
1, 286302, Note_on_c, 0, 87, 90
1, 286317, Note_off_c, 0, 80, 61
1, 286324, Note_off_c, 0, 87, 65
1, 286327, Note_off_c, 0, 91, 53
1, 286339, Note_on_c, 0, 88, 90
1, 286344, Note_on_c, 0, 100, 79
1, 286345, Note_on_c, 0, 86, 81
1, 286347, Note_on_c, 0, 92, 73
1, 286357, Note_on_c, 0, 98, 59
1, 286368, Note_off_c, 0, 88, 67
1, 286368, Note_off_c, 0, 92, 45
1, 286370, Note_off_c, 0, 86, 72
1, 286372, Note_off_c, 0, 100, 71
1, 286384, Note_off_c, 0, 98, 45
1, 286399, Note_on_c, 0, 91, 93
1, 286399, Note_on_c, 0, 80, 68
1, 286400, Note_on_c, 0, 87, 95
1, 286418, Note_off_c, 0, 91, 63
1, 286423, Note_off_c, 0, 80, 67
1, 286432, Note_off_c, 0, 87, 61
1, 286437, Note_on_c, 0, 92, 88
1, 286440, Note_on_c, 0, 88, 93
1, 286441, Note_on_c, 0, 86, 85
1, 286441, Note_on_c, 0, 98, 81
1, 286443, Note_on_c, 0, 100, 83
1, 286455, Note_off_c, 0, 92, 70
1, 286460, Note_off_c, 0, 86, 67
1, 286461, Note_off_c, 0, 88, 63
1, 286461, Note_off_c, 0, 98, 71
1, 286461, Note_off_c, 0, 100, 72
1, 286485, Note_on_c, 0, 91, 98
1, 286491, Note_on_c, 0, 87, 93
1, 286492, Note_on_c, 0, 80, 72
1, 286513, Note_off_c, 0, 91, 60
1, 286515, Note_off_c, 0, 80, 65
1, 286526, Note_off_c, 0, 87, 61
1, 286528, Note_on_c, 0, 86, 81
1, 286529, Note_on_c, 0, 88, 101
1, 286530, Note_on_c, 0, 92, 91
1, 286534, Note_on_c, 0, 98, 84
1, 286534, Note_on_c, 0, 100, 87
1, 286545, Note_off_c, 0, 92, 73
1, 286551, Note_off_c, 0, 88, 57
1, 286551, Note_off_c, 0, 98, 67
1, 286553, Note_off_c, 0, 100, 72
1, 286554, Note_off_c, 0, 86, 60
1, 286574, Note_on_c, 0, 91, 100
1, 286577, Note_on_c, 0, 80, 79
1, 286578, Note_on_c, 0, 87, 98
1, 286596, Note_off_c, 0, 80, 69
1, 286601, Note_off_c, 0, 91, 68
1, 286613, Note_on_c, 0, 98, 73
1, 286614, Note_off_c, 0, 87, 65
1, 286618, Note_on_c, 0, 88, 101
1, 286619, Note_on_c, 0, 86, 95
1, 286620, Note_on_c, 0, 92, 90
1, 286621, Note_on_c, 0, 100, 95
1, 286634, Note_off_c, 0, 92, 75
1, 286639, Note_off_c, 0, 98, 63
1, 286639, Note_off_c, 0, 100, 68
1, 286646, Note_off_c, 0, 88, 59
1, 286649, Note_off_c, 0, 86, 59
1, 286661, Note_on_c, 0, 91, 104
1, 286664, Note_on_c, 0, 80, 76
1, 286667, Note_on_c, 0, 87, 97
1, 286685, Note_off_c, 0, 80, 68
1, 286691, Note_off_c, 0, 91, 67
1, 286704, Note_off_c, 0, 87, 65
1, 286707, Note_on_c, 0, 88, 97
1, 286709, Note_on_c, 0, 92, 90
1, 286709, Note_on_c, 0, 86, 94
1, 286709, Note_on_c, 0, 100, 96
1, 286713, Note_on_c, 0, 98, 89
1, 286723, Note_off_c, 0, 92, 69
1, 286730, Note_off_c, 0, 98, 73
1, 286730, Note_off_c, 0, 100, 63
1, 286736, Note_off_c, 0, 88, 59
1, 286741, Note_off_c, 0, 86, 58
1, 286749, Note_on_c, 0, 91, 111
1, 286753, Note_on_c, 0, 80, 87
1, 286754, Note_on_c, 0, 87, 98
1, 286768, Note_off_c, 0, 80, 71
1, 286778, Note_off_c, 0, 91, 67
1, 286789, Note_off_c, 0, 87, 68
1, 286793, Note_on_c, 0, 88, 99
1, 286795, Note_on_c, 0, 92, 96
1, 286799, Note_on_c, 0, 86, 96
1, 286800, Note_on_c, 0, 98, 94
1, 286800, Note_on_c, 0, 100, 93
1, 286813, Note_off_c, 0, 92, 66
1, 286816, Note_off_c, 0, 98, 73
1, 286816, Note_off_c, 0, 100, 72
1, 286831, Note_off_c, 0, 88, 55
1, 286833, Note_off_c, 0, 86, 58
1, 286835, Note_on_c, 0, 91, 120
1, 286837, Note_on_c, 0, 80, 77
1, 286839, Note_on_c, 0, 87, 95
1, 286857, Note_off_c, 0, 80, 66
1, 286860, Note_off_c, 0, 91, 70
1, 286879, Note_off_c, 0, 87, 68
1, 286882, Note_on_c, 0, 88, 109
1, 286886, Note_on_c, 0, 92, 97
1, 286888, Note_on_c, 0, 100, 97
1, 286888, Note_on_c, 0, 98, 92
1, 286890, Note_on_c, 0, 86, 101
1, 286906, Note_off_c, 0, 92, 62
1, 286907, Note_off_c, 0, 98, 66
1, 286913, Note_off_c, 0, 100, 62
1, 286922, Note_on_c, 0, 91, 105
1, 286922, Note_on_c, 0, 97, 25
1, 286923, Note_off_c, 0, 97, 127
1, 286925, Note_off_c, 0, 88, 59
1, 286926, Note_on_c, 0, 80, 85
1, 286926, Note_off_c, 0, 86, 61
1, 286927, Note_on_c, 0, 87, 95
1, 286944, Note_off_c, 0, 80, 69
1, 286947, Note_off_c, 0, 91, 68
1, 286964, Note_off_c, 0, 87, 67
1, 286971, Note_on_c, 0, 88, 97
1, 286974, Note_on_c, 0, 92, 98
1, 286977, Note_on_c, 0, 86, 90
1, 286978, Note_on_c, 0, 100, 101
1, 286980, Note_on_c, 0, 98, 105
1, 286995, Note_off_c, 0, 98, 72
1, 287001, Note_off_c, 0, 92, 63
1, 287003, Note_off_c, 0, 100, 61
1, 287004, Note_on_c, 0, 91, 108
1, 287006, Poly_aftertouch_c, 0, 87, 0
1, 287011, Note_on_c, 0, 87, 98
1, 287013, Note_on_c, 0, 80, 87
1, 287014, Note_off_c, 0, 86, 63
1, 287015, Note_off_c, 0, 88, 61
1, 287029, Note_off_c, 0, 80, 72
1, 287034, Note_off_c, 0, 91, 72
1, 287047, Note_on_c, 0, 89, 29
1, 287048, Note_off_c, 0, 89, 127
1, 287048, Note_off_c, 0, 87, 68
1, 287054, Note_on_c, 0, 88, 97
1, 287063, Note_on_c, 0, 98, 98
1, 287063, Note_on_c, 0, 100, 98
1, 287065, Note_on_c, 0, 86, 80
1, 287071, Note_on_c, 0, 92, 69
1, 287074, Poly_aftertouch_c, 0, 89, 0
1, 287075, Note_on_c, 0, 93, 72
1, 287086, Note_on_c, 0, 97, 55
1, 287087, Note_off_c, 0, 97, 127
1, 287087, Note_off_c, 0, 92, 61
1, 287089, Note_off_c, 0, 93, 67
1, 287091, Note_on_c, 0, 91, 111
1, 287095, Note_off_c, 0, 98, 60
1, 287096, Note_on_c, 0, 80, 85
1, 287099, Note_on_c, 0, 87, 97
1, 287099, Note_off_c, 0, 100, 60
1, 287100, Note_off_c, 0, 88, 62
1, 287102, Note_off_c, 0, 86, 61
1, 287122, Note_off_c, 0, 80, 70
1, 287129, Note_off_c, 0, 91, 70
1, 287141, Note_off_c, 0, 87, 67
1, 287156, Note_on_c, 0, 88, 97
1, 287156, Note_on_c, 0, 92, 97
1, 287159, Note_on_c, 0, 100, 92
1, 287162, Note_on_c, 0, 98, 91
1, 287162, Note_on_c, 0, 86, 90
1, 287183, Note_off_c, 0, 98, 64
1, 287187, Note_off_c, 0, 92, 66
1, 287189, Note_on_c, 0, 91, 108
1, 287192, Note_off_c, 0, 100, 61
1, 287194, Note_on_c, 0, 80, 78
1, 287198, Note_on_c, 0, 87, 93
1, 287201, Note_off_c, 0, 88, 61
1, 287203, Note_off_c, 0, 86, 62
1, 287218, Note_off_c, 0, 80, 58
1, 287226, Note_off_c, 0, 91, 66
1, 287231, Note_off_c, 0, 87, 63
1, 287253, Note_on_c, 0, 88, 87
1, 287258, Note_on_c, 0, 100, 89
1, 287261, Note_on_c, 0, 86, 83
1, 287261, Note_on_c, 0, 92, 86
1, 287262, Note_on_c, 0, 98, 88
1, 287279, Note_off_c, 0, 92, 69
1, 287279, Note_off_c, 0, 98, 70
1, 287286, Note_off_c, 0, 100, 57
1, 287290, Note_on_c, 0, 91, 98
1, 287291, Note_off_c, 0, 88, 58
1, 287293, Note_off_c, 0, 86, 57
1, 287297, Note_on_c, 0, 80, 77
1, 287302, Note_on_c, 0, 87, 69
1, 287314, Note_off_c, 0, 80, 66
1, 287324, Note_off_c, 0, 87, 69
1, 287333, Note_off_c, 0, 91, 63
1, 287353, Note_on_c, 0, 92, 80
1, 287353, Note_on_c, 0, 100, 82
1, 287355, Note_on_c, 0, 88, 77
1, 287357, Note_on_c, 0, 98, 81
1, 287361, Note_on_c, 0, 86, 76
1, 287373, Note_off_c, 0, 92, 68
1, 287377, Note_off_c, 0, 98, 69
1, 287380, Note_off_c, 0, 100, 56
1, 287385, Note_off_c, 0, 86, 60
1, 287389, Note_off_c, 0, 88, 61
1, 287391, Note_on_c, 0, 80, 55
1, 287398, Note_on_c, 0, 91, 84
1, 287406, Note_on_c, 0, 87, 75
1, 287427, Note_off_c, 0, 80, 53
1, 287429, Note_off_c, 0, 87, 70
1, 287444, Note_off_c, 0, 91, 61
1, 287457, Note_on_c, 0, 92, 76
1, 287457, Note_on_c, 0, 88, 76
1, 287459, Note_on_c, 0, 86, 62
1, 287459, Note_on_c, 0, 98, 75
1, 287459, Note_on_c, 0, 100, 75
1, 287475, Note_off_c, 0, 92, 62
1, 287482, Note_off_c, 0, 98, 67
1, 287483, Note_off_c, 0, 100, 67
1, 287488, Note_off_c, 0, 88, 55
1, 287489, Note_off_c, 0, 86, 58
1, 287520, Note_on_c, 0, 91, 71
1, 287528, Note_on_c, 0, 87, 62
1, 287531, Note_on_c, 0, 80, 39
1, 287543, Note_off_c, 0, 87, 67
1, 287547, Note_off_c, 0, 91, 60
1, 287555, Note_on_c, 0, 100, 73
1, 287559, Note_off_c, 0, 80, 46
1, 287567, Note_on_c, 0, 92, 36
1, 287569, Note_on_c, 0, 88, 65
1, 287575, Note_on_c, 0, 86, 49
1, 287579, Note_off_c, 0, 100, 69
1, 287579, Note_on_c, 0, 98, 48
1, 287587, Note_off_c, 0, 88, 59
1, 287591, Note_off_c, 0, 92, 44
1, 287592, Note_off_c, 0, 86, 64
1, 287601, Note_off_c, 0, 98, 53
1, 287630, Note_on_c, 0, 91, 73
1, 287633, Note_on_c, 0, 80, 60
1, 287633, Note_on_c, 0, 87, 57
1, 287654, Note_off_c, 0, 87, 63
1, 287654, Note_off_c, 0, 80, 60
1, 287660, Note_off_c, 0, 91, 56
1, 287666, Note_on_c, 0, 100, 63
1, 287667, Note_on_c, 0, 98, 57
1, 287668, Note_on_c, 0, 88, 60
1, 287668, Note_on_c, 0, 92, 59
1, 287670, Note_on_c, 0, 86, 55
1, 287684, Note_off_c, 0, 100, 64
1, 287685, Note_off_c, 0, 92, 62
1, 287685, Note_off_c, 0, 98, 64
1, 287699, Note_off_c, 0, 88, 50
1, 287700, Note_off_c, 0, 86, 59
1, 287740, Note_on_c, 0, 80, 50
1, 287742, Note_on_c, 0, 91, 68
1, 287743, Note_on_c, 0, 87, 60
1, 287758, Note_on_c, 0, 100, 66
1, 287764, Note_off_c, 0, 80, 56
1, 287767, Note_on_c, 0, 98, 55
1, 287769, Note_off_c, 0, 87, 65
1, 287773, Note_off_c, 0, 91, 53
1, 287775, Note_on_c, 0, 92, 46
1, 287787, Note_off_c, 0, 98, 62
1, 287788, Note_on_c, 0, 86, 51
1, 287788, Note_on_c, 0, 88, 55
1, 287788, Note_off_c, 0, 100, 64
1, 287797, Note_off_c, 0, 92, 51
1, 287807, Note_off_c, 0, 88, 58
1, 287812, Note_off_c, 0, 86, 58
1, 287852, Note_on_c, 0, 91, 61
1, 287864, Note_on_c, 0, 87, 58
1, 287865, Note_on_c, 0, 80, 43
1, 287883, Note_off_c, 0, 91, 53
1, 287892, Note_on_c, 0, 92, 39
1, 287892, Note_off_c, 0, 87, 66
1, 287893, Note_off_c, 0, 80, 53
1, 287898, Note_on_c, 0, 86, 58
1, 287905, Note_on_c, 0, 88, 47
1, 287910, Note_on_c, 0, 100, 28
1, 287917, Note_off_c, 0, 92, 51
1, 287925, Note_off_c, 0, 88, 56
1, 287931, Note_off_c, 0, 86, 47
1, 287937, Note_off_c, 0, 100, 35
1, 287974, Note_on_c, 0, 91, 56
1, 287978, Note_on_c, 0, 80, 49
1, 287979, Note_on_c, 0, 87, 59
1, 287995, Note_off_c, 0, 91, 54
1, 288002, Note_off_c, 0, 80, 57
1, 288006, Note_on_c, 0, 92, 37
1, 288008, Note_off_c, 0, 87, 67
1, 288029, Note_on_c, 0, 86, 39
1, 288032, Note_off_c, 0, 92, 48
1, 288059, Note_off_c, 0, 86, 51
1, 288093, Note_on_c, 0, 87, 58
1, 288094, Note_on_c, 0, 91, 49
1, 288095, Note_on_c, 0, 80, 34
1, 288117, Note_off_c, 0, 91, 50
1, 288122, Note_off_c, 0, 87, 66
1, 288127, Note_on_c, 0, 92, 39
1, 288128, Note_off_c, 0, 80, 50
1, 288128, Note_on_c, 0, 86, 44
1, 288153, Note_off_c, 0, 92, 52
1, 288154, Note_on_c, 0, 98, 17
1, 288160, Note_off_c, 0, 86, 50
1, 288172, Note_off_c, 0, 98, 35
1, 288222, Note_on_c, 0, 91, 39
1, 288225, Note_on_c, 0, 87, 44
1, 288248, Note_off_c, 0, 87, 61
1, 288248, Note_off_c, 0, 91, 44
1, 288357, Note_on_c, 0, 87, 15
1, 288363, Note_on_c, 0, 91, 5
1, 288397, Note_off_c, 0, 87, 41
1, 288408, Note_off_c, 0, 91, 28
1, 288553, Poly_aftertouch_c, 0, 86, 0
1, 289697, Control_c, 0, 64, 89
1, 289712, Control_c, 0, 64, 66
1, 289727, Control_c, 0, 64, 45
1, 289741, Control_c, 0, 64, 14
1, 289756, Control_c, 0, 64, 0
1, 290067, Control_c, 0, 64, 11
1, 290083, Control_c, 0, 64, 16
1, 290098, Control_c, 0, 64, 20
1, 290120, Control_c, 0, 64, 27
1, 290135, Control_c, 0, 64, 35
1, 290150, Control_c, 0, 64, 44
1, 290164, Control_c, 0, 64, 50
1, 290179, Control_c, 0, 64, 52
1, 290194, Control_c, 0, 64, 55
1, 290208, Control_c, 0, 64, 58
1, 290223, Control_c, 0, 64, 60
1, 290238, Control_c, 0, 64, 62
1, 290253, Control_c, 0, 64, 64
1, 290268, Control_c, 0, 64, 67
1, 290283, Control_c, 0, 64, 70
1, 290298, Control_c, 0, 64, 74
1, 290313, Control_c, 0, 64, 78
1, 290327, Control_c, 0, 64, 82
1, 290342, Control_c, 0, 64, 90
1, 290357, Control_c, 0, 64, 105
1, 290370, Note_on_c, 0, 75, 90
1, 290372, Control_c, 0, 64, 127
1, 290375, Note_on_c, 0, 70, 87
1, 290378, Note_on_c, 0, 63, 83
1, 290383, Note_on_c, 0, 39, 81
1, 290486, Note_on_c, 0, 46, 80
1, 290494, Note_off_c, 0, 39, 62
1, 290515, Note_off_c, 0, 63, 32
1, 290569, Note_off_c, 0, 75, 55
1, 290581, Note_on_c, 0, 51, 85
1, 290594, Note_off_c, 0, 46, 64
1, 290622, Note_off_c, 0, 70, 60
1, 290634, Note_off_c, 0, 51, 63
1, 290657, Note_on_c, 0, 55, 84
1, 290660, Note_on_c, 0, 76, 96
1, 290664, Note_on_c, 0, 64, 91
1, 290693, Note_off_c, 0, 64, 66
1, 290694, Note_off_c, 0, 55, 65
1, 290705, Note_off_c, 0, 76, 66
1, 290743, Note_on_c, 0, 58, 83
1, 290798, Note_on_c, 0, 63, 82
1, 290798, Note_off_c, 0, 58, 63
1, 290823, Note_off_c, 0, 63, 63
1, 290833, Note_on_c, 0, 64, 46
1, 290859, Note_off_c, 0, 64, 66
1, 290873, Note_on_c, 0, 87, 101
1, 290874, Note_on_c, 0, 67, 69
1, 290875, Note_on_c, 0, 75, 110
1, 290880, Note_on_c, 0, 82, 90
1, 290902, Note_off_c, 0, 67, 67
1, 290922, Note_off_c, 0, 75, 60
1, 290968, Note_on_c, 0, 70, 49
1, 290978, Note_on_c, 0, 69, 60
1, 291004, Note_off_c, 0, 70, 47
1, 291010, Note_off_c, 0, 69, 65
1, 291028, Note_on_c, 0, 75, 82
1, 291070, Note_off_c, 0, 75, 63
1, 291077, Note_on_c, 0, 79, 100
1, 291099, Note_off_c, 0, 87, 65
1, 291134, Note_off_c, 0, 79, 60
1, 291147, Note_on_c, 0, 75, 74
1, 291196, Note_off_c, 0, 75, 64
1, 291214, Note_on_c, 0, 70, 75
1, 291237, Note_off_c, 0, 70, 67
1, 291302, Note_on_c, 0, 67, 74
1, 291336, Note_off_c, 0, 67, 61
1, 291373, Note_on_c, 0, 63, 74
1, 291398, Note_off_c, 0, 82, 61
1, 291424, Note_off_c, 0, 63, 63
1, 291426, Note_on_c, 0, 85, 84
1, 291429, Note_on_c, 0, 73, 91
1, 291437, Note_on_c, 0, 58, 83
1, 291463, Note_off_c, 0, 73, 66
1, 291466, Note_off_c, 0, 85, 63
1, 291471, Note_off_c, 0, 58, 62
1, 291511, Note_on_c, 0, 83, 100
1, 291514, Note_on_c, 0, 71, 97
1, 291528, Note_on_c, 0, 55, 77
1, 291554, Note_off_c, 0, 71, 66
1, 291559, Note_off_c, 0, 83, 63
1, 291567, Note_off_c, 0, 55, 66
1, 291624, Note_on_c, 0, 51, 74
1, 291693, Note_on_c, 0, 46, 65
1, 291704, Note_off_c, 0, 51, 64
1, 291723, Control_c, 0, 64, 92
1, 291737, Control_c, 0, 64, 67
1, 291752, Control_c, 0, 64, 47
1, 291752, Note_off_c, 0, 46, 59
1, 291767, Control_c, 0, 64, 37
1, 291767, Note_on_c, 0, 39, 82
1, 291770, Note_on_c, 0, 82, 93
1, 291777, Note_on_c, 0, 70, 86
1, 291780, Note_on_c, 0, 75, 81
1, 291781, Control_c, 0, 64, 50
1, 291796, Control_c, 0, 64, 65
1, 291811, Control_c, 0, 64, 82
1, 291826, Control_c, 0, 64, 113
1, 291840, Note_off_c, 0, 70, 57
1, 291841, Control_c, 0, 64, 127
1, 291846, Note_on_c, 0, 47, 73
1, 291869, Note_off_c, 0, 39, 62
1, 291891, Note_off_c, 0, 82, 54
1, 291909, Note_off_c, 0, 47, 64
1, 291934, Note_on_c, 0, 52, 73
1, 291980, Note_off_c, 0, 52, 64
1, 292020, Note_on_c, 0, 80, 81
1, 292027, Note_on_c, 0, 68, 84
1, 292032, Note_on_c, 0, 56, 76
1, 292053, Note_off_c, 0, 80, 58
1, 292053, Note_off_c, 0, 68, 66
1, 292061, Note_off_c, 0, 75, 30
1, 292109, Note_on_c, 0, 59, 58
1, 292112, Note_off_c, 0, 56, 59
1, 292138, Note_off_c, 0, 59, 65
1, 292160, Note_on_c, 0, 64, 78
1, 292202, Note_off_c, 0, 64, 65
1, 292208, Note_on_c, 0, 59, 70
1, 292216, Note_on_c, 0, 75, 85
1, 292222, Note_on_c, 0, 63, 81
1, 292250, Note_on_c, 0, 56, 72
1, 292252, Note_off_c, 0, 59, 64
1, 292273, Note_off_c, 0, 56, 68
1, 292280, Note_off_c, 0, 63, 55
1, 292331, Note_on_c, 0, 52, 79
1, 292331, Note_off_c, 0, 75, 36
1, 292343, Control_c, 0, 64, 96
1, 292361, Note_off_c, 0, 52, 65
1, 292365, Control_c, 0, 64, 71
1, 292380, Control_c, 0, 64, 64
1, 292391, Note_on_c, 0, 50, 35
1, 292394, Control_c, 0, 64, 71
1, 292406, Note_on_c, 0, 63, 92
1, 292409, Control_c, 0, 64, 87
1, 292410, Note_on_c, 0, 75, 92
1, 292415, Note_on_c, 0, 37, 87
1, 292416, Note_on_c, 0, 68, 79
1, 292424, Control_c, 0, 64, 127
1, 292426, Note_off_c, 0, 50, 34
1, 292492, Note_on_c, 0, 44, 84
1, 292499, Note_off_c, 0, 63, 64
1, 292509, Note_off_c, 0, 37, 62
1, 292545, Note_on_c, 0, 49, 78
1, 292553, Note_off_c, 0, 68, 33
1, 292558, Note_off_c, 0, 44, 63
1, 292560, Note_off_c, 0, 75, 61
1, 292581, Note_on_c, 0, 52, 82
1, 292587, Note_off_c, 0, 49, 61
1, 292604, Note_on_c, 0, 76, 90
1, 292605, Note_on_c, 0, 64, 91
1, 292609, Note_on_c, 0, 68, 83
1, 292612, Note_off_c, 0, 52, 65
1, 292645, Note_off_c, 0, 64, 67
1, 292647, Note_off_c, 0, 68, 64
1, 292655, Note_off_c, 0, 76, 64
1, 292667, Note_on_c, 0, 56, 85
1, 292718, Note_on_c, 0, 61, 81
1, 292722, Note_off_c, 0, 56, 65
1, 292733, Note_on_c, 0, 58, 30
1, 292748, Note_off_c, 0, 61, 65
1, 292772, Note_off_c, 0, 58, 40
1, 292778, Note_on_c, 0, 70, 108
1, 292780, Note_on_c, 0, 82, 96
1, 292783, Note_on_c, 0, 65, 68
1, 292799, Note_off_c, 0, 82, 66
1, 292801, Note_off_c, 0, 70, 63
1, 292808, Note_off_c, 0, 65, 66
1, 292851, Note_on_c, 0, 68, 80
1, 292901, Note_off_c, 0, 68, 66
1, 292902, Note_on_c, 0, 67, 22
1, 292910, Note_on_c, 0, 73, 88
1, 292927, Note_off_c, 0, 67, 48
1, 292943, Control_c, 0, 64, 74
1, 292945, Note_off_c, 0, 73, 68
1, 292957, Note_on_c, 0, 77, 95
1, 292958, Control_c, 0, 64, 50
1, 292973, Control_c, 0, 64, 35
1, 292988, Control_c, 0, 64, 45
1, 293002, Control_c, 0, 64, 62
1, 293016, Note_off_c, 0, 77, 61
1, 293017, Control_c, 0, 64, 75
1, 293026, Note_on_c, 0, 73, 83
1, 293032, Control_c, 0, 64, 88
1, 293047, Control_c, 0, 64, 103
1, 293062, Control_c, 0, 64, 108
1, 293069, Note_on_c, 0, 68, 78
1, 293076, Control_c, 0, 64, 111
1, 293079, Note_off_c, 0, 73, 65
1, 293091, Control_c, 0, 64, 121
1, 293107, Note_off_c, 0, 68, 64
1, 293114, Control_c, 0, 64, 127
1, 293132, Note_on_c, 0, 65, 78
1, 293153, Note_off_c, 0, 65, 70
1, 293198, Note_on_c, 0, 61, 84
1, 293243, Note_on_c, 0, 56, 87
1, 293249, Note_off_c, 0, 61, 66
1, 293270, Note_off_c, 0, 56, 66
1, 293298, Note_on_c, 0, 53, 86
1, 293320, Note_off_c, 0, 53, 67
1, 293362, Note_on_c, 0, 49, 83
1, 293391, Note_on_c, 0, 48, 58
1, 293398, Note_on_c, 0, 44, 92
1, 293410, Note_off_c, 0, 49, 64
1, 293414, Note_off_c, 0, 48, 55
1, 293425, Control_c, 0, 64, 87
1, 293437, Note_off_c, 0, 44, 66
1, 293440, Control_c, 0, 64, 59
1, 293455, Control_c, 0, 64, 38
1, 293457, Note_on_c, 0, 37, 103
1, 293470, Control_c, 0, 64, 45
1, 293484, Control_c, 0, 64, 62
1, 293499, Control_c, 0, 64, 77
1, 293500, Note_on_c, 0, 36, 32
1, 293508, Note_off_c, 0, 37, 60
1, 293514, Control_c, 0, 64, 103
1, 293529, Control_c, 0, 64, 127
1, 293546, Note_off_c, 0, 36, 32
1, 293555, Poly_aftertouch_c, 0, 38, 0
1, 293603, Note_on_c, 0, 45, 50
1, 293613, Note_on_c, 0, 44, 24
1, 293630, Note_off_c, 0, 45, 60
1, 293638, Note_off_c, 0, 44, 42
1, 293649, Note_on_c, 0, 58, 98
1, 293651, Note_on_c, 0, 51, 63
1, 293675, Note_on_c, 0, 49, 74
1, 293711, Note_off_c, 0, 49, 62
1, 293753, Note_on_c, 0, 53, 69
1, 293795, Note_off_c, 0, 53, 58
1, 293797, Note_on_c, 0, 52, 42
1, 293818, Note_on_c, 0, 49, 74
1, 293824, Note_off_c, 0, 52, 44
1, 293880, Note_off_c, 0, 49, 62
1, 293888, Note_on_c, 0, 44, 77
1, 293915, Note_off_c, 0, 44, 64
1, 293937, Control_c, 0, 64, 88
1, 293950, Note_on_c, 0, 37, 94
1, 293951, Control_c, 0, 64, 60
1, 293966, Control_c, 0, 64, 0
1, 294022, Note_off_c, 0, 37, 61
1, 294029, Note_on_c, 0, 44, 57
1, 294083, Note_off_c, 0, 44, 61
1, 294099, Note_on_c, 0, 49, 75
1, 294155, Note_off_c, 0, 49, 62
1, 294183, Note_on_c, 0, 53, 62
1, 294229, Note_off_c, 0, 53, 64
1, 294257, Note_on_c, 0, 49, 66
1, 294301, Note_off_c, 0, 49, 63
1, 294322, Note_on_c, 0, 44, 70
1, 294354, Note_off_c, 0, 44, 66
1, 294386, Note_on_c, 0, 37, 79
1, 294450, Note_off_c, 0, 37, 61
1, 294486, Note_on_c, 0, 43, 37
1, 294506, Note_off_c, 0, 43, 37
1, 294507, Note_on_c, 0, 44, 4
1, 294508, Note_off_c, 0, 44, 127
1, 294524, Note_on_c, 0, 49, 68
1, 294530, Control_c, 0, 67, 10
1, 294545, Control_c, 0, 67, 12
1, 294553, Note_off_c, 0, 49, 65
1, 294560, Control_c, 0, 67, 14
1, 294575, Control_c, 0, 67, 15
1, 294590, Control_c, 0, 67, 16
1, 294612, Control_c, 0, 67, 16
1, 294614, Note_on_c, 0, 53, 62
1, 294647, Note_off_c, 0, 53, 65
1, 294656, Control_c, 0, 67, 17
1, 294671, Control_c, 0, 67, 17
1, 294675, Note_on_c, 0, 49, 60
1, 294686, Control_c, 0, 67, 18
1, 294700, Control_c, 0, 67, 18
1, 294715, Control_c, 0, 67, 19
1, 294723, Note_off_c, 0, 49, 64
1, 294730, Control_c, 0, 67, 20
1, 294745, Note_on_c, 0, 44, 70
1, 294745, Control_c, 0, 67, 20
1, 294775, Note_off_c, 0, 44, 66
1, 294775, Control_c, 0, 67, 21
1, 294805, Control_c, 0, 67, 22
1, 294806, Note_on_c, 0, 37, 76
1, 294820, Control_c, 0, 67, 22
1, 294834, Control_c, 0, 67, 23
1, 294849, Control_c, 0, 67, 23
1, 294862, Note_off_c, 0, 37, 58
1, 294864, Control_c, 0, 67, 24
1, 294867, Note_on_c, 0, 44, 69
1, 294879, Control_c, 0, 67, 24
1, 294894, Control_c, 0, 67, 25
1, 294930, Note_off_c, 0, 44, 60
1, 294939, Control_c, 0, 67, 25
1, 294942, Note_on_c, 0, 49, 70
1, 294976, Note_off_c, 0, 49, 62
1, 294984, Control_c, 0, 67, 26
1, 295015, Note_on_c, 0, 53, 62
1, 295043, Control_c, 0, 67, 25
1, 295055, Note_off_c, 0, 53, 62
1, 295073, Control_c, 0, 67, 25
1, 295076, Note_on_c, 0, 49, 64
1, 295102, Control_c, 0, 64, 26
1, 295112, Note_off_c, 0, 49, 65
1, 295117, Control_c, 0, 64, 45
1, 295131, Control_c, 0, 64, 58
1, 295131, Control_c, 0, 67, 25
1, 295146, Control_c, 0, 64, 63
1, 295146, Control_c, 0, 67, 26
1, 295148, Note_on_c, 0, 44, 51
1, 295161, Control_c, 0, 64, 66
1, 295161, Control_c, 0, 67, 26
1, 295164, Note_off_c, 0, 58, 59
1, 295176, Control_c, 0, 64, 68
1, 295176, Control_c, 0, 67, 27
1, 295180, Note_off_c, 0, 44, 35
1, 295191, Control_c, 0, 64, 70
1, 295191, Control_c, 0, 67, 27
1, 295192, Note_off_c, 0, 51, 63
1, 295205, Control_c, 0, 64, 73
1, 295205, Control_c, 0, 67, 28
1, 295220, Control_c, 0, 64, 76
1, 295220, Control_c, 0, 67, 29
1, 295235, Control_c, 0, 64, 77
1, 295235, Control_c, 0, 67, 29
1, 295249, Control_c, 0, 64, 77
1, 295249, Control_c, 0, 67, 30
1, 295264, Control_c, 0, 67, 31
1, 295267, Note_on_c, 0, 44, 72
1, 295279, Control_c, 0, 67, 31
1, 295294, Control_c, 0, 64, 77
1, 295299, Poly_aftertouch_c, 0, 38, 0
1, 295303, Note_off_c, 0, 44, 64
1, 295309, Control_c, 0, 64, 76
1, 295309, Control_c, 0, 67, 32
1, 295323, Control_c, 0, 64, 73
1, 295329, Note_on_c, 0, 53, 81
1, 295338, Note_on_c, 0, 47, 75
1, 295338, Control_c, 0, 64, 69
1, 295339, Note_on_c, 0, 49, 64
1, 295360, Control_c, 0, 64, 64
1, 295375, Control_c, 0, 64, 59
1, 295382, Note_off_c, 0, 49, 62
1, 295390, Control_c, 0, 64, 55
1, 295404, Control_c, 0, 64, 53
1, 295404, Control_c, 0, 67, 31
1, 295405, Note_on_c, 0, 44, 64
1, 295419, Control_c, 0, 64, 53
1, 295434, Control_c, 0, 64, 52
1, 295443, Note_off_c, 0, 44, 61
1, 295449, Control_c, 0, 64, 50
1, 295464, Control_c, 0, 64, 46
1, 295464, Control_c, 0, 67, 31
1, 295464, Note_on_c, 0, 37, 65
1, 295478, Control_c, 0, 64, 39
1, 295493, Control_c, 0, 64, 24
1, 295508, Control_c, 0, 64, 0
1, 295523, Control_c, 0, 67, 32
1, 295525, Note_on_c, 0, 44, 75
1, 295534, Note_off_c, 0, 37, 63
1, 295538, Control_c, 0, 67, 33
1, 295553, Control_c, 0, 67, 35
1, 295568, Control_c, 0, 67, 37
1, 295577, Note_off_c, 0, 44, 62
1, 295583, Control_c, 0, 67, 40
1, 295596, Note_on_c, 0, 49, 81
1, 295597, Control_c, 0, 67, 41
1, 295612, Control_c, 0, 67, 42
1, 295634, Note_off_c, 0, 49, 63
1, 295663, Note_on_c, 0, 44, 62
1, 295699, Note_off_c, 0, 44, 64
1, 295730, Note_on_c, 0, 37, 60
1, 295761, Control_c, 0, 67, 41
1, 295791, Control_c, 0, 67, 41
1, 295794, Note_off_c, 0, 37, 60
1, 295795, Note_on_c, 0, 44, 64
1, 295832, Note_off_c, 0, 44, 63
1, 295850, Control_c, 0, 67, 41
1, 295864, Note_on_c, 0, 49, 67
1, 295897, Note_off_c, 0, 49, 62
1, 295918, Note_on_c, 0, 44, 70
1, 295924, Control_c, 0, 67, 42
1, 295939, Control_c, 0, 67, 44
1, 295953, Note_off_c, 0, 44, 63
1, 295953, Control_c, 0, 67, 46
1, 295968, Control_c, 0, 67, 49
1, 295970, Note_on_c, 0, 37, 72
1, 295983, Control_c, 0, 67, 53
1, 295998, Control_c, 0, 67, 55
1, 296013, Control_c, 0, 67, 58
1, 296027, Control_c, 0, 67, 59
1, 296031, Note_off_c, 0, 37, 59
1, 296035, Note_on_c, 0, 44, 74
1, 296042, Control_c, 0, 67, 60
1, 296057, Control_c, 0, 67, 61
1, 296066, Note_off_c, 0, 44, 65
1, 296072, Control_c, 0, 67, 61
1, 296114, Note_on_c, 0, 49, 67
1, 296152, Note_off_c, 0, 49, 61
1, 296168, Control_c, 0, 67, 61
1, 296176, Note_on_c, 0, 44, 58
1, 296198, Control_c, 0, 67, 60
1, 296210, Note_off_c, 0, 44, 64
1, 296227, Control_c, 0, 67, 60
1, 296240, Note_on_c, 0, 37, 64
1, 296257, Control_c, 0, 67, 59
1, 296271, Control_c, 0, 67, 58
1, 296286, Control_c, 0, 67, 57
1, 296295, Note_off_c, 0, 37, 58
1, 296298, Note_on_c, 0, 44, 69
1, 296301, Control_c, 0, 67, 55
1, 296316, Control_c, 0, 67, 51
1, 296331, Control_c, 0, 67, 49
1, 296336, Note_off_c, 0, 44, 62
1, 296346, Control_c, 0, 67, 46
1, 296361, Control_c, 0, 67, 43
1, 296369, Note_on_c, 0, 49, 74
1, 296376, Control_c, 0, 67, 41
1, 296391, Control_c, 0, 67, 40
1, 296405, Control_c, 0, 67, 39
1, 296406, Note_off_c, 0, 49, 63
1, 296420, Control_c, 0, 67, 38
1, 296435, Control_c, 0, 67, 35
1, 296438, Note_on_c, 0, 44, 69
1, 296450, Control_c, 0, 67, 30
1, 296465, Control_c, 0, 67, 25
1, 296468, Note_off_c, 0, 44, 66
1, 296480, Control_c, 0, 67, 19
1, 296485, Note_on_c, 0, 37, 64
1, 296495, Control_c, 0, 67, 12
1, 296510, Control_c, 0, 67, 8
1, 296525, Control_c, 0, 67, 0
1, 296540, Control_c, 0, 64, 15
1, 296543, Note_off_c, 0, 47, 56
1, 296553, Note_on_c, 0, 44, 65
1, 296555, Control_c, 0, 64, 32
1, 296569, Control_c, 0, 64, 46
1, 296581, Note_off_c, 0, 44, 65
1, 296584, Control_c, 0, 64, 54
1, 296590, Note_off_c, 0, 53, 63
1, 296599, Control_c, 0, 64, 58
1, 296614, Control_c, 0, 64, 60
1, 296617, Note_on_c, 0, 49, 70
1, 296624, Note_off_c, 0, 37, 36
1, 296629, Control_c, 0, 64, 63
1, 296643, Control_c, 0, 64, 66
1, 296658, Control_c, 0, 64, 71
1, 296665, Note_off_c, 0, 49, 62
1, 296669, Note_on_c, 0, 44, 67
1, 296673, Control_c, 0, 64, 81
1, 296688, Control_c, 0, 64, 97
1, 296702, Control_c, 0, 64, 127
1, 296730, Note_off_c, 0, 44, 62
1, 296739, Note_on_c, 0, 37, 83
1, 296747, Control_c, 0, 64, 105
1, 296747, Control_c, 0, 67, 18
1, 296762, Control_c, 0, 64, 77
1, 296762, Control_c, 0, 67, 21
1, 296767, Note_off_c, 0, 37, 70
1, 296776, Control_c, 0, 64, 58
1, 296776, Control_c, 0, 67, 27
1, 296791, Control_c, 0, 64, 22
1, 296791, Control_c, 0, 67, 33
1, 296806, Control_c, 0, 64, 0
1, 296806, Control_c, 0, 67, 41
1, 296818, Note_on_c, 0, 44, 76
1, 296820, Control_c, 0, 67, 52
1, 296843, Control_c, 0, 67, 64
1, 296855, Note_off_c, 0, 44, 64
1, 296858, Control_c, 0, 67, 75
1, 296873, Control_c, 0, 67, 83
1, 296888, Control_c, 0, 67, 87
1, 296901, Note_on_c, 0, 37, 70
1, 296902, Control_c, 0, 67, 89
1, 296917, Control_c, 0, 67, 91
1, 296932, Control_c, 0, 67, 94
1, 296940, Note_off_c, 0, 37, 63
1, 296947, Control_c, 0, 67, 97
1, 296962, Control_c, 0, 67, 100
1, 296966, Note_on_c, 0, 44, 67
1, 296976, Control_c, 0, 67, 103
1, 296991, Control_c, 0, 67, 105
1, 296999, Note_off_c, 0, 44, 65
1, 297006, Control_c, 0, 67, 106
1, 297021, Control_c, 0, 67, 107
1, 297037, Note_on_c, 0, 37, 68
1, 297065, Note_off_c, 0, 37, 66
1, 297080, Control_c, 0, 67, 107
1, 297082, Note_on_c, 0, 44, 70
1, 297094, Control_c, 0, 67, 108
1, 297109, Control_c, 0, 67, 110
1, 297110, Note_off_c, 0, 44, 63
1, 297124, Control_c, 0, 67, 112
1, 297139, Control_c, 0, 67, 114
1, 297154, Control_c, 0, 67, 116
1, 297155, Note_on_c, 0, 37, 76
1, 297169, Control_c, 0, 67, 119
1, 297184, Note_off_c, 0, 37, 65
1, 297184, Control_c, 0, 67, 123
1, 297198, Control_c, 0, 67, 127
1, 297210, Note_on_c, 0, 44, 61
1, 297213, Control_c, 0, 67, 127
1, 297243, Note_off_c, 0, 44, 64
1, 297274, Note_on_c, 0, 37, 58
1, 297315, Note_off_c, 0, 37, 61
1, 297339, Note_on_c, 0, 44, 70
1, 297369, Note_off_c, 0, 44, 65
1, 297407, Note_on_c, 0, 37, 58
1, 297440, Note_off_c, 0, 37, 64
1, 297457, Note_on_c, 0, 44, 63
1, 297487, Note_off_c, 0, 44, 64
1, 297530, Note_on_c, 0, 37, 74
1, 297553, Note_off_c, 0, 37, 67
1, 297583, Note_on_c, 0, 44, 59
1, 297622, Note_off_c, 0, 44, 64
1, 297647, Note_on_c, 0, 37, 56
1, 297690, Note_off_c, 0, 37, 63
1, 297717, Note_on_c, 0, 44, 63
1, 297750, Note_off_c, 0, 44, 64
1, 297785, Note_on_c, 0, 37, 59
1, 297817, Note_off_c, 0, 37, 65
1, 297843, Note_on_c, 0, 44, 61
1, 297875, Note_off_c, 0, 44, 64
1, 297920, Note_on_c, 0, 37, 67
1, 297947, Note_off_c, 0, 37, 65
1, 297973, Note_on_c, 0, 44, 60
1, 298008, Note_off_c, 0, 44, 63
1, 298048, Note_on_c, 0, 37, 48
1, 298086, Note_off_c, 0, 37, 63
1, 298115, Note_on_c, 0, 44, 58
1, 298145, Note_off_c, 0, 44, 65
1, 298182, Note_on_c, 0, 37, 52
1, 298209, Note_off_c, 0, 37, 59
1, 298230, Note_on_c, 0, 44, 63
1, 298260, Note_off_c, 0, 44, 65
1, 298301, Note_on_c, 0, 37, 61
1, 298329, Note_off_c, 0, 37, 65
1, 298363, Note_on_c, 0, 44, 57
1, 298398, Note_off_c, 0, 44, 61
1, 298430, Note_on_c, 0, 37, 61
1, 298472, Note_off_c, 0, 37, 62
1, 298498, Note_on_c, 0, 44, 58
1, 298531, Note_off_c, 0, 44, 64
1, 298573, Note_on_c, 0, 37, 53
1, 298607, Note_off_c, 0, 37, 64
1, 298626, Note_on_c, 0, 44, 57
1, 298662, Note_off_c, 0, 44, 63
1, 298704, Note_on_c, 0, 37, 58
1, 298737, Note_off_c, 0, 37, 65
1, 298763, Note_on_c, 0, 44, 51
1, 298797, Note_off_c, 0, 44, 64
1, 298832, Note_on_c, 0, 37, 59
1, 298860, Control_c, 0, 64, 17
1, 298867, Note_off_c, 0, 37, 64
1, 298876, Control_c, 0, 64, 24
1, 298890, Control_c, 0, 64, 28
1, 298892, Note_on_c, 0, 44, 52
1, 298905, Control_c, 0, 64, 36
1, 298918, Note_off_c, 0, 44, 59
1, 298920, Control_c, 0, 64, 44
1, 298935, Control_c, 0, 64, 49
1, 298950, Control_c, 0, 64, 52
1, 298960, Note_on_c, 0, 37, 57
1, 298964, Control_c, 0, 64, 54
1, 298979, Control_c, 0, 64, 58
1, 298994, Control_c, 0, 64, 61
1, 299000, Note_off_c, 0, 37, 62
1, 299003, Note_on_c, 0, 44, 58
1, 299009, Control_c, 0, 64, 64
1, 299023, Control_c, 0, 64, 64
1, 299038, Control_c, 0, 64, 64
1, 299053, Control_c, 0, 64, 60
1, 299068, Control_c, 0, 64, 50
1, 299070, Note_off_c, 0, 44, 48
1, 299076, Note_on_c, 0, 47, 58
1, 299083, Control_c, 0, 64, 22
1, 299097, Note_on_c, 0, 43, 49
1, 299098, Note_on_c, 0, 35, 53
1, 299105, Control_c, 0, 64, 0
1, 299122, Note_off_c, 0, 43, 37
1, 299128, Note_off_c, 0, 35, 37
1, 299134, Note_off_c, 0, 47, 61
1, 299159, Note_on_c, 0, 53, 52
1, 299188, Note_off_c, 0, 53, 63
1, 299213, Note_on_c, 0, 55, 52
1, 299251, Note_off_c, 0, 55, 60
1, 299273, Note_on_c, 0, 53, 58
1, 299303, Note_off_c, 0, 53, 65
1, 299344, Note_on_c, 0, 55, 56
1, 299382, Note_off_c, 0, 55, 65
1, 299392, Note_on_c, 0, 53, 55
1, 299424, Note_off_c, 0, 53, 65
1, 299446, Control_c, 0, 67, 127
1, 299455, Note_on_c, 0, 47, 62
1, 299461, Control_c, 0, 67, 123
1, 299463, Note_on_c, 0, 63, 75
1, 299476, Control_c, 0, 67, 118
1, 299483, Note_off_c, 0, 63, 69
1, 299490, Control_c, 0, 67, 114
1, 299492, Note_off_c, 0, 47, 61
1, 299505, Control_c, 0, 67, 110
1, 299512, Note_on_c, 0, 53, 52
1, 299520, Control_c, 0, 67, 108
1, 299530, Note_on_c, 0, 63, 71
1, 299534, Control_c, 0, 67, 107
1, 299544, Note_off_c, 0, 63, 67
1, 299548, Note_off_c, 0, 53, 63
1, 299579, Note_on_c, 0, 55, 61
1, 299594, Note_on_c, 0, 63, 73
1, 299609, Control_c, 0, 67, 107
1, 299611, Note_off_c, 0, 63, 68
1, 299622, Note_off_c, 0, 55, 60
1, 299623, Control_c, 0, 67, 106
1, 299638, Control_c, 0, 67, 105
1, 299645, Note_on_c, 0, 61, 85
1, 299653, Note_on_c, 0, 53, 54
1, 299653, Control_c, 0, 67, 104
1, 299669, Control_c, 0, 67, 103
1, 299674, Note_off_c, 0, 61, 69
1, 299684, Control_c, 0, 67, 102
1, 299696, Note_off_c, 0, 53, 62
1, 299699, Control_c, 0, 67, 100
1, 299705, Note_on_c, 0, 63, 68
1, 299713, Control_c, 0, 67, 98
1, 299723, Note_on_c, 0, 55, 59
1, 299728, Control_c, 0, 67, 96
1, 299732, Note_off_c, 0, 63, 67
1, 299743, Control_c, 0, 67, 94
1, 299758, Control_c, 0, 67, 92
1, 299760, Note_off_c, 0, 55, 63
1, 299772, Control_c, 0, 67, 90
1, 299786, Control_c, 0, 67, 87
1, 299798, Note_on_c, 0, 53, 41
1, 299801, Control_c, 0, 67, 86
1, 299807, Note_on_c, 0, 47, 62
1, 299816, Control_c, 0, 67, 84
1, 299830, Note_off_c, 0, 53, 33
1, 299831, Control_c, 0, 67, 84
1, 299853, Control_c, 0, 67, 83
1, 299864, Note_off_c, 0, 47, 59
1, 299883, Control_c, 0, 67, 83
1, 299887, Note_on_c, 0, 53, 49
1, 299917, Note_off_c, 0, 53, 64
1, 299942, Control_c, 0, 67, 82
1, 299944, Note_on_c, 0, 55, 68
1, 299957, Control_c, 0, 67, 81
1, 299971, Control_c, 0, 67, 80
1, 299983, Note_off_c, 0, 55, 63
1, 299986, Control_c, 0, 67, 77
1, 299998, Note_on_c, 0, 53, 64
1, 300001, Control_c, 0, 64, 17
1, 300001, Control_c, 0, 67, 74
1, 300016, Control_c, 0, 64, 26
1, 300016, Control_c, 0, 67, 70
1, 300031, Control_c, 0, 64, 32
1, 300031, Control_c, 0, 67, 65
1, 300036, Note_off_c, 0, 53, 63
1, 300045, Control_c, 0, 64, 36
1, 300045, Control_c, 0, 67, 61
1, 300060, Control_c, 0, 64, 39
1, 300060, Control_c, 0, 67, 56
1, 300075, Note_on_c, 0, 55, 53
1, 300075, Control_c, 0, 64, 45
1, 300075, Control_c, 0, 67, 49
1, 300090, Control_c, 0, 64, 51
1, 300090, Control_c, 0, 67, 43
1, 300102, Note_off_c, 0, 55, 59
1, 300105, Control_c, 0, 64, 55
1, 300105, Control_c, 0, 67, 36
1, 300120, Control_c, 0, 64, 59
1, 300120, Control_c, 0, 67, 29
1, 300124, Note_on_c, 0, 53, 62
1, 300135, Control_c, 0, 64, 62
1, 300135, Control_c, 0, 67, 20
1, 300150, Control_c, 0, 64, 64
1, 300150, Control_c, 0, 67, 12
1, 300155, Note_off_c, 0, 53, 66
1, 300164, Control_c, 0, 64, 65
1, 300164, Control_c, 0, 67, 8
1, 300177, Note_on_c, 0, 47, 73
1, 300194, Control_c, 0, 64, 64
1, 300194, Control_c, 0, 67, 9
1, 300209, Control_c, 0, 64, 63
1, 300209, Control_c, 0, 67, 12
1, 300224, Control_c, 0, 64, 59
1, 300224, Control_c, 0, 67, 13
1, 300230, Note_on_c, 0, 53, 76
1, 300238, Control_c, 0, 64, 51
1, 300238, Control_c, 0, 67, 14
1, 300239, Note_off_c, 0, 47, 60
1, 300253, Control_c, 0, 64, 40
1, 300258, Note_off_c, 0, 53, 66
1, 300268, Control_c, 0, 64, 24
1, 300268, Control_c, 0, 67, 14
1, 300283, Control_c, 0, 64, 0
1, 300283, Control_c, 0, 67, 15
1, 300298, Control_c, 0, 67, 15
1, 300299, Note_on_c, 0, 55, 77
1, 300312, Control_c, 0, 67, 16
1, 300327, Control_c, 0, 67, 16
1, 300332, Note_off_c, 0, 55, 60
1, 300343, Note_on_c, 0, 67, 77
1, 300349, Note_on_c, 0, 65, 73
1, 300371, Control_c, 0, 67, 16
1, 300383, Note_off_c, 0, 65, 61
1, 300397, Note_off_c, 0, 67, 63
1, 300416, Control_c, 0, 67, 15
1, 300432, Note_on_c, 0, 55, 67
1, 300461, Note_off_c, 0, 55, 66
1, 300461, Control_c, 0, 67, 16
1, 300477, Note_on_c, 0, 53, 70
1, 300491, Control_c, 0, 67, 16
1, 300504, Note_off_c, 0, 53, 66
1, 300506, Control_c, 0, 67, 17
1, 300521, Control_c, 0, 67, 20
1, 300535, Control_c, 0, 67, 22
1, 300539, Note_on_c, 0, 61, 86
1, 300550, Control_c, 0, 67, 23
1, 300551, Note_on_c, 0, 47, 81
1, 300565, Control_c, 0, 67, 25
1, 300569, Note_off_c, 0, 61, 62
1, 300579, Note_off_c, 0, 47, 68
1, 300580, Control_c, 0, 67, 27
1, 300602, Control_c, 0, 67, 28
1, 300617, Control_c, 0, 67, 30
1, 300621, Note_on_c, 0, 55, 62
1, 300632, Control_c, 0, 67, 31
1, 300634, Note_on_c, 0, 53, 51
1, 300647, Control_c, 0, 67, 33
1, 300650, Note_off_c, 0, 55, 57
1, 300659, Note_off_c, 0, 53, 56
1, 300662, Control_c, 0, 67, 34
1, 300676, Control_c, 0, 67, 36
1, 300678, Note_on_c, 0, 65, 79
1, 300679, Note_on_c, 0, 63, 74
1, 300691, Control_c, 0, 67, 39
1, 300693, Note_off_c, 0, 65, 70
1, 300706, Control_c, 0, 67, 43
1, 300721, Control_c, 0, 67, 45
1, 300729, Note_off_c, 0, 63, 53
1, 300736, Control_c, 0, 67, 46
1, 300738, Note_on_c, 0, 55, 60
1, 300740, Note_on_c, 0, 53, 61
1, 300765, Control_c, 0, 67, 45
1, 300775, Note_off_c, 0, 55, 64
1, 300778, Note_off_c, 0, 53, 63
1, 300780, Control_c, 0, 67, 44
1, 300794, Control_c, 0, 67, 43
1, 300803, Note_on_c, 0, 58, 68
1, 300809, Control_c, 0, 67, 42
1, 300824, Control_c, 0, 67, 41
1, 300834, Note_off_c, 0, 58, 62
1, 300839, Control_c, 0, 67, 41
1, 300854, Control_c, 0, 67, 40
1, 300859, Note_on_c, 0, 53, 61
1, 300868, Control_c, 0, 67, 39
1, 300870, Note_on_c, 0, 55, 52
1, 300883, Control_c, 0, 67, 38
1, 300894, Note_off_c, 0, 55, 60
1, 300898, Note_off_c, 0, 53, 64
1, 300913, Control_c, 0, 67, 39
1, 300925, Note_on_c, 0, 47, 73
1, 300928, Control_c, 0, 67, 41
1, 300930, Note_on_c, 0, 56, 68
1, 300942, Control_c, 0, 67, 43
1, 300947, Note_off_c, 0, 47, 63
1, 300957, Control_c, 0, 67, 45
1, 300958, Note_off_c, 0, 56, 65
1, 300972, Control_c, 0, 67, 47
1, 300987, Control_c, 0, 67, 48
1, 300992, Note_on_c, 0, 52, 55
1, 300994, Note_on_c, 0, 50, 67
1, 301002, Control_c, 0, 67, 52
1, 301017, Control_c, 0, 67, 59
1, 301028, Note_off_c, 0, 50, 65
1, 301028, Note_off_c, 0, 52, 64
1, 301032, Control_c, 0, 67, 66
1, 301044, Note_on_c, 0, 62, 81
1, 301047, Control_c, 0, 67, 73
1, 301054, Note_on_c, 0, 61, 73
1, 301059, Note_off_c, 0, 62, 69
1, 301061, Control_c, 0, 67, 78
1, 301076, Control_c, 0, 67, 80
1, 301091, Control_c, 0, 67, 81
1, 301103, Note_off_c, 0, 61, 50
1, 301118, Note_on_c, 0, 50, 51
1, 301121, Note_on_c, 0, 52, 46
1, 301135, Control_c, 0, 67, 81
1, 301150, Control_c, 0, 67, 80
1, 301154, Note_off_c, 0, 52, 57
1, 301155, Note_off_c, 0, 50, 62
1, 301165, Control_c, 0, 67, 78
1, 301172, Note_on_c, 0, 56, 58
1, 301180, Control_c, 0, 67, 77
1, 301194, Control_c, 0, 67, 76
1, 301209, Control_c, 0, 67, 75
1, 301215, Note_off_c, 0, 56, 61
1, 301224, Control_c, 0, 67, 73
1, 301239, Control_c, 0, 64, 10
1, 301239, Control_c, 0, 67, 71
1, 301246, Note_on_c, 0, 50, 50
1, 301253, Note_on_c, 0, 52, 41
1, 301254, Control_c, 0, 64, 19
1, 301254, Control_c, 0, 67, 69
1, 301270, Control_c, 0, 64, 34
1, 301270, Control_c, 0, 67, 66
1, 301280, Note_off_c, 0, 50, 52
1, 301281, Note_off_c, 0, 52, 50
1, 301283, Note_on_c, 0, 35, 77
1, 301285, Control_c, 0, 64, 51
1, 301285, Control_c, 0, 67, 63
1, 301296, Note_on_c, 0, 51, 70
1, 301300, Control_c, 0, 64, 59
1, 301300, Control_c, 0, 67, 62
1, 301303, Note_off_c, 0, 35, 67
1, 301315, Control_c, 0, 64, 61
1, 301330, Control_c, 0, 64, 63
1, 301330, Control_c, 0, 67, 63
1, 301334, Note_off_c, 0, 51, 58
1, 301352, Control_c, 0, 64, 64
1, 301352, Control_c, 0, 67, 64
1, 301366, Control_c, 0, 64, 65
1, 301366, Control_c, 0, 67, 65
1, 301368, Note_on_c, 0, 50, 70
1, 301376, Note_on_c, 0, 52, 58
1, 301381, Control_c, 0, 64, 66
1, 301381, Control_c, 0, 67, 66
1, 301396, Control_c, 0, 64, 68
1, 301396, Control_c, 0, 67, 66
1, 301405, Note_off_c, 0, 52, 58
1, 301407, Note_off_c, 0, 50, 61
1, 301411, Control_c, 0, 64, 68
1, 301425, Control_c, 0, 64, 69
1, 301427, Note_on_c, 0, 53, 66
1, 301440, Control_c, 0, 64, 70
1, 301455, Control_c, 0, 64, 70
1, 301470, Note_off_c, 0, 53, 61
1, 301470, Control_c, 0, 64, 71
1, 301485, Control_c, 0, 64, 72
1, 301490, Note_on_c, 0, 50, 65
1, 301497, Note_on_c, 0, 52, 54
1, 301500, Control_c, 0, 67, 66
1, 301515, Control_c, 0, 64, 72
1, 301518, Note_off_c, 0, 50, 53
1, 301523, Note_off_c, 0, 52, 52
1, 301530, Control_c, 0, 64, 73
1, 301530, Control_c, 0, 67, 65
1, 301539, Note_on_c, 0, 51, 66
1, 301544, Control_c, 0, 64, 73
1, 301559, Control_c, 0, 64, 75
1, 301559, Control_c, 0, 67, 65
1, 301572, Note_off_c, 0, 51, 65
1, 301574, Control_c, 0, 64, 79
1, 301589, Control_c, 0, 64, 83
1, 301589, Control_c, 0, 67, 64
1, 301596, Note_on_c, 0, 50, 64
1, 301602, Note_on_c, 0, 52, 60
1, 301604, Control_c, 0, 64, 84
1, 301604, Control_c, 0, 67, 64
1, 301618, Control_c, 0, 67, 62
1, 301627, Note_off_c, 0, 52, 63
1, 301628, Note_off_c, 0, 50, 63
1, 301633, Control_c, 0, 64, 80
1, 301633, Control_c, 0, 67, 61
1, 301648, Control_c, 0, 64, 68
1, 301648, Control_c, 0, 67, 58
1, 301656, Note_on_c, 0, 47, 78
1, 301663, Control_c, 0, 64, 49
1, 301663, Control_c, 0, 67, 55
1, 301678, Control_c, 0, 64, 0
1, 301678, Control_c, 0, 67, 51
1, 301692, Note_off_c, 0, 47, 62
1, 301692, Control_c, 0, 67, 47
1, 301707, Control_c, 0, 67, 44
1, 301722, Control_c, 0, 67, 42
1, 301732, Note_on_c, 0, 53, 65
1, 301736, Control_c, 0, 67, 40
1, 301751, Control_c, 0, 67, 39
1, 301752, Note_off_c, 0, 53, 64
1, 301766, Control_c, 0, 67, 37
1, 301781, Control_c, 0, 67, 35
1, 301792, Note_on_c, 0, 55, 63
1, 301796, Control_c, 0, 67, 34
1, 301810, Control_c, 0, 67, 32
1, 301825, Control_c, 0, 67, 30
1, 301832, Note_off_c, 0, 55, 63
1, 301840, Control_c, 0, 67, 29
1, 301846, Note_on_c, 0, 53, 50
1, 301855, Control_c, 0, 67, 26
1, 301870, Control_c, 0, 67, 23
1, 301884, Control_c, 0, 67, 21
1, 301889, Note_off_c, 0, 53, 65
1, 301899, Control_c, 0, 67, 18
1, 301914, Note_on_c, 0, 55, 67
1, 301914, Control_c, 0, 67, 17
1, 301929, Control_c, 0, 67, 17
1, 301944, Control_c, 0, 67, 16
1, 301946, Note_off_c, 0, 55, 64
1, 301959, Control_c, 0, 67, 14
1, 301974, Control_c, 0, 67, 10
1, 301989, Control_c, 0, 67, 0
1, 302004, Note_on_c, 0, 47, 71
1, 302022, Note_on_c, 0, 63, 80
1, 302040, Note_off_c, 0, 63, 70
1, 302048, Note_off_c, 0, 47, 59
1, 302071, Note_on_c, 0, 53, 26
1, 302083, Note_on_c, 0, 63, 81
1, 302110, Note_off_c, 0, 63, 70
1, 302114, Note_off_c, 0, 53, 63
1, 302135, Note_on_c, 0, 55, 65
1, 302152, Note_on_c, 0, 63, 78
1, 302168, Note_off_c, 0, 63, 67
1, 302181, Note_off_c, 0, 55, 62
1, 302210, Note_on_c, 0, 61, 82
1, 302212, Note_on_c, 0, 53, 60
1, 302239, Note_off_c, 0, 61, 63
1, 302254, Note_off_c, 0, 53, 63
1, 302264, Note_on_c, 0, 63, 74
1, 302284, Note_on_c, 0, 55, 68
1, 302302, Note_off_c, 0, 63, 65
1, 302317, Note_off_c, 0, 55, 64
1, 302341, Note_on_c, 0, 53, 53
1, 302367, Note_off_c, 0, 53, 63
1, 302382, Note_on_c, 0, 47, 68
1, 302433, Note_off_c, 0, 47, 59
1, 302444, Note_on_c, 0, 53, 62
1, 302478, Note_off_c, 0, 53, 65
1, 302505, Note_on_c, 0, 55, 67
1, 302543, Note_off_c, 0, 55, 62
1, 302566, Note_on_c, 0, 53, 59
1, 302605, Note_off_c, 0, 53, 64
1, 302632, Note_on_c, 0, 55, 67
1, 302665, Note_off_c, 0, 55, 65
1, 302677, Note_on_c, 0, 53, 50
1, 302706, Note_off_c, 0, 53, 63
1, 302716, Note_on_c, 0, 47, 72
1, 302722, Control_c, 0, 64, 20
1, 302737, Control_c, 0, 64, 32
1, 302752, Control_c, 0, 64, 43
1, 302767, Control_c, 0, 64, 53
1, 302782, Control_c, 0, 64, 59
1, 302788, Note_on_c, 0, 53, 79
1, 302797, Control_c, 0, 64, 62
1, 302806, Note_off_c, 0, 47, 63
1, 302811, Control_c, 0, 64, 64
1, 302813, Note_off_c, 0, 53, 68
1, 302848, Control_c, 0, 64, 63
1, 302858, Note_on_c, 0, 55, 81
1, 302864, Control_c, 0, 64, 59
1, 302879, Control_c, 0, 64, 48
1, 302894, Control_c, 0, 64, 30
1, 302898, Note_off_c, 0, 55, 63
1, 302909, Control_c, 0, 64, 0
1, 302913, Note_on_c, 0, 67, 75
1, 302920, Note_on_c, 0, 65, 65
1, 302949, Note_off_c, 0, 65, 66
1, 302954, Note_on_c, 0, 64, 32
1, 302955, Note_off_c, 0, 64, 127
1, 302960, Note_off_c, 0, 67, 62
1, 302990, Note_on_c, 0, 55, 81
1, 303017, Note_off_c, 0, 55, 66
1, 303036, Note_on_c, 0, 53, 79
1, 303057, Note_off_c, 0, 53, 68
1, 303086, Note_on_c, 0, 47, 91
1, 303086, Control_c, 0, 67, 17
1, 303092, Note_on_c, 0, 61, 84
1, 303110, Note_off_c, 0, 47, 70
1, 303116, Control_c, 0, 67, 18
1, 303119, Note_off_c, 0, 61, 62
1, 303130, Control_c, 0, 67, 20
1, 303145, Control_c, 0, 67, 23
1, 303146, Note_on_c, 0, 55, 65
1, 303154, Note_on_c, 0, 53, 49
1, 303160, Control_c, 0, 67, 26
1, 303175, Control_c, 0, 67, 29
1, 303186, Note_off_c, 0, 53, 64
1, 303186, Note_off_c, 0, 55, 64
1, 303190, Control_c, 0, 67, 31
1, 303205, Control_c, 0, 67, 33
1, 303218, Note_on_c, 0, 63, 71
1, 303220, Control_c, 0, 67, 36
1, 303223, Note_on_c, 0, 65, 79
1, 303235, Control_c, 0, 67, 39
1, 303240, Note_off_c, 0, 65, 68
1, 303250, Control_c, 0, 67, 42
1, 303251, Note_on_c, 0, 67, 35
1, 303252, Note_off_c, 0, 67, 127
1, 303256, Note_off_c, 0, 63, 56
1, 303264, Control_c, 0, 67, 44
1, 303276, Note_on_c, 0, 55, 65
1, 303279, Control_c, 0, 67, 44
1, 303280, Note_on_c, 0, 53, 57
1, 303294, Control_c, 0, 67, 43
1, 303308, Control_c, 0, 67, 42
1, 303314, Note_off_c, 0, 55, 65
1, 303315, Note_off_c, 0, 53, 64
1, 303323, Control_c, 0, 67, 41
1, 303336, Note_on_c, 0, 58, 71
1, 303338, Control_c, 0, 67, 39
1, 303353, Control_c, 0, 67, 37
1, 303368, Control_c, 0, 67, 36
1, 303369, Note_off_c, 0, 58, 61
1, 303382, Control_c, 0, 67, 35
1, 303397, Control_c, 0, 67, 34
1, 303399, Note_on_c, 0, 53, 52
1, 303402, Note_on_c, 0, 55, 62
1, 303424, Note_off_c, 0, 55, 64
1, 303432, Note_off_c, 0, 53, 64
1, 303442, Control_c, 0, 67, 36
1, 303457, Control_c, 0, 67, 39
1, 303459, Note_on_c, 0, 56, 70
1, 303471, Control_c, 0, 67, 41
1, 303473, Note_on_c, 0, 45, 53
1, 303475, Note_on_c, 0, 47, 51
1, 303486, Control_c, 0, 67, 44
1, 303490, Note_off_c, 0, 56, 66
1, 303500, Note_off_c, 0, 45, 38
1, 303501, Control_c, 0, 67, 46
1, 303503, Note_off_c, 0, 47, 38
1, 303515, Control_c, 0, 67, 49
1, 303526, Note_on_c, 0, 50, 67
1, 303528, Note_on_c, 0, 52, 55
1, 303530, Control_c, 0, 67, 54
1, 303545, Control_c, 0, 67, 60
1, 303560, Control_c, 0, 67, 65
1, 303561, Note_off_c, 0, 52, 64
1, 303562, Note_off_c, 0, 50, 65
1, 303575, Control_c, 0, 67, 71
1, 303595, Note_on_c, 0, 62, 51
1, 303596, Note_off_c, 0, 62, 127
1, 303596, Note_on_c, 0, 61, 68
1, 303596, Control_c, 0, 67, 74
1, 303611, Control_c, 0, 67, 77
1, 303626, Control_c, 0, 67, 78
1, 303637, Note_off_c, 0, 61, 61
1, 303653, Note_on_c, 0, 50, 52
1, 303661, Note_on_c, 0, 52, 47
1, 303672, Control_c, 0, 67, 77
1, 303686, Control_c, 0, 64, 10
1, 303686, Control_c, 0, 67, 76
1, 303689, Note_off_c, 0, 52, 51
1, 303695, Note_off_c, 0, 50, 50
1, 303701, Control_c, 0, 64, 13
1, 303701, Control_c, 0, 67, 74
1, 303715, Note_on_c, 0, 56, 55
1, 303716, Control_c, 0, 67, 74
1, 303731, Control_c, 0, 64, 9
1, 303731, Control_c, 0, 67, 73
1, 303745, Control_c, 0, 64, 0
1, 303749, Note_off_c, 0, 56, 62
1, 303760, Control_c, 0, 67, 73
1, 303790, Control_c, 0, 67, 73
1, 303792, Note_on_c, 0, 50, 50
1, 303805, Note_on_c, 0, 52, 31
1, 303819, Note_off_c, 0, 50, 50
1, 303819, Control_c, 0, 67, 74
1, 303820, Note_on_c, 0, 35, 67
1, 303834, Control_c, 0, 64, 24
1, 303834, Control_c, 0, 67, 75
1, 303840, Note_off_c, 0, 52, 32
1, 303843, Note_on_c, 0, 51, 64
1, 303846, Note_off_c, 0, 35, 66
1, 303849, Control_c, 0, 64, 51
1, 303849, Control_c, 0, 67, 76
1, 303864, Control_c, 0, 64, 62
1, 303864, Control_c, 0, 67, 77
1, 303879, Control_c, 0, 64, 65
1, 303879, Control_c, 0, 67, 78
1, 303885, Note_off_c, 0, 51, 57
1, 303894, Control_c, 0, 64, 67
1, 303894, Control_c, 0, 67, 78
1, 303907, Note_on_c, 0, 52, 69
1, 303908, Control_c, 0, 64, 70
1, 303908, Control_c, 0, 67, 79
1, 303910, Note_on_c, 0, 50, 46
1, 303923, Control_c, 0, 64, 74
1, 303923, Control_c, 0, 67, 80
1, 303938, Control_c, 0, 64, 78
1, 303938, Control_c, 0, 67, 83
1, 303944, Note_off_c, 0, 50, 62
1, 303946, Note_off_c, 0, 52, 48
1, 303953, Control_c, 0, 64, 81
1, 303953, Control_c, 0, 67, 87
1, 303962, Note_on_c, 0, 53, 62
1, 303968, Control_c, 0, 64, 84
1, 303968, Control_c, 0, 67, 91
1, 303983, Control_c, 0, 64, 86
1, 303983, Control_c, 0, 67, 96
1, 303998, Control_c, 0, 64, 87
1, 303998, Control_c, 0, 67, 100
1, 304012, Note_off_c, 0, 53, 58
1, 304012, Control_c, 0, 64, 88
1, 304012, Control_c, 0, 67, 104
1, 304027, Control_c, 0, 64, 88
1, 304027, Control_c, 0, 67, 108
1, 304042, Note_on_c, 0, 52, 55
1, 304042, Control_c, 0, 67, 111
1, 304046, Note_on_c, 0, 50, 42
1, 304057, Control_c, 0, 67, 114
1, 304069, Note_off_c, 0, 52, 57
1, 304072, Control_c, 0, 67, 116
1, 304076, Note_off_c, 0, 50, 54
1, 304077, Note_on_c, 0, 51, 65
1, 304086, Control_c, 0, 67, 117
1, 304101, Control_c, 0, 67, 117
1, 304114, Note_off_c, 0, 51, 63
1, 304160, Control_c, 0, 67, 117
1, 304162, Note_on_c, 0, 50, 49
1, 304167, Note_on_c, 0, 52, 33
1, 304175, Control_c, 0, 64, 87
1, 304190, Control_c, 0, 64, 82
1, 304196, Note_off_c, 0, 50, 46
1, 304198, Note_off_c, 0, 52, 33
1, 304204, Control_c, 0, 64, 72
1, 304210, Note_on_c, 0, 44, 62
1, 304219, Control_c, 0, 64, 61
1, 304234, Control_c, 0, 64, 42
1, 304234, Control_c, 0, 67, 116
1, 304249, Control_c, 0, 64, 0
1, 304299, Note_on_c, 0, 50, 54
1, 304346, Control_c, 0, 67, 115
1, 304361, Control_c, 0, 67, 114
1, 304376, Control_c, 0, 64, 21
1, 304376, Control_c, 0, 67, 113
1, 304391, Control_c, 0, 64, 37
1, 304391, Control_c, 0, 67, 113
1, 304406, Control_c, 0, 64, 52
1, 304406, Control_c, 0, 67, 112
1, 304420, Control_c, 0, 64, 58
1, 304420, Control_c, 0, 67, 111
1, 304426, Note_on_c, 0, 54, 26
1, 304435, Control_c, 0, 64, 60
1, 304435, Control_c, 0, 67, 110
1, 304450, Control_c, 0, 64, 62
1, 304450, Control_c, 0, 67, 109
1, 304464, Note_on_c, 0, 66, 55
1, 304466, Control_c, 0, 64, 65
1, 304466, Control_c, 0, 67, 108
1, 304481, Control_c, 0, 64, 68
1, 304481, Control_c, 0, 67, 107
1, 304484, Note_on_c, 0, 62, 42
1, 304496, Control_c, 0, 64, 72
1, 304496, Control_c, 0, 67, 106
1, 304499, Note_off_c, 0, 44, 34
1, 304510, Control_c, 0, 64, 78
1, 304510, Control_c, 0, 67, 106
1, 304516, Note_off_c, 0, 62, 52
1, 304525, Control_c, 0, 64, 83
1, 304525, Control_c, 0, 67, 105
1, 304540, Control_c, 0, 64, 87
1, 304540, Control_c, 0, 67, 104
1, 304554, Note_off_c, 0, 50, 34
1, 304555, Control_c, 0, 64, 92
1, 304555, Control_c, 0, 67, 103
1, 304569, Control_c, 0, 64, 98
1, 304569, Control_c, 0, 67, 102
1, 304584, Control_c, 0, 64, 107
1, 304584, Control_c, 0, 67, 102
1, 304591, Note_off_c, 0, 54, 37
1, 304599, Control_c, 0, 64, 121
1, 304599, Control_c, 0, 67, 100
1, 304614, Note_on_c, 0, 59, 46
1, 304614, Control_c, 0, 64, 127
1, 304614, Control_c, 0, 67, 99
1, 304629, Control_c, 0, 67, 96
1, 304643, Control_c, 0, 67, 95
1, 304658, Control_c, 0, 67, 93
1, 304673, Control_c, 0, 67, 92
1, 304687, Control_c, 0, 67, 91
1, 304698, Note_off_c, 0, 59, 58
1, 304702, Control_c, 0, 67, 89
1, 304717, Control_c, 0, 67, 87
1, 304732, Control_c, 0, 67, 85
1, 304744, Note_on_c, 0, 58, 40
1, 304747, Control_c, 0, 67, 84
1, 304761, Control_c, 0, 67, 82
1, 304773, Note_off_c, 0, 58, 48
1, 304776, Control_c, 0, 67, 80
1, 304791, Control_c, 0, 67, 78
1, 304806, Control_c, 0, 67, 76
1, 304821, Control_c, 0, 67, 73
1, 304836, Control_c, 0, 67, 70
1, 304838, Note_on_c, 0, 59, 26
1, 304850, Control_c, 0, 67, 67
1, 304865, Control_c, 0, 67, 64
1, 304876, Note_on_c, 0, 58, 49
1, 304877, Note_off_c, 0, 59, 38
1, 304880, Control_c, 0, 67, 59
1, 304895, Control_c, 0, 67, 54
1, 304910, Control_c, 0, 67, 50
1, 304911, Note_off_c, 0, 58, 63
1, 304919, Note_off_c, 0, 66, 41
1, 304925, Control_c, 0, 67, 45
1, 304940, Control_c, 0, 67, 39
1, 304954, Control_c, 0, 67, 33
1, 304965, Note_on_c, 0, 59, 39
1, 304969, Control_c, 0, 67, 26
1, 304984, Note_on_c, 0, 61, 51
1, 304984, Control_c, 0, 67, 20
1, 304986, Note_on_c, 0, 65, 46
1, 304997, Note_off_c, 0, 59, 44
1, 304999, Control_c, 0, 67, 14
1, 305014, Control_c, 0, 67, 12
1, 305017, Note_off_c, 0, 65, 62
1, 305020, Note_on_c, 0, 58, 49
1, 305024, Note_off_c, 0, 61, 61
1, 305026, Note_on_c, 0, 66, 61
1, 305043, Note_off_c, 0, 58, 59
1, 305043, Control_c, 0, 67, 11
1, 305050, Note_on_c, 0, 62, 48
1, 305058, Control_c, 0, 67, 10
1, 305073, Control_c, 0, 67, 10
1, 305087, Note_on_c, 0, 59, 57
1, 305095, Control_c, 0, 67, 9
1, 305116, Note_off_c, 0, 59, 62
1, 305125, Control_c, 0, 67, 9
1, 305134, Note_on_c, 0, 58, 57
1, 305140, Control_c, 0, 67, 8
1, 305154, Control_c, 0, 67, 0
1, 305169, Note_off_c, 0, 58, 63
1, 305196, Note_on_c, 0, 59, 63
1, 305227, Note_off_c, 0, 62, 45
1, 305236, Note_off_c, 0, 59, 58
1, 305259, Note_off_c, 0, 66, 35
1, 305263, Note_on_c, 0, 58, 59
1, 305292, Note_off_c, 0, 58, 64
1, 305320, Note_on_c, 0, 59, 62
1, 305352, Note_off_c, 0, 59, 62
1, 305373, Note_on_c, 0, 58, 65
1, 305395, Note_on_c, 0, 65, 67
1, 305399, Note_off_c, 0, 58, 64
1, 305403, Note_on_c, 0, 61, 62
1, 305432, Note_off_c, 0, 65, 59
1, 305438, Note_off_c, 0, 61, 63
1, 305446, Note_on_c, 0, 66, 75
1, 305450, Note_on_c, 0, 59, 50
1, 305454, Note_on_c, 0, 62, 69
1, 305479, Note_off_c, 0, 59, 49
1, 305489, Note_on_c, 0, 58, 66
1, 305516, Note_off_c, 0, 58, 64
1, 305558, Note_on_c, 0, 59, 60
1, 305584, Note_off_c, 0, 59, 61
1, 305601, Note_on_c, 0, 58, 69
1, 305605, Note_off_c, 0, 66, 54
1, 305628, Note_off_c, 0, 58, 66
1, 305634, Note_off_c, 0, 62, 56
1, 305654, Note_on_c, 0, 59, 67
1, 305699, Note_off_c, 0, 59, 60
1, 305713, Note_on_c, 0, 58, 70
1, 305740, Note_off_c, 0, 58, 63
1, 305756, Note_on_c, 0, 65, 78
1, 305758, Note_on_c, 0, 61, 82
1, 305780, Note_on_c, 0, 59, 68
1, 305803, Note_off_c, 0, 65, 61
1, 305806, Note_off_c, 0, 61, 57
1, 305813, Note_off_c, 0, 59, 63
1, 305813, Note_on_c, 0, 62, 79
1, 305814, Note_on_c, 0, 66, 83
1, 305838, Note_on_c, 0, 58, 71
1, 305867, Note_off_c, 0, 58, 65
1, 305890, Note_on_c, 0, 59, 79
1, 305938, Note_off_c, 0, 59, 62
1, 305953, Note_on_c, 0, 58, 72
1, 305972, Note_off_c, 0, 62, 61
1, 305987, Note_off_c, 0, 58, 61
1, 306004, Note_on_c, 0, 59, 64
1, 306019, Note_off_c, 0, 66, 51
1, 306046, Note_off_c, 0, 59, 62
1, 306059, Note_on_c, 0, 61, 81
1, 306079, Note_on_c, 0, 58, 72
1, 306093, Note_off_c, 0, 61, 59
1, 306109, Note_off_c, 0, 58, 59
1, 306127, Note_on_c, 0, 62, 82
1, 306150, Note_on_c, 0, 59, 74
1, 306167, Note_off_c, 0, 62, 62
1, 306194, Note_on_c, 0, 63, 83
1, 306215, Note_off_c, 0, 63, 69
1, 306221, Note_off_c, 0, 59, 49
1, 306242, Note_on_c, 0, 64, 91
1, 306243, Note_on_c, 0, 60, 78
1, 306281, Note_off_c, 0, 60, 62
1, 306286, Note_off_c, 0, 64, 62
1, 306304, Control_c, 0, 64, 82
1, 306310, Note_on_c, 0, 65, 75
1, 306312, Note_on_c, 0, 61, 83
1, 306318, Note_on_c, 0, 66, 80
1, 306319, Control_c, 0, 64, 59
1, 306332, Note_on_c, 0, 70, 81
1, 306333, Note_off_c, 0, 65, 68
1, 306333, Control_c, 0, 64, 0
1, 306341, Note_off_c, 0, 61, 64
1, 306347, Note_off_c, 0, 66, 62
1, 306374, Note_on_c, 0, 62, 60
1, 306389, Note_off_c, 0, 70, 60
1, 306395, Note_on_c, 0, 65, 81
1, 306425, Note_off_c, 0, 62, 58
1, 306439, Note_off_c, 0, 65, 60
1, 306448, Note_on_c, 0, 61, 72
1, 306472, Note_on_c, 0, 66, 66
1, 306472, Note_on_c, 0, 70, 71
1, 306482, Note_off_c, 0, 61, 62
1, 306496, Note_off_c, 0, 66, 68
1, 306499, Note_off_c, 0, 70, 65
1, 306519, Note_on_c, 0, 62, 73
1, 306535, Note_on_c, 0, 65, 78
1, 306551, Note_off_c, 0, 62, 62
1, 306563, Note_off_c, 0, 65, 62
1, 306591, Note_on_c, 0, 61, 68
1, 306599, Note_on_c, 0, 70, 73
1, 306600, Note_on_c, 0, 66, 72
1, 306625, Note_off_c, 0, 66, 65
1, 306628, Note_off_c, 0, 70, 62
1, 306631, Note_off_c, 0, 61, 65
1, 306654, Note_on_c, 0, 62, 72
1, 306656, Note_on_c, 0, 65, 85
1, 306681, Control_c, 0, 64, 33
1, 306684, Note_off_c, 0, 62, 64
1, 306689, Note_off_c, 0, 65, 63
1, 306696, Control_c, 0, 64, 54
1, 306711, Control_c, 0, 64, 64
1, 306715, Note_on_c, 0, 70, 85
1, 306717, Note_on_c, 0, 66, 72
1, 306726, Control_c, 0, 64, 67
1, 306728, Note_on_c, 0, 61, 56
1, 306738, Note_off_c, 0, 66, 68
1, 306740, Control_c, 0, 64, 70
1, 306741, Note_off_c, 0, 70, 64
1, 306752, Note_off_c, 0, 61, 49
1, 306755, Control_c, 0, 64, 76
1, 306770, Note_on_c, 0, 62, 78
1, 306770, Control_c, 0, 64, 84
1, 306785, Control_c, 0, 64, 96
1, 306788, Note_off_c, 0, 62, 68
1, 306800, Control_c, 0, 64, 109
1, 306815, Control_c, 0, 64, 122
1, 306829, Note_on_c, 0, 58, 73
1, 306830, Control_c, 0, 64, 124
1, 306845, Control_c, 0, 64, 121
1, 306860, Control_c, 0, 64, 107
1, 306865, Note_off_c, 0, 58, 61
1, 306875, Control_c, 0, 64, 91
1, 306889, Control_c, 0, 64, 78
1, 306898, Note_on_c, 0, 54, 72
1, 306904, Control_c, 0, 64, 68
1, 306919, Control_c, 0, 64, 61
1, 306934, Control_c, 0, 64, 58
1, 306949, Note_off_c, 0, 54, 61
1, 306949, Control_c, 0, 64, 56
1, 306951, Note_on_c, 0, 50, 76
1, 306964, Control_c, 0, 64, 54
1, 306979, Control_c, 0, 64, 50
1, 306991, Note_off_c, 0, 50, 66
1, 306994, Control_c, 0, 64, 41
1, 307009, Control_c, 0, 64, 29
1, 307019, Note_on_c, 0, 46, 82
1, 307021, Note_on_c, 0, 42, 82
1, 307024, Control_c, 0, 64, 0
1, 307038, Note_off_c, 0, 46, 70
1, 307048, Note_off_c, 0, 42, 66
1, 307889, Control_c, 0, 64, 22
1, 307903, Control_c, 0, 64, 33
1, 307918, Control_c, 0, 64, 41
1, 307933, Control_c, 0, 64, 40
1, 307948, Control_c, 0, 64, 31
1, 307963, Control_c, 0, 64, 0
1, 308007, Control_c, 0, 64, 24
1, 308018, Note_on_c, 0, 75, 67
1, 308023, Control_c, 0, 64, 41
1, 308024, Note_on_c, 0, 35, 67
1, 308030, Note_on_c, 0, 63, 65
1, 308037, Control_c, 0, 64, 50
1, 308043, Note_on_c, 0, 67, 52
1, 308049, Note_off_c, 0, 75, 60
1, 308049, Note_off_c, 0, 63, 66
1, 308050, Note_on_c, 0, 41, 61
1, 308052, Control_c, 0, 64, 52
1, 308058, Note_off_c, 0, 35, 64
1, 308067, Note_off_c, 0, 67, 55
1, 308089, Note_off_c, 0, 41, 64
1, 308101, Note_on_c, 0, 43, 54
1, 308118, Note_on_c, 0, 63, 77
1, 308119, Control_c, 0, 64, 52
1, 308127, Note_off_c, 0, 43, 37
1, 308134, Control_c, 0, 64, 53
1, 308149, Control_c, 0, 64, 54
1, 308153, Note_off_c, 0, 63, 64
1, 308164, Control_c, 0, 64, 54
1, 308179, Control_c, 0, 64, 55
1, 308193, Control_c, 0, 64, 57
1, 308201, Note_on_c, 0, 63, 61
1, 308204, Note_on_c, 0, 47, 66
1, 308208, Control_c, 0, 64, 59
1, 308223, Control_c, 0, 64, 61
1, 308229, Note_off_c, 0, 63, 66
1, 308237, Control_c, 0, 64, 62
1, 308248, Note_off_c, 0, 47, 65
1, 308252, Control_c, 0, 64, 64
1, 308253, Note_on_c, 0, 61, 75
1, 308267, Control_c, 0, 64, 66
1, 308269, Note_on_c, 0, 53, 54
1, 308275, Note_off_c, 0, 61, 69
1, 308279, Note_on_c, 0, 55, 67
1, 308282, Control_c, 0, 64, 68
1, 308296, Note_off_c, 0, 53, 36
1, 308297, Control_c, 0, 64, 71
1, 308305, Note_off_c, 0, 55, 65
1, 308311, Control_c, 0, 64, 75
1, 308321, Note_on_c, 0, 63, 74
1, 308326, Control_c, 0, 64, 79
1, 308332, Note_on_c, 0, 75, 80
1, 308341, Control_c, 0, 64, 84
1, 308347, Note_off_c, 0, 63, 66
1, 308350, Note_off_c, 0, 75, 72
1, 308356, Control_c, 0, 64, 90
1, 308371, Control_c, 0, 64, 100
1, 308381, Note_on_c, 0, 59, 56
1, 308386, Control_c, 0, 64, 127
1, 308391, Note_on_c, 0, 57, 44
1, 308408, Note_on_c, 0, 65, 71
1, 308415, Note_off_c, 0, 57, 50
1, 308439, Note_off_c, 0, 65, 62
1, 308452, Note_on_c, 0, 67, 79
1, 308455, Note_off_c, 0, 59, 62
1, 308460, Control_c, 0, 64, 107
1, 308473, Note_off_c, 0, 67, 70
1, 308475, Control_c, 0, 64, 74
1, 308490, Control_c, 0, 64, 58
1, 308505, Control_c, 0, 64, 41
1, 308518, Note_on_c, 0, 69, 72
1, 308520, Control_c, 0, 64, 32
1, 308535, Control_c, 0, 64, 29
1, 308549, Note_on_c, 0, 71, 39
1, 308550, Note_off_c, 0, 71, 127
1, 308550, Control_c, 0, 64, 28
1, 308574, Note_on_c, 0, 67, 63
1, 308589, Note_off_c, 0, 69, 54
1, 308635, Note_off_c, 0, 67, 63
1, 308639, Control_c, 0, 64, 28
1, 308644, Note_on_c, 0, 65, 71
1, 308653, Control_c, 0, 64, 26
1, 308667, Note_off_c, 0, 65, 67
1, 308668, Control_c, 0, 64, 24
1, 308683, Control_c, 0, 64, 23
1, 308706, Note_on_c, 0, 59, 56
1, 308713, Control_c, 0, 64, 23
1, 308738, Note_off_c, 0, 59, 63
1, 308742, Control_c, 0, 64, 24
1, 308743, Note_on_c, 0, 55, 67
1, 308784, Note_off_c, 0, 55, 61
1, 308801, Control_c, 0, 64, 23
1, 308813, Note_on_c, 0, 53, 61
1, 308860, Note_off_c, 0, 53, 63
1, 308869, Note_on_c, 0, 47, 70
1, 308883, Control_c, 0, 64, 22
1, 308898, Control_c, 0, 64, 18
1, 308913, Control_c, 0, 64, 14
1, 308927, Control_c, 0, 64, 11
1, 308933, Note_on_c, 0, 53, 73
1, 308939, Note_off_c, 0, 47, 63
1, 308942, Control_c, 0, 64, 10
1, 308957, Control_c, 0, 64, 9
1, 308960, Note_off_c, 0, 53, 66
1, 308994, Note_on_c, 0, 55, 75
1, 309016, Control_c, 0, 64, 10
1, 309030, Note_off_c, 0, 55, 65
1, 309031, Control_c, 0, 64, 12
1, 309046, Control_c, 0, 64, 14
1, 309049, Note_on_c, 0, 67, 66
1, 309052, Note_on_c, 0, 65, 63
1, 309060, Control_c, 0, 64, 19
1, 309075, Control_c, 0, 64, 26
1, 309079, Note_off_c, 0, 65, 66
1, 309088, Note_off_c, 0, 67, 61
1, 309090, Control_c, 0, 64, 34
1, 309105, Control_c, 0, 64, 35
1, 309120, Control_c, 0, 64, 27
1, 309125, Note_on_c, 0, 55, 66
1, 309134, Control_c, 0, 64, 0
1, 309146, Note_off_c, 0, 55, 63
1, 309158, Note_on_c, 0, 53, 74
1, 309181, Note_off_c, 0, 53, 67
1, 309223, Control_c, 0, 64, 26
1, 309230, Note_on_c, 0, 47, 76
1, 309238, Control_c, 0, 64, 27
1, 309241, Note_on_c, 0, 73, 85
1, 309254, Control_c, 0, 64, 28
1, 309258, Note_off_c, 0, 47, 64
1, 309263, Note_off_c, 0, 73, 66
1, 309269, Control_c, 0, 64, 29
1, 309283, Control_c, 0, 64, 31
1, 309298, Control_c, 0, 64, 34
1, 309304, Note_on_c, 0, 61, 68
1, 309313, Control_c, 0, 64, 37
1, 309328, Control_c, 0, 64, 39
1, 309331, Note_off_c, 0, 61, 65
1, 309343, Control_c, 0, 64, 41
1, 309358, Control_c, 0, 64, 43
1, 309371, Note_on_c, 0, 75, 85
1, 309372, Control_c, 0, 64, 45
1, 309383, Note_on_c, 0, 65, 62
1, 309387, Control_c, 0, 64, 46
1, 309393, Note_on_c, 0, 67, 61
1, 309396, Note_off_c, 0, 75, 63
1, 309408, Note_off_c, 0, 65, 64
1, 309413, Note_off_c, 0, 67, 62
1, 309429, Note_on_c, 0, 63, 73
1, 309456, Note_off_c, 0, 63, 65
1, 309462, Control_c, 0, 64, 45
1, 309476, Control_c, 0, 64, 44
1, 309491, Control_c, 0, 64, 42
1, 309505, Note_on_c, 0, 70, 88
1, 309506, Control_c, 0, 64, 40
1, 309521, Control_c, 0, 64, 35
1, 309530, Note_off_c, 0, 70, 60
1, 309536, Control_c, 0, 64, 25
1, 309550, Control_c, 0, 64, 0
1, 309567, Note_on_c, 0, 58, 79
1, 309601, Note_off_c, 0, 58, 63
1, 309617, Control_c, 0, 64, 22
1, 309632, Control_c, 0, 64, 38
1, 309637, Note_on_c, 0, 47, 68
1, 309641, Note_on_c, 0, 68, 79
1, 309647, Control_c, 0, 64, 50
1, 309662, Control_c, 0, 64, 56
1, 309662, Note_off_c, 0, 68, 69
1, 309667, Note_off_c, 0, 47, 63
1, 309676, Control_c, 0, 64, 58
1, 309691, Control_c, 0, 64, 58
1, 309706, Control_c, 0, 64, 60
1, 309708, Note_on_c, 0, 56, 60
1, 309721, Control_c, 0, 64, 61
1, 309730, Note_off_c, 0, 56, 59
1, 309736, Control_c, 0, 64, 62
1, 309750, Control_c, 0, 64, 64
1, 309765, Control_c, 0, 64, 65
1, 309774, Note_on_c, 0, 73, 84
1, 309780, Control_c, 0, 64, 67
1, 309787, Note_on_c, 0, 62, 51
1, 309794, Note_on_c, 0, 64, 59
1, 309795, Control_c, 0, 64, 68
1, 309806, Note_off_c, 0, 73, 61
1, 309808, Note_off_c, 0, 62, 60
1, 309809, Control_c, 0, 64, 70
1, 309814, Note_off_c, 0, 64, 61
1, 309824, Control_c, 0, 64, 72
1, 309839, Control_c, 0, 64, 73
1, 309840, Note_on_c, 0, 61, 79
1, 309854, Control_c, 0, 64, 74
1, 309866, Note_off_c, 0, 61, 68
1, 309869, Control_c, 0, 64, 75
1, 309883, Control_c, 0, 64, 75
1, 309924, Note_on_c, 0, 68, 65
1, 309943, Note_off_c, 0, 68, 65
1, 309987, Control_c, 0, 64, 74
1, 309991, Note_on_c, 0, 56, 32
1, 310001, Control_c, 0, 64, 72
1, 310016, Control_c, 0, 64, 67
1, 310025, Note_off_c, 0, 56, 42
1, 310031, Control_c, 0, 64, 60
1, 310046, Control_c, 0, 64, 46
1, 310059, Note_on_c, 0, 51, 61
1, 310060, Note_on_c, 0, 35, 72
1, 310062, Control_c, 0, 64, 27
1, 310064, Note_on_c, 0, 44, 74
1, 310077, Control_c, 0, 64, 0
1, 310084, Note_off_c, 0, 51, 60
1, 310088, Note_off_c, 0, 35, 64
1, 310094, Note_off_c, 0, 44, 65
1, 310112, Note_on_c, 0, 52, 63
1, 310118, Note_on_c, 0, 50, 70
1, 310148, Note_off_c, 0, 50, 65
1, 310149, Note_off_c, 0, 52, 64
1, 310182, Note_on_c, 0, 53, 66
1, 310188, Note_on_c, 0, 49, 73
1, 310212, Note_off_c, 0, 49, 67
1, 310231, Note_off_c, 0, 53, 63
1, 310241, Note_on_c, 0, 52, 57
1, 310245, Note_on_c, 0, 50, 48
1, 310273, Note_off_c, 0, 52, 52
1, 310276, Note_off_c, 0, 50, 62
1, 310290, Note_on_c, 0, 51, 73
1, 310300, Note_on_c, 0, 35, 53
1, 310309, Note_on_c, 0, 44, 72
1, 310331, Note_off_c, 0, 51, 63
1, 310337, Note_off_c, 0, 35, 60
1, 310343, Note_off_c, 0, 44, 66
1, 310364, Note_on_c, 0, 50, 56
1, 310368, Note_on_c, 0, 52, 67
1, 310387, Note_off_c, 0, 50, 63
1, 310395, Note_off_c, 0, 52, 63
1, 310453, Note_on_c, 0, 47, 63
1, 310458, Note_on_c, 0, 56, 59
1, 310476, Note_off_c, 0, 47, 39
1, 310483, Note_off_c, 0, 56, 37
1, 310507, Note_on_c, 0, 64, 71
1, 310508, Note_on_c, 0, 62, 68
1, 310532, Note_off_c, 0, 64, 68
1, 310533, Note_off_c, 0, 62, 68
1, 310580, Note_on_c, 0, 61, 71
1, 310603, Note_off_c, 0, 61, 68
1, 310633, Note_on_c, 0, 76, 68
1, 310642, Note_on_c, 0, 74, 55
1, 310661, Note_off_c, 0, 76, 62
1, 310663, Note_off_c, 0, 74, 64
1, 310689, Note_on_c, 0, 47, 49
1, 310707, Note_on_c, 0, 56, 72
1, 310720, Note_off_c, 0, 47, 63
1, 310732, Note_off_c, 0, 56, 67
1, 310745, Note_on_c, 0, 64, 60
1, 310766, Note_off_c, 0, 64, 65
1, 310839, Control_c, 0, 67, 11
1, 310854, Control_c, 0, 67, 27
1, 310856, Note_on_c, 0, 74, 58
1, 310861, Note_on_c, 0, 59, 63
1, 310864, Note_on_c, 0, 68, 62
1, 310869, Control_c, 0, 67, 27
1, 310876, Note_off_c, 0, 74, 64
1, 310881, Note_off_c, 0, 59, 61
1, 310884, Note_off_c, 0, 68, 64
1, 310884, Control_c, 0, 67, 28
1, 310899, Control_c, 0, 67, 30
1, 310906, Note_on_c, 0, 73, 65
1, 310914, Control_c, 0, 67, 32
1, 310928, Control_c, 0, 67, 37
1, 310929, Note_off_c, 0, 73, 68
1, 310943, Control_c, 0, 67, 44
1, 310958, Control_c, 0, 67, 54
1, 310966, Note_on_c, 0, 74, 60
1, 310973, Control_c, 0, 67, 64
1, 310983, Note_on_c, 0, 73, 79
1, 310988, Control_c, 0, 67, 71
1, 311003, Control_c, 0, 67, 76
1, 311007, Note_off_c, 0, 73, 66
1, 311013, Note_off_c, 0, 74, 62
1, 311018, Control_c, 0, 67, 82
1, 311033, Control_c, 0, 67, 86
1, 311040, Note_on_c, 0, 76, 55
1, 311048, Control_c, 0, 67, 92
1, 311063, Control_c, 0, 67, 98
1, 311081, Note_off_c, 0, 76, 60
1, 311085, Control_c, 0, 67, 104
1, 311100, Control_c, 0, 67, 108
1, 311113, Note_on_c, 0, 77, 63
1, 311115, Control_c, 0, 67, 109
1, 311117, Note_on_c, 0, 68, 64
1, 311129, Control_c, 0, 67, 110
1, 311147, Note_off_c, 0, 68, 62
1, 311148, Note_off_c, 0, 77, 62
1, 311159, Control_c, 0, 64, 19
1, 311170, Note_on_c, 0, 79, 60
1, 311173, Control_c, 0, 64, 28
1, 311188, Control_c, 0, 64, 41
1, 311203, Control_c, 0, 64, 53
1, 311203, Control_c, 0, 67, 109
1, 311208, Note_off_c, 0, 79, 56
1, 311218, Control_c, 0, 64, 57
1, 311218, Control_c, 0, 67, 108
1, 311231, Note_on_c, 0, 77, 63
1, 311233, Control_c, 0, 67, 108
1, 311239, Note_on_c, 0, 67, 75
1, 311241, Note_on_c, 0, 59, 60
1, 311247, Control_c, 0, 64, 56
1, 311261, Note_off_c, 0, 67, 69
1, 311262, Note_off_c, 0, 59, 61
1, 311262, Control_c, 0, 64, 50
1, 311262, Control_c, 0, 67, 107
1, 311263, Note_off_c, 0, 77, 62
1, 311277, Control_c, 0, 64, 38
1, 311292, Control_c, 0, 64, 24
1, 311292, Control_c, 0, 67, 108
1, 311296, Note_on_c, 0, 79, 68
1, 311307, Control_c, 0, 64, 15
1, 311307, Control_c, 0, 67, 108
1, 311322, Control_c, 0, 67, 109
1, 311337, Control_c, 0, 64, 16
1, 311337, Control_c, 0, 67, 111
1, 311352, Control_c, 0, 67, 113
1, 311355, Note_on_c, 0, 77, 72
1, 311367, Control_c, 0, 64, 15
1, 311367, Control_c, 0, 67, 117
1, 311370, Note_on_c, 0, 86, 88
1, 311374, Note_on_c, 0, 83, 81
1, 311381, Control_c, 0, 64, 13
1, 311381, Control_c, 0, 67, 121
1, 311382, Note_off_c, 0, 86, 51
1, 311388, Note_off_c, 0, 83, 69
1, 311395, Note_off_c, 0, 79, 55
1, 311396, Control_c, 0, 64, 8
1, 311396, Control_c, 0, 67, 122
1, 311411, Control_c, 0, 64, 0
1, 311411, Control_c, 0, 67, 122
1, 311411, Note_on_c, 0, 84, 23
1, 311412, Note_off_c, 0, 84, 127
1, 311414, Note_off_c, 0, 77, 63
1, 311415, Note_on_c, 0, 76, 67
1, 311441, Control_c, 0, 67, 122
1, 311453, Note_off_c, 0, 76, 61
1, 311456, Note_on_c, 0, 86, 14
1, 311457, Note_off_c, 0, 86, 127
1, 311470, Control_c, 0, 67, 121
1, 311482, Note_on_c, 0, 74, 67
1, 311485, Control_c, 0, 67, 120
1, 311500, Control_c, 0, 67, 118
1, 311515, Control_c, 0, 67, 116
1, 311519, Note_off_c, 0, 74, 59
1, 311529, Control_c, 0, 67, 116
1, 311544, Control_c, 0, 67, 115
1, 311558, Note_on_c, 0, 73, 66
1, 311559, Control_c, 0, 67, 113
1, 311573, Control_c, 0, 67, 112
1, 311581, Note_off_c, 0, 73, 67
1, 311602, Note_on_c, 0, 59, 54
1, 311612, Note_on_c, 0, 68, 69
1, 311618, Control_c, 0, 67, 112
1, 311622, Note_on_c, 0, 74, 73
1, 311625, Note_off_c, 0, 59, 63
1, 311633, Note_off_c, 0, 68, 67
1, 311633, Control_c, 0, 67, 113
1, 311649, Control_c, 0, 67, 114
1, 311652, Note_off_c, 0, 74, 61
1, 311664, Control_c, 0, 67, 115
1, 311678, Control_c, 0, 67, 116
1, 311681, Note_on_c, 0, 73, 68
1, 311693, Control_c, 0, 67, 116
1, 311709, Note_off_c, 0, 73, 65
1, 311723, Control_c, 0, 67, 117
1, 311738, Control_c, 0, 67, 117
1, 311739, Note_on_c, 0, 73, 61
1, 311745, Note_on_c, 0, 74, 71
1, 311752, Control_c, 0, 67, 118
1, 311766, Note_off_c, 0, 73, 66
1, 311784, Note_off_c, 0, 74, 60
1, 311822, Note_on_c, 0, 76, 66
1, 311847, Note_off_c, 0, 76, 65
1, 311864, Control_c, 0, 67, 118
1, 311873, Note_on_c, 0, 68, 64
1, 311886, Note_on_c, 0, 77, 70
1, 311906, Note_off_c, 0, 68, 64
1, 311908, Control_c, 0, 67, 118
1, 311921, Note_off_c, 0, 77, 61
1, 311923, Control_c, 0, 67, 117
1, 311938, Control_c, 0, 67, 117
1, 311947, Note_on_c, 0, 79, 62
1, 311952, Control_c, 0, 67, 116
1, 311967, Control_c, 0, 64, 25
1, 311982, Control_c, 0, 64, 41
1, 311982, Control_c, 0, 67, 115
1, 311988, Note_off_c, 0, 79, 52
1, 311996, Control_c, 0, 64, 53
1, 311996, Control_c, 0, 67, 115
1, 312001, Note_on_c, 0, 59, 66
1, 312002, Note_on_c, 0, 67, 72
1, 312006, Note_on_c, 0, 77, 68
1, 312011, Control_c, 0, 64, 55
1, 312011, Control_c, 0, 67, 114
1, 312012, Note_on_c, 0, 65, 60
1, 312024, Note_off_c, 0, 59, 67
1, 312025, Note_off_c, 0, 67, 69
1, 312026, Control_c, 0, 64, 51
1, 312033, Note_off_c, 0, 65, 39
1, 312041, Control_c, 0, 64, 40
1, 312041, Control_c, 0, 67, 115
1, 312042, Note_off_c, 0, 77, 58
1, 312056, Control_c, 0, 64, 24
1, 312056, Control_c, 0, 67, 115
1, 312070, Note_on_c, 0, 79, 66
1, 312070, Control_c, 0, 64, 0
1, 312070, Control_c, 0, 67, 116
1, 312085, Control_c, 0, 67, 117
1, 312100, Control_c, 0, 67, 118
1, 312115, Control_c, 0, 67, 118
1, 312130, Note_on_c, 0, 77, 66
1, 312130, Control_c, 0, 67, 119
1, 312136, Note_on_c, 0, 86, 83
1, 312138, Note_on_c, 0, 84, 81
1, 312146, Note_on_c, 0, 83, 62
1, 312147, Note_off_c, 0, 83, 127
1, 312148, Note_off_c, 0, 86, 73
1, 312151, Note_off_c, 0, 84, 70
1, 312159, Note_on_c, 0, 81, 54
1, 312163, Note_off_c, 0, 79, 54
1, 312175, Control_c, 0, 67, 119
1, 312177, Note_off_c, 0, 77, 64
1, 312181, Note_on_c, 0, 76, 59
1, 312186, Note_off_c, 0, 81, 36
1, 312204, Control_c, 0, 67, 118
1, 312207, Note_off_c, 0, 76, 66
1, 312219, Control_c, 0, 67, 117
1, 312234, Control_c, 0, 67, 116
1, 312237, Note_on_c, 0, 74, 70
1, 312249, Control_c, 0, 67, 115
1, 312264, Control_c, 0, 67, 114
1, 312278, Control_c, 0, 67, 112
1, 312285, Note_off_c, 0, 74, 57
1, 312293, Control_c, 0, 67, 112
1, 312306, Note_on_c, 0, 73, 74
1, 312308, Control_c, 0, 67, 111
1, 312322, Control_c, 0, 67, 111
1, 312334, Note_off_c, 0, 73, 63
1, 312337, Control_c, 0, 67, 110
1, 312359, Note_on_c, 0, 59, 66
1, 312373, Note_on_c, 0, 62, 35
1, 312373, Note_on_c, 0, 68, 73
1, 312382, Control_c, 0, 67, 111
1, 312386, Note_on_c, 0, 74, 68
1, 312388, Note_off_c, 0, 59, 65
1, 312393, Note_off_c, 0, 68, 70
1, 312396, Control_c, 0, 67, 112
1, 312400, Note_off_c, 0, 62, 43
1, 312411, Note_off_c, 0, 74, 67
1, 312411, Control_c, 0, 67, 113
1, 312426, Control_c, 0, 67, 114
1, 312441, Note_on_c, 0, 73, 72
1, 312442, Control_c, 0, 67, 115
1, 312457, Control_c, 0, 67, 116
1, 312467, Note_off_c, 0, 73, 64
1, 312505, Note_on_c, 0, 74, 63
1, 312508, Note_on_c, 0, 73, 68
1, 312531, Note_off_c, 0, 73, 67
1, 312555, Note_off_c, 0, 74, 57
1, 312583, Control_c, 0, 67, 115
1, 312587, Note_on_c, 0, 76, 61
1, 312613, Control_c, 0, 67, 115
1, 312627, Control_c, 0, 67, 114
1, 312636, Note_off_c, 0, 76, 59
1, 312639, Note_on_c, 0, 68, 66
1, 312642, Control_c, 0, 67, 113
1, 312651, Note_on_c, 0, 77, 62
1, 312661, Note_off_c, 0, 68, 69
1, 312672, Control_c, 0, 67, 113
1, 312681, Note_off_c, 0, 77, 66
1, 312687, Control_c, 0, 67, 112
1, 312699, Note_on_c, 0, 79, 61
1, 312701, Control_c, 0, 67, 112
1, 312716, Control_c, 0, 67, 111
1, 312731, Control_c, 0, 67, 110
1, 312745, Control_c, 0, 67, 109
1, 312760, Note_on_c, 0, 74, 82
1, 312760, Note_on_c, 0, 77, 68
1, 312760, Control_c, 0, 67, 109
1, 312764, Note_off_c, 0, 79, 60
1, 312775, Control_c, 0, 67, 108
1, 312783, Note_off_c, 0, 74, 68
1, 312786, Note_off_c, 0, 77, 68
1, 312790, Control_c, 0, 67, 106
1, 312802, Note_on_c, 0, 76, 59
1, 312805, Control_c, 0, 67, 105
1, 312820, Control_c, 0, 67, 103
1, 312826, Note_off_c, 0, 76, 65
1, 312834, Control_c, 0, 67, 101
1, 312849, Control_c, 0, 67, 97
1, 312864, Control_c, 0, 67, 95
1, 312867, Note_on_c, 0, 77, 72
1, 312873, Note_on_c, 0, 67, 71
1, 312879, Control_c, 0, 67, 93
1, 312885, Note_on_c, 0, 59, 47
1, 312894, Control_c, 0, 67, 92
1, 312896, Note_off_c, 0, 67, 69
1, 312908, Control_c, 0, 67, 91
1, 312911, Note_off_c, 0, 59, 46
1, 312923, Note_off_c, 0, 77, 62
1, 312923, Control_c, 0, 67, 90
1, 312928, Note_on_c, 0, 79, 67
1, 312938, Control_c, 0, 67, 89
1, 312953, Control_c, 0, 64, 10
1, 312953, Control_c, 0, 67, 88
1, 312967, Control_c, 0, 64, 15
1, 312967, Control_c, 0, 67, 86
1, 312970, Note_off_c, 0, 79, 60
1, 312982, Note_on_c, 0, 80, 67
1, 312982, Control_c, 0, 64, 19
1, 312982, Control_c, 0, 67, 84
1, 312997, Note_on_c, 0, 74, 70
1, 312997, Control_c, 0, 64, 22
1, 312997, Control_c, 0, 67, 82
1, 313012, Control_c, 0, 64, 26
1, 313012, Control_c, 0, 67, 79
1, 313018, Note_off_c, 0, 74, 70
1, 313027, Control_c, 0, 64, 30
1, 313027, Control_c, 0, 67, 75
1, 313033, Note_off_c, 0, 80, 61
1, 313042, Control_c, 0, 64, 32
1, 313042, Control_c, 0, 67, 71
1, 313042, Note_on_c, 0, 82, 59
1, 313057, Control_c, 0, 64, 31
1, 313057, Control_c, 0, 67, 66
1, 313072, Control_c, 0, 64, 28
1, 313072, Control_c, 0, 67, 60
1, 313083, Note_off_c, 0, 82, 61
1, 313087, Control_c, 0, 64, 21
1, 313087, Control_c, 0, 67, 56
1, 313092, Note_on_c, 0, 56, 64
1, 313099, Note_on_c, 0, 63, 35
1, 313101, Note_on_c, 0, 64, 57
1, 313101, Control_c, 0, 64, 15
1, 313101, Control_c, 0, 67, 53
1, 313107, Note_on_c, 0, 83, 81
1, 313111, Note_off_c, 0, 56, 62
1, 313116, Control_c, 0, 64, 12
1, 313116, Control_c, 0, 67, 51
1, 313124, Note_on_c, 0, 71, 73
1, 313124, Note_off_c, 0, 64, 38
1, 313131, Control_c, 0, 64, 10
1, 313131, Control_c, 0, 67, 50
1, 313131, Note_off_c, 0, 63, 34
1, 313140, Note_off_c, 0, 71, 70
1, 313141, Note_off_c, 0, 83, 63
1, 313145, Control_c, 0, 64, 9
1, 313160, Control_c, 0, 67, 49
1, 313175, Control_c, 0, 67, 48
1, 313176, Note_on_c, 0, 82, 54
1, 313190, Control_c, 0, 67, 47
1, 313196, Note_off_c, 0, 82, 62
1, 313205, Control_c, 0, 67, 44
1, 313219, Control_c, 0, 67, 41
1, 313234, Control_c, 0, 64, 8
1, 313234, Control_c, 0, 67, 37
1, 313245, Note_on_c, 0, 83, 68
1, 313246, Note_on_c, 0, 76, 59
1, 313250, Control_c, 0, 64, 0
1, 313250, Control_c, 0, 67, 33
1, 313265, Control_c, 0, 67, 29
1, 313268, Note_off_c, 0, 76, 39
1, 313276, Note_off_c, 0, 83, 58
1, 313280, Control_c, 0, 67, 25
1, 313280, Note_on_c, 0, 74, 27
1, 313281, Note_off_c, 0, 74, 127
1, 313295, Control_c, 0, 67, 20
1, 313299, Note_on_c, 0, 85, 65
1, 313310, Control_c, 0, 67, 13
1, 313331, Control_c, 0, 67, 10
1, 313332, Note_off_c, 0, 85, 68
1, 313346, Control_c, 0, 67, 8
1, 313357, Note_on_c, 0, 71, 66
1, 313361, Control_c, 0, 67, 0
1, 313371, Note_on_c, 0, 86, 71
1, 313382, Note_off_c, 0, 71, 69
1, 313415, Note_off_c, 0, 86, 52
1, 313435, Note_on_c, 0, 88, 69
1, 313465, Note_on_c, 0, 62, 56
1, 313474, Note_on_c, 0, 70, 68
1, 313480, Note_off_c, 0, 88, 59
1, 313486, Note_on_c, 0, 68, 46
1, 313486, Note_off_c, 0, 62, 61
1, 313492, Note_off_c, 0, 70, 66
1, 313493, Note_on_c, 0, 86, 69
1, 313513, Note_off_c, 0, 68, 35
1, 313525, Note_off_c, 0, 86, 58
1, 313557, Note_on_c, 0, 88, 76
1, 313608, Note_on_c, 0, 80, 76
1, 313618, Note_off_c, 0, 88, 59
1, 313620, Note_on_c, 0, 86, 71
1, 313623, Note_on_c, 0, 82, 52
1, 313630, Note_off_c, 0, 80, 69
1, 313647, Note_off_c, 0, 82, 38
1, 313653, Note_off_c, 0, 86, 63
1, 313659, Note_on_c, 0, 85, 73
1, 313689, Note_off_c, 0, 85, 64
1, 313722, Note_on_c, 0, 83, 70
1, 313761, Note_off_c, 0, 83, 56
1, 313784, Note_on_c, 0, 82, 71
1, 313790, Note_on_c, 0, 56, 69
1, 313808, Note_off_c, 0, 82, 66
1, 313821, Note_on_c, 0, 64, 59
1, 313822, Note_off_c, 0, 56, 66
1, 313838, Note_on_c, 0, 71, 82
1, 313841, Note_off_c, 0, 64, 63
1, 313842, Note_on_c, 0, 83, 77
1, 313862, Note_off_c, 0, 71, 66
1, 313879, Note_off_c, 0, 83, 54
1, 313892, Note_on_c, 0, 82, 77
1, 313919, Note_off_c, 0, 82, 63
1, 313967, Note_on_c, 0, 83, 75
1, 313975, Note_on_c, 0, 76, 82
1, 313994, Note_off_c, 0, 76, 70
1, 313996, Note_off_c, 0, 83, 59
1, 314023, Note_on_c, 0, 85, 75
1, 314076, Note_off_c, 0, 85, 59
1, 314102, Note_on_c, 0, 86, 69
1, 314108, Note_on_c, 0, 71, 78
1, 314131, Note_off_c, 0, 71, 67
1, 314148, Note_off_c, 0, 86, 65
1, 314159, Note_on_c, 0, 88, 76
1, 314213, Note_on_c, 0, 86, 69
1, 314213, Note_off_c, 0, 88, 62
1, 314220, Note_on_c, 0, 62, 62
1, 314225, Note_on_c, 0, 70, 81
1, 314230, Note_on_c, 0, 68, 69
1, 314240, Note_off_c, 0, 62, 64
1, 314243, Note_off_c, 0, 70, 69
1, 314246, Note_off_c, 0, 68, 69
1, 314265, Note_off_c, 0, 86, 58
1, 314274, Note_on_c, 0, 88, 75
1, 314332, Control_c, 0, 64, 9
1, 314347, Control_c, 0, 64, 14
1, 314348, Note_on_c, 0, 86, 76
1, 314356, Note_on_c, 0, 82, 88
1, 314357, Note_on_c, 0, 80, 89
1, 314357, Note_off_c, 0, 88, 60
1, 314362, Control_c, 0, 64, 16
1, 314371, Note_off_c, 0, 80, 73
1, 314375, Note_off_c, 0, 82, 70
1, 314391, Note_off_c, 0, 86, 65
1, 314391, Control_c, 0, 64, 15
1, 314398, Note_on_c, 0, 85, 75
1, 314406, Control_c, 0, 64, 13
1, 314421, Control_c, 0, 64, 12
1, 314436, Note_off_c, 0, 85, 63
1, 314436, Control_c, 0, 64, 9
1, 314451, Control_c, 0, 64, 0
1, 314455, Note_on_c, 0, 83, 78
1, 314506, Note_off_c, 0, 83, 59
1, 314522, Note_on_c, 0, 82, 78
1, 314534, Note_on_c, 0, 56, 81
1, 314548, Note_off_c, 0, 82, 64
1, 314563, Note_off_c, 0, 56, 66
1, 314576, Note_on_c, 0, 83, 85
1, 314577, Note_on_c, 0, 71, 87
1, 314583, Note_on_c, 0, 64, 34
1, 314594, Note_off_c, 0, 64, 43
1, 314599, Note_off_c, 0, 71, 67
1, 314625, Note_off_c, 0, 83, 61
1, 314634, Note_on_c, 0, 82, 82
1, 314663, Note_off_c, 0, 82, 63
1, 314698, Note_on_c, 0, 76, 86
1, 314704, Note_on_c, 0, 83, 85
1, 314715, Note_off_c, 0, 76, 70
1, 314753, Note_off_c, 0, 83, 63
1, 314756, Note_on_c, 0, 85, 72
1, 314806, Control_c, 0, 64, 10
1, 314819, Note_on_c, 0, 71, 94
1, 314828, Control_c, 0, 64, 15
1, 314831, Note_on_c, 0, 86, 79
1, 314833, Note_off_c, 0, 85, 63
1, 314844, Note_off_c, 0, 71, 68
1, 314844, Control_c, 0, 64, 19
1, 314859, Control_c, 0, 64, 22
1, 314874, Control_c, 0, 64, 26
1, 314887, Note_off_c, 0, 86, 64
1, 314889, Control_c, 0, 64, 32
1, 314893, Note_on_c, 0, 88, 81
1, 314903, Control_c, 0, 64, 40
1, 314918, Control_c, 0, 64, 46
1, 314933, Control_c, 0, 64, 49
1, 314947, Control_c, 0, 64, 51
1, 314948, Note_on_c, 0, 86, 78
1, 314956, Note_on_c, 0, 77, 92
1, 314962, Control_c, 0, 64, 52
1, 314976, Note_off_c, 0, 88, 63
1, 314977, Control_c, 0, 64, 54
1, 314992, Control_c, 0, 64, 57
1, 314993, Note_off_c, 0, 77, 65
1, 315007, Control_c, 0, 64, 58
1, 315008, Note_off_c, 0, 86, 66
1, 315015, Note_on_c, 0, 85, 83
1, 315021, Control_c, 0, 64, 59
1, 315036, Control_c, 0, 64, 61
1, 315051, Control_c, 0, 64, 62
1, 315063, Note_on_c, 0, 62, 61
1, 315065, Note_off_c, 0, 85, 65
1, 315066, Control_c, 0, 64, 64
1, 315081, Control_c, 0, 64, 66
1, 315084, Note_on_c, 0, 86, 89
1, 315084, Note_on_c, 0, 71, 64
1, 315085, Note_on_c, 0, 64, 43
1, 315094, Note_off_c, 0, 62, 64
1, 315096, Control_c, 0, 64, 69
1, 315105, Note_off_c, 0, 71, 66
1, 315111, Control_c, 0, 64, 73
1, 315112, Note_off_c, 0, 64, 56
1, 315123, Note_on_c, 0, 69, 8
1, 315126, Control_c, 0, 64, 78
1, 315140, Control_c, 0, 64, 82
1, 315150, Note_on_c, 0, 88, 93
1, 315152, Note_off_c, 0, 86, 45
1, 315155, Control_c, 0, 64, 86
1, 315170, Note_off_c, 0, 69, 28
1, 315170, Control_c, 0, 64, 92
1, 315177, Note_on_c, 0, 77, 86
1, 315185, Control_c, 0, 64, 106
1, 315195, Note_off_c, 0, 77, 72
1, 315200, Control_c, 0, 64, 127
1, 315207, Note_on_c, 0, 89, 95
1, 315209, Note_off_c, 0, 88, 65
1, 315218, Note_on_c, 0, 76, 42
1, 315229, Control_c, 0, 64, 119
1, 315244, Control_c, 0, 64, 87
1, 315245, Note_off_c, 0, 76, 52
1, 315259, Control_c, 0, 64, 69
1, 315260, Note_on_c, 0, 91, 84
1, 315266, Note_off_c, 0, 89, 66
1, 315273, Control_c, 0, 64, 53
1, 315282, Note_on_c, 0, 53, 81
1, 315288, Control_c, 0, 64, 34
1, 315303, Control_c, 0, 64, 27
1, 315305, Note_on_c, 0, 55, 56
1, 315318, Control_c, 0, 64, 25
1, 315333, Control_c, 0, 64, 31
1, 315345, Note_off_c, 0, 53, 62
1, 315347, Control_c, 0, 64, 49
1, 315349, Note_on_c, 0, 60, 39
1, 315352, Note_on_c, 0, 83, 98
1, 315352, Note_on_c, 0, 92, 102
1, 315354, Note_on_c, 0, 68, 105
1, 315355, Note_on_c, 0, 63, 86
1, 315360, Note_on_c, 0, 87, 93
1, 315362, Control_c, 0, 64, 66
1, 315363, Note_off_c, 0, 55, 50
1, 315373, Note_off_c, 0, 91, 66
1, 315373, Note_off_c, 0, 63, 72
1, 315375, Note_off_c, 0, 87, 74
1, 315377, Note_off_c, 0, 60, 64
1, 315377, Control_c, 0, 64, 81
1, 315379, Note_off_c, 0, 83, 69
1, 315380, Note_off_c, 0, 92, 67
1, 315383, Note_off_c, 0, 68, 66
1, 315392, Control_c, 0, 64, 107
1, 315407, Control_c, 0, 64, 127
1, 315555, Control_c, 0, 64, 89
1, 315577, Control_c, 0, 64, 69
1, 315592, Control_c, 0, 64, 53
1, 315607, Control_c, 0, 64, 26
1, 315621, Control_c, 0, 64, 0
1, 315775, Note_on_c, 0, 67, 103
1, 315800, Control_c, 0, 64, 47
1, 315815, Control_c, 0, 64, 60
1, 315830, Note_on_c, 0, 68, 69
1, 315830, Control_c, 0, 64, 61
1, 315844, Control_c, 0, 64, 63
1, 315852, Note_off_c, 0, 67, 66
1, 315854, Note_on_c, 0, 70, 83
1, 315859, Control_c, 0, 64, 65
1, 315874, Control_c, 0, 64, 67
1, 315880, Note_off_c, 0, 70, 68
1, 315886, Note_off_c, 0, 68, 64
1, 315889, Control_c, 0, 64, 69
1, 315890, Note_on_c, 0, 71, 74
1, 315904, Control_c, 0, 64, 73
1, 315906, Note_off_c, 0, 71, 69
1, 315910, Note_on_c, 0, 74, 82
1, 315919, Control_c, 0, 64, 77
1, 315931, Note_off_c, 0, 74, 71
1, 315933, Control_c, 0, 64, 81
1, 315946, Note_on_c, 0, 75, 80
1, 315948, Control_c, 0, 64, 84
1, 315963, Control_c, 0, 64, 87
1, 315978, Control_c, 0, 64, 90
1, 315991, Note_on_c, 0, 79, 78
1, 315993, Control_c, 0, 64, 92
1, 316002, Note_off_c, 0, 75, 65
1, 316008, Control_c, 0, 64, 95
1, 316023, Control_c, 0, 64, 98
1, 316033, Note_on_c, 0, 80, 66
1, 316037, Control_c, 0, 64, 104
1, 316052, Control_c, 0, 64, 115
1, 316059, Note_off_c, 0, 79, 60
1, 316062, Note_off_c, 0, 80, 64
1, 316062, Note_on_c, 0, 83, 79
1, 316067, Control_c, 0, 64, 127
1, 316076, Note_on_c, 0, 82, 50
1, 316091, Note_off_c, 0, 83, 63
1, 316098, Note_off_c, 0, 82, 53
1, 316128, Note_on_c, 0, 82, 49
1, 316154, Note_off_c, 0, 82, 66
1, 316163, Note_on_c, 0, 86, 65
1, 316189, Note_off_c, 0, 86, 66
1, 316222, Note_on_c, 0, 87, 77
1, 316242, Note_off_c, 0, 87, 71
1, 316303, Control_c, 0, 64, 99
1, 316324, Note_on_c, 0, 91, 48
1, 316326, Control_c, 0, 64, 75
1, 316330, Note_on_c, 0, 89, 57
1, 316341, Control_c, 0, 64, 60
1, 316350, Note_off_c, 0, 89, 60
1, 316356, Control_c, 0, 64, 43
1, 316360, Note_off_c, 0, 91, 64
1, 316369, Note_on_c, 0, 92, 68
1, 316370, Control_c, 0, 64, 29
1, 316385, Control_c, 0, 64, 9
1, 316400, Control_c, 0, 64, 0
1, 316425, Note_on_c, 0, 63, 58
1, 316449, Note_on_c, 0, 95, 50
1, 316449, Note_off_c, 0, 92, 47
1, 316461, Control_c, 0, 64, 8
1, 316475, Control_c, 0, 64, 37
1, 316479, Note_off_c, 0, 63, 63
1, 316481, Note_off_c, 0, 95, 66
1, 316485, Note_on_c, 0, 94, 39
1, 316490, Control_c, 0, 64, 56
1, 316493, Note_on_c, 0, 99, 85
1, 316500, Note_on_c, 0, 87, 96
1, 316505, Control_c, 0, 64, 65
1, 316509, Note_on_c, 0, 79, 81
1, 316512, Note_off_c, 0, 94, 45
1, 316512, Note_off_c, 0, 99, 71
1, 316518, Note_off_c, 0, 87, 68
1, 316519, Control_c, 0, 64, 69
1, 316531, Note_on_c, 0, 70, 39
1, 316534, Control_c, 0, 64, 74
1, 316540, Note_off_c, 0, 79, 64
1, 316549, Control_c, 0, 64, 79
1, 316559, Note_off_c, 0, 70, 53
1, 316564, Control_c, 0, 64, 84
1, 316579, Control_c, 0, 64, 87
1, 316593, Control_c, 0, 64, 90
1, 316608, Control_c, 0, 64, 91
1, 316623, Control_c, 0, 64, 92
1, 316638, Control_c, 0, 64, 92
1, 316682, Control_c, 0, 64, 93
1, 316688, Note_on_c, 0, 67, 58
1, 316697, Control_c, 0, 67, 8
1, 316711, Control_c, 0, 67, 11
1, 316726, Control_c, 0, 64, 92
1, 316726, Control_c, 0, 67, 14
1, 316729, Note_on_c, 0, 70, 60
1, 316738, Note_off_c, 0, 67, 56
1, 316741, Control_c, 0, 64, 82
1, 316741, Control_c, 0, 67, 16
1, 316756, Control_c, 0, 64, 66
1, 316756, Control_c, 0, 67, 20
1, 316771, Control_c, 0, 64, 40
1, 316771, Control_c, 0, 67, 24
1, 316777, Note_off_c, 0, 70, 62
1, 316780, Note_on_c, 0, 63, 82
1, 316786, Control_c, 0, 64, 0
1, 316786, Control_c, 0, 67, 26
1, 316798, Note_off_c, 0, 63, 69
1, 316801, Control_c, 0, 67, 27
1, 316816, Control_c, 0, 67, 28
1, 316831, Control_c, 0, 67, 29
1, 316839, Note_on_c, 0, 63, 83
1, 316845, Control_c, 0, 67, 31
1, 316856, Note_off_c, 0, 63, 69
1, 316860, Control_c, 0, 67, 33
1, 316875, Control_c, 0, 67, 34
1, 316910, Note_on_c, 0, 63, 74
1, 316932, Note_off_c, 0, 63, 70
1, 316934, Control_c, 0, 67, 34
1, 316973, Note_on_c, 0, 64, 76
1, 316993, Control_c, 0, 67, 35
1, 316999, Note_off_c, 0, 64, 65
1, 317008, Control_c, 0, 67, 36
1, 317023, Control_c, 0, 67, 39
1, 317026, Note_on_c, 0, 67, 55
1, 317029, Note_on_c, 0, 71, 62
1, 317037, Control_c, 0, 67, 45
1, 317039, Note_on_c, 0, 66, 78
1, 317052, Control_c, 0, 67, 53
1, 317054, Note_off_c, 0, 71, 67
1, 317057, Note_off_c, 0, 66, 71
1, 317057, Note_off_c, 0, 67, 65
1, 317075, Control_c, 0, 67, 61
1, 317090, Control_c, 0, 67, 66
1, 317105, Control_c, 0, 67, 69
1, 317114, Note_on_c, 0, 66, 76
1, 317119, Control_c, 0, 67, 71
1, 317138, Note_off_c, 0, 66, 68
1, 317186, Note_on_c, 0, 66, 60
1, 317193, Control_c, 0, 67, 70
1, 317206, Note_off_c, 0, 66, 63
1, 317208, Control_c, 0, 67, 70
1, 317223, Control_c, 0, 67, 69
1, 317239, Control_c, 0, 67, 68
1, 317253, Note_on_c, 0, 66, 54
1, 317254, Control_c, 0, 67, 68
1, 317276, Note_on_c, 0, 67, 59
1, 317279, Note_on_c, 0, 71, 49
1, 317283, Control_c, 0, 67, 67
1, 317285, Note_off_c, 0, 66, 0
1, 317299, Note_on_c, 0, 66, 56
1, 317303, Note_off_c, 0, 71, 62
1, 317315, Note_off_c, 0, 67, 58
1, 317323, Note_off_c, 0, 66, 68
1, 317357, Control_c, 0, 67, 68
1, 317363, Note_on_c, 0, 64, 70
1, 317389, Note_off_c, 0, 64, 66
1, 317402, Control_c, 0, 67, 68
1, 317415, Note_on_c, 0, 70, 72
1, 317416, Control_c, 0, 67, 69
1, 317419, Note_on_c, 0, 67, 55
1, 317421, Note_on_c, 0, 63, 72
1, 317431, Control_c, 0, 67, 69
1, 317440, Note_off_c, 0, 70, 66
1, 317441, Note_off_c, 0, 67, 62
1, 317443, Note_off_c, 0, 63, 68
1, 317446, Control_c, 0, 67, 70
1, 317461, Control_c, 0, 67, 70
1, 317490, Control_c, 0, 67, 71
1, 317505, Control_c, 0, 67, 71
1, 317520, Control_c, 0, 67, 72
1, 317549, Control_c, 0, 67, 72
1, 317558, Note_on_c, 0, 63, 60
1, 317558, Note_on_c, 0, 67, 50
1, 317559, Note_on_c, 0, 70, 66
1, 317594, Note_off_c, 0, 70, 61
1, 317598, Note_off_c, 0, 63, 63
1, 317600, Note_off_c, 0, 67, 63
1, 317624, Note_on_c, 0, 63, 55
1, 317650, Note_off_c, 0, 63, 65
1, 317683, Control_c, 0, 67, 72
1, 317707, Note_on_c, 0, 63, 69
1, 317713, Control_c, 0, 67, 71
1, 317725, Note_off_c, 0, 63, 66
1, 317773, Note_on_c, 0, 64, 58
1, 317793, Note_off_c, 0, 64, 61
1, 317839, Control_c, 0, 67, 72
1, 317841, Note_on_c, 0, 69, 61
1, 317843, Note_on_c, 0, 60, 77
1, 317845, Note_on_c, 0, 67, 59
1, 317865, Note_off_c, 0, 60, 69
1, 317868, Note_off_c, 0, 69, 68
1, 317873, Note_off_c, 0, 67, 66
1, 317913, Control_c, 0, 64, 13
1, 317915, Note_on_c, 0, 60, 68
1, 317928, Control_c, 0, 64, 19
1, 317934, Note_off_c, 0, 60, 61
1, 317943, Control_c, 0, 64, 23
1, 317957, Control_c, 0, 64, 28
1, 317972, Control_c, 0, 64, 32
1, 317975, Note_on_c, 0, 60, 73
1, 317987, Control_c, 0, 64, 38
1, 318002, Note_off_c, 0, 60, 62
1, 318002, Control_c, 0, 64, 42
1, 318017, Control_c, 0, 64, 45
1, 318032, Control_c, 0, 64, 47
1, 318040, Poly_aftertouch_c, 0, 60, 0
1, 318047, Control_c, 0, 64, 51
1, 318062, Control_c, 0, 64, 53
1, 318076, Note_on_c, 0, 69, 50
1, 318077, Control_c, 0, 64, 56
1, 318083, Note_on_c, 0, 67, 55
1, 318089, Note_on_c, 0, 60, 78
1, 318092, Control_c, 0, 64, 59
1, 318107, Control_c, 0, 64, 60
1, 318112, Note_off_c, 0, 69, 63
1, 318121, Control_c, 0, 64, 61
1, 318127, Note_off_c, 0, 67, 59
1, 318128, Note_off_c, 0, 60, 63
1, 318151, Control_c, 0, 64, 60
1, 318157, Note_on_c, 0, 61, 76
1, 318166, Control_c, 0, 64, 56
1, 318181, Control_c, 0, 64, 46
1, 318190, Note_off_c, 0, 61, 60
1, 318196, Control_c, 0, 64, 23
1, 318211, Control_c, 0, 64, 0
1, 318218, Note_on_c, 0, 67, 63
1, 318223, Note_on_c, 0, 63, 68
1, 318223, Note_on_c, 0, 70, 65
1, 318226, Control_c, 0, 67, 71
1, 318240, Control_c, 0, 67, 72
1, 318246, Note_off_c, 0, 67, 67
1, 318249, Note_off_c, 0, 63, 65
1, 318249, Note_off_c, 0, 70, 66
1, 318270, Control_c, 0, 67, 73
1, 318285, Control_c, 0, 67, 74
1, 318299, Control_c, 0, 67, 74
1, 318314, Control_c, 0, 67, 75
1, 318329, Control_c, 0, 67, 75
1, 318344, Control_c, 0, 67, 76
1, 318358, Note_on_c, 0, 70, 65
1, 318359, Control_c, 0, 67, 76
1, 318361, Note_on_c, 0, 67, 60
1, 318361, Note_on_c, 0, 75, 76
1, 318381, Note_off_c, 0, 75, 71
1, 318395, Note_off_c, 0, 70, 61
1, 318396, Note_off_c, 0, 67, 62
1, 318403, Control_c, 0, 67, 76
1, 318417, Control_c, 0, 67, 75
1, 318432, Control_c, 0, 67, 75
1, 318434, Note_on_c, 0, 63, 66
1, 318447, Control_c, 0, 67, 74
1, 318452, Note_off_c, 0, 63, 65
1, 318462, Control_c, 0, 67, 73
1, 318491, Control_c, 0, 67, 73
1, 318506, Control_c, 0, 67, 72
1, 318519, Note_on_c, 0, 63, 50
1, 318521, Control_c, 0, 67, 72
1, 318536, Control_c, 0, 67, 71
1, 318545, Note_off_c, 0, 63, 38
1, 318577, Note_on_c, 0, 64, 55
1, 318587, Control_c, 0, 67, 72
1, 318600, Note_off_c, 0, 64, 38
1, 318602, Control_c, 0, 67, 73
1, 318616, Control_c, 0, 67, 74
1, 318631, Control_c, 0, 67, 75
1, 318634, Note_on_c, 0, 78, 82
1, 318641, Note_on_c, 0, 71, 61
1, 318644, Note_on_c, 0, 67, 62
1, 318646, Control_c, 0, 67, 76
1, 318661, Control_c, 0, 67, 77
1, 318662, Note_off_c, 0, 78, 59
1, 318669, Note_off_c, 0, 71, 66
1, 318673, Note_off_c, 0, 67, 66
1, 318700, Note_on_c, 0, 66, 75
1, 318721, Control_c, 0, 67, 76
1, 318728, Note_off_c, 0, 66, 63
1, 318750, Control_c, 0, 67, 76
1, 318776, Note_on_c, 0, 66, 62
1, 318780, Control_c, 0, 64, 16
1, 318780, Control_c, 0, 67, 75
1, 318795, Control_c, 0, 64, 20
1, 318795, Control_c, 0, 67, 74
1, 318801, Note_off_c, 0, 66, 66
1, 318809, Control_c, 0, 64, 22
1, 318809, Control_c, 0, 67, 74
1, 318824, Control_c, 0, 64, 22
1, 318824, Control_c, 0, 67, 73
1, 318840, Control_c, 0, 64, 23
1, 318840, Control_c, 0, 67, 73
1, 318854, Poly_aftertouch_c, 0, 66, 0
1, 318855, Control_c, 0, 64, 24
1, 318855, Control_c, 0, 67, 72
1, 318870, Control_c, 0, 64, 26
1, 318884, Note_on_c, 0, 67, 63
1, 318885, Note_on_c, 0, 71, 61
1, 318885, Control_c, 0, 64, 26
1, 318896, Note_on_c, 0, 78, 65
1, 318899, Control_c, 0, 64, 27
1, 318899, Control_c, 0, 67, 72
1, 318914, Control_c, 0, 64, 26
1, 318914, Control_c, 0, 67, 71
1, 318917, Note_off_c, 0, 78, 68
1, 318926, Note_off_c, 0, 71, 59
1, 318929, Control_c, 0, 64, 23
1, 318944, Control_c, 0, 64, 14
1, 318944, Control_c, 0, 67, 71
1, 318959, Control_c, 0, 64, 0
1, 318959, Control_c, 0, 67, 70
1, 318965, Note_on_c, 0, 64, 55
1, 318974, Control_c, 0, 67, 69
1, 318983, Note_off_c, 0, 67, 0
1, 318986, Note_off_c, 0, 64, 61
1, 318988, Control_c, 0, 67, 69
1, 319005, Note_on_c, 0, 67, 11
1, 319022, Note_on_c, 0, 63, 61
1, 319025, Note_on_c, 0, 70, 61
1, 319027, Note_on_c, 0, 75, 65
1, 319032, Control_c, 0, 67, 68
1, 319042, Note_off_c, 0, 63, 61
1, 319046, Note_off_c, 0, 70, 64
1, 319051, Note_off_c, 0, 75, 69
1, 319051, Note_off_c, 0, 67, 61
1, 319077, Control_c, 0, 67, 69
1, 319121, Control_c, 0, 67, 68
1, 319151, Note_on_c, 0, 67, 67
1, 319152, Note_on_c, 0, 75, 70
1, 319153, Note_on_c, 0, 70, 58
1, 319166, Control_c, 0, 67, 68
1, 319175, Note_off_c, 0, 75, 69
1, 319180, Control_c, 0, 67, 66
1, 319191, Note_off_c, 0, 67, 58
1, 319191, Note_off_c, 0, 70, 62
1, 319195, Control_c, 0, 67, 64
1, 319210, Control_c, 0, 67, 63
1, 319216, Note_on_c, 0, 63, 61
1, 319225, Control_c, 0, 67, 61
1, 319239, Control_c, 0, 67, 59
1, 319248, Note_off_c, 0, 63, 64
1, 319254, Control_c, 0, 67, 57
1, 319269, Control_c, 0, 67, 55
1, 319284, Control_c, 0, 67, 53
1, 319290, Note_on_c, 0, 63, 46
1, 319299, Control_c, 0, 67, 52
1, 319320, Note_off_c, 0, 63, 49
1, 319321, Control_c, 0, 67, 52
1, 319336, Control_c, 0, 67, 51
1, 319341, Note_on_c, 0, 64, 75
1, 319351, Control_c, 0, 67, 50
1, 319366, Control_c, 0, 67, 49
1, 319367, Note_off_c, 0, 64, 66
1, 319381, Control_c, 0, 67, 48
1, 319395, Control_c, 0, 67, 47
1, 319405, Note_on_c, 0, 72, 82
1, 319409, Note_on_c, 0, 69, 59
1, 319410, Control_c, 0, 67, 47
1, 319412, Note_on_c, 0, 67, 62
1, 319429, Note_off_c, 0, 72, 66
1, 319436, Note_off_c, 0, 69, 67
1, 319444, Note_off_c, 0, 67, 62
1, 319476, Note_on_c, 0, 60, 76
1, 319499, Control_c, 0, 67, 46
1, 319528, Control_c, 0, 67, 46
1, 319543, Control_c, 0, 67, 45
1, 319557, Note_off_c, 0, 60, 65
1, 319573, Control_c, 0, 67, 44
1, 319588, Control_c, 0, 67, 43
1, 319600, Note_on_c, 0, 60, 66
1, 319603, Control_c, 0, 67, 41
1, 319618, Control_c, 0, 67, 39
1, 319633, Control_c, 0, 67, 37
1, 319634, Note_off_c, 0, 60, 68
1, 319648, Control_c, 0, 67, 35
1, 319657, Note_on_c, 0, 67, 67
1, 319663, Control_c, 0, 67, 33
1, 319666, Note_on_c, 0, 69, 52
1, 319677, Control_c, 0, 67, 29
1, 319691, Note_on_c, 0, 71, 30
1, 319692, Control_c, 0, 67, 23
1, 319697, Note_on_c, 0, 72, 34
1, 319697, Note_off_c, 0, 69, 65
1, 319707, Control_c, 0, 64, 17
1, 319707, Control_c, 0, 67, 15
1, 319713, Note_off_c, 0, 71, 36
1, 319722, Note_on_c, 0, 61, 74
1, 319722, Control_c, 0, 64, 32
1, 319722, Control_c, 0, 67, 10
1, 319728, Note_off_c, 0, 72, 35
1, 319737, Control_c, 0, 64, 46
1, 319737, Control_c, 0, 67, 9
1, 319738, Note_off_c, 0, 67, 63
1, 319752, Control_c, 0, 64, 53
1, 319752, Control_c, 0, 67, 9
1, 319755, Note_off_c, 0, 61, 61
1, 319767, Control_c, 0, 64, 54
1, 319767, Control_c, 0, 67, 11
1, 319782, Control_c, 0, 64, 53
1, 319782, Control_c, 0, 67, 13
1, 319782, Note_on_c, 0, 63, 68
1, 319788, Note_on_c, 0, 67, 54
1, 319792, Note_on_c, 0, 75, 80
1, 319797, Control_c, 0, 64, 48
1, 319797, Control_c, 0, 67, 14
1, 319801, Note_off_c, 0, 63, 62
1, 319802, Note_on_c, 0, 70, 66
1, 319811, Control_c, 0, 64, 42
1, 319811, Control_c, 0, 67, 15
1, 319818, Note_off_c, 0, 67, 64
1, 319820, Note_off_c, 0, 70, 66
1, 319821, Note_off_c, 0, 75, 61
1, 319826, Control_c, 0, 64, 36
1, 319826, Control_c, 0, 67, 16
1, 319841, Control_c, 0, 64, 29
1, 319841, Control_c, 0, 67, 16
1, 319855, Control_c, 0, 64, 20
1, 319855, Control_c, 0, 67, 17
1, 319870, Control_c, 0, 64, 0
1, 319870, Control_c, 0, 67, 17
1, 319904, Note_on_c, 0, 67, 62
1, 319911, Note_on_c, 0, 87, 92
1, 319915, Note_on_c, 0, 70, 68
1, 319915, Note_on_c, 0, 79, 81
1, 319915, Control_c, 0, 67, 17
1, 319938, Note_off_c, 0, 87, 67
1, 319940, Note_off_c, 0, 79, 65
1, 319944, Control_c, 0, 67, 16
1, 319949, Note_off_c, 0, 70, 61
1, 319955, Note_off_c, 0, 67, 61
1, 319959, Control_c, 0, 67, 15
1, 319970, Note_on_c, 0, 75, 77
1, 319974, Control_c, 0, 67, 14
1, 319989, Control_c, 0, 67, 13
1, 319990, Note_off_c, 0, 75, 70
1, 320003, Control_c, 0, 67, 11
1, 320018, Control_c, 0, 67, 10
1, 320033, Control_c, 0, 64, 9
1, 320033, Control_c, 0, 67, 8
1, 320034, Note_on_c, 0, 75, 75
1, 320048, Control_c, 0, 64, 10
1, 320048, Control_c, 0, 67, 0
1, 320064, Note_off_c, 0, 75, 70
1, 320070, Control_c, 0, 64, 8
1, 320085, Control_c, 0, 64, 0
1, 320098, Note_on_c, 0, 76, 85
1, 320119, Note_off_c, 0, 76, 68
1, 320144, Control_c, 0, 64, 22
1, 320157, Note_on_c, 0, 90, 98
1, 320159, Control_c, 0, 64, 35
1, 320166, Note_on_c, 0, 71, 71
1, 320171, Note_on_c, 0, 79, 78
1, 320174, Control_c, 0, 64, 44
1, 320178, Note_on_c, 0, 67, 46
1, 320188, Control_c, 0, 64, 50
1, 320190, Note_off_c, 0, 90, 66
1, 320193, Note_off_c, 0, 71, 66
1, 320197, Note_off_c, 0, 79, 63
1, 320203, Control_c, 0, 64, 52
1, 320204, Note_off_c, 0, 67, 57
1, 320218, Control_c, 0, 64, 53
1, 320233, Control_c, 0, 64, 54
1, 320236, Note_on_c, 0, 78, 74
1, 320248, Control_c, 0, 64, 54
1, 320262, Control_c, 0, 64, 55
1, 320277, Control_c, 0, 64, 57
1, 320292, Control_c, 0, 64, 59
1, 320306, Note_off_c, 0, 78, 65
1, 320307, Control_c, 0, 64, 61
1, 320322, Control_c, 0, 64, 63
1, 320336, Control_c, 0, 64, 64
1, 320342, Note_on_c, 0, 78, 73
1, 320351, Control_c, 0, 64, 65
1, 320366, Control_c, 0, 64, 66
1, 320375, Note_off_c, 0, 78, 65
1, 320396, Note_on_c, 0, 90, 91
1, 320411, Control_c, 0, 64, 65
1, 320416, Note_on_c, 0, 67, 59
1, 320419, Note_on_c, 0, 79, 65
1, 320422, Note_on_c, 0, 71, 54
1, 320426, Control_c, 0, 64, 60
1, 320436, Note_off_c, 0, 90, 65
1, 320441, Control_c, 0, 64, 49
1, 320444, Note_off_c, 0, 71, 62
1, 320444, Note_off_c, 0, 79, 67
1, 320456, Control_c, 0, 64, 27
1, 320470, Note_on_c, 0, 76, 74
1, 320471, Control_c, 0, 64, 0
1, 320490, Note_off_c, 0, 76, 68
1, 320494, Note_off_c, 0, 67, 0
1, 320500, Control_c, 0, 64, 24
1, 320508, Note_on_c, 0, 67, 51
1, 320515, Control_c, 0, 64, 43
1, 320522, Note_on_c, 0, 87, 94
1, 320524, Note_on_c, 0, 79, 81
1, 320527, Note_on_c, 0, 70, 76
1, 320528, Note_on_c, 0, 75, 72
1, 320530, Control_c, 0, 64, 59
1, 320542, Note_off_c, 0, 67, 65
1, 320545, Control_c, 0, 64, 65
1, 320546, Note_off_c, 0, 87, 67
1, 320550, Note_off_c, 0, 70, 68
1, 320550, Note_off_c, 0, 75, 70
1, 320557, Note_off_c, 0, 79, 64
1, 320559, Note_on_c, 0, 85, 28
1, 320560, Note_off_c, 0, 85, 127
1, 320560, Control_c, 0, 64, 67
1, 320560, Control_c, 0, 67, 9
1, 320575, Control_c, 0, 64, 69
1, 320575, Control_c, 0, 67, 12
1, 320590, Control_c, 0, 64, 71
1, 320590, Control_c, 0, 67, 14
1, 320604, Control_c, 0, 64, 70
1, 320604, Control_c, 0, 67, 17
1, 320619, Control_c, 0, 64, 65
1, 320619, Control_c, 0, 67, 18
1, 320634, Control_c, 0, 64, 54
1, 320634, Control_c, 0, 67, 18
1, 320649, Control_c, 0, 64, 35
1, 320664, Control_c, 0, 64, 24
1, 320673, Note_on_c, 0, 99, 89
1, 320678, Control_c, 0, 64, 24
1, 320685, Note_on_c, 0, 87, 68
1, 320689, Note_on_c, 0, 85, 43
1, 320691, Note_off_c, 0, 99, 71
1, 320693, Note_on_c, 0, 94, 63
1, 320693, Control_c, 0, 64, 24
1, 320693, Control_c, 0, 67, 17
1, 320697, Note_on_c, 0, 78, 38
1, 320698, Note_on_c, 0, 82, 49
1, 320708, Control_c, 0, 64, 27
1, 320708, Control_c, 0, 67, 16
1, 320709, Note_off_c, 0, 87, 70
1, 320709, Note_on_c, 0, 79, 38
1, 320717, Note_off_c, 0, 85, 37
1, 320718, Note_off_c, 0, 94, 63
1, 320723, Control_c, 0, 64, 29
1, 320723, Control_c, 0, 67, 15
1, 320726, Note_off_c, 0, 82, 59
1, 320730, Note_off_c, 0, 78, 35
1, 320738, Control_c, 0, 67, 15
1, 320740, Note_off_c, 0, 79, 49
1, 320751, Note_on_c, 0, 88, 67
1, 320768, Control_c, 0, 64, 28
1, 320768, Control_c, 0, 67, 14
1, 320781, Note_off_c, 0, 88, 62
1, 320783, Control_c, 0, 64, 27
1, 320783, Control_c, 0, 67, 12
1, 320798, Control_c, 0, 64, 26
1, 320798, Control_c, 0, 67, 11
1, 320800, Note_on_c, 0, 83, 69
1, 320813, Note_on_c, 0, 89, 17
1, 320814, Note_off_c, 0, 89, 127
1, 320815, Note_on_c, 0, 90, 79
1, 320819, Control_c, 0, 67, 10
1, 320834, Note_off_c, 0, 90, 70
1, 320834, Control_c, 0, 64, 25
1, 320838, Note_on_c, 0, 95, 65
1, 320849, Note_on_c, 0, 99, 40
1, 320849, Control_c, 0, 64, 22
1, 320851, Note_on_c, 0, 79, 16
1, 320857, Note_off_c, 0, 95, 61
1, 320861, Note_on_c, 0, 94, 34
1, 320861, Note_off_c, 0, 83, 59
1, 320864, Control_c, 0, 64, 19
1, 320873, Note_on_c, 0, 88, 81
1, 320878, Note_off_c, 0, 99, 35
1, 320879, Control_c, 0, 64, 17
1, 320880, Note_off_c, 0, 94, 36
1, 320894, Control_c, 0, 64, 16
1, 320894, Control_c, 0, 67, 10
1, 320895, Note_off_c, 0, 79, 28
1, 320909, Control_c, 0, 64, 15
1, 320911, Note_off_c, 0, 88, 64
1, 320923, Control_c, 0, 64, 14
1, 320927, Note_on_c, 0, 79, 64
1, 320929, Note_on_c, 0, 87, 85
1, 320933, Note_on_c, 0, 99, 96
1, 320938, Note_on_c, 0, 82, 70
1, 320938, Control_c, 0, 64, 10
1, 320938, Control_c, 0, 67, 10
1, 320949, Note_on_c, 0, 94, 64
1, 320953, Note_off_c, 0, 99, 64
1, 320953, Control_c, 0, 64, 0
1, 320962, Note_off_c, 0, 79, 59
1, 320963, Note_off_c, 0, 82, 64
1, 320965, Note_off_c, 0, 94, 66
1, 320968, Note_off_c, 0, 87, 64
1, 320983, Control_c, 0, 67, 10
1, 321027, Control_c, 0, 67, 10
1, 321042, Control_c, 0, 67, 10
1, 321057, Control_c, 0, 67, 9
1, 321064, Note_on_c, 0, 99, 92
1, 321065, Note_on_c, 0, 94, 78
1, 321072, Control_c, 0, 67, 8
1, 321074, Note_on_c, 0, 87, 85
1, 321075, Note_on_c, 0, 79, 70
1, 321082, Note_on_c, 0, 82, 56
1, 321104, Note_off_c, 0, 99, 65
1, 321113, Note_off_c, 0, 87, 63
1, 321117, Note_off_c, 0, 94, 63
1, 321123, Note_on_c, 0, 88, 89
1, 321124, Note_off_c, 0, 82, 54
1, 321130, Note_off_c, 0, 79, 55
1, 321130, Control_c, 0, 67, 8
1, 321145, Control_c, 0, 67, 0
1, 321165, Note_off_c, 0, 88, 65
1, 321185, Note_on_c, 0, 102, 92
1, 321188, Note_on_c, 0, 97, 84
1, 321196, Note_on_c, 0, 90, 94
1, 321201, Note_on_c, 0, 81, 73
1, 321224, Note_off_c, 0, 97, 51
1, 321231, Note_off_c, 0, 102, 64
1, 321241, Note_off_c, 0, 90, 64
1, 321242, Note_on_c, 0, 88, 88
1, 321242, Note_on_c, 0, 79, 21
1, 321254, Note_off_c, 0, 81, 62
1, 321281, Note_off_c, 0, 79, 29
1, 321289, Note_off_c, 0, 88, 65
1, 321310, Note_on_c, 0, 87, 104
1, 321310, Note_on_c, 0, 99, 103
1, 321311, Note_on_c, 0, 79, 80
1, 321311, Note_on_c, 0, 94, 97
1, 321315, Note_on_c, 0, 82, 81
1, 321324, Control_c, 0, 64, 21
1, 321336, Note_on_c, 0, 97, 47
1, 321339, Control_c, 0, 64, 48
1, 321349, Note_off_c, 0, 99, 67
1, 321350, Note_off_c, 0, 94, 57
1, 321354, Control_c, 0, 64, 57
1, 321359, Note_off_c, 0, 79, 61
1, 321359, Note_off_c, 0, 87, 65
1, 321360, Note_off_c, 0, 97, 54
1, 321366, Note_off_c, 0, 82, 61
1, 321369, Control_c, 0, 64, 60
1, 321383, Control_c, 0, 64, 62
1, 321398, Control_c, 0, 64, 66
1, 321413, Control_c, 0, 64, 69
1, 321428, Control_c, 0, 64, 74
1, 321442, Control_c, 0, 64, 82
1, 321450, Note_on_c, 0, 99, 87
1, 321457, Control_c, 0, 64, 94
1, 321462, Note_on_c, 0, 87, 86
1, 321466, Note_on_c, 0, 94, 68
1, 321472, Control_c, 0, 64, 111
1, 321475, Note_off_c, 0, 99, 65
1, 321478, Note_on_c, 0, 79, 56
1, 321484, Note_on_c, 0, 82, 59
1, 321487, Control_c, 0, 64, 127
1, 321496, Note_off_c, 0, 94, 59
1, 321499, Note_off_c, 0, 79, 62
1, 321504, Note_on_c, 0, 88, 78
1, 321510, Note_off_c, 0, 82, 65
1, 321510, Note_off_c, 0, 87, 65
1, 321532, Note_off_c, 0, 88, 54
1, 321535, Note_on_c, 0, 89, 58
1, 321561, Note_off_c, 0, 89, 63
1, 321578, Note_on_c, 0, 102, 87
1, 321596, Note_on_c, 0, 83, 69
1, 321598, Note_on_c, 0, 90, 81
1, 321605, Note_on_c, 0, 95, 57
1, 321622, Note_off_c, 0, 102, 64
1, 321624, Note_off_c, 0, 95, 63
1, 321639, Note_off_c, 0, 90, 64
1, 321652, Note_on_c, 0, 88, 77
1, 321662, Note_off_c, 0, 83, 62
1, 321690, Note_off_c, 0, 88, 62
1, 321711, Note_on_c, 0, 99, 91
1, 321716, Note_on_c, 0, 87, 90
1, 321721, Note_on_c, 0, 79, 73
1, 321722, Note_on_c, 0, 94, 69
1, 321733, Note_on_c, 0, 82, 69
1, 321737, Note_off_c, 0, 94, 68
1, 321752, Note_off_c, 0, 99, 66
1, 321761, Note_off_c, 0, 87, 65
1, 321773, Note_off_c, 0, 79, 52
1, 321776, Note_on_c, 0, 88, 82
1, 321776, Note_off_c, 0, 82, 48
1, 321808, Note_off_c, 0, 88, 62
1, 321837, Note_on_c, 0, 102, 92
1, 321840, Note_on_c, 0, 97, 80
1, 321845, Note_on_c, 0, 90, 99
1, 321845, Note_on_c, 0, 81, 78
1, 321883, Note_off_c, 0, 97, 60
1, 321886, Note_off_c, 0, 102, 64
1, 321888, Note_off_c, 0, 90, 66
1, 321902, Note_on_c, 0, 88, 92
1, 321919, Note_off_c, 0, 81, 62
1, 321946, Note_off_c, 0, 88, 66
1, 321967, Note_on_c, 0, 87, 95
1, 321970, Note_on_c, 0, 79, 80
1, 321973, Note_on_c, 0, 99, 99
1, 321975, Note_on_c, 0, 82, 79
1, 321979, Note_on_c, 0, 95, 84
1, 322019, Note_off_c, 0, 99, 65
1, 322023, Note_off_c, 0, 79, 60
1, 322023, Note_off_c, 0, 87, 64
1, 322032, Note_on_c, 0, 88, 95
1, 322040, Note_off_c, 0, 95, 62
1, 322053, Note_off_c, 0, 82, 61
1, 322084, Note_on_c, 0, 89, 36
1, 322085, Note_off_c, 0, 88, 62
1, 322111, Note_on_c, 0, 90, 103
1, 322112, Note_on_c, 0, 83, 88
1, 322112, Note_on_c, 0, 102, 102
1, 322113, Note_off_c, 0, 89, 43
1, 322120, Note_on_c, 0, 94, 91
1, 322164, Note_off_c, 0, 90, 64
1, 322170, Note_off_c, 0, 102, 65
1, 322172, Note_off_c, 0, 94, 57
1, 322187, Note_on_c, 0, 88, 96
1, 322211, Note_off_c, 0, 83, 60
1, 322244, Note_off_c, 0, 88, 66
1, 322261, Note_on_c, 0, 87, 103
1, 322267, Note_on_c, 0, 99, 103
1, 322268, Note_on_c, 0, 82, 83
1, 322271, Note_on_c, 0, 79, 87
1, 322277, Note_on_c, 0, 94, 88
1, 322332, Note_off_c, 0, 94, 57
1, 322333, Note_off_c, 0, 87, 61
1, 322342, Note_on_c, 0, 88, 92
1, 322400, Note_off_c, 0, 79, 60
1, 322409, Note_off_c, 0, 99, 65
1, 322414, Note_off_c, 0, 88, 64
1, 322439, Note_on_c, 0, 81, 88
1, 322441, Note_off_c, 0, 82, 0
1, 322441, Note_on_c, 0, 97, 95
1, 322443, Note_on_c, 0, 90, 111
1, 322450, Note_on_c, 0, 102, 100
1, 322465, Note_on_c, 0, 99, 24
1, 322488, Note_off_c, 0, 90, 67
1, 322489, Note_off_c, 0, 81, 65
1, 322506, Note_off_c, 0, 99, 38
1, 322512, Poly_aftertouch_c, 0, 82, 0
1, 322542, Note_off_c, 0, 102, 64
1, 322554, Note_on_c, 0, 88, 100
1, 322611, Note_off_c, 0, 97, 59
1, 322614, Note_off_c, 0, 88, 60
1, 323169, Control_c, 0, 64, 101
1, 323184, Control_c, 0, 64, 88
1, 323199, Control_c, 0, 64, 79
1, 323213, Control_c, 0, 64, 70
1, 323228, Control_c, 0, 64, 63
1, 323243, Control_c, 0, 64, 55
1, 323258, Control_c, 0, 64, 50
1, 323273, Control_c, 0, 64, 44
1, 323287, Control_c, 0, 64, 34
1, 323302, Control_c, 0, 64, 0
1, 323510, Control_c, 0, 64, 43
1, 323513, Note_on_c, 0, 75, 92
1, 323514, Note_on_c, 0, 39, 93
1, 323514, Note_on_c, 0, 63, 99
1, 323516, Note_on_c, 0, 70, 93
1, 323524, Control_c, 0, 64, 61
1, 323539, Control_c, 0, 64, 72
1, 323554, Control_c, 0, 64, 84
1, 323569, Control_c, 0, 64, 127
1, 323586, Note_off_c, 0, 63, 56
1, 323739, Note_off_c, 0, 70, 0
1, 323746, Note_on_c, 0, 46, 82
1, 323760, Note_off_c, 0, 39, 58
1, 323776, Poly_aftertouch_c, 0, 70, 127
1, 323818, Note_off_c, 0, 75, 20
1, 323858, Note_on_c, 0, 51, 86
1, 323893, Poly_aftertouch_c, 0, 70, 0
1, 323907, Note_off_c, 0, 46, 61
1, 323946, Note_off_c, 0, 51, 62
1, 323957, Note_on_c, 0, 52, 85
1, 323973, Note_on_c, 0, 76, 101
1, 323973, Note_on_c, 0, 64, 101
1, 323996, Note_off_c, 0, 52, 66
1, 324008, Note_off_c, 0, 64, 68
1, 324024, Note_off_c, 0, 76, 66
1, 324062, Note_on_c, 0, 55, 85
1, 324145, Note_on_c, 0, 61, 91
1, 324152, Note_off_c, 0, 55, 63
1, 324170, Note_on_c, 0, 58, 46
1, 324194, Note_off_c, 0, 58, 54
1, 324202, Note_off_c, 0, 61, 65
1, 324226, Note_on_c, 0, 64, 86
1, 324238, Note_on_c, 0, 87, 105
1, 324241, Note_on_c, 0, 75, 111
1, 324241, Note_on_c, 0, 82, 85
1, 324261, Note_off_c, 0, 64, 68
1, 324310, Note_off_c, 0, 75, 60
1, 324319, Note_on_c, 0, 67, 87
1, 324371, Note_off_c, 0, 67, 64
1, 324386, Note_on_c, 0, 73, 90
1, 324425, Note_off_c, 0, 73, 65
1, 324454, Note_on_c, 0, 76, 95
1, 324499, Note_off_c, 0, 87, 56
1, 324503, Note_off_c, 0, 76, 63
1, 324515, Note_on_c, 0, 73, 83
1, 324569, Note_off_c, 0, 73, 66
1, 324590, Note_on_c, 0, 67, 81
1, 324626, Note_off_c, 0, 67, 66
1, 324670, Note_on_c, 0, 64, 88
1, 324729, Note_off_c, 0, 64, 54
1, 324739, Note_on_c, 0, 61, 84
1, 324786, Note_off_c, 0, 82, 60
1, 324808, Note_on_c, 0, 56, 37
1, 324811, Note_on_c, 0, 73, 97
1, 324811, Note_on_c, 0, 85, 90
1, 324814, Note_off_c, 0, 61, 61
1, 324837, Note_off_c, 0, 56, 49
1, 324845, Note_off_c, 0, 73, 68
1, 324845, Note_off_c, 0, 85, 68
1, 324854, Note_on_c, 0, 51, 84
1, 324884, Note_off_c, 0, 51, 65
1, 324897, Note_on_c, 0, 83, 100
1, 324898, Note_on_c, 0, 71, 105
1, 324935, Note_on_c, 0, 82, 46
1, 324938, Note_on_c, 0, 61, 82
1, 324948, Note_off_c, 0, 71, 65
1, 324953, Note_off_c, 0, 83, 63
1, 324960, Note_off_c, 0, 82, 55
1, 324992, Note_off_c, 0, 61, 60
1, 325027, Note_on_c, 0, 64, 86
1, 325070, Note_off_c, 0, 64, 63
1, 325081, Control_c, 0, 64, 90
1, 325096, Control_c, 0, 64, 63
1, 325110, Control_c, 0, 64, 39
1, 325120, Note_on_c, 0, 65, 79
1, 325125, Control_c, 0, 64, 37
1, 325139, Note_on_c, 0, 82, 99
1, 325140, Control_c, 0, 64, 54
1, 325141, Note_on_c, 0, 70, 110
1, 325145, Note_on_c, 0, 75, 81
1, 325155, Control_c, 0, 64, 69
1, 325169, Control_c, 0, 64, 94
1, 325171, Note_off_c, 0, 65, 58
1, 325184, Control_c, 0, 64, 127
1, 325192, Note_on_c, 0, 61, 77
1, 325223, Note_off_c, 0, 70, 52
1, 325252, Note_off_c, 0, 61, 62
1, 325256, Note_off_c, 0, 82, 55
1, 325281, Note_on_c, 0, 56, 76
1, 325316, Note_off_c, 0, 56, 66
1, 325383, Note_on_c, 0, 53, 74
1, 325413, Note_off_c, 0, 75, 0
1, 325419, Note_on_c, 0, 80, 95
1, 325420, Note_on_c, 0, 68, 98
1, 325425, Note_off_c, 0, 53, 61
1, 325432, Note_on_c, 0, 75, 37
1, 325460, Note_off_c, 0, 68, 66
1, 325460, Note_off_c, 0, 75, 47
1, 325463, Note_off_c, 0, 80, 66
1, 325478, Note_on_c, 0, 44, 74
1, 325533, Note_off_c, 0, 44, 59
1, 325553, Note_on_c, 0, 39, 74
1, 325645, Note_on_c, 0, 44, 71
1, 325648, Note_on_c, 0, 75, 91
1, 325655, Note_on_c, 0, 63, 87
1, 325655, Note_off_c, 0, 39, 58
1, 325690, Note_off_c, 0, 63, 62
1, 325710, Note_on_c, 0, 49, 63
1, 325780, Note_on_c, 0, 53, 72
1, 325791, Note_off_c, 0, 49, 57
1, 325826, Note_off_c, 0, 53, 64
1, 325860, Note_off_c, 0, 44, 21
1, 325866, Note_off_c, 0, 75, 60
1, 325902, Note_on_c, 0, 39, 74
1, 325904, Control_c, 0, 64, 78
1, 325919, Control_c, 0, 64, 53
1, 325933, Control_c, 0, 64, 0
1, 325947, Note_on_c, 0, 73, 84
1, 325954, Note_on_c, 0, 61, 84
1, 325958, Note_on_c, 0, 66, 75
1, 325963, Control_c, 0, 64, 10
1, 325978, Control_c, 0, 64, 50
1, 325993, Control_c, 0, 64, 66
1, 326007, Control_c, 0, 64, 75
1, 326022, Note_off_c, 0, 61, 56
1, 326023, Control_c, 0, 64, 89
1, 326038, Control_c, 0, 64, 119
1, 326055, Note_on_c, 0, 45, 67
1, 326060, Control_c, 0, 64, 127
1, 326063, Note_off_c, 0, 39, 58
1, 326095, Note_off_c, 0, 66, 49
1, 326142, Note_on_c, 0, 49, 70
1, 326159, Note_off_c, 0, 45, 60
1, 326204, Note_off_c, 0, 49, 61
1, 326231, Note_on_c, 0, 54, 75
1, 326258, Note_off_c, 0, 54, 67
1, 326274, Note_on_c, 0, 75, 79
1, 326274, Note_off_c, 0, 73, 61
1, 326285, Note_on_c, 0, 63, 75
1, 326325, Note_off_c, 0, 63, 60
1, 326365, Note_on_c, 0, 57, 72
1, 326423, Note_off_c, 0, 57, 62
1, 326423, Note_on_c, 0, 61, 77
1, 326475, Note_off_c, 0, 61, 64
1, 326504, Note_on_c, 0, 66, 79
1, 326525, Note_off_c, 0, 66, 71
1, 326541, Note_on_c, 0, 80, 74
1, 326550, Note_off_c, 0, 75, 61
1, 326606, Note_on_c, 0, 68, 81
1, 326620, Note_off_c, 0, 80, 59
1, 326661, Note_off_c, 0, 68, 61
1, 326668, Note_on_c, 0, 73, 75
1, 326682, Control_c, 0, 64, 122
1, 326697, Control_c, 0, 64, 73
1, 326712, Control_c, 0, 64, 55
1, 326714, Note_off_c, 0, 73, 64
1, 326721, Note_on_c, 0, 80, 76
1, 326727, Control_c, 0, 64, 44
1, 326742, Control_c, 0, 64, 50
1, 326756, Control_c, 0, 64, 62
1, 326771, Control_c, 0, 64, 72
1, 326774, Note_on_c, 0, 73, 63
1, 326774, Note_off_c, 0, 80, 64
1, 326786, Control_c, 0, 64, 86
1, 326808, Control_c, 0, 64, 101
1, 326810, Note_off_c, 0, 73, 66
1, 326813, Note_on_c, 0, 69, 76
1, 326817, Note_on_c, 0, 61, 13
1, 326823, Control_c, 0, 64, 108
1, 326835, Note_off_c, 0, 69, 70
1, 326839, Control_c, 0, 64, 111
1, 326853, Control_c, 0, 64, 119
1, 326867, Note_off_c, 0, 61, 35
1, 326868, Note_on_c, 0, 68, 73
1, 326868, Control_c, 0, 64, 127
1, 326899, Note_off_c, 0, 68, 60
1, 326915, Note_on_c, 0, 66, 73
1, 326953, Note_on_c, 0, 61, 70
1, 326960, Note_on_c, 0, 57, 70
1, 326970, Note_off_c, 0, 66, 64
1, 326991, Note_off_c, 0, 61, 64
1, 327016, Note_off_c, 0, 57, 65
1, 327065, Note_on_c, 0, 53, 56
1, 327089, Note_on_c, 0, 49, 68
1, 327096, Note_off_c, 0, 53, 64
1, 327124, Note_off_c, 0, 49, 61
1, 327136, Note_on_c, 0, 45, 63
1, 327165, Control_c, 0, 64, 83
1, 327179, Control_c, 0, 64, 61
1, 327181, Note_on_c, 0, 47, 34
1, 327184, Note_off_c, 0, 45, 49
1, 327190, Note_on_c, 0, 56, 69
1, 327191, Note_off_c, 0, 47, 41
1, 327194, Control_c, 0, 64, 31
1, 327209, Control_c, 0, 64, 18
1, 327222, Note_on_c, 0, 54, 68
1, 327224, Control_c, 0, 64, 39
1, 327239, Control_c, 0, 64, 57
1, 327253, Control_c, 0, 64, 67
1, 327262, Note_off_c, 0, 56, 62
1, 327268, Control_c, 0, 64, 70
1, 327277, Note_on_c, 0, 49, 66
1, 327283, Control_c, 0, 64, 72
1, 327288, Note_off_c, 0, 54, 63
1, 327297, Control_c, 0, 64, 74
1, 327300, Note_on_c, 0, 45, 58
1, 327308, Note_off_c, 0, 49, 66
1, 327312, Control_c, 0, 64, 76
1, 327324, Note_off_c, 0, 45, 61
1, 327327, Control_c, 0, 64, 79
1, 327337, Note_on_c, 0, 44, 74
1, 327342, Control_c, 0, 64, 81
1, 327357, Control_c, 0, 64, 83
1, 327371, Control_c, 0, 64, 84
1, 327377, Note_off_c, 0, 44, 62
1, 327386, Control_c, 0, 64, 85
1, 327401, Control_c, 0, 64, 86
1, 327404, Note_on_c, 0, 42, 53
1, 327416, Control_c, 0, 64, 87
1, 327426, Note_on_c, 0, 37, 52
1, 327427, Note_off_c, 0, 42, 50
1, 327431, Control_c, 0, 64, 88
1, 327446, Control_c, 0, 64, 88
1, 327449, Note_on_c, 0, 33, 68
1, 327461, Control_c, 0, 64, 89
1, 327464, Note_off_c, 0, 37, 64
1, 327483, Note_off_c, 0, 33, 62
1, 327490, Control_c, 0, 64, 89
1, 327505, Control_c, 0, 64, 90
1, 327520, Control_c, 0, 64, 90
1, 327535, Control_c, 0, 64, 91
1, 327558, Control_c, 0, 64, 92
1, 327565, Note_on_c, 0, 37, 62
1, 327572, Control_c, 0, 64, 92
1, 327587, Control_c, 0, 64, 93
1, 327613, Note_off_c, 0, 37, 64
1, 327624, Note_on_c, 0, 30, 64
1, 327633, Control_c, 0, 64, 89
1, 327648, Control_c, 0, 64, 72
1, 327649, Note_off_c, 0, 30, 56
1, 327663, Control_c, 0, 64, 47
1, 327677, Control_c, 0, 64, 0
1, 327718, Note_on_c, 0, 27, 75
1, 327736, Control_c, 0, 64, 45
1, 327751, Control_c, 0, 64, 60
1, 327759, Note_off_c, 0, 27, 62
1, 327766, Control_c, 0, 64, 64
1, 327781, Control_c, 0, 64, 66
1, 327793, Note_on_c, 0, 39, 66
1, 327796, Control_c, 0, 64, 68
1, 327810, Control_c, 0, 64, 72
1, 327817, Note_off_c, 0, 39, 59
1, 327825, Control_c, 0, 64, 76
1, 327840, Control_c, 0, 64, 80
1, 327854, Control_c, 0, 64, 84
1, 327869, Control_c, 0, 64, 86
1, 327876, Note_on_c, 0, 39, 63
1, 327884, Control_c, 0, 64, 89
1, 327894, Note_off_c, 0, 39, 65
1, 327899, Control_c, 0, 64, 92
1, 327914, Control_c, 0, 64, 94
1, 327929, Control_c, 0, 64, 96
1, 327932, Note_on_c, 0, 51, 56
1, 327943, Control_c, 0, 64, 97
1, 327955, Note_off_c, 0, 51, 61
1, 327958, Control_c, 0, 64, 97
1, 327988, Control_c, 0, 64, 98
1, 328003, Control_c, 0, 64, 98
1, 328033, Control_c, 0, 64, 99
1, 328038, Note_on_c, 0, 51, 46
1, 328062, Note_off_c, 0, 51, 49
1, 328062, Control_c, 0, 64, 99
1, 328079, Note_on_c, 0, 63, 39
1, 328109, Note_off_c, 0, 63, 45
1, 328137, Note_on_c, 0, 39, 71
1, 328175, Note_off_c, 0, 39, 64
1, 328191, Note_on_c, 0, 51, 66
1, 328195, Control_c, 0, 64, 100
1, 328210, Control_c, 0, 64, 100
1, 328221, Note_off_c, 0, 51, 65
1, 328239, Control_c, 0, 64, 101
1, 328254, Control_c, 0, 64, 101
1, 328269, Control_c, 0, 64, 102
1, 328277, Note_on_c, 0, 51, 70
1, 328284, Control_c, 0, 64, 103
1, 328307, Control_c, 0, 64, 103
1, 328313, Note_off_c, 0, 51, 62
1, 328321, Control_c, 0, 64, 104
1, 328336, Control_c, 0, 64, 104
1, 328351, Note_on_c, 0, 63, 50
1, 328351, Control_c, 0, 64, 105
1, 328374, Note_off_c, 0, 63, 50
1, 328395, Control_c, 0, 64, 105
1, 328441, Control_c, 0, 64, 106
1, 328451, Note_on_c, 0, 63, 36
1, 328485, Note_off_c, 0, 63, 44
1, 328492, Note_on_c, 0, 75, 59
1, 328525, Note_off_c, 0, 75, 63
1, 328546, Note_on_c, 0, 51, 69
1, 328597, Note_off_c, 0, 51, 59
1, 328608, Note_on_c, 0, 63, 62
1, 328632, Note_off_c, 0, 63, 65
1, 328692, Note_on_c, 0, 63, 71
1, 328707, Control_c, 0, 64, 106
1, 328716, Note_off_c, 0, 63, 65
1, 328722, Control_c, 0, 64, 108
1, 328737, Control_c, 0, 64, 111
1, 328741, Note_on_c, 0, 75, 62
1, 328751, Control_c, 0, 64, 118
1, 328766, Control_c, 0, 64, 127
1, 328767, Note_off_c, 0, 75, 68
1, 328851, Note_on_c, 0, 75, 58
1, 328877, Note_off_c, 0, 75, 68
1, 328900, Note_on_c, 0, 87, 70
1, 328934, Note_off_c, 0, 87, 56
1, 328999, Note_on_c, 0, 99, 93
1, 329003, Control_c, 0, 64, 85
1, 329014, Note_off_c, 0, 99, 76
1, 329017, Control_c, 0, 64, 65
1, 329032, Control_c, 0, 64, 46
1, 329055, Control_c, 0, 64, 33
1, 329069, Control_c, 0, 64, 15
1, 329084, Control_c, 0, 64, 0
1, 329848, Note_on_c, 0, 63, 62
1, 329848, Control_c, 0, 67, 8
1, 329851, Note_on_c, 0, 77, 63
1, 329860, Note_on_c, 0, 59, 52
1, 329863, Control_c, 0, 67, 15
1, 329866, Note_on_c, 0, 69, 47
1, 329878, Control_c, 0, 67, 24
1, 329878, Note_off_c, 0, 63, 65
1, 329887, Note_off_c, 0, 59, 55
1, 329892, Note_off_c, 0, 77, 55
1, 329893, Note_off_c, 0, 69, 50
1, 329893, Control_c, 0, 67, 32
1, 329907, Control_c, 0, 67, 41
1, 329920, Note_on_c, 0, 79, 66
1, 329922, Control_c, 0, 67, 48
1, 329937, Control_c, 0, 67, 53
1, 329944, Note_on_c, 0, 58, 53
1, 329946, Note_on_c, 0, 62, 54
1, 329952, Note_on_c, 0, 73, 49
1, 329952, Control_c, 0, 67, 57
1, 329953, Note_on_c, 0, 53, 42
1, 329963, Note_on_c, 0, 68, 61
1, 329966, Control_c, 0, 67, 64
1, 329981, Control_c, 0, 64, 24
1, 329981, Control_c, 0, 67, 74
1, 329996, Control_c, 0, 64, 35
1, 329996, Control_c, 0, 67, 79
1, 330011, Control_c, 0, 64, 49
1, 330011, Control_c, 0, 67, 80
1, 330027, Control_c, 0, 64, 59
1, 330027, Control_c, 0, 67, 81
1, 330041, Control_c, 0, 64, 64
1, 330041, Control_c, 0, 67, 82
1, 330056, Control_c, 0, 64, 67
1, 330056, Control_c, 0, 67, 86
1, 330071, Control_c, 0, 64, 72
1, 330071, Control_c, 0, 67, 94
1, 330086, Control_c, 0, 64, 80
1, 330086, Control_c, 0, 67, 101
1, 330101, Control_c, 0, 64, 93
1, 330101, Control_c, 0, 67, 108
1, 330102, Note_off_c, 0, 53, 57
1, 330115, Control_c, 0, 64, 109
1, 330115, Control_c, 0, 67, 115
1, 330125, Note_off_c, 0, 68, 53
1, 330130, Control_c, 0, 64, 127
1, 330130, Control_c, 0, 67, 124
1, 330141, Note_off_c, 0, 58, 59
1, 330145, Control_c, 0, 67, 127
1, 330147, Note_off_c, 0, 62, 64
1, 330178, Note_off_c, 0, 73, 56
1, 330185, Note_off_c, 0, 79, 57
1, 330504, Note_on_c, 0, 64, 43
1, 330587, Note_on_c, 0, 76, 47
1, 330628, Note_off_c, 0, 76, 60
1, 330650, Note_on_c, 0, 88, 42
1, 330665, Note_off_c, 0, 64, 37
1, 330674, Note_off_c, 0, 88, 59
1, 330746, Note_on_c, 0, 76, 50
1, 330778, Note_on_c, 0, 88, 39
1, 330781, Note_off_c, 0, 76, 61
1, 330820, Note_off_c, 0, 88, 58
1, 330872, Note_on_c, 0, 76, 49
1, 330895, Note_off_c, 0, 76, 59
1, 330945, Note_on_c, 0, 64, 43
1, 331010, Note_on_c, 0, 76, 49
1, 331010, Note_off_c, 0, 64, 51
1, 331043, Note_off_c, 0, 76, 62
1, 331082, Note_on_c, 0, 88, 55
1, 331112, Note_off_c, 0, 88, 65
1, 331146, Note_on_c, 0, 76, 50
1, 331184, Note_off_c, 0, 76, 60
1, 331220, Note_on_c, 0, 88, 49
1, 331241, Note_off_c, 0, 88, 57
1, 331271, Note_on_c, 0, 76, 58
1, 331298, Note_off_c, 0, 76, 65
1, 331360, Note_on_c, 0, 64, 43
1, 331419, Note_off_c, 0, 64, 54
1, 331424, Note_on_c, 0, 76, 47
1, 331451, Note_off_c, 0, 76, 60
1, 331482, Note_on_c, 0, 88, 62
1, 331515, Note_off_c, 0, 88, 58
1, 331553, Note_on_c, 0, 76, 53
1, 331592, Note_off_c, 0, 76, 57
1, 331618, Note_on_c, 0, 88, 60
1, 331643, Note_off_c, 0, 88, 62
1, 331685, Note_on_c, 0, 76, 55
1, 331705, Note_off_c, 0, 76, 59
1, 331764, Note_on_c, 0, 64, 43
1, 331811, Note_off_c, 0, 64, 54
1, 331821, Note_on_c, 0, 76, 37
1, 331851, Note_off_c, 0, 76, 64
1, 331880, Note_on_c, 0, 88, 54
1, 331912, Note_off_c, 0, 88, 63
1, 331960, Note_on_c, 0, 76, 53
1, 332000, Note_off_c, 0, 76, 59
1, 332027, Note_on_c, 0, 88, 40
1, 332061, Note_off_c, 0, 88, 45
1, 332102, Note_on_c, 0, 76, 36
1, 332132, Note_off_c, 0, 76, 44
1, 332161, Note_on_c, 0, 64, 39
1, 332217, Note_off_c, 0, 64, 50
1, 332228, Note_on_c, 0, 76, 48
1, 332257, Note_off_c, 0, 76, 65
1, 332287, Note_on_c, 0, 88, 55
1, 332320, Note_off_c, 0, 88, 61
1, 332349, Note_on_c, 0, 76, 53
1, 332391, Note_off_c, 0, 76, 56
1, 332442, Note_on_c, 0, 88, 34
1, 332468, Note_off_c, 0, 88, 35
1, 332495, Note_on_c, 0, 76, 45
1, 332520, Note_off_c, 0, 76, 59
1, 332557, Note_on_c, 0, 64, 41
1, 332610, Note_off_c, 0, 64, 46
1, 332632, Note_on_c, 0, 76, 49
1, 332662, Note_off_c, 0, 76, 64
1, 332690, Note_on_c, 0, 88, 55
1, 332720, Note_off_c, 0, 88, 64
1, 332767, Note_on_c, 0, 76, 48
1, 332811, Note_off_c, 0, 76, 61
1, 332831, Note_on_c, 0, 88, 54
1, 332853, Note_off_c, 0, 88, 58
1, 332899, Note_on_c, 0, 76, 55
1, 332919, Note_off_c, 0, 76, 62
1, 332969, Note_on_c, 0, 64, 42
1, 333026, Note_off_c, 0, 64, 51
1, 333043, Note_on_c, 0, 76, 43
1, 333072, Note_off_c, 0, 76, 65
1, 333115, Note_on_c, 0, 88, 47
1, 333139, Note_off_c, 0, 88, 59
1, 333178, Note_on_c, 0, 76, 47
1, 333220, Note_off_c, 0, 76, 59
1, 333227, Note_on_c, 0, 88, 56
1, 333259, Note_off_c, 0, 88, 63
1, 333324, Note_on_c, 0, 76, 39
1, 333352, Note_off_c, 0, 76, 46
1, 333396, Note_on_c, 0, 64, 32
1, 333445, Note_on_c, 0, 76, 53
1, 333477, Note_off_c, 0, 76, 62
1, 333501, Note_off_c, 0, 64, 35
1, 333517, Note_on_c, 0, 88, 54
1, 333555, Note_off_c, 0, 88, 65
1, 333609, Note_on_c, 0, 76, 46
1, 333637, Note_off_c, 0, 76, 56
1, 333647, Note_on_c, 0, 88, 51
1, 333670, Note_off_c, 0, 88, 58
1, 333717, Note_on_c, 0, 76, 57
1, 333741, Note_off_c, 0, 76, 63
1, 333801, Note_on_c, 0, 64, 44
1, 333837, Note_off_c, 0, 64, 54
1, 333872, Note_on_c, 0, 76, 49
1, 333902, Note_off_c, 0, 76, 64
1, 333959, Note_on_c, 0, 88, 40
1, 333983, Note_off_c, 0, 88, 57
1, 334005, Note_on_c, 0, 76, 51
1, 334042, Note_off_c, 0, 76, 59
1, 334067, Control_c, 0, 64, 107
1, 334072, Note_on_c, 0, 88, 51
1, 334082, Control_c, 0, 64, 83
1, 334096, Control_c, 0, 64, 69
1, 334111, Control_c, 0, 64, 56
1, 334113, Note_off_c, 0, 88, 58
1, 334126, Control_c, 0, 64, 46
1, 334141, Control_c, 0, 64, 39
1, 334156, Control_c, 0, 64, 35
1, 334159, Note_on_c, 0, 76, 50
1, 334171, Control_c, 0, 64, 32
1, 334182, Note_off_c, 0, 76, 59
1, 334186, Control_c, 0, 64, 31
1, 334245, Control_c, 0, 64, 30
1, 334260, Control_c, 0, 64, 29
1, 334275, Control_c, 0, 64, 28
1, 334297, Control_c, 0, 64, 26
1, 334312, Control_c, 0, 64, 16
1, 334327, Control_c, 0, 64, 0
1, 334332, Note_on_c, 0, 63, 56
1, 334336, Note_on_c, 0, 59, 57
1, 334345, Note_on_c, 0, 77, 67
1, 334361, Note_off_c, 0, 63, 66
1, 334362, Note_off_c, 0, 59, 65
1, 334364, Note_off_c, 0, 77, 69
1, 334398, Note_on_c, 0, 62, 70
1, 334401, Note_on_c, 0, 53, 65
1, 334401, Note_on_c, 0, 58, 70
1, 334411, Note_on_c, 0, 79, 57
1, 334415, Note_off_c, 0, 62, 66
1, 334422, Note_off_c, 0, 53, 59
1, 334423, Note_off_c, 0, 58, 67
1, 334424, Note_on_c, 0, 68, 65
1, 334431, Note_on_c, 0, 73, 53
1, 334432, Note_on_c, 0, 80, 43
1, 334433, Note_off_c, 0, 80, 127
1, 334436, Note_off_c, 0, 79, 66
1, 334441, Note_off_c, 0, 68, 67
1, 334454, Note_off_c, 0, 73, 58
1, 334627, Note_on_c, 0, 76, 72
1, 334628, Note_on_c, 0, 61, 68
1, 334632, Note_on_c, 0, 57, 55
1, 334640, Note_on_c, 0, 67, 59
1, 334652, Note_off_c, 0, 76, 63
1, 334655, Note_off_c, 0, 57, 53
1, 334657, Note_off_c, 0, 61, 66
1, 334662, Note_off_c, 0, 67, 38
1, 334694, Note_on_c, 0, 51, 67
1, 334696, Note_on_c, 0, 77, 69
1, 334701, Note_on_c, 0, 60, 63
1, 334705, Note_on_c, 0, 56, 60
1, 334717, Note_on_c, 0, 66, 64
1, 334721, Note_on_c, 0, 71, 49
1, 334721, Note_off_c, 0, 51, 63
1, 334722, Note_off_c, 0, 60, 39
1, 334728, Note_off_c, 0, 56, 55
1, 334734, Note_off_c, 0, 66, 66
1, 334734, Note_off_c, 0, 77, 63
1, 334744, Note_off_c, 0, 71, 52
1, 335160, Note_on_c, 0, 77, 63
1, 335165, Note_on_c, 0, 63, 45
1, 335173, Note_on_c, 0, 69, 49
1, 335175, Note_on_c, 0, 59, 41
1, 335188, Note_on_c, 0, 74, 21
1, 335188, Note_off_c, 0, 63, 58
1, 335196, Note_off_c, 0, 69, 55
1, 335208, Note_off_c, 0, 59, 49
1, 335217, Note_off_c, 0, 77, 59
1, 335230, Note_off_c, 0, 74, 29
1, 335242, Note_on_c, 0, 79, 60
1, 335253, Control_c, 0, 64, 17
1, 335257, Note_on_c, 0, 62, 55
1, 335262, Note_on_c, 0, 53, 43
1, 335263, Note_on_c, 0, 58, 48
1, 335267, Note_on_c, 0, 73, 47
1, 335268, Control_c, 0, 64, 44
1, 335283, Note_on_c, 0, 68, 51
1, 335283, Control_c, 0, 64, 58
1, 335298, Control_c, 0, 64, 63
1, 335312, Control_c, 0, 64, 68
1, 335317, Note_off_c, 0, 68, 52
1, 335327, Control_c, 0, 64, 74
1, 335338, Note_off_c, 0, 53, 62
1, 335342, Control_c, 0, 64, 86
1, 335357, Control_c, 0, 64, 104
1, 335366, Note_off_c, 0, 58, 60
1, 335369, Note_off_c, 0, 62, 63
1, 335372, Control_c, 0, 64, 127
1, 335417, Note_off_c, 0, 73, 53
1, 335420, Note_off_c, 0, 79, 57
1, 335726, Note_on_c, 0, 64, 38
1, 335730, Note_on_c, 0, 76, 42
1, 335771, Note_off_c, 0, 76, 62
1, 335795, Note_off_c, 0, 64, 51
1, 335800, Note_on_c, 0, 88, 50
1, 335826, Note_off_c, 0, 88, 61
1, 335903, Note_on_c, 0, 76, 54
1, 335918, Note_on_c, 0, 88, 52
1, 335932, Note_off_c, 0, 76, 63
1, 335962, Note_off_c, 0, 88, 53
1, 336013, Note_on_c, 0, 76, 51
1, 336035, Note_off_c, 0, 76, 57
1, 336087, Note_on_c, 0, 64, 45
1, 336159, Note_on_c, 0, 76, 43
1, 336188, Note_off_c, 0, 76, 65
1, 336192, Note_off_c, 0, 64, 33
1, 336231, Note_on_c, 0, 88, 48
1, 336257, Note_off_c, 0, 88, 60
1, 336293, Note_on_c, 0, 76, 51
1, 336326, Note_off_c, 0, 76, 62
1, 336348, Note_on_c, 0, 88, 56
1, 336379, Note_off_c, 0, 88, 61
1, 336420, Note_on_c, 0, 76, 59
1, 336447, Note_off_c, 0, 76, 66
1, 336476, Note_on_c, 0, 64, 50
1, 336552, Note_off_c, 0, 64, 49
1, 336576, Note_on_c, 0, 76, 59
1, 336606, Note_off_c, 0, 76, 62
1, 336639, Note_on_c, 0, 88, 54
1, 336669, Note_off_c, 0, 88, 65
1, 336705, Note_on_c, 0, 76, 59
1, 336734, Note_off_c, 0, 76, 62
1, 336762, Note_on_c, 0, 88, 59
1, 336789, Note_off_c, 0, 88, 64
1, 336824, Note_on_c, 0, 76, 63
1, 336848, Note_off_c, 0, 76, 66
1, 336889, Note_on_c, 0, 64, 56
1, 336952, Note_off_c, 0, 64, 50
1, 336970, Note_on_c, 0, 76, 61
1, 336997, Note_off_c, 0, 76, 64
1, 337037, Note_on_c, 0, 88, 57
1, 337067, Note_off_c, 0, 88, 63
1, 337096, Note_on_c, 0, 76, 57
1, 337128, Note_off_c, 0, 76, 61
1, 337171, Note_on_c, 0, 88, 56
1, 337190, Note_off_c, 0, 88, 60
1, 337220, Note_on_c, 0, 76, 56
1, 337247, Note_off_c, 0, 76, 65
1, 337285, Note_on_c, 0, 64, 57
1, 337336, Note_off_c, 0, 64, 52
1, 337374, Note_on_c, 0, 76, 54
1, 337396, Note_off_c, 0, 76, 62
1, 337422, Note_on_c, 0, 88, 56
1, 337456, Note_off_c, 0, 88, 61
1, 337483, Note_on_c, 0, 76, 55
1, 337513, Note_off_c, 0, 76, 62
1, 337557, Note_on_c, 0, 88, 58
1, 337576, Note_off_c, 0, 88, 60
1, 337611, Note_on_c, 0, 76, 51
1, 337644, Note_off_c, 0, 76, 62
1, 337661, Note_on_c, 0, 64, 50
1, 337721, Note_off_c, 0, 64, 47
1, 337772, Note_on_c, 0, 76, 43
1, 337798, Note_off_c, 0, 76, 50
1, 337815, Note_on_c, 0, 88, 49
1, 337848, Note_off_c, 0, 88, 63
1, 337876, Note_on_c, 0, 76, 50
1, 337900, Note_off_c, 0, 76, 56
1, 337953, Note_on_c, 0, 88, 39
1, 337980, Note_off_c, 0, 88, 45
1, 337983, Note_on_c, 0, 76, 56
1, 338014, Note_off_c, 0, 76, 64
1, 338072, Note_on_c, 0, 64, 49
1, 338108, Note_off_c, 0, 64, 56
1, 338157, Note_on_c, 0, 76, 42
1, 338183, Note_off_c, 0, 76, 50
1, 338209, Note_on_c, 0, 88, 49
1, 338248, Note_off_c, 0, 88, 61
1, 338273, Note_on_c, 0, 76, 49
1, 338305, Note_off_c, 0, 76, 63
1, 338349, Note_on_c, 0, 88, 48
1, 338371, Note_off_c, 0, 88, 60
1, 338382, Control_c, 0, 64, 91
1, 338397, Control_c, 0, 64, 70
1, 338412, Control_c, 0, 64, 59
1, 338416, Note_on_c, 0, 76, 52
1, 338427, Control_c, 0, 64, 52
1, 338439, Note_off_c, 0, 76, 60
1, 338442, Control_c, 0, 64, 49
1, 338456, Control_c, 0, 64, 48
1, 338471, Control_c, 0, 64, 45
1, 338486, Control_c, 0, 64, 43
1, 338500, Control_c, 0, 64, 40
1, 338515, Control_c, 0, 64, 36
1, 338530, Control_c, 0, 64, 27
1, 338545, Control_c, 0, 64, 0
1, 338553, Note_on_c, 0, 63, 60
1, 338561, Note_on_c, 0, 59, 58
1, 338564, Note_on_c, 0, 77, 65
1, 338581, Note_off_c, 0, 59, 63
1, 338582, Note_off_c, 0, 63, 65
1, 338582, Note_off_c, 0, 77, 68
1, 338589, Note_on_c, 0, 74, 17
1, 338621, Note_on_c, 0, 62, 67
1, 338624, Note_on_c, 0, 58, 73
1, 338624, Note_on_c, 0, 79, 69
1, 338626, Note_on_c, 0, 53, 64
1, 338630, Note_off_c, 0, 74, 32
1, 338638, Note_off_c, 0, 62, 65
1, 338645, Note_off_c, 0, 79, 67
1, 338647, Note_off_c, 0, 58, 67
1, 338649, Note_off_c, 0, 53, 56
1, 338650, Note_on_c, 0, 68, 52
1, 338652, Note_on_c, 0, 73, 49
1, 338675, Note_off_c, 0, 68, 37
1, 338678, Note_off_c, 0, 73, 55
1, 338829, Note_on_c, 0, 76, 71
1, 338830, Note_on_c, 0, 57, 67
1, 338835, Note_on_c, 0, 61, 67
1, 338835, Note_on_c, 0, 67, 65
1, 338854, Note_off_c, 0, 67, 65
1, 338854, Note_off_c, 0, 76, 65
1, 338857, Note_off_c, 0, 57, 66
1, 338880, Note_off_c, 0, 61, 64
1, 338891, Note_on_c, 0, 77, 75
1, 338895, Note_on_c, 0, 51, 76
1, 338899, Note_on_c, 0, 60, 72
1, 338901, Note_on_c, 0, 56, 71
1, 338909, Note_on_c, 0, 70, 60
1, 338914, Note_on_c, 0, 66, 70
1, 338917, Note_off_c, 0, 60, 70
1, 338918, Note_off_c, 0, 51, 68
1, 338925, Note_off_c, 0, 77, 66
1, 338928, Note_off_c, 0, 56, 65
1, 338930, Note_off_c, 0, 70, 39
1, 338931, Note_off_c, 0, 66, 66
1, 338947, Note_on_c, 0, 71, 24
1, 338954, Note_off_c, 0, 71, 49
1, 339235, Note_on_c, 0, 59, 51
1, 339237, Note_on_c, 0, 74, 67
1, 339239, Note_on_c, 0, 55, 58
1, 339253, Note_on_c, 0, 71, 46
1, 339259, Note_off_c, 0, 59, 53
1, 339261, Note_off_c, 0, 55, 63
1, 339263, Control_c, 0, 67, 125
1, 339278, Control_c, 0, 67, 122
1, 339286, Note_off_c, 0, 71, 52
1, 339293, Control_c, 0, 67, 121
1, 339309, Note_off_c, 0, 74, 60
1, 339322, Control_c, 0, 67, 122
1, 339330, Note_on_c, 0, 75, 63
1, 339335, Note_on_c, 0, 49, 55
1, 339337, Control_c, 0, 64, 37
1, 339337, Control_c, 0, 67, 125
1, 339343, Note_on_c, 0, 69, 49
1, 339348, Note_on_c, 0, 64, 62
1, 339352, Control_c, 0, 64, 57
1, 339352, Control_c, 0, 67, 127
1, 339356, Note_on_c, 0, 54, 42
1, 339364, Note_on_c, 0, 58, 52
1, 339367, Control_c, 0, 64, 65
1, 339374, Note_off_c, 0, 64, 65
1, 339382, Control_c, 0, 64, 69
1, 339393, Note_off_c, 0, 49, 61
1, 339396, Note_off_c, 0, 69, 60
1, 339396, Control_c, 0, 64, 76
1, 339405, Note_off_c, 0, 54, 64
1, 339411, Note_off_c, 0, 58, 63
1, 339411, Control_c, 0, 64, 90
1, 339426, Control_c, 0, 64, 110
1, 339441, Control_c, 0, 64, 127
1, 339445, Note_off_c, 0, 75, 62
1, 339678, Note_on_c, 0, 76, 56
1, 339700, Note_off_c, 0, 76, 65
1, 339727, Note_on_c, 0, 88, 57
1, 339757, Note_off_c, 0, 88, 61
1, 339798, Note_on_c, 0, 76, 54
1, 339835, Note_off_c, 0, 76, 56
1, 339855, Note_on_c, 0, 64, 61
1, 339864, Control_c, 0, 67, 127
1, 339878, Control_c, 0, 67, 125
1, 339893, Control_c, 0, 67, 124
1, 339896, Note_off_c, 0, 64, 57
1, 339923, Control_c, 0, 67, 124
1, 339939, Note_on_c, 0, 88, 64
1, 339952, Control_c, 0, 67, 125
1, 339967, Control_c, 0, 67, 125
1, 339972, Note_off_c, 0, 88, 56
1, 339982, Control_c, 0, 67, 126
1, 339997, Control_c, 0, 67, 127
1, 340010, Note_on_c, 0, 76, 61
1, 340031, Note_off_c, 0, 76, 65
1, 340082, Note_on_c, 0, 76, 72
1, 340103, Note_off_c, 0, 76, 67
1, 340145, Note_on_c, 0, 88, 67
1, 340186, Note_off_c, 0, 88, 55
1, 340204, Note_on_c, 0, 76, 68
1, 340237, Note_off_c, 0, 76, 60
1, 340268, Note_on_c, 0, 64, 72
1, 340323, Note_off_c, 0, 64, 61
1, 340347, Note_on_c, 0, 88, 70
1, 340395, Note_off_c, 0, 88, 62
1, 340422, Note_on_c, 0, 76, 73
1, 340443, Note_off_c, 0, 76, 68
1, 340491, Note_on_c, 0, 76, 77
1, 340517, Note_off_c, 0, 76, 60
1, 340552, Note_on_c, 0, 88, 73
1, 340601, Note_off_c, 0, 88, 61
1, 340627, Note_on_c, 0, 76, 68
1, 340648, Note_off_c, 0, 76, 68
1, 340693, Note_on_c, 0, 64, 60
1, 340722, Note_off_c, 0, 64, 66
1, 340763, Note_on_c, 0, 88, 63
1, 340799, Note_off_c, 0, 88, 54
1, 340842, Note_on_c, 0, 76, 61
1, 340861, Note_off_c, 0, 76, 65
1, 340933, Note_on_c, 0, 76, 52
1, 340955, Note_off_c, 0, 76, 60
1, 340991, Note_on_c, 0, 88, 62
1, 341030, Note_off_c, 0, 88, 56
1, 341057, Note_on_c, 0, 76, 44
1, 341089, Note_off_c, 0, 76, 63
1, 341146, Note_on_c, 0, 64, 48
1, 341170, Note_off_c, 0, 64, 58
1, 341205, Note_on_c, 0, 88, 60
1, 341241, Note_off_c, 0, 88, 57
1, 341287, Note_on_c, 0, 76, 54
1, 341316, Note_off_c, 0, 76, 65
1, 341375, Note_on_c, 0, 76, 39
1, 341402, Note_off_c, 0, 76, 47
1, 341427, Note_on_c, 0, 88, 55
1, 341460, Note_off_c, 0, 88, 62
1, 341497, Note_on_c, 0, 76, 55
1, 341527, Note_off_c, 0, 76, 61
1, 341574, Note_on_c, 0, 64, 53
1, 341611, Note_off_c, 0, 64, 58
1, 341639, Note_on_c, 0, 88, 61
1, 341671, Note_off_c, 0, 88, 60
1, 341719, Note_on_c, 0, 76, 61
1, 341746, Note_off_c, 0, 76, 66
1, 341802, Note_on_c, 0, 76, 50
1, 341824, Note_off_c, 0, 76, 58
1, 341881, Note_on_c, 0, 88, 58
1, 341888, Control_c, 0, 64, 94
1, 341897, Note_off_c, 0, 88, 66
1, 341903, Control_c, 0, 64, 76
1, 341913, Note_on_c, 0, 76, 54
1, 341918, Control_c, 0, 64, 66
1, 341932, Control_c, 0, 64, 60
1, 341947, Control_c, 0, 64, 57
1, 341961, Note_off_c, 0, 76, 56
1, 341962, Control_c, 0, 64, 55
1, 341976, Control_c, 0, 64, 54
1, 342007, Control_c, 0, 64, 54
1, 342022, Control_c, 0, 64, 53
1, 342037, Control_c, 0, 64, 50
1, 342052, Control_c, 0, 64, 47
1, 342067, Control_c, 0, 64, 42
1, 342081, Control_c, 0, 64, 39
1, 342082, Note_on_c, 0, 58, 73
1, 342090, Note_on_c, 0, 49, 67
1, 342094, Note_on_c, 0, 72, 76
1, 342096, Control_c, 0, 64, 35
1, 342097, Note_on_c, 0, 64, 77
1, 342100, Note_on_c, 0, 54, 47
1, 342106, Note_off_c, 0, 58, 66
1, 342111, Control_c, 0, 64, 29
1, 342115, Note_off_c, 0, 72, 70
1, 342119, Note_off_c, 0, 49, 66
1, 342119, Note_off_c, 0, 64, 70
1, 342126, Control_c, 0, 64, 19
1, 342127, Note_off_c, 0, 54, 35
1, 342141, Control_c, 0, 64, 0
1, 342153, Note_on_c, 0, 73, 78
1, 342163, Note_on_c, 0, 68, 59
1, 342172, Note_on_c, 0, 42, 69
1, 342178, Note_off_c, 0, 73, 65
1, 342183, Note_off_c, 0, 68, 65
1, 342195, Note_off_c, 0, 42, 39
1, 342288, Control_c, 0, 67, 123
1, 342303, Control_c, 0, 67, 120
1, 342317, Note_on_c, 0, 42, 56
1, 342318, Control_c, 0, 67, 121
1, 342326, Note_on_c, 0, 54, 78
1, 342329, Note_on_c, 0, 59, 79
1, 342332, Note_on_c, 0, 47, 51
1, 342332, Note_on_c, 0, 67, 72
1, 342333, Control_c, 0, 67, 123
1, 342340, Note_on_c, 0, 63, 61
1, 342343, Note_off_c, 0, 54, 67
1, 342347, Control_c, 0, 67, 125
1, 342352, Note_off_c, 0, 59, 67
1, 342356, Note_off_c, 0, 67, 69
1, 342356, Note_off_c, 0, 42, 65
1, 342359, Note_off_c, 0, 47, 36
1, 342359, Note_off_c, 0, 63, 64
1, 342362, Control_c, 0, 67, 127
1, 342392, Note_on_c, 0, 35, 88
1, 342394, Note_on_c, 0, 66, 76
1, 342397, Note_on_c, 0, 68, 81
1, 342411, Note_off_c, 0, 35, 67
1, 342415, Note_off_c, 0, 66, 69
1, 342421, Note_off_c, 0, 68, 68
1, 342452, Control_c, 0, 64, 11
1, 342466, Control_c, 0, 64, 15
1, 342481, Control_c, 0, 64, 16
1, 342562, Control_c, 0, 64, 15
1, 342577, Control_c, 0, 64, 13
1, 342592, Control_c, 0, 64, 10
1, 342607, Control_c, 0, 64, 0
1, 342619, Note_on_c, 0, 59, 70
1, 342627, Note_on_c, 0, 55, 69
1, 342636, Control_c, 0, 67, 127
1, 342651, Control_c, 0, 67, 123
1, 342654, Note_off_c, 0, 59, 67
1, 342660, Note_on_c, 0, 71, 91
1, 342661, Note_on_c, 0, 69, 92
1, 342666, Note_off_c, 0, 55, 66
1, 342666, Control_c, 0, 67, 117
1, 342681, Note_on_c, 0, 70, 53
1, 342682, Note_off_c, 0, 70, 127
1, 342682, Control_c, 0, 67, 111
1, 342696, Control_c, 0, 67, 103
1, 342711, Control_c, 0, 67, 94
1, 342726, Control_c, 0, 67, 86
1, 342733, Note_on_c, 0, 49, 62
1, 342734, Note_off_c, 0, 71, 59
1, 342741, Control_c, 0, 67, 80
1, 342744, Note_on_c, 0, 75, 83
1, 342748, Note_on_c, 0, 54, 54
1, 342751, Note_on_c, 0, 58, 68
1, 342755, Control_c, 0, 67, 77
1, 342759, Note_on_c, 0, 64, 74
1, 342770, Control_c, 0, 64, 12
1, 342770, Control_c, 0, 67, 76
1, 342785, Control_c, 0, 64, 42
1, 342800, Control_c, 0, 64, 60
1, 342815, Control_c, 0, 64, 68
1, 342816, Note_off_c, 0, 64, 53
1, 342818, Note_off_c, 0, 49, 62
1, 342830, Control_c, 0, 64, 76
1, 342830, Control_c, 0, 67, 76
1, 342843, Note_off_c, 0, 58, 60
1, 342845, Control_c, 0, 64, 90
1, 342845, Control_c, 0, 67, 77
1, 342851, Note_off_c, 0, 54, 62
1, 342860, Control_c, 0, 64, 127
1, 342870, Note_off_c, 0, 69, 62
1, 342890, Control_c, 0, 67, 77
1, 342904, Control_c, 0, 67, 78
1, 342914, Note_off_c, 0, 75, 63
1, 342919, Control_c, 0, 67, 79
1, 342964, Control_c, 0, 67, 80
1, 342978, Control_c, 0, 67, 80
1, 342993, Control_c, 0, 67, 81
1, 343008, Control_c, 0, 67, 81
1, 343022, Control_c, 0, 67, 82
1, 343037, Control_c, 0, 67, 83
1, 343096, Control_c, 0, 67, 83
1, 343161, Note_on_c, 0, 64, 46
1, 343170, Control_c, 0, 67, 84
1, 343185, Control_c, 0, 67, 84
1, 343200, Control_c, 0, 67, 85
1, 343214, Control_c, 0, 67, 85
1, 343240, Note_on_c, 0, 76, 49
1, 343244, Control_c, 0, 67, 86
1, 343259, Control_c, 0, 67, 87
1, 343281, Control_c, 0, 67, 87
1, 343282, Note_off_c, 0, 76, 64
1, 343283, Note_off_c, 0, 64, 55
1, 343296, Control_c, 0, 67, 88
1, 343297, Note_on_c, 0, 88, 56
1, 343310, Control_c, 0, 67, 89
1, 343325, Control_c, 0, 67, 91
1, 343331, Note_off_c, 0, 88, 60
1, 343340, Control_c, 0, 67, 93
1, 343355, Control_c, 0, 67, 94
1, 343370, Control_c, 0, 67, 95
1, 343385, Control_c, 0, 67, 96
1, 343388, Note_on_c, 0, 76, 56
1, 343399, Control_c, 0, 67, 97
1, 343414, Control_c, 0, 67, 98
1, 343429, Control_c, 0, 67, 98
1, 343431, Note_off_c, 0, 76, 56
1, 343441, Note_on_c, 0, 88, 58
1, 343444, Control_c, 0, 67, 99
1, 343459, Control_c, 0, 67, 100
1, 343474, Control_c, 0, 67, 101
1, 343480, Note_off_c, 0, 88, 55
1, 343489, Control_c, 0, 67, 103
1, 343503, Control_c, 0, 67, 104
1, 343518, Control_c, 0, 67, 105
1, 343531, Note_on_c, 0, 76, 47
1, 343533, Control_c, 0, 67, 107
1, 343547, Control_c, 0, 67, 109
1, 343554, Note_off_c, 0, 76, 54
1, 343562, Control_c, 0, 67, 112
1, 343577, Control_c, 0, 67, 114
1, 343578, Note_on_c, 0, 64, 56
1, 343592, Control_c, 0, 67, 117
1, 343608, Control_c, 0, 67, 120
1, 343623, Control_c, 0, 67, 123
1, 343632, Note_off_c, 0, 64, 50
1, 343638, Control_c, 0, 67, 125
1, 343652, Control_c, 0, 67, 126
1, 343656, Note_on_c, 0, 76, 48
1, 343667, Control_c, 0, 67, 127
1, 343699, Note_off_c, 0, 76, 58
1, 343721, Note_on_c, 0, 88, 52
1, 343760, Note_off_c, 0, 88, 56
1, 343814, Note_on_c, 0, 76, 60
1, 343846, Note_off_c, 0, 76, 59
1, 343869, Note_on_c, 0, 88, 55
1, 343922, Note_off_c, 0, 88, 62
1, 343944, Note_on_c, 0, 76, 61
1, 343971, Note_off_c, 0, 76, 65
1, 344022, Note_on_c, 0, 64, 61
1, 344099, Note_off_c, 0, 64, 59
1, 344111, Note_on_c, 0, 76, 63
1, 344139, Note_off_c, 0, 76, 64
1, 344191, Note_on_c, 0, 88, 40
1, 344211, Note_off_c, 0, 88, 38
1, 344239, Note_on_c, 0, 76, 64
1, 344263, Note_off_c, 0, 76, 66
1, 344293, Note_on_c, 0, 88, 62
1, 344327, Control_c, 0, 64, 87
1, 344341, Control_c, 0, 64, 69
1, 344350, Note_off_c, 0, 88, 64
1, 344356, Control_c, 0, 64, 57
1, 344371, Control_c, 0, 64, 45
1, 344378, Note_on_c, 0, 76, 64
1, 344386, Control_c, 0, 64, 39
1, 344401, Control_c, 0, 64, 35
1, 344402, Note_off_c, 0, 76, 67
1, 344416, Control_c, 0, 64, 31
1, 344431, Control_c, 0, 64, 27
1, 344446, Control_c, 0, 64, 25
1, 344461, Control_c, 0, 64, 24
1, 344476, Control_c, 0, 64, 22
1, 344490, Control_c, 0, 64, 17
1, 344505, Control_c, 0, 64, 0
1, 344535, Note_on_c, 0, 58, 64
1, 344543, Note_on_c, 0, 49, 63
1, 344543, Note_on_c, 0, 72, 71
1, 344550, Note_on_c, 0, 64, 66
1, 344559, Note_on_c, 0, 54, 32
1, 344561, Note_off_c, 0, 58, 66
1, 344576, Note_off_c, 0, 64, 68
1, 344582, Note_off_c, 0, 54, 35
1, 344583, Note_off_c, 0, 49, 64
1, 344592, Note_off_c, 0, 72, 62
1, 344611, Note_on_c, 0, 68, 69
1, 344613, Note_on_c, 0, 73, 71
1, 344633, Note_on_c, 0, 42, 77
1, 344635, Note_off_c, 0, 68, 68
1, 344635, Note_off_c, 0, 73, 68
1, 344663, Note_off_c, 0, 42, 64
1, 344908, Note_on_c, 0, 47, 40
1, 344913, Note_on_c, 0, 54, 34
1, 344933, Note_on_c, 0, 42, 20
1, 344935, Note_off_c, 0, 54, 35
1, 344939, Note_off_c, 0, 47, 62
1, 344975, Note_on_c, 0, 59, 53
1, 344976, Note_on_c, 0, 67, 54
1, 344980, Note_on_c, 0, 63, 48
1, 345025, Note_off_c, 0, 63, 57
1, 345035, Note_off_c, 0, 59, 48
1, 345099, Note_off_c, 0, 67, 60
1, 345111, Note_on_c, 0, 68, 56
1, 345128, Note_on_c, 0, 35, 45
1, 345134, Note_on_c, 0, 66, 39
1, 345149, Control_c, 0, 64, 27
1, 345164, Control_c, 0, 64, 49
1, 345179, Control_c, 0, 64, 61
1, 345195, Control_c, 0, 64, 66
1, 345205, Note_off_c, 0, 35, 59
1, 345210, Control_c, 0, 64, 71
1, 345224, Control_c, 0, 64, 77
1, 345239, Control_c, 0, 64, 86
1, 345254, Control_c, 0, 64, 97
1, 345269, Control_c, 0, 64, 114
1, 345284, Control_c, 0, 64, 127
1, 345294, Note_off_c, 0, 42, 39
1, 345328, Control_c, 0, 67, 126
1, 345343, Control_c, 0, 67, 125
1, 345358, Control_c, 0, 67, 123
1, 345373, Control_c, 0, 67, 122
1, 345388, Control_c, 0, 67, 120
1, 345403, Control_c, 0, 67, 119
1, 345417, Control_c, 0, 67, 117
1, 345432, Control_c, 0, 67, 116
1, 345447, Control_c, 0, 67, 116
1, 345462, Control_c, 0, 67, 115
1, 345477, Control_c, 0, 67, 115
1, 345506, Control_c, 0, 67, 114
1, 345528, Control_c, 0, 67, 114
1, 345573, Control_c, 0, 67, 113
1, 345647, Control_c, 0, 67, 113
1, 345780, Control_c, 0, 67, 113
1, 345869, Control_c, 0, 67, 113
1, 345898, Control_c, 0, 67, 113
1, 345904, Note_on_c, 0, 71, 56
1, 345910, Note_on_c, 0, 53, 47
1, 345910, Note_on_c, 0, 59, 49
1, 345921, Note_off_c, 0, 66, 59
1, 345921, Note_on_c, 0, 55, 45
1, 345927, Note_on_c, 0, 64, 32
1, 345928, Control_c, 0, 64, 96
1, 345933, Note_off_c, 0, 59, 59
1, 345933, Note_off_c, 0, 71, 67
1, 345939, Note_off_c, 0, 68, 41
1, 345941, Note_off_c, 0, 53, 63
1, 345942, Control_c, 0, 64, 73
1, 345942, Control_c, 0, 67, 114
1, 345946, Note_off_c, 0, 55, 60
1, 345957, Control_c, 0, 64, 58
1, 345959, Note_off_c, 0, 64, 41
1, 345972, Control_c, 0, 64, 38
1, 345988, Control_c, 0, 64, 16
1, 345988, Control_c, 0, 67, 114
1, 346003, Control_c, 0, 64, 0
1, 346003, Control_c, 0, 67, 115
1, 346018, Control_c, 0, 67, 115
1, 346033, Control_c, 0, 67, 116
1, 346077, Control_c, 0, 67, 116
1, 346166, Control_c, 0, 67, 116
1, 346181, Control_c, 0, 64, 12
1, 346196, Control_c, 0, 64, 28
1, 346210, Control_c, 0, 64, 39
1, 346210, Control_c, 0, 67, 115
1, 346225, Control_c, 0, 64, 50
1, 346225, Control_c, 0, 67, 115
1, 346240, Control_c, 0, 64, 56
1, 346240, Control_c, 0, 67, 114
1, 346255, Control_c, 0, 64, 59
1, 346255, Control_c, 0, 67, 113
1, 346277, Control_c, 0, 64, 60
1, 346277, Control_c, 0, 67, 113
1, 346292, Control_c, 0, 64, 61
1, 346292, Control_c, 0, 67, 112
1, 346307, Control_c, 0, 64, 63
1, 346307, Control_c, 0, 67, 111
1, 346315, Note_on_c, 0, 32, 47
1, 346321, Control_c, 0, 64, 66
1, 346321, Control_c, 0, 67, 111
1, 346336, Control_c, 0, 64, 69
1, 346336, Control_c, 0, 67, 109
1, 346351, Control_c, 0, 64, 74
1, 346351, Control_c, 0, 67, 107
1, 346366, Control_c, 0, 64, 81
1, 346366, Control_c, 0, 67, 105
1, 346380, Control_c, 0, 64, 89
1, 346380, Control_c, 0, 67, 103
1, 346395, Control_c, 0, 64, 99
1, 346395, Control_c, 0, 67, 101
1, 346410, Control_c, 0, 64, 116
1, 346410, Control_c, 0, 67, 100
1, 346415, Note_on_c, 0, 44, 55
1, 346425, Control_c, 0, 64, 127
1, 346425, Control_c, 0, 67, 98
1, 346440, Control_c, 0, 67, 97
1, 346448, Note_off_c, 0, 44, 63
1, 346455, Control_c, 0, 67, 94
1, 346470, Control_c, 0, 67, 92
1, 346485, Control_c, 0, 67, 89
1, 346487, Note_on_c, 0, 56, 59
1, 346499, Control_c, 0, 67, 87
1, 346514, Control_c, 0, 67, 85
1, 346515, Note_off_c, 0, 56, 66
1, 346529, Control_c, 0, 67, 83
1, 346544, Control_c, 0, 67, 81
1, 346559, Control_c, 0, 67, 78
1, 346560, Note_on_c, 0, 44, 61
1, 346566, Note_off_c, 0, 32, 55
1, 346573, Control_c, 0, 67, 74
1, 346588, Control_c, 0, 67, 70
1, 346603, Control_c, 0, 67, 65
1, 346604, Note_off_c, 0, 44, 62
1, 346618, Control_c, 0, 67, 61
1, 346633, Control_c, 0, 67, 58
1, 346647, Control_c, 0, 67, 54
1, 346652, Note_on_c, 0, 68, 64
1, 346662, Control_c, 0, 67, 49
1, 346677, Control_c, 0, 67, 43
1, 346679, Note_off_c, 0, 68, 65
1, 346691, Control_c, 0, 67, 38
1, 346706, Control_c, 0, 67, 33
1, 346708, Note_on_c, 0, 56, 69
1, 346721, Control_c, 0, 67, 28
1, 346736, Note_off_c, 0, 56, 65
1, 346736, Control_c, 0, 67, 24
1, 346751, Control_c, 0, 67, 20
1, 346765, Control_c, 0, 67, 17
1, 346780, Control_c, 0, 67, 16
1, 346785, Note_on_c, 0, 44, 83
1, 346796, Control_c, 0, 67, 15
1, 346811, Control_c, 0, 67, 15
1, 346826, Control_c, 0, 67, 14
1, 346843, Note_on_c, 0, 56, 69
1, 346885, Control_c, 0, 67, 14
1, 346890, Note_off_c, 0, 56, 64
1, 346914, Note_on_c, 0, 68, 79
1, 346936, Note_off_c, 0, 68, 68
1, 346944, Control_c, 0, 67, 13
1, 346974, Control_c, 0, 67, 13
1, 346994, Note_off_c, 0, 44, 62
1, 347003, Note_on_c, 0, 56, 85
1, 347003, Control_c, 0, 67, 12
1, 347039, Note_off_c, 0, 56, 67
1, 347041, Control_c, 0, 67, 12
1, 347056, Control_c, 0, 67, 11
1, 347066, Note_on_c, 0, 80, 90
1, 347070, Control_c, 0, 67, 11
1, 347100, Control_c, 0, 67, 10
1, 347115, Control_c, 0, 67, 10
1, 347116, Note_off_c, 0, 80, 62
1, 347128, Note_on_c, 0, 68, 84
1, 347129, Control_c, 0, 67, 9
1, 347158, Note_off_c, 0, 68, 61
1, 347159, Control_c, 0, 67, 9
1, 347174, Control_c, 0, 67, 8
1, 347189, Control_c, 0, 67, 0
1, 347194, Note_on_c, 0, 56, 97
1, 347267, Note_on_c, 0, 68, 93
1, 347319, Note_off_c, 0, 68, 66
1, 347336, Note_on_c, 0, 80, 88
1, 347358, Note_off_c, 0, 80, 65
1, 347398, Note_off_c, 0, 56, 60
1, 347406, Note_on_c, 0, 68, 91
1, 347443, Note_off_c, 0, 68, 66
1, 347482, Note_on_c, 0, 92, 95
1, 347500, Control_c, 0, 64, 80
1, 347514, Control_c, 0, 64, 63
1, 347528, Note_off_c, 0, 92, 62
1, 347529, Control_c, 0, 64, 48
1, 347540, Note_on_c, 0, 80, 89
1, 347544, Control_c, 0, 64, 42
1, 347559, Control_c, 0, 64, 40
1, 347569, Note_off_c, 0, 80, 64
1, 347574, Control_c, 0, 64, 36
1, 347590, Control_c, 0, 64, 26
1, 347605, Control_c, 0, 64, 0
1, 347701, Note_on_c, 0, 60, 83
1, 347703, Note_on_c, 0, 70, 92
1, 347705, Note_on_c, 0, 75, 97
1, 347708, Note_on_c, 0, 87, 97
1, 347712, Note_on_c, 0, 66, 72
1, 347722, Note_off_c, 0, 75, 71
1, 347728, Note_on_c, 0, 82, 54
1, 347731, Note_off_c, 0, 70, 65
1, 347736, Note_off_c, 0, 66, 66
1, 347740, Note_off_c, 0, 87, 63
1, 347752, Note_off_c, 0, 82, 38
1, 347783, Note_on_c, 0, 74, 99
1, 347784, Note_on_c, 0, 89, 97
1, 347784, Note_on_c, 0, 86, 92
1, 347787, Note_on_c, 0, 66, 82
1, 347787, Note_on_c, 0, 77, 96
1, 347790, Note_on_c, 0, 69, 92
1, 347810, Note_on_c, 0, 68, 27
1, 347842, Note_off_c, 0, 74, 53
1, 347848, Note_off_c, 0, 68, 31
1, 347849, Control_c, 0, 64, 37
1, 347864, Control_c, 0, 64, 61
1, 347879, Control_c, 0, 64, 72
1, 347886, Note_off_c, 0, 89, 64
1, 347893, Control_c, 0, 64, 86
1, 347908, Note_off_c, 0, 69, 61
1, 347908, Control_c, 0, 64, 127
1, 347913, Note_off_c, 0, 86, 61
1, 347916, Note_off_c, 0, 77, 61
1, 347939, Note_off_c, 0, 66, 63
1, 347945, Note_off_c, 0, 60, 62
1, 348151, Note_on_c, 0, 44, 75
1, 348211, Note_on_c, 0, 56, 72
1, 348246, Note_off_c, 0, 56, 61
1, 348277, Note_on_c, 0, 68, 69
1, 348303, Note_off_c, 0, 68, 68
1, 348323, Note_off_c, 0, 44, 60
1, 348343, Note_on_c, 0, 56, 75
1, 348366, Note_off_c, 0, 56, 70
1, 348404, Note_on_c, 0, 68, 65
1, 348432, Note_off_c, 0, 68, 64
1, 348467, Note_on_c, 0, 56, 68
1, 348494, Note_off_c, 0, 56, 66
1, 348570, Note_on_c, 0, 56, 85
1, 348615, Note_off_c, 0, 56, 60
1, 348643, Note_on_c, 0, 68, 81
1, 348678, Note_off_c, 0, 68, 61
1, 348705, Note_on_c, 0, 80, 75
1, 348726, Note_off_c, 0, 80, 68
1, 348811, Note_on_c, 0, 68, 62
1, 348834, Note_off_c, 0, 68, 67
1, 348837, Note_on_c, 0, 80, 57
1, 348872, Note_off_c, 0, 80, 57
1, 348968, Control_c, 0, 64, 86
1, 348980, Note_on_c, 0, 74, 85
1, 348983, Control_c, 0, 64, 61
1, 348984, Note_on_c, 0, 59, 62
1, 348986, Note_on_c, 0, 86, 80
1, 348989, Note_on_c, 0, 72, 64
1, 348993, Note_on_c, 0, 70, 79
1, 348998, Control_c, 0, 64, 42
1, 348998, Note_off_c, 0, 74, 72
1, 349004, Note_on_c, 0, 66, 58
1, 349006, Note_off_c, 0, 86, 71
1, 349008, Note_off_c, 0, 72, 42
1, 349013, Control_c, 0, 64, 31
1, 349013, Note_off_c, 0, 59, 64
1, 349013, Note_off_c, 0, 70, 69
1, 349027, Control_c, 0, 64, 28
1, 349042, Control_c, 0, 64, 24
1, 349045, Note_off_c, 0, 66, 59
1, 349048, Note_on_c, 0, 87, 86
1, 349051, Note_on_c, 0, 60, 78
1, 349057, Control_c, 0, 64, 18
1, 349060, Note_on_c, 0, 75, 86
1, 349072, Control_c, 0, 64, 0
1, 349078, Note_off_c, 0, 60, 67
1, 349078, Note_off_c, 0, 87, 66
1, 349078, Note_off_c, 0, 75, 72
1, 349204, Note_on_c, 0, 55, 83
1, 349206, Note_on_c, 0, 65, 79
1, 349211, Note_on_c, 0, 69, 83
1, 349212, Note_on_c, 0, 81, 83
1, 349228, Note_off_c, 0, 65, 67
1, 349230, Note_off_c, 0, 69, 71
1, 349231, Note_off_c, 0, 81, 71
1, 349267, Note_on_c, 0, 61, 58
1, 349274, Note_on_c, 0, 56, 81
1, 349276, Note_on_c, 0, 82, 88
1, 349281, Note_on_c, 0, 70, 81
1, 349283, Note_off_c, 0, 55, 64
1, 349296, Note_off_c, 0, 82, 67
1, 349299, Note_off_c, 0, 61, 67
1, 349303, Note_off_c, 0, 56, 66
1, 349304, Note_off_c, 0, 70, 68
1, 349525, Note_on_c, 0, 69, 52
1, 349525, Note_on_c, 0, 73, 75
1, 349526, Note_on_c, 0, 85, 72
1, 349528, Note_on_c, 0, 66, 49
1, 349538, Note_on_c, 0, 60, 45
1, 349545, Note_off_c, 0, 73, 71
1, 349550, Note_on_c, 0, 81, 42
1, 349554, Control_c, 0, 64, 20
1, 349564, Note_off_c, 0, 85, 54
1, 349569, Control_c, 0, 64, 38
1, 349571, Note_off_c, 0, 81, 53
1, 349583, Control_c, 0, 64, 52
1, 349598, Control_c, 0, 64, 61
1, 349613, Control_c, 0, 64, 64
1, 349618, Note_on_c, 0, 89, 79
1, 349618, Note_on_c, 0, 86, 52
1, 349624, Note_on_c, 0, 77, 71
1, 349626, Note_on_c, 0, 74, 67
1, 349628, Control_c, 0, 64, 68
1, 349642, Control_c, 0, 64, 74
1, 349652, Note_off_c, 0, 86, 63
1, 349653, Note_off_c, 0, 74, 66
1, 349656, Note_off_c, 0, 89, 64
1, 349657, Control_c, 0, 64, 87
1, 349663, Note_off_c, 0, 77, 60
1, 349672, Control_c, 0, 64, 127
1, 349678, Note_off_c, 0, 69, 65
1, 349701, Note_off_c, 0, 60, 56
1, 349707, Note_off_c, 0, 66, 63
1, 349892, Note_on_c, 0, 44, 63
1, 349990, Note_on_c, 0, 56, 52
1, 350020, Note_on_c, 0, 68, 53
1, 350020, Note_off_c, 0, 56, 56
1, 350021, Control_c, 0, 67, 10
1, 350036, Control_c, 0, 67, 13
1, 350051, Control_c, 0, 67, 15
1, 350054, Note_off_c, 0, 68, 63
1, 350065, Control_c, 0, 67, 17
1, 350080, Control_c, 0, 67, 19
1, 350083, Note_off_c, 0, 44, 32
1, 350086, Note_on_c, 0, 56, 72
1, 350095, Control_c, 0, 67, 21
1, 350110, Control_c, 0, 67, 22
1, 350111, Note_off_c, 0, 56, 68
1, 350125, Control_c, 0, 67, 24
1, 350139, Control_c, 0, 67, 25
1, 350154, Control_c, 0, 67, 27
1, 350157, Note_on_c, 0, 68, 57
1, 350169, Control_c, 0, 67, 30
1, 350184, Control_c, 0, 67, 31
1, 350185, Note_off_c, 0, 68, 67
1, 350199, Control_c, 0, 67, 32
1, 350214, Control_c, 0, 67, 34
1, 350217, Note_on_c, 0, 56, 43
1, 350229, Control_c, 0, 67, 36
1, 350243, Note_off_c, 0, 56, 65
1, 350244, Control_c, 0, 67, 38
1, 350259, Control_c, 0, 67, 41
1, 350273, Control_c, 0, 67, 42
1, 350288, Control_c, 0, 67, 43
1, 350312, Note_on_c, 0, 56, 72
1, 350318, Control_c, 0, 67, 43
1, 350332, Control_c, 0, 67, 44
1, 350347, Control_c, 0, 67, 45
1, 350362, Control_c, 0, 67, 47
1, 350377, Control_c, 0, 67, 49
1, 350390, Note_on_c, 0, 68, 75
1, 350392, Control_c, 0, 67, 50
1, 350402, Note_off_c, 0, 56, 55
1, 350407, Control_c, 0, 67, 50
1, 350412, Note_off_c, 0, 68, 69
1, 350436, Control_c, 0, 67, 51
1, 350451, Control_c, 0, 67, 51
1, 350455, Note_on_c, 0, 80, 63
1, 350465, Control_c, 0, 67, 52
1, 350480, Control_c, 0, 67, 53
1, 350481, Note_off_c, 0, 80, 66
1, 350495, Control_c, 0, 67, 54
1, 350504, Note_on_c, 0, 68, 62
1, 350510, Control_c, 0, 67, 56
1, 350525, Control_c, 0, 67, 57
1, 350529, Note_off_c, 0, 68, 65
1, 350539, Control_c, 0, 67, 59
1, 350554, Control_c, 0, 67, 61
1, 350569, Control_c, 0, 67, 63
1, 350584, Control_c, 0, 67, 65
1, 350595, Note_on_c, 0, 80, 46
1, 350599, Control_c, 0, 67, 67
1, 350613, Control_c, 0, 67, 68
1, 350619, Note_off_c, 0, 80, 59
1, 350628, Control_c, 0, 64, 99
1, 350628, Control_c, 0, 67, 69
1, 350631, Note_on_c, 0, 68, 62
1, 350643, Control_c, 0, 64, 77
1, 350657, Note_off_c, 0, 68, 67
1, 350658, Control_c, 0, 64, 63
1, 350673, Control_c, 0, 64, 50
1, 350673, Control_c, 0, 67, 68
1, 350688, Control_c, 0, 64, 38
1, 350688, Control_c, 0, 67, 67
1, 350703, Control_c, 0, 64, 19
1, 350703, Control_c, 0, 67, 67
1, 350718, Control_c, 0, 64, 0
1, 350718, Control_c, 0, 67, 66
1, 350747, Control_c, 0, 67, 67
1, 350763, Note_on_c, 0, 70, 64
1, 350768, Note_on_c, 0, 86, 69
1, 350770, Control_c, 0, 67, 69
1, 350774, Note_on_c, 0, 66, 56
1, 350779, Note_on_c, 0, 59, 42
1, 350783, Note_off_c, 0, 70, 65
1, 350785, Control_c, 0, 67, 71
1, 350789, Note_off_c, 0, 86, 66
1, 350795, Note_on_c, 0, 74, 37
1, 350801, Control_c, 0, 67, 74
1, 350802, Note_off_c, 0, 66, 66
1, 350810, Note_off_c, 0, 59, 52
1, 350816, Control_c, 0, 67, 77
1, 350828, Note_off_c, 0, 74, 34
1, 350830, Note_on_c, 0, 87, 76
1, 350831, Control_c, 0, 67, 78
1, 350839, Note_on_c, 0, 60, 69
1, 350851, Note_off_c, 0, 87, 69
1, 350862, Note_off_c, 0, 60, 67
1, 351008, Control_c, 0, 67, 79
1, 351052, Control_c, 0, 67, 79
1, 351108, Note_on_c, 0, 55, 34
1, 351131, Note_on_c, 0, 81, 65
1, 351132, Note_on_c, 0, 65, 45
1, 351143, Note_on_c, 0, 61, 40
1, 351149, Note_on_c, 0, 69, 37
1, 351176, Note_off_c, 0, 69, 48
1, 351221, Note_off_c, 0, 55, 58
1, 351227, Note_off_c, 0, 81, 62
1, 351251, Note_on_c, 0, 82, 57
1, 351263, Note_on_c, 0, 56, 39
1, 351275, Control_c, 0, 67, 80
1, 351281, Note_on_c, 0, 70, 49
1, 351289, Control_c, 0, 64, 28
1, 351304, Control_c, 0, 64, 47
1, 351304, Control_c, 0, 67, 80
1, 351319, Control_c, 0, 64, 60
1, 351334, Control_c, 0, 64, 64
1, 351335, Poly_aftertouch_c, 0, 77, 0
1, 351338, Note_off_c, 0, 70, 39
1, 351349, Control_c, 0, 64, 67
1, 351363, Control_c, 0, 64, 72
1, 351378, Control_c, 0, 64, 80
1, 351393, Control_c, 0, 64, 89
1, 351407, Control_c, 0, 64, 101
1, 351419, Note_off_c, 0, 56, 56
1, 351422, Control_c, 0, 64, 122
1, 351437, Control_c, 0, 64, 127
1, 351463, Note_off_c, 0, 65, 53
1, 351466, Note_off_c, 0, 61, 51
1, 351466, Control_c, 0, 67, 81
1, 351481, Control_c, 0, 67, 81
1, 351518, Control_c, 0, 67, 83
1, 351533, Control_c, 0, 67, 84
1, 351548, Control_c, 0, 67, 85
1, 351562, Control_c, 0, 67, 87
1, 351577, Control_c, 0, 67, 89
1, 351593, Control_c, 0, 67, 91
1, 351608, Control_c, 0, 67, 92
1, 351623, Control_c, 0, 67, 94
1, 351637, Control_c, 0, 67, 97
1, 351652, Control_c, 0, 67, 99
1, 351667, Control_c, 0, 67, 103
1, 351682, Control_c, 0, 67, 105
1, 351697, Control_c, 0, 67, 107
1, 351711, Control_c, 0, 67, 110
1, 351726, Control_c, 0, 67, 113
1, 351741, Control_c, 0, 67, 116
1, 351756, Control_c, 0, 67, 118
1, 351771, Control_c, 0, 67, 121
1, 351785, Control_c, 0, 67, 123
1, 351800, Control_c, 0, 67, 125
1, 351815, Control_c, 0, 67, 127
1, 351830, Control_c, 0, 67, 127
1, 351921, Note_on_c, 0, 61, 33
1, 351960, Note_on_c, 0, 67, 38
1, 351990, Note_on_c, 0, 73, 40
1, 352018, Note_on_c, 0, 69, 45
1, 352035, Note_on_c, 0, 77, 46
1, 352046, Note_off_c, 0, 61, 61
1, 352052, Note_off_c, 0, 67, 63
1, 352058, Note_on_c, 0, 85, 67
1, 352060, Note_off_c, 0, 73, 52
1, 352062, Note_off_c, 0, 69, 65
1, 352063, Note_off_c, 0, 82, 61
1, 352067, Control_c, 0, 64, 85
1, 352068, Note_off_c, 0, 77, 66
1, 352082, Note_off_c, 0, 85, 65
1, 352082, Control_c, 0, 64, 66
1, 352097, Control_c, 0, 64, 47
1, 352111, Control_c, 0, 64, 12
1, 352126, Control_c, 0, 64, 0
1, 352577, Note_on_c, 0, 34, 56
1, 352594, Control_c, 0, 67, 127
1, 352603, Note_off_c, 0, 34, 56
1, 352606, Note_on_c, 0, 65, 64
1, 352609, Control_c, 0, 67, 126
1, 352623, Note_on_c, 0, 61, 43
1, 352624, Control_c, 0, 67, 126
1, 352632, Note_on_c, 0, 46, 51
1, 352639, Control_c, 0, 67, 125
1, 352640, Note_off_c, 0, 65, 58
1, 352653, Note_off_c, 0, 61, 47
1, 352654, Note_off_c, 0, 46, 50
1, 352688, Note_on_c, 0, 67, 66
1, 352695, Note_on_c, 0, 55, 64
1, 352697, Note_on_c, 0, 64, 54
1, 352742, Control_c, 0, 67, 125
1, 352745, Note_on_c, 0, 46, 39
1, 352772, Control_c, 0, 67, 124
1, 352776, Note_off_c, 0, 46, 34
1, 352787, Control_c, 0, 67, 124
1, 352790, Note_on_c, 0, 53, 60
1, 352802, Control_c, 0, 67, 123
1, 352816, Control_c, 0, 67, 123
1, 352817, Note_off_c, 0, 53, 63
1, 352831, Control_c, 0, 67, 122
1, 352846, Control_c, 0, 67, 121
1, 352857, Note_on_c, 0, 46, 64
1, 352861, Control_c, 0, 67, 121
1, 352876, Control_c, 0, 67, 120
1, 352885, Note_off_c, 0, 46, 64
1, 352920, Control_c, 0, 67, 121
1, 352941, Note_on_c, 0, 46, 69
1, 352974, Note_off_c, 0, 46, 63
1, 353019, Note_on_c, 0, 34, 72
1, 353056, Note_off_c, 0, 34, 65
1, 353075, Control_c, 0, 67, 120
1, 353078, Note_on_c, 0, 46, 52
1, 353109, Note_off_c, 0, 46, 64
1, 353135, Control_c, 0, 67, 120
1, 353165, Control_c, 0, 67, 119
1, 353170, Note_on_c, 0, 46, 54
1, 353180, Control_c, 0, 67, 119
1, 353194, Note_off_c, 0, 46, 38
1, 353195, Control_c, 0, 67, 117
1, 353210, Control_c, 0, 67, 115
1, 353225, Control_c, 0, 67, 112
1, 353239, Control_c, 0, 67, 110
1, 353249, Note_on_c, 0, 53, 45
1, 353254, Control_c, 0, 67, 107
1, 353269, Control_c, 0, 67, 104
1, 353280, Note_off_c, 0, 53, 34
1, 353284, Control_c, 0, 67, 102
1, 353293, Note_on_c, 0, 46, 62
1, 353299, Control_c, 0, 67, 101
1, 353314, Control_c, 0, 67, 100
1, 353320, Note_off_c, 0, 46, 66
1, 353329, Control_c, 0, 67, 99
1, 353344, Control_c, 0, 67, 99
1, 353375, Note_on_c, 0, 46, 68
1, 353405, Note_off_c, 0, 46, 65
1, 353440, Note_on_c, 0, 34, 73
1, 353462, Control_c, 0, 67, 99
1, 353476, Note_off_c, 0, 34, 64
1, 353493, Note_on_c, 0, 46, 60
1, 353522, Note_off_c, 0, 46, 64
1, 353550, Control_c, 0, 67, 99
1, 353580, Control_c, 0, 67, 98
1, 353591, Note_on_c, 0, 46, 50
1, 353595, Control_c, 0, 67, 98
1, 353617, Note_off_c, 0, 46, 37
1, 353651, Note_on_c, 0, 53, 49
1, 353654, Control_c, 0, 67, 97
1, 353678, Note_off_c, 0, 53, 36
1, 353702, Note_on_c, 0, 46, 66
1, 353729, Note_off_c, 0, 46, 66
1, 353792, Note_on_c, 0, 46, 71
1, 353824, Control_c, 0, 67, 97
1, 353828, Note_off_c, 0, 46, 62
1, 353839, Control_c, 0, 67, 96
1, 353854, Control_c, 0, 67, 95
1, 353865, Note_on_c, 0, 34, 71
1, 353869, Control_c, 0, 67, 95
1, 353910, Note_off_c, 0, 34, 61
1, 353940, Note_on_c, 0, 46, 66
1, 353970, Note_off_c, 0, 46, 65
1, 354023, Note_on_c, 0, 34, 74
1, 354027, Note_off_c, 0, 64, 40
1, 354053, Note_off_c, 0, 34, 66
1, 354053, Note_off_c, 0, 67, 57
1, 354071, Note_off_c, 0, 55, 45
1, 354092, Control_c, 0, 67, 94
1, 354110, Note_on_c, 0, 34, 76
1, 354152, Note_off_c, 0, 34, 0
1, 354152, Control_c, 0, 67, 94
1, 354167, Control_c, 0, 67, 93
1, 354181, Control_c, 0, 67, 93
1, 354196, Control_c, 0, 67, 92
1, 354197, Poly_aftertouch_c, 0, 34, 0
1, 354211, Control_c, 0, 67, 92
1, 354225, Control_c, 0, 67, 91
1, 354240, Note_on_c, 0, 32, 72
1, 354240, Control_c, 0, 67, 90
1, 354255, Control_c, 0, 67, 89
1, 354270, Control_c, 0, 67, 86
1, 354285, Control_c, 0, 67, 84
1, 354299, Control_c, 0, 67, 81
1, 354314, Control_c, 0, 67, 79
1, 354316, Note_on_c, 0, 34, 74
1, 354321, Note_off_c, 0, 32, 63
1, 354329, Control_c, 0, 67, 76
1, 354344, Control_c, 0, 67, 74
1, 354357, Note_off_c, 0, 34, 62
1, 354359, Control_c, 0, 67, 73
1, 354373, Control_c, 0, 67, 72
1, 354381, Note_on_c, 0, 65, 57
1, 354390, Note_on_c, 0, 53, 57
1, 354393, Note_on_c, 0, 46, 68
1, 354402, Note_off_c, 0, 65, 60
1, 354403, Control_c, 0, 67, 71
1, 354416, Note_off_c, 0, 53, 36
1, 354421, Note_off_c, 0, 46, 64
1, 354441, Note_on_c, 0, 64, 77
1, 354444, Note_on_c, 0, 55, 77
1, 354445, Note_on_c, 0, 67, 73
1, 354462, Control_c, 0, 67, 72
1, 354464, Note_off_c, 0, 64, 69
1, 354468, Note_off_c, 0, 67, 68
1, 354471, Note_off_c, 0, 55, 65
1, 354485, Note_on_c, 0, 46, 57
1, 354513, Control_c, 0, 67, 71
1, 354517, Note_off_c, 0, 46, 39
1, 354557, Control_c, 0, 67, 71
1, 354558, Note_on_c, 0, 53, 51
1, 354572, Control_c, 0, 67, 70
1, 354585, Note_off_c, 0, 53, 65
1, 354602, Control_c, 0, 67, 70
1, 354617, Control_c, 0, 67, 69
1, 354621, Note_on_c, 0, 46, 57
1, 354655, Note_off_c, 0, 46, 63
1, 354661, Control_c, 0, 67, 70
1, 354674, Note_on_c, 0, 65, 61
1, 354676, Control_c, 0, 67, 71
1, 354691, Control_c, 0, 67, 72
1, 354694, Note_off_c, 0, 65, 64
1, 354706, Control_c, 0, 67, 73
1, 354707, Note_on_c, 0, 46, 67
1, 354721, Control_c, 0, 64, 29
1, 354721, Control_c, 0, 67, 75
1, 354730, Note_on_c, 0, 68, 78
1, 354732, Note_on_c, 0, 64, 57
1, 354736, Note_off_c, 0, 46, 67
1, 354736, Control_c, 0, 64, 46
1, 354736, Control_c, 0, 67, 75
1, 354738, Note_on_c, 0, 56, 78
1, 354751, Control_c, 0, 64, 58
1, 354751, Control_c, 0, 67, 76
1, 354764, Note_on_c, 0, 34, 66
1, 354765, Control_c, 0, 64, 62
1, 354781, Control_c, 0, 64, 65
1, 354795, Control_c, 0, 64, 68
1, 354795, Control_c, 0, 67, 75
1, 354804, Note_off_c, 0, 34, 64
1, 354810, Control_c, 0, 64, 73
1, 354821, Note_on_c, 0, 46, 66
1, 354825, Control_c, 0, 64, 79
1, 354825, Control_c, 0, 67, 75
1, 354840, Control_c, 0, 64, 85
1, 354849, Note_off_c, 0, 46, 66
1, 354855, Control_c, 0, 64, 91
1, 354855, Control_c, 0, 67, 74
1, 354857, Note_off_c, 0, 56, 0
1, 354857, Note_on_c, 0, 56, 5
1, 354870, Control_c, 0, 64, 94
1, 354879, Note_off_c, 0, 56, 59
1, 354885, Control_c, 0, 64, 98
1, 354885, Control_c, 0, 67, 74
1, 354897, Note_off_c, 0, 68, 33
1, 354900, Control_c, 0, 64, 100
1, 354900, Control_c, 0, 67, 73
1, 354915, Control_c, 0, 64, 102
1, 354915, Control_c, 0, 67, 73
1, 354929, Control_c, 0, 64, 102
1, 354942, Note_on_c, 0, 46, 39
1, 354944, Control_c, 0, 64, 103
1, 354944, Control_c, 0, 67, 72
1, 354953, Note_off_c, 0, 64, 30
1, 354974, Note_off_c, 0, 46, 34
1, 354988, Control_c, 0, 67, 72
1, 355010, Note_on_c, 0, 53, 51
1, 355035, Note_off_c, 0, 53, 52
1, 355062, Control_c, 0, 67, 71
1, 355064, Note_on_c, 0, 46, 69
1, 355102, Note_off_c, 0, 46, 64
1, 355109, Note_on_c, 0, 65, 69
1, 355121, Control_c, 0, 64, 99
1, 355121, Control_c, 0, 67, 72
1, 355136, Control_c, 0, 64, 83
1, 355136, Control_c, 0, 67, 73
1, 355138, Note_on_c, 0, 61, 60
1, 355138, Note_off_c, 0, 65, 62
1, 355151, Control_c, 0, 64, 66
1, 355151, Control_c, 0, 67, 74
1, 355162, Note_on_c, 0, 53, 66
1, 355165, Note_on_c, 0, 46, 61
1, 355166, Control_c, 0, 64, 40
1, 355166, Control_c, 0, 67, 75
1, 355180, Note_off_c, 0, 61, 63
1, 355180, Control_c, 0, 64, 0
1, 355180, Control_c, 0, 67, 75
1, 355192, Note_off_c, 0, 53, 65
1, 355196, Note_off_c, 0, 46, 64
1, 355235, Note_on_c, 0, 34, 66
1, 355282, Note_off_c, 0, 34, 61
1, 355292, Control_c, 0, 67, 75
1, 355300, Note_on_c, 0, 46, 66
1, 355307, Control_c, 0, 67, 74
1, 355322, Control_c, 0, 67, 73
1, 355325, Note_off_c, 0, 46, 68
1, 355329, Note_on_c, 0, 53, 62
1, 355329, Note_on_c, 0, 65, 72
1, 355336, Control_c, 0, 67, 72
1, 355341, Note_on_c, 0, 61, 47
1, 355351, Control_c, 0, 67, 72
1, 355353, Note_off_c, 0, 53, 38
1, 355356, Note_off_c, 0, 61, 40
1, 355361, Note_off_c, 0, 65, 55
1, 355366, Control_c, 0, 67, 71
1, 355386, Note_on_c, 0, 67, 75
1, 355389, Note_on_c, 0, 46, 72
1, 355392, Note_on_c, 0, 55, 60
1, 355392, Note_on_c, 0, 64, 69
1, 355408, Note_off_c, 0, 46, 65
1, 355446, Note_on_c, 0, 53, 55
1, 355476, Note_off_c, 0, 53, 65
1, 355488, Note_on_c, 0, 52, 24
1, 355508, Note_on_c, 0, 46, 58
1, 355514, Control_c, 0, 67, 72
1, 355525, Note_off_c, 0, 52, 31
1, 355538, Note_off_c, 0, 46, 65
1, 355587, Note_on_c, 0, 46, 70
1, 355603, Control_c, 0, 67, 72
1, 355623, Note_off_c, 0, 46, 63
1, 355661, Note_on_c, 0, 34, 76
1, 355700, Note_off_c, 0, 34, 60
1, 355726, Note_on_c, 0, 46, 64
1, 355754, Note_off_c, 0, 46, 64
1, 355812, Note_on_c, 0, 46, 65
1, 355834, Note_off_c, 0, 46, 57
1, 355841, Control_c, 0, 67, 72
1, 355856, Control_c, 0, 67, 71
1, 355869, Note_on_c, 0, 53, 71
1, 355871, Control_c, 0, 67, 71
1, 355885, Control_c, 0, 67, 70
1, 355900, Control_c, 0, 67, 70
1, 355902, Note_off_c, 0, 53, 65
1, 355927, Note_on_c, 0, 46, 64
1, 355944, Control_c, 0, 67, 69
1, 355963, Note_off_c, 0, 46, 64
1, 356030, Note_on_c, 0, 46, 63
1, 356061, Note_off_c, 0, 46, 65
1, 356086, Note_on_c, 0, 34, 71
1, 356134, Note_off_c, 0, 34, 60
1, 356158, Note_on_c, 0, 46, 71
1, 356193, Note_off_c, 0, 46, 63
1, 356247, Note_on_c, 0, 34, 76
1, 356248, Control_c, 0, 67, 69
1, 356263, Control_c, 0, 67, 68
1, 356277, Note_off_c, 0, 34, 64
1, 356277, Control_c, 0, 67, 67
1, 356292, Control_c, 0, 67, 66
1, 356307, Control_c, 0, 67, 65
1, 356322, Control_c, 0, 67, 63
1, 356330, Note_on_c, 0, 34, 77
1, 356337, Control_c, 0, 64, 11
1, 356337, Control_c, 0, 67, 62
1, 356352, Control_c, 0, 64, 17
1, 356352, Control_c, 0, 67, 61
1, 356360, Note_off_c, 0, 64, 55
1, 356366, Control_c, 0, 64, 22
1, 356366, Control_c, 0, 67, 59
1, 356382, Control_c, 0, 64, 26
1, 356382, Control_c, 0, 67, 59
1, 356397, Control_c, 0, 64, 29
1, 356397, Control_c, 0, 67, 58
1, 356407, Note_off_c, 0, 67, 52
1, 356412, Control_c, 0, 64, 33
1, 356416, Note_off_c, 0, 34, 63
1, 356426, Control_c, 0, 64, 37
1, 356426, Control_c, 0, 67, 58
1, 356441, Control_c, 0, 64, 41
1, 356456, Note_on_c, 0, 32, 76
1, 356456, Control_c, 0, 64, 45
1, 356471, Control_c, 0, 64, 49
1, 356471, Control_c, 0, 67, 57
1, 356486, Control_c, 0, 64, 53
1, 356486, Control_c, 0, 67, 56
1, 356501, Control_c, 0, 64, 56
1, 356501, Control_c, 0, 67, 55
1, 356507, Note_off_c, 0, 55, 38
1, 356515, Control_c, 0, 64, 58
1, 356515, Control_c, 0, 67, 54
1, 356530, Note_on_c, 0, 34, 75
1, 356530, Control_c, 0, 64, 58
1, 356530, Control_c, 0, 67, 51
1, 356536, Note_off_c, 0, 32, 62
1, 356545, Control_c, 0, 67, 48
1, 356560, Control_c, 0, 64, 56
1, 356560, Control_c, 0, 67, 41
1, 356572, Note_off_c, 0, 34, 60
1, 356575, Control_c, 0, 64, 48
1, 356575, Control_c, 0, 67, 32
1, 356590, Control_c, 0, 64, 34
1, 356590, Control_c, 0, 67, 24
1, 356599, Note_on_c, 0, 46, 78
1, 356605, Control_c, 0, 64, 0
1, 356605, Control_c, 0, 67, 17
1, 356620, Control_c, 0, 67, 15
1, 356623, Note_on_c, 0, 65, 61
1, 356624, Note_off_c, 0, 46, 69
1, 356631, Note_on_c, 0, 53, 55
1, 356641, Note_off_c, 0, 65, 64
1, 356649, Control_c, 0, 67, 16
1, 356656, Note_off_c, 0, 53, 38
1, 356664, Control_c, 0, 67, 17
1, 356676, Note_on_c, 0, 46, 86
1, 356679, Control_c, 0, 67, 18
1, 356679, Note_on_c, 0, 64, 64
1, 356682, Note_on_c, 0, 68, 69
1, 356694, Control_c, 0, 67, 18
1, 356704, Note_on_c, 0, 56, 53
1, 356707, Note_off_c, 0, 68, 65
1, 356708, Control_c, 0, 67, 19
1, 356710, Note_off_c, 0, 46, 67
1, 356715, Note_off_c, 0, 64, 62
1, 356728, Note_off_c, 0, 56, 56
1, 356760, Note_on_c, 0, 53, 63
1, 356775, Control_c, 0, 67, 18
1, 356794, Note_off_c, 0, 53, 65
1, 356834, Note_on_c, 0, 46, 70
1, 356861, Note_off_c, 0, 46, 67
1, 356879, Control_c, 0, 67, 18
1, 356894, Control_c, 0, 67, 17
1, 356901, Note_on_c, 0, 65, 69
1, 356908, Control_c, 0, 67, 17
1, 356914, Note_on_c, 0, 46, 82
1, 356923, Control_c, 0, 67, 16
1, 356938, Control_c, 0, 67, 14
1, 356941, Note_off_c, 0, 46, 65
1, 356943, Note_on_c, 0, 61, 18
1, 356952, Control_c, 0, 67, 12
1, 356967, Control_c, 0, 67, 10
1, 356968, Note_off_c, 0, 65, 40
1, 356969, Note_on_c, 0, 64, 76
1, 356974, Note_on_c, 0, 69, 76
1, 356982, Control_c, 0, 64, 19
1, 356982, Control_c, 0, 67, 10
1, 356983, Note_on_c, 0, 57, 63
1, 356985, Note_on_c, 0, 34, 76
1, 356987, Note_off_c, 0, 61, 29
1, 356997, Control_c, 0, 64, 42
1, 356997, Control_c, 0, 67, 9
1, 357012, Control_c, 0, 64, 56
1, 357016, Note_off_c, 0, 57, 46
1, 357022, Note_off_c, 0, 34, 64
1, 357026, Control_c, 0, 64, 61
1, 357041, Note_on_c, 0, 46, 57
1, 357041, Control_c, 0, 64, 63
1, 357056, Control_c, 0, 64, 64
1, 357070, Control_c, 0, 64, 66
1, 357070, Control_c, 0, 67, 9
1, 357071, Note_off_c, 0, 46, 67
1, 357085, Control_c, 0, 64, 69
1, 357085, Control_c, 0, 67, 8
1, 357100, Control_c, 0, 64, 71
1, 357100, Control_c, 0, 67, 0
1, 357115, Poly_aftertouch_c, 0, 57, 127
1, 357115, Control_c, 0, 64, 75
1, 357130, Control_c, 0, 64, 77
1, 357135, Note_off_c, 0, 69, 31
1, 357144, Control_c, 0, 64, 79
1, 357159, Control_c, 0, 64, 80
1, 357175, Control_c, 0, 64, 80
1, 357190, Control_c, 0, 64, 81
1, 357197, Note_off_c, 0, 64, 41
1, 357201, Poly_aftertouch_c, 0, 57, 0
1, 357203, Note_on_c, 0, 53, 68
1, 357220, Control_c, 0, 64, 81
1, 357228, Note_off_c, 0, 53, 64
1, 357235, Control_c, 0, 64, 82
1, 357249, Control_c, 0, 64, 82
1, 357264, Control_c, 0, 64, 83
1, 357285, Note_on_c, 0, 46, 55
1, 357285, Note_on_c, 0, 65, 69
1, 357309, Control_c, 0, 64, 80
1, 357322, Note_off_c, 0, 46, 64
1, 357323, Control_c, 0, 64, 71
1, 357335, Note_on_c, 0, 61, 48
1, 357338, Control_c, 0, 64, 65
1, 357350, Note_off_c, 0, 65, 61
1, 357353, Control_c, 0, 64, 62
1, 357366, Note_on_c, 0, 46, 62
1, 357368, Control_c, 0, 64, 64
1, 357369, Note_off_c, 0, 61, 66
1, 357377, Note_on_c, 0, 55, 22
1, 357379, Note_on_c, 0, 53, 19
1, 357383, Control_c, 0, 64, 68
1, 357398, Control_c, 0, 64, 72
1, 357398, Note_off_c, 0, 46, 64
1, 357413, Control_c, 0, 64, 78
1, 357420, Note_off_c, 0, 53, 28
1, 357420, Note_off_c, 0, 55, 30
1, 357428, Control_c, 0, 64, 85
1, 357443, Control_c, 0, 64, 88
1, 357452, Note_on_c, 0, 39, 79
1, 357472, Control_c, 0, 64, 88
1, 357487, Note_off_c, 0, 39, 64
1, 357487, Control_c, 0, 64, 83
1, 357491, Note_on_c, 0, 46, 67
1, 357509, Control_c, 0, 64, 74
1, 357509, Control_c, 0, 67, 8
1, 357517, Note_on_c, 0, 70, 77
1, 357522, Note_off_c, 0, 46, 63
1, 357524, Control_c, 0, 64, 65
1, 357524, Control_c, 0, 67, 9
1, 357538, Note_on_c, 0, 58, 54
1, 357539, Control_c, 0, 64, 54
1, 357543, Note_off_c, 0, 70, 66
1, 357554, Control_c, 0, 64, 48
1, 357565, Note_off_c, 0, 58, 36
1, 357569, Control_c, 0, 64, 47
1, 357587, Note_on_c, 0, 46, 68
1, 357592, Note_on_c, 0, 69, 78
1, 357594, Note_on_c, 0, 72, 75
1, 357595, Note_on_c, 0, 60, 79
1, 357628, Control_c, 0, 64, 47
1, 357628, Control_c, 0, 67, 8
1, 357636, Note_off_c, 0, 46, 62
1, 357643, Control_c, 0, 64, 49
1, 357657, Control_c, 0, 64, 53
1, 357672, Control_c, 0, 64, 57
1, 357687, Control_c, 0, 64, 59
1, 357702, Control_c, 0, 64, 61
1, 357707, Note_on_c, 0, 58, 50
1, 357717, Control_c, 0, 64, 62
1, 357732, Note_off_c, 0, 58, 59
1, 357732, Control_c, 0, 64, 63
1, 357732, Control_c, 0, 67, 8
1, 357747, Control_c, 0, 64, 63
1, 357747, Control_c, 0, 67, 0
1, 357777, Note_on_c, 0, 46, 68
1, 357791, Control_c, 0, 64, 63
1, 357819, Note_off_c, 0, 46, 58
1, 357836, Control_c, 0, 64, 63
1, 357850, Control_c, 0, 64, 64
1, 357863, Note_on_c, 0, 39, 84
1, 357865, Control_c, 0, 64, 64
1, 357880, Control_c, 0, 64, 65
1, 357895, Control_c, 0, 64, 66
1, 357896, Note_off_c, 0, 39, 67
1, 357909, Control_c, 0, 64, 67
1, 357924, Control_c, 0, 64, 68
1, 357939, Control_c, 0, 64, 69
1, 357954, Control_c, 0, 64, 70
1, 357999, Control_c, 0, 64, 70
1, 358006, Note_on_c, 0, 46, 64
1, 358080, Note_on_c, 0, 54, 69
1, 358091, Note_off_c, 0, 46, 58
1, 358125, Note_off_c, 0, 54, 64
1, 358160, Note_on_c, 0, 58, 72
1, 358177, Control_c, 0, 64, 70
1, 358185, Note_off_c, 0, 58, 67
1, 358191, Control_c, 0, 64, 67
1, 358206, Control_c, 0, 64, 62
1, 358221, Control_c, 0, 64, 54
1, 358226, Note_on_c, 0, 46, 73
1, 358235, Control_c, 0, 64, 43
1, 358258, Control_c, 0, 64, 36
1, 358273, Note_off_c, 0, 46, 61
1, 358273, Control_c, 0, 64, 33
1, 358287, Control_c, 0, 64, 34
1, 358297, Note_on_c, 0, 39, 82
1, 358302, Control_c, 0, 64, 37
1, 358317, Control_c, 0, 64, 45
1, 358331, Control_c, 0, 64, 53
1, 358332, Note_off_c, 0, 39, 64
1, 358346, Control_c, 0, 64, 57
1, 358376, Control_c, 0, 64, 57
1, 358420, Control_c, 0, 64, 58
1, 358433, Note_on_c, 0, 46, 57
1, 358435, Control_c, 0, 64, 60
1, 358450, Control_c, 0, 64, 61
1, 358465, Control_c, 0, 64, 62
1, 358480, Control_c, 0, 64, 63
1, 358494, Note_off_c, 0, 46, 0
1, 358494, Note_on_c, 0, 46, 10
1, 358501, Note_on_c, 0, 54, 70
1, 358510, Control_c, 0, 64, 64
1, 358522, Note_off_c, 0, 46, 58
1, 358524, Control_c, 0, 64, 64
1, 358534, Note_off_c, 0, 54, 64
1, 358539, Control_c, 0, 64, 65
1, 358554, Control_c, 0, 64, 66
1, 358568, Note_on_c, 0, 58, 71
1, 358569, Control_c, 0, 64, 67
1, 358584, Control_c, 0, 64, 69
1, 358587, Note_off_c, 0, 58, 65
1, 358598, Control_c, 0, 64, 72
1, 358613, Control_c, 0, 64, 75
1, 358628, Control_c, 0, 64, 78
1, 358643, Control_c, 0, 64, 81
1, 358658, Control_c, 0, 64, 85
1, 358672, Control_c, 0, 64, 90
1, 358687, Control_c, 0, 64, 94
1, 358694, Note_on_c, 0, 39, 80
1, 358717, Control_c, 0, 64, 90
1, 358730, Note_off_c, 0, 39, 63
1, 358731, Control_c, 0, 64, 79
1, 358746, Control_c, 0, 64, 65
1, 358761, Control_c, 0, 64, 54
1, 358775, Note_on_c, 0, 46, 75
1, 358777, Control_c, 0, 64, 47
1, 358792, Control_c, 0, 64, 48
1, 358793, Note_off_c, 0, 46, 64
1, 358807, Control_c, 0, 64, 49
1, 358821, Control_c, 0, 64, 49
1, 358836, Control_c, 0, 64, 49
1, 358847, Note_on_c, 0, 39, 78
1, 358851, Control_c, 0, 64, 48
1, 358874, Note_off_c, 0, 39, 64
1, 358910, Control_c, 0, 64, 47
1, 358925, Control_c, 0, 64, 46
1, 358932, Note_on_c, 0, 40, 70
1, 358948, Note_off_c, 0, 69, 59
1, 358951, Note_on_c, 0, 39, 53
1, 358952, Note_off_c, 0, 39, 127
1, 358954, Control_c, 0, 64, 47
1, 358963, Note_off_c, 0, 60, 60
1, 358965, Note_off_c, 0, 40, 65
1, 358969, Control_c, 0, 64, 47
1, 358972, Note_off_c, 0, 72, 48
1, 358984, Control_c, 0, 64, 48
1, 359007, Control_c, 0, 64, 49
1, 359021, Control_c, 0, 64, 50
1, 359034, Poly_aftertouch_c, 0, 39, 0
1, 359036, Control_c, 0, 64, 52
1, 359047, Note_on_c, 0, 39, 3
1, 359048, Note_off_c, 0, 39, 127
1, 359051, Control_c, 0, 64, 53
1, 359064, Note_on_c, 0, 37, 67
1, 359066, Control_c, 0, 64, 54
1, 359080, Control_c, 0, 64, 55
1, 359095, Control_c, 0, 64, 57
1, 359110, Control_c, 0, 64, 60
1, 359125, Control_c, 0, 64, 62
1, 359139, Note_on_c, 0, 39, 68
1, 359140, Control_c, 0, 64, 63
1, 359147, Note_off_c, 0, 37, 62
1, 359154, Control_c, 0, 64, 59
1, 359169, Control_c, 0, 64, 52
1, 359172, Note_off_c, 0, 39, 68
1, 359183, Note_on_c, 0, 58, 88
1, 359184, Control_c, 0, 64, 43
1, 359196, Note_on_c, 0, 70, 62
1, 359199, Control_c, 0, 64, 29
1, 359202, Note_on_c, 0, 44, 44
1, 359206, Note_off_c, 0, 58, 67
1, 359214, Control_c, 0, 64, 0
1, 359215, Note_off_c, 0, 70, 65
1, 359237, Note_off_c, 0, 44, 34
1, 359259, Note_on_c, 0, 69, 75
1, 359264, Note_on_c, 0, 60, 80
1, 359266, Note_on_c, 0, 72, 74
1, 359273, Note_on_c, 0, 46, 54
1, 359285, Note_off_c, 0, 60, 68
1, 359288, Note_off_c, 0, 69, 62
1, 359288, Note_off_c, 0, 72, 69
1, 359358, Note_on_c, 0, 54, 63
1, 359363, Note_off_c, 0, 46, 63
1, 359389, Note_off_c, 0, 54, 64
1, 359404, Note_on_c, 0, 58, 77
1, 359440, Note_off_c, 0, 58, 0
1, 359455, Note_on_c, 0, 58, 57
1, 359475, Note_off_c, 0, 58, 62
1, 359491, Note_on_c, 0, 46, 70
1, 359492, Note_on_c, 0, 70, 10
1, 359493, Note_off_c, 0, 70, 127
1, 359503, Note_on_c, 0, 69, 38
1, 359517, Note_on_c, 0, 73, 85
1, 359521, Note_on_c, 0, 61, 82
1, 359526, Note_off_c, 0, 46, 62
1, 359535, Note_on_c, 0, 39, 77
1, 359540, Control_c, 0, 64, 40
1, 359554, Control_c, 0, 64, 57
1, 359570, Control_c, 0, 64, 62
1, 359585, Note_off_c, 0, 73, 58
1, 359585, Control_c, 0, 64, 65
1, 359599, Note_off_c, 0, 39, 63
1, 359600, Control_c, 0, 64, 67
1, 359615, Control_c, 0, 64, 70
1, 359616, Note_on_c, 0, 46, 62
1, 359630, Control_c, 0, 64, 74
1, 359636, Note_off_c, 0, 46, 61
1, 359644, Control_c, 0, 64, 77
1, 359659, Control_c, 0, 64, 79
1, 359669, Note_off_c, 0, 61, 27
1, 359674, Control_c, 0, 64, 79
1, 359693, Note_off_c, 0, 69, 48
1, 359702, Note_on_c, 0, 46, 79
1, 359783, Note_off_c, 0, 46, 54
1, 359784, Note_on_c, 0, 54, 67
1, 359812, Note_off_c, 0, 54, 67
1, 359840, Note_on_c, 0, 58, 75
1, 359848, Note_on_c, 0, 70, 73
1, 359863, Note_off_c, 0, 58, 67
1, 359874, Control_c, 0, 64, 78
1, 359881, Note_off_c, 0, 70, 58
1, 359889, Control_c, 0, 64, 75
1, 359903, Control_c, 0, 64, 68
1, 359908, Note_on_c, 0, 66, 37
1, 359915, Note_on_c, 0, 46, 72
1, 359918, Control_c, 0, 64, 62
1, 359926, Note_on_c, 0, 58, 46
1, 359933, Control_c, 0, 64, 54
1, 359938, Note_off_c, 0, 66, 54
1, 359948, Control_c, 0, 64, 51
1, 359949, Note_off_c, 0, 58, 37
1, 359955, Note_off_c, 0, 46, 61
1, 359977, Control_c, 0, 64, 50
1, 359978, Note_on_c, 0, 39, 85
1, 359992, Control_c, 0, 64, 44
1, 360007, Control_c, 0, 64, 29
1, 360021, Note_on_c, 0, 58, 84
1, 360022, Control_c, 0, 64, 0
1, 360030, Note_on_c, 0, 70, 85
1, 360033, Note_off_c, 0, 39, 63
1, 360052, Note_off_c, 0, 58, 67
1, 360060, Note_off_c, 0, 70, 64
1, 360063, Note_on_c, 0, 46, 44
1, 360101, Note_on_c, 0, 72, 81
1, 360103, Note_on_c, 0, 60, 89
1, 360103, Note_on_c, 0, 69, 88
1, 360105, Note_off_c, 0, 46, 0
1, 360105, Note_on_c, 0, 46, 61
1, 360185, Control_c, 0, 64, 22
1, 360192, Note_on_c, 0, 54, 61
1, 360200, Control_c, 0, 64, 36
1, 360208, Note_off_c, 0, 46, 63
1, 360215, Control_c, 0, 64, 45
1, 360229, Control_c, 0, 64, 50
1, 360232, Note_off_c, 0, 54, 65
1, 360244, Control_c, 0, 64, 53
1, 360259, Note_on_c, 0, 58, 68
1, 360259, Control_c, 0, 64, 53
1, 360274, Control_c, 0, 64, 54
1, 360284, Note_off_c, 0, 58, 66
1, 360328, Note_on_c, 0, 46, 77
1, 360369, Note_off_c, 0, 46, 63
1, 360379, Control_c, 0, 64, 54
1, 360393, Control_c, 0, 64, 56
1, 360405, Note_on_c, 0, 39, 85
1, 360408, Control_c, 0, 64, 58
1, 360423, Control_c, 0, 64, 60
1, 360426, Note_on_c, 0, 44, 53
1, 360436, Note_off_c, 0, 39, 67
1, 360438, Control_c, 0, 64, 62
1, 360453, Control_c, 0, 64, 63
1, 360457, Note_off_c, 0, 44, 35
1, 360468, Control_c, 0, 64, 64
1, 360483, Control_c, 0, 64, 66
1, 360505, Control_c, 0, 64, 67
1, 360520, Control_c, 0, 64, 69
1, 360534, Control_c, 0, 64, 70
1, 360549, Control_c, 0, 64, 71
1, 360561, Note_on_c, 0, 46, 69
1, 360623, Control_c, 0, 64, 72
1, 360638, Control_c, 0, 64, 72
1, 360644, Note_off_c, 0, 46, 63
1, 360653, Control_c, 0, 64, 73
1, 360683, Control_c, 0, 64, 73
1, 360688, Note_on_c, 0, 58, 79
1, 360698, Control_c, 0, 64, 74
1, 360713, Control_c, 0, 64, 76
1, 360719, Note_off_c, 0, 58, 61
1, 360727, Control_c, 0, 64, 78
1, 360742, Control_c, 0, 64, 81
1, 360757, Control_c, 0, 64, 85
1, 360769, Note_on_c, 0, 46, 69
1, 360772, Control_c, 0, 64, 88
1, 360787, Control_c, 0, 64, 89
1, 360796, Note_off_c, 0, 46, 65
1, 360816, Control_c, 0, 64, 88
1, 360831, Note_on_c, 0, 39, 81
1, 360831, Control_c, 0, 64, 82
1, 360845, Control_c, 0, 64, 75
1, 360860, Control_c, 0, 64, 67
1, 360874, Note_off_c, 0, 39, 57
1, 360875, Control_c, 0, 64, 61
1, 360890, Control_c, 0, 64, 56
1, 360904, Note_on_c, 0, 46, 72
1, 360905, Control_c, 0, 64, 54
1, 360919, Control_c, 0, 64, 53
1, 360934, Control_c, 0, 64, 52
1, 360942, Note_off_c, 0, 46, 63
1, 360949, Control_c, 0, 64, 51
1, 360964, Control_c, 0, 64, 49
1, 360979, Control_c, 0, 64, 48
1, 360993, Control_c, 0, 64, 47
1, 361006, Note_on_c, 0, 38, 63
1, 361031, Note_off_c, 0, 38, 53
1, 361047, Note_off_c, 0, 69, 56
1, 361055, Note_on_c, 0, 39, 71
1, 361061, Note_off_c, 0, 60, 59
1, 361067, Control_c, 0, 64, 48
1, 361081, Note_off_c, 0, 72, 54
1, 361082, Note_off_c, 0, 39, 66
1, 361082, Control_c, 0, 64, 49
1, 361097, Control_c, 0, 64, 51
1, 361112, Control_c, 0, 64, 52
1, 361127, Control_c, 0, 64, 53
1, 361133, Note_on_c, 0, 39, 81
1, 361142, Control_c, 0, 64, 53
1, 361157, Control_c, 0, 64, 54
1, 361171, Note_off_c, 0, 39, 58
1, 361172, Control_c, 0, 64, 56
1, 361187, Control_c, 0, 64, 59
1, 361202, Control_c, 0, 64, 60
1, 361204, Note_on_c, 0, 38, 59
1, 361216, Control_c, 0, 64, 62
1, 361231, Control_c, 0, 64, 63
1, 361254, Control_c, 0, 64, 65
1, 361258, Note_off_c, 0, 38, 63
1, 361264, Note_on_c, 0, 40, 60
1, 361269, Control_c, 0, 64, 68
1, 361283, Control_c, 0, 64, 70
1, 361289, Note_off_c, 0, 40, 61
1, 361298, Control_c, 0, 64, 71
1, 361309, Note_on_c, 0, 44, 70
1, 361313, Control_c, 0, 64, 71
1, 361321, Note_on_c, 0, 58, 86
1, 361325, Note_on_c, 0, 70, 70
1, 361328, Control_c, 0, 64, 67
1, 361330, Note_off_c, 0, 44, 54
1, 361341, Note_off_c, 0, 58, 70
1, 361342, Note_on_c, 0, 68, 47
1, 361342, Note_off_c, 0, 70, 67
1, 361343, Control_c, 0, 64, 61
1, 361357, Control_c, 0, 64, 52
1, 361366, Note_off_c, 0, 68, 54
1, 361372, Control_c, 0, 64, 44
1, 361382, Note_on_c, 0, 69, 77
1, 361387, Control_c, 0, 64, 41
1, 361389, Note_on_c, 0, 61, 85
1, 361389, Note_on_c, 0, 73, 80
1, 361395, Note_on_c, 0, 46, 82
1, 361402, Control_c, 0, 64, 40
1, 361410, Note_off_c, 0, 73, 65
1, 361414, Note_off_c, 0, 61, 64
1, 361428, Note_off_c, 0, 69, 59
1, 361431, Control_c, 0, 64, 41
1, 361446, Control_c, 0, 64, 44
1, 361461, Control_c, 0, 64, 46
1, 361472, Note_on_c, 0, 54, 69
1, 361476, Control_c, 0, 64, 46
1, 361485, Note_off_c, 0, 46, 60
1, 361491, Control_c, 0, 64, 46
1, 361500, Note_off_c, 0, 54, 67
1, 361505, Control_c, 0, 64, 45
1, 361520, Control_c, 0, 64, 44
1, 361526, Note_on_c, 0, 58, 76
1, 361535, Control_c, 0, 64, 41
1, 361547, Note_off_c, 0, 58, 67
1, 361550, Control_c, 0, 64, 35
1, 361565, Control_c, 0, 64, 20
1, 361580, Control_c, 0, 64, 0
1, 361583, Note_on_c, 0, 70, 71
1, 361596, Note_on_c, 0, 46, 74
1, 361596, Note_on_c, 0, 58, 58
1, 361597, Note_off_c, 0, 58, 127
1, 361610, Note_off_c, 0, 70, 65
1, 361614, Note_on_c, 0, 69, 38
1, 361633, Note_off_c, 0, 46, 66
1, 361646, Note_on_c, 0, 74, 90
1, 361646, Note_on_c, 0, 62, 92
1, 361650, Note_on_c, 0, 39, 81
1, 361654, Control_c, 0, 64, 15
1, 361668, Control_c, 0, 64, 41
1, 361683, Control_c, 0, 64, 58
1, 361690, Note_on_c, 0, 38, 41
1, 361698, Control_c, 0, 64, 65
1, 361713, Control_c, 0, 64, 68
1, 361714, Note_off_c, 0, 74, 63
1, 361717, Note_off_c, 0, 39, 62
1, 361722, Note_on_c, 0, 46, 75
1, 361726, Note_off_c, 0, 38, 34
1, 361728, Control_c, 0, 64, 73
1, 361741, Note_off_c, 0, 62, 61
1, 361742, Control_c, 0, 64, 81
1, 361748, Note_off_c, 0, 46, 67
1, 361757, Control_c, 0, 64, 90
1, 361772, Control_c, 0, 64, 103
1, 361786, Control_c, 0, 64, 127
1, 361826, Note_on_c, 0, 46, 69
1, 361843, Note_off_c, 0, 69, 49
1, 361893, Note_on_c, 0, 54, 72
1, 361905, Note_off_c, 0, 46, 57
1, 361925, Note_off_c, 0, 54, 65
1, 361956, Note_on_c, 0, 58, 67
1, 361984, Note_off_c, 0, 58, 65
1, 362027, Note_on_c, 0, 70, 79
1, 362040, Note_on_c, 0, 46, 69
1, 362070, Note_on_c, 0, 66, 57
1, 362075, Note_off_c, 0, 46, 60
1, 362087, Note_on_c, 0, 58, 70
1, 362114, Note_off_c, 0, 58, 64
1, 362116, Note_off_c, 0, 66, 57
1, 362120, Note_off_c, 0, 70, 60
1, 362120, Control_c, 0, 64, 84
1, 362135, Control_c, 0, 64, 61
1, 362150, Control_c, 0, 64, 28
1, 362165, Control_c, 0, 64, 0
1, 362179, Note_on_c, 0, 39, 77
1, 362194, Control_c, 0, 64, 12
1, 362209, Control_c, 0, 64, 43
1, 362224, Control_c, 0, 64, 59
1, 362239, Control_c, 0, 64, 66
1, 362254, Control_c, 0, 64, 71
1, 362254, Note_off_c, 0, 39, 56
1, 362269, Control_c, 0, 64, 78
1, 362275, Note_on_c, 0, 51, 61
1, 362284, Control_c, 0, 64, 89
1, 362298, Control_c, 0, 64, 107
1, 362311, Note_off_c, 0, 51, 63
1, 362313, Control_c, 0, 64, 127
1, 362391, Note_on_c, 0, 77, 68
1, 362402, Note_on_c, 0, 73, 51
1, 362403, Note_on_c, 0, 54, 52
1, 362406, Note_on_c, 0, 65, 58
1, 362412, Note_on_c, 0, 69, 49
1, 362443, Note_off_c, 0, 54, 63
1, 362505, Note_on_c, 0, 61, 53
1, 362532, Note_off_c, 0, 61, 63
1, 362561, Note_on_c, 0, 54, 60
1, 362591, Note_off_c, 0, 54, 67
1, 362650, Note_on_c, 0, 51, 68
1, 362681, Note_off_c, 0, 51, 64
1, 362717, Note_on_c, 0, 39, 74
1, 362774, Note_off_c, 0, 39, 61
1, 362782, Note_on_c, 0, 51, 67
1, 362811, Note_off_c, 0, 51, 66
1, 362874, Note_on_c, 0, 54, 70
1, 362905, Note_off_c, 0, 54, 67
1, 362935, Note_off_c, 0, 77, 0
1, 362948, Note_on_c, 0, 61, 71
1, 362980, Note_off_c, 0, 61, 63
1, 362984, Poly_aftertouch_c, 0, 77, 0
1, 362993, Note_off_c, 0, 69, 31
1, 363008, Note_on_c, 0, 54, 72
1, 363011, Note_off_c, 0, 73, 35
1, 363015, Note_off_c, 0, 65, 56
1, 363034, Note_off_c, 0, 54, 67
1, 363099, Note_on_c, 0, 51, 76
1, 363141, Note_off_c, 0, 51, 62
1, 363166, Note_on_c, 0, 39, 91
1, 363188, Note_on_c, 0, 63, 70
1, 363193, Note_on_c, 0, 75, 62
1, 363195, Note_on_c, 0, 51, 65
1, 363197, Note_on_c, 0, 69, 62
1, 363199, Note_off_c, 0, 39, 65
1, 363204, Note_on_c, 0, 73, 59
1, 363206, Note_off_c, 0, 63, 63
1, 363217, Note_off_c, 0, 69, 63
1, 363217, Note_off_c, 0, 75, 65
1, 363223, Note_off_c, 0, 51, 65
1, 363229, Note_off_c, 0, 73, 66
1, 363252, Note_on_c, 0, 64, 5
1, 363254, Note_on_c, 0, 77, 87
1, 363255, Note_on_c, 0, 65, 85
1, 363260, Note_on_c, 0, 70, 60
1, 363283, Note_on_c, 0, 54, 66
1, 363286, Note_off_c, 0, 70, 65
1, 363289, Note_off_c, 0, 64, 33
1, 363302, Note_off_c, 0, 54, 62
1, 363302, Note_off_c, 0, 77, 62
1, 363308, Note_off_c, 0, 65, 61
1, 363335, Note_on_c, 0, 61, 76
1, 363374, Poly_aftertouch_c, 0, 73, 0
1, 363386, Note_off_c, 0, 61, 64
1, 363408, Note_on_c, 0, 54, 23
1, 363418, Poly_aftertouch_c, 0, 73, 0
1, 363432, Note_on_c, 0, 53, 55
1, 363439, Note_off_c, 0, 54, 58
1, 363441, Poly_aftertouch_c, 0, 73, 0
1, 363447, Note_on_c, 0, 78, 82
1, 363450, Note_on_c, 0, 66, 84
1, 363455, Note_off_c, 0, 53, 54
1, 363464, Note_on_c, 0, 72, 56
1, 363466, Note_off_c, 0, 78, 70
1, 363468, Note_off_c, 0, 66, 66
1, 363476, Note_on_c, 0, 68, 41
1, 363476, Control_c, 0, 64, 77
1, 363491, Note_off_c, 0, 72, 61
1, 363499, Control_c, 0, 64, 57
1, 363512, Note_off_c, 0, 68, 0
1, 363512, Note_on_c, 0, 68, 63
1, 363513, Poly_aftertouch_c, 0, 73, 0
1, 363513, Control_c, 0, 64, 52
1, 363518, Note_on_c, 0, 80, 90
1, 363521, Note_on_c, 0, 75, 85
1, 363524, Note_on_c, 0, 73, 35
1, 363525, Note_off_c, 0, 73, 127
1, 363528, Note_on_c, 0, 35, 90
1, 363528, Control_c, 0, 64, 64
1, 363535, Note_on_c, 0, 72, 64
1, 363543, Control_c, 0, 64, 79
1, 363554, Note_on_c, 0, 36, 54
1, 363556, Note_off_c, 0, 35, 68
1, 363558, Control_c, 0, 64, 111
1, 363574, Control_c, 0, 64, 127
1, 363575, Note_off_c, 0, 80, 64
1, 363588, Note_off_c, 0, 36, 61
1, 363592, Note_off_c, 0, 68, 63
1, 363641, Note_off_c, 0, 75, 59
1, 363653, Note_off_c, 0, 72, 38
1, 363659, Note_on_c, 0, 51, 68
1, 363690, Note_off_c, 0, 51, 64
1, 363724, Note_on_c, 0, 57, 69
1, 363766, Note_off_c, 0, 57, 63
1, 363825, Note_on_c, 0, 51, 40
1, 363833, Note_on_c, 0, 75, 74
1, 363835, Note_on_c, 0, 63, 73
1, 363869, Note_off_c, 0, 75, 51
1, 363881, Note_off_c, 0, 51, 0
1, 363881, Note_on_c, 0, 51, 54
1, 363884, Note_off_c, 0, 63, 61
1, 363922, Note_off_c, 0, 51, 63
1, 363929, Control_c, 0, 64, 80
1, 363944, Control_c, 0, 64, 45
1, 363956, Note_on_c, 0, 39, 94
1, 363959, Control_c, 0, 64, 0
1, 363988, Control_c, 0, 64, 42
1, 364003, Note_off_c, 0, 39, 61
1, 364003, Control_c, 0, 64, 64
1, 364018, Control_c, 0, 64, 74
1, 364021, Note_on_c, 0, 51, 77
1, 364033, Control_c, 0, 64, 85
1, 364046, Note_off_c, 0, 51, 67
1, 364048, Control_c, 0, 64, 107
1, 364049, Note_on_c, 0, 77, 89
1, 364054, Note_on_c, 0, 65, 81
1, 364054, Note_on_c, 0, 69, 78
1, 364056, Note_on_c, 0, 73, 80
1, 364062, Control_c, 0, 64, 127
1, 364120, Note_on_c, 0, 54, 52
1, 364143, Note_off_c, 0, 54, 64
1, 364191, Note_on_c, 0, 61, 68
1, 364218, Note_off_c, 0, 61, 67
1, 364254, Note_on_c, 0, 54, 67
1, 364287, Note_off_c, 0, 54, 65
1, 364334, Note_on_c, 0, 51, 77
1, 364383, Note_off_c, 0, 51, 62
1, 364409, Note_on_c, 0, 39, 100
1, 364452, Note_off_c, 0, 39, 61
1, 364466, Note_on_c, 0, 51, 73
1, 364486, Note_off_c, 0, 51, 70
1, 364552, Note_on_c, 0, 54, 74
1, 364588, Note_off_c, 0, 54, 64
1, 364621, Note_on_c, 0, 61, 85
1, 364668, Note_off_c, 0, 61, 63
1, 364680, Note_off_c, 0, 69, 56
1, 364689, Note_off_c, 0, 73, 55
1, 364694, Note_off_c, 0, 77, 33
1, 364701, Note_on_c, 0, 54, 74
1, 364725, Note_off_c, 0, 54, 70
1, 364737, Note_off_c, 0, 65, 54
1, 364761, Note_on_c, 0, 51, 88
1, 364817, Note_off_c, 0, 51, 63
1, 364847, Note_on_c, 0, 39, 105
1, 364874, Note_on_c, 0, 51, 87
1, 364889, Note_off_c, 0, 39, 65
1, 364890, Note_on_c, 0, 63, 93
1, 364892, Note_on_c, 0, 49, 45
1, 364893, Note_off_c, 0, 49, 127
1, 364893, Note_on_c, 0, 68, 69
1, 364895, Note_on_c, 0, 75, 76
1, 364902, Note_off_c, 0, 51, 66
1, 364911, Note_off_c, 0, 68, 67
1, 364914, Note_on_c, 0, 73, 61
1, 364915, Note_on_c, 0, 69, 59
1, 364917, Note_off_c, 0, 75, 67
1, 364918, Note_off_c, 0, 63, 63
1, 364923, Poly_aftertouch_c, 0, 49, 0
1, 364932, Note_off_c, 0, 73, 66
1, 364933, Note_off_c, 0, 69, 63
1, 364965, Note_on_c, 0, 77, 94
1, 364968, Note_on_c, 0, 65, 92
1, 364969, Note_on_c, 0, 54, 82
1, 364969, Note_on_c, 0, 73, 74
1, 364983, Note_on_c, 0, 64, 56
1, 364984, Note_off_c, 0, 64, 127
1, 365000, Note_off_c, 0, 73, 67
1, 365014, Note_off_c, 0, 54, 58
1, 365030, Note_on_c, 0, 61, 87
1, 365036, Note_off_c, 0, 77, 64
1, 365041, Note_off_c, 0, 65, 53
1, 365068, Poly_aftertouch_c, 0, 70, 0
1, 365083, Poly_aftertouch_c, 0, 75, 0
1, 365118, Note_off_c, 0, 61, 64
1, 365133, Note_on_c, 0, 54, 72
1, 365154, Note_on_c, 0, 53, 66
1, 365160, Note_off_c, 0, 54, 67
1, 365183, Note_off_c, 0, 53, 66
1, 365192, Note_on_c, 0, 66, 97
1, 365196, Note_on_c, 0, 52, 19
1, 365196, Note_on_c, 0, 78, 82
1, 365199, Note_on_c, 0, 72, 73
1, 365211, Note_off_c, 0, 66, 67
1, 365219, Note_off_c, 0, 78, 61
1, 365220, Control_c, 0, 64, 79
1, 365221, Note_off_c, 0, 72, 65
1, 365235, Note_off_c, 0, 52, 32
1, 365235, Control_c, 0, 64, 47
1, 365250, Control_c, 0, 64, 0
1, 365256, Note_on_c, 0, 68, 100
1, 365257, Note_on_c, 0, 80, 97
1, 365264, Control_c, 0, 64, 41
1, 365268, Note_on_c, 0, 73, 66
1, 365269, Note_on_c, 0, 75, 60
1, 365270, Note_on_c, 0, 72, 84
1, 365273, Note_on_c, 0, 35, 104
1, 365279, Control_c, 0, 64, 64
1, 365280, Note_on_c, 0, 36, 83
1, 365281, Note_off_c, 0, 36, 127
1, 365286, Note_off_c, 0, 73, 67
1, 365291, Note_on_c, 0, 78, 48
1, 365294, Note_on_c, 0, 76, 53
1, 365294, Control_c, 0, 64, 78
1, 365309, Control_c, 0, 64, 127
1, 365315, Note_off_c, 0, 78, 56
1, 365317, Note_off_c, 0, 76, 56
1, 365323, Note_off_c, 0, 35, 62
1, 365323, Note_off_c, 0, 72, 57
1, 365341, Note_off_c, 0, 75, 57
1, 365414, Note_on_c, 0, 51, 89
1, 365432, Note_off_c, 0, 68, 64
1, 365453, Note_off_c, 0, 80, 58
1, 365458, Note_off_c, 0, 51, 64
1, 365496, Note_on_c, 0, 57, 87
1, 365518, Poly_aftertouch_c, 0, 49, 0
1, 365544, Note_off_c, 0, 57, 65
1, 365577, Note_on_c, 0, 51, 88
1, 365586, Note_on_c, 0, 75, 86
1, 365587, Note_on_c, 0, 69, 100
1, 365588, Note_on_c, 0, 81, 101
1, 365594, Note_on_c, 0, 71, 82
1, 365598, Note_on_c, 0, 72, 82
1, 365611, Note_on_c, 0, 77, 55
1, 365618, Note_off_c, 0, 51, 64
1, 365619, Note_off_c, 0, 72, 70
1, 365622, Note_off_c, 0, 71, 54
1, 365627, Note_off_c, 0, 75, 65
1, 365627, Note_off_c, 0, 69, 67
1, 365634, Note_off_c, 0, 77, 62
1, 365662, Note_off_c, 0, 81, 62
1, 365680, Note_on_c, 0, 49, 73
1, 365694, Note_on_c, 0, 51, 53
1, 365709, Note_off_c, 0, 51, 63
1, 365711, Note_off_c, 0, 49, 66
1, 365775, Control_c, 0, 64, 100
1, 365790, Control_c, 0, 64, 63
1, 365803, Note_on_c, 0, 33, 112
1, 365805, Control_c, 0, 64, 40
1, 365820, Control_c, 0, 64, 48
1, 365835, Control_c, 0, 64, 63
1, 365849, Control_c, 0, 64, 79
1, 365852, Note_on_c, 0, 31, 22
1, 365853, Note_off_c, 0, 31, 127
1, 365860, Note_off_c, 0, 33, 64
1, 365864, Control_c, 0, 64, 108
1, 365879, Control_c, 0, 64, 127
1, 365892, Poly_aftertouch_c, 0, 31, 0
1, 365977, Note_on_c, 0, 84, 95
1, 365977, Note_on_c, 0, 93, 100
1, 365979, Note_on_c, 0, 81, 101
1, 365980, Note_on_c, 0, 52, 83
1, 365999, Note_off_c, 0, 84, 67
1, 366004, Note_off_c, 0, 93, 69
1, 366011, Note_off_c, 0, 52, 60
1, 366014, Note_off_c, 0, 81, 66
1, 366045, Note_on_c, 0, 60, 75
1, 366049, Note_on_c, 0, 59, 69
1, 366073, Note_off_c, 0, 59, 66
1, 366073, Note_off_c, 0, 60, 69
1, 366088, Note_on_c, 0, 52, 77
1, 366116, Note_off_c, 0, 52, 63
1, 366169, Note_on_c, 0, 73, 40
1, 366193, Note_off_c, 0, 73, 53
1, 366194, Note_on_c, 0, 45, 66
1, 366227, Note_off_c, 0, 45, 64
1, 366236, Control_c, 0, 64, 73
1, 366251, Control_c, 0, 64, 43
1, 366252, Note_on_c, 0, 33, 101
1, 366265, Control_c, 0, 64, 0
1, 366289, Note_on_c, 0, 76, 80
1, 366295, Control_c, 0, 64, 48
1, 366299, Note_off_c, 0, 33, 65
1, 366301, Note_on_c, 0, 64, 67
1, 366305, Note_on_c, 0, 65, 60
1, 366310, Control_c, 0, 64, 67
1, 366314, Note_off_c, 0, 76, 66
1, 366320, Note_off_c, 0, 64, 65
1, 366325, Note_off_c, 0, 65, 39
1, 366325, Control_c, 0, 64, 78
1, 366339, Control_c, 0, 64, 93
1, 366352, Note_on_c, 0, 78, 91
1, 366354, Note_on_c, 0, 66, 100
1, 366354, Control_c, 0, 64, 117
1, 366358, Note_on_c, 0, 75, 88
1, 366369, Control_c, 0, 64, 127
1, 366376, Note_off_c, 0, 78, 62
1, 366381, Note_off_c, 0, 75, 66
1, 366389, Note_off_c, 0, 66, 60
1, 366391, Note_on_c, 0, 52, 76
1, 366421, Note_off_c, 0, 52, 63
1, 366449, Note_on_c, 0, 60, 77
1, 366492, Note_off_c, 0, 60, 64
1, 366516, Note_on_c, 0, 52, 69
1, 366541, Note_off_c, 0, 52, 67
1, 366615, Note_on_c, 0, 45, 82
1, 366657, Control_c, 0, 64, 86
1, 366670, Note_off_c, 0, 45, 63
1, 366671, Control_c, 0, 64, 54
1, 366684, Note_on_c, 0, 33, 89
1, 366686, Control_c, 0, 64, 0
1, 366731, Note_on_c, 0, 60, 82
1, 366731, Note_off_c, 0, 33, 65
1, 366731, Control_c, 0, 64, 43
1, 366731, Note_on_c, 0, 64, 84
1, 366737, Note_on_c, 0, 45, 68
1, 366746, Control_c, 0, 64, 64
1, 366756, Note_off_c, 0, 60, 67
1, 366761, Control_c, 0, 64, 76
1, 366770, Note_off_c, 0, 45, 65
1, 366776, Control_c, 0, 64, 90
1, 366791, Note_off_c, 0, 64, 59
1, 366791, Control_c, 0, 64, 127
1, 366796, Note_on_c, 0, 66, 87
1, 366799, Note_on_c, 0, 54, 91
1, 366811, Note_on_c, 0, 63, 73
1, 366838, Note_on_c, 0, 52, 70
1, 366874, Note_off_c, 0, 52, 60
1, 366914, Note_on_c, 0, 60, 74
1, 366936, Note_off_c, 0, 60, 69
1, 366975, Note_on_c, 0, 52, 50
1, 366987, Note_on_c, 0, 53, 45
1, 367001, Note_off_c, 0, 52, 63
1, 367014, Note_off_c, 0, 53, 47
1, 367056, Note_on_c, 0, 45, 80
1, 367110, Note_off_c, 0, 45, 64
1, 367127, Note_on_c, 0, 33, 90
1, 367176, Note_off_c, 0, 33, 62
1, 367187, Note_on_c, 0, 45, 72
1, 367204, Note_off_c, 0, 54, 61
1, 367205, Note_off_c, 0, 45, 65
1, 367250, Note_off_c, 0, 63, 61
1, 367274, Note_off_c, 0, 66, 62
1, 367293, Note_on_c, 0, 52, 71
1, 367349, Note_off_c, 0, 52, 60
1, 367363, Note_on_c, 0, 60, 85
1, 367391, Poly_aftertouch_c, 0, 50, 0
1, 367406, Note_on_c, 0, 59, 31
1, 367409, Note_off_c, 0, 60, 64
1, 367425, Note_on_c, 0, 52, 76
1, 367442, Note_off_c, 0, 59, 40
1, 367452, Note_off_c, 0, 52, 67
1, 367512, Note_on_c, 0, 45, 85
1, 367550, Note_off_c, 0, 45, 63
1, 367569, Note_on_c, 0, 33, 108
1, 367589, Note_on_c, 0, 35, 63
1, 367606, Note_on_c, 0, 76, 98
1, 367607, Note_on_c, 0, 88, 88
1, 367607, Note_off_c, 0, 33, 66
1, 367615, Note_off_c, 0, 35, 60
1, 367637, Note_off_c, 0, 76, 62
1, 367644, Note_off_c, 0, 88, 66
1, 367648, Note_on_c, 0, 87, 28
1, 367649, Note_off_c, 0, 87, 127
1, 367685, Note_on_c, 0, 87, 75
1, 367689, Note_on_c, 0, 78, 106
1, 367691, Note_on_c, 0, 90, 92
1, 367704, Note_on_c, 0, 52, 81
1, 367748, Note_off_c, 0, 78, 55
1, 367756, Note_on_c, 0, 59, 56
1, 367756, Note_off_c, 0, 52, 60
1, 367789, Note_off_c, 0, 90, 62
1, 367798, Note_off_c, 0, 59, 65
1, 367830, Note_on_c, 0, 52, 69
1, 367837, Note_on_c, 0, 50, 62
1, 367864, Note_off_c, 0, 52, 65
1, 367870, Note_off_c, 0, 50, 65
1, 367872, Note_on_c, 0, 48, 29
1, 367900, Note_off_c, 0, 87, 60
1, 367911, Note_off_c, 0, 48, 32
1, 367921, Note_on_c, 0, 80, 96
1, 367926, Note_on_c, 0, 84, 80
1, 367926, Note_on_c, 0, 92, 92
1, 367934, Note_on_c, 0, 44, 89
1, 367948, Note_on_c, 0, 45, 80
1, 367949, Note_off_c, 0, 84, 66
1, 367963, Note_off_c, 0, 45, 66
1, 367970, Control_c, 0, 64, 88
1, 367971, Note_off_c, 0, 92, 60
1, 367983, Note_off_c, 0, 80, 64
1, 367992, Control_c, 0, 64, 59
1, 367994, Note_off_c, 0, 44, 64
1, 368007, Control_c, 0, 64, 36
1, 368022, Control_c, 0, 64, 50
1, 368029, Note_on_c, 0, 32, 125
1, 368037, Control_c, 0, 64, 67
1, 368052, Control_c, 0, 64, 85
1, 368066, Control_c, 0, 64, 127
1, 368070, Note_off_c, 0, 32, 67
1, 368079, Note_on_c, 0, 44, 81
1, 368106, Note_on_c, 0, 81, 107
1, 368106, Note_off_c, 0, 44, 66
1, 368114, Note_on_c, 0, 93, 92
1, 368128, Note_off_c, 0, 93, 75
1, 368129, Note_on_c, 0, 90, 62
1, 368135, Note_off_c, 0, 81, 69
1, 368145, Note_off_c, 0, 90, 65
1, 368176, Note_on_c, 0, 95, 95
1, 368177, Note_on_c, 0, 83, 110
1, 368178, Note_on_c, 0, 90, 100
1, 368178, Note_on_c, 0, 91, 23
1, 368179, Note_off_c, 0, 91, 127
1, 368185, Note_on_c, 0, 54, 85
1, 368205, Note_on_c, 0, 93, 56
1, 368210, Poly_aftertouch_c, 0, 87, 0
1, 368220, Note_on_c, 0, 60, 82
1, 368224, Note_off_c, 0, 54, 59
1, 368226, Note_off_c, 0, 93, 61
1, 368259, Note_on_c, 0, 92, 5
1, 368260, Note_off_c, 0, 92, 127
1, 368264, Note_off_c, 0, 95, 55
1, 368265, Note_off_c, 0, 83, 56
1, 368283, Note_off_c, 0, 60, 66
1, 368309, Note_on_c, 0, 54, 90
1, 368310, Note_off_c, 0, 90, 60
1, 368331, Note_off_c, 0, 54, 70
1, 368429, Note_on_c, 0, 44, 103
1, 368439, Note_on_c, 0, 96, 101
1, 368442, Note_on_c, 0, 84, 104
1, 368445, Note_on_c, 0, 93, 102
1, 368475, Note_off_c, 0, 93, 63
1, 368484, Note_off_c, 0, 44, 64
1, 368527, Note_off_c, 0, 84, 57
1, 368527, Control_c, 0, 64, 96
1, 368541, Control_c, 0, 64, 59
1, 368555, Note_off_c, 0, 96, 52
1, 368556, Control_c, 0, 64, 0
1, 368585, Control_c, 0, 64, 31
1, 368590, Note_on_c, 0, 30, 121
1, 368600, Control_c, 0, 64, 57
1, 368615, Control_c, 0, 64, 70
1, 368630, Control_c, 0, 64, 81
1, 368641, Note_off_c, 0, 30, 64
1, 368645, Control_c, 0, 64, 99
1, 368657, Note_on_c, 0, 85, 109
1, 368660, Control_c, 0, 64, 127
1, 368662, Note_on_c, 0, 42, 63
1, 368662, Note_on_c, 0, 97, 97
1, 368664, Note_on_c, 0, 94, 89
1, 368665, Note_on_c, 0, 90, 78
1, 368678, Note_off_c, 0, 97, 74
1, 368680, Poly_aftertouch_c, 0, 27, 0
1, 368681, Note_off_c, 0, 94, 72
1, 368685, Note_off_c, 0, 90, 69
1, 368687, Note_off_c, 0, 42, 53
1, 368689, Note_off_c, 0, 85, 57
1, 368718, Note_on_c, 0, 90, 86
1, 368719, Note_on_c, 0, 98, 95
1, 368731, Note_on_c, 0, 84, 88
1, 368732, Note_on_c, 0, 49, 100
1, 368734, Note_on_c, 0, 86, 86
1, 368734, Note_on_c, 0, 96, 91
1, 368752, Note_off_c, 0, 86, 64
1, 368756, Note_off_c, 0, 96, 64
1, 368758, Note_off_c, 0, 90, 67
1, 368758, Note_on_c, 0, 93, 43
1, 368759, Note_off_c, 0, 98, 66
1, 368770, Note_off_c, 0, 84, 65
1, 368778, Note_off_c, 0, 49, 65
1, 368784, Note_off_c, 0, 93, 39
1, 368808, Note_on_c, 0, 58, 88
1, 368850, Note_off_c, 0, 58, 64
1, 368868, Note_on_c, 0, 49, 89
1, 368895, Note_off_c, 0, 49, 68
1, 368961, Note_on_c, 0, 73, 114
1, 368964, Control_c, 0, 64, 87
1, 368969, Note_on_c, 0, 42, 84
1, 368969, Note_on_c, 0, 82, 88
1, 368969, Note_on_c, 0, 85, 88
1, 368975, Note_on_c, 0, 78, 75
1, 368979, Control_c, 0, 64, 56
1, 368979, Note_off_c, 0, 73, 65
1, 368987, Note_off_c, 0, 85, 65
1, 368988, Note_off_c, 0, 82, 68
1, 368991, Note_off_c, 0, 78, 60
1, 368993, Control_c, 0, 64, 10
1, 368999, Note_off_c, 0, 42, 67
1, 369008, Control_c, 0, 64, 31
1, 369021, Note_on_c, 0, 86, 95
1, 369023, Control_c, 0, 64, 61
1, 369024, Note_on_c, 0, 74, 90
1, 369025, Note_on_c, 0, 78, 98
1, 369026, Note_on_c, 0, 30, 101
1, 369028, Note_on_c, 0, 72, 90
1, 369031, Note_on_c, 0, 82, 93
1, 369038, Control_c, 0, 64, 75
1, 369043, Note_on_c, 0, 29, 70
1, 369046, Note_off_c, 0, 82, 73
1, 369053, Control_c, 0, 64, 86
1, 369056, Note_off_c, 0, 86, 67
1, 369062, Note_off_c, 0, 78, 63
1, 369064, Note_on_c, 0, 42, 82
1, 369067, Note_off_c, 0, 29, 59
1, 369067, Control_c, 0, 64, 93
1, 369071, Note_off_c, 0, 74, 62
1, 369072, Note_off_c, 0, 72, 60
1, 369074, Note_on_c, 0, 85, 3
1, 369075, Note_off_c, 0, 85, 127
1, 369075, Note_off_c, 0, 30, 64
1, 369082, Control_c, 0, 64, 95
1, 369095, Note_off_c, 0, 42, 64
1, 369097, Control_c, 0, 64, 95
1, 369111, Control_c, 0, 64, 96
1, 369126, Control_c, 0, 64, 97
1, 369141, Control_c, 0, 64, 98
1, 369157, Control_c, 0, 64, 98
1, 369172, Control_c, 0, 64, 99
1, 369177, Note_on_c, 0, 49, 67
1, 369187, Control_c, 0, 64, 101
1, 369201, Control_c, 0, 64, 106
1, 369205, Note_off_c, 0, 49, 65
1, 369216, Control_c, 0, 64, 115
1, 369227, Note_on_c, 0, 58, 78
1, 369231, Control_c, 0, 64, 127
1, 369261, Note_off_c, 0, 58, 62
1, 369292, Note_on_c, 0, 49, 84
1, 369313, Note_off_c, 0, 49, 67
1, 369364, Control_c, 0, 67, 8
1, 369379, Control_c, 0, 67, 9
1, 369387, Note_on_c, 0, 42, 84
1, 369394, Control_c, 0, 67, 10
1, 369408, Control_c, 0, 64, 78
1, 369408, Control_c, 0, 67, 11
1, 369422, Control_c, 0, 64, 50
1, 369422, Control_c, 0, 67, 12
1, 369432, Note_off_c, 0, 42, 64
1, 369437, Control_c, 0, 64, 0
1, 369437, Control_c, 0, 67, 12
1, 369448, Note_on_c, 0, 30, 101
1, 369467, Control_c, 0, 67, 12
1, 369485, Note_on_c, 0, 61, 96
1, 369491, Note_on_c, 0, 70, 78
1, 369493, Note_on_c, 0, 42, 62
1, 369493, Note_off_c, 0, 30, 64
1, 369495, Note_on_c, 0, 73, 72
1, 369500, Note_on_c, 0, 66, 64
1, 369500, Note_off_c, 0, 61, 79
1, 369503, Control_c, 0, 64, 47
1, 369503, Control_c, 0, 67, 10
1, 369511, Note_off_c, 0, 42, 65
1, 369512, Note_off_c, 0, 70, 69
1, 369513, Note_off_c, 0, 73, 67
1, 369518, Note_on_c, 0, 62, 47
1, 369518, Note_off_c, 0, 66, 63
1, 369518, Control_c, 0, 64, 63
1, 369518, Control_c, 0, 67, 0
1, 369519, Note_on_c, 0, 60, 47
1, 369533, Control_c, 0, 64, 68
1, 369542, Note_on_c, 0, 74, 94
1, 369544, Note_off_c, 0, 62, 0
1, 369544, Note_on_c, 0, 62, 41
1, 369548, Control_c, 0, 64, 72
1, 369549, Note_on_c, 0, 66, 90
1, 369552, Note_off_c, 0, 60, 0
1, 369552, Note_on_c, 0, 60, 28
1, 369560, Note_on_c, 0, 64, 53
1, 369563, Note_on_c, 0, 70, 69
1, 369563, Control_c, 0, 64, 75
1, 369577, Note_on_c, 0, 61, 16
1, 369578, Control_c, 0, 64, 79
1, 369581, Note_off_c, 0, 66, 65
1, 369581, Note_off_c, 0, 64, 62
1, 369583, Note_off_c, 0, 70, 64
1, 369586, Note_off_c, 0, 74, 68
1, 369587, Note_on_c, 0, 49, 63
1, 369587, Note_on_c, 0, 73, 30
1, 369589, Note_off_c, 0, 60, 59
1, 369590, Note_off_c, 0, 62, 65
1, 369593, Control_c, 0, 64, 82
1, 369607, Control_c, 0, 64, 85
1, 369608, Note_off_c, 0, 61, 44
1, 369610, Note_off_c, 0, 49, 63
1, 369614, Note_off_c, 0, 73, 48
1, 369622, Control_c, 0, 64, 90
1, 369637, Control_c, 0, 64, 98
1, 369640, Note_on_c, 0, 58, 85
1, 369652, Control_c, 0, 64, 103
1, 369664, Note_off_c, 0, 58, 67
1, 369667, Control_c, 0, 64, 106
1, 369681, Control_c, 0, 64, 108
1, 369696, Control_c, 0, 64, 110
1, 369708, Note_on_c, 0, 49, 65
1, 369711, Control_c, 0, 64, 111
1, 369726, Control_c, 0, 67, 8
1, 369731, Note_off_c, 0, 49, 64
1, 369740, Control_c, 0, 64, 110
1, 369740, Control_c, 0, 67, 11
1, 369755, Control_c, 0, 64, 109
1, 369755, Control_c, 0, 67, 13
1, 369770, Control_c, 0, 64, 104
1, 369770, Control_c, 0, 67, 15
1, 369785, Control_c, 0, 64, 99
1, 369785, Control_c, 0, 67, 17
1, 369800, Control_c, 0, 64, 95
1, 369800, Control_c, 0, 67, 19
1, 369811, Note_on_c, 0, 42, 72
1, 369814, Control_c, 0, 64, 92
1, 369814, Control_c, 0, 67, 21
1, 369829, Control_c, 0, 64, 87
1, 369829, Control_c, 0, 67, 22
1, 369844, Control_c, 0, 64, 78
1, 369844, Control_c, 0, 67, 24
1, 369858, Control_c, 0, 64, 67
1, 369858, Control_c, 0, 67, 26
1, 369861, Note_off_c, 0, 42, 60
1, 369873, Control_c, 0, 64, 49
1, 369873, Control_c, 0, 67, 28
1, 369888, Control_c, 0, 64, 0
1, 369888, Control_c, 0, 67, 30
1, 369903, Control_c, 0, 67, 33
1, 369904, Note_on_c, 0, 30, 99
1, 369918, Control_c, 0, 67, 36
1, 369933, Note_on_c, 0, 49, 107
1, 369933, Control_c, 0, 67, 39
1, 369938, Note_on_c, 0, 58, 77
1, 369944, Note_on_c, 0, 54, 77
1, 369948, Control_c, 0, 67, 40
1, 369949, Note_on_c, 0, 61, 59
1, 369949, Note_off_c, 0, 49, 71
1, 369953, Note_off_c, 0, 30, 63
1, 369962, Note_off_c, 0, 58, 67
1, 369963, Control_c, 0, 67, 41
1, 369964, Note_off_c, 0, 54, 63
1, 369991, Note_on_c, 0, 39, 59
1, 369993, Control_c, 0, 67, 41
1, 369995, Note_on_c, 0, 50, 74
1, 369995, Note_on_c, 0, 62, 91
1, 369995, Note_on_c, 0, 48, 84
1, 370001, Note_on_c, 0, 49, 45
1, 370001, Note_on_c, 0, 54, 87
1, 370008, Note_on_c, 0, 52, 77
1, 370008, Control_c, 0, 64, 43
1, 370008, Control_c, 0, 67, 42
1, 370011, Note_on_c, 0, 58, 70
1, 370015, Note_off_c, 0, 39, 63
1, 370018, Note_off_c, 0, 49, 47
1, 370022, Note_off_c, 0, 61, 0
1, 370022, Control_c, 0, 64, 58
1, 370022, Control_c, 0, 67, 43
1, 370028, Note_off_c, 0, 52, 40
1, 370029, Note_on_c, 0, 61, 12
1, 370037, Control_c, 0, 64, 61
1, 370037, Control_c, 0, 67, 43
1, 370039, Note_off_c, 0, 58, 66
1, 370043, Note_on_c, 0, 37, 73
1, 370044, Note_off_c, 0, 54, 62
1, 370045, Note_off_c, 0, 48, 58
1, 370048, Note_off_c, 0, 62, 66
1, 370050, Note_off_c, 0, 50, 63
1, 370052, Control_c, 0, 64, 64
1, 370067, Control_c, 0, 64, 66
1, 370069, Note_off_c, 0, 61, 38
1, 370082, Control_c, 0, 64, 70
1, 370082, Control_c, 0, 67, 45
1, 370089, Note_off_c, 0, 37, 62
1, 370097, Control_c, 0, 64, 74
1, 370097, Control_c, 0, 67, 47
1, 370111, Control_c, 0, 64, 80
1, 370111, Control_c, 0, 67, 50
1, 370126, Control_c, 0, 64, 85
1, 370126, Control_c, 0, 67, 53
1, 370138, Note_on_c, 0, 46, 78
1, 370141, Control_c, 0, 64, 90
1, 370141, Control_c, 0, 67, 57
1, 370156, Control_c, 0, 64, 94
1, 370156, Control_c, 0, 67, 63
1, 370171, Control_c, 0, 64, 99
1, 370171, Control_c, 0, 67, 69
1, 370179, Note_off_c, 0, 46, 57
1, 370186, Control_c, 0, 64, 112
1, 370186, Control_c, 0, 67, 75
1, 370201, Control_c, 0, 64, 127
1, 370201, Control_c, 0, 67, 81
1, 370203, Note_on_c, 0, 37, 76
1, 370216, Control_c, 0, 67, 85
1, 370237, Control_c, 0, 67, 87
1, 370243, Note_off_c, 0, 37, 65
1, 370252, Control_c, 0, 67, 88
1, 370267, Control_c, 0, 67, 90
1, 370281, Control_c, 0, 67, 94
1, 370290, Note_on_c, 0, 37, 70
1, 370296, Control_c, 0, 64, 91
1, 370296, Control_c, 0, 67, 99
1, 370311, Control_c, 0, 64, 68
1, 370311, Control_c, 0, 67, 104
1, 370326, Control_c, 0, 64, 41
1, 370326, Control_c, 0, 67, 110
1, 370332, Note_off_c, 0, 37, 62
1, 370341, Control_c, 0, 64, 0
1, 370341, Control_c, 0, 67, 116
1, 370355, Note_on_c, 0, 30, 97
1, 370356, Control_c, 0, 67, 122
1, 370371, Control_c, 0, 67, 127
1, 370407, Note_off_c, 0, 30, 60
1, 370417, Note_on_c, 0, 37, 75
1, 370441, Note_off_c, 0, 37, 67
1, 370490, Note_on_c, 0, 37, 82
1, 370539, Note_off_c, 0, 37, 62
1, 370579, Note_on_c, 0, 46, 80
1, 370621, Note_off_c, 0, 46, 61
1, 370640, Note_on_c, 0, 37, 78
1, 370682, Note_off_c, 0, 37, 63
1, 370728, Note_on_c, 0, 37, 72
1, 370767, Note_off_c, 0, 37, 65
1, 370794, Note_on_c, 0, 30, 86
1, 370837, Note_off_c, 0, 30, 59
1, 370852, Note_on_c, 0, 37, 76
1, 370877, Note_off_c, 0, 37, 67
1, 370925, Note_on_c, 0, 37, 84
1, 370954, Note_off_c, 0, 37, 66
1, 370987, Control_c, 0, 64, 8
1, 371002, Control_c, 0, 64, 21
1, 371010, Note_on_c, 0, 46, 80
1, 371017, Control_c, 0, 64, 32
1, 371032, Control_c, 0, 64, 41
1, 371047, Control_c, 0, 64, 48
1, 371049, Note_off_c, 0, 46, 66
1, 371061, Control_c, 0, 64, 51
1, 371072, Note_on_c, 0, 37, 73
1, 371076, Control_c, 0, 64, 53
1, 371091, Control_c, 0, 64, 55
1, 371105, Control_c, 0, 64, 57
1, 371107, Note_off_c, 0, 37, 67
1, 371120, Control_c, 0, 64, 60
1, 371135, Control_c, 0, 64, 62
1, 371150, Control_c, 0, 64, 64
1, 371155, Note_on_c, 0, 37, 72
1, 371165, Control_c, 0, 64, 67
1, 371179, Control_c, 0, 64, 71
1, 371194, Control_c, 0, 64, 74
1, 371196, Note_off_c, 0, 37, 61
1, 371209, Control_c, 0, 64, 75
1, 371226, Note_on_c, 0, 30, 88
1, 371239, Control_c, 0, 64, 74
1, 371253, Control_c, 0, 64, 68
1, 371268, Control_c, 0, 64, 56
1, 371272, Note_off_c, 0, 30, 57
1, 371283, Control_c, 0, 64, 34
1, 371287, Note_on_c, 0, 37, 70
1, 371298, Control_c, 0, 64, 0
1, 371300, Note_on_c, 0, 46, 86
1, 371301, Note_on_c, 0, 49, 82
1, 371318, Note_off_c, 0, 46, 70
1, 371320, Note_off_c, 0, 37, 66
1, 371326, Note_off_c, 0, 49, 68
1, 371352, Note_on_c, 0, 50, 96
1, 371357, Note_on_c, 0, 48, 93
1, 371360, Note_on_c, 0, 37, 69
1, 371376, Note_on_c, 0, 52, 64
1, 371377, Note_off_c, 0, 52, 127
1, 371394, Note_off_c, 0, 37, 62
1, 371432, Note_on_c, 0, 46, 40
1, 371471, Note_off_c, 0, 46, 63
1, 371503, Note_on_c, 0, 37, 63
1, 371542, Note_off_c, 0, 37, 63
1, 371601, Note_on_c, 0, 37, 62
1, 371631, Note_off_c, 0, 37, 63
1, 371647, Note_on_c, 0, 30, 76
1, 371682, Note_off_c, 0, 30, 64
1, 371706, Note_on_c, 0, 37, 67
1, 371744, Note_off_c, 0, 37, 62
1, 371798, Note_on_c, 0, 37, 62
1, 371826, Note_off_c, 0, 37, 66
1, 371870, Note_on_c, 0, 46, 67
1, 371900, Note_off_c, 0, 46, 64
1, 371925, Note_on_c, 0, 37, 66
1, 371965, Note_off_c, 0, 37, 63
1, 372026, Note_on_c, 0, 37, 56
1, 372060, Note_off_c, 0, 37, 64
1, 372074, Note_on_c, 0, 30, 70
1, 372112, Note_off_c, 0, 30, 64
1, 372121, Note_on_c, 0, 37, 65
1, 372152, Note_off_c, 0, 37, 65
1, 372217, Note_on_c, 0, 37, 64
1, 372249, Note_off_c, 0, 37, 62
1, 372281, Note_on_c, 0, 46, 69
1, 372314, Note_off_c, 0, 46, 63
1, 372336, Note_on_c, 0, 37, 70
1, 372375, Note_off_c, 0, 37, 65
1, 372439, Note_on_c, 0, 37, 51
1, 372484, Note_off_c, 0, 37, 61
1, 372500, Note_on_c, 0, 30, 71
1, 372541, Note_off_c, 0, 30, 64
1, 372550, Note_on_c, 0, 37, 63
1, 372582, Note_off_c, 0, 37, 65
1, 372632, Control_c, 0, 64, 13
1, 372638, Note_on_c, 0, 37, 71
1, 372647, Control_c, 0, 64, 21
1, 372662, Control_c, 0, 64, 30
1, 372669, Note_off_c, 0, 37, 64
1, 372676, Control_c, 0, 64, 39
1, 372691, Control_c, 0, 64, 48
1, 372706, Control_c, 0, 64, 53
1, 372717, Note_on_c, 0, 46, 67
1, 372721, Control_c, 0, 64, 56
1, 372736, Control_c, 0, 64, 58
1, 372743, Note_off_c, 0, 50, 50
1, 372743, Note_off_c, 0, 48, 59
1, 372747, Note_off_c, 0, 46, 67
1, 372750, Control_c, 0, 64, 60
1, 372765, Control_c, 0, 64, 62
1, 372767, Note_on_c, 0, 37, 59
1, 372780, Control_c, 0, 64, 64
1, 372795, Control_c, 0, 64, 66
1, 372810, Control_c, 0, 64, 69
1, 372818, Note_off_c, 0, 37, 61
1, 372824, Control_c, 0, 64, 72
1, 372839, Control_c, 0, 64, 77
1, 372854, Control_c, 0, 64, 86
1, 372867, Note_on_c, 0, 37, 52
1, 372869, Control_c, 0, 64, 97
1, 372884, Control_c, 0, 64, 115
1, 372899, Control_c, 0, 64, 127
1, 372904, Note_off_c, 0, 37, 63
1, 372913, Control_c, 0, 64, 124
1, 372920, Note_on_c, 0, 30, 95
1, 372928, Control_c, 0, 64, 95
1, 372943, Control_c, 0, 64, 74
1, 372949, Note_off_c, 0, 30, 67
1, 372955, Note_on_c, 0, 38, 53
1, 372958, Control_c, 0, 64, 56
1, 372973, Note_on_c, 0, 36, 42
1, 372973, Control_c, 0, 64, 22
1, 372985, Note_off_c, 0, 38, 36
1, 372988, Control_c, 0, 64, 0
1, 373008, Note_off_c, 0, 36, 33
1, 373030, Note_on_c, 0, 48, 48
1, 373066, Note_off_c, 0, 48, 62
1, 373074, Note_on_c, 0, 50, 47
1, 373099, Note_off_c, 0, 50, 52
1, 373152, Note_on_c, 0, 48, 46
1, 373182, Note_on_c, 0, 50, 63
1, 373187, Note_off_c, 0, 48, 33
1, 373231, Note_off_c, 0, 50, 59
1, 373263, Note_on_c, 0, 48, 46
1, 373302, Note_off_c, 0, 48, 62
1, 373322, Control_c, 0, 67, 126
1, 373326, Note_on_c, 0, 58, 80
1, 373329, Note_on_c, 0, 42, 45
1, 373337, Control_c, 0, 67, 126
1, 373349, Note_off_c, 0, 58, 67
1, 373364, Note_off_c, 0, 42, 52
1, 373367, Control_c, 0, 67, 125
1, 373381, Control_c, 0, 67, 125
1, 373384, Note_on_c, 0, 48, 63
1, 373393, Note_on_c, 0, 58, 81
1, 373396, Control_c, 0, 67, 124
1, 373406, Note_off_c, 0, 48, 59
1, 373411, Control_c, 0, 67, 124
1, 373415, Note_off_c, 0, 58, 69
1, 373426, Control_c, 0, 67, 123
1, 373441, Control_c, 0, 67, 122
1, 373448, Note_on_c, 0, 50, 63
1, 373456, Control_c, 0, 67, 121
1, 373459, Note_on_c, 0, 58, 78
1, 373471, Control_c, 0, 67, 120
1, 373483, Note_off_c, 0, 58, 67
1, 373486, Control_c, 0, 67, 118
1, 373489, Note_off_c, 0, 50, 61
1, 373500, Control_c, 0, 67, 117
1, 373511, Note_on_c, 0, 48, 48
1, 373515, Control_c, 0, 67, 116
1, 373518, Note_on_c, 0, 56, 83
1, 373530, Control_c, 0, 67, 116
1, 373545, Control_c, 0, 67, 114
1, 373547, Note_off_c, 0, 56, 62
1, 373559, Note_off_c, 0, 48, 65
1, 373560, Control_c, 0, 67, 112
1, 373573, Note_on_c, 0, 58, 79
1, 373574, Note_on_c, 0, 50, 60
1, 373574, Control_c, 0, 67, 110
1, 373589, Control_c, 0, 67, 109
1, 373619, Control_c, 0, 67, 109
1, 373626, Note_off_c, 0, 50, 64
1, 373633, Control_c, 0, 67, 108
1, 373644, Note_on_c, 0, 48, 47
1, 373674, Note_on_c, 0, 42, 60
1, 373678, Control_c, 0, 67, 109
1, 373679, Note_off_c, 0, 48, 63
1, 373727, Note_off_c, 0, 42, 59
1, 373752, Control_c, 0, 67, 109
1, 373758, Note_on_c, 0, 48, 58
1, 373781, Note_off_c, 0, 48, 59
1, 373817, Note_on_c, 0, 50, 58
1, 373826, Control_c, 0, 67, 110
1, 373852, Note_off_c, 0, 50, 64
1, 373869, Note_on_c, 0, 48, 55
1, 373910, Note_off_c, 0, 48, 63
1, 373943, Note_on_c, 0, 50, 53
1, 373996, Note_off_c, 0, 50, 64
1, 374020, Note_on_c, 0, 48, 51
1, 374046, Note_off_c, 0, 48, 58
1, 374069, Note_on_c, 0, 42, 62
1, 374102, Control_c, 0, 67, 110
1, 374114, Note_off_c, 0, 42, 63
1, 374140, Note_on_c, 0, 48, 57
1, 374174, Note_off_c, 0, 48, 63
1, 374209, Note_on_c, 0, 50, 59
1, 374244, Note_off_c, 0, 50, 61
1, 374249, Control_c, 0, 67, 110
1, 374271, Note_on_c, 0, 48, 52
1, 374309, Note_off_c, 0, 48, 63
1, 374336, Note_on_c, 0, 50, 52
1, 374353, Control_c, 0, 67, 109
1, 374380, Note_off_c, 0, 50, 63
1, 374403, Note_on_c, 0, 48, 56
1, 374419, Note_off_c, 0, 58, 53
1, 374439, Note_off_c, 0, 48, 63
1, 374445, Note_on_c, 0, 56, 66
1, 374456, Note_on_c, 0, 42, 52
1, 374457, Control_c, 0, 67, 110
1, 374463, Note_off_c, 0, 56, 64
1, 374502, Control_c, 0, 67, 110
1, 374523, Note_on_c, 0, 48, 62
1, 374532, Note_off_c, 0, 42, 53
1, 374558, Note_off_c, 0, 48, 64
1, 374572, Note_on_c, 0, 58, 62
1, 374592, Note_on_c, 0, 50, 66
1, 374599, Note_off_c, 0, 58, 64
1, 374636, Note_off_c, 0, 50, 59
1, 374672, Note_on_c, 0, 48, 54
1, 374711, Note_on_c, 0, 53, 62
1, 374724, Note_off_c, 0, 48, 65
1, 374735, Note_on_c, 0, 50, 59
1, 374739, Note_off_c, 0, 53, 59
1, 374762, Control_c, 0, 67, 110
1, 374782, Note_off_c, 0, 50, 62
1, 374806, Control_c, 0, 67, 110
1, 374816, Note_on_c, 0, 42, 61
1, 374853, Note_on_c, 0, 51, 63
1, 374873, Note_off_c, 0, 51, 64
1, 374908, Note_off_c, 0, 42, 54
1, 374914, Note_on_c, 0, 45, 59
1, 374925, Control_c, 0, 67, 110
1, 374950, Note_off_c, 0, 45, 64
1, 374967, Note_on_c, 0, 47, 67
1, 374969, Control_c, 0, 67, 109
1, 374970, Note_on_c, 0, 56, 64
1, 374997, Note_off_c, 0, 56, 65
1, 374998, Control_c, 0, 64, 24
1, 374998, Control_c, 0, 67, 109
1, 375008, Note_off_c, 0, 47, 63
1, 375013, Control_c, 0, 64, 36
1, 375028, Control_c, 0, 64, 45
1, 375043, Control_c, 0, 64, 50
1, 375055, Note_on_c, 0, 45, 50
1, 375058, Control_c, 0, 64, 53
1, 375058, Control_c, 0, 67, 108
1, 375072, Control_c, 0, 64, 55
1, 375078, Note_off_c, 0, 45, 53
1, 375087, Control_c, 0, 64, 58
1, 375092, Note_on_c, 0, 51, 64
1, 375102, Note_on_c, 0, 47, 58
1, 375102, Control_c, 0, 64, 60
1, 375113, Note_off_c, 0, 51, 63
1, 375117, Control_c, 0, 64, 62
1, 375117, Control_c, 0, 67, 108
1, 375125, Note_off_c, 0, 47, 59
1, 375132, Control_c, 0, 64, 63
1, 375146, Control_c, 0, 64, 63
1, 375155, Note_on_c, 0, 45, 56
1, 375176, Control_c, 0, 64, 59
1, 375176, Control_c, 0, 67, 109
1, 375182, Note_off_c, 0, 45, 38
1, 375191, Control_c, 0, 64, 44
1, 375191, Control_c, 0, 67, 110
1, 375206, Control_c, 0, 64, 0
1, 375206, Control_c, 0, 67, 111
1, 375221, Control_c, 0, 67, 112
1, 375224, Note_on_c, 0, 46, 73
1, 375229, Note_on_c, 0, 30, 85
1, 375250, Control_c, 0, 64, 31
1, 375259, Note_off_c, 0, 30, 65
1, 375260, Note_off_c, 0, 46, 61
1, 375265, Control_c, 0, 64, 51
1, 375280, Control_c, 0, 64, 59
1, 375288, Note_on_c, 0, 47, 57
1, 375291, Note_on_c, 0, 45, 49
1, 375295, Control_c, 0, 64, 59
1, 375295, Control_c, 0, 67, 112
1, 375310, Control_c, 0, 64, 58
1, 375325, Control_c, 0, 64, 55
1, 375340, Control_c, 0, 64, 45
1, 375340, Control_c, 0, 67, 113
1, 375342, Note_off_c, 0, 45, 65
1, 375347, Note_off_c, 0, 47, 63
1, 375354, Control_c, 0, 64, 31
1, 375356, Note_on_c, 0, 48, 66
1, 375369, Control_c, 0, 64, 12
1, 375369, Control_c, 0, 67, 113
1, 375384, Control_c, 0, 64, 8
1, 375384, Control_c, 0, 67, 114
1, 375398, Control_c, 0, 64, 21
1, 375400, Note_off_c, 0, 48, 60
1, 375413, Control_c, 0, 64, 34
1, 375413, Control_c, 0, 67, 114
1, 375428, Control_c, 0, 64, 45
1, 375428, Control_c, 0, 67, 114
1, 375443, Control_c, 0, 64, 53
1, 375451, Note_on_c, 0, 47, 47
1, 375452, Note_on_c, 0, 45, 43
1, 375458, Control_c, 0, 64, 57
1, 375458, Control_c, 0, 67, 113
1, 375480, Note_off_c, 0, 47, 37
1, 375480, Control_c, 0, 64, 59
1, 375490, Note_off_c, 0, 45, 35
1, 375495, Control_c, 0, 64, 60
1, 375495, Control_c, 0, 67, 112
1, 375500, Note_on_c, 0, 46, 66
1, 375510, Control_c, 0, 64, 61
1, 375525, Control_c, 0, 64, 63
1, 375525, Control_c, 0, 67, 112
1, 375528, Note_off_c, 0, 46, 67
1, 375540, Control_c, 0, 64, 65
1, 375549, Note_on_c, 0, 47, 45
1, 375555, Control_c, 0, 64, 68
1, 375555, Control_c, 0, 67, 111
1, 375563, Note_on_c, 0, 45, 33
1, 375569, Note_off_c, 0, 47, 52
1, 375570, Control_c, 0, 64, 73
1, 375570, Control_c, 0, 67, 111
1, 375584, Control_c, 0, 64, 78
1, 375584, Control_c, 0, 67, 110
1, 375594, Note_off_c, 0, 45, 36
1, 375599, Control_c, 0, 64, 79
1, 375599, Control_c, 0, 67, 109
1, 375614, Control_c, 0, 64, 79
1, 375614, Control_c, 0, 67, 109
1, 375628, Note_on_c, 0, 42, 68
1, 375629, Control_c, 0, 64, 72
1, 375644, Control_c, 0, 64, 61
1, 375645, Note_on_c, 0, 58, 82
1, 375659, Control_c, 0, 64, 46
1, 375659, Control_c, 0, 67, 108
1, 375666, Note_off_c, 0, 58, 68
1, 375674, Control_c, 0, 64, 35
1, 375674, Control_c, 0, 67, 109
1, 375676, Note_off_c, 0, 42, 54
1, 375689, Control_c, 0, 64, 34
1, 375699, Note_on_c, 0, 48, 67
1, 375703, Control_c, 0, 64, 34
1, 375709, Note_on_c, 0, 58, 80
1, 375726, Note_off_c, 0, 58, 67
1, 375735, Note_off_c, 0, 48, 57
1, 375748, Control_c, 0, 64, 33
1, 375748, Control_c, 0, 67, 108
1, 375763, Control_c, 0, 64, 31
1, 375766, Note_on_c, 0, 50, 60
1, 375769, Note_on_c, 0, 58, 81
1, 375777, Control_c, 0, 64, 29
1, 375777, Control_c, 0, 67, 108
1, 375788, Note_off_c, 0, 58, 68
1, 375792, Control_c, 0, 64, 23
1, 375792, Control_c, 0, 67, 107
1, 375806, Note_off_c, 0, 50, 60
1, 375807, Control_c, 0, 64, 0
1, 375807, Control_c, 0, 67, 106
1, 375821, Control_c, 0, 67, 104
1, 375829, Note_on_c, 0, 56, 85
1, 375832, Note_on_c, 0, 48, 58
1, 375836, Control_c, 0, 67, 103
1, 375851, Control_c, 0, 67, 102
1, 375853, Note_off_c, 0, 56, 68
1, 375866, Control_c, 0, 67, 101
1, 375877, Note_off_c, 0, 48, 62
1, 375881, Control_c, 0, 67, 101
1, 375888, Note_on_c, 0, 58, 81
1, 375895, Note_on_c, 0, 50, 59
1, 375895, Control_c, 0, 67, 100
1, 375910, Control_c, 0, 67, 100
1, 375940, Control_c, 0, 67, 99
1, 375946, Note_off_c, 0, 50, 62
1, 375978, Note_on_c, 0, 48, 40
1, 375999, Control_c, 0, 67, 99
1, 376011, Note_on_c, 0, 42, 60
1, 376014, Note_off_c, 0, 48, 63
1, 376043, Control_c, 0, 67, 98
1, 376058, Control_c, 0, 67, 97
1, 376073, Control_c, 0, 64, 33
1, 376073, Control_c, 0, 67, 95
1, 376085, Note_on_c, 0, 48, 63
1, 376088, Control_c, 0, 64, 48
1, 376088, Control_c, 0, 67, 93
1, 376103, Control_c, 0, 64, 57
1, 376103, Control_c, 0, 67, 89
1, 376108, Note_off_c, 0, 42, 53
1, 376118, Note_off_c, 0, 48, 63
1, 376118, Control_c, 0, 64, 61
1, 376118, Control_c, 0, 67, 85
1, 376133, Control_c, 0, 64, 63
1, 376133, Control_c, 0, 67, 81
1, 376142, Note_on_c, 0, 50, 65
1, 376147, Control_c, 0, 64, 65
1, 376147, Control_c, 0, 67, 77
1, 376162, Control_c, 0, 64, 66
1, 376162, Control_c, 0, 67, 73
1, 376177, Control_c, 0, 64, 68
1, 376177, Control_c, 0, 67, 70
1, 376189, Note_off_c, 0, 50, 64
1, 376192, Control_c, 0, 64, 70
1, 376192, Control_c, 0, 67, 65
1, 376200, Note_off_c, 0, 58, 63
1, 376207, Control_c, 0, 64, 72
1, 376207, Control_c, 0, 67, 60
1, 376207, Note_on_c, 0, 48, 67
1, 376228, Control_c, 0, 64, 74
1, 376228, Control_c, 0, 67, 56
1, 376243, Control_c, 0, 64, 76
1, 376243, Control_c, 0, 67, 52
1, 376258, Control_c, 0, 64, 79
1, 376258, Control_c, 0, 67, 51
1, 376261, Note_off_c, 0, 48, 64
1, 376273, Control_c, 0, 64, 82
1, 376273, Control_c, 0, 67, 49
1, 376288, Note_on_c, 0, 50, 67
1, 376288, Control_c, 0, 64, 85
1, 376288, Control_c, 0, 67, 48
1, 376303, Control_c, 0, 64, 88
1, 376303, Control_c, 0, 67, 47
1, 376318, Control_c, 0, 64, 89
1, 376318, Control_c, 0, 67, 45
1, 376333, Control_c, 0, 64, 90
1, 376333, Control_c, 0, 67, 42
1, 376338, Note_off_c, 0, 50, 60
1, 376348, Control_c, 0, 64, 88
1, 376348, Control_c, 0, 67, 36
1, 376349, Note_on_c, 0, 48, 66
1, 376363, Control_c, 0, 64, 75
1, 376363, Control_c, 0, 67, 27
1, 376378, Note_off_c, 0, 48, 63
1, 376378, Control_c, 0, 64, 62
1, 376378, Control_c, 0, 67, 17
1, 376385, Note_on_c, 0, 42, 90
1, 376393, Control_c, 0, 64, 35
1, 376393, Control_c, 0, 67, 8
1, 376407, Control_c, 0, 64, 0
1, 376407, Control_c, 0, 67, 0
1, 376412, Note_off_c, 0, 42, 70
1, 376445, Note_on_c, 0, 74, 73
1, 376449, Note_on_c, 0, 72, 72
1, 376488, Note_off_c, 0, 74, 61
1, 376488, Note_off_c, 0, 72, 62
1, 376516, Note_on_c, 0, 62, 77
1, 376556, Control_c, 0, 67, 9
1, 376557, Note_off_c, 0, 62, 63
1, 376567, Note_on_c, 0, 60, 79
1, 376570, Control_c, 0, 67, 10
1, 376589, Note_off_c, 0, 60, 69
1, 376615, Control_c, 0, 67, 10
1, 376630, Control_c, 0, 67, 11
1, 376644, Control_c, 0, 67, 11
1, 376646, Note_on_c, 0, 50, 64
1, 376681, Note_off_c, 0, 50, 62
1, 376733, Control_c, 0, 67, 12
1, 376748, Control_c, 0, 67, 12
1, 376763, Control_c, 0, 67, 13
1, 376767, Note_on_c, 0, 42, 56
1, 376774, Note_on_c, 0, 68, 68
1, 376777, Control_c, 0, 67, 13
1, 376787, Note_on_c, 0, 56, 80
1, 376792, Control_c, 0, 67, 14
1, 376798, Note_off_c, 0, 68, 69
1, 376813, Note_off_c, 0, 56, 68
1, 376893, Poly_aftertouch_c, 0, 48, 0
1, 376911, Note_on_c, 0, 50, 66
1, 376925, Note_on_c, 0, 58, 71
1, 376925, Control_c, 0, 67, 13
1, 376944, Note_off_c, 0, 50, 62
1, 376950, Note_off_c, 0, 42, 43
1, 376950, Note_off_c, 0, 58, 66
1, 376955, Control_c, 0, 67, 13
1, 376994, Note_on_c, 0, 48, 52
1, 377025, Note_off_c, 0, 48, 61
1, 377051, Note_on_c, 0, 50, 58
1, 377052, Note_on_c, 0, 65, 55
1, 377063, Note_on_c, 0, 53, 74
1, 377078, Note_off_c, 0, 65, 65
1, 377081, Control_c, 0, 67, 13
1, 377087, Note_off_c, 0, 53, 68
1, 377100, Note_off_c, 0, 50, 63
1, 377111, Note_on_c, 0, 48, 53
1, 377111, Control_c, 0, 67, 14
1, 377125, Control_c, 0, 67, 14
1, 377170, Control_c, 0, 67, 15
1, 377178, Note_off_c, 0, 48, 61
1, 377183, Note_on_c, 0, 42, 67
1, 377185, Control_c, 0, 67, 14
1, 377192, Note_on_c, 0, 51, 80
1, 377218, Note_off_c, 0, 51, 65
1, 377230, Note_off_c, 0, 42, 62
1, 377274, Note_on_c, 0, 45, 68
1, 377304, Control_c, 0, 67, 14
1, 377323, Note_off_c, 0, 45, 64
1, 377326, Note_on_c, 0, 63, 62
1, 377332, Note_on_c, 0, 56, 65
1, 377334, Control_c, 0, 67, 13
1, 377348, Note_on_c, 0, 47, 67
1, 377348, Control_c, 0, 64, 12
1, 377348, Control_c, 0, 67, 13
1, 377352, Note_off_c, 0, 56, 65
1, 377355, Note_off_c, 0, 63, 66
1, 377363, Control_c, 0, 64, 18
1, 377378, Control_c, 0, 64, 22
1, 377378, Control_c, 0, 67, 12
1, 377389, Note_off_c, 0, 47, 63
1, 377392, Control_c, 0, 64, 22
1, 377407, Control_c, 0, 64, 23
1, 377407, Control_c, 0, 67, 12
1, 377422, Control_c, 0, 67, 11
1, 377431, Note_on_c, 0, 45, 64
1, 377437, Control_c, 0, 67, 11
1, 377446, Note_on_c, 0, 51, 69
1, 377452, Control_c, 0, 67, 10
1, 377462, Note_off_c, 0, 45, 66
1, 377466, Control_c, 0, 64, 22
1, 377466, Control_c, 0, 67, 10
1, 377477, Note_off_c, 0, 51, 64
1, 377481, Control_c, 0, 64, 21
1, 377481, Control_c, 0, 67, 8
1, 377489, Note_on_c, 0, 47, 53
1, 377496, Control_c, 0, 64, 20
1, 377496, Control_c, 0, 67, 0
1, 377511, Control_c, 0, 64, 18
1, 377526, Control_c, 0, 64, 14
1, 377529, Note_off_c, 0, 47, 55
1, 377540, Control_c, 0, 64, 0
1, 377551, Note_on_c, 0, 45, 51
1, 377577, Note_off_c, 0, 45, 58
1, 377589, Note_on_c, 0, 42, 68
1, 377619, Note_off_c, 0, 42, 63
1, 377644, Control_c, 0, 67, 8
1, 377651, Note_on_c, 0, 59, 59
1, 377659, Note_on_c, 0, 57, 56
1, 377659, Control_c, 0, 67, 10
1, 377674, Control_c, 0, 67, 11
1, 377689, Control_c, 0, 67, 12
1, 377697, Note_off_c, 0, 59, 63
1, 377702, Note_off_c, 0, 57, 61
1, 377704, Control_c, 0, 67, 14
1, 377725, Note_on_c, 0, 47, 73
1, 377726, Control_c, 0, 67, 17
1, 377741, Control_c, 0, 67, 19
1, 377751, Note_off_c, 0, 47, 68
1, 377756, Control_c, 0, 67, 19
1, 377771, Control_c, 0, 67, 20
1, 377786, Control_c, 0, 67, 21
1, 377794, Note_on_c, 0, 45, 59
1, 377800, Control_c, 0, 67, 22
1, 377815, Control_c, 0, 67, 23
1, 377830, Control_c, 0, 67, 24
1, 377831, Note_off_c, 0, 45, 63
1, 377845, Control_c, 0, 67, 25
1, 377848, Note_on_c, 0, 47, 48
1, 377889, Control_c, 0, 67, 25
1, 377900, Note_off_c, 0, 47, 62
1, 377904, Control_c, 0, 67, 26
1, 377918, Control_c, 0, 67, 26
1, 377931, Note_on_c, 0, 45, 46
1, 377933, Control_c, 0, 67, 27
1, 377963, Note_off_c, 0, 45, 35
1, 377965, Control_c, 0, 67, 27
1, 377984, Note_on_c, 0, 35, 57
1, 377993, Note_on_c, 0, 39, 61
1, 377994, Control_c, 0, 67, 28
1, 378009, Control_c, 0, 67, 28
1, 378019, Note_off_c, 0, 39, 37
1, 378023, Control_c, 0, 67, 29
1, 378026, Note_off_c, 0, 35, 53
1, 378038, Control_c, 0, 67, 29
1, 378053, Control_c, 0, 67, 30
1, 378059, Note_on_c, 0, 45, 54
1, 378068, Control_c, 0, 67, 31
1, 378083, Control_c, 0, 67, 31
1, 378097, Control_c, 0, 67, 32
1, 378105, Note_off_c, 0, 45, 61
1, 378112, Control_c, 0, 67, 33
1, 378127, Control_c, 0, 67, 34
1, 378142, Control_c, 0, 67, 36
1, 378155, Note_on_c, 0, 47, 51
1, 378157, Note_on_c, 0, 44, 65
1, 378157, Control_c, 0, 67, 37
1, 378172, Control_c, 0, 67, 39
1, 378181, Note_off_c, 0, 44, 62
1, 378187, Control_c, 0, 67, 41
1, 378199, Note_off_c, 0, 47, 61
1, 378202, Control_c, 0, 67, 43
1, 378216, Control_c, 0, 67, 46
1, 378231, Control_c, 0, 67, 49
1, 378243, Note_on_c, 0, 45, 47
1, 378246, Control_c, 0, 67, 53
1, 378261, Control_c, 0, 67, 57
1, 378276, Control_c, 0, 67, 60
1, 378290, Control_c, 0, 67, 65
1, 378297, Note_off_c, 0, 45, 56
1, 378305, Control_c, 0, 67, 69
1, 378320, Control_c, 0, 67, 74
1, 378335, Control_c, 0, 67, 80
1, 378349, Control_c, 0, 67, 85
1, 378352, Note_on_c, 0, 39, 56
1, 378364, Control_c, 0, 67, 93
1, 378377, Note_off_c, 0, 39, 54
1, 378379, Control_c, 0, 67, 100
1, 378394, Control_c, 0, 64, 18
1, 378394, Control_c, 0, 67, 107
1, 378401, Note_on_c, 0, 47, 30
1, 378408, Control_c, 0, 64, 26
1, 378408, Control_c, 0, 67, 115
1, 378423, Control_c, 0, 64, 32
1, 378423, Control_c, 0, 67, 123
1, 378438, Control_c, 0, 64, 39
1, 378438, Control_c, 0, 67, 127
1, 378440, Note_off_c, 0, 47, 57
1, 378453, Control_c, 0, 64, 45
1, 378476, Control_c, 0, 64, 48
1, 378491, Control_c, 0, 64, 50
1, 378505, Control_c, 0, 64, 52
1, 378510, Note_on_c, 0, 45, 41
1, 378520, Control_c, 0, 64, 53
1, 378535, Control_c, 0, 64, 55
1, 378540, Note_off_c, 0, 45, 56
1, 378549, Control_c, 0, 64, 57
1, 378564, Control_c, 0, 64, 58
1, 378579, Control_c, 0, 64, 59
1, 378594, Control_c, 0, 64, 60
1, 378609, Control_c, 0, 64, 61
1, 378623, Control_c, 0, 64, 62
1, 378638, Control_c, 0, 64, 63
1, 378653, Control_c, 0, 64, 64
1, 378668, Control_c, 0, 64, 66
1, 378683, Control_c, 0, 64, 69
1, 378693, Note_on_c, 0, 27, 57
1, 378697, Control_c, 0, 64, 75
1, 378712, Control_c, 0, 64, 84
1, 378721, Note_off_c, 0, 27, 56
1, 378727, Control_c, 0, 64, 96
1, 378743, Control_c, 0, 64, 116
1, 378758, Control_c, 0, 64, 127
1, 379224, Control_c, 0, 67, 126
1, 379239, Control_c, 0, 67, 122
1, 379254, Control_c, 0, 67, 118
1, 379269, Control_c, 0, 67, 113
1, 379284, Control_c, 0, 67, 109
1, 379298, Control_c, 0, 67, 105
1, 379313, Control_c, 0, 67, 101
1, 379328, Control_c, 0, 67, 98
1, 379343, Control_c, 0, 67, 94
1, 379358, Control_c, 0, 67, 91
1, 379372, Control_c, 0, 67, 87
1, 379387, Control_c, 0, 67, 84
1, 379402, Control_c, 0, 67, 81
1, 379417, Control_c, 0, 67, 78
1, 379432, Control_c, 0, 67, 75
1, 379446, Control_c, 0, 67, 71
1, 379457, Note_on_c, 0, 104, 40
1, 379461, Control_c, 0, 67, 66
1, 379476, Control_c, 0, 67, 61
1, 379490, Control_c, 0, 67, 56
1, 379505, Control_c, 0, 67, 49
1, 379520, Control_c, 0, 67, 42
1, 379536, Control_c, 0, 67, 34
1, 379551, Control_c, 0, 67, 26
1, 379558, Note_off_c, 0, 104, 51
1, 379566, Note_on_c, 0, 99, 45
1, 379566, Control_c, 0, 67, 15
1, 379581, Control_c, 0, 67, 9
1, 379595, Control_c, 0, 67, 8
1, 379605, Note_off_c, 0, 99, 62
1, 379610, Control_c, 0, 67, 0
1, 379636, Note_on_c, 0, 95, 48
1, 379674, Note_off_c, 0, 95, 63
1, 379707, Note_on_c, 0, 102, 53
1, 379767, Note_on_c, 0, 97, 60
1, 379768, Note_off_c, 0, 102, 61
1, 379793, Note_off_c, 0, 97, 68
1, 379812, Note_on_c, 0, 93, 62
1, 379829, Note_off_c, 0, 93, 66
1, 379846, Note_on_c, 0, 92, 64
1, 379887, Note_off_c, 0, 92, 49
1, 379918, Note_on_c, 0, 90, 67
1, 379951, Note_off_c, 0, 90, 56
1, 379970, Note_on_c, 0, 85, 59
1, 379974, Note_on_c, 0, 81, 67
1, 380003, Note_off_c, 0, 85, 65
1, 380032, Note_off_c, 0, 81, 65
1, 380043, Note_on_c, 0, 80, 67
1, 380085, Note_on_c, 0, 75, 74
1, 380101, Note_off_c, 0, 80, 64
1, 380127, Note_off_c, 0, 75, 65
1, 380137, Note_on_c, 0, 71, 74
1, 380178, Note_on_c, 0, 78, 82
1, 380184, Note_off_c, 0, 71, 59
1, 380212, Note_on_c, 0, 73, 73
1, 380221, Note_off_c, 0, 78, 64
1, 380237, Note_off_c, 0, 73, 65
1, 380251, Note_on_c, 0, 69, 76
1, 380273, Note_off_c, 0, 69, 70
1, 380289, Note_on_c, 0, 68, 77
1, 380329, Note_off_c, 0, 68, 66
1, 380330, Note_on_c, 0, 66, 59
1, 380340, Note_on_c, 0, 67, 51
1, 380361, Note_on_c, 0, 61, 76
1, 380365, Note_off_c, 0, 67, 55
1, 380377, Note_on_c, 0, 57, 81
1, 380381, Note_on_c, 0, 65, 20
1, 380384, Note_off_c, 0, 66, 66
1, 380399, Note_off_c, 0, 61, 67
1, 380419, Note_off_c, 0, 65, 39
1, 380425, Note_off_c, 0, 57, 67
1, 380430, Note_on_c, 0, 56, 87
1, 380479, Note_on_c, 0, 52, 71
1, 380479, Note_off_c, 0, 56, 65
1, 380505, Note_off_c, 0, 52, 66
1, 380514, Note_on_c, 0, 47, 84
1, 380524, Note_on_c, 0, 48, 68
1, 380550, Note_off_c, 0, 47, 63
1, 380552, Note_off_c, 0, 48, 62
1, 380558, Note_on_c, 0, 54, 92
1, 380604, Note_on_c, 0, 49, 87
1, 380620, Note_off_c, 0, 54, 64
1, 380630, Note_on_c, 0, 45, 94
1, 380643, Note_off_c, 0, 49, 68
1, 380665, Note_off_c, 0, 45, 66
1, 380679, Note_on_c, 0, 44, 96
1, 380700, Poly_aftertouch_c, 0, 37, 0
1, 380725, Note_off_c, 0, 44, 66
1, 380745, Note_on_c, 0, 43, 63
1, 380752, Note_on_c, 0, 42, 38
1, 380772, Note_off_c, 0, 43, 66
1, 380779, Note_on_c, 0, 33, 93
1, 380783, Note_on_c, 0, 39, 43
1, 380788, Note_on_c, 0, 38, 58
1, 380789, Note_off_c, 0, 42, 49
1, 380809, Note_on_c, 0, 37, 42
1, 380810, Note_off_c, 0, 37, 127
1, 380814, Note_off_c, 0, 38, 51
1, 380818, Note_off_c, 0, 39, 41
1, 380824, Note_off_c, 0, 33, 64
1, 380860, Note_on_c, 0, 40, 52
1, 380861, Note_off_c, 0, 40, 127
1, 380861, Poly_aftertouch_c, 0, 37, 127
1, 380886, Note_on_c, 0, 33, 94
1, 380894, Poly_aftertouch_c, 0, 37, 0
1, 380935, Note_off_c, 0, 33, 64
1, 380944, Control_c, 0, 64, 72
1, 380959, Control_c, 0, 64, 0
1, 380962, Note_on_c, 0, 27, 110
1, 380966, Note_on_c, 0, 26, 110
1, 380971, Note_on_c, 0, 25, 90
1, 380971, Note_on_c, 0, 28, 96
1, 380982, Note_on_c, 0, 33, 93
1, 380992, Note_off_c, 0, 28, 65
1, 381006, Note_off_c, 0, 25, 61
1, 381010, Note_off_c, 0, 27, 64
1, 381013, Note_off_c, 0, 26, 65
1, 381015, Note_on_c, 0, 41, 49
1, 381019, Note_on_c, 0, 35, 54
1, 381042, Note_off_c, 0, 33, 49
1, 381045, Note_off_c, 0, 35, 54
1, 381048, Note_off_c, 0, 41, 37
1, 381048, Control_c, 0, 64, 26
1, 381048, Note_on_c, 0, 37, 78
1, 381062, Control_c, 0, 64, 43
1, 381077, Control_c, 0, 64, 54
1, 381092, Control_c, 0, 64, 59
1, 381107, Note_off_c, 0, 37, 65
1, 381107, Control_c, 0, 64, 62
1, 381114, Note_on_c, 0, 42, 62
1, 381122, Control_c, 0, 64, 65
1, 381138, Control_c, 0, 64, 68
1, 381148, Note_off_c, 0, 42, 68
1, 381153, Control_c, 0, 64, 69
1, 381167, Control_c, 0, 64, 72
1, 381182, Control_c, 0, 64, 76
1, 381188, Note_on_c, 0, 39, 77
1, 381197, Control_c, 0, 64, 79
1, 381203, Note_on_c, 0, 45, 82
1, 381212, Control_c, 0, 64, 81
1, 381222, Note_on_c, 0, 42, 72
1, 381226, Note_off_c, 0, 39, 65
1, 381227, Control_c, 0, 64, 82
1, 381245, Note_on_c, 0, 47, 41
1, 381251, Note_off_c, 0, 45, 44
1, 381256, Note_on_c, 0, 49, 82
1, 381256, Note_off_c, 0, 42, 64
1, 381258, Note_on_c, 0, 44, 72
1, 381267, Note_off_c, 0, 47, 52
1, 381271, Control_c, 0, 64, 82
1, 381282, Note_off_c, 0, 44, 67
1, 381300, Control_c, 0, 64, 83
1, 381302, Poly_aftertouch_c, 0, 45, 0
1, 381308, Note_off_c, 0, 49, 65
1, 381318, Note_on_c, 0, 54, 79
1, 381330, Control_c, 0, 64, 83
1, 381343, Note_off_c, 0, 54, 68
1, 381388, Note_on_c, 0, 50, 61
1, 381394, Note_on_c, 0, 57, 80
1, 381410, Note_on_c, 0, 53, 60
1, 381420, Note_off_c, 0, 50, 54
1, 381430, Note_on_c, 0, 56, 75
1, 381439, Note_off_c, 0, 53, 64
1, 381440, Note_off_c, 0, 57, 60
1, 381447, Note_on_c, 0, 61, 80
1, 381448, Control_c, 0, 64, 84
1, 381453, Note_off_c, 0, 56, 66
1, 381479, Note_on_c, 0, 55, 54
1, 381483, Note_on_c, 0, 57, 46
1, 381488, Note_off_c, 0, 61, 64
1, 381501, Note_off_c, 0, 57, 54
1, 381503, Note_off_c, 0, 55, 57
1, 381504, Note_on_c, 0, 66, 78
1, 381515, Control_c, 0, 64, 82
1, 381525, Note_off_c, 0, 66, 72
1, 381530, Control_c, 0, 64, 74
1, 381545, Control_c, 0, 64, 59
1, 381560, Control_c, 0, 64, 29
1, 381565, Note_on_c, 0, 63, 65
1, 381574, Control_c, 0, 64, 0
1, 381582, Note_on_c, 0, 69, 78
1, 381609, Note_off_c, 0, 63, 61
1, 381620, Note_on_c, 0, 68, 61
1, 381622, Note_on_c, 0, 65, 18
1, 381623, Note_off_c, 0, 65, 127
1, 381624, Note_off_c, 0, 69, 65
1, 381634, Note_on_c, 0, 73, 80
1, 381637, Note_off_c, 0, 68, 65
1, 381664, Note_off_c, 0, 73, 65
1, 381676, Note_on_c, 0, 78, 78
1, 381695, Note_off_c, 0, 78, 71
1, 381746, Note_on_c, 0, 75, 59
1, 381756, Note_on_c, 0, 81, 78
1, 381776, Note_off_c, 0, 75, 65
1, 381805, Note_off_c, 0, 81, 60
1, 381810, Note_on_c, 0, 85, 71
1, 381835, Note_off_c, 0, 85, 68
1, 381856, Note_on_c, 0, 90, 77
1, 381877, Note_off_c, 0, 90, 70
1, 381927, Note_on_c, 0, 93, 76
1, 381957, Note_off_c, 0, 93, 57
1, 381984, Note_on_c, 0, 97, 68
1, 382007, Note_on_c, 0, 92, 39
1, 382009, Note_off_c, 0, 97, 65
1, 382028, Note_off_c, 0, 92, 46
1, 382031, Note_on_c, 0, 102, 65
1, 382061, Note_on_c, 0, 93, 69
1, 382075, Note_off_c, 0, 93, 66
1, 382076, Note_on_c, 0, 105, 81
1, 382077, Note_off_c, 0, 102, 64
1, 382083, Note_on_c, 0, 97, 99
1, 382093, Note_off_c, 0, 105, 71
1, 382099, Note_off_c, 0, 97, 68
1, 382486, Control_c, 0, 64, 13
1, 382501, Control_c, 0, 64, 26
1, 382501, Control_c, 0, 67, 8
1, 382515, Control_c, 0, 64, 32
1, 382515, Control_c, 0, 67, 10
1, 382530, Control_c, 0, 64, 33
1, 382530, Control_c, 0, 67, 12
1, 382545, Control_c, 0, 67, 12
1, 382560, Control_c, 0, 64, 36
1, 382575, Control_c, 0, 64, 42
1, 382575, Control_c, 0, 67, 13
1, 382589, Control_c, 0, 64, 47
1, 382589, Control_c, 0, 67, 13
1, 382604, Control_c, 0, 64, 51
1, 382604, Control_c, 0, 67, 14
1, 382619, Control_c, 0, 64, 53
1, 382619, Control_c, 0, 67, 16
1, 382634, Control_c, 0, 64, 54
1, 382634, Control_c, 0, 67, 17
1, 382649, Control_c, 0, 64, 57
1, 382649, Control_c, 0, 67, 18
1, 382664, Control_c, 0, 64, 59
1, 382664, Control_c, 0, 67, 20
1, 382679, Control_c, 0, 64, 61
1, 382679, Control_c, 0, 67, 21
1, 382694, Control_c, 0, 64, 63
1, 382694, Control_c, 0, 67, 22
1, 382708, Control_c, 0, 64, 63
1, 382708, Control_c, 0, 67, 22
1, 382723, Control_c, 0, 64, 64
1, 382723, Control_c, 0, 67, 23
1, 382738, Control_c, 0, 64, 65
1, 382738, Control_c, 0, 67, 23
1, 382753, Control_c, 0, 64, 66
1, 382753, Control_c, 0, 67, 24
1, 382768, Control_c, 0, 64, 67
1, 382768, Control_c, 0, 67, 25
1, 382783, Control_c, 0, 64, 68
1, 382783, Control_c, 0, 67, 25
1, 382798, Control_c, 0, 64, 69
1, 382813, Control_c, 0, 64, 71
1, 382828, Control_c, 0, 64, 72
1, 382834, Note_on_c, 0, 37, 48
1, 382857, Control_c, 0, 64, 71
1, 382867, Note_off_c, 0, 37, 63
1, 382872, Control_c, 0, 64, 65
1, 382880, Note_on_c, 0, 65, 73
1, 382887, Control_c, 0, 64, 54
1, 382887, Control_c, 0, 67, 25
1, 382902, Control_c, 0, 64, 26
1, 382905, Note_off_c, 0, 65, 68
1, 382917, Control_c, 0, 64, 0
1, 382931, Control_c, 0, 67, 24
1, 382946, Control_c, 0, 67, 25
1, 382961, Note_on_c, 0, 65, 73
1, 382978, Note_on_c, 0, 55, 61
1, 382983, Note_off_c, 0, 65, 65
1, 383016, Note_off_c, 0, 55, 63
1, 383028, Note_on_c, 0, 65, 80
1, 383028, Control_c, 0, 67, 25
1, 383043, Control_c, 0, 67, 25
1, 383051, Note_off_c, 0, 65, 64
1, 383057, Note_on_c, 0, 57, 50
1, 383072, Control_c, 0, 67, 24
1, 383083, Note_off_c, 0, 57, 50
1, 383087, Control_c, 0, 67, 24
1, 383087, Note_on_c, 0, 63, 79
1, 383117, Control_c, 0, 67, 23
1, 383120, Note_off_c, 0, 63, 66
1, 383121, Note_on_c, 0, 55, 57
1, 383152, Note_on_c, 0, 65, 79
1, 383156, Note_off_c, 0, 55, 64
1, 383185, Note_on_c, 0, 57, 47
1, 383205, Control_c, 0, 67, 24
1, 383235, Control_c, 0, 67, 24
1, 383236, Note_off_c, 0, 57, 58
1, 383250, Control_c, 0, 67, 25
1, 383255, Note_on_c, 0, 55, 48
1, 383264, Control_c, 0, 67, 24
1, 383279, Control_c, 0, 67, 24
1, 383294, Control_c, 0, 67, 23
1, 383298, Note_off_c, 0, 55, 64
1, 383309, Control_c, 0, 67, 22
1, 383320, Note_on_c, 0, 49, 58
1, 383324, Control_c, 0, 67, 22
1, 383368, Control_c, 0, 67, 22
1, 383383, Control_c, 0, 67, 23
1, 383395, Note_on_c, 0, 55, 57
1, 383398, Control_c, 0, 67, 24
1, 383412, Control_c, 0, 67, 25
1, 383425, Note_off_c, 0, 55, 65
1, 383451, Note_on_c, 0, 57, 61
1, 383452, Note_off_c, 0, 49, 32
1, 383457, Control_c, 0, 67, 25
1, 383487, Control_c, 0, 67, 24
1, 383499, Note_off_c, 0, 57, 61
1, 383516, Control_c, 0, 67, 24
1, 383525, Note_on_c, 0, 55, 52
1, 383532, Control_c, 0, 67, 23
1, 383570, Note_off_c, 0, 55, 65
1, 383615, Note_on_c, 0, 57, 57
1, 383639, Note_off_c, 0, 57, 61
1, 383651, Control_c, 0, 67, 24
1, 383666, Control_c, 0, 67, 25
1, 383670, Note_on_c, 0, 55, 46
1, 383680, Control_c, 0, 67, 26
1, 383695, Control_c, 0, 67, 27
1, 383696, Note_off_c, 0, 55, 59
1, 383717, Control_c, 0, 67, 27
1, 383725, Note_on_c, 0, 49, 63
1, 383732, Control_c, 0, 67, 28
1, 383747, Control_c, 0, 67, 30
1, 383761, Control_c, 0, 67, 34
1, 383773, Note_off_c, 0, 49, 59
1, 383776, Control_c, 0, 67, 36
1, 383791, Control_c, 0, 67, 38
1, 383797, Note_on_c, 0, 55, 50
1, 383806, Control_c, 0, 67, 40
1, 383821, Control_c, 0, 67, 41
1, 383829, Note_off_c, 0, 55, 65
1, 383856, Note_on_c, 0, 57, 58
1, 383865, Control_c, 0, 67, 41
1, 383880, Control_c, 0, 67, 42
1, 383895, Control_c, 0, 67, 43
1, 383897, Note_off_c, 0, 57, 61
1, 383910, Control_c, 0, 67, 44
1, 383922, Note_on_c, 0, 55, 57
1, 383925, Control_c, 0, 67, 45
1, 383961, Note_off_c, 0, 55, 64
1, 383997, Note_on_c, 0, 57, 61
1, 384038, Note_off_c, 0, 57, 62
1, 384061, Note_on_c, 0, 55, 51
1, 384086, Note_off_c, 0, 55, 61
1, 384086, Note_off_c, 0, 65, 58
1, 384102, Control_c, 0, 67, 46
1, 384107, Note_on_c, 0, 49, 65
1, 384115, Note_on_c, 0, 63, 66
1, 384142, Note_off_c, 0, 63, 65
1, 384147, Control_c, 0, 67, 46
1, 384156, Note_off_c, 0, 49, 58
1, 384161, Control_c, 0, 67, 47
1, 384174, Note_on_c, 0, 55, 62
1, 384208, Note_off_c, 0, 55, 65
1, 384246, Note_on_c, 0, 57, 63
1, 384249, Note_on_c, 0, 65, 66
1, 384273, Note_off_c, 0, 65, 67
1, 384289, Note_off_c, 0, 57, 58
1, 384294, Control_c, 0, 67, 46
1, 384324, Note_on_c, 0, 55, 61
1, 384340, Control_c, 0, 67, 46
1, 384360, Note_off_c, 0, 55, 64
1, 384370, Control_c, 0, 67, 45
1, 384377, Note_on_c, 0, 60, 69
1, 384384, Control_c, 0, 67, 45
1, 384389, Note_on_c, 0, 57, 66
1, 384400, Control_c, 0, 67, 44
1, 384401, Note_off_c, 0, 60, 67
1, 384415, Control_c, 0, 67, 44
1, 384429, Control_c, 0, 67, 43
1, 384436, Note_off_c, 0, 57, 62
1, 384444, Control_c, 0, 67, 43
1, 384474, Note_on_c, 0, 55, 45
1, 384497, Control_c, 0, 67, 43
1, 384499, Note_off_c, 0, 55, 60
1, 384500, Note_on_c, 0, 49, 69
1, 384520, Note_on_c, 0, 58, 75
1, 384545, Note_off_c, 0, 58, 66
1, 384571, Control_c, 0, 67, 43
1, 384584, Note_off_c, 0, 49, 62
1, 384589, Note_on_c, 0, 52, 54
1, 384630, Note_off_c, 0, 52, 59
1, 384643, Note_on_c, 0, 54, 70
1, 384646, Note_on_c, 0, 63, 65
1, 384673, Note_off_c, 0, 63, 68
1, 384674, Control_c, 0, 67, 42
1, 384686, Note_off_c, 0, 54, 61
1, 384724, Note_on_c, 0, 52, 65
1, 384733, Control_c, 0, 67, 42
1, 384763, Control_c, 0, 67, 41
1, 384768, Note_off_c, 0, 52, 65
1, 384778, Note_on_c, 0, 58, 74
1, 384778, Control_c, 0, 67, 41
1, 384801, Note_on_c, 0, 54, 62
1, 384802, Note_off_c, 0, 58, 66
1, 384807, Control_c, 0, 67, 40
1, 384831, Note_off_c, 0, 54, 66
1, 384852, Control_c, 0, 67, 40
1, 384867, Control_c, 0, 67, 39
1, 384879, Note_on_c, 0, 52, 14
1, 384882, Control_c, 0, 67, 39
1, 384897, Control_c, 0, 67, 38
1, 384902, Note_on_c, 0, 49, 66
1, 384904, Note_on_c, 0, 46, 77
1, 384911, Control_c, 0, 67, 37
1, 384922, Note_off_c, 0, 52, 29
1, 384926, Control_c, 0, 67, 37
1, 384932, Note_off_c, 0, 46, 67
1, 384950, Note_off_c, 0, 49, 61
1, 384971, Control_c, 0, 67, 37
1, 384976, Note_on_c, 0, 52, 63
1, 384985, Control_c, 0, 67, 38
1, 385000, Control_c, 0, 67, 38
1, 385011, Note_off_c, 0, 52, 63
1, 385015, Control_c, 0, 67, 39
1, 385029, Control_c, 0, 67, 39
1, 385035, Note_on_c, 0, 51, 62
1, 385041, Note_on_c, 0, 54, 66
1, 385057, Note_off_c, 0, 51, 63
1, 385059, Control_c, 0, 67, 40
1, 385089, Control_c, 0, 64, 14
1, 385103, Control_c, 0, 64, 39
1, 385108, Note_off_c, 0, 54, 0
1, 385118, Control_c, 0, 64, 54
1, 385127, Note_on_c, 0, 54, 34
1, 385134, Control_c, 0, 64, 60
1, 385148, Note_on_c, 0, 46, 74
1, 385148, Control_c, 0, 64, 63
1, 385159, Note_on_c, 0, 52, 62
1, 385163, Control_c, 0, 64, 68
1, 385163, Control_c, 0, 67, 39
1, 385168, Note_off_c, 0, 46, 65
1, 385171, Note_off_c, 0, 54, 65
1, 385178, Control_c, 0, 64, 74
1, 385178, Control_c, 0, 67, 39
1, 385188, Note_off_c, 0, 52, 65
1, 385193, Control_c, 0, 64, 84
1, 385193, Control_c, 0, 67, 38
1, 385215, Control_c, 0, 64, 92
1, 385215, Control_c, 0, 67, 38
1, 385230, Control_c, 0, 67, 37
1, 385245, Control_c, 0, 64, 85
1, 385245, Control_c, 0, 67, 36
1, 385259, Control_c, 0, 64, 72
1, 385259, Control_c, 0, 67, 34
1, 385274, Control_c, 0, 64, 55
1, 385274, Control_c, 0, 67, 30
1, 385281, Note_on_c, 0, 37, 78
1, 385289, Control_c, 0, 64, 0
1, 385289, Control_c, 0, 67, 24
1, 385292, Note_on_c, 0, 77, 90
1, 385297, Note_on_c, 0, 69, 77
1, 385302, Note_off_c, 0, 37, 72
1, 385304, Control_c, 0, 67, 16
1, 385311, Note_off_c, 0, 77, 72
1, 385319, Control_c, 0, 67, 10
1, 385320, Note_off_c, 0, 69, 71
1, 385322, Note_on_c, 0, 71, 53
1, 385333, Control_c, 0, 67, 10
1, 385344, Note_off_c, 0, 71, 41
1, 385348, Control_c, 0, 67, 11
1, 385363, Control_c, 0, 67, 12
1, 385370, Note_on_c, 0, 65, 74
1, 385391, Note_on_c, 0, 55, 74
1, 385393, Note_off_c, 0, 65, 69
1, 385407, Control_c, 0, 67, 11
1, 385427, Note_off_c, 0, 55, 64
1, 385439, Note_on_c, 0, 65, 79
1, 385458, Note_on_c, 0, 57, 59
1, 385460, Note_off_c, 0, 65, 69
1, 385481, Note_on_c, 0, 63, 69
1, 385500, Note_off_c, 0, 63, 40
1, 385504, Note_off_c, 0, 57, 65
1, 385520, Note_on_c, 0, 55, 62
1, 385526, Control_c, 0, 67, 10
1, 385541, Control_c, 0, 67, 9
1, 385546, Note_on_c, 0, 65, 76
1, 385550, Note_on_c, 0, 69, 83
1, 385551, Note_on_c, 0, 77, 86
1, 385555, Control_c, 0, 67, 8
1, 385561, Note_off_c, 0, 55, 63
1, 385570, Control_c, 0, 67, 0
1, 385585, Note_on_c, 0, 57, 61
1, 385620, Note_off_c, 0, 57, 64
1, 385631, Note_on_c, 0, 55, 52
1, 385645, Control_c, 0, 67, 8
1, 385674, Control_c, 0, 67, 8
1, 385679, Note_off_c, 0, 55, 63
1, 385689, Note_on_c, 0, 49, 71
1, 385748, Control_c, 0, 64, 36
1, 385754, Note_on_c, 0, 55, 67
1, 385763, Control_c, 0, 64, 44
1, 385763, Control_c, 0, 67, 8
1, 385764, Note_off_c, 0, 49, 54
1, 385777, Control_c, 0, 64, 46
1, 385777, Control_c, 0, 67, 0
1, 385791, Note_off_c, 0, 55, 65
1, 385807, Control_c, 0, 64, 48
1, 385812, Note_on_c, 0, 57, 69
1, 385822, Control_c, 0, 64, 51
1, 385837, Control_c, 0, 64, 54
1, 385851, Control_c, 0, 64, 55
1, 385856, Note_off_c, 0, 57, 62
1, 385866, Control_c, 0, 64, 57
1, 385881, Control_c, 0, 64, 58
1, 385882, Note_off_c, 0, 65, 60
1, 385885, Note_on_c, 0, 55, 61
1, 385895, Control_c, 0, 64, 60
1, 385901, Note_off_c, 0, 69, 63
1, 385910, Note_off_c, 0, 77, 60
1, 385910, Control_c, 0, 64, 61
1, 385914, Note_off_c, 0, 55, 67
1, 385921, Note_on_c, 0, 57, 63
1, 385926, Control_c, 0, 64, 63
1, 385941, Control_c, 0, 64, 65
1, 385963, Control_c, 0, 64, 68
1, 385978, Control_c, 0, 64, 73
1, 385984, Note_on_c, 0, 55, 83
1, 385990, Note_off_c, 0, 57, 63
1, 385993, Control_c, 0, 64, 82
1, 386007, Control_c, 0, 64, 98
1, 386017, Note_off_c, 0, 55, 65
1, 386022, Control_c, 0, 64, 122
1, 386037, Control_c, 0, 64, 127
1, 386052, Note_on_c, 0, 49, 108
1, 386052, Control_c, 0, 64, 106
1, 386067, Control_c, 0, 64, 81
1, 386074, Note_off_c, 0, 49, 69
1, 386081, Control_c, 0, 64, 61
1, 386096, Control_c, 0, 64, 9
1, 386111, Control_c, 0, 64, 0
1, 386113, Note_on_c, 0, 81, 78
1, 386117, Note_on_c, 0, 79, 74
1, 386155, Note_off_c, 0, 81, 61
1, 386156, Note_off_c, 0, 79, 60
1, 386166, Note_on_c, 0, 69, 81
1, 386197, Note_off_c, 0, 69, 63
1, 386231, Note_on_c, 0, 67, 85
1, 386250, Note_off_c, 0, 67, 70
1, 386300, Note_on_c, 0, 57, 71
1, 386341, Note_off_c, 0, 57, 62
1, 386382, Note_on_c, 0, 55, 71
1, 386393, Control_c, 0, 64, 25
1, 386407, Control_c, 0, 64, 26
1, 386417, Note_off_c, 0, 55, 65
1, 386422, Note_on_c, 0, 49, 68
1, 386422, Control_c, 0, 64, 0
1, 386428, Note_on_c, 0, 63, 82
1, 386430, Note_on_c, 0, 75, 78
1, 386450, Note_off_c, 0, 63, 68
1, 386451, Note_off_c, 0, 75, 69
1, 386499, Note_on_c, 0, 55, 64
1, 386530, Note_off_c, 0, 55, 65
1, 386536, Note_off_c, 0, 49, 57
1, 386550, Note_on_c, 0, 57, 68
1, 386563, Note_on_c, 0, 77, 73
1, 386563, Note_on_c, 0, 65, 71
1, 386585, Note_off_c, 0, 77, 68
1, 386587, Note_off_c, 0, 65, 68
1, 386599, Note_off_c, 0, 57, 60
1, 386625, Note_on_c, 0, 55, 62
1, 386670, Note_off_c, 0, 55, 64
1, 386689, Note_on_c, 0, 57, 69
1, 386692, Note_on_c, 0, 72, 73
1, 386703, Note_on_c, 0, 60, 77
1, 386721, Note_off_c, 0, 72, 68
1, 386726, Note_off_c, 0, 60, 68
1, 386741, Note_off_c, 0, 57, 65
1, 386743, Note_on_c, 0, 69, 14
1, 386766, Note_on_c, 0, 55, 30
1, 386770, Note_off_c, 0, 69, 35
1, 386789, Note_off_c, 0, 55, 52
1, 386795, Note_on_c, 0, 49, 75
1, 386838, Note_on_c, 0, 58, 68
1, 386843, Note_on_c, 0, 70, 59
1, 386858, Note_off_c, 0, 58, 63
1, 386867, Note_off_c, 0, 70, 40
1, 386870, Note_off_c, 0, 49, 60
1, 386897, Note_on_c, 0, 52, 58
1, 386944, Note_on_c, 0, 54, 65
1, 386950, Note_off_c, 0, 52, 63
1, 386956, Note_on_c, 0, 75, 69
1, 386957, Note_on_c, 0, 63, 77
1, 386974, Note_off_c, 0, 63, 70
1, 386980, Note_off_c, 0, 75, 65
1, 386984, Note_off_c, 0, 54, 64
1, 387010, Note_on_c, 0, 61, 7
1, 387041, Note_on_c, 0, 52, 52
1, 387062, Note_off_c, 0, 61, 28
1, 387071, Note_off_c, 0, 52, 63
1, 387073, Note_on_c, 0, 54, 61
1, 387084, Note_on_c, 0, 58, 75
1, 387085, Note_on_c, 0, 70, 69
1, 387101, Note_off_c, 0, 58, 68
1, 387109, Note_off_c, 0, 70, 67
1, 387134, Note_off_c, 0, 54, 63
1, 387150, Note_on_c, 0, 52, 63
1, 387192, Note_off_c, 0, 52, 66
1, 387201, Note_on_c, 0, 49, 83
1, 387226, Note_off_c, 0, 49, 68
1, 387230, Control_c, 0, 64, 18
1, 387245, Control_c, 0, 64, 30
1, 387249, Note_on_c, 0, 78, 65
1, 387256, Note_on_c, 0, 76, 67
1, 387260, Control_c, 0, 64, 39
1, 387275, Control_c, 0, 64, 44
1, 387279, Note_off_c, 0, 78, 62
1, 387284, Note_off_c, 0, 76, 63
1, 387290, Control_c, 0, 64, 46
1, 387304, Control_c, 0, 64, 47
1, 387311, Note_on_c, 0, 66, 67
1, 387333, Note_off_c, 0, 66, 68
1, 387348, Control_c, 0, 64, 46
1, 387363, Control_c, 0, 64, 44
1, 387367, Note_on_c, 0, 65, 65
1, 387378, Control_c, 0, 64, 40
1, 387393, Control_c, 0, 64, 38
1, 387394, Note_off_c, 0, 65, 66
1, 387408, Control_c, 0, 64, 37
1, 387422, Control_c, 0, 64, 36
1, 387437, Control_c, 0, 64, 36
1, 387442, Note_on_c, 0, 54, 66
1, 387460, Control_c, 0, 64, 35
1, 387475, Control_c, 0, 64, 33
1, 387484, Note_off_c, 0, 54, 66
1, 387490, Control_c, 0, 64, 32
1, 387504, Control_c, 0, 64, 31
1, 387507, Note_on_c, 0, 52, 54
1, 387519, Control_c, 0, 64, 30
1, 387535, Control_c, 0, 64, 28
1, 387544, Note_off_c, 0, 52, 60
1, 387550, Control_c, 0, 64, 26
1, 387552, Note_on_c, 0, 49, 73
1, 387562, Note_on_c, 0, 46, 74
1, 387579, Control_c, 0, 64, 26
1, 387591, Note_off_c, 0, 46, 64
1, 387594, Control_c, 0, 64, 24
1, 387609, Control_c, 0, 64, 21
1, 387612, Note_off_c, 0, 49, 58
1, 387624, Control_c, 0, 64, 13
1, 387627, Note_on_c, 0, 52, 59
1, 387639, Control_c, 0, 64, 0
1, 387669, Note_off_c, 0, 52, 62
1, 387691, Note_on_c, 0, 51, 70
1, 387698, Note_on_c, 0, 54, 61
1, 387720, Note_off_c, 0, 51, 66
1, 387733, Note_off_c, 0, 54, 61
1, 387772, Note_on_c, 0, 52, 56
1, 387797, Note_off_c, 0, 52, 59
1, 387813, Note_on_c, 0, 46, 56
1, 387829, Note_on_c, 0, 54, 55
1, 387837, Note_off_c, 0, 46, 54
1, 387866, Note_off_c, 0, 54, 63
1, 387881, Note_on_c, 0, 52, 61
1, 387928, Note_off_c, 0, 52, 63
1, 387929, Note_on_c, 0, 34, 79
1, 387954, Note_off_c, 0, 34, 66
1, 388017, Note_on_c, 0, 54, 18
1, 388026, Note_on_c, 0, 52, 43
1, 388060, Note_on_c, 0, 39, 62
1, 388062, Note_off_c, 0, 52, 63
1, 388072, Note_off_c, 0, 54, 43
1, 388094, Note_off_c, 0, 39, 64
1, 388141, Note_on_c, 0, 52, 40
1, 388170, Note_off_c, 0, 52, 58
1, 388188, Note_on_c, 0, 34, 63
1, 388193, Note_on_c, 0, 54, 55
1, 388226, Note_off_c, 0, 34, 64
1, 388274, Note_on_c, 0, 52, 47
1, 388301, Note_off_c, 0, 54, 33
1, 388327, Note_off_c, 0, 52, 65
1, 388372, Control_c, 0, 64, 16
1, 388387, Control_c, 0, 64, 38
1, 388392, Note_on_c, 0, 22, 80
1, 388402, Control_c, 0, 64, 54
1, 388417, Control_c, 0, 64, 61
1, 388420, Note_off_c, 0, 22, 64
1, 388432, Control_c, 0, 64, 65
1, 388447, Control_c, 0, 64, 68
1, 388462, Control_c, 0, 64, 72
1, 388476, Control_c, 0, 64, 80
1, 388491, Control_c, 0, 64, 85
1, 388506, Control_c, 0, 64, 89
1, 388521, Control_c, 0, 64, 96
1, 388536, Control_c, 0, 64, 110
1, 388550, Control_c, 0, 64, 127
1, 388802, Note_on_c, 0, 99, 58
1, 388862, Note_off_c, 0, 99, 53
1, 388870, Note_on_c, 0, 94, 57
1, 388900, Note_off_c, 0, 94, 64
1, 388927, Note_on_c, 0, 90, 64
1, 388960, Note_off_c, 0, 90, 66
1, 388985, Note_on_c, 0, 97, 69
1, 389025, Note_on_c, 0, 92, 69
1, 389028, Note_off_c, 0, 97, 59
1, 389057, Note_off_c, 0, 92, 58
1, 389073, Note_on_c, 0, 88, 61
1, 389098, Note_off_c, 0, 88, 66
1, 389108, Note_on_c, 0, 87, 69
1, 389157, Note_off_c, 0, 87, 65
1, 389162, Note_on_c, 0, 85, 72
1, 389205, Note_on_c, 0, 76, 68
1, 389214, Note_on_c, 0, 80, 64
1, 389216, Note_off_c, 0, 85, 63
1, 389237, Note_off_c, 0, 80, 67
1, 389270, Note_on_c, 0, 75, 81
1, 389273, Note_off_c, 0, 76, 64
1, 389317, Note_on_c, 0, 70, 75
1, 389322, Note_off_c, 0, 75, 65
1, 389343, Note_off_c, 0, 70, 65
1, 389356, Note_on_c, 0, 66, 85
1, 389389, Note_off_c, 0, 66, 63
1, 389402, Note_on_c, 0, 73, 86
1, 389438, Note_on_c, 0, 68, 83
1, 389448, Note_off_c, 0, 73, 65
1, 389465, Note_on_c, 0, 64, 87
1, 389477, Note_off_c, 0, 68, 64
1, 389490, Note_off_c, 0, 64, 67
1, 389520, Note_on_c, 0, 63, 90
1, 389570, Note_off_c, 0, 63, 66
1, 389573, Note_on_c, 0, 61, 82
1, 389600, Note_on_c, 0, 56, 70
1, 389613, Note_off_c, 0, 61, 66
1, 389619, Note_on_c, 0, 50, 68
1, 389622, Note_on_c, 0, 52, 72
1, 389645, Note_off_c, 0, 56, 64
1, 389651, Note_off_c, 0, 50, 64
1, 389653, Note_on_c, 0, 51, 68
1, 389653, Note_on_c, 0, 55, 29
1, 389664, Note_off_c, 0, 52, 66
1, 389699, Note_off_c, 0, 55, 31
1, 389704, Note_on_c, 0, 46, 85
1, 389717, Note_off_c, 0, 51, 65
1, 389747, Note_on_c, 0, 42, 90
1, 389752, Note_off_c, 0, 46, 64
1, 389781, Note_on_c, 0, 41, 52
1, 389791, Note_on_c, 0, 49, 90
1, 389791, Note_off_c, 0, 42, 64
1, 389807, Note_off_c, 0, 41, 56
1, 389845, Note_on_c, 0, 45, 75
1, 389860, Note_off_c, 0, 49, 64
1, 389862, Note_on_c, 0, 44, 78
1, 389867, Note_on_c, 0, 40, 91
1, 389875, Note_on_c, 0, 41, 78
1, 389880, Note_off_c, 0, 45, 64
1, 389893, Note_off_c, 0, 44, 63
1, 389896, Note_off_c, 0, 41, 60
1, 389907, Note_off_c, 0, 40, 64
1, 389911, Note_on_c, 0, 32, 12
1, 389929, Note_on_c, 0, 39, 101
1, 389955, Note_on_c, 0, 40, 63
1, 389958, Note_off_c, 0, 32, 29
1, 389973, Note_on_c, 0, 37, 70
1, 389978, Note_off_c, 0, 39, 65
1, 389982, Note_off_c, 0, 40, 64
1, 390016, Note_on_c, 0, 32, 87
1, 390027, Note_on_c, 0, 28, 95
1, 390037, Note_off_c, 0, 37, 64
1, 390042, Note_off_c, 0, 32, 64
1, 390067, Note_off_c, 0, 28, 67
1, 390087, Note_on_c, 0, 32, 116
1, 390155, Note_on_c, 0, 28, 105
1, 390180, Note_on_c, 0, 37, 59
1, 390200, Note_on_c, 0, 34, 23
1, 390209, Note_off_c, 0, 32, 57
1, 390213, Note_off_c, 0, 37, 63
1, 390225, Note_off_c, 0, 28, 65
1, 390226, Control_c, 0, 64, 69
1, 390241, Control_c, 0, 64, 0
1, 390241, Note_off_c, 0, 34, 30
1, 390253, Note_on_c, 0, 22, 111
1, 390271, Note_on_c, 0, 23, 73
1, 390272, Note_off_c, 0, 23, 127
1, 390275, Note_on_c, 0, 24, 68
1, 390276, Note_off_c, 0, 24, 127
1, 390280, Note_on_c, 0, 28, 82
1, 390285, Control_c, 0, 64, 32
1, 390299, Control_c, 0, 64, 63
1, 390303, Note_off_c, 0, 22, 63
1, 390314, Control_c, 0, 64, 73
1, 390320, Note_off_c, 0, 28, 66
1, 390329, Control_c, 0, 64, 83
1, 390344, Control_c, 0, 64, 89
1, 390347, Note_on_c, 0, 32, 83
1, 390359, Control_c, 0, 64, 90
1, 390397, Note_off_c, 0, 32, 64
1, 390398, Note_on_c, 0, 28, 57
1, 390411, Note_on_c, 0, 37, 55
1, 390419, Control_c, 0, 64, 90
1, 390428, Note_off_c, 0, 28, 36
1, 390437, Note_off_c, 0, 37, 65
1, 390483, Note_on_c, 0, 38, 81
1, 390483, Note_on_c, 0, 34, 76
1, 390500, Control_c, 0, 64, 91
1, 390516, Note_off_c, 0, 38, 65
1, 390516, Note_on_c, 0, 37, 73
1, 390543, Note_off_c, 0, 34, 63
1, 390545, Control_c, 0, 64, 91
1, 390545, Note_off_c, 0, 37, 62
1, 390554, Note_on_c, 0, 44, 59
1, 390563, Note_on_c, 0, 40, 67
1, 390567, Note_on_c, 0, 43, 68
1, 390574, Control_c, 0, 64, 92
1, 390583, Note_off_c, 0, 44, 55
1, 390589, Control_c, 0, 64, 94
1, 390595, Note_off_c, 0, 43, 64
1, 390604, Control_c, 0, 64, 95
1, 390605, Note_on_c, 0, 49, 79
1, 390608, Note_off_c, 0, 40, 67
1, 390619, Control_c, 0, 64, 96
1, 390631, Note_off_c, 0, 49, 69
1, 390634, Control_c, 0, 64, 97
1, 390663, Control_c, 0, 64, 97
1, 390666, Note_on_c, 0, 46, 80
1, 390677, Note_on_c, 0, 52, 80
1, 390691, Note_on_c, 0, 49, 74
1, 390728, Note_on_c, 0, 51, 74
1, 390729, Note_on_c, 0, 56, 84
1, 390730, Note_off_c, 0, 46, 63
1, 390736, Note_off_c, 0, 52, 62
1, 390745, Note_off_c, 0, 49, 61
1, 390753, Control_c, 0, 64, 99
1, 390757, Note_off_c, 0, 51, 68
1, 390759, Note_on_c, 0, 52, 56
1, 390768, Control_c, 0, 64, 102
1, 390781, Note_off_c, 0, 56, 64
1, 390783, Note_on_c, 0, 61, 84
1, 390783, Control_c, 0, 64, 111
1, 390786, Note_off_c, 0, 52, 66
1, 390797, Control_c, 0, 64, 127
1, 390802, Note_off_c, 0, 61, 72
1, 390842, Control_c, 0, 64, 122
1, 390854, Note_on_c, 0, 64, 88
1, 390855, Note_on_c, 0, 58, 52
1, 390857, Control_c, 0, 64, 91
1, 390864, Note_on_c, 0, 61, 81
1, 390867, Note_on_c, 0, 59, 63
1, 390871, Control_c, 0, 64, 72
1, 390879, Note_off_c, 0, 58, 59
1, 390886, Control_c, 0, 64, 56
1, 390887, Note_off_c, 0, 59, 61
1, 390901, Control_c, 0, 64, 36
1, 390903, Note_on_c, 0, 63, 71
1, 390905, Note_off_c, 0, 61, 62
1, 390911, Note_on_c, 0, 68, 82
1, 390915, Note_off_c, 0, 64, 0
1, 390916, Control_c, 0, 64, 26
1, 390925, Note_off_c, 0, 63, 68
1, 390928, Note_on_c, 0, 64, 56
1, 390945, Control_c, 0, 64, 24
1, 390952, Note_off_c, 0, 64, 68
1, 390956, Note_off_c, 0, 68, 67
1, 390958, Note_on_c, 0, 73, 82
1, 390960, Control_c, 0, 64, 22
1, 390975, Control_c, 0, 64, 21
1, 390978, Note_off_c, 0, 73, 71
1, 390990, Control_c, 0, 64, 19
1, 391019, Control_c, 0, 64, 18
1, 391023, Note_on_c, 0, 70, 75
1, 391029, Note_on_c, 0, 76, 85
1, 391034, Control_c, 0, 64, 13
1, 391049, Control_c, 0, 64, 0
1, 391053, Note_on_c, 0, 73, 70
1, 391058, Note_off_c, 0, 70, 65
1, 391079, Note_off_c, 0, 73, 67
1, 391088, Note_on_c, 0, 80, 82
1, 391088, Note_on_c, 0, 75, 52
1, 391089, Note_off_c, 0, 76, 0
1, 391104, Note_on_c, 0, 76, 58
1, 391111, Note_off_c, 0, 75, 56
1, 391127, Note_off_c, 0, 76, 67
1, 391128, Note_off_c, 0, 80, 64
1, 391136, Note_on_c, 0, 85, 81
1, 391137, Control_c, 0, 64, 8
1, 391152, Control_c, 0, 64, 12
1, 391157, Note_off_c, 0, 85, 70
1, 391167, Control_c, 0, 64, 13
1, 391207, Note_on_c, 0, 82, 73
1, 391219, Control_c, 0, 64, 14
1, 391219, Note_on_c, 0, 88, 74
1, 391233, Note_on_c, 0, 85, 67
1, 391234, Control_c, 0, 64, 19
1, 391243, Note_off_c, 0, 82, 58
1, 391249, Control_c, 0, 64, 22
1, 391264, Note_off_c, 0, 88, 62
1, 391272, Note_on_c, 0, 92, 85
1, 391273, Note_on_c, 0, 87, 72
1, 391274, Note_off_c, 0, 85, 65
1, 391304, Note_off_c, 0, 87, 60
1, 391312, Note_on_c, 0, 88, 62
1, 391316, Note_off_c, 0, 92, 62
1, 391334, Note_off_c, 0, 88, 69
1, 391340, Note_on_c, 0, 86, 29
1, 391341, Note_off_c, 0, 86, 127
1, 391347, Note_on_c, 0, 94, 78
1, 391367, Control_c, 0, 64, 24
1, 391372, Note_off_c, 0, 94, 64
1, 391382, Control_c, 0, 64, 26
1, 391396, Control_c, 0, 64, 27
1, 391399, Note_on_c, 0, 92, 101
1, 391400, Note_on_c, 0, 97, 94
1, 391413, Note_off_c, 0, 97, 76
1, 391415, Note_off_c, 0, 92, 69
1, 391426, Control_c, 0, 64, 25
1, 391441, Control_c, 0, 64, 19
1, 391455, Control_c, 0, 64, 0
1, 392131, Control_c, 0, 64, 16
1, 392145, Control_c, 0, 64, 26
1, 392160, Control_c, 0, 64, 33
1, 392175, Control_c, 0, 64, 39
1, 392190, Control_c, 0, 64, 46
1, 392205, Control_c, 0, 64, 52
1, 392219, Control_c, 0, 64, 57
1, 392234, Control_c, 0, 64, 61
1, 392249, Control_c, 0, 64, 64
1, 392264, Control_c, 0, 64, 67
1, 392278, Control_c, 0, 64, 70
1, 392293, Control_c, 0, 64, 73
1, 392308, Control_c, 0, 64, 75
1, 392324, Control_c, 0, 64, 76
1, 392337, Note_on_c, 0, 44, 73
1, 392368, Control_c, 0, 64, 75
1, 392369, Note_off_c, 0, 44, 64
1, 392383, Control_c, 0, 64, 71
1, 392383, Control_c, 0, 67, 8
1, 392390, Note_on_c, 0, 63, 60
1, 392398, Control_c, 0, 64, 63
1, 392398, Control_c, 0, 67, 13
1, 392413, Control_c, 0, 64, 49
1, 392413, Control_c, 0, 67, 19
1, 392419, Note_off_c, 0, 63, 67
1, 392427, Note_on_c, 0, 56, 56
1, 392428, Control_c, 0, 64, 21
1, 392428, Control_c, 0, 67, 23
1, 392442, Control_c, 0, 64, 0
1, 392442, Control_c, 0, 67, 28
1, 392451, Note_off_c, 0, 56, 55
1, 392457, Control_c, 0, 67, 35
1, 392472, Control_c, 0, 67, 44
1, 392486, Control_c, 0, 67, 59
1, 392500, Note_on_c, 0, 60, 71
1, 392501, Control_c, 0, 67, 74
1, 392502, Note_on_c, 0, 51, 71
1, 392516, Control_c, 0, 67, 88
1, 392522, Note_off_c, 0, 60, 67
1, 392525, Note_off_c, 0, 51, 67
1, 392531, Control_c, 0, 67, 99
1, 392546, Control_c, 0, 67, 108
1, 392561, Control_c, 0, 67, 114
1, 392569, Note_on_c, 0, 51, 75
1, 392575, Control_c, 0, 67, 117
1, 392590, Control_c, 0, 67, 118
1, 392598, Note_off_c, 0, 51, 67
1, 392635, Control_c, 0, 67, 118
1, 392645, Note_on_c, 0, 51, 61
1, 392668, Note_off_c, 0, 51, 63
1, 392680, Control_c, 0, 67, 118
1, 392710, Note_on_c, 0, 52, 75
1, 392736, Note_off_c, 0, 52, 65
1, 392775, Control_c, 0, 67, 119
1, 392787, Note_on_c, 0, 54, 75
1, 392790, Control_c, 0, 67, 120
1, 392805, Control_c, 0, 67, 122
1, 392811, Note_on_c, 0, 55, 63
1, 392812, Note_on_c, 0, 59, 66
1, 392817, Note_off_c, 0, 54, 67
1, 392820, Control_c, 0, 67, 124
1, 392832, Note_off_c, 0, 55, 65
1, 392835, Control_c, 0, 67, 125
1, 392838, Note_off_c, 0, 59, 66
1, 392850, Control_c, 0, 67, 126
1, 392865, Control_c, 0, 67, 126
1, 392869, Note_on_c, 0, 54, 62
1, 392889, Note_off_c, 0, 54, 64
1, 392950, Note_on_c, 0, 54, 47
1, 393003, Note_off_c, 0, 54, 0
1, 393003, Note_on_c, 0, 54, 60
1, 393030, Note_off_c, 0, 54, 64
1, 393035, Note_on_c, 0, 55, 66
1, 393056, Note_off_c, 0, 55, 61
1, 393057, Control_c, 0, 67, 126
1, 393101, Control_c, 0, 67, 125
1, 393117, Control_c, 0, 67, 125
1, 393127, Note_on_c, 0, 52, 69
1, 393147, Control_c, 0, 67, 125
1, 393154, Note_off_c, 0, 52, 66
1, 393162, Control_c, 0, 67, 126
1, 393177, Control_c, 0, 67, 127
1, 393184, Note_on_c, 0, 44, 76
1, 393204, Note_on_c, 0, 51, 45
1, 393213, Note_off_c, 0, 44, 65
1, 393219, Note_on_c, 0, 50, 47
1, 393233, Note_off_c, 0, 51, 37
1, 393249, Note_off_c, 0, 50, 36
1, 393256, Note_on_c, 0, 63, 56
1, 393271, Note_on_c, 0, 56, 68
1, 393277, Note_off_c, 0, 63, 63
1, 393300, Note_off_c, 0, 56, 67
1, 393338, Note_on_c, 0, 51, 55
1, 393348, Note_on_c, 0, 58, 73
1, 393356, Note_on_c, 0, 54, 52
1, 393365, Note_off_c, 0, 58, 67
1, 393376, Note_off_c, 0, 51, 0
1, 393381, Note_off_c, 0, 54, 58
1, 393413, Poly_aftertouch_c, 0, 51, 127
1, 393431, Poly_aftertouch_c, 0, 51, 0
1, 393484, Note_on_c, 0, 51, 65
1, 393514, Note_off_c, 0, 51, 65
1, 393553, Note_on_c, 0, 52, 69
1, 393579, Note_off_c, 0, 52, 66
1, 393622, Note_on_c, 0, 57, 72
1, 393627, Note_on_c, 0, 48, 81
1, 393627, Note_on_c, 0, 53, 64
1, 393640, Note_off_c, 0, 57, 63
1, 393646, Note_off_c, 0, 53, 63
1, 393660, Note_off_c, 0, 48, 62
1, 393666, Note_on_c, 0, 50, 22
1, 393667, Note_off_c, 0, 50, 127
1, 393696, Note_on_c, 0, 48, 56
1, 393724, Note_off_c, 0, 48, 64
1, 393765, Note_on_c, 0, 48, 65
1, 393791, Note_off_c, 0, 48, 65
1, 393849, Note_on_c, 0, 48, 51
1, 393890, Note_off_c, 0, 48, 0
1, 393890, Note_on_c, 0, 48, 47
1, 393919, Note_on_c, 0, 52, 61
1, 393920, Note_on_c, 0, 56, 43
1, 393936, Note_off_c, 0, 48, 63
1, 393950, Note_off_c, 0, 56, 35
1, 393953, Note_off_c, 0, 52, 64
1, 393959, Note_on_c, 0, 49, 63
1, 393984, Note_off_c, 0, 49, 42
1, 394033, Note_on_c, 0, 44, 74
1, 394057, Note_on_c, 0, 51, 55
1, 394094, Note_off_c, 0, 44, 64
1, 394133, Note_on_c, 0, 75, 59
1, 394140, Note_on_c, 0, 68, 52
1, 394159, Note_off_c, 0, 75, 65
1, 394164, Note_off_c, 0, 68, 59
1, 394197, Note_on_c, 0, 63, 78
1, 394203, Note_on_c, 0, 60, 78
1, 394206, Note_on_c, 0, 56, 70
1, 394219, Note_off_c, 0, 51, 63
1, 394223, Note_off_c, 0, 63, 64
1, 394224, Note_off_c, 0, 60, 68
1, 394224, Note_off_c, 0, 56, 66
1, 394289, Note_on_c, 0, 63, 57
1, 394329, Note_off_c, 0, 63, 0
1, 394329, Note_on_c, 0, 63, 53
1, 394334, Control_c, 0, 67, 127
1, 394348, Control_c, 0, 67, 124
1, 394356, Note_off_c, 0, 63, 66
1, 394363, Control_c, 0, 67, 121
1, 394378, Control_c, 0, 67, 117
1, 394393, Control_c, 0, 67, 113
1, 394400, Note_on_c, 0, 64, 70
1, 394408, Control_c, 0, 67, 110
1, 394422, Control_c, 0, 67, 107
1, 394424, Note_off_c, 0, 64, 69
1, 394437, Control_c, 0, 67, 105
1, 394452, Control_c, 0, 67, 104
1, 394469, Note_on_c, 0, 54, 77
1, 394474, Note_on_c, 0, 59, 75
1, 394474, Note_on_c, 0, 66, 59
1, 394491, Note_off_c, 0, 54, 70
1, 394493, Note_off_c, 0, 66, 40
1, 394495, Note_off_c, 0, 59, 68
1, 394511, Control_c, 0, 67, 105
1, 394545, Note_on_c, 0, 54, 65
1, 394564, Note_off_c, 0, 54, 64
1, 394640, Note_on_c, 0, 54, 61
1, 394683, Note_off_c, 0, 54, 62
1, 394726, Note_on_c, 0, 55, 69
1, 394739, Note_on_c, 0, 66, 69
1, 394754, Note_off_c, 0, 55, 67
1, 394759, Note_off_c, 0, 66, 69
1, 394763, Control_c, 0, 67, 105
1, 394778, Control_c, 0, 67, 106
1, 394793, Control_c, 0, 67, 107
1, 394799, Note_on_c, 0, 52, 71
1, 394808, Control_c, 0, 67, 107
1, 394823, Control_c, 0, 67, 108
1, 394826, Note_off_c, 0, 52, 66
1, 394853, Control_c, 0, 67, 107
1, 394866, Note_on_c, 0, 44, 73
1, 394868, Control_c, 0, 67, 107
1, 394883, Note_on_c, 0, 51, 73
1, 394883, Control_c, 0, 67, 106
1, 394897, Control_c, 0, 67, 104
1, 394912, Control_c, 0, 67, 102
1, 394927, Control_c, 0, 67, 100
1, 394949, Control_c, 0, 67, 97
1, 394959, Note_on_c, 0, 75, 75
1, 394964, Control_c, 0, 67, 93
1, 394973, Note_on_c, 0, 68, 65
1, 394978, Control_c, 0, 67, 89
1, 394985, Note_off_c, 0, 75, 65
1, 394993, Control_c, 0, 67, 83
1, 394999, Note_off_c, 0, 68, 69
1, 395003, Note_off_c, 0, 44, 57
1, 395008, Control_c, 0, 67, 78
1, 395023, Control_c, 0, 67, 74
1, 395029, Note_off_c, 0, 51, 63
1, 395032, Note_on_c, 0, 63, 75
1, 395036, Note_on_c, 0, 54, 61
1, 395037, Note_on_c, 0, 58, 78
1, 395038, Control_c, 0, 67, 70
1, 395053, Control_c, 0, 67, 66
1, 395055, Note_off_c, 0, 58, 67
1, 395057, Note_off_c, 0, 54, 59
1, 395061, Note_off_c, 0, 63, 62
1, 395067, Control_c, 0, 67, 64
1, 395082, Control_c, 0, 67, 63
1, 395097, Control_c, 0, 67, 63
1, 395112, Note_on_c, 0, 63, 64
1, 395127, Control_c, 0, 67, 61
1, 395132, Note_off_c, 0, 63, 58
1, 395142, Control_c, 0, 67, 58
1, 395157, Control_c, 0, 67, 50
1, 395171, Control_c, 0, 67, 41
1, 395182, Note_on_c, 0, 63, 77
1, 395186, Control_c, 0, 67, 30
1, 395201, Control_c, 0, 67, 16
1, 395204, Note_off_c, 0, 63, 68
1, 395215, Control_c, 0, 67, 0
1, 395242, Note_on_c, 0, 64, 74
1, 395265, Note_off_c, 0, 64, 70
1, 395297, Note_on_c, 0, 48, 77
1, 395306, Note_on_c, 0, 60, 66
1, 395312, Note_on_c, 0, 57, 72
1, 395315, Note_off_c, 0, 48, 67
1, 395324, Note_off_c, 0, 60, 40
1, 395325, Note_on_c, 0, 53, 61
1, 395334, Control_c, 0, 67, 9
1, 395348, Note_off_c, 0, 53, 63
1, 395350, Note_off_c, 0, 57, 64
1, 395363, Control_c, 0, 67, 10
1, 395378, Control_c, 0, 67, 11
1, 395383, Note_on_c, 0, 48, 70
1, 395393, Control_c, 0, 67, 13
1, 395403, Note_off_c, 0, 48, 59
1, 395408, Control_c, 0, 67, 14
1, 395437, Control_c, 0, 67, 15
1, 395446, Note_on_c, 0, 47, 64
1, 395465, Note_on_c, 0, 48, 63
1, 395467, Note_off_c, 0, 47, 62
1, 395467, Control_c, 0, 67, 15
1, 395482, Control_c, 0, 67, 16
1, 395488, Note_off_c, 0, 48, 41
1, 395497, Control_c, 0, 67, 16
1, 395512, Control_c, 0, 67, 17
1, 395530, Note_on_c, 0, 48, 73
1, 395567, Note_on_c, 0, 60, 59
1, 395577, Note_on_c, 0, 56, 62
1, 395583, Note_on_c, 0, 52, 56
1, 395594, Note_off_c, 0, 60, 66
1, 395607, Note_off_c, 0, 56, 65
1, 395612, Note_off_c, 0, 52, 64
1, 395614, Note_on_c, 0, 49, 58
1, 395629, Note_off_c, 0, 48, 62
1, 395642, Note_off_c, 0, 49, 65
1, 395660, Control_c, 0, 64, 10
1, 395675, Control_c, 0, 64, 21
1, 395697, Control_c, 0, 64, 34
1, 395712, Control_c, 0, 67, 16
1, 395726, Control_c, 0, 64, 23
1, 395726, Control_c, 0, 67, 15
1, 395735, Note_on_c, 0, 42, 72
1, 395741, Control_c, 0, 64, 0
1, 395741, Control_c, 0, 67, 12
1, 395756, Control_c, 0, 67, 10
1, 395757, Note_off_c, 0, 42, 60
1, 395771, Control_c, 0, 67, 8
1, 395786, Control_c, 0, 67, 0
1, 395802, Note_on_c, 0, 85, 80
1, 395812, Note_on_c, 0, 78, 77
1, 395822, Note_off_c, 0, 85, 70
1, 395834, Note_off_c, 0, 78, 69
1, 395868, Note_on_c, 0, 73, 48
1, 395878, Note_on_c, 0, 58, 76
1, 395884, Note_on_c, 0, 61, 66
1, 395893, Note_off_c, 0, 73, 55
1, 395897, Note_off_c, 0, 58, 66
1, 395902, Note_off_c, 0, 61, 66
1, 395905, Note_on_c, 0, 69, 27
1, 395914, Note_on_c, 0, 67, 10
1, 395915, Note_off_c, 0, 67, 127
1, 395936, Note_off_c, 0, 69, 37
1, 395947, Note_on_c, 0, 73, 79
1, 395971, Note_off_c, 0, 73, 67
1, 396001, Note_on_c, 0, 61, 70
1, 396032, Note_off_c, 0, 61, 67
1, 396045, Note_on_c, 0, 62, 74
1, 396069, Note_off_c, 0, 62, 70
1, 396125, Note_on_c, 0, 66, 94
1, 396125, Note_on_c, 0, 78, 88
1, 396128, Note_on_c, 0, 73, 80
1, 396129, Note_on_c, 0, 58, 75
1, 396132, Note_on_c, 0, 69, 77
1, 396141, Note_off_c, 0, 66, 73
1, 396142, Note_on_c, 0, 67, 67
1, 396148, Note_off_c, 0, 73, 71
1, 396149, Note_off_c, 0, 69, 68
1, 396153, Note_on_c, 0, 61, 38
1, 396154, Note_off_c, 0, 61, 127
1, 396154, Note_off_c, 0, 58, 67
1, 396159, Note_on_c, 0, 62, 22
1, 396160, Note_off_c, 0, 62, 127
1, 396162, Note_off_c, 0, 67, 42
1, 396167, Note_off_c, 0, 78, 67
1, 396190, Note_on_c, 0, 75, 2
1, 396196, Note_off_c, 0, 75, 39
1, 396214, Note_on_c, 0, 66, 75
1, 396275, Note_off_c, 0, 66, 57
1, 396279, Note_on_c, 0, 67, 52
1, 396302, Note_off_c, 0, 67, 58
1, 396379, Note_on_c, 0, 58, 77
1, 396381, Note_on_c, 0, 61, 58
1, 396401, Note_on_c, 0, 78, 83
1, 396407, Note_off_c, 0, 61, 67
1, 396408, Note_off_c, 0, 58, 64
1, 396415, Note_on_c, 0, 73, 60
1, 396431, Note_off_c, 0, 78, 62
1, 396443, Note_off_c, 0, 73, 66
1, 396446, Control_c, 0, 64, 31
1, 396461, Control_c, 0, 64, 50
1, 396468, Note_on_c, 0, 64, 86
1, 396475, Control_c, 0, 64, 61
1, 396490, Control_c, 0, 64, 67
1, 396505, Control_c, 0, 64, 76
1, 396520, Control_c, 0, 64, 90
1, 396523, Note_off_c, 0, 64, 45
1, 396531, Note_on_c, 0, 42, 94
1, 396535, Note_on_c, 0, 62, 77
1, 396535, Control_c, 0, 64, 101
1, 396549, Control_c, 0, 64, 101
1, 396556, Note_off_c, 0, 42, 69
1, 396557, Note_off_c, 0, 62, 66
1, 396564, Control_c, 0, 64, 93
1, 396579, Control_c, 0, 64, 78
1, 396594, Control_c, 0, 64, 63
1, 396609, Control_c, 0, 64, 39
1, 396624, Control_c, 0, 64, 0
1, 396625, Note_on_c, 0, 85, 83
1, 396648, Note_off_c, 0, 85, 66
1, 396662, Note_on_c, 0, 73, 80
1, 396680, Note_off_c, 0, 73, 70
1, 396689, Note_on_c, 0, 58, 83
1, 396701, Note_on_c, 0, 67, 55
1, 396703, Note_on_c, 0, 69, 53
1, 396705, Note_on_c, 0, 65, 52
1, 396718, Note_off_c, 0, 58, 64
1, 396724, Note_off_c, 0, 67, 58
1, 396727, Note_off_c, 0, 69, 37
1, 396730, Note_off_c, 0, 65, 39
1, 396755, Note_on_c, 0, 73, 78
1, 396799, Note_off_c, 0, 73, 63
1, 396836, Note_on_c, 0, 61, 72
1, 396856, Note_off_c, 0, 61, 40
1, 396890, Note_on_c, 0, 64, 66
1, 396951, Note_on_c, 0, 65, 70
1, 396960, Note_on_c, 0, 62, 88
1, 396961, Note_off_c, 0, 64, 62
1, 396964, Control_c, 0, 67, 9
1, 396969, Note_on_c, 0, 54, 59
1, 396971, Note_on_c, 0, 58, 65
1, 396973, Note_on_c, 0, 70, 41
1, 396974, Note_on_c, 0, 67, 44
1, 396979, Control_c, 0, 67, 11
1, 396981, Note_off_c, 0, 62, 69
1, 396982, Note_on_c, 0, 55, 49
1, 396990, Note_off_c, 0, 54, 64
1, 396991, Note_off_c, 0, 58, 64
1, 396992, Note_on_c, 0, 71, 35
1, 396992, Note_off_c, 0, 65, 59
1, 396993, Control_c, 0, 67, 12
1, 397002, Note_off_c, 0, 67, 57
1, 397002, Note_off_c, 0, 70, 53
1, 397006, Note_off_c, 0, 55, 50
1, 397008, Control_c, 0, 67, 13
1, 397014, Note_off_c, 0, 71, 37
1, 397023, Control_c, 0, 67, 14
1, 397038, Control_c, 0, 67, 16
1, 397049, Note_on_c, 0, 58, 93
1, 397053, Control_c, 0, 67, 18
1, 397068, Control_c, 0, 67, 19
1, 397081, Note_on_c, 0, 54, 42
1, 397083, Control_c, 0, 67, 20
1, 397097, Control_c, 0, 67, 22
1, 397111, Note_off_c, 0, 54, 36
1, 397113, Control_c, 0, 67, 25
1, 397129, Control_c, 0, 67, 28
1, 397140, Note_off_c, 0, 58, 67
1, 397144, Control_c, 0, 67, 32
1, 397158, Control_c, 0, 67, 37
1, 397173, Control_c, 0, 67, 42
1, 397196, Control_c, 0, 67, 46
1, 397196, Note_on_c, 0, 58, 68
1, 397211, Control_c, 0, 67, 49
1, 397223, Note_on_c, 0, 54, 63
1, 397225, Control_c, 0, 67, 52
1, 397240, Control_c, 0, 67, 57
1, 397245, Note_off_c, 0, 58, 59
1, 397250, Note_off_c, 0, 54, 67
1, 397255, Control_c, 0, 67, 62
1, 397270, Control_c, 0, 67, 69
1, 397282, Note_on_c, 0, 70, 60
1, 397285, Control_c, 0, 67, 74
1, 397299, Control_c, 0, 67, 77
1, 397314, Control_c, 0, 67, 79
1, 397317, Note_off_c, 0, 70, 59
1, 397322, Note_on_c, 0, 65, 30
1, 397329, Control_c, 0, 67, 80
1, 397344, Control_c, 0, 67, 82
1, 397350, Note_off_c, 0, 65, 46
1, 397358, Note_on_c, 0, 67, 7
1, 397359, Control_c, 0, 67, 83
1, 397361, Note_on_c, 0, 59, 59
1, 397373, Control_c, 0, 67, 84
1, 397388, Control_c, 0, 67, 85
1, 397390, Note_off_c, 0, 59, 66
1, 397403, Control_c, 0, 67, 85
1, 397410, Note_off_c, 0, 67, 26
1, 397417, Control_c, 0, 67, 86
1, 397462, Control_c, 0, 64, 31
1, 397474, Note_on_c, 0, 35, 60
1, 397477, Control_c, 0, 64, 51
1, 397477, Control_c, 0, 67, 85
1, 397491, Control_c, 0, 64, 62
1, 397491, Control_c, 0, 67, 84
1, 397506, Control_c, 0, 64, 67
1, 397506, Control_c, 0, 67, 84
1, 397521, Control_c, 0, 64, 72
1, 397521, Control_c, 0, 67, 83
1, 397536, Control_c, 0, 64, 78
1, 397536, Control_c, 0, 67, 82
1, 397551, Control_c, 0, 64, 86
1, 397551, Control_c, 0, 67, 81
1, 397565, Control_c, 0, 64, 94
1, 397565, Control_c, 0, 67, 81
1, 397580, Control_c, 0, 64, 101
1, 397580, Control_c, 0, 67, 80
1, 397586, Note_off_c, 0, 35, 47
1, 397595, Control_c, 0, 64, 111
1, 397595, Control_c, 0, 67, 80
1, 397610, Control_c, 0, 64, 127
1, 397610, Control_c, 0, 67, 79
1, 397614, Note_on_c, 0, 42, 57
1, 397625, Control_c, 0, 67, 79
1, 397640, Control_c, 0, 67, 78
1, 397655, Control_c, 0, 67, 77
1, 397670, Control_c, 0, 67, 77
1, 397684, Control_c, 0, 67, 76
1, 397714, Control_c, 0, 67, 76
1, 397722, Note_on_c, 0, 94, 53
1, 397726, Note_on_c, 0, 47, 60
1, 397729, Control_c, 0, 67, 75
1, 397738, Note_on_c, 0, 82, 49
1, 397743, Note_off_c, 0, 94, 64
1, 397750, Note_off_c, 0, 42, 32
1, 397753, Note_on_c, 0, 86, 20
1, 397763, Note_off_c, 0, 47, 63
1, 397763, Note_off_c, 0, 82, 51
1, 397792, Note_off_c, 0, 86, 30
1, 397803, Control_c, 0, 67, 76
1, 397816, Note_on_c, 0, 50, 65
1, 397823, Note_on_c, 0, 82, 76
1, 397846, Note_off_c, 0, 82, 66
1, 397852, Note_off_c, 0, 50, 63
1, 397907, Control_c, 0, 67, 75
1, 397912, Note_on_c, 0, 54, 68
1, 397916, Note_on_c, 0, 82, 63
1, 397943, Note_off_c, 0, 82, 65
1, 397944, Control_c, 0, 67, 74
1, 397959, Control_c, 0, 67, 72
1, 397965, Note_off_c, 0, 54, 59
1, 397974, Note_on_c, 0, 80, 74
1, 397974, Control_c, 0, 67, 68
1, 397989, Control_c, 0, 67, 62
1, 397994, Note_off_c, 0, 80, 69
1, 398003, Note_on_c, 0, 59, 73
1, 398004, Control_c, 0, 67, 53
1, 398019, Control_c, 0, 67, 41
1, 398033, Note_off_c, 0, 59, 64
1, 398033, Control_c, 0, 67, 30
1, 398048, Control_c, 0, 67, 20
1, 398057, Note_on_c, 0, 94, 74
1, 398059, Note_on_c, 0, 87, 71
1, 398063, Control_c, 0, 67, 12
1, 398068, Note_on_c, 0, 82, 69
1, 398072, Note_on_c, 0, 62, 72
1, 398075, Note_off_c, 0, 87, 69
1, 398078, Control_c, 0, 67, 11
1, 398093, Control_c, 0, 67, 10
1, 398101, Note_off_c, 0, 62, 67
1, 398107, Control_c, 0, 67, 9
1, 398110, Note_on_c, 0, 86, 40
1, 398122, Control_c, 0, 67, 0
1, 398159, Note_on_c, 0, 66, 73
1, 398186, Note_off_c, 0, 66, 67
1, 398227, Note_on_c, 0, 71, 74
1, 398251, Note_off_c, 0, 71, 68
1, 398296, Note_on_c, 0, 74, 72
1, 398320, Note_off_c, 0, 74, 69
1, 398357, Note_on_c, 0, 71, 62
1, 398393, Note_off_c, 0, 71, 64
1, 398420, Note_on_c, 0, 66, 71
1, 398441, Note_off_c, 0, 66, 70
1, 398502, Note_on_c, 0, 62, 78
1, 398552, Control_c, 0, 67, 8
1, 398554, Note_off_c, 0, 62, 60
1, 398574, Note_on_c, 0, 59, 77
1, 398585, Note_off_c, 0, 94, 63
1, 398596, Control_c, 0, 67, 0
1, 398608, Note_off_c, 0, 82, 61
1, 398611, Control_c, 0, 67, 8
1, 398615, Note_off_c, 0, 86, 41
1, 398629, Note_off_c, 0, 59, 64
1, 398645, Note_on_c, 0, 54, 76
1, 398665, Note_off_c, 0, 54, 70
1, 398692, Control_c, 0, 67, 8
1, 398723, Control_c, 0, 67, 8
1, 398747, Note_on_c, 0, 50, 75
1, 398767, Control_c, 0, 67, 0
1, 398797, Note_off_c, 0, 50, 61
1, 398811, Note_on_c, 0, 47, 69
1, 398843, Note_off_c, 0, 47, 64
1, 398865, Note_on_c, 0, 42, 44
1, 398871, Control_c, 0, 64, 86
1, 398886, Control_c, 0, 64, 65
1, 398894, Note_off_c, 0, 42, 36
1, 398901, Control_c, 0, 64, 46
1, 398904, Note_on_c, 0, 68, 76
1, 398906, Note_on_c, 0, 56, 85
1, 398916, Note_on_c, 0, 35, 70
1, 398916, Control_c, 0, 64, 33
1, 398919, Note_on_c, 0, 33, 65
1, 398931, Control_c, 0, 64, 34
1, 398933, Note_off_c, 0, 56, 64
1, 398942, Note_on_c, 0, 62, 23
1, 398944, Note_off_c, 0, 33, 37
1, 398944, Note_off_c, 0, 35, 66
1, 398945, Control_c, 0, 64, 37
1, 398960, Control_c, 0, 64, 37
1, 398982, Note_off_c, 0, 62, 30
1, 398989, Control_c, 0, 64, 37
1, 398989, Control_c, 0, 67, 9
1, 399002, Note_on_c, 0, 50, 75
1, 399004, Control_c, 0, 64, 36
1, 399004, Control_c, 0, 67, 10
1, 399019, Control_c, 0, 67, 11
1, 399034, Control_c, 0, 64, 36
1, 399034, Control_c, 0, 67, 12
1, 399036, Note_off_c, 0, 50, 69
1, 399049, Control_c, 0, 64, 34
1, 399049, Control_c, 0, 67, 14
1, 399063, Control_c, 0, 64, 32
1, 399063, Control_c, 0, 67, 16
1, 399067, Note_off_c, 0, 68, 61
1, 399068, Note_on_c, 0, 70, 73
1, 399071, Note_on_c, 0, 58, 75
1, 399077, Note_on_c, 0, 41, 36
1, 399078, Control_c, 0, 64, 31
1, 399078, Control_c, 0, 67, 18
1, 399091, Note_off_c, 0, 70, 68
1, 399093, Control_c, 0, 64, 30
1, 399093, Control_c, 0, 67, 19
1, 399106, Note_off_c, 0, 58, 64
1, 399108, Control_c, 0, 64, 29
1, 399108, Control_c, 0, 67, 19
1, 399113, Note_off_c, 0, 41, 33
1, 399123, Control_c, 0, 64, 29
1, 399137, Control_c, 0, 64, 28
1, 399145, Note_on_c, 0, 30, 72
1, 399152, Control_c, 0, 64, 26
1, 399152, Control_c, 0, 67, 19
1, 399167, Control_c, 0, 64, 26
1, 399167, Control_c, 0, 67, 18
1, 399172, Note_off_c, 0, 30, 62
1, 399181, Control_c, 0, 67, 18
1, 399196, Control_c, 0, 64, 26
1, 399196, Control_c, 0, 67, 17
1, 399211, Control_c, 0, 64, 28
1, 399211, Control_c, 0, 67, 17
1, 399225, Note_on_c, 0, 47, 64
1, 399226, Control_c, 0, 64, 30
1, 399226, Control_c, 0, 67, 16
1, 399227, Note_on_c, 0, 62, 56
1, 399232, Note_on_c, 0, 53, 65
1, 399232, Note_on_c, 0, 65, 71
1, 399241, Control_c, 0, 64, 34
1, 399241, Control_c, 0, 67, 16
1, 399247, Note_on_c, 0, 45, 42
1, 399250, Note_off_c, 0, 62, 59
1, 399253, Note_off_c, 0, 53, 63
1, 399256, Control_c, 0, 64, 39
1, 399256, Control_c, 0, 67, 15
1, 399263, Note_off_c, 0, 47, 62
1, 399265, Note_on_c, 0, 55, 22
1, 399266, Note_off_c, 0, 55, 127
1, 399266, Note_off_c, 0, 65, 66
1, 399268, Note_off_c, 0, 45, 47
1, 399271, Control_c, 0, 64, 41
1, 399271, Control_c, 0, 67, 15
1, 399285, Control_c, 0, 64, 39
1, 399294, Note_on_c, 0, 38, 63
1, 399300, Control_c, 0, 64, 36
1, 399315, Control_c, 0, 64, 32
1, 399315, Control_c, 0, 67, 14
1, 399324, Note_off_c, 0, 38, 65
1, 399330, Control_c, 0, 64, 28
1, 399345, Control_c, 0, 64, 28
1, 399345, Control_c, 0, 67, 14
1, 399355, Note_on_c, 0, 35, 69
1, 399360, Control_c, 0, 64, 31
1, 399360, Control_c, 0, 67, 13
1, 399374, Control_c, 0, 64, 42
1, 399388, Control_c, 0, 64, 53
1, 399403, Control_c, 0, 64, 62
1, 399418, Control_c, 0, 64, 66
1, 399419, Note_off_c, 0, 35, 41
1, 399440, Control_c, 0, 64, 68
1, 399450, Note_on_c, 0, 42, 65
1, 399455, Control_c, 0, 64, 70
1, 399470, Control_c, 0, 64, 73
1, 399470, Control_c, 0, 67, 13
1, 399485, Control_c, 0, 64, 77
1, 399485, Control_c, 0, 67, 12
1, 399500, Control_c, 0, 64, 81
1, 399503, Note_off_c, 0, 42, 56
1, 399515, Control_c, 0, 64, 86
1, 399515, Control_c, 0, 67, 12
1, 399530, Note_on_c, 0, 47, 75
1, 399530, Control_c, 0, 64, 90
1, 399531, Note_on_c, 0, 82, 57
1, 399545, Control_c, 0, 64, 94
1, 399552, Note_off_c, 0, 82, 64
1, 399556, Note_off_c, 0, 47, 68
1, 399560, Control_c, 0, 64, 97
1, 399567, Note_on_c, 0, 74, 12
1, 399575, Control_c, 0, 64, 100
1, 399590, Control_c, 0, 64, 101
1, 399596, Note_on_c, 0, 50, 73
1, 399602, Note_on_c, 0, 70, 8
1, 399604, Control_c, 0, 64, 102
1, 399604, Control_c, 0, 67, 11
1, 399612, Note_off_c, 0, 74, 38
1, 399619, Control_c, 0, 67, 11
1, 399625, Note_off_c, 0, 50, 65
1, 399634, Control_c, 0, 64, 103
1, 399643, Note_off_c, 0, 70, 64
1, 399649, Control_c, 0, 64, 103
1, 399664, Control_c, 0, 64, 104
1, 399679, Control_c, 0, 64, 104
1, 399680, Note_on_c, 0, 54, 77
1, 399689, Note_on_c, 0, 70, 58
1, 399708, Control_c, 0, 64, 105
1, 399708, Control_c, 0, 67, 10
1, 399710, Note_off_c, 0, 70, 63
1, 399723, Control_c, 0, 67, 10
1, 399732, Note_off_c, 0, 54, 63
1, 399734, Note_on_c, 0, 68, 77
1, 399738, Control_c, 0, 67, 9
1, 399753, Control_c, 0, 67, 9
1, 399754, Note_on_c, 0, 59, 70
1, 399756, Note_off_c, 0, 68, 71
1, 399780, Note_off_c, 0, 59, 66
1, 399809, Note_on_c, 0, 62, 65
1, 399815, Note_on_c, 0, 82, 81
1, 399818, Note_on_c, 0, 70, 71
1, 399826, Note_on_c, 0, 74, 65
1, 399828, Note_off_c, 0, 62, 65
1, 399855, Note_off_c, 0, 74, 65
1, 399856, Control_c, 0, 67, 9
1, 399861, Note_off_c, 0, 70, 60
1, 399885, Note_on_c, 0, 66, 72
1, 399915, Control_c, 0, 67, 10
1, 399917, Note_off_c, 0, 66, 63
1, 399944, Control_c, 0, 67, 10
1, 399947, Note_on_c, 0, 71, 66
1, 399971, Note_off_c, 0, 71, 66
1, 399989, Control_c, 0, 67, 11
1, 400007, Note_on_c, 0, 74, 72
1, 400027, Note_off_c, 0, 74, 70
1, 400049, Control_c, 0, 67, 11
1, 400053, Note_on_c, 0, 71, 65
1, 400063, Control_c, 0, 67, 12
1, 400078, Control_c, 0, 67, 13
1, 400093, Control_c, 0, 64, 104
1, 400093, Control_c, 0, 67, 13
1, 400096, Note_off_c, 0, 71, 63
1, 400108, Control_c, 0, 67, 14
1, 400116, Note_on_c, 0, 66, 71
1, 400123, Control_c, 0, 67, 15
1, 400135, Note_off_c, 0, 66, 71
1, 400137, Control_c, 0, 67, 15
1, 400152, Control_c, 0, 64, 103
1, 400167, Control_c, 0, 64, 102
1, 400189, Control_c, 0, 64, 98
1, 400204, Control_c, 0, 64, 90
1, 400204, Control_c, 0, 67, 15
1, 400208, Note_on_c, 0, 62, 76
1, 400218, Control_c, 0, 64, 80
1, 400233, Control_c, 0, 64, 71
1, 400248, Control_c, 0, 64, 65
1, 400249, Note_off_c, 0, 62, 65
1, 400263, Control_c, 0, 64, 60
1, 400263, Control_c, 0, 67, 15
1, 400269, Note_on_c, 0, 59, 67
1, 400271, Note_off_c, 0, 82, 61
1, 400278, Control_c, 0, 64, 56
1, 400278, Control_c, 0, 67, 16
1, 400280, Poly_aftertouch_c, 0, 80, 0
1, 400293, Control_c, 0, 64, 55
1, 400293, Control_c, 0, 67, 18
1, 400308, Control_c, 0, 67, 19
1, 400320, Note_off_c, 0, 59, 63
1, 400323, Control_c, 0, 67, 21
1, 400338, Note_on_c, 0, 54, 68
1, 400338, Control_c, 0, 64, 55
1, 400338, Control_c, 0, 67, 23
1, 400353, Control_c, 0, 64, 54
1, 400353, Control_c, 0, 67, 24
1, 400362, Note_off_c, 0, 54, 65
1, 400368, Control_c, 0, 64, 53
1, 400368, Control_c, 0, 67, 25
1, 400382, Control_c, 0, 67, 26
1, 400397, Control_c, 0, 64, 54
1, 400397, Control_c, 0, 67, 27
1, 400412, Control_c, 0, 64, 54
1, 400412, Control_c, 0, 67, 27
1, 400427, Note_on_c, 0, 50, 73
1, 400427, Control_c, 0, 64, 56
1, 400442, Control_c, 0, 64, 57
1, 400457, Control_c, 0, 64, 58
1, 400469, Note_off_c, 0, 50, 66
1, 400472, Control_c, 0, 64, 59
1, 400483, Note_on_c, 0, 47, 69
1, 400487, Control_c, 0, 64, 58
1, 400502, Control_c, 0, 64, 56
1, 400502, Control_c, 0, 67, 26
1, 400516, Control_c, 0, 64, 54
1, 400516, Control_c, 0, 67, 25
1, 400518, Note_off_c, 0, 47, 64
1, 400531, Control_c, 0, 64, 52
1, 400531, Control_c, 0, 67, 24
1, 400531, Note_on_c, 0, 42, 54
1, 400546, Control_c, 0, 64, 50
1, 400546, Control_c, 0, 67, 23
1, 400555, Note_off_c, 0, 42, 54
1, 400560, Control_c, 0, 64, 51
1, 400560, Control_c, 0, 67, 22
1, 400575, Control_c, 0, 64, 52
1, 400590, Control_c, 0, 64, 54
1, 400590, Control_c, 0, 67, 23
1, 400591, Note_on_c, 0, 35, 75
1, 400603, Note_on_c, 0, 44, 77
1, 400604, Note_on_c, 0, 56, 65
1, 400605, Control_c, 0, 64, 56
1, 400605, Control_c, 0, 67, 23
1, 400620, Control_c, 0, 64, 57
1, 400627, Note_off_c, 0, 35, 62
1, 400632, Note_off_c, 0, 44, 65
1, 400634, Control_c, 0, 64, 59
1, 400649, Control_c, 0, 64, 59
1, 400664, Control_c, 0, 64, 60
1, 400679, Control_c, 0, 64, 61
1, 400694, Control_c, 0, 64, 62
1, 400694, Control_c, 0, 67, 24
1, 400699, Note_on_c, 0, 47, 41
1, 400705, Note_on_c, 0, 42, 43
1, 400708, Control_c, 0, 64, 63
1, 400708, Control_c, 0, 67, 25
1, 400723, Control_c, 0, 64, 64
1, 400723, Control_c, 0, 67, 26
1, 400731, Note_off_c, 0, 47, 34
1, 400732, Note_off_c, 0, 42, 64
1, 400737, Note_off_c, 0, 56, 59
1, 400738, Control_c, 0, 64, 66
1, 400738, Control_c, 0, 67, 26
1, 400740, Note_on_c, 0, 58, 69
1, 400749, Note_on_c, 0, 46, 74
1, 400752, Control_c, 0, 64, 68
1, 400752, Control_c, 0, 67, 28
1, 400765, Note_off_c, 0, 58, 64
1, 400767, Control_c, 0, 64, 69
1, 400767, Control_c, 0, 67, 28
1, 400776, Note_off_c, 0, 46, 68
1, 400782, Control_c, 0, 64, 70
1, 400797, Control_c, 0, 64, 68
1, 400806, Note_on_c, 0, 30, 66
1, 400812, Control_c, 0, 64, 61
1, 400827, Control_c, 0, 64, 48
1, 400841, Control_c, 0, 64, 12
1, 400850, Note_on_c, 0, 42, 57
1, 400856, Control_c, 0, 64, 0
1, 400878, Note_off_c, 0, 30, 62
1, 400881, Note_on_c, 0, 49, 53
1, 400886, Control_c, 0, 64, 12
1, 400889, Note_on_c, 0, 53, 78
1, 400895, Note_off_c, 0, 42, 66
1, 400901, Control_c, 0, 64, 44
1, 400907, Note_off_c, 0, 49, 36
1, 400915, Note_on_c, 0, 43, 32
1, 400916, Control_c, 0, 64, 60
1, 400919, Note_off_c, 0, 53, 66
1, 400936, Note_on_c, 0, 35, 55
1, 400938, Control_c, 0, 64, 64
1, 400947, Note_off_c, 0, 43, 37
1, 400953, Control_c, 0, 64, 65
1, 400953, Control_c, 0, 67, 28
1, 400967, Control_c, 0, 64, 67
1, 400967, Control_c, 0, 67, 27
1, 400976, Note_off_c, 0, 35, 62
1, 400982, Control_c, 0, 64, 67
1, 400982, Control_c, 0, 67, 27
1, 400997, Control_c, 0, 64, 68
1, 400997, Control_c, 0, 67, 26
1, 401012, Control_c, 0, 64, 69
1, 401012, Control_c, 0, 67, 26
1, 401027, Control_c, 0, 67, 25
1, 401041, Control_c, 0, 67, 24
1, 401056, Note_on_c, 0, 24, 84
1, 401056, Control_c, 0, 64, 69
1, 401056, Control_c, 0, 67, 23
1, 401071, Control_c, 0, 64, 71
1, 401071, Control_c, 0, 67, 21
1, 401086, Control_c, 0, 64, 73
1, 401086, Control_c, 0, 67, 20
1, 401100, Note_off_c, 0, 24, 63
1, 401101, Control_c, 0, 64, 75
1, 401101, Control_c, 0, 67, 19
1, 401112, Note_on_c, 0, 35, 42
1, 401117, Control_c, 0, 64, 76
1, 401117, Control_c, 0, 67, 18
1, 401129, Note_on_c, 0, 74, 66
1, 401131, Control_c, 0, 64, 78
1, 401131, Control_c, 0, 67, 17
1, 401134, Note_on_c, 0, 86, 58
1, 401143, Note_on_c, 0, 84, 40
1, 401146, Note_off_c, 0, 74, 66
1, 401146, Control_c, 0, 64, 80
1, 401146, Control_c, 0, 67, 14
1, 401148, Note_off_c, 0, 35, 32
1, 401154, Note_off_c, 0, 86, 41
1, 401161, Control_c, 0, 64, 82
1, 401161, Control_c, 0, 67, 9
1, 401169, Note_off_c, 0, 84, 57
1, 401169, Note_on_c, 0, 85, 76
1, 401174, Note_on_c, 0, 88, 83
1, 401176, Control_c, 0, 64, 84
1, 401176, Control_c, 0, 67, 0
1, 401178, Note_on_c, 0, 76, 85
1, 401190, Control_c, 0, 64, 87
1, 401193, Note_off_c, 0, 88, 68
1, 401200, Note_off_c, 0, 76, 65
1, 401202, Note_off_c, 0, 85, 65
1, 401205, Control_c, 0, 64, 89
1, 401220, Control_c, 0, 64, 90
1, 401227, Note_on_c, 0, 45, 40
1, 401235, Control_c, 0, 64, 91
1, 401250, Note_on_c, 0, 43, 3
1, 401256, Note_off_c, 0, 45, 35
1, 401265, Control_c, 0, 64, 91
1, 401287, Note_off_c, 0, 43, 27
1, 401295, Control_c, 0, 64, 92
1, 401299, Note_on_c, 0, 52, 62
1, 401330, Note_off_c, 0, 52, 64
1, 401335, Note_on_c, 0, 50, 31
1, 401339, Control_c, 0, 64, 92
1, 401354, Control_c, 0, 64, 94
1, 401369, Control_c, 0, 64, 105
1, 401369, Note_on_c, 0, 43, 58
1, 401372, Note_off_c, 0, 50, 39
1, 401381, Note_on_c, 0, 45, 34
1, 401383, Control_c, 0, 64, 127
1, 401389, Note_on_c, 0, 41, 64
1, 401400, Note_off_c, 0, 45, 51
1, 401411, Note_off_c, 0, 43, 60
1, 401420, Note_off_c, 0, 41, 66
1, 401453, Note_on_c, 0, 35, 88
1, 401457, Control_c, 0, 64, 88
1, 401472, Control_c, 0, 64, 61
1, 401472, Control_c, 0, 67, 10
1, 401478, Note_off_c, 0, 35, 66
1, 401487, Control_c, 0, 64, 0
1, 401487, Control_c, 0, 67, 11
1, 401501, Control_c, 0, 67, 12
1, 401516, Control_c, 0, 67, 13
1, 401531, Control_c, 0, 67, 13
1, 401546, Control_c, 0, 67, 14
1, 401561, Control_c, 0, 67, 14
1, 401575, Control_c, 0, 67, 15
1, 401590, Control_c, 0, 67, 16
1, 401605, Control_c, 0, 67, 17
1, 401620, Control_c, 0, 67, 19
1, 401633, Note_on_c, 0, 50, 79
1, 401634, Note_on_c, 0, 59, 71
1, 401634, Control_c, 0, 67, 20
1, 401640, Note_on_c, 0, 55, 63
1, 401649, Control_c, 0, 67, 23
1, 401655, Note_off_c, 0, 50, 0
1, 401661, Note_off_c, 0, 55, 61
1, 401662, Note_off_c, 0, 59, 66
1, 401664, Control_c, 0, 67, 25
1, 401686, Control_c, 0, 67, 26
1, 401701, Poly_aftertouch_c, 0, 50, 0
1, 401701, Control_c, 0, 67, 28
1, 401715, Control_c, 0, 67, 28
1, 401730, Control_c, 0, 67, 29
1, 401745, Control_c, 0, 67, 29
1, 401760, Control_c, 0, 67, 30
1, 401764, Note_on_c, 0, 50, 78
1, 401789, Control_c, 0, 67, 30
1, 401795, Note_off_c, 0, 50, 61
1, 401804, Control_c, 0, 67, 31
1, 401832, Note_on_c, 0, 51, 72
1, 401849, Control_c, 0, 67, 30
1, 401858, Note_off_c, 0, 51, 66
1, 401889, Note_on_c, 0, 53, 79
1, 401889, Note_on_c, 0, 54, 86
1, 401894, Control_c, 0, 67, 31
1, 401900, Note_on_c, 0, 58, 66
1, 401906, Note_off_c, 0, 54, 44
1, 401916, Note_off_c, 0, 53, 65
1, 401921, Note_off_c, 0, 58, 44
1, 401924, Control_c, 0, 67, 31
1, 401938, Control_c, 0, 67, 32
1, 401953, Control_c, 0, 67, 33
1, 401966, Note_on_c, 0, 53, 78
1, 401968, Control_c, 0, 67, 33
1, 401992, Note_off_c, 0, 53, 67
1, 401998, Control_c, 0, 67, 33
1, 402043, Note_on_c, 0, 53, 79
1, 402070, Note_off_c, 0, 53, 65
1, 402073, Control_c, 0, 67, 33
1, 402087, Control_c, 0, 67, 34
1, 402102, Control_c, 0, 67, 35
1, 402117, Control_c, 0, 67, 37
1, 402117, Note_on_c, 0, 53, 74
1, 402131, Control_c, 0, 67, 41
1, 402146, Control_c, 0, 67, 46
1, 402160, Note_on_c, 0, 54, 64
1, 402161, Control_c, 0, 67, 52
1, 402176, Control_c, 0, 67, 56
1, 402189, Note_off_c, 0, 54, 67
1, 402191, Control_c, 0, 67, 60
1, 402199, Note_off_c, 0, 53, 53
1, 402205, Control_c, 0, 67, 63
1, 402220, Control_c, 0, 67, 64
1, 402232, Note_on_c, 0, 51, 70
1, 402263, Note_off_c, 0, 51, 66
1, 402265, Control_c, 0, 67, 64
1, 402279, Control_c, 0, 67, 62
1, 402294, Control_c, 0, 67, 61
1, 402295, Note_on_c, 0, 35, 83
1, 402309, Control_c, 0, 67, 59
1, 402320, Note_off_c, 0, 35, 67
1, 402323, Control_c, 0, 67, 57
1, 402334, Note_on_c, 0, 36, 39
1, 402338, Control_c, 0, 67, 55
1, 402353, Control_c, 0, 67, 52
1, 402368, Control_c, 0, 67, 49
1, 402371, Note_off_c, 0, 36, 36
1, 402383, Control_c, 0, 67, 45
1, 402398, Control_c, 0, 67, 41
1, 402412, Control_c, 0, 67, 37
1, 402435, Control_c, 0, 67, 33
1, 402450, Control_c, 0, 67, 28
1, 402451, Note_on_c, 0, 57, 64
1, 402452, Note_on_c, 0, 53, 67
1, 402454, Note_on_c, 0, 50, 72
1, 402465, Control_c, 0, 67, 24
1, 402471, Note_off_c, 0, 57, 65
1, 402472, Note_off_c, 0, 53, 64
1, 402479, Control_c, 0, 67, 21
1, 402481, Note_off_c, 0, 50, 0
1, 402494, Control_c, 0, 67, 19
1, 402513, Poly_aftertouch_c, 0, 50, 0
1, 402553, Control_c, 0, 67, 20
1, 402564, Note_on_c, 0, 50, 70
1, 402583, Control_c, 0, 67, 20
1, 402592, Note_off_c, 0, 50, 65
1, 402598, Control_c, 0, 67, 21
1, 402627, Control_c, 0, 67, 21
1, 402633, Note_on_c, 0, 51, 71
1, 402666, Note_off_c, 0, 51, 64
1, 402672, Control_c, 0, 67, 22
1, 402687, Control_c, 0, 67, 23
1, 402702, Control_c, 0, 67, 24
1, 402710, Note_on_c, 0, 47, 77
1, 402711, Note_on_c, 0, 56, 68
1, 402714, Note_on_c, 0, 52, 54
1, 402717, Control_c, 0, 67, 25
1, 402728, Note_off_c, 0, 56, 67
1, 402730, Note_off_c, 0, 47, 70
1, 402732, Control_c, 0, 67, 26
1, 402737, Note_off_c, 0, 52, 38
1, 402747, Control_c, 0, 67, 27
1, 402761, Control_c, 0, 67, 28
1, 402776, Control_c, 0, 67, 28
1, 402780, Note_on_c, 0, 47, 74
1, 402799, Note_off_c, 0, 47, 66
1, 402806, Control_c, 0, 67, 28
1, 402850, Note_on_c, 0, 47, 65
1, 402871, Note_off_c, 0, 47, 63
1, 402918, Note_on_c, 0, 47, 68
1, 402945, Note_off_c, 0, 47, 0
1, 402969, Note_on_c, 0, 51, 49
1, 402974, Note_on_c, 0, 55, 39
1, 402977, Note_off_c, 0, 55, 51
1, 402982, Poly_aftertouch_c, 0, 47, 127
1, 402984, Control_c, 0, 67, 27
1, 402992, Poly_aftertouch_c, 0, 47, 0
1, 403000, Note_off_c, 0, 51, 65
1, 403014, Control_c, 0, 67, 27
1, 403028, Note_on_c, 0, 48, 75
1, 403028, Control_c, 0, 67, 26
1, 403043, Control_c, 0, 67, 26
1, 403053, Note_off_c, 0, 48, 65
1, 403058, Control_c, 0, 67, 25
1, 403072, Control_c, 0, 67, 24
1, 403087, Control_c, 0, 67, 22
1, 403102, Control_c, 0, 67, 21
1, 403109, Note_on_c, 0, 35, 80
1, 403117, Control_c, 0, 67, 20
1, 403132, Note_off_c, 0, 35, 64
1, 403132, Control_c, 0, 67, 20
1, 403146, Control_c, 0, 67, 19
1, 403199, Control_c, 0, 67, 19
1, 403228, Control_c, 0, 67, 18
1, 403243, Control_c, 0, 67, 18
1, 403260, Note_on_c, 0, 71, 78
1, 403264, Note_on_c, 0, 62, 71
1, 403271, Note_on_c, 0, 59, 66
1, 403273, Control_c, 0, 67, 17
1, 403279, Note_off_c, 0, 71, 70
1, 403280, Note_off_c, 0, 62, 63
1, 403289, Note_off_c, 0, 59, 65
1, 403291, Note_on_c, 0, 50, 61
1, 403302, Control_c, 0, 67, 17
1, 403314, Note_on_c, 0, 52, 85
1, 403337, Note_off_c, 0, 52, 69
1, 403339, Note_off_c, 0, 50, 64
1, 403347, Control_c, 0, 67, 17
1, 403361, Control_c, 0, 67, 18
1, 403376, Control_c, 0, 67, 18
1, 403402, Note_on_c, 0, 52, 49
1, 403403, Note_off_c, 0, 52, 127
1, 403408, Note_on_c, 0, 50, 59
1, 403435, Control_c, 0, 67, 18
1, 403438, Note_off_c, 0, 50, 60
1, 403465, Control_c, 0, 67, 17
1, 403466, Note_on_c, 0, 51, 73
1, 403480, Control_c, 0, 67, 15
1, 403488, Note_off_c, 0, 51, 68
1, 403494, Control_c, 0, 67, 12
1, 403510, Control_c, 0, 67, 0
1, 403534, Note_on_c, 0, 53, 88
1, 403543, Note_on_c, 0, 70, 86
1, 403548, Note_on_c, 0, 66, 68
1, 403549, Note_on_c, 0, 65, 69
1, 403551, Note_on_c, 0, 58, 59
1, 403566, Note_off_c, 0, 70, 66
1, 403570, Note_off_c, 0, 53, 65
1, 403570, Note_off_c, 0, 66, 64
1, 403575, Note_off_c, 0, 58, 54
1, 403578, Note_off_c, 0, 65, 67
1, 403609, Note_on_c, 0, 53, 63
1, 403629, Control_c, 0, 67, 8
1, 403635, Note_off_c, 0, 53, 66
1, 403644, Control_c, 0, 67, 8
1, 403658, Control_c, 0, 67, 9
1, 403673, Control_c, 0, 67, 9
1, 403683, Note_on_c, 0, 53, 79
1, 403688, Control_c, 0, 67, 10
1, 403703, Control_c, 0, 67, 10
1, 403715, Note_off_c, 0, 53, 64
1, 403718, Control_c, 0, 67, 11
1, 403733, Control_c, 0, 67, 12
1, 403748, Control_c, 0, 67, 13
1, 403763, Control_c, 0, 67, 14
1, 403772, Note_on_c, 0, 53, 37
1, 403777, Control_c, 0, 67, 14
1, 403788, Note_off_c, 0, 53, 0
1, 403799, Note_on_c, 0, 58, 66
1, 403807, Control_c, 0, 67, 15
1, 403808, Note_on_c, 0, 53, 34
1, 403810, Note_on_c, 0, 70, 41
1, 403811, Note_off_c, 0, 70, 127
1, 403813, Note_on_c, 0, 66, 36
1, 403822, Control_c, 0, 67, 15
1, 403828, Note_off_c, 0, 58, 66
1, 403837, Note_off_c, 0, 66, 36
1, 403851, Control_c, 0, 67, 15
1, 403861, Note_off_c, 0, 53, 61
1, 403867, Note_on_c, 0, 51, 75
1, 403882, Control_c, 0, 67, 14
1, 403897, Note_off_c, 0, 51, 64
1, 403911, Control_c, 0, 67, 14
1, 403933, Control_c, 0, 67, 13
1, 403948, Control_c, 0, 67, 12
1, 403951, Note_on_c, 0, 35, 74
1, 403953, Note_on_c, 0, 36, 72
1, 403963, Control_c, 0, 67, 11
1, 403977, Note_off_c, 0, 36, 67
1, 403977, Control_c, 0, 67, 10
1, 403983, Note_off_c, 0, 35, 64
1, 403992, Control_c, 0, 67, 9
1, 404007, Control_c, 0, 67, 9
1, 404022, Control_c, 0, 67, 8
1, 404052, Control_c, 0, 67, 8
1, 404091, Note_on_c, 0, 69, 75
1, 404097, Note_on_c, 0, 57, 68
1, 404101, Note_on_c, 0, 65, 56
1, 404114, Note_off_c, 0, 69, 70
1, 404122, Note_off_c, 0, 65, 39
1, 404123, Note_on_c, 0, 50, 64
1, 404126, Note_off_c, 0, 57, 66
1, 404173, Note_off_c, 0, 50, 68
1, 404228, Note_on_c, 0, 50, 73
1, 404244, Control_c, 0, 67, 0
1, 404260, Note_off_c, 0, 50, 65
1, 404293, Note_on_c, 0, 51, 79
1, 404331, Note_off_c, 0, 51, 64
1, 404356, Note_on_c, 0, 68, 86
1, 404363, Note_on_c, 0, 64, 68
1, 404365, Note_on_c, 0, 47, 83
1, 404375, Note_off_c, 0, 68, 73
1, 404383, Note_off_c, 0, 64, 65
1, 404385, Note_off_c, 0, 47, 70
1, 404394, Note_on_c, 0, 59, 22
1, 404395, Note_off_c, 0, 59, 127
1, 404430, Note_on_c, 0, 47, 86
1, 404459, Note_off_c, 0, 47, 67
1, 404508, Note_on_c, 0, 47, 74
1, 404539, Note_off_c, 0, 47, 65
1, 404577, Note_on_c, 0, 47, 76
1, 404602, Note_off_c, 0, 47, 65
1, 404633, Note_on_c, 0, 67, 56
1, 404635, Note_on_c, 0, 55, 62
1, 404642, Note_on_c, 0, 47, 79
1, 404644, Note_on_c, 0, 63, 43
1, 404657, Note_off_c, 0, 67, 39
1, 404660, Note_off_c, 0, 55, 67
1, 404676, Note_off_c, 0, 47, 66
1, 404678, Note_off_c, 0, 63, 35
1, 404707, Note_on_c, 0, 48, 79
1, 404738, Note_off_c, 0, 48, 68
1, 404799, Note_on_c, 0, 35, 94
1, 404819, Note_off_c, 0, 35, 67
1, 405006, Note_on_c, 0, 71, 68
1, 405012, Note_on_c, 0, 74, 65
1, 405015, Note_on_c, 0, 62, 50
1, 405030, Note_off_c, 0, 71, 70
1, 405030, Note_off_c, 0, 74, 68
1, 405042, Note_off_c, 0, 62, 65
1, 405044, Note_on_c, 0, 72, 27
1, 405068, Note_on_c, 0, 70, 59
1, 405080, Note_off_c, 0, 72, 32
1, 405083, Note_on_c, 0, 75, 60
1, 405091, Note_off_c, 0, 70, 59
1, 405136, Note_off_c, 0, 75, 64
1, 405145, Note_on_c, 0, 78, 70
1, 405152, Note_on_c, 0, 73, 62
1, 405195, Note_off_c, 0, 78, 51
1, 405197, Note_off_c, 0, 73, 59
1, 405212, Note_on_c, 0, 70, 33
1, 405229, Note_on_c, 0, 75, 46
1, 405243, Note_off_c, 0, 70, 44
1, 405247, Note_on_c, 0, 62, 71
1, 405255, Note_off_c, 0, 75, 53
1, 405258, Note_on_c, 0, 74, 74
1, 405259, Note_on_c, 0, 71, 70
1, 405261, Control_c, 0, 64, 9
1, 405271, Note_on_c, 0, 67, 44
1, 405273, Note_off_c, 0, 62, 68
1, 405275, Control_c, 0, 64, 13
1, 405279, Note_off_c, 0, 74, 70
1, 405283, Note_off_c, 0, 71, 70
1, 405290, Control_c, 0, 64, 16
1, 405301, Note_off_c, 0, 67, 35
1, 405305, Control_c, 0, 64, 19
1, 405320, Control_c, 0, 64, 20
1, 405326, Note_on_c, 0, 70, 68
1, 405326, Note_on_c, 0, 75, 69
1, 405335, Control_c, 0, 64, 20
1, 405349, Control_c, 0, 64, 19
1, 405352, Note_off_c, 0, 75, 65
1, 405361, Note_off_c, 0, 70, 62
1, 405379, Control_c, 0, 64, 20
1, 405386, Note_on_c, 0, 73, 72
1, 405391, Note_on_c, 0, 78, 75
1, 405394, Control_c, 0, 64, 21
1, 405407, Note_off_c, 0, 73, 71
1, 405409, Control_c, 0, 64, 22
1, 405412, Note_off_c, 0, 78, 69
1, 405431, Control_c, 0, 64, 23
1, 405433, Note_on_c, 0, 71, 54
1, 405450, Note_on_c, 0, 79, 75
1, 405451, Note_on_c, 0, 74, 53
1, 405461, Control_c, 0, 64, 24
1, 405475, Control_c, 0, 64, 24
1, 405483, Note_off_c, 0, 71, 57
1, 405483, Note_off_c, 0, 79, 63
1, 405495, Note_off_c, 0, 74, 63
1, 405516, Note_on_c, 0, 82, 85
1, 405518, Note_on_c, 0, 75, 60
1, 405520, Note_on_c, 0, 81, 2
1, 405520, Control_c, 0, 64, 24
1, 405531, Note_off_c, 0, 81, 65
1, 405535, Control_c, 0, 64, 22
1, 405536, Note_on_c, 0, 78, 26
1, 405537, Note_off_c, 0, 75, 64
1, 405549, Control_c, 0, 64, 20
1, 405551, Note_off_c, 0, 82, 64
1, 405560, Note_off_c, 0, 78, 56
1, 405564, Control_c, 0, 64, 21
1, 405579, Control_c, 0, 64, 24
1, 405594, Control_c, 0, 64, 28
1, 405609, Control_c, 0, 64, 29
1, 405615, Note_on_c, 0, 82, 83
1, 405617, Note_on_c, 0, 89, 95
1, 405623, Control_c, 0, 64, 28
1, 405632, Note_off_c, 0, 82, 70
1, 405668, Control_c, 0, 64, 29
1, 405670, Note_on_c, 0, 78, 77
1, 405682, Control_c, 0, 64, 28
1, 405685, Note_on_c, 0, 87, 85
1, 405691, Note_off_c, 0, 89, 63
1, 405705, Note_off_c, 0, 78, 64
1, 405712, Control_c, 0, 64, 28
1, 405718, Note_off_c, 0, 87, 64
1, 405727, Control_c, 0, 64, 27
1, 405757, Control_c, 0, 64, 27
1, 405772, Control_c, 0, 64, 26
1, 405773, Note_on_c, 0, 74, 65
1, 405786, Note_on_c, 0, 79, 65
1, 405786, Note_on_c, 0, 86, 80
1, 405787, Control_c, 0, 64, 25
1, 405794, Note_on_c, 0, 83, 58
1, 405802, Note_off_c, 0, 74, 64
1, 405805, Note_off_c, 0, 86, 70
1, 405811, Note_off_c, 0, 79, 67
1, 405811, Note_off_c, 0, 83, 64
1, 405816, Control_c, 0, 64, 24
1, 405831, Control_c, 0, 64, 24
1, 405840, Note_on_c, 0, 87, 84
1, 405843, Note_on_c, 0, 82, 80
1, 405846, Control_c, 0, 64, 22
1, 405861, Control_c, 0, 64, 20
1, 405865, Note_off_c, 0, 82, 67
1, 405865, Note_off_c, 0, 87, 65
1, 405875, Control_c, 0, 64, 19
1, 405904, Note_on_c, 0, 90, 87
1, 405921, Note_on_c, 0, 85, 75
1, 405936, Control_c, 0, 64, 18
1, 405951, Control_c, 0, 64, 17
1, 405958, Note_on_c, 0, 82, 72
1, 405959, Note_off_c, 0, 85, 63
1, 405964, Note_on_c, 0, 87, 79
1, 405966, Control_c, 0, 64, 16
1, 405968, Note_off_c, 0, 90, 62
1, 405992, Note_off_c, 0, 82, 58
1, 405995, Note_off_c, 0, 87, 66
1, 406010, Control_c, 0, 64, 17
1, 406025, Note_on_c, 0, 74, 66
1, 406025, Control_c, 0, 64, 18
1, 406030, Note_on_c, 0, 83, 79
1, 406033, Note_on_c, 0, 86, 85
1, 406040, Control_c, 0, 64, 18
1, 406048, Note_off_c, 0, 74, 67
1, 406054, Note_off_c, 0, 86, 69
1, 406054, Control_c, 0, 64, 19
1, 406056, Note_off_c, 0, 83, 64
1, 406069, Control_c, 0, 64, 21
1, 406084, Control_c, 0, 64, 24
1, 406094, Note_on_c, 0, 82, 86
1, 406098, Control_c, 0, 64, 27
1, 406115, Note_off_c, 0, 82, 63
1, 406136, Note_on_c, 0, 90, 63
1, 406141, Note_on_c, 0, 85, 79
1, 406142, Control_c, 0, 64, 27
1, 406149, Note_on_c, 0, 88, 3
1, 406150, Note_off_c, 0, 88, 127
1, 406155, Note_on_c, 0, 91, 79
1, 406157, Control_c, 0, 64, 28
1, 406161, Note_off_c, 0, 85, 70
1, 406179, Control_c, 0, 64, 34
1, 406182, Note_off_c, 0, 91, 71
1, 406186, Note_off_c, 0, 90, 60
1, 406194, Control_c, 0, 64, 39
1, 406195, Note_on_c, 0, 83, 69
1, 406208, Note_on_c, 0, 91, 76
1, 406209, Control_c, 0, 64, 44
1, 406222, Note_on_c, 0, 86, 47
1, 406223, Control_c, 0, 64, 47
1, 406238, Control_c, 0, 64, 50
1, 406246, Note_off_c, 0, 91, 66
1, 406252, Note_on_c, 0, 87, 42
1, 406253, Control_c, 0, 64, 54
1, 406267, Note_off_c, 0, 86, 63
1, 406268, Control_c, 0, 64, 58
1, 406275, Note_on_c, 0, 88, 54
1, 406276, Note_off_c, 0, 83, 61
1, 406278, Note_on_c, 0, 89, 68
1, 406279, Note_on_c, 0, 95, 64
1, 406281, Note_on_c, 0, 96, 72
1, 406281, Note_off_c, 0, 87, 35
1, 406283, Control_c, 0, 64, 61
1, 406294, Note_off_c, 0, 88, 63
1, 406294, Note_off_c, 0, 89, 68
1, 406297, Control_c, 0, 64, 63
1, 406300, Note_on_c, 0, 92, 64
1, 406312, Control_c, 0, 64, 67
1, 406314, Note_off_c, 0, 95, 63
1, 406316, Note_off_c, 0, 92, 62
1, 406316, Note_off_c, 0, 96, 57
1, 406327, Control_c, 0, 64, 72
1, 406342, Control_c, 0, 64, 84
1, 406350, Note_on_c, 0, 100, 109
1, 406354, Note_on_c, 0, 96, 77
1, 406357, Control_c, 0, 64, 107
1, 406363, Note_on_c, 0, 93, 92
1, 406370, Note_off_c, 0, 96, 66
1, 406371, Control_c, 0, 64, 127
1, 406372, Note_on_c, 0, 95, 43
1, 406394, Note_off_c, 0, 95, 55
1, 406398, Note_on_c, 0, 94, 39
1, 406399, Note_off_c, 0, 94, 127
1, 406401, Note_off_c, 0, 100, 68
1, 406408, Note_off_c, 0, 93, 61
1, 406415, Note_on_c, 0, 88, 81
1, 406436, Note_on_c, 0, 83, 65
1, 406443, Note_off_c, 0, 88, 63
1, 406452, Note_off_c, 0, 83, 65
1, 406453, Note_on_c, 0, 81, 59
1, 406471, Note_off_c, 0, 81, 62
1, 406522, Note_on_c, 0, 84, 88
1, 406528, Note_on_c, 0, 80, 78
1, 406529, Note_on_c, 0, 83, 63
1, 406532, Note_on_c, 0, 82, 75
1, 406533, Note_off_c, 0, 82, 127
1, 406543, Note_off_c, 0, 80, 71
1, 406547, Note_off_c, 0, 83, 55
1, 406566, Note_off_c, 0, 84, 59
1, 406571, Note_on_c, 0, 85, 73
1, 406590, Note_on_c, 0, 73, 86
1, 406598, Note_on_c, 0, 75, 68
1, 406610, Note_on_c, 0, 72, 41
1, 406611, Note_on_c, 0, 82, 39
1, 406614, Note_off_c, 0, 75, 68
1, 406615, Note_off_c, 0, 85, 63
1, 406621, Note_on_c, 0, 68, 56
1, 406627, Note_off_c, 0, 73, 63
1, 406639, Note_off_c, 0, 72, 49
1, 406640, Note_off_c, 0, 82, 35
1, 406642, Note_off_c, 0, 68, 64
1, 406678, Note_on_c, 0, 59, 53
1, 406702, Note_off_c, 0, 59, 53
1, 406747, Note_on_c, 0, 76, 84
1, 406766, Note_on_c, 0, 74, 67
1, 406782, Note_off_c, 0, 76, 61
1, 406797, Note_off_c, 0, 74, 63
1, 406798, Note_on_c, 0, 71, 49
1, 406817, Note_on_c, 0, 62, 56
1, 406821, Note_on_c, 0, 64, 59
1, 406821, Note_off_c, 0, 71, 53
1, 406846, Note_off_c, 0, 64, 65
1, 406852, Note_off_c, 0, 62, 65
1, 406854, Note_on_c, 0, 56, 65
1, 406902, Note_on_c, 0, 52, 71
1, 406923, Note_off_c, 0, 56, 61
1, 406938, Note_off_c, 0, 52, 65
1, 407005, Note_on_c, 0, 56, 31
1, 407036, Note_off_c, 0, 56, 35
1, 407042, Note_on_c, 0, 52, 55
1, 407050, Note_on_c, 0, 44, 75
1, 407073, Note_off_c, 0, 52, 64
1, 407078, Note_on_c, 0, 53, 32
1, 407100, Note_off_c, 0, 44, 62
1, 407115, Note_off_c, 0, 53, 32
1, 407125, Note_on_c, 0, 32, 107
1, 407145, Note_off_c, 0, 32, 69
1, 407150, Control_c, 0, 64, 68
1, 407165, Control_c, 0, 64, 0
1, 407215, Note_on_c, 0, 32, 21
1, 407222, Note_off_c, 0, 32, 54
1, 407314, Note_on_c, 0, 59, 86
1, 407319, Note_on_c, 0, 68, 70
1, 407323, Note_on_c, 0, 64, 62
1, 407342, Note_off_c, 0, 64, 65
1, 407342, Note_off_c, 0, 68, 67
1, 407346, Note_off_c, 0, 59, 0
1, 407356, Note_on_c, 0, 59, 78
1, 407385, Note_off_c, 0, 59, 65
1, 407441, Note_on_c, 0, 59, 68
1, 407465, Note_off_c, 0, 59, 66
1, 407502, Note_on_c, 0, 60, 73
1, 407529, Note_off_c, 0, 60, 66
1, 407557, Note_on_c, 0, 63, 86
1, 407558, Note_on_c, 0, 67, 95
1, 407565, Note_on_c, 0, 62, 88
1, 407570, Note_off_c, 0, 67, 75
1, 407576, Note_off_c, 0, 63, 69
1, 407589, Note_off_c, 0, 62, 70
1, 407643, Note_on_c, 0, 62, 72
1, 407648, Note_on_c, 0, 67, 14
1, 407674, Note_off_c, 0, 62, 66
1, 407690, Note_off_c, 0, 67, 33
1, 407715, Note_on_c, 0, 62, 73
1, 407738, Note_off_c, 0, 62, 65
1, 407790, Note_on_c, 0, 62, 74
1, 407805, Note_off_c, 0, 62, 65
1, 407829, Note_on_c, 0, 63, 67
1, 407853, Note_on_c, 0, 62, 66
1, 407858, Note_off_c, 0, 63, 66
1, 407870, Note_off_c, 0, 62, 65
1, 407903, Note_on_c, 0, 60, 66
1, 407931, Note_off_c, 0, 60, 63
1, 407963, Note_on_c, 0, 44, 88
1, 407972, Note_on_c, 0, 46, 63
1, 407985, Note_off_c, 0, 44, 69
1, 407995, Note_off_c, 0, 46, 43
1, 408115, Note_on_c, 0, 66, 70
1, 408119, Note_on_c, 0, 59, 85
1, 408124, Note_on_c, 0, 60, 58
1, 408136, Note_on_c, 0, 62, 37
1, 408137, Note_off_c, 0, 62, 127
1, 408141, Note_off_c, 0, 66, 66
1, 408145, Note_off_c, 0, 60, 39
1, 408147, Note_off_c, 0, 59, 68
1, 408173, Note_on_c, 0, 59, 74
1, 408195, Note_off_c, 0, 59, 67
1, 408241, Note_on_c, 0, 59, 61
1, 408267, Note_off_c, 0, 59, 37
1, 408299, Note_on_c, 0, 60, 40
1, 408321, Note_off_c, 0, 60, 58
1, 408368, Note_on_c, 0, 56, 84
1, 408368, Note_on_c, 0, 65, 91
1, 408380, Note_on_c, 0, 61, 77
1, 408382, Note_off_c, 0, 65, 73
1, 408391, Note_off_c, 0, 56, 69
1, 408398, Note_off_c, 0, 61, 68
1, 408458, Note_on_c, 0, 65, 30
1, 408482, Note_on_c, 0, 56, 34
1, 408484, Note_off_c, 0, 65, 35
1, 408523, Note_off_c, 0, 56, 60
1, 408576, Note_on_c, 0, 56, 68
1, 408577, Note_on_c, 0, 55, 2
1, 408578, Note_off_c, 0, 55, 127
1, 408608, Note_off_c, 0, 56, 0
1, 408626, Note_on_c, 0, 60, 70
1, 408645, Poly_aftertouch_c, 0, 56, 127
1, 408655, Poly_aftertouch_c, 0, 56, 0
1, 408657, Note_off_c, 0, 60, 64
1, 408681, Note_on_c, 0, 57, 80
1, 408701, Note_off_c, 0, 57, 68
1, 408751, Note_on_c, 0, 44, 90
1, 408778, Note_off_c, 0, 44, 66
1, 408901, Note_on_c, 0, 80, 70
1, 408905, Note_on_c, 0, 68, 81
1, 408908, Note_on_c, 0, 71, 59
1, 408923, Note_off_c, 0, 80, 68
1, 408926, Note_off_c, 0, 68, 71
1, 408926, Note_on_c, 0, 59, 82
1, 408928, Note_off_c, 0, 71, 55
1, 408948, Note_off_c, 0, 59, 0
1, 408976, Poly_aftertouch_c, 0, 59, 0
1, 409039, Note_on_c, 0, 59, 76
1, 409063, Note_off_c, 0, 59, 66
1, 409096, Note_on_c, 0, 60, 69
1, 409129, Note_off_c, 0, 60, 67
1, 409173, Note_on_c, 0, 62, 81
1, 409180, Note_on_c, 0, 79, 98
1, 409190, Note_on_c, 0, 75, 71
1, 409195, Note_on_c, 0, 74, 73
1, 409197, Note_off_c, 0, 62, 69
1, 409205, Note_off_c, 0, 79, 61
1, 409212, Note_on_c, 0, 67, 40
1, 409213, Note_off_c, 0, 67, 127
1, 409214, Note_off_c, 0, 75, 69
1, 409218, Note_off_c, 0, 74, 70
1, 409248, Note_on_c, 0, 62, 78
1, 409269, Note_off_c, 0, 62, 70
1, 409319, Note_on_c, 0, 62, 78
1, 409352, Note_off_c, 0, 62, 63
1, 409382, Note_on_c, 0, 62, 65
1, 409406, Note_off_c, 0, 62, 68
1, 409444, Note_on_c, 0, 79, 50
1, 409450, Note_on_c, 0, 75, 44
1, 409451, Note_on_c, 0, 67, 65
1, 409453, Note_on_c, 0, 62, 69
1, 409468, Note_off_c, 0, 79, 38
1, 409472, Note_off_c, 0, 62, 65
1, 409473, Note_off_c, 0, 75, 51
1, 409477, Note_off_c, 0, 67, 68
1, 409500, Note_on_c, 0, 60, 62
1, 409519, Note_off_c, 0, 60, 65
1, 409586, Note_on_c, 0, 44, 85
1, 409616, Note_on_c, 0, 75, 22
1, 409620, Note_off_c, 0, 44, 57
1, 409650, Note_off_c, 0, 75, 58
1, 409726, Note_on_c, 0, 66, 78
1, 409731, Note_on_c, 0, 78, 52
1, 409734, Note_on_c, 0, 59, 74
1, 409738, Note_on_c, 0, 71, 45
1, 409746, Note_off_c, 0, 66, 71
1, 409752, Note_off_c, 0, 78, 62
1, 409763, Note_off_c, 0, 71, 37
1, 409781, Note_off_c, 0, 59, 66
1, 409859, Note_on_c, 0, 59, 71
1, 409877, Note_off_c, 0, 59, 67
1, 409917, Note_on_c, 0, 60, 63
1, 409951, Note_off_c, 0, 60, 64
1, 409996, Note_on_c, 0, 77, 97
1, 409999, Note_on_c, 0, 56, 75
1, 410000, Note_on_c, 0, 73, 72
1, 410004, Note_on_c, 0, 68, 71
1, 410012, Note_off_c, 0, 77, 73
1, 410015, Note_off_c, 0, 73, 69
1, 410020, Note_off_c, 0, 56, 68
1, 410026, Note_off_c, 0, 68, 67
1, 410030, Note_on_c, 0, 65, 24
1, 410046, Note_off_c, 0, 65, 47
1, 410076, Note_on_c, 0, 56, 63
1, 410097, Note_off_c, 0, 56, 62
1, 410133, Note_on_c, 0, 56, 62
1, 410161, Note_off_c, 0, 56, 65
1, 410213, Note_on_c, 0, 56, 64
1, 410278, Note_on_c, 0, 64, 52
1, 410294, Note_off_c, 0, 56, 63
1, 410302, Note_off_c, 0, 64, 37
1, 410336, Note_on_c, 0, 57, 73
1, 410360, Note_off_c, 0, 57, 66
1, 410422, Note_on_c, 0, 46, 85
1, 410449, Note_off_c, 0, 46, 67
1, 410602, Note_on_c, 0, 71, 74
1, 410612, Note_on_c, 0, 59, 46
1, 410613, Note_on_c, 0, 68, 57
1, 410624, Note_off_c, 0, 71, 71
1, 410639, Note_off_c, 0, 59, 35
1, 410640, Note_off_c, 0, 68, 67
1, 410657, Note_on_c, 0, 67, 70
1, 410672, Note_on_c, 0, 72, 58
1, 410690, Note_off_c, 0, 72, 63
1, 410706, Note_off_c, 0, 67, 57
1, 410732, Note_on_c, 0, 70, 60
1, 410744, Note_on_c, 0, 75, 72
1, 410759, Note_off_c, 0, 70, 65
1, 410786, Note_on_c, 0, 72, 60
1, 410818, Note_off_c, 0, 75, 62
1, 410820, Note_on_c, 0, 67, 48
1, 410820, Note_off_c, 0, 72, 63
1, 410845, Note_off_c, 0, 67, 52
1, 410855, Note_on_c, 0, 59, 69
1, 410860, Note_on_c, 0, 71, 84
1, 410866, Note_on_c, 0, 68, 67
1, 410879, Note_off_c, 0, 59, 64
1, 410888, Note_off_c, 0, 68, 69
1, 410890, Note_off_c, 0, 71, 67
1, 410923, Note_on_c, 0, 67, 69
1, 410933, Note_on_c, 0, 72, 73
1, 410939, Control_c, 0, 64, 11
1, 410952, Note_off_c, 0, 72, 65
1, 410954, Control_c, 0, 64, 20
1, 410956, Note_off_c, 0, 67, 63
1, 410969, Control_c, 0, 64, 26
1, 410984, Control_c, 0, 64, 33
1, 410997, Note_on_c, 0, 80, 65
1, 410999, Control_c, 0, 64, 39
1, 411000, Note_on_c, 0, 75, 46
1, 411013, Control_c, 0, 64, 41
1, 411017, Note_off_c, 0, 80, 65
1, 411025, Note_off_c, 0, 75, 54
1, 411028, Control_c, 0, 64, 41
1, 411035, Note_on_c, 0, 68, 57
1, 411045, Note_on_c, 0, 76, 70
1, 411050, Note_on_c, 0, 71, 53
1, 411058, Control_c, 0, 64, 43
1, 411063, Note_off_c, 0, 76, 65
1, 411065, Note_off_c, 0, 68, 67
1, 411073, Note_off_c, 0, 71, 38
1, 411073, Control_c, 0, 64, 46
1, 411087, Control_c, 0, 64, 50
1, 411093, Note_on_c, 0, 72, 74
1, 411111, Note_on_c, 0, 79, 64
1, 411117, Control_c, 0, 64, 47
1, 411126, Note_off_c, 0, 72, 66
1, 411128, Note_off_c, 0, 79, 66
1, 411132, Control_c, 0, 64, 38
1, 411146, Control_c, 0, 64, 17
1, 411161, Control_c, 0, 64, 0
1, 411176, Control_c, 0, 64, 11
1, 411186, Note_on_c, 0, 84, 71
1, 411191, Control_c, 0, 64, 32
1, 411206, Control_c, 0, 64, 42
1, 411209, Note_off_c, 0, 84, 66
1, 411221, Note_on_c, 0, 71, 60
1, 411221, Control_c, 0, 64, 43
1, 411236, Note_on_c, 0, 76, 27
1, 411236, Control_c, 0, 64, 42
1, 411247, Note_off_c, 0, 71, 67
1, 411251, Control_c, 0, 64, 43
1, 411258, Note_on_c, 0, 84, 83
1, 411263, Note_on_c, 0, 77, 80
1, 411265, Note_off_c, 0, 76, 0
1, 411265, Note_on_c, 0, 76, 27
1, 411265, Note_on_c, 0, 86, 78
1, 411266, Control_c, 0, 64, 46
1, 411280, Note_off_c, 0, 77, 65
1, 411280, Note_off_c, 0, 86, 69
1, 411281, Control_c, 0, 64, 48
1, 411293, Note_off_c, 0, 76, 63
1, 411293, Note_off_c, 0, 84, 66
1, 411295, Control_c, 0, 64, 49
1, 411354, Control_c, 0, 64, 49
1, 411362, Note_on_c, 0, 71, 58
1, 411367, Note_on_c, 0, 83, 88
1, 411369, Control_c, 0, 64, 51
1, 411370, Note_on_c, 0, 80, 75
1, 411379, Note_on_c, 0, 76, 58
1, 411384, Control_c, 0, 64, 53
1, 411385, Note_off_c, 0, 71, 68
1, 411387, Note_off_c, 0, 83, 68
1, 411395, Note_off_c, 0, 80, 65
1, 411397, Note_on_c, 0, 81, 32
1, 411399, Note_off_c, 0, 76, 63
1, 411399, Control_c, 0, 64, 55
1, 411421, Control_c, 0, 64, 57
1, 411433, Note_off_c, 0, 81, 33
1, 411435, Note_on_c, 0, 84, 81
1, 411436, Control_c, 0, 64, 59
1, 411436, Note_on_c, 0, 79, 83
1, 411451, Control_c, 0, 64, 61
1, 411458, Note_off_c, 0, 84, 66
1, 411465, Control_c, 0, 64, 63
1, 411480, Control_c, 0, 64, 65
1, 411496, Control_c, 0, 64, 66
1, 411498, Note_on_c, 0, 87, 80
1, 411511, Control_c, 0, 64, 68
1, 411521, Note_off_c, 0, 79, 53
1, 411525, Control_c, 0, 64, 69
1, 411540, Control_c, 0, 64, 72
1, 411547, Note_on_c, 0, 82, 19
1, 411555, Control_c, 0, 64, 76
1, 411557, Note_off_c, 0, 87, 65
1, 411570, Control_c, 0, 64, 81
1, 411573, Note_on_c, 0, 71, 74
1, 411585, Control_c, 0, 64, 88
1, 411590, Note_off_c, 0, 82, 30
1, 411594, Note_on_c, 0, 80, 84
1, 411594, Note_on_c, 0, 83, 89
1, 411598, Note_off_c, 0, 71, 68
1, 411600, Control_c, 0, 64, 96
1, 411614, Control_c, 0, 64, 107
1, 411617, Note_off_c, 0, 80, 65
1, 411623, Note_off_c, 0, 83, 64
1, 411629, Note_on_c, 0, 79, 83
1, 411629, Control_c, 0, 64, 127
1, 411631, Note_on_c, 0, 84, 87
1, 411638, Note_on_c, 0, 81, 64
1, 411663, Note_off_c, 0, 81, 65
1, 411668, Note_off_c, 0, 79, 63
1, 411670, Note_off_c, 0, 84, 60
1, 411692, Note_on_c, 0, 92, 94
1, 411726, Note_off_c, 0, 92, 66
1, 411754, Note_on_c, 0, 90, 3
1, 411755, Note_on_c, 0, 80, 66
1, 411769, Note_on_c, 0, 88, 93
1, 411772, Note_on_c, 0, 83, 75
1, 411792, Note_off_c, 0, 90, 28
1, 411817, Note_on_c, 0, 91, 91
1, 411832, Note_off_c, 0, 88, 60
1, 411837, Note_on_c, 0, 95, 67
1, 411839, Note_off_c, 0, 83, 61
1, 411841, Note_on_c, 0, 92, 83
1, 411854, Note_off_c, 0, 95, 67
1, 411855, Note_off_c, 0, 91, 63
1, 411856, Note_on_c, 0, 93, 43
1, 411857, Note_off_c, 0, 93, 127
1, 411860, Note_off_c, 0, 80, 62
1, 411866, Control_c, 0, 64, 86
1, 411874, Note_off_c, 0, 92, 65
1, 411881, Control_c, 0, 64, 63
1, 411896, Control_c, 0, 64, 60
1, 411910, Control_c, 0, 64, 71
1, 411913, Note_on_c, 0, 101, 108
1, 411925, Control_c, 0, 64, 94
1, 411939, Note_on_c, 0, 98, 85
1, 411940, Control_c, 0, 64, 127
1, 411963, Note_off_c, 0, 101, 63
1, 411974, Note_on_c, 0, 86, 79
1, 411989, Note_on_c, 0, 89, 89
1, 412003, Note_on_c, 0, 82, 79
1, 412007, Note_off_c, 0, 98, 67
1, 412008, Note_on_c, 0, 96, 3
1, 412010, Note_off_c, 0, 86, 58
1, 412023, Note_off_c, 0, 89, 62
1, 412037, Note_off_c, 0, 96, 34
1, 412052, Note_off_c, 0, 82, 64
1, 412066, Note_on_c, 0, 74, 71
1, 412088, Note_off_c, 0, 74, 69
1, 412097, Note_on_c, 0, 89, 91
1, 412102, Note_on_c, 0, 86, 92
1, 412102, Note_on_c, 0, 88, 89
1, 412127, Note_on_c, 0, 91, 85
1, 412129, Note_off_c, 0, 88, 59
1, 412139, Note_off_c, 0, 89, 59
1, 412151, Note_on_c, 0, 79, 85
1, 412151, Note_on_c, 0, 81, 80
1, 412152, Note_on_c, 0, 80, 91
1, 412167, Note_off_c, 0, 86, 56
1, 412170, Note_off_c, 0, 91, 66
1, 412181, Note_off_c, 0, 79, 64
1, 412193, Note_off_c, 0, 80, 65
1, 412196, Note_off_c, 0, 81, 50
1, 412203, Note_on_c, 0, 75, 21
1, 412219, Note_on_c, 0, 74, 58
1, 412234, Note_on_c, 0, 68, 83
1, 412237, Note_off_c, 0, 75, 43
1, 412246, Note_off_c, 0, 74, 66
1, 412279, Note_off_c, 0, 68, 65
1, 412340, Poly_aftertouch_c, 0, 73, 0
1, 412364, Note_on_c, 0, 70, 93
1, 412396, Note_on_c, 0, 62, 70
1, 412406, Note_off_c, 0, 70, 65
1, 412457, Note_on_c, 0, 58, 58
1, 412479, Note_off_c, 0, 58, 60
1, 412479, Note_off_c, 0, 62, 68
1, 412482, Note_on_c, 0, 56, 79
1, 412530, Note_off_c, 0, 56, 65
1, 412538, Note_on_c, 0, 50, 78
1, 412582, Note_on_c, 0, 54, 49
1, 412596, Note_off_c, 0, 50, 64
1, 412601, Note_on_c, 0, 58, 63
1, 412608, Note_off_c, 0, 54, 54
1, 412641, Poly_aftertouch_c, 0, 56, 127
1, 412656, Note_on_c, 0, 54, 73
1, 412687, Note_off_c, 0, 54, 66
1, 412694, Note_on_c, 0, 53, 74
1, 412715, Poly_aftertouch_c, 0, 56, 0
1, 412717, Note_on_c, 0, 46, 91
1, 412720, Note_off_c, 0, 58, 62
1, 412722, Note_off_c, 0, 53, 64
1, 412738, Note_off_c, 0, 46, 70
1, 412773, Note_on_c, 0, 32, 106
1, 412792, Note_off_c, 0, 32, 69
1, 412792, Control_c, 0, 64, 101
1, 412801, Note_on_c, 0, 30, 48
1, 412802, Note_off_c, 0, 30, 127
1, 412807, Control_c, 0, 64, 67
1, 412822, Control_c, 0, 64, 49
1, 412837, Control_c, 0, 64, 43
1, 412852, Control_c, 0, 64, 45
1, 412855, Note_on_c, 0, 32, 34
1, 412856, Note_off_c, 0, 32, 127
1, 412866, Control_c, 0, 64, 46
1, 412881, Control_c, 0, 64, 45
1, 412896, Control_c, 0, 64, 43
1, 412918, Control_c, 0, 64, 41
1, 412958, Note_on_c, 0, 77, 86
1, 412962, Note_on_c, 0, 70, 82
1, 412965, Note_on_c, 0, 65, 93
1, 412974, Note_on_c, 0, 68, 81
1, 412977, Note_on_c, 0, 62, 65
1, 412980, Note_on_c, 0, 58, 62
1, 412983, Note_on_c, 0, 73, 49
1, 412983, Note_off_c, 0, 65, 70
1, 412986, Note_off_c, 0, 70, 65
1, 412995, Note_off_c, 0, 68, 69
1, 412997, Note_on_c, 0, 53, 43
1, 412998, Note_off_c, 0, 53, 127
1, 412998, Note_off_c, 0, 62, 43
1, 412998, Note_off_c, 0, 58, 66
1, 413006, Note_off_c, 0, 73, 56
1, 413007, Note_off_c, 0, 77, 65
1, 413007, Control_c, 0, 64, 41
1, 413022, Control_c, 0, 64, 43
1, 413037, Note_on_c, 0, 65, 83
1, 413037, Control_c, 0, 64, 45
1, 413052, Control_c, 0, 64, 46
1, 413081, Control_c, 0, 64, 46
1, 413110, Note_on_c, 0, 54, 81
1, 413114, Note_off_c, 0, 65, 66
1, 413127, Control_c, 0, 64, 45
1, 413141, Control_c, 0, 64, 42
1, 413156, Control_c, 0, 64, 35
1, 413166, Note_on_c, 0, 66, 61
1, 413171, Control_c, 0, 64, 18
1, 413174, Note_on_c, 0, 56, 25
1, 413186, Control_c, 0, 64, 0
1, 413188, Note_off_c, 0, 66, 69
1, 413212, Note_off_c, 0, 56, 30
1, 413218, Note_on_c, 0, 63, 76
1, 413218, Note_on_c, 0, 68, 106
1, 413220, Note_off_c, 0, 54, 66
1, 413225, Note_on_c, 0, 80, 85
1, 413227, Note_on_c, 0, 73, 79
1, 413231, Note_on_c, 0, 75, 84
1, 413240, Note_off_c, 0, 63, 69
1, 413245, Control_c, 0, 64, 32
1, 413249, Note_off_c, 0, 73, 64
1, 413249, Note_off_c, 0, 68, 65
1, 413251, Note_on_c, 0, 60, 21
1, 413252, Note_off_c, 0, 60, 127
1, 413260, Control_c, 0, 64, 49
1, 413264, Note_off_c, 0, 75, 60
1, 413269, Note_on_c, 0, 78, 21
1, 413273, Note_off_c, 0, 80, 64
1, 413275, Control_c, 0, 64, 57
1, 413290, Control_c, 0, 64, 59
1, 413299, Note_on_c, 0, 68, 80
1, 413305, Control_c, 0, 64, 59
1, 413314, Note_off_c, 0, 78, 29
1, 413320, Control_c, 0, 64, 60
1, 413328, Note_off_c, 0, 68, 64
1, 413334, Control_c, 0, 64, 60
1, 413349, Control_c, 0, 64, 61
1, 413392, Note_on_c, 0, 69, 42
1, 413394, Control_c, 0, 64, 62
1, 413399, Note_on_c, 0, 70, 26
1, 413400, Note_off_c, 0, 70, 127
1, 413408, Control_c, 0, 64, 63
1, 413421, Note_off_c, 0, 69, 37
1, 413423, Control_c, 0, 64, 65
1, 413428, Note_on_c, 0, 68, 72
1, 413438, Control_c, 0, 64, 68
1, 413447, Note_off_c, 0, 68, 66
1, 413453, Control_c, 0, 64, 71
1, 413468, Control_c, 0, 64, 72
1, 413478, Note_on_c, 0, 69, 79
1, 413478, Note_on_c, 0, 59, 59
1, 413482, Note_on_c, 0, 80, 87
1, 413482, Control_c, 0, 64, 72
1, 413489, Note_on_c, 0, 63, 64
1, 413492, Note_off_c, 0, 69, 69
1, 413497, Note_on_c, 0, 67, 54
1, 413497, Control_c, 0, 64, 70
1, 413505, Note_on_c, 0, 75, 56
1, 413511, Note_on_c, 0, 78, 53
1, 413512, Control_c, 0, 64, 66
1, 413516, Note_off_c, 0, 63, 68
1, 413520, Note_off_c, 0, 59, 65
1, 413522, Note_off_c, 0, 67, 39
1, 413526, Note_off_c, 0, 75, 63
1, 413527, Control_c, 0, 64, 59
1, 413537, Note_off_c, 0, 80, 64
1, 413537, Note_off_c, 0, 78, 48
1, 413541, Control_c, 0, 64, 49
1, 413549, Note_on_c, 0, 66, 89
1, 413556, Control_c, 0, 64, 39
1, 413571, Control_c, 0, 64, 40
1, 413586, Control_c, 0, 64, 49
1, 413601, Note_off_c, 0, 66, 62
1, 413602, Control_c, 0, 64, 59
1, 413616, Note_on_c, 0, 32, 114
1, 413616, Control_c, 0, 64, 62
1, 413629, Note_on_c, 0, 30, 78
1, 413630, Note_off_c, 0, 30, 127
1, 413637, Note_off_c, 0, 32, 71
1, 413646, Control_c, 0, 64, 62
1, 413668, Control_c, 0, 64, 60
1, 413683, Control_c, 0, 64, 56
1, 413698, Control_c, 0, 64, 50
1, 413713, Control_c, 0, 64, 43
1, 413728, Control_c, 0, 64, 36
1, 413742, Control_c, 0, 64, 26
1, 413757, Control_c, 0, 64, 0
1, 413775, Note_on_c, 0, 65, 97
1, 413779, Note_on_c, 0, 77, 83
1, 413782, Note_on_c, 0, 62, 82
1, 413788, Note_on_c, 0, 71, 64
1, 413791, Note_on_c, 0, 58, 60
1, 413795, Note_on_c, 0, 68, 64
1, 413797, Note_on_c, 0, 53, 62
1, 413797, Note_off_c, 0, 65, 69
1, 413806, Note_on_c, 0, 75, 23
1, 413807, Note_off_c, 0, 75, 127
1, 413807, Note_off_c, 0, 62, 66
1, 413808, Note_off_c, 0, 71, 62
1, 413816, Note_off_c, 0, 58, 67
1, 413817, Note_off_c, 0, 68, 38
1, 413820, Note_off_c, 0, 53, 61
1, 413823, Note_off_c, 0, 77, 64
1, 413845, Note_on_c, 0, 65, 75
1, 413868, Note_off_c, 0, 65, 67
1, 413910, Note_on_c, 0, 66, 92
1, 413945, Note_off_c, 0, 66, 54
1, 413969, Note_on_c, 0, 66, 77
1, 414000, Note_off_c, 0, 66, 66
1, 414012, Note_on_c, 0, 62, 96
1, 414016, Note_on_c, 0, 51, 90
1, 414017, Note_on_c, 0, 60, 95
1, 414024, Note_on_c, 0, 56, 82
1, 414035, Note_off_c, 0, 60, 70
1, 414036, Note_on_c, 0, 66, 74
1, 414039, Control_c, 0, 64, 22
1, 414040, Note_off_c, 0, 62, 68
1, 414044, Note_on_c, 0, 68, 81
1, 414048, Note_off_c, 0, 56, 66
1, 414051, Note_on_c, 0, 73, 44
1, 414051, Note_on_c, 0, 74, 68
1, 414054, Control_c, 0, 64, 57
1, 414057, Note_off_c, 0, 51, 62
1, 414067, Note_off_c, 0, 68, 67
1, 414069, Control_c, 0, 64, 61
1, 414071, Note_on_c, 0, 70, 38
1, 414075, Note_off_c, 0, 74, 67
1, 414077, Note_off_c, 0, 73, 51
1, 414081, Note_off_c, 0, 66, 48
1, 414099, Note_on_c, 0, 62, 84
1, 414102, Note_off_c, 0, 70, 43
1, 414126, Note_off_c, 0, 62, 63
1, 414142, Note_on_c, 0, 64, 11
1, 414162, Note_on_c, 0, 62, 73
1, 414187, Control_c, 0, 64, 61
1, 414195, Note_off_c, 0, 64, 30
1, 414197, Note_off_c, 0, 62, 60
1, 414202, Control_c, 0, 64, 62
1, 414214, Note_on_c, 0, 62, 70
1, 414217, Control_c, 0, 64, 62
1, 414232, Control_c, 0, 64, 63
1, 414247, Control_c, 0, 64, 63
1, 414254, Note_on_c, 0, 56, 33
1, 414256, Note_on_c, 0, 60, 39
1, 414258, Note_off_c, 0, 62, 67
1, 414260, Note_on_c, 0, 53, 64
1, 414262, Control_c, 0, 64, 65
1, 414276, Note_off_c, 0, 56, 50
1, 414276, Control_c, 0, 64, 67
1, 414282, Note_off_c, 0, 53, 54
1, 414288, Note_off_c, 0, 60, 38
1, 414290, Note_on_c, 0, 72, 64
1, 414291, Control_c, 0, 64, 72
1, 414295, Note_on_c, 0, 74, 72
1, 414302, Note_on_c, 0, 68, 67
1, 414306, Control_c, 0, 64, 81
1, 414309, Note_on_c, 0, 70, 64
1, 414321, Control_c, 0, 64, 100
1, 414327, Note_off_c, 0, 74, 53
1, 414328, Note_off_c, 0, 68, 69
1, 414329, Note_off_c, 0, 70, 65
1, 414336, Control_c, 0, 64, 127
1, 414344, Note_on_c, 0, 66, 20
1, 414351, Note_on_c, 0, 63, 87
1, 414370, Note_off_c, 0, 66, 53
1, 414371, Note_off_c, 0, 72, 33
1, 414381, Note_off_c, 0, 63, 60
1, 414417, Note_on_c, 0, 32, 96
1, 414417, Control_c, 0, 64, 78
1, 414417, Note_on_c, 0, 44, 106
1, 414431, Control_c, 0, 64, 58
1, 414434, Note_off_c, 0, 44, 74
1, 414435, Note_off_c, 0, 32, 68
1, 414446, Control_c, 0, 64, 37
1, 414461, Control_c, 0, 64, 31
1, 414476, Control_c, 0, 64, 33
1, 414490, Control_c, 0, 64, 34
1, 414520, Control_c, 0, 64, 33
1, 414535, Control_c, 0, 64, 31
1, 414550, Control_c, 0, 64, 28
1, 414564, Control_c, 0, 64, 27
1, 414574, Note_on_c, 0, 56, 82
1, 414577, Note_on_c, 0, 65, 84
1, 414579, Control_c, 0, 64, 27
1, 414594, Control_c, 0, 64, 27
1, 414598, Note_on_c, 0, 58, 27
1, 414600, Note_off_c, 0, 65, 0
1, 414601, Note_on_c, 0, 57, 48
1, 414601, Note_off_c, 0, 58, 43
1, 414608, Note_on_c, 0, 64, 47
1, 414609, Note_off_c, 0, 56, 64
1, 414609, Control_c, 0, 64, 29
1, 414624, Control_c, 0, 64, 32
1, 414627, Poly_aftertouch_c, 0, 65, 0
1, 414628, Note_off_c, 0, 57, 36
1, 414634, Note_off_c, 0, 64, 52
1, 414637, Note_on_c, 0, 66, 17
1, 414638, Note_off_c, 0, 66, 127
1, 414638, Control_c, 0, 64, 34
1, 414653, Control_c, 0, 64, 39
1, 414668, Control_c, 0, 64, 45
1, 414684, Control_c, 0, 64, 52
1, 414699, Control_c, 0, 64, 55
1, 414705, Note_on_c, 0, 68, 92
1, 414718, Note_on_c, 0, 63, 63
1, 414728, Control_c, 0, 64, 56
1, 414733, Note_on_c, 0, 57, 29
1, 414736, Note_off_c, 0, 68, 65
1, 414737, Note_on_c, 0, 59, 42
1, 414743, Control_c, 0, 64, 60
1, 414744, Note_on_c, 0, 60, 45
1, 414748, Note_off_c, 0, 63, 64
1, 414758, Control_c, 0, 64, 66
1, 414760, Note_off_c, 0, 59, 52
1, 414769, Note_off_c, 0, 57, 31
1, 414771, Note_off_c, 0, 60, 35
1, 414773, Control_c, 0, 64, 73
1, 414777, Note_on_c, 0, 66, 90
1, 414780, Note_on_c, 0, 78, 81
1, 414788, Control_c, 0, 64, 83
1, 414800, Note_off_c, 0, 66, 65
1, 414800, Note_off_c, 0, 78, 69
1, 414803, Control_c, 0, 64, 93
1, 414818, Control_c, 0, 64, 102
1, 414825, Note_on_c, 0, 56, 82
1, 414827, Note_on_c, 0, 65, 91
1, 414829, Note_on_c, 0, 58, 78
1, 414833, Control_c, 0, 64, 112
1, 414834, Note_on_c, 0, 62, 76
1, 414848, Control_c, 0, 64, 127
1, 414861, Note_off_c, 0, 62, 67
1, 414864, Note_off_c, 0, 58, 63
1, 414868, Note_off_c, 0, 65, 64
1, 414879, Note_off_c, 0, 56, 64
1, 414886, Note_on_c, 0, 78, 83
1, 414888, Note_on_c, 0, 66, 86
1, 414898, Note_on_c, 0, 68, 66
1, 414902, Note_off_c, 0, 66, 76
1, 414907, Note_off_c, 0, 78, 66
1, 414918, Note_off_c, 0, 68, 64
1, 414987, Note_on_c, 0, 71, 93
1, 414996, Note_on_c, 0, 83, 83
1, 415007, Note_off_c, 0, 71, 70
1, 415016, Note_off_c, 0, 83, 70
1, 415025, Note_on_c, 0, 65, 60
1, 415025, Note_on_c, 0, 68, 39
1, 415037, Poly_aftertouch_c, 0, 66, 0
1, 415044, Note_on_c, 0, 70, 44
1, 415050, Note_off_c, 0, 65, 66
1, 415053, Note_off_c, 0, 68, 68
1, 415060, Note_on_c, 0, 64, 25
1, 415069, Note_off_c, 0, 70, 54
1, 415100, Note_off_c, 0, 64, 39
1, 415104, Note_on_c, 0, 73, 90
1, 415111, Note_on_c, 0, 85, 84
1, 415123, Note_off_c, 0, 73, 67
1, 415129, Note_off_c, 0, 85, 71
1, 415138, Note_on_c, 0, 72, 84
1, 415165, Note_on_c, 0, 74, 71
1, 415171, Note_off_c, 0, 72, 66
1, 415188, Note_off_c, 0, 74, 70
1, 415210, Control_c, 0, 64, 90
1, 415221, Note_on_c, 0, 79, 102
1, 415224, Note_on_c, 0, 88, 95
1, 415225, Note_on_c, 0, 91, 93
1, 415225, Control_c, 0, 64, 71
1, 415233, Note_on_c, 0, 80, 111
1, 415239, Control_c, 0, 64, 61
1, 415246, Note_off_c, 0, 88, 65
1, 415248, Note_off_c, 0, 91, 64
1, 415254, Control_c, 0, 64, 55
1, 415255, Note_off_c, 0, 79, 67
1, 415260, Note_off_c, 0, 80, 67
1, 415269, Control_c, 0, 64, 51
1, 415284, Control_c, 0, 64, 43
1, 415299, Control_c, 0, 64, 27
1, 415305, Note_on_c, 0, 77, 99
1, 415308, Note_on_c, 0, 86, 90
1, 415308, Note_on_c, 0, 89, 78
1, 415314, Control_c, 0, 64, 0
1, 415326, Note_off_c, 0, 89, 72
1, 415330, Note_off_c, 0, 77, 66
1, 415330, Note_off_c, 0, 86, 65
1, 415362, Note_on_c, 0, 77, 84
1, 415365, Note_on_c, 0, 68, 84
1, 415381, Note_on_c, 0, 70, 63
1, 415381, Note_on_c, 0, 76, 60
1, 415382, Note_off_c, 0, 76, 127
1, 415388, Note_on_c, 0, 74, 58
1, 415393, Note_off_c, 0, 68, 58
1, 415396, Note_off_c, 0, 77, 67
1, 415398, Note_off_c, 0, 70, 67
1, 415409, Note_off_c, 0, 74, 61
1, 415436, Note_on_c, 0, 82, 91
1, 415437, Note_on_c, 0, 78, 90
1, 415443, Note_on_c, 0, 90, 86
1, 415453, Note_off_c, 0, 82, 69
1, 415454, Note_off_c, 0, 78, 73
1, 415462, Note_off_c, 0, 90, 71
1, 415496, Note_on_c, 0, 80, 97
1, 415505, Note_on_c, 0, 75, 81
1, 415511, Note_on_c, 0, 69, 59
1, 415511, Note_on_c, 0, 71, 52
1, 415515, Note_on_c, 0, 72, 61
1, 415533, Note_off_c, 0, 80, 66
1, 415540, Note_off_c, 0, 69, 64
1, 415543, Note_off_c, 0, 72, 66
1, 415548, Note_off_c, 0, 71, 64
1, 415556, Note_off_c, 0, 75, 64
1, 415567, Note_on_c, 0, 90, 82
1, 415567, Note_on_c, 0, 78, 86
1, 415567, Note_on_c, 0, 85, 82
1, 415570, Note_on_c, 0, 82, 77
1, 415582, Note_off_c, 0, 78, 69
1, 415588, Note_off_c, 0, 90, 68
1, 415588, Note_off_c, 0, 85, 70
1, 415591, Note_off_c, 0, 82, 69
1, 415621, Note_on_c, 0, 74, 84
1, 415621, Note_on_c, 0, 77, 102
1, 415624, Note_on_c, 0, 68, 85
1, 415624, Note_on_c, 0, 70, 85
1, 415633, Note_on_c, 0, 78, 43
1, 415634, Note_off_c, 0, 78, 127
1, 415640, Note_on_c, 0, 76, 68
1, 415648, Note_on_c, 0, 67, 66
1, 415649, Note_off_c, 0, 76, 46
1, 415655, Control_c, 0, 64, 9
1, 415657, Note_off_c, 0, 74, 66
1, 415660, Note_off_c, 0, 77, 68
1, 415664, Note_off_c, 0, 67, 66
1, 415670, Control_c, 0, 64, 42
1, 415672, Note_off_c, 0, 70, 63
1, 415677, Note_off_c, 0, 68, 64
1, 415679, Note_on_c, 0, 78, 91
1, 415685, Control_c, 0, 64, 55
1, 415692, Note_on_c, 0, 90, 78
1, 415700, Control_c, 0, 64, 60
1, 415708, Note_off_c, 0, 78, 66
1, 415711, Note_off_c, 0, 90, 69
1, 415715, Control_c, 0, 64, 61
1, 415729, Control_c, 0, 64, 63
1, 415744, Control_c, 0, 64, 66
1, 415745, Note_on_c, 0, 79, 6
1, 415746, Note_off_c, 0, 79, 127
1, 415759, Control_c, 0, 64, 71
1, 415768, Note_on_c, 0, 81, 105
1, 415770, Note_on_c, 0, 93, 99
1, 415774, Control_c, 0, 64, 78
1, 415789, Control_c, 0, 64, 88
1, 415791, Poly_aftertouch_c, 0, 79, 0
1, 415802, Note_off_c, 0, 81, 65
1, 415803, Note_off_c, 0, 93, 68
1, 415803, Control_c, 0, 64, 98
1, 415818, Control_c, 0, 64, 110
1, 415833, Control_c, 0, 64, 127
1, 415842, Poly_aftertouch_c, 0, 81, 0
1, 415844, Note_on_c, 0, 80, 92
1, 415845, Note_on_c, 0, 76, 93
1, 415845, Note_on_c, 0, 81, 88
1, 415863, Note_off_c, 0, 81, 70
1, 415871, Note_off_c, 0, 80, 61
1, 415878, Note_off_c, 0, 76, 64
1, 415926, Note_on_c, 0, 85, 109
1, 415928, Note_on_c, 0, 97, 95
1, 415958, Note_off_c, 0, 85, 68
1, 415964, Note_off_c, 0, 97, 63
1, 415999, Note_on_c, 0, 86, 110
1, 416032, Note_off_c, 0, 86, 71
1, 416033, Control_c, 0, 64, 94
1, 416047, Note_on_c, 0, 78, 33
1, 416048, Note_off_c, 0, 78, 127
1, 416048, Control_c, 0, 64, 58
1, 416062, Control_c, 0, 64, 0
1, 416092, Control_c, 0, 64, 29
1, 416096, Note_on_c, 0, 105, 104
1, 416107, Control_c, 0, 64, 57
1, 416122, Control_c, 0, 64, 69
1, 416137, Note_on_c, 0, 102, 85
1, 416137, Control_c, 0, 64, 78
1, 416151, Control_c, 0, 64, 92
1, 416166, Note_on_c, 0, 99, 94
1, 416166, Control_c, 0, 64, 107
1, 416173, Note_on_c, 0, 103, 17
1, 416173, Note_off_c, 0, 105, 65
1, 416174, Note_off_c, 0, 103, 40
1, 416178, Note_on_c, 0, 87, 42
1, 416181, Control_c, 0, 64, 127
1, 416195, Note_on_c, 0, 93, 83
1, 416198, Note_off_c, 0, 102, 64
1, 416207, Note_off_c, 0, 99, 67
1, 416212, Note_off_c, 0, 93, 70
1, 416221, Note_off_c, 0, 87, 62
1, 416229, Note_on_c, 0, 94, 86
1, 416264, Note_off_c, 0, 94, 66
1, 416274, Note_on_c, 0, 90, 81
1, 416308, Note_on_c, 0, 82, 74
1, 416312, Note_on_c, 0, 87, 74
1, 416356, Note_off_c, 0, 90, 62
1, 416371, Note_off_c, 0, 82, 65
1, 416372, Note_off_c, 0, 87, 66
1, 416392, Note_on_c, 0, 78, 77
1, 416432, Note_off_c, 0, 78, 62
1, 416447, Note_on_c, 0, 74, 60
1, 416494, Note_on_c, 0, 70, 60
1, 416501, Note_off_c, 0, 74, 58
1, 416514, Note_off_c, 0, 70, 64
1, 416561, Note_on_c, 0, 66, 39
1, 416592, Note_off_c, 0, 66, 43
1, 416625, Note_on_c, 0, 63, 67
1, 416718, Note_on_c, 0, 58, 67
1, 416728, Note_off_c, 0, 63, 59
1, 416773, Note_off_c, 0, 58, 60
1, 417034, Note_on_c, 0, 30, 72
1, 417047, Control_c, 0, 64, 77
1, 417062, Control_c, 0, 64, 51
1, 417078, Control_c, 0, 64, 0
1, 417107, Control_c, 0, 64, 21
1, 417122, Control_c, 0, 64, 47
1, 417137, Control_c, 0, 64, 62
1, 417152, Control_c, 0, 64, 68
1, 417167, Control_c, 0, 64, 73
1, 417181, Control_c, 0, 64, 78
1, 417196, Control_c, 0, 64, 84
1, 417211, Control_c, 0, 64, 93
1, 417225, Control_c, 0, 64, 104
1, 417239, Note_off_c, 0, 30, 34
1, 417240, Control_c, 0, 64, 127
1, 417422, Note_on_c, 0, 42, 35
1, 417549, Note_off_c, 0, 42, 50
1, 417585, Note_on_c, 0, 30, 38
1, 417641, Note_off_c, 0, 30, 54
1, 417707, Note_on_c, 0, 42, 40
1, 417769, Note_off_c, 0, 42, 54
1, 417780, Note_on_c, 0, 45, 63
1, 417788, Note_on_c, 0, 30, 47
1, 417849, Note_off_c, 0, 30, 53
1, 417901, Note_on_c, 0, 42, 47
1, 417946, Note_off_c, 0, 42, 57
1, 417963, Note_on_c, 0, 30, 59
1, 418011, Note_off_c, 0, 30, 56
1, 418014, Note_on_c, 0, 46, 76
1, 418056, Note_on_c, 0, 42, 49
1, 418104, Note_off_c, 0, 42, 56
1, 418113, Note_on_c, 0, 30, 69
1, 418193, Note_off_c, 0, 45, 31
1, 418194, Note_off_c, 0, 30, 59
1, 418221, Note_on_c, 0, 42, 50
1, 418250, Control_c, 0, 64, 111
1, 418264, Control_c, 0, 64, 78
1, 418279, Control_c, 0, 64, 60
1, 418282, Note_off_c, 0, 42, 55
1, 418285, Note_on_c, 0, 30, 55
1, 418294, Control_c, 0, 64, 28
1, 418299, Note_on_c, 0, 53, 78
1, 418309, Control_c, 0, 64, 0
1, 418353, Control_c, 0, 64, 28
1, 418367, Note_off_c, 0, 46, 55
1, 418368, Control_c, 0, 64, 52
1, 418382, Control_c, 0, 64, 65
1, 418397, Control_c, 0, 64, 73
1, 418412, Control_c, 0, 64, 81
1, 418427, Control_c, 0, 64, 92
1, 418442, Control_c, 0, 64, 103
1, 418448, Note_off_c, 0, 30, 34
1, 418456, Control_c, 0, 64, 127
1, 418457, Note_on_c, 0, 42, 42
1, 418488, Note_off_c, 0, 42, 57
1, 418679, Note_on_c, 0, 54, 42
1, 418795, Note_on_c, 0, 58, 52
1, 418796, Note_off_c, 0, 54, 56
1, 418831, Note_off_c, 0, 58, 63
1, 418879, Note_on_c, 0, 51, 63
1, 419005, Note_on_c, 0, 46, 71
1, 419009, Note_off_c, 0, 53, 51
1, 419112, Note_off_c, 0, 51, 59
1, 419161, Control_c, 0, 64, 103
1, 419164, Note_on_c, 0, 42, 46
1, 419176, Control_c, 0, 64, 79
1, 419191, Control_c, 0, 64, 64
1, 419205, Control_c, 0, 64, 50
1, 419210, Note_off_c, 0, 42, 58
1, 419220, Control_c, 0, 64, 46
1, 419227, Note_on_c, 0, 30, 58
1, 419235, Control_c, 0, 64, 49
1, 419250, Control_c, 0, 64, 55
1, 419265, Control_c, 0, 64, 61
1, 419279, Control_c, 0, 64, 67
1, 419287, Note_off_c, 0, 30, 58
1, 419294, Control_c, 0, 64, 72
1, 419309, Control_c, 0, 64, 77
1, 419324, Control_c, 0, 64, 80
1, 419325, Note_on_c, 0, 42, 54
1, 419339, Control_c, 0, 64, 81
1, 419353, Control_c, 0, 64, 82
1, 419368, Control_c, 0, 64, 82
1, 419378, Note_off_c, 0, 42, 59
1, 419383, Control_c, 0, 64, 83
1, 419398, Control_c, 0, 64, 84
1, 419409, Note_on_c, 0, 30, 60
1, 419413, Control_c, 0, 64, 85
1, 419427, Control_c, 0, 64, 85
1, 419442, Control_c, 0, 64, 86
1, 419463, Note_off_c, 0, 30, 56
1, 419467, Note_on_c, 0, 45, 71
1, 419488, Control_c, 0, 64, 86
1, 419508, Note_off_c, 0, 46, 58
1, 419514, Note_on_c, 0, 42, 49
1, 419547, Control_c, 0, 64, 87
1, 419548, Note_off_c, 0, 42, 62
1, 419576, Note_on_c, 0, 30, 65
1, 419576, Control_c, 0, 64, 87
1, 419621, Note_off_c, 0, 30, 61
1, 419621, Control_c, 0, 64, 88
1, 419630, Note_on_c, 0, 46, 77
1, 419658, Control_c, 0, 64, 88
1, 419664, Note_on_c, 0, 42, 51
1, 419680, Note_off_c, 0, 45, 57
1, 419732, Control_c, 0, 64, 86
1, 419745, Note_off_c, 0, 42, 45
1, 419747, Control_c, 0, 64, 75
1, 419762, Control_c, 0, 64, 60
1, 419777, Control_c, 0, 64, 22
1, 419791, Control_c, 0, 64, 0
1, 419792, Note_on_c, 0, 30, 52
1, 419806, Note_on_c, 0, 51, 73
1, 419819, Note_off_c, 0, 46, 62
1, 419836, Control_c, 0, 64, 31
1, 419851, Control_c, 0, 64, 54
1, 419866, Control_c, 0, 64, 63
1, 419881, Control_c, 0, 64, 66
1, 419895, Control_c, 0, 64, 69
1, 419910, Control_c, 0, 64, 73
1, 419923, Note_off_c, 0, 30, 60
1, 419925, Control_c, 0, 64, 79
1, 419934, Note_on_c, 0, 42, 61
1, 419940, Control_c, 0, 64, 85
1, 419954, Control_c, 0, 64, 91
1, 419964, Note_off_c, 0, 42, 65
1, 419969, Control_c, 0, 64, 97
1, 419984, Control_c, 0, 64, 101
1, 419999, Control_c, 0, 64, 103
1, 420014, Control_c, 0, 64, 105
1, 420028, Control_c, 0, 64, 106
1, 420043, Control_c, 0, 64, 107
1, 420053, Note_on_c, 0, 52, 64
1, 420058, Control_c, 0, 64, 108
1, 420073, Control_c, 0, 64, 109
1, 420088, Control_c, 0, 64, 110
1, 420094, Note_off_c, 0, 52, 62
1, 420102, Control_c, 0, 64, 110
1, 420117, Control_c, 0, 64, 111
1, 420131, Note_on_c, 0, 55, 73
1, 420146, Control_c, 0, 64, 111
1, 420158, Note_off_c, 0, 55, 66
1, 420174, Note_off_c, 0, 51, 34
1, 420191, Control_c, 0, 64, 112
1, 420193, Note_on_c, 0, 46, 69
1, 420206, Control_c, 0, 64, 112
1, 420220, Control_c, 0, 64, 115
1, 420222, Note_off_c, 0, 46, 65
1, 420235, Control_c, 0, 64, 127
1, 420298, Note_on_c, 0, 42, 64
1, 420338, Note_off_c, 0, 42, 63
1, 420340, Control_c, 0, 64, 121
1, 420355, Control_c, 0, 64, 106
1, 420370, Control_c, 0, 64, 99
1, 420382, Note_on_c, 0, 30, 85
1, 420385, Control_c, 0, 64, 91
1, 420407, Control_c, 0, 64, 82
1, 420422, Control_c, 0, 64, 73
1, 420433, Note_off_c, 0, 30, 61
1, 420437, Control_c, 0, 64, 62
1, 420451, Control_c, 0, 64, 50
1, 420462, Note_on_c, 0, 42, 67
1, 420466, Control_c, 0, 64, 33
1, 420481, Control_c, 0, 64, 0
1, 420489, Note_off_c, 0, 42, 62
1, 420492, Note_on_c, 0, 67, 70
1, 420495, Note_on_c, 0, 55, 86
1, 420518, Note_off_c, 0, 67, 65
1, 420524, Note_off_c, 0, 55, 69
1, 420557, Note_on_c, 0, 42, 71
1, 420590, Note_on_c, 0, 55, 63
1, 420598, Note_on_c, 0, 46, 71
1, 420602, Note_off_c, 0, 42, 61
1, 420610, Note_off_c, 0, 55, 63
1, 420644, Note_on_c, 0, 53, 56
1, 420648, Note_on_c, 0, 55, 59
1, 420659, Note_off_c, 0, 46, 64
1, 420668, Note_on_c, 0, 49, 72
1, 420669, Note_off_c, 0, 53, 39
1, 420669, Note_off_c, 0, 55, 65
1, 420697, Note_off_c, 0, 49, 65
1, 420727, Note_on_c, 0, 54, 67
1, 420740, Note_on_c, 0, 57, 39
1, 420754, Note_off_c, 0, 54, 65
1, 420772, Note_off_c, 0, 57, 33
1, 420785, Note_on_c, 0, 58, 81
1, 420787, Note_on_c, 0, 70, 78
1, 420790, Note_on_c, 0, 52, 71
1, 420796, Note_on_c, 0, 67, 63
1, 420805, Note_off_c, 0, 58, 65
1, 420809, Note_off_c, 0, 52, 41
1, 420828, Note_on_c, 0, 68, 41
1, 420840, Note_off_c, 0, 67, 62
1, 420842, Note_off_c, 0, 70, 62
1, 420858, Note_off_c, 0, 68, 35
1, 420862, Note_on_c, 0, 58, 80
1, 420897, Note_off_c, 0, 58, 62
1, 420924, Note_on_c, 0, 58, 59
1, 420951, Note_off_c, 0, 58, 66
1, 421002, Note_on_c, 0, 58, 69
1, 421028, Note_off_c, 0, 58, 65
1, 421097, Note_on_c, 0, 67, 55
1, 421107, Note_on_c, 0, 58, 49
1, 421109, Note_on_c, 0, 70, 47
1, 421129, Note_off_c, 0, 67, 66
1, 421133, Note_off_c, 0, 58, 52
1, 421134, Note_off_c, 0, 70, 57
1, 421168, Note_on_c, 0, 66, 61
1, 421177, Note_on_c, 0, 57, 71
1, 421183, Note_on_c, 0, 69, 46
1, 421198, Note_off_c, 0, 66, 65
1, 421206, Note_off_c, 0, 57, 65
1, 421209, Note_off_c, 0, 69, 35
1, 421279, Note_on_c, 0, 67, 60
1, 421279, Note_on_c, 0, 64, 64
1, 421285, Note_on_c, 0, 55, 63
1, 421308, Note_off_c, 0, 67, 54
1, 421311, Note_off_c, 0, 64, 62
1, 421323, Note_off_c, 0, 55, 62
1, 421541, Control_c, 0, 64, 17
1, 421556, Control_c, 0, 64, 29
1, 421571, Control_c, 0, 64, 38
1, 421586, Control_c, 0, 64, 46
1, 421600, Control_c, 0, 64, 51
1, 421615, Control_c, 0, 64, 53
1, 421630, Control_c, 0, 64, 55
1, 421645, Control_c, 0, 64, 58
1, 421660, Control_c, 0, 64, 60
1, 421674, Control_c, 0, 64, 62
1, 421689, Control_c, 0, 64, 64
1, 421704, Control_c, 0, 64, 65
1, 421719, Control_c, 0, 64, 67
1, 421733, Control_c, 0, 64, 69
1, 421748, Control_c, 0, 64, 72
1, 421763, Control_c, 0, 64, 76
1, 421765, Note_on_c, 0, 57, 57
1, 421778, Control_c, 0, 64, 81
1, 421782, Note_on_c, 0, 45, 46
1, 421792, Control_c, 0, 64, 86
1, 421807, Control_c, 0, 64, 92
1, 421822, Control_c, 0, 64, 98
1, 421837, Control_c, 0, 64, 104
1, 421852, Control_c, 0, 64, 115
1, 421856, Note_off_c, 0, 45, 60
1, 421856, Note_off_c, 0, 57, 58
1, 421868, Control_c, 0, 64, 127
1, 422146, Note_on_c, 0, 58, 68
1, 422156, Note_on_c, 0, 46, 55
1, 422187, Note_off_c, 0, 46, 65
1, 422353, Note_on_c, 0, 30, 63
1, 422364, Control_c, 0, 64, 92
1, 422379, Control_c, 0, 64, 73
1, 422393, Control_c, 0, 64, 61
1, 422408, Control_c, 0, 64, 54
1, 422420, Note_on_c, 0, 63, 67
1, 422423, Control_c, 0, 64, 56
1, 422423, Note_off_c, 0, 58, 55
1, 422429, Note_on_c, 0, 51, 64
1, 422438, Control_c, 0, 64, 62
1, 422453, Control_c, 0, 64, 70
1, 422468, Control_c, 0, 64, 80
1, 422483, Control_c, 0, 64, 93
1, 422497, Control_c, 0, 64, 109
1, 422512, Control_c, 0, 64, 127
1, 422516, Note_off_c, 0, 51, 54
1, 422547, Note_off_c, 0, 30, 46
1, 422573, Note_on_c, 0, 42, 56
1, 422620, Note_off_c, 0, 42, 61
1, 422867, Note_on_c, 0, 55, 46
1, 422912, Note_off_c, 0, 55, 57
1, 422962, Note_on_c, 0, 46, 60
1, 422962, Note_on_c, 0, 58, 75
1, 422994, Note_off_c, 0, 46, 66
1, 423009, Note_off_c, 0, 63, 59
1, 423071, Note_on_c, 0, 42, 60
1, 423120, Note_off_c, 0, 42, 56
1, 423157, Note_on_c, 0, 30, 71
1, 423216, Note_off_c, 0, 30, 60
1, 423234, Note_on_c, 0, 42, 66
1, 423258, Note_off_c, 0, 42, 66
1, 423335, Control_c, 0, 64, 96
1, 423341, Note_on_c, 0, 46, 64
1, 423350, Control_c, 0, 64, 74
1, 423353, Note_on_c, 0, 61, 74
1, 423354, Note_on_c, 0, 49, 72
1, 423364, Control_c, 0, 64, 62
1, 423379, Control_c, 0, 64, 57
1, 423398, Note_off_c, 0, 46, 58
1, 423398, Note_off_c, 0, 58, 57
1, 423401, Control_c, 0, 64, 61
1, 423416, Control_c, 0, 64, 66
1, 423431, Control_c, 0, 64, 72
1, 423446, Control_c, 0, 64, 78
1, 423453, Note_on_c, 0, 55, 62
1, 423461, Control_c, 0, 64, 82
1, 423476, Control_c, 0, 64, 84
1, 423484, Note_off_c, 0, 55, 63
1, 423491, Control_c, 0, 64, 85
1, 423506, Control_c, 0, 64, 86
1, 423521, Control_c, 0, 64, 87
1, 423529, Note_on_c, 0, 46, 62
1, 423536, Control_c, 0, 64, 87
1, 423550, Control_c, 0, 64, 88
1, 423559, Note_off_c, 0, 46, 65
1, 423565, Control_c, 0, 64, 89
1, 423580, Control_c, 0, 64, 92
1, 423595, Control_c, 0, 64, 95
1, 423610, Control_c, 0, 64, 102
1, 423625, Control_c, 0, 64, 111
1, 423633, Note_on_c, 0, 42, 61
1, 423639, Control_c, 0, 64, 114
1, 423654, Control_c, 0, 64, 113
1, 423669, Control_c, 0, 64, 99
1, 423683, Note_off_c, 0, 42, 59
1, 423684, Control_c, 0, 64, 79
1, 423699, Control_c, 0, 64, 69
1, 423714, Control_c, 0, 64, 65
1, 423728, Control_c, 0, 64, 68
1, 423738, Note_on_c, 0, 30, 63
1, 423743, Control_c, 0, 64, 73
1, 423758, Control_c, 0, 64, 82
1, 423773, Control_c, 0, 64, 91
1, 423788, Control_c, 0, 64, 97
1, 423802, Control_c, 0, 64, 100
1, 423803, Note_off_c, 0, 61, 59
1, 423804, Note_off_c, 0, 49, 63
1, 423807, Note_off_c, 0, 30, 55
1, 423817, Control_c, 0, 64, 103
1, 423830, Note_on_c, 0, 42, 60
1, 423832, Control_c, 0, 64, 107
1, 423847, Control_c, 0, 64, 114
1, 423862, Control_c, 0, 64, 124
1, 423863, Note_off_c, 0, 42, 64
1, 423876, Control_c, 0, 64, 127
1, 423906, Control_c, 0, 64, 122
1, 423920, Control_c, 0, 64, 100
1, 423935, Control_c, 0, 64, 81
1, 423943, Note_on_c, 0, 42, 62
1, 423950, Control_c, 0, 64, 65
1, 423965, Control_c, 0, 64, 48
1, 423980, Control_c, 0, 64, 38
1, 423994, Control_c, 0, 64, 42
1, 424004, Note_off_c, 0, 42, 56
1, 424009, Control_c, 0, 64, 52
1, 424015, Note_on_c, 0, 59, 64
1, 424024, Control_c, 0, 64, 62
1, 424038, Note_on_c, 0, 47, 53
1, 424039, Control_c, 0, 64, 69
1, 424054, Control_c, 0, 64, 74
1, 424066, Note_off_c, 0, 47, 62
1, 424069, Control_c, 0, 64, 79
1, 424069, Note_on_c, 0, 50, 56
1, 424084, Control_c, 0, 64, 83
1, 424095, Note_off_c, 0, 50, 60
1, 424096, Note_off_c, 0, 59, 62
1, 424096, Note_on_c, 0, 54, 67
1, 424099, Control_c, 0, 64, 86
1, 424113, Control_c, 0, 64, 87
1, 424116, Note_off_c, 0, 54, 66
1, 424128, Control_c, 0, 64, 89
1, 424132, Note_on_c, 0, 42, 65
1, 424151, Control_c, 0, 64, 91
1, 424166, Control_c, 0, 64, 93
1, 424173, Note_off_c, 0, 42, 64
1, 424181, Control_c, 0, 64, 96
1, 424195, Note_on_c, 0, 50, 52
1, 424196, Control_c, 0, 64, 99
1, 424210, Control_c, 0, 64, 100
1, 424224, Note_off_c, 0, 50, 61
1, 424225, Control_c, 0, 64, 101
1, 424240, Control_c, 0, 64, 101
1, 424255, Control_c, 0, 64, 102
1, 424286, Control_c, 0, 64, 102
1, 424300, Control_c, 0, 64, 102
1, 424315, Control_c, 0, 64, 101
1, 424320, Note_on_c, 0, 50, 52
1, 424330, Control_c, 0, 64, 89
1, 424342, Note_on_c, 0, 78, 71
1, 424343, Note_on_c, 0, 73, 59
1, 424345, Control_c, 0, 64, 74
1, 424354, Note_on_c, 0, 66, 58
1, 424359, Control_c, 0, 64, 61
1, 424363, Note_off_c, 0, 73, 65
1, 424373, Note_off_c, 0, 78, 62
1, 424374, Control_c, 0, 64, 46
1, 424377, Note_off_c, 0, 66, 53
1, 424389, Control_c, 0, 64, 29
1, 424396, Note_on_c, 0, 54, 61
1, 424404, Control_c, 0, 64, 19
1, 424409, Note_off_c, 0, 50, 62
1, 424428, Note_on_c, 0, 80, 72
1, 424428, Note_off_c, 0, 54, 66
1, 424431, Note_on_c, 0, 77, 59
1, 424433, Control_c, 0, 64, 27
1, 424439, Note_on_c, 0, 68, 58
1, 424448, Control_c, 0, 64, 42
1, 424463, Control_c, 0, 64, 55
1, 424467, Note_on_c, 0, 62, 62
1, 424478, Control_c, 0, 64, 63
1, 424492, Control_c, 0, 64, 66
1, 424495, Note_off_c, 0, 62, 66
1, 424507, Control_c, 0, 64, 67
1, 424522, Control_c, 0, 64, 67
1, 424537, Note_off_c, 0, 68, 34
1, 424537, Control_c, 0, 64, 68
1, 424552, Control_c, 0, 64, 69
1, 424564, Note_on_c, 0, 62, 65
1, 424567, Control_c, 0, 64, 70
1, 424581, Control_c, 0, 64, 71
1, 424596, Control_c, 0, 64, 72
1, 424606, Note_off_c, 0, 80, 57
1, 424611, Control_c, 0, 64, 72
1, 424619, Note_off_c, 0, 77, 59
1, 424626, Control_c, 0, 64, 73
1, 424647, Note_on_c, 0, 66, 60
1, 424647, Note_off_c, 0, 62, 56
1, 424677, Note_off_c, 0, 66, 66
1, 424775, Note_on_c, 0, 74, 57
1, 424802, Note_off_c, 0, 74, 68
1, 424818, Control_c, 0, 64, 72
1, 424832, Control_c, 0, 64, 69
1, 424847, Control_c, 0, 64, 64
1, 424862, Control_c, 0, 64, 56
1, 424877, Control_c, 0, 64, 46
1, 424899, Control_c, 0, 64, 39
1, 424914, Control_c, 0, 64, 35
1, 424929, Control_c, 0, 64, 34
1, 424943, Control_c, 0, 64, 33
1, 424988, Control_c, 0, 64, 33
1, 425003, Control_c, 0, 64, 32
1, 425017, Control_c, 0, 64, 31
1, 425032, Control_c, 0, 64, 30
1, 425047, Control_c, 0, 64, 29
1, 425062, Control_c, 0, 64, 28
1, 425122, Control_c, 0, 64, 28
1, 425137, Control_c, 0, 64, 27
1, 425166, Control_c, 0, 64, 26
1, 425181, Control_c, 0, 64, 24
1, 425196, Control_c, 0, 64, 21
1, 425211, Control_c, 0, 64, 20
1, 425226, Control_c, 0, 64, 21
1, 425241, Control_c, 0, 64, 23
1, 425255, Control_c, 0, 64, 26
1, 425270, Control_c, 0, 64, 28
1, 425285, Control_c, 0, 64, 31
1, 425300, Control_c, 0, 64, 37
1, 425315, Control_c, 0, 64, 43
1, 425330, Control_c, 0, 64, 47
1, 425345, Control_c, 0, 64, 49
1, 425359, Control_c, 0, 64, 48
1, 425374, Control_c, 0, 64, 46
1, 425389, Control_c, 0, 64, 39
1, 425404, Control_c, 0, 64, 15
1, 425410, Note_on_c, 0, 53, 93
1, 425419, Control_c, 0, 64, 0
1, 425421, Note_on_c, 0, 65, 103
1, 425443, Note_on_c, 0, 67, 59
1, 425444, Note_off_c, 0, 67, 127
1, 425463, Note_off_c, 0, 53, 65
1, 425492, Control_c, 0, 64, 49
1, 425507, Control_c, 0, 64, 64
1, 425522, Control_c, 0, 64, 67
1, 425537, Control_c, 0, 64, 68
1, 425552, Control_c, 0, 64, 69
1, 425561, Note_on_c, 0, 53, 43
1, 425566, Control_c, 0, 64, 70
1, 425594, Note_off_c, 0, 65, 65
1, 425595, Note_off_c, 0, 53, 41
1, 425596, Control_c, 0, 64, 70
1, 425611, Control_c, 0, 64, 76
1, 425625, Note_on_c, 0, 54, 103
1, 425625, Note_on_c, 0, 66, 102
1, 425626, Control_c, 0, 64, 89
1, 425648, Control_c, 0, 64, 127
1, 425663, Note_off_c, 0, 66, 67
1, 425672, Note_off_c, 0, 54, 67
1, 425714, Note_on_c, 0, 47, 65
1, 425728, Note_on_c, 0, 54, 101
1, 425750, Note_on_c, 0, 46, 40
1, 425751, Note_off_c, 0, 46, 127
1, 425754, Note_off_c, 0, 54, 69
1, 425761, Note_off_c, 0, 47, 65
1, 425931, Note_on_c, 0, 97, 103
1, 425932, Note_on_c, 0, 85, 85
1, 425937, Note_on_c, 0, 61, 84
1, 425941, Note_on_c, 0, 73, 104
1, 425946, Note_on_c, 0, 66, 82
1, 425965, Note_on_c, 0, 62, 58
1, 425975, Note_off_c, 0, 85, 65
1, 426009, Note_on_c, 0, 90, 90
1, 426021, Note_off_c, 0, 97, 64
1, 426031, Note_off_c, 0, 61, 64
1, 426060, Note_off_c, 0, 90, 64
1, 426067, Note_off_c, 0, 73, 61
1, 426079, Note_on_c, 0, 86, 76
1, 426099, Note_off_c, 0, 86, 71
1, 426102, Poly_aftertouch_c, 0, 63, 127
1, 426123, Note_off_c, 0, 62, 57
1, 426157, Note_on_c, 0, 85, 69
1, 426183, Poly_aftertouch_c, 0, 63, 0
1, 426183, Note_off_c, 0, 66, 62
1, 426200, Note_on_c, 0, 59, 77
1, 426200, Note_on_c, 0, 71, 94
1, 426208, Note_on_c, 0, 78, 88
1, 426225, Note_off_c, 0, 85, 64
1, 426232, Note_off_c, 0, 71, 66
1, 426239, Note_off_c, 0, 59, 66
1, 426250, Note_off_c, 0, 78, 65
1, 426269, Note_on_c, 0, 74, 83
1, 426298, Note_off_c, 0, 74, 64
1, 426325, Note_on_c, 0, 66, 92
1, 426351, Note_on_c, 0, 73, 79
1, 426352, Note_on_c, 0, 54, 54
1, 426356, Note_off_c, 0, 66, 66
1, 426373, Note_off_c, 0, 54, 63
1, 426421, Note_on_c, 0, 66, 78
1, 426430, Note_off_c, 0, 73, 66
1, 426465, Note_off_c, 0, 66, 65
1, 426482, Note_on_c, 0, 62, 82
1, 426522, Note_off_c, 0, 62, 66
1, 426540, Note_on_c, 0, 61, 89
1, 426591, Note_on_c, 0, 54, 65
1, 426605, Note_off_c, 0, 61, 63
1, 426664, Note_on_c, 0, 50, 74
1, 426685, Note_off_c, 0, 54, 64
1, 426731, Note_on_c, 0, 53, 102
1, 426731, Note_on_c, 0, 65, 96
1, 426740, Note_on_c, 0, 61, 98
1, 426766, Note_on_c, 0, 63, 44
1, 426766, Note_off_c, 0, 50, 63
1, 426778, Note_off_c, 0, 61, 67
1, 426783, Note_on_c, 0, 54, 63
1, 426790, Note_off_c, 0, 53, 61
1, 426792, Note_off_c, 0, 63, 55
1, 426825, Note_on_c, 0, 50, 73
1, 426841, Note_off_c, 0, 54, 64
1, 426867, Note_off_c, 0, 65, 55
1, 426887, Note_off_c, 0, 50, 63
1, 426944, Note_on_c, 0, 47, 94
1, 427011, Note_on_c, 0, 66, 94
1, 427011, Note_on_c, 0, 54, 113
1, 427017, Note_on_c, 0, 42, 88
1, 427041, Note_on_c, 0, 53, 58
1, 427041, Note_off_c, 0, 47, 62
1, 427061, Note_off_c, 0, 53, 65
1, 427078, Note_off_c, 0, 54, 58
1, 427094, Note_on_c, 0, 35, 85
1, 427102, Note_off_c, 0, 42, 62
1, 427128, Poly_aftertouch_c, 0, 63, 0
1, 427158, Note_off_c, 0, 35, 63
1, 427235, Control_c, 0, 64, 77
1, 427250, Control_c, 0, 64, 50
1, 427258, Note_on_c, 0, 26, 105
1, 427264, Note_on_c, 0, 24, 98
1, 427265, Control_c, 0, 64, 45
1, 427279, Control_c, 0, 64, 59
1, 427288, Note_off_c, 0, 24, 66
1, 427291, Note_on_c, 0, 71, 97
1, 427294, Control_c, 0, 64, 74
1, 427295, Note_on_c, 0, 63, 94
1, 427296, Note_on_c, 0, 59, 96
1, 427296, Note_on_c, 0, 60, 102
1, 427309, Note_off_c, 0, 26, 65
1, 427309, Control_c, 0, 64, 105
1, 427318, Note_off_c, 0, 66, 66
1, 427321, Note_on_c, 0, 67, 54
1, 427322, Note_off_c, 0, 67, 127
1, 427324, Control_c, 0, 64, 127
1, 427359, Note_off_c, 0, 59, 59
1, 427359, Note_off_c, 0, 71, 64
1, 427370, Note_off_c, 0, 60, 60
1, 427375, Note_off_c, 0, 63, 61
1, 427425, Note_on_c, 0, 42, 48
1, 427445, Note_on_c, 0, 46, 63
1, 427449, Note_off_c, 0, 42, 54
1, 427453, Note_on_c, 0, 48, 62
1, 427475, Note_on_c, 0, 57, 73
1, 427478, Note_on_c, 0, 51, 71
1, 427482, Note_off_c, 0, 46, 63
1, 427485, Note_off_c, 0, 48, 63
1, 427500, Note_on_c, 0, 59, 53
1, 427502, Note_on_c, 0, 54, 89
1, 427510, Note_off_c, 0, 51, 65
1, 427515, Note_off_c, 0, 57, 58
1, 427525, Note_off_c, 0, 59, 55
1, 427527, Note_on_c, 0, 60, 77
1, 427530, Note_off_c, 0, 54, 65
1, 427552, Note_off_c, 0, 60, 65
1, 427574, Note_on_c, 0, 66, 71
1, 427577, Note_on_c, 0, 63, 55
1, 427594, Note_off_c, 0, 66, 71
1, 427604, Note_off_c, 0, 63, 36
1, 427637, Note_on_c, 0, 69, 73
1, 427686, Note_on_c, 0, 72, 82
1, 427690, Note_off_c, 0, 69, 66
1, 427733, Note_on_c, 0, 75, 77
1, 427735, Note_off_c, 0, 72, 65
1, 427738, Note_on_c, 0, 66, 94
1, 427739, Note_on_c, 0, 78, 85
1, 427747, Note_on_c, 0, 54, 80
1, 427756, Note_off_c, 0, 75, 68
1, 427762, Note_off_c, 0, 54, 72
1, 427773, Note_off_c, 0, 78, 63
1, 427780, Note_off_c, 0, 66, 66
1, 427810, Note_on_c, 0, 81, 85
1, 427828, Note_on_c, 0, 54, 38
1, 427846, Note_off_c, 0, 54, 38
1, 427857, Note_on_c, 0, 84, 76
1, 427897, Note_off_c, 0, 81, 62
1, 427914, Note_on_c, 0, 87, 73
1, 427921, Note_on_c, 0, 90, 82
1, 427927, Note_on_c, 0, 93, 91
1, 427928, Note_off_c, 0, 84, 65
1, 427933, Note_on_c, 0, 62, 81
1, 427934, Note_on_c, 0, 60, 86
1, 427934, Note_off_c, 0, 87, 72
1, 427940, Note_off_c, 0, 90, 69
1, 427959, Note_off_c, 0, 93, 65
1, 427999, Note_on_c, 0, 63, 78
1, 428019, Note_off_c, 0, 60, 58
1, 428023, Note_off_c, 0, 62, 63
1, 428064, Note_on_c, 0, 66, 46
1, 428084, Note_on_c, 0, 65, 60
1, 428104, Note_off_c, 0, 63, 62
1, 428105, Note_on_c, 0, 69, 76
1, 428113, Note_off_c, 0, 65, 67
1, 428117, Note_off_c, 0, 66, 61
1, 428132, Note_off_c, 0, 69, 69
1, 428132, Control_c, 0, 64, 90
1, 428136, Note_on_c, 0, 90, 103
1, 428138, Note_on_c, 0, 102, 94
1, 428147, Control_c, 0, 64, 72
1, 428148, Note_on_c, 0, 72, 84
1, 428158, Note_off_c, 0, 102, 67
1, 428162, Control_c, 0, 64, 57
1, 428167, Note_off_c, 0, 90, 67
1, 428176, Control_c, 0, 64, 49
1, 428182, Note_off_c, 0, 72, 64
1, 428191, Control_c, 0, 64, 48
1, 428206, Control_c, 0, 64, 50
1, 428221, Control_c, 0, 64, 52
1, 428224, Note_on_c, 0, 90, 96
1, 428233, Note_on_c, 0, 75, 84
1, 428236, Control_c, 0, 64, 53
1, 428251, Control_c, 0, 64, 52
1, 428262, Note_off_c, 0, 90, 66
1, 428266, Control_c, 0, 64, 53
1, 428281, Control_c, 0, 64, 54
1, 428287, Note_on_c, 0, 78, 74
1, 428296, Control_c, 0, 64, 58
1, 428301, Note_on_c, 0, 90, 85
1, 428311, Control_c, 0, 64, 61
1, 428313, Note_off_c, 0, 75, 64
1, 428325, Note_on_c, 0, 81, 68
1, 428325, Control_c, 0, 64, 64
1, 428340, Control_c, 0, 64, 65
1, 428345, Note_off_c, 0, 78, 65
1, 428348, Note_off_c, 0, 81, 68
1, 428355, Control_c, 0, 64, 67
1, 428357, Note_off_c, 0, 90, 65
1, 428370, Note_on_c, 0, 89, 90
1, 428370, Control_c, 0, 64, 70
1, 428373, Note_on_c, 0, 84, 83
1, 428385, Control_c, 0, 64, 76
1, 428400, Note_off_c, 0, 89, 68
1, 428400, Control_c, 0, 64, 84
1, 428411, Note_off_c, 0, 84, 66
1, 428415, Control_c, 0, 64, 94
1, 428430, Control_c, 0, 64, 106
1, 428434, Note_on_c, 0, 102, 85
1, 428439, Note_on_c, 0, 87, 101
1, 428439, Note_on_c, 0, 90, 108
1, 428440, Note_on_c, 0, 99, 91
1, 428444, Control_c, 0, 64, 127
1, 428451, Note_off_c, 0, 102, 72
1, 428454, Note_off_c, 0, 99, 75
1, 428460, Note_off_c, 0, 90, 62
1, 428469, Note_off_c, 0, 87, 64
1, 428480, Note_on_c, 0, 97, 28
1, 428481, Note_off_c, 0, 97, 127
1, 428791, Control_c, 0, 64, 115
1, 428806, Control_c, 0, 64, 97
1, 428821, Control_c, 0, 64, 83
1, 428835, Control_c, 0, 64, 72
1, 428850, Control_c, 0, 64, 61
1, 428865, Control_c, 0, 64, 46
1, 428880, Control_c, 0, 64, 0
1, 428999, Control_c, 0, 64, 16
1, 429014, Control_c, 0, 64, 31
1, 429029, Control_c, 0, 64, 43
1, 429043, Control_c, 0, 64, 54
1, 429058, Control_c, 0, 64, 61
1, 429074, Control_c, 0, 64, 67
1, 429089, Control_c, 0, 64, 71
1, 429098, Note_on_c, 0, 65, 94
1, 429099, Note_on_c, 0, 53, 103
1, 429103, Control_c, 0, 64, 78
1, 429118, Control_c, 0, 64, 89
1, 429133, Control_c, 0, 64, 98
1, 429145, Note_off_c, 0, 53, 63
1, 429148, Control_c, 0, 64, 105
1, 429148, Note_off_c, 0, 65, 58
1, 429163, Control_c, 0, 64, 113
1, 429178, Control_c, 0, 64, 127
1, 429312, Note_on_c, 0, 54, 104
1, 429312, Note_on_c, 0, 66, 103
1, 429337, Note_off_c, 0, 54, 67
1, 429351, Note_off_c, 0, 66, 65
1, 429367, Note_on_c, 0, 38, 111
1, 429371, Note_on_c, 0, 26, 98
1, 429404, Note_off_c, 0, 26, 67
1, 429406, Note_off_c, 0, 38, 67
1, 429603, Note_on_c, 0, 95, 101
1, 429610, Note_on_c, 0, 71, 113
1, 429612, Note_on_c, 0, 59, 94
1, 429615, Note_on_c, 0, 60, 95
1, 429619, Note_on_c, 0, 63, 90
1, 429682, Note_on_c, 0, 90, 80
1, 429697, Note_off_c, 0, 95, 65
1, 429745, Note_off_c, 0, 59, 61
1, 429749, Note_off_c, 0, 71, 60
1, 429751, Note_on_c, 0, 87, 85
1, 429768, Note_off_c, 0, 60, 59
1, 429769, Note_off_c, 0, 90, 64
1, 429788, Note_off_c, 0, 63, 62
1, 429799, Note_off_c, 0, 87, 66
1, 429810, Note_on_c, 0, 84, 86
1, 429834, Note_off_c, 0, 84, 65
1, 429883, Note_on_c, 0, 83, 88
1, 429944, Note_on_c, 0, 78, 91
1, 429950, Note_off_c, 0, 83, 66
1, 429997, Note_on_c, 0, 66, 107
1, 430004, Note_on_c, 0, 54, 97
1, 430010, Note_on_c, 0, 75, 96
1, 430026, Note_off_c, 0, 54, 70
1, 430027, Note_off_c, 0, 66, 70
1, 430031, Note_off_c, 0, 78, 64
1, 430069, Note_off_c, 0, 75, 66
1, 430078, Note_on_c, 0, 72, 89
1, 430112, Note_off_c, 0, 72, 68
1, 430172, Note_on_c, 0, 71, 93
1, 430229, Note_on_c, 0, 66, 89
1, 430255, Note_on_c, 0, 67, 43
1, 430279, Note_off_c, 0, 71, 63
1, 430284, Note_off_c, 0, 67, 49
1, 430296, Note_on_c, 0, 63, 90
1, 430321, Note_off_c, 0, 66, 67
1, 430323, Note_on_c, 0, 54, 74
1, 430349, Note_on_c, 0, 60, 83
1, 430363, Note_off_c, 0, 63, 65
1, 430376, Note_off_c, 0, 60, 65
1, 430384, Note_off_c, 0, 54, 62
1, 430430, Note_on_c, 0, 60, 95
1, 430430, Note_on_c, 0, 69, 100
1, 430433, Note_on_c, 0, 57, 98
1, 430436, Note_on_c, 0, 63, 94
1, 430448, Note_on_c, 0, 59, 69
1, 430452, Note_on_c, 0, 49, 42
1, 430466, Note_on_c, 0, 51, 16
1, 430470, Note_off_c, 0, 59, 38
1, 430470, Note_off_c, 0, 60, 63
1, 430480, Note_off_c, 0, 49, 44
1, 430493, Note_on_c, 0, 54, 76
1, 430504, Note_off_c, 0, 63, 42
1, 430505, Note_off_c, 0, 51, 39
1, 430570, Note_on_c, 0, 51, 92
1, 430574, Note_off_c, 0, 54, 65
1, 430605, Note_on_c, 0, 63, 50
1, 430611, Note_off_c, 0, 51, 66
1, 430659, Poly_aftertouch_c, 0, 66, 127
1, 430668, Note_on_c, 0, 48, 100
1, 430704, Note_off_c, 0, 57, 50
1, 430731, Note_off_c, 0, 48, 61
1, 430744, Note_on_c, 0, 42, 90
1, 430793, Note_off_c, 0, 42, 65
1, 430820, Note_on_c, 0, 38, 96
1, 430868, Note_off_c, 0, 63, 62
1, 430869, Note_off_c, 0, 38, 66
1, 430930, Poly_aftertouch_c, 0, 66, 0
1, 431009, Control_c, 0, 64, 85
1, 431024, Control_c, 0, 64, 45
1, 431032, Note_on_c, 0, 62, 93
1, 431035, Note_on_c, 0, 57, 92
1, 431036, Note_on_c, 0, 21, 117
1, 431038, Note_on_c, 0, 59, 89
1, 431038, Control_c, 0, 64, 0
1, 431067, Note_on_c, 0, 61, 47
1, 431068, Note_off_c, 0, 61, 127
1, 431068, Control_c, 0, 64, 39
1, 431083, Control_c, 0, 64, 60
1, 431098, Control_c, 0, 64, 70
1, 431107, Note_off_c, 0, 57, 62
1, 431108, Note_off_c, 0, 59, 61
1, 431109, Note_off_c, 0, 21, 64
1, 431113, Control_c, 0, 64, 80
1, 431122, Note_on_c, 0, 31, 80
1, 431127, Control_c, 0, 64, 88
1, 431142, Control_c, 0, 64, 93
1, 431148, Note_off_c, 0, 31, 67
1, 431156, Note_off_c, 0, 62, 58
1, 431157, Control_c, 0, 64, 94
1, 431172, Control_c, 0, 64, 95
1, 431187, Control_c, 0, 64, 95
1, 431202, Control_c, 0, 64, 96
1, 431217, Control_c, 0, 64, 99
1, 431225, Note_on_c, 0, 38, 88
1, 431231, Control_c, 0, 64, 106
1, 431246, Control_c, 0, 64, 127
1, 431297, Note_on_c, 0, 47, 80
1, 431309, Note_on_c, 0, 48, 74
1, 431324, Note_off_c, 0, 38, 61
1, 431328, Note_off_c, 0, 48, 41
1, 431352, Note_off_c, 0, 47, 64
1, 431357, Note_off_c, 0, 69, 55
1, 431366, Note_on_c, 0, 50, 93
1, 431384, Note_on_c, 0, 67, 99
1, 431405, Note_on_c, 0, 52, 54
1, 431407, Note_off_c, 0, 50, 66
1, 431410, Note_on_c, 0, 69, 21
1, 431428, Note_off_c, 0, 52, 59
1, 431451, Note_off_c, 0, 69, 39
1, 431475, Note_on_c, 0, 59, 88
1, 431482, Note_off_c, 0, 67, 60
1, 431503, Note_on_c, 0, 62, 91
1, 431515, Note_off_c, 0, 59, 63
1, 431518, Note_on_c, 0, 58, 83
1, 431525, Note_on_c, 0, 50, 75
1, 431547, Note_off_c, 0, 58, 60
1, 431549, Note_off_c, 0, 50, 66
1, 431549, Note_off_c, 0, 62, 66
1, 431579, Note_on_c, 0, 74, 87
1, 431582, Note_on_c, 0, 70, 85
1, 431601, Note_off_c, 0, 70, 70
1, 431612, Note_off_c, 0, 74, 63
1, 431658, Note_on_c, 0, 74, 93
1, 431700, Note_off_c, 0, 74, 0
1, 431704, Note_on_c, 0, 70, 40
1, 431706, Note_on_c, 0, 86, 89
1, 431709, Note_on_c, 0, 74, 82
1, 431710, Note_on_c, 0, 82, 93
1, 431715, Note_on_c, 0, 62, 90
1, 431724, Note_off_c, 0, 82, 74
1, 431733, Note_off_c, 0, 62, 70
1, 431734, Note_off_c, 0, 86, 64
1, 431736, Note_off_c, 0, 74, 66
1, 431739, Note_off_c, 0, 70, 64
1, 431876, Control_c, 0, 64, 111
1, 431891, Note_on_c, 0, 86, 92
1, 431891, Control_c, 0, 64, 76
1, 431894, Note_on_c, 0, 82, 92
1, 431897, Note_on_c, 0, 74, 84
1, 431906, Control_c, 0, 64, 59
1, 431915, Note_off_c, 0, 82, 65
1, 431917, Note_off_c, 0, 86, 67
1, 431920, Note_off_c, 0, 74, 67
1, 431921, Control_c, 0, 64, 42
1, 431935, Control_c, 0, 64, 39
1, 431965, Control_c, 0, 64, 39
1, 431974, Note_on_c, 0, 86, 86
1, 431980, Note_on_c, 0, 94, 83
1, 431980, Note_on_c, 0, 98, 89
1, 431980, Control_c, 0, 64, 40
1, 431997, Note_off_c, 0, 98, 71
1, 431998, Note_off_c, 0, 94, 71
1, 432001, Note_off_c, 0, 86, 63
1, 432052, Note_on_c, 0, 86, 79
1, 432055, Control_c, 0, 64, 41
1, 432057, Note_on_c, 0, 98, 87
1, 432057, Note_on_c, 0, 94, 85
1, 432077, Note_off_c, 0, 94, 67
1, 432077, Note_off_c, 0, 86, 62
1, 432082, Note_off_c, 0, 98, 62
1, 432084, Control_c, 0, 64, 40
1, 432109, Note_on_c, 0, 85, 90
1, 432111, Note_on_c, 0, 88, 95
1, 432121, Note_on_c, 0, 76, 62
1, 432129, Note_off_c, 0, 88, 70
1, 432129, Note_off_c, 0, 85, 69
1, 432139, Note_off_c, 0, 76, 63
1, 432143, Control_c, 0, 64, 41
1, 432185, Note_on_c, 0, 87, 104
1, 432186, Note_on_c, 0, 89, 99
1, 432187, Control_c, 0, 64, 42
1, 432189, Note_on_c, 0, 77, 67
1, 432202, Control_c, 0, 64, 43
1, 432213, Note_off_c, 0, 87, 65
1, 432217, Control_c, 0, 64, 45
1, 432224, Note_off_c, 0, 77, 65
1, 432224, Note_on_c, 0, 86, 49
1, 432225, Note_off_c, 0, 89, 65
1, 432232, Control_c, 0, 64, 47
1, 432247, Control_c, 0, 64, 49
1, 432248, Note_off_c, 0, 86, 38
1, 432255, Note_on_c, 0, 89, 87
1, 432257, Note_on_c, 0, 98, 87
1, 432263, Control_c, 0, 64, 50
1, 432267, Note_on_c, 0, 101, 70
1, 432274, Note_off_c, 0, 98, 72
1, 432277, Control_c, 0, 64, 52
1, 432290, Note_off_c, 0, 101, 71
1, 432291, Note_off_c, 0, 89, 66
1, 432292, Control_c, 0, 64, 54
1, 432307, Control_c, 0, 64, 55
1, 432320, Control_c, 0, 64, 57
1, 432333, Note_on_c, 0, 89, 85
1, 432333, Note_on_c, 0, 101, 81
1, 432334, Note_on_c, 0, 98, 93
1, 432335, Control_c, 0, 64, 59
1, 432350, Control_c, 0, 64, 60
1, 432356, Note_off_c, 0, 98, 63
1, 432361, Note_off_c, 0, 101, 63
1, 432365, Control_c, 0, 64, 61
1, 432370, Note_off_c, 0, 89, 65
1, 432387, Control_c, 0, 64, 62
1, 432402, Control_c, 0, 64, 64
1, 432409, Note_on_c, 0, 89, 68
1, 432413, Note_on_c, 0, 101, 89
1, 432416, Control_c, 0, 64, 65
1, 432430, Note_on_c, 0, 98, 71
1, 432431, Control_c, 0, 64, 66
1, 432441, Note_off_c, 0, 89, 67
1, 432444, Note_off_c, 0, 98, 69
1, 432446, Control_c, 0, 64, 68
1, 432448, Note_off_c, 0, 101, 68
1, 432457, Note_on_c, 0, 97, 25
1, 432458, Note_off_c, 0, 97, 127
1, 432461, Control_c, 0, 64, 69
1, 432476, Note_on_c, 0, 86, 78
1, 432476, Control_c, 0, 64, 71
1, 432477, Note_on_c, 0, 89, 69
1, 432479, Note_on_c, 0, 77, 63
1, 432490, Control_c, 0, 64, 75
1, 432499, Note_off_c, 0, 89, 69
1, 432505, Control_c, 0, 64, 81
1, 432507, Note_off_c, 0, 86, 62
1, 432518, Note_off_c, 0, 77, 61
1, 432520, Control_c, 0, 64, 87
1, 432540, Note_on_c, 0, 88, 94
1, 432540, Note_on_c, 0, 100, 94
1, 432550, Control_c, 0, 64, 82
1, 432564, Control_c, 0, 64, 71
1, 432572, Note_off_c, 0, 88, 66
1, 432579, Control_c, 0, 64, 62
1, 432583, Note_off_c, 0, 100, 59
1, 432594, Control_c, 0, 64, 58
1, 432609, Control_c, 0, 64, 62
1, 432610, Note_on_c, 0, 98, 94
1, 432618, Note_on_c, 0, 94, 92
1, 432621, Note_on_c, 0, 86, 87
1, 432624, Note_on_c, 0, 100, 14
1, 432624, Control_c, 0, 64, 69
1, 432625, Note_on_c, 0, 82, 88
1, 432626, Note_on_c, 0, 74, 85
1, 432634, Note_off_c, 0, 94, 71
1, 432637, Note_off_c, 0, 100, 51
1, 432639, Control_c, 0, 64, 82
1, 432643, Note_off_c, 0, 82, 70
1, 432643, Note_off_c, 0, 98, 68
1, 432646, Note_off_c, 0, 86, 65
1, 432654, Control_c, 0, 64, 98
1, 432667, Note_off_c, 0, 74, 64
1, 432669, Control_c, 0, 64, 111
1, 432683, Control_c, 0, 64, 118
1, 432698, Control_c, 0, 64, 127
1, 432816, Control_c, 0, 64, 90
1, 432831, Control_c, 0, 64, 67
1, 432846, Control_c, 0, 64, 55
1, 432861, Control_c, 0, 64, 61
1, 432869, Note_on_c, 0, 73, 72
1, 432875, Note_on_c, 0, 61, 77
1, 432876, Control_c, 0, 64, 71
1, 432890, Control_c, 0, 64, 86
1, 432905, Control_c, 0, 64, 112
1, 432912, Note_off_c, 0, 61, 57
1, 432920, Control_c, 0, 64, 127
1, 432924, Note_off_c, 0, 73, 58
1, 432983, Poly_aftertouch_c, 0, 70, 0
1, 433024, Note_on_c, 0, 74, 84
1, 433027, Note_on_c, 0, 62, 80
1, 433053, Note_off_c, 0, 62, 67
1, 433067, Note_off_c, 0, 74, 65
1, 433151, Control_c, 0, 64, 96
1, 433165, Control_c, 0, 64, 73
1, 433180, Control_c, 0, 64, 64
1, 433195, Control_c, 0, 64, 66
1, 433210, Control_c, 0, 64, 76
1, 433215, Note_on_c, 0, 70, 74
1, 433218, Note_on_c, 0, 81, 82
1, 433225, Control_c, 0, 64, 97
1, 433229, Note_on_c, 0, 69, 74
1, 433232, Note_on_c, 0, 74, 68
1, 433239, Control_c, 0, 64, 127
1, 433241, Note_off_c, 0, 70, 66
1, 433262, Note_on_c, 0, 62, 60
1, 433315, Note_off_c, 0, 62, 65
1, 433332, Note_on_c, 0, 58, 68
1, 433341, Note_off_c, 0, 69, 59
1, 433358, Note_off_c, 0, 58, 65
1, 433423, Note_off_c, 0, 81, 56
1, 433428, Note_on_c, 0, 57, 72
1, 433434, Note_off_c, 0, 74, 61
1, 433459, Note_off_c, 0, 57, 66
1, 433470, Note_on_c, 0, 79, 74
1, 433479, Note_on_c, 0, 67, 67
1, 433490, Note_on_c, 0, 50, 76
1, 433491, Note_off_c, 0, 79, 69
1, 433506, Note_off_c, 0, 67, 68
1, 433544, Note_off_c, 0, 50, 64
1, 433563, Note_on_c, 0, 46, 61
1, 433595, Note_off_c, 0, 46, 66
1, 433596, Note_on_c, 0, 62, 73
1, 433597, Note_on_c, 0, 74, 69
1, 433605, Note_on_c, 0, 50, 67
1, 433607, Note_on_c, 0, 70, 55
1, 433637, Note_off_c, 0, 50, 60
1, 433664, Note_on_c, 0, 46, 71
1, 433687, Note_off_c, 0, 46, 64
1, 433742, Note_on_c, 0, 38, 79
1, 433777, Note_off_c, 0, 38, 63
1, 433806, Note_on_c, 0, 31, 99
1, 433817, Note_off_c, 0, 62, 64
1, 433817, Note_off_c, 0, 74, 63
1, 433827, Note_off_c, 0, 70, 62
1, 433837, Note_off_c, 0, 31, 68
1, 433930, Control_c, 0, 64, 110
1, 433944, Control_c, 0, 64, 79
1, 433959, Control_c, 0, 64, 61
1, 433974, Control_c, 0, 64, 49
1, 433989, Control_c, 0, 64, 45
1, 434004, Control_c, 0, 64, 43
1, 434008, Note_on_c, 0, 62, 81
1, 434010, Note_on_c, 0, 50, 81
1, 434019, Control_c, 0, 64, 39
1, 434021, Note_on_c, 0, 60, 66
1, 434032, Note_off_c, 0, 62, 70
1, 434034, Control_c, 0, 64, 32
1, 434040, Note_off_c, 0, 60, 64
1, 434040, Note_off_c, 0, 50, 69
1, 434045, Note_on_c, 0, 57, 31
1, 434047, Note_off_c, 0, 57, 49
1, 434049, Control_c, 0, 64, 23
1, 434063, Control_c, 0, 64, 16
1, 434090, Note_on_c, 0, 58, 78
1, 434091, Note_on_c, 0, 62, 80
1, 434093, Control_c, 0, 64, 16
1, 434107, Note_off_c, 0, 58, 47
1, 434107, Control_c, 0, 64, 15
1, 434114, Note_off_c, 0, 62, 69
1, 434152, Control_c, 0, 64, 16
1, 434164, Note_on_c, 0, 62, 87
1, 434167, Control_c, 0, 64, 17
1, 434172, Note_on_c, 0, 58, 59
1, 434182, Note_off_c, 0, 62, 72
1, 434195, Note_off_c, 0, 58, 41
1, 434211, Control_c, 0, 64, 19
1, 434223, Note_on_c, 0, 64, 87
1, 434226, Control_c, 0, 64, 21
1, 434234, Note_on_c, 0, 52, 65
1, 434241, Control_c, 0, 64, 22
1, 434252, Note_off_c, 0, 64, 67
1, 434255, Control_c, 0, 64, 23
1, 434260, Note_off_c, 0, 52, 66
1, 434299, Control_c, 0, 64, 24
1, 434302, Note_on_c, 0, 59, 2
1, 434303, Note_off_c, 0, 59, 127
1, 434309, Note_on_c, 0, 61, 96
1, 434310, Note_on_c, 0, 58, 85
1, 434314, Control_c, 0, 64, 28
1, 434321, Note_on_c, 0, 49, 75
1, 434329, Note_off_c, 0, 61, 68
1, 434329, Control_c, 0, 64, 28
1, 434332, Note_off_c, 0, 58, 67
1, 434335, Poly_aftertouch_c, 0, 59, 0
1, 434336, Note_on_c, 0, 50, 64
1, 434342, Note_off_c, 0, 49, 42
1, 434344, Note_on_c, 0, 51, 48
1, 434345, Note_off_c, 0, 51, 127
1, 434345, Control_c, 0, 64, 28
1, 434358, Note_off_c, 0, 50, 42
1, 434359, Control_c, 0, 64, 27
1, 434386, Note_on_c, 0, 61, 88
1, 434389, Note_on_c, 0, 58, 86
1, 434403, Control_c, 0, 64, 28
1, 434409, Note_off_c, 0, 58, 69
1, 434412, Note_off_c, 0, 61, 66
1, 434448, Control_c, 0, 64, 28
1, 434463, Note_on_c, 0, 58, 79
1, 434463, Control_c, 0, 64, 29
1, 434469, Note_on_c, 0, 61, 85
1, 434478, Control_c, 0, 64, 30
1, 434489, Note_off_c, 0, 58, 65
1, 434492, Note_off_c, 0, 61, 67
1, 434537, Control_c, 0, 64, 31
1, 434545, Note_on_c, 0, 61, 86
1, 434547, Note_on_c, 0, 58, 87
1, 434552, Control_c, 0, 64, 33
1, 434567, Control_c, 0, 64, 34
1, 434571, Note_off_c, 0, 58, 65
1, 434581, Control_c, 0, 64, 34
1, 434587, Note_off_c, 0, 61, 64
1, 434596, Control_c, 0, 64, 36
1, 434611, Control_c, 0, 64, 39
1, 434615, Note_on_c, 0, 49, 84
1, 434633, Control_c, 0, 64, 43
1, 434640, Note_on_c, 0, 61, 77
1, 434641, Note_on_c, 0, 58, 91
1, 434648, Control_c, 0, 64, 47
1, 434649, Note_off_c, 0, 49, 67
1, 434664, Control_c, 0, 64, 50
1, 434679, Control_c, 0, 64, 54
1, 434681, Note_off_c, 0, 58, 61
1, 434693, Control_c, 0, 64, 56
1, 434708, Control_c, 0, 64, 54
1, 434712, Note_off_c, 0, 61, 62
1, 434723, Poly_aftertouch_c, 0, 58, 0
1, 434723, Control_c, 0, 64, 43
1, 434726, Note_on_c, 0, 62, 83
1, 434728, Note_on_c, 0, 58, 65
1, 434737, Control_c, 0, 64, 0
1, 434744, Note_off_c, 0, 58, 68
1, 434757, Note_off_c, 0, 62, 69
1, 434794, Note_on_c, 0, 31, 104
1, 434812, Control_c, 0, 64, 50
1, 434827, Control_c, 0, 64, 66
1, 434842, Control_c, 0, 64, 73
1, 434854, Note_off_c, 0, 31, 63
1, 434857, Control_c, 0, 64, 82
1, 434871, Control_c, 0, 64, 97
1, 434874, Note_on_c, 0, 43, 68
1, 434886, Control_c, 0, 64, 127
1, 434889, Note_on_c, 0, 41, 38
1, 434896, Note_off_c, 0, 43, 62
1, 434925, Note_off_c, 0, 41, 38
1, 434979, Note_on_c, 0, 50, 77
1, 435004, Note_off_c, 0, 50, 66
1, 435047, Note_on_c, 0, 55, 78
1, 435062, Note_on_c, 0, 85, 96
1, 435065, Note_on_c, 0, 73, 95
1, 435072, Note_on_c, 0, 82, 79
1, 435072, Note_off_c, 0, 55, 67
1, 435119, Note_on_c, 0, 58, 90
1, 435145, Poly_aftertouch_c, 0, 53, 0
1, 435154, Note_off_c, 0, 73, 59
1, 435157, Note_off_c, 0, 82, 0
1, 435179, Note_on_c, 0, 82, 33
1, 435190, Note_on_c, 0, 62, 85
1, 435196, Note_off_c, 0, 58, 64
1, 435200, Note_off_c, 0, 82, 57
1, 435204, Note_off_c, 0, 85, 63
1, 435224, Note_off_c, 0, 62, 67
1, 435247, Note_on_c, 0, 67, 87
1, 435268, Note_on_c, 0, 74, 110
1, 435268, Note_on_c, 0, 86, 97
1, 435268, Note_off_c, 0, 67, 70
1, 435268, Note_on_c, 0, 82, 90
1, 435292, Note_off_c, 0, 82, 63
1, 435297, Note_off_c, 0, 74, 69
1, 435307, Note_off_c, 0, 86, 67
1, 435328, Note_on_c, 0, 70, 90
1, 435385, Note_off_c, 0, 70, 64
1, 435391, Note_on_c, 0, 73, 82
1, 435411, Control_c, 0, 64, 104
1, 435421, Note_off_c, 0, 73, 68
1, 435426, Control_c, 0, 64, 71
1, 435441, Control_c, 0, 64, 61
1, 435456, Control_c, 0, 64, 65
1, 435462, Note_on_c, 0, 80, 103
1, 435471, Note_on_c, 0, 79, 102
1, 435471, Control_c, 0, 64, 78
1, 435472, Note_on_c, 0, 91, 103
1, 435473, Note_on_c, 0, 86, 96
1, 435477, Note_on_c, 0, 82, 92
1, 435486, Control_c, 0, 64, 127
1, 435488, Note_on_c, 0, 75, 71
1, 435505, Note_off_c, 0, 80, 64
1, 435506, Note_off_c, 0, 75, 64
1, 435523, Note_on_c, 0, 74, 60
1, 435539, Note_off_c, 0, 91, 60
1, 435557, Note_off_c, 0, 74, 66
1, 435560, Note_on_c, 0, 70, 83
1, 435578, Note_off_c, 0, 79, 49
1, 435596, Note_off_c, 0, 70, 61
1, 435598, Note_off_c, 0, 86, 53
1, 435637, Note_off_c, 0, 82, 62
1, 435652, Note_on_c, 0, 68, 87
1, 435697, Note_off_c, 0, 68, 67
1, 435714, Note_on_c, 0, 62, 76
1, 435772, Note_off_c, 0, 62, 67
1, 435780, Note_on_c, 0, 58, 82
1, 435804, Note_off_c, 0, 58, 67
1, 435857, Note_on_c, 0, 74, 97
1, 435858, Note_on_c, 0, 79, 85
1, 435858, Note_on_c, 0, 86, 91
1, 435861, Note_on_c, 0, 82, 84
1, 435869, Note_on_c, 0, 56, 85
1, 435900, Note_on_c, 0, 51, 78
1, 435903, Note_off_c, 0, 56, 63
1, 435969, Note_off_c, 0, 51, 65
1, 435978, Note_on_c, 0, 46, 77
1, 435996, Note_off_c, 0, 46, 70
1, 436004, Control_c, 0, 64, 73
1, 436019, Control_c, 0, 64, 56
1, 436034, Control_c, 0, 64, 54
1, 436049, Control_c, 0, 64, 64
1, 436064, Control_c, 0, 64, 81
1, 436067, Note_on_c, 0, 41, 119
1, 436068, Note_on_c, 0, 29, 95
1, 436078, Control_c, 0, 64, 127
1, 436081, Note_off_c, 0, 86, 65
1, 436089, Note_off_c, 0, 29, 69
1, 436095, Note_off_c, 0, 74, 66
1, 436097, Note_off_c, 0, 41, 69
1, 436098, Note_off_c, 0, 79, 65
1, 436100, Note_off_c, 0, 82, 64
1, 436111, Note_on_c, 0, 32, 33
1, 436112, Note_off_c, 0, 32, 127
1, 436156, Poly_aftertouch_c, 0, 32, 0
1, 436159, Note_on_c, 0, 31, 2
1, 436165, Note_on_c, 0, 29, 28
1, 436166, Note_off_c, 0, 29, 127
1, 436198, Note_off_c, 0, 31, 28
1, 436289, Note_on_c, 0, 62, 102
1, 436296, Note_on_c, 0, 58, 83
1, 436298, Note_on_c, 0, 56, 83
1, 436308, Note_off_c, 0, 62, 69
1, 436317, Note_off_c, 0, 58, 66
1, 436323, Note_off_c, 0, 56, 67
1, 436371, Note_on_c, 0, 62, 97
1, 436378, Note_on_c, 0, 68, 84
1, 436379, Note_on_c, 0, 74, 83
1, 436399, Note_off_c, 0, 68, 68
1, 436402, Note_on_c, 0, 69, 45
1, 436403, Note_off_c, 0, 62, 67
1, 436406, Note_off_c, 0, 74, 65
1, 436430, Note_off_c, 0, 69, 55
1, 436463, Note_on_c, 0, 62, 106
1, 436471, Note_on_c, 0, 58, 94
1, 436475, Note_on_c, 0, 56, 85
1, 436491, Note_off_c, 0, 58, 65
1, 436492, Note_off_c, 0, 62, 72
1, 436496, Note_off_c, 0, 56, 66
1, 436542, Note_on_c, 0, 64, 100
1, 436544, Note_on_c, 0, 70, 90
1, 436545, Note_on_c, 0, 76, 92
1, 436546, Note_on_c, 0, 68, 87
1, 436546, Control_c, 0, 64, 79
1, 436561, Control_c, 0, 64, 55
1, 436564, Note_off_c, 0, 70, 67
1, 436565, Note_off_c, 0, 68, 69
1, 436568, Note_off_c, 0, 64, 65
1, 436574, Note_off_c, 0, 76, 62
1, 436575, Control_c, 0, 64, 0
1, 436605, Control_c, 0, 64, 37
1, 436620, Control_c, 0, 64, 61
1, 436623, Note_on_c, 0, 61, 109
1, 436630, Note_on_c, 0, 58, 88
1, 436633, Note_on_c, 0, 56, 76
1, 436635, Control_c, 0, 64, 72
1, 436649, Control_c, 0, 64, 83
1, 436650, Note_off_c, 0, 61, 67
1, 436651, Note_off_c, 0, 58, 69
1, 436655, Note_off_c, 0, 56, 66
1, 436664, Control_c, 0, 64, 97
1, 436679, Control_c, 0, 64, 118
1, 436693, Control_c, 0, 64, 127
1, 436702, Note_on_c, 0, 61, 107
1, 436705, Note_on_c, 0, 73, 83
1, 436711, Note_on_c, 0, 70, 80
1, 436712, Note_on_c, 0, 68, 80
1, 436726, Note_off_c, 0, 73, 66
1, 436729, Note_off_c, 0, 61, 64
1, 436732, Note_off_c, 0, 68, 72
1, 436733, Note_off_c, 0, 70, 64
1, 436788, Note_on_c, 0, 73, 91
1, 436795, Note_on_c, 0, 61, 100
1, 436797, Note_on_c, 0, 70, 77
1, 436809, Note_on_c, 0, 68, 68
1, 436813, Poly_aftertouch_c, 0, 56, 0
1, 436821, Note_off_c, 0, 70, 65
1, 436824, Note_off_c, 0, 68, 71
1, 436831, Note_off_c, 0, 61, 54
1, 436836, Note_off_c, 0, 73, 63
1, 436884, Note_on_c, 0, 73, 86
1, 436884, Note_on_c, 0, 61, 86
1, 436889, Note_on_c, 0, 70, 74
1, 436890, Note_on_c, 0, 68, 76
1, 436915, Note_off_c, 0, 68, 64
1, 436928, Note_off_c, 0, 61, 63
1, 436933, Note_off_c, 0, 70, 59
1, 436939, Note_off_c, 0, 73, 61
1, 436973, Note_on_c, 0, 61, 96
1, 436983, Note_on_c, 0, 58, 81
1, 436984, Note_on_c, 0, 56, 81
1, 437003, Note_off_c, 0, 58, 70
1, 437003, Note_off_c, 0, 61, 70
1, 437007, Note_off_c, 0, 56, 69
1, 437071, Note_on_c, 0, 62, 89
1, 437072, Note_on_c, 0, 74, 90
1, 437080, Note_on_c, 0, 68, 80
1, 437106, Note_off_c, 0, 68, 62
1, 437109, Note_off_c, 0, 62, 67
1, 437126, Note_off_c, 0, 74, 61
1, 437132, Control_c, 0, 64, 82
1, 437147, Control_c, 0, 64, 61
1, 437162, Control_c, 0, 64, 51
1, 437177, Control_c, 0, 64, 58
1, 437184, Note_on_c, 0, 38, 107
1, 437192, Control_c, 0, 64, 69
1, 437206, Control_c, 0, 64, 83
1, 437221, Control_c, 0, 64, 122
1, 437227, Note_off_c, 0, 38, 65
1, 437236, Control_c, 0, 64, 127
1, 437365, Note_on_c, 0, 65, 85
1, 437366, Note_on_c, 0, 53, 78
1, 437368, Note_on_c, 0, 60, 82
1, 437375, Note_on_c, 0, 56, 73
1, 437400, Note_on_c, 0, 68, 63
1, 437411, Note_off_c, 0, 65, 65
1, 437434, Note_off_c, 0, 68, 61
1, 437443, Note_off_c, 0, 53, 62
1, 437443, Note_off_c, 0, 60, 62
1, 437444, Note_on_c, 0, 77, 87
1, 437445, Note_off_c, 0, 56, 62
1, 437479, Note_off_c, 0, 77, 67
1, 437524, Note_on_c, 0, 67, 104
1, 437532, Note_on_c, 0, 55, 86
1, 437542, Note_on_c, 0, 77, 86
1, 437557, Note_off_c, 0, 55, 68
1, 437569, Note_off_c, 0, 67, 68
1, 437578, Note_off_c, 0, 77, 63
1, 437595, Note_on_c, 0, 88, 62
1, 437611, Note_off_c, 0, 88, 66
1, 437629, Note_on_c, 0, 89, 33
1, 437644, Control_c, 0, 64, 77
1, 437658, Note_off_c, 0, 89, 34
1, 437658, Control_c, 0, 64, 67
1, 437673, Control_c, 0, 64, 71
1, 437688, Control_c, 0, 64, 91
1, 437694, Note_on_c, 0, 94, 97
1, 437697, Note_on_c, 0, 70, 104
1, 437699, Note_on_c, 0, 64, 75
1, 437703, Note_on_c, 0, 58, 91
1, 437703, Control_c, 0, 64, 127
1, 437704, Note_on_c, 0, 88, 76
1, 437716, Note_on_c, 0, 86, 77
1, 437721, Note_off_c, 0, 70, 69
1, 437723, Note_off_c, 0, 64, 68
1, 437749, Note_off_c, 0, 58, 65
1, 437751, Note_off_c, 0, 88, 60
1, 437763, Note_off_c, 0, 94, 63
1, 437769, Note_off_c, 0, 86, 63
1, 437788, Note_on_c, 0, 82, 93
1, 437812, Note_off_c, 0, 82, 62
1, 437889, Note_on_c, 0, 40, 99
1, 437893, Note_on_c, 0, 28, 98
1, 437893, Note_on_c, 0, 75, 54
1, 437905, Note_on_c, 0, 74, 73
1, 437906, Note_on_c, 0, 80, 38
1, 437909, Note_off_c, 0, 28, 68
1, 437912, Note_off_c, 0, 75, 64
1, 437914, Note_off_c, 0, 40, 70
1, 437930, Note_off_c, 0, 74, 66
1, 437933, Note_on_c, 0, 73, 63
1, 437934, Note_off_c, 0, 80, 52
1, 437953, Note_off_c, 0, 73, 60
1, 437969, Poly_aftertouch_c, 0, 38, 0
1, 437987, Note_on_c, 0, 28, 24
1, 437990, Poly_aftertouch_c, 0, 77, 0
1, 437992, Note_off_c, 0, 28, 46
1, 438017, Note_on_c, 0, 76, 21
1, 438041, Note_on_c, 0, 68, 86
1, 438049, Note_on_c, 0, 64, 87
1, 438056, Note_on_c, 0, 62, 83
1, 438061, Note_off_c, 0, 76, 40
1, 438062, Note_on_c, 0, 56, 77
1, 438078, Note_off_c, 0, 62, 69
1, 438078, Note_off_c, 0, 64, 62
1, 438109, Note_off_c, 0, 56, 62
1, 438116, Note_on_c, 0, 74, 57
1, 438123, Note_on_c, 0, 80, 72
1, 438138, Note_off_c, 0, 68, 61
1, 438147, Note_off_c, 0, 74, 66
1, 438162, Control_c, 0, 64, 80
1, 438168, Note_off_c, 0, 80, 65
1, 438177, Control_c, 0, 64, 50
1, 438192, Control_c, 0, 64, 0
1, 438207, Note_on_c, 0, 40, 103
1, 438222, Control_c, 0, 64, 26
1, 438237, Control_c, 0, 64, 61
1, 438252, Control_c, 0, 64, 71
1, 438253, Note_off_c, 0, 40, 64
1, 438267, Control_c, 0, 64, 81
1, 438281, Control_c, 0, 64, 94
1, 438296, Control_c, 0, 64, 110
1, 438311, Control_c, 0, 64, 127
1, 438375, Note_on_c, 0, 65, 89
1, 438388, Note_on_c, 0, 60, 73
1, 438390, Note_on_c, 0, 59, 66
1, 438395, Note_on_c, 0, 53, 61
1, 438404, Note_on_c, 0, 56, 67
1, 438421, Note_off_c, 0, 65, 67
1, 438422, Note_off_c, 0, 59, 59
1, 438425, Note_on_c, 0, 68, 57
1, 438431, Note_off_c, 0, 53, 61
1, 438448, Note_off_c, 0, 56, 51
1, 438449, Note_on_c, 0, 77, 86
1, 438452, Note_off_c, 0, 68, 67
1, 438475, Note_off_c, 0, 60, 53
1, 438489, Note_off_c, 0, 77, 64
1, 438507, Poly_aftertouch_c, 0, 56, 127
1, 438517, Note_on_c, 0, 67, 99
1, 438529, Note_on_c, 0, 76, 92
1, 438544, Note_on_c, 0, 61, 52
1, 438553, Note_on_c, 0, 77, 54
1, 438565, Note_off_c, 0, 67, 62
1, 438569, Note_off_c, 0, 61, 36
1, 438571, Note_off_c, 0, 76, 65
1, 438580, Note_off_c, 0, 77, 66
1, 438597, Note_on_c, 0, 91, 94
1, 438620, Note_off_c, 0, 91, 63
1, 438630, Control_c, 0, 64, 84
1, 438644, Note_on_c, 0, 52, 75
1, 438645, Poly_aftertouch_c, 0, 56, 0
1, 438645, Control_c, 0, 64, 60
1, 438656, Note_on_c, 0, 61, 88
1, 438660, Note_on_c, 0, 64, 101
1, 438660, Control_c, 0, 64, 62
1, 438666, Note_on_c, 0, 89, 99
1, 438675, Control_c, 0, 64, 77
1, 438679, Note_on_c, 0, 83, 75
1, 438681, Note_on_c, 0, 86, 81
1, 438681, Note_on_c, 0, 87, 71
1, 438683, Note_off_c, 0, 64, 70
1, 438690, Control_c, 0, 64, 127
1, 438696, Note_off_c, 0, 61, 67
1, 438696, Note_off_c, 0, 87, 68
1, 438699, Note_on_c, 0, 85, 50
1, 438699, Note_off_c, 0, 86, 69
1, 438700, Note_on_c, 0, 84, 49
1, 438700, Note_off_c, 0, 83, 69
1, 438700, Note_off_c, 0, 85, 48
1, 438707, Note_off_c, 0, 89, 66
1, 438712, Note_off_c, 0, 52, 65
1, 438722, Note_off_c, 0, 84, 57
1, 438754, Note_on_c, 0, 76, 81
1, 438772, Note_off_c, 0, 76, 70
1, 438836, Note_on_c, 0, 76, 94
1, 438843, Note_on_c, 0, 25, 100
1, 438843, Note_on_c, 0, 37, 98
1, 438845, Note_on_c, 0, 71, 82
1, 438845, Note_on_c, 0, 73, 78
1, 438859, Note_on_c, 0, 24, 65
1, 438860, Note_off_c, 0, 24, 127
1, 438863, Note_off_c, 0, 37, 71
1, 438868, Note_off_c, 0, 71, 67
1, 438874, Note_off_c, 0, 25, 65
1, 438874, Note_off_c, 0, 73, 59
1, 438917, Note_off_c, 0, 76, 58
1, 438940, Note_on_c, 0, 64, 91
1, 438970, Note_off_c, 0, 64, 62
1, 439015, Note_on_c, 0, 61, 85
1, 439016, Note_on_c, 0, 59, 69
1, 439018, Note_on_c, 0, 65, 79
1, 439020, Note_on_c, 0, 64, 82
1, 439021, Note_on_c, 0, 53, 77
1, 439024, Note_on_c, 0, 54, 41
1, 439033, Note_off_c, 0, 61, 72
1, 439035, Note_off_c, 0, 59, 66
1, 439051, Note_off_c, 0, 54, 60
1, 439057, Note_off_c, 0, 53, 64
1, 439058, Note_on_c, 0, 56, 7
1, 439066, Note_off_c, 0, 64, 58
1, 439085, Note_on_c, 0, 77, 86
1, 439086, Note_on_c, 0, 71, 85
1, 439089, Note_on_c, 0, 73, 80
1, 439092, Note_off_c, 0, 65, 63
1, 439096, Note_off_c, 0, 56, 35
1, 439104, Control_c, 0, 64, 117
1, 439120, Note_on_c, 0, 75, 51
1, 439126, Control_c, 0, 64, 69
1, 439133, Note_off_c, 0, 71, 63
1, 439137, Note_off_c, 0, 73, 61
1, 439141, Control_c, 0, 64, 38
1, 439142, Note_off_c, 0, 75, 56
1, 439156, Note_off_c, 0, 77, 63
1, 439156, Control_c, 0, 64, 0
1, 439183, Note_on_c, 0, 38, 96
1, 439185, Control_c, 0, 64, 36
1, 439200, Control_c, 0, 64, 59
1, 439215, Control_c, 0, 64, 71
1, 439230, Control_c, 0, 64, 81
1, 439236, Note_off_c, 0, 38, 64
1, 439244, Control_c, 0, 64, 97
1, 439259, Control_c, 0, 64, 127
1, 439319, Poly_aftertouch_c, 0, 75, 0
1, 439337, Note_on_c, 0, 65, 96
1, 439355, Note_on_c, 0, 53, 83
1, 439356, Note_on_c, 0, 60, 86
1, 439364, Note_on_c, 0, 56, 80
1, 439381, Note_on_c, 0, 68, 68
1, 439388, Note_off_c, 0, 65, 68
1, 439418, Note_on_c, 0, 58, 11
1, 439419, Note_on_c, 0, 77, 88
1, 439426, Note_off_c, 0, 68, 66
1, 439447, Note_off_c, 0, 60, 62
1, 439459, Note_off_c, 0, 77, 66
1, 439473, Note_off_c, 0, 53, 41
1, 439473, Note_off_c, 0, 56, 57
1, 439479, Note_off_c, 0, 58, 39
1, 439498, Note_on_c, 0, 67, 105
1, 439510, Note_on_c, 0, 77, 95
1, 439539, Note_off_c, 0, 67, 70
1, 439549, Note_off_c, 0, 77, 67
1, 439586, Note_on_c, 0, 89, 64
1, 439591, Note_on_c, 0, 91, 68
1, 439601, Note_off_c, 0, 89, 67
1, 439605, Note_off_c, 0, 91, 66
1, 439605, Note_on_c, 0, 58, 86
1, 439631, Control_c, 0, 64, 73
1, 439645, Control_c, 0, 64, 50
1, 439660, Control_c, 0, 64, 55
1, 439675, Control_c, 0, 64, 74
1, 439677, Note_on_c, 0, 94, 92
1, 439680, Note_on_c, 0, 70, 105
1, 439681, Note_on_c, 0, 64, 92
1, 439683, Note_on_c, 0, 85, 97
1, 439690, Note_on_c, 0, 88, 94
1, 439690, Control_c, 0, 64, 127
1, 439692, Note_on_c, 0, 87, 61
1, 439692, Note_on_c, 0, 90, 80
1, 439707, Note_on_c, 0, 93, 67
1, 439707, Note_off_c, 0, 70, 71
1, 439715, Note_off_c, 0, 94, 63
1, 439719, Note_off_c, 0, 64, 64
1, 439721, Note_off_c, 0, 87, 54
1, 439733, Note_off_c, 0, 93, 66
1, 439734, Note_off_c, 0, 58, 66
1, 439739, Note_off_c, 0, 90, 65
1, 439740, Note_off_c, 0, 88, 55
1, 439748, Note_off_c, 0, 85, 64
1, 439769, Note_on_c, 0, 82, 95
1, 439797, Poly_aftertouch_c, 0, 65, 0
1, 439803, Note_off_c, 0, 82, 61
1, 439861, Note_on_c, 0, 82, 89
1, 439874, Note_on_c, 0, 75, 82
1, 439893, Note_on_c, 0, 77, 57
1, 439894, Note_on_c, 0, 40, 109
1, 439897, Note_on_c, 0, 28, 102
1, 439899, Note_on_c, 0, 76, 54
1, 439917, Note_off_c, 0, 28, 67
1, 439919, Note_off_c, 0, 40, 68
1, 439922, Note_off_c, 0, 77, 63
1, 439926, Note_on_c, 0, 29, 59
1, 439926, Note_off_c, 0, 76, 64
1, 439930, Note_off_c, 0, 75, 61
1, 439951, Note_off_c, 0, 82, 60
1, 439955, Note_off_c, 0, 29, 39
1, 439956, Note_on_c, 0, 70, 88
1, 439975, Note_off_c, 0, 70, 66
1, 439990, Poly_aftertouch_c, 0, 74, 0
1, 439991, Note_on_c, 0, 28, 25
1, 439992, Note_off_c, 0, 28, 127
1, 440034, Note_on_c, 0, 68, 100
1, 440064, Note_on_c, 0, 64, 96
1, 440067, Note_on_c, 0, 65, 97
1, 440081, Note_off_c, 0, 68, 66
1, 440085, Note_on_c, 0, 56, 59
1, 440086, Note_off_c, 0, 56, 127
1, 440086, Note_off_c, 0, 65, 67
1, 440088, Note_on_c, 0, 74, 67
1, 440096, Note_on_c, 0, 57, 72
1, 440098, Note_off_c, 0, 64, 65
1, 440108, Note_off_c, 0, 74, 69
1, 440109, Note_on_c, 0, 76, 78
1, 440123, Note_off_c, 0, 57, 66
1, 440124, Note_off_c, 0, 76, 69
1, 440125, Note_on_c, 0, 78, 57
1, 440146, Note_off_c, 0, 78, 59
1, 440165, Note_on_c, 0, 80, 93
1, 440176, Poly_aftertouch_c, 0, 75, 0
1, 440217, Control_c, 0, 64, 104
1, 440220, Note_on_c, 0, 86, 77
1, 440232, Control_c, 0, 64, 65
1, 440235, Note_on_c, 0, 88, 82
1, 440238, Note_off_c, 0, 80, 62
1, 440245, Note_on_c, 0, 92, 95
1, 440247, Control_c, 0, 64, 55
1, 440252, Note_on_c, 0, 90, 75
1, 440260, Note_off_c, 0, 86, 66
1, 440262, Note_off_c, 0, 88, 65
1, 440262, Control_c, 0, 64, 67
1, 440268, Note_on_c, 0, 38, 106
1, 440270, Note_on_c, 0, 93, 69
1, 440271, Note_off_c, 0, 93, 127
1, 440271, Note_off_c, 0, 90, 71
1, 440277, Control_c, 0, 64, 99
1, 440277, Note_on_c, 0, 36, 86
1, 440281, Note_off_c, 0, 92, 66
1, 440292, Control_c, 0, 64, 127
1, 440297, Note_off_c, 0, 36, 65
1, 440318, Note_off_c, 0, 38, 65
1, 440457, Note_on_c, 0, 65, 100
1, 440468, Note_on_c, 0, 53, 59
1, 440473, Note_on_c, 0, 60, 80
1, 440499, Note_on_c, 0, 55, 52
1, 440500, Note_on_c, 0, 61, 24
1, 440518, Note_off_c, 0, 53, 44
1, 440526, Note_off_c, 0, 65, 66
1, 440529, Note_off_c, 0, 55, 35
1, 440551, Note_on_c, 0, 76, 79
1, 440551, Note_on_c, 0, 77, 88
1, 440554, Note_on_c, 0, 67, 77
1, 440578, Note_off_c, 0, 61, 0
1, 440578, Note_on_c, 0, 61, 30
1, 440578, Note_off_c, 0, 76, 61
1, 440590, Note_off_c, 0, 77, 64
1, 440601, Note_off_c, 0, 67, 65
1, 440605, Note_on_c, 0, 68, 3
1, 440605, Note_off_c, 0, 60, 62
1, 440613, Note_off_c, 0, 61, 57
1, 440644, Note_on_c, 0, 77, 92
1, 440652, Note_off_c, 0, 68, 35
1, 440664, Note_on_c, 0, 52, 82
1, 440682, Note_on_c, 0, 58, 59
1, 440684, Note_on_c, 0, 56, 60
1, 440702, Note_off_c, 0, 77, 62
1, 440705, Note_off_c, 0, 58, 60
1, 440718, Note_off_c, 0, 56, 62
1, 440724, Note_on_c, 0, 91, 89
1, 440730, Note_on_c, 0, 89, 83
1, 440746, Note_off_c, 0, 89, 72
1, 440748, Note_off_c, 0, 91, 64
1, 440767, Note_off_c, 0, 52, 0
1, 440782, Note_on_c, 0, 56, 68
1, 440788, Control_c, 0, 64, 76
1, 440796, Note_on_c, 0, 61, 88
1, 440796, Note_on_c, 0, 65, 98
1, 440798, Note_on_c, 0, 64, 97
1, 440803, Note_on_c, 0, 53, 9
1, 440803, Note_on_c, 0, 88, 91
1, 440803, Control_c, 0, 64, 54
1, 440804, Note_on_c, 0, 85, 94
1, 440807, Note_on_c, 0, 89, 92
1, 440808, Note_on_c, 0, 83, 93
1, 440817, Note_on_c, 0, 59, 52
1, 440818, Note_off_c, 0, 65, 70
1, 440818, Control_c, 0, 64, 57
1, 440820, Note_off_c, 0, 64, 70
1, 440827, Note_off_c, 0, 89, 65
1, 440831, Note_on_c, 0, 60, 49
1, 440832, Note_off_c, 0, 83, 66
1, 440833, Control_c, 0, 64, 72
1, 440834, Note_on_c, 0, 62, 42
1, 440835, Note_off_c, 0, 62, 127
1, 440835, Note_on_c, 0, 86, 54
1, 440844, Note_off_c, 0, 59, 57
1, 440844, Note_off_c, 0, 61, 64
1, 440847, Note_off_c, 0, 53, 57
1, 440849, Control_c, 0, 64, 101
1, 440851, Poly_aftertouch_c, 0, 52, 0
1, 440859, Note_off_c, 0, 85, 65
1, 440859, Note_off_c, 0, 60, 37
1, 440860, Note_off_c, 0, 86, 39
1, 440862, Note_off_c, 0, 56, 64
1, 440864, Control_c, 0, 64, 127
1, 440868, Note_off_c, 0, 88, 60
1, 440895, Note_on_c, 0, 76, 91
1, 440930, Note_off_c, 0, 76, 66
1, 441002, Note_on_c, 0, 71, 94
1, 441005, Note_on_c, 0, 73, 84
1, 441005, Note_on_c, 0, 77, 88
1, 441009, Note_on_c, 0, 37, 108
1, 441009, Note_on_c, 0, 76, 90
1, 441012, Note_on_c, 0, 25, 107
1, 441025, Note_on_c, 0, 24, 87
1, 441035, Note_on_c, 0, 72, 36
1, 441036, Note_off_c, 0, 72, 127
1, 441036, Note_off_c, 0, 37, 66
1, 441038, Note_off_c, 0, 71, 68
1, 441041, Note_off_c, 0, 25, 67
1, 441050, Note_off_c, 0, 73, 60
1, 441053, Note_on_c, 0, 36, 36
1, 441054, Note_off_c, 0, 36, 127
1, 441059, Note_off_c, 0, 24, 35
1, 441075, Note_off_c, 0, 77, 61
1, 441113, Note_on_c, 0, 64, 99
1, 441157, Note_off_c, 0, 64, 66
1, 441193, Note_on_c, 0, 53, 72
1, 441205, Control_c, 0, 64, 83
1, 441220, Control_c, 0, 64, 56
1, 441235, Control_c, 0, 64, 46
1, 441247, Note_on_c, 0, 56, 53
1, 441250, Control_c, 0, 64, 59
1, 441253, Note_on_c, 0, 61, 103
1, 441258, Note_on_c, 0, 59, 80
1, 441265, Control_c, 0, 64, 80
1, 441276, Note_on_c, 0, 65, 100
1, 441279, Control_c, 0, 64, 127
1, 441291, Note_off_c, 0, 61, 68
1, 441297, Note_off_c, 0, 59, 63
1, 441302, Note_off_c, 0, 53, 60
1, 441321, Note_off_c, 0, 56, 63
1, 441326, Note_off_c, 0, 65, 69
1, 441330, Note_on_c, 0, 71, 92
1, 441376, Note_off_c, 0, 76, 22
1, 441387, Note_off_c, 0, 71, 68
1, 441389, Note_on_c, 0, 73, 86
1, 441405, Note_off_c, 0, 73, 73
1, 441453, Note_on_c, 0, 77, 94
1, 441514, Note_on_c, 0, 83, 89
1, 441563, Note_on_c, 0, 85, 96
1, 441609, Note_off_c, 0, 83, 56
1, 441639, Note_on_c, 0, 89, 99
1, 441656, Note_off_c, 0, 77, 63
1, 441664, Note_off_c, 0, 85, 63
1, 441691, Note_off_c, 0, 89, 68
1, 441711, Note_on_c, 0, 26, 119
1, 441764, Note_off_c, 0, 26, 64
1, 442009, Note_on_c, 0, 48, 51
1, 442012, Note_on_c, 0, 53, 97
1, 442013, Control_c, 0, 64, 92
1, 442016, Note_on_c, 0, 44, 85
1, 442028, Control_c, 0, 64, 60
1, 442031, Note_off_c, 0, 53, 72
1, 442033, Note_off_c, 0, 48, 65
1, 442040, Note_off_c, 0, 44, 66
1, 442043, Control_c, 0, 64, 0
1, 442165, Note_on_c, 0, 52, 82
1, 442173, Note_on_c, 0, 55, 69
1, 442190, Note_off_c, 0, 52, 66
1, 442192, Note_off_c, 0, 55, 65
1, 442265, Note_on_c, 0, 53, 75
1, 442269, Note_on_c, 0, 56, 71
1, 442295, Note_off_c, 0, 53, 65
1, 442295, Note_off_c, 0, 56, 66
1, 442352, Note_on_c, 0, 52, 63
1, 442357, Note_on_c, 0, 55, 61
1, 442381, Note_off_c, 0, 52, 65
1, 442384, Note_off_c, 0, 55, 65
1, 442429, Note_on_c, 0, 38, 80
1, 442462, Note_off_c, 0, 38, 67
1, 442592, Note_on_c, 0, 53, 73
1, 442594, Note_on_c, 0, 48, 56
1, 442604, Note_on_c, 0, 44, 68
1, 442618, Note_off_c, 0, 53, 67
1, 442627, Note_off_c, 0, 48, 63
1, 442636, Note_off_c, 0, 44, 64
1, 442659, Note_on_c, 0, 55, 74
1, 442666, Note_on_c, 0, 52, 59
1, 442689, Note_off_c, 0, 52, 54
1, 442697, Note_off_c, 0, 55, 64
1, 442728, Note_on_c, 0, 53, 56
1, 442737, Note_on_c, 0, 37, 82
1, 442749, Note_on_c, 0, 56, 68
1, 442769, Note_off_c, 0, 53, 66
1, 442773, Note_off_c, 0, 37, 63
1, 442809, Note_off_c, 0, 56, 41
1, 442817, Note_on_c, 0, 55, 73
1, 442828, Note_on_c, 0, 52, 47
1, 442841, Note_off_c, 0, 55, 67
1, 442869, Note_off_c, 0, 52, 64
1, 442895, Note_on_c, 0, 53, 87
1, 442905, Note_on_c, 0, 44, 69
1, 442919, Note_off_c, 0, 53, 66
1, 442944, Note_off_c, 0, 44, 58
1, 442952, Note_on_c, 0, 55, 63
1, 442981, Note_off_c, 0, 55, 66
1, 443033, Note_on_c, 0, 58, 78
1, 443038, Note_on_c, 0, 41, 70
1, 443040, Note_on_c, 0, 54, 62
1, 443042, Note_on_c, 0, 47, 67
1, 443066, Control_c, 0, 64, 16
1, 443073, Note_off_c, 0, 41, 65
1, 443074, Note_off_c, 0, 47, 66
1, 443080, Control_c, 0, 64, 24
1, 443091, Note_off_c, 0, 54, 48
1, 443095, Note_on_c, 0, 56, 76
1, 443095, Control_c, 0, 64, 31
1, 443101, Note_on_c, 0, 52, 76
1, 443110, Control_c, 0, 64, 33
1, 443113, Note_off_c, 0, 58, 62
1, 443124, Note_off_c, 0, 56, 66
1, 443125, Note_off_c, 0, 52, 63
1, 443125, Control_c, 0, 64, 29
1, 443140, Control_c, 0, 64, 27
1, 443154, Control_c, 0, 64, 32
1, 443169, Control_c, 0, 64, 44
1, 443175, Note_on_c, 0, 38, 106
1, 443184, Control_c, 0, 64, 55
1, 443199, Control_c, 0, 64, 59
1, 443214, Control_c, 0, 64, 61
1, 443217, Note_off_c, 0, 38, 64
1, 443229, Control_c, 0, 64, 62
1, 443244, Control_c, 0, 64, 63
1, 443259, Control_c, 0, 64, 64
1, 443317, Control_c, 0, 64, 62
1, 443332, Control_c, 0, 64, 57
1, 443339, Note_on_c, 0, 53, 78
1, 443340, Note_on_c, 0, 64, 75
1, 443347, Control_c, 0, 64, 50
1, 443355, Note_on_c, 0, 56, 51
1, 443357, Note_off_c, 0, 64, 66
1, 443362, Note_off_c, 0, 53, 64
1, 443362, Control_c, 0, 64, 42
1, 443366, Note_on_c, 0, 54, 42
1, 443372, Note_off_c, 0, 56, 43
1, 443377, Control_c, 0, 64, 33
1, 443391, Control_c, 0, 64, 25
1, 443396, Note_off_c, 0, 54, 36
1, 443398, Note_on_c, 0, 67, 75
1, 443403, Note_on_c, 0, 64, 71
1, 443406, Control_c, 0, 64, 23
1, 443430, Note_off_c, 0, 64, 67
1, 443437, Control_c, 0, 64, 24
1, 443440, Note_off_c, 0, 67, 60
1, 443452, Control_c, 0, 64, 25
1, 443469, Note_on_c, 0, 68, 71
1, 443472, Note_on_c, 0, 65, 74
1, 443480, Note_on_c, 0, 56, 75
1, 443482, Control_c, 0, 64, 24
1, 443496, Control_c, 0, 64, 24
1, 443511, Control_c, 0, 64, 20
1, 443512, Note_off_c, 0, 56, 65
1, 443526, Control_c, 0, 64, 0
1, 443536, Note_on_c, 0, 64, 75
1, 443536, Note_off_c, 0, 65, 64
1, 443538, Note_on_c, 0, 67, 75
1, 443543, Note_off_c, 0, 68, 63
1, 443558, Note_off_c, 0, 64, 70
1, 443561, Note_off_c, 0, 67, 68
1, 443600, Control_c, 0, 64, 18
1, 443615, Note_on_c, 0, 38, 106
1, 443622, Control_c, 0, 64, 36
1, 443627, Note_on_c, 0, 36, 78
1, 443637, Control_c, 0, 64, 42
1, 443645, Note_off_c, 0, 38, 64
1, 443649, Note_off_c, 0, 36, 61
1, 443652, Control_c, 0, 64, 41
1, 443667, Control_c, 0, 64, 42
1, 443682, Control_c, 0, 64, 43
1, 443696, Control_c, 0, 64, 45
1, 443711, Control_c, 0, 64, 47
1, 443726, Control_c, 0, 64, 47
1, 443740, Control_c, 0, 64, 47
1, 443755, Control_c, 0, 64, 46
1, 443763, Note_on_c, 0, 65, 83
1, 443770, Note_on_c, 0, 56, 83
1, 443770, Control_c, 0, 64, 44
1, 443774, Note_on_c, 0, 53, 74
1, 443783, Note_off_c, 0, 65, 69
1, 443785, Control_c, 0, 64, 42
1, 443793, Note_off_c, 0, 53, 65
1, 443798, Note_off_c, 0, 56, 69
1, 443800, Control_c, 0, 64, 37
1, 443813, Note_on_c, 0, 67, 74
1, 443813, Note_on_c, 0, 64, 80
1, 443815, Control_c, 0, 64, 33
1, 443829, Control_c, 0, 64, 29
1, 443834, Note_on_c, 0, 65, 50
1, 443835, Note_off_c, 0, 65, 127
1, 443844, Control_c, 0, 64, 29
1, 443846, Note_off_c, 0, 67, 60
1, 443851, Note_off_c, 0, 64, 65
1, 443859, Control_c, 0, 64, 32
1, 443868, Note_on_c, 0, 65, 61
1, 443871, Note_on_c, 0, 68, 75
1, 443874, Control_c, 0, 64, 39
1, 443889, Control_c, 0, 64, 47
1, 443891, Note_on_c, 0, 37, 106
1, 443903, Control_c, 0, 64, 50
1, 443906, Note_off_c, 0, 65, 63
1, 443918, Control_c, 0, 64, 51
1, 443919, Note_off_c, 0, 37, 64
1, 443947, Control_c, 0, 64, 52
1, 443955, Note_on_c, 0, 67, 71
1, 443959, Note_on_c, 0, 64, 65
1, 443962, Control_c, 0, 64, 54
1, 443965, Note_off_c, 0, 68, 59
1, 443977, Control_c, 0, 64, 58
1, 443978, Note_off_c, 0, 64, 65
1, 443980, Note_off_c, 0, 67, 69
1, 443992, Control_c, 0, 64, 61
1, 444007, Control_c, 0, 64, 63
1, 444022, Control_c, 0, 64, 64
1, 444034, Note_on_c, 0, 56, 88
1, 444037, Control_c, 0, 64, 65
1, 444040, Note_on_c, 0, 63, 61
1, 444043, Note_on_c, 0, 53, 70
1, 444046, Note_on_c, 0, 67, 65
1, 444052, Control_c, 0, 64, 68
1, 444055, Note_off_c, 0, 56, 69
1, 444056, Note_on_c, 0, 66, 69
1, 444061, Note_on_c, 0, 64, 43
1, 444062, Note_off_c, 0, 64, 127
1, 444064, Note_off_c, 0, 53, 64
1, 444064, Note_off_c, 0, 63, 38
1, 444066, Note_on_c, 0, 55, 33
1, 444067, Note_off_c, 0, 55, 127
1, 444067, Control_c, 0, 64, 72
1, 444067, Note_off_c, 0, 67, 61
1, 444076, Note_on_c, 0, 68, 27
1, 444081, Control_c, 0, 64, 77
1, 444088, Poly_aftertouch_c, 0, 64, 0
1, 444096, Control_c, 0, 64, 81
1, 444102, Poly_aftertouch_c, 0, 55, 0
1, 444111, Control_c, 0, 64, 86
1, 444117, Note_off_c, 0, 68, 29
1, 444126, Control_c, 0, 64, 90
1, 444130, Note_off_c, 0, 66, 63
1, 444132, Note_on_c, 0, 70, 88
1, 444140, Control_c, 0, 64, 100
1, 444145, Note_on_c, 0, 58, 81
1, 444150, Note_on_c, 0, 48, 94
1, 444155, Control_c, 0, 64, 127
1, 444178, Note_off_c, 0, 48, 66
1, 444195, Note_on_c, 0, 64, 77
1, 444195, Note_off_c, 0, 58, 58
1, 444210, Note_on_c, 0, 68, 77
1, 444229, Control_c, 0, 64, 97
1, 444245, Control_c, 0, 64, 57
1, 444247, Note_off_c, 0, 64, 65
1, 444248, Note_off_c, 0, 70, 58
1, 444260, Control_c, 0, 64, 0
1, 444265, Note_off_c, 0, 68, 64
1, 444288, Note_on_c, 0, 50, 110
1, 444290, Control_c, 0, 64, 44
1, 444292, Note_on_c, 0, 38, 100
1, 444305, Control_c, 0, 64, 66
1, 444314, Note_off_c, 0, 38, 71
1, 444319, Control_c, 0, 64, 75
1, 444321, Note_off_c, 0, 50, 67
1, 444334, Control_c, 0, 64, 84
1, 444349, Control_c, 0, 64, 89
1, 444371, Control_c, 0, 64, 92
1, 444386, Control_c, 0, 64, 94
1, 444400, Control_c, 0, 64, 97
1, 444415, Control_c, 0, 64, 98
1, 444430, Control_c, 0, 64, 99
1, 444445, Control_c, 0, 64, 101
1, 444457, Note_on_c, 0, 65, 93
1, 444460, Control_c, 0, 64, 104
1, 444463, Note_on_c, 0, 53, 81
1, 444475, Control_c, 0, 64, 109
1, 444481, Note_off_c, 0, 65, 66
1, 444484, Note_off_c, 0, 53, 65
1, 444490, Control_c, 0, 64, 118
1, 444505, Control_c, 0, 64, 127
1, 444508, Note_on_c, 0, 73, 81
1, 444515, Note_on_c, 0, 67, 78
1, 444520, Note_on_c, 0, 79, 72
1, 444537, Note_off_c, 0, 67, 71
1, 444549, Note_off_c, 0, 79, 60
1, 444556, Note_off_c, 0, 73, 61
1, 444592, Note_on_c, 0, 70, 101
1, 444600, Note_on_c, 0, 58, 82
1, 444611, Note_on_c, 0, 64, 59
1, 444620, Note_on_c, 0, 65, 48
1, 444622, Note_off_c, 0, 58, 68
1, 444624, Note_off_c, 0, 70, 62
1, 444631, Note_off_c, 0, 64, 63
1, 444638, Note_off_c, 0, 65, 58
1, 444648, Note_on_c, 0, 80, 83
1, 444656, Note_on_c, 0, 68, 84
1, 444663, Note_on_c, 0, 70, 53
1, 444679, Note_off_c, 0, 70, 67
1, 444681, Note_off_c, 0, 68, 63
1, 444696, Note_off_c, 0, 80, 60
1, 444715, Note_on_c, 0, 65, 83
1, 444722, Note_on_c, 0, 53, 92
1, 444755, Note_off_c, 0, 65, 66
1, 444764, Note_off_c, 0, 53, 66
1, 444770, Control_c, 0, 64, 75
1, 444774, Note_on_c, 0, 67, 92
1, 444785, Control_c, 0, 64, 60
1, 444788, Note_on_c, 0, 79, 67
1, 444800, Control_c, 0, 64, 57
1, 444801, Note_off_c, 0, 67, 67
1, 444805, Note_off_c, 0, 79, 69
1, 444815, Control_c, 0, 64, 64
1, 444830, Control_c, 0, 64, 74
1, 444845, Control_c, 0, 64, 88
1, 444856, Note_on_c, 0, 49, 121
1, 444857, Note_on_c, 0, 37, 103
1, 444860, Control_c, 0, 64, 98
1, 444871, Note_off_c, 0, 49, 74
1, 444874, Note_on_c, 0, 70, 95
1, 444874, Note_on_c, 0, 82, 95
1, 444874, Control_c, 0, 64, 99
1, 444876, Note_off_c, 0, 37, 69
1, 444877, Note_on_c, 0, 51, 71
1, 444880, Note_on_c, 0, 39, 53
1, 444881, Note_off_c, 0, 39, 127
1, 444889, Control_c, 0, 64, 100
1, 444892, Note_off_c, 0, 70, 65
1, 444892, Note_off_c, 0, 82, 65
1, 444896, Note_off_c, 0, 51, 40
1, 444904, Control_c, 0, 64, 101
1, 444919, Control_c, 0, 64, 106
1, 444934, Control_c, 0, 64, 127
1, 444937, Note_on_c, 0, 37, 29
1, 444952, Note_on_c, 0, 80, 95
1, 444953, Note_on_c, 0, 68, 91
1, 444953, Note_off_c, 0, 37, 67
1, 444960, Note_on_c, 0, 70, 82
1, 444972, Note_off_c, 0, 68, 70
1, 444973, Note_off_c, 0, 70, 72
1, 444990, Note_off_c, 0, 80, 63
1, 445020, Note_on_c, 0, 37, 33
1, 445036, Note_on_c, 0, 77, 93
1, 445045, Note_off_c, 0, 37, 50
1, 445049, Note_off_c, 0, 77, 76
1, 445056, Note_on_c, 0, 67, 20
1, 445085, Note_on_c, 0, 91, 94
1, 445089, Note_on_c, 0, 84, 88
1, 445091, Note_off_c, 0, 67, 53
1, 445096, Note_on_c, 0, 79, 80
1, 445096, Note_on_c, 0, 81, 81
1, 445120, Note_off_c, 0, 84, 65
1, 445122, Poly_aftertouch_c, 0, 65, 0
1, 445122, Note_off_c, 0, 79, 70
1, 445122, Note_off_c, 0, 81, 70
1, 445132, Note_on_c, 0, 77, 10
1, 445133, Note_off_c, 0, 77, 127
1, 445133, Note_off_c, 0, 91, 65
1, 445167, Note_on_c, 0, 82, 105
1, 445178, Note_on_c, 0, 70, 74
1, 445193, Note_on_c, 0, 76, 41
1, 445193, Note_on_c, 0, 77, 26
1, 445197, Note_off_c, 0, 82, 67
1, 445199, Note_off_c, 0, 70, 69
1, 445219, Note_off_c, 0, 76, 52
1, 445228, Note_off_c, 0, 77, 31
1, 445233, Note_on_c, 0, 92, 95
1, 445234, Note_on_c, 0, 80, 100
1, 445265, Note_off_c, 0, 80, 59
1, 445274, Note_off_c, 0, 92, 61
1, 445286, Note_on_c, 0, 77, 99
1, 445295, Note_on_c, 0, 65, 98
1, 445314, Note_off_c, 0, 77, 68
1, 445319, Note_off_c, 0, 65, 63
1, 445354, Note_on_c, 0, 91, 97
1, 445355, Note_on_c, 0, 79, 100
1, 445389, Note_off_c, 0, 79, 66
1, 445392, Note_off_c, 0, 91, 66
1, 445399, Note_on_c, 0, 90, 39
1, 445401, Control_c, 0, 64, 68
1, 445416, Control_c, 0, 64, 41
1, 445428, Note_off_c, 0, 90, 38
1, 445431, Control_c, 0, 64, 45
1, 445446, Control_c, 0, 64, 64
1, 445456, Note_on_c, 0, 53, 108
1, 445459, Note_on_c, 0, 82, 108
1, 445459, Note_on_c, 0, 94, 107
1, 445461, Control_c, 0, 64, 92
1, 445465, Note_on_c, 0, 40, 80
1, 445465, Note_on_c, 0, 41, 98
1, 445476, Control_c, 0, 64, 127
1, 445478, Note_on_c, 0, 52, 52
1, 445479, Note_off_c, 0, 52, 127
1, 445479, Note_off_c, 0, 53, 72
1, 445485, Note_off_c, 0, 41, 68
1, 445486, Note_on_c, 0, 92, 47
1, 445487, Note_off_c, 0, 92, 127
1, 445487, Note_off_c, 0, 82, 68
1, 445489, Note_off_c, 0, 94, 67
1, 445493, Note_on_c, 0, 83, 54
1, 445494, Note_off_c, 0, 83, 127
1, 445494, Note_off_c, 0, 40, 64
1, 445534, Note_on_c, 0, 95, 3
1, 445535, Note_off_c, 0, 95, 127
1, 445548, Note_on_c, 0, 92, 102
1, 445550, Note_on_c, 0, 80, 97
1, 445565, Note_on_c, 0, 82, 80
1, 445578, Note_on_c, 0, 41, 3
1, 445580, Note_off_c, 0, 82, 66
1, 445581, Note_on_c, 0, 93, 53
1, 445602, Note_off_c, 0, 80, 58
1, 445602, Note_off_c, 0, 41, 33
1, 445602, Note_off_c, 0, 93, 57
1, 445629, Note_on_c, 0, 77, 100
1, 445632, Note_on_c, 0, 74, 90
1, 445643, Note_on_c, 0, 65, 74
1, 445659, Note_off_c, 0, 65, 67
1, 445661, Note_off_c, 0, 77, 68
1, 445669, Note_off_c, 0, 74, 67
1, 445714, Note_on_c, 0, 79, 102
1, 445715, Note_on_c, 0, 74, 91
1, 445721, Note_on_c, 0, 67, 92
1, 445747, Note_off_c, 0, 79, 67
1, 445753, Note_off_c, 0, 92, 58
1, 445757, Note_on_c, 0, 70, 36
1, 445759, Note_off_c, 0, 74, 67
1, 445762, Note_off_c, 0, 67, 65
1, 445766, Note_on_c, 0, 65, 5
1, 445786, Note_off_c, 0, 70, 57
1, 445796, Note_off_c, 0, 65, 53
1, 445800, Note_on_c, 0, 82, 110
1, 445800, Note_on_c, 0, 94, 92
1, 445801, Note_on_c, 0, 86, 94
1, 445822, Poly_aftertouch_c, 0, 77, 0
1, 445840, Note_off_c, 0, 82, 61
1, 445841, Note_off_c, 0, 94, 64
1, 445847, Note_off_c, 0, 86, 63
1, 445903, Note_on_c, 0, 92, 105
1, 445905, Note_on_c, 0, 80, 107
1, 445909, Note_on_c, 0, 86, 89
1, 445937, Note_on_c, 0, 82, 48
1, 445961, Note_off_c, 0, 82, 60
1, 446003, Control_c, 0, 64, 73
1, 446017, Control_c, 0, 64, 62
1, 446032, Control_c, 0, 64, 66
1, 446047, Control_c, 0, 64, 88
1, 446050, Note_on_c, 0, 38, 121
1, 446053, Note_on_c, 0, 26, 110
1, 446062, Control_c, 0, 64, 127
1, 446067, Note_on_c, 0, 90, 46
1, 446070, Note_on_c, 0, 28, 80
1, 446079, Note_off_c, 0, 38, 70
1, 446080, Note_off_c, 0, 26, 68
1, 446091, Note_off_c, 0, 90, 57
1, 446094, Note_off_c, 0, 28, 61
1, 446098, Note_off_c, 0, 92, 62
1, 446111, Note_off_c, 0, 86, 65
1, 446136, Note_off_c, 0, 80, 65
1, 446262, Note_on_c, 0, 53, 94
1, 446279, Note_on_c, 0, 41, 63
1, 446283, Note_on_c, 0, 44, 59
1, 446299, Note_off_c, 0, 53, 63
1, 446302, Note_off_c, 0, 41, 62
1, 446309, Note_off_c, 0, 44, 39
1, 446348, Note_on_c, 0, 63, 41
1, 446359, Note_on_c, 0, 48, 87
1, 446363, Note_on_c, 0, 53, 73
1, 446368, Note_on_c, 0, 55, 83
1, 446378, Note_off_c, 0, 63, 62
1, 446380, Note_on_c, 0, 41, 48
1, 446384, Note_on_c, 0, 43, 56
1, 446387, Note_off_c, 0, 48, 64
1, 446393, Note_off_c, 0, 55, 65
1, 446396, Note_off_c, 0, 53, 64
1, 446405, Note_off_c, 0, 41, 48
1, 446411, Note_off_c, 0, 43, 52
1, 446431, Note_on_c, 0, 56, 91
1, 446436, Note_on_c, 0, 68, 78
1, 446466, Note_off_c, 0, 56, 63
1, 446477, Note_off_c, 0, 68, 59
1, 446521, Note_on_c, 0, 59, 91
1, 446524, Note_on_c, 0, 71, 82
1, 446525, Note_on_c, 0, 67, 85
1, 446547, Note_off_c, 0, 67, 67
1, 446552, Note_off_c, 0, 59, 63
1, 446559, Note_off_c, 0, 71, 63
1, 446593, Note_on_c, 0, 60, 98
1, 446594, Note_on_c, 0, 48, 84
1, 446599, Note_on_c, 0, 56, 80
1, 446624, Note_off_c, 0, 56, 71
1, 446630, Note_off_c, 0, 48, 64
1, 446633, Note_off_c, 0, 60, 65
1, 446663, Note_on_c, 0, 64, 88
1, 446669, Note_on_c, 0, 76, 84
1, 446672, Note_on_c, 0, 72, 80
1, 446686, Note_off_c, 0, 64, 67
1, 446693, Note_off_c, 0, 72, 69
1, 446710, Note_off_c, 0, 76, 63
1, 446737, Note_on_c, 0, 65, 100
1, 446742, Note_on_c, 0, 60, 89
1, 446744, Note_on_c, 0, 53, 82
1, 446771, Note_off_c, 0, 60, 58
1, 446776, Note_off_c, 0, 65, 65
1, 446777, Note_off_c, 0, 53, 58
1, 446820, Note_on_c, 0, 61, 94
1, 446824, Note_on_c, 0, 67, 94
1, 446838, Note_on_c, 0, 55, 65
1, 446853, Note_off_c, 0, 61, 69
1, 446854, Note_off_c, 0, 67, 64
1, 446866, Note_off_c, 0, 55, 36
1, 446872, Note_on_c, 0, 80, 82
1, 446873, Note_on_c, 0, 68, 90
1, 446891, Note_off_c, 0, 68, 72
1, 446905, Note_off_c, 0, 80, 56
1, 446949, Note_on_c, 0, 71, 95
1, 446949, Note_on_c, 0, 83, 88
1, 446954, Note_on_c, 0, 79, 87
1, 446963, Note_on_c, 0, 81, 62
1, 446971, Note_off_c, 0, 79, 69
1, 446982, Note_off_c, 0, 71, 62
1, 446983, Note_off_c, 0, 81, 39
1, 446988, Note_off_c, 0, 83, 66
1, 447002, Note_on_c, 0, 72, 64
1, 447009, Note_on_c, 0, 60, 91
1, 447027, Note_off_c, 0, 60, 71
1, 447029, Note_on_c, 0, 69, 58
1, 447040, Note_off_c, 0, 72, 65
1, 447041, Note_on_c, 0, 68, 19
1, 447042, Note_off_c, 0, 68, 127
1, 447047, Note_off_c, 0, 69, 66
1, 447076, Note_on_c, 0, 76, 99
1, 447077, Poly_aftertouch_c, 0, 68, 0
1, 447079, Note_on_c, 0, 88, 85
1, 447084, Note_on_c, 0, 84, 82
1, 447102, Note_off_c, 0, 76, 62
1, 447103, Note_off_c, 0, 84, 67
1, 447114, Note_off_c, 0, 88, 61
1, 447147, Note_on_c, 0, 72, 93
1, 447149, Note_on_c, 0, 77, 102
1, 447153, Note_on_c, 0, 79, 96
1, 447154, Note_on_c, 0, 65, 82
1, 447167, Note_off_c, 0, 79, 74
1, 447170, Note_off_c, 0, 77, 67
1, 447175, Note_off_c, 0, 65, 66
1, 447179, Note_off_c, 0, 72, 58
1, 447215, Note_on_c, 0, 79, 101
1, 447218, Note_on_c, 0, 72, 85
1, 447230, Note_on_c, 0, 73, 65
1, 447233, Note_on_c, 0, 65, 65
1, 447247, Note_on_c, 0, 67, 56
1, 447247, Note_off_c, 0, 65, 69
1, 447249, Note_off_c, 0, 73, 40
1, 447255, Note_off_c, 0, 72, 66
1, 447259, Note_off_c, 0, 79, 64
1, 447267, Note_on_c, 0, 80, 97
1, 447269, Note_off_c, 0, 67, 59
1, 447271, Note_on_c, 0, 92, 91
1, 447292, Note_on_c, 0, 90, 65
1, 447294, Note_off_c, 0, 92, 62
1, 447298, Note_off_c, 0, 80, 67
1, 447310, Note_off_c, 0, 90, 65
1, 447356, Note_on_c, 0, 83, 101
1, 447356, Note_on_c, 0, 95, 96
1, 447369, Note_on_c, 0, 91, 89
1, 447384, Note_off_c, 0, 91, 72
1, 447394, Note_off_c, 0, 83, 68
1, 447399, Note_off_c, 0, 95, 67
1, 447405, Note_on_c, 0, 84, 79
1, 447411, Note_on_c, 0, 72, 88
1, 447413, Note_on_c, 0, 80, 86
1, 447429, Note_off_c, 0, 80, 71
1, 447449, Note_off_c, 0, 72, 65
1, 447450, Note_off_c, 0, 84, 67
1, 447473, Note_on_c, 0, 88, 99
1, 447477, Note_on_c, 0, 100, 97
1, 447480, Note_on_c, 0, 95, 89
1, 447494, Note_on_c, 0, 96, 72
1, 447496, Note_off_c, 0, 95, 71
1, 447499, Note_off_c, 0, 88, 68
1, 447505, Note_on_c, 0, 98, 48
1, 447506, Note_off_c, 0, 98, 127
1, 447507, Note_off_c, 0, 96, 45
1, 447511, Note_off_c, 0, 100, 68
1, 447550, Note_on_c, 0, 84, 95
1, 447550, Note_on_c, 0, 89, 106
1, 447569, Note_on_c, 0, 77, 61
1, 447581, Note_off_c, 0, 89, 68
1, 447587, Note_off_c, 0, 77, 67
1, 447587, Note_off_c, 0, 84, 66
1, 447622, Note_on_c, 0, 84, 83
1, 447624, Note_on_c, 0, 91, 109
1, 447629, Note_on_c, 0, 79, 86
1, 447657, Note_on_c, 0, 82, 37
1, 447665, Note_on_c, 0, 85, 31
1, 447666, Note_off_c, 0, 85, 127
1, 447682, Note_off_c, 0, 82, 49
1, 447700, Note_on_c, 0, 104, 106
1, 447702, Note_on_c, 0, 92, 119
1, 447703, Note_off_c, 0, 91, 56
1, 447728, Note_on_c, 0, 102, 59
1, 447737, Note_off_c, 0, 92, 66
1, 447745, Note_off_c, 0, 104, 68
1, 447747, Note_off_c, 0, 102, 63
1, 447751, Note_off_c, 0, 84, 35
1, 447789, Note_off_c, 0, 79, 61
1, 447791, Note_on_c, 0, 107, 118
1, 447792, Note_on_c, 0, 95, 118
1, 447793, Note_on_c, 0, 103, 106
1, 447842, Note_on_c, 0, 102, 22
1, 447843, Note_off_c, 0, 102, 127
1, 448058, Note_off_c, 0, 107, 52
1, 448419, Note_on_c, 0, 36, 114
1, 448419, Note_on_c, 0, 24, 106
1, 448426, Control_c, 0, 64, 96
1, 448438, Note_on_c, 0, 27, 80
1, 448441, Note_on_c, 0, 35, 66
1, 448442, Note_off_c, 0, 35, 127
1, 448442, Control_c, 0, 64, 57
1, 448456, Control_c, 0, 64, 0
1, 448459, Note_off_c, 0, 27, 48
1, 448484, Note_on_c, 0, 35, 34
1, 448534, Note_off_c, 0, 35, 41
1, 448604, Control_c, 0, 64, 15
1, 448618, Control_c, 0, 64, 64
1, 448633, Control_c, 0, 64, 77
1, 448648, Control_c, 0, 64, 101
1, 448661, Note_off_c, 0, 24, 63
1, 448663, Control_c, 0, 64, 127
1, 448678, Note_off_c, 0, 95, 57
1, 448680, Note_off_c, 0, 103, 58
1, 448730, Note_off_c, 0, 36, 64
1, 449175, Note_on_c, 0, 55, 88
1, 449185, Note_on_c, 0, 67, 105
1, 449186, Note_on_c, 0, 64, 91
1, 449192, Note_on_c, 0, 60, 85
1, 449198, Note_on_c, 0, 91, 93
1, 449200, Note_on_c, 0, 79, 111
1, 449200, Note_on_c, 0, 84, 100
1, 449200, Note_on_c, 0, 88, 95
1, 449215, Note_on_c, 0, 87, 66
1, 449216, Note_off_c, 0, 87, 127
1, 449221, Note_off_c, 0, 84, 66
1, 449224, Note_off_c, 0, 67, 68
1, 449224, Note_off_c, 0, 79, 71
1, 449227, Note_off_c, 0, 88, 67
1, 449233, Note_off_c, 0, 55, 64
1, 449253, Note_off_c, 0, 91, 55
1, 449309, Note_on_c, 0, 88, 49
1, 449310, Note_on_c, 0, 85, 20
1, 449318, Note_off_c, 0, 64, 60
1, 449328, Note_on_c, 0, 84, 34
1, 449343, Note_off_c, 0, 88, 0
1, 449347, Note_on_c, 0, 68, 109
1, 449348, Note_on_c, 0, 64, 81
1, 449349, Note_on_c, 0, 78, 115
1, 449350, Note_on_c, 0, 56, 85
1, 449350, Note_on_c, 0, 92, 90
1, 449351, Note_on_c, 0, 88, 72
1, 449358, Note_off_c, 0, 85, 31
1, 449365, Note_on_c, 0, 87, 73
1, 449377, Note_off_c, 0, 92, 68
1, 449381, Note_off_c, 0, 56, 64
1, 449381, Note_off_c, 0, 87, 64
1, 449384, Note_off_c, 0, 68, 66
1, 449390, Note_off_c, 0, 88, 64
1, 449392, Note_off_c, 0, 60, 61
1, 449402, Note_off_c, 0, 64, 66
1, 449402, Note_off_c, 0, 84, 66
1, 449409, Note_off_c, 0, 78, 59
1, 449680, Note_on_c, 0, 76, 85
1, 449681, Note_on_c, 0, 72, 89
1, 449745, Note_off_c, 0, 76, 63
1, 449760, Note_off_c, 0, 72, 63
1, 449775, Note_on_c, 0, 64, 93
1, 449811, Note_off_c, 0, 64, 65
1, 449866, Note_on_c, 0, 64, 85
1, 449873, Note_on_c, 0, 60, 86
1, 449930, Note_off_c, 0, 60, 63
1, 449934, Note_off_c, 0, 64, 65
1, 449942, Note_on_c, 0, 52, 96
1, 449983, Note_off_c, 0, 52, 66
1, 450035, Note_on_c, 0, 48, 104
1, 450039, Note_on_c, 0, 36, 98
1, 450063, Note_on_c, 0, 38, 62
1, 450064, Note_off_c, 0, 38, 127
1, 450069, Note_off_c, 0, 48, 67
1, 450072, Note_off_c, 0, 36, 61
1, 450109, Note_on_c, 0, 60, 87
1, 450112, Note_on_c, 0, 48, 92
1, 450124, Note_on_c, 0, 50, 72
1, 450136, Note_off_c, 0, 60, 61
1, 450144, Note_off_c, 0, 50, 50
1, 450144, Note_off_c, 0, 48, 65
1, 450174, Control_c, 0, 64, 99
1, 450189, Control_c, 0, 64, 82
1, 450193, Note_on_c, 0, 48, 100
1, 450204, Control_c, 0, 64, 80
1, 450219, Control_c, 0, 64, 89
1, 450234, Control_c, 0, 64, 122
1, 450243, Note_off_c, 0, 48, 63
1, 450249, Control_c, 0, 64, 127
1, 450268, Note_on_c, 0, 43, 104
1, 450276, Note_on_c, 0, 31, 94
1, 450291, Note_on_c, 0, 29, 54
1, 450292, Note_off_c, 0, 29, 127
1, 450302, Note_off_c, 0, 43, 67
1, 450307, Note_off_c, 0, 31, 66
1, 450362, Note_on_c, 0, 48, 106
1, 450373, Note_on_c, 0, 36, 80
1, 450374, Note_on_c, 0, 47, 73
1, 450387, Note_off_c, 0, 36, 70
1, 450389, Note_off_c, 0, 48, 67
1, 450392, Note_on_c, 0, 38, 56
1, 450393, Note_off_c, 0, 38, 127
1, 450406, Note_off_c, 0, 47, 64
1, 450458, Note_on_c, 0, 36, 28
1, 450459, Note_off_c, 0, 36, 127
1, 450550, Note_on_c, 0, 55, 93
1, 450614, Note_on_c, 0, 64, 92
1, 450636, Note_off_c, 0, 55, 65
1, 450639, Note_on_c, 0, 60, 65
1, 450642, Note_on_c, 0, 59, 51
1, 450648, Note_on_c, 0, 67, 116
1, 450651, Note_off_c, 0, 64, 67
1, 450653, Note_on_c, 0, 76, 98
1, 450656, Note_on_c, 0, 72, 85
1, 450657, Note_on_c, 0, 79, 91
1, 450660, Note_off_c, 0, 60, 66
1, 450663, Note_on_c, 0, 71, 85
1, 450666, Note_off_c, 0, 59, 63
1, 450671, Note_off_c, 0, 76, 70
1, 450673, Note_off_c, 0, 72, 73
1, 450673, Note_off_c, 0, 67, 73
1, 450675, Note_off_c, 0, 79, 71
1, 450680, Note_off_c, 0, 71, 68
1, 450693, Note_on_c, 0, 74, 21
1, 450694, Note_off_c, 0, 74, 127
1, 450717, Note_on_c, 0, 66, 109
1, 450717, Control_c, 0, 64, 96
1, 450720, Note_on_c, 0, 58, 99
1, 450726, Note_on_c, 0, 63, 87
1, 450729, Note_on_c, 0, 61, 76
1, 450732, Control_c, 0, 64, 60
1, 450735, Note_on_c, 0, 78, 99
1, 450738, Note_on_c, 0, 75, 95
1, 450739, Note_on_c, 0, 82, 98
1, 450741, Note_on_c, 0, 73, 84
1, 450747, Control_c, 0, 64, 0
1, 450763, Poly_aftertouch_c, 0, 70, 127
1, 450865, Control_c, 0, 64, 43
1, 450880, Control_c, 0, 64, 62
1, 450895, Control_c, 0, 64, 74
1, 450910, Control_c, 0, 64, 94
1, 450924, Control_c, 0, 64, 127
1, 450975, Note_off_c, 0, 82, 32
1, 451017, Note_off_c, 0, 66, 52
1, 451027, Note_off_c, 0, 78, 54
1, 451029, Note_off_c, 0, 63, 55
1, 451050, Note_off_c, 0, 61, 60
1, 451057, Poly_aftertouch_c, 0, 70, 0
1, 451063, Note_off_c, 0, 58, 26
1, 451079, Note_off_c, 0, 73, 58
1, 451216, Note_off_c, 0, 75, 59
1, 451238, Note_on_c, 0, 67, 113
1, 451238, Note_on_c, 0, 72, 100
1, 451239, Note_on_c, 0, 64, 102
1, 451240, Note_on_c, 0, 76, 99
1, 451240, Note_on_c, 0, 79, 91
1, 451244, Note_on_c, 0, 55, 94
1, 451245, Note_on_c, 0, 60, 90
1, 451248, Note_on_c, 0, 75, 59
1, 451264, Note_off_c, 0, 67, 72
1, 451265, Note_off_c, 0, 64, 73
1, 451266, Note_off_c, 0, 72, 71
1, 451266, Note_off_c, 0, 75, 65
1, 451271, Note_off_c, 0, 60, 62
1, 451276, Note_off_c, 0, 55, 64
1, 451278, Note_off_c, 0, 76, 64
1, 451289, Note_off_c, 0, 79, 68
1, 451540, Control_c, 0, 64, 75
1, 451555, Control_c, 0, 64, 58
1, 451570, Control_c, 0, 64, 63
1, 451581, Note_on_c, 0, 36, 117
1, 451584, Control_c, 0, 64, 85
1, 451590, Note_on_c, 0, 24, 97
1, 451592, Note_on_c, 0, 26, 92
1, 451599, Control_c, 0, 64, 127
1, 451599, Note_on_c, 0, 79, 65
1, 451608, Note_off_c, 0, 24, 68
1, 451613, Note_on_c, 0, 91, 35
1, 451613, Note_off_c, 0, 26, 66
1, 451613, Note_off_c, 0, 36, 69
1, 451614, Note_on_c, 0, 84, 43
1, 451620, Note_off_c, 0, 79, 64
1, 451628, Note_on_c, 0, 88, 28
1, 451638, Note_off_c, 0, 91, 36
1, 451647, Note_off_c, 0, 84, 48
1, 451667, Note_off_c, 0, 88, 42
1, 451806, Note_on_c, 0, 55, 89
1, 451954, Note_on_c, 0, 64, 85
1, 451955, Note_on_c, 0, 60, 79
1, 451957, Note_on_c, 0, 67, 95
1, 451957, Note_off_c, 0, 55, 64
1, 451961, Note_on_c, 0, 88, 100
1, 451963, Note_on_c, 0, 79, 93
1, 451963, Note_on_c, 0, 91, 92
1, 451967, Note_on_c, 0, 77, 99
1, 451967, Note_on_c, 0, 83, 81
1, 451967, Note_on_c, 0, 84, 84
1, 451977, Note_off_c, 0, 67, 71
1, 451978, Note_off_c, 0, 91, 74
1, 451980, Note_off_c, 0, 79, 71
1, 451981, Note_off_c, 0, 83, 71
1, 451983, Note_off_c, 0, 77, 75
1, 451985, Note_off_c, 0, 84, 72
1, 451989, Note_off_c, 0, 88, 60
1, 451992, Note_on_c, 0, 87, 40
1, 451993, Note_off_c, 0, 64, 65
1, 452017, Note_off_c, 0, 87, 53
1, 452029, Note_on_c, 0, 68, 109
1, 452029, Note_on_c, 0, 92, 91
1, 452031, Note_on_c, 0, 64, 86
1, 452032, Note_on_c, 0, 78, 114
1, 452034, Note_on_c, 0, 56, 85
1, 452034, Note_on_c, 0, 88, 86
1, 452038, Note_on_c, 0, 84, 95
1, 452045, Note_off_c, 0, 92, 73
1, 452057, Note_off_c, 0, 56, 69
1, 452057, Note_off_c, 0, 68, 71
1, 452058, Note_off_c, 0, 84, 65
1, 452063, Note_on_c, 0, 87, 46
1, 452064, Note_off_c, 0, 87, 127
1, 452068, Note_off_c, 0, 88, 59
1, 452071, Note_off_c, 0, 64, 63
1, 452074, Note_off_c, 0, 60, 63
1, 452085, Note_off_c, 0, 78, 60
1, 452225, Note_on_c, 0, 76, 95
1, 452226, Note_on_c, 0, 72, 93
1, 452272, Note_off_c, 0, 76, 61
1, 452284, Note_off_c, 0, 72, 64
1, 452300, Note_on_c, 0, 64, 87
1, 452327, Note_off_c, 0, 64, 65
1, 452380, Note_on_c, 0, 64, 90
1, 452383, Note_on_c, 0, 60, 86
1, 452448, Note_off_c, 0, 60, 56
1, 452450, Note_off_c, 0, 64, 65
1, 452460, Note_on_c, 0, 52, 93
1, 452500, Note_off_c, 0, 52, 65
1, 452526, Control_c, 0, 64, 103
1, 452535, Note_on_c, 0, 48, 104
1, 452539, Note_on_c, 0, 36, 92
1, 452541, Control_c, 0, 64, 71
1, 452556, Control_c, 0, 64, 47
1, 452568, Note_off_c, 0, 48, 65
1, 452570, Note_off_c, 0, 36, 60
1, 452570, Control_c, 0, 64, 0
1, 452619, Note_on_c, 0, 48, 97
1, 452621, Note_on_c, 0, 60, 89
1, 452644, Note_off_c, 0, 60, 72
1, 452652, Note_on_c, 0, 50, 35
1, 452658, Note_off_c, 0, 48, 63
1, 452678, Note_off_c, 0, 50, 36
1, 452703, Note_on_c, 0, 48, 98
1, 452755, Note_off_c, 0, 48, 64
1, 452794, Note_on_c, 0, 43, 101
1, 452800, Note_on_c, 0, 31, 91
1, 452800, Control_c, 0, 64, 43
1, 452815, Control_c, 0, 64, 61
1, 452827, Note_off_c, 0, 31, 70
1, 452828, Note_off_c, 0, 43, 66
1, 452829, Control_c, 0, 64, 66
1, 452844, Control_c, 0, 64, 70
1, 452859, Control_c, 0, 64, 76
1, 452874, Control_c, 0, 64, 88
1, 452889, Control_c, 0, 64, 117
1, 452890, Note_on_c, 0, 48, 110
1, 452895, Note_on_c, 0, 36, 98
1, 452903, Control_c, 0, 64, 127
1, 452919, Note_off_c, 0, 36, 67
1, 452920, Note_off_c, 0, 48, 68
1, 453102, Note_on_c, 0, 53, 83
1, 453109, Note_on_c, 0, 55, 82
1, 453160, Note_off_c, 0, 53, 63
1, 453188, Note_on_c, 0, 64, 100
1, 453197, Note_on_c, 0, 60, 85
1, 453202, Note_on_c, 0, 67, 110
1, 453206, Note_on_c, 0, 76, 98
1, 453208, Note_on_c, 0, 79, 88
1, 453209, Note_on_c, 0, 72, 94
1, 453212, Note_off_c, 0, 55, 61
1, 453224, Note_off_c, 0, 64, 70
1, 453227, Note_on_c, 0, 75, 58
1, 453228, Note_off_c, 0, 75, 127
1, 453228, Note_off_c, 0, 60, 67
1, 453230, Note_off_c, 0, 72, 67
1, 453230, Note_on_c, 0, 59, 13
1, 453231, Note_off_c, 0, 67, 70
1, 453238, Note_off_c, 0, 76, 66
1, 453241, Note_on_c, 0, 58, 34
1, 453249, Poly_aftertouch_c, 0, 75, 0
1, 453250, Note_off_c, 0, 79, 61
1, 453281, Note_off_c, 0, 59, 36
1, 453285, Poly_aftertouch_c, 0, 73, 0
1, 453290, Note_off_c, 0, 58, 0
1, 453290, Note_on_c, 0, 58, 65
1, 453292, Note_on_c, 0, 66, 121
1, 453296, Note_on_c, 0, 73, 49
1, 453298, Note_on_c, 0, 70, 114
1, 453298, Note_on_c, 0, 78, 97
1, 453299, Note_on_c, 0, 63, 89
1, 453301, Note_on_c, 0, 61, 78
1, 453301, Note_on_c, 0, 75, 99
1, 453303, Note_on_c, 0, 82, 95
1, 453304, Control_c, 0, 64, 73
1, 453319, Control_c, 0, 64, 43
1, 453334, Control_c, 0, 64, 0
1, 453430, Control_c, 0, 64, 21
1, 453445, Control_c, 0, 64, 48
1, 453459, Control_c, 0, 64, 62
1, 453474, Control_c, 0, 64, 69
1, 453489, Control_c, 0, 64, 76
1, 453504, Control_c, 0, 64, 91
1, 453519, Control_c, 0, 64, 121
1, 453534, Control_c, 0, 64, 127
1, 453553, Note_off_c, 0, 70, 54
1, 453589, Note_off_c, 0, 82, 32
1, 453623, Note_off_c, 0, 78, 52
1, 453664, Note_off_c, 0, 66, 47
1, 453714, Note_off_c, 0, 58, 34
1, 453723, Note_off_c, 0, 63, 48
1, 453725, Note_off_c, 0, 73, 35
1, 453750, Note_off_c, 0, 61, 53
1, 454061, Note_off_c, 0, 75, 60
1, 454101, Note_on_c, 0, 55, 84
1, 454101, Note_on_c, 0, 67, 113
1, 454101, Note_on_c, 0, 72, 96
1, 454104, Note_on_c, 0, 60, 92
1, 454104, Note_on_c, 0, 64, 105
1, 454104, Note_on_c, 0, 79, 95
1, 454106, Note_on_c, 0, 76, 93
1, 454112, Note_on_c, 0, 75, 72
1, 454151, Note_on_c, 0, 61, 31
1, 454156, Note_off_c, 0, 75, 50
1, 454164, Control_c, 0, 64, 88
1, 454179, Control_c, 0, 64, 69
1, 454184, Note_off_c, 0, 61, 59
1, 454194, Control_c, 0, 64, 58
1, 454208, Control_c, 0, 64, 52
1, 454217, Note_off_c, 0, 67, 57
1, 454223, Control_c, 0, 64, 51
1, 454226, Note_off_c, 0, 64, 61
1, 454238, Control_c, 0, 64, 47
1, 454240, Note_off_c, 0, 72, 60
1, 454244, Note_off_c, 0, 60, 55
1, 454250, Note_off_c, 0, 76, 58
1, 454253, Control_c, 0, 64, 37
1, 454263, Note_off_c, 0, 79, 59
1, 454268, Control_c, 0, 64, 12
1, 454282, Control_c, 0, 64, 0
1, 454290, Note_off_c, 0, 55, 62
1, 454720, Note_on_c, 0, 24, 112
1, 454724, Poly_aftertouch_c, 0, 26, 0
1, 454726, Note_on_c, 0, 26, 92
1, 454728, Control_c, 0, 64, 59
1, 454743, Control_c, 0, 64, 67
1, 454758, Control_c, 0, 64, 70
1, 454772, Control_c, 0, 64, 74
1, 454787, Control_c, 0, 64, 79
1, 454802, Control_c, 0, 64, 86
1, 454811, Note_off_c, 0, 26, 0
1, 454816, Control_c, 0, 64, 95
1, 454831, Control_c, 0, 64, 101
1, 454854, Control_c, 0, 64, 104
1, 454855, Poly_aftertouch_c, 0, 26, 127
1, 454869, Control_c, 0, 64, 106
1, 454884, Control_c, 0, 64, 106
1, 454898, Control_c, 0, 64, 107
1, 454913, Control_c, 0, 64, 112
1, 454920, Note_on_c, 0, 36, 98
1, 454926, Note_on_c, 0, 79, 103
1, 454926, Note_on_c, 0, 84, 95
1, 454926, Note_on_c, 0, 88, 98
1, 454926, Note_on_c, 0, 91, 100
1, 454928, Control_c, 0, 64, 127
1, 454933, Note_off_c, 0, 24, 58
1, 454947, Poly_aftertouch_c, 0, 26, 0
1, 454949, Note_on_c, 0, 87, 58
1, 454963, Note_off_c, 0, 84, 65
1, 454965, Note_off_c, 0, 36, 65
1, 454965, Note_off_c, 0, 79, 66
1, 454966, Note_off_c, 0, 87, 41
1, 454966, Note_off_c, 0, 91, 67
1, 454968, Note_off_c, 0, 88, 60
1, 455129, Note_on_c, 0, 84, 97
1, 455130, Note_on_c, 0, 92, 97
1, 455132, Note_on_c, 0, 88, 91
1, 455134, Note_on_c, 0, 35, 97
1, 455134, Note_on_c, 0, 78, 103
1, 455144, Note_on_c, 0, 36, 80
1, 455147, Note_on_c, 0, 87, 73
1, 455162, Note_off_c, 0, 92, 66
1, 455164, Note_off_c, 0, 87, 62
1, 455170, Note_off_c, 0, 36, 0
1, 455170, Note_off_c, 0, 88, 60
1, 455180, Note_on_c, 0, 36, 66
1, 455185, Note_off_c, 0, 84, 63
1, 455190, Note_off_c, 0, 78, 61
1, 455202, Note_off_c, 0, 35, 63
1, 455299, Note_on_c, 0, 48, 91
1, 455302, Note_off_c, 0, 36, 62
1, 455367, Note_off_c, 0, 48, 61
1, 455406, Note_on_c, 0, 36, 90
1, 455427, Note_on_c, 0, 39, 56
1, 455443, Note_off_c, 0, 36, 63
1, 455454, Note_off_c, 0, 39, 49
1, 455512, Note_on_c, 0, 36, 93
1, 455582, Note_on_c, 0, 67, 100
1, 455582, Note_on_c, 0, 76, 95
1, 455582, Note_off_c, 0, 36, 62
1, 455583, Note_on_c, 0, 72, 95
1, 455606, Note_on_c, 0, 79, 61
1, 455615, Note_on_c, 0, 75, 52
1, 455616, Note_off_c, 0, 67, 69
1, 455618, Control_c, 0, 64, 111
1, 455624, Note_off_c, 0, 76, 68
1, 455627, Note_off_c, 0, 79, 63
1, 455627, Note_off_c, 0, 72, 67
1, 455633, Control_c, 0, 64, 73
1, 455636, Note_off_c, 0, 75, 64
1, 455647, Control_c, 0, 64, 63
1, 455659, Note_on_c, 0, 24, 119
1, 455662, Control_c, 0, 64, 70
1, 455665, Note_on_c, 0, 75, 76
1, 455668, Note_on_c, 0, 72, 90
1, 455669, Note_on_c, 0, 66, 105
1, 455671, Note_on_c, 0, 80, 73
1, 455677, Control_c, 0, 64, 88
1, 455682, Note_on_c, 0, 76, 83
1, 455686, Note_off_c, 0, 80, 69
1, 455692, Control_c, 0, 64, 127
1, 455698, Note_on_c, 0, 79, 46
1, 455699, Note_off_c, 0, 79, 127
1, 455699, Note_off_c, 0, 76, 72
1, 455707, Note_off_c, 0, 66, 56
1, 455709, Note_off_c, 0, 75, 65
1, 455717, Note_off_c, 0, 72, 64
1, 455733, Note_off_c, 0, 24, 65
1, 455752, Note_on_c, 0, 36, 84
1, 455768, Poly_aftertouch_c, 0, 78, 0
1, 455778, Note_off_c, 0, 36, 66
1, 455880, Note_on_c, 0, 35, 65
1, 455881, Note_on_c, 0, 36, 66
1, 455913, Note_off_c, 0, 35, 59
1, 455937, Note_off_c, 0, 36, 62
1, 455956, Note_on_c, 0, 48, 81
1, 455971, Note_on_c, 0, 47, 73
1, 455999, Note_off_c, 0, 48, 60
1, 456002, Note_off_c, 0, 47, 66
1, 456017, Note_on_c, 0, 36, 56
1, 456021, Note_on_c, 0, 35, 64
1, 456050, Note_off_c, 0, 36, 62
1, 456052, Note_off_c, 0, 35, 62
1, 456104, Note_on_c, 0, 36, 84
1, 456151, Control_c, 0, 64, 116
1, 456157, Note_off_c, 0, 36, 63
1, 456166, Control_c, 0, 64, 72
1, 456176, Poly_aftertouch_c, 0, 35, 0
1, 456179, Note_on_c, 0, 24, 114
1, 456180, Control_c, 0, 64, 52
1, 456195, Control_c, 0, 64, 46
1, 456210, Control_c, 0, 64, 57
1, 456226, Control_c, 0, 64, 71
1, 456227, Note_on_c, 0, 61, 93
1, 456228, Note_on_c, 0, 55, 100
1, 456229, Note_on_c, 0, 64, 93
1, 456240, Note_off_c, 0, 24, 65
1, 456241, Control_c, 0, 64, 91
1, 456247, Note_on_c, 0, 63, 64
1, 456248, Note_off_c, 0, 61, 66
1, 456249, Note_on_c, 0, 60, 82
1, 456252, Note_off_c, 0, 55, 70
1, 456256, Control_c, 0, 64, 127
1, 456264, Note_on_c, 0, 67, 36
1, 456267, Note_off_c, 0, 63, 39
1, 456267, Note_off_c, 0, 64, 64
1, 456272, Note_off_c, 0, 60, 66
1, 456298, Note_off_c, 0, 67, 52
1, 456303, Note_on_c, 0, 64, 84
1, 456304, Note_on_c, 0, 54, 102
1, 456305, Note_on_c, 0, 68, 91
1, 456306, Note_on_c, 0, 60, 93
1, 456318, Note_on_c, 0, 63, 77
1, 456330, Note_on_c, 0, 36, 74
1, 456330, Note_off_c, 0, 54, 60
1, 456332, Note_off_c, 0, 68, 62
1, 456333, Note_on_c, 0, 61, 25
1, 456338, Note_on_c, 0, 56, 41
1, 456339, Note_off_c, 0, 56, 127
1, 456350, Note_off_c, 0, 63, 66
1, 456353, Note_off_c, 0, 64, 61
1, 456359, Note_off_c, 0, 60, 62
1, 456378, Note_off_c, 0, 61, 0
1, 456382, Note_off_c, 0, 36, 58
1, 456394, Poly_aftertouch_c, 0, 61, 0
1, 456407, Note_on_c, 0, 48, 74
1, 456413, Note_on_c, 0, 47, 78
1, 456435, Note_off_c, 0, 48, 66
1, 456436, Note_off_c, 0, 47, 68
1, 456475, Note_on_c, 0, 35, 72
1, 456506, Note_off_c, 0, 35, 64
1, 456545, Note_on_c, 0, 36, 81
1, 456603, Note_off_c, 0, 36, 61
1, 456603, Control_c, 0, 64, 91
1, 456618, Control_c, 0, 64, 65
1, 456633, Control_c, 0, 64, 20
1, 456634, Note_on_c, 0, 24, 115
1, 456648, Control_c, 0, 64, 0
1, 456680, Note_on_c, 0, 43, 99
1, 456685, Note_on_c, 0, 52, 83
1, 456688, Note_on_c, 0, 48, 77
1, 456690, Note_off_c, 0, 24, 65
1, 456692, Control_c, 0, 64, 38
1, 456695, Note_on_c, 0, 47, 61
1, 456704, Note_off_c, 0, 43, 71
1, 456707, Control_c, 0, 64, 57
1, 456714, Note_off_c, 0, 52, 65
1, 456717, Note_off_c, 0, 48, 64
1, 456718, Note_off_c, 0, 47, 39
1, 456720, Note_on_c, 0, 55, 25
1, 456721, Note_off_c, 0, 55, 127
1, 456721, Control_c, 0, 64, 63
1, 456736, Note_on_c, 0, 56, 91
1, 456736, Control_c, 0, 64, 66
1, 456751, Control_c, 0, 64, 70
1, 456756, Note_on_c, 0, 42, 95
1, 456757, Note_on_c, 0, 53, 84
1, 456758, Note_on_c, 0, 51, 52
1, 456762, Note_on_c, 0, 44, 79
1, 456766, Control_c, 0, 64, 75
1, 456771, Poly_aftertouch_c, 0, 49, 127
1, 456776, Poly_aftertouch_c, 0, 55, 127
1, 456777, Note_off_c, 0, 42, 68
1, 456781, Control_c, 0, 64, 80
1, 456783, Note_off_c, 0, 44, 61
1, 456786, Note_off_c, 0, 56, 64
1, 456789, Note_off_c, 0, 53, 62
1, 456793, Note_off_c, 0, 51, 63
1, 456793, Poly_aftertouch_c, 0, 55, 0
1, 456794, Note_on_c, 0, 36, 62
1, 456795, Control_c, 0, 64, 83
1, 456810, Control_c, 0, 64, 83
1, 456814, Poly_aftertouch_c, 0, 49, 0
1, 456825, Control_c, 0, 64, 84
1, 456832, Note_off_c, 0, 36, 63
1, 456833, Note_on_c, 0, 38, 29
1, 456840, Note_on_c, 0, 48, 75
1, 456840, Control_c, 0, 64, 84
1, 456855, Control_c, 0, 64, 85
1, 456873, Note_off_c, 0, 38, 31
1, 456882, Note_off_c, 0, 48, 61
1, 456884, Control_c, 0, 64, 85
1, 456907, Note_on_c, 0, 36, 68
1, 456929, Control_c, 0, 64, 86
1, 456944, Control_c, 0, 64, 88
1, 456948, Note_off_c, 0, 36, 63
1, 456959, Control_c, 0, 64, 94
1, 456974, Control_c, 0, 64, 105
1, 456989, Control_c, 0, 64, 127
1, 456997, Note_on_c, 0, 38, 67
1, 457011, Note_on_c, 0, 36, 67
1, 457047, Note_off_c, 0, 36, 62
1, 457049, Note_off_c, 0, 38, 62
1, 457049, Control_c, 0, 64, 90
1, 457064, Control_c, 0, 64, 64
1, 457075, Note_on_c, 0, 24, 94
1, 457079, Control_c, 0, 64, 32
1, 457101, Control_c, 0, 64, 0
1, 457137, Note_off_c, 0, 24, 65
1, 457153, Note_on_c, 0, 36, 71
1, 457185, Note_off_c, 0, 36, 67
1, 457190, Control_c, 0, 64, 12
1, 457205, Note_on_c, 0, 35, 3
1, 457205, Control_c, 0, 64, 21
1, 457220, Control_c, 0, 64, 26
1, 457225, Note_off_c, 0, 35, 36
1, 457234, Control_c, 0, 64, 26
1, 457247, Note_on_c, 0, 36, 83
1, 457264, Control_c, 0, 64, 27
1, 457279, Control_c, 0, 64, 30
1, 457294, Control_c, 0, 64, 32
1, 457298, Note_off_c, 0, 36, 61
1, 457308, Control_c, 0, 64, 34
1, 457319, Note_on_c, 0, 48, 84
1, 457323, Control_c, 0, 64, 34
1, 457338, Control_c, 0, 64, 35
1, 457349, Note_off_c, 0, 48, 65
1, 457352, Control_c, 0, 64, 38
1, 457366, Note_on_c, 0, 36, 63
1, 457367, Control_c, 0, 64, 44
1, 457382, Control_c, 0, 64, 53
1, 457397, Control_c, 0, 64, 58
1, 457398, Note_off_c, 0, 36, 70
1, 457412, Control_c, 0, 64, 59
1, 457454, Note_on_c, 0, 36, 81
1, 457501, Control_c, 0, 64, 57
1, 457509, Note_off_c, 0, 36, 63
1, 457516, Control_c, 0, 64, 54
1, 457531, Control_c, 0, 64, 48
1, 457536, Note_on_c, 0, 24, 84
1, 457545, Control_c, 0, 64, 40
1, 457560, Control_c, 0, 64, 35
1, 457571, Note_on_c, 0, 43, 84
1, 457573, Note_on_c, 0, 40, 86
1, 457573, Note_off_c, 0, 24, 65
1, 457575, Control_c, 0, 64, 39
1, 457590, Control_c, 0, 64, 49
1, 457593, Note_off_c, 0, 40, 67
1, 457593, Note_off_c, 0, 43, 69
1, 457602, Note_on_c, 0, 36, 57
1, 457605, Control_c, 0, 64, 57
1, 457615, Note_on_c, 0, 44, 87
1, 457616, Note_on_c, 0, 42, 95
1, 457619, Control_c, 0, 64, 60
1, 457634, Control_c, 0, 64, 62
1, 457640, Note_off_c, 0, 36, 33
1, 457649, Note_off_c, 0, 42, 63
1, 457649, Control_c, 0, 64, 63
1, 457659, Note_off_c, 0, 44, 65
1, 457664, Control_c, 0, 64, 65
1, 457678, Control_c, 0, 64, 68
1, 457680, Note_on_c, 0, 35, 71
1, 457693, Control_c, 0, 64, 71
1, 457708, Control_c, 0, 64, 75
1, 457723, Control_c, 0, 64, 79
1, 457731, Note_off_c, 0, 35, 60
1, 457737, Control_c, 0, 64, 81
1, 457752, Control_c, 0, 64, 82
1, 457767, Control_c, 0, 64, 83
1, 457771, Note_on_c, 0, 48, 63
1, 457773, Note_on_c, 0, 47, 59
1, 457782, Control_c, 0, 64, 84
1, 457793, Note_off_c, 0, 48, 61
1, 457797, Control_c, 0, 64, 85
1, 457804, Note_off_c, 0, 47, 64
1, 457812, Control_c, 0, 64, 86
1, 457827, Control_c, 0, 64, 90
1, 457835, Note_on_c, 0, 35, 75
1, 457849, Control_c, 0, 64, 97
1, 457864, Control_c, 0, 64, 116
1, 457867, Note_off_c, 0, 35, 67
1, 457879, Control_c, 0, 64, 127
1, 457914, Note_on_c, 0, 36, 82
1, 457953, Control_c, 0, 64, 103
1, 457958, Note_on_c, 0, 35, 3
1, 457959, Note_off_c, 0, 35, 127
1, 457967, Note_off_c, 0, 36, 63
1, 457968, Control_c, 0, 64, 69
1, 457982, Control_c, 0, 64, 20
1, 457989, Note_on_c, 0, 24, 93
1, 457997, Control_c, 0, 64, 0
1, 458054, Note_off_c, 0, 24, 61
1, 458062, Note_on_c, 0, 36, 81
1, 458096, Note_off_c, 0, 36, 64
1, 458149, Note_on_c, 0, 24, 64
1, 458172, Note_on_c, 0, 26, 44
1, 458172, Note_off_c, 0, 24, 63
1, 458193, Note_on_c, 0, 36, 62
1, 458212, Note_off_c, 0, 26, 32
1, 458232, Note_off_c, 0, 36, 63
1, 458251, Note_on_c, 0, 24, 71
1, 458300, Note_off_c, 0, 24, 64
1, 458329, Note_on_c, 0, 36, 68
1, 458356, Note_off_c, 0, 36, 67
1, 458375, Note_on_c, 0, 24, 74
1, 458424, Note_off_c, 0, 24, 62
1, 458448, Note_on_c, 0, 36, 51
1, 458479, Note_off_c, 0, 36, 62
1, 458494, Note_on_c, 0, 24, 71
1, 458533, Note_off_c, 0, 24, 67
1, 458555, Note_on_c, 0, 36, 67
1, 458587, Note_off_c, 0, 36, 62
1, 458619, Note_on_c, 0, 24, 69
1, 458652, Note_off_c, 0, 24, 64
1, 458673, Note_on_c, 0, 36, 68
1, 458712, Note_off_c, 0, 36, 63
1, 458729, Note_on_c, 0, 24, 72
1, 458770, Note_off_c, 0, 24, 65
1, 458789, Note_on_c, 0, 36, 71
1, 458824, Note_off_c, 0, 36, 61
1, 458907, Note_on_c, 0, 36, 61
1, 458936, Note_off_c, 0, 36, 63
1, 459013, Note_on_c, 0, 36, 64
1, 459015, Poly_aftertouch_c, 0, 24, 0
1, 459050, Note_off_c, 0, 36, 65
1, 459082, Note_on_c, 0, 24, 45
1, 459126, Note_off_c, 0, 24, 63
1, 459146, Note_on_c, 0, 36, 50
1, 459179, Note_off_c, 0, 36, 60
1, 459202, Note_on_c, 0, 31, 58
1, 459214, Note_on_c, 0, 24, 68
1, 459236, Note_on_c, 0, 40, 81
1, 459239, Note_off_c, 0, 31, 68
1, 459256, Note_off_c, 0, 40, 67
1, 459266, Note_on_c, 0, 36, 52
1, 459281, Note_off_c, 0, 24, 63
1, 459306, Note_off_c, 0, 36, 62
1, 459358, Note_on_c, 0, 24, 48
1, 459404, Note_off_c, 0, 24, 62
1, 459407, Note_on_c, 0, 36, 58
1, 459495, Control_c, 0, 64, 13
1, 459502, Note_on_c, 0, 24, 64
1, 459507, Note_off_c, 0, 36, 59
1, 459510, Control_c, 0, 64, 42
1, 459525, Control_c, 0, 64, 57
1, 459539, Control_c, 0, 64, 62
1, 459554, Control_c, 0, 64, 65
1, 459569, Control_c, 0, 64, 67
1, 459584, Control_c, 0, 64, 69
1, 459599, Control_c, 0, 64, 73
1, 459613, Control_c, 0, 64, 80
1, 459628, Control_c, 0, 64, 86
1, 459642, Note_off_c, 0, 24, 34
1, 459643, Control_c, 0, 64, 93
1, 459658, Control_c, 0, 64, 101
1, 459661, Note_on_c, 0, 25, 36
1, 459672, Control_c, 0, 64, 109
1, 459687, Control_c, 0, 64, 127
1, 459711, Note_off_c, 0, 25, 61
1, 459740, Note_on_c, 0, 24, 45
1, 459785, Note_off_c, 0, 24, 63
1, 459807, Note_on_c, 0, 25, 64
1, 459849, Note_off_c, 0, 25, 62
1, 459874, Note_on_c, 0, 24, 64
1, 459921, Note_off_c, 0, 24, 65
1, 459935, Note_on_c, 0, 25, 62
1, 459985, Note_off_c, 0, 25, 63
1, 460005, Note_on_c, 0, 24, 59
1, 460047, Note_off_c, 0, 24, 64
1, 460066, Note_on_c, 0, 25, 60
1, 460107, Note_off_c, 0, 25, 64
1, 460131, Note_on_c, 0, 24, 64
1, 460163, Note_off_c, 0, 24, 65
1, 460180, Note_on_c, 0, 25, 68
1, 460216, Note_off_c, 0, 25, 62
1, 460240, Note_on_c, 0, 24, 68
1, 460283, Note_off_c, 0, 24, 66
1, 460295, Note_on_c, 0, 25, 68
1, 460336, Note_off_c, 0, 25, 62
1, 460368, Note_on_c, 0, 24, 66
1, 460404, Note_off_c, 0, 24, 64
1, 460414, Note_on_c, 0, 25, 68
1, 460453, Note_off_c, 0, 25, 63
1, 460484, Note_on_c, 0, 24, 69
1, 460518, Note_off_c, 0, 24, 64
1, 460524, Note_on_c, 0, 25, 69
1, 460569, Note_off_c, 0, 25, 60
1, 460589, Note_on_c, 0, 24, 74
1, 460639, Note_off_c, 0, 24, 65
1, 460646, Note_on_c, 0, 25, 63
1, 460691, Note_off_c, 0, 25, 63
1, 460711, Note_on_c, 0, 24, 67
1, 460735, Note_on_c, 0, 48, 83
1, 460743, Note_on_c, 0, 36, 82
1, 460761, Note_off_c, 0, 24, 64
1, 460778, Note_on_c, 0, 25, 65
1, 460803, Note_off_c, 0, 36, 59
1, 460809, Note_off_c, 0, 25, 65
1, 460847, Note_on_c, 0, 24, 62
1, 460887, Note_off_c, 0, 24, 64
1, 460893, Note_on_c, 0, 25, 69
1, 460933, Note_off_c, 0, 25, 63
1, 460960, Note_on_c, 0, 24, 71
1, 461004, Note_off_c, 0, 24, 64
1, 461008, Note_on_c, 0, 25, 71
1, 461049, Note_off_c, 0, 25, 62
1, 461071, Note_on_c, 0, 24, 76
1, 461114, Note_off_c, 0, 24, 65
1, 461119, Note_on_c, 0, 25, 76
1, 461168, Note_off_c, 0, 25, 61
1, 461181, Note_on_c, 0, 24, 81
1, 461234, Note_on_c, 0, 25, 78
1, 461237, Note_off_c, 0, 24, 62
1, 461278, Note_off_c, 0, 25, 59
1, 461287, Note_on_c, 0, 24, 79
1, 461345, Note_on_c, 0, 25, 81
1, 461345, Note_off_c, 0, 24, 61
1, 461392, Note_off_c, 0, 25, 62
1, 461400, Note_on_c, 0, 24, 71
1, 461452, Note_off_c, 0, 24, 62
1, 461455, Note_on_c, 0, 25, 88
1, 461498, Note_on_c, 0, 49, 91
1, 461499, Note_on_c, 0, 37, 97
1, 461514, Note_off_c, 0, 25, 62
1, 461526, Note_on_c, 0, 43, 53
1, 461554, Note_off_c, 0, 43, 57
1, 461576, Note_off_c, 0, 37, 52
1, 461601, Note_on_c, 0, 24, 72
1, 461643, Note_off_c, 0, 24, 64
1, 461663, Note_on_c, 0, 36, 74
1, 461701, Note_off_c, 0, 36, 64
1, 461711, Note_off_c, 0, 49, 54
1, 461732, Note_on_c, 0, 25, 65
1, 461734, Note_on_c, 0, 24, 58
1, 461743, Note_off_c, 0, 48, 48
1, 461756, Note_off_c, 0, 25, 69
1, 461766, Note_off_c, 0, 24, 66
1, 461771, Note_on_c, 0, 36, 81
1, 461822, Note_off_c, 0, 36, 62
1, 461831, Note_on_c, 0, 25, 84
1, 461851, Note_on_c, 0, 24, 43
1, 461875, Note_off_c, 0, 24, 62
1, 461879, Note_on_c, 0, 36, 71
1, 461898, Note_off_c, 0, 25, 61
1, 461934, Note_off_c, 0, 36, 63
1, 461943, Note_on_c, 0, 25, 78
1, 461968, Note_on_c, 0, 24, 37
1, 461994, Note_on_c, 0, 36, 74
1, 462001, Note_off_c, 0, 24, 48
1, 462008, Note_off_c, 0, 25, 63
1, 462044, Note_off_c, 0, 36, 61
1, 462065, Note_on_c, 0, 25, 68
1, 462085, Note_on_c, 0, 24, 56
1, 462101, Note_on_c, 0, 36, 78
1, 462121, Note_off_c, 0, 25, 63
1, 462128, Note_off_c, 0, 24, 59
1, 462150, Note_off_c, 0, 36, 61
1, 462182, Note_on_c, 0, 25, 51
1, 462201, Note_on_c, 0, 36, 87
1, 462203, Note_on_c, 0, 24, 60
1, 462223, Note_off_c, 0, 25, 60
1, 462238, Note_on_c, 0, 26, 29
1, 462253, Note_off_c, 0, 24, 65
1, 462253, Note_off_c, 0, 36, 60
1, 462282, Note_off_c, 0, 26, 28
1, 462304, Note_on_c, 0, 36, 88
1, 462306, Note_on_c, 0, 24, 77
1, 462309, Note_on_c, 0, 25, 83
1, 462340, Note_on_c, 0, 27, 60
1, 462357, Note_off_c, 0, 25, 64
1, 462361, Note_off_c, 0, 36, 63
1, 462367, Note_off_c, 0, 24, 62
1, 462375, Note_on_c, 0, 48, 107
1, 462376, Note_off_c, 0, 27, 35
1, 462379, Note_on_c, 0, 60, 101
1, 462398, Note_off_c, 0, 60, 69
1, 462403, Note_off_c, 0, 48, 70
1, 462404, Note_on_c, 0, 59, 59
1, 462405, Note_off_c, 0, 59, 127
1, 462411, Note_on_c, 0, 58, 49
1, 462412, Note_off_c, 0, 58, 127
1, 462430, Note_on_c, 0, 24, 63
1, 462431, Note_on_c, 0, 36, 81
1, 462441, Note_on_c, 0, 25, 72
1, 462481, Note_off_c, 0, 25, 63
1, 462483, Note_off_c, 0, 24, 63
1, 462485, Note_off_c, 0, 36, 60
1, 462551, Note_on_c, 0, 37, 95
1, 462554, Poly_aftertouch_c, 0, 27, 0
1, 462575, Note_off_c, 0, 37, 61
1, 462586, Note_on_c, 0, 25, 79
1, 462590, Note_on_c, 0, 36, 83
1, 462590, Note_on_c, 0, 24, 70
1, 462621, Note_off_c, 0, 36, 65
1, 462629, Note_off_c, 0, 25, 63
1, 462634, Note_off_c, 0, 24, 63
1, 462653, Note_on_c, 0, 37, 68
1, 462688, Note_off_c, 0, 37, 65
1, 462705, Note_on_c, 0, 36, 86
1, 462708, Note_on_c, 0, 25, 88
1, 462709, Note_on_c, 0, 24, 78
1, 462740, Note_off_c, 0, 36, 64
1, 462750, Note_off_c, 0, 24, 63
1, 462750, Note_off_c, 0, 25, 61
1, 462766, Note_on_c, 0, 37, 108
1, 462799, Note_off_c, 0, 37, 66
1, 462813, Note_on_c, 0, 36, 92
1, 462815, Note_on_c, 0, 24, 86
1, 462815, Note_on_c, 0, 25, 87
1, 462848, Note_off_c, 0, 36, 62
1, 462849, Note_off_c, 0, 24, 67
1, 462857, Note_off_c, 0, 25, 64
1, 462871, Note_on_c, 0, 37, 98
1, 462903, Note_off_c, 0, 37, 66
1, 462922, Note_on_c, 0, 36, 98
1, 462924, Note_on_c, 0, 25, 91
1, 462928, Note_on_c, 0, 24, 80
1, 462954, Note_on_c, 0, 26, 53
1, 462957, Note_off_c, 0, 24, 66
1, 462957, Note_off_c, 0, 36, 59
1, 462969, Note_on_c, 0, 37, 105
1, 462972, Note_off_c, 0, 25, 63
1, 462992, Note_off_c, 0, 26, 33
1, 463005, Note_off_c, 0, 37, 65
1, 463025, Note_on_c, 0, 36, 98
1, 463026, Note_on_c, 0, 24, 88
1, 463027, Note_on_c, 0, 25, 91
1, 463063, Note_off_c, 0, 36, 64
1, 463069, Note_off_c, 0, 24, 65
1, 463070, Note_on_c, 0, 37, 109
1, 463077, Note_off_c, 0, 25, 62
1, 463112, Note_off_c, 0, 37, 67
1, 463143, Note_on_c, 0, 36, 103
1, 463144, Note_on_c, 0, 25, 94
1, 463147, Note_on_c, 0, 24, 95
1, 463183, Note_off_c, 0, 36, 62
1, 463186, Note_on_c, 0, 37, 109
1, 463186, Note_off_c, 0, 24, 65
1, 463198, Note_off_c, 0, 25, 63
1, 463220, Note_off_c, 0, 37, 68
1, 463256, Note_on_c, 0, 36, 98
1, 463257, Note_on_c, 0, 24, 98
1, 463258, Note_on_c, 0, 25, 93
1, 463266, Poly_aftertouch_c, 0, 27, 0
1, 463299, Note_off_c, 0, 36, 63
1, 463305, Note_on_c, 0, 37, 112
1, 463305, Note_off_c, 0, 24, 65
1, 463315, Note_off_c, 0, 25, 60
1, 463349, Note_off_c, 0, 37, 63
1, 463390, Note_on_c, 0, 36, 107
1, 463392, Note_on_c, 0, 24, 95
1, 463392, Note_on_c, 0, 25, 101
1, 463424, Note_off_c, 0, 36, 67
1, 463438, Note_off_c, 0, 24, 64
1, 463447, Note_off_c, 0, 25, 62
1, 463484, Note_on_c, 0, 37, 104
1, 463519, Note_off_c, 0, 37, 67
1, 463598, Note_on_c, 0, 22, 111
1, 463628, Note_on_c, 0, 23, 50
1, 463653, Control_c, 0, 64, 107
1, 463668, Control_c, 0, 64, 65
1, 463673, Note_off_c, 0, 23, 40
1, 463683, Control_c, 0, 64, 48
1, 463698, Control_c, 0, 64, 61
1, 463709, Note_on_c, 0, 34, 110
1, 463712, Control_c, 0, 64, 85
1, 463727, Control_c, 0, 64, 127
1, 463734, Note_on_c, 0, 32, 60
1, 463735, Note_off_c, 0, 32, 127
1, 463736, Note_off_c, 0, 22, 68
1, 463738, Note_on_c, 0, 23, 47
1, 463761, Note_off_c, 0, 23, 53
1, 463765, Note_off_c, 0, 34, 63
1, 463964, Note_on_c, 0, 41, 99
1, 464062, Note_off_c, 0, 41, 62
1, 464100, Note_on_c, 0, 46, 101
1, 464135, Note_off_c, 0, 46, 67
1, 464162, Note_on_c, 0, 48, 87
1, 464223, Note_on_c, 0, 49, 86
1, 464247, Note_off_c, 0, 48, 60
1, 464261, Note_off_c, 0, 49, 66
1, 464280, Note_on_c, 0, 53, 78
1, 464304, Note_on_c, 0, 50, 18
1, 464324, Note_off_c, 0, 53, 65
1, 464334, Note_on_c, 0, 60, 105
1, 464347, Note_off_c, 0, 50, 37
1, 464436, Note_on_c, 0, 61, 94
1, 464436, Note_off_c, 0, 60, 61
1, 464510, Note_on_c, 0, 65, 94
1, 464599, Note_on_c, 0, 72, 100
1, 464721, Note_on_c, 0, 84, 101
1, 464817, Note_off_c, 0, 84, 61
1, 464829, Note_off_c, 0, 65, 51
1, 464861, Note_off_c, 0, 61, 61
1, 464870, Note_on_c, 0, 53, 78
1, 464912, Note_on_c, 0, 77, 85
1, 464967, Note_off_c, 0, 72, 59
1, 465079, Note_on_c, 0, 73, 85
1, 465090, Note_on_c, 0, 61, 87
1, 465094, Note_on_c, 0, 65, 92
1, 465097, Note_off_c, 0, 53, 61
1, 465130, Note_off_c, 0, 65, 66
1, 465151, Note_off_c, 0, 61, 62
1, 465192, Note_off_c, 0, 73, 62
1, 465225, Note_on_c, 0, 72, 79
1, 465338, Note_on_c, 0, 73, 81
1, 465365, Note_off_c, 0, 72, 59
1, 465454, Note_on_c, 0, 82, 87
1, 465455, Note_off_c, 0, 73, 63
1, 465493, Note_on_c, 0, 58, 107
1, 465495, Note_off_c, 0, 77, 51
1, 465547, Note_off_c, 0, 58, 60
1, 465574, Note_on_c, 0, 73, 76
1, 465639, Note_off_c, 0, 82, 60
1, 465669, Note_on_c, 0, 70, 84
1, 465696, Note_off_c, 0, 73, 59
1, 465743, Note_off_c, 0, 70, 62
1, 465760, Note_on_c, 0, 80, 88
1, 465766, Note_on_c, 0, 56, 102
1, 465812, Note_off_c, 0, 56, 67
1, 465845, Note_on_c, 0, 73, 75
1, 465873, Note_off_c, 0, 80, 61
1, 465896, Note_off_c, 0, 73, 63
1, 465921, Note_on_c, 0, 68, 65
1, 465949, Note_off_c, 0, 68, 67
1, 465981, Note_on_c, 0, 34, 76
1, 465991, Note_on_c, 0, 41, 72
1, 466021, Note_on_c, 0, 68, 78
1, 466025, Note_off_c, 0, 41, 67
1, 466026, Note_off_c, 0, 34, 60
1, 466103, Note_on_c, 0, 61, 77
1, 466107, Note_off_c, 0, 68, 64
1, 466157, Note_off_c, 0, 61, 62
1, 466167, Note_on_c, 0, 44, 81
1, 466170, Note_on_c, 0, 56, 78
1, 466209, Note_on_c, 0, 49, 77
1, 466220, Note_off_c, 0, 56, 64
1, 466238, Note_on_c, 0, 61, 59
1, 466277, Control_c, 0, 64, 111
1, 466292, Control_c, 0, 64, 76
1, 466307, Control_c, 0, 64, 61
1, 466322, Control_c, 0, 64, 56
1, 466333, Note_on_c, 0, 67, 93
1, 466337, Control_c, 0, 64, 63
1, 466340, Note_off_c, 0, 61, 61
1, 466340, Note_on_c, 0, 55, 93
1, 466352, Control_c, 0, 64, 75
1, 466366, Control_c, 0, 64, 96
1, 466381, Control_c, 0, 64, 127
1, 466389, Note_off_c, 0, 67, 62
1, 466425, Note_off_c, 0, 55, 60
1, 466469, Note_off_c, 0, 44, 31
1, 466479, Note_on_c, 0, 61, 55
1, 466522, Note_off_c, 0, 49, 34
1, 466585, Note_on_c, 0, 56, 53
1, 466617, Note_off_c, 0, 61, 45
1, 466624, Note_off_c, 0, 56, 62
1, 466675, Note_on_c, 0, 55, 54
1, 466681, Note_on_c, 0, 44, 54
1, 466760, Note_on_c, 0, 56, 59
1, 466769, Note_off_c, 0, 55, 50
1, 466772, Note_on_c, 0, 49, 61
1, 466858, Note_on_c, 0, 61, 69
1, 466924, Control_c, 0, 64, 97
1, 466936, Note_off_c, 0, 56, 49
1, 466938, Control_c, 0, 64, 71
1, 466948, Note_on_c, 0, 65, 80
1, 466952, Note_off_c, 0, 61, 62
1, 466953, Control_c, 0, 64, 63
1, 466968, Control_c, 0, 64, 64
1, 466969, Note_on_c, 0, 53, 78
1, 466982, Control_c, 0, 64, 73
1, 466997, Control_c, 0, 64, 88
1, 467012, Control_c, 0, 64, 127
1, 467028, Note_off_c, 0, 53, 62
1, 467041, Note_on_c, 0, 61, 69
1, 467046, Note_off_c, 0, 44, 60
1, 467073, Note_off_c, 0, 49, 59
1, 467075, Note_off_c, 0, 65, 60
1, 467142, Note_off_c, 0, 61, 60
1, 467144, Note_on_c, 0, 56, 51
1, 467176, Note_off_c, 0, 56, 65
1, 467254, Note_on_c, 0, 53, 31
1, 467279, Note_off_c, 0, 53, 35
1, 467358, Note_on_c, 0, 49, 53
1, 467461, Note_on_c, 0, 44, 56
1, 467464, Note_off_c, 0, 49, 59
1, 467647, Note_off_c, 0, 44, 58
1, 467649, Note_on_c, 0, 60, 67
1, 467654, Note_on_c, 0, 48, 64
1, 467678, Note_off_c, 0, 60, 67
1, 467802, Note_on_c, 0, 44, 46
1, 467917, Note_on_c, 0, 41, 57
1, 468009, Note_off_c, 0, 41, 61
1, 468039, Note_on_c, 0, 36, 50
1, 468056, Note_off_c, 0, 44, 20
1, 468081, Note_off_c, 0, 48, 34
1, 468113, Note_off_c, 0, 36, 49
1, 468175, Note_on_c, 0, 32, 49
1, 468282, Note_off_c, 0, 32, 58
1, 468319, Note_on_c, 0, 29, 54
1, 468377, Note_off_c, 0, 29, 58
1, 468642, Control_c, 0, 64, 94
1, 468657, Control_c, 0, 64, 68
1, 468671, Control_c, 0, 64, 38
1, 468686, Control_c, 0, 64, 0
1, 468695, Note_on_c, 0, 31, 59
1, 468704, Note_on_c, 0, 21, 59
1, 468731, Control_c, 0, 64, 12
1, 468745, Control_c, 0, 64, 43
1, 468760, Control_c, 0, 64, 60
1, 468775, Control_c, 0, 64, 67
1, 468790, Control_c, 0, 64, 71
1, 468797, Note_off_c, 0, 31, 62
1, 468805, Control_c, 0, 64, 78
1, 468820, Control_c, 0, 64, 85
1, 468835, Control_c, 0, 64, 92
1, 468850, Control_c, 0, 64, 98
1, 468865, Control_c, 0, 64, 107
1, 468879, Control_c, 0, 64, 124
1, 468894, Control_c, 0, 64, 127
1, 469199, Control_c, 0, 64, 113
1, 469213, Control_c, 0, 64, 92
1, 469228, Control_c, 0, 64, 77
1, 469243, Control_c, 0, 64, 64
1, 469258, Control_c, 0, 64, 51
1, 469270, Note_on_c, 0, 22, 42
1, 469271, Note_on_c, 0, 32, 43
1, 469273, Control_c, 0, 64, 37
1, 469288, Control_c, 0, 64, 20
1, 469291, Note_off_c, 0, 21, 49
1, 469302, Control_c, 0, 64, 0
1, 469347, Control_c, 0, 64, 28
1, 469362, Control_c, 0, 64, 50
1, 469376, Control_c, 0, 64, 64
1, 469378, Note_off_c, 0, 22, 58
1, 469391, Control_c, 0, 64, 69
1, 469406, Control_c, 0, 64, 73
1, 469421, Control_c, 0, 64, 76
1, 469436, Control_c, 0, 64, 79
1, 469450, Control_c, 0, 64, 84
1, 469450, Control_c, 0, 67, 8
1, 469465, Control_c, 0, 64, 88
1, 469465, Control_c, 0, 67, 11
1, 469480, Control_c, 0, 64, 91
1, 469480, Control_c, 0, 67, 14
1, 469495, Control_c, 0, 64, 93
1, 469495, Control_c, 0, 67, 18
1, 469509, Control_c, 0, 64, 94
1, 469509, Control_c, 0, 67, 21
1, 469524, Control_c, 0, 64, 94
1, 469524, Control_c, 0, 67, 23
1, 469539, Control_c, 0, 67, 25
1, 469554, Control_c, 0, 67, 28
1, 469568, Control_c, 0, 67, 31
1, 469583, Control_c, 0, 67, 34
1, 469598, Control_c, 0, 67, 38
1, 469613, Control_c, 0, 67, 43
1, 469628, Control_c, 0, 67, 48
1, 469643, Control_c, 0, 67, 54
1, 469658, Control_c, 0, 67, 60
1, 469673, Control_c, 0, 67, 65
1, 469687, Control_c, 0, 67, 70
1, 469702, Control_c, 0, 67, 75
1, 469717, Control_c, 0, 67, 79
1, 469732, Control_c, 0, 67, 85
1, 469747, Control_c, 0, 67, 92
1, 469762, Control_c, 0, 67, 98
1, 469776, Control_c, 0, 67, 102
1, 469792, Control_c, 0, 67, 107
1, 469807, Control_c, 0, 67, 112
1, 469829, Control_c, 0, 67, 116
1, 469844, Control_c, 0, 67, 121
1, 469859, Control_c, 0, 67, 126
1, 469874, Control_c, 0, 67, 127
1, 469947, Control_c, 0, 64, 94
1, 469977, Control_c, 0, 64, 93
1, 469992, Control_c, 0, 64, 92
1, 470006, Control_c, 0, 64, 92
1, 470021, Control_c, 0, 64, 91
1, 470036, Control_c, 0, 64, 89
1, 470051, Control_c, 0, 64, 87
1, 470066, Control_c, 0, 64, 84
1, 470081, Control_c, 0, 64, 80
1, 470096, Control_c, 0, 64, 76
1, 470111, Control_c, 0, 64, 72
1, 470125, Control_c, 0, 64, 68
1, 470140, Control_c, 0, 64, 63
1, 470155, Control_c, 0, 64, 58
1, 470170, Control_c, 0, 64, 53
1, 470172, Note_on_c, 0, 27, 22
1, 470172, Note_on_c, 0, 39, 33
1, 470178, Note_off_c, 0, 32, 32
1, 470185, Control_c, 0, 64, 48
1, 470199, Control_c, 0, 64, 39
1, 470214, Control_c, 0, 64, 28
1, 470229, Control_c, 0, 64, 0
1, 470560, Note_off_c, 0, 27, 60
1, 470561, Note_off_c, 0, 39, 62
1, 471594, Control_c, 0, 64, 11
1, 471609, Control_c, 0, 64, 12
1, 471624, Control_c, 0, 64, 10
1, 471639, Control_c, 0, 64, 0
1, 471771, Control_c, 0, 64, 19
1, 471786, Control_c, 0, 64, 38
1, 471801, Control_c, 0, 64, 50
1, 471816, Control_c, 0, 64, 55
1, 471831, Control_c, 0, 64, 57
1, 471846, Control_c, 0, 64, 58
1, 471861, Control_c, 0, 64, 60
1, 471875, Control_c, 0, 64, 62
1, 471890, Control_c, 0, 64, 63
1, 471905, Control_c, 0, 64, 65
1, 471920, Control_c, 0, 64, 66
1, 471935, Control_c, 0, 64, 68
1, 471950, Control_c, 0, 64, 70
1, 471965, Control_c, 0, 64, 73
1, 471977, Note_on_c, 0, 56, 73
1, 471979, Control_c, 0, 64, 77
1, 471985, Note_on_c, 0, 59, 67
1, 471985, Note_on_c, 0, 64, 69
1, 471986, Note_on_c, 0, 50, 66
1, 471994, Control_c, 0, 64, 82
1, 471995, Note_on_c, 0, 51, 52
1, 472003, Note_off_c, 0, 59, 64
1, 472007, Note_off_c, 0, 64, 66
1, 472009, Control_c, 0, 64, 89
1, 472011, Note_off_c, 0, 56, 64
1, 472019, Note_off_c, 0, 51, 51
1, 472020, Note_off_c, 0, 50, 61
1, 472023, Control_c, 0, 64, 99
1, 472038, Control_c, 0, 64, 110
1, 472053, Control_c, 0, 64, 127
1, 472293, Poly_aftertouch_c, 0, 50, 127
1, 472329, Note_on_c, 0, 64, 28
1, 472332, Poly_aftertouch_c, 0, 56, 127
1, 472359, Note_on_c, 0, 52, 7
1, 472366, Poly_aftertouch_c, 0, 51, 0
1, 472392, Note_on_c, 0, 51, 13
1, 472396, Note_on_c, 0, 59, 3
1, 472434, Note_off_c, 0, 51, 63
1, 472488, Note_on_c, 0, 51, 55
1, 472519, Note_off_c, 0, 51, 65
1, 472550, Control_c, 0, 64, 110
1, 472565, Control_c, 0, 64, 100
1, 472568, Note_on_c, 0, 51, 67
1, 472580, Control_c, 0, 64, 92
1, 472593, Note_off_c, 0, 51, 66
1, 472594, Control_c, 0, 64, 85
1, 472609, Control_c, 0, 64, 79
1, 472624, Control_c, 0, 64, 72
1, 472639, Control_c, 0, 64, 63
1, 472647, Note_on_c, 0, 51, 68
1, 472653, Control_c, 0, 64, 56
1, 472668, Note_off_c, 0, 51, 64
1, 472668, Control_c, 0, 64, 50
1, 472683, Control_c, 0, 64, 48
1, 472698, Control_c, 0, 64, 48
1, 472710, Note_on_c, 0, 51, 58
1, 472735, Note_off_c, 0, 51, 61
1, 472743, Control_c, 0, 64, 47
1, 472757, Control_c, 0, 64, 47
1, 472770, Note_on_c, 0, 51, 66
1, 472799, Note_off_c, 0, 51, 65
1, 472850, Note_on_c, 0, 51, 75
1, 472873, Note_off_c, 0, 51, 68
1, 472916, Note_on_c, 0, 51, 85
1, 472937, Note_off_c, 0, 51, 69
1, 472984, Note_on_c, 0, 51, 83
1, 473007, Note_off_c, 0, 51, 68
1, 473050, Note_on_c, 0, 51, 89
1, 473076, Note_off_c, 0, 51, 70
1, 473120, Note_on_c, 0, 51, 79
1, 473144, Note_off_c, 0, 51, 69
1, 473190, Note_on_c, 0, 51, 79
1, 473220, Note_off_c, 0, 51, 69
1, 473253, Poly_aftertouch_c, 0, 51, 0
1, 473259, Note_on_c, 0, 51, 75
1, 473287, Note_off_c, 0, 51, 68
1, 473323, Note_on_c, 0, 51, 74
1, 473349, Note_off_c, 0, 51, 69
1, 473388, Note_on_c, 0, 51, 66
1, 473418, Note_off_c, 0, 51, 67
1, 473462, Note_on_c, 0, 51, 66
1, 473492, Note_off_c, 0, 51, 66
1, 473533, Note_on_c, 0, 51, 74
1, 473557, Note_off_c, 0, 51, 67
1, 473610, Note_on_c, 0, 51, 79
1, 473633, Note_off_c, 0, 51, 68
1, 473678, Note_on_c, 0, 51, 76
1, 473703, Note_off_c, 0, 51, 67
1, 473755, Note_on_c, 0, 51, 73
1, 473781, Note_off_c, 0, 51, 68
1, 473819, Note_on_c, 0, 51, 69
1, 473844, Note_off_c, 0, 51, 67
1, 473896, Note_on_c, 0, 51, 70
1, 473926, Note_off_c, 0, 51, 64
1, 473973, Poly_aftertouch_c, 0, 51, 0
1, 474018, Control_c, 0, 64, 47
1, 474025, Note_on_c, 0, 51, 66
1, 474052, Note_off_c, 0, 51, 66
1, 474106, Note_on_c, 0, 51, 62
1, 474137, Note_off_c, 0, 51, 64
1, 474152, Control_c, 0, 64, 48
1, 474172, Note_on_c, 0, 51, 48
1, 474210, Control_c, 0, 64, 48
1, 474220, Note_off_c, 0, 51, 0
1, 474232, Note_on_c, 0, 51, 50
1, 474269, Note_off_c, 0, 51, 63
1, 474270, Control_c, 0, 64, 49
1, 474284, Control_c, 0, 64, 49
1, 474299, Control_c, 0, 64, 50
1, 474303, Note_on_c, 0, 51, 50
1, 474322, Control_c, 0, 64, 52
1, 474337, Control_c, 0, 64, 54
1, 474338, Note_off_c, 0, 51, 65
1, 474352, Control_c, 0, 64, 57
1, 474366, Control_c, 0, 64, 61
1, 474381, Control_c, 0, 64, 64
1, 474388, Note_on_c, 0, 51, 65
1, 474396, Control_c, 0, 64, 67
1, 474400, Note_off_c, 0, 64, 55
1, 474411, Control_c, 0, 64, 70
1, 474412, Note_off_c, 0, 59, 55
1, 474412, Note_off_c, 0, 51, 66
1, 474425, Control_c, 0, 64, 74
1, 474440, Control_c, 0, 64, 77
1, 474444, Note_off_c, 0, 52, 29
1, 474455, Control_c, 0, 64, 79
1, 474456, Poly_aftertouch_c, 0, 56, 0
1, 474462, Poly_aftertouch_c, 0, 50, 0
1, 474469, Note_on_c, 0, 51, 62
1, 474470, Control_c, 0, 64, 82
1, 474485, Control_c, 0, 64, 83
1, 474496, Note_off_c, 0, 51, 60
1, 474499, Control_c, 0, 64, 85
1, 474514, Control_c, 0, 64, 87
1, 474529, Control_c, 0, 64, 88
1, 474541, Note_on_c, 0, 51, 50
1, 474543, Control_c, 0, 64, 88
1, 474573, Note_off_c, 0, 51, 65
1, 474618, Note_on_c, 0, 51, 58
1, 474647, Note_off_c, 0, 51, 65
1, 474708, Control_c, 0, 64, 88
1, 474710, Note_on_c, 0, 51, 59
1, 474719, Note_on_c, 0, 52, 41
1, 474720, Note_on_c, 0, 56, 38
1, 474722, Note_on_c, 0, 59, 65
1, 474722, Control_c, 0, 64, 85
1, 474725, Note_on_c, 0, 50, 42
1, 474737, Control_c, 0, 64, 80
1, 474742, Note_off_c, 0, 51, 64
1, 474752, Control_c, 0, 64, 74
1, 474767, Control_c, 0, 64, 65
1, 474782, Control_c, 0, 64, 56
1, 474783, Note_on_c, 0, 51, 52
1, 474797, Control_c, 0, 64, 48
1, 474812, Control_c, 0, 64, 45
1, 474812, Note_off_c, 0, 51, 65
1, 474827, Control_c, 0, 64, 44
1, 474867, Note_on_c, 0, 51, 55
1, 474888, Note_off_c, 0, 51, 57
1, 474930, Note_on_c, 0, 51, 59
1, 474960, Note_off_c, 0, 51, 65
1, 475003, Note_on_c, 0, 51, 58
1, 475004, Control_c, 0, 64, 45
1, 475031, Note_off_c, 0, 51, 65
1, 475087, Note_on_c, 0, 51, 54
1, 475112, Note_off_c, 0, 51, 61
1, 475147, Note_on_c, 0, 51, 54
1, 475182, Note_off_c, 0, 51, 63
1, 475226, Note_on_c, 0, 51, 57
1, 475251, Note_off_c, 0, 51, 66
1, 475293, Control_c, 0, 64, 44
1, 475304, Note_on_c, 0, 51, 59
1, 475333, Note_off_c, 0, 51, 64
1, 475371, Note_on_c, 0, 51, 58
1, 475405, Note_off_c, 0, 51, 64
1, 475453, Note_on_c, 0, 51, 61
1, 475475, Note_off_c, 0, 51, 62
1, 475526, Note_on_c, 0, 51, 64
1, 475552, Note_off_c, 0, 51, 66
1, 475601, Note_on_c, 0, 51, 64
1, 475629, Note_off_c, 0, 51, 65
1, 475679, Note_on_c, 0, 51, 65
1, 475702, Note_off_c, 0, 51, 67
1, 475758, Note_on_c, 0, 51, 62
1, 475768, Control_c, 0, 64, 45
1, 475788, Note_off_c, 0, 51, 63
1, 475846, Poly_aftertouch_c, 0, 51, 127
1, 475867, Poly_aftertouch_c, 0, 51, 0
1, 475915, Note_on_c, 0, 51, 63
1, 475941, Note_off_c, 0, 51, 66
1, 475995, Note_on_c, 0, 51, 66
1, 476021, Note_off_c, 0, 51, 66
1, 476078, Note_on_c, 0, 51, 64
1, 476105, Note_off_c, 0, 51, 66
1, 476161, Note_on_c, 0, 51, 62
1, 476192, Note_off_c, 0, 51, 65
1, 476204, Note_off_c, 0, 56, 35
1, 476246, Note_on_c, 0, 51, 62
1, 476276, Note_off_c, 0, 51, 65
1, 476279, Note_off_c, 0, 59, 55
1, 476332, Note_on_c, 0, 51, 59
1, 476347, Note_off_c, 0, 52, 34
1, 476367, Note_off_c, 0, 51, 62
1, 476371, Note_off_c, 0, 50, 35
1, 476422, Note_on_c, 0, 51, 57
1, 476451, Note_off_c, 0, 51, 62
1, 476533, Note_on_c, 0, 51, 54
1, 476564, Note_off_c, 0, 51, 55
1, 476663, Note_on_c, 0, 51, 12
1, 476707, Note_off_c, 0, 51, 30
1, 477643, Control_c, 0, 64, 45
1, 477866, Control_c, 0, 64, 46
1, 477955, Control_c, 0, 64, 46
1, 478510, Control_c, 0, 64, 47
1, 478585, Control_c, 0, 64, 47
1, 478630, Control_c, 0, 64, 48
1, 478637, Note_on_c, 0, 21, 35
1, 478642, Note_on_c, 0, 31, 36
1, 478660, Control_c, 0, 64, 48
1, 478675, Control_c, 0, 64, 49
1, 478689, Control_c, 0, 64, 50
1, 478704, Control_c, 0, 64, 53
1, 478719, Control_c, 0, 64, 58
1, 478733, Control_c, 0, 64, 64
1, 478746, Control_c, 0, 64, 70
1, 478761, Control_c, 0, 64, 78
1, 478776, Control_c, 0, 64, 87
1, 478791, Control_c, 0, 64, 94
1, 478813, Control_c, 0, 64, 101
1, 478828, Control_c, 0, 64, 108
1, 478843, Control_c, 0, 64, 121
1, 478858, Control_c, 0, 64, 127
1, 478861, Note_off_c, 0, 31, 39
1, 479125, Control_c, 0, 64, 118
1, 479139, Control_c, 0, 64, 95
1, 479154, Control_c, 0, 64, 78
1, 479167, Note_off_c, 0, 21, 33
1, 479169, Control_c, 0, 64, 67
1, 479180, Note_on_c, 0, 32, 38
1, 479182, Note_on_c, 0, 22, 39
1, 479184, Control_c, 0, 64, 58
1, 479199, Control_c, 0, 64, 53
1, 479213, Control_c, 0, 64, 54
1, 479228, Control_c, 0, 64, 60
1, 479243, Control_c, 0, 64, 65
1, 479257, Control_c, 0, 64, 69
1, 479272, Note_off_c, 0, 22, 60
1, 479272, Control_c, 0, 64, 73
1, 479287, Control_c, 0, 64, 78
1, 479302, Control_c, 0, 64, 82
1, 479317, Control_c, 0, 64, 87
1, 479331, Control_c, 0, 64, 92
1, 479346, Control_c, 0, 64, 98
1, 479361, Control_c, 0, 64, 104
1, 479376, Control_c, 0, 64, 110
1, 479392, Control_c, 0, 64, 118
1, 479407, Control_c, 0, 64, 127
1, 479948, Control_c, 0, 64, 114
1, 479962, Control_c, 0, 64, 100
1, 479972, Note_on_c, 0, 39, 30
1, 479977, Control_c, 0, 64, 90
1, 479990, Note_on_c, 0, 27, 16
1, 479992, Control_c, 0, 64, 79
1, 480001, Note_off_c, 0, 32, 49
1, 480007, Control_c, 0, 64, 69
1, 480022, Control_c, 0, 64, 61
1, 480036, Control_c, 0, 64, 52
1, 480051, Control_c, 0, 64, 47
1, 480066, Control_c, 0, 64, 46
1, 480246, Control_c, 0, 64, 46
1, 480357, Note_off_c, 0, 39, 56
1, 480359, Note_off_c, 0, 27, 51
1, 481490, Control_c, 0, 64, 47
1, 481505, Control_c, 0, 64, 47
1, 481534, Control_c, 0, 64, 48
1, 481549, Control_c, 0, 64, 48
1, 481564, Control_c, 0, 64, 49
1, 481594, Control_c, 0, 64, 49
1, 481608, Control_c, 0, 64, 50
1, 481623, Control_c, 0, 64, 50
1, 481638, Control_c, 0, 64, 51
1, 481668, Control_c, 0, 64, 51
1, 481698, Control_c, 0, 64, 52
1, 481712, Control_c, 0, 64, 52
1, 481727, Control_c, 0, 64, 53
1, 481742, Control_c, 0, 64, 53
1, 481757, Control_c, 0, 64, 54
1, 481772, Control_c, 0, 64, 55
1, 481787, Control_c, 0, 64, 55
1, 481810, Control_c, 0, 64, 56
1, 481825, Control_c, 0, 64, 57
1, 481839, Control_c, 0, 64, 57
1, 481854, Control_c, 0, 64, 58
1, 481869, Control_c, 0, 64, 58
1, 481883, Control_c, 0, 64, 59
1, 481898, Control_c, 0, 64, 61
1, 481913, Control_c, 0, 64, 62
1, 481928, Control_c, 0, 64, 63
1, 481943, Control_c, 0, 64, 64
1, 481957, Control_c, 0, 64, 65
1, 481972, Control_c, 0, 64, 66
1, 481987, Control_c, 0, 64, 68
1, 482002, Control_c, 0, 64, 70
1, 482017, Control_c, 0, 64, 73
1, 482031, Control_c, 0, 64, 75
1, 482046, Control_c, 0, 64, 77
1, 482061, Control_c, 0, 64, 79
1, 482076, Control_c, 0, 64, 80
1, 482091, Control_c, 0, 64, 82
1, 482106, Control_c, 0, 64, 84
1, 482121, Control_c, 0, 64, 86
1, 482136, Control_c, 0, 64, 88
1, 482151, Control_c, 0, 64, 90
1, 482165, Control_c, 0, 64, 92
1, 482180, Control_c, 0, 64, 94
1, 482195, Control_c, 0, 64, 97
1, 482210, Control_c, 0, 64, 101
1, 482210, Note_on_c, 0, 52, 73
1, 482212, Note_on_c, 0, 44, 61
1, 482213, Note_on_c, 0, 38, 62
1, 482223, Note_on_c, 0, 51, 62
1, 482224, Note_on_c, 0, 47, 57
1, 482225, Control_c, 0, 64, 105
1, 482236, Note_off_c, 0, 52, 65
1, 482239, Control_c, 0, 64, 111
1, 482241, Note_off_c, 0, 44, 65
1, 482246, Note_on_c, 0, 40, 25
1, 482246, Note_off_c, 0, 47, 54
1, 482249, Note_off_c, 0, 51, 64
1, 482250, Note_off_c, 0, 38, 63
1, 482254, Control_c, 0, 64, 117
1, 482269, Control_c, 0, 64, 127
1, 482285, Note_off_c, 0, 40, 31
1, 482496, Note_on_c, 0, 51, 21
1, 482524, Note_off_c, 0, 51, 45
1, 482607, Poly_aftertouch_c, 0, 38, 127
1, 482651, Poly_aftertouch_c, 0, 44, 127
1, 482669, Poly_aftertouch_c, 0, 52, 127
1, 482683, Poly_aftertouch_c, 0, 51, 127
1, 482697, Poly_aftertouch_c, 0, 47, 127
1, 482727, Poly_aftertouch_c, 0, 51, 0
1, 482774, Note_on_c, 0, 51, 48
1, 482809, Note_off_c, 0, 51, 63
1, 482869, Control_c, 0, 64, 124
1, 482872, Note_on_c, 0, 51, 45
1, 482884, Control_c, 0, 64, 118
1, 482894, Note_off_c, 0, 51, 61
1, 482899, Control_c, 0, 64, 114
1, 482914, Control_c, 0, 64, 110
1, 482929, Control_c, 0, 64, 106
1, 482944, Control_c, 0, 64, 103
1, 482954, Note_on_c, 0, 51, 56
1, 482958, Control_c, 0, 64, 100
1, 482973, Control_c, 0, 64, 97
1, 482979, Note_off_c, 0, 51, 58
1, 482988, Control_c, 0, 64, 94
1, 483003, Control_c, 0, 64, 91
1, 483018, Control_c, 0, 64, 87
1, 483019, Note_on_c, 0, 51, 55
1, 483032, Control_c, 0, 64, 85
1, 483045, Note_off_c, 0, 51, 67
1, 483047, Control_c, 0, 64, 82
1, 483062, Control_c, 0, 64, 80
1, 483077, Control_c, 0, 64, 77
1, 483092, Control_c, 0, 64, 74
1, 483102, Note_on_c, 0, 51, 73
1, 483106, Control_c, 0, 64, 72
1, 483121, Control_c, 0, 64, 68
1, 483128, Note_off_c, 0, 51, 66
1, 483136, Control_c, 0, 64, 66
1, 483151, Control_c, 0, 64, 63
1, 483166, Control_c, 0, 64, 61
1, 483175, Note_on_c, 0, 51, 71
1, 483180, Control_c, 0, 64, 60
1, 483198, Note_off_c, 0, 51, 68
1, 483224, Control_c, 0, 64, 60
1, 483244, Note_on_c, 0, 51, 77
1, 483270, Note_off_c, 0, 51, 67
1, 483321, Control_c, 0, 64, 59
1, 483323, Note_on_c, 0, 51, 76
1, 483347, Note_off_c, 0, 51, 68
1, 483394, Note_on_c, 0, 51, 85
1, 483415, Note_off_c, 0, 51, 70
1, 483464, Note_on_c, 0, 51, 79
1, 483486, Note_off_c, 0, 51, 68
1, 483537, Note_on_c, 0, 51, 82
1, 483564, Note_off_c, 0, 51, 65
1, 483608, Note_on_c, 0, 51, 80
1, 483630, Note_off_c, 0, 51, 69
1, 483633, Control_c, 0, 64, 59
1, 483677, Note_on_c, 0, 51, 85
1, 483697, Note_off_c, 0, 51, 70
1, 483742, Note_on_c, 0, 51, 84
1, 483778, Note_off_c, 0, 51, 67
1, 483808, Poly_aftertouch_c, 0, 51, 0
1, 483811, Control_c, 0, 64, 58
1, 483814, Note_on_c, 0, 51, 66
1, 483847, Note_off_c, 0, 51, 66
1, 483886, Note_on_c, 0, 51, 65
1, 483922, Note_off_c, 0, 51, 67
1, 483957, Note_on_c, 0, 51, 65
1, 483994, Note_off_c, 0, 51, 64
1, 484018, Control_c, 0, 64, 58
1, 484028, Note_on_c, 0, 51, 68
1, 484066, Note_off_c, 0, 51, 64
1, 484109, Note_on_c, 0, 51, 68
1, 484133, Note_off_c, 0, 51, 66
1, 484181, Note_on_c, 0, 51, 75
1, 484210, Note_off_c, 0, 51, 66
1, 484256, Note_on_c, 0, 51, 74
1, 484278, Note_off_c, 0, 51, 64
1, 484293, Control_c, 0, 64, 58
1, 484335, Note_on_c, 0, 51, 63
1, 484351, Note_off_c, 0, 51, 62
1, 484352, Control_c, 0, 64, 59
1, 484401, Note_on_c, 0, 51, 63
1, 484422, Note_off_c, 0, 51, 58
1, 484456, Control_c, 0, 64, 59
1, 484465, Note_on_c, 0, 51, 62
1, 484491, Note_off_c, 0, 51, 66
1, 484530, Control_c, 0, 64, 60
1, 484541, Note_on_c, 0, 51, 68
1, 484545, Control_c, 0, 64, 60
1, 484559, Control_c, 0, 64, 61
1, 484568, Note_off_c, 0, 51, 66
1, 484574, Control_c, 0, 64, 62
1, 484589, Control_c, 0, 64, 63
1, 484604, Control_c, 0, 64, 64
1, 484617, Note_on_c, 0, 51, 58
1, 484619, Control_c, 0, 64, 65
1, 484634, Control_c, 0, 64, 65
1, 484649, Control_c, 0, 64, 66
1, 484664, Control_c, 0, 64, 67
1, 484667, Note_off_c, 0, 51, 0
1, 484678, Control_c, 0, 64, 69
1, 484680, Note_on_c, 0, 51, 43
1, 484693, Control_c, 0, 64, 70
1, 484708, Control_c, 0, 64, 72
1, 484714, Note_off_c, 0, 51, 64
1, 484723, Control_c, 0, 64, 73
1, 484738, Control_c, 0, 64, 74
1, 484752, Control_c, 0, 64, 75
1, 484753, Note_on_c, 0, 51, 60
1, 484767, Control_c, 0, 64, 76
1, 484780, Note_off_c, 0, 51, 67
1, 484782, Control_c, 0, 64, 76
1, 484819, Control_c, 0, 64, 77
1, 484843, Note_on_c, 0, 51, 62
1, 484848, Control_c, 0, 64, 76
1, 484863, Control_c, 0, 64, 76
1, 484874, Note_off_c, 0, 51, 64
1, 484878, Control_c, 0, 64, 74
1, 484893, Control_c, 0, 64, 73
1, 484917, Note_on_c, 0, 51, 58
1, 484938, Control_c, 0, 64, 74
1, 484945, Note_off_c, 0, 51, 66
1, 484948, Poly_aftertouch_c, 0, 52, 0
1, 484952, Control_c, 0, 64, 76
1, 484967, Control_c, 0, 64, 77
1, 484981, Poly_aftertouch_c, 0, 47, 0
1, 484982, Control_c, 0, 64, 79
1, 484997, Control_c, 0, 64, 81
1, 485006, Note_on_c, 0, 51, 61
1, 485012, Control_c, 0, 64, 83
1, 485024, Poly_aftertouch_c, 0, 44, 0
1, 485026, Note_off_c, 0, 51, 65
1, 485027, Control_c, 0, 64, 85
1, 485042, Control_c, 0, 64, 86
1, 485054, Poly_aftertouch_c, 0, 38, 0
1, 485057, Control_c, 0, 64, 86
1, 485104, Note_on_c, 0, 51, 46
1, 485116, Control_c, 0, 64, 87
1, 485125, Note_off_c, 0, 51, 0
1, 485151, Poly_aftertouch_c, 0, 51, 0
1, 485165, Note_on_c, 0, 51, 35
1, 485199, Note_off_c, 0, 51, 61
1, 485229, Note_on_c, 0, 38, 40
1, 485236, Note_on_c, 0, 47, 52
1, 485240, Note_on_c, 0, 40, 27
1, 485246, Poly_aftertouch_c, 0, 44, 127
1, 485256, Note_on_c, 0, 51, 43
1, 485279, Control_c, 0, 64, 86
1, 485287, Note_off_c, 0, 51, 57
1, 485294, Control_c, 0, 64, 85
1, 485308, Control_c, 0, 64, 82
1, 485323, Control_c, 0, 64, 77
1, 485338, Control_c, 0, 64, 72
1, 485346, Note_on_c, 0, 51, 45
1, 485353, Control_c, 0, 64, 65
1, 485368, Control_c, 0, 64, 61
1, 485372, Note_off_c, 0, 51, 0
1, 485382, Control_c, 0, 64, 58
1, 485385, Poly_aftertouch_c, 0, 51, 0
1, 485397, Control_c, 0, 64, 58
1, 485401, Note_on_c, 0, 51, 34
1, 485412, Control_c, 0, 64, 58
1, 485442, Note_off_c, 0, 51, 64
1, 485442, Control_c, 0, 64, 59
1, 485478, Note_on_c, 0, 51, 47
1, 485509, Note_off_c, 0, 51, 65
1, 485570, Note_on_c, 0, 51, 52
1, 485598, Note_off_c, 0, 51, 66
1, 485642, Note_on_c, 0, 51, 55
1, 485679, Note_off_c, 0, 51, 63
1, 485712, Note_on_c, 0, 51, 60
1, 485745, Note_off_c, 0, 51, 64
1, 485799, Note_on_c, 0, 51, 57
1, 485829, Note_off_c, 0, 51, 64
1, 485873, Note_on_c, 0, 51, 58
1, 485907, Note_off_c, 0, 51, 65
1, 485957, Note_on_c, 0, 51, 59
1, 485988, Note_off_c, 0, 51, 66
1, 486042, Note_on_c, 0, 51, 60
1, 486071, Note_off_c, 0, 51, 65
1, 486133, Note_on_c, 0, 51, 64
1, 486166, Note_off_c, 0, 51, 65
1, 486211, Note_on_c, 0, 51, 59
1, 486242, Note_off_c, 0, 51, 67
1, 486312, Note_on_c, 0, 51, 57
1, 486345, Note_off_c, 0, 51, 64
1, 486404, Note_on_c, 0, 51, 58
1, 486428, Note_off_c, 0, 51, 61
1, 486501, Note_on_c, 0, 51, 61
1, 486524, Note_off_c, 0, 51, 62
1, 486598, Note_on_c, 0, 51, 62
1, 486628, Note_off_c, 0, 51, 64
1, 486708, Note_on_c, 0, 51, 50
1, 486734, Note_off_c, 0, 51, 51
1, 486817, Note_on_c, 0, 51, 44
1, 486847, Note_off_c, 0, 51, 35
1, 486932, Note_on_c, 0, 51, 53
1, 486961, Note_off_c, 0, 51, 55
1, 487090, Note_on_c, 0, 51, 48
1, 487129, Note_off_c, 0, 51, 61
1, 487314, Note_on_c, 0, 51, 42
1, 487341, Note_off_c, 0, 51, 47
1, 487346, Control_c, 0, 64, 58
1, 487495, Control_c, 0, 64, 59
1, 487712, Note_on_c, 0, 51, 29
1, 487718, Control_c, 0, 64, 58
1, 487747, Control_c, 0, 64, 57
1, 487759, Note_off_c, 0, 51, 61
1, 487762, Control_c, 0, 64, 56
1, 487777, Control_c, 0, 64, 56
1, 487780, Note_off_c, 0, 40, 62
1, 487796, Note_off_c, 0, 47, 60
1, 487800, Poly_aftertouch_c, 0, 44, 0
1, 487803, Note_off_c, 0, 38, 61
1, 487814, Control_c, 0, 64, 56
1, 488110, Control_c, 0, 64, 57
1, 488592, Control_c, 0, 64, 57
1, 488859, Control_c, 0, 64, 58
1, 489053, Control_c, 0, 64, 58
1, 489260, Control_c, 0, 64, 59
1, 489505, Control_c, 0, 64, 59
1, 489579, Control_c, 0, 64, 60
1, 489623, Control_c, 0, 64, 60
1, 489653, Control_c, 0, 64, 61
1, 489682, Control_c, 0, 64, 61
1, 489712, Control_c, 0, 64, 62
1, 489726, Control_c, 0, 64, 62
1, 489741, Control_c, 0, 64, 63
1, 489756, Control_c, 0, 64, 63
1, 489787, Control_c, 0, 64, 64
1, 489802, Control_c, 0, 64, 64
1, 489816, Control_c, 0, 64, 65
1, 489831, Control_c, 0, 64, 65
1, 489846, Control_c, 0, 64, 66
1, 489861, Control_c, 0, 64, 66
1, 489876, Control_c, 0, 64, 67
1, 489890, Control_c, 0, 64, 68
1, 489905, Control_c, 0, 64, 69
1, 489920, Control_c, 0, 64, 70
1, 489935, Control_c, 0, 64, 71
1, 489949, Control_c, 0, 64, 73
1, 489964, Control_c, 0, 64, 74
1, 489980, Control_c, 0, 64, 75
1, 489995, Control_c, 0, 64, 76
1, 490010, Control_c, 0, 64, 78
1, 490024, Control_c, 0, 64, 79
1, 490047, Control_c, 0, 64, 81
1, 490062, Control_c, 0, 64, 82
1, 490077, Control_c, 0, 64, 83
1, 490091, Control_c, 0, 64, 85
1, 490106, Control_c, 0, 64, 86
1, 490121, Control_c, 0, 64, 88
1, 490136, Control_c, 0, 64, 90
1, 490150, Control_c, 0, 64, 92
1, 490165, Control_c, 0, 64, 94
1, 490180, Control_c, 0, 64, 95
1, 490195, Control_c, 0, 64, 97
1, 490210, Control_c, 0, 64, 98
1, 490224, Control_c, 0, 64, 100
1, 490239, Control_c, 0, 64, 103
1, 490254, Control_c, 0, 64, 105
1, 490268, Control_c, 0, 64, 108
1, 490283, Control_c, 0, 64, 111
1, 490298, Control_c, 0, 64, 117
1, 490313, Control_c, 0, 64, 127
1, 490451, Note_on_c, 0, 21, 29
1, 490468, Note_on_c, 0, 31, 28
1, 490625, Note_off_c, 0, 31, 49
1, 491685, Note_on_c, 0, 22, 33
1, 491697, Note_on_c, 0, 32, 30
1, 491721, Control_c, 0, 64, 99
1, 491736, Control_c, 0, 64, 82
1, 491746, Note_off_c, 0, 21, 11
1, 491751, Control_c, 0, 64, 70
1, 491766, Control_c, 0, 64, 61
1, 491781, Control_c, 0, 64, 53
1, 491810, Control_c, 0, 64, 56
1, 491825, Control_c, 0, 64, 61
1, 491840, Control_c, 0, 64, 65
1, 491855, Control_c, 0, 64, 69
1, 491869, Control_c, 0, 64, 75
1, 491884, Control_c, 0, 64, 82
1, 491899, Control_c, 0, 64, 88
1, 491913, Control_c, 0, 64, 94
1, 491919, Note_off_c, 0, 22, 39
1, 491928, Control_c, 0, 64, 100
1, 491943, Control_c, 0, 64, 107
1, 491958, Control_c, 0, 64, 118
1, 491973, Control_c, 0, 64, 127
1, 493543, Note_on_c, 0, 27, 23
1, 493545, Control_c, 0, 64, 112
1, 493547, Note_on_c, 0, 39, 27
1, 493559, Control_c, 0, 64, 102
1, 493574, Control_c, 0, 64, 93
1, 493589, Control_c, 0, 64, 84
1, 493604, Control_c, 0, 64, 75
1, 493618, Control_c, 0, 64, 67
1, 493621, Note_off_c, 0, 32, 40
1, 493633, Control_c, 0, 64, 60
1, 493648, Control_c, 0, 64, 54
1, 493663, Control_c, 0, 64, 51
1, 493982, Control_c, 0, 64, 52
1, 494018, Note_off_c, 0, 27, 52
1, 494020, Note_off_c, 0, 39, 50
1, 494322, Control_c, 0, 64, 52
1, 494790, Control_c, 0, 64, 53
1, 495249, Control_c, 0, 64, 53
1, 495465, Control_c, 0, 64, 54
1, 495612, Control_c, 0, 64, 54
1, 495791, Control_c, 0, 64, 55
1, 495835, Control_c, 0, 64, 55
1, 495983, Control_c, 0, 64, 56
1, 496027, Control_c, 0, 64, 56
1, 496065, Control_c, 0, 64, 57
1, 496094, Control_c, 0, 64, 57
1, 496124, Control_c, 0, 64, 58
1, 496139, Control_c, 0, 64, 58
1, 496154, Control_c, 0, 64, 59
1, 496170, Control_c, 0, 64, 59
1, 496184, Control_c, 0, 64, 60
1, 496199, Control_c, 0, 64, 60
1, 496214, Control_c, 0, 64, 61
1, 496229, Control_c, 0, 64, 61
1, 496243, Control_c, 0, 64, 62
1, 496258, Control_c, 0, 64, 63
1, 496273, Control_c, 0, 64, 63
1, 496288, Control_c, 0, 64, 64
1, 496303, Control_c, 0, 64, 65
1, 496317, Control_c, 0, 64, 66
1, 496332, Control_c, 0, 64, 67
1, 496347, Control_c, 0, 64, 68
1, 496362, Control_c, 0, 64, 70
1, 496377, Control_c, 0, 64, 71
1, 496391, Control_c, 0, 64, 74
1, 496406, Control_c, 0, 64, 81
1, 496421, Control_c, 0, 64, 94
1, 496421, Control_c, 0, 67, 117
1, 496426, Note_on_c, 0, 39, 113
1, 496429, Note_on_c, 0, 35, 93
1, 496430, Note_on_c, 0, 32, 91
1, 496430, Note_on_c, 0, 38, 95
1, 496432, Note_on_c, 0, 40, 101
1, 496435, Control_c, 0, 64, 127
1, 496435, Control_c, 0, 67, 97
1, 496450, Control_c, 0, 67, 62
1, 496456, Note_off_c, 0, 39, 67
1, 496465, Control_c, 0, 67, 18
1, 496480, Control_c, 0, 67, 0
1, 496912, Note_on_c, 0, 39, 87
1, 496950, Note_off_c, 0, 39, 64
1, 497152, Note_on_c, 0, 39, 88
1, 497198, Note_off_c, 0, 39, 63
1, 497315, Note_on_c, 0, 39, 89
1, 497356, Note_off_c, 0, 39, 62
1, 497462, Note_on_c, 0, 39, 88
1, 497505, Note_off_c, 0, 39, 64
1, 497610, Note_on_c, 0, 39, 89
1, 497649, Note_off_c, 0, 39, 63
1, 497742, Note_on_c, 0, 39, 83
1, 497778, Note_off_c, 0, 39, 63
1, 497859, Note_on_c, 0, 39, 82
1, 497896, Note_off_c, 0, 39, 64
1, 497976, Note_on_c, 0, 39, 87
1, 498021, Note_off_c, 0, 39, 63
1, 498087, Note_on_c, 0, 39, 87
1, 498137, Note_off_c, 0, 39, 62
1, 498198, Note_on_c, 0, 39, 90
1, 498242, Note_off_c, 0, 39, 64
1, 498316, Note_on_c, 0, 39, 88
1, 498361, Note_off_c, 0, 39, 63
1, 498423, Note_on_c, 0, 39, 86
1, 498471, Note_off_c, 0, 39, 62
1, 498534, Note_on_c, 0, 39, 81
1, 498575, Note_off_c, 0, 39, 63
1, 498646, Note_on_c, 0, 39, 75
1, 498683, Note_off_c, 0, 39, 65
1, 498754, Note_on_c, 0, 39, 74
1, 498793, Note_off_c, 0, 39, 63
1, 498865, Note_on_c, 0, 39, 73
1, 498897, Note_off_c, 0, 39, 65
1, 498970, Note_on_c, 0, 39, 73
1, 499009, Note_off_c, 0, 39, 64
1, 499060, Control_c, 0, 67, 9
1, 499075, Control_c, 0, 67, 11
1, 499086, Note_on_c, 0, 39, 72
1, 499090, Control_c, 0, 67, 13
1, 499104, Control_c, 0, 67, 15
1, 499119, Control_c, 0, 67, 17
1, 499120, Note_off_c, 0, 39, 64
1, 499134, Control_c, 0, 67, 18
1, 499149, Control_c, 0, 67, 20
1, 499163, Control_c, 0, 67, 22
1, 499178, Control_c, 0, 67, 24
1, 499185, Note_on_c, 0, 39, 66
1, 499193, Control_c, 0, 67, 25
1, 499208, Control_c, 0, 67, 27
1, 499222, Note_off_c, 0, 39, 62
1, 499223, Control_c, 0, 67, 28
1, 499237, Control_c, 0, 67, 30
1, 499252, Control_c, 0, 67, 32
1, 499267, Control_c, 0, 67, 34
1, 499282, Control_c, 0, 67, 36
1, 499297, Control_c, 0, 67, 39
1, 499302, Note_on_c, 0, 39, 62
1, 499312, Control_c, 0, 67, 42
1, 499327, Control_c, 0, 67, 46
1, 499339, Note_off_c, 0, 39, 62
1, 499341, Control_c, 0, 67, 49
1, 499357, Control_c, 0, 67, 52
1, 499371, Control_c, 0, 67, 55
1, 499386, Control_c, 0, 67, 57
1, 499401, Control_c, 0, 67, 60
1, 499413, Note_on_c, 0, 39, 62
1, 499416, Control_c, 0, 67, 62
1, 499431, Control_c, 0, 67, 63
1, 499446, Control_c, 0, 67, 64
1, 499449, Note_off_c, 0, 39, 64
1, 499461, Control_c, 0, 67, 65
1, 499476, Control_c, 0, 67, 66
1, 499518, Note_on_c, 0, 39, 68
1, 499550, Control_c, 0, 67, 65
1, 499561, Note_off_c, 0, 39, 62
1, 499565, Control_c, 0, 67, 65
1, 499594, Control_c, 0, 67, 64
1, 499609, Control_c, 0, 67, 64
1, 499622, Note_on_c, 0, 39, 59
1, 499664, Note_off_c, 0, 39, 62
1, 499668, Control_c, 0, 67, 63
1, 499738, Note_on_c, 0, 39, 64
1, 499784, Note_off_c, 0, 39, 61
1, 499855, Note_on_c, 0, 39, 60
1, 499895, Note_off_c, 0, 39, 62
1, 499961, Note_on_c, 0, 39, 64
1, 500004, Note_off_c, 0, 39, 60
1, 500071, Note_on_c, 0, 39, 54
1, 500111, Note_off_c, 0, 39, 62
1, 500188, Note_on_c, 0, 39, 61
1, 500227, Note_off_c, 0, 39, 61
1, 500305, Note_on_c, 0, 39, 47
1, 500334, Note_off_c, 0, 39, 56
1, 500422, Note_on_c, 0, 39, 48
1, 500444, Note_off_c, 0, 39, 59
1, 500522, Control_c, 0, 67, 64
1, 500531, Note_on_c, 0, 39, 55
1, 500561, Note_off_c, 0, 39, 57
1, 500603, Control_c, 0, 67, 64
1, 500632, Control_c, 0, 67, 65
1, 500647, Control_c, 0, 67, 65
1, 500649, Note_on_c, 0, 39, 51
1, 500677, Note_off_c, 0, 39, 53
1, 500677, Control_c, 0, 67, 66
1, 500692, Control_c, 0, 67, 66
1, 500707, Control_c, 0, 67, 67
1, 500722, Control_c, 0, 67, 67
1, 500736, Control_c, 0, 67, 68
1, 500750, Note_on_c, 0, 39, 49
1, 500751, Control_c, 0, 67, 70
1, 500766, Control_c, 0, 67, 72
1, 500781, Control_c, 0, 67, 73
1, 500783, Note_off_c, 0, 39, 57
1, 500796, Control_c, 0, 67, 74
1, 500810, Control_c, 0, 67, 75
1, 500825, Control_c, 0, 67, 76
1, 500840, Control_c, 0, 67, 77
1, 500853, Note_on_c, 0, 39, 54
1, 500855, Control_c, 0, 67, 78
1, 500870, Control_c, 0, 67, 79
1, 500884, Control_c, 0, 67, 81
1, 500896, Note_off_c, 0, 39, 59
1, 500899, Control_c, 0, 67, 82
1, 500914, Note_off_c, 0, 38, 30
1, 500914, Control_c, 0, 67, 84
1, 500928, Control_c, 0, 67, 85
1, 500930, Note_off_c, 0, 40, 32
1, 500943, Control_c, 0, 67, 85
1, 500959, Control_c, 0, 67, 86
1, 500962, Note_on_c, 0, 39, 50
1, 500974, Control_c, 0, 67, 86
1, 500989, Control_c, 0, 67, 87
1, 501004, Control_c, 0, 67, 87
1, 501009, Note_off_c, 0, 39, 61
1, 501019, Control_c, 0, 67, 88
1, 501033, Control_c, 0, 67, 88
1, 501048, Control_c, 0, 67, 89
1, 501063, Control_c, 0, 67, 89
1, 501066, Note_off_c, 0, 35, 32
1, 501093, Control_c, 0, 67, 90
1, 501098, Note_on_c, 0, 39, 44
1, 501122, Control_c, 0, 67, 90
1, 501133, Note_off_c, 0, 39, 54
1, 501151, Control_c, 0, 67, 91
1, 501166, Control_c, 0, 67, 91
1, 501169, Note_off_c, 0, 32, 19
1, 501181, Control_c, 0, 67, 92
1, 501196, Control_c, 0, 67, 93
1, 501211, Control_c, 0, 67, 93
1, 501219, Note_on_c, 0, 39, 44
1, 501225, Control_c, 0, 67, 94
1, 501240, Control_c, 0, 67, 95
1, 501255, Control_c, 0, 67, 96
1, 501263, Note_off_c, 0, 39, 56
1, 501278, Control_c, 0, 67, 96
1, 501293, Control_c, 0, 67, 97
1, 501307, Control_c, 0, 67, 98
1, 501322, Control_c, 0, 67, 99
1, 501337, Control_c, 0, 67, 101
1, 501351, Control_c, 0, 67, 102
1, 501358, Note_on_c, 0, 39, 45
1, 501366, Control_c, 0, 67, 103
1, 501381, Control_c, 0, 67, 105
1, 501396, Control_c, 0, 67, 106
1, 501398, Note_off_c, 0, 39, 58
1, 501411, Control_c, 0, 67, 107
1, 501425, Control_c, 0, 67, 109
1, 501440, Control_c, 0, 67, 110
1, 501455, Control_c, 0, 67, 112
1, 501470, Control_c, 0, 67, 114
1, 501485, Control_c, 0, 67, 115
1, 501494, Note_on_c, 0, 39, 47
1, 501500, Control_c, 0, 67, 116
1, 501515, Control_c, 0, 67, 118
1, 501529, Control_c, 0, 67, 119
1, 501535, Note_off_c, 0, 39, 55
1, 501544, Control_c, 0, 67, 120
1, 501559, Control_c, 0, 67, 121
1, 501574, Control_c, 0, 67, 121
1, 501589, Control_c, 0, 67, 122
1, 501633, Control_c, 0, 67, 122
1, 501649, Note_on_c, 0, 39, 43
1, 501707, Control_c, 0, 67, 123
1, 501731, Note_off_c, 0, 39, 0
1, 501737, Control_c, 0, 67, 123
1, 501753, Control_c, 0, 67, 124
1, 501767, Note_on_c, 0, 35, 65
1, 501769, Poly_aftertouch_c, 0, 39, 127
1, 501771, Note_on_c, 0, 32, 60
1, 501797, Control_c, 0, 64, 102
1, 501803, Note_on_c, 0, 39, 3
1, 501812, Control_c, 0, 64, 91
1, 501827, Control_c, 0, 64, 85
1, 501842, Control_c, 0, 64, 83
1, 501844, Note_off_c, 0, 39, 38
1, 501871, Control_c, 0, 64, 83
1, 501886, Control_c, 0, 64, 85
1, 501900, Control_c, 0, 64, 90
1, 501904, Note_on_c, 0, 39, 32
1, 501915, Control_c, 0, 64, 96
1, 501930, Control_c, 0, 64, 103
1, 501945, Control_c, 0, 64, 114
1, 501952, Note_off_c, 0, 39, 51
1, 501959, Control_c, 0, 64, 127
1, 501959, Control_c, 0, 67, 123
1, 502030, Note_on_c, 0, 39, 35
1, 502076, Note_off_c, 0, 39, 55
1, 502099, Control_c, 0, 67, 123
1, 502155, Note_on_c, 0, 39, 32
1, 502195, Note_off_c, 0, 39, 48
1, 502272, Note_on_c, 0, 39, 36
1, 502308, Note_off_c, 0, 39, 52
1, 502386, Note_on_c, 0, 39, 43
1, 502425, Note_off_c, 0, 39, 53
1, 502518, Note_on_c, 0, 39, 34
1, 502558, Note_off_c, 0, 39, 39
1, 502641, Note_on_c, 0, 39, 21
1, 502672, Note_off_c, 0, 39, 41
1, 502755, Note_on_c, 0, 39, 21
1, 502801, Note_off_c, 0, 39, 38
1, 502863, Note_on_c, 0, 39, 33
1, 502904, Note_off_c, 0, 39, 51
1, 502981, Note_on_c, 0, 39, 36
1, 503018, Note_off_c, 0, 39, 49
1, 503096, Note_on_c, 0, 39, 37
1, 503133, Note_off_c, 0, 39, 46
1, 503215, Note_on_c, 0, 39, 36
1, 503254, Note_off_c, 0, 39, 49
1, 503335, Note_on_c, 0, 39, 20
1, 503379, Note_off_c, 0, 39, 46
1, 503463, Note_on_c, 0, 39, 29
1, 503501, Note_off_c, 0, 39, 49
1, 503591, Note_on_c, 0, 39, 28
1, 503631, Note_off_c, 0, 39, 51
1, 503713, Note_on_c, 0, 39, 36
1, 503756, Note_off_c, 0, 39, 51
1, 503846, Note_on_c, 0, 39, 32
1, 503892, Note_off_c, 0, 39, 52
1, 503974, Note_on_c, 0, 39, 34
1, 504023, Note_off_c, 0, 39, 53
1, 504096, Note_on_c, 0, 39, 36
1, 504153, Note_off_c, 0, 39, 51
1, 504223, Note_on_c, 0, 39, 28
1, 504286, Note_off_c, 0, 39, 51
1, 504302, Control_c, 0, 67, 123
1, 504358, Note_on_c, 0, 39, 27
1, 504362, Control_c, 0, 67, 124
1, 504391, Control_c, 0, 67, 124
1, 504411, Note_off_c, 0, 39, 48
1, 504421, Control_c, 0, 67, 125
1, 504451, Control_c, 0, 67, 125
1, 504477, Note_on_c, 0, 39, 35
1, 504481, Control_c, 0, 67, 126
1, 504510, Control_c, 0, 67, 127
1, 504525, Control_c, 0, 67, 127
1, 504530, Note_off_c, 0, 39, 54
1, 504603, Note_on_c, 0, 39, 36
1, 504659, Note_off_c, 0, 39, 51
1, 504734, Note_on_c, 0, 39, 29
1, 504783, Note_off_c, 0, 39, 53
1, 504868, Note_on_c, 0, 39, 31
1, 504916, Note_off_c, 0, 39, 51
1, 505010, Note_on_c, 0, 39, 25
1, 505063, Note_off_c, 0, 39, 47
1, 505153, Note_on_c, 0, 39, 27
1, 505200, Note_off_c, 0, 39, 52
1, 505291, Note_on_c, 0, 39, 32
1, 505331, Note_off_c, 0, 39, 49
1, 505419, Note_on_c, 0, 39, 37
1, 505453, Note_off_c, 0, 35, 28
1, 505471, Note_off_c, 0, 39, 51
1, 505560, Note_on_c, 0, 39, 29
1, 505621, Note_off_c, 0, 39, 53
1, 505702, Note_on_c, 0, 39, 31
1, 505756, Note_off_c, 0, 32, 22
1, 505776, Note_off_c, 0, 39, 49
1, 505855, Note_on_c, 0, 39, 21
1, 505939, Note_off_c, 0, 39, 44
1, 506010, Note_on_c, 0, 39, 5
1, 506095, Note_off_c, 0, 39, 45
1, 506221, Note_on_c, 0, 39, 29
1, 506296, Note_off_c, 0, 39, 48
1, 506525, Note_on_c, 0, 39, 34
1, 506607, Note_off_c, 0, 39, 51
1, 507161, Note_on_c, 0, 27, 29
1, 507228, Note_off_c, 0, 27, 58
1, 507684, Note_on_c, 0, 27, 24
1, 507757, Note_off_c, 0, 27, 56
1, 508087, Note_on_c, 0, 27, 22
1, 508144, Note_off_c, 0, 27, 56
1, 508422, Note_on_c, 0, 27, 22
1, 508484, Note_off_c, 0, 27, 56
1, 508740, Note_on_c, 0, 27, 37
1, 508791, Note_off_c, 0, 27, 60
1, 509050, Note_on_c, 0, 27, 28
1, 509116, Note_off_c, 0, 27, 53
1, 509345, Note_on_c, 0, 27, 26
1, 509405, Note_off_c, 0, 27, 60
1, 509638, Note_on_c, 0, 27, 34
1, 509680, Note_off_c, 0, 27, 57
1, 509904, Note_on_c, 0, 27, 29
1, 509957, Note_off_c, 0, 27, 63
1, 510204, Note_on_c, 0, 27, 35
1, 510251, Note_off_c, 0, 27, 54
1, 510470, Note_on_c, 0, 27, 23
1, 510543, Note_off_c, 0, 27, 58
1, 510741, Note_on_c, 0, 27, 17
1, 510791, Note_off_c, 0, 27, 57
1, 510981, Note_on_c, 0, 27, 30
1, 511056, Note_off_c, 0, 27, 60
1, 511249, Note_on_c, 0, 27, 34
1, 511300, Note_off_c, 0, 27, 58
1, 511513, Note_on_c, 0, 27, 31
1, 511561, Note_off_c, 0, 27, 59
1, 511782, Note_on_c, 0, 27, 26
1, 511832, Note_off_c, 0, 27, 56
1, 512040, Note_on_c, 0, 27, 35
1, 512105, Note_off_c, 0, 27, 60
1, 512299, Note_on_c, 0, 27, 20
1, 512354, Note_off_c, 0, 27, 56
1, 512571, Note_on_c, 0, 27, 39
1, 512630, Note_off_c, 0, 27, 59
1, 512842, Note_on_c, 0, 27, 13
1, 512898, Note_off_c, 0, 27, 55
1, 513085, Note_on_c, 0, 27, 39
1, 513155, Note_off_c, 0, 27, 58
1, 513353, Note_on_c, 0, 27, 16
1, 513407, Note_off_c, 0, 27, 56
1, 513600, Note_on_c, 0, 27, 34
1, 513668, Note_off_c, 0, 27, 55
1, 513855, Note_on_c, 0, 27, 31
1, 513913, Note_off_c, 0, 27, 56
1, 514179, Note_on_c, 0, 27, 44
1, 514445, Note_on_c, 0, 30, 28
1, 514568, Note_on_c, 0, 28, 42
1, 514577, Note_off_c, 0, 27, 30
1, 514606, Note_off_c, 0, 30, 35
1, 514651, Note_off_c, 0, 28, 49
1, 514729, Note_on_c, 0, 31, 30
1, 514833, Note_off_c, 0, 31, 50
1, 514853, Note_on_c, 0, 34, 24
1, 514976, Note_off_c, 0, 34, 51
1, 515003, Note_on_c, 0, 37, 28
1, 515101, Note_off_c, 0, 37, 48
1, 515182, Note_on_c, 0, 34, 25
1, 515461, Note_on_c, 0, 28, 39
1, 515565, Note_off_c, 0, 34, 8
1, 515604, Note_off_c, 0, 28, 53
1, 515656, Note_on_c, 0, 27, 54
1, 515846, Note_on_c, 0, 30, 40
1, 515945, Note_on_c, 0, 28, 47
1, 516008, Note_off_c, 0, 30, 35
1, 516012, Note_off_c, 0, 27, 34
1, 516042, Note_off_c, 0, 28, 59
1, 516057, Note_on_c, 0, 31, 46
1, 516161, Note_on_c, 0, 34, 45
1, 516242, Note_off_c, 0, 31, 35
1, 516306, Note_off_c, 0, 34, 51
1, 516310, Note_on_c, 0, 37, 41
1, 516440, Note_off_c, 0, 37, 51
1, 516479, Note_on_c, 0, 34, 33
1, 516612, Note_on_c, 0, 31, 34
1, 516707, Note_off_c, 0, 31, 59
1, 516771, Note_on_c, 0, 28, 54
1, 516891, Note_off_c, 0, 34, 8
1, 516905, Note_off_c, 0, 28, 55
1, 516911, Note_on_c, 0, 27, 65
1, 517084, Note_on_c, 0, 30, 57
1, 517191, Note_on_c, 0, 28, 61
1, 517304, Note_on_c, 0, 31, 61
1, 517314, Note_off_c, 0, 28, 62
1, 517392, Note_off_c, 0, 30, 36
1, 517417, Note_on_c, 0, 34, 52
1, 517501, Note_off_c, 0, 27, 42
1, 517558, Note_on_c, 0, 37, 49
1, 517568, Note_off_c, 0, 34, 54
1, 517588, Note_off_c, 0, 31, 38
1, 517697, Note_on_c, 0, 34, 42
1, 517799, Note_on_c, 0, 31, 48
1, 517895, Note_off_c, 0, 31, 55
1, 517945, Note_on_c, 0, 28, 59
1, 518078, Note_off_c, 0, 34, 33
1, 518081, Note_off_c, 0, 28, 58
1, 518085, Note_on_c, 0, 27, 82
1, 518142, Note_off_c, 0, 37, 3
1, 518252, Note_on_c, 0, 30, 60
1, 518354, Note_on_c, 0, 28, 64
1, 518438, Note_off_c, 0, 28, 62
1, 518449, Note_on_c, 0, 31, 60
1, 518559, Note_on_c, 0, 34, 62
1, 518625, Note_off_c, 0, 30, 39
1, 518689, Note_on_c, 0, 37, 62
1, 518695, Note_off_c, 0, 27, 34
1, 518726, Note_off_c, 0, 31, 38
1, 518726, Note_off_c, 0, 34, 59
1, 518845, Note_on_c, 0, 34, 53
1, 518984, Note_on_c, 0, 31, 45
1, 519054, Note_off_c, 0, 31, 56
1, 519153, Note_on_c, 0, 28, 39
1, 519249, Note_off_c, 0, 37, 30
1, 519265, Note_off_c, 0, 34, 34
1, 519412, Note_on_c, 0, 27, 67
1, 519441, Note_off_c, 0, 28, 32
1, 519636, Note_on_c, 0, 30, 54
1, 519764, Note_on_c, 0, 28, 40
1, 519790, Note_off_c, 0, 27, 32
1, 519791, Note_off_c, 0, 30, 34
1, 519813, Note_off_c, 0, 28, 53
1, 519884, Note_on_c, 0, 31, 47
1, 519979, Note_off_c, 0, 31, 52
1, 520020, Note_on_c, 0, 34, 38
1, 520144, Note_off_c, 0, 34, 53
1, 520171, Note_on_c, 0, 37, 39
1, 520244, Note_off_c, 0, 37, 52
1, 520324, Note_on_c, 0, 34, 31
1, 520452, Note_on_c, 0, 31, 25
1, 520486, Note_off_c, 0, 31, 55
1, 520596, Note_off_c, 0, 34, 15
1, 520603, Note_on_c, 0, 28, 41
1, 520647, Note_off_c, 0, 28, 62
1, 520870, Note_on_c, 0, 39, 40
1, 521036, Note_on_c, 0, 42, 45
1, 521088, Note_off_c, 0, 39, 30
1, 521126, Note_off_c, 0, 42, 55
1, 521159, Note_on_c, 0, 40, 37
1, 521196, Note_off_c, 0, 40, 55
1, 521265, Note_on_c, 0, 43, 36
1, 521332, Note_off_c, 0, 43, 53
1, 521384, Note_on_c, 0, 46, 31
1, 521454, Note_off_c, 0, 46, 51
1, 521484, Note_on_c, 0, 49, 33
1, 521573, Note_off_c, 0, 49, 50
1, 521624, Note_on_c, 0, 46, 38
1, 521749, Note_on_c, 0, 43, 19
1, 521797, Note_off_c, 0, 46, 24
1, 521800, Note_off_c, 0, 43, 50
1, 521851, Note_on_c, 0, 40, 18
1, 521865, Note_off_c, 0, 40, 49
1, 521970, Note_on_c, 0, 51, 35
1, 522127, Note_on_c, 0, 54, 39
1, 522151, Note_off_c, 0, 51, 45
1, 522223, Note_on_c, 0, 52, 39
1, 522228, Note_off_c, 0, 54, 49
1, 522283, Note_off_c, 0, 52, 57
1, 522333, Note_on_c, 0, 55, 25
1, 522377, Note_off_c, 0, 55, 49
1, 522434, Note_on_c, 0, 58, 33
1, 522512, Note_off_c, 0, 58, 38
1, 522554, Note_on_c, 0, 61, 32
1, 522661, Note_off_c, 0, 61, 35
1, 522668, Note_on_c, 0, 58, 30
1, 522879, Note_on_c, 0, 55, 3
1, 522900, Note_off_c, 0, 58, 23
1, 523042, Note_on_c, 0, 52, 32
1, 523044, Note_off_c, 0, 55, 31
1, 523072, Note_off_c, 0, 52, 58
1, 523411, Note_on_c, 0, 63, 31
1, 523532, Note_off_c, 0, 63, 34
1, 523641, Note_on_c, 0, 64, 36
1, 523796, Note_on_c, 0, 66, 28
1, 523842, Note_off_c, 0, 66, 48
1, 523878, Note_on_c, 0, 67, 36
1, 523939, Note_off_c, 0, 67, 50
1, 524002, Note_off_c, 0, 64, 13
1, 524003, Note_on_c, 0, 70, 42
1, 524075, Note_off_c, 0, 70, 40
1, 524103, Note_on_c, 0, 67, 20
1, 524152, Note_off_c, 0, 67, 46
1, 524202, Note_on_c, 0, 66, 28
1, 524244, Note_off_c, 0, 66, 49
1, 524306, Note_on_c, 0, 64, 20
1, 524382, Note_on_c, 0, 63, 39
1, 524394, Note_off_c, 0, 64, 34
1, 524472, Note_off_c, 0, 63, 62
1, 524545, Note_on_c, 0, 64, 26
1, 524599, Note_off_c, 0, 64, 40
1, 524613, Note_on_c, 0, 66, 24
1, 524658, Note_off_c, 0, 66, 48
1, 524685, Note_on_c, 0, 67, 34
1, 524724, Note_off_c, 0, 67, 52
1, 524768, Note_on_c, 0, 70, 40
1, 524846, Note_on_c, 0, 67, 43
1, 524885, Note_off_c, 0, 70, 24
1, 524928, Note_off_c, 0, 67, 37
1, 524936, Note_on_c, 0, 66, 32
1, 524982, Note_off_c, 0, 66, 49
1, 524997, Note_on_c, 0, 64, 44
1, 525037, Note_off_c, 0, 64, 60
1, 525090, Note_on_c, 0, 63, 42
1, 525147, Note_off_c, 0, 63, 54
1, 525164, Note_on_c, 0, 64, 38
1, 525253, Note_on_c, 0, 66, 37
1, 525298, Note_off_c, 0, 66, 47
1, 525340, Note_on_c, 0, 67, 25
1, 525377, Note_off_c, 0, 67, 43
1, 525401, Note_on_c, 0, 70, 40
1, 525414, Note_off_c, 0, 64, 21
1, 525471, Note_off_c, 0, 70, 36
1, 525496, Note_on_c, 0, 67, 36
1, 525548, Note_off_c, 0, 67, 43
1, 525597, Note_on_c, 0, 66, 17
1, 525649, Note_off_c, 0, 66, 47
1, 525654, Note_on_c, 0, 64, 26
1, 525693, Note_off_c, 0, 64, 47
1, 525761, Note_on_c, 0, 63, 36
1, 525818, Note_off_c, 0, 63, 60
1, 525829, Note_on_c, 0, 64, 23
1, 525918, Note_on_c, 0, 66, 30
1, 525961, Note_off_c, 0, 66, 48
1, 526009, Note_on_c, 0, 67, 35
1, 526045, Note_off_c, 0, 67, 52
1, 526092, Note_off_c, 0, 64, 23
1, 526110, Note_on_c, 0, 70, 18
1, 526169, Note_off_c, 0, 70, 40
1, 526175, Note_on_c, 0, 67, 35
1, 526220, Note_off_c, 0, 67, 45
1, 526280, Note_on_c, 0, 66, 15
1, 526327, Note_off_c, 0, 66, 40
1, 526366, Note_on_c, 0, 64, 17
1, 526535, Note_off_c, 0, 64, 38
1, 526582, Note_on_c, 0, 63, 24
1, 526601, Note_on_c, 0, 75, 51
1, 526683, Note_off_c, 0, 63, 56
1, 526752, Note_off_c, 0, 75, 44
1, 526756, Note_on_c, 0, 64, 23
1, 526885, Note_on_c, 0, 66, 31
1, 526995, Note_on_c, 0, 67, 38
1, 527016, Note_off_c, 0, 66, 31
1, 527051, Note_off_c, 0, 67, 57
1, 527105, Note_on_c, 0, 70, 37
1, 527119, Note_on_c, 0, 75, 59
1, 527165, Note_off_c, 0, 64, 27
1, 527191, Note_on_c, 0, 67, 40
1, 527214, Note_off_c, 0, 70, 0
1, 527251, Poly_aftertouch_c, 0, 70, 127
1, 527278, Note_off_c, 0, 75, 53
1, 527293, Note_on_c, 0, 66, 37
1, 527305, Note_off_c, 0, 67, 35
1, 527346, Note_off_c, 0, 66, 57
1, 527387, Note_on_c, 0, 64, 32
1, 527496, Note_on_c, 0, 75, 62
1, 527523, Note_on_c, 0, 63, 36
1, 527524, Note_off_c, 0, 64, 33
1, 527553, Note_off_c, 0, 63, 58
1, 527612, Poly_aftertouch_c, 0, 70, 0
1, 527613, Note_on_c, 0, 64, 43
1, 527694, Note_on_c, 0, 66, 45
1, 527787, Note_off_c, 0, 64, 34
1, 527791, Note_on_c, 0, 67, 45
1, 527806, Note_off_c, 0, 66, 31
1, 527831, Note_off_c, 0, 67, 62
1, 527851, Note_on_c, 0, 73, 60
1, 527869, Note_on_c, 0, 70, 48
1, 527883, Note_off_c, 0, 75, 57
1, 527943, Note_on_c, 0, 67, 41
1, 527946, Note_off_c, 0, 70, 40
1, 527973, Note_off_c, 0, 67, 55
1, 527988, Note_on_c, 0, 66, 36
1, 528027, Note_off_c, 0, 66, 64
1, 528068, Note_on_c, 0, 64, 35
1, 528128, Note_off_c, 0, 64, 49
1, 528176, Note_on_c, 0, 63, 36
1, 528196, Control_c, 0, 64, 112
1, 528208, Note_off_c, 0, 63, 58
1, 528211, Note_on_c, 0, 75, 61
1, 528211, Control_c, 0, 64, 88
1, 528232, Control_c, 0, 64, 78
1, 528247, Control_c, 0, 64, 72
1, 528262, Control_c, 0, 64, 71
1, 528271, Note_off_c, 0, 73, 35
1, 528277, Control_c, 0, 64, 73
1, 528280, Note_on_c, 0, 64, 42
1, 528292, Control_c, 0, 64, 79
1, 528307, Control_c, 0, 64, 92
1, 528322, Control_c, 0, 64, 111
1, 528337, Control_c, 0, 64, 127
1, 528363, Note_off_c, 0, 64, 0
1, 528370, Note_on_c, 0, 66, 37
1, 528400, Poly_aftertouch_c, 0, 64, 127
1, 528427, Note_off_c, 0, 75, 57
1, 528429, Note_off_c, 0, 66, 53
1, 528468, Note_on_c, 0, 67, 31
1, 528501, Note_off_c, 0, 67, 46
1, 528513, Poly_aftertouch_c, 0, 64, 0
1, 528524, Note_on_c, 0, 70, 45
1, 528602, Note_off_c, 0, 70, 38
1, 528607, Note_on_c, 0, 67, 44
1, 528650, Note_off_c, 0, 67, 54
1, 528678, Note_on_c, 0, 66, 37
1, 528711, Note_off_c, 0, 66, 53
1, 528754, Note_on_c, 0, 64, 35
1, 528818, Note_off_c, 0, 64, 53
1, 528876, Note_on_c, 0, 63, 43
1, 528915, Control_c, 0, 64, 98
1, 528930, Control_c, 0, 64, 93
1, 528963, Note_off_c, 0, 63, 58
1, 528981, Note_on_c, 0, 64, 35
1, 528981, Control_c, 0, 64, 95
1, 528996, Control_c, 0, 64, 101
1, 529011, Control_c, 0, 64, 114
1, 529026, Control_c, 0, 64, 127
1, 529034, Note_on_c, 0, 66, 35
1, 529037, Note_off_c, 0, 64, 40
1, 529072, Note_off_c, 0, 66, 50
1, 529105, Note_on_c, 0, 67, 36
1, 529138, Note_off_c, 0, 67, 53
1, 529177, Note_on_c, 0, 70, 35
1, 529267, Note_on_c, 0, 67, 32
1, 529296, Note_off_c, 0, 70, 25
1, 529305, Note_off_c, 0, 67, 50
1, 529324, Note_on_c, 0, 66, 32
1, 529362, Note_off_c, 0, 66, 50
1, 529410, Note_on_c, 0, 64, 15
1, 529468, Note_off_c, 0, 64, 43
1, 529493, Note_on_c, 0, 63, 40
1, 529514, Control_c, 0, 64, 99
1, 529529, Control_c, 0, 64, 89
1, 529544, Control_c, 0, 64, 88
1, 529574, Control_c, 0, 64, 90
1, 529589, Control_c, 0, 64, 95
1, 529595, Note_on_c, 0, 64, 41
1, 529604, Control_c, 0, 64, 106
1, 529619, Control_c, 0, 64, 127
1, 529701, Poly_aftertouch_c, 0, 66, 127
1, 529732, Note_off_c, 0, 64, 23
1, 529738, Note_on_c, 0, 67, 36
1, 529752, Poly_aftertouch_c, 0, 66, 0
1, 529776, Note_off_c, 0, 67, 57
1, 529793, Note_off_c, 0, 63, 34
1, 529823, Note_on_c, 0, 70, 32
1, 529878, Note_off_c, 0, 70, 39
1, 529907, Note_on_c, 0, 67, 32
1, 529964, Note_off_c, 0, 67, 41
1, 529996, Note_on_c, 0, 66, 23
1, 530036, Note_off_c, 0, 66, 44
1, 530059, Note_on_c, 0, 64, 26
1, 530096, Note_off_c, 0, 64, 50
1, 530138, Note_on_c, 0, 63, 32
1, 530145, Control_c, 0, 64, 114
1, 530160, Control_c, 0, 64, 100
1, 530174, Control_c, 0, 64, 96
1, 530221, Note_on_c, 0, 64, 22
1, 530234, Control_c, 0, 64, 97
1, 530249, Control_c, 0, 64, 99
1, 530263, Control_c, 0, 64, 103
1, 530278, Control_c, 0, 64, 109
1, 530293, Control_c, 0, 64, 116
1, 530294, Note_on_c, 0, 66, 25
1, 530308, Control_c, 0, 64, 124
1, 530323, Control_c, 0, 64, 127
1, 530334, Note_off_c, 0, 66, 51
1, 530444, Note_on_c, 0, 70, 31
1, 530468, Poly_aftertouch_c, 0, 67, 0
1, 530483, Note_off_c, 0, 64, 21
1, 530495, Note_off_c, 0, 70, 46
1, 530498, Note_on_c, 0, 67, 4
1, 530607, Note_on_c, 0, 66, 32
1, 530638, Note_off_c, 0, 67, 28
1, 530654, Note_off_c, 0, 66, 49
1, 530691, Note_on_c, 0, 64, 32
1, 530746, Note_off_c, 0, 64, 59
1, 530850, Control_c, 0, 64, 117
1, 530865, Control_c, 0, 64, 105
1, 530867, Note_on_c, 0, 61, 48
1, 530879, Control_c, 0, 64, 94
1, 530894, Control_c, 0, 64, 83
1, 530909, Control_c, 0, 64, 74
1, 530924, Control_c, 0, 64, 66
1, 530939, Control_c, 0, 64, 61
1, 530954, Control_c, 0, 64, 60
1, 530969, Control_c, 0, 64, 63
1, 530974, Note_on_c, 0, 64, 26
1, 530984, Control_c, 0, 64, 66
1, 530993, Note_off_c, 0, 63, 34
1, 530998, Control_c, 0, 64, 71
1, 531013, Control_c, 0, 64, 78
1, 531028, Control_c, 0, 64, 85
1, 531043, Control_c, 0, 64, 91
1, 531058, Control_c, 0, 64, 95
1, 531059, Note_on_c, 0, 66, 36
1, 531072, Control_c, 0, 64, 99
1, 531087, Control_c, 0, 64, 104
1, 531102, Control_c, 0, 64, 111
1, 531115, Note_off_c, 0, 66, 43
1, 531117, Control_c, 0, 64, 124
1, 531131, Control_c, 0, 64, 127
1, 531148, Note_on_c, 0, 67, 37
1, 531199, Note_off_c, 0, 67, 56
1, 531244, Note_on_c, 0, 73, 40
1, 531268, Note_off_c, 0, 64, 18
1, 531303, Note_off_c, 0, 73, 50
1, 531343, Note_on_c, 0, 67, 33
1, 531416, Note_on_c, 0, 66, 42
1, 531438, Note_off_c, 0, 67, 35
1, 531461, Note_off_c, 0, 66, 58
1, 531493, Note_on_c, 0, 64, 41
1, 531519, Note_off_c, 0, 64, 57
1, 531568, Note_on_c, 0, 63, 57
1, 531613, Control_c, 0, 64, 121
1, 531643, Note_on_c, 0, 64, 43
1, 531737, Note_on_c, 0, 66, 38
1, 531768, Note_off_c, 0, 64, 30
1, 531776, Control_c, 0, 64, 122
1, 531786, Note_off_c, 0, 66, 59
1, 531799, Note_on_c, 0, 67, 44
1, 531835, Control_c, 0, 64, 124
1, 531845, Note_off_c, 0, 67, 53
1, 531858, Note_off_c, 0, 61, 22
1, 531865, Control_c, 0, 64, 127
1, 531888, Note_on_c, 0, 75, 52
1, 531967, Note_on_c, 0, 67, 46
1, 531995, Note_off_c, 0, 75, 35
1, 532027, Note_off_c, 0, 67, 52
1, 532060, Note_on_c, 0, 66, 42
1, 532093, Note_off_c, 0, 66, 58
1, 532125, Note_on_c, 0, 64, 48
1, 532178, Note_off_c, 0, 64, 56
1, 532234, Note_on_c, 0, 58, 48
1, 532268, Note_on_c, 0, 64, 47
1, 532303, Note_off_c, 0, 63, 31
1, 532346, Note_on_c, 0, 66, 40
1, 532387, Note_off_c, 0, 64, 26
1, 532393, Note_off_c, 0, 66, 58
1, 532425, Note_on_c, 0, 67, 34
1, 532458, Note_off_c, 0, 67, 47
1, 532481, Note_on_c, 0, 70, 51
1, 532555, Note_on_c, 0, 67, 47
1, 532596, Note_off_c, 0, 67, 49
1, 532617, Note_on_c, 0, 66, 46
1, 532632, Note_off_c, 0, 70, 27
1, 532656, Note_off_c, 0, 66, 64
1, 532690, Note_on_c, 0, 64, 41
1, 532731, Note_off_c, 0, 64, 55
1, 532813, Note_on_c, 0, 56, 51
1, 532814, Control_c, 0, 64, 108
1, 532829, Control_c, 0, 64, 92
1, 532844, Control_c, 0, 64, 79
1, 532858, Control_c, 0, 64, 70
1, 532873, Control_c, 0, 64, 64
1, 532898, Note_off_c, 0, 58, 33
1, 532903, Control_c, 0, 64, 68
1, 532913, Note_on_c, 0, 62, 42
1, 532918, Control_c, 0, 64, 73
1, 532933, Control_c, 0, 64, 79
1, 532948, Control_c, 0, 64, 87
1, 532963, Control_c, 0, 64, 92
1, 532972, Note_on_c, 0, 63, 46
1, 532978, Control_c, 0, 64, 96
1, 532993, Control_c, 0, 64, 99
1, 533007, Control_c, 0, 64, 103
1, 533022, Control_c, 0, 64, 106
1, 533037, Control_c, 0, 64, 110
1, 533052, Control_c, 0, 64, 112
1, 533053, Note_on_c, 0, 64, 42
1, 533053, Note_off_c, 0, 63, 39
1, 533067, Control_c, 0, 64, 114
1, 533075, Note_off_c, 0, 62, 31
1, 533081, Note_off_c, 0, 64, 58
1, 533081, Control_c, 0, 64, 116
1, 533096, Control_c, 0, 64, 118
1, 533109, Note_on_c, 0, 68, 51
1, 533125, Control_c, 0, 64, 118
1, 533159, Note_off_c, 0, 68, 51
1, 533175, Note_on_c, 0, 64, 54
1, 533222, Note_off_c, 0, 64, 58
1, 533236, Note_on_c, 0, 63, 51
1, 533282, Note_off_c, 0, 63, 60
1, 533327, Note_on_c, 0, 62, 58
1, 533357, Note_off_c, 0, 62, 64
1, 533392, Control_c, 0, 64, 114
1, 533407, Note_on_c, 0, 61, 55
1, 533407, Control_c, 0, 64, 100
1, 533422, Control_c, 0, 64, 87
1, 533437, Control_c, 0, 64, 76
1, 533452, Control_c, 0, 64, 66
1, 533474, Note_off_c, 0, 56, 57
1, 533474, Control_c, 0, 64, 60
1, 533489, Control_c, 0, 64, 58
1, 533504, Control_c, 0, 64, 62
1, 533507, Note_on_c, 0, 64, 44
1, 533519, Control_c, 0, 64, 65
1, 533533, Control_c, 0, 64, 70
1, 533548, Control_c, 0, 64, 76
1, 533563, Control_c, 0, 64, 83
1, 533578, Control_c, 0, 64, 89
1, 533581, Note_on_c, 0, 65, 41
1, 533593, Control_c, 0, 64, 94
1, 533606, Note_off_c, 0, 64, 32
1, 533607, Control_c, 0, 64, 98
1, 533610, Note_off_c, 0, 65, 55
1, 533622, Control_c, 0, 64, 101
1, 533624, Note_on_c, 0, 68, 53
1, 533637, Control_c, 0, 64, 106
1, 533652, Control_c, 0, 64, 114
1, 533663, Note_off_c, 0, 68, 62
1, 533667, Control_c, 0, 64, 127
1, 533700, Note_on_c, 0, 73, 50
1, 533783, Note_on_c, 0, 68, 46
1, 533784, Note_off_c, 0, 73, 35
1, 533825, Note_off_c, 0, 68, 58
1, 533842, Note_on_c, 0, 65, 36
1, 533869, Note_off_c, 0, 65, 56
1, 533898, Note_on_c, 0, 64, 52
1, 533942, Note_off_c, 0, 64, 62
1, 533971, Note_off_c, 0, 61, 58
1, 533995, Note_on_c, 0, 56, 47
1, 534027, Note_off_c, 0, 56, 64
1, 534081, Note_on_c, 0, 62, 49
1, 534121, Note_on_c, 0, 63, 52
1, 534148, Note_off_c, 0, 62, 49
1, 534190, Note_on_c, 0, 64, 43
1, 534215, Note_off_c, 0, 63, 50
1, 534231, Note_off_c, 0, 64, 61
1, 534245, Note_on_c, 0, 68, 42
1, 534272, Note_off_c, 0, 68, 50
1, 534329, Note_on_c, 0, 74, 24
1, 534369, Note_off_c, 0, 74, 43
1, 534520, Note_on_c, 0, 80, 70
1, 534551, Note_off_c, 0, 80, 63
1, 534594, Note_on_c, 0, 83, 51
1, 534623, Note_off_c, 0, 83, 66
1, 534648, Note_on_c, 0, 86, 55
1, 534715, Note_off_c, 0, 86, 60
1, 534722, Note_on_c, 0, 87, 59
1, 534772, Control_c, 0, 64, 111
1, 534781, Note_off_c, 0, 87, 60
1, 534787, Control_c, 0, 64, 95
1, 534802, Control_c, 0, 64, 92
1, 534814, Note_on_c, 0, 83, 51
1, 534832, Control_c, 0, 64, 94
1, 534844, Note_on_c, 0, 88, 41
1, 534846, Note_on_c, 0, 86, 44
1, 534846, Control_c, 0, 64, 99
1, 534861, Control_c, 0, 64, 111
1, 534862, Note_off_c, 0, 83, 54
1, 534876, Control_c, 0, 64, 127
1, 534892, Note_off_c, 0, 86, 49
1, 534898, Note_off_c, 0, 88, 46
1, 534919, Note_on_c, 0, 80, 37
1, 534943, Note_on_c, 0, 87, 37
1, 534947, Note_off_c, 0, 80, 52
1, 534981, Note_off_c, 0, 87, 56
1, 534993, Note_on_c, 0, 83, 56
1, 535029, Note_on_c, 0, 86, 44
1, 535029, Note_on_c, 0, 88, 31
1, 535029, Note_off_c, 0, 83, 61
1, 535050, Note_off_c, 0, 86, 54
1, 535050, Poly_aftertouch_c, 0, 89, 0
1, 535053, Note_off_c, 0, 88, 49
1, 535056, Note_on_c, 0, 80, 41
1, 535071, Note_on_c, 0, 89, 19
1, 535074, Note_on_c, 0, 87, 55
1, 535095, Note_on_c, 0, 82, 21
1, 535095, Note_off_c, 0, 80, 62
1, 535095, Note_off_c, 0, 87, 61
1, 535106, Note_off_c, 0, 89, 62
1, 535125, Note_off_c, 0, 82, 43
1, 535141, Note_on_c, 0, 83, 43
1, 535145, Note_on_c, 0, 88, 39
1, 535147, Note_on_c, 0, 86, 43
1, 535164, Control_c, 0, 67, 127
1, 535167, Note_off_c, 0, 83, 56
1, 535168, Note_off_c, 0, 86, 57
1, 535170, Note_off_c, 0, 88, 49
1, 535178, Control_c, 0, 67, 126
1, 535180, Note_on_c, 0, 87, 55
1, 535193, Control_c, 0, 67, 125
1, 535196, Note_on_c, 0, 80, 49
1, 535206, Note_off_c, 0, 87, 55
1, 535208, Control_c, 0, 67, 125
1, 535209, Note_on_c, 0, 89, 46
1, 535223, Note_off_c, 0, 80, 63
1, 535231, Note_off_c, 0, 89, 55
1, 535238, Control_c, 0, 67, 124
1, 535246, Note_on_c, 0, 86, 56
1, 535247, Note_on_c, 0, 88, 50
1, 535252, Control_c, 0, 67, 124
1, 535253, Note_on_c, 0, 83, 54
1, 535267, Control_c, 0, 67, 123
1, 535276, Note_off_c, 0, 86, 62
1, 535279, Note_off_c, 0, 88, 54
1, 535282, Control_c, 0, 67, 122
1, 535291, Note_off_c, 0, 83, 60
1, 535298, Control_c, 0, 67, 121
1, 535300, Note_on_c, 0, 87, 52
1, 535301, Poly_aftertouch_c, 0, 82, 0
1, 535303, Note_on_c, 0, 89, 62
1, 535311, Note_on_c, 0, 80, 54
1, 535313, Control_c, 0, 67, 120
1, 535327, Note_off_c, 0, 87, 57
1, 535327, Control_c, 0, 67, 118
1, 535333, Note_off_c, 0, 89, 65
1, 535342, Note_off_c, 0, 80, 65
1, 535342, Control_c, 0, 67, 117
1, 535357, Control_c, 0, 67, 116
1, 535372, Control_c, 0, 67, 114
1, 535377, Note_on_c, 0, 86, 52
1, 535377, Note_on_c, 0, 88, 44
1, 535378, Note_on_c, 0, 83, 59
1, 535381, Poly_aftertouch_c, 0, 82, 0
1, 535387, Control_c, 0, 67, 112
1, 535397, Note_off_c, 0, 86, 60
1, 535399, Note_off_c, 0, 88, 52
1, 535401, Control_c, 0, 67, 111
1, 535411, Note_on_c, 0, 87, 61
1, 535411, Note_off_c, 0, 83, 63
1, 535416, Control_c, 0, 67, 109
1, 535425, Note_on_c, 0, 80, 56
1, 535431, Control_c, 0, 67, 107
1, 535432, Note_on_c, 0, 89, 52
1, 535434, Note_off_c, 0, 87, 60
1, 535446, Control_c, 0, 67, 103
1, 535452, Note_off_c, 0, 89, 61
1, 535454, Note_off_c, 0, 80, 66
1, 535461, Control_c, 0, 67, 100
1, 535470, Note_on_c, 0, 88, 58
1, 535474, Note_on_c, 0, 86, 60
1, 535476, Control_c, 0, 67, 96
1, 535488, Note_on_c, 0, 83, 57
1, 535491, Control_c, 0, 67, 93
1, 535500, Note_off_c, 0, 86, 65
1, 535504, Note_off_c, 0, 88, 52
1, 535506, Control_c, 0, 67, 90
1, 535515, Note_on_c, 0, 87, 56
1, 535520, Control_c, 0, 67, 88
1, 535523, Note_on_c, 0, 89, 65
1, 535523, Note_off_c, 0, 83, 63
1, 535534, Note_on_c, 0, 80, 61
1, 535535, Control_c, 0, 67, 84
1, 535550, Control_c, 0, 67, 80
1, 535554, Note_off_c, 0, 87, 59
1, 535554, Note_off_c, 0, 89, 62
1, 535562, Note_off_c, 0, 80, 67
1, 535565, Control_c, 0, 67, 77
1, 535578, Poly_aftertouch_c, 0, 82, 0
1, 535580, Control_c, 0, 67, 74
1, 535584, Note_on_c, 0, 88, 57
1, 535594, Note_on_c, 0, 86, 41
1, 535594, Control_c, 0, 67, 70
1, 535595, Note_on_c, 0, 83, 63
1, 535607, Note_off_c, 0, 88, 55
1, 535609, Control_c, 0, 67, 66
1, 535615, Note_off_c, 0, 86, 54
1, 535624, Control_c, 0, 67, 62
1, 535631, Note_off_c, 0, 83, 63
1, 535639, Control_c, 0, 67, 57
1, 535640, Note_on_c, 0, 87, 40
1, 535646, Note_on_c, 0, 80, 59
1, 535649, Note_on_c, 0, 89, 52
1, 535654, Control_c, 0, 67, 52
1, 535664, Note_off_c, 0, 87, 50
1, 535668, Note_off_c, 0, 80, 64
1, 535668, Note_off_c, 0, 89, 59
1, 535668, Control_c, 0, 67, 48
1, 535683, Control_c, 0, 67, 42
1, 535687, Note_on_c, 0, 88, 56
1, 535693, Note_on_c, 0, 86, 63
1, 535698, Control_c, 0, 67, 36
1, 535702, Note_on_c, 0, 83, 57
1, 535720, Control_c, 0, 67, 30
1, 535721, Note_off_c, 0, 86, 65
1, 535723, Note_off_c, 0, 88, 58
1, 535735, Control_c, 0, 67, 25
1, 535745, Note_off_c, 0, 83, 62
1, 535746, Note_on_c, 0, 89, 65
1, 535750, Control_c, 0, 67, 20
1, 535753, Note_on_c, 0, 80, 57
1, 535762, Note_on_c, 0, 87, 30
1, 535765, Control_c, 0, 67, 17
1, 535779, Note_off_c, 0, 89, 61
1, 535780, Control_c, 0, 67, 15
1, 535782, Note_off_c, 0, 80, 67
1, 535794, Control_c, 0, 67, 14
1, 535795, Note_off_c, 0, 87, 42
1, 535798, Note_on_c, 0, 88, 71
1, 535809, Control_c, 0, 67, 13
1, 535812, Note_on_c, 0, 83, 59
1, 535812, Note_on_c, 0, 86, 55
1, 535824, Note_off_c, 0, 88, 51
1, 535824, Control_c, 0, 67, 11
1, 535832, Note_off_c, 0, 86, 56
1, 535839, Control_c, 0, 67, 10
1, 535847, Note_on_c, 0, 87, 42
1, 535849, Note_off_c, 0, 83, 60
1, 535853, Control_c, 0, 67, 9
1, 535859, Note_on_c, 0, 80, 63
1, 535864, Note_on_c, 0, 89, 55
1, 535868, Control_c, 0, 67, 8
1, 535875, Note_off_c, 0, 87, 49
1, 535883, Note_off_c, 0, 89, 61
1, 535883, Control_c, 0, 67, 0
1, 535884, Note_off_c, 0, 80, 68
1, 535901, Note_on_c, 0, 88, 73
1, 535914, Note_on_c, 0, 86, 57
1, 535917, Note_on_c, 0, 83, 61
1, 535932, Note_off_c, 0, 86, 62
1, 535937, Note_off_c, 0, 88, 57
1, 535947, Note_on_c, 0, 87, 48
1, 535951, Note_on_c, 0, 89, 67
1, 535955, Note_off_c, 0, 83, 61
1, 535965, Note_on_c, 0, 80, 64
1, 535968, Note_off_c, 0, 87, 60
1, 535983, Note_off_c, 0, 89, 58
1, 535990, Note_off_c, 0, 80, 68
1, 536001, Note_on_c, 0, 88, 64
1, 536010, Note_on_c, 0, 86, 59
1, 536019, Note_on_c, 0, 83, 62
1, 536033, Poly_aftertouch_c, 0, 82, 0
1, 536036, Note_off_c, 0, 86, 63
1, 536042, Note_off_c, 0, 88, 62
1, 536055, Note_on_c, 0, 87, 51
1, 536059, Note_off_c, 0, 83, 60
1, 536065, Note_on_c, 0, 89, 61
1, 536066, Note_on_c, 0, 80, 63
1, 536078, Note_off_c, 0, 87, 57
1, 536084, Note_off_c, 0, 89, 61
1, 536090, Note_on_c, 0, 82, 20
1, 536093, Note_off_c, 0, 80, 66
1, 536105, Note_on_c, 0, 88, 65
1, 536113, Note_on_c, 0, 86, 63
1, 536121, Note_off_c, 0, 82, 41
1, 536123, Note_on_c, 0, 83, 67
1, 536137, Note_off_c, 0, 86, 68
1, 536144, Note_off_c, 0, 88, 62
1, 536153, Note_on_c, 0, 89, 71
1, 536160, Note_on_c, 0, 87, 51
1, 536168, Note_off_c, 0, 83, 62
1, 536170, Note_on_c, 0, 80, 62
1, 536179, Note_off_c, 0, 89, 63
1, 536181, Note_off_c, 0, 87, 58
1, 536188, Note_on_c, 0, 82, 38
1, 536194, Note_off_c, 0, 80, 68
1, 536210, Note_on_c, 0, 88, 67
1, 536217, Note_on_c, 0, 86, 63
1, 536218, Note_off_c, 0, 82, 46
1, 536224, Note_on_c, 0, 83, 64
1, 536243, Note_off_c, 0, 86, 68
1, 536247, Note_off_c, 0, 88, 62
1, 536259, Note_on_c, 0, 89, 73
1, 536263, Note_on_c, 0, 87, 50
1, 536269, Note_off_c, 0, 83, 63
1, 536274, Note_on_c, 0, 80, 64
1, 536281, Note_off_c, 0, 89, 70
1, 536285, Note_off_c, 0, 87, 54
1, 536299, Note_off_c, 0, 80, 68
1, 536311, Note_on_c, 0, 88, 71
1, 536320, Note_on_c, 0, 86, 70
1, 536325, Note_on_c, 0, 83, 71
1, 536342, Note_off_c, 0, 86, 69
1, 536346, Note_off_c, 0, 88, 63
1, 536352, Poly_aftertouch_c, 0, 82, 0
1, 536358, Note_on_c, 0, 89, 76
1, 536365, Note_on_c, 0, 87, 44
1, 536370, Note_on_c, 0, 80, 71
1, 536373, Note_off_c, 0, 83, 64
1, 536376, Note_off_c, 0, 89, 67
1, 536388, Note_off_c, 0, 87, 58
1, 536389, Poly_aftertouch_c, 0, 82, 127
1, 536396, Note_off_c, 0, 80, 65
1, 536409, Note_on_c, 0, 88, 75
1, 536418, Note_on_c, 0, 86, 72
1, 536424, Note_on_c, 0, 83, 67
1, 536424, Poly_aftertouch_c, 0, 82, 0
1, 536441, Note_off_c, 0, 86, 67
1, 536446, Note_on_c, 0, 89, 74
1, 536451, Note_on_c, 0, 87, 51
1, 536451, Note_off_c, 0, 88, 64
1, 536480, Note_off_c, 0, 87, 56
1, 536481, Note_on_c, 0, 80, 62
1, 536481, Note_off_c, 0, 83, 65
1, 536492, Note_off_c, 0, 89, 54
1, 536506, Note_on_c, 0, 82, 47
1, 536507, Note_off_c, 0, 80, 66
1, 536515, Note_on_c, 0, 88, 68
1, 536522, Note_on_c, 0, 86, 71
1, 536530, Note_off_c, 0, 82, 52
1, 536532, Note_on_c, 0, 83, 70
1, 536547, Note_off_c, 0, 86, 63
1, 536553, Note_on_c, 0, 87, 48
1, 536555, Note_off_c, 0, 88, 66
1, 536556, Note_on_c, 0, 89, 78
1, 536573, Note_on_c, 0, 80, 67
1, 536575, Note_off_c, 0, 87, 57
1, 536576, Note_off_c, 0, 83, 65
1, 536581, Note_off_c, 0, 89, 61
1, 536600, Note_off_c, 0, 80, 64
1, 536601, Note_on_c, 0, 82, 61
1, 536615, Note_on_c, 0, 88, 71
1, 536621, Note_off_c, 0, 82, 63
1, 536624, Note_on_c, 0, 86, 61
1, 536632, Note_on_c, 0, 83, 78
1, 536639, Note_on_c, 0, 87, 49
1, 536647, Note_on_c, 0, 89, 88
1, 536649, Note_off_c, 0, 86, 66
1, 536651, Note_off_c, 0, 88, 63
1, 536665, Note_off_c, 0, 87, 61
1, 536674, Note_off_c, 0, 83, 64
1, 536680, Note_on_c, 0, 80, 55
1, 536685, Note_off_c, 0, 89, 52
1, 536689, Note_on_c, 0, 82, 76
1, 536701, Note_off_c, 0, 80, 61
1, 536709, Note_on_c, 0, 88, 76
1, 536710, Note_on_c, 0, 86, 68
1, 536734, Note_on_c, 0, 83, 69
1, 536742, Note_on_c, 0, 89, 92
1, 536743, Note_off_c, 0, 86, 59
1, 536745, Note_off_c, 0, 88, 64
1, 536760, Note_off_c, 0, 83, 65
1, 536784, Note_off_c, 0, 89, 59
1, 536795, Note_on_c, 0, 80, 11
1, 536797, Note_on_c, 0, 91, 5
1, 536798, Note_off_c, 0, 91, 127
1, 536801, Note_on_c, 0, 86, 80
1, 536819, Note_on_c, 0, 88, 62
1, 536821, Note_on_c, 0, 83, 82
1, 536827, Note_on_c, 0, 87, 23
1, 536828, Note_off_c, 0, 80, 0
1, 536837, Note_on_c, 0, 89, 76
1, 536838, Note_off_c, 0, 88, 40
1, 536842, Note_off_c, 0, 86, 61
1, 536849, Note_on_c, 0, 80, 30
1, 536851, Poly_aftertouch_c, 0, 91, 0
1, 536855, Note_off_c, 0, 82, 62
1, 536866, Note_off_c, 0, 89, 64
1, 536872, Note_off_c, 0, 83, 65
1, 536875, Note_off_c, 0, 87, 66
1, 536896, Note_off_c, 0, 80, 63
1, 536937, Note_on_c, 0, 88, 82
1, 536970, Note_on_c, 0, 86, 70
1, 537012, Note_off_c, 0, 88, 64
1, 537018, Note_on_c, 0, 83, 62
1, 537041, Note_off_c, 0, 86, 65
1, 537044, Note_on_c, 0, 80, 59
1, 537045, Note_off_c, 0, 83, 66
1, 537069, Note_off_c, 0, 80, 67
1, 537084, Note_on_c, 0, 74, 44
1, 537098, Note_on_c, 0, 77, 30
1, 537109, Control_c, 0, 67, 8
1, 537110, Note_off_c, 0, 74, 53
1, 537119, Note_on_c, 0, 73, 51
1, 537124, Control_c, 0, 67, 10
1, 537131, Note_off_c, 0, 77, 47
1, 537139, Control_c, 0, 67, 12
1, 537154, Control_c, 0, 67, 13
1, 537161, Note_on_c, 0, 68, 58
1, 537168, Control_c, 0, 67, 14
1, 537183, Note_off_c, 0, 73, 62
1, 537183, Control_c, 0, 67, 16
1, 537190, Note_off_c, 0, 68, 67
1, 537198, Control_c, 0, 67, 17
1, 537221, Control_c, 0, 67, 18
1, 537236, Control_c, 0, 67, 19
1, 537250, Control_c, 0, 67, 21
1, 537254, Note_on_c, 0, 76, 64
1, 537265, Control_c, 0, 67, 22
1, 537280, Control_c, 0, 64, 97
1, 537280, Control_c, 0, 67, 23
1, 537294, Control_c, 0, 64, 84
1, 537294, Control_c, 0, 67, 23
1, 537303, Note_on_c, 0, 74, 64
1, 537309, Control_c, 0, 64, 76
1, 537309, Control_c, 0, 67, 24
1, 537324, Control_c, 0, 64, 70
1, 537324, Control_c, 0, 67, 24
1, 537339, Control_c, 0, 64, 65
1, 537354, Control_c, 0, 64, 61
1, 537368, Control_c, 0, 64, 57
1, 537369, Note_off_c, 0, 76, 55
1, 537381, Note_on_c, 0, 68, 60
1, 537383, Control_c, 0, 64, 55
1, 537398, Control_c, 0, 67, 24
1, 537405, Note_off_c, 0, 74, 55
1, 537413, Note_off_c, 0, 68, 63
1, 537417, Note_on_c, 0, 62, 30
1, 537427, Control_c, 0, 64, 57
1, 537442, Control_c, 0, 64, 61
1, 537453, Note_off_c, 0, 62, 55
1, 537457, Control_c, 0, 64, 67
1, 537464, Note_on_c, 0, 65, 53
1, 537472, Control_c, 0, 64, 75
1, 537482, Poly_aftertouch_c, 0, 64, 0
1, 537487, Control_c, 0, 64, 84
1, 537487, Control_c, 0, 67, 24
1, 537501, Control_c, 0, 64, 94
1, 537512, Note_on_c, 0, 61, 32
1, 537516, Control_c, 0, 64, 97
1, 537516, Control_c, 0, 67, 25
1, 537531, Control_c, 0, 64, 99
1, 537531, Control_c, 0, 67, 26
1, 537546, Control_c, 0, 64, 100
1, 537546, Control_c, 0, 67, 28
1, 537561, Control_c, 0, 64, 101
1, 537561, Control_c, 0, 67, 30
1, 537576, Control_c, 0, 64, 102
1, 537576, Control_c, 0, 67, 32
1, 537589, Note_off_c, 0, 65, 46
1, 537590, Control_c, 0, 64, 103
1, 537590, Control_c, 0, 67, 34
1, 537605, Control_c, 0, 67, 36
1, 537610, Note_on_c, 0, 56, 37
1, 537620, Control_c, 0, 67, 38
1, 537635, Control_c, 0, 67, 41
1, 537636, Note_off_c, 0, 61, 34
1, 537650, Control_c, 0, 67, 45
1, 537665, Control_c, 0, 67, 48
1, 537680, Control_c, 0, 67, 51
1, 537695, Control_c, 0, 67, 53
1, 537710, Control_c, 0, 67, 55
1, 537725, Control_c, 0, 67, 58
1, 537740, Control_c, 0, 67, 60
1, 537754, Control_c, 0, 67, 62
1, 537769, Note_on_c, 0, 71, 32
1, 537769, Control_c, 0, 67, 64
1, 537784, Control_c, 0, 67, 65
1, 537799, Control_c, 0, 67, 65
1, 537814, Control_c, 0, 64, 102
1, 537814, Control_c, 0, 67, 66
1, 537829, Control_c, 0, 64, 100
1, 537843, Control_c, 0, 64, 96
1, 537843, Control_c, 0, 67, 66
1, 537858, Control_c, 0, 64, 88
1, 537873, Control_c, 0, 64, 78
1, 537873, Control_c, 0, 67, 67
1, 537883, Note_on_c, 0, 66, 66
1, 537888, Control_c, 0, 64, 68
1, 537888, Control_c, 0, 67, 67
1, 537903, Control_c, 0, 64, 60
1, 537903, Control_c, 0, 67, 68
1, 537908, Note_on_c, 0, 62, 36
1, 537917, Control_c, 0, 64, 53
1, 537932, Control_c, 0, 64, 50
1, 537962, Control_c, 0, 64, 52
1, 537984, Control_c, 0, 64, 56
1, 537999, Control_c, 0, 64, 62
1, 537999, Control_c, 0, 67, 68
1, 538014, Control_c, 0, 64, 68
1, 538014, Control_c, 0, 67, 69
1, 538029, Control_c, 0, 64, 76
1, 538029, Control_c, 0, 67, 69
1, 538043, Control_c, 0, 64, 86
1, 538043, Control_c, 0, 67, 70
1, 538058, Control_c, 0, 64, 95
1, 538058, Control_c, 0, 67, 71
1, 538073, Control_c, 0, 64, 99
1, 538088, Control_c, 0, 64, 103
1, 538092, Note_on_c, 0, 68, 46
1, 538103, Control_c, 0, 64, 108
1, 538103, Control_c, 0, 67, 71
1, 538112, Note_off_c, 0, 71, 36
1, 538117, Control_c, 0, 64, 117
1, 538117, Control_c, 0, 67, 72
1, 538132, Control_c, 0, 64, 127
1, 538147, Control_c, 0, 67, 72
1, 538149, Note_off_c, 0, 68, 50
1, 538162, Control_c, 0, 67, 73
1, 538175, Note_off_c, 0, 66, 53
1, 538177, Control_c, 0, 67, 73
1, 538190, Note_on_c, 0, 64, 41
1, 538191, Control_c, 0, 67, 74
1, 538206, Control_c, 0, 67, 74
1, 538221, Control_c, 0, 67, 75
1, 538226, Note_off_c, 0, 62, 38
1, 538236, Control_c, 0, 67, 76
1, 538243, Note_off_c, 0, 64, 56
1, 538250, Control_c, 0, 67, 78
1, 538265, Control_c, 0, 67, 80
1, 538279, Note_on_c, 0, 67, 47
1, 538280, Control_c, 0, 67, 82
1, 538295, Control_c, 0, 67, 84
1, 538310, Control_c, 0, 67, 86
1, 538324, Control_c, 0, 67, 88
1, 538329, Note_off_c, 0, 67, 58
1, 538339, Control_c, 0, 67, 91
1, 538354, Control_c, 0, 67, 93
1, 538360, Note_on_c, 0, 71, 48
1, 538369, Control_c, 0, 67, 96
1, 538384, Control_c, 0, 67, 98
1, 538398, Control_c, 0, 67, 100
1, 538413, Control_c, 0, 67, 101
1, 538428, Control_c, 0, 67, 103
1, 538443, Control_c, 0, 67, 105
1, 538447, Note_on_c, 0, 68, 42
1, 538458, Control_c, 0, 67, 107
1, 538473, Control_c, 0, 67, 110
1, 538488, Control_c, 0, 67, 112
1, 538490, Note_off_c, 0, 71, 28
1, 538503, Control_c, 0, 67, 114
1, 538518, Control_c, 0, 67, 115
1, 538533, Note_on_c, 0, 64, 44
1, 538533, Control_c, 0, 67, 117
1, 538541, Note_on_c, 0, 65, 58
1, 538547, Control_c, 0, 67, 118
1, 538553, Note_off_c, 0, 68, 28
1, 538562, Control_c, 0, 67, 119
1, 538574, Note_on_c, 0, 61, 45
1, 538577, Control_c, 0, 67, 120
1, 538622, Note_off_c, 0, 65, 63
1, 538627, Note_on_c, 0, 67, 45
1, 538637, Control_c, 0, 67, 120
1, 538655, Note_off_c, 0, 64, 32
1, 538666, Control_c, 0, 67, 119
1, 538681, Control_c, 0, 67, 119
1, 538696, Control_c, 0, 67, 118
1, 538697, Note_off_c, 0, 67, 51
1, 538733, Control_c, 0, 64, 105
1, 538742, Note_on_c, 0, 71, 49
1, 538747, Control_c, 0, 64, 91
1, 538762, Control_c, 0, 64, 79
1, 538772, Note_on_c, 0, 66, 58
1, 538777, Control_c, 0, 64, 67
1, 538777, Control_c, 0, 67, 118
1, 538785, Note_off_c, 0, 61, 31
1, 538792, Control_c, 0, 64, 50
1, 538797, Note_on_c, 0, 62, 40
1, 538807, Control_c, 0, 64, 14
1, 538807, Control_c, 0, 67, 119
1, 538822, Control_c, 0, 64, 0
1, 538822, Control_c, 0, 67, 119
1, 538836, Control_c, 0, 67, 120
1, 538871, Note_on_c, 0, 68, 34
1, 538881, Note_off_c, 0, 71, 36
1, 538881, Control_c, 0, 64, 14
1, 538896, Control_c, 0, 64, 47
1, 538911, Control_c, 0, 64, 61
1, 538911, Control_c, 0, 67, 119
1, 538926, Control_c, 0, 64, 66
1, 538940, Control_c, 0, 64, 69
1, 538955, Control_c, 0, 64, 72
1, 538961, Note_on_c, 0, 64, 42
1, 538970, Control_c, 0, 64, 77
1, 538983, Note_off_c, 0, 68, 34
1, 538985, Control_c, 0, 64, 81
1, 538999, Control_c, 0, 64, 86
1, 539014, Control_c, 0, 64, 90
1, 539029, Control_c, 0, 64, 92
1, 539029, Control_c, 0, 67, 120
1, 539033, Note_off_c, 0, 64, 45
1, 539035, Note_off_c, 0, 66, 49
1, 539044, Control_c, 0, 64, 93
1, 539044, Control_c, 0, 67, 120
1, 539047, Note_on_c, 0, 67, 42
1, 539051, Note_off_c, 0, 62, 56
1, 539059, Control_c, 0, 64, 94
1, 539059, Control_c, 0, 67, 121
1, 539073, Control_c, 0, 67, 121
1, 539088, Control_c, 0, 64, 94
1, 539088, Control_c, 0, 67, 123
1, 539102, Note_off_c, 0, 67, 47
1, 539103, Control_c, 0, 67, 126
1, 539118, Control_c, 0, 67, 127
1, 539128, Note_on_c, 0, 71, 45
1, 539242, Note_on_c, 0, 68, 39
1, 539262, Note_off_c, 0, 71, 31
1, 539367, Note_on_c, 0, 64, 34
1, 539407, Note_on_c, 0, 65, 51
1, 539423, Note_on_c, 0, 61, 38
1, 539429, Note_off_c, 0, 68, 19
1, 539509, Note_off_c, 0, 65, 61
1, 539531, Note_off_c, 0, 64, 41
1, 539551, Note_on_c, 0, 67, 28
1, 539669, Note_off_c, 0, 67, 27
1, 539703, Control_c, 0, 64, 94
1, 539710, Note_on_c, 0, 71, 36
1, 539718, Control_c, 0, 64, 92
1, 539733, Control_c, 0, 64, 88
1, 539737, Note_on_c, 0, 66, 51
1, 539748, Control_c, 0, 64, 83
1, 539752, Note_off_c, 0, 61, 33
1, 539761, Note_on_c, 0, 62, 39
1, 539763, Control_c, 0, 64, 76
1, 539777, Control_c, 0, 64, 68
1, 539792, Control_c, 0, 64, 61
1, 539807, Control_c, 0, 64, 52
1, 539821, Control_c, 0, 64, 50
1, 539836, Control_c, 0, 64, 53
1, 539851, Control_c, 0, 64, 58
1, 539865, Note_off_c, 0, 71, 44
1, 539866, Control_c, 0, 64, 63
1, 539879, Note_on_c, 0, 68, 35
1, 539881, Control_c, 0, 64, 68
1, 539895, Control_c, 0, 64, 72
1, 539910, Control_c, 0, 64, 77
1, 539925, Control_c, 0, 64, 79
1, 539932, Note_off_c, 0, 68, 58
1, 539940, Control_c, 0, 64, 81
1, 539955, Control_c, 0, 64, 83
1, 539959, Note_on_c, 0, 64, 44
1, 539969, Control_c, 0, 64, 85
1, 539984, Control_c, 0, 64, 87
1, 539999, Control_c, 0, 64, 89
1, 540014, Control_c, 0, 64, 91
1, 540029, Control_c, 0, 64, 91
1, 540029, Note_off_c, 0, 64, 52
1, 540044, Control_c, 0, 64, 92
1, 540059, Control_c, 0, 64, 92
1, 540068, Note_on_c, 0, 67, 36
1, 540074, Control_c, 0, 64, 93
1, 540089, Control_c, 0, 64, 93
1, 540106, Note_off_c, 0, 67, 53
1, 540118, Control_c, 0, 64, 94
1, 540139, Note_on_c, 0, 71, 43
1, 540179, Control_c, 0, 64, 94
1, 540199, Note_off_c, 0, 71, 52
1, 540243, Note_on_c, 0, 68, 36
1, 540309, Note_off_c, 0, 68, 39
1, 540331, Note_on_c, 0, 64, 34
1, 540369, Note_off_c, 0, 64, 49
1, 540416, Note_on_c, 0, 67, 38
1, 540449, Note_off_c, 0, 67, 52
1, 540490, Note_on_c, 0, 71, 42
1, 540553, Note_off_c, 0, 71, 47
1, 540576, Note_on_c, 0, 68, 39
1, 540629, Note_off_c, 0, 68, 43
1, 540655, Note_on_c, 0, 64, 40
1, 540699, Note_off_c, 0, 64, 48
1, 540745, Note_on_c, 0, 67, 40
1, 540790, Note_off_c, 0, 67, 49
1, 540817, Note_on_c, 0, 71, 45
1, 540823, Control_c, 0, 64, 94
1, 540866, Note_off_c, 0, 71, 57
1, 540899, Note_on_c, 0, 68, 44
1, 540912, Control_c, 0, 64, 93
1, 540941, Control_c, 0, 64, 93
1, 540992, Note_on_c, 0, 64, 41
1, 541001, Note_off_c, 0, 68, 36
1, 541008, Control_c, 0, 64, 92
1, 541045, Note_off_c, 0, 64, 55
1, 541053, Control_c, 0, 64, 92
1, 541073, Note_on_c, 0, 67, 49
1, 541097, Control_c, 0, 64, 91
1, 541106, Note_off_c, 0, 67, 59
1, 541127, Control_c, 0, 64, 90
1, 541141, Note_on_c, 0, 71, 47
1, 541141, Control_c, 0, 64, 90
1, 541156, Control_c, 0, 64, 88
1, 541171, Control_c, 0, 64, 84
1, 541185, Control_c, 0, 64, 80
1, 541193, Note_off_c, 0, 71, 54
1, 541200, Control_c, 0, 64, 76
1, 541215, Control_c, 0, 64, 75
1, 541224, Note_on_c, 0, 68, 42
1, 541266, Note_off_c, 0, 68, 46
1, 541275, Control_c, 0, 64, 75
1, 541290, Control_c, 0, 64, 76
1, 541290, Note_on_c, 0, 64, 50
1, 541305, Control_c, 0, 64, 77
1, 541320, Control_c, 0, 64, 77
1, 541337, Note_off_c, 0, 64, 56
1, 541374, Note_on_c, 0, 67, 53
1, 541379, Control_c, 0, 64, 77
1, 541393, Control_c, 0, 64, 74
1, 541408, Control_c, 0, 64, 71
1, 541416, Note_off_c, 0, 67, 60
1, 541423, Control_c, 0, 64, 67
1, 541438, Control_c, 0, 64, 65
1, 541444, Note_on_c, 0, 71, 51
1, 541467, Control_c, 0, 64, 66
1, 541482, Control_c, 0, 64, 67
1, 541503, Note_off_c, 0, 71, 53
1, 541512, Control_c, 0, 64, 65
1, 541527, Control_c, 0, 64, 63
1, 541528, Note_on_c, 0, 68, 48
1, 541541, Control_c, 0, 64, 59
1, 541556, Control_c, 0, 64, 55
1, 541567, Note_off_c, 0, 68, 62
1, 541571, Control_c, 0, 64, 53
1, 541585, Control_c, 0, 64, 52
1, 541595, Note_on_c, 0, 64, 54
1, 541642, Note_off_c, 0, 64, 57
1, 541644, Control_c, 0, 64, 53
1, 541659, Control_c, 0, 64, 54
1, 541674, Control_c, 0, 64, 56
1, 541686, Note_on_c, 0, 67, 53
1, 541689, Control_c, 0, 64, 59
1, 541712, Control_c, 0, 64, 62
1, 541727, Control_c, 0, 64, 65
1, 541731, Note_off_c, 0, 67, 62
1, 541742, Control_c, 0, 64, 68
1, 541749, Note_on_c, 0, 71, 56
1, 541757, Control_c, 0, 64, 71
1, 541771, Control_c, 0, 64, 73
1, 541786, Control_c, 0, 64, 75
1, 541801, Control_c, 0, 64, 77
1, 541815, Control_c, 0, 64, 78
1, 541823, Note_off_c, 0, 66, 53
1, 541830, Control_c, 0, 64, 79
1, 541838, Note_on_c, 0, 68, 51
1, 541845, Control_c, 0, 64, 79
1, 541860, Control_c, 0, 64, 80
1, 541865, Note_off_c, 0, 62, 41
1, 541875, Control_c, 0, 64, 80
1, 541887, Note_off_c, 0, 71, 31
1, 541888, Note_off_c, 0, 68, 56
1, 541904, Control_c, 0, 64, 81
1, 541917, Note_on_c, 0, 64, 56
1, 541949, Control_c, 0, 64, 81
1, 541955, Note_on_c, 0, 61, 42
1, 541956, Note_off_c, 0, 64, 60
1, 541997, Note_on_c, 0, 65, 56
1, 542008, Control_c, 0, 64, 81
1, 542023, Note_off_c, 0, 61, 55
1, 542024, Note_off_c, 0, 65, 57
1, 542036, Note_off_c, 0, 56, 28
1, 542038, Control_c, 0, 64, 79
1, 542053, Control_c, 0, 64, 77
1, 542057, Note_on_c, 0, 62, 49
1, 542068, Control_c, 0, 64, 74
1, 542068, Note_on_c, 0, 66, 64
1, 542082, Control_c, 0, 64, 70
1, 542097, Control_c, 0, 64, 65
1, 542101, Note_off_c, 0, 66, 62
1, 542112, Control_c, 0, 64, 62
1, 542127, Control_c, 0, 64, 61
1, 542158, Note_on_c, 0, 67, 58
1, 542172, Note_off_c, 0, 62, 34
1, 542173, Note_on_c, 0, 63, 45
1, 542196, Note_off_c, 0, 67, 58
1, 542233, Note_off_c, 0, 63, 51
1, 542247, Note_on_c, 0, 68, 52
1, 542286, Note_on_c, 0, 64, 43
1, 542286, Note_off_c, 0, 68, 61
1, 542339, Note_on_c, 0, 69, 52
1, 542384, Note_on_c, 0, 55, 39
1, 542477, Note_on_c, 0, 61, 31
1, 542506, Control_c, 0, 64, 60
1, 542535, Control_c, 0, 64, 60
1, 542550, Control_c, 0, 64, 59
1, 542564, Control_c, 0, 64, 59
1, 542579, Control_c, 0, 64, 58
1, 542594, Control_c, 0, 64, 58
1, 542609, Control_c, 0, 64, 57
1, 542624, Control_c, 0, 64, 56
1, 542638, Control_c, 0, 64, 55
1, 542653, Control_c, 0, 64, 54
1, 542668, Control_c, 0, 64, 53
1, 542683, Control_c, 0, 64, 52
1, 542689, Note_on_c, 0, 70, 37
1, 542696, Note_off_c, 0, 69, 35
1, 542698, Control_c, 0, 64, 50
1, 542712, Control_c, 0, 64, 47
1, 542727, Control_c, 0, 64, 44
1, 542742, Control_c, 0, 64, 41
1, 542756, Control_c, 0, 64, 37
1, 542761, Note_off_c, 0, 64, 29
1, 542763, Note_on_c, 0, 65, 34
1, 542771, Control_c, 0, 64, 32
1, 542786, Control_c, 0, 64, 27
1, 542801, Control_c, 0, 64, 21
1, 542816, Control_c, 0, 64, 16
1, 542831, Control_c, 0, 64, 13
1, 542846, Control_c, 0, 64, 13
1, 542920, Control_c, 0, 64, 13
1, 542935, Control_c, 0, 64, 14
1, 542950, Control_c, 0, 64, 14
1, 542964, Control_c, 0, 64, 15
1, 542979, Control_c, 0, 64, 16
1, 542994, Control_c, 0, 64, 17
1, 543009, Control_c, 0, 64, 18
1, 543038, Control_c, 0, 64, 18
1, 543083, Control_c, 0, 64, 19
1, 543112, Control_c, 0, 64, 19
1, 543143, Control_c, 0, 64, 20
1, 543157, Control_c, 0, 64, 21
1, 543172, Control_c, 0, 64, 21
1, 543209, Control_c, 0, 64, 22
1, 543224, Control_c, 0, 64, 23
1, 543239, Control_c, 0, 64, 23
1, 543254, Control_c, 0, 64, 24
1, 543300, Note_off_c, 0, 65, 32
1, 543359, Control_c, 0, 64, 23
1, 543364, Note_off_c, 0, 70, 45
1, 543373, Control_c, 0, 64, 22
1, 543378, Note_on_c, 0, 64, 34
1, 543399, Note_on_c, 0, 69, 30
1, 543448, Control_c, 0, 64, 24
1, 543462, Control_c, 0, 64, 31
1, 543473, Note_off_c, 0, 69, 48
1, 543477, Control_c, 0, 64, 44
1, 543492, Control_c, 0, 64, 55
1, 543498, Note_on_c, 0, 70, 38
1, 543507, Control_c, 0, 64, 62
1, 543520, Note_off_c, 0, 64, 30
1, 543521, Control_c, 0, 64, 64
1, 543523, Note_on_c, 0, 65, 25
1, 543536, Control_c, 0, 64, 66
1, 543551, Control_c, 0, 64, 68
1, 543566, Control_c, 0, 64, 71
1, 543580, Control_c, 0, 64, 77
1, 543595, Control_c, 0, 64, 83
1, 543610, Control_c, 0, 64, 89
1, 543625, Control_c, 0, 64, 95
1, 543640, Control_c, 0, 64, 102
1, 543642, Note_on_c, 0, 66, 31
1, 543652, Note_off_c, 0, 55, 38
1, 543654, Control_c, 0, 64, 109
1, 543658, Note_off_c, 0, 70, 39
1, 543669, Note_off_c, 0, 66, 46
1, 543669, Control_c, 0, 64, 127
1, 543683, Note_off_c, 0, 61, 58
1, 543685, Note_off_c, 0, 65, 35
1, 543734, Note_on_c, 0, 67, 36
1, 543770, Note_off_c, 0, 67, 52
1, 543774, Note_on_c, 0, 70, 45
1, 543835, Note_off_c, 0, 70, 54
1, 543849, Note_on_c, 0, 73, 41
1, 543889, Note_off_c, 0, 73, 64
1, 543897, Note_on_c, 0, 77, 47
1, 543928, Note_off_c, 0, 77, 53
1, 543966, Note_on_c, 0, 78, 57
1, 543985, Note_off_c, 0, 78, 63
1, 544054, Note_on_c, 0, 79, 53
1, 544113, Note_on_c, 0, 82, 48
1, 544114, Note_off_c, 0, 79, 57
1, 544149, Note_off_c, 0, 82, 63
1, 544164, Note_on_c, 0, 85, 44
1, 544189, Note_off_c, 0, 85, 63
1, 544199, Note_on_c, 0, 88, 55
1, 544235, Note_off_c, 0, 88, 58
1, 544324, Note_on_c, 0, 87, 44
1, 544363, Note_on_c, 0, 89, 44
1, 544387, Note_on_c, 0, 91, 29
1, 544417, Note_off_c, 0, 91, 33
1, 544428, Note_off_c, 0, 87, 34
1, 544435, Note_on_c, 0, 85, 39
1, 544444, Note_off_c, 0, 89, 52
1, 544469, Note_on_c, 0, 88, 42
1, 544472, Note_on_c, 0, 90, 39
1, 544476, Note_off_c, 0, 85, 60
1, 544502, Note_off_c, 0, 90, 54
1, 544506, Note_off_c, 0, 88, 47
1, 544525, Note_on_c, 0, 87, 44
1, 544551, Note_off_c, 0, 87, 59
1, 544553, Note_on_c, 0, 89, 41
1, 544579, Note_on_c, 0, 85, 52
1, 544581, Note_off_c, 0, 89, 49
1, 544592, Note_on_c, 0, 88, 48
1, 544601, Note_on_c, 0, 90, 41
1, 544602, Note_off_c, 0, 85, 62
1, 544618, Note_off_c, 0, 88, 55
1, 544625, Note_off_c, 0, 90, 58
1, 544637, Note_on_c, 0, 87, 53
1, 544659, Note_on_c, 0, 89, 39
1, 544674, Note_off_c, 0, 87, 62
1, 544688, Note_on_c, 0, 85, 51
1, 544688, Note_off_c, 0, 89, 46
1, 544706, Note_on_c, 0, 82, 19
1, 544713, Note_on_c, 0, 90, 55
1, 544714, Note_on_c, 0, 88, 46
1, 544732, Note_off_c, 0, 85, 63
1, 544739, Note_off_c, 0, 88, 55
1, 544746, Note_off_c, 0, 90, 63
1, 544752, Note_off_c, 0, 82, 41
1, 544766, Note_on_c, 0, 87, 49
1, 544766, Note_on_c, 0, 89, 48
1, 544792, Note_off_c, 0, 89, 51
1, 544798, Note_off_c, 0, 87, 64
1, 544813, Note_on_c, 0, 88, 42
1, 544836, Note_on_c, 0, 82, 24
1, 544842, Note_off_c, 0, 88, 52
1, 544847, Note_on_c, 0, 85, 28
1, 544876, Note_on_c, 0, 87, 59
1, 544876, Note_on_c, 0, 89, 45
1, 544884, Note_off_c, 0, 85, 40
1, 544885, Note_off_c, 0, 82, 35
1, 544903, Note_off_c, 0, 89, 51
1, 544904, Note_off_c, 0, 87, 63
1, 544923, Note_on_c, 0, 88, 46
1, 544932, Note_on_c, 0, 85, 43
1, 544938, Poly_aftertouch_c, 0, 90, 127
1, 544947, Note_off_c, 0, 88, 56
1, 544955, Note_off_c, 0, 85, 62
1, 544966, Poly_aftertouch_c, 0, 90, 0
1, 544971, Note_on_c, 0, 87, 68
1, 544979, Note_on_c, 0, 89, 56
1, 545000, Note_off_c, 0, 89, 58
1, 545010, Note_off_c, 0, 87, 60
1, 545031, Note_on_c, 0, 85, 61
1, 545054, Note_on_c, 0, 88, 19
1, 545058, Note_off_c, 0, 85, 68
1, 545061, Poly_aftertouch_c, 0, 82, 127
1, 545071, Note_on_c, 0, 87, 58
1, 545078, Note_on_c, 0, 89, 55
1, 545091, Note_on_c, 0, 91, 54
1, 545098, Note_off_c, 0, 88, 30
1, 545110, Note_off_c, 0, 91, 57
1, 545113, Note_off_c, 0, 87, 61
1, 545114, Note_off_c, 0, 89, 49
1, 545144, Poly_aftertouch_c, 0, 90, 127
1, 545146, Note_on_c, 0, 90, 5
1, 545150, Note_on_c, 0, 85, 48
1, 545168, Note_off_c, 0, 90, 57
1, 545173, Note_off_c, 0, 85, 57
1, 545174, Poly_aftertouch_c, 0, 82, 0
1, 545177, Poly_aftertouch_c, 0, 88, 0
1, 545177, Note_on_c, 0, 87, 60
1, 545197, Control_c, 0, 67, 126
1, 545201, Note_on_c, 0, 89, 57
1, 545201, Note_on_c, 0, 91, 28
1, 545212, Control_c, 0, 67, 125
1, 545213, Note_off_c, 0, 87, 63
1, 545220, Note_off_c, 0, 89, 62
1, 545226, Note_on_c, 0, 88, 17
1, 545226, Note_off_c, 0, 91, 49
1, 545227, Control_c, 0, 67, 124
1, 545238, Note_on_c, 0, 85, 66
1, 545241, Control_c, 0, 67, 123
1, 545256, Control_c, 0, 67, 123
1, 545260, Note_on_c, 0, 90, 48
1, 545264, Note_off_c, 0, 85, 68
1, 545264, Note_off_c, 0, 88, 55
1, 545271, Control_c, 0, 67, 122
1, 545283, Note_off_c, 0, 90, 57
1, 545285, Note_on_c, 0, 87, 65
1, 545286, Control_c, 0, 67, 121
1, 545299, Note_on_c, 0, 91, 59
1, 545301, Control_c, 0, 67, 119
1, 545302, Note_on_c, 0, 89, 42
1, 545315, Control_c, 0, 67, 118
1, 545316, Note_off_c, 0, 91, 61
1, 545322, Note_off_c, 0, 87, 62
1, 545326, Note_off_c, 0, 89, 51
1, 545330, Control_c, 0, 67, 117
1, 545341, Note_on_c, 0, 85, 67
1, 545345, Control_c, 0, 67, 115
1, 545351, Note_on_c, 0, 90, 57
1, 545359, Control_c, 0, 67, 114
1, 545366, Note_off_c, 0, 85, 67
1, 545369, Note_off_c, 0, 90, 65
1, 545374, Control_c, 0, 67, 113
1, 545387, Note_on_c, 0, 87, 65
1, 545389, Control_c, 0, 67, 111
1, 545391, Note_on_c, 0, 89, 68
1, 545397, Note_on_c, 0, 91, 49
1, 545403, Control_c, 0, 67, 109
1, 545418, Control_c, 0, 67, 108
1, 545420, Note_off_c, 0, 91, 61
1, 545421, Note_off_c, 0, 87, 62
1, 545421, Note_off_c, 0, 89, 55
1, 545433, Control_c, 0, 67, 107
1, 545437, Note_on_c, 0, 85, 68
1, 545438, Note_on_c, 0, 90, 67
1, 545443, Poly_aftertouch_c, 0, 88, 127
1, 545448, Control_c, 0, 67, 104
1, 545468, Note_off_c, 0, 85, 69
1, 545470, Note_off_c, 0, 90, 67
1, 545470, Control_c, 0, 67, 101
1, 545484, Control_c, 0, 67, 98
1, 545496, Note_on_c, 0, 87, 70
1, 545499, Control_c, 0, 67, 96
1, 545512, Note_on_c, 0, 89, 60
1, 545514, Control_c, 0, 67, 94
1, 545515, Note_on_c, 0, 91, 39
1, 545517, Poly_aftertouch_c, 0, 88, 0
1, 545526, Note_on_c, 0, 88, 43
1, 545529, Control_c, 0, 67, 92
1, 545530, Note_off_c, 0, 89, 63
1, 545535, Note_off_c, 0, 87, 60
1, 545538, Note_off_c, 0, 91, 47
1, 545544, Note_on_c, 0, 85, 69
1, 545544, Control_c, 0, 67, 89
1, 545552, Note_on_c, 0, 90, 63
1, 545558, Control_c, 0, 67, 85
1, 545567, Note_off_c, 0, 88, 44
1, 545568, Note_off_c, 0, 85, 67
1, 545573, Control_c, 0, 67, 82
1, 545577, Note_off_c, 0, 90, 66
1, 545588, Control_c, 0, 67, 80
1, 545594, Poly_aftertouch_c, 0, 82, 0
1, 545597, Note_on_c, 0, 87, 69
1, 545600, Note_on_c, 0, 91, 68
1, 545603, Control_c, 0, 67, 77
1, 545609, Note_on_c, 0, 89, 57
1, 545618, Control_c, 0, 67, 74
1, 545627, Note_off_c, 0, 89, 64
1, 545628, Note_off_c, 0, 91, 51
1, 545630, Poly_aftertouch_c, 0, 82, 127
1, 545633, Control_c, 0, 67, 71
1, 545636, Note_on_c, 0, 88, 44
1, 545640, Note_off_c, 0, 87, 61
1, 545645, Note_on_c, 0, 85, 68
1, 545648, Note_on_c, 0, 90, 69
1, 545648, Control_c, 0, 67, 67
1, 545663, Control_c, 0, 67, 64
1, 545672, Note_off_c, 0, 85, 64
1, 545672, Note_off_c, 0, 90, 68
1, 545675, Note_off_c, 0, 88, 39
1, 545678, Control_c, 0, 67, 63
1, 545693, Control_c, 0, 67, 61
1, 545698, Note_on_c, 0, 91, 62
1, 545699, Note_on_c, 0, 87, 67
1, 545702, Note_on_c, 0, 89, 64
1, 545707, Control_c, 0, 67, 58
1, 545722, Control_c, 0, 67, 53
1, 545729, Note_off_c, 0, 89, 65
1, 545730, Note_off_c, 0, 91, 64
1, 545737, Control_c, 0, 67, 46
1, 545738, Note_on_c, 0, 88, 21
1, 545749, Note_on_c, 0, 85, 76
1, 545750, Note_off_c, 0, 87, 63
1, 545752, Note_on_c, 0, 90, 70
1, 545752, Control_c, 0, 67, 40
1, 545754, Note_off_c, 0, 88, 47
1, 545767, Control_c, 0, 67, 36
1, 545774, Note_off_c, 0, 90, 70
1, 545776, Note_off_c, 0, 85, 63
1, 545782, Control_c, 0, 67, 32
1, 545797, Control_c, 0, 67, 27
1, 545799, Note_on_c, 0, 91, 68
1, 545800, Note_on_c, 0, 87, 64
1, 545800, Note_on_c, 0, 89, 62
1, 545812, Control_c, 0, 67, 22
1, 545827, Control_c, 0, 67, 16
1, 545827, Note_off_c, 0, 91, 66
1, 545839, Note_off_c, 0, 89, 64
1, 545842, Control_c, 0, 67, 12
1, 545849, Note_off_c, 0, 87, 65
1, 545851, Note_on_c, 0, 90, 72
1, 545853, Note_on_c, 0, 85, 79
1, 545856, Control_c, 0, 67, 11
1, 545871, Control_c, 0, 67, 9
1, 545874, Note_off_c, 0, 90, 69
1, 545877, Note_off_c, 0, 85, 63
1, 545883, Note_on_c, 0, 89, 51
1, 545886, Control_c, 0, 67, 8
1, 545900, Control_c, 0, 67, 0
1, 545901, Note_on_c, 0, 87, 75
1, 545913, Poly_aftertouch_c, 0, 82, 0
1, 545937, Note_off_c, 0, 89, 65
1, 545946, Note_on_c, 0, 90, 73
1, 545955, Note_on_c, 0, 85, 75
1, 545957, Note_off_c, 0, 87, 65
1, 545964, Note_on_c, 0, 88, 17
1, 545967, Note_off_c, 0, 90, 68
1, 545999, Note_on_c, 0, 87, 64
1, 546012, Note_off_c, 0, 88, 65
1, 546017, Note_on_c, 0, 82, 81
1, 546023, Note_off_c, 0, 85, 64
1, 546029, Note_off_c, 0, 87, 66
1, 546038, Note_off_c, 0, 82, 68
1, 546066, Note_on_c, 0, 91, 93
1, 546096, Note_on_c, 0, 89, 75
1, 546146, Note_off_c, 0, 91, 63
1, 546151, Note_on_c, 0, 85, 72
1, 546161, Note_off_c, 0, 89, 64
1, 546172, Note_off_c, 0, 85, 69
1, 546187, Note_on_c, 0, 82, 52
1, 546215, Note_on_c, 0, 77, 52
1, 546218, Note_off_c, 0, 82, 55
1, 546234, Note_on_c, 0, 81, 64
1, 546262, Note_off_c, 0, 77, 0
1, 546262, Note_on_c, 0, 77, 44
1, 546271, Note_off_c, 0, 81, 59
1, 546316, Note_off_c, 0, 77, 64
1, 546333, Note_on_c, 0, 73, 55
1, 546356, Note_off_c, 0, 73, 65
1, 546393, Note_on_c, 0, 79, 70
1, 546446, Note_on_c, 0, 77, 60
1, 546489, Note_off_c, 0, 79, 60
1, 546524, Note_on_c, 0, 70, 56
1, 546529, Note_off_c, 0, 77, 53
1, 546544, Note_off_c, 0, 70, 63
1, 546583, Poly_aftertouch_c, 0, 73, 0
1, 546600, Note_on_c, 0, 65, 3
1, 546605, Control_c, 0, 67, 8
1, 546620, Control_c, 0, 67, 12
1, 546621, Note_on_c, 0, 69, 46
1, 546630, Poly_aftertouch_c, 0, 67, 0
1, 546635, Control_c, 0, 67, 16
1, 546649, Control_c, 0, 67, 20
1, 546656, Note_off_c, 0, 65, 0
1, 546663, Note_off_c, 0, 69, 64
1, 546664, Control_c, 0, 67, 24
1, 546679, Control_c, 0, 67, 28
1, 546681, Note_on_c, 0, 65, 8
1, 546694, Control_c, 0, 67, 30
1, 546709, Control_c, 0, 67, 33
1, 546723, Control_c, 0, 67, 35
1, 546738, Control_c, 0, 67, 39
1, 546739, Note_off_c, 0, 65, 61
1, 546753, Control_c, 0, 67, 43
1, 546768, Control_c, 0, 67, 48
1, 546783, Control_c, 0, 67, 53
1, 546793, Note_on_c, 0, 61, 44
1, 546797, Control_c, 0, 67, 56
1, 546812, Control_c, 0, 67, 58
1, 546827, Control_c, 0, 67, 59
1, 546842, Control_c, 0, 67, 61
1, 546856, Control_c, 0, 67, 62
1, 546871, Control_c, 0, 67, 65
1, 546887, Control_c, 0, 67, 66
1, 546902, Control_c, 0, 67, 67
1, 546931, Control_c, 0, 64, 101
1, 546931, Control_c, 0, 67, 68
1, 546932, Note_on_c, 0, 54, 60
1, 546936, Note_off_c, 0, 61, 48
1, 546953, Control_c, 0, 64, 78
1, 546968, Control_c, 0, 64, 63
1, 546983, Control_c, 0, 64, 45
1, 546983, Control_c, 0, 67, 67
1, 546998, Control_c, 0, 64, 33
1, 546998, Control_c, 0, 67, 67
1, 547013, Control_c, 0, 64, 35
1, 547013, Control_c, 0, 67, 66
1, 547028, Control_c, 0, 64, 47
1, 547028, Control_c, 0, 67, 65
1, 547043, Control_c, 0, 64, 63
1, 547057, Control_c, 0, 64, 73
1, 547057, Control_c, 0, 67, 65
1, 547072, Control_c, 0, 64, 85
1, 547072, Control_c, 0, 67, 64
1, 547087, Control_c, 0, 64, 98
1, 547087, Control_c, 0, 67, 63
1, 547102, Control_c, 0, 64, 107
1, 547102, Control_c, 0, 67, 62
1, 547108, Note_on_c, 0, 58, 60
1, 547117, Control_c, 0, 64, 115
1, 547117, Control_c, 0, 67, 62
1, 547131, Control_c, 0, 64, 127
1, 547146, Control_c, 0, 67, 61
1, 547161, Note_off_c, 0, 54, 34
1, 547205, Control_c, 0, 67, 62
1, 547207, Note_on_c, 0, 61, 62
1, 547215, Note_off_c, 0, 58, 55
1, 547267, Note_on_c, 0, 64, 68
1, 547269, Note_off_c, 0, 61, 62
1, 547280, Control_c, 0, 67, 62
1, 547310, Control_c, 0, 67, 63
1, 547318, Note_off_c, 0, 64, 61
1, 547332, Note_on_c, 0, 67, 78
1, 547354, Control_c, 0, 67, 62
1, 547369, Control_c, 0, 67, 61
1, 547377, Note_off_c, 0, 67, 63
1, 547384, Control_c, 0, 67, 60
1, 547398, Note_on_c, 0, 70, 78
1, 547399, Control_c, 0, 67, 59
1, 547418, Note_off_c, 0, 70, 66
1, 547428, Control_c, 0, 67, 59
1, 547458, Control_c, 0, 67, 58
1, 547466, Note_on_c, 0, 76, 83
1, 547472, Control_c, 0, 67, 57
1, 547487, Control_c, 0, 67, 56
1, 547502, Control_c, 0, 67, 55
1, 547517, Control_c, 0, 67, 54
1, 547532, Control_c, 0, 67, 54
1, 547533, Note_on_c, 0, 79, 71
1, 547547, Control_c, 0, 67, 53
1, 547562, Control_c, 0, 67, 52
1, 547576, Control_c, 0, 67, 52
1, 547582, Note_on_c, 0, 82, 78
1, 547591, Control_c, 0, 67, 51
1, 547597, Note_off_c, 0, 79, 61
1, 547606, Control_c, 0, 67, 50
1, 547619, Note_on_c, 0, 63, 71
1, 547620, Note_on_c, 0, 75, 82
1, 547621, Control_c, 0, 67, 48
1, 547635, Note_on_c, 0, 87, 89
1, 547636, Control_c, 0, 67, 46
1, 547639, Note_off_c, 0, 82, 62
1, 547645, Note_off_c, 0, 63, 65
1, 547646, Note_off_c, 0, 75, 64
1, 547651, Control_c, 0, 67, 45
1, 547680, Control_c, 0, 67, 46
1, 547702, Control_c, 0, 67, 47
1, 547717, Control_c, 0, 67, 48
1, 547732, Control_c, 0, 67, 49
1, 547739, Note_off_c, 0, 76, 52
1, 547747, Note_off_c, 0, 87, 61
1, 547747, Control_c, 0, 67, 49
1, 547748, Note_on_c, 0, 82, 61
1, 547761, Control_c, 0, 67, 50
1, 547776, Control_c, 0, 67, 51
1, 547791, Control_c, 0, 67, 52
1, 547806, Control_c, 0, 67, 53
1, 547821, Control_c, 0, 67, 53
1, 547824, Note_off_c, 0, 82, 55
1, 547835, Note_on_c, 0, 79, 56
1, 547851, Control_c, 0, 67, 54
1, 547862, Note_off_c, 0, 79, 65
1, 547866, Control_c, 0, 67, 55
1, 547880, Control_c, 0, 67, 55
1, 547901, Note_on_c, 0, 76, 56
1, 547910, Control_c, 0, 67, 56
1, 547940, Control_c, 0, 67, 56
1, 547969, Control_c, 0, 67, 57
1, 548009, Note_on_c, 0, 87, 88
1, 548015, Note_off_c, 0, 76, 38
1, 548017, Note_on_c, 0, 75, 69
1, 548027, Note_off_c, 0, 87, 71
1, 548028, Control_c, 0, 67, 57
1, 548058, Note_off_c, 0, 75, 60
1, 548058, Control_c, 0, 67, 58
1, 548115, Note_on_c, 0, 76, 65
1, 548118, Control_c, 0, 67, 57
1, 548133, Control_c, 0, 67, 57
1, 548163, Control_c, 0, 67, 56
1, 548177, Control_c, 0, 67, 56
1, 548206, Note_on_c, 0, 79, 54
1, 548281, Note_on_c, 0, 82, 63
1, 548288, Note_off_c, 0, 79, 51
1, 548295, Control_c, 0, 67, 56
1, 548325, Control_c, 0, 67, 57
1, 548355, Control_c, 0, 67, 57
1, 548357, Note_off_c, 0, 82, 58
1, 548377, Note_on_c, 0, 87, 75
1, 548378, Note_on_c, 0, 75, 63
1, 548384, Control_c, 0, 67, 58
1, 548386, Note_on_c, 0, 63, 55
1, 548399, Control_c, 0, 67, 58
1, 548411, Note_off_c, 0, 75, 60
1, 548414, Control_c, 0, 67, 59
1, 548429, Control_c, 0, 67, 59
1, 548451, Control_c, 0, 67, 60
1, 548456, Note_off_c, 0, 87, 62
1, 548465, Note_off_c, 0, 76, 35
1, 548466, Control_c, 0, 67, 61
1, 548486, Note_on_c, 0, 82, 62
1, 548578, Note_on_c, 0, 79, 48
1, 548602, Note_off_c, 0, 79, 61
1, 548615, Note_off_c, 0, 82, 31
1, 548670, Note_on_c, 0, 76, 46
1, 548718, Note_off_c, 0, 76, 55
1, 548733, Control_c, 0, 67, 61
1, 548745, Note_off_c, 0, 63, 28
1, 548748, Control_c, 0, 67, 62
1, 548750, Note_on_c, 0, 61, 48
1, 548777, Control_c, 0, 67, 63
1, 548792, Control_c, 0, 67, 65
1, 548807, Control_c, 0, 67, 65
1, 548845, Note_on_c, 0, 76, 57
1, 548882, Control_c, 0, 67, 66
1, 548926, Control_c, 0, 67, 66
1, 548932, Note_on_c, 0, 79, 54
1, 548956, Control_c, 0, 67, 67
1, 548971, Control_c, 0, 67, 67
1, 548981, Note_off_c, 0, 79, 51
1, 549001, Note_on_c, 0, 82, 59
1, 549015, Control_c, 0, 67, 68
1, 549059, Control_c, 0, 67, 68
1, 549074, Control_c, 0, 67, 69
1, 549076, Note_off_c, 0, 82, 54
1, 549085, Note_off_c, 0, 76, 27
1, 549091, Note_on_c, 0, 75, 53
1, 549096, Note_on_c, 0, 87, 65
1, 549100, Note_on_c, 0, 63, 45
1, 549104, Control_c, 0, 67, 69
1, 549133, Control_c, 0, 67, 70
1, 549138, Note_off_c, 0, 61, 28
1, 549141, Note_off_c, 0, 75, 48
1, 549148, Control_c, 0, 67, 71
1, 549157, Note_off_c, 0, 87, 57
1, 549163, Control_c, 0, 67, 72
1, 549177, Note_on_c, 0, 82, 50
1, 549178, Control_c, 0, 67, 73
1, 549193, Control_c, 0, 67, 74
1, 549215, Control_c, 0, 67, 75
1, 549230, Control_c, 0, 67, 76
1, 549245, Control_c, 0, 67, 76
1, 549249, Note_off_c, 0, 82, 56
1, 549259, Control_c, 0, 67, 77
1, 549269, Note_on_c, 0, 79, 50
1, 549299, Note_off_c, 0, 79, 59
1, 549355, Note_on_c, 0, 76, 55
1, 549376, Note_off_c, 0, 76, 62
1, 549407, Control_c, 0, 67, 77
1, 549420, Note_off_c, 0, 63, 59
1, 549442, Note_on_c, 0, 75, 54
1, 549496, Note_off_c, 0, 75, 52
1, 549496, Control_c, 0, 67, 77
1, 549512, Note_on_c, 0, 70, 58
1, 549526, Control_c, 0, 67, 76
1, 549585, Control_c, 0, 67, 76
1, 549600, Control_c, 0, 67, 75
1, 549604, Note_on_c, 0, 67, 56
1, 549630, Control_c, 0, 67, 75
1, 549683, Note_on_c, 0, 64, 44
1, 549720, Note_off_c, 0, 70, 28
1, 549735, Note_off_c, 0, 64, 59
1, 549740, Note_off_c, 0, 67, 32
1, 549749, Control_c, 0, 67, 74
1, 549781, Note_on_c, 0, 63, 48
1, 549868, Note_on_c, 0, 64, 46
1, 549897, Control_c, 0, 67, 74
1, 549962, Note_on_c, 0, 67, 53
1, 549981, Note_off_c, 0, 64, 33
1, 550020, Note_off_c, 0, 67, 48
1, 550037, Note_on_c, 0, 70, 56
1, 550104, Note_off_c, 0, 70, 56
1, 550128, Note_on_c, 0, 75, 59
1, 550181, Note_off_c, 0, 63, 54
1, 550224, Note_off_c, 0, 75, 0
1, 550230, Note_on_c, 0, 70, 48
1, 550294, Note_on_c, 0, 67, 51
1, 550331, Poly_aftertouch_c, 0, 75, 0
1, 550353, Note_off_c, 0, 67, 42
1, 550376, Note_on_c, 0, 64, 53
1, 550400, Note_off_c, 0, 64, 64
1, 550457, Note_on_c, 0, 63, 55
1, 550546, Note_on_c, 0, 64, 51
1, 550547, Note_off_c, 0, 70, 22
1, 550634, Note_on_c, 0, 67, 57
1, 550672, Note_off_c, 0, 64, 34
1, 550689, Note_off_c, 0, 67, 50
1, 550700, Note_on_c, 0, 70, 58
1, 550712, Control_c, 0, 67, 74
1, 550777, Note_off_c, 0, 70, 60
1, 550790, Note_on_c, 0, 75, 65
1, 550891, Note_off_c, 0, 75, 53
1, 550896, Note_on_c, 0, 70, 63
1, 550963, Note_on_c, 0, 67, 66
1, 551002, Note_off_c, 0, 67, 56
1, 551046, Note_on_c, 0, 64, 62
1, 551068, Control_c, 0, 67, 75
1, 551074, Note_off_c, 0, 64, 67
1, 551126, Note_on_c, 0, 61, 77
1, 551127, Control_c, 0, 67, 75
1, 551137, Note_off_c, 0, 63, 62
1, 551145, Note_on_c, 0, 64, 70
1, 551151, Note_off_c, 0, 70, 32
1, 551157, Control_c, 0, 67, 76
1, 551171, Control_c, 0, 67, 76
1, 551184, Note_off_c, 0, 64, 61
1, 551186, Control_c, 0, 67, 77
1, 551219, Note_on_c, 0, 67, 64
1, 551231, Control_c, 0, 67, 77
1, 551249, Note_off_c, 0, 67, 64
1, 551303, Note_on_c, 0, 70, 45
1, 551321, Control_c, 0, 67, 77
1, 551332, Note_off_c, 0, 70, 55
1, 551386, Note_on_c, 0, 76, 62
1, 551449, Note_off_c, 0, 76, 59
1, 551493, Note_on_c, 0, 85, 87
1, 551499, Note_on_c, 0, 73, 68
1, 551514, Note_off_c, 0, 85, 65
1, 551523, Note_off_c, 0, 73, 66
1, 551565, Control_c, 0, 67, 76
1, 551576, Note_on_c, 0, 76, 54
1, 551580, Control_c, 0, 67, 75
1, 551595, Control_c, 0, 67, 75
1, 551596, Note_off_c, 0, 76, 59
1, 551610, Control_c, 0, 67, 74
1, 551625, Control_c, 0, 67, 73
1, 551654, Control_c, 0, 67, 73
1, 551669, Control_c, 0, 67, 72
1, 551690, Note_on_c, 0, 70, 53
1, 551699, Control_c, 0, 67, 72
1, 551714, Control_c, 0, 67, 71
1, 551723, Note_off_c, 0, 70, 49
1, 551817, Control_c, 0, 64, 86
1, 551817, Control_c, 0, 67, 72
1, 551828, Note_on_c, 0, 64, 61
1, 551832, Control_c, 0, 64, 77
1, 551839, Note_on_c, 0, 63, 76
1, 551846, Control_c, 0, 64, 75
1, 551849, Note_off_c, 0, 61, 59
1, 551861, Poly_aftertouch_c, 0, 67, 0
1, 551861, Control_c, 0, 64, 77
1, 551861, Control_c, 0, 67, 71
1, 551876, Control_c, 0, 64, 83
1, 551880, Note_off_c, 0, 64, 58
1, 551891, Control_c, 0, 64, 95
1, 551906, Control_c, 0, 64, 121
1, 551906, Control_c, 0, 67, 72
1, 551917, Note_on_c, 0, 67, 55
1, 551920, Control_c, 0, 64, 127
1, 551935, Control_c, 0, 67, 72
1, 551953, Note_off_c, 0, 67, 62
1, 551994, Note_on_c, 0, 70, 62
1, 551994, Control_c, 0, 67, 73
1, 552009, Control_c, 0, 67, 73
1, 552015, Note_off_c, 0, 70, 63
1, 552039, Control_c, 0, 67, 74
1, 552091, Note_on_c, 0, 76, 61
1, 552131, Note_off_c, 0, 76, 56
1, 552158, Control_c, 0, 67, 74
1, 552173, Control_c, 0, 67, 75
1, 552180, Note_on_c, 0, 87, 88
1, 552194, Note_on_c, 0, 75, 73
1, 552207, Note_off_c, 0, 87, 66
1, 552215, Note_off_c, 0, 75, 70
1, 552269, Control_c, 0, 67, 75
1, 552284, Control_c, 0, 67, 74
1, 552286, Note_on_c, 0, 76, 43
1, 552299, Control_c, 0, 67, 74
1, 552316, Note_off_c, 0, 76, 49
1, 552329, Control_c, 0, 67, 73
1, 552343, Control_c, 0, 67, 72
1, 552358, Control_c, 0, 67, 72
1, 552377, Note_on_c, 0, 70, 61
1, 552447, Control_c, 0, 67, 72
1, 552450, Note_on_c, 0, 67, 58
1, 552477, Control_c, 0, 67, 73
1, 552480, Note_off_c, 0, 67, 66
1, 552492, Control_c, 0, 64, 107
1, 552503, Note_off_c, 0, 70, 54
1, 552507, Control_c, 0, 64, 83
1, 552507, Control_c, 0, 67, 73
1, 552520, Note_on_c, 0, 64, 65
1, 552522, Control_c, 0, 64, 71
1, 552522, Control_c, 0, 67, 74
1, 552537, Control_c, 0, 64, 68
1, 552540, Note_on_c, 0, 58, 66
1, 552544, Note_off_c, 0, 63, 59
1, 552552, Control_c, 0, 64, 71
1, 552552, Control_c, 0, 67, 73
1, 552567, Control_c, 0, 64, 78
1, 552575, Note_off_c, 0, 64, 63
1, 552581, Control_c, 0, 64, 89
1, 552596, Control_c, 0, 64, 104
1, 552599, Note_on_c, 0, 67, 60
1, 552611, Control_c, 0, 64, 127
1, 552611, Control_c, 0, 67, 74
1, 552626, Control_c, 0, 67, 74
1, 552637, Note_off_c, 0, 67, 57
1, 552641, Control_c, 0, 67, 75
1, 552656, Control_c, 0, 67, 75
1, 552670, Control_c, 0, 67, 76
1, 552684, Note_on_c, 0, 70, 62
1, 552685, Control_c, 0, 67, 76
1, 552700, Control_c, 0, 67, 77
1, 552704, Note_off_c, 0, 70, 65
1, 552715, Control_c, 0, 67, 78
1, 552729, Control_c, 0, 67, 79
1, 552744, Control_c, 0, 67, 82
1, 552759, Control_c, 0, 67, 86
1, 552774, Control_c, 0, 67, 88
1, 552775, Note_on_c, 0, 76, 65
1, 552789, Control_c, 0, 67, 91
1, 552803, Control_c, 0, 67, 93
1, 552808, Note_off_c, 0, 76, 57
1, 552818, Control_c, 0, 67, 95
1, 552833, Control_c, 0, 67, 98
1, 552848, Control_c, 0, 67, 101
1, 552859, Note_on_c, 0, 82, 71
1, 552864, Control_c, 0, 67, 103
1, 552865, Note_on_c, 0, 70, 60
1, 552879, Control_c, 0, 67, 105
1, 552882, Note_off_c, 0, 82, 67
1, 552893, Control_c, 0, 67, 105
1, 552897, Note_off_c, 0, 70, 62
1, 552930, Note_on_c, 0, 76, 57
1, 552945, Control_c, 0, 67, 105
1, 552958, Note_off_c, 0, 76, 62
1, 552960, Control_c, 0, 67, 104
1, 552975, Control_c, 0, 67, 103
1, 552990, Control_c, 0, 67, 102
1, 553001, Note_off_c, 0, 58, 0
1, 553005, Control_c, 0, 67, 102
1, 553019, Control_c, 0, 67, 101
1, 553034, Control_c, 0, 67, 100
1, 553038, Poly_aftertouch_c, 0, 58, 127
1, 553043, Note_on_c, 0, 70, 53
1, 553049, Control_c, 0, 67, 99
1, 553064, Control_c, 0, 67, 99
1, 553108, Control_c, 0, 67, 98
1, 553127, Poly_aftertouch_c, 0, 73, 127
1, 553134, Poly_aftertouch_c, 0, 58, 0
1, 553136, Note_on_c, 0, 67, 37
1, 553150, Note_off_c, 0, 70, 53
1, 553167, Control_c, 0, 67, 99
1, 553168, Note_off_c, 0, 67, 47
1, 553182, Control_c, 0, 64, 115
1, 553190, Poly_aftertouch_c, 0, 73, 0
1, 553197, Control_c, 0, 64, 79
1, 553203, Note_on_c, 0, 52, 61
1, 553204, Note_on_c, 0, 62, 61
1, 553206, Note_on_c, 0, 56, 51
1, 553212, Control_c, 0, 64, 62
1, 553226, Control_c, 0, 64, 50
1, 553241, Control_c, 0, 64, 54
1, 553241, Control_c, 0, 67, 99
1, 553252, Note_off_c, 0, 62, 61
1, 553256, Control_c, 0, 64, 63
1, 553271, Control_c, 0, 64, 73
1, 553273, Note_on_c, 0, 65, 65
1, 553286, Control_c, 0, 64, 88
1, 553300, Control_c, 0, 64, 122
1, 553306, Note_off_c, 0, 52, 57
1, 553310, Note_off_c, 0, 65, 58
1, 553315, Control_c, 0, 64, 127
1, 553354, Note_on_c, 0, 68, 60
1, 553379, Note_off_c, 0, 68, 67
1, 553404, Control_c, 0, 67, 100
1, 553436, Note_on_c, 0, 71, 59
1, 553449, Control_c, 0, 67, 100
1, 553486, Note_off_c, 0, 71, 62
1, 553516, Note_on_c, 0, 80, 69
1, 553534, Note_on_c, 0, 68, 54
1, 553543, Note_off_c, 0, 80, 61
1, 553564, Note_off_c, 0, 68, 65
1, 553614, Note_on_c, 0, 71, 48
1, 553626, Control_c, 0, 67, 100
1, 553639, Note_off_c, 0, 71, 51
1, 553672, Control_c, 0, 67, 99
1, 553687, Note_on_c, 0, 68, 58
1, 553754, Note_off_c, 0, 68, 42
1, 553771, Note_on_c, 0, 65, 53
1, 553791, Note_off_c, 0, 65, 63
1, 553843, Note_off_c, 0, 56, 56
1, 553849, Note_on_c, 0, 61, 61
1, 553857, Control_c, 0, 67, 100
1, 553866, Note_on_c, 0, 65, 58
1, 553896, Note_off_c, 0, 65, 63
1, 553902, Control_c, 0, 67, 100
1, 553927, Note_on_c, 0, 68, 63
1, 553963, Note_off_c, 0, 68, 62
1, 553975, Control_c, 0, 67, 100
1, 554007, Note_on_c, 0, 74, 58
1, 554020, Control_c, 0, 67, 100
1, 554027, Note_off_c, 0, 74, 65
1, 554123, Control_c, 0, 67, 101
1, 554126, Note_on_c, 0, 77, 24
1, 554153, Control_c, 0, 67, 101
1, 554165, Note_off_c, 0, 77, 40
1, 554167, Control_c, 0, 67, 102
1, 554177, Note_on_c, 0, 85, 70
1, 554191, Note_on_c, 0, 73, 57
1, 554197, Control_c, 0, 67, 102
1, 554200, Note_off_c, 0, 85, 69
1, 554220, Note_off_c, 0, 73, 67
1, 554239, Note_on_c, 0, 77, 62
1, 554257, Note_off_c, 0, 77, 66
1, 554316, Control_c, 0, 67, 102
1, 554350, Note_on_c, 0, 74, 53
1, 554426, Note_on_c, 0, 68, 55
1, 554432, Note_off_c, 0, 74, 52
1, 554471, Note_off_c, 0, 68, 62
1, 554487, Control_c, 0, 64, 114
1, 554502, Control_c, 0, 64, 84
1, 554516, Note_on_c, 0, 62, 58
1, 554517, Control_c, 0, 64, 70
1, 554532, Control_c, 0, 64, 66
1, 554534, Note_on_c, 0, 56, 49
1, 554546, Control_c, 0, 64, 68
1, 554560, Note_off_c, 0, 62, 59
1, 554561, Control_c, 0, 64, 76
1, 554567, Note_off_c, 0, 61, 32
1, 554576, Control_c, 0, 64, 87
1, 554591, Control_c, 0, 64, 104
1, 554591, Control_c, 0, 67, 102
1, 554604, Note_on_c, 0, 65, 55
1, 554605, Control_c, 0, 64, 127
1, 554620, Control_c, 0, 67, 103
1, 554644, Note_off_c, 0, 65, 60
1, 554650, Control_c, 0, 67, 103
1, 554680, Control_c, 0, 67, 104
1, 554685, Note_on_c, 0, 68, 48
1, 554695, Control_c, 0, 67, 104
1, 554707, Note_off_c, 0, 68, 61
1, 554710, Control_c, 0, 67, 105
1, 554725, Control_c, 0, 67, 106
1, 554740, Control_c, 0, 67, 107
1, 554754, Control_c, 0, 67, 108
1, 554769, Control_c, 0, 67, 109
1, 554770, Note_on_c, 0, 71, 57
1, 554784, Control_c, 0, 67, 110
1, 554798, Control_c, 0, 67, 112
1, 554803, Note_off_c, 0, 71, 63
1, 554813, Control_c, 0, 67, 114
1, 554828, Control_c, 0, 67, 117
1, 554843, Control_c, 0, 67, 120
1, 554851, Note_on_c, 0, 80, 62
1, 554852, Note_on_c, 0, 68, 34
1, 554858, Control_c, 0, 67, 122
1, 554872, Control_c, 0, 67, 125
1, 554876, Note_off_c, 0, 80, 67
1, 554887, Control_c, 0, 67, 127
1, 554900, Note_off_c, 0, 68, 59
1, 554945, Note_on_c, 0, 71, 31
1, 554970, Note_off_c, 0, 71, 47
1, 555005, Note_on_c, 0, 68, 58
1, 555076, Note_off_c, 0, 68, 63
1, 555092, Note_on_c, 0, 65, 49
1, 555097, Note_off_c, 0, 56, 58
1, 555129, Note_off_c, 0, 65, 63
1, 555154, Control_c, 0, 64, 92
1, 555169, Control_c, 0, 64, 71
1, 555174, Note_on_c, 0, 59, 49
1, 555190, Control_c, 0, 64, 60
1, 555205, Control_c, 0, 64, 56
1, 555220, Control_c, 0, 64, 60
1, 555235, Control_c, 0, 64, 66
1, 555237, Note_off_c, 0, 59, 42
1, 555250, Control_c, 0, 64, 73
1, 555253, Note_on_c, 0, 61, 58
1, 555266, Control_c, 0, 64, 81
1, 555281, Control_c, 0, 64, 92
1, 555295, Control_c, 0, 64, 96
1, 555310, Control_c, 0, 64, 97
1, 555318, Note_off_c, 0, 61, 54
1, 555325, Control_c, 0, 64, 99
1, 555339, Control_c, 0, 64, 101
1, 555340, Note_on_c, 0, 62, 53
1, 555354, Control_c, 0, 64, 106
1, 555369, Control_c, 0, 64, 111
1, 555384, Control_c, 0, 64, 122
1, 555393, Note_off_c, 0, 62, 62
1, 555399, Control_c, 0, 64, 127
1, 555410, Note_on_c, 0, 64, 52
1, 555449, Note_off_c, 0, 64, 64
1, 555495, Note_on_c, 0, 68, 53
1, 555572, Note_on_c, 0, 65, 51
1, 555652, Note_on_c, 0, 62, 47
1, 555697, Note_off_c, 0, 68, 0
1, 555717, Note_off_c, 0, 62, 56
1, 555728, Note_on_c, 0, 61, 54
1, 555735, Poly_aftertouch_c, 0, 68, 127
1, 555741, Note_off_c, 0, 65, 29
1, 555798, Note_off_c, 0, 61, 55
1, 555813, Control_c, 0, 64, 103
1, 555822, Note_on_c, 0, 59, 51
1, 555828, Control_c, 0, 64, 83
1, 555833, Poly_aftertouch_c, 0, 68, 0
1, 555843, Control_c, 0, 64, 69
1, 555858, Control_c, 0, 64, 61
1, 555887, Control_c, 0, 64, 65
1, 555899, Note_off_c, 0, 59, 57
1, 555902, Control_c, 0, 64, 71
1, 555909, Note_on_c, 0, 61, 44
1, 555917, Control_c, 0, 64, 79
1, 555939, Control_c, 0, 64, 88
1, 555954, Control_c, 0, 64, 94
1, 555969, Control_c, 0, 64, 95
1, 555971, Note_off_c, 0, 61, 57
1, 555984, Control_c, 0, 64, 96
1, 555999, Control_c, 0, 64, 97
1, 556004, Note_on_c, 0, 62, 47
1, 556013, Control_c, 0, 64, 99
1, 556028, Control_c, 0, 64, 100
1, 556040, Note_off_c, 0, 62, 66
1, 556043, Control_c, 0, 64, 102
1, 556058, Control_c, 0, 64, 103
1, 556065, Note_on_c, 0, 64, 55
1, 556074, Control_c, 0, 64, 104
1, 556089, Control_c, 0, 64, 105
1, 556104, Control_c, 0, 64, 106
1, 556105, Note_off_c, 0, 64, 64
1, 556133, Control_c, 0, 64, 106
1, 556151, Note_on_c, 0, 68, 55
1, 556162, Control_c, 0, 64, 107
1, 556192, Control_c, 0, 64, 108
1, 556222, Control_c, 0, 64, 108
1, 556237, Note_on_c, 0, 65, 46
1, 556311, Note_on_c, 0, 62, 39
1, 556331, Note_off_c, 0, 68, 0
1, 556361, Note_off_c, 0, 62, 60
1, 556368, Poly_aftertouch_c, 0, 68, 127
1, 556377, Note_off_c, 0, 65, 34
1, 556378, Note_on_c, 0, 61, 50
1, 556430, Control_c, 0, 64, 106
1, 556444, Control_c, 0, 64, 95
1, 556446, Note_off_c, 0, 61, 53
1, 556459, Control_c, 0, 64, 82
1, 556463, Note_on_c, 0, 59, 50
1, 556474, Control_c, 0, 64, 71
1, 556488, Control_c, 0, 64, 64
1, 556497, Poly_aftertouch_c, 0, 68, 0
1, 556503, Control_c, 0, 64, 63
1, 556518, Control_c, 0, 64, 65
1, 556530, Note_off_c, 0, 59, 54
1, 556533, Control_c, 0, 64, 69
1, 556546, Note_on_c, 0, 61, 40
1, 556548, Control_c, 0, 64, 75
1, 556562, Control_c, 0, 64, 84
1, 556577, Control_c, 0, 64, 92
1, 556592, Control_c, 0, 64, 97
1, 556607, Note_off_c, 0, 61, 56
1, 556607, Control_c, 0, 64, 101
1, 556621, Control_c, 0, 64, 104
1, 556635, Control_c, 0, 64, 108
1, 556642, Note_on_c, 0, 62, 42
1, 556650, Control_c, 0, 64, 112
1, 556665, Control_c, 0, 64, 121
1, 556680, Control_c, 0, 64, 127
1, 556683, Note_off_c, 0, 62, 63
1, 556710, Note_on_c, 0, 64, 45
1, 556751, Note_off_c, 0, 64, 62
1, 556794, Note_on_c, 0, 68, 43
1, 556867, Note_on_c, 0, 65, 37
1, 556958, Note_on_c, 0, 62, 32
1, 557005, Note_off_c, 0, 62, 58
1, 557011, Note_off_c, 0, 65, 39
1, 557025, Note_on_c, 0, 61, 48
1, 557089, Control_c, 0, 64, 108
1, 557092, Note_off_c, 0, 61, 55
1, 557103, Control_c, 0, 64, 88
1, 557106, Note_on_c, 0, 59, 46
1, 557118, Control_c, 0, 64, 75
1, 557133, Control_c, 0, 64, 65
1, 557147, Note_off_c, 0, 68, 40
1, 557148, Control_c, 0, 64, 60
1, 557163, Control_c, 0, 64, 61
1, 557178, Note_off_c, 0, 59, 54
1, 557178, Control_c, 0, 64, 66
1, 557191, Note_on_c, 0, 61, 36
1, 557192, Control_c, 0, 64, 72
1, 557207, Control_c, 0, 64, 82
1, 557222, Control_c, 0, 64, 91
1, 557237, Control_c, 0, 64, 95
1, 557250, Note_off_c, 0, 61, 58
1, 557252, Control_c, 0, 64, 97
1, 557266, Control_c, 0, 64, 99
1, 557281, Control_c, 0, 64, 101
1, 557291, Note_on_c, 0, 62, 38
1, 557296, Control_c, 0, 64, 104
1, 557310, Control_c, 0, 64, 107
1, 557325, Control_c, 0, 64, 108
1, 557337, Note_off_c, 0, 62, 64
1, 557340, Control_c, 0, 64, 109
1, 557355, Control_c, 0, 64, 110
1, 557358, Note_on_c, 0, 64, 49
1, 557370, Control_c, 0, 64, 111
1, 557399, Note_off_c, 0, 64, 64
1, 557452, Control_c, 0, 64, 111
1, 557458, Note_on_c, 0, 68, 42
1, 557519, Note_on_c, 0, 65, 40
1, 557612, Note_on_c, 0, 62, 34
1, 557644, Note_off_c, 0, 65, 32
1, 557654, Note_off_c, 0, 62, 57
1, 557670, Note_on_c, 0, 61, 42
1, 557687, Note_off_c, 0, 68, 0
1, 557689, Control_c, 0, 64, 111
1, 557704, Control_c, 0, 64, 105
1, 557719, Control_c, 0, 64, 91
1, 557724, Poly_aftertouch_c, 0, 68, 127
1, 557733, Control_c, 0, 64, 79
1, 557735, Note_off_c, 0, 61, 49
1, 557748, Control_c, 0, 64, 68
1, 557756, Note_on_c, 0, 59, 42
1, 557763, Control_c, 0, 64, 61
1, 557775, Poly_aftertouch_c, 0, 68, 0
1, 557778, Control_c, 0, 64, 60
1, 557793, Control_c, 0, 64, 64
1, 557807, Note_off_c, 0, 59, 52
1, 557807, Control_c, 0, 64, 69
1, 557822, Control_c, 0, 64, 77
1, 557837, Control_c, 0, 64, 85
1, 557840, Note_on_c, 0, 61, 45
1, 557852, Control_c, 0, 64, 93
1, 557867, Control_c, 0, 64, 97
1, 557881, Control_c, 0, 64, 99
1, 557887, Note_off_c, 0, 61, 60
1, 557896, Control_c, 0, 64, 101
1, 557911, Control_c, 0, 64, 103
1, 557926, Control_c, 0, 64, 106
1, 557932, Note_on_c, 0, 62, 37
1, 557941, Control_c, 0, 64, 108
1, 557956, Control_c, 0, 64, 110
1, 557971, Control_c, 0, 64, 111
1, 557982, Note_off_c, 0, 62, 59
1, 557986, Control_c, 0, 64, 113
1, 558001, Note_on_c, 0, 64, 42
1, 558001, Control_c, 0, 64, 114
1, 558044, Note_off_c, 0, 64, 64
1, 558069, Note_on_c, 0, 68, 38
1, 558147, Note_on_c, 0, 65, 35
1, 558257, Note_on_c, 0, 62, 15
1, 558269, Note_off_c, 0, 65, 31
1, 558274, Control_c, 0, 64, 113
1, 558299, Note_off_c, 0, 62, 44
1, 558304, Control_c, 0, 64, 111
1, 558309, Note_on_c, 0, 61, 37
1, 558319, Control_c, 0, 64, 107
1, 558334, Control_c, 0, 64, 97
1, 558348, Control_c, 0, 64, 87
1, 558361, Note_off_c, 0, 61, 51
1, 558363, Control_c, 0, 64, 76
1, 558378, Control_c, 0, 64, 67
1, 558382, Note_on_c, 0, 59, 41
1, 558393, Control_c, 0, 64, 60
1, 558408, Control_c, 0, 64, 57
1, 558412, Note_off_c, 0, 68, 41
1, 558422, Control_c, 0, 64, 58
1, 558437, Control_c, 0, 64, 61
1, 558438, Note_off_c, 0, 59, 42
1, 558452, Control_c, 0, 64, 64
1, 558468, Control_c, 0, 64, 68
1, 558480, Note_on_c, 0, 61, 44
1, 558482, Control_c, 0, 64, 73
1, 558497, Control_c, 0, 64, 79
1, 558512, Control_c, 0, 64, 85
1, 558518, Note_off_c, 0, 61, 56
1, 558527, Control_c, 0, 64, 88
1, 558542, Control_c, 0, 64, 90
1, 558547, Note_on_c, 0, 62, 35
1, 558556, Control_c, 0, 64, 91
1, 558571, Control_c, 0, 64, 93
1, 558586, Control_c, 0, 64, 95
1, 558601, Control_c, 0, 64, 98
1, 558612, Note_off_c, 0, 62, 54
1, 558616, Control_c, 0, 64, 100
1, 558627, Note_on_c, 0, 64, 41
1, 558630, Control_c, 0, 64, 100
1, 558645, Control_c, 0, 64, 101
1, 558660, Control_c, 0, 64, 101
1, 558672, Note_off_c, 0, 64, 62
1, 558689, Control_c, 0, 64, 102
1, 558702, Note_on_c, 0, 68, 38
1, 558704, Control_c, 0, 64, 102
1, 558771, Note_off_c, 0, 68, 0
1, 558784, Note_on_c, 0, 65, 35
1, 558809, Poly_aftertouch_c, 0, 68, 127
1, 558874, Note_on_c, 0, 62, 18
1, 558897, Note_off_c, 0, 65, 26
1, 558918, Note_off_c, 0, 62, 44
1, 558923, Note_on_c, 0, 61, 40
1, 558978, Control_c, 0, 64, 101
1, 558993, Control_c, 0, 64, 98
1, 559008, Control_c, 0, 64, 91
1, 559017, Note_off_c, 0, 61, 37
1, 559018, Note_on_c, 0, 59, 38
1, 559023, Control_c, 0, 64, 83
1, 559038, Control_c, 0, 64, 73
1, 559046, Poly_aftertouch_c, 0, 68, 0
1, 559053, Control_c, 0, 64, 64
1, 559068, Control_c, 0, 64, 59
1, 559083, Control_c, 0, 64, 57
1, 559086, Note_off_c, 0, 59, 44
1, 559097, Control_c, 0, 64, 59
1, 559112, Control_c, 0, 64, 63
1, 559117, Note_on_c, 0, 61, 32
1, 559127, Control_c, 0, 64, 66
1, 559142, Control_c, 0, 64, 71
1, 559157, Control_c, 0, 64, 77
1, 559166, Note_off_c, 0, 61, 55
1, 559171, Control_c, 0, 64, 82
1, 559186, Control_c, 0, 64, 85
1, 559201, Control_c, 0, 64, 87
1, 559204, Note_on_c, 0, 62, 37
1, 559215, Control_c, 0, 64, 89
1, 559230, Control_c, 0, 64, 91
1, 559245, Control_c, 0, 64, 93
1, 559261, Control_c, 0, 64, 95
1, 559264, Note_off_c, 0, 62, 53
1, 559276, Control_c, 0, 64, 96
1, 559279, Note_on_c, 0, 64, 31
1, 559291, Control_c, 0, 64, 97
1, 559320, Control_c, 0, 64, 98
1, 559329, Note_off_c, 0, 64, 49
1, 559343, Note_on_c, 0, 68, 28
1, 559365, Control_c, 0, 64, 98
1, 559417, Note_off_c, 0, 68, 0
1, 559427, Note_on_c, 0, 65, 28
1, 559455, Poly_aftertouch_c, 0, 68, 127
1, 559527, Note_on_c, 0, 62, 22
1, 559560, Note_off_c, 0, 65, 24
1, 559565, Note_off_c, 0, 62, 45
1, 559581, Note_on_c, 0, 61, 36
1, 559661, Control_c, 0, 64, 96
1, 559667, Note_on_c, 0, 59, 36
1, 559668, Note_off_c, 0, 61, 34
1, 559683, Control_c, 0, 64, 88
1, 559688, Poly_aftertouch_c, 0, 68, 0
1, 559698, Control_c, 0, 64, 79
1, 559712, Control_c, 0, 64, 70
1, 559727, Control_c, 0, 64, 63
1, 559742, Control_c, 0, 64, 61
1, 559748, Note_off_c, 0, 59, 51
1, 559757, Control_c, 0, 64, 62
1, 559772, Control_c, 0, 64, 65
1, 559786, Control_c, 0, 64, 68
1, 559790, Note_on_c, 0, 61, 35
1, 559801, Control_c, 0, 64, 72
1, 559816, Control_c, 0, 64, 76
1, 559827, Note_off_c, 0, 61, 53
1, 559831, Control_c, 0, 64, 80
1, 559846, Control_c, 0, 64, 82
1, 559861, Control_c, 0, 64, 84
1, 559876, Control_c, 0, 64, 85
1, 559876, Note_on_c, 0, 62, 27
1, 559891, Control_c, 0, 64, 86
1, 559905, Control_c, 0, 64, 88
1, 559920, Control_c, 0, 64, 90
1, 559935, Control_c, 0, 64, 92
1, 559950, Control_c, 0, 64, 93
1, 559961, Note_on_c, 0, 64, 29
1, 559965, Control_c, 0, 64, 94
1, 559990, Note_off_c, 0, 62, 27
1, 559994, Control_c, 0, 64, 95
1, 560009, Control_c, 0, 64, 95
1, 560024, Control_c, 0, 64, 96
1, 560033, Note_off_c, 0, 64, 55
1, 560038, Control_c, 0, 64, 97
1, 560040, Note_on_c, 0, 68, 29
1, 560053, Control_c, 0, 64, 97
1, 560069, Control_c, 0, 64, 98
1, 560084, Control_c, 0, 64, 98
1, 560114, Control_c, 0, 64, 99
1, 560115, Note_off_c, 0, 68, 0
1, 560145, Note_on_c, 0, 65, 22
1, 560152, Poly_aftertouch_c, 0, 68, 127
1, 560247, Note_on_c, 0, 62, 11
1, 560281, Note_off_c, 0, 65, 22
1, 560290, Note_off_c, 0, 62, 49
1, 560332, Note_on_c, 0, 61, 22
1, 560417, Note_off_c, 0, 61, 34
1, 560424, Control_c, 0, 64, 98
1, 560439, Note_on_c, 0, 59, 35
1, 560447, Control_c, 0, 64, 96
1, 560461, Control_c, 0, 64, 89
1, 560476, Control_c, 0, 64, 79
1, 560491, Control_c, 0, 64, 70
1, 560506, Poly_aftertouch_c, 0, 68, 0
1, 560506, Control_c, 0, 64, 64
1, 560521, Control_c, 0, 64, 61
1, 560535, Control_c, 0, 64, 63
1, 560547, Note_off_c, 0, 59, 35
1, 560550, Control_c, 0, 64, 66
1, 560565, Control_c, 0, 64, 71
1, 560567, Note_on_c, 0, 61, 33
1, 560580, Control_c, 0, 64, 76
1, 560595, Control_c, 0, 64, 81
1, 560609, Control_c, 0, 64, 85
1, 560619, Note_off_c, 0, 61, 48
1, 560624, Control_c, 0, 64, 87
1, 560639, Control_c, 0, 64, 89
1, 560654, Control_c, 0, 64, 91
1, 560663, Note_on_c, 0, 62, 29
1, 560669, Control_c, 0, 64, 93
1, 560684, Control_c, 0, 64, 95
1, 560698, Control_c, 0, 64, 98
1, 560713, Control_c, 0, 64, 99
1, 560728, Control_c, 0, 64, 100
1, 560743, Control_c, 0, 64, 100
1, 560777, Note_on_c, 0, 64, 31
1, 560817, Note_off_c, 0, 62, 39
1, 560901, Note_off_c, 0, 64, 33
1, 560934, Note_on_c, 0, 68, 33
1, 560981, Control_c, 0, 64, 98
1, 560996, Control_c, 0, 64, 92
1, 561011, Control_c, 0, 64, 85
1, 561026, Control_c, 0, 64, 77
1, 561040, Control_c, 0, 64, 72
1, 561055, Control_c, 0, 64, 68
1, 561070, Control_c, 0, 64, 69
1, 561084, Control_c, 0, 64, 72
1, 561099, Control_c, 0, 64, 75
1, 561105, Note_on_c, 0, 65, 30
1, 561114, Control_c, 0, 64, 77
1, 561144, Control_c, 0, 64, 76
1, 561158, Control_c, 0, 64, 73
1, 561173, Control_c, 0, 64, 69
1, 561196, Control_c, 0, 64, 68
1, 561210, Control_c, 0, 64, 69
1, 561225, Control_c, 0, 64, 71
1, 561240, Control_c, 0, 64, 73
1, 561255, Control_c, 0, 64, 74
1, 561299, Control_c, 0, 64, 74
1, 561314, Control_c, 0, 64, 72
1, 561329, Control_c, 0, 64, 69
1, 561330, Note_on_c, 0, 62, 28
1, 561344, Control_c, 0, 64, 66
1, 561358, Control_c, 0, 64, 64
1, 561368, Note_off_c, 0, 65, 29
1, 561373, Control_c, 0, 64, 63
1, 561402, Note_off_c, 0, 62, 0
1, 561403, Control_c, 0, 64, 64
1, 561417, Control_c, 0, 64, 66
1, 561432, Control_c, 0, 64, 69
1, 561438, Poly_aftertouch_c, 0, 62, 127
1, 561447, Control_c, 0, 64, 73
1, 561462, Control_c, 0, 64, 77
1, 561477, Control_c, 0, 64, 80
1, 561491, Control_c, 0, 64, 82
1, 561506, Control_c, 0, 64, 83
1, 561521, Control_c, 0, 64, 85
1, 561536, Control_c, 0, 64, 86
1, 561551, Control_c, 0, 64, 88
1, 561566, Control_c, 0, 64, 90
1, 561581, Control_c, 0, 64, 91
1, 561596, Control_c, 0, 64, 93
1, 561610, Control_c, 0, 64, 94
1, 561614, Note_on_c, 0, 61, 29
1, 561623, Poly_aftertouch_c, 0, 62, 0
1, 561625, Control_c, 0, 64, 95
1, 561640, Control_c, 0, 64, 96
1, 561655, Control_c, 0, 64, 97
1, 561670, Control_c, 0, 64, 99
1, 561685, Control_c, 0, 64, 101
1, 561700, Control_c, 0, 64, 102
1, 561715, Control_c, 0, 64, 103
1, 561730, Control_c, 0, 64, 104
1, 561745, Control_c, 0, 64, 105
1, 561774, Control_c, 0, 64, 106
1, 562270, Control_c, 0, 64, 105
1, 562282, Note_on_c, 0, 67, 32
1, 562285, Control_c, 0, 64, 105
1, 562296, Note_on_c, 0, 65, 24
1, 562300, Control_c, 0, 64, 103
1, 562314, Control_c, 0, 64, 100
1, 562329, Note_on_c, 0, 50, 34
1, 562329, Control_c, 0, 64, 94
1, 562344, Control_c, 0, 64, 87
1, 562353, Note_off_c, 0, 61, 35
1, 562355, Note_off_c, 0, 68, 40
1, 562359, Control_c, 0, 64, 79
1, 562374, Control_c, 0, 64, 70
1, 562389, Control_c, 0, 64, 62
1, 562404, Control_c, 0, 64, 48
1, 562418, Control_c, 0, 64, 27
1, 562433, Control_c, 0, 64, 0
1, 562493, Control_c, 0, 64, 32
1, 562508, Control_c, 0, 64, 55
1, 562523, Control_c, 0, 64, 63
1, 562538, Control_c, 0, 64, 67
1, 562553, Control_c, 0, 64, 70
1, 562567, Control_c, 0, 64, 74
1, 562582, Control_c, 0, 64, 79
1, 562597, Control_c, 0, 64, 86
1, 562612, Control_c, 0, 64, 91
1, 562627, Control_c, 0, 64, 97
1, 562642, Control_c, 0, 64, 103
1, 562656, Control_c, 0, 64, 111
1, 562678, Control_c, 0, 64, 127
1, 562883, Note_on_c, 0, 53, 37
1, 563030, Note_off_c, 0, 65, 29
1, 563161, Note_off_c, 0, 53, 35
1, 563212, Note_on_c, 0, 58, 21
1, 563417, Note_off_c, 0, 58, 30
1, 563467, Note_on_c, 0, 62, 19
1, 563609, Note_off_c, 0, 62, 35
1, 563660, Note_on_c, 0, 66, 30
1, 563675, Note_on_c, 0, 64, 27
1, 563689, Note_on_c, 0, 52, 36
1, 563752, Note_off_c, 0, 67, 35
1, 563806, Note_off_c, 0, 52, 57
1, 563959, Poly_aftertouch_c, 0, 57, 127
1, 564003, Poly_aftertouch_c, 0, 57, 0
1, 564117, Poly_aftertouch_c, 0, 61, 127
1, 564198, Poly_aftertouch_c, 0, 61, 0
1, 564233, Note_on_c, 0, 53, 37
1, 564255, Note_off_c, 0, 64, 34
1, 564290, Note_on_c, 0, 65, 27
1, 564296, Note_on_c, 0, 67, 28
1, 564317, Note_off_c, 0, 66, 28
1, 564405, Note_off_c, 0, 53, 42
1, 564445, Note_on_c, 0, 58, 21
1, 564448, Note_off_c, 0, 50, 27
1, 564495, Note_off_c, 0, 58, 47
1, 564552, Note_on_c, 0, 62, 23
1, 564654, Note_off_c, 0, 62, 34
1, 564696, Note_on_c, 0, 54, 39
1, 564715, Note_on_c, 0, 68, 31
1, 564726, Note_off_c, 0, 65, 34
1, 564729, Note_on_c, 0, 66, 25
1, 564737, Note_off_c, 0, 67, 32
1, 564837, Note_off_c, 0, 54, 39
1, 564848, Note_on_c, 0, 59, 26
1, 564954, Note_off_c, 0, 59, 37
1, 564991, Note_on_c, 0, 63, 30
1, 565028, Note_off_c, 0, 63, 53
1, 565106, Note_off_c, 0, 66, 38
1, 565116, Note_on_c, 0, 67, 35
1, 565117, Note_on_c, 0, 55, 37
1, 565122, Note_on_c, 0, 69, 30
1, 565129, Note_off_c, 0, 68, 42
1, 565259, Note_off_c, 0, 55, 33
1, 565265, Note_on_c, 0, 60, 8
1, 565310, Note_off_c, 0, 60, 49
1, 565346, Note_on_c, 0, 64, 30
1, 565462, Note_on_c, 0, 56, 33
1, 565468, Note_on_c, 0, 70, 30
1, 565483, Note_off_c, 0, 64, 39
1, 565489, Note_off_c, 0, 67, 39
1, 565494, Note_on_c, 0, 68, 32
1, 565498, Note_off_c, 0, 69, 37
1, 565571, Note_off_c, 0, 56, 34
1, 565581, Note_on_c, 0, 61, 27
1, 565635, Note_off_c, 0, 61, 50
1, 565685, Note_on_c, 0, 65, 32
1, 565798, Note_on_c, 0, 55, 40
1, 565803, Note_on_c, 0, 67, 35
1, 565807, Control_c, 0, 64, 110
1, 565808, Note_on_c, 0, 69, 29
1, 565817, Note_off_c, 0, 65, 34
1, 565820, Note_off_c, 0, 70, 38
1, 565822, Control_c, 0, 64, 98
1, 565834, Note_off_c, 0, 68, 39
1, 565837, Control_c, 0, 64, 96
1, 565881, Control_c, 0, 64, 97
1, 565896, Control_c, 0, 64, 101
1, 565911, Control_c, 0, 64, 109
1, 565925, Control_c, 0, 64, 127
1, 565937, Note_on_c, 0, 60, 41
1, 565971, Note_off_c, 0, 55, 34
1, 565995, Note_off_c, 0, 60, 56
1, 566034, Note_on_c, 0, 64, 35
1, 566139, Note_on_c, 0, 56, 40
1, 566148, Note_off_c, 0, 69, 39
1, 566154, Note_on_c, 0, 70, 39
1, 566160, Note_off_c, 0, 64, 32
1, 566173, Note_off_c, 0, 67, 40
1, 566178, Note_on_c, 0, 68, 31
1, 566213, Note_off_c, 0, 56, 56
1, 566258, Note_on_c, 0, 61, 33
1, 566317, Note_off_c, 0, 61, 43
1, 566341, Note_on_c, 0, 65, 40
1, 566391, Note_off_c, 0, 65, 54
1, 566452, Note_on_c, 0, 55, 45
1, 566461, Note_on_c, 0, 67, 36
1, 566464, Note_off_c, 0, 68, 40
1, 566470, Note_on_c, 0, 69, 32
1, 566478, Note_off_c, 0, 70, 32
1, 566552, Note_off_c, 0, 55, 57
1, 566590, Note_on_c, 0, 60, 32
1, 566630, Note_off_c, 0, 60, 49
1, 566654, Note_on_c, 0, 64, 42
1, 566700, Note_off_c, 0, 64, 58
1, 566744, Note_on_c, 0, 54, 47
1, 566757, Note_on_c, 0, 68, 41
1, 566761, Note_off_c, 0, 69, 39
1, 566768, Note_on_c, 0, 66, 37
1, 566801, Note_off_c, 0, 67, 41
1, 566804, Note_off_c, 0, 54, 56
1, 566853, Note_on_c, 0, 59, 38
1, 566934, Note_on_c, 0, 63, 38
1, 566959, Note_off_c, 0, 59, 38
1, 566990, Note_off_c, 0, 63, 54
1, 567034, Note_on_c, 0, 53, 40
1, 567068, Note_on_c, 0, 65, 39
1, 567069, Note_on_c, 0, 67, 40
1, 567072, Note_off_c, 0, 66, 35
1, 567080, Note_off_c, 0, 68, 33
1, 567116, Note_off_c, 0, 53, 58
1, 567182, Note_on_c, 0, 58, 29
1, 567203, Note_on_c, 0, 62, 44
1, 567222, Note_off_c, 0, 58, 48
1, 567248, Note_off_c, 0, 62, 63
1, 567326, Note_on_c, 0, 52, 48
1, 567339, Note_on_c, 0, 66, 42
1, 567359, Note_on_c, 0, 64, 40
1, 567369, Note_off_c, 0, 52, 61
1, 567385, Note_off_c, 0, 67, 39
1, 567402, Note_off_c, 0, 65, 38
1, 567492, Poly_aftertouch_c, 0, 57, 0
1, 567494, Note_on_c, 0, 61, 35
1, 567564, Note_off_c, 0, 61, 53
1, 567622, Note_on_c, 0, 50, 46
1, 567650, Note_off_c, 0, 64, 54
1, 567661, Control_c, 0, 64, 117
1, 567676, Control_c, 0, 64, 91
1, 567677, Note_on_c, 0, 65, 42
1, 567680, Note_on_c, 0, 67, 42
1, 567691, Control_c, 0, 64, 74
1, 567705, Control_c, 0, 64, 65
1, 567720, Control_c, 0, 64, 61
1, 567735, Control_c, 0, 64, 64
1, 567736, Note_off_c, 0, 66, 27
1, 567750, Control_c, 0, 64, 69
1, 567754, Note_on_c, 0, 53, 40
1, 567765, Control_c, 0, 64, 76
1, 567779, Control_c, 0, 64, 85
1, 567794, Control_c, 0, 64, 96
1, 567809, Control_c, 0, 64, 102
1, 567824, Control_c, 0, 64, 107
1, 567839, Control_c, 0, 64, 114
1, 567853, Control_c, 0, 64, 127
1, 567889, Note_on_c, 0, 58, 50
1, 567965, Note_off_c, 0, 53, 32
1, 568008, Note_off_c, 0, 58, 56
1, 568041, Note_on_c, 0, 62, 40
1, 568121, Note_off_c, 0, 62, 45
1, 568207, Note_on_c, 0, 52, 37
1, 568220, Note_off_c, 0, 67, 39
1, 568245, Note_on_c, 0, 66, 32
1, 568249, Note_on_c, 0, 64, 33
1, 568255, Note_off_c, 0, 65, 32
1, 568315, Note_off_c, 0, 52, 59
1, 568327, Note_on_c, 0, 57, 51
1, 568424, Note_off_c, 0, 57, 59
1, 568477, Note_on_c, 0, 61, 20
1, 568531, Note_off_c, 0, 61, 44
1, 568566, Note_on_c, 0, 53, 49
1, 568630, Note_on_c, 0, 65, 37
1, 568630, Note_on_c, 0, 67, 38
1, 568637, Note_off_c, 0, 64, 32
1, 568640, Note_off_c, 0, 66, 41
1, 568659, Note_on_c, 0, 58, 51
1, 568709, Note_off_c, 0, 50, 33
1, 568716, Note_off_c, 0, 53, 33
1, 568747, Note_off_c, 0, 58, 49
1, 568764, Note_on_c, 0, 62, 47
1, 568806, Note_off_c, 0, 62, 60
1, 568866, Note_on_c, 0, 54, 51
1, 568935, Note_on_c, 0, 66, 37
1, 568936, Note_on_c, 0, 68, 44
1, 568963, Note_off_c, 0, 65, 33
1, 568964, Note_off_c, 0, 54, 47
1, 568970, Note_on_c, 0, 59, 53
1, 568986, Note_off_c, 0, 67, 30
1, 569060, Note_off_c, 0, 59, 61
1, 569073, Note_on_c, 0, 63, 48
1, 569122, Note_off_c, 0, 63, 56
1, 569184, Note_on_c, 0, 55, 44
1, 569242, Note_on_c, 0, 67, 44
1, 569245, Note_on_c, 0, 69, 43
1, 569263, Note_off_c, 0, 66, 35
1, 569263, Note_off_c, 0, 68, 35
1, 569266, Note_off_c, 0, 55, 50
1, 569269, Note_on_c, 0, 60, 45
1, 569349, Note_off_c, 0, 60, 56
1, 569363, Note_on_c, 0, 64, 47
1, 569461, Note_on_c, 0, 56, 50
1, 569463, Note_off_c, 0, 64, 48
1, 569518, Note_off_c, 0, 56, 53
1, 569545, Note_on_c, 0, 70, 50
1, 569546, Note_on_c, 0, 68, 46
1, 569556, Note_on_c, 0, 61, 52
1, 569557, Note_off_c, 0, 69, 0
1, 569579, Note_off_c, 0, 67, 34
1, 569612, Poly_aftertouch_c, 0, 69, 0
1, 569647, Note_off_c, 0, 61, 55
1, 569668, Note_on_c, 0, 65, 36
1, 569704, Note_off_c, 0, 65, 51
1, 569742, Note_on_c, 0, 57, 51
1, 569817, Note_off_c, 0, 68, 54
1, 569818, Control_c, 0, 64, 95
1, 569826, Note_on_c, 0, 69, 51
1, 569826, Note_on_c, 0, 71, 49
1, 569833, Control_c, 0, 64, 80
1, 569843, Note_off_c, 0, 57, 54
1, 569844, Note_on_c, 0, 62, 55
1, 569847, Control_c, 0, 64, 75
1, 569855, Note_off_c, 0, 70, 34
1, 569862, Control_c, 0, 64, 74
1, 569877, Control_c, 0, 64, 76
1, 569892, Control_c, 0, 64, 80
1, 569906, Control_c, 0, 64, 88
1, 569921, Control_c, 0, 64, 97
1, 569936, Control_c, 0, 64, 111
1, 569940, Note_off_c, 0, 62, 55
1, 569951, Control_c, 0, 64, 127
1, 569953, Note_on_c, 0, 66, 51
1, 570029, Note_on_c, 0, 58, 56
1, 570040, Note_off_c, 0, 66, 49
1, 570101, Note_off_c, 0, 58, 51
1, 570113, Note_on_c, 0, 72, 48
1, 570126, Note_on_c, 0, 63, 51
1, 570130, Note_on_c, 0, 70, 48
1, 570150, Note_off_c, 0, 69, 34
1, 570154, Note_off_c, 0, 71, 33
1, 570189, Note_off_c, 0, 63, 48
1, 570226, Note_on_c, 0, 67, 51
1, 570266, Note_off_c, 0, 67, 60
1, 570306, Note_on_c, 0, 57, 55
1, 570316, Note_off_c, 0, 72, 53
1, 570347, Note_off_c, 0, 70, 53
1, 570363, Note_on_c, 0, 71, 51
1, 570363, Note_off_c, 0, 57, 57
1, 570364, Note_on_c, 0, 69, 48
1, 570395, Note_on_c, 0, 62, 53
1, 570434, Note_off_c, 0, 62, 61
1, 570485, Note_on_c, 0, 66, 59
1, 570529, Note_off_c, 0, 66, 50
1, 570567, Note_on_c, 0, 56, 57
1, 570616, Note_off_c, 0, 56, 56
1, 570619, Note_on_c, 0, 70, 56
1, 570641, Note_on_c, 0, 68, 49
1, 570651, Note_on_c, 0, 61, 65
1, 570700, Note_off_c, 0, 71, 40
1, 570711, Note_off_c, 0, 69, 43
1, 570717, Note_off_c, 0, 61, 58
1, 570742, Note_on_c, 0, 65, 55
1, 570786, Note_off_c, 0, 65, 57
1, 570820, Note_on_c, 0, 55, 54
1, 570827, Note_off_c, 0, 70, 52
1, 570832, Note_off_c, 0, 68, 60
1, 570854, Note_on_c, 0, 67, 51
1, 570855, Note_on_c, 0, 69, 54
1, 570873, Note_off_c, 0, 55, 54
1, 570899, Note_on_c, 0, 60, 57
1, 570953, Note_off_c, 0, 60, 55
1, 570966, Note_on_c, 0, 64, 48
1, 570999, Note_off_c, 0, 64, 64
1, 571041, Note_on_c, 0, 54, 55
1, 571078, Note_off_c, 0, 69, 52
1, 571081, Note_off_c, 0, 67, 59
1, 571097, Note_off_c, 0, 54, 56
1, 571100, Note_on_c, 0, 68, 55
1, 571114, Note_on_c, 0, 66, 46
1, 571154, Note_on_c, 0, 59, 31
1, 571164, Note_on_c, 0, 63, 46
1, 571188, Note_off_c, 0, 59, 45
1, 571212, Note_off_c, 0, 63, 60
1, 571273, Note_on_c, 0, 50, 51
1, 571331, Control_c, 0, 64, 94
1, 571346, Control_c, 0, 64, 76
1, 571350, Note_off_c, 0, 66, 46
1, 571350, Note_off_c, 0, 68, 47
1, 571358, Note_on_c, 0, 65, 48
1, 571360, Note_on_c, 0, 67, 48
1, 571361, Control_c, 0, 64, 63
1, 571374, Note_on_c, 0, 53, 47
1, 571376, Control_c, 0, 64, 60
1, 571391, Control_c, 0, 64, 63
1, 571406, Control_c, 0, 64, 69
1, 571420, Control_c, 0, 64, 77
1, 571435, Control_c, 0, 64, 88
1, 571444, Note_on_c, 0, 58, 56
1, 571450, Control_c, 0, 64, 98
1, 571464, Control_c, 0, 64, 106
1, 571479, Control_c, 0, 64, 112
1, 571494, Control_c, 0, 64, 127
1, 571513, Note_off_c, 0, 53, 56
1, 571546, Note_on_c, 0, 62, 63
1, 571553, Note_off_c, 0, 58, 58
1, 571658, Note_off_c, 0, 62, 53
1, 571689, Note_on_c, 0, 52, 37
1, 571781, Note_off_c, 0, 67, 36
1, 571792, Note_off_c, 0, 52, 61
1, 571793, Note_on_c, 0, 66, 44
1, 571805, Note_on_c, 0, 57, 57
1, 571808, Note_on_c, 0, 64, 39
1, 571825, Note_off_c, 0, 65, 33
1, 571908, Note_off_c, 0, 57, 61
1, 571913, Note_on_c, 0, 61, 62
1, 572019, Note_off_c, 0, 61, 56
1, 572032, Note_on_c, 0, 53, 55
1, 572087, Note_off_c, 0, 64, 56
1, 572103, Note_off_c, 0, 66, 48
1, 572103, Note_off_c, 0, 50, 34
1, 572120, Note_on_c, 0, 65, 44
1, 572120, Note_on_c, 0, 67, 48
1, 572128, Note_off_c, 0, 53, 55
1, 572132, Note_on_c, 0, 58, 55
1, 572180, Note_off_c, 0, 58, 54
1, 572207, Note_on_c, 0, 62, 63
1, 572243, Control_c, 0, 67, 127
1, 572258, Control_c, 0, 67, 126
1, 572273, Note_off_c, 0, 62, 61
1, 572273, Control_c, 0, 67, 126
1, 572287, Control_c, 0, 67, 125
1, 572295, Note_on_c, 0, 54, 59
1, 572302, Control_c, 0, 67, 123
1, 572317, Control_c, 0, 67, 123
1, 572332, Control_c, 0, 67, 122
1, 572345, Control_c, 0, 67, 122
1, 572369, Note_off_c, 0, 54, 59
1, 572391, Note_on_c, 0, 59, 63
1, 572393, Note_on_c, 0, 68, 54
1, 572395, Note_on_c, 0, 66, 52
1, 572398, Note_off_c, 0, 65, 52
1, 572440, Note_off_c, 0, 67, 35
1, 572476, Note_off_c, 0, 59, 60
1, 572483, Note_on_c, 0, 63, 59
1, 572530, Control_c, 0, 67, 121
1, 572554, Note_off_c, 0, 63, 62
1, 572574, Control_c, 0, 67, 121
1, 572583, Note_on_c, 0, 55, 50
1, 572604, Control_c, 0, 67, 120
1, 572619, Control_c, 0, 67, 119
1, 572630, Note_off_c, 0, 68, 57
1, 572631, Note_off_c, 0, 66, 59
1, 572634, Control_c, 0, 67, 118
1, 572649, Control_c, 0, 67, 118
1, 572656, Note_on_c, 0, 67, 53
1, 572660, Note_on_c, 0, 69, 52
1, 572661, Note_on_c, 0, 60, 63
1, 572679, Control_c, 0, 67, 117
1, 572693, Control_c, 0, 67, 117
1, 572703, Note_off_c, 0, 55, 34
1, 572708, Control_c, 0, 67, 116
1, 572714, Note_off_c, 0, 60, 61
1, 572746, Note_on_c, 0, 64, 66
1, 572753, Control_c, 0, 67, 116
1, 572797, Control_c, 0, 67, 115
1, 572807, Note_off_c, 0, 64, 62
1, 572839, Note_on_c, 0, 56, 62
1, 572842, Control_c, 0, 67, 115
1, 572857, Control_c, 0, 67, 114
1, 572872, Control_c, 0, 67, 114
1, 572883, Note_off_c, 0, 56, 56
1, 572913, Note_on_c, 0, 61, 66
1, 572914, Note_on_c, 0, 70, 55
1, 572916, Control_c, 0, 67, 113
1, 572928, Note_on_c, 0, 68, 51
1, 572952, Note_off_c, 0, 67, 35
1, 572956, Note_off_c, 0, 69, 34
1, 572961, Control_c, 0, 67, 113
1, 572976, Control_c, 0, 67, 112
1, 572987, Note_off_c, 0, 61, 54
1, 572990, Control_c, 0, 67, 112
1, 572993, Note_on_c, 0, 65, 68
1, 573020, Control_c, 0, 67, 111
1, 573034, Control_c, 0, 67, 110
1, 573049, Control_c, 0, 67, 109
1, 573055, Note_off_c, 0, 65, 58
1, 573064, Control_c, 0, 67, 109
1, 573079, Control_c, 0, 67, 107
1, 573095, Control_c, 0, 67, 106
1, 573102, Note_on_c, 0, 55, 63
1, 573109, Control_c, 0, 67, 104
1, 573124, Control_c, 0, 67, 102
1, 573139, Control_c, 0, 67, 100
1, 573154, Control_c, 0, 67, 98
1, 573176, Control_c, 0, 67, 96
1, 573179, Note_off_c, 0, 68, 62
1, 573179, Note_off_c, 0, 70, 59
1, 573191, Control_c, 0, 67, 95
1, 573193, Note_off_c, 0, 55, 54
1, 573196, Note_on_c, 0, 67, 60
1, 573197, Note_on_c, 0, 69, 52
1, 573206, Control_c, 0, 67, 94
1, 573208, Note_on_c, 0, 60, 46
1, 573221, Control_c, 0, 67, 93
1, 573249, Note_off_c, 0, 60, 60
1, 573250, Control_c, 0, 64, 98
1, 573251, Note_on_c, 0, 64, 64
1, 573265, Control_c, 0, 64, 92
1, 573265, Control_c, 0, 67, 92
1, 573295, Control_c, 0, 64, 92
1, 573310, Control_c, 0, 64, 97
1, 573317, Note_off_c, 0, 64, 58
1, 573324, Control_c, 0, 64, 109
1, 573334, Note_on_c, 0, 54, 60
1, 573339, Control_c, 0, 64, 127
1, 573368, Control_c, 0, 67, 93
1, 573382, Note_off_c, 0, 54, 61
1, 573412, Note_on_c, 0, 59, 55
1, 573430, Note_on_c, 0, 68, 56
1, 573439, Note_on_c, 0, 66, 54
1, 573442, Control_c, 0, 67, 93
1, 573454, Note_off_c, 0, 69, 46
1, 573463, Note_off_c, 0, 67, 36
1, 573476, Note_on_c, 0, 63, 58
1, 573480, Note_off_c, 0, 59, 59
1, 573511, Note_off_c, 0, 63, 62
1, 573546, Control_c, 0, 67, 93
1, 573553, Note_on_c, 0, 55, 61
1, 573606, Control_c, 0, 67, 92
1, 573633, Note_on_c, 0, 60, 58
1, 573642, Note_off_c, 0, 55, 57
1, 573647, Note_off_c, 0, 66, 59
1, 573653, Note_off_c, 0, 68, 60
1, 573668, Note_on_c, 0, 67, 62
1, 573670, Note_on_c, 0, 69, 59
1, 573673, Note_off_c, 0, 60, 56
1, 573695, Note_on_c, 0, 64, 58
1, 573759, Note_off_c, 0, 64, 62
1, 573770, Note_on_c, 0, 56, 62
1, 573784, Control_c, 0, 67, 93
1, 573799, Control_c, 0, 64, 86
1, 573814, Control_c, 0, 64, 72
1, 573829, Control_c, 0, 64, 66
1, 573838, Note_off_c, 0, 56, 58
1, 573844, Control_c, 0, 64, 67
1, 573856, Note_on_c, 0, 61, 56
1, 573858, Control_c, 0, 64, 72
1, 573868, Note_on_c, 0, 70, 64
1, 573872, Note_on_c, 0, 68, 60
1, 573873, Control_c, 0, 64, 79
1, 573880, Note_off_c, 0, 67, 52
1, 573888, Control_c, 0, 64, 88
1, 573910, Control_c, 0, 64, 101
1, 573914, Note_off_c, 0, 61, 54
1, 573920, Note_off_c, 0, 69, 36
1, 573925, Control_c, 0, 64, 116
1, 573927, Note_on_c, 0, 65, 56
1, 573940, Control_c, 0, 64, 127
1, 573955, Control_c, 0, 67, 93
1, 573966, Note_off_c, 0, 65, 58
1, 573999, Control_c, 0, 67, 94
1, 574010, Note_on_c, 0, 57, 64
1, 574044, Control_c, 0, 67, 94
1, 574050, Note_off_c, 0, 68, 61
1, 574059, Control_c, 0, 67, 95
1, 574071, Note_off_c, 0, 70, 53
1, 574072, Note_off_c, 0, 57, 59
1, 574075, Note_on_c, 0, 71, 46
1, 574077, Note_on_c, 0, 69, 58
1, 574092, Note_on_c, 0, 62, 50
1, 574103, Control_c, 0, 67, 94
1, 574138, Note_off_c, 0, 62, 61
1, 574157, Note_on_c, 0, 66, 56
1, 574162, Control_c, 0, 67, 95
1, 574203, Note_off_c, 0, 66, 51
1, 574206, Control_c, 0, 67, 95
1, 574221, Control_c, 0, 67, 96
1, 574225, Note_on_c, 0, 58, 62
1, 574236, Control_c, 0, 67, 97
1, 574251, Control_c, 0, 67, 99
1, 574265, Control_c, 0, 67, 101
1, 574266, Note_off_c, 0, 58, 60
1, 574280, Control_c, 0, 67, 102
1, 574285, Note_off_c, 0, 69, 51
1, 574295, Control_c, 0, 67, 102
1, 574298, Note_on_c, 0, 72, 52
1, 574306, Note_on_c, 0, 70, 52
1, 574307, Note_on_c, 0, 63, 49
1, 574310, Control_c, 0, 67, 103
1, 574318, Note_off_c, 0, 71, 36
1, 574325, Control_c, 0, 67, 104
1, 574339, Control_c, 0, 67, 105
1, 574342, Note_off_c, 0, 63, 62
1, 574354, Control_c, 0, 67, 106
1, 574369, Control_c, 0, 67, 107
1, 574384, Control_c, 0, 67, 108
1, 574387, Note_on_c, 0, 67, 62
1, 574414, Control_c, 0, 67, 108
1, 574414, Note_off_c, 0, 67, 67
1, 574428, Control_c, 0, 67, 108
1, 574444, Control_c, 0, 67, 107
1, 574459, Control_c, 0, 67, 107
1, 574474, Control_c, 0, 67, 106
1, 574488, Control_c, 0, 67, 106
1, 574550, Note_off_c, 0, 70, 57
1, 574551, Note_off_c, 0, 72, 57
1, 574563, Control_c, 0, 64, 87
1, 574569, Note_on_c, 0, 49, 61
1, 574573, Note_on_c, 0, 73, 49
1, 574578, Control_c, 0, 64, 68
1, 574579, Note_on_c, 0, 71, 50
1, 574592, Control_c, 0, 64, 53
1, 574606, Control_c, 0, 64, 44
1, 574621, Control_c, 0, 64, 49
1, 574621, Control_c, 0, 67, 105
1, 574636, Control_c, 0, 64, 59
1, 574658, Control_c, 0, 64, 69
1, 574673, Note_off_c, 0, 49, 58
1, 574673, Control_c, 0, 64, 80
1, 574688, Control_c, 0, 64, 95
1, 574694, Note_on_c, 0, 53, 54
1, 574703, Control_c, 0, 64, 108
1, 574703, Control_c, 0, 67, 105
1, 574718, Control_c, 0, 64, 115
1, 574733, Control_c, 0, 64, 127
1, 574733, Control_c, 0, 67, 104
1, 574747, Control_c, 0, 67, 103
1, 574749, Note_off_c, 0, 71, 32
1, 574759, Note_off_c, 0, 53, 61
1, 574778, Note_on_c, 0, 72, 51
1, 574799, Note_on_c, 0, 59, 45
1, 574799, Note_on_c, 0, 70, 41
1, 574806, Note_off_c, 0, 73, 35
1, 574823, Note_off_c, 0, 59, 60
1, 574866, Control_c, 0, 67, 104
1, 574914, Note_off_c, 0, 72, 46
1, 574916, Note_on_c, 0, 63, 60
1, 574939, Control_c, 0, 67, 103
1, 574944, Note_off_c, 0, 70, 42
1, 574949, Note_off_c, 0, 63, 64
1, 574950, Note_on_c, 0, 73, 44
1, 574954, Control_c, 0, 67, 103
1, 574966, Note_on_c, 0, 71, 58
1, 574969, Control_c, 0, 67, 101
1, 574984, Control_c, 0, 67, 100
1, 574999, Control_c, 0, 67, 99
1, 575000, Note_off_c, 0, 71, 64
1, 575010, Note_off_c, 0, 73, 56
1, 575013, Note_on_c, 0, 68, 60
1, 575013, Control_c, 0, 67, 98
1, 575028, Control_c, 0, 67, 98
1, 575039, Note_off_c, 0, 68, 68
1, 575043, Control_c, 0, 67, 97
1, 575102, Control_c, 0, 67, 97
1, 575117, Control_c, 0, 64, 103
1, 575132, Note_on_c, 0, 51, 71
1, 575132, Control_c, 0, 64, 101
1, 575132, Control_c, 0, 67, 96
1, 575136, Note_on_c, 0, 72, 57
1, 575138, Note_on_c, 0, 74, 55
1, 575147, Control_c, 0, 67, 96
1, 575162, Control_c, 0, 64, 101
1, 575162, Control_c, 0, 67, 95
1, 575177, Control_c, 0, 64, 105
1, 575192, Control_c, 0, 64, 116
1, 575192, Control_c, 0, 67, 94
1, 575206, Control_c, 0, 64, 127
1, 575206, Control_c, 0, 67, 94
1, 575221, Control_c, 0, 67, 92
1, 575236, Control_c, 0, 67, 91
1, 575237, Note_off_c, 0, 51, 59
1, 575251, Control_c, 0, 67, 90
1, 575269, Note_on_c, 0, 58, 50
1, 575308, Note_on_c, 0, 75, 56
1, 575313, Note_on_c, 0, 73, 53
1, 575316, Note_off_c, 0, 74, 42
1, 575326, Control_c, 0, 67, 90
1, 575331, Note_off_c, 0, 72, 31
1, 575363, Note_off_c, 0, 58, 57
1, 575379, Note_on_c, 0, 61, 59
1, 575422, Note_off_c, 0, 61, 61
1, 575457, Note_off_c, 0, 73, 36
1, 575457, Note_off_c, 0, 75, 30
1, 575466, Control_c, 0, 67, 89
1, 575478, Note_on_c, 0, 76, 42
1, 575479, Note_on_c, 0, 74, 59
1, 575481, Note_on_c, 0, 67, 60
1, 575481, Control_c, 0, 67, 89
1, 575496, Control_c, 0, 67, 88
1, 575511, Control_c, 0, 67, 87
1, 575521, Note_off_c, 0, 67, 58
1, 575525, Control_c, 0, 67, 87
1, 575540, Control_c, 0, 67, 86
1, 575555, Control_c, 0, 67, 86
1, 575585, Control_c, 0, 64, 88
1, 575585, Control_c, 0, 67, 85
1, 575600, Control_c, 0, 64, 72
1, 575612, Note_on_c, 0, 53, 68
1, 575615, Control_c, 0, 64, 65
1, 575615, Control_c, 0, 67, 85
1, 575626, Note_off_c, 0, 74, 35
1, 575628, Note_on_c, 0, 77, 61
1, 575630, Control_c, 0, 64, 68
1, 575630, Control_c, 0, 67, 84
1, 575632, Note_off_c, 0, 76, 35
1, 575634, Note_on_c, 0, 75, 59
1, 575645, Control_c, 0, 64, 75
1, 575645, Control_c, 0, 67, 83
1, 575660, Control_c, 0, 64, 88
1, 575660, Control_c, 0, 67, 81
1, 575674, Control_c, 0, 64, 105
1, 575674, Control_c, 0, 67, 80
1, 575689, Control_c, 0, 64, 127
1, 575689, Control_c, 0, 67, 80
1, 575694, Note_off_c, 0, 53, 61
1, 575704, Control_c, 0, 67, 79
1, 575719, Control_c, 0, 67, 79
1, 575723, Note_on_c, 0, 59, 51
1, 575734, Control_c, 0, 67, 77
1, 575749, Control_c, 0, 67, 76
1, 575763, Control_c, 0, 67, 73
1, 575765, Note_off_c, 0, 75, 35
1, 575766, Note_off_c, 0, 77, 28
1, 575776, Note_on_c, 0, 74, 60
1, 575778, Control_c, 0, 67, 72
1, 575782, Note_on_c, 0, 78, 57
1, 575793, Note_off_c, 0, 59, 63
1, 575793, Control_c, 0, 67, 70
1, 575802, Note_on_c, 0, 63, 58
1, 575808, Control_c, 0, 67, 69
1, 575823, Control_c, 0, 67, 68
1, 575837, Control_c, 0, 67, 65
1, 575842, Note_off_c, 0, 63, 57
1, 575852, Control_c, 0, 67, 63
1, 575867, Control_c, 0, 67, 61
1, 575876, Note_off_c, 0, 74, 34
1, 575882, Control_c, 0, 67, 58
1, 575897, Control_c, 0, 67, 55
1, 575911, Control_c, 0, 67, 52
1, 575919, Note_on_c, 0, 68, 56
1, 575925, Note_on_c, 0, 77, 53
1, 575926, Control_c, 0, 67, 48
1, 575932, Note_on_c, 0, 75, 55
1, 575941, Control_c, 0, 67, 43
1, 575955, Control_c, 0, 67, 37
1, 575961, Note_off_c, 0, 68, 59
1, 575970, Control_c, 0, 67, 31
1, 575979, Note_off_c, 0, 78, 37
1, 575985, Control_c, 0, 67, 24
1, 576000, Control_c, 0, 67, 15
1, 576015, Control_c, 0, 67, 0
1, 576047, Note_off_c, 0, 75, 54
1, 576052, Note_on_c, 0, 56, 59
1, 576057, Note_off_c, 0, 77, 24
1, 576079, Note_on_c, 0, 74, 65
1, 576082, Note_on_c, 0, 76, 57
1, 576125, Note_off_c, 0, 56, 58
1, 576140, Note_on_c, 0, 61, 60
1, 576162, Note_off_c, 0, 76, 48
1, 576188, Note_off_c, 0, 61, 60
1, 576216, Control_c, 0, 67, 8
1, 576218, Note_on_c, 0, 75, 58
1, 576226, Note_on_c, 0, 65, 59
1, 576231, Note_on_c, 0, 73, 54
1, 576235, Note_off_c, 0, 74, 26
1, 576260, Control_c, 0, 67, 9
1, 576265, Note_off_c, 0, 65, 62
1, 576275, Control_c, 0, 67, 9
1, 576279, Note_off_c, 0, 73, 49
1, 576281, Note_off_c, 0, 75, 49
1, 576320, Control_c, 0, 67, 9
1, 576328, Note_on_c, 0, 71, 66
1, 576334, Control_c, 0, 67, 8
1, 576349, Control_c, 0, 67, 0
1, 576354, Note_off_c, 0, 71, 66
1, 576375, Note_on_c, 0, 72, 45
1, 576392, Note_on_c, 0, 74, 31
1, 576406, Note_off_c, 0, 72, 62
1, 576427, Note_off_c, 0, 74, 43
1, 576438, Control_c, 0, 64, 98
1, 576453, Control_c, 0, 64, 76
1, 576467, Note_on_c, 0, 49, 75
1, 576467, Control_c, 0, 64, 69
1, 576482, Control_c, 0, 64, 70
1, 576497, Control_c, 0, 64, 74
1, 576503, Note_on_c, 0, 73, 65
1, 576512, Note_on_c, 0, 71, 61
1, 576512, Control_c, 0, 64, 82
1, 576521, Note_on_c, 0, 48, 23
1, 576522, Note_off_c, 0, 49, 61
1, 576527, Control_c, 0, 64, 93
1, 576542, Control_c, 0, 64, 106
1, 576545, Note_off_c, 0, 71, 65
1, 576545, Note_on_c, 0, 53, 59
1, 576557, Control_c, 0, 64, 112
1, 576560, Note_off_c, 0, 48, 31
1, 576572, Control_c, 0, 64, 117
1, 576581, Note_off_c, 0, 53, 65
1, 576586, Control_c, 0, 64, 121
1, 576601, Control_c, 0, 64, 124
1, 576602, Note_on_c, 0, 59, 54
1, 576616, Control_c, 0, 64, 127
1, 576624, Note_off_c, 0, 59, 57
1, 576631, Note_off_c, 0, 73, 29
1, 576635, Note_on_c, 0, 72, 53
1, 576640, Note_on_c, 0, 70, 57
1, 576661, Note_off_c, 0, 72, 56
1, 576683, Note_off_c, 0, 70, 55
1, 576703, Note_on_c, 0, 63, 58
1, 576733, Note_off_c, 0, 63, 66
1, 576748, Note_on_c, 0, 73, 64
1, 576751, Note_on_c, 0, 71, 64
1, 576777, Note_on_c, 0, 68, 57
1, 576777, Note_off_c, 0, 71, 67
1, 576778, Control_c, 0, 64, 90
1, 576779, Note_off_c, 0, 73, 61
1, 576793, Control_c, 0, 64, 74
1, 576798, Note_off_c, 0, 68, 62
1, 576808, Control_c, 0, 64, 68
1, 576823, Control_c, 0, 64, 69
1, 576840, Control_c, 0, 64, 74
1, 576855, Control_c, 0, 64, 85
1, 576867, Note_on_c, 0, 51, 79
1, 576870, Control_c, 0, 64, 95
1, 576884, Note_on_c, 0, 74, 65
1, 576884, Control_c, 0, 64, 102
1, 576885, Note_on_c, 0, 72, 63
1, 576899, Control_c, 0, 64, 105
1, 576921, Control_c, 0, 64, 108
1, 576935, Control_c, 0, 64, 111
1, 576941, Note_off_c, 0, 51, 63
1, 576950, Control_c, 0, 64, 114
1, 576965, Control_c, 0, 64, 117
1, 576973, Note_on_c, 0, 58, 66
1, 576980, Control_c, 0, 64, 118
1, 576995, Control_c, 0, 64, 122
1, 577010, Control_c, 0, 64, 127
1, 577022, Note_on_c, 0, 73, 64
1, 577027, Note_on_c, 0, 75, 60
1, 577043, Note_off_c, 0, 58, 56
1, 577043, Note_off_c, 0, 72, 31
1, 577053, Note_off_c, 0, 74, 40
1, 577057, Note_on_c, 0, 61, 62
1, 577090, Note_off_c, 0, 61, 63
1, 577091, Note_off_c, 0, 73, 61
1, 577108, Note_off_c, 0, 75, 54
1, 577123, Note_on_c, 0, 67, 64
1, 577144, Note_on_c, 0, 76, 66
1, 577145, Note_on_c, 0, 74, 67
1, 577155, Note_off_c, 0, 67, 61
1, 577188, Control_c, 0, 64, 112
1, 577203, Control_c, 0, 64, 82
1, 577217, Control_c, 0, 64, 64
1, 577223, Note_off_c, 0, 74, 58
1, 577231, Note_off_c, 0, 76, 49
1, 577232, Control_c, 0, 64, 44
1, 577234, Note_on_c, 0, 53, 71
1, 577247, Control_c, 0, 64, 33
1, 577260, Note_on_c, 0, 75, 65
1, 577262, Control_c, 0, 64, 41
1, 577263, Note_on_c, 0, 77, 70
1, 577277, Control_c, 0, 64, 59
1, 577291, Control_c, 0, 64, 71
1, 577300, Note_off_c, 0, 53, 63
1, 577306, Control_c, 0, 64, 81
1, 577318, Note_on_c, 0, 59, 62
1, 577321, Control_c, 0, 64, 91
1, 577335, Control_c, 0, 64, 95
1, 577348, Note_off_c, 0, 75, 56
1, 577350, Control_c, 0, 64, 96
1, 577365, Control_c, 0, 64, 98
1, 577368, Note_off_c, 0, 59, 64
1, 577369, Note_on_c, 0, 63, 66
1, 577380, Control_c, 0, 64, 103
1, 577382, Note_off_c, 0, 77, 33
1, 577387, Note_on_c, 0, 78, 65
1, 577389, Note_on_c, 0, 74, 56
1, 577395, Control_c, 0, 64, 111
1, 577396, Note_on_c, 0, 76, 55
1, 577409, Control_c, 0, 64, 127
1, 577414, Note_off_c, 0, 63, 48
1, 577434, Note_off_c, 0, 76, 52
1, 577440, Note_off_c, 0, 74, 58
1, 577457, Note_on_c, 0, 68, 57
1, 577460, Note_off_c, 0, 78, 50
1, 577499, Note_on_c, 0, 77, 67
1, 577499, Poly_aftertouch_c, 0, 78, 0
1, 577507, Note_on_c, 0, 75, 61
1, 577519, Note_off_c, 0, 68, 60
1, 577536, Poly_aftertouch_c, 0, 78, 127
1, 577558, Control_c, 0, 64, 121
1, 577568, Note_off_c, 0, 77, 59
1, 577570, Note_on_c, 0, 56, 70
1, 577572, Note_off_c, 0, 75, 61
1, 577581, Poly_aftertouch_c, 0, 78, 0
1, 577602, Control_c, 0, 64, 122
1, 577617, Control_c, 0, 64, 127
1, 577618, Note_on_c, 0, 74, 78
1, 577619, Note_on_c, 0, 76, 66
1, 577636, Note_off_c, 0, 56, 62
1, 577646, Note_on_c, 0, 61, 63
1, 577677, Note_off_c, 0, 76, 56
1, 577681, Note_off_c, 0, 74, 63
1, 577689, Note_off_c, 0, 61, 63
1, 577705, Note_on_c, 0, 66, 65
1, 577737, Note_on_c, 0, 75, 68
1, 577747, Note_on_c, 0, 73, 62
1, 577759, Note_off_c, 0, 66, 63
1, 577780, Note_off_c, 0, 73, 58
1, 577782, Note_on_c, 0, 71, 51
1, 577800, Note_off_c, 0, 75, 63
1, 577806, Note_off_c, 0, 71, 52
1, 577842, Note_on_c, 0, 72, 75
1, 577886, Note_off_c, 0, 72, 61
1, 577892, Control_c, 0, 64, 82
1, 577907, Control_c, 0, 64, 61
1, 577922, Control_c, 0, 64, 44
1, 577925, Note_on_c, 0, 49, 79
1, 577937, Control_c, 0, 64, 45
1, 577952, Control_c, 0, 64, 57
1, 577961, Note_on_c, 0, 71, 70
1, 577962, Note_on_c, 0, 73, 73
1, 577966, Control_c, 0, 64, 74
1, 577974, Note_off_c, 0, 49, 53
1, 577981, Control_c, 0, 64, 92
1, 577996, Control_c, 0, 64, 127
1, 578000, Note_off_c, 0, 71, 63
1, 578020, Note_off_c, 0, 73, 60
1, 578074, Note_on_c, 0, 72, 62
1, 578076, Poly_aftertouch_c, 0, 59, 0
1, 578080, Note_on_c, 0, 70, 65
1, 578083, Note_on_c, 0, 63, 46
1, 578107, Note_off_c, 0, 63, 62
1, 578115, Note_off_c, 0, 72, 61
1, 578116, Note_off_c, 0, 70, 59
1, 578158, Note_on_c, 0, 68, 63
1, 578164, Note_on_c, 0, 71, 67
1, 578175, Note_on_c, 0, 73, 60
1, 578184, Note_off_c, 0, 68, 67
1, 578187, Note_off_c, 0, 71, 70
1, 578200, Note_off_c, 0, 73, 68
1, 578203, Control_c, 0, 64, 97
1, 578218, Control_c, 0, 64, 69
1, 578232, Control_c, 0, 64, 49
1, 578247, Control_c, 0, 64, 33
1, 578248, Note_on_c, 0, 51, 77
1, 578262, Control_c, 0, 64, 41
1, 578277, Control_c, 0, 64, 62
1, 578280, Note_on_c, 0, 74, 67
1, 578292, Control_c, 0, 64, 74
1, 578307, Note_on_c, 0, 76, 56
1, 578307, Control_c, 0, 64, 88
1, 578310, Note_off_c, 0, 51, 63
1, 578311, Note_on_c, 0, 72, 43
1, 578312, Note_off_c, 0, 74, 0
1, 578312, Note_on_c, 0, 74, 38
1, 578322, Control_c, 0, 64, 98
1, 578329, Note_off_c, 0, 76, 59
1, 578335, Note_on_c, 0, 58, 62
1, 578336, Control_c, 0, 64, 100
1, 578339, Note_off_c, 0, 72, 54
1, 578351, Note_off_c, 0, 74, 53
1, 578351, Control_c, 0, 64, 100
1, 578366, Control_c, 0, 64, 101
1, 578381, Control_c, 0, 64, 104
1, 578394, Note_on_c, 0, 73, 66
1, 578403, Control_c, 0, 64, 107
1, 578404, Note_on_c, 0, 75, 64
1, 578406, Note_off_c, 0, 58, 56
1, 578418, Control_c, 0, 64, 111
1, 578434, Control_c, 0, 64, 115
1, 578449, Note_off_c, 0, 75, 55
1, 578449, Control_c, 0, 64, 121
1, 578450, Note_off_c, 0, 73, 58
1, 578457, Note_on_c, 0, 67, 70
1, 578463, Control_c, 0, 64, 124
1, 578495, Note_off_c, 0, 67, 55
1, 578497, Note_on_c, 0, 76, 67
1, 578498, Note_on_c, 0, 74, 77
1, 578522, Control_c, 0, 64, 102
1, 578537, Control_c, 0, 64, 78
1, 578550, Note_off_c, 0, 76, 57
1, 578551, Note_off_c, 0, 74, 63
1, 578552, Control_c, 0, 64, 58
1, 578564, Note_on_c, 0, 53, 76
1, 578567, Control_c, 0, 64, 0
1, 578593, Note_on_c, 0, 73, 70
1, 578594, Note_on_c, 0, 75, 69
1, 578596, Control_c, 0, 64, 25
1, 578611, Control_c, 0, 64, 54
1, 578618, Note_on_c, 0, 59, 59
1, 578618, Note_off_c, 0, 53, 63
1, 578626, Control_c, 0, 64, 65
1, 578641, Control_c, 0, 64, 70
1, 578649, Note_off_c, 0, 73, 61
1, 578655, Control_c, 0, 64, 74
1, 578658, Note_off_c, 0, 75, 61
1, 578670, Note_off_c, 0, 59, 63
1, 578670, Control_c, 0, 64, 79
1, 578677, Note_on_c, 0, 63, 62
1, 578685, Control_c, 0, 64, 83
1, 578690, Note_on_c, 0, 74, 68
1, 578691, Note_on_c, 0, 72, 76
1, 578700, Control_c, 0, 64, 88
1, 578706, Note_off_c, 0, 63, 66
1, 578715, Control_c, 0, 64, 93
1, 578730, Control_c, 0, 64, 100
1, 578736, Note_on_c, 0, 68, 71
1, 578745, Control_c, 0, 64, 108
1, 578759, Note_off_c, 0, 72, 55
1, 578760, Control_c, 0, 64, 111
1, 578775, Control_c, 0, 64, 111
1, 578781, Note_on_c, 0, 73, 72
1, 578786, Note_on_c, 0, 75, 70
1, 578788, Note_off_c, 0, 68, 63
1, 578788, Note_off_c, 0, 74, 36
1, 578789, Control_c, 0, 64, 99
1, 578804, Control_c, 0, 64, 80
1, 578819, Control_c, 0, 64, 65
1, 578825, Note_off_c, 0, 73, 61
1, 578834, Control_c, 0, 64, 57
1, 578834, Note_on_c, 0, 56, 70
1, 578835, Note_off_c, 0, 75, 55
1, 578849, Control_c, 0, 64, 59
1, 578863, Control_c, 0, 64, 66
1, 578867, Note_on_c, 0, 61, 60
1, 578877, Note_off_c, 0, 56, 60
1, 578878, Control_c, 0, 64, 76
1, 578879, Note_on_c, 0, 76, 83
1, 578880, Note_on_c, 0, 74, 77
1, 578893, Control_c, 0, 64, 90
1, 578907, Control_c, 0, 64, 102
1, 578921, Note_off_c, 0, 61, 61
1, 578922, Control_c, 0, 64, 106
1, 578937, Control_c, 0, 64, 109
1, 578941, Note_off_c, 0, 74, 57
1, 578942, Note_on_c, 0, 65, 41
1, 578952, Control_c, 0, 64, 118
1, 578965, Note_off_c, 0, 76, 38
1, 578966, Note_on_c, 0, 71, 69
1, 578967, Control_c, 0, 64, 127
1, 578968, Note_on_c, 0, 75, 73
1, 578968, Note_off_c, 0, 65, 61
1, 578972, Note_on_c, 0, 77, 72
1, 578990, Note_off_c, 0, 71, 68
1, 579024, Note_off_c, 0, 77, 58
1, 579027, Note_off_c, 0, 75, 59
1, 579055, Note_on_c, 0, 78, 73
1, 579071, Note_on_c, 0, 76, 68
1, 579080, Note_off_c, 0, 78, 64
1, 579092, Note_off_c, 0, 76, 61
1, 579096, Note_on_c, 0, 77, 36
1, 579099, Control_c, 0, 64, 89
1, 579114, Control_c, 0, 64, 68
1, 579123, Note_off_c, 0, 77, 49
1, 579129, Control_c, 0, 64, 57
1, 579144, Control_c, 0, 64, 57
1, 579159, Note_on_c, 0, 47, 81
1, 579166, Control_c, 0, 64, 64
1, 579169, Note_on_c, 0, 45, 68
1, 579170, Note_off_c, 0, 45, 127
1, 579173, Note_on_c, 0, 77, 87
1, 579177, Note_off_c, 0, 47, 70
1, 579177, Note_on_c, 0, 79, 81
1, 579180, Control_c, 0, 64, 73
1, 579195, Control_c, 0, 64, 87
1, 579203, Note_off_c, 0, 79, 57
1, 579207, Note_off_c, 0, 77, 65
1, 579210, Control_c, 0, 64, 99
1, 579226, Control_c, 0, 64, 101
1, 579271, Note_on_c, 0, 76, 73
1, 579272, Note_on_c, 0, 78, 72
1, 579296, Note_off_c, 0, 76, 64
1, 579311, Note_off_c, 0, 78, 53
1, 579315, Control_c, 0, 64, 100
1, 579329, Control_c, 0, 64, 98
1, 579344, Control_c, 0, 64, 93
1, 579359, Control_c, 0, 64, 86
1, 579370, Note_on_c, 0, 79, 62
1, 579371, Note_on_c, 0, 77, 72
1, 579374, Control_c, 0, 64, 76
1, 579389, Control_c, 0, 64, 63
1, 579404, Control_c, 0, 64, 50
1, 579413, Note_on_c, 0, 65, 57
1, 579419, Control_c, 0, 64, 32
1, 579423, Note_off_c, 0, 77, 59
1, 579423, Note_off_c, 0, 79, 57
1, 579433, Control_c, 0, 64, 0
1, 579439, Note_on_c, 0, 67, 52
1, 579444, Note_off_c, 0, 65, 65
1, 579455, Note_on_c, 0, 74, 75
1, 579463, Note_on_c, 0, 78, 65
1, 579463, Note_on_c, 0, 80, 68
1, 579468, Note_off_c, 0, 67, 66
1, 579475, Note_off_c, 0, 74, 71
1, 579485, Note_off_c, 0, 80, 67
1, 579486, Note_off_c, 0, 78, 68
1, 579559, Note_on_c, 0, 81, 65
1, 579565, Note_on_c, 0, 79, 67
1, 579603, Note_off_c, 0, 79, 55
1, 579606, Note_off_c, 0, 81, 54
1, 579648, Note_on_c, 0, 82, 73
1, 579648, Note_on_c, 0, 80, 66
1, 579672, Note_off_c, 0, 80, 67
1, 579674, Note_off_c, 0, 82, 64
1, 579696, Note_on_c, 0, 63, 62
1, 579715, Control_c, 0, 64, 24
1, 579723, Note_off_c, 0, 63, 66
1, 579725, Note_on_c, 0, 83, 77
1, 579729, Note_on_c, 0, 81, 77
1, 579730, Control_c, 0, 64, 32
1, 579733, Note_on_c, 0, 69, 38
1, 579738, Note_on_c, 0, 71, 40
1, 579745, Control_c, 0, 64, 39
1, 579751, Note_off_c, 0, 71, 43
1, 579760, Control_c, 0, 64, 44
1, 579764, Note_off_c, 0, 69, 34
1, 579768, Note_off_c, 0, 83, 63
1, 579770, Note_off_c, 0, 81, 59
1, 579775, Control_c, 0, 64, 48
1, 579790, Control_c, 0, 64, 50
1, 579804, Control_c, 0, 64, 50
1, 579812, Note_on_c, 0, 87, 74
1, 579813, Note_on_c, 0, 85, 66
1, 579835, Control_c, 0, 64, 51
1, 579837, Note_off_c, 0, 87, 67
1, 579840, Note_off_c, 0, 85, 66
1, 579864, Control_c, 0, 64, 51
1, 579879, Control_c, 0, 64, 52
1, 579887, Note_on_c, 0, 83, 62
1, 579893, Note_on_c, 0, 81, 75
1, 579894, Control_c, 0, 64, 52
1, 579894, Control_c, 0, 67, 8
1, 579916, Control_c, 0, 67, 8
1, 579931, Control_c, 0, 64, 52
1, 579931, Control_c, 0, 67, 9
1, 579934, Note_off_c, 0, 83, 59
1, 579936, Note_off_c, 0, 81, 62
1, 579946, Control_c, 0, 64, 49
1, 579946, Control_c, 0, 67, 10
1, 579961, Control_c, 0, 64, 42
1, 579961, Control_c, 0, 67, 11
1, 579976, Note_on_c, 0, 69, 55
1, 579976, Control_c, 0, 64, 32
1, 579979, Note_on_c, 0, 78, 69
1, 579984, Note_on_c, 0, 71, 53
1, 579985, Note_on_c, 0, 82, 70
1, 579988, Note_on_c, 0, 80, 64
1, 579991, Control_c, 0, 64, 21
1, 579991, Control_c, 0, 67, 12
1, 579997, Note_off_c, 0, 78, 68
1, 580000, Note_off_c, 0, 69, 66
1, 580005, Note_off_c, 0, 71, 57
1, 580005, Control_c, 0, 64, 9
1, 580012, Note_off_c, 0, 82, 61
1, 580012, Note_off_c, 0, 80, 67
1, 580020, Control_c, 0, 64, 0
1, 580058, Note_on_c, 0, 81, 67
1, 580062, Note_on_c, 0, 79, 77
1, 580080, Control_c, 0, 67, 11
1, 580095, Control_c, 0, 67, 11
1, 580108, Note_off_c, 0, 81, 60
1, 580110, Control_c, 0, 67, 10
1, 580113, Note_off_c, 0, 79, 55
1, 580140, Note_on_c, 0, 78, 59
1, 580146, Note_on_c, 0, 80, 65
1, 580147, Note_on_c, 0, 59, 58
1, 580184, Control_c, 0, 67, 11
1, 580189, Note_off_c, 0, 78, 63
1, 580197, Note_off_c, 0, 80, 60
1, 580199, Note_on_c, 0, 65, 67
1, 580199, Control_c, 0, 67, 11
1, 580214, Control_c, 0, 67, 12
1, 580215, Note_off_c, 0, 59, 64
1, 580220, Note_on_c, 0, 67, 89
1, 580221, Note_off_c, 0, 65, 66
1, 580230, Note_on_c, 0, 77, 88
1, 580233, Note_on_c, 0, 79, 81
1, 580243, Control_c, 0, 64, 39
1, 580243, Control_c, 0, 67, 12
1, 580247, Note_off_c, 0, 67, 66
1, 580258, Control_c, 0, 64, 55
1, 580258, Control_c, 0, 67, 12
1, 580264, Note_off_c, 0, 79, 50
1, 580272, Control_c, 0, 64, 58
1, 580272, Control_c, 0, 67, 12
1, 580277, Note_off_c, 0, 77, 62
1, 580287, Control_c, 0, 64, 58
1, 580302, Control_c, 0, 67, 12
1, 580317, Note_on_c, 0, 76, 67
1, 580317, Control_c, 0, 64, 59
1, 580319, Note_on_c, 0, 78, 72
1, 580332, Control_c, 0, 67, 11
1, 580341, Note_off_c, 0, 76, 64
1, 580346, Control_c, 0, 67, 10
1, 580355, Note_off_c, 0, 78, 61
1, 580391, Control_c, 0, 67, 10
1, 580396, Note_on_c, 0, 79, 70
1, 580399, Note_on_c, 0, 77, 71
1, 580406, Control_c, 0, 64, 57
1, 580406, Control_c, 0, 67, 9
1, 580420, Control_c, 0, 64, 54
1, 580420, Control_c, 0, 67, 9
1, 580435, Control_c, 0, 64, 48
1, 580448, Note_on_c, 0, 65, 66
1, 580450, Control_c, 0, 64, 41
1, 580453, Note_off_c, 0, 77, 59
1, 580456, Note_off_c, 0, 79, 57
1, 580463, Note_on_c, 0, 67, 66
1, 580465, Control_c, 0, 64, 33
1, 580470, Note_on_c, 0, 74, 76
1, 580476, Note_off_c, 0, 65, 67
1, 580477, Note_on_c, 0, 80, 77
1, 580478, Note_on_c, 0, 78, 72
1, 580480, Control_c, 0, 64, 27
1, 580489, Note_off_c, 0, 67, 65
1, 580492, Note_off_c, 0, 74, 69
1, 580495, Control_c, 0, 64, 26
1, 580502, Note_off_c, 0, 78, 67
1, 580503, Note_on_c, 0, 72, 18
1, 580505, Note_off_c, 0, 80, 59
1, 580524, Control_c, 0, 67, 9
1, 580539, Control_c, 0, 64, 26
1, 580546, Note_off_c, 0, 72, 29
1, 580554, Control_c, 0, 64, 24
1, 580554, Note_on_c, 0, 81, 71
1, 580559, Note_on_c, 0, 79, 80
1, 580569, Control_c, 0, 64, 16
1, 580584, Control_c, 0, 64, 0
1, 580584, Control_c, 0, 67, 9
1, 580596, Note_off_c, 0, 79, 61
1, 580601, Note_off_c, 0, 81, 63
1, 580614, Control_c, 0, 67, 8
1, 580626, Note_on_c, 0, 80, 74
1, 580628, Control_c, 0, 67, 0
1, 580632, Note_on_c, 0, 82, 77
1, 580654, Note_off_c, 0, 80, 69
1, 580660, Note_off_c, 0, 82, 66
1, 580693, Note_on_c, 0, 63, 69
1, 580705, Note_on_c, 0, 81, 88
1, 580705, Note_on_c, 0, 83, 86
1, 580707, Note_on_c, 0, 71, 70
1, 580709, Control_c, 0, 64, 33
1, 580715, Note_on_c, 0, 69, 48
1, 580724, Control_c, 0, 64, 48
1, 580728, Note_off_c, 0, 63, 63
1, 580733, Note_off_c, 0, 71, 67
1, 580739, Note_off_c, 0, 69, 54
1, 580739, Control_c, 0, 64, 53
1, 580754, Control_c, 0, 64, 54
1, 580754, Note_off_c, 0, 81, 64
1, 580754, Note_off_c, 0, 83, 64
1, 580784, Control_c, 0, 64, 54
1, 580785, Note_on_c, 0, 87, 82
1, 580790, Note_on_c, 0, 85, 75
1, 580812, Note_off_c, 0, 85, 66
1, 580829, Control_c, 0, 64, 55
1, 580830, Note_off_c, 0, 87, 61
1, 580861, Note_on_c, 0, 83, 73
1, 580866, Note_on_c, 0, 81, 82
1, 580873, Control_c, 0, 67, 8
1, 580888, Control_c, 0, 67, 10
1, 580903, Note_off_c, 0, 83, 61
1, 580903, Note_off_c, 0, 81, 65
1, 580903, Control_c, 0, 67, 11
1, 580918, Control_c, 0, 64, 54
1, 580918, Control_c, 0, 67, 12
1, 580933, Note_on_c, 0, 78, 81
1, 580933, Control_c, 0, 64, 54
1, 580933, Control_c, 0, 67, 12
1, 580944, Note_on_c, 0, 71, 67
1, 580944, Note_on_c, 0, 82, 82
1, 580948, Note_on_c, 0, 80, 72
1, 580948, Control_c, 0, 64, 53
1, 580951, Note_off_c, 0, 78, 71
1, 580952, Note_on_c, 0, 69, 44
1, 580963, Control_c, 0, 64, 53
1, 580963, Control_c, 0, 67, 12
1, 580967, Note_off_c, 0, 71, 66
1, 580969, Note_off_c, 0, 80, 68
1, 580975, Note_off_c, 0, 69, 55
1, 580977, Control_c, 0, 64, 52
1, 580978, Note_off_c, 0, 82, 56
1, 580992, Control_c, 0, 64, 49
1, 580992, Control_c, 0, 67, 11
1, 581007, Control_c, 0, 64, 45
1, 581010, Note_on_c, 0, 81, 73
1, 581015, Note_on_c, 0, 79, 79
1, 581022, Control_c, 0, 64, 38
1, 581037, Control_c, 0, 64, 22
1, 581037, Control_c, 0, 67, 10
1, 581051, Control_c, 0, 64, 0
1, 581051, Control_c, 0, 67, 9
1, 581066, Control_c, 0, 67, 0
1, 581068, Note_off_c, 0, 81, 61
1, 581073, Note_off_c, 0, 79, 54
1, 581092, Note_on_c, 0, 78, 65
1, 581092, Note_on_c, 0, 80, 61
1, 581095, Control_c, 0, 64, 15
1, 581110, Control_c, 0, 64, 34
1, 581123, Note_off_c, 0, 78, 61
1, 581125, Control_c, 0, 64, 52
1, 581136, Note_off_c, 0, 80, 63
1, 581140, Control_c, 0, 64, 59
1, 581147, Note_on_c, 0, 47, 82
1, 581155, Control_c, 0, 64, 61
1, 581162, Note_on_c, 0, 79, 84
1, 581166, Note_on_c, 0, 77, 85
1, 581170, Control_c, 0, 64, 61
1, 581173, Note_off_c, 0, 47, 70
1, 581184, Control_c, 0, 64, 62
1, 581202, Note_off_c, 0, 79, 63
1, 581204, Note_off_c, 0, 77, 62
1, 581214, Control_c, 0, 64, 62
1, 581242, Note_on_c, 0, 76, 73
1, 581243, Control_c, 0, 64, 63
1, 581246, Note_on_c, 0, 78, 71
1, 581258, Control_c, 0, 64, 63
1, 581269, Note_off_c, 0, 76, 61
1, 581273, Control_c, 0, 64, 64
1, 581282, Note_off_c, 0, 78, 60
1, 581288, Control_c, 0, 64, 64
1, 581322, Note_on_c, 0, 79, 71
1, 581326, Note_on_c, 0, 77, 79
1, 581347, Control_c, 0, 64, 63
1, 581362, Control_c, 0, 64, 61
1, 581373, Note_off_c, 0, 77, 59
1, 581377, Control_c, 0, 64, 56
1, 581377, Note_on_c, 0, 67, 80
1, 581381, Note_off_c, 0, 79, 51
1, 581383, Note_on_c, 0, 65, 61
1, 581392, Control_c, 0, 64, 49
1, 581406, Note_on_c, 0, 60, 41
1, 581406, Note_off_c, 0, 67, 70
1, 581407, Note_on_c, 0, 78, 68
1, 581407, Note_on_c, 0, 80, 73
1, 581410, Note_on_c, 0, 59, 34
1, 581413, Note_off_c, 0, 65, 67
1, 581414, Control_c, 0, 64, 41
1, 581428, Control_c, 0, 64, 32
1, 581429, Note_off_c, 0, 78, 68
1, 581431, Note_off_c, 0, 60, 35
1, 581432, Note_off_c, 0, 80, 61
1, 581441, Note_off_c, 0, 59, 33
1, 581443, Control_c, 0, 64, 28
1, 581458, Control_c, 0, 64, 26
1, 581473, Control_c, 0, 64, 23
1, 581478, Note_on_c, 0, 81, 74
1, 581479, Note_on_c, 0, 79, 81
1, 581488, Control_c, 0, 64, 16
1, 581502, Control_c, 0, 64, 0
1, 581534, Note_off_c, 0, 81, 58
1, 581537, Note_off_c, 0, 79, 60
1, 581561, Note_on_c, 0, 80, 58
1, 581561, Note_on_c, 0, 82, 65
1, 581581, Note_off_c, 0, 80, 56
1, 581581, Note_off_c, 0, 82, 61
1, 581601, Note_on_c, 0, 45, 90
1, 581606, Control_c, 0, 64, 38
1, 581612, Note_on_c, 0, 79, 81
1, 581615, Note_on_c, 0, 81, 19
1, 581621, Control_c, 0, 64, 54
1, 581624, Note_off_c, 0, 45, 66
1, 581637, Control_c, 0, 64, 59
1, 581651, Control_c, 0, 64, 60
1, 581665, Note_off_c, 0, 81, 60
1, 581669, Note_off_c, 0, 79, 61
1, 581681, Control_c, 0, 64, 61
1, 581694, Note_on_c, 0, 78, 81
1, 581694, Note_on_c, 0, 80, 55
1, 581711, Control_c, 0, 64, 61
1, 581723, Note_off_c, 0, 78, 59
1, 581726, Control_c, 0, 64, 62
1, 581737, Note_off_c, 0, 80, 63
1, 581741, Control_c, 0, 64, 63
1, 581756, Control_c, 0, 64, 64
1, 581770, Control_c, 0, 64, 65
1, 581772, Note_on_c, 0, 81, 70
1, 581774, Note_on_c, 0, 79, 79
1, 581785, Control_c, 0, 64, 66
1, 581800, Control_c, 0, 64, 66
1, 581809, Note_off_c, 0, 79, 62
1, 581812, Note_on_c, 0, 71, 84
1, 581815, Control_c, 0, 64, 67
1, 581816, Note_on_c, 0, 63, 77
1, 581818, Note_on_c, 0, 69, 50
1, 581818, Note_off_c, 0, 81, 57
1, 581830, Control_c, 0, 64, 67
1, 581835, Note_off_c, 0, 71, 68
1, 581839, Note_on_c, 0, 82, 77
1, 581843, Note_off_c, 0, 69, 68
1, 581848, Note_on_c, 0, 80, 55
1, 581848, Note_off_c, 0, 63, 67
1, 581853, Note_off_c, 0, 82, 69
1, 581859, Control_c, 0, 64, 68
1, 581870, Note_off_c, 0, 80, 43
1, 581904, Note_on_c, 0, 83, 76
1, 581904, Control_c, 0, 64, 67
1, 581908, Note_on_c, 0, 81, 91
1, 581918, Control_c, 0, 64, 63
1, 581933, Control_c, 0, 64, 51
1, 581948, Control_c, 0, 64, 0
1, 581959, Note_off_c, 0, 81, 50
1, 581965, Note_on_c, 0, 84, 87
1, 581997, Note_off_c, 0, 83, 64
1, 582000, Note_off_c, 0, 84, 66
1, 582007, Control_c, 0, 64, 37
1, 582022, Control_c, 0, 64, 58
1, 582028, Note_on_c, 0, 46, 95
1, 582033, Note_on_c, 0, 81, 92
1, 582033, Note_on_c, 0, 83, 73
1, 582037, Control_c, 0, 64, 65
1, 582047, Note_off_c, 0, 46, 70
1, 582051, Control_c, 0, 64, 69
1, 582066, Control_c, 0, 64, 72
1, 582077, Note_off_c, 0, 83, 63
1, 582081, Control_c, 0, 64, 75
1, 582082, Note_off_c, 0, 81, 59
1, 582096, Control_c, 0, 64, 79
1, 582104, Note_on_c, 0, 80, 83
1, 582106, Note_on_c, 0, 82, 87
1, 582111, Control_c, 0, 64, 83
1, 582122, Note_off_c, 0, 80, 71
1, 582125, Control_c, 0, 64, 86
1, 582130, Note_off_c, 0, 82, 60
1, 582148, Control_c, 0, 64, 90
1, 582163, Control_c, 0, 64, 91
1, 582173, Note_on_c, 0, 83, 94
1, 582178, Control_c, 0, 64, 92
1, 582193, Control_c, 0, 64, 94
1, 582198, Note_on_c, 0, 84, 59
1, 582207, Control_c, 0, 64, 95
1, 582215, Note_off_c, 0, 84, 67
1, 582217, Note_off_c, 0, 83, 67
1, 582222, Control_c, 0, 64, 95
1, 582227, Note_on_c, 0, 72, 84
1, 582237, Control_c, 0, 64, 97
1, 582238, Note_on_c, 0, 62, 69
1, 582243, Note_on_c, 0, 68, 72
1, 582247, Note_off_c, 0, 72, 70
1, 582251, Control_c, 0, 64, 103
1, 582252, Note_on_c, 0, 88, 93
1, 582253, Note_on_c, 0, 86, 81
1, 582264, Note_off_c, 0, 68, 70
1, 582266, Control_c, 0, 64, 127
1, 582267, Note_off_c, 0, 86, 70
1, 582270, Note_off_c, 0, 88, 68
1, 582273, Note_off_c, 0, 62, 64
1, 582293, Note_on_c, 0, 89, 38
1, 582311, Note_on_c, 0, 88, 94
1, 582314, Note_on_c, 0, 86, 89
1, 582323, Note_off_c, 0, 89, 33
1, 582355, Control_c, 0, 64, 114
1, 582367, Note_off_c, 0, 88, 58
1, 582368, Note_off_c, 0, 86, 59
1, 582370, Control_c, 0, 64, 73
1, 582385, Control_c, 0, 64, 58
1, 582393, Note_on_c, 0, 90, 95
1, 582399, Control_c, 0, 64, 59
1, 582403, Note_on_c, 0, 87, 69
1, 582414, Control_c, 0, 64, 68
1, 582418, Note_off_c, 0, 87, 69
1, 582430, Control_c, 0, 64, 85
1, 582438, Note_off_c, 0, 90, 64
1, 582440, Note_on_c, 0, 46, 100
1, 582445, Control_c, 0, 64, 127
1, 582452, Note_on_c, 0, 88, 89
1, 582456, Note_on_c, 0, 86, 96
1, 582456, Note_off_c, 0, 46, 73
1, 582507, Note_off_c, 0, 88, 44
1, 582517, Note_on_c, 0, 87, 85
1, 582523, Note_off_c, 0, 86, 38
1, 582525, Note_on_c, 0, 85, 90
1, 582538, Note_on_c, 0, 88, 53
1, 582541, Note_off_c, 0, 85, 74
1, 582548, Note_off_c, 0, 87, 63
1, 582551, Note_on_c, 0, 90, 50
1, 582560, Note_off_c, 0, 88, 68
1, 582572, Note_off_c, 0, 90, 38
1, 582589, Note_on_c, 0, 88, 92
1, 582595, Note_on_c, 0, 86, 94
1, 582640, Note_off_c, 0, 86, 53
1, 582646, Note_off_c, 0, 88, 47
1, 582647, Note_on_c, 0, 74, 81
1, 582648, Note_on_c, 0, 76, 77
1, 582656, Note_on_c, 0, 87, 95
1, 582659, Note_on_c, 0, 89, 96
1, 582665, Note_off_c, 0, 76, 68
1, 582668, Note_on_c, 0, 67, 70
1, 582668, Note_off_c, 0, 74, 71
1, 582669, Note_on_c, 0, 72, 60
1, 582686, Note_off_c, 0, 67, 66
1, 582689, Note_off_c, 0, 72, 60
1, 582697, Note_off_c, 0, 89, 66
1, 582718, Note_off_c, 0, 87, 60
1, 582721, Note_on_c, 0, 88, 87
1, 582725, Note_on_c, 0, 86, 102
1, 582783, Note_off_c, 0, 88, 60
1, 582784, Note_on_c, 0, 95, 94
1, 582786, Note_off_c, 0, 86, 53
1, 582790, Note_on_c, 0, 92, 89
1, 582815, Control_c, 0, 64, 70
1, 582830, Control_c, 0, 64, 25
1, 582845, Control_c, 0, 64, 0
1, 582847, Note_on_c, 0, 44, 100
1, 582856, Note_on_c, 0, 90, 105
1, 582860, Control_c, 0, 64, 32
1, 582863, Note_on_c, 0, 87, 95
1, 582868, Note_off_c, 0, 95, 67
1, 582874, Control_c, 0, 64, 62
1, 582889, Control_c, 0, 64, 75
1, 582903, Note_off_c, 0, 92, 62
1, 582912, Control_c, 0, 64, 93
1, 582919, Note_off_c, 0, 87, 65
1, 582922, Note_off_c, 0, 90, 64
1, 582927, Control_c, 0, 64, 127
1, 582944, Note_on_c, 0, 82, 91
1, 582950, Note_off_c, 0, 44, 62
1, 582959, Note_on_c, 0, 50, 60
1, 582961, Note_off_c, 0, 82, 69
1, 582989, Note_on_c, 0, 51, 29
1, 583000, Note_off_c, 0, 50, 63
1, 583028, Note_off_c, 0, 51, 31
1, 583049, Note_on_c, 0, 53, 53
1, 583058, Note_on_c, 0, 78, 72
1, 583067, Note_on_c, 0, 75, 62
1, 583073, Note_off_c, 0, 53, 54
1, 583084, Note_off_c, 0, 78, 63
1, 583094, Note_off_c, 0, 75, 66
1, 583103, Note_on_c, 0, 58, 69
1, 583129, Note_on_c, 0, 70, 78
1, 583141, Note_off_c, 0, 58, 60
1, 583163, Note_off_c, 0, 70, 56
1, 583200, Note_on_c, 0, 61, 71
1, 583204, Note_on_c, 0, 80, 80
1, 583211, Note_on_c, 0, 78, 63
1, 583235, Note_off_c, 0, 80, 58
1, 583237, Note_off_c, 0, 78, 68
1, 583246, Note_off_c, 0, 61, 60
1, 583265, Note_on_c, 0, 63, 72
1, 583277, Note_on_c, 0, 73, 80
1, 583314, Note_off_c, 0, 63, 64
1, 583323, Note_off_c, 0, 73, 61
1, 583335, Note_on_c, 0, 66, 75
1, 583350, Note_on_c, 0, 82, 89
1, 583356, Note_on_c, 0, 80, 74
1, 583371, Note_off_c, 0, 82, 65
1, 583377, Note_off_c, 0, 80, 68
1, 583395, Note_off_c, 0, 66, 59
1, 583408, Note_on_c, 0, 63, 75
1, 583419, Note_on_c, 0, 75, 84
1, 583440, Note_off_c, 0, 63, 60
1, 583464, Note_off_c, 0, 75, 64
1, 583469, Note_on_c, 0, 61, 75
1, 583492, Note_off_c, 0, 61, 66
1, 583496, Note_on_c, 0, 85, 86
1, 583503, Note_on_c, 0, 82, 64
1, 583526, Note_off_c, 0, 82, 66
1, 583526, Note_off_c, 0, 85, 59
1, 583545, Note_on_c, 0, 58, 72
1, 583554, Note_on_c, 0, 78, 91
1, 583589, Note_off_c, 0, 58, 62
1, 583607, Note_off_c, 0, 78, 64
1, 583616, Note_on_c, 0, 54, 85
1, 583633, Note_on_c, 0, 87, 92
1, 583636, Note_on_c, 0, 85, 73
1, 583638, Control_c, 0, 64, 102
1, 583660, Control_c, 0, 64, 68
1, 583667, Note_off_c, 0, 85, 70
1, 583675, Note_off_c, 0, 54, 63
1, 583675, Control_c, 0, 64, 58
1, 583677, Note_off_c, 0, 87, 62
1, 583681, Note_on_c, 0, 51, 68
1, 583690, Control_c, 0, 64, 66
1, 583696, Note_on_c, 0, 80, 94
1, 583705, Control_c, 0, 64, 83
1, 583718, Note_off_c, 0, 51, 61
1, 583720, Control_c, 0, 64, 127
1, 583731, Note_on_c, 0, 44, 88
1, 583747, Note_off_c, 0, 80, 66
1, 583771, Note_on_c, 0, 90, 95
1, 583778, Note_on_c, 0, 87, 79
1, 583794, Note_on_c, 0, 51, 83
1, 583800, Note_off_c, 0, 87, 71
1, 583806, Note_off_c, 0, 44, 63
1, 583812, Note_off_c, 0, 90, 65
1, 583833, Note_on_c, 0, 82, 92
1, 583867, Note_on_c, 0, 54, 84
1, 583872, Note_off_c, 0, 51, 63
1, 583878, Note_off_c, 0, 82, 62
1, 583902, Note_on_c, 0, 92, 82
1, 583905, Note_off_c, 0, 54, 63
1, 583910, Note_on_c, 0, 90, 76
1, 583923, Note_on_c, 0, 58, 83
1, 583929, Note_off_c, 0, 90, 70
1, 583942, Note_off_c, 0, 92, 65
1, 583947, Note_off_c, 0, 58, 66
1, 583961, Note_on_c, 0, 85, 92
1, 584005, Note_on_c, 0, 61, 88
1, 584010, Note_off_c, 0, 85, 65
1, 584031, Note_on_c, 0, 94, 102
1, 584044, Note_on_c, 0, 92, 72
1, 584062, Note_off_c, 0, 61, 49
1, 584066, Note_off_c, 0, 92, 68
1, 584070, Note_off_c, 0, 94, 64
1, 584072, Note_on_c, 0, 63, 82
1, 584095, Note_on_c, 0, 87, 98
1, 584107, Note_on_c, 0, 64, 59
1, 584119, Note_off_c, 0, 63, 62
1, 584128, Note_off_c, 0, 64, 61
1, 584138, Note_off_c, 0, 87, 68
1, 584139, Note_on_c, 0, 70, 91
1, 584158, Note_on_c, 0, 97, 108
1, 584176, Note_off_c, 0, 70, 65
1, 584184, Note_on_c, 0, 94, 56
1, 584201, Note_off_c, 0, 97, 65
1, 584205, Note_off_c, 0, 94, 61
1, 584220, Note_on_c, 0, 90, 96
1, 584226, Note_on_c, 0, 75, 84
1, 584266, Note_off_c, 0, 90, 65
1, 584268, Note_off_c, 0, 75, 64
1, 584280, Note_on_c, 0, 78, 81
1, 584289, Note_on_c, 0, 99, 108
1, 584299, Note_off_c, 0, 78, 71
1, 584316, Note_on_c, 0, 80, 79
1, 584332, Note_on_c, 0, 97, 30
1, 584333, Note_off_c, 0, 97, 127
1, 584334, Note_off_c, 0, 99, 63
1, 584335, Note_off_c, 0, 80, 71
1, 584351, Note_on_c, 0, 92, 97
1, 584400, Note_off_c, 0, 92, 66
1, 584422, Note_on_c, 0, 102, 112
1, 584447, Note_on_c, 0, 87, 36
1, 584470, Note_off_c, 0, 102, 63
1, 584474, Note_off_c, 0, 87, 55
1, 584477, Note_on_c, 0, 103, 15
1, 584478, Note_off_c, 0, 103, 127
1, 584480, Note_on_c, 0, 94, 101
1, 584525, Note_on_c, 0, 80, 74
1, 584525, Note_off_c, 0, 94, 66
1, 584531, Note_on_c, 0, 90, 97
1, 584537, Note_on_c, 0, 84, 74
1, 584542, Note_on_c, 0, 104, 118
1, 584543, Control_c, 0, 64, 108
1, 584558, Control_c, 0, 64, 75
1, 584572, Control_c, 0, 64, 58
1, 584573, Note_off_c, 0, 80, 62
1, 584575, Note_off_c, 0, 90, 65
1, 584587, Control_c, 0, 64, 47
1, 584596, Note_off_c, 0, 104, 65
1, 584602, Control_c, 0, 64, 44
1, 584604, Note_on_c, 0, 95, 86
1, 584632, Note_off_c, 0, 84, 60
1, 584632, Control_c, 0, 64, 44
1, 584637, Note_off_c, 0, 95, 61
1, 584674, Note_on_c, 0, 99, 84
1, 584676, Note_on_c, 0, 97, 79
1, 584677, Control_c, 0, 64, 43
1, 584683, Note_on_c, 0, 85, 61
1, 584684, Note_on_c, 0, 81, 67
1, 584692, Control_c, 0, 64, 43
1, 584695, Note_off_c, 0, 97, 69
1, 584695, Note_off_c, 0, 99, 67
1, 584700, Note_off_c, 0, 81, 67
1, 584701, Note_off_c, 0, 85, 66
1, 584733, Note_on_c, 0, 91, 79
1, 584736, Control_c, 0, 64, 40
1, 584751, Control_c, 0, 64, 38
1, 584757, Note_off_c, 0, 91, 65
1, 584766, Control_c, 0, 64, 37
1, 584797, Note_on_c, 0, 94, 84
1, 584799, Note_on_c, 0, 92, 77
1, 584802, Note_on_c, 0, 80, 57
1, 584810, Control_c, 0, 64, 36
1, 584816, Note_on_c, 0, 76, 63
1, 584826, Note_off_c, 0, 92, 62
1, 584826, Control_c, 0, 64, 32
1, 584836, Note_off_c, 0, 94, 60
1, 584841, Note_off_c, 0, 80, 63
1, 584841, Control_c, 0, 64, 21
1, 584856, Control_c, 0, 64, 0
1, 584863, Note_on_c, 0, 88, 75
1, 584872, Note_off_c, 0, 76, 61
1, 584898, Note_off_c, 0, 88, 62
1, 584900, Control_c, 0, 64, 13
1, 584915, Control_c, 0, 64, 23
1, 584920, Note_on_c, 0, 92, 86
1, 584928, Note_on_c, 0, 90, 73
1, 584930, Note_on_c, 0, 78, 85
1, 584932, Note_on_c, 0, 68, 71
1, 584937, Note_on_c, 0, 72, 66
1, 584949, Note_off_c, 0, 90, 69
1, 584954, Note_off_c, 0, 92, 58
1, 584959, Control_c, 0, 64, 23
1, 584969, Note_off_c, 0, 68, 57
1, 584984, Note_off_c, 0, 78, 63
1, 584984, Note_off_c, 0, 72, 53
1, 584989, Control_c, 0, 64, 23
1, 585003, Note_on_c, 0, 86, 52
1, 585006, Note_on_c, 0, 84, 61
1, 585023, Note_off_c, 0, 84, 66
1, 585026, Note_off_c, 0, 86, 39
1, 585048, Control_c, 0, 64, 23
1, 585058, Note_on_c, 0, 69, 70
1, 585058, Note_on_c, 0, 73, 59
1, 585058, Note_on_c, 0, 85, 81
1, 585063, Control_c, 0, 64, 24
1, 585069, Note_on_c, 0, 87, 47
1, 585070, Note_off_c, 0, 87, 127
1, 585077, Control_c, 0, 64, 23
1, 585078, Note_off_c, 0, 73, 62
1, 585080, Note_off_c, 0, 85, 66
1, 585082, Note_off_c, 0, 69, 69
1, 585088, Note_on_c, 0, 68, 50
1, 585092, Control_c, 0, 64, 23
1, 585107, Control_c, 0, 64, 22
1, 585114, Note_off_c, 0, 68, 37
1, 585117, Note_on_c, 0, 81, 68
1, 585122, Control_c, 0, 64, 20
1, 585123, Note_on_c, 0, 79, 74
1, 585134, Note_off_c, 0, 81, 67
1, 585137, Control_c, 0, 64, 19
1, 585151, Note_off_c, 0, 79, 69
1, 585159, Control_c, 0, 64, 18
1, 585174, Control_c, 0, 64, 17
1, 585181, Note_on_c, 0, 68, 81
1, 585186, Note_on_c, 0, 82, 87
1, 585189, Control_c, 0, 64, 18
1, 585190, Note_on_c, 0, 80, 79
1, 585199, Note_on_c, 0, 64, 69
1, 585203, Control_c, 0, 64, 16
1, 585210, Note_off_c, 0, 80, 67
1, 585213, Note_on_c, 0, 63, 28
1, 585217, Note_off_c, 0, 82, 60
1, 585218, Control_c, 0, 64, 0
1, 585225, Note_off_c, 0, 68, 63
1, 585237, Note_off_c, 0, 63, 49
1, 585249, Note_on_c, 0, 76, 78
1, 585252, Note_on_c, 0, 77, 68
1, 585258, Note_off_c, 0, 64, 64
1, 585273, Note_off_c, 0, 77, 69
1, 585276, Note_off_c, 0, 76, 61
1, 585306, Note_on_c, 0, 80, 80
1, 585312, Note_on_c, 0, 66, 95
1, 585312, Note_on_c, 0, 78, 83
1, 585315, Note_on_c, 0, 56, 83
1, 585319, Note_on_c, 0, 60, 75
1, 585333, Note_off_c, 0, 78, 66
1, 585348, Note_off_c, 0, 80, 62
1, 585364, Note_off_c, 0, 56, 58
1, 585371, Note_off_c, 0, 66, 63
1, 585378, Note_on_c, 0, 72, 71
1, 585378, Note_on_c, 0, 74, 59
1, 585386, Note_off_c, 0, 60, 58
1, 585393, Note_off_c, 0, 72, 68
1, 585397, Note_off_c, 0, 74, 63
1, 585433, Note_on_c, 0, 75, 89
1, 585436, Note_on_c, 0, 73, 85
1, 585437, Note_on_c, 0, 61, 81
1, 585440, Control_c, 0, 64, 9
1, 585442, Note_on_c, 0, 57, 80
1, 585455, Control_c, 0, 64, 10
1, 585461, Note_off_c, 0, 73, 62
1, 585467, Note_off_c, 0, 61, 68
1, 585471, Note_off_c, 0, 75, 62
1, 585479, Note_off_c, 0, 57, 65
1, 585485, Control_c, 0, 64, 9
1, 585493, Note_on_c, 0, 69, 82
1, 585500, Control_c, 0, 64, 0
1, 585522, Note_off_c, 0, 69, 65
1, 585554, Note_on_c, 0, 56, 76
1, 585557, Note_on_c, 0, 70, 94
1, 585563, Note_on_c, 0, 68, 83
1, 585571, Note_on_c, 0, 73, 57
1, 585572, Note_off_c, 0, 73, 127
1, 585572, Note_on_c, 0, 52, 79
1, 585586, Note_off_c, 0, 68, 63
1, 585597, Note_on_c, 0, 51, 20
1, 585602, Note_off_c, 0, 70, 63
1, 585610, Note_off_c, 0, 56, 65
1, 585631, Note_on_c, 0, 64, 82
1, 585634, Note_on_c, 0, 65, 77
1, 585637, Note_off_c, 0, 51, 30
1, 585638, Note_off_c, 0, 52, 64
1, 585654, Note_off_c, 0, 65, 68
1, 585655, Note_off_c, 0, 64, 68
1, 585684, Note_on_c, 0, 68, 85
1, 585688, Note_on_c, 0, 54, 102
1, 585690, Note_on_c, 0, 66, 87
1, 585691, Note_on_c, 0, 44, 88
1, 585693, Control_c, 0, 64, 28
1, 585695, Note_on_c, 0, 48, 82
1, 585705, Note_on_c, 0, 67, 77
1, 585708, Control_c, 0, 64, 49
1, 585722, Note_off_c, 0, 68, 44
1, 585723, Control_c, 0, 64, 54
1, 585732, Note_off_c, 0, 67, 65
1, 585738, Control_c, 0, 64, 53
1, 585738, Note_on_c, 0, 62, 84
1, 585740, Note_off_c, 0, 66, 62
1, 585748, Note_on_c, 0, 60, 81
1, 585748, Note_off_c, 0, 44, 60
1, 585753, Note_off_c, 0, 54, 64
1, 585768, Note_off_c, 0, 60, 66
1, 585772, Note_off_c, 0, 62, 67
1, 585774, Note_off_c, 0, 48, 61
1, 585812, Note_on_c, 0, 49, 90
1, 585815, Note_on_c, 0, 61, 90
1, 585816, Note_on_c, 0, 63, 90
1, 585819, Note_on_c, 0, 45, 90
1, 585826, Control_c, 0, 64, 54
1, 585832, Note_off_c, 0, 63, 66
1, 585833, Note_on_c, 0, 62, 76
1, 585857, Note_off_c, 0, 49, 64
1, 585863, Note_off_c, 0, 62, 63
1, 585865, Note_off_c, 0, 61, 55
1, 585866, Note_off_c, 0, 45, 63
1, 585869, Note_on_c, 0, 57, 87
1, 585871, Control_c, 0, 64, 53
1, 585881, Note_on_c, 0, 60, 2
1, 585882, Note_off_c, 0, 60, 127
1, 585885, Note_on_c, 0, 44, 22
1, 585886, Note_off_c, 0, 44, 127
1, 585886, Control_c, 0, 64, 50
1, 585908, Control_c, 0, 64, 44
1, 585910, Note_off_c, 0, 57, 67
1, 585923, Control_c, 0, 64, 43
1, 585938, Control_c, 0, 64, 44
1, 585941, Note_on_c, 0, 44, 78
1, 585952, Note_on_c, 0, 40, 86
1, 585958, Note_on_c, 0, 57, 90
1, 585959, Note_on_c, 0, 56, 74
1, 585968, Control_c, 0, 64, 41
1, 585971, Note_on_c, 0, 55, 60
1, 585979, Note_off_c, 0, 56, 57
1, 585982, Control_c, 0, 64, 36
1, 585994, Note_on_c, 0, 58, 22
1, 585995, Note_off_c, 0, 58, 127
1, 585995, Note_on_c, 0, 59, 14
1, 585998, Control_c, 0, 64, 30
1, 585999, Note_off_c, 0, 44, 64
1, 586004, Note_off_c, 0, 55, 48
1, 586013, Control_c, 0, 64, 18
1, 586015, Note_on_c, 0, 52, 80
1, 586018, Note_off_c, 0, 57, 63
1, 586021, Note_on_c, 0, 53, 77
1, 586025, Note_off_c, 0, 40, 42
1, 586027, Control_c, 0, 64, 12
1, 586040, Note_off_c, 0, 59, 33
1, 586042, Control_c, 0, 64, 27
1, 586046, Note_off_c, 0, 53, 67
1, 586051, Note_off_c, 0, 52, 64
1, 586057, Control_c, 0, 64, 48
1, 586072, Control_c, 0, 64, 63
1, 586074, Note_on_c, 0, 42, 108
1, 586081, Note_on_c, 0, 32, 88
1, 586087, Control_c, 0, 64, 71
1, 586090, Note_on_c, 0, 54, 77
1, 586091, Note_on_c, 0, 53, 90
1, 586096, Note_on_c, 0, 36, 69
1, 586096, Note_on_c, 0, 55, 83
1, 586097, Note_on_c, 0, 35, 66
1, 586101, Control_c, 0, 64, 83
1, 586114, Note_on_c, 0, 52, 46
1, 586116, Control_c, 0, 64, 108
1, 586117, Note_on_c, 0, 31, 48
1, 586131, Control_c, 0, 64, 127
1, 586139, Note_on_c, 0, 50, 94
1, 586140, Note_off_c, 0, 42, 62
1, 586140, Note_off_c, 0, 53, 54
1, 586141, Note_off_c, 0, 32, 61
1, 586142, Note_off_c, 0, 31, 52
1, 586144, Note_off_c, 0, 55, 62
1, 586149, Note_off_c, 0, 52, 32
1, 586159, Note_off_c, 0, 36, 59
1, 586160, Note_off_c, 0, 35, 60
1, 586160, Note_off_c, 0, 54, 63
1, 586191, Note_off_c, 0, 50, 64
1, 586201, Note_on_c, 0, 37, 92
1, 586209, Note_on_c, 0, 33, 86
1, 586220, Note_on_c, 0, 49, 97
1, 586230, Note_on_c, 0, 51, 80
1, 586231, Note_on_c, 0, 47, 85
1, 586252, Note_off_c, 0, 51, 68
1, 586254, Note_off_c, 0, 37, 64
1, 586266, Note_off_c, 0, 33, 63
1, 586270, Note_off_c, 0, 49, 67
1, 586279, Note_on_c, 0, 45, 91
1, 586285, Note_off_c, 0, 47, 40
1, 586294, Poly_aftertouch_c, 0, 34, 0
1, 586303, Note_on_c, 0, 43, 52
1, 586304, Note_off_c, 0, 43, 127
1, 586312, Note_off_c, 0, 45, 66
1, 586359, Poly_aftertouch_c, 0, 39, 0
1, 586365, Note_on_c, 0, 39, 91
1, 586366, Note_off_c, 0, 39, 127
1, 586372, Note_on_c, 0, 37, 88
1, 586373, Note_on_c, 0, 38, 98
1, 586379, Note_on_c, 0, 40, 74
1, 586412, Note_off_c, 0, 40, 51
1, 586428, Note_on_c, 0, 35, 90
1, 586432, Note_on_c, 0, 33, 84
1, 586434, Note_on_c, 0, 36, 56
1, 586437, Note_on_c, 0, 34, 72
1, 586449, Poly_aftertouch_c, 0, 40, 0
1, 586452, Note_off_c, 0, 38, 63
1, 586457, Note_off_c, 0, 37, 57
1, 586462, Note_off_c, 0, 34, 56
1, 586463, Note_off_c, 0, 33, 64
1, 586484, Note_off_c, 0, 35, 64
1, 586484, Note_off_c, 0, 36, 61
1, 586531, Note_on_c, 0, 29, 110
1, 586535, Note_on_c, 0, 31, 103
1, 586562, Control_c, 0, 64, 102
1, 586567, Note_off_c, 0, 29, 64
1, 586577, Control_c, 0, 64, 65
1, 586583, Note_off_c, 0, 31, 66
1, 586592, Control_c, 0, 64, 19
1, 586593, Note_on_c, 0, 49, 94
1, 586599, Note_on_c, 0, 55, 70
1, 586606, Control_c, 0, 64, 0
1, 586609, Note_on_c, 0, 58, 66
1, 586613, Note_on_c, 0, 47, 61
1, 586616, Note_off_c, 0, 49, 67
1, 586621, Note_on_c, 0, 48, 45
1, 586622, Note_off_c, 0, 48, 127
1, 586622, Control_c, 0, 64, 17
1, 586627, Note_off_c, 0, 55, 65
1, 586630, Note_off_c, 0, 58, 40
1, 586643, Control_c, 0, 64, 50
1, 586645, Note_off_c, 0, 47, 40
1, 586655, Note_on_c, 0, 54, 61
1, 586657, Note_on_c, 0, 49, 114
1, 586657, Note_on_c, 0, 57, 96
1, 586658, Control_c, 0, 64, 64
1, 586669, Note_on_c, 0, 46, 77
1, 586673, Control_c, 0, 64, 69
1, 586688, Control_c, 0, 64, 72
1, 586700, Note_off_c, 0, 46, 50
1, 586703, Control_c, 0, 64, 74
1, 586705, Note_off_c, 0, 49, 62
1, 586708, Note_on_c, 0, 56, 2
1, 586710, Note_on_c, 0, 47, 26
1, 586716, Note_off_c, 0, 54, 64
1, 586718, Control_c, 0, 64, 76
1, 586732, Control_c, 0, 64, 78
1, 586742, Note_on_c, 0, 49, 69
1, 586742, Note_off_c, 0, 47, 32
1, 586747, Control_c, 0, 64, 80
1, 586755, Note_off_c, 0, 56, 33
1, 586756, Note_on_c, 0, 50, 74
1, 586762, Control_c, 0, 64, 83
1, 586776, Control_c, 0, 64, 85
1, 586788, Note_off_c, 0, 50, 62
1, 586791, Control_c, 0, 64, 87
1, 586797, Note_off_c, 0, 49, 58
1, 586806, Control_c, 0, 64, 89
1, 586821, Control_c, 0, 64, 91
1, 586825, Note_off_c, 0, 57, 55
1, 586836, Control_c, 0, 64, 93
1, 586839, Note_on_c, 0, 47, 46
1, 586842, Note_on_c, 0, 46, 35
1, 586851, Control_c, 0, 64, 96
1, 586863, Note_off_c, 0, 47, 37
1, 586866, Control_c, 0, 64, 100
1, 586881, Control_c, 0, 64, 108
1, 586885, Note_off_c, 0, 46, 30
1, 586896, Control_c, 0, 64, 127
1, 586919, Note_on_c, 0, 42, 88
1, 586970, Note_off_c, 0, 42, 63
1, 586999, Note_on_c, 0, 29, 100
1, 586999, Control_c, 0, 64, 108
1, 587014, Control_c, 0, 64, 66
1, 587029, Control_c, 0, 64, 0
1, 587057, Note_off_c, 0, 29, 64
1, 587089, Note_on_c, 0, 42, 78
1, 587124, Note_off_c, 0, 42, 63
1, 587182, Note_on_c, 0, 30, 66
1, 587209, Note_off_c, 0, 30, 59
1, 587241, Note_on_c, 0, 42, 63
1, 587278, Note_off_c, 0, 42, 62
1, 587303, Note_on_c, 0, 30, 64
1, 587342, Note_off_c, 0, 30, 64
1, 587382, Note_on_c, 0, 42, 69
1, 587426, Note_off_c, 0, 42, 65
1, 587459, Note_on_c, 0, 29, 81
1, 587480, Control_c, 0, 67, 19
1, 587493, Note_off_c, 0, 29, 66
1, 587495, Control_c, 0, 67, 31
1, 587510, Control_c, 0, 67, 43
1, 587512, Note_on_c, 0, 31, 22
1, 587513, Note_off_c, 0, 31, 127
1, 587525, Control_c, 0, 67, 56
1, 587527, Note_on_c, 0, 42, 71
1, 587539, Control_c, 0, 67, 71
1, 587554, Control_c, 0, 67, 82
1, 587560, Note_off_c, 0, 42, 62
1, 587569, Control_c, 0, 67, 91
1, 587584, Control_c, 0, 67, 101
1, 587598, Control_c, 0, 67, 109
1, 587608, Note_on_c, 0, 30, 69
1, 587613, Control_c, 0, 67, 115
1, 587628, Control_c, 0, 67, 121
1, 587638, Note_off_c, 0, 30, 65
1, 587643, Control_c, 0, 67, 127
1, 587673, Note_on_c, 0, 42, 57
1, 587710, Note_off_c, 0, 42, 62
1, 587743, Note_on_c, 0, 30, 55
1, 587777, Note_off_c, 0, 30, 63
1, 587811, Note_on_c, 0, 42, 61
1, 587850, Note_off_c, 0, 42, 61
1, 587888, Note_on_c, 0, 29, 75
1, 587922, Note_off_c, 0, 29, 65
1, 587957, Note_on_c, 0, 42, 61
1, 587998, Note_off_c, 0, 42, 61
1, 588049, Note_on_c, 0, 30, 56
1, 588083, Note_off_c, 0, 30, 62
1, 588111, Note_on_c, 0, 42, 53
1, 588157, Note_off_c, 0, 42, 63
1, 588189, Note_on_c, 0, 30, 51
1, 588224, Note_off_c, 0, 30, 64
1, 588261, Note_on_c, 0, 42, 56
1, 588295, Note_off_c, 0, 42, 63
1, 588326, Note_on_c, 0, 29, 65
1, 588353, Note_off_c, 0, 29, 64
1, 588394, Note_on_c, 0, 42, 55
1, 588426, Note_off_c, 0, 42, 62
1, 588471, Note_on_c, 0, 30, 59
1, 588505, Note_off_c, 0, 30, 63
1, 588535, Note_on_c, 0, 42, 52
1, 588571, Note_off_c, 0, 42, 63
1, 588610, Note_on_c, 0, 30, 52
1, 588647, Note_off_c, 0, 30, 63
1, 588680, Note_on_c, 0, 42, 57
1, 588716, Note_off_c, 0, 42, 64
1, 588760, Note_on_c, 0, 29, 64
1, 588795, Note_off_c, 0, 29, 62
1, 588827, Note_on_c, 0, 42, 62
1, 588853, Note_on_c, 0, 46, 65
1, 588853, Note_on_c, 0, 55, 64
1, 588863, Note_off_c, 0, 42, 61
1, 588873, Note_off_c, 0, 46, 40
1, 588874, Note_off_c, 0, 55, 61
1, 588914, Note_on_c, 0, 30, 75
1, 588914, Note_on_c, 0, 54, 27
1, 588916, Note_on_c, 0, 57, 74
1, 588922, Note_on_c, 0, 49, 71
1, 588940, Note_off_c, 0, 57, 66
1, 588941, Note_off_c, 0, 49, 64
1, 588946, Note_off_c, 0, 30, 66
1, 588946, Note_off_c, 0, 54, 66
1, 588975, Note_on_c, 0, 42, 63
1, 589024, Note_off_c, 0, 42, 60
1, 589055, Note_on_c, 0, 30, 53
1, 589102, Note_off_c, 0, 30, 63
1, 589124, Note_on_c, 0, 52, 72
1, 589128, Note_on_c, 0, 42, 65
1, 589152, Note_on_c, 0, 45, 33
1, 589154, Note_off_c, 0, 52, 65
1, 589158, Note_off_c, 0, 42, 64
1, 589177, Note_on_c, 0, 47, 86
1, 589178, Note_on_c, 0, 50, 80
1, 589180, Note_on_c, 0, 55, 79
1, 589187, Note_on_c, 0, 29, 73
1, 589187, Note_off_c, 0, 45, 33
1, 589199, Note_off_c, 0, 47, 68
1, 589202, Note_off_c, 0, 50, 66
1, 589207, Note_off_c, 0, 55, 67
1, 589225, Note_off_c, 0, 29, 63
1, 589246, Note_on_c, 0, 42, 67
1, 589290, Note_off_c, 0, 42, 64
1, 589325, Note_on_c, 0, 30, 68
1, 589355, Note_off_c, 0, 30, 64
1, 589391, Note_on_c, 0, 42, 66
1, 589427, Note_off_c, 0, 42, 63
1, 589441, Note_on_c, 0, 30, 57
1, 589481, Control_c, 0, 64, 13
1, 589483, Note_off_c, 0, 30, 60
1, 589495, Control_c, 0, 64, 17
1, 589510, Control_c, 0, 64, 18
1, 589512, Note_on_c, 0, 42, 59
1, 589540, Control_c, 0, 64, 17
1, 589542, Note_off_c, 0, 42, 62
1, 589555, Control_c, 0, 64, 16
1, 589569, Control_c, 0, 64, 12
1, 589578, Note_on_c, 0, 29, 71
1, 589584, Control_c, 0, 64, 0
1, 589613, Note_off_c, 0, 29, 66
1, 589628, Note_on_c, 0, 42, 69
1, 589638, Note_on_c, 0, 55, 83
1, 589660, Note_off_c, 0, 42, 66
1, 589663, Note_off_c, 0, 55, 68
1, 589697, Control_c, 0, 64, 13
1, 589707, Note_on_c, 0, 49, 77
1, 589707, Note_on_c, 0, 57, 77
1, 589712, Control_c, 0, 64, 39
1, 589713, Note_on_c, 0, 54, 61
1, 589724, Note_on_c, 0, 46, 67
1, 589726, Control_c, 0, 64, 53
1, 589741, Control_c, 0, 64, 58
1, 589751, Note_off_c, 0, 46, 63
1, 589756, Control_c, 0, 64, 60
1, 589771, Control_c, 0, 64, 62
1, 589786, Control_c, 0, 64, 63
1, 589795, Note_on_c, 0, 52, 59
1, 589800, Control_c, 0, 64, 64
1, 589805, Note_off_c, 0, 54, 0
1, 589815, Control_c, 0, 64, 65
1, 589830, Note_off_c, 0, 52, 63
1, 589830, Control_c, 0, 64, 65
1, 589842, Poly_aftertouch_c, 0, 54, 127
1, 589845, Control_c, 0, 64, 66
1, 589857, Note_on_c, 0, 46, 65
1, 589860, Control_c, 0, 64, 66
1, 589874, Control_c, 0, 64, 67
1, 589885, Note_off_c, 0, 46, 66
1, 589889, Control_c, 0, 64, 67
1, 589903, Poly_aftertouch_c, 0, 54, 0
1, 589904, Control_c, 0, 64, 68
1, 589918, Control_c, 0, 64, 68
1, 589933, Control_c, 0, 64, 69
1, 589948, Control_c, 0, 64, 70
1, 589961, Note_on_c, 0, 42, 70
1, 589963, Control_c, 0, 64, 72
1, 589995, Note_off_c, 0, 57, 22
1, 589996, Note_off_c, 0, 42, 63
1, 590008, Control_c, 0, 64, 67
1, 590023, Note_on_c, 0, 29, 80
1, 590023, Note_off_c, 0, 49, 19
1, 590023, Control_c, 0, 64, 56
1, 590037, Control_c, 0, 64, 26
1, 590052, Control_c, 0, 64, 0
1, 590056, Note_off_c, 0, 29, 65
1, 590094, Note_on_c, 0, 42, 67
1, 590136, Note_off_c, 0, 42, 62
1, 590183, Note_on_c, 0, 30, 64
1, 590216, Note_off_c, 0, 30, 64
1, 590246, Note_on_c, 0, 42, 55
1, 590281, Note_off_c, 0, 42, 62
1, 590314, Note_on_c, 0, 30, 56
1, 590349, Note_off_c, 0, 30, 64
1, 590376, Note_on_c, 0, 42, 62
1, 590422, Note_off_c, 0, 42, 62
1, 590456, Note_on_c, 0, 29, 71
1, 590488, Note_off_c, 0, 29, 63
1, 590520, Note_on_c, 0, 42, 62
1, 590557, Note_off_c, 0, 42, 62
1, 590600, Note_on_c, 0, 30, 59
1, 590633, Note_off_c, 0, 30, 64
1, 590663, Note_on_c, 0, 42, 56
1, 590701, Note_off_c, 0, 42, 62
1, 590736, Note_on_c, 0, 30, 55
1, 590772, Note_off_c, 0, 30, 64
1, 590805, Note_on_c, 0, 42, 53
1, 590840, Note_off_c, 0, 42, 64
1, 590877, Note_on_c, 0, 29, 64
1, 590910, Note_off_c, 0, 29, 64
1, 590940, Note_on_c, 0, 42, 57
1, 590973, Note_off_c, 0, 42, 63
1, 591012, Note_on_c, 0, 30, 60
1, 591048, Note_off_c, 0, 30, 63
1, 591076, Note_on_c, 0, 42, 53
1, 591111, Note_off_c, 0, 42, 63
1, 591152, Note_on_c, 0, 30, 59
1, 591188, Note_off_c, 0, 30, 63
1, 591233, Note_on_c, 0, 42, 50
1, 591264, Note_off_c, 0, 42, 61
1, 591302, Note_on_c, 0, 29, 63
1, 591334, Note_off_c, 0, 29, 64
1, 591373, Note_on_c, 0, 42, 52
1, 591405, Note_off_c, 0, 42, 61
1, 591447, Note_on_c, 0, 30, 58
1, 591481, Note_off_c, 0, 30, 64
1, 591517, Note_on_c, 0, 42, 50
1, 591549, Note_off_c, 0, 42, 62
1, 591584, Note_on_c, 0, 30, 58
1, 591621, Note_off_c, 0, 30, 63
1, 591658, Note_on_c, 0, 42, 57
1, 591699, Note_off_c, 0, 42, 60
1, 591750, Note_on_c, 0, 29, 71
1, 591779, Note_on_c, 0, 46, 71
1, 591784, Note_off_c, 0, 29, 65
1, 591786, Note_on_c, 0, 55, 65
1, 591806, Note_off_c, 0, 55, 63
1, 591808, Note_off_c, 0, 46, 67
1, 591816, Note_on_c, 0, 42, 68
1, 591846, Note_on_c, 0, 57, 68
1, 591851, Note_on_c, 0, 54, 62
1, 591851, Note_off_c, 0, 42, 61
1, 591857, Note_on_c, 0, 49, 62
1, 591874, Note_off_c, 0, 57, 65
1, 591886, Note_off_c, 0, 49, 57
1, 591890, Note_off_c, 0, 54, 67
1, 591906, Note_on_c, 0, 30, 65
1, 591936, Note_off_c, 0, 30, 64
1, 591964, Note_on_c, 0, 42, 59
1, 592005, Note_off_c, 0, 42, 60
1, 592035, Note_on_c, 0, 30, 56
1, 592059, Note_on_c, 0, 52, 67
1, 592073, Note_on_c, 0, 45, 45
1, 592078, Note_off_c, 0, 52, 63
1, 592082, Note_off_c, 0, 30, 62
1, 592100, Note_off_c, 0, 45, 37
1, 592112, Note_on_c, 0, 47, 78
1, 592114, Note_on_c, 0, 50, 66
1, 592114, Note_on_c, 0, 55, 70
1, 592119, Note_on_c, 0, 42, 58
1, 592127, Note_on_c, 0, 53, 55
1, 592130, Note_off_c, 0, 47, 66
1, 592139, Note_off_c, 0, 50, 62
1, 592142, Note_off_c, 0, 55, 67
1, 592147, Note_on_c, 0, 29, 60
1, 592151, Note_off_c, 0, 42, 64
1, 592152, Note_off_c, 0, 53, 52
1, 592191, Note_off_c, 0, 29, 63
1, 592225, Note_on_c, 0, 42, 68
1, 592257, Note_off_c, 0, 42, 65
1, 592288, Note_on_c, 0, 30, 61
1, 592321, Note_off_c, 0, 30, 63
1, 592342, Note_on_c, 0, 42, 68
1, 592390, Note_off_c, 0, 42, 58
1, 592410, Note_on_c, 0, 30, 60
1, 592418, Note_on_c, 0, 55, 74
1, 592419, Note_on_c, 0, 46, 78
1, 592446, Note_off_c, 0, 55, 66
1, 592447, Note_off_c, 0, 46, 66
1, 592475, Note_off_c, 0, 30, 51
1, 592492, Note_on_c, 0, 49, 82
1, 592492, Note_on_c, 0, 57, 75
1, 592494, Note_on_c, 0, 54, 74
1, 592497, Note_on_c, 0, 29, 64
1, 592521, Control_c, 0, 64, 14
1, 592524, Note_off_c, 0, 29, 64
1, 592534, Note_on_c, 0, 42, 72
1, 592535, Control_c, 0, 64, 42
1, 592550, Control_c, 0, 64, 56
1, 592564, Note_off_c, 0, 42, 64
1, 592565, Control_c, 0, 64, 60
1, 592580, Control_c, 0, 64, 62
1, 592595, Control_c, 0, 64, 64
1, 592610, Control_c, 0, 64, 66
1, 592625, Control_c, 0, 64, 68
1, 592637, Note_off_c, 0, 57, 60
1, 592638, Note_off_c, 0, 54, 62
1, 592646, Note_on_c, 0, 46, 68
1, 592646, Control_c, 0, 64, 71
1, 592661, Control_c, 0, 64, 73
1, 592676, Control_c, 0, 64, 76
1, 592678, Note_off_c, 0, 46, 66
1, 592691, Control_c, 0, 64, 79
1, 592705, Note_on_c, 0, 52, 66
1, 592706, Control_c, 0, 64, 80
1, 592735, Control_c, 0, 64, 75
1, 592736, Note_off_c, 0, 52, 65
1, 592747, Note_off_c, 0, 49, 36
1, 592750, Control_c, 0, 64, 66
1, 592757, Note_on_c, 0, 46, 78
1, 592765, Control_c, 0, 64, 54
1, 592780, Control_c, 0, 64, 30
1, 592783, Note_off_c, 0, 46, 69
1, 592795, Control_c, 0, 64, 0
1, 592862, Note_on_c, 0, 42, 58
1, 592896, Note_off_c, 0, 42, 64
1, 592916, Note_on_c, 0, 29, 63
1, 592947, Note_off_c, 0, 29, 63
1, 592949, Note_on_c, 0, 59, 74
1, 592960, Note_on_c, 0, 49, 55
1, 592976, Note_off_c, 0, 59, 63
1, 592977, Note_on_c, 0, 42, 66
1, 592987, Note_off_c, 0, 49, 37
1, 593011, Note_off_c, 0, 42, 64
1, 593019, Note_on_c, 0, 61, 68
1, 593027, Note_on_c, 0, 51, 64
1, 593036, Note_on_c, 0, 57, 51
1, 593060, Note_on_c, 0, 30, 60
1, 593087, Note_off_c, 0, 30, 56
1, 593102, Note_on_c, 0, 42, 61
1, 593145, Note_off_c, 0, 42, 63
1, 593151, Control_c, 0, 64, 15
1, 593166, Control_c, 0, 64, 22
1, 593171, Note_on_c, 0, 30, 62
1, 593181, Control_c, 0, 64, 28
1, 593196, Control_c, 0, 64, 37
1, 593210, Control_c, 0, 64, 44
1, 593211, Note_off_c, 0, 30, 63
1, 593225, Control_c, 0, 64, 49
1, 593240, Control_c, 0, 64, 52
1, 593244, Note_on_c, 0, 42, 65
1, 593254, Control_c, 0, 64, 54
1, 593269, Control_c, 0, 64, 57
1, 593275, Note_off_c, 0, 42, 64
1, 593284, Control_c, 0, 64, 59
1, 593299, Control_c, 0, 64, 62
1, 593305, Note_on_c, 0, 29, 74
1, 593314, Control_c, 0, 64, 64
1, 593322, Note_off_c, 0, 51, 51
1, 593328, Control_c, 0, 64, 66
1, 593337, Note_off_c, 0, 29, 67
1, 593343, Control_c, 0, 64, 69
1, 593358, Control_c, 0, 64, 72
1, 593364, Note_on_c, 0, 42, 61
1, 593373, Control_c, 0, 64, 76
1, 593396, Control_c, 0, 64, 79
1, 593397, Note_off_c, 0, 42, 54
1, 593410, Control_c, 0, 64, 82
1, 593419, Note_off_c, 0, 57, 32
1, 593425, Control_c, 0, 64, 84
1, 593440, Control_c, 0, 64, 85
1, 593455, Control_c, 0, 64, 86
1, 593477, Note_on_c, 0, 51, 47
1, 593484, Control_c, 0, 64, 87
1, 593510, Note_off_c, 0, 51, 35
1, 593514, Control_c, 0, 64, 87
1, 593532, Note_on_c, 0, 57, 73
1, 593568, Note_off_c, 0, 57, 61
1, 593594, Note_on_c, 0, 51, 75
1, 593603, Control_c, 0, 64, 88
1, 593619, Control_c, 0, 64, 89
1, 593621, Note_off_c, 0, 51, 67
1, 593633, Control_c, 0, 64, 91
1, 593648, Control_c, 0, 64, 95
1, 593663, Control_c, 0, 64, 97
1, 593678, Control_c, 0, 64, 98
1, 593705, Note_on_c, 0, 42, 67
1, 593707, Control_c, 0, 64, 97
1, 593722, Control_c, 0, 64, 86
1, 593737, Control_c, 0, 64, 71
1, 593740, Note_off_c, 0, 42, 63
1, 593752, Control_c, 0, 64, 50
1, 593757, Note_on_c, 0, 29, 77
1, 593767, Control_c, 0, 64, 0
1, 593801, Note_off_c, 0, 29, 62
1, 593812, Note_off_c, 0, 61, 33
1, 593834, Note_on_c, 0, 42, 62
1, 593871, Note_off_c, 0, 42, 62
1, 593916, Note_on_c, 0, 30, 58
1, 593944, Note_off_c, 0, 30, 58
1, 593974, Note_on_c, 0, 42, 57
1, 594009, Note_off_c, 0, 42, 64
1, 594030, Note_on_c, 0, 30, 60
1, 594068, Note_off_c, 0, 30, 63
1, 594101, Note_on_c, 0, 42, 64
1, 594143, Note_off_c, 0, 42, 63
1, 594178, Note_on_c, 0, 29, 71
1, 594205, Note_off_c, 0, 29, 64
1, 594237, Note_on_c, 0, 42, 66
1, 594273, Note_off_c, 0, 42, 62
1, 594324, Note_on_c, 0, 30, 58
1, 594351, Note_off_c, 0, 30, 57
1, 594379, Note_on_c, 0, 42, 59
1, 594414, Note_off_c, 0, 42, 63
1, 594443, Note_on_c, 0, 30, 56
1, 594476, Note_off_c, 0, 30, 64
1, 594512, Note_on_c, 0, 42, 59
1, 594547, Note_off_c, 0, 42, 63
1, 594583, Note_on_c, 0, 29, 69
1, 594614, Note_off_c, 0, 29, 63
1, 594649, Note_on_c, 0, 42, 59
1, 594685, Note_off_c, 0, 42, 64
1, 594726, Note_on_c, 0, 30, 58
1, 594760, Note_off_c, 0, 30, 62
1, 594787, Note_on_c, 0, 42, 59
1, 594823, Note_off_c, 0, 42, 61
1, 594850, Note_on_c, 0, 30, 60
1, 594893, Note_off_c, 0, 30, 63
1, 594931, Note_on_c, 0, 42, 59
1, 594964, Note_off_c, 0, 42, 64
1, 594995, Note_on_c, 0, 29, 66
1, 595025, Note_off_c, 0, 29, 65
1, 595057, Note_on_c, 0, 42, 65
1, 595093, Note_off_c, 0, 42, 63
1, 595136, Note_on_c, 0, 30, 64
1, 595166, Note_off_c, 0, 30, 65
1, 595202, Note_on_c, 0, 42, 57
1, 595239, Note_off_c, 0, 42, 63
1, 595272, Note_on_c, 0, 30, 56
1, 595311, Note_off_c, 0, 30, 62
1, 595344, Note_on_c, 0, 42, 60
1, 595381, Note_off_c, 0, 42, 62
1, 595427, Note_on_c, 0, 29, 73
1, 595427, Control_c, 0, 67, 125
1, 595442, Control_c, 0, 67, 124
1, 595457, Control_c, 0, 67, 122
1, 595466, Note_off_c, 0, 29, 62
1, 595472, Control_c, 0, 67, 121
1, 595477, Note_on_c, 0, 59, 71
1, 595482, Note_on_c, 0, 49, 69
1, 595487, Control_c, 0, 67, 120
1, 595491, Note_on_c, 0, 42, 67
1, 595501, Control_c, 0, 67, 117
1, 595503, Note_off_c, 0, 49, 54
1, 595504, Note_off_c, 0, 59, 65
1, 595516, Control_c, 0, 67, 113
1, 595531, Control_c, 0, 67, 112
1, 595531, Note_off_c, 0, 42, 61
1, 595535, Note_on_c, 0, 61, 78
1, 595539, Note_on_c, 0, 51, 82
1, 595557, Note_on_c, 0, 57, 52
1, 595561, Control_c, 0, 67, 113
1, 595564, Note_off_c, 0, 61, 62
1, 595567, Note_off_c, 0, 51, 63
1, 595570, Note_on_c, 0, 30, 73
1, 595575, Control_c, 0, 67, 113
1, 595582, Note_off_c, 0, 57, 37
1, 595598, Note_off_c, 0, 30, 64
1, 595605, Control_c, 0, 67, 114
1, 595620, Control_c, 0, 67, 114
1, 595638, Note_on_c, 0, 42, 68
1, 595671, Control_c, 0, 67, 115
1, 595680, Note_off_c, 0, 42, 61
1, 595717, Note_on_c, 0, 30, 49
1, 595731, Control_c, 0, 67, 114
1, 595761, Note_off_c, 0, 30, 64
1, 595764, Note_on_c, 0, 47, 75
1, 595764, Note_on_c, 0, 54, 69
1, 595780, Note_on_c, 0, 42, 67
1, 595791, Note_off_c, 0, 54, 65
1, 595793, Note_off_c, 0, 47, 67
1, 595810, Note_off_c, 0, 42, 64
1, 595816, Note_on_c, 0, 57, 79
1, 595817, Note_on_c, 0, 52, 76
1, 595823, Note_on_c, 0, 48, 68
1, 595829, Note_on_c, 0, 47, 67
1, 595835, Note_on_c, 0, 29, 76
1, 595843, Note_off_c, 0, 48, 62
1, 595845, Note_off_c, 0, 52, 65
1, 595845, Note_off_c, 0, 57, 65
1, 595852, Note_off_c, 0, 47, 48
1, 595872, Note_off_c, 0, 29, 63
1, 595901, Note_on_c, 0, 42, 67
1, 595945, Note_off_c, 0, 42, 61
1, 595968, Control_c, 0, 67, 115
1, 595986, Note_on_c, 0, 30, 68
1, 596013, Control_c, 0, 67, 115
1, 596017, Note_off_c, 0, 30, 65
1, 596043, Control_c, 0, 67, 115
1, 596045, Note_on_c, 0, 42, 70
1, 596072, Control_c, 0, 67, 114
1, 596081, Note_off_c, 0, 42, 61
1, 596102, Control_c, 0, 67, 114
1, 596112, Note_on_c, 0, 30, 60
1, 596117, Control_c, 0, 67, 113
1, 596132, Control_c, 0, 67, 112
1, 596147, Note_on_c, 0, 49, 84
1, 596147, Control_c, 0, 67, 112
1, 596148, Note_on_c, 0, 59, 75
1, 596152, Note_off_c, 0, 30, 64
1, 596169, Note_on_c, 0, 42, 63
1, 596173, Note_off_c, 0, 49, 68
1, 596173, Note_off_c, 0, 59, 66
1, 596176, Control_c, 0, 67, 111
1, 596202, Note_off_c, 0, 42, 64
1, 596209, Note_on_c, 0, 57, 83
1, 596210, Note_on_c, 0, 51, 82
1, 596212, Note_on_c, 0, 61, 76
1, 596217, Note_on_c, 0, 29, 76
1, 596235, Note_off_c, 0, 51, 68
1, 596238, Note_off_c, 0, 57, 64
1, 596253, Note_off_c, 0, 61, 57
1, 596257, Note_off_c, 0, 29, 62
1, 596278, Note_on_c, 0, 42, 72
1, 596279, Control_c, 0, 67, 111
1, 596294, Control_c, 0, 67, 110
1, 596310, Control_c, 0, 67, 108
1, 596319, Note_off_c, 0, 42, 61
1, 596325, Control_c, 0, 67, 106
1, 596340, Control_c, 0, 67, 104
1, 596354, Control_c, 0, 67, 102
1, 596365, Note_on_c, 0, 30, 71
1, 596369, Control_c, 0, 67, 100
1, 596392, Control_c, 0, 67, 98
1, 596402, Note_off_c, 0, 30, 65
1, 596406, Control_c, 0, 67, 97
1, 596421, Control_c, 0, 67, 96
1, 596424, Note_on_c, 0, 42, 67
1, 596436, Control_c, 0, 67, 96
1, 596451, Control_c, 0, 67, 95
1, 596462, Note_off_c, 0, 42, 63
1, 596466, Control_c, 0, 67, 94
1, 596480, Control_c, 0, 67, 92
1, 596494, Note_on_c, 0, 30, 64
1, 596495, Control_c, 0, 67, 90
1, 596510, Control_c, 0, 67, 87
1, 596525, Control_c, 0, 67, 85
1, 596529, Note_off_c, 0, 30, 65
1, 596540, Control_c, 0, 67, 84
1, 596548, Note_on_c, 0, 62, 80
1, 596551, Note_on_c, 0, 52, 77
1, 596554, Note_on_c, 0, 42, 73
1, 596554, Control_c, 0, 67, 83
1, 596560, Note_on_c, 0, 57, 56
1, 596561, Note_off_c, 0, 57, 127
1, 596566, Note_off_c, 0, 52, 66
1, 596572, Note_off_c, 0, 62, 64
1, 596584, Control_c, 0, 67, 84
1, 596591, Note_off_c, 0, 42, 64
1, 596599, Control_c, 0, 67, 85
1, 596608, Note_on_c, 0, 64, 87
1, 596613, Control_c, 0, 67, 86
1, 596616, Note_on_c, 0, 60, 78
1, 596618, Note_on_c, 0, 54, 88
1, 596620, Note_on_c, 0, 29, 78
1, 596628, Control_c, 0, 67, 87
1, 596643, Control_c, 0, 67, 87
1, 596658, Control_c, 0, 67, 87
1, 596667, Note_off_c, 0, 29, 62
1, 596673, Control_c, 0, 67, 86
1, 596688, Control_c, 0, 67, 85
1, 596695, Note_on_c, 0, 42, 68
1, 596703, Control_c, 0, 64, 37
1, 596703, Control_c, 0, 67, 83
1, 596718, Control_c, 0, 64, 53
1, 596718, Control_c, 0, 67, 81
1, 596732, Control_c, 0, 64, 59
1, 596732, Control_c, 0, 67, 78
1, 596738, Note_off_c, 0, 42, 60
1, 596747, Control_c, 0, 64, 62
1, 596747, Control_c, 0, 67, 72
1, 596762, Control_c, 0, 64, 63
1, 596762, Control_c, 0, 67, 66
1, 596777, Control_c, 0, 64, 65
1, 596777, Control_c, 0, 67, 63
1, 596782, Note_on_c, 0, 30, 68
1, 596785, Note_off_c, 0, 60, 63
1, 596792, Control_c, 0, 64, 67
1, 596792, Control_c, 0, 67, 67
1, 596807, Note_off_c, 0, 64, 63
1, 596807, Control_c, 0, 64, 70
1, 596807, Control_c, 0, 67, 75
1, 596815, Note_off_c, 0, 30, 64
1, 596822, Control_c, 0, 64, 71
1, 596822, Control_c, 0, 67, 79
1, 596829, Note_off_c, 0, 54, 59
1, 596837, Control_c, 0, 67, 86
1, 596840, Note_on_c, 0, 42, 69
1, 596852, Control_c, 0, 67, 92
1, 596867, Control_c, 0, 64, 70
1, 596867, Control_c, 0, 67, 97
1, 596879, Note_off_c, 0, 42, 61
1, 596882, Control_c, 0, 64, 65
1, 596882, Control_c, 0, 67, 104
1, 596897, Control_c, 0, 64, 57
1, 596897, Control_c, 0, 67, 110
1, 596902, Note_on_c, 0, 30, 60
1, 596911, Control_c, 0, 64, 44
1, 596911, Control_c, 0, 67, 116
1, 596926, Control_c, 0, 64, 27
1, 596926, Control_c, 0, 67, 120
1, 596941, Control_c, 0, 64, 0
1, 596941, Control_c, 0, 67, 123
1, 596945, Note_off_c, 0, 30, 63
1, 596956, Control_c, 0, 67, 125
1, 596970, Control_c, 0, 67, 127
1, 596983, Note_on_c, 0, 42, 54
1, 596985, Control_c, 0, 67, 127
1, 597013, Note_off_c, 0, 42, 60
1, 597028, Note_on_c, 0, 66, 65
1, 597044, Note_on_c, 0, 29, 67
1, 597045, Note_on_c, 0, 61, 51
1, 597063, Note_off_c, 0, 66, 56
1, 597072, Note_off_c, 0, 61, 35
1, 597075, Note_off_c, 0, 29, 63
1, 597098, Note_on_c, 0, 68, 73
1, 597102, Note_on_c, 0, 42, 62
1, 597114, Note_on_c, 0, 58, 74
1, 597117, Note_on_c, 0, 64, 59
1, 597118, Control_c, 0, 64, 30
1, 597141, Control_c, 0, 64, 49
1, 597149, Note_off_c, 0, 42, 62
1, 597155, Control_c, 0, 64, 59
1, 597168, Note_off_c, 0, 58, 61
1, 597170, Control_c, 0, 64, 62
1, 597176, Note_off_c, 0, 64, 61
1, 597180, Note_off_c, 0, 68, 63
1, 597185, Control_c, 0, 64, 65
1, 597188, Note_on_c, 0, 30, 51
1, 597200, Control_c, 0, 64, 67
1, 597215, Control_c, 0, 64, 71
1, 597215, Control_c, 0, 67, 126
1, 597224, Note_off_c, 0, 30, 63
1, 597229, Control_c, 0, 64, 74
1, 597229, Control_c, 0, 67, 125
1, 597244, Control_c, 0, 64, 77
1, 597244, Control_c, 0, 67, 124
1, 597245, Note_on_c, 0, 42, 69
1, 597259, Control_c, 0, 64, 78
1, 597259, Control_c, 0, 67, 123
1, 597274, Control_c, 0, 64, 79
1, 597274, Control_c, 0, 67, 122
1, 597289, Control_c, 0, 67, 121
1, 597293, Note_off_c, 0, 42, 59
1, 597303, Control_c, 0, 67, 120
1, 597318, Control_c, 0, 67, 119
1, 597333, Control_c, 0, 64, 80
1, 597333, Control_c, 0, 67, 119
1, 597341, Note_on_c, 0, 30, 63
1, 597348, Control_c, 0, 64, 80
1, 597359, Note_on_c, 0, 76, 66
1, 597362, Control_c, 0, 64, 81
1, 597377, Control_c, 0, 64, 82
1, 597379, Note_off_c, 0, 76, 63
1, 597382, Note_off_c, 0, 30, 65
1, 597392, Control_c, 0, 64, 82
1, 597407, Control_c, 0, 64, 83
1, 597422, Control_c, 0, 64, 83
1, 597425, Note_on_c, 0, 64, 59
1, 597436, Control_c, 0, 64, 84
1, 597451, Control_c, 0, 64, 84
1, 597457, Note_off_c, 0, 64, 65
1, 597466, Control_c, 0, 64, 85
1, 597496, Control_c, 0, 67, 119
1, 597511, Control_c, 0, 64, 85
1, 597511, Control_c, 0, 67, 120
1, 597521, Note_on_c, 0, 61, 56
1, 597526, Control_c, 0, 67, 120
1, 597536, Note_on_c, 0, 52, 34
1, 597540, Control_c, 0, 67, 121
1, 597563, Note_on_c, 0, 49, 64
1, 597567, Note_off_c, 0, 52, 33
1, 597570, Control_c, 0, 67, 122
1, 597585, Control_c, 0, 67, 122
1, 597586, Note_off_c, 0, 49, 63
1, 597675, Note_on_c, 0, 68, 19
1, 597683, Note_on_c, 0, 40, 53
1, 597703, Note_on_c, 0, 64, 4
1, 597707, Note_on_c, 0, 58, 38
1, 597719, Control_c, 0, 64, 86
1, 597722, Note_off_c, 0, 40, 53
1, 597734, Control_c, 0, 64, 86
1, 597748, Note_on_c, 0, 37, 55
1, 597764, Control_c, 0, 64, 86
1, 597776, Note_off_c, 0, 37, 57
1, 597778, Control_c, 0, 64, 82
1, 597778, Control_c, 0, 67, 123
1, 597793, Control_c, 0, 64, 73
1, 597793, Control_c, 0, 67, 125
1, 597807, Control_c, 0, 64, 62
1, 597807, Control_c, 0, 67, 127
1, 597808, Note_on_c, 0, 29, 70
1, 597822, Control_c, 0, 64, 36
1, 597837, Control_c, 0, 64, 0
1, 597841, Note_off_c, 0, 29, 61
1, 597863, Note_off_c, 0, 61, 21
1, 597896, Note_on_c, 0, 42, 60
1, 597924, Note_off_c, 0, 42, 55
1, 597975, Note_on_c, 0, 30, 62
1, 598007, Note_off_c, 0, 30, 62
1, 598042, Note_on_c, 0, 42, 46
1, 598080, Note_off_c, 0, 42, 59
1, 598104, Note_on_c, 0, 30, 53
1, 598142, Note_off_c, 0, 30, 62
1, 598178, Note_on_c, 0, 42, 57
1, 598212, Note_off_c, 0, 42, 64
1, 598246, Note_on_c, 0, 29, 66
1, 598274, Note_off_c, 0, 29, 65
1, 598307, Note_on_c, 0, 42, 63
1, 598345, Note_off_c, 0, 42, 62
1, 598395, Note_on_c, 0, 30, 55
1, 598426, Note_off_c, 0, 30, 61
1, 598460, Note_on_c, 0, 42, 56
1, 598494, Note_off_c, 0, 42, 63
1, 598524, Note_on_c, 0, 30, 58
1, 598566, Note_off_c, 0, 30, 64
1, 598599, Note_off_c, 0, 64, 37
1, 598608, Note_on_c, 0, 42, 58
1, 598617, Note_off_c, 0, 58, 52
1, 598628, Note_off_c, 0, 68, 41
1, 598652, Note_off_c, 0, 42, 62
1, 598693, Note_on_c, 0, 29, 70
1, 598727, Note_off_c, 0, 29, 66
1, 598741, Note_on_c, 0, 66, 63
1, 598741, Control_c, 0, 67, 127
1, 598745, Note_on_c, 0, 56, 60
1, 598750, Note_on_c, 0, 61, 46
1, 598756, Control_c, 0, 67, 126
1, 598757, Note_on_c, 0, 42, 65
1, 598769, Note_off_c, 0, 56, 38
1, 598770, Note_off_c, 0, 66, 61
1, 598780, Note_off_c, 0, 61, 35
1, 598800, Control_c, 0, 67, 126
1, 598802, Note_off_c, 0, 42, 60
1, 598804, Note_on_c, 0, 68, 70
1, 598810, Note_on_c, 0, 64, 59
1, 598816, Note_on_c, 0, 58, 60
1, 598826, Note_off_c, 0, 68, 70
1, 598830, Note_off_c, 0, 64, 62
1, 598838, Note_off_c, 0, 58, 60
1, 598845, Control_c, 0, 67, 127
1, 598847, Note_on_c, 0, 30, 65
1, 598880, Note_off_c, 0, 30, 64
1, 598901, Note_on_c, 0, 42, 65
1, 598948, Control_c, 0, 67, 126
1, 598952, Note_off_c, 0, 42, 58
1, 598963, Control_c, 0, 67, 126
1, 598978, Control_c, 0, 67, 125
1, 598986, Note_on_c, 0, 30, 51
1, 598993, Control_c, 0, 67, 124
1, 599005, Note_on_c, 0, 61, 59
1, 599007, Control_c, 0, 67, 123
1, 599022, Control_c, 0, 67, 122
1, 599025, Note_on_c, 0, 53, 44
1, 599027, Note_off_c, 0, 30, 65
1, 599030, Note_off_c, 0, 61, 37
1, 599037, Control_c, 0, 67, 121
1, 599052, Control_c, 0, 67, 122
1, 599057, Note_on_c, 0, 60, 80
1, 599060, Note_on_c, 0, 64, 79
1, 599063, Note_off_c, 0, 53, 32
1, 599064, Note_on_c, 0, 29, 47
1, 599068, Note_on_c, 0, 55, 66
1, 599078, Note_on_c, 0, 42, 60
1, 599082, Note_off_c, 0, 60, 66
1, 599088, Note_off_c, 0, 55, 64
1, 599088, Note_off_c, 0, 64, 64
1, 599096, Control_c, 0, 67, 122
1, 599103, Note_off_c, 0, 29, 62
1, 599133, Note_off_c, 0, 42, 56
1, 599141, Control_c, 0, 67, 123
1, 599166, Note_on_c, 0, 30, 56
1, 599201, Note_off_c, 0, 30, 64
1, 599239, Note_on_c, 0, 42, 59
1, 599266, Note_off_c, 0, 42, 60
1, 599291, Note_on_c, 0, 30, 58
1, 599335, Note_off_c, 0, 30, 63
1, 599358, Note_on_c, 0, 42, 57
1, 599364, Control_c, 0, 67, 122
1, 599402, Note_off_c, 0, 42, 61
1, 599430, Note_on_c, 0, 66, 71
1, 599430, Control_c, 0, 67, 123
1, 599439, Note_on_c, 0, 29, 72
1, 599445, Control_c, 0, 67, 124
1, 599455, Note_off_c, 0, 66, 66
1, 599460, Control_c, 0, 67, 125
1, 599472, Note_on_c, 0, 56, 7
1, 599475, Control_c, 0, 67, 126
1, 599478, Note_off_c, 0, 29, 62
1, 599490, Note_on_c, 0, 68, 79
1, 599490, Control_c, 0, 67, 126
1, 599499, Note_on_c, 0, 64, 69
1, 599502, Note_on_c, 0, 58, 68
1, 599505, Note_on_c, 0, 42, 68
1, 599505, Control_c, 0, 67, 127
1, 599519, Note_off_c, 0, 56, 30
1, 599549, Control_c, 0, 64, 22
1, 599556, Note_off_c, 0, 42, 60
1, 599564, Control_c, 0, 64, 49
1, 599579, Control_c, 0, 64, 61
1, 599587, Note_on_c, 0, 30, 67
1, 599594, Control_c, 0, 64, 64
1, 599594, Control_c, 0, 67, 126
1, 599596, Note_off_c, 0, 64, 62
1, 599609, Control_c, 0, 64, 67
1, 599611, Note_off_c, 0, 58, 54
1, 599623, Note_off_c, 0, 30, 65
1, 599623, Note_off_c, 0, 68, 63
1, 599623, Control_c, 0, 64, 70
1, 599623, Control_c, 0, 67, 126
1, 599638, Control_c, 0, 64, 74
1, 599638, Control_c, 0, 67, 125
1, 599653, Control_c, 0, 64, 80
1, 599668, Control_c, 0, 64, 86
1, 599668, Control_c, 0, 67, 124
1, 599677, Note_on_c, 0, 42, 57
1, 599683, Control_c, 0, 64, 89
1, 599697, Control_c, 0, 64, 91
1, 599711, Note_on_c, 0, 30, 48
1, 599712, Control_c, 0, 64, 92
1, 599712, Control_c, 0, 67, 124
1, 599728, Note_off_c, 0, 42, 0
1, 599734, Note_off_c, 0, 30, 53
1, 599770, Poly_aftertouch_c, 0, 42, 0
1, 599771, Control_c, 0, 67, 123
1, 599786, Control_c, 0, 67, 123
1, 599790, Note_on_c, 0, 30, 84
1, 599801, Control_c, 0, 67, 122
1, 599816, Control_c, 0, 64, 93
1, 599816, Control_c, 0, 67, 122
1, 599821, Note_off_c, 0, 30, 66
1, 599830, Control_c, 0, 64, 94
1, 599830, Control_c, 0, 67, 121
1, 599835, Note_on_c, 0, 88, 77
1, 599842, Note_on_c, 0, 85, 41
1, 599845, Control_c, 0, 64, 95
1, 599845, Control_c, 0, 67, 120
1, 599860, Control_c, 0, 64, 99
1, 599860, Control_c, 0, 67, 119
1, 599861, Note_off_c, 0, 88, 58
1, 599868, Note_off_c, 0, 85, 60
1, 599874, Control_c, 0, 64, 103
1, 599874, Control_c, 0, 67, 117
1, 599884, Note_on_c, 0, 76, 69
1, 599889, Control_c, 0, 64, 109
1, 599889, Control_c, 0, 67, 114
1, 599904, Control_c, 0, 64, 114
1, 599904, Control_c, 0, 67, 111
1, 599915, Note_off_c, 0, 76, 61
1, 599919, Control_c, 0, 64, 117
1, 599919, Control_c, 0, 67, 110
1, 599934, Control_c, 0, 64, 118
1, 599934, Control_c, 0, 67, 109
1, 599949, Control_c, 0, 64, 122
1, 599964, Control_c, 0, 64, 127
1, 599964, Control_c, 0, 67, 109
1, 599976, Note_on_c, 0, 64, 70
1, 599979, Control_c, 0, 67, 108
1, 599994, Control_c, 0, 67, 107
1, 600000, Note_off_c, 0, 64, 68
1, 600008, Note_on_c, 0, 61, 67
1, 600008, Note_on_c, 0, 73, 44
1, 600009, Control_c, 0, 67, 106
1, 600033, Note_off_c, 0, 61, 67
1, 600050, Note_off_c, 0, 73, 45
1, 600054, Control_c, 0, 67, 106
1, 600069, Control_c, 0, 67, 104
1, 600084, Control_c, 0, 67, 102
1, 600099, Control_c, 0, 67, 99
1, 600114, Control_c, 0, 67, 96
1, 600128, Note_on_c, 0, 52, 71
1, 600136, Control_c, 0, 67, 92
1, 600151, Control_c, 0, 67, 89
1, 600161, Note_off_c, 0, 52, 58
1, 600166, Control_c, 0, 67, 83
1, 600180, Control_c, 0, 67, 77
1, 600195, Control_c, 0, 67, 70
1, 600202, Note_on_c, 0, 49, 58
1, 600210, Control_c, 0, 67, 62
1, 600225, Control_c, 0, 67, 54
1, 600235, Note_off_c, 0, 49, 65
1, 600236, Note_on_c, 0, 76, 64
1, 600240, Control_c, 0, 67, 46
1, 600242, Note_on_c, 0, 73, 63
1, 600254, Control_c, 0, 67, 42
1, 600261, Note_off_c, 0, 76, 66
1, 600268, Note_off_c, 0, 73, 67
1, 600269, Control_c, 0, 67, 41
1, 600284, Control_c, 0, 67, 42
1, 600298, Control_c, 0, 67, 43
1, 600304, Note_on_c, 0, 64, 60
1, 600312, Note_on_c, 0, 52, 52
1, 600313, Control_c, 0, 67, 44
1, 600328, Control_c, 0, 67, 45
1, 600338, Note_off_c, 0, 64, 57
1, 600343, Control_c, 0, 67, 46
1, 600348, Note_off_c, 0, 52, 63
1, 600358, Control_c, 0, 67, 47
1, 600372, Control_c, 0, 67, 48
1, 600378, Note_on_c, 0, 49, 69
1, 600384, Note_on_c, 0, 61, 49
1, 600387, Control_c, 0, 67, 49
1, 600402, Control_c, 0, 67, 49
1, 600405, Note_off_c, 0, 49, 64
1, 600410, Note_off_c, 0, 61, 51
1, 600417, Control_c, 0, 67, 50
1, 600432, Control_c, 0, 67, 50
1, 600492, Control_c, 0, 67, 50
1, 600494, Note_on_c, 0, 40, 59
1, 600519, Note_off_c, 0, 40, 54
1, 600536, Control_c, 0, 64, 96
1, 600551, Control_c, 0, 64, 78
1, 600566, Control_c, 0, 64, 62
1, 600579, Note_on_c, 0, 37, 56
1, 600580, Control_c, 0, 64, 45
1, 600580, Control_c, 0, 67, 49
1, 600595, Control_c, 0, 64, 24
1, 600610, Control_c, 0, 64, 0
1, 600620, Note_off_c, 0, 37, 63
1, 600625, Control_c, 0, 64, 10
1, 600640, Control_c, 0, 64, 25
1, 600654, Control_c, 0, 64, 41
1, 600658, Note_on_c, 0, 27, 80
1, 600669, Control_c, 0, 64, 59
1, 600669, Control_c, 0, 67, 50
1, 600683, Note_off_c, 0, 27, 64
1, 600684, Control_c, 0, 64, 66
1, 600684, Control_c, 0, 67, 49
1, 600698, Control_c, 0, 64, 69
1, 600713, Control_c, 0, 64, 71
1, 600728, Control_c, 0, 64, 73
1, 600728, Control_c, 0, 67, 48
1, 600743, Control_c, 0, 64, 76
1, 600743, Control_c, 0, 67, 48
1, 600758, Control_c, 0, 64, 79
1, 600758, Control_c, 0, 67, 47
1, 600772, Control_c, 0, 64, 83
1, 600772, Control_c, 0, 67, 47
1, 600788, Control_c, 0, 64, 88
1, 600788, Control_c, 0, 67, 46
1, 600803, Control_c, 0, 64, 96
1, 600803, Control_c, 0, 67, 46
1, 600818, Control_c, 0, 64, 110
1, 600818, Control_c, 0, 67, 43
1, 600833, Note_on_c, 0, 82, 83
1, 600833, Control_c, 0, 64, 127
1, 600833, Control_c, 0, 67, 36
1, 600835, Note_on_c, 0, 70, 90
1, 600837, Note_on_c, 0, 55, 88
1, 600848, Control_c, 0, 67, 23
1, 600854, Note_off_c, 0, 70, 71
1, 600855, Note_off_c, 0, 82, 63
1, 600863, Control_c, 0, 67, 0
1, 600873, Note_off_c, 0, 55, 63
1, 600902, Note_on_c, 0, 84, 97
1, 600904, Note_on_c, 0, 61, 69
1, 600909, Note_on_c, 0, 72, 89
1, 600912, Note_on_c, 0, 81, 86
1, 600917, Note_on_c, 0, 69, 92
1, 600918, Note_on_c, 0, 64, 80
1, 600927, Note_off_c, 0, 72, 70
1, 600928, Note_off_c, 0, 81, 72
1, 600934, Note_off_c, 0, 84, 66
1, 600943, Note_off_c, 0, 64, 65
1, 600943, Note_off_c, 0, 69, 65
1, 600967, Note_off_c, 0, 61, 63
1, 601115, Note_on_c, 0, 64, 75
1, 601164, Note_off_c, 0, 64, 66
1, 601168, Note_on_c, 0, 61, 67
1, 601189, Note_off_c, 0, 61, 66
1, 601242, Note_on_c, 0, 53, 45
1, 601262, Note_on_c, 0, 52, 37
1, 601269, Note_off_c, 0, 53, 47
1, 601288, Note_off_c, 0, 52, 36
1, 601293, Note_on_c, 0, 49, 63
1, 601317, Note_off_c, 0, 49, 37
1, 601368, Note_on_c, 0, 52, 67
1, 601412, Note_on_c, 0, 49, 62
1, 601425, Note_off_c, 0, 52, 61
1, 601473, Note_off_c, 0, 49, 62
1, 601475, Note_on_c, 0, 40, 69
1, 601516, Note_off_c, 0, 40, 59
1, 601534, Note_on_c, 0, 37, 60
1, 601550, Control_c, 0, 64, 113
1, 601564, Note_off_c, 0, 37, 63
1, 601565, Control_c, 0, 64, 85
1, 601580, Control_c, 0, 64, 67
1, 601586, Note_on_c, 0, 26, 85
1, 601596, Control_c, 0, 64, 54
1, 601618, Control_c, 0, 64, 47
1, 601633, Note_off_c, 0, 26, 61
1, 601673, Note_on_c, 0, 39, 68
1, 601692, Control_c, 0, 64, 47
1, 601707, Control_c, 0, 64, 48
1, 601708, Note_off_c, 0, 39, 62
1, 601752, Note_on_c, 0, 27, 70
1, 601784, Note_off_c, 0, 27, 64
1, 601812, Note_on_c, 0, 39, 58
1, 601858, Note_off_c, 0, 39, 61
1, 601869, Control_c, 0, 64, 47
1, 601884, Control_c, 0, 64, 47
1, 601887, Note_on_c, 0, 27, 58
1, 601899, Control_c, 0, 64, 45
1, 601914, Control_c, 0, 64, 44
1, 601928, Note_off_c, 0, 27, 64
1, 601929, Control_c, 0, 64, 43
1, 601943, Control_c, 0, 64, 42
1, 601958, Control_c, 0, 64, 40
1, 601963, Note_on_c, 0, 39, 65
1, 601973, Control_c, 0, 64, 36
1, 601988, Control_c, 0, 64, 31
1, 601997, Note_off_c, 0, 39, 64
1, 602003, Control_c, 0, 64, 26
1, 602018, Control_c, 0, 64, 23
1, 602030, Note_on_c, 0, 26, 76
1, 602033, Control_c, 0, 64, 23
1, 602062, Control_c, 0, 64, 24
1, 602067, Note_off_c, 0, 26, 65
1, 602077, Control_c, 0, 64, 26
1, 602092, Control_c, 0, 64, 30
1, 602097, Note_on_c, 0, 39, 65
1, 602107, Control_c, 0, 64, 34
1, 602122, Control_c, 0, 64, 37
1, 602135, Note_off_c, 0, 39, 62
1, 602137, Control_c, 0, 64, 39
1, 602151, Control_c, 0, 64, 40
1, 602166, Control_c, 0, 64, 43
1, 602170, Note_on_c, 0, 27, 68
1, 602181, Control_c, 0, 64, 46
1, 602196, Control_c, 0, 64, 49
1, 602198, Note_off_c, 0, 27, 64
1, 602211, Control_c, 0, 64, 52
1, 602225, Control_c, 0, 64, 53
1, 602232, Note_on_c, 0, 39, 64
1, 602240, Control_c, 0, 64, 55
1, 602255, Control_c, 0, 64, 56
1, 602269, Note_off_c, 0, 39, 62
1, 602269, Control_c, 0, 64, 57
1, 602284, Control_c, 0, 64, 59
1, 602286, Note_on_c, 0, 27, 61
1, 602298, Control_c, 0, 64, 61
1, 602313, Control_c, 0, 64, 61
1, 602317, Note_off_c, 0, 27, 64
1, 602328, Control_c, 0, 64, 62
1, 602343, Control_c, 0, 64, 63
1, 602358, Control_c, 0, 64, 65
1, 602380, Control_c, 0, 64, 66
1, 602396, Control_c, 0, 64, 68
1, 602411, Note_on_c, 0, 27, 74
1, 602411, Control_c, 0, 64, 70
1, 602418, Note_on_c, 0, 39, 3
1, 602426, Control_c, 0, 64, 73
1, 602436, Note_off_c, 0, 27, 64
1, 602441, Control_c, 0, 64, 76
1, 602455, Note_off_c, 0, 39, 63
1, 602455, Control_c, 0, 64, 80
1, 602470, Control_c, 0, 64, 84
1, 602485, Control_c, 0, 64, 89
1, 602499, Control_c, 0, 64, 95
1, 602514, Control_c, 0, 64, 97
1, 602529, Control_c, 0, 64, 96
1, 602544, Control_c, 0, 64, 95
1, 602559, Control_c, 0, 64, 85
1, 602573, Control_c, 0, 64, 74
1, 602583, Note_on_c, 0, 81, 72
1, 602587, Note_on_c, 0, 69, 74
1, 602588, Control_c, 0, 64, 64
1, 602602, Note_on_c, 0, 65, 77
1, 602603, Control_c, 0, 64, 56
1, 602604, Note_off_c, 0, 69, 69
1, 602606, Note_off_c, 0, 81, 65
1, 602611, Note_on_c, 0, 56, 68
1, 602618, Control_c, 0, 64, 53
1, 602620, Note_on_c, 0, 61, 53
1, 602621, Note_off_c, 0, 61, 127
1, 602624, Note_off_c, 0, 65, 70
1, 602629, Note_on_c, 0, 57, 79
1, 602630, Note_off_c, 0, 56, 40
1, 602647, Control_c, 0, 64, 52
1, 602648, Note_on_c, 0, 82, 87
1, 602650, Note_on_c, 0, 70, 78
1, 602655, Note_off_c, 0, 57, 67
1, 602659, Note_on_c, 0, 55, 3
1, 602662, Control_c, 0, 64, 50
1, 602665, Note_off_c, 0, 82, 71
1, 602665, Note_off_c, 0, 70, 67
1, 602677, Control_c, 0, 64, 48
1, 602691, Control_c, 0, 64, 46
1, 602698, Note_off_c, 0, 55, 27
1, 602706, Control_c, 0, 64, 43
1, 602721, Control_c, 0, 64, 39
1, 602736, Control_c, 0, 64, 32
1, 602751, Control_c, 0, 64, 20
1, 602766, Control_c, 0, 64, 0
1, 602784, Note_on_c, 0, 60, 79
1, 602787, Note_on_c, 0, 48, 74
1, 602791, Note_on_c, 0, 50, 72
1, 602791, Note_on_c, 0, 64, 70
1, 602809, Note_off_c, 0, 60, 66
1, 602809, Note_off_c, 0, 64, 67
1, 602814, Note_off_c, 0, 48, 66
1, 602816, Note_off_c, 0, 50, 66
1, 602841, Note_on_c, 0, 77, 91
1, 602846, Note_on_c, 0, 65, 65
1, 602866, Note_on_c, 0, 67, 51
1, 602870, Note_off_c, 0, 77, 67
1, 602873, Note_off_c, 0, 65, 66
1, 602890, Note_off_c, 0, 67, 37
1, 602986, Note_on_c, 0, 68, 79
1, 602988, Note_on_c, 0, 80, 86
1, 602999, Note_on_c, 0, 55, 80
1, 603004, Note_off_c, 0, 80, 73
1, 603005, Note_off_c, 0, 68, 71
1, 603025, Note_on_c, 0, 61, 51
1, 603036, Note_on_c, 0, 64, 59
1, 603044, Note_on_c, 0, 69, 88
1, 603050, Note_on_c, 0, 84, 98
1, 603055, Note_on_c, 0, 72, 82
1, 603063, Control_c, 0, 64, 27
1, 603069, Note_on_c, 0, 63, 19
1, 603070, Note_on_c, 0, 62, 41
1, 603073, Note_on_c, 0, 83, 56
1, 603074, Note_off_c, 0, 72, 71
1, 603078, Note_on_c, 0, 57, 39
1, 603078, Control_c, 0, 64, 46
1, 603083, Note_off_c, 0, 84, 67
1, 603092, Control_c, 0, 64, 57
1, 603094, Note_off_c, 0, 83, 40
1, 603100, Note_off_c, 0, 62, 35
1, 603107, Control_c, 0, 64, 63
1, 603110, Note_off_c, 0, 63, 31
1, 603130, Control_c, 0, 64, 65
1, 603145, Control_c, 0, 64, 68
1, 603146, Note_off_c, 0, 69, 56
1, 603159, Control_c, 0, 64, 73
1, 603174, Control_c, 0, 64, 80
1, 603175, Note_off_c, 0, 57, 28
1, 603185, Note_off_c, 0, 64, 60
1, 603189, Control_c, 0, 64, 90
1, 603191, Note_off_c, 0, 55, 59
1, 603198, Note_on_c, 0, 88, 83
1, 603204, Control_c, 0, 64, 100
1, 603218, Note_off_c, 0, 88, 70
1, 603219, Control_c, 0, 64, 118
1, 603225, Note_off_c, 0, 61, 33
1, 603234, Control_c, 0, 64, 127
1, 603268, Note_on_c, 0, 76, 40
1, 603297, Note_on_c, 0, 64, 63
1, 603299, Note_off_c, 0, 76, 33
1, 603317, Note_off_c, 0, 64, 65
1, 603340, Note_on_c, 0, 61, 64
1, 603370, Note_off_c, 0, 61, 67
1, 603377, Note_on_c, 0, 73, 44
1, 603401, Note_off_c, 0, 73, 51
1, 603488, Note_on_c, 0, 52, 34
1, 603509, Note_on_c, 0, 76, 59
1, 603517, Note_on_c, 0, 73, 39
1, 603519, Note_off_c, 0, 52, 34
1, 603527, Note_off_c, 0, 76, 63
1, 603542, Note_off_c, 0, 73, 62
1, 603559, Note_on_c, 0, 64, 65
1, 603591, Note_on_c, 0, 52, 73
1, 603592, Note_off_c, 0, 64, 64
1, 603618, Note_off_c, 0, 52, 67
1, 603729, Poly_aftertouch_c, 0, 61, 0
1, 603793, Note_on_c, 0, 37, 70
1, 603829, Note_off_c, 0, 37, 65
1, 603840, Control_c, 0, 64, 94
1, 603853, Note_on_c, 0, 27, 90
1, 603855, Control_c, 0, 64, 70
1, 603878, Control_c, 0, 64, 51
1, 603885, Note_off_c, 0, 27, 66
1, 603893, Control_c, 0, 64, 31
1, 603908, Control_c, 0, 64, 23
1, 603922, Control_c, 0, 64, 22
1, 603937, Control_c, 0, 64, 16
1, 603952, Control_c, 0, 64, 0
1, 604013, Note_on_c, 0, 81, 67
1, 604030, Note_on_c, 0, 77, 51
1, 604036, Note_on_c, 0, 65, 61
1, 604036, Note_off_c, 0, 81, 68
1, 604042, Note_on_c, 0, 69, 33
1, 604045, Note_on_c, 0, 56, 52
1, 604050, Note_on_c, 0, 55, 76
1, 604054, Note_off_c, 0, 77, 36
1, 604057, Note_off_c, 0, 65, 41
1, 604073, Note_off_c, 0, 56, 59
1, 604074, Note_off_c, 0, 69, 34
1, 604080, Note_on_c, 0, 82, 77
1, 604089, Note_on_c, 0, 70, 69
1, 604090, Note_off_c, 0, 55, 65
1, 604099, Note_off_c, 0, 82, 70
1, 604106, Note_off_c, 0, 70, 67
1, 604302, Note_on_c, 0, 50, 56
1, 604304, Note_on_c, 0, 76, 70
1, 604324, Note_on_c, 0, 56, 47
1, 604326, Note_off_c, 0, 76, 68
1, 604328, Note_on_c, 0, 64, 37
1, 604329, Note_off_c, 0, 64, 127
1, 604334, Note_on_c, 0, 60, 45
1, 604339, Note_off_c, 0, 50, 64
1, 604352, Note_on_c, 0, 51, 66
1, 604352, Control_c, 0, 64, 21
1, 604357, Note_off_c, 0, 60, 55
1, 604358, Note_off_c, 0, 56, 65
1, 604367, Control_c, 0, 64, 37
1, 604378, Note_on_c, 0, 77, 70
1, 604382, Note_off_c, 0, 51, 64
1, 604382, Control_c, 0, 64, 48
1, 604397, Control_c, 0, 64, 54
1, 604407, Note_on_c, 0, 65, 23
1, 604411, Control_c, 0, 64, 57
1, 604426, Control_c, 0, 64, 60
1, 604441, Control_c, 0, 64, 63
1, 604456, Control_c, 0, 64, 66
1, 604471, Control_c, 0, 64, 70
1, 604486, Control_c, 0, 64, 76
1, 604501, Control_c, 0, 64, 82
1, 604516, Control_c, 0, 64, 89
1, 604523, Note_off_c, 0, 65, 35
1, 604526, Note_on_c, 0, 39, 59
1, 604531, Control_c, 0, 64, 95
1, 604545, Control_c, 0, 64, 101
1, 604560, Control_c, 0, 64, 108
1, 604570, Note_off_c, 0, 39, 62
1, 604575, Control_c, 0, 64, 118
1, 604589, Control_c, 0, 64, 127
1, 604596, Note_on_c, 0, 51, 56
1, 604627, Note_off_c, 0, 51, 62
1, 604725, Note_on_c, 0, 56, 41
1, 604814, Note_off_c, 0, 77, 60
1, 604827, Note_on_c, 0, 62, 61
1, 604829, Note_on_c, 0, 80, 68
1, 604840, Note_off_c, 0, 56, 63
1, 604841, Note_on_c, 0, 64, 53
1, 604841, Note_on_c, 0, 68, 62
1, 604847, Note_off_c, 0, 62, 60
1, 604849, Note_on_c, 0, 74, 39
1, 604849, Note_off_c, 0, 80, 65
1, 604850, Control_c, 0, 64, 118
1, 604859, Note_off_c, 0, 68, 64
1, 604864, Note_off_c, 0, 64, 59
1, 604864, Control_c, 0, 64, 80
1, 604877, Note_off_c, 0, 74, 52
1, 604879, Control_c, 0, 64, 63
1, 604894, Control_c, 0, 64, 48
1, 604894, Control_c, 0, 67, 10
1, 604909, Control_c, 0, 64, 36
1, 604909, Control_c, 0, 67, 15
1, 604924, Control_c, 0, 64, 29
1, 604924, Control_c, 0, 67, 19
1, 604939, Control_c, 0, 64, 22
1, 604939, Control_c, 0, 67, 23
1, 604954, Control_c, 0, 64, 0
1, 604954, Control_c, 0, 67, 26
1, 604968, Control_c, 0, 67, 29
1, 604983, Control_c, 0, 67, 32
1, 604998, Control_c, 0, 67, 35
1, 605012, Control_c, 0, 67, 38
1, 605027, Control_c, 0, 67, 44
1, 605042, Control_c, 0, 67, 48
1, 605057, Control_c, 0, 67, 53
1, 605072, Control_c, 0, 67, 59
1, 605087, Control_c, 0, 67, 64
1, 605101, Control_c, 0, 67, 70
1, 605116, Control_c, 0, 67, 74
1, 605131, Control_c, 0, 67, 77
1, 605146, Control_c, 0, 67, 80
1, 605160, Control_c, 0, 67, 84
1, 605175, Control_c, 0, 67, 88
1, 605190, Control_c, 0, 67, 93
1, 605205, Control_c, 0, 67, 98
1, 605219, Control_c, 0, 67, 103
1, 605234, Control_c, 0, 67, 110
1, 605249, Note_on_c, 0, 29, 75
1, 605249, Control_c, 0, 67, 118
1, 605264, Control_c, 0, 67, 126
1, 605274, Note_off_c, 0, 29, 66
1, 605279, Control_c, 0, 67, 127
1, 605300, Note_on_c, 0, 60, 62
1, 605318, Note_on_c, 0, 41, 55
1, 605318, Note_on_c, 0, 56, 38
1, 605319, Note_off_c, 0, 56, 47
1, 605334, Note_off_c, 0, 60, 58
1, 605345, Note_off_c, 0, 41, 36
1, 605369, Note_on_c, 0, 62, 70
1, 605373, Note_on_c, 0, 50, 65
1, 605377, Note_on_c, 0, 59, 71
1, 605410, Note_on_c, 0, 41, 53
1, 605435, Note_off_c, 0, 41, 60
1, 605468, Note_on_c, 0, 48, 68
1, 605501, Note_off_c, 0, 48, 62
1, 605521, Note_on_c, 0, 41, 58
1, 605561, Note_off_c, 0, 41, 63
1, 605616, Note_on_c, 0, 41, 68
1, 605646, Note_off_c, 0, 41, 65
1, 605673, Note_on_c, 0, 29, 82
1, 605706, Note_off_c, 0, 29, 67
1, 605727, Note_on_c, 0, 41, 64
1, 605756, Note_off_c, 0, 41, 64
1, 605828, Note_on_c, 0, 41, 55
1, 605856, Note_off_c, 0, 41, 37
1, 605884, Note_on_c, 0, 48, 72
1, 605917, Note_off_c, 0, 48, 62
1, 605948, Note_on_c, 0, 41, 56
1, 605954, Control_c, 0, 64, 10
1, 605969, Control_c, 0, 64, 12
1, 605983, Control_c, 0, 64, 13
1, 605986, Note_off_c, 0, 41, 63
1, 606013, Control_c, 0, 64, 12
1, 606028, Control_c, 0, 64, 12
1, 606042, Note_on_c, 0, 41, 53
1, 606072, Control_c, 0, 64, 11
1, 606084, Note_off_c, 0, 41, 60
1, 606087, Control_c, 0, 64, 10
1, 606090, Note_on_c, 0, 35, 62
1, 606139, Control_c, 0, 64, 12
1, 606154, Control_c, 0, 64, 13
1, 606164, Note_off_c, 0, 35, 60
1, 606165, Note_on_c, 0, 36, 59
1, 606168, Control_c, 0, 64, 15
1, 606183, Control_c, 0, 64, 19
1, 606198, Control_c, 0, 64, 22
1, 606213, Control_c, 0, 64, 24
1, 606218, Note_off_c, 0, 36, 61
1, 606228, Control_c, 0, 64, 24
1, 606236, Note_off_c, 0, 59, 61
1, 606238, Note_on_c, 0, 37, 60
1, 606255, Note_off_c, 0, 62, 61
1, 606257, Control_c, 0, 64, 24
1, 606269, Note_off_c, 0, 37, 65
1, 606272, Control_c, 0, 64, 23
1, 606272, Control_c, 0, 67, 127
1, 606287, Control_c, 0, 64, 22
1, 606287, Control_c, 0, 67, 126
1, 606292, Note_on_c, 0, 38, 65
1, 606302, Control_c, 0, 64, 22
1, 606302, Control_c, 0, 67, 125
1, 606316, Control_c, 0, 64, 21
1, 606316, Control_c, 0, 67, 125
1, 606322, Note_off_c, 0, 38, 64
1, 606324, Note_off_c, 0, 50, 60
1, 606331, Control_c, 0, 64, 21
1, 606331, Control_c, 0, 67, 124
1, 606346, Control_c, 0, 64, 20
1, 606346, Control_c, 0, 67, 123
1, 606361, Control_c, 0, 64, 19
1, 606361, Control_c, 0, 67, 122
1, 606370, Note_on_c, 0, 39, 73
1, 606376, Control_c, 0, 64, 16
1, 606392, Control_c, 0, 64, 10
1, 606392, Control_c, 0, 67, 121
1, 606406, Note_off_c, 0, 39, 66
1, 606406, Control_c, 0, 64, 0
1, 606406, Control_c, 0, 67, 121
1, 606436, Control_c, 0, 67, 121
1, 606444, Note_on_c, 0, 44, 67
1, 606465, Control_c, 0, 67, 122
1, 606466, Note_off_c, 0, 44, 39
1, 606480, Control_c, 0, 67, 123
1, 606522, Note_on_c, 0, 47, 70
1, 606525, Control_c, 0, 67, 123
1, 606555, Note_off_c, 0, 47, 63
1, 606584, Note_on_c, 0, 48, 75
1, 606614, Control_c, 0, 67, 123
1, 606616, Note_off_c, 0, 48, 63
1, 606650, Note_on_c, 0, 49, 64
1, 606658, Control_c, 0, 67, 122
1, 606673, Control_c, 0, 67, 122
1, 606678, Note_off_c, 0, 49, 65
1, 606688, Control_c, 0, 67, 121
1, 606703, Control_c, 0, 67, 120
1, 606706, Note_on_c, 0, 50, 74
1, 606718, Control_c, 0, 67, 120
1, 606732, Control_c, 0, 67, 118
1, 606747, Control_c, 0, 67, 115
1, 606762, Control_c, 0, 64, 18
1, 606762, Control_c, 0, 67, 110
1, 606764, Note_off_c, 0, 50, 57
1, 606777, Control_c, 0, 64, 31
1, 606777, Control_c, 0, 67, 104
1, 606785, Note_on_c, 0, 51, 64
1, 606792, Control_c, 0, 64, 40
1, 606792, Control_c, 0, 67, 97
1, 606807, Control_c, 0, 64, 47
1, 606807, Control_c, 0, 67, 90
1, 606822, Control_c, 0, 64, 50
1, 606822, Control_c, 0, 67, 83
1, 606826, Note_on_c, 0, 56, 64
1, 606837, Control_c, 0, 64, 52
1, 606837, Control_c, 0, 67, 77
1, 606843, Note_off_c, 0, 51, 58
1, 606852, Control_c, 0, 64, 53
1, 606852, Control_c, 0, 67, 74
1, 606873, Note_off_c, 0, 56, 66
1, 606874, Control_c, 0, 64, 54
1, 606886, Note_on_c, 0, 29, 65
1, 606889, Control_c, 0, 64, 55
1, 606915, Note_off_c, 0, 29, 63
1, 606933, Control_c, 0, 64, 55
1, 606948, Note_on_c, 0, 41, 54
1, 606948, Control_c, 0, 64, 54
1, 606963, Control_c, 0, 64, 52
1, 606963, Control_c, 0, 67, 74
1, 606970, Note_off_c, 0, 41, 56
1, 606978, Control_c, 0, 64, 48
1, 606978, Control_c, 0, 67, 73
1, 606984, Note_on_c, 0, 48, 86
1, 606992, Control_c, 0, 64, 45
1, 607006, Note_off_c, 0, 48, 66
1, 607007, Control_c, 0, 64, 40
1, 607007, Control_c, 0, 67, 72
1, 607020, Note_on_c, 0, 50, 36
1, 607021, Note_off_c, 0, 50, 127
1, 607022, Note_on_c, 0, 62, 42
1, 607022, Control_c, 0, 64, 33
1, 607037, Note_on_c, 0, 41, 56
1, 607037, Control_c, 0, 64, 17
1, 607052, Control_c, 0, 64, 0
1, 607052, Control_c, 0, 67, 73
1, 607058, Note_off_c, 0, 62, 0
1, 607058, Note_on_c, 0, 62, 18
1, 607058, Note_off_c, 0, 41, 54
1, 607079, Note_on_c, 0, 48, 61
1, 607088, Note_on_c, 0, 50, 21
1, 607089, Note_off_c, 0, 62, 58
1, 607116, Note_off_c, 0, 50, 41
1, 607123, Note_off_c, 0, 48, 62
1, 607155, Control_c, 0, 67, 72
1, 607159, Note_on_c, 0, 41, 53
1, 607170, Control_c, 0, 67, 72
1, 607186, Control_c, 0, 67, 71
1, 607192, Note_off_c, 0, 41, 65
1, 607215, Control_c, 0, 67, 71
1, 607230, Control_c, 0, 67, 71
1, 607235, Note_on_c, 0, 60, 71
1, 607245, Control_c, 0, 67, 72
1, 607260, Control_c, 0, 67, 73
1, 607275, Control_c, 0, 64, 20
1, 607275, Control_c, 0, 67, 75
1, 607279, Note_off_c, 0, 60, 62
1, 607288, Note_on_c, 0, 29, 74
1, 607289, Control_c, 0, 64, 42
1, 607289, Control_c, 0, 67, 76
1, 607291, Note_on_c, 0, 63, 73
1, 607304, Note_on_c, 0, 51, 79
1, 607304, Control_c, 0, 64, 53
1, 607304, Control_c, 0, 67, 77
1, 607309, Note_on_c, 0, 59, 56
1, 607319, Control_c, 0, 64, 57
1, 607327, Note_off_c, 0, 29, 64
1, 607334, Control_c, 0, 64, 59
1, 607334, Control_c, 0, 67, 77
1, 607349, Control_c, 0, 64, 61
1, 607349, Control_c, 0, 67, 77
1, 607363, Control_c, 0, 64, 63
1, 607375, Note_on_c, 0, 40, 25
1, 607376, Poly_aftertouch_c, 0, 41, 0
1, 607378, Control_c, 0, 64, 64
1, 607378, Control_c, 0, 67, 76
1, 607380, Note_off_c, 0, 63, 54
1, 607382, Note_off_c, 0, 51, 55
1, 607392, Note_off_c, 0, 40, 38
1, 607393, Control_c, 0, 64, 66
1, 607407, Control_c, 0, 64, 67
1, 607407, Control_c, 0, 67, 76
1, 607422, Control_c, 0, 64, 67
1, 607422, Control_c, 0, 67, 75
1, 607437, Control_c, 0, 64, 68
1, 607437, Control_c, 0, 67, 75
1, 607449, Note_on_c, 0, 41, 50
1, 607452, Control_c, 0, 64, 69
1, 607452, Control_c, 0, 67, 74
1, 607461, Note_off_c, 0, 59, 31
1, 607467, Control_c, 0, 64, 69
1, 607467, Control_c, 0, 67, 74
1, 607486, Note_off_c, 0, 41, 63
1, 607497, Control_c, 0, 67, 73
1, 607512, Control_c, 0, 67, 73
1, 607525, Note_on_c, 0, 48, 62
1, 607526, Control_c, 0, 67, 72
1, 607556, Note_off_c, 0, 48, 61
1, 607584, Note_on_c, 0, 60, 67
1, 607586, Control_c, 0, 67, 72
1, 607595, Note_on_c, 0, 41, 56
1, 607601, Control_c, 0, 67, 71
1, 607622, Control_c, 0, 64, 70
1, 607622, Control_c, 0, 67, 70
1, 607624, Note_on_c, 0, 56, 71
1, 607628, Note_off_c, 0, 41, 62
1, 607635, Note_on_c, 0, 48, 62
1, 607637, Control_c, 0, 67, 69
1, 607643, Note_off_c, 0, 60, 61
1, 607652, Control_c, 0, 64, 71
1, 607652, Control_c, 0, 67, 68
1, 607653, Note_off_c, 0, 56, 64
1, 607655, Note_off_c, 0, 48, 53
1, 607667, Control_c, 0, 64, 71
1, 607667, Control_c, 0, 67, 67
1, 607682, Control_c, 0, 64, 73
1, 607682, Control_c, 0, 67, 65
1, 607696, Control_c, 0, 64, 76
1, 607696, Control_c, 0, 67, 63
1, 607699, Note_on_c, 0, 41, 68
1, 607711, Control_c, 0, 64, 80
1, 607711, Control_c, 0, 67, 61
1, 607726, Control_c, 0, 64, 83
1, 607726, Control_c, 0, 67, 59
1, 607730, Note_off_c, 0, 41, 64
1, 607741, Control_c, 0, 64, 84
1, 607741, Control_c, 0, 67, 55
1, 607756, Note_on_c, 0, 29, 83
1, 607756, Control_c, 0, 67, 53
1, 607771, Control_c, 0, 64, 83
1, 607771, Control_c, 0, 67, 51
1, 607786, Control_c, 0, 64, 77
1, 607786, Control_c, 0, 67, 51
1, 607795, Note_off_c, 0, 29, 63
1, 607801, Control_c, 0, 64, 65
1, 607810, Note_on_c, 0, 72, 87
1, 607811, Note_on_c, 0, 60, 85
1, 607813, Note_on_c, 0, 41, 56
1, 607815, Control_c, 0, 64, 50
1, 607815, Control_c, 0, 67, 50
1, 607828, Note_off_c, 0, 72, 68
1, 607830, Control_c, 0, 64, 28
1, 607830, Control_c, 0, 67, 49
1, 607832, Note_off_c, 0, 60, 71
1, 607838, Note_off_c, 0, 41, 37
1, 607845, Control_c, 0, 64, 0
1, 607845, Control_c, 0, 67, 48
1, 607860, Control_c, 0, 67, 47
1, 607872, Note_on_c, 0, 74, 83
1, 607872, Note_on_c, 0, 71, 77
1, 607875, Note_on_c, 0, 62, 54
1, 607899, Note_on_c, 0, 41, 61
1, 607922, Note_off_c, 0, 41, 51
1, 607931, Note_on_c, 0, 43, 15
1, 607933, Control_c, 0, 64, 21
1, 607948, Control_c, 0, 64, 38
1, 607948, Control_c, 0, 67, 47
1, 607960, Note_on_c, 0, 48, 71
1, 607963, Control_c, 0, 64, 49
1, 607963, Control_c, 0, 67, 46
1, 607973, Note_off_c, 0, 43, 30
1, 607978, Control_c, 0, 64, 54
1, 607994, Control_c, 0, 64, 55
1, 607994, Control_c, 0, 67, 45
1, 607996, Note_off_c, 0, 48, 62
1, 608009, Control_c, 0, 64, 55
1, 608009, Control_c, 0, 67, 44
1, 608024, Control_c, 0, 64, 56
1, 608024, Control_c, 0, 67, 42
1, 608027, Note_on_c, 0, 41, 54
1, 608038, Control_c, 0, 64, 57
1, 608038, Control_c, 0, 67, 39
1, 608053, Control_c, 0, 64, 59
1, 608053, Control_c, 0, 67, 35
1, 608068, Note_off_c, 0, 41, 66
1, 608068, Control_c, 0, 64, 61
1, 608068, Control_c, 0, 67, 32
1, 608083, Control_c, 0, 64, 61
1, 608083, Control_c, 0, 67, 30
1, 608098, Control_c, 0, 64, 62
1, 608098, Control_c, 0, 67, 28
1, 608112, Control_c, 0, 64, 63
1, 608112, Control_c, 0, 67, 27
1, 608121, Note_on_c, 0, 41, 67
1, 608127, Control_c, 0, 64, 64
1, 608127, Control_c, 0, 67, 25
1, 608142, Control_c, 0, 64, 64
1, 608142, Control_c, 0, 67, 23
1, 608156, Control_c, 0, 64, 65
1, 608156, Control_c, 0, 67, 20
1, 608162, Note_off_c, 0, 41, 65
1, 608171, Control_c, 0, 64, 66
1, 608171, Control_c, 0, 67, 17
1, 608186, Control_c, 0, 64, 67
1, 608186, Control_c, 0, 67, 14
1, 608187, Note_off_c, 0, 74, 60
1, 608192, Note_on_c, 0, 35, 71
1, 608201, Control_c, 0, 67, 13
1, 608209, Note_off_c, 0, 71, 64
1, 608216, Control_c, 0, 67, 12
1, 608230, Control_c, 0, 67, 11
1, 608245, Control_c, 0, 64, 66
1, 608252, Note_off_c, 0, 62, 60
1, 608257, Note_off_c, 0, 35, 60
1, 608257, Note_on_c, 0, 36, 59
1, 608260, Control_c, 0, 64, 63
1, 608275, Control_c, 0, 64, 58
1, 608290, Control_c, 0, 64, 52
1, 608290, Control_c, 0, 67, 12
1, 608304, Control_c, 0, 64, 49
1, 608308, Note_off_c, 0, 36, 61
1, 608319, Control_c, 0, 67, 12
1, 608334, Control_c, 0, 67, 13
1, 608334, Note_on_c, 0, 37, 65
1, 608349, Control_c, 0, 67, 14
1, 608370, Control_c, 0, 67, 15
1, 608373, Note_off_c, 0, 37, 65
1, 608385, Control_c, 0, 67, 16
1, 608394, Note_on_c, 0, 38, 68
1, 608415, Control_c, 0, 64, 48
1, 608425, Note_off_c, 0, 38, 63
1, 608430, Control_c, 0, 64, 47
1, 608445, Control_c, 0, 64, 44
1, 608459, Control_c, 0, 64, 40
1, 608464, Note_on_c, 0, 39, 70
1, 608474, Control_c, 0, 64, 34
1, 608489, Control_c, 0, 64, 26
1, 608503, Note_off_c, 0, 39, 64
1, 608504, Control_c, 0, 64, 0
1, 608504, Control_c, 0, 67, 16
1, 608534, Note_on_c, 0, 44, 83
1, 608556, Note_off_c, 0, 44, 68
1, 608578, Control_c, 0, 67, 17
1, 608608, Control_c, 0, 67, 17
1, 608618, Note_on_c, 0, 47, 80
1, 608623, Control_c, 0, 67, 18
1, 608652, Control_c, 0, 67, 18
1, 608667, Control_c, 0, 67, 19
1, 608675, Note_off_c, 0, 47, 56
1, 608683, Note_on_c, 0, 48, 79
1, 608718, Note_off_c, 0, 48, 66
1, 608743, Note_on_c, 0, 49, 69
1, 608778, Note_off_c, 0, 49, 63
1, 608807, Note_on_c, 0, 50, 75
1, 608816, Control_c, 0, 67, 18
1, 608831, Control_c, 0, 67, 18
1, 608874, Note_off_c, 0, 50, 60
1, 608877, Note_on_c, 0, 51, 71
1, 608890, Control_c, 0, 64, 26
1, 608905, Control_c, 0, 64, 38
1, 608920, Control_c, 0, 64, 47
1, 608927, Note_on_c, 0, 56, 62
1, 608931, Note_off_c, 0, 51, 60
1, 608934, Control_c, 0, 64, 54
1, 608949, Control_c, 0, 64, 57
1, 608964, Note_off_c, 0, 56, 64
1, 608964, Control_c, 0, 64, 59
1, 608978, Control_c, 0, 64, 60
1, 608978, Control_c, 0, 67, 17
1, 608990, Note_on_c, 0, 29, 61
1, 608993, Control_c, 0, 64, 61
1, 608993, Control_c, 0, 67, 17
1, 609008, Control_c, 0, 67, 16
1, 609018, Note_off_c, 0, 29, 65
1, 609023, Control_c, 0, 67, 16
1, 609038, Control_c, 0, 64, 60
1, 609039, Note_on_c, 0, 41, 41
1, 609053, Control_c, 0, 64, 57
1, 609053, Control_c, 0, 67, 15
1, 609062, Note_off_c, 0, 41, 36
1, 609068, Control_c, 0, 64, 53
1, 609079, Note_on_c, 0, 48, 76
1, 609082, Control_c, 0, 64, 49
1, 609090, Note_on_c, 0, 58, 55
1, 609094, Note_on_c, 0, 60, 49
1, 609097, Note_on_c, 0, 50, 47
1, 609097, Note_on_c, 0, 59, 39
1, 609097, Control_c, 0, 64, 47
1, 609112, Note_off_c, 0, 48, 62
1, 609120, Control_c, 0, 64, 46
1, 609123, Note_on_c, 0, 41, 53
1, 609123, Note_off_c, 0, 58, 36
1, 609127, Note_off_c, 0, 60, 37
1, 609134, Note_off_c, 0, 50, 35
1, 609134, Control_c, 0, 64, 44
1, 609134, Control_c, 0, 67, 16
1, 609136, Note_off_c, 0, 59, 33
1, 609149, Control_c, 0, 64, 40
1, 609149, Control_c, 0, 67, 17
1, 609154, Note_on_c, 0, 62, 76
1, 609156, Note_on_c, 0, 51, 94
1, 609156, Note_off_c, 0, 41, 65
1, 609164, Control_c, 0, 64, 33
1, 609164, Control_c, 0, 67, 18
1, 609172, Note_on_c, 0, 48, 79
1, 609178, Note_off_c, 0, 62, 68
1, 609179, Control_c, 0, 64, 24
1, 609179, Control_c, 0, 67, 18
1, 609185, Note_off_c, 0, 51, 61
1, 609193, Control_c, 0, 64, 19
1, 609208, Note_off_c, 0, 48, 66
1, 609208, Control_c, 0, 64, 19
1, 609223, Control_c, 0, 64, 17
1, 609238, Control_c, 0, 64, 15
1, 609253, Note_on_c, 0, 41, 67
1, 609253, Control_c, 0, 64, 12
1, 609267, Control_c, 0, 64, 8
1, 609282, Control_c, 0, 64, 0
1, 609288, Note_on_c, 0, 40, 38
1, 609291, Note_off_c, 0, 41, 64
1, 609309, Note_off_c, 0, 40, 37
1, 609346, Note_on_c, 0, 41, 79
1, 609354, Note_on_c, 0, 60, 76
1, 609375, Note_on_c, 0, 50, 53
1, 609378, Note_off_c, 0, 41, 67
1, 609400, Note_off_c, 0, 50, 50
1, 609407, Note_off_c, 0, 60, 0
1, 609416, Note_on_c, 0, 29, 85
1, 609419, Note_on_c, 0, 64, 85
1, 609421, Note_on_c, 0, 52, 83
1, 609421, Note_on_c, 0, 59, 52
1, 609422, Note_on_c, 0, 60, 44
1, 609431, Control_c, 0, 67, 18
1, 609446, Control_c, 0, 64, 22
1, 609449, Note_off_c, 0, 29, 67
1, 609455, Note_on_c, 0, 41, 78
1, 609458, Note_off_c, 0, 60, 63
1, 609460, Control_c, 0, 64, 41
1, 609475, Control_c, 0, 64, 54
1, 609481, Note_off_c, 0, 41, 65
1, 609490, Control_c, 0, 64, 59
1, 609496, Note_off_c, 0, 64, 55
1, 609504, Control_c, 0, 64, 61
1, 609504, Control_c, 0, 67, 17
1, 609519, Control_c, 0, 64, 63
1, 609534, Control_c, 0, 64, 64
1, 609548, Note_on_c, 0, 41, 60
1, 609549, Control_c, 0, 64, 65
1, 609564, Control_c, 0, 64, 66
1, 609573, Note_on_c, 0, 40, 40
1, 609573, Note_off_c, 0, 52, 24
1, 609580, Control_c, 0, 64, 68
1, 609589, Note_off_c, 0, 41, 65
1, 609595, Control_c, 0, 64, 69
1, 609595, Note_off_c, 0, 40, 37
1, 609604, Note_off_c, 0, 59, 43
1, 609609, Control_c, 0, 64, 71
1, 609609, Control_c, 0, 67, 17
1, 609624, Note_on_c, 0, 48, 68
1, 609624, Control_c, 0, 64, 72
1, 609624, Control_c, 0, 67, 16
1, 609639, Control_c, 0, 64, 72
1, 609639, Control_c, 0, 67, 16
1, 609646, Note_on_c, 0, 47, 56
1, 609654, Control_c, 0, 64, 73
1, 609654, Control_c, 0, 67, 15
1, 609660, Note_off_c, 0, 48, 63
1, 609667, Note_off_c, 0, 47, 51
1, 609669, Control_c, 0, 67, 14
1, 609683, Control_c, 0, 67, 14
1, 609691, Note_on_c, 0, 41, 61
1, 609698, Control_c, 0, 67, 13
1, 609711, Note_on_c, 0, 40, 44
1, 609714, Note_on_c, 0, 60, 74
1, 609721, Note_off_c, 0, 41, 68
1, 609742, Control_c, 0, 67, 13
1, 609744, Note_off_c, 0, 40, 34
1, 609759, Note_on_c, 0, 56, 67
1, 609772, Control_c, 0, 64, 73
1, 609786, Note_on_c, 0, 41, 77
1, 609786, Note_on_c, 0, 48, 66
1, 609788, Control_c, 0, 64, 74
1, 609802, Control_c, 0, 64, 75
1, 609804, Note_off_c, 0, 56, 66
1, 609804, Note_off_c, 0, 60, 62
1, 609815, Note_off_c, 0, 41, 66
1, 609817, Control_c, 0, 64, 78
1, 609818, Note_off_c, 0, 48, 63
1, 609832, Control_c, 0, 64, 83
1, 609847, Control_c, 0, 64, 87
1, 609863, Note_on_c, 0, 29, 70
1, 609869, Control_c, 0, 64, 90
1, 609869, Control_c, 0, 67, 12
1, 609881, Note_on_c, 0, 28, 48
1, 609882, Note_off_c, 0, 28, 127
1, 609890, Note_off_c, 0, 29, 64
1, 609899, Control_c, 0, 64, 88
1, 609908, Note_on_c, 0, 41, 54
1, 609914, Control_c, 0, 64, 79
1, 609929, Control_c, 0, 64, 67
1, 609930, Note_off_c, 0, 41, 57
1, 609936, Note_on_c, 0, 53, 87
1, 609941, Note_on_c, 0, 65, 81
1, 609943, Control_c, 0, 64, 50
1, 609956, Note_on_c, 0, 55, 57
1, 609958, Control_c, 0, 64, 35
1, 609962, Note_off_c, 0, 53, 68
1, 609962, Note_off_c, 0, 65, 70
1, 609973, Control_c, 0, 64, 31
1, 609981, Note_off_c, 0, 55, 37
1, 609988, Control_c, 0, 67, 13
1, 609992, Note_on_c, 0, 64, 57
1, 609995, Note_on_c, 0, 67, 80
1, 609996, Note_on_c, 0, 46, 59
1, 610002, Control_c, 0, 64, 31
1, 610003, Note_on_c, 0, 55, 78
1, 610021, Note_off_c, 0, 46, 58
1, 610032, Control_c, 0, 64, 32
1, 610032, Control_c, 0, 67, 13
1, 610038, Note_on_c, 0, 53, 71
1, 610047, Control_c, 0, 64, 35
1, 610062, Control_c, 0, 64, 42
1, 610077, Control_c, 0, 64, 48
1, 610078, Note_off_c, 0, 53, 61
1, 610091, Control_c, 0, 64, 51
1, 610091, Control_c, 0, 67, 13
1, 610106, Note_on_c, 0, 46, 75
1, 610106, Control_c, 0, 64, 53
1, 610121, Control_c, 0, 64, 54
1, 610134, Note_off_c, 0, 46, 65
1, 610135, Control_c, 0, 64, 55
1, 610165, Control_c, 0, 64, 55
1, 610180, Control_c, 0, 64, 54
1, 610192, Note_on_c, 0, 41, 75
1, 610195, Control_c, 0, 64, 53
1, 610238, Note_off_c, 0, 41, 63
1, 610239, Control_c, 0, 64, 54
1, 610254, Control_c, 0, 64, 55
1, 610267, Note_on_c, 0, 29, 83
1, 610269, Control_c, 0, 64, 56
1, 610284, Control_c, 0, 64, 58
1, 610284, Control_c, 0, 67, 13
1, 610297, Note_off_c, 0, 29, 67
1, 610299, Control_c, 0, 64, 60
1, 610314, Control_c, 0, 64, 61
1, 610326, Note_on_c, 0, 41, 58
1, 610328, Control_c, 0, 64, 62
1, 610349, Note_off_c, 0, 41, 62
1, 610358, Control_c, 0, 64, 62
1, 610373, Control_c, 0, 64, 63
1, 610388, Control_c, 0, 64, 63
1, 610403, Control_c, 0, 64, 64
1, 610412, Note_on_c, 0, 46, 77
1, 610418, Control_c, 0, 64, 64
1, 610418, Control_c, 0, 67, 13
1, 610433, Control_c, 0, 64, 65
1, 610442, Note_off_c, 0, 46, 64
1, 610448, Control_c, 0, 64, 66
1, 610448, Control_c, 0, 67, 12
1, 610463, Control_c, 0, 64, 67
1, 610478, Control_c, 0, 64, 67
1, 610478, Note_on_c, 0, 53, 73
1, 610507, Control_c, 0, 67, 12
1, 610507, Note_off_c, 0, 53, 66
1, 610522, Control_c, 0, 64, 67
1, 610525, Note_on_c, 0, 52, 31
1, 610537, Control_c, 0, 64, 64
1, 610549, Note_on_c, 0, 46, 75
1, 610551, Control_c, 0, 64, 60
1, 610561, Note_off_c, 0, 52, 33
1, 610566, Control_c, 0, 64, 55
1, 610573, Note_off_c, 0, 46, 67
1, 610581, Control_c, 0, 64, 52
1, 610581, Control_c, 0, 67, 11
1, 610596, Control_c, 0, 64, 49
1, 610596, Control_c, 0, 67, 11
1, 610618, Control_c, 0, 64, 45
1, 610633, Control_c, 0, 64, 40
1, 610637, Note_on_c, 0, 41, 77
1, 610647, Control_c, 0, 64, 32
1, 610662, Control_c, 0, 64, 28
1, 610671, Note_off_c, 0, 41, 67
1, 610677, Control_c, 0, 64, 29
1, 610692, Control_c, 0, 64, 31
1, 610699, Note_on_c, 0, 40, 72
1, 610707, Control_c, 0, 64, 39
1, 610707, Control_c, 0, 67, 10
1, 610722, Control_c, 0, 64, 48
1, 610722, Control_c, 0, 67, 10
1, 610737, Control_c, 0, 64, 54
1, 610737, Control_c, 0, 67, 9
1, 610752, Control_c, 0, 64, 54
1, 610752, Control_c, 0, 67, 0
1, 610758, Note_off_c, 0, 64, 63
1, 610766, Note_off_c, 0, 67, 59
1, 610766, Control_c, 0, 64, 51
1, 610767, Note_on_c, 0, 41, 69
1, 610781, Control_c, 0, 64, 46
1, 610784, Note_off_c, 0, 40, 56
1, 610796, Control_c, 0, 64, 41
1, 610811, Control_c, 0, 64, 38
1, 610811, Note_off_c, 0, 41, 61
1, 610822, Note_on_c, 0, 42, 76
1, 610826, Control_c, 0, 64, 34
1, 610834, Note_off_c, 0, 55, 60
1, 610840, Control_c, 0, 64, 29
1, 610855, Control_c, 0, 64, 21
1, 610856, Note_off_c, 0, 42, 68
1, 610870, Control_c, 0, 64, 0
1, 610901, Note_on_c, 0, 43, 62
1, 610925, Note_off_c, 0, 43, 61
1, 610958, Note_on_c, 0, 44, 74
1, 610988, Note_off_c, 0, 44, 65
1, 611018, Control_c, 0, 67, 8
1, 611020, Note_on_c, 0, 49, 79
1, 611032, Control_c, 0, 67, 8
1, 611044, Note_off_c, 0, 49, 67
1, 611047, Control_c, 0, 67, 9
1, 611092, Control_c, 0, 67, 9
1, 611095, Note_on_c, 0, 52, 79
1, 611135, Note_off_c, 0, 52, 58
1, 611136, Control_c, 0, 67, 10
1, 611151, Control_c, 0, 67, 10
1, 611163, Note_on_c, 0, 53, 78
1, 611196, Note_off_c, 0, 53, 63
1, 611211, Control_c, 0, 67, 10
1, 611226, Note_on_c, 0, 54, 74
1, 611259, Note_off_c, 0, 54, 67
1, 611270, Control_c, 0, 67, 10
1, 611292, Note_on_c, 0, 55, 74
1, 611315, Control_c, 0, 67, 10
1, 611330, Control_c, 0, 67, 9
1, 611345, Control_c, 0, 67, 9
1, 611361, Note_on_c, 0, 56, 69
1, 611365, Note_off_c, 0, 55, 63
1, 611367, Control_c, 0, 67, 8
1, 611381, Control_c, 0, 67, 8
1, 611396, Control_c, 0, 67, 0
1, 611411, Control_c, 0, 64, 10
1, 611416, Note_on_c, 0, 61, 67
1, 611422, Note_off_c, 0, 56, 63
1, 611426, Control_c, 0, 64, 22
1, 611441, Control_c, 0, 64, 27
1, 611452, Note_off_c, 0, 61, 67
1, 611455, Control_c, 0, 64, 29
1, 611466, Note_on_c, 0, 29, 72
1, 611470, Control_c, 0, 64, 30
1, 611485, Control_c, 0, 64, 31
1, 611497, Note_off_c, 0, 29, 63
1, 611500, Control_c, 0, 64, 32
1, 611506, Note_on_c, 0, 41, 74
1, 611530, Control_c, 0, 64, 31
1, 611531, Note_off_c, 0, 41, 67
1, 611570, Note_on_c, 0, 53, 87
1, 611584, Note_on_c, 0, 64, 57
1, 611585, Note_on_c, 0, 67, 68
1, 611589, Control_c, 0, 64, 30
1, 611589, Note_off_c, 0, 53, 69
1, 611592, Note_on_c, 0, 55, 50
1, 611593, Note_off_c, 0, 55, 127
1, 611603, Note_off_c, 0, 67, 67
1, 611604, Control_c, 0, 64, 29
1, 611607, Note_on_c, 0, 46, 67
1, 611607, Note_off_c, 0, 64, 38
1, 611619, Control_c, 0, 64, 28
1, 611620, Note_on_c, 0, 65, 3
1, 611625, Note_off_c, 0, 65, 41
1, 611634, Control_c, 0, 64, 28
1, 611637, Note_on_c, 0, 67, 78
1, 611638, Note_off_c, 0, 46, 65
1, 611639, Note_on_c, 0, 55, 72
1, 611649, Control_c, 0, 64, 27
1, 611653, Note_on_c, 0, 53, 69
1, 611663, Control_c, 0, 64, 26
1, 611666, Note_off_c, 0, 67, 63
1, 611668, Poly_aftertouch_c, 0, 63, 0
1, 611671, Note_off_c, 0, 55, 65
1, 611678, Control_c, 0, 64, 24
1, 611693, Control_c, 0, 64, 23
1, 611703, Note_off_c, 0, 53, 64
1, 611722, Control_c, 0, 64, 22
1, 611729, Note_on_c, 0, 46, 65
1, 611737, Control_c, 0, 64, 17
1, 611752, Control_c, 0, 64, 0
1, 611756, Note_off_c, 0, 46, 66
1, 611815, Note_on_c, 0, 53, 82
1, 611822, Note_on_c, 0, 65, 70
1, 611824, Note_on_c, 0, 41, 77
1, 611841, Control_c, 0, 64, 20
1, 611842, Note_off_c, 0, 53, 68
1, 611846, Note_off_c, 0, 65, 65
1, 611848, Note_off_c, 0, 41, 67
1, 611855, Control_c, 0, 64, 40
1, 611870, Control_c, 0, 64, 53
1, 611872, Note_on_c, 0, 64, 80
1, 611873, Note_on_c, 0, 68, 89
1, 611876, Note_on_c, 0, 56, 92
1, 611882, Note_on_c, 0, 29, 76
1, 611885, Control_c, 0, 64, 57
1, 611899, Control_c, 0, 64, 59
1, 611914, Note_off_c, 0, 29, 64
1, 611914, Control_c, 0, 64, 61
1, 611915, Note_on_c, 0, 41, 65
1, 611924, Note_on_c, 0, 40, 46
1, 611929, Control_c, 0, 64, 63
1, 611935, Note_off_c, 0, 41, 40
1, 611944, Control_c, 0, 64, 65
1, 611950, Note_off_c, 0, 68, 60
1, 611956, Note_off_c, 0, 40, 36
1, 611959, Control_c, 0, 64, 68
1, 611975, Control_c, 0, 64, 70
1, 611983, Note_off_c, 0, 56, 61
1, 611990, Control_c, 0, 64, 73
1, 612004, Control_c, 0, 64, 75
1, 612019, Control_c, 0, 64, 77
1, 612022, Note_on_c, 0, 46, 48
1, 612034, Control_c, 0, 64, 79
1, 612046, Note_off_c, 0, 46, 46
1, 612048, Control_c, 0, 64, 81
1, 612063, Control_c, 0, 64, 82
1, 612078, Control_c, 0, 64, 83
1, 612083, Note_on_c, 0, 53, 52
1, 612093, Control_c, 0, 64, 84
1, 612103, Note_off_c, 0, 64, 20
1, 612107, Note_on_c, 0, 52, 58
1, 612115, Control_c, 0, 64, 85
1, 612118, Note_off_c, 0, 53, 57
1, 612129, Control_c, 0, 64, 86
1, 612130, Note_off_c, 0, 52, 58
1, 612144, Control_c, 0, 64, 87
1, 612159, Note_on_c, 0, 46, 44
1, 612159, Control_c, 0, 64, 88
1, 612174, Control_c, 0, 64, 90
1, 612178, Note_on_c, 0, 65, 77
1, 612183, Note_off_c, 0, 46, 37
1, 612189, Control_c, 0, 64, 91
1, 612203, Control_c, 0, 64, 93
1, 612206, Note_on_c, 0, 61, 72
1, 612216, Note_on_c, 0, 53, 67
1, 612218, Control_c, 0, 64, 95
1, 612233, Control_c, 0, 64, 98
1, 612235, Note_off_c, 0, 65, 63
1, 612248, Control_c, 0, 64, 103
1, 612251, Note_off_c, 0, 61, 64
1, 612251, Note_off_c, 0, 53, 65
1, 612263, Control_c, 0, 64, 112
1, 612264, Note_on_c, 0, 41, 64
1, 612272, Note_on_c, 0, 40, 51
1, 612278, Control_c, 0, 64, 127
1, 612296, Note_off_c, 0, 41, 65
1, 612301, Note_off_c, 0, 40, 61
1, 612326, Note_on_c, 0, 29, 79
1, 612362, Note_off_c, 0, 29, 63
1, 612367, Note_on_c, 0, 40, 56
1, 612382, Control_c, 0, 64, 91
1, 612385, Note_on_c, 0, 65, 96
1, 612388, Note_on_c, 0, 77, 91
1, 612392, Note_off_c, 0, 40, 38
1, 612397, Control_c, 0, 64, 69
1, 612405, Note_off_c, 0, 77, 72
1, 612406, Note_on_c, 0, 73, 57
1, 612409, Note_off_c, 0, 65, 63
1, 612411, Control_c, 0, 64, 51
1, 612426, Control_c, 0, 64, 32
1, 612427, Note_off_c, 0, 73, 40
1, 612441, Control_c, 0, 64, 20
1, 612446, Note_on_c, 0, 76, 77
1, 612446, Note_on_c, 0, 79, 91
1, 612451, Note_on_c, 0, 46, 70
1, 612455, Control_c, 0, 64, 14
1, 612458, Note_on_c, 0, 67, 85
1, 612470, Control_c, 0, 64, 0
1, 612475, Note_off_c, 0, 46, 63
1, 612500, Note_on_c, 0, 53, 77
1, 612540, Note_off_c, 0, 53, 66
1, 612559, Control_c, 0, 64, 16
1, 612574, Control_c, 0, 64, 33
1, 612587, Note_on_c, 0, 46, 56
1, 612589, Control_c, 0, 64, 43
1, 612603, Control_c, 0, 64, 51
1, 612612, Note_off_c, 0, 46, 66
1, 612618, Control_c, 0, 64, 55
1, 612633, Control_c, 0, 64, 55
1, 612648, Control_c, 0, 64, 54
1, 612663, Control_c, 0, 64, 49
1, 612666, Note_on_c, 0, 41, 78
1, 612677, Control_c, 0, 64, 37
1, 612692, Control_c, 0, 64, 25
1, 612700, Note_off_c, 0, 41, 69
1, 612707, Control_c, 0, 64, 16
1, 612722, Control_c, 0, 64, 17
1, 612737, Control_c, 0, 64, 28
1, 612737, Note_on_c, 0, 40, 78
1, 612743, Note_off_c, 0, 79, 61
1, 612752, Control_c, 0, 64, 43
1, 612767, Control_c, 0, 64, 55
1, 612770, Note_off_c, 0, 76, 61
1, 612783, Control_c, 0, 64, 61
1, 612791, Note_off_c, 0, 67, 58
1, 612798, Control_c, 0, 64, 63
1, 612803, Note_on_c, 0, 41, 75
1, 612813, Control_c, 0, 64, 63
1, 612827, Control_c, 0, 64, 64
1, 612829, Note_off_c, 0, 40, 62
1, 612850, Control_c, 0, 64, 65
1, 612865, Control_c, 0, 64, 65
1, 612874, Note_on_c, 0, 42, 75
1, 612879, Note_off_c, 0, 41, 63
1, 612879, Control_c, 0, 64, 66
1, 612894, Control_c, 0, 64, 66
1, 612907, Note_off_c, 0, 42, 69
1, 612909, Control_c, 0, 64, 67
1, 612924, Control_c, 0, 64, 67
1, 612928, Note_on_c, 0, 43, 79
1, 612958, Note_off_c, 0, 43, 68
1, 613002, Note_on_c, 0, 44, 94
1, 613035, Note_off_c, 0, 44, 63
1, 613070, Note_on_c, 0, 49, 87
1, 613072, Control_c, 0, 64, 67
1, 613086, Control_c, 0, 64, 64
1, 613092, Note_off_c, 0, 49, 68
1, 613101, Control_c, 0, 64, 56
1, 613116, Control_c, 0, 64, 43
1, 613131, Control_c, 0, 64, 22
1, 613140, Note_on_c, 0, 52, 89
1, 613146, Control_c, 0, 64, 0
1, 613209, Note_on_c, 0, 53, 87
1, 613216, Note_off_c, 0, 52, 61
1, 613235, Control_c, 0, 64, 20
1, 613250, Control_c, 0, 64, 32
1, 613260, Note_off_c, 0, 53, 59
1, 613265, Control_c, 0, 64, 41
1, 613269, Note_on_c, 0, 54, 85
1, 613279, Control_c, 0, 64, 49
1, 613294, Control_c, 0, 64, 54
1, 613309, Control_c, 0, 64, 57
1, 613323, Note_off_c, 0, 54, 64
1, 613324, Control_c, 0, 64, 58
1, 613332, Note_on_c, 0, 55, 87
1, 613339, Control_c, 0, 64, 60
1, 613353, Control_c, 0, 64, 61
1, 613368, Control_c, 0, 64, 63
1, 613383, Control_c, 0, 64, 64
1, 613398, Control_c, 0, 64, 65
1, 613408, Note_on_c, 0, 56, 75
1, 613413, Control_c, 0, 64, 66
1, 613417, Note_off_c, 0, 55, 62
1, 613427, Control_c, 0, 64, 68
1, 613442, Control_c, 0, 64, 70
1, 613444, Note_on_c, 0, 61, 70
1, 613457, Control_c, 0, 64, 71
1, 613458, Note_off_c, 0, 56, 55
1, 613469, Note_off_c, 0, 61, 66
1, 613471, Control_c, 0, 64, 72
1, 613501, Note_on_c, 0, 29, 62
1, 613501, Control_c, 0, 64, 73
1, 613515, Note_on_c, 0, 28, 54
1, 613533, Note_off_c, 0, 29, 64
1, 613535, Note_on_c, 0, 41, 72
1, 613545, Control_c, 0, 64, 74
1, 613551, Note_off_c, 0, 28, 35
1, 613560, Control_c, 0, 64, 75
1, 613563, Note_off_c, 0, 41, 64
1, 613574, Note_on_c, 0, 53, 86
1, 613575, Note_on_c, 0, 64, 84
1, 613576, Control_c, 0, 64, 76
1, 613587, Note_on_c, 0, 55, 66
1, 613591, Control_c, 0, 64, 78
1, 613594, Note_off_c, 0, 64, 72
1, 613596, Note_off_c, 0, 53, 69
1, 613613, Control_c, 0, 64, 81
1, 613615, Note_off_c, 0, 55, 62
1, 613628, Control_c, 0, 64, 83
1, 613636, Note_on_c, 0, 46, 82
1, 613643, Control_c, 0, 64, 84
1, 613647, Note_on_c, 0, 68, 90
1, 613650, Note_on_c, 0, 56, 93
1, 613655, Note_on_c, 0, 64, 81
1, 613658, Control_c, 0, 64, 84
1, 613658, Note_on_c, 0, 58, 76
1, 613665, Note_off_c, 0, 46, 65
1, 613673, Control_c, 0, 64, 85
1, 613675, Note_off_c, 0, 64, 71
1, 613676, Note_off_c, 0, 58, 66
1, 613685, Note_on_c, 0, 53, 63
1, 613686, Note_off_c, 0, 56, 65
1, 613695, Note_off_c, 0, 68, 62
1, 613702, Control_c, 0, 64, 85
1, 613730, Note_off_c, 0, 53, 64
1, 613732, Control_c, 0, 64, 86
1, 613747, Control_c, 0, 64, 87
1, 613762, Control_c, 0, 64, 89
1, 613763, Note_on_c, 0, 46, 77
1, 613776, Control_c, 0, 64, 90
1, 613791, Control_c, 0, 64, 91
1, 613795, Note_off_c, 0, 46, 65
1, 613798, Note_on_c, 0, 44, 38
1, 613806, Control_c, 0, 64, 92
1, 613821, Control_c, 0, 64, 91
1, 613825, Note_off_c, 0, 44, 43
1, 613836, Control_c, 0, 64, 81
1, 613847, Note_on_c, 0, 65, 87
1, 613850, Control_c, 0, 64, 64
1, 613853, Note_on_c, 0, 53, 78
1, 613860, Note_on_c, 0, 55, 67
1, 613865, Control_c, 0, 64, 33
1, 613867, Note_on_c, 0, 41, 69
1, 613871, Note_off_c, 0, 53, 66
1, 613874, Note_off_c, 0, 65, 67
1, 613877, Note_off_c, 0, 55, 67
1, 613879, Note_on_c, 0, 61, 36
1, 613880, Control_c, 0, 64, 0
1, 613881, Note_on_c, 0, 40, 67
1, 613896, Note_off_c, 0, 41, 63
1, 613904, Note_on_c, 0, 64, 87
1, 613911, Note_off_c, 0, 40, 63
1, 613913, Note_on_c, 0, 57, 96
1, 613914, Note_on_c, 0, 69, 94
1, 613914, Note_off_c, 0, 61, 37
1, 613923, Note_on_c, 0, 65, 60
1, 613924, Note_on_c, 0, 29, 86
1, 613939, Control_c, 0, 64, 45
1, 613944, Note_off_c, 0, 65, 64
1, 613954, Control_c, 0, 64, 61
1, 613956, Note_off_c, 0, 29, 66
1, 613969, Control_c, 0, 64, 66
1, 613971, Note_on_c, 0, 41, 58
1, 613983, Control_c, 0, 64, 71
1, 613995, Note_on_c, 0, 40, 26
1, 613996, Note_off_c, 0, 41, 58
1, 613998, Control_c, 0, 64, 79
1, 614013, Control_c, 0, 64, 86
1, 614027, Note_off_c, 0, 40, 44
1, 614028, Control_c, 0, 64, 91
1, 614034, Note_off_c, 0, 69, 58
1, 614043, Control_c, 0, 64, 96
1, 614058, Control_c, 0, 64, 100
1, 614073, Control_c, 0, 64, 104
1, 614075, Note_on_c, 0, 46, 72
1, 614087, Control_c, 0, 64, 109
1, 614102, Control_c, 0, 64, 115
1, 614105, Note_off_c, 0, 46, 66
1, 614108, Note_off_c, 0, 64, 48
1, 614117, Control_c, 0, 64, 118
1, 614132, Note_on_c, 0, 52, 82
1, 614132, Control_c, 0, 64, 122
1, 614147, Control_c, 0, 64, 127
1, 614151, Note_off_c, 0, 57, 34
1, 614164, Note_off_c, 0, 52, 64
1, 614206, Note_on_c, 0, 65, 85
1, 614245, Note_on_c, 0, 61, 83
1, 614250, Control_c, 0, 64, 105
1, 614265, Control_c, 0, 64, 69
1, 614280, Control_c, 0, 64, 41
1, 614284, Note_on_c, 0, 53, 80
1, 614287, Note_on_c, 0, 46, 67
1, 614294, Control_c, 0, 64, 14
1, 614295, Note_on_c, 0, 55, 70
1, 614309, Control_c, 0, 64, 36
1, 614314, Note_off_c, 0, 53, 66
1, 614315, Note_off_c, 0, 61, 63
1, 614324, Control_c, 0, 64, 59
1, 614326, Note_off_c, 0, 55, 65
1, 614326, Note_off_c, 0, 46, 66
1, 614333, Note_off_c, 0, 65, 66
1, 614339, Control_c, 0, 64, 70
1, 614362, Control_c, 0, 64, 78
1, 614374, Note_on_c, 0, 34, 100
1, 614377, Control_c, 0, 64, 87
1, 614392, Control_c, 0, 64, 96
1, 614406, Control_c, 0, 64, 106
1, 614421, Control_c, 0, 64, 115
1, 614424, Note_on_c, 0, 46, 76
1, 614424, Note_off_c, 0, 34, 61
1, 614436, Control_c, 0, 64, 127
1, 614450, Note_off_c, 0, 46, 68
1, 614526, Note_on_c, 0, 84, 96
1, 614528, Note_on_c, 0, 72, 103
1, 614529, Note_on_c, 0, 76, 97
1, 614529, Note_on_c, 0, 80, 83
1, 614529, Note_on_c, 0, 52, 77
1, 614546, Note_off_c, 0, 80, 71
1, 614547, Note_off_c, 0, 76, 69
1, 614553, Note_off_c, 0, 52, 65
1, 614557, Note_off_c, 0, 84, 69
1, 614566, Note_off_c, 0, 72, 65
1, 614595, Note_on_c, 0, 64, 59
1, 614600, Note_on_c, 0, 62, 60
1, 614615, Note_on_c, 0, 56, 66
1, 614616, Note_off_c, 0, 64, 63
1, 614621, Note_off_c, 0, 62, 66
1, 614643, Note_on_c, 0, 52, 53
1, 614644, Note_off_c, 0, 56, 64
1, 614675, Note_off_c, 0, 52, 65
1, 614754, Note_on_c, 0, 46, 82
1, 614806, Note_on_c, 0, 34, 78
1, 614824, Note_off_c, 0, 46, 65
1, 614833, Note_on_c, 0, 47, 63
1, 614839, Note_on_c, 0, 49, 19
1, 614852, Note_off_c, 0, 34, 60
1, 614881, Note_on_c, 0, 56, 80
1, 614895, Note_off_c, 0, 47, 66
1, 614913, Note_off_c, 0, 56, 64
1, 614933, Note_off_c, 0, 49, 38
1, 614946, Note_on_c, 0, 48, 106
1, 614956, Note_on_c, 0, 36, 79
1, 614980, Note_off_c, 0, 48, 67
1, 614987, Note_off_c, 0, 36, 64
1, 614996, Note_on_c, 0, 51, 84
1, 615013, Note_on_c, 0, 57, 70
1, 615017, Note_off_c, 0, 51, 68
1, 615032, Note_on_c, 0, 54, 34
1, 615035, Note_off_c, 0, 57, 67
1, 615067, Note_off_c, 0, 54, 32
1, 615075, Note_on_c, 0, 52, 99
1, 615098, Note_on_c, 0, 40, 85
1, 615113, Note_off_c, 0, 52, 65
1, 615144, Note_off_c, 0, 40, 62
1, 615200, Control_c, 0, 64, 75
1, 615215, Control_c, 0, 64, 51
1, 615229, Control_c, 0, 64, 0
1, 615247, Note_on_c, 0, 32, 96
1, 615250, Note_on_c, 0, 34, 85
1, 615270, Note_off_c, 0, 32, 65
1, 615274, Control_c, 0, 64, 40
1, 615285, Note_off_c, 0, 34, 66
1, 615289, Control_c, 0, 64, 58
1, 615294, Note_on_c, 0, 46, 77
1, 615304, Control_c, 0, 64, 66
1, 615312, Note_on_c, 0, 58, 91
1, 615312, Note_off_c, 0, 46, 44
1, 615317, Note_on_c, 0, 70, 92
1, 615319, Control_c, 0, 64, 70
1, 615330, Note_off_c, 0, 58, 71
1, 615333, Control_c, 0, 64, 73
1, 615334, Note_off_c, 0, 70, 71
1, 615339, Note_on_c, 0, 48, 27
1, 615340, Note_off_c, 0, 48, 127
1, 615348, Control_c, 0, 64, 76
1, 615363, Control_c, 0, 64, 78
1, 615378, Control_c, 0, 64, 81
1, 615384, Note_on_c, 0, 72, 82
1, 615387, Note_on_c, 0, 60, 88
1, 615391, Note_on_c, 0, 74, 91
1, 615393, Control_c, 0, 64, 84
1, 615396, Note_on_c, 0, 52, 68
1, 615399, Note_on_c, 0, 53, 75
1, 615405, Note_on_c, 0, 62, 67
1, 615408, Control_c, 0, 64, 91
1, 615413, Note_off_c, 0, 74, 63
1, 615422, Control_c, 0, 64, 106
1, 615425, Note_off_c, 0, 62, 41
1, 615432, Note_off_c, 0, 52, 62
1, 615432, Note_off_c, 0, 53, 61
1, 615433, Note_off_c, 0, 60, 63
1, 615437, Control_c, 0, 64, 127
1, 615438, Note_off_c, 0, 72, 64
1, 615468, Note_on_c, 0, 56, 73
1, 615500, Note_off_c, 0, 56, 63
1, 615516, Note_on_c, 0, 52, 63
1, 615543, Note_on_c, 0, 51, 54
1, 615548, Note_on_c, 0, 53, 38
1, 615561, Note_off_c, 0, 52, 60
1, 615565, Note_off_c, 0, 51, 53
1, 615574, Note_off_c, 0, 53, 35
1, 615585, Note_on_c, 0, 73, 86
1, 615587, Note_on_c, 0, 61, 92
1, 615596, Note_on_c, 0, 67, 71
1, 615603, Note_off_c, 0, 61, 73
1, 615603, Note_off_c, 0, 73, 68
1, 615607, Note_on_c, 0, 70, 47
1, 615612, Note_off_c, 0, 67, 67
1, 615614, Control_c, 0, 64, 78
1, 615628, Note_off_c, 0, 70, 60
1, 615629, Control_c, 0, 64, 47
1, 615644, Control_c, 0, 64, 30
1, 615646, Note_on_c, 0, 63, 79
1, 615650, Note_on_c, 0, 75, 97
1, 615656, Note_on_c, 0, 70, 78
1, 615659, Control_c, 0, 64, 42
1, 615660, Note_on_c, 0, 67, 90
1, 615661, Note_on_c, 0, 30, 109
1, 615673, Note_on_c, 0, 73, 58
1, 615673, Control_c, 0, 64, 62
1, 615688, Control_c, 0, 64, 75
1, 615691, Note_off_c, 0, 30, 63
1, 615693, Note_off_c, 0, 75, 69
1, 615699, Note_on_c, 0, 61, 1
1, 615700, Note_off_c, 0, 73, 55
1, 615703, Control_c, 0, 64, 90
1, 615718, Control_c, 0, 64, 106
1, 615733, Note_off_c, 0, 67, 61
1, 615733, Control_c, 0, 64, 127
1, 615744, Note_off_c, 0, 61, 44
1, 615748, Note_off_c, 0, 63, 59
1, 615770, Note_on_c, 0, 46, 82
1, 615800, Note_off_c, 0, 70, 55
1, 615813, Note_off_c, 0, 46, 56
1, 615855, Note_on_c, 0, 52, 86
1, 615902, Note_off_c, 0, 52, 62
1, 615935, Note_on_c, 0, 46, 72
1, 615947, Note_on_c, 0, 58, 87
1, 615950, Note_on_c, 0, 70, 79
1, 615966, Note_on_c, 0, 66, 64
1, 615977, Note_off_c, 0, 58, 62
1, 615986, Note_off_c, 0, 46, 61
1, 615988, Note_on_c, 0, 42, 80
1, 615992, Note_off_c, 0, 66, 68
1, 616008, Control_c, 0, 64, 74
1, 616014, Note_off_c, 0, 70, 62
1, 616023, Note_off_c, 0, 42, 65
1, 616023, Control_c, 0, 64, 61
1, 616038, Control_c, 0, 64, 64
1, 616052, Control_c, 0, 64, 75
1, 616067, Control_c, 0, 64, 98
1, 616082, Control_c, 0, 64, 127
1, 616083, Note_on_c, 0, 34, 102
1, 616138, Note_off_c, 0, 34, 62
1, 616148, Note_on_c, 0, 46, 87
1, 616165, Note_off_c, 0, 46, 71
1, 616231, Note_on_c, 0, 76, 107
1, 616233, Note_on_c, 0, 84, 95
1, 616234, Note_on_c, 0, 72, 105
1, 616236, Note_on_c, 0, 80, 68
1, 616240, Note_on_c, 0, 52, 87
1, 616253, Note_off_c, 0, 80, 70
1, 616257, Note_off_c, 0, 76, 68
1, 616263, Note_off_c, 0, 84, 70
1, 616269, Note_off_c, 0, 72, 66
1, 616274, Note_off_c, 0, 52, 61
1, 616279, Note_on_c, 0, 81, 25
1, 616280, Note_off_c, 0, 81, 127
1, 616280, Note_on_c, 0, 46, 11
1, 616302, Note_off_c, 0, 46, 39
1, 616303, Note_on_c, 0, 64, 73
1, 616308, Note_on_c, 0, 56, 68
1, 616321, Note_on_c, 0, 62, 64
1, 616332, Note_off_c, 0, 64, 63
1, 616340, Note_off_c, 0, 62, 63
1, 616368, Note_on_c, 0, 52, 85
1, 616369, Note_off_c, 0, 56, 63
1, 616405, Note_off_c, 0, 52, 66
1, 616485, Note_on_c, 0, 46, 83
1, 616497, Note_on_c, 0, 34, 90
1, 616505, Note_on_c, 0, 58, 99
1, 616511, Control_c, 0, 64, 109
1, 616520, Note_off_c, 0, 46, 65
1, 616526, Control_c, 0, 64, 103
1, 616532, Note_off_c, 0, 34, 66
1, 616544, Note_off_c, 0, 58, 64
1, 616573, Note_on_c, 0, 63, 62
1, 616576, Note_on_c, 0, 59, 85
1, 616600, Note_on_c, 0, 67, 79
1, 616619, Note_off_c, 0, 63, 62
1, 616620, Note_off_c, 0, 59, 65
1, 616623, Note_off_c, 0, 67, 68
1, 616623, Control_c, 0, 64, 103
1, 616656, Note_on_c, 0, 60, 105
1, 616660, Note_on_c, 0, 47, 91
1, 616663, Note_on_c, 0, 59, 71
1, 616677, Poly_aftertouch_c, 0, 57, 0
1, 616678, Note_on_c, 0, 48, 75
1, 616686, Note_off_c, 0, 47, 68
1, 616691, Note_off_c, 0, 59, 66
1, 616693, Note_off_c, 0, 60, 63
1, 616698, Note_off_c, 0, 48, 45
1, 616712, Control_c, 0, 64, 104
1, 616717, Note_on_c, 0, 63, 99
1, 616727, Control_c, 0, 64, 117
1, 616740, Note_on_c, 0, 69, 63
1, 616742, Control_c, 0, 64, 127
1, 616743, Note_off_c, 0, 63, 62
1, 616746, Note_on_c, 0, 66, 46
1, 616758, Note_off_c, 0, 69, 63
1, 616777, Note_off_c, 0, 66, 34
1, 616788, Note_on_c, 0, 64, 108
1, 616795, Note_on_c, 0, 52, 96
1, 616821, Note_off_c, 0, 64, 70
1, 616832, Control_c, 0, 64, 82
1, 616846, Note_off_c, 0, 52, 64
1, 616846, Control_c, 0, 64, 58
1, 616859, Note_on_c, 0, 72, 95
1, 616861, Control_c, 0, 64, 0
1, 616870, Note_on_c, 0, 67, 78
1, 616885, Note_on_c, 0, 68, 44
1, 616891, Note_off_c, 0, 67, 71
1, 616900, Note_off_c, 0, 72, 63
1, 616910, Note_off_c, 0, 68, 54
1, 616958, Note_on_c, 0, 34, 100
1, 616965, Control_c, 0, 64, 45
1, 616980, Control_c, 0, 64, 62
1, 616994, Control_c, 0, 64, 67
1, 617009, Control_c, 0, 64, 69
1, 617011, Note_on_c, 0, 46, 82
1, 617013, Note_on_c, 0, 58, 99
1, 617013, Note_off_c, 0, 34, 61
1, 617017, Note_on_c, 0, 44, 46
1, 617018, Note_off_c, 0, 44, 127
1, 617018, Note_on_c, 0, 70, 87
1, 617024, Control_c, 0, 64, 73
1, 617030, Note_off_c, 0, 58, 71
1, 617039, Note_off_c, 0, 46, 65
1, 617039, Control_c, 0, 64, 76
1, 617040, Note_off_c, 0, 70, 64
1, 617053, Control_c, 0, 64, 79
1, 617068, Control_c, 0, 64, 81
1, 617081, Note_on_c, 0, 72, 92
1, 617083, Control_c, 0, 64, 83
1, 617087, Note_on_c, 0, 60, 95
1, 617098, Control_c, 0, 64, 86
1, 617099, Poly_aftertouch_c, 0, 68, 0
1, 617111, Note_on_c, 0, 52, 69
1, 617111, Note_on_c, 0, 53, 69
1, 617113, Control_c, 0, 64, 91
1, 617125, Note_on_c, 0, 70, 34
1, 617128, Control_c, 0, 64, 100
1, 617129, Note_off_c, 0, 60, 65
1, 617134, Note_off_c, 0, 72, 65
1, 617143, Control_c, 0, 64, 121
1, 617150, Note_off_c, 0, 70, 60
1, 617155, Note_off_c, 0, 52, 54
1, 617158, Control_c, 0, 64, 127
1, 617158, Note_off_c, 0, 53, 56
1, 617180, Note_on_c, 0, 56, 91
1, 617229, Note_off_c, 0, 56, 65
1, 617249, Note_on_c, 0, 52, 77
1, 617292, Note_off_c, 0, 52, 64
1, 617335, Note_on_c, 0, 61, 95
1, 617336, Note_on_c, 0, 73, 91
1, 617340, Note_on_c, 0, 67, 78
1, 617350, Note_on_c, 0, 63, 81
1, 617360, Note_off_c, 0, 61, 71
1, 617360, Note_off_c, 0, 73, 69
1, 617364, Note_on_c, 0, 70, 59
1, 617366, Note_off_c, 0, 63, 68
1, 617367, Note_off_c, 0, 67, 71
1, 617372, Control_c, 0, 64, 65
1, 617383, Note_off_c, 0, 70, 62
1, 617387, Control_c, 0, 64, 51
1, 617402, Control_c, 0, 64, 58
1, 617405, Note_on_c, 0, 63, 102
1, 617407, Note_on_c, 0, 75, 96
1, 617409, Note_on_c, 0, 30, 113
1, 617411, Note_on_c, 0, 70, 83
1, 617416, Note_on_c, 0, 67, 93
1, 617417, Control_c, 0, 64, 72
1, 617428, Note_on_c, 0, 73, 67
1, 617432, Control_c, 0, 64, 96
1, 617442, Note_off_c, 0, 73, 69
1, 617446, Control_c, 0, 64, 127
1, 617450, Note_off_c, 0, 75, 68
1, 617453, Note_off_c, 0, 30, 62
1, 617482, Note_off_c, 0, 63, 61
1, 617485, Note_off_c, 0, 67, 60
1, 617521, Note_on_c, 0, 44, 78
1, 617521, Note_off_c, 0, 70, 55
1, 617554, Note_off_c, 0, 44, 66
1, 617608, Note_on_c, 0, 52, 88
1, 617662, Note_off_c, 0, 52, 62
1, 617697, Note_on_c, 0, 46, 78
1, 617750, Note_on_c, 0, 58, 103
1, 617754, Note_on_c, 0, 66, 88
1, 617754, Note_on_c, 0, 70, 102
1, 617779, Note_off_c, 0, 46, 63
1, 617784, Note_on_c, 0, 42, 93
1, 617786, Note_off_c, 0, 58, 66
1, 617798, Note_off_c, 0, 66, 63
1, 617825, Note_off_c, 0, 70, 61
1, 617830, Note_off_c, 0, 42, 64
1, 617906, Control_c, 0, 64, 111
1, 617921, Control_c, 0, 64, 64
1, 617936, Control_c, 0, 64, 19
1, 617951, Control_c, 0, 64, 0
1, 617956, Note_on_c, 0, 33, 93
1, 617961, Note_on_c, 0, 38, 96
1, 617963, Note_on_c, 0, 40, 94
1, 617966, Control_c, 0, 64, 47
1, 617971, Note_on_c, 0, 31, 76
1, 617980, Control_c, 0, 64, 68
1, 617982, Note_off_c, 0, 31, 43
1, 617995, Control_c, 0, 64, 82
1, 618010, Control_c, 0, 64, 108
1, 618019, Note_off_c, 0, 38, 64
1, 618025, Control_c, 0, 64, 127
1, 618048, Note_off_c, 0, 33, 60
1, 618049, Note_off_c, 0, 40, 66
1, 618060, Note_on_c, 0, 43, 88
1, 618077, Note_on_c, 0, 45, 64
1, 618095, Note_off_c, 0, 43, 67
1, 618106, Note_off_c, 0, 45, 61
1, 618136, Poly_aftertouch_c, 0, 87, 0
1, 618180, Note_on_c, 0, 50, 99
1, 618181, Note_on_c, 0, 84, 99
1, 618182, Note_on_c, 0, 81, 107
1, 618182, Note_on_c, 0, 93, 101
1, 618183, Note_on_c, 0, 88, 92
1, 618198, Note_off_c, 0, 88, 71
1, 618207, Note_off_c, 0, 84, 65
1, 618209, Note_on_c, 0, 89, 54
1, 618210, Note_off_c, 0, 89, 127
1, 618210, Note_off_c, 0, 93, 67
1, 618212, Note_on_c, 0, 52, 37
1, 618213, Note_off_c, 0, 52, 127
1, 618222, Note_off_c, 0, 81, 68
1, 618271, Note_on_c, 0, 56, 74
1, 618285, Note_on_c, 0, 62, 80
1, 618286, Note_on_c, 0, 59, 65
1, 618288, Note_off_c, 0, 50, 57
1, 618311, Note_off_c, 0, 62, 66
1, 618318, Note_off_c, 0, 59, 63
1, 618329, Note_on_c, 0, 55, 61
1, 618335, Note_off_c, 0, 56, 63
1, 618343, Note_on_c, 0, 50, 70
1, 618354, Note_off_c, 0, 55, 66
1, 618373, Note_off_c, 0, 50, 66
1, 618451, Note_on_c, 0, 43, 88
1, 618478, Control_c, 0, 64, 73
1, 618492, Control_c, 0, 64, 55
1, 618497, Note_off_c, 0, 43, 65
1, 618507, Control_c, 0, 64, 51
1, 618516, Note_on_c, 0, 33, 104
1, 618522, Control_c, 0, 64, 60
1, 618537, Control_c, 0, 64, 69
1, 618552, Control_c, 0, 64, 78
1, 618567, Control_c, 0, 64, 91
1, 618568, Note_on_c, 0, 76, 88
1, 618569, Note_off_c, 0, 33, 66
1, 618575, Note_on_c, 0, 64, 79
1, 618575, Note_on_c, 0, 65, 76
1, 618581, Control_c, 0, 64, 103
1, 618585, Note_off_c, 0, 76, 71
1, 618592, Note_off_c, 0, 65, 67
1, 618596, Control_c, 0, 64, 111
1, 618598, Note_off_c, 0, 64, 65
1, 618611, Control_c, 0, 64, 127
1, 618628, Note_on_c, 0, 78, 98
1, 618629, Note_on_c, 0, 75, 82
1, 618630, Note_on_c, 0, 66, 107
1, 618658, Note_on_c, 0, 52, 88
1, 618661, Note_off_c, 0, 66, 65
1, 618663, Note_off_c, 0, 78, 59
1, 618666, Note_off_c, 0, 75, 65
1, 618707, Note_off_c, 0, 52, 61
1, 618723, Note_on_c, 0, 60, 85
1, 618731, Poly_aftertouch_c, 0, 65, 0
1, 618765, Note_off_c, 0, 60, 65
1, 618809, Note_on_c, 0, 52, 65
1, 618829, Note_off_c, 0, 52, 63
1, 618901, Note_on_c, 0, 45, 86
1, 618919, Note_on_c, 0, 43, 62
1, 618942, Control_c, 0, 64, 96
1, 618943, Note_off_c, 0, 43, 53
1, 618956, Note_off_c, 0, 45, 64
1, 618957, Control_c, 0, 64, 61
1, 618972, Control_c, 0, 64, 0
1, 618977, Note_on_c, 0, 33, 95
1, 618983, Note_on_c, 0, 48, 88
1, 618986, Note_on_c, 0, 52, 70
1, 618988, Note_on_c, 0, 53, 81
1, 619007, Note_off_c, 0, 48, 67
1, 619007, Note_off_c, 0, 53, 65
1, 619009, Note_off_c, 0, 52, 70
1, 619016, Control_c, 0, 64, 41
1, 619024, Note_off_c, 0, 33, 66
1, 619031, Control_c, 0, 64, 61
1, 619033, Note_on_c, 0, 54, 86
1, 619034, Note_on_c, 0, 51, 94
1, 619046, Control_c, 0, 64, 71
1, 619059, Note_off_c, 0, 51, 71
1, 619061, Control_c, 0, 64, 85
1, 619076, Control_c, 0, 64, 127
1, 619077, Note_on_c, 0, 45, 22
1, 619077, Note_off_c, 0, 54, 67
1, 619109, Note_off_c, 0, 45, 37
1, 619144, Note_on_c, 0, 52, 75
1, 619175, Note_off_c, 0, 52, 62
1, 619215, Note_on_c, 0, 60, 71
1, 619218, Note_on_c, 0, 59, 72
1, 619238, Note_off_c, 0, 60, 67
1, 619241, Note_off_c, 0, 59, 68
1, 619257, Note_on_c, 0, 52, 53
1, 619304, Note_off_c, 0, 52, 64
1, 619370, Note_on_c, 0, 52, 91
1, 619390, Note_on_c, 0, 40, 71
1, 619414, Note_off_c, 0, 52, 64
1, 619420, Note_off_c, 0, 40, 65
1, 619486, Note_on_c, 0, 53, 90
1, 619486, Note_on_c, 0, 57, 83
1, 619489, Note_on_c, 0, 65, 78
1, 619498, Note_on_c, 0, 60, 53
1, 619513, Note_on_c, 0, 62, 50
1, 619522, Note_off_c, 0, 60, 63
1, 619524, Note_off_c, 0, 53, 62
1, 619531, Note_off_c, 0, 57, 60
1, 619534, Note_off_c, 0, 65, 62
1, 619539, Note_off_c, 0, 62, 47
1, 619593, Note_on_c, 0, 54, 97
1, 619615, Note_on_c, 0, 42, 67
1, 619625, Note_off_c, 0, 54, 64
1, 619640, Note_on_c, 0, 55, 91
1, 619642, Note_off_c, 0, 42, 61
1, 619643, Note_on_c, 0, 67, 79
1, 619649, Note_on_c, 0, 64, 81
1, 619674, Note_off_c, 0, 64, 67
1, 619682, Note_off_c, 0, 55, 65
1, 619689, Note_off_c, 0, 67, 65
1, 619720, Note_on_c, 0, 56, 95
1, 619723, Note_on_c, 0, 44, 74
1, 619746, Note_off_c, 0, 44, 67
1, 619754, Note_off_c, 0, 56, 66
1, 619758, Note_on_c, 0, 52, 30
1, 619777, Note_off_c, 0, 52, 43
1, 619780, Note_on_c, 0, 62, 89
1, 619780, Note_on_c, 0, 74, 96
1, 619785, Note_on_c, 0, 71, 86
1, 619788, Note_on_c, 0, 64, 83
1, 619803, Note_off_c, 0, 71, 73
1, 619808, Note_off_c, 0, 62, 66
1, 619814, Note_off_c, 0, 64, 66
1, 619816, Note_off_c, 0, 74, 63
1, 619840, Control_c, 0, 64, 72
1, 619855, Note_on_c, 0, 64, 106
1, 619855, Control_c, 0, 64, 44
1, 619863, Note_on_c, 0, 52, 68
1, 619870, Control_c, 0, 64, 30
1, 619870, Note_on_c, 0, 53, 77
1, 619885, Control_c, 0, 64, 46
1, 619888, Note_off_c, 0, 64, 71
1, 619888, Note_off_c, 0, 52, 66
1, 619899, Control_c, 0, 64, 63
1, 619905, Note_off_c, 0, 53, 65
1, 619914, Control_c, 0, 64, 74
1, 619916, Note_on_c, 0, 65, 97
1, 619919, Note_on_c, 0, 69, 86
1, 619921, Note_on_c, 0, 77, 83
1, 619922, Note_on_c, 0, 72, 80
1, 619929, Note_on_c, 0, 74, 71
1, 619929, Control_c, 0, 64, 85
1, 619939, Note_off_c, 0, 65, 66
1, 619939, Note_off_c, 0, 69, 71
1, 619942, Note_off_c, 0, 72, 69
1, 619944, Control_c, 0, 64, 95
1, 619948, Note_off_c, 0, 74, 65
1, 619957, Note_off_c, 0, 77, 61
1, 619959, Control_c, 0, 64, 106
1, 619975, Control_c, 0, 64, 127
1, 619990, Note_on_c, 0, 66, 101
1, 619999, Note_on_c, 0, 54, 88
1, 620024, Note_off_c, 0, 54, 67
1, 620029, Note_off_c, 0, 66, 66
1, 620050, Note_on_c, 0, 56, 10
1, 620051, Note_off_c, 0, 56, 127
1, 620051, Note_on_c, 0, 67, 103
1, 620054, Note_on_c, 0, 79, 90
1, 620061, Note_on_c, 0, 76, 89
1, 620077, Note_off_c, 0, 76, 72
1, 620081, Poly_aftertouch_c, 0, 58, 0
1, 620082, Note_off_c, 0, 67, 69
1, 620091, Note_off_c, 0, 79, 66
1, 620092, Poly_aftertouch_c, 0, 56, 0
1, 620136, Note_on_c, 0, 68, 106
1, 620139, Note_on_c, 0, 64, 89
1, 620149, Note_on_c, 0, 56, 92
1, 620169, Note_off_c, 0, 68, 70
1, 620178, Note_off_c, 0, 64, 64
1, 620189, Poly_aftertouch_c, 0, 61, 0
1, 620189, Note_on_c, 0, 57, 59
1, 620192, Note_off_c, 0, 56, 62
1, 620208, Note_on_c, 0, 76, 113
1, 620211, Note_off_c, 0, 57, 60
1, 620216, Note_on_c, 0, 88, 92
1, 620216, Note_on_c, 0, 84, 91
1, 620228, Note_off_c, 0, 76, 68
1, 620231, Note_off_c, 0, 88, 75
1, 620233, Note_off_c, 0, 84, 71
1, 620236, Note_on_c, 0, 89, 53
1, 620237, Note_off_c, 0, 89, 127
1, 620239, Note_on_c, 0, 86, 45
1, 620240, Note_off_c, 0, 86, 127
1, 620382, Control_c, 0, 64, 84
1, 620396, Control_c, 0, 64, 64
1, 620411, Control_c, 0, 64, 41
1, 620426, Control_c, 0, 64, 0
1, 620515, Note_on_c, 0, 33, 75
1, 620589, Control_c, 0, 64, 21
1, 620604, Control_c, 0, 64, 44
1, 620619, Control_c, 0, 64, 59
1, 620621, Note_on_c, 0, 64, 61
1, 620623, Note_on_c, 0, 52, 64
1, 620633, Control_c, 0, 64, 63
1, 620643, Note_off_c, 0, 33, 60
1, 620648, Control_c, 0, 64, 66
1, 620651, Note_on_c, 0, 41, 61
1, 620661, Note_off_c, 0, 52, 63
1, 620663, Control_c, 0, 64, 70
1, 620678, Control_c, 0, 64, 76
1, 620693, Control_c, 0, 64, 85
1, 620708, Control_c, 0, 64, 96
1, 620711, Note_off_c, 0, 41, 60
1, 620714, Note_off_c, 0, 64, 35
1, 620722, Control_c, 0, 64, 112
1, 620737, Control_c, 0, 64, 127
1, 620771, Note_on_c, 0, 42, 68
1, 620771, Note_on_c, 0, 63, 62
1, 620773, Note_on_c, 0, 54, 69
1, 620774, Note_on_c, 0, 66, 68
1, 620809, Note_off_c, 0, 54, 61
1, 620853, Note_off_c, 0, 66, 54
1, 620869, Note_on_c, 0, 43, 63
1, 620894, Note_off_c, 0, 42, 51
1, 620905, Note_off_c, 0, 43, 62
1, 620934, Note_on_c, 0, 44, 72
1, 620972, Note_off_c, 0, 44, 63
1, 621046, Note_on_c, 0, 52, 73
1, 621078, Note_off_c, 0, 52, 64
1, 621113, Note_off_c, 0, 63, 40
1, 621115, Note_on_c, 0, 68, 71
1, 621121, Note_on_c, 0, 56, 71
1, 621127, Note_on_c, 0, 60, 55
1, 621149, Note_off_c, 0, 60, 58
1, 621167, Note_off_c, 0, 68, 52
1, 621170, Note_off_c, 0, 56, 65
1, 621175, Control_c, 0, 64, 122
1, 621190, Control_c, 0, 64, 75
1, 621205, Control_c, 0, 64, 58
1, 621219, Control_c, 0, 64, 52
1, 621225, Note_on_c, 0, 32, 98
1, 621234, Control_c, 0, 64, 59
1, 621249, Control_c, 0, 64, 66
1, 621264, Control_c, 0, 64, 75
1, 621279, Control_c, 0, 64, 87
1, 621293, Control_c, 0, 64, 104
1, 621300, Note_on_c, 0, 57, 79
1, 621301, Note_on_c, 0, 69, 71
1, 621308, Control_c, 0, 64, 127
1, 621315, Note_on_c, 0, 63, 50
1, 621328, Note_off_c, 0, 57, 65
1, 621328, Note_off_c, 0, 69, 66
1, 621334, Note_on_c, 0, 42, 82
1, 621339, Note_off_c, 0, 32, 51
1, 621339, Note_off_c, 0, 63, 52
1, 621379, Note_on_c, 0, 71, 82
1, 621384, Note_on_c, 0, 59, 76
1, 621385, Note_off_c, 0, 42, 61
1, 621388, Note_on_c, 0, 66, 75
1, 621411, Poly_aftertouch_c, 0, 67, 0
1, 621412, Note_off_c, 0, 66, 64
1, 621431, Note_off_c, 0, 71, 63
1, 621433, Note_off_c, 0, 59, 62
1, 621446, Note_on_c, 0, 44, 77
1, 621523, Note_on_c, 0, 45, 63
1, 621561, Note_off_c, 0, 44, 59
1, 621592, Note_on_c, 0, 54, 85
1, 621608, Note_on_c, 0, 44, 40
1, 621617, Note_off_c, 0, 54, 68
1, 621650, Note_off_c, 0, 45, 63
1, 621657, Note_off_c, 0, 44, 57
1, 621665, Note_on_c, 0, 42, 26
1, 621677, Note_on_c, 0, 60, 83
1, 621677, Note_on_c, 0, 72, 84
1, 621680, Control_c, 0, 64, 93
1, 621695, Control_c, 0, 64, 73
1, 621698, Note_on_c, 0, 66, 60
1, 621702, Note_off_c, 0, 42, 31
1, 621704, Note_off_c, 0, 60, 64
1, 621709, Control_c, 0, 64, 66
1, 621713, Note_off_c, 0, 72, 63
1, 621716, Note_off_c, 0, 66, 65
1, 621724, Control_c, 0, 64, 70
1, 621739, Control_c, 0, 64, 81
1, 621754, Note_on_c, 0, 30, 101
1, 621754, Control_c, 0, 64, 103
1, 621768, Control_c, 0, 64, 127
1, 621769, Note_on_c, 0, 27, 66
1, 621780, Note_on_c, 0, 29, 59
1, 621785, Note_on_c, 0, 28, 48
1, 621802, Note_off_c, 0, 27, 60
1, 621810, Note_off_c, 0, 29, 58
1, 621811, Note_off_c, 0, 28, 48
1, 621817, Note_off_c, 0, 30, 63
1, 621821, Note_on_c, 0, 61, 100
1, 621826, Note_on_c, 0, 42, 81
1, 621826, Note_on_c, 0, 69, 73
1, 621846, Note_on_c, 0, 73, 61
1, 621849, Note_off_c, 0, 61, 67
1, 621850, Note_off_c, 0, 42, 68
1, 621856, Note_off_c, 0, 69, 68
1, 621859, Note_on_c, 0, 66, 5
1, 621860, Note_off_c, 0, 66, 127
1, 621865, Note_off_c, 0, 73, 64
1, 621909, Note_on_c, 0, 63, 71
1, 621912, Poly_aftertouch_c, 0, 43, 0
1, 621914, Note_on_c, 0, 75, 92
1, 621921, Note_on_c, 0, 47, 90
1, 621956, Note_off_c, 0, 75, 62
1, 621962, Note_on_c, 0, 73, 13
1, 621969, Note_off_c, 0, 63, 60
1, 621993, Note_off_c, 0, 47, 65
1, 621999, Note_on_c, 0, 48, 71
1, 622007, Note_on_c, 0, 49, 57
1, 622017, Note_off_c, 0, 73, 34
1, 622023, Poly_aftertouch_c, 0, 70, 0
1, 622036, Note_off_c, 0, 48, 64
1, 622089, Note_off_c, 0, 49, 63
1, 622112, Note_on_c, 0, 55, 73
1, 622119, Note_on_c, 0, 57, 66
1, 622136, Note_off_c, 0, 55, 67
1, 622137, Note_off_c, 0, 57, 65
1, 622169, Note_on_c, 0, 64, 94
1, 622169, Note_on_c, 0, 76, 91
1, 622190, Control_c, 0, 64, 79
1, 622205, Control_c, 0, 64, 46
1, 622208, Note_off_c, 0, 64, 67
1, 622212, Note_off_c, 0, 76, 64
1, 622220, Control_c, 0, 64, 0
1, 622232, Note_on_c, 0, 29, 91
1, 622232, Note_on_c, 0, 41, 104
1, 622246, Note_on_c, 0, 40, 81
1, 622249, Control_c, 0, 64, 51
1, 622264, Control_c, 0, 64, 66
1, 622267, Note_off_c, 0, 40, 43
1, 622268, Note_off_c, 0, 29, 65
1, 622279, Note_off_c, 0, 41, 66
1, 622279, Control_c, 0, 64, 75
1, 622294, Control_c, 0, 64, 85
1, 622306, Note_on_c, 0, 65, 92
1, 622306, Note_on_c, 0, 77, 93
1, 622309, Control_c, 0, 64, 96
1, 622311, Note_on_c, 0, 72, 85
1, 622324, Control_c, 0, 64, 109
1, 622327, Note_off_c, 0, 65, 66
1, 622330, Note_off_c, 0, 72, 70
1, 622339, Control_c, 0, 64, 127
1, 622339, Note_off_c, 0, 77, 60
1, 622359, Note_on_c, 0, 43, 59
1, 622371, Note_on_c, 0, 44, 39
1, 622375, Note_on_c, 0, 67, 99
1, 622377, Note_on_c, 0, 79, 80
1, 622377, Note_on_c, 0, 75, 86
1, 622378, Note_on_c, 0, 77, 71
1, 622384, Note_off_c, 0, 43, 53
1, 622398, Note_off_c, 0, 44, 45
1, 622425, Note_on_c, 0, 43, 68
1, 622431, Note_on_c, 0, 44, 77
1, 622444, Note_off_c, 0, 79, 57
1, 622445, Note_off_c, 0, 77, 61
1, 622446, Note_off_c, 0, 43, 62
1, 622447, Note_off_c, 0, 67, 61
1, 622464, Note_off_c, 0, 44, 64
1, 622464, Note_off_c, 0, 75, 62
1, 622469, Note_on_c, 0, 42, 15
1, 622507, Note_on_c, 0, 45, 81
1, 622517, Note_off_c, 0, 42, 29
1, 622524, Note_on_c, 0, 46, 20
1, 622527, Note_on_c, 0, 44, 66
1, 622544, Note_off_c, 0, 44, 56
1, 622544, Note_on_c, 0, 51, 96
1, 622569, Note_off_c, 0, 46, 34
1, 622578, Note_on_c, 0, 52, 54
1, 622596, Note_off_c, 0, 45, 62
1, 622603, Note_off_c, 0, 51, 65
1, 622607, Note_off_c, 0, 52, 59
1, 622613, Control_c, 0, 64, 75
1, 622621, Note_on_c, 0, 69, 95
1, 622622, Note_on_c, 0, 81, 100
1, 622628, Control_c, 0, 64, 62
1, 622643, Control_c, 0, 64, 65
1, 622658, Note_off_c, 0, 69, 68
1, 622658, Control_c, 0, 64, 83
1, 622659, Note_on_c, 0, 79, 41
1, 622666, Note_off_c, 0, 81, 65
1, 622672, Control_c, 0, 64, 127
1, 622689, Note_off_c, 0, 79, 52
1, 622705, Note_on_c, 0, 27, 106
1, 622705, Note_on_c, 0, 39, 107
1, 622724, Note_on_c, 0, 37, 64
1, 622725, Note_off_c, 0, 37, 127
1, 622728, Note_off_c, 0, 39, 69
1, 622728, Poly_aftertouch_c, 0, 77, 0
1, 622730, Note_off_c, 0, 27, 69
1, 622763, Note_on_c, 0, 70, 107
1, 622768, Note_on_c, 0, 82, 95
1, 622785, Note_off_c, 0, 82, 66
1, 622787, Note_off_c, 0, 70, 65
1, 622837, Note_on_c, 0, 46, 90
1, 622842, Note_on_c, 0, 72, 109
1, 622842, Note_on_c, 0, 79, 95
1, 622845, Note_on_c, 0, 84, 91
1, 622851, Note_on_c, 0, 81, 88
1, 622854, Note_on_c, 0, 83, 82
1, 622863, Poly_aftertouch_c, 0, 80, 0
1, 622869, Note_off_c, 0, 81, 70
1, 622869, Note_off_c, 0, 83, 64
1, 622914, Note_on_c, 0, 47, 49
1, 622934, Note_off_c, 0, 72, 36
1, 622943, Note_off_c, 0, 47, 53
1, 622946, Note_on_c, 0, 48, 62
1, 622951, Note_off_c, 0, 79, 56
1, 622972, Note_on_c, 0, 55, 101
1, 622981, Note_off_c, 0, 84, 61
1, 623002, Note_on_c, 0, 53, 39
1, 623003, Note_off_c, 0, 53, 127
1, 623009, Note_off_c, 0, 55, 67
1, 623017, Note_off_c, 0, 46, 56
1, 623040, Note_off_c, 0, 48, 62
1, 623087, Note_on_c, 0, 74, 107
1, 623087, Note_on_c, 0, 82, 102
1, 623088, Note_on_c, 0, 86, 99
1, 623102, Control_c, 0, 64, 98
1, 623116, Control_c, 0, 64, 57
1, 623120, Note_off_c, 0, 74, 68
1, 623120, Note_on_c, 0, 76, 44
1, 623121, Note_off_c, 0, 76, 127
1, 623121, Note_off_c, 0, 82, 66
1, 623131, Control_c, 0, 64, 0
1, 623133, Note_off_c, 0, 86, 59
1, 623146, Control_c, 0, 64, 24
1, 623158, Note_on_c, 0, 38, 120
1, 623161, Control_c, 0, 64, 62
1, 623162, Note_on_c, 0, 26, 107
1, 623176, Control_c, 0, 64, 78
1, 623187, Note_off_c, 0, 26, 69
1, 623191, Control_c, 0, 64, 104
1, 623194, Note_off_c, 0, 38, 68
1, 623195, Note_on_c, 0, 36, 32
1, 623196, Note_off_c, 0, 36, 127
1, 623206, Control_c, 0, 64, 127
1, 623236, Poly_aftertouch_c, 0, 36, 0
1, 623272, Note_on_c, 0, 75, 105
1, 623277, Note_on_c, 0, 87, 100
1, 623295, Note_on_c, 0, 85, 59
1, 623297, Note_on_c, 0, 41, 94
1, 623297, Note_on_c, 0, 82, 52
1, 623304, Note_off_c, 0, 75, 68
1, 623313, Note_off_c, 0, 85, 64
1, 623316, Note_off_c, 0, 87, 62
1, 623319, Note_off_c, 0, 82, 60
1, 623355, Note_on_c, 0, 77, 111
1, 623357, Note_on_c, 0, 84, 101
1, 623358, Note_on_c, 0, 89, 108
1, 623366, Note_on_c, 0, 86, 86
1, 623374, Note_on_c, 0, 54, 108
1, 623376, Note_on_c, 0, 88, 60
1, 623396, Note_off_c, 0, 41, 51
1, 623397, Note_off_c, 0, 88, 38
1, 623401, Note_off_c, 0, 86, 46
1, 623414, Note_off_c, 0, 54, 67
1, 623435, Note_off_c, 0, 77, 59
1, 623464, Note_on_c, 0, 43, 85
1, 623534, Note_off_c, 0, 89, 31
1, 623557, Note_on_c, 0, 56, 101
1, 623582, Note_off_c, 0, 43, 64
1, 623591, Note_on_c, 0, 54, 46
1, 623597, Note_off_c, 0, 56, 68
1, 623609, Note_off_c, 0, 54, 67
1, 623635, Note_on_c, 0, 45, 78
1, 623679, Note_on_c, 0, 47, 36
1, 623689, Note_on_c, 0, 57, 107
1, 623694, Note_on_c, 0, 51, 99
1, 623710, Note_off_c, 0, 47, 35
1, 623714, Note_off_c, 0, 84, 63
1, 623716, Note_off_c, 0, 45, 64
1, 623716, Note_off_c, 0, 57, 71
1, 623735, Note_off_c, 0, 51, 66
1, 623765, Note_on_c, 0, 78, 109
1, 623766, Note_on_c, 0, 90, 100
1, 623776, Note_on_c, 0, 87, 87
1, 623804, Note_off_c, 0, 87, 56
1, 623821, Control_c, 0, 64, 114
1, 623836, Control_c, 0, 64, 59
1, 623850, Note_on_c, 0, 87, 42
1, 623851, Control_c, 0, 64, 0
1, 623860, Note_on_c, 0, 36, 111
1, 623864, Note_on_c, 0, 24, 120
1, 623880, Control_c, 0, 64, 48
1, 623881, Note_on_c, 0, 35, 67
1, 623882, Note_off_c, 0, 35, 127
1, 623887, Note_off_c, 0, 24, 71
1, 623888, Note_on_c, 0, 27, 60
1, 623889, Note_off_c, 0, 27, 127
1, 623894, Note_off_c, 0, 36, 68
1, 623895, Control_c, 0, 64, 67
1, 623910, Control_c, 0, 64, 81
1, 623925, Control_c, 0, 64, 111
1, 623930, Note_off_c, 0, 78, 58
1, 623939, Control_c, 0, 64, 127
1, 623950, Note_off_c, 0, 87, 62
1, 623957, Note_off_c, 0, 90, 61
1, 623967, Note_on_c, 0, 24, 11
1, 623968, Note_off_c, 0, 24, 127
1, 624032, Note_on_c, 0, 79, 102
1, 624032, Note_on_c, 0, 91, 99
1, 624037, Note_on_c, 0, 84, 87
1, 624048, Note_on_c, 0, 42, 97
1, 624054, Note_off_c, 0, 84, 73
1, 624067, Note_off_c, 0, 91, 69
1, 624069, Note_on_c, 0, 86, 44
1, 624070, Note_off_c, 0, 86, 127
1, 624070, Note_off_c, 0, 79, 68
1, 624088, Note_on_c, 0, 41, 50
1, 624113, Note_off_c, 0, 41, 51
1, 624118, Note_off_c, 0, 42, 59
1, 624127, Note_on_c, 0, 55, 105
1, 624130, Note_on_c, 0, 88, 111
1, 624130, Note_on_c, 0, 93, 105
1, 624131, Note_on_c, 0, 81, 115
1, 624145, Note_on_c, 0, 89, 83
1, 624163, Note_off_c, 0, 89, 65
1, 624169, Note_off_c, 0, 55, 67
1, 624197, Note_off_c, 0, 81, 56
1, 624261, Note_on_c, 0, 46, 97
1, 624283, Note_on_c, 0, 44, 63
1, 624285, Note_off_c, 0, 93, 54
1, 624309, Note_off_c, 0, 44, 37
1, 624321, Note_off_c, 0, 46, 57
1, 624326, Note_off_c, 0, 88, 57
1, 624355, Note_on_c, 0, 57, 106
1, 624360, Note_on_c, 0, 88, 68
1, 624401, Note_off_c, 0, 57, 66
1, 624466, Note_on_c, 0, 48, 95
1, 624596, Note_on_c, 0, 52, 90
1, 624596, Note_on_c, 0, 60, 105
1, 624598, Note_on_c, 0, 58, 108
1, 624600, Note_on_c, 0, 82, 121
1, 624601, Note_on_c, 0, 94, 92
1, 624604, Note_on_c, 0, 91, 96
1, 624637, Note_off_c, 0, 94, 67
1, 624648, Note_off_c, 0, 91, 64
1, 624654, Note_off_c, 0, 82, 57
1, 624656, Note_off_c, 0, 88, 65
1, 624756, Note_off_c, 0, 60, 54
1, 624788, Note_off_c, 0, 58, 52
1, 624797, Note_off_c, 0, 52, 57
1, 624828, Note_off_c, 0, 48, 34
1, 625111, Control_c, 0, 64, 124
1, 625126, Control_c, 0, 64, 109
1, 625141, Control_c, 0, 64, 102
1, 625156, Control_c, 0, 64, 97
1, 625171, Control_c, 0, 64, 91
1, 625185, Control_c, 0, 64, 85
1, 625200, Control_c, 0, 64, 79
1, 625215, Control_c, 0, 64, 74
1, 625230, Control_c, 0, 64, 69
1, 625245, Control_c, 0, 64, 65
1, 625260, Control_c, 0, 64, 63
1, 625275, Control_c, 0, 64, 63
1, 625290, Control_c, 0, 64, 62
1, 625304, Control_c, 0, 64, 57
1, 625319, Control_c, 0, 64, 42
1, 625334, Control_c, 0, 64, 0
1, 626118, Note_on_c, 0, 47, 103
1, 626123, Note_on_c, 0, 35, 114
1, 626125, Note_on_c, 0, 23, 111
1, 626187, Note_on_c, 0, 28, 5
1, 626188, Note_off_c, 0, 28, 127
1, 626216, Control_c, 0, 64, 37
1, 626231, Control_c, 0, 64, 58
1, 626246, Control_c, 0, 64, 68
1, 626259, Note_off_c, 0, 47, 58
1, 626261, Control_c, 0, 64, 78
1, 626276, Control_c, 0, 64, 102
1, 626291, Control_c, 0, 64, 127
1, 626335, Note_off_c, 0, 23, 63
1, 626400, Note_off_c, 0, 35, 61
1, 627045, Note_on_c, 0, 54, 75
1, 627048, Note_on_c, 0, 66, 110
1, 627054, Note_on_c, 0, 63, 88
1, 627060, Note_on_c, 0, 59, 81
1, 627070, Note_on_c, 0, 90, 105
1, 627081, Note_on_c, 0, 99, 97
1, 627081, Note_on_c, 0, 102, 94
1, 627085, Note_on_c, 0, 95, 89
1, 627096, Note_off_c, 0, 66, 67
1, 627102, Note_off_c, 0, 95, 71
1, 627103, Note_off_c, 0, 90, 70
1, 627103, Note_off_c, 0, 102, 64
1, 627104, Note_off_c, 0, 54, 64
1, 627104, Note_off_c, 0, 63, 66
1, 627107, Note_off_c, 0, 59, 61
1, 627111, Note_off_c, 0, 99, 61
1, 627143, Note_on_c, 0, 63, 84
1, 627147, Note_on_c, 0, 65, 100
1, 627147, Note_on_c, 0, 103, 102
1, 627147, Note_on_c, 0, 67, 102
1, 627147, Note_on_c, 0, 99, 104
1, 627150, Note_on_c, 0, 59, 71
1, 627151, Note_on_c, 0, 53, 90
1, 627151, Note_on_c, 0, 91, 119
1, 627151, Note_on_c, 0, 95, 104
1, 627153, Note_on_c, 0, 89, 96
1, 627159, Note_on_c, 0, 96, 81
1, 627168, Note_on_c, 0, 101, 57
1, 627174, Note_off_c, 0, 96, 66
1, 627177, Note_on_c, 0, 64, 54
1, 627178, Note_off_c, 0, 64, 127
1, 627180, Note_on_c, 0, 56, 53
1, 627187, Note_off_c, 0, 101, 64
1, 627188, Note_off_c, 0, 103, 69
1, 627189, Note_off_c, 0, 99, 67
1, 627203, Note_on_c, 0, 93, 7
1, 627204, Note_off_c, 0, 93, 127
1, 627204, Note_off_c, 0, 56, 61
1, 627204, Poly_aftertouch_c, 0, 64, 0
1, 627204, Note_off_c, 0, 91, 62
1, 627206, Note_off_c, 0, 95, 64
1, 627208, Note_off_c, 0, 67, 61
1, 627212, Note_off_c, 0, 89, 64
1, 627213, Note_off_c, 0, 65, 55
1, 627214, Note_off_c, 0, 53, 62
1, 627272, Note_off_c, 0, 63, 59
1, 627311, Note_off_c, 0, 59, 33
1, 627654, Note_on_c, 0, 78, 94
1, 627658, Note_on_c, 0, 75, 87
1, 627659, Note_on_c, 0, 71, 85
1, 627731, Note_off_c, 0, 78, 64
1, 627738, Note_off_c, 0, 75, 60
1, 627740, Note_on_c, 0, 66, 100
1, 627752, Note_off_c, 0, 71, 66
1, 627772, Note_off_c, 0, 66, 68
1, 627812, Note_on_c, 0, 23, 113
1, 627874, Note_off_c, 0, 23, 64
1, 627945, Note_on_c, 0, 51, 67
1, 627946, Note_on_c, 0, 54, 64
1, 627947, Note_on_c, 0, 42, 87
1, 627954, Note_on_c, 0, 47, 73
1, 627969, Note_on_c, 0, 48, 47
1, 627975, Note_on_c, 0, 55, 53
1, 627981, Note_on_c, 0, 44, 33
1, 627982, Note_off_c, 0, 47, 64
1, 627984, Note_off_c, 0, 42, 60
1, 627993, Note_off_c, 0, 51, 56
1, 627993, Note_off_c, 0, 54, 59
1, 627996, Note_off_c, 0, 48, 51
1, 628000, Note_off_c, 0, 55, 51
1, 628013, Note_off_c, 0, 44, 38
1, 628038, Note_on_c, 0, 43, 82
1, 628043, Note_on_c, 0, 31, 73
1, 628048, Note_on_c, 0, 35, 52
1, 628069, Note_off_c, 0, 35, 55
1, 628071, Note_off_c, 0, 43, 66
1, 628080, Note_on_c, 0, 36, 22
1, 628081, Note_off_c, 0, 31, 63
1, 628100, Note_on_c, 0, 44, 93
1, 628107, Note_on_c, 0, 56, 85
1, 628122, Note_off_c, 0, 36, 36
1, 628142, Note_off_c, 0, 56, 62
1, 628146, Note_off_c, 0, 44, 64
1, 628178, Note_on_c, 0, 35, 35
1, 628179, Note_on_c, 0, 47, 89
1, 628215, Note_off_c, 0, 35, 64
1, 628223, Note_off_c, 0, 47, 66
1, 628247, Note_on_c, 0, 51, 75
1, 628249, Note_on_c, 0, 49, 84
1, 628250, Note_on_c, 0, 61, 80
1, 628264, Note_on_c, 0, 63, 46
1, 628268, Note_off_c, 0, 49, 68
1, 628272, Note_off_c, 0, 61, 66
1, 628274, Note_off_c, 0, 51, 67
1, 628291, Note_off_c, 0, 63, 40
1, 628318, Note_on_c, 0, 47, 89
1, 628320, Note_on_c, 0, 53, 93
1, 628321, Note_on_c, 0, 41, 84
1, 628356, Note_off_c, 0, 41, 66
1, 628360, Note_on_c, 0, 58, 90
1, 628361, Note_off_c, 0, 47, 62
1, 628361, Note_off_c, 0, 53, 64
1, 628366, Note_on_c, 0, 54, 87
1, 628370, Note_on_c, 0, 66, 81
1, 628390, Note_off_c, 0, 54, 67
1, 628396, Note_off_c, 0, 66, 62
1, 628408, Note_off_c, 0, 58, 63
1, 628431, Note_on_c, 0, 55, 91
1, 628432, Note_on_c, 0, 47, 79
1, 628470, Note_off_c, 0, 55, 66
1, 628471, Note_on_c, 0, 41, 18
1, 628473, Note_on_c, 0, 43, 33
1, 628477, Note_off_c, 0, 47, 63
1, 628479, Note_on_c, 0, 54, 94
1, 628488, Note_on_c, 0, 66, 73
1, 628499, Note_on_c, 0, 62, 61
1, 628499, Note_off_c, 0, 43, 35
1, 628501, Note_off_c, 0, 41, 40
1, 628505, Note_off_c, 0, 54, 67
1, 628506, Note_off_c, 0, 66, 64
1, 628509, Note_on_c, 0, 56, 43
1, 628510, Note_off_c, 0, 56, 127
1, 628510, Note_on_c, 0, 67, 62
1, 628518, Note_off_c, 0, 62, 61
1, 628527, Note_off_c, 0, 67, 65
1, 628552, Note_on_c, 0, 59, 102
1, 628560, Note_on_c, 0, 48, 58
1, 628562, Note_on_c, 0, 54, 72
1, 628571, Note_on_c, 0, 47, 64
1, 628593, Note_off_c, 0, 54, 59
1, 628594, Note_off_c, 0, 48, 65
1, 628595, Note_off_c, 0, 59, 66
1, 628598, Note_off_c, 0, 47, 61
1, 628613, Note_on_c, 0, 63, 101
1, 628616, Note_on_c, 0, 75, 97
1, 628631, Note_on_c, 0, 55, 22
1, 628643, Note_off_c, 0, 75, 60
1, 628649, Note_off_c, 0, 63, 65
1, 628677, Note_on_c, 0, 64, 104
1, 628682, Note_off_c, 0, 55, 33
1, 628689, Note_on_c, 0, 59, 91
1, 628700, Note_on_c, 0, 53, 70
1, 628701, Note_on_c, 0, 52, 60
1, 628712, Note_off_c, 0, 59, 66
1, 628721, Note_off_c, 0, 64, 67
1, 628724, Note_on_c, 0, 66, 96
1, 628726, Note_off_c, 0, 52, 60
1, 628727, Note_off_c, 0, 53, 67
1, 628731, Note_on_c, 0, 71, 85
1, 628733, Note_on_c, 0, 78, 89
1, 628753, Note_off_c, 0, 71, 67
1, 628758, Note_off_c, 0, 66, 66
1, 628764, Note_off_c, 0, 78, 58
1, 628796, Poly_aftertouch_c, 0, 56, 0
1, 628798, Note_on_c, 0, 67, 112
1, 628802, Note_on_c, 0, 55, 79
1, 628804, Note_on_c, 0, 59, 67
1, 628806, Note_on_c, 0, 60, 74
1, 628810, Poly_aftertouch_c, 0, 58, 0
1, 628828, Note_off_c, 0, 60, 68
1, 628828, Note_off_c, 0, 59, 66
1, 628831, Note_off_c, 0, 55, 68
1, 628836, Note_off_c, 0, 67, 69
1, 628843, Note_on_c, 0, 68, 102
1, 628845, Note_on_c, 0, 75, 74
1, 628849, Note_on_c, 0, 80, 90
1, 628867, Note_off_c, 0, 75, 69
1, 628877, Note_off_c, 0, 68, 65
1, 628882, Note_off_c, 0, 80, 58
1, 628915, Note_on_c, 0, 71, 102
1, 628917, Note_on_c, 0, 66, 83
1, 628918, Note_on_c, 0, 59, 94
1, 628941, Note_off_c, 0, 71, 71
1, 628954, Note_off_c, 0, 66, 62
1, 628963, Note_off_c, 0, 59, 65
1, 628974, Control_c, 0, 64, 86
1, 628985, Note_on_c, 0, 75, 109
1, 628987, Note_on_c, 0, 87, 99
1, 628989, Control_c, 0, 64, 58
1, 629004, Control_c, 0, 64, 0
1, 629018, Note_off_c, 0, 75, 69
1, 629027, Note_on_c, 0, 85, 30
1, 629028, Note_off_c, 0, 85, 127
1, 629030, Note_off_c, 0, 87, 64
1, 629103, Note_on_c, 0, 47, 120
1, 629106, Note_on_c, 0, 35, 105
1, 629108, Control_c, 0, 64, 22
1, 629123, Control_c, 0, 64, 65
1, 629128, Note_off_c, 0, 35, 74
1, 629134, Note_off_c, 0, 47, 71
1, 629138, Control_c, 0, 64, 84
1, 629142, Note_on_c, 0, 37, 49
1, 629143, Note_off_c, 0, 37, 127
1, 629152, Control_c, 0, 64, 127
1, 629153, Note_on_c, 0, 38, 26
1, 629154, Note_off_c, 0, 38, 127
1, 629177, Poly_aftertouch_c, 0, 37, 0
1, 629272, Note_on_c, 0, 54, 89
1, 629336, Note_on_c, 0, 53, 12
1, 629386, Note_off_c, 0, 53, 34
1, 629388, Note_on_c, 0, 66, 105
1, 629389, Note_on_c, 0, 78, 104
1, 629389, Note_on_c, 0, 90, 100
1, 629397, Note_on_c, 0, 80, 94
1, 629398, Note_on_c, 0, 63, 84
1, 629401, Note_on_c, 0, 83, 75
1, 629402, Note_on_c, 0, 59, 60
1, 629410, Note_on_c, 0, 87, 65
1, 629417, Note_on_c, 0, 84, 56
1, 629418, Note_off_c, 0, 63, 69
1, 629421, Note_off_c, 0, 54, 65
1, 629421, Note_off_c, 0, 66, 69
1, 629422, Note_off_c, 0, 80, 56
1, 629424, Note_off_c, 0, 59, 56
1, 629425, Note_off_c, 0, 83, 66
1, 629426, Note_off_c, 0, 90, 67
1, 629427, Note_off_c, 0, 87, 65
1, 629428, Note_off_c, 0, 78, 61
1, 629436, Note_off_c, 0, 84, 65
1, 629456, Note_on_c, 0, 91, 11
1, 629471, Control_c, 0, 64, 101
1, 629473, Note_on_c, 0, 57, 85
1, 629474, Note_on_c, 0, 69, 114
1, 629475, Note_on_c, 0, 89, 112
1, 629475, Note_on_c, 0, 93, 102
1, 629476, Note_on_c, 0, 81, 97
1, 629477, Note_on_c, 0, 85, 98
1, 629477, Note_on_c, 0, 83, 88
1, 629485, Note_on_c, 0, 59, 71
1, 629485, Note_on_c, 0, 65, 90
1, 629485, Control_c, 0, 64, 66
1, 629493, Note_on_c, 0, 62, 70
1, 629493, Note_off_c, 0, 91, 30
1, 629497, Note_on_c, 0, 61, 39
1, 629498, Note_on_c, 0, 60, 48
1, 629499, Note_on_c, 0, 88, 65
1, 629500, Note_off_c, 0, 88, 127
1, 629500, Control_c, 0, 64, 48
1, 629515, Control_c, 0, 64, 49
1, 629526, Note_off_c, 0, 60, 52
1, 629529, Control_c, 0, 64, 61
1, 629544, Control_c, 0, 64, 75
1, 629548, Note_off_c, 0, 61, 41
1, 629561, Control_c, 0, 64, 92
1, 629565, Note_off_c, 0, 59, 0
1, 629575, Control_c, 0, 64, 127
1, 629576, Note_off_c, 0, 62, 0
1, 629587, Note_on_c, 0, 60, 27
1, 629602, Poly_aftertouch_c, 0, 59, 127
1, 629613, Poly_aftertouch_c, 0, 62, 127
1, 629637, Note_off_c, 0, 60, 44
1, 629708, Note_off_c, 0, 69, 53
1, 629713, Note_off_c, 0, 57, 59
1, 629716, Note_off_c, 0, 93, 54
1, 629768, Note_off_c, 0, 83, 42
1, 629777, Note_off_c, 0, 81, 47
1, 629782, Note_off_c, 0, 65, 57
1, 629802, Poly_aftertouch_c, 0, 62, 0
1, 629829, Poly_aftertouch_c, 0, 59, 0
1, 629868, Note_off_c, 0, 85, 60
1, 630001, Note_on_c, 0, 66, 109
1, 630002, Note_on_c, 0, 54, 92
1, 630005, Note_on_c, 0, 63, 92
1, 630005, Note_on_c, 0, 78, 116
1, 630008, Note_on_c, 0, 90, 83
1, 630008, Note_on_c, 0, 83, 95
1, 630013, Note_on_c, 0, 87, 89
1, 630014, Note_on_c, 0, 59, 85
1, 630023, Note_off_c, 0, 90, 73
1, 630025, Note_off_c, 0, 83, 70
1, 630026, Note_off_c, 0, 89, 64
1, 630027, Note_off_c, 0, 66, 72
1, 630027, Note_off_c, 0, 87, 75
1, 630030, Note_off_c, 0, 78, 70
1, 630032, Note_off_c, 0, 63, 64
1, 630039, Note_off_c, 0, 59, 66
1, 630047, Note_off_c, 0, 54, 64
1, 630309, Control_c, 0, 64, 118
1, 630324, Control_c, 0, 64, 68
1, 630339, Control_c, 0, 64, 46
1, 630361, Note_on_c, 0, 47, 107
1, 630365, Note_on_c, 0, 45, 104
1, 630369, Control_c, 0, 64, 62
1, 630371, Note_on_c, 0, 35, 112
1, 630374, Note_on_c, 0, 23, 118
1, 630384, Note_on_c, 0, 33, 77
1, 630384, Control_c, 0, 64, 83
1, 630385, Note_off_c, 0, 45, 70
1, 630392, Note_off_c, 0, 47, 66
1, 630393, Note_on_c, 0, 25, 59
1, 630396, Note_off_c, 0, 23, 70
1, 630399, Control_c, 0, 64, 127
1, 630400, Note_off_c, 0, 35, 69
1, 630409, Note_off_c, 0, 33, 35
1, 630429, Note_off_c, 0, 25, 37
1, 630796, Note_on_c, 0, 54, 75
1, 630803, Note_on_c, 0, 66, 99
1, 630809, Note_on_c, 0, 63, 81
1, 630813, Note_on_c, 0, 59, 76
1, 630845, Note_off_c, 0, 66, 66
1, 630846, Note_on_c, 0, 90, 104
1, 630848, Note_on_c, 0, 99, 100
1, 630848, Note_off_c, 0, 63, 59
1, 630851, Note_off_c, 0, 59, 65
1, 630854, Note_off_c, 0, 54, 63
1, 630856, Note_on_c, 0, 102, 79
1, 630861, Note_off_c, 0, 99, 76
1, 630862, Note_on_c, 0, 95, 60
1, 630863, Note_off_c, 0, 95, 127
1, 630863, Note_off_c, 0, 90, 69
1, 630873, Note_on_c, 0, 96, 51
1, 630874, Note_off_c, 0, 96, 127
1, 630876, Note_on_c, 0, 103, 50
1, 630877, Note_off_c, 0, 103, 127
1, 630878, Note_off_c, 0, 102, 64
1, 630888, Note_on_c, 0, 63, 93
1, 630890, Note_on_c, 0, 67, 102
1, 630892, Note_on_c, 0, 53, 94
1, 630893, Note_on_c, 0, 65, 100
1, 630897, Note_on_c, 0, 59, 72
1, 630901, Note_on_c, 0, 91, 91
1, 630903, Note_on_c, 0, 99, 97
1, 630904, Note_on_c, 0, 96, 62
1, 630911, Note_on_c, 0, 93, 78
1, 630912, Note_on_c, 0, 89, 82
1, 630917, Poly_aftertouch_c, 0, 103, 127
1, 630918, Note_off_c, 0, 99, 75
1, 630923, Note_on_c, 0, 55, 53
1, 630924, Note_off_c, 0, 93, 69
1, 630927, Poly_aftertouch_c, 0, 103, 0
1, 630927, Note_off_c, 0, 65, 62
1, 630927, Note_off_c, 0, 67, 68
1, 630931, Note_off_c, 0, 96, 67
1, 630938, Note_off_c, 0, 91, 66
1, 630947, Note_off_c, 0, 53, 61
1, 630947, Note_off_c, 0, 63, 61
1, 630949, Note_off_c, 0, 89, 55
1, 630950, Note_off_c, 0, 59, 61
1, 630953, Note_off_c, 0, 55, 37
1, 631004, Poly_aftertouch_c, 0, 56, 0
1, 631185, Note_on_c, 0, 71, 82
1, 631186, Note_on_c, 0, 78, 87
1, 631192, Note_on_c, 0, 75, 74
1, 631241, Note_off_c, 0, 78, 64
1, 631242, Note_off_c, 0, 75, 63
1, 631248, Note_on_c, 0, 66, 95
1, 631262, Note_off_c, 0, 71, 62
1, 631266, Control_c, 0, 64, 103
1, 631278, Note_off_c, 0, 66, 66
1, 631280, Control_c, 0, 64, 68
1, 631295, Control_c, 0, 64, 59
1, 631310, Control_c, 0, 64, 67
1, 631319, Note_on_c, 0, 23, 113
1, 631325, Control_c, 0, 64, 82
1, 631330, Note_on_c, 0, 21, 76
1, 631331, Note_off_c, 0, 21, 127
1, 631340, Control_c, 0, 64, 127
1, 631372, Note_off_c, 0, 23, 65
1, 631441, Note_on_c, 0, 51, 72
1, 631448, Note_on_c, 0, 47, 59
1, 631451, Note_on_c, 0, 42, 84
1, 631453, Note_on_c, 0, 54, 69
1, 631455, Note_on_c, 0, 44, 67
1, 631469, Note_off_c, 0, 47, 62
1, 631477, Note_off_c, 0, 51, 63
1, 631478, Note_off_c, 0, 44, 56
1, 631482, Note_off_c, 0, 42, 63
1, 631483, Note_off_c, 0, 54, 55
1, 631520, Note_on_c, 0, 43, 89
1, 631532, Note_on_c, 0, 31, 73
1, 631544, Note_on_c, 0, 39, 56
1, 631552, Note_off_c, 0, 43, 67
1, 631558, Note_off_c, 0, 31, 67
1, 631580, Note_off_c, 0, 39, 47
1, 631589, Note_on_c, 0, 44, 86
1, 631602, Note_on_c, 0, 56, 78
1, 631627, Note_off_c, 0, 56, 68
1, 631630, Note_off_c, 0, 44, 63
1, 631664, Note_on_c, 0, 47, 84
1, 631672, Note_on_c, 0, 35, 75
1, 631694, Note_off_c, 0, 35, 63
1, 631705, Note_off_c, 0, 47, 65
1, 631721, Note_on_c, 0, 51, 90
1, 631728, Note_on_c, 0, 63, 85
1, 631747, Note_off_c, 0, 51, 66
1, 631754, Note_off_c, 0, 63, 63
1, 631792, Note_on_c, 0, 53, 91
1, 631793, Note_on_c, 0, 47, 82
1, 631794, Note_on_c, 0, 41, 80
1, 631801, Note_on_c, 0, 46, 70
1, 631821, Note_off_c, 0, 46, 63
1, 631826, Note_off_c, 0, 41, 66
1, 631834, Note_off_c, 0, 53, 64
1, 631838, Note_off_c, 0, 47, 63
1, 631847, Note_on_c, 0, 60, 77
1, 631849, Note_on_c, 0, 54, 88
1, 631857, Note_on_c, 0, 56, 65
1, 631865, Note_on_c, 0, 66, 54
1, 631869, Note_off_c, 0, 54, 71
1, 631873, Note_off_c, 0, 60, 66
1, 631874, Note_off_c, 0, 56, 65
1, 631886, Note_on_c, 0, 59, 33
1, 631890, Note_off_c, 0, 66, 50
1, 631899, Note_on_c, 0, 47, 71
1, 631899, Note_on_c, 0, 67, 20
1, 631906, Note_on_c, 0, 46, 44
1, 631906, Note_on_c, 0, 55, 86
1, 631917, Note_on_c, 0, 53, 65
1, 631919, Note_on_c, 0, 43, 57
1, 631925, Note_on_c, 0, 41, 35
1, 631926, Note_off_c, 0, 59, 50
1, 631927, Note_off_c, 0, 46, 61
1, 631931, Note_off_c, 0, 53, 67
1, 631937, Note_off_c, 0, 43, 63
1, 631938, Poly_aftertouch_c, 0, 63, 0
1, 631945, Note_off_c, 0, 55, 66
1, 631946, Note_off_c, 0, 67, 37
1, 631947, Note_off_c, 0, 47, 65
1, 631949, Note_off_c, 0, 41, 36
1, 631958, Note_on_c, 0, 56, 80
1, 631967, Note_on_c, 0, 63, 59
1, 631971, Note_on_c, 0, 68, 83
1, 631979, Note_on_c, 0, 58, 62
1, 631983, Note_on_c, 0, 66, 39
1, 631987, Note_off_c, 0, 63, 69
1, 631991, Note_off_c, 0, 68, 71
1, 631993, Note_off_c, 0, 56, 63
1, 632000, Note_off_c, 0, 58, 39
1, 632012, Note_off_c, 0, 66, 45
1, 632021, Note_on_c, 0, 59, 92
1, 632035, Note_on_c, 0, 47, 82
1, 632041, Note_on_c, 0, 48, 69
1, 632053, Note_on_c, 0, 55, 47
1, 632058, Note_off_c, 0, 47, 70
1, 632058, Note_off_c, 0, 59, 67
1, 632065, Note_off_c, 0, 48, 67
1, 632077, Note_off_c, 0, 55, 40
1, 632089, Note_on_c, 0, 75, 95
1, 632111, Poly_aftertouch_c, 0, 63, 127
1, 632112, Note_off_c, 0, 75, 64
1, 632123, Poly_aftertouch_c, 0, 63, 0
1, 632148, Note_on_c, 0, 65, 97
1, 632149, Note_on_c, 0, 59, 96
1, 632151, Note_on_c, 0, 53, 93
1, 632172, Note_on_c, 0, 60, 52
1, 632184, Note_off_c, 0, 65, 66
1, 632187, Note_off_c, 0, 53, 63
1, 632195, Note_off_c, 0, 59, 64
1, 632207, Note_on_c, 0, 66, 102
1, 632208, Note_off_c, 0, 60, 23
1, 632213, Note_on_c, 0, 78, 91
1, 632214, Note_on_c, 0, 71, 78
1, 632235, Note_off_c, 0, 71, 71
1, 632236, Note_off_c, 0, 78, 63
1, 632240, Note_off_c, 0, 66, 66
1, 632255, Note_on_c, 0, 59, 79
1, 632258, Note_on_c, 0, 67, 93
1, 632267, Note_on_c, 0, 55, 75
1, 632268, Note_on_c, 0, 65, 74
1, 632281, Note_off_c, 0, 65, 66
1, 632288, Note_off_c, 0, 55, 66
1, 632295, Note_off_c, 0, 59, 67
1, 632295, Note_off_c, 0, 67, 67
1, 632314, Note_on_c, 0, 68, 99
1, 632328, Note_on_c, 0, 80, 85
1, 632330, Note_on_c, 0, 75, 84
1, 632346, Note_off_c, 0, 75, 74
1, 632347, Note_off_c, 0, 68, 65
1, 632348, Note_off_c, 0, 80, 65
1, 632352, Note_on_c, 0, 65, 32
1, 632374, Note_off_c, 0, 65, 50
1, 632379, Note_on_c, 0, 71, 105
1, 632380, Note_on_c, 0, 66, 94
1, 632384, Note_on_c, 0, 59, 96
1, 632404, Note_off_c, 0, 71, 67
1, 632422, Note_off_c, 0, 66, 65
1, 632423, Note_off_c, 0, 59, 67
1, 632457, Note_on_c, 0, 75, 104
1, 632458, Note_on_c, 0, 87, 95
1, 632466, Control_c, 0, 64, 69
1, 632481, Control_c, 0, 64, 32
1, 632487, Note_off_c, 0, 75, 66
1, 632495, Control_c, 0, 64, 0
1, 632496, Note_off_c, 0, 87, 62
1, 632554, Control_c, 0, 64, 23
1, 632560, Note_on_c, 0, 47, 109
1, 632569, Note_on_c, 0, 33, 85
1, 632569, Control_c, 0, 64, 60
1, 632572, Note_on_c, 0, 35, 92
1, 632573, Note_on_c, 0, 45, 81
1, 632584, Control_c, 0, 64, 75
1, 632587, Note_off_c, 0, 33, 69
1, 632589, Note_off_c, 0, 47, 72
1, 632592, Note_off_c, 0, 45, 43
1, 632593, Note_off_c, 0, 35, 67
1, 632599, Control_c, 0, 64, 94
1, 632614, Control_c, 0, 64, 127
1, 632673, Note_on_c, 0, 35, 12
1, 632674, Note_off_c, 0, 35, 127
1, 632676, Note_on_c, 0, 33, 11
1, 632706, Note_off_c, 0, 33, 31
1, 632752, Note_on_c, 0, 54, 86
1, 632779, Note_on_c, 0, 53, 61
1, 632791, Note_on_c, 0, 58, 43
1, 632801, Note_off_c, 0, 53, 60
1, 632823, Note_off_c, 0, 58, 53
1, 632849, Note_on_c, 0, 78, 114
1, 632849, Note_on_c, 0, 66, 106
1, 632850, Note_on_c, 0, 90, 103
1, 632853, Note_on_c, 0, 58, 72
1, 632855, Note_on_c, 0, 83, 93
1, 632861, Note_on_c, 0, 63, 85
1, 632871, Note_on_c, 0, 80, 66
1, 632872, Note_on_c, 0, 87, 68
1, 632874, Note_off_c, 0, 83, 69
1, 632882, Note_off_c, 0, 66, 69
1, 632883, Note_off_c, 0, 63, 70
1, 632885, Note_off_c, 0, 54, 66
1, 632885, Note_off_c, 0, 58, 64
1, 632888, Note_off_c, 0, 90, 68
1, 632890, Note_off_c, 0, 87, 40
1, 632891, Note_off_c, 0, 80, 39
1, 632894, Note_off_c, 0, 78, 64
1, 632899, Note_on_c, 0, 91, 31
1, 632935, Note_off_c, 0, 91, 37
1, 632939, Note_on_c, 0, 89, 100
1, 632940, Note_on_c, 0, 57, 85
1, 632941, Note_on_c, 0, 61, 84
1, 632941, Note_on_c, 0, 69, 126
1, 632941, Control_c, 0, 64, 101
1, 632942, Note_on_c, 0, 85, 98
1, 632942, Note_on_c, 0, 81, 102
1, 632943, Note_on_c, 0, 93, 106
1, 632944, Note_on_c, 0, 83, 91
1, 632947, Note_on_c, 0, 65, 95
1, 632953, Poly_aftertouch_c, 0, 56, 0
1, 632956, Control_c, 0, 64, 63
1, 632966, Note_on_c, 0, 59, 66
1, 632966, Note_on_c, 0, 88, 66
1, 632970, Control_c, 0, 64, 19
1, 632985, Control_c, 0, 64, 0
1, 632986, Note_off_c, 0, 59, 61
1, 632989, Note_off_c, 0, 88, 40
1, 633025, Note_on_c, 0, 60, 2
1, 633064, Note_off_c, 0, 60, 25
1, 633082, Control_c, 0, 64, 15
1, 633094, Poly_aftertouch_c, 0, 59, 127
1, 633097, Control_c, 0, 64, 46
1, 633112, Control_c, 0, 64, 63
1, 633126, Control_c, 0, 64, 71
1, 633141, Control_c, 0, 64, 83
1, 633156, Control_c, 0, 64, 98
1, 633171, Control_c, 0, 64, 127
1, 633204, Note_off_c, 0, 69, 48
1, 633210, Note_off_c, 0, 57, 55
1, 633223, Note_off_c, 0, 93, 57
1, 633264, Note_off_c, 0, 83, 45
1, 633275, Note_off_c, 0, 81, 53
1, 633316, Note_off_c, 0, 65, 54
1, 633354, Poly_aftertouch_c, 0, 59, 0
1, 633379, Note_off_c, 0, 61, 60
1, 633388, Note_off_c, 0, 85, 57
1, 633529, Note_off_c, 0, 89, 59
1, 633554, Note_on_c, 0, 54, 84
1, 633556, Note_on_c, 0, 66, 104
1, 633559, Note_on_c, 0, 78, 114
1, 633561, Note_on_c, 0, 83, 99
1, 633561, Note_on_c, 0, 87, 90
1, 633563, Note_on_c, 0, 63, 90
1, 633563, Note_on_c, 0, 90, 90
1, 633570, Note_on_c, 0, 59, 89
1, 633587, Note_off_c, 0, 66, 68
1, 633591, Note_off_c, 0, 83, 63
1, 633593, Note_off_c, 0, 78, 59
1, 633597, Note_off_c, 0, 54, 65
1, 633597, Note_off_c, 0, 87, 62
1, 633598, Note_off_c, 0, 63, 65
1, 633600, Note_off_c, 0, 90, 66
1, 633600, Note_off_c, 0, 59, 61
1, 633809, Control_c, 0, 64, 93
1, 633831, Control_c, 0, 64, 69
1, 633846, Control_c, 0, 64, 49
1, 633861, Control_c, 0, 64, 0
1, 634162, Note_on_c, 0, 83, 104
1, 634162, Note_on_c, 0, 92, 101
1, 634164, Note_on_c, 0, 88, 97
1, 634164, Note_on_c, 0, 95, 93
1, 634167, Note_on_c, 0, 58, 100
1, 634169, Note_on_c, 0, 64, 114
1, 634172, Control_c, 0, 64, 39
1, 634176, Note_on_c, 0, 52, 86
1, 634176, Note_on_c, 0, 56, 79
1, 634187, Control_c, 0, 64, 63
1, 634189, Note_on_c, 0, 62, 51
1, 634201, Control_c, 0, 64, 69
1, 634202, Note_off_c, 0, 56, 64
1, 634203, Note_on_c, 0, 90, 32
1, 634204, Note_off_c, 0, 90, 127
1, 634207, Note_off_c, 0, 52, 63
1, 634209, Note_off_c, 0, 64, 59
1, 634214, Note_off_c, 0, 62, 38
1, 634216, Control_c, 0, 64, 75
1, 634231, Control_c, 0, 64, 84
1, 634245, Control_c, 0, 64, 99
1, 634254, Note_off_c, 0, 83, 47
1, 634256, Note_off_c, 0, 58, 59
1, 634260, Control_c, 0, 64, 127
1, 634266, Note_on_c, 0, 56, 46
1, 634292, Note_off_c, 0, 95, 60
1, 634297, Note_on_c, 0, 52, 76
1, 634297, Note_off_c, 0, 56, 63
1, 634298, Note_off_c, 0, 92, 61
1, 634369, Note_off_c, 0, 88, 57
1, 634400, Note_on_c, 0, 88, 86
1, 634402, Note_on_c, 0, 64, 101
1, 634404, Note_on_c, 0, 58, 96
1, 634404, Note_on_c, 0, 84, 102
1, 634405, Note_on_c, 0, 61, 71
1, 634405, Note_on_c, 0, 96, 95
1, 634406, Note_on_c, 0, 90, 100
1, 634407, Note_on_c, 0, 94, 98
1, 634408, Note_on_c, 0, 60, 97
1, 634410, Control_c, 0, 64, 71
1, 634413, Note_on_c, 0, 54, 84
1, 634424, Control_c, 0, 64, 30
1, 634429, Note_off_c, 0, 61, 66
1, 634439, Control_c, 0, 64, 0
1, 634527, Control_c, 0, 64, 43
1, 634541, Control_c, 0, 64, 63
1, 634556, Control_c, 0, 64, 78
1, 634557, Note_off_c, 0, 96, 45
1, 634558, Note_off_c, 0, 64, 57
1, 634578, Control_c, 0, 64, 103
1, 634593, Control_c, 0, 64, 127
1, 634610, Note_off_c, 0, 84, 46
1, 634614, Note_off_c, 0, 60, 59
1, 634649, Note_off_c, 0, 58, 58
1, 634653, Note_off_c, 0, 94, 58
1, 634665, Note_off_c, 0, 52, 33
1, 634678, Note_off_c, 0, 88, 55
1, 634679, Note_off_c, 0, 90, 57
1, 634682, Note_off_c, 0, 54, 62
1, 635135, Note_on_c, 0, 28, 109
1, 635186, Note_off_c, 0, 28, 65
1, 635301, Note_on_c, 0, 47, 82
1, 635303, Note_on_c, 0, 52, 73
1, 635318, Note_on_c, 0, 53, 55
1, 635319, Note_on_c, 0, 59, 63
1, 635326, Note_on_c, 0, 60, 51
1, 635341, Note_off_c, 0, 53, 57
1, 635347, Note_off_c, 0, 60, 56
1, 635357, Note_off_c, 0, 47, 62
1, 635362, Note_off_c, 0, 59, 61
1, 635372, Note_off_c, 0, 52, 63
1, 635422, Note_on_c, 0, 48, 54
1, 635425, Note_on_c, 0, 36, 72
1, 635426, Note_on_c, 0, 44, 81
1, 635477, Note_off_c, 0, 44, 63
1, 635480, Note_off_c, 0, 48, 62
1, 635481, Note_off_c, 0, 36, 65
1, 635493, Note_on_c, 0, 49, 91
1, 635496, Note_on_c, 0, 61, 77
1, 635538, Note_off_c, 0, 49, 61
1, 635546, Note_off_c, 0, 61, 62
1, 635583, Note_on_c, 0, 52, 85
1, 635583, Note_on_c, 0, 47, 81
1, 635584, Note_on_c, 0, 40, 79
1, 635609, Note_off_c, 0, 40, 66
1, 635616, Note_off_c, 0, 47, 65
1, 635625, Note_off_c, 0, 52, 64
1, 635651, Note_on_c, 0, 56, 77
1, 635657, Note_on_c, 0, 68, 67
1, 635674, Note_off_c, 0, 56, 67
1, 635689, Note_on_c, 0, 66, 36
1, 635690, Note_off_c, 0, 68, 58
1, 635720, Note_on_c, 0, 51, 75
1, 635721, Note_off_c, 0, 66, 33
1, 635730, Note_on_c, 0, 58, 90
1, 635738, Note_on_c, 0, 46, 65
1, 635744, Note_on_c, 0, 52, 68
1, 635754, Poly_aftertouch_c, 0, 54, 0
1, 635768, Note_off_c, 0, 51, 50
1, 635778, Note_on_c, 0, 63, 79
1, 635778, Note_off_c, 0, 46, 59
1, 635780, Note_off_c, 0, 52, 58
1, 635782, Note_off_c, 0, 58, 62
1, 635788, Note_on_c, 0, 59, 80
1, 635788, Note_on_c, 0, 71, 78
1, 635800, Note_on_c, 0, 64, 73
1, 635805, Note_off_c, 0, 63, 65
1, 635811, Note_off_c, 0, 59, 68
1, 635812, Note_off_c, 0, 71, 66
1, 635821, Note_off_c, 0, 64, 70
1, 635852, Note_on_c, 0, 48, 74
1, 635852, Note_on_c, 0, 56, 82
1, 635857, Note_on_c, 0, 60, 82
1, 635875, Note_on_c, 0, 59, 59
1, 635893, Note_off_c, 0, 59, 64
1, 635893, Note_off_c, 0, 60, 65
1, 635899, Note_off_c, 0, 48, 61
1, 635905, Note_off_c, 0, 56, 62
1, 635909, Note_on_c, 0, 61, 97
1, 635914, Note_on_c, 0, 73, 82
1, 635920, Note_on_c, 0, 68, 68
1, 635930, Note_off_c, 0, 61, 67
1, 635937, Note_off_c, 0, 68, 67
1, 635950, Note_off_c, 0, 73, 58
1, 635964, Note_on_c, 0, 58, 87
1, 635972, Note_on_c, 0, 64, 87
1, 635974, Note_on_c, 0, 62, 78
1, 635983, Note_on_c, 0, 50, 55
1, 635993, Note_on_c, 0, 52, 50
1, 635995, Note_off_c, 0, 62, 69
1, 636000, Note_off_c, 0, 58, 62
1, 636000, Note_off_c, 0, 64, 66
1, 636008, Note_off_c, 0, 50, 54
1, 636018, Note_off_c, 0, 52, 51
1, 636028, Note_on_c, 0, 68, 71
1, 636036, Note_on_c, 0, 80, 80
1, 636043, Note_on_c, 0, 66, 67
1, 636046, Note_on_c, 0, 78, 76
1, 636058, Note_off_c, 0, 80, 63
1, 636060, Note_off_c, 0, 68, 64
1, 636061, Note_off_c, 0, 66, 66
1, 636075, Note_off_c, 0, 78, 68
1, 636097, Note_on_c, 0, 70, 102
1, 636103, Note_on_c, 0, 58, 85
1, 636107, Note_on_c, 0, 64, 78
1, 636116, Note_on_c, 0, 65, 60
1, 636137, Note_off_c, 0, 65, 65
1, 636139, Note_off_c, 0, 70, 64
1, 636145, Note_off_c, 0, 64, 51
1, 636149, Note_off_c, 0, 58, 60
1, 636155, Note_on_c, 0, 71, 89
1, 636158, Note_on_c, 0, 76, 94
1, 636158, Note_on_c, 0, 83, 89
1, 636162, Note_on_c, 0, 75, 58
1, 636163, Note_off_c, 0, 75, 127
1, 636175, Note_off_c, 0, 71, 70
1, 636178, Note_off_c, 0, 76, 67
1, 636182, Note_off_c, 0, 83, 64
1, 636213, Note_on_c, 0, 68, 89
1, 636217, Note_on_c, 0, 60, 73
1, 636218, Note_on_c, 0, 72, 93
1, 636255, Note_off_c, 0, 60, 63
1, 636256, Note_off_c, 0, 72, 65
1, 636262, Note_off_c, 0, 68, 66
1, 636264, Note_on_c, 0, 73, 100
1, 636267, Note_on_c, 0, 85, 87
1, 636275, Note_on_c, 0, 80, 77
1, 636288, Note_off_c, 0, 73, 62
1, 636295, Note_off_c, 0, 80, 69
1, 636301, Note_off_c, 0, 85, 59
1, 636303, Poly_aftertouch_c, 0, 65, 0
1, 636325, Note_on_c, 0, 76, 101
1, 636326, Note_on_c, 0, 74, 88
1, 636329, Note_on_c, 0, 71, 73
1, 636331, Note_on_c, 0, 64, 77
1, 636336, Note_on_c, 0, 62, 68
1, 636346, Note_on_c, 0, 70, 61
1, 636347, Note_off_c, 0, 74, 67
1, 636355, Note_off_c, 0, 62, 58
1, 636356, Note_off_c, 0, 64, 67
1, 636360, Note_off_c, 0, 71, 67
1, 636360, Note_off_c, 0, 76, 67
1, 636361, Note_off_c, 0, 70, 69
1, 636390, Note_on_c, 0, 80, 100
1, 636391, Note_on_c, 0, 92, 97
1, 636420, Note_on_c, 0, 90, 47
1, 636425, Note_off_c, 0, 80, 65
1, 636432, Note_off_c, 0, 92, 63
1, 636433, Note_on_c, 0, 70, 75
1, 636439, Note_on_c, 0, 82, 96
1, 636442, Note_off_c, 0, 90, 59
1, 636454, Note_on_c, 0, 76, 76
1, 636455, Note_on_c, 0, 78, 65
1, 636460, Note_on_c, 0, 80, 38
1, 636470, Note_on_c, 0, 73, 46
1, 636476, Note_off_c, 0, 78, 62
1, 636479, Note_off_c, 0, 76, 56
1, 636486, Note_off_c, 0, 80, 33
1, 636491, Note_off_c, 0, 70, 64
1, 636492, Note_off_c, 0, 73, 58
1, 636492, Note_off_c, 0, 82, 65
1, 636511, Note_on_c, 0, 83, 107
1, 636513, Note_on_c, 0, 95, 97
1, 636525, Note_on_c, 0, 90, 66
1, 636542, Note_off_c, 0, 90, 65
1, 636544, Note_off_c, 0, 83, 67
1, 636549, Note_off_c, 0, 95, 67
1, 636567, Note_on_c, 0, 73, 63
1, 636573, Note_on_c, 0, 84, 98
1, 636575, Note_on_c, 0, 83, 85
1, 636579, Note_on_c, 0, 78, 63
1, 636584, Note_on_c, 0, 82, 87
1, 636590, Note_on_c, 0, 72, 66
1, 636599, Note_off_c, 0, 78, 62
1, 636602, Note_off_c, 0, 82, 71
1, 636608, Note_off_c, 0, 72, 64
1, 636612, Note_off_c, 0, 83, 65
1, 636613, Note_off_c, 0, 84, 67
1, 636621, Note_off_c, 0, 73, 65
1, 636642, Note_on_c, 0, 97, 97
1, 636646, Note_on_c, 0, 85, 104
1, 636668, Note_off_c, 0, 85, 65
1, 636674, Note_off_c, 0, 97, 66
1, 636703, Note_on_c, 0, 88, 109
1, 636705, Note_on_c, 0, 76, 87
1, 636708, Note_on_c, 0, 84, 87
1, 636730, Note_on_c, 0, 81, 67
1, 636733, Note_on_c, 0, 80, 59
1, 636736, Note_off_c, 0, 88, 68
1, 636748, Note_off_c, 0, 84, 66
1, 636751, Note_off_c, 0, 76, 63
1, 636755, Note_off_c, 0, 81, 68
1, 636756, Note_on_c, 0, 83, 6
1, 636757, Note_off_c, 0, 83, 127
1, 636757, Note_off_c, 0, 80, 64
1, 636802, Note_on_c, 0, 104, 114
1, 636802, Note_on_c, 0, 92, 120
1, 636828, Poly_aftertouch_c, 0, 77, 0
1, 636829, Note_on_c, 0, 102, 61
1, 636830, Note_off_c, 0, 102, 127
1, 636844, Note_on_c, 0, 94, 53
1, 636845, Note_off_c, 0, 94, 127
1, 636847, Note_on_c, 0, 105, 41
1, 636873, Note_off_c, 0, 105, 40
1, 636944, Control_c, 0, 64, 88
1, 636959, Control_c, 0, 64, 57
1, 636974, Control_c, 0, 64, 0
1, 636987, Note_on_c, 0, 52, 118
1, 636989, Note_on_c, 0, 40, 99
1, 636999, Note_off_c, 0, 104, 64
1, 637004, Control_c, 0, 64, 54
1, 637010, Note_off_c, 0, 40, 73
1, 637016, Note_off_c, 0, 52, 70
1, 637016, Note_off_c, 0, 92, 66
1, 637018, Control_c, 0, 64, 70
1, 637023, Note_on_c, 0, 41, 53
1, 637024, Note_off_c, 0, 41, 127
1, 637033, Control_c, 0, 64, 89
1, 637048, Control_c, 0, 64, 127
1, 637087, Note_on_c, 0, 40, 17
1, 637099, Note_off_c, 0, 40, 39
1, 637201, Note_on_c, 0, 52, 58
1, 637209, Note_on_c, 0, 50, 65
1, 637234, Note_off_c, 0, 50, 63
1, 637311, Note_on_c, 0, 56, 53
1, 637314, Note_on_c, 0, 64, 104
1, 637314, Note_on_c, 0, 71, 109
1, 637314, Note_on_c, 0, 76, 97
1, 637315, Note_on_c, 0, 83, 97
1, 637316, Note_on_c, 0, 59, 90
1, 637321, Note_on_c, 0, 80, 94
1, 637347, Note_off_c, 0, 52, 62
1, 637353, Note_off_c, 0, 64, 68
1, 637357, Note_off_c, 0, 59, 66
1, 637364, Note_off_c, 0, 71, 62
1, 637364, Note_off_c, 0, 76, 62
1, 637374, Note_off_c, 0, 56, 64
1, 637377, Note_off_c, 0, 80, 61
1, 637381, Note_off_c, 0, 83, 64
1, 637434, Note_on_c, 0, 67, 101
1, 637437, Note_on_c, 0, 55, 94
1, 637437, Note_on_c, 0, 74, 111
1, 637437, Note_on_c, 0, 79, 101
1, 637438, Note_on_c, 0, 58, 99
1, 637438, Note_on_c, 0, 82, 102
1, 637439, Note_on_c, 0, 62, 93
1, 637440, Note_on_c, 0, 86, 104
1, 637448, Control_c, 0, 64, 80
1, 637462, Control_c, 0, 64, 44
1, 637477, Control_c, 0, 64, 0
1, 637574, Control_c, 0, 64, 24
1, 637589, Control_c, 0, 64, 49
1, 637604, Control_c, 0, 64, 63
1, 637619, Control_c, 0, 64, 72
1, 637634, Control_c, 0, 64, 83
1, 637648, Control_c, 0, 64, 100
1, 637663, Control_c, 0, 64, 127
1, 637678, Note_off_c, 0, 86, 58
1, 637716, Note_off_c, 0, 55, 45
1, 637720, Note_off_c, 0, 67, 49
1, 637802, Note_off_c, 0, 79, 54
1, 637829, Note_off_c, 0, 62, 57
1, 637856, Note_off_c, 0, 74, 40
1, 638175, Note_off_c, 0, 58, 24
1, 638452, Note_off_c, 0, 82, 59
1, 638504, Note_on_c, 0, 71, 98
1, 638506, Note_on_c, 0, 52, 86
1, 638506, Note_on_c, 0, 83, 96
1, 638507, Note_on_c, 0, 76, 97
1, 638508, Note_on_c, 0, 80, 96
1, 638510, Note_on_c, 0, 59, 89
1, 638511, Note_on_c, 0, 64, 102
1, 638512, Note_on_c, 0, 56, 89
1, 638575, Control_c, 0, 64, 82
1, 638589, Control_c, 0, 64, 59
1, 638604, Control_c, 0, 64, 24
1, 638619, Control_c, 0, 64, 0
1, 638750, Note_off_c, 0, 83, 59
1, 638756, Note_off_c, 0, 56, 62
1, 638756, Note_off_c, 0, 59, 63
1, 638761, Note_off_c, 0, 52, 61
1, 638763, Note_off_c, 0, 64, 58
1, 638765, Note_off_c, 0, 71, 60
1, 638781, Note_off_c, 0, 80, 58
1, 638788, Note_off_c, 0, 76, 57
1, 639820, Control_c, 0, 64, 15
1, 639835, Control_c, 0, 64, 29
1, 639850, Control_c, 0, 64, 39
1, 639864, Control_c, 0, 64, 47
1, 639879, Control_c, 0, 64, 51
1, 639894, Control_c, 0, 64, 54
1, 639909, Control_c, 0, 64, 56
1, 639924, Control_c, 0, 64, 58
1, 639940, Control_c, 0, 64, 61
1, 639955, Control_c, 0, 64, 64
1, 639969, Control_c, 0, 64, 67
1, 639984, Control_c, 0, 64, 71
1, 639999, Control_c, 0, 64, 77
1, 640013, Control_c, 0, 64, 86
1, 640028, Control_c, 0, 64, 97
1, 640043, Control_c, 0, 64, 117
1, 640058, Control_c, 0, 64, 127
1, 640253, Note_on_c, 0, 51, 105
1, 640254, Note_on_c, 0, 63, 90
1, 640257, Note_on_c, 0, 37, 119
1, 640259, Note_on_c, 0, 56, 91
1, 640260, Note_on_c, 0, 25, 102
1, 640264, Note_on_c, 0, 32, 86
1, 640282, Note_off_c, 0, 32, 41
1, 640287, Note_off_c, 0, 25, 67
1, 640304, Note_off_c, 0, 37, 55
1, 640318, Note_off_c, 0, 51, 62
1, 640358, Poly_aftertouch_c, 0, 33, 0
1, 640384, Note_off_c, 0, 56, 57
1, 640428, Note_off_c, 0, 63, 49
1, 640578, Note_on_c, 0, 37, 85
1, 640688, Note_on_c, 0, 44, 98
1, 640710, Note_off_c, 0, 37, 62
1, 640790, Note_off_c, 0, 44, 63
1, 640807, Note_on_c, 0, 52, 104
1, 640814, Note_on_c, 0, 64, 101
1, 640816, Note_on_c, 0, 68, 98
1, 640816, Note_on_c, 0, 76, 112
1, 640836, Note_on_c, 0, 73, 68
1, 640850, Note_off_c, 0, 52, 67
1, 640853, Note_off_c, 0, 73, 67
1, 640859, Note_off_c, 0, 64, 65
1, 640879, Note_off_c, 0, 68, 65
1, 640892, Note_off_c, 0, 76, 65
1, 640924, Note_on_c, 0, 56, 91
1, 640981, Note_on_c, 0, 53, 80
1, 641026, Note_on_c, 0, 59, 73
1, 641109, Note_off_c, 0, 59, 65
1, 641135, Note_on_c, 0, 65, 102
1, 641141, Note_off_c, 0, 56, 63
1, 641145, Note_on_c, 0, 75, 112
1, 641145, Note_on_c, 0, 87, 106
1, 641148, Note_on_c, 0, 80, 95
1, 641158, Note_off_c, 0, 53, 64
1, 641172, Note_on_c, 0, 85, 54
1, 641178, Note_off_c, 0, 65, 64
1, 641193, Note_off_c, 0, 87, 66
1, 641193, Note_off_c, 0, 85, 58
1, 641196, Note_off_c, 0, 75, 65
1, 641199, Note_off_c, 0, 80, 67
1, 641246, Note_on_c, 0, 63, 94
1, 641318, Note_off_c, 0, 63, 64
1, 641349, Note_on_c, 0, 71, 85
1, 641354, Note_on_c, 0, 69, 76
1, 641357, Note_on_c, 0, 75, 35
1, 641375, Note_off_c, 0, 69, 69
1, 641383, Note_off_c, 0, 75, 47
1, 641384, Note_off_c, 0, 71, 67
1, 641395, Note_on_c, 0, 68, 90
1, 641435, Note_off_c, 0, 68, 68
1, 641461, Note_on_c, 0, 75, 70
1, 641461, Note_on_c, 0, 80, 86
1, 641483, Note_off_c, 0, 75, 68
1, 641485, Note_off_c, 0, 80, 67
1, 641510, Poly_aftertouch_c, 0, 69, 0
1, 641553, Note_on_c, 0, 87, 93
1, 641568, Poly_aftertouch_c, 0, 78, 0
1, 641610, Note_off_c, 0, 87, 64
1, 641619, Note_on_c, 0, 65, 79
1, 641619, Note_on_c, 0, 71, 85
1, 641621, Note_on_c, 0, 77, 95
1, 641621, Note_on_c, 0, 92, 96
1, 641621, Note_on_c, 0, 99, 101
1, 641631, Note_on_c, 0, 68, 89
1, 641642, Note_off_c, 0, 77, 69
1, 641654, Note_off_c, 0, 71, 67
1, 641660, Note_on_c, 0, 97, 25
1, 641667, Note_off_c, 0, 65, 66
1, 641667, Note_off_c, 0, 92, 62
1, 641670, Note_off_c, 0, 68, 68
1, 641677, Note_off_c, 0, 99, 65
1, 641689, Note_off_c, 0, 97, 47
1, 641710, Note_on_c, 0, 87, 86
1, 641727, Note_off_c, 0, 87, 71
1, 641792, Note_on_c, 0, 87, 87
1, 641799, Note_on_c, 0, 80, 78
1, 641824, Note_off_c, 0, 80, 63
1, 641833, Note_off_c, 0, 87, 65
1, 641840, Note_on_c, 0, 65, 93
1, 641841, Note_on_c, 0, 53, 82
1, 641842, Note_on_c, 0, 59, 82
1, 641845, Note_on_c, 0, 56, 79
1, 641855, Note_on_c, 0, 75, 93
1, 641858, Note_off_c, 0, 65, 69
1, 641869, Note_off_c, 0, 59, 66
1, 641871, Note_off_c, 0, 75, 74
1, 641883, Note_off_c, 0, 56, 64
1, 641890, Note_off_c, 0, 53, 65
1, 641935, Note_on_c, 0, 75, 86
1, 641937, Note_on_c, 0, 68, 84
1, 641977, Note_off_c, 0, 68, 53
1, 641994, Note_off_c, 0, 75, 65
1, 642004, Note_on_c, 0, 63, 101
1, 642036, Note_off_c, 0, 63, 66
1, 642063, Note_on_c, 0, 49, 114
1, 642066, Note_on_c, 0, 37, 97
1, 642087, Note_off_c, 0, 37, 73
1, 642087, Note_off_c, 0, 49, 65
1, 642121, Note_on_c, 0, 63, 93
1, 642163, Note_off_c, 0, 63, 66
1, 642188, Note_on_c, 0, 68, 72
1, 642189, Note_on_c, 0, 75, 82
1, 642210, Note_off_c, 0, 68, 72
1, 642218, Note_off_c, 0, 75, 62
1, 642345, Note_on_c, 0, 61, 25
1, 642349, Note_on_c, 0, 75, 84
1, 642356, Note_on_c, 0, 73, 92
1, 642364, Note_on_c, 0, 87, 54
1, 642365, Note_on_c, 0, 85, 66
1, 642368, Note_off_c, 0, 75, 72
1, 642373, Note_off_c, 0, 73, 70
1, 642376, Note_off_c, 0, 61, 47
1, 642382, Note_off_c, 0, 85, 67
1, 642385, Note_off_c, 0, 87, 63
1, 642397, Note_on_c, 0, 61, 78
1, 642439, Note_on_c, 0, 71, 110
1, 642442, Note_on_c, 0, 83, 96
1, 642446, Note_off_c, 0, 61, 62
1, 642463, Note_on_c, 0, 82, 59
1, 642468, Poly_aftertouch_c, 0, 58, 0
1, 642474, Note_on_c, 0, 81, 53
1, 642474, Note_off_c, 0, 71, 66
1, 642474, Note_off_c, 0, 83, 64
1, 642478, Note_on_c, 0, 59, 80
1, 642484, Note_off_c, 0, 82, 38
1, 642497, Note_off_c, 0, 81, 43
1, 642531, Note_off_c, 0, 59, 63
1, 642570, Note_on_c, 0, 56, 37
1, 642594, Note_off_c, 0, 56, 50
1, 642603, Note_on_c, 0, 65, 66
1, 642614, Note_on_c, 0, 67, 74
1, 642632, Note_off_c, 0, 67, 68
1, 642659, Note_off_c, 0, 65, 54
1, 642669, Note_on_c, 0, 56, 67
1, 642695, Note_on_c, 0, 70, 109
1, 642698, Note_on_c, 0, 82, 104
1, 642701, Note_on_c, 0, 75, 85
1, 642713, Note_off_c, 0, 82, 70
1, 642719, Note_off_c, 0, 75, 73
1, 642722, Note_off_c, 0, 70, 66
1, 642729, Note_on_c, 0, 54, 44
1, 642742, Note_on_c, 0, 80, 20
1, 642743, Note_off_c, 0, 80, 127
1, 642743, Note_off_c, 0, 56, 63
1, 642753, Note_off_c, 0, 54, 56
1, 642761, Note_on_c, 0, 53, 36
1, 642789, Note_off_c, 0, 53, 47
1, 642838, Note_on_c, 0, 55, 77
1, 642886, Note_off_c, 0, 55, 57
1, 642924, Note_on_c, 0, 52, 48
1, 642953, Note_off_c, 0, 52, 58
1, 643000, Note_on_c, 0, 56, 110
1, 643003, Note_on_c, 0, 63, 90
1, 643003, Note_on_c, 0, 68, 91
1, 643037, Note_on_c, 0, 53, 77
1, 643041, Note_on_c, 0, 52, 58
1, 643041, Note_off_c, 0, 56, 64
1, 643041, Note_off_c, 0, 68, 65
1, 643061, Note_off_c, 0, 63, 63
1, 643086, Note_off_c, 0, 52, 61
1, 643086, Note_off_c, 0, 53, 63
1, 643095, Note_on_c, 0, 51, 73
1, 643120, Poly_aftertouch_c, 0, 65, 0
1, 643174, Note_on_c, 0, 47, 44
1, 643197, Note_off_c, 0, 51, 60
1, 643229, Note_on_c, 0, 44, 79
1, 643240, Note_off_c, 0, 47, 64
1, 643271, Note_off_c, 0, 44, 65
1, 643389, Note_on_c, 0, 47, 95
1, 643412, Note_on_c, 0, 51, 108
1, 643412, Note_on_c, 0, 63, 95
1, 643417, Note_on_c, 0, 56, 93
1, 643437, Note_off_c, 0, 47, 64
1, 643450, Note_off_c, 0, 56, 0
1, 643452, Note_off_c, 0, 51, 57
1, 643488, Poly_aftertouch_c, 0, 56, 127
1, 643505, Note_on_c, 0, 44, 88
1, 643591, Note_off_c, 0, 44, 63
1, 643619, Note_on_c, 0, 41, 79
1, 643697, Note_off_c, 0, 41, 63
1, 643701, Note_on_c, 0, 37, 91
1, 643703, Note_on_c, 0, 39, 36
1, 643730, Note_off_c, 0, 39, 63
1, 643756, Note_off_c, 0, 37, 64
1, 643861, Control_c, 0, 64, 70
1, 643876, Control_c, 0, 64, 35
1, 643879, Note_on_c, 0, 32, 114
1, 643882, Note_off_c, 0, 63, 56
1, 643890, Control_c, 0, 64, 24
1, 643905, Control_c, 0, 64, 51
1, 643912, Poly_aftertouch_c, 0, 56, 0
1, 643920, Control_c, 0, 64, 75
1, 643934, Note_off_c, 0, 32, 64
1, 643935, Control_c, 0, 64, 99
1, 643950, Control_c, 0, 64, 127
1, 644037, Note_on_c, 0, 37, 58
1, 644052, Note_on_c, 0, 38, 53
1, 644077, Note_off_c, 0, 37, 63
1, 644081, Note_off_c, 0, 38, 59
1, 644087, Note_on_c, 0, 46, 91
1, 644111, Note_off_c, 0, 46, 69
1, 644140, Note_on_c, 0, 48, 86
1, 644209, Note_on_c, 0, 54, 89
1, 644233, Note_off_c, 0, 48, 62
1, 644268, Note_on_c, 0, 58, 86
1, 644304, Note_off_c, 0, 54, 61
1, 644332, Note_on_c, 0, 63, 99
1, 644342, Note_off_c, 0, 58, 63
1, 644346, Note_off_c, 0, 63, 75
1, 644369, Note_on_c, 0, 61, 38
1, 644370, Note_off_c, 0, 61, 127
1, 644403, Poly_aftertouch_c, 0, 61, 0
1, 644404, Note_on_c, 0, 63, 37
1, 644412, Note_on_c, 0, 58, 83
1, 644424, Note_off_c, 0, 63, 61
1, 644473, Note_on_c, 0, 54, 74
1, 644474, Note_off_c, 0, 58, 62
1, 644499, Note_off_c, 0, 54, 68
1, 644522, Note_on_c, 0, 51, 81
1, 644551, Note_off_c, 0, 51, 66
1, 644559, Note_on_c, 0, 46, 87
1, 644610, Note_off_c, 0, 46, 64
1, 644617, Note_on_c, 0, 39, 69
1, 644666, Note_off_c, 0, 39, 60
1, 644677, Note_on_c, 0, 32, 83
1, 644755, Note_on_c, 0, 39, 86
1, 644764, Note_on_c, 0, 58, 106
1, 644768, Note_on_c, 0, 70, 96
1, 644773, Note_off_c, 0, 32, 61
1, 644773, Control_c, 0, 64, 77
1, 644788, Control_c, 0, 64, 44
1, 644792, Note_off_c, 0, 58, 68
1, 644795, Note_off_c, 0, 70, 58
1, 644797, Note_on_c, 0, 37, 23
1, 644803, Control_c, 0, 64, 0
1, 644813, Note_off_c, 0, 37, 37
1, 644831, Note_on_c, 0, 72, 88
1, 644832, Note_on_c, 0, 42, 87
1, 644835, Note_on_c, 0, 69, 89
1, 644835, Note_on_c, 0, 60, 97
1, 644845, Note_on_c, 0, 71, 74
1, 644847, Control_c, 0, 64, 9
1, 644850, Note_off_c, 0, 39, 61
1, 644862, Note_off_c, 0, 71, 62
1, 644862, Control_c, 0, 64, 50
1, 644874, Note_on_c, 0, 59, 13
1, 644875, Note_off_c, 0, 59, 127
1, 644877, Control_c, 0, 64, 62
1, 644889, Note_off_c, 0, 42, 62
1, 644892, Control_c, 0, 64, 66
1, 644906, Note_on_c, 0, 48, 76
1, 644907, Control_c, 0, 64, 73
1, 644921, Note_on_c, 0, 47, 51
1, 644922, Control_c, 0, 64, 80
1, 644936, Control_c, 0, 64, 88
1, 644939, Note_off_c, 0, 48, 66
1, 644946, Note_off_c, 0, 47, 36
1, 644951, Control_c, 0, 64, 91
1, 644966, Control_c, 0, 64, 92
1, 644981, Control_c, 0, 64, 94
1, 644989, Note_on_c, 0, 51, 80
1, 644995, Control_c, 0, 64, 95
1, 645010, Control_c, 0, 64, 97
1, 645025, Control_c, 0, 64, 98
1, 645028, Note_on_c, 0, 54, 77
1, 645036, Note_off_c, 0, 51, 63
1, 645040, Control_c, 0, 64, 100
1, 645062, Control_c, 0, 64, 102
1, 645077, Control_c, 0, 64, 105
1, 645080, Note_off_c, 0, 54, 65
1, 645092, Control_c, 0, 64, 108
1, 645107, Control_c, 0, 64, 112
1, 645107, Note_on_c, 0, 57, 85
1, 645122, Control_c, 0, 64, 118
1, 645136, Control_c, 0, 64, 127
1, 645161, Note_off_c, 0, 57, 57
1, 645169, Note_on_c, 0, 54, 82
1, 645217, Note_off_c, 0, 54, 65
1, 645244, Note_on_c, 0, 51, 78
1, 645269, Note_off_c, 0, 51, 67
1, 645315, Note_on_c, 0, 48, 78
1, 645357, Note_off_c, 0, 48, 63
1, 645369, Note_off_c, 0, 72, 55
1, 645381, Note_off_c, 0, 69, 57
1, 645405, Note_on_c, 0, 42, 52
1, 645410, Note_on_c, 0, 43, 63
1, 645432, Note_off_c, 0, 42, 56
1, 645433, Note_off_c, 0, 43, 62
1, 645435, Note_on_c, 0, 39, 58
1, 645447, Control_c, 0, 64, 105
1, 645461, Control_c, 0, 64, 72
1, 645467, Note_off_c, 0, 39, 64
1, 645476, Control_c, 0, 64, 63
1, 645479, Note_off_c, 0, 60, 54
1, 645487, Note_on_c, 0, 32, 88
1, 645491, Control_c, 0, 64, 66
1, 645506, Control_c, 0, 64, 76
1, 645522, Control_c, 0, 64, 96
1, 645537, Control_c, 0, 64, 127
1, 645549, Note_on_c, 0, 39, 80
1, 645570, Note_off_c, 0, 32, 61
1, 645628, Note_on_c, 0, 42, 87
1, 645638, Note_off_c, 0, 39, 62
1, 645658, Note_off_c, 0, 42, 67
1, 645679, Note_on_c, 0, 51, 34
1, 645706, Note_off_c, 0, 51, 44
1, 645708, Note_on_c, 0, 45, 87
1, 645758, Note_off_c, 0, 45, 66
1, 645760, Note_on_c, 0, 48, 82
1, 645788, Control_c, 0, 64, 111
1, 645810, Control_c, 0, 64, 72
1, 645813, Note_on_c, 0, 51, 70
1, 645825, Control_c, 0, 64, 45
1, 645828, Note_off_c, 0, 48, 63
1, 645840, Control_c, 0, 64, 0
1, 645853, Note_on_c, 0, 54, 86
1, 645867, Note_off_c, 0, 51, 64
1, 645884, Control_c, 0, 64, 17
1, 645899, Control_c, 0, 64, 42
1, 645907, Note_on_c, 0, 51, 67
1, 645914, Control_c, 0, 64, 55
1, 645929, Control_c, 0, 64, 60
1, 645944, Control_c, 0, 64, 63
1, 645948, Note_on_c, 0, 48, 75
1, 645953, Note_off_c, 0, 54, 64
1, 645958, Control_c, 0, 64, 64
1, 645973, Control_c, 0, 64, 66
1, 645988, Control_c, 0, 64, 68
1, 646002, Note_off_c, 0, 51, 63
1, 646003, Control_c, 0, 64, 71
1, 646007, Note_on_c, 0, 45, 76
1, 646018, Control_c, 0, 64, 75
1, 646032, Control_c, 0, 64, 79
1, 646034, Note_off_c, 0, 48, 62
1, 646047, Control_c, 0, 64, 83
1, 646059, Note_off_c, 0, 45, 63
1, 646062, Control_c, 0, 64, 86
1, 646076, Control_c, 0, 64, 89
1, 646086, Note_on_c, 0, 42, 61
1, 646091, Control_c, 0, 64, 93
1, 646106, Control_c, 0, 64, 102
1, 646121, Control_c, 0, 64, 127
1, 646145, Note_on_c, 0, 39, 66
1, 646145, Note_off_c, 0, 42, 60
1, 646183, Note_off_c, 0, 39, 63
1, 646195, Control_c, 0, 64, 81
1, 646201, Note_on_c, 0, 32, 76
1, 646210, Control_c, 0, 64, 61
1, 646225, Control_c, 0, 64, 37
1, 646239, Control_c, 0, 64, 29
1, 646254, Control_c, 0, 64, 36
1, 646269, Control_c, 0, 64, 53
1, 646284, Control_c, 0, 64, 64
1, 646290, Note_on_c, 0, 36, 57
1, 646299, Control_c, 0, 64, 71
1, 646308, Note_off_c, 0, 32, 61
1, 646314, Control_c, 0, 64, 78
1, 646329, Control_c, 0, 64, 84
1, 646344, Control_c, 0, 64, 90
1, 646359, Note_on_c, 0, 39, 68
1, 646359, Control_c, 0, 64, 99
1, 646374, Control_c, 0, 64, 113
1, 646374, Note_off_c, 0, 36, 61
1, 646388, Control_c, 0, 64, 127
1, 646393, Note_off_c, 0, 39, 64
1, 646418, Note_on_c, 0, 42, 76
1, 646474, Note_on_c, 0, 45, 68
1, 646488, Note_off_c, 0, 42, 61
1, 646537, Note_on_c, 0, 48, 61
1, 646556, Note_off_c, 0, 45, 60
1, 646564, Note_on_c, 0, 51, 77
1, 646576, Note_off_c, 0, 48, 64
1, 646633, Note_on_c, 0, 48, 75
1, 646668, Note_on_c, 0, 45, 70
1, 646670, Note_off_c, 0, 51, 62
1, 646689, Note_on_c, 0, 46, 19
1, 646703, Note_off_c, 0, 48, 58
1, 646720, Note_on_c, 0, 42, 77
1, 646726, Note_off_c, 0, 45, 64
1, 646728, Note_off_c, 0, 46, 30
1, 646771, Note_off_c, 0, 42, 61
1, 646792, Note_on_c, 0, 39, 65
1, 646849, Note_off_c, 0, 39, 58
1, 646863, Note_on_c, 0, 36, 68
1, 646900, Control_c, 0, 64, 85
1, 646903, Note_off_c, 0, 36, 64
1, 646915, Control_c, 0, 64, 61
1, 646930, Control_c, 0, 64, 37
1, 646943, Note_on_c, 0, 30, 94
1, 646945, Control_c, 0, 64, 39
1, 646960, Control_c, 0, 64, 58
1, 646974, Control_c, 0, 64, 77
1, 646985, Note_off_c, 0, 30, 63
1, 646989, Control_c, 0, 64, 99
1, 647004, Control_c, 0, 64, 127
1, 647057, Note_on_c, 0, 40, 61
1, 647098, Note_off_c, 0, 40, 62
1, 647131, Note_on_c, 0, 43, 72
1, 647163, Note_off_c, 0, 43, 63
1, 647193, Note_on_c, 0, 46, 65
1, 647213, Note_off_c, 0, 46, 62
1, 647275, Note_on_c, 0, 52, 67
1, 647356, Note_on_c, 0, 55, 64
1, 647358, Note_off_c, 0, 52, 62
1, 647420, Note_off_c, 0, 55, 62
1, 647432, Note_on_c, 0, 58, 67
1, 647452, Note_on_c, 0, 63, 93
1, 647455, Note_on_c, 0, 51, 79
1, 647484, Note_off_c, 0, 51, 63
1, 647490, Note_off_c, 0, 63, 61
1, 647503, Note_on_c, 0, 55, 65
1, 647545, Note_off_c, 0, 58, 58
1, 647551, Note_off_c, 0, 55, 63
1, 647599, Note_on_c, 0, 52, 64
1, 647646, Note_off_c, 0, 52, 61
1, 647709, Note_on_c, 0, 63, 89
1, 647710, Note_on_c, 0, 51, 75
1, 647724, Note_on_c, 0, 46, 67
1, 647755, Note_off_c, 0, 63, 60
1, 647778, Note_off_c, 0, 51, 54
1, 647792, Note_on_c, 0, 43, 61
1, 647825, Note_off_c, 0, 43, 62
1, 647837, Note_off_c, 0, 46, 55
1, 647861, Note_on_c, 0, 51, 75
1, 647861, Note_on_c, 0, 63, 91
1, 647870, Note_on_c, 0, 40, 64
1, 647903, Note_off_c, 0, 63, 64
1, 647912, Note_off_c, 0, 40, 65
1, 647916, Note_off_c, 0, 51, 61
1, 647921, Note_on_c, 0, 43, 63
1, 647962, Note_off_c, 0, 43, 63
1, 647974, Note_on_c, 0, 46, 65
1, 648005, Note_off_c, 0, 46, 65
1, 648021, Note_on_c, 0, 61, 93
1, 648023, Note_on_c, 0, 49, 81
1, 648058, Note_off_c, 0, 61, 61
1, 648061, Note_off_c, 0, 49, 63
1, 648067, Note_on_c, 0, 52, 70
1, 648127, Note_off_c, 0, 52, 57
1, 648147, Note_on_c, 0, 55, 65
1, 648180, Note_on_c, 0, 63, 91
1, 648187, Note_on_c, 0, 51, 81
1, 648189, Note_off_c, 0, 55, 62
1, 648203, Note_off_c, 0, 63, 67
1, 648207, Note_on_c, 0, 58, 73
1, 648212, Note_off_c, 0, 51, 65
1, 648257, Note_on_c, 0, 55, 64
1, 648260, Note_off_c, 0, 58, 62
1, 648279, Note_off_c, 0, 55, 65
1, 648318, Note_on_c, 0, 52, 60
1, 648340, Note_off_c, 0, 52, 56
1, 648386, Note_on_c, 0, 51, 62
1, 648425, Note_on_c, 0, 46, 72
1, 648445, Note_off_c, 0, 51, 53
1, 648473, Note_on_c, 0, 43, 68
1, 648504, Note_off_c, 0, 46, 60
1, 648511, Note_off_c, 0, 43, 62
1, 648535, Note_on_c, 0, 40, 76
1, 648544, Note_on_c, 0, 30, 85
1, 648546, Control_c, 0, 64, 79
1, 648561, Control_c, 0, 64, 63
1, 648576, Control_c, 0, 64, 53
1, 648584, Note_off_c, 0, 40, 63
1, 648588, Note_on_c, 0, 43, 75
1, 648591, Control_c, 0, 64, 56
1, 648605, Control_c, 0, 64, 65
1, 648620, Control_c, 0, 64, 74
1, 648635, Control_c, 0, 64, 85
1, 648647, Note_off_c, 0, 43, 65
1, 648650, Control_c, 0, 64, 96
1, 648651, Note_on_c, 0, 46, 67
1, 648665, Control_c, 0, 64, 105
1, 648679, Control_c, 0, 64, 114
1, 648684, Note_off_c, 0, 46, 66
1, 648689, Note_on_c, 0, 51, 60
1, 648694, Control_c, 0, 64, 127
1, 648717, Note_off_c, 0, 51, 66
1, 648752, Note_on_c, 0, 52, 69
1, 648783, Note_off_c, 0, 52, 63
1, 648821, Note_on_c, 0, 55, 77
1, 648855, Note_off_c, 0, 55, 61
1, 648886, Note_on_c, 0, 58, 76
1, 648931, Note_off_c, 0, 58, 61
1, 648955, Note_on_c, 0, 55, 38
1, 648980, Note_off_c, 0, 55, 35
1, 648986, Note_on_c, 0, 52, 62
1, 649006, Note_off_c, 0, 52, 64
1, 649062, Note_on_c, 0, 51, 60
1, 649105, Note_off_c, 0, 51, 59
1, 649110, Note_on_c, 0, 46, 66
1, 649159, Note_on_c, 0, 43, 57
1, 649182, Note_off_c, 0, 46, 62
1, 649190, Note_off_c, 0, 43, 65
1, 649191, Note_off_c, 0, 30, 63
1, 649214, Note_on_c, 0, 40, 69
1, 649253, Note_off_c, 0, 40, 66
1, 649262, Note_on_c, 0, 43, 69
1, 649304, Note_off_c, 0, 43, 63
1, 649330, Note_on_c, 0, 46, 47
1, 649347, Note_on_c, 0, 51, 58
1, 649350, Note_off_c, 0, 46, 59
1, 649375, Note_off_c, 0, 51, 64
1, 649421, Note_on_c, 0, 52, 59
1, 649481, Note_on_c, 0, 55, 67
1, 649486, Note_off_c, 0, 52, 60
1, 649516, Note_off_c, 0, 55, 63
1, 649532, Control_c, 0, 64, 89
1, 649554, Control_c, 0, 64, 72
1, 649560, Note_on_c, 0, 58, 62
1, 649569, Note_on_c, 0, 49, 93
1, 649569, Control_c, 0, 64, 64
1, 649584, Control_c, 0, 64, 65
1, 649592, Note_off_c, 0, 49, 69
1, 649599, Control_c, 0, 64, 70
1, 649603, Note_on_c, 0, 55, 67
1, 649614, Note_off_c, 0, 58, 60
1, 649614, Control_c, 0, 64, 79
1, 649629, Note_off_c, 0, 55, 67
1, 649629, Control_c, 0, 64, 97
1, 649643, Control_c, 0, 64, 124
1, 649658, Control_c, 0, 64, 127
1, 649687, Note_on_c, 0, 52, 45
1, 649715, Note_off_c, 0, 52, 36
1, 649784, Note_on_c, 0, 51, 37
1, 649809, Note_on_c, 0, 46, 58
1, 649815, Note_off_c, 0, 51, 55
1, 649872, Note_on_c, 0, 43, 55
1, 649888, Note_off_c, 0, 46, 57
1, 649905, Note_off_c, 0, 43, 66
1, 649910, Control_c, 0, 64, 83
1, 649924, Control_c, 0, 64, 62
1, 649939, Control_c, 0, 64, 52
1, 649948, Note_on_c, 0, 40, 53
1, 649954, Control_c, 0, 64, 54
1, 649965, Note_on_c, 0, 51, 70
1, 649969, Control_c, 0, 64, 61
1, 649983, Control_c, 0, 64, 69
1, 649995, Note_off_c, 0, 40, 64
1, 649998, Note_on_c, 0, 43, 57
1, 649998, Control_c, 0, 64, 78
1, 650004, Note_off_c, 0, 51, 65
1, 650013, Control_c, 0, 64, 89
1, 650028, Control_c, 0, 64, 99
1, 650043, Control_c, 0, 64, 106
1, 650058, Note_off_c, 0, 43, 60
1, 650058, Control_c, 0, 64, 115
1, 650068, Note_on_c, 0, 46, 39
1, 650073, Control_c, 0, 64, 127
1, 650100, Note_off_c, 0, 46, 62
1, 650104, Note_on_c, 0, 51, 45
1, 650132, Note_off_c, 0, 51, 64
1, 650196, Note_on_c, 0, 52, 40
1, 650231, Note_off_c, 0, 52, 55
1, 650261, Note_on_c, 0, 55, 58
1, 650303, Note_off_c, 0, 55, 63
1, 650333, Control_c, 0, 64, 118
1, 650342, Note_on_c, 0, 58, 59
1, 650347, Control_c, 0, 64, 79
1, 650362, Control_c, 0, 64, 67
1, 650372, Note_on_c, 0, 46, 77
1, 650377, Control_c, 0, 64, 65
1, 650392, Control_c, 0, 64, 70
1, 650394, Note_off_c, 0, 46, 69
1, 650400, Note_off_c, 0, 58, 59
1, 650401, Note_on_c, 0, 55, 54
1, 650407, Control_c, 0, 64, 79
1, 650422, Control_c, 0, 64, 93
1, 650427, Note_off_c, 0, 55, 63
1, 650437, Control_c, 0, 64, 115
1, 650451, Control_c, 0, 64, 127
1, 650475, Note_on_c, 0, 52, 44
1, 650499, Note_off_c, 0, 52, 50
1, 650552, Note_on_c, 0, 48, 65
1, 650607, Note_off_c, 0, 48, 60
1, 650608, Note_on_c, 0, 43, 54
1, 650639, Note_off_c, 0, 43, 63
1, 650670, Note_on_c, 0, 40, 53
1, 650697, Note_off_c, 0, 40, 47
1, 650754, Note_on_c, 0, 30, 63
1, 650832, Note_on_c, 0, 36, 67
1, 650842, Note_on_c, 0, 67, 90
1, 650845, Note_on_c, 0, 57, 79
1, 650847, Note_on_c, 0, 55, 80
1, 650851, Control_c, 0, 64, 76
1, 650860, Note_off_c, 0, 67, 71
1, 650863, Note_off_c, 0, 30, 62
1, 650864, Note_off_c, 0, 55, 66
1, 650866, Control_c, 0, 64, 55
1, 650866, Note_off_c, 0, 57, 66
1, 650879, Note_off_c, 0, 36, 65
1, 650881, Control_c, 0, 64, 31
1, 650896, Note_on_c, 0, 43, 72
1, 650896, Control_c, 0, 64, 28
1, 650907, Note_on_c, 0, 69, 65
1, 650908, Note_on_c, 0, 71, 85
1, 650911, Control_c, 0, 64, 40
1, 650913, Note_on_c, 0, 57, 72
1, 650914, Note_on_c, 0, 59, 79
1, 650916, Note_on_c, 0, 67, 72
1, 650925, Control_c, 0, 64, 57
1, 650927, Note_off_c, 0, 71, 68
1, 650931, Note_off_c, 0, 43, 66
1, 650934, Note_off_c, 0, 67, 64
1, 650939, Note_off_c, 0, 57, 64
1, 650940, Control_c, 0, 64, 69
1, 650943, Poly_aftertouch_c, 0, 66, 0
1, 650951, Note_off_c, 0, 69, 65
1, 650955, Note_off_c, 0, 59, 62
1, 650955, Control_c, 0, 64, 76
1, 650970, Control_c, 0, 64, 82
1, 650984, Control_c, 0, 64, 87
1, 650999, Control_c, 0, 64, 89
1, 651000, Note_on_c, 0, 46, 66
1, 651014, Control_c, 0, 64, 91
1, 651029, Note_on_c, 0, 48, 60
1, 651029, Control_c, 0, 64, 92
1, 651051, Control_c, 0, 64, 93
1, 651060, Note_off_c, 0, 46, 60
1, 651063, Note_on_c, 0, 52, 76
1, 651066, Control_c, 0, 64, 93
1, 651080, Control_c, 0, 64, 94
1, 651086, Note_off_c, 0, 48, 62
1, 651095, Control_c, 0, 64, 95
1, 651119, Note_on_c, 0, 55, 78
1, 651126, Control_c, 0, 64, 95
1, 651154, Note_off_c, 0, 55, 64
1, 651170, Note_on_c, 0, 53, 21
1, 651185, Control_c, 0, 64, 96
1, 651198, Note_off_c, 0, 52, 63
1, 651212, Note_off_c, 0, 53, 37
1, 651218, Note_on_c, 0, 46, 76
1, 651218, Note_on_c, 0, 48, 36
1, 651229, Control_c, 0, 64, 96
1, 651247, Note_off_c, 0, 48, 34
1, 651247, Note_off_c, 0, 46, 66
1, 651304, Control_c, 0, 64, 97
1, 651311, Note_on_c, 0, 43, 77
1, 651334, Control_c, 0, 64, 97
1, 651349, Control_c, 0, 64, 99
1, 651351, Note_off_c, 0, 43, 65
1, 651364, Control_c, 0, 64, 99
1, 651368, Note_on_c, 0, 40, 72
1, 651408, Control_c, 0, 64, 90
1, 651414, Note_off_c, 0, 40, 63
1, 651422, Control_c, 0, 64, 73
1, 651437, Control_c, 0, 64, 58
1, 651443, Note_on_c, 0, 37, 26
1, 651445, Note_on_c, 0, 30, 77
1, 651452, Control_c, 0, 64, 34
1, 651467, Control_c, 0, 64, 35
1, 651469, Note_off_c, 0, 37, 33
1, 651482, Control_c, 0, 64, 49
1, 651496, Control_c, 0, 64, 62
1, 651507, Note_on_c, 0, 36, 71
1, 651511, Control_c, 0, 64, 69
1, 651526, Control_c, 0, 64, 73
1, 651534, Note_off_c, 0, 30, 61
1, 651540, Control_c, 0, 64, 76
1, 651555, Control_c, 0, 64, 78
1, 651569, Note_off_c, 0, 36, 62
1, 651570, Control_c, 0, 64, 79
1, 651571, Note_on_c, 0, 40, 77
1, 651585, Control_c, 0, 64, 80
1, 651599, Note_off_c, 0, 40, 65
1, 651600, Control_c, 0, 64, 82
1, 651614, Control_c, 0, 64, 83
1, 651629, Control_c, 0, 64, 85
1, 651644, Note_on_c, 0, 43, 71
1, 651644, Control_c, 0, 64, 89
1, 651659, Control_c, 0, 64, 95
1, 651674, Control_c, 0, 64, 101
1, 651689, Control_c, 0, 64, 104
1, 651689, Note_on_c, 0, 46, 79
1, 651708, Note_off_c, 0, 43, 64
1, 651718, Control_c, 0, 64, 101
1, 651732, Control_c, 0, 64, 84
1, 651744, Note_on_c, 0, 48, 79
1, 651746, Note_off_c, 0, 46, 63
1, 651747, Control_c, 0, 64, 64
1, 651762, Control_c, 0, 64, 43
1, 651777, Control_c, 0, 64, 21
1, 651799, Note_on_c, 0, 52, 79
1, 651799, Control_c, 0, 64, 25
1, 651801, Note_off_c, 0, 48, 62
1, 651814, Control_c, 0, 64, 42
1, 651829, Control_c, 0, 64, 57
1, 651844, Control_c, 0, 64, 65
1, 651852, Note_on_c, 0, 48, 68
1, 651858, Control_c, 0, 64, 67
1, 651873, Control_c, 0, 64, 68
1, 651882, Note_off_c, 0, 52, 61
1, 651886, Note_on_c, 0, 50, 21
1, 651888, Control_c, 0, 64, 68
1, 651896, Note_on_c, 0, 46, 74
1, 651903, Control_c, 0, 64, 70
1, 651915, Note_off_c, 0, 48, 62
1, 651918, Control_c, 0, 64, 71
1, 651927, Note_off_c, 0, 50, 30
1, 651933, Control_c, 0, 64, 73
1, 651939, Note_off_c, 0, 46, 65
1, 651948, Control_c, 0, 64, 74
1, 651963, Control_c, 0, 64, 75
1, 651967, Note_on_c, 0, 43, 61
1, 651978, Control_c, 0, 64, 77
1, 651993, Control_c, 0, 64, 79
1, 652003, Note_off_c, 0, 43, 63
1, 652007, Control_c, 0, 64, 82
1, 652012, Note_on_c, 0, 40, 62
1, 652022, Control_c, 0, 64, 85
1, 652037, Control_c, 0, 64, 85
1, 652053, Note_off_c, 0, 40, 64
1, 652067, Control_c, 0, 64, 79
1, 652082, Note_on_c, 0, 36, 62
1, 652082, Control_c, 0, 64, 66
1, 652097, Control_c, 0, 64, 48
1, 652112, Control_c, 0, 64, 29
1, 652118, Note_on_c, 0, 30, 72
1, 652126, Control_c, 0, 64, 32
1, 652130, Note_off_c, 0, 36, 56
1, 652141, Control_c, 0, 64, 46
1, 652156, Control_c, 0, 64, 57
1, 652170, Control_c, 0, 64, 60
1, 652185, Note_on_c, 0, 34, 68
1, 652185, Control_c, 0, 64, 58
1, 652200, Control_c, 0, 64, 54
1, 652201, Note_off_c, 0, 30, 59
1, 652215, Control_c, 0, 64, 52
1, 652225, Note_off_c, 0, 34, 64
1, 652230, Control_c, 0, 64, 52
1, 652243, Note_on_c, 0, 36, 64
1, 652244, Control_c, 0, 64, 53
1, 652268, Note_off_c, 0, 36, 65
1, 652274, Control_c, 0, 64, 52
1, 652289, Control_c, 0, 64, 50
1, 652304, Control_c, 0, 64, 49
1, 652315, Note_on_c, 0, 40, 67
1, 652318, Control_c, 0, 64, 47
1, 652333, Control_c, 0, 64, 44
1, 652348, Control_c, 0, 64, 39
1, 652355, Note_off_c, 0, 40, 67
1, 652362, Control_c, 0, 64, 30
1, 652377, Note_on_c, 0, 43, 71
1, 652377, Control_c, 0, 64, 20
1, 652392, Control_c, 0, 64, 0
1, 652415, Note_off_c, 0, 43, 63
1, 652428, Note_on_c, 0, 46, 65
1, 652459, Note_off_c, 0, 46, 65
1, 652470, Note_on_c, 0, 48, 65
1, 652519, Note_off_c, 0, 48, 63
1, 652521, Note_on_c, 0, 46, 74
1, 652526, Control_c, 0, 64, 35
1, 652548, Control_c, 0, 64, 51
1, 652562, Control_c, 0, 64, 57
1, 652577, Control_c, 0, 64, 59
1, 652580, Note_on_c, 0, 43, 55
1, 652585, Note_off_c, 0, 46, 64
1, 652592, Control_c, 0, 64, 60
1, 652607, Control_c, 0, 64, 61
1, 652608, Note_off_c, 0, 43, 62
1, 652622, Control_c, 0, 64, 62
1, 652632, Note_on_c, 0, 40, 58
1, 652636, Control_c, 0, 64, 63
1, 652664, Note_off_c, 0, 40, 64
1, 652666, Control_c, 0, 64, 64
1, 652681, Control_c, 0, 64, 65
1, 652688, Note_on_c, 0, 36, 47
1, 652696, Control_c, 0, 64, 66
1, 652712, Control_c, 0, 64, 68
1, 652727, Control_c, 0, 64, 69
1, 652728, Note_off_c, 0, 36, 61
1, 652756, Control_c, 0, 64, 67
1, 652758, Note_on_c, 0, 34, 49
1, 652771, Control_c, 0, 64, 60
1, 652774, Note_on_c, 0, 30, 67
1, 652786, Control_c, 0, 64, 44
1, 652799, Note_off_c, 0, 34, 59
1, 652800, Control_c, 0, 64, 0
1, 652830, Control_c, 0, 64, 15
1, 652836, Note_off_c, 0, 30, 60
1, 652837, Note_on_c, 0, 31, 65
1, 652845, Control_c, 0, 64, 34
1, 652860, Control_c, 0, 64, 46
1, 652875, Control_c, 0, 64, 54
1, 652890, Control_c, 0, 64, 56
1, 652904, Note_on_c, 0, 34, 61
1, 652904, Note_off_c, 0, 31, 64
1, 652934, Control_c, 0, 64, 55
1, 652936, Note_off_c, 0, 34, 63
1, 652961, Note_on_c, 0, 36, 57
1, 652964, Control_c, 0, 64, 54
1, 652979, Control_c, 0, 64, 53
1, 652987, Note_off_c, 0, 36, 66
1, 652993, Control_c, 0, 64, 53
1, 653015, Note_on_c, 0, 40, 69
1, 653023, Control_c, 0, 64, 53
1, 653038, Control_c, 0, 64, 54
1, 653064, Note_off_c, 0, 40, 59
1, 653067, Control_c, 0, 64, 54
1, 653082, Control_c, 0, 64, 55
1, 653093, Note_on_c, 0, 43, 28
1, 653097, Control_c, 0, 64, 57
1, 653109, Note_on_c, 0, 46, 65
1, 653110, Note_off_c, 0, 43, 37
1, 653112, Control_c, 0, 64, 59
1, 653127, Control_c, 0, 64, 59
1, 653141, Control_c, 0, 64, 60
1, 653156, Control_c, 0, 64, 61
1, 653167, Note_on_c, 0, 43, 53
1, 653171, Control_c, 0, 64, 61
1, 653182, Note_off_c, 0, 46, 53
1, 653185, Control_c, 0, 64, 63
1, 653200, Control_c, 0, 64, 63
1, 653216, Control_c, 0, 64, 64
1, 653220, Note_on_c, 0, 40, 57
1, 653231, Control_c, 0, 64, 65
1, 653245, Note_off_c, 0, 43, 60
1, 653246, Control_c, 0, 64, 66
1, 653260, Control_c, 0, 64, 66
1, 653261, Note_off_c, 0, 40, 61
1, 653275, Control_c, 0, 64, 68
1, 653297, Note_on_c, 0, 36, 63
1, 653298, Control_c, 0, 64, 69
1, 653313, Control_c, 0, 64, 71
1, 653322, Note_off_c, 0, 36, 64
1, 653327, Control_c, 0, 64, 72
1, 653331, Note_on_c, 0, 34, 56
1, 653342, Control_c, 0, 64, 75
1, 653357, Control_c, 0, 64, 78
1, 653372, Control_c, 0, 64, 82
1, 653387, Control_c, 0, 64, 90
1, 653400, Note_off_c, 0, 34, 59
1, 653401, Control_c, 0, 64, 95
1, 653416, Control_c, 0, 64, 96
1, 653431, Control_c, 0, 64, 94
1, 653432, Note_on_c, 0, 30, 84
1, 653446, Control_c, 0, 64, 82
1, 653461, Control_c, 0, 64, 66
1, 653475, Control_c, 0, 64, 46
1, 653489, Note_on_c, 0, 31, 46
1, 653490, Control_c, 0, 64, 0
1, 653508, Note_off_c, 0, 30, 62
1, 653561, Note_on_c, 0, 34, 61
1, 653575, Note_off_c, 0, 31, 62
1, 653599, Note_off_c, 0, 34, 66
1, 653609, Note_on_c, 0, 36, 77
1, 653635, Note_off_c, 0, 36, 64
1, 653745, Note_on_c, 0, 40, 78
1, 653776, Note_off_c, 0, 40, 63
1, 653805, Note_on_c, 0, 43, 77
1, 653850, Note_on_c, 0, 40, 71
1, 653861, Note_off_c, 0, 43, 65
1, 653885, Note_off_c, 0, 40, 68
1, 653917, Note_on_c, 0, 36, 61
1, 653949, Note_off_c, 0, 36, 63
1, 654040, Note_on_c, 0, 36, 68
1, 654079, Note_off_c, 0, 36, 66
1, 654113, Note_on_c, 0, 40, 77
1, 654136, Note_off_c, 0, 40, 67
1, 654183, Note_on_c, 0, 40, 81
1, 654208, Note_off_c, 0, 40, 67
1, 654250, Note_on_c, 0, 36, 61
1, 654272, Note_on_c, 0, 35, 35
1, 654280, Note_off_c, 0, 36, 61
1, 654288, Note_off_c, 0, 35, 37
1, 654317, Note_on_c, 0, 34, 60
1, 654350, Note_off_c, 0, 34, 64
1, 654374, Note_on_c, 0, 31, 63
1, 654422, Note_off_c, 0, 31, 62
1, 654453, Note_on_c, 0, 34, 54
1, 654486, Note_off_c, 0, 34, 64
1, 654517, Note_on_c, 0, 36, 66
1, 654547, Note_off_c, 0, 36, 62
1, 654604, Note_on_c, 0, 36, 81
1, 654632, Note_off_c, 0, 36, 61
1, 654682, Note_on_c, 0, 34, 72
1, 654709, Note_off_c, 0, 34, 65
1, 654774, Note_on_c, 0, 31, 66
1, 654815, Note_off_c, 0, 31, 64
1, 654850, Note_on_c, 0, 28, 60
1, 654913, Note_off_c, 0, 28, 55
1, 654959, Note_on_c, 0, 31, 52
1, 655008, Note_off_c, 0, 31, 64
1, 655080, Note_on_c, 0, 34, 52
1, 655106, Note_off_c, 0, 34, 47
1, 655185, Note_on_c, 0, 34, 71
1, 655212, Note_off_c, 0, 34, 64
1, 655320, Note_on_c, 0, 31, 62
1, 655354, Note_off_c, 0, 31, 65
1, 655475, Note_on_c, 0, 28, 68
1, 655507, Note_off_c, 0, 28, 63
1, 655662, Note_on_c, 0, 24, 66
1, 655690, Note_off_c, 0, 24, 64
1, 655927, Note_on_c, 0, 27, 57
1, 655960, Note_off_c, 0, 27, 62
1, 656270, Note_on_c, 0, 24, 56
1, 656311, Note_off_c, 0, 24, 62
1, 656663, Control_c, 0, 64, 13
1, 656678, Control_c, 0, 64, 17
1, 656693, Control_c, 0, 64, 18
1, 656708, Control_c, 0, 64, 18
1, 656738, Control_c, 0, 64, 18
1, 656753, Control_c, 0, 64, 17
1, 656768, Control_c, 0, 64, 15
1, 656783, Control_c, 0, 64, 11
1, 656798, Control_c, 0, 64, 0
1, 656839, Note_on_c, 0, 23, 44
1, 656990, Control_c, 0, 64, 13
1, 657005, Control_c, 0, 64, 17
1, 657020, Control_c, 0, 64, 21
1, 657042, Control_c, 0, 64, 24
1, 657057, Control_c, 0, 64, 25
1, 657072, Control_c, 0, 64, 26
1, 657086, Control_c, 0, 64, 26
1, 657101, Control_c, 0, 64, 28
1, 657116, Control_c, 0, 64, 30
1, 657131, Control_c, 0, 64, 32
1, 657146, Control_c, 0, 64, 33
1, 657160, Control_c, 0, 64, 34
1, 657175, Control_c, 0, 64, 37
1, 657190, Control_c, 0, 64, 40
1, 657205, Control_c, 0, 64, 44
1, 657220, Control_c, 0, 64, 47
1, 657234, Control_c, 0, 64, 48
1, 657249, Control_c, 0, 64, 49
1, 657264, Control_c, 0, 64, 50
1, 657278, Control_c, 0, 64, 51
1, 657293, Control_c, 0, 64, 53
1, 657308, Control_c, 0, 64, 55
1, 657323, Control_c, 0, 64, 56
1, 657338, Control_c, 0, 64, 57
1, 657352, Control_c, 0, 64, 58
1, 657367, Control_c, 0, 64, 59
1, 657382, Control_c, 0, 64, 59
1, 657397, Control_c, 0, 64, 60
1, 657412, Control_c, 0, 64, 61
1, 657427, Control_c, 0, 64, 61
1, 657457, Control_c, 0, 64, 62
1, 657471, Control_c, 0, 64, 63
1, 657486, Control_c, 0, 64, 64
1, 657501, Control_c, 0, 64, 64
1, 657516, Control_c, 0, 64, 65
1, 657531, Control_c, 0, 64, 66
1, 657546, Control_c, 0, 64, 66
1, 657561, Control_c, 0, 64, 67
1, 657576, Control_c, 0, 64, 68
1, 657591, Control_c, 0, 64, 70
1, 657606, Control_c, 0, 64, 71
1, 657621, Control_c, 0, 64, 73
1, 657635, Control_c, 0, 64, 75
1, 657650, Control_c, 0, 64, 76
1, 657665, Control_c, 0, 64, 78
1, 657665, Control_c, 0, 67, 8
1, 657680, Control_c, 0, 64, 79
1, 657680, Control_c, 0, 67, 12
1, 657695, Control_c, 0, 64, 81
1, 657695, Control_c, 0, 67, 15
1, 657709, Control_c, 0, 64, 83
1, 657709, Control_c, 0, 67, 18
1, 657724, Control_c, 0, 64, 86
1, 657724, Control_c, 0, 67, 21
1, 657739, Control_c, 0, 64, 88
1, 657739, Control_c, 0, 67, 24
1, 657754, Control_c, 0, 64, 91
1, 657754, Control_c, 0, 67, 26
1, 657769, Control_c, 0, 64, 95
1, 657769, Control_c, 0, 67, 28
1, 657790, Control_c, 0, 64, 99
1, 657790, Control_c, 0, 67, 30
1, 657805, Control_c, 0, 64, 105
1, 657805, Control_c, 0, 67, 33
1, 657820, Control_c, 0, 64, 114
1, 657820, Control_c, 0, 67, 38
1, 657835, Control_c, 0, 64, 127
1, 657835, Control_c, 0, 67, 44
1, 657850, Control_c, 0, 67, 51
1, 657865, Control_c, 0, 67, 60
1, 657880, Control_c, 0, 67, 68
1, 657895, Control_c, 0, 67, 75
1, 657909, Control_c, 0, 67, 82
1, 657924, Control_c, 0, 67, 90
1, 657939, Control_c, 0, 67, 96
1, 657954, Control_c, 0, 67, 101
1, 657969, Control_c, 0, 67, 106
1, 657983, Control_c, 0, 67, 110
1, 657998, Control_c, 0, 67, 115
1, 658013, Control_c, 0, 67, 119
1, 658028, Control_c, 0, 67, 124
1, 658042, Control_c, 0, 67, 127
1, 658057, Control_c, 0, 67, 127
1, 658322, Note_off_c, 0, 23, 41
1, 658944, Note_on_c, 0, 86, 31
1, 658951, Note_on_c, 0, 78, 31
1, 659105, Note_off_c, 0, 86, 39
1, 659137, Note_off_c, 0, 78, 36
1, 659194, Note_on_c, 0, 87, 31
1, 659197, Note_on_c, 0, 90, 19
1, 659254, Note_off_c, 0, 90, 44
1, 659254, Note_off_c, 0, 87, 49
1, 659304, Note_on_c, 0, 78, 29
1, 659341, Note_off_c, 0, 78, 47
1, 659390, Note_on_c, 0, 90, 45
1, 659393, Note_on_c, 0, 87, 47
1, 659424, Note_off_c, 0, 87, 55
1, 659429, Note_off_c, 0, 90, 57
1, 659472, Note_on_c, 0, 78, 29
1, 659504, Note_off_c, 0, 78, 45
1, 659523, Note_on_c, 0, 87, 59
1, 659540, Note_on_c, 0, 90, 42
1, 659567, Note_off_c, 0, 87, 54
1, 659572, Note_off_c, 0, 90, 54
1, 659609, Note_on_c, 0, 78, 40
1, 659633, Note_on_c, 0, 86, 30
1, 659643, Note_off_c, 0, 78, 52
1, 659662, Note_off_c, 0, 86, 59
1, 659689, Note_on_c, 0, 87, 51
1, 659698, Note_on_c, 0, 90, 30
1, 659732, Note_off_c, 0, 87, 56
1, 659741, Note_off_c, 0, 90, 47
1, 659760, Note_on_c, 0, 86, 50
1, 659761, Note_on_c, 0, 53, 47
1, 659772, Note_on_c, 0, 41, 46
1, 659783, Note_on_c, 0, 78, 28
1, 659808, Note_off_c, 0, 86, 54
1, 659820, Note_off_c, 0, 78, 50
1, 659863, Note_on_c, 0, 87, 47
1, 659873, Note_on_c, 0, 90, 26
1, 659898, Note_off_c, 0, 87, 61
1, 659910, Note_off_c, 0, 90, 50
1, 659933, Note_on_c, 0, 78, 36
1, 659937, Note_on_c, 0, 86, 41
1, 659966, Note_off_c, 0, 78, 54
1, 659968, Note_off_c, 0, 86, 55
1, 659993, Note_on_c, 0, 87, 59
1, 660034, Note_on_c, 0, 90, 32
1, 660036, Note_off_c, 0, 53, 48
1, 660038, Note_off_c, 0, 87, 57
1, 660068, Note_off_c, 0, 90, 45
1, 660076, Note_on_c, 0, 86, 53
1, 660078, Note_on_c, 0, 78, 48
1, 660111, Note_off_c, 0, 78, 63
1, 660118, Note_off_c, 0, 86, 56
1, 660165, Note_on_c, 0, 87, 45
1, 660187, Note_off_c, 0, 87, 57
1, 660217, Note_on_c, 0, 78, 44
1, 660230, Note_on_c, 0, 86, 46
1, 660243, Note_off_c, 0, 78, 51
1, 660253, Note_off_c, 0, 86, 60
1, 660258, Note_on_c, 0, 87, 67
1, 660260, Poly_aftertouch_c, 0, 90, 127
1, 660294, Note_off_c, 0, 87, 55
1, 660319, Poly_aftertouch_c, 0, 90, 0
1, 660327, Note_on_c, 0, 86, 62
1, 660328, Note_on_c, 0, 78, 56
1, 660339, Note_on_c, 0, 42, 61
1, 660340, Note_on_c, 0, 54, 68
1, 660362, Note_off_c, 0, 78, 62
1, 660378, Note_off_c, 0, 41, 56
1, 660378, Note_off_c, 0, 86, 59
1, 660405, Note_on_c, 0, 87, 57
1, 660408, Note_off_c, 0, 42, 61
1, 660436, Note_off_c, 0, 87, 63
1, 660465, Note_on_c, 0, 78, 50
1, 660475, Note_on_c, 0, 86, 48
1, 660489, Note_off_c, 0, 78, 61
1, 660503, Note_off_c, 0, 86, 62
1, 660518, Note_on_c, 0, 87, 61
1, 660560, Note_off_c, 0, 87, 53
1, 660586, Note_on_c, 0, 78, 50
1, 660588, Note_on_c, 0, 86, 62
1, 660622, Note_off_c, 0, 78, 62
1, 660624, Note_off_c, 0, 86, 57
1, 660666, Note_on_c, 0, 87, 60
1, 660676, Note_on_c, 0, 90, 19
1, 660697, Note_off_c, 0, 87, 64
1, 660714, Note_off_c, 0, 90, 48
1, 660725, Note_on_c, 0, 78, 57
1, 660731, Note_on_c, 0, 86, 58
1, 660756, Note_off_c, 0, 78, 64
1, 660759, Note_off_c, 0, 86, 65
1, 660795, Note_on_c, 0, 87, 58
1, 660825, Note_on_c, 0, 90, 47
1, 660852, Note_off_c, 0, 90, 55
1, 660861, Note_off_c, 0, 87, 53
1, 660878, Note_on_c, 0, 86, 51
1, 660900, Note_on_c, 0, 78, 39
1, 660933, Note_on_c, 0, 49, 58
1, 660936, Note_off_c, 0, 78, 54
1, 660941, Note_on_c, 0, 61, 63
1, 660944, Note_off_c, 0, 86, 53
1, 660947, Note_on_c, 0, 51, 49
1, 660966, Note_on_c, 0, 90, 40
1, 660981, Note_on_c, 0, 87, 56
1, 661013, Note_off_c, 0, 54, 62
1, 661022, Note_off_c, 0, 87, 56
1, 661023, Note_off_c, 0, 90, 50
1, 661041, Note_off_c, 0, 49, 58
1, 661051, Note_off_c, 0, 51, 60
1, 661066, Note_on_c, 0, 78, 39
1, 661077, Note_on_c, 0, 86, 50
1, 661095, Note_off_c, 0, 78, 55
1, 661107, Note_off_c, 0, 86, 64
1, 661145, Note_on_c, 0, 87, 54
1, 661158, Note_on_c, 0, 90, 41
1, 661186, Note_off_c, 0, 87, 55
1, 661190, Note_off_c, 0, 90, 52
1, 661215, Note_on_c, 0, 78, 43
1, 661219, Note_on_c, 0, 86, 46
1, 661254, Note_off_c, 0, 78, 61
1, 661258, Note_off_c, 0, 86, 61
1, 661292, Note_on_c, 0, 87, 51
1, 661300, Note_on_c, 0, 90, 43
1, 661329, Note_off_c, 0, 87, 60
1, 661340, Note_off_c, 0, 90, 57
1, 661371, Note_on_c, 0, 86, 46
1, 661382, Note_on_c, 0, 78, 38
1, 661409, Note_off_c, 0, 86, 61
1, 661412, Note_off_c, 0, 78, 56
1, 661446, Note_on_c, 0, 90, 46
1, 661448, Note_on_c, 0, 87, 52
1, 661573, Note_off_c, 0, 90, 31
1, 661576, Note_on_c, 0, 86, 46
1, 661584, Note_on_c, 0, 78, 28
1, 661585, Note_on_c, 0, 63, 40
1, 661589, Note_on_c, 0, 66, 44
1, 661590, Note_off_c, 0, 87, 35
1, 661622, Note_off_c, 0, 86, 59
1, 661636, Note_off_c, 0, 63, 59
1, 661636, Note_off_c, 0, 78, 50
1, 661643, Note_off_c, 0, 61, 30
1, 661661, Note_off_c, 0, 66, 57
1, 661663, Note_on_c, 0, 87, 36
1, 661678, Note_on_c, 0, 90, 28
1, 661704, Note_off_c, 0, 87, 62
1, 661712, Note_off_c, 0, 90, 52
1, 661746, Note_on_c, 0, 78, 47
1, 661751, Note_on_c, 0, 86, 44
1, 661776, Note_off_c, 0, 78, 56
1, 661778, Note_off_c, 0, 86, 59
1, 661806, Note_on_c, 0, 87, 59
1, 661809, Note_on_c, 0, 90, 44
1, 661842, Note_off_c, 0, 87, 57
1, 661845, Note_off_c, 0, 90, 57
1, 661877, Note_on_c, 0, 78, 52
1, 661877, Note_on_c, 0, 86, 50
1, 661912, Note_off_c, 0, 78, 64
1, 661913, Note_off_c, 0, 86, 63
1, 661948, Note_on_c, 0, 87, 55
1, 661949, Note_on_c, 0, 90, 45
1, 661979, Note_off_c, 0, 87, 66
1, 661980, Note_off_c, 0, 90, 59
1, 662007, Note_on_c, 0, 86, 56
1, 662020, Note_on_c, 0, 78, 50
1, 662041, Note_off_c, 0, 86, 60
1, 662042, Note_off_c, 0, 78, 62
1, 662073, Note_on_c, 0, 87, 57
1, 662080, Note_on_c, 0, 90, 37
1, 662103, Note_off_c, 0, 87, 66
1, 662106, Note_off_c, 0, 90, 56
1, 662135, Note_on_c, 0, 78, 45
1, 662146, Note_on_c, 0, 86, 56
1, 662161, Note_off_c, 0, 78, 61
1, 662167, Note_off_c, 0, 86, 65
1, 662188, Note_on_c, 0, 90, 53
1, 662198, Note_on_c, 0, 87, 55
1, 662223, Note_off_c, 0, 90, 61
1, 662227, Note_off_c, 0, 87, 67
1, 662247, Note_on_c, 0, 86, 62
1, 662255, Note_on_c, 0, 78, 53
1, 662290, Note_off_c, 0, 86, 56
1, 662292, Note_off_c, 0, 78, 65
1, 662327, Note_on_c, 0, 87, 60
1, 662337, Note_on_c, 0, 90, 38
1, 662354, Note_off_c, 0, 87, 68
1, 662365, Note_off_c, 0, 90, 49
1, 662387, Note_on_c, 0, 78, 57
1, 662402, Note_on_c, 0, 86, 47
1, 662410, Note_off_c, 0, 78, 64
1, 662422, Note_off_c, 0, 86, 61
1, 662438, Note_on_c, 0, 87, 67
1, 662449, Note_on_c, 0, 90, 45
1, 662464, Note_off_c, 0, 87, 67
1, 662471, Note_off_c, 0, 90, 59
1, 662489, Note_on_c, 0, 86, 64
1, 662494, Note_on_c, 0, 78, 50
1, 662523, Note_off_c, 0, 78, 63
1, 662525, Note_off_c, 0, 86, 55
1, 662547, Note_on_c, 0, 87, 66
1, 662551, Note_on_c, 0, 90, 50
1, 662572, Note_off_c, 0, 87, 66
1, 662574, Note_off_c, 0, 90, 61
1, 662599, Note_on_c, 0, 35, 65
1, 662602, Note_on_c, 0, 42, 64
1, 662617, Note_on_c, 0, 78, 47
1, 662628, Note_on_c, 0, 86, 54
1, 662630, Note_off_c, 0, 35, 65
1, 662634, Note_off_c, 0, 42, 64
1, 662641, Note_off_c, 0, 78, 58
1, 662649, Note_off_c, 0, 86, 65
1, 662660, Note_on_c, 0, 87, 71
1, 662663, Note_on_c, 0, 90, 49
1, 662683, Note_off_c, 0, 87, 68
1, 662685, Note_off_c, 0, 90, 61
1, 662719, Note_on_c, 0, 78, 57
1, 662722, Note_on_c, 0, 86, 58
1, 662746, Note_off_c, 0, 78, 66
1, 662751, Note_off_c, 0, 86, 65
1, 662771, Note_on_c, 0, 87, 69
1, 662773, Note_on_c, 0, 90, 44
1, 662794, Note_off_c, 0, 87, 69
1, 662796, Note_off_c, 0, 90, 59
1, 662827, Note_on_c, 0, 78, 62
1, 662853, Note_off_c, 0, 78, 65
1, 662860, Note_on_c, 0, 86, 34
1, 662881, Note_on_c, 0, 90, 43
1, 662882, Note_on_c, 0, 87, 62
1, 662891, Note_off_c, 0, 86, 41
1, 662904, Note_off_c, 0, 90, 57
1, 662907, Note_off_c, 0, 87, 68
1, 662929, Note_on_c, 0, 78, 60
1, 662957, Note_off_c, 0, 78, 64
1, 662962, Note_on_c, 0, 86, 24
1, 662985, Note_on_c, 0, 87, 67
1, 662988, Note_on_c, 0, 90, 44
1, 663010, Note_off_c, 0, 87, 68
1, 663012, Note_off_c, 0, 90, 59
1, 663032, Control_c, 0, 67, 127
1, 663039, Note_on_c, 0, 78, 65
1, 663047, Control_c, 0, 67, 124
1, 663062, Control_c, 0, 67, 122
1, 663064, Note_on_c, 0, 98, 73
1, 663069, Note_off_c, 0, 78, 63
1, 663073, Note_on_c, 0, 99, 89
1, 663077, Control_c, 0, 67, 121
1, 663078, Note_on_c, 0, 102, 92
1, 663083, Note_off_c, 0, 98, 71
1, 663085, Note_on_c, 0, 87, 69
1, 663089, Note_off_c, 0, 99, 73
1, 663091, Note_on_c, 0, 90, 63
1, 663092, Control_c, 0, 67, 121
1, 663094, Note_off_c, 0, 102, 71
1, 663101, Note_off_c, 0, 86, 20
1, 663108, Control_c, 0, 67, 121
1, 663114, Note_off_c, 0, 87, 64
1, 663116, Note_off_c, 0, 90, 68
1, 663122, Control_c, 0, 67, 122
1, 663137, Control_c, 0, 64, 91
1, 663137, Control_c, 0, 67, 123
1, 663149, Note_on_c, 0, 78, 71
1, 663152, Control_c, 0, 64, 78
1, 663152, Control_c, 0, 67, 126
1, 663167, Control_c, 0, 64, 68
1, 663167, Control_c, 0, 67, 127
1, 663172, Note_off_c, 0, 78, 68
1, 663181, Control_c, 0, 64, 62
1, 663192, Note_on_c, 0, 87, 73
1, 663196, Control_c, 0, 64, 58
1, 663210, Note_on_c, 0, 86, 17
1, 663211, Control_c, 0, 64, 53
1, 663216, Note_off_c, 0, 87, 68
1, 663226, Control_c, 0, 64, 45
1, 663241, Control_c, 0, 64, 33
1, 663242, Note_on_c, 0, 90, 14
1, 663252, Note_on_c, 0, 78, 73
1, 663255, Control_c, 0, 64, 0
1, 663261, Note_off_c, 0, 86, 0
1, 663266, Note_off_c, 0, 90, 0
1, 663274, Note_off_c, 0, 78, 69
1, 663284, Note_on_c, 0, 87, 79
1, 663286, Note_on_c, 0, 86, 9
1, 663303, Poly_aftertouch_c, 0, 90, 127
1, 663318, Note_off_c, 0, 87, 64
1, 663322, Poly_aftertouch_c, 0, 90, 0
1, 663345, Note_on_c, 0, 78, 71
1, 663368, Note_off_c, 0, 78, 65
1, 663390, Note_on_c, 0, 87, 70
1, 663398, Note_off_c, 0, 86, 51
1, 663404, Note_on_c, 0, 90, 49
1, 663414, Note_off_c, 0, 87, 65
1, 663425, Note_off_c, 0, 90, 59
1, 663436, Note_on_c, 0, 78, 82
1, 663463, Note_off_c, 0, 78, 63
1, 663484, Note_on_c, 0, 66, 46
1, 663493, Control_c, 0, 64, 20
1, 663499, Note_on_c, 0, 74, 80
1, 663508, Control_c, 0, 64, 38
1, 663510, Note_off_c, 0, 66, 59
1, 663522, Control_c, 0, 64, 49
1, 663537, Control_c, 0, 64, 56
1, 663538, Note_off_c, 0, 74, 66
1, 663552, Control_c, 0, 64, 59
1, 663561, Note_on_c, 0, 75, 74
1, 663567, Control_c, 0, 64, 60
1, 663581, Control_c, 0, 64, 61
1, 663596, Control_c, 0, 64, 62
1, 663608, Note_off_c, 0, 75, 63
1, 663611, Control_c, 0, 64, 63
1, 663620, Note_on_c, 0, 74, 51
1, 663626, Control_c, 0, 64, 64
1, 663641, Note_off_c, 0, 74, 59
1, 663670, Note_on_c, 0, 62, 60
1, 663670, Control_c, 0, 64, 64
1, 663678, Note_on_c, 0, 63, 43
1, 663685, Control_c, 0, 64, 63
1, 663688, Note_on_c, 0, 54, 80
1, 663700, Control_c, 0, 64, 62
1, 663715, Control_c, 0, 64, 60
1, 663719, Note_off_c, 0, 54, 63
1, 663729, Control_c, 0, 64, 58
1, 663740, Note_off_c, 0, 63, 0
1, 663740, Note_on_c, 0, 63, 60
1, 663744, Control_c, 0, 64, 57
1, 663750, Note_off_c, 0, 62, 47
1, 663759, Control_c, 0, 64, 57
1, 663773, Note_on_c, 0, 66, 43
1, 663781, Control_c, 0, 64, 56
1, 663796, Control_c, 0, 64, 55
1, 663806, Note_on_c, 0, 54, 69
1, 663811, Control_c, 0, 64, 53
1, 663816, Note_off_c, 0, 63, 0
1, 663826, Control_c, 0, 64, 50
1, 663833, Note_off_c, 0, 54, 69
1, 663841, Control_c, 0, 64, 48
1, 663854, Note_on_c, 0, 42, 66
1, 663855, Control_c, 0, 64, 47
1, 663856, Poly_aftertouch_c, 0, 63, 0
1, 663870, Control_c, 0, 64, 45
1, 663873, Note_on_c, 0, 50, 56
1, 663885, Control_c, 0, 64, 44
1, 663891, Note_off_c, 0, 66, 20
1, 663901, Control_c, 0, 64, 46
1, 663912, Note_off_c, 0, 50, 66
1, 663916, Control_c, 0, 64, 53
1, 663916, Note_on_c, 0, 51, 72
1, 663931, Control_c, 0, 64, 60
1, 663945, Control_c, 0, 64, 63
1, 663954, Note_off_c, 0, 51, 56
1, 663960, Control_c, 0, 64, 64
1, 663984, Note_on_c, 0, 50, 45
1, 664007, Note_off_c, 0, 42, 34
1, 664017, Note_off_c, 0, 50, 64
1, 664077, Note_on_c, 0, 38, 20
1, 664078, Note_on_c, 0, 30, 73
1, 664104, Poly_aftertouch_c, 0, 39, 127
1, 664105, Note_off_c, 0, 30, 65
1, 664128, Note_off_c, 0, 38, 28
1, 664131, Note_on_c, 0, 42, 59
1, 664175, Note_off_c, 0, 42, 55
1, 664179, Note_on_c, 0, 30, 67
1, 664220, Note_off_c, 0, 30, 61
1, 664232, Note_on_c, 0, 42, 63
1, 664283, Note_on_c, 0, 23, 82
1, 664290, Poly_aftertouch_c, 0, 39, 0
1, 664300, Note_off_c, 0, 42, 63
1, 664301, Control_c, 0, 64, 64
1, 664316, Note_off_c, 0, 23, 60
1, 664316, Control_c, 0, 64, 59
1, 664330, Control_c, 0, 64, 44
1, 664345, Control_c, 0, 64, 0
1, 664673, Note_on_c, 0, 54, 60
1, 664710, Note_off_c, 0, 54, 65
1, 664722, Note_on_c, 0, 59, 70
1, 664745, Note_off_c, 0, 59, 65
1, 664785, Note_on_c, 0, 62, 66
1, 664818, Note_off_c, 0, 62, 65
1, 664832, Note_on_c, 0, 66, 70
1, 664841, Control_c, 0, 64, 23
1, 664856, Control_c, 0, 64, 29
1, 664867, Note_off_c, 0, 66, 66
1, 664871, Control_c, 0, 64, 31
1, 664884, Note_on_c, 0, 70, 70
1, 664886, Control_c, 0, 64, 33
1, 664900, Control_c, 0, 64, 35
1, 664906, Note_off_c, 0, 70, 67
1, 664915, Control_c, 0, 64, 38
1, 664930, Control_c, 0, 64, 39
1, 664945, Control_c, 0, 64, 40
1, 664950, Note_on_c, 0, 74, 71
1, 665008, Note_on_c, 0, 78, 69
1, 665016, Note_off_c, 0, 74, 62
1, 665019, Control_c, 0, 64, 39
1, 665062, Note_on_c, 0, 82, 66
1, 665064, Control_c, 0, 64, 38
1, 665079, Control_c, 0, 64, 36
1, 665093, Control_c, 0, 64, 31
1, 665108, Control_c, 0, 64, 29
1, 665123, Control_c, 0, 64, 27
1, 665138, Control_c, 0, 64, 25
1, 665152, Control_c, 0, 64, 17
1, 665167, Control_c, 0, 64, 0
1, 665186, Note_on_c, 0, 75, 60
1, 665186, Note_on_c, 0, 77, 63
1, 665205, Note_off_c, 0, 77, 66
1, 665205, Note_off_c, 0, 75, 61
1, 665946, Note_off_c, 0, 82, 63
1, 665952, Note_off_c, 0, 78, 64
1, 669229, Control_c, 0, 64, 12
1, 669243, Control_c, 0, 64, 16
1, 669258, Control_c, 0, 64, 16
1, 669288, Control_c, 0, 64, 17
1, 669303, Control_c, 0, 64, 18
1, 669318, Control_c, 0, 64, 20
1, 669332, Control_c, 0, 64, 22
1, 669347, Control_c, 0, 64, 22
1, 669407, Control_c, 0, 64, 24
1, 669422, Control_c, 0, 64, 24
1, 669482, Control_c, 0, 64, 25
1, 669496, Control_c, 0, 64, 26
1, 669571, Control_c, 0, 64, 27
1, 669586, Control_c, 0, 64, 27
1, 669601, Control_c, 0, 64, 28
1, 669630, Control_c, 0, 67, 126
1, 669645, Control_c, 0, 67, 125
1, 669659, Control_c, 0, 64, 28
1, 669659, Control_c, 0, 67, 124
1, 669674, Control_c, 0, 67, 121
1, 669690, Control_c, 0, 64, 28
1, 669690, Control_c, 0, 67, 119
1, 669705, Control_c, 0, 67, 117
1, 669720, Control_c, 0, 67, 114
1, 669734, Control_c, 0, 64, 28
1, 669734, Control_c, 0, 67, 112
1, 669749, Control_c, 0, 64, 29
1, 669749, Control_c, 0, 67, 110
1, 669771, Control_c, 0, 67, 109
1, 669786, Control_c, 0, 64, 29
1, 669786, Control_c, 0, 67, 107
1, 669801, Control_c, 0, 67, 105
1, 669815, Control_c, 0, 67, 103
1, 669830, Control_c, 0, 64, 29
1, 669830, Control_c, 0, 67, 101
1, 669845, Control_c, 0, 67, 99
1, 669860, Control_c, 0, 64, 29
1, 669860, Control_c, 0, 67, 97
1, 669875, Control_c, 0, 67, 95
1, 669890, Control_c, 0, 64, 29
1, 669890, Control_c, 0, 67, 91
1, 669905, Control_c, 0, 64, 30
1, 669905, Control_c, 0, 67, 87
1, 669920, Control_c, 0, 67, 80
1, 669935, Control_c, 0, 67, 74
1, 669949, Control_c, 0, 67, 65
1, 669964, Control_c, 0, 64, 30
1, 669964, Control_c, 0, 67, 53
1, 669979, Control_c, 0, 67, 36
1, 669994, Control_c, 0, 67, 11
1, 670009, Control_c, 0, 67, 0
1, 670038, Control_c, 0, 64, 31
1, 670053, Control_c, 0, 64, 31
1, 670067, Control_c, 0, 64, 32
1, 670082, Control_c, 0, 64, 32
1, 670127, Control_c, 0, 64, 32
1, 670141, Control_c, 0, 64, 31
1, 670156, Control_c, 0, 64, 30
1, 670171, Control_c, 0, 64, 30
1, 670185, Control_c, 0, 64, 29
1, 670200, Control_c, 0, 64, 27
1, 670215, Control_c, 0, 64, 25
1, 670230, Control_c, 0, 64, 23
1, 670245, Control_c, 0, 64, 22
1, 670260, Control_c, 0, 64, 19
1, 670274, Control_c, 0, 64, 13
1, 670290, Control_c, 0, 64, 0
1, 670365, End_track
0, 0, End_of_file
