0, 0, Header, 0, 1, 384
1, 0, Start_track
1, 0, Title_t, "Italian Polka--Gryaznov         "
1, 0, Text_t, "2009 International Piano-e-Competition finals"
1, 0, Text_t, "captured June-July 2009"
1, 0, Text_t, "http://www.piano-e-competition.com/"
1, 0, Text_t, "standard-resolution version"
1, 0, Text_t, "File processed for distribution by software from Zenph Studios, Inc., http://www.zenph.com"
1, 0, Instrument_name_t, "Yamaha Disklavier Pro Mark IV concert grand piano, model DCFIIISM4PRO"
1, 0, Sequencer_specific, 39, 67, 113, 0, 1, 0, 1, 0, 73, 116, 97, 108, 105, 97, 110, 32, 80, 111, 108, 107, 97, 32, 32, 32, 86, 71, 114, 121, 97, 122, 110, 111, 118, 32, 32, 32, 32, 32, 32, 32
1, 0, Sequencer_specific, 6, 67, 113, 0, 0, 0, 69
1, 0, System_exclusive, 21, 67, 113, 126, 21, 0, 2, 2, 2, 3, 12, 8, 4, 10, 4, 14, 8, 9, 1, 2, 3, 247
1, 0, Sequencer_specific, 5, 67, 123, 12, 2, 1
1, 0, Tempo, 512820
1, 0, Time_signature, 4, 2, 24, 8
1, 0, System_exclusive, 5, 126, 127, 9, 1, 247
1, 1, System_exclusive, 8, 67, 16, 76, 0, 0, 126, 0, 247
1, 2, System_exclusive, 8, 67, 16, 76, 8, 9, 7, 1, 247
1, 3, Control_c, 0, 0, 0
1, 3, Control_c, 1, 0, 0
1, 3, Control_c, 2, 0, 0
1, 3, Control_c, 3, 0, 0
1, 3, Control_c, 4, 0, 0
1, 3, Control_c, 5, 0, 0
1, 3, Control_c, 6, 0, 0
1, 3, Control_c, 7, 0, 0
1, 3, Control_c, 8, 0, 0
1, 3, Control_c, 9, 0, 127
1, 3, Control_c, 10, 0, 0
1, 3, Control_c, 11, 0, 0
1, 3, Control_c, 12, 0, 0
1, 3, Control_c, 13, 0, 0
1, 3, Control_c, 14, 0, 0
1, 3, Control_c, 15, 0, 0
1, 4, Control_c, 0, 32, 0
1, 4, Control_c, 1, 32, 0
1, 4, Control_c, 2, 32, 0
1, 4, Control_c, 3, 32, 0
1, 4, Control_c, 4, 32, 0
1, 4, Control_c, 5, 32, 0
1, 4, Control_c, 6, 32, 0
1, 4, Control_c, 7, 32, 0
1, 4, Control_c, 8, 32, 0
1, 4, Control_c, 9, 32, 0
1, 4, Control_c, 10, 32, 0
1, 4, Control_c, 11, 32, 0
1, 4, Control_c, 12, 32, 0
1, 4, Control_c, 13, 32, 0
1, 4, Control_c, 14, 32, 0
1, 4, Control_c, 15, 32, 0
1, 5, Program_c, 0, 0
1, 5, Program_c, 1, 0
1, 5, Program_c, 2, 0
1, 5, Program_c, 3, 0
1, 5, Program_c, 4, 0
1, 5, Program_c, 5, 0
1, 5, Program_c, 6, 0
1, 5, Program_c, 7, 0
1, 5, Program_c, 8, 0
1, 5, Program_c, 9, 0
1, 5, Program_c, 10, 0
1, 5, Program_c, 11, 0
1, 5, Program_c, 12, 0
1, 5, Program_c, 13, 0
1, 5, Program_c, 14, 0
1, 5, Program_c, 15, 0
1, 6, Control_c, 0, 7, 100
1, 6, Control_c, 1, 7, 100
1, 6, Control_c, 2, 7, 100
1, 6, Control_c, 3, 7, 100
1, 6, Control_c, 4, 7, 100
1, 6, Control_c, 5, 7, 100
1, 6, Control_c, 6, 7, 100
1, 6, Control_c, 7, 7, 100
1, 6, Control_c, 8, 7, 100
1, 6, Control_c, 9, 7, 100
1, 6, Control_c, 10, 7, 100
1, 6, Control_c, 11, 7, 100
1, 6, Control_c, 12, 7, 100
1, 6, Control_c, 13, 7, 100
1, 6, Control_c, 14, 7, 100
1, 6, Control_c, 15, 7, 100
1, 117, Control_c, 0, 67, 15
1, 229, Control_c, 0, 67, 31
1, 341, Control_c, 0, 67, 46
1, 452, Control_c, 0, 67, 63
1, 564, Control_c, 0, 67, 77
1, 676, Control_c, 0, 67, 94
1, 787, Control_c, 0, 67, 108
1, 899, Control_c, 0, 67, 127
1, 1137, Control_c, 0, 64, 65
1, 1138, Note_on_c, 0, 82, 35
1, 1152, Control_c, 0, 64, 64
1, 1167, Control_c, 0, 64, 63
1, 1182, Control_c, 0, 64, 63
1, 1196, Control_c, 0, 64, 61
1, 1211, Control_c, 0, 64, 60
1, 1226, Control_c, 0, 64, 58
1, 1241, Control_c, 0, 64, 57
1, 1256, Control_c, 0, 64, 56
1, 1271, Control_c, 0, 64, 55
1, 1286, Control_c, 0, 64, 54
1, 1300, Control_c, 0, 64, 53
1, 1315, Control_c, 0, 64, 52
1, 1330, Control_c, 0, 64, 52
1, 1374, Control_c, 0, 64, 51
1, 1375, Note_off_c, 0, 82, 45
1, 1387, Note_on_c, 0, 87, 43
1, 1404, Control_c, 0, 64, 51
1, 1448, Control_c, 0, 64, 50
1, 1463, Control_c, 0, 64, 49
1, 1478, Control_c, 0, 64, 49
1, 1507, Control_c, 0, 64, 48
1, 1529, Note_off_c, 0, 87, 58
1, 1537, Control_c, 0, 64, 48
1, 1552, Control_c, 0, 64, 47
1, 1566, Control_c, 0, 64, 46
1, 1575, Note_on_c, 0, 90, 45
1, 1581, Control_c, 0, 64, 45
1, 1596, Control_c, 0, 64, 44
1, 1612, Control_c, 0, 64, 44
1, 1627, Control_c, 0, 64, 43
1, 1642, Control_c, 0, 64, 42
1, 1657, Control_c, 0, 64, 42
1, 1671, Control_c, 0, 64, 40
1, 1686, Control_c, 0, 64, 40
1, 1731, Control_c, 0, 64, 39
1, 1760, Control_c, 0, 64, 38
1, 1771, Note_off_c, 0, 90, 46
1, 1783, Note_on_c, 0, 94, 56
1, 1811, Note_off_c, 0, 94, 65
1, 1812, Control_c, 0, 64, 38
1, 1857, Control_c, 0, 64, 37
1, 2138, Control_c, 0, 64, 38
1, 2153, Note_on_c, 0, 82, 45
1, 2162, Note_on_c, 0, 75, 40
1, 2164, Note_on_c, 0, 94, 60
1, 2165, Note_on_c, 0, 78, 41
1, 2183, Control_c, 0, 64, 38
1, 2198, Note_off_c, 0, 75, 63
1, 2198, Note_off_c, 0, 78, 61
1, 2202, Note_off_c, 0, 82, 61
1, 2310, Note_off_c, 0, 94, 47
1, 2311, Note_on_c, 0, 95, 65
1, 2345, Control_c, 0, 64, 39
1, 2374, Note_off_c, 0, 95, 61
1, 2478, Note_on_c, 0, 94, 66
1, 2501, Note_off_c, 0, 94, 69
1, 2830, Note_on_c, 0, 90, 66
1, 2837, Note_on_c, 0, 70, 36
1, 2845, Note_on_c, 0, 82, 28
1, 2847, Note_on_c, 0, 78, 35
1, 2854, Note_off_c, 0, 90, 69
1, 2868, Note_off_c, 0, 70, 58
1, 2878, Note_off_c, 0, 78, 57
1, 2883, Note_off_c, 0, 82, 54
1, 2901, Poly_aftertouch_c, 0, 75, 0
1, 3006, Control_c, 0, 64, 40
1, 3035, Control_c, 0, 64, 40
1, 3065, Control_c, 0, 64, 41
1, 3166, Note_on_c, 0, 92, 65
1, 3192, Note_off_c, 0, 92, 70
1, 3473, Control_c, 0, 64, 40
1, 3503, Control_c, 0, 64, 40
1, 3517, Control_c, 0, 64, 39
1, 3521, Note_on_c, 0, 94, 59
1, 3525, Note_on_c, 0, 82, 52
1, 3537, Note_on_c, 0, 80, 39
1, 3549, Note_off_c, 0, 94, 67
1, 3551, Note_off_c, 0, 82, 62
1, 3563, Note_off_c, 0, 80, 55
1, 3574, Poly_aftertouch_c, 0, 77, 0
1, 3591, Control_c, 0, 64, 40
1, 3606, Control_c, 0, 64, 42
1, 3621, Control_c, 0, 64, 45
1, 3635, Control_c, 0, 64, 48
1, 3650, Control_c, 0, 64, 51
1, 3665, Control_c, 0, 64, 54
1, 3680, Control_c, 0, 64, 57
1, 3694, Control_c, 0, 64, 59
1, 3709, Control_c, 0, 64, 61
1, 3724, Control_c, 0, 64, 62
1, 3739, Control_c, 0, 64, 63
1, 3754, Control_c, 0, 64, 64
1, 3769, Control_c, 0, 64, 65
1, 3784, Control_c, 0, 64, 67
1, 3799, Control_c, 0, 64, 68
1, 3814, Control_c, 0, 64, 69
1, 3829, Control_c, 0, 64, 70
1, 3843, Control_c, 0, 64, 72
1, 3858, Control_c, 0, 64, 74
1, 3873, Control_c, 0, 64, 76
1, 3888, Control_c, 0, 64, 79
1, 3903, Control_c, 0, 64, 83
1, 3909, Note_on_c, 0, 94, 45
1, 3918, Control_c, 0, 64, 88
1, 3923, Note_on_c, 0, 86, 36
1, 3928, Note_on_c, 0, 80, 34
1, 3933, Control_c, 0, 64, 93
1, 3933, Note_on_c, 0, 82, 30
1, 3948, Control_c, 0, 64, 98
1, 3958, Note_off_c, 0, 94, 60
1, 3962, Control_c, 0, 64, 103
1, 3963, Note_off_c, 0, 80, 51
1, 3970, Note_off_c, 0, 82, 53
1, 3977, Control_c, 0, 64, 107
1, 3985, Note_off_c, 0, 86, 47
1, 3992, Control_c, 0, 64, 112
1, 4007, Control_c, 0, 64, 119
1, 4022, Control_c, 0, 64, 127
1, 4371, Control_c, 0, 64, 124
1, 4385, Control_c, 0, 64, 120
1, 4400, Control_c, 0, 64, 118
1, 4415, Control_c, 0, 64, 118
1, 4430, Control_c, 0, 64, 117
1, 4445, Control_c, 0, 64, 115
1, 4459, Control_c, 0, 64, 113
1, 4474, Control_c, 0, 64, 111
1, 4489, Control_c, 0, 64, 108
1, 4504, Control_c, 0, 64, 106
1, 4518, Control_c, 0, 64, 103
1, 4533, Control_c, 0, 64, 100
1, 4548, Control_c, 0, 64, 95
1, 4563, Control_c, 0, 64, 89
1, 4574, Note_on_c, 0, 94, 52
1, 4577, Control_c, 0, 64, 79
1, 4592, Control_c, 0, 64, 70
1, 4593, Note_off_c, 0, 94, 64
1, 4607, Control_c, 0, 64, 62
1, 4622, Control_c, 0, 64, 47
1, 4636, Control_c, 0, 64, 41
1, 4666, Control_c, 0, 64, 40
1, 4911, Note_on_c, 0, 94, 53
1, 4913, Note_on_c, 0, 82, 40
1, 4914, Note_on_c, 0, 70, 43
1, 4920, Note_on_c, 0, 80, 43
1, 4950, Note_off_c, 0, 80, 58
1, 4952, Note_off_c, 0, 82, 54
1, 4958, Note_off_c, 0, 70, 62
1, 5051, Note_on_c, 0, 95, 58
1, 5057, Note_off_c, 0, 94, 46
1, 5187, Note_off_c, 0, 95, 37
1, 5216, Note_on_c, 0, 94, 57
1, 5236, Note_off_c, 0, 94, 63
1, 5543, Note_on_c, 0, 74, 45
1, 5544, Note_on_c, 0, 89, 60
1, 5556, Note_on_c, 0, 82, 39
1, 5560, Note_on_c, 0, 80, 36
1, 5581, Note_off_c, 0, 89, 59
1, 5585, Note_off_c, 0, 82, 58
1, 5587, Note_off_c, 0, 74, 64
1, 5588, Note_off_c, 0, 80, 56
1, 5868, Note_on_c, 0, 90, 61
1, 5895, Note_off_c, 0, 90, 69
1, 6185, Note_on_c, 0, 94, 59
1, 6194, Note_on_c, 0, 75, 34
1, 6195, Note_on_c, 0, 78, 43
1, 6198, Note_on_c, 0, 82, 43
1, 6213, Note_off_c, 0, 94, 67
1, 6221, Note_off_c, 0, 78, 57
1, 6224, Note_off_c, 0, 82, 58
1, 6225, Note_off_c, 0, 75, 57
1, 6237, Control_c, 0, 64, 42
1, 6252, Control_c, 0, 64, 44
1, 6267, Control_c, 0, 64, 46
1, 6289, Control_c, 0, 64, 48
1, 6304, Control_c, 0, 64, 51
1, 6319, Control_c, 0, 64, 54
1, 6334, Control_c, 0, 64, 56
1, 6349, Control_c, 0, 64, 58
1, 6363, Control_c, 0, 64, 59
1, 6378, Control_c, 0, 64, 60
1, 6393, Control_c, 0, 64, 61
1, 6409, Control_c, 0, 64, 62
1, 6424, Control_c, 0, 64, 62
1, 6439, Control_c, 0, 64, 63
1, 6454, Control_c, 0, 64, 63
1, 6468, Control_c, 0, 64, 64
1, 6483, Control_c, 0, 64, 65
1, 6498, Control_c, 0, 64, 66
1, 6512, Control_c, 0, 64, 68
1, 6527, Control_c, 0, 64, 70
1, 6542, Control_c, 0, 64, 73
1, 6548, Note_on_c, 0, 78, 41
1, 6549, Note_on_c, 0, 94, 53
1, 6557, Control_c, 0, 64, 76
1, 6560, Note_on_c, 0, 87, 31
1, 6565, Note_on_c, 0, 82, 32
1, 6572, Control_c, 0, 64, 79
1, 6586, Control_c, 0, 64, 83
1, 6591, Note_off_c, 0, 78, 52
1, 6595, Note_off_c, 0, 94, 60
1, 6598, Note_off_c, 0, 82, 55
1, 6601, Control_c, 0, 64, 85
1, 6605, Note_off_c, 0, 87, 59
1, 6616, Control_c, 0, 64, 87
1, 6631, Control_c, 0, 64, 89
1, 6646, Control_c, 0, 64, 90
1, 6660, Control_c, 0, 64, 92
1, 6823, Control_c, 0, 64, 91
1, 6852, Control_c, 0, 64, 91
1, 6867, Control_c, 0, 64, 90
1, 6882, Control_c, 0, 64, 90
1, 6897, Control_c, 0, 64, 89
1, 6911, Control_c, 0, 64, 88
1, 6926, Control_c, 0, 64, 88
1, 6941, Control_c, 0, 64, 87
1, 6956, Control_c, 0, 64, 87
1, 6971, Control_c, 0, 64, 86
1, 7000, Control_c, 0, 64, 86
1, 7038, Control_c, 0, 64, 85
1, 7053, Control_c, 0, 64, 85
1, 7082, Control_c, 0, 64, 84
1, 7111, Control_c, 0, 64, 84
1, 7126, Control_c, 0, 64, 83
1, 7141, Control_c, 0, 64, 81
1, 7156, Control_c, 0, 64, 77
1, 7171, Control_c, 0, 64, 72
1, 7185, Control_c, 0, 64, 64
1, 7197, Note_on_c, 0, 99, 49
1, 7200, Control_c, 0, 64, 47
1, 7216, Control_c, 0, 64, 0
1, 7223, Note_off_c, 0, 99, 58
1, 7498, Note_on_c, 0, 75, 45
1, 7513, Note_on_c, 0, 99, 62
1, 7515, Note_on_c, 0, 82, 37
1, 7516, Note_on_c, 0, 87, 53
1, 7518, Note_on_c, 0, 78, 36
1, 7537, Note_off_c, 0, 75, 63
1, 7538, Note_off_c, 0, 87, 63
1, 7541, Note_off_c, 0, 82, 57
1, 7541, Note_off_c, 0, 99, 67
1, 7547, Note_off_c, 0, 78, 50
1, 7814, Note_on_c, 0, 99, 71
1, 7844, Note_off_c, 0, 99, 65
1, 8117, Note_on_c, 0, 73, 46
1, 8118, Note_on_c, 0, 82, 49
1, 8124, Note_on_c, 0, 99, 65
1, 8127, Note_on_c, 0, 79, 39
1, 8127, Note_on_c, 0, 87, 63
1, 8142, Note_off_c, 0, 82, 61
1, 8148, Note_off_c, 0, 87, 67
1, 8149, Note_off_c, 0, 99, 69
1, 8154, Note_off_c, 0, 73, 63
1, 8154, Note_off_c, 0, 79, 53
1, 8187, Control_c, 0, 64, 11
1, 8202, Control_c, 0, 64, 17
1, 8217, Control_c, 0, 64, 19
1, 8231, Control_c, 0, 64, 23
1, 8246, Control_c, 0, 64, 26
1, 8261, Control_c, 0, 64, 29
1, 8276, Control_c, 0, 64, 32
1, 8291, Control_c, 0, 64, 36
1, 8306, Control_c, 0, 64, 37
1, 8321, Control_c, 0, 64, 38
1, 8336, Control_c, 0, 64, 40
1, 8350, Control_c, 0, 64, 42
1, 8365, Control_c, 0, 64, 44
1, 8380, Control_c, 0, 64, 47
1, 8395, Control_c, 0, 64, 51
1, 8410, Control_c, 0, 64, 54
1, 8419, Note_on_c, 0, 99, 64
1, 8424, Control_c, 0, 64, 57
1, 8439, Control_c, 0, 64, 59
1, 8454, Control_c, 0, 64, 61
1, 8469, Control_c, 0, 64, 63
1, 8483, Control_c, 0, 64, 64
1, 8498, Control_c, 0, 64, 65
1, 8513, Control_c, 0, 64, 66
1, 8535, Control_c, 0, 64, 67
1, 8550, Control_c, 0, 64, 69
1, 8565, Control_c, 0, 64, 70
1, 8570, Note_on_c, 0, 71, 42
1, 8573, Note_on_c, 0, 97, 60
1, 8580, Control_c, 0, 64, 71
1, 8595, Control_c, 0, 64, 72
1, 8610, Control_c, 0, 64, 73
1, 8625, Control_c, 0, 64, 74
1, 8639, Control_c, 0, 64, 75
1, 8654, Control_c, 0, 64, 76
1, 8655, Note_on_c, 0, 75, 39
1, 8669, Control_c, 0, 64, 76
1, 8699, Note_off_c, 0, 71, 50
1, 8702, Note_off_c, 0, 99, 40
1, 8703, Note_on_c, 0, 80, 56
1, 8715, Note_on_c, 0, 95, 65
1, 8721, Note_off_c, 0, 75, 60
1, 8723, Note_on_c, 0, 87, 57
1, 8733, Note_off_c, 0, 80, 65
1, 8747, Note_off_c, 0, 87, 63
1, 8791, Note_off_c, 0, 97, 37
1, 8845, Note_off_c, 0, 95, 61
1, 8856, Note_on_c, 0, 94, 68
1, 8892, Control_c, 0, 64, 76
1, 8951, Control_c, 0, 64, 75
1, 8966, Control_c, 0, 64, 75
1, 8980, Control_c, 0, 64, 74
1, 8989, Note_off_c, 0, 94, 62
1, 8995, Control_c, 0, 64, 73
1, 9010, Control_c, 0, 64, 70
1, 9012, Note_on_c, 0, 92, 66
1, 9025, Control_c, 0, 64, 67
1, 9039, Note_off_c, 0, 92, 68
1, 9040, Control_c, 0, 64, 63
1, 9054, Control_c, 0, 64, 59
1, 9069, Control_c, 0, 64, 54
1, 9084, Control_c, 0, 64, 49
1, 9099, Control_c, 0, 64, 44
1, 9114, Control_c, 0, 64, 42
1, 9129, Control_c, 0, 64, 41
1, 9299, Control_c, 0, 64, 42
1, 9313, Control_c, 0, 64, 43
1, 9326, Note_on_c, 0, 95, 67
1, 9328, Control_c, 0, 64, 44
1, 9343, Control_c, 0, 64, 45
1, 9358, Control_c, 0, 64, 46
1, 9373, Control_c, 0, 64, 48
1, 9388, Control_c, 0, 64, 50
1, 9403, Control_c, 0, 64, 52
1, 9418, Control_c, 0, 64, 53
1, 9433, Control_c, 0, 64, 55
1, 9448, Control_c, 0, 64, 57
1, 9462, Control_c, 0, 64, 58
1, 9477, Control_c, 0, 64, 60
1, 9492, Control_c, 0, 64, 61
1, 9506, Control_c, 0, 64, 62
1, 9521, Control_c, 0, 64, 62
1, 9536, Control_c, 0, 64, 63
1, 9551, Control_c, 0, 64, 64
1, 9566, Control_c, 0, 64, 64
1, 9580, Control_c, 0, 64, 65
1, 9595, Control_c, 0, 64, 66
1, 9611, Control_c, 0, 64, 67
1, 9626, Control_c, 0, 64, 69
1, 9633, Note_on_c, 0, 70, 38
1, 9633, Note_on_c, 0, 94, 64
1, 9641, Control_c, 0, 64, 71
1, 9648, Note_off_c, 0, 95, 59
1, 9656, Control_c, 0, 64, 73
1, 9662, Note_off_c, 0, 94, 64
1, 9671, Control_c, 0, 64, 75
1, 9685, Control_c, 0, 64, 77
1, 9695, Note_off_c, 0, 70, 57
1, 9700, Control_c, 0, 64, 78
1, 9715, Control_c, 0, 64, 79
1, 9729, Control_c, 0, 64, 79
1, 9834, Control_c, 0, 64, 79
1, 9878, Control_c, 0, 64, 78
1, 9893, Control_c, 0, 64, 77
1, 9908, Control_c, 0, 64, 74
1, 9922, Control_c, 0, 64, 69
1, 9932, Note_on_c, 0, 94, 64
1, 9937, Control_c, 0, 64, 63
1, 9938, Note_on_c, 0, 86, 54
1, 9939, Note_on_c, 0, 77, 50
1, 9952, Control_c, 0, 64, 45
1, 9957, Note_off_c, 0, 86, 64
1, 9957, Note_off_c, 0, 94, 67
1, 9961, Note_off_c, 0, 77, 63
1, 9967, Control_c, 0, 64, 0
1, 10248, Note_on_c, 0, 94, 58
1, 10250, Note_on_c, 0, 87, 56
1, 10252, Note_on_c, 0, 78, 45
1, 10270, Note_off_c, 0, 94, 66
1, 10270, Note_off_c, 0, 87, 66
1, 10278, Note_off_c, 0, 78, 58
1, 10552, Note_on_c, 0, 80, 44
1, 10554, Note_on_c, 0, 94, 54
1, 10559, Note_on_c, 0, 89, 52
1, 10580, Note_off_c, 0, 89, 62
1, 10583, Note_off_c, 0, 80, 63
1, 10589, Note_off_c, 0, 94, 65
1, 10701, Control_c, 0, 64, 21
1, 10716, Control_c, 0, 64, 29
1, 10731, Control_c, 0, 64, 36
1, 10745, Control_c, 0, 64, 40
1, 10760, Control_c, 0, 64, 45
1, 10783, Control_c, 0, 64, 48
1, 10798, Control_c, 0, 64, 51
1, 10813, Control_c, 0, 64, 54
1, 10827, Control_c, 0, 64, 57
1, 10842, Control_c, 0, 64, 61
1, 10857, Control_c, 0, 64, 64
1, 10871, Control_c, 0, 64, 65
1, 10875, Note_on_c, 0, 94, 54
1, 10886, Control_c, 0, 64, 67
1, 10901, Control_c, 0, 64, 69
1, 10916, Control_c, 0, 64, 71
1, 10931, Control_c, 0, 64, 73
1, 10946, Control_c, 0, 64, 74
1, 10960, Control_c, 0, 64, 76
1, 10975, Control_c, 0, 64, 77
1, 10990, Control_c, 0, 64, 78
1, 11005, Control_c, 0, 64, 79
1, 11020, Control_c, 0, 64, 79
1, 11028, Note_on_c, 0, 92, 56
1, 11179, Note_off_c, 0, 94, 20
1, 11188, Note_on_c, 0, 90, 52
1, 11200, Note_on_c, 0, 82, 43
1, 11221, Note_off_c, 0, 90, 65
1, 11225, Note_off_c, 0, 82, 60
1, 11323, Note_off_c, 0, 92, 42
1, 11340, Note_on_c, 0, 89, 57
1, 11390, Control_c, 0, 64, 79
1, 11418, Note_off_c, 0, 89, 57
1, 11464, Control_c, 0, 64, 78
1, 11508, Control_c, 0, 64, 78
1, 11510, Note_on_c, 0, 87, 63
1, 11546, Control_c, 0, 64, 77
1, 11552, Note_off_c, 0, 87, 62
1, 11575, Control_c, 0, 64, 77
1, 11590, Control_c, 0, 64, 76
1, 11620, Control_c, 0, 64, 76
1, 11635, Control_c, 0, 64, 75
1, 11649, Control_c, 0, 64, 74
1, 11664, Control_c, 0, 64, 73
1, 11679, Control_c, 0, 64, 72
1, 11684, Note_on_c, 0, 82, 67
1, 11693, Control_c, 0, 64, 71
1, 11708, Control_c, 0, 64, 69
1, 11723, Control_c, 0, 64, 66
1, 11738, Control_c, 0, 64, 64
1, 11753, Control_c, 0, 64, 62
1, 11768, Control_c, 0, 64, 61
1, 11782, Control_c, 0, 64, 58
1, 11797, Control_c, 0, 64, 54
1, 11812, Control_c, 0, 64, 47
1, 11826, Control_c, 0, 64, 42
1, 11841, Control_c, 0, 64, 36
1, 11856, Control_c, 0, 64, 31
1, 11865, Note_off_c, 0, 82, 56
1, 11870, Note_on_c, 0, 87, 61
1, 11871, Control_c, 0, 64, 24
1, 11886, Control_c, 0, 64, 14
1, 11901, Control_c, 0, 64, 0
1, 12041, Note_off_c, 0, 87, 56
1, 12060, Note_on_c, 0, 90, 53
1, 12294, Control_c, 0, 64, 11
1, 12309, Control_c, 0, 64, 51
1, 12312, Note_on_c, 0, 94, 49
1, 12315, Note_off_c, 0, 90, 37
1, 12324, Control_c, 0, 64, 63
1, 12333, Note_on_c, 0, 75, 34
1, 12339, Control_c, 0, 64, 67
1, 12350, Note_off_c, 0, 94, 57
1, 12354, Control_c, 0, 64, 70
1, 12368, Note_off_c, 0, 75, 57
1, 12369, Control_c, 0, 64, 73
1, 12384, Control_c, 0, 64, 76
1, 12398, Control_c, 0, 64, 78
1, 12413, Control_c, 0, 64, 80
1, 12428, Control_c, 0, 64, 81
1, 12443, Control_c, 0, 64, 82
1, 12502, Control_c, 0, 64, 81
1, 12620, Control_c, 0, 64, 81
1, 12635, Control_c, 0, 64, 80
1, 12649, Control_c, 0, 64, 79
1, 12664, Control_c, 0, 64, 77
1, 12679, Control_c, 0, 64, 73
1, 12690, Note_on_c, 0, 94, 55
1, 12694, Control_c, 0, 64, 67
1, 12695, Note_on_c, 0, 78, 40
1, 12709, Control_c, 0, 64, 62
1, 12718, Note_on_c, 0, 82, 7
1, 12724, Control_c, 0, 64, 51
1, 12726, Note_off_c, 0, 78, 55
1, 12739, Control_c, 0, 64, 40
1, 12747, Note_off_c, 0, 82, 49
1, 12753, Control_c, 0, 64, 31
1, 12768, Control_c, 0, 64, 26
1, 12783, Control_c, 0, 64, 23
1, 12799, Control_c, 0, 64, 21
1, 12839, Note_off_c, 0, 94, 45
1, 12843, Note_on_c, 0, 95, 54
1, 12953, Note_off_c, 0, 95, 30
1, 12992, Note_on_c, 0, 70, 41
1, 13015, Note_on_c, 0, 94, 44
1, 13034, Note_off_c, 0, 70, 63
1, 13044, Control_c, 0, 64, 23
1, 13046, Note_off_c, 0, 94, 58
1, 13147, Control_c, 0, 64, 24
1, 13266, Control_c, 0, 64, 26
1, 13314, Note_on_c, 0, 90, 56
1, 13317, Note_on_c, 0, 82, 40
1, 13328, Note_on_c, 0, 78, 34
1, 13336, Note_off_c, 0, 90, 65
1, 13345, Note_off_c, 0, 82, 57
1, 13358, Note_off_c, 0, 78, 54
1, 13623, Note_on_c, 0, 92, 53
1, 13633, Note_on_c, 0, 77, 41
1, 13651, Note_off_c, 0, 92, 63
1, 13660, Note_off_c, 0, 77, 58
1, 13932, Note_on_c, 0, 94, 60
1, 13938, Note_on_c, 0, 80, 39
1, 13940, Note_on_c, 0, 82, 40
1, 13966, Note_off_c, 0, 82, 57
1, 13969, Note_off_c, 0, 80, 55
1, 13970, Note_off_c, 0, 94, 56
1, 13985, Control_c, 0, 64, 27
1, 14000, Control_c, 0, 64, 30
1, 14015, Control_c, 0, 64, 32
1, 14030, Control_c, 0, 64, 34
1, 14044, Control_c, 0, 64, 36
1, 14059, Control_c, 0, 64, 37
1, 14074, Control_c, 0, 64, 40
1, 14089, Control_c, 0, 64, 42
1, 14104, Control_c, 0, 64, 44
1, 14119, Control_c, 0, 64, 47
1, 14134, Control_c, 0, 64, 49
1, 14148, Control_c, 0, 64, 51
1, 14163, Control_c, 0, 64, 54
1, 14178, Control_c, 0, 64, 57
1, 14193, Control_c, 0, 64, 61
1, 14208, Control_c, 0, 64, 63
1, 14222, Control_c, 0, 64, 65
1, 14226, Note_on_c, 0, 94, 50
1, 14237, Control_c, 0, 64, 67
1, 14245, Note_on_c, 0, 70, 35
1, 14252, Control_c, 0, 64, 69
1, 14267, Control_c, 0, 64, 71
1, 14282, Control_c, 0, 64, 73
1, 14296, Control_c, 0, 64, 73
1, 14311, Control_c, 0, 64, 74
1, 14324, Note_off_c, 0, 70, 48
1, 14358, Note_on_c, 0, 82, 54
1, 14435, Note_off_c, 0, 82, 57
1, 14455, Note_off_c, 0, 94, 24
1, 14521, Note_on_c, 0, 86, 53
1, 14527, Note_on_c, 0, 82, 47
1, 14530, Note_on_c, 0, 80, 42
1, 14557, Note_off_c, 0, 82, 59
1, 14578, Note_off_c, 0, 80, 47
1, 14601, Control_c, 0, 64, 73
1, 14607, Note_off_c, 0, 86, 59
1, 14643, Note_on_c, 0, 89, 64
1, 14646, Control_c, 0, 64, 73
1, 14675, Control_c, 0, 64, 72
1, 14705, Control_c, 0, 64, 72
1, 14720, Control_c, 0, 64, 71
1, 14734, Control_c, 0, 64, 70
1, 14749, Control_c, 0, 64, 68
1, 14764, Control_c, 0, 64, 66
1, 14779, Control_c, 0, 64, 63
1, 14780, Note_off_c, 0, 89, 60
1, 14793, Control_c, 0, 64, 57
1, 14804, Note_on_c, 0, 94, 57
1, 14808, Control_c, 0, 64, 40
1, 14817, Note_on_c, 0, 77, 32
1, 14823, Control_c, 0, 64, 11
1, 14825, Note_off_c, 0, 94, 66
1, 14838, Control_c, 0, 64, 0
1, 14849, Note_off_c, 0, 77, 51
1, 15097, Note_on_c, 0, 94, 60
1, 15102, Note_on_c, 0, 82, 38
1, 15105, Note_on_c, 0, 80, 42
1, 15138, Note_off_c, 0, 80, 53
1, 15138, Note_off_c, 0, 82, 52
1, 15224, Note_on_c, 0, 95, 63
1, 15230, Note_off_c, 0, 94, 37
1, 15381, Note_off_c, 0, 95, 32
1, 15383, Note_on_c, 0, 94, 66
1, 15390, Note_on_c, 0, 70, 43
1, 15409, Note_off_c, 0, 94, 66
1, 15425, Note_off_c, 0, 70, 61
1, 15675, Note_on_c, 0, 89, 62
1, 15682, Note_on_c, 0, 80, 37
1, 15684, Note_on_c, 0, 82, 39
1, 15715, Note_off_c, 0, 80, 55
1, 15716, Note_off_c, 0, 89, 58
1, 15718, Note_off_c, 0, 82, 56
1, 15968, Note_on_c, 0, 90, 54
1, 15972, Note_on_c, 0, 75, 43
1, 16003, Note_off_c, 0, 75, 59
1, 16008, Note_off_c, 0, 90, 63
1, 16268, Note_on_c, 0, 94, 56
1, 16284, Note_on_c, 0, 82, 29
1, 16288, Note_on_c, 0, 78, 25
1, 16301, Note_off_c, 0, 94, 61
1, 16318, Note_off_c, 0, 82, 52
1, 16322, Note_off_c, 0, 78, 47
1, 16379, Control_c, 0, 64, 14
1, 16394, Control_c, 0, 64, 19
1, 16409, Control_c, 0, 64, 23
1, 16424, Control_c, 0, 64, 27
1, 16438, Control_c, 0, 64, 32
1, 16453, Control_c, 0, 64, 36
1, 16468, Control_c, 0, 64, 41
1, 16483, Control_c, 0, 64, 45
1, 16497, Control_c, 0, 64, 49
1, 16512, Control_c, 0, 64, 54
1, 16527, Control_c, 0, 64, 59
1, 16542, Control_c, 0, 64, 63
1, 16558, Control_c, 0, 64, 66
1, 16571, Note_on_c, 0, 70, 39
1, 16572, Note_on_c, 0, 94, 51
1, 16572, Control_c, 0, 64, 68
1, 16587, Control_c, 0, 64, 70
1, 16602, Control_c, 0, 64, 72
1, 16610, Note_off_c, 0, 70, 61
1, 16617, Control_c, 0, 64, 74
1, 16632, Control_c, 0, 64, 75
1, 16646, Control_c, 0, 64, 76
1, 16661, Control_c, 0, 64, 76
1, 16676, Control_c, 0, 64, 77
1, 16685, Note_off_c, 0, 94, 37
1, 16700, Note_on_c, 0, 87, 58
1, 16818, Control_c, 0, 64, 76
1, 16841, Note_off_c, 0, 87, 34
1, 16848, Note_on_c, 0, 90, 53
1, 16853, Note_on_c, 0, 78, 39
1, 16858, Note_on_c, 0, 82, 42
1, 16863, Control_c, 0, 64, 76
1, 16888, Note_off_c, 0, 78, 53
1, 16892, Control_c, 0, 64, 75
1, 16896, Note_off_c, 0, 82, 52
1, 16921, Control_c, 0, 64, 75
1, 16927, Note_off_c, 0, 90, 59
1, 16951, Control_c, 0, 64, 74
1, 16974, Note_on_c, 0, 94, 58
1, 16981, Control_c, 0, 64, 74
1, 16995, Control_c, 0, 64, 73
1, 17010, Control_c, 0, 64, 73
1, 17055, Control_c, 0, 64, 72
1, 17070, Control_c, 0, 64, 71
1, 17085, Control_c, 0, 64, 69
1, 17100, Control_c, 0, 64, 66
1, 17112, Note_off_c, 0, 94, 57
1, 17114, Control_c, 0, 64, 63
1, 17117, Note_on_c, 0, 99, 71
1, 17127, Note_on_c, 0, 75, 55
1, 17129, Control_c, 0, 64, 56
1, 17144, Control_c, 0, 64, 50
1, 17153, Note_off_c, 0, 99, 62
1, 17157, Note_off_c, 0, 75, 65
1, 17159, Control_c, 0, 64, 48
1, 17174, Control_c, 0, 64, 46
1, 17188, Control_c, 0, 64, 44
1, 17203, Control_c, 0, 64, 43
1, 17247, Control_c, 0, 64, 43
1, 17336, Control_c, 0, 64, 42
1, 17409, Note_on_c, 0, 78, 54
1, 17410, Note_on_c, 0, 99, 71
1, 17414, Note_on_c, 0, 87, 66
1, 17415, Note_on_c, 0, 82, 47
1, 17436, Note_off_c, 0, 78, 65
1, 17437, Note_off_c, 0, 82, 59
1, 17438, Note_off_c, 0, 99, 66
1, 17440, Note_off_c, 0, 87, 68
1, 17484, Control_c, 0, 64, 42
1, 17597, Control_c, 0, 64, 41
1, 17626, Control_c, 0, 64, 40
1, 17670, Control_c, 0, 64, 40
1, 17696, Note_on_c, 0, 73, 64
1, 17705, Note_on_c, 0, 99, 79
1, 17727, Note_off_c, 0, 73, 63
1, 17733, Note_off_c, 0, 99, 65
1, 17833, Control_c, 0, 64, 40
1, 17848, Control_c, 0, 64, 41
1, 17863, Control_c, 0, 64, 42
1, 17878, Control_c, 0, 64, 43
1, 17892, Control_c, 0, 64, 44
1, 17907, Control_c, 0, 64, 45
1, 17922, Control_c, 0, 64, 46
1, 17937, Control_c, 0, 64, 47
1, 17952, Control_c, 0, 64, 48
1, 17967, Control_c, 0, 64, 49
1, 17970, Note_on_c, 0, 79, 51
1, 17971, Note_on_c, 0, 82, 66
1, 17982, Control_c, 0, 64, 51
1, 17984, Note_on_c, 0, 99, 75
1, 17986, Note_on_c, 0, 87, 69
1, 17997, Control_c, 0, 64, 52
1, 17997, Note_off_c, 0, 82, 67
1, 18004, Note_off_c, 0, 79, 55
1, 18009, Note_off_c, 0, 99, 67
1, 18010, Note_off_c, 0, 87, 71
1, 18011, Control_c, 0, 64, 53
1, 18041, Control_c, 0, 64, 52
1, 18056, Control_c, 0, 64, 51
1, 18070, Control_c, 0, 64, 49
1, 18085, Control_c, 0, 64, 46
1, 18100, Control_c, 0, 64, 44
1, 18106, Note_on_c, 0, 71, 57
1, 18130, Control_c, 0, 64, 45
1, 18144, Control_c, 0, 64, 50
1, 18159, Control_c, 0, 64, 57
1, 18163, Note_on_c, 0, 75, 60
1, 18172, Note_off_c, 0, 71, 57
1, 18174, Control_c, 0, 64, 63
1, 18189, Control_c, 0, 64, 66
1, 18204, Control_c, 0, 64, 70
1, 18218, Control_c, 0, 64, 73
1, 18222, Note_off_c, 0, 75, 62
1, 18233, Control_c, 0, 64, 76
1, 18241, Note_on_c, 0, 80, 71
1, 18242, Note_on_c, 0, 99, 82
1, 18248, Control_c, 0, 64, 78
1, 18250, Note_on_c, 0, 87, 78
1, 18268, Note_off_c, 0, 80, 69
1, 18270, Control_c, 0, 64, 79
1, 18285, Note_off_c, 0, 87, 65
1, 18304, Note_off_c, 0, 99, 64
1, 18374, Control_c, 0, 64, 79
1, 18381, Note_on_c, 0, 85, 74
1, 18390, Control_c, 0, 64, 78
1, 18405, Control_c, 0, 64, 76
1, 18420, Control_c, 0, 64, 73
1, 18427, Note_off_c, 0, 85, 58
1, 18435, Control_c, 0, 64, 70
1, 18449, Control_c, 0, 64, 66
1, 18464, Control_c, 0, 64, 62
1, 18479, Control_c, 0, 64, 57
1, 18493, Control_c, 0, 64, 50
1, 18508, Control_c, 0, 64, 44
1, 18515, Note_on_c, 0, 99, 73
1, 18521, Note_on_c, 0, 83, 61
1, 18523, Control_c, 0, 64, 38
1, 18538, Control_c, 0, 64, 34
1, 18547, Note_off_c, 0, 83, 68
1, 18553, Control_c, 0, 64, 29
1, 18567, Control_c, 0, 64, 23
1, 18568, Note_off_c, 0, 99, 64
1, 18582, Control_c, 0, 64, 17
1, 18597, Control_c, 0, 64, 14
1, 18612, Control_c, 0, 64, 11
1, 18641, Control_c, 0, 64, 0
1, 18649, Note_on_c, 0, 97, 71
1, 18653, Note_on_c, 0, 82, 66
1, 18679, Note_off_c, 0, 82, 67
1, 18779, Note_on_c, 0, 80, 68
1, 18781, Note_on_c, 0, 95, 75
1, 18802, Note_off_c, 0, 80, 69
1, 18828, Note_off_c, 0, 97, 23
1, 18830, Note_off_c, 0, 95, 63
1, 18909, Note_on_c, 0, 94, 69
1, 18957, Note_off_c, 0, 94, 55
1, 19052, Note_on_c, 0, 92, 74
1, 19057, Note_on_c, 0, 83, 67
1, 19081, Note_off_c, 0, 83, 69
1, 19096, Note_off_c, 0, 92, 64
1, 19190, Note_on_c, 0, 95, 75
1, 19236, Note_off_c, 0, 95, 62
1, 19331, Note_on_c, 0, 70, 66
1, 19331, Note_on_c, 0, 94, 77
1, 19346, Control_c, 0, 64, 61
1, 19356, Note_off_c, 0, 70, 69
1, 19361, Control_c, 0, 64, 68
1, 19371, Note_off_c, 0, 94, 62
1, 19376, Control_c, 0, 64, 71
1, 19390, Control_c, 0, 64, 73
1, 19405, Control_c, 0, 64, 74
1, 19420, Control_c, 0, 64, 75
1, 19464, Control_c, 0, 64, 74
1, 19469, Note_on_c, 0, 93, 71
1, 19479, Control_c, 0, 64, 74
1, 19494, Control_c, 0, 64, 73
1, 19508, Control_c, 0, 64, 71
1, 19511, Note_off_c, 0, 93, 57
1, 19523, Control_c, 0, 64, 68
1, 19538, Control_c, 0, 64, 62
1, 19553, Control_c, 0, 64, 39
1, 19568, Control_c, 0, 64, 0
1, 19590, Note_on_c, 0, 83, 70
1, 19591, Note_on_c, 0, 92, 75
1, 19601, Note_on_c, 0, 94, 72
1, 19613, Note_off_c, 0, 92, 70
1, 19618, Note_off_c, 0, 83, 65
1, 19636, Note_off_c, 0, 94, 57
1, 19735, Note_on_c, 0, 93, 79
1, 19791, Note_off_c, 0, 93, 65
1, 19878, Note_on_c, 0, 82, 66
1, 19878, Note_on_c, 0, 90, 61
1, 19880, Note_on_c, 0, 94, 81
1, 19897, Note_off_c, 0, 90, 66
1, 19903, Note_off_c, 0, 82, 67
1, 19923, Note_off_c, 0, 94, 63
1, 20021, Note_on_c, 0, 95, 81
1, 20056, Note_off_c, 0, 95, 63
1, 20153, Note_on_c, 0, 89, 66
1, 20159, Note_on_c, 0, 80, 62
1, 20164, Note_on_c, 0, 96, 80
1, 20179, Note_off_c, 0, 89, 68
1, 20185, Note_off_c, 0, 80, 67
1, 20200, Note_off_c, 0, 96, 62
1, 20310, Note_on_c, 0, 98, 79
1, 20352, Note_off_c, 0, 98, 63
1, 20450, Control_c, 0, 64, 40
1, 20458, Note_on_c, 0, 87, 66
1, 20464, Control_c, 0, 64, 52
1, 20474, Note_on_c, 0, 78, 61
1, 20474, Note_on_c, 0, 99, 81
1, 20479, Control_c, 0, 64, 59
1, 20483, Note_off_c, 0, 87, 70
1, 20494, Control_c, 0, 64, 63
1, 20499, Note_off_c, 0, 78, 67
1, 20516, Control_c, 0, 64, 64
1, 20531, Note_off_c, 0, 99, 60
1, 20531, Control_c, 0, 64, 64
1, 20620, Control_c, 0, 64, 64
1, 20637, Note_on_c, 0, 95, 81
1, 20650, Control_c, 0, 64, 63
1, 20673, Note_off_c, 0, 95, 62
1, 20679, Control_c, 0, 64, 63
1, 20694, Control_c, 0, 64, 62
1, 20709, Control_c, 0, 64, 61
1, 20724, Control_c, 0, 64, 60
1, 20738, Control_c, 0, 64, 59
1, 20753, Control_c, 0, 64, 57
1, 20768, Control_c, 0, 64, 53
1, 20784, Control_c, 0, 64, 44
1, 20799, Control_c, 0, 64, 19
1, 20814, Note_on_c, 0, 94, 78
1, 20814, Control_c, 0, 64, 0
1, 20818, Note_on_c, 0, 70, 56
1, 20846, Note_off_c, 0, 70, 66
1, 20858, Note_off_c, 0, 94, 61
1, 20995, Note_on_c, 0, 90, 74
1, 21025, Note_off_c, 0, 90, 58
1, 21050, Control_c, 0, 64, 39
1, 21065, Control_c, 0, 64, 61
1, 21079, Control_c, 0, 64, 66
1, 21094, Control_c, 0, 64, 68
1, 21109, Control_c, 0, 64, 70
1, 21124, Control_c, 0, 64, 73
1, 21139, Control_c, 0, 64, 76
1, 21154, Control_c, 0, 64, 78
1, 21168, Control_c, 0, 64, 80
1, 21183, Control_c, 0, 64, 82
1, 21198, Control_c, 0, 64, 84
1, 21213, Control_c, 0, 64, 87
1, 21228, Control_c, 0, 64, 88
1, 21234, Note_on_c, 0, 87, 64
1, 21240, Note_on_c, 0, 78, 45
1, 21243, Note_on_c, 0, 75, 45
1, 21243, Control_c, 0, 64, 89
1, 21270, Note_off_c, 0, 87, 68
1, 21273, Note_off_c, 0, 78, 58
1, 21276, Note_off_c, 0, 75, 61
1, 21458, Control_c, 0, 64, 88
1, 21473, Control_c, 0, 64, 87
1, 21487, Control_c, 0, 64, 82
1, 21502, Control_c, 0, 64, 73
1, 21517, Control_c, 0, 64, 64
1, 21521, Note_on_c, 0, 66, 53
1, 21521, Note_on_c, 0, 70, 74
1, 21532, Control_c, 0, 64, 47
1, 21561, Control_c, 0, 64, 57
1, 21576, Control_c, 0, 64, 63
1, 21592, Control_c, 0, 64, 65
1, 21607, Control_c, 0, 64, 68
1, 21622, Control_c, 0, 64, 71
1, 21636, Control_c, 0, 64, 73
1, 21638, Note_off_c, 0, 66, 58
1, 21651, Control_c, 0, 64, 75
1, 21666, Control_c, 0, 64, 77
1, 21681, Control_c, 0, 64, 78
1, 21696, Control_c, 0, 64, 79
1, 21710, Control_c, 0, 64, 79
1, 21740, Control_c, 0, 64, 80
1, 21798, Control_c, 0, 64, 78
1, 21813, Control_c, 0, 64, 75
1, 21827, Control_c, 0, 64, 70
1, 21842, Control_c, 0, 64, 62
1, 21857, Control_c, 0, 64, 0
1, 21875, Note_on_c, 0, 75, 57
1, 21887, Note_on_c, 0, 72, 44
1, 21899, Note_off_c, 0, 70, 52
1, 21901, Note_on_c, 0, 69, 37
1, 21929, Note_off_c, 0, 72, 61
1, 21961, Control_c, 0, 64, 56
1, 21976, Control_c, 0, 64, 66
1, 21986, Note_off_c, 0, 69, 57
1, 21991, Control_c, 0, 64, 71
1, 22013, Control_c, 0, 64, 75
1, 22028, Control_c, 0, 64, 78
1, 22042, Control_c, 0, 64, 81
1, 22057, Control_c, 0, 64, 83
1, 22072, Control_c, 0, 64, 85
1, 22087, Control_c, 0, 64, 86
1, 22102, Control_c, 0, 64, 87
1, 22309, Control_c, 0, 64, 87
1, 22369, Control_c, 0, 64, 86
1, 22385, Control_c, 0, 64, 86
1, 22400, Control_c, 0, 64, 85
1, 22403, Note_on_c, 0, 78, 43
1, 22411, Note_off_c, 0, 75, 53
1, 22414, Control_c, 0, 64, 83
1, 22420, Note_on_c, 0, 70, 37
1, 22424, Note_on_c, 0, 74, 35
1, 22429, Control_c, 0, 64, 80
1, 22444, Control_c, 0, 64, 76
1, 22458, Control_c, 0, 64, 69
1, 22473, Control_c, 0, 64, 59
1, 22488, Control_c, 0, 64, 0
1, 22532, Control_c, 0, 64, 47
1, 22548, Control_c, 0, 64, 63
1, 22563, Control_c, 0, 64, 69
1, 22578, Control_c, 0, 64, 75
1, 22593, Control_c, 0, 64, 81
1, 22607, Control_c, 0, 64, 88
1, 22617, Note_off_c, 0, 74, 45
1, 22622, Control_c, 0, 64, 94
1, 22637, Control_c, 0, 64, 99
1, 22651, Control_c, 0, 64, 106
1, 22666, Control_c, 0, 64, 112
1, 22681, Control_c, 0, 64, 126
1, 22696, Control_c, 0, 64, 127
1, 22787, Note_on_c, 0, 39, 26
1, 22868, Note_on_c, 0, 46, 32
1, 22988, Note_off_c, 0, 39, 40
1, 22990, Note_on_c, 0, 82, 46
1, 22998, Note_on_c, 0, 54, 36
1, 23007, Note_on_c, 0, 75, 38
1, 23010, Note_off_c, 0, 78, 42
1, 23027, Note_off_c, 0, 46, 40
1, 23055, Note_off_c, 0, 75, 57
1, 23073, Note_off_c, 0, 54, 61
1, 23076, Note_off_c, 0, 82, 52
1, 23576, Note_on_c, 0, 63, 32
1, 23583, Note_on_c, 0, 54, 30
1, 23602, Note_on_c, 0, 58, 5
1, 23622, Note_off_c, 0, 63, 59
1, 23658, Note_off_c, 0, 54, 48
1, 23660, Note_on_c, 0, 82, 66
1, 23664, Note_off_c, 0, 58, 48
1, 23719, Note_off_c, 0, 70, 56
1, 23828, Note_on_c, 0, 83, 71
1, 23836, Note_on_c, 0, 71, 69
1, 23854, Note_off_c, 0, 82, 51
1, 23914, Note_on_c, 0, 42, 46
1, 23925, Note_off_c, 0, 71, 54
1, 23997, Note_off_c, 0, 42, 46
1, 24003, Note_on_c, 0, 51, 43
1, 24030, Control_c, 0, 64, 117
1, 24045, Control_c, 0, 64, 106
1, 24060, Control_c, 0, 64, 98
1, 24075, Control_c, 0, 64, 88
1, 24084, Note_on_c, 0, 72, 67
1, 24084, Note_on_c, 0, 82, 64
1, 24090, Control_c, 0, 64, 80
1, 24096, Note_on_c, 0, 58, 51
1, 24100, Note_off_c, 0, 51, 52
1, 24105, Note_off_c, 0, 83, 57
1, 24105, Control_c, 0, 64, 73
1, 24120, Control_c, 0, 64, 66
1, 24134, Control_c, 0, 64, 61
1, 24144, Note_off_c, 0, 82, 61
1, 24149, Control_c, 0, 64, 58
1, 24150, Note_off_c, 0, 58, 60
1, 24164, Control_c, 0, 64, 57
1, 24209, Control_c, 0, 64, 56
1, 24223, Control_c, 0, 64, 54
1, 24238, Control_c, 0, 64, 50
1, 24260, Control_c, 0, 64, 47
1, 24275, Control_c, 0, 64, 47
1, 24304, Control_c, 0, 64, 46
1, 24319, Control_c, 0, 64, 45
1, 24334, Control_c, 0, 64, 44
1, 24349, Control_c, 0, 64, 44
1, 24523, Note_on_c, 0, 66, 42
1, 24528, Note_on_c, 0, 63, 22
1, 24532, Note_on_c, 0, 78, 58
1, 24543, Note_on_c, 0, 58, 37
1, 24558, Note_off_c, 0, 66, 62
1, 24574, Note_off_c, 0, 63, 56
1, 24577, Note_off_c, 0, 58, 61
1, 24616, Control_c, 0, 64, 45
1, 24630, Control_c, 0, 64, 47
1, 24645, Control_c, 0, 64, 49
1, 24660, Control_c, 0, 64, 51
1, 24675, Control_c, 0, 64, 53
1, 24690, Control_c, 0, 64, 54
1, 24704, Control_c, 0, 64, 55
1, 24749, Control_c, 0, 64, 55
1, 24780, Control_c, 0, 64, 54
1, 24839, Control_c, 0, 64, 55
1, 24853, Control_c, 0, 64, 57
1, 24868, Control_c, 0, 64, 60
1, 24883, Control_c, 0, 64, 63
1, 24885, Note_on_c, 0, 41, 41
1, 24888, Note_on_c, 0, 80, 61
1, 24898, Note_on_c, 0, 46, 41
1, 24898, Control_c, 0, 64, 65
1, 24904, Note_on_c, 0, 56, 44
1, 24913, Control_c, 0, 64, 69
1, 24920, Note_off_c, 0, 41, 53
1, 24921, Note_off_c, 0, 78, 55
1, 24927, Control_c, 0, 64, 74
1, 24933, Note_off_c, 0, 46, 61
1, 24941, Note_off_c, 0, 56, 65
1, 24942, Control_c, 0, 64, 80
1, 24949, Note_off_c, 0, 72, 57
1, 24957, Control_c, 0, 64, 85
1, 24969, Note_off_c, 0, 80, 57
1, 24972, Control_c, 0, 64, 92
1, 24987, Control_c, 0, 64, 98
1, 25009, Control_c, 0, 64, 104
1, 25024, Control_c, 0, 64, 110
1, 25039, Control_c, 0, 64, 115
1, 25053, Control_c, 0, 64, 122
1, 25068, Control_c, 0, 64, 127
1, 25222, Note_on_c, 0, 82, 67
1, 25231, Note_on_c, 0, 72, 63
1, 25236, Note_on_c, 0, 65, 48
1, 25263, Note_on_c, 0, 56, 33
1, 25263, Note_on_c, 0, 58, 29
1, 25273, Note_off_c, 0, 72, 59
1, 25276, Note_off_c, 0, 65, 64
1, 25296, Note_off_c, 0, 82, 59
1, 25302, Note_off_c, 0, 58, 52
1, 25305, Note_off_c, 0, 56, 46
1, 25407, Note_on_c, 0, 56, 51
1, 25483, Control_c, 0, 64, 118
1, 25498, Control_c, 0, 64, 106
1, 25513, Control_c, 0, 64, 95
1, 25527, Control_c, 0, 64, 84
1, 25542, Control_c, 0, 64, 73
1, 25553, Note_on_c, 0, 82, 59
1, 25557, Control_c, 0, 64, 63
1, 25572, Note_on_c, 0, 75, 45
1, 25573, Control_c, 0, 64, 46
1, 25577, Note_on_c, 0, 72, 46
1, 25588, Control_c, 0, 64, 55
1, 25595, Note_on_c, 0, 58, 40
1, 25603, Control_c, 0, 64, 64
1, 25604, Note_on_c, 0, 65, 34
1, 25607, Note_on_c, 0, 68, 29
1, 25617, Control_c, 0, 64, 69
1, 25619, Note_off_c, 0, 72, 61
1, 25619, Note_off_c, 0, 56, 52
1, 25632, Control_c, 0, 64, 75
1, 25647, Control_c, 0, 64, 83
1, 25662, Control_c, 0, 64, 93
1, 25676, Control_c, 0, 64, 102
1, 25677, Note_off_c, 0, 75, 59
1, 25684, Note_off_c, 0, 65, 59
1, 25691, Control_c, 0, 64, 110
1, 25701, Note_off_c, 0, 68, 38
1, 25706, Control_c, 0, 64, 117
1, 25721, Control_c, 0, 64, 127
1, 25762, Note_off_c, 0, 58, 37
1, 26045, Note_on_c, 0, 74, 51
1, 26051, Note_on_c, 0, 70, 42
1, 26071, Note_off_c, 0, 82, 55
1, 26160, Note_off_c, 0, 70, 54
1, 26182, Note_on_c, 0, 41, 50
1, 26247, Control_c, 0, 64, 115
1, 26260, Note_on_c, 0, 46, 50
1, 26262, Control_c, 0, 64, 97
1, 26276, Control_c, 0, 64, 85
1, 26281, Note_off_c, 0, 41, 37
1, 26291, Control_c, 0, 64, 74
1, 26306, Control_c, 0, 64, 65
1, 26321, Control_c, 0, 64, 59
1, 26336, Control_c, 0, 64, 62
1, 26350, Control_c, 0, 64, 66
1, 26365, Control_c, 0, 64, 71
1, 26373, Note_off_c, 0, 74, 64
1, 26377, Note_on_c, 0, 82, 70
1, 26381, Control_c, 0, 64, 78
1, 26384, Note_on_c, 0, 56, 60
1, 26385, Note_on_c, 0, 72, 62
1, 26390, Note_off_c, 0, 46, 59
1, 26396, Control_c, 0, 64, 85
1, 26411, Control_c, 0, 64, 93
1, 26417, Note_off_c, 0, 56, 64
1, 26425, Control_c, 0, 64, 99
1, 26440, Control_c, 0, 64, 101
1, 26441, Note_off_c, 0, 82, 58
1, 26655, Control_c, 0, 64, 100
1, 26670, Control_c, 0, 64, 97
1, 26685, Control_c, 0, 64, 92
1, 26699, Control_c, 0, 64, 84
1, 26714, Control_c, 0, 64, 76
1, 26725, Note_on_c, 0, 82, 78
1, 26729, Control_c, 0, 64, 67
1, 26731, Note_on_c, 0, 65, 50
1, 26733, Note_on_c, 0, 58, 54
1, 26737, Note_on_c, 0, 56, 48
1, 26738, Note_off_c, 0, 72, 48
1, 26744, Control_c, 0, 64, 42
1, 26755, Note_off_c, 0, 65, 61
1, 26759, Control_c, 0, 64, 0
1, 26762, Note_off_c, 0, 58, 64
1, 26767, Note_off_c, 0, 56, 61
1, 26840, Note_off_c, 0, 82, 62
1, 26868, Note_on_c, 0, 83, 72
1, 26880, Note_on_c, 0, 73, 76
1, 26962, Note_off_c, 0, 73, 56
1, 27025, Control_c, 0, 64, 54
1, 27026, Note_on_c, 0, 82, 76
1, 27032, Note_on_c, 0, 46, 60
1, 27035, Note_on_c, 0, 74, 74
1, 27037, Note_off_c, 0, 83, 58
1, 27040, Control_c, 0, 64, 65
1, 27055, Control_c, 0, 64, 71
1, 27064, Note_off_c, 0, 46, 62
1, 27070, Control_c, 0, 64, 77
1, 27085, Control_c, 0, 64, 83
1, 27099, Control_c, 0, 64, 90
1, 27114, Control_c, 0, 64, 96
1, 27129, Control_c, 0, 64, 100
1, 27143, Control_c, 0, 64, 103
1, 27158, Control_c, 0, 64, 104
1, 27175, Control_c, 0, 64, 105
1, 27190, Control_c, 0, 64, 106
1, 27208, Note_off_c, 0, 82, 22
1, 27234, Control_c, 0, 64, 106
1, 27348, Note_on_c, 0, 77, 73
1, 27355, Note_on_c, 0, 62, 53
1, 27364, Note_on_c, 0, 56, 52
1, 27367, Note_on_c, 0, 58, 47
1, 27381, Note_off_c, 0, 62, 61
1, 27395, Note_off_c, 0, 56, 65
1, 27395, Note_off_c, 0, 58, 58
1, 27567, Control_c, 0, 64, 105
1, 27581, Control_c, 0, 64, 101
1, 27596, Control_c, 0, 64, 92
1, 27611, Control_c, 0, 64, 81
1, 27626, Control_c, 0, 64, 69
1, 27641, Control_c, 0, 64, 49
1, 27655, Control_c, 0, 64, 0
1, 27657, Note_off_c, 0, 77, 59
1, 27667, Note_on_c, 0, 39, 53
1, 27667, Note_on_c, 0, 78, 66
1, 27682, Note_on_c, 0, 54, 40
1, 27685, Note_on_c, 0, 46, 44
1, 27685, Control_c, 0, 64, 23
1, 27700, Control_c, 0, 64, 59
1, 27715, Control_c, 0, 64, 67
1, 27727, Note_off_c, 0, 39, 59
1, 27729, Control_c, 0, 64, 76
1, 27733, Note_off_c, 0, 46, 59
1, 27743, Note_off_c, 0, 74, 62
1, 27744, Control_c, 0, 64, 85
1, 27759, Control_c, 0, 64, 95
1, 27763, Note_off_c, 0, 78, 59
1, 27770, Note_off_c, 0, 54, 63
1, 27774, Control_c, 0, 64, 105
1, 27789, Control_c, 0, 64, 112
1, 27804, Control_c, 0, 64, 118
1, 27819, Control_c, 0, 64, 127
1, 27983, Note_on_c, 0, 82, 69
1, 28002, Note_on_c, 0, 74, 60
1, 28009, Note_on_c, 0, 54, 51
1, 28010, Note_on_c, 0, 70, 54
1, 28016, Note_on_c, 0, 58, 55
1, 28037, Note_off_c, 0, 74, 65
1, 28044, Note_off_c, 0, 70, 58
1, 28078, Note_off_c, 0, 82, 55
1, 28212, Control_c, 0, 64, 126
1, 28227, Control_c, 0, 64, 119
1, 28242, Control_c, 0, 64, 113
1, 28257, Control_c, 0, 64, 103
1, 28271, Control_c, 0, 64, 92
1, 28286, Control_c, 0, 64, 79
1, 28298, Note_on_c, 0, 82, 60
1, 28301, Control_c, 0, 64, 64
1, 28314, Note_on_c, 0, 70, 51
1, 28316, Control_c, 0, 64, 0
1, 28317, Note_on_c, 0, 77, 49
1, 28326, Note_on_c, 0, 65, 44
1, 28342, Note_on_c, 0, 62, 39
1, 28388, Note_off_c, 0, 65, 61
1, 28390, Control_c, 0, 64, 53
1, 28404, Control_c, 0, 64, 65
1, 28419, Control_c, 0, 64, 71
1, 28434, Control_c, 0, 64, 77
1, 28449, Control_c, 0, 64, 82
1, 28464, Control_c, 0, 64, 84
1, 28478, Control_c, 0, 64, 85
1, 28493, Control_c, 0, 64, 87
1, 28508, Control_c, 0, 64, 88
1, 28516, Note_off_c, 0, 70, 38
1, 28523, Control_c, 0, 64, 89
1, 28538, Control_c, 0, 64, 90
1, 28540, Note_off_c, 0, 62, 33
1, 28597, Control_c, 0, 64, 91
1, 28604, Note_off_c, 0, 82, 53
1, 28609, Note_off_c, 0, 54, 35
1, 28612, Control_c, 0, 64, 91
1, 28612, Note_on_c, 0, 75, 54
1, 28627, Control_c, 0, 64, 92
1, 28630, Note_on_c, 0, 60, 34
1, 28632, Note_on_c, 0, 63, 28
1, 28634, Note_off_c, 0, 75, 62
1, 28642, Control_c, 0, 64, 93
1, 28646, Note_off_c, 0, 77, 36
1, 28653, Note_off_c, 0, 58, 55
1, 28657, Control_c, 0, 64, 94
1, 28662, Note_off_c, 0, 60, 56
1, 28668, Note_off_c, 0, 63, 46
1, 28671, Control_c, 0, 64, 95
1, 28807, Note_on_c, 0, 75, 49
1, 28844, Note_on_c, 0, 78, 44
1, 28857, Control_c, 0, 64, 94
1, 28872, Control_c, 0, 64, 90
1, 28887, Control_c, 0, 64, 84
1, 28889, Note_on_c, 0, 82, 61
1, 28892, Note_off_c, 0, 78, 46
1, 28901, Control_c, 0, 64, 75
1, 28916, Control_c, 0, 64, 64
1, 28919, Note_off_c, 0, 82, 65
1, 28923, Note_on_c, 0, 51, 43
1, 28928, Note_on_c, 0, 87, 69
1, 28931, Control_c, 0, 64, 0
1, 28936, Note_on_c, 0, 66, 61
1, 28943, Note_on_c, 0, 58, 31
1, 28955, Note_off_c, 0, 51, 64
1, 28959, Note_off_c, 0, 87, 63
1, 28977, Note_off_c, 0, 58, 46
1, 29247, Note_on_c, 0, 87, 69
1, 29253, Note_on_c, 0, 58, 51
1, 29269, Note_off_c, 0, 75, 39
1, 29272, Note_off_c, 0, 66, 63
1, 29278, Note_off_c, 0, 87, 64
1, 29286, Note_off_c, 0, 58, 64
1, 29330, Poly_aftertouch_c, 0, 63, 0
1, 29418, Note_on_c, 0, 75, 51
1, 29431, Note_on_c, 0, 49, 59
1, 29470, Note_on_c, 0, 79, 52
1, 29487, Note_on_c, 0, 58, 60
1, 29498, Note_off_c, 0, 49, 63
1, 29517, Note_on_c, 0, 82, 64
1, 29550, Note_off_c, 0, 79, 61
1, 29553, Note_on_c, 0, 87, 81
1, 29558, Note_off_c, 0, 58, 63
1, 29560, Note_off_c, 0, 82, 62
1, 29575, Note_on_c, 0, 67, 72
1, 29578, Control_c, 0, 64, 34
1, 29593, Control_c, 0, 64, 61
1, 29593, Control_c, 0, 67, 123
1, 29607, Control_c, 0, 64, 67
1, 29607, Control_c, 0, 67, 116
1, 29611, Note_off_c, 0, 87, 65
1, 29622, Control_c, 0, 64, 71
1, 29622, Control_c, 0, 67, 106
1, 29637, Control_c, 0, 64, 72
1, 29637, Control_c, 0, 67, 97
1, 29651, Control_c, 0, 64, 74
1, 29651, Control_c, 0, 67, 89
1, 29666, Control_c, 0, 64, 75
1, 29666, Control_c, 0, 67, 83
1, 29681, Control_c, 0, 64, 75
1, 29681, Control_c, 0, 67, 78
1, 29696, Control_c, 0, 67, 73
1, 29711, Control_c, 0, 67, 68
1, 29725, Control_c, 0, 67, 64
1, 29740, Control_c, 0, 67, 62
1, 29755, Control_c, 0, 67, 61
1, 29769, Control_c, 0, 67, 59
1, 29784, Control_c, 0, 67, 57
1, 29799, Control_c, 0, 67, 56
1, 29814, Control_c, 0, 67, 55
1, 29823, Note_off_c, 0, 67, 55
1, 29829, Control_c, 0, 67, 55
1, 29845, Note_on_c, 0, 58, 59
1, 29857, Note_on_c, 0, 87, 73
1, 29873, Note_off_c, 0, 58, 66
1, 29873, Control_c, 0, 67, 54
1, 29890, Note_off_c, 0, 75, 47
1, 29912, Note_off_c, 0, 87, 63
1, 29932, Control_c, 0, 64, 74
1, 29933, Poly_aftertouch_c, 0, 63, 0
1, 29947, Control_c, 0, 64, 73
1, 29962, Control_c, 0, 64, 68
1, 29977, Control_c, 0, 64, 63
1, 29992, Note_on_c, 0, 75, 70
1, 29992, Control_c, 0, 64, 31
1, 29993, Note_on_c, 0, 47, 58
1, 30007, Control_c, 0, 64, 0
1, 30050, Control_c, 0, 67, 55
1, 30055, Note_off_c, 0, 47, 54
1, 30065, Control_c, 0, 67, 57
1, 30080, Control_c, 0, 67, 58
1, 30086, Note_on_c, 0, 56, 53
1, 30095, Control_c, 0, 67, 59
1, 30110, Control_c, 0, 67, 60
1, 30124, Control_c, 0, 64, 54
1, 30124, Control_c, 0, 67, 61
1, 30139, Control_c, 0, 64, 63
1, 30139, Control_c, 0, 67, 62
1, 30141, Note_on_c, 0, 87, 82
1, 30149, Note_off_c, 0, 56, 64
1, 30153, Note_on_c, 0, 63, 71
1, 30154, Control_c, 0, 64, 66
1, 30168, Control_c, 0, 64, 68
1, 30168, Control_c, 0, 67, 63
1, 30177, Note_off_c, 0, 63, 67
1, 30198, Control_c, 0, 67, 63
1, 30210, Note_off_c, 0, 75, 54
1, 30213, Control_c, 0, 67, 64
1, 30228, Control_c, 0, 67, 65
1, 30250, Control_c, 0, 67, 65
1, 30265, Control_c, 0, 67, 66
1, 30280, Control_c, 0, 67, 68
1, 30291, Note_off_c, 0, 87, 35
1, 30295, Note_on_c, 0, 85, 72
1, 30295, Control_c, 0, 67, 71
1, 30310, Control_c, 0, 67, 76
1, 30324, Control_c, 0, 64, 67
1, 30324, Control_c, 0, 67, 81
1, 30339, Control_c, 0, 64, 66
1, 30339, Control_c, 0, 67, 85
1, 30347, Note_off_c, 0, 85, 56
1, 30354, Control_c, 0, 64, 64
1, 30354, Control_c, 0, 67, 89
1, 30370, Control_c, 0, 64, 62
1, 30370, Control_c, 0, 67, 96
1, 30385, Control_c, 0, 64, 51
1, 30385, Control_c, 0, 67, 106
1, 30399, Control_c, 0, 64, 0
1, 30399, Control_c, 0, 67, 115
1, 30414, Control_c, 0, 67, 122
1, 30429, Control_c, 0, 67, 126
1, 30438, Note_on_c, 0, 83, 71
1, 30444, Note_on_c, 0, 80, 60
1, 30444, Control_c, 0, 67, 127
1, 30445, Note_on_c, 0, 59, 53
1, 30445, Note_on_c, 0, 68, 42
1, 30466, Note_off_c, 0, 80, 66
1, 30467, Note_off_c, 0, 59, 60
1, 30470, Note_off_c, 0, 83, 61
1, 30472, Note_off_c, 0, 68, 55
1, 30582, Note_on_c, 0, 82, 60
1, 30588, Note_on_c, 0, 79, 62
1, 30602, Note_off_c, 0, 82, 63
1, 30605, Note_off_c, 0, 79, 65
1, 30725, Note_on_c, 0, 80, 65
1, 30729, Note_on_c, 0, 41, 60
1, 30736, Note_on_c, 0, 78, 60
1, 30740, Control_c, 0, 64, 57
1, 30755, Control_c, 0, 64, 65
1, 30756, Note_off_c, 0, 41, 64
1, 30770, Control_c, 0, 64, 69
1, 30785, Control_c, 0, 64, 71
1, 30799, Control_c, 0, 64, 72
1, 30799, Control_c, 0, 67, 126
1, 30806, Note_off_c, 0, 78, 54
1, 30814, Control_c, 0, 64, 73
1, 30814, Control_c, 0, 67, 125
1, 30829, Control_c, 0, 64, 74
1, 30829, Control_c, 0, 67, 124
1, 30844, Control_c, 0, 64, 76
1, 30844, Control_c, 0, 67, 123
1, 30859, Control_c, 0, 64, 76
1, 30859, Control_c, 0, 67, 121
1, 30865, Note_on_c, 0, 77, 67
1, 30873, Control_c, 0, 64, 78
1, 30873, Control_c, 0, 67, 118
1, 30888, Control_c, 0, 64, 78
1, 30888, Control_c, 0, 67, 115
1, 30903, Control_c, 0, 67, 112
1, 30918, Control_c, 0, 64, 78
1, 30918, Control_c, 0, 67, 108
1, 30925, Note_off_c, 0, 80, 59
1, 30927, Note_off_c, 0, 77, 60
1, 30933, Control_c, 0, 64, 75
1, 30933, Control_c, 0, 67, 104
1, 30947, Control_c, 0, 64, 70
1, 30947, Control_c, 0, 67, 99
1, 30962, Control_c, 0, 64, 64
1, 30962, Control_c, 0, 67, 91
1, 30977, Control_c, 0, 64, 62
1, 30977, Control_c, 0, 67, 82
1, 30999, Control_c, 0, 64, 65
1, 30999, Control_c, 0, 67, 73
1, 31008, Note_on_c, 0, 76, 69
1, 31011, Note_on_c, 0, 83, 67
1, 31013, Note_on_c, 0, 63, 55
1, 31014, Control_c, 0, 64, 68
1, 31014, Control_c, 0, 67, 66
1, 31024, Note_on_c, 0, 56, 51
1, 31024, Note_on_c, 0, 59, 41
1, 31029, Control_c, 0, 64, 72
1, 31029, Control_c, 0, 67, 58
1, 31035, Note_off_c, 0, 76, 65
1, 31037, Note_off_c, 0, 63, 61
1, 31044, Control_c, 0, 64, 76
1, 31044, Control_c, 0, 67, 54
1, 31050, Note_off_c, 0, 56, 62
1, 31055, Note_off_c, 0, 59, 52
1, 31059, Control_c, 0, 64, 79
1, 31059, Control_c, 0, 67, 49
1, 31073, Control_c, 0, 64, 80
1, 31073, Control_c, 0, 67, 43
1, 31088, Control_c, 0, 64, 81
1, 31088, Control_c, 0, 67, 37
1, 31103, Control_c, 0, 64, 82
1, 31103, Control_c, 0, 67, 30
1, 31117, Control_c, 0, 67, 20
1, 31130, Note_off_c, 0, 83, 61
1, 31132, Control_c, 0, 64, 82
1, 31132, Control_c, 0, 67, 12
1, 31143, Note_on_c, 0, 75, 66
1, 31147, Control_c, 0, 67, 0
1, 31162, Control_c, 0, 64, 83
1, 31178, Control_c, 0, 64, 85
1, 31193, Control_c, 0, 64, 87
1, 31208, Control_c, 0, 64, 89
1, 31232, Note_off_c, 0, 75, 45
1, 31237, Control_c, 0, 64, 87
1, 31252, Control_c, 0, 64, 81
1, 31267, Control_c, 0, 64, 73
1, 31282, Control_c, 0, 64, 61
1, 31296, Control_c, 0, 64, 0
1, 31311, Note_on_c, 0, 82, 67
1, 31324, Note_on_c, 0, 74, 58
1, 31324, Note_on_c, 0, 34, 61
1, 31326, Control_c, 0, 64, 46
1, 31327, Note_on_c, 0, 70, 56
1, 31341, Control_c, 0, 64, 64
1, 31356, Control_c, 0, 64, 71
1, 31363, Note_off_c, 0, 34, 63
1, 31370, Control_c, 0, 64, 79
1, 31381, Note_off_c, 0, 70, 56
1, 31385, Control_c, 0, 64, 87
1, 31400, Control_c, 0, 64, 97
1, 31408, Note_off_c, 0, 74, 58
1, 31413, Note_off_c, 0, 82, 56
1, 31415, Control_c, 0, 64, 105
1, 31429, Control_c, 0, 64, 112
1, 31444, Control_c, 0, 64, 117
1, 31459, Control_c, 0, 64, 121
1, 31474, Control_c, 0, 64, 127
1, 31620, Note_on_c, 0, 82, 66
1, 31629, Note_on_c, 0, 74, 57
1, 31644, Note_on_c, 0, 62, 71
1, 31651, Note_on_c, 0, 53, 54
1, 31651, Note_on_c, 0, 70, 49
1, 31661, Note_on_c, 0, 56, 55
1, 31661, Note_on_c, 0, 58, 57
1, 31685, Note_off_c, 0, 74, 60
1, 31709, Note_off_c, 0, 53, 61
1, 31711, Note_off_c, 0, 70, 50
1, 31712, Note_off_c, 0, 56, 59
1, 31718, Note_off_c, 0, 82, 48
1, 31729, Note_off_c, 0, 58, 61
1, 31751, Note_off_c, 0, 62, 60
1, 31925, Control_c, 0, 64, 97
1, 31939, Control_c, 0, 64, 80
1, 31953, Note_on_c, 0, 82, 73
1, 31954, Control_c, 0, 64, 71
1, 31959, Note_on_c, 0, 54, 62
1, 31959, Note_on_c, 0, 60, 53
1, 31962, Note_on_c, 0, 63, 79
1, 31971, Control_c, 0, 64, 69
1, 31971, Note_on_c, 0, 70, 59
1, 31972, Note_on_c, 0, 75, 44
1, 31977, Note_on_c, 0, 58, 57
1, 31986, Control_c, 0, 64, 72
1, 31999, Note_off_c, 0, 60, 66
1, 32000, Control_c, 0, 64, 76
1, 32009, Note_off_c, 0, 58, 64
1, 32010, Note_off_c, 0, 75, 54
1, 32015, Control_c, 0, 64, 82
1, 32024, Note_off_c, 0, 70, 55
1, 32030, Control_c, 0, 64, 89
1, 32033, Note_off_c, 0, 54, 63
1, 32044, Control_c, 0, 64, 96
1, 32059, Control_c, 0, 64, 103
1, 32074, Control_c, 0, 64, 109
1, 32081, Note_off_c, 0, 63, 61
1, 32089, Control_c, 0, 64, 113
1, 32104, Note_off_c, 0, 82, 38
1, 32104, Control_c, 0, 64, 120
1, 32118, Control_c, 0, 64, 127
1, 32237, Control_c, 0, 64, 103
1, 32251, Control_c, 0, 64, 77
1, 32256, Note_on_c, 0, 82, 83
1, 32261, Note_on_c, 0, 65, 76
1, 32266, Control_c, 0, 64, 63
1, 32267, Note_on_c, 0, 56, 52
1, 32269, Note_on_c, 0, 62, 60
1, 32272, Note_on_c, 0, 70, 63
1, 32276, Note_on_c, 0, 60, 58
1, 32280, Note_on_c, 0, 77, 55
1, 32281, Control_c, 0, 64, 56
1, 32296, Control_c, 0, 64, 63
1, 32302, Note_off_c, 0, 56, 66
1, 32311, Note_off_c, 0, 70, 62
1, 32311, Control_c, 0, 64, 69
1, 32320, Note_off_c, 0, 60, 60
1, 32322, Note_off_c, 0, 77, 48
1, 32326, Control_c, 0, 64, 75
1, 32328, Note_off_c, 0, 62, 59
1, 32341, Control_c, 0, 64, 82
1, 32356, Note_off_c, 0, 65, 60
1, 32356, Control_c, 0, 64, 86
1, 32370, Control_c, 0, 64, 90
1, 32385, Control_c, 0, 64, 93
1, 32400, Control_c, 0, 64, 94
1, 32403, Note_on_c, 0, 58, 62
1, 32424, Note_on_c, 0, 70, 67
1, 32439, Note_off_c, 0, 82, 62
1, 32445, Note_on_c, 0, 60, 53
1, 32505, Note_on_c, 0, 63, 62
1, 32600, Control_c, 0, 64, 93
1, 32615, Control_c, 0, 64, 90
1, 32630, Control_c, 0, 64, 84
1, 32632, Note_on_c, 0, 82, 80
1, 32644, Control_c, 0, 64, 78
1, 32659, Control_c, 0, 64, 69
1, 32674, Control_c, 0, 64, 56
1, 32678, Note_on_c, 0, 66, 75
1, 32689, Control_c, 0, 64, 0
1, 32725, Note_off_c, 0, 70, 52
1, 32748, Control_c, 0, 64, 49
1, 32764, Control_c, 0, 64, 64
1, 32779, Control_c, 0, 64, 70
1, 32793, Control_c, 0, 64, 76
1, 32808, Control_c, 0, 64, 81
1, 32823, Control_c, 0, 64, 86
1, 32838, Control_c, 0, 64, 88
1, 32853, Control_c, 0, 64, 91
1, 32867, Control_c, 0, 64, 93
1, 32882, Control_c, 0, 64, 96
1, 32891, Note_on_c, 0, 80, 76
1, 32897, Control_c, 0, 64, 98
1, 32912, Control_c, 0, 64, 100
1, 32927, Control_c, 0, 64, 101
1, 32941, Control_c, 0, 64, 101
1, 32956, Control_c, 0, 64, 102
1, 32958, Note_off_c, 0, 82, 47
1, 33030, Control_c, 0, 64, 102
1, 33050, Note_on_c, 0, 78, 76
1, 33059, Note_on_c, 0, 75, 68
1, 33104, Control_c, 0, 67, 9
1, 33113, Note_off_c, 0, 80, 35
1, 33119, Control_c, 0, 64, 102
1, 33119, Control_c, 0, 67, 10
1, 33134, Control_c, 0, 67, 12
1, 33143, Note_off_c, 0, 78, 59
1, 33146, Note_off_c, 0, 60, 44
1, 33147, Note_off_c, 0, 63, 49
1, 33149, Control_c, 0, 67, 14
1, 33152, Note_off_c, 0, 75, 58
1, 33164, Control_c, 0, 67, 18
1, 33177, Note_off_c, 0, 58, 37
1, 33179, Control_c, 0, 67, 21
1, 33193, Control_c, 0, 67, 25
1, 33202, Note_on_c, 0, 77, 79
1, 33208, Control_c, 0, 67, 29
1, 33212, Note_on_c, 0, 74, 74
1, 33223, Control_c, 0, 67, 32
1, 33245, Control_c, 0, 67, 36
1, 33260, Control_c, 0, 67, 39
1, 33274, Control_c, 0, 67, 43
1, 33282, Note_off_c, 0, 74, 59
1, 33289, Control_c, 0, 64, 100
1, 33289, Control_c, 0, 67, 47
1, 33304, Control_c, 0, 64, 91
1, 33304, Control_c, 0, 67, 50
1, 33319, Control_c, 0, 64, 79
1, 33319, Control_c, 0, 67, 54
1, 33334, Control_c, 0, 64, 67
1, 33334, Control_c, 0, 67, 56
1, 33348, Control_c, 0, 64, 51
1, 33348, Control_c, 0, 67, 58
1, 33363, Control_c, 0, 64, 48
1, 33363, Control_c, 0, 67, 61
1, 33367, Note_on_c, 0, 75, 76
1, 33376, Note_on_c, 0, 63, 58
1, 33378, Control_c, 0, 64, 60
1, 33378, Control_c, 0, 67, 62
1, 33381, Note_on_c, 0, 57, 50
1, 33384, Note_on_c, 0, 73, 66
1, 33384, Note_on_c, 0, 59, 51
1, 33393, Control_c, 0, 64, 65
1, 33393, Control_c, 0, 67, 64
1, 33408, Control_c, 0, 64, 68
1, 33408, Control_c, 0, 67, 66
1, 33423, Control_c, 0, 64, 71
1, 33423, Control_c, 0, 67, 68
1, 33438, Control_c, 0, 64, 74
1, 33438, Control_c, 0, 67, 69
1, 33443, Note_off_c, 0, 73, 58
1, 33444, Note_off_c, 0, 57, 52
1, 33453, Control_c, 0, 64, 77
1, 33453, Control_c, 0, 67, 71
1, 33467, Control_c, 0, 64, 79
1, 33467, Control_c, 0, 67, 72
1, 33477, Note_off_c, 0, 59, 58
1, 33478, Note_off_c, 0, 75, 53
1, 33482, Control_c, 0, 64, 79
1, 33482, Control_c, 0, 67, 73
1, 33492, Note_off_c, 0, 63, 58
1, 33497, Control_c, 0, 67, 74
1, 33512, Control_c, 0, 64, 80
1, 33512, Control_c, 0, 67, 75
1, 33522, Note_on_c, 0, 72, 77
1, 33526, Control_c, 0, 64, 81
1, 33526, Control_c, 0, 67, 76
1, 33541, Control_c, 0, 64, 83
1, 33541, Control_c, 0, 67, 76
1, 33556, Control_c, 0, 64, 88
1, 33556, Control_c, 0, 67, 77
1, 33572, Control_c, 0, 64, 93
1, 33581, Note_off_c, 0, 77, 39
1, 33587, Control_c, 0, 64, 98
1, 33587, Control_c, 0, 67, 77
1, 33602, Control_c, 0, 64, 99
1, 33616, Control_c, 0, 64, 96
1, 33616, Control_c, 0, 67, 78
1, 33631, Control_c, 0, 64, 87
1, 33631, Control_c, 0, 67, 79
1, 33646, Control_c, 0, 64, 74
1, 33646, Control_c, 0, 67, 81
1, 33661, Control_c, 0, 64, 61
1, 33661, Control_c, 0, 67, 83
1, 33676, Control_c, 0, 64, 32
1, 33676, Control_c, 0, 67, 85
1, 33686, Note_on_c, 0, 75, 77
1, 33688, Note_on_c, 0, 71, 70
1, 33688, Note_on_c, 0, 56, 57
1, 33688, Note_off_c, 0, 72, 57
1, 33690, Control_c, 0, 64, 53
1, 33690, Control_c, 0, 67, 86
1, 33696, Note_on_c, 0, 62, 52
1, 33705, Control_c, 0, 64, 64
1, 33705, Control_c, 0, 67, 87
1, 33706, Note_on_c, 0, 58, 48
1, 33720, Control_c, 0, 64, 69
1, 33720, Control_c, 0, 67, 87
1, 33735, Control_c, 0, 64, 74
1, 33735, Control_c, 0, 67, 88
1, 33736, Note_off_c, 0, 71, 62
1, 33748, Note_off_c, 0, 66, 52
1, 33750, Control_c, 0, 64, 78
1, 33751, Note_off_c, 0, 56, 55
1, 33764, Note_off_c, 0, 58, 49
1, 33764, Control_c, 0, 64, 83
1, 33779, Control_c, 0, 64, 85
1, 33794, Control_c, 0, 64, 87
1, 33808, Control_c, 0, 64, 88
1, 33823, Control_c, 0, 67, 87
1, 33838, Control_c, 0, 64, 88
1, 33838, Control_c, 0, 67, 86
1, 33852, Note_on_c, 0, 78, 77
1, 33853, Control_c, 0, 67, 85
1, 33858, Note_off_c, 0, 62, 38
1, 33867, Note_on_c, 0, 70, 68
1, 33868, Control_c, 0, 64, 89
1, 33868, Control_c, 0, 67, 84
1, 33876, Note_off_c, 0, 75, 61
1, 33882, Control_c, 0, 64, 89
1, 33882, Control_c, 0, 67, 84
1, 33897, Control_c, 0, 67, 83
1, 33912, Control_c, 0, 67, 82
1, 33915, Note_on_c, 0, 54, 51
1, 33927, Control_c, 0, 67, 81
1, 33957, Control_c, 0, 67, 81
1, 33971, Control_c, 0, 67, 80
1, 33976, Note_off_c, 0, 78, 62
1, 34010, Note_on_c, 0, 58, 51
1, 34038, Control_c, 0, 67, 81
1, 34068, Control_c, 0, 64, 88
1, 34083, Control_c, 0, 64, 87
1, 34097, Control_c, 0, 64, 83
1, 34112, Control_c, 0, 64, 78
1, 34124, Note_on_c, 0, 82, 78
1, 34127, Control_c, 0, 64, 69
1, 34138, Note_on_c, 0, 75, 59
1, 34141, Control_c, 0, 64, 44
1, 34156, Control_c, 0, 64, 0
1, 34156, Control_c, 0, 67, 81
1, 34201, Control_c, 0, 67, 82
1, 34203, Note_on_c, 0, 63, 74
1, 34216, Control_c, 0, 64, 47
1, 34228, Note_off_c, 0, 75, 36
1, 34231, Control_c, 0, 64, 66
1, 34231, Control_c, 0, 67, 82
1, 34246, Control_c, 0, 64, 76
1, 34246, Control_c, 0, 67, 83
1, 34258, Note_off_c, 0, 63, 63
1, 34259, Note_off_c, 0, 58, 57
1, 34261, Control_c, 0, 64, 86
1, 34261, Control_c, 0, 67, 83
1, 34273, Note_off_c, 0, 82, 57
1, 34276, Control_c, 0, 64, 96
1, 34276, Control_c, 0, 67, 84
1, 34285, Note_off_c, 0, 54, 63
1, 34290, Control_c, 0, 64, 104
1, 34290, Control_c, 0, 67, 84
1, 34305, Control_c, 0, 64, 109
1, 34305, Control_c, 0, 67, 85
1, 34320, Control_c, 0, 64, 111
1, 34335, Control_c, 0, 64, 113
1, 34335, Control_c, 0, 67, 85
1, 34349, Control_c, 0, 64, 117
1, 34365, Control_c, 0, 64, 119
1, 34365, Control_c, 0, 67, 86
1, 34395, Control_c, 0, 64, 119
1, 34410, Control_c, 0, 67, 87
1, 34425, Control_c, 0, 67, 87
1, 34439, Control_c, 0, 67, 88
1, 34454, Control_c, 0, 67, 88
1, 34469, Control_c, 0, 67, 89
1, 34484, Control_c, 0, 67, 89
1, 34499, Control_c, 0, 67, 92
1, 34513, Control_c, 0, 67, 95
1, 34528, Control_c, 0, 67, 98
1, 34543, Control_c, 0, 67, 101
1, 34557, Control_c, 0, 67, 103
1, 34572, Control_c, 0, 67, 107
1, 34577, Note_on_c, 0, 39, 40
1, 34587, Control_c, 0, 67, 111
1, 34602, Control_c, 0, 67, 116
1, 34617, Control_c, 0, 67, 119
1, 34631, Control_c, 0, 67, 122
1, 34645, Note_on_c, 0, 46, 37
1, 34646, Control_c, 0, 67, 125
1, 34652, Note_off_c, 0, 39, 51
1, 34661, Control_c, 0, 67, 127
1, 34696, Note_on_c, 0, 82, 74
1, 34702, Note_off_c, 0, 46, 44
1, 34720, Note_on_c, 0, 54, 52
1, 34761, Note_off_c, 0, 54, 64
1, 34789, Note_off_c, 0, 70, 59
1, 34846, Control_c, 0, 64, 119
1, 34869, Note_off_c, 0, 82, 60
1, 34876, Note_on_c, 0, 83, 71
1, 34876, Control_c, 0, 64, 118
1, 34888, Note_on_c, 0, 71, 70
1, 34891, Control_c, 0, 64, 117
1, 34906, Control_c, 0, 64, 116
1, 34920, Control_c, 0, 64, 115
1, 34935, Control_c, 0, 64, 114
1, 34945, Note_off_c, 0, 71, 61
1, 34950, Control_c, 0, 64, 113
1, 34976, Note_on_c, 0, 58, 41
1, 34979, Control_c, 0, 64, 113
1, 35009, Control_c, 0, 64, 112
1, 35039, Control_c, 0, 64, 111
1, 35054, Control_c, 0, 64, 110
1, 35068, Control_c, 0, 64, 106
1, 35083, Control_c, 0, 64, 99
1, 35098, Control_c, 0, 64, 86
1, 35111, Note_off_c, 0, 83, 57
1, 35113, Note_on_c, 0, 82, 63
1, 35113, Control_c, 0, 64, 72
1, 35122, Note_on_c, 0, 72, 58
1, 35128, Control_c, 0, 64, 49
1, 35143, Control_c, 0, 64, 0
1, 35181, Note_on_c, 0, 66, 48
1, 35187, Note_on_c, 0, 63, 44
1, 35188, Control_c, 0, 64, 56
1, 35203, Control_c, 0, 64, 67
1, 35217, Control_c, 0, 64, 75
1, 35232, Control_c, 0, 64, 83
1, 35237, Note_off_c, 0, 63, 61
1, 35241, Note_off_c, 0, 66, 62
1, 35247, Control_c, 0, 64, 93
1, 35262, Control_c, 0, 64, 101
1, 35265, Note_off_c, 0, 58, 61
1, 35277, Control_c, 0, 64, 106
1, 35292, Control_c, 0, 64, 109
1, 35307, Control_c, 0, 64, 112
1, 35322, Control_c, 0, 64, 118
1, 35337, Control_c, 0, 64, 127
1, 35359, Note_off_c, 0, 82, 36
1, 35423, Note_on_c, 0, 75, 49
1, 35452, Note_off_c, 0, 72, 38
1, 35514, Note_on_c, 0, 42, 44
1, 35560, Note_off_c, 0, 42, 58
1, 35594, Note_off_c, 0, 75, 50
1, 35599, Note_on_c, 0, 51, 30
1, 35619, Note_on_c, 0, 78, 53
1, 35623, Note_on_c, 0, 74, 58
1, 35643, Note_off_c, 0, 51, 52
1, 35653, Note_on_c, 0, 58, 51
1, 35685, Note_off_c, 0, 58, 63
1, 35753, Note_off_c, 0, 78, 45
1, 35763, Note_off_c, 0, 74, 35
1, 35774, Note_on_c, 0, 73, 61
1, 35862, Control_c, 0, 64, 112
1, 35877, Control_c, 0, 64, 100
1, 35892, Control_c, 0, 64, 87
1, 35906, Control_c, 0, 64, 73
1, 35921, Control_c, 0, 64, 56
1, 35932, Note_off_c, 0, 73, 59
1, 35936, Control_c, 0, 64, 0
1, 35947, Note_on_c, 0, 80, 60
1, 35948, Note_on_c, 0, 72, 56
1, 35953, Note_on_c, 0, 65, 56
1, 35967, Note_on_c, 0, 56, 55
1, 35971, Note_on_c, 0, 63, 27
1, 35982, Control_c, 0, 64, 59
1, 35997, Control_c, 0, 64, 68
1, 35998, Note_off_c, 0, 65, 62
1, 36006, Note_off_c, 0, 56, 64
1, 36006, Note_off_c, 0, 63, 53
1, 36011, Control_c, 0, 64, 77
1, 36025, Control_c, 0, 64, 87
1, 36040, Control_c, 0, 64, 101
1, 36052, Note_off_c, 0, 80, 59
1, 36055, Control_c, 0, 64, 127
1, 36282, Note_on_c, 0, 41, 39
1, 36294, Note_on_c, 0, 46, 46
1, 36300, Control_c, 0, 67, 126
1, 36303, Note_on_c, 0, 82, 69
1, 36314, Control_c, 0, 67, 123
1, 36327, Note_off_c, 0, 41, 52
1, 36329, Control_c, 0, 67, 119
1, 36332, Note_on_c, 0, 56, 56
1, 36339, Note_off_c, 0, 46, 58
1, 36344, Control_c, 0, 67, 115
1, 36359, Control_c, 0, 67, 110
1, 36364, Note_off_c, 0, 56, 65
1, 36374, Control_c, 0, 67, 106
1, 36377, Note_off_c, 0, 82, 58
1, 36389, Control_c, 0, 67, 101
1, 36404, Control_c, 0, 67, 96
1, 36418, Control_c, 0, 67, 91
1, 36433, Control_c, 0, 67, 85
1, 36448, Control_c, 0, 67, 79
1, 36463, Control_c, 0, 67, 74
1, 36478, Control_c, 0, 67, 69
1, 36492, Control_c, 0, 67, 64
1, 36507, Control_c, 0, 67, 57
1, 36522, Control_c, 0, 67, 52
1, 36536, Control_c, 0, 67, 47
1, 36551, Control_c, 0, 67, 42
1, 36566, Control_c, 0, 67, 37
1, 36581, Control_c, 0, 67, 32
1, 36596, Control_c, 0, 67, 27
1, 36610, Note_on_c, 0, 53, 49
1, 36610, Control_c, 0, 67, 19
1, 36625, Note_on_c, 0, 82, 75
1, 36625, Control_c, 0, 67, 9
1, 36640, Note_on_c, 0, 56, 54
1, 36640, Control_c, 0, 67, 0
1, 36651, Note_on_c, 0, 58, 50
1, 36776, Note_on_c, 0, 65, 73
1, 36832, Note_off_c, 0, 65, 59
1, 36919, Note_on_c, 0, 64, 78
1, 36957, Note_off_c, 0, 64, 61
1, 36999, Note_off_c, 0, 56, 37
1, 37017, Note_off_c, 0, 58, 38
1, 37041, Note_off_c, 0, 82, 34
1, 37050, Note_on_c, 0, 63, 83
1, 37091, Note_off_c, 0, 72, 26
1, 37108, Control_c, 0, 64, 104
1, 37122, Control_c, 0, 64, 80
1, 37137, Control_c, 0, 64, 65
1, 37152, Control_c, 0, 64, 56
1, 37154, Note_off_c, 0, 63, 60
1, 37167, Control_c, 0, 64, 62
1, 37179, Note_off_c, 0, 53, 63
1, 37182, Control_c, 0, 64, 68
1, 37197, Note_on_c, 0, 72, 70
1, 37197, Note_on_c, 0, 82, 75
1, 37197, Control_c, 0, 64, 80
1, 37202, Note_on_c, 0, 56, 66
1, 37205, Note_on_c, 0, 62, 82
1, 37212, Control_c, 0, 64, 102
1, 37227, Control_c, 0, 64, 127
1, 37230, Note_off_c, 0, 62, 65
1, 37241, Note_off_c, 0, 56, 64
1, 37404, Note_off_c, 0, 82, 36
1, 37407, Note_on_c, 0, 41, 62
1, 37459, Note_on_c, 0, 46, 57
1, 37475, Note_off_c, 0, 41, 62
1, 37491, Note_off_c, 0, 72, 63
1, 37515, Note_on_c, 0, 56, 78
1, 37515, Note_on_c, 0, 82, 81
1, 37529, Note_off_c, 0, 46, 62
1, 37537, Note_off_c, 0, 56, 71
1, 37624, Note_off_c, 0, 82, 62
1, 37642, Note_on_c, 0, 83, 77
1, 37650, Note_on_c, 0, 73, 84
1, 37738, Control_c, 0, 64, 113
1, 37743, Note_off_c, 0, 73, 60
1, 37753, Control_c, 0, 64, 82
1, 37768, Control_c, 0, 64, 63
1, 37782, Control_c, 0, 64, 52
1, 37796, Note_on_c, 0, 82, 80
1, 37797, Control_c, 0, 64, 61
1, 37805, Note_on_c, 0, 74, 82
1, 37811, Note_on_c, 0, 65, 79
1, 37812, Control_c, 0, 64, 67
1, 37823, Note_on_c, 0, 56, 65
1, 37824, Note_on_c, 0, 58, 63
1, 37824, Note_off_c, 0, 83, 54
1, 37827, Control_c, 0, 64, 76
1, 37842, Control_c, 0, 64, 88
1, 37856, Note_off_c, 0, 65, 65
1, 37856, Control_c, 0, 64, 127
1, 37885, Note_off_c, 0, 56, 64
1, 37897, Note_off_c, 0, 58, 61
1, 37900, Note_off_c, 0, 74, 60
1, 37965, Note_on_c, 0, 77, 88
1, 38026, Note_off_c, 0, 82, 30
1, 38041, Note_off_c, 0, 77, 60
1, 38074, Note_on_c, 0, 46, 71
1, 38119, Note_off_c, 0, 46, 60
1, 38124, Note_on_c, 0, 76, 89
1, 38183, Note_off_c, 0, 76, 64
1, 38250, Note_on_c, 0, 75, 83
1, 38251, Note_on_c, 0, 77, 80
1, 38288, Note_on_c, 0, 54, 65
1, 38297, Note_off_c, 0, 77, 62
1, 38371, Note_on_c, 0, 58, 68
1, 38377, Control_c, 0, 64, 98
1, 38392, Control_c, 0, 64, 73
1, 38404, Note_on_c, 0, 78, 87
1, 38406, Control_c, 0, 64, 36
1, 38407, Note_on_c, 0, 74, 81
1, 38419, Note_on_c, 0, 65, 78
1, 38421, Control_c, 0, 64, 0
1, 38425, Note_off_c, 0, 75, 31
1, 38436, Control_c, 0, 64, 40
1, 38451, Control_c, 0, 64, 65
1, 38466, Control_c, 0, 64, 75
1, 38475, Note_off_c, 0, 65, 65
1, 38488, Control_c, 0, 64, 89
1, 38502, Control_c, 0, 64, 127
1, 38516, Note_off_c, 0, 54, 60
1, 38523, Note_off_c, 0, 58, 62
1, 38699, Note_off_c, 0, 78, 61
1, 38733, Note_on_c, 0, 82, 84
1, 38735, Note_on_c, 0, 39, 61
1, 38747, Note_on_c, 0, 46, 64
1, 38753, Note_on_c, 0, 54, 64
1, 38766, Note_off_c, 0, 39, 62
1, 38786, Note_off_c, 0, 46, 60
1, 38800, Note_off_c, 0, 54, 64
1, 38810, Note_off_c, 0, 82, 59
1, 39021, Control_c, 0, 64, 92
1, 39021, Note_on_c, 0, 54, 71
1, 39030, Note_on_c, 0, 82, 85
1, 39036, Control_c, 0, 64, 80
1, 39040, Note_on_c, 0, 58, 69
1, 39051, Control_c, 0, 64, 78
1, 39065, Control_c, 0, 64, 82
1, 39080, Control_c, 0, 64, 90
1, 39095, Control_c, 0, 64, 106
1, 39110, Control_c, 0, 64, 127
1, 39156, Note_on_c, 0, 66, 84
1, 39164, Note_on_c, 0, 84, 82
1, 39193, Note_off_c, 0, 82, 63
1, 39236, Note_off_c, 0, 66, 58
1, 39257, Note_off_c, 0, 84, 62
1, 39304, Note_on_c, 0, 65, 88
1, 39315, Note_on_c, 0, 85, 87
1, 39349, Note_off_c, 0, 65, 65
1, 39358, Note_off_c, 0, 74, 64
1, 39378, Note_off_c, 0, 58, 59
1, 39426, Note_on_c, 0, 86, 80
1, 39427, Note_off_c, 0, 85, 51
1, 39441, Note_on_c, 0, 64, 83
1, 39471, Note_on_c, 0, 84, 49
1, 39471, Note_off_c, 0, 86, 40
1, 39478, Note_off_c, 0, 64, 61
1, 39484, Note_off_c, 0, 54, 65
1, 39494, Note_off_c, 0, 84, 59
1, 39506, Note_on_c, 0, 70, 86
1, 39558, Note_on_c, 0, 78, 75
1, 39568, Note_off_c, 0, 70, 61
1, 39577, Control_c, 0, 64, 91
1, 39592, Control_c, 0, 64, 72
1, 39596, Note_on_c, 0, 82, 79
1, 39607, Control_c, 0, 64, 34
1, 39622, Control_c, 0, 64, 0
1, 39642, Note_on_c, 0, 54, 66
1, 39647, Note_on_c, 0, 63, 86
1, 39647, Note_on_c, 0, 87, 95
1, 39657, Note_off_c, 0, 82, 64
1, 39666, Control_c, 0, 64, 62
1, 39668, Note_off_c, 0, 78, 62
1, 39680, Control_c, 0, 64, 71
1, 39692, Note_off_c, 0, 63, 61
1, 39695, Control_c, 0, 64, 83
1, 39707, Note_off_c, 0, 54, 64
1, 39710, Control_c, 0, 64, 100
1, 39725, Control_c, 0, 64, 127
1, 39748, Note_off_c, 0, 87, 63
1, 39807, Note_on_c, 0, 46, 68
1, 39969, Note_on_c, 0, 87, 91
1, 39972, Note_on_c, 0, 54, 78
1, 39996, Note_off_c, 0, 46, 29
1, 40023, Note_off_c, 0, 54, 61
1, 40112, Note_on_c, 0, 63, 67
1, 40112, Note_off_c, 0, 87, 39
1, 40166, Note_on_c, 0, 73, 65
1, 40198, Note_on_c, 0, 55, 68
1, 40218, Note_on_c, 0, 79, 60
1, 40222, Control_c, 0, 64, 101
1, 40237, Control_c, 0, 64, 74
1, 40252, Control_c, 0, 64, 14
1, 40260, Note_on_c, 0, 83, 67
1, 40267, Control_c, 0, 64, 0
1, 40309, Note_off_c, 0, 55, 62
1, 40310, Note_on_c, 0, 87, 86
1, 40311, Control_c, 0, 64, 19
1, 40312, Note_on_c, 0, 61, 77
1, 40326, Control_c, 0, 64, 67
1, 40340, Note_off_c, 0, 61, 66
1, 40341, Control_c, 0, 64, 79
1, 40356, Control_c, 0, 64, 97
1, 40358, Note_off_c, 0, 63, 24
1, 40371, Control_c, 0, 64, 127
1, 40440, Note_off_c, 0, 73, 52
1, 40491, Note_on_c, 0, 45, 58
1, 40497, Note_off_c, 0, 87, 40
1, 40600, Note_off_c, 0, 79, 34
1, 40627, Note_off_c, 0, 45, 37
1, 40686, Note_off_c, 0, 83, 28
1, 40702, Note_on_c, 0, 87, 78
1, 40717, Note_on_c, 0, 55, 52
1, 40764, Note_off_c, 0, 87, 63
1, 40785, Note_off_c, 0, 55, 59
1, 40918, Note_on_c, 0, 63, 45
1, 41009, Note_on_c, 0, 71, 42
1, 41065, Note_on_c, 0, 53, 47
1, 41069, Note_off_c, 0, 71, 43
1, 41074, Control_c, 0, 64, 105
1, 41084, Note_on_c, 0, 75, 56
1, 41089, Control_c, 0, 64, 77
1, 41104, Control_c, 0, 64, 59
1, 41119, Control_c, 0, 64, 0
1, 41125, Note_off_c, 0, 75, 62
1, 41133, Control_c, 0, 64, 26
1, 41148, Control_c, 0, 64, 58
1, 41159, Note_on_c, 0, 82, 60
1, 41163, Control_c, 0, 64, 67
1, 41178, Control_c, 0, 64, 77
1, 41193, Control_c, 0, 64, 90
1, 41194, Note_on_c, 0, 59, 53
1, 41207, Control_c, 0, 64, 117
1, 41222, Control_c, 0, 64, 127
1, 41237, Note_off_c, 0, 63, 54
1, 41247, Note_off_c, 0, 53, 63
1, 41263, Note_off_c, 0, 59, 61
1, 41296, Note_on_c, 0, 87, 68
1, 41310, Note_off_c, 0, 82, 54
1, 41499, Note_on_c, 0, 44, 53
1, 41515, Note_off_c, 0, 87, 58
1, 41517, Note_on_c, 0, 85, 66
1, 41573, Note_off_c, 0, 85, 59
1, 41685, Note_on_c, 0, 83, 65
1, 41689, Note_on_c, 0, 53, 56
1, 41704, Note_on_c, 0, 75, 49
1, 41713, Note_off_c, 0, 44, 59
1, 41730, Note_off_c, 0, 75, 60
1, 41744, Note_off_c, 0, 53, 63
1, 41752, Note_off_c, 0, 83, 63
1, 41838, Note_on_c, 0, 82, 74
1, 41845, Note_on_c, 0, 73, 71
1, 41850, Note_on_c, 0, 59, 52
1, 41880, Note_off_c, 0, 59, 64
1, 41883, Note_off_c, 0, 82, 53
1, 41889, Note_off_c, 0, 73, 54
1, 41956, Control_c, 0, 64, 107
1, 41971, Control_c, 0, 64, 81
1, 41986, Control_c, 0, 64, 64
1, 41996, Note_on_c, 0, 80, 69
1, 41998, Note_on_c, 0, 53, 50
1, 42001, Control_c, 0, 64, 0
1, 42004, Note_on_c, 0, 59, 51
1, 42017, Note_on_c, 0, 71, 69
1, 42017, Control_c, 0, 64, 26
1, 42031, Control_c, 0, 64, 57
1, 42046, Control_c, 0, 64, 67
1, 42061, Control_c, 0, 64, 75
1, 42068, Note_off_c, 0, 80, 61
1, 42075, Control_c, 0, 64, 85
1, 42082, Note_off_c, 0, 53, 62
1, 42090, Control_c, 0, 64, 99
1, 42105, Control_c, 0, 64, 117
1, 42120, Control_c, 0, 64, 127
1, 42156, Note_on_c, 0, 70, 69
1, 42159, Note_on_c, 0, 63, 67
1, 42184, Note_off_c, 0, 70, 67
1, 42296, Note_off_c, 0, 71, 61
1, 42309, Note_on_c, 0, 83, 83
1, 42321, Note_on_c, 0, 68, 70
1, 42355, Note_off_c, 0, 59, 51
1, 42360, Note_off_c, 0, 83, 65
1, 42366, Note_off_c, 0, 63, 58
1, 42368, Note_off_c, 0, 68, 54
1, 42461, Note_on_c, 0, 67, 68
1, 42487, Note_off_c, 0, 67, 67
1, 42512, Note_on_c, 0, 66, 64
1, 42549, Note_off_c, 0, 66, 56
1, 42558, Control_c, 0, 64, 102
1, 42572, Control_c, 0, 64, 80
1, 42574, Note_on_c, 0, 70, 58
1, 42587, Control_c, 0, 64, 65
1, 42589, Note_on_c, 0, 75, 56
1, 42595, Note_off_c, 0, 70, 63
1, 42602, Control_c, 0, 64, 39
1, 42615, Note_off_c, 0, 75, 65
1, 42625, Note_on_c, 0, 46, 64
1, 42632, Control_c, 0, 64, 59
1, 42646, Control_c, 0, 64, 66
1, 42659, Note_on_c, 0, 70, 65
1, 42661, Control_c, 0, 64, 74
1, 42662, Note_on_c, 0, 82, 80
1, 42676, Control_c, 0, 64, 85
1, 42691, Control_c, 0, 64, 99
1, 42691, Control_c, 0, 67, 12
1, 42695, Note_on_c, 0, 61, 73
1, 42696, Note_off_c, 0, 46, 61
1, 42706, Control_c, 0, 64, 117
1, 42706, Control_c, 0, 67, 20
1, 42720, Control_c, 0, 64, 127
1, 42720, Control_c, 0, 67, 29
1, 42726, Note_off_c, 0, 70, 60
1, 42728, Note_off_c, 0, 82, 53
1, 42735, Control_c, 0, 67, 37
1, 42744, Note_off_c, 0, 61, 63
1, 42750, Control_c, 0, 67, 44
1, 42765, Control_c, 0, 67, 51
1, 42780, Control_c, 0, 67, 61
1, 42795, Control_c, 0, 67, 70
1, 42810, Control_c, 0, 67, 77
1, 42825, Control_c, 0, 67, 84
1, 42840, Control_c, 0, 67, 89
1, 42843, Note_on_c, 0, 81, 77
1, 42848, Note_on_c, 0, 69, 71
1, 42854, Control_c, 0, 67, 95
1, 42869, Control_c, 0, 67, 102
1, 42884, Control_c, 0, 67, 110
1, 42893, Note_off_c, 0, 69, 60
1, 42898, Control_c, 0, 67, 116
1, 42908, Note_off_c, 0, 81, 62
1, 42913, Control_c, 0, 67, 120
1, 42928, Control_c, 0, 64, 105
1, 42928, Control_c, 0, 67, 124
1, 42943, Control_c, 0, 64, 81
1, 42943, Control_c, 0, 67, 127
1, 42958, Control_c, 0, 64, 63
1, 42980, Control_c, 0, 64, 0
1, 42995, Control_c, 0, 64, 45
1, 43010, Control_c, 0, 64, 64
1, 43011, Note_on_c, 0, 82, 80
1, 43013, Note_on_c, 0, 60, 62
1, 43016, Note_on_c, 0, 66, 65
1, 43016, Note_on_c, 0, 75, 55
1, 43020, Note_on_c, 0, 70, 73
1, 43021, Note_on_c, 0, 63, 57
1, 43024, Control_c, 0, 64, 73
1, 43027, Note_on_c, 0, 78, 42
1, 43039, Control_c, 0, 64, 85
1, 43051, Note_off_c, 0, 66, 61
1, 43054, Note_off_c, 0, 63, 64
1, 43054, Control_c, 0, 64, 104
1, 43061, Note_off_c, 0, 60, 61
1, 43069, Control_c, 0, 64, 127
1, 43069, Note_off_c, 0, 70, 59
1, 43083, Note_off_c, 0, 82, 62
1, 43176, Note_off_c, 0, 75, 43
1, 43182, Note_on_c, 0, 81, 78
1, 43188, Note_off_c, 0, 78, 38
1, 43195, Note_on_c, 0, 69, 68
1, 43228, Note_off_c, 0, 69, 62
1, 43248, Note_off_c, 0, 81, 61
1, 43291, Note_on_c, 0, 59, 54
1, 43303, Note_on_c, 0, 62, 51
1, 43381, Control_c, 0, 64, 120
1, 43395, Control_c, 0, 64, 104
1, 43410, Control_c, 0, 64, 91
1, 43425, Control_c, 0, 64, 77
1, 43429, Note_on_c, 0, 82, 71
1, 43433, Note_on_c, 0, 68, 62
1, 43434, Note_on_c, 0, 70, 60
1, 43440, Control_c, 0, 64, 61
1, 43442, Note_on_c, 0, 78, 40
1, 43447, Note_on_c, 0, 74, 47
1, 43455, Control_c, 0, 64, 0
1, 43514, Control_c, 0, 64, 54
1, 43528, Note_off_c, 0, 70, 62
1, 43528, Control_c, 0, 64, 68
1, 43531, Note_on_c, 0, 54, 66
1, 43543, Control_c, 0, 64, 79
1, 43546, Note_off_c, 0, 82, 59
1, 43558, Control_c, 0, 64, 92
1, 43560, Note_off_c, 0, 74, 0
1, 43573, Control_c, 0, 64, 103
1, 43588, Control_c, 0, 64, 107
1, 43597, Poly_aftertouch_c, 0, 74, 127
1, 43603, Control_c, 0, 64, 108
1, 43618, Control_c, 0, 64, 109
1, 43633, Control_c, 0, 64, 111
1, 43639, Poly_aftertouch_c, 0, 74, 0
1, 43647, Control_c, 0, 64, 112
1, 43715, Note_off_c, 0, 59, 36
1, 43728, Control_c, 0, 64, 112
1, 43746, Note_off_c, 0, 78, 56
1, 43753, Note_on_c, 0, 83, 64
1, 43765, Note_on_c, 0, 71, 58
1, 43766, Note_off_c, 0, 54, 38
1, 43810, Note_off_c, 0, 83, 62
1, 43844, Note_off_c, 0, 71, 53
1, 43862, Control_c, 0, 64, 113
1, 43877, Control_c, 0, 64, 116
1, 43892, Control_c, 0, 64, 123
1, 43907, Control_c, 0, 64, 127
1, 43917, Note_off_c, 0, 68, 52
1, 43936, Control_c, 0, 64, 110
1, 43952, Control_c, 0, 64, 93
1, 43966, Control_c, 0, 64, 77
1, 43971, Note_on_c, 0, 84, 61
1, 43981, Control_c, 0, 64, 65
1, 43987, Note_on_c, 0, 72, 57
1, 43991, Note_on_c, 0, 53, 51
1, 43994, Note_on_c, 0, 58, 44
1, 43996, Control_c, 0, 64, 60
1, 44009, Note_on_c, 0, 80, 20
1, 44011, Control_c, 0, 64, 64
1, 44026, Control_c, 0, 64, 67
1, 44040, Note_off_c, 0, 72, 58
1, 44041, Control_c, 0, 64, 71
1, 44046, Note_off_c, 0, 84, 62
1, 44047, Note_off_c, 0, 80, 52
1, 44056, Control_c, 0, 64, 75
1, 44071, Control_c, 0, 64, 79
1, 44086, Note_off_c, 0, 58, 51
1, 44086, Control_c, 0, 64, 82
1, 44087, Note_off_c, 0, 62, 60
1, 44100, Control_c, 0, 64, 84
1, 44115, Control_c, 0, 64, 85
1, 44130, Control_c, 0, 64, 86
1, 44144, Control_c, 0, 64, 86
1, 44145, Note_on_c, 0, 86, 64
1, 44158, Note_on_c, 0, 74, 59
1, 44159, Control_c, 0, 64, 87
1, 44174, Control_c, 0, 64, 90
1, 44189, Control_c, 0, 64, 95
1, 44193, Note_off_c, 0, 74, 65
1, 44202, Note_off_c, 0, 86, 55
1, 44204, Control_c, 0, 64, 100
1, 44218, Control_c, 0, 64, 101
1, 44233, Control_c, 0, 64, 98
1, 44248, Control_c, 0, 64, 87
1, 44262, Control_c, 0, 64, 73
1, 44276, Control_c, 0, 64, 62
1, 44291, Control_c, 0, 64, 57
1, 44306, Control_c, 0, 64, 63
1, 44320, Note_on_c, 0, 66, 48
1, 44321, Control_c, 0, 64, 68
1, 44333, Note_on_c, 0, 63, 44
1, 44333, Note_off_c, 0, 53, 59
1, 44335, Note_on_c, 0, 87, 66
1, 44336, Control_c, 0, 64, 72
1, 44337, Note_on_c, 0, 58, 44
1, 44340, Note_on_c, 0, 75, 54
1, 44344, Note_off_c, 0, 66, 62
1, 44346, Note_on_c, 0, 82, 48
1, 44350, Control_c, 0, 64, 76
1, 44352, Note_on_c, 0, 78, 48
1, 44365, Control_c, 0, 64, 81
1, 44366, Note_off_c, 0, 63, 64
1, 44379, Note_off_c, 0, 58, 60
1, 44380, Control_c, 0, 64, 84
1, 44395, Control_c, 0, 64, 86
1, 44410, Control_c, 0, 64, 86
1, 44439, Control_c, 0, 64, 87
1, 44454, Control_c, 0, 64, 87
1, 44476, Control_c, 0, 64, 89
1, 44491, Control_c, 0, 64, 89
1, 44506, Control_c, 0, 64, 89
1, 44517, Note_on_c, 0, 54, 62
1, 44521, Control_c, 0, 64, 84
1, 44536, Control_c, 0, 64, 77
1, 44544, Note_off_c, 0, 54, 65
1, 44550, Control_c, 0, 64, 68
1, 44565, Control_c, 0, 64, 58
1, 44580, Control_c, 0, 64, 33
1, 44595, Control_c, 0, 64, 19
1, 44610, Control_c, 0, 64, 0
1, 44688, Note_on_c, 0, 51, 69
1, 44724, Note_off_c, 0, 51, 64
1, 44870, Note_on_c, 0, 47, 67
1, 44902, Note_off_c, 0, 47, 67
1, 44917, Note_off_c, 0, 78, 61
1, 44919, Note_off_c, 0, 82, 61
1, 44999, Note_off_c, 0, 87, 59
1, 45046, Note_off_c, 0, 75, 46
1, 45062, Note_on_c, 0, 46, 63
1, 45245, Note_off_c, 0, 46, 55
1, 45261, Note_on_c, 0, 44, 50
1, 45267, Note_on_c, 0, 75, 51
1, 45290, Note_off_c, 0, 75, 62
1, 45489, Note_on_c, 0, 82, 56
1, 45502, Note_off_c, 0, 44, 53
1, 45508, Note_on_c, 0, 42, 40
1, 45510, Note_off_c, 0, 82, 62
1, 45750, Note_off_c, 0, 42, 46
1, 45760, Note_on_c, 0, 87, 41
1, 45772, Note_on_c, 0, 41, 41
1, 45800, Note_off_c, 0, 87, 56
1, 46130, Note_off_c, 0, 41, 51
1, 46165, Note_on_c, 0, 91, 48
1, 46177, Note_on_c, 0, 39, 39
1, 46184, Note_on_c, 0, 82, 27
1, 46210, Note_off_c, 0, 91, 48
1, 46211, Control_c, 0, 64, 52
1, 46226, Control_c, 0, 64, 67
1, 46229, Note_off_c, 0, 82, 50
1, 46241, Control_c, 0, 64, 74
1, 46256, Control_c, 0, 64, 80
1, 46271, Control_c, 0, 64, 85
1, 46284, Note_off_c, 0, 39, 53
1, 46286, Control_c, 0, 64, 90
1, 46300, Control_c, 0, 64, 94
1, 46315, Control_c, 0, 64, 98
1, 46330, Control_c, 0, 64, 100
1, 46345, Control_c, 0, 64, 101
1, 46360, Control_c, 0, 64, 101
1, 46436, Note_on_c, 0, 89, 49
1, 46439, Note_on_c, 0, 80, 43
1, 46476, Note_off_c, 0, 80, 49
1, 46554, Note_off_c, 0, 89, 25
1, 46597, Control_c, 0, 64, 100
1, 46611, Control_c, 0, 64, 94
1, 46626, Control_c, 0, 64, 85
1, 46627, Note_on_c, 0, 87, 59
1, 46631, Note_on_c, 0, 58, 51
1, 46635, Note_on_c, 0, 67, 39
1, 46639, Note_on_c, 0, 63, 33
1, 46641, Control_c, 0, 64, 74
1, 46642, Note_on_c, 0, 79, 53
1, 46654, Note_off_c, 0, 87, 62
1, 46656, Control_c, 0, 64, 63
1, 46658, Note_off_c, 0, 58, 58
1, 46664, Note_off_c, 0, 67, 48
1, 46670, Note_off_c, 0, 79, 59
1, 46670, Control_c, 0, 64, 0
1, 46673, Note_off_c, 0, 63, 52
1, 46822, Note_on_c, 0, 86, 55
1, 46840, Note_on_c, 0, 77, 30
1, 46842, Note_off_c, 0, 86, 65
1, 46873, Note_off_c, 0, 77, 51
1, 46986, Note_on_c, 0, 46, 55
1, 46986, Note_on_c, 0, 84, 57
1, 46997, Note_on_c, 0, 75, 49
1, 47016, Note_off_c, 0, 46, 62
1, 47017, Note_off_c, 0, 84, 61
1, 47020, Note_off_c, 0, 75, 60
1, 47139, Note_on_c, 0, 74, 62
1, 47139, Note_on_c, 0, 82, 61
1, 47162, Note_off_c, 0, 82, 64
1, 47169, Note_off_c, 0, 74, 67
1, 47290, Note_on_c, 0, 80, 55
1, 47292, Note_on_c, 0, 72, 59
1, 47303, Note_on_c, 0, 63, 47
1, 47303, Note_on_c, 0, 67, 39
1, 47311, Note_on_c, 0, 58, 35
1, 47312, Note_off_c, 0, 80, 63
1, 47320, Note_off_c, 0, 72, 67
1, 47331, Note_off_c, 0, 63, 56
1, 47334, Note_off_c, 0, 67, 51
1, 47345, Note_off_c, 0, 58, 49
1, 47439, Note_on_c, 0, 79, 57
1, 47450, Note_on_c, 0, 70, 52
1, 47481, Note_off_c, 0, 70, 60
1, 47481, Note_off_c, 0, 79, 61
1, 47598, Note_on_c, 0, 78, 60
1, 47601, Note_on_c, 0, 51, 54
1, 47607, Note_on_c, 0, 69, 58
1, 47642, Note_off_c, 0, 51, 62
1, 47651, Note_off_c, 0, 69, 59
1, 47674, Note_off_c, 0, 78, 45
1, 47744, Note_on_c, 0, 79, 59
1, 47751, Note_on_c, 0, 70, 55
1, 47770, Note_off_c, 0, 70, 64
1, 47777, Note_off_c, 0, 79, 61
1, 47885, Note_on_c, 0, 67, 53
1, 47889, Note_on_c, 0, 72, 64
1, 47895, Note_on_c, 0, 78, 54
1, 47896, Note_on_c, 0, 58, 40
1, 47906, Note_off_c, 0, 67, 60
1, 47914, Note_off_c, 0, 72, 68
1, 47919, Note_off_c, 0, 78, 60
1, 47925, Note_on_c, 0, 62, 3
1, 47927, Note_off_c, 0, 58, 53
1, 47969, Note_off_c, 0, 62, 34
1, 48032, Note_on_c, 0, 79, 63
1, 48042, Note_on_c, 0, 70, 53
1, 48059, Note_off_c, 0, 79, 65
1, 48062, Note_off_c, 0, 70, 61
1, 48167, Note_on_c, 0, 46, 57
1, 48175, Note_on_c, 0, 78, 61
1, 48176, Note_on_c, 0, 69, 58
1, 48195, Note_off_c, 0, 46, 64
1, 48206, Note_off_c, 0, 78, 62
1, 48216, Note_off_c, 0, 69, 63
1, 48318, Note_on_c, 0, 79, 51
1, 48319, Note_on_c, 0, 70, 57
1, 48338, Note_off_c, 0, 70, 65
1, 48342, Note_off_c, 0, 79, 61
1, 48456, Note_on_c, 0, 80, 60
1, 48456, Note_on_c, 0, 67, 46
1, 48461, Note_on_c, 0, 72, 52
1, 48463, Note_on_c, 0, 58, 45
1, 48483, Note_off_c, 0, 80, 67
1, 48483, Note_off_c, 0, 67, 54
1, 48488, Note_off_c, 0, 72, 64
1, 48491, Note_off_c, 0, 58, 56
1, 48538, Poly_aftertouch_c, 0, 62, 0
1, 48590, Note_on_c, 0, 82, 69
1, 48596, Note_on_c, 0, 74, 58
1, 48616, Note_off_c, 0, 74, 64
1, 48619, Note_off_c, 0, 82, 63
1, 48732, Note_on_c, 0, 84, 62
1, 48735, Note_on_c, 0, 51, 56
1, 48738, Note_on_c, 0, 75, 61
1, 48764, Note_off_c, 0, 51, 65
1, 48772, Note_off_c, 0, 75, 59
1, 48772, Note_off_c, 0, 84, 57
1, 48864, Note_on_c, 0, 82, 65
1, 48869, Note_on_c, 0, 74, 61
1, 48889, Note_off_c, 0, 82, 68
1, 48897, Note_off_c, 0, 74, 68
1, 49010, Note_on_c, 0, 67, 50
1, 49013, Note_on_c, 0, 80, 57
1, 49016, Note_on_c, 0, 72, 60
1, 49027, Note_on_c, 0, 58, 41
1, 49033, Note_off_c, 0, 67, 59
1, 49043, Note_off_c, 0, 72, 67
1, 49056, Note_off_c, 0, 58, 54
1, 49058, Note_off_c, 0, 80, 57
1, 49141, Note_on_c, 0, 70, 68
1, 49146, Note_on_c, 0, 79, 63
1, 49168, Note_off_c, 0, 70, 66
1, 49172, Note_off_c, 0, 79, 65
1, 49267, Note_on_c, 0, 48, 61
1, 49269, Note_on_c, 0, 80, 66
1, 49279, Note_on_c, 0, 72, 57
1, 49300, Note_off_c, 0, 48, 63
1, 49308, Note_off_c, 0, 72, 58
1, 49339, Note_off_c, 0, 80, 59
1, 49404, Note_on_c, 0, 70, 69
1, 49406, Note_on_c, 0, 79, 60
1, 49424, Note_off_c, 0, 79, 65
1, 49426, Note_off_c, 0, 70, 70
1, 49538, Note_on_c, 0, 58, 55
1, 49541, Note_on_c, 0, 60, 43
1, 49541, Note_on_c, 0, 77, 63
1, 49544, Note_on_c, 0, 68, 57
1, 49561, Note_off_c, 0, 58, 60
1, 49564, Note_off_c, 0, 68, 61
1, 49567, Note_off_c, 0, 60, 59
1, 49582, Note_off_c, 0, 77, 57
1, 49662, Note_on_c, 0, 75, 58
1, 49666, Note_on_c, 0, 67, 63
1, 49694, Note_off_c, 0, 75, 62
1, 49697, Note_off_c, 0, 67, 63
1, 49806, Note_on_c, 0, 74, 58
1, 49806, Note_on_c, 0, 53, 58
1, 49807, Note_on_c, 0, 65, 64
1, 49836, Note_off_c, 0, 65, 67
1, 49836, Note_off_c, 0, 74, 67
1, 49940, Note_on_c, 0, 75, 59
1, 49943, Note_on_c, 0, 67, 55
1, 49967, Note_off_c, 0, 67, 58
1, 49979, Note_off_c, 0, 75, 55
1, 50074, Control_c, 0, 64, 45
1, 50080, Note_on_c, 0, 77, 59
1, 50083, Note_on_c, 0, 65, 70
1, 50087, Note_on_c, 0, 68, 51
1, 50089, Control_c, 0, 64, 57
1, 50090, Note_on_c, 0, 60, 54
1, 50092, Note_on_c, 0, 56, 55
1, 50104, Control_c, 0, 64, 62
1, 50104, Control_c, 0, 67, 126
1, 50110, Note_off_c, 0, 68, 60
1, 50110, Note_off_c, 0, 77, 64
1, 50119, Control_c, 0, 64, 65
1, 50119, Control_c, 0, 67, 123
1, 50134, Control_c, 0, 64, 67
1, 50134, Control_c, 0, 67, 120
1, 50149, Control_c, 0, 64, 69
1, 50149, Control_c, 0, 67, 119
1, 50163, Control_c, 0, 64, 71
1, 50163, Control_c, 0, 67, 117
1, 50178, Control_c, 0, 64, 72
1, 50178, Control_c, 0, 67, 115
1, 50193, Control_c, 0, 64, 74
1, 50193, Control_c, 0, 67, 112
1, 50208, Note_on_c, 0, 79, 61
1, 50208, Control_c, 0, 64, 77
1, 50208, Control_c, 0, 67, 109
1, 50222, Note_on_c, 0, 70, 59
1, 50222, Control_c, 0, 64, 81
1, 50222, Control_c, 0, 67, 105
1, 50237, Control_c, 0, 64, 85
1, 50237, Control_c, 0, 67, 101
1, 50238, Note_off_c, 0, 65, 60
1, 50239, Note_off_c, 0, 79, 60
1, 50252, Control_c, 0, 64, 88
1, 50252, Control_c, 0, 67, 96
1, 50253, Note_off_c, 0, 70, 66
1, 50267, Control_c, 0, 67, 90
1, 50282, Control_c, 0, 64, 84
1, 50282, Control_c, 0, 67, 85
1, 50296, Control_c, 0, 64, 77
1, 50296, Control_c, 0, 67, 82
1, 50311, Control_c, 0, 64, 67
1, 50311, Control_c, 0, 67, 80
1, 50326, Control_c, 0, 64, 62
1, 50326, Control_c, 0, 67, 78
1, 50342, Control_c, 0, 64, 64
1, 50342, Control_c, 0, 67, 76
1, 50349, Note_on_c, 0, 80, 66
1, 50352, Note_on_c, 0, 72, 63
1, 50355, Note_on_c, 0, 64, 79
1, 50357, Control_c, 0, 64, 67
1, 50357, Control_c, 0, 67, 75
1, 50372, Control_c, 0, 64, 72
1, 50372, Control_c, 0, 67, 74
1, 50382, Note_off_c, 0, 72, 61
1, 50386, Control_c, 0, 64, 76
1, 50386, Control_c, 0, 67, 73
1, 50387, Note_off_c, 0, 80, 59
1, 50401, Control_c, 0, 64, 81
1, 50416, Control_c, 0, 64, 84
1, 50431, Control_c, 0, 64, 88
1, 50446, Control_c, 0, 64, 92
1, 50447, Note_off_c, 0, 64, 59
1, 50468, Control_c, 0, 64, 93
1, 50492, Note_on_c, 0, 82, 74
1, 50498, Control_c, 0, 64, 92
1, 50498, Control_c, 0, 67, 74
1, 50498, Note_on_c, 0, 74, 65
1, 50512, Control_c, 0, 64, 88
1, 50512, Control_c, 0, 67, 75
1, 50527, Control_c, 0, 64, 80
1, 50527, Control_c, 0, 67, 76
1, 50534, Note_off_c, 0, 74, 58
1, 50542, Control_c, 0, 64, 69
1, 50542, Control_c, 0, 67, 77
1, 50557, Control_c, 0, 64, 47
1, 50557, Control_c, 0, 67, 79
1, 50564, Note_off_c, 0, 82, 56
1, 50572, Control_c, 0, 64, 0
1, 50572, Control_c, 0, 67, 81
1, 50586, Control_c, 0, 67, 83
1, 50601, Control_c, 0, 67, 84
1, 50616, Control_c, 0, 64, 49
1, 50616, Control_c, 0, 67, 86
1, 50618, Note_on_c, 0, 63, 65
1, 50619, Note_on_c, 0, 84, 63
1, 50623, Note_on_c, 0, 75, 63
1, 50631, Control_c, 0, 64, 62
1, 50631, Control_c, 0, 67, 88
1, 50638, Note_off_c, 0, 60, 64
1, 50646, Control_c, 0, 64, 65
1, 50646, Control_c, 0, 67, 93
1, 50647, Note_off_c, 0, 63, 66
1, 50647, Note_off_c, 0, 53, 63
1, 50650, Note_off_c, 0, 75, 66
1, 50651, Note_off_c, 0, 84, 64
1, 50654, Note_off_c, 0, 56, 65
1, 50660, Control_c, 0, 64, 67
1, 50660, Control_c, 0, 67, 96
1, 50675, Control_c, 0, 64, 68
1, 50675, Control_c, 0, 67, 98
1, 50690, Control_c, 0, 67, 99
1, 50705, Control_c, 0, 64, 68
1, 50719, Control_c, 0, 64, 68
1, 50758, Note_on_c, 0, 86, 48
1, 50764, Control_c, 0, 64, 69
1, 50764, Control_c, 0, 67, 98
1, 50765, Note_on_c, 0, 77, 49
1, 50779, Control_c, 0, 67, 98
1, 50793, Control_c, 0, 64, 69
1, 50793, Control_c, 0, 67, 97
1, 50806, Note_off_c, 0, 77, 61
1, 50808, Control_c, 0, 64, 70
1, 50823, Control_c, 0, 64, 69
1, 50836, Note_off_c, 0, 86, 52
1, 50837, Control_c, 0, 64, 67
1, 50852, Control_c, 0, 64, 64
1, 50852, Control_c, 0, 67, 98
1, 50867, Control_c, 0, 64, 44
1, 50867, Control_c, 0, 67, 98
1, 50878, Note_on_c, 0, 46, 58
1, 50882, Control_c, 0, 64, 0
1, 50882, Control_c, 0, 67, 99
1, 50883, Note_on_c, 0, 80, 63
1, 50883, Note_on_c, 0, 89, 61
1, 50897, Control_c, 0, 67, 100
1, 50906, Note_off_c, 0, 46, 63
1, 50909, Note_off_c, 0, 80, 66
1, 50912, Control_c, 0, 67, 102
1, 50916, Note_off_c, 0, 89, 61
1, 50927, Control_c, 0, 67, 107
1, 50942, Control_c, 0, 67, 112
1, 50957, Control_c, 0, 67, 115
1, 50972, Control_c, 0, 67, 118
1, 50986, Control_c, 0, 67, 119
1, 51001, Control_c, 0, 67, 120
1, 51010, Note_on_c, 0, 87, 63
1, 51013, Note_on_c, 0, 79, 58
1, 51016, Control_c, 0, 67, 121
1, 51030, Control_c, 0, 67, 122
1, 51037, Note_off_c, 0, 87, 69
1, 51045, Note_off_c, 0, 79, 64
1, 51045, Control_c, 0, 67, 123
1, 51060, Control_c, 0, 67, 124
1, 51075, Control_c, 0, 67, 125
1, 51090, Control_c, 0, 67, 126
1, 51105, Control_c, 0, 67, 127
1, 51142, Note_on_c, 0, 86, 61
1, 51144, Note_on_c, 0, 77, 68
1, 51147, Note_on_c, 0, 65, 49
1, 51154, Note_on_c, 0, 56, 43
1, 51155, Note_on_c, 0, 60, 34
1, 51168, Note_off_c, 0, 86, 68
1, 51171, Note_off_c, 0, 77, 64
1, 51173, Note_off_c, 0, 65, 58
1, 51184, Note_off_c, 0, 56, 53
1, 51188, Note_off_c, 0, 60, 55
1, 51261, Control_c, 0, 67, 127
1, 51274, Note_on_c, 0, 84, 69
1, 51276, Control_c, 0, 67, 126
1, 51284, Note_on_c, 0, 75, 66
1, 51305, Control_c, 0, 67, 126
1, 51310, Note_off_c, 0, 84, 63
1, 51311, Note_off_c, 0, 75, 67
1, 51335, Control_c, 0, 67, 125
1, 51407, Note_on_c, 0, 82, 70
1, 51409, Note_on_c, 0, 53, 65
1, 51410, Note_on_c, 0, 74, 69
1, 51424, Control_c, 0, 67, 125
1, 51435, Note_off_c, 0, 82, 65
1, 51438, Note_off_c, 0, 53, 67
1, 51440, Note_off_c, 0, 74, 66
1, 51483, Control_c, 0, 67, 124
1, 51513, Control_c, 0, 67, 123
1, 51528, Control_c, 0, 67, 123
1, 51535, Note_on_c, 0, 80, 72
1, 51537, Note_on_c, 0, 72, 69
1, 51542, Control_c, 0, 67, 122
1, 51557, Control_c, 0, 67, 121
1, 51560, Note_off_c, 0, 72, 70
1, 51563, Note_off_c, 0, 80, 62
1, 51572, Control_c, 0, 67, 121
1, 51616, Control_c, 0, 67, 120
1, 51663, Note_on_c, 0, 65, 52
1, 51667, Note_on_c, 0, 79, 66
1, 51669, Note_on_c, 0, 56, 53
1, 51675, Control_c, 0, 67, 121
1, 51679, Note_on_c, 0, 70, 67
1, 51687, Note_off_c, 0, 65, 59
1, 51692, Note_off_c, 0, 79, 67
1, 51693, Note_off_c, 0, 56, 60
1, 51705, Note_off_c, 0, 70, 65
1, 51735, Control_c, 0, 67, 120
1, 51752, Poly_aftertouch_c, 0, 60, 0
1, 51790, Note_on_c, 0, 77, 71
1, 51800, Note_on_c, 0, 68, 70
1, 51809, Control_c, 0, 67, 120
1, 51822, Note_off_c, 0, 77, 56
1, 51824, Control_c, 0, 67, 119
1, 51825, Note_off_c, 0, 68, 68
1, 51839, Control_c, 0, 67, 119
1, 51868, Control_c, 0, 67, 118
1, 51922, Note_on_c, 0, 46, 64
1, 51926, Note_on_c, 0, 67, 71
1, 51926, Note_on_c, 0, 76, 78
1, 51928, Control_c, 0, 64, 33
1, 51943, Control_c, 0, 67, 118
1, 51964, Note_off_c, 0, 46, 63
1, 51965, Control_c, 0, 64, 35
1, 51967, Note_off_c, 0, 76, 60
1, 51969, Note_off_c, 0, 67, 62
1, 52010, Control_c, 0, 67, 117
1, 52025, Control_c, 0, 64, 36
1, 52039, Control_c, 0, 67, 117
1, 52060, Note_on_c, 0, 77, 71
1, 52062, Note_on_c, 0, 65, 68
1, 52084, Control_c, 0, 64, 34
1, 52086, Note_off_c, 0, 65, 69
1, 52092, Note_off_c, 0, 77, 63
1, 52098, Control_c, 0, 64, 30
1, 52113, Control_c, 0, 64, 19
1, 52128, Control_c, 0, 64, 0
1, 52143, Control_c, 0, 67, 117
1, 52186, Note_on_c, 0, 79, 75
1, 52191, Note_on_c, 0, 64, 56
1, 52195, Note_on_c, 0, 56, 58
1, 52215, Note_off_c, 0, 64, 61
1, 52218, Note_off_c, 0, 79, 61
1, 52223, Note_off_c, 0, 56, 66
1, 52291, Control_c, 0, 67, 117
1, 52313, Note_on_c, 0, 77, 66
1, 52321, Note_on_c, 0, 65, 63
1, 52321, Control_c, 0, 67, 116
1, 52336, Control_c, 0, 67, 116
1, 52349, Note_off_c, 0, 65, 65
1, 52351, Control_c, 0, 67, 115
1, 52352, Note_off_c, 0, 77, 55
1, 52365, Control_c, 0, 67, 115
1, 52395, Control_c, 0, 67, 114
1, 52409, Control_c, 0, 67, 113
1, 52424, Control_c, 0, 67, 111
1, 52439, Control_c, 0, 67, 110
1, 52440, Note_on_c, 0, 41, 67
1, 52444, Note_on_c, 0, 76, 72
1, 52447, Note_on_c, 0, 67, 69
1, 52454, Control_c, 0, 67, 109
1, 52469, Control_c, 0, 67, 109
1, 52470, Note_off_c, 0, 76, 66
1, 52473, Note_off_c, 0, 41, 64
1, 52474, Note_off_c, 0, 67, 66
1, 52483, Control_c, 0, 67, 107
1, 52498, Control_c, 0, 67, 106
1, 52513, Control_c, 0, 67, 106
1, 52528, Control_c, 0, 67, 105
1, 52543, Control_c, 0, 67, 105
1, 52557, Control_c, 0, 67, 104
1, 52571, Note_on_c, 0, 77, 68
1, 52572, Note_on_c, 0, 68, 72
1, 52572, Control_c, 0, 67, 104
1, 52587, Control_c, 0, 67, 103
1, 52596, Note_off_c, 0, 68, 68
1, 52597, Note_off_c, 0, 77, 67
1, 52602, Control_c, 0, 67, 102
1, 52617, Control_c, 0, 67, 101
1, 52632, Control_c, 0, 67, 101
1, 52647, Control_c, 0, 67, 100
1, 52662, Control_c, 0, 67, 99
1, 52697, Note_on_c, 0, 79, 72
1, 52713, Note_on_c, 0, 70, 68
1, 52714, Note_on_c, 0, 56, 61
1, 52714, Note_on_c, 0, 64, 55
1, 52728, Control_c, 0, 67, 100
1, 52733, Note_off_c, 0, 79, 63
1, 52738, Note_off_c, 0, 64, 60
1, 52741, Note_off_c, 0, 56, 67
1, 52741, Note_off_c, 0, 70, 66
1, 52833, Control_c, 0, 67, 99
1, 52837, Note_on_c, 0, 80, 66
1, 52838, Note_on_c, 0, 72, 64
1, 52848, Control_c, 0, 67, 99
1, 52862, Control_c, 0, 67, 98
1, 52865, Note_off_c, 0, 72, 65
1, 52866, Note_off_c, 0, 80, 61
1, 52892, Control_c, 0, 67, 98
1, 52907, Control_c, 0, 67, 96
1, 52921, Control_c, 0, 67, 92
1, 52936, Control_c, 0, 67, 88
1, 52951, Control_c, 0, 67, 84
1, 52966, Control_c, 0, 67, 81
1, 52969, Note_on_c, 0, 46, 65
1, 52971, Note_on_c, 0, 82, 64
1, 52975, Note_on_c, 0, 74, 69
1, 52981, Control_c, 0, 64, 38
1, 52981, Control_c, 0, 67, 79
1, 52996, Control_c, 0, 64, 55
1, 52996, Control_c, 0, 67, 77
1, 53002, Note_off_c, 0, 46, 62
1, 53011, Control_c, 0, 64, 61
1, 53011, Control_c, 0, 67, 75
1, 53025, Control_c, 0, 64, 63
1, 53025, Control_c, 0, 67, 73
1, 53033, Note_off_c, 0, 74, 62
1, 53040, Control_c, 0, 64, 64
1, 53040, Control_c, 0, 67, 71
1, 53055, Control_c, 0, 64, 65
1, 53055, Control_c, 0, 67, 69
1, 53070, Control_c, 0, 64, 65
1, 53070, Control_c, 0, 67, 69
1, 53085, Note_off_c, 0, 82, 49
1, 53085, Control_c, 0, 67, 68
1, 53099, Note_on_c, 0, 80, 69
1, 53100, Control_c, 0, 67, 67
1, 53104, Note_on_c, 0, 72, 65
1, 53114, Control_c, 0, 64, 66
1, 53114, Control_c, 0, 67, 67
1, 53129, Control_c, 0, 67, 66
1, 53131, Note_off_c, 0, 80, 57
1, 53132, Note_off_c, 0, 72, 66
1, 53144, Control_c, 0, 67, 65
1, 53159, Control_c, 0, 67, 65
1, 53174, Control_c, 0, 67, 63
1, 53188, Control_c, 0, 64, 65
1, 53188, Control_c, 0, 67, 61
1, 53203, Control_c, 0, 67, 60
1, 53218, Control_c, 0, 67, 58
1, 53225, Note_on_c, 0, 79, 69
1, 53232, Control_c, 0, 64, 65
1, 53232, Control_c, 0, 67, 56
1, 53233, Note_on_c, 0, 70, 69
1, 53234, Note_on_c, 0, 63, 56
1, 53243, Note_on_c, 0, 60, 42
1, 53243, Note_on_c, 0, 56, 54
1, 53247, Control_c, 0, 67, 54
1, 53258, Note_off_c, 0, 63, 62
1, 53262, Control_c, 0, 67, 51
1, 53271, Note_off_c, 0, 56, 63
1, 53273, Note_off_c, 0, 60, 55
1, 53277, Control_c, 0, 64, 64
1, 53277, Control_c, 0, 67, 48
1, 53280, Note_off_c, 0, 70, 61
1, 53292, Control_c, 0, 64, 64
1, 53292, Control_c, 0, 67, 47
1, 53296, Note_off_c, 0, 79, 53
1, 53306, Control_c, 0, 64, 62
1, 53306, Control_c, 0, 67, 45
1, 53321, Control_c, 0, 64, 60
1, 53321, Control_c, 0, 67, 43
1, 53336, Control_c, 0, 64, 53
1, 53336, Control_c, 0, 67, 41
1, 53351, Note_on_c, 0, 68, 75
1, 53351, Note_on_c, 0, 77, 73
1, 53351, Control_c, 0, 64, 0
1, 53351, Control_c, 0, 67, 38
1, 53366, Control_c, 0, 67, 36
1, 53380, Note_off_c, 0, 68, 59
1, 53380, Control_c, 0, 67, 32
1, 53395, Control_c, 0, 67, 27
1, 53410, Control_c, 0, 67, 20
1, 53425, Control_c, 0, 67, 10
1, 53440, Control_c, 0, 67, 0
1, 53462, Control_c, 0, 64, 38
1, 53477, Control_c, 0, 64, 56
1, 53479, Note_off_c, 0, 77, 52
1, 53488, Note_on_c, 0, 70, 70
1, 53492, Control_c, 0, 64, 63
1, 53493, Note_on_c, 0, 79, 67
1, 53494, Note_on_c, 0, 44, 63
1, 53506, Control_c, 0, 64, 66
1, 53521, Control_c, 0, 64, 68
1, 53537, Control_c, 0, 64, 71
1, 53547, Note_off_c, 0, 70, 62
1, 53552, Control_c, 0, 64, 75
1, 53567, Control_c, 0, 64, 79
1, 53582, Control_c, 0, 64, 83
1, 53585, Note_off_c, 0, 79, 59
1, 53594, Note_off_c, 0, 44, 60
1, 53597, Control_c, 0, 64, 87
1, 53611, Note_on_c, 0, 68, 75
1, 53611, Control_c, 0, 64, 91
1, 53613, Note_on_c, 0, 77, 65
1, 53626, Control_c, 0, 64, 95
1, 53641, Note_off_c, 0, 77, 65
1, 53641, Control_c, 0, 64, 100
1, 53642, Note_off_c, 0, 68, 63
1, 53655, Control_c, 0, 64, 103
1, 53670, Control_c, 0, 64, 106
1, 53685, Control_c, 0, 64, 110
1, 53700, Control_c, 0, 64, 113
1, 53715, Control_c, 0, 64, 117
1, 53729, Control_c, 0, 64, 123
1, 53738, Note_on_c, 0, 75, 66
1, 53744, Control_c, 0, 64, 127
1, 53747, Note_on_c, 0, 67, 62
1, 53753, Note_on_c, 0, 59, 78
1, 53769, Note_on_c, 0, 53, 55
1, 53804, Note_off_c, 0, 59, 62
1, 53810, Note_off_c, 0, 67, 59
1, 53812, Note_off_c, 0, 75, 52
1, 53849, Note_off_c, 0, 53, 52
1, 53865, Note_on_c, 0, 65, 69
1, 53870, Note_on_c, 0, 74, 70
1, 53898, Note_off_c, 0, 65, 62
1, 53912, Note_on_c, 0, 43, 73
1, 53923, Control_c, 0, 64, 96
1, 53937, Control_c, 0, 64, 77
1, 53952, Control_c, 0, 64, 67
1, 53967, Control_c, 0, 64, 66
1, 53982, Control_c, 0, 64, 70
1, 53984, Note_off_c, 0, 74, 64
1, 53988, Note_off_c, 0, 43, 58
1, 53997, Control_c, 0, 64, 75
1, 54008, Note_on_c, 0, 75, 72
1, 54011, Control_c, 0, 64, 82
1, 54014, Note_on_c, 0, 67, 57
1, 54024, Note_on_c, 0, 63, 74
1, 54026, Control_c, 0, 64, 89
1, 54028, Note_on_c, 0, 53, 56
1, 54037, Poly_aftertouch_c, 0, 71, 127
1, 54041, Control_c, 0, 64, 97
1, 54053, Note_on_c, 0, 59, 78
1, 54055, Control_c, 0, 64, 105
1, 54056, Note_off_c, 0, 67, 56
1, 54069, Poly_aftertouch_c, 0, 71, 0
1, 54070, Control_c, 0, 64, 112
1, 54076, Note_off_c, 0, 63, 59
1, 54083, Note_off_c, 0, 75, 63
1, 54085, Control_c, 0, 64, 116
1, 54098, Note_off_c, 0, 59, 64
1, 54100, Control_c, 0, 64, 120
1, 54115, Control_c, 0, 64, 127
1, 54123, Note_off_c, 0, 53, 65
1, 54162, Note_on_c, 0, 77, 82
1, 54165, Note_on_c, 0, 65, 82
1, 54190, Note_on_c, 0, 42, 79
1, 54218, Note_off_c, 0, 65, 64
1, 54218, Note_off_c, 0, 77, 63
1, 54226, Control_c, 0, 64, 88
1, 54241, Control_c, 0, 64, 70
1, 54248, Note_on_c, 0, 52, 44
1, 54255, Control_c, 0, 64, 61
1, 54267, Note_off_c, 0, 42, 64
1, 54270, Control_c, 0, 64, 64
1, 54285, Control_c, 0, 64, 70
1, 54300, Control_c, 0, 64, 78
1, 54301, Note_on_c, 0, 79, 85
1, 54302, Note_on_c, 0, 67, 85
1, 54307, Note_on_c, 0, 70, 76
1, 54313, Note_on_c, 0, 58, 84
1, 54315, Control_c, 0, 64, 85
1, 54318, Note_on_c, 0, 49, 27
1, 54331, Control_c, 0, 64, 92
1, 54334, Note_off_c, 0, 67, 61
1, 54334, Note_off_c, 0, 70, 66
1, 54344, Note_off_c, 0, 79, 61
1, 54346, Control_c, 0, 64, 97
1, 54356, Note_off_c, 0, 58, 61
1, 54360, Control_c, 0, 64, 101
1, 54364, Note_off_c, 0, 52, 61
1, 54374, Poly_aftertouch_c, 0, 73, 127
1, 54375, Control_c, 0, 64, 105
1, 54390, Control_c, 0, 64, 109
1, 54392, Poly_aftertouch_c, 0, 77, 127
1, 54402, Note_off_c, 0, 49, 39
1, 54405, Control_c, 0, 64, 117
1, 54406, Poly_aftertouch_c, 0, 73, 0
1, 54413, Poly_aftertouch_c, 0, 77, 0
1, 54420, Control_c, 0, 64, 127
1, 54425, Note_on_c, 0, 80, 85
1, 54427, Note_on_c, 0, 68, 87
1, 54438, Note_on_c, 0, 41, 80
1, 54478, Control_c, 0, 64, 110
1, 54482, Note_on_c, 0, 48, 45
1, 54484, Note_off_c, 0, 68, 59
1, 54490, Note_off_c, 0, 80, 60
1, 54493, Control_c, 0, 64, 80
1, 54508, Control_c, 0, 64, 56
1, 54523, Control_c, 0, 64, 0
1, 54549, Note_off_c, 0, 41, 58
1, 54558, Note_on_c, 0, 51, 78
1, 54572, Note_on_c, 0, 82, 87
1, 54573, Note_on_c, 0, 70, 85
1, 54577, Note_on_c, 0, 56, 91
1, 54577, Note_on_c, 0, 75, 67
1, 54582, Control_c, 0, 64, 62
1, 54597, Control_c, 0, 64, 71
1, 54605, Note_off_c, 0, 75, 65
1, 54612, Control_c, 0, 64, 80
1, 54626, Control_c, 0, 64, 91
1, 54628, Note_off_c, 0, 82, 65
1, 54629, Note_off_c, 0, 70, 63
1, 54641, Control_c, 0, 64, 101
1, 54656, Control_c, 0, 64, 109
1, 54671, Control_c, 0, 64, 112
1, 54681, Note_off_c, 0, 48, 60
1, 54686, Control_c, 0, 64, 113
1, 54701, Control_c, 0, 64, 117
1, 54716, Control_c, 0, 64, 127
1, 54721, Note_on_c, 0, 84, 83
1, 54725, Note_on_c, 0, 72, 80
1, 54730, Note_off_c, 0, 51, 62
1, 54760, Note_off_c, 0, 56, 54
1, 54772, Note_off_c, 0, 84, 65
1, 54774, Note_off_c, 0, 72, 63
1, 54819, Control_c, 0, 64, 89
1, 54834, Control_c, 0, 64, 69
1, 54849, Control_c, 0, 64, 48
1, 54864, Control_c, 0, 64, 51
1, 54869, Note_on_c, 0, 40, 55
1, 54878, Control_c, 0, 64, 65
1, 54880, Note_on_c, 0, 86, 80
1, 54882, Note_on_c, 0, 47, 61
1, 54888, Note_on_c, 0, 74, 71
1, 54891, Note_on_c, 0, 78, 69
1, 54891, Note_on_c, 0, 82, 68
1, 54893, Control_c, 0, 64, 71
1, 54908, Control_c, 0, 64, 78
1, 54912, Note_off_c, 0, 40, 64
1, 54918, Note_off_c, 0, 82, 66
1, 54920, Note_off_c, 0, 74, 62
1, 54922, Note_off_c, 0, 86, 59
1, 54923, Control_c, 0, 64, 86
1, 54930, Note_off_c, 0, 78, 58
1, 54938, Control_c, 0, 64, 94
1, 54938, Control_c, 0, 67, 8
1, 54960, Control_c, 0, 64, 101
1, 54960, Control_c, 0, 67, 12
1, 54975, Control_c, 0, 64, 104
1, 54975, Control_c, 0, 67, 15
1, 54990, Control_c, 0, 67, 18
1, 55005, Control_c, 0, 64, 105
1, 55005, Control_c, 0, 67, 22
1, 55015, Note_off_c, 0, 47, 38
1, 55019, Control_c, 0, 64, 106
1, 55019, Control_c, 0, 67, 28
1, 55034, Control_c, 0, 64, 108
1, 55034, Control_c, 0, 67, 32
1, 55049, Control_c, 0, 64, 111
1, 55049, Control_c, 0, 67, 34
1, 55064, Control_c, 0, 64, 113
1, 55064, Control_c, 0, 67, 35
1, 55078, Control_c, 0, 67, 36
1, 55087, Note_on_c, 0, 75, 74
1, 55105, Note_on_c, 0, 86, 47
1, 55116, Note_on_c, 0, 85, 29
1, 55123, Control_c, 0, 67, 35
1, 55130, Note_off_c, 0, 86, 59
1, 55135, Note_off_c, 0, 75, 47
1, 55139, Control_c, 0, 67, 34
1, 55150, Note_off_c, 0, 85, 51
1, 55154, Control_c, 0, 64, 114
1, 55154, Control_c, 0, 67, 34
1, 55169, Note_on_c, 0, 39, 61
1, 55169, Control_c, 0, 64, 127
1, 55235, Note_off_c, 0, 39, 59
1, 55253, Note_on_c, 0, 46, 62
1, 55257, Control_c, 0, 64, 90
1, 55257, Control_c, 0, 67, 34
1, 55265, Note_on_c, 0, 91, 84
1, 55269, Note_on_c, 0, 87, 80
1, 55272, Control_c, 0, 64, 66
1, 55272, Control_c, 0, 67, 35
1, 55276, Note_on_c, 0, 55, 80
1, 55287, Control_c, 0, 64, 0
1, 55287, Control_c, 0, 67, 36
1, 55289, Note_off_c, 0, 46, 64
1, 55296, Note_off_c, 0, 87, 65
1, 55300, Note_off_c, 0, 55, 69
1, 55301, Control_c, 0, 67, 36
1, 55309, Note_off_c, 0, 91, 65
1, 55316, Control_c, 0, 67, 37
1, 55331, Control_c, 0, 67, 37
1, 55361, Control_c, 0, 67, 38
1, 55375, Control_c, 0, 67, 39
1, 55390, Control_c, 0, 67, 40
1, 55405, Control_c, 0, 67, 41
1, 55420, Control_c, 0, 67, 42
1, 55422, Note_on_c, 0, 89, 73
1, 55422, Note_on_c, 0, 86, 68
1, 55434, Control_c, 0, 67, 43
1, 55441, Note_off_c, 0, 86, 66
1, 55448, Note_off_c, 0, 89, 64
1, 55449, Control_c, 0, 67, 43
1, 55464, Control_c, 0, 67, 44
1, 55479, Control_c, 0, 67, 44
1, 55494, Control_c, 0, 67, 48
1, 55509, Control_c, 0, 67, 52
1, 55523, Control_c, 0, 67, 55
1, 55538, Control_c, 0, 67, 56
1, 55547, Note_on_c, 0, 63, 68
1, 55549, Note_on_c, 0, 87, 72
1, 55550, Note_on_c, 0, 84, 69
1, 55552, Note_on_c, 0, 55, 55
1, 55553, Control_c, 0, 67, 57
1, 55562, Note_on_c, 0, 58, 44
1, 55568, Control_c, 0, 67, 57
1, 55571, Note_off_c, 0, 87, 72
1, 55572, Note_off_c, 0, 63, 65
1, 55573, Note_off_c, 0, 84, 67
1, 55579, Note_off_c, 0, 55, 60
1, 55583, Control_c, 0, 67, 58
1, 55591, Note_off_c, 0, 58, 55
1, 55598, Control_c, 0, 67, 58
1, 55657, Control_c, 0, 67, 58
1, 55658, Note_on_c, 0, 55, 72
1, 55666, Note_on_c, 0, 58, 59
1, 55667, Note_on_c, 0, 63, 50
1, 55672, Control_c, 0, 67, 57
1, 55674, Note_on_c, 0, 86, 78
1, 55679, Note_on_c, 0, 82, 74
1, 55693, Note_off_c, 0, 63, 59
1, 55694, Note_off_c, 0, 58, 65
1, 55703, Note_off_c, 0, 55, 65
1, 55708, Note_off_c, 0, 82, 70
1, 55727, Note_off_c, 0, 86, 63
1, 55753, Control_c, 0, 67, 58
1, 55768, Control_c, 0, 67, 58
1, 55798, Control_c, 0, 67, 59
1, 55804, Note_on_c, 0, 46, 91
1, 55805, Note_on_c, 0, 80, 81
1, 55805, Note_on_c, 0, 84, 74
1, 55810, Note_on_c, 0, 34, 79
1, 55826, Note_off_c, 0, 46, 68
1, 55839, Note_off_c, 0, 84, 63
1, 55839, Note_off_c, 0, 80, 63
1, 55840, Note_off_c, 0, 34, 62
1, 55842, Control_c, 0, 67, 58
1, 55872, Control_c, 0, 67, 58
1, 55937, Note_on_c, 0, 82, 71
1, 55941, Note_on_c, 0, 79, 68
1, 55974, Note_off_c, 0, 79, 60
1, 55991, Control_c, 0, 67, 58
1, 56006, Control_c, 0, 67, 60
1, 56021, Control_c, 0, 67, 60
1, 56036, Note_off_c, 0, 82, 36
1, 56036, Control_c, 0, 67, 61
1, 56050, Control_c, 0, 67, 64
1, 56065, Control_c, 0, 67, 64
1, 56067, Note_on_c, 0, 80, 74
1, 56068, Note_on_c, 0, 77, 79
1, 56072, Note_on_c, 0, 57, 62
1, 56078, Note_on_c, 0, 63, 54
1, 56080, Control_c, 0, 67, 65
1, 56089, Note_off_c, 0, 80, 70
1, 56093, Note_off_c, 0, 77, 65
1, 56099, Note_off_c, 0, 57, 64
1, 56105, Note_off_c, 0, 63, 59
1, 56186, Note_on_c, 0, 79, 69
1, 56191, Note_on_c, 0, 75, 65
1, 56213, Control_c, 0, 67, 65
1, 56228, Control_c, 0, 67, 66
1, 56236, Note_off_c, 0, 75, 54
1, 56243, Control_c, 0, 67, 66
1, 56257, Control_c, 0, 67, 69
1, 56263, Note_off_c, 0, 79, 58
1, 56272, Control_c, 0, 67, 72
1, 56287, Control_c, 0, 67, 76
1, 56302, Control_c, 0, 64, 31
1, 56302, Control_c, 0, 67, 79
1, 56310, Note_on_c, 0, 39, 85
1, 56312, Note_on_c, 0, 78, 78
1, 56313, Note_on_c, 0, 27, 79
1, 56317, Note_on_c, 0, 74, 84
1, 56317, Control_c, 0, 64, 60
1, 56317, Control_c, 0, 67, 81
1, 56331, Control_c, 0, 64, 67
1, 56331, Control_c, 0, 67, 81
1, 56335, Note_off_c, 0, 39, 69
1, 56342, Note_off_c, 0, 27, 65
1, 56346, Control_c, 0, 64, 72
1, 56346, Control_c, 0, 67, 82
1, 56361, Control_c, 0, 64, 75
1, 56367, Note_off_c, 0, 74, 64
1, 56367, Note_off_c, 0, 78, 63
1, 56376, Control_c, 0, 64, 77
1, 56391, Control_c, 0, 64, 77
1, 56437, Note_on_c, 0, 79, 73
1, 56438, Note_on_c, 0, 75, 71
1, 56474, Note_off_c, 0, 75, 61
1, 56487, Note_off_c, 0, 79, 53
1, 56502, Control_c, 0, 64, 76
1, 56517, Control_c, 0, 64, 73
1, 56531, Control_c, 0, 64, 67
1, 56546, Control_c, 0, 64, 56
1, 56546, Control_c, 0, 67, 82
1, 56561, Control_c, 0, 64, 0
1, 56570, Note_on_c, 0, 78, 76
1, 56576, Note_on_c, 0, 74, 76
1, 56576, Control_c, 0, 67, 83
1, 56577, Note_on_c, 0, 62, 60
1, 56579, Note_on_c, 0, 58, 61
1, 56581, Note_on_c, 0, 55, 59
1, 56598, Note_off_c, 0, 62, 63
1, 56608, Note_off_c, 0, 58, 65
1, 56608, Note_off_c, 0, 78, 61
1, 56608, Note_off_c, 0, 55, 65
1, 56610, Note_off_c, 0, 74, 62
1, 56620, Control_c, 0, 67, 83
1, 56635, Control_c, 0, 67, 84
1, 56650, Control_c, 0, 67, 85
1, 56665, Control_c, 0, 67, 85
1, 56680, Control_c, 0, 67, 86
1, 56690, Note_on_c, 0, 55, 64
1, 56692, Note_on_c, 0, 62, 57
1, 56695, Control_c, 0, 67, 87
1, 56695, Note_on_c, 0, 58, 61
1, 56695, Note_on_c, 0, 79, 75
1, 56699, Note_on_c, 0, 75, 70
1, 56710, Control_c, 0, 67, 88
1, 56715, Note_off_c, 0, 62, 61
1, 56723, Note_off_c, 0, 58, 66
1, 56725, Note_off_c, 0, 55, 65
1, 56725, Control_c, 0, 67, 89
1, 56730, Note_off_c, 0, 75, 62
1, 56740, Control_c, 0, 67, 91
1, 56743, Note_off_c, 0, 79, 57
1, 56755, Control_c, 0, 67, 93
1, 56769, Control_c, 0, 67, 95
1, 56784, Control_c, 0, 67, 97
1, 56799, Control_c, 0, 67, 98
1, 56814, Control_c, 0, 67, 100
1, 56821, Note_on_c, 0, 78, 77
1, 56823, Note_on_c, 0, 74, 76
1, 56827, Note_on_c, 0, 46, 93
1, 56829, Control_c, 0, 67, 101
1, 56831, Note_on_c, 0, 34, 83
1, 56844, Control_c, 0, 67, 101
1, 56848, Note_off_c, 0, 46, 69
1, 56855, Note_off_c, 0, 34, 64
1, 56859, Control_c, 0, 67, 102
1, 56874, Note_off_c, 0, 78, 63
1, 56883, Note_off_c, 0, 74, 64
1, 56945, Note_on_c, 0, 79, 80
1, 56948, Note_on_c, 0, 75, 77
1, 56969, Note_off_c, 0, 75, 69
1, 56982, Note_off_c, 0, 79, 59
1, 57062, Note_on_c, 0, 80, 84
1, 57066, Note_on_c, 0, 62, 65
1, 57067, Note_on_c, 0, 77, 73
1, 57072, Note_on_c, 0, 55, 69
1, 57079, Note_on_c, 0, 58, 44
1, 57092, Note_off_c, 0, 62, 64
1, 57103, Note_off_c, 0, 55, 67
1, 57104, Note_off_c, 0, 80, 63
1, 57106, Note_off_c, 0, 58, 60
1, 57107, Note_off_c, 0, 77, 62
1, 57168, Control_c, 0, 67, 101
1, 57177, Note_on_c, 0, 82, 65
1, 57183, Note_on_c, 0, 79, 81
1, 57220, Control_c, 0, 67, 101
1, 57228, Note_off_c, 0, 79, 62
1, 57228, Note_off_c, 0, 82, 65
1, 57249, Control_c, 0, 67, 100
1, 57279, Control_c, 0, 67, 100
1, 57309, Note_on_c, 0, 84, 87
1, 57312, Note_on_c, 0, 80, 85
1, 57315, Note_on_c, 0, 51, 85
1, 57318, Note_on_c, 0, 39, 75
1, 57341, Note_off_c, 0, 51, 70
1, 57346, Note_off_c, 0, 39, 66
1, 57353, Control_c, 0, 67, 99
1, 57357, Note_off_c, 0, 80, 63
1, 57368, Control_c, 0, 67, 99
1, 57374, Note_off_c, 0, 84, 60
1, 57397, Control_c, 0, 67, 98
1, 57430, Note_on_c, 0, 79, 81
1, 57437, Note_on_c, 0, 82, 81
1, 57442, Control_c, 0, 67, 98
1, 57457, Control_c, 0, 67, 97
1, 57479, Note_off_c, 0, 79, 62
1, 57486, Control_c, 0, 67, 97
1, 57501, Note_off_c, 0, 82, 60
1, 57547, Control_c, 0, 67, 96
1, 57551, Note_on_c, 0, 80, 79
1, 57558, Note_on_c, 0, 77, 80
1, 57559, Note_on_c, 0, 60, 69
1, 57562, Note_on_c, 0, 55, 62
1, 57562, Control_c, 0, 67, 95
1, 57567, Note_on_c, 0, 58, 63
1, 57576, Control_c, 0, 67, 94
1, 57584, Note_off_c, 0, 80, 63
1, 57585, Note_off_c, 0, 60, 68
1, 57589, Note_off_c, 0, 55, 65
1, 57591, Control_c, 0, 67, 92
1, 57593, Note_off_c, 0, 58, 66
1, 57598, Note_off_c, 0, 77, 62
1, 57606, Control_c, 0, 67, 91
1, 57621, Control_c, 0, 67, 91
1, 57635, Control_c, 0, 67, 90
1, 57660, Note_on_c, 0, 60, 64
1, 57662, Note_on_c, 0, 55, 68
1, 57662, Note_on_c, 0, 58, 69
1, 57671, Note_on_c, 0, 79, 75
1, 57673, Note_on_c, 0, 75, 78
1, 57680, Control_c, 0, 67, 90
1, 57686, Note_off_c, 0, 58, 67
1, 57686, Note_off_c, 0, 60, 67
1, 57694, Note_off_c, 0, 55, 67
1, 57709, Control_c, 0, 67, 89
1, 57726, Note_off_c, 0, 75, 63
1, 57735, Note_off_c, 0, 79, 60
1, 57740, Control_c, 0, 67, 89
1, 57755, Control_c, 0, 67, 88
1, 57769, Control_c, 0, 67, 88
1, 57784, Control_c, 0, 67, 86
1, 57792, Note_on_c, 0, 77, 84
1, 57793, Note_on_c, 0, 80, 75
1, 57795, Note_on_c, 0, 48, 88
1, 57795, Note_on_c, 0, 36, 84
1, 57799, Control_c, 0, 67, 83
1, 57814, Control_c, 0, 67, 81
1, 57817, Note_off_c, 0, 48, 69
1, 57823, Note_off_c, 0, 36, 65
1, 57828, Control_c, 0, 67, 77
1, 57843, Note_off_c, 0, 77, 62
1, 57843, Control_c, 0, 67, 72
1, 57856, Note_off_c, 0, 80, 60
1, 57858, Control_c, 0, 67, 71
1, 57873, Control_c, 0, 67, 70
1, 57902, Control_c, 0, 67, 70
1, 57912, Note_on_c, 0, 79, 72
1, 57913, Note_on_c, 0, 75, 77
1, 57955, Control_c, 0, 67, 69
1, 57956, Note_off_c, 0, 75, 62
1, 57957, Note_off_c, 0, 79, 62
1, 57970, Control_c, 0, 67, 69
1, 57984, Control_c, 0, 67, 68
1, 57999, Control_c, 0, 67, 67
1, 58036, Note_on_c, 0, 77, 81
1, 58038, Note_on_c, 0, 55, 66
1, 58040, Note_on_c, 0, 58, 61
1, 58040, Note_on_c, 0, 63, 65
1, 58041, Note_on_c, 0, 74, 87
1, 58043, Control_c, 0, 67, 66
1, 58058, Control_c, 0, 67, 65
1, 58061, Note_off_c, 0, 63, 64
1, 58065, Note_off_c, 0, 55, 66
1, 58066, Note_off_c, 0, 58, 66
1, 58073, Control_c, 0, 67, 64
1, 58081, Note_off_c, 0, 74, 64
1, 58088, Control_c, 0, 67, 63
1, 58089, Note_off_c, 0, 77, 61
1, 58102, Control_c, 0, 67, 62
1, 58117, Control_c, 0, 67, 61
1, 58132, Control_c, 0, 67, 58
1, 58147, Control_c, 0, 67, 55
1, 58152, Note_on_c, 0, 75, 81
1, 58156, Note_on_c, 0, 72, 81
1, 58162, Control_c, 0, 67, 52
1, 58176, Control_c, 0, 67, 50
1, 58187, Note_off_c, 0, 75, 63
1, 58191, Control_c, 0, 67, 47
1, 58202, Note_off_c, 0, 72, 64
1, 58206, Control_c, 0, 67, 45
1, 58236, Control_c, 0, 67, 45
1, 58269, Note_on_c, 0, 41, 77
1, 58272, Note_on_c, 0, 53, 80
1, 58275, Note_on_c, 0, 70, 83
1, 58275, Note_on_c, 0, 74, 83
1, 58301, Note_off_c, 0, 41, 65
1, 58301, Note_off_c, 0, 53, 69
1, 58325, Control_c, 0, 67, 44
1, 58343, Note_off_c, 0, 74, 63
1, 58346, Note_off_c, 0, 70, 62
1, 58395, Note_on_c, 0, 72, 79
1, 58396, Note_on_c, 0, 75, 78
1, 58430, Note_off_c, 0, 72, 64
1, 58430, Control_c, 0, 67, 44
1, 58448, Note_off_c, 0, 75, 63
1, 58459, Control_c, 0, 67, 43
1, 58474, Control_c, 0, 67, 42
1, 58489, Control_c, 0, 67, 42
1, 58504, Control_c, 0, 67, 41
1, 58514, Note_on_c, 0, 70, 85
1, 58514, Note_on_c, 0, 74, 83
1, 58517, Note_on_c, 0, 53, 64
1, 58519, Note_on_c, 0, 62, 67
1, 58519, Control_c, 0, 67, 41
1, 58519, Note_on_c, 0, 58, 72
1, 58533, Control_c, 0, 67, 40
1, 58545, Note_off_c, 0, 62, 65
1, 58548, Control_c, 0, 67, 38
1, 58551, Note_off_c, 0, 70, 62
1, 58552, Note_off_c, 0, 74, 63
1, 58553, Note_off_c, 0, 53, 67
1, 58557, Note_off_c, 0, 58, 61
1, 58563, Control_c, 0, 67, 35
1, 58578, Control_c, 0, 67, 31
1, 58593, Control_c, 0, 67, 27
1, 58607, Control_c, 0, 67, 23
1, 58622, Control_c, 0, 67, 17
1, 58637, Control_c, 0, 67, 11
1, 58638, Note_on_c, 0, 73, 81
1, 58640, Note_on_c, 0, 53, 50
1, 58642, Note_on_c, 0, 69, 80
1, 58644, Note_on_c, 0, 61, 69
1, 58648, Note_on_c, 0, 57, 53
1, 58652, Control_c, 0, 67, 0
1, 58675, Note_off_c, 0, 53, 64
1, 58677, Note_off_c, 0, 61, 62
1, 58682, Note_off_c, 0, 73, 61
1, 58683, Note_off_c, 0, 57, 58
1, 58701, Note_off_c, 0, 69, 60
1, 58767, Note_on_c, 0, 53, 69
1, 58779, Control_c, 0, 64, 64
1, 58780, Note_on_c, 0, 74, 88
1, 58782, Note_on_c, 0, 58, 70
1, 58783, Note_on_c, 0, 70, 84
1, 58785, Note_on_c, 0, 62, 57
1, 58793, Control_c, 0, 64, 67
1, 58798, Note_off_c, 0, 53, 68
1, 58801, Note_off_c, 0, 70, 70
1, 58806, Note_off_c, 0, 62, 60
1, 58807, Note_off_c, 0, 74, 64
1, 58808, Note_off_c, 0, 58, 68
1, 58808, Control_c, 0, 64, 69
1, 58823, Control_c, 0, 64, 71
1, 58838, Control_c, 0, 64, 72
1, 58852, Control_c, 0, 64, 74
1, 58867, Control_c, 0, 64, 75
1, 58882, Control_c, 0, 64, 75
1, 58926, Control_c, 0, 64, 76
1, 58927, Note_on_c, 0, 86, 92
1, 58928, Note_on_c, 0, 82, 89
1, 58966, Note_off_c, 0, 82, 61
1, 58968, Note_off_c, 0, 86, 67
1, 59059, Control_c, 0, 64, 74
1, 59074, Control_c, 0, 64, 70
1, 59089, Control_c, 0, 64, 56
1, 59101, Note_on_c, 0, 81, 90
1, 59101, Note_on_c, 0, 84, 86
1, 59104, Control_c, 0, 64, 0
1, 59128, Note_off_c, 0, 81, 64
1, 59130, Note_off_c, 0, 84, 63
1, 59290, Note_on_c, 0, 79, 72
1, 59295, Note_on_c, 0, 82, 64
1, 59316, Note_off_c, 0, 82, 40
1, 59321, Note_off_c, 0, 79, 58
1, 59354, Note_on_c, 0, 82, 80
1, 59421, Note_on_c, 0, 81, 88
1, 59423, Note_on_c, 0, 41, 74
1, 59427, Note_on_c, 0, 53, 76
1, 59428, Note_on_c, 0, 77, 80
1, 59431, Control_c, 0, 64, 60
1, 59453, Control_c, 0, 64, 66
1, 59455, Note_off_c, 0, 82, 64
1, 59461, Note_off_c, 0, 53, 69
1, 59463, Note_off_c, 0, 41, 64
1, 59468, Control_c, 0, 64, 69
1, 59482, Control_c, 0, 64, 72
1, 59494, Note_off_c, 0, 77, 58
1, 59497, Control_c, 0, 64, 75
1, 59512, Control_c, 0, 64, 77
1, 59527, Control_c, 0, 64, 78
1, 59542, Control_c, 0, 64, 79
1, 59612, Note_on_c, 0, 82, 82
1, 59637, Note_off_c, 0, 81, 32
1, 59646, Control_c, 0, 64, 80
1, 59661, Control_c, 0, 64, 80
1, 59675, Control_c, 0, 64, 81
1, 59705, Control_c, 0, 64, 78
1, 59720, Control_c, 0, 64, 70
1, 59721, Note_off_c, 0, 82, 61
1, 59735, Control_c, 0, 64, 45
1, 59744, Note_on_c, 0, 81, 80
1, 59749, Note_on_c, 0, 77, 82
1, 59749, Control_c, 0, 64, 0
1, 59756, Note_on_c, 0, 63, 58
1, 59757, Note_on_c, 0, 65, 59
1, 59759, Note_on_c, 0, 57, 54
1, 59777, Note_off_c, 0, 81, 65
1, 59779, Note_off_c, 0, 65, 64
1, 59783, Note_off_c, 0, 77, 60
1, 59788, Note_off_c, 0, 63, 65
1, 59791, Note_off_c, 0, 57, 65
1, 59881, Note_on_c, 0, 76, 83
1, 59885, Note_on_c, 0, 80, 77
1, 59890, Note_on_c, 0, 57, 46
1, 59891, Note_on_c, 0, 63, 52
1, 59892, Note_on_c, 0, 64, 61
1, 59917, Note_off_c, 0, 64, 66
1, 59920, Note_off_c, 0, 57, 58
1, 59920, Note_off_c, 0, 63, 61
1, 59926, Note_off_c, 0, 76, 63
1, 59931, Note_off_c, 0, 80, 61
1, 60002, Control_c, 0, 64, 63
1, 60011, Note_on_c, 0, 81, 85
1, 60013, Note_on_c, 0, 57, 59
1, 60015, Note_on_c, 0, 63, 53
1, 60016, Control_c, 0, 64, 68
1, 60019, Note_on_c, 0, 77, 77
1, 60022, Note_on_c, 0, 65, 63
1, 60031, Control_c, 0, 64, 70
1, 60039, Note_off_c, 0, 77, 71
1, 60042, Note_off_c, 0, 65, 64
1, 60045, Note_off_c, 0, 81, 65
1, 60046, Control_c, 0, 64, 71
1, 60047, Note_off_c, 0, 63, 64
1, 60051, Note_off_c, 0, 57, 63
1, 60061, Control_c, 0, 64, 72
1, 60076, Control_c, 0, 64, 73
1, 60090, Control_c, 0, 64, 74
1, 60105, Control_c, 0, 64, 76
1, 60120, Control_c, 0, 64, 76
1, 60144, Note_on_c, 0, 79, 80
1, 60147, Note_on_c, 0, 87, 84
1, 60165, Control_c, 0, 64, 77
1, 60172, Note_off_c, 0, 87, 66
1, 60180, Control_c, 0, 64, 77
1, 60180, Note_off_c, 0, 79, 61
1, 60231, Control_c, 0, 64, 75
1, 60246, Control_c, 0, 64, 69
1, 60261, Control_c, 0, 64, 48
1, 60272, Note_on_c, 0, 86, 81
1, 60275, Note_on_c, 0, 77, 87
1, 60276, Control_c, 0, 64, 0
1, 60279, Note_on_c, 0, 53, 72
1, 60302, Note_off_c, 0, 53, 69
1, 60305, Note_off_c, 0, 86, 67
1, 60308, Note_off_c, 0, 77, 62
1, 60399, Note_on_c, 0, 75, 86
1, 60399, Note_on_c, 0, 84, 76
1, 60420, Note_off_c, 0, 84, 71
1, 60424, Note_off_c, 0, 75, 63
1, 60498, Note_on_c, 0, 84, 91
1, 60516, Note_on_c, 0, 74, 90
1, 60521, Note_on_c, 0, 41, 74
1, 60522, Note_on_c, 0, 53, 83
1, 60528, Note_on_c, 0, 82, 89
1, 60549, Note_off_c, 0, 41, 65
1, 60552, Note_off_c, 0, 53, 68
1, 60557, Control_c, 0, 64, 61
1, 60572, Control_c, 0, 64, 67
1, 60574, Note_off_c, 0, 74, 59
1, 60578, Note_off_c, 0, 84, 59
1, 60587, Control_c, 0, 64, 70
1, 60602, Control_c, 0, 64, 73
1, 60617, Control_c, 0, 64, 76
1, 60631, Control_c, 0, 64, 79
1, 60646, Control_c, 0, 64, 80
1, 60651, Note_on_c, 0, 84, 74
1, 60671, Note_off_c, 0, 82, 62
1, 60752, Control_c, 0, 64, 79
1, 60767, Control_c, 0, 64, 77
1, 60768, Note_on_c, 0, 58, 65
1, 60769, Note_on_c, 0, 65, 73
1, 60772, Note_on_c, 0, 62, 62
1, 60776, Note_on_c, 0, 82, 85
1, 60781, Note_on_c, 0, 74, 66
1, 60782, Control_c, 0, 64, 75
1, 60792, Note_off_c, 0, 65, 70
1, 60796, Control_c, 0, 64, 73
1, 60797, Note_off_c, 0, 58, 66
1, 60802, Note_off_c, 0, 62, 64
1, 60808, Note_off_c, 0, 84, 64
1, 60811, Control_c, 0, 64, 69
1, 60813, Note_off_c, 0, 74, 67
1, 60826, Control_c, 0, 64, 65
1, 60840, Control_c, 0, 64, 60
1, 60855, Control_c, 0, 64, 58
1, 60857, Note_off_c, 0, 82, 56
1, 60870, Control_c, 0, 64, 59
1, 60879, Note_on_c, 0, 62, 63
1, 60883, Note_on_c, 0, 58, 67
1, 60885, Note_on_c, 0, 64, 72
1, 60888, Note_on_c, 0, 81, 73
1, 60901, Note_on_c, 0, 73, 81
1, 60910, Note_off_c, 0, 58, 66
1, 60914, Note_off_c, 0, 64, 66
1, 60929, Control_c, 0, 64, 58
1, 60945, Note_off_c, 0, 81, 64
1, 60946, Note_off_c, 0, 73, 58
1, 60951, Note_off_c, 0, 62, 56
1, 60952, Control_c, 0, 64, 57
1, 60967, Control_c, 0, 64, 53
1, 60981, Control_c, 0, 64, 42
1, 60996, Control_c, 0, 64, 17
1, 61009, Note_on_c, 0, 58, 71
1, 61011, Control_c, 0, 64, 0
1, 61016, Note_on_c, 0, 65, 80
1, 61019, Note_on_c, 0, 82, 77
1, 61029, Note_on_c, 0, 74, 75
1, 61038, Note_off_c, 0, 65, 71
1, 61041, Note_off_c, 0, 82, 69
1, 61051, Note_off_c, 0, 58, 61
1, 61052, Note_off_c, 0, 74, 71
1, 61140, Note_on_c, 0, 89, 84
1, 61146, Note_on_c, 0, 80, 82
1, 61182, Note_off_c, 0, 89, 62
1, 61185, Note_off_c, 0, 80, 62
1, 61192, Note_on_c, 0, 47, 67
1, 61242, Note_on_c, 0, 48, 30
1, 61247, Note_off_c, 0, 47, 63
1, 61248, Note_on_c, 0, 56, 72
1, 61257, Note_on_c, 0, 87, 84
1, 61258, Note_on_c, 0, 79, 87
1, 61264, Note_on_c, 0, 62, 73
1, 61277, Note_off_c, 0, 56, 69
1, 61280, Note_off_c, 0, 48, 44
1, 61285, Note_off_c, 0, 87, 65
1, 61288, Note_off_c, 0, 62, 68
1, 61292, Note_off_c, 0, 79, 62
1, 61376, Note_on_c, 0, 77, 86
1, 61376, Note_on_c, 0, 86, 83
1, 61404, Note_off_c, 0, 86, 64
1, 61411, Note_off_c, 0, 77, 62
1, 61470, Note_on_c, 0, 48, 65
1, 61490, Note_on_c, 0, 55, 71
1, 61495, Note_on_c, 0, 63, 85
1, 61495, Note_on_c, 0, 84, 90
1, 61497, Note_on_c, 0, 75, 94
1, 61499, Control_c, 0, 64, 62
1, 61509, Note_off_c, 0, 48, 65
1, 61514, Control_c, 0, 64, 64
1, 61516, Note_off_c, 0, 55, 65
1, 61530, Control_c, 0, 64, 65
1, 61531, Note_off_c, 0, 63, 61
1, 61546, Note_off_c, 0, 84, 61
1, 61549, Note_off_c, 0, 75, 61
1, 61559, Control_c, 0, 64, 64
1, 61616, Note_on_c, 0, 82, 85
1, 61617, Note_on_c, 0, 74, 90
1, 61648, Control_c, 0, 64, 64
1, 61660, Note_off_c, 0, 74, 66
1, 61661, Note_off_c, 0, 82, 64
1, 61662, Control_c, 0, 64, 63
1, 61677, Control_c, 0, 64, 61
1, 61700, Control_c, 0, 64, 56
1, 61715, Control_c, 0, 64, 37
1, 61730, Control_c, 0, 64, 0
1, 61736, Note_on_c, 0, 67, 72
1, 61740, Note_on_c, 0, 63, 74
1, 61745, Note_on_c, 0, 81, 85
1, 61746, Note_on_c, 0, 72, 90
1, 61747, Note_on_c, 0, 58, 62
1, 61760, Note_off_c, 0, 67, 67
1, 61764, Note_off_c, 0, 63, 68
1, 61775, Note_off_c, 0, 58, 61
1, 61778, Note_off_c, 0, 72, 66
1, 61783, Note_off_c, 0, 81, 65
1, 61858, Note_on_c, 0, 79, 85
1, 61861, Note_on_c, 0, 70, 93
1, 61898, Note_off_c, 0, 79, 64
1, 61903, Note_off_c, 0, 70, 64
1, 61932, Note_on_c, 0, 41, 76
1, 61968, Note_on_c, 0, 51, 80
1, 61971, Note_off_c, 0, 41, 62
1, 61974, Note_on_c, 0, 77, 90
1, 61979, Note_on_c, 0, 69, 96
1, 61981, Control_c, 0, 64, 58
1, 61986, Note_on_c, 0, 57, 79
1, 61995, Note_off_c, 0, 51, 70
1, 61995, Control_c, 0, 64, 62
1, 62010, Note_off_c, 0, 57, 68
1, 62010, Control_c, 0, 64, 63
1, 62025, Control_c, 0, 64, 64
1, 62028, Note_off_c, 0, 69, 64
1, 62034, Note_off_c, 0, 77, 59
1, 62055, Control_c, 0, 64, 64
1, 62084, Control_c, 0, 64, 65
1, 62092, Note_on_c, 0, 75, 85
1, 62093, Note_on_c, 0, 67, 91
1, 62129, Control_c, 0, 64, 65
1, 62135, Note_off_c, 0, 67, 64
1, 62139, Note_off_c, 0, 75, 64
1, 62144, Control_c, 0, 64, 65
1, 62159, Control_c, 0, 64, 64
1, 62174, Control_c, 0, 64, 61
1, 62189, Control_c, 0, 64, 37
1, 62203, Control_c, 0, 64, 0
1, 62204, Note_on_c, 0, 63, 76
1, 62213, Note_on_c, 0, 53, 77
1, 62213, Note_on_c, 0, 65, 91
1, 62216, Note_on_c, 0, 74, 83
1, 62222, Note_on_c, 0, 57, 50
1, 62226, Note_off_c, 0, 63, 71
1, 62239, Note_off_c, 0, 53, 68
1, 62247, Note_off_c, 0, 57, 58
1, 62251, Note_off_c, 0, 65, 66
1, 62252, Note_off_c, 0, 74, 64
1, 62323, Note_on_c, 0, 72, 88
1, 62329, Note_on_c, 0, 63, 90
1, 62384, Note_off_c, 0, 63, 61
1, 62448, Control_c, 0, 64, 36
1, 62449, Note_on_c, 0, 34, 85
1, 62454, Note_on_c, 0, 41, 85
1, 62454, Note_on_c, 0, 62, 91
1, 62456, Note_on_c, 0, 70, 87
1, 62463, Control_c, 0, 64, 63
1, 62478, Note_off_c, 0, 72, 62
1, 62478, Control_c, 0, 64, 72
1, 62480, Note_off_c, 0, 34, 66
1, 62484, Note_off_c, 0, 41, 64
1, 62493, Control_c, 0, 64, 80
1, 62498, Note_off_c, 0, 62, 63
1, 62499, Note_off_c, 0, 70, 64
1, 62508, Control_c, 0, 64, 88
1, 62523, Control_c, 0, 64, 96
1, 62537, Control_c, 0, 64, 103
1, 62552, Control_c, 0, 64, 110
1, 62567, Control_c, 0, 64, 114
1, 62582, Control_c, 0, 64, 115
1, 62695, Note_on_c, 0, 58, 86
1, 62695, Note_on_c, 0, 74, 86
1, 62701, Note_on_c, 0, 65, 82
1, 62730, Control_c, 0, 64, 115
1, 62745, Control_c, 0, 64, 116
1, 62753, Note_off_c, 0, 65, 63
1, 62760, Control_c, 0, 64, 120
1, 62774, Control_c, 0, 64, 127
1, 62782, Note_off_c, 0, 74, 53
1, 62807, Note_on_c, 0, 62, 79
1, 62808, Note_on_c, 0, 70, 83
1, 62808, Note_on_c, 0, 77, 80
1, 62837, Note_off_c, 0, 70, 61
1, 62853, Note_off_c, 0, 77, 61
1, 62863, Control_c, 0, 64, 108
1, 62878, Control_c, 0, 64, 90
1, 62892, Control_c, 0, 64, 76
1, 62907, Control_c, 0, 64, 69
1, 62919, Note_on_c, 0, 65, 94
1, 62928, Note_on_c, 0, 82, 103
1, 62932, Note_on_c, 0, 74, 91
1, 62937, Control_c, 0, 64, 72
1, 62952, Note_off_c, 0, 74, 69
1, 62952, Control_c, 0, 64, 76
1, 62952, Note_off_c, 0, 82, 66
1, 62967, Control_c, 0, 64, 79
1, 62982, Control_c, 0, 64, 82
1, 62997, Control_c, 0, 64, 86
1, 63011, Control_c, 0, 64, 89
1, 63026, Control_c, 0, 64, 91
1, 63071, Control_c, 0, 64, 92
1, 63085, Control_c, 0, 64, 94
1, 63100, Control_c, 0, 64, 97
1, 63116, Control_c, 0, 64, 98
1, 63130, Note_off_c, 0, 65, 59
1, 63131, Control_c, 0, 64, 97
1, 63146, Control_c, 0, 64, 89
1, 63160, Control_c, 0, 64, 75
1, 63169, Note_off_c, 0, 62, 60
1, 63175, Control_c, 0, 64, 51
1, 63183, Note_on_c, 0, 70, 102
1, 63184, Note_on_c, 0, 82, 102
1, 63196, Note_off_c, 0, 58, 63
1, 63197, Control_c, 0, 64, 0
1, 63216, Note_off_c, 0, 70, 64
1, 63217, Note_off_c, 0, 82, 66
1, 63304, Note_on_c, 0, 70, 103
1, 63306, Note_on_c, 0, 82, 101
1, 63343, Note_off_c, 0, 70, 66
1, 63347, Note_off_c, 0, 82, 63
1, 63413, Note_on_c, 0, 57, 81
1, 63414, Note_on_c, 0, 66, 99
1, 63415, Note_on_c, 0, 69, 99
1, 63415, Note_on_c, 0, 78, 97
1, 63418, Note_on_c, 0, 81, 92
1, 63420, Note_on_c, 0, 62, 77
1, 63420, Control_c, 0, 64, 42
1, 63420, Note_on_c, 0, 74, 86
1, 63435, Control_c, 0, 64, 62
1, 63438, Note_off_c, 0, 57, 67
1, 63441, Note_off_c, 0, 66, 65
1, 63442, Note_off_c, 0, 62, 67
1, 63449, Control_c, 0, 64, 66
1, 63456, Note_on_c, 0, 71, 24
1, 63457, Note_off_c, 0, 71, 127
1, 63464, Control_c, 0, 64, 69
1, 63471, Note_off_c, 0, 81, 61
1, 63479, Control_c, 0, 64, 71
1, 63482, Note_off_c, 0, 69, 46
1, 63494, Control_c, 0, 64, 73
1, 63509, Control_c, 0, 64, 74
1, 63523, Control_c, 0, 64, 76
1, 63538, Control_c, 0, 64, 77
1, 63553, Control_c, 0, 64, 79
1, 63567, Control_c, 0, 64, 81
1, 63582, Control_c, 0, 64, 83
1, 63597, Control_c, 0, 64, 86
1, 63612, Control_c, 0, 64, 88
1, 63641, Control_c, 0, 64, 87
1, 63656, Control_c, 0, 64, 80
1, 63671, Control_c, 0, 64, 69
1, 63674, Note_off_c, 0, 74, 58
1, 63678, Note_off_c, 0, 78, 62
1, 63686, Control_c, 0, 64, 0
1, 63687, Note_on_c, 0, 70, 105
1, 63688, Note_on_c, 0, 82, 94
1, 63722, Note_off_c, 0, 70, 68
1, 63730, Note_off_c, 0, 82, 65
1, 63977, Note_on_c, 0, 56, 84
1, 63977, Note_on_c, 0, 69, 98
1, 63978, Note_on_c, 0, 73, 100
1, 63978, Note_on_c, 0, 81, 94
1, 63980, Note_on_c, 0, 65, 91
1, 63982, Note_on_c, 0, 77, 85
1, 63983, Note_on_c, 0, 61, 85
1, 63990, Control_c, 0, 64, 34
1, 64001, Note_off_c, 0, 65, 69
1, 64005, Control_c, 0, 64, 65
1, 64010, Note_off_c, 0, 61, 65
1, 64019, Note_off_c, 0, 56, 67
1, 64020, Control_c, 0, 64, 66
1, 64026, Note_off_c, 0, 69, 62
1, 64035, Control_c, 0, 64, 68
1, 64044, Note_off_c, 0, 81, 61
1, 64050, Control_c, 0, 64, 71
1, 64065, Control_c, 0, 64, 74
1, 64079, Control_c, 0, 64, 77
1, 64094, Control_c, 0, 64, 79
1, 64109, Control_c, 0, 64, 81
1, 64124, Control_c, 0, 64, 82
1, 64139, Control_c, 0, 64, 82
1, 64213, Control_c, 0, 64, 83
1, 64272, Control_c, 0, 64, 83
1, 64317, Control_c, 0, 64, 83
1, 64329, Note_off_c, 0, 77, 62
1, 64332, Control_c, 0, 64, 80
1, 64337, Note_on_c, 0, 70, 112
1, 64338, Note_on_c, 0, 82, 94
1, 64346, Control_c, 0, 64, 74
1, 64353, Note_off_c, 0, 73, 66
1, 64361, Control_c, 0, 64, 65
1, 64368, Note_off_c, 0, 82, 68
1, 64368, Note_off_c, 0, 70, 68
1, 64376, Control_c, 0, 64, 0
1, 64484, Note_on_c, 0, 41, 86
1, 64633, Note_off_c, 0, 41, 56
1, 64672, Control_c, 0, 64, 53
1, 64674, Note_on_c, 0, 50, 72
1, 64677, Note_on_c, 0, 56, 100
1, 64679, Note_on_c, 0, 46, 75
1, 64679, Note_on_c, 0, 68, 96
1, 64681, Note_on_c, 0, 80, 97
1, 64695, Control_c, 0, 64, 67
1, 64705, Note_off_c, 0, 56, 70
1, 64708, Note_off_c, 0, 50, 68
1, 64710, Control_c, 0, 64, 73
1, 64711, Note_off_c, 0, 46, 65
1, 64725, Control_c, 0, 64, 80
1, 64732, Note_off_c, 0, 68, 63
1, 64740, Control_c, 0, 64, 88
1, 64755, Control_c, 0, 64, 95
1, 64770, Control_c, 0, 64, 103
1, 64785, Control_c, 0, 64, 110
1, 64800, Control_c, 0, 64, 123
1, 64814, Control_c, 0, 64, 127
1, 64860, Note_off_c, 0, 80, 54
1, 64889, Note_on_c, 0, 74, 84
1, 65021, Control_c, 0, 64, 109
1, 65036, Note_on_c, 0, 77, 91
1, 65036, Control_c, 0, 64, 83
1, 65039, Note_off_c, 0, 74, 62
1, 65041, Note_on_c, 0, 65, 78
1, 65047, Note_on_c, 0, 56, 77
1, 65048, Note_on_c, 0, 62, 55
1, 65051, Control_c, 0, 64, 61
1, 65059, Note_off_c, 0, 77, 65
1, 65065, Note_off_c, 0, 65, 70
1, 65066, Control_c, 0, 64, 0
1, 65073, Note_off_c, 0, 62, 59
1, 65081, Note_off_c, 0, 56, 63
1, 65089, Note_on_c, 0, 58, 5
1, 65119, Note_off_c, 0, 58, 32
1, 65178, Note_on_c, 0, 82, 94
1, 65332, Control_c, 0, 64, 61
1, 65340, Note_on_c, 0, 46, 88
1, 65342, Note_on_c, 0, 34, 83
1, 65342, Note_on_c, 0, 94, 111
1, 65347, Control_c, 0, 64, 66
1, 65359, Note_off_c, 0, 82, 47
1, 65361, Control_c, 0, 64, 71
1, 65362, Note_off_c, 0, 46, 68
1, 65367, Note_off_c, 0, 34, 64
1, 65371, Note_off_c, 0, 94, 69
1, 65376, Control_c, 0, 64, 76
1, 65391, Control_c, 0, 64, 81
1, 65406, Control_c, 0, 64, 87
1, 65420, Control_c, 0, 64, 92
1, 65443, Control_c, 0, 64, 97
1, 65458, Control_c, 0, 64, 100
1, 65473, Control_c, 0, 64, 102
1, 65487, Control_c, 0, 64, 102
1, 65516, Poly_aftertouch_c, 0, 46, 0
1, 65643, Note_on_c, 0, 65, 76
1, 65651, Note_on_c, 0, 56, 67
1, 65651, Note_on_c, 0, 82, 95
1, 65653, Note_on_c, 0, 70, 94
1, 65666, Note_on_c, 0, 62, 36
1, 65666, Note_off_c, 0, 65, 71
1, 65682, Note_off_c, 0, 56, 67
1, 65684, Note_off_c, 0, 82, 59
1, 65685, Note_off_c, 0, 70, 60
1, 65702, Note_off_c, 0, 62, 52
1, 65763, Note_on_c, 0, 82, 89
1, 65764, Note_on_c, 0, 70, 95
1, 65806, Note_off_c, 0, 70, 66
1, 65810, Note_off_c, 0, 82, 60
1, 65814, Control_c, 0, 64, 99
1, 65829, Control_c, 0, 64, 88
1, 65843, Control_c, 0, 64, 70
1, 65858, Control_c, 0, 64, 0
1, 65874, Note_on_c, 0, 81, 82
1, 65876, Note_on_c, 0, 78, 78
1, 65876, Note_on_c, 0, 46, 81
1, 65876, Note_on_c, 0, 69, 89
1, 65881, Note_on_c, 0, 74, 76
1, 65905, Note_off_c, 0, 46, 67
1, 65926, Note_off_c, 0, 69, 62
1, 65939, Note_off_c, 0, 81, 61
1, 66207, Control_c, 0, 64, 27
1, 66222, Control_c, 0, 64, 63
1, 66235, Note_on_c, 0, 82, 83
1, 66237, Control_c, 0, 64, 70
1, 66237, Note_on_c, 0, 66, 89
1, 66237, Note_on_c, 0, 70, 80
1, 66241, Note_off_c, 0, 74, 51
1, 66243, Note_off_c, 0, 78, 60
1, 66247, Note_on_c, 0, 57, 70
1, 66251, Control_c, 0, 64, 78
1, 66266, Control_c, 0, 64, 86
1, 66271, Note_off_c, 0, 66, 62
1, 66281, Control_c, 0, 64, 97
1, 66284, Note_off_c, 0, 57, 63
1, 66296, Control_c, 0, 64, 103
1, 66308, Note_off_c, 0, 70, 62
1, 66311, Control_c, 0, 64, 107
1, 66326, Control_c, 0, 64, 109
1, 66341, Control_c, 0, 64, 110
1, 66346, Note_off_c, 0, 82, 49
1, 66356, Control_c, 0, 64, 114
1, 66371, Control_c, 0, 64, 120
1, 66385, Control_c, 0, 64, 127
1, 66474, Control_c, 0, 64, 112
1, 66489, Control_c, 0, 64, 87
1, 66504, Control_c, 0, 64, 66
1, 66519, Control_c, 0, 64, 0
1, 66522, Note_on_c, 0, 81, 68
1, 66526, Note_on_c, 0, 46, 82
1, 66526, Note_on_c, 0, 77, 59
1, 66528, Note_on_c, 0, 69, 59
1, 66530, Note_on_c, 0, 74, 67
1, 66532, Note_on_c, 0, 34, 70
1, 66550, Note_off_c, 0, 46, 66
1, 66563, Note_off_c, 0, 34, 62
1, 66568, Note_off_c, 0, 69, 61
1, 66615, Note_off_c, 0, 81, 60
1, 66696, Control_c, 0, 67, 8
1, 66711, Control_c, 0, 67, 11
1, 66726, Control_c, 0, 67, 16
1, 66741, Control_c, 0, 67, 21
1, 66755, Control_c, 0, 67, 25
1, 66770, Control_c, 0, 67, 30
1, 66785, Control_c, 0, 67, 34
1, 66800, Control_c, 0, 67, 38
1, 66803, Note_off_c, 0, 77, 61
1, 66805, Note_on_c, 0, 82, 79
1, 66807, Note_on_c, 0, 65, 65
1, 66809, Note_on_c, 0, 56, 68
1, 66810, Note_on_c, 0, 70, 75
1, 66815, Control_c, 0, 67, 42
1, 66817, Note_off_c, 0, 74, 64
1, 66826, Note_off_c, 0, 65, 65
1, 66830, Control_c, 0, 67, 47
1, 66837, Note_off_c, 0, 82, 61
1, 66839, Note_off_c, 0, 56, 67
1, 66840, Note_off_c, 0, 70, 63
1, 66845, Control_c, 0, 67, 51
1, 66859, Control_c, 0, 67, 54
1, 66874, Control_c, 0, 67, 57
1, 66889, Control_c, 0, 67, 60
1, 66904, Control_c, 0, 67, 61
1, 66919, Control_c, 0, 67, 63
1, 66940, Control_c, 0, 67, 65
1, 66955, Control_c, 0, 67, 66
1, 66970, Control_c, 0, 67, 67
1, 66985, Control_c, 0, 67, 68
1, 67000, Control_c, 0, 67, 69
1, 67003, Note_on_c, 0, 39, 56
1, 67015, Control_c, 0, 67, 70
1, 67045, Control_c, 0, 67, 70
1, 67052, Note_on_c, 0, 46, 66
1, 67060, Control_c, 0, 67, 71
1, 67064, Note_off_c, 0, 39, 61
1, 67074, Control_c, 0, 67, 71
1, 67076, Note_on_c, 0, 79, 80
1, 67077, Note_on_c, 0, 55, 82
1, 67080, Note_on_c, 0, 72, 70
1, 67086, Note_on_c, 0, 67, 80
1, 67089, Control_c, 0, 64, 53
1, 67089, Control_c, 0, 67, 72
1, 67093, Note_on_c, 0, 75, 56
1, 67096, Note_off_c, 0, 46, 62
1, 67102, Note_off_c, 0, 55, 69
1, 67104, Control_c, 0, 64, 63
1, 67104, Control_c, 0, 67, 73
1, 67110, Note_off_c, 0, 72, 65
1, 67119, Control_c, 0, 64, 66
1, 67119, Control_c, 0, 67, 74
1, 67126, Note_off_c, 0, 67, 59
1, 67127, Note_off_c, 0, 75, 65
1, 67134, Control_c, 0, 64, 69
1, 67134, Control_c, 0, 67, 75
1, 67149, Control_c, 0, 64, 72
1, 67149, Control_c, 0, 67, 77
1, 67164, Control_c, 0, 64, 74
1, 67164, Control_c, 0, 67, 79
1, 67179, Control_c, 0, 64, 76
1, 67179, Control_c, 0, 67, 81
1, 67194, Control_c, 0, 64, 77
1, 67194, Control_c, 0, 67, 84
1, 67208, Control_c, 0, 64, 78
1, 67208, Control_c, 0, 67, 85
1, 67214, Note_on_c, 0, 70, 72
1, 67223, Control_c, 0, 64, 78
1, 67223, Control_c, 0, 67, 88
1, 67238, Control_c, 0, 64, 79
1, 67238, Control_c, 0, 67, 90
1, 67253, Control_c, 0, 64, 81
1, 67253, Control_c, 0, 67, 92
1, 67268, Control_c, 0, 64, 84
1, 67268, Control_c, 0, 67, 95
1, 67281, Note_off_c, 0, 70, 62
1, 67282, Control_c, 0, 64, 87
1, 67282, Control_c, 0, 67, 99
1, 67297, Control_c, 0, 64, 88
1, 67297, Control_c, 0, 67, 103
1, 67312, Control_c, 0, 67, 107
1, 67319, Note_off_c, 0, 79, 55
1, 67325, Note_on_c, 0, 55, 72
1, 67327, Control_c, 0, 64, 87
1, 67327, Control_c, 0, 67, 112
1, 67328, Note_on_c, 0, 63, 65
1, 67330, Note_on_c, 0, 75, 65
1, 67332, Note_on_c, 0, 60, 53
1, 67342, Control_c, 0, 64, 84
1, 67342, Control_c, 0, 67, 117
1, 67349, Note_off_c, 0, 63, 63
1, 67349, Note_off_c, 0, 55, 70
1, 67352, Note_off_c, 0, 75, 66
1, 67355, Note_off_c, 0, 60, 62
1, 67356, Control_c, 0, 64, 79
1, 67356, Control_c, 0, 67, 121
1, 67371, Control_c, 0, 64, 74
1, 67371, Control_c, 0, 67, 124
1, 67386, Control_c, 0, 64, 68
1, 67386, Control_c, 0, 67, 126
1, 67401, Control_c, 0, 64, 60
1, 67401, Control_c, 0, 67, 127
1, 67415, Control_c, 0, 64, 21
1, 67430, Control_c, 0, 64, 0
1, 67451, Note_on_c, 0, 82, 79
1, 67564, Control_c, 0, 64, 45
1, 67569, Note_on_c, 0, 34, 77
1, 67579, Control_c, 0, 64, 64
1, 67581, Note_off_c, 0, 82, 58
1, 67581, Note_on_c, 0, 94, 85
1, 67586, Note_on_c, 0, 46, 74
1, 67594, Control_c, 0, 64, 68
1, 67602, Note_off_c, 0, 34, 65
1, 67608, Note_off_c, 0, 46, 65
1, 67608, Control_c, 0, 64, 71
1, 67615, Note_off_c, 0, 94, 62
1, 67623, Control_c, 0, 64, 72
1, 67638, Control_c, 0, 64, 73
1, 67653, Control_c, 0, 64, 73
1, 67734, Control_c, 0, 64, 74
1, 67779, Control_c, 0, 64, 73
1, 67794, Control_c, 0, 64, 72
1, 67809, Control_c, 0, 64, 71
1, 67823, Control_c, 0, 64, 68
1, 67828, Note_on_c, 0, 65, 66
1, 67835, Note_on_c, 0, 56, 63
1, 67838, Control_c, 0, 64, 65
1, 67841, Note_on_c, 0, 82, 74
1, 67842, Note_on_c, 0, 72, 72
1, 67846, Note_off_c, 0, 65, 66
1, 67853, Control_c, 0, 64, 62
1, 67861, Note_off_c, 0, 56, 67
1, 67861, Note_off_c, 0, 82, 70
1, 67864, Note_off_c, 0, 72, 68
1, 67868, Control_c, 0, 64, 57
1, 67879, Poly_aftertouch_c, 0, 60, 127
1, 67883, Control_c, 0, 64, 50
1, 67897, Control_c, 0, 64, 38
1, 67913, Control_c, 0, 64, 19
1, 67921, Poly_aftertouch_c, 0, 60, 0
1, 67928, Control_c, 0, 64, 0
1, 67951, Note_on_c, 0, 82, 73
1, 67955, Note_on_c, 0, 74, 65
1, 67971, Note_off_c, 0, 82, 71
1, 67972, Note_off_c, 0, 74, 67
1, 68001, Note_on_c, 0, 39, 59
1, 68054, Note_on_c, 0, 46, 64
1, 68054, Note_off_c, 0, 39, 61
1, 68067, Note_on_c, 0, 79, 79
1, 68067, Note_on_c, 0, 87, 77
1, 68077, Note_on_c, 0, 55, 71
1, 68088, Note_off_c, 0, 87, 70
1, 68089, Note_off_c, 0, 46, 65
1, 68092, Note_off_c, 0, 79, 65
1, 68102, Note_off_c, 0, 55, 66
1, 68175, Note_on_c, 0, 86, 72
1, 68177, Note_on_c, 0, 77, 72
1, 68198, Note_off_c, 0, 86, 70
1, 68201, Note_off_c, 0, 77, 67
1, 68291, Note_on_c, 0, 63, 71
1, 68294, Note_on_c, 0, 58, 66
1, 68296, Note_on_c, 0, 91, 72
1, 68297, Note_on_c, 0, 82, 81
1, 68314, Note_off_c, 0, 63, 68
1, 68317, Note_off_c, 0, 58, 67
1, 68317, Note_off_c, 0, 82, 68
1, 68319, Note_off_c, 0, 91, 69
1, 68320, Note_on_c, 0, 55, 24
1, 68321, Note_off_c, 0, 55, 127
1, 68405, Note_on_c, 0, 89, 80
1, 68415, Note_on_c, 0, 80, 73
1, 68441, Note_off_c, 0, 80, 70
1, 68443, Note_off_c, 0, 89, 60
1, 68512, Note_on_c, 0, 43, 50
1, 68513, Control_c, 0, 64, 11
1, 68528, Control_c, 0, 64, 44
1, 68529, Note_on_c, 0, 58, 83
1, 68532, Note_on_c, 0, 87, 80
1, 68539, Note_on_c, 0, 51, 66
1, 68542, Note_on_c, 0, 79, 71
1, 68543, Control_c, 0, 64, 57
1, 68545, Note_off_c, 0, 43, 57
1, 68551, Note_on_c, 0, 48, 50
1, 68554, Note_off_c, 0, 58, 66
1, 68558, Control_c, 0, 64, 62
1, 68562, Note_off_c, 0, 87, 63
1, 68563, Note_on_c, 0, 45, 6
1, 68572, Control_c, 0, 64, 64
1, 68573, Note_off_c, 0, 79, 61
1, 68582, Note_off_c, 0, 51, 56
1, 68587, Control_c, 0, 64, 65
1, 68602, Control_c, 0, 64, 66
1, 68612, Note_off_c, 0, 45, 26
1, 68617, Control_c, 0, 64, 68
1, 68636, Note_on_c, 0, 82, 74
1, 68646, Control_c, 0, 64, 67
1, 68651, Note_on_c, 0, 86, 50
1, 68651, Note_on_c, 0, 88, 52
1, 68661, Control_c, 0, 64, 64
1, 68668, Note_off_c, 0, 82, 59
1, 68676, Control_c, 0, 64, 57
1, 68678, Note_off_c, 0, 88, 55
1, 68680, Note_on_c, 0, 42, 66
1, 68681, Note_off_c, 0, 86, 54
1, 68691, Control_c, 0, 64, 42
1, 68706, Control_c, 0, 64, 46
1, 68722, Control_c, 0, 64, 57
1, 68736, Control_c, 0, 64, 63
1, 68741, Note_off_c, 0, 42, 63
1, 68744, Note_on_c, 0, 51, 61
1, 68747, Note_on_c, 0, 84, 78
1, 68747, Note_on_c, 0, 81, 76
1, 68751, Control_c, 0, 64, 66
1, 68755, Note_on_c, 0, 57, 84
1, 68766, Control_c, 0, 64, 69
1, 68781, Control_c, 0, 64, 71
1, 68791, Note_off_c, 0, 81, 61
1, 68795, Control_c, 0, 64, 73
1, 68795, Control_c, 0, 67, 123
1, 68797, Note_off_c, 0, 57, 62
1, 68806, Note_off_c, 0, 48, 43
1, 68810, Control_c, 0, 64, 76
1, 68810, Control_c, 0, 67, 116
1, 68820, Note_off_c, 0, 51, 61
1, 68825, Control_c, 0, 64, 79
1, 68825, Control_c, 0, 67, 104
1, 68840, Control_c, 0, 64, 83
1, 68840, Control_c, 0, 67, 91
1, 68848, Note_on_c, 0, 82, 78
1, 68849, Note_on_c, 0, 79, 79
1, 68855, Control_c, 0, 64, 89
1, 68855, Control_c, 0, 67, 74
1, 68863, Note_on_c, 0, 41, 74
1, 68869, Control_c, 0, 64, 98
1, 68869, Control_c, 0, 67, 54
1, 68875, Note_off_c, 0, 84, 43
1, 68883, Note_on_c, 0, 46, 61
1, 68884, Control_c, 0, 64, 107
1, 68884, Control_c, 0, 67, 32
1, 68899, Control_c, 0, 64, 109
1, 68899, Control_c, 0, 67, 0
1, 68900, Note_off_c, 0, 79, 62
1, 68914, Note_on_c, 0, 50, 60
1, 68914, Control_c, 0, 64, 105
1, 68926, Note_off_c, 0, 41, 58
1, 68929, Control_c, 0, 64, 92
1, 68943, Control_c, 0, 64, 73
1, 68958, Control_c, 0, 64, 39
1, 68961, Note_off_c, 0, 50, 65
1, 68967, Note_off_c, 0, 46, 62
1, 68968, Note_off_c, 0, 82, 56
1, 68973, Control_c, 0, 64, 0
1, 68979, Note_on_c, 0, 56, 92
1, 68981, Note_on_c, 0, 86, 80
1, 68990, Note_on_c, 0, 74, 84
1, 69003, Note_off_c, 0, 56, 67
1, 69018, Note_off_c, 0, 74, 65
1, 69090, Note_on_c, 0, 58, 91
1, 69119, Note_off_c, 0, 58, 62
1, 69209, Note_on_c, 0, 77, 59
1, 69209, Note_on_c, 0, 80, 57
1, 69212, Note_on_c, 0, 60, 77
1, 69230, Note_off_c, 0, 77, 65
1, 69231, Note_off_c, 0, 80, 62
1, 69239, Note_off_c, 0, 60, 67
1, 69314, Note_on_c, 0, 61, 78
1, 69351, Control_c, 0, 67, 8
1, 69352, Note_off_c, 0, 61, 57
1, 69366, Control_c, 0, 67, 13
1, 69380, Control_c, 0, 67, 23
1, 69395, Control_c, 0, 67, 36
1, 69410, Control_c, 0, 67, 48
1, 69414, Note_off_c, 0, 86, 65
1, 69425, Control_c, 0, 67, 60
1, 69430, Note_on_c, 0, 62, 70
1, 69439, Note_on_c, 0, 56, 69
1, 69440, Control_c, 0, 67, 69
1, 69441, Note_on_c, 0, 77, 76
1, 69441, Note_on_c, 0, 80, 70
1, 69451, Note_off_c, 0, 62, 65
1, 69454, Note_on_c, 0, 60, 37
1, 69454, Control_c, 0, 67, 78
1, 69463, Note_off_c, 0, 56, 67
1, 69463, Note_off_c, 0, 80, 68
1, 69465, Note_off_c, 0, 77, 67
1, 69469, Control_c, 0, 67, 85
1, 69484, Control_c, 0, 67, 89
1, 69487, Note_off_c, 0, 60, 33
1, 69499, Control_c, 0, 67, 90
1, 69543, Note_on_c, 0, 80, 87
1, 69545, Note_on_c, 0, 84, 86
1, 69574, Control_c, 0, 67, 88
1, 69581, Note_off_c, 0, 80, 64
1, 69589, Control_c, 0, 67, 88
1, 69590, Note_off_c, 0, 84, 63
1, 69604, Control_c, 0, 67, 87
1, 69633, Control_c, 0, 67, 88
1, 69648, Note_on_c, 0, 82, 96
1, 69648, Control_c, 0, 67, 89
1, 69650, Note_on_c, 0, 41, 73
1, 69650, Note_on_c, 0, 79, 90
1, 69663, Control_c, 0, 67, 90
1, 69678, Control_c, 0, 67, 92
1, 69679, Note_off_c, 0, 41, 65
1, 69686, Note_off_c, 0, 79, 63
1, 69692, Control_c, 0, 67, 93
1, 69698, Note_off_c, 0, 82, 65
1, 69707, Control_c, 0, 67, 96
1, 69721, Control_c, 0, 67, 99
1, 69736, Control_c, 0, 67, 101
1, 69751, Control_c, 0, 67, 101
1, 69752, Note_on_c, 0, 80, 87
1, 69753, Note_on_c, 0, 77, 89
1, 69765, Control_c, 0, 67, 102
1, 69788, Note_off_c, 0, 80, 63
1, 69795, Control_c, 0, 67, 102
1, 69796, Note_off_c, 0, 77, 64
1, 69824, Control_c, 0, 67, 105
1, 69839, Control_c, 0, 67, 108
1, 69854, Control_c, 0, 64, 36
1, 69854, Control_c, 0, 67, 113
1, 69861, Note_on_c, 0, 46, 93
1, 69863, Note_on_c, 0, 34, 75
1, 69865, Note_on_c, 0, 86, 89
1, 69869, Control_c, 0, 64, 38
1, 69869, Control_c, 0, 67, 120
1, 69873, Note_on_c, 0, 74, 90
1, 69883, Note_off_c, 0, 46, 68
1, 69883, Control_c, 0, 64, 47
1, 69883, Control_c, 0, 67, 125
1, 69887, Note_off_c, 0, 34, 64
1, 69898, Control_c, 0, 64, 52
1, 69898, Control_c, 0, 67, 127
1, 69913, Note_off_c, 0, 74, 66
1, 69913, Control_c, 0, 64, 52
1, 69935, Control_c, 0, 64, 51
1, 69950, Control_c, 0, 64, 44
1, 69965, Control_c, 0, 64, 30
1, 69980, Control_c, 0, 64, 0
1, 69988, Note_on_c, 0, 62, 96
1, 70019, Note_off_c, 0, 62, 62
1, 70105, Note_on_c, 0, 63, 85
1, 70106, Note_on_c, 0, 80, 77
1, 70106, Note_on_c, 0, 77, 85
1, 70133, Note_off_c, 0, 77, 62
1, 70139, Note_off_c, 0, 80, 63
1, 70141, Note_off_c, 0, 63, 60
1, 70214, Note_on_c, 0, 64, 76
1, 70258, Note_off_c, 0, 64, 56
1, 70296, Note_on_c, 0, 56, 61
1, 70306, Control_c, 0, 64, 26
1, 70321, Control_c, 0, 64, 44
1, 70336, Note_on_c, 0, 62, 44
1, 70336, Control_c, 0, 64, 54
1, 70350, Control_c, 0, 64, 61
1, 70365, Control_c, 0, 64, 65
1, 70377, Note_off_c, 0, 62, 61
1, 70380, Note_off_c, 0, 86, 62
1, 70380, Note_on_c, 0, 77, 60
1, 70380, Note_on_c, 0, 80, 56
1, 70380, Control_c, 0, 64, 68
1, 70382, Note_on_c, 0, 65, 66
1, 70395, Control_c, 0, 64, 71
1, 70409, Note_off_c, 0, 77, 67
1, 70410, Note_off_c, 0, 65, 68
1, 70410, Control_c, 0, 64, 74
1, 70417, Note_off_c, 0, 80, 61
1, 70419, Note_off_c, 0, 56, 63
1, 70425, Control_c, 0, 64, 76
1, 70440, Control_c, 0, 64, 77
1, 70455, Control_c, 0, 64, 78
1, 70470, Control_c, 0, 64, 79
1, 70485, Control_c, 0, 64, 80
1, 70499, Control_c, 0, 64, 80
1, 70514, Control_c, 0, 64, 81
1, 70528, Note_on_c, 0, 80, 68
1, 70529, Control_c, 0, 64, 81
1, 70532, Note_on_c, 0, 84, 61
1, 70557, Note_off_c, 0, 80, 61
1, 70559, Control_c, 0, 64, 82
1, 70574, Control_c, 0, 64, 82
1, 70596, Note_off_c, 0, 84, 53
1, 70633, Control_c, 0, 64, 82
1, 70648, Control_c, 0, 64, 78
1, 70652, Note_on_c, 0, 46, 64
1, 70654, Note_on_c, 0, 82, 73
1, 70663, Control_c, 0, 64, 73
1, 70666, Note_on_c, 0, 79, 59
1, 70685, Control_c, 0, 64, 66
1, 70687, Note_off_c, 0, 46, 64
1, 70695, Note_off_c, 0, 79, 65
1, 70700, Control_c, 0, 64, 56
1, 70711, Note_off_c, 0, 82, 59
1, 70714, Control_c, 0, 64, 43
1, 70729, Control_c, 0, 64, 42
1, 70759, Control_c, 0, 64, 40
1, 70774, Control_c, 0, 64, 38
1, 70776, Note_on_c, 0, 77, 71
1, 70776, Note_on_c, 0, 80, 65
1, 70789, Control_c, 0, 64, 38
1, 70801, Note_off_c, 0, 77, 65
1, 70804, Control_c, 0, 64, 38
1, 70806, Note_off_c, 0, 80, 62
1, 70818, Control_c, 0, 64, 44
1, 70825, Note_on_c, 0, 39, 50
1, 70833, Control_c, 0, 64, 52
1, 70848, Control_c, 0, 64, 59
1, 70863, Control_c, 0, 64, 63
1, 70878, Control_c, 0, 64, 65
1, 70893, Note_off_c, 0, 39, 60
1, 70893, Control_c, 0, 64, 67
1, 70893, Note_on_c, 0, 46, 60
1, 70902, Note_on_c, 0, 84, 74
1, 70907, Control_c, 0, 64, 69
1, 70908, Note_on_c, 0, 75, 72
1, 70916, Note_on_c, 0, 55, 71
1, 70922, Note_off_c, 0, 46, 64
1, 70922, Note_off_c, 0, 84, 71
1, 70922, Control_c, 0, 64, 70
1, 70930, Note_off_c, 0, 75, 70
1, 70931, Note_on_c, 0, 72, 47
1, 70937, Control_c, 0, 64, 72
1, 70944, Note_on_c, 0, 74, 12
1, 70944, Note_off_c, 0, 55, 66
1, 70952, Control_c, 0, 64, 74
1, 70955, Note_off_c, 0, 72, 60
1, 70966, Control_c, 0, 64, 75
1, 70981, Control_c, 0, 64, 75
1, 70988, Note_off_c, 0, 74, 30
1, 70996, Control_c, 0, 64, 76
1, 71011, Control_c, 0, 64, 76
1, 71026, Control_c, 0, 64, 77
1, 71032, Note_on_c, 0, 63, 78
1, 71032, Note_on_c, 0, 75, 73
1, 71040, Control_c, 0, 64, 80
1, 71055, Control_c, 0, 64, 84
1, 71056, Note_off_c, 0, 63, 68
1, 71070, Control_c, 0, 64, 87
1, 71074, Note_off_c, 0, 75, 44
1, 71101, Control_c, 0, 64, 84
1, 71116, Control_c, 0, 64, 76
1, 71130, Control_c, 0, 64, 61
1, 71137, Note_on_c, 0, 58, 69
1, 71139, Note_on_c, 0, 77, 70
1, 71140, Note_on_c, 0, 75, 35
1, 71141, Note_on_c, 0, 65, 77
1, 71144, Note_on_c, 0, 63, 80
1, 71145, Control_c, 0, 64, 0
1, 71150, Note_on_c, 0, 72, 64
1, 71158, Note_on_c, 0, 60, 29
1, 71168, Note_off_c, 0, 63, 66
1, 71168, Note_off_c, 0, 75, 60
1, 71169, Note_off_c, 0, 65, 66
1, 71170, Note_off_c, 0, 58, 65
1, 71170, Note_off_c, 0, 77, 62
1, 71176, Note_off_c, 0, 72, 68
1, 71191, Note_off_c, 0, 60, 51
1, 71251, Note_on_c, 0, 78, 80
1, 71254, Note_on_c, 0, 66, 83
1, 71286, Note_off_c, 0, 66, 64
1, 71299, Note_off_c, 0, 78, 53
1, 71363, Note_on_c, 0, 67, 82
1, 71364, Note_on_c, 0, 57, 68
1, 71364, Note_on_c, 0, 71, 70
1, 71367, Note_on_c, 0, 79, 76
1, 71369, Note_on_c, 0, 75, 60
1, 71376, Note_on_c, 0, 63, 61
1, 71386, Note_off_c, 0, 67, 66
1, 71387, Note_off_c, 0, 71, 69
1, 71392, Note_off_c, 0, 57, 63
1, 71392, Note_off_c, 0, 75, 65
1, 71397, Note_off_c, 0, 63, 62
1, 71398, Note_off_c, 0, 79, 59
1, 71484, Note_on_c, 0, 68, 78
1, 71488, Note_on_c, 0, 80, 71
1, 71516, Note_off_c, 0, 68, 64
1, 71521, Note_off_c, 0, 80, 55
1, 71594, Note_on_c, 0, 56, 59
1, 71594, Note_on_c, 0, 69, 86
1, 71597, Note_on_c, 0, 66, 75
1, 71598, Note_on_c, 0, 81, 70
1, 71599, Note_on_c, 0, 74, 72
1, 71615, Note_off_c, 0, 69, 69
1, 71620, Note_on_c, 0, 78, 24
1, 71620, Note_off_c, 0, 81, 71
1, 71623, Note_off_c, 0, 74, 70
1, 71634, Note_off_c, 0, 66, 56
1, 71641, Note_off_c, 0, 56, 58
1, 71650, Note_off_c, 0, 78, 50
1, 71698, Note_on_c, 0, 82, 73
1, 71702, Note_on_c, 0, 70, 75
1, 71735, Note_off_c, 0, 70, 61
1, 71738, Note_off_c, 0, 82, 58
1, 71819, Control_c, 0, 64, 44
1, 71820, Note_on_c, 0, 55, 69
1, 71823, Note_on_c, 0, 67, 73
1, 71823, Note_on_c, 0, 81, 81
1, 71826, Note_on_c, 0, 63, 70
1, 71828, Note_on_c, 0, 60, 57
1, 71829, Note_on_c, 0, 69, 78
1, 71832, Note_on_c, 0, 75, 75
1, 71834, Control_c, 0, 64, 57
1, 71836, Note_on_c, 0, 79, 72
1, 71845, Note_off_c, 0, 55, 66
1, 71847, Note_off_c, 0, 67, 67
1, 71849, Control_c, 0, 64, 61
1, 71853, Note_off_c, 0, 63, 67
1, 71855, Note_off_c, 0, 60, 66
1, 71861, Note_off_c, 0, 69, 62
1, 71863, Control_c, 0, 64, 64
1, 71877, Note_off_c, 0, 81, 63
1, 71878, Control_c, 0, 64, 65
1, 71893, Control_c, 0, 64, 67
1, 71909, Control_c, 0, 64, 68
1, 71924, Control_c, 0, 64, 68
1, 71939, Control_c, 0, 64, 69
1, 71942, Note_off_c, 0, 79, 0
1, 71942, Note_on_c, 0, 79, 24
1, 71953, Control_c, 0, 64, 69
1, 71967, Control_c, 0, 64, 70
1, 72026, Control_c, 0, 64, 68
1, 72041, Control_c, 0, 64, 64
1, 72050, Note_off_c, 0, 75, 56
1, 72056, Control_c, 0, 64, 56
1, 72070, Control_c, 0, 64, 0
1, 72073, Note_on_c, 0, 82, 74
1, 72081, Note_on_c, 0, 70, 70
1, 72094, Note_off_c, 0, 79, 42
1, 72105, Note_off_c, 0, 70, 70
1, 72110, Note_off_c, 0, 82, 56
1, 72321, Note_on_c, 0, 66, 62
1, 72324, Note_on_c, 0, 54, 67
1, 72324, Note_on_c, 0, 62, 54
1, 72327, Note_on_c, 0, 81, 65
1, 72330, Control_c, 0, 64, 35
1, 72333, Note_on_c, 0, 69, 59
1, 72333, Note_on_c, 0, 78, 53
1, 72340, Note_on_c, 0, 74, 56
1, 72345, Control_c, 0, 64, 57
1, 72348, Note_off_c, 0, 66, 65
1, 72354, Note_off_c, 0, 62, 64
1, 72355, Note_off_c, 0, 54, 66
1, 72360, Control_c, 0, 64, 64
1, 72374, Control_c, 0, 64, 66
1, 72380, Note_off_c, 0, 69, 61
1, 72389, Control_c, 0, 64, 68
1, 72398, Note_off_c, 0, 81, 59
1, 72404, Control_c, 0, 64, 69
1, 72419, Control_c, 0, 64, 70
1, 72434, Control_c, 0, 64, 70
1, 72464, Control_c, 0, 64, 71
1, 72537, Control_c, 0, 64, 69
1, 72552, Control_c, 0, 64, 66
1, 72562, Note_off_c, 0, 78, 55
1, 72567, Note_on_c, 0, 82, 70
1, 72567, Control_c, 0, 64, 60
1, 72571, Note_on_c, 0, 70, 68
1, 72582, Control_c, 0, 64, 14
1, 72586, Note_off_c, 0, 74, 50
1, 72589, Note_off_c, 0, 82, 69
1, 72597, Note_off_c, 0, 70, 68
1, 72597, Control_c, 0, 64, 0
1, 72669, Note_on_c, 0, 41, 57
1, 72740, Note_off_c, 0, 41, 51
1, 72775, Control_c, 0, 64, 57
1, 72778, Note_on_c, 0, 46, 50
1, 72790, Control_c, 0, 64, 63
1, 72792, Note_on_c, 0, 80, 63
1, 72795, Note_on_c, 0, 56, 72
1, 72798, Note_on_c, 0, 68, 67
1, 72805, Control_c, 0, 64, 65
1, 72807, Note_off_c, 0, 46, 59
1, 72819, Control_c, 0, 64, 67
1, 72822, Note_off_c, 0, 56, 67
1, 72828, Note_off_c, 0, 68, 65
1, 72834, Control_c, 0, 64, 67
1, 72849, Control_c, 0, 64, 68
1, 72864, Control_c, 0, 64, 68
1, 72879, Control_c, 0, 64, 69
1, 72889, Note_off_c, 0, 80, 36
1, 72918, Note_on_c, 0, 74, 61
1, 72946, Control_c, 0, 64, 69
1, 72960, Control_c, 0, 64, 69
1, 72975, Control_c, 0, 64, 68
1, 72990, Control_c, 0, 64, 65
1, 73005, Control_c, 0, 64, 58
1, 73018, Note_off_c, 0, 74, 56
1, 73020, Control_c, 0, 64, 0
1, 73027, Note_on_c, 0, 77, 62
1, 73030, Note_on_c, 0, 53, 68
1, 73043, Note_on_c, 0, 56, 55
1, 73048, Note_off_c, 0, 77, 67
1, 73054, Note_off_c, 0, 53, 68
1, 73065, Note_off_c, 0, 56, 62
1, 73072, Note_on_c, 0, 62, 3
1, 73114, Note_off_c, 0, 62, 28
1, 73152, Note_on_c, 0, 82, 56
1, 73239, Note_off_c, 0, 82, 58
1, 73268, Note_on_c, 0, 34, 73
1, 73270, Note_on_c, 0, 94, 81
1, 73272, Control_c, 0, 64, 41
1, 73272, Note_on_c, 0, 46, 70
1, 73287, Control_c, 0, 64, 49
1, 73289, Note_off_c, 0, 94, 72
1, 73297, Note_off_c, 0, 34, 63
1, 73298, Note_off_c, 0, 46, 64
1, 73301, Control_c, 0, 64, 54
1, 73316, Control_c, 0, 64, 58
1, 73331, Control_c, 0, 64, 60
1, 73346, Control_c, 0, 64, 61
1, 73405, Control_c, 0, 64, 60
1, 73420, Control_c, 0, 64, 57
1, 73434, Control_c, 0, 64, 51
1, 73449, Control_c, 0, 64, 37
1, 73465, Control_c, 0, 64, 0
1, 73513, Note_on_c, 0, 82, 72
1, 73515, Note_on_c, 0, 70, 77
1, 73516, Note_on_c, 0, 53, 54
1, 73519, Note_on_c, 0, 62, 54
1, 73527, Note_on_c, 0, 56, 54
1, 73534, Note_off_c, 0, 70, 71
1, 73535, Note_off_c, 0, 82, 68
1, 73543, Note_off_c, 0, 62, 58
1, 73544, Note_off_c, 0, 53, 67
1, 73550, Note_off_c, 0, 56, 61
1, 73613, Note_on_c, 0, 82, 69
1, 73623, Note_on_c, 0, 70, 70
1, 73654, Note_off_c, 0, 70, 64
1, 73665, Note_off_c, 0, 82, 58
1, 73732, Note_on_c, 0, 46, 67
1, 73743, Note_on_c, 0, 81, 68
1, 73745, Note_on_c, 0, 73, 67
1, 73749, Note_on_c, 0, 69, 63
1, 73758, Note_off_c, 0, 46, 64
1, 73769, Note_on_c, 0, 76, 48
1, 73780, Note_off_c, 0, 69, 57
1, 73809, Note_off_c, 0, 81, 57
1, 73991, Control_c, 0, 64, 60
1, 73999, Note_off_c, 0, 76, 59
1, 74000, Note_on_c, 0, 67, 78
1, 74006, Control_c, 0, 64, 67
1, 74008, Note_on_c, 0, 57, 66
1, 74011, Note_on_c, 0, 82, 74
1, 74012, Note_on_c, 0, 61, 66
1, 74021, Control_c, 0, 64, 71
1, 74023, Note_on_c, 0, 70, 67
1, 74023, Note_off_c, 0, 67, 69
1, 74028, Note_off_c, 0, 73, 60
1, 74034, Note_off_c, 0, 57, 65
1, 74036, Control_c, 0, 64, 74
1, 74037, Note_off_c, 0, 61, 66
1, 74050, Control_c, 0, 64, 77
1, 74065, Control_c, 0, 64, 80
1, 74080, Note_off_c, 0, 70, 61
1, 74080, Control_c, 0, 64, 82
1, 74094, Control_c, 0, 64, 83
1, 74109, Control_c, 0, 64, 84
1, 74115, Note_off_c, 0, 82, 45
1, 74124, Control_c, 0, 64, 86
1, 74139, Control_c, 0, 64, 89
1, 74154, Control_c, 0, 64, 91
1, 74169, Control_c, 0, 64, 91
1, 74184, Control_c, 0, 64, 84
1, 74199, Control_c, 0, 64, 72
1, 74214, Control_c, 0, 64, 0
1, 74238, Note_on_c, 0, 81, 70
1, 74245, Note_on_c, 0, 69, 68
1, 74247, Note_on_c, 0, 46, 76
1, 74252, Note_on_c, 0, 77, 56
1, 74255, Note_on_c, 0, 74, 60
1, 74257, Note_on_c, 0, 34, 61
1, 74270, Note_off_c, 0, 46, 65
1, 74274, Note_off_c, 0, 69, 65
1, 74285, Note_off_c, 0, 34, 56
1, 74306, Note_off_c, 0, 81, 62
1, 74308, Note_off_c, 0, 74, 52
1, 74318, Control_c, 0, 67, 118
1, 74333, Control_c, 0, 67, 103
1, 74348, Control_c, 0, 67, 82
1, 74363, Control_c, 0, 67, 60
1, 74378, Control_c, 0, 67, 43
1, 74393, Control_c, 0, 67, 33
1, 74407, Control_c, 0, 67, 24
1, 74429, Control_c, 0, 67, 18
1, 74444, Control_c, 0, 67, 16
1, 74485, Note_off_c, 0, 77, 58
1, 74487, Note_on_c, 0, 68, 67
1, 74492, Note_on_c, 0, 62, 56
1, 74493, Note_on_c, 0, 56, 60
1, 74494, Note_on_c, 0, 82, 79
1, 74498, Note_on_c, 0, 70, 79
1, 74502, Poly_aftertouch_c, 0, 74, 127
1, 74503, Control_c, 0, 67, 17
1, 74505, Note_off_c, 0, 68, 65
1, 74516, Note_off_c, 0, 56, 62
1, 74516, Note_off_c, 0, 62, 61
1, 74518, Control_c, 0, 67, 18
1, 74526, Note_off_c, 0, 82, 57
1, 74530, Poly_aftertouch_c, 0, 74, 0
1, 74531, Note_off_c, 0, 70, 62
1, 74533, Control_c, 0, 67, 19
1, 74548, Control_c, 0, 67, 20
1, 74607, Control_c, 0, 67, 19
1, 74622, Control_c, 0, 67, 19
1, 74637, Control_c, 0, 67, 18
1, 74652, Control_c, 0, 67, 17
1, 74654, Note_on_c, 0, 39, 62
1, 74667, Control_c, 0, 67, 17
1, 74681, Control_c, 0, 67, 16
1, 74689, Note_off_c, 0, 39, 63
1, 74696, Control_c, 0, 67, 14
1, 74709, Note_on_c, 0, 46, 63
1, 74711, Control_c, 0, 67, 11
1, 74720, Note_on_c, 0, 55, 79
1, 74721, Note_on_c, 0, 79, 73
1, 74725, Control_c, 0, 64, 60
1, 74725, Control_c, 0, 67, 0
1, 74726, Note_on_c, 0, 72, 63
1, 74732, Note_on_c, 0, 67, 71
1, 74735, Note_off_c, 0, 46, 64
1, 74740, Control_c, 0, 64, 63
1, 74743, Note_off_c, 0, 55, 68
1, 74747, Note_on_c, 0, 75, 34
1, 74752, Note_off_c, 0, 72, 68
1, 74755, Control_c, 0, 64, 65
1, 74770, Control_c, 0, 64, 66
1, 74776, Note_off_c, 0, 67, 55
1, 74780, Note_off_c, 0, 75, 53
1, 74785, Control_c, 0, 64, 68
1, 74799, Control_c, 0, 64, 70
1, 74814, Control_c, 0, 64, 71
1, 74829, Control_c, 0, 64, 73
1, 74844, Control_c, 0, 64, 74
1, 74846, Note_on_c, 0, 70, 68
1, 74859, Control_c, 0, 64, 74
1, 74888, Control_c, 0, 64, 75
1, 74903, Control_c, 0, 64, 77
1, 74915, Note_off_c, 0, 70, 59
1, 74917, Control_c, 0, 64, 78
1, 74932, Control_c, 0, 64, 80
1, 74934, Note_off_c, 0, 79, 59
1, 74937, Note_on_c, 0, 70, 53
1, 74943, Note_on_c, 0, 60, 62
1, 74947, Control_c, 0, 64, 81
1, 74948, Note_on_c, 0, 75, 64
1, 74953, Note_on_c, 0, 63, 59
1, 74962, Control_c, 0, 64, 82
1, 74963, Note_off_c, 0, 70, 66
1, 74974, Note_off_c, 0, 75, 66
1, 74974, Note_off_c, 0, 60, 68
1, 74977, Control_c, 0, 64, 85
1, 74982, Note_off_c, 0, 63, 64
1, 74992, Control_c, 0, 64, 90
1, 75007, Control_c, 0, 64, 95
1, 75015, Poly_aftertouch_c, 0, 67, 0
1, 75022, Control_c, 0, 64, 100
1, 75036, Poly_aftertouch_c, 0, 67, 0
1, 75036, Control_c, 0, 64, 100
1, 75051, Control_c, 0, 64, 100
1, 75066, Control_c, 0, 64, 95
1, 75069, Note_on_c, 0, 82, 76
1, 75081, Control_c, 0, 64, 85
1, 75096, Control_c, 0, 64, 73
1, 75111, Control_c, 0, 64, 59
1, 75126, Control_c, 0, 64, 0
1, 75156, Control_c, 0, 64, 51
1, 75178, Control_c, 0, 64, 64
1, 75187, Note_on_c, 0, 94, 79
1, 75193, Control_c, 0, 64, 70
1, 75199, Note_on_c, 0, 46, 72
1, 75202, Note_on_c, 0, 34, 66
1, 75205, Note_off_c, 0, 82, 58
1, 75208, Control_c, 0, 64, 77
1, 75223, Control_c, 0, 64, 88
1, 75224, Note_off_c, 0, 46, 64
1, 75224, Note_off_c, 0, 94, 61
1, 75233, Note_off_c, 0, 34, 63
1, 75237, Control_c, 0, 64, 97
1, 75252, Control_c, 0, 64, 105
1, 75267, Control_c, 0, 64, 110
1, 75282, Control_c, 0, 64, 112
1, 75297, Control_c, 0, 64, 114
1, 75311, Control_c, 0, 64, 115
1, 75326, Control_c, 0, 64, 115
1, 75355, Control_c, 0, 64, 116
1, 75415, Note_on_c, 0, 82, 71
1, 75415, Control_c, 0, 64, 116
1, 75418, Note_on_c, 0, 73, 75
1, 75430, Control_c, 0, 64, 118
1, 75441, Note_on_c, 0, 54, 49
1, 75442, Note_off_c, 0, 82, 65
1, 75445, Control_c, 0, 64, 123
1, 75448, Note_off_c, 0, 73, 61
1, 75460, Control_c, 0, 64, 127
1, 75472, Note_off_c, 0, 54, 63
1, 75529, Note_on_c, 0, 39, 70
1, 75531, Note_on_c, 0, 74, 80
1, 75539, Note_on_c, 0, 82, 70
1, 75560, Note_off_c, 0, 74, 65
1, 75564, Note_off_c, 0, 82, 66
1, 75578, Control_c, 0, 64, 120
1, 75593, Control_c, 0, 64, 86
1, 75608, Control_c, 0, 64, 66
1, 75622, Control_c, 0, 64, 0
1, 75630, Note_off_c, 0, 39, 62
1, 75652, Control_c, 0, 64, 47
1, 75664, Note_on_c, 0, 46, 55
1, 75667, Control_c, 0, 64, 67
1, 75670, Note_on_c, 0, 87, 77
1, 75676, Note_on_c, 0, 79, 68
1, 75677, Note_on_c, 0, 55, 76
1, 75682, Control_c, 0, 64, 78
1, 75696, Control_c, 0, 64, 93
1, 75700, Note_off_c, 0, 87, 61
1, 75710, Control_c, 0, 64, 110
1, 75711, Note_off_c, 0, 79, 60
1, 75722, Note_off_c, 0, 55, 62
1, 75725, Control_c, 0, 64, 127
1, 75797, Note_on_c, 0, 86, 64
1, 75801, Note_on_c, 0, 77, 65
1, 75827, Note_off_c, 0, 86, 63
1, 75828, Note_off_c, 0, 77, 67
1, 75895, Note_on_c, 0, 58, 75
1, 75898, Note_on_c, 0, 91, 79
1, 75903, Note_off_c, 0, 46, 34
1, 75909, Note_on_c, 0, 82, 78
1, 75933, Note_off_c, 0, 91, 64
1, 75937, Note_off_c, 0, 82, 68
1, 75947, Note_off_c, 0, 58, 57
1, 76011, Note_on_c, 0, 89, 84
1, 76021, Note_on_c, 0, 80, 78
1, 76026, Note_on_c, 0, 43, 73
1, 76030, Control_c, 0, 64, 89
1, 76044, Control_c, 0, 64, 69
1, 76048, Note_off_c, 0, 80, 61
1, 76059, Control_c, 0, 64, 55
1, 76062, Note_off_c, 0, 89, 63
1, 76074, Control_c, 0, 64, 61
1, 76089, Control_c, 0, 64, 67
1, 76093, Note_off_c, 0, 43, 60
1, 76094, Note_on_c, 0, 53, 56
1, 76104, Control_c, 0, 64, 73
1, 76119, Control_c, 0, 64, 81
1, 76124, Note_on_c, 0, 87, 79
1, 76130, Note_on_c, 0, 79, 77
1, 76131, Note_on_c, 0, 59, 83
1, 76133, Control_c, 0, 64, 92
1, 76148, Control_c, 0, 64, 106
1, 76161, Note_off_c, 0, 53, 66
1, 76163, Control_c, 0, 64, 127
1, 76170, Note_off_c, 0, 87, 61
1, 76172, Note_off_c, 0, 79, 57
1, 76186, Note_off_c, 0, 59, 63
1, 76234, Note_on_c, 0, 86, 78
1, 76242, Note_on_c, 0, 77, 81
1, 76290, Note_off_c, 0, 77, 60
1, 76292, Note_off_c, 0, 86, 58
1, 76343, Note_on_c, 0, 83, 80
1, 76346, Note_on_c, 0, 62, 78
1, 76349, Note_on_c, 0, 74, 83
1, 76367, Note_off_c, 0, 62, 70
1, 76387, Note_off_c, 0, 74, 63
1, 76404, Note_off_c, 0, 83, 62
1, 76444, Control_c, 0, 64, 104
1, 76445, Note_on_c, 0, 86, 76
1, 76447, Note_on_c, 0, 77, 85
1, 76459, Control_c, 0, 64, 78
1, 76464, Note_on_c, 0, 44, 75
1, 76474, Control_c, 0, 64, 62
1, 76489, Control_c, 0, 64, 56
1, 76497, Note_off_c, 0, 77, 63
1, 76499, Note_off_c, 0, 86, 66
1, 76503, Control_c, 0, 64, 64
1, 76518, Control_c, 0, 64, 70
1, 76524, Note_on_c, 0, 51, 63
1, 76532, Note_on_c, 0, 53, 64
1, 76533, Control_c, 0, 64, 78
1, 76536, Note_off_c, 0, 44, 64
1, 76548, Control_c, 0, 64, 92
1, 76559, Note_on_c, 0, 60, 91
1, 76560, Note_on_c, 0, 86, 81
1, 76560, Note_on_c, 0, 77, 83
1, 76563, Control_c, 0, 64, 112
1, 76578, Control_c, 0, 64, 127
1, 76590, Note_off_c, 0, 53, 65
1, 76601, Note_off_c, 0, 86, 66
1, 76612, Note_off_c, 0, 77, 64
1, 76628, Note_off_c, 0, 60, 64
1, 76676, Note_on_c, 0, 84, 81
1, 76683, Note_on_c, 0, 75, 91
1, 76718, Note_off_c, 0, 51, 54
1, 76724, Note_off_c, 0, 84, 63
1, 76729, Note_off_c, 0, 75, 64
1, 76786, Note_on_c, 0, 62, 86
1, 76790, Note_on_c, 0, 83, 84
1, 76793, Note_on_c, 0, 74, 82
1, 76825, Note_off_c, 0, 62, 64
1, 76828, Note_off_c, 0, 74, 63
1, 76837, Note_off_c, 0, 83, 64
1, 76887, Note_on_c, 0, 48, 81
1, 76887, Note_on_c, 0, 84, 78
1, 76897, Control_c, 0, 64, 88
1, 76899, Note_on_c, 0, 75, 87
1, 76903, Note_on_c, 0, 53, 70
1, 76912, Control_c, 0, 64, 67
1, 76923, Note_off_c, 0, 84, 60
1, 76926, Control_c, 0, 64, 57
1, 76941, Control_c, 0, 64, 65
1, 76942, Note_off_c, 0, 75, 64
1, 76953, Note_on_c, 0, 56, 74
1, 76954, Note_off_c, 0, 48, 60
1, 76956, Control_c, 0, 64, 74
1, 76971, Control_c, 0, 64, 87
1, 76986, Control_c, 0, 64, 112
1, 76994, Poly_aftertouch_c, 0, 83, 0
1, 77001, Control_c, 0, 64, 127
1, 77010, Note_on_c, 0, 77, 78
1, 77013, Note_on_c, 0, 68, 90
1, 77020, Note_on_c, 0, 63, 95
1, 77038, Note_off_c, 0, 53, 65
1, 77054, Note_off_c, 0, 68, 59
1, 77055, Note_on_c, 0, 78, 4
1, 77060, Note_off_c, 0, 56, 65
1, 77070, Note_off_c, 0, 63, 61
1, 77102, Note_on_c, 0, 79, 81
1, 77111, Note_off_c, 0, 78, 50
1, 77112, Note_on_c, 0, 70, 81
1, 77124, Note_off_c, 0, 77, 56
1, 77139, Note_off_c, 0, 70, 64
1, 77145, Note_off_c, 0, 79, 59
1, 77227, Note_on_c, 0, 65, 83
1, 77227, Note_on_c, 0, 82, 82
1, 77236, Note_on_c, 0, 74, 82
1, 77245, Note_off_c, 0, 65, 72
1, 77282, Note_off_c, 0, 74, 66
1, 77326, Note_on_c, 0, 80, 83
1, 77327, Note_on_c, 0, 72, 86
1, 77335, Note_on_c, 0, 46, 84
1, 77350, Note_off_c, 0, 82, 59
1, 77352, Poly_aftertouch_c, 0, 64, 0
1, 77368, Note_off_c, 0, 72, 65
1, 77370, Note_off_c, 0, 80, 65
1, 77387, Control_c, 0, 64, 118
1, 77392, Note_on_c, 0, 51, 32
1, 77401, Control_c, 0, 64, 76
1, 77424, Control_c, 0, 64, 0
1, 77440, Note_off_c, 0, 46, 63
1, 77463, Note_on_c, 0, 55, 76
1, 77469, Note_on_c, 0, 79, 89
1, 77472, Note_on_c, 0, 62, 94
1, 77472, Note_on_c, 0, 67, 81
1, 77473, Note_on_c, 0, 70, 83
1, 77483, Control_c, 0, 64, 55
1, 77499, Control_c, 0, 64, 73
1, 77500, Note_on_c, 0, 69, 49
1, 77501, Note_off_c, 0, 69, 127
1, 77513, Note_off_c, 0, 67, 62
1, 77514, Control_c, 0, 64, 87
1, 77519, Note_off_c, 0, 70, 64
1, 77524, Note_off_c, 0, 51, 0
1, 77524, Note_on_c, 0, 51, 6
1, 77527, Note_off_c, 0, 79, 63
1, 77528, Control_c, 0, 64, 107
1, 77537, Note_off_c, 0, 62, 63
1, 77543, Control_c, 0, 64, 127
1, 77604, Note_on_c, 0, 72, 84
1, 77604, Note_on_c, 0, 80, 83
1, 77660, Note_off_c, 0, 72, 63
1, 77661, Note_off_c, 0, 80, 58
1, 77708, Note_on_c, 0, 81, 84
1, 77711, Note_on_c, 0, 61, 89
1, 77712, Note_on_c, 0, 73, 93
1, 77755, Note_off_c, 0, 73, 63
1, 77755, Note_off_c, 0, 55, 42
1, 77756, Note_off_c, 0, 81, 65
1, 77784, Note_off_c, 0, 61, 61
1, 77814, Note_on_c, 0, 74, 90
1, 77816, Note_on_c, 0, 82, 92
1, 77834, Note_on_c, 0, 46, 80
1, 77854, Control_c, 0, 64, 98
1, 77865, Note_off_c, 0, 74, 65
1, 77869, Control_c, 0, 64, 79
1, 77873, Note_off_c, 0, 82, 64
1, 77884, Control_c, 0, 64, 73
1, 77898, Control_c, 0, 64, 76
1, 77910, Note_off_c, 0, 46, 64
1, 77913, Control_c, 0, 64, 83
1, 77914, Note_on_c, 0, 83, 85
1, 77918, Note_off_c, 0, 51, 0
1, 77919, Note_on_c, 0, 75, 93
1, 77926, Note_on_c, 0, 60, 94
1, 77928, Control_c, 0, 64, 94
1, 77943, Control_c, 0, 64, 113
1, 77947, Note_on_c, 0, 51, 7
1, 77958, Control_c, 0, 64, 127
1, 77961, Note_off_c, 0, 83, 66
1, 77961, Note_off_c, 0, 75, 65
1, 77969, Note_off_c, 0, 60, 66
1, 77997, Note_off_c, 0, 51, 53
1, 78019, Note_on_c, 0, 84, 92
1, 78023, Note_on_c, 0, 76, 96
1, 78041, Poly_aftertouch_c, 0, 57, 0
1, 78062, Control_c, 0, 64, 124
1, 78062, Note_off_c, 0, 84, 67
1, 78065, Note_off_c, 0, 76, 65
1, 78076, Control_c, 0, 64, 87
1, 78091, Control_c, 0, 64, 81
1, 78106, Control_c, 0, 64, 85
1, 78121, Control_c, 0, 64, 96
1, 78123, Note_on_c, 0, 62, 88
1, 78124, Note_on_c, 0, 85, 91
1, 78125, Note_on_c, 0, 56, 78
1, 78128, Note_on_c, 0, 77, 93
1, 78136, Control_c, 0, 64, 126
1, 78140, Note_on_c, 0, 59, 63
1, 78150, Control_c, 0, 64, 127
1, 78169, Note_off_c, 0, 59, 64
1, 78175, Note_off_c, 0, 62, 61
1, 78176, Note_off_c, 0, 77, 61
1, 78187, Note_off_c, 0, 56, 64
1, 78199, Note_off_c, 0, 85, 61
1, 78229, Note_on_c, 0, 86, 86
1, 78237, Note_on_c, 0, 78, 92
1, 78238, Note_on_c, 0, 56, 41
1, 78276, Control_c, 0, 64, 98
1, 78280, Note_off_c, 0, 86, 66
1, 78292, Control_c, 0, 64, 70
1, 78295, Note_off_c, 0, 56, 55
1, 78295, Note_off_c, 0, 78, 59
1, 78307, Control_c, 0, 64, 0
1, 78339, Note_on_c, 0, 63, 90
1, 78341, Note_on_c, 0, 55, 78
1, 78345, Note_on_c, 0, 58, 70
1, 78345, Note_on_c, 0, 87, 97
1, 78346, Note_on_c, 0, 75, 95
1, 78350, Note_on_c, 0, 79, 89
1, 78351, Control_c, 0, 64, 48
1, 78366, Control_c, 0, 64, 66
1, 78372, Note_off_c, 0, 58, 67
1, 78372, Note_off_c, 0, 63, 61
1, 78381, Control_c, 0, 64, 75
1, 78389, Note_off_c, 0, 55, 64
1, 78390, Note_off_c, 0, 87, 67
1, 78396, Control_c, 0, 64, 85
1, 78411, Control_c, 0, 64, 97
1, 78414, Note_off_c, 0, 75, 59
1, 78426, Control_c, 0, 64, 109
1, 78437, Note_off_c, 0, 79, 57
1, 78440, Control_c, 0, 64, 117
1, 78455, Control_c, 0, 64, 120
1, 78467, Note_on_c, 0, 46, 82
1, 78470, Control_c, 0, 64, 121
1, 78485, Control_c, 0, 64, 127
1, 78572, Note_on_c, 0, 51, 86
1, 78611, Note_off_c, 0, 46, 54
1, 78678, Note_on_c, 0, 55, 90
1, 78706, Control_c, 0, 64, 104
1, 78721, Control_c, 0, 64, 80
1, 78736, Control_c, 0, 64, 60
1, 78751, Control_c, 0, 64, 44
1, 78766, Control_c, 0, 64, 61
1, 78780, Control_c, 0, 64, 68
1, 78784, Note_on_c, 0, 58, 97
1, 78795, Control_c, 0, 64, 75
1, 78810, Control_c, 0, 64, 83
1, 78825, Control_c, 0, 64, 95
1, 78826, Note_off_c, 0, 58, 66
1, 78840, Control_c, 0, 64, 105
1, 78852, Note_off_c, 0, 55, 62
1, 78855, Control_c, 0, 64, 112
1, 78870, Control_c, 0, 64, 116
1, 78884, Control_c, 0, 64, 119
1, 78899, Control_c, 0, 64, 127
1, 78918, Note_on_c, 0, 58, 94
1, 78972, Note_on_c, 0, 46, 62
1, 79010, Control_c, 0, 64, 106
1, 79025, Control_c, 0, 64, 76
1, 79040, Control_c, 0, 64, 0
1, 79052, Note_off_c, 0, 51, 37
1, 79073, Note_on_c, 0, 63, 93
1, 79076, Note_on_c, 0, 56, 84
1, 79095, Note_off_c, 0, 58, 59
1, 79115, Control_c, 0, 64, 57
1, 79121, Note_off_c, 0, 56, 63
1, 79129, Control_c, 0, 64, 68
1, 79140, Note_off_c, 0, 46, 61
1, 79144, Control_c, 0, 64, 76
1, 79159, Control_c, 0, 64, 85
1, 79174, Control_c, 0, 64, 93
1, 79189, Control_c, 0, 64, 96
1, 79204, Control_c, 0, 64, 97
1, 79212, Note_off_c, 0, 63, 53
1, 79219, Control_c, 0, 64, 98
1, 79234, Control_c, 0, 64, 100
1, 79241, Note_on_c, 0, 62, 76
1, 79241, Note_on_c, 0, 66, 85
1, 79248, Control_c, 0, 64, 101
1, 79263, Control_c, 0, 64, 102
1, 79265, Note_off_c, 0, 62, 68
1, 79278, Control_c, 0, 64, 103
1, 79282, Note_off_c, 0, 66, 65
1, 79308, Control_c, 0, 64, 104
1, 79322, Control_c, 0, 64, 106
1, 79337, Control_c, 0, 64, 107
1, 79353, Note_on_c, 0, 39, 63
1, 79372, Note_on_c, 0, 70, 83
1, 79441, Control_c, 0, 64, 105
1, 79451, Note_on_c, 0, 46, 58
1, 79456, Control_c, 0, 64, 95
1, 79470, Control_c, 0, 64, 80
1, 79485, Control_c, 0, 64, 62
1, 79500, Control_c, 0, 64, 0
1, 79564, Note_off_c, 0, 39, 59
1, 79572, Note_on_c, 0, 82, 85
1, 79574, Control_c, 0, 64, 63
1, 79583, Note_on_c, 0, 54, 69
1, 79588, Control_c, 0, 64, 72
1, 79594, Note_off_c, 0, 46, 59
1, 79603, Control_c, 0, 64, 80
1, 79615, Note_off_c, 0, 54, 68
1, 79616, Note_off_c, 0, 70, 62
1, 79618, Control_c, 0, 64, 88
1, 79633, Control_c, 0, 64, 95
1, 79648, Control_c, 0, 64, 100
1, 79650, Note_off_c, 0, 82, 62
1, 79670, Control_c, 0, 64, 102
1, 79685, Control_c, 0, 64, 102
1, 79714, Control_c, 0, 64, 103
1, 79722, Note_on_c, 0, 71, 61
1, 79772, Note_off_c, 0, 71, 58
1, 79818, Control_c, 0, 67, 9
1, 79823, Note_on_c, 0, 72, 66
1, 79833, Control_c, 0, 64, 102
1, 79833, Control_c, 0, 67, 12
1, 79848, Control_c, 0, 67, 16
1, 79863, Control_c, 0, 67, 21
1, 79866, Note_off_c, 0, 72, 59
1, 79877, Note_on_c, 0, 63, 60
1, 79877, Control_c, 0, 67, 27
1, 79893, Control_c, 0, 67, 33
1, 79895, Note_on_c, 0, 54, 54
1, 79901, Note_off_c, 0, 63, 63
1, 79908, Control_c, 0, 67, 38
1, 79911, Note_on_c, 0, 73, 69
1, 79923, Control_c, 0, 67, 41
1, 79927, Note_off_c, 0, 54, 64
1, 79938, Control_c, 0, 67, 42
1, 79939, Note_off_c, 0, 73, 67
1, 79952, Control_c, 0, 64, 103
1, 79952, Control_c, 0, 67, 42
1, 79983, Poly_aftertouch_c, 0, 58, 0
1, 79992, Note_on_c, 0, 74, 77
1, 80012, Control_c, 0, 67, 42
1, 80026, Control_c, 0, 67, 41
1, 80041, Control_c, 0, 64, 102
1, 80041, Control_c, 0, 67, 41
1, 80049, Note_on_c, 0, 42, 60
1, 80056, Control_c, 0, 64, 96
1, 80066, Note_on_c, 0, 83, 83
1, 80071, Control_c, 0, 64, 80
1, 80071, Control_c, 0, 67, 40
1, 80077, Note_off_c, 0, 74, 64
1, 80086, Control_c, 0, 64, 62
1, 80101, Control_c, 0, 64, 0
1, 80101, Control_c, 0, 67, 39
1, 80116, Control_c, 0, 67, 38
1, 80122, Note_off_c, 0, 42, 64
1, 80131, Control_c, 0, 67, 37
1, 80134, Note_on_c, 0, 51, 48
1, 80143, Note_on_c, 0, 82, 87
1, 80145, Control_c, 0, 67, 37
1, 80153, Note_on_c, 0, 58, 84
1, 80160, Note_on_c, 0, 75, 75
1, 80160, Control_c, 0, 64, 60
1, 80160, Control_c, 0, 67, 36
1, 80168, Note_off_c, 0, 51, 64
1, 80170, Note_off_c, 0, 83, 63
1, 80174, Note_off_c, 0, 58, 71
1, 80175, Control_c, 0, 64, 69
1, 80175, Control_c, 0, 67, 34
1, 80187, Note_off_c, 0, 75, 61
1, 80190, Control_c, 0, 64, 75
1, 80190, Control_c, 0, 67, 33
1, 80205, Control_c, 0, 64, 79
1, 80205, Control_c, 0, 67, 31
1, 80206, Note_off_c, 0, 82, 64
1, 80219, Control_c, 0, 64, 83
1, 80219, Control_c, 0, 67, 30
1, 80234, Control_c, 0, 64, 85
1, 80234, Control_c, 0, 67, 27
1, 80239, Note_on_c, 0, 76, 79
1, 80249, Control_c, 0, 64, 87
1, 80249, Control_c, 0, 67, 24
1, 80264, Control_c, 0, 64, 89
1, 80264, Control_c, 0, 67, 22
1, 80279, Control_c, 0, 64, 91
1, 80279, Control_c, 0, 67, 22
1, 80293, Control_c, 0, 64, 93
1, 80293, Control_c, 0, 67, 23
1, 80295, Note_off_c, 0, 76, 40
1, 80303, Note_on_c, 0, 77, 77
1, 80308, Control_c, 0, 64, 94
1, 80308, Control_c, 0, 67, 24
1, 80323, Control_c, 0, 64, 95
1, 80323, Control_c, 0, 67, 27
1, 80337, Control_c, 0, 64, 97
1, 80337, Control_c, 0, 67, 29
1, 80342, Note_off_c, 0, 77, 61
1, 80352, Control_c, 0, 64, 98
1, 80352, Control_c, 0, 67, 33
1, 80367, Control_c, 0, 67, 38
1, 80375, Note_on_c, 0, 78, 86
1, 80378, Note_on_c, 0, 66, 73
1, 80382, Control_c, 0, 67, 45
1, 80385, Note_on_c, 0, 58, 69
1, 80397, Control_c, 0, 64, 95
1, 80397, Control_c, 0, 67, 51
1, 80401, Note_off_c, 0, 66, 68
1, 80417, Note_off_c, 0, 58, 68
1, 80419, Poly_aftertouch_c, 0, 63, 127
1, 80419, Control_c, 0, 64, 89
1, 80419, Control_c, 0, 67, 54
1, 80434, Control_c, 0, 64, 81
1, 80434, Control_c, 0, 67, 54
1, 80449, Control_c, 0, 64, 69
1, 80449, Control_c, 0, 67, 55
1, 80450, Note_off_c, 0, 78, 56
1, 80456, Note_on_c, 0, 77, 84
1, 80463, Control_c, 0, 64, 44
1, 80467, Poly_aftertouch_c, 0, 63, 0
1, 80478, Control_c, 0, 64, 0
1, 80493, Control_c, 0, 67, 54
1, 80495, Note_off_c, 0, 77, 64
1, 80508, Control_c, 0, 67, 54
1, 80523, Control_c, 0, 67, 53
1, 80524, Note_on_c, 0, 76, 78
1, 80537, Control_c, 0, 67, 52
1, 80539, Note_on_c, 0, 41, 58
1, 80552, Control_c, 0, 67, 51
1, 80574, Note_off_c, 0, 76, 61
1, 80577, Note_on_c, 0, 43, 42
1, 80581, Note_on_c, 0, 46, 59
1, 80582, Control_c, 0, 67, 52
1, 80590, Note_off_c, 0, 41, 61
1, 80595, Note_on_c, 0, 80, 81
1, 80597, Control_c, 0, 67, 54
1, 80603, Note_on_c, 0, 75, 75
1, 80610, Note_on_c, 0, 56, 79
1, 80610, Note_off_c, 0, 46, 64
1, 80611, Note_off_c, 0, 43, 48
1, 80612, Control_c, 0, 64, 57
1, 80612, Control_c, 0, 67, 55
1, 80624, Note_off_c, 0, 75, 71
1, 80626, Control_c, 0, 64, 65
1, 80626, Control_c, 0, 67, 56
1, 80632, Note_off_c, 0, 56, 69
1, 80640, Note_off_c, 0, 80, 61
1, 80641, Control_c, 0, 64, 69
1, 80641, Control_c, 0, 67, 57
1, 80656, Control_c, 0, 64, 73
1, 80656, Control_c, 0, 67, 58
1, 80670, Control_c, 0, 64, 75
1, 80685, Note_on_c, 0, 74, 74
1, 80685, Control_c, 0, 64, 77
1, 80702, Control_c, 0, 64, 78
1, 80716, Control_c, 0, 64, 79
1, 80731, Control_c, 0, 64, 80
1, 80733, Note_off_c, 0, 74, 59
1, 80738, Note_on_c, 0, 73, 79
1, 80746, Control_c, 0, 67, 58
1, 80760, Control_c, 0, 67, 60
1, 80775, Control_c, 0, 67, 63
1, 80781, Note_off_c, 0, 73, 59
1, 80790, Control_c, 0, 67, 70
1, 80805, Control_c, 0, 64, 79
1, 80805, Control_c, 0, 67, 76
1, 80810, Note_on_c, 0, 65, 61
1, 80810, Note_on_c, 0, 82, 74
1, 80819, Note_on_c, 0, 56, 69
1, 80820, Control_c, 0, 64, 77
1, 80820, Control_c, 0, 67, 81
1, 80826, Note_on_c, 0, 72, 68
1, 80832, Note_off_c, 0, 65, 65
1, 80835, Control_c, 0, 64, 72
1, 80835, Control_c, 0, 67, 85
1, 80836, Note_on_c, 0, 63, 46
1, 80842, Note_off_c, 0, 56, 72
1, 80848, Note_off_c, 0, 82, 62
1, 80849, Control_c, 0, 64, 65
1, 80849, Control_c, 0, 67, 88
1, 80859, Note_off_c, 0, 72, 55
1, 80864, Note_off_c, 0, 63, 57
1, 80864, Control_c, 0, 64, 34
1, 80864, Control_c, 0, 67, 88
1, 80879, Control_c, 0, 64, 0
1, 80892, Note_on_c, 0, 73, 74
1, 80956, Note_off_c, 0, 73, 61
1, 80965, Note_on_c, 0, 72, 71
1, 80968, Control_c, 0, 67, 88
1, 80980, Note_on_c, 0, 46, 59
1, 80983, Control_c, 0, 67, 87
1, 80998, Control_c, 0, 67, 86
1, 80998, Note_off_c, 0, 72, 61
1, 81013, Control_c, 0, 67, 85
1, 81028, Note_on_c, 0, 82, 81
1, 81028, Control_c, 0, 67, 85
1, 81032, Note_on_c, 0, 71, 71
1, 81042, Note_on_c, 0, 50, 68
1, 81042, Control_c, 0, 67, 84
1, 81057, Control_c, 0, 64, 56
1, 81057, Control_c, 0, 67, 83
1, 81072, Control_c, 0, 64, 64
1, 81072, Control_c, 0, 67, 81
1, 81075, Note_off_c, 0, 71, 59
1, 81085, Note_off_c, 0, 46, 61
1, 81086, Control_c, 0, 64, 67
1, 81086, Control_c, 0, 67, 80
1, 81088, Note_off_c, 0, 82, 63
1, 81094, Note_on_c, 0, 51, 63
1, 81099, Note_on_c, 0, 72, 71
1, 81101, Control_c, 0, 64, 71
1, 81101, Control_c, 0, 67, 79
1, 81114, Note_off_c, 0, 50, 60
1, 81116, Control_c, 0, 64, 74
1, 81116, Control_c, 0, 67, 78
1, 81130, Note_off_c, 0, 72, 63
1, 81131, Control_c, 0, 64, 78
1, 81131, Control_c, 0, 67, 78
1, 81132, Note_off_c, 0, 51, 66
1, 81132, Note_on_c, 0, 52, 73
1, 81146, Control_c, 0, 64, 82
1, 81146, Control_c, 0, 67, 77
1, 81168, Control_c, 0, 64, 87
1, 81168, Control_c, 0, 67, 76
1, 81175, Note_on_c, 0, 71, 76
1, 81183, Control_c, 0, 64, 94
1, 81183, Control_c, 0, 67, 74
1, 81198, Control_c, 0, 64, 104
1, 81198, Control_c, 0, 67, 70
1, 81213, Control_c, 0, 64, 127
1, 81213, Control_c, 0, 67, 64
1, 81214, Note_off_c, 0, 52, 62
1, 81228, Note_on_c, 0, 53, 64
1, 81228, Control_c, 0, 67, 54
1, 81240, Note_on_c, 0, 70, 83
1, 81241, Note_off_c, 0, 71, 62
1, 81242, Control_c, 0, 67, 40
1, 81255, Note_on_c, 0, 54, 78
1, 81257, Control_c, 0, 67, 24
1, 81264, Note_off_c, 0, 53, 67
1, 81272, Control_c, 0, 67, 9
1, 81287, Control_c, 0, 67, 0
1, 81293, Poly_aftertouch_c, 0, 52, 127
1, 81294, Note_off_c, 0, 70, 64
1, 81316, Note_off_c, 0, 54, 63
1, 81320, Note_on_c, 0, 55, 84
1, 81322, Note_on_c, 0, 70, 61
1, 81322, Poly_aftertouch_c, 0, 52, 0
1, 81361, Note_off_c, 0, 55, 66
1, 81392, Note_on_c, 0, 41, 83
1, 81428, Note_on_c, 0, 50, 61
1, 81429, Note_on_c, 0, 46, 57
1, 81434, Control_c, 0, 64, 82
1, 81439, Note_off_c, 0, 70, 62
1, 81443, Note_off_c, 0, 41, 63
1, 81449, Control_c, 0, 64, 0
1, 81450, Note_on_c, 0, 82, 85
1, 81457, Note_off_c, 0, 50, 68
1, 81459, Note_off_c, 0, 46, 63
1, 81460, Note_on_c, 0, 56, 82
1, 81481, Note_off_c, 0, 56, 71
1, 81492, Note_off_c, 0, 82, 62
1, 81537, Note_on_c, 0, 71, 62
1, 81571, Note_off_c, 0, 71, 60
1, 81594, Note_on_c, 0, 72, 66
1, 81628, Note_off_c, 0, 72, 58
1, 81659, Note_on_c, 0, 73, 66
1, 81666, Note_on_c, 0, 56, 77
1, 81669, Note_on_c, 0, 65, 46
1, 81681, Note_off_c, 0, 73, 66
1, 81693, Note_off_c, 0, 56, 69
1, 81696, Note_off_c, 0, 65, 57
1, 81699, Note_on_c, 0, 59, 11
1, 81733, Note_on_c, 0, 74, 65
1, 81748, Note_off_c, 0, 59, 27
1, 81755, Note_off_c, 0, 74, 63
1, 81782, Note_on_c, 0, 83, 72
1, 81833, Note_off_c, 0, 83, 62
1, 81834, Note_on_c, 0, 46, 69
1, 81849, Note_on_c, 0, 82, 69
1, 81863, Note_on_c, 0, 74, 65
1, 81869, Note_on_c, 0, 59, 71
1, 81874, Note_on_c, 0, 56, 62
1, 81884, Note_off_c, 0, 46, 61
1, 81892, Note_off_c, 0, 74, 67
1, 81895, Control_c, 0, 64, 34
1, 81898, Note_off_c, 0, 59, 64
1, 81901, Note_off_c, 0, 56, 65
1, 81916, Control_c, 0, 64, 54
1, 81931, Note_on_c, 0, 75, 70
1, 81931, Note_off_c, 0, 82, 56
1, 81931, Control_c, 0, 64, 61
1, 81946, Control_c, 0, 64, 64
1, 81953, Note_off_c, 0, 75, 70
1, 81961, Control_c, 0, 64, 65
1, 81976, Control_c, 0, 64, 67
1, 81991, Control_c, 0, 64, 68
1, 81993, Note_on_c, 0, 76, 78
1, 82006, Control_c, 0, 64, 68
1, 82021, Control_c, 0, 64, 69
1, 82021, Note_off_c, 0, 76, 60
1, 82033, Note_on_c, 0, 59, 47
1, 82036, Control_c, 0, 64, 71
1, 82042, Note_on_c, 0, 62, 68
1, 82050, Control_c, 0, 64, 74
1, 82053, Note_on_c, 0, 56, 65
1, 82055, Note_on_c, 0, 77, 81
1, 82065, Control_c, 0, 64, 80
1, 82068, Note_off_c, 0, 59, 65
1, 82069, Note_off_c, 0, 62, 67
1, 82077, Note_off_c, 0, 77, 67
1, 82080, Control_c, 0, 64, 88
1, 82091, Note_off_c, 0, 56, 66
1, 82095, Control_c, 0, 64, 95
1, 82110, Control_c, 0, 64, 97
1, 82122, Note_on_c, 0, 76, 75
1, 82139, Control_c, 0, 64, 91
1, 82154, Control_c, 0, 64, 74
1, 82166, Note_off_c, 0, 76, 54
1, 82169, Control_c, 0, 64, 0
1, 82178, Note_on_c, 0, 77, 81
1, 82200, Note_on_c, 0, 39, 76
1, 82206, Note_off_c, 0, 77, 64
1, 82228, Control_c, 0, 64, 48
1, 82235, Note_on_c, 0, 46, 63
1, 82242, Control_c, 0, 64, 67
1, 82257, Note_off_c, 0, 39, 61
1, 82257, Control_c, 0, 64, 77
1, 82271, Note_off_c, 0, 46, 62
1, 82272, Control_c, 0, 64, 89
1, 82277, Note_on_c, 0, 78, 81
1, 82287, Control_c, 0, 64, 104
1, 82288, Note_on_c, 0, 54, 43
1, 82289, Note_off_c, 0, 54, 127
1, 82303, Control_c, 0, 64, 127
1, 82348, Note_off_c, 0, 78, 56
1, 82352, Note_on_c, 0, 87, 74
1, 82389, Note_on_c, 0, 54, 79
1, 82405, Note_off_c, 0, 87, 64
1, 82421, Note_on_c, 0, 86, 64
1, 82423, Note_on_c, 0, 58, 66
1, 82433, Note_on_c, 0, 88, 53
1, 82453, Note_off_c, 0, 88, 59
1, 82487, Note_on_c, 0, 85, 77
1, 82489, Note_off_c, 0, 86, 63
1, 82504, Note_on_c, 0, 82, 65
1, 82520, Note_on_c, 0, 66, 84
1, 82527, Note_on_c, 0, 61, 72
1, 82552, Note_off_c, 0, 85, 60
1, 82578, Note_off_c, 0, 82, 57
1, 82588, Note_on_c, 0, 84, 78
1, 82622, Note_off_c, 0, 61, 59
1, 82645, Note_off_c, 0, 66, 59
1, 82675, Note_on_c, 0, 83, 73
1, 82681, Note_off_c, 0, 84, 58
1, 82748, Note_on_c, 0, 82, 77
1, 82752, Note_on_c, 0, 65, 93
1, 82754, Note_on_c, 0, 60, 65
1, 82760, Note_off_c, 0, 83, 58
1, 82795, Note_on_c, 0, 61, 19
1, 82799, Note_off_c, 0, 82, 64
1, 82804, Note_off_c, 0, 65, 62
1, 82812, Note_on_c, 0, 81, 73
1, 82837, Note_off_c, 0, 61, 53
1, 82863, Note_off_c, 0, 54, 50
1, 82882, Note_on_c, 0, 80, 74
1, 82906, Note_off_c, 0, 81, 61
1, 82918, Note_off_c, 0, 60, 50
1, 82923, Note_off_c, 0, 58, 35
1, 82953, Note_on_c, 0, 78, 79
1, 82954, Note_on_c, 0, 59, 71
1, 82959, Note_on_c, 0, 64, 91
1, 82974, Note_off_c, 0, 80, 59
1, 82998, Note_on_c, 0, 75, 79
1, 82998, Note_off_c, 0, 59, 62
1, 83000, Note_off_c, 0, 64, 64
1, 83004, Note_off_c, 0, 78, 64
1, 83024, Note_off_c, 0, 75, 63
1, 83043, Note_on_c, 0, 70, 80
1, 83106, Note_off_c, 0, 70, 63
1, 83124, Control_c, 0, 64, 104
1, 83138, Note_on_c, 0, 82, 74
1, 83139, Control_c, 0, 64, 74
1, 83153, Control_c, 0, 64, 0
1, 83155, Note_on_c, 0, 51, 67
1, 83159, Note_on_c, 0, 77, 14
1, 83174, Note_on_c, 0, 58, 78
1, 83180, Note_off_c, 0, 82, 63
1, 83192, Note_on_c, 0, 86, 70
1, 83193, Note_off_c, 0, 77, 30
1, 83199, Control_c, 0, 64, 57
1, 83201, Note_on_c, 0, 85, 33
1, 83202, Note_off_c, 0, 85, 127
1, 83208, Note_off_c, 0, 51, 62
1, 83208, Note_off_c, 0, 86, 69
1, 83214, Control_c, 0, 64, 70
1, 83228, Control_c, 0, 64, 77
1, 83243, Control_c, 0, 64, 83
1, 83246, Note_off_c, 0, 58, 64
1, 83248, Note_on_c, 0, 63, 77
1, 83258, Control_c, 0, 64, 88
1, 83273, Control_c, 0, 64, 93
1, 83279, Note_off_c, 0, 63, 60
1, 83288, Control_c, 0, 64, 95
1, 83332, Control_c, 0, 64, 94
1, 83335, Note_on_c, 0, 66, 76
1, 83347, Control_c, 0, 64, 88
1, 83347, Control_c, 0, 67, 12
1, 83362, Control_c, 0, 64, 78
1, 83362, Control_c, 0, 67, 24
1, 83377, Control_c, 0, 64, 65
1, 83377, Control_c, 0, 67, 40
1, 83389, Note_on_c, 0, 87, 84
1, 83392, Control_c, 0, 64, 0
1, 83392, Control_c, 0, 67, 49
1, 83409, Note_on_c, 0, 70, 67
1, 83410, Note_off_c, 0, 70, 127
1, 83414, Control_c, 0, 67, 54
1, 83429, Control_c, 0, 67, 57
1, 83443, Control_c, 0, 67, 58
1, 83450, Note_off_c, 0, 66, 27
1, 83462, Note_on_c, 0, 75, 75
1, 83462, Note_off_c, 0, 87, 60
1, 83487, Control_c, 0, 67, 58
1, 83502, Control_c, 0, 67, 56
1, 83503, Note_off_c, 0, 75, 63
1, 83517, Control_c, 0, 67, 53
1, 83522, Note_on_c, 0, 78, 77
1, 83532, Control_c, 0, 67, 49
1, 83544, Note_off_c, 0, 78, 69
1, 83547, Control_c, 0, 67, 44
1, 83562, Control_c, 0, 67, 30
1, 83577, Control_c, 0, 67, 0
1, 83583, Note_on_c, 0, 87, 84
1, 83584, Note_on_c, 0, 49, 64
1, 83592, Control_c, 0, 64, 34
1, 83592, Note_on_c, 0, 79, 83
1, 83604, Note_on_c, 0, 51, 53
1, 83607, Control_c, 0, 64, 64
1, 83609, Note_off_c, 0, 49, 65
1, 83620, Note_on_c, 0, 56, 42
1, 83621, Control_c, 0, 64, 65
1, 83624, Note_on_c, 0, 58, 63
1, 83633, Note_off_c, 0, 79, 57
1, 83636, Note_off_c, 0, 51, 55
1, 83639, Note_off_c, 0, 87, 64
1, 83651, Control_c, 0, 64, 66
1, 83655, Note_off_c, 0, 56, 50
1, 83657, Note_on_c, 0, 80, 82
1, 83666, Control_c, 0, 64, 67
1, 83675, Note_off_c, 0, 58, 64
1, 83681, Control_c, 0, 64, 68
1, 83695, Control_c, 0, 64, 69
1, 83699, Note_off_c, 0, 80, 62
1, 83710, Control_c, 0, 64, 70
1, 83725, Control_c, 0, 64, 71
1, 83727, Note_on_c, 0, 81, 81
1, 83732, Note_on_c, 0, 67, 71
1, 83740, Control_c, 0, 64, 73
1, 83755, Control_c, 0, 64, 77
1, 83762, Note_on_c, 0, 83, 32
1, 83769, Control_c, 0, 64, 84
1, 83777, Note_off_c, 0, 81, 57
1, 83779, Note_off_c, 0, 67, 49
1, 83784, Control_c, 0, 64, 91
1, 83786, Note_on_c, 0, 70, 83
1, 83788, Note_on_c, 0, 87, 92
1, 83792, Note_on_c, 0, 82, 87
1, 83795, Note_off_c, 0, 83, 34
1, 83799, Control_c, 0, 64, 99
1, 83805, Note_off_c, 0, 70, 72
1, 83814, Control_c, 0, 64, 108
1, 83818, Note_off_c, 0, 82, 64
1, 83829, Control_c, 0, 64, 116
1, 83843, Control_c, 0, 64, 127
1, 83863, Note_on_c, 0, 83, 95
1, 83863, Note_off_c, 0, 87, 0
1, 83902, Poly_aftertouch_c, 0, 87, 127
1, 83907, Note_on_c, 0, 85, 83
1, 83911, Note_off_c, 0, 83, 67
1, 83948, Poly_aftertouch_c, 0, 87, 0
1, 83957, Note_on_c, 0, 47, 73
1, 83978, Control_c, 0, 64, 111
1, 83988, Note_on_c, 0, 83, 95
1, 83988, Note_on_c, 0, 87, 87
1, 83992, Control_c, 0, 64, 79
1, 83997, Note_off_c, 0, 85, 38
1, 84007, Control_c, 0, 64, 47
1, 84018, Note_off_c, 0, 47, 64
1, 84022, Control_c, 0, 64, 0
1, 84026, Note_on_c, 0, 56, 75
1, 84030, Note_off_c, 0, 83, 65
1, 84066, Control_c, 0, 67, 11
1, 84075, Note_off_c, 0, 56, 60
1, 84081, Control_c, 0, 67, 18
1, 84083, Note_on_c, 0, 82, 80
1, 84083, Note_on_c, 0, 85, 87
1, 84095, Note_off_c, 0, 87, 64
1, 84096, Control_c, 0, 67, 24
1, 84098, Note_on_c, 0, 63, 74
1, 84101, Note_off_c, 0, 82, 71
1, 84105, Note_off_c, 0, 85, 66
1, 84110, Control_c, 0, 67, 30
1, 84123, Note_off_c, 0, 63, 69
1, 84125, Control_c, 0, 67, 36
1, 84140, Control_c, 0, 67, 39
1, 84163, Control_c, 0, 67, 41
1, 84178, Control_c, 0, 67, 42
1, 84192, Control_c, 0, 67, 44
1, 84197, Note_on_c, 0, 65, 75
1, 84199, Note_on_c, 0, 83, 78
1, 84203, Note_on_c, 0, 80, 67
1, 84207, Control_c, 0, 67, 46
1, 84222, Control_c, 0, 67, 49
1, 84223, Note_off_c, 0, 65, 68
1, 84225, Note_off_c, 0, 80, 66
1, 84225, Note_off_c, 0, 83, 65
1, 84237, Control_c, 0, 67, 50
1, 84252, Control_c, 0, 67, 52
1, 84266, Control_c, 0, 67, 52
1, 84273, Note_on_c, 0, 66, 64
1, 84300, Note_off_c, 0, 66, 66
1, 84301, Note_on_c, 0, 82, 81
1, 84307, Note_on_c, 0, 75, 70
1, 84320, Note_off_c, 0, 82, 70
1, 84328, Note_on_c, 0, 67, 58
1, 84331, Note_off_c, 0, 75, 67
1, 84340, Control_c, 0, 67, 53
1, 84355, Control_c, 0, 67, 55
1, 84370, Note_off_c, 0, 67, 54
1, 84370, Control_c, 0, 67, 58
1, 84385, Control_c, 0, 67, 61
1, 84399, Control_c, 0, 67, 62
1, 84402, Note_on_c, 0, 80, 83
1, 84403, Note_on_c, 0, 68, 69
1, 84408, Note_on_c, 0, 71, 74
1, 84414, Control_c, 0, 64, 24
1, 84414, Control_c, 0, 67, 63
1, 84429, Control_c, 0, 64, 23
1, 84435, Note_off_c, 0, 71, 60
1, 84444, Control_c, 0, 64, 30
1, 84444, Control_c, 0, 67, 64
1, 84459, Control_c, 0, 64, 42
1, 84467, Note_off_c, 0, 80, 0
1, 84474, Control_c, 0, 64, 50
1, 84474, Control_c, 0, 67, 64
1, 84485, Note_on_c, 0, 73, 74
1, 84489, Control_c, 0, 64, 56
1, 84489, Control_c, 0, 67, 65
1, 84503, Control_c, 0, 64, 60
1, 84503, Control_c, 0, 67, 66
1, 84507, Note_off_c, 0, 73, 69
1, 84510, Poly_aftertouch_c, 0, 80, 0
1, 84518, Control_c, 0, 64, 62
1, 84518, Control_c, 0, 67, 68
1, 84533, Control_c, 0, 64, 63
1, 84533, Control_c, 0, 67, 70
1, 84547, Note_on_c, 0, 74, 83
1, 84548, Control_c, 0, 64, 64
1, 84548, Control_c, 0, 67, 73
1, 84563, Control_c, 0, 67, 76
1, 84578, Control_c, 0, 67, 79
1, 84582, Note_off_c, 0, 68, 64
1, 84592, Control_c, 0, 67, 81
1, 84604, Note_off_c, 0, 74, 54
1, 84607, Control_c, 0, 67, 83
1, 84608, Note_on_c, 0, 71, 77
1, 84612, Note_on_c, 0, 83, 77
1, 84618, Note_on_c, 0, 75, 72
1, 84622, Control_c, 0, 67, 83
1, 84629, Note_off_c, 0, 71, 66
1, 84636, Control_c, 0, 67, 84
1, 84638, Note_off_c, 0, 75, 70
1, 84651, Control_c, 0, 64, 63
1, 84666, Control_c, 0, 64, 62
1, 84670, Note_off_c, 0, 83, 58
1, 84682, Control_c, 0, 64, 57
1, 84683, Note_on_c, 0, 76, 81
1, 84697, Control_c, 0, 64, 28
1, 84712, Control_c, 0, 64, 0
1, 84739, Note_off_c, 0, 76, 60
1, 84741, Control_c, 0, 67, 83
1, 84743, Note_on_c, 0, 77, 76
1, 84756, Control_c, 0, 67, 80
1, 84771, Control_c, 0, 67, 73
1, 84786, Control_c, 0, 64, 23
1, 84786, Control_c, 0, 67, 68
1, 84787, Note_on_c, 0, 46, 63
1, 84801, Control_c, 0, 64, 58
1, 84801, Control_c, 0, 67, 56
1, 84804, Note_off_c, 0, 77, 55
1, 84808, Note_on_c, 0, 80, 77
1, 84809, Note_on_c, 0, 82, 82
1, 84815, Control_c, 0, 64, 65
1, 84815, Control_c, 0, 67, 34
1, 84830, Control_c, 0, 64, 69
1, 84830, Control_c, 0, 67, 8
1, 84845, Control_c, 0, 64, 72
1, 84845, Control_c, 0, 67, 0
1, 84855, Note_on_c, 0, 56, 71
1, 84860, Control_c, 0, 64, 75
1, 84865, Note_off_c, 0, 46, 62
1, 84871, Note_off_c, 0, 82, 59
1, 84874, Control_c, 0, 64, 78
1, 84889, Note_off_c, 0, 56, 64
1, 84889, Control_c, 0, 64, 82
1, 84927, Control_c, 0, 64, 76
1, 84932, Note_on_c, 0, 62, 75
1, 84941, Control_c, 0, 64, 67
1, 84956, Control_c, 0, 64, 31
1, 84962, Note_off_c, 0, 62, 65
1, 84971, Control_c, 0, 64, 0
1, 84986, Control_c, 0, 64, 24
1, 85001, Control_c, 0, 64, 60
1, 85015, Control_c, 0, 64, 67
1, 85016, Note_on_c, 0, 65, 79
1, 85018, Note_on_c, 0, 82, 85
1, 85022, Note_on_c, 0, 56, 82
1, 85025, Note_off_c, 0, 80, 64
1, 85030, Control_c, 0, 64, 71
1, 85038, Note_off_c, 0, 65, 70
1, 85045, Control_c, 0, 64, 74
1, 85059, Control_c, 0, 64, 75
1, 85066, Note_off_c, 0, 82, 65
1, 85074, Control_c, 0, 64, 77
1, 85074, Control_c, 0, 67, 8
1, 85089, Control_c, 0, 64, 79
1, 85089, Control_c, 0, 67, 9
1, 85090, Note_on_c, 0, 68, 75
1, 85104, Control_c, 0, 64, 82
1, 85118, Note_off_c, 0, 68, 64
1, 85119, Control_c, 0, 64, 83
1, 85119, Control_c, 0, 67, 9
1, 85133, Control_c, 0, 64, 80
1, 85133, Control_c, 0, 67, 11
1, 85144, Note_on_c, 0, 69, 66
1, 85145, Note_on_c, 0, 58, 53
1, 85148, Control_c, 0, 64, 73
1, 85148, Control_c, 0, 67, 15
1, 85163, Note_off_c, 0, 69, 67
1, 85163, Control_c, 0, 64, 64
1, 85163, Control_c, 0, 67, 23
1, 85168, Note_off_c, 0, 56, 58
1, 85178, Control_c, 0, 64, 55
1, 85178, Control_c, 0, 67, 33
1, 85193, Control_c, 0, 64, 62
1, 85193, Control_c, 0, 67, 38
1, 85207, Control_c, 0, 64, 67
1, 85207, Control_c, 0, 67, 40
1, 85208, Note_on_c, 0, 63, 72
1, 85211, Note_on_c, 0, 66, 83
1, 85220, Note_off_c, 0, 58, 61
1, 85221, Note_on_c, 0, 60, 36
1, 85222, Note_on_c, 0, 82, 90
1, 85222, Control_c, 0, 64, 72
1, 85222, Control_c, 0, 67, 41
1, 85228, Note_on_c, 0, 70, 86
1, 85237, Control_c, 0, 64, 76
1, 85237, Control_c, 0, 67, 42
1, 85241, Note_off_c, 0, 63, 64
1, 85249, Note_off_c, 0, 66, 60
1, 85252, Control_c, 0, 64, 81
1, 85254, Note_off_c, 0, 60, 56
1, 85255, Note_off_c, 0, 70, 65
1, 85257, Note_off_c, 0, 82, 64
1, 85267, Control_c, 0, 64, 84
1, 85282, Control_c, 0, 64, 89
1, 85297, Control_c, 0, 64, 96
1, 85297, Control_c, 0, 67, 41
1, 85309, Note_on_c, 0, 72, 77
1, 85312, Control_c, 0, 64, 100
1, 85312, Control_c, 0, 67, 40
1, 85312, Note_on_c, 0, 60, 76
1, 85326, Control_c, 0, 64, 100
1, 85326, Control_c, 0, 67, 39
1, 85341, Control_c, 0, 64, 93
1, 85341, Control_c, 0, 67, 38
1, 85349, Note_off_c, 0, 72, 59
1, 85356, Control_c, 0, 64, 80
1, 85357, Note_on_c, 0, 73, 76
1, 85371, Control_c, 0, 64, 65
1, 85371, Control_c, 0, 67, 39
1, 85381, Note_on_c, 0, 62, 42
1, 85384, Note_off_c, 0, 73, 67
1, 85386, Control_c, 0, 64, 0
1, 85386, Control_c, 0, 67, 40
1, 85390, Note_off_c, 0, 60, 65
1, 85401, Control_c, 0, 67, 41
1, 85404, Note_on_c, 0, 65, 65
1, 85410, Note_off_c, 0, 62, 55
1, 85415, Control_c, 0, 67, 42
1, 85423, Note_on_c, 0, 68, 92
1, 85430, Note_on_c, 0, 74, 87
1, 85430, Control_c, 0, 67, 43
1, 85431, Note_on_c, 0, 82, 88
1, 85435, Note_off_c, 0, 65, 59
1, 85445, Control_c, 0, 67, 43
1, 85459, Control_c, 0, 67, 44
1, 85464, Note_off_c, 0, 74, 63
1, 85474, Control_c, 0, 64, 63
1, 85474, Control_c, 0, 67, 43
1, 85480, Note_off_c, 0, 68, 55
1, 85490, Control_c, 0, 64, 75
1, 85490, Control_c, 0, 67, 42
1, 85493, Note_on_c, 0, 61, 73
1, 85499, Note_on_c, 0, 75, 80
1, 85505, Control_c, 0, 64, 86
1, 85505, Control_c, 0, 67, 41
1, 85520, Control_c, 0, 64, 100
1, 85520, Control_c, 0, 67, 40
1, 85521, Note_off_c, 0, 82, 61
1, 85523, Note_on_c, 0, 63, 78
1, 85526, Note_off_c, 0, 75, 61
1, 85535, Control_c, 0, 64, 112
1, 85535, Control_c, 0, 67, 40
1, 85538, Note_on_c, 0, 60, 30
1, 85550, Control_c, 0, 64, 127
1, 85550, Control_c, 0, 67, 39
1, 85565, Note_on_c, 0, 77, 82
1, 85575, Note_off_c, 0, 60, 53
1, 85594, Control_c, 0, 67, 41
1, 85597, Note_on_c, 0, 66, 81
1, 85609, Control_c, 0, 67, 44
1, 85619, Note_off_c, 0, 61, 59
1, 85624, Control_c, 0, 64, 87
1, 85624, Control_c, 0, 67, 49
1, 85627, Note_off_c, 0, 63, 59
1, 85628, Note_off_c, 0, 77, 58
1, 85638, Control_c, 0, 64, 65
1, 85638, Control_c, 0, 67, 65
1, 85639, Note_on_c, 0, 82, 88
1, 85647, Note_on_c, 0, 78, 77
1, 85647, Note_off_c, 0, 66, 63
1, 85657, Note_on_c, 0, 70, 90
1, 85660, Control_c, 0, 64, 0
1, 85660, Control_c, 0, 67, 87
1, 85675, Control_c, 0, 67, 105
1, 85685, Note_off_c, 0, 70, 66
1, 85690, Control_c, 0, 67, 122
1, 85705, Control_c, 0, 67, 127
1, 85795, Note_on_c, 0, 75, 93
1, 85815, Note_off_c, 0, 78, 60
1, 85827, Note_off_c, 0, 75, 64
1, 85871, Note_on_c, 0, 80, 70
1, 85887, Note_off_c, 0, 82, 55
1, 85920, Note_on_c, 0, 74, 75
1, 85943, Note_off_c, 0, 74, 69
1, 86018, Note_on_c, 0, 73, 84
1, 86039, Note_off_c, 0, 73, 69
1, 86045, Note_on_c, 0, 78, 64
1, 86090, Note_off_c, 0, 80, 51
1, 86130, Note_off_c, 0, 78, 62
1, 86134, Control_c, 0, 64, 24
1, 86136, Note_on_c, 0, 72, 57
1, 86149, Control_c, 0, 64, 39
1, 86164, Control_c, 0, 64, 51
1, 86167, Note_off_c, 0, 72, 63
1, 86170, Note_on_c, 0, 77, 61
1, 86179, Control_c, 0, 64, 59
1, 86194, Control_c, 0, 64, 62
1, 86208, Control_c, 0, 64, 63
1, 86213, Note_on_c, 0, 71, 70
1, 86223, Control_c, 0, 64, 61
1, 86236, Note_off_c, 0, 71, 70
1, 86238, Control_c, 0, 64, 57
1, 86253, Control_c, 0, 64, 47
1, 86256, Note_off_c, 0, 77, 44
1, 86268, Control_c, 0, 64, 23
1, 86283, Control_c, 0, 64, 0
1, 86336, Note_on_c, 0, 75, 64
1, 86343, Control_c, 0, 64, 21
1, 86345, Note_on_c, 0, 60, 49
1, 86358, Control_c, 0, 64, 49
1, 86363, Note_on_c, 0, 70, 52
1, 86373, Control_c, 0, 64, 60
1, 86387, Control_c, 0, 64, 64
1, 86408, Note_off_c, 0, 70, 61
1, 86409, Control_c, 0, 64, 66
1, 86424, Control_c, 0, 64, 67
1, 86439, Control_c, 0, 64, 69
1, 86454, Control_c, 0, 64, 70
1, 86468, Control_c, 0, 64, 71
1, 86483, Control_c, 0, 64, 71
1, 86493, Note_off_c, 0, 60, 38
1, 86496, Note_on_c, 0, 66, 51
1, 86525, Note_on_c, 0, 70, 62
1, 86528, Control_c, 0, 64, 72
1, 86561, Note_off_c, 0, 66, 61
1, 86581, Note_on_c, 0, 63, 66
1, 86585, Note_off_c, 0, 75, 44
1, 86608, Note_off_c, 0, 63, 67
1, 86632, Control_c, 0, 64, 71
1, 86647, Control_c, 0, 64, 70
1, 86661, Control_c, 0, 64, 66
1, 86676, Control_c, 0, 64, 61
1, 86691, Control_c, 0, 64, 0
1, 86705, Note_off_c, 0, 70, 61
1, 86713, Note_on_c, 0, 75, 55
1, 86723, Note_on_c, 0, 69, 59
1, 86726, Note_on_c, 0, 59, 64
1, 86753, Note_off_c, 0, 59, 65
1, 86753, Note_off_c, 0, 69, 66
1, 86896, Note_on_c, 0, 58, 57
1, 86937, Note_off_c, 0, 75, 61
1, 86948, Note_off_c, 0, 58, 50
1, 86957, Note_on_c, 0, 78, 56
1, 86960, Note_on_c, 0, 68, 56
1, 86993, Note_off_c, 0, 68, 65
1, 87036, Note_on_c, 0, 46, 51
1, 87064, Note_off_c, 0, 46, 61
1, 87124, Note_on_c, 0, 66, 51
1, 87160, Note_off_c, 0, 66, 64
1, 87247, Control_c, 0, 64, 53
1, 87261, Note_on_c, 0, 82, 66
1, 87261, Control_c, 0, 64, 63
1, 87267, Note_off_c, 0, 78, 57
1, 87272, Note_on_c, 0, 39, 57
1, 87276, Control_c, 0, 64, 66
1, 87291, Control_c, 0, 64, 69
1, 87306, Control_c, 0, 64, 70
1, 87321, Control_c, 0, 64, 71
1, 87336, Control_c, 0, 64, 72
1, 87336, Note_off_c, 0, 39, 51
1, 87342, Note_off_c, 0, 82, 59
1, 87359, Note_on_c, 0, 46, 58
1, 87390, Note_off_c, 0, 46, 62
1, 87417, Note_on_c, 0, 68, 62
1, 87425, Control_c, 0, 64, 72
1, 87440, Control_c, 0, 64, 71
1, 87446, Note_off_c, 0, 68, 66
1, 87447, Note_on_c, 0, 53, 58
1, 87454, Control_c, 0, 64, 68
1, 87469, Control_c, 0, 64, 66
1, 87484, Control_c, 0, 64, 64
1, 87499, Note_off_c, 0, 53, 64
1, 87499, Control_c, 0, 64, 64
1, 87514, Control_c, 0, 64, 63
1, 87528, Control_c, 0, 64, 62
1, 87532, Note_on_c, 0, 54, 60
1, 87538, Note_on_c, 0, 82, 69
1, 87541, Note_on_c, 0, 70, 69
1, 87543, Control_c, 0, 64, 58
1, 87558, Control_c, 0, 64, 50
1, 87562, Note_off_c, 0, 82, 67
1, 87566, Note_off_c, 0, 70, 69
1, 87571, Note_off_c, 0, 54, 64
1, 87573, Control_c, 0, 64, 40
1, 87588, Control_c, 0, 64, 33
1, 87602, Control_c, 0, 64, 19
1, 87612, Note_on_c, 0, 56, 68
1, 87617, Control_c, 0, 64, 0
1, 87649, Note_off_c, 0, 56, 61
1, 87656, Note_on_c, 0, 83, 73
1, 87666, Note_on_c, 0, 71, 59
1, 87678, Note_off_c, 0, 83, 70
1, 87686, Note_off_c, 0, 71, 65
1, 87690, Note_on_c, 0, 57, 59
1, 87727, Note_off_c, 0, 57, 63
1, 87766, Note_on_c, 0, 58, 71
1, 87775, Note_on_c, 0, 70, 70
1, 87777, Note_on_c, 0, 54, 60
1, 87777, Note_on_c, 0, 72, 69
1, 87782, Note_on_c, 0, 80, 61
1, 87792, Note_off_c, 0, 70, 69
1, 87800, Note_off_c, 0, 80, 41
1, 87803, Note_off_c, 0, 58, 61
1, 87815, Note_off_c, 0, 54, 62
1, 87822, Note_off_c, 0, 72, 42
1, 87856, Note_on_c, 0, 53, 73
1, 87894, Note_on_c, 0, 75, 68
1, 87918, Note_off_c, 0, 53, 62
1, 87943, Note_on_c, 0, 52, 72
1, 87952, Note_off_c, 0, 75, 59
1, 87967, Note_off_c, 0, 52, 65
1, 88003, Note_on_c, 0, 74, 66
1, 88006, Note_on_c, 0, 66, 75
1, 88009, Note_on_c, 0, 78, 73
1, 88029, Note_off_c, 0, 74, 69
1, 88032, Note_off_c, 0, 66, 65
1, 88037, Note_on_c, 0, 51, 63
1, 88053, Note_off_c, 0, 78, 56
1, 88090, Note_off_c, 0, 51, 49
1, 88110, Note_on_c, 0, 46, 66
1, 88114, Note_on_c, 0, 73, 71
1, 88148, Note_off_c, 0, 73, 60
1, 88162, Note_off_c, 0, 46, 54
1, 88224, Note_on_c, 0, 41, 69
1, 88233, Note_on_c, 0, 80, 71
1, 88239, Note_on_c, 0, 68, 71
1, 88245, Note_on_c, 0, 72, 61
1, 88263, Note_off_c, 0, 80, 59
1, 88266, Note_off_c, 0, 68, 65
1, 88272, Note_off_c, 0, 72, 67
1, 88303, Note_on_c, 0, 46, 68
1, 88303, Note_off_c, 0, 41, 58
1, 88343, Note_on_c, 0, 73, 67
1, 88359, Note_off_c, 0, 73, 67
1, 88374, Note_off_c, 0, 46, 58
1, 88387, Note_on_c, 0, 50, 62
1, 88428, Note_off_c, 0, 50, 67
1, 88446, Note_on_c, 0, 70, 75
1, 88447, Note_on_c, 0, 82, 77
1, 88465, Note_on_c, 0, 74, 62
1, 88471, Note_on_c, 0, 56, 72
1, 88473, Note_off_c, 0, 82, 61
1, 88482, Note_off_c, 0, 70, 54
1, 88484, Control_c, 0, 64, 34
1, 88494, Note_off_c, 0, 74, 68
1, 88499, Control_c, 0, 64, 51
1, 88514, Control_c, 0, 64, 59
1, 88525, Note_off_c, 0, 56, 64
1, 88529, Control_c, 0, 64, 63
1, 88544, Control_c, 0, 64, 64
1, 88549, Note_on_c, 0, 57, 55
1, 88555, Note_on_c, 0, 75, 64
1, 88558, Control_c, 0, 64, 63
1, 88573, Control_c, 0, 64, 62
1, 88582, Note_off_c, 0, 75, 68
1, 88588, Note_off_c, 0, 57, 64
1, 88588, Control_c, 0, 64, 56
1, 88594, Note_on_c, 0, 58, 67
1, 88602, Control_c, 0, 64, 39
1, 88617, Control_c, 0, 64, 0
1, 88657, Note_on_c, 0, 82, 75
1, 88664, Note_on_c, 0, 70, 75
1, 88668, Note_off_c, 0, 58, 61
1, 88683, Note_on_c, 0, 61, 78
1, 88698, Note_on_c, 0, 76, 49
1, 88700, Note_off_c, 0, 70, 58
1, 88700, Control_c, 0, 64, 48
1, 88706, Note_off_c, 0, 82, 55
1, 88715, Control_c, 0, 64, 61
1, 88724, Note_off_c, 0, 61, 56
1, 88730, Control_c, 0, 64, 64
1, 88730, Control_c, 0, 67, 126
1, 88745, Control_c, 0, 64, 64
1, 88745, Control_c, 0, 67, 119
1, 88754, Note_on_c, 0, 62, 70
1, 88760, Control_c, 0, 67, 113
1, 88772, Note_off_c, 0, 76, 61
1, 88774, Control_c, 0, 67, 109
1, 88785, Note_on_c, 0, 77, 62
1, 88789, Control_c, 0, 64, 65
1, 88789, Control_c, 0, 67, 104
1, 88797, Note_off_c, 0, 62, 61
1, 88804, Control_c, 0, 67, 94
1, 88815, Note_off_c, 0, 77, 65
1, 88819, Control_c, 0, 64, 65
1, 88819, Control_c, 0, 67, 80
1, 88834, Control_c, 0, 67, 65
1, 88842, Note_on_c, 0, 64, 81
1, 88848, Control_c, 0, 64, 66
1, 88848, Control_c, 0, 67, 54
1, 88863, Control_c, 0, 64, 67
1, 88863, Control_c, 0, 67, 48
1, 88868, Note_off_c, 0, 64, 69
1, 88878, Control_c, 0, 64, 68
1, 88878, Control_c, 0, 67, 47
1, 88886, Note_on_c, 0, 68, 78
1, 88893, Control_c, 0, 64, 70
1, 88904, Note_on_c, 0, 65, 73
1, 88907, Control_c, 0, 64, 73
1, 88918, Note_off_c, 0, 68, 62
1, 88922, Control_c, 0, 64, 76
1, 88927, Note_off_c, 0, 65, 69
1, 88937, Control_c, 0, 64, 81
1, 88952, Control_c, 0, 64, 87
1, 88953, Note_on_c, 0, 70, 73
1, 88967, Control_c, 0, 64, 94
1, 88975, Note_off_c, 0, 70, 71
1, 88981, Control_c, 0, 67, 46
1, 88996, Control_c, 0, 64, 87
1, 88996, Control_c, 0, 67, 45
1, 89010, Note_on_c, 0, 71, 72
1, 89011, Control_c, 0, 64, 74
1, 89011, Control_c, 0, 67, 41
1, 89026, Control_c, 0, 64, 56
1, 89026, Control_c, 0, 67, 33
1, 89034, Note_off_c, 0, 71, 66
1, 89041, Control_c, 0, 64, 0
1, 89041, Control_c, 0, 67, 18
1, 89056, Control_c, 0, 67, 0
1, 89071, Control_c, 0, 64, 48
1, 89079, Note_on_c, 0, 46, 79
1, 89081, Note_on_c, 0, 82, 81
1, 89085, Control_c, 0, 64, 64
1, 89088, Note_on_c, 0, 72, 72
1, 89100, Control_c, 0, 64, 71
1, 89100, Note_on_c, 0, 73, 43
1, 89115, Note_off_c, 0, 82, 63
1, 89115, Control_c, 0, 64, 74
1, 89123, Note_off_c, 0, 73, 53
1, 89126, Note_off_c, 0, 72, 62
1, 89130, Control_c, 0, 64, 75
1, 89142, Note_off_c, 0, 46, 60
1, 89163, Note_on_c, 0, 54, 68
1, 89189, Control_c, 0, 64, 74
1, 89200, Note_on_c, 0, 73, 82
1, 89204, Control_c, 0, 64, 73
1, 89219, Control_c, 0, 64, 71
1, 89223, Note_off_c, 0, 54, 62
1, 89233, Control_c, 0, 64, 68
1, 89241, Note_off_c, 0, 73, 62
1, 89248, Note_on_c, 0, 58, 4
1, 89248, Control_c, 0, 64, 66
1, 89259, Note_on_c, 0, 57, 36
1, 89263, Control_c, 0, 64, 65
1, 89275, Note_off_c, 0, 58, 42
1, 89278, Control_c, 0, 64, 65
1, 89284, Note_on_c, 0, 59, 79
1, 89295, Note_off_c, 0, 57, 52
1, 89300, Note_on_c, 0, 70, 90
1, 89307, Note_on_c, 0, 82, 84
1, 89321, Note_off_c, 0, 59, 59
1, 89321, Note_on_c, 0, 74, 59
1, 89322, Control_c, 0, 64, 66
1, 89345, Note_off_c, 0, 82, 61
1, 89352, Note_off_c, 0, 70, 64
1, 89352, Control_c, 0, 64, 66
1, 89354, Note_off_c, 0, 74, 60
1, 89365, Note_on_c, 0, 60, 82
1, 89381, Control_c, 0, 64, 67
1, 89404, Control_c, 0, 64, 66
1, 89414, Note_on_c, 0, 83, 81
1, 89421, Note_on_c, 0, 71, 76
1, 89448, Control_c, 0, 64, 66
1, 89449, Note_off_c, 0, 83, 63
1, 89450, Note_on_c, 0, 74, 47
1, 89450, Note_off_c, 0, 71, 64
1, 89464, Note_off_c, 0, 60, 65
1, 89467, Note_on_c, 0, 61, 69
1, 89477, Note_off_c, 0, 74, 59
1, 89479, Control_c, 0, 64, 65
1, 89494, Control_c, 0, 64, 63
1, 89498, Note_off_c, 0, 61, 65
1, 89507, Note_on_c, 0, 62, 69
1, 89509, Control_c, 0, 64, 59
1, 89521, Note_on_c, 0, 65, 77
1, 89524, Control_c, 0, 64, 49
1, 89528, Note_on_c, 0, 70, 94
1, 89529, Note_on_c, 0, 82, 87
1, 89538, Control_c, 0, 64, 36
1, 89547, Note_off_c, 0, 82, 72
1, 89547, Note_off_c, 0, 65, 68
1, 89553, Control_c, 0, 64, 23
1, 89565, Note_on_c, 0, 80, 43
1, 89568, Control_c, 0, 64, 14
1, 89572, Note_off_c, 0, 70, 64
1, 89584, Note_off_c, 0, 62, 58
1, 89592, Note_off_c, 0, 80, 57
1, 89607, Note_on_c, 0, 61, 78
1, 89627, Control_c, 0, 64, 0
1, 89637, Note_off_c, 0, 61, 66
1, 89639, Note_on_c, 0, 73, 79
1, 89673, Note_off_c, 0, 73, 63
1, 89695, Note_on_c, 0, 59, 80
1, 89743, Note_on_c, 0, 77, 77
1, 89744, Note_on_c, 0, 72, 76
1, 89753, Note_on_c, 0, 65, 74
1, 89756, Note_off_c, 0, 59, 38
1, 89767, Note_on_c, 0, 58, 75
1, 89769, Note_off_c, 0, 72, 67
1, 89780, Note_off_c, 0, 65, 68
1, 89789, Note_off_c, 0, 77, 61
1, 89847, Note_on_c, 0, 57, 67
1, 89851, Note_off_c, 0, 58, 61
1, 89852, Note_on_c, 0, 71, 75
1, 89892, Note_off_c, 0, 57, 63
1, 89907, Note_on_c, 0, 56, 68
1, 89909, Note_off_c, 0, 71, 62
1, 89938, Note_off_c, 0, 56, 69
1, 89965, Note_on_c, 0, 70, 75
1, 89965, Note_on_c, 0, 78, 80
1, 89969, Note_on_c, 0, 66, 81
1, 89995, Note_on_c, 0, 54, 80
1, 90001, Note_off_c, 0, 70, 62
1, 90030, Note_off_c, 0, 78, 59
1, 90030, Note_off_c, 0, 66, 55
1, 90036, Note_off_c, 0, 54, 61
1, 90060, Note_on_c, 0, 71, 66
1, 90075, Note_on_c, 0, 46, 78
1, 90087, Note_off_c, 0, 71, 68
1, 90159, Note_on_c, 0, 51, 78
1, 90183, Note_on_c, 0, 82, 86
1, 90185, Note_on_c, 0, 73, 81
1, 90186, Note_off_c, 0, 46, 55
1, 90190, Note_on_c, 0, 70, 82
1, 90198, Note_off_c, 0, 51, 62
1, 90208, Note_off_c, 0, 73, 67
1, 90216, Note_on_c, 0, 72, 57
1, 90221, Note_off_c, 0, 82, 63
1, 90225, Note_off_c, 0, 70, 55
1, 90230, Note_on_c, 0, 53, 83
1, 90236, Note_off_c, 0, 72, 62
1, 90282, Note_off_c, 0, 53, 67
1, 90293, Note_on_c, 0, 73, 82
1, 90308, Note_on_c, 0, 54, 82
1, 90314, Note_off_c, 0, 73, 71
1, 90371, Note_on_c, 0, 56, 75
1, 90394, Note_off_c, 0, 54, 64
1, 90404, Note_on_c, 0, 70, 85
1, 90404, Note_on_c, 0, 82, 84
1, 90409, Note_on_c, 0, 74, 81
1, 90421, Control_c, 0, 64, 36
1, 90424, Note_on_c, 0, 58, 88
1, 90436, Control_c, 0, 64, 56
1, 90439, Note_off_c, 0, 56, 65
1, 90451, Control_c, 0, 64, 62
1, 90451, Note_off_c, 0, 70, 62
1, 90466, Control_c, 0, 64, 64
1, 90468, Note_off_c, 0, 82, 61
1, 90478, Note_off_c, 0, 74, 56
1, 90480, Control_c, 0, 64, 66
1, 90488, Note_off_c, 0, 58, 63
1, 90495, Control_c, 0, 64, 67
1, 90499, Note_on_c, 0, 60, 82
1, 90508, Note_on_c, 0, 75, 78
1, 90510, Control_c, 0, 64, 68
1, 90525, Control_c, 0, 64, 68
1, 90544, Note_off_c, 0, 60, 66
1, 90554, Control_c, 0, 64, 69
1, 90561, Note_off_c, 0, 75, 62
1, 90569, Control_c, 0, 64, 69
1, 90570, Note_on_c, 0, 62, 82
1, 90584, Control_c, 0, 64, 70
1, 90599, Control_c, 0, 64, 70
1, 90614, Control_c, 0, 64, 72
1, 90620, Note_on_c, 0, 76, 77
1, 90628, Control_c, 0, 64, 73
1, 90638, Note_on_c, 0, 63, 81
1, 90643, Control_c, 0, 64, 73
1, 90644, Note_off_c, 0, 62, 62
1, 90658, Control_c, 0, 64, 74
1, 90672, Control_c, 0, 64, 73
1, 90683, Note_off_c, 0, 76, 51
1, 90686, Control_c, 0, 64, 71
1, 90698, Note_off_c, 0, 63, 62
1, 90698, Note_on_c, 0, 77, 77
1, 90701, Control_c, 0, 64, 68
1, 90704, Note_on_c, 0, 64, 69
1, 90716, Control_c, 0, 64, 62
1, 90724, Note_off_c, 0, 77, 65
1, 90731, Control_c, 0, 64, 26
1, 90746, Control_c, 0, 64, 0
1, 90750, Note_off_c, 0, 64, 66
1, 90755, Note_on_c, 0, 65, 20
1, 90808, Note_off_c, 0, 65, 65
1, 90824, Note_on_c, 0, 87, 86
1, 90829, Note_on_c, 0, 66, 94
1, 90829, Note_on_c, 0, 78, 82
1, 90833, Note_on_c, 0, 75, 77
1, 90835, Control_c, 0, 64, 27
1, 90847, Note_off_c, 0, 66, 68
1, 90850, Control_c, 0, 64, 53
1, 90862, Note_off_c, 0, 75, 62
1, 90865, Control_c, 0, 64, 61
1, 90879, Control_c, 0, 64, 63
1, 90895, Note_off_c, 0, 87, 63
1, 90901, Note_off_c, 0, 78, 59
1, 90901, Control_c, 0, 64, 63
1, 90913, Note_on_c, 0, 82, 77
1, 90916, Control_c, 0, 64, 64
1, 90945, Control_c, 0, 64, 64
1, 90957, Note_on_c, 0, 63, 65
1, 90975, Control_c, 0, 64, 64
1, 90988, Note_off_c, 0, 63, 64
1, 90990, Control_c, 0, 64, 61
1, 91003, Note_on_c, 0, 78, 65
1, 91005, Control_c, 0, 64, 45
1, 91010, Note_off_c, 0, 82, 61
1, 91020, Control_c, 0, 64, 0
1, 91028, Note_off_c, 0, 78, 68
1, 91037, Note_on_c, 0, 51, 68
1, 91045, Note_on_c, 0, 58, 74
1, 91053, Note_on_c, 0, 70, 79
1, 91080, Note_off_c, 0, 51, 60
1, 91087, Note_off_c, 0, 70, 57
1, 91093, Note_off_c, 0, 58, 54
1, 91129, Note_on_c, 0, 78, 77
1, 91151, Note_on_c, 0, 63, 80
1, 91178, Note_off_c, 0, 63, 65
1, 91188, Note_off_c, 0, 78, 62
1, 91204, Note_on_c, 0, 82, 71
1, 91244, Control_c, 0, 64, 47
1, 91248, Note_on_c, 0, 67, 88
1, 91250, Note_on_c, 0, 87, 88
1, 91252, Note_on_c, 0, 75, 81
1, 91258, Control_c, 0, 64, 62
1, 91262, Note_off_c, 0, 82, 65
1, 91267, Note_off_c, 0, 67, 71
1, 91269, Note_on_c, 0, 79, 75
1, 91273, Control_c, 0, 64, 64
1, 91281, Note_on_c, 0, 65, 43
1, 91282, Note_off_c, 0, 65, 127
1, 91282, Note_off_c, 0, 75, 58
1, 91288, Control_c, 0, 64, 67
1, 91302, Control_c, 0, 64, 70
1, 91317, Control_c, 0, 64, 73
1, 91324, Note_off_c, 0, 87, 63
1, 91332, Control_c, 0, 64, 75
1, 91347, Control_c, 0, 64, 77
1, 91348, Note_off_c, 0, 79, 61
1, 91349, Note_on_c, 0, 82, 84
1, 91362, Control_c, 0, 64, 79
1, 91376, Control_c, 0, 64, 81
1, 91377, Note_on_c, 0, 63, 73
1, 91391, Control_c, 0, 64, 82
1, 91404, Note_off_c, 0, 63, 66
1, 91406, Control_c, 0, 64, 82
1, 91420, Control_c, 0, 64, 83
1, 91432, Note_off_c, 0, 82, 63
1, 91435, Control_c, 0, 64, 84
1, 91439, Note_on_c, 0, 79, 70
1, 91450, Control_c, 0, 64, 85
1, 91452, Note_on_c, 0, 49, 71
1, 91455, Note_on_c, 0, 58, 72
1, 91465, Control_c, 0, 64, 89
1, 91472, Note_on_c, 0, 70, 77
1, 91480, Control_c, 0, 64, 98
1, 91488, Note_off_c, 0, 79, 49
1, 91494, Note_off_c, 0, 70, 66
1, 91494, Control_c, 0, 64, 127
1, 91533, Note_on_c, 0, 79, 50
1, 91552, Note_off_c, 0, 49, 59
1, 91554, Note_on_c, 0, 82, 79
1, 91566, Note_off_c, 0, 58, 56
1, 91568, Control_c, 0, 64, 82
1, 91570, Note_on_c, 0, 63, 76
1, 91571, Poly_aftertouch_c, 0, 72, 127
1, 91581, Note_off_c, 0, 79, 60
1, 91583, Control_c, 0, 64, 61
1, 91594, Poly_aftertouch_c, 0, 72, 0
1, 91598, Control_c, 0, 64, 0
1, 91600, Note_off_c, 0, 63, 61
1, 91628, Control_c, 0, 64, 43
1, 91650, Control_c, 0, 64, 65
1, 91658, Note_on_c, 0, 80, 85
1, 91661, Note_on_c, 0, 75, 83
1, 91661, Note_off_c, 0, 82, 57
1, 91662, Note_on_c, 0, 48, 69
1, 91665, Note_on_c, 0, 87, 81
1, 91665, Control_c, 0, 64, 73
1, 91667, Note_on_c, 0, 56, 79
1, 91680, Control_c, 0, 64, 81
1, 91686, Note_off_c, 0, 87, 71
1, 91690, Note_off_c, 0, 48, 64
1, 91694, Control_c, 0, 64, 90
1, 91695, Note_off_c, 0, 75, 58
1, 91696, Note_off_c, 0, 80, 60
1, 91709, Control_c, 0, 64, 100
1, 91716, Note_off_c, 0, 56, 65
1, 91724, Control_c, 0, 64, 109
1, 91739, Control_c, 0, 64, 112
1, 91750, Note_on_c, 0, 86, 81
1, 91774, Note_on_c, 0, 63, 74
1, 91793, Note_off_c, 0, 63, 66
1, 91798, Control_c, 0, 64, 113
1, 91805, Note_off_c, 0, 86, 63
1, 91813, Control_c, 0, 64, 114
1, 91819, Note_on_c, 0, 85, 86
1, 91828, Control_c, 0, 64, 116
1, 91843, Control_c, 0, 64, 119
1, 91858, Control_c, 0, 64, 127
1, 91883, Note_on_c, 0, 68, 91
1, 91884, Note_on_c, 0, 84, 87
1, 91923, Note_off_c, 0, 84, 66
1, 91929, Note_off_c, 0, 85, 62
1, 91947, Note_off_c, 0, 68, 57
1, 91956, Note_on_c, 0, 83, 88
1, 91977, Control_c, 0, 64, 101
1, 91992, Control_c, 0, 64, 76
1, 92001, Note_off_c, 0, 83, 67
1, 92007, Control_c, 0, 64, 59
1, 92014, Note_on_c, 0, 63, 55
1, 92022, Control_c, 0, 64, 29
1, 92024, Note_on_c, 0, 82, 87
1, 92037, Control_c, 0, 64, 57
1, 92045, Note_off_c, 0, 63, 64
1, 92051, Control_c, 0, 64, 68
1, 92066, Control_c, 0, 64, 76
1, 92070, Note_off_c, 0, 82, 65
1, 92078, Note_on_c, 0, 69, 98
1, 92081, Control_c, 0, 64, 87
1, 92081, Note_on_c, 0, 81, 98
1, 92096, Control_c, 0, 64, 108
1, 92111, Control_c, 0, 64, 127
1, 92123, Note_off_c, 0, 81, 67
1, 92135, Note_off_c, 0, 69, 62
1, 92153, Note_on_c, 0, 80, 86
1, 92171, Note_on_c, 0, 63, 69
1, 92193, Note_off_c, 0, 80, 66
1, 92219, Note_on_c, 0, 79, 87
1, 92254, Note_off_c, 0, 79, 62
1, 92263, Note_off_c, 0, 63, 58
1, 92264, Note_on_c, 0, 59, 73
1, 92269, Note_on_c, 0, 53, 67
1, 92278, Note_on_c, 0, 83, 84
1, 92284, Note_on_c, 0, 78, 89
1, 92288, Note_off_c, 0, 59, 67
1, 92298, Note_off_c, 0, 53, 67
1, 92309, Note_off_c, 0, 78, 59
1, 92318, Note_off_c, 0, 83, 67
1, 92344, Note_on_c, 0, 77, 88
1, 92383, Note_off_c, 0, 77, 64
1, 92419, Note_on_c, 0, 75, 87
1, 92452, Note_on_c, 0, 46, 82
1, 92458, Note_off_c, 0, 75, 65
1, 92458, Control_c, 0, 64, 87
1, 92473, Control_c, 0, 64, 70
1, 92487, Note_on_c, 0, 70, 98
1, 92488, Control_c, 0, 64, 60
1, 92494, Note_on_c, 0, 82, 97
1, 92503, Control_c, 0, 64, 57
1, 92507, Note_on_c, 0, 53, 71
1, 92526, Note_off_c, 0, 70, 66
1, 92532, Control_c, 0, 64, 58
1, 92534, Note_off_c, 0, 82, 64
1, 92541, Note_off_c, 0, 46, 57
1, 92555, Note_on_c, 0, 56, 72
1, 92562, Control_c, 0, 64, 57
1, 92570, Note_off_c, 0, 53, 64
1, 92577, Control_c, 0, 64, 55
1, 92591, Control_c, 0, 64, 52
1, 92593, Note_on_c, 0, 71, 76
1, 92599, Note_on_c, 0, 81, 80
1, 92606, Control_c, 0, 64, 51
1, 92610, Note_off_c, 0, 56, 64
1, 92620, Note_on_c, 0, 59, 74
1, 92621, Control_c, 0, 64, 49
1, 92639, Note_off_c, 0, 71, 65
1, 92643, Note_off_c, 0, 81, 60
1, 92651, Control_c, 0, 64, 48
1, 92657, Note_off_c, 0, 59, 62
1, 92666, Control_c, 0, 64, 46
1, 92681, Control_c, 0, 64, 44
1, 92696, Control_c, 0, 64, 43
1, 92701, Note_on_c, 0, 82, 83
1, 92704, Note_on_c, 0, 60, 83
1, 92707, Note_on_c, 0, 72, 84
1, 92726, Control_c, 0, 64, 43
1, 92737, Note_off_c, 0, 72, 61
1, 92743, Note_off_c, 0, 82, 62
1, 92752, Note_off_c, 0, 60, 62
1, 92785, Control_c, 0, 64, 43
1, 92786, Note_on_c, 0, 61, 82
1, 92796, Note_on_c, 0, 80, 74
1, 92800, Control_c, 0, 64, 44
1, 92808, Note_on_c, 0, 73, 85
1, 92814, Note_off_c, 0, 61, 66
1, 92815, Control_c, 0, 64, 45
1, 92819, Note_off_c, 0, 80, 65
1, 92829, Control_c, 0, 64, 46
1, 92830, Note_off_c, 0, 73, 67
1, 92832, Note_on_c, 0, 81, 50
1, 92844, Control_c, 0, 64, 47
1, 92856, Note_off_c, 0, 81, 39
1, 92857, Note_on_c, 0, 62, 70
1, 92859, Control_c, 0, 64, 48
1, 92874, Control_c, 0, 64, 49
1, 92889, Control_c, 0, 64, 50
1, 92901, Note_off_c, 0, 62, 60
1, 92902, Note_on_c, 0, 82, 83
1, 92907, Note_on_c, 0, 74, 85
1, 92919, Control_c, 0, 64, 50
1, 92930, Note_on_c, 0, 63, 76
1, 92934, Control_c, 0, 64, 52
1, 92941, Note_off_c, 0, 74, 63
1, 92949, Control_c, 0, 64, 53
1, 92951, Note_off_c, 0, 82, 60
1, 92964, Control_c, 0, 64, 54
1, 92972, Note_off_c, 0, 63, 60
1, 92996, Note_on_c, 0, 83, 79
1, 93000, Note_on_c, 0, 75, 85
1, 93001, Note_on_c, 0, 65, 73
1, 93008, Control_c, 0, 64, 53
1, 93024, Note_off_c, 0, 75, 66
1, 93037, Note_off_c, 0, 83, 65
1, 93038, Control_c, 0, 64, 52
1, 93052, Note_off_c, 0, 65, 64
1, 93074, Note_on_c, 0, 66, 70
1, 93104, Note_on_c, 0, 76, 78
1, 93110, Note_on_c, 0, 85, 75
1, 93113, Note_off_c, 0, 66, 62
1, 93127, Control_c, 0, 64, 52
1, 93131, Note_off_c, 0, 76, 65
1, 93133, Note_off_c, 0, 85, 70
1, 93148, Control_c, 0, 64, 51
1, 93159, Note_on_c, 0, 68, 71
1, 93163, Control_c, 0, 64, 50
1, 93178, Control_c, 0, 64, 49
1, 93193, Control_c, 0, 64, 47
1, 93196, Note_off_c, 0, 68, 63
1, 93208, Note_on_c, 0, 86, 71
1, 93216, Note_on_c, 0, 77, 73
1, 93223, Control_c, 0, 64, 44
1, 93223, Note_on_c, 0, 69, 68
1, 93235, Note_off_c, 0, 86, 66
1, 93238, Control_c, 0, 64, 42
1, 93239, Note_off_c, 0, 77, 67
1, 93253, Control_c, 0, 64, 41
1, 93256, Note_off_c, 0, 69, 62
1, 93294, Note_on_c, 0, 70, 67
1, 93324, Note_off_c, 0, 70, 66
1, 93327, Control_c, 0, 64, 42
1, 93332, Note_on_c, 0, 78, 69
1, 93333, Note_on_c, 0, 87, 70
1, 93366, Note_on_c, 0, 72, 67
1, 93371, Control_c, 0, 64, 42
1, 93391, Note_off_c, 0, 72, 67
1, 93427, Note_on_c, 0, 74, 68
1, 93436, Note_off_c, 0, 78, 58
1, 93460, Control_c, 0, 64, 42
1, 93474, Note_off_c, 0, 74, 63
1, 93490, Control_c, 0, 64, 41
1, 93490, Control_c, 0, 67, 10
1, 93496, Note_on_c, 0, 75, 68
1, 93505, Control_c, 0, 67, 15
1, 93520, Control_c, 0, 67, 23
1, 93535, Control_c, 0, 67, 34
1, 93539, Note_off_c, 0, 75, 61
1, 93550, Control_c, 0, 67, 45
1, 93564, Control_c, 0, 64, 42
1, 93564, Control_c, 0, 67, 57
1, 93565, Note_on_c, 0, 76, 70
1, 93579, Control_c, 0, 64, 44
1, 93579, Control_c, 0, 67, 65
1, 93590, Note_off_c, 0, 76, 68
1, 93594, Control_c, 0, 64, 46
1, 93594, Control_c, 0, 67, 70
1, 93609, Control_c, 0, 64, 46
1, 93609, Control_c, 0, 67, 73
1, 93624, Control_c, 0, 67, 74
1, 93633, Note_on_c, 0, 77, 65
1, 93638, Control_c, 0, 67, 76
1, 93653, Control_c, 0, 67, 78
1, 93668, Control_c, 0, 67, 80
1, 93674, Note_off_c, 0, 77, 59
1, 93683, Control_c, 0, 64, 46
1, 93683, Control_c, 0, 67, 81
1, 93688, Note_on_c, 0, 78, 73
1, 93697, Control_c, 0, 64, 45
1, 93727, Control_c, 0, 67, 81
1, 93742, Note_off_c, 0, 78, 63
1, 93742, Control_c, 0, 67, 82
1, 93757, Control_c, 0, 67, 84
1, 93764, Note_on_c, 0, 80, 65
1, 93771, Control_c, 0, 64, 46
1, 93771, Control_c, 0, 67, 87
1, 93786, Control_c, 0, 64, 47
1, 93786, Control_c, 0, 67, 89
1, 93791, Note_off_c, 0, 80, 66
1, 93801, Control_c, 0, 64, 49
1, 93801, Control_c, 0, 67, 94
1, 93816, Control_c, 0, 64, 52
1, 93816, Control_c, 0, 67, 100
1, 93819, Note_on_c, 0, 81, 66
1, 93831, Control_c, 0, 64, 55
1, 93831, Control_c, 0, 67, 108
1, 93846, Control_c, 0, 64, 59
1, 93846, Control_c, 0, 67, 117
1, 93861, Control_c, 0, 64, 61
1, 93861, Control_c, 0, 67, 121
1, 93869, Note_off_c, 0, 81, 58
1, 93876, Control_c, 0, 64, 62
1, 93876, Control_c, 0, 67, 123
1, 93879, Note_on_c, 0, 82, 74
1, 93897, Control_c, 0, 64, 63
1, 93897, Control_c, 0, 67, 125
1, 93903, Note_off_c, 0, 82, 69
1, 93912, Control_c, 0, 64, 63
1, 93912, Control_c, 0, 67, 127
1, 93914, Note_off_c, 0, 87, 45
1, 93927, Control_c, 0, 64, 64
1, 93927, Control_c, 0, 67, 127
1, 93942, Control_c, 0, 64, 64
1, 93953, Note_on_c, 0, 84, 58
1, 93957, Control_c, 0, 64, 66
1, 93971, Control_c, 0, 64, 67
1, 93986, Control_c, 0, 64, 69
1, 93995, Note_off_c, 0, 84, 57
1, 94001, Control_c, 0, 64, 70
1, 94013, Note_on_c, 0, 86, 74
1, 94016, Control_c, 0, 64, 70
1, 94016, Control_c, 0, 67, 127
1, 94031, Control_c, 0, 64, 69
1, 94031, Control_c, 0, 67, 126
1, 94037, Note_off_c, 0, 86, 66
1, 94046, Control_c, 0, 64, 63
1, 94061, Control_c, 0, 64, 0
1, 94061, Control_c, 0, 67, 127
1, 94066, Note_on_c, 0, 87, 79
1, 94069, Note_on_c, 0, 63, 80
1, 94071, Note_on_c, 0, 91, 77
1, 94075, Control_c, 0, 67, 127
1, 94086, Note_off_c, 0, 87, 73
1, 94090, Note_off_c, 0, 63, 70
1, 94091, Note_off_c, 0, 91, 71
1, 94247, Note_on_c, 0, 86, 64
1, 94254, Note_on_c, 0, 89, 59
1, 94263, Note_off_c, 0, 86, 67
1, 94275, Note_off_c, 0, 89, 61
1, 94311, Note_on_c, 0, 69, 50
1, 94368, Note_on_c, 0, 84, 68
1, 94368, Note_off_c, 0, 69, 61
1, 94370, Note_on_c, 0, 70, 67
1, 94376, Note_on_c, 0, 87, 51
1, 94389, Note_off_c, 0, 84, 69
1, 94398, Note_off_c, 0, 87, 59
1, 94471, Note_on_c, 0, 86, 65
1, 94478, Note_on_c, 0, 82, 63
1, 94495, Note_off_c, 0, 82, 65
1, 94502, Note_off_c, 0, 86, 59
1, 94537, Note_off_c, 0, 70, 56
1, 94579, Note_on_c, 0, 58, 64
1, 94582, Note_on_c, 0, 84, 59
1, 94587, Note_on_c, 0, 80, 54
1, 94605, Note_off_c, 0, 58, 66
1, 94608, Note_off_c, 0, 80, 62
1, 94613, Note_off_c, 0, 84, 63
1, 94701, Note_on_c, 0, 82, 57
1, 94725, Note_off_c, 0, 82, 63
1, 94730, Note_on_c, 0, 79, 18
1, 94773, Note_off_c, 0, 79, 45
1, 94796, Note_on_c, 0, 80, 58
1, 94802, Note_on_c, 0, 70, 60
1, 94808, Note_on_c, 0, 77, 68
1, 94815, Note_off_c, 0, 80, 64
1, 94821, Note_off_c, 0, 70, 66
1, 94827, Note_off_c, 0, 77, 68
1, 94895, Note_on_c, 0, 79, 57
1, 94910, Note_on_c, 0, 75, 49
1, 94937, Note_off_c, 0, 75, 56
1, 94944, Note_off_c, 0, 79, 41
1, 94972, Control_c, 0, 64, 56
1, 94979, Note_on_c, 0, 63, 69
1, 94987, Control_c, 0, 64, 67
1, 95001, Control_c, 0, 64, 73
1, 95003, Note_off_c, 0, 63, 67
1, 95005, Note_on_c, 0, 78, 48
1, 95016, Control_c, 0, 64, 78
1, 95019, Note_on_c, 0, 74, 64
1, 95031, Control_c, 0, 64, 83
1, 95045, Control_c, 0, 64, 87
1, 95059, Note_off_c, 0, 74, 57
1, 95060, Control_c, 0, 64, 91
1, 95076, Control_c, 0, 64, 94
1, 95091, Control_c, 0, 64, 98
1, 95106, Control_c, 0, 64, 100
1, 95118, Note_on_c, 0, 79, 57
1, 95121, Control_c, 0, 64, 100
1, 95123, Note_off_c, 0, 78, 50
1, 95128, Note_on_c, 0, 75, 56
1, 95150, Control_c, 0, 64, 98
1, 95165, Control_c, 0, 64, 92
1, 95171, Note_on_c, 0, 93, 82
1, 95178, Note_off_c, 0, 75, 52
1, 95179, Control_c, 0, 64, 80
1, 95191, Note_off_c, 0, 93, 69
1, 95194, Control_c, 0, 64, 70
1, 95205, Note_on_c, 0, 94, 80
1, 95208, Note_on_c, 0, 74, 72
1, 95208, Control_c, 0, 64, 60
1, 95221, Note_off_c, 0, 94, 73
1, 95223, Note_off_c, 0, 79, 58
1, 95223, Control_c, 0, 64, 26
1, 95225, Note_on_c, 0, 78, 56
1, 95238, Control_c, 0, 64, 0
1, 95241, Note_off_c, 0, 74, 60
1, 95244, Note_off_c, 0, 78, 64
1, 95308, Note_on_c, 0, 75, 63
1, 95315, Note_on_c, 0, 79, 62
1, 95347, Note_off_c, 0, 79, 61
1, 95349, Note_off_c, 0, 75, 59
1, 95413, Note_on_c, 0, 58, 84
1, 95431, Note_on_c, 0, 78, 59
1, 95432, Note_on_c, 0, 74, 60
1, 95432, Note_off_c, 0, 58, 71
1, 95458, Note_off_c, 0, 78, 66
1, 95462, Note_off_c, 0, 74, 68
1, 95530, Note_on_c, 0, 79, 60
1, 95534, Note_on_c, 0, 75, 49
1, 95548, Note_off_c, 0, 79, 65
1, 95557, Note_off_c, 0, 75, 60
1, 95620, Note_on_c, 0, 70, 68
1, 95625, Note_on_c, 0, 80, 65
1, 95631, Note_on_c, 0, 77, 56
1, 95643, Note_off_c, 0, 80, 67
1, 95644, Note_off_c, 0, 70, 65
1, 95652, Note_off_c, 0, 77, 65
1, 95715, Note_on_c, 0, 82, 75
1, 95728, Note_on_c, 0, 79, 55
1, 95739, Note_off_c, 0, 82, 66
1, 95748, Note_off_c, 0, 79, 62
1, 95812, Note_on_c, 0, 63, 77
1, 95819, Note_on_c, 0, 84, 59
1, 95820, Note_on_c, 0, 80, 61
1, 95835, Note_off_c, 0, 63, 69
1, 95837, Note_off_c, 0, 80, 66
1, 95884, Control_c, 0, 64, 17
1, 95897, Note_off_c, 0, 84, 0
1, 95898, Control_c, 0, 64, 24
1, 95913, Control_c, 0, 64, 28
1, 95924, Note_on_c, 0, 79, 56
1, 95927, Note_on_c, 0, 82, 59
1, 95929, Control_c, 0, 64, 31
1, 95936, Poly_aftertouch_c, 0, 84, 127
1, 95944, Control_c, 0, 64, 32
1, 95952, Note_off_c, 0, 79, 56
1, 95959, Control_c, 0, 64, 29
1, 95968, Poly_aftertouch_c, 0, 84, 0
1, 95973, Control_c, 0, 64, 0
1, 95980, Note_on_c, 0, 69, 69
1, 96000, Note_on_c, 0, 80, 58
1, 96003, Note_on_c, 0, 77, 72
1, 96011, Note_on_c, 0, 70, 82
1, 96016, Note_off_c, 0, 82, 53
1, 96017, Control_c, 0, 67, 123
1, 96020, Note_off_c, 0, 80, 63
1, 96021, Note_off_c, 0, 69, 60
1, 96031, Note_off_c, 0, 77, 63
1, 96032, Control_c, 0, 67, 112
1, 96047, Control_c, 0, 67, 95
1, 96062, Control_c, 0, 67, 79
1, 96077, Control_c, 0, 67, 64
1, 96091, Control_c, 0, 67, 51
1, 96106, Control_c, 0, 67, 40
1, 96108, Note_on_c, 0, 75, 67
1, 96113, Note_on_c, 0, 79, 62
1, 96121, Control_c, 0, 67, 27
1, 96143, Note_off_c, 0, 75, 63
1, 96144, Control_c, 0, 67, 8
1, 96147, Note_off_c, 0, 79, 66
1, 96159, Control_c, 0, 67, 0
1, 96203, Note_off_c, 0, 70, 58
1, 96207, Note_on_c, 0, 80, 70
1, 96215, Note_on_c, 0, 58, 72
1, 96219, Note_on_c, 0, 77, 60
1, 96238, Note_off_c, 0, 58, 69
1, 96245, Note_off_c, 0, 80, 61
1, 96246, Note_off_c, 0, 77, 66
1, 96312, Note_on_c, 0, 79, 69
1, 96317, Note_on_c, 0, 75, 59
1, 96321, Control_c, 0, 67, 9
1, 96335, Note_off_c, 0, 79, 69
1, 96336, Control_c, 0, 67, 11
1, 96339, Note_off_c, 0, 75, 65
1, 96351, Control_c, 0, 67, 16
1, 96365, Control_c, 0, 67, 21
1, 96380, Control_c, 0, 67, 25
1, 96395, Control_c, 0, 67, 28
1, 96410, Control_c, 0, 67, 29
1, 96415, Note_on_c, 0, 77, 72
1, 96417, Note_on_c, 0, 74, 71
1, 96420, Note_on_c, 0, 70, 61
1, 96442, Note_off_c, 0, 77, 64
1, 96443, Note_off_c, 0, 74, 70
1, 96448, Note_off_c, 0, 70, 66
1, 96484, Control_c, 0, 67, 29
1, 96509, Note_on_c, 0, 75, 69
1, 96514, Note_on_c, 0, 72, 60
1, 96532, Note_off_c, 0, 72, 64
1, 96536, Note_off_c, 0, 75, 64
1, 96558, Control_c, 0, 67, 30
1, 96573, Control_c, 0, 67, 30
1, 96588, Control_c, 0, 64, 45
1, 96588, Control_c, 0, 67, 31
1, 96594, Note_on_c, 0, 65, 65
1, 96603, Control_c, 0, 64, 61
1, 96603, Control_c, 0, 67, 33
1, 96605, Note_on_c, 0, 70, 79
1, 96608, Note_on_c, 0, 74, 66
1, 96613, Note_off_c, 0, 65, 65
1, 96617, Control_c, 0, 64, 65
1, 96617, Control_c, 0, 67, 37
1, 96632, Control_c, 0, 64, 69
1, 96632, Control_c, 0, 67, 40
1, 96634, Note_off_c, 0, 74, 69
1, 96642, Note_off_c, 0, 70, 63
1, 96647, Control_c, 0, 64, 73
1, 96647, Control_c, 0, 67, 41
1, 96663, Control_c, 0, 64, 76
1, 96663, Control_c, 0, 67, 41
1, 96677, Control_c, 0, 64, 78
1, 96692, Control_c, 0, 64, 79
1, 96692, Control_c, 0, 67, 42
1, 96705, Note_on_c, 0, 75, 62
1, 96707, Control_c, 0, 64, 78
1, 96707, Control_c, 0, 67, 42
1, 96712, Note_on_c, 0, 72, 63
1, 96721, Control_c, 0, 64, 77
1, 96721, Control_c, 0, 67, 43
1, 96732, Note_off_c, 0, 75, 66
1, 96736, Control_c, 0, 64, 74
1, 96736, Control_c, 0, 67, 43
1, 96751, Control_c, 0, 64, 70
1, 96751, Control_c, 0, 67, 44
1, 96766, Control_c, 0, 64, 64
1, 96766, Control_c, 0, 67, 45
1, 96770, Note_on_c, 0, 93, 80
1, 96781, Control_c, 0, 64, 59
1, 96781, Control_c, 0, 67, 45
1, 96783, Note_on_c, 0, 77, 69
1, 96784, Note_off_c, 0, 72, 60
1, 96788, Note_off_c, 0, 93, 71
1, 96794, Note_on_c, 0, 94, 97
1, 96795, Control_c, 0, 64, 56
1, 96795, Control_c, 0, 67, 46
1, 96806, Note_on_c, 0, 74, 53
1, 96810, Control_c, 0, 64, 54
1, 96821, Note_off_c, 0, 94, 65
1, 96825, Control_c, 0, 64, 50
1, 96825, Control_c, 0, 67, 46
1, 96839, Control_c, 0, 64, 43
1, 96839, Control_c, 0, 67, 47
1, 96848, Note_off_c, 0, 74, 62
1, 96854, Control_c, 0, 64, 34
1, 96869, Control_c, 0, 64, 14
1, 96869, Control_c, 0, 67, 46
1, 96872, Note_on_c, 0, 79, 68
1, 96875, Note_on_c, 0, 75, 54
1, 96892, Control_c, 0, 64, 0
1, 96892, Control_c, 0, 67, 45
1, 96898, Note_off_c, 0, 77, 60
1, 96907, Control_c, 0, 67, 42
1, 96910, Note_off_c, 0, 75, 65
1, 96917, Note_off_c, 0, 79, 60
1, 96921, Control_c, 0, 67, 40
1, 96936, Control_c, 0, 67, 36
1, 96951, Control_c, 0, 67, 32
1, 96966, Control_c, 0, 67, 23
1, 96981, Control_c, 0, 67, 11
1, 96992, Note_on_c, 0, 58, 82
1, 96994, Note_on_c, 0, 80, 71
1, 96995, Control_c, 0, 67, 0
1, 97007, Note_on_c, 0, 77, 48
1, 97012, Note_off_c, 0, 58, 71
1, 97017, Note_off_c, 0, 80, 69
1, 97032, Note_off_c, 0, 77, 59
1, 97089, Note_on_c, 0, 82, 77
1, 97097, Note_on_c, 0, 79, 75
1, 97109, Note_off_c, 0, 82, 71
1, 97122, Note_off_c, 0, 79, 65
1, 97175, Note_on_c, 0, 84, 74
1, 97180, Note_on_c, 0, 70, 75
1, 97190, Note_on_c, 0, 80, 58
1, 97202, Note_off_c, 0, 70, 70
1, 97211, Note_off_c, 0, 80, 62
1, 97232, Control_c, 0, 64, 19
1, 97247, Control_c, 0, 64, 29
1, 97248, Note_on_c, 0, 82, 72
1, 97252, Note_on_c, 0, 86, 79
1, 97255, Note_off_c, 0, 84, 59
1, 97262, Control_c, 0, 64, 33
1, 97265, Note_off_c, 0, 82, 68
1, 97277, Note_off_c, 0, 86, 68
1, 97277, Control_c, 0, 64, 36
1, 97292, Control_c, 0, 64, 38
1, 97306, Control_c, 0, 64, 40
1, 97321, Control_c, 0, 64, 43
1, 97336, Control_c, 0, 64, 36
1, 97351, Control_c, 0, 64, 0
1, 97352, Note_on_c, 0, 88, 84
1, 97356, Note_on_c, 0, 65, 83
1, 97361, Note_on_c, 0, 85, 65
1, 97362, Note_on_c, 0, 86, 92
1, 97376, Note_off_c, 0, 65, 72
1, 97380, Note_off_c, 0, 85, 64
1, 97381, Note_off_c, 0, 88, 62
1, 97388, Note_on_c, 0, 89, 70
1, 97395, Note_off_c, 0, 86, 69
1, 97414, Note_off_c, 0, 89, 66
1, 97477, Note_on_c, 0, 84, 83
1, 97477, Note_on_c, 0, 87, 79
1, 97496, Note_off_c, 0, 87, 72
1, 97496, Note_off_c, 0, 84, 69
1, 97551, Note_on_c, 0, 68, 24
1, 97554, Note_on_c, 0, 69, 66
1, 97566, Note_on_c, 0, 70, 81
1, 97566, Note_on_c, 0, 86, 82
1, 97570, Note_on_c, 0, 82, 82
1, 97581, Note_off_c, 0, 69, 68
1, 97588, Note_off_c, 0, 82, 72
1, 97591, Note_off_c, 0, 68, 31
1, 97595, Note_off_c, 0, 86, 62
1, 97665, Note_on_c, 0, 80, 83
1, 97665, Note_on_c, 0, 84, 74
1, 97695, Note_off_c, 0, 80, 64
1, 97697, Note_off_c, 0, 84, 63
1, 97762, Note_on_c, 0, 82, 77
1, 97767, Note_on_c, 0, 79, 73
1, 97772, Note_on_c, 0, 58, 73
1, 97773, Note_off_c, 0, 70, 61
1, 97785, Note_off_c, 0, 82, 67
1, 97792, Note_off_c, 0, 79, 66
1, 97796, Note_off_c, 0, 58, 68
1, 97851, Note_on_c, 0, 80, 77
1, 97859, Note_on_c, 0, 77, 73
1, 97869, Note_off_c, 0, 80, 70
1, 97882, Note_off_c, 0, 77, 70
1, 97907, Control_c, 0, 67, 9
1, 97922, Control_c, 0, 67, 11
1, 97936, Control_c, 0, 67, 13
1, 97942, Note_on_c, 0, 79, 90
1, 97945, Note_on_c, 0, 75, 81
1, 97951, Control_c, 0, 67, 17
1, 97962, Note_on_c, 0, 70, 67
1, 97966, Control_c, 0, 67, 19
1, 97967, Note_off_c, 0, 75, 68
1, 97974, Note_off_c, 0, 79, 63
1, 97981, Control_c, 0, 67, 21
1, 97988, Note_off_c, 0, 70, 67
1, 97995, Control_c, 0, 67, 23
1, 98010, Control_c, 0, 67, 24
1, 98039, Note_on_c, 0, 77, 81
1, 98040, Control_c, 0, 67, 25
1, 98046, Note_on_c, 0, 74, 81
1, 98067, Note_off_c, 0, 77, 62
1, 98070, Control_c, 0, 67, 24
1, 98071, Note_off_c, 0, 74, 68
1, 98085, Control_c, 0, 67, 23
1, 98100, Control_c, 0, 67, 22
1, 98115, Control_c, 0, 67, 22
1, 98125, Note_on_c, 0, 65, 78
1, 98129, Control_c, 0, 67, 22
1, 98132, Note_on_c, 0, 76, 86
1, 98136, Note_on_c, 0, 73, 83
1, 98144, Control_c, 0, 67, 23
1, 98145, Note_off_c, 0, 65, 71
1, 98159, Control_c, 0, 64, 17
1, 98159, Control_c, 0, 67, 24
1, 98174, Control_c, 0, 64, 51
1, 98174, Control_c, 0, 67, 24
1, 98177, Note_off_c, 0, 73, 56
1, 98188, Control_c, 0, 64, 63
1, 98188, Control_c, 0, 67, 25
1, 98203, Control_c, 0, 64, 66
1, 98214, Note_off_c, 0, 76, 49
1, 98218, Control_c, 0, 64, 69
1, 98228, Note_on_c, 0, 77, 75
1, 98237, Note_on_c, 0, 74, 76
1, 98248, Control_c, 0, 64, 67
1, 98264, Control_c, 0, 64, 65
1, 98273, Note_off_c, 0, 74, 60
1, 98278, Control_c, 0, 64, 64
1, 98278, Control_c, 0, 67, 25
1, 98293, Control_c, 0, 64, 61
1, 98297, Note_on_c, 0, 94, 92
1, 98308, Control_c, 0, 64, 60
1, 98321, Note_on_c, 0, 76, 82
1, 98335, Note_on_c, 0, 73, 71
1, 98342, Note_off_c, 0, 77, 33
1, 98351, Note_off_c, 0, 94, 70
1, 98353, Control_c, 0, 64, 59
1, 98367, Control_c, 0, 64, 57
1, 98368, Note_off_c, 0, 73, 59
1, 98389, Control_c, 0, 64, 55
1, 98404, Control_c, 0, 64, 53
1, 98418, Note_on_c, 0, 74, 83
1, 98419, Control_c, 0, 64, 50
1, 98419, Control_c, 0, 67, 24
1, 98426, Note_on_c, 0, 77, 70
1, 98434, Control_c, 0, 64, 45
1, 98434, Control_c, 0, 67, 23
1, 98440, Note_off_c, 0, 76, 60
1, 98448, Control_c, 0, 64, 33
1, 98448, Control_c, 0, 67, 22
1, 98459, Note_off_c, 0, 74, 66
1, 98463, Control_c, 0, 64, 11
1, 98463, Control_c, 0, 67, 21
1, 98469, Note_off_c, 0, 77, 62
1, 98478, Control_c, 0, 64, 0
1, 98478, Control_c, 0, 67, 20
1, 98493, Control_c, 0, 67, 20
1, 98508, Control_c, 0, 67, 19
1, 98517, Note_on_c, 0, 76, 77
1, 98523, Control_c, 0, 67, 19
1, 98523, Note_on_c, 0, 73, 73
1, 98529, Note_on_c, 0, 58, 89
1, 98538, Control_c, 0, 67, 18
1, 98547, Note_off_c, 0, 58, 72
1, 98553, Note_off_c, 0, 73, 65
1, 98567, Control_c, 0, 67, 19
1, 98575, Note_off_c, 0, 76, 61
1, 98582, Control_c, 0, 67, 19
1, 98596, Note_on_c, 0, 77, 71
1, 98597, Control_c, 0, 67, 20
1, 98616, Note_on_c, 0, 74, 65
1, 98624, Note_off_c, 0, 77, 66
1, 98636, Note_off_c, 0, 74, 67
1, 98685, Control_c, 0, 67, 19
1, 98700, Control_c, 0, 67, 18
1, 98705, Note_on_c, 0, 70, 77
1, 98705, Note_on_c, 0, 76, 80
1, 98705, Note_on_c, 0, 79, 79
1, 98715, Control_c, 0, 67, 16
1, 98726, Note_off_c, 0, 79, 70
1, 98730, Note_off_c, 0, 70, 68
1, 98730, Control_c, 0, 67, 13
1, 98743, Note_off_c, 0, 76, 59
1, 98745, Control_c, 0, 67, 0
1, 98792, Note_on_c, 0, 80, 79
1, 98800, Note_on_c, 0, 77, 69
1, 98823, Note_off_c, 0, 77, 70
1, 98837, Note_off_c, 0, 80, 61
1, 98878, Control_c, 0, 64, 26
1, 98886, Note_on_c, 0, 62, 69
1, 98890, Note_on_c, 0, 82, 78
1, 98893, Note_on_c, 0, 79, 65
1, 98907, Control_c, 0, 64, 31
1, 98910, Note_off_c, 0, 62, 66
1, 98912, Note_off_c, 0, 79, 66
1, 98922, Control_c, 0, 64, 38
1, 98937, Control_c, 0, 64, 42
1, 98952, Control_c, 0, 64, 45
1, 98967, Control_c, 0, 64, 46
1, 98982, Control_c, 0, 64, 47
1, 98984, Note_on_c, 0, 80, 73
1, 98990, Note_on_c, 0, 77, 60
1, 98994, Note_off_c, 0, 82, 57
1, 99006, Note_off_c, 0, 80, 67
1, 99009, Note_off_c, 0, 77, 65
1, 99011, Control_c, 0, 64, 48
1, 99026, Control_c, 0, 64, 49
1, 99041, Control_c, 0, 64, 50
1, 99043, Note_on_c, 0, 69, 80
1, 99057, Control_c, 0, 64, 51
1, 99069, Note_on_c, 0, 70, 93
1, 99071, Control_c, 0, 64, 52
1, 99082, Note_on_c, 0, 75, 81
1, 99086, Note_on_c, 0, 79, 78
1, 99086, Note_off_c, 0, 69, 61
1, 99086, Control_c, 0, 64, 53
1, 99101, Control_c, 0, 64, 50
1, 99111, Note_off_c, 0, 75, 64
1, 99116, Control_c, 0, 64, 40
1, 99137, Note_off_c, 0, 79, 54
1, 99138, Control_c, 0, 64, 26
1, 99153, Control_c, 0, 64, 21
1, 99168, Control_c, 0, 64, 27
1, 99177, Note_on_c, 0, 77, 76
1, 99182, Note_on_c, 0, 74, 79
1, 99182, Control_c, 0, 64, 43
1, 99197, Control_c, 0, 64, 53
1, 99202, Note_off_c, 0, 70, 61
1, 99211, Note_off_c, 0, 74, 64
1, 99212, Control_c, 0, 64, 60
1, 99227, Control_c, 0, 64, 64
1, 99229, Note_off_c, 0, 77, 62
1, 99241, Control_c, 0, 64, 66
1, 99256, Control_c, 0, 64, 68
1, 99260, Note_on_c, 0, 58, 80
1, 99267, Note_on_c, 0, 79, 80
1, 99271, Note_on_c, 0, 75, 79
1, 99271, Control_c, 0, 64, 70
1, 99283, Note_off_c, 0, 58, 69
1, 99286, Control_c, 0, 64, 71
1, 99301, Note_off_c, 0, 75, 64
1, 99301, Control_c, 0, 64, 73
1, 99316, Control_c, 0, 64, 76
1, 99331, Control_c, 0, 64, 80
1, 99346, Control_c, 0, 64, 83
1, 99360, Note_on_c, 0, 77, 79
1, 99365, Note_on_c, 0, 74, 82
1, 99375, Control_c, 0, 64, 81
1, 99390, Control_c, 0, 64, 79
1, 99405, Control_c, 0, 64, 78
1, 99406, Note_off_c, 0, 79, 25
1, 99410, Note_off_c, 0, 74, 60
1, 99420, Control_c, 0, 64, 79
1, 99434, Control_c, 0, 64, 82
1, 99440, Note_on_c, 0, 67, 79
1, 99440, Note_on_c, 0, 68, 99
1, 99446, Note_on_c, 0, 75, 82
1, 99447, Note_on_c, 0, 72, 88
1, 99449, Control_c, 0, 64, 87
1, 99464, Control_c, 0, 64, 94
1, 99469, Note_off_c, 0, 77, 61
1, 99479, Note_off_c, 0, 75, 61
1, 99479, Control_c, 0, 64, 95
1, 99491, Note_off_c, 0, 72, 66
1, 99494, Control_c, 0, 64, 93
1, 99508, Control_c, 0, 64, 85
1, 99520, Note_off_c, 0, 68, 58
1, 99523, Control_c, 0, 64, 70
1, 99538, Control_c, 0, 64, 0
1, 99539, Note_on_c, 0, 74, 87
1, 99547, Note_on_c, 0, 71, 81
1, 99584, Note_off_c, 0, 67, 55
1, 99587, Note_off_c, 0, 71, 66
1, 99588, Note_off_c, 0, 74, 65
1, 99612, Control_c, 0, 64, 62
1, 99627, Control_c, 0, 64, 73
1, 99628, Note_on_c, 0, 63, 84
1, 99630, Note_on_c, 0, 70, 89
1, 99637, Note_on_c, 0, 67, 77
1, 99641, Control_c, 0, 64, 87
1, 99645, Note_on_c, 0, 75, 83
1, 99653, Note_off_c, 0, 70, 68
1, 99656, Control_c, 0, 64, 114
1, 99672, Control_c, 0, 64, 127
1, 99673, Note_off_c, 0, 63, 64
1, 99680, Note_off_c, 0, 67, 62
1, 99682, Note_off_c, 0, 75, 58
1, 99735, Note_on_c, 0, 77, 84
1, 99741, Note_on_c, 0, 68, 88
1, 99745, Note_on_c, 0, 62, 80
1, 99748, Note_on_c, 0, 50, 86
1, 99766, Note_off_c, 0, 62, 67
1, 99771, Note_off_c, 0, 50, 72
1, 99779, Note_off_c, 0, 77, 61
1, 99780, Note_off_c, 0, 68, 59
1, 99835, Note_on_c, 0, 79, 89
1, 99838, Note_on_c, 0, 70, 98
1, 99842, Note_on_c, 0, 61, 98
1, 99844, Note_on_c, 0, 49, 93
1, 99863, Note_off_c, 0, 70, 61
1, 99868, Note_off_c, 0, 61, 63
1, 99871, Note_off_c, 0, 79, 65
1, 99872, Note_off_c, 0, 49, 67
1, 99939, Note_on_c, 0, 60, 101
1, 99942, Note_on_c, 0, 48, 90
1, 99942, Note_on_c, 0, 72, 91
1, 99943, Note_on_c, 0, 80, 86
1, 99969, Note_off_c, 0, 80, 60
1, 99977, Control_c, 0, 64, 97
1, 99978, Note_off_c, 0, 60, 67
1, 99979, Note_off_c, 0, 48, 64
1, 99979, Note_off_c, 0, 72, 62
1, 99992, Control_c, 0, 64, 78
1, 100006, Control_c, 0, 64, 70
1, 100021, Control_c, 0, 64, 74
1, 100031, Note_on_c, 0, 59, 107
1, 100031, Note_on_c, 0, 82, 94
1, 100032, Note_on_c, 0, 74, 99
1, 100034, Note_on_c, 0, 47, 92
1, 100036, Control_c, 0, 64, 84
1, 100051, Control_c, 0, 64, 103
1, 100065, Control_c, 0, 64, 127
1, 100066, Note_off_c, 0, 47, 69
1, 100066, Note_off_c, 0, 59, 67
1, 100069, Note_off_c, 0, 74, 69
1, 100079, Note_off_c, 0, 82, 64
1, 100121, Note_on_c, 0, 84, 92
1, 100122, Note_on_c, 0, 75, 95
1, 100127, Note_on_c, 0, 46, 98
1, 100127, Note_on_c, 0, 58, 105
1, 100138, Note_on_c, 0, 56, 80
1, 100156, Note_off_c, 0, 46, 64
1, 100158, Note_off_c, 0, 56, 67
1, 100158, Note_off_c, 0, 58, 66
1, 100164, Note_off_c, 0, 84, 66
1, 100165, Note_off_c, 0, 75, 66
1, 100207, Poly_aftertouch_c, 0, 82, 127
1, 100223, Note_on_c, 0, 86, 97
1, 100225, Poly_aftertouch_c, 0, 82, 0
1, 100228, Poly_aftertouch_c, 0, 45, 0
1, 100229, Note_on_c, 0, 57, 102
1, 100229, Note_on_c, 0, 77, 97
1, 100235, Note_on_c, 0, 46, 92
1, 100246, Note_on_c, 0, 45, 42
1, 100255, Note_off_c, 0, 57, 68
1, 100255, Note_off_c, 0, 46, 70
1, 100267, Note_off_c, 0, 86, 70
1, 100267, Note_off_c, 0, 77, 66
1, 100279, Note_off_c, 0, 45, 57
1, 100331, Note_on_c, 0, 56, 109
1, 100334, Note_on_c, 0, 79, 96
1, 100334, Note_on_c, 0, 87, 100
1, 100336, Note_on_c, 0, 46, 97
1, 100364, Note_off_c, 0, 56, 70
1, 100376, Note_off_c, 0, 46, 63
1, 100403, Note_off_c, 0, 79, 53
1, 100421, Control_c, 0, 64, 95
1, 100436, Control_c, 0, 64, 66
1, 100439, Note_on_c, 0, 39, 85
1, 100451, Control_c, 0, 64, 0
1, 100468, Note_off_c, 0, 87, 64
1, 100469, Note_off_c, 0, 39, 65
1, 100480, Control_c, 0, 64, 62
1, 100481, Note_on_c, 0, 55, 114
1, 100484, Note_on_c, 0, 46, 95
1, 100487, Note_on_c, 0, 82, 109
1, 100488, Note_on_c, 0, 91, 98
1, 100495, Control_c, 0, 64, 81
1, 100508, Note_off_c, 0, 46, 67
1, 100510, Control_c, 0, 64, 127
1, 100524, Note_off_c, 0, 55, 67
1, 100535, Note_off_c, 0, 91, 68
1, 100537, Note_off_c, 0, 82, 65
1, 100599, Note_on_c, 0, 89, 94
1, 100623, Note_on_c, 0, 81, 73
1, 100623, Note_on_c, 0, 82, 69
1, 100647, Note_off_c, 0, 81, 69
1, 100650, Note_off_c, 0, 82, 63
1, 100654, Note_off_c, 0, 89, 63
1, 100702, Note_on_c, 0, 63, 95
1, 100705, Note_on_c, 0, 55, 79
1, 100714, Note_on_c, 0, 79, 98
1, 100714, Note_on_c, 0, 87, 98
1, 100722, Note_on_c, 0, 58, 76
1, 100736, Note_off_c, 0, 63, 61
1, 100755, Note_off_c, 0, 79, 65
1, 100756, Note_off_c, 0, 58, 61
1, 100756, Note_off_c, 0, 87, 67
1, 100757, Note_off_c, 0, 55, 60
1, 100793, Note_on_c, 0, 55, 75
1, 100797, Note_on_c, 0, 63, 97
1, 100800, Note_on_c, 0, 58, 78
1, 100809, Note_on_c, 0, 86, 92
1, 100812, Note_on_c, 0, 77, 99
1, 100814, Control_c, 0, 64, 87
1, 100818, Note_off_c, 0, 63, 67
1, 100829, Control_c, 0, 64, 62
1, 100837, Note_off_c, 0, 55, 67
1, 100839, Note_off_c, 0, 58, 64
1, 100844, Note_off_c, 0, 86, 65
1, 100844, Control_c, 0, 64, 0
1, 100848, Note_off_c, 0, 77, 66
1, 100888, Control_c, 0, 64, 32
1, 100900, Note_on_c, 0, 84, 92
1, 100903, Control_c, 0, 64, 65
1, 100906, Note_on_c, 0, 46, 105
1, 100907, Note_on_c, 0, 75, 97
1, 100914, Note_on_c, 0, 34, 100
1, 100918, Control_c, 0, 64, 74
1, 100933, Control_c, 0, 64, 84
1, 100934, Note_off_c, 0, 34, 69
1, 100936, Note_off_c, 0, 46, 66
1, 100943, Note_off_c, 0, 84, 64
1, 100945, Note_off_c, 0, 75, 67
1, 100948, Control_c, 0, 64, 98
1, 100962, Control_c, 0, 64, 110
1, 100977, Control_c, 0, 64, 127
1, 101010, Note_on_c, 0, 82, 86
1, 101011, Note_on_c, 0, 74, 98
1, 101024, Poly_aftertouch_c, 0, 44, 0
1, 101051, Note_off_c, 0, 74, 69
1, 101053, Note_off_c, 0, 82, 66
1, 101110, Control_c, 0, 64, 103
1, 101125, Note_on_c, 0, 63, 99
1, 101125, Note_on_c, 0, 58, 39
1, 101125, Control_c, 0, 64, 67
1, 101128, Note_on_c, 0, 72, 99
1, 101129, Note_on_c, 0, 80, 98
1, 101130, Note_on_c, 0, 55, 87
1, 101140, Control_c, 0, 64, 0
1, 101146, Note_on_c, 0, 56, 29
1, 101146, Note_off_c, 0, 63, 68
1, 101160, Note_off_c, 0, 72, 70
1, 101161, Note_off_c, 0, 80, 66
1, 101165, Note_off_c, 0, 55, 67
1, 101170, Note_off_c, 0, 56, 56
1, 101171, Note_off_c, 0, 58, 63
1, 101246, Note_on_c, 0, 79, 95
1, 101248, Note_on_c, 0, 70, 106
1, 101278, Note_off_c, 0, 79, 63
1, 101280, Note_off_c, 0, 70, 66
1, 101379, Note_on_c, 0, 39, 105
1, 101384, Note_on_c, 0, 69, 103
1, 101385, Note_on_c, 0, 27, 89
1, 101388, Note_on_c, 0, 78, 97
1, 101399, Control_c, 0, 64, 72
1, 101400, Note_on_c, 0, 37, 62
1, 101401, Note_off_c, 0, 37, 127
1, 101401, Note_off_c, 0, 39, 73
1, 101406, Note_on_c, 0, 26, 51
1, 101407, Note_off_c, 0, 26, 127
1, 101413, Note_off_c, 0, 27, 69
1, 101413, Control_c, 0, 64, 86
1, 101419, Note_off_c, 0, 69, 69
1, 101426, Note_off_c, 0, 78, 64
1, 101428, Control_c, 0, 64, 103
1, 101443, Control_c, 0, 64, 127
1, 101448, Poly_aftertouch_c, 0, 26, 0
1, 101497, Note_on_c, 0, 79, 89
1, 101498, Note_on_c, 0, 70, 92
1, 101537, Note_off_c, 0, 79, 59
1, 101541, Note_off_c, 0, 70, 61
1, 101596, Note_on_c, 0, 62, 86
1, 101597, Note_on_c, 0, 58, 79
1, 101599, Note_on_c, 0, 55, 70
1, 101601, Note_on_c, 0, 69, 92
1, 101602, Note_on_c, 0, 78, 92
1, 101636, Note_off_c, 0, 62, 59
1, 101637, Note_off_c, 0, 55, 61
1, 101642, Note_off_c, 0, 58, 57
1, 101643, Note_off_c, 0, 69, 67
1, 101649, Note_off_c, 0, 78, 63
1, 101697, Note_on_c, 0, 55, 83
1, 101699, Note_on_c, 0, 79, 85
1, 101700, Note_on_c, 0, 62, 71
1, 101701, Note_on_c, 0, 70, 92
1, 101702, Note_on_c, 0, 58, 74
1, 101721, Note_off_c, 0, 62, 68
1, 101727, Note_off_c, 0, 58, 68
1, 101735, Note_off_c, 0, 55, 65
1, 101743, Note_off_c, 0, 70, 65
1, 101748, Note_off_c, 0, 79, 63
1, 101751, Note_on_c, 0, 56, 15
1, 101770, Control_c, 0, 64, 95
1, 101784, Control_c, 0, 64, 72
1, 101793, Note_off_c, 0, 56, 52
1, 101799, Control_c, 0, 64, 0
1, 101800, Note_on_c, 0, 69, 99
1, 101802, Note_on_c, 0, 78, 92
1, 101808, Note_on_c, 0, 46, 107
1, 101812, Note_on_c, 0, 34, 92
1, 101831, Note_off_c, 0, 46, 66
1, 101834, Note_off_c, 0, 34, 67
1, 101844, Note_off_c, 0, 69, 64
1, 101846, Note_off_c, 0, 78, 63
1, 101901, Note_on_c, 0, 79, 85
1, 101901, Note_on_c, 0, 70, 88
1, 101931, Note_off_c, 0, 70, 65
1, 101937, Note_off_c, 0, 79, 64
1, 102003, Note_on_c, 0, 62, 79
1, 102004, Note_on_c, 0, 55, 79
1, 102005, Note_on_c, 0, 72, 88
1, 102007, Note_on_c, 0, 58, 76
1, 102008, Note_on_c, 0, 80, 85
1, 102023, Note_off_c, 0, 62, 69
1, 102028, Note_off_c, 0, 58, 70
1, 102033, Note_off_c, 0, 80, 63
1, 102043, Note_off_c, 0, 55, 65
1, 102043, Note_off_c, 0, 72, 64
1, 102102, Note_on_c, 0, 74, 93
1, 102102, Note_on_c, 0, 82, 92
1, 102151, Note_off_c, 0, 74, 66
1, 102157, Note_off_c, 0, 82, 64
1, 102192, Control_c, 0, 64, 30
1, 102201, Note_on_c, 0, 75, 94
1, 102201, Note_on_c, 0, 84, 86
1, 102204, Note_on_c, 0, 51, 104
1, 102207, Control_c, 0, 64, 66
1, 102207, Note_on_c, 0, 39, 90
1, 102222, Control_c, 0, 64, 68
1, 102223, Note_off_c, 0, 51, 72
1, 102231, Note_off_c, 0, 39, 68
1, 102236, Control_c, 0, 64, 67
1, 102251, Control_c, 0, 64, 68
1, 102254, Note_off_c, 0, 75, 65
1, 102263, Note_off_c, 0, 84, 55
1, 102306, Note_on_c, 0, 82, 81
1, 102309, Note_on_c, 0, 74, 87
1, 102327, Control_c, 0, 64, 67
1, 102332, Note_off_c, 0, 82, 66
1, 102333, Note_off_c, 0, 74, 66
1, 102341, Control_c, 0, 64, 65
1, 102356, Control_c, 0, 64, 61
1, 102371, Control_c, 0, 64, 24
1, 102385, Control_c, 0, 64, 0
1, 102388, Note_on_c, 0, 55, 73
1, 102388, Note_on_c, 0, 60, 83
1, 102391, Note_on_c, 0, 58, 76
1, 102397, Note_on_c, 0, 80, 88
1, 102400, Note_on_c, 0, 72, 88
1, 102416, Note_off_c, 0, 60, 65
1, 102416, Note_off_c, 0, 58, 68
1, 102425, Note_off_c, 0, 55, 64
1, 102437, Note_off_c, 0, 72, 66
1, 102461, Note_off_c, 0, 80, 58
1, 102476, Note_on_c, 0, 55, 76
1, 102485, Note_on_c, 0, 60, 73
1, 102485, Note_on_c, 0, 70, 93
1, 102491, Note_on_c, 0, 58, 73
1, 102492, Note_on_c, 0, 79, 85
1, 102511, Note_off_c, 0, 60, 67
1, 102513, Note_off_c, 0, 58, 68
1, 102514, Note_off_c, 0, 55, 66
1, 102524, Note_off_c, 0, 70, 62
1, 102529, Note_off_c, 0, 79, 60
1, 102548, Control_c, 0, 64, 39
1, 102563, Control_c, 0, 64, 67
1, 102577, Control_c, 0, 64, 68
1, 102578, Note_on_c, 0, 80, 84
1, 102584, Note_on_c, 0, 72, 88
1, 102586, Note_on_c, 0, 36, 93
1, 102586, Note_on_c, 0, 48, 106
1, 102592, Control_c, 0, 64, 67
1, 102609, Note_off_c, 0, 36, 70
1, 102611, Note_off_c, 0, 48, 66
1, 102623, Note_off_c, 0, 72, 65
1, 102670, Note_on_c, 0, 70, 94
1, 102683, Note_on_c, 0, 79, 63
1, 102684, Note_off_c, 0, 80, 41
1, 102701, Note_off_c, 0, 79, 66
1, 102705, Note_off_c, 0, 70, 65
1, 102726, Control_c, 0, 64, 65
1, 102741, Control_c, 0, 64, 63
1, 102756, Control_c, 0, 64, 49
1, 102760, Note_on_c, 0, 55, 66
1, 102767, Note_on_c, 0, 63, 84
1, 102771, Control_c, 0, 64, 0
1, 102771, Note_on_c, 0, 58, 66
1, 102781, Note_on_c, 0, 68, 84
1, 102789, Note_off_c, 0, 63, 67
1, 102789, Note_on_c, 0, 77, 63
1, 102797, Note_on_c, 0, 76, 45
1, 102798, Note_off_c, 0, 58, 67
1, 102806, Note_off_c, 0, 55, 65
1, 102806, Note_off_c, 0, 68, 62
1, 102810, Note_off_c, 0, 77, 66
1, 102825, Note_off_c, 0, 76, 55
1, 102856, Note_on_c, 0, 67, 70
1, 102857, Note_on_c, 0, 75, 73
1, 102904, Note_off_c, 0, 75, 64
1, 102911, Note_off_c, 0, 67, 63
1, 102941, Control_c, 0, 64, 44
1, 102954, Note_on_c, 0, 53, 92
1, 102956, Note_on_c, 0, 41, 89
1, 102956, Control_c, 0, 64, 48
1, 102967, Note_on_c, 0, 65, 92
1, 102967, Note_on_c, 0, 74, 90
1, 102971, Control_c, 0, 64, 47
1, 102977, Note_off_c, 0, 53, 73
1, 102981, Note_off_c, 0, 41, 65
1, 102987, Note_off_c, 0, 74, 71
1, 102993, Note_off_c, 0, 65, 65
1, 103000, Control_c, 0, 64, 48
1, 103015, Control_c, 0, 64, 52
1, 103030, Control_c, 0, 64, 57
1, 103045, Control_c, 0, 64, 61
1, 103055, Note_on_c, 0, 75, 84
1, 103061, Control_c, 0, 64, 64
1, 103062, Note_on_c, 0, 67, 82
1, 103070, Note_on_c, 0, 68, 44
1, 103076, Control_c, 0, 64, 66
1, 103078, Note_off_c, 0, 75, 63
1, 103083, Note_off_c, 0, 67, 69
1, 103090, Control_c, 0, 64, 67
1, 103093, Note_off_c, 0, 68, 55
1, 103105, Control_c, 0, 64, 68
1, 103134, Note_on_c, 0, 62, 76
1, 103135, Control_c, 0, 64, 67
1, 103138, Note_on_c, 0, 53, 71
1, 103143, Note_on_c, 0, 74, 87
1, 103144, Note_on_c, 0, 58, 70
1, 103145, Note_on_c, 0, 65, 87
1, 103150, Control_c, 0, 64, 66
1, 103161, Note_off_c, 0, 62, 66
1, 103164, Control_c, 0, 64, 65
1, 103173, Note_off_c, 0, 58, 67
1, 103173, Note_off_c, 0, 74, 66
1, 103180, Note_off_c, 0, 65, 63
1, 103194, Control_c, 0, 64, 64
1, 103209, Control_c, 0, 64, 63
1, 103224, Control_c, 0, 64, 50
1, 103233, Note_on_c, 0, 73, 83
1, 103239, Control_c, 0, 64, 0
1, 103240, Note_on_c, 0, 57, 71
1, 103241, Note_on_c, 0, 64, 85
1, 103249, Note_on_c, 0, 61, 75
1, 103267, Note_off_c, 0, 73, 62
1, 103271, Note_off_c, 0, 64, 66
1, 103276, Note_off_c, 0, 61, 66
1, 103282, Note_off_c, 0, 57, 62
1, 103307, Note_off_c, 0, 53, 0
1, 103320, Note_on_c, 0, 53, 61
1, 103325, Note_on_c, 0, 58, 77
1, 103328, Control_c, 0, 64, 66
1, 103328, Note_on_c, 0, 74, 92
1, 103329, Note_on_c, 0, 62, 81
1, 103333, Note_on_c, 0, 64, 80
1, 103343, Control_c, 0, 64, 72
1, 103350, Note_off_c, 0, 62, 68
1, 103353, Note_off_c, 0, 53, 69
1, 103355, Note_off_c, 0, 64, 71
1, 103355, Note_off_c, 0, 58, 64
1, 103357, Control_c, 0, 64, 77
1, 103361, Note_off_c, 0, 74, 68
1, 103367, Note_on_c, 0, 65, 33
1, 103372, Control_c, 0, 64, 81
1, 103387, Control_c, 0, 64, 85
1, 103401, Control_c, 0, 64, 88
1, 103403, Note_off_c, 0, 65, 34
1, 103416, Control_c, 0, 64, 90
1, 103431, Control_c, 0, 64, 90
1, 103471, Note_on_c, 0, 82, 59
1, 103475, Control_c, 0, 64, 91
1, 103476, Note_on_c, 0, 83, 50
1, 103481, Note_off_c, 0, 82, 49
1, 103490, Control_c, 0, 64, 91
1, 103492, Note_on_c, 0, 81, 72
1, 103497, Note_off_c, 0, 83, 61
1, 103535, Control_c, 0, 64, 91
1, 103543, Note_off_c, 0, 81, 63
1, 103546, Note_on_c, 0, 80, 87
1, 103549, Control_c, 0, 64, 89
1, 103564, Control_c, 0, 64, 86
1, 103579, Control_c, 0, 64, 78
1, 103585, Note_off_c, 0, 80, 62
1, 103589, Note_on_c, 0, 52, 69
1, 103592, Note_on_c, 0, 79, 76
1, 103594, Control_c, 0, 64, 66
1, 103608, Control_c, 0, 64, 0
1, 103615, Note_off_c, 0, 79, 67
1, 103654, Note_on_c, 0, 78, 74
1, 103661, Note_off_c, 0, 52, 64
1, 103665, Note_on_c, 0, 53, 99
1, 103674, Note_off_c, 0, 78, 70
1, 103686, Note_off_c, 0, 53, 73
1, 103690, Control_c, 0, 64, 61
1, 103705, Control_c, 0, 64, 69
1, 103707, Note_on_c, 0, 77, 82
1, 103720, Control_c, 0, 64, 76
1, 103734, Control_c, 0, 64, 78
1, 103749, Control_c, 0, 64, 75
1, 103755, Note_off_c, 0, 77, 62
1, 103762, Note_on_c, 0, 69, 64
1, 103764, Control_c, 0, 64, 71
1, 103779, Control_c, 0, 64, 62
1, 103790, Note_off_c, 0, 69, 67
1, 103794, Control_c, 0, 64, 0
1, 103809, Note_on_c, 0, 72, 83
1, 103845, Note_off_c, 0, 72, 64
1, 103855, Note_on_c, 0, 60, 76
1, 103865, Note_on_c, 0, 69, 75
1, 103872, Note_on_c, 0, 75, 69
1, 103874, Note_on_c, 0, 63, 61
1, 103892, Note_off_c, 0, 69, 64
1, 103895, Note_off_c, 0, 75, 70
1, 103903, Note_off_c, 0, 63, 65
1, 103938, Note_on_c, 0, 76, 69
1, 103954, Note_on_c, 0, 68, 83
1, 103964, Note_off_c, 0, 76, 63
1, 103977, Note_on_c, 0, 79, 80
1, 103981, Note_off_c, 0, 60, 62
1, 103987, Note_off_c, 0, 68, 62
1, 103998, Note_off_c, 0, 79, 67
1, 104027, Note_on_c, 0, 69, 84
1, 104031, Note_on_c, 0, 63, 86
1, 104031, Note_on_c, 0, 77, 89
1, 104045, Note_off_c, 0, 69, 73
1, 104051, Note_off_c, 0, 63, 70
1, 104080, Note_off_c, 0, 77, 62
1, 104100, Note_on_c, 0, 81, 57
1, 104118, Note_on_c, 0, 79, 25
1, 104120, Note_off_c, 0, 81, 67
1, 104152, Note_off_c, 0, 79, 33
1, 104162, Note_on_c, 0, 87, 78
1, 104199, Note_off_c, 0, 87, 64
1, 104213, Note_on_c, 0, 53, 81
1, 104221, Note_on_c, 0, 86, 84
1, 104252, Note_off_c, 0, 53, 64
1, 104272, Note_off_c, 0, 86, 66
1, 104279, Note_on_c, 0, 84, 79
1, 104305, Note_off_c, 0, 84, 64
1, 104330, Note_on_c, 0, 83, 74
1, 104348, Note_on_c, 0, 52, 74
1, 104351, Note_off_c, 0, 83, 71
1, 104386, Note_off_c, 0, 52, 65
1, 104386, Note_on_c, 0, 53, 97
1, 104395, Control_c, 0, 64, 37
1, 104398, Note_on_c, 0, 82, 92
1, 104407, Note_off_c, 0, 53, 74
1, 104410, Control_c, 0, 64, 45
1, 104425, Control_c, 0, 64, 47
1, 104439, Control_c, 0, 64, 54
1, 104449, Note_off_c, 0, 82, 64
1, 104454, Control_c, 0, 64, 59
1, 104469, Control_c, 0, 64, 62
1, 104473, Note_on_c, 0, 74, 78
1, 104484, Control_c, 0, 64, 64
1, 104499, Control_c, 0, 64, 63
1, 104513, Note_on_c, 0, 77, 85
1, 104513, Control_c, 0, 64, 56
1, 104515, Note_off_c, 0, 74, 62
1, 104528, Control_c, 0, 64, 30
1, 104543, Control_c, 0, 64, 0
1, 104544, Note_off_c, 0, 77, 61
1, 104557, Control_c, 0, 64, 32
1, 104558, Note_on_c, 0, 62, 75
1, 104562, Note_on_c, 0, 70, 82
1, 104571, Note_on_c, 0, 66, 68
1, 104572, Control_c, 0, 64, 53
1, 104587, Control_c, 0, 64, 63
1, 104602, Control_c, 0, 64, 65
1, 104613, Note_off_c, 0, 70, 63
1, 104615, Note_on_c, 0, 81, 83
1, 104617, Control_c, 0, 64, 62
1, 104631, Note_off_c, 0, 66, 55
1, 104631, Control_c, 0, 64, 49
1, 104647, Control_c, 0, 64, 17
1, 104657, Note_off_c, 0, 81, 62
1, 104660, Note_on_c, 0, 65, 57
1, 104662, Control_c, 0, 64, 27
1, 104672, Note_on_c, 0, 84, 82
1, 104677, Control_c, 0, 64, 49
1, 104691, Note_off_c, 0, 62, 37
1, 104692, Control_c, 0, 64, 62
1, 104707, Control_c, 0, 64, 67
1, 104716, Note_on_c, 0, 66, 76
1, 104717, Note_on_c, 0, 70, 91
1, 104721, Control_c, 0, 64, 73
1, 104727, Note_off_c, 0, 84, 63
1, 104729, Note_off_c, 0, 65, 65
1, 104732, Note_on_c, 0, 82, 92
1, 104736, Control_c, 0, 64, 81
1, 104744, Note_off_c, 0, 70, 67
1, 104751, Control_c, 0, 64, 93
1, 104753, Note_off_c, 0, 66, 66
1, 104766, Control_c, 0, 64, 102
1, 104777, Note_off_c, 0, 82, 65
1, 104780, Control_c, 0, 64, 102
1, 104795, Control_c, 0, 64, 98
1, 104810, Control_c, 0, 64, 92
1, 104811, Note_on_c, 0, 91, 90
1, 104825, Control_c, 0, 64, 88
1, 104840, Control_c, 0, 64, 87
1, 104845, Note_on_c, 0, 49, 80
1, 104854, Control_c, 0, 64, 88
1, 104858, Note_on_c, 0, 89, 80
1, 104869, Control_c, 0, 64, 89
1, 104872, Note_off_c, 0, 49, 69
1, 104878, Note_off_c, 0, 91, 61
1, 104884, Control_c, 0, 64, 87
1, 104899, Control_c, 0, 64, 79
1, 104906, Note_on_c, 0, 87, 87
1, 104909, Note_on_c, 0, 65, 97
1, 104914, Control_c, 0, 64, 66
1, 104915, Note_on_c, 0, 59, 60
1, 104920, Note_on_c, 0, 56, 52
1, 104924, Note_on_c, 0, 60, 66
1, 104928, Control_c, 0, 64, 0
1, 104929, Note_off_c, 0, 89, 64
1, 104944, Note_off_c, 0, 56, 60
1, 104946, Note_off_c, 0, 59, 64
1, 104952, Note_off_c, 0, 60, 67
1, 104952, Note_off_c, 0, 65, 68
1, 104961, Note_off_c, 0, 87, 66
1, 104971, Note_on_c, 0, 86, 79
1, 105006, Note_on_c, 0, 54, 69
1, 105012, Note_off_c, 0, 86, 65
1, 105024, Note_on_c, 0, 85, 81
1, 105027, Note_on_c, 0, 48, 83
1, 105065, Note_off_c, 0, 48, 60
1, 105072, Note_on_c, 0, 58, 93
1, 105072, Note_off_c, 0, 85, 64
1, 105074, Note_on_c, 0, 64, 102
1, 105076, Control_c, 0, 64, 61
1, 105082, Note_on_c, 0, 84, 89
1, 105091, Note_on_c, 0, 62, 74
1, 105092, Note_off_c, 0, 62, 127
1, 105092, Control_c, 0, 64, 78
1, 105097, Note_off_c, 0, 54, 62
1, 105106, Note_on_c, 0, 65, 55
1, 105107, Note_off_c, 0, 65, 127
1, 105107, Control_c, 0, 64, 98
1, 105108, Note_off_c, 0, 58, 62
1, 105111, Note_off_c, 0, 64, 69
1, 105112, Poly_aftertouch_c, 0, 62, 0
1, 105128, Control_c, 0, 64, 127
1, 105132, Note_off_c, 0, 84, 67
1, 105156, Note_on_c, 0, 83, 89
1, 105194, Poly_aftertouch_c, 0, 55, 0
1, 105210, Note_off_c, 0, 83, 66
1, 105215, Note_on_c, 0, 82, 82
1, 105230, Note_off_c, 0, 82, 69
1, 105261, Note_on_c, 0, 84, 76
1, 105263, Note_on_c, 0, 69, 100
1, 105269, Note_on_c, 0, 81, 77
1, 105270, Note_on_c, 0, 64, 78
1, 105275, Note_on_c, 0, 58, 90
1, 105288, Note_off_c, 0, 64, 72
1, 105291, Note_off_c, 0, 69, 64
1, 105315, Note_off_c, 0, 58, 66
1, 105327, Note_on_c, 0, 79, 73
1, 105344, Note_off_c, 0, 84, 61
1, 105365, Control_c, 0, 64, 110
1, 105379, Control_c, 0, 64, 76
1, 105382, Note_on_c, 0, 78, 90
1, 105387, Note_off_c, 0, 79, 65
1, 105389, Note_off_c, 0, 81, 59
1, 105394, Control_c, 0, 64, 0
1, 105424, Control_c, 0, 64, 50
1, 105431, Note_on_c, 0, 53, 103
1, 105434, Note_on_c, 0, 41, 102
1, 105439, Control_c, 0, 64, 72
1, 105444, Note_on_c, 0, 77, 93
1, 105451, Note_off_c, 0, 78, 61
1, 105455, Control_c, 0, 64, 93
1, 105456, Note_off_c, 0, 41, 70
1, 105457, Note_off_c, 0, 53, 70
1, 105470, Control_c, 0, 64, 127
1, 105479, Note_on_c, 0, 51, 12
1, 105480, Note_off_c, 0, 51, 127
1, 105483, Note_off_c, 0, 77, 65
1, 105511, Note_on_c, 0, 76, 83
1, 105527, Poly_aftertouch_c, 0, 51, 0
1, 105549, Note_on_c, 0, 75, 73
1, 105564, Note_off_c, 0, 76, 60
1, 105585, Note_off_c, 0, 75, 62
1, 105603, Note_on_c, 0, 74, 90
1, 105606, Note_on_c, 0, 77, 79
1, 105615, Note_on_c, 0, 65, 93
1, 105620, Note_on_c, 0, 63, 81
1, 105622, Note_on_c, 0, 55, 77
1, 105632, Note_off_c, 0, 65, 74
1, 105639, Note_off_c, 0, 63, 70
1, 105646, Note_off_c, 0, 74, 67
1, 105653, Note_on_c, 0, 57, 41
1, 105654, Note_off_c, 0, 57, 127
1, 105658, Note_off_c, 0, 55, 65
1, 105684, Note_off_c, 0, 77, 57
1, 105685, Note_on_c, 0, 72, 77
1, 105726, Note_on_c, 0, 71, 89
1, 105728, Note_off_c, 0, 72, 67
1, 105737, Control_c, 0, 64, 84
1, 105752, Control_c, 0, 64, 60
1, 105756, Note_off_c, 0, 71, 67
1, 105767, Control_c, 0, 64, 30
1, 105781, Control_c, 0, 64, 66
1, 105796, Note_on_c, 0, 34, 96
1, 105796, Control_c, 0, 64, 84
1, 105797, Note_on_c, 0, 70, 102
1, 105801, Note_on_c, 0, 82, 100
1, 105811, Control_c, 0, 64, 127
1, 105814, Note_off_c, 0, 82, 77
1, 105814, Note_off_c, 0, 70, 70
1, 105861, Note_off_c, 0, 34, 64
1, 105898, Note_on_c, 0, 41, 79
1, 105921, Poly_aftertouch_c, 0, 35, 127
1, 105924, Note_on_c, 0, 46, 89
1, 105931, Poly_aftertouch_c, 0, 42, 127
1, 105953, Note_off_c, 0, 41, 62
1, 105966, Poly_aftertouch_c, 0, 35, 0
1, 105974, Note_on_c, 0, 50, 84
1, 105975, Poly_aftertouch_c, 0, 42, 0
1, 105987, Note_off_c, 0, 46, 58
1, 106001, Note_off_c, 0, 50, 71
1, 106026, Note_on_c, 0, 53, 92
1, 106068, Note_off_c, 0, 53, 68
1, 106088, Note_on_c, 0, 57, 94
1, 106121, Note_off_c, 0, 57, 69
1, 106147, Note_on_c, 0, 58, 117
1, 106170, Note_off_c, 0, 58, 71
1, 106308, Control_c, 0, 64, 121
1, 106323, Control_c, 0, 64, 85
1, 106338, Control_c, 0, 64, 63
1, 106342, Note_on_c, 0, 70, 106
1, 106345, Note_on_c, 0, 82, 100
1, 106353, Control_c, 0, 64, 0
1, 106361, Note_off_c, 0, 82, 72
1, 106369, Note_off_c, 0, 70, 64
1, 106372, Note_on_c, 0, 80, 48
1, 106373, Note_off_c, 0, 80, 127
1, 106420, Note_on_c, 0, 70, 99
1, 106421, Note_on_c, 0, 82, 98
1, 106448, Note_off_c, 0, 70, 68
1, 106458, Note_off_c, 0, 82, 62
1, 106471, Control_c, 0, 64, 33
1, 106486, Control_c, 0, 64, 71
1, 106487, Note_on_c, 0, 69, 108
1, 106488, Note_on_c, 0, 81, 104
1, 106500, Note_on_c, 0, 80, 74
1, 106500, Control_c, 0, 64, 81
1, 106515, Control_c, 0, 64, 94
1, 106519, Note_off_c, 0, 80, 71
1, 106530, Control_c, 0, 64, 112
1, 106544, Note_off_c, 0, 69, 60
1, 106545, Control_c, 0, 64, 127
1, 106545, Note_off_c, 0, 81, 61
1, 106686, Control_c, 0, 64, 93
1, 106688, Note_on_c, 0, 59, 83
1, 106689, Note_on_c, 0, 70, 109
1, 106693, Note_on_c, 0, 80, 94
1, 106694, Note_on_c, 0, 68, 104
1, 106696, Note_on_c, 0, 65, 88
1, 106696, Note_on_c, 0, 77, 88
1, 106697, Note_on_c, 0, 82, 91
1, 106700, Control_c, 0, 64, 63
1, 106711, Note_on_c, 0, 61, 59
1, 106713, Note_off_c, 0, 77, 72
1, 106715, Control_c, 0, 64, 0
1, 106717, Note_off_c, 0, 65, 70
1, 106717, Note_off_c, 0, 80, 65
1, 106723, Note_off_c, 0, 70, 69
1, 106726, Note_off_c, 0, 82, 62
1, 106729, Note_off_c, 0, 68, 65
1, 106736, Note_off_c, 0, 59, 65
1, 106739, Note_off_c, 0, 61, 64
1, 106908, Note_on_c, 0, 67, 97
1, 106909, Note_on_c, 0, 58, 86
1, 106911, Note_on_c, 0, 69, 106
1, 106911, Note_on_c, 0, 79, 97
1, 106912, Note_on_c, 0, 75, 101
1, 106912, Note_on_c, 0, 81, 93
1, 106914, Note_on_c, 0, 60, 75
1, 106917, Note_on_c, 0, 63, 80
1, 106929, Note_off_c, 0, 79, 69
1, 106932, Note_off_c, 0, 69, 71
1, 106936, Note_on_c, 0, 78, 54
1, 106939, Note_off_c, 0, 60, 69
1, 106941, Note_off_c, 0, 67, 65
1, 106941, Note_off_c, 0, 75, 62
1, 106942, Note_off_c, 0, 81, 64
1, 106944, Note_off_c, 0, 63, 65
1, 106961, Note_off_c, 0, 78, 40
1, 106963, Note_off_c, 0, 58, 65
1, 107144, Note_on_c, 0, 66, 104
1, 107147, Note_on_c, 0, 57, 67
1, 107150, Note_on_c, 0, 63, 85
1, 107150, Note_on_c, 0, 70, 122
1, 107150, Note_on_c, 0, 82, 101
1, 107153, Note_on_c, 0, 59, 52
1, 107155, Note_on_c, 0, 78, 87
1, 107156, Note_on_c, 0, 75, 93
1, 107165, Note_off_c, 0, 70, 68
1, 107168, Note_off_c, 0, 82, 63
1, 107170, Note_off_c, 0, 78, 76
1, 107171, Note_off_c, 0, 75, 76
1, 107175, Note_off_c, 0, 57, 65
1, 107178, Note_on_c, 0, 60, 41
1, 107179, Note_off_c, 0, 59, 59
1, 107188, Note_off_c, 0, 66, 64
1, 107197, Note_off_c, 0, 63, 66
1, 107208, Note_off_c, 0, 60, 57
1, 107260, Note_on_c, 0, 56, 95
1, 107402, Note_on_c, 0, 68, 109
1, 107403, Note_on_c, 0, 65, 104
1, 107403, Note_on_c, 0, 80, 99
1, 107405, Control_c, 0, 64, 59
1, 107406, Note_on_c, 0, 58, 88
1, 107406, Note_on_c, 0, 62, 89
1, 107420, Control_c, 0, 64, 83
1, 107433, Note_off_c, 0, 80, 61
1, 107435, Control_c, 0, 64, 121
1, 107436, Note_off_c, 0, 68, 68
1, 107439, Note_on_c, 0, 78, 44
1, 107440, Note_off_c, 0, 78, 127
1, 107440, Note_off_c, 0, 56, 64
1, 107442, Note_off_c, 0, 62, 62
1, 107449, Control_c, 0, 64, 127
1, 107465, Note_off_c, 0, 58, 62
1, 107494, Note_on_c, 0, 70, 85
1, 107512, Note_off_c, 0, 70, 73
1, 107559, Note_on_c, 0, 74, 89
1, 107607, Note_off_c, 0, 74, 60
1, 107621, Note_on_c, 0, 68, 99
1, 107623, Note_off_c, 0, 65, 40
1, 107637, Note_on_c, 0, 77, 91
1, 107646, Note_off_c, 0, 68, 69
1, 107678, Note_off_c, 0, 77, 62
1, 107700, Note_on_c, 0, 80, 89
1, 107727, Note_off_c, 0, 80, 64
1, 107776, Note_on_c, 0, 82, 103
1, 107903, Note_on_c, 0, 34, 116
1, 107904, Note_on_c, 0, 22, 114
1, 107904, Note_on_c, 0, 94, 103
1, 107923, Note_off_c, 0, 82, 71
1, 107925, Note_off_c, 0, 22, 68
1, 107928, Note_off_c, 0, 34, 66
1, 107928, Note_off_c, 0, 94, 72
1, 108002, Note_on_c, 0, 22, 18
1, 108017, Note_off_c, 0, 22, 66
1, 108143, Poly_aftertouch_c, 0, 22, 127
1, 108172, Note_on_c, 0, 56, 76
1, 108172, Note_on_c, 0, 65, 93
1, 108178, Note_on_c, 0, 70, 110
1, 108180, Note_on_c, 0, 58, 75
1, 108181, Note_on_c, 0, 82, 105
1, 108185, Note_on_c, 0, 62, 66
1, 108186, Poly_aftertouch_c, 0, 22, 0
1, 108211, Note_on_c, 0, 80, 42
1, 108212, Note_off_c, 0, 80, 127
1, 108212, Note_off_c, 0, 58, 59
1, 108212, Note_off_c, 0, 70, 68
1, 108212, Note_off_c, 0, 82, 61
1, 108212, Note_off_c, 0, 65, 65
1, 108216, Note_off_c, 0, 62, 64
1, 108226, Note_off_c, 0, 56, 63
1, 108282, Note_on_c, 0, 70, 107
1, 108282, Note_on_c, 0, 82, 105
1, 108313, Note_off_c, 0, 70, 69
1, 108315, Note_on_c, 0, 80, 45
1, 108317, Note_off_c, 0, 82, 66
1, 108339, Note_off_c, 0, 80, 58
1, 108387, Note_on_c, 0, 69, 102
1, 108387, Note_on_c, 0, 81, 100
1, 108413, Note_on_c, 0, 80, 55
1, 108419, Control_c, 0, 64, 101
1, 108423, Note_off_c, 0, 69, 67
1, 108426, Note_off_c, 0, 81, 68
1, 108434, Control_c, 0, 64, 74
1, 108435, Note_off_c, 0, 80, 63
1, 108449, Control_c, 0, 64, 0
1, 108464, Note_on_c, 0, 58, 92
1, 108595, Note_on_c, 0, 70, 109
1, 108596, Note_on_c, 0, 67, 95
1, 108596, Control_c, 0, 64, 58
1, 108598, Note_on_c, 0, 82, 97
1, 108598, Note_on_c, 0, 79, 96
1, 108599, Note_on_c, 0, 75, 96
1, 108601, Note_on_c, 0, 63, 90
1, 108602, Note_on_c, 0, 60, 85
1, 108611, Control_c, 0, 64, 72
1, 108626, Control_c, 0, 64, 82
1, 108637, Note_off_c, 0, 67, 67
1, 108642, Control_c, 0, 64, 102
1, 108643, Note_off_c, 0, 82, 69
1, 108648, Note_off_c, 0, 63, 55
1, 108650, Note_off_c, 0, 60, 63
1, 108655, Note_off_c, 0, 75, 62
1, 108658, Control_c, 0, 64, 127
1, 108667, Note_off_c, 0, 70, 60
1, 108671, Note_off_c, 0, 58, 61
1, 108758, Note_off_c, 0, 79, 53
1, 108804, Note_on_c, 0, 62, 74
1, 108805, Note_on_c, 0, 66, 105
1, 108805, Note_on_c, 0, 69, 104
1, 108805, Note_on_c, 0, 78, 75
1, 108806, Note_on_c, 0, 81, 91
1, 108806, Control_c, 0, 64, 82
1, 108809, Note_on_c, 0, 74, 97
1, 108813, Note_on_c, 0, 57, 67
1, 108820, Control_c, 0, 64, 0
1, 108828, Note_off_c, 0, 74, 69
1, 108831, Note_off_c, 0, 69, 66
1, 108832, Note_on_c, 0, 60, 46
1, 108840, Note_off_c, 0, 66, 66
1, 108840, Note_off_c, 0, 81, 62
1, 108843, Note_off_c, 0, 57, 60
1, 108846, Note_off_c, 0, 78, 62
1, 108846, Note_off_c, 0, 62, 60
1, 108856, Note_off_c, 0, 60, 60
1, 109013, Note_on_c, 0, 70, 103
1, 109013, Note_on_c, 0, 56, 81
1, 109016, Note_on_c, 0, 65, 89
1, 109016, Note_on_c, 0, 82, 96
1, 109018, Note_on_c, 0, 61, 77
1, 109019, Note_on_c, 0, 73, 89
1, 109037, Note_off_c, 0, 73, 72
1, 109039, Note_off_c, 0, 82, 68
1, 109040, Note_off_c, 0, 70, 66
1, 109051, Note_on_c, 0, 58, 51
1, 109054, Note_on_c, 0, 69, 35
1, 109055, Note_off_c, 0, 69, 127
1, 109055, Note_off_c, 0, 61, 59
1, 109057, Note_off_c, 0, 65, 64
1, 109075, Note_off_c, 0, 56, 64
1, 109084, Note_off_c, 0, 58, 55
1, 109161, Note_on_c, 0, 58, 21
1, 109189, Note_on_c, 0, 55, 84
1, 109198, Note_on_c, 0, 67, 98
1, 109198, Control_c, 0, 64, 65
1, 109200, Note_on_c, 0, 63, 105
1, 109205, Note_on_c, 0, 79, 92
1, 109206, Note_on_c, 0, 60, 76
1, 109213, Control_c, 0, 64, 86
1, 109215, Note_on_c, 0, 69, 61
1, 109223, Note_off_c, 0, 55, 66
1, 109227, Control_c, 0, 64, 127
1, 109230, Note_off_c, 0, 60, 70
1, 109230, Note_off_c, 0, 58, 61
1, 109231, Note_off_c, 0, 67, 64
1, 109235, Note_off_c, 0, 69, 65
1, 109239, Note_off_c, 0, 63, 63
1, 109239, Note_off_c, 0, 79, 58
1, 109303, Note_on_c, 0, 70, 5
1, 109304, Note_off_c, 0, 70, 127
1, 109320, Note_on_c, 0, 72, 88
1, 109356, Poly_aftertouch_c, 0, 70, 0
1, 109381, Note_on_c, 0, 67, 90
1, 109385, Note_on_c, 0, 75, 86
1, 109391, Note_off_c, 0, 72, 61
1, 109397, Note_off_c, 0, 67, 74
1, 109425, Note_off_c, 0, 75, 67
1, 109446, Note_on_c, 0, 79, 78
1, 109464, Note_off_c, 0, 79, 71
1, 109525, Note_on_c, 0, 82, 97
1, 109571, Note_on_c, 0, 94, 104
1, 109573, Note_on_c, 0, 46, 106
1, 109576, Note_on_c, 0, 34, 89
1, 109589, Note_off_c, 0, 82, 46
1, 109591, Note_off_c, 0, 46, 73
1, 109594, Note_off_c, 0, 94, 66
1, 109599, Note_off_c, 0, 34, 64
1, 109720, Poly_aftertouch_c, 0, 34, 127
1, 109731, Poly_aftertouch_c, 0, 46, 0
1, 109757, Note_on_c, 0, 67, 75
1, 109761, Note_on_c, 0, 58, 69
1, 109761, Poly_aftertouch_c, 0, 34, 0
1, 109762, Note_on_c, 0, 63, 62
1, 109770, Note_on_c, 0, 61, 32
1, 109771, Note_on_c, 0, 70, 94
1, 109771, Note_on_c, 0, 82, 91
1, 109771, Note_off_c, 0, 67, 70
1, 109787, Note_off_c, 0, 58, 59
1, 109787, Note_off_c, 0, 63, 60
1, 109793, Note_off_c, 0, 82, 65
1, 109798, Note_off_c, 0, 70, 62
1, 109812, Note_off_c, 0, 61, 56
1, 109856, Note_on_c, 0, 82, 95
1, 109859, Note_on_c, 0, 70, 93
1, 109888, Control_c, 0, 64, 105
1, 109889, Note_off_c, 0, 70, 63
1, 109890, Note_off_c, 0, 82, 61
1, 109896, Note_on_c, 0, 39, 87
1, 109903, Control_c, 0, 64, 70
1, 109917, Control_c, 0, 64, 0
1, 109925, Note_off_c, 0, 39, 66
1, 109941, Note_on_c, 0, 55, 94
1, 109954, Note_on_c, 0, 75, 105
1, 109954, Note_on_c, 0, 87, 100
1, 109956, Note_on_c, 0, 46, 24
1, 109957, Note_off_c, 0, 46, 127
1, 109962, Control_c, 0, 64, 64
1, 109973, Note_off_c, 0, 55, 68
1, 109976, Note_off_c, 0, 87, 68
1, 109976, Control_c, 0, 64, 78
1, 109984, Note_off_c, 0, 75, 69
1, 109991, Control_c, 0, 64, 92
1, 110006, Control_c, 0, 64, 112
1, 110021, Control_c, 0, 64, 117
1, 110036, Control_c, 0, 64, 118
1, 110048, Note_on_c, 0, 74, 102
1, 110050, Control_c, 0, 64, 123
1, 110053, Note_on_c, 0, 86, 94
1, 110065, Control_c, 0, 64, 127
1, 110074, Note_off_c, 0, 86, 69
1, 110075, Note_off_c, 0, 74, 66
1, 110129, Note_on_c, 0, 58, 68
1, 110130, Note_on_c, 0, 55, 67
1, 110136, Note_on_c, 0, 63, 84
1, 110140, Control_c, 0, 64, 107
1, 110140, Note_on_c, 0, 91, 98
1, 110142, Note_on_c, 0, 79, 94
1, 110154, Control_c, 0, 64, 83
1, 110155, Note_off_c, 0, 55, 67
1, 110158, Note_off_c, 0, 58, 67
1, 110158, Note_off_c, 0, 63, 70
1, 110164, Note_off_c, 0, 79, 66
1, 110166, Note_off_c, 0, 91, 66
1, 110169, Control_c, 0, 64, 67
1, 110184, Control_c, 0, 64, 48
1, 110199, Control_c, 0, 64, 43
1, 110214, Control_c, 0, 64, 49
1, 110232, Note_on_c, 0, 77, 94
1, 110232, Note_on_c, 0, 89, 91
1, 110244, Control_c, 0, 64, 45
1, 110259, Control_c, 0, 64, 40
1, 110262, Note_off_c, 0, 77, 65
1, 110263, Note_off_c, 0, 89, 65
1, 110274, Control_c, 0, 64, 36
1, 110289, Control_c, 0, 64, 35
1, 110303, Control_c, 0, 64, 28
1, 110306, Note_on_c, 0, 49, 64
1, 110310, Note_on_c, 0, 58, 81
1, 110318, Control_c, 0, 64, 0
1, 110319, Note_on_c, 0, 87, 89
1, 110321, Note_on_c, 0, 75, 95
1, 110332, Note_on_c, 0, 43, 18
1, 110333, Note_off_c, 0, 58, 69
1, 110342, Note_off_c, 0, 75, 66
1, 110343, Note_off_c, 0, 87, 66
1, 110359, Note_off_c, 0, 49, 53
1, 110384, Note_off_c, 0, 43, 38
1, 110417, Note_on_c, 0, 86, 90
1, 110420, Note_on_c, 0, 74, 88
1, 110432, Poly_aftertouch_c, 0, 51, 0
1, 110435, Note_off_c, 0, 86, 73
1, 110439, Note_off_c, 0, 74, 71
1, 110488, Control_c, 0, 64, 30
1, 110493, Note_on_c, 0, 57, 76
1, 110503, Control_c, 0, 64, 48
1, 110507, Note_on_c, 0, 42, 71
1, 110509, Note_on_c, 0, 72, 89
1, 110513, Note_on_c, 0, 55, 59
1, 110513, Note_on_c, 0, 84, 73
1, 110515, Note_on_c, 0, 48, 33
1, 110515, Note_on_c, 0, 83, 70
1, 110518, Control_c, 0, 64, 57
1, 110533, Note_off_c, 0, 84, 71
1, 110533, Control_c, 0, 64, 62
1, 110534, Note_off_c, 0, 57, 60
1, 110535, Note_off_c, 0, 72, 67
1, 110536, Note_off_c, 0, 55, 60
1, 110537, Note_off_c, 0, 83, 71
1, 110548, Control_c, 0, 64, 63
1, 110554, Note_off_c, 0, 48, 42
1, 110559, Note_off_c, 0, 42, 62
1, 110563, Control_c, 0, 64, 55
1, 110578, Control_c, 0, 64, 0
1, 110590, Poly_aftertouch_c, 0, 50, 127
1, 110593, Note_on_c, 0, 82, 79
1, 110597, Note_on_c, 0, 70, 86
1, 110615, Note_off_c, 0, 70, 73
1, 110621, Note_off_c, 0, 82, 62
1, 110628, Poly_aftertouch_c, 0, 50, 0
1, 110662, Note_on_c, 0, 41, 73
1, 110666, Control_c, 0, 64, 34
1, 110673, Note_on_c, 0, 86, 91
1, 110674, Note_on_c, 0, 46, 75
1, 110679, Note_on_c, 0, 74, 96
1, 110681, Control_c, 0, 64, 61
1, 110696, Control_c, 0, 64, 65
1, 110707, Note_off_c, 0, 41, 63
1, 110711, Control_c, 0, 64, 68
1, 110712, Note_on_c, 0, 84, 39
1, 110719, Note_on_c, 0, 50, 57
1, 110725, Control_c, 0, 64, 69
1, 110734, Note_off_c, 0, 46, 62
1, 110740, Control_c, 0, 64, 71
1, 110743, Note_off_c, 0, 84, 36
1, 110755, Control_c, 0, 64, 72
1, 110759, Note_off_c, 0, 50, 68
1, 110770, Control_c, 0, 64, 73
1, 110782, Note_on_c, 0, 56, 74
1, 110785, Control_c, 0, 64, 74
1, 110788, Note_off_c, 0, 74, 61
1, 110809, Note_off_c, 0, 56, 69
1, 110814, Control_c, 0, 64, 74
1, 110844, Control_c, 0, 64, 75
1, 110859, Control_c, 0, 64, 78
1, 110863, Note_on_c, 0, 80, 73
1, 110864, Note_on_c, 0, 77, 78
1, 110866, Note_on_c, 0, 58, 75
1, 110873, Control_c, 0, 64, 82
1, 110874, Note_off_c, 0, 86, 0
1, 110888, Control_c, 0, 64, 90
1, 110897, Note_on_c, 0, 86, 19
1, 110903, Control_c, 0, 64, 104
1, 110912, Note_off_c, 0, 58, 54
1, 110918, Control_c, 0, 64, 127
1, 110935, Poly_aftertouch_c, 0, 84, 127
1, 110939, Note_off_c, 0, 77, 36
1, 110943, Note_on_c, 0, 60, 68
1, 110947, Control_c, 0, 64, 110
1, 110962, Control_c, 0, 64, 86
1, 110967, Note_off_c, 0, 80, 37
1, 110977, Control_c, 0, 64, 69
1, 110983, Note_off_c, 0, 60, 63
1, 110992, Control_c, 0, 64, 51
1, 110998, Note_on_c, 0, 61, 32
1, 111007, Control_c, 0, 64, 43
1, 111022, Poly_aftertouch_c, 0, 84, 0
1, 111022, Control_c, 0, 64, 55
1, 111030, Note_on_c, 0, 62, 36
1, 111031, Note_on_c, 0, 56, 78
1, 111031, Note_off_c, 0, 86, 44
1, 111036, Note_off_c, 0, 61, 54
1, 111037, Control_c, 0, 64, 53
1, 111048, Note_on_c, 0, 77, 70
1, 111048, Note_on_c, 0, 80, 72
1, 111052, Control_c, 0, 64, 43
1, 111061, Note_off_c, 0, 56, 67
1, 111066, Note_off_c, 0, 77, 68
1, 111067, Control_c, 0, 64, 29
1, 111069, Note_off_c, 0, 80, 71
1, 111079, Note_off_c, 0, 62, 64
1, 111082, Control_c, 0, 64, 0
1, 111128, Note_on_c, 0, 74, 84
1, 111130, Note_on_c, 0, 86, 71
1, 111148, Note_off_c, 0, 74, 70
1, 111152, Note_off_c, 0, 86, 69
1, 111193, Control_c, 0, 64, 24
1, 111208, Control_c, 0, 64, 27
1, 111213, Note_on_c, 0, 84, 83
1, 111214, Note_on_c, 0, 52, 68
1, 111219, Note_on_c, 0, 72, 85
1, 111222, Control_c, 0, 64, 30
1, 111235, Note_off_c, 0, 84, 67
1, 111237, Note_off_c, 0, 72, 71
1, 111237, Control_c, 0, 64, 40
1, 111248, Note_off_c, 0, 52, 65
1, 111252, Control_c, 0, 64, 57
1, 111267, Control_c, 0, 64, 64
1, 111282, Control_c, 0, 64, 65
1, 111296, Control_c, 0, 64, 59
1, 111305, Note_on_c, 0, 70, 89
1, 111305, Note_on_c, 0, 82, 79
1, 111311, Control_c, 0, 64, 0
1, 111323, Note_off_c, 0, 70, 73
1, 111329, Note_off_c, 0, 82, 67
1, 111371, Control_c, 0, 64, 14
1, 111378, Note_on_c, 0, 53, 65
1, 111384, Note_on_c, 0, 58, 71
1, 111386, Control_c, 0, 64, 63
1, 111390, Note_on_c, 0, 86, 90
1, 111392, Note_on_c, 0, 74, 96
1, 111400, Control_c, 0, 64, 69
1, 111408, Note_on_c, 0, 62, 58
1, 111415, Note_off_c, 0, 53, 64
1, 111415, Control_c, 0, 64, 73
1, 111421, Note_off_c, 0, 58, 60
1, 111425, Note_on_c, 0, 85, 40
1, 111426, Note_off_c, 0, 85, 127
1, 111426, Note_off_c, 0, 86, 68
1, 111429, Note_off_c, 0, 74, 67
1, 111430, Control_c, 0, 64, 77
1, 111445, Control_c, 0, 64, 82
1, 111446, Note_off_c, 0, 62, 59
1, 111460, Control_c, 0, 64, 86
1, 111475, Control_c, 0, 64, 90
1, 111476, Note_on_c, 0, 68, 87
1, 111489, Control_c, 0, 64, 93
1, 111504, Control_c, 0, 64, 94
1, 111519, Control_c, 0, 64, 96
1, 111525, Note_off_c, 0, 68, 63
1, 111534, Control_c, 0, 64, 101
1, 111548, Control_c, 0, 64, 110
1, 111553, Note_on_c, 0, 80, 84
1, 111560, Note_on_c, 0, 74, 80
1, 111563, Control_c, 0, 64, 127
1, 111582, Note_on_c, 0, 70, 74
1, 111582, Note_off_c, 0, 74, 70
1, 111587, Note_off_c, 0, 80, 52
1, 111613, Note_on_c, 0, 75, 78
1, 111618, Note_off_c, 0, 70, 54
1, 111636, Note_on_c, 0, 73, 68
1, 111660, Note_off_c, 0, 75, 65
1, 111670, Note_on_c, 0, 76, 67
1, 111688, Note_off_c, 0, 76, 65
1, 111702, Note_off_c, 0, 73, 62
1, 111722, Note_on_c, 0, 74, 96
1, 111723, Note_on_c, 0, 68, 92
1, 111737, Note_off_c, 0, 74, 76
1, 111740, Note_on_c, 0, 80, 36
1, 111740, Control_c, 0, 64, 111
1, 111754, Note_off_c, 0, 68, 64
1, 111755, Control_c, 0, 64, 79
1, 111768, Note_off_c, 0, 80, 54
1, 111770, Control_c, 0, 64, 59
1, 111785, Control_c, 0, 64, 0
1, 111812, Note_on_c, 0, 72, 85
1, 111819, Note_on_c, 0, 84, 72
1, 111830, Note_on_c, 0, 74, 52
1, 111832, Note_off_c, 0, 72, 69
1, 111842, Note_off_c, 0, 84, 71
1, 111851, Note_off_c, 0, 74, 63
1, 111904, Note_on_c, 0, 82, 87
1, 111905, Note_on_c, 0, 70, 87
1, 111916, Note_on_c, 0, 54, 76
1, 111922, Note_off_c, 0, 70, 74
1, 111922, Note_off_c, 0, 82, 71
1, 111943, Note_off_c, 0, 54, 69
1, 111982, Note_on_c, 0, 68, 92
1, 111991, Note_on_c, 0, 80, 82
1, 112011, Note_off_c, 0, 68, 65
1, 112014, Note_off_c, 0, 80, 65
1, 112061, Note_on_c, 0, 46, 76
1, 112074, Note_on_c, 0, 84, 90
1, 112075, Control_c, 0, 64, 56
1, 112078, Note_on_c, 0, 72, 86
1, 112080, Note_on_c, 0, 55, 67
1, 112082, Note_on_c, 0, 75, 82
1, 112090, Control_c, 0, 64, 65
1, 112091, Note_on_c, 0, 82, 63
1, 112093, Note_on_c, 0, 51, 63
1, 112093, Note_off_c, 0, 84, 69
1, 112097, Note_off_c, 0, 72, 70
1, 112101, Note_off_c, 0, 75, 72
1, 112105, Control_c, 0, 64, 70
1, 112110, Note_off_c, 0, 82, 63
1, 112113, Note_off_c, 0, 46, 61
1, 112116, Note_off_c, 0, 55, 64
1, 112119, Control_c, 0, 64, 75
1, 112120, Note_off_c, 0, 51, 69
1, 112134, Control_c, 0, 64, 79
1, 112146, Note_on_c, 0, 58, 61
1, 112149, Control_c, 0, 64, 84
1, 112164, Control_c, 0, 64, 90
1, 112169, Note_off_c, 0, 58, 61
1, 112178, Control_c, 0, 64, 96
1, 112193, Control_c, 0, 64, 104
1, 112208, Control_c, 0, 64, 107
1, 112223, Control_c, 0, 64, 106
1, 112238, Control_c, 0, 64, 100
1, 112253, Control_c, 0, 64, 91
1, 112257, Note_on_c, 0, 67, 92
1, 112265, Note_on_c, 0, 59, 75
1, 112268, Note_on_c, 0, 77, 65
1, 112268, Control_c, 0, 64, 82
1, 112276, Note_on_c, 0, 79, 53
1, 112282, Note_on_c, 0, 63, 62
1, 112283, Control_c, 0, 64, 74
1, 112286, Note_on_c, 0, 75, 43
1, 112298, Control_c, 0, 64, 70
1, 112301, Note_off_c, 0, 79, 60
1, 112303, Note_off_c, 0, 67, 59
1, 112313, Control_c, 0, 64, 65
1, 112313, Note_off_c, 0, 75, 58
1, 112315, Note_off_c, 0, 77, 44
1, 112325, Note_on_c, 0, 68, 71
1, 112327, Control_c, 0, 64, 46
1, 112342, Control_c, 0, 64, 0
1, 112350, Note_off_c, 0, 68, 67
1, 112370, Note_on_c, 0, 69, 82
1, 112385, Note_off_c, 0, 63, 54
1, 112420, Note_off_c, 0, 59, 55
1, 112424, Note_on_c, 0, 71, 11
1, 112425, Note_off_c, 0, 71, 127
1, 112428, Note_on_c, 0, 63, 64
1, 112431, Control_c, 0, 64, 60
1, 112432, Note_on_c, 0, 60, 75
1, 112433, Note_on_c, 0, 70, 89
1, 112434, Note_off_c, 0, 69, 44
1, 112435, Note_on_c, 0, 67, 80
1, 112445, Control_c, 0, 64, 68
1, 112451, Note_on_c, 0, 78, 40
1, 112451, Note_off_c, 0, 70, 73
1, 112460, Control_c, 0, 64, 75
1, 112466, Note_off_c, 0, 67, 60
1, 112475, Control_c, 0, 64, 83
1, 112483, Note_off_c, 0, 78, 34
1, 112489, Control_c, 0, 64, 90
1, 112499, Note_on_c, 0, 71, 71
1, 112504, Control_c, 0, 64, 98
1, 112519, Control_c, 0, 64, 112
1, 112524, Note_on_c, 0, 72, 59
1, 112534, Control_c, 0, 64, 127
1, 112537, Note_off_c, 0, 71, 66
1, 112552, Note_off_c, 0, 72, 67
1, 112554, Note_off_c, 0, 60, 59
1, 112576, Note_on_c, 0, 61, 65
1, 112581, Note_off_c, 0, 63, 24
1, 112618, Note_on_c, 0, 73, 90
1, 112629, Note_off_c, 0, 61, 57
1, 112632, Note_on_c, 0, 82, 77
1, 112647, Note_off_c, 0, 82, 71
1, 112649, Note_off_c, 0, 73, 62
1, 112669, Note_on_c, 0, 62, 52
1, 112680, Note_on_c, 0, 60, 51
1, 112700, Note_off_c, 0, 62, 63
1, 112706, Note_on_c, 0, 82, 96
1, 112708, Note_off_c, 0, 60, 58
1, 112720, Note_on_c, 0, 74, 83
1, 112727, Note_on_c, 0, 72, 59
1, 112739, Note_off_c, 0, 74, 74
1, 112742, Note_off_c, 0, 82, 62
1, 112745, Note_off_c, 0, 72, 66
1, 112750, Control_c, 0, 64, 110
1, 112754, Note_on_c, 0, 59, 54
1, 112765, Control_c, 0, 64, 73
1, 112776, Note_off_c, 0, 59, 64
1, 112780, Control_c, 0, 64, 0
1, 112794, Note_on_c, 0, 81, 89
1, 112796, Note_on_c, 0, 58, 71
1, 112798, Note_on_c, 0, 75, 92
1, 112828, Note_off_c, 0, 81, 65
1, 112834, Note_off_c, 0, 75, 62
1, 112847, Note_off_c, 0, 58, 64
1, 112867, Note_on_c, 0, 59, 35
1, 112876, Note_on_c, 0, 60, 41
1, 112899, Note_off_c, 0, 59, 48
1, 112903, Note_off_c, 0, 60, 57
1, 112925, Note_on_c, 0, 62, 64
1, 112959, Note_off_c, 0, 62, 63
1, 112977, Note_on_c, 0, 82, 77
1, 112985, Note_on_c, 0, 79, 71
1, 112986, Note_on_c, 0, 63, 74
1, 113013, Note_off_c, 0, 82, 56
1, 113015, Note_off_c, 0, 79, 59
1, 113067, Note_on_c, 0, 65, 59
1, 113070, Note_on_c, 0, 64, 64
1, 113080, Note_off_c, 0, 63, 60
1, 113097, Note_off_c, 0, 64, 67
1, 113100, Note_off_c, 0, 65, 66
1, 113106, Note_on_c, 0, 66, 81
1, 113135, Note_off_c, 0, 66, 65
1, 113155, Note_on_c, 0, 81, 79
1, 113162, Note_on_c, 0, 75, 73
1, 113163, Note_on_c, 0, 67, 68
1, 113183, Note_off_c, 0, 75, 71
1, 113188, Note_off_c, 0, 81, 63
1, 113190, Note_off_c, 0, 67, 63
1, 113222, Note_on_c, 0, 70, 73
1, 113284, Note_off_c, 0, 70, 62
1, 113290, Note_on_c, 0, 72, 78
1, 113311, Note_off_c, 0, 72, 68
1, 113334, Note_on_c, 0, 82, 85
1, 113339, Note_on_c, 0, 79, 65
1, 113341, Note_on_c, 0, 74, 80
1, 113364, Note_off_c, 0, 79, 65
1, 113366, Note_off_c, 0, 82, 64
1, 113397, Note_off_c, 0, 74, 62
1, 113410, Note_on_c, 0, 75, 81
1, 113472, Note_off_c, 0, 75, 65
1, 113478, Note_on_c, 0, 76, 75
1, 113497, Note_on_c, 0, 77, 91
1, 113500, Note_off_c, 0, 76, 68
1, 113507, Note_on_c, 0, 80, 82
1, 113530, Note_off_c, 0, 77, 67
1, 113551, Note_off_c, 0, 80, 60
1, 113573, Note_on_c, 0, 82, 80
1, 113603, Note_on_c, 0, 74, 79
1, 113606, Note_off_c, 0, 82, 62
1, 113630, Note_on_c, 0, 83, 74
1, 113681, Note_off_c, 0, 74, 61
1, 113683, Note_on_c, 0, 84, 83
1, 113689, Note_off_c, 0, 83, 63
1, 113696, Note_on_c, 0, 70, 65
1, 113726, Note_off_c, 0, 84, 62
1, 113747, Note_off_c, 0, 70, 61
1, 113748, Note_on_c, 0, 85, 80
1, 113768, Note_on_c, 0, 68, 66
1, 113770, Note_off_c, 0, 85, 68
1, 113793, Note_on_c, 0, 86, 80
1, 113798, Note_off_c, 0, 68, 66
1, 113816, Note_off_c, 0, 86, 66
1, 113843, Note_on_c, 0, 94, 92
1, 113867, Note_on_c, 0, 65, 67
1, 113887, Note_on_c, 0, 86, 85
1, 113904, Note_off_c, 0, 65, 57
1, 113904, Note_off_c, 0, 94, 65
1, 113910, Note_off_c, 0, 86, 67
1, 113946, Note_on_c, 0, 84, 68
1, 113949, Note_on_c, 0, 62, 61
1, 113962, Note_off_c, 0, 84, 67
1, 113988, Note_off_c, 0, 62, 58
1, 114008, Note_on_c, 0, 58, 75
1, 114027, Note_on_c, 0, 75, 81
1, 114045, Note_off_c, 0, 75, 71
1, 114059, Note_on_c, 0, 81, 26
1, 114060, Note_off_c, 0, 81, 127
1, 114086, Note_on_c, 0, 60, 77
1, 114092, Note_off_c, 0, 58, 64
1, 114124, Note_on_c, 0, 76, 80
1, 114126, Note_off_c, 0, 60, 66
1, 114128, Note_on_c, 0, 82, 69
1, 114139, Note_on_c, 0, 61, 72
1, 114145, Note_off_c, 0, 76, 69
1, 114148, Note_off_c, 0, 82, 67
1, 114170, Note_off_c, 0, 61, 65
1, 114188, Note_on_c, 0, 62, 75
1, 114199, Note_on_c, 0, 81, 82
1, 114207, Note_on_c, 0, 77, 81
1, 114226, Note_off_c, 0, 77, 69
1, 114226, Note_off_c, 0, 62, 57
1, 114226, Note_off_c, 0, 81, 67
1, 114232, Control_c, 0, 67, 14
1, 114247, Control_c, 0, 67, 24
1, 114251, Note_on_c, 0, 63, 75
1, 114262, Control_c, 0, 67, 38
1, 114277, Control_c, 0, 67, 53
1, 114292, Control_c, 0, 67, 64
1, 114307, Control_c, 0, 67, 73
1, 114310, Note_off_c, 0, 63, 60
1, 114322, Control_c, 0, 67, 81
1, 114325, Note_on_c, 0, 64, 76
1, 114337, Control_c, 0, 67, 89
1, 114352, Control_c, 0, 67, 97
1, 114357, Note_off_c, 0, 64, 62
1, 114366, Control_c, 0, 67, 102
1, 114381, Control_c, 0, 67, 107
1, 114394, Note_on_c, 0, 82, 67
1, 114396, Control_c, 0, 67, 111
1, 114399, Note_on_c, 0, 65, 70
1, 114402, Note_on_c, 0, 80, 53
1, 114411, Control_c, 0, 67, 116
1, 114412, Note_off_c, 0, 82, 67
1, 114423, Note_off_c, 0, 80, 61
1, 114426, Control_c, 0, 67, 122
1, 114427, Note_off_c, 0, 65, 64
1, 114440, Control_c, 0, 67, 127
1, 114464, Note_on_c, 0, 66, 68
1, 114495, Note_off_c, 0, 66, 66
1, 114518, Note_on_c, 0, 67, 72
1, 114563, Note_on_c, 0, 81, 72
1, 114571, Note_on_c, 0, 77, 58
1, 114572, Note_off_c, 0, 67, 60
1, 114579, Note_on_c, 0, 68, 73
1, 114583, Note_off_c, 0, 81, 71
1, 114591, Note_off_c, 0, 77, 62
1, 114631, Note_off_c, 0, 68, 62
1, 114648, Note_on_c, 0, 70, 76
1, 114682, Note_off_c, 0, 70, 65
1, 114685, Note_on_c, 0, 71, 64
1, 114740, Note_on_c, 0, 82, 79
1, 114745, Note_on_c, 0, 80, 64
1, 114751, Note_off_c, 0, 71, 65
1, 114753, Note_on_c, 0, 72, 76
1, 114760, Note_off_c, 0, 82, 70
1, 114761, Note_off_c, 0, 80, 67
1, 114796, Note_off_c, 0, 72, 61
1, 114824, Note_on_c, 0, 73, 81
1, 114865, Note_off_c, 0, 73, 63
1, 114877, Note_on_c, 0, 74, 69
1, 114925, Note_on_c, 0, 79, 80
1, 114936, Control_c, 0, 67, 122
1, 114941, Note_on_c, 0, 75, 79
1, 114942, Note_off_c, 0, 74, 67
1, 114951, Control_c, 0, 67, 113
1, 114960, Note_off_c, 0, 75, 72
1, 114966, Control_c, 0, 67, 102
1, 114969, Note_off_c, 0, 79, 61
1, 114981, Control_c, 0, 67, 87
1, 114995, Note_on_c, 0, 80, 70
1, 114995, Control_c, 0, 67, 69
1, 115010, Control_c, 0, 67, 52
1, 115016, Note_off_c, 0, 80, 69
1, 115025, Control_c, 0, 67, 42
1, 115041, Control_c, 0, 67, 36
1, 115053, Note_on_c, 0, 72, 64
1, 115056, Control_c, 0, 67, 32
1, 115062, Note_on_c, 0, 81, 71
1, 115070, Control_c, 0, 67, 27
1, 115082, Note_off_c, 0, 72, 62
1, 115085, Control_c, 0, 67, 23
1, 115086, Note_off_c, 0, 81, 65
1, 115100, Control_c, 0, 67, 16
1, 115115, Control_c, 0, 67, 9
1, 115124, Note_on_c, 0, 82, 80
1, 115130, Control_c, 0, 67, 0
1, 115133, Note_on_c, 0, 70, 66
1, 115142, Note_off_c, 0, 82, 70
1, 115183, Note_on_c, 0, 83, 75
1, 115213, Note_off_c, 0, 70, 62
1, 115216, Note_off_c, 0, 83, 61
1, 115236, Note_on_c, 0, 67, 60
1, 115251, Note_on_c, 0, 84, 72
1, 115278, Control_c, 0, 64, 27
1, 115289, Note_off_c, 0, 84, 63
1, 115293, Control_c, 0, 64, 44
1, 115297, Note_off_c, 0, 67, 59
1, 115306, Note_on_c, 0, 63, 74
1, 115307, Control_c, 0, 64, 57
1, 115321, Note_on_c, 0, 94, 75
1, 115322, Control_c, 0, 64, 64
1, 115331, Note_off_c, 0, 63, 69
1, 115337, Control_c, 0, 64, 68
1, 115352, Control_c, 0, 64, 70
1, 115363, Note_off_c, 0, 94, 64
1, 115367, Control_c, 0, 64, 70
1, 115381, Control_c, 0, 64, 71
1, 115386, Note_on_c, 0, 84, 72
1, 115424, Note_off_c, 0, 84, 64
1, 115436, Note_on_c, 0, 60, 66
1, 115441, Control_c, 0, 64, 70
1, 115462, Note_off_c, 0, 60, 67
1, 115463, Note_on_c, 0, 83, 73
1, 115485, Control_c, 0, 67, 10
1, 115500, Control_c, 0, 67, 26
1, 115509, Note_off_c, 0, 83, 63
1, 115514, Control_c, 0, 64, 68
1, 115514, Control_c, 0, 67, 42
1, 115529, Control_c, 0, 64, 63
1, 115529, Control_c, 0, 67, 59
1, 115544, Control_c, 0, 64, 51
1, 115544, Control_c, 0, 67, 73
1, 115547, Note_on_c, 0, 82, 73
1, 115554, Note_on_c, 0, 58, 84
1, 115559, Control_c, 0, 64, 23
1, 115559, Control_c, 0, 67, 87
1, 115569, Note_on_c, 0, 46, 61
1, 115574, Control_c, 0, 64, 21
1, 115574, Control_c, 0, 67, 101
1, 115579, Note_off_c, 0, 58, 66
1, 115589, Control_c, 0, 64, 30
1, 115589, Control_c, 0, 67, 112
1, 115594, Note_off_c, 0, 46, 58
1, 115611, Control_c, 0, 64, 35
1, 115611, Control_c, 0, 67, 120
1, 115626, Control_c, 0, 64, 36
1, 115626, Control_c, 0, 67, 124
1, 115639, Note_on_c, 0, 81, 60
1, 115641, Control_c, 0, 64, 38
1, 115641, Control_c, 0, 67, 127
1, 115643, Note_off_c, 0, 82, 45
1, 115656, Control_c, 0, 64, 42
1, 115656, Control_c, 0, 67, 127
1, 115670, Control_c, 0, 64, 46
1, 115684, Note_on_c, 0, 58, 75
1, 115685, Control_c, 0, 64, 51
1, 115688, Note_on_c, 0, 56, 72
1, 115700, Control_c, 0, 64, 54
1, 115714, Control_c, 0, 64, 55
1, 115717, Note_off_c, 0, 81, 58
1, 115717, Note_on_c, 0, 80, 73
1, 115720, Note_off_c, 0, 56, 62
1, 115723, Note_off_c, 0, 58, 57
1, 115729, Control_c, 0, 64, 50
1, 115744, Control_c, 0, 64, 23
1, 115759, Control_c, 0, 64, 0
1, 115770, Note_off_c, 0, 80, 63
1, 115806, Note_on_c, 0, 55, 47
1, 115815, Note_on_c, 0, 51, 71
1, 115816, Note_on_c, 0, 79, 70
1, 115818, Control_c, 0, 64, 49
1, 115824, Note_on_c, 0, 63, 78
1, 115834, Control_c, 0, 64, 62
1, 115848, Note_off_c, 0, 55, 64
1, 115849, Control_c, 0, 64, 65
1, 115863, Note_off_c, 0, 51, 62
1, 115864, Control_c, 0, 64, 67
1, 115869, Note_off_c, 0, 63, 61
1, 115878, Control_c, 0, 64, 68
1, 115881, Note_off_c, 0, 79, 55
1, 115893, Control_c, 0, 64, 69
1, 115899, Note_on_c, 0, 82, 70
1, 115908, Control_c, 0, 64, 70
1, 115923, Control_c, 0, 64, 71
1, 115935, Note_on_c, 0, 62, 77
1, 115937, Control_c, 0, 64, 71
1, 115940, Note_off_c, 0, 82, 56
1, 115952, Control_c, 0, 64, 72
1, 115952, Control_c, 0, 67, 127
1, 115960, Note_on_c, 0, 87, 73
1, 115960, Note_off_c, 0, 62, 68
1, 115967, Control_c, 0, 67, 126
1, 115982, Control_c, 0, 64, 73
1, 115986, Note_off_c, 0, 87, 68
1, 115997, Control_c, 0, 64, 72
1, 116012, Control_c, 0, 67, 125
1, 116027, Control_c, 0, 64, 70
1, 116027, Control_c, 0, 67, 124
1, 116042, Control_c, 0, 64, 68
1, 116042, Control_c, 0, 67, 123
1, 116050, Note_on_c, 0, 67, 77
1, 116054, Note_on_c, 0, 91, 74
1, 116057, Control_c, 0, 64, 65
1, 116057, Control_c, 0, 67, 123
1, 116072, Control_c, 0, 64, 64
1, 116072, Control_c, 0, 67, 122
1, 116082, Note_off_c, 0, 67, 63
1, 116086, Control_c, 0, 67, 122
1, 116101, Control_c, 0, 67, 121
1, 116114, Note_off_c, 0, 91, 62
1, 116118, Note_on_c, 0, 92, 77
1, 116130, Control_c, 0, 64, 63
1, 116130, Control_c, 0, 67, 120
1, 116140, Note_on_c, 0, 65, 84
1, 116160, Control_c, 0, 64, 62
1, 116160, Control_c, 0, 67, 120
1, 116161, Note_off_c, 0, 92, 64
1, 116168, Note_off_c, 0, 65, 67
1, 116175, Control_c, 0, 67, 119
1, 116188, Note_on_c, 0, 93, 77
1, 116190, Control_c, 0, 64, 62
1, 116251, Note_on_c, 0, 63, 91
1, 116256, Note_on_c, 0, 55, 72
1, 116259, Note_on_c, 0, 94, 78
1, 116264, Note_off_c, 0, 93, 65
1, 116278, Control_c, 0, 67, 118
1, 116282, Note_off_c, 0, 63, 61
1, 116292, Note_off_c, 0, 55, 60
1, 116293, Control_c, 0, 67, 114
1, 116300, Note_off_c, 0, 94, 65
1, 116308, Control_c, 0, 67, 109
1, 116322, Note_on_c, 0, 103, 71
1, 116323, Control_c, 0, 67, 102
1, 116337, Control_c, 0, 67, 95
1, 116357, Note_on_c, 0, 62, 76
1, 116360, Control_c, 0, 67, 86
1, 116375, Control_c, 0, 67, 76
1, 116390, Control_c, 0, 67, 65
1, 116390, Note_on_c, 0, 101, 74
1, 116401, Note_off_c, 0, 62, 58
1, 116405, Note_off_c, 0, 103, 58
1, 116405, Control_c, 0, 67, 53
1, 116419, Control_c, 0, 64, 61
1, 116419, Control_c, 0, 67, 45
1, 116434, Control_c, 0, 67, 41
1, 116449, Control_c, 0, 67, 38
1, 116450, Note_on_c, 0, 99, 74
1, 116453, Note_on_c, 0, 59, 79
1, 116464, Control_c, 0, 67, 36
1, 116470, Note_off_c, 0, 101, 64
1, 116477, Note_off_c, 0, 59, 66
1, 116479, Control_c, 0, 67, 33
1, 116493, Control_c, 0, 64, 62
1, 116493, Control_c, 0, 67, 31
1, 116508, Control_c, 0, 67, 30
1, 116511, Note_on_c, 0, 98, 77
1, 116523, Control_c, 0, 64, 61
1, 116524, Note_off_c, 0, 99, 64
1, 116537, Control_c, 0, 67, 30
1, 116540, Note_off_c, 0, 98, 66
1, 116545, Note_on_c, 0, 62, 80
1, 116552, Control_c, 0, 64, 61
1, 116567, Control_c, 0, 67, 29
1, 116570, Note_off_c, 0, 62, 68
1, 116571, Note_on_c, 0, 96, 78
1, 116597, Control_c, 0, 67, 29
1, 116599, Note_off_c, 0, 96, 64
1, 116611, Control_c, 0, 64, 61
1, 116626, Control_c, 0, 64, 62
1, 116641, Note_on_c, 0, 95, 82
1, 116642, Control_c, 0, 64, 62
1, 116644, Note_on_c, 0, 56, 78
1, 116646, Note_on_c, 0, 62, 81
1, 116657, Control_c, 0, 64, 63
1, 116672, Control_c, 0, 64, 63
1, 116673, Note_off_c, 0, 62, 66
1, 116702, Control_c, 0, 64, 64
1, 116702, Control_c, 0, 67, 28
1, 116706, Note_on_c, 0, 96, 79
1, 116706, Note_off_c, 0, 56, 60
1, 116710, Note_off_c, 0, 95, 62
1, 116716, Control_c, 0, 67, 28
1, 116731, Control_c, 0, 64, 64
1, 116731, Control_c, 0, 67, 27
1, 116739, Note_on_c, 0, 60, 81
1, 116746, Control_c, 0, 64, 65
1, 116746, Control_c, 0, 67, 23
1, 116751, Note_on_c, 0, 92, 84
1, 116760, Control_c, 0, 67, 16
1, 116775, Control_c, 0, 64, 65
1, 116775, Control_c, 0, 67, 0
1, 116780, Note_off_c, 0, 96, 64
1, 116786, Note_off_c, 0, 60, 64
1, 116799, Note_off_c, 0, 92, 66
1, 116820, Control_c, 0, 64, 66
1, 116821, Note_on_c, 0, 59, 84
1, 116826, Note_on_c, 0, 89, 81
1, 116847, Note_off_c, 0, 89, 68
1, 116850, Note_off_c, 0, 59, 64
1, 116850, Control_c, 0, 64, 67
1, 116864, Control_c, 0, 64, 68
1, 116879, Control_c, 0, 64, 70
1, 116892, Note_on_c, 0, 60, 81
1, 116892, Note_on_c, 0, 86, 83
1, 116894, Control_c, 0, 64, 72
1, 116909, Control_c, 0, 64, 73
1, 116924, Note_off_c, 0, 60, 65
1, 116924, Control_c, 0, 64, 72
1, 116939, Control_c, 0, 64, 68
1, 116942, Note_off_c, 0, 86, 66
1, 116948, Note_on_c, 0, 84, 73
1, 116953, Control_c, 0, 64, 63
1, 116968, Control_c, 0, 64, 57
1, 116969, Note_off_c, 0, 84, 71
1, 116983, Control_c, 0, 64, 57
1, 116998, Control_c, 0, 64, 59
1, 117000, Note_on_c, 0, 44, 80
1, 117001, Note_on_c, 0, 83, 75
1, 117004, Note_on_c, 0, 53, 84
1, 117013, Control_c, 0, 64, 60
1, 117019, Note_off_c, 0, 83, 69
1, 117027, Note_off_c, 0, 53, 71
1, 117034, Note_off_c, 0, 44, 61
1, 117058, Note_on_c, 0, 80, 83
1, 117086, Control_c, 0, 64, 60
1, 117088, Note_on_c, 0, 55, 82
1, 117109, Control_c, 0, 64, 59
1, 117120, Note_on_c, 0, 75, 75
1, 117132, Note_off_c, 0, 55, 67
1, 117133, Note_off_c, 0, 80, 63
1, 117144, Note_off_c, 0, 75, 66
1, 117154, Control_c, 0, 64, 60
1, 117168, Control_c, 0, 64, 61
1, 117183, Control_c, 0, 64, 62
1, 117185, Note_on_c, 0, 71, 77
1, 117186, Note_on_c, 0, 58, 84
1, 117198, Control_c, 0, 64, 62
1, 117215, Note_off_c, 0, 71, 59
1, 117228, Control_c, 0, 64, 62
1, 117231, Note_off_c, 0, 58, 61
1, 117237, Note_on_c, 0, 73, 75
1, 117242, Control_c, 0, 64, 61
1, 117261, Note_off_c, 0, 73, 69
1, 117270, Note_on_c, 0, 56, 75
1, 117286, Control_c, 0, 64, 61
1, 117297, Note_on_c, 0, 74, 82
1, 117297, Note_off_c, 0, 56, 68
1, 117301, Control_c, 0, 64, 59
1, 117316, Control_c, 0, 64, 49
1, 117331, Control_c, 0, 64, 0
1, 117339, Note_off_c, 0, 74, 64
1, 117361, Note_on_c, 0, 55, 87
1, 117363, Note_on_c, 0, 75, 80
1, 117368, Note_on_c, 0, 46, 82
1, 117392, Note_off_c, 0, 75, 63
1, 117395, Note_off_c, 0, 55, 66
1, 117405, Control_c, 0, 64, 44
1, 117416, Note_off_c, 0, 46, 57
1, 117420, Control_c, 0, 64, 64
1, 117425, Note_on_c, 0, 76, 76
1, 117436, Control_c, 0, 64, 68
1, 117451, Control_c, 0, 64, 72
1, 117456, Note_on_c, 0, 56, 88
1, 117465, Control_c, 0, 64, 75
1, 117476, Note_off_c, 0, 76, 59
1, 117479, Note_on_c, 0, 77, 78
1, 117480, Control_c, 0, 64, 79
1, 117489, Note_off_c, 0, 56, 61
1, 117495, Control_c, 0, 64, 84
1, 117509, Control_c, 0, 64, 90
1, 117521, Note_off_c, 0, 77, 60
1, 117524, Control_c, 0, 64, 95
1, 117533, Note_on_c, 0, 78, 75
1, 117539, Control_c, 0, 64, 97
1, 117551, Note_on_c, 0, 57, 84
1, 117554, Control_c, 0, 64, 96
1, 117561, Note_off_c, 0, 78, 64
1, 117569, Control_c, 0, 64, 94
1, 117583, Control_c, 0, 64, 86
1, 117587, Note_on_c, 0, 79, 84
1, 117589, Note_off_c, 0, 57, 60
1, 117598, Control_c, 0, 64, 76
1, 117613, Control_c, 0, 64, 67
1, 117625, Note_on_c, 0, 58, 92
1, 117628, Control_c, 0, 64, 65
1, 117639, Note_off_c, 0, 79, 62
1, 117643, Control_c, 0, 64, 68
1, 117657, Control_c, 0, 64, 70
1, 117658, Note_on_c, 0, 80, 79
1, 117659, Note_off_c, 0, 58, 67
1, 117672, Control_c, 0, 64, 72
1, 117681, Note_off_c, 0, 80, 66
1, 117687, Control_c, 0, 64, 73
1, 117702, Control_c, 0, 64, 74
1, 117710, Note_on_c, 0, 46, 76
1, 117713, Note_on_c, 0, 59, 90
1, 117717, Control_c, 0, 64, 79
1, 117717, Note_on_c, 0, 81, 86
1, 117723, Note_on_c, 0, 56, 67
1, 117732, Control_c, 0, 64, 84
1, 117733, Note_off_c, 0, 46, 66
1, 117747, Control_c, 0, 64, 91
1, 117750, Note_off_c, 0, 56, 58
1, 117752, Note_off_c, 0, 59, 62
1, 117762, Control_c, 0, 64, 99
1, 117765, Note_off_c, 0, 81, 63
1, 117776, Note_on_c, 0, 82, 86
1, 117776, Control_c, 0, 64, 109
1, 117791, Control_c, 0, 64, 127
1, 117799, Note_on_c, 0, 60, 98
1, 117813, Note_off_c, 0, 82, 62
1, 117836, Note_off_c, 0, 60, 62
1, 117842, Note_on_c, 0, 83, 89
1, 117893, Note_on_c, 0, 61, 92
1, 117912, Note_on_c, 0, 84, 88
1, 117922, Note_off_c, 0, 83, 62
1, 117949, Note_off_c, 0, 61, 59
1, 117956, Note_on_c, 0, 85, 74
1, 117980, Note_off_c, 0, 84, 59
1, 117989, Note_on_c, 0, 62, 66
1, 117991, Control_c, 0, 64, 94
1, 118006, Control_c, 0, 64, 63
1, 118013, Note_on_c, 0, 86, 83
1, 118017, Note_off_c, 0, 62, 64
1, 118021, Control_c, 0, 64, 0
1, 118042, Note_off_c, 0, 85, 63
1, 118056, Note_on_c, 0, 51, 81
1, 118057, Note_on_c, 0, 63, 105
1, 118060, Note_on_c, 0, 55, 75
1, 118074, Note_on_c, 0, 87, 86
1, 118080, Control_c, 0, 64, 63
1, 118082, Note_off_c, 0, 51, 70
1, 118088, Note_off_c, 0, 55, 67
1, 118093, Note_off_c, 0, 63, 66
1, 118095, Control_c, 0, 64, 78
1, 118101, Note_off_c, 0, 86, 64
1, 118107, Note_on_c, 0, 82, 74
1, 118109, Control_c, 0, 64, 98
1, 118124, Control_c, 0, 64, 127
1, 118125, Note_off_c, 0, 82, 68
1, 118131, Note_on_c, 0, 83, 64
1, 118133, Note_off_c, 0, 87, 64
1, 118149, Note_off_c, 0, 83, 66
1, 118172, Note_on_c, 0, 79, 88
1, 118210, Note_off_c, 0, 79, 64
1, 118242, Note_on_c, 0, 75, 91
1, 118257, Note_off_c, 0, 75, 76
1, 118303, Note_on_c, 0, 72, 73
1, 118332, Control_c, 0, 64, 103
1, 118334, Note_on_c, 0, 70, 77
1, 118342, Note_off_c, 0, 72, 64
1, 118347, Control_c, 0, 64, 85
1, 118358, Note_off_c, 0, 70, 69
1, 118362, Control_c, 0, 64, 83
1, 118377, Control_c, 0, 64, 96
1, 118393, Control_c, 0, 64, 127
1, 118409, Note_on_c, 0, 71, 103
1, 118415, Note_on_c, 0, 58, 75
1, 118417, Note_on_c, 0, 83, 91
1, 118431, Note_on_c, 0, 68, 45
1, 118434, Note_on_c, 0, 61, 53
1, 118438, Note_off_c, 0, 58, 68
1, 118439, Note_off_c, 0, 71, 68
1, 118456, Note_off_c, 0, 83, 65
1, 118459, Note_off_c, 0, 68, 60
1, 118462, Note_off_c, 0, 61, 57
1, 118500, Note_on_c, 0, 72, 99
1, 118504, Note_on_c, 0, 87, 71
1, 118525, Note_off_c, 0, 87, 67
1, 118534, Note_off_c, 0, 72, 62
1, 118565, Note_on_c, 0, 86, 70
1, 118577, Note_on_c, 0, 73, 96
1, 118585, Note_on_c, 0, 88, 55
1, 118616, Note_off_c, 0, 88, 37
1, 118623, Note_on_c, 0, 87, 80
1, 118627, Note_off_c, 0, 86, 65
1, 118638, Note_off_c, 0, 73, 62
1, 118671, Note_on_c, 0, 74, 94
1, 118689, Note_on_c, 0, 90, 92
1, 118696, Control_c, 0, 64, 100
1, 118701, Note_off_c, 0, 74, 62
1, 118703, Note_off_c, 0, 87, 63
1, 118711, Control_c, 0, 64, 66
1, 118725, Control_c, 0, 64, 0
1, 118751, Note_on_c, 0, 75, 113
1, 118752, Note_on_c, 0, 63, 76
1, 118753, Note_on_c, 0, 67, 88
1, 118755, Control_c, 0, 64, 23
1, 118760, Note_on_c, 0, 91, 87
1, 118763, Note_on_c, 0, 82, 99
1, 118770, Control_c, 0, 64, 67
1, 118778, Note_off_c, 0, 63, 68
1, 118780, Note_off_c, 0, 90, 66
1, 118784, Note_off_c, 0, 67, 63
1, 118785, Control_c, 0, 64, 86
1, 118791, Note_off_c, 0, 75, 66
1, 118799, Control_c, 0, 64, 127
1, 118803, Note_off_c, 0, 91, 67
1, 118816, Note_on_c, 0, 87, 84
1, 118834, Note_off_c, 0, 82, 40
1, 118859, Note_on_c, 0, 84, 83
1, 118880, Note_off_c, 0, 87, 65
1, 118916, Note_on_c, 0, 82, 105
1, 118917, Note_off_c, 0, 84, 61
1, 118965, Note_off_c, 0, 82, 65
1, 118979, Note_on_c, 0, 79, 87
1, 119034, Note_off_c, 0, 79, 55
1, 119052, Note_on_c, 0, 75, 80
1, 119070, Note_on_c, 0, 95, 99
1, 119076, Note_on_c, 0, 87, 106
1, 119110, Note_off_c, 0, 75, 66
1, 119116, Note_off_c, 0, 87, 66
1, 119116, Note_off_c, 0, 95, 67
1, 119134, Note_on_c, 0, 70, 81
1, 119179, Note_off_c, 0, 70, 64
1, 119201, Note_on_c, 0, 96, 100
1, 119203, Note_on_c, 0, 88, 105
1, 119229, Note_on_c, 0, 71, 72
1, 119236, Note_off_c, 0, 96, 69
1, 119237, Note_on_c, 0, 69, 73
1, 119239, Note_off_c, 0, 88, 67
1, 119252, Note_off_c, 0, 71, 70
1, 119260, Note_off_c, 0, 69, 70
1, 119299, Note_on_c, 0, 88, 92
1, 119305, Note_on_c, 0, 67, 87
1, 119307, Note_on_c, 0, 89, 88
1, 119308, Note_on_c, 0, 96, 86
1, 119309, Note_on_c, 0, 97, 62
1, 119322, Note_off_c, 0, 89, 66
1, 119325, Note_off_c, 0, 96, 74
1, 119327, Note_off_c, 0, 97, 66
1, 119333, Note_off_c, 0, 88, 61
1, 119338, Note_off_c, 0, 67, 60
1, 119387, Note_on_c, 0, 67, 71
1, 119392, Note_on_c, 0, 90, 99
1, 119395, Note_on_c, 0, 98, 94
1, 119407, Note_on_c, 0, 97, 73
1, 119416, Control_c, 0, 64, 95
1, 119421, Note_off_c, 0, 67, 60
1, 119422, Note_off_c, 0, 97, 69
1, 119424, Note_on_c, 0, 65, 64
1, 119428, Note_off_c, 0, 98, 68
1, 119430, Control_c, 0, 64, 63
1, 119431, Note_on_c, 0, 64, 55
1, 119442, Note_off_c, 0, 90, 65
1, 119445, Control_c, 0, 64, 0
1, 119448, Note_off_c, 0, 65, 61
1, 119453, Note_off_c, 0, 64, 63
1, 119460, Control_c, 0, 64, 63
1, 119471, Note_on_c, 0, 63, 91
1, 119473, Note_on_c, 0, 87, 115
1, 119473, Note_on_c, 0, 99, 103
1, 119475, Control_c, 0, 64, 79
1, 119477, Note_on_c, 0, 91, 102
1, 119488, Note_on_c, 0, 97, 74
1, 119489, Control_c, 0, 64, 127
1, 119494, Note_off_c, 0, 99, 68
1, 119497, Note_off_c, 0, 91, 66
1, 119504, Note_off_c, 0, 97, 68
1, 119505, Note_off_c, 0, 63, 66
1, 119509, Note_off_c, 0, 87, 65
1, 119637, Control_c, 0, 64, 105
1, 119652, Control_c, 0, 64, 108
1, 119653, Note_on_c, 0, 51, 88
1, 119659, Note_on_c, 0, 67, 83
1, 119667, Control_c, 0, 64, 127
1, 119708, Note_on_c, 0, 68, 79
1, 119723, Note_off_c, 0, 51, 55
1, 119723, Note_off_c, 0, 67, 61
1, 119729, Note_on_c, 0, 53, 81
1, 119755, Note_off_c, 0, 53, 70
1, 119771, Note_off_c, 0, 68, 61
1, 119772, Note_on_c, 0, 70, 80
1, 119775, Note_on_c, 0, 55, 75
1, 119813, Note_off_c, 0, 70, 61
1, 119825, Note_off_c, 0, 55, 64
1, 119842, Note_on_c, 0, 72, 88
1, 119847, Note_on_c, 0, 56, 86
1, 119893, Note_off_c, 0, 56, 67
1, 119894, Note_on_c, 0, 58, 77
1, 119898, Note_on_c, 0, 74, 84
1, 119900, Note_off_c, 0, 72, 64
1, 119921, Note_off_c, 0, 58, 64
1, 119938, Note_on_c, 0, 60, 73
1, 119958, Note_on_c, 0, 75, 83
1, 119958, Note_off_c, 0, 74, 65
1, 119963, Note_off_c, 0, 60, 67
1, 119988, Note_on_c, 0, 62, 85
1, 119999, Note_off_c, 0, 75, 64
1, 120019, Note_on_c, 0, 77, 90
1, 120049, Note_on_c, 0, 63, 83
1, 120068, Note_off_c, 0, 62, 58
1, 120077, Poly_aftertouch_c, 0, 60, 127
1, 120079, Note_on_c, 0, 79, 91
1, 120089, Note_off_c, 0, 77, 62
1, 120118, Note_on_c, 0, 65, 90
1, 120120, Poly_aftertouch_c, 0, 60, 0
1, 120127, Note_off_c, 0, 63, 61
1, 120140, Note_on_c, 0, 80, 85
1, 120163, Note_off_c, 0, 65, 68
1, 120165, Note_off_c, 0, 79, 63
1, 120179, Note_on_c, 0, 67, 92
1, 120193, Note_on_c, 0, 82, 94
1, 120210, Note_off_c, 0, 80, 65
1, 120220, Note_off_c, 0, 82, 70
1, 120231, Note_off_c, 0, 67, 62
1, 120245, Note_on_c, 0, 68, 86
1, 120255, Note_on_c, 0, 84, 92
1, 120298, Note_on_c, 0, 70, 87
1, 120301, Note_off_c, 0, 68, 64
1, 120321, Note_on_c, 0, 86, 93
1, 120331, Note_off_c, 0, 84, 58
1, 120338, Note_off_c, 0, 70, 65
1, 120340, Note_on_c, 0, 72, 72
1, 120370, Note_off_c, 0, 72, 63
1, 120373, Note_on_c, 0, 87, 91
1, 120379, Note_off_c, 0, 86, 68
1, 120396, Note_on_c, 0, 74, 92
1, 120421, Note_off_c, 0, 87, 65
1, 120443, Note_on_c, 0, 89, 90
1, 120462, Note_on_c, 0, 75, 80
1, 120486, Note_off_c, 0, 74, 63
1, 120500, Note_on_c, 0, 91, 95
1, 120518, Note_off_c, 0, 89, 61
1, 120522, Note_on_c, 0, 77, 87
1, 120540, Note_off_c, 0, 75, 62
1, 120543, Note_on_c, 0, 92, 91
1, 120575, Note_off_c, 0, 91, 66
1, 120580, Note_off_c, 0, 77, 61
1, 120589, Note_on_c, 0, 79, 90
1, 120595, Note_on_c, 0, 94, 83
1, 120610, Note_off_c, 0, 92, 66
1, 120611, Note_off_c, 0, 94, 74
1, 120629, Note_off_c, 0, 79, 67
1, 120650, Note_on_c, 0, 96, 94
1, 120699, Note_on_c, 0, 98, 93
1, 120719, Note_off_c, 0, 96, 64
1, 120749, Note_on_c, 0, 99, 82
1, 120772, Note_on_c, 0, 101, 87
1, 120781, Note_off_c, 0, 98, 66
1, 120804, Note_on_c, 0, 103, 109
1, 120810, Note_on_c, 0, 87, 104
1, 120811, Note_off_c, 0, 87, 127
1, 120820, Note_on_c, 0, 86, 87
1, 120822, Note_off_c, 0, 99, 63
1, 120826, Note_off_c, 0, 101, 66
1, 120833, Note_off_c, 0, 103, 69
1, 120837, Note_off_c, 0, 86, 74
1, 120890, Note_on_c, 0, 87, 33
1, 120921, Note_off_c, 0, 87, 51
1, 121485, Note_on_c, 0, 63, 106
1, 121491, Control_c, 0, 64, 91
1, 121506, Control_c, 0, 64, 60
1, 121521, Control_c, 0, 64, 0
1, 121617, Control_c, 0, 64, 58
1, 121631, Control_c, 0, 64, 66
1, 121646, Control_c, 0, 64, 73
1, 121661, Control_c, 0, 64, 81
1, 121676, Control_c, 0, 64, 91
1, 121691, Control_c, 0, 64, 103
1, 121705, Control_c, 0, 64, 121
1, 121720, Control_c, 0, 64, 127
1, 122108, Note_on_c, 0, 58, 58
1, 122164, Note_on_c, 0, 55, 95
1, 122543, Control_c, 0, 64, 119
1, 122558, Control_c, 0, 64, 109
1, 122572, Control_c, 0, 64, 101
1, 122587, Control_c, 0, 64, 93
1, 122589, Note_on_c, 0, 57, 58
1, 122599, Note_on_c, 0, 54, 79
1, 122602, Control_c, 0, 64, 85
1, 122610, Note_off_c, 0, 55, 58
1, 122617, Control_c, 0, 64, 77
1, 122632, Control_c, 0, 64, 69
1, 122646, Control_c, 0, 64, 60
1, 122661, Control_c, 0, 64, 49
1, 122676, Control_c, 0, 64, 46
1, 122691, Control_c, 0, 64, 45
1, 122735, Control_c, 0, 64, 44
1, 122750, Control_c, 0, 64, 44
1, 122779, Control_c, 0, 64, 43
1, 122794, Control_c, 0, 64, 43
1, 122809, Control_c, 0, 64, 42
1, 122824, Control_c, 0, 64, 42
1, 122839, Control_c, 0, 64, 40
1, 122853, Control_c, 0, 64, 38
1, 122868, Control_c, 0, 64, 33
1, 122883, Control_c, 0, 64, 30
1, 122892, Note_off_c, 0, 57, 55
1, 122898, Control_c, 0, 64, 28
1, 122913, Control_c, 0, 64, 26
1, 122914, Note_off_c, 0, 54, 58
1, 122921, Note_on_c, 0, 56, 50
1, 122924, Note_on_c, 0, 53, 61
1, 122928, Control_c, 0, 64, 23
1, 122943, Control_c, 0, 64, 14
1, 122957, Control_c, 0, 64, 0
1, 123308, Note_off_c, 0, 56, 56
1, 123329, Note_off_c, 0, 53, 59
1, 123348, Note_on_c, 0, 55, 37
1, 123360, Note_on_c, 0, 52, 42
1, 123484, Control_c, 0, 64, 42
1, 123499, Control_c, 0, 64, 57
1, 123513, Control_c, 0, 64, 65
1, 123528, Control_c, 0, 64, 70
1, 123543, Control_c, 0, 64, 76
1, 123558, Control_c, 0, 64, 82
1, 123573, Control_c, 0, 64, 89
1, 123588, Control_c, 0, 64, 97
1, 123602, Control_c, 0, 64, 108
1, 123610, Note_off_c, 0, 55, 38
1, 123617, Control_c, 0, 64, 123
1, 123632, Control_c, 0, 64, 127
1, 123762, Note_off_c, 0, 58, 41
1, 123767, Note_off_c, 0, 63, 19
1, 124053, Note_off_c, 0, 52, 40
1, 124704, Note_on_c, 0, 58, 65
1, 125093, Note_on_c, 0, 63, 91
1, 125130, Control_c, 0, 64, 96
1, 125145, Control_c, 0, 64, 77
1, 125160, Control_c, 0, 64, 59
1, 125175, Control_c, 0, 64, 0
1, 125204, Note_off_c, 0, 58, 58
1, 125219, Control_c, 0, 64, 51
1, 125234, Control_c, 0, 64, 66
1, 125249, Control_c, 0, 64, 75
1, 125264, Control_c, 0, 64, 85
1, 125279, Control_c, 0, 64, 101
1, 125293, Control_c, 0, 64, 127
1, 125330, Note_on_c, 0, 66, 93
1, 125372, Note_off_c, 0, 63, 60
1, 125436, Note_on_c, 0, 35, 66
1, 125533, Note_on_c, 0, 54, 64
1, 125536, Note_on_c, 0, 42, 65
1, 125570, Note_off_c, 0, 35, 38
1, 125588, Note_off_c, 0, 66, 56
1, 125590, Note_off_c, 0, 54, 64
1, 125607, Note_on_c, 0, 58, 68
1, 125673, Note_off_c, 0, 58, 62
1, 125683, Note_on_c, 0, 63, 68
1, 125783, Note_on_c, 0, 70, 83
1, 125826, Note_off_c, 0, 63, 55
1, 125857, Note_on_c, 0, 51, 87
1, 125876, Note_off_c, 0, 42, 62
1, 125906, Note_off_c, 0, 70, 57
1, 125914, Note_off_c, 0, 51, 65
1, 126257, Control_c, 0, 67, 8
1, 126272, Control_c, 0, 67, 9
1, 126287, Control_c, 0, 67, 9
1, 126302, Control_c, 0, 67, 11
1, 126317, Control_c, 0, 67, 12
1, 126332, Control_c, 0, 67, 13
1, 126346, Control_c, 0, 67, 16
1, 126361, Control_c, 0, 67, 17
1, 126376, Control_c, 0, 67, 20
1, 126391, Control_c, 0, 67, 22
1, 126406, Control_c, 0, 67, 25
1, 126420, Control_c, 0, 67, 28
1, 126435, Control_c, 0, 67, 31
1, 126450, Control_c, 0, 67, 34
1, 126464, Control_c, 0, 67, 37
1, 126479, Control_c, 0, 67, 40
1, 126494, Control_c, 0, 67, 43
1, 126509, Control_c, 0, 67, 45
1, 126524, Control_c, 0, 67, 46
1, 126538, Control_c, 0, 67, 48
1, 126553, Control_c, 0, 67, 49
1, 126568, Control_c, 0, 67, 50
1, 126583, Control_c, 0, 67, 52
1, 126598, Control_c, 0, 67, 54
1, 126612, Control_c, 0, 67, 57
1, 126627, Control_c, 0, 67, 59
1, 126642, Control_c, 0, 67, 61
1, 126657, Control_c, 0, 67, 64
1, 126672, Control_c, 0, 67, 66
1, 126687, Control_c, 0, 67, 69
1, 126701, Control_c, 0, 67, 71
1, 126716, Control_c, 0, 67, 74
1, 126729, Note_on_c, 0, 54, 37
1, 126731, Control_c, 0, 67, 76
1, 126746, Control_c, 0, 67, 78
1, 126761, Control_c, 0, 67, 80
1, 126776, Control_c, 0, 67, 83
1, 126791, Control_c, 0, 67, 85
1, 126806, Control_c, 0, 67, 88
1, 126815, Note_on_c, 0, 58, 36
1, 126820, Control_c, 0, 67, 90
1, 126827, Note_on_c, 0, 82, 72
1, 126842, Control_c, 0, 67, 93
1, 126845, Note_on_c, 0, 75, 59
1, 126845, Note_on_c, 0, 70, 60
1, 126850, Note_on_c, 0, 66, 51
1, 126857, Control_c, 0, 67, 97
1, 126859, Note_on_c, 0, 63, 36
1, 126871, Control_c, 0, 67, 102
1, 126873, Note_off_c, 0, 75, 66
1, 126874, Note_off_c, 0, 70, 66
1, 126883, Note_off_c, 0, 82, 61
1, 126886, Control_c, 0, 67, 105
1, 126901, Control_c, 0, 67, 109
1, 126916, Control_c, 0, 67, 112
1, 126931, Control_c, 0, 67, 115
1, 126946, Control_c, 0, 67, 118
1, 126961, Control_c, 0, 67, 120
1, 126976, Control_c, 0, 67, 122
1, 126990, Control_c, 0, 67, 123
1, 127005, Control_c, 0, 67, 125
1, 127021, Control_c, 0, 67, 126
1, 127035, Control_c, 0, 67, 126
1, 127050, Control_c, 0, 67, 127
1, 127065, Control_c, 0, 67, 127
1, 127497, Poly_aftertouch_c, 0, 56, 127
1, 127594, Note_off_c, 0, 66, 32
1, 127834, Poly_aftertouch_c, 0, 56, 0
1, 127928, Note_off_c, 0, 54, 44
1, 127938, Note_off_c, 0, 63, 60
1, 128105, Note_off_c, 0, 58, 39
1, 128563, Control_c, 0, 64, 116
1, 128578, Control_c, 0, 64, 85
1, 128592, Control_c, 0, 64, 66
1, 128607, Control_c, 0, 64, 0
1, 128630, Note_on_c, 0, 50, 58
1, 128638, Control_c, 0, 64, 55
1, 128653, Control_c, 0, 64, 68
1, 128667, Control_c, 0, 64, 76
1, 128682, Control_c, 0, 64, 84
1, 128697, Control_c, 0, 64, 93
1, 128712, Control_c, 0, 64, 102
1, 128722, Note_off_c, 0, 50, 64
1, 128727, Control_c, 0, 64, 111
1, 128741, Control_c, 0, 64, 119
1, 128756, Control_c, 0, 64, 127
1, 128845, Control_c, 0, 64, 110
1, 128860, Control_c, 0, 64, 85
1, 128875, Control_c, 0, 64, 67
1, 128885, Note_on_c, 0, 49, 47
1, 128889, Control_c, 0, 64, 27
1, 128904, Control_c, 0, 64, 24
1, 128919, Control_c, 0, 64, 57
1, 128934, Control_c, 0, 64, 67
1, 128949, Control_c, 0, 64, 75
1, 128964, Control_c, 0, 64, 85
1, 128979, Control_c, 0, 64, 97
1, 128994, Note_off_c, 0, 49, 62
1, 128994, Control_c, 0, 64, 109
1, 129008, Note_on_c, 0, 54, 39
1, 129008, Control_c, 0, 64, 117
1, 129023, Control_c, 0, 64, 118
1, 129038, Control_c, 0, 64, 119
1, 129052, Control_c, 0, 64, 124
1, 129067, Control_c, 0, 64, 127
1, 129094, Note_off_c, 0, 54, 53
1, 129134, Note_on_c, 0, 60, 31
1, 129190, Note_off_c, 0, 60, 52
1, 129211, Note_on_c, 0, 63, 38
1, 129282, Control_c, 0, 64, 119
1, 129297, Control_c, 0, 64, 104
1, 129312, Control_c, 0, 64, 88
1, 129313, Note_on_c, 0, 32, 37
1, 129327, Control_c, 0, 64, 76
1, 129336, Note_on_c, 0, 39, 30
1, 129341, Control_c, 0, 64, 65
1, 129356, Control_c, 0, 64, 57
1, 129371, Control_c, 0, 64, 58
1, 129385, Control_c, 0, 64, 64
1, 129386, Note_off_c, 0, 63, 37
1, 129400, Control_c, 0, 64, 69
1, 129410, Note_on_c, 0, 70, 38
1, 129417, Control_c, 0, 64, 76
1, 129432, Control_c, 0, 64, 88
1, 129446, Control_c, 0, 64, 108
1, 129461, Control_c, 0, 64, 127
1, 129465, Note_off_c, 0, 32, 37
1, 129483, Note_off_c, 0, 70, 61
1, 129539, Note_off_c, 0, 39, 41
1, 129606, Note_on_c, 0, 48, 39
1, 129667, Note_off_c, 0, 48, 57
1, 130851, Note_on_c, 0, 54, 29
1, 130873, Note_on_c, 0, 58, 34
1, 130902, Note_on_c, 0, 63, 32
1, 130904, Note_on_c, 0, 82, 50
1, 130916, Note_on_c, 0, 66, 30
1, 130925, Note_on_c, 0, 75, 38
1, 130926, Note_off_c, 0, 54, 59
1, 130928, Note_off_c, 0, 58, 59
1, 130934, Note_on_c, 0, 70, 43
1, 130939, Note_off_c, 0, 63, 61
1, 130952, Note_off_c, 0, 66, 52
1, 131438, Note_on_c, 0, 87, 57
1, 131438, Note_on_c, 0, 94, 52
1, 131460, Note_off_c, 0, 94, 63
1, 131471, Note_off_c, 0, 87, 66
1, 131870, Control_c, 0, 67, 126
1, 131885, Control_c, 0, 67, 122
1, 131900, Control_c, 0, 67, 120
1, 131915, Control_c, 0, 67, 117
1, 131930, Control_c, 0, 67, 115
1, 131945, Control_c, 0, 67, 113
1, 131959, Control_c, 0, 67, 111
1, 131974, Control_c, 0, 67, 110
1, 131989, Control_c, 0, 67, 109
1, 132004, Control_c, 0, 67, 107
1, 132019, Control_c, 0, 67, 105
1, 132033, Control_c, 0, 67, 103
1, 132048, Control_c, 0, 67, 102
1, 132085, Control_c, 0, 67, 102
1, 132100, Control_c, 0, 67, 103
1, 132115, Control_c, 0, 67, 103
1, 132130, Control_c, 0, 67, 104
1, 132145, Control_c, 0, 67, 105
1, 132159, Control_c, 0, 67, 105
1, 132174, Control_c, 0, 67, 106
1, 132189, Control_c, 0, 67, 106
1, 132204, Control_c, 0, 67, 107
1, 132218, Control_c, 0, 67, 108
1, 132233, Control_c, 0, 67, 108
1, 132248, Control_c, 0, 67, 109
1, 132263, Control_c, 0, 67, 109
1, 132278, Control_c, 0, 67, 110
1, 132307, Control_c, 0, 67, 110
1, 132322, Control_c, 0, 67, 111
1, 132337, Control_c, 0, 67, 111
1, 132352, Control_c, 0, 67, 112
1, 132366, Control_c, 0, 67, 113
1, 132381, Control_c, 0, 67, 113
1, 132396, Control_c, 0, 67, 114
1, 132410, Control_c, 0, 67, 114
1, 132425, Control_c, 0, 67, 115
1, 132440, Control_c, 0, 67, 116
1, 132455, Control_c, 0, 67, 117
1, 132470, Control_c, 0, 67, 118
1, 132484, Control_c, 0, 67, 120
1, 132499, Control_c, 0, 67, 121
1, 132514, Control_c, 0, 67, 123
1, 132529, Control_c, 0, 67, 125
1, 132544, Control_c, 0, 67, 127
1, 132559, Control_c, 0, 67, 127
1, 132636, Note_off_c, 0, 82, 44
1, 132645, Note_off_c, 0, 70, 38
1, 132762, Note_off_c, 0, 75, 43
1, 132982, Control_c, 0, 64, 96
1, 132997, Control_c, 0, 64, 80
1, 133012, Control_c, 0, 64, 67
1, 133027, Control_c, 0, 64, 35
1, 133041, Control_c, 0, 64, 0
1, 133417, Note_on_c, 0, 70, 44
1, 133604, Note_off_c, 0, 70, 53
1, 133623, Note_on_c, 0, 75, 48
1, 133647, Note_off_c, 0, 75, 60
1, 133835, Note_on_c, 0, 78, 54
1, 133866, Note_off_c, 0, 78, 64
1, 133945, Note_on_c, 0, 47, 32
1, 133999, Note_off_c, 0, 47, 55
1, 134070, Control_c, 0, 64, 28
1, 134085, Control_c, 0, 64, 61
1, 134090, Note_on_c, 0, 46, 36
1, 134092, Note_on_c, 0, 82, 50
1, 134100, Control_c, 0, 64, 68
1, 134115, Control_c, 0, 64, 76
1, 134130, Control_c, 0, 64, 83
1, 134132, Note_off_c, 0, 82, 63
1, 134133, Note_off_c, 0, 46, 61
1, 134145, Control_c, 0, 64, 91
1, 134160, Control_c, 0, 64, 99
1, 134174, Control_c, 0, 64, 106
1, 134189, Control_c, 0, 64, 112
1, 134205, Control_c, 0, 64, 119
1, 134220, Control_c, 0, 64, 127
1, 134449, Control_c, 0, 64, 108
1, 134464, Control_c, 0, 64, 93
1, 134479, Control_c, 0, 64, 84
1, 134494, Control_c, 0, 64, 79
1, 134497, Note_on_c, 0, 82, 63
1, 134502, Note_on_c, 0, 62, 41
1, 134505, Note_on_c, 0, 59, 46
1, 134505, Note_on_c, 0, 70, 54
1, 134506, Note_on_c, 0, 68, 49
1, 134508, Control_c, 0, 64, 78
1, 134520, Note_on_c, 0, 80, 42
1, 134523, Control_c, 0, 64, 79
1, 134526, Note_on_c, 0, 74, 32
1, 134538, Control_c, 0, 64, 84
1, 134547, Note_off_c, 0, 59, 61
1, 134550, Note_off_c, 0, 70, 63
1, 134553, Control_c, 0, 64, 90
1, 134562, Note_off_c, 0, 68, 61
1, 134562, Note_off_c, 0, 82, 62
1, 134565, Note_off_c, 0, 74, 50
1, 134565, Note_off_c, 0, 80, 45
1, 134568, Control_c, 0, 64, 95
1, 134571, Note_off_c, 0, 62, 60
1, 134583, Control_c, 0, 64, 99
1, 134597, Control_c, 0, 64, 101
1, 134655, Note_on_c, 0, 83, 72
1, 134665, Note_on_c, 0, 71, 66
1, 134693, Note_off_c, 0, 71, 65
1, 134701, Note_off_c, 0, 83, 58
1, 134819, Control_c, 0, 64, 100
1, 134834, Control_c, 0, 64, 96
1, 134837, Note_on_c, 0, 66, 52
1, 134844, Note_on_c, 0, 82, 63
1, 134846, Note_on_c, 0, 70, 54
1, 134849, Control_c, 0, 64, 89
1, 134851, Note_on_c, 0, 58, 52
1, 134854, Note_on_c, 0, 74, 51
1, 134861, Note_on_c, 0, 62, 43
1, 134864, Control_c, 0, 64, 79
1, 134872, Note_off_c, 0, 70, 57
1, 134878, Note_off_c, 0, 74, 62
1, 134878, Note_off_c, 0, 82, 52
1, 134878, Control_c, 0, 64, 65
1, 134880, Note_on_c, 0, 78, 10
1, 134880, Note_off_c, 0, 66, 60
1, 134884, Note_off_c, 0, 58, 64
1, 134891, Note_off_c, 0, 62, 53
1, 134893, Control_c, 0, 64, 0
1, 134908, Note_off_c, 0, 78, 30
1, 135278, Note_on_c, 0, 82, 49
1, 135286, Note_on_c, 0, 70, 42
1, 135286, Note_on_c, 0, 74, 42
1, 135290, Note_on_c, 0, 77, 19
1, 135293, Note_on_c, 0, 65, 26
1, 135296, Note_on_c, 0, 56, 25
1, 135312, Note_on_c, 0, 58, 24
1, 135318, Note_off_c, 0, 70, 63
1, 135325, Note_off_c, 0, 74, 66
1, 135330, Note_off_c, 0, 77, 50
1, 135336, Note_off_c, 0, 82, 60
1, 135337, Note_off_c, 0, 65, 56
1, 135342, Note_off_c, 0, 56, 57
1, 135349, Note_off_c, 0, 58, 54
1, 135369, Poly_aftertouch_c, 0, 62, 0
1, 135524, Control_c, 0, 64, 53
1, 135539, Control_c, 0, 64, 64
1, 135554, Control_c, 0, 64, 67
1, 135568, Control_c, 0, 64, 70
1, 135583, Control_c, 0, 64, 73
1, 135598, Control_c, 0, 64, 76
1, 135613, Control_c, 0, 64, 79
1, 135627, Control_c, 0, 64, 83
1, 135642, Control_c, 0, 64, 87
1, 135657, Control_c, 0, 64, 91
1, 135672, Control_c, 0, 64, 97
1, 135687, Control_c, 0, 64, 103
1, 135701, Control_c, 0, 64, 111
1, 135716, Control_c, 0, 64, 123
1, 135731, Control_c, 0, 64, 127
1, 135829, Note_on_c, 0, 63, 27
1, 135832, Note_on_c, 0, 87, 36
1, 135853, Note_on_c, 0, 54, 27
1, 135858, Note_on_c, 0, 58, 31
1, 135864, Note_on_c, 0, 78, 23
1, 135876, Note_on_c, 0, 75, 26
1, 135892, Note_on_c, 0, 82, 19
1, 135919, Note_off_c, 0, 58, 57
1, 135934, Note_off_c, 0, 54, 53
1, 135943, Note_off_c, 0, 63, 50
1, 136559, Note_on_c, 0, 39, 31
1, 136565, Note_on_c, 0, 54, 34
1, 136579, Note_on_c, 0, 46, 34
1, 136622, Note_off_c, 0, 46, 58
1, 136623, Note_off_c, 0, 75, 43
1, 136624, Note_off_c, 0, 39, 49
1, 136628, Note_off_c, 0, 78, 46
1, 136636, Note_off_c, 0, 82, 45
1, 136638, Note_off_c, 0, 87, 52
1, 136651, Note_off_c, 0, 54, 61
1, 137584, Note_on_c, 0, 94, 49
1, 137622, Note_on_c, 0, 96, 46
1, 137672, Note_off_c, 0, 94, 48
1, 137679, Note_on_c, 0, 82, 32
1, 137689, Note_on_c, 0, 78, 40
1, 137691, Note_on_c, 0, 87, 28
1, 137693, Note_on_c, 0, 90, 33
1, 137714, Note_on_c, 0, 98, 37
1, 137716, Note_off_c, 0, 96, 62
1, 137735, Note_on_c, 0, 99, 64
1, 137743, Note_off_c, 0, 98, 54
1, 137762, Note_off_c, 0, 99, 69
1, 137770, Note_off_c, 0, 90, 57
1, 137774, Note_off_c, 0, 82, 57
1, 137774, Note_off_c, 0, 87, 60
1, 137790, Note_off_c, 0, 78, 50
1, 138008, Control_c, 0, 64, 113
1, 138022, Control_c, 0, 64, 105
1, 138037, Control_c, 0, 64, 100
1, 138052, Control_c, 0, 64, 94
1, 138074, Control_c, 0, 64, 90
1, 138089, Control_c, 0, 64, 85
1, 138103, Control_c, 0, 64, 80
1, 138118, Control_c, 0, 64, 76
1, 138133, Control_c, 0, 64, 72
1, 138148, Control_c, 0, 64, 67
1, 138163, Control_c, 0, 64, 65
1, 138178, Control_c, 0, 64, 64
1, 138267, Control_c, 0, 64, 64
1, 138445, Control_c, 0, 64, 64
1, 139120, Control_c, 0, 64, 65
1, 139431, Control_c, 0, 64, 65
1, 139646, Control_c, 0, 64, 66
1, 139884, Control_c, 0, 64, 66
1, 140062, Control_c, 0, 64, 67
1, 140269, Control_c, 0, 64, 66
1, 140469, Control_c, 0, 64, 66
1, 140469, Control_c, 0, 67, 125
1, 140484, Control_c, 0, 67, 120
1, 140498, Control_c, 0, 67, 114
1, 140513, Control_c, 0, 67, 107
1, 140528, Control_c, 0, 64, 65
1, 140528, Control_c, 0, 67, 98
1, 140542, Control_c, 0, 67, 84
1, 140557, Control_c, 0, 67, 71
1, 140572, Control_c, 0, 64, 65
1, 140572, Control_c, 0, 67, 59
1, 140587, Control_c, 0, 67, 48
1, 140603, Control_c, 0, 64, 64
1, 140603, Control_c, 0, 67, 35
1, 140618, Control_c, 0, 64, 63
1, 140618, Control_c, 0, 67, 19
1, 140633, Control_c, 0, 64, 61
1, 140633, Control_c, 0, 67, 0
1, 140647, Control_c, 0, 64, 50
1, 140662, Control_c, 0, 64, 0
1, 140737, End_track
0, 0, End_of_file
