0, 0, Header, 0, 1, 384
1, 0, Start_track
1, 0, Title_t, "Aphorisms, Op.13--Gryaznov      "
1, 0, Text_t, "2009 International Piano-e-Competition finals"
1, 0, Text_t, "captured June-July 2009"
1, 0, Text_t, "http://www.piano-e-competition.com/"
1, 0, Text_t, "standard-resolution version"
1, 0, Text_t, "File processed for distribution by software from Zenph Studios, Inc., http://www.zenph.com"
1, 0, Instrument_name_t, "Yamaha Disklavier Pro Mark IV concert grand piano, model DCFIIISM4PRO"
1, 0, Sequencer_specific, 39, 67, 113, 0, 1, 0, 1, 0, 65, 112, 104, 111, 114, 105, 115, 109, 115, 44, 32, 79, 112, 46, 49, 51, 86, 71, 114, 121, 97, 122, 110, 111, 118, 32, 32, 32, 32, 32, 32, 32
1, 0, Sequencer_specific, 6, 67, 113, 0, 0, 0, 69
1, 0, System_exclusive, 21, 67, 113, 126, 21, 0, 2, 2, 2, 3, 12, 8, 4, 10, 4, 14, 7, 12, 3, 10, 5, 247
1, 0, Sequencer_specific, 5, 67, 123, 12, 2, 1
1, 0, Tempo, 512820
1, 0, Time_signature, 4, 2, 24, 8
1, 0, System_exclusive, 5, 126, 127, 9, 1, 247
1, 1, System_exclusive, 8, 67, 16, 76, 0, 0, 126, 0, 247
1, 2, System_exclusive, 8, 67, 16, 76, 8, 9, 7, 1, 247
1, 3, Control_c, 0, 0, 0
1, 3, Control_c, 1, 0, 0
1, 3, Control_c, 2, 0, 0
1, 3, Control_c, 3, 0, 0
1, 3, Control_c, 4, 0, 0
1, 3, Control_c, 5, 0, 0
1, 3, Control_c, 6, 0, 0
1, 3, Control_c, 7, 0, 0
1, 3, Control_c, 8, 0, 0
1, 3, Control_c, 9, 0, 127
1, 3, Control_c, 10, 0, 0
1, 3, Control_c, 11, 0, 0
1, 3, Control_c, 12, 0, 0
1, 3, Control_c, 13, 0, 0
1, 3, Control_c, 14, 0, 0
1, 3, Control_c, 15, 0, 0
1, 4, Control_c, 0, 32, 0
1, 4, Control_c, 1, 32, 0
1, 4, Control_c, 2, 32, 0
1, 4, Control_c, 3, 32, 0
1, 4, Control_c, 4, 32, 0
1, 4, Control_c, 5, 32, 0
1, 4, Control_c, 6, 32, 0
1, 4, Control_c, 7, 32, 0
1, 4, Control_c, 8, 32, 0
1, 4, Control_c, 9, 32, 0
1, 4, Control_c, 10, 32, 0
1, 4, Control_c, 11, 32, 0
1, 4, Control_c, 12, 32, 0
1, 4, Control_c, 13, 32, 0
1, 4, Control_c, 14, 32, 0
1, 4, Control_c, 15, 32, 0
1, 5, Program_c, 0, 0
1, 5, Program_c, 1, 0
1, 5, Program_c, 2, 0
1, 5, Program_c, 3, 0
1, 5, Program_c, 4, 0
1, 5, Program_c, 5, 0
1, 5, Program_c, 6, 0
1, 5, Program_c, 7, 0
1, 5, Program_c, 8, 0
1, 5, Program_c, 9, 0
1, 5, Program_c, 10, 0
1, 5, Program_c, 11, 0
1, 5, Program_c, 12, 0
1, 5, Program_c, 13, 0
1, 5, Program_c, 14, 0
1, 5, Program_c, 15, 0
1, 6, Control_c, 0, 7, 100
1, 6, Control_c, 1, 7, 100
1, 6, Control_c, 2, 7, 100
1, 6, Control_c, 3, 7, 100
1, 6, Control_c, 4, 7, 100
1, 6, Control_c, 5, 7, 100
1, 6, Control_c, 6, 7, 100
1, 6, Control_c, 7, 7, 100
1, 6, Control_c, 8, 7, 100
1, 6, Control_c, 9, 7, 100
1, 6, Control_c, 10, 7, 100
1, 6, Control_c, 11, 7, 100
1, 6, Control_c, 12, 7, 100
1, 6, Control_c, 13, 7, 100
1, 6, Control_c, 14, 7, 100
1, 6, Control_c, 15, 7, 100
1, 117, Control_c, 0, 67, 5
1, 229, Control_c, 0, 67, 11
1, 341, Control_c, 0, 67, 16
1, 452, Control_c, 0, 67, 23
1, 564, Control_c, 0, 67, 27
1, 676, Control_c, 0, 67, 34
1, 787, Control_c, 0, 67, 38
1, 899, Control_c, 0, 67, 46
1, 1124, Control_c, 0, 64, 85
1, 1138, Note_on_c, 0, 60, 36
1, 1139, Control_c, 0, 64, 84
1, 1154, Control_c, 0, 64, 83
1, 1169, Control_c, 0, 64, 82
1, 1169, Control_c, 0, 67, 47
1, 1173, Note_on_c, 0, 36, 39
1, 1184, Control_c, 0, 64, 80
1, 1199, Control_c, 0, 64, 77
1, 1214, Control_c, 0, 64, 75
1, 1229, Control_c, 0, 64, 71
1, 1243, Control_c, 0, 64, 68
1, 1258, Control_c, 0, 64, 65
1, 1273, Control_c, 0, 64, 64
1, 1288, Control_c, 0, 64, 63
1, 1303, Control_c, 0, 64, 63
1, 1317, Control_c, 0, 64, 62
1, 1332, Control_c, 0, 64, 61
1, 1347, Control_c, 0, 64, 60
1, 1361, Control_c, 0, 64, 59
1, 1376, Control_c, 0, 64, 58
1, 1399, Control_c, 0, 64, 57
1, 1399, Control_c, 0, 67, 47
1, 1429, Control_c, 0, 64, 57
1, 1458, Control_c, 0, 64, 56
1, 1548, Control_c, 0, 67, 48
1, 1578, Control_c, 0, 67, 48
1, 1607, Control_c, 0, 67, 49
1, 1637, Control_c, 0, 67, 49
1, 1652, Control_c, 0, 67, 50
1, 1666, Control_c, 0, 67, 52
1, 1681, Control_c, 0, 67, 56
1, 1696, Control_c, 0, 67, 59
1, 1711, Control_c, 0, 67, 60
1, 1726, Control_c, 0, 67, 61
1, 1740, Control_c, 0, 67, 63
1, 1755, Control_c, 0, 67, 64
1, 1770, Control_c, 0, 67, 64
1, 1784, Control_c, 0, 67, 65
1, 1805, Note_on_c, 0, 62, 46
1, 1814, Control_c, 0, 67, 65
1, 1850, Note_on_c, 0, 43, 36
1, 1881, Note_off_c, 0, 60, 46
1, 1889, Control_c, 0, 67, 66
1, 1904, Control_c, 0, 67, 66
1, 1918, Control_c, 0, 67, 67
1, 1923, Note_off_c, 0, 36, 42
1, 1933, Control_c, 0, 67, 69
1, 1948, Control_c, 0, 67, 71
1, 1963, Control_c, 0, 67, 73
1, 1978, Control_c, 0, 67, 76
1, 1992, Control_c, 0, 67, 79
1, 2007, Control_c, 0, 67, 81
1, 2022, Control_c, 0, 67, 83
1, 2037, Control_c, 0, 67, 85
1, 2052, Control_c, 0, 67, 87
1, 2066, Control_c, 0, 64, 57
1, 2066, Control_c, 0, 67, 89
1, 2081, Control_c, 0, 67, 91
1, 2096, Control_c, 0, 67, 93
1, 2111, Control_c, 0, 67, 94
1, 2126, Control_c, 0, 67, 97
1, 2148, Control_c, 0, 67, 101
1, 2163, Control_c, 0, 67, 104
1, 2178, Control_c, 0, 67, 108
1, 2192, Control_c, 0, 67, 112
1, 2207, Control_c, 0, 67, 115
1, 2222, Control_c, 0, 67, 120
1, 2237, Control_c, 0, 67, 125
1, 2252, Control_c, 0, 67, 127
1, 2436, Note_on_c, 0, 63, 45
1, 2470, Note_on_c, 0, 37, 34
1, 2471, Note_off_c, 0, 62, 53
1, 2634, Note_off_c, 0, 43, 44
1, 2667, Control_c, 0, 64, 57
1, 2740, Note_on_c, 0, 65, 49
1, 2752, Note_off_c, 0, 63, 54
1, 3039, Note_on_c, 0, 66, 51
1, 3048, Note_on_c, 0, 48, 40
1, 3081, Note_off_c, 0, 65, 51
1, 3204, Note_off_c, 0, 37, 42
1, 3312, Note_on_c, 0, 67, 50
1, 3331, Note_off_c, 0, 66, 51
1, 3534, Control_c, 0, 64, 58
1, 3699, Note_on_c, 0, 72, 46
1, 3703, Note_off_c, 0, 67, 47
1, 3728, Note_on_c, 0, 38, 31
1, 3737, Note_off_c, 0, 48, 39
1, 3808, Control_c, 0, 64, 58
1, 3928, Control_c, 0, 64, 59
1, 4002, Control_c, 0, 64, 59
1, 4106, Control_c, 0, 64, 60
1, 4166, Control_c, 0, 64, 60
1, 4299, Control_c, 0, 64, 61
1, 5350, Control_c, 0, 64, 61
1, 5585, Note_on_c, 0, 48, 45
1, 5691, Note_off_c, 0, 48, 62
1, 6012, Note_on_c, 0, 48, 54
1, 6112, Note_off_c, 0, 48, 62
1, 6336, Note_on_c, 0, 50, 57
1, 6468, Note_off_c, 0, 50, 61
1, 6607, Note_on_c, 0, 48, 66
1, 6712, Note_off_c, 0, 48, 62
1, 6863, Control_c, 0, 64, 61
1, 6878, Note_on_c, 0, 48, 73
1, 6878, Control_c, 0, 64, 60
1, 6893, Control_c, 0, 64, 60
1, 6907, Control_c, 0, 64, 59
1, 6922, Control_c, 0, 64, 57
1, 6937, Control_c, 0, 64, 55
1, 6952, Control_c, 0, 64, 53
1, 6967, Control_c, 0, 64, 50
1, 6981, Control_c, 0, 64, 46
1, 6996, Control_c, 0, 64, 39
1, 6998, Note_off_c, 0, 48, 57
1, 7011, Control_c, 0, 64, 31
1, 7026, Control_c, 0, 64, 17
1, 7041, Control_c, 0, 64, 0
1, 7135, Note_on_c, 0, 48, 72
1, 7264, Note_off_c, 0, 48, 59
1, 7427, Note_on_c, 0, 47, 64
1, 7617, Note_off_c, 0, 47, 60
1, 7704, Note_on_c, 0, 48, 59
1, 7811, Note_off_c, 0, 48, 60
1, 7982, Note_on_c, 0, 48, 57
1, 8107, Note_off_c, 0, 48, 59
1, 8277, Note_on_c, 0, 48, 51
1, 8396, Note_off_c, 0, 48, 59
1, 8625, Note_on_c, 0, 44, 42
1, 8864, Note_off_c, 0, 44, 62
1, 9269, Note_on_c, 0, 60, 34
1, 9274, Note_on_c, 0, 44, 34
1, 9293, Note_on_c, 0, 39, 31
1, 9363, Note_off_c, 0, 72, 40
1, 9371, Note_off_c, 0, 38, 42
1, 9472, Note_off_c, 0, 44, 57
1, 9829, Control_c, 0, 64, 14
1, 9844, Control_c, 0, 64, 19
1, 9859, Control_c, 0, 64, 23
1, 9873, Control_c, 0, 64, 24
1, 9951, Note_on_c, 0, 66, 41
1, 9968, Note_on_c, 0, 40, 32
1, 9977, Control_c, 0, 64, 21
1, 9992, Control_c, 0, 64, 0
1, 10006, Note_off_c, 0, 60, 51
1, 10038, Note_off_c, 0, 39, 42
1, 10125, Control_c, 0, 64, 11
1, 10140, Control_c, 0, 64, 26
1, 10154, Control_c, 0, 64, 33
1, 10169, Control_c, 0, 64, 42
1, 10184, Control_c, 0, 64, 49
1, 10198, Control_c, 0, 64, 55
1, 10213, Control_c, 0, 64, 59
1, 10228, Control_c, 0, 64, 61
1, 10243, Control_c, 0, 64, 62
1, 10258, Control_c, 0, 64, 63
1, 10272, Control_c, 0, 64, 64
1, 10287, Control_c, 0, 64, 64
1, 10303, Control_c, 0, 64, 65
1, 10318, Control_c, 0, 64, 65
1, 10333, Control_c, 0, 64, 66
1, 10347, Control_c, 0, 64, 67
1, 10362, Control_c, 0, 64, 68
1, 10384, Control_c, 0, 64, 68
1, 10399, Control_c, 0, 64, 69
1, 10414, Control_c, 0, 64, 69
1, 10429, Control_c, 0, 64, 70
1, 10444, Control_c, 0, 64, 70
1, 10459, Control_c, 0, 64, 71
1, 10474, Control_c, 0, 64, 72
1, 10489, Control_c, 0, 64, 73
1, 10503, Control_c, 0, 64, 74
1, 10518, Control_c, 0, 64, 75
1, 10533, Control_c, 0, 64, 76
1, 10548, Control_c, 0, 64, 77
1, 10562, Control_c, 0, 64, 77
1, 10577, Control_c, 0, 64, 78
1, 10592, Control_c, 0, 64, 79
1, 10607, Control_c, 0, 64, 79
1, 10617, Note_on_c, 0, 56, 57
1, 10621, Control_c, 0, 64, 80
1, 10636, Control_c, 0, 64, 81
1, 10651, Control_c, 0, 64, 82
1, 10666, Control_c, 0, 64, 83
1, 10681, Control_c, 0, 64, 84
1, 10695, Control_c, 0, 64, 85
1, 10710, Control_c, 0, 64, 86
1, 10725, Control_c, 0, 64, 88
1, 10740, Control_c, 0, 64, 90
1, 10754, Control_c, 0, 64, 93
1, 10769, Control_c, 0, 64, 95
1, 10784, Control_c, 0, 64, 98
1, 10799, Control_c, 0, 64, 101
1, 10805, Note_off_c, 0, 56, 48
1, 10814, Control_c, 0, 64, 103
1, 10828, Control_c, 0, 64, 106
1, 10843, Control_c, 0, 64, 108
1, 10858, Control_c, 0, 64, 108
1, 10873, Control_c, 0, 64, 109
1, 10972, Note_on_c, 0, 56, 66
1, 11080, Control_c, 0, 64, 108
1, 11165, Note_off_c, 0, 56, 62
1, 11237, Control_c, 0, 64, 106
1, 11252, Control_c, 0, 64, 104
1, 11267, Control_c, 0, 64, 101
1, 11281, Control_c, 0, 64, 96
1, 11287, Note_on_c, 0, 55, 74
1, 11294, Note_on_c, 0, 64, 59
1, 11296, Control_c, 0, 64, 90
1, 11311, Control_c, 0, 64, 82
1, 11326, Note_on_c, 0, 44, 42
1, 11326, Control_c, 0, 64, 73
1, 11341, Control_c, 0, 64, 64
1, 11356, Control_c, 0, 64, 44
1, 11369, Note_off_c, 0, 40, 47
1, 11371, Control_c, 0, 64, 0
1, 11386, Note_off_c, 0, 66, 54
1, 11430, Control_c, 0, 64, 26
1, 11444, Control_c, 0, 64, 53
1, 11459, Control_c, 0, 64, 63
1, 11474, Control_c, 0, 64, 67
1, 11489, Control_c, 0, 64, 70
1, 11502, Note_off_c, 0, 55, 57
1, 11504, Control_c, 0, 64, 72
1, 11519, Control_c, 0, 64, 73
1, 11533, Control_c, 0, 64, 74
1, 11548, Control_c, 0, 64, 74
1, 11563, Control_c, 0, 64, 75
1, 11577, Control_c, 0, 64, 76
1, 11578, Note_on_c, 0, 55, 71
1, 11607, Control_c, 0, 64, 76
1, 11815, Control_c, 0, 64, 75
1, 11830, Control_c, 0, 64, 74
1, 11844, Note_off_c, 0, 55, 34
1, 11844, Control_c, 0, 64, 73
1, 11859, Control_c, 0, 64, 70
1, 11876, Note_on_c, 0, 54, 67
1, 11881, Control_c, 0, 64, 66
1, 11897, Control_c, 0, 64, 61
1, 11912, Control_c, 0, 64, 50
1, 11927, Control_c, 0, 64, 0
1, 12015, Control_c, 0, 64, 14
1, 12030, Control_c, 0, 64, 51
1, 12045, Control_c, 0, 64, 62
1, 12060, Control_c, 0, 64, 66
1, 12074, Control_c, 0, 64, 70
1, 12089, Control_c, 0, 64, 72
1, 12104, Control_c, 0, 64, 75
1, 12119, Control_c, 0, 64, 77
1, 12134, Control_c, 0, 64, 79
1, 12149, Control_c, 0, 64, 81
1, 12164, Control_c, 0, 64, 83
1, 12179, Control_c, 0, 64, 85
1, 12193, Control_c, 0, 64, 88
1, 12208, Control_c, 0, 64, 90
1, 12223, Control_c, 0, 64, 92
1, 12238, Control_c, 0, 64, 93
1, 12253, Control_c, 0, 64, 93
1, 12445, Control_c, 0, 64, 92
1, 12460, Control_c, 0, 64, 90
1, 12469, Note_on_c, 0, 61, 53
1, 12474, Control_c, 0, 64, 86
1, 12489, Control_c, 0, 64, 80
1, 12502, Note_on_c, 0, 45, 42
1, 12504, Control_c, 0, 64, 73
1, 12514, Note_off_c, 0, 64, 43
1, 12518, Control_c, 0, 64, 65
1, 12533, Control_c, 0, 64, 50
1, 12548, Control_c, 0, 64, 0
1, 12553, Note_off_c, 0, 44, 56
1, 12645, Control_c, 0, 64, 47
1, 12660, Control_c, 0, 64, 63
1, 12674, Control_c, 0, 64, 67
1, 12689, Control_c, 0, 64, 71
1, 12705, Control_c, 0, 64, 75
1, 12720, Control_c, 0, 64, 78
1, 12735, Control_c, 0, 64, 82
1, 12749, Control_c, 0, 64, 85
1, 12764, Control_c, 0, 64, 88
1, 12779, Control_c, 0, 64, 90
1, 12794, Control_c, 0, 64, 92
1, 12809, Control_c, 0, 64, 95
1, 12823, Control_c, 0, 64, 98
1, 12826, Note_off_c, 0, 54, 32
1, 12838, Control_c, 0, 64, 101
1, 12853, Control_c, 0, 64, 103
1, 12868, Control_c, 0, 64, 106
1, 12883, Control_c, 0, 64, 107
1, 12897, Control_c, 0, 64, 109
1, 12912, Control_c, 0, 64, 110
1, 12927, Control_c, 0, 64, 110
1, 13031, Control_c, 0, 64, 110
1, 13061, Control_c, 0, 64, 108
1, 13076, Control_c, 0, 64, 103
1, 13080, Note_on_c, 0, 54, 59
1, 13090, Control_c, 0, 64, 96
1, 13105, Control_c, 0, 64, 88
1, 13120, Control_c, 0, 64, 78
1, 13135, Control_c, 0, 64, 69
1, 13149, Control_c, 0, 64, 59
1, 13164, Control_c, 0, 64, 34
1, 13179, Control_c, 0, 64, 29
1, 13194, Control_c, 0, 64, 38
1, 13209, Control_c, 0, 64, 51
1, 13223, Control_c, 0, 64, 62
1, 13238, Control_c, 0, 64, 66
1, 13253, Control_c, 0, 64, 70
1, 13268, Control_c, 0, 64, 75
1, 13283, Control_c, 0, 64, 79
1, 13297, Control_c, 0, 64, 83
1, 13312, Control_c, 0, 64, 87
1, 13327, Control_c, 0, 64, 90
1, 13341, Control_c, 0, 64, 92
1, 13356, Control_c, 0, 64, 95
1, 13379, Control_c, 0, 64, 97
1, 13394, Control_c, 0, 64, 100
1, 13409, Control_c, 0, 64, 102
1, 13423, Control_c, 0, 64, 103
1, 13443, Note_off_c, 0, 54, 52
1, 13691, Control_c, 0, 64, 102
1, 13706, Control_c, 0, 64, 100
1, 13720, Control_c, 0, 64, 97
1, 13722, Note_on_c, 0, 60, 43
1, 13735, Control_c, 0, 64, 94
1, 13742, Note_on_c, 0, 53, 55
1, 13747, Note_on_c, 0, 50, 42
1, 13750, Control_c, 0, 64, 89
1, 13765, Control_c, 0, 64, 84
1, 13779, Control_c, 0, 64, 77
1, 13785, Note_off_c, 0, 61, 34
1, 13794, Control_c, 0, 64, 68
1, 13800, Note_off_c, 0, 45, 44
1, 13809, Control_c, 0, 64, 59
1, 13824, Control_c, 0, 64, 26
1, 13839, Control_c, 0, 64, 0
1, 14018, Control_c, 0, 64, 44
1, 14033, Control_c, 0, 64, 61
1, 14047, Control_c, 0, 64, 65
1, 14062, Control_c, 0, 64, 68
1, 14077, Control_c, 0, 64, 70
1, 14091, Control_c, 0, 64, 73
1, 14106, Control_c, 0, 64, 75
1, 14128, Control_c, 0, 64, 77
1, 14143, Control_c, 0, 64, 79
1, 14158, Control_c, 0, 64, 82
1, 14173, Control_c, 0, 64, 85
1, 14188, Control_c, 0, 64, 88
1, 14203, Control_c, 0, 64, 92
1, 14218, Control_c, 0, 64, 95
1, 14233, Control_c, 0, 64, 98
1, 14247, Control_c, 0, 64, 102
1, 14253, Note_off_c, 0, 53, 60
1, 14262, Control_c, 0, 64, 106
1, 14277, Control_c, 0, 64, 110
1, 14292, Control_c, 0, 64, 114
1, 14307, Control_c, 0, 64, 118
1, 14322, Control_c, 0, 64, 124
1, 14337, Control_c, 0, 64, 127
1, 14618, Control_c, 0, 64, 119
1, 14633, Control_c, 0, 64, 110
1, 14647, Note_on_c, 0, 61, 49
1, 14648, Control_c, 0, 64, 98
1, 14662, Control_c, 0, 64, 89
1, 14677, Control_c, 0, 64, 79
1, 14692, Control_c, 0, 64, 71
1, 14707, Control_c, 0, 64, 65
1, 14721, Control_c, 0, 64, 64
1, 14736, Control_c, 0, 64, 67
1, 14751, Control_c, 0, 64, 70
1, 14766, Control_c, 0, 64, 75
1, 14781, Control_c, 0, 64, 80
1, 14796, Control_c, 0, 64, 85
1, 14811, Control_c, 0, 64, 90
1, 14826, Note_off_c, 0, 61, 37
1, 14826, Control_c, 0, 64, 93
1, 14841, Control_c, 0, 64, 95
1, 14921, Control_c, 0, 64, 93
1, 14936, Control_c, 0, 64, 87
1, 14947, Note_on_c, 0, 59, 46
1, 14951, Control_c, 0, 64, 81
1, 14960, Note_on_c, 0, 61, 46
1, 14966, Control_c, 0, 64, 73
1, 14981, Control_c, 0, 64, 65
1, 14987, Note_off_c, 0, 60, 48
1, 14996, Control_c, 0, 64, 49
1, 15011, Control_c, 0, 64, 0
1, 15070, Control_c, 0, 64, 36
1, 15085, Control_c, 0, 64, 53
1, 15100, Control_c, 0, 64, 63
1, 15115, Control_c, 0, 64, 68
1, 15130, Control_c, 0, 64, 73
1, 15145, Control_c, 0, 64, 76
1, 15160, Control_c, 0, 64, 80
1, 15174, Control_c, 0, 64, 84
1, 15189, Control_c, 0, 64, 87
1, 15197, Note_off_c, 0, 61, 36
1, 15204, Control_c, 0, 64, 89
1, 15219, Control_c, 0, 64, 92
1, 15234, Control_c, 0, 64, 94
1, 15249, Control_c, 0, 64, 96
1, 15264, Control_c, 0, 64, 97
1, 15440, Control_c, 0, 64, 96
1, 15455, Control_c, 0, 64, 96
1, 15470, Control_c, 0, 64, 95
1, 15484, Control_c, 0, 64, 93
1, 15499, Control_c, 0, 64, 89
1, 15514, Control_c, 0, 64, 85
1, 15529, Control_c, 0, 64, 80
1, 15540, Note_on_c, 0, 61, 39
1, 15544, Control_c, 0, 64, 72
1, 15559, Control_c, 0, 64, 64
1, 15574, Control_c, 0, 64, 44
1, 15589, Control_c, 0, 64, 0
1, 15604, Control_c, 0, 64, 11
1, 15625, Control_c, 0, 64, 37
1, 15640, Control_c, 0, 64, 54
1, 15655, Control_c, 0, 64, 63
1, 15669, Control_c, 0, 64, 68
1, 15684, Control_c, 0, 64, 73
1, 15699, Control_c, 0, 64, 80
1, 15714, Control_c, 0, 64, 84
1, 15729, Control_c, 0, 64, 88
1, 15732, Note_off_c, 0, 61, 42
1, 15744, Control_c, 0, 64, 90
1, 15759, Control_c, 0, 64, 92
1, 15774, Control_c, 0, 64, 94
1, 15789, Control_c, 0, 64, 96
1, 15803, Control_c, 0, 64, 98
1, 15818, Control_c, 0, 64, 98
1, 16130, Control_c, 0, 64, 98
1, 16145, Control_c, 0, 64, 97
1, 16160, Control_c, 0, 64, 96
1, 16167, Note_off_c, 0, 59, 37
1, 16174, Control_c, 0, 64, 94
1, 16185, Note_on_c, 0, 51, 39
1, 16188, Note_on_c, 0, 58, 33
1, 16189, Control_c, 0, 64, 91
1, 16204, Control_c, 0, 64, 86
1, 16219, Control_c, 0, 64, 80
1, 16233, Control_c, 0, 64, 73
1, 16248, Control_c, 0, 64, 66
1, 16251, Note_off_c, 0, 50, 52
1, 16263, Control_c, 0, 64, 51
1, 16278, Control_c, 0, 64, 27
1, 16292, Control_c, 0, 64, 17
1, 16307, Control_c, 0, 64, 11
1, 16322, Control_c, 0, 64, 0
1, 16389, Control_c, 0, 64, 19
1, 16404, Control_c, 0, 64, 27
1, 16419, Control_c, 0, 64, 34
1, 16434, Control_c, 0, 64, 40
1, 16448, Control_c, 0, 64, 45
1, 16463, Control_c, 0, 64, 49
1, 16478, Control_c, 0, 64, 52
1, 16492, Control_c, 0, 64, 54
1, 16507, Control_c, 0, 64, 56
1, 16522, Control_c, 0, 64, 57
1, 16537, Control_c, 0, 64, 59
1, 16552, Control_c, 0, 64, 60
1, 16567, Control_c, 0, 64, 60
1, 16581, Control_c, 0, 64, 61
1, 16596, Control_c, 0, 64, 61
1, 16656, Control_c, 0, 64, 62
1, 16701, Control_c, 0, 64, 62
1, 16716, Control_c, 0, 64, 63
1, 16745, Control_c, 0, 64, 63
1, 16850, Control_c, 0, 64, 64
1, 16864, Control_c, 0, 64, 64
1, 16894, Control_c, 0, 64, 65
1, 16954, Control_c, 0, 64, 65
1, 16969, Control_c, 0, 64, 66
1, 16998, Control_c, 0, 64, 66
1, 17013, Control_c, 0, 64, 67
1, 17058, Control_c, 0, 64, 67
1, 17087, Control_c, 0, 64, 68
1, 17124, Control_c, 0, 64, 68
1, 17184, Control_c, 0, 64, 69
1, 17198, Control_c, 0, 64, 69
1, 17213, Control_c, 0, 64, 70
1, 17243, Control_c, 0, 64, 70
1, 17331, Control_c, 0, 64, 70
1, 17346, Control_c, 0, 64, 69
1, 17361, Control_c, 0, 64, 68
1, 17371, Note_on_c, 0, 82, 55
1, 17376, Control_c, 0, 64, 67
1, 17390, Control_c, 0, 64, 66
1, 17391, Note_on_c, 0, 80, 21
1, 17414, Note_off_c, 0, 82, 61
1, 17420, Control_c, 0, 64, 66
1, 17423, Note_off_c, 0, 80, 49
1, 17424, Note_on_c, 0, 83, 68
1, 17434, Note_on_c, 0, 79, 54
1, 17434, Control_c, 0, 64, 68
1, 17449, Control_c, 0, 64, 69
1, 17464, Control_c, 0, 64, 72
1, 17479, Control_c, 0, 64, 76
1, 17492, Note_off_c, 0, 79, 49
1, 17495, Control_c, 0, 64, 82
1, 17506, Note_off_c, 0, 83, 54
1, 17510, Control_c, 0, 64, 88
1, 17525, Control_c, 0, 64, 95
1, 17539, Control_c, 0, 64, 99
1, 17554, Control_c, 0, 64, 103
1, 17569, Control_c, 0, 64, 106
1, 17584, Control_c, 0, 64, 108
1, 17599, Control_c, 0, 64, 110
1, 17613, Control_c, 0, 64, 110
1, 17873, Control_c, 0, 64, 110
1, 17887, Control_c, 0, 64, 108
1, 17902, Control_c, 0, 64, 104
1, 17917, Control_c, 0, 64, 99
1, 17926, Note_on_c, 0, 80, 53
1, 17932, Control_c, 0, 64, 92
1, 17947, Control_c, 0, 64, 84
1, 17950, Note_on_c, 0, 78, 34
1, 17962, Control_c, 0, 64, 76
1, 17977, Control_c, 0, 64, 67
1, 17980, Note_off_c, 0, 78, 55
1, 17980, Note_off_c, 0, 80, 59
1, 17991, Control_c, 0, 64, 57
1, 17994, Note_on_c, 0, 81, 58
1, 18001, Note_on_c, 0, 77, 46
1, 18006, Control_c, 0, 64, 49
1, 18021, Control_c, 0, 64, 52
1, 18036, Control_c, 0, 64, 58
1, 18051, Control_c, 0, 64, 63
1, 18065, Control_c, 0, 64, 68
1, 18079, Note_off_c, 0, 77, 37
1, 18080, Control_c, 0, 64, 72
1, 18095, Control_c, 0, 64, 77
1, 18110, Control_c, 0, 64, 82
1, 18125, Control_c, 0, 64, 87
1, 18139, Control_c, 0, 64, 91
1, 18154, Control_c, 0, 64, 94
1, 18169, Control_c, 0, 64, 96
1, 18184, Control_c, 0, 64, 98
1, 18199, Control_c, 0, 64, 100
1, 18213, Control_c, 0, 64, 101
1, 18228, Control_c, 0, 64, 102
1, 18243, Control_c, 0, 64, 103
1, 18272, Control_c, 0, 64, 104
1, 18286, Note_off_c, 0, 51, 43
1, 18585, Control_c, 0, 64, 103
1, 18600, Control_c, 0, 64, 103
1, 18622, Control_c, 0, 64, 101
1, 18635, Note_on_c, 0, 79, 44
1, 18636, Control_c, 0, 64, 99
1, 18649, Note_on_c, 0, 75, 38
1, 18651, Control_c, 0, 64, 96
1, 18659, Note_on_c, 0, 52, 32
1, 18665, Note_off_c, 0, 81, 35
1, 18666, Control_c, 0, 64, 92
1, 18667, Note_on_c, 0, 59, 38
1, 18681, Control_c, 0, 64, 87
1, 18695, Control_c, 0, 64, 80
1, 18710, Control_c, 0, 64, 72
1, 18725, Control_c, 0, 64, 64
1, 18726, Note_off_c, 0, 58, 45
1, 18740, Control_c, 0, 64, 27
1, 18755, Control_c, 0, 64, 0
1, 18918, Control_c, 0, 64, 38
1, 18933, Control_c, 0, 64, 61
1, 18948, Control_c, 0, 64, 66
1, 18962, Control_c, 0, 64, 69
1, 18977, Control_c, 0, 64, 72
1, 18992, Control_c, 0, 64, 74
1, 19007, Control_c, 0, 64, 76
1, 19022, Control_c, 0, 64, 79
1, 19036, Control_c, 0, 64, 81
1, 19051, Control_c, 0, 64, 84
1, 19066, Control_c, 0, 64, 88
1, 19082, Control_c, 0, 64, 92
1, 19097, Control_c, 0, 64, 96
1, 19111, Control_c, 0, 64, 100
1, 19126, Control_c, 0, 64, 105
1, 19140, Control_c, 0, 64, 110
1, 19155, Control_c, 0, 64, 119
1, 19170, Control_c, 0, 64, 127
1, 20123, Note_off_c, 0, 79, 34
1, 20376, Note_on_c, 0, 63, 57
1, 20509, Note_off_c, 0, 63, 50
1, 20701, Note_on_c, 0, 63, 69
1, 20782, Note_off_c, 0, 59, 59
1, 20797, Note_off_c, 0, 52, 43
1, 20921, Note_off_c, 0, 63, 57
1, 21027, Note_on_c, 0, 79, 77
1, 21041, Note_on_c, 0, 74, 70
1, 21051, Note_on_c, 0, 62, 62
1, 21055, Note_on_c, 0, 53, 52
1, 21060, Note_on_c, 0, 58, 58
1, 21061, Control_c, 0, 64, 118
1, 21068, Note_off_c, 0, 75, 38
1, 21076, Control_c, 0, 64, 101
1, 21090, Control_c, 0, 64, 88
1, 21105, Control_c, 0, 64, 76
1, 21120, Control_c, 0, 64, 62
1, 21135, Control_c, 0, 64, 0
1, 21238, Control_c, 0, 64, 56
1, 21253, Control_c, 0, 64, 64
1, 21268, Control_c, 0, 64, 68
1, 21282, Control_c, 0, 64, 69
1, 21297, Control_c, 0, 64, 70
1, 21312, Control_c, 0, 64, 71
1, 21327, Control_c, 0, 64, 71
1, 21342, Control_c, 0, 64, 72
1, 21357, Control_c, 0, 64, 73
1, 21367, Note_on_c, 0, 55, 68
1, 21372, Control_c, 0, 64, 75
1, 21387, Control_c, 0, 64, 77
1, 21399, Note_off_c, 0, 62, 55
1, 21402, Control_c, 0, 64, 79
1, 21416, Control_c, 0, 64, 82
1, 21431, Control_c, 0, 64, 83
1, 21446, Control_c, 0, 64, 84
1, 21461, Control_c, 0, 64, 85
1, 21476, Control_c, 0, 64, 86
1, 21491, Control_c, 0, 64, 87
1, 21506, Control_c, 0, 64, 87
1, 21521, Control_c, 0, 64, 88
1, 21536, Control_c, 0, 64, 89
1, 21551, Control_c, 0, 64, 89
1, 21566, Control_c, 0, 64, 90
1, 21580, Control_c, 0, 64, 92
1, 21595, Control_c, 0, 64, 94
1, 21617, Control_c, 0, 64, 96
1, 21623, Note_off_c, 0, 55, 60
1, 21632, Control_c, 0, 64, 97
1, 21637, Note_on_c, 0, 62, 76
1, 21647, Control_c, 0, 64, 99
1, 21661, Control_c, 0, 64, 101
1, 21676, Control_c, 0, 64, 103
1, 21691, Control_c, 0, 64, 107
1, 21706, Control_c, 0, 64, 111
1, 21721, Control_c, 0, 64, 114
1, 21735, Control_c, 0, 64, 117
1, 21741, Note_off_c, 0, 62, 58
1, 21750, Control_c, 0, 64, 119
1, 21765, Control_c, 0, 64, 120
1, 21768, Note_off_c, 0, 74, 45
1, 21884, Note_on_c, 0, 62, 80
1, 21952, Note_off_c, 0, 58, 54
1, 21988, Note_off_c, 0, 62, 61
1, 22091, Control_c, 0, 64, 119
1, 22120, Control_c, 0, 64, 114
1, 22135, Control_c, 0, 64, 105
1, 22150, Control_c, 0, 64, 93
1, 22152, Note_on_c, 0, 78, 85
1, 22162, Note_on_c, 0, 73, 69
1, 22163, Note_on_c, 0, 61, 79
1, 22165, Control_c, 0, 64, 82
1, 22166, Note_on_c, 0, 57, 63
1, 22172, Note_on_c, 0, 54, 63
1, 22180, Control_c, 0, 64, 71
1, 22195, Control_c, 0, 64, 54
1, 22200, Note_off_c, 0, 53, 65
1, 22202, Note_off_c, 0, 79, 60
1, 22209, Control_c, 0, 64, 0
1, 22320, Note_off_c, 0, 61, 58
1, 22329, Control_c, 0, 64, 31
1, 22344, Control_c, 0, 64, 62
1, 22366, Control_c, 0, 64, 67
1, 22381, Control_c, 0, 64, 71
1, 22396, Control_c, 0, 64, 73
1, 22410, Control_c, 0, 64, 75
1, 22425, Control_c, 0, 64, 77
1, 22438, Note_on_c, 0, 61, 78
1, 22440, Control_c, 0, 64, 78
1, 22455, Control_c, 0, 64, 80
1, 22470, Control_c, 0, 64, 83
1, 22484, Control_c, 0, 64, 86
1, 22499, Control_c, 0, 64, 88
1, 22514, Control_c, 0, 64, 91
1, 22528, Control_c, 0, 64, 94
1, 22543, Control_c, 0, 64, 96
1, 22546, Note_off_c, 0, 61, 59
1, 22558, Control_c, 0, 64, 97
1, 22573, Control_c, 0, 64, 98
1, 22588, Control_c, 0, 64, 99
1, 22603, Control_c, 0, 64, 101
1, 22618, Control_c, 0, 64, 104
1, 22633, Control_c, 0, 64, 106
1, 22648, Control_c, 0, 64, 105
1, 22662, Control_c, 0, 64, 101
1, 22677, Control_c, 0, 64, 90
1, 22681, Note_on_c, 0, 61, 83
1, 22692, Control_c, 0, 64, 78
1, 22707, Control_c, 0, 64, 67
1, 22722, Control_c, 0, 64, 63
1, 22736, Control_c, 0, 64, 66
1, 22751, Control_c, 0, 64, 69
1, 22766, Control_c, 0, 64, 74
1, 22781, Control_c, 0, 64, 81
1, 22796, Control_c, 0, 64, 91
1, 22798, Note_off_c, 0, 61, 61
1, 22810, Control_c, 0, 64, 101
1, 22825, Control_c, 0, 64, 114
1, 22840, Control_c, 0, 64, 124
1, 22854, Control_c, 0, 64, 127
1, 22869, Control_c, 0, 64, 126
1, 22883, Control_c, 0, 64, 111
1, 22898, Control_c, 0, 64, 98
1, 22913, Control_c, 0, 64, 86
1, 22923, Note_on_c, 0, 61, 82
1, 22927, Control_c, 0, 64, 84
1, 22942, Control_c, 0, 64, 86
1, 22957, Control_c, 0, 64, 89
1, 22972, Control_c, 0, 64, 93
1, 22987, Control_c, 0, 64, 96
1, 23001, Control_c, 0, 64, 99
1, 23016, Control_c, 0, 64, 102
1, 23031, Control_c, 0, 64, 102
1, 23033, Note_off_c, 0, 57, 37
1, 23091, Note_off_c, 0, 61, 50
1, 23187, Control_c, 0, 64, 102
1, 23202, Control_c, 0, 64, 101
1, 23217, Control_c, 0, 64, 98
1, 23226, Note_on_c, 0, 62, 73
1, 23232, Control_c, 0, 64, 94
1, 23247, Control_c, 0, 64, 88
1, 23262, Control_c, 0, 64, 82
1, 23276, Control_c, 0, 64, 75
1, 23291, Control_c, 0, 64, 67
1, 23306, Control_c, 0, 64, 62
1, 23321, Control_c, 0, 64, 59
1, 23350, Control_c, 0, 64, 59
1, 23360, Note_off_c, 0, 54, 56
1, 23439, Control_c, 0, 64, 59
1, 23454, Control_c, 0, 64, 58
1, 23483, Control_c, 0, 64, 58
1, 23498, Control_c, 0, 64, 57
1, 23513, Control_c, 0, 64, 57
1, 23528, Control_c, 0, 64, 55
1, 23532, Note_on_c, 0, 61, 74
1, 23543, Control_c, 0, 64, 54
1, 23557, Control_c, 0, 64, 54
1, 23571, Note_off_c, 0, 62, 58
1, 23798, Note_on_c, 0, 59, 72
1, 23813, Note_off_c, 0, 61, 61
1, 24046, Note_on_c, 0, 57, 67
1, 24113, Note_off_c, 0, 59, 39
1, 24308, Note_on_c, 0, 56, 69
1, 24364, Note_off_c, 0, 57, 59
1, 24544, Control_c, 0, 64, 54
1, 24760, Control_c, 0, 64, 55
1, 24859, Note_on_c, 0, 55, 65
1, 24901, Note_off_c, 0, 56, 62
1, 25444, Note_on_c, 0, 54, 54
1, 25498, Note_off_c, 0, 73, 54
1, 25506, Note_off_c, 0, 55, 55
1, 25509, Note_off_c, 0, 78, 53
1, 25539, Control_c, 0, 64, 54
1, 25701, Control_c, 0, 64, 55
1, 25805, Control_c, 0, 64, 55
1, 26056, Control_c, 0, 64, 56
1, 26070, Control_c, 0, 64, 56
1, 26672, Control_c, 0, 64, 56
1, 26702, Control_c, 0, 64, 55
1, 26706, Note_on_c, 0, 48, 31
1, 26717, Control_c, 0, 64, 55
1, 26731, Control_c, 0, 64, 54
1, 26746, Control_c, 0, 64, 54
1, 26761, Control_c, 0, 64, 53
1, 26776, Note_off_c, 0, 54, 37
1, 26806, Control_c, 0, 64, 53
1, 26872, Control_c, 0, 64, 53
1, 26887, Control_c, 0, 64, 54
1, 26901, Control_c, 0, 64, 54
1, 26916, Control_c, 0, 64, 55
1, 26931, Control_c, 0, 64, 56
1, 26946, Control_c, 0, 64, 56
1, 26961, Control_c, 0, 64, 57
1, 26991, Control_c, 0, 64, 57
1, 27035, Control_c, 0, 64, 58
1, 27050, Control_c, 0, 64, 58
1, 27214, Control_c, 0, 64, 58
1, 27229, Control_c, 0, 64, 57
1, 27243, Control_c, 0, 64, 57
1, 27255, Note_off_c, 0, 48, 53
1, 27258, Control_c, 0, 64, 56
1, 27273, Control_c, 0, 64, 56
1, 27288, Control_c, 0, 64, 55
1, 27569, Control_c, 0, 64, 56
1, 28225, Note_on_c, 0, 60, 30
1, 28400, Control_c, 0, 64, 56
1, 28533, Control_c, 0, 64, 57
1, 28682, Control_c, 0, 64, 57
1, 28822, Note_on_c, 0, 61, 32
1, 29052, Control_c, 0, 64, 58
1, 29149, Control_c, 0, 64, 58
1, 29349, Note_on_c, 0, 66, 40
1, 29444, Note_off_c, 0, 61, 42
1, 29742, Control_c, 0, 64, 59
1, 29890, Note_on_c, 0, 64, 36
1, 29964, Note_off_c, 0, 66, 35
1, 30268, Control_c, 0, 64, 59
1, 30466, Note_on_c, 0, 67, 36
1, 30509, Note_on_c, 0, 56, 25
1, 30523, Note_off_c, 0, 64, 54
1, 30625, Note_off_c, 0, 60, 54
1, 31662, Control_c, 0, 64, 59
1, 31677, Control_c, 0, 64, 58
1, 31691, Control_c, 0, 64, 57
1, 31703, Note_on_c, 0, 66, 23
1, 31706, Control_c, 0, 64, 56
1, 31721, Control_c, 0, 64, 54
1, 31736, Control_c, 0, 64, 53
1, 31751, Control_c, 0, 64, 51
1, 31751, Note_off_c, 0, 67, 38
1, 31765, Control_c, 0, 64, 50
1, 31795, Control_c, 0, 64, 51
1, 31809, Control_c, 0, 64, 53
1, 31824, Control_c, 0, 64, 55
1, 31839, Control_c, 0, 64, 57
1, 31854, Control_c, 0, 64, 59
1, 31870, Control_c, 0, 64, 60
1, 31885, Control_c, 0, 64, 62
1, 31900, Control_c, 0, 64, 63
1, 31914, Control_c, 0, 64, 65
1, 31929, Control_c, 0, 64, 67
1, 31944, Control_c, 0, 64, 69
1, 31959, Control_c, 0, 64, 71
1, 31974, Control_c, 0, 64, 72
1, 31988, Control_c, 0, 64, 74
1, 32003, Control_c, 0, 64, 76
1, 32018, Control_c, 0, 64, 77
1, 32033, Control_c, 0, 64, 79
1, 32047, Control_c, 0, 64, 80
1, 32062, Control_c, 0, 64, 80
1, 32077, Control_c, 0, 64, 81
1, 32174, Control_c, 0, 64, 80
1, 32203, Control_c, 0, 64, 80
1, 32218, Control_c, 0, 64, 79
1, 32233, Control_c, 0, 64, 78
1, 32239, Note_off_c, 0, 66, 35
1, 32247, Control_c, 0, 64, 76
1, 32250, Note_off_c, 0, 56, 41
1, 32262, Control_c, 0, 64, 74
1, 32277, Control_c, 0, 64, 71
1, 32292, Control_c, 0, 64, 68
1, 32307, Control_c, 0, 64, 65
1, 32321, Control_c, 0, 64, 64
1, 32336, Control_c, 0, 64, 64
1, 32908, Control_c, 0, 64, 64
1, 33313, Note_on_c, 0, 72, 35
1, 33870, Note_on_c, 0, 65, 26
1, 33928, Note_off_c, 0, 65, 62
1, 34426, Note_on_c, 0, 65, 31
1, 34501, Note_off_c, 0, 65, 54
1, 34979, Note_on_c, 0, 74, 43
1, 35017, Note_off_c, 0, 72, 54
1, 35269, Note_on_c, 0, 67, 43
1, 35346, Note_off_c, 0, 67, 60
1, 35554, Control_c, 0, 64, 64
1, 35573, Note_on_c, 0, 84, 60
1, 35643, Note_off_c, 0, 74, 53
1, 35859, Note_on_c, 0, 67, 35
1, 35916, Note_off_c, 0, 67, 62
1, 36124, Control_c, 0, 64, 64
1, 36144, Note_on_c, 0, 83, 54
1, 36162, Note_off_c, 0, 84, 52
1, 36184, Control_c, 0, 64, 65
1, 36199, Control_c, 0, 64, 65
1, 36213, Control_c, 0, 64, 66
1, 36228, Control_c, 0, 64, 67
1, 36243, Control_c, 0, 64, 68
1, 36258, Control_c, 0, 64, 68
1, 36273, Control_c, 0, 64, 70
1, 36278, Note_off_c, 0, 83, 64
1, 36287, Control_c, 0, 64, 72
1, 36302, Control_c, 0, 64, 73
1, 36317, Control_c, 0, 64, 75
1, 36332, Control_c, 0, 64, 77
1, 36347, Control_c, 0, 64, 78
1, 36375, Note_on_c, 0, 83, 53
1, 36420, Control_c, 0, 64, 77
1, 36454, Note_on_c, 0, 76, 56
1, 36462, Note_off_c, 0, 83, 60
1, 36494, Control_c, 0, 64, 77
1, 36554, Control_c, 0, 64, 76
1, 36591, Control_c, 0, 64, 76
1, 36605, Control_c, 0, 64, 74
1, 36620, Control_c, 0, 64, 73
1, 36635, Control_c, 0, 64, 71
1, 36650, Control_c, 0, 64, 69
1, 36666, Control_c, 0, 64, 68
1, 36696, Control_c, 0, 64, 69
1, 36710, Control_c, 0, 64, 70
1, 36725, Control_c, 0, 64, 71
1, 36734, Note_on_c, 0, 50, 48
1, 36740, Control_c, 0, 64, 72
1, 36755, Control_c, 0, 64, 74
1, 36770, Control_c, 0, 64, 76
1, 36784, Control_c, 0, 64, 78
1, 36799, Control_c, 0, 64, 81
1, 36814, Control_c, 0, 64, 84
1, 36828, Control_c, 0, 64, 87
1, 36843, Control_c, 0, 64, 90
1, 36858, Control_c, 0, 64, 92
1, 36873, Control_c, 0, 64, 94
1, 36920, Note_off_c, 0, 50, 38
1, 37007, Control_c, 0, 64, 93
1, 37022, Control_c, 0, 64, 92
1, 37036, Control_c, 0, 64, 90
1, 37051, Control_c, 0, 64, 87
1, 37062, Note_on_c, 0, 65, 41
1, 37066, Note_on_c, 0, 50, 50
1, 37066, Control_c, 0, 64, 84
1, 37081, Control_c, 0, 64, 80
1, 37096, Control_c, 0, 64, 77
1, 37110, Control_c, 0, 64, 72
1, 37125, Control_c, 0, 64, 67
1, 37140, Control_c, 0, 64, 64
1, 37154, Control_c, 0, 64, 62
1, 37197, Note_off_c, 0, 65, 58
1, 37243, Control_c, 0, 64, 61
1, 37288, Control_c, 0, 64, 61
1, 37302, Control_c, 0, 64, 60
1, 37317, Control_c, 0, 64, 59
1, 37340, Control_c, 0, 64, 59
1, 37369, Control_c, 0, 64, 58
1, 37399, Control_c, 0, 64, 58
1, 37400, Note_on_c, 0, 56, 42
1, 37428, Control_c, 0, 64, 57
1, 37431, Note_off_c, 0, 50, 50
1, 37474, Control_c, 0, 64, 57
1, 37533, Control_c, 0, 64, 56
1, 37622, Control_c, 0, 64, 56
1, 37652, Control_c, 0, 64, 55
1, 37689, Note_on_c, 0, 65, 41
1, 37740, Control_c, 0, 64, 56
1, 37755, Control_c, 0, 64, 56
1, 37770, Control_c, 0, 64, 57
1, 37772, Note_off_c, 0, 65, 49
1, 37785, Control_c, 0, 64, 57
1, 37800, Control_c, 0, 64, 58
1, 37814, Control_c, 0, 64, 59
1, 37844, Control_c, 0, 64, 60
1, 37874, Control_c, 0, 64, 60
1, 37889, Control_c, 0, 64, 61
1, 37904, Control_c, 0, 64, 63
1, 37919, Control_c, 0, 64, 63
1, 37933, Control_c, 0, 64, 64
1, 37948, Control_c, 0, 64, 65
1, 37963, Control_c, 0, 64, 66
1, 37977, Control_c, 0, 64, 68
1, 37978, Note_on_c, 0, 75, 47
1, 37992, Control_c, 0, 64, 70
1, 38007, Control_c, 0, 64, 73
1, 38022, Control_c, 0, 64, 76
1, 38037, Control_c, 0, 64, 80
1, 38051, Control_c, 0, 64, 83
1, 38052, Note_off_c, 0, 76, 39
1, 38066, Control_c, 0, 64, 85
1, 38081, Note_off_c, 0, 56, 61
1, 38089, Control_c, 0, 64, 87
1, 38104, Control_c, 0, 64, 89
1, 38118, Control_c, 0, 64, 91
1, 38133, Control_c, 0, 64, 92
1, 38148, Control_c, 0, 64, 93
1, 38282, Control_c, 0, 64, 92
1, 38296, Note_on_c, 0, 77, 55
1, 38297, Control_c, 0, 64, 90
1, 38312, Control_c, 0, 64, 87
1, 38325, Note_on_c, 0, 56, 53
1, 38327, Control_c, 0, 64, 82
1, 38342, Control_c, 0, 64, 77
1, 38356, Control_c, 0, 64, 72
1, 38358, Note_off_c, 0, 75, 54
1, 38371, Control_c, 0, 64, 69
1, 38386, Control_c, 0, 64, 68
1, 38401, Control_c, 0, 64, 70
1, 38415, Control_c, 0, 64, 71
1, 38430, Control_c, 0, 64, 73
1, 38445, Control_c, 0, 64, 74
1, 38460, Control_c, 0, 64, 76
1, 38475, Control_c, 0, 64, 78
1, 38489, Control_c, 0, 64, 80
1, 38504, Control_c, 0, 64, 83
1, 38515, Note_off_c, 0, 56, 55
1, 38519, Control_c, 0, 64, 85
1, 38534, Control_c, 0, 64, 86
1, 38578, Control_c, 0, 64, 85
1, 38593, Control_c, 0, 64, 83
1, 38599, Note_on_c, 0, 67, 51
1, 38607, Control_c, 0, 64, 80
1, 38621, Note_on_c, 0, 56, 61
1, 38622, Control_c, 0, 64, 78
1, 38637, Control_c, 0, 64, 75
1, 38652, Control_c, 0, 64, 71
1, 38667, Control_c, 0, 64, 68
1, 38682, Control_c, 0, 64, 66
1, 38697, Control_c, 0, 64, 65
1, 38727, Note_off_c, 0, 67, 35
1, 38771, Control_c, 0, 64, 64
1, 38852, Control_c, 0, 64, 64
1, 38882, Control_c, 0, 64, 63
1, 38926, Control_c, 0, 64, 63
1, 38941, Control_c, 0, 64, 62
1, 38947, Note_on_c, 0, 76, 53
1, 38956, Control_c, 0, 64, 62
1, 38965, Note_on_c, 0, 58, 61
1, 38971, Control_c, 0, 64, 61
1, 38981, Note_off_c, 0, 77, 56
1, 39000, Control_c, 0, 64, 61
1, 39007, Note_off_c, 0, 56, 63
1, 39015, Control_c, 0, 64, 60
1, 39030, Control_c, 0, 64, 59
1, 39045, Control_c, 0, 64, 59
1, 39060, Control_c, 0, 64, 58
1, 39075, Control_c, 0, 64, 58
1, 39090, Control_c, 0, 64, 57
1, 39120, Control_c, 0, 64, 57
1, 39150, Control_c, 0, 64, 56
1, 39165, Control_c, 0, 64, 54
1, 39179, Control_c, 0, 64, 51
1, 39194, Control_c, 0, 64, 47
1, 39209, Control_c, 0, 64, 40
1, 39223, Control_c, 0, 64, 32
1, 39238, Control_c, 0, 64, 23
1, 39253, Control_c, 0, 64, 0
1, 39267, Note_on_c, 0, 56, 56
1, 39275, Note_on_c, 0, 67, 46
1, 39324, Note_off_c, 0, 58, 54
1, 39359, Note_off_c, 0, 67, 61
1, 39520, Control_c, 0, 64, 27
1, 39535, Control_c, 0, 64, 49
1, 39549, Control_c, 0, 64, 61
1, 39564, Control_c, 0, 64, 65
1, 39587, Control_c, 0, 64, 67
1, 39589, Note_on_c, 0, 74, 51
1, 39602, Control_c, 0, 64, 70
1, 39617, Control_c, 0, 64, 72
1, 39627, Note_off_c, 0, 56, 61
1, 39631, Control_c, 0, 64, 75
1, 39646, Control_c, 0, 64, 77
1, 39661, Control_c, 0, 64, 78
1, 39676, Control_c, 0, 64, 80
1, 39691, Control_c, 0, 64, 81
1, 39705, Control_c, 0, 64, 82
1, 39720, Control_c, 0, 64, 83
1, 39728, Note_on_c, 0, 56, 58
1, 39735, Control_c, 0, 64, 84
1, 39750, Control_c, 0, 64, 85
1, 39764, Control_c, 0, 64, 86
1, 39774, Note_off_c, 0, 74, 38
1, 39779, Control_c, 0, 64, 87
1, 39791, Note_off_c, 0, 56, 59
1, 39794, Control_c, 0, 64, 87
1, 39809, Control_c, 0, 64, 88
1, 39838, Control_c, 0, 64, 87
1, 39854, Control_c, 0, 64, 87
1, 39869, Control_c, 0, 64, 85
1, 39882, Note_off_c, 0, 76, 53
1, 39884, Control_c, 0, 64, 81
1, 39889, Note_on_c, 0, 74, 61
1, 39898, Note_on_c, 0, 56, 65
1, 39899, Control_c, 0, 64, 77
1, 39914, Control_c, 0, 64, 71
1, 39928, Control_c, 0, 64, 65
1, 39943, Control_c, 0, 64, 60
1, 39950, Poly_aftertouch_c, 0, 51, 127
1, 39958, Control_c, 0, 64, 58
1, 39973, Control_c, 0, 64, 57
1, 40032, Control_c, 0, 64, 57
1, 40039, Note_on_c, 0, 78, 65
1, 40047, Control_c, 0, 64, 56
1, 40064, Note_off_c, 0, 74, 55
1, 40150, Control_c, 0, 64, 56
1, 40179, Control_c, 0, 64, 55
1, 40181, Note_on_c, 0, 55, 66
1, 40218, Note_off_c, 0, 56, 57
1, 40239, Control_c, 0, 64, 55
1, 40379, Control_c, 0, 64, 54
1, 40409, Control_c, 0, 64, 54
1, 40424, Control_c, 0, 64, 53
1, 40439, Control_c, 0, 64, 52
1, 40453, Control_c, 0, 64, 50
1, 40468, Control_c, 0, 64, 48
1, 40471, Poly_aftertouch_c, 0, 51, 0
1, 40483, Control_c, 0, 64, 45
1, 40498, Control_c, 0, 64, 40
1, 40513, Control_c, 0, 64, 31
1, 40522, Note_on_c, 0, 65, 45
1, 40527, Control_c, 0, 64, 0
1, 40534, Note_on_c, 0, 60, 59
1, 40591, Note_off_c, 0, 55, 59
1, 40631, Note_off_c, 0, 65, 53
1, 41144, Note_on_c, 0, 65, 38
1, 41173, Control_c, 0, 64, 19
1, 41188, Control_c, 0, 64, 56
1, 41202, Control_c, 0, 64, 65
1, 41217, Control_c, 0, 64, 68
1, 41232, Control_c, 0, 64, 72
1, 41247, Control_c, 0, 64, 74
1, 41262, Control_c, 0, 64, 77
1, 41266, Note_off_c, 0, 65, 53
1, 41276, Control_c, 0, 64, 78
1, 41291, Control_c, 0, 64, 79
1, 41306, Control_c, 0, 64, 80
1, 41365, Control_c, 0, 64, 80
1, 41406, Note_off_c, 0, 60, 38
1, 41409, Control_c, 0, 64, 81
1, 41455, Control_c, 0, 64, 80
1, 41485, Control_c, 0, 64, 80
1, 41499, Control_c, 0, 64, 79
1, 41514, Control_c, 0, 64, 77
1, 41529, Control_c, 0, 64, 74
1, 41544, Control_c, 0, 64, 69
1, 41559, Control_c, 0, 64, 63
1, 41562, Note_on_c, 0, 76, 42
1, 41573, Control_c, 0, 64, 53
1, 41582, Note_on_c, 0, 60, 46
1, 41588, Control_c, 0, 64, 38
1, 41603, Control_c, 0, 64, 30
1, 41606, Note_off_c, 0, 78, 58
1, 41618, Control_c, 0, 64, 29
1, 41648, Control_c, 0, 64, 41
1, 41663, Control_c, 0, 64, 53
1, 41678, Control_c, 0, 64, 61
1, 41692, Control_c, 0, 64, 65
1, 41707, Control_c, 0, 64, 69
1, 41722, Control_c, 0, 64, 72
1, 41737, Control_c, 0, 64, 76
1, 41751, Control_c, 0, 64, 78
1, 41766, Control_c, 0, 64, 82
1, 41781, Control_c, 0, 64, 85
1, 41792, Note_off_c, 0, 76, 36
1, 41796, Control_c, 0, 64, 89
1, 41811, Control_c, 0, 64, 93
1, 41833, Control_c, 0, 64, 98
1, 41848, Control_c, 0, 64, 100
1, 41863, Control_c, 0, 64, 103
1, 41871, Note_off_c, 0, 60, 38
1, 41877, Control_c, 0, 64, 104
1, 41892, Control_c, 0, 64, 104
1, 41907, Control_c, 0, 64, 105
1, 41922, Control_c, 0, 64, 106
1, 41937, Control_c, 0, 64, 112
1, 41951, Control_c, 0, 64, 127
1, 41994, Note_on_c, 0, 60, 56
1, 42011, Control_c, 0, 64, 119
1, 42025, Control_c, 0, 64, 99
1, 42040, Control_c, 0, 64, 89
1, 42055, Control_c, 0, 64, 84
1, 42070, Control_c, 0, 64, 84
1, 42085, Control_c, 0, 64, 85
1, 42099, Control_c, 0, 64, 86
1, 42114, Control_c, 0, 64, 89
1, 42129, Control_c, 0, 64, 92
1, 42143, Control_c, 0, 64, 94
1, 42158, Control_c, 0, 64, 96
1, 42173, Control_c, 0, 64, 98
1, 42188, Control_c, 0, 64, 101
1, 42189, Note_off_c, 0, 60, 47
1, 42203, Control_c, 0, 64, 104
1, 42218, Control_c, 0, 64, 111
1, 42232, Control_c, 0, 64, 127
1, 42304, Note_on_c, 0, 60, 64
1, 42322, Control_c, 0, 64, 107
1, 42337, Control_c, 0, 64, 96
1, 42353, Control_c, 0, 64, 95
1, 42382, Control_c, 0, 64, 96
1, 42397, Control_c, 0, 64, 97
1, 42412, Control_c, 0, 64, 100
1, 42427, Control_c, 0, 64, 102
1, 42441, Control_c, 0, 64, 104
1, 42456, Control_c, 0, 64, 106
1, 42471, Control_c, 0, 64, 108
1, 42480, Note_off_c, 0, 60, 57
1, 42486, Control_c, 0, 64, 112
1, 42501, Control_c, 0, 64, 127
1, 42582, Control_c, 0, 64, 114
1, 42588, Note_on_c, 0, 60, 70
1, 42597, Control_c, 0, 64, 96
1, 42612, Control_c, 0, 64, 88
1, 42627, Control_c, 0, 64, 87
1, 42642, Control_c, 0, 64, 87
1, 42656, Control_c, 0, 64, 89
1, 42671, Control_c, 0, 64, 92
1, 42686, Control_c, 0, 64, 96
1, 42701, Control_c, 0, 64, 100
1, 42716, Control_c, 0, 64, 103
1, 42730, Control_c, 0, 64, 107
1, 42737, Note_off_c, 0, 60, 58
1, 42745, Control_c, 0, 64, 113
1, 42760, Control_c, 0, 64, 127
1, 42819, Control_c, 0, 64, 109
1, 42834, Control_c, 0, 64, 90
1, 42849, Control_c, 0, 64, 77
1, 42860, Note_on_c, 0, 60, 69
1, 42864, Control_c, 0, 64, 71
1, 42879, Control_c, 0, 64, 72
1, 42894, Control_c, 0, 64, 75
1, 42909, Control_c, 0, 64, 79
1, 42923, Control_c, 0, 64, 83
1, 42938, Control_c, 0, 64, 88
1, 42953, Control_c, 0, 64, 93
1, 42967, Control_c, 0, 64, 97
1, 42982, Control_c, 0, 64, 100
1, 42997, Control_c, 0, 64, 103
1, 43012, Control_c, 0, 64, 108
1, 43027, Control_c, 0, 64, 119
1, 43034, Note_off_c, 0, 60, 57
1, 43043, Control_c, 0, 64, 127
1, 43102, Control_c, 0, 64, 118
1, 43117, Control_c, 0, 64, 93
1, 43132, Control_c, 0, 64, 80
1, 43146, Control_c, 0, 64, 74
1, 43147, Note_on_c, 0, 60, 69
1, 43161, Control_c, 0, 64, 75
1, 43176, Control_c, 0, 64, 79
1, 43191, Control_c, 0, 64, 82
1, 43205, Control_c, 0, 64, 86
1, 43220, Control_c, 0, 64, 91
1, 43235, Control_c, 0, 64, 98
1, 43250, Control_c, 0, 64, 104
1, 43265, Control_c, 0, 64, 111
1, 43279, Control_c, 0, 64, 117
1, 43294, Control_c, 0, 64, 127
1, 43308, Note_off_c, 0, 60, 54
1, 43435, Control_c, 0, 64, 102
1, 43450, Control_c, 0, 64, 92
1, 43472, Note_on_c, 0, 60, 65
1, 43479, Control_c, 0, 64, 94
1, 43494, Control_c, 0, 64, 97
1, 43509, Control_c, 0, 64, 100
1, 43524, Control_c, 0, 64, 102
1, 43539, Control_c, 0, 64, 103
1, 43776, Control_c, 0, 64, 102
1, 43790, Control_c, 0, 64, 101
1, 43805, Control_c, 0, 64, 99
1, 43820, Control_c, 0, 64, 97
1, 43835, Control_c, 0, 64, 92
1, 43837, Note_on_c, 0, 70, 73
1, 43851, Control_c, 0, 64, 88
1, 43856, Note_off_c, 0, 60, 54
1, 43861, Note_on_c, 0, 57, 52
1, 43866, Control_c, 0, 64, 82
1, 43881, Control_c, 0, 64, 74
1, 43895, Control_c, 0, 64, 67
1, 43910, Control_c, 0, 64, 57
1, 43925, Control_c, 0, 64, 40
1, 43940, Control_c, 0, 64, 38
1, 43955, Control_c, 0, 64, 36
1, 43969, Control_c, 0, 64, 34
1, 43984, Control_c, 0, 64, 30
1, 43999, Control_c, 0, 64, 26
1, 44014, Control_c, 0, 64, 23
1, 44028, Control_c, 0, 64, 21
1, 44043, Control_c, 0, 64, 19
1, 44058, Control_c, 0, 64, 17
1, 44080, Control_c, 0, 64, 11
1, 44095, Control_c, 0, 64, 0
1, 44175, Note_off_c, 0, 57, 51
1, 44182, Note_on_c, 0, 67, 59
1, 44296, Note_off_c, 0, 67, 54
1, 44537, Note_on_c, 0, 57, 35
1, 44995, Note_on_c, 0, 71, 39
1, 44998, Note_on_c, 0, 67, 38
1, 45023, Note_off_c, 0, 70, 51
1, 45392, Note_off_c, 0, 67, 45
1, 45417, Note_on_c, 0, 49, 36
1, 45429, Note_off_c, 0, 71, 45
1, 45457, Note_off_c, 0, 57, 42
1, 45526, Control_c, 0, 64, 35
1, 45541, Control_c, 0, 64, 55
1, 45556, Control_c, 0, 64, 63
1, 45578, Control_c, 0, 64, 65
1, 45592, Control_c, 0, 64, 68
1, 45607, Control_c, 0, 64, 70
1, 45622, Control_c, 0, 64, 73
1, 45637, Control_c, 0, 64, 75
1, 45652, Control_c, 0, 64, 77
1, 45666, Control_c, 0, 64, 79
1, 45681, Note_off_c, 0, 49, 54
1, 45681, Control_c, 0, 64, 81
1, 45696, Control_c, 0, 64, 83
1, 45711, Control_c, 0, 64, 84
1, 45726, Control_c, 0, 64, 85
1, 45756, Control_c, 0, 64, 84
1, 45770, Control_c, 0, 64, 81
1, 45785, Control_c, 0, 64, 76
1, 45786, Note_on_c, 0, 49, 52
1, 45800, Control_c, 0, 64, 69
1, 45815, Control_c, 0, 64, 63
1, 45830, Control_c, 0, 64, 58
1, 45845, Control_c, 0, 64, 61
1, 45860, Control_c, 0, 64, 64
1, 45874, Control_c, 0, 64, 65
1, 45889, Control_c, 0, 64, 67
1, 45904, Control_c, 0, 64, 69
1, 45918, Control_c, 0, 64, 70
1, 45933, Control_c, 0, 64, 72
1, 45948, Control_c, 0, 64, 73
1, 45963, Control_c, 0, 64, 74
1, 45978, Control_c, 0, 64, 76
1, 45992, Control_c, 0, 64, 77
1, 46007, Control_c, 0, 64, 78
1, 46014, Note_off_c, 0, 49, 54
1, 46022, Control_c, 0, 64, 79
1, 46037, Control_c, 0, 64, 80
1, 46185, Control_c, 0, 64, 79
1, 46200, Control_c, 0, 64, 76
1, 46203, Note_on_c, 0, 49, 27
1, 46215, Control_c, 0, 64, 71
1, 46230, Control_c, 0, 64, 66
1, 46245, Control_c, 0, 64, 62
1, 46260, Control_c, 0, 64, 58
1, 46275, Control_c, 0, 64, 57
1, 46593, Control_c, 0, 64, 57
1, 46727, Control_c, 0, 64, 57
1, 46741, Control_c, 0, 64, 56
1, 46748, Note_on_c, 0, 54, 37
1, 46756, Control_c, 0, 64, 55
1, 46771, Control_c, 0, 64, 52
1, 46786, Control_c, 0, 64, 46
1, 46793, Note_off_c, 0, 49, 41
1, 46801, Control_c, 0, 64, 40
1, 46815, Control_c, 0, 64, 38
1, 47342, Control_c, 0, 64, 38
1, 47461, Control_c, 0, 64, 39
1, 47653, Control_c, 0, 64, 40
1, 47899, Control_c, 0, 64, 40
1, 48600, Control_c, 0, 64, 40
1, 48626, Note_on_c, 0, 72, 38
1, 48630, Control_c, 0, 64, 39
1, 48634, Note_on_c, 0, 65, 34
1, 48637, Note_on_c, 0, 59, 38
1, 48644, Note_on_c, 0, 62, 29
1, 48646, Control_c, 0, 64, 38
1, 48661, Control_c, 0, 64, 36
1, 48676, Control_c, 0, 64, 31
1, 48690, Control_c, 0, 64, 29
1, 48700, Note_off_c, 0, 72, 62
1, 48701, Note_off_c, 0, 65, 62
1, 48702, Note_off_c, 0, 54, 56
1, 48704, Note_off_c, 0, 59, 58
1, 48704, Note_off_c, 0, 62, 57
1, 48868, Control_c, 0, 64, 31
1, 48897, Control_c, 0, 64, 32
1, 51218, Control_c, 0, 64, 33
1, 51233, Control_c, 0, 64, 34
1, 51248, Control_c, 0, 64, 35
1, 51277, Control_c, 0, 64, 36
1, 51336, Control_c, 0, 64, 36
1, 51351, Control_c, 0, 64, 37
1, 51381, Control_c, 0, 64, 38
1, 51425, Control_c, 0, 64, 38
1, 51440, Control_c, 0, 64, 39
1, 51455, Control_c, 0, 64, 40
1, 51470, Control_c, 0, 64, 41
1, 51485, Control_c, 0, 64, 42
1, 51515, Control_c, 0, 64, 43
1, 51529, Control_c, 0, 64, 44
1, 51544, Control_c, 0, 64, 45
1, 51566, Control_c, 0, 64, 46
1, 51581, Control_c, 0, 64, 47
1, 51596, Control_c, 0, 64, 48
1, 51610, Control_c, 0, 64, 48
1, 51625, Control_c, 0, 64, 49
1, 51670, Control_c, 0, 64, 49
1, 51685, Control_c, 0, 64, 50
1, 51774, Control_c, 0, 64, 50
1, 51923, Control_c, 0, 64, 51
1, 52353, Note_on_c, 0, 72, 50
1, 52358, Note_on_c, 0, 65, 46
1, 52360, Control_c, 0, 64, 51
1, 52366, Note_on_c, 0, 62, 39
1, 52373, Note_on_c, 0, 59, 44
1, 52375, Control_c, 0, 64, 51
1, 52388, Note_off_c, 0, 72, 66
1, 52390, Control_c, 0, 64, 48
1, 52394, Note_off_c, 0, 65, 65
1, 52396, Note_off_c, 0, 62, 58
1, 52405, Control_c, 0, 64, 43
1, 52420, Note_off_c, 0, 59, 61
1, 52420, Control_c, 0, 64, 35
1, 52434, Control_c, 0, 64, 14
1, 52449, Control_c, 0, 64, 0
1, 52830, Note_on_c, 0, 50, 49
1, 52949, Note_on_c, 0, 52, 47
1, 52989, Note_off_c, 0, 50, 38
1, 53682, Note_on_c, 0, 59, 46
1, 53707, Note_off_c, 0, 52, 48
1, 53905, Note_off_c, 0, 59, 58
1, 53923, Note_on_c, 0, 57, 51
1, 54135, Note_on_c, 0, 47, 59
1, 54139, Note_off_c, 0, 57, 53
1, 54342, Note_on_c, 0, 48, 62
1, 54373, Note_off_c, 0, 47, 61
1, 54557, Note_off_c, 0, 48, 63
1, 54564, Note_on_c, 0, 50, 63
1, 54660, Note_on_c, 0, 52, 62
1, 54660, Note_off_c, 0, 50, 65
1, 54956, Note_on_c, 0, 72, 67
1, 54961, Note_on_c, 0, 59, 62
1, 54962, Note_on_c, 0, 65, 58
1, 54964, Note_on_c, 0, 62, 57
1, 54981, Note_off_c, 0, 72, 68
1, 54984, Note_off_c, 0, 65, 62
1, 54986, Note_off_c, 0, 62, 61
1, 54996, Note_off_c, 0, 59, 57
1, 55151, Note_on_c, 0, 55, 60
1, 55200, Note_off_c, 0, 52, 59
1, 55375, Note_on_c, 0, 57, 75
1, 55381, Note_off_c, 0, 55, 63
1, 55601, Note_on_c, 0, 66, 68
1, 55608, Note_off_c, 0, 57, 62
1, 55637, Control_c, 0, 64, 54
1, 55652, Control_c, 0, 64, 67
1, 55667, Control_c, 0, 64, 74
1, 55679, Note_off_c, 0, 66, 62
1, 55682, Control_c, 0, 64, 82
1, 55696, Control_c, 0, 64, 89
1, 55711, Control_c, 0, 64, 94
1, 55726, Control_c, 0, 64, 96
1, 55919, Control_c, 0, 64, 95
1, 55933, Note_on_c, 0, 66, 76
1, 55934, Control_c, 0, 64, 92
1, 55949, Control_c, 0, 64, 87
1, 55956, Note_off_c, 0, 66, 66
1, 55964, Control_c, 0, 64, 79
1, 55979, Control_c, 0, 64, 70
1, 55993, Control_c, 0, 64, 59
1, 56008, Control_c, 0, 64, 28
1, 56023, Control_c, 0, 64, 0
1, 56038, Note_on_c, 0, 66, 71
1, 56454, Note_off_c, 0, 66, 58
1, 56462, Note_on_c, 0, 64, 58
1, 56579, Control_c, 0, 64, 60
1, 56594, Control_c, 0, 64, 67
1, 56608, Control_c, 0, 64, 73
1, 56624, Control_c, 0, 64, 78
1, 56639, Control_c, 0, 64, 84
1, 56654, Control_c, 0, 64, 88
1, 56664, Note_off_c, 0, 64, 62
1, 56669, Control_c, 0, 64, 92
1, 56684, Control_c, 0, 64, 93
1, 56698, Control_c, 0, 64, 93
1, 56839, Control_c, 0, 64, 93
1, 56853, Control_c, 0, 64, 88
1, 56868, Control_c, 0, 64, 80
1, 56883, Control_c, 0, 64, 70
1, 56898, Control_c, 0, 64, 59
1, 56913, Note_on_c, 0, 64, 61
1, 56913, Control_c, 0, 64, 45
1, 56928, Control_c, 0, 64, 58
1, 56943, Control_c, 0, 64, 65
1, 56957, Control_c, 0, 64, 73
1, 56972, Control_c, 0, 64, 79
1, 56985, Note_off_c, 0, 64, 63
1, 56987, Control_c, 0, 64, 87
1, 57002, Control_c, 0, 64, 92
1, 57017, Control_c, 0, 64, 94
1, 57031, Control_c, 0, 64, 95
1, 57149, Control_c, 0, 64, 95
1, 57209, Note_on_c, 0, 64, 64
1, 57209, Control_c, 0, 64, 94
1, 57223, Control_c, 0, 64, 90
1, 57238, Control_c, 0, 64, 83
1, 57242, Note_off_c, 0, 64, 65
1, 57253, Control_c, 0, 64, 75
1, 57268, Control_c, 0, 64, 68
1, 57283, Control_c, 0, 64, 62
1, 57298, Control_c, 0, 64, 58
1, 57313, Note_on_c, 0, 64, 67
1, 57313, Control_c, 0, 64, 57
1, 57432, Control_c, 0, 64, 57
1, 57476, Control_c, 0, 64, 56
1, 57491, Control_c, 0, 64, 55
1, 57506, Control_c, 0, 64, 53
1, 57513, Note_on_c, 0, 62, 65
1, 57521, Control_c, 0, 64, 51
1, 57536, Control_c, 0, 64, 48
1, 57558, Control_c, 0, 64, 45
1, 57562, Note_off_c, 0, 64, 49
1, 57572, Control_c, 0, 64, 43
1, 57587, Control_c, 0, 64, 42
1, 57602, Control_c, 0, 64, 41
1, 57632, Control_c, 0, 64, 39
1, 57646, Control_c, 0, 64, 36
1, 57661, Control_c, 0, 64, 34
1, 57676, Control_c, 0, 64, 32
1, 57691, Control_c, 0, 64, 31
1, 57721, Control_c, 0, 64, 29
1, 57729, Note_on_c, 0, 55, 62
1, 57733, Note_off_c, 0, 62, 56
1, 57736, Control_c, 0, 64, 26
1, 57751, Control_c, 0, 64, 21
1, 57766, Control_c, 0, 64, 0
1, 57938, Note_on_c, 0, 57, 62
1, 57959, Note_off_c, 0, 55, 53
1, 58112, Note_off_c, 0, 57, 61
1, 58136, Note_on_c, 0, 58, 64
1, 58165, Control_c, 0, 64, 42
1, 58180, Control_c, 0, 64, 62
1, 58195, Control_c, 0, 64, 68
1, 58210, Control_c, 0, 64, 72
1, 58225, Control_c, 0, 64, 75
1, 58240, Control_c, 0, 64, 80
1, 58255, Control_c, 0, 64, 87
1, 58269, Control_c, 0, 64, 96
1, 58284, Control_c, 0, 64, 103
1, 58322, Control_c, 0, 64, 100
1, 58326, Note_off_c, 0, 58, 61
1, 58336, Control_c, 0, 64, 92
1, 58345, Note_on_c, 0, 59, 58
1, 58349, Note_on_c, 0, 62, 72
1, 58350, Note_on_c, 0, 65, 68
1, 58350, Note_on_c, 0, 72, 64
1, 58351, Control_c, 0, 64, 80
1, 58364, Note_on_c, 0, 48, 58
1, 58366, Control_c, 0, 64, 68
1, 58368, Note_off_c, 0, 62, 66
1, 58368, Note_off_c, 0, 65, 65
1, 58375, Note_off_c, 0, 72, 66
1, 58376, Note_off_c, 0, 59, 64
1, 58381, Control_c, 0, 64, 53
1, 58395, Control_c, 0, 64, 36
1, 58514, Control_c, 0, 64, 35
1, 58529, Control_c, 0, 64, 34
1, 58546, Note_off_c, 0, 48, 62
1, 58565, Note_on_c, 0, 49, 60
1, 58779, Note_on_c, 0, 42, 53
1, 58800, Note_off_c, 0, 49, 62
1, 58884, Control_c, 0, 64, 35
1, 58914, Control_c, 0, 64, 36
1, 58943, Control_c, 0, 64, 36
1, 58969, Note_off_c, 0, 42, 63
1, 58994, Note_on_c, 0, 43, 64
1, 59115, Control_c, 0, 64, 36
1, 59130, Control_c, 0, 64, 33
1, 59145, Control_c, 0, 64, 26
1, 59159, Control_c, 0, 64, 0
1, 59201, Note_on_c, 0, 45, 72
1, 59204, Note_off_c, 0, 43, 59
1, 59390, Note_off_c, 0, 45, 63
1, 59405, Note_on_c, 0, 47, 69
1, 59544, Control_c, 0, 64, 36
1, 59559, Control_c, 0, 64, 62
1, 59574, Control_c, 0, 64, 68
1, 59579, Note_off_c, 0, 47, 65
1, 59589, Control_c, 0, 64, 73
1, 59604, Control_c, 0, 64, 78
1, 59605, Note_on_c, 0, 48, 67
1, 59618, Control_c, 0, 64, 82
1, 59633, Control_c, 0, 64, 85
1, 59644, Note_off_c, 0, 48, 64
1, 59648, Control_c, 0, 64, 87
1, 59662, Control_c, 0, 64, 88
1, 59677, Control_c, 0, 64, 90
1, 59692, Control_c, 0, 64, 92
1, 59707, Control_c, 0, 64, 97
1, 59722, Control_c, 0, 64, 98
1, 59736, Control_c, 0, 64, 97
1, 59751, Control_c, 0, 64, 90
1, 59766, Control_c, 0, 64, 77
1, 59781, Control_c, 0, 64, 62
1, 59804, Control_c, 0, 64, 0
1, 59816, Note_on_c, 0, 50, 65
1, 59841, Note_on_c, 0, 48, 42
1, 59873, Note_off_c, 0, 48, 33
1, 59913, Note_on_c, 0, 52, 67
1, 59976, Note_off_c, 0, 50, 62
1, 60195, Note_on_c, 0, 72, 75
1, 60198, Note_on_c, 0, 59, 70
1, 60199, Note_on_c, 0, 62, 72
1, 60204, Note_on_c, 0, 65, 64
1, 60225, Note_off_c, 0, 62, 67
1, 60228, Note_off_c, 0, 65, 65
1, 60237, Note_off_c, 0, 72, 61
1, 60258, Note_off_c, 0, 59, 40
1, 60294, Note_on_c, 0, 53, 75
1, 60320, Note_off_c, 0, 52, 61
1, 60389, Note_on_c, 0, 55, 71
1, 60389, Note_off_c, 0, 53, 66
1, 60456, Note_off_c, 0, 55, 63
1, 60463, Note_on_c, 0, 57, 77
1, 60471, Control_c, 0, 67, 126
1, 60485, Control_c, 0, 67, 123
1, 60500, Control_c, 0, 67, 121
1, 60515, Control_c, 0, 67, 119
1, 60530, Control_c, 0, 67, 116
1, 60553, Control_c, 0, 67, 113
1, 60567, Control_c, 0, 67, 109
1, 60577, Note_off_c, 0, 57, 63
1, 60582, Control_c, 0, 67, 106
1, 60587, Note_on_c, 0, 59, 71
1, 60597, Control_c, 0, 67, 103
1, 60612, Control_c, 0, 67, 100
1, 60627, Control_c, 0, 67, 97
1, 60642, Control_c, 0, 67, 94
1, 60657, Control_c, 0, 67, 92
1, 60672, Control_c, 0, 67, 90
1, 60687, Control_c, 0, 67, 89
1, 60702, Control_c, 0, 67, 88
1, 60716, Control_c, 0, 67, 87
1, 60731, Control_c, 0, 67, 87
1, 60746, Control_c, 0, 67, 86
1, 60761, Control_c, 0, 67, 85
1, 60779, Note_on_c, 0, 48, 71
1, 60793, Note_off_c, 0, 59, 55
1, 60909, Control_c, 0, 67, 85
1, 60938, Control_c, 0, 67, 84
1, 60986, Note_on_c, 0, 52, 74
1, 61015, Note_off_c, 0, 48, 52
1, 61027, Control_c, 0, 67, 84
1, 61057, Control_c, 0, 67, 83
1, 61070, Control_c, 0, 67, 82
1, 61085, Control_c, 0, 67, 82
1, 61100, Control_c, 0, 67, 81
1, 61114, Control_c, 0, 67, 80
1, 61129, Control_c, 0, 67, 79
1, 61159, Control_c, 0, 67, 78
1, 61179, Note_off_c, 0, 52, 63
1, 61185, Note_on_c, 0, 53, 78
1, 61403, Control_c, 0, 67, 78
1, 61414, Note_on_c, 0, 54, 76
1, 61445, Note_off_c, 0, 53, 65
1, 61463, Control_c, 0, 67, 77
1, 61537, Control_c, 0, 67, 77
1, 61582, Control_c, 0, 67, 76
1, 61597, Control_c, 0, 67, 75
1, 61612, Control_c, 0, 67, 73
1, 61626, Control_c, 0, 67, 73
1, 61641, Control_c, 0, 67, 72
1, 61656, Control_c, 0, 67, 72
1, 61671, Control_c, 0, 67, 71
1, 61686, Control_c, 0, 67, 70
1, 61700, Control_c, 0, 67, 70
1, 61715, Control_c, 0, 67, 69
1, 61730, Control_c, 0, 67, 69
1, 61745, Control_c, 0, 67, 68
1, 61760, Control_c, 0, 67, 68
1, 61775, Control_c, 0, 67, 66
1, 61790, Control_c, 0, 67, 66
1, 61805, Control_c, 0, 67, 65
1, 61820, Control_c, 0, 67, 65
1, 61829, Note_on_c, 0, 56, 77
1, 61849, Control_c, 0, 67, 64
1, 61858, Note_off_c, 0, 54, 63
1, 61879, Control_c, 0, 67, 64
1, 61894, Control_c, 0, 67, 63
1, 61909, Control_c, 0, 67, 62
1, 61924, Control_c, 0, 67, 60
1, 61938, Control_c, 0, 67, 57
1, 61953, Control_c, 0, 67, 55
1, 61968, Control_c, 0, 67, 52
1, 61983, Control_c, 0, 67, 50
1, 61998, Control_c, 0, 67, 49
1, 62012, Control_c, 0, 67, 47
1, 62027, Control_c, 0, 67, 45
1, 62049, Control_c, 0, 67, 43
1, 62064, Control_c, 0, 67, 42
1, 62079, Control_c, 0, 67, 41
1, 62094, Control_c, 0, 67, 40
1, 62109, Control_c, 0, 67, 39
1, 62124, Control_c, 0, 67, 38
1, 62139, Control_c, 0, 67, 37
1, 62153, Control_c, 0, 67, 34
1, 62168, Control_c, 0, 67, 32
1, 62183, Control_c, 0, 67, 30
1, 62198, Control_c, 0, 67, 27
1, 62213, Control_c, 0, 67, 24
1, 62228, Control_c, 0, 67, 21
1, 62243, Control_c, 0, 67, 19
1, 62252, Note_on_c, 0, 58, 77
1, 62258, Control_c, 0, 67, 16
1, 62260, Note_off_c, 0, 56, 64
1, 62273, Control_c, 0, 67, 14
1, 62287, Control_c, 0, 67, 11
1, 62302, Control_c, 0, 67, 8
1, 62317, Control_c, 0, 67, 0
1, 62639, Note_on_c, 0, 72, 74
1, 62642, Note_on_c, 0, 62, 74
1, 62644, Note_on_c, 0, 65, 70
1, 62657, Note_on_c, 0, 59, 70
1, 62660, Note_off_c, 0, 72, 71
1, 62663, Note_off_c, 0, 65, 67
1, 62668, Note_off_c, 0, 62, 67
1, 62696, Note_off_c, 0, 59, 58
1, 62864, Note_off_c, 0, 58, 61
1, 62866, Note_on_c, 0, 55, 80
1, 62951, Note_on_c, 0, 57, 79
1, 62970, Note_off_c, 0, 55, 62
1, 63030, Note_on_c, 0, 59, 78
1, 63051, Note_off_c, 0, 57, 59
1, 63104, Note_off_c, 0, 59, 63
1, 63108, Note_on_c, 0, 60, 86
1, 63167, Note_off_c, 0, 60, 65
1, 63196, Note_on_c, 0, 62, 88
1, 63233, Note_off_c, 0, 62, 61
1, 63392, Note_on_c, 0, 55, 88
1, 63415, Note_off_c, 0, 55, 70
1, 63642, Note_on_c, 0, 64, 90
1, 63743, Note_on_c, 0, 63, 86
1, 63747, Note_off_c, 0, 64, 65
1, 64317, Note_on_c, 0, 65, 87
1, 64320, Note_off_c, 0, 63, 62
1, 64444, Control_c, 0, 64, 40
1, 64458, Control_c, 0, 64, 63
1, 64473, Control_c, 0, 64, 71
1, 64488, Control_c, 0, 64, 76
1, 64503, Control_c, 0, 64, 83
1, 64518, Control_c, 0, 64, 88
1, 64533, Control_c, 0, 64, 93
1, 64547, Control_c, 0, 64, 97
1, 64562, Control_c, 0, 64, 101
1, 64577, Note_off_c, 0, 65, 50
1, 64577, Control_c, 0, 64, 104
1, 64592, Control_c, 0, 64, 107
1, 64607, Control_c, 0, 64, 107
1, 64714, Note_on_c, 0, 65, 83
1, 64786, Control_c, 0, 64, 106
1, 64801, Control_c, 0, 64, 106
1, 64816, Control_c, 0, 64, 105
1, 64831, Control_c, 0, 64, 105
1, 64845, Control_c, 0, 64, 103
1, 64860, Control_c, 0, 64, 100
1, 64875, Control_c, 0, 64, 95
1, 64890, Control_c, 0, 64, 89
1, 64905, Control_c, 0, 64, 81
1, 64920, Control_c, 0, 64, 71
1, 64935, Control_c, 0, 64, 55
1, 64950, Control_c, 0, 64, 0
1, 64965, Note_off_c, 0, 65, 65
1, 64966, Note_on_c, 0, 67, 88
1, 65149, Control_c, 0, 64, 59
1, 65164, Control_c, 0, 64, 69
1, 65179, Control_c, 0, 64, 75
1, 65194, Control_c, 0, 64, 82
1, 65208, Control_c, 0, 64, 89
1, 65223, Control_c, 0, 64, 95
1, 65238, Control_c, 0, 64, 99
1, 65253, Control_c, 0, 64, 105
1, 65258, Note_off_c, 0, 67, 48
1, 65268, Control_c, 0, 64, 112
1, 65282, Control_c, 0, 64, 127
1, 65651, Note_on_c, 0, 65, 81
1, 65668, Control_c, 0, 64, 109
1, 65683, Control_c, 0, 64, 96
1, 65698, Control_c, 0, 64, 83
1, 65712, Control_c, 0, 64, 73
1, 65727, Control_c, 0, 64, 64
1, 65742, Control_c, 0, 64, 50
1, 65757, Control_c, 0, 64, 43
1, 65793, Control_c, 0, 64, 40
1, 65808, Control_c, 0, 64, 35
1, 65823, Control_c, 0, 64, 30
1, 65868, Control_c, 0, 64, 29
1, 65898, Control_c, 0, 64, 28
1, 65914, Note_on_c, 0, 64, 75
1, 65931, Note_off_c, 0, 65, 62
1, 65942, Control_c, 0, 64, 27
1, 66108, Note_on_c, 0, 62, 76
1, 66126, Note_off_c, 0, 64, 61
1, 66149, Control_c, 0, 64, 29
1, 66164, Control_c, 0, 64, 32
1, 66178, Control_c, 0, 64, 34
1, 66193, Control_c, 0, 64, 35
1, 66209, Control_c, 0, 64, 36
1, 66224, Control_c, 0, 64, 40
1, 66239, Control_c, 0, 64, 47
1, 66253, Control_c, 0, 64, 51
1, 66268, Control_c, 0, 64, 52
1, 66283, Control_c, 0, 64, 53
1, 66290, Note_off_c, 0, 62, 59
1, 66310, Note_on_c, 0, 55, 72
1, 66313, Control_c, 0, 64, 52
1, 66328, Control_c, 0, 64, 50
1, 66342, Control_c, 0, 64, 48
1, 66357, Control_c, 0, 64, 45
1, 66372, Control_c, 0, 64, 42
1, 66387, Control_c, 0, 64, 38
1, 66398, Note_on_c, 0, 57, 72
1, 66402, Control_c, 0, 64, 28
1, 66412, Note_off_c, 0, 55, 60
1, 66416, Control_c, 0, 64, 14
1, 66431, Control_c, 0, 64, 0
1, 66431, Control_c, 0, 67, 8
1, 66446, Control_c, 0, 67, 12
1, 66461, Control_c, 0, 67, 19
1, 66476, Control_c, 0, 67, 25
1, 66488, Note_on_c, 0, 58, 76
1, 66488, Note_off_c, 0, 57, 61
1, 66491, Control_c, 0, 67, 31
1, 66506, Control_c, 0, 67, 38
1, 66521, Control_c, 0, 67, 45
1, 66542, Control_c, 0, 67, 53
1, 66557, Control_c, 0, 67, 60
1, 66572, Control_c, 0, 67, 66
1, 66587, Control_c, 0, 67, 72
1, 66602, Control_c, 0, 67, 78
1, 66616, Control_c, 0, 67, 84
1, 66631, Control_c, 0, 67, 89
1, 66646, Control_c, 0, 67, 96
1, 66661, Control_c, 0, 67, 102
1, 66676, Control_c, 0, 67, 107
1, 66690, Control_c, 0, 67, 112
1, 66705, Control_c, 0, 67, 118
1, 66714, Note_off_c, 0, 58, 63
1, 66719, Note_on_c, 0, 57, 69
1, 66720, Control_c, 0, 67, 123
1, 66735, Control_c, 0, 67, 127
1, 66917, Note_on_c, 0, 55, 62
1, 66934, Note_off_c, 0, 57, 59
1, 67128, Note_on_c, 0, 53, 57
1, 67135, Note_off_c, 0, 55, 57
1, 67329, Note_off_c, 0, 53, 60
1, 67336, Note_on_c, 0, 52, 55
1, 67531, Note_off_c, 0, 52, 60
1, 67558, Note_on_c, 0, 73, 76
1, 67561, Note_on_c, 0, 50, 58
1, 67625, Note_off_c, 0, 73, 51
1, 67649, Note_on_c, 0, 75, 70
1, 67661, Note_off_c, 0, 50, 64
1, 67673, Note_on_c, 0, 52, 56
1, 67903, Note_on_c, 0, 72, 64
1, 67904, Note_on_c, 0, 65, 64
1, 67907, Note_on_c, 0, 59, 63
1, 67909, Note_on_c, 0, 62, 69
1, 67932, Note_off_c, 0, 72, 62
1, 67933, Note_off_c, 0, 59, 65
1, 67933, Note_off_c, 0, 62, 66
1, 67938, Note_off_c, 0, 52, 62
1, 67939, Note_off_c, 0, 65, 62
1, 68320, Note_on_c, 0, 77, 60
1, 68339, Note_off_c, 0, 75, 62
1, 68542, Note_on_c, 0, 78, 71
1, 68572, Note_off_c, 0, 77, 55
1, 68749, Note_on_c, 0, 79, 71
1, 68780, Note_off_c, 0, 78, 54
1, 68956, Note_on_c, 0, 76, 71
1, 68989, Note_off_c, 0, 79, 57
1, 69167, Note_on_c, 0, 73, 78
1, 69173, Note_off_c, 0, 76, 60
1, 69238, Note_off_c, 0, 73, 55
1, 69262, Note_on_c, 0, 75, 74
1, 69481, Note_on_c, 0, 72, 81
1, 69482, Note_on_c, 0, 65, 73
1, 69486, Note_on_c, 0, 59, 65
1, 69500, Note_off_c, 0, 72, 70
1, 69502, Note_on_c, 0, 62, 40
1, 69506, Note_off_c, 0, 65, 70
1, 69513, Note_off_c, 0, 59, 66
1, 69516, Control_c, 0, 67, 125
1, 69538, Control_c, 0, 67, 124
1, 69539, Note_off_c, 0, 62, 52
1, 69553, Control_c, 0, 67, 123
1, 69567, Control_c, 0, 67, 121
1, 69582, Control_c, 0, 67, 119
1, 69597, Control_c, 0, 67, 119
1, 69642, Control_c, 0, 67, 120
1, 69656, Control_c, 0, 67, 122
1, 69671, Control_c, 0, 67, 124
1, 69686, Control_c, 0, 67, 127
1, 69701, Control_c, 0, 67, 127
1, 69857, Note_on_c, 0, 76, 68
1, 69890, Note_off_c, 0, 75, 59
1, 70074, Note_on_c, 0, 69, 68
1, 70074, Note_off_c, 0, 76, 62
1, 70286, Note_on_c, 0, 78, 70
1, 70289, Note_off_c, 0, 69, 58
1, 70339, Note_off_c, 0, 78, 63
1, 70609, Note_on_c, 0, 78, 62
1, 70633, Note_off_c, 0, 78, 66
1, 70697, Note_on_c, 0, 78, 76
1, 71159, Note_on_c, 0, 76, 59
1, 71192, Note_off_c, 0, 78, 44
1, 71363, Note_on_c, 0, 72, 65
1, 71366, Note_on_c, 0, 59, 56
1, 71368, Note_on_c, 0, 65, 59
1, 71386, Note_on_c, 0, 62, 27
1, 71386, Note_off_c, 0, 72, 69
1, 71397, Note_off_c, 0, 65, 66
1, 71399, Note_off_c, 0, 59, 64
1, 71424, Note_off_c, 0, 62, 44
1, 71510, Control_c, 0, 67, 123
1, 71519, Note_off_c, 0, 76, 45
1, 71524, Control_c, 0, 67, 117
1, 71539, Control_c, 0, 67, 112
1, 71555, Control_c, 0, 67, 107
1, 71569, Control_c, 0, 67, 102
1, 71584, Control_c, 0, 67, 97
1, 71599, Control_c, 0, 67, 92
1, 71613, Note_on_c, 0, 76, 58
1, 71614, Control_c, 0, 67, 88
1, 71629, Control_c, 0, 64, 40
1, 71629, Control_c, 0, 67, 85
1, 71643, Control_c, 0, 64, 61
1, 71643, Control_c, 0, 67, 82
1, 71658, Control_c, 0, 64, 66
1, 71658, Control_c, 0, 67, 80
1, 71673, Control_c, 0, 64, 69
1, 71673, Control_c, 0, 67, 78
1, 71688, Control_c, 0, 64, 73
1, 71688, Control_c, 0, 67, 77
1, 71703, Control_c, 0, 64, 76
1, 71717, Control_c, 0, 64, 79
1, 71717, Control_c, 0, 67, 77
1, 71732, Control_c, 0, 64, 81
1, 71732, Control_c, 0, 67, 76
1, 71747, Control_c, 0, 64, 83
1, 71747, Control_c, 0, 67, 76
1, 71762, Control_c, 0, 64, 84
1, 71762, Control_c, 0, 67, 74
1, 71784, Control_c, 0, 64, 84
1, 71784, Control_c, 0, 67, 72
1, 71800, Control_c, 0, 67, 71
1, 71811, Note_off_c, 0, 76, 35
1, 71815, Control_c, 0, 67, 70
1, 71830, Control_c, 0, 67, 69
1, 71844, Control_c, 0, 67, 67
1, 71859, Control_c, 0, 67, 64
1, 71874, Control_c, 0, 67, 62
1, 71889, Control_c, 0, 67, 61
1, 71904, Control_c, 0, 67, 60
1, 71918, Note_on_c, 0, 76, 65
1, 71919, Control_c, 0, 64, 83
1, 71934, Control_c, 0, 64, 82
1, 71943, Note_off_c, 0, 76, 61
1, 71949, Control_c, 0, 64, 79
1, 71949, Control_c, 0, 67, 60
1, 71963, Control_c, 0, 64, 76
1, 71978, Control_c, 0, 64, 73
1, 71993, Control_c, 0, 64, 69
1, 72007, Control_c, 0, 64, 67
1, 72012, Note_on_c, 0, 76, 60
1, 72022, Control_c, 0, 64, 65
1, 72037, Control_c, 0, 64, 64
1, 72067, Control_c, 0, 67, 59
1, 72096, Control_c, 0, 64, 64
1, 72096, Control_c, 0, 67, 59
1, 72111, Control_c, 0, 64, 63
1, 72111, Control_c, 0, 67, 58
1, 72155, Control_c, 0, 64, 62
1, 72155, Control_c, 0, 67, 56
1, 72170, Control_c, 0, 64, 60
1, 72170, Control_c, 0, 67, 52
1, 72185, Control_c, 0, 64, 59
1, 72185, Control_c, 0, 67, 46
1, 72199, Control_c, 0, 64, 58
1, 72199, Control_c, 0, 67, 43
1, 72214, Control_c, 0, 64, 57
1, 72214, Control_c, 0, 67, 41
1, 72225, Note_on_c, 0, 74, 64
1, 72229, Control_c, 0, 64, 54
1, 72229, Control_c, 0, 67, 39
1, 72244, Control_c, 0, 64, 47
1, 72244, Control_c, 0, 67, 37
1, 72253, Note_off_c, 0, 76, 43
1, 72259, Control_c, 0, 64, 42
1, 72259, Control_c, 0, 67, 36
1, 72274, Control_c, 0, 64, 40
1, 72274, Control_c, 0, 67, 34
1, 72289, Control_c, 0, 64, 34
1, 72289, Control_c, 0, 67, 33
1, 72304, Control_c, 0, 64, 14
1, 72304, Control_c, 0, 67, 33
1, 72318, Control_c, 0, 64, 0
1, 72318, Control_c, 0, 67, 32
1, 72333, Control_c, 0, 67, 32
1, 72348, Control_c, 0, 67, 30
1, 72363, Control_c, 0, 67, 28
1, 72378, Control_c, 0, 67, 25
1, 72393, Control_c, 0, 67, 23
1, 72407, Control_c, 0, 67, 21
1, 72422, Control_c, 0, 67, 20
1, 72429, Note_on_c, 0, 80, 70
1, 72437, Control_c, 0, 67, 18
1, 72452, Control_c, 0, 67, 16
1, 72467, Control_c, 0, 67, 13
1, 72481, Control_c, 0, 67, 11
1, 72494, Note_off_c, 0, 74, 60
1, 72496, Control_c, 0, 67, 10
1, 72511, Control_c, 0, 67, 8
1, 72533, Control_c, 0, 67, 0
1, 72646, Note_on_c, 0, 79, 74
1, 72697, Control_c, 0, 64, 24
1, 72712, Control_c, 0, 64, 52
1, 72727, Control_c, 0, 64, 62
1, 72727, Note_off_c, 0, 80, 48
1, 72742, Control_c, 0, 64, 66
1, 72757, Control_c, 0, 64, 68
1, 72771, Control_c, 0, 64, 69
1, 72786, Control_c, 0, 64, 71
1, 72801, Control_c, 0, 64, 72
1, 72816, Control_c, 0, 64, 75
1, 72830, Note_on_c, 0, 78, 78
1, 72830, Control_c, 0, 64, 79
1, 72845, Control_c, 0, 64, 83
1, 72857, Note_off_c, 0, 79, 57
1, 72860, Control_c, 0, 64, 87
1, 72875, Control_c, 0, 64, 90
1, 72890, Control_c, 0, 64, 93
1, 72904, Control_c, 0, 64, 95
1, 72919, Control_c, 0, 64, 99
1, 72927, Note_on_c, 0, 59, 59
1, 72933, Note_on_c, 0, 62, 42
1, 72934, Control_c, 0, 64, 106
1, 72949, Control_c, 0, 64, 116
1, 72955, Note_on_c, 0, 65, 60
1, 72964, Control_c, 0, 64, 117
1, 72978, Control_c, 0, 64, 112
1, 72993, Control_c, 0, 64, 98
1, 73006, Note_off_c, 0, 59, 59
1, 73008, Control_c, 0, 64, 84
1, 73010, Note_off_c, 0, 62, 61
1, 73011, Note_on_c, 0, 74, 76
1, 73013, Note_on_c, 0, 72, 82
1, 73022, Note_off_c, 0, 65, 64
1, 73022, Control_c, 0, 64, 69
1, 73034, Note_off_c, 0, 78, 60
1, 73037, Control_c, 0, 64, 56
1, 73046, Note_off_c, 0, 72, 64
1, 73052, Control_c, 0, 64, 11
1, 73067, Control_c, 0, 64, 0
1, 73273, Note_on_c, 0, 82, 73
1, 73314, Note_off_c, 0, 74, 61
1, 73494, Note_on_c, 0, 81, 72
1, 73523, Note_off_c, 0, 82, 55
1, 73698, Note_on_c, 0, 79, 79
1, 73882, Note_on_c, 0, 77, 75
1, 73904, Control_c, 0, 64, 23
1, 73918, Control_c, 0, 64, 31
1, 73933, Control_c, 0, 64, 38
1, 73948, Control_c, 0, 64, 43
1, 73951, Note_off_c, 0, 79, 47
1, 73957, Note_off_c, 0, 81, 35
1, 73963, Control_c, 0, 64, 46
1, 73977, Control_c, 0, 64, 47
1, 73992, Control_c, 0, 64, 49
1, 74007, Control_c, 0, 64, 50
1, 74029, Control_c, 0, 64, 53
1, 74044, Control_c, 0, 64, 55
1, 74059, Control_c, 0, 64, 56
1, 74074, Control_c, 0, 64, 59
1, 74083, Note_off_c, 0, 77, 60
1, 74089, Control_c, 0, 64, 60
1, 74092, Note_on_c, 0, 76, 80
1, 74104, Control_c, 0, 64, 62
1, 74119, Control_c, 0, 64, 63
1, 74133, Control_c, 0, 64, 63
1, 74148, Control_c, 0, 64, 64
1, 74163, Control_c, 0, 64, 64
1, 74177, Control_c, 0, 64, 65
1, 74208, Control_c, 0, 64, 65
1, 74253, Control_c, 0, 64, 65
1, 74273, Note_on_c, 0, 74, 74
1, 74317, Note_off_c, 0, 76, 56
1, 74386, Control_c, 0, 64, 64
1, 74400, Control_c, 0, 64, 64
1, 74415, Control_c, 0, 64, 62
1, 74430, Control_c, 0, 64, 57
1, 74445, Control_c, 0, 64, 28
1, 74460, Control_c, 0, 64, 0
1, 74473, Note_off_c, 0, 74, 61
1, 74486, Note_on_c, 0, 73, 82
1, 74585, Note_on_c, 0, 75, 76
1, 74597, Note_off_c, 0, 73, 59
1, 74779, Note_on_c, 0, 72, 84
1, 74780, Note_on_c, 0, 65, 78
1, 74783, Note_on_c, 0, 59, 69
1, 74789, Note_on_c, 0, 62, 64
1, 74796, Note_off_c, 0, 72, 72
1, 74801, Note_off_c, 0, 65, 70
1, 74807, Note_off_c, 0, 59, 67
1, 74811, Note_off_c, 0, 62, 64
1, 74982, Note_on_c, 0, 76, 75
1, 75009, Note_off_c, 0, 75, 61
1, 75067, Note_on_c, 0, 77, 80
1, 75073, Note_off_c, 0, 76, 62
1, 75091, Control_c, 0, 64, 23
1, 75106, Control_c, 0, 64, 49
1, 75120, Control_c, 0, 64, 57
1, 75128, Note_off_c, 0, 77, 63
1, 75135, Control_c, 0, 64, 60
1, 75150, Control_c, 0, 64, 60
1, 75157, Note_on_c, 0, 74, 83
1, 75165, Control_c, 0, 64, 59
1, 75180, Control_c, 0, 64, 58
1, 75195, Control_c, 0, 64, 57
1, 75210, Control_c, 0, 64, 56
1, 75224, Control_c, 0, 64, 54
1, 75239, Control_c, 0, 64, 52
1, 75254, Control_c, 0, 64, 51
1, 75258, Note_on_c, 0, 82, 88
1, 75269, Control_c, 0, 64, 49
1, 75281, Note_off_c, 0, 74, 54
1, 75284, Control_c, 0, 64, 48
1, 75298, Control_c, 0, 64, 47
1, 75328, Control_c, 0, 64, 46
1, 75342, Control_c, 0, 64, 45
1, 75402, Control_c, 0, 64, 44
1, 75416, Control_c, 0, 64, 42
1, 75431, Control_c, 0, 64, 39
1, 75446, Control_c, 0, 64, 38
1, 75455, Note_on_c, 0, 83, 85
1, 75461, Control_c, 0, 64, 35
1, 75476, Control_c, 0, 64, 24
1, 75490, Control_c, 0, 64, 0
1, 75497, Note_off_c, 0, 82, 62
1, 75674, Note_on_c, 0, 84, 85
1, 75690, Note_off_c, 0, 83, 59
1, 75862, Note_on_c, 0, 76, 82
1, 75928, Note_off_c, 0, 84, 51
1, 76075, Note_on_c, 0, 78, 84
1, 76109, Note_off_c, 0, 76, 61
1, 76503, Note_on_c, 0, 80, 69
1, 76539, Note_off_c, 0, 78, 60
1, 76910, Note_on_c, 0, 81, 63
1, 76944, Note_off_c, 0, 80, 58
1, 77299, Note_on_c, 0, 59, 76
1, 77302, Note_on_c, 0, 65, 82
1, 77302, Note_on_c, 0, 72, 87
1, 77305, Note_on_c, 0, 62, 76
1, 77318, Note_off_c, 0, 72, 74
1, 77323, Note_off_c, 0, 59, 68
1, 77323, Note_off_c, 0, 65, 71
1, 77328, Note_off_c, 0, 62, 67
1, 77335, Control_c, 0, 64, 34
1, 77350, Control_c, 0, 64, 40
1, 77365, Control_c, 0, 64, 39
1, 77380, Control_c, 0, 64, 32
1, 77396, Control_c, 0, 64, 0
1, 77438, Note_off_c, 0, 81, 58
1, 77529, Control_c, 0, 64, 52
1, 77532, Note_on_c, 0, 81, 97
1, 77545, Control_c, 0, 64, 68
1, 77560, Control_c, 0, 64, 78
1, 77574, Control_c, 0, 64, 89
1, 77589, Control_c, 0, 64, 101
1, 77604, Control_c, 0, 64, 104
1, 77613, Note_on_c, 0, 80, 90
1, 77633, Note_off_c, 0, 81, 63
1, 77663, Control_c, 0, 64, 103
1, 77678, Control_c, 0, 64, 98
1, 77693, Control_c, 0, 64, 91
1, 77699, Note_on_c, 0, 79, 84
1, 77706, Note_off_c, 0, 80, 66
1, 77708, Control_c, 0, 64, 82
1, 77723, Control_c, 0, 64, 72
1, 77738, Control_c, 0, 64, 63
1, 77753, Control_c, 0, 64, 26
1, 77772, Note_off_c, 0, 79, 62
1, 77774, Control_c, 0, 64, 0
1, 77779, Note_on_c, 0, 77, 88
1, 77830, Note_off_c, 0, 77, 66
1, 77862, Note_on_c, 0, 76, 94
1, 77891, Note_off_c, 0, 76, 65
1, 78069, Note_on_c, 0, 74, 94
1, 78089, Note_off_c, 0, 74, 68
1, 78295, Note_on_c, 0, 75, 90
1, 78357, Note_off_c, 0, 75, 59
1, 78391, Note_on_c, 0, 77, 91
1, 78523, Control_c, 0, 64, 37
1, 78538, Control_c, 0, 64, 54
1, 78553, Control_c, 0, 64, 60
1, 78567, Control_c, 0, 64, 62
1, 78582, Control_c, 0, 64, 63
1, 78641, Control_c, 0, 64, 63
1, 78730, Control_c, 0, 64, 63
1, 78775, Control_c, 0, 64, 62
1, 78805, Control_c, 0, 64, 62
1, 78849, Control_c, 0, 64, 61
1, 78894, Control_c, 0, 64, 61
1, 78909, Control_c, 0, 64, 60
1, 78923, Control_c, 0, 64, 59
1, 78938, Control_c, 0, 64, 58
1, 78953, Control_c, 0, 64, 57
1, 78967, Note_on_c, 0, 78, 87
1, 78967, Control_c, 0, 64, 55
1, 78983, Control_c, 0, 64, 51
1, 78998, Control_c, 0, 64, 45
1, 79002, Note_off_c, 0, 77, 62
1, 79013, Control_c, 0, 64, 39
1, 79028, Control_c, 0, 64, 36
1, 79043, Control_c, 0, 64, 34
1, 79057, Control_c, 0, 64, 26
1, 79072, Control_c, 0, 64, 0
1, 79359, Note_on_c, 0, 76, 90
1, 79397, Note_off_c, 0, 78, 61
1, 79586, Note_on_c, 0, 82, 95
1, 79613, Note_off_c, 0, 76, 61
1, 79776, Control_c, 0, 64, 34
1, 79791, Control_c, 0, 64, 48
1, 79806, Control_c, 0, 64, 55
1, 79820, Control_c, 0, 64, 59
1, 79835, Control_c, 0, 64, 60
1, 79850, Control_c, 0, 64, 61
1, 79865, Control_c, 0, 64, 62
1, 79879, Control_c, 0, 64, 63
1, 79894, Control_c, 0, 64, 64
1, 79909, Control_c, 0, 64, 64
1, 79924, Control_c, 0, 64, 65
1, 79939, Control_c, 0, 64, 64
1, 79953, Control_c, 0, 64, 57
1, 79966, Note_on_c, 0, 65, 78
1, 79967, Note_on_c, 0, 72, 85
1, 79968, Control_c, 0, 64, 0
1, 79975, Note_on_c, 0, 62, 67
1, 79976, Note_on_c, 0, 59, 65
1, 79987, Note_off_c, 0, 72, 68
1, 79991, Note_off_c, 0, 65, 69
1, 80001, Note_off_c, 0, 62, 65
1, 80003, Note_off_c, 0, 59, 66
1, 80262, Note_on_c, 0, 83, 69
1, 80301, Note_off_c, 0, 82, 58
1, 80331, Control_c, 0, 64, 47
1, 80346, Control_c, 0, 64, 60
1, 80361, Control_c, 0, 64, 63
1, 80376, Control_c, 0, 64, 64
1, 80391, Control_c, 0, 64, 64
1, 80420, Control_c, 0, 64, 64
1, 80450, Control_c, 0, 64, 63
1, 80495, Note_on_c, 0, 85, 76
1, 80524, Control_c, 0, 64, 64
1, 80530, Note_off_c, 0, 83, 61
1, 80554, Control_c, 0, 64, 64
1, 80584, Control_c, 0, 64, 65
1, 80599, Control_c, 0, 64, 66
1, 80614, Control_c, 0, 64, 66
1, 80629, Control_c, 0, 64, 68
1, 80644, Control_c, 0, 64, 69
1, 80659, Control_c, 0, 64, 70
1, 80674, Control_c, 0, 64, 71
1, 80689, Control_c, 0, 64, 73
1, 80698, Note_on_c, 0, 87, 82
1, 80703, Control_c, 0, 64, 75
1, 80718, Control_c, 0, 64, 77
1, 80733, Control_c, 0, 64, 79
1, 80748, Control_c, 0, 64, 81
1, 80769, Control_c, 0, 64, 83
1, 80784, Control_c, 0, 64, 84
1, 80799, Control_c, 0, 64, 85
1, 80873, Note_off_c, 0, 85, 26
1, 80892, Note_on_c, 0, 88, 79
1, 80915, Note_off_c, 0, 87, 63
1, 80933, Control_c, 0, 64, 83
1, 80948, Control_c, 0, 64, 80
1, 80962, Control_c, 0, 64, 75
1, 80970, Note_on_c, 0, 84, 77
1, 80977, Control_c, 0, 64, 70
1, 80983, Note_off_c, 0, 88, 61
1, 80992, Control_c, 0, 64, 65
1, 81007, Control_c, 0, 64, 62
1, 81022, Control_c, 0, 64, 61
1, 81035, Note_off_c, 0, 84, 64
1, 81036, Control_c, 0, 64, 61
1, 81064, Note_on_c, 0, 77, 80
1, 81066, Control_c, 0, 64, 60
1, 81081, Control_c, 0, 64, 60
1, 81096, Control_c, 0, 64, 59
1, 81169, Control_c, 0, 64, 60
1, 81184, Control_c, 0, 64, 60
1, 81267, Note_on_c, 0, 78, 83
1, 81304, Note_off_c, 0, 77, 58
1, 81471, Note_on_c, 0, 80, 84
1, 81497, Control_c, 0, 64, 60
1, 81522, Note_off_c, 0, 78, 61
1, 81637, Control_c, 0, 64, 60
1, 81652, Control_c, 0, 64, 61
1, 81678, Note_on_c, 0, 81, 86
1, 81681, Control_c, 0, 64, 61
1, 81696, Control_c, 0, 64, 62
1, 81711, Control_c, 0, 64, 63
1, 81717, Note_off_c, 0, 80, 60
1, 81726, Control_c, 0, 64, 65
1, 81741, Control_c, 0, 64, 66
1, 81756, Control_c, 0, 64, 66
1, 81771, Control_c, 0, 64, 67
1, 81785, Control_c, 0, 64, 68
1, 81800, Control_c, 0, 64, 69
1, 81815, Control_c, 0, 64, 70
1, 81830, Control_c, 0, 64, 71
1, 81845, Control_c, 0, 64, 72
1, 81858, Note_off_c, 0, 81, 59
1, 81859, Control_c, 0, 64, 73
1, 81866, Note_on_c, 0, 72, 80
1, 81904, Control_c, 0, 64, 73
1, 81919, Control_c, 0, 64, 74
1, 81933, Control_c, 0, 64, 76
1, 81948, Control_c, 0, 64, 78
1, 81963, Control_c, 0, 64, 84
1, 81977, Control_c, 0, 64, 90
1, 81992, Control_c, 0, 64, 94
1, 82022, Control_c, 0, 64, 88
1, 82037, Control_c, 0, 64, 79
1, 82051, Control_c, 0, 64, 65
1, 82065, Note_on_c, 0, 73, 80
1, 82066, Control_c, 0, 64, 0
1, 82069, Note_off_c, 0, 72, 57
1, 82072, Note_on_c, 0, 50, 71
1, 82146, Note_off_c, 0, 73, 54
1, 82161, Note_on_c, 0, 75, 73
1, 82175, Note_on_c, 0, 52, 70
1, 82177, Note_off_c, 0, 50, 63
1, 82386, Note_on_c, 0, 72, 70
1, 82388, Note_on_c, 0, 62, 73
1, 82388, Note_on_c, 0, 65, 71
1, 82393, Note_on_c, 0, 59, 66
1, 82413, Note_off_c, 0, 62, 67
1, 82414, Note_off_c, 0, 65, 68
1, 82418, Note_off_c, 0, 72, 62
1, 82418, Note_off_c, 0, 59, 66
1, 82771, Control_c, 0, 67, 8
1, 82786, Control_c, 0, 67, 12
1, 82790, Note_on_c, 0, 77, 61
1, 82800, Control_c, 0, 67, 20
1, 82801, Note_on_c, 0, 59, 49
1, 82815, Control_c, 0, 67, 28
1, 82830, Control_c, 0, 67, 35
1, 82838, Note_off_c, 0, 75, 59
1, 82845, Control_c, 0, 67, 42
1, 82860, Control_c, 0, 64, 26
1, 82860, Control_c, 0, 67, 49
1, 82874, Control_c, 0, 64, 40
1, 82874, Control_c, 0, 67, 56
1, 82889, Control_c, 0, 64, 49
1, 82889, Control_c, 0, 67, 60
1, 82904, Control_c, 0, 64, 54
1, 82904, Control_c, 0, 67, 64
1, 82913, Note_off_c, 0, 52, 54
1, 82919, Control_c, 0, 64, 57
1, 82919, Control_c, 0, 67, 67
1, 82933, Control_c, 0, 64, 58
1, 82933, Control_c, 0, 67, 70
1, 82948, Control_c, 0, 64, 59
1, 82948, Control_c, 0, 67, 72
1, 82963, Control_c, 0, 67, 74
1, 82979, Control_c, 0, 64, 59
1, 82979, Control_c, 0, 67, 77
1, 82980, Note_off_c, 0, 59, 48
1, 82994, Control_c, 0, 67, 80
1, 83013, Note_on_c, 0, 57, 52
1, 83017, Control_c, 0, 64, 60
1, 83017, Control_c, 0, 67, 83
1, 83023, Note_on_c, 0, 78, 70
1, 83032, Control_c, 0, 64, 60
1, 83032, Control_c, 0, 67, 87
1, 83046, Control_c, 0, 64, 61
1, 83046, Control_c, 0, 67, 91
1, 83061, Control_c, 0, 64, 62
1, 83061, Control_c, 0, 67, 94
1, 83076, Control_c, 0, 64, 64
1, 83076, Control_c, 0, 67, 97
1, 83083, Note_off_c, 0, 77, 38
1, 83091, Control_c, 0, 64, 65
1, 83091, Control_c, 0, 67, 100
1, 83106, Control_c, 0, 64, 66
1, 83106, Control_c, 0, 67, 103
1, 83120, Control_c, 0, 64, 67
1, 83120, Control_c, 0, 67, 106
1, 83135, Control_c, 0, 67, 110
1, 83150, Control_c, 0, 64, 66
1, 83150, Control_c, 0, 67, 113
1, 83164, Control_c, 0, 64, 66
1, 83164, Control_c, 0, 67, 117
1, 83179, Control_c, 0, 64, 64
1, 83179, Control_c, 0, 67, 119
1, 83194, Control_c, 0, 64, 63
1, 83194, Control_c, 0, 67, 122
1, 83209, Control_c, 0, 64, 61
1, 83209, Control_c, 0, 67, 124
1, 83217, Note_on_c, 0, 79, 75
1, 83224, Control_c, 0, 64, 60
1, 83224, Control_c, 0, 67, 126
1, 83235, Note_off_c, 0, 78, 60
1, 83238, Control_c, 0, 64, 58
1, 83238, Control_c, 0, 67, 127
1, 83253, Control_c, 0, 64, 55
1, 83259, Note_on_c, 0, 47, 41
1, 83268, Control_c, 0, 64, 51
1, 83283, Control_c, 0, 64, 50
1, 83298, Control_c, 0, 64, 53
1, 83312, Control_c, 0, 64, 56
1, 83327, Control_c, 0, 64, 60
1, 83342, Control_c, 0, 64, 62
1, 83357, Control_c, 0, 64, 64
1, 83372, Control_c, 0, 64, 66
1, 83387, Control_c, 0, 64, 68
1, 83401, Control_c, 0, 64, 70
1, 83407, Note_on_c, 0, 76, 75
1, 83410, Note_off_c, 0, 57, 57
1, 83416, Control_c, 0, 64, 73
1, 83431, Control_c, 0, 64, 75
1, 83441, Note_on_c, 0, 48, 45
1, 83443, Note_off_c, 0, 47, 54
1, 83446, Control_c, 0, 64, 79
1, 83461, Control_c, 0, 64, 82
1, 83473, Note_off_c, 0, 48, 51
1, 83476, Control_c, 0, 64, 85
1, 83491, Control_c, 0, 64, 89
1, 83503, Poly_aftertouch_c, 0, 50, 127
1, 83505, Control_c, 0, 64, 95
1, 83509, Note_off_c, 0, 79, 34
1, 83520, Control_c, 0, 64, 104
1, 83535, Control_c, 0, 64, 117
1, 83539, Poly_aftertouch_c, 0, 50, 0
1, 83550, Control_c, 0, 64, 122
1, 83564, Control_c, 0, 64, 118
1, 83579, Control_c, 0, 64, 102
1, 83594, Control_c, 0, 64, 88
1, 83604, Note_off_c, 0, 76, 58
1, 83609, Control_c, 0, 64, 75
1, 83614, Note_on_c, 0, 73, 82
1, 83617, Note_on_c, 0, 50, 75
1, 83623, Control_c, 0, 64, 65
1, 83638, Control_c, 0, 64, 55
1, 83653, Control_c, 0, 64, 55
1, 83668, Control_c, 0, 64, 60
1, 83683, Control_c, 0, 64, 61
1, 83698, Control_c, 0, 64, 63
1, 83702, Note_on_c, 0, 75, 81
1, 83711, Note_off_c, 0, 73, 52
1, 83712, Control_c, 0, 64, 63
1, 83718, Note_off_c, 0, 50, 63
1, 83720, Note_on_c, 0, 52, 72
1, 83727, Control_c, 0, 64, 64
1, 83742, Control_c, 0, 64, 64
1, 83884, Control_c, 0, 64, 64
1, 83899, Control_c, 0, 64, 63
1, 83914, Control_c, 0, 64, 62
1, 83928, Control_c, 0, 64, 62
1, 83943, Control_c, 0, 64, 60
1, 83958, Control_c, 0, 64, 54
1, 83973, Control_c, 0, 64, 0
1, 84008, Note_on_c, 0, 72, 70
1, 84011, Note_on_c, 0, 65, 70
1, 84012, Note_on_c, 0, 62, 75
1, 84013, Note_on_c, 0, 59, 70
1, 84017, Control_c, 0, 67, 123
1, 84032, Control_c, 0, 67, 116
1, 84035, Note_off_c, 0, 72, 63
1, 84036, Note_off_c, 0, 65, 69
1, 84036, Note_off_c, 0, 62, 67
1, 84037, Note_off_c, 0, 59, 67
1, 84047, Control_c, 0, 67, 106
1, 84061, Control_c, 0, 67, 94
1, 84076, Control_c, 0, 67, 80
1, 84091, Control_c, 0, 67, 65
1, 84106, Control_c, 0, 67, 50
1, 84121, Control_c, 0, 67, 40
1, 84135, Control_c, 0, 67, 33
1, 84150, Control_c, 0, 67, 27
1, 84165, Control_c, 0, 67, 21
1, 84179, Control_c, 0, 67, 15
1, 84194, Control_c, 0, 67, 0
1, 84218, Note_on_c, 0, 76, 76
1, 84232, Note_on_c, 0, 55, 56
1, 84270, Note_off_c, 0, 75, 55
1, 84313, Note_off_c, 0, 52, 43
1, 84403, Note_off_c, 0, 55, 62
1, 84423, Note_on_c, 0, 57, 62
1, 84435, Note_on_c, 0, 69, 80
1, 84459, Note_off_c, 0, 76, 59
1, 84642, Note_on_c, 0, 78, 78
1, 84652, Note_on_c, 0, 66, 80
1, 84662, Note_off_c, 0, 57, 61
1, 84662, Control_c, 0, 64, 56
1, 84677, Control_c, 0, 64, 68
1, 84677, Note_off_c, 0, 66, 64
1, 84690, Note_off_c, 0, 69, 61
1, 84692, Control_c, 0, 64, 75
1, 84707, Control_c, 0, 64, 81
1, 84722, Control_c, 0, 64, 87
1, 84736, Control_c, 0, 64, 90
1, 84748, Note_off_c, 0, 78, 55
1, 84751, Control_c, 0, 64, 92
1, 84766, Control_c, 0, 64, 93
1, 84781, Control_c, 0, 64, 94
1, 84796, Control_c, 0, 64, 95
1, 84870, Control_c, 0, 64, 96
1, 84884, Control_c, 0, 64, 97
1, 84899, Control_c, 0, 64, 98
1, 84928, Control_c, 0, 64, 94
1, 84943, Note_on_c, 0, 78, 75
1, 84943, Control_c, 0, 64, 85
1, 84953, Note_on_c, 0, 66, 80
1, 84958, Control_c, 0, 64, 73
1, 84973, Control_c, 0, 64, 53
1, 84974, Note_off_c, 0, 66, 66
1, 84988, Control_c, 0, 64, 0
1, 84993, Note_off_c, 0, 78, 62
1, 85037, Note_on_c, 0, 78, 75
1, 85042, Note_on_c, 0, 66, 82
1, 85077, Control_c, 0, 64, 52
1, 85092, Control_c, 0, 64, 67
1, 85106, Control_c, 0, 64, 73
1, 85121, Control_c, 0, 64, 77
1, 85136, Control_c, 0, 64, 82
1, 85151, Control_c, 0, 64, 85
1, 85164, Note_off_c, 0, 66, 60
1, 85166, Control_c, 0, 64, 88
1, 85181, Control_c, 0, 64, 91
1, 85196, Control_c, 0, 64, 94
1, 85210, Control_c, 0, 64, 96
1, 85225, Control_c, 0, 64, 98
1, 85240, Control_c, 0, 64, 98
1, 85426, Control_c, 0, 64, 98
1, 85440, Control_c, 0, 64, 94
1, 85455, Control_c, 0, 64, 88
1, 85459, Note_on_c, 0, 76, 73
1, 85470, Control_c, 0, 64, 77
1, 85472, Note_off_c, 0, 78, 62
1, 85479, Note_on_c, 0, 64, 60
1, 85485, Control_c, 0, 64, 67
1, 85500, Control_c, 0, 64, 21
1, 85515, Control_c, 0, 64, 0
1, 85662, Note_on_c, 0, 65, 83
1, 85664, Note_on_c, 0, 72, 70
1, 85664, Note_on_c, 0, 59, 66
1, 85664, Note_on_c, 0, 62, 68
1, 85685, Note_off_c, 0, 65, 69
1, 85685, Note_off_c, 0, 72, 70
1, 85688, Note_off_c, 0, 62, 65
1, 85691, Note_off_c, 0, 59, 65
1, 85810, Note_off_c, 0, 64, 63
1, 85841, Note_off_c, 0, 76, 61
1, 85893, Note_on_c, 0, 76, 73
1, 85927, Note_on_c, 0, 64, 64
1, 85929, Control_c, 0, 64, 55
1, 85944, Control_c, 0, 64, 67
1, 85959, Control_c, 0, 64, 73
1, 85974, Control_c, 0, 64, 77
1, 85989, Control_c, 0, 64, 82
1, 86008, Note_off_c, 0, 64, 62
1, 86011, Control_c, 0, 64, 85
1, 86026, Control_c, 0, 64, 88
1, 86040, Control_c, 0, 64, 91
1, 86055, Control_c, 0, 64, 93
1, 86060, Note_off_c, 0, 76, 53
1, 86070, Control_c, 0, 64, 96
1, 86084, Control_c, 0, 64, 100
1, 86099, Control_c, 0, 64, 106
1, 86114, Control_c, 0, 64, 118
1, 86129, Control_c, 0, 64, 127
1, 86189, Control_c, 0, 64, 110
1, 86196, Note_on_c, 0, 64, 64
1, 86199, Note_on_c, 0, 76, 78
1, 86204, Control_c, 0, 64, 91
1, 86219, Control_c, 0, 64, 76
1, 86227, Note_off_c, 0, 64, 66
1, 86231, Note_off_c, 0, 76, 62
1, 86234, Control_c, 0, 64, 64
1, 86249, Control_c, 0, 64, 50
1, 86263, Control_c, 0, 64, 55
1, 86278, Control_c, 0, 64, 62
1, 86284, Note_on_c, 0, 76, 69
1, 86293, Control_c, 0, 64, 65
1, 86301, Note_on_c, 0, 64, 64
1, 86308, Control_c, 0, 64, 68
1, 86323, Control_c, 0, 64, 70
1, 86338, Control_c, 0, 64, 73
1, 86352, Control_c, 0, 64, 76
1, 86355, Note_off_c, 0, 64, 0
1, 86367, Control_c, 0, 64, 78
1, 86382, Control_c, 0, 64, 80
1, 86387, Note_on_c, 0, 64, 30
1, 86397, Control_c, 0, 64, 82
1, 86412, Control_c, 0, 64, 83
1, 86427, Control_c, 0, 64, 84
1, 86490, Note_on_c, 0, 74, 79
1, 86512, Note_off_c, 0, 76, 48
1, 86516, Note_on_c, 0, 62, 54
1, 86571, Note_off_c, 0, 64, 52
1, 86588, Control_c, 0, 64, 85
1, 86603, Control_c, 0, 64, 87
1, 86618, Control_c, 0, 64, 90
1, 86633, Control_c, 0, 64, 92
1, 86647, Control_c, 0, 64, 91
1, 86662, Control_c, 0, 64, 86
1, 86666, Note_off_c, 0, 62, 58
1, 86677, Control_c, 0, 64, 77
1, 86690, Note_on_c, 0, 80, 76
1, 86692, Control_c, 0, 64, 66
1, 86695, Note_on_c, 0, 55, 66
1, 86706, Control_c, 0, 64, 40
1, 86721, Control_c, 0, 64, 33
1, 86736, Control_c, 0, 64, 47
1, 86758, Control_c, 0, 64, 58
1, 86773, Control_c, 0, 64, 63
1, 86776, Note_off_c, 0, 74, 54
1, 86788, Control_c, 0, 64, 67
1, 86803, Control_c, 0, 64, 70
1, 86818, Control_c, 0, 64, 72
1, 86832, Control_c, 0, 64, 73
1, 86847, Control_c, 0, 64, 75
1, 86862, Control_c, 0, 64, 76
1, 86877, Control_c, 0, 64, 78
1, 86885, Note_off_c, 0, 55, 62
1, 86892, Control_c, 0, 64, 79
1, 86895, Note_on_c, 0, 79, 83
1, 86899, Note_on_c, 0, 57, 68
1, 86906, Control_c, 0, 64, 80
1, 86921, Control_c, 0, 64, 81
1, 86936, Control_c, 0, 64, 82
1, 86951, Control_c, 0, 64, 83
1, 86966, Control_c, 0, 64, 84
1, 86981, Control_c, 0, 64, 84
1, 86990, Note_off_c, 0, 80, 35
1, 86996, Control_c, 0, 64, 85
1, 87026, Control_c, 0, 64, 85
1, 87077, Note_off_c, 0, 57, 60
1, 87097, Note_on_c, 0, 78, 84
1, 87108, Note_on_c, 0, 58, 74
1, 87116, Note_off_c, 0, 79, 60
1, 87189, Control_c, 0, 64, 86
1, 87269, Note_off_c, 0, 58, 56
1, 87284, Note_on_c, 0, 48, 73
1, 87287, Note_on_c, 0, 74, 81
1, 87297, Note_off_c, 0, 78, 60
1, 87367, Control_c, 0, 64, 86
1, 87382, Control_c, 0, 64, 87
1, 87396, Control_c, 0, 64, 88
1, 87451, Note_off_c, 0, 48, 63
1, 87456, Control_c, 0, 64, 87
1, 87470, Control_c, 0, 64, 82
1, 87485, Control_c, 0, 64, 76
1, 87508, Control_c, 0, 64, 66
1, 87509, Note_on_c, 0, 82, 84
1, 87522, Control_c, 0, 64, 36
1, 87525, Note_on_c, 0, 49, 69
1, 87537, Control_c, 0, 64, 0
1, 87542, Note_off_c, 0, 74, 61
1, 87596, Control_c, 0, 64, 38
1, 87611, Control_c, 0, 64, 62
1, 87626, Control_c, 0, 64, 67
1, 87641, Control_c, 0, 64, 71
1, 87656, Control_c, 0, 64, 73
1, 87670, Control_c, 0, 64, 74
1, 87715, Control_c, 0, 64, 75
1, 87723, Note_on_c, 0, 42, 57
1, 87727, Note_on_c, 0, 81, 81
1, 87730, Control_c, 0, 64, 75
1, 87745, Control_c, 0, 64, 76
1, 87759, Control_c, 0, 64, 76
1, 87786, Note_off_c, 0, 82, 55
1, 87806, Note_off_c, 0, 49, 60
1, 87864, Control_c, 0, 64, 77
1, 87894, Control_c, 0, 64, 77
1, 87896, Note_off_c, 0, 42, 63
1, 87923, Note_on_c, 0, 79, 84
1, 87926, Note_on_c, 0, 43, 67
1, 88057, Control_c, 0, 64, 78
1, 88114, Note_on_c, 0, 77, 81
1, 88116, Note_on_c, 0, 45, 78
1, 88126, Note_off_c, 0, 43, 59
1, 88145, Control_c, 0, 64, 77
1, 88146, Note_off_c, 0, 79, 60
1, 88155, Note_off_c, 0, 81, 50
1, 88160, Control_c, 0, 64, 77
1, 88175, Control_c, 0, 64, 76
1, 88190, Control_c, 0, 64, 76
1, 88205, Control_c, 0, 64, 75
1, 88219, Control_c, 0, 64, 75
1, 88234, Control_c, 0, 64, 74
1, 88257, Control_c, 0, 64, 72
1, 88272, Control_c, 0, 64, 71
1, 88287, Control_c, 0, 64, 68
1, 88301, Control_c, 0, 64, 64
1, 88312, Note_off_c, 0, 77, 58
1, 88315, Note_off_c, 0, 45, 64
1, 88316, Control_c, 0, 64, 57
1, 88318, Note_on_c, 0, 47, 80
1, 88319, Note_on_c, 0, 76, 90
1, 88331, Control_c, 0, 64, 0
1, 88449, Note_off_c, 0, 76, 57
1, 88464, Control_c, 0, 64, 57
1, 88478, Control_c, 0, 64, 68
1, 88487, Note_off_c, 0, 47, 66
1, 88493, Control_c, 0, 64, 76
1, 88496, Note_on_c, 0, 48, 86
1, 88496, Note_on_c, 0, 74, 84
1, 88505, Note_on_c, 0, 76, 42
1, 88508, Control_c, 0, 64, 84
1, 88523, Control_c, 0, 64, 96
1, 88532, Note_off_c, 0, 48, 63
1, 88538, Control_c, 0, 64, 107
1, 88541, Note_off_c, 0, 74, 66
1, 88541, Note_off_c, 0, 76, 52
1, 88552, Control_c, 0, 64, 127
1, 88643, Control_c, 0, 64, 108
1, 88657, Control_c, 0, 64, 83
1, 88672, Control_c, 0, 64, 67
1, 88687, Control_c, 0, 64, 54
1, 88689, Note_on_c, 0, 73, 94
1, 88702, Control_c, 0, 64, 50
1, 88704, Note_on_c, 0, 50, 73
1, 88705, Note_on_c, 0, 48, 73
1, 88746, Control_c, 0, 64, 53
1, 88760, Note_off_c, 0, 48, 55
1, 88761, Control_c, 0, 64, 56
1, 88776, Control_c, 0, 64, 59
1, 88782, Note_on_c, 0, 75, 82
1, 88791, Control_c, 0, 64, 61
1, 88791, Note_off_c, 0, 73, 61
1, 88794, Note_on_c, 0, 52, 74
1, 88797, Note_off_c, 0, 50, 64
1, 88806, Control_c, 0, 64, 63
1, 88821, Control_c, 0, 64, 64
1, 88836, Control_c, 0, 64, 65
1, 88850, Control_c, 0, 64, 66
1, 88865, Control_c, 0, 64, 65
1, 88880, Control_c, 0, 64, 65
1, 88894, Control_c, 0, 64, 64
1, 88909, Control_c, 0, 64, 63
1, 88924, Control_c, 0, 64, 62
1, 88983, Control_c, 0, 64, 61
1, 89006, Control_c, 0, 64, 59
1, 89008, Note_on_c, 0, 72, 76
1, 89011, Note_on_c, 0, 59, 70
1, 89012, Note_on_c, 0, 65, 76
1, 89014, Note_on_c, 0, 62, 78
1, 89020, Control_c, 0, 64, 55
1, 89035, Control_c, 0, 64, 48
1, 89038, Note_off_c, 0, 62, 68
1, 89040, Note_off_c, 0, 65, 65
1, 89043, Note_off_c, 0, 59, 63
1, 89050, Control_c, 0, 64, 42
1, 89065, Control_c, 0, 64, 40
1, 89071, Note_off_c, 0, 72, 56
1, 89080, Control_c, 0, 64, 39
1, 89095, Control_c, 0, 64, 35
1, 89109, Control_c, 0, 64, 31
1, 89124, Control_c, 0, 64, 30
1, 89172, Note_on_c, 0, 53, 76
1, 89186, Note_on_c, 0, 76, 78
1, 89186, Note_off_c, 0, 52, 55
1, 89198, Control_c, 0, 64, 31
1, 89213, Control_c, 0, 64, 32
1, 89222, Note_off_c, 0, 75, 49
1, 89228, Control_c, 0, 64, 36
1, 89243, Control_c, 0, 64, 38
1, 89256, Note_on_c, 0, 55, 76
1, 89257, Control_c, 0, 64, 43
1, 89263, Note_off_c, 0, 53, 65
1, 89265, Note_on_c, 0, 77, 82
1, 89271, Note_off_c, 0, 76, 63
1, 89272, Control_c, 0, 64, 48
1, 89287, Control_c, 0, 64, 51
1, 89301, Control_c, 0, 64, 53
1, 89312, Note_off_c, 0, 77, 63
1, 89316, Control_c, 0, 64, 55
1, 89331, Control_c, 0, 64, 56
1, 89336, Note_off_c, 0, 55, 65
1, 89342, Note_on_c, 0, 57, 80
1, 89345, Note_on_c, 0, 74, 86
1, 89346, Control_c, 0, 64, 55
1, 89361, Control_c, 0, 64, 54
1, 89377, Control_c, 0, 64, 51
1, 89391, Control_c, 0, 64, 49
1, 89406, Control_c, 0, 64, 48
1, 89421, Control_c, 0, 64, 46
1, 89428, Note_off_c, 0, 57, 51
1, 89429, Note_off_c, 0, 74, 59
1, 89433, Note_on_c, 0, 82, 86
1, 89435, Note_on_c, 0, 59, 84
1, 89436, Control_c, 0, 64, 45
1, 89466, Control_c, 0, 64, 47
1, 89480, Control_c, 0, 64, 49
1, 89495, Control_c, 0, 64, 50
1, 89614, Control_c, 0, 64, 49
1, 89629, Control_c, 0, 64, 48
1, 89632, Note_on_c, 0, 48, 76
1, 89637, Note_on_c, 0, 83, 77
1, 89637, Note_off_c, 0, 59, 54
1, 89643, Control_c, 0, 64, 47
1, 89673, Control_c, 0, 64, 46
1, 89685, Note_off_c, 0, 82, 59
1, 89688, Control_c, 0, 64, 44
1, 89703, Control_c, 0, 64, 43
1, 89717, Control_c, 0, 64, 41
1, 89732, Control_c, 0, 64, 38
1, 89754, Control_c, 0, 64, 36
1, 89769, Control_c, 0, 64, 35
1, 89784, Control_c, 0, 64, 30
1, 89798, Control_c, 0, 64, 19
1, 89813, Control_c, 0, 64, 0
1, 89849, Note_on_c, 0, 84, 81
1, 89853, Note_on_c, 0, 52, 77
1, 89885, Note_off_c, 0, 83, 57
1, 89923, Note_off_c, 0, 48, 54
1, 90021, Control_c, 0, 64, 11
1, 90036, Control_c, 0, 64, 21
1, 90045, Note_off_c, 0, 52, 63
1, 90046, Note_on_c, 0, 76, 83
1, 90051, Control_c, 0, 64, 23
1, 90054, Note_on_c, 0, 53, 79
1, 90080, Control_c, 0, 64, 24
1, 90095, Control_c, 0, 64, 26
1, 90110, Control_c, 0, 64, 29
1, 90124, Control_c, 0, 64, 30
1, 90130, Note_off_c, 0, 84, 55
1, 90139, Control_c, 0, 64, 31
1, 90229, Control_c, 0, 64, 28
1, 90244, Control_c, 0, 64, 24
1, 90255, Note_on_c, 0, 78, 90
1, 90257, Note_on_c, 0, 54, 82
1, 90259, Control_c, 0, 64, 17
1, 90274, Control_c, 0, 64, 0
1, 90285, Note_off_c, 0, 53, 65
1, 90287, Note_off_c, 0, 76, 64
1, 90669, Note_on_c, 0, 56, 87
1, 90675, Note_on_c, 0, 80, 89
1, 90687, Note_off_c, 0, 54, 65
1, 90706, Note_off_c, 0, 78, 64
1, 91093, Note_on_c, 0, 58, 90
1, 91097, Note_on_c, 0, 81, 90
1, 91103, Note_off_c, 0, 56, 65
1, 91120, Note_off_c, 0, 80, 64
1, 91503, Note_on_c, 0, 72, 85
1, 91504, Note_on_c, 0, 62, 84
1, 91505, Note_on_c, 0, 59, 74
1, 91509, Note_on_c, 0, 65, 74
1, 91527, Note_off_c, 0, 62, 66
1, 91527, Note_off_c, 0, 65, 67
1, 91533, Note_off_c, 0, 72, 65
1, 91543, Note_off_c, 0, 59, 60
1, 91575, Note_off_c, 0, 81, 61
1, 91718, Note_off_c, 0, 58, 61
1, 91726, Note_on_c, 0, 55, 81
1, 91743, Note_on_c, 0, 81, 71
1, 91748, Note_on_c, 0, 83, 68
1, 91778, Note_off_c, 0, 83, 54
1, 91802, Note_on_c, 0, 57, 74
1, 91813, Note_on_c, 0, 80, 84
1, 91832, Note_off_c, 0, 55, 63
1, 91840, Note_off_c, 0, 81, 54
1, 91890, Note_on_c, 0, 59, 77
1, 91897, Note_on_c, 0, 79, 89
1, 91915, Note_off_c, 0, 57, 61
1, 91925, Note_off_c, 0, 80, 63
1, 91962, Note_on_c, 0, 60, 84
1, 91968, Note_off_c, 0, 59, 53
1, 91971, Note_off_c, 0, 79, 57
1, 91974, Note_on_c, 0, 77, 93
1, 92031, Note_off_c, 0, 77, 66
1, 92044, Note_off_c, 0, 60, 65
1, 92061, Note_on_c, 0, 76, 97
1, 92064, Note_on_c, 0, 62, 91
1, 92097, Note_off_c, 0, 76, 65
1, 92106, Note_off_c, 0, 62, 64
1, 92253, Note_on_c, 0, 74, 96
1, 92254, Note_on_c, 0, 55, 90
1, 92276, Note_off_c, 0, 55, 71
1, 92287, Note_off_c, 0, 74, 67
1, 92472, Note_on_c, 0, 75, 96
1, 92473, Note_on_c, 0, 64, 90
1, 92531, Note_off_c, 0, 75, 66
1, 92548, Note_off_c, 0, 64, 0
1, 92564, Note_on_c, 0, 63, 88
1, 92564, Note_on_c, 0, 77, 89
1, 92576, Poly_aftertouch_c, 0, 64, 0
1, 92750, Control_c, 0, 64, 11
1, 92764, Control_c, 0, 64, 49
1, 92779, Control_c, 0, 64, 59
1, 92794, Control_c, 0, 64, 63
1, 92809, Control_c, 0, 64, 64
1, 92824, Control_c, 0, 64, 64
1, 92839, Control_c, 0, 64, 65
1, 92854, Control_c, 0, 64, 66
1, 92869, Control_c, 0, 64, 66
1, 92884, Control_c, 0, 64, 67
1, 92898, Control_c, 0, 64, 68
1, 92913, Control_c, 0, 64, 68
1, 93002, Control_c, 0, 64, 68
1, 93016, Control_c, 0, 64, 67
1, 93031, Control_c, 0, 64, 67
1, 93046, Control_c, 0, 64, 65
1, 93060, Control_c, 0, 64, 63
1, 93075, Control_c, 0, 64, 53
1, 93090, Control_c, 0, 64, 0
1, 93104, Note_off_c, 0, 63, 58
1, 93116, Note_on_c, 0, 78, 94
1, 93119, Note_on_c, 0, 65, 82
1, 93149, Note_off_c, 0, 77, 63
1, 93223, Control_c, 0, 64, 59
1, 93238, Control_c, 0, 64, 66
1, 93251, Note_off_c, 0, 65, 60
1, 93253, Control_c, 0, 64, 70
1, 93268, Control_c, 0, 64, 75
1, 93283, Control_c, 0, 64, 80
1, 93298, Control_c, 0, 64, 85
1, 93313, Control_c, 0, 64, 91
1, 93328, Control_c, 0, 64, 98
1, 93342, Control_c, 0, 64, 103
1, 93357, Control_c, 0, 64, 108
1, 93373, Control_c, 0, 64, 113
1, 93387, Control_c, 0, 64, 121
1, 93402, Control_c, 0, 64, 127
1, 93513, Note_on_c, 0, 76, 91
1, 93519, Note_on_c, 0, 65, 83
1, 93554, Note_off_c, 0, 78, 61
1, 93662, Control_c, 0, 64, 115
1, 93677, Control_c, 0, 64, 103
1, 93691, Control_c, 0, 64, 90
1, 93706, Control_c, 0, 64, 76
1, 93721, Control_c, 0, 64, 61
1, 93730, Note_off_c, 0, 65, 63
1, 93736, Control_c, 0, 64, 0
1, 93739, Note_on_c, 0, 82, 94
1, 93745, Note_on_c, 0, 67, 85
1, 93769, Note_off_c, 0, 76, 61
1, 93854, Control_c, 0, 64, 56
1, 93869, Control_c, 0, 64, 70
1, 93884, Control_c, 0, 64, 80
1, 93898, Control_c, 0, 64, 95
1, 93913, Control_c, 0, 64, 120
1, 93928, Control_c, 0, 64, 127
1, 93949, Note_off_c, 0, 67, 51
1, 94337, Note_on_c, 0, 65, 77
1, 94337, Control_c, 0, 64, 104
1, 94338, Note_on_c, 0, 83, 94
1, 94352, Control_c, 0, 64, 85
1, 94367, Control_c, 0, 64, 69
1, 94382, Control_c, 0, 64, 0
1, 94389, Note_off_c, 0, 82, 60
1, 94574, Control_c, 0, 64, 39
1, 94589, Control_c, 0, 64, 50
1, 94604, Control_c, 0, 64, 54
1, 94611, Note_on_c, 0, 85, 90
1, 94619, Note_on_c, 0, 64, 71
1, 94619, Control_c, 0, 64, 57
1, 94633, Control_c, 0, 64, 62
1, 94636, Note_off_c, 0, 65, 58
1, 94646, Note_off_c, 0, 83, 63
1, 94648, Control_c, 0, 64, 66
1, 94663, Control_c, 0, 64, 71
1, 94678, Control_c, 0, 64, 75
1, 94693, Control_c, 0, 64, 79
1, 94737, Control_c, 0, 64, 79
1, 94752, Control_c, 0, 64, 82
1, 94766, Control_c, 0, 64, 86
1, 94781, Control_c, 0, 64, 93
1, 94795, Control_c, 0, 64, 100
1, 94806, Note_on_c, 0, 87, 93
1, 94810, Control_c, 0, 64, 103
1, 94816, Note_on_c, 0, 62, 70
1, 94825, Control_c, 0, 64, 106
1, 94839, Control_c, 0, 64, 109
1, 94854, Note_off_c, 0, 85, 58
1, 94854, Control_c, 0, 64, 116
1, 94869, Control_c, 0, 64, 127
1, 94917, Note_off_c, 0, 64, 33
1, 94970, Note_off_c, 0, 62, 59
1, 95003, Note_on_c, 0, 88, 84
1, 95007, Note_on_c, 0, 55, 74
1, 95026, Control_c, 0, 64, 102
1, 95032, Note_off_c, 0, 87, 63
1, 95041, Control_c, 0, 64, 85
1, 95056, Control_c, 0, 64, 74
1, 95071, Control_c, 0, 64, 67
1, 95085, Note_on_c, 0, 84, 82
1, 95086, Control_c, 0, 64, 63
1, 95100, Control_c, 0, 64, 62
1, 95101, Note_off_c, 0, 88, 60
1, 95105, Note_on_c, 0, 57, 73
1, 95115, Control_c, 0, 64, 62
1, 95131, Note_off_c, 0, 55, 63
1, 95142, Note_off_c, 0, 84, 65
1, 95144, Control_c, 0, 64, 61
1, 95159, Control_c, 0, 64, 59
1, 95174, Control_c, 0, 64, 56
1, 95177, Note_on_c, 0, 77, 87
1, 95189, Control_c, 0, 64, 54
1, 95190, Note_on_c, 0, 58, 79
1, 95190, Note_off_c, 0, 57, 61
1, 95204, Control_c, 0, 64, 53
1, 95218, Control_c, 0, 64, 51
1, 95233, Control_c, 0, 64, 49
1, 95248, Control_c, 0, 64, 48
1, 95307, Control_c, 0, 64, 48
1, 95322, Control_c, 0, 64, 47
1, 95337, Control_c, 0, 64, 47
1, 95352, Control_c, 0, 64, 46
1, 95367, Control_c, 0, 64, 43
1, 95377, Note_on_c, 0, 78, 87
1, 95379, Note_off_c, 0, 58, 62
1, 95382, Control_c, 0, 64, 37
1, 95385, Note_on_c, 0, 57, 76
1, 95397, Control_c, 0, 64, 33
1, 95403, Note_off_c, 0, 77, 63
1, 95411, Control_c, 0, 64, 28
1, 95426, Control_c, 0, 64, 24
1, 95456, Control_c, 0, 64, 23
1, 95574, Control_c, 0, 64, 21
1, 95580, Note_on_c, 0, 55, 71
1, 95581, Note_on_c, 0, 80, 84
1, 95594, Note_off_c, 0, 57, 62
1, 95618, Control_c, 0, 64, 17
1, 95623, Note_off_c, 0, 78, 58
1, 95633, Control_c, 0, 64, 14
1, 95677, Control_c, 0, 64, 11
1, 95692, Control_c, 0, 64, 0
1, 95778, Note_on_c, 0, 81, 84
1, 95793, Note_on_c, 0, 53, 73
1, 95812, Note_off_c, 0, 55, 60
1, 95814, Note_off_c, 0, 80, 61
1, 95957, Note_off_c, 0, 81, 60
1, 95969, Note_on_c, 0, 72, 82
1, 95977, Note_off_c, 0, 53, 64
1, 95978, Note_on_c, 0, 52, 70
1, 96178, Note_on_c, 0, 73, 88
1, 96178, Note_off_c, 0, 52, 63
1, 96189, Note_on_c, 0, 50, 73
1, 96196, Note_off_c, 0, 72, 62
1, 96274, Note_off_c, 0, 73, 60
1, 96276, Note_on_c, 0, 75, 79
1, 96288, Note_on_c, 0, 52, 77
1, 96297, Note_off_c, 0, 50, 62
1, 96308, Control_c, 0, 67, 8
1, 96323, Control_c, 0, 67, 9
1, 96338, Control_c, 0, 67, 9
1, 96353, Control_c, 0, 67, 10
1, 96367, Control_c, 0, 67, 11
1, 96382, Control_c, 0, 67, 12
1, 96397, Control_c, 0, 67, 12
1, 96412, Control_c, 0, 67, 14
1, 96427, Control_c, 0, 67, 17
1, 96441, Control_c, 0, 67, 22
1, 96456, Control_c, 0, 67, 29
1, 96471, Control_c, 0, 67, 35
1, 96493, Control_c, 0, 67, 37
1, 96508, Control_c, 0, 67, 40
1, 96523, Control_c, 0, 67, 42
1, 96538, Control_c, 0, 67, 42
1, 96583, Control_c, 0, 64, 39
1, 96583, Control_c, 0, 67, 41
1, 96598, Control_c, 0, 64, 68
1, 96598, Control_c, 0, 67, 40
1, 96605, Note_on_c, 0, 72, 74
1, 96609, Note_on_c, 0, 65, 64
1, 96613, Control_c, 0, 64, 80
1, 96613, Control_c, 0, 67, 39
1, 96616, Note_on_c, 0, 62, 75
1, 96617, Note_on_c, 0, 59, 76
1, 96618, Note_off_c, 0, 75, 62
1, 96628, Control_c, 0, 64, 85
1, 96628, Control_c, 0, 67, 41
1, 96631, Note_off_c, 0, 72, 66
1, 96634, Note_off_c, 0, 65, 65
1, 96637, Note_off_c, 0, 52, 61
1, 96639, Note_off_c, 0, 62, 67
1, 96641, Note_off_c, 0, 59, 69
1, 96643, Control_c, 0, 64, 82
1, 96643, Control_c, 0, 67, 45
1, 96657, Control_c, 0, 64, 72
1, 96657, Control_c, 0, 67, 62
1, 96672, Control_c, 0, 64, 62
1, 96672, Control_c, 0, 67, 101
1, 96687, Control_c, 0, 64, 0
1, 96687, Control_c, 0, 67, 127
1, 97069, Note_on_c, 0, 93, 44
1, 97093, Note_on_c, 0, 38, 29
1, 97308, Note_on_c, 0, 91, 43
1, 97324, Note_off_c, 0, 93, 43
1, 97328, Note_on_c, 0, 40, 31
1, 97351, Note_off_c, 0, 91, 0
1, 97351, Note_on_c, 0, 91, 4
1, 97361, Note_off_c, 0, 38, 41
1, 97520, Note_on_c, 0, 90, 45
1, 97525, Note_on_c, 0, 41, 35
1, 97552, Note_off_c, 0, 40, 39
1, 97611, Note_off_c, 0, 91, 40
1, 97682, Note_off_c, 0, 90, 54
1, 97709, Note_on_c, 0, 85, 52
1, 97719, Note_on_c, 0, 43, 44
1, 97740, Note_off_c, 0, 41, 45
1, 97921, Note_on_c, 0, 87, 53
1, 97923, Note_off_c, 0, 43, 62
1, 97941, Note_on_c, 0, 45, 36
1, 97958, Note_off_c, 0, 85, 38
1, 98134, Note_on_c, 0, 88, 48
1, 98140, Note_on_c, 0, 42, 43
1, 98169, Note_off_c, 0, 87, 39
1, 98175, Note_off_c, 0, 45, 42
1, 98339, Note_off_c, 0, 88, 51
1, 98342, Note_on_c, 0, 86, 51
1, 98343, Note_on_c, 0, 44, 47
1, 98354, Note_off_c, 0, 42, 48
1, 98543, Note_on_c, 0, 46, 46
1, 98547, Note_on_c, 0, 83, 56
1, 98554, Note_off_c, 0, 86, 52
1, 98586, Note_off_c, 0, 44, 34
1, 98734, Note_off_c, 0, 46, 58
1, 98736, Note_off_c, 0, 83, 63
1, 98753, Note_on_c, 0, 47, 49
1, 98755, Note_on_c, 0, 81, 57
1, 98921, Note_off_c, 0, 47, 58
1, 98939, Note_off_c, 0, 81, 48
1, 98952, Note_on_c, 0, 78, 58
1, 98960, Note_on_c, 0, 48, 52
1, 99126, Note_off_c, 0, 48, 57
1, 99139, Note_off_c, 0, 78, 55
1, 99152, Note_on_c, 0, 77, 55
1, 99158, Note_on_c, 0, 54, 47
1, 99286, Note_off_c, 0, 54, 55
1, 99288, Control_c, 0, 64, 28
1, 99302, Control_c, 0, 64, 58
1, 99317, Control_c, 0, 64, 65
1, 99322, Note_off_c, 0, 77, 59
1, 99332, Control_c, 0, 64, 69
1, 99347, Control_c, 0, 64, 71
1, 99349, Note_on_c, 0, 49, 51
1, 99355, Note_on_c, 0, 76, 55
1, 99362, Control_c, 0, 64, 73
1, 99376, Control_c, 0, 64, 74
1, 99382, Note_off_c, 0, 49, 64
1, 99391, Control_c, 0, 64, 75
1, 99406, Control_c, 0, 64, 75
1, 99424, Note_off_c, 0, 76, 54
1, 99465, Control_c, 0, 64, 76
1, 99532, Control_c, 0, 64, 73
1, 99547, Control_c, 0, 64, 68
1, 99562, Control_c, 0, 64, 54
1, 99577, Control_c, 0, 64, 0
1, 99588, Note_on_c, 0, 73, 58
1, 99592, Note_on_c, 0, 50, 46
1, 99669, Note_off_c, 0, 73, 57
1, 99683, Note_off_c, 0, 50, 61
1, 99692, Note_on_c, 0, 75, 50
1, 99741, Note_on_c, 0, 52, 28
1, 100003, Note_on_c, 0, 62, 55
1, 100006, Note_on_c, 0, 59, 54
1, 100008, Note_on_c, 0, 65, 53
1, 100009, Note_on_c, 0, 72, 50
1, 100028, Note_off_c, 0, 62, 60
1, 100032, Note_off_c, 0, 72, 61
1, 100032, Note_off_c, 0, 65, 61
1, 100036, Note_off_c, 0, 59, 64
1, 100252, Control_c, 0, 64, 47
1, 100267, Control_c, 0, 64, 59
1, 100282, Control_c, 0, 64, 63
1, 100297, Control_c, 0, 64, 65
1, 100312, Control_c, 0, 64, 66
1, 100327, Control_c, 0, 64, 67
1, 100341, Control_c, 0, 64, 68
1, 100356, Control_c, 0, 64, 68
1, 100386, Control_c, 0, 64, 69
1, 100415, Control_c, 0, 64, 69
1, 100430, Control_c, 0, 64, 70
1, 100459, Control_c, 0, 64, 70
1, 100461, Note_off_c, 0, 75, 38
1, 100473, Note_off_c, 0, 52, 42
1, 100474, Control_c, 0, 64, 68
1, 100489, Control_c, 0, 64, 64
1, 100494, Note_on_c, 0, 50, 44
1, 100497, Note_on_c, 0, 73, 46
1, 100504, Control_c, 0, 64, 46
1, 100519, Control_c, 0, 64, 0
1, 100607, Note_off_c, 0, 73, 48
1, 100610, Note_off_c, 0, 50, 60
1, 100613, Note_on_c, 0, 75, 38
1, 100643, Note_on_c, 0, 52, 27
1, 101341, Note_on_c, 0, 72, 40
1, 101354, Note_on_c, 0, 62, 38
1, 101360, Note_on_c, 0, 59, 27
1, 101364, Note_on_c, 0, 65, 30
1, 101415, Note_off_c, 0, 75, 51
1, 101420, Note_off_c, 0, 72, 62
1, 101426, Note_off_c, 0, 65, 43
1, 101431, Note_off_c, 0, 62, 55
1, 101434, Note_off_c, 0, 59, 58
1, 101458, Note_off_c, 0, 52, 55
1, 102942, Control_c, 0, 64, 11
1, 102958, Control_c, 0, 64, 14
1, 102973, Control_c, 0, 64, 19
1, 102988, Control_c, 0, 64, 21
1, 103004, Control_c, 0, 64, 23
1, 103019, Control_c, 0, 64, 24
1, 103033, Control_c, 0, 64, 27
1, 103048, Control_c, 0, 64, 28
1, 103063, Control_c, 0, 64, 30
1, 103077, Control_c, 0, 64, 32
1, 103092, Control_c, 0, 64, 35
1, 103107, Control_c, 0, 64, 37
1, 103122, Control_c, 0, 64, 40
1, 103137, Control_c, 0, 64, 42
1, 103151, Control_c, 0, 64, 44
1, 103166, Control_c, 0, 64, 46
1, 103181, Control_c, 0, 64, 47
1, 103196, Control_c, 0, 64, 49
1, 103211, Control_c, 0, 64, 51
1, 103233, Control_c, 0, 64, 53
1, 103248, Control_c, 0, 64, 55
1, 103263, Control_c, 0, 64, 57
1, 103277, Control_c, 0, 64, 59
1, 103292, Control_c, 0, 64, 60
1, 103307, Control_c, 0, 64, 61
1, 103322, Control_c, 0, 64, 62
1, 103337, Control_c, 0, 64, 62
1, 103351, Control_c, 0, 64, 63
1, 103366, Control_c, 0, 64, 64
1, 103381, Control_c, 0, 64, 65
1, 103396, Control_c, 0, 64, 65
1, 103411, Control_c, 0, 64, 66
1, 103425, Control_c, 0, 64, 67
1, 103440, Control_c, 0, 64, 68
1, 103455, Control_c, 0, 64, 68
1, 103469, Control_c, 0, 64, 69
1, 103484, Control_c, 0, 64, 70
1, 103499, Control_c, 0, 64, 70
1, 103514, Control_c, 0, 64, 71
1, 103529, Control_c, 0, 64, 72
1, 103544, Control_c, 0, 64, 73
1, 103558, Control_c, 0, 64, 74
1, 103573, Control_c, 0, 64, 75
1, 103588, Control_c, 0, 64, 77
1, 103603, Control_c, 0, 64, 78
1, 103618, Control_c, 0, 64, 80
1, 103618, Control_c, 0, 67, 123
1, 103633, Control_c, 0, 64, 81
1, 103633, Control_c, 0, 67, 110
1, 103648, Control_c, 0, 64, 83
1, 103648, Control_c, 0, 67, 88
1, 103663, Control_c, 0, 64, 85
1, 103663, Control_c, 0, 67, 65
1, 103677, Control_c, 0, 64, 88
1, 103677, Control_c, 0, 67, 43
1, 103692, Control_c, 0, 64, 91
1, 103692, Control_c, 0, 67, 21
1, 103707, Control_c, 0, 64, 96
1, 103707, Control_c, 0, 67, 0
1, 103722, Control_c, 0, 64, 101
1, 103737, Control_c, 0, 64, 108
1, 103752, Control_c, 0, 64, 121
1, 103767, Control_c, 0, 64, 127
1, 104031, Note_on_c, 0, 58, 105
1, 104056, Control_c, 0, 64, 95
1, 104071, Control_c, 0, 64, 73
1, 104086, Control_c, 0, 64, 33
1, 104100, Control_c, 0, 64, 0
1, 104292, Control_c, 0, 64, 44
1, 104307, Control_c, 0, 64, 59
1, 104322, Control_c, 0, 64, 63
1, 104337, Control_c, 0, 64, 65
1, 104352, Control_c, 0, 64, 65
1, 104366, Control_c, 0, 64, 66
1, 104381, Control_c, 0, 64, 67
1, 104396, Control_c, 0, 64, 68
1, 104411, Control_c, 0, 64, 69
1, 104426, Control_c, 0, 64, 71
1, 104441, Control_c, 0, 64, 72
1, 104456, Control_c, 0, 64, 73
1, 104470, Control_c, 0, 64, 74
1, 104485, Control_c, 0, 64, 75
1, 104500, Control_c, 0, 64, 76
1, 104515, Control_c, 0, 64, 77
1, 104530, Control_c, 0, 64, 78
1, 104545, Control_c, 0, 64, 80
1, 104560, Control_c, 0, 64, 81
1, 104575, Control_c, 0, 64, 83
1, 104590, Control_c, 0, 64, 84
1, 104605, Control_c, 0, 64, 86
1, 104619, Control_c, 0, 64, 87
1, 104634, Control_c, 0, 64, 89
1, 104649, Control_c, 0, 64, 92
1, 104664, Control_c, 0, 64, 95
1, 104679, Control_c, 0, 64, 99
1, 104694, Control_c, 0, 64, 102
1, 104709, Control_c, 0, 64, 105
1, 104730, Control_c, 0, 64, 109
1, 104745, Control_c, 0, 64, 113
1, 104760, Control_c, 0, 64, 119
1, 104775, Control_c, 0, 64, 127
1, 105436, Note_off_c, 0, 58, 59
1, 105442, Control_c, 0, 64, 111
1, 105453, Note_on_c, 0, 59, 98
1, 105457, Control_c, 0, 64, 85
1, 105478, Control_c, 0, 64, 65
1, 105493, Control_c, 0, 64, 0
1, 105612, Control_c, 0, 64, 37
1, 105627, Control_c, 0, 64, 63
1, 105642, Control_c, 0, 64, 68
1, 105657, Control_c, 0, 64, 72
1, 105671, Control_c, 0, 64, 74
1, 105686, Control_c, 0, 64, 76
1, 105701, Control_c, 0, 64, 78
1, 105716, Control_c, 0, 64, 80
1, 105728, Note_on_c, 0, 64, 97
1, 105731, Control_c, 0, 64, 83
1, 105745, Control_c, 0, 64, 88
1, 105760, Control_c, 0, 64, 93
1, 105775, Control_c, 0, 64, 99
1, 105790, Control_c, 0, 64, 106
1, 105804, Control_c, 0, 64, 116
1, 105819, Control_c, 0, 64, 127
1, 105850, Note_off_c, 0, 59, 54
1, 105857, Note_off_c, 0, 64, 57
1, 105867, Note_on_c, 0, 65, 93
1, 105950, Note_on_c, 0, 67, 92
1, 105961, Note_off_c, 0, 65, 64
1, 106024, Note_on_c, 0, 69, 89
1, 106038, Note_off_c, 0, 67, 60
1, 106088, Note_on_c, 0, 71, 80
1, 106133, Note_off_c, 0, 69, 66
1, 106137, Note_on_c, 0, 72, 90
1, 106147, Control_c, 0, 64, 96
1, 106160, Note_off_c, 0, 71, 67
1, 106162, Control_c, 0, 64, 70
1, 106176, Control_c, 0, 64, 0
1, 106178, Note_off_c, 0, 72, 68
1, 106196, Note_on_c, 0, 73, 109
1, 106206, Control_c, 0, 64, 66
1, 106229, Control_c, 0, 64, 80
1, 106235, Note_off_c, 0, 73, 71
1, 106244, Control_c, 0, 64, 108
1, 106258, Control_c, 0, 64, 127
1, 106471, Note_on_c, 0, 72, 96
1, 106520, Note_on_c, 0, 77, 88
1, 106520, Note_off_c, 0, 72, 67
1, 106566, Note_on_c, 0, 79, 87
1, 106598, Note_off_c, 0, 77, 62
1, 106614, Note_on_c, 0, 81, 81
1, 106660, Note_on_c, 0, 83, 90
1, 106661, Note_off_c, 0, 79, 63
1, 106688, Note_off_c, 0, 81, 66
1, 106713, Note_off_c, 0, 83, 66
1, 106738, Note_on_c, 0, 88, 118
1, 106760, Note_off_c, 0, 88, 75
1, 107020, Note_on_c, 0, 86, 106
1, 107046, Note_off_c, 0, 86, 73
1, 107436, Control_c, 0, 64, 102
1, 107451, Control_c, 0, 64, 76
1, 107466, Control_c, 0, 64, 38
1, 107481, Control_c, 0, 64, 0
1, 107624, Note_on_c, 0, 77, 97
1, 107629, Control_c, 0, 64, 19
1, 107643, Control_c, 0, 64, 50
1, 107658, Control_c, 0, 64, 56
1, 107673, Control_c, 0, 64, 56
1, 107725, Control_c, 0, 64, 57
1, 107765, Note_on_c, 0, 76, 98
1, 107787, Note_off_c, 0, 77, 64
1, 107800, Control_c, 0, 64, 57
1, 107815, Control_c, 0, 64, 53
1, 107830, Control_c, 0, 64, 39
1, 107837, Note_off_c, 0, 76, 61
1, 107840, Note_on_c, 0, 74, 101
1, 107845, Control_c, 0, 64, 0
1, 107883, Note_off_c, 0, 74, 66
1, 107902, Note_on_c, 0, 72, 100
1, 107942, Note_off_c, 0, 72, 70
1, 107967, Note_on_c, 0, 59, 82
1, 107968, Note_on_c, 0, 70, 104
1, 107978, Control_c, 0, 64, 58
1, 107993, Control_c, 0, 64, 73
1, 108001, Note_off_c, 0, 70, 70
1, 108003, Note_off_c, 0, 59, 65
1, 108008, Control_c, 0, 64, 94
1, 108022, Control_c, 0, 64, 127
1, 108521, Note_on_c, 0, 69, 100
1, 108533, Control_c, 0, 64, 118
1, 108549, Control_c, 0, 64, 82
1, 108564, Control_c, 0, 64, 63
1, 108578, Control_c, 0, 64, 0
1, 108643, Note_on_c, 0, 71, 90
1, 108650, Note_off_c, 0, 69, 66
1, 108801, Control_c, 0, 67, 8
1, 108815, Control_c, 0, 67, 9
1, 108830, Control_c, 0, 67, 11
1, 108845, Control_c, 0, 67, 15
1, 108860, Control_c, 0, 67, 18
1, 108875, Control_c, 0, 67, 23
1, 108889, Control_c, 0, 67, 28
1, 108904, Control_c, 0, 67, 32
1, 108919, Control_c, 0, 67, 35
1, 108934, Control_c, 0, 67, 40
1, 108949, Control_c, 0, 67, 43
1, 108963, Control_c, 0, 67, 45
1, 108978, Control_c, 0, 67, 46
1, 108992, Control_c, 0, 67, 47
1, 109007, Control_c, 0, 67, 47
1, 109037, Control_c, 0, 67, 48
1, 109200, Control_c, 0, 67, 48
1, 109341, Control_c, 0, 67, 48
1, 109505, Control_c, 0, 67, 48
1, 109682, Control_c, 0, 67, 48
1, 109816, Control_c, 0, 67, 48
1, 109860, Control_c, 0, 67, 49
1, 109905, Control_c, 0, 67, 49
1, 109949, Control_c, 0, 67, 50
1, 109971, Control_c, 0, 67, 53
1, 109986, Control_c, 0, 67, 56
1, 110001, Control_c, 0, 67, 59
1, 110016, Control_c, 0, 67, 62
1, 110031, Control_c, 0, 67, 64
1, 110045, Control_c, 0, 67, 65
1, 110060, Control_c, 0, 67, 66
1, 110075, Control_c, 0, 67, 69
1, 110090, Control_c, 0, 67, 73
1, 110105, Control_c, 0, 67, 76
1, 110119, Control_c, 0, 67, 79
1, 110134, Control_c, 0, 67, 81
1, 110150, Control_c, 0, 67, 83
1, 110165, Control_c, 0, 67, 84
1, 110180, Control_c, 0, 67, 84
1, 110195, Control_c, 0, 67, 85
1, 110210, Control_c, 0, 67, 85
1, 110224, Control_c, 0, 67, 86
1, 110239, Control_c, 0, 67, 86
1, 110668, Control_c, 0, 67, 87
1, 110683, Control_c, 0, 67, 87
1, 110698, Control_c, 0, 67, 88
1, 110721, Control_c, 0, 67, 90
1, 110736, Control_c, 0, 67, 96
1, 110750, Control_c, 0, 67, 101
1, 110765, Control_c, 0, 67, 106
1, 110780, Control_c, 0, 67, 111
1, 110794, Control_c, 0, 67, 115
1, 110809, Control_c, 0, 67, 119
1, 110824, Control_c, 0, 67, 123
1, 110839, Control_c, 0, 67, 127
1, 110912, Note_on_c, 0, 41, 34
1, 110924, Note_off_c, 0, 71, 53
1, 111734, Note_on_c, 0, 43, 43
1, 111845, Note_off_c, 0, 41, 41
1, 112373, Note_on_c, 0, 45, 46
1, 112419, Note_off_c, 0, 43, 60
1, 112513, Control_c, 0, 64, 11
1, 112528, Control_c, 0, 64, 17
1, 112543, Control_c, 0, 64, 21
1, 112558, Control_c, 0, 64, 24
1, 112573, Control_c, 0, 64, 27
1, 112588, Control_c, 0, 64, 30
1, 112602, Control_c, 0, 64, 33
1, 112617, Control_c, 0, 64, 34
1, 112632, Control_c, 0, 64, 35
1, 112647, Control_c, 0, 64, 36
1, 112662, Control_c, 0, 64, 37
1, 112692, Control_c, 0, 64, 38
1, 112722, Control_c, 0, 64, 38
1, 112751, Control_c, 0, 64, 39
1, 112766, Note_on_c, 0, 50, 57
1, 112781, Control_c, 0, 64, 40
1, 112796, Control_c, 0, 64, 40
1, 112811, Control_c, 0, 64, 42
1, 112823, Note_off_c, 0, 45, 60
1, 112841, Control_c, 0, 64, 42
1, 112855, Control_c, 0, 64, 43
1, 112870, Control_c, 0, 64, 43
1, 112900, Control_c, 0, 64, 44
1, 112915, Control_c, 0, 64, 44
1, 112944, Control_c, 0, 64, 45
1, 113026, Control_c, 0, 64, 46
1, 113041, Control_c, 0, 64, 46
1, 113054, Note_on_c, 0, 52, 62
1, 113055, Control_c, 0, 64, 47
1, 113099, Note_off_c, 0, 50, 63
1, 113100, Control_c, 0, 64, 48
1, 113115, Control_c, 0, 64, 49
1, 113130, Control_c, 0, 64, 50
1, 113144, Control_c, 0, 64, 50
1, 113159, Control_c, 0, 64, 51
1, 113174, Control_c, 0, 64, 51
1, 113188, Control_c, 0, 64, 52
1, 113203, Control_c, 0, 64, 53
1, 113218, Control_c, 0, 64, 55
1, 113233, Control_c, 0, 64, 56
1, 113312, Note_on_c, 0, 51, 65
1, 113322, Control_c, 0, 64, 57
1, 113326, Note_off_c, 0, 52, 61
1, 113353, Control_c, 0, 64, 57
1, 113382, Control_c, 0, 64, 58
1, 113397, Control_c, 0, 64, 59
1, 113411, Control_c, 0, 64, 60
1, 113426, Control_c, 0, 64, 61
1, 113441, Control_c, 0, 64, 61
1, 113456, Control_c, 0, 64, 62
1, 113471, Control_c, 0, 64, 62
1, 113485, Control_c, 0, 64, 63
1, 113500, Control_c, 0, 64, 63
1, 113515, Control_c, 0, 64, 64
1, 113545, Control_c, 0, 64, 64
1, 113559, Control_c, 0, 64, 65
1, 113574, Control_c, 0, 64, 65
1, 113589, Control_c, 0, 64, 66
1, 113604, Control_c, 0, 64, 66
1, 113619, Control_c, 0, 64, 67
1, 113634, Control_c, 0, 64, 68
1, 113649, Control_c, 0, 64, 68
1, 113664, Control_c, 0, 64, 69
1, 113678, Control_c, 0, 64, 70
1, 113693, Control_c, 0, 64, 70
1, 113715, Control_c, 0, 64, 71
1, 113730, Control_c, 0, 64, 72
1, 113745, Control_c, 0, 64, 73
1, 113759, Control_c, 0, 64, 74
1, 113774, Control_c, 0, 64, 75
1, 113789, Control_c, 0, 64, 76
1, 113804, Control_c, 0, 64, 77
1, 113819, Control_c, 0, 64, 79
1, 113833, Control_c, 0, 64, 80
1, 113848, Control_c, 0, 64, 82
1, 113863, Control_c, 0, 64, 83
1, 113878, Control_c, 0, 64, 84
1, 113893, Control_c, 0, 64, 86
1, 113908, Control_c, 0, 64, 86
1, 113923, Control_c, 0, 64, 87
1, 113967, Control_c, 0, 64, 87
1, 113982, Control_c, 0, 64, 89
1, 113997, Control_c, 0, 64, 92
1, 114011, Control_c, 0, 64, 94
1, 114026, Control_c, 0, 64, 95
1, 114056, Control_c, 0, 64, 94
1, 114066, Note_on_c, 0, 53, 67
1, 114071, Control_c, 0, 64, 89
1, 114085, Control_c, 0, 64, 83
1, 114100, Control_c, 0, 64, 73
1, 114115, Control_c, 0, 64, 67
1, 114131, Control_c, 0, 64, 65
1, 114133, Note_off_c, 0, 51, 62
1, 114146, Control_c, 0, 64, 66
1, 114161, Control_c, 0, 64, 68
1, 114176, Control_c, 0, 64, 69
1, 114190, Control_c, 0, 64, 71
1, 114205, Control_c, 0, 64, 73
1, 114234, Control_c, 0, 64, 72
1, 114249, Control_c, 0, 64, 70
1, 114264, Control_c, 0, 64, 68
1, 114278, Note_on_c, 0, 58, 64
1, 114279, Note_off_c, 0, 53, 59
1, 114279, Control_c, 0, 64, 64
1, 114281, Note_on_c, 0, 59, 67
1, 114294, Control_c, 0, 64, 55
1, 114308, Control_c, 0, 64, 0
1, 114382, Control_c, 0, 64, 47
1, 114397, Control_c, 0, 64, 65
1, 114412, Control_c, 0, 64, 71
1, 114427, Control_c, 0, 64, 78
1, 114442, Control_c, 0, 64, 83
1, 114464, Control_c, 0, 64, 88
1, 114479, Control_c, 0, 64, 93
1, 114494, Control_c, 0, 64, 99
1, 114508, Control_c, 0, 64, 107
1, 114523, Control_c, 0, 64, 127
1, 114582, Control_c, 0, 67, 124
1, 114597, Control_c, 0, 67, 119
1, 114612, Control_c, 0, 67, 114
1, 114627, Control_c, 0, 67, 106
1, 114641, Control_c, 0, 67, 96
1, 114656, Control_c, 0, 67, 85
1, 114671, Control_c, 0, 67, 73
1, 114683, Note_off_c, 0, 59, 37
1, 114686, Control_c, 0, 67, 61
1, 114701, Control_c, 0, 67, 51
1, 114716, Control_c, 0, 67, 41
1, 114731, Control_c, 0, 67, 25
1, 114746, Control_c, 0, 67, 9
1, 114760, Control_c, 0, 67, 0
1, 114770, Note_off_c, 0, 58, 38
1, 114787, Note_on_c, 0, 61, 65
1, 114930, Note_off_c, 0, 61, 58
1, 114954, Note_on_c, 0, 62, 62
1, 115054, Note_on_c, 0, 64, 75
1, 115054, Note_off_c, 0, 62, 62
1, 115137, Note_on_c, 0, 65, 79
1, 115154, Note_off_c, 0, 64, 61
1, 115220, Note_on_c, 0, 67, 82
1, 115243, Control_c, 0, 64, 90
1, 115246, Note_off_c, 0, 65, 62
1, 115257, Control_c, 0, 64, 72
1, 115272, Control_c, 0, 64, 65
1, 115283, Note_off_c, 0, 67, 63
1, 115287, Control_c, 0, 64, 68
1, 115302, Control_c, 0, 64, 76
1, 115306, Note_on_c, 0, 68, 91
1, 115317, Control_c, 0, 64, 91
1, 115331, Control_c, 0, 64, 127
1, 115348, Note_off_c, 0, 68, 65
1, 115539, Note_on_c, 0, 69, 85
1, 115577, Note_off_c, 0, 69, 67
1, 115658, Note_on_c, 0, 69, 90
1, 115694, Note_off_c, 0, 69, 66
1, 115730, Poly_aftertouch_c, 0, 69, 0
1, 115738, Note_on_c, 0, 69, 79
1, 115785, Note_off_c, 0, 69, 0
1, 115798, Note_on_c, 0, 69, 73
1, 115828, Note_off_c, 0, 69, 70
1, 115860, Poly_aftertouch_c, 0, 69, 0
1, 115866, Note_on_c, 0, 69, 90
1, 115882, Note_off_c, 0, 69, 74
1, 115938, Note_on_c, 0, 82, 106
1, 115974, Note_off_c, 0, 82, 70
1, 116102, Note_on_c, 0, 83, 98
1, 116131, Note_off_c, 0, 83, 70
1, 116287, Note_on_c, 0, 62, 93
1, 116302, Control_c, 0, 64, 96
1, 116317, Control_c, 0, 64, 74
1, 116331, Control_c, 0, 64, 57
1, 116346, Control_c, 0, 64, 51
1, 116361, Control_c, 0, 64, 64
1, 116376, Control_c, 0, 64, 76
1, 116391, Control_c, 0, 64, 93
1, 116406, Control_c, 0, 64, 127
1, 116425, Note_on_c, 0, 64, 84
1, 116439, Note_off_c, 0, 62, 48
1, 116517, Note_off_c, 0, 64, 66
1, 116531, Note_on_c, 0, 65, 90
1, 116575, Note_off_c, 0, 65, 68
1, 116612, Note_on_c, 0, 61, 89
1, 116688, Note_on_c, 0, 63, 84
1, 116704, Note_off_c, 0, 61, 59
1, 116767, Note_on_c, 0, 66, 86
1, 116788, Note_off_c, 0, 63, 59
1, 116838, Note_on_c, 0, 68, 80
1, 116899, Note_off_c, 0, 66, 55
1, 116911, Note_on_c, 0, 69, 84
1, 116936, Note_off_c, 0, 68, 65
1, 116952, Note_off_c, 0, 69, 67
1, 116977, Control_c, 0, 64, 99
1, 116983, Note_on_c, 0, 71, 95
1, 116992, Control_c, 0, 64, 70
1, 117007, Control_c, 0, 64, 0
1, 117065, Note_on_c, 0, 72, 85
1, 117066, Control_c, 0, 64, 29
1, 117081, Control_c, 0, 64, 64
1, 117096, Control_c, 0, 64, 73
1, 117110, Control_c, 0, 64, 84
1, 117112, Note_off_c, 0, 71, 62
1, 117125, Control_c, 0, 64, 101
1, 117130, Note_on_c, 0, 74, 89
1, 117140, Control_c, 0, 64, 127
1, 117175, Note_off_c, 0, 72, 64
1, 117182, Note_on_c, 0, 76, 88
1, 117202, Note_off_c, 0, 74, 67
1, 117228, Note_on_c, 0, 77, 91
1, 117230, Note_off_c, 0, 76, 68
1, 117281, Note_off_c, 0, 77, 65
1, 117282, Note_on_c, 0, 78, 110
1, 117318, Note_off_c, 0, 78, 67
1, 117519, Control_c, 0, 64, 84
1, 117533, Control_c, 0, 64, 66
1, 117548, Control_c, 0, 64, 56
1, 117555, Note_on_c, 0, 71, 99
1, 117563, Control_c, 0, 64, 64
1, 117577, Control_c, 0, 64, 74
1, 117592, Control_c, 0, 64, 92
1, 117607, Control_c, 0, 64, 127
1, 117640, Note_on_c, 0, 72, 85
1, 117680, Note_off_c, 0, 71, 61
1, 117701, Note_on_c, 0, 74, 90
1, 117744, Note_on_c, 0, 76, 94
1, 117745, Note_off_c, 0, 72, 66
1, 117768, Note_off_c, 0, 74, 68
1, 117806, Note_off_c, 0, 76, 66
1, 117809, Note_on_c, 0, 77, 96
1, 117851, Note_on_c, 0, 78, 108
1, 117862, Note_off_c, 0, 77, 66
1, 117899, Note_off_c, 0, 78, 60
1, 117992, Note_on_c, 0, 80, 103
1, 117992, Control_c, 0, 64, 82
1, 118002, Note_on_c, 0, 69, 92
1, 118007, Control_c, 0, 64, 61
1, 118022, Control_c, 0, 64, 0
1, 118096, Control_c, 0, 64, 36
1, 118111, Control_c, 0, 64, 67
1, 118127, Control_c, 0, 64, 81
1, 118138, Note_on_c, 0, 71, 95
1, 118141, Control_c, 0, 64, 106
1, 118156, Control_c, 0, 64, 127
1, 118183, Note_off_c, 0, 69, 55
1, 118217, Note_off_c, 0, 80, 60
1, 118281, Note_on_c, 0, 82, 107
1, 118346, Note_off_c, 0, 82, 57
1, 118449, Note_on_c, 0, 84, 106
1, 118488, Note_off_c, 0, 71, 63
1, 118710, Note_off_c, 0, 84, 59
1, 118736, Note_on_c, 0, 87, 115
1, 118744, Note_on_c, 0, 74, 102
1, 118773, Note_off_c, 0, 87, 71
1, 118787, Note_off_c, 0, 74, 70
1, 119065, Note_on_c, 0, 86, 113
1, 119073, Note_on_c, 0, 75, 93
1, 119101, Note_off_c, 0, 86, 72
1, 119104, Note_off_c, 0, 75, 67
1, 119190, Note_on_c, 0, 86, 111
1, 119222, Note_off_c, 0, 86, 71
1, 119281, Note_on_c, 0, 86, 107
1, 119323, Note_off_c, 0, 86, 72
1, 119385, Note_on_c, 0, 88, 106
1, 119393, Note_on_c, 0, 77, 111
1, 119420, Note_off_c, 0, 77, 71
1, 119550, Note_off_c, 0, 88, 50
1, 119809, Note_on_c, 0, 89, 118
1, 119810, Note_on_c, 0, 82, 117
1, 119810, Note_on_c, 0, 83, 108
1, 119836, Note_off_c, 0, 82, 70
1, 119850, Note_off_c, 0, 83, 69
1, 119858, Note_off_c, 0, 89, 66
1, 120648, Control_c, 0, 64, 120
1, 120663, Control_c, 0, 64, 101
1, 120677, Control_c, 0, 64, 85
1, 120692, Control_c, 0, 64, 67
1, 120703, Note_on_c, 0, 97, 108
1, 120707, Control_c, 0, 64, 0
1, 121047, Control_c, 0, 64, 48
1, 121062, Control_c, 0, 64, 67
1, 121077, Control_c, 0, 64, 74
1, 121092, Control_c, 0, 64, 79
1, 121107, Control_c, 0, 64, 85
1, 121121, Control_c, 0, 64, 92
1, 121136, Control_c, 0, 64, 104
1, 121151, Control_c, 0, 64, 127
1, 121486, Note_off_c, 0, 97, 49
1, 121644, Note_on_c, 0, 96, 107
1, 121891, Note_on_c, 0, 93, 101
1, 121927, Note_off_c, 0, 96, 58
1, 122040, Note_on_c, 0, 89, 102
1, 122153, Note_on_c, 0, 81, 96
1, 122183, Note_on_c, 0, 83, 40
1, 122201, Note_off_c, 0, 93, 62
1, 122207, Note_off_c, 0, 89, 59
1, 122214, Note_off_c, 0, 83, 37
1, 122243, Note_off_c, 0, 81, 62
1, 122250, Note_on_c, 0, 82, 97
1, 122315, Note_off_c, 0, 82, 62
1, 122334, Note_on_c, 0, 84, 93
1, 122402, Note_off_c, 0, 84, 66
1, 122414, Note_on_c, 0, 85, 101
1, 122446, Note_off_c, 0, 85, 69
1, 122481, Note_on_c, 0, 81, 90
1, 122538, Note_on_c, 0, 72, 86
1, 122603, Note_off_c, 0, 72, 68
1, 122606, Note_on_c, 0, 74, 100
1, 122610, Note_off_c, 0, 81, 63
1, 122639, Note_off_c, 0, 74, 70
1, 122681, Note_on_c, 0, 63, 94
1, 122747, Note_on_c, 0, 64, 91
1, 122767, Note_off_c, 0, 63, 44
1, 122794, Note_off_c, 0, 64, 69
1, 122801, Note_on_c, 0, 66, 96
1, 122829, Note_off_c, 0, 66, 69
1, 122875, Note_on_c, 0, 63, 86
1, 122906, Note_on_c, 0, 64, 66
1, 122936, Note_on_c, 0, 62, 73
1, 122947, Note_off_c, 0, 64, 63
1, 122955, Note_off_c, 0, 63, 56
1, 122998, Note_on_c, 0, 55, 94
1, 123020, Note_off_c, 0, 62, 63
1, 123037, Note_off_c, 0, 55, 67
1, 123052, Note_on_c, 0, 53, 94
1, 123095, Note_off_c, 0, 53, 70
1, 123121, Note_on_c, 0, 42, 102
1, 123141, Note_off_c, 0, 42, 72
1, 123165, Note_on_c, 0, 43, 34
1, 123197, Note_off_c, 0, 43, 0
1, 123208, Note_on_c, 0, 43, 78
1, 123235, Note_off_c, 0, 43, 68
1, 123294, Note_on_c, 0, 45, 99
1, 123339, Note_off_c, 0, 45, 67
1, 123373, Note_on_c, 0, 47, 97
1, 123379, Note_on_c, 0, 45, 64
1, 123398, Note_off_c, 0, 45, 68
1, 123449, Note_on_c, 0, 48, 85
1, 123463, Note_on_c, 0, 45, 27
1, 123464, Note_off_c, 0, 45, 127
1, 123496, Poly_aftertouch_c, 0, 45, 0
1, 123497, Note_off_c, 0, 47, 57
1, 123521, Note_on_c, 0, 50, 105
1, 123558, Note_off_c, 0, 48, 65
1, 123575, Note_off_c, 0, 50, 72
1, 123580, Note_on_c, 0, 39, 108
1, 123583, Note_on_c, 0, 28, 103
1, 124524, Control_c, 0, 67, 11
1, 124532, Poly_aftertouch_c, 0, 63, 127
1, 124539, Control_c, 0, 67, 16
1, 124554, Control_c, 0, 67, 24
1, 124568, Control_c, 0, 67, 32
1, 124578, Poly_aftertouch_c, 0, 62, 127
1, 124583, Control_c, 0, 67, 37
1, 124598, Control_c, 0, 67, 42
1, 124613, Control_c, 0, 67, 45
1, 124628, Control_c, 0, 67, 48
1, 124642, Control_c, 0, 67, 51
1, 124657, Control_c, 0, 67, 54
1, 124672, Control_c, 0, 67, 58
1, 124687, Control_c, 0, 67, 61
1, 124691, Note_off_c, 0, 28, 49
1, 124702, Control_c, 0, 67, 64
1, 124717, Control_c, 0, 67, 66
1, 124732, Control_c, 0, 67, 68
1, 124747, Control_c, 0, 67, 69
1, 124761, Control_c, 0, 67, 70
1, 124776, Control_c, 0, 67, 70
1, 124806, Control_c, 0, 67, 71
1, 124837, Note_off_c, 0, 39, 55
1, 124880, Control_c, 0, 67, 72
1, 124894, Control_c, 0, 64, 85
1, 124894, Control_c, 0, 67, 73
1, 124909, Control_c, 0, 64, 65
1, 124909, Control_c, 0, 67, 74
1, 124924, Control_c, 0, 64, 0
1, 124924, Control_c, 0, 67, 76
1, 124946, Control_c, 0, 67, 78
1, 124961, Control_c, 0, 67, 80
1, 124976, Control_c, 0, 67, 81
1, 124991, Control_c, 0, 67, 83
1, 125006, Control_c, 0, 67, 86
1, 125021, Control_c, 0, 67, 88
1, 125036, Control_c, 0, 67, 89
1, 125050, Control_c, 0, 67, 91
1, 125065, Control_c, 0, 67, 93
1, 125080, Control_c, 0, 67, 96
1, 125094, Control_c, 0, 67, 100
1, 125109, Control_c, 0, 67, 103
1, 125124, Control_c, 0, 67, 106
1, 125139, Control_c, 0, 67, 108
1, 125154, Control_c, 0, 67, 110
1, 125168, Control_c, 0, 67, 111
1, 125183, Control_c, 0, 67, 113
1, 125198, Control_c, 0, 67, 114
1, 125213, Control_c, 0, 67, 115
1, 125228, Control_c, 0, 67, 115
1, 125242, Control_c, 0, 67, 116
1, 125257, Control_c, 0, 67, 116
1, 125272, Control_c, 0, 67, 117
1, 125301, Control_c, 0, 67, 117
1, 125318, Control_c, 0, 67, 118
1, 125347, Control_c, 0, 67, 119
1, 125362, Control_c, 0, 67, 120
1, 125377, Control_c, 0, 67, 121
1, 125391, Control_c, 0, 67, 122
1, 125406, Control_c, 0, 67, 123
1, 125421, Control_c, 0, 67, 123
1, 125436, Control_c, 0, 67, 124
1, 125451, Control_c, 0, 67, 125
1, 125466, Control_c, 0, 67, 126
1, 125481, Control_c, 0, 67, 127
1, 125496, Control_c, 0, 67, 127
1, 126592, Note_on_c, 0, 55, 53
1, 126699, Note_off_c, 0, 55, 58
1, 126720, Note_on_c, 0, 57, 32
1, 126919, Control_c, 0, 64, 39
1, 126934, Control_c, 0, 64, 55
1, 126949, Control_c, 0, 64, 62
1, 126963, Control_c, 0, 64, 64
1, 126978, Control_c, 0, 64, 65
1, 126993, Control_c, 0, 64, 66
1, 127008, Control_c, 0, 64, 67
1, 127023, Control_c, 0, 64, 69
1, 127037, Control_c, 0, 64, 70
1, 127052, Control_c, 0, 64, 72
1, 127067, Control_c, 0, 64, 73
1, 127082, Control_c, 0, 64, 75
1, 127097, Control_c, 0, 64, 76
1, 127111, Control_c, 0, 64, 78
1, 127126, Control_c, 0, 64, 79
1, 127141, Control_c, 0, 64, 80
1, 127155, Control_c, 0, 64, 82
1, 127170, Control_c, 0, 64, 84
1, 127193, Control_c, 0, 64, 86
1, 127208, Control_c, 0, 64, 88
1, 127223, Control_c, 0, 64, 92
1, 127237, Control_c, 0, 64, 95
1, 127252, Control_c, 0, 64, 98
1, 127267, Control_c, 0, 64, 101
1, 127282, Control_c, 0, 64, 103
1, 127296, Control_c, 0, 64, 107
1, 127311, Control_c, 0, 64, 114
1, 127324, Note_off_c, 0, 57, 37
1, 127326, Control_c, 0, 64, 127
1, 128339, Note_on_c, 0, 55, 53
1, 128342, Control_c, 0, 64, 104
1, 128356, Control_c, 0, 64, 83
1, 128371, Control_c, 0, 64, 70
1, 128386, Control_c, 0, 64, 49
1, 128401, Control_c, 0, 64, 0
1, 128456, Note_off_c, 0, 55, 57
1, 128468, Note_on_c, 0, 57, 40
1, 128550, Control_c, 0, 64, 34
1, 128565, Control_c, 0, 64, 48
1, 128580, Control_c, 0, 64, 56
1, 128595, Control_c, 0, 64, 61
1, 128610, Control_c, 0, 64, 64
1, 128625, Control_c, 0, 64, 65
1, 128640, Control_c, 0, 64, 67
1, 128655, Control_c, 0, 64, 69
1, 128669, Control_c, 0, 64, 71
1, 128691, Control_c, 0, 64, 72
1, 128706, Control_c, 0, 64, 73
1, 128721, Control_c, 0, 64, 75
1, 128735, Control_c, 0, 64, 77
1, 128750, Control_c, 0, 64, 79
1, 128765, Control_c, 0, 64, 82
1, 128780, Control_c, 0, 64, 84
1, 128795, Control_c, 0, 64, 87
1, 128810, Control_c, 0, 64, 89
1, 128824, Control_c, 0, 64, 92
1, 128839, Control_c, 0, 64, 96
1, 128854, Control_c, 0, 64, 99
1, 128869, Control_c, 0, 64, 103
1, 128884, Control_c, 0, 64, 108
1, 128899, Control_c, 0, 64, 114
1, 128914, Control_c, 0, 64, 127
1, 129106, Note_off_c, 0, 57, 41
1, 129294, Poly_aftertouch_c, 0, 62, 0
1, 130063, Note_on_c, 0, 55, 58
1, 130068, Note_on_c, 0, 65, 49
1, 130079, Note_on_c, 0, 61, 51
1, 130091, Control_c, 0, 64, 106
1, 130106, Control_c, 0, 64, 93
1, 130121, Control_c, 0, 64, 81
1, 130130, Poly_aftertouch_c, 0, 63, 0
1, 130136, Control_c, 0, 64, 70
1, 130151, Control_c, 0, 64, 58
1, 130166, Control_c, 0, 64, 36
1, 130169, Note_off_c, 0, 55, 61
1, 130182, Note_on_c, 0, 57, 51
1, 130188, Control_c, 0, 64, 32
1, 130218, Control_c, 0, 64, 31
1, 130248, Control_c, 0, 64, 30
1, 130277, Control_c, 0, 64, 31
1, 130292, Control_c, 0, 64, 32
1, 130306, Control_c, 0, 64, 37
1, 130321, Control_c, 0, 64, 44
1, 130336, Control_c, 0, 64, 50
1, 130351, Control_c, 0, 64, 55
1, 130366, Control_c, 0, 64, 58
1, 130380, Control_c, 0, 64, 61
1, 130395, Control_c, 0, 64, 63
1, 130410, Control_c, 0, 64, 65
1, 130425, Control_c, 0, 64, 68
1, 130440, Control_c, 0, 64, 70
1, 130455, Control_c, 0, 64, 72
1, 130470, Control_c, 0, 64, 74
1, 130485, Control_c, 0, 64, 75
1, 130500, Control_c, 0, 64, 77
1, 130514, Control_c, 0, 64, 79
1, 130529, Control_c, 0, 64, 82
1, 130544, Control_c, 0, 64, 85
1, 130559, Control_c, 0, 64, 88
1, 130574, Control_c, 0, 64, 91
1, 130588, Control_c, 0, 64, 93
1, 130603, Control_c, 0, 64, 96
1, 130618, Control_c, 0, 64, 98
1, 130633, Control_c, 0, 64, 101
1, 130648, Control_c, 0, 64, 103
1, 130662, Control_c, 0, 64, 106
1, 130677, Control_c, 0, 64, 108
1, 130692, Control_c, 0, 64, 112
1, 130706, Control_c, 0, 64, 119
1, 130721, Control_c, 0, 64, 127
1, 130732, Note_on_c, 0, 66, 62
1, 130744, Note_off_c, 0, 65, 37
1, 130758, Note_on_c, 0, 59, 57
1, 130789, Note_off_c, 0, 61, 52
1, 130872, Note_off_c, 0, 57, 55
1, 130918, Note_off_c, 0, 59, 19
1, 131293, Control_c, 0, 64, 99
1, 131308, Control_c, 0, 64, 79
1, 131322, Control_c, 0, 64, 64
1, 131328, Note_off_c, 0, 66, 57
1, 131330, Note_on_c, 0, 70, 66
1, 131337, Note_on_c, 0, 55, 74
1, 131337, Control_c, 0, 64, 0
1, 131339, Note_on_c, 0, 59, 61
1, 131420, Note_off_c, 0, 59, 57
1, 131426, Control_c, 0, 64, 35
1, 131434, Note_off_c, 0, 55, 64
1, 131438, Note_on_c, 0, 57, 72
1, 131441, Control_c, 0, 64, 63
1, 131455, Control_c, 0, 64, 70
1, 131459, Note_off_c, 0, 70, 63
1, 131470, Control_c, 0, 64, 77
1, 131485, Control_c, 0, 64, 84
1, 131500, Control_c, 0, 64, 89
1, 131515, Control_c, 0, 64, 92
1, 131529, Control_c, 0, 64, 94
1, 131544, Control_c, 0, 64, 95
1, 131559, Control_c, 0, 64, 97
1, 131574, Control_c, 0, 64, 98
1, 131589, Control_c, 0, 64, 101
1, 131603, Control_c, 0, 64, 104
1, 131618, Control_c, 0, 64, 108
1, 131633, Control_c, 0, 64, 112
1, 131647, Control_c, 0, 64, 119
1, 131653, Note_on_c, 0, 75, 78
1, 131662, Control_c, 0, 64, 127
1, 131924, Note_on_c, 0, 59, 70
1, 131989, Note_off_c, 0, 57, 59
1, 132005, Note_on_c, 0, 77, 85
1, 132025, Note_off_c, 0, 75, 61
1, 132099, Note_on_c, 0, 74, 88
1, 132126, Note_off_c, 0, 59, 62
1, 132127, Note_off_c, 0, 77, 62
1, 132128, Note_on_c, 0, 60, 75
1, 132165, Note_on_c, 0, 70, 71
1, 132175, Note_on_c, 0, 71, 89
1, 132178, Note_off_c, 0, 74, 68
1, 132205, Control_c, 0, 64, 94
1, 132208, Note_off_c, 0, 70, 45
1, 132220, Note_off_c, 0, 71, 65
1, 132220, Control_c, 0, 64, 73
1, 132235, Control_c, 0, 64, 17
1, 132241, Note_on_c, 0, 63, 93
1, 132246, Note_off_c, 0, 60, 63
1, 132249, Control_c, 0, 64, 0
1, 132254, Note_on_c, 0, 62, 81
1, 132598, Control_c, 0, 64, 19
1, 132613, Control_c, 0, 64, 33
1, 132628, Control_c, 0, 64, 39
1, 132643, Control_c, 0, 64, 41
1, 132776, Control_c, 0, 64, 40
1, 132791, Control_c, 0, 64, 38
1, 132806, Control_c, 0, 64, 37
1, 132821, Control_c, 0, 64, 36
1, 132865, Control_c, 0, 64, 35
1, 133272, Control_c, 0, 64, 34
1, 133362, Control_c, 0, 64, 33
1, 133392, Control_c, 0, 64, 31
1, 133495, Control_c, 0, 64, 32
1, 133510, Control_c, 0, 64, 30
1, 133510, Control_c, 0, 67, 122
1, 133525, Control_c, 0, 64, 0
1, 133525, Control_c, 0, 67, 114
1, 133540, Control_c, 0, 67, 104
1, 133551, Note_on_c, 0, 55, 87
1, 133555, Control_c, 0, 67, 95
1, 133570, Control_c, 0, 67, 87
1, 133585, Control_c, 0, 67, 78
1, 133599, Control_c, 0, 67, 71
1, 133602, Note_off_c, 0, 55, 64
1, 133614, Control_c, 0, 67, 65
1, 133629, Control_c, 0, 67, 63
1, 133637, Note_on_c, 0, 57, 72
1, 133644, Control_c, 0, 67, 62
1, 133658, Control_c, 0, 67, 61
1, 133673, Control_c, 0, 67, 60
1, 133688, Control_c, 0, 67, 58
1, 133703, Control_c, 0, 67, 56
1, 133718, Control_c, 0, 67, 54
1, 133732, Control_c, 0, 67, 53
1, 133747, Control_c, 0, 67, 51
1, 133762, Control_c, 0, 67, 48
1, 133777, Control_c, 0, 67, 46
1, 133792, Control_c, 0, 64, 14
1, 133792, Control_c, 0, 67, 43
1, 133806, Control_c, 0, 64, 49
1, 133806, Control_c, 0, 67, 41
1, 133821, Control_c, 0, 64, 61
1, 133821, Control_c, 0, 67, 38
1, 133836, Control_c, 0, 64, 65
1, 133836, Control_c, 0, 67, 35
1, 133850, Control_c, 0, 64, 67
1, 133850, Control_c, 0, 67, 32
1, 133865, Control_c, 0, 64, 70
1, 133865, Control_c, 0, 67, 29
1, 133880, Control_c, 0, 64, 72
1, 133880, Control_c, 0, 67, 25
1, 133895, Control_c, 0, 64, 74
1, 133895, Control_c, 0, 67, 21
1, 133910, Control_c, 0, 64, 76
1, 133910, Control_c, 0, 67, 18
1, 133932, Control_c, 0, 64, 79
1, 133932, Control_c, 0, 67, 14
1, 133947, Control_c, 0, 64, 82
1, 133947, Control_c, 0, 67, 11
1, 133962, Control_c, 0, 64, 86
1, 133962, Control_c, 0, 67, 8
1, 133977, Control_c, 0, 64, 92
1, 133977, Control_c, 0, 67, 0
1, 133992, Control_c, 0, 64, 97
1, 134006, Control_c, 0, 64, 104
1, 134021, Control_c, 0, 64, 110
1, 134036, Control_c, 0, 64, 121
1, 134050, Control_c, 0, 64, 127
1, 134160, Note_off_c, 0, 57, 50
1, 134740, Control_c, 0, 64, 104
1, 134754, Control_c, 0, 64, 84
1, 134756, Note_on_c, 0, 55, 83
1, 134769, Control_c, 0, 64, 69
1, 134784, Control_c, 0, 64, 0
1, 134826, Note_off_c, 0, 55, 61
1, 134849, Note_on_c, 0, 57, 70
1, 134903, Control_c, 0, 64, 26
1, 134918, Control_c, 0, 64, 64
1, 134933, Control_c, 0, 64, 71
1, 134948, Control_c, 0, 64, 78
1, 134963, Control_c, 0, 64, 86
1, 134977, Control_c, 0, 64, 93
1, 134992, Control_c, 0, 64, 99
1, 135007, Control_c, 0, 64, 104
1, 135022, Control_c, 0, 64, 109
1, 135037, Control_c, 0, 64, 115
1, 135052, Control_c, 0, 64, 126
1, 135066, Control_c, 0, 64, 127
1, 135084, Note_off_c, 0, 57, 59
1, 135290, Control_c, 0, 64, 110
1, 135304, Control_c, 0, 64, 93
1, 135319, Control_c, 0, 64, 77
1, 135323, Note_on_c, 0, 55, 89
1, 135334, Control_c, 0, 64, 60
1, 135349, Control_c, 0, 64, 0
1, 135368, Note_off_c, 0, 55, 64
1, 135402, Note_on_c, 0, 57, 79
1, 135490, Control_c, 0, 64, 52
1, 135504, Control_c, 0, 64, 67
1, 135519, Control_c, 0, 64, 78
1, 135534, Control_c, 0, 64, 91
1, 135549, Control_c, 0, 64, 114
1, 135564, Control_c, 0, 64, 127
1, 135680, Note_off_c, 0, 62, 38
1, 135875, Control_c, 0, 64, 113
1, 135890, Control_c, 0, 64, 94
1, 135905, Control_c, 0, 64, 81
1, 135919, Control_c, 0, 64, 69
1, 135931, Note_on_c, 0, 64, 72
1, 135934, Control_c, 0, 64, 57
1, 135949, Note_off_c, 0, 63, 51
1, 135949, Control_c, 0, 64, 29
1, 135964, Control_c, 0, 64, 32
1, 135979, Control_c, 0, 64, 53
1, 135993, Control_c, 0, 64, 65
1, 136008, Control_c, 0, 64, 73
1, 136023, Control_c, 0, 64, 83
1, 136038, Control_c, 0, 64, 96
1, 136053, Control_c, 0, 64, 127
1, 136181, Note_off_c, 0, 57, 50
1, 136407, Note_on_c, 0, 67, 64
1, 136507, Note_off_c, 0, 64, 53
1, 136549, Note_on_c, 0, 69, 73
1, 136608, Note_off_c, 0, 67, 53
1, 136659, Note_on_c, 0, 71, 74
1, 136695, Note_off_c, 0, 69, 56
1, 136766, Note_on_c, 0, 59, 67
1, 136769, Note_on_c, 0, 72, 76
1, 136789, Note_off_c, 0, 71, 60
1, 136839, Note_off_c, 0, 72, 59
1, 136870, Note_off_c, 0, 59, 39
1, 136874, Note_on_c, 0, 57, 78
1, 136990, Note_on_c, 0, 55, 84
1, 136998, Note_off_c, 0, 57, 61
1, 137046, Note_off_c, 0, 55, 62
1, 137093, Note_on_c, 0, 53, 87
1, 137168, Note_on_c, 0, 74, 90
1, 137178, Control_c, 0, 64, 112
1, 137193, Control_c, 0, 64, 86
1, 137207, Control_c, 0, 64, 75
1, 137215, Note_off_c, 0, 53, 63
1, 137222, Control_c, 0, 64, 71
1, 137237, Control_c, 0, 64, 73
1, 137252, Control_c, 0, 64, 80
1, 137264, Note_on_c, 0, 52, 86
1, 137265, Note_on_c, 0, 75, 90
1, 137266, Control_c, 0, 64, 93
1, 137278, Note_off_c, 0, 74, 66
1, 137281, Control_c, 0, 64, 127
1, 137302, Note_off_c, 0, 52, 63
1, 137308, Note_off_c, 0, 75, 65
1, 137460, Control_c, 0, 64, 100
1, 137475, Control_c, 0, 64, 78
1, 137487, Note_on_c, 0, 50, 82
1, 137490, Control_c, 0, 64, 70
1, 137494, Note_on_c, 0, 76, 85
1, 137505, Control_c, 0, 64, 72
1, 137520, Control_c, 0, 64, 81
1, 137535, Control_c, 0, 64, 100
1, 137550, Note_on_c, 0, 77, 83
1, 137550, Control_c, 0, 64, 127
1, 137552, Note_off_c, 0, 50, 61
1, 137555, Note_on_c, 0, 48, 84
1, 137558, Note_off_c, 0, 76, 63
1, 137595, Note_on_c, 0, 79, 81
1, 137623, Note_on_c, 0, 47, 70
1, 137624, Note_off_c, 0, 48, 63
1, 137624, Control_c, 0, 64, 108
1, 137636, Note_on_c, 0, 81, 71
1, 137638, Control_c, 0, 64, 92
1, 137651, Note_off_c, 0, 77, 35
1, 137653, Control_c, 0, 64, 88
1, 137668, Note_off_c, 0, 79, 63
1, 137669, Note_on_c, 0, 45, 67
1, 137670, Note_off_c, 0, 47, 66
1, 137675, Control_c, 0, 64, 89
1, 137676, Note_on_c, 0, 43, 82
1, 137683, Note_on_c, 0, 83, 86
1, 137690, Control_c, 0, 64, 97
1, 137695, Note_off_c, 0, 45, 66
1, 137696, Note_off_c, 0, 81, 63
1, 137702, Note_off_c, 0, 43, 68
1, 137705, Control_c, 0, 64, 113
1, 137715, Note_off_c, 0, 83, 67
1, 137719, Control_c, 0, 64, 127
1, 137741, Note_on_c, 0, 84, 86
1, 137744, Note_on_c, 0, 83, 85
1, 137747, Note_on_c, 0, 42, 102
1, 137768, Note_off_c, 0, 42, 71
1, 137770, Note_off_c, 0, 84, 65
1, 137773, Note_off_c, 0, 83, 65
1, 137867, Poly_aftertouch_c, 0, 42, 127
1, 137880, Poly_aftertouch_c, 0, 42, 0
1, 137912, Control_c, 0, 64, 96
1, 137927, Control_c, 0, 64, 64
1, 137942, Control_c, 0, 64, 0
1, 138224, Note_on_c, 0, 62, 74
1, 138226, Note_on_c, 0, 55, 71
1, 138227, Note_on_c, 0, 63, 73
1, 138239, Control_c, 0, 64, 49
1, 138254, Control_c, 0, 64, 66
1, 138269, Control_c, 0, 64, 73
1, 138284, Control_c, 0, 64, 79
1, 138289, Note_off_c, 0, 55, 63
1, 138299, Control_c, 0, 64, 85
1, 138313, Control_c, 0, 64, 90
1, 138315, Note_on_c, 0, 57, 74
1, 138328, Control_c, 0, 64, 96
1, 138339, Note_off_c, 0, 57, 68
1, 138343, Control_c, 0, 64, 101
1, 138358, Control_c, 0, 64, 106
1, 138373, Control_c, 0, 64, 113
1, 138387, Control_c, 0, 64, 126
1, 138402, Control_c, 0, 64, 127
1, 138646, Control_c, 0, 64, 101
1, 138661, Control_c, 0, 64, 81
1, 138676, Control_c, 0, 64, 63
1, 138691, Control_c, 0, 64, 0
1, 138697, Note_on_c, 0, 55, 91
1, 138736, Control_c, 0, 64, 57
1, 138751, Control_c, 0, 64, 70
1, 138760, Note_off_c, 0, 55, 63
1, 138766, Control_c, 0, 64, 81
1, 138781, Control_c, 0, 64, 96
1, 138785, Note_on_c, 0, 57, 85
1, 138795, Control_c, 0, 64, 127
1, 138816, Note_off_c, 0, 57, 63
1, 139107, Control_c, 0, 64, 96
1, 139122, Control_c, 0, 64, 72
1, 139136, Control_c, 0, 64, 11
1, 139147, Note_on_c, 0, 55, 101
1, 139151, Control_c, 0, 64, 0
1, 139189, Control_c, 0, 64, 62
1, 139204, Control_c, 0, 64, 76
1, 139204, Note_off_c, 0, 55, 60
1, 139218, Control_c, 0, 64, 97
1, 139233, Control_c, 0, 64, 127
1, 139239, Note_on_c, 0, 57, 97
1, 139275, Note_off_c, 0, 57, 67
1, 139325, Note_off_c, 0, 63, 38
1, 139358, Note_off_c, 0, 62, 54
1, 139683, Note_on_c, 0, 63, 88
1, 139691, Note_on_c, 0, 62, 78
1, 139693, Control_c, 0, 64, 102
1, 139708, Control_c, 0, 64, 80
1, 139723, Control_c, 0, 64, 63
1, 139737, Note_on_c, 0, 55, 63
1, 139738, Control_c, 0, 64, 0
1, 139827, Control_c, 0, 64, 61
1, 139841, Control_c, 0, 64, 71
1, 139856, Control_c, 0, 64, 85
1, 139871, Control_c, 0, 64, 105
1, 139885, Control_c, 0, 64, 127
1, 139901, Note_off_c, 0, 55, 60
1, 139906, Note_on_c, 0, 57, 54
1, 140018, Note_off_c, 0, 57, 58
1, 140045, Note_on_c, 0, 55, 55
1, 140079, Note_off_c, 0, 55, 61
1, 140136, Note_on_c, 0, 57, 55
1, 140185, Note_off_c, 0, 57, 53
1, 140216, Note_on_c, 0, 55, 51
1, 140250, Note_off_c, 0, 55, 64
1, 140298, Note_on_c, 0, 57, 55
1, 140333, Note_off_c, 0, 57, 64
1, 140350, Note_on_c, 0, 55, 50
1, 140393, Note_off_c, 0, 55, 62
1, 140415, Note_on_c, 0, 57, 57
1, 140454, Note_off_c, 0, 57, 58
1, 140496, Note_on_c, 0, 55, 51
1, 140518, Note_off_c, 0, 55, 62
1, 140545, Note_on_c, 0, 57, 54
1, 140577, Note_off_c, 0, 57, 62
1, 140587, Note_on_c, 0, 55, 64
1, 140593, Poly_aftertouch_c, 0, 48, 127
1, 140624, Note_off_c, 0, 55, 63
1, 140668, Note_on_c, 0, 57, 62
1, 140702, Note_off_c, 0, 57, 64
1, 140711, Note_on_c, 0, 55, 65
1, 140737, Note_off_c, 0, 55, 66
1, 140781, Note_on_c, 0, 57, 68
1, 140817, Note_off_c, 0, 57, 63
1, 140825, Note_on_c, 0, 55, 68
1, 140857, Note_off_c, 0, 55, 63
1, 140884, Note_on_c, 0, 57, 75
1, 140928, Note_off_c, 0, 57, 60
1, 140929, Note_on_c, 0, 55, 69
1, 140970, Note_off_c, 0, 55, 60
1, 140992, Note_on_c, 0, 57, 70
1, 141040, Note_off_c, 0, 57, 62
1, 141046, Note_on_c, 0, 55, 67
1, 141076, Note_off_c, 0, 55, 64
1, 141103, Note_on_c, 0, 57, 76
1, 141150, Note_off_c, 0, 57, 63
1, 141153, Note_on_c, 0, 55, 73
1, 141189, Note_off_c, 0, 55, 63
1, 141210, Note_on_c, 0, 57, 77
1, 141255, Note_off_c, 0, 57, 64
1, 141263, Note_on_c, 0, 55, 74
1, 141302, Note_off_c, 0, 55, 60
1, 141322, Note_on_c, 0, 57, 84
1, 141369, Note_off_c, 0, 57, 65
1, 141374, Note_on_c, 0, 55, 74
1, 141428, Note_off_c, 0, 63, 60
1, 141436, Note_off_c, 0, 55, 62
1, 141446, Note_on_c, 0, 57, 82
1, 141459, Note_on_c, 0, 65, 96
1, 141468, Note_on_c, 0, 61, 88
1, 141493, Note_off_c, 0, 62, 62
1, 141495, Note_off_c, 0, 57, 63
1, 141497, Note_on_c, 0, 55, 68
1, 141544, Note_off_c, 0, 55, 60
1, 141559, Note_on_c, 0, 57, 79
1, 141606, Note_off_c, 0, 57, 64
1, 141612, Note_on_c, 0, 55, 68
1, 141655, Note_off_c, 0, 55, 61
1, 141672, Note_on_c, 0, 57, 81
1, 141718, Note_off_c, 0, 57, 63
1, 141725, Note_on_c, 0, 55, 74
1, 141726, Poly_aftertouch_c, 0, 48, 0
1, 141763, Note_off_c, 0, 55, 62
1, 141763, Poly_aftertouch_c, 0, 48, 127
1, 141780, Note_on_c, 0, 57, 85
1, 141824, Poly_aftertouch_c, 0, 48, 0
1, 141830, Note_on_c, 0, 55, 82
1, 141831, Note_off_c, 0, 57, 63
1, 141861, Poly_aftertouch_c, 0, 48, 127
1, 141882, Note_off_c, 0, 55, 64
1, 141887, Note_on_c, 0, 57, 86
1, 141920, Poly_aftertouch_c, 0, 48, 0
1, 141944, Note_on_c, 0, 55, 86
1, 141952, Note_off_c, 0, 57, 62
1, 142001, Note_off_c, 0, 55, 64
1, 142007, Note_on_c, 0, 57, 85
1, 142066, Note_off_c, 0, 57, 58
1, 142068, Note_on_c, 0, 55, 92
1, 142068, Note_on_c, 0, 59, 103
1, 142068, Note_on_c, 0, 70, 99
1, 142092, Note_off_c, 0, 65, 59
1, 142102, Note_off_c, 0, 61, 64
1, 142118, Note_off_c, 0, 55, 63
1, 142132, Note_on_c, 0, 57, 89
1, 142176, Note_off_c, 0, 59, 37
1, 142190, Note_off_c, 0, 57, 62
1, 142198, Note_on_c, 0, 55, 84
1, 142247, Note_off_c, 0, 55, 66
1, 142253, Note_on_c, 0, 57, 87
1, 142318, Note_on_c, 0, 55, 86
1, 142318, Note_off_c, 0, 57, 62
1, 142384, Note_on_c, 0, 57, 78
1, 142420, Note_off_c, 0, 55, 65
1, 142480, Note_off_c, 0, 57, 66
1, 142490, Note_off_c, 0, 70, 61
1, 142514, Note_on_c, 0, 72, 109
1, 142516, Note_on_c, 0, 56, 111
1, 142526, Note_on_c, 0, 57, 54
1, 142545, Note_off_c, 0, 57, 67
1, 142548, Note_off_c, 0, 56, 72
1, 142864, Note_on_c, 0, 74, 107
1, 142867, Note_on_c, 0, 54, 105
1, 142884, Note_off_c, 0, 72, 62
1, 142913, Note_off_c, 0, 54, 68
1, 143025, Note_on_c, 0, 76, 104
1, 143047, Note_off_c, 0, 74, 67
1, 143180, Note_on_c, 0, 77, 100
1, 143183, Note_on_c, 0, 52, 95
1, 143198, Note_off_c, 0, 76, 63
1, 143249, Note_off_c, 0, 52, 64
1, 143258, Note_off_c, 0, 77, 61
1, 143310, Note_on_c, 0, 50, 98
1, 143365, Note_off_c, 0, 50, 69
1, 143407, Note_on_c, 0, 48, 98
1, 143459, Note_off_c, 0, 48, 60
1, 143493, Note_on_c, 0, 46, 93
1, 143541, Poly_aftertouch_c, 0, 48, 127
1, 143547, Note_on_c, 0, 47, 37
1, 143574, Poly_aftertouch_c, 0, 48, 0
1, 143575, Note_on_c, 0, 45, 95
1, 143575, Note_off_c, 0, 47, 59
1, 143580, Note_off_c, 0, 46, 59
1, 143611, Note_off_c, 0, 45, 67
1, 143683, Note_on_c, 0, 79, 102
1, 143700, Note_on_c, 0, 43, 98
1, 143751, Note_off_c, 0, 79, 61
1, 143806, Note_on_c, 0, 81, 104
1, 143812, Note_on_c, 0, 42, 91
1, 143835, Note_off_c, 0, 43, 61
1, 143866, Note_off_c, 0, 81, 56
1, 143870, Note_off_c, 0, 42, 62
1, 143888, Note_on_c, 0, 83, 96
1, 143912, Note_on_c, 0, 40, 84
1, 143928, Note_on_c, 0, 41, 47
1, 143959, Note_on_c, 0, 84, 93
1, 143964, Note_off_c, 0, 40, 64
1, 143965, Note_off_c, 0, 83, 68
1, 143965, Note_off_c, 0, 41, 54
1, 143989, Note_off_c, 0, 84, 68
1, 144006, Note_on_c, 0, 87, 40
1, 144007, Note_off_c, 0, 87, 127
1, 144027, Note_on_c, 0, 37, 98
1, 144030, Note_on_c, 0, 85, 98
1, 144072, Note_off_c, 0, 37, 65
1, 144079, Note_off_c, 0, 85, 68
1, 144097, Note_on_c, 0, 87, 91
1, 144100, Note_on_c, 0, 86, 69
1, 144114, Note_on_c, 0, 35, 89
1, 144117, Note_off_c, 0, 86, 67
1, 144158, Note_on_c, 0, 88, 34
1, 144161, Note_on_c, 0, 89, 92
1, 144181, Poly_aftertouch_c, 0, 36, 127
1, 144186, Note_off_c, 0, 87, 58
1, 144189, Note_off_c, 0, 88, 53
1, 144206, Note_on_c, 0, 34, 95
1, 144210, Note_off_c, 0, 35, 69
1, 144230, Poly_aftertouch_c, 0, 36, 0
1, 144236, Note_on_c, 0, 90, 92
1, 144246, Note_off_c, 0, 34, 64
1, 144251, Note_off_c, 0, 89, 64
1, 144274, Note_off_c, 0, 90, 67
1, 144307, Note_on_c, 0, 91, 102
1, 144322, Note_on_c, 0, 32, 106
1, 144323, Note_on_c, 0, 93, 71
1, 144340, Note_off_c, 0, 93, 44
1, 144347, Note_off_c, 0, 91, 69
1, 144367, Note_off_c, 0, 32, 65
1, 144389, Note_on_c, 0, 93, 110
1, 144399, Note_on_c, 0, 27, 3
1, 144441, Note_off_c, 0, 93, 72
1, 144444, Note_on_c, 0, 30, 94
1, 144453, Note_off_c, 0, 27, 47
1, 144487, Note_on_c, 0, 95, 107
1, 144496, Note_off_c, 0, 30, 62
1, 144518, Note_on_c, 0, 29, 73
1, 144519, Note_on_c, 0, 28, 75
1, 144544, Note_off_c, 0, 28, 63
1, 144544, Note_off_c, 0, 29, 65
1, 144566, Note_off_c, 0, 95, 66
1, 144594, Poly_aftertouch_c, 0, 96, 127
1, 144638, Control_c, 0, 64, 91
1, 144652, Poly_aftertouch_c, 0, 96, 0
1, 144653, Control_c, 0, 64, 50
1, 144668, Control_c, 0, 64, 0
1, 144674, Note_on_c, 0, 38, 109
1, 144675, Note_on_c, 0, 26, 108
1, 144675, Note_on_c, 0, 33, 103
1, 144675, Note_on_c, 0, 97, 109
1, 144677, Note_on_c, 0, 85, 112
1, 144682, Control_c, 0, 64, 58
1, 144686, Note_on_c, 0, 96, 45
1, 144687, Note_off_c, 0, 96, 55
1, 144697, Control_c, 0, 64, 83
1, 144698, Note_off_c, 0, 97, 73
1, 144701, Note_off_c, 0, 85, 68
1, 144704, Note_off_c, 0, 33, 64
1, 144711, Note_off_c, 0, 38, 68
1, 144712, Control_c, 0, 64, 127
1, 144731, Note_off_c, 0, 26, 60
1, 144735, Note_on_c, 0, 30, 18
1, 144775, Note_off_c, 0, 30, 55
1, 145181, Note_on_c, 0, 68, 112
1, 145190, Note_on_c, 0, 55, 119
1, 145223, Note_off_c, 0, 68, 70
1, 145976, Note_off_c, 0, 55, 65
1, 146006, Note_on_c, 0, 56, 107
1, 146013, Note_on_c, 0, 69, 114
1, 146042, Note_off_c, 0, 56, 71
1, 146528, Note_off_c, 0, 69, 62
1, 146556, Note_on_c, 0, 70, 104
1, 146561, Note_on_c, 0, 57, 108
1, 146595, Note_off_c, 0, 70, 69
1, 146993, Note_off_c, 0, 57, 65
1, 147028, Note_on_c, 0, 71, 116
1, 147030, Note_on_c, 0, 58, 109
1, 147067, Note_off_c, 0, 58, 71
1, 147071, Note_off_c, 0, 71, 69
1, 147356, Note_on_c, 0, 87, 111
1, 147748, Note_on_c, 0, 59, 100
1, 147749, Note_on_c, 0, 46, 99
1, 147752, Control_c, 0, 64, 86
1, 147767, Control_c, 0, 64, 58
1, 147781, Control_c, 0, 64, 0
1, 147885, Control_c, 0, 64, 57
1, 147899, Control_c, 0, 64, 70
1, 147914, Control_c, 0, 64, 81
1, 147930, Control_c, 0, 64, 98
1, 147945, Control_c, 0, 64, 127
1, 148082, Note_off_c, 0, 59, 49
1, 148310, Note_off_c, 0, 46, 58
1, 148350, Note_on_c, 0, 61, 87
1, 148418, Note_off_c, 0, 61, 57
1, 148547, Note_off_c, 0, 87, 58
1, 148623, Note_on_c, 0, 74, 98
1, 148663, Note_off_c, 0, 74, 66
1, 148739, Poly_aftertouch_c, 0, 80, 0
1, 148841, Control_c, 0, 64, 108
1, 148856, Control_c, 0, 64, 84
1, 148871, Control_c, 0, 64, 76
1, 148874, Note_on_c, 0, 46, 81
1, 148877, Note_on_c, 0, 59, 98
1, 148886, Control_c, 0, 64, 83
1, 148908, Control_c, 0, 64, 108
1, 148923, Control_c, 0, 64, 127
1, 149116, Note_off_c, 0, 59, 63
1, 149145, Note_on_c, 0, 88, 109
1, 149318, Note_off_c, 0, 46, 60
1, 149401, Note_on_c, 0, 61, 97
1, 149440, Note_off_c, 0, 61, 65
1, 149814, Note_on_c, 0, 66, 86
1, 149819, Control_c, 0, 64, 110
1, 149834, Control_c, 0, 64, 77
1, 149839, Note_off_c, 0, 88, 51
1, 149846, Note_off_c, 0, 66, 58
1, 149849, Control_c, 0, 64, 58
1, 149864, Control_c, 0, 64, 35
1, 149878, Control_c, 0, 64, 60
1, 149882, Note_on_c, 0, 74, 87
1, 149893, Control_c, 0, 64, 70
1, 149894, Note_on_c, 0, 66, 58
1, 149908, Control_c, 0, 64, 83
1, 149909, Note_on_c, 0, 65, 82
1, 149915, Note_off_c, 0, 66, 49
1, 149923, Control_c, 0, 64, 110
1, 149938, Control_c, 0, 64, 127
1, 150066, Note_off_c, 0, 65, 51
1, 150080, Note_off_c, 0, 74, 58
1, 150122, Note_on_c, 0, 54, 83
1, 150151, Note_off_c, 0, 54, 66
1, 150184, Note_on_c, 0, 76, 88
1, 150222, Note_off_c, 0, 76, 63
1, 150251, Note_on_c, 0, 76, 79
1, 150287, Note_off_c, 0, 76, 66
1, 150357, Note_on_c, 0, 79, 100
1, 150377, Note_on_c, 0, 66, 88
1, 150402, Note_off_c, 0, 79, 67
1, 150431, Note_on_c, 0, 79, 90
1, 150455, Note_off_c, 0, 66, 61
1, 150457, Note_on_c, 0, 65, 92
1, 150616, Note_off_c, 0, 65, 58
1, 150662, Note_on_c, 0, 54, 90
1, 150677, Note_off_c, 0, 79, 62
1, 150701, Note_off_c, 0, 54, 64
1, 150736, Note_on_c, 0, 80, 95
1, 150781, Note_off_c, 0, 80, 63
1, 150871, Note_on_c, 0, 66, 96
1, 150909, Note_off_c, 0, 66, 67
1, 150934, Note_on_c, 0, 82, 106
1, 150962, Note_on_c, 0, 65, 94
1, 151011, Note_on_c, 0, 71, 99
1, 151043, Note_off_c, 0, 82, 62
1, 151044, Note_off_c, 0, 71, 67
1, 151087, Note_off_c, 0, 65, 48
1, 151153, Note_on_c, 0, 54, 94
1, 151183, Note_off_c, 0, 54, 69
1, 151318, Note_on_c, 0, 84, 106
1, 151358, Note_off_c, 0, 84, 70
1, 151390, Control_c, 0, 64, 81
1, 151405, Control_c, 0, 64, 0
1, 151406, Note_on_c, 0, 86, 104
1, 151423, Note_on_c, 0, 61, 111
1, 151428, Note_on_c, 0, 48, 95
1, 151449, Control_c, 0, 64, 47
1, 151462, Note_off_c, 0, 86, 67
1, 151464, Control_c, 0, 64, 73
1, 151479, Control_c, 0, 64, 93
1, 151494, Control_c, 0, 64, 127
1, 151533, Note_on_c, 0, 86, 103
1, 151707, Note_off_c, 0, 61, 58
1, 151741, Note_off_c, 0, 48, 47
1, 151781, Note_on_c, 0, 90, 106
1, 151789, Note_off_c, 0, 86, 65
1, 151825, Note_off_c, 0, 90, 67
1, 151888, Note_on_c, 0, 63, 98
1, 151934, Note_on_c, 0, 56, 30
1, 151947, Note_off_c, 0, 63, 62
1, 151970, Note_off_c, 0, 56, 54
1, 152080, Control_c, 0, 64, 113
1, 152095, Control_c, 0, 64, 79
1, 152110, Control_c, 0, 64, 63
1, 152125, Control_c, 0, 64, 58
1, 152140, Control_c, 0, 64, 68
1, 152149, Note_on_c, 0, 48, 76
1, 152151, Note_on_c, 0, 74, 97
1, 152153, Note_on_c, 0, 61, 105
1, 152154, Control_c, 0, 64, 83
1, 152169, Control_c, 0, 64, 127
1, 152195, Note_off_c, 0, 74, 68
1, 152288, Note_on_c, 0, 76, 93
1, 152305, Note_off_c, 0, 76, 72
1, 152354, Note_on_c, 0, 76, 98
1, 152362, Note_off_c, 0, 61, 58
1, 152368, Note_off_c, 0, 48, 60
1, 152402, Note_off_c, 0, 76, 60
1, 152416, Note_on_c, 0, 77, 102
1, 152585, Note_on_c, 0, 78, 96
1, 152606, Note_off_c, 0, 77, 58
1, 152632, Note_off_c, 0, 78, 65
1, 152676, Note_on_c, 0, 63, 89
1, 152681, Note_on_c, 0, 80, 95
1, 152710, Note_off_c, 0, 63, 59
1, 152718, Note_off_c, 0, 80, 65
1, 152797, Note_on_c, 0, 80, 91
1, 152821, Note_off_c, 0, 80, 60
1, 152881, Note_on_c, 0, 83, 84
1, 152887, Poly_aftertouch_c, 0, 65, 127
1, 152918, Control_c, 0, 64, 113
1, 152922, Poly_aftertouch_c, 0, 65, 0
1, 152933, Control_c, 0, 64, 84
1, 152947, Control_c, 0, 64, 66
1, 152962, Control_c, 0, 64, 0
1, 152964, Note_off_c, 0, 83, 63
1, 152992, Control_c, 0, 64, 53
1, 153001, Note_on_c, 0, 84, 84
1, 153007, Control_c, 0, 64, 68
1, 153011, Note_on_c, 0, 65, 89
1, 153013, Note_on_c, 0, 64, 77
1, 153021, Control_c, 0, 64, 81
1, 153036, Control_c, 0, 64, 101
1, 153051, Note_off_c, 0, 84, 65
1, 153051, Control_c, 0, 64, 127
1, 153144, Note_off_c, 0, 65, 64
1, 153147, Note_on_c, 0, 84, 82
1, 153184, Note_off_c, 0, 84, 62
1, 153249, Note_on_c, 0, 84, 77
1, 153308, Note_off_c, 0, 84, 62
1, 153365, Note_on_c, 0, 86, 86
1, 153376, Note_on_c, 0, 66, 100
1, 153413, Note_off_c, 0, 86, 67
1, 153414, Note_off_c, 0, 64, 64
1, 153476, Note_on_c, 0, 86, 90
1, 153514, Note_off_c, 0, 86, 68
1, 153557, Note_off_c, 0, 66, 58
1, 153574, Note_on_c, 0, 86, 92
1, 153617, Note_off_c, 0, 86, 65
1, 153669, Note_on_c, 0, 88, 95
1, 153670, Note_on_c, 0, 55, 95
1, 153708, Note_off_c, 0, 88, 66
1, 153768, Note_on_c, 0, 88, 94
1, 153801, Note_off_c, 0, 88, 67
1, 153852, Note_on_c, 0, 88, 96
1, 153906, Note_off_c, 0, 88, 59
1, 153919, Note_off_c, 0, 55, 57
1, 153957, Note_on_c, 0, 68, 103
1, 153968, Note_on_c, 0, 75, 82
1, 153968, Poly_aftertouch_c, 0, 58, 127
1, 154001, Poly_aftertouch_c, 0, 58, 0
1, 154046, Note_off_c, 0, 68, 36
1, 154094, Note_on_c, 0, 77, 92
1, 154116, Note_off_c, 0, 75, 64
1, 154151, Note_off_c, 0, 77, 64
1, 154266, Note_on_c, 0, 70, 106
1, 154293, Note_on_c, 0, 63, 43
1, 154332, Note_off_c, 0, 63, 48
1, 154395, Note_off_c, 0, 70, 58
1, 154475, Note_on_c, 0, 57, 88
1, 154572, Note_on_c, 0, 92, 102
1, 154584, Note_off_c, 0, 57, 58
1, 154639, Note_on_c, 0, 59, 95
1, 154677, Note_off_c, 0, 59, 68
1, 154770, Note_off_c, 0, 92, 36
1, 154816, Control_c, 0, 64, 112
1, 154824, Note_on_c, 0, 73, 101
1, 154831, Control_c, 0, 64, 81
1, 154846, Control_c, 0, 64, 65
1, 154862, Control_c, 0, 64, 63
1, 154864, Note_off_c, 0, 73, 68
1, 154877, Control_c, 0, 64, 72
1, 154898, Control_c, 0, 64, 91
1, 154904, Note_on_c, 0, 91, 101
1, 154913, Control_c, 0, 64, 127
1, 154928, Note_on_c, 0, 72, 97
1, 154931, Note_on_c, 0, 71, 97
1, 154973, Note_off_c, 0, 72, 65
1, 155030, Note_off_c, 0, 71, 61
1, 155033, Note_on_c, 0, 84, 94
1, 155055, Note_on_c, 0, 59, 33
1, 155084, Note_off_c, 0, 91, 64
1, 155086, Note_off_c, 0, 59, 0
1, 155097, Note_off_c, 0, 84, 61
1, 155099, Note_on_c, 0, 59, 64
1, 155107, Note_on_c, 0, 60, 83
1, 155126, Note_on_c, 0, 87, 99
1, 155165, Note_off_c, 0, 59, 55
1, 155188, Note_off_c, 0, 87, 63
1, 155206, Note_on_c, 0, 88, 98
1, 155280, Note_on_c, 0, 89, 96
1, 155300, Note_off_c, 0, 88, 60
1, 155375, Note_on_c, 0, 73, 102
1, 155376, Note_on_c, 0, 90, 99
1, 155380, Note_off_c, 0, 60, 63
1, 155382, Poly_aftertouch_c, 0, 61, 127
1, 155390, Note_off_c, 0, 89, 60
1, 155419, Note_off_c, 0, 73, 66
1, 155442, Note_off_c, 0, 90, 66
1, 155445, Poly_aftertouch_c, 0, 61, 0
1, 155494, Note_on_c, 0, 79, 102
1, 155531, Note_off_c, 0, 79, 68
1, 155602, Note_on_c, 0, 74, 105
1, 155614, Note_on_c, 0, 79, 100
1, 155657, Note_off_c, 0, 74, 69
1, 155671, Note_off_c, 0, 79, 66
1, 155717, Note_on_c, 0, 81, 102
1, 155761, Note_off_c, 0, 81, 69
1, 155813, Note_on_c, 0, 82, 100
1, 155814, Note_on_c, 0, 74, 106
1, 155849, Note_off_c, 0, 82, 69
1, 155852, Note_off_c, 0, 74, 71
1, 155912, Note_on_c, 0, 87, 101
1, 155954, Note_off_c, 0, 87, 67
1, 156017, Control_c, 0, 64, 97
1, 156032, Control_c, 0, 64, 74
1, 156037, Note_on_c, 0, 87, 106
1, 156039, Note_on_c, 0, 74, 107
1, 156044, Note_on_c, 0, 61, 97
1, 156046, Control_c, 0, 64, 66
1, 156058, Note_on_c, 0, 72, 70
1, 156061, Control_c, 0, 64, 74
1, 156076, Control_c, 0, 64, 101
1, 156091, Note_off_c, 0, 87, 67
1, 156091, Control_c, 0, 64, 127
1, 156128, Poly_aftertouch_c, 0, 60, 127
1, 156168, Note_on_c, 0, 89, 108
1, 156171, Poly_aftertouch_c, 0, 60, 0
1, 156192, Note_off_c, 0, 72, 43
1, 156207, Note_off_c, 0, 61, 37
1, 156209, Note_off_c, 0, 89, 67
1, 156284, Note_on_c, 0, 89, 111
1, 156312, Note_on_c, 0, 61, 96
1, 156326, Note_off_c, 0, 89, 67
1, 156414, Note_on_c, 0, 89, 111
1, 156546, Note_on_c, 0, 83, 106
1, 156589, Note_off_c, 0, 89, 62
1, 156593, Note_off_c, 0, 61, 55
1, 156609, Note_off_c, 0, 74, 59
1, 156614, Note_off_c, 0, 83, 61
1, 156695, Note_on_c, 0, 84, 102
1, 156736, Note_off_c, 0, 84, 70
1, 156800, Note_on_c, 0, 75, 102
1, 156830, Note_on_c, 0, 70, 40
1, 156860, Note_off_c, 0, 70, 56
1, 156870, Note_on_c, 0, 85, 113
1, 156894, Note_off_c, 0, 85, 72
1, 156930, Note_off_c, 0, 75, 60
1, 157033, Control_c, 0, 64, 123
1, 157048, Control_c, 0, 64, 77
1, 157062, Control_c, 0, 64, 0
1, 157077, Control_c, 0, 64, 40
1, 157077, Note_on_c, 0, 62, 105
1, 157092, Control_c, 0, 64, 69
1, 157106, Control_c, 0, 64, 98
1, 157121, Control_c, 0, 64, 127
1, 157206, Note_off_c, 0, 62, 60
1, 157337, Note_on_c, 0, 62, 101
1, 157486, Note_off_c, 0, 62, 61
1, 157495, Note_on_c, 0, 75, 100
1, 157562, Note_on_c, 0, 63, 64
1, 157582, Note_off_c, 0, 75, 65
1, 157629, Note_on_c, 0, 90, 110
1, 157632, Note_on_c, 0, 79, 103
1, 157637, Note_on_c, 0, 62, 93
1, 157648, Control_c, 0, 64, 89
1, 157664, Control_c, 0, 64, 66
1, 157665, Note_off_c, 0, 63, 60
1, 157679, Note_on_c, 0, 87, 21
1, 157679, Control_c, 0, 64, 0
1, 157699, Note_off_c, 0, 87, 35
1, 157752, Control_c, 0, 64, 65
1, 157767, Control_c, 0, 64, 81
1, 157782, Control_c, 0, 64, 127
1, 157790, Note_on_c, 0, 75, 107
1, 157819, Note_off_c, 0, 79, 60
1, 157833, Note_off_c, 0, 62, 55
1, 157861, Note_off_c, 0, 90, 55
1, 157889, Poly_aftertouch_c, 0, 68, 127
1, 157897, Note_off_c, 0, 75, 0
1, 157923, Poly_aftertouch_c, 0, 68, 0
1, 157942, Poly_aftertouch_c, 0, 75, 0
1, 158091, Note_on_c, 0, 62, 99
1, 158240, Note_on_c, 0, 75, 103
1, 158242, Note_on_c, 0, 90, 106
1, 158243, Note_on_c, 0, 79, 102
1, 158306, Note_off_c, 0, 79, 58
1, 158404, Note_off_c, 0, 90, 51
1, 158410, Note_off_c, 0, 62, 51
1, 158481, Note_off_c, 0, 75, 50
1, 158891, Note_on_c, 0, 75, 105
1, 158892, Note_on_c, 0, 62, 87
1, 158894, Note_on_c, 0, 90, 112
1, 158895, Note_on_c, 0, 79, 104
1, 158935, Note_off_c, 0, 79, 67
1, 158946, Note_off_c, 0, 90, 70
1, 159182, Note_off_c, 0, 75, 57
1, 159313, Note_off_c, 0, 62, 48
1, 159739, Note_on_c, 0, 75, 115
1, 159739, Note_on_c, 0, 62, 98
1, 159782, Note_off_c, 0, 75, 68
1, 160297, Note_off_c, 0, 62, 56
1, 160726, Note_on_c, 0, 77, 107
1, 160748, Control_c, 0, 64, 89
1, 160762, Control_c, 0, 64, 64
1, 160777, Control_c, 0, 64, 0
1, 160807, Control_c, 0, 64, 69
1, 160822, Control_c, 0, 64, 97
1, 160836, Control_c, 0, 64, 127
1, 160946, Note_on_c, 0, 92, 108
1, 160952, Note_off_c, 0, 77, 55
1, 161088, Note_off_c, 0, 92, 66
1, 161099, Note_on_c, 0, 81, 102
1, 161143, Note_off_c, 0, 81, 71
1, 161224, Note_on_c, 0, 72, 98
1, 161237, Note_on_c, 0, 74, 70
1, 161258, Note_off_c, 0, 74, 39
1, 161267, Note_off_c, 0, 72, 68
1, 161301, Note_on_c, 0, 62, 89
1, 161340, Note_on_c, 0, 77, 100
1, 161382, Note_off_c, 0, 62, 54
1, 161383, Note_on_c, 0, 60, 91
1, 161383, Note_off_c, 0, 77, 68
1, 161455, Note_on_c, 0, 59, 78
1, 161456, Note_on_c, 0, 77, 102
1, 161506, Note_off_c, 0, 77, 59
1, 161513, Note_off_c, 0, 60, 45
1, 161523, Note_on_c, 0, 57, 85
1, 161532, Note_off_c, 0, 59, 63
1, 161550, Note_on_c, 0, 55, 89
1, 161573, Note_off_c, 0, 57, 65
1, 161585, Control_c, 0, 64, 96
1, 161591, Note_off_c, 0, 55, 67
1, 161600, Control_c, 0, 64, 67
1, 161615, Control_c, 0, 64, 0
1, 161643, Note_on_c, 0, 77, 106
1, 161652, Note_on_c, 0, 56, 111
1, 161667, Control_c, 0, 64, 68
1, 161682, Control_c, 0, 64, 91
1, 161697, Control_c, 0, 64, 127
1, 161720, Note_off_c, 0, 56, 57
1, 161877, Note_off_c, 0, 77, 61
1, 161920, Note_on_c, 0, 78, 101
1, 162021, Note_on_c, 0, 43, 82
1, 162021, Note_on_c, 0, 44, 97
1, 162092, Note_off_c, 0, 78, 58
1, 162122, Note_on_c, 0, 73, 109
1, 162130, Note_off_c, 0, 43, 61
1, 162172, Note_off_c, 0, 73, 60
1, 162174, Note_on_c, 0, 82, 23
1, 162215, Note_off_c, 0, 82, 44
1, 162264, Note_off_c, 0, 44, 59
1, 162296, Note_on_c, 0, 73, 109
1, 162319, Note_on_c, 0, 34, 96
1, 162338, Note_off_c, 0, 73, 65
1, 162355, Note_off_c, 0, 34, 60
1, 162426, Note_on_c, 0, 73, 110
1, 162477, Note_off_c, 0, 73, 65
1, 162553, Note_on_c, 0, 79, 119
1, 162577, Control_c, 0, 64, 100
1, 162592, Control_c, 0, 64, 72
1, 162607, Control_c, 0, 64, 38
1, 162622, Control_c, 0, 64, 0
1, 162637, Control_c, 0, 64, 49
1, 162652, Control_c, 0, 64, 66
1, 162667, Control_c, 0, 64, 78
1, 162681, Control_c, 0, 64, 109
1, 162696, Control_c, 0, 64, 127
1, 162698, Note_off_c, 0, 79, 61
1, 162974, Note_on_c, 0, 81, 107
1, 162993, Control_c, 0, 64, 100
1, 163008, Control_c, 0, 64, 73
1, 163016, Note_off_c, 0, 81, 68
1, 163022, Control_c, 0, 64, 0
1, 163052, Note_on_c, 0, 82, 105
1, 163178, Control_c, 0, 64, 27
1, 163193, Control_c, 0, 64, 64
1, 163208, Control_c, 0, 64, 73
1, 163223, Control_c, 0, 64, 83
1, 163237, Control_c, 0, 64, 95
1, 163252, Control_c, 0, 64, 112
1, 163267, Control_c, 0, 64, 127
1, 163637, Control_c, 0, 64, 114
1, 163652, Note_on_c, 0, 83, 105
1, 163653, Control_c, 0, 64, 80
1, 163668, Control_c, 0, 64, 50
1, 163682, Note_off_c, 0, 82, 66
1, 163683, Control_c, 0, 64, 0
1, 163817, Control_c, 0, 64, 24
1, 163832, Control_c, 0, 64, 63
1, 163846, Control_c, 0, 64, 72
1, 163861, Control_c, 0, 64, 83
1, 163883, Control_c, 0, 64, 100
1, 163898, Control_c, 0, 64, 127
1, 164248, Note_off_c, 0, 83, 62
1, 164278, Note_on_c, 0, 84, 99
1, 164321, Note_off_c, 0, 84, 68
1, 164581, Note_on_c, 0, 84, 102
1, 164734, Note_off_c, 0, 84, 57
1, 164763, Note_on_c, 0, 88, 108
1, 164884, Note_off_c, 0, 88, 61
1, 164891, Note_on_c, 0, 84, 99
1, 164899, Control_c, 0, 64, 91
1, 164914, Control_c, 0, 64, 71
1, 164928, Control_c, 0, 64, 51
1, 164938, Note_on_c, 0, 90, 29
1, 164939, Note_off_c, 0, 90, 127
1, 164943, Control_c, 0, 64, 11
1, 164958, Control_c, 0, 64, 47
1, 164973, Control_c, 0, 64, 64
1, 164988, Control_c, 0, 64, 72
1, 165002, Control_c, 0, 64, 85
1, 165017, Control_c, 0, 64, 116
1, 165032, Control_c, 0, 64, 127
1, 165033, Note_off_c, 0, 84, 58
1, 165042, Note_on_c, 0, 90, 100
1, 165171, Note_off_c, 0, 90, 62
1, 165200, Note_on_c, 0, 86, 100
1, 165250, Note_off_c, 0, 86, 68
1, 165321, Note_on_c, 0, 77, 96
1, 165343, Control_c, 0, 64, 111
1, 165358, Control_c, 0, 64, 85
1, 165381, Control_c, 0, 64, 67
1, 165388, Note_off_c, 0, 77, 65
1, 165396, Control_c, 0, 64, 0
1, 165428, Note_on_c, 0, 79, 102
1, 165558, Control_c, 0, 64, 57
1, 165573, Control_c, 0, 64, 66
1, 165588, Control_c, 0, 64, 71
1, 165603, Control_c, 0, 64, 76
1, 165618, Control_c, 0, 64, 83
1, 165633, Control_c, 0, 64, 89
1, 165648, Control_c, 0, 64, 96
1, 165662, Control_c, 0, 64, 103
1, 165677, Control_c, 0, 64, 111
1, 165692, Control_c, 0, 64, 123
1, 165707, Control_c, 0, 64, 127
1, 165802, Note_off_c, 0, 79, 45
1, 166101, Note_on_c, 0, 79, 97
1, 166107, Control_c, 0, 64, 92
1, 166129, Control_c, 0, 64, 71
1, 166144, Control_c, 0, 64, 35
1, 166159, Control_c, 0, 64, 0
1, 166160, Note_off_c, 0, 79, 65
1, 166188, Control_c, 0, 64, 36
1, 166197, Note_on_c, 0, 81, 93
1, 166203, Control_c, 0, 64, 61
1, 166218, Control_c, 0, 64, 61
1, 166233, Control_c, 0, 64, 55
1, 166247, Control_c, 0, 64, 47
1, 166262, Control_c, 0, 64, 46
1, 166277, Control_c, 0, 64, 53
1, 166292, Control_c, 0, 64, 62
1, 166306, Control_c, 0, 64, 66
1, 166321, Control_c, 0, 64, 69
1, 166336, Control_c, 0, 64, 72
1, 166351, Control_c, 0, 64, 75
1, 166366, Control_c, 0, 64, 77
1, 166381, Control_c, 0, 64, 78
1, 166440, Control_c, 0, 64, 78
1, 166455, Control_c, 0, 64, 79
1, 166544, Control_c, 0, 64, 78
1, 166559, Control_c, 0, 64, 78
1, 166573, Control_c, 0, 64, 75
1, 166587, Note_off_c, 0, 81, 51
1, 166588, Control_c, 0, 64, 71
1, 166603, Control_c, 0, 64, 64
1, 166618, Control_c, 0, 64, 0
1, 166667, Note_on_c, 0, 82, 92
1, 166691, Control_c, 0, 64, 64
1, 166706, Control_c, 0, 64, 74
1, 166721, Control_c, 0, 64, 89
1, 166727, Note_off_c, 0, 82, 64
1, 166736, Control_c, 0, 64, 127
1, 167233, Control_c, 0, 64, 99
1, 167248, Control_c, 0, 64, 91
1, 167263, Control_c, 0, 64, 92
1, 167278, Control_c, 0, 64, 100
1, 167283, Note_on_c, 0, 87, 80
1, 167293, Control_c, 0, 64, 127
1, 167321, Note_off_c, 0, 87, 60
1, 167507, Note_on_c, 0, 88, 49
1, 167537, Note_off_c, 0, 88, 51
1, 167625, Note_on_c, 0, 87, 48
1, 167651, Note_off_c, 0, 87, 59
1, 167733, Note_on_c, 0, 88, 36
1, 167764, Note_off_c, 0, 88, 48
1, 167775, Note_on_c, 0, 87, 49
1, 167803, Note_off_c, 0, 87, 62
1, 167854, Note_on_c, 0, 88, 49
1, 167896, Note_off_c, 0, 88, 50
1, 167919, Note_on_c, 0, 87, 56
1, 167943, Note_off_c, 0, 87, 61
1, 168042, Note_on_c, 0, 87, 62
1, 168060, Poly_aftertouch_c, 0, 88, 0
1, 168068, Note_off_c, 0, 87, 66
1, 168079, Note_on_c, 0, 88, 40
1, 168111, Note_off_c, 0, 88, 57
1, 168147, Note_on_c, 0, 87, 69
1, 168175, Note_off_c, 0, 87, 66
1, 168198, Note_on_c, 0, 88, 60
1, 168226, Note_off_c, 0, 88, 54
1, 168262, Note_on_c, 0, 87, 65
1, 168281, Note_off_c, 0, 87, 66
1, 168314, Note_on_c, 0, 88, 51
1, 168336, Note_off_c, 0, 88, 59
1, 168355, Note_on_c, 0, 87, 74
1, 168392, Note_off_c, 0, 87, 63
1, 168415, Note_on_c, 0, 88, 64
1, 168435, Note_off_c, 0, 88, 59
1, 168476, Note_on_c, 0, 87, 78
1, 168498, Note_off_c, 0, 87, 70
1, 168508, Note_on_c, 0, 88, 73
1, 168535, Note_off_c, 0, 88, 66
1, 168581, Note_on_c, 0, 87, 80
1, 168603, Note_off_c, 0, 87, 72
1, 168612, Note_on_c, 0, 88, 77
1, 168634, Note_off_c, 0, 88, 66
1, 168679, Note_on_c, 0, 87, 84
1, 168700, Note_off_c, 0, 87, 69
1, 168702, Note_on_c, 0, 88, 86
1, 168729, Note_off_c, 0, 88, 63
1, 168774, Note_on_c, 0, 87, 93
1, 168797, Note_off_c, 0, 87, 64
1, 168810, Note_on_c, 0, 88, 90
1, 168828, Note_off_c, 0, 88, 71
1, 168869, Note_on_c, 0, 87, 96
1, 168899, Note_off_c, 0, 87, 60
1, 168903, Note_on_c, 0, 88, 94
1, 168927, Note_off_c, 0, 88, 63
1, 168962, Note_on_c, 0, 87, 94
1, 168994, Note_on_c, 0, 88, 99
1, 168997, Note_off_c, 0, 87, 61
1, 169024, Note_off_c, 0, 88, 66
1, 169054, Note_on_c, 0, 87, 99
1, 169086, Note_off_c, 0, 87, 69
1, 169088, Note_on_c, 0, 88, 108
1, 169128, Note_off_c, 0, 88, 68
1, 169155, Note_on_c, 0, 87, 114
1, 169188, Note_off_c, 0, 87, 70
1, 169195, Note_on_c, 0, 88, 109
1, 169228, Note_off_c, 0, 88, 69
1, 169254, Note_on_c, 0, 87, 120
1, 169293, Note_off_c, 0, 87, 71
1, 169296, Note_on_c, 0, 88, 116
1, 169336, Note_off_c, 0, 88, 68
1, 169371, Note_on_c, 0, 87, 126
1, 169400, Note_off_c, 0, 87, 76
1, 169436, Note_on_c, 0, 88, 109
1, 169475, Note_on_c, 0, 89, 33
1, 169476, Note_off_c, 0, 89, 127
1, 169550, Note_on_c, 0, 87, 108
1, 169556, Note_off_c, 0, 88, 63
1, 169588, Note_off_c, 0, 87, 71
1, 169731, Control_c, 0, 64, 101
1, 169738, Note_on_c, 0, 74, 121
1, 169739, Note_on_c, 0, 58, 110
1, 169746, Control_c, 0, 64, 86
1, 169761, Control_c, 0, 64, 87
1, 169771, Note_off_c, 0, 74, 73
1, 169776, Control_c, 0, 64, 110
1, 169791, Control_c, 0, 64, 127
1, 169847, Note_off_c, 0, 58, 58
1, 170050, Note_on_c, 0, 58, 106
1, 170109, Note_off_c, 0, 58, 57
1, 170212, Note_on_c, 0, 47, 103
1, 170362, Note_on_c, 0, 49, 99
1, 170369, Note_on_c, 0, 74, 107
1, 170369, Note_on_c, 0, 75, 100
1, 170387, Note_off_c, 0, 47, 62
1, 170392, Control_c, 0, 64, 110
1, 170408, Control_c, 0, 64, 78
1, 170422, Control_c, 0, 64, 58
1, 170437, Control_c, 0, 64, 0
1, 170711, Control_c, 0, 64, 43
1, 170726, Control_c, 0, 64, 61
1, 170741, Control_c, 0, 64, 65
1, 170755, Control_c, 0, 64, 68
1, 170770, Control_c, 0, 64, 70
1, 170785, Control_c, 0, 64, 72
1, 170800, Control_c, 0, 64, 75
1, 170815, Control_c, 0, 64, 77
1, 170829, Control_c, 0, 64, 79
1, 170845, Control_c, 0, 64, 82
1, 170860, Control_c, 0, 64, 86
1, 170875, Control_c, 0, 64, 88
1, 170889, Control_c, 0, 64, 89
1, 170919, Control_c, 0, 64, 89
1, 170934, Control_c, 0, 64, 91
1, 170949, Control_c, 0, 64, 95
1, 170963, Control_c, 0, 64, 100
1, 170978, Control_c, 0, 64, 105
1, 170993, Control_c, 0, 64, 108
1, 171008, Control_c, 0, 64, 110
1, 171023, Control_c, 0, 64, 118
1, 171037, Control_c, 0, 64, 127
1, 171097, Note_off_c, 0, 49, 62
1, 171100, Note_on_c, 0, 71, 94
1, 171101, Note_on_c, 0, 48, 90
1, 171113, Note_off_c, 0, 74, 57
1, 171123, Note_off_c, 0, 75, 58
1, 171126, Control_c, 0, 64, 112
1, 171141, Control_c, 0, 64, 81
1, 171156, Control_c, 0, 64, 63
1, 171171, Control_c, 0, 64, 0
1, 171171, Control_c, 0, 67, 10
1, 171186, Control_c, 0, 67, 16
1, 171201, Control_c, 0, 67, 24
1, 171216, Control_c, 0, 67, 33
1, 171231, Control_c, 0, 67, 40
1, 171245, Control_c, 0, 67, 46
1, 171260, Control_c, 0, 67, 52
1, 171275, Control_c, 0, 67, 59
1, 171289, Control_c, 0, 67, 65
1, 171304, Control_c, 0, 67, 68
1, 171319, Control_c, 0, 67, 72
1, 171334, Control_c, 0, 67, 76
1, 171349, Control_c, 0, 67, 80
1, 171371, Control_c, 0, 67, 82
1, 171386, Control_c, 0, 67, 85
1, 171401, Control_c, 0, 67, 85
1, 171416, Control_c, 0, 67, 86
1, 171436, Note_off_c, 0, 71, 55
1, 171440, Note_off_c, 0, 48, 66
1, 171445, Control_c, 0, 67, 86
1, 171460, Control_c, 0, 67, 87
1, 171475, Control_c, 0, 67, 88
1, 171622, Control_c, 0, 67, 88
1, 173046, Control_c, 0, 64, 17
1, 173061, Control_c, 0, 64, 36
1, 173076, Control_c, 0, 64, 43
1, 173091, Control_c, 0, 64, 49
1, 173091, Control_c, 0, 67, 88
1, 173106, Control_c, 0, 64, 57
1, 173121, Control_c, 0, 64, 63
1, 173135, Control_c, 0, 64, 66
1, 173150, Control_c, 0, 64, 68
1, 173150, Control_c, 0, 67, 87
1, 173165, Control_c, 0, 64, 69
1, 173180, Control_c, 0, 64, 70
1, 173224, Control_c, 0, 67, 88
1, 173240, Control_c, 0, 67, 88
1, 173255, Control_c, 0, 67, 89
1, 173270, Control_c, 0, 64, 69
1, 173270, Control_c, 0, 67, 89
1, 173299, Control_c, 0, 64, 69
1, 173299, Control_c, 0, 67, 90
1, 173314, Control_c, 0, 64, 68
1, 173314, Control_c, 0, 67, 91
1, 173329, Control_c, 0, 67, 95
1, 173344, Control_c, 0, 67, 97
1, 173358, Control_c, 0, 64, 68
1, 173358, Control_c, 0, 67, 98
1, 173373, Control_c, 0, 67, 98
1, 173404, Control_c, 0, 64, 67
1, 173404, Control_c, 0, 67, 99
1, 173434, Control_c, 0, 64, 66
1, 173434, Control_c, 0, 67, 99
1, 173448, Control_c, 0, 64, 65
1, 173455, Note_on_c, 0, 82, 60
1, 173463, Control_c, 0, 64, 63
1, 173467, Note_on_c, 0, 60, 46
1, 173469, Note_on_c, 0, 52, 43
1, 173473, Note_on_c, 0, 68, 51
1, 173476, Note_on_c, 0, 57, 47
1, 173478, Control_c, 0, 64, 58
1, 173492, Control_c, 0, 64, 45
1, 173492, Control_c, 0, 67, 100
1, 173507, Control_c, 0, 64, 0
1, 173507, Control_c, 0, 67, 100
1, 173522, Control_c, 0, 67, 101
1, 173537, Control_c, 0, 67, 102
1, 173566, Control_c, 0, 67, 102
1, 173581, Control_c, 0, 67, 104
1, 173596, Control_c, 0, 67, 106
1, 173618, Control_c, 0, 67, 108
1, 173633, Control_c, 0, 67, 112
1, 173643, Note_off_c, 0, 68, 61
1, 173648, Note_off_c, 0, 82, 61
1, 173648, Control_c, 0, 67, 117
1, 173653, Note_off_c, 0, 57, 63
1, 173653, Note_off_c, 0, 60, 65
1, 173663, Control_c, 0, 67, 122
1, 173665, Note_off_c, 0, 52, 63
1, 173678, Control_c, 0, 67, 127
1, 175327, Note_on_c, 0, 36, 31
1, 175331, Note_on_c, 0, 35, 31
1, 175514, Note_off_c, 0, 35, 55
1, 175517, Note_off_c, 0, 36, 51
1, 177663, Note_on_c, 0, 74, 78
1, 177664, Note_on_c, 0, 75, 75
1, 177894, Control_c, 0, 64, 31
1, 177909, Control_c, 0, 64, 52
1, 177923, Control_c, 0, 64, 61
1, 177938, Control_c, 0, 64, 64
1, 177953, Control_c, 0, 64, 66
1, 177968, Control_c, 0, 64, 68
1, 177982, Control_c, 0, 64, 71
1, 177997, Control_c, 0, 64, 73
1, 178012, Control_c, 0, 64, 75
1, 178028, Control_c, 0, 64, 78
1, 178043, Control_c, 0, 64, 80
1, 178058, Control_c, 0, 64, 83
1, 178073, Control_c, 0, 64, 85
1, 178087, Control_c, 0, 64, 88
1, 178110, Control_c, 0, 64, 92
1, 178125, Control_c, 0, 64, 95
1, 178140, Control_c, 0, 64, 98
1, 178155, Control_c, 0, 64, 103
1, 178169, Control_c, 0, 64, 109
1, 178184, Control_c, 0, 64, 121
1, 178199, Control_c, 0, 64, 127
1, 178663, Note_off_c, 0, 74, 35
1, 179577, Note_on_c, 0, 71, 44
1, 179583, Note_off_c, 0, 75, 38
1, 179607, Control_c, 0, 64, 113
1, 179622, Control_c, 0, 64, 100
1, 179637, Control_c, 0, 64, 89
1, 179652, Control_c, 0, 64, 79
1, 179667, Control_c, 0, 64, 70
1, 179682, Control_c, 0, 64, 63
1, 179697, Control_c, 0, 64, 46
1, 179711, Control_c, 0, 64, 42
1, 179726, Control_c, 0, 64, 42
1, 179812, Note_off_c, 0, 71, 58
1, 179948, Control_c, 0, 64, 42
1, 180022, Control_c, 0, 64, 43
1, 180170, Control_c, 0, 64, 43
1, 180460, Control_c, 0, 64, 44
1, 181907, Note_on_c, 0, 74, 43
1, 181917, Note_on_c, 0, 75, 46
1, 182047, Control_c, 0, 64, 44
1, 182061, Control_c, 0, 64, 46
1, 182076, Control_c, 0, 64, 47
1, 182091, Control_c, 0, 64, 49
1, 182106, Control_c, 0, 64, 50
1, 182120, Control_c, 0, 64, 51
1, 182135, Control_c, 0, 64, 52
1, 182150, Control_c, 0, 64, 52
1, 182165, Control_c, 0, 64, 53
1, 182180, Control_c, 0, 64, 54
1, 182195, Control_c, 0, 64, 54
1, 182224, Control_c, 0, 64, 55
1, 182239, Control_c, 0, 64, 56
1, 182254, Control_c, 0, 64, 56
1, 182269, Control_c, 0, 64, 57
1, 182284, Control_c, 0, 64, 58
1, 182299, Control_c, 0, 64, 59
1, 182314, Control_c, 0, 64, 59
1, 182328, Control_c, 0, 64, 60
1, 182343, Control_c, 0, 64, 61
1, 182358, Control_c, 0, 64, 61
1, 182373, Control_c, 0, 64, 62
1, 182402, Control_c, 0, 64, 62
1, 182417, Control_c, 0, 64, 63
1, 182432, Control_c, 0, 64, 63
1, 182446, Control_c, 0, 64, 64
1, 182461, Control_c, 0, 64, 64
1, 182476, Control_c, 0, 64, 65
1, 182491, Control_c, 0, 64, 65
1, 182506, Control_c, 0, 64, 66
1, 182520, Control_c, 0, 64, 67
1, 182535, Control_c, 0, 64, 68
1, 182550, Control_c, 0, 64, 69
1, 182564, Control_c, 0, 64, 70
1, 182579, Control_c, 0, 64, 71
1, 182602, Control_c, 0, 64, 73
1, 182617, Control_c, 0, 64, 74
1, 182632, Control_c, 0, 64, 76
1, 182647, Control_c, 0, 64, 78
1, 182661, Control_c, 0, 64, 80
1, 182676, Control_c, 0, 64, 82
1, 182691, Control_c, 0, 64, 84
1, 182706, Control_c, 0, 64, 86
1, 182720, Control_c, 0, 64, 88
1, 182735, Control_c, 0, 64, 90
1, 182750, Control_c, 0, 64, 93
1, 182765, Control_c, 0, 64, 96
1, 182779, Control_c, 0, 64, 99
1, 182794, Control_c, 0, 64, 102
1, 182809, Control_c, 0, 64, 105
1, 182825, Control_c, 0, 64, 108
1, 182840, Control_c, 0, 64, 110
1, 182855, Control_c, 0, 64, 112
1, 182870, Control_c, 0, 64, 114
1, 182884, Control_c, 0, 64, 116
1, 182899, Control_c, 0, 64, 117
1, 182914, Control_c, 0, 64, 118
1, 182929, Control_c, 0, 64, 119
1, 182943, Control_c, 0, 64, 119
1, 182951, Note_off_c, 0, 74, 36
1, 182973, Control_c, 0, 64, 120
1, 184049, Control_c, 0, 64, 119
1, 184064, Control_c, 0, 64, 119
1, 184078, Control_c, 0, 64, 118
1, 184100, Control_c, 0, 64, 118
1, 184115, Control_c, 0, 64, 117
1, 184130, Control_c, 0, 64, 117
1, 184145, Control_c, 0, 64, 116
1, 184160, Control_c, 0, 64, 116
1, 184174, Control_c, 0, 64, 115
1, 184189, Control_c, 0, 64, 114
1, 184219, Control_c, 0, 64, 113
1, 184233, Control_c, 0, 64, 112
1, 184248, Control_c, 0, 64, 110
1, 184263, Control_c, 0, 64, 109
1, 184278, Control_c, 0, 64, 108
1, 184293, Control_c, 0, 64, 106
1, 184308, Control_c, 0, 64, 105
1, 184323, Control_c, 0, 64, 103
1, 184338, Control_c, 0, 64, 101
1, 184352, Control_c, 0, 64, 99
1, 184367, Control_c, 0, 64, 98
1, 184382, Control_c, 0, 64, 96
1, 184396, Note_off_c, 0, 75, 39
1, 184397, Note_on_c, 0, 71, 37
1, 184397, Control_c, 0, 64, 94
1, 184412, Control_c, 0, 64, 91
1, 184427, Control_c, 0, 64, 85
1, 184442, Control_c, 0, 64, 77
1, 184457, Control_c, 0, 64, 68
1, 184472, Control_c, 0, 64, 59
1, 184477, Note_off_c, 0, 71, 0
1, 184477, Note_on_c, 0, 71, 11
1, 184487, Control_c, 0, 64, 36
1, 184502, Control_c, 0, 64, 11
1, 184517, Control_c, 0, 64, 0
1, 184534, Note_off_c, 0, 71, 57
1, 184992, Note_on_c, 0, 71, 26
1, 185041, Control_c, 0, 64, 11
1, 185101, Control_c, 0, 64, 14
1, 185144, Note_off_c, 0, 71, 49
1, 185160, Control_c, 0, 64, 17
1, 185174, Control_c, 0, 64, 21
1, 185235, Control_c, 0, 64, 23
1, 185368, Control_c, 0, 64, 24
1, 185486, Control_c, 0, 64, 26
1, 185516, Control_c, 0, 64, 27
1, 185686, Control_c, 0, 64, 28
1, 185804, Control_c, 0, 64, 29
1, 185834, Control_c, 0, 64, 30
1, 186628, Control_c, 0, 64, 31
1, 187377, Control_c, 0, 64, 30
1, 187511, Control_c, 0, 64, 29
1, 187555, Control_c, 0, 64, 28
1, 187688, Control_c, 0, 64, 27
1, 187873, Control_c, 0, 64, 26
1, 187991, Control_c, 0, 64, 24
1, 188051, Control_c, 0, 64, 23
1, 188154, Control_c, 0, 64, 21
1, 188183, Control_c, 0, 64, 19
1, 188228, Control_c, 0, 64, 17
1, 188258, Control_c, 0, 64, 14
1, 188273, Control_c, 0, 64, 11
1, 188287, Control_c, 0, 64, 0
1, 188481, Control_c, 0, 64, 14
1, 188496, Control_c, 0, 64, 19
1, 188511, Control_c, 0, 64, 26
1, 188526, Control_c, 0, 64, 30
1, 188541, Control_c, 0, 64, 34
1, 188555, Control_c, 0, 64, 37
1, 188570, Control_c, 0, 64, 39
1, 188592, Control_c, 0, 64, 41
1, 188607, Control_c, 0, 64, 42
1, 188621, Control_c, 0, 64, 43
1, 188636, Control_c, 0, 64, 45
1, 188651, Control_c, 0, 64, 47
1, 188666, Control_c, 0, 64, 48
1, 188681, Control_c, 0, 64, 49
1, 188696, Control_c, 0, 64, 51
1, 188711, Control_c, 0, 64, 54
1, 188726, Control_c, 0, 64, 56
1, 188741, Control_c, 0, 64, 57
1, 188755, Control_c, 0, 64, 59
1, 188770, Control_c, 0, 64, 60
1, 188785, Control_c, 0, 64, 61
1, 188800, Control_c, 0, 64, 61
1, 188814, Control_c, 0, 64, 62
1, 188829, Control_c, 0, 64, 63
1, 188844, Control_c, 0, 64, 63
1, 188859, Control_c, 0, 64, 64
1, 188874, Control_c, 0, 64, 65
1, 188888, Control_c, 0, 64, 65
1, 188903, Control_c, 0, 64, 66
1, 188918, Control_c, 0, 64, 66
1, 188932, Control_c, 0, 64, 67
1, 188947, Control_c, 0, 64, 68
1, 188962, Control_c, 0, 64, 68
1, 188977, Control_c, 0, 64, 69
1, 188992, Control_c, 0, 64, 69
1, 189006, Control_c, 0, 64, 70
1, 189021, Control_c, 0, 64, 71
1, 189036, Control_c, 0, 64, 71
1, 189051, Control_c, 0, 64, 72
1, 189066, Control_c, 0, 64, 72
1, 189080, Control_c, 0, 64, 73
1, 189095, Control_c, 0, 64, 74
1, 189110, Control_c, 0, 64, 74
1, 189126, Control_c, 0, 64, 75
1, 189140, Control_c, 0, 64, 76
1, 189155, Control_c, 0, 64, 77
1, 189170, Control_c, 0, 64, 77
1, 189185, Control_c, 0, 64, 78
1, 189200, Control_c, 0, 64, 79
1, 189216, Control_c, 0, 64, 79
1, 189231, Control_c, 0, 64, 80
1, 189245, Control_c, 0, 64, 81
1, 189260, Control_c, 0, 64, 82
1, 189275, Control_c, 0, 64, 83
1, 189290, Control_c, 0, 64, 84
1, 189305, Control_c, 0, 64, 85
1, 189319, Control_c, 0, 64, 87
1, 189342, Control_c, 0, 64, 88
1, 189357, Control_c, 0, 64, 89
1, 189372, Control_c, 0, 64, 91
1, 189387, Control_c, 0, 64, 94
1, 189401, Control_c, 0, 64, 95
1, 189416, Control_c, 0, 64, 97
1, 189431, Control_c, 0, 64, 99
1, 189445, Control_c, 0, 64, 101
1, 189460, Control_c, 0, 64, 103
1, 189475, Control_c, 0, 64, 106
1, 189490, Control_c, 0, 64, 110
1, 189505, Control_c, 0, 64, 114
1, 189519, Control_c, 0, 64, 124
1, 189534, Control_c, 0, 64, 127
1, 190543, Note_on_c, 0, 72, 40
1, 191225, Note_on_c, 0, 74, 43
1, 191263, Note_off_c, 0, 72, 43
1, 191268, Control_c, 0, 64, 111
1, 191283, Control_c, 0, 64, 103
1, 191298, Control_c, 0, 64, 99
1, 191342, Control_c, 0, 64, 100
1, 191357, Control_c, 0, 64, 102
1, 191372, Control_c, 0, 64, 106
1, 191387, Control_c, 0, 64, 112
1, 191402, Control_c, 0, 64, 118
1, 191416, Control_c, 0, 64, 127
1, 191956, Note_on_c, 0, 76, 47
1, 191957, Control_c, 0, 64, 113
1, 191972, Control_c, 0, 64, 101
1, 191976, Note_on_c, 0, 65, 41
1, 191979, Note_on_c, 0, 26, 30
1, 191987, Control_c, 0, 64, 91
1, 191996, Note_on_c, 0, 38, 28
1, 192002, Control_c, 0, 64, 81
1, 192011, Note_off_c, 0, 74, 38
1, 192017, Control_c, 0, 64, 72
1, 192031, Control_c, 0, 64, 65
1, 192046, Control_c, 0, 64, 60
1, 192061, Control_c, 0, 64, 63
1, 192076, Control_c, 0, 64, 66
1, 192091, Control_c, 0, 64, 70
1, 192106, Control_c, 0, 64, 74
1, 192121, Control_c, 0, 64, 79
1, 192136, Control_c, 0, 64, 85
1, 192151, Control_c, 0, 64, 93
1, 192165, Control_c, 0, 64, 100
1, 192180, Control_c, 0, 64, 107
1, 192194, Note_off_c, 0, 26, 41
1, 192195, Control_c, 0, 64, 116
1, 192210, Control_c, 0, 64, 127
1, 192226, Note_off_c, 0, 65, 34
1, 192618, Note_off_c, 0, 38, 40
1, 192678, Note_on_c, 0, 67, 39
1, 192900, Note_off_c, 0, 67, 34
1, 193292, Note_on_c, 0, 72, 42
1, 193293, Control_c, 0, 64, 110
1, 193307, Note_on_c, 0, 69, 41
1, 193308, Control_c, 0, 64, 96
1, 193323, Control_c, 0, 64, 84
1, 193328, Note_on_c, 0, 47, 31
1, 193338, Note_on_c, 0, 35, 31
1, 193338, Control_c, 0, 64, 73
1, 193352, Control_c, 0, 64, 66
1, 193361, Note_off_c, 0, 76, 56
1, 193367, Control_c, 0, 64, 63
1, 193382, Control_c, 0, 64, 65
1, 193397, Control_c, 0, 64, 68
1, 193412, Control_c, 0, 64, 71
1, 193427, Control_c, 0, 64, 76
1, 193441, Control_c, 0, 64, 82
1, 193456, Control_c, 0, 64, 89
1, 193471, Control_c, 0, 64, 98
1, 193486, Control_c, 0, 64, 113
1, 193501, Control_c, 0, 64, 127
1, 193632, Note_off_c, 0, 35, 41
1, 193763, Note_off_c, 0, 69, 30
1, 193796, Note_off_c, 0, 47, 41
1, 193907, Note_on_c, 0, 77, 44
1, 193988, Note_off_c, 0, 72, 53
1, 194534, Note_on_c, 0, 76, 42
1, 194538, Note_on_c, 0, 79, 46
1, 194564, Note_on_c, 0, 60, 54
1, 194625, Note_off_c, 0, 77, 32
1, 194768, Note_off_c, 0, 60, 58
1, 194953, Note_on_c, 0, 74, 49
1, 194986, Note_off_c, 0, 79, 55
1, 195057, Note_off_c, 0, 74, 56
1, 195126, Note_off_c, 0, 76, 38
1, 195264, Control_c, 0, 64, 111
1, 195266, Note_on_c, 0, 67, 63
1, 195268, Note_on_c, 0, 77, 55
1, 195269, Note_on_c, 0, 72, 47
1, 195279, Control_c, 0, 64, 91
1, 195293, Control_c, 0, 64, 79
1, 195303, Note_on_c, 0, 48, 36
1, 195308, Control_c, 0, 64, 70
1, 195309, Note_on_c, 0, 36, 37
1, 195331, Control_c, 0, 64, 65
1, 195346, Control_c, 0, 64, 64
1, 195361, Control_c, 0, 64, 67
1, 195368, Note_off_c, 0, 72, 55
1, 195375, Control_c, 0, 64, 70
1, 195390, Control_c, 0, 64, 76
1, 195405, Control_c, 0, 64, 82
1, 195420, Control_c, 0, 64, 89
1, 195435, Control_c, 0, 64, 97
1, 195449, Control_c, 0, 64, 107
1, 195464, Control_c, 0, 64, 122
1, 195479, Control_c, 0, 64, 127
1, 195551, Note_off_c, 0, 36, 41
1, 195570, Note_on_c, 0, 71, 53
1, 195623, Note_off_c, 0, 77, 49
1, 195648, Note_off_c, 0, 48, 41
1, 195667, Note_off_c, 0, 71, 63
1, 195732, Note_off_c, 0, 67, 55
1, 195923, Note_on_c, 0, 65, 56
1, 195930, Note_on_c, 0, 76, 59
1, 195934, Note_on_c, 0, 69, 49
1, 195939, Control_c, 0, 64, 109
1, 195954, Control_c, 0, 64, 91
1, 195969, Control_c, 0, 64, 78
1, 195970, Note_on_c, 0, 50, 41
1, 195980, Note_on_c, 0, 38, 32
1, 195984, Control_c, 0, 64, 67
1, 195999, Control_c, 0, 64, 45
1, 196014, Control_c, 0, 64, 0
1, 196095, Control_c, 0, 64, 44
1, 196110, Control_c, 0, 64, 64
1, 196124, Control_c, 0, 64, 70
1, 196139, Control_c, 0, 64, 80
1, 196154, Control_c, 0, 64, 89
1, 196169, Control_c, 0, 64, 100
1, 196184, Control_c, 0, 64, 109
1, 196196, Note_off_c, 0, 76, 47
1, 196199, Control_c, 0, 64, 118
1, 196214, Control_c, 0, 64, 127
1, 196314, Note_off_c, 0, 69, 53
1, 196619, Note_on_c, 0, 74, 50
1, 196631, Note_on_c, 0, 67, 41
1, 196665, Note_off_c, 0, 38, 39
1, 196771, Note_off_c, 0, 50, 46
1, 196885, Note_off_c, 0, 74, 56
1, 196911, Note_off_c, 0, 67, 29
1, 196911, Note_on_c, 0, 72, 51
1, 196966, Note_off_c, 0, 65, 49
1, 197260, Control_c, 0, 64, 108
1, 197268, Note_on_c, 0, 76, 48
1, 197269, Note_on_c, 0, 65, 38
1, 197275, Control_c, 0, 64, 94
1, 197280, Note_on_c, 0, 64, 49
1, 197290, Control_c, 0, 64, 81
1, 197296, Note_on_c, 0, 52, 34
1, 197305, Note_off_c, 0, 72, 38
1, 197305, Control_c, 0, 64, 70
1, 197306, Note_on_c, 0, 40, 35
1, 197319, Control_c, 0, 64, 60
1, 197334, Control_c, 0, 64, 11
1, 197349, Control_c, 0, 64, 0
1, 197378, Control_c, 0, 64, 28
1, 197393, Control_c, 0, 64, 48
1, 197408, Control_c, 0, 64, 61
1, 197423, Control_c, 0, 64, 66
1, 197438, Control_c, 0, 64, 72
1, 197452, Control_c, 0, 64, 79
1, 197467, Control_c, 0, 64, 89
1, 197482, Control_c, 0, 64, 97
1, 197497, Control_c, 0, 64, 103
1, 197512, Control_c, 0, 64, 108
1, 197526, Control_c, 0, 64, 113
1, 197541, Control_c, 0, 64, 121
1, 197556, Control_c, 0, 64, 127
1, 197576, Note_off_c, 0, 64, 59
1, 197931, Note_on_c, 0, 62, 41
1, 197934, Control_c, 0, 64, 108
1, 197949, Control_c, 0, 64, 91
1, 197963, Control_c, 0, 64, 80
1, 197978, Control_c, 0, 64, 71
1, 197993, Control_c, 0, 64, 66
1, 198008, Control_c, 0, 64, 68
1, 198023, Control_c, 0, 64, 72
1, 198038, Control_c, 0, 64, 81
1, 198053, Control_c, 0, 64, 93
1, 198068, Note_off_c, 0, 76, 38
1, 198068, Control_c, 0, 64, 110
1, 198083, Control_c, 0, 64, 127
1, 198154, Note_off_c, 0, 40, 41
1, 198228, Note_off_c, 0, 62, 54
1, 198235, Note_off_c, 0, 52, 41
1, 198706, Note_on_c, 0, 71, 40
1, 198709, Note_on_c, 0, 67, 34
1, 198715, Note_on_c, 0, 41, 34
1, 198717, Note_on_c, 0, 60, 33
1, 198733, Note_on_c, 0, 53, 35
1, 198742, Control_c, 0, 64, 109
1, 198756, Control_c, 0, 64, 96
1, 198771, Control_c, 0, 64, 84
1, 198786, Note_off_c, 0, 65, 37
1, 198786, Control_c, 0, 64, 72
1, 198802, Control_c, 0, 64, 55
1, 198816, Control_c, 0, 64, 0
1, 198905, Control_c, 0, 64, 42
1, 198920, Control_c, 0, 64, 62
1, 198935, Control_c, 0, 64, 68
1, 198950, Control_c, 0, 64, 74
1, 198965, Control_c, 0, 64, 81
1, 198980, Control_c, 0, 64, 89
1, 198995, Control_c, 0, 64, 97
1, 199010, Control_c, 0, 64, 103
1, 199024, Control_c, 0, 64, 109
1, 199039, Control_c, 0, 64, 117
1, 199054, Control_c, 0, 64, 127
1, 199094, Note_off_c, 0, 53, 45
1, 199382, Note_off_c, 0, 41, 34
1, 200148, Note_off_c, 0, 60, 43
1, 200196, Note_off_c, 0, 71, 43
1, 200209, Note_off_c, 0, 67, 34
1, 200285, Note_on_c, 0, 25, 35
1, 200285, Note_on_c, 0, 37, 35
1, 200298, Control_c, 0, 64, 123
1, 200313, Control_c, 0, 64, 104
1, 200328, Control_c, 0, 64, 91
1, 200343, Control_c, 0, 64, 79
1, 200357, Control_c, 0, 64, 68
1, 200372, Control_c, 0, 64, 52
1, 200387, Control_c, 0, 64, 0
1, 200447, Control_c, 0, 64, 37
1, 200462, Control_c, 0, 64, 55
1, 200476, Control_c, 0, 64, 64
1, 200491, Control_c, 0, 64, 68
1, 200506, Control_c, 0, 64, 74
1, 200521, Control_c, 0, 64, 80
1, 200536, Control_c, 0, 64, 87
1, 200551, Control_c, 0, 64, 93
1, 200573, Control_c, 0, 64, 99
1, 200588, Control_c, 0, 64, 105
1, 200602, Control_c, 0, 64, 111
1, 200617, Control_c, 0, 64, 121
1, 200632, Control_c, 0, 64, 127
1, 200980, Note_on_c, 0, 86, 49
1, 201573, Note_on_c, 0, 84, 58
1, 201596, Note_on_c, 0, 81, 43
1, 201660, Note_off_c, 0, 86, 39
1, 202173, Note_off_c, 0, 81, 43
1, 202180, Note_on_c, 0, 79, 41
1, 202551, Note_off_c, 0, 25, 40
1, 202613, Note_off_c, 0, 37, 40
1, 202762, Note_on_c, 0, 77, 39
1, 202766, Control_c, 0, 64, 112
1, 202782, Control_c, 0, 64, 99
1, 202787, Note_on_c, 0, 38, 41
1, 202795, Note_on_c, 0, 26, 37
1, 202797, Control_c, 0, 64, 86
1, 202819, Control_c, 0, 64, 76
1, 202834, Note_off_c, 0, 79, 45
1, 202834, Control_c, 0, 64, 68
1, 202849, Control_c, 0, 64, 61
1, 202864, Control_c, 0, 64, 59
1, 202879, Control_c, 0, 64, 62
1, 202894, Control_c, 0, 64, 65
1, 202909, Control_c, 0, 64, 69
1, 202923, Control_c, 0, 64, 73
1, 202938, Control_c, 0, 64, 79
1, 202953, Control_c, 0, 64, 87
1, 202968, Control_c, 0, 64, 96
1, 202983, Control_c, 0, 64, 105
1, 202997, Control_c, 0, 64, 116
1, 203012, Control_c, 0, 64, 127
1, 203183, Note_off_c, 0, 38, 38
1, 203357, Note_on_c, 0, 83, 57
1, 203392, Note_off_c, 0, 84, 57
1, 203632, Note_on_c, 0, 81, 68
1, 203729, Note_off_c, 0, 83, 38
1, 203924, Control_c, 0, 64, 105
1, 203931, Note_on_c, 0, 79, 64
1, 203938, Control_c, 0, 64, 91
1, 203943, Note_on_c, 0, 39, 37
1, 203953, Control_c, 0, 64, 80
1, 203955, Note_on_c, 0, 27, 42
1, 203968, Control_c, 0, 64, 70
1, 203983, Control_c, 0, 64, 59
1, 203986, Note_off_c, 0, 81, 51
1, 203998, Control_c, 0, 64, 31
1, 204012, Control_c, 0, 64, 32
1, 204027, Note_off_c, 0, 26, 44
1, 204027, Control_c, 0, 64, 51
1, 204042, Control_c, 0, 64, 62
1, 204057, Control_c, 0, 64, 68
1, 204071, Control_c, 0, 64, 74
1, 204086, Control_c, 0, 64, 82
1, 204101, Control_c, 0, 64, 93
1, 204116, Control_c, 0, 64, 103
1, 204131, Control_c, 0, 64, 114
1, 204132, Note_off_c, 0, 77, 37
1, 204146, Control_c, 0, 64, 126
1, 204161, Control_c, 0, 64, 127
1, 204164, Note_off_c, 0, 27, 43
1, 204210, Note_on_c, 0, 76, 49
1, 204452, Note_off_c, 0, 76, 56
1, 204482, Note_on_c, 0, 74, 58
1, 204646, Note_off_c, 0, 74, 57
1, 204679, Note_on_c, 0, 76, 63
1, 204848, Note_on_c, 0, 72, 62
1, 204849, Note_off_c, 0, 76, 54
1, 204906, Note_off_c, 0, 72, 53
1, 205080, Control_c, 0, 64, 106
1, 205088, Note_on_c, 0, 74, 60
1, 205094, Control_c, 0, 64, 92
1, 205100, Note_on_c, 0, 32, 42
1, 205104, Note_on_c, 0, 44, 41
1, 205109, Control_c, 0, 64, 79
1, 205124, Control_c, 0, 64, 68
1, 205139, Control_c, 0, 64, 46
1, 205150, Note_off_c, 0, 79, 55
1, 205154, Control_c, 0, 64, 0
1, 205165, Note_off_c, 0, 39, 44
1, 205183, Control_c, 0, 64, 23
1, 205199, Control_c, 0, 64, 57
1, 205214, Control_c, 0, 64, 66
1, 205229, Control_c, 0, 64, 74
1, 205244, Control_c, 0, 64, 83
1, 205259, Control_c, 0, 64, 95
1, 205273, Control_c, 0, 64, 111
1, 205288, Control_c, 0, 64, 127
1, 205480, Note_on_c, 0, 86, 62
1, 205903, Note_on_c, 0, 88, 60
1, 205903, Note_off_c, 0, 86, 55
1, 206230, Control_c, 0, 64, 115
1, 206244, Control_c, 0, 64, 99
1, 206259, Control_c, 0, 64, 87
1, 206272, Note_on_c, 0, 81, 47
1, 206274, Control_c, 0, 64, 77
1, 206289, Control_c, 0, 64, 70
1, 206304, Control_c, 0, 64, 66
1, 206319, Control_c, 0, 64, 68
1, 206333, Control_c, 0, 64, 72
1, 206348, Control_c, 0, 64, 78
1, 206359, Note_off_c, 0, 74, 38
1, 206363, Control_c, 0, 64, 87
1, 206378, Control_c, 0, 64, 97
1, 206393, Control_c, 0, 64, 108
1, 206407, Control_c, 0, 64, 123
1, 206422, Control_c, 0, 64, 127
1, 206778, Note_off_c, 0, 44, 40
1, 206879, Note_on_c, 0, 76, 40
1, 206939, Note_off_c, 0, 81, 37
1, 207103, Note_off_c, 0, 76, 32
1, 207496, Note_on_c, 0, 86, 42
1, 207502, Note_on_c, 0, 77, 33
1, 207504, Control_c, 0, 64, 104
1, 207512, Note_on_c, 0, 46, 35
1, 207519, Control_c, 0, 64, 91
1, 207525, Note_on_c, 0, 34, 34
1, 207534, Control_c, 0, 64, 79
1, 207541, Note_off_c, 0, 88, 55
1, 207549, Control_c, 0, 64, 66
1, 207563, Control_c, 0, 64, 53
1, 207579, Control_c, 0, 64, 47
1, 207590, Note_off_c, 0, 32, 42
1, 207594, Control_c, 0, 64, 54
1, 207609, Control_c, 0, 64, 62
1, 207624, Control_c, 0, 64, 66
1, 207639, Control_c, 0, 64, 72
1, 207653, Control_c, 0, 64, 80
1, 207668, Control_c, 0, 64, 90
1, 207683, Control_c, 0, 64, 102
1, 207698, Control_c, 0, 64, 118
1, 207712, Control_c, 0, 64, 127
1, 207860, Note_off_c, 0, 34, 40
1, 207991, Note_off_c, 0, 46, 41
1, 208093, Note_on_c, 0, 84, 45
1, 208121, Note_off_c, 0, 86, 45
1, 208358, Note_on_c, 0, 83, 51
1, 208376, Note_off_c, 0, 84, 51
1, 208645, Note_on_c, 0, 81, 46
1, 208648, Note_off_c, 0, 83, 50
1, 208687, Note_on_c, 0, 62, 53
1, 209005, Note_off_c, 0, 77, 44
1, 209032, Note_on_c, 0, 76, 34
1, 209294, Note_off_c, 0, 76, 42
1, 209305, Note_on_c, 0, 74, 39
1, 209520, Note_off_c, 0, 74, 38
1, 209553, Note_on_c, 0, 72, 37
1, 209835, Note_on_c, 0, 71, 39
1, 209854, Control_c, 0, 64, 109
1, 209865, Note_on_c, 0, 64, 58
1, 209869, Control_c, 0, 64, 96
1, 209878, Note_off_c, 0, 72, 37
1, 209884, Control_c, 0, 64, 92
1, 209899, Control_c, 0, 64, 92
1, 209914, Control_c, 0, 64, 94
1, 209928, Note_off_c, 0, 62, 53
1, 209929, Control_c, 0, 64, 99
1, 209929, Note_off_c, 0, 81, 35
1, 209944, Control_c, 0, 64, 107
1, 209958, Control_c, 0, 64, 122
1, 209973, Control_c, 0, 64, 127
1, 210462, Note_on_c, 0, 79, 54
1, 210700, Note_off_c, 0, 79, 38
1, 211020, Note_on_c, 0, 77, 57
1, 211059, Note_on_c, 0, 48, 35
1, 211081, Note_on_c, 0, 36, 36
1, 211085, Control_c, 0, 64, 117
1, 211100, Control_c, 0, 64, 104
1, 211115, Control_c, 0, 64, 95
1, 211130, Control_c, 0, 64, 86
1, 211145, Control_c, 0, 64, 76
1, 211160, Control_c, 0, 64, 66
1, 211175, Control_c, 0, 64, 58
1, 211190, Control_c, 0, 64, 54
1, 211204, Control_c, 0, 64, 56
1, 211219, Control_c, 0, 64, 61
1, 211234, Control_c, 0, 64, 65
1, 211248, Control_c, 0, 64, 69
1, 211263, Control_c, 0, 64, 76
1, 211278, Control_c, 0, 64, 84
1, 211293, Control_c, 0, 64, 92
1, 211308, Control_c, 0, 64, 101
1, 211322, Control_c, 0, 64, 107
1, 211337, Control_c, 0, 64, 110
1, 211352, Control_c, 0, 64, 111
1, 211367, Control_c, 0, 64, 113
1, 211382, Control_c, 0, 64, 114
1, 211396, Control_c, 0, 64, 115
1, 211411, Control_c, 0, 64, 115
1, 211426, Control_c, 0, 64, 116
1, 211589, Note_on_c, 0, 76, 55
1, 211619, Note_off_c, 0, 77, 56
1, 211739, Control_c, 0, 64, 117
1, 211801, Note_off_c, 0, 71, 57
1, 211875, Poly_aftertouch_c, 0, 40, 127
1, 212057, Control_c, 0, 64, 116
1, 212072, Control_c, 0, 64, 115
1, 212087, Control_c, 0, 64, 113
1, 212102, Control_c, 0, 64, 110
1, 212117, Control_c, 0, 64, 102
1, 212132, Control_c, 0, 64, 93
1, 212146, Control_c, 0, 64, 84
1, 212161, Control_c, 0, 64, 74
1, 212162, Note_on_c, 0, 74, 49
1, 212173, Note_on_c, 0, 69, 38
1, 212176, Control_c, 0, 64, 66
1, 212191, Control_c, 0, 64, 63
1, 212202, Note_off_c, 0, 76, 50
1, 212205, Control_c, 0, 64, 65
1, 212220, Control_c, 0, 64, 69
1, 212235, Control_c, 0, 64, 74
1, 212250, Control_c, 0, 64, 82
1, 212265, Control_c, 0, 64, 92
1, 212279, Control_c, 0, 64, 103
1, 212294, Control_c, 0, 64, 117
1, 212309, Control_c, 0, 64, 127
1, 212330, Note_off_c, 0, 36, 39
1, 212363, Poly_aftertouch_c, 0, 40, 0
1, 212408, Note_off_c, 0, 64, 34
1, 212430, Note_off_c, 0, 48, 41
1, 212663, Note_off_c, 0, 69, 32
1, 212718, Note_on_c, 0, 50, 43
1, 212741, Note_on_c, 0, 38, 27
1, 212824, Note_off_c, 0, 50, 61
1, 212853, Note_off_c, 0, 38, 42
1, 212985, Note_on_c, 0, 48, 48
1, 212999, Note_on_c, 0, 36, 43
1, 213095, Note_off_c, 0, 48, 60
1, 213125, Note_off_c, 0, 36, 34
1, 213317, Control_c, 0, 64, 118
1, 213331, Note_on_c, 0, 76, 52
1, 213331, Control_c, 0, 64, 100
1, 213346, Note_on_c, 0, 62, 48
1, 213346, Control_c, 0, 64, 84
1, 213348, Note_on_c, 0, 64, 48
1, 213348, Note_on_c, 0, 50, 43
1, 213361, Control_c, 0, 64, 73
1, 213374, Note_on_c, 0, 38, 37
1, 213376, Control_c, 0, 64, 62
1, 213387, Note_off_c, 0, 74, 37
1, 213391, Control_c, 0, 64, 42
1, 213405, Control_c, 0, 64, 40
1, 213420, Control_c, 0, 64, 51
1, 213435, Control_c, 0, 64, 61
1, 213449, Control_c, 0, 64, 66
1, 213464, Control_c, 0, 64, 72
1, 213479, Control_c, 0, 64, 80
1, 213494, Control_c, 0, 64, 91
1, 213509, Control_c, 0, 64, 105
1, 213524, Control_c, 0, 64, 127
1, 213580, Note_off_c, 0, 76, 33
1, 213667, Note_off_c, 0, 64, 40
1, 213783, Note_off_c, 0, 62, 24
1, 213919, Note_off_c, 0, 38, 40
1, 213986, Note_on_c, 0, 60, 55
1, 214090, Note_off_c, 0, 50, 40
1, 214270, Note_off_c, 0, 60, 38
1, 214589, Note_on_c, 0, 59, 59
1, 214590, Note_on_c, 0, 69, 59
1, 214597, Note_on_c, 0, 65, 52
1, 214613, Control_c, 0, 64, 103
1, 214615, Note_on_c, 0, 52, 45
1, 214628, Control_c, 0, 64, 88
1, 214633, Note_on_c, 0, 40, 43
1, 214643, Control_c, 0, 64, 75
1, 214658, Control_c, 0, 64, 64
1, 214672, Control_c, 0, 64, 19
1, 214687, Control_c, 0, 64, 0
1, 214702, Control_c, 0, 64, 11
1, 214717, Control_c, 0, 64, 51
1, 214732, Control_c, 0, 64, 64
1, 214746, Control_c, 0, 64, 71
1, 214761, Control_c, 0, 64, 79
1, 214777, Control_c, 0, 64, 93
1, 214800, Control_c, 0, 64, 111
1, 214815, Control_c, 0, 64, 127
1, 214914, Note_off_c, 0, 59, 50
1, 215199, Note_off_c, 0, 40, 35
1, 215229, Note_on_c, 0, 71, 63
1, 215272, Note_off_c, 0, 69, 52
1, 215284, Note_off_c, 0, 52, 36
1, 215393, Note_off_c, 0, 65, 38
1, 215813, Note_on_c, 0, 65, 66
1, 215821, Note_on_c, 0, 72, 61
1, 215828, Note_on_c, 0, 69, 47
1, 215831, Control_c, 0, 64, 105
1, 215845, Control_c, 0, 64, 88
1, 215852, Note_on_c, 0, 64, 50
1, 215855, Note_on_c, 0, 52, 49
1, 215857, Note_off_c, 0, 71, 60
1, 215860, Control_c, 0, 64, 76
1, 215875, Control_c, 0, 64, 69
1, 215890, Control_c, 0, 64, 68
1, 215905, Control_c, 0, 64, 71
1, 215919, Control_c, 0, 64, 78
1, 215934, Control_c, 0, 64, 87
1, 215949, Control_c, 0, 64, 101
1, 215964, Control_c, 0, 64, 127
1, 216006, Note_off_c, 0, 52, 61
1, 216101, Note_off_c, 0, 64, 53
1, 216245, Note_on_c, 0, 62, 65
1, 216255, Note_on_c, 0, 50, 63
1, 216421, Note_off_c, 0, 50, 60
1, 216448, Note_on_c, 0, 74, 73
1, 216456, Note_off_c, 0, 62, 54
1, 216487, Note_off_c, 0, 72, 59
1, 216505, Control_c, 0, 67, 126
1, 216520, Control_c, 0, 67, 123
1, 216535, Control_c, 0, 67, 120
1, 216549, Control_c, 0, 67, 115
1, 216564, Control_c, 0, 67, 110
1, 216568, Note_on_c, 0, 60, 67
1, 216573, Note_on_c, 0, 48, 66
1, 216579, Control_c, 0, 67, 102
1, 216591, Note_off_c, 0, 69, 62
1, 216594, Control_c, 0, 67, 94
1, 216609, Control_c, 0, 67, 85
1, 216623, Control_c, 0, 67, 76
1, 216638, Control_c, 0, 67, 68
1, 216653, Control_c, 0, 67, 62
1, 216667, Control_c, 0, 67, 57
1, 216682, Control_c, 0, 67, 54
1, 216697, Control_c, 0, 67, 52
1, 216712, Control_c, 0, 67, 51
1, 216722, Note_off_c, 0, 48, 59
1, 216741, Control_c, 0, 67, 51
1, 216766, Note_off_c, 0, 65, 36
1, 216771, Control_c, 0, 67, 50
1, 216785, Note_off_c, 0, 60, 54
1, 216904, Control_c, 0, 67, 51
1, 216934, Control_c, 0, 64, 115
1, 216934, Control_c, 0, 67, 51
1, 216949, Control_c, 0, 64, 92
1, 216949, Control_c, 0, 67, 52
1, 216952, Note_on_c, 0, 67, 79
1, 216952, Note_on_c, 0, 76, 71
1, 216955, Note_on_c, 0, 71, 60
1, 216964, Control_c, 0, 64, 73
1, 216966, Note_on_c, 0, 59, 55
1, 216976, Note_on_c, 0, 47, 50
1, 216979, Control_c, 0, 64, 59
1, 216992, Note_off_c, 0, 74, 60
1, 216993, Control_c, 0, 64, 0
1, 217045, Control_c, 0, 64, 43
1, 217060, Control_c, 0, 64, 64
1, 217074, Control_c, 0, 64, 72
1, 217074, Control_c, 0, 67, 52
1, 217089, Control_c, 0, 64, 83
1, 217104, Control_c, 0, 64, 100
1, 217104, Control_c, 0, 67, 53
1, 217119, Control_c, 0, 64, 127
1, 217134, Control_c, 0, 67, 53
1, 217149, Control_c, 0, 67, 54
1, 217163, Control_c, 0, 67, 54
1, 217179, Control_c, 0, 67, 55
1, 217194, Control_c, 0, 67, 56
1, 217209, Control_c, 0, 67, 56
1, 217223, Control_c, 0, 67, 57
1, 217238, Control_c, 0, 67, 57
1, 217253, Note_off_c, 0, 47, 37
1, 217253, Control_c, 0, 67, 58
1, 217268, Control_c, 0, 67, 59
1, 217283, Control_c, 0, 67, 60
1, 217298, Control_c, 0, 67, 60
1, 217313, Control_c, 0, 67, 61
1, 217316, Note_off_c, 0, 67, 38
1, 217327, Control_c, 0, 67, 62
1, 217342, Control_c, 0, 67, 62
1, 217345, Note_off_c, 0, 59, 37
1, 217357, Control_c, 0, 67, 63
1, 217372, Control_c, 0, 67, 64
1, 217387, Control_c, 0, 67, 65
1, 217402, Control_c, 0, 67, 67
1, 217416, Control_c, 0, 67, 69
1, 217431, Control_c, 0, 67, 72
1, 217446, Control_c, 0, 67, 74
1, 217461, Control_c, 0, 67, 76
1, 217476, Control_c, 0, 67, 77
1, 217490, Control_c, 0, 67, 78
1, 217505, Control_c, 0, 67, 79
1, 217520, Control_c, 0, 67, 80
1, 217535, Control_c, 0, 67, 81
1, 217550, Control_c, 0, 67, 82
1, 217564, Control_c, 0, 67, 83
1, 217579, Control_c, 0, 67, 84
1, 217594, Control_c, 0, 67, 85
1, 217603, Note_on_c, 0, 65, 79
1, 217608, Control_c, 0, 67, 85
1, 217623, Note_on_c, 0, 62, 53
1, 217623, Control_c, 0, 64, 99
1, 217623, Control_c, 0, 67, 86
1, 217625, Note_on_c, 0, 50, 56
1, 217638, Control_c, 0, 64, 81
1, 217638, Control_c, 0, 67, 86
1, 217653, Control_c, 0, 64, 68
1, 217668, Control_c, 0, 64, 56
1, 217683, Control_c, 0, 64, 54
1, 217697, Control_c, 0, 64, 62
1, 217712, Control_c, 0, 64, 68
1, 217727, Control_c, 0, 64, 79
1, 217742, Control_c, 0, 64, 92
1, 217757, Control_c, 0, 64, 111
1, 217772, Control_c, 0, 64, 127
1, 217809, Control_c, 0, 67, 87
1, 217868, Control_c, 0, 67, 88
1, 217912, Control_c, 0, 67, 89
1, 217927, Control_c, 0, 67, 90
1, 217942, Control_c, 0, 67, 93
1, 217957, Control_c, 0, 67, 95
1, 217973, Control_c, 0, 67, 98
1, 217988, Control_c, 0, 67, 100
1, 218002, Control_c, 0, 67, 101
1, 218017, Control_c, 0, 67, 102
1, 218030, Note_off_c, 0, 65, 48
1, 218032, Control_c, 0, 67, 103
1, 218046, Control_c, 0, 67, 103
1, 218076, Control_c, 0, 67, 104
1, 218195, Note_on_c, 0, 64, 76
1, 218198, Note_on_c, 0, 77, 69
1, 218210, Control_c, 0, 64, 103
1, 218225, Control_c, 0, 64, 85
1, 218239, Control_c, 0, 64, 71
1, 218242, Note_off_c, 0, 76, 59
1, 218254, Control_c, 0, 64, 57
1, 218267, Note_off_c, 0, 71, 58
1, 218269, Control_c, 0, 64, 11
1, 218284, Control_c, 0, 64, 17
1, 218299, Control_c, 0, 64, 48
1, 218313, Control_c, 0, 64, 62
1, 218329, Control_c, 0, 64, 68
1, 218344, Control_c, 0, 64, 75
1, 218359, Control_c, 0, 64, 85
1, 218374, Control_c, 0, 64, 98
1, 218374, Control_c, 0, 67, 104
1, 218388, Control_c, 0, 64, 115
1, 218403, Control_c, 0, 64, 127
1, 218447, Control_c, 0, 67, 105
1, 218457, Note_off_c, 0, 62, 33
1, 218477, Control_c, 0, 67, 105
1, 218492, Control_c, 0, 67, 106
1, 218507, Control_c, 0, 67, 108
1, 218521, Control_c, 0, 67, 110
1, 218522, Note_off_c, 0, 50, 36
1, 218544, Control_c, 0, 67, 112
1, 218559, Control_c, 0, 67, 114
1, 218573, Control_c, 0, 67, 116
1, 218588, Control_c, 0, 67, 118
1, 218603, Control_c, 0, 67, 121
1, 218618, Control_c, 0, 67, 122
1, 218633, Control_c, 0, 67, 123
1, 218647, Control_c, 0, 67, 125
1, 218662, Control_c, 0, 67, 126
1, 218677, Control_c, 0, 67, 127
1, 218782, Control_c, 0, 64, 94
1, 218797, Control_c, 0, 64, 77
1, 218811, Control_c, 0, 64, 65
1, 218813, Note_on_c, 0, 60, 51
1, 218822, Note_on_c, 0, 48, 48
1, 218826, Control_c, 0, 64, 52
1, 218841, Control_c, 0, 64, 58
1, 218856, Control_c, 0, 64, 66
1, 218870, Control_c, 0, 64, 75
1, 218885, Control_c, 0, 64, 87
1, 218900, Control_c, 0, 64, 110
1, 218915, Control_c, 0, 64, 127
1, 218926, Note_off_c, 0, 60, 60
1, 218934, Note_off_c, 0, 64, 56
1, 218988, Note_off_c, 0, 77, 60
1, 219524, Note_on_c, 0, 83, 74
1, 219538, Note_on_c, 0, 79, 64
1, 219551, Note_on_c, 0, 56, 48
1, 219554, Note_on_c, 0, 44, 50
1, 219560, Control_c, 0, 64, 121
1, 219575, Control_c, 0, 64, 93
1, 219590, Control_c, 0, 64, 77
1, 219605, Control_c, 0, 64, 67
1, 219611, Note_off_c, 0, 48, 43
1, 219619, Control_c, 0, 64, 63
1, 219634, Control_c, 0, 64, 67
1, 219649, Control_c, 0, 64, 74
1, 219664, Control_c, 0, 64, 84
1, 219679, Control_c, 0, 64, 103
1, 219693, Control_c, 0, 64, 127
1, 219794, Note_off_c, 0, 83, 54
1, 220389, Note_on_c, 0, 65, 40
1, 220580, Note_off_c, 0, 79, 52
1, 220646, Note_off_c, 0, 65, 39
1, 220985, Note_on_c, 0, 81, 55
1, 220985, Note_on_c, 0, 67, 60
1, 220992, Note_on_c, 0, 77, 49
1, 221012, Control_c, 0, 64, 100
1, 221027, Control_c, 0, 64, 86
1, 221041, Control_c, 0, 64, 76
1, 221056, Control_c, 0, 64, 68
1, 221071, Control_c, 0, 64, 66
1, 221086, Control_c, 0, 64, 67
1, 221101, Control_c, 0, 64, 70
1, 221115, Control_c, 0, 64, 74
1, 221130, Control_c, 0, 64, 79
1, 221145, Control_c, 0, 64, 88
1, 221161, Control_c, 0, 64, 98
1, 221176, Control_c, 0, 64, 109
1, 221191, Control_c, 0, 64, 127
1, 221293, Note_off_c, 0, 67, 37
1, 221572, Note_on_c, 0, 69, 66
1, 221572, Note_on_c, 0, 76, 62
1, 221583, Control_c, 0, 64, 109
1, 221598, Control_c, 0, 64, 96
1, 221613, Control_c, 0, 64, 86
1, 221628, Control_c, 0, 64, 76
1, 221643, Control_c, 0, 64, 71
1, 221657, Control_c, 0, 64, 68
1, 221672, Control_c, 0, 64, 70
1, 221687, Control_c, 0, 64, 74
1, 221702, Control_c, 0, 64, 80
1, 221717, Control_c, 0, 64, 89
1, 221732, Control_c, 0, 64, 98
1, 221746, Control_c, 0, 64, 106
1, 221761, Control_c, 0, 64, 114
1, 221776, Control_c, 0, 64, 124
1, 221790, Control_c, 0, 64, 127
1, 221804, Note_off_c, 0, 77, 21
1, 221937, Note_off_c, 0, 69, 38
1, 222148, Control_c, 0, 64, 112
1, 222162, Control_c, 0, 64, 100
1, 222177, Control_c, 0, 64, 90
1, 222179, Note_on_c, 0, 71, 68
1, 222186, Note_on_c, 0, 74, 55
1, 222192, Control_c, 0, 64, 78
1, 222206, Control_c, 0, 64, 68
1, 222221, Control_c, 0, 64, 60
1, 222236, Control_c, 0, 64, 52
1, 222247, Note_off_c, 0, 76, 58
1, 222266, Control_c, 0, 64, 55
1, 222288, Control_c, 0, 64, 61
1, 222303, Control_c, 0, 64, 65
1, 222317, Control_c, 0, 64, 70
1, 222332, Control_c, 0, 64, 77
1, 222347, Control_c, 0, 64, 88
1, 222362, Control_c, 0, 64, 102
1, 222377, Control_c, 0, 64, 123
1, 222392, Control_c, 0, 64, 127
1, 222463, Note_off_c, 0, 71, 39
1, 222595, Note_off_c, 0, 81, 55
1, 222619, Note_on_c, 0, 79, 61
1, 222654, Note_off_c, 0, 74, 59
1, 222854, Note_on_c, 0, 72, 70
1, 222860, Note_on_c, 0, 83, 60
1, 222881, Control_c, 0, 64, 102
1, 222896, Control_c, 0, 64, 87
1, 222900, Note_off_c, 0, 79, 56
1, 222911, Control_c, 0, 64, 76
1, 222926, Control_c, 0, 64, 68
1, 222940, Control_c, 0, 64, 66
1, 222955, Control_c, 0, 64, 69
1, 222970, Control_c, 0, 64, 74
1, 222985, Control_c, 0, 64, 81
1, 223000, Control_c, 0, 64, 92
1, 223010, Note_off_c, 0, 56, 53
1, 223015, Control_c, 0, 64, 105
1, 223036, Control_c, 0, 64, 127
1, 223091, Note_on_c, 0, 77, 55
1, 223179, Note_off_c, 0, 83, 62
1, 223319, Note_off_c, 0, 72, 34
1, 223321, Note_off_c, 0, 77, 38
1, 223578, Note_on_c, 0, 74, 60
1, 223587, Note_on_c, 0, 84, 48
1, 223597, Note_on_c, 0, 76, 43
1, 223626, Note_on_c, 0, 39, 36
1, 223637, Note_on_c, 0, 51, 35
1, 223659, Control_c, 0, 64, 107
1, 223672, Note_off_c, 0, 44, 28
1, 223674, Control_c, 0, 64, 95
1, 223689, Control_c, 0, 64, 84
1, 223704, Control_c, 0, 64, 73
1, 223719, Control_c, 0, 64, 53
1, 223733, Control_c, 0, 64, 0
1, 223859, Control_c, 0, 64, 47
1, 223874, Control_c, 0, 64, 63
1, 223889, Control_c, 0, 64, 69
1, 223904, Control_c, 0, 64, 78
1, 223919, Control_c, 0, 64, 88
1, 223933, Control_c, 0, 64, 96
1, 223948, Control_c, 0, 64, 102
1, 223963, Control_c, 0, 64, 107
1, 223976, Note_off_c, 0, 76, 56
1, 223978, Control_c, 0, 64, 114
1, 223993, Control_c, 0, 64, 127
1, 224382, Note_off_c, 0, 74, 39
1, 224384, Note_off_c, 0, 84, 32
1, 224393, Note_on_c, 0, 81, 33
1, 224492, Note_off_c, 0, 81, 58
1, 225037, Note_on_c, 0, 93, 66
1, 225045, Note_on_c, 0, 83, 54
1, 225188, Note_off_c, 0, 93, 54
1, 225832, Note_on_c, 0, 76, 36
1, 225930, Note_off_c, 0, 83, 61
1, 226058, Note_off_c, 0, 76, 43
1, 226435, Note_on_c, 0, 91, 48
1, 226447, Note_on_c, 0, 84, 37
1, 226452, Note_on_c, 0, 77, 44
1, 226461, Control_c, 0, 64, 104
1, 226476, Control_c, 0, 64, 89
1, 226491, Control_c, 0, 64, 79
1, 226506, Control_c, 0, 64, 71
1, 226521, Control_c, 0, 64, 67
1, 226535, Control_c, 0, 64, 67
1, 226550, Control_c, 0, 64, 70
1, 226564, Control_c, 0, 64, 75
1, 226578, Control_c, 0, 64, 80
1, 226593, Control_c, 0, 64, 87
1, 226608, Control_c, 0, 64, 93
1, 226623, Control_c, 0, 64, 101
1, 226638, Control_c, 0, 64, 109
1, 226652, Control_c, 0, 64, 119
1, 226663, Note_off_c, 0, 77, 34
1, 226667, Control_c, 0, 64, 127
1, 227031, Control_c, 0, 64, 112
1, 227046, Control_c, 0, 64, 97
1, 227061, Control_c, 0, 64, 87
1, 227072, Note_on_c, 0, 79, 40
1, 227075, Control_c, 0, 64, 79
1, 227090, Control_c, 0, 64, 72
1, 227105, Control_c, 0, 64, 69
1, 227118, Note_off_c, 0, 84, 52
1, 227120, Control_c, 0, 64, 71
1, 227135, Control_c, 0, 64, 76
1, 227150, Control_c, 0, 64, 83
1, 227164, Control_c, 0, 64, 92
1, 227179, Control_c, 0, 64, 103
1, 227194, Control_c, 0, 64, 126
1, 227209, Control_c, 0, 64, 127
1, 227310, Note_off_c, 0, 79, 36
1, 227692, Control_c, 0, 64, 105
1, 227705, Note_on_c, 0, 90, 50
1, 227706, Control_c, 0, 64, 89
1, 227721, Control_c, 0, 64, 81
1, 227725, Note_on_c, 0, 86, 29
1, 227733, Note_on_c, 0, 81, 26
1, 227736, Control_c, 0, 64, 77
1, 227765, Control_c, 0, 64, 81
1, 227780, Control_c, 0, 64, 86
1, 227783, Note_off_c, 0, 91, 43
1, 227795, Control_c, 0, 64, 94
1, 227810, Control_c, 0, 64, 103
1, 227824, Control_c, 0, 64, 116
1, 227839, Control_c, 0, 64, 127
1, 227918, Note_off_c, 0, 39, 40
1, 228013, Note_off_c, 0, 51, 44
1, 228381, Control_c, 0, 64, 115
1, 228388, Note_on_c, 0, 53, 30
1, 228396, Control_c, 0, 64, 100
1, 228399, Note_on_c, 0, 41, 27
1, 228411, Control_c, 0, 64, 90
1, 228426, Control_c, 0, 64, 81
1, 228441, Control_c, 0, 64, 73
1, 228455, Control_c, 0, 64, 68
1, 228485, Control_c, 0, 64, 71
1, 228500, Control_c, 0, 64, 77
1, 228515, Control_c, 0, 64, 83
1, 228530, Control_c, 0, 64, 92
1, 228545, Control_c, 0, 64, 101
1, 228551, Note_off_c, 0, 41, 43
1, 228559, Control_c, 0, 64, 112
1, 228574, Control_c, 0, 64, 127
1, 228630, Note_off_c, 0, 53, 43
1, 229051, Note_off_c, 0, 81, 42
1, 229070, Control_c, 0, 64, 113
1, 229085, Control_c, 0, 64, 100
1, 229086, Note_on_c, 0, 55, 32
1, 229088, Note_off_c, 0, 90, 42
1, 229096, Note_on_c, 0, 43, 34
1, 229099, Control_c, 0, 64, 89
1, 229112, Note_off_c, 0, 86, 44
1, 229114, Control_c, 0, 64, 79
1, 229129, Control_c, 0, 64, 70
1, 229144, Control_c, 0, 64, 61
1, 229160, Control_c, 0, 64, 51
1, 229175, Control_c, 0, 64, 51
1, 229190, Control_c, 0, 64, 53
1, 229204, Control_c, 0, 64, 58
1, 229219, Control_c, 0, 64, 63
1, 229234, Control_c, 0, 64, 68
1, 229249, Control_c, 0, 64, 74
1, 229264, Control_c, 0, 64, 80
1, 229278, Control_c, 0, 64, 88
1, 229293, Control_c, 0, 64, 95
1, 229308, Control_c, 0, 64, 102
1, 229323, Control_c, 0, 64, 107
1, 229338, Control_c, 0, 64, 110
1, 229352, Control_c, 0, 64, 115
1, 229367, Control_c, 0, 64, 127
1, 229726, Note_on_c, 0, 78, 47
1, 230094, Note_off_c, 0, 78, 42
1, 230176, Poly_aftertouch_c, 0, 47, 127
1, 230362, Note_on_c, 0, 77, 54
1, 230370, Note_on_c, 0, 75, 46
1, 230382, Control_c, 0, 64, 109
1, 230397, Control_c, 0, 64, 99
1, 230412, Control_c, 0, 64, 91
1, 230426, Control_c, 0, 64, 82
1, 230441, Control_c, 0, 64, 75
1, 230456, Control_c, 0, 64, 67
1, 230471, Control_c, 0, 64, 65
1, 230486, Control_c, 0, 64, 65
1, 230500, Control_c, 0, 64, 68
1, 230523, Control_c, 0, 64, 72
1, 230538, Control_c, 0, 64, 78
1, 230552, Control_c, 0, 64, 84
1, 230567, Control_c, 0, 64, 92
1, 230582, Control_c, 0, 64, 98
1, 230597, Control_c, 0, 64, 104
1, 230612, Control_c, 0, 64, 108
1, 230626, Control_c, 0, 64, 113
1, 230641, Control_c, 0, 64, 122
1, 230656, Control_c, 0, 64, 127
1, 230855, Note_off_c, 0, 75, 56
1, 230972, Poly_aftertouch_c, 0, 46, 127
1, 231040, Note_on_c, 0, 74, 47
1, 231057, Control_c, 0, 64, 111
1, 231072, Control_c, 0, 64, 99
1, 231087, Control_c, 0, 64, 89
1, 231102, Control_c, 0, 64, 80
1, 231117, Control_c, 0, 64, 73
1, 231132, Control_c, 0, 64, 69
1, 231147, Control_c, 0, 64, 71
1, 231162, Control_c, 0, 64, 76
1, 231176, Control_c, 0, 64, 83
1, 231191, Control_c, 0, 64, 93
1, 231206, Control_c, 0, 64, 106
1, 231221, Control_c, 0, 64, 127
1, 231315, Note_off_c, 0, 74, 56
1, 231876, Note_on_c, 0, 73, 40
1, 231883, Note_on_c, 0, 64, 44
1, 231910, Control_c, 0, 64, 114
1, 231925, Control_c, 0, 64, 101
1, 231940, Control_c, 0, 64, 91
1, 231955, Control_c, 0, 64, 81
1, 231970, Control_c, 0, 64, 73
1, 231985, Control_c, 0, 64, 64
1, 231999, Control_c, 0, 64, 60
1, 232021, Control_c, 0, 64, 59
1, 232036, Control_c, 0, 64, 60
1, 232051, Control_c, 0, 64, 62
1, 232066, Control_c, 0, 64, 64
1, 232080, Control_c, 0, 64, 67
1, 232095, Control_c, 0, 64, 72
1, 232110, Control_c, 0, 64, 79
1, 232125, Control_c, 0, 64, 88
1, 232140, Control_c, 0, 64, 98
1, 232154, Control_c, 0, 64, 108
1, 232169, Control_c, 0, 64, 119
1, 232184, Control_c, 0, 64, 127
1, 232192, Note_off_c, 0, 64, 49
1, 233070, Note_on_c, 0, 66, 36
1, 233082, Control_c, 0, 64, 110
1, 233096, Control_c, 0, 64, 99
1, 233111, Control_c, 0, 64, 88
1, 233126, Control_c, 0, 64, 76
1, 233141, Control_c, 0, 64, 66
1, 233156, Control_c, 0, 64, 53
1, 233171, Control_c, 0, 64, 36
1, 233186, Control_c, 0, 64, 36
1, 233201, Control_c, 0, 64, 45
1, 233216, Control_c, 0, 64, 55
1, 233231, Control_c, 0, 64, 64
1, 233245, Control_c, 0, 64, 69
1, 233260, Control_c, 0, 64, 76
1, 233275, Control_c, 0, 64, 84
1, 233290, Control_c, 0, 64, 95
1, 233293, Poly_aftertouch_c, 0, 47, 0
1, 233305, Control_c, 0, 64, 105
1, 233319, Control_c, 0, 64, 116
1, 233334, Control_c, 0, 64, 127
1, 233343, Note_off_c, 0, 55, 42
1, 233390, Poly_aftertouch_c, 0, 46, 0
1, 233439, Note_off_c, 0, 43, 40
1, 234290, Note_on_c, 0, 50, 22
1, 234322, Note_on_c, 0, 38, 29
1, 234357, Control_c, 0, 64, 121
1, 234372, Control_c, 0, 64, 101
1, 234387, Control_c, 0, 64, 90
1, 234402, Control_c, 0, 64, 81
1, 234417, Control_c, 0, 64, 72
1, 234432, Control_c, 0, 64, 65
1, 234447, Control_c, 0, 64, 60
1, 234462, Control_c, 0, 64, 60
1, 234476, Control_c, 0, 64, 61
1, 234491, Control_c, 0, 64, 62
1, 234506, Control_c, 0, 64, 62
1, 234520, Control_c, 0, 64, 63
1, 234535, Control_c, 0, 64, 64
1, 234550, Control_c, 0, 64, 67
1, 234565, Control_c, 0, 64, 69
1, 234580, Control_c, 0, 64, 72
1, 234594, Control_c, 0, 64, 75
1, 234609, Control_c, 0, 64, 78
1, 234624, Control_c, 0, 64, 80
1, 234639, Control_c, 0, 64, 82
1, 234654, Control_c, 0, 64, 85
1, 234668, Control_c, 0, 64, 88
1, 234683, Control_c, 0, 64, 92
1, 234698, Control_c, 0, 64, 97
1, 234712, Control_c, 0, 64, 101
1, 234727, Control_c, 0, 64, 105
1, 234743, Control_c, 0, 64, 110
1, 234758, Control_c, 0, 64, 114
1, 234773, Control_c, 0, 64, 120
1, 234788, Control_c, 0, 64, 127
1, 237111, Note_off_c, 0, 38, 1
1, 237547, Note_off_c, 0, 77, 30
1, 237573, Note_off_c, 0, 66, 31
1, 237963, Note_off_c, 0, 50, 28
1, 238013, Note_off_c, 0, 73, 34
1, 238574, Control_c, 0, 64, 118
1, 238589, Control_c, 0, 64, 111
1, 238604, Control_c, 0, 64, 106
1, 238619, Control_c, 0, 64, 100
1, 238633, Control_c, 0, 64, 92
1, 238648, Control_c, 0, 64, 81
1, 238663, Control_c, 0, 64, 70
1, 238677, Control_c, 0, 64, 57
1, 238692, Control_c, 0, 64, 0
1, 239086, Control_c, 0, 64, 23
1, 239101, Control_c, 0, 64, 36
1, 239115, Control_c, 0, 64, 47
1, 239130, Control_c, 0, 64, 53
1, 239145, Control_c, 0, 64, 60
1, 239160, Control_c, 0, 64, 64
1, 239175, Control_c, 0, 64, 67
1, 239189, Control_c, 0, 64, 71
1, 239204, Control_c, 0, 64, 76
1, 239219, Control_c, 0, 64, 80
1, 239232, Note_on_c, 0, 72, 63
1, 239234, Control_c, 0, 64, 85
1, 239249, Control_c, 0, 64, 88
1, 239249, Note_off_c, 0, 72, 66
1, 239264, Control_c, 0, 64, 89
1, 239412, Control_c, 0, 64, 88
1, 239427, Control_c, 0, 64, 87
1, 239442, Control_c, 0, 64, 86
1, 239456, Control_c, 0, 64, 82
1, 239457, Note_on_c, 0, 72, 76
1, 239471, Control_c, 0, 64, 77
1, 239477, Note_off_c, 0, 72, 69
1, 239486, Control_c, 0, 64, 70
1, 239508, Control_c, 0, 64, 65
1, 239523, Control_c, 0, 64, 60
1, 239538, Control_c, 0, 64, 57
1, 239550, Note_on_c, 0, 72, 69
1, 239553, Control_c, 0, 64, 56
1, 239565, Note_off_c, 0, 72, 69
1, 239568, Control_c, 0, 64, 55
1, 239583, Control_c, 0, 64, 53
1, 239598, Control_c, 0, 64, 47
1, 239613, Control_c, 0, 64, 36
1, 239625, Note_on_c, 0, 72, 72
1, 239628, Control_c, 0, 64, 14
1, 239642, Control_c, 0, 64, 0
1, 239651, Note_off_c, 0, 72, 60
1, 239830, Note_on_c, 0, 72, 62
1, 239848, Note_off_c, 0, 72, 65
1, 240039, Note_on_c, 0, 72, 59
1, 240042, Control_c, 0, 64, 57
1, 240057, Note_off_c, 0, 72, 64
1, 240057, Control_c, 0, 64, 67
1, 240072, Control_c, 0, 64, 72
1, 240087, Control_c, 0, 64, 76
1, 240102, Control_c, 0, 64, 79
1, 240116, Control_c, 0, 64, 81
1, 240131, Control_c, 0, 64, 83
1, 240146, Control_c, 0, 64, 84
1, 240161, Control_c, 0, 64, 86
1, 240176, Control_c, 0, 64, 86
1, 240191, Control_c, 0, 64, 87
1, 240235, Control_c, 0, 64, 87
1, 240257, Control_c, 0, 64, 88
1, 240271, Control_c, 0, 64, 88
1, 240286, Control_c, 0, 64, 89
1, 240316, Control_c, 0, 64, 90
1, 240361, Control_c, 0, 64, 90
1, 240447, Note_on_c, 0, 67, 56
1, 240480, Note_off_c, 0, 67, 61
1, 240480, Control_c, 0, 64, 91
1, 240495, Control_c, 0, 64, 91
1, 240510, Control_c, 0, 64, 93
1, 240525, Control_c, 0, 64, 95
1, 240540, Control_c, 0, 64, 97
1, 240554, Control_c, 0, 64, 98
1, 240569, Control_c, 0, 64, 99
1, 240584, Control_c, 0, 64, 99
1, 240599, Control_c, 0, 64, 100
1, 240835, Control_c, 0, 64, 100
1, 240860, Note_on_c, 0, 79, 62
1, 240880, Control_c, 0, 64, 101
1, 240894, Control_c, 0, 64, 101
1, 240900, Note_off_c, 0, 79, 57
1, 240909, Control_c, 0, 64, 102
1, 240924, Control_c, 0, 64, 105
1, 240939, Control_c, 0, 64, 108
1, 240954, Control_c, 0, 64, 112
1, 240969, Control_c, 0, 64, 114
1, 240984, Control_c, 0, 64, 115
1, 241006, Control_c, 0, 64, 116
1, 241021, Control_c, 0, 64, 119
1, 241035, Control_c, 0, 64, 124
1, 241050, Control_c, 0, 64, 127
1, 241273, Note_on_c, 0, 76, 69
1, 241297, Note_off_c, 0, 76, 65
1, 241655, Note_on_c, 0, 78, 90
1, 241658, Control_c, 0, 64, 110
1, 241663, Note_on_c, 0, 67, 74
1, 241673, Control_c, 0, 64, 87
1, 241688, Note_off_c, 0, 67, 66
1, 241688, Control_c, 0, 64, 71
1, 241702, Control_c, 0, 64, 47
1, 241717, Control_c, 0, 64, 0
1, 241877, Note_on_c, 0, 67, 70
1, 241902, Note_off_c, 0, 67, 68
1, 241962, Note_on_c, 0, 67, 67
1, 241987, Note_off_c, 0, 67, 63
1, 242041, Note_on_c, 0, 67, 71
1, 242061, Note_off_c, 0, 67, 65
1, 242258, Note_on_c, 0, 67, 45
1, 242295, Note_off_c, 0, 67, 0
1, 242309, Note_on_c, 0, 67, 55
1, 242342, Note_off_c, 0, 67, 63
1, 242392, Note_on_c, 0, 69, 77
1, 242413, Note_off_c, 0, 69, 71
1, 242600, Note_on_c, 0, 67, 76
1, 242621, Note_off_c, 0, 67, 69
1, 242726, Note_off_c, 0, 78, 53
1, 242772, Note_on_c, 0, 65, 77
1, 242794, Note_off_c, 0, 65, 71
1, 242954, Note_on_c, 0, 78, 78
1, 242969, Note_on_c, 0, 72, 64
1, 242975, Note_off_c, 0, 78, 68
1, 242986, Note_off_c, 0, 72, 65
1, 243039, Note_on_c, 0, 78, 75
1, 243061, Note_off_c, 0, 78, 67
1, 243125, Note_on_c, 0, 78, 82
1, 243129, Note_on_c, 0, 71, 71
1, 243456, Note_on_c, 0, 60, 48
1, 243492, Note_on_c, 0, 62, 61
1, 243512, Note_off_c, 0, 60, 62
1, 243529, Note_off_c, 0, 62, 64
1, 243530, Note_on_c, 0, 64, 71
1, 243555, Note_off_c, 0, 64, 69
1, 243562, Note_on_c, 0, 65, 78
1, 243584, Note_off_c, 0, 65, 71
1, 243886, Note_on_c, 0, 60, 59
1, 243929, Note_on_c, 0, 62, 54
1, 243961, Note_off_c, 0, 60, 64
1, 243965, Note_on_c, 0, 64, 61
1, 243980, Note_off_c, 0, 62, 61
1, 243994, Note_off_c, 0, 64, 67
1, 244006, Note_on_c, 0, 65, 65
1, 244017, Control_c, 0, 64, 14
1, 244032, Control_c, 0, 64, 41
1, 244042, Note_off_c, 0, 78, 59
1, 244046, Control_c, 0, 64, 54
1, 244061, Control_c, 0, 64, 60
1, 244076, Control_c, 0, 64, 62
1, 244150, Control_c, 0, 64, 61
1, 244179, Control_c, 0, 64, 60
1, 244194, Control_c, 0, 64, 57
1, 244209, Control_c, 0, 64, 51
1, 244212, Note_on_c, 0, 72, 60
1, 244224, Control_c, 0, 64, 36
1, 244230, Note_off_c, 0, 72, 66
1, 244239, Control_c, 0, 64, 0
1, 244293, Note_on_c, 0, 72, 70
1, 244317, Note_off_c, 0, 72, 69
1, 244401, Note_on_c, 0, 72, 54
1, 244420, Note_off_c, 0, 72, 63
1, 244619, Note_on_c, 0, 72, 41
1, 244644, Note_off_c, 0, 72, 58
1, 244850, Note_off_c, 0, 71, 41
1, 244868, Note_on_c, 0, 70, 41
1, 244875, Note_on_c, 0, 77, 45
1, 244905, Note_off_c, 0, 65, 61
1, 244973, Control_c, 0, 64, 41
1, 244988, Control_c, 0, 64, 58
1, 245002, Control_c, 0, 64, 63
1, 245017, Control_c, 0, 64, 65
1, 245032, Control_c, 0, 64, 67
1, 245047, Control_c, 0, 64, 68
1, 245062, Control_c, 0, 64, 69
1, 245077, Control_c, 0, 64, 70
1, 245092, Control_c, 0, 64, 72
1, 245106, Control_c, 0, 64, 74
1, 245122, Control_c, 0, 64, 76
1, 245137, Control_c, 0, 64, 78
1, 245151, Control_c, 0, 64, 79
1, 245166, Control_c, 0, 64, 81
1, 245181, Control_c, 0, 64, 82
1, 245196, Control_c, 0, 64, 83
1, 245211, Control_c, 0, 64, 85
1, 245226, Control_c, 0, 64, 86
1, 245241, Control_c, 0, 64, 87
1, 245256, Control_c, 0, 64, 88
1, 245270, Control_c, 0, 64, 89
1, 245284, Control_c, 0, 64, 93
1, 245299, Control_c, 0, 64, 103
1, 245314, Control_c, 0, 64, 127
1, 245834, Note_off_c, 0, 77, 37
1, 245881, Note_on_c, 0, 34, 28
1, 245891, Note_off_c, 0, 70, 50
1, 245905, Note_on_c, 0, 21, 33
1, 246066, Note_off_c, 0, 34, 40
1, 246076, Note_off_c, 0, 21, 31
1, 246646, Poly_aftertouch_c, 0, 34, 127
1, 246708, Poly_aftertouch_c, 0, 26, 127
1, 246861, Poly_aftertouch_c, 0, 26, 0
1, 247158, Note_on_c, 0, 36, 42
1, 247188, Poly_aftertouch_c, 0, 34, 0
1, 247410, Note_off_c, 0, 36, 39
1, 247411, Note_on_c, 0, 38, 40
1, 248144, Note_on_c, 0, 34, 41
1, 248149, Note_on_c, 0, 21, 40
1, 248222, Note_off_c, 0, 21, 55
1, 248233, Note_off_c, 0, 34, 57
1, 248345, Note_on_c, 0, 40, 40
1, 248359, Note_off_c, 0, 38, 41
1, 248436, Note_on_c, 0, 41, 48
1, 248478, Note_off_c, 0, 40, 34
1, 248526, Note_off_c, 0, 41, 57
1, 248535, Note_on_c, 0, 46, 49
1, 248602, Note_off_c, 0, 46, 53
1, 248745, Note_on_c, 0, 46, 47
1, 248788, Note_off_c, 0, 46, 59
1, 248951, Note_on_c, 0, 48, 50
1, 249119, Note_off_c, 0, 48, 37
1, 249163, Note_on_c, 0, 55, 45
1, 249207, Note_off_c, 0, 55, 62
1, 249572, Note_on_c, 0, 78, 69
1, 249593, Note_off_c, 0, 78, 69
1, 249797, Note_on_c, 0, 34, 44
1, 249798, Note_on_c, 0, 78, 63
1, 249801, Note_on_c, 0, 21, 50
1, 249816, Note_off_c, 0, 78, 67
1, 249836, Note_off_c, 0, 34, 55
1, 249845, Note_off_c, 0, 21, 44
1, 249879, Note_on_c, 0, 78, 73
1, 249901, Note_off_c, 0, 78, 70
1, 249980, Note_on_c, 0, 78, 67
1, 250006, Note_off_c, 0, 78, 66
1, 250192, Note_on_c, 0, 78, 78
1, 250234, Note_off_c, 0, 78, 57
1, 250392, Note_on_c, 0, 78, 74
1, 250401, Note_on_c, 0, 53, 54
1, 250568, Note_off_c, 0, 78, 52
1, 250588, Note_on_c, 0, 73, 78
1, 250644, Note_off_c, 0, 73, 59
1, 250746, Note_off_c, 0, 53, 58
1, 250823, Note_on_c, 0, 84, 77
1, 250831, Note_on_c, 0, 52, 51
1, 250884, Note_off_c, 0, 52, 62
1, 251246, Note_on_c, 0, 82, 74
1, 251280, Note_off_c, 0, 84, 62
1, 251440, Note_on_c, 0, 21, 61
1, 251452, Note_on_c, 0, 34, 57
1, 251480, Note_off_c, 0, 21, 56
1, 251492, Note_off_c, 0, 34, 62
1, 251676, Note_on_c, 0, 45, 45
1, 251832, Note_off_c, 0, 82, 37
1, 251855, Note_on_c, 0, 47, 47
1, 251865, Note_off_c, 0, 45, 47
1, 252055, Note_on_c, 0, 77, 61
1, 252064, Note_on_c, 0, 48, 51
1, 252065, Note_off_c, 0, 47, 61
1, 252115, Note_off_c, 0, 77, 55
1, 252265, Note_on_c, 0, 77, 64
1, 252435, Note_off_c, 0, 77, 38
1, 252458, Note_on_c, 0, 50, 60
1, 252545, Note_off_c, 0, 48, 55
1, 252642, Note_on_c, 0, 77, 68
1, 252696, Note_off_c, 0, 77, 56
1, 252810, Note_off_c, 0, 50, 60
1, 252827, Note_on_c, 0, 52, 73
1, 252833, Note_on_c, 0, 77, 70
1, 252853, Note_off_c, 0, 52, 65
1, 253055, Note_on_c, 0, 21, 65
1, 253063, Note_off_c, 0, 77, 53
1, 253064, Note_on_c, 0, 34, 54
1, 253064, Note_on_c, 0, 75, 58
1, 253093, Note_off_c, 0, 34, 56
1, 253098, Note_off_c, 0, 21, 47
1, 253134, Note_off_c, 0, 75, 52
1, 253145, Note_on_c, 0, 74, 66
1, 253227, Note_off_c, 0, 74, 61
1, 253244, Note_on_c, 0, 75, 68
1, 253268, Note_on_c, 0, 53, 73
1, 253451, Note_on_c, 0, 70, 59
1, 253477, Note_off_c, 0, 70, 65
1, 253539, Note_on_c, 0, 70, 68
1, 253564, Note_off_c, 0, 70, 67
1, 253608, Note_off_c, 0, 53, 63
1, 253626, Note_on_c, 0, 70, 73
1, 253661, Note_off_c, 0, 70, 59
1, 253811, Note_on_c, 0, 47, 53
1, 253840, Note_on_c, 0, 70, 62
1, 253866, Note_off_c, 0, 70, 66
1, 253897, Note_off_c, 0, 47, 51
1, 253927, Note_on_c, 0, 49, 63
1, 254003, Control_c, 0, 64, 99
1, 254018, Control_c, 0, 64, 87
1, 254027, Note_off_c, 0, 49, 60
1, 254032, Control_c, 0, 64, 84
1, 254046, Note_on_c, 0, 70, 66
1, 254047, Control_c, 0, 64, 87
1, 254061, Note_on_c, 0, 50, 63
1, 254062, Control_c, 0, 64, 93
1, 254077, Control_c, 0, 64, 104
1, 254092, Control_c, 0, 64, 127
1, 254166, Note_off_c, 0, 50, 39
1, 254309, Note_off_c, 0, 75, 57
1, 254327, Note_on_c, 0, 38, 59
1, 254331, Note_off_c, 0, 70, 58
1, 254360, Note_off_c, 0, 38, 63
1, 254449, Note_on_c, 0, 38, 63
1, 254487, Note_off_c, 0, 38, 62
1, 254832, Note_on_c, 0, 21, 59
1, 254840, Note_on_c, 0, 40, 67
1, 254847, Note_on_c, 0, 34, 62
1, 254868, Note_off_c, 0, 40, 65
1, 254876, Note_off_c, 0, 21, 46
1, 254879, Note_off_c, 0, 34, 60
1, 255039, Note_on_c, 0, 41, 70
1, 255211, Note_off_c, 0, 41, 55
1, 255239, Note_on_c, 0, 43, 68
1, 255239, Note_on_c, 0, 80, 75
1, 255267, Note_off_c, 0, 80, 59
1, 255424, Note_off_c, 0, 43, 56
1, 255426, Note_on_c, 0, 80, 67
1, 255450, Note_on_c, 0, 45, 61
1, 255450, Note_off_c, 0, 80, 68
1, 255508, Note_on_c, 0, 80, 79
1, 255596, Note_on_c, 0, 78, 76
1, 255617, Note_on_c, 0, 47, 72
1, 255624, Note_off_c, 0, 80, 53
1, 255629, Note_off_c, 0, 45, 59
1, 255754, Note_off_c, 0, 78, 57
1, 255798, Note_on_c, 0, 71, 63
1, 255884, Note_off_c, 0, 71, 59
1, 255982, Note_on_c, 0, 72, 71
1, 255996, Note_on_c, 0, 54, 67
1, 256003, Note_off_c, 0, 72, 70
1, 256020, Note_off_c, 0, 54, 67
1, 256030, Note_off_c, 0, 47, 63
1, 256289, Note_on_c, 0, 54, 71
1, 256318, Note_off_c, 0, 54, 66
1, 256338, Control_c, 0, 64, 96
1, 256353, Control_c, 0, 64, 78
1, 256368, Control_c, 0, 64, 71
1, 256371, Note_on_c, 0, 54, 74
1, 256382, Control_c, 0, 64, 72
1, 256396, Note_on_c, 0, 21, 70
1, 256397, Note_on_c, 0, 34, 67
1, 256397, Control_c, 0, 64, 78
1, 256412, Control_c, 0, 64, 91
1, 256426, Control_c, 0, 64, 110
1, 256430, Note_off_c, 0, 34, 64
1, 256431, Note_off_c, 0, 21, 56
1, 256441, Control_c, 0, 64, 127
1, 256572, Note_off_c, 0, 54, 61
1, 256579, Note_on_c, 0, 56, 67
1, 256777, Note_on_c, 0, 58, 71
1, 256791, Note_off_c, 0, 56, 62
1, 256864, Control_c, 0, 67, 127
1, 256879, Control_c, 0, 67, 126
1, 256894, Control_c, 0, 67, 126
1, 256938, Control_c, 0, 67, 125
1, 256961, Note_on_c, 0, 48, 67
1, 256982, Control_c, 0, 67, 125
1, 257042, Control_c, 0, 67, 124
1, 257087, Control_c, 0, 67, 124
1, 257117, Control_c, 0, 67, 123
1, 257146, Control_c, 0, 67, 123
1, 257159, Note_on_c, 0, 43, 68
1, 257176, Control_c, 0, 67, 122
1, 257191, Control_c, 0, 67, 121
1, 257196, Note_off_c, 0, 43, 61
1, 257204, Note_off_c, 0, 58, 33
1, 257206, Control_c, 0, 67, 121
1, 257250, Control_c, 0, 67, 120
1, 257347, Note_on_c, 0, 41, 63
1, 257369, Control_c, 0, 67, 121
1, 257398, Control_c, 0, 67, 121
1, 257409, Note_off_c, 0, 41, 60
1, 257430, Note_on_c, 0, 43, 64
1, 257443, Control_c, 0, 64, 101
1, 257457, Control_c, 0, 64, 79
1, 257480, Control_c, 0, 64, 67
1, 257480, Control_c, 0, 67, 122
1, 257495, Control_c, 0, 64, 61
1, 257510, Control_c, 0, 64, 64
1, 257510, Control_c, 0, 67, 122
1, 257525, Control_c, 0, 64, 69
1, 257525, Control_c, 0, 67, 123
1, 257531, Note_off_c, 0, 43, 62
1, 257537, Note_on_c, 0, 57, 55
1, 257539, Control_c, 0, 64, 78
1, 257540, Note_on_c, 0, 44, 71
1, 257554, Control_c, 0, 64, 90
1, 257569, Control_c, 0, 64, 114
1, 257569, Control_c, 0, 67, 123
1, 257570, Note_off_c, 0, 44, 66
1, 257583, Control_c, 0, 64, 127
1, 257744, Note_on_c, 0, 55, 54
1, 257746, Control_c, 0, 67, 123
1, 257792, Note_off_c, 0, 57, 37
1, 257805, Control_c, 0, 67, 122
1, 257865, Control_c, 0, 67, 122
1, 257984, Control_c, 0, 67, 121
1, 258007, Note_on_c, 0, 51, 58
1, 258017, Note_off_c, 0, 55, 55
1, 258018, Note_on_c, 0, 21, 69
1, 258020, Note_on_c, 0, 34, 65
1, 258028, Note_off_c, 0, 48, 52
1, 258029, Control_c, 0, 67, 122
1, 258056, Note_off_c, 0, 34, 62
1, 258058, Note_off_c, 0, 21, 58
1, 258059, Control_c, 0, 67, 122
1, 258073, Control_c, 0, 67, 123
1, 258118, Control_c, 0, 67, 123
1, 258162, Control_c, 0, 67, 124
1, 258177, Control_c, 0, 67, 124
1, 258206, Control_c, 0, 67, 125
1, 258228, Control_c, 0, 67, 126
1, 258243, Control_c, 0, 67, 126
1, 258258, Control_c, 0, 67, 127
1, 258273, Control_c, 0, 67, 127
1, 258798, Poly_aftertouch_c, 0, 44, 127
1, 258909, Poly_aftertouch_c, 0, 34, 127
1, 258911, Control_c, 0, 64, 116
1, 258926, Control_c, 0, 64, 106
1, 258941, Control_c, 0, 64, 96
1, 258956, Control_c, 0, 64, 86
1, 258977, Control_c, 0, 64, 75
1, 258991, Note_on_c, 0, 21, 3
1, 258992, Control_c, 0, 64, 64
1, 259007, Control_c, 0, 64, 41
1, 259022, Control_c, 0, 64, 34
1, 259036, Control_c, 0, 64, 48
1, 259051, Control_c, 0, 64, 59
1, 259066, Control_c, 0, 64, 65
1, 259081, Control_c, 0, 64, 70
1, 259096, Control_c, 0, 64, 77
1, 259111, Control_c, 0, 64, 85
1, 259126, Control_c, 0, 64, 96
1, 259141, Control_c, 0, 64, 110
1, 259155, Control_c, 0, 64, 127
1, 259245, Poly_aftertouch_c, 0, 44, 0
1, 259299, Note_off_c, 0, 51, 59
1, 259622, Note_off_c, 0, 21, 35
1, 259671, Poly_aftertouch_c, 0, 34, 0
1, 259741, Control_c, 0, 67, 121
1, 259756, Control_c, 0, 67, 112
1, 259770, Control_c, 0, 67, 97
1, 259785, Control_c, 0, 67, 83
1, 259800, Control_c, 0, 67, 71
1, 259815, Control_c, 0, 67, 62
1, 259830, Control_c, 0, 64, 97
1, 259830, Control_c, 0, 67, 56
1, 259845, Control_c, 0, 64, 76
1, 259845, Control_c, 0, 67, 53
1, 259859, Control_c, 0, 64, 61
1, 259859, Control_c, 0, 67, 51
1, 259874, Control_c, 0, 64, 0
1, 259874, Control_c, 0, 67, 49
1, 259889, Control_c, 0, 67, 46
1, 259904, Control_c, 0, 67, 43
1, 259919, Control_c, 0, 67, 40
1, 259933, Control_c, 0, 67, 37
1, 259948, Control_c, 0, 64, 49
1, 259948, Control_c, 0, 67, 34
1, 259963, Note_on_c, 0, 34, 105
1, 259963, Control_c, 0, 64, 74
1, 259963, Control_c, 0, 67, 30
1, 259966, Note_on_c, 0, 21, 98
1, 259966, Note_on_c, 0, 74, 109
1, 259966, Note_on_c, 0, 84, 104
1, 259978, Control_c, 0, 64, 114
1, 259978, Control_c, 0, 67, 26
1, 259987, Note_off_c, 0, 34, 67
1, 259991, Note_off_c, 0, 21, 66
1, 259993, Control_c, 0, 64, 127
1, 259993, Control_c, 0, 67, 18
1, 259999, Note_off_c, 0, 74, 71
1, 260000, Note_off_c, 0, 84, 69
1, 260008, Control_c, 0, 67, 0
1, 260211, Note_on_c, 0, 74, 105
1, 260211, Note_on_c, 0, 84, 100
1, 260247, Note_off_c, 0, 84, 70
1, 260249, Note_off_c, 0, 74, 70
1, 260505, Note_on_c, 0, 74, 104
1, 260506, Note_on_c, 0, 84, 97
1, 260530, Note_off_c, 0, 84, 63
1, 260535, Note_off_c, 0, 74, 70
1, 260577, Note_on_c, 0, 84, 98
1, 260578, Note_on_c, 0, 74, 102
1, 260609, Note_off_c, 0, 74, 70
1, 260609, Note_off_c, 0, 84, 68
1, 260781, Note_on_c, 0, 74, 105
1, 260781, Note_on_c, 0, 84, 105
1, 260807, Note_off_c, 0, 84, 72
1, 260808, Note_off_c, 0, 74, 71
1, 260810, Note_on_c, 0, 72, 38
1, 260811, Note_off_c, 0, 72, 127
1, 260811, Poly_aftertouch_c, 0, 35, 127
1, 260858, Note_on_c, 0, 74, 110
1, 260858, Note_on_c, 0, 84, 104
1, 260885, Note_off_c, 0, 84, 70
1, 260894, Note_off_c, 0, 74, 71
1, 260938, Note_on_c, 0, 74, 100
1, 260938, Note_on_c, 0, 84, 102
1, 260985, Note_off_c, 0, 74, 62
1, 260988, Note_off_c, 0, 84, 60
1, 261039, Poly_aftertouch_c, 0, 35, 0
1, 261113, Control_c, 0, 64, 120
1, 261128, Control_c, 0, 64, 75
1, 261133, Note_on_c, 0, 38, 99
1, 261143, Control_c, 0, 64, 0
1, 261162, Note_off_c, 0, 38, 66
1, 261341, Note_on_c, 0, 40, 98
1, 261351, Note_on_c, 0, 41, 76
1, 261364, Note_off_c, 0, 40, 71
1, 261372, Note_off_c, 0, 41, 62
1, 261531, Note_on_c, 0, 34, 112
1, 261533, Note_on_c, 0, 81, 108
1, 261534, Note_on_c, 0, 21, 101
1, 261567, Note_off_c, 0, 81, 71
1, 261579, Control_c, 0, 64, 69
1, 261594, Control_c, 0, 64, 77
1, 261609, Control_c, 0, 64, 83
1, 261624, Control_c, 0, 64, 88
1, 261639, Control_c, 0, 64, 94
1, 261643, Poly_aftertouch_c, 0, 22, 0
1, 261653, Control_c, 0, 64, 105
1, 261668, Control_c, 0, 64, 127
1, 261919, Note_on_c, 0, 79, 110
1, 261943, Note_off_c, 0, 79, 71
1, 262134, Poly_aftertouch_c, 0, 25, 127
1, 262293, Note_on_c, 0, 74, 118
1, 262324, Note_off_c, 0, 74, 72
1, 262485, Note_on_c, 0, 74, 113
1, 262521, Note_off_c, 0, 74, 70
1, 262696, Note_off_c, 0, 21, 55
1, 262802, Note_off_c, 0, 34, 51
1, 262825, Poly_aftertouch_c, 0, 25, 0
1, 262850, Note_on_c, 0, 85, 115
1, 262874, Note_off_c, 0, 85, 72
1, 262888, Note_on_c, 0, 86, 46
1, 262889, Note_off_c, 0, 86, 127
1, 263137, Control_c, 0, 64, 96
1, 263151, Control_c, 0, 64, 64
1, 263166, Control_c, 0, 64, 0
1, 263207, Note_on_c, 0, 32, 108
1, 263207, Note_on_c, 0, 39, 113
1, 263225, Note_off_c, 0, 39, 72
1, 263225, Control_c, 0, 64, 60
1, 263227, Note_off_c, 0, 32, 73
1, 263240, Control_c, 0, 64, 77
1, 263254, Control_c, 0, 64, 99
1, 263269, Control_c, 0, 64, 127
1, 263552, Note_on_c, 0, 51, 20
1, 263644, Note_on_c, 0, 44, 18
1, 264247, Control_c, 0, 64, 116
1, 264262, Control_c, 0, 64, 96
1, 264277, Control_c, 0, 64, 82
1, 264293, Control_c, 0, 64, 70
1, 264308, Control_c, 0, 64, 55
1, 264322, Control_c, 0, 64, 0
1, 264411, Control_c, 0, 67, 12
1, 264426, Control_c, 0, 67, 20
1, 264441, Control_c, 0, 67, 30
1, 264456, Control_c, 0, 67, 42
1, 264470, Control_c, 0, 67, 52
1, 264485, Control_c, 0, 67, 64
1, 264500, Control_c, 0, 67, 75
1, 264515, Control_c, 0, 67, 86
1, 264530, Control_c, 0, 67, 96
1, 264545, Control_c, 0, 67, 103
1, 264560, Control_c, 0, 67, 111
1, 264574, Control_c, 0, 67, 118
1, 264589, Control_c, 0, 67, 125
1, 264604, Control_c, 0, 67, 127
1, 264648, Control_c, 0, 64, 50
1, 264663, Control_c, 0, 64, 65
1, 264678, Control_c, 0, 64, 72
1, 264693, Control_c, 0, 64, 81
1, 264708, Control_c, 0, 64, 89
1, 264722, Control_c, 0, 64, 97
1, 264737, Control_c, 0, 64, 107
1, 264752, Control_c, 0, 64, 126
1, 264766, Control_c, 0, 64, 127
1, 264813, Note_off_c, 0, 51, 42
1, 264920, Note_off_c, 0, 44, 39
1, 265397, Control_c, 0, 64, 122
1, 265412, Control_c, 0, 64, 95
1, 265421, Note_on_c, 0, 84, 42
1, 265427, Control_c, 0, 64, 78
1, 265438, Note_on_c, 0, 76, 35
1, 265442, Control_c, 0, 64, 59
1, 265451, Note_on_c, 0, 52, 30
1, 265453, Note_on_c, 0, 79, 11
1, 265457, Note_on_c, 0, 36, 27
1, 265457, Control_c, 0, 64, 0
1, 265473, Note_on_c, 0, 43, 36
1, 265531, Control_c, 0, 64, 19
1, 265535, Note_off_c, 0, 84, 63
1, 265545, Control_c, 0, 64, 64
1, 265547, Note_off_c, 0, 79, 50
1, 265553, Note_off_c, 0, 76, 57
1, 265560, Control_c, 0, 64, 72
1, 265575, Control_c, 0, 64, 80
1, 265589, Control_c, 0, 64, 91
1, 265604, Control_c, 0, 64, 100
1, 265619, Control_c, 0, 64, 109
1, 265634, Control_c, 0, 64, 120
1, 265649, Control_c, 0, 64, 127
1, 265857, Note_on_c, 0, 61, 46
1, 265886, Note_off_c, 0, 61, 55
1, 266060, Note_on_c, 0, 61, 41
1, 266107, Note_off_c, 0, 61, 0
1, 266122, Note_on_c, 0, 61, 53
1, 266150, Note_off_c, 0, 61, 64
1, 266220, Note_on_c, 0, 61, 67
1, 266247, Note_off_c, 0, 61, 64
1, 266444, Note_on_c, 0, 56, 57
1, 266480, Note_off_c, 0, 56, 64
1, 266651, Note_on_c, 0, 68, 56
1, 266778, Note_off_c, 0, 68, 52
1, 267028, Control_c, 0, 64, 105
1, 267043, Control_c, 0, 64, 95
1, 267058, Control_c, 0, 64, 93
1, 267064, Note_on_c, 0, 65, 59
1, 267073, Control_c, 0, 64, 95
1, 267088, Control_c, 0, 64, 100
1, 267095, Note_off_c, 0, 65, 66
1, 267103, Control_c, 0, 64, 110
1, 267117, Control_c, 0, 64, 127
1, 267403, Note_off_c, 0, 52, 41
1, 267409, Note_off_c, 0, 36, 39
1, 267496, Control_c, 0, 64, 114
1, 267499, Note_on_c, 0, 79, 56
1, 267508, Note_on_c, 0, 76, 53
1, 267511, Control_c, 0, 64, 91
1, 267516, Note_on_c, 0, 72, 47
1, 267517, Note_on_c, 0, 67, 50
1, 267520, Note_off_c, 0, 43, 48
1, 267526, Control_c, 0, 64, 74
1, 267540, Control_c, 0, 64, 60
1, 267555, Control_c, 0, 64, 49
1, 267570, Control_c, 0, 64, 50
1, 267584, Control_c, 0, 64, 53
1, 267599, Control_c, 0, 64, 56
1, 267614, Control_c, 0, 64, 58
1, 267629, Control_c, 0, 64, 60
1, 267644, Control_c, 0, 64, 61
1, 267658, Control_c, 0, 64, 62
1, 267673, Control_c, 0, 64, 63
1, 267718, Control_c, 0, 64, 64
1, 267732, Control_c, 0, 64, 64
1, 267762, Control_c, 0, 64, 65
1, 267851, Control_c, 0, 64, 64
1, 267866, Control_c, 0, 64, 63
1, 267881, Control_c, 0, 64, 56
1, 267895, Control_c, 0, 64, 0
1, 267896, Note_on_c, 0, 27, 60
1, 267896, Note_on_c, 0, 39, 56
1, 267926, Note_off_c, 0, 39, 57
1, 267931, Note_off_c, 0, 27, 63
1, 268114, Note_on_c, 0, 39, 62
1, 268118, Note_on_c, 0, 27, 56
1, 268142, Note_off_c, 0, 39, 58
1, 268152, Note_off_c, 0, 27, 57
1, 268214, Note_on_c, 0, 39, 54
1, 268214, Note_on_c, 0, 27, 54
1, 268244, Note_off_c, 0, 39, 55
1, 268252, Note_off_c, 0, 27, 55
1, 268286, Note_on_c, 0, 27, 68
1, 268292, Note_on_c, 0, 39, 62
1, 268317, Note_off_c, 0, 27, 63
1, 268319, Note_off_c, 0, 39, 57
1, 268495, Note_on_c, 0, 39, 60
1, 268498, Note_on_c, 0, 27, 48
1, 268524, Note_off_c, 0, 39, 56
1, 268536, Note_off_c, 0, 27, 0
1, 268554, Note_on_c, 0, 27, 68
1, 268570, Note_on_c, 0, 39, 55
1, 268602, Note_off_c, 0, 27, 58
1, 268607, Note_off_c, 0, 39, 57
1, 268669, Note_on_c, 0, 41, 69
1, 268670, Note_on_c, 0, 29, 73
1, 268697, Note_off_c, 0, 29, 64
1, 268697, Note_off_c, 0, 41, 63
1, 268870, Note_on_c, 0, 39, 65
1, 268874, Note_on_c, 0, 27, 65
1, 268898, Note_off_c, 0, 39, 60
1, 268907, Note_off_c, 0, 27, 64
1, 269070, Note_on_c, 0, 37, 63
1, 269072, Note_on_c, 0, 25, 60
1, 269097, Note_off_c, 0, 37, 59
1, 269107, Note_off_c, 0, 25, 54
1, 269281, Note_on_c, 0, 32, 61
1, 269282, Note_on_c, 0, 44, 62
1, 269309, Note_off_c, 0, 44, 63
1, 269310, Note_off_c, 0, 32, 58
1, 269525, Note_on_c, 0, 31, 63
1, 269527, Note_on_c, 0, 43, 51
1, 269556, Note_off_c, 0, 31, 63
1, 269556, Note_off_c, 0, 43, 55
1, 270004, Note_off_c, 0, 79, 53
1, 270028, Note_off_c, 0, 67, 59
1, 270036, Note_off_c, 0, 76, 60
1, 270039, Control_c, 0, 64, 36
1, 270053, Note_on_c, 0, 34, 64
1, 270053, Control_c, 0, 64, 65
1, 270057, Note_off_c, 0, 72, 63
1, 270062, Note_on_c, 0, 21, 61
1, 270068, Control_c, 0, 64, 77
1, 270083, Control_c, 0, 64, 98
1, 270083, Control_c, 0, 67, 125
1, 270098, Control_c, 0, 64, 127
1, 270098, Control_c, 0, 67, 105
1, 270107, Note_off_c, 0, 34, 60
1, 270113, Control_c, 0, 67, 79
1, 270127, Control_c, 0, 67, 57
1, 270142, Control_c, 0, 67, 40
1, 270157, Control_c, 0, 67, 31
1, 270172, Control_c, 0, 67, 24
1, 270186, Control_c, 0, 67, 17
1, 270201, Control_c, 0, 67, 11
1, 270224, Control_c, 0, 67, 0
1, 270444, Note_on_c, 0, 32, 113
1, 270451, Note_on_c, 0, 39, 116
1, 270468, Note_off_c, 0, 39, 74
1, 270483, Note_off_c, 0, 21, 48
1, 270484, Note_off_c, 0, 32, 69
1, 270921, Control_c, 0, 67, 8
1, 270935, Control_c, 0, 67, 12
1, 270957, Control_c, 0, 67, 16
1, 270972, Control_c, 0, 67, 22
1, 270987, Control_c, 0, 67, 29
1, 271002, Control_c, 0, 67, 37
1, 271016, Control_c, 0, 67, 45
1, 271031, Control_c, 0, 67, 52
1, 271046, Control_c, 0, 67, 59
1, 271061, Control_c, 0, 67, 66
1, 271076, Control_c, 0, 67, 74
1, 271091, Control_c, 0, 67, 82
1, 271106, Control_c, 0, 67, 90
1, 271121, Control_c, 0, 67, 97
1, 271135, Control_c, 0, 67, 105
1, 271150, Control_c, 0, 67, 113
1, 271165, Control_c, 0, 67, 119
1, 271180, Control_c, 0, 67, 125
1, 271195, Control_c, 0, 67, 127
1, 271210, Poly_aftertouch_c, 0, 51, 127
1, 271216, Note_on_c, 0, 44, 25
1, 271839, Control_c, 0, 64, 116
1, 271854, Control_c, 0, 64, 108
1, 271869, Control_c, 0, 64, 101
1, 271884, Control_c, 0, 64, 96
1, 271899, Control_c, 0, 64, 91
1, 271914, Control_c, 0, 64, 85
1, 271929, Control_c, 0, 64, 80
1, 271944, Control_c, 0, 64, 75
1, 271958, Control_c, 0, 64, 70
1, 271973, Control_c, 0, 64, 66
1, 271988, Control_c, 0, 64, 64
1, 272003, Control_c, 0, 64, 64
1, 272047, Control_c, 0, 64, 63
1, 272062, Control_c, 0, 64, 63
1, 272077, Control_c, 0, 64, 62
1, 272091, Control_c, 0, 64, 62
1, 272106, Control_c, 0, 64, 61
1, 272121, Control_c, 0, 64, 60
1, 272136, Control_c, 0, 64, 58
1, 272151, Control_c, 0, 64, 57
1, 272165, Control_c, 0, 64, 55
1, 272180, Control_c, 0, 64, 53
1, 272195, Control_c, 0, 64, 49
1, 272210, Control_c, 0, 64, 46
1, 272224, Control_c, 0, 64, 44
1, 272240, Control_c, 0, 64, 42
1, 272255, Control_c, 0, 64, 39
1, 272270, Control_c, 0, 64, 33
1, 272286, Control_c, 0, 64, 26
1, 272301, Control_c, 0, 64, 11
1, 272316, Control_c, 0, 64, 0
1, 273168, Control_c, 0, 64, 19
1, 273183, Control_c, 0, 64, 38
1, 273204, Control_c, 0, 64, 51
1, 273219, Control_c, 0, 64, 60
1, 273234, Control_c, 0, 64, 64
1, 273249, Control_c, 0, 64, 66
1, 273264, Control_c, 0, 64, 67
1, 273279, Control_c, 0, 64, 69
1, 273294, Control_c, 0, 64, 70
1, 273309, Control_c, 0, 64, 72
1, 273324, Control_c, 0, 64, 75
1, 273338, Control_c, 0, 64, 79
1, 273353, Control_c, 0, 64, 86
1, 273368, Control_c, 0, 64, 92
1, 273383, Control_c, 0, 64, 100
1, 273398, Control_c, 0, 64, 109
1, 273412, Control_c, 0, 64, 127
1, 273422, Poly_aftertouch_c, 0, 51, 0
1, 273535, Note_off_c, 0, 44, 38
1, 274354, Note_on_c, 0, 76, 24
1, 274361, Note_on_c, 0, 79, 34
1, 274373, Note_on_c, 0, 52, 22
1, 274376, Note_on_c, 0, 43, 17
1, 274393, Note_on_c, 0, 67, 32
1, 274394, Note_on_c, 0, 36, 26
1, 274398, Note_on_c, 0, 72, 9
1, 274413, Control_c, 0, 64, 106
1, 274427, Control_c, 0, 64, 92
1, 274442, Control_c, 0, 64, 81
1, 274457, Control_c, 0, 64, 71
1, 274471, Control_c, 0, 64, 62
1, 274486, Control_c, 0, 64, 40
1, 274501, Control_c, 0, 64, 37
1, 274545, Control_c, 0, 64, 34
1, 274560, Control_c, 0, 64, 28
1, 274575, Control_c, 0, 64, 26
1, 274605, Control_c, 0, 64, 17
1, 274619, Control_c, 0, 64, 0
1, 274805, Control_c, 0, 64, 14
1, 274820, Control_c, 0, 64, 43
1, 274835, Control_c, 0, 64, 56
1, 274850, Control_c, 0, 64, 62
1, 274865, Control_c, 0, 64, 64
1, 274880, Control_c, 0, 64, 65
1, 274895, Control_c, 0, 64, 66
1, 274910, Control_c, 0, 64, 67
1, 274924, Control_c, 0, 64, 68
1, 274939, Control_c, 0, 64, 69
1, 274954, Control_c, 0, 64, 70
1, 274969, Control_c, 0, 64, 71
1, 274983, Control_c, 0, 64, 73
1, 274998, Control_c, 0, 64, 74
1, 275013, Control_c, 0, 64, 75
1, 275028, Control_c, 0, 64, 77
1, 275043, Control_c, 0, 64, 79
1, 275057, Control_c, 0, 64, 82
1, 275072, Control_c, 0, 64, 85
1, 275087, Control_c, 0, 64, 88
1, 275101, Control_c, 0, 64, 92
1, 275116, Control_c, 0, 64, 95
1, 275131, Control_c, 0, 64, 98
1, 275146, Control_c, 0, 64, 102
1, 275161, Control_c, 0, 64, 105
1, 275175, Control_c, 0, 64, 110
1, 275190, Control_c, 0, 64, 118
1, 275205, Control_c, 0, 64, 127
1, 275987, Note_off_c, 0, 52, 39
1, 276206, Note_off_c, 0, 79, 42
1, 276293, Note_off_c, 0, 72, 52
1, 276302, Note_off_c, 0, 76, 41
1, 276367, Note_off_c, 0, 67, 59
1, 276483, Note_off_c, 0, 36, 39
1, 276504, Note_off_c, 0, 43, 50
1, 276510, Control_c, 0, 64, 104
1, 276525, Control_c, 0, 64, 86
1, 276540, Control_c, 0, 64, 72
1, 276555, Control_c, 0, 64, 60
1, 276570, Control_c, 0, 64, 0
1, 276884, Note_on_c, 0, 60, 61
1, 276923, Note_off_c, 0, 60, 62
1, 276978, Note_on_c, 0, 62, 53
1, 277017, Note_off_c, 0, 62, 61
1, 277068, Note_on_c, 0, 60, 50
1, 277080, Note_on_c, 0, 40, 41
1, 277107, Note_off_c, 0, 60, 63
1, 277115, Note_off_c, 0, 40, 50
1, 277149, Note_on_c, 0, 62, 57
1, 277184, Note_off_c, 0, 62, 62
1, 277244, Note_on_c, 0, 67, 56
1, 277285, Note_off_c, 0, 67, 57
1, 277324, Note_on_c, 0, 69, 62
1, 277396, Note_off_c, 0, 69, 46
1, 277408, Note_on_c, 0, 50, 65
1, 277413, Note_on_c, 0, 67, 63
1, 277438, Note_off_c, 0, 50, 66
1, 277478, Note_off_c, 0, 67, 51
1, 277500, Note_on_c, 0, 69, 65
1, 277563, Note_off_c, 0, 69, 55
1, 277590, Note_on_c, 0, 65, 66
1, 277634, Note_off_c, 0, 65, 62
1, 277667, Note_on_c, 0, 67, 59
1, 277734, Note_off_c, 0, 67, 53
1, 277756, Note_on_c, 0, 52, 62
1, 277759, Note_on_c, 0, 65, 63
1, 277779, Note_off_c, 0, 52, 62
1, 277828, Note_off_c, 0, 65, 57
1, 277845, Note_on_c, 0, 67, 68
1, 277940, Note_on_c, 0, 59, 59
1, 277971, Note_off_c, 0, 59, 61
1, 277998, Note_off_c, 0, 67, 35
1, 278017, Note_on_c, 0, 60, 60
1, 278050, Note_off_c, 0, 60, 65
1, 278096, Note_on_c, 0, 47, 59
1, 278109, Note_on_c, 0, 59, 59
1, 278123, Note_off_c, 0, 47, 66
1, 278141, Note_off_c, 0, 59, 62
1, 278183, Note_on_c, 0, 60, 69
1, 278208, Note_off_c, 0, 60, 67
1, 278272, Note_on_c, 0, 62, 72
1, 278312, Note_off_c, 0, 62, 57
1, 278354, Note_on_c, 0, 64, 67
1, 278388, Note_off_c, 0, 64, 61
1, 278446, Note_on_c, 0, 62, 66
1, 278457, Note_on_c, 0, 45, 69
1, 278483, Note_off_c, 0, 45, 66
1, 278493, Note_off_c, 0, 62, 56
1, 278522, Note_on_c, 0, 64, 70
1, 278548, Note_off_c, 0, 64, 69
1, 278618, Note_on_c, 0, 65, 74
1, 278666, Note_off_c, 0, 65, 57
1, 278701, Note_on_c, 0, 67, 72
1, 278736, Note_off_c, 0, 67, 59
1, 278788, Note_on_c, 0, 59, 63
1, 278791, Note_on_c, 0, 65, 69
1, 278810, Note_off_c, 0, 59, 64
1, 278830, Note_off_c, 0, 65, 60
1, 278867, Note_on_c, 0, 67, 70
1, 278913, Note_off_c, 0, 67, 58
1, 278952, Note_on_c, 0, 69, 70
1, 278999, Note_off_c, 0, 69, 58
1, 279036, Note_on_c, 0, 71, 72
1, 279082, Note_off_c, 0, 71, 59
1, 279119, Note_on_c, 0, 69, 76
1, 279177, Note_off_c, 0, 69, 51
1, 279208, Note_on_c, 0, 71, 71
1, 279273, Note_off_c, 0, 71, 54
1, 279295, Note_on_c, 0, 72, 74
1, 279300, Note_on_c, 0, 54, 66
1, 279343, Note_off_c, 0, 72, 62
1, 279373, Note_on_c, 0, 65, 65
1, 279416, Note_off_c, 0, 65, 60
1, 279448, Note_on_c, 0, 72, 76
1, 279484, Note_off_c, 0, 72, 61
1, 279536, Note_on_c, 0, 65, 70
1, 279578, Note_off_c, 0, 65, 60
1, 279626, Note_on_c, 0, 55, 65
1, 279626, Note_on_c, 0, 81, 86
1, 279636, Note_off_c, 0, 54, 56
1, 279661, Note_off_c, 0, 81, 64
1, 279713, Note_on_c, 0, 67, 76
1, 279747, Note_off_c, 0, 67, 59
1, 279801, Note_on_c, 0, 81, 72
1, 279838, Note_off_c, 0, 81, 61
1, 279849, Note_on_c, 0, 79, 14
1, 279885, Note_on_c, 0, 67, 71
1, 279895, Note_off_c, 0, 79, 29
1, 279914, Note_off_c, 0, 67, 63
1, 279965, Note_off_c, 0, 55, 62
1, 279971, Note_on_c, 0, 79, 80
1, 279972, Note_on_c, 0, 57, 65
1, 280010, Note_off_c, 0, 79, 64
1, 280052, Note_on_c, 0, 65, 74
1, 280087, Note_off_c, 0, 65, 63
1, 280139, Note_on_c, 0, 77, 76
1, 280170, Note_off_c, 0, 77, 61
1, 280217, Note_on_c, 0, 64, 73
1, 280251, Note_off_c, 0, 64, 64
1, 280301, Note_off_c, 0, 57, 62
1, 280302, Note_on_c, 0, 67, 74
1, 280310, Note_on_c, 0, 59, 63
1, 280340, Note_off_c, 0, 67, 60
1, 280388, Note_on_c, 0, 69, 71
1, 280426, Note_off_c, 0, 69, 57
1, 280472, Note_on_c, 0, 67, 73
1, 280508, Note_off_c, 0, 67, 59
1, 280548, Note_on_c, 0, 69, 75
1, 280573, Note_off_c, 0, 69, 67
1, 280617, Note_on_c, 0, 60, 62
1, 280641, Note_on_c, 0, 71, 74
1, 280643, Note_off_c, 0, 59, 53
1, 280675, Note_off_c, 0, 71, 61
1, 280722, Note_on_c, 0, 72, 81
1, 280757, Note_off_c, 0, 72, 64
1, 280806, Note_on_c, 0, 71, 77
1, 280846, Note_off_c, 0, 71, 65
1, 280882, Note_on_c, 0, 72, 79
1, 280910, Note_off_c, 0, 72, 63
1, 280960, Note_off_c, 0, 60, 61
1, 280970, Note_on_c, 0, 62, 60
1, 280976, Note_on_c, 0, 74, 85
1, 281022, Note_off_c, 0, 74, 65
1, 281053, Note_on_c, 0, 76, 82
1, 281097, Note_off_c, 0, 76, 62
1, 281139, Note_on_c, 0, 74, 86
1, 281184, Note_off_c, 0, 74, 65
1, 281218, Note_on_c, 0, 76, 83
1, 281246, Note_off_c, 0, 76, 64
1, 281299, Note_on_c, 0, 64, 61
1, 281307, Note_on_c, 0, 77, 81
1, 281316, Note_off_c, 0, 62, 61
1, 281329, Control_c, 0, 64, 41
1, 281343, Control_c, 0, 64, 58
1, 281352, Note_off_c, 0, 77, 62
1, 281358, Control_c, 0, 64, 63
1, 281359, Note_off_c, 0, 64, 65
1, 281373, Control_c, 0, 64, 65
1, 281384, Note_on_c, 0, 79, 85
1, 281388, Control_c, 0, 64, 67
1, 281403, Control_c, 0, 64, 69
1, 281417, Control_c, 0, 64, 70
1, 281429, Note_off_c, 0, 79, 63
1, 281432, Control_c, 0, 64, 72
1, 281455, Control_c, 0, 64, 73
1, 281469, Control_c, 0, 64, 73
1, 281478, Note_on_c, 0, 81, 79
1, 281484, Control_c, 0, 64, 74
1, 281499, Control_c, 0, 64, 76
1, 281514, Control_c, 0, 64, 79
1, 281527, Note_off_c, 0, 81, 60
1, 281529, Control_c, 0, 64, 82
1, 281551, Note_on_c, 0, 83, 78
1, 281558, Control_c, 0, 64, 80
1, 281573, Control_c, 0, 64, 75
1, 281588, Control_c, 0, 64, 68
1, 281603, Control_c, 0, 64, 48
1, 281612, Note_off_c, 0, 83, 55
1, 281617, Control_c, 0, 64, 0
1, 281631, Note_on_c, 0, 81, 81
1, 281634, Note_on_c, 0, 45, 70
1, 281662, Note_off_c, 0, 81, 61
1, 281667, Note_off_c, 0, 45, 65
1, 281716, Note_on_c, 0, 47, 62
1, 281757, Note_off_c, 0, 47, 62
1, 281801, Note_on_c, 0, 45, 68
1, 281807, Note_on_c, 0, 81, 70
1, 281829, Note_off_c, 0, 81, 66
1, 281832, Note_off_c, 0, 45, 67
1, 281893, Note_on_c, 0, 47, 62
1, 281919, Note_off_c, 0, 47, 67
1, 281971, Note_on_c, 0, 81, 74
1, 281972, Note_on_c, 0, 48, 75
1, 281993, Note_off_c, 0, 81, 66
1, 282005, Note_off_c, 0, 48, 66
1, 282058, Note_on_c, 0, 50, 68
1, 282099, Note_off_c, 0, 50, 64
1, 282138, Note_on_c, 0, 81, 60
1, 282144, Note_on_c, 0, 48, 75
1, 282163, Note_off_c, 0, 81, 64
1, 282174, Note_off_c, 0, 48, 66
1, 282237, Note_on_c, 0, 50, 69
1, 282268, Note_off_c, 0, 50, 67
1, 282315, Note_on_c, 0, 81, 75
1, 282318, Note_on_c, 0, 52, 80
1, 282338, Note_off_c, 0, 81, 66
1, 282353, Note_off_c, 0, 52, 63
1, 282401, Note_on_c, 0, 53, 78
1, 282437, Note_off_c, 0, 53, 64
1, 282481, Note_on_c, 0, 52, 79
1, 282486, Note_on_c, 0, 81, 66
1, 282513, Note_off_c, 0, 81, 65
1, 282514, Note_off_c, 0, 52, 65
1, 282545, Control_c, 0, 67, 126
1, 282559, Control_c, 0, 67, 124
1, 282570, Note_on_c, 0, 53, 73
1, 282574, Control_c, 0, 67, 122
1, 282589, Control_c, 0, 67, 119
1, 282596, Note_off_c, 0, 53, 68
1, 282604, Control_c, 0, 67, 116
1, 282618, Control_c, 0, 67, 111
1, 282633, Control_c, 0, 67, 106
1, 282642, Note_on_c, 0, 55, 87
1, 282648, Control_c, 0, 67, 100
1, 282651, Note_on_c, 0, 81, 78
1, 282664, Control_c, 0, 67, 92
1, 282671, Note_off_c, 0, 81, 73
1, 282679, Control_c, 0, 67, 85
1, 282680, Note_off_c, 0, 55, 65
1, 282694, Control_c, 0, 67, 79
1, 282708, Control_c, 0, 67, 71
1, 282723, Control_c, 0, 67, 66
1, 282731, Note_on_c, 0, 57, 74
1, 282738, Control_c, 0, 67, 62
1, 282753, Control_c, 0, 67, 59
1, 282768, Control_c, 0, 67, 57
1, 282770, Note_off_c, 0, 57, 61
1, 282782, Control_c, 0, 67, 56
1, 282812, Control_c, 0, 67, 55
1, 282813, Note_on_c, 0, 55, 77
1, 282818, Note_on_c, 0, 81, 78
1, 282839, Note_off_c, 0, 81, 70
1, 282841, Note_off_c, 0, 55, 68
1, 282873, Note_on_c, 0, 57, 78
1, 282894, Note_on_c, 0, 81, 82
1, 282898, Note_off_c, 0, 57, 65
1, 282913, Note_off_c, 0, 81, 67
1, 282953, Control_c, 0, 67, 56
1, 282968, Control_c, 0, 67, 56
1, 282977, Note_on_c, 0, 47, 80
1, 282988, Note_on_c, 0, 81, 82
1, 283003, Note_off_c, 0, 47, 69
1, 283005, Note_off_c, 0, 81, 73
1, 283012, Control_c, 0, 67, 57
1, 283065, Note_on_c, 0, 48, 76
1, 283107, Note_off_c, 0, 48, 61
1, 283149, Note_on_c, 0, 47, 75
1, 283162, Note_on_c, 0, 81, 75
1, 283176, Note_off_c, 0, 81, 71
1, 283180, Note_off_c, 0, 47, 68
1, 283232, Note_on_c, 0, 48, 76
1, 283262, Note_off_c, 0, 48, 66
1, 283319, Note_on_c, 0, 81, 87
1, 283321, Note_on_c, 0, 50, 86
1, 283337, Note_off_c, 0, 81, 68
1, 283355, Note_off_c, 0, 50, 64
1, 283405, Note_on_c, 0, 52, 78
1, 283442, Note_off_c, 0, 52, 62
1, 283489, Note_on_c, 0, 81, 86
1, 283489, Note_on_c, 0, 50, 84
1, 283507, Note_off_c, 0, 81, 68
1, 283523, Note_off_c, 0, 50, 65
1, 283572, Note_on_c, 0, 52, 83
1, 283572, Note_on_c, 0, 81, 89
1, 283590, Note_off_c, 0, 81, 68
1, 283600, Note_off_c, 0, 52, 67
1, 283653, Note_on_c, 0, 53, 91
1, 283655, Note_on_c, 0, 81, 94
1, 283676, Note_off_c, 0, 81, 63
1, 283696, Note_off_c, 0, 53, 64
1, 283744, Note_on_c, 0, 55, 81
1, 283791, Note_off_c, 0, 55, 62
1, 283831, Note_on_c, 0, 53, 90
1, 283832, Note_on_c, 0, 81, 94
1, 283850, Control_c, 0, 67, 56
1, 283854, Note_off_c, 0, 81, 63
1, 283869, Note_off_c, 0, 53, 64
1, 283894, Control_c, 0, 67, 56
1, 283916, Note_on_c, 0, 55, 81
1, 283939, Control_c, 0, 67, 55
1, 283950, Note_off_c, 0, 55, 64
1, 283999, Note_on_c, 0, 79, 90
1, 284001, Note_on_c, 0, 57, 86
1, 284025, Note_off_c, 0, 79, 62
1, 284041, Note_off_c, 0, 57, 63
1, 284084, Note_on_c, 0, 59, 81
1, 284132, Note_off_c, 0, 59, 62
1, 284146, Control_c, 0, 67, 55
1, 284160, Note_on_c, 0, 79, 93
1, 284161, Control_c, 0, 67, 54
1, 284168, Note_on_c, 0, 57, 84
1, 284189, Note_off_c, 0, 79, 64
1, 284191, Control_c, 0, 67, 54
1, 284205, Note_off_c, 0, 57, 65
1, 284206, Control_c, 0, 67, 53
1, 284220, Control_c, 0, 67, 51
1, 284235, Control_c, 0, 67, 49
1, 284250, Control_c, 0, 67, 47
1, 284251, Note_on_c, 0, 59, 80
1, 284266, Control_c, 0, 67, 44
1, 284280, Control_c, 0, 67, 42
1, 284284, Note_off_c, 0, 59, 62
1, 284295, Control_c, 0, 67, 38
1, 284310, Control_c, 0, 67, 32
1, 284325, Control_c, 0, 67, 27
1, 284329, Note_on_c, 0, 77, 93
1, 284333, Note_on_c, 0, 60, 86
1, 284340, Control_c, 0, 67, 23
1, 284354, Control_c, 0, 67, 21
1, 284361, Note_off_c, 0, 77, 65
1, 284369, Control_c, 0, 67, 20
1, 284376, Note_off_c, 0, 60, 64
1, 284414, Note_on_c, 0, 62, 82
1, 284471, Note_off_c, 0, 62, 61
1, 284499, Note_on_c, 0, 77, 89
1, 284502, Note_on_c, 0, 60, 85
1, 284530, Note_off_c, 0, 77, 60
1, 284544, Note_off_c, 0, 60, 65
1, 284584, Control_c, 0, 67, 20
1, 284589, Note_on_c, 0, 62, 80
1, 284599, Control_c, 0, 67, 19
1, 284629, Control_c, 0, 67, 19
1, 284635, Note_off_c, 0, 62, 61
1, 284643, Control_c, 0, 67, 17
1, 284658, Control_c, 0, 67, 14
1, 284668, Note_on_c, 0, 76, 88
1, 284671, Note_on_c, 0, 64, 88
1, 284673, Control_c, 0, 67, 0
1, 284697, Note_off_c, 0, 76, 61
1, 284747, Note_on_c, 0, 65, 89
1, 284761, Note_off_c, 0, 64, 63
1, 284814, Note_off_c, 0, 65, 59
1, 284819, Note_on_c, 0, 76, 86
1, 284824, Note_on_c, 0, 67, 92
1, 284842, Note_off_c, 0, 76, 66
1, 284872, Note_off_c, 0, 67, 64
1, 284908, Note_on_c, 0, 69, 86
1, 284934, Note_off_c, 0, 69, 63
1, 284991, Note_on_c, 0, 67, 88
1, 284991, Note_on_c, 0, 74, 90
1, 285012, Note_off_c, 0, 74, 69
1, 285016, Note_off_c, 0, 67, 63
1, 285043, Control_c, 0, 67, 9
1, 285059, Control_c, 0, 67, 11
1, 285074, Control_c, 0, 67, 12
1, 285089, Control_c, 0, 67, 14
1, 285104, Control_c, 0, 67, 25
1, 285118, Control_c, 0, 67, 40
1, 285133, Control_c, 0, 67, 53
1, 285148, Control_c, 0, 67, 63
1, 285163, Control_c, 0, 67, 69
1, 285181, Note_on_c, 0, 37, 78
1, 285185, Control_c, 0, 67, 73
1, 285194, Note_on_c, 0, 74, 61
1, 285195, Note_on_c, 0, 67, 60
1, 285200, Control_c, 0, 67, 79
1, 285207, Note_off_c, 0, 37, 66
1, 285214, Note_off_c, 0, 74, 66
1, 285215, Control_c, 0, 67, 85
1, 285216, Note_off_c, 0, 67, 62
1, 285229, Control_c, 0, 67, 90
1, 285244, Control_c, 0, 67, 94
1, 285259, Control_c, 0, 67, 97
1, 285274, Control_c, 0, 67, 101
1, 285289, Control_c, 0, 67, 106
1, 285304, Control_c, 0, 67, 112
1, 285318, Control_c, 0, 67, 118
1, 285333, Control_c, 0, 67, 123
1, 285348, Control_c, 0, 67, 127
1, 285365, Note_on_c, 0, 56, 72
1, 285379, Note_on_c, 0, 74, 45
1, 285381, Note_on_c, 0, 67, 43
1, 285391, Note_off_c, 0, 56, 67
1, 285406, Note_off_c, 0, 74, 58
1, 285411, Note_off_c, 0, 67, 50
1, 285529, Note_on_c, 0, 41, 60
1, 285531, Note_on_c, 0, 74, 61
1, 285536, Note_on_c, 0, 67, 58
1, 285557, Note_off_c, 0, 41, 62
1, 285559, Note_off_c, 0, 74, 67
1, 285565, Note_off_c, 0, 67, 65
1, 285708, Note_on_c, 0, 28, 67
1, 285717, Note_on_c, 0, 74, 60
1, 285719, Note_on_c, 0, 67, 50
1, 285737, Note_off_c, 0, 74, 64
1, 285745, Note_off_c, 0, 67, 58
1, 285802, Note_off_c, 0, 28, 36
1, 285884, Note_on_c, 0, 37, 74
1, 285894, Note_on_c, 0, 67, 53
1, 285897, Note_on_c, 0, 74, 51
1, 285911, Note_off_c, 0, 37, 66
1, 285915, Note_off_c, 0, 67, 60
1, 285920, Note_off_c, 0, 74, 61
1, 286067, Note_on_c, 0, 54, 74
1, 286071, Note_on_c, 0, 74, 53
1, 286079, Note_on_c, 0, 67, 41
1, 286095, Note_off_c, 0, 74, 62
1, 286100, Note_off_c, 0, 54, 64
1, 286109, Note_off_c, 0, 67, 51
1, 286242, Note_on_c, 0, 45, 72
1, 286242, Note_on_c, 0, 67, 59
1, 286246, Note_on_c, 0, 74, 61
1, 286265, Note_off_c, 0, 45, 67
1, 286268, Note_off_c, 0, 67, 63
1, 286274, Note_off_c, 0, 74, 67
1, 286401, Note_on_c, 0, 63, 88
1, 286414, Note_on_c, 0, 74, 62
1, 286419, Note_on_c, 0, 67, 56
1, 286421, Note_off_c, 0, 63, 71
1, 286440, Note_off_c, 0, 67, 61
1, 286443, Note_off_c, 0, 74, 67
1, 286571, Note_on_c, 0, 68, 92
1, 286582, Note_on_c, 0, 67, 60
1, 286583, Note_on_c, 0, 74, 66
1, 286593, Note_off_c, 0, 68, 67
1, 286609, Note_off_c, 0, 74, 70
1, 286611, Note_off_c, 0, 67, 65
1, 286712, Control_c, 0, 67, 127
1, 286727, Control_c, 0, 67, 123
1, 286742, Control_c, 0, 67, 118
1, 286750, Note_on_c, 0, 45, 85
1, 286757, Control_c, 0, 67, 111
1, 286760, Note_on_c, 0, 67, 54
1, 286763, Note_on_c, 0, 74, 55
1, 286772, Control_c, 0, 67, 104
1, 286774, Note_off_c, 0, 45, 68
1, 286783, Note_off_c, 0, 67, 60
1, 286785, Note_off_c, 0, 74, 62
1, 286787, Control_c, 0, 67, 98
1, 286802, Control_c, 0, 67, 97
1, 286831, Control_c, 0, 67, 96
1, 286890, Control_c, 0, 67, 97
1, 286920, Control_c, 0, 67, 97
1, 286924, Note_on_c, 0, 45, 79
1, 286926, Note_on_c, 0, 67, 56
1, 286929, Note_on_c, 0, 74, 51
1, 286949, Note_off_c, 0, 45, 67
1, 286956, Note_off_c, 0, 67, 64
1, 286958, Note_off_c, 0, 74, 66
1, 286994, Control_c, 0, 67, 98
1, 287096, Note_on_c, 0, 47, 83
1, 287101, Note_on_c, 0, 67, 56
1, 287103, Note_on_c, 0, 74, 61
1, 287122, Note_off_c, 0, 47, 71
1, 287130, Note_off_c, 0, 67, 63
1, 287132, Note_off_c, 0, 74, 67
1, 287157, Control_c, 0, 67, 98
1, 287172, Control_c, 0, 67, 99
1, 287202, Control_c, 0, 67, 99
1, 287246, Control_c, 0, 67, 100
1, 287266, Note_on_c, 0, 47, 67
1, 287275, Note_on_c, 0, 74, 62
1, 287276, Note_on_c, 0, 67, 58
1, 287290, Control_c, 0, 67, 99
1, 287291, Note_off_c, 0, 47, 67
1, 287304, Note_off_c, 0, 74, 67
1, 287305, Control_c, 0, 67, 99
1, 287307, Note_off_c, 0, 67, 64
1, 287349, Control_c, 0, 67, 98
1, 287431, Control_c, 0, 67, 98
1, 287445, Note_on_c, 0, 36, 76
1, 287445, Note_on_c, 0, 74, 61
1, 287446, Note_on_c, 0, 67, 58
1, 287462, Control_c, 0, 67, 98
1, 287474, Note_off_c, 0, 74, 68
1, 287478, Note_off_c, 0, 36, 64
1, 287478, Note_off_c, 0, 67, 63
1, 287506, Control_c, 0, 67, 99
1, 287521, Control_c, 0, 67, 99
1, 287536, Control_c, 0, 67, 100
1, 287610, Control_c, 0, 67, 99
1, 287614, Note_on_c, 0, 74, 60
1, 287614, Note_on_c, 0, 67, 58
1, 287621, Note_on_c, 0, 54, 78
1, 287634, Note_off_c, 0, 74, 66
1, 287639, Control_c, 0, 67, 98
1, 287641, Note_off_c, 0, 67, 63
1, 287647, Note_off_c, 0, 54, 68
1, 287787, Note_on_c, 0, 69, 65
1, 287790, Note_on_c, 0, 76, 65
1, 287791, Note_on_c, 0, 56, 75
1, 287816, Note_off_c, 0, 69, 65
1, 287817, Note_off_c, 0, 76, 65
1, 287820, Note_off_c, 0, 56, 67
1, 287876, Control_c, 0, 67, 98
1, 287921, Control_c, 0, 67, 97
1, 287936, Control_c, 0, 67, 97
1, 287951, Control_c, 0, 67, 96
1, 287954, Note_on_c, 0, 41, 77
1, 287962, Note_on_c, 0, 76, 67
1, 287963, Note_on_c, 0, 69, 70
1, 287966, Control_c, 0, 67, 96
1, 287980, Control_c, 0, 67, 94
1, 287985, Note_off_c, 0, 41, 65
1, 287987, Note_off_c, 0, 69, 68
1, 287987, Note_off_c, 0, 76, 66
1, 287995, Control_c, 0, 67, 91
1, 288010, Control_c, 0, 67, 84
1, 288025, Control_c, 0, 67, 76
1, 288039, Control_c, 0, 67, 68
1, 288054, Control_c, 0, 67, 60
1, 288069, Control_c, 0, 67, 53
1, 288084, Control_c, 0, 67, 46
1, 288098, Control_c, 0, 67, 39
1, 288113, Control_c, 0, 67, 34
1, 288121, Note_on_c, 0, 28, 84
1, 288124, Note_on_c, 0, 71, 72
1, 288124, Note_on_c, 0, 77, 71
1, 288128, Control_c, 0, 67, 30
1, 288143, Control_c, 0, 67, 26
1, 288148, Note_off_c, 0, 71, 69
1, 288148, Note_off_c, 0, 77, 68
1, 288151, Note_off_c, 0, 28, 65
1, 288158, Control_c, 0, 67, 22
1, 288180, Control_c, 0, 67, 18
1, 288195, Control_c, 0, 67, 14
1, 288210, Control_c, 0, 67, 0
1, 288312, Note_on_c, 0, 45, 83
1, 288313, Note_on_c, 0, 71, 70
1, 288313, Note_on_c, 0, 77, 67
1, 288334, Note_off_c, 0, 45, 68
1, 288336, Note_off_c, 0, 71, 71
1, 288336, Note_off_c, 0, 77, 69
1, 288473, Note_on_c, 0, 72, 72
1, 288473, Note_on_c, 0, 79, 74
1, 288479, Note_on_c, 0, 58, 80
1, 288495, Note_off_c, 0, 79, 69
1, 288497, Note_off_c, 0, 72, 69
1, 288508, Note_off_c, 0, 58, 61
1, 288645, Note_on_c, 0, 49, 75
1, 288645, Note_on_c, 0, 79, 75
1, 288648, Note_on_c, 0, 72, 67
1, 288665, Note_off_c, 0, 79, 70
1, 288668, Note_off_c, 0, 72, 66
1, 288672, Note_off_c, 0, 49, 67
1, 288809, Note_on_c, 0, 81, 79
1, 288814, Note_on_c, 0, 74, 77
1, 288817, Note_on_c, 0, 44, 68
1, 288832, Note_off_c, 0, 81, 65
1, 288837, Note_off_c, 0, 74, 70
1, 288856, Note_off_c, 0, 44, 65
1, 288982, Note_on_c, 0, 31, 70
1, 288989, Note_on_c, 0, 81, 78
1, 288990, Note_on_c, 0, 74, 75
1, 289007, Note_off_c, 0, 81, 70
1, 289010, Note_off_c, 0, 31, 63
1, 289012, Note_off_c, 0, 74, 72
1, 289158, Note_on_c, 0, 83, 84
1, 289161, Note_on_c, 0, 76, 79
1, 289162, Note_on_c, 0, 61, 80
1, 289184, Note_off_c, 0, 83, 64
1, 289185, Note_off_c, 0, 76, 67
1, 289212, Note_off_c, 0, 61, 62
1, 289322, Note_on_c, 0, 48, 76
1, 289328, Note_on_c, 0, 76, 85
1, 289328, Note_on_c, 0, 83, 82
1, 289352, Note_off_c, 0, 48, 66
1, 289353, Note_off_c, 0, 83, 65
1, 289355, Note_off_c, 0, 76, 63
1, 289489, Note_on_c, 0, 55, 75
1, 289493, Note_on_c, 0, 84, 89
1, 289496, Note_on_c, 0, 77, 83
1, 289519, Note_off_c, 0, 77, 66
1, 289522, Note_off_c, 0, 84, 62
1, 289547, Note_off_c, 0, 55, 63
1, 289649, Note_on_c, 0, 42, 78
1, 289662, Note_on_c, 0, 77, 88
1, 289664, Note_on_c, 0, 84, 85
1, 289689, Note_off_c, 0, 42, 65
1, 289692, Note_off_c, 0, 84, 67
1, 289698, Note_off_c, 0, 77, 62
1, 289827, Note_on_c, 0, 31, 85
1, 289827, Note_on_c, 0, 86, 91
1, 289829, Note_on_c, 0, 79, 91
1, 289853, Note_off_c, 0, 31, 65
1, 289856, Note_on_c, 0, 33, 47
1, 289862, Note_off_c, 0, 86, 66
1, 289864, Note_off_c, 0, 79, 64
1, 289894, Note_off_c, 0, 33, 52
1, 290000, Note_on_c, 0, 79, 95
1, 290000, Note_on_c, 0, 86, 95
1, 290003, Note_on_c, 0, 49, 88
1, 290030, Note_off_c, 0, 49, 67
1, 290032, Note_off_c, 0, 79, 65
1, 290032, Note_off_c, 0, 86, 68
1, 290168, Note_on_c, 0, 88, 97
1, 290169, Note_on_c, 0, 53, 87
1, 290169, Note_on_c, 0, 81, 94
1, 290199, Note_off_c, 0, 81, 68
1, 290202, Note_off_c, 0, 88, 65
1, 290209, Note_off_c, 0, 53, 68
1, 290324, Note_on_c, 0, 39, 83
1, 290333, Note_on_c, 0, 88, 100
1, 290335, Note_on_c, 0, 81, 102
1, 290356, Note_off_c, 0, 39, 66
1, 290366, Note_off_c, 0, 88, 65
1, 290367, Note_off_c, 0, 81, 65
1, 290503, Note_on_c, 0, 26, 96
1, 290508, Note_on_c, 0, 89, 103
1, 290511, Note_on_c, 0, 83, 94
1, 290542, Note_off_c, 0, 83, 68
1, 290547, Note_off_c, 0, 89, 64
1, 290550, Note_off_c, 0, 26, 65
1, 290682, Note_on_c, 0, 83, 99
1, 290682, Note_on_c, 0, 89, 98
1, 290687, Note_on_c, 0, 38, 71
1, 290688, Note_on_c, 0, 36, 73
1, 290714, Note_off_c, 0, 83, 67
1, 290716, Note_off_c, 0, 89, 66
1, 290717, Note_off_c, 0, 38, 64
1, 290719, Note_off_c, 0, 36, 63
1, 290842, Note_on_c, 0, 47, 96
1, 290843, Note_on_c, 0, 91, 97
1, 290844, Note_on_c, 0, 84, 97
1, 290874, Note_off_c, 0, 84, 67
1, 290879, Note_off_c, 0, 91, 67
1, 290881, Note_off_c, 0, 47, 67
1, 291009, Note_on_c, 0, 84, 98
1, 291010, Note_on_c, 0, 91, 104
1, 291012, Note_on_c, 0, 57, 94
1, 291036, Note_off_c, 0, 84, 68
1, 291040, Note_off_c, 0, 57, 66
1, 291042, Note_off_c, 0, 91, 68
1, 291182, Note_on_c, 0, 56, 101
1, 291184, Note_on_c, 0, 86, 106
1, 291184, Note_on_c, 0, 93, 103
1, 291211, Note_off_c, 0, 86, 70
1, 291212, Note_off_c, 0, 93, 70
1, 291227, Note_off_c, 0, 56, 67
1, 291352, Note_on_c, 0, 46, 91
1, 291355, Note_on_c, 0, 86, 107
1, 291355, Note_on_c, 0, 93, 103
1, 291382, Note_off_c, 0, 93, 72
1, 291382, Note_off_c, 0, 46, 64
1, 291383, Note_off_c, 0, 86, 72
1, 291524, Note_on_c, 0, 88, 108
1, 291525, Note_on_c, 0, 95, 100
1, 291528, Note_on_c, 0, 39, 102
1, 291533, Note_on_c, 0, 93, 91
1, 291545, Note_off_c, 0, 93, 72
1, 291551, Note_off_c, 0, 88, 67
1, 291553, Note_off_c, 0, 95, 66
1, 291575, Note_off_c, 0, 39, 63
1, 291694, Note_on_c, 0, 32, 99
1, 291699, Note_on_c, 0, 88, 106
1, 291700, Note_on_c, 0, 95, 110
1, 291725, Note_off_c, 0, 32, 65
1, 291725, Note_off_c, 0, 95, 71
1, 291725, Note_off_c, 0, 88, 68
1, 291867, Note_on_c, 0, 24, 99
1, 291867, Note_on_c, 0, 36, 106
1, 291871, Control_c, 0, 64, 63
1, 291886, Control_c, 0, 64, 77
1, 291901, Control_c, 0, 64, 79
1, 291903, Note_off_c, 0, 24, 65
1, 291904, Note_off_c, 0, 36, 65
1, 291969, Note_on_c, 0, 26, 75
1, 291983, Control_c, 0, 64, 77
1, 291997, Control_c, 0, 64, 75
1, 292006, Note_off_c, 0, 26, 65
1, 292012, Control_c, 0, 64, 69
1, 292027, Control_c, 0, 64, 60
1, 292042, Control_c, 0, 64, 0
1, 292046, Note_on_c, 0, 38, 84
1, 292047, Note_on_c, 0, 26, 84
1, 292053, Note_on_c, 0, 96, 93
1, 292056, Note_on_c, 0, 84, 86
1, 292085, Note_off_c, 0, 84, 67
1, 292086, Note_off_c, 0, 96, 61
1, 292090, Note_off_c, 0, 38, 60
1, 292127, Note_off_c, 0, 26, 58
1, 292130, Note_on_c, 0, 28, 77
1, 292168, Note_off_c, 0, 28, 64
1, 292220, Note_on_c, 0, 40, 85
1, 292221, Note_on_c, 0, 28, 79
1, 292225, Note_on_c, 0, 84, 88
1, 292227, Note_on_c, 0, 96, 87
1, 292246, Note_off_c, 0, 96, 69
1, 292248, Note_off_c, 0, 84, 67
1, 292267, Note_off_c, 0, 40, 63
1, 292294, Note_off_c, 0, 28, 55
1, 292302, Note_on_c, 0, 29, 82
1, 292342, Note_off_c, 0, 29, 66
1, 292393, Note_on_c, 0, 29, 71
1, 292394, Note_on_c, 0, 41, 77
1, 292396, Note_on_c, 0, 96, 88
1, 292401, Note_on_c, 0, 84, 76
1, 292412, Note_off_c, 0, 96, 73
1, 292421, Note_off_c, 0, 84, 71
1, 292452, Note_off_c, 0, 41, 59
1, 292464, Note_on_c, 0, 31, 77
1, 292472, Note_off_c, 0, 29, 60
1, 292476, Note_on_c, 0, 96, 89
1, 292482, Note_on_c, 0, 84, 78
1, 292491, Note_off_c, 0, 96, 75
1, 292500, Note_off_c, 0, 84, 72
1, 292509, Note_off_c, 0, 31, 61
1, 292549, Note_on_c, 0, 31, 73
1, 292554, Note_on_c, 0, 43, 84
1, 292558, Note_on_c, 0, 96, 94
1, 292562, Note_on_c, 0, 84, 85
1, 292574, Note_off_c, 0, 96, 70
1, 292583, Note_off_c, 0, 84, 68
1, 292601, Note_off_c, 0, 31, 59
1, 292602, Note_off_c, 0, 43, 61
1, 292639, Note_on_c, 0, 33, 76
1, 292684, Note_off_c, 0, 33, 62
1, 292719, Poly_aftertouch_c, 0, 33, 0
1, 292727, Note_on_c, 0, 33, 76
1, 292729, Note_on_c, 0, 45, 80
1, 292731, Note_on_c, 0, 96, 91
1, 292732, Note_on_c, 0, 84, 84
1, 292756, Note_off_c, 0, 84, 65
1, 292758, Note_off_c, 0, 96, 63
1, 292771, Note_off_c, 0, 45, 62
1, 292814, Note_off_c, 0, 33, 51
1, 292816, Note_on_c, 0, 35, 75
1, 292849, Note_off_c, 0, 35, 67
1, 292899, Note_on_c, 0, 84, 88
1, 292899, Note_on_c, 0, 96, 90
1, 292900, Note_on_c, 0, 35, 75
1, 292900, Note_on_c, 0, 47, 80
1, 292926, Note_off_c, 0, 84, 65
1, 292935, Note_off_c, 0, 96, 64
1, 292938, Note_off_c, 0, 47, 64
1, 292944, Note_off_c, 0, 35, 63
1, 292976, Note_on_c, 0, 36, 75
1, 293016, Note_off_c, 0, 36, 61
1, 293061, Note_on_c, 0, 36, 76
1, 293061, Note_on_c, 0, 48, 83
1, 293075, Note_on_c, 0, 84, 85
1, 293075, Note_on_c, 0, 96, 90
1, 293102, Note_off_c, 0, 84, 63
1, 293105, Note_off_c, 0, 96, 62
1, 293110, Note_off_c, 0, 48, 62
1, 293145, Note_on_c, 0, 38, 80
1, 293146, Note_off_c, 0, 36, 53
1, 293181, Note_off_c, 0, 38, 64
1, 293228, Note_on_c, 0, 50, 88
1, 293229, Note_on_c, 0, 38, 80
1, 293240, Note_on_c, 0, 84, 93
1, 293241, Note_on_c, 0, 96, 96
1, 293257, Note_on_c, 0, 40, 33
1, 293262, Note_off_c, 0, 84, 66
1, 293268, Note_off_c, 0, 96, 64
1, 293272, Note_off_c, 0, 50, 67
1, 293287, Note_off_c, 0, 38, 57
1, 293311, Note_off_c, 0, 40, 0
1, 293311, Note_on_c, 0, 40, 57
1, 293359, Note_off_c, 0, 40, 64
1, 293397, Note_on_c, 0, 40, 73
1, 293403, Note_on_c, 0, 52, 88
1, 293414, Note_on_c, 0, 73, 90
1, 293439, Note_off_c, 0, 73, 73
1, 293454, Note_off_c, 0, 52, 61
1, 293488, Note_on_c, 0, 41, 87
1, 293492, Note_off_c, 0, 40, 55
1, 293528, Note_off_c, 0, 41, 62
1, 293574, Note_on_c, 0, 41, 87
1, 293577, Note_on_c, 0, 53, 87
1, 293585, Note_on_c, 0, 96, 97
1, 293587, Note_on_c, 0, 84, 96
1, 293599, Note_off_c, 0, 96, 76
1, 293606, Note_off_c, 0, 84, 68
1, 293619, Note_off_c, 0, 53, 65
1, 293624, Note_on_c, 0, 95, 40
1, 293656, Note_off_c, 0, 95, 39
1, 293662, Note_on_c, 0, 43, 82
1, 293664, Note_off_c, 0, 41, 56
1, 293704, Note_off_c, 0, 43, 61
1, 293742, Note_on_c, 0, 43, 79
1, 293746, Note_on_c, 0, 55, 88
1, 293753, Note_on_c, 0, 78, 85
1, 293772, Note_off_c, 0, 78, 68
1, 293793, Note_off_c, 0, 55, 63
1, 293827, Note_on_c, 0, 45, 85
1, 293835, Note_off_c, 0, 43, 59
1, 293871, Note_on_c, 0, 44, 21
1, 293872, Note_off_c, 0, 44, 127
1, 293872, Note_off_c, 0, 45, 63
1, 293910, Note_on_c, 0, 45, 88
1, 293910, Note_on_c, 0, 57, 91
1, 293916, Note_on_c, 0, 84, 94
1, 293916, Note_on_c, 0, 96, 96
1, 293932, Note_off_c, 0, 84, 72
1, 293938, Note_off_c, 0, 96, 65
1, 293943, Note_on_c, 0, 95, 36
1, 293949, Note_off_c, 0, 57, 66
1, 293958, Note_off_c, 0, 45, 66
1, 293973, Note_off_c, 0, 95, 33
1, 294000, Note_on_c, 0, 47, 83
1, 294030, Control_c, 0, 64, 17
1, 294043, Note_off_c, 0, 47, 65
1, 294044, Note_on_c, 0, 46, 14
1, 294045, Note_off_c, 0, 46, 127
1, 294045, Control_c, 0, 64, 29
1, 294060, Control_c, 0, 64, 40
1, 294074, Control_c, 0, 64, 45
1, 294080, Note_on_c, 0, 47, 87
1, 294082, Note_on_c, 0, 102, 105
1, 294083, Note_on_c, 0, 59, 93
1, 294089, Control_c, 0, 64, 46
1, 294104, Note_off_c, 0, 102, 62
1, 294104, Control_c, 0, 64, 47
1, 294119, Control_c, 0, 64, 47
1, 294126, Note_off_c, 0, 59, 65
1, 294132, Note_on_c, 0, 90, 29
1, 294133, Note_off_c, 0, 90, 127
1, 294133, Note_off_c, 0, 47, 65
1, 294134, Control_c, 0, 64, 50
1, 294148, Control_c, 0, 64, 54
1, 294171, Control_c, 0, 64, 55
1, 294179, Note_on_c, 0, 48, 84
1, 294200, Control_c, 0, 64, 55
1, 294215, Control_c, 0, 64, 54
1, 294222, Note_off_c, 0, 48, 60
1, 294230, Control_c, 0, 64, 53
1, 294244, Note_on_c, 0, 48, 78
1, 294245, Control_c, 0, 64, 53
1, 294250, Note_on_c, 0, 60, 90
1, 294255, Note_on_c, 0, 84, 97
1, 294256, Note_on_c, 0, 96, 99
1, 294260, Control_c, 0, 64, 52
1, 294274, Control_c, 0, 64, 51
1, 294282, Note_off_c, 0, 84, 65
1, 294284, Note_off_c, 0, 96, 64
1, 294289, Control_c, 0, 64, 51
1, 294294, Note_off_c, 0, 60, 66
1, 294303, Note_off_c, 0, 48, 61
1, 294304, Control_c, 0, 64, 50
1, 294319, Control_c, 0, 64, 49
1, 294334, Control_c, 0, 64, 48
1, 294335, Note_on_c, 0, 50, 83
1, 294363, Control_c, 0, 64, 48
1, 294370, Note_on_c, 0, 49, 36
1, 294371, Note_off_c, 0, 49, 127
1, 294381, Note_off_c, 0, 50, 67
1, 294408, Control_c, 0, 64, 47
1, 294416, Note_on_c, 0, 50, 83
1, 294418, Note_on_c, 0, 62, 92
1, 294418, Note_on_c, 0, 79, 92
1, 294437, Control_c, 0, 64, 47
1, 294443, Note_off_c, 0, 79, 67
1, 294452, Control_c, 0, 64, 47
1, 294467, Note_off_c, 0, 62, 64
1, 294467, Control_c, 0, 64, 47
1, 294474, Note_off_c, 0, 50, 59
1, 294494, Note_on_c, 0, 52, 86
1, 294529, Note_on_c, 0, 51, 46
1, 294542, Control_c, 0, 64, 46
1, 294542, Note_off_c, 0, 52, 64
1, 294565, Note_off_c, 0, 51, 56
1, 294584, Note_on_c, 0, 64, 98
1, 294586, Control_c, 0, 64, 47
1, 294587, Note_on_c, 0, 52, 89
1, 294587, Note_on_c, 0, 84, 97
1, 294589, Note_on_c, 0, 96, 100
1, 294600, Control_c, 0, 64, 48
1, 294615, Control_c, 0, 64, 48
1, 294616, Note_off_c, 0, 84, 66
1, 294616, Note_off_c, 0, 96, 71
1, 294628, Note_off_c, 0, 64, 67
1, 294630, Control_c, 0, 64, 49
1, 294661, Control_c, 0, 64, 49
1, 294667, Note_on_c, 0, 53, 84
1, 294672, Note_off_c, 0, 52, 35
1, 294706, Control_c, 0, 64, 50
1, 294719, Note_off_c, 0, 53, 66
1, 294721, Control_c, 0, 64, 52
1, 294736, Control_c, 0, 64, 54
1, 294750, Control_c, 0, 64, 55
1, 294755, Note_on_c, 0, 53, 89
1, 294755, Note_on_c, 0, 65, 96
1, 294761, Note_on_c, 0, 104, 109
1, 294765, Control_c, 0, 64, 56
1, 294777, Note_off_c, 0, 104, 74
1, 294795, Control_c, 0, 64, 55
1, 294797, Note_off_c, 0, 65, 66
1, 294802, Note_off_c, 0, 53, 67
1, 294846, Note_on_c, 0, 55, 84
1, 294869, Control_c, 0, 64, 54
1, 294884, Control_c, 0, 64, 53
1, 294888, Note_off_c, 0, 55, 62
1, 294898, Control_c, 0, 64, 53
1, 294920, Control_c, 0, 64, 52
1, 294927, Note_on_c, 0, 55, 86
1, 294930, Note_on_c, 0, 67, 94
1, 294933, Note_on_c, 0, 96, 94
1, 294935, Control_c, 0, 64, 52
1, 294938, Note_on_c, 0, 84, 93
1, 294950, Control_c, 0, 64, 51
1, 294957, Note_off_c, 0, 96, 63
1, 294960, Note_off_c, 0, 84, 67
1, 294965, Control_c, 0, 64, 51
1, 294976, Note_off_c, 0, 67, 63
1, 294983, Note_off_c, 0, 55, 58
1, 295015, Note_on_c, 0, 57, 84
1, 295024, Control_c, 0, 64, 50
1, 295039, Control_c, 0, 64, 50
1, 295043, Note_on_c, 0, 56, 44
1, 295054, Note_off_c, 0, 57, 63
1, 295076, Note_off_c, 0, 56, 33
1, 295094, Note_on_c, 0, 57, 87
1, 295096, Note_on_c, 0, 69, 95
1, 295098, Control_c, 0, 64, 50
1, 295101, Note_on_c, 0, 82, 106
1, 295130, Note_off_c, 0, 82, 68
1, 295139, Note_off_c, 0, 69, 66
1, 295144, Note_off_c, 0, 57, 65
1, 295183, Note_on_c, 0, 59, 89
1, 295187, Control_c, 0, 64, 51
1, 295209, Note_on_c, 0, 58, 55
1, 295231, Control_c, 0, 64, 51
1, 295233, Note_off_c, 0, 59, 62
1, 295235, Note_off_c, 0, 58, 58
1, 295246, Control_c, 0, 64, 52
1, 295264, Note_on_c, 0, 71, 98
1, 295266, Note_on_c, 0, 84, 99
1, 295266, Note_on_c, 0, 96, 102
1, 295269, Note_on_c, 0, 59, 83
1, 295276, Control_c, 0, 64, 53
1, 295287, Note_on_c, 0, 60, 53
1, 295293, Note_off_c, 0, 96, 69
1, 295296, Note_off_c, 0, 84, 67
1, 295305, Note_off_c, 0, 71, 67
1, 295305, Control_c, 0, 64, 52
1, 295309, Note_off_c, 0, 59, 65
1, 295311, Note_off_c, 0, 60, 59
1, 295320, Control_c, 0, 64, 50
1, 295335, Control_c, 0, 64, 49
1, 295350, Control_c, 0, 64, 49
1, 295362, Note_on_c, 0, 60, 86
1, 295376, Note_on_c, 0, 62, 60
1, 295379, Note_on_c, 0, 61, 60
1, 295394, Control_c, 0, 64, 48
1, 295399, Note_off_c, 0, 62, 59
1, 295404, Note_off_c, 0, 61, 58
1, 295407, Note_off_c, 0, 60, 66
1, 295424, Control_c, 0, 64, 49
1, 295428, Note_on_c, 0, 95, 105
1, 295438, Note_on_c, 0, 72, 97
1, 295439, Control_c, 0, 64, 50
1, 295442, Note_on_c, 0, 60, 84
1, 295468, Note_off_c, 0, 95, 69
1, 295469, Control_c, 0, 64, 48
1, 295477, Note_off_c, 0, 72, 68
1, 295484, Control_c, 0, 64, 38
1, 295485, Note_off_c, 0, 60, 66
1, 295499, Control_c, 0, 64, 0
1, 295522, Note_on_c, 0, 62, 63
1, 295545, Note_on_c, 0, 64, 45
1, 295561, Note_on_c, 0, 61, 28
1, 295573, Control_c, 0, 64, 40
1, 295576, Note_off_c, 0, 64, 35
1, 295587, Control_c, 0, 64, 57
1, 295590, Note_off_c, 0, 62, 0
1, 295596, Note_on_c, 0, 84, 99
1, 295599, Note_on_c, 0, 96, 103
1, 295602, Control_c, 0, 64, 63
1, 295603, Note_off_c, 0, 61, 47
1, 295604, Note_on_c, 0, 62, 62
1, 295610, Note_on_c, 0, 74, 100
1, 295617, Control_c, 0, 64, 66
1, 295628, Note_off_c, 0, 84, 67
1, 295630, Note_off_c, 0, 96, 69
1, 295632, Control_c, 0, 64, 68
1, 295646, Control_c, 0, 64, 69
1, 295669, Control_c, 0, 64, 71
1, 295671, Note_on_c, 0, 64, 69
1, 295680, Note_off_c, 0, 74, 65
1, 295683, Control_c, 0, 64, 72
1, 295698, Note_off_c, 0, 62, 61
1, 295698, Control_c, 0, 64, 76
1, 295713, Control_c, 0, 64, 83
1, 295724, Note_off_c, 0, 64, 66
1, 295728, Control_c, 0, 64, 95
1, 295743, Control_c, 0, 64, 127
1, 295778, Note_on_c, 0, 76, 102
1, 295780, Note_on_c, 0, 64, 98
1, 295785, Note_on_c, 0, 108, 115
1, 295786, Note_on_c, 0, 96, 109
1, 295799, Note_off_c, 0, 76, 68
1, 295800, Note_off_c, 0, 96, 76
1, 295802, Control_c, 0, 64, 99
1, 295803, Note_on_c, 0, 66, 60
1, 295806, Note_off_c, 0, 108, 65
1, 295815, Note_on_c, 0, 67, 41
1, 295816, Note_off_c, 0, 67, 127
1, 295816, Note_off_c, 0, 64, 70
1, 295817, Control_c, 0, 64, 71
1, 295824, Note_off_c, 0, 66, 62
1, 295829, Note_on_c, 0, 98, 33
1, 295830, Note_off_c, 0, 98, 127
1, 295832, Control_c, 0, 64, 0
1, 295984, Note_on_c, 0, 37, 114
1, 295986, Note_on_c, 0, 25, 112
1, 296007, Note_off_c, 0, 25, 67
1, 296007, Note_off_c, 0, 37, 69
1, 296066, Note_on_c, 0, 25, 32
1, 296093, Note_off_c, 0, 25, 57
1, 296227, Note_on_c, 0, 50, 79
1, 296233, Note_on_c, 0, 62, 102
1, 296235, Note_on_c, 0, 57, 91
1, 296236, Note_on_c, 0, 54, 89
1, 296239, Note_on_c, 0, 68, 112
1, 296247, Control_c, 0, 64, 59
1, 296257, Note_off_c, 0, 68, 71
1, 296262, Control_c, 0, 64, 70
1, 296277, Control_c, 0, 64, 79
1, 296292, Control_c, 0, 64, 95
1, 296306, Control_c, 0, 64, 127
1, 296426, Note_off_c, 0, 62, 54
1, 296428, Note_off_c, 0, 57, 55
1, 296443, Note_off_c, 0, 54, 57
1, 296444, Note_off_c, 0, 50, 47
1, 296581, Control_c, 0, 64, 98
1, 296595, Control_c, 0, 64, 72
1, 296610, Control_c, 0, 64, 0
1, 297407, Note_on_c, 0, 73, 106
1, 297418, Control_c, 0, 64, 54
1, 297433, Control_c, 0, 64, 64
1, 297436, Note_off_c, 0, 73, 66
1, 297448, Control_c, 0, 64, 68
1, 297463, Control_c, 0, 64, 69
1, 297478, Control_c, 0, 64, 70
1, 297492, Control_c, 0, 64, 71
1, 297507, Control_c, 0, 64, 72
1, 297522, Note_on_c, 0, 73, 101
1, 297522, Control_c, 0, 64, 73
1, 297537, Control_c, 0, 64, 74
1, 297551, Note_off_c, 0, 73, 66
1, 297552, Control_c, 0, 64, 75
1, 297566, Control_c, 0, 64, 76
1, 297581, Control_c, 0, 64, 76
1, 297622, Note_on_c, 0, 73, 104
1, 297655, Note_off_c, 0, 73, 63
1, 297670, Control_c, 0, 64, 77
1, 297684, Control_c, 0, 64, 78
1, 297699, Control_c, 0, 64, 81
1, 297714, Control_c, 0, 64, 84
1, 297729, Control_c, 0, 64, 88
1, 297739, Note_on_c, 0, 73, 113
1, 297743, Control_c, 0, 64, 93
1, 297758, Control_c, 0, 64, 96
1, 297765, Note_off_c, 0, 73, 64
1, 297773, Control_c, 0, 64, 98
1, 297788, Control_c, 0, 64, 99
1, 297803, Control_c, 0, 64, 100
1, 297818, Control_c, 0, 64, 100
1, 297848, Control_c, 0, 64, 101
1, 297915, Control_c, 0, 64, 101
1, 297930, Control_c, 0, 64, 102
1, 297945, Control_c, 0, 64, 103
1, 297960, Control_c, 0, 64, 103
1, 297976, Note_on_c, 0, 73, 101
1, 297989, Control_c, 0, 64, 100
1, 298004, Control_c, 0, 64, 90
1, 298012, Note_off_c, 0, 73, 65
1, 298019, Control_c, 0, 64, 77
1, 298034, Control_c, 0, 64, 62
1, 298048, Control_c, 0, 64, 0
1, 298088, Note_on_c, 0, 72, 105
1, 298113, Note_off_c, 0, 72, 69
1, 298310, Note_on_c, 0, 72, 99
1, 298346, Note_off_c, 0, 72, 65
1, 298414, Note_on_c, 0, 66, 103
1, 298419, Control_c, 0, 64, 51
1, 298433, Control_c, 0, 64, 66
1, 298449, Control_c, 0, 64, 76
1, 298450, Note_off_c, 0, 66, 67
1, 298464, Control_c, 0, 64, 86
1, 298479, Control_c, 0, 64, 98
1, 298494, Control_c, 0, 64, 109
1, 298508, Control_c, 0, 64, 115
1, 298523, Control_c, 0, 64, 117
1, 298538, Control_c, 0, 64, 118
1, 298553, Control_c, 0, 64, 118
1, 298582, Control_c, 0, 64, 119
1, 298597, Control_c, 0, 64, 121
1, 298612, Control_c, 0, 64, 127
1, 298694, Control_c, 0, 64, 115
1, 298709, Control_c, 0, 64, 93
1, 298724, Control_c, 0, 64, 75
1, 298735, Note_on_c, 0, 72, 103
1, 298739, Control_c, 0, 64, 47
1, 298754, Control_c, 0, 64, 0
1, 298766, Note_off_c, 0, 72, 67
1, 298840, Note_on_c, 0, 72, 102
1, 298870, Note_off_c, 0, 72, 68
1, 298939, Note_on_c, 0, 72, 99
1, 298971, Note_off_c, 0, 72, 67
1, 299035, Control_c, 0, 64, 59
1, 299046, Note_on_c, 0, 72, 105
1, 299050, Control_c, 0, 64, 67
1, 299064, Control_c, 0, 64, 71
1, 299079, Note_off_c, 0, 72, 66
1, 299079, Control_c, 0, 64, 75
1, 299094, Control_c, 0, 64, 78
1, 299109, Control_c, 0, 64, 80
1, 299124, Control_c, 0, 64, 81
1, 299138, Control_c, 0, 64, 83
1, 299153, Control_c, 0, 64, 84
1, 299168, Control_c, 0, 64, 86
1, 299183, Control_c, 0, 64, 86
1, 299197, Control_c, 0, 64, 87
1, 299212, Control_c, 0, 64, 88
1, 299227, Control_c, 0, 64, 89
1, 299242, Control_c, 0, 64, 89
1, 299264, Note_on_c, 0, 72, 99
1, 299271, Control_c, 0, 64, 87
1, 299286, Control_c, 0, 64, 81
1, 299296, Note_off_c, 0, 72, 66
1, 299301, Control_c, 0, 64, 70
1, 299316, Control_c, 0, 64, 45
1, 299330, Control_c, 0, 64, 0
1, 299372, Note_on_c, 0, 70, 98
1, 299424, Note_off_c, 0, 70, 64
1, 299597, Note_on_c, 0, 70, 90
1, 299651, Note_off_c, 0, 70, 64
1, 299705, Note_on_c, 0, 81, 100
1, 299739, Control_c, 0, 64, 61
1, 299744, Note_off_c, 0, 81, 70
1, 299754, Control_c, 0, 64, 70
1, 299768, Control_c, 0, 64, 82
1, 299783, Control_c, 0, 64, 112
1, 299798, Control_c, 0, 64, 127
1, 300030, Note_on_c, 0, 35, 64
1, 300034, Note_on_c, 0, 96, 71
1, 300050, Control_c, 0, 64, 89
1, 300055, Note_off_c, 0, 96, 69
1, 300060, Note_off_c, 0, 35, 64
1, 300065, Control_c, 0, 64, 69
1, 300080, Control_c, 0, 64, 41
1, 300094, Control_c, 0, 64, 0
1, 300151, Note_on_c, 0, 83, 68
1, 300173, Note_on_c, 0, 52, 55
1, 300183, Note_off_c, 0, 83, 69
1, 300200, Note_off_c, 0, 52, 57
1, 300271, Note_on_c, 0, 77, 48
1, 300274, Note_on_c, 0, 36, 58
1, 300298, Note_off_c, 0, 77, 57
1, 300306, Note_off_c, 0, 36, 62
1, 300310, Control_c, 0, 64, 11
1, 300325, Control_c, 0, 64, 14
1, 300370, Note_on_c, 0, 88, 62
1, 300373, Note_on_c, 0, 53, 70
1, 300392, Note_off_c, 0, 88, 61
1, 300398, Note_off_c, 0, 53, 68
1, 300414, Control_c, 0, 64, 0
1, 300474, Note_on_c, 0, 83, 61
1, 300493, Note_on_c, 0, 38, 60
1, 300494, Note_off_c, 0, 83, 66
1, 300522, Note_off_c, 0, 38, 63
1, 300595, Note_on_c, 0, 93, 61
1, 300601, Note_on_c, 0, 55, 56
1, 300613, Note_off_c, 0, 93, 64
1, 300625, Note_off_c, 0, 55, 58
1, 300699, Note_on_c, 0, 40, 65
1, 300700, Note_on_c, 0, 77, 71
1, 300722, Note_off_c, 0, 77, 70
1, 300731, Note_off_c, 0, 40, 64
1, 300810, Note_on_c, 0, 81, 61
1, 300811, Note_on_c, 0, 57, 53
1, 300826, Note_off_c, 0, 81, 65
1, 300836, Note_off_c, 0, 57, 58
1, 300916, Note_on_c, 0, 41, 66
1, 300920, Note_on_c, 0, 91, 69
1, 300937, Note_off_c, 0, 91, 66
1, 300943, Note_off_c, 0, 41, 64
1, 301022, Note_on_c, 0, 88, 72
1, 301025, Note_on_c, 0, 59, 62
1, 301046, Note_off_c, 0, 88, 69
1, 301054, Note_off_c, 0, 59, 64
1, 301127, Note_on_c, 0, 43, 69
1, 301127, Note_on_c, 0, 83, 59
1, 301144, Note_off_c, 0, 83, 65
1, 301159, Note_off_c, 0, 43, 65
1, 301231, Note_on_c, 0, 74, 68
1, 301236, Note_on_c, 0, 60, 54
1, 301248, Note_off_c, 0, 74, 68
1, 301260, Note_off_c, 0, 60, 59
1, 301329, Note_on_c, 0, 45, 71
1, 301334, Note_on_c, 0, 91, 79
1, 301356, Note_off_c, 0, 45, 66
1, 301368, Note_off_c, 0, 91, 63
1, 301370, Control_c, 0, 67, 8
1, 301428, Note_on_c, 0, 62, 75
1, 301434, Note_on_c, 0, 77, 71
1, 301451, Note_off_c, 0, 62, 67
1, 301456, Note_off_c, 0, 77, 70
1, 301502, Control_c, 0, 67, 8
1, 301517, Control_c, 0, 67, 9
1, 301530, Note_on_c, 0, 47, 76
1, 301531, Note_on_c, 0, 74, 83
1, 301547, Control_c, 0, 67, 9
1, 301550, Note_off_c, 0, 74, 72
1, 301559, Note_off_c, 0, 47, 68
1, 301562, Control_c, 0, 67, 11
1, 301576, Control_c, 0, 67, 12
1, 301591, Control_c, 0, 67, 14
1, 301606, Control_c, 0, 67, 15
1, 301621, Control_c, 0, 67, 16
1, 301636, Note_on_c, 0, 73, 83
1, 301640, Note_on_c, 0, 64, 78
1, 301669, Note_off_c, 0, 64, 70
1, 301669, Note_off_c, 0, 73, 63
1, 301717, Control_c, 0, 67, 16
1, 301747, Note_on_c, 0, 48, 78
1, 301747, Note_on_c, 0, 86, 80
1, 301773, Note_off_c, 0, 86, 65
1, 301773, Note_off_c, 0, 48, 68
1, 301791, Control_c, 0, 67, 15
1, 301846, Note_on_c, 0, 65, 81
1, 301846, Note_on_c, 0, 71, 78
1, 301851, Control_c, 0, 67, 15
1, 301866, Control_c, 0, 67, 13
1, 301869, Note_off_c, 0, 65, 69
1, 301871, Note_off_c, 0, 71, 67
1, 301881, Control_c, 0, 67, 11
1, 301896, Control_c, 0, 67, 0
1, 301945, Note_on_c, 0, 84, 81
1, 301951, Note_on_c, 0, 52, 78
1, 301979, Note_off_c, 0, 52, 66
1, 301986, Note_off_c, 0, 84, 64
1, 302000, Control_c, 0, 64, 41
1, 302014, Control_c, 0, 64, 57
1, 302029, Control_c, 0, 64, 64
1, 302044, Control_c, 0, 64, 68
1, 302053, Note_on_c, 0, 67, 82
1, 302053, Note_on_c, 0, 80, 66
1, 302059, Control_c, 0, 64, 71
1, 302069, Note_off_c, 0, 80, 66
1, 302074, Control_c, 0, 64, 69
1, 302079, Note_off_c, 0, 67, 64
1, 302088, Control_c, 0, 64, 64
1, 302103, Control_c, 0, 64, 0
1, 302169, Note_on_c, 0, 59, 96
1, 302170, Note_on_c, 0, 65, 96
1, 302170, Note_on_c, 0, 84, 109
1, 302170, Note_on_c, 0, 96, 106
1, 302179, Note_on_c, 0, 62, 83
1, 302274, Note_off_c, 0, 96, 63
1, 302280, Control_c, 0, 64, 61
1, 302286, Note_off_c, 0, 84, 58
1, 302295, Control_c, 0, 64, 72
1, 302310, Control_c, 0, 64, 84
1, 302325, Control_c, 0, 64, 109
1, 302340, Control_c, 0, 64, 127
1, 302823, Control_c, 0, 64, 104
1, 302837, Control_c, 0, 64, 76
1, 302842, Note_on_c, 0, 73, 112
1, 302844, Note_off_c, 0, 62, 61
1, 302845, Note_off_c, 0, 65, 59
1, 302852, Control_c, 0, 64, 24
1, 302867, Control_c, 0, 64, 0
1, 302868, Note_off_c, 0, 73, 68
1, 302873, Note_off_c, 0, 59, 55
1, 302943, Note_on_c, 0, 73, 110
1, 302969, Note_off_c, 0, 73, 66
1, 303042, Note_on_c, 0, 73, 108
1, 303069, Note_off_c, 0, 73, 67
1, 303133, Control_c, 0, 64, 52
1, 303154, Note_on_c, 0, 73, 110
1, 303155, Control_c, 0, 64, 67
1, 303170, Control_c, 0, 64, 76
1, 303183, Note_off_c, 0, 73, 65
1, 303185, Control_c, 0, 64, 86
1, 303200, Control_c, 0, 64, 98
1, 303215, Control_c, 0, 64, 106
1, 303229, Control_c, 0, 64, 109
1, 303244, Control_c, 0, 64, 110
1, 303259, Control_c, 0, 64, 111
1, 303274, Control_c, 0, 64, 112
1, 303289, Control_c, 0, 64, 114
1, 303303, Control_c, 0, 64, 126
1, 303318, Control_c, 0, 64, 127
1, 303369, Note_on_c, 0, 73, 105
1, 303402, Note_off_c, 0, 73, 68
1, 303407, Control_c, 0, 64, 113
1, 303422, Control_c, 0, 64, 84
1, 303438, Control_c, 0, 64, 63
1, 303452, Control_c, 0, 64, 0
1, 303485, Note_on_c, 0, 72, 106
1, 303511, Note_off_c, 0, 72, 68
1, 303706, Note_on_c, 0, 72, 95
1, 303747, Note_off_c, 0, 72, 64
1, 303793, Control_c, 0, 64, 62
1, 303803, Note_on_c, 0, 66, 107
1, 303808, Control_c, 0, 64, 71
1, 303823, Control_c, 0, 64, 80
1, 303833, Note_off_c, 0, 66, 68
1, 303838, Control_c, 0, 64, 93
1, 303852, Control_c, 0, 64, 109
1, 303867, Control_c, 0, 64, 127
1, 304141, Control_c, 0, 64, 91
1, 304156, Note_on_c, 0, 72, 106
1, 304156, Control_c, 0, 64, 66
1, 304171, Control_c, 0, 64, 0
1, 304182, Note_off_c, 0, 72, 66
1, 304260, Note_on_c, 0, 72, 101
1, 304287, Note_off_c, 0, 72, 68
1, 304359, Note_on_c, 0, 72, 99
1, 304391, Note_off_c, 0, 72, 69
1, 304439, Control_c, 0, 64, 61
1, 304454, Control_c, 0, 64, 70
1, 304468, Note_on_c, 0, 72, 104
1, 304469, Control_c, 0, 64, 78
1, 304483, Control_c, 0, 64, 86
1, 304498, Note_off_c, 0, 72, 68
1, 304498, Control_c, 0, 64, 92
1, 304513, Control_c, 0, 64, 95
1, 304528, Control_c, 0, 64, 97
1, 304543, Control_c, 0, 64, 99
1, 304558, Control_c, 0, 64, 100
1, 304573, Control_c, 0, 64, 100
1, 304602, Control_c, 0, 64, 101
1, 304617, Control_c, 0, 64, 101
1, 304632, Control_c, 0, 64, 102
1, 304647, Control_c, 0, 64, 102
1, 304683, Control_c, 0, 64, 100
1, 304692, Note_on_c, 0, 72, 102
1, 304698, Control_c, 0, 64, 91
1, 304713, Control_c, 0, 64, 77
1, 304721, Note_off_c, 0, 72, 68
1, 304728, Control_c, 0, 64, 53
1, 304742, Control_c, 0, 64, 0
1, 304797, Note_on_c, 0, 70, 98
1, 304841, Note_off_c, 0, 70, 63
1, 305002, Note_on_c, 0, 70, 95
1, 305057, Note_off_c, 0, 70, 64
1, 305099, Control_c, 0, 64, 29
1, 305103, Note_on_c, 0, 81, 100
1, 305114, Control_c, 0, 64, 66
1, 305129, Control_c, 0, 64, 78
1, 305144, Control_c, 0, 64, 93
1, 305146, Note_off_c, 0, 81, 69
1, 305158, Control_c, 0, 64, 127
1, 305446, Note_on_c, 0, 35, 66
1, 305462, Control_c, 0, 64, 104
1, 305463, Note_on_c, 0, 96, 47
1, 305471, Note_on_c, 0, 98, 47
1, 305473, Note_off_c, 0, 35, 65
1, 305477, Control_c, 0, 64, 77
1, 305486, Note_off_c, 0, 96, 58
1, 305492, Control_c, 0, 64, 60
1, 305500, Note_off_c, 0, 98, 38
1, 305506, Control_c, 0, 64, 0
1, 305556, Note_on_c, 0, 52, 62
1, 305559, Note_on_c, 0, 83, 65
1, 305577, Note_off_c, 0, 83, 68
1, 305588, Note_off_c, 0, 52, 64
1, 305658, Note_on_c, 0, 36, 67
1, 305687, Note_off_c, 0, 36, 63
1, 305690, Note_on_c, 0, 77, 7
1, 305747, Note_off_c, 0, 77, 25
1, 305759, Note_on_c, 0, 88, 65
1, 305764, Note_on_c, 0, 53, 62
1, 305785, Note_off_c, 0, 88, 67
1, 305793, Note_off_c, 0, 53, 66
1, 305854, Note_on_c, 0, 83, 68
1, 305866, Note_on_c, 0, 38, 59
1, 305878, Note_off_c, 0, 83, 69
1, 305896, Note_off_c, 0, 38, 63
1, 305968, Note_on_c, 0, 93, 70
1, 305971, Note_on_c, 0, 55, 61
1, 305991, Note_off_c, 0, 93, 69
1, 305992, Note_off_c, 0, 55, 62
1, 306070, Note_on_c, 0, 40, 71
1, 306072, Note_on_c, 0, 77, 58
1, 306093, Note_off_c, 0, 77, 65
1, 306096, Note_off_c, 0, 40, 66
1, 306170, Note_on_c, 0, 81, 73
1, 306183, Note_on_c, 0, 57, 57
1, 306191, Note_off_c, 0, 81, 70
1, 306207, Note_off_c, 0, 57, 59
1, 306271, Note_on_c, 0, 91, 79
1, 306275, Note_on_c, 0, 41, 73
1, 306298, Note_off_c, 0, 91, 64
1, 306305, Note_off_c, 0, 41, 64
1, 306377, Note_on_c, 0, 59, 73
1, 306379, Note_on_c, 0, 88, 79
1, 306401, Note_off_c, 0, 88, 67
1, 306402, Note_off_c, 0, 59, 67
1, 306433, Control_c, 0, 67, 9
1, 306447, Control_c, 0, 67, 12
1, 306462, Control_c, 0, 67, 16
1, 306475, Note_on_c, 0, 83, 75
1, 306477, Control_c, 0, 67, 21
1, 306483, Note_on_c, 0, 43, 74
1, 306492, Control_c, 0, 67, 26
1, 306495, Note_off_c, 0, 83, 71
1, 306506, Control_c, 0, 67, 30
1, 306515, Note_off_c, 0, 43, 66
1, 306521, Control_c, 0, 67, 33
1, 306536, Control_c, 0, 67, 35
1, 306551, Control_c, 0, 67, 37
1, 306566, Control_c, 0, 67, 38
1, 306578, Note_on_c, 0, 74, 79
1, 306581, Control_c, 0, 67, 38
1, 306583, Note_on_c, 0, 60, 72
1, 306600, Note_off_c, 0, 74, 71
1, 306608, Note_off_c, 0, 60, 68
1, 306678, Note_on_c, 0, 91, 89
1, 306680, Note_on_c, 0, 45, 82
1, 306709, Note_off_c, 0, 45, 69
1, 306723, Note_off_c, 0, 91, 66
1, 306746, Control_c, 0, 67, 39
1, 306784, Note_on_c, 0, 77, 77
1, 306789, Note_on_c, 0, 62, 71
1, 306806, Note_off_c, 0, 77, 68
1, 306814, Note_off_c, 0, 62, 65
1, 306834, Control_c, 0, 67, 39
1, 306849, Control_c, 0, 67, 40
1, 306878, Control_c, 0, 67, 40
1, 306880, Note_on_c, 0, 47, 79
1, 306883, Note_on_c, 0, 74, 86
1, 306901, Control_c, 0, 67, 41
1, 306914, Note_off_c, 0, 74, 67
1, 306916, Control_c, 0, 67, 42
1, 306916, Note_off_c, 0, 47, 69
1, 306930, Control_c, 0, 67, 44
1, 306945, Control_c, 0, 67, 47
1, 306960, Control_c, 0, 67, 50
1, 306975, Control_c, 0, 67, 53
1, 306989, Note_on_c, 0, 64, 79
1, 306989, Note_on_c, 0, 73, 89
1, 306990, Control_c, 0, 67, 54
1, 307004, Control_c, 0, 67, 55
1, 307013, Note_off_c, 0, 64, 68
1, 307019, Control_c, 0, 67, 56
1, 307023, Note_off_c, 0, 73, 63
1, 307049, Control_c, 0, 67, 56
1, 307088, Note_on_c, 0, 48, 82
1, 307088, Note_on_c, 0, 86, 87
1, 307112, Note_off_c, 0, 48, 68
1, 307124, Note_off_c, 0, 86, 65
1, 307181, Note_on_c, 0, 65, 87
1, 307182, Control_c, 0, 67, 57
1, 307185, Note_on_c, 0, 71, 87
1, 307208, Note_off_c, 0, 65, 65
1, 307220, Note_off_c, 0, 71, 66
1, 307226, Control_c, 0, 67, 56
1, 307241, Control_c, 0, 67, 55
1, 307256, Control_c, 0, 67, 52
1, 307270, Control_c, 0, 67, 45
1, 307282, Note_on_c, 0, 84, 86
1, 307285, Control_c, 0, 67, 34
1, 307288, Note_on_c, 0, 50, 81
1, 307300, Control_c, 0, 67, 10
1, 307314, Note_off_c, 0, 50, 71
1, 307315, Control_c, 0, 67, 0
1, 307327, Note_off_c, 0, 84, 65
1, 307392, Note_on_c, 0, 78, 89
1, 307395, Note_on_c, 0, 67, 87
1, 307407, Note_off_c, 0, 78, 75
1, 307444, Note_off_c, 0, 67, 60
1, 307575, Note_on_c, 0, 65, 95
1, 307580, Note_on_c, 0, 59, 79
1, 307580, Note_on_c, 0, 84, 101
1, 307582, Note_on_c, 0, 96, 104
1, 307584, Note_on_c, 0, 62, 82
1, 307665, Control_c, 0, 64, 59
1, 307680, Control_c, 0, 64, 72
1, 307691, Note_off_c, 0, 96, 63
1, 307694, Note_off_c, 0, 84, 59
1, 307695, Control_c, 0, 64, 87
1, 307709, Control_c, 0, 64, 127
1, 307887, Control_c, 0, 67, 11
1, 307902, Control_c, 0, 67, 17
1, 307917, Control_c, 0, 67, 23
1, 307932, Control_c, 0, 67, 29
1, 307946, Control_c, 0, 67, 36
1, 307961, Control_c, 0, 67, 41
1, 307976, Control_c, 0, 67, 47
1, 307991, Control_c, 0, 67, 53
1, 308006, Control_c, 0, 67, 59
1, 308020, Control_c, 0, 67, 62
1, 308035, Control_c, 0, 67, 65
1, 308048, Note_off_c, 0, 65, 54
1, 308050, Control_c, 0, 67, 68
1, 308065, Control_c, 0, 67, 72
1, 308080, Control_c, 0, 67, 76
1, 308094, Control_c, 0, 67, 79
1, 308095, Note_off_c, 0, 62, 52
1, 308099, Note_off_c, 0, 59, 49
1, 308109, Control_c, 0, 67, 81
1, 308124, Control_c, 0, 67, 83
1, 308139, Control_c, 0, 67, 85
1, 308153, Control_c, 0, 67, 88
1, 308168, Control_c, 0, 67, 90
1, 308183, Control_c, 0, 67, 93
1, 308198, Control_c, 0, 67, 95
1, 308213, Control_c, 0, 67, 98
1, 308229, Control_c, 0, 67, 100
1, 308243, Control_c, 0, 67, 103
1, 308258, Control_c, 0, 67, 105
1, 308273, Control_c, 0, 67, 107
1, 308288, Control_c, 0, 67, 109
1, 308303, Control_c, 0, 67, 112
1, 308318, Control_c, 0, 67, 115
1, 308332, Control_c, 0, 67, 118
1, 308347, Control_c, 0, 67, 121
1, 308362, Control_c, 0, 67, 123
1, 308376, Control_c, 0, 67, 125
1, 308391, Control_c, 0, 67, 127
1, 308414, Control_c, 0, 67, 127
1, 308744, Note_on_c, 0, 77, 86
1, 308752, Note_on_c, 0, 52, 47
1, 308755, Control_c, 0, 64, 104
1, 308769, Control_c, 0, 64, 83
1, 308784, Control_c, 0, 64, 68
1, 308795, Note_off_c, 0, 52, 61
1, 308799, Control_c, 0, 64, 21
1, 308814, Control_c, 0, 64, 0
1, 309061, Note_on_c, 0, 69, 35
1, 309214, Note_off_c, 0, 69, 53
1, 309232, Note_on_c, 0, 55, 43
1, 309238, Note_on_c, 0, 59, 44
1, 309265, Note_off_c, 0, 55, 63
1, 309270, Note_off_c, 0, 59, 62
1, 309300, Note_on_c, 0, 72, 35
1, 309385, Note_off_c, 0, 77, 53
1, 309392, Note_off_c, 0, 72, 57
1, 309407, Note_on_c, 0, 76, 70
1, 309536, Note_on_c, 0, 55, 41
1, 309536, Note_on_c, 0, 59, 42
1, 309564, Note_off_c, 0, 55, 58
1, 309566, Note_off_c, 0, 59, 52
1, 309569, Note_on_c, 0, 67, 43
1, 309620, Note_off_c, 0, 67, 60
1, 309672, Note_on_c, 0, 71, 50
1, 309760, Note_off_c, 0, 71, 60
1, 309787, Note_on_c, 0, 52, 40
1, 309789, Note_on_c, 0, 77, 64
1, 309798, Note_off_c, 0, 76, 51
1, 309819, Note_off_c, 0, 52, 54
1, 309920, Note_on_c, 0, 69, 41
1, 309973, Note_off_c, 0, 69, 54
1, 310009, Note_on_c, 0, 72, 56
1, 310016, Note_on_c, 0, 59, 43
1, 310019, Note_on_c, 0, 55, 46
1, 310043, Note_off_c, 0, 55, 59
1, 310043, Note_off_c, 0, 59, 58
1, 310061, Note_off_c, 0, 72, 52
1, 310076, Note_off_c, 0, 77, 54
1, 310097, Note_on_c, 0, 74, 67
1, 310195, Note_on_c, 0, 55, 47
1, 310200, Note_on_c, 0, 59, 44
1, 310210, Note_on_c, 0, 65, 48
1, 310219, Note_off_c, 0, 55, 56
1, 310228, Note_off_c, 0, 59, 54
1, 310245, Note_off_c, 0, 65, 53
1, 310293, Note_on_c, 0, 69, 52
1, 310360, Note_off_c, 0, 69, 50
1, 310367, Note_on_c, 0, 52, 65
1, 310373, Note_on_c, 0, 76, 69
1, 310391, Note_off_c, 0, 74, 55
1, 310394, Note_off_c, 0, 52, 65
1, 310482, Note_on_c, 0, 67, 50
1, 310517, Note_off_c, 0, 67, 56
1, 310546, Note_on_c, 0, 55, 58
1, 310549, Note_on_c, 0, 59, 54
1, 310554, Note_on_c, 0, 71, 61
1, 310572, Note_off_c, 0, 59, 60
1, 310573, Note_off_c, 0, 55, 64
1, 310582, Note_off_c, 0, 76, 47
1, 310599, Note_off_c, 0, 71, 63
1, 310631, Note_on_c, 0, 72, 66
1, 310704, Note_on_c, 0, 59, 56
1, 310706, Note_on_c, 0, 55, 59
1, 310729, Note_on_c, 0, 64, 63
1, 310732, Note_off_c, 0, 59, 64
1, 310734, Note_off_c, 0, 55, 65
1, 310758, Note_off_c, 0, 64, 65
1, 310806, Note_on_c, 0, 67, 63
1, 310840, Note_off_c, 0, 67, 60
1, 310879, Note_on_c, 0, 52, 58
1, 310887, Note_on_c, 0, 74, 70
1, 310904, Note_off_c, 0, 52, 61
1, 310913, Note_off_c, 0, 72, 43
1, 310966, Note_on_c, 0, 65, 64
1, 311029, Note_off_c, 0, 74, 57
1, 311030, Note_on_c, 0, 59, 59
1, 311032, Note_on_c, 0, 55, 61
1, 311044, Note_on_c, 0, 69, 68
1, 311045, Note_off_c, 0, 65, 60
1, 311057, Note_off_c, 0, 59, 64
1, 311059, Note_off_c, 0, 55, 65
1, 311068, Note_off_c, 0, 69, 69
1, 311128, Note_on_c, 0, 76, 82
1, 311129, Note_on_c, 0, 69, 85
1, 311178, Control_c, 0, 64, 41
1, 311193, Control_c, 0, 64, 61
1, 311208, Control_c, 0, 64, 68
1, 311223, Control_c, 0, 64, 75
1, 311230, Note_off_c, 0, 69, 0
1, 311238, Control_c, 0, 64, 84
1, 311253, Control_c, 0, 64, 98
1, 311267, Poly_aftertouch_c, 0, 69, 127
1, 311268, Control_c, 0, 64, 119
1, 311283, Control_c, 0, 64, 127
1, 311383, Poly_aftertouch_c, 0, 69, 0
1, 312013, Note_on_c, 0, 69, 52
1, 312022, Note_off_c, 0, 76, 38
1, 312027, Note_on_c, 0, 62, 45
1, 312055, Note_off_c, 0, 62, 60
1, 312055, Note_off_c, 0, 69, 63
1, 313156, Note_on_c, 0, 55, 41
1, 313165, Note_on_c, 0, 62, 41
1, 313200, Note_off_c, 0, 55, 59
1, 313203, Note_off_c, 0, 62, 61
1, 313724, Note_on_c, 0, 77, 53
1, 313724, Note_on_c, 0, 52, 49
1, 313744, Control_c, 0, 64, 98
1, 313754, Note_off_c, 0, 52, 60
1, 313759, Control_c, 0, 64, 78
1, 313773, Control_c, 0, 64, 65
1, 313788, Control_c, 0, 64, 0
1, 313863, Note_on_c, 0, 69, 33
1, 313921, Note_off_c, 0, 69, 60
1, 313924, Note_on_c, 0, 55, 54
1, 313939, Note_on_c, 0, 59, 45
1, 313956, Note_off_c, 0, 55, 65
1, 313968, Note_off_c, 0, 59, 56
1, 314014, Note_off_c, 0, 77, 42
1, 314024, Note_on_c, 0, 79, 58
1, 314089, Note_on_c, 0, 59, 46
1, 314102, Note_on_c, 0, 55, 45
1, 314120, Note_off_c, 0, 59, 63
1, 314129, Note_on_c, 0, 71, 29
1, 314129, Note_off_c, 0, 55, 55
1, 314162, Note_off_c, 0, 71, 52
1, 314165, Note_off_c, 0, 79, 59
1, 314175, Note_on_c, 0, 74, 58
1, 314219, Note_off_c, 0, 74, 59
1, 314253, Note_on_c, 0, 52, 53
1, 314256, Note_on_c, 0, 77, 62
1, 314281, Note_off_c, 0, 52, 62
1, 314323, Note_on_c, 0, 69, 50
1, 314377, Note_off_c, 0, 69, 55
1, 314377, Note_off_c, 0, 77, 57
1, 314394, Note_on_c, 0, 72, 63
1, 314397, Note_on_c, 0, 59, 50
1, 314402, Note_on_c, 0, 55, 48
1, 314421, Note_off_c, 0, 59, 58
1, 314430, Note_off_c, 0, 55, 54
1, 314445, Note_off_c, 0, 72, 61
1, 314487, Note_on_c, 0, 76, 60
1, 314517, Note_on_c, 0, 59, 51
1, 314519, Note_on_c, 0, 55, 56
1, 314538, Note_on_c, 0, 67, 61
1, 314550, Note_off_c, 0, 55, 64
1, 314550, Note_off_c, 0, 59, 62
1, 314556, Note_off_c, 0, 76, 54
1, 314579, Note_off_c, 0, 67, 55
1, 314602, Note_on_c, 0, 71, 69
1, 314645, Note_off_c, 0, 71, 62
1, 314665, Note_on_c, 0, 52, 57
1, 314673, Note_on_c, 0, 74, 76
1, 314698, Note_off_c, 0, 52, 63
1, 314724, Note_off_c, 0, 74, 66
1, 314734, Note_on_c, 0, 65, 66
1, 314775, Note_off_c, 0, 65, 59
1, 314778, Note_on_c, 0, 55, 55
1, 314785, Note_on_c, 0, 59, 46
1, 314800, Note_on_c, 0, 69, 70
1, 314802, Note_off_c, 0, 55, 59
1, 314814, Note_off_c, 0, 59, 54
1, 314833, Note_off_c, 0, 69, 64
1, 314846, Note_on_c, 0, 72, 68
1, 314892, Note_on_c, 0, 59, 63
1, 314898, Note_on_c, 0, 55, 45
1, 314910, Note_off_c, 0, 72, 63
1, 314911, Note_on_c, 0, 64, 67
1, 314937, Control_c, 0, 67, 122
1, 314940, Note_off_c, 0, 64, 66
1, 314946, Note_off_c, 0, 59, 54
1, 314952, Control_c, 0, 67, 118
1, 314963, Note_on_c, 0, 67, 76
1, 314967, Control_c, 0, 67, 115
1, 314982, Control_c, 0, 67, 116
1, 314985, Note_off_c, 0, 55, 38
1, 314986, Note_off_c, 0, 67, 69
1, 314997, Control_c, 0, 64, 47
1, 314997, Control_c, 0, 67, 119
1, 315011, Control_c, 0, 64, 63
1, 315011, Control_c, 0, 67, 123
1, 315026, Control_c, 0, 64, 67
1, 315026, Control_c, 0, 67, 127
1, 315041, Control_c, 0, 64, 72
1, 315053, Note_on_c, 0, 50, 70
1, 315056, Control_c, 0, 64, 76
1, 315065, Note_on_c, 0, 82, 82
1, 315070, Control_c, 0, 64, 82
1, 315085, Control_c, 0, 64, 89
1, 315095, Note_off_c, 0, 50, 64
1, 315096, Note_off_c, 0, 82, 61
1, 315100, Control_c, 0, 64, 96
1, 315115, Control_c, 0, 64, 104
1, 315130, Control_c, 0, 64, 116
1, 315152, Control_c, 0, 64, 127
1, 315217, Note_on_c, 0, 57, 40
1, 315242, Note_on_c, 0, 53, 20
1, 315250, Note_off_c, 0, 57, 52
1, 315285, Note_off_c, 0, 53, 56
1, 315328, Note_on_c, 0, 57, 53
1, 315341, Note_on_c, 0, 53, 42
1, 315351, Note_off_c, 0, 57, 63
1, 315374, Note_off_c, 0, 53, 54
1, 315434, Control_c, 0, 64, 88
1, 315449, Control_c, 0, 64, 68
1, 315459, Note_on_c, 0, 96, 74
1, 315464, Control_c, 0, 64, 0
1, 315472, Note_on_c, 0, 35, 61
1, 315479, Note_off_c, 0, 96, 72
1, 315498, Note_off_c, 0, 35, 61
1, 315591, Note_on_c, 0, 52, 62
1, 315612, Note_on_c, 0, 83, 30
1, 315620, Note_off_c, 0, 52, 64
1, 315644, Note_off_c, 0, 83, 47
1, 315703, Note_on_c, 0, 77, 48
1, 315706, Note_on_c, 0, 36, 53
1, 315727, Note_off_c, 0, 77, 61
1, 315737, Note_off_c, 0, 36, 53
1, 315811, Note_on_c, 0, 88, 65
1, 315816, Note_on_c, 0, 53, 63
1, 315843, Note_off_c, 0, 53, 66
1, 315843, Note_off_c, 0, 88, 61
1, 315930, Note_on_c, 0, 83, 58
1, 315933, Note_on_c, 0, 38, 59
1, 315948, Note_off_c, 0, 83, 66
1, 315963, Note_off_c, 0, 38, 60
1, 316031, Note_on_c, 0, 93, 69
1, 316036, Note_on_c, 0, 55, 59
1, 316047, Note_off_c, 0, 93, 67
1, 316065, Note_off_c, 0, 55, 65
1, 316140, Note_on_c, 0, 40, 68
1, 316143, Note_on_c, 0, 77, 66
1, 316161, Note_off_c, 0, 77, 67
1, 316164, Note_off_c, 0, 40, 66
1, 316255, Note_on_c, 0, 57, 62
1, 316255, Note_on_c, 0, 81, 72
1, 316276, Note_off_c, 0, 81, 71
1, 316279, Note_off_c, 0, 57, 64
1, 316355, Note_on_c, 0, 91, 75
1, 316358, Note_on_c, 0, 41, 71
1, 316386, Note_off_c, 0, 41, 65
1, 316387, Note_off_c, 0, 91, 65
1, 316469, Note_on_c, 0, 59, 69
1, 316471, Note_on_c, 0, 88, 74
1, 316493, Note_off_c, 0, 88, 69
1, 316494, Note_off_c, 0, 59, 66
1, 316568, Note_on_c, 0, 83, 76
1, 316574, Note_on_c, 0, 43, 74
1, 316589, Note_off_c, 0, 83, 70
1, 316606, Note_off_c, 0, 43, 66
1, 316682, Note_on_c, 0, 74, 79
1, 316685, Note_on_c, 0, 60, 73
1, 316703, Note_off_c, 0, 74, 72
1, 316711, Note_off_c, 0, 60, 69
1, 316787, Note_on_c, 0, 45, 81
1, 316788, Note_on_c, 0, 91, 88
1, 316813, Note_off_c, 0, 45, 69
1, 316824, Note_off_c, 0, 91, 66
1, 316894, Note_on_c, 0, 77, 74
1, 316895, Note_on_c, 0, 62, 71
1, 316916, Note_off_c, 0, 77, 71
1, 316918, Note_off_c, 0, 62, 69
1, 316991, Note_on_c, 0, 47, 80
1, 316992, Note_on_c, 0, 74, 83
1, 317014, Note_off_c, 0, 74, 71
1, 317020, Note_off_c, 0, 47, 70
1, 317095, Note_on_c, 0, 73, 91
1, 317097, Note_on_c, 0, 64, 81
1, 317121, Note_off_c, 0, 64, 70
1, 317128, Note_off_c, 0, 73, 63
1, 317203, Note_on_c, 0, 48, 84
1, 317204, Note_on_c, 0, 88, 73
1, 317215, Note_on_c, 0, 86, 66
1, 317226, Note_off_c, 0, 48, 68
1, 317227, Note_off_c, 0, 88, 68
1, 317231, Note_off_c, 0, 86, 69
1, 317299, Note_on_c, 0, 65, 84
1, 317302, Note_on_c, 0, 71, 78
1, 317317, Control_c, 0, 67, 121
1, 317324, Note_off_c, 0, 71, 69
1, 317328, Note_off_c, 0, 65, 64
1, 317331, Control_c, 0, 67, 102
1, 317346, Control_c, 0, 67, 74
1, 317361, Control_c, 0, 67, 41
1, 317384, Control_c, 0, 67, 12
1, 317399, Control_c, 0, 67, 0
1, 317406, Note_on_c, 0, 84, 72
1, 317412, Note_on_c, 0, 50, 73
1, 317420, Note_on_c, 0, 52, 55
1, 317436, Note_off_c, 0, 84, 65
1, 317440, Note_off_c, 0, 50, 68
1, 317447, Note_off_c, 0, 52, 57
1, 317502, Control_c, 0, 64, 28
1, 317510, Note_on_c, 0, 67, 83
1, 317517, Control_c, 0, 64, 27
1, 317531, Control_c, 0, 64, 0
1, 317533, Note_off_c, 0, 67, 65
1, 317623, Note_on_c, 0, 59, 92
1, 317624, Note_on_c, 0, 65, 98
1, 317629, Note_on_c, 0, 96, 102
1, 317632, Note_on_c, 0, 84, 86
1, 317634, Note_on_c, 0, 62, 82
1, 317649, Note_off_c, 0, 84, 75
1, 317650, Control_c, 0, 64, 37
1, 317651, Note_off_c, 0, 96, 65
1, 317665, Control_c, 0, 64, 64
1, 317680, Control_c, 0, 64, 72
1, 317694, Control_c, 0, 64, 84
1, 317709, Control_c, 0, 64, 101
1, 317724, Control_c, 0, 64, 127
1, 317859, Note_off_c, 0, 65, 55
1, 317886, Note_off_c, 0, 62, 60
1, 317891, Note_off_c, 0, 59, 61
1, 318222, Control_c, 0, 64, 105
1, 318234, Note_on_c, 0, 77, 77
1, 318236, Control_c, 0, 64, 82
1, 318237, Note_on_c, 0, 52, 63
1, 318251, Control_c, 0, 64, 65
1, 318266, Control_c, 0, 64, 0
1, 318295, Control_c, 0, 64, 31
1, 318303, Note_off_c, 0, 52, 55
1, 318310, Control_c, 0, 64, 61
1, 318325, Control_c, 0, 64, 68
1, 318340, Control_c, 0, 64, 74
1, 318354, Control_c, 0, 64, 80
1, 318369, Control_c, 0, 64, 85
1, 318373, Note_on_c, 0, 69, 50
1, 318384, Control_c, 0, 64, 90
1, 318399, Control_c, 0, 64, 94
1, 318414, Control_c, 0, 64, 98
1, 318416, Note_off_c, 0, 69, 58
1, 318428, Control_c, 0, 64, 100
1, 318439, Note_on_c, 0, 55, 51
1, 318441, Note_on_c, 0, 59, 48
1, 318443, Control_c, 0, 64, 102
1, 318448, Note_on_c, 0, 72, 59
1, 318458, Control_c, 0, 64, 103
1, 318473, Note_off_c, 0, 55, 62
1, 318473, Control_c, 0, 64, 105
1, 318482, Note_off_c, 0, 59, 59
1, 318487, Control_c, 0, 64, 107
1, 318502, Control_c, 0, 64, 110
1, 318509, Note_off_c, 0, 72, 53
1, 318517, Control_c, 0, 64, 112
1, 318528, Note_on_c, 0, 76, 73
1, 318532, Control_c, 0, 64, 115
1, 318547, Control_c, 0, 64, 127
1, 318591, Note_on_c, 0, 59, 57
1, 318595, Note_on_c, 0, 55, 45
1, 318604, Note_on_c, 0, 67, 69
1, 318607, Note_off_c, 0, 77, 35
1, 318639, Note_off_c, 0, 67, 53
1, 318641, Note_off_c, 0, 59, 54
1, 318673, Note_on_c, 0, 71, 73
1, 318681, Control_c, 0, 64, 109
1, 318696, Control_c, 0, 64, 80
1, 318697, Note_off_c, 0, 55, 39
1, 318711, Control_c, 0, 64, 66
1, 318726, Control_c, 0, 64, 62
1, 318729, Note_off_c, 0, 71, 65
1, 318741, Control_c, 0, 64, 66
1, 318747, Note_on_c, 0, 77, 82
1, 318753, Note_on_c, 0, 52, 67
1, 318756, Control_c, 0, 64, 73
1, 318771, Control_c, 0, 64, 82
1, 318777, Note_off_c, 0, 76, 52
1, 318785, Control_c, 0, 64, 99
1, 318797, Note_off_c, 0, 52, 60
1, 318800, Control_c, 0, 64, 119
1, 318815, Control_c, 0, 64, 127
1, 318833, Note_on_c, 0, 69, 76
1, 318857, Note_off_c, 0, 77, 57
1, 318887, Note_on_c, 0, 55, 53
1, 318890, Note_on_c, 0, 59, 62
1, 318893, Note_off_c, 0, 69, 56
1, 318899, Note_on_c, 0, 72, 80
1, 318923, Note_off_c, 0, 59, 63
1, 318931, Note_off_c, 0, 55, 62
1, 318953, Note_off_c, 0, 72, 63
1, 318958, Note_on_c, 0, 74, 87
1, 319000, Control_c, 0, 64, 95
1, 319010, Note_on_c, 0, 59, 65
1, 319015, Control_c, 0, 64, 75
1, 319022, Note_on_c, 0, 55, 63
1, 319030, Control_c, 0, 64, 61
1, 319040, Note_on_c, 0, 65, 78
1, 319045, Control_c, 0, 64, 53
1, 319059, Control_c, 0, 64, 61
1, 319064, Note_off_c, 0, 59, 58
1, 319074, Control_c, 0, 64, 67
1, 319087, Note_off_c, 0, 55, 45
1, 319089, Control_c, 0, 64, 72
1, 319090, Note_on_c, 0, 69, 73
1, 319092, Note_off_c, 0, 65, 59
1, 319102, Note_off_c, 0, 74, 62
1, 319103, Control_c, 0, 64, 79
1, 319118, Control_c, 0, 64, 88
1, 319133, Control_c, 0, 64, 101
1, 319145, Note_on_c, 0, 76, 96
1, 319147, Note_off_c, 0, 69, 63
1, 319148, Control_c, 0, 64, 127
1, 319152, Note_on_c, 0, 52, 79
1, 319205, Note_off_c, 0, 52, 63
1, 319230, Note_on_c, 0, 67, 81
1, 319238, Note_off_c, 0, 76, 64
1, 319262, Note_on_c, 0, 55, 73
1, 319268, Note_on_c, 0, 59, 76
1, 319277, Note_off_c, 0, 67, 61
1, 319280, Note_on_c, 0, 71, 82
1, 319303, Note_off_c, 0, 59, 60
1, 319313, Note_off_c, 0, 55, 63
1, 319338, Note_on_c, 0, 72, 90
1, 319343, Note_off_c, 0, 71, 65
1, 319403, Note_on_c, 0, 59, 77
1, 319409, Note_on_c, 0, 55, 75
1, 319415, Control_c, 0, 64, 96
1, 319419, Note_on_c, 0, 64, 83
1, 319430, Control_c, 0, 64, 75
1, 319432, Note_off_c, 0, 72, 66
1, 319445, Control_c, 0, 64, 57
1, 319455, Note_off_c, 0, 59, 62
1, 319460, Control_c, 0, 64, 0
1, 319462, Note_off_c, 0, 55, 51
1, 319468, Note_on_c, 0, 67, 82
1, 319474, Note_off_c, 0, 64, 65
1, 319475, Control_c, 0, 64, 24
1, 319489, Control_c, 0, 64, 63
1, 319504, Control_c, 0, 64, 75
1, 319519, Note_on_c, 0, 52, 87
1, 319519, Control_c, 0, 64, 92
1, 319522, Note_on_c, 0, 74, 94
1, 319523, Note_off_c, 0, 67, 62
1, 319534, Control_c, 0, 64, 127
1, 319592, Note_on_c, 0, 65, 86
1, 319603, Note_off_c, 0, 52, 61
1, 319604, Note_off_c, 0, 74, 67
1, 319620, Note_on_c, 0, 55, 76
1, 319623, Note_on_c, 0, 59, 83
1, 319644, Note_off_c, 0, 65, 63
1, 319655, Note_off_c, 0, 55, 66
1, 319657, Note_on_c, 0, 69, 84
1, 319657, Note_off_c, 0, 59, 63
1, 319671, Note_on_c, 0, 67, 64
1, 319686, Note_off_c, 0, 69, 65
1, 319689, Note_off_c, 0, 67, 39
1, 319719, Control_c, 0, 64, 91
1, 319733, Control_c, 0, 64, 33
1, 319743, Note_on_c, 0, 76, 112
1, 319746, Note_on_c, 0, 69, 105
1, 319748, Control_c, 0, 64, 0
1, 319867, Control_c, 0, 64, 57
1, 319882, Control_c, 0, 64, 69
1, 319897, Control_c, 0, 64, 84
1, 319912, Control_c, 0, 64, 127
1, 319971, Note_off_c, 0, 76, 51
1, 319990, Note_off_c, 0, 69, 60
1, 320443, Note_on_c, 0, 62, 113
1, 320445, Note_on_c, 0, 69, 107
1, 320471, Note_off_c, 0, 62, 69
1, 320477, Note_off_c, 0, 69, 63
1, 321275, Note_on_c, 0, 62, 98
1, 321276, Note_on_c, 0, 55, 95
1, 321307, Note_off_c, 0, 62, 69
1, 321312, Note_off_c, 0, 55, 68
1, 321779, Control_c, 0, 64, 94
1, 321786, Note_on_c, 0, 52, 94
1, 321790, Note_on_c, 0, 77, 82
1, 321795, Control_c, 0, 64, 72
1, 321810, Control_c, 0, 64, 44
1, 321820, Note_off_c, 0, 52, 62
1, 321825, Control_c, 0, 64, 0
1, 321840, Control_c, 0, 64, 11
1, 321855, Control_c, 0, 64, 42
1, 321877, Control_c, 0, 64, 50
1, 321878, Note_on_c, 0, 69, 76
1, 321892, Control_c, 0, 64, 53
1, 321921, Control_c, 0, 64, 54
1, 321936, Control_c, 0, 64, 58
1, 321951, Control_c, 0, 64, 62
1, 321956, Note_on_c, 0, 72, 71
1, 321956, Note_off_c, 0, 69, 61
1, 321962, Note_on_c, 0, 55, 74
1, 321966, Control_c, 0, 64, 65
1, 321969, Note_on_c, 0, 59, 60
1, 321981, Control_c, 0, 64, 67
1, 321989, Note_off_c, 0, 55, 66
1, 321996, Control_c, 0, 64, 69
1, 321998, Note_off_c, 0, 59, 64
1, 322005, Note_off_c, 0, 72, 60
1, 322010, Control_c, 0, 64, 71
1, 322021, Note_on_c, 0, 79, 80
1, 322025, Control_c, 0, 64, 72
1, 322040, Control_c, 0, 64, 72
1, 322053, Note_off_c, 0, 77, 31
1, 322054, Control_c, 0, 64, 71
1, 322069, Control_c, 0, 64, 67
1, 322081, Note_on_c, 0, 59, 66
1, 322082, Note_on_c, 0, 55, 59
1, 322084, Control_c, 0, 64, 63
1, 322093, Note_on_c, 0, 71, 71
1, 322099, Control_c, 0, 64, 40
1, 322112, Note_off_c, 0, 59, 64
1, 322114, Control_c, 0, 64, 0
1, 322115, Note_off_c, 0, 79, 62
1, 322116, Note_off_c, 0, 55, 65
1, 322133, Note_off_c, 0, 71, 62
1, 322145, Note_on_c, 0, 74, 81
1, 322196, Note_off_c, 0, 74, 63
1, 322199, Note_on_c, 0, 77, 84
1, 322202, Control_c, 0, 64, 32
1, 322212, Note_on_c, 0, 52, 78
1, 322217, Control_c, 0, 64, 60
1, 322232, Control_c, 0, 64, 65
1, 322245, Note_off_c, 0, 52, 64
1, 322247, Control_c, 0, 64, 68
1, 322258, Note_on_c, 0, 69, 75
1, 322261, Control_c, 0, 64, 70
1, 322276, Control_c, 0, 64, 71
1, 322280, Note_off_c, 0, 77, 62
1, 322295, Note_off_c, 0, 69, 55
1, 322323, Note_on_c, 0, 72, 78
1, 322329, Note_on_c, 0, 55, 75
1, 322330, Note_on_c, 0, 59, 75
1, 322336, Control_c, 0, 64, 72
1, 322351, Control_c, 0, 64, 73
1, 322356, Note_off_c, 0, 59, 65
1, 322356, Note_off_c, 0, 55, 67
1, 322366, Control_c, 0, 64, 75
1, 322371, Note_off_c, 0, 72, 66
1, 322380, Control_c, 0, 64, 76
1, 322382, Note_on_c, 0, 76, 77
1, 322395, Control_c, 0, 64, 78
1, 322425, Control_c, 0, 64, 77
1, 322432, Note_on_c, 0, 67, 77
1, 322440, Control_c, 0, 64, 73
1, 322447, Note_on_c, 0, 59, 81
1, 322451, Note_off_c, 0, 76, 63
1, 322452, Note_on_c, 0, 55, 66
1, 322454, Control_c, 0, 64, 68
1, 322469, Control_c, 0, 64, 65
1, 322473, Note_off_c, 0, 59, 64
1, 322474, Note_off_c, 0, 67, 52
1, 322474, Note_off_c, 0, 55, 69
1, 322484, Control_c, 0, 64, 66
1, 322497, Note_on_c, 0, 71, 81
1, 322499, Control_c, 0, 64, 69
1, 322514, Control_c, 0, 64, 73
1, 322528, Control_c, 0, 64, 78
1, 322543, Control_c, 0, 64, 82
1, 322546, Note_off_c, 0, 71, 67
1, 322552, Note_on_c, 0, 74, 85
1, 322558, Control_c, 0, 64, 85
1, 322559, Note_on_c, 0, 52, 80
1, 322573, Control_c, 0, 64, 86
1, 322580, Note_on_c, 0, 53, 55
1, 322590, Note_off_c, 0, 52, 65
1, 322604, Note_on_c, 0, 65, 78
1, 322607, Note_off_c, 0, 53, 61
1, 322614, Note_off_c, 0, 74, 64
1, 322625, Control_c, 0, 64, 87
1, 322640, Control_c, 0, 64, 88
1, 322663, Note_off_c, 0, 65, 55
1, 322667, Note_on_c, 0, 55, 82
1, 322667, Note_on_c, 0, 59, 80
1, 322670, Control_c, 0, 64, 82
1, 322679, Note_on_c, 0, 69, 87
1, 322684, Control_c, 0, 64, 71
1, 322690, Note_off_c, 0, 59, 64
1, 322690, Note_off_c, 0, 55, 66
1, 322699, Control_c, 0, 64, 0
1, 322720, Note_on_c, 0, 72, 84
1, 322720, Note_off_c, 0, 69, 64
1, 322744, Control_c, 0, 64, 63
1, 322759, Control_c, 0, 64, 77
1, 322774, Control_c, 0, 64, 90
1, 322778, Note_on_c, 0, 64, 83
1, 322783, Note_on_c, 0, 55, 73
1, 322784, Note_on_c, 0, 59, 78
1, 322786, Note_off_c, 0, 72, 64
1, 322789, Control_c, 0, 64, 113
1, 322804, Control_c, 0, 64, 122
1, 322819, Control_c, 0, 64, 123
1, 322829, Note_on_c, 0, 67, 90
1, 322831, Note_off_c, 0, 64, 65
1, 322833, Control_c, 0, 64, 127
1, 322848, Note_off_c, 0, 67, 71
1, 322859, Note_off_c, 0, 59, 60
1, 322867, Note_off_c, 0, 55, 63
1, 322916, Note_on_c, 0, 50, 99
1, 322923, Note_on_c, 0, 82, 92
1, 322924, Note_off_c, 0, 82, 127
1, 322933, Note_on_c, 0, 83, 85
1, 322938, Note_on_c, 0, 84, 74
1, 322952, Note_off_c, 0, 83, 71
1, 322959, Note_off_c, 0, 84, 70
1, 322972, Note_off_c, 0, 50, 68
1, 322998, Note_on_c, 0, 82, 28
1, 323033, Note_off_c, 0, 82, 49
1, 323035, Note_on_c, 0, 53, 80
1, 323038, Note_on_c, 0, 57, 80
1, 323066, Note_off_c, 0, 57, 65
1, 323082, Note_off_c, 0, 53, 65
1, 323150, Note_on_c, 0, 57, 84
1, 323154, Note_on_c, 0, 53, 80
1, 323174, Note_off_c, 0, 57, 68
1, 323182, Note_off_c, 0, 53, 71
1, 323248, Control_c, 0, 64, 85
1, 323263, Control_c, 0, 64, 53
1, 323267, Note_on_c, 0, 96, 97
1, 323272, Note_on_c, 0, 35, 90
1, 323277, Control_c, 0, 64, 0
1, 323295, Note_off_c, 0, 96, 69
1, 323299, Note_off_c, 0, 35, 70
1, 323394, Note_on_c, 0, 83, 74
1, 323396, Note_on_c, 0, 52, 77
1, 323415, Note_off_c, 0, 83, 71
1, 323427, Note_off_c, 0, 52, 67
1, 323497, Note_on_c, 0, 77, 71
1, 323501, Note_on_c, 0, 36, 79
1, 323519, Note_off_c, 0, 77, 70
1, 323533, Note_off_c, 0, 36, 65
1, 323601, Note_on_c, 0, 88, 77
1, 323605, Note_on_c, 0, 53, 78
1, 323623, Note_off_c, 0, 88, 67
1, 323634, Note_off_c, 0, 53, 69
1, 323701, Note_on_c, 0, 83, 72
1, 323711, Note_on_c, 0, 38, 74
1, 323723, Note_off_c, 0, 83, 71
1, 323740, Note_off_c, 0, 38, 65
1, 323804, Note_on_c, 0, 93, 76
1, 323813, Note_on_c, 0, 55, 70
1, 323824, Note_off_c, 0, 93, 70
1, 323838, Note_off_c, 0, 55, 66
1, 323909, Note_on_c, 0, 40, 81
1, 323911, Note_on_c, 0, 77, 77
1, 323934, Note_off_c, 0, 77, 69
1, 323939, Note_off_c, 0, 40, 69
1, 324017, Note_on_c, 0, 81, 75
1, 324017, Note_on_c, 0, 57, 71
1, 324036, Note_off_c, 0, 81, 70
1, 324043, Note_off_c, 0, 57, 66
1, 324112, Note_on_c, 0, 41, 83
1, 324112, Note_on_c, 0, 91, 81
1, 324150, Note_off_c, 0, 91, 66
1, 324151, Note_off_c, 0, 41, 67
1, 324227, Note_on_c, 0, 59, 82
1, 324228, Note_on_c, 0, 88, 82
1, 324252, Note_off_c, 0, 88, 64
1, 324255, Note_off_c, 0, 59, 63
1, 324322, Note_on_c, 0, 83, 85
1, 324333, Note_on_c, 0, 43, 86
1, 324345, Note_off_c, 0, 83, 67
1, 324365, Note_off_c, 0, 43, 67
1, 324427, Note_on_c, 0, 74, 87
1, 324434, Note_on_c, 0, 60, 84
1, 324450, Note_off_c, 0, 74, 67
1, 324463, Note_off_c, 0, 60, 67
1, 324523, Note_on_c, 0, 91, 93
1, 324528, Note_on_c, 0, 45, 91
1, 324554, Note_off_c, 0, 45, 70
1, 324565, Note_off_c, 0, 91, 67
1, 324631, Note_on_c, 0, 62, 83
1, 324631, Note_on_c, 0, 77, 86
1, 324658, Note_off_c, 0, 77, 62
1, 324667, Note_off_c, 0, 62, 61
1, 324729, Note_on_c, 0, 74, 94
1, 324734, Note_on_c, 0, 47, 90
1, 324755, Note_off_c, 0, 74, 68
1, 324759, Note_off_c, 0, 47, 71
1, 324828, Note_on_c, 0, 73, 97
1, 324833, Note_on_c, 0, 64, 88
1, 324860, Note_off_c, 0, 73, 63
1, 324875, Note_off_c, 0, 64, 66
1, 324932, Note_on_c, 0, 86, 92
1, 324941, Note_on_c, 0, 48, 92
1, 324965, Note_off_c, 0, 48, 69
1, 324973, Note_off_c, 0, 86, 66
1, 325036, Note_on_c, 0, 65, 93
1, 325041, Note_on_c, 0, 71, 85
1, 325066, Note_on_c, 0, 72, 45
1, 325067, Note_off_c, 0, 72, 127
1, 325072, Note_off_c, 0, 65, 67
1, 325077, Note_off_c, 0, 71, 66
1, 325131, Note_on_c, 0, 84, 94
1, 325141, Note_on_c, 0, 52, 80
1, 325150, Note_on_c, 0, 50, 67
1, 325153, Control_c, 0, 64, 14
1, 325168, Note_off_c, 0, 52, 68
1, 325168, Control_c, 0, 64, 53
1, 325174, Note_off_c, 0, 50, 61
1, 325177, Note_off_c, 0, 84, 64
1, 325183, Control_c, 0, 64, 64
1, 325198, Control_c, 0, 64, 71
1, 325213, Control_c, 0, 64, 77
1, 325227, Control_c, 0, 64, 78
1, 325230, Note_on_c, 0, 78, 86
1, 325233, Note_on_c, 0, 67, 96
1, 325242, Control_c, 0, 64, 75
1, 325247, Note_off_c, 0, 78, 73
1, 325257, Control_c, 0, 64, 66
1, 325269, Note_off_c, 0, 67, 63
1, 325272, Control_c, 0, 64, 35
1, 325287, Control_c, 0, 64, 0
1, 325340, Note_on_c, 0, 65, 108
1, 325342, Note_on_c, 0, 59, 93
1, 325343, Note_on_c, 0, 84, 109
1, 325343, Note_on_c, 0, 96, 107
1, 325349, Note_on_c, 0, 62, 85
1, 325378, Note_off_c, 0, 96, 70
1, 325400, Note_on_c, 0, 94, 8
1, 325401, Note_off_c, 0, 94, 127
1, 325424, Note_off_c, 0, 84, 37
1, 325450, Control_c, 0, 64, 65
1, 325464, Control_c, 0, 64, 80
1, 325479, Control_c, 0, 64, 111
1, 325494, Control_c, 0, 64, 127
1, 325776, Note_off_c, 0, 65, 60
1, 325793, Note_off_c, 0, 59, 65
1, 325797, Note_off_c, 0, 62, 62
1, 325799, Control_c, 0, 64, 95
1, 325814, Control_c, 0, 64, 73
1, 325829, Control_c, 0, 64, 0
1, 325835, Note_on_c, 0, 65, 84
1, 325859, Note_off_c, 0, 65, 70
1, 325940, Note_on_c, 0, 66, 77
1, 325963, Note_off_c, 0, 66, 68
1, 326044, Note_on_c, 0, 69, 73
1, 326068, Note_off_c, 0, 69, 70
1, 326143, Note_on_c, 0, 71, 81
1, 326161, Note_off_c, 0, 71, 73
1, 326168, Control_c, 0, 67, 8
1, 326183, Control_c, 0, 67, 12
1, 326198, Control_c, 0, 67, 17
1, 326213, Control_c, 0, 67, 23
1, 326227, Control_c, 0, 67, 28
1, 326242, Control_c, 0, 67, 31
1, 326247, Note_on_c, 0, 64, 69
1, 326257, Control_c, 0, 67, 32
1, 326272, Control_c, 0, 67, 33
1, 326273, Note_off_c, 0, 64, 66
1, 326301, Control_c, 0, 67, 35
1, 326316, Control_c, 0, 67, 37
1, 326331, Control_c, 0, 67, 40
1, 326335, Note_on_c, 0, 75, 73
1, 326346, Control_c, 0, 67, 43
1, 326358, Note_off_c, 0, 75, 69
1, 326361, Control_c, 0, 67, 45
1, 326383, Control_c, 0, 67, 47
1, 326398, Control_c, 0, 67, 49
1, 326413, Control_c, 0, 67, 50
1, 326427, Control_c, 0, 67, 52
1, 326442, Control_c, 0, 67, 53
1, 326445, Note_on_c, 0, 74, 80
1, 326457, Control_c, 0, 67, 54
1, 326468, Note_off_c, 0, 74, 71
1, 326472, Control_c, 0, 67, 56
1, 326487, Control_c, 0, 67, 58
1, 326501, Control_c, 0, 67, 60
1, 326516, Control_c, 0, 67, 63
1, 326531, Control_c, 0, 67, 65
1, 326546, Control_c, 0, 67, 66
1, 326548, Note_on_c, 0, 69, 68
1, 326561, Control_c, 0, 67, 68
1, 326572, Note_off_c, 0, 69, 69
1, 326575, Control_c, 0, 67, 69
1, 326591, Control_c, 0, 67, 69
1, 326606, Control_c, 0, 67, 70
1, 326621, Control_c, 0, 67, 71
1, 326636, Control_c, 0, 67, 73
1, 326649, Note_on_c, 0, 72, 67
1, 326650, Control_c, 0, 67, 74
1, 326665, Control_c, 0, 67, 75
1, 326676, Note_off_c, 0, 72, 67
1, 326680, Control_c, 0, 67, 76
1, 326695, Control_c, 0, 67, 77
1, 326710, Control_c, 0, 67, 78
1, 326724, Control_c, 0, 67, 79
1, 326730, Note_on_c, 0, 61, 64
1, 326739, Control_c, 0, 67, 81
1, 326751, Note_off_c, 0, 61, 63
1, 326754, Control_c, 0, 67, 83
1, 326769, Control_c, 0, 67, 86
1, 326784, Control_c, 0, 67, 88
1, 326798, Control_c, 0, 67, 90
1, 326813, Control_c, 0, 67, 91
1, 326827, Note_on_c, 0, 67, 72
1, 326828, Control_c, 0, 67, 92
1, 326843, Control_c, 0, 67, 92
1, 326849, Note_off_c, 0, 67, 68
1, 326858, Control_c, 0, 67, 93
1, 326873, Control_c, 0, 67, 94
1, 326888, Control_c, 0, 67, 95
1, 326902, Control_c, 0, 67, 96
1, 326917, Control_c, 0, 67, 97
1, 326920, Note_on_c, 0, 62, 70
1, 326932, Control_c, 0, 67, 97
1, 326944, Note_off_c, 0, 62, 69
1, 326947, Control_c, 0, 67, 98
1, 326962, Control_c, 0, 67, 99
1, 326977, Control_c, 0, 67, 100
1, 326991, Control_c, 0, 67, 100
1, 327027, Note_on_c, 0, 64, 71
1, 327051, Note_off_c, 0, 64, 70
1, 327065, Control_c, 0, 67, 101
1, 327132, Control_c, 0, 67, 101
1, 327137, Note_on_c, 0, 65, 71
1, 327162, Control_c, 0, 67, 102
1, 327162, Note_off_c, 0, 65, 69
1, 327192, Control_c, 0, 67, 102
1, 327206, Control_c, 0, 67, 103
1, 327221, Control_c, 0, 67, 103
1, 327233, Note_on_c, 0, 70, 69
1, 327236, Control_c, 0, 67, 104
1, 327250, Control_c, 0, 67, 104
1, 327257, Note_off_c, 0, 70, 68
1, 327295, Control_c, 0, 67, 105
1, 327324, Control_c, 0, 67, 105
1, 327332, Note_on_c, 0, 71, 72
1, 327356, Note_off_c, 0, 71, 70
1, 327432, Note_on_c, 0, 72, 75
1, 327454, Note_off_c, 0, 72, 69
1, 327534, Note_on_c, 0, 77, 73
1, 327566, Note_off_c, 0, 77, 62
1, 327630, Note_on_c, 0, 76, 75
1, 327651, Note_off_c, 0, 76, 69
1, 327723, Note_on_c, 0, 71, 69
1, 327758, Note_off_c, 0, 71, 61
1, 327823, Note_on_c, 0, 69, 68
1, 327841, Note_off_c, 0, 69, 66
1, 327932, Note_on_c, 0, 82, 86
1, 327955, Note_off_c, 0, 82, 65
1, 328023, Note_on_c, 0, 72, 72
1, 328045, Note_off_c, 0, 72, 70
1, 328117, Note_on_c, 0, 71, 80
1, 328118, Control_c, 0, 67, 105
1, 328146, Note_off_c, 0, 71, 62
1, 328193, Control_c, 0, 67, 104
1, 328219, Note_on_c, 0, 72, 85
1, 328236, Note_off_c, 0, 72, 72
1, 328327, Note_on_c, 0, 78, 78
1, 328352, Note_off_c, 0, 78, 63
1, 328412, Note_on_c, 0, 77, 81
1, 328444, Note_off_c, 0, 77, 62
1, 328507, Note_on_c, 0, 83, 87
1, 328540, Note_off_c, 0, 83, 66
1, 328605, Note_on_c, 0, 72, 78
1, 328632, Note_off_c, 0, 72, 70
1, 328704, Note_on_c, 0, 74, 87
1, 328727, Note_off_c, 0, 74, 69
1, 328748, Control_c, 0, 67, 104
1, 328777, Control_c, 0, 67, 103
1, 328792, Control_c, 0, 67, 103
1, 328804, Note_on_c, 0, 84, 91
1, 328831, Note_off_c, 0, 84, 65
1, 328837, Control_c, 0, 67, 102
1, 328882, Control_c, 0, 67, 102
1, 328896, Note_on_c, 0, 71, 79
1, 328915, Note_off_c, 0, 71, 73
1, 328992, Note_on_c, 0, 74, 86
1, 329010, Note_off_c, 0, 74, 74
1, 329085, Note_on_c, 0, 87, 90
1, 329118, Note_off_c, 0, 87, 63
1, 329181, Note_on_c, 0, 76, 85
1, 329208, Control_c, 0, 67, 101
1, 329210, Note_off_c, 0, 76, 62
1, 329237, Control_c, 0, 67, 101
1, 329252, Control_c, 0, 67, 100
1, 329272, Note_on_c, 0, 78, 88
1, 329297, Control_c, 0, 67, 100
1, 329311, Note_off_c, 0, 78, 63
1, 329311, Control_c, 0, 67, 99
1, 329341, Control_c, 0, 67, 98
1, 329373, Note_on_c, 0, 79, 92
1, 329393, Control_c, 0, 67, 98
1, 329408, Control_c, 0, 67, 97
1, 329410, Note_off_c, 0, 79, 61
1, 329423, Control_c, 0, 67, 97
1, 329437, Control_c, 0, 67, 96
1, 329452, Control_c, 0, 67, 94
1, 329466, Note_on_c, 0, 68, 87
1, 329467, Control_c, 0, 67, 93
1, 329482, Control_c, 0, 67, 91
1, 329485, Note_off_c, 0, 68, 69
1, 329497, Control_c, 0, 67, 86
1, 329511, Control_c, 0, 67, 79
1, 329526, Control_c, 0, 67, 71
1, 329541, Control_c, 0, 67, 62
1, 329554, Note_on_c, 0, 81, 89
1, 329556, Control_c, 0, 67, 55
1, 329571, Control_c, 0, 67, 49
1, 329579, Note_off_c, 0, 81, 63
1, 329585, Control_c, 0, 67, 43
1, 329600, Control_c, 0, 67, 34
1, 329615, Control_c, 0, 67, 25
1, 329630, Control_c, 0, 67, 16
1, 329645, Control_c, 0, 67, 10
1, 329651, Note_on_c, 0, 70, 92
1, 329660, Control_c, 0, 67, 9
1, 329667, Note_off_c, 0, 70, 74
1, 329746, Note_on_c, 0, 71, 81
1, 329768, Note_off_c, 0, 71, 68
1, 329835, Note_on_c, 0, 76, 87
1, 329868, Control_c, 0, 67, 8
1, 329872, Note_off_c, 0, 76, 62
1, 329883, Control_c, 0, 67, 0
1, 329932, Note_on_c, 0, 77, 91
1, 329952, Note_off_c, 0, 77, 66
1, 330029, Note_on_c, 0, 66, 78
1, 330055, Note_off_c, 0, 66, 65
1, 330128, Note_on_c, 0, 71, 87
1, 330149, Note_off_c, 0, 71, 68
1, 330217, Note_on_c, 0, 64, 88
1, 330251, Note_off_c, 0, 64, 64
1, 330319, Note_on_c, 0, 65, 89
1, 330337, Note_off_c, 0, 65, 73
1, 330410, Note_on_c, 0, 72, 83
1, 330443, Note_off_c, 0, 72, 65
1, 330497, Note_on_c, 0, 75, 89
1, 330539, Note_off_c, 0, 75, 61
1, 330598, Note_on_c, 0, 64, 79
1, 330618, Note_off_c, 0, 64, 72
1, 330683, Note_on_c, 0, 75, 86
1, 330723, Note_off_c, 0, 75, 62
1, 330777, Note_on_c, 0, 77, 94
1, 330810, Note_off_c, 0, 77, 67
1, 330876, Note_on_c, 0, 78, 92
1, 330903, Note_off_c, 0, 78, 63
1, 330967, Note_on_c, 0, 74, 90
1, 330983, Note_off_c, 0, 74, 75
1, 331052, Note_on_c, 0, 83, 94
1, 331085, Note_off_c, 0, 83, 68
1, 331150, Note_on_c, 0, 77, 87
1, 331172, Note_off_c, 0, 77, 66
1, 331245, Note_on_c, 0, 76, 91
1, 331280, Note_off_c, 0, 76, 65
1, 331353, Note_on_c, 0, 86, 59
1, 331354, Note_off_c, 0, 86, 127
1, 331425, Note_on_c, 0, 74, 88
1, 331440, Note_off_c, 0, 74, 75
1, 331516, Note_on_c, 0, 77, 93
1, 331535, Note_off_c, 0, 77, 69
1, 331625, Note_on_c, 0, 90, 101
1, 331664, Note_off_c, 0, 90, 67
1, 331711, Note_on_c, 0, 79, 93
1, 331734, Note_off_c, 0, 79, 65
1, 331803, Note_on_c, 0, 85, 90
1, 331825, Note_on_c, 0, 84, 65
1, 331840, Note_off_c, 0, 84, 66
1, 331844, Note_off_c, 0, 85, 62
1, 331897, Note_on_c, 0, 91, 104
1, 331904, Note_on_c, 0, 89, 85
1, 331919, Note_off_c, 0, 89, 65
1, 331928, Note_off_c, 0, 91, 69
1, 331988, Note_on_c, 0, 73, 99
1, 332012, Note_off_c, 0, 73, 67
1, 332074, Note_on_c, 0, 86, 101
1, 332110, Note_off_c, 0, 86, 71
1, 332170, Note_on_c, 0, 93, 117
1, 332202, Note_off_c, 0, 93, 72
1, 332271, Note_on_c, 0, 87, 117
1, 332300, Note_off_c, 0, 87, 70
1, 332367, Note_on_c, 0, 88, 104
1, 332411, Note_off_c, 0, 88, 67
1, 332459, Note_on_c, 0, 94, 119
1, 332487, Note_off_c, 0, 94, 72
1, 332522, Control_c, 0, 64, 37
1, 332536, Control_c, 0, 64, 67
1, 332551, Control_c, 0, 64, 84
1, 332566, Control_c, 0, 64, 127
1, 332583, Note_on_c, 0, 72, 101
1, 332618, Note_off_c, 0, 72, 67
1, 332774, Note_on_c, 0, 59, 103
1, 332775, Note_on_c, 0, 84, 108
1, 332776, Note_on_c, 0, 96, 119
1, 332777, Note_on_c, 0, 65, 104
1, 332781, Note_on_c, 0, 62, 89
1, 332803, Control_c, 0, 64, 84
1, 332809, Note_on_c, 0, 63, 37
1, 332810, Note_off_c, 0, 63, 127
1, 332818, Control_c, 0, 64, 47
1, 332833, Control_c, 0, 64, 0
1, 332983, Control_c, 0, 64, 61
1, 332998, Control_c, 0, 64, 67
1, 333012, Control_c, 0, 64, 72
1, 333027, Control_c, 0, 64, 79
1, 333042, Control_c, 0, 64, 88
1, 333057, Control_c, 0, 64, 111
1, 333072, Control_c, 0, 64, 127
1, 333225, Note_off_c, 0, 96, 56
1, 333335, Note_off_c, 0, 59, 54
1, 333353, Note_off_c, 0, 84, 57
1, 333367, Note_off_c, 0, 62, 54
1, 333394, Note_off_c, 0, 65, 62
1, 333746, Control_c, 0, 64, 88
1, 333760, Control_c, 0, 64, 64
1, 333775, Control_c, 0, 64, 0
1, 333791, Note_on_c, 0, 81, 88
1, 333791, Note_on_c, 0, 84, 87
1, 333795, Note_on_c, 0, 65, 113
1, 333797, Note_on_c, 0, 77, 87
1, 333806, Control_c, 0, 64, 57
1, 333821, Control_c, 0, 64, 74
1, 333835, Control_c, 0, 64, 96
1, 333837, Note_off_c, 0, 77, 60
1, 333838, Note_off_c, 0, 81, 60
1, 333857, Control_c, 0, 64, 127
1, 333862, Note_off_c, 0, 84, 56
1, 334060, Note_off_c, 0, 65, 58
1, 334066, Note_on_c, 0, 57, 74
1, 334066, Note_on_c, 0, 60, 80
1, 334076, Note_on_c, 0, 84, 76
1, 334078, Note_on_c, 0, 81, 78
1, 334080, Note_on_c, 0, 77, 79
1, 334092, Note_off_c, 0, 57, 68
1, 334097, Note_off_c, 0, 60, 66
1, 334114, Note_off_c, 0, 77, 58
1, 334124, Note_off_c, 0, 81, 62
1, 334129, Note_off_c, 0, 84, 61
1, 334256, Note_on_c, 0, 84, 83
1, 334257, Note_on_c, 0, 81, 84
1, 334262, Note_on_c, 0, 77, 80
1, 334265, Note_on_c, 0, 64, 104
1, 334291, Note_off_c, 0, 77, 61
1, 334301, Note_off_c, 0, 81, 62
1, 334301, Control_c, 0, 64, 100
1, 334311, Note_off_c, 0, 84, 63
1, 334316, Control_c, 0, 64, 83
1, 334331, Control_c, 0, 64, 80
1, 334346, Control_c, 0, 64, 89
1, 334361, Control_c, 0, 64, 127
1, 334424, Note_on_c, 0, 55, 78
1, 334429, Note_on_c, 0, 59, 82
1, 334429, Note_on_c, 0, 83, 87
1, 334432, Note_on_c, 0, 86, 85
1, 334433, Note_on_c, 0, 79, 87
1, 334441, Note_off_c, 0, 64, 60
1, 334469, Note_off_c, 0, 55, 64
1, 334471, Note_off_c, 0, 59, 64
1, 334478, Note_off_c, 0, 79, 63
1, 334482, Note_off_c, 0, 83, 64
1, 334485, Note_off_c, 0, 86, 62
1, 334578, Note_on_c, 0, 65, 102
1, 334584, Note_on_c, 0, 83, 89
1, 334585, Note_on_c, 0, 79, 88
1, 334587, Note_on_c, 0, 86, 84
1, 334637, Note_off_c, 0, 79, 63
1, 334639, Note_off_c, 0, 83, 65
1, 334642, Note_off_c, 0, 86, 64
1, 334684, Note_off_c, 0, 65, 57
1, 334721, Note_on_c, 0, 57, 81
1, 334722, Note_on_c, 0, 60, 80
1, 334729, Note_on_c, 0, 86, 89
1, 334730, Note_on_c, 0, 83, 83
1, 334731, Note_on_c, 0, 79, 84
1, 334757, Note_off_c, 0, 60, 62
1, 334760, Note_off_c, 0, 57, 65
1, 334773, Note_off_c, 0, 86, 66
1, 334774, Note_off_c, 0, 83, 63
1, 334775, Note_off_c, 0, 79, 61
1, 334784, Control_c, 0, 64, 99
1, 334799, Control_c, 0, 64, 96
1, 334814, Control_c, 0, 64, 108
1, 334829, Control_c, 0, 64, 127
1, 334856, Note_on_c, 0, 62, 96
1, 334861, Note_on_c, 0, 84, 83
1, 334863, Note_on_c, 0, 81, 84
1, 334864, Note_on_c, 0, 77, 89
1, 334906, Note_off_c, 0, 84, 65
1, 334906, Note_off_c, 0, 77, 64
1, 334907, Note_off_c, 0, 81, 64
1, 334949, Note_off_c, 0, 62, 57
1, 334977, Note_on_c, 0, 81, 83
1, 334978, Note_on_c, 0, 84, 80
1, 334980, Note_on_c, 0, 53, 84
1, 334984, Note_on_c, 0, 77, 80
1, 334985, Note_on_c, 0, 57, 75
1, 335011, Note_off_c, 0, 77, 64
1, 335015, Note_off_c, 0, 81, 61
1, 335019, Note_off_c, 0, 57, 62
1, 335022, Note_off_c, 0, 84, 62
1, 335030, Note_off_c, 0, 53, 66
1, 335079, Note_on_c, 0, 84, 80
1, 335084, Note_on_c, 0, 81, 82
1, 335086, Note_on_c, 0, 77, 84
1, 335104, Note_on_c, 0, 64, 102
1, 335110, Note_off_c, 0, 77, 68
1, 335110, Control_c, 0, 64, 114
1, 335115, Note_off_c, 0, 81, 61
1, 335122, Note_off_c, 0, 84, 65
1, 335125, Control_c, 0, 64, 109
1, 335139, Control_c, 0, 64, 127
1, 335169, Note_off_c, 0, 64, 62
1, 335198, Note_on_c, 0, 55, 81
1, 335201, Note_on_c, 0, 88, 89
1, 335201, Note_on_c, 0, 84, 93
1, 335202, Note_on_c, 0, 59, 80
1, 335202, Note_on_c, 0, 81, 90
1, 335233, Note_off_c, 0, 59, 62
1, 335243, Note_off_c, 0, 81, 65
1, 335243, Note_off_c, 0, 88, 66
1, 335246, Note_off_c, 0, 84, 60
1, 335246, Note_off_c, 0, 55, 66
1, 335309, Note_on_c, 0, 84, 80
1, 335310, Note_on_c, 0, 60, 96
1, 335314, Note_on_c, 0, 88, 85
1, 335316, Note_on_c, 0, 81, 85
1, 335346, Note_off_c, 0, 84, 61
1, 335361, Note_off_c, 0, 88, 61
1, 335365, Note_off_c, 0, 81, 62
1, 335371, Note_off_c, 0, 60, 65
1, 335399, Control_c, 0, 64, 112
1, 335413, Control_c, 0, 64, 87
1, 335415, Note_on_c, 0, 52, 78
1, 335415, Note_on_c, 0, 88, 78
1, 335416, Note_on_c, 0, 81, 73
1, 335416, Note_on_c, 0, 84, 87
1, 335419, Note_on_c, 0, 55, 86
1, 335428, Control_c, 0, 64, 80
1, 335443, Note_off_c, 0, 55, 70
1, 335443, Control_c, 0, 64, 91
1, 335448, Note_off_c, 0, 88, 61
1, 335452, Note_off_c, 0, 81, 63
1, 335456, Note_off_c, 0, 84, 64
1, 335458, Control_c, 0, 64, 127
1, 335461, Note_off_c, 0, 52, 64
1, 335524, Note_on_c, 0, 62, 97
1, 335529, Note_on_c, 0, 84, 84
1, 335534, Note_on_c, 0, 77, 89
1, 335538, Note_on_c, 0, 81, 75
1, 335554, Note_on_c, 0, 83, 51
1, 335559, Note_off_c, 0, 81, 69
1, 335571, Note_off_c, 0, 84, 59
1, 335574, Note_off_c, 0, 77, 61
1, 335575, Note_off_c, 0, 83, 61
1, 335579, Note_off_c, 0, 62, 64
1, 335624, Note_on_c, 0, 84, 73
1, 335625, Note_on_c, 0, 57, 78
1, 335626, Note_on_c, 0, 53, 77
1, 335626, Note_on_c, 0, 81, 86
1, 335633, Note_on_c, 0, 77, 72
1, 335651, Note_off_c, 0, 57, 66
1, 335654, Note_off_c, 0, 77, 68
1, 335657, Note_off_c, 0, 81, 61
1, 335666, Note_off_c, 0, 53, 65
1, 335666, Note_off_c, 0, 84, 64
1, 335720, Note_on_c, 0, 84, 78
1, 335721, Note_on_c, 0, 77, 76
1, 335721, Note_on_c, 0, 81, 86
1, 335726, Poly_aftertouch_c, 0, 55, 0
1, 335732, Note_on_c, 0, 65, 98
1, 335741, Note_off_c, 0, 77, 72
1, 335742, Note_off_c, 0, 81, 67
1, 335749, Note_off_c, 0, 84, 65
1, 335781, Note_off_c, 0, 65, 67
1, 335816, Note_on_c, 0, 57, 86
1, 335820, Note_on_c, 0, 60, 83
1, 335826, Note_on_c, 0, 86, 96
1, 335827, Note_on_c, 0, 89, 96
1, 335828, Note_on_c, 0, 83, 95
1, 335862, Note_off_c, 0, 60, 64
1, 335864, Note_off_c, 0, 83, 66
1, 335864, Note_off_c, 0, 86, 64
1, 335868, Note_off_c, 0, 89, 64
1, 335911, Note_off_c, 0, 57, 0
1, 335917, Note_on_c, 0, 67, 101
1, 335929, Note_on_c, 0, 86, 88
1, 335931, Note_on_c, 0, 89, 90
1, 335932, Note_on_c, 0, 83, 87
1, 335947, Poly_aftertouch_c, 0, 57, 0
1, 335967, Note_off_c, 0, 86, 66
1, 335968, Note_off_c, 0, 67, 64
1, 335970, Note_off_c, 0, 83, 63
1, 335973, Note_off_c, 0, 89, 63
1, 335991, Control_c, 0, 64, 99
1, 336006, Control_c, 0, 64, 81
1, 336013, Note_on_c, 0, 83, 80
1, 336014, Note_on_c, 0, 89, 80
1, 336015, Note_on_c, 0, 62, 95
1, 336018, Note_on_c, 0, 86, 87
1, 336018, Note_on_c, 0, 59, 81
1, 336021, Control_c, 0, 64, 78
1, 336036, Control_c, 0, 64, 87
1, 336051, Control_c, 0, 64, 127
1, 336056, Note_off_c, 0, 59, 55
1, 336056, Note_off_c, 0, 86, 66
1, 336057, Note_off_c, 0, 83, 66
1, 336059, Note_off_c, 0, 89, 61
1, 336061, Note_off_c, 0, 62, 64
1, 336123, Note_on_c, 0, 65, 100
1, 336133, Note_on_c, 0, 81, 99
1, 336134, Note_on_c, 0, 77, 99
1, 336134, Note_on_c, 0, 84, 94
1, 336170, Note_off_c, 0, 81, 67
1, 336170, Note_off_c, 0, 77, 65
1, 336176, Note_off_c, 0, 65, 68
1, 336176, Note_off_c, 0, 84, 62
1, 336219, Note_on_c, 0, 60, 94
1, 336222, Note_on_c, 0, 57, 91
1, 336223, Note_on_c, 0, 84, 80
1, 336224, Note_on_c, 0, 81, 94
1, 336229, Note_on_c, 0, 77, 95
1, 336257, Note_off_c, 0, 60, 68
1, 336262, Note_off_c, 0, 84, 65
1, 336263, Note_off_c, 0, 81, 66
1, 336267, Note_off_c, 0, 57, 65
1, 336268, Note_off_c, 0, 77, 65
1, 336319, Note_on_c, 0, 64, 96
1, 336324, Note_on_c, 0, 84, 94
1, 336325, Note_on_c, 0, 81, 96
1, 336327, Note_on_c, 0, 77, 84
1, 336344, Note_off_c, 0, 77, 74
1, 336352, Note_off_c, 0, 81, 62
1, 336358, Note_off_c, 0, 84, 66
1, 336361, Note_on_c, 0, 79, 37
1, 336369, Note_off_c, 0, 64, 68
1, 336393, Note_off_c, 0, 79, 57
1, 336417, Note_on_c, 0, 55, 89
1, 336417, Note_on_c, 0, 59, 89
1, 336429, Note_on_c, 0, 89, 104
1, 336429, Note_on_c, 0, 86, 99
1, 336430, Note_on_c, 0, 93, 107
1, 336444, Note_on_c, 0, 57, 45
1, 336452, Note_off_c, 0, 59, 65
1, 336458, Note_on_c, 0, 60, 20
1, 336459, Note_off_c, 0, 60, 127
1, 336461, Note_off_c, 0, 55, 66
1, 336462, Note_off_c, 0, 93, 70
1, 336462, Note_off_c, 0, 89, 65
1, 336465, Note_off_c, 0, 86, 68
1, 336468, Note_off_c, 0, 57, 63
1, 336492, Poly_aftertouch_c, 0, 60, 0
1, 336516, Note_on_c, 0, 62, 98
1, 336529, Note_on_c, 0, 89, 106
1, 336531, Note_on_c, 0, 93, 101
1, 336534, Note_on_c, 0, 86, 98
1, 336566, Note_off_c, 0, 62, 66
1, 336571, Note_off_c, 0, 93, 67
1, 336573, Note_off_c, 0, 89, 65
1, 336573, Note_off_c, 0, 86, 65
1, 336614, Note_on_c, 0, 53, 66
1, 336620, Note_on_c, 0, 57, 99
1, 336623, Note_on_c, 0, 86, 94
1, 336624, Note_on_c, 0, 93, 92
1, 336625, Note_on_c, 0, 89, 100
1, 336646, Note_off_c, 0, 57, 66
1, 336656, Note_off_c, 0, 86, 69
1, 336657, Note_off_c, 0, 89, 66
1, 336658, Note_off_c, 0, 93, 61
1, 336665, Note_off_c, 0, 53, 67
1, 336714, Poly_aftertouch_c, 0, 55, 0
1, 336719, Note_on_c, 0, 60, 103
1, 336736, Note_on_c, 0, 77, 109
1, 336736, Note_on_c, 0, 81, 104
1, 336737, Note_on_c, 0, 84, 97
1, 336763, Note_off_c, 0, 81, 71
1, 336765, Note_off_c, 0, 77, 69
1, 336767, Note_off_c, 0, 60, 69
1, 336772, Note_on_c, 0, 86, 36
1, 336773, Note_off_c, 0, 86, 127
1, 336773, Note_off_c, 0, 84, 68
1, 336826, Note_on_c, 0, 55, 92
1, 336834, Note_on_c, 0, 52, 86
1, 336841, Note_on_c, 0, 81, 107
1, 336842, Note_on_c, 0, 77, 102
1, 336852, Note_on_c, 0, 84, 95
1, 336853, Poly_aftertouch_c, 0, 83, 0
1, 336880, Note_off_c, 0, 55, 68
1, 336882, Note_off_c, 0, 81, 69
1, 336883, Note_off_c, 0, 77, 68
1, 336886, Note_off_c, 0, 84, 64
1, 336891, Note_off_c, 0, 52, 63
1, 336947, Note_on_c, 0, 59, 99
1, 336962, Note_on_c, 0, 81, 109
1, 336963, Note_on_c, 0, 77, 108
1, 336966, Note_on_c, 0, 84, 100
1, 336978, Note_on_c, 0, 60, 46
1, 336993, Note_off_c, 0, 59, 65
1, 336993, Note_off_c, 0, 81, 68
1, 336995, Note_off_c, 0, 60, 46
1, 336995, Note_off_c, 0, 77, 69
1, 337007, Note_off_c, 0, 84, 59
1, 337044, Note_on_c, 0, 54, 50
1, 337071, Note_off_c, 0, 54, 59
1, 337093, Note_on_c, 0, 50, 87
1, 337103, Note_on_c, 0, 58, 107
1, 337106, Note_on_c, 0, 53, 80
1, 337109, Note_on_c, 0, 91, 122
1, 337110, Note_on_c, 0, 88, 107
1, 337110, Note_on_c, 0, 95, 120
1, 337130, Note_off_c, 0, 53, 68
1, 337130, Note_off_c, 0, 91, 71
1, 337133, Note_off_c, 0, 50, 69
1, 337133, Note_off_c, 0, 88, 67
1, 337133, Note_off_c, 0, 95, 70
1, 337138, Note_off_c, 0, 58, 68
1, 337320, Note_on_c, 0, 79, 110
1, 337321, Note_on_c, 0, 70, 111
1, 337321, Note_on_c, 0, 76, 110
1, 337322, Note_on_c, 0, 83, 102
1, 337323, Note_on_c, 0, 65, 83
1, 337326, Note_on_c, 0, 62, 79
1, 337333, Note_off_c, 0, 83, 78
1, 337339, Note_off_c, 0, 76, 66
1, 337339, Note_off_c, 0, 79, 68
1, 337354, Note_on_c, 0, 66, 55
1, 337368, Note_on_c, 0, 63, 24
1, 337374, Note_off_c, 0, 70, 65
1, 337378, Note_off_c, 0, 66, 61
1, 337416, Note_off_c, 0, 65, 59
1, 337423, Note_off_c, 0, 62, 53
1, 337430, Note_off_c, 0, 63, 45
1, 337660, Control_c, 0, 64, 84
1, 337675, Control_c, 0, 64, 0
1, 338016, Control_c, 0, 64, 60
1, 338020, Note_on_c, 0, 97, 103
1, 338026, Note_on_c, 0, 85, 103
1, 338030, Note_on_c, 0, 26, 100
1, 338031, Control_c, 0, 64, 78
1, 338033, Note_on_c, 0, 36, 91
1, 338033, Note_on_c, 0, 38, 93
1, 338046, Control_c, 0, 64, 99
1, 338055, Note_off_c, 0, 38, 72
1, 338056, Note_off_c, 0, 36, 71
1, 338059, Note_off_c, 0, 97, 69
1, 338060, Note_off_c, 0, 26, 65
1, 338060, Note_off_c, 0, 85, 65
1, 338061, Control_c, 0, 64, 127
1, 338114, Note_on_c, 0, 97, 125
1, 338115, Note_on_c, 0, 36, 111
1, 338115, Note_on_c, 0, 85, 111
1, 338118, Note_on_c, 0, 26, 104
1, 338140, Note_off_c, 0, 85, 69
1, 338140, Note_off_c, 0, 97, 71
1, 338141, Note_on_c, 0, 94, 49
1, 338142, Note_off_c, 0, 94, 127
1, 338145, Note_off_c, 0, 36, 70
1, 338146, Note_off_c, 0, 26, 66
1, 338154, Note_on_c, 0, 35, 43
1, 338155, Note_off_c, 0, 35, 127
1, 338193, Poly_aftertouch_c, 0, 35, 0
1, 338692, Control_c, 0, 64, 109
1, 338706, Control_c, 0, 64, 75
1, 338721, Control_c, 0, 64, 0
1, 343503, Note_on_c, 0, 66, 37
1, 343549, Note_off_c, 0, 66, 61
1, 344859, Note_on_c, 0, 67, 46
1, 345066, Control_c, 0, 67, 8
1, 345081, Control_c, 0, 67, 8
1, 345119, Control_c, 0, 67, 9
1, 345134, Control_c, 0, 67, 11
1, 345148, Control_c, 0, 67, 12
1, 345163, Control_c, 0, 67, 12
1, 345178, Control_c, 0, 67, 13
1, 345207, Control_c, 0, 67, 14
1, 345222, Control_c, 0, 67, 15
1, 345237, Control_c, 0, 67, 16
1, 345248, Note_on_c, 0, 76, 51
1, 345252, Control_c, 0, 67, 18
1, 345256, Note_off_c, 0, 67, 49
1, 345266, Control_c, 0, 67, 20
1, 345281, Control_c, 0, 67, 21
1, 345296, Control_c, 0, 67, 22
1, 345310, Control_c, 0, 67, 23
1, 345325, Control_c, 0, 67, 24
1, 345340, Control_c, 0, 67, 25
1, 345355, Control_c, 0, 67, 26
1, 345370, Control_c, 0, 67, 26
1, 345384, Control_c, 0, 67, 27
1, 345399, Control_c, 0, 67, 27
1, 345414, Control_c, 0, 67, 28
1, 345444, Control_c, 0, 67, 28
1, 345459, Control_c, 0, 67, 29
1, 345474, Control_c, 0, 67, 30
1, 345488, Control_c, 0, 67, 30
1, 345503, Control_c, 0, 67, 31
1, 345518, Control_c, 0, 67, 32
1, 345533, Control_c, 0, 67, 32
1, 345548, Control_c, 0, 67, 33
1, 345563, Control_c, 0, 67, 34
1, 345578, Control_c, 0, 67, 34
1, 345592, Control_c, 0, 67, 35
1, 345607, Control_c, 0, 67, 36
1, 345622, Control_c, 0, 67, 37
1, 345637, Control_c, 0, 67, 38
1, 345652, Control_c, 0, 67, 38
1, 345666, Control_c, 0, 67, 39
1, 345681, Control_c, 0, 67, 40
1, 345696, Control_c, 0, 67, 41
1, 345710, Control_c, 0, 67, 42
1, 345725, Control_c, 0, 67, 43
1, 345740, Control_c, 0, 67, 44
1, 345755, Control_c, 0, 67, 44
1, 345815, Control_c, 0, 67, 45
1, 345830, Control_c, 0, 67, 45
1, 345852, Control_c, 0, 67, 46
1, 345867, Control_c, 0, 67, 50
1, 345882, Control_c, 0, 67, 55
1, 345897, Control_c, 0, 67, 59
1, 345912, Control_c, 0, 67, 63
1, 345927, Control_c, 0, 67, 66
1, 345941, Control_c, 0, 67, 69
1, 345956, Control_c, 0, 67, 73
1, 345963, Note_on_c, 0, 79, 50
1, 345971, Control_c, 0, 67, 77
1, 345986, Control_c, 0, 67, 82
1, 345996, Note_off_c, 0, 76, 54
1, 346001, Control_c, 0, 67, 89
1, 346008, Note_off_c, 0, 79, 59
1, 346015, Control_c, 0, 67, 96
1, 346030, Control_c, 0, 67, 102
1, 346045, Control_c, 0, 67, 108
1, 346060, Control_c, 0, 67, 115
1, 346075, Control_c, 0, 67, 120
1, 346089, Control_c, 0, 67, 125
1, 346104, Control_c, 0, 67, 127
1, 346111, Note_on_c, 0, 79, 48
1, 346148, Note_off_c, 0, 79, 55
1, 346329, Note_on_c, 0, 49, 45
1, 346371, Note_off_c, 0, 49, 63
1, 346880, Note_on_c, 0, 72, 43
1, 346905, Note_off_c, 0, 72, 60
1, 347151, Note_on_c, 0, 75, 47
1, 347185, Note_off_c, 0, 75, 65
1, 347565, Note_on_c, 0, 50, 41
1, 347825, Note_on_c, 0, 79, 52
1, 347927, Note_on_c, 0, 59, 54
1, 348013, Note_off_c, 0, 50, 42
1, 348034, Note_off_c, 0, 79, 54
1, 348046, Note_on_c, 0, 68, 47
1, 348097, Note_off_c, 0, 68, 62
1, 348519, Note_on_c, 0, 62, 42
1, 348537, Note_off_c, 0, 59, 60
1, 348554, Note_off_c, 0, 62, 63
1, 348646, Note_on_c, 0, 62, 50
1, 348671, Note_off_c, 0, 62, 57
1, 348747, Note_on_c, 0, 75, 47
1, 348816, Note_off_c, 0, 75, 57
1, 348885, Note_on_c, 0, 77, 50
1, 348942, Note_off_c, 0, 77, 58
1, 349330, Note_on_c, 0, 55, 51
1, 349358, Note_off_c, 0, 55, 63
1, 349439, Note_on_c, 0, 72, 47
1, 349471, Note_off_c, 0, 72, 56
1, 349566, Note_on_c, 0, 58, 49
1, 349566, Note_on_c, 0, 74, 49
1, 349599, Note_off_c, 0, 58, 60
1, 349616, Note_off_c, 0, 74, 56
1, 349717, Note_on_c, 0, 76, 41
1, 349754, Note_off_c, 0, 76, 55
1, 350212, Note_on_c, 0, 62, 40
1, 350487, Note_on_c, 0, 51, 45
1, 350503, Note_off_c, 0, 62, 57
1, 350538, Note_off_c, 0, 51, 64
1, 350621, Note_on_c, 0, 81, 58
1, 350784, Note_off_c, 0, 81, 53
1, 350886, Note_on_c, 0, 81, 77
1, 350997, Control_c, 0, 64, 11
1, 351012, Control_c, 0, 64, 27
1, 351027, Control_c, 0, 64, 33
1, 351042, Control_c, 0, 64, 38
1, 351048, Note_off_c, 0, 81, 56
1, 351057, Control_c, 0, 64, 42
1, 351072, Control_c, 0, 64, 44
1, 351152, Control_c, 0, 64, 43
1, 351156, Note_on_c, 0, 81, 76
1, 351167, Control_c, 0, 64, 42
1, 351182, Control_c, 0, 64, 40
1, 351197, Control_c, 0, 64, 39
1, 351212, Control_c, 0, 64, 38
1, 351227, Control_c, 0, 64, 35
1, 351242, Control_c, 0, 64, 29
1, 351256, Control_c, 0, 64, 17
1, 351271, Control_c, 0, 64, 0
1, 351283, Note_on_c, 0, 58, 51
1, 351397, Note_off_c, 0, 58, 42
1, 351423, Note_on_c, 0, 79, 61
1, 351430, Note_on_c, 0, 60, 46
1, 351431, Note_off_c, 0, 81, 57
1, 351598, Control_c, 0, 64, 36
1, 351611, Control_c, 0, 64, 48
1, 351626, Control_c, 0, 64, 55
1, 351641, Control_c, 0, 64, 59
1, 351643, Note_off_c, 0, 60, 63
1, 351656, Control_c, 0, 64, 61
1, 351671, Control_c, 0, 64, 62
1, 351685, Control_c, 0, 64, 63
1, 351715, Control_c, 0, 64, 64
1, 351856, Control_c, 0, 64, 63
1, 351871, Control_c, 0, 64, 61
1, 351885, Control_c, 0, 64, 54
1, 351900, Control_c, 0, 64, 29
1, 351915, Note_off_c, 0, 79, 51
1, 351915, Control_c, 0, 64, 0
1, 351930, Note_on_c, 0, 62, 73
1, 351994, Note_off_c, 0, 62, 57
1, 352037, Note_on_c, 0, 55, 58
1, 352099, Note_off_c, 0, 55, 58
1, 352164, Note_on_c, 0, 78, 59
1, 352177, Note_on_c, 0, 57, 48
1, 352204, Note_off_c, 0, 57, 59
1, 352207, Note_off_c, 0, 78, 51
1, 352283, Note_on_c, 0, 59, 53
1, 352307, Note_off_c, 0, 59, 58
1, 352400, Note_on_c, 0, 73, 53
1, 352479, Note_off_c, 0, 73, 62
1, 352962, Control_c, 0, 64, 31
1, 352976, Control_c, 0, 64, 47
1, 352991, Control_c, 0, 64, 55
1, 353006, Control_c, 0, 64, 59
1, 353021, Control_c, 0, 64, 61
1, 353033, Note_on_c, 0, 63, 57
1, 353036, Control_c, 0, 64, 62
1, 353051, Control_c, 0, 64, 62
1, 353080, Control_c, 0, 64, 63
1, 353095, Control_c, 0, 64, 63
1, 353124, Control_c, 0, 64, 64
1, 353139, Control_c, 0, 64, 64
1, 353172, Note_on_c, 0, 64, 43
1, 353244, Note_off_c, 0, 64, 64
1, 353339, Control_c, 0, 64, 64
1, 353369, Control_c, 0, 64, 63
1, 353399, Control_c, 0, 64, 62
1, 353402, Note_off_c, 0, 63, 62
1, 353410, Note_on_c, 0, 72, 68
1, 353428, Control_c, 0, 64, 62
1, 353441, Note_on_c, 0, 64, 48
1, 353457, Control_c, 0, 64, 62
1, 353494, Note_off_c, 0, 64, 59
1, 353517, Control_c, 0, 64, 63
1, 353635, Control_c, 0, 64, 63
1, 353670, Note_on_c, 0, 64, 63
1, 353695, Control_c, 0, 64, 64
1, 353707, Note_off_c, 0, 64, 65
1, 353739, Control_c, 0, 64, 64
1, 353799, Control_c, 0, 64, 65
1, 353844, Control_c, 0, 64, 64
1, 353859, Control_c, 0, 64, 64
1, 353874, Control_c, 0, 64, 63
1, 353889, Control_c, 0, 64, 62
1, 353903, Control_c, 0, 64, 61
1, 353904, Note_on_c, 0, 79, 67
1, 353918, Control_c, 0, 64, 60
1, 353921, Note_on_c, 0, 62, 47
1, 353933, Control_c, 0, 64, 59
1, 353940, Note_off_c, 0, 72, 58
1, 353947, Control_c, 0, 64, 57
1, 353962, Control_c, 0, 64, 54
1, 353963, Note_off_c, 0, 62, 58
1, 353977, Control_c, 0, 64, 53
1, 353992, Control_c, 0, 64, 52
1, 354007, Control_c, 0, 64, 49
1, 354015, Note_on_c, 0, 75, 71
1, 354021, Control_c, 0, 64, 45
1, 354036, Control_c, 0, 64, 44
1, 354056, Note_off_c, 0, 75, 59
1, 354066, Control_c, 0, 64, 43
1, 354088, Control_c, 0, 64, 42
1, 354103, Control_c, 0, 64, 36
1, 354114, Note_off_c, 0, 79, 42
1, 354118, Control_c, 0, 64, 28
1, 354133, Control_c, 0, 64, 11
1, 354138, Note_on_c, 0, 75, 68
1, 354148, Control_c, 0, 64, 0
1, 354172, Note_off_c, 0, 75, 60
1, 354371, Note_on_c, 0, 81, 65
1, 354400, Note_off_c, 0, 81, 63
1, 354603, Note_on_c, 0, 61, 55
1, 354610, Note_on_c, 0, 83, 62
1, 354639, Note_off_c, 0, 61, 64
1, 354642, Note_off_c, 0, 83, 62
1, 354852, Note_on_c, 0, 56, 55
1, 354854, Note_on_c, 0, 68, 56
1, 354854, Note_on_c, 0, 84, 57
1, 354883, Note_off_c, 0, 56, 65
1, 354891, Note_off_c, 0, 68, 63
1, 354894, Note_off_c, 0, 84, 62
1, 355091, Note_on_c, 0, 71, 64
1, 355114, Note_off_c, 0, 71, 70
1, 355296, Control_c, 0, 64, 17
1, 355310, Control_c, 0, 64, 23
1, 355325, Control_c, 0, 64, 29
1, 355340, Control_c, 0, 64, 34
1, 355357, Control_c, 0, 64, 38
1, 355372, Control_c, 0, 64, 40
1, 355387, Control_c, 0, 64, 42
1, 355401, Control_c, 0, 64, 43
1, 355454, Note_on_c, 0, 78, 64
1, 355475, Control_c, 0, 64, 42
1, 355483, Note_off_c, 0, 78, 64
1, 355490, Control_c, 0, 64, 40
1, 355505, Control_c, 0, 64, 37
1, 355519, Control_c, 0, 64, 34
1, 355534, Control_c, 0, 64, 31
1, 355549, Control_c, 0, 64, 29
1, 355572, Control_c, 0, 64, 28
1, 355587, Control_c, 0, 64, 23
1, 355601, Control_c, 0, 64, 11
1, 355616, Control_c, 0, 64, 0
1, 355692, Note_on_c, 0, 75, 65
1, 355794, Control_c, 0, 64, 33
1, 355808, Control_c, 0, 64, 49
1, 355818, Note_on_c, 0, 82, 66
1, 355823, Control_c, 0, 64, 58
1, 355838, Control_c, 0, 64, 63
1, 355853, Control_c, 0, 64, 65
1, 355868, Control_c, 0, 64, 66
1, 355885, Note_off_c, 0, 82, 61
1, 355927, Control_c, 0, 64, 65
1, 355942, Control_c, 0, 64, 64
1, 355944, Note_on_c, 0, 64, 61
1, 355957, Control_c, 0, 64, 62
1, 355972, Control_c, 0, 64, 60
1, 355975, Note_off_c, 0, 75, 60
1, 355987, Control_c, 0, 64, 58
1, 355990, Note_off_c, 0, 64, 62
1, 356001, Control_c, 0, 64, 54
1, 356016, Control_c, 0, 64, 47
1, 356031, Control_c, 0, 64, 38
1, 356045, Control_c, 0, 64, 36
1, 356104, Control_c, 0, 64, 36
1, 356164, Control_c, 0, 64, 36
1, 356194, Control_c, 0, 64, 37
1, 356209, Control_c, 0, 64, 38
1, 356223, Control_c, 0, 64, 38
1, 356282, Control_c, 0, 64, 39
1, 356297, Control_c, 0, 64, 40
1, 356339, Note_on_c, 0, 62, 47
1, 356379, Control_c, 0, 64, 40
1, 356394, Control_c, 0, 64, 42
1, 356409, Control_c, 0, 64, 43
1, 356423, Control_c, 0, 64, 45
1, 356438, Control_c, 0, 64, 47
1, 356453, Control_c, 0, 64, 47
1, 356467, Control_c, 0, 64, 48
1, 356482, Control_c, 0, 64, 49
1, 356497, Control_c, 0, 64, 50
1, 356512, Control_c, 0, 64, 50
1, 356527, Control_c, 0, 64, 51
1, 356542, Control_c, 0, 64, 51
1, 356601, Control_c, 0, 64, 51
1, 356616, Control_c, 0, 64, 50
1, 356631, Control_c, 0, 64, 50
1, 356646, Control_c, 0, 64, 49
1, 356661, Control_c, 0, 64, 48
1, 356675, Control_c, 0, 64, 47
1, 356690, Note_on_c, 0, 71, 61
1, 356690, Control_c, 0, 64, 45
1, 356705, Control_c, 0, 64, 43
1, 356720, Control_c, 0, 64, 40
1, 356735, Control_c, 0, 64, 38
1, 356749, Control_c, 0, 64, 35
1, 356764, Control_c, 0, 64, 32
1, 356779, Control_c, 0, 64, 29
1, 356789, Note_off_c, 0, 71, 51
1, 356794, Control_c, 0, 64, 23
1, 356809, Control_c, 0, 64, 0
1, 356810, Note_on_c, 0, 64, 49
1, 356816, Note_on_c, 0, 77, 61
1, 356820, Note_on_c, 0, 73, 56
1, 356831, Note_off_c, 0, 62, 54
1, 356836, Note_off_c, 0, 64, 63
1, 356893, Note_off_c, 0, 73, 56
1, 357041, Note_on_c, 0, 66, 59
1, 357076, Note_off_c, 0, 66, 64
1, 357084, Control_c, 0, 64, 14
1, 357098, Control_c, 0, 64, 17
1, 357113, Control_c, 0, 64, 21
1, 357128, Control_c, 0, 64, 23
1, 357143, Control_c, 0, 64, 26
1, 357172, Control_c, 0, 64, 27
1, 357217, Control_c, 0, 64, 28
1, 357271, Note_on_c, 0, 76, 59
1, 357272, Note_on_c, 0, 67, 61
1, 357276, Control_c, 0, 64, 26
1, 357291, Control_c, 0, 64, 24
1, 357293, Note_off_c, 0, 77, 56
1, 357301, Note_off_c, 0, 67, 65
1, 357305, Control_c, 0, 64, 21
1, 357319, Note_off_c, 0, 76, 56
1, 357320, Control_c, 0, 64, 14
1, 357335, Control_c, 0, 64, 11
1, 357379, Control_c, 0, 64, 0
1, 357385, Note_on_c, 0, 68, 63
1, 357394, Note_on_c, 0, 81, 65
1, 357421, Note_off_c, 0, 68, 61
1, 357465, Note_off_c, 0, 81, 58
1, 357499, Note_on_c, 0, 70, 61
1, 357525, Note_off_c, 0, 70, 60
1, 357602, Control_c, 0, 64, 11
1, 357606, Note_on_c, 0, 72, 66
1, 357628, Note_off_c, 0, 72, 69
1, 357676, Control_c, 0, 64, 14
1, 357735, Control_c, 0, 64, 17
1, 357751, Control_c, 0, 64, 19
1, 357781, Control_c, 0, 64, 21
1, 357795, Control_c, 0, 64, 23
1, 357810, Control_c, 0, 64, 26
1, 357832, Control_c, 0, 64, 29
1, 357847, Control_c, 0, 64, 33
1, 357862, Control_c, 0, 64, 36
1, 357870, Note_on_c, 0, 61, 46
1, 357877, Control_c, 0, 64, 39
1, 357892, Control_c, 0, 64, 42
1, 357898, Note_off_c, 0, 61, 57
1, 357907, Control_c, 0, 64, 44
1, 357921, Control_c, 0, 64, 47
1, 357936, Control_c, 0, 64, 49
1, 357951, Control_c, 0, 64, 51
1, 357966, Control_c, 0, 64, 54
1, 357970, Note_on_c, 0, 82, 66
1, 357981, Control_c, 0, 64, 55
1, 357995, Control_c, 0, 64, 56
1, 358010, Control_c, 0, 64, 57
1, 358025, Control_c, 0, 64, 59
1, 358040, Control_c, 0, 64, 60
1, 358055, Control_c, 0, 64, 62
1, 358069, Control_c, 0, 64, 63
1, 358084, Control_c, 0, 64, 64
1, 358099, Control_c, 0, 64, 64
1, 358158, Control_c, 0, 64, 65
1, 358173, Control_c, 0, 64, 65
1, 358187, Control_c, 0, 64, 66
1, 358191, Note_on_c, 0, 65, 42
1, 358202, Control_c, 0, 64, 67
1, 358232, Control_c, 0, 64, 67
1, 358247, Control_c, 0, 64, 68
1, 358259, Note_off_c, 0, 65, 59
1, 358262, Control_c, 0, 64, 68
1, 358276, Control_c, 0, 64, 69
1, 358291, Control_c, 0, 64, 70
1, 358306, Control_c, 0, 64, 71
1, 358321, Control_c, 0, 64, 73
1, 358325, Note_on_c, 0, 78, 62
1, 358336, Control_c, 0, 64, 74
1, 358351, Control_c, 0, 64, 74
1, 358384, Note_off_c, 0, 82, 51
1, 358396, Control_c, 0, 64, 73
1, 358411, Control_c, 0, 64, 70
1, 358426, Control_c, 0, 64, 67
1, 358437, Note_on_c, 0, 77, 66
1, 358440, Control_c, 0, 64, 63
1, 358455, Control_c, 0, 64, 62
1, 358470, Control_c, 0, 64, 63
1, 358485, Control_c, 0, 64, 64
1, 358500, Control_c, 0, 64, 65
1, 358514, Control_c, 0, 64, 66
1, 358529, Control_c, 0, 64, 67
1, 358545, Control_c, 0, 64, 69
1, 358560, Control_c, 0, 64, 71
1, 358578, Note_off_c, 0, 77, 59
1, 358582, Control_c, 0, 64, 73
1, 358597, Control_c, 0, 64, 74
1, 358612, Control_c, 0, 64, 76
1, 358626, Control_c, 0, 64, 77
1, 358641, Control_c, 0, 64, 79
1, 358656, Control_c, 0, 64, 81
1, 358670, Control_c, 0, 64, 83
1, 358685, Control_c, 0, 64, 85
1, 358688, Note_on_c, 0, 80, 70
1, 358695, Note_on_c, 0, 77, 69
1, 358700, Control_c, 0, 64, 87
1, 358715, Control_c, 0, 64, 90
1, 358720, Note_off_c, 0, 78, 59
1, 358730, Control_c, 0, 64, 93
1, 358744, Control_c, 0, 64, 96
1, 358759, Control_c, 0, 64, 99
1, 358774, Control_c, 0, 64, 103
1, 358776, Note_off_c, 0, 77, 59
1, 358789, Control_c, 0, 64, 108
1, 358804, Control_c, 0, 64, 114
1, 358819, Control_c, 0, 64, 127
1, 358944, Note_on_c, 0, 77, 73
1, 358972, Note_off_c, 0, 77, 61
1, 359043, Note_on_c, 0, 82, 77
1, 359057, Note_off_c, 0, 80, 56
1, 359130, Control_c, 0, 64, 99
1, 359144, Control_c, 0, 64, 84
1, 359159, Control_c, 0, 64, 73
1, 359174, Note_on_c, 0, 75, 77
1, 359174, Control_c, 0, 64, 66
1, 359182, Note_on_c, 0, 60, 52
1, 359189, Control_c, 0, 64, 65
1, 359204, Control_c, 0, 64, 68
1, 359218, Control_c, 0, 64, 71
1, 359233, Control_c, 0, 64, 74
1, 359248, Control_c, 0, 64, 78
1, 359263, Control_c, 0, 64, 81
1, 359271, Note_off_c, 0, 60, 63
1, 359278, Control_c, 0, 64, 83
1, 359293, Control_c, 0, 64, 84
1, 359315, Control_c, 0, 64, 85
1, 359330, Control_c, 0, 64, 86
1, 359394, Note_off_c, 0, 82, 55
1, 359419, Note_on_c, 0, 84, 73
1, 359472, Note_off_c, 0, 84, 63
1, 359479, Control_c, 0, 64, 84
1, 359493, Control_c, 0, 64, 82
1, 359508, Control_c, 0, 64, 79
1, 359523, Control_c, 0, 64, 74
1, 359538, Control_c, 0, 64, 66
1, 359553, Control_c, 0, 64, 46
1, 359567, Control_c, 0, 64, 0
1, 359612, Control_c, 0, 67, 127
1, 359642, Control_c, 0, 67, 126
1, 359649, Note_on_c, 0, 59, 60
1, 359653, Note_on_c, 0, 86, 78
1, 359686, Control_c, 0, 67, 127
1, 359701, Control_c, 0, 67, 127
1, 359703, Note_off_c, 0, 75, 61
1, 359709, Note_off_c, 0, 86, 64
1, 359765, Note_off_c, 0, 59, 55
1, 359773, Note_on_c, 0, 64, 70
1, 359800, Note_off_c, 0, 64, 67
1, 359879, Note_on_c, 0, 74, 75
1, 359905, Note_off_c, 0, 74, 64
1, 360107, Note_on_c, 0, 88, 70
1, 360116, Note_on_c, 0, 69, 59
1, 360147, Note_off_c, 0, 69, 66
1, 360153, Control_c, 0, 64, 28
1, 360168, Control_c, 0, 64, 39
1, 360181, Note_off_c, 0, 88, 63
1, 360183, Control_c, 0, 64, 47
1, 360197, Control_c, 0, 64, 52
1, 360212, Control_c, 0, 64, 55
1, 360227, Control_c, 0, 64, 57
1, 360242, Control_c, 0, 64, 60
1, 360257, Control_c, 0, 64, 60
1, 360271, Control_c, 0, 64, 61
1, 360286, Control_c, 0, 64, 60
1, 360301, Control_c, 0, 64, 59
1, 360315, Control_c, 0, 64, 57
1, 360330, Control_c, 0, 64, 54
1, 360345, Control_c, 0, 64, 53
1, 360350, Note_on_c, 0, 65, 58
1, 360360, Control_c, 0, 64, 51
1, 360375, Control_c, 0, 64, 51
1, 360405, Control_c, 0, 64, 51
1, 360420, Control_c, 0, 64, 54
1, 360435, Control_c, 0, 64, 57
1, 360449, Control_c, 0, 64, 60
1, 360464, Control_c, 0, 64, 62
1, 360479, Control_c, 0, 64, 64
1, 360494, Control_c, 0, 64, 65
1, 360509, Control_c, 0, 64, 66
1, 360523, Control_c, 0, 64, 67
1, 360538, Control_c, 0, 64, 67
1, 360553, Control_c, 0, 64, 68
1, 360568, Control_c, 0, 64, 69
1, 360583, Control_c, 0, 64, 69
1, 360596, Note_on_c, 0, 86, 69
1, 360597, Control_c, 0, 64, 70
1, 360627, Control_c, 0, 64, 70
1, 360686, Control_c, 0, 67, 127
1, 360701, Control_c, 0, 67, 124
1, 360715, Control_c, 0, 67, 120
1, 360722, Note_on_c, 0, 61, 62
1, 360730, Note_off_c, 0, 65, 59
1, 360730, Control_c, 0, 64, 70
1, 360730, Control_c, 0, 67, 117
1, 360745, Control_c, 0, 64, 69
1, 360745, Control_c, 0, 67, 112
1, 360760, Control_c, 0, 64, 69
1, 360760, Control_c, 0, 67, 107
1, 360775, Control_c, 0, 64, 68
1, 360775, Control_c, 0, 67, 101
1, 360789, Control_c, 0, 64, 68
1, 360789, Control_c, 0, 67, 96
1, 360804, Control_c, 0, 64, 67
1, 360804, Control_c, 0, 67, 89
1, 360827, Control_c, 0, 64, 66
1, 360827, Control_c, 0, 67, 83
1, 360841, Control_c, 0, 64, 65
1, 360841, Control_c, 0, 67, 77
1, 360856, Control_c, 0, 67, 72
1, 360871, Control_c, 0, 67, 66
1, 360886, Control_c, 0, 67, 60
1, 360901, Control_c, 0, 67, 54
1, 360915, Control_c, 0, 64, 65
1, 360915, Control_c, 0, 67, 49
1, 360930, Control_c, 0, 64, 64
1, 360930, Control_c, 0, 67, 44
1, 360946, Control_c, 0, 64, 63
1, 360946, Control_c, 0, 67, 39
1, 360961, Control_c, 0, 64, 60
1, 360961, Control_c, 0, 67, 35
1, 360976, Control_c, 0, 64, 51
1, 360976, Control_c, 0, 67, 33
1, 360991, Control_c, 0, 64, 26
1, 360991, Control_c, 0, 67, 31
1, 361006, Control_c, 0, 64, 0
1, 361052, Note_on_c, 0, 81, 68
1, 361061, Note_on_c, 0, 63, 64
1, 361064, Note_off_c, 0, 61, 57
1, 361064, Control_c, 0, 67, 33
1, 361079, Control_c, 0, 67, 34
1, 361094, Control_c, 0, 64, 39
1, 361094, Control_c, 0, 67, 36
1, 361104, Note_off_c, 0, 81, 50
1, 361109, Control_c, 0, 64, 49
1, 361109, Control_c, 0, 67, 37
1, 361124, Control_c, 0, 64, 52
1, 361124, Control_c, 0, 67, 38
1, 361138, Control_c, 0, 64, 55
1, 361138, Control_c, 0, 67, 39
1, 361153, Control_c, 0, 64, 58
1, 361153, Control_c, 0, 67, 40
1, 361168, Control_c, 0, 64, 61
1, 361168, Control_c, 0, 67, 41
1, 361183, Control_c, 0, 64, 63
1, 361183, Control_c, 0, 67, 42
1, 361198, Control_c, 0, 64, 65
1, 361198, Control_c, 0, 67, 43
1, 361213, Control_c, 0, 64, 66
1, 361213, Control_c, 0, 67, 44
1, 361225, Note_off_c, 0, 86, 53
1, 361228, Control_c, 0, 64, 66
1, 361228, Control_c, 0, 67, 44
1, 361242, Control_c, 0, 64, 67
1, 361287, Note_on_c, 0, 81, 78
1, 361317, Control_c, 0, 64, 67
1, 361324, Note_off_c, 0, 81, 63
1, 361346, Control_c, 0, 64, 68
1, 361361, Control_c, 0, 64, 68
1, 361376, Control_c, 0, 64, 69
1, 361381, Note_on_c, 0, 65, 64
1, 361389, Note_off_c, 0, 63, 60
1, 361406, Control_c, 0, 64, 68
1, 361420, Control_c, 0, 64, 67
1, 361435, Control_c, 0, 64, 65
1, 361450, Control_c, 0, 64, 63
1, 361450, Control_c, 0, 67, 44
1, 361464, Control_c, 0, 64, 59
1, 361464, Control_c, 0, 67, 43
1, 361479, Control_c, 0, 64, 49
1, 361494, Control_c, 0, 64, 43
1, 361494, Control_c, 0, 67, 43
1, 361509, Control_c, 0, 64, 43
1, 361515, Note_on_c, 0, 82, 80
1, 361521, Note_on_c, 0, 75, 73
1, 361524, Control_c, 0, 64, 49
1, 361524, Control_c, 0, 67, 42
1, 361538, Control_c, 0, 64, 56
1, 361553, Control_c, 0, 64, 62
1, 361576, Control_c, 0, 64, 65
1, 361576, Control_c, 0, 67, 42
1, 361591, Control_c, 0, 64, 68
1, 361606, Control_c, 0, 64, 71
1, 361606, Control_c, 0, 67, 41
1, 361620, Control_c, 0, 64, 73
1, 361635, Control_c, 0, 64, 74
1, 361649, Note_off_c, 0, 75, 60
1, 361650, Control_c, 0, 64, 76
1, 361650, Control_c, 0, 67, 41
1, 361664, Control_c, 0, 64, 78
1, 361679, Control_c, 0, 64, 80
1, 361694, Control_c, 0, 64, 81
1, 361709, Control_c, 0, 64, 82
1, 361740, Control_c, 0, 64, 83
1, 361769, Note_on_c, 0, 67, 68
1, 361769, Control_c, 0, 67, 40
1, 361774, Note_off_c, 0, 65, 55
1, 361829, Control_c, 0, 67, 40
1, 361843, Control_c, 0, 67, 39
1, 361858, Control_c, 0, 67, 38
1, 361860, Note_on_c, 0, 89, 76
1, 361873, Control_c, 0, 64, 82
1, 361887, Control_c, 0, 64, 81
1, 361887, Control_c, 0, 67, 38
1, 361899, Note_off_c, 0, 82, 62
1, 361902, Control_c, 0, 64, 77
1, 361917, Control_c, 0, 64, 72
1, 361932, Control_c, 0, 64, 65
1, 361947, Control_c, 0, 64, 53
1, 361947, Control_c, 0, 67, 39
1, 361961, Control_c, 0, 64, 43
1, 361961, Control_c, 0, 67, 40
1, 361976, Note_on_c, 0, 69, 61
1, 361976, Control_c, 0, 64, 46
1, 361976, Control_c, 0, 67, 41
1, 361978, Note_on_c, 0, 88, 81
1, 361984, Note_on_c, 0, 77, 75
1, 361984, Note_off_c, 0, 67, 55
1, 361991, Control_c, 0, 64, 48
1, 361991, Control_c, 0, 67, 42
1, 362006, Note_off_c, 0, 89, 60
1, 362006, Control_c, 0, 64, 49
1, 362006, Control_c, 0, 67, 43
1, 362021, Note_off_c, 0, 69, 64
1, 362021, Control_c, 0, 67, 44
1, 362031, Note_off_c, 0, 77, 60
1, 362035, Control_c, 0, 67, 45
1, 362050, Control_c, 0, 64, 49
1, 362050, Control_c, 0, 67, 46
1, 362065, Control_c, 0, 64, 50
1, 362065, Control_c, 0, 67, 48
1, 362080, Control_c, 0, 64, 51
1, 362080, Control_c, 0, 67, 54
1, 362095, Control_c, 0, 64, 51
1, 362095, Control_c, 0, 67, 60
1, 362110, Control_c, 0, 67, 66
1, 362125, Control_c, 0, 64, 52
1, 362125, Control_c, 0, 67, 73
1, 362140, Control_c, 0, 64, 53
1, 362140, Control_c, 0, 67, 81
1, 362155, Control_c, 0, 64, 53
1, 362155, Control_c, 0, 67, 89
1, 362170, Control_c, 0, 67, 95
1, 362184, Control_c, 0, 67, 99
1, 362196, Note_off_c, 0, 88, 63
1, 362199, Control_c, 0, 64, 54
1, 362199, Control_c, 0, 67, 102
1, 362214, Control_c, 0, 64, 54
1, 362214, Control_c, 0, 67, 107
1, 362214, Note_on_c, 0, 79, 79
1, 362229, Control_c, 0, 64, 55
1, 362229, Control_c, 0, 67, 111
1, 362244, Control_c, 0, 67, 114
1, 362258, Note_off_c, 0, 79, 62
1, 362259, Control_c, 0, 64, 55
1, 362259, Control_c, 0, 67, 117
1, 362274, Control_c, 0, 64, 55
1, 362274, Control_c, 0, 67, 119
1, 362288, Control_c, 0, 67, 122
1, 362303, Control_c, 0, 67, 125
1, 362325, Control_c, 0, 64, 54
1, 362325, Control_c, 0, 67, 127
1, 362355, Control_c, 0, 64, 54
1, 362441, Note_on_c, 0, 80, 58
1, 362459, Note_on_c, 0, 71, 48
1, 362474, Control_c, 0, 64, 53
1, 362494, Note_off_c, 0, 71, 66
1, 362512, Note_off_c, 0, 80, 58
1, 362675, Note_on_c, 0, 87, 62
1, 362682, Control_c, 0, 64, 54
1, 362705, Note_off_c, 0, 87, 67
1, 362726, Control_c, 0, 64, 54
1, 362771, Control_c, 0, 64, 55
1, 362815, Control_c, 0, 64, 55
1, 362844, Control_c, 0, 64, 56
1, 362859, Control_c, 0, 64, 56
1, 362889, Control_c, 0, 64, 57
1, 362900, Note_on_c, 0, 69, 51
1, 362904, Control_c, 0, 64, 57
1, 362918, Control_c, 0, 64, 58
1, 362933, Control_c, 0, 64, 59
1, 362948, Control_c, 0, 64, 60
1, 362963, Control_c, 0, 64, 61
1, 362972, Note_off_c, 0, 69, 62
1, 362977, Control_c, 0, 64, 62
1, 362992, Control_c, 0, 64, 63
1, 363007, Control_c, 0, 64, 63
1, 363013, Note_on_c, 0, 74, 69
1, 363022, Control_c, 0, 64, 64
1, 363037, Control_c, 0, 64, 65
1, 363118, Control_c, 0, 64, 64
1, 363163, Control_c, 0, 64, 64
1, 363222, Control_c, 0, 64, 63
1, 363267, Control_c, 0, 64, 63
1, 363281, Control_c, 0, 64, 62
1, 363296, Control_c, 0, 64, 60
1, 363311, Control_c, 0, 64, 59
1, 363326, Control_c, 0, 64, 58
1, 363331, Note_on_c, 0, 79, 56
1, 363331, Note_off_c, 0, 74, 59
1, 363332, Note_on_c, 0, 78, 60
1, 363341, Control_c, 0, 64, 55
1, 363342, Note_on_c, 0, 64, 56
1, 363356, Control_c, 0, 64, 51
1, 363370, Note_off_c, 0, 79, 58
1, 363371, Control_c, 0, 64, 47
1, 363374, Note_off_c, 0, 64, 66
1, 363386, Control_c, 0, 64, 45
1, 363401, Control_c, 0, 64, 45
1, 363460, Control_c, 0, 64, 45
1, 363475, Control_c, 0, 64, 46
1, 363490, Control_c, 0, 64, 48
1, 363505, Control_c, 0, 64, 49
1, 363520, Control_c, 0, 64, 51
1, 363534, Control_c, 0, 64, 52
1, 363549, Control_c, 0, 64, 53
1, 363555, Note_on_c, 0, 64, 55
1, 363556, Note_on_c, 0, 81, 65
1, 363564, Control_c, 0, 64, 55
1, 363579, Control_c, 0, 64, 55
1, 363588, Note_off_c, 0, 64, 65
1, 363593, Note_off_c, 0, 81, 58
1, 363594, Control_c, 0, 64, 56
1, 363638, Control_c, 0, 64, 55
1, 363653, Control_c, 0, 64, 54
1, 363667, Control_c, 0, 64, 54
1, 363727, Control_c, 0, 64, 54
1, 363756, Control_c, 0, 64, 55
1, 363771, Control_c, 0, 64, 56
1, 363781, Note_on_c, 0, 82, 68
1, 363786, Control_c, 0, 64, 57
1, 363801, Control_c, 0, 64, 58
1, 363818, Note_on_c, 0, 65, 63
1, 363823, Control_c, 0, 64, 59
1, 363833, Note_off_c, 0, 78, 52
1, 363838, Control_c, 0, 64, 60
1, 363853, Control_c, 0, 64, 61
1, 363867, Control_c, 0, 64, 63
1, 363882, Control_c, 0, 64, 63
1, 363897, Control_c, 0, 64, 64
1, 363912, Control_c, 0, 64, 65
1, 363927, Control_c, 0, 64, 65
1, 363941, Control_c, 0, 64, 66
1, 363986, Control_c, 0, 64, 66
1, 364074, Control_c, 0, 64, 66
1, 364119, Control_c, 0, 64, 65
1, 364147, Note_on_c, 0, 72, 68
1, 364150, Control_c, 0, 64, 65
1, 364164, Control_c, 0, 64, 64
1, 364179, Control_c, 0, 64, 62
1, 364194, Control_c, 0, 64, 57
1, 364195, Note_off_c, 0, 72, 57
1, 364209, Control_c, 0, 64, 36
1, 364224, Control_c, 0, 64, 0
1, 364254, Note_on_c, 0, 83, 71
1, 364258, Note_on_c, 0, 73, 79
1, 364273, Note_on_c, 0, 71, 68
1, 364274, Note_off_c, 0, 82, 39
1, 364296, Note_off_c, 0, 65, 50
1, 364326, Note_off_c, 0, 83, 60
1, 364328, Control_c, 0, 64, 56
1, 364341, Control_c, 0, 64, 65
1, 364355, Control_c, 0, 64, 69
1, 364366, Note_off_c, 0, 71, 58
1, 364370, Control_c, 0, 64, 71
1, 364385, Control_c, 0, 64, 73
1, 364400, Control_c, 0, 64, 74
1, 364414, Control_c, 0, 64, 75
1, 364429, Control_c, 0, 64, 76
1, 364437, Note_off_c, 0, 73, 61
1, 364629, Control_c, 0, 64, 76
1, 364644, Control_c, 0, 64, 74
1, 364656, Note_on_c, 0, 72, 76
1, 364659, Control_c, 0, 64, 70
1, 364674, Control_c, 0, 64, 65
1, 364688, Control_c, 0, 64, 54
1, 364696, Note_off_c, 0, 72, 61
1, 364703, Control_c, 0, 64, 35
1, 364718, Control_c, 0, 64, 32
1, 364763, Control_c, 0, 64, 31
1, 364767, Note_on_c, 0, 86, 68
1, 364772, Note_on_c, 0, 77, 72
1, 364778, Control_c, 0, 64, 27
1, 364793, Control_c, 0, 64, 21
1, 364796, Note_off_c, 0, 77, 68
1, 364893, Note_on_c, 0, 70, 71
1, 364915, Note_off_c, 0, 70, 69
1, 364941, Note_off_c, 0, 86, 26
1, 365045, Control_c, 0, 64, 29
1, 365060, Control_c, 0, 64, 42
1, 365075, Control_c, 0, 64, 53
1, 365091, Control_c, 0, 64, 61
1, 365105, Control_c, 0, 64, 64
1, 365113, Note_on_c, 0, 79, 80
1, 365120, Control_c, 0, 64, 66
1, 365135, Control_c, 0, 64, 68
1, 365150, Control_c, 0, 64, 70
1, 365165, Control_c, 0, 64, 72
1, 365179, Control_c, 0, 64, 73
1, 365194, Control_c, 0, 64, 75
1, 365209, Control_c, 0, 64, 77
1, 365224, Control_c, 0, 64, 78
1, 365238, Control_c, 0, 64, 80
1, 365253, Control_c, 0, 64, 82
1, 365268, Control_c, 0, 64, 84
1, 365283, Control_c, 0, 64, 87
1, 365298, Control_c, 0, 64, 89
1, 365320, Control_c, 0, 64, 90
1, 365328, Note_on_c, 0, 78, 66
1, 365335, Control_c, 0, 64, 91
1, 365350, Control_c, 0, 64, 92
1, 365365, Control_c, 0, 64, 92
1, 365380, Control_c, 0, 64, 93
1, 365387, Note_off_c, 0, 78, 59
1, 365394, Control_c, 0, 64, 94
1, 365409, Control_c, 0, 64, 96
1, 365424, Control_c, 0, 64, 98
1, 365437, Note_on_c, 0, 81, 91
1, 365453, Control_c, 0, 64, 97
1, 365468, Control_c, 0, 64, 91
1, 365474, Note_off_c, 0, 79, 62
1, 365483, Control_c, 0, 64, 83
1, 365498, Control_c, 0, 64, 75
1, 365512, Control_c, 0, 64, 67
1, 365527, Control_c, 0, 64, 61
1, 365542, Control_c, 0, 64, 57
1, 365557, Control_c, 0, 64, 59
1, 365565, Note_on_c, 0, 83, 86
1, 365572, Control_c, 0, 64, 63
1, 365583, Note_on_c, 0, 62, 47
1, 365586, Control_c, 0, 64, 66
1, 365586, Control_c, 0, 67, 123
1, 365590, Note_off_c, 0, 81, 64
1, 365601, Control_c, 0, 64, 70
1, 365601, Control_c, 0, 67, 119
1, 365616, Control_c, 0, 64, 73
1, 365616, Control_c, 0, 67, 114
1, 365630, Control_c, 0, 64, 75
1, 365630, Control_c, 0, 67, 107
1, 365645, Control_c, 0, 64, 77
1, 365645, Control_c, 0, 67, 97
1, 365660, Control_c, 0, 64, 78
1, 365660, Control_c, 0, 67, 87
1, 365675, Control_c, 0, 64, 79
1, 365675, Control_c, 0, 67, 80
1, 365686, Note_off_c, 0, 83, 62
1, 365690, Control_c, 0, 64, 80
1, 365690, Control_c, 0, 67, 75
1, 365694, Note_on_c, 0, 74, 79
1, 365705, Control_c, 0, 64, 82
1, 365705, Control_c, 0, 67, 69
1, 365720, Control_c, 0, 64, 85
1, 365720, Control_c, 0, 67, 62
1, 365735, Control_c, 0, 64, 88
1, 365735, Control_c, 0, 67, 56
1, 365750, Control_c, 0, 64, 92
1, 365750, Control_c, 0, 67, 49
1, 365765, Control_c, 0, 64, 96
1, 365765, Control_c, 0, 67, 42
1, 365780, Control_c, 0, 64, 99
1, 365780, Control_c, 0, 67, 36
1, 365795, Control_c, 0, 64, 101
1, 365795, Control_c, 0, 67, 30
1, 365797, Note_on_c, 0, 64, 66
1, 365809, Control_c, 0, 67, 22
1, 365824, Control_c, 0, 67, 12
1, 365839, Control_c, 0, 67, 0
1, 365845, Note_off_c, 0, 62, 49
1, 365869, Control_c, 0, 64, 97
1, 365884, Control_c, 0, 64, 91
1, 365890, Note_on_c, 0, 88, 97
1, 365899, Control_c, 0, 64, 81
1, 365914, Control_c, 0, 64, 70
1, 365928, Control_c, 0, 64, 54
1, 365928, Note_off_c, 0, 74, 61
1, 365943, Control_c, 0, 64, 0
1, 366024, Note_on_c, 0, 86, 87
1, 366039, Note_off_c, 0, 64, 62
1, 366040, Note_on_c, 0, 65, 61
1, 366044, Note_on_c, 0, 76, 79
1, 366047, Control_c, 0, 64, 17
1, 366069, Control_c, 0, 64, 63
1, 366083, Control_c, 0, 64, 70
1, 366097, Note_off_c, 0, 88, 57
1, 366098, Control_c, 0, 64, 76
1, 366113, Control_c, 0, 64, 82
1, 366128, Control_c, 0, 64, 87
1, 366143, Control_c, 0, 64, 90
1, 366158, Control_c, 0, 64, 91
1, 366166, Note_off_c, 0, 76, 46
1, 366187, Control_c, 0, 64, 92
1, 366217, Control_c, 0, 64, 92
1, 366232, Control_c, 0, 64, 93
1, 366260, Note_on_c, 0, 85, 83
1, 366276, Control_c, 0, 64, 93
1, 366286, Note_off_c, 0, 86, 56
1, 366306, Control_c, 0, 64, 94
1, 366321, Control_c, 0, 64, 96
1, 366335, Control_c, 0, 64, 97
1, 366357, Note_off_c, 0, 85, 59
1, 366365, Control_c, 0, 64, 95
1, 366367, Note_on_c, 0, 78, 73
1, 366379, Control_c, 0, 64, 87
1, 366394, Control_c, 0, 64, 75
1, 366409, Control_c, 0, 64, 60
1, 366424, Control_c, 0, 64, 0
1, 366450, Note_on_c, 0, 66, 77
1, 366456, Note_off_c, 0, 65, 60
1, 366483, Control_c, 0, 64, 31
1, 366498, Control_c, 0, 64, 52
1, 366513, Control_c, 0, 64, 40
1, 366529, Control_c, 0, 64, 0
1, 366551, Note_off_c, 0, 78, 62
1, 366565, Note_on_c, 0, 89, 101
1, 366587, Control_c, 0, 64, 40
1, 366602, Control_c, 0, 64, 61
1, 366617, Control_c, 0, 64, 69
1, 366632, Control_c, 0, 64, 77
1, 366647, Control_c, 0, 64, 89
1, 366662, Control_c, 0, 64, 110
1, 366676, Control_c, 0, 64, 127
1, 366682, Note_on_c, 0, 80, 82
1, 366689, Note_off_c, 0, 89, 58
1, 366809, Note_off_c, 0, 66, 59
1, 366891, Control_c, 0, 64, 120
1, 366906, Control_c, 0, 64, 88
1, 366921, Control_c, 0, 64, 74
1, 366925, Note_on_c, 0, 88, 98
1, 366936, Control_c, 0, 64, 66
1, 366939, Note_on_c, 0, 82, 79
1, 366946, Note_off_c, 0, 80, 55
1, 366951, Control_c, 0, 64, 64
1, 366965, Control_c, 0, 64, 66
1, 366980, Control_c, 0, 64, 72
1, 366995, Control_c, 0, 64, 79
1, 367009, Control_c, 0, 64, 83
1, 367024, Control_c, 0, 64, 86
1, 367031, Note_off_c, 0, 88, 59
1, 367039, Control_c, 0, 64, 86
1, 367049, Note_off_c, 0, 82, 60
1, 367049, Note_on_c, 0, 69, 80
1, 367054, Control_c, 0, 64, 88
1, 367069, Control_c, 0, 64, 90
1, 367083, Control_c, 0, 64, 95
1, 367091, Note_off_c, 0, 69, 62
1, 367098, Control_c, 0, 64, 98
1, 367113, Control_c, 0, 64, 100
1, 367128, Control_c, 0, 64, 101
1, 367276, Control_c, 0, 64, 100
1, 367291, Control_c, 0, 64, 97
1, 367306, Control_c, 0, 64, 90
1, 367321, Control_c, 0, 64, 79
1, 367336, Control_c, 0, 64, 66
1, 367351, Control_c, 0, 64, 0
1, 367359, Note_on_c, 0, 84, 81
1, 367364, Note_on_c, 0, 62, 88
1, 367410, Control_c, 0, 64, 55
1, 367425, Control_c, 0, 64, 68
1, 367440, Control_c, 0, 64, 78
1, 367452, Note_off_c, 0, 62, 53
1, 367455, Control_c, 0, 64, 90
1, 367470, Control_c, 0, 64, 116
1, 367484, Control_c, 0, 64, 127
1, 367699, Note_on_c, 0, 64, 86
1, 367714, Control_c, 0, 64, 101
1, 367729, Control_c, 0, 64, 86
1, 367744, Control_c, 0, 64, 73
1, 367759, Control_c, 0, 64, 60
1, 367774, Control_c, 0, 64, 0
1, 367774, Note_off_c, 0, 64, 64
1, 367823, Note_on_c, 0, 66, 89
1, 367833, Note_on_c, 0, 82, 76
1, 367850, Note_off_c, 0, 84, 63
1, 367906, Control_c, 0, 64, 55
1, 367921, Control_c, 0, 64, 67
1, 367936, Control_c, 0, 64, 77
1, 367947, Note_off_c, 0, 66, 62
1, 367951, Control_c, 0, 64, 87
1, 367966, Control_c, 0, 64, 98
1, 367980, Control_c, 0, 64, 110
1, 367995, Control_c, 0, 64, 127
1, 368078, Note_on_c, 0, 85, 91
1, 368173, Note_on_c, 0, 71, 80
1, 368258, Note_off_c, 0, 85, 57
1, 368360, Control_c, 0, 64, 126
1, 368369, Note_on_c, 0, 69, 79
1, 368369, Note_on_c, 0, 77, 78
1, 368375, Control_c, 0, 64, 95
1, 368390, Control_c, 0, 64, 78
1, 368403, Note_off_c, 0, 71, 62
1, 368404, Control_c, 0, 64, 65
1, 368419, Control_c, 0, 64, 0
1, 368449, Control_c, 0, 64, 19
1, 368463, Control_c, 0, 64, 52
1, 368478, Control_c, 0, 64, 64
1, 368481, Note_off_c, 0, 77, 54
1, 368493, Control_c, 0, 64, 71
1, 368508, Control_c, 0, 64, 76
1, 368522, Control_c, 0, 64, 81
1, 368537, Control_c, 0, 64, 81
1, 368549, Note_on_c, 0, 84, 69
1, 368580, Note_off_c, 0, 82, 62
1, 368632, Note_off_c, 0, 84, 53
1, 368671, Control_c, 0, 64, 81
1, 368679, Note_on_c, 0, 68, 75
1, 368680, Note_on_c, 0, 77, 67
1, 368686, Control_c, 0, 64, 79
1, 368686, Note_off_c, 0, 69, 61
1, 368701, Control_c, 0, 64, 77
1, 368716, Control_c, 0, 64, 73
1, 368730, Control_c, 0, 64, 69
1, 368745, Control_c, 0, 64, 64
1, 368760, Control_c, 0, 64, 57
1, 368770, Note_off_c, 0, 77, 52
1, 368774, Control_c, 0, 64, 50
1, 368789, Control_c, 0, 64, 45
1, 368804, Control_c, 0, 64, 40
1, 368819, Control_c, 0, 64, 38
1, 368849, Control_c, 0, 64, 42
1, 368863, Control_c, 0, 64, 44
1, 368908, Control_c, 0, 64, 45
1, 368924, Control_c, 0, 64, 47
1, 368932, Note_on_c, 0, 78, 76
1, 368939, Control_c, 0, 64, 48
1, 368953, Control_c, 0, 64, 49
1, 368968, Control_c, 0, 64, 50
1, 369012, Control_c, 0, 64, 50
1, 369059, Note_on_c, 0, 72, 72
1, 369064, Control_c, 0, 64, 51
1, 369078, Note_off_c, 0, 68, 60
1, 369079, Control_c, 0, 64, 53
1, 369094, Control_c, 0, 64, 54
1, 369109, Control_c, 0, 64, 54
1, 369139, Control_c, 0, 64, 55
1, 369153, Control_c, 0, 64, 55
1, 369168, Control_c, 0, 64, 56
1, 369183, Control_c, 0, 64, 57
1, 369198, Control_c, 0, 67, 8
1, 369212, Control_c, 0, 67, 11
1, 369227, Control_c, 0, 67, 15
1, 369242, Control_c, 0, 64, 58
1, 369242, Control_c, 0, 67, 21
1, 369257, Control_c, 0, 64, 59
1, 369257, Control_c, 0, 67, 29
1, 369272, Control_c, 0, 67, 38
1, 369286, Control_c, 0, 67, 47
1, 369301, Control_c, 0, 67, 56
1, 369316, Control_c, 0, 67, 63
1, 369324, Note_on_c, 0, 85, 72
1, 369331, Control_c, 0, 67, 71
1, 369346, Control_c, 0, 67, 79
1, 369351, Note_off_c, 0, 78, 55
1, 369360, Control_c, 0, 64, 59
1, 369360, Control_c, 0, 67, 86
1, 369375, Control_c, 0, 64, 57
1, 369375, Control_c, 0, 67, 94
1, 369390, Control_c, 0, 64, 56
1, 369390, Control_c, 0, 67, 100
1, 369404, Control_c, 0, 64, 55
1, 369404, Control_c, 0, 67, 107
1, 369419, Control_c, 0, 64, 53
1, 369419, Control_c, 0, 67, 111
1, 369422, Note_off_c, 0, 85, 63
1, 369431, Note_on_c, 0, 71, 56
1, 369434, Note_off_c, 0, 72, 54
1, 369434, Control_c, 0, 64, 51
1, 369434, Control_c, 0, 67, 115
1, 369449, Control_c, 0, 64, 50
1, 369449, Control_c, 0, 67, 118
1, 369464, Control_c, 0, 64, 50
1, 369464, Control_c, 0, 67, 123
1, 369479, Note_on_c, 0, 84, 64
1, 369479, Control_c, 0, 64, 49
1, 369479, Control_c, 0, 67, 127
1, 369553, Control_c, 0, 64, 50
1, 369568, Control_c, 0, 64, 50
1, 369583, Control_c, 0, 64, 51
1, 369686, Control_c, 0, 64, 52
1, 369701, Control_c, 0, 64, 53
1, 369771, Note_off_c, 0, 71, 63
1, 369801, Note_off_c, 0, 84, 40
1, 369842, Control_c, 0, 64, 53
1, 369887, Control_c, 0, 64, 54
1, 369962, Control_c, 0, 64, 54
1, 370139, Control_c, 0, 64, 55
1, 370285, Note_on_c, 0, 83, 45
1, 370331, Control_c, 0, 64, 55
1, 370513, Note_off_c, 0, 83, 56
1, 370797, Note_on_c, 0, 68, 60
1, 370843, Control_c, 0, 64, 55
1, 371005, Control_c, 0, 64, 54
1, 371154, Control_c, 0, 64, 54
1, 371160, Note_on_c, 0, 75, 57
1, 371228, Control_c, 0, 64, 53
1, 371364, Note_off_c, 0, 68, 38
1, 371369, Note_on_c, 0, 67, 25
1, 371454, Note_off_c, 0, 75, 59
1, 371518, Note_on_c, 0, 77, 48
1, 371662, Note_off_c, 0, 67, 42
1, 371734, Note_off_c, 0, 77, 51
1, 371793, Note_on_c, 0, 78, 47
1, 372416, Note_off_c, 0, 78, 43
1, 372440, Note_on_c, 0, 79, 42
1, 372819, Note_off_c, 0, 79, 33
1, 373625, Note_on_c, 0, 82, 35
1, 373798, Note_off_c, 0, 82, 45
1, 374409, Control_c, 0, 64, 54
1, 375500, Control_c, 0, 64, 54
1, 375936, Control_c, 0, 64, 55
1, 376721, Note_on_c, 0, 66, 22
1, 376736, Note_on_c, 0, 49, 30
1, 376738, Note_on_c, 0, 62, 21
1, 376744, Control_c, 0, 64, 54
1, 376788, Control_c, 0, 64, 54
1, 376810, Note_off_c, 0, 62, 56
1, 376819, Note_off_c, 0, 49, 59
1, 376821, Note_off_c, 0, 66, 41
1, 379524, Control_c, 0, 64, 53
1, 379799, Control_c, 0, 64, 53
1, 379887, Control_c, 0, 64, 52
1, 379931, Control_c, 0, 64, 52
1, 379976, Control_c, 0, 64, 51
1, 379991, Control_c, 0, 64, 51
1, 380035, Control_c, 0, 64, 50
1, 380065, Control_c, 0, 64, 50
1, 380094, Control_c, 0, 64, 49
1, 380110, Control_c, 0, 64, 48
1, 380125, Control_c, 0, 64, 47
1, 380140, Control_c, 0, 64, 45
1, 380154, Control_c, 0, 64, 44
1, 380169, Control_c, 0, 64, 43
1, 380184, Control_c, 0, 64, 42
1, 380199, Control_c, 0, 64, 40
1, 380214, Control_c, 0, 64, 38
1, 380228, Control_c, 0, 64, 33
1, 380243, Control_c, 0, 64, 27
1, 380258, Control_c, 0, 64, 19
1, 380273, Control_c, 0, 64, 0
1, 380503, Control_c, 0, 64, 11
1, 380517, Control_c, 0, 64, 23
1, 380532, Control_c, 0, 64, 27
1, 380547, Control_c, 0, 64, 30
1, 380562, Control_c, 0, 64, 33
1, 380577, Control_c, 0, 64, 36
1, 380592, Control_c, 0, 64, 38
1, 380606, Control_c, 0, 64, 39
1, 380621, Control_c, 0, 64, 41
1, 380636, Control_c, 0, 64, 42
1, 380651, Control_c, 0, 64, 44
1, 380666, Control_c, 0, 64, 47
1, 380681, Control_c, 0, 64, 49
1, 380696, Control_c, 0, 64, 51
1, 380710, Control_c, 0, 64, 53
1, 380725, Control_c, 0, 64, 54
1, 380740, Control_c, 0, 64, 56
1, 380754, Control_c, 0, 64, 57
1, 380769, Control_c, 0, 64, 58
1, 380784, Control_c, 0, 64, 59
1, 380799, Control_c, 0, 64, 60
1, 380814, Control_c, 0, 64, 61
1, 380828, Control_c, 0, 64, 61
1, 380843, Control_c, 0, 64, 62
1, 380858, Control_c, 0, 64, 63
1, 380887, Control_c, 0, 64, 63
1, 380933, Control_c, 0, 64, 64
1, 380948, Control_c, 0, 64, 64
1, 380963, Control_c, 0, 64, 65
1, 380977, Control_c, 0, 64, 66
1, 380992, Control_c, 0, 64, 66
1, 381007, Control_c, 0, 64, 67
1, 381022, Control_c, 0, 64, 67
1, 381059, Control_c, 0, 64, 68
1, 381074, Control_c, 0, 64, 68
1, 381089, Control_c, 0, 64, 69
1, 381104, Control_c, 0, 64, 70
1, 381119, Control_c, 0, 64, 70
1, 381133, Control_c, 0, 64, 71
1, 381148, Control_c, 0, 64, 71
1, 381163, Control_c, 0, 64, 72
1, 381178, Control_c, 0, 64, 73
1, 381192, Control_c, 0, 64, 74
1, 381207, Control_c, 0, 64, 74
1, 381222, Control_c, 0, 64, 75
1, 381237, Control_c, 0, 64, 76
1, 381252, Control_c, 0, 64, 77
1, 381266, Control_c, 0, 64, 78
1, 381281, Control_c, 0, 64, 79
1, 381296, Control_c, 0, 64, 79
1, 381311, Control_c, 0, 64, 81
1, 381326, Control_c, 0, 64, 82
1, 381340, Control_c, 0, 64, 83
1, 381355, Control_c, 0, 64, 85
1, 381370, Control_c, 0, 64, 87
1, 381384, Control_c, 0, 64, 89
1, 381399, Control_c, 0, 64, 91
1, 381414, Control_c, 0, 64, 93
1, 381429, Control_c, 0, 64, 95
1, 381444, Control_c, 0, 64, 98
1, 381459, Control_c, 0, 64, 101
1, 381474, Control_c, 0, 64, 104
1, 381489, Control_c, 0, 64, 107
1, 381503, Control_c, 0, 64, 110
1, 381518, Control_c, 0, 64, 115
1, 381533, Control_c, 0, 64, 126
1, 381548, Control_c, 0, 64, 127
1, 384224, Note_on_c, 0, 54, 32
1, 384291, Control_c, 0, 64, 118
1, 384306, Control_c, 0, 64, 111
1, 384321, Control_c, 0, 64, 107
1, 384336, Control_c, 0, 64, 105
1, 384350, Control_c, 0, 64, 105
1, 384499, Control_c, 0, 64, 104
1, 384603, Control_c, 0, 64, 104
1, 384633, Control_c, 0, 64, 103
1, 384648, Control_c, 0, 64, 103
1, 384677, Control_c, 0, 64, 102
1, 384692, Control_c, 0, 64, 101
1, 384707, Control_c, 0, 64, 100
1, 384708, Note_on_c, 0, 56, 37
1, 384721, Control_c, 0, 64, 99
1, 384736, Control_c, 0, 64, 98
1, 384751, Control_c, 0, 64, 98
1, 384766, Control_c, 0, 64, 97
1, 384781, Note_off_c, 0, 54, 44
1, 384789, Control_c, 0, 64, 96
1, 384803, Control_c, 0, 64, 95
1, 384818, Control_c, 0, 64, 94
1, 384833, Control_c, 0, 64, 93
1, 384848, Control_c, 0, 64, 92
1, 384863, Control_c, 0, 64, 92
1, 384938, Control_c, 0, 64, 91
1, 384997, Control_c, 0, 64, 91
1, 385012, Control_c, 0, 64, 90
1, 385026, Control_c, 0, 64, 90
1, 385041, Control_c, 0, 64, 89
1, 385056, Control_c, 0, 64, 88
1, 385071, Control_c, 0, 64, 86
1, 385086, Control_c, 0, 64, 85
1, 385093, Note_on_c, 0, 54, 35
1, 385100, Control_c, 0, 64, 83
1, 385115, Control_c, 0, 64, 81
1, 385125, Note_off_c, 0, 56, 40
1, 385130, Control_c, 0, 64, 79
1, 385145, Control_c, 0, 64, 76
1, 385159, Control_c, 0, 64, 73
1, 385174, Control_c, 0, 64, 71
1, 385189, Control_c, 0, 64, 68
1, 385204, Control_c, 0, 64, 67
1, 385233, Control_c, 0, 64, 68
1, 385453, Note_on_c, 0, 56, 28
1, 385473, Note_off_c, 0, 54, 47
1, 385800, Note_on_c, 0, 54, 32
1, 385804, Control_c, 0, 64, 67
1, 385824, Note_off_c, 0, 56, 45
1, 385937, Control_c, 0, 64, 68
1, 386041, Control_c, 0, 64, 67
1, 386147, Note_on_c, 0, 56, 20
1, 386154, Note_off_c, 0, 54, 45
1, 386189, Control_c, 0, 64, 68
1, 386473, Note_on_c, 0, 54, 33
1, 386501, Note_off_c, 0, 56, 43
1, 386804, Control_c, 0, 64, 68
1, 386822, Note_on_c, 0, 56, 27
1, 386837, Note_off_c, 0, 54, 46
1, 386849, Control_c, 0, 64, 69
1, 386864, Control_c, 0, 64, 69
1, 386878, Control_c, 0, 64, 70
1, 386893, Control_c, 0, 64, 70
1, 386923, Control_c, 0, 64, 71
1, 386938, Control_c, 0, 64, 71
1, 386968, Control_c, 0, 64, 72
1, 387108, Control_c, 0, 64, 71
1, 387152, Control_c, 0, 64, 71
1, 387180, Note_on_c, 0, 67, 33
1, 387194, Note_on_c, 0, 54, 32
1, 387197, Control_c, 0, 64, 70
1, 387227, Control_c, 0, 64, 70
1, 387239, Note_off_c, 0, 56, 47
1, 387256, Control_c, 0, 64, 69
1, 387271, Control_c, 0, 64, 69
1, 387316, Control_c, 0, 64, 68
1, 387361, Control_c, 0, 64, 68
1, 387391, Control_c, 0, 64, 67
1, 387421, Control_c, 0, 64, 67
1, 387465, Control_c, 0, 64, 66
1, 387532, Note_on_c, 0, 65, 38
1, 387548, Note_on_c, 0, 56, 33
1, 387588, Note_off_c, 0, 67, 36
1, 387599, Control_c, 0, 64, 66
1, 387644, Note_off_c, 0, 54, 45
1, 387862, Note_on_c, 0, 64, 37
1, 387880, Note_on_c, 0, 57, 35
1, 387887, Control_c, 0, 64, 65
1, 387912, Note_off_c, 0, 65, 31
1, 387917, Control_c, 0, 64, 65
1, 387921, Note_off_c, 0, 56, 44
1, 388035, Control_c, 0, 64, 64
1, 388111, Control_c, 0, 64, 64
1, 388177, Note_off_c, 0, 64, 54
1, 388195, Note_on_c, 0, 59, 34
1, 388199, Control_c, 0, 64, 63
1, 388208, Note_on_c, 0, 58, 28
1, 388234, Note_off_c, 0, 57, 58
1, 388539, Note_on_c, 0, 60, 36
1, 388541, Note_on_c, 0, 57, 30
1, 388580, Note_off_c, 0, 59, 37
1, 388648, Note_off_c, 0, 58, 37
1, 388871, Note_on_c, 0, 62, 34
1, 388897, Note_on_c, 0, 55, 33
1, 388899, Note_off_c, 0, 60, 50
1, 388915, Note_off_c, 0, 57, 38
1, 389200, Note_on_c, 0, 64, 39
1, 389209, Note_on_c, 0, 57, 38
1, 389210, Note_off_c, 0, 62, 51
1, 389214, Note_off_c, 0, 55, 43
1, 389532, Control_c, 0, 64, 64
1, 389539, Note_on_c, 0, 65, 39
1, 389540, Note_on_c, 0, 55, 38
1, 389583, Note_off_c, 0, 57, 38
1, 389589, Note_off_c, 0, 64, 42
1, 389876, Note_off_c, 0, 65, 43
1, 389880, Note_on_c, 0, 66, 41
1, 389899, Note_on_c, 0, 53, 30
1, 389925, Note_off_c, 0, 55, 41
1, 390199, Note_off_c, 0, 53, 45
1, 390213, Note_on_c, 0, 64, 38
1, 390218, Note_on_c, 0, 52, 34
1, 390250, Note_off_c, 0, 66, 37
1, 390537, Note_on_c, 0, 62, 35
1, 390538, Note_off_c, 0, 64, 51
1, 390562, Note_on_c, 0, 53, 20
1, 390566, Note_off_c, 0, 52, 41
1, 390871, Note_on_c, 0, 60, 38
1, 390882, Control_c, 0, 64, 63
1, 390888, Note_on_c, 0, 55, 28
1, 390902, Note_off_c, 0, 53, 43
1, 390910, Note_off_c, 0, 62, 38
1, 391104, Control_c, 0, 64, 63
1, 391134, Control_c, 0, 64, 62
1, 391149, Control_c, 0, 64, 62
1, 391164, Note_off_c, 0, 60, 58
1, 391164, Control_c, 0, 64, 61
1, 391193, Note_off_c, 0, 55, 50
1, 391199, Note_on_c, 0, 59, 42
1, 391225, Note_on_c, 0, 57, 21
1, 391237, Control_c, 0, 64, 62
1, 391252, Control_c, 0, 64, 63
1, 391267, Control_c, 0, 64, 63
1, 391282, Control_c, 0, 64, 64
1, 391297, Control_c, 0, 64, 65
1, 391311, Control_c, 0, 64, 66
1, 391326, Control_c, 0, 64, 66
1, 391341, Control_c, 0, 64, 67
1, 391356, Control_c, 0, 64, 69
1, 391371, Control_c, 0, 64, 70
1, 391385, Control_c, 0, 64, 70
1, 391400, Control_c, 0, 64, 71
1, 391445, Control_c, 0, 64, 70
1, 391475, Control_c, 0, 64, 70
1, 391490, Control_c, 0, 64, 69
1, 391505, Control_c, 0, 64, 69
1, 391526, Control_c, 0, 64, 68
1, 391535, Note_on_c, 0, 67, 42
1, 391541, Control_c, 0, 64, 67
1, 391544, Note_on_c, 0, 58, 28
1, 391556, Control_c, 0, 64, 67
1, 391567, Note_off_c, 0, 59, 35
1, 391571, Control_c, 0, 64, 66
1, 391586, Control_c, 0, 64, 66
1, 391600, Control_c, 0, 64, 65
1, 391615, Control_c, 0, 64, 64
1, 391627, Note_off_c, 0, 57, 43
1, 391630, Control_c, 0, 64, 64
1, 391645, Control_c, 0, 64, 63
1, 391660, Control_c, 0, 64, 63
1, 391675, Control_c, 0, 64, 62
1, 391704, Control_c, 0, 64, 62
1, 391719, Control_c, 0, 64, 61
1, 391749, Control_c, 0, 64, 61
1, 391779, Control_c, 0, 64, 60
1, 391793, Control_c, 0, 64, 60
1, 391808, Control_c, 0, 64, 59
1, 391823, Control_c, 0, 64, 59
1, 391849, Note_on_c, 0, 69, 51
1, 391865, Note_on_c, 0, 60, 24
1, 391867, Control_c, 0, 64, 58
1, 391891, Note_off_c, 0, 67, 56
1, 391897, Control_c, 0, 64, 58
1, 391920, Note_off_c, 0, 58, 43
1, 392044, Control_c, 0, 64, 57
1, 392074, Control_c, 0, 64, 57
1, 392090, Control_c, 0, 64, 56
1, 392105, Control_c, 0, 64, 56
1, 392120, Control_c, 0, 64, 55
1, 392134, Control_c, 0, 64, 54
1, 392145, Note_off_c, 0, 60, 48
1, 392158, Note_on_c, 0, 71, 52
1, 392174, Note_off_c, 0, 69, 55
1, 392175, Note_on_c, 0, 61, 36
1, 392208, Control_c, 0, 64, 55
1, 392223, Control_c, 0, 64, 56
1, 392238, Control_c, 0, 64, 57
1, 392253, Control_c, 0, 64, 59
1, 392276, Control_c, 0, 64, 60
1, 392290, Control_c, 0, 64, 61
1, 392305, Control_c, 0, 64, 61
1, 392320, Control_c, 0, 64, 62
1, 392335, Control_c, 0, 64, 62
1, 392438, Control_c, 0, 64, 62
1, 392449, Note_off_c, 0, 71, 59
1, 392467, Control_c, 0, 64, 61
1, 392484, Note_on_c, 0, 72, 50
1, 392499, Note_on_c, 0, 63, 34
1, 392512, Control_c, 0, 64, 61
1, 392524, Note_off_c, 0, 61, 47
1, 392803, Note_on_c, 0, 74, 46
1, 392814, Note_on_c, 0, 51, 32
1, 392834, Note_off_c, 0, 72, 47
1, 392906, Note_off_c, 0, 63, 38
1, 392972, Control_c, 0, 64, 61
1, 393138, Note_on_c, 0, 76, 51
1, 393145, Note_on_c, 0, 53, 36
1, 393177, Note_off_c, 0, 74, 58
1, 393185, Note_off_c, 0, 51, 46
1, 393448, Note_on_c, 0, 77, 53
1, 393459, Note_on_c, 0, 55, 40
1, 393466, Note_off_c, 0, 53, 43
1, 393483, Note_off_c, 0, 76, 59
1, 393740, Note_off_c, 0, 77, 61
1, 393752, Note_off_c, 0, 55, 52
1, 393764, Note_on_c, 0, 79, 52
1, 393787, Note_on_c, 0, 57, 33
1, 393937, Control_c, 0, 64, 62
1, 394084, Note_on_c, 0, 81, 50
1, 394084, Note_off_c, 0, 57, 51
1, 394100, Note_on_c, 0, 59, 34
1, 394129, Note_off_c, 0, 79, 52
1, 394262, Control_c, 0, 64, 62
1, 394405, Note_on_c, 0, 83, 51
1, 394424, Note_off_c, 0, 81, 57
1, 394429, Note_on_c, 0, 60, 34
1, 394456, Note_off_c, 0, 59, 37
1, 394718, Note_off_c, 0, 83, 58
1, 394722, Note_off_c, 0, 60, 46
1, 394730, Note_on_c, 0, 82, 56
1, 394730, Control_c, 0, 64, 63
1, 394743, Note_on_c, 0, 62, 33
1, 394893, Control_c, 0, 64, 63
1, 395070, Control_c, 0, 64, 63
1, 395091, Note_on_c, 0, 84, 48
1, 395115, Control_c, 0, 64, 62
1, 395116, Note_on_c, 0, 60, 34
1, 395122, Note_off_c, 0, 82, 58
1, 395143, Note_off_c, 0, 62, 50
1, 395270, Control_c, 0, 64, 63
1, 395483, Note_on_c, 0, 62, 32
1, 395534, Note_off_c, 0, 60, 39
1, 395817, Note_on_c, 0, 64, 38
1, 395847, Note_off_c, 0, 62, 41
1, 396018, Control_c, 0, 64, 63
1, 396123, Note_on_c, 0, 82, 51
1, 396136, Note_off_c, 0, 64, 55
1, 396144, Note_on_c, 0, 65, 34
1, 396172, Note_off_c, 0, 84, 57
1, 396456, Note_on_c, 0, 84, 56
1, 396459, Note_on_c, 0, 67, 37
1, 396475, Note_off_c, 0, 65, 58
1, 396500, Note_off_c, 0, 82, 51
1, 396773, Note_on_c, 0, 82, 60
1, 396789, Note_on_c, 0, 65, 32
1, 396809, Note_off_c, 0, 67, 37
1, 396815, Note_off_c, 0, 84, 54
1, 397091, Note_on_c, 0, 81, 58
1, 397101, Note_on_c, 0, 64, 46
1, 397133, Note_off_c, 0, 82, 56
1, 397162, Note_off_c, 0, 65, 37
1, 397420, Note_on_c, 0, 79, 59
1, 397434, Note_off_c, 0, 64, 38
1, 397437, Note_on_c, 0, 62, 39
1, 397519, Note_off_c, 0, 81, 35
1, 397725, Note_off_c, 0, 79, 60
1, 397735, Note_off_c, 0, 62, 50
1, 397744, Note_on_c, 0, 77, 57
1, 397759, Note_on_c, 0, 60, 38
1, 398054, Note_on_c, 0, 76, 52
1, 398058, Note_off_c, 0, 77, 51
1, 398061, Note_off_c, 0, 60, 59
1, 398073, Note_on_c, 0, 62, 38
1, 398343, Note_off_c, 0, 76, 60
1, 398374, Note_on_c, 0, 74, 53
1, 398380, Note_on_c, 0, 64, 39
1, 398388, Note_off_c, 0, 62, 59
1, 398519, Control_c, 0, 64, 64
1, 398662, Note_off_c, 0, 74, 54
1, 398674, Note_on_c, 0, 73, 54
1, 398696, Note_off_c, 0, 64, 42
1, 398712, Note_on_c, 0, 61, 34
1, 398974, Note_off_c, 0, 61, 48
1, 398995, Note_on_c, 0, 71, 49
1, 399010, Note_on_c, 0, 59, 35
1, 399023, Note_off_c, 0, 73, 54
1, 399297, Control_c, 0, 64, 63
1, 399318, Note_on_c, 0, 64, 40
1, 399336, Note_off_c, 0, 59, 36
1, 399340, Note_on_c, 0, 57, 32
1, 399416, Control_c, 0, 64, 64
1, 399446, Note_off_c, 0, 71, 35
1, 399628, Note_on_c, 0, 56, 37
1, 399629, Note_on_c, 0, 65, 42
1, 399672, Note_off_c, 0, 64, 38
1, 399683, Note_off_c, 0, 57, 36
1, 399711, Control_c, 0, 64, 63
1, 399763, Control_c, 0, 64, 63
1, 399866, Control_c, 0, 64, 63
1, 399890, Note_off_c, 0, 56, 37
1, 399896, Control_c, 0, 64, 64
1, 399911, Control_c, 0, 64, 65
1, 399926, Control_c, 0, 64, 65
1, 399941, Control_c, 0, 64, 67
1, 399943, Note_on_c, 0, 66, 47
1, 399955, Note_off_c, 0, 65, 52
1, 399955, Control_c, 0, 64, 68
1, 399961, Note_on_c, 0, 50, 27
1, 399970, Control_c, 0, 64, 70
1, 399985, Control_c, 0, 64, 72
1, 400000, Control_c, 0, 64, 74
1, 400015, Control_c, 0, 64, 76
1, 400030, Control_c, 0, 64, 77
1, 400045, Control_c, 0, 64, 79
1, 400059, Control_c, 0, 64, 80
1, 400063, Note_off_c, 0, 50, 57
1, 400075, Control_c, 0, 64, 80
1, 400090, Control_c, 0, 64, 81
1, 400238, Control_c, 0, 64, 80
1, 400253, Control_c, 0, 64, 80
1, 400268, Control_c, 0, 64, 78
1, 400283, Control_c, 0, 64, 77
1, 400283, Note_on_c, 0, 68, 48
1, 400298, Control_c, 0, 64, 74
1, 400309, Note_on_c, 0, 45, 31
1, 400309, Note_off_c, 0, 66, 49
1, 400313, Control_c, 0, 64, 72
1, 400328, Control_c, 0, 64, 69
1, 400343, Control_c, 0, 64, 67
1, 400357, Control_c, 0, 64, 65
1, 400372, Control_c, 0, 64, 64
1, 400572, Control_c, 0, 64, 65
1, 400615, Note_on_c, 0, 66, 44
1, 400629, Note_on_c, 0, 47, 29
1, 400655, Note_off_c, 0, 45, 43
1, 400666, Note_off_c, 0, 68, 35
1, 400779, Control_c, 0, 64, 65
1, 400933, Note_off_c, 0, 66, 49
1, 400939, Note_on_c, 0, 65, 39
1, 400949, Note_off_c, 0, 47, 51
1, 400958, Note_on_c, 0, 48, 33
1, 401261, Control_c, 0, 64, 66
1, 401263, Note_on_c, 0, 63, 42
1, 401276, Note_on_c, 0, 50, 28
1, 401297, Note_off_c, 0, 48, 41
1, 401303, Note_off_c, 0, 65, 47
1, 401590, Note_on_c, 0, 61, 47
1, 401592, Note_off_c, 0, 50, 53
1, 401598, Note_on_c, 0, 52, 21
1, 401620, Note_off_c, 0, 63, 38
1, 401810, Control_c, 0, 64, 65
1, 401919, Note_on_c, 0, 41, 25
1, 401925, Note_on_c, 0, 60, 33
1, 401929, Control_c, 0, 64, 65
1, 401947, Note_off_c, 0, 61, 35
1, 401956, Note_off_c, 0, 52, 38
1, 402010, Control_c, 0, 64, 64
1, 402158, Control_c, 0, 64, 64
1, 402188, Control_c, 0, 64, 63
1, 402231, Note_off_c, 0, 60, 56
1, 402233, Control_c, 0, 64, 63
1, 402247, Control_c, 0, 64, 62
1, 402250, Note_on_c, 0, 59, 36
1, 402262, Control_c, 0, 64, 62
1, 402277, Control_c, 0, 64, 61
1, 402284, Note_on_c, 0, 43, 22
1, 402289, Note_off_c, 0, 41, 40
1, 402292, Control_c, 0, 64, 60
1, 402307, Control_c, 0, 64, 60
1, 402322, Control_c, 0, 64, 59
1, 402336, Control_c, 0, 64, 58
1, 402351, Control_c, 0, 64, 57
1, 402366, Control_c, 0, 64, 54
1, 402381, Control_c, 0, 64, 50
1, 402396, Control_c, 0, 64, 43
1, 402410, Control_c, 0, 64, 30
1, 402425, Control_c, 0, 64, 0
1, 402585, Note_off_c, 0, 59, 37
1, 402588, Control_c, 0, 64, 44
1, 402603, Control_c, 0, 64, 64
1, 402604, Note_on_c, 0, 57, 23
1, 402614, Note_off_c, 0, 43, 38
1, 402617, Control_c, 0, 64, 70
1, 402632, Control_c, 0, 64, 75
1, 402635, Note_on_c, 0, 45, 24
1, 402647, Control_c, 0, 64, 82
1, 402662, Control_c, 0, 64, 90
1, 402667, Note_off_c, 0, 57, 59
1, 402676, Control_c, 0, 64, 99
1, 402686, Note_off_c, 0, 45, 60
1, 402691, Control_c, 0, 64, 108
1, 402706, Control_c, 0, 64, 123
1, 402721, Control_c, 0, 64, 127
1, 403008, Note_on_c, 0, 83, 49
1, 403009, Control_c, 0, 64, 116
1, 403024, Control_c, 0, 64, 99
1, 403039, Control_c, 0, 64, 89
1, 403044, Note_on_c, 0, 64, 41
1, 403054, Control_c, 0, 64, 80
1, 403068, Control_c, 0, 64, 72
1, 403083, Control_c, 0, 64, 64
1, 403098, Control_c, 0, 64, 47
1, 403113, Control_c, 0, 64, 30
1, 403143, Control_c, 0, 64, 29
1, 403157, Control_c, 0, 64, 28
1, 403187, Control_c, 0, 64, 29
1, 403202, Control_c, 0, 64, 40
1, 403217, Control_c, 0, 64, 51
1, 403231, Control_c, 0, 64, 57
1, 403246, Control_c, 0, 64, 61
1, 403261, Control_c, 0, 64, 64
1, 403278, Control_c, 0, 64, 65
1, 403292, Control_c, 0, 64, 66
1, 403307, Control_c, 0, 64, 67
1, 403322, Control_c, 0, 64, 68
1, 403337, Control_c, 0, 64, 68
1, 403352, Control_c, 0, 64, 69
1, 403366, Control_c, 0, 64, 70
1, 403372, Note_on_c, 0, 81, 57
1, 403376, Note_off_c, 0, 83, 58
1, 403378, Note_off_c, 0, 64, 46
1, 403381, Control_c, 0, 64, 71
1, 403391, Note_on_c, 0, 62, 36
1, 403396, Control_c, 0, 64, 72
1, 403411, Control_c, 0, 64, 73
1, 403425, Control_c, 0, 64, 74
1, 403440, Control_c, 0, 64, 75
1, 403455, Control_c, 0, 64, 76
1, 403470, Control_c, 0, 64, 77
1, 403596, Control_c, 0, 64, 76
1, 403611, Control_c, 0, 64, 76
1, 403625, Control_c, 0, 64, 75
1, 403640, Control_c, 0, 64, 74
1, 403655, Control_c, 0, 64, 72
1, 403670, Control_c, 0, 64, 70
1, 403685, Control_c, 0, 64, 69
1, 403694, Note_off_c, 0, 81, 55
1, 403706, Note_on_c, 0, 73, 55
1, 403728, Note_on_c, 0, 61, 46
1, 403747, Note_off_c, 0, 62, 40
1, 403789, Control_c, 0, 64, 69
1, 403833, Control_c, 0, 64, 69
1, 403952, Control_c, 0, 64, 68
1, 403996, Control_c, 0, 64, 68
1, 403997, Note_off_c, 0, 61, 56
1, 404011, Control_c, 0, 64, 67
1, 404022, Note_on_c, 0, 62, 53
1, 404025, Note_on_c, 0, 59, 42
1, 404025, Control_c, 0, 64, 66
1, 404036, Note_off_c, 0, 73, 57
1, 404040, Control_c, 0, 64, 65
1, 404055, Control_c, 0, 64, 65
1, 404071, Control_c, 0, 64, 64
1, 404086, Control_c, 0, 64, 63
1, 404101, Control_c, 0, 64, 61
1, 404116, Control_c, 0, 64, 55
1, 404130, Control_c, 0, 64, 44
1, 404145, Control_c, 0, 64, 14
1, 404160, Control_c, 0, 64, 0
1, 404323, Note_off_c, 0, 62, 53
1, 404363, Note_on_c, 0, 73, 65
1, 404371, Note_on_c, 0, 57, 41
1, 404390, Control_c, 0, 64, 53
1, 404396, Note_off_c, 0, 59, 36
1, 404404, Control_c, 0, 64, 66
1, 404419, Control_c, 0, 64, 73
1, 404434, Control_c, 0, 64, 79
1, 404448, Control_c, 0, 64, 85
1, 404455, Note_off_c, 0, 73, 61
1, 404463, Control_c, 0, 64, 89
1, 404478, Control_c, 0, 64, 91
1, 404493, Control_c, 0, 64, 92
1, 404508, Control_c, 0, 64, 92
1, 404641, Control_c, 0, 64, 92
1, 404656, Control_c, 0, 64, 91
1, 404671, Control_c, 0, 64, 90
1, 404677, Note_on_c, 0, 84, 67
1, 404686, Control_c, 0, 64, 88
1, 404686, Note_on_c, 0, 55, 45
1, 404701, Control_c, 0, 64, 86
1, 404715, Control_c, 0, 64, 84
1, 404730, Control_c, 0, 64, 83
1, 404745, Control_c, 0, 64, 82
1, 404757, Note_off_c, 0, 57, 29
1, 404760, Control_c, 0, 64, 81
1, 404774, Control_c, 0, 64, 80
1, 404789, Control_c, 0, 64, 78
1, 404804, Control_c, 0, 64, 76
1, 404819, Control_c, 0, 64, 74
1, 404834, Control_c, 0, 64, 71
1, 404848, Control_c, 0, 64, 68
1, 404864, Control_c, 0, 64, 67
1, 404879, Control_c, 0, 64, 66
1, 404924, Control_c, 0, 64, 65
1, 404953, Control_c, 0, 64, 65
1, 404968, Control_c, 0, 64, 64
1, 404983, Control_c, 0, 64, 64
1, 405005, Control_c, 0, 64, 63
1, 405020, Control_c, 0, 64, 63
1, 405035, Control_c, 0, 64, 62
1, 405048, Note_on_c, 0, 95, 70
1, 405050, Note_off_c, 0, 55, 58
1, 405050, Control_c, 0, 64, 62
1, 405063, Note_on_c, 0, 54, 47
1, 405065, Control_c, 0, 64, 61
1, 405093, Note_off_c, 0, 84, 56
1, 405257, Control_c, 0, 64, 62
1, 405331, Control_c, 0, 64, 62
1, 405380, Note_off_c, 0, 54, 37
1, 405389, Note_on_c, 0, 93, 70
1, 405404, Note_on_c, 0, 52, 33
1, 405449, Control_c, 0, 64, 63
1, 405511, Note_off_c, 0, 95, 37
1, 405642, Control_c, 0, 64, 63
1, 405710, Note_off_c, 0, 52, 41
1, 405720, Note_on_c, 0, 91, 71
1, 405744, Note_on_c, 0, 54, 36
1, 405912, Note_off_c, 0, 93, 23
1, 406030, Note_off_c, 0, 54, 45
1, 406042, Note_on_c, 0, 89, 64
1, 406051, Note_on_c, 0, 52, 34
1, 406140, Note_off_c, 0, 91, 36
1, 406242, Control_c, 0, 64, 64
1, 406367, Note_off_c, 0, 89, 61
1, 406369, Note_off_c, 0, 52, 41
1, 406372, Note_on_c, 0, 88, 58
1, 406380, Note_on_c, 0, 54, 35
1, 406683, Note_off_c, 0, 54, 44
1, 406691, Note_on_c, 0, 86, 49
1, 406710, Note_on_c, 0, 52, 30
1, 406743, Note_off_c, 0, 88, 52
1, 406993, Note_off_c, 0, 52, 42
1, 406998, Note_on_c, 0, 84, 45
1, 407014, Note_on_c, 0, 54, 33
1, 407042, Note_off_c, 0, 86, 37
1, 407065, Control_c, 0, 64, 64
1, 407095, Control_c, 0, 64, 65
1, 407110, Control_c, 0, 64, 65
1, 407125, Control_c, 0, 64, 66
1, 407139, Control_c, 0, 64, 66
1, 407154, Control_c, 0, 64, 67
1, 407169, Control_c, 0, 64, 67
1, 407184, Control_c, 0, 64, 68
1, 407214, Control_c, 0, 64, 68
1, 407266, Control_c, 0, 64, 68
1, 407296, Control_c, 0, 64, 67
1, 407311, Control_c, 0, 64, 67
1, 407315, Note_off_c, 0, 84, 62
1, 407326, Control_c, 0, 64, 66
1, 407332, Note_on_c, 0, 83, 44
1, 407338, Note_on_c, 0, 65, 31
1, 407340, Control_c, 0, 64, 66
1, 407370, Control_c, 0, 64, 65
1, 407392, Note_off_c, 0, 54, 46
1, 407459, Control_c, 0, 64, 65
1, 407578, Control_c, 0, 64, 64
1, 407622, Control_c, 0, 64, 64
1, 407643, Note_on_c, 0, 81, 51
1, 407643, Note_off_c, 0, 65, 44
1, 407659, Note_on_c, 0, 64, 41
1, 407688, Note_off_c, 0, 83, 39
1, 407933, Note_off_c, 0, 81, 52
1, 407955, Note_on_c, 0, 79, 46
1, 407962, Note_off_c, 0, 64, 60
1, 407978, Note_on_c, 0, 62, 35
1, 408178, Control_c, 0, 64, 63
1, 408237, Control_c, 0, 64, 63
1, 408252, Control_c, 0, 64, 62
1, 408266, Note_off_c, 0, 62, 42
1, 408267, Control_c, 0, 64, 61
1, 408271, Note_off_c, 0, 79, 58
1, 408282, Control_c, 0, 64, 60
1, 408297, Note_on_c, 0, 77, 41
1, 408298, Note_on_c, 0, 73, 39
1, 408326, Control_c, 0, 64, 61
1, 408341, Control_c, 0, 64, 62
1, 408356, Control_c, 0, 64, 64
1, 408371, Control_c, 0, 64, 65
1, 408385, Control_c, 0, 64, 66
1, 408400, Control_c, 0, 64, 68
1, 408415, Control_c, 0, 64, 71
1, 408430, Control_c, 0, 64, 73
1, 408445, Note_off_c, 0, 73, 52
1, 408445, Control_c, 0, 64, 77
1, 408460, Control_c, 0, 64, 80
1, 408475, Control_c, 0, 64, 82
1, 408489, Control_c, 0, 64, 84
1, 408490, Note_off_c, 0, 77, 37
1, 408504, Control_c, 0, 64, 87
1, 408519, Control_c, 0, 64, 89
1, 408534, Control_c, 0, 64, 90
1, 408578, Control_c, 0, 64, 89
1, 408593, Control_c, 0, 64, 88
1, 408607, Control_c, 0, 64, 84
1, 408622, Control_c, 0, 64, 79
1, 408633, Note_on_c, 0, 77, 44
1, 408637, Control_c, 0, 64, 75
1, 408642, Note_on_c, 0, 73, 44
1, 408652, Control_c, 0, 64, 73
1, 408667, Control_c, 0, 64, 72
1, 408681, Control_c, 0, 64, 73
1, 408696, Control_c, 0, 64, 74
1, 408711, Control_c, 0, 64, 75
1, 408726, Control_c, 0, 64, 76
1, 408748, Control_c, 0, 64, 78
1, 408763, Control_c, 0, 64, 79
1, 408778, Control_c, 0, 64, 80
1, 408793, Control_c, 0, 64, 82
1, 408808, Control_c, 0, 64, 84
1, 408809, Note_off_c, 0, 77, 38
1, 408821, Note_off_c, 0, 73, 58
1, 408822, Control_c, 0, 64, 88
1, 408837, Control_c, 0, 64, 92
1, 408852, Control_c, 0, 64, 96
1, 408868, Control_c, 0, 64, 100
1, 408883, Control_c, 0, 64, 101
1, 408927, Control_c, 0, 64, 98
1, 408942, Control_c, 0, 64, 93
1, 408957, Control_c, 0, 64, 88
1, 408964, Note_on_c, 0, 77, 53
1, 408964, Note_on_c, 0, 73, 45
1, 408972, Control_c, 0, 64, 83
1, 408986, Control_c, 0, 64, 82
1, 409031, Control_c, 0, 64, 83
1, 409045, Control_c, 0, 64, 84
1, 409060, Control_c, 0, 64, 85
1, 409075, Control_c, 0, 64, 86
1, 409090, Control_c, 0, 64, 88
1, 409105, Control_c, 0, 64, 90
1, 409111, Note_off_c, 0, 73, 51
1, 409119, Control_c, 0, 64, 92
1, 409122, Note_off_c, 0, 77, 44
1, 409134, Control_c, 0, 64, 94
1, 409149, Control_c, 0, 64, 97
1, 409164, Control_c, 0, 64, 100
1, 409179, Control_c, 0, 64, 103
1, 409193, Control_c, 0, 64, 103
1, 409208, Control_c, 0, 64, 103
1, 409238, Control_c, 0, 64, 99
1, 409253, Control_c, 0, 64, 94
1, 409268, Control_c, 0, 64, 89
1, 409269, Note_on_c, 0, 77, 57
1, 409283, Control_c, 0, 64, 88
1, 409289, Note_on_c, 0, 73, 40
1, 409327, Control_c, 0, 64, 89
1, 409342, Control_c, 0, 64, 90
1, 409357, Control_c, 0, 64, 92
1, 409372, Control_c, 0, 64, 94
1, 409386, Control_c, 0, 64, 95
1, 409401, Control_c, 0, 64, 96
1, 409416, Control_c, 0, 64, 97
1, 409428, Note_off_c, 0, 73, 46
1, 409430, Control_c, 0, 64, 97
1, 409444, Note_off_c, 0, 77, 38
1, 409445, Control_c, 0, 64, 98
1, 409460, Control_c, 0, 64, 99
1, 409475, Control_c, 0, 64, 101
1, 409497, Control_c, 0, 64, 104
1, 409512, Control_c, 0, 64, 105
1, 409557, Control_c, 0, 64, 103
1, 409571, Control_c, 0, 64, 99
1, 409586, Control_c, 0, 64, 93
1, 409601, Control_c, 0, 64, 90
1, 409602, Note_on_c, 0, 77, 54
1, 409611, Note_on_c, 0, 73, 41
1, 409616, Control_c, 0, 64, 89
1, 409706, Control_c, 0, 64, 89
1, 409765, Control_c, 0, 64, 88
1, 409780, Control_c, 0, 64, 87
1, 409794, Control_c, 0, 64, 86
1, 409809, Control_c, 0, 64, 84
1, 409824, Control_c, 0, 64, 83
1, 409839, Control_c, 0, 64, 80
1, 409854, Control_c, 0, 64, 78
1, 409868, Control_c, 0, 64, 75
1, 409883, Control_c, 0, 64, 72
1, 409898, Control_c, 0, 64, 70
1, 409913, Control_c, 0, 64, 68
1, 409928, Control_c, 0, 64, 66
1, 409933, Note_on_c, 0, 79, 48
1, 409940, Note_on_c, 0, 72, 32
1, 409950, Note_off_c, 0, 73, 35
1, 409962, Note_off_c, 0, 77, 39
1, 409986, Control_c, 0, 64, 66
1, 410031, Control_c, 0, 64, 65
1, 410076, Control_c, 0, 64, 65
1, 410256, Note_on_c, 0, 71, 41
1, 410257, Note_on_c, 0, 81, 49
1, 410268, Note_off_c, 0, 72, 44
1, 410293, Note_off_c, 0, 79, 57
1, 410565, Note_off_c, 0, 81, 57
1, 410571, Note_on_c, 0, 82, 50
1, 410576, Note_off_c, 0, 71, 49
1, 410605, Note_on_c, 0, 70, 35
1, 410691, Control_c, 0, 64, 64
1, 410721, Control_c, 0, 64, 64
1, 410736, Control_c, 0, 64, 63
1, 410765, Control_c, 0, 64, 62
1, 410780, Control_c, 0, 64, 62
1, 410839, Control_c, 0, 64, 62
1, 410854, Control_c, 0, 64, 63
1, 410869, Control_c, 0, 64, 64
1, 410883, Control_c, 0, 64, 66
1, 410886, Note_off_c, 0, 70, 37
1, 410891, Note_off_c, 0, 82, 37
1, 410898, Control_c, 0, 64, 68
1, 410904, Note_on_c, 0, 84, 44
1, 410913, Control_c, 0, 64, 71
1, 410916, Note_on_c, 0, 69, 34
1, 410928, Control_c, 0, 64, 75
1, 410943, Control_c, 0, 64, 80
1, 410958, Control_c, 0, 64, 85
1, 410970, Note_off_c, 0, 84, 64
1, 410973, Control_c, 0, 64, 91
1, 410995, Control_c, 0, 64, 97
1, 411009, Control_c, 0, 64, 104
1, 411024, Control_c, 0, 64, 110
1, 411039, Control_c, 0, 64, 116
1, 411054, Control_c, 0, 64, 124
1, 411069, Control_c, 0, 64, 127
1, 411104, Note_off_c, 0, 69, 35
1, 411241, Note_on_c, 0, 57, 38
1, 411250, Note_on_c, 0, 68, 45
1, 411289, Note_off_c, 0, 68, 63
1, 411289, Note_off_c, 0, 57, 59
1, 411574, Control_c, 0, 64, 111
1, 411578, Note_on_c, 0, 59, 45
1, 411588, Control_c, 0, 64, 103
1, 411603, Control_c, 0, 64, 96
1, 411606, Note_on_c, 0, 41, 36
1, 411618, Control_c, 0, 64, 89
1, 411632, Control_c, 0, 64, 82
1, 411647, Control_c, 0, 64, 76
1, 411662, Control_c, 0, 64, 70
1, 411677, Control_c, 0, 64, 65
1, 411692, Control_c, 0, 64, 63
1, 411744, Control_c, 0, 64, 63
1, 411788, Control_c, 0, 64, 63
1, 411803, Control_c, 0, 64, 64
1, 411818, Control_c, 0, 64, 64
1, 411832, Control_c, 0, 64, 65
1, 411847, Control_c, 0, 64, 67
1, 411862, Control_c, 0, 64, 69
1, 411877, Control_c, 0, 64, 71
1, 411885, Note_off_c, 0, 59, 52
1, 411892, Control_c, 0, 64, 74
1, 411895, Note_on_c, 0, 64, 45
1, 411906, Control_c, 0, 64, 78
1, 411921, Control_c, 0, 64, 81
1, 411933, Note_on_c, 0, 43, 43
1, 411936, Control_c, 0, 64, 84
1, 411951, Control_c, 0, 64, 87
1, 411966, Control_c, 0, 64, 90
1, 411967, Note_off_c, 0, 41, 39
1, 411980, Note_off_c, 0, 64, 64
1, 411980, Control_c, 0, 64, 92
1, 411995, Control_c, 0, 64, 92
1, 412010, Control_c, 0, 64, 93
1, 412129, Control_c, 0, 64, 92
1, 412144, Control_c, 0, 64, 92
1, 412159, Control_c, 0, 64, 91
1, 412174, Control_c, 0, 64, 90
1, 412189, Control_c, 0, 64, 89
1, 412204, Control_c, 0, 64, 87
1, 412207, Note_on_c, 0, 69, 50
1, 412219, Control_c, 0, 64, 85
1, 412230, Note_on_c, 0, 45, 36
1, 412234, Control_c, 0, 64, 83
1, 412249, Control_c, 0, 64, 81
1, 412255, Note_off_c, 0, 43, 39
1, 412263, Control_c, 0, 64, 79
1, 412278, Control_c, 0, 64, 76
1, 412293, Control_c, 0, 64, 74
1, 412308, Control_c, 0, 64, 71
1, 412323, Control_c, 0, 64, 68
1, 412337, Control_c, 0, 64, 66
1, 412411, Control_c, 0, 64, 66
1, 412507, Note_on_c, 0, 74, 54
1, 412508, Control_c, 0, 64, 65
1, 412528, Note_on_c, 0, 47, 37
1, 412605, Note_off_c, 0, 69, 37
1, 412612, Note_off_c, 0, 45, 46
1, 412819, Note_on_c, 0, 77, 58
1, 412838, Note_on_c, 0, 48, 41
1, 412839, Note_off_c, 0, 47, 57
1, 412967, Control_c, 0, 64, 65
1, 413101, Control_c, 0, 64, 64
1, 413133, Note_on_c, 0, 79, 58
1, 413142, Note_on_c, 0, 50, 46
1, 413176, Control_c, 0, 64, 64
1, 413176, Note_off_c, 0, 74, 53
1, 413188, Note_off_c, 0, 48, 44
1, 413209, Note_off_c, 0, 77, 45
1, 413468, Note_on_c, 0, 51, 49
1, 413470, Note_on_c, 0, 81, 60
1, 413494, Note_off_c, 0, 79, 52
1, 413502, Note_off_c, 0, 50, 48
1, 413793, Note_on_c, 0, 79, 61
1, 413797, Note_off_c, 0, 51, 62
1, 413802, Note_on_c, 0, 53, 46
1, 413841, Note_off_c, 0, 81, 55
1, 414103, Note_on_c, 0, 81, 63
1, 414107, Note_on_c, 0, 54, 48
1, 414151, Note_off_c, 0, 79, 55
1, 414156, Note_off_c, 0, 53, 56
1, 414168, Control_c, 0, 64, 64
1, 414406, Control_c, 0, 64, 65
1, 414430, Note_on_c, 0, 79, 60
1, 414432, Note_on_c, 0, 56, 48
1, 414473, Note_off_c, 0, 81, 53
1, 414498, Note_off_c, 0, 54, 37
1, 414759, Note_on_c, 0, 81, 57
1, 414780, Note_on_c, 0, 58, 44
1, 414781, Note_off_c, 0, 79, 51
1, 414801, Note_off_c, 0, 56, 46
1, 415083, Note_off_c, 0, 81, 51
1, 415086, Note_on_c, 0, 79, 51
1, 415089, Note_off_c, 0, 58, 50
1, 415095, Note_on_c, 0, 60, 36
1, 415405, Note_off_c, 0, 60, 45
1, 415408, Note_on_c, 0, 81, 46
1, 415409, Note_off_c, 0, 79, 52
1, 415428, Note_on_c, 0, 62, 27
1, 415719, Note_off_c, 0, 81, 54
1, 415727, Note_off_c, 0, 62, 48
1, 415742, Note_on_c, 0, 79, 41
1, 415770, Note_on_c, 0, 64, 30
1, 416055, Note_off_c, 0, 79, 50
1, 416071, Note_on_c, 0, 81, 39
1, 416090, Note_on_c, 0, 66, 25
1, 416139, Note_off_c, 0, 64, 43
1, 416385, Control_c, 0, 64, 65
1, 416434, Note_off_c, 0, 81, 49
1, 416448, Note_on_c, 0, 79, 31
1, 416466, Note_off_c, 0, 66, 41
1, 416476, Note_on_c, 0, 67, 33
1, 416577, Control_c, 0, 64, 66
1, 416666, Control_c, 0, 64, 66
1, 416696, Control_c, 0, 64, 67
1, 416741, Control_c, 0, 64, 67
1, 416814, Control_c, 0, 64, 68
1, 416825, Note_on_c, 0, 81, 34
1, 416827, Note_off_c, 0, 79, 42
1, 416837, Note_on_c, 0, 69, 29
1, 416843, Note_off_c, 0, 67, 44
1, 416963, Control_c, 0, 64, 68
1, 417147, Note_off_c, 0, 69, 43
1, 417156, Note_off_c, 0, 81, 43
1, 417157, Note_on_c, 0, 79, 40
1, 417179, Note_on_c, 0, 67, 28
1, 417281, Control_c, 0, 64, 68
1, 417462, Note_off_c, 0, 79, 43
1, 417475, Note_on_c, 0, 81, 39
1, 417479, Note_off_c, 0, 67, 42
1, 417486, Note_on_c, 0, 69, 29
1, 417637, Control_c, 0, 64, 67
1, 417763, Control_c, 0, 64, 66
1, 417774, Note_off_c, 0, 69, 43
1, 417778, Control_c, 0, 64, 66
1, 417793, Control_c, 0, 64, 65
1, 417798, Note_off_c, 0, 81, 53
1, 417808, Control_c, 0, 64, 65
1, 417817, Note_on_c, 0, 79, 40
1, 417823, Control_c, 0, 64, 64
1, 417828, Note_on_c, 0, 67, 26
1, 417838, Control_c, 0, 64, 64
1, 417882, Control_c, 0, 64, 64
1, 417897, Control_c, 0, 64, 65
1, 417912, Control_c, 0, 64, 65
1, 417926, Control_c, 0, 64, 66
1, 417941, Control_c, 0, 64, 66
1, 417956, Control_c, 0, 64, 67
1, 417971, Control_c, 0, 64, 67
1, 417986, Control_c, 0, 64, 68
1, 417999, Note_off_c, 0, 67, 45
1, 418000, Control_c, 0, 64, 69
1, 418015, Control_c, 0, 64, 70
1, 418030, Control_c, 0, 64, 71
1, 418045, Control_c, 0, 64, 72
1, 418060, Control_c, 0, 64, 74
1, 418074, Control_c, 0, 64, 76
1, 418089, Control_c, 0, 64, 77
1, 418104, Control_c, 0, 64, 79
1, 418119, Control_c, 0, 64, 81
1, 418133, Control_c, 0, 64, 83
1, 418147, Note_on_c, 0, 81, 35
1, 418148, Control_c, 0, 64, 85
1, 418163, Control_c, 0, 64, 87
1, 418168, Note_on_c, 0, 69, 23
1, 418178, Control_c, 0, 64, 88
1, 418187, Note_off_c, 0, 79, 34
1, 418193, Control_c, 0, 64, 89
1, 418199, Note_off_c, 0, 81, 0
1, 418199, Note_on_c, 0, 81, 4
1, 418208, Control_c, 0, 64, 89
1, 418222, Control_c, 0, 64, 90
1, 418237, Control_c, 0, 64, 90
1, 418249, Note_off_c, 0, 69, 49
1, 418252, Control_c, 0, 64, 91
1, 418430, Control_c, 0, 64, 90
1, 418446, Control_c, 0, 64, 90
1, 418461, Control_c, 0, 64, 89
1, 418483, Control_c, 0, 64, 88
1, 418488, Note_on_c, 0, 79, 34
1, 418497, Control_c, 0, 64, 85
1, 418512, Note_off_c, 0, 81, 39
1, 418512, Control_c, 0, 64, 83
1, 418514, Note_on_c, 0, 46, 54
1, 418518, Note_on_c, 0, 67, 30
1, 418527, Control_c, 0, 64, 79
1, 418542, Control_c, 0, 64, 75
1, 418556, Control_c, 0, 64, 72
1, 418571, Control_c, 0, 64, 69
1, 418586, Control_c, 0, 64, 68
1, 418601, Control_c, 0, 64, 68
1, 418607, Note_off_c, 0, 67, 52
1, 418616, Control_c, 0, 64, 70
1, 418631, Control_c, 0, 64, 71
1, 418646, Control_c, 0, 64, 72
1, 418661, Control_c, 0, 64, 73
1, 418676, Control_c, 0, 64, 74
1, 418690, Control_c, 0, 64, 75
1, 418705, Control_c, 0, 64, 77
1, 418720, Control_c, 0, 64, 78
1, 418735, Control_c, 0, 64, 80
1, 418749, Control_c, 0, 64, 82
1, 418764, Control_c, 0, 64, 84
1, 418779, Control_c, 0, 64, 85
1, 418794, Control_c, 0, 64, 87
1, 418809, Control_c, 0, 64, 88
1, 418823, Control_c, 0, 64, 88
1, 418853, Control_c, 0, 64, 89
1, 418870, Note_on_c, 0, 81, 31
1, 418881, Note_on_c, 0, 69, 28
1, 418881, Note_off_c, 0, 79, 34
1, 418971, Note_off_c, 0, 69, 55
1, 419149, Control_c, 0, 64, 88
1, 419179, Control_c, 0, 64, 87
1, 419194, Control_c, 0, 64, 87
1, 419209, Control_c, 0, 64, 86
1, 419230, Control_c, 0, 64, 85
1, 419241, Note_on_c, 0, 79, 36
1, 419246, Control_c, 0, 64, 83
1, 419248, Note_off_c, 0, 81, 41
1, 419252, Note_on_c, 0, 48, 53
1, 419261, Control_c, 0, 64, 81
1, 419273, Note_on_c, 0, 67, 26
1, 419276, Control_c, 0, 64, 78
1, 419291, Control_c, 0, 64, 74
1, 419303, Note_off_c, 0, 46, 55
1, 419306, Control_c, 0, 64, 69
1, 419320, Control_c, 0, 64, 65
1, 419335, Control_c, 0, 64, 62
1, 419350, Control_c, 0, 64, 60
1, 419365, Control_c, 0, 64, 59
1, 419379, Control_c, 0, 64, 58
1, 419394, Control_c, 0, 64, 57
1, 419409, Control_c, 0, 64, 56
1, 419424, Control_c, 0, 64, 58
1, 419428, Note_off_c, 0, 67, 38
1, 419439, Control_c, 0, 64, 62
1, 419454, Control_c, 0, 64, 64
1, 419468, Control_c, 0, 64, 67
1, 419483, Control_c, 0, 64, 70
1, 419498, Control_c, 0, 64, 74
1, 419513, Control_c, 0, 64, 77
1, 419528, Control_c, 0, 64, 81
1, 419543, Control_c, 0, 64, 84
1, 419558, Control_c, 0, 64, 86
1, 419572, Control_c, 0, 64, 89
1, 419587, Control_c, 0, 64, 90
1, 419602, Control_c, 0, 64, 92
1, 419617, Control_c, 0, 64, 93
1, 419632, Control_c, 0, 64, 93
1, 419651, Note_on_c, 0, 69, 30
1, 419654, Note_on_c, 0, 81, 34
1, 419686, Note_off_c, 0, 79, 27
1, 419728, Note_off_c, 0, 69, 54
1, 419948, Note_on_c, 0, 79, 31
1, 419968, Note_off_c, 0, 81, 41
1, 419995, Note_on_c, 0, 67, 17
1, 420050, Note_off_c, 0, 67, 45
1, 420288, Note_on_c, 0, 81, 38
1, 420300, Note_on_c, 0, 69, 30
1, 420308, Note_off_c, 0, 79, 37
1, 420378, Note_off_c, 0, 69, 54
1, 420499, Control_c, 0, 64, 93
1, 420528, Control_c, 0, 64, 92
1, 420543, Control_c, 0, 64, 92
1, 420573, Control_c, 0, 64, 91
1, 420587, Control_c, 0, 64, 89
1, 420601, Note_on_c, 0, 79, 39
1, 420602, Control_c, 0, 64, 87
1, 420615, Note_on_c, 0, 53, 49
1, 420616, Note_on_c, 0, 67, 31
1, 420617, Control_c, 0, 64, 83
1, 420632, Control_c, 0, 64, 80
1, 420647, Control_c, 0, 64, 76
1, 420648, Note_off_c, 0, 81, 32
1, 420661, Control_c, 0, 64, 71
1, 420676, Control_c, 0, 64, 68
1, 420691, Control_c, 0, 64, 66
1, 420696, Note_off_c, 0, 48, 51
1, 420706, Control_c, 0, 64, 67
1, 420724, Note_off_c, 0, 67, 44
1, 420728, Control_c, 0, 64, 68
1, 420743, Control_c, 0, 64, 69
1, 420758, Control_c, 0, 64, 71
1, 420773, Control_c, 0, 64, 72
1, 420788, Control_c, 0, 64, 74
1, 420802, Control_c, 0, 64, 76
1, 420817, Control_c, 0, 64, 78
1, 420832, Control_c, 0, 64, 79
1, 420848, Control_c, 0, 64, 81
1, 420863, Control_c, 0, 64, 82
1, 420878, Control_c, 0, 64, 84
1, 420893, Control_c, 0, 64, 86
1, 420907, Control_c, 0, 64, 88
1, 420922, Control_c, 0, 64, 89
1, 420937, Control_c, 0, 64, 90
1, 420947, Note_on_c, 0, 81, 39
1, 420951, Control_c, 0, 64, 91
1, 420957, Note_on_c, 0, 69, 36
1, 420966, Control_c, 0, 64, 92
1, 420981, Control_c, 0, 64, 93
1, 421003, Note_off_c, 0, 79, 26
1, 421011, Control_c, 0, 64, 94
1, 421041, Note_off_c, 0, 69, 56
1, 421218, Control_c, 0, 64, 93
1, 421233, Control_c, 0, 64, 91
1, 421248, Control_c, 0, 64, 88
1, 421255, Note_on_c, 0, 55, 59
1, 421263, Control_c, 0, 64, 84
1, 421265, Note_on_c, 0, 79, 42
1, 421278, Control_c, 0, 64, 79
1, 421287, Note_on_c, 0, 67, 35
1, 421292, Control_c, 0, 64, 74
1, 421307, Control_c, 0, 64, 68
1, 421308, Note_off_c, 0, 81, 36
1, 421322, Control_c, 0, 64, 63
1, 421336, Control_c, 0, 64, 60
1, 421349, Note_off_c, 0, 53, 58
1, 421366, Control_c, 0, 64, 62
1, 421381, Control_c, 0, 64, 64
1, 421396, Control_c, 0, 64, 66
1, 421401, Note_off_c, 0, 67, 43
1, 421410, Control_c, 0, 64, 69
1, 421425, Control_c, 0, 64, 73
1, 421440, Control_c, 0, 64, 77
1, 421455, Control_c, 0, 64, 82
1, 421478, Control_c, 0, 64, 87
1, 421492, Control_c, 0, 64, 90
1, 421507, Control_c, 0, 64, 93
1, 421522, Control_c, 0, 64, 94
1, 421537, Control_c, 0, 64, 95
1, 421551, Control_c, 0, 64, 96
1, 421566, Control_c, 0, 64, 96
1, 421589, Note_on_c, 0, 81, 46
1, 421596, Control_c, 0, 64, 97
1, 421610, Note_on_c, 0, 69, 43
1, 421637, Note_off_c, 0, 79, 32
1, 421681, Note_off_c, 0, 69, 49
1, 421848, Control_c, 0, 64, 96
1, 421863, Control_c, 0, 64, 95
1, 421878, Control_c, 0, 64, 94
1, 421893, Control_c, 0, 64, 92
1, 421897, Note_on_c, 0, 79, 44
1, 421908, Control_c, 0, 64, 90
1, 421922, Note_on_c, 0, 52, 63
1, 421922, Control_c, 0, 64, 86
1, 421925, Note_on_c, 0, 67, 30
1, 421937, Control_c, 0, 64, 80
1, 421949, Note_off_c, 0, 81, 35
1, 421952, Control_c, 0, 64, 74
1, 421966, Control_c, 0, 64, 68
1, 421981, Control_c, 0, 64, 63
1, 421996, Control_c, 0, 64, 59
1, 422018, Note_off_c, 0, 55, 57
1, 422026, Control_c, 0, 64, 60
1, 422041, Control_c, 0, 64, 63
1, 422056, Control_c, 0, 64, 65
1, 422071, Control_c, 0, 64, 67
1, 422071, Note_off_c, 0, 67, 41
1, 422085, Control_c, 0, 64, 71
1, 422100, Control_c, 0, 64, 75
1, 422115, Control_c, 0, 64, 79
1, 422130, Control_c, 0, 64, 83
1, 422145, Control_c, 0, 64, 86
1, 422159, Control_c, 0, 64, 89
1, 422174, Control_c, 0, 64, 91
1, 422189, Control_c, 0, 64, 93
1, 422204, Control_c, 0, 64, 94
1, 422226, Control_c, 0, 64, 95
1, 422241, Control_c, 0, 64, 96
1, 422256, Control_c, 0, 64, 97
1, 422265, Note_on_c, 0, 81, 44
1, 422271, Control_c, 0, 64, 98
1, 422279, Note_on_c, 0, 69, 38
1, 422285, Control_c, 0, 64, 100
1, 422300, Control_c, 0, 64, 102
1, 422304, Note_off_c, 0, 79, 31
1, 422315, Control_c, 0, 64, 103
1, 422330, Control_c, 0, 64, 105
1, 422345, Control_c, 0, 64, 107
1, 422360, Control_c, 0, 64, 108
1, 422364, Note_off_c, 0, 69, 51
1, 422374, Control_c, 0, 64, 110
1, 422389, Control_c, 0, 64, 112
1, 422404, Control_c, 0, 64, 113
1, 422419, Control_c, 0, 64, 114
1, 422449, Control_c, 0, 64, 114
1, 422572, Note_on_c, 0, 79, 48
1, 422587, Note_on_c, 0, 67, 43
1, 422622, Note_off_c, 0, 81, 36
1, 422632, Note_off_c, 0, 79, 0
1, 422632, Note_on_c, 0, 79, 15
1, 422676, Note_off_c, 0, 67, 51
1, 422875, Note_on_c, 0, 81, 48
1, 422894, Note_on_c, 0, 69, 44
1, 422894, Control_c, 0, 64, 115
1, 422932, Note_off_c, 0, 79, 38
1, 422950, Note_off_c, 0, 69, 57
1, 423020, Control_c, 0, 64, 114
1, 423153, Control_c, 0, 64, 113
1, 423168, Control_c, 0, 64, 110
1, 423183, Control_c, 0, 64, 106
1, 423198, Control_c, 0, 64, 101
1, 423200, Note_on_c, 0, 79, 46
1, 423212, Control_c, 0, 64, 94
1, 423218, Note_off_c, 0, 81, 37
1, 423222, Note_on_c, 0, 67, 41
1, 423223, Note_on_c, 0, 43, 54
1, 423227, Control_c, 0, 64, 88
1, 423243, Control_c, 0, 64, 82
1, 423258, Control_c, 0, 64, 76
1, 423273, Control_c, 0, 64, 69
1, 423287, Control_c, 0, 64, 66
1, 423317, Control_c, 0, 64, 68
1, 423328, Note_off_c, 0, 52, 50
1, 423332, Control_c, 0, 64, 70
1, 423341, Note_off_c, 0, 67, 51
1, 423347, Control_c, 0, 64, 73
1, 423362, Control_c, 0, 64, 76
1, 423376, Control_c, 0, 64, 80
1, 423391, Control_c, 0, 64, 84
1, 423406, Control_c, 0, 64, 87
1, 423421, Control_c, 0, 64, 90
1, 423436, Control_c, 0, 64, 93
1, 423451, Control_c, 0, 64, 95
1, 423466, Control_c, 0, 64, 96
1, 423481, Control_c, 0, 64, 96
1, 423551, Note_on_c, 0, 77, 50
1, 423558, Note_on_c, 0, 69, 47
1, 423584, Note_off_c, 0, 79, 34
1, 423655, Note_off_c, 0, 69, 48
1, 423828, Control_c, 0, 64, 96
1, 423843, Control_c, 0, 64, 92
1, 423850, Note_on_c, 0, 76, 55
1, 423858, Control_c, 0, 64, 88
1, 423863, Note_on_c, 0, 67, 44
1, 423873, Control_c, 0, 64, 83
1, 423874, Note_on_c, 0, 45, 58
1, 423888, Control_c, 0, 64, 77
1, 423897, Note_off_c, 0, 77, 35
1, 423902, Control_c, 0, 64, 71
1, 423917, Control_c, 0, 64, 65
1, 423932, Control_c, 0, 64, 60
1, 423946, Control_c, 0, 64, 57
1, 423961, Note_off_c, 0, 43, 59
1, 423961, Control_c, 0, 64, 58
1, 423976, Control_c, 0, 64, 61
1, 423991, Control_c, 0, 64, 64
1, 423994, Note_off_c, 0, 67, 40
1, 424006, Control_c, 0, 64, 66
1, 424020, Control_c, 0, 64, 69
1, 424036, Control_c, 0, 64, 73
1, 424051, Control_c, 0, 64, 77
1, 424066, Control_c, 0, 64, 81
1, 424081, Control_c, 0, 64, 84
1, 424096, Control_c, 0, 64, 86
1, 424110, Control_c, 0, 64, 88
1, 424125, Control_c, 0, 64, 90
1, 424140, Control_c, 0, 64, 91
1, 424155, Control_c, 0, 64, 92
1, 424169, Control_c, 0, 64, 93
1, 424182, Note_on_c, 0, 77, 52
1, 424184, Control_c, 0, 64, 93
1, 424191, Note_on_c, 0, 69, 48
1, 424199, Control_c, 0, 64, 94
1, 424214, Control_c, 0, 64, 94
1, 424216, Note_off_c, 0, 76, 57
1, 424229, Control_c, 0, 64, 95
1, 424244, Control_c, 0, 64, 96
1, 424259, Control_c, 0, 64, 97
1, 424284, Note_off_c, 0, 69, 53
1, 424289, Control_c, 0, 64, 97
1, 424502, Note_on_c, 0, 76, 58
1, 424503, Control_c, 0, 64, 96
1, 424513, Note_on_c, 0, 47, 57
1, 424515, Note_off_c, 0, 77, 52
1, 424518, Control_c, 0, 64, 92
1, 424524, Note_on_c, 0, 67, 46
1, 424533, Control_c, 0, 64, 87
1, 424548, Control_c, 0, 64, 81
1, 424563, Control_c, 0, 64, 73
1, 424577, Control_c, 0, 64, 66
1, 424581, Note_off_c, 0, 45, 63
1, 424592, Control_c, 0, 64, 56
1, 424607, Control_c, 0, 64, 43
1, 424637, Control_c, 0, 64, 47
1, 424651, Control_c, 0, 64, 56
1, 424666, Control_c, 0, 64, 63
1, 424681, Control_c, 0, 64, 67
1, 424695, Control_c, 0, 64, 73
1, 424703, Note_off_c, 0, 67, 57
1, 424710, Control_c, 0, 64, 80
1, 424725, Control_c, 0, 64, 87
1, 424740, Control_c, 0, 64, 93
1, 424755, Control_c, 0, 64, 98
1, 424769, Control_c, 0, 64, 100
1, 424784, Control_c, 0, 64, 102
1, 424799, Control_c, 0, 64, 105
1, 424814, Control_c, 0, 64, 109
1, 424829, Control_c, 0, 64, 115
1, 424845, Note_on_c, 0, 79, 67
1, 424845, Control_c, 0, 64, 127
1, 424859, Note_on_c, 0, 65, 48
1, 424901, Note_off_c, 0, 65, 0
1, 424901, Note_on_c, 0, 65, 27
1, 424932, Note_off_c, 0, 65, 63
1, 424934, Poly_aftertouch_c, 0, 67, 127
1, 424943, Note_off_c, 0, 76, 0
1, 424962, Poly_aftertouch_c, 0, 67, 0
1, 424967, Note_on_c, 0, 76, 24
1, 424980, Note_off_c, 0, 79, 38
1, 425018, Note_off_c, 0, 76, 53
1, 425164, Note_on_c, 0, 77, 62
1, 425181, Note_off_c, 0, 47, 55
1, 425184, Note_on_c, 0, 64, 59
1, 425236, Note_off_c, 0, 77, 60
1, 425305, Note_off_c, 0, 64, 59
1, 425463, Note_on_c, 0, 70, 54
1, 425481, Note_on_c, 0, 62, 47
1, 425488, Note_on_c, 0, 47, 55
1, 425530, Note_off_c, 0, 62, 60
1, 425786, Control_c, 0, 64, 101
1, 425794, Note_on_c, 0, 72, 59
1, 425798, Note_on_c, 0, 61, 54
1, 425801, Control_c, 0, 64, 85
1, 425810, Note_off_c, 0, 70, 58
1, 425811, Note_on_c, 0, 48, 65
1, 425815, Control_c, 0, 64, 73
1, 425830, Control_c, 0, 64, 66
1, 425845, Control_c, 0, 64, 65
1, 425849, Note_off_c, 0, 47, 60
1, 425860, Control_c, 0, 64, 68
1, 425875, Control_c, 0, 64, 72
1, 425889, Control_c, 0, 64, 78
1, 425904, Control_c, 0, 64, 86
1, 425919, Control_c, 0, 64, 95
1, 425934, Control_c, 0, 64, 105
1, 425949, Control_c, 0, 64, 113
1, 425971, Control_c, 0, 64, 127
1, 425979, Note_off_c, 0, 61, 48
1, 426096, Note_off_c, 0, 72, 36
1, 426127, Note_on_c, 0, 73, 67
1, 426141, Note_on_c, 0, 50, 67
1, 426144, Note_on_c, 0, 60, 62
1, 426150, Note_off_c, 0, 48, 62
1, 426183, Note_off_c, 0, 73, 62
1, 426461, Note_off_c, 0, 60, 32
1, 426461, Control_c, 0, 64, 110
1, 426465, Note_on_c, 0, 59, 62
1, 426465, Note_on_c, 0, 64, 68
1, 426473, Note_on_c, 0, 52, 73
1, 426476, Control_c, 0, 64, 98
1, 426491, Control_c, 0, 64, 87
1, 426506, Control_c, 0, 64, 74
1, 426508, Note_off_c, 0, 50, 63
1, 426520, Control_c, 0, 64, 65
1, 426535, Control_c, 0, 64, 48
1, 426550, Control_c, 0, 64, 36
1, 426564, Control_c, 0, 64, 38
1, 426579, Control_c, 0, 64, 47
1, 426594, Control_c, 0, 64, 58
1, 426609, Control_c, 0, 64, 65
1, 426624, Control_c, 0, 64, 70
1, 426638, Control_c, 0, 64, 77
1, 426653, Control_c, 0, 64, 85
1, 426668, Control_c, 0, 64, 94
1, 426682, Control_c, 0, 64, 102
1, 426697, Control_c, 0, 64, 108
1, 426720, Control_c, 0, 64, 111
1, 426735, Control_c, 0, 64, 114
1, 426750, Control_c, 0, 64, 121
1, 426764, Control_c, 0, 64, 127
1, 426788, Note_on_c, 0, 66, 62
1, 426802, Note_on_c, 0, 57, 58
1, 426829, Note_off_c, 0, 64, 62
1, 426831, Note_off_c, 0, 59, 37
1, 427125, Note_on_c, 0, 64, 63
1, 427127, Note_on_c, 0, 41, 81
1, 427131, Note_on_c, 0, 59, 58
1, 427135, Control_c, 0, 64, 103
1, 427150, Control_c, 0, 64, 88
1, 427164, Control_c, 0, 64, 76
1, 427166, Note_off_c, 0, 66, 38
1, 427168, Note_off_c, 0, 57, 38
1, 427169, Note_off_c, 0, 52, 47
1, 427179, Control_c, 0, 64, 66
1, 427194, Control_c, 0, 64, 62
1, 427209, Control_c, 0, 64, 63
1, 427224, Control_c, 0, 64, 66
1, 427238, Control_c, 0, 64, 70
1, 427252, Control_c, 0, 64, 75
1, 427267, Control_c, 0, 64, 84
1, 427267, Control_c, 0, 67, 127
1, 427282, Control_c, 0, 64, 94
1, 427282, Control_c, 0, 67, 125
1, 427297, Control_c, 0, 64, 105
1, 427297, Control_c, 0, 67, 124
1, 427311, Control_c, 0, 64, 118
1, 427311, Control_c, 0, 67, 123
1, 427326, Control_c, 0, 64, 127
1, 427326, Control_c, 0, 67, 123
1, 427341, Control_c, 0, 67, 121
1, 427356, Control_c, 0, 67, 119
1, 427371, Control_c, 0, 67, 117
1, 427386, Control_c, 0, 67, 116
1, 427401, Control_c, 0, 67, 115
1, 427416, Control_c, 0, 67, 114
1, 427430, Control_c, 0, 67, 112
1, 427445, Control_c, 0, 67, 110
1, 427467, Control_c, 0, 67, 107
1, 427473, Note_on_c, 0, 66, 57
1, 427477, Note_off_c, 0, 59, 50
1, 427482, Control_c, 0, 67, 106
1, 427487, Note_on_c, 0, 57, 52
1, 427497, Control_c, 0, 67, 105
1, 427511, Control_c, 0, 67, 104
1, 427518, Note_off_c, 0, 64, 34
1, 427526, Control_c, 0, 67, 103
1, 427541, Control_c, 0, 67, 102
1, 427556, Control_c, 0, 67, 101
1, 427585, Control_c, 0, 67, 101
1, 427600, Control_c, 0, 67, 100
1, 427615, Control_c, 0, 67, 99
1, 427630, Control_c, 0, 67, 98
1, 427645, Control_c, 0, 67, 97
1, 427660, Control_c, 0, 67, 96
1, 427675, Control_c, 0, 67, 95
1, 427690, Control_c, 0, 67, 93
1, 427704, Control_c, 0, 67, 92
1, 427719, Control_c, 0, 67, 92
1, 427734, Control_c, 0, 67, 91
1, 427749, Control_c, 0, 67, 90
1, 427764, Control_c, 0, 67, 90
1, 427778, Control_c, 0, 67, 89
1, 427787, Note_on_c, 0, 64, 63
1, 427791, Note_on_c, 0, 59, 55
1, 427808, Control_c, 0, 67, 89
1, 427828, Note_off_c, 0, 66, 38
1, 427839, Note_off_c, 0, 57, 37
1, 427893, Note_off_c, 0, 41, 39
1, 427897, Control_c, 0, 67, 88
1, 427911, Control_c, 0, 67, 88
1, 428093, Note_on_c, 0, 66, 59
1, 428105, Note_on_c, 0, 57, 55
1, 428107, Note_on_c, 0, 43, 81
1, 428119, Note_off_c, 0, 59, 54
1, 428134, Control_c, 0, 64, 109
1, 428137, Note_off_c, 0, 64, 55
1, 428149, Control_c, 0, 64, 93
1, 428164, Control_c, 0, 64, 80
1, 428179, Control_c, 0, 64, 68
1, 428194, Control_c, 0, 64, 56
1, 428216, Control_c, 0, 64, 46
1, 428231, Control_c, 0, 64, 52
1, 428246, Control_c, 0, 64, 61
1, 428261, Control_c, 0, 64, 66
1, 428276, Control_c, 0, 64, 72
1, 428290, Control_c, 0, 64, 80
1, 428305, Control_c, 0, 64, 92
1, 428320, Control_c, 0, 64, 108
1, 428334, Control_c, 0, 64, 127
1, 428423, Note_on_c, 0, 64, 64
1, 428423, Note_on_c, 0, 59, 61
1, 428444, Note_off_c, 0, 66, 47
1, 428462, Note_off_c, 0, 57, 47
1, 428527, Control_c, 0, 67, 88
1, 428705, Control_c, 0, 67, 89
1, 428733, Note_on_c, 0, 66, 62
1, 428746, Note_on_c, 0, 57, 56
1, 428750, Note_off_c, 0, 43, 0
1, 428760, Note_off_c, 0, 59, 46
1, 428772, Poly_aftertouch_c, 0, 43, 0
1, 428779, Note_off_c, 0, 64, 51
1, 429054, Note_on_c, 0, 64, 66
1, 429055, Control_c, 0, 64, 111
1, 429056, Note_on_c, 0, 44, 88
1, 429060, Note_on_c, 0, 59, 60
1, 429070, Control_c, 0, 64, 86
1, 429070, Note_off_c, 0, 57, 56
1, 429082, Note_off_c, 0, 66, 55
1, 429084, Control_c, 0, 64, 67
1, 429099, Control_c, 0, 64, 39
1, 429114, Control_c, 0, 64, 40
1, 429129, Control_c, 0, 64, 60
1, 429144, Control_c, 0, 64, 69
1, 429158, Control_c, 0, 64, 81
1, 429173, Control_c, 0, 64, 107
1, 429188, Control_c, 0, 64, 127
1, 429305, Note_off_c, 0, 44, 60
1, 429410, Note_on_c, 0, 66, 59
1, 429422, Note_on_c, 0, 57, 54
1, 429450, Note_off_c, 0, 59, 37
1, 429456, Note_off_c, 0, 64, 51
1, 429774, Control_c, 0, 67, 88
1, 429777, Note_on_c, 0, 64, 57
1, 429780, Note_off_c, 0, 66, 49
1, 429785, Note_on_c, 0, 59, 52
1, 429799, Note_on_c, 0, 25, 79
1, 429812, Note_off_c, 0, 57, 37
1, 429937, Control_c, 0, 67, 89
1, 429981, Control_c, 0, 67, 89
1, 429996, Control_c, 0, 67, 90
1, 430011, Control_c, 0, 67, 90
1, 430144, Control_c, 0, 67, 91
1, 430171, Note_off_c, 0, 64, 56
1, 430174, Control_c, 0, 67, 91
1, 430195, Note_on_c, 0, 66, 54
1, 430203, Control_c, 0, 67, 92
1, 430218, Control_c, 0, 67, 92
1, 430221, Note_on_c, 0, 57, 54
1, 430230, Note_off_c, 0, 59, 55
1, 430232, Note_off_c, 0, 25, 47
1, 430233, Control_c, 0, 67, 93
1, 430277, Control_c, 0, 67, 93
1, 430292, Control_c, 0, 67, 94
1, 430322, Control_c, 0, 67, 94
1, 430346, Note_off_c, 0, 57, 58
1, 430367, Control_c, 0, 67, 95
1, 430411, Control_c, 0, 67, 95
1, 430426, Control_c, 0, 67, 96
1, 430441, Control_c, 0, 67, 96
1, 430464, Control_c, 0, 67, 97
1, 430478, Control_c, 0, 67, 97
1, 430508, Control_c, 0, 67, 98
1, 430523, Control_c, 0, 67, 98
1, 430528, Note_on_c, 0, 67, 64
1, 430533, Note_on_c, 0, 55, 61
1, 430537, Control_c, 0, 67, 99
1, 430552, Control_c, 0, 67, 100
1, 430567, Control_c, 0, 67, 101
1, 430577, Note_off_c, 0, 66, 51
1, 430582, Control_c, 0, 67, 101
1, 430597, Control_c, 0, 67, 102
1, 430611, Control_c, 0, 67, 104
1, 430626, Control_c, 0, 67, 106
1, 430641, Control_c, 0, 67, 107
1, 430656, Control_c, 0, 67, 109
1, 430671, Control_c, 0, 67, 109
1, 430676, Note_off_c, 0, 55, 54
1, 430686, Control_c, 0, 67, 110
1, 430701, Control_c, 0, 67, 111
1, 430775, Control_c, 0, 67, 111
1, 430840, Note_on_c, 0, 69, 63
1, 430848, Control_c, 0, 67, 110
1, 430854, Note_on_c, 0, 57, 55
1, 430859, Note_on_c, 0, 46, 79
1, 430892, Note_off_c, 0, 67, 51
1, 430922, Control_c, 0, 67, 111
1, 430937, Control_c, 0, 67, 111
1, 430952, Control_c, 0, 67, 112
1, 430955, Note_off_c, 0, 69, 56
1, 430967, Control_c, 0, 67, 112
1, 431025, Control_c, 0, 67, 113
1, 431040, Note_off_c, 0, 57, 25
1, 431055, Control_c, 0, 67, 113
1, 431070, Control_c, 0, 67, 114
1, 431085, Control_c, 0, 67, 116
1, 431100, Control_c, 0, 67, 118
1, 431115, Control_c, 0, 67, 120
1, 431129, Control_c, 0, 67, 122
1, 431144, Control_c, 0, 67, 124
1, 431159, Control_c, 0, 67, 125
1, 431174, Control_c, 0, 67, 126
1, 431189, Control_c, 0, 67, 126
1, 431205, Note_on_c, 0, 67, 59
1, 431210, Control_c, 0, 67, 127
1, 431215, Note_on_c, 0, 55, 55
1, 431309, Note_off_c, 0, 55, 60
1, 431541, Note_on_c, 0, 53, 51
1, 431867, Note_on_c, 0, 51, 53
1, 431870, Note_on_c, 0, 44, 58
1, 431883, Note_off_c, 0, 46, 52
1, 431893, Control_c, 0, 64, 106
1, 431908, Control_c, 0, 64, 93
1, 431923, Control_c, 0, 64, 80
1, 431938, Control_c, 0, 64, 70
1, 431959, Control_c, 0, 64, 63
1, 431974, Control_c, 0, 64, 53
1, 431989, Control_c, 0, 64, 51
1, 432003, Control_c, 0, 64, 53
1, 432018, Control_c, 0, 64, 60
1, 432035, Control_c, 0, 64, 65
1, 432049, Control_c, 0, 64, 69
1, 432064, Control_c, 0, 64, 76
1, 432079, Control_c, 0, 64, 84
1, 432094, Control_c, 0, 64, 95
1, 432108, Control_c, 0, 64, 105
1, 432123, Control_c, 0, 64, 112
1, 432138, Control_c, 0, 64, 116
1, 432153, Control_c, 0, 64, 123
1, 432168, Control_c, 0, 64, 127
1, 432203, Note_on_c, 0, 49, 46
1, 432249, Note_off_c, 0, 51, 42
1, 432263, Note_off_c, 0, 53, 38
1, 432278, Note_off_c, 0, 67, 52
1, 432322, Note_off_c, 0, 44, 31
1, 432625, Note_on_c, 0, 67, 39
1, 432642, Control_c, 0, 64, 110
1, 432653, Note_on_c, 0, 50, 37
1, 432657, Control_c, 0, 64, 99
1, 432663, Note_on_c, 0, 43, 36
1, 432672, Control_c, 0, 64, 90
1, 432687, Control_c, 0, 64, 80
1, 432709, Control_c, 0, 64, 70
1, 432716, Note_off_c, 0, 49, 43
1, 432724, Control_c, 0, 64, 62
1, 432739, Control_c, 0, 64, 46
1, 432754, Control_c, 0, 64, 38
1, 432769, Control_c, 0, 64, 38
1, 432783, Control_c, 0, 64, 37
1, 432813, Control_c, 0, 64, 43
1, 432829, Control_c, 0, 64, 55
1, 432844, Control_c, 0, 64, 63
1, 432859, Control_c, 0, 64, 67
1, 432873, Control_c, 0, 64, 71
1, 432888, Control_c, 0, 64, 76
1, 432903, Control_c, 0, 64, 81
1, 432918, Control_c, 0, 64, 84
1, 432932, Control_c, 0, 64, 88
1, 432947, Control_c, 0, 64, 90
1, 432962, Control_c, 0, 64, 92
1, 432977, Control_c, 0, 64, 93
1, 432992, Control_c, 0, 64, 95
1, 433006, Control_c, 0, 64, 95
1, 433021, Control_c, 0, 64, 96
1, 433026, Note_on_c, 0, 65, 37
1, 433055, Note_off_c, 0, 67, 49
1, 433057, Note_on_c, 0, 52, 38
1, 433081, Note_off_c, 0, 50, 42
1, 433332, Control_c, 0, 64, 95
1, 433362, Control_c, 0, 64, 95
1, 433370, Note_on_c, 0, 63, 41
1, 433377, Control_c, 0, 64, 94
1, 433378, Note_on_c, 0, 50, 35
1, 433388, Note_off_c, 0, 52, 35
1, 433406, Control_c, 0, 64, 94
1, 433421, Control_c, 0, 64, 93
1, 433436, Control_c, 0, 64, 92
1, 433450, Note_off_c, 0, 65, 35
1, 433458, Control_c, 0, 64, 91
1, 433473, Control_c, 0, 64, 91
1, 433488, Control_c, 0, 64, 90
1, 433503, Control_c, 0, 64, 90
1, 433517, Control_c, 0, 64, 89
1, 433547, Control_c, 0, 64, 89
1, 433562, Control_c, 0, 64, 88
1, 433577, Control_c, 0, 64, 88
1, 433592, Control_c, 0, 64, 87
1, 433606, Control_c, 0, 64, 87
1, 433622, Control_c, 0, 64, 86
1, 433637, Control_c, 0, 64, 85
1, 433652, Control_c, 0, 64, 85
1, 433667, Control_c, 0, 64, 84
1, 433696, Control_c, 0, 64, 84
1, 433699, Note_on_c, 0, 61, 42
1, 433701, Note_on_c, 0, 52, 31
1, 433711, Control_c, 0, 64, 83
1, 433724, Note_off_c, 0, 50, 48
1, 433726, Control_c, 0, 64, 83
1, 433741, Control_c, 0, 64, 82
1, 433755, Control_c, 0, 64, 82
1, 433770, Control_c, 0, 64, 81
1, 433777, Note_off_c, 0, 63, 40
1, 433785, Control_c, 0, 64, 81
1, 433800, Control_c, 0, 64, 80
1, 433815, Control_c, 0, 64, 79
1, 433829, Control_c, 0, 64, 79
1, 433844, Control_c, 0, 64, 78
1, 433873, Control_c, 0, 64, 78
1, 433903, Control_c, 0, 64, 77
1, 433918, Control_c, 0, 64, 77
1, 433933, Control_c, 0, 64, 76
1, 433962, Control_c, 0, 64, 76
1, 433977, Control_c, 0, 64, 75
1, 434007, Control_c, 0, 64, 74
1, 434020, Note_off_c, 0, 61, 49
1, 434021, Control_c, 0, 64, 74
1, 434024, Note_on_c, 0, 50, 30
1, 434032, Note_on_c, 0, 59, 38
1, 434036, Control_c, 0, 64, 73
1, 434050, Note_off_c, 0, 52, 36
1, 434051, Control_c, 0, 64, 72
1, 434066, Control_c, 0, 64, 71
1, 434081, Control_c, 0, 64, 71
1, 434096, Control_c, 0, 64, 70
1, 434111, Control_c, 0, 64, 69
1, 434140, Control_c, 0, 64, 69
1, 434185, Control_c, 0, 64, 68
1, 434251, Control_c, 0, 64, 68
1, 434310, Control_c, 0, 64, 67
1, 434340, Control_c, 0, 64, 67
1, 434352, Note_on_c, 0, 57, 36
1, 434362, Note_on_c, 0, 52, 24
1, 434381, Note_off_c, 0, 50, 46
1, 434385, Control_c, 0, 64, 66
1, 434427, Note_off_c, 0, 59, 37
1, 434430, Control_c, 0, 64, 66
1, 434549, Control_c, 0, 64, 66
1, 434608, Control_c, 0, 64, 67
1, 434665, Note_on_c, 0, 50, 26
1, 434665, Note_on_c, 0, 55, 42
1, 434667, Control_c, 0, 64, 67
1, 434700, Note_off_c, 0, 52, 41
1, 434711, Control_c, 0, 64, 67
1, 434716, Note_off_c, 0, 57, 33
1, 435011, Note_on_c, 0, 53, 43
1, 435012, Note_on_c, 0, 52, 29
1, 435017, Note_off_c, 0, 50, 48
1, 435027, Note_off_c, 0, 55, 36
1, 435338, Note_on_c, 0, 55, 40
1, 435344, Note_on_c, 0, 50, 27
1, 435351, Note_off_c, 0, 53, 38
1, 435356, Note_off_c, 0, 52, 41
1, 435652, Note_off_c, 0, 55, 50
1, 435658, Note_off_c, 0, 50, 46
1, 435664, Note_on_c, 0, 53, 39
1, 435671, Note_on_c, 0, 48, 31
1, 435975, Note_off_c, 0, 48, 41
1, 435983, Note_on_c, 0, 49, 37
1, 435992, Note_on_c, 0, 55, 41
1, 436030, Note_off_c, 0, 53, 47
1, 436224, Control_c, 0, 64, 66
1, 436301, Note_off_c, 0, 55, 52
1, 436313, Control_c, 0, 64, 67
1, 436328, Note_off_c, 0, 49, 44
1, 436328, Control_c, 0, 64, 69
1, 436331, Note_on_c, 0, 47, 33
1, 436340, Note_on_c, 0, 57, 36
1, 436342, Control_c, 0, 64, 71
1, 436357, Control_c, 0, 64, 73
1, 436372, Control_c, 0, 64, 75
1, 436387, Control_c, 0, 64, 78
1, 436388, Note_off_c, 0, 57, 62
1, 436402, Control_c, 0, 64, 81
1, 436416, Control_c, 0, 64, 83
1, 436431, Control_c, 0, 64, 87
1, 436454, Control_c, 0, 64, 90
1, 436468, Control_c, 0, 64, 94
1, 436483, Control_c, 0, 64, 96
1, 436498, Control_c, 0, 64, 98
1, 436661, Control_c, 0, 64, 97
1, 436675, Control_c, 0, 64, 96
1, 436685, Note_on_c, 0, 48, 40
1, 436690, Control_c, 0, 64, 95
1, 436704, Note_on_c, 0, 49, 76
1, 436705, Control_c, 0, 64, 94
1, 436709, Note_off_c, 0, 47, 42
1, 436720, Control_c, 0, 64, 91
1, 436735, Control_c, 0, 64, 88
1, 436749, Control_c, 0, 64, 85
1, 436764, Control_c, 0, 64, 81
1, 436779, Control_c, 0, 64, 77
1, 436793, Control_c, 0, 64, 74
1, 436808, Control_c, 0, 64, 71
1, 436825, Control_c, 0, 64, 68
1, 436840, Control_c, 0, 64, 66
1, 436898, Control_c, 0, 64, 66
1, 437071, Note_on_c, 0, 47, 33
1, 437074, Note_on_c, 0, 51, 70
1, 437102, Note_off_c, 0, 48, 41
1, 437127, Note_off_c, 0, 49, 61
1, 437151, Control_c, 0, 64, 65
1, 437166, Note_off_c, 0, 43, 42
1, 437394, Note_on_c, 0, 49, 70
1, 437431, Note_on_c, 0, 45, 41
1, 437443, Note_off_c, 0, 47, 42
1, 437447, Note_off_c, 0, 51, 55
1, 437696, Note_off_c, 0, 45, 44
1, 437705, Note_on_c, 0, 51, 64
1, 437715, Note_on_c, 0, 43, 40
1, 437744, Note_off_c, 0, 49, 57
1, 438024, Note_on_c, 0, 49, 64
1, 438042, Note_on_c, 0, 42, 41
1, 438057, Note_off_c, 0, 51, 55
1, 438057, Note_off_c, 0, 43, 42
1, 438114, Control_c, 0, 64, 65
1, 438233, Control_c, 0, 64, 64
1, 438307, Control_c, 0, 64, 64
1, 438341, Note_on_c, 0, 51, 55
1, 438343, Note_off_c, 0, 42, 45
1, 438352, Note_on_c, 0, 41, 27
1, 438359, Note_off_c, 0, 49, 52
1, 438380, Control_c, 0, 64, 63
1, 438646, Note_on_c, 0, 49, 54
1, 438665, Note_on_c, 0, 39, 33
1, 438674, Note_off_c, 0, 51, 49
1, 438692, Note_off_c, 0, 41, 40
1, 438878, Control_c, 0, 64, 63
1, 438983, Note_on_c, 0, 51, 51
1, 438996, Control_c, 0, 64, 62
1, 439004, Note_on_c, 0, 37, 29
1, 439007, Note_off_c, 0, 49, 38
1, 439058, Note_off_c, 0, 39, 42
1, 439308, Control_c, 0, 64, 62
1, 439322, Note_on_c, 0, 53, 49
1, 439322, Note_off_c, 0, 51, 51
1, 439333, Note_off_c, 0, 37, 42
1, 439351, Note_on_c, 0, 36, 34
1, 439367, Control_c, 0, 64, 61
1, 439427, Control_c, 0, 64, 61
1, 439636, Note_off_c, 0, 53, 54
1, 439652, Note_on_c, 0, 51, 45
1, 439804, Control_c, 0, 64, 61
1, 439955, Note_on_c, 0, 49, 43
1, 440009, Note_off_c, 0, 51, 32
1, 440041, Control_c, 0, 64, 62
1, 440145, Control_c, 0, 64, 62
1, 440237, Note_off_c, 0, 49, 60
1, 440286, Control_c, 0, 64, 63
1, 440288, Note_on_c, 0, 47, 37
1, 440299, Note_on_c, 0, 38, 31
1, 440405, Note_off_c, 0, 36, 37
1, 440588, Note_on_c, 0, 46, 38
1, 440639, Note_off_c, 0, 47, 45
1, 440864, Control_c, 0, 64, 63
1, 440909, Note_on_c, 0, 44, 41
1, 440944, Note_off_c, 0, 46, 40
1, 441254, Note_on_c, 0, 42, 32
1, 441279, Note_on_c, 0, 40, 19
1, 441283, Note_off_c, 0, 44, 37
1, 441290, Note_off_c, 0, 38, 35
1, 441585, Note_on_c, 0, 41, 30
1, 441602, Note_off_c, 0, 42, 45
1, 441673, Control_c, 0, 64, 64
1, 441739, Control_c, 0, 64, 64
1, 441873, Control_c, 0, 64, 65
1, 441982, Note_off_c, 0, 40, 43
1, 441990, Note_on_c, 0, 42, 37
1, 441991, Control_c, 0, 64, 64
1, 442004, Note_off_c, 0, 41, 39
1, 442035, Control_c, 0, 64, 64
1, 442094, Control_c, 0, 64, 64
1, 442109, Control_c, 0, 64, 65
1, 442124, Control_c, 0, 64, 65
1, 442139, Control_c, 0, 64, 67
1, 442153, Control_c, 0, 64, 68
1, 442168, Control_c, 0, 64, 69
1, 442183, Control_c, 0, 64, 71
1, 442198, Control_c, 0, 64, 74
1, 442213, Control_c, 0, 64, 76
1, 442228, Control_c, 0, 64, 79
1, 442243, Control_c, 0, 64, 83
1, 442257, Control_c, 0, 64, 86
1, 442272, Control_c, 0, 64, 89
1, 442287, Control_c, 0, 64, 93
1, 442302, Control_c, 0, 64, 97
1, 442317, Control_c, 0, 64, 101
1, 442332, Control_c, 0, 64, 105
1, 442347, Control_c, 0, 64, 110
1, 442361, Control_c, 0, 64, 119
1, 442372, Note_on_c, 0, 31, 31
1, 442376, Control_c, 0, 64, 127
1, 442381, Note_on_c, 0, 41, 20
1, 442512, Note_off_c, 0, 41, 41
1, 442531, Note_off_c, 0, 31, 44
1, 442694, Note_on_c, 0, 31, 31
1, 442724, Note_on_c, 0, 41, 25
1, 442832, Note_off_c, 0, 41, 36
1, 442846, Note_off_c, 0, 31, 41
1, 443004, Note_on_c, 0, 31, 35
1, 443029, Note_on_c, 0, 41, 29
1, 443149, Note_off_c, 0, 41, 41
1, 443158, Note_off_c, 0, 31, 43
1, 443331, Note_on_c, 0, 31, 31
1, 443360, Note_on_c, 0, 41, 16
1, 443367, Note_on_c, 0, 39, 52
1, 443470, Note_off_c, 0, 41, 36
1, 443486, Note_off_c, 0, 31, 42
1, 443521, Note_off_c, 0, 42, 40
1, 443718, Note_on_c, 0, 31, 32
1, 443721, Note_on_c, 0, 41, 23
1, 443856, Note_off_c, 0, 41, 35
1, 443867, Note_off_c, 0, 31, 40
1, 444031, Note_on_c, 0, 31, 36
1, 444046, Note_on_c, 0, 41, 34
1, 444179, Note_off_c, 0, 41, 35
1, 444191, Note_off_c, 0, 31, 31
1, 444356, Note_on_c, 0, 31, 34
1, 444356, Control_c, 0, 64, 121
1, 444371, Control_c, 0, 64, 104
1, 444371, Note_on_c, 0, 41, 20
1, 444378, Note_on_c, 0, 38, 62
1, 444386, Control_c, 0, 64, 94
1, 444401, Control_c, 0, 64, 86
1, 444415, Control_c, 0, 64, 79
1, 444430, Control_c, 0, 64, 72
1, 444445, Control_c, 0, 64, 67
1, 444460, Control_c, 0, 64, 66
1, 444475, Control_c, 0, 64, 67
1, 444489, Control_c, 0, 64, 70
1, 444504, Control_c, 0, 64, 72
1, 444509, Note_off_c, 0, 39, 38
1, 444509, Note_off_c, 0, 41, 44
1, 444518, Note_off_c, 0, 31, 42
1, 444519, Control_c, 0, 64, 76
1, 444534, Control_c, 0, 64, 79
1, 444549, Control_c, 0, 64, 84
1, 444563, Control_c, 0, 64, 90
1, 444578, Control_c, 0, 64, 97
1, 444593, Control_c, 0, 64, 103
1, 444607, Control_c, 0, 64, 109
1, 444622, Control_c, 0, 64, 114
1, 444637, Control_c, 0, 64, 127
1, 444708, Note_on_c, 0, 31, 37
1, 444708, Note_on_c, 0, 41, 38
1, 444845, Note_off_c, 0, 41, 43
1, 444848, Note_off_c, 0, 31, 31
1, 445009, Note_on_c, 0, 31, 43
1, 445029, Note_on_c, 0, 41, 39
1, 445094, Note_off_c, 0, 38, 36
1, 445112, Note_off_c, 0, 41, 51
1, 445150, Note_off_c, 0, 31, 31
1, 445328, Control_c, 0, 64, 108
1, 445332, Note_on_c, 0, 36, 63
1, 445334, Note_on_c, 0, 31, 49
1, 445343, Control_c, 0, 64, 91
1, 445358, Control_c, 0, 64, 81
1, 445373, Control_c, 0, 64, 74
1, 445387, Control_c, 0, 64, 73
1, 445402, Control_c, 0, 64, 76
1, 445410, Note_off_c, 0, 31, 50
1, 445417, Control_c, 0, 64, 81
1, 445438, Control_c, 0, 64, 88
1, 445453, Control_c, 0, 64, 95
1, 445468, Control_c, 0, 64, 103
1, 445483, Control_c, 0, 64, 112
1, 445498, Control_c, 0, 64, 121
1, 445513, Control_c, 0, 64, 127
1, 445642, Note_on_c, 0, 31, 45
1, 445662, Note_on_c, 0, 41, 41
1, 445708, Note_off_c, 0, 31, 49
1, 445716, Note_off_c, 0, 41, 46
1, 445972, Control_c, 0, 64, 103
1, 445987, Control_c, 0, 64, 88
1, 446000, Note_on_c, 0, 31, 32
1, 446000, Note_on_c, 0, 41, 24
1, 446001, Note_on_c, 0, 62, 69
1, 446001, Control_c, 0, 64, 73
1, 446016, Control_c, 0, 64, 64
1, 446031, Control_c, 0, 64, 62
1, 446041, Note_off_c, 0, 36, 56
1, 446046, Control_c, 0, 64, 65
1, 446061, Control_c, 0, 64, 70
1, 446076, Control_c, 0, 64, 76
1, 446082, Note_off_c, 0, 31, 51
1, 446091, Control_c, 0, 64, 88
1, 446106, Control_c, 0, 64, 103
1, 446121, Control_c, 0, 64, 127
1, 446125, Note_off_c, 0, 41, 34
1, 446251, Note_off_c, 0, 62, 52
1, 446335, Note_on_c, 0, 31, 33
1, 446342, Note_on_c, 0, 41, 31
1, 446443, Note_off_c, 0, 31, 37
1, 446456, Note_off_c, 0, 41, 36
1, 446641, Note_on_c, 0, 41, 42
1, 446649, Note_on_c, 0, 31, 40
1, 446728, Note_off_c, 0, 41, 48
1, 446747, Note_off_c, 0, 31, 37
1, 446958, Note_on_c, 0, 31, 35
1, 446968, Note_on_c, 0, 41, 27
1, 447008, Note_off_c, 0, 41, 45
1, 447023, Note_off_c, 0, 31, 43
1, 447287, Note_on_c, 0, 25, 64
1, 447298, Note_on_c, 0, 31, 40
1, 447304, Note_on_c, 0, 41, 32
1, 447343, Note_off_c, 0, 25, 60
1, 447355, Note_off_c, 0, 41, 47
1, 447358, Note_off_c, 0, 31, 51
1, 447609, Note_on_c, 0, 31, 31
1, 447610, Note_on_c, 0, 41, 19
1, 447710, Note_off_c, 0, 31, 38
1, 447731, Note_off_c, 0, 41, 35
1, 447920, Note_on_c, 0, 41, 30
1, 447934, Note_on_c, 0, 31, 31
1, 448029, Note_off_c, 0, 31, 37
1, 448058, Note_off_c, 0, 41, 34
1, 448246, Note_on_c, 0, 41, 33
1, 448259, Note_on_c, 0, 31, 33
1, 448349, Note_off_c, 0, 31, 39
1, 448392, Note_off_c, 0, 41, 34
1, 448575, Note_on_c, 0, 41, 30
1, 448584, Note_on_c, 0, 60, 65
1, 448599, Note_on_c, 0, 31, 33
1, 448613, Note_on_c, 0, 53, 47
1, 448725, Note_off_c, 0, 41, 42
1, 448728, Note_off_c, 0, 31, 33
1, 448893, Note_on_c, 0, 41, 37
1, 448905, Note_on_c, 0, 31, 31
1, 449048, Note_off_c, 0, 41, 42
1, 449064, Note_off_c, 0, 31, 36
1, 449216, Note_on_c, 0, 41, 40
1, 449223, Note_on_c, 0, 31, 41
1, 449286, Note_off_c, 0, 31, 50
1, 449357, Note_off_c, 0, 41, 34
1, 449534, Note_on_c, 0, 41, 35
1, 449538, Note_on_c, 0, 31, 42
1, 449592, Note_off_c, 0, 41, 58
1, 449609, Note_off_c, 0, 31, 57
1, 449900, Note_on_c, 0, 25, 56
1, 449946, Control_c, 0, 64, 114
1, 449961, Control_c, 0, 64, 100
1, 449975, Control_c, 0, 64, 89
1, 449990, Control_c, 0, 64, 77
1, 450005, Control_c, 0, 64, 68
1, 450020, Control_c, 0, 64, 63
1, 450035, Control_c, 0, 64, 62
1, 450050, Control_c, 0, 64, 64
1, 450064, Control_c, 0, 64, 66
1, 450079, Control_c, 0, 64, 70
1, 450094, Control_c, 0, 64, 77
1, 450109, Control_c, 0, 64, 87
1, 450124, Control_c, 0, 64, 100
1, 450139, Control_c, 0, 64, 117
1, 450153, Control_c, 0, 64, 127
1, 450288, Note_on_c, 0, 55, 50
1, 450288, Note_on_c, 0, 62, 52
1, 450299, Note_on_c, 0, 27, 48
1, 450321, Note_off_c, 0, 60, 39
1, 450353, Note_off_c, 0, 25, 41
1, 450363, Note_off_c, 0, 53, 26
1, 450405, Note_off_c, 0, 55, 58
1, 450630, Note_on_c, 0, 60, 65
1, 450653, Note_on_c, 0, 25, 50
1, 450654, Note_on_c, 0, 53, 59
1, 450676, Note_off_c, 0, 62, 53
1, 450711, Note_off_c, 0, 60, 62
1, 450726, Note_off_c, 0, 27, 43
1, 450932, Note_on_c, 0, 59, 66
1, 450948, Note_on_c, 0, 52, 57
1, 450962, Note_on_c, 0, 27, 48
1, 450981, Note_off_c, 0, 53, 39
1, 451000, Note_off_c, 0, 59, 60
1, 451003, Note_off_c, 0, 25, 48
1, 451003, Note_off_c, 0, 52, 59
1, 451245, Control_c, 0, 64, 108
1, 451260, Control_c, 0, 64, 93
1, 451269, Note_on_c, 0, 58, 66
1, 451271, Note_on_c, 0, 50, 55
1, 451274, Control_c, 0, 64, 82
1, 451281, Note_on_c, 0, 25, 50
1, 451289, Control_c, 0, 64, 74
1, 451304, Control_c, 0, 64, 70
1, 451319, Control_c, 0, 64, 72
1, 451334, Control_c, 0, 64, 77
1, 451334, Note_off_c, 0, 27, 49
1, 451348, Control_c, 0, 64, 83
1, 451354, Note_off_c, 0, 58, 59
1, 451363, Control_c, 0, 64, 89
1, 451378, Control_c, 0, 64, 97
1, 451392, Control_c, 0, 64, 104
1, 451407, Control_c, 0, 64, 111
1, 451430, Control_c, 0, 64, 119
1, 451445, Control_c, 0, 64, 127
1, 451531, Note_off_c, 0, 50, 39
1, 451578, Control_c, 0, 64, 106
1, 451593, Note_on_c, 0, 56, 61
1, 451593, Control_c, 0, 64, 88
1, 451602, Note_on_c, 0, 43, 49
1, 451607, Control_c, 0, 64, 75
1, 451619, Note_on_c, 0, 27, 42
1, 451622, Control_c, 0, 64, 69
1, 451652, Control_c, 0, 64, 72
1, 451665, Note_off_c, 0, 25, 50
1, 451667, Control_c, 0, 64, 78
1, 451681, Control_c, 0, 64, 85
1, 451696, Note_off_c, 0, 43, 53
1, 451696, Control_c, 0, 64, 93
1, 451707, Note_off_c, 0, 56, 60
1, 451711, Control_c, 0, 64, 102
1, 451726, Control_c, 0, 64, 107
1, 451741, Control_c, 0, 64, 111
1, 451755, Control_c, 0, 64, 114
1, 451770, Control_c, 0, 64, 120
1, 451785, Control_c, 0, 64, 127
1, 451889, Control_c, 0, 64, 99
1, 451904, Control_c, 0, 64, 84
1, 451913, Note_on_c, 0, 55, 66
1, 451918, Control_c, 0, 64, 73
1, 451923, Note_on_c, 0, 44, 60
1, 451930, Note_on_c, 0, 25, 41
1, 451933, Control_c, 0, 64, 66
1, 451948, Control_c, 0, 64, 67
1, 451963, Control_c, 0, 64, 71
1, 451978, Control_c, 0, 64, 77
1, 451978, Note_off_c, 0, 27, 47
1, 451991, Note_off_c, 0, 55, 63
1, 451993, Control_c, 0, 64, 86
1, 452008, Control_c, 0, 64, 95
1, 452023, Control_c, 0, 64, 103
1, 452038, Control_c, 0, 64, 109
1, 452053, Control_c, 0, 64, 111
1, 452065, Note_off_c, 0, 44, 60
1, 452068, Control_c, 0, 64, 114
1, 452083, Control_c, 0, 64, 120
1, 452097, Control_c, 0, 64, 127
1, 452238, Control_c, 0, 64, 117
1, 452252, Control_c, 0, 64, 108
1, 452267, Control_c, 0, 64, 99
1, 452272, Note_on_c, 0, 53, 66
1, 452279, Note_on_c, 0, 27, 44
1, 452282, Control_c, 0, 64, 89
1, 452285, Note_on_c, 0, 42, 61
1, 452297, Control_c, 0, 64, 80
1, 452312, Control_c, 0, 64, 71
1, 452315, Note_off_c, 0, 25, 44
1, 452327, Control_c, 0, 64, 63
1, 452341, Control_c, 0, 64, 52
1, 452356, Control_c, 0, 64, 45
1, 452371, Control_c, 0, 64, 44
1, 452401, Control_c, 0, 64, 47
1, 452415, Control_c, 0, 64, 56
1, 452430, Control_c, 0, 64, 64
1, 452445, Control_c, 0, 64, 69
1, 452460, Control_c, 0, 64, 77
1, 452475, Control_c, 0, 64, 86
1, 452490, Control_c, 0, 64, 96
1, 452504, Control_c, 0, 64, 104
1, 452519, Control_c, 0, 64, 111
1, 452534, Control_c, 0, 64, 115
1, 452548, Control_c, 0, 64, 119
1, 452554, Note_off_c, 0, 53, 55
1, 452563, Control_c, 0, 64, 127
1, 452580, Note_off_c, 0, 42, 62
1, 452581, Note_on_c, 0, 25, 43
1, 452640, Note_off_c, 0, 27, 35
1, 452889, Control_c, 0, 64, 118
1, 452904, Control_c, 0, 64, 107
1, 452926, Control_c, 0, 64, 97
1, 452929, Note_on_c, 0, 52, 61
1, 452937, Note_on_c, 0, 41, 53
1, 452941, Control_c, 0, 64, 86
1, 452948, Note_on_c, 0, 27, 42
1, 452956, Control_c, 0, 64, 75
1, 452970, Control_c, 0, 64, 63
1, 452977, Note_off_c, 0, 25, 44
1, 452985, Control_c, 0, 64, 0
1, 453133, Control_c, 0, 64, 62
1, 453148, Control_c, 0, 64, 68
1, 453162, Control_c, 0, 64, 73
1, 453177, Control_c, 0, 64, 77
1, 453192, Control_c, 0, 64, 81
1, 453207, Control_c, 0, 64, 84
1, 453222, Control_c, 0, 64, 88
1, 453230, Note_on_c, 0, 25, 35
1, 453235, Note_off_c, 0, 27, 44
1, 453236, Control_c, 0, 64, 92
1, 453251, Control_c, 0, 64, 96
1, 453266, Control_c, 0, 64, 100
1, 453281, Control_c, 0, 64, 103
1, 453296, Control_c, 0, 64, 109
1, 453311, Control_c, 0, 64, 116
1, 453326, Control_c, 0, 64, 127
1, 453436, Note_off_c, 0, 52, 57
1, 453550, Note_on_c, 0, 27, 38
1, 453603, Note_off_c, 0, 25, 39
1, 453636, Note_off_c, 0, 41, 38
1, 453915, Note_on_c, 0, 50, 46
1, 453928, Note_on_c, 0, 25, 35
1, 453934, Note_on_c, 0, 40, 38
1, 453941, Control_c, 0, 64, 115
1, 453956, Control_c, 0, 64, 101
1, 453971, Control_c, 0, 64, 89
1, 453978, Note_off_c, 0, 27, 40
1, 453985, Control_c, 0, 64, 77
1, 454000, Control_c, 0, 64, 67
1, 454015, Control_c, 0, 64, 53
1, 454030, Control_c, 0, 64, 36
1, 454045, Control_c, 0, 64, 36
1, 454059, Control_c, 0, 64, 38
1, 454074, Control_c, 0, 64, 44
1, 454089, Control_c, 0, 64, 52
1, 454104, Control_c, 0, 64, 60
1, 454118, Control_c, 0, 64, 65
1, 454133, Control_c, 0, 64, 68
1, 454148, Control_c, 0, 64, 72
1, 454163, Control_c, 0, 64, 78
1, 454178, Control_c, 0, 64, 82
1, 454193, Control_c, 0, 64, 86
1, 454208, Control_c, 0, 64, 90
1, 454223, Control_c, 0, 64, 92
1, 454238, Control_c, 0, 64, 94
1, 454253, Control_c, 0, 64, 96
1, 454255, Note_on_c, 0, 27, 32
1, 454266, Note_off_c, 0, 25, 40
1, 454268, Control_c, 0, 64, 99
1, 454282, Control_c, 0, 64, 102
1, 454297, Control_c, 0, 64, 104
1, 454312, Control_c, 0, 64, 109
1, 454327, Control_c, 0, 64, 114
1, 454342, Control_c, 0, 64, 126
1, 454357, Control_c, 0, 64, 127
1, 454556, Note_on_c, 0, 25, 30
1, 454607, Note_off_c, 0, 27, 41
1, 454649, Note_off_c, 0, 40, 42
1, 454681, Note_off_c, 0, 50, 38
1, 454873, Note_on_c, 0, 27, 29
1, 454912, Note_off_c, 0, 25, 41
1, 455185, Note_on_c, 0, 25, 30
1, 455224, Note_on_c, 0, 34, 52
1, 455233, Control_c, 0, 64, 114
1, 455247, Control_c, 0, 64, 105
1, 455250, Note_off_c, 0, 27, 42
1, 455262, Control_c, 0, 64, 98
1, 455277, Control_c, 0, 64, 89
1, 455292, Control_c, 0, 64, 81
1, 455307, Control_c, 0, 64, 72
1, 455321, Control_c, 0, 64, 64
1, 455336, Control_c, 0, 64, 62
1, 455351, Control_c, 0, 64, 63
1, 455365, Control_c, 0, 64, 65
1, 455380, Control_c, 0, 64, 67
1, 455395, Control_c, 0, 64, 69
1, 455410, Control_c, 0, 64, 71
1, 455425, Control_c, 0, 64, 74
1, 455439, Control_c, 0, 64, 76
1, 455454, Control_c, 0, 64, 79
1, 455469, Control_c, 0, 64, 81
1, 455484, Control_c, 0, 64, 82
1, 455499, Control_c, 0, 64, 84
1, 455514, Control_c, 0, 64, 85
1, 455528, Control_c, 0, 64, 86
1, 455543, Control_c, 0, 64, 87
1, 455557, Note_on_c, 0, 27, 26
1, 455558, Note_off_c, 0, 25, 41
1, 455736, Control_c, 0, 64, 86
1, 455795, Control_c, 0, 64, 86
1, 455810, Control_c, 0, 64, 85
1, 455825, Control_c, 0, 64, 85
1, 455839, Control_c, 0, 64, 84
1, 455846, Note_on_c, 0, 25, 34
1, 455854, Control_c, 0, 64, 83
1, 455855, Note_off_c, 0, 27, 45
1, 455869, Control_c, 0, 64, 82
1, 455883, Control_c, 0, 64, 81
1, 455898, Control_c, 0, 64, 80
1, 455921, Control_c, 0, 64, 79
1, 455936, Control_c, 0, 64, 79
1, 455951, Control_c, 0, 64, 78
1, 455965, Control_c, 0, 64, 78
1, 456011, Control_c, 0, 64, 77
1, 456056, Control_c, 0, 64, 77
1, 456070, Control_c, 0, 64, 76
1, 456085, Control_c, 0, 64, 76
1, 456100, Control_c, 0, 64, 74
1, 456115, Control_c, 0, 64, 73
1, 456130, Control_c, 0, 64, 70
1, 456144, Control_c, 0, 64, 68
1, 456159, Control_c, 0, 64, 67
1, 456174, Control_c, 0, 64, 66
1, 456178, Note_on_c, 0, 33, 45
1, 456182, Note_off_c, 0, 25, 42
1, 456184, Note_on_c, 0, 27, 27
1, 456188, Control_c, 0, 64, 65
1, 456203, Control_c, 0, 64, 65
1, 456233, Control_c, 0, 64, 64
1, 456238, Note_off_c, 0, 34, 37
1, 456248, Control_c, 0, 64, 64
1, 456366, Control_c, 0, 64, 63
1, 456396, Control_c, 0, 64, 63
1, 456426, Control_c, 0, 64, 62
1, 456440, Control_c, 0, 64, 60
1, 456455, Control_c, 0, 64, 57
1, 456469, Control_c, 0, 64, 53
1, 456479, Note_off_c, 0, 33, 54
1, 456484, Control_c, 0, 64, 49
1, 456499, Control_c, 0, 64, 43
1, 456511, Note_on_c, 0, 34, 37
1, 456513, Control_c, 0, 64, 36
1, 456516, Note_on_c, 0, 25, 30
1, 456528, Control_c, 0, 64, 32
1, 456536, Note_off_c, 0, 27, 45
1, 456558, Control_c, 0, 64, 34
1, 456573, Control_c, 0, 64, 47
1, 456587, Control_c, 0, 64, 59
1, 456602, Control_c, 0, 64, 65
1, 456617, Control_c, 0, 64, 70
1, 456632, Control_c, 0, 64, 76
1, 456647, Control_c, 0, 64, 84
1, 456669, Control_c, 0, 64, 91
1, 456684, Control_c, 0, 64, 98
1, 456699, Control_c, 0, 64, 103
1, 456713, Control_c, 0, 64, 107
1, 456728, Control_c, 0, 64, 110
1, 456729, Note_off_c, 0, 34, 38
1, 456743, Control_c, 0, 64, 114
1, 456758, Control_c, 0, 64, 119
1, 456773, Control_c, 0, 64, 123
1, 456789, Control_c, 0, 64, 124
1, 456804, Control_c, 0, 64, 126
1, 456867, Note_on_c, 0, 27, 37
1, 456885, Note_off_c, 0, 25, 39
1, 456966, Control_c, 0, 64, 124
1, 457084, Control_c, 0, 64, 123
1, 457099, Control_c, 0, 64, 120
1, 457114, Control_c, 0, 64, 118
1, 457129, Control_c, 0, 64, 116
1, 457144, Control_c, 0, 64, 115
1, 457159, Control_c, 0, 64, 114
1, 457174, Control_c, 0, 64, 113
1, 457189, Control_c, 0, 64, 112
1, 457204, Control_c, 0, 64, 109
1, 457215, Note_on_c, 0, 50, 43
1, 457218, Control_c, 0, 64, 104
1, 457228, Note_on_c, 0, 40, 36
1, 457233, Control_c, 0, 64, 98
1, 457248, Control_c, 0, 64, 93
1, 457250, Note_on_c, 0, 25, 33
1, 457254, Note_on_c, 0, 34, 27
1, 457263, Control_c, 0, 64, 88
1, 457278, Control_c, 0, 64, 83
1, 457291, Note_off_c, 0, 27, 42
1, 457292, Control_c, 0, 64, 76
1, 457307, Control_c, 0, 64, 68
1, 457322, Control_c, 0, 64, 62
1, 457336, Control_c, 0, 64, 54
1, 457351, Control_c, 0, 64, 53
1, 457418, Control_c, 0, 64, 53
1, 457433, Control_c, 0, 64, 54
1, 457448, Control_c, 0, 64, 55
1, 457463, Control_c, 0, 64, 56
1, 457492, Control_c, 0, 64, 57
1, 457522, Control_c, 0, 64, 57
1, 457553, Note_off_c, 0, 25, 42
1, 457571, Note_on_c, 0, 27, 31
1, 457612, Control_c, 0, 64, 58
1, 457863, Control_c, 0, 64, 57
1, 457882, Note_on_c, 0, 25, 32
1, 457899, Note_off_c, 0, 27, 48
1, 457938, Control_c, 0, 64, 57
1, 458086, Control_c, 0, 64, 56
1, 458131, Control_c, 0, 64, 56
1, 458146, Control_c, 0, 64, 55
1, 458196, Note_off_c, 0, 25, 42
1, 458197, Control_c, 0, 64, 55
1, 458209, Note_on_c, 0, 27, 29
1, 458360, Control_c, 0, 64, 55
1, 458375, Control_c, 0, 64, 56
1, 458524, Control_c, 0, 64, 56
1, 458539, Control_c, 0, 64, 57
1, 458546, Note_on_c, 0, 52, 37
1, 458554, Control_c, 0, 64, 59
1, 458564, Note_on_c, 0, 25, 24
1, 458566, Note_off_c, 0, 50, 43
1, 458569, Control_c, 0, 64, 62
1, 458570, Note_off_c, 0, 27, 45
1, 458583, Control_c, 0, 64, 64
1, 458598, Control_c, 0, 64, 65
1, 458613, Control_c, 0, 64, 67
1, 458628, Control_c, 0, 64, 69
1, 458643, Control_c, 0, 64, 72
1, 458655, Note_off_c, 0, 34, 44
1, 458657, Control_c, 0, 64, 74
1, 458660, Note_off_c, 0, 40, 40
1, 458672, Control_c, 0, 64, 77
1, 458687, Control_c, 0, 64, 79
1, 458701, Control_c, 0, 64, 80
1, 458716, Control_c, 0, 64, 82
1, 458731, Control_c, 0, 64, 83
1, 458746, Control_c, 0, 64, 84
1, 458761, Control_c, 0, 64, 84
1, 458835, Control_c, 0, 64, 84
1, 458864, Control_c, 0, 64, 82
1, 458877, Note_on_c, 0, 50, 33
1, 458879, Control_c, 0, 64, 80
1, 458894, Control_c, 0, 64, 77
1, 458909, Note_on_c, 0, 27, 34
1, 458914, Note_on_c, 0, 34, 10
1, 458916, Control_c, 0, 64, 74
1, 458920, Note_on_c, 0, 40, 28
1, 458930, Note_off_c, 0, 25, 41
1, 458931, Control_c, 0, 64, 70
1, 458946, Control_c, 0, 64, 66
1, 458961, Control_c, 0, 64, 64
1, 458973, Note_off_c, 0, 52, 40
1, 458976, Control_c, 0, 64, 63
1, 459138, Control_c, 0, 64, 63
1, 459225, Note_on_c, 0, 25, 26
1, 459225, Note_off_c, 0, 27, 47
1, 459273, Control_c, 0, 64, 64
1, 459526, Note_off_c, 0, 25, 42
1, 459548, Note_on_c, 0, 27, 26
1, 459899, Note_off_c, 0, 27, 45
1, 459906, Note_on_c, 0, 25, 21
1, 460223, Note_off_c, 0, 25, 41
1, 460227, Note_on_c, 0, 27, 28
1, 460587, Note_off_c, 0, 27, 45
1, 460589, Note_on_c, 0, 25, 21
1, 460936, Note_off_c, 0, 25, 40
1, 460942, Note_on_c, 0, 27, 18
1, 461385, Note_on_c, 0, 25, 18
1, 461425, Note_off_c, 0, 27, 43
1, 461579, Control_c, 0, 64, 64
1, 461668, Control_c, 0, 64, 65
1, 461726, Control_c, 0, 64, 65
1, 461771, Control_c, 0, 64, 66
1, 461815, Control_c, 0, 64, 66
1, 461860, Control_c, 0, 64, 67
1, 461912, Control_c, 0, 64, 67
1, 461971, Control_c, 0, 64, 68
1, 462030, Control_c, 0, 64, 68
1, 462045, Control_c, 0, 64, 69
1, 462060, Control_c, 0, 64, 69
1, 462075, Control_c, 0, 64, 70
1, 462104, Control_c, 0, 64, 70
1, 462119, Control_c, 0, 64, 71
1, 462134, Control_c, 0, 64, 71
1, 462149, Control_c, 0, 64, 72
1, 462164, Control_c, 0, 64, 72
1, 462194, Control_c, 0, 64, 73
1, 462208, Control_c, 0, 64, 73
1, 462238, Control_c, 0, 64, 74
1, 462253, Control_c, 0, 64, 74
1, 462312, Control_c, 0, 64, 75
1, 462341, Control_c, 0, 64, 75
1, 462356, Control_c, 0, 64, 76
1, 462372, Control_c, 0, 64, 76
1, 462402, Control_c, 0, 64, 77
1, 462417, Control_c, 0, 64, 77
1, 462431, Control_c, 0, 64, 78
1, 462461, Control_c, 0, 64, 78
1, 462476, Control_c, 0, 64, 79
1, 462491, Control_c, 0, 64, 79
1, 462505, Control_c, 0, 64, 80
1, 462520, Control_c, 0, 64, 81
1, 462535, Control_c, 0, 64, 82
1, 462549, Control_c, 0, 64, 83
1, 462564, Control_c, 0, 64, 84
1, 462579, Control_c, 0, 64, 85
1, 462594, Control_c, 0, 64, 85
1, 462609, Control_c, 0, 64, 86
1, 462623, Control_c, 0, 64, 87
1, 462638, Control_c, 0, 64, 88
1, 462661, Control_c, 0, 64, 89
1, 462676, Control_c, 0, 64, 91
1, 462691, Control_c, 0, 64, 92
1, 462705, Control_c, 0, 64, 93
1, 462720, Control_c, 0, 64, 94
1, 462735, Control_c, 0, 64, 95
1, 462750, Control_c, 0, 64, 96
1, 462764, Control_c, 0, 64, 96
1, 462779, Control_c, 0, 64, 98
1, 462794, Control_c, 0, 64, 99
1, 462809, Control_c, 0, 64, 100
1, 462824, Control_c, 0, 64, 101
1, 462838, Control_c, 0, 64, 103
1, 462853, Control_c, 0, 64, 103
1, 462868, Control_c, 0, 64, 104
1, 462882, Control_c, 0, 64, 105
1, 462897, Control_c, 0, 64, 106
1, 462912, Control_c, 0, 64, 108
1, 462927, Control_c, 0, 64, 110
1, 462942, Control_c, 0, 64, 111
1, 462957, Control_c, 0, 64, 113
1, 462972, Control_c, 0, 64, 114
1, 462987, Control_c, 0, 64, 117
1, 463002, Control_c, 0, 64, 119
1, 463016, Control_c, 0, 64, 123
1, 463031, Control_c, 0, 64, 127
1, 463200, Note_off_c, 0, 34, 27
1, 463425, Note_off_c, 0, 40, 18
1, 463518, Note_off_c, 0, 25, 35
1, 464808, Note_off_c, 0, 50, 45
1, 465085, Control_c, 0, 64, 126
1, 465100, Control_c, 0, 64, 121
1, 465115, Control_c, 0, 64, 118
1, 465130, Control_c, 0, 64, 118
1, 465144, Control_c, 0, 64, 117
1, 465159, Control_c, 0, 64, 117
1, 465174, Control_c, 0, 64, 116
1, 465189, Control_c, 0, 64, 114
1, 465204, Control_c, 0, 64, 113
1, 465218, Control_c, 0, 64, 112
1, 465233, Control_c, 0, 64, 111
1, 465248, Control_c, 0, 64, 110
1, 465263, Control_c, 0, 64, 110
1, 465277, Control_c, 0, 64, 109
1, 465292, Control_c, 0, 64, 108
1, 465307, Control_c, 0, 64, 107
1, 465322, Control_c, 0, 64, 106
1, 465337, Control_c, 0, 64, 106
1, 465381, Control_c, 0, 64, 105
1, 465396, Control_c, 0, 64, 104
1, 465411, Control_c, 0, 64, 103
1, 465425, Control_c, 0, 64, 103
1, 465440, Control_c, 0, 64, 102
1, 465455, Control_c, 0, 64, 102
1, 465484, Control_c, 0, 64, 101
1, 465499, Control_c, 0, 64, 100
1, 465514, Control_c, 0, 64, 100
1, 465529, Control_c, 0, 64, 99
1, 465543, Control_c, 0, 64, 98
1, 465574, Control_c, 0, 64, 98
1, 465589, Control_c, 0, 64, 97
1, 465604, Control_c, 0, 64, 97
1, 465619, Control_c, 0, 64, 96
1, 465634, Control_c, 0, 64, 96
1, 465655, Control_c, 0, 64, 95
1, 465670, Control_c, 0, 64, 95
1, 465685, Control_c, 0, 64, 94
1, 465699, Control_c, 0, 64, 93
1, 465714, Control_c, 0, 64, 92
1, 465729, Control_c, 0, 64, 91
1, 465744, Control_c, 0, 64, 90
1, 465759, Control_c, 0, 64, 88
1, 465774, Control_c, 0, 64, 87
1, 465789, Control_c, 0, 64, 85
1, 465804, Control_c, 0, 64, 84
1, 465819, Control_c, 0, 64, 82
1, 465833, Control_c, 0, 64, 81
1, 465848, Control_c, 0, 64, 80
1, 465863, Control_c, 0, 64, 79
1, 465878, Control_c, 0, 64, 77
1, 465893, Control_c, 0, 64, 76
1, 465907, Control_c, 0, 64, 75
1, 465922, Control_c, 0, 64, 74
1, 465937, Control_c, 0, 64, 73
1, 465952, Control_c, 0, 64, 72
1, 465967, Control_c, 0, 64, 71
1, 465981, Control_c, 0, 64, 70
1, 466026, Control_c, 0, 64, 70
1, 466099, Control_c, 0, 64, 69
1, 466144, Control_c, 0, 64, 69
1, 466159, Control_c, 0, 64, 68
1, 466173, Control_c, 0, 64, 68
1, 466188, Control_c, 0, 64, 67
1, 466203, Control_c, 0, 64, 67
1, 466218, Control_c, 0, 64, 66
1, 466233, Control_c, 0, 64, 64
1, 466248, Control_c, 0, 64, 62
1, 466257, Note_on_c, 0, 40, 17
1, 466263, Control_c, 0, 64, 57
1, 466270, Note_on_c, 0, 28, 25
1, 466278, Control_c, 0, 64, 44
1, 466292, Control_c, 0, 64, 17
1, 466307, Control_c, 0, 64, 0
1, 466337, Control_c, 0, 64, 44
1, 466352, Control_c, 0, 64, 61
1, 466367, Control_c, 0, 64, 66
1, 466382, Control_c, 0, 64, 72
1, 466404, Control_c, 0, 64, 78
1, 466415, Note_off_c, 0, 28, 33
1, 466419, Control_c, 0, 64, 86
1, 466434, Control_c, 0, 64, 95
1, 466449, Control_c, 0, 64, 105
1, 466464, Control_c, 0, 64, 119
1, 466478, Control_c, 0, 64, 127
1, 466641, Note_off_c, 0, 40, 40
1, 467442, Note_on_c, 0, 52, 33
1, 467616, Note_off_c, 0, 52, 43
1, 468629, Note_on_c, 0, 83, 76
1, 468650, Control_c, 0, 64, 124
1, 468665, Control_c, 0, 64, 102
1, 468671, Note_on_c, 0, 41, 34
1, 468680, Control_c, 0, 64, 90
1, 468687, Note_on_c, 0, 29, 34
1, 468694, Control_c, 0, 64, 80
1, 468709, Control_c, 0, 64, 70
1, 468724, Control_c, 0, 64, 60
1, 468739, Control_c, 0, 64, 54
1, 468754, Control_c, 0, 64, 58
1, 468770, Control_c, 0, 64, 63
1, 468785, Control_c, 0, 64, 66
1, 468799, Control_c, 0, 64, 69
1, 468814, Control_c, 0, 64, 76
1, 468829, Control_c, 0, 64, 84
1, 468844, Control_c, 0, 64, 94
1, 468859, Control_c, 0, 64, 105
1, 468865, Note_off_c, 0, 29, 40
1, 468873, Control_c, 0, 64, 121
1, 468888, Control_c, 0, 64, 127
1, 469066, Note_off_c, 0, 41, 40
1, 469744, Note_on_c, 0, 52, 33
1, 469893, Note_off_c, 0, 52, 35
1, 470829, Control_c, 0, 64, 110
1, 470841, Note_on_c, 0, 81, 58
1, 470844, Control_c, 0, 64, 100
1, 470859, Control_c, 0, 64, 91
1, 470874, Control_c, 0, 64, 82
1, 470891, Note_on_c, 0, 43, 30
1, 470895, Note_off_c, 0, 83, 57
1, 470896, Control_c, 0, 64, 73
1, 470898, Note_on_c, 0, 31, 29
1, 470911, Control_c, 0, 64, 63
1, 470926, Control_c, 0, 64, 52
1, 470941, Control_c, 0, 64, 50
1, 470956, Control_c, 0, 64, 52
1, 470970, Control_c, 0, 64, 59
1, 470985, Control_c, 0, 64, 64
1, 471000, Control_c, 0, 64, 68
1, 471014, Control_c, 0, 64, 73
1, 471029, Control_c, 0, 64, 79
1, 471044, Control_c, 0, 64, 87
1, 471059, Control_c, 0, 64, 95
1, 471062, Note_off_c, 0, 31, 41
1, 471074, Control_c, 0, 64, 101
1, 471089, Control_c, 0, 64, 107
1, 471104, Control_c, 0, 64, 114
1, 471119, Control_c, 0, 64, 127
1, 471245, Note_on_c, 0, 79, 64
1, 471392, Note_off_c, 0, 81, 21
1, 471414, Note_on_c, 0, 77, 63
1, 471455, Note_off_c, 0, 79, 51
1, 471527, Note_off_c, 0, 77, 59
1, 471551, Note_on_c, 0, 76, 69
1, 471684, Note_on_c, 0, 74, 73
1, 471707, Note_off_c, 0, 76, 52
1, 471808, Control_c, 0, 64, 117
1, 471823, Control_c, 0, 64, 106
1, 471837, Control_c, 0, 64, 97
1, 471847, Note_off_c, 0, 74, 62
1, 471852, Control_c, 0, 64, 88
1, 471856, Note_on_c, 0, 79, 71
1, 471867, Control_c, 0, 64, 76
1, 471871, Note_on_c, 0, 52, 45
1, 471882, Control_c, 0, 64, 67
1, 471897, Control_c, 0, 64, 58
1, 471912, Control_c, 0, 64, 52
1, 471926, Control_c, 0, 64, 56
1, 471941, Control_c, 0, 64, 62
1, 471957, Control_c, 0, 64, 67
1, 471972, Control_c, 0, 64, 72
1, 471987, Control_c, 0, 64, 79
1, 472002, Control_c, 0, 64, 90
1, 472016, Control_c, 0, 64, 103
1, 472031, Control_c, 0, 64, 119
1, 472046, Control_c, 0, 64, 127
1, 472128, Note_off_c, 0, 52, 51
1, 472239, Note_off_c, 0, 43, 39
1, 472867, Note_on_c, 0, 45, 41
1, 472869, Control_c, 0, 64, 119
1, 472877, Note_on_c, 0, 33, 40
1, 472883, Control_c, 0, 64, 98
1, 472898, Control_c, 0, 64, 83
1, 472913, Control_c, 0, 64, 73
1, 472928, Control_c, 0, 64, 66
1, 472958, Control_c, 0, 64, 70
1, 472973, Control_c, 0, 64, 75
1, 472988, Control_c, 0, 64, 83
1, 473003, Control_c, 0, 64, 95
1, 473017, Control_c, 0, 64, 109
1, 473032, Control_c, 0, 64, 127
1, 473054, Note_off_c, 0, 33, 44
1, 473920, Note_on_c, 0, 77, 49
1, 473921, Note_on_c, 0, 52, 38
1, 474004, Note_off_c, 0, 77, 59
1, 474004, Note_off_c, 0, 79, 52
1, 474007, Note_on_c, 0, 76, 61
1, 474034, Note_off_c, 0, 45, 34
1, 474102, Note_off_c, 0, 76, 60
1, 474116, Note_on_c, 0, 77, 61
1, 474932, Note_on_c, 0, 76, 57
1, 474937, Control_c, 0, 64, 109
1, 474949, Note_on_c, 0, 53, 43
1, 474952, Control_c, 0, 64, 94
1, 474967, Control_c, 0, 64, 82
1, 474973, Note_off_c, 0, 52, 42
1, 474982, Control_c, 0, 64, 72
1, 474997, Control_c, 0, 64, 66
1, 475003, Note_off_c, 0, 77, 41
1, 475012, Control_c, 0, 64, 67
1, 475027, Control_c, 0, 64, 71
1, 475041, Control_c, 0, 64, 77
1, 475056, Control_c, 0, 64, 88
1, 475071, Control_c, 0, 64, 109
1, 475086, Control_c, 0, 64, 127
1, 475183, Note_off_c, 0, 53, 38
1, 475862, Note_on_c, 0, 47, 35
1, 475877, Note_on_c, 0, 35, 33
1, 475954, Note_off_c, 0, 35, 51
1, 476172, Note_off_c, 0, 47, 43
1, 476313, Note_on_c, 0, 77, 59
1, 476445, Note_off_c, 0, 76, 36
1, 476770, Note_on_c, 0, 79, 60
1, 476785, Note_off_c, 0, 77, 53
1, 476787, Note_on_c, 0, 55, 48
1, 476792, Control_c, 0, 64, 121
1, 476806, Control_c, 0, 64, 92
1, 476821, Control_c, 0, 64, 78
1, 476836, Control_c, 0, 64, 68
1, 476845, Note_off_c, 0, 79, 59
1, 476851, Control_c, 0, 64, 65
1, 476860, Note_on_c, 0, 81, 62
1, 476866, Control_c, 0, 64, 67
1, 476888, Control_c, 0, 64, 72
1, 476903, Control_c, 0, 64, 81
1, 476918, Control_c, 0, 64, 95
1, 476932, Control_c, 0, 64, 119
1, 476947, Control_c, 0, 64, 127
1, 476958, Note_on_c, 0, 79, 68
1, 476969, Note_off_c, 0, 81, 52
1, 477030, Note_off_c, 0, 55, 54
1, 477030, Note_off_c, 0, 79, 57
1, 477041, Note_on_c, 0, 77, 68
1, 477134, Note_on_c, 0, 79, 75
1, 477146, Note_off_c, 0, 77, 51
1, 477654, Note_on_c, 0, 47, 41
1, 477659, Note_on_c, 0, 35, 38
1, 477789, Note_off_c, 0, 35, 34
1, 477939, Note_off_c, 0, 47, 43
1, 478567, Note_on_c, 0, 57, 53
1, 478577, Control_c, 0, 64, 111
1, 478592, Control_c, 0, 64, 94
1, 478607, Control_c, 0, 64, 83
1, 478622, Control_c, 0, 64, 81
1, 478636, Control_c, 0, 64, 83
1, 478651, Control_c, 0, 64, 88
1, 478666, Control_c, 0, 64, 98
1, 478681, Control_c, 0, 64, 112
1, 478696, Control_c, 0, 64, 127
1, 478812, Note_off_c, 0, 57, 38
1, 479030, Note_on_c, 0, 77, 60
1, 479429, Note_on_c, 0, 76, 65
1, 479456, Note_on_c, 0, 47, 36
1, 479459, Control_c, 0, 64, 104
1, 479461, Note_on_c, 0, 35, 39
1, 479474, Control_c, 0, 64, 89
1, 479489, Control_c, 0, 64, 79
1, 479504, Control_c, 0, 64, 73
1, 479516, Note_off_c, 0, 79, 54
1, 479519, Control_c, 0, 64, 73
1, 479533, Control_c, 0, 64, 76
1, 479548, Control_c, 0, 64, 80
1, 479563, Control_c, 0, 64, 87
1, 479569, Note_off_c, 0, 77, 56
1, 479578, Control_c, 0, 64, 93
1, 479593, Control_c, 0, 64, 102
1, 479607, Control_c, 0, 64, 114
1, 479622, Control_c, 0, 64, 127
1, 479815, Note_on_c, 0, 74, 63
1, 479906, Note_off_c, 0, 47, 44
1, 479911, Note_off_c, 0, 74, 63
1, 480095, Note_on_c, 0, 67, 55
1, 480145, Note_off_c, 0, 67, 55
1, 480154, Note_off_c, 0, 76, 37
1, 480155, Note_on_c, 0, 69, 62
1, 480194, Note_off_c, 0, 69, 58
1, 480222, Control_c, 0, 64, 110
1, 480223, Note_on_c, 0, 71, 64
1, 480237, Control_c, 0, 64, 97
1, 480252, Control_c, 0, 64, 87
1, 480267, Control_c, 0, 64, 76
1, 480280, Note_off_c, 0, 71, 63
1, 480282, Control_c, 0, 64, 67
1, 480293, Note_on_c, 0, 69, 67
1, 480297, Control_c, 0, 64, 51
1, 480309, Note_on_c, 0, 36, 42
1, 480310, Note_on_c, 0, 48, 45
1, 480312, Control_c, 0, 64, 0
1, 480333, Note_off_c, 0, 35, 41
1, 480461, Control_c, 0, 64, 29
1, 480475, Control_c, 0, 64, 63
1, 480490, Control_c, 0, 64, 70
1, 480505, Control_c, 0, 64, 80
1, 480518, Note_off_c, 0, 48, 50
1, 480520, Control_c, 0, 64, 92
1, 480535, Control_c, 0, 64, 107
1, 480549, Control_c, 0, 64, 127
1, 480638, Note_off_c, 0, 36, 40
1, 481197, Note_on_c, 0, 28, 39
1, 481289, Note_off_c, 0, 28, 50
1, 482052, Note_on_c, 0, 71, 50
1, 482061, Control_c, 0, 64, 111
1, 482076, Control_c, 0, 64, 101
1, 482091, Control_c, 0, 64, 92
1, 482096, Note_on_c, 0, 50, 33
1, 482103, Note_off_c, 0, 69, 54
1, 482104, Note_on_c, 0, 38, 32
1, 482106, Control_c, 0, 64, 82
1, 482127, Control_c, 0, 64, 70
1, 482142, Control_c, 0, 64, 58
1, 482157, Control_c, 0, 64, 0
1, 482216, Control_c, 0, 64, 23
1, 482231, Control_c, 0, 64, 60
1, 482246, Control_c, 0, 64, 68
1, 482261, Control_c, 0, 64, 77
1, 482276, Control_c, 0, 64, 89
1, 482291, Control_c, 0, 64, 104
1, 482306, Control_c, 0, 64, 127
1, 482311, Note_off_c, 0, 50, 56
1, 482410, Note_off_c, 0, 38, 39
1, 482542, Note_on_c, 0, 72, 46
1, 482617, Note_off_c, 0, 71, 49
1, 482950, Note_on_c, 0, 74, 51
1, 482965, Control_c, 0, 64, 110
1, 482980, Note_off_c, 0, 72, 53
1, 482980, Control_c, 0, 64, 88
1, 482985, Note_on_c, 0, 28, 39
1, 482995, Control_c, 0, 64, 76
1, 483009, Control_c, 0, 64, 69
1, 483039, Control_c, 0, 64, 73
1, 483054, Control_c, 0, 64, 79
1, 483069, Control_c, 0, 64, 89
1, 483084, Control_c, 0, 64, 106
1, 483099, Control_c, 0, 64, 127
1, 483234, Note_off_c, 0, 28, 39
1, 483841, Note_on_c, 0, 76, 46
1, 483865, Note_on_c, 0, 52, 36
1, 483874, Note_on_c, 0, 40, 36
1, 483878, Control_c, 0, 64, 112
1, 483881, Note_off_c, 0, 74, 45
1, 483892, Control_c, 0, 64, 93
1, 483907, Control_c, 0, 64, 80
1, 483922, Control_c, 0, 64, 69
1, 483938, Control_c, 0, 64, 62
1, 483953, Control_c, 0, 64, 63
1, 483968, Control_c, 0, 64, 66
1, 483983, Control_c, 0, 64, 70
1, 483997, Control_c, 0, 64, 77
1, 484012, Control_c, 0, 64, 86
1, 484027, Control_c, 0, 64, 102
1, 484041, Control_c, 0, 64, 127
1, 484225, Note_off_c, 0, 40, 43
1, 484347, Note_off_c, 0, 52, 37
1, 484693, Note_on_c, 0, 69, 46
1, 484730, Control_c, 0, 64, 114
1, 484736, Note_on_c, 0, 53, 39
1, 484738, Note_on_c, 0, 41, 39
1, 484746, Control_c, 0, 64, 98
1, 484761, Control_c, 0, 64, 87
1, 484776, Control_c, 0, 64, 81
1, 484790, Control_c, 0, 64, 77
1, 484805, Control_c, 0, 64, 78
1, 484809, Note_off_c, 0, 76, 32
1, 484820, Control_c, 0, 64, 82
1, 484835, Control_c, 0, 64, 88
1, 484850, Control_c, 0, 64, 96
1, 484865, Control_c, 0, 64, 107
1, 484879, Control_c, 0, 64, 127
1, 485063, Note_off_c, 0, 41, 40
1, 485141, Note_on_c, 0, 71, 65
1, 485160, Note_off_c, 0, 53, 46
1, 485264, Note_off_c, 0, 69, 37
1, 485514, Note_on_c, 0, 72, 68
1, 485524, Control_c, 0, 64, 112
1, 485529, Note_on_c, 0, 55, 50
1, 485535, Note_on_c, 0, 43, 49
1, 485540, Control_c, 0, 64, 96
1, 485555, Control_c, 0, 64, 82
1, 485569, Note_off_c, 0, 71, 59
1, 485569, Control_c, 0, 64, 71
1, 485584, Control_c, 0, 64, 63
1, 485599, Control_c, 0, 64, 58
1, 485613, Control_c, 0, 64, 61
1, 485628, Control_c, 0, 64, 65
1, 485642, Control_c, 0, 64, 70
1, 485657, Control_c, 0, 64, 78
1, 485672, Control_c, 0, 64, 89
1, 485686, Control_c, 0, 64, 105
1, 485701, Control_c, 0, 64, 127
1, 485915, Note_off_c, 0, 43, 43
1, 485922, Note_on_c, 0, 71, 70
1, 485966, Note_off_c, 0, 55, 34
1, 485979, Note_off_c, 0, 72, 55
1, 486272, Control_c, 0, 64, 123
1, 486286, Control_c, 0, 64, 96
1, 486288, Note_on_c, 0, 72, 77
1, 486301, Control_c, 0, 64, 78
1, 486307, Note_on_c, 0, 57, 48
1, 486308, Note_on_c, 0, 45, 52
1, 486316, Control_c, 0, 64, 66
1, 486331, Control_c, 0, 64, 56
1, 486333, Note_off_c, 0, 71, 57
1, 486347, Control_c, 0, 64, 57
1, 486362, Control_c, 0, 64, 63
1, 486377, Control_c, 0, 64, 68
1, 486392, Control_c, 0, 64, 74
1, 486407, Control_c, 0, 64, 84
1, 486422, Control_c, 0, 64, 98
1, 486436, Control_c, 0, 64, 120
1, 486440, Note_off_c, 0, 57, 58
1, 486451, Control_c, 0, 64, 127
1, 486549, Note_off_c, 0, 45, 62
1, 486680, Note_on_c, 0, 74, 77
1, 486726, Note_off_c, 0, 72, 59
1, 486786, Note_off_c, 0, 74, 63
1, 487129, Note_on_c, 0, 76, 77
1, 487141, Control_c, 0, 64, 110
1, 487156, Note_on_c, 0, 40, 50
1, 487156, Control_c, 0, 64, 86
1, 487158, Note_on_c, 0, 28, 50
1, 487171, Control_c, 0, 64, 71
1, 487185, Control_c, 0, 64, 58
1, 487200, Control_c, 0, 64, 44
1, 487215, Control_c, 0, 64, 54
1, 487230, Control_c, 0, 64, 64
1, 487245, Control_c, 0, 64, 70
1, 487259, Control_c, 0, 64, 82
1, 487274, Control_c, 0, 64, 98
1, 487289, Control_c, 0, 64, 127
1, 487341, Note_off_c, 0, 28, 41
1, 487440, Note_off_c, 0, 40, 51
1, 487627, Note_on_c, 0, 83, 75
1, 487976, Note_on_c, 0, 57, 41
1, 487999, Note_on_c, 0, 81, 83
1, 488137, Note_off_c, 0, 83, 37
1, 488156, Note_off_c, 0, 57, 52
1, 488228, Note_off_c, 0, 76, 51
1, 488359, Note_on_c, 0, 79, 91
1, 488428, Note_off_c, 0, 81, 58
1, 488786, Control_c, 0, 64, 115
1, 488790, Note_on_c, 0, 84, 86
1, 488801, Control_c, 0, 64, 94
1, 488816, Control_c, 0, 64, 79
1, 488820, Note_on_c, 0, 41, 47
1, 488825, Note_on_c, 0, 29, 46
1, 488831, Control_c, 0, 64, 65
1, 488833, Note_off_c, 0, 79, 62
1, 488846, Control_c, 0, 64, 0
1, 488868, Control_c, 0, 67, 127
1, 488912, Control_c, 0, 64, 36
1, 488927, Control_c, 0, 64, 64
1, 488927, Control_c, 0, 67, 126
1, 488942, Control_c, 0, 64, 74
1, 488957, Control_c, 0, 64, 89
1, 488957, Control_c, 0, 67, 126
1, 488971, Control_c, 0, 64, 127
1, 489001, Control_c, 0, 67, 125
1, 489016, Control_c, 0, 67, 125
1, 489031, Control_c, 0, 67, 123
1, 489046, Control_c, 0, 67, 121
1, 489061, Control_c, 0, 67, 119
1, 489076, Control_c, 0, 67, 118
1, 489090, Control_c, 0, 67, 116
1, 489105, Control_c, 0, 67, 114
1, 489106, Note_off_c, 0, 29, 43
1, 489120, Control_c, 0, 67, 113
1, 489135, Control_c, 0, 67, 110
1, 489150, Control_c, 0, 67, 108
1, 489164, Control_c, 0, 67, 107
1, 489179, Control_c, 0, 67, 106
1, 489194, Control_c, 0, 67, 106
1, 489209, Control_c, 0, 67, 105
1, 489253, Note_off_c, 0, 41, 40
1, 489356, Control_c, 0, 67, 106
1, 489386, Control_c, 0, 67, 106
1, 489460, Control_c, 0, 67, 107
1, 489505, Control_c, 0, 67, 107
1, 489535, Control_c, 0, 67, 108
1, 489565, Control_c, 0, 67, 109
1, 489594, Control_c, 0, 67, 109
1, 489632, Control_c, 0, 67, 110
1, 489647, Control_c, 0, 67, 110
1, 489706, Control_c, 0, 67, 111
1, 489708, Note_on_c, 0, 57, 41
1, 489721, Control_c, 0, 67, 113
1, 489735, Control_c, 0, 67, 113
1, 489750, Control_c, 0, 67, 114
1, 489765, Control_c, 0, 67, 115
1, 489775, Note_off_c, 0, 57, 58
1, 489780, Control_c, 0, 67, 115
1, 489794, Control_c, 0, 67, 117
1, 489809, Control_c, 0, 67, 118
1, 489824, Control_c, 0, 67, 119
1, 489839, Control_c, 0, 67, 121
1, 489854, Control_c, 0, 67, 123
1, 489868, Control_c, 0, 67, 125
1, 489883, Control_c, 0, 67, 127
1, 490178, Note_on_c, 0, 83, 69
1, 490257, Note_on_c, 0, 81, 76
1, 490283, Note_off_c, 0, 83, 61
1, 490293, Note_off_c, 0, 84, 60
1, 490318, Note_off_c, 0, 81, 61
1, 490336, Note_on_c, 0, 79, 76
1, 490420, Note_off_c, 0, 79, 57
1, 490423, Note_on_c, 0, 81, 80
1, 490440, Control_c, 0, 64, 126
1, 490455, Control_c, 0, 64, 106
1, 490470, Control_c, 0, 64, 95
1, 490484, Control_c, 0, 64, 85
1, 490497, Note_off_c, 0, 81, 58
1, 490499, Control_c, 0, 64, 71
1, 490509, Note_on_c, 0, 83, 80
1, 490514, Control_c, 0, 64, 38
1, 490529, Control_c, 0, 64, 0
1, 490536, Note_on_c, 0, 31, 38
1, 490540, Note_on_c, 0, 43, 36
1, 490632, Control_c, 0, 64, 63
1, 490647, Control_c, 0, 64, 74
1, 490662, Control_c, 0, 64, 88
1, 490677, Control_c, 0, 64, 114
1, 490691, Control_c, 0, 64, 127
1, 490744, Note_off_c, 0, 31, 43
1, 490872, Note_off_c, 0, 43, 41
1, 491381, Note_on_c, 0, 57, 37
1, 491475, Note_off_c, 0, 57, 52
1, 491828, Note_on_c, 0, 81, 46
1, 491965, Note_on_c, 0, 79, 57
1, 491988, Note_off_c, 0, 81, 38
1, 492033, Note_off_c, 0, 79, 53
1, 492062, Note_on_c, 0, 77, 57
1, 492094, Note_off_c, 0, 83, 36
1, 492102, Note_off_c, 0, 77, 55
1, 492156, Note_on_c, 0, 79, 57
1, 492217, Control_c, 0, 64, 118
1, 492232, Note_off_c, 0, 79, 58
1, 492232, Control_c, 0, 64, 99
1, 492247, Control_c, 0, 64, 85
1, 492255, Note_on_c, 0, 81, 52
1, 492262, Control_c, 0, 64, 72
1, 492263, Note_on_c, 0, 45, 30
1, 492271, Note_on_c, 0, 33, 26
1, 492277, Control_c, 0, 64, 58
1, 492292, Control_c, 0, 64, 0
1, 492336, Control_c, 0, 64, 33
1, 492351, Control_c, 0, 64, 60
1, 492366, Control_c, 0, 64, 67
1, 492380, Control_c, 0, 64, 75
1, 492395, Control_c, 0, 64, 89
1, 492410, Control_c, 0, 64, 109
1, 492425, Control_c, 0, 64, 127
1, 492487, Note_off_c, 0, 33, 36
1, 492629, Note_off_c, 0, 45, 42
1, 493094, Note_on_c, 0, 57, 35
1, 493177, Note_off_c, 0, 57, 57
1, 493986, Note_on_c, 0, 47, 33
1, 493997, Control_c, 0, 64, 116
1, 494012, Note_on_c, 0, 35, 32
1, 494012, Control_c, 0, 64, 97
1, 494027, Control_c, 0, 64, 83
1, 494042, Control_c, 0, 64, 71
1, 494057, Control_c, 0, 64, 62
1, 494072, Control_c, 0, 64, 57
1, 494086, Control_c, 0, 64, 63
1, 494108, Control_c, 0, 64, 70
1, 494123, Control_c, 0, 64, 78
1, 494138, Control_c, 0, 64, 91
1, 494152, Control_c, 0, 64, 112
1, 494167, Control_c, 0, 64, 127
1, 494247, Note_off_c, 0, 35, 41
1, 494384, Note_off_c, 0, 47, 42
1, 494427, Note_on_c, 0, 83, 53
1, 494469, Note_off_c, 0, 81, 51
1, 494867, Note_on_c, 0, 81, 61
1, 494870, Note_on_c, 0, 57, 33
1, 495028, Note_off_c, 0, 57, 36
1, 495261, Note_on_c, 0, 79, 72
1, 495669, Note_on_c, 0, 77, 70
1, 495680, Control_c, 0, 64, 104
1, 495692, Note_on_c, 0, 36, 42
1, 495695, Control_c, 0, 64, 91
1, 495699, Note_on_c, 0, 48, 40
1, 495710, Control_c, 0, 64, 78
1, 495724, Control_c, 0, 64, 65
1, 495739, Control_c, 0, 64, 45
1, 495754, Control_c, 0, 64, 29
1, 495769, Control_c, 0, 64, 39
1, 495780, Note_off_c, 0, 81, 37
1, 495784, Control_c, 0, 64, 55
1, 495798, Control_c, 0, 64, 64
1, 495803, Note_off_c, 0, 79, 39
1, 495803, Note_off_c, 0, 83, 36
1, 495813, Control_c, 0, 64, 71
1, 495828, Control_c, 0, 64, 78
1, 495843, Control_c, 0, 64, 89
1, 495856, Note_off_c, 0, 36, 37
1, 495858, Control_c, 0, 64, 103
1, 495872, Control_c, 0, 64, 127
1, 496054, Note_off_c, 0, 77, 61
1, 496072, Note_on_c, 0, 76, 68
1, 496459, Control_c, 0, 64, 113
1, 496474, Control_c, 0, 64, 95
1, 496474, Note_on_c, 0, 71, 62
1, 496489, Control_c, 0, 64, 79
1, 496502, Note_on_c, 0, 57, 35
1, 496503, Control_c, 0, 64, 67
1, 496518, Control_c, 0, 64, 49
1, 496533, Control_c, 0, 64, 0
1, 496546, Note_off_c, 0, 76, 53
1, 496562, Control_c, 0, 64, 34
1, 496577, Control_c, 0, 64, 58
1, 496592, Control_c, 0, 64, 66
1, 496607, Control_c, 0, 64, 72
1, 496621, Control_c, 0, 64, 81
1, 496636, Control_c, 0, 64, 92
1, 496651, Control_c, 0, 64, 107
1, 496666, Control_c, 0, 64, 127
1, 496761, Note_off_c, 0, 57, 37
1, 496842, Note_off_c, 0, 48, 41
1, 496871, Note_on_c, 0, 72, 58
1, 496909, Note_off_c, 0, 71, 53
1, 497321, Note_on_c, 0, 74, 47
1, 497324, Note_off_c, 0, 72, 48
1, 497326, Control_c, 0, 64, 120
1, 497341, Control_c, 0, 64, 101
1, 497356, Control_c, 0, 64, 90
1, 497363, Note_on_c, 0, 50, 36
1, 497370, Control_c, 0, 64, 78
1, 497371, Note_on_c, 0, 38, 31
1, 497385, Control_c, 0, 64, 67
1, 497400, Control_c, 0, 64, 49
1, 497415, Control_c, 0, 64, 0
1, 497444, Control_c, 0, 64, 31
1, 497459, Control_c, 0, 64, 56
1, 497474, Control_c, 0, 64, 65
1, 497489, Control_c, 0, 64, 71
1, 497503, Control_c, 0, 64, 80
1, 497520, Control_c, 0, 64, 91
1, 497535, Control_c, 0, 64, 106
1, 497549, Control_c, 0, 64, 127
1, 497566, Note_off_c, 0, 38, 43
1, 497795, Note_off_c, 0, 74, 36
1, 497848, Note_on_c, 0, 64, 37
1, 498238, Control_c, 0, 64, 111
1, 498239, Note_on_c, 0, 65, 42
1, 498253, Control_c, 0, 64, 95
1, 498261, Note_on_c, 0, 57, 27
1, 498267, Control_c, 0, 64, 84
1, 498282, Control_c, 0, 64, 79
1, 498287, Note_off_c, 0, 64, 37
1, 498312, Control_c, 0, 64, 83
1, 498328, Control_c, 0, 64, 89
1, 498342, Control_c, 0, 64, 99
1, 498357, Control_c, 0, 64, 114
1, 498372, Control_c, 0, 64, 127
1, 498543, Note_off_c, 0, 57, 42
1, 498642, Note_on_c, 0, 67, 41
1, 498656, Note_off_c, 0, 50, 47
1, 498685, Note_off_c, 0, 65, 32
1, 498713, Note_off_c, 0, 67, 60
1, 498876, Note_on_c, 0, 69, 48
1, 498936, Note_off_c, 0, 69, 52
1, 498957, Note_on_c, 0, 71, 44
1, 498998, Note_off_c, 0, 71, 63
1, 499025, Note_on_c, 0, 72, 46
1, 499059, Note_off_c, 0, 72, 61
1, 499091, Note_on_c, 0, 74, 44
1, 499149, Note_on_c, 0, 40, 32
1, 499151, Note_off_c, 0, 74, 56
1, 499151, Control_c, 0, 64, 108
1, 499153, Note_on_c, 0, 52, 35
1, 499156, Note_on_c, 0, 72, 49
1, 499166, Control_c, 0, 64, 96
1, 499181, Control_c, 0, 64, 85
1, 499196, Control_c, 0, 64, 73
1, 499211, Control_c, 0, 64, 62
1, 499226, Control_c, 0, 64, 0
1, 499324, Note_off_c, 0, 72, 55
1, 499329, Control_c, 0, 64, 58
1, 499351, Control_c, 0, 64, 66
1, 499366, Control_c, 0, 64, 72
1, 499367, Note_on_c, 0, 71, 47
1, 499381, Control_c, 0, 64, 77
1, 499395, Control_c, 0, 64, 82
1, 499410, Control_c, 0, 64, 85
1, 499425, Control_c, 0, 64, 87
1, 499440, Control_c, 0, 64, 87
1, 499455, Control_c, 0, 64, 88
1, 499470, Control_c, 0, 64, 88
1, 499480, Note_off_c, 0, 40, 41
1, 499485, Control_c, 0, 64, 89
1, 499499, Control_c, 0, 64, 92
1, 499514, Control_c, 0, 64, 94
1, 499524, Note_off_c, 0, 71, 59
1, 499529, Control_c, 0, 64, 96
1, 499544, Control_c, 0, 64, 98
1, 499553, Note_on_c, 0, 72, 50
1, 499559, Control_c, 0, 64, 101
1, 499573, Control_c, 0, 64, 105
1, 499588, Control_c, 0, 64, 110
1, 499603, Control_c, 0, 64, 120
1, 499618, Control_c, 0, 64, 127
1, 499987, Note_on_c, 0, 57, 30
1, 500122, Note_off_c, 0, 52, 37
1, 500171, Note_off_c, 0, 57, 36
1, 500401, Note_on_c, 0, 74, 48
1, 500550, Note_off_c, 0, 72, 35
1, 500817, Note_on_c, 0, 76, 57
1, 500847, Note_on_c, 0, 53, 38
1, 500848, Control_c, 0, 64, 111
1, 500849, Note_on_c, 0, 41, 43
1, 500863, Control_c, 0, 64, 95
1, 500871, Note_off_c, 0, 74, 58
1, 500878, Control_c, 0, 64, 83
1, 500892, Control_c, 0, 64, 72
1, 500907, Control_c, 0, 64, 65
1, 500922, Control_c, 0, 64, 63
1, 500937, Control_c, 0, 64, 65
1, 500951, Control_c, 0, 64, 70
1, 500966, Control_c, 0, 64, 76
1, 500981, Control_c, 0, 64, 84
1, 500996, Control_c, 0, 64, 97
1, 501011, Control_c, 0, 64, 118
1, 501026, Control_c, 0, 64, 127
1, 501041, Note_off_c, 0, 41, 39
1, 501272, Note_on_c, 0, 77, 63
1, 501443, Note_off_c, 0, 76, 26
1, 501683, Note_on_c, 0, 79, 67
1, 501686, Control_c, 0, 64, 103
1, 501700, Control_c, 0, 64, 89
1, 501710, Note_on_c, 0, 57, 41
1, 501715, Control_c, 0, 64, 79
1, 501730, Control_c, 0, 64, 75
1, 501736, Note_off_c, 0, 77, 51
1, 501745, Control_c, 0, 64, 76
1, 501759, Control_c, 0, 64, 81
1, 501774, Control_c, 0, 64, 88
1, 501789, Control_c, 0, 64, 98
1, 501804, Control_c, 0, 64, 119
1, 501819, Control_c, 0, 64, 127
1, 501999, Note_off_c, 0, 57, 50
1, 502049, Note_off_c, 0, 53, 48
1, 502085, Note_on_c, 0, 77, 68
1, 502173, Note_off_c, 0, 79, 54
1, 502493, Note_on_c, 0, 79, 68
1, 502524, Control_c, 0, 64, 103
1, 502530, Note_on_c, 0, 43, 48
1, 502531, Note_on_c, 0, 55, 49
1, 502534, Note_off_c, 0, 77, 59
1, 502539, Control_c, 0, 64, 89
1, 502554, Control_c, 0, 64, 77
1, 502569, Control_c, 0, 64, 65
1, 502583, Control_c, 0, 64, 46
1, 502598, Control_c, 0, 64, 23
1, 502613, Control_c, 0, 64, 29
1, 502628, Control_c, 0, 64, 52
1, 502643, Control_c, 0, 64, 64
1, 502658, Control_c, 0, 64, 72
1, 502672, Control_c, 0, 64, 83
1, 502687, Control_c, 0, 64, 101
1, 502700, Note_off_c, 0, 43, 55
1, 502702, Control_c, 0, 64, 127
1, 502916, Note_on_c, 0, 74, 65
1, 503329, Note_on_c, 0, 76, 79
1, 503359, Note_on_c, 0, 59, 44
1, 503390, Note_off_c, 0, 74, 54
1, 503429, Note_off_c, 0, 55, 36
1, 503492, Note_off_c, 0, 79, 55
1, 503548, Note_off_c, 0, 59, 49
1, 503718, Note_on_c, 0, 77, 85
1, 503782, Note_off_c, 0, 76, 59
1, 504130, Note_on_c, 0, 57, 41
1, 504135, Note_on_c, 0, 45, 46
1, 504139, Control_c, 0, 64, 103
1, 504154, Control_c, 0, 64, 88
1, 504164, Note_on_c, 0, 79, 86
1, 504169, Control_c, 0, 64, 75
1, 504184, Control_c, 0, 64, 62
1, 504186, Note_off_c, 0, 77, 60
1, 504199, Control_c, 0, 64, 32
1, 504214, Control_c, 0, 64, 26
1, 504229, Control_c, 0, 64, 42
1, 504243, Control_c, 0, 64, 58
1, 504258, Control_c, 0, 64, 66
1, 504273, Control_c, 0, 64, 74
1, 504287, Control_c, 0, 64, 85
1, 504302, Control_c, 0, 64, 102
1, 504317, Control_c, 0, 64, 127
1, 504325, Note_off_c, 0, 45, 36
1, 504624, Note_on_c, 0, 81, 83
1, 504734, Note_off_c, 0, 79, 39
1, 504998, Note_on_c, 0, 83, 89
1, 505026, Note_on_c, 0, 60, 51
1, 505130, Note_off_c, 0, 81, 56
1, 505155, Note_off_c, 0, 57, 36
1, 505399, Note_on_c, 0, 84, 88
1, 505465, Note_off_c, 0, 83, 61
1, 505602, Note_off_c, 0, 84, 53
1, 505875, Note_on_c, 0, 62, 33
1, 505930, Note_off_c, 0, 60, 59
1, 505961, Note_on_c, 0, 84, 73
1, 505964, Control_c, 0, 64, 110
1, 505979, Control_c, 0, 64, 92
1, 505994, Control_c, 0, 64, 75
1, 506008, Control_c, 0, 64, 60
1, 506023, Control_c, 0, 64, 0
1, 506059, Note_on_c, 0, 83, 75
1, 506070, Note_off_c, 0, 84, 61
1, 506164, Control_c, 0, 64, 49
1, 506165, Note_on_c, 0, 84, 78
1, 506175, Note_off_c, 0, 83, 63
1, 506179, Control_c, 0, 64, 67
1, 506194, Control_c, 0, 64, 75
1, 506208, Control_c, 0, 64, 87
1, 506223, Control_c, 0, 64, 107
1, 506233, Note_off_c, 0, 62, 52
1, 506238, Control_c, 0, 64, 127
1, 506954, Note_on_c, 0, 40, 28
1, 506961, Note_on_c, 0, 28, 29
1, 507040, Note_off_c, 0, 28, 48
1, 507087, Note_off_c, 0, 40, 35
1, 507868, Control_c, 0, 64, 110
1, 507875, Note_on_c, 0, 83, 47
1, 507883, Control_c, 0, 64, 93
1, 507898, Control_c, 0, 64, 76
1, 507907, Note_off_c, 0, 84, 48
1, 507911, Note_on_c, 0, 62, 33
1, 507914, Control_c, 0, 64, 64
1, 507928, Control_c, 0, 64, 23
1, 507932, Note_off_c, 0, 83, 0
1, 507932, Note_on_c, 0, 83, 14
1, 507943, Control_c, 0, 64, 0
1, 507958, Control_c, 0, 64, 42
1, 507973, Control_c, 0, 64, 61
1, 507988, Control_c, 0, 64, 69
1, 508002, Control_c, 0, 64, 77
1, 508017, Control_c, 0, 64, 87
1, 508032, Control_c, 0, 64, 99
1, 508047, Control_c, 0, 64, 113
1, 508061, Control_c, 0, 64, 127
1, 508087, Note_off_c, 0, 62, 40
1, 508088, Note_on_c, 0, 81, 43
1, 508144, Note_off_c, 0, 83, 40
1, 508168, Note_off_c, 0, 81, 61
1, 508186, Note_on_c, 0, 79, 46
1, 508216, Note_off_c, 0, 79, 54
1, 508286, Note_on_c, 0, 77, 25
1, 508329, Note_off_c, 0, 77, 51
1, 508363, Note_on_c, 0, 76, 59
1, 508444, Note_off_c, 0, 76, 41
1, 508451, Note_on_c, 0, 79, 57
1, 508525, Note_off_c, 0, 79, 58
1, 508535, Note_on_c, 0, 69, 56
1, 508598, Note_off_c, 0, 69, 47
1, 508616, Note_on_c, 0, 71, 58
1, 508648, Note_off_c, 0, 71, 65
1, 508691, Control_c, 0, 64, 107
1, 508707, Control_c, 0, 64, 89
1, 508711, Note_on_c, 0, 29, 39
1, 508711, Note_on_c, 0, 41, 37
1, 508716, Note_on_c, 0, 72, 61
1, 508722, Control_c, 0, 64, 74
1, 508737, Control_c, 0, 64, 62
1, 508751, Control_c, 0, 64, 54
1, 508752, Note_off_c, 0, 72, 59
1, 508766, Control_c, 0, 64, 59
1, 508781, Control_c, 0, 64, 64
1, 508795, Note_on_c, 0, 74, 63
1, 508796, Control_c, 0, 64, 69
1, 508811, Control_c, 0, 64, 75
1, 508825, Control_c, 0, 64, 83
1, 508840, Control_c, 0, 64, 93
1, 508856, Control_c, 0, 64, 101
1, 508857, Note_off_c, 0, 74, 48
1, 508871, Control_c, 0, 64, 107
1, 508885, Note_on_c, 0, 79, 64
1, 508885, Control_c, 0, 64, 111
1, 508900, Control_c, 0, 64, 114
1, 508909, Note_off_c, 0, 29, 44
1, 508915, Control_c, 0, 64, 120
1, 508930, Control_c, 0, 64, 127
1, 508967, Note_on_c, 0, 77, 66
1, 508967, Note_off_c, 0, 79, 48
1, 508978, Note_off_c, 0, 41, 40
1, 509059, Note_on_c, 0, 76, 68
1, 509113, Note_off_c, 0, 77, 34
1, 509154, Note_on_c, 0, 74, 69
1, 509154, Note_off_c, 0, 76, 48
1, 509187, Note_off_c, 0, 74, 65
1, 509253, Note_on_c, 0, 71, 59
1, 509291, Note_off_c, 0, 71, 58
1, 509336, Note_on_c, 0, 69, 61
1, 509426, Control_c, 0, 64, 123
1, 509441, Control_c, 0, 64, 117
1, 509456, Control_c, 0, 64, 110
1, 509462, Note_off_c, 0, 69, 57
1, 509471, Control_c, 0, 64, 102
1, 509485, Control_c, 0, 64, 93
1, 509492, Note_on_c, 0, 67, 59
1, 509501, Control_c, 0, 64, 82
1, 509515, Note_on_c, 0, 62, 40
1, 509516, Control_c, 0, 64, 68
1, 509531, Control_c, 0, 64, 40
1, 509545, Control_c, 0, 64, 0
1, 509620, Control_c, 0, 64, 53
1, 509635, Control_c, 0, 64, 67
1, 509649, Control_c, 0, 64, 77
1, 509664, Control_c, 0, 64, 90
1, 509679, Control_c, 0, 64, 111
1, 509694, Control_c, 0, 64, 127
1, 509705, Note_off_c, 0, 62, 36
1, 510344, Note_on_c, 0, 31, 32
1, 510350, Note_on_c, 0, 43, 29
1, 510454, Note_off_c, 0, 31, 36
1, 510550, Note_off_c, 0, 43, 41
1, 510763, Note_on_c, 0, 69, 44
1, 510853, Note_off_c, 0, 67, 37
1, 511152, Note_on_c, 0, 71, 43
1, 511161, Control_c, 0, 64, 104
1, 511170, Note_off_c, 0, 69, 55
1, 511176, Control_c, 0, 64, 86
1, 511176, Note_on_c, 0, 62, 39
1, 511191, Control_c, 0, 64, 72
1, 511206, Control_c, 0, 64, 59
1, 511220, Control_c, 0, 64, 29
1, 511235, Control_c, 0, 64, 40
1, 511250, Control_c, 0, 64, 59
1, 511265, Control_c, 0, 64, 67
1, 511279, Control_c, 0, 64, 74
1, 511294, Control_c, 0, 64, 85
1, 511309, Control_c, 0, 64, 106
1, 511331, Control_c, 0, 64, 127
1, 511367, Note_off_c, 0, 62, 35
1, 511599, Note_on_c, 0, 69, 50
1, 511631, Note_off_c, 0, 71, 38
1, 511975, Note_on_c, 0, 71, 52
1, 512004, Note_on_c, 0, 45, 33
1, 512007, Note_on_c, 0, 33, 31
1, 512091, Note_off_c, 0, 69, 38
1, 512164, Note_off_c, 0, 33, 32
1, 512257, Note_off_c, 0, 45, 44
1, 512377, Note_on_c, 0, 72, 56
1, 512780, Note_off_c, 0, 71, 31
1, 512785, Note_on_c, 0, 74, 58
1, 512792, Control_c, 0, 64, 107
1, 512807, Control_c, 0, 64, 91
1, 512809, Note_on_c, 0, 62, 39
1, 512830, Control_c, 0, 64, 77
1, 512838, Note_off_c, 0, 72, 57
1, 512844, Control_c, 0, 64, 61
1, 512859, Control_c, 0, 64, 0
1, 512889, Control_c, 0, 64, 37
1, 512904, Control_c, 0, 64, 63
1, 512919, Control_c, 0, 64, 71
1, 512933, Control_c, 0, 64, 83
1, 512948, Control_c, 0, 64, 102
1, 512963, Control_c, 0, 64, 127
1, 512991, Note_off_c, 0, 62, 48
1, 513255, Note_on_c, 0, 72, 56
1, 513295, Note_off_c, 0, 74, 51
1, 513635, Note_on_c, 0, 74, 63
1, 513653, Control_c, 0, 64, 97
1, 513668, Control_c, 0, 64, 81
1, 513668, Note_on_c, 0, 35, 35
1, 513672, Note_off_c, 0, 72, 55
1, 513681, Note_on_c, 0, 47, 30
1, 513682, Control_c, 0, 64, 72
1, 513697, Control_c, 0, 64, 69
1, 513712, Control_c, 0, 64, 74
1, 513727, Control_c, 0, 64, 80
1, 513741, Control_c, 0, 64, 90
1, 513756, Control_c, 0, 64, 105
1, 513771, Control_c, 0, 64, 127
1, 513859, Note_off_c, 0, 35, 41
1, 513963, Note_off_c, 0, 47, 42
1, 514481, Note_on_c, 0, 62, 41
1, 514491, Control_c, 0, 64, 98
1, 514505, Control_c, 0, 64, 80
1, 514520, Control_c, 0, 64, 65
1, 514535, Control_c, 0, 64, 42
1, 514550, Control_c, 0, 64, 47
1, 514565, Control_c, 0, 64, 63
1, 514579, Control_c, 0, 64, 70
1, 514594, Control_c, 0, 64, 80
1, 514609, Control_c, 0, 64, 95
1, 514623, Control_c, 0, 64, 127
1, 514689, Note_off_c, 0, 62, 51
1, 514870, Note_on_c, 0, 76, 56
1, 514997, Note_off_c, 0, 74, 35
1, 515284, Control_c, 0, 64, 123
1, 515284, Note_on_c, 0, 77, 65
1, 515299, Control_c, 0, 64, 97
1, 515313, Control_c, 0, 64, 81
1, 515321, Note_on_c, 0, 36, 38
1, 515328, Control_c, 0, 64, 72
1, 515329, Note_on_c, 0, 48, 36
1, 515343, Control_c, 0, 64, 68
1, 515354, Note_off_c, 0, 76, 60
1, 515358, Control_c, 0, 64, 71
1, 515373, Control_c, 0, 64, 76
1, 515388, Control_c, 0, 64, 85
1, 515402, Control_c, 0, 64, 101
1, 515417, Control_c, 0, 64, 127
1, 515513, Note_off_c, 0, 36, 37
1, 515617, Note_off_c, 0, 48, 41
1, 515672, Note_on_c, 0, 76, 71
1, 515727, Note_off_c, 0, 77, 58
1, 516097, Note_on_c, 0, 77, 71
1, 516106, Control_c, 0, 64, 107
1, 516120, Note_on_c, 0, 62, 51
1, 516121, Control_c, 0, 64, 89
1, 516136, Control_c, 0, 64, 74
1, 516145, Note_off_c, 0, 76, 54
1, 516151, Control_c, 0, 64, 62
1, 516166, Control_c, 0, 64, 0
1, 516195, Control_c, 0, 64, 28
1, 516210, Control_c, 0, 64, 58
1, 516225, Control_c, 0, 64, 67
1, 516240, Control_c, 0, 64, 76
1, 516255, Control_c, 0, 64, 91
1, 516269, Control_c, 0, 64, 121
1, 516284, Control_c, 0, 64, 127
1, 516337, Note_off_c, 0, 62, 37
1, 516504, Note_on_c, 0, 79, 73
1, 516767, Note_off_c, 0, 77, 47
1, 516908, Note_on_c, 0, 81, 72
1, 516929, Control_c, 0, 64, 96
1, 516932, Note_on_c, 0, 50, 46
1, 516938, Note_on_c, 0, 38, 43
1, 516944, Control_c, 0, 64, 80
1, 516955, Note_off_c, 0, 79, 59
1, 516959, Control_c, 0, 64, 69
1, 516973, Control_c, 0, 64, 64
1, 516988, Control_c, 0, 64, 65
1, 517003, Control_c, 0, 64, 70
1, 517017, Control_c, 0, 64, 80
1, 517032, Control_c, 0, 64, 92
1, 517047, Control_c, 0, 64, 116
1, 517062, Control_c, 0, 64, 127
1, 517132, Note_off_c, 0, 38, 42
1, 517200, Note_off_c, 0, 50, 59
1, 517603, Control_c, 0, 67, 127
1, 517618, Control_c, 0, 67, 125
1, 517633, Control_c, 0, 67, 123
1, 517647, Control_c, 0, 67, 120
1, 517662, Control_c, 0, 67, 116
1, 517677, Control_c, 0, 67, 111
1, 517692, Control_c, 0, 67, 105
1, 517707, Control_c, 0, 67, 101
1, 517721, Control_c, 0, 67, 96
1, 517736, Control_c, 0, 67, 91
1, 517751, Control_c, 0, 67, 88
1, 517760, Note_on_c, 0, 83, 77
1, 517766, Control_c, 0, 64, 108
1, 517766, Control_c, 0, 67, 84
1, 517781, Control_c, 0, 64, 82
1, 517781, Control_c, 0, 67, 80
1, 517788, Note_on_c, 0, 62, 51
1, 517794, Note_off_c, 0, 81, 60
1, 517795, Control_c, 0, 64, 67
1, 517795, Control_c, 0, 67, 75
1, 517810, Control_c, 0, 64, 52
1, 517810, Control_c, 0, 67, 72
1, 517825, Control_c, 0, 64, 56
1, 517825, Control_c, 0, 67, 69
1, 517839, Control_c, 0, 64, 65
1, 517839, Control_c, 0, 67, 67
1, 517854, Control_c, 0, 64, 72
1, 517854, Control_c, 0, 67, 65
1, 517869, Control_c, 0, 64, 86
1, 517869, Control_c, 0, 67, 62
1, 517884, Control_c, 0, 64, 107
1, 517884, Control_c, 0, 67, 59
1, 517899, Control_c, 0, 64, 127
1, 517899, Control_c, 0, 67, 57
1, 517913, Control_c, 0, 67, 54
1, 517928, Control_c, 0, 67, 52
1, 517943, Control_c, 0, 67, 49
1, 517958, Control_c, 0, 67, 45
1, 517973, Control_c, 0, 67, 41
1, 517987, Control_c, 0, 67, 37
1, 518002, Control_c, 0, 67, 33
1, 518017, Control_c, 0, 67, 29
1, 518031, Note_off_c, 0, 62, 37
1, 518032, Control_c, 0, 67, 25
1, 518047, Control_c, 0, 67, 21
1, 518069, Control_c, 0, 67, 17
1, 518084, Control_c, 0, 67, 14
1, 518099, Control_c, 0, 67, 11
1, 518113, Control_c, 0, 67, 0
1, 518122, Note_on_c, 0, 84, 75
1, 518349, Note_on_c, 0, 86, 81
1, 518440, Note_off_c, 0, 84, 51
1, 518463, Note_off_c, 0, 83, 54
1, 518574, Control_c, 0, 64, 98
1, 518587, Note_on_c, 0, 88, 81
1, 518589, Control_c, 0, 64, 81
1, 518601, Note_off_c, 0, 86, 61
1, 518604, Control_c, 0, 64, 70
1, 518610, Note_on_c, 0, 52, 39
1, 518619, Control_c, 0, 64, 68
1, 518620, Note_on_c, 0, 40, 36
1, 518634, Control_c, 0, 64, 73
1, 518649, Control_c, 0, 64, 84
1, 518663, Control_c, 0, 64, 107
1, 518678, Control_c, 0, 64, 127
1, 518786, Note_off_c, 0, 88, 58
1, 518854, Note_off_c, 0, 40, 42
1, 519010, Note_off_c, 0, 52, 40
1, 519146, Control_c, 0, 67, 8
1, 519160, Control_c, 0, 67, 8
1, 519190, Control_c, 0, 67, 9
1, 519219, Control_c, 0, 67, 9
1, 519234, Control_c, 0, 67, 10
1, 519264, Control_c, 0, 67, 10
1, 519308, Control_c, 0, 67, 10
1, 519338, Control_c, 0, 67, 9
1, 519427, Control_c, 0, 67, 10
1, 519456, Note_on_c, 0, 77, 69
1, 519472, Control_c, 0, 64, 98
1, 519486, Control_c, 0, 64, 79
1, 519487, Note_on_c, 0, 62, 40
1, 519501, Control_c, 0, 64, 68
1, 519516, Control_c, 0, 64, 64
1, 519531, Control_c, 0, 64, 66
1, 519546, Control_c, 0, 64, 72
1, 519567, Control_c, 0, 64, 80
1, 519582, Control_c, 0, 64, 94
1, 519597, Control_c, 0, 64, 114
1, 519612, Control_c, 0, 64, 127
1, 519627, Control_c, 0, 67, 9
1, 519756, Note_off_c, 0, 62, 36
1, 519805, Control_c, 0, 67, 10
1, 519834, Control_c, 0, 67, 10
1, 519903, Note_on_c, 0, 76, 74
1, 519909, Control_c, 0, 67, 11
1, 519939, Control_c, 0, 67, 11
1, 519969, Control_c, 0, 67, 12
1, 520013, Control_c, 0, 67, 12
1, 520028, Control_c, 0, 67, 13
1, 520042, Control_c, 0, 67, 15
1, 520057, Control_c, 0, 67, 18
1, 520072, Control_c, 0, 67, 21
1, 520087, Control_c, 0, 67, 24
1, 520102, Control_c, 0, 67, 27
1, 520116, Control_c, 0, 67, 29
1, 520131, Control_c, 0, 67, 31
1, 520146, Control_c, 0, 67, 32
1, 520161, Control_c, 0, 67, 33
1, 520176, Control_c, 0, 67, 34
1, 520190, Control_c, 0, 67, 34
1, 520205, Control_c, 0, 67, 35
1, 520235, Control_c, 0, 67, 35
1, 520280, Control_c, 0, 64, 114
1, 520287, Note_on_c, 0, 74, 77
1, 520295, Control_c, 0, 64, 95
1, 520316, Control_c, 0, 64, 80
1, 520331, Control_c, 0, 64, 68
1, 520331, Control_c, 0, 67, 36
1, 520333, Note_on_c, 0, 41, 40
1, 520336, Note_on_c, 0, 53, 36
1, 520346, Control_c, 0, 64, 60
1, 520360, Control_c, 0, 64, 61
1, 520375, Control_c, 0, 64, 65
1, 520390, Control_c, 0, 64, 70
1, 520405, Control_c, 0, 64, 76
1, 520420, Control_c, 0, 64, 86
1, 520424, Note_off_c, 0, 76, 51
1, 520428, Note_off_c, 0, 77, 56
1, 520435, Control_c, 0, 64, 101
1, 520436, Note_off_c, 0, 41, 49
1, 520450, Control_c, 0, 64, 127
1, 520554, Control_c, 0, 67, 36
1, 520642, Control_c, 0, 67, 37
1, 520688, Control_c, 0, 67, 37
1, 520693, Note_on_c, 0, 72, 74
1, 520703, Control_c, 0, 67, 38
1, 520718, Control_c, 0, 67, 40
1, 520721, Note_off_c, 0, 74, 62
1, 520732, Control_c, 0, 67, 42
1, 520747, Control_c, 0, 67, 43
1, 520762, Control_c, 0, 67, 44
1, 520777, Control_c, 0, 67, 45
1, 520791, Control_c, 0, 67, 46
1, 520806, Control_c, 0, 67, 47
1, 520821, Control_c, 0, 67, 48
1, 520835, Control_c, 0, 67, 49
1, 520850, Control_c, 0, 67, 50
1, 520864, Control_c, 0, 67, 50
1, 520879, Control_c, 0, 67, 52
1, 520894, Control_c, 0, 67, 52
1, 520909, Control_c, 0, 67, 53
1, 520924, Control_c, 0, 67, 54
1, 520938, Control_c, 0, 67, 54
1, 520953, Control_c, 0, 67, 55
1, 520968, Control_c, 0, 67, 55
1, 520983, Control_c, 0, 67, 56
1, 520998, Control_c, 0, 67, 56
1, 521013, Control_c, 0, 67, 57
1, 521064, Control_c, 0, 67, 57
1, 521109, Control_c, 0, 67, 58
1, 521116, Note_on_c, 0, 81, 75
1, 521124, Control_c, 0, 64, 122
1, 521130, Note_off_c, 0, 53, 43
1, 521138, Control_c, 0, 64, 98
1, 521147, Note_on_c, 0, 62, 47
1, 521153, Control_c, 0, 64, 83
1, 521153, Control_c, 0, 67, 58
1, 521162, Note_off_c, 0, 72, 59
1, 521168, Control_c, 0, 64, 70
1, 521183, Control_c, 0, 64, 56
1, 521198, Control_c, 0, 64, 34
1, 521213, Control_c, 0, 64, 50
1, 521228, Control_c, 0, 64, 63
1, 521242, Control_c, 0, 64, 70
1, 521257, Control_c, 0, 64, 79
1, 521272, Control_c, 0, 64, 93
1, 521287, Control_c, 0, 64, 126
1, 521302, Control_c, 0, 64, 127
1, 521353, Note_off_c, 0, 62, 50
1, 521390, Control_c, 0, 67, 59
1, 521405, Control_c, 0, 67, 59
1, 521480, Control_c, 0, 67, 60
1, 521510, Control_c, 0, 67, 60
1, 521525, Control_c, 0, 67, 61
1, 521540, Control_c, 0, 67, 64
1, 521554, Control_c, 0, 67, 65
1, 521569, Control_c, 0, 67, 67
1, 521585, Control_c, 0, 67, 69
1, 521585, Note_on_c, 0, 72, 61
1, 521600, Control_c, 0, 67, 70
1, 521614, Control_c, 0, 67, 72
1, 521629, Control_c, 0, 67, 75
1, 521644, Control_c, 0, 67, 76
1, 521653, Note_off_c, 0, 81, 36
1, 521659, Control_c, 0, 67, 78
1, 521674, Control_c, 0, 67, 80
1, 521688, Control_c, 0, 67, 81
1, 521703, Control_c, 0, 67, 83
1, 521718, Control_c, 0, 67, 86
1, 521733, Control_c, 0, 67, 89
1, 521748, Control_c, 0, 67, 92
1, 521762, Control_c, 0, 67, 95
1, 521777, Control_c, 0, 67, 98
1, 521792, Control_c, 0, 67, 101
1, 521814, Control_c, 0, 67, 104
1, 521829, Control_c, 0, 67, 107
1, 521844, Control_c, 0, 67, 109
1, 521859, Control_c, 0, 67, 111
1, 521874, Control_c, 0, 67, 113
1, 521888, Control_c, 0, 67, 115
1, 521903, Control_c, 0, 67, 116
1, 521918, Control_c, 0, 67, 118
1, 521933, Control_c, 0, 67, 119
1, 521948, Control_c, 0, 67, 121
1, 521962, Control_c, 0, 67, 122
1, 521977, Control_c, 0, 67, 122
1, 521989, Note_on_c, 0, 79, 71
1, 521992, Control_c, 0, 64, 103
1, 521992, Control_c, 0, 67, 123
1, 522006, Control_c, 0, 64, 89
1, 522006, Control_c, 0, 67, 123
1, 522015, Note_on_c, 0, 55, 36
1, 522021, Control_c, 0, 64, 77
1, 522028, Note_on_c, 0, 43, 32
1, 522036, Control_c, 0, 64, 66
1, 522036, Control_c, 0, 67, 124
1, 522050, Note_off_c, 0, 72, 55
1, 522051, Control_c, 0, 64, 60
1, 522066, Control_c, 0, 64, 61
1, 522080, Control_c, 0, 64, 65
1, 522095, Control_c, 0, 64, 70
1, 522110, Control_c, 0, 64, 78
1, 522125, Control_c, 0, 64, 89
1, 522140, Control_c, 0, 64, 107
1, 522155, Control_c, 0, 64, 127
1, 522165, Note_off_c, 0, 43, 35
1, 522214, Control_c, 0, 67, 124
1, 522229, Control_c, 0, 67, 125
1, 522259, Control_c, 0, 67, 125
1, 522274, Control_c, 0, 67, 126
1, 522289, Control_c, 0, 67, 127
1, 522304, Control_c, 0, 67, 127
1, 522407, Note_on_c, 0, 69, 49
1, 522813, Note_on_c, 0, 77, 58
1, 522815, Control_c, 0, 64, 103
1, 522827, Note_off_c, 0, 79, 51
1, 522829, Control_c, 0, 64, 88
1, 522844, Control_c, 0, 64, 75
1, 522850, Note_on_c, 0, 62, 32
1, 522859, Control_c, 0, 64, 64
1, 522874, Control_c, 0, 64, 49
1, 522883, Note_off_c, 0, 69, 53
1, 522889, Control_c, 0, 64, 48
1, 522903, Control_c, 0, 64, 58
1, 522918, Control_c, 0, 64, 65
1, 522919, Note_off_c, 0, 55, 40
1, 522933, Control_c, 0, 64, 71
1, 522948, Control_c, 0, 64, 78
1, 522962, Control_c, 0, 64, 89
1, 522977, Control_c, 0, 64, 104
1, 522992, Control_c, 0, 64, 127
1, 523112, Note_off_c, 0, 62, 44
1, 523261, Note_on_c, 0, 74, 49
1, 523398, Note_off_c, 0, 77, 37
1, 523641, Note_on_c, 0, 76, 53
1, 523652, Control_c, 0, 64, 105
1, 523657, Note_on_c, 0, 57, 32
1, 523663, Note_off_c, 0, 74, 52
1, 523667, Control_c, 0, 64, 88
1, 523675, Note_on_c, 0, 45, 36
1, 523682, Control_c, 0, 64, 75
1, 523697, Control_c, 0, 64, 65
1, 523712, Control_c, 0, 64, 61
1, 523726, Control_c, 0, 64, 64
1, 523741, Control_c, 0, 64, 68
1, 523756, Control_c, 0, 64, 74
1, 523771, Control_c, 0, 64, 85
1, 523785, Control_c, 0, 64, 97
1, 523800, Control_c, 0, 64, 111
1, 523815, Control_c, 0, 64, 127
1, 523836, Note_off_c, 0, 45, 45
1, 524074, Note_off_c, 0, 57, 0
1, 524074, Note_on_c, 0, 57, 10
1, 524077, Note_on_c, 0, 65, 40
1, 524270, Note_off_c, 0, 65, 34
1, 524286, Note_on_c, 0, 74, 48
1, 524289, Note_off_c, 0, 76, 51
1, 524363, Note_off_c, 0, 74, 52
1, 524365, Note_on_c, 0, 72, 46
1, 524404, Note_off_c, 0, 72, 62
1, 524431, Control_c, 0, 64, 111
1, 524436, Note_on_c, 0, 71, 54
1, 524446, Control_c, 0, 64, 99
1, 524461, Control_c, 0, 64, 89
1, 524475, Control_c, 0, 64, 79
1, 524488, Note_off_c, 0, 71, 56
1, 524490, Control_c, 0, 64, 69
1, 524505, Control_c, 0, 64, 61
1, 524518, Note_on_c, 0, 72, 53
1, 524520, Control_c, 0, 64, 49
1, 524525, Note_on_c, 0, 62, 32
1, 524534, Control_c, 0, 64, 49
1, 524549, Control_c, 0, 64, 50
1, 524564, Control_c, 0, 64, 57
1, 524580, Note_off_c, 0, 57, 40
1, 524580, Control_c, 0, 64, 63
1, 524595, Control_c, 0, 64, 69
1, 524609, Control_c, 0, 64, 76
1, 524624, Control_c, 0, 64, 90
1, 524639, Control_c, 0, 64, 107
1, 524654, Control_c, 0, 64, 127
1, 524780, Note_off_c, 0, 62, 43
1, 524966, Note_on_c, 0, 71, 49
1, 525046, Note_off_c, 0, 72, 36
1, 525328, Control_c, 0, 64, 108
1, 525343, Control_c, 0, 64, 94
1, 525353, Note_on_c, 0, 69, 48
1, 525356, Note_off_c, 0, 71, 53
1, 525357, Control_c, 0, 64, 82
1, 525372, Control_c, 0, 64, 71
1, 525374, Note_on_c, 0, 59, 34
1, 525383, Note_on_c, 0, 47, 34
1, 525387, Control_c, 0, 64, 62
1, 525402, Control_c, 0, 64, 62
1, 525417, Control_c, 0, 64, 65
1, 525431, Control_c, 0, 64, 70
1, 525446, Control_c, 0, 64, 78
1, 525461, Control_c, 0, 64, 90
1, 525477, Control_c, 0, 64, 111
1, 525492, Control_c, 0, 64, 127
1, 525553, Note_off_c, 0, 47, 46
1, 525765, Note_on_c, 0, 79, 57
1, 526210, Control_c, 0, 64, 103
1, 526212, Note_on_c, 0, 77, 60
1, 526225, Control_c, 0, 64, 87
1, 526235, Note_on_c, 0, 62, 41
1, 526240, Control_c, 0, 64, 75
1, 526254, Control_c, 0, 64, 70
1, 526259, Note_off_c, 0, 79, 57
1, 526270, Control_c, 0, 64, 72
1, 526277, Note_off_c, 0, 59, 37
1, 526285, Control_c, 0, 64, 76
1, 526307, Control_c, 0, 64, 82
1, 526322, Control_c, 0, 64, 90
1, 526324, Note_off_c, 0, 69, 43
1, 526337, Control_c, 0, 64, 105
1, 526352, Control_c, 0, 64, 127
1, 526471, Control_c, 0, 67, 124
1, 526485, Control_c, 0, 67, 120
1, 526500, Control_c, 0, 67, 115
1, 526515, Control_c, 0, 67, 110
1, 526530, Control_c, 0, 67, 104
1, 526545, Control_c, 0, 67, 97
1, 526559, Control_c, 0, 67, 89
1, 526574, Control_c, 0, 67, 81
1, 526578, Note_off_c, 0, 62, 36
1, 526589, Control_c, 0, 67, 75
1, 526603, Control_c, 0, 67, 70
1, 526618, Control_c, 0, 67, 65
1, 526633, Control_c, 0, 67, 62
1, 526648, Control_c, 0, 67, 59
1, 526663, Control_c, 0, 67, 56
1, 526677, Control_c, 0, 67, 53
1, 526692, Control_c, 0, 67, 50
1, 526707, Control_c, 0, 67, 46
1, 526721, Control_c, 0, 67, 44
1, 526736, Control_c, 0, 67, 40
1, 526751, Control_c, 0, 67, 37
1, 526766, Control_c, 0, 67, 33
1, 526781, Control_c, 0, 67, 28
1, 526796, Control_c, 0, 67, 24
1, 526811, Control_c, 0, 67, 20
1, 526826, Control_c, 0, 67, 16
1, 526841, Control_c, 0, 67, 14
1, 526856, Control_c, 0, 67, 13
1, 526944, Control_c, 0, 67, 13
1, 526959, Control_c, 0, 67, 14
1, 526974, Control_c, 0, 67, 14
1, 526989, Control_c, 0, 67, 15
1, 527003, Control_c, 0, 67, 16
1, 527018, Control_c, 0, 67, 17
1, 527033, Control_c, 0, 67, 18
1, 527055, Control_c, 0, 67, 19
1, 527070, Control_c, 0, 67, 20
1, 527074, Note_on_c, 0, 76, 47
1, 527086, Control_c, 0, 67, 20
1, 527100, Control_c, 0, 67, 21
1, 527115, Control_c, 0, 64, 103
1, 527117, Note_on_c, 0, 60, 40
1, 527119, Note_on_c, 0, 48, 46
1, 527130, Control_c, 0, 64, 89
1, 527145, Control_c, 0, 64, 78
1, 527145, Control_c, 0, 67, 21
1, 527151, Note_off_c, 0, 77, 39
1, 527160, Control_c, 0, 64, 68
1, 527174, Control_c, 0, 64, 63
1, 527204, Control_c, 0, 64, 66
1, 527219, Control_c, 0, 64, 70
1, 527234, Control_c, 0, 64, 77
1, 527234, Control_c, 0, 67, 22
1, 527249, Control_c, 0, 64, 86
1, 527264, Control_c, 0, 64, 99
1, 527279, Control_c, 0, 64, 118
1, 527294, Control_c, 0, 64, 127
1, 527294, Control_c, 0, 67, 22
1, 527308, Control_c, 0, 67, 23
1, 527312, Note_on_c, 0, 74, 56
1, 527338, Control_c, 0, 67, 23
1, 527352, Control_c, 0, 67, 24
1, 527367, Control_c, 0, 67, 24
1, 527382, Control_c, 0, 67, 25
1, 527397, Control_c, 0, 67, 25
1, 527412, Control_c, 0, 67, 26
1, 527426, Control_c, 0, 67, 27
1, 527441, Control_c, 0, 67, 27
1, 527456, Control_c, 0, 67, 28
1, 527471, Control_c, 0, 67, 29
1, 527486, Control_c, 0, 67, 31
1, 527494, Note_on_c, 0, 72, 57
1, 527500, Control_c, 0, 67, 32
1, 527502, Note_off_c, 0, 48, 34
1, 527515, Control_c, 0, 67, 33
1, 527523, Note_off_c, 0, 74, 39
1, 527529, Note_off_c, 0, 76, 39
1, 527530, Control_c, 0, 67, 34
1, 527544, Control_c, 0, 67, 35
1, 527559, Control_c, 0, 67, 38
1, 527568, Note_off_c, 0, 60, 57
1, 527574, Control_c, 0, 67, 42
1, 527589, Control_c, 0, 67, 46
1, 527604, Control_c, 0, 67, 52
1, 527619, Control_c, 0, 67, 56
1, 527630, Note_off_c, 0, 72, 61
1, 527634, Control_c, 0, 67, 61
1, 527648, Control_c, 0, 67, 65
1, 527663, Control_c, 0, 67, 68
1, 527666, Note_on_c, 0, 71, 63
1, 527678, Control_c, 0, 67, 70
1, 527693, Control_c, 0, 67, 71
1, 527708, Control_c, 0, 67, 72
1, 527723, Control_c, 0, 67, 72
1, 527767, Control_c, 0, 67, 73
1, 527819, Control_c, 0, 67, 73
1, 527863, Control_c, 0, 64, 105
1, 527879, Note_on_c, 0, 81, 67
1, 527879, Control_c, 0, 64, 87
1, 527884, Note_on_c, 0, 62, 59
1, 527885, Note_off_c, 0, 71, 56
1, 527886, Note_on_c, 0, 50, 59
1, 527894, Control_c, 0, 64, 74
1, 527909, Control_c, 0, 64, 66
1, 527938, Control_c, 0, 64, 70
1, 527953, Control_c, 0, 64, 79
1, 527968, Control_c, 0, 64, 90
1, 527982, Control_c, 0, 64, 109
1, 527997, Control_c, 0, 64, 127
1, 528042, Control_c, 0, 67, 74
1, 528072, Control_c, 0, 67, 74
1, 528102, Control_c, 0, 67, 75
1, 528116, Control_c, 0, 67, 78
1, 528131, Control_c, 0, 67, 79
1, 528269, Note_off_c, 0, 50, 47
1, 528301, Note_on_c, 0, 79, 68
1, 528319, Note_off_c, 0, 62, 54
1, 528335, Note_off_c, 0, 81, 60
1, 528397, Control_c, 0, 67, 79
1, 528412, Control_c, 0, 67, 80
1, 528426, Control_c, 0, 67, 80
1, 528441, Control_c, 0, 67, 81
1, 528456, Control_c, 0, 67, 84
1, 528471, Control_c, 0, 67, 87
1, 528486, Control_c, 0, 67, 89
1, 528501, Control_c, 0, 67, 91
1, 528530, Control_c, 0, 67, 91
1, 528567, Control_c, 0, 67, 92
1, 528654, Note_on_c, 0, 81, 69
1, 528656, Control_c, 0, 64, 108
1, 528662, Note_on_c, 0, 64, 68
1, 528669, Note_on_c, 0, 52, 60
1, 528671, Control_c, 0, 64, 89
1, 528686, Control_c, 0, 64, 75
1, 528701, Note_off_c, 0, 79, 55
1, 528701, Control_c, 0, 64, 65
1, 528716, Control_c, 0, 64, 60
1, 528731, Control_c, 0, 64, 63
1, 528745, Control_c, 0, 64, 68
1, 528760, Control_c, 0, 64, 75
1, 528775, Control_c, 0, 64, 85
1, 528790, Control_c, 0, 64, 102
1, 528805, Control_c, 0, 64, 127
1, 528820, Control_c, 0, 67, 91
1, 528832, Note_on_c, 0, 83, 75
1, 528855, Note_off_c, 0, 81, 54
1, 528865, Control_c, 0, 67, 91
1, 529008, Note_on_c, 0, 81, 77
1, 529061, Note_off_c, 0, 52, 32
1, 529065, Note_off_c, 0, 83, 55
1, 529175, Control_c, 0, 67, 90
1, 529204, Control_c, 0, 67, 90
1, 529231, Note_off_c, 0, 64, 39
1, 529264, Control_c, 0, 67, 89
1, 529316, Control_c, 0, 67, 89
1, 529360, Control_c, 0, 67, 88
1, 529402, Note_on_c, 0, 84, 77
1, 529404, Control_c, 0, 67, 88
1, 529418, Note_on_c, 0, 65, 71
1, 529427, Note_on_c, 0, 53, 68
1, 529434, Control_c, 0, 64, 106
1, 529449, Control_c, 0, 64, 86
1, 529453, Note_off_c, 0, 81, 61
1, 529465, Control_c, 0, 64, 71
1, 529480, Control_c, 0, 64, 46
1, 529480, Control_c, 0, 67, 87
1, 529494, Control_c, 0, 64, 0
1, 529494, Control_c, 0, 67, 87
1, 529509, Control_c, 0, 67, 86
1, 529524, Control_c, 0, 64, 39
1, 529524, Control_c, 0, 67, 86
1, 529539, Control_c, 0, 64, 58
1, 529539, Control_c, 0, 67, 85
1, 529553, Control_c, 0, 64, 66
1, 529568, Control_c, 0, 64, 76
1, 529568, Control_c, 0, 67, 85
1, 529583, Control_c, 0, 64, 88
1, 529598, Control_c, 0, 64, 108
1, 529613, Control_c, 0, 64, 127
1, 529791, Control_c, 0, 67, 85
1, 529842, Note_on_c, 0, 81, 76
1, 529878, Note_off_c, 0, 84, 61
1, 529924, Control_c, 0, 67, 86
1, 530024, Note_off_c, 0, 65, 39
1, 530230, Note_on_c, 0, 86, 82
1, 530232, Note_off_c, 0, 53, 32
1, 530250, Note_on_c, 0, 62, 59
1, 530257, Control_c, 0, 67, 86
1, 530295, Note_off_c, 0, 81, 60
1, 530421, Control_c, 0, 67, 87
1, 530641, Note_on_c, 0, 88, 82
1, 530703, Note_off_c, 0, 86, 59
1, 530732, Control_c, 0, 67, 87
1, 530747, Control_c, 0, 67, 88
1, 530799, Control_c, 0, 67, 88
1, 530823, Note_on_c, 0, 86, 86
1, 530844, Control_c, 0, 67, 89
1, 530874, Note_off_c, 0, 88, 58
1, 530888, Control_c, 0, 67, 89
1, 531006, Control_c, 0, 64, 111
1, 531021, Control_c, 0, 64, 89
1, 531036, Control_c, 0, 64, 72
1, 531037, Note_on_c, 0, 89, 88
1, 531040, Note_on_c, 0, 67, 69
1, 531042, Note_on_c, 0, 55, 63
1, 531050, Control_c, 0, 64, 53
1, 531066, Control_c, 0, 64, 0
1, 531081, Note_off_c, 0, 62, 59
1, 531084, Note_off_c, 0, 86, 57
1, 531096, Control_c, 0, 64, 27
1, 531111, Control_c, 0, 64, 60
1, 531126, Control_c, 0, 64, 69
1, 531140, Control_c, 0, 64, 78
1, 531155, Control_c, 0, 64, 91
1, 531170, Control_c, 0, 64, 114
1, 531170, Control_c, 0, 67, 89
1, 531185, Control_c, 0, 64, 127
1, 531333, Control_c, 0, 67, 89
1, 531348, Control_c, 0, 67, 90
1, 531363, Control_c, 0, 67, 90
1, 531392, Control_c, 0, 67, 91
1, 531407, Control_c, 0, 67, 92
1, 531437, Control_c, 0, 67, 92
1, 531459, Note_on_c, 0, 81, 77
1, 531466, Control_c, 0, 67, 93
1, 531481, Control_c, 0, 67, 93
1, 531496, Control_c, 0, 67, 94
1, 531510, Control_c, 0, 67, 95
1, 531517, Note_off_c, 0, 89, 60
1, 531525, Control_c, 0, 67, 97
1, 531547, Control_c, 0, 67, 98
1, 531562, Control_c, 0, 67, 98
1, 531577, Control_c, 0, 67, 99
1, 531592, Control_c, 0, 67, 99
1, 531607, Control_c, 0, 67, 100
1, 531622, Control_c, 0, 67, 100
1, 531652, Control_c, 0, 67, 101
1, 531681, Control_c, 0, 67, 101
1, 531696, Control_c, 0, 67, 102
1, 531711, Control_c, 0, 67, 102
1, 531725, Control_c, 0, 67, 103
1, 531740, Control_c, 0, 67, 104
1, 531785, Control_c, 0, 67, 104
1, 531875, Control_c, 0, 64, 104
1, 531875, Control_c, 0, 67, 105
1, 531889, Control_c, 0, 64, 86
1, 531904, Control_c, 0, 64, 73
1, 531909, Note_on_c, 0, 89, 73
1, 531919, Control_c, 0, 64, 65
1, 531934, Control_c, 0, 64, 66
1, 531934, Control_c, 0, 67, 105
1, 531937, Note_on_c, 0, 62, 44
1, 531948, Control_c, 0, 64, 73
1, 531948, Control_c, 0, 67, 106
1, 531963, Control_c, 0, 64, 83
1, 531963, Control_c, 0, 67, 107
1, 531969, Note_off_c, 0, 81, 58
1, 531978, Control_c, 0, 64, 101
1, 531978, Control_c, 0, 67, 108
1, 531993, Control_c, 0, 64, 127
1, 531993, Control_c, 0, 67, 110
1, 532008, Control_c, 0, 67, 112
1, 532019, Note_off_c, 0, 67, 52
1, 532022, Control_c, 0, 67, 114
1, 532037, Control_c, 0, 67, 117
1, 532052, Control_c, 0, 67, 119
1, 532067, Control_c, 0, 67, 121
1, 532082, Control_c, 0, 67, 122
1, 532096, Control_c, 0, 67, 123
1, 532111, Control_c, 0, 67, 125
1, 532126, Control_c, 0, 67, 127
1, 532141, Control_c, 0, 67, 127
1, 532148, Note_off_c, 0, 62, 35
1, 532153, Note_off_c, 0, 55, 35
1, 532587, Note_off_c, 0, 89, 32
1, 532588, Note_on_c, 0, 91, 51
1, 532805, Note_on_c, 0, 89, 56
1, 532830, Note_off_c, 0, 91, 38
1, 533217, Note_on_c, 0, 91, 50
1, 533250, Note_off_c, 0, 89, 50
1, 533270, Note_on_c, 0, 24, 47
1, 533275, Note_on_c, 0, 36, 48
1, 533297, Control_c, 0, 64, 101
1, 533312, Control_c, 0, 64, 79
1, 533327, Control_c, 0, 64, 59
1, 533342, Control_c, 0, 64, 0
1, 533371, Control_c, 0, 64, 24
1, 533386, Control_c, 0, 64, 64
1, 533401, Control_c, 0, 64, 76
1, 533416, Control_c, 0, 64, 90
1, 533431, Control_c, 0, 64, 127
1, 533578, Note_off_c, 0, 91, 39
1, 533598, Note_off_c, 0, 24, 41
1, 533731, Note_off_c, 0, 36, 50
1, 533912, Note_on_c, 0, 77, 38
1, 534050, Note_off_c, 0, 77, 55
1, 534079, Note_on_c, 0, 76, 47
1, 534156, Note_off_c, 0, 76, 52
1, 534203, Note_on_c, 0, 74, 52
1, 534320, Note_off_c, 0, 74, 58
1, 534341, Note_on_c, 0, 76, 57
1, 534350, Note_on_c, 0, 59, 46
1, 534632, Note_off_c, 0, 59, 50
1, 534782, Note_on_c, 0, 89, 65
1, 534874, Note_off_c, 0, 89, 56
1, 534995, Note_off_c, 0, 76, 50
1, 535242, Note_on_c, 0, 88, 60
1, 535256, Control_c, 0, 64, 102
1, 535260, Note_on_c, 0, 74, 53
1, 535271, Control_c, 0, 64, 81
1, 535289, Note_on_c, 0, 26, 61
1, 535293, Control_c, 0, 64, 68
1, 535295, Note_on_c, 0, 38, 55
1, 535308, Control_c, 0, 64, 59
1, 535322, Control_c, 0, 64, 61
1, 535337, Control_c, 0, 64, 66
1, 535352, Control_c, 0, 64, 73
1, 535366, Control_c, 0, 64, 84
1, 535381, Control_c, 0, 64, 102
1, 535396, Control_c, 0, 64, 127
1, 535577, Note_on_c, 0, 79, 58
1, 535586, Note_off_c, 0, 26, 37
1, 535632, Note_off_c, 0, 88, 32
1, 535706, Note_off_c, 0, 38, 55
1, 535798, Note_on_c, 0, 81, 64
1, 535977, Note_on_c, 0, 83, 71
1, 536019, Note_off_c, 0, 81, 56
1, 536038, Note_off_c, 0, 74, 45
1, 536046, Note_off_c, 0, 79, 33
1, 536216, Note_on_c, 0, 81, 71
1, 536220, Note_on_c, 0, 72, 63
1, 536225, Note_on_c, 0, 59, 57
1, 536266, Note_off_c, 0, 83, 59
1, 536358, Note_off_c, 0, 72, 59
1, 536528, Note_off_c, 0, 59, 51
1, 536545, Note_on_c, 0, 71, 73
1, 536654, Note_off_c, 0, 71, 58
1, 536809, Note_on_c, 0, 69, 79
1, 536901, Note_off_c, 0, 69, 52
1, 536982, Control_c, 0, 67, 126
1, 536997, Control_c, 0, 67, 126
1, 537041, Control_c, 0, 67, 125
1, 537085, Note_off_c, 0, 81, 49
1, 537086, Control_c, 0, 64, 108
1, 537091, Note_on_c, 0, 65, 72
1, 537100, Note_on_c, 0, 40, 65
1, 537101, Control_c, 0, 64, 87
1, 537101, Control_c, 0, 67, 125
1, 537102, Note_on_c, 0, 28, 69
1, 537116, Control_c, 0, 64, 73
1, 537116, Control_c, 0, 67, 124
1, 537130, Control_c, 0, 64, 67
1, 537130, Control_c, 0, 67, 124
1, 537145, Control_c, 0, 64, 69
1, 537145, Control_c, 0, 67, 123
1, 537160, Control_c, 0, 64, 75
1, 537160, Control_c, 0, 67, 122
1, 537175, Control_c, 0, 64, 90
1, 537175, Control_c, 0, 67, 120
1, 537190, Control_c, 0, 64, 127
1, 537190, Control_c, 0, 67, 117
1, 537205, Control_c, 0, 67, 114
1, 537219, Control_c, 0, 67, 111
1, 537234, Control_c, 0, 67, 109
1, 537249, Control_c, 0, 67, 107
1, 537263, Control_c, 0, 67, 106
1, 537278, Control_c, 0, 67, 102
1, 537293, Control_c, 0, 67, 100
1, 537309, Control_c, 0, 67, 97
1, 537324, Control_c, 0, 67, 96
1, 537338, Control_c, 0, 67, 94
1, 537348, Note_off_c, 0, 28, 57
1, 537353, Control_c, 0, 67, 93
1, 537362, Note_on_c, 0, 79, 68
1, 537368, Control_c, 0, 67, 92
1, 537383, Control_c, 0, 67, 90
1, 537398, Control_c, 0, 67, 90
1, 537412, Control_c, 0, 67, 89
1, 537427, Control_c, 0, 67, 88
1, 537442, Control_c, 0, 67, 87
1, 537458, Control_c, 0, 67, 86
1, 537469, Note_off_c, 0, 40, 63
1, 537473, Control_c, 0, 67, 85
1, 537488, Control_c, 0, 67, 84
1, 537502, Control_c, 0, 67, 83
1, 537517, Control_c, 0, 67, 82
1, 537539, Control_c, 0, 67, 81
1, 537554, Control_c, 0, 67, 79
1, 537565, Note_on_c, 0, 77, 67
1, 537569, Control_c, 0, 67, 78
1, 537584, Control_c, 0, 67, 76
1, 537599, Control_c, 0, 67, 75
1, 537614, Control_c, 0, 67, 73
1, 537615, Note_off_c, 0, 65, 36
1, 537629, Control_c, 0, 67, 71
1, 537643, Control_c, 0, 67, 69
1, 537658, Control_c, 0, 67, 67
1, 537673, Control_c, 0, 67, 65
1, 537676, Note_off_c, 0, 79, 38
1, 537688, Control_c, 0, 67, 64
1, 537703, Control_c, 0, 67, 61
1, 537717, Control_c, 0, 67, 58
1, 537732, Control_c, 0, 67, 56
1, 537739, Note_on_c, 0, 76, 74
1, 537747, Control_c, 0, 67, 53
1, 537761, Control_c, 0, 67, 50
1, 537776, Control_c, 0, 67, 46
1, 537791, Control_c, 0, 67, 42
1, 537792, Note_off_c, 0, 77, 51
1, 537806, Control_c, 0, 67, 37
1, 537821, Control_c, 0, 67, 33
1, 537835, Control_c, 0, 67, 28
1, 537850, Control_c, 0, 67, 23
1, 537865, Control_c, 0, 67, 18
1, 537879, Control_c, 0, 67, 13
1, 537894, Control_c, 0, 67, 0
1, 537915, Note_on_c, 0, 77, 74
1, 537921, Note_on_c, 0, 67, 70
1, 537933, Note_on_c, 0, 59, 58
1, 538014, Note_off_c, 0, 67, 50
1, 538129, Note_off_c, 0, 59, 58
1, 538305, Note_off_c, 0, 76, 0
1, 538335, Note_on_c, 0, 79, 72
1, 538340, Note_on_c, 0, 69, 64
1, 538357, Note_off_c, 0, 77, 55
1, 538364, Poly_aftertouch_c, 0, 76, 0
1, 538458, Note_on_c, 0, 77, 76
1, 538460, Note_off_c, 0, 69, 35
1, 538477, Note_off_c, 0, 79, 56
1, 538570, Note_on_c, 0, 76, 72
1, 538696, Note_off_c, 0, 77, 34
1, 538712, Note_on_c, 0, 72, 74
1, 538717, Control_c, 0, 64, 103
1, 538725, Note_on_c, 0, 41, 71
1, 538725, Note_on_c, 0, 29, 74
1, 538728, Note_on_c, 0, 64, 69
1, 538732, Control_c, 0, 64, 81
1, 538743, Note_off_c, 0, 76, 55
1, 538747, Control_c, 0, 64, 65
1, 538762, Control_c, 0, 64, 35
1, 538776, Control_c, 0, 64, 45
1, 538791, Control_c, 0, 64, 64
1, 538806, Control_c, 0, 64, 72
1, 538821, Control_c, 0, 64, 85
1, 538836, Control_c, 0, 64, 113
1, 538851, Control_c, 0, 64, 127
1, 538982, Note_off_c, 0, 29, 55
1, 539099, Note_off_c, 0, 41, 60
1, 539548, Note_on_c, 0, 71, 67
1, 539572, Note_on_c, 0, 59, 60
1, 539632, Note_off_c, 0, 72, 58
1, 539760, Note_off_c, 0, 59, 61
1, 539924, Note_on_c, 0, 72, 73
1, 540022, Note_off_c, 0, 71, 60
1, 540317, Note_on_c, 0, 74, 77
1, 540318, Control_c, 0, 64, 94
1, 540333, Control_c, 0, 64, 74
1, 540345, Note_on_c, 0, 31, 68
1, 540345, Note_on_c, 0, 43, 65
1, 540345, Note_off_c, 0, 72, 58
1, 540347, Control_c, 0, 64, 54
1, 540362, Control_c, 0, 64, 0
1, 540377, Note_off_c, 0, 64, 57
1, 540392, Control_c, 0, 64, 50
1, 540407, Control_c, 0, 64, 67
1, 540422, Control_c, 0, 64, 78
1, 540437, Control_c, 0, 64, 96
1, 540451, Control_c, 0, 64, 127
1, 540539, Note_off_c, 0, 74, 61
1, 540579, Note_on_c, 0, 62, 58
1, 540624, Note_off_c, 0, 31, 50
1, 540725, Note_off_c, 0, 62, 59
1, 540763, Note_off_c, 0, 43, 61
1, 540776, Note_on_c, 0, 72, 67
1, 540777, Note_on_c, 0, 64, 74
1, 540878, Note_off_c, 0, 64, 60
1, 540943, Note_on_c, 0, 65, 73
1, 540946, Note_off_c, 0, 72, 56
1, 541091, Note_off_c, 0, 65, 61
1, 541126, Note_on_c, 0, 76, 79
1, 541131, Note_on_c, 0, 67, 77
1, 541142, Note_on_c, 0, 59, 72
1, 541253, Note_off_c, 0, 67, 56
1, 541310, Note_off_c, 0, 76, 59
1, 541310, Note_on_c, 0, 69, 81
1, 541369, Note_off_c, 0, 59, 57
1, 541487, Note_on_c, 0, 74, 83
1, 541492, Note_on_c, 0, 67, 79
1, 541518, Note_off_c, 0, 69, 59
1, 541621, Note_off_c, 0, 67, 58
1, 541622, Note_off_c, 0, 74, 60
1, 541648, Note_on_c, 0, 65, 79
1, 541749, Note_off_c, 0, 65, 60
1, 541874, Control_c, 0, 64, 111
1, 541885, Note_on_c, 0, 77, 78
1, 541889, Control_c, 0, 64, 84
1, 541891, Poly_aftertouch_c, 0, 70, 127
1, 541893, Note_on_c, 0, 64, 81
1, 541899, Note_on_c, 0, 33, 77
1, 541900, Note_on_c, 0, 45, 78
1, 541904, Control_c, 0, 64, 66
1, 541918, Control_c, 0, 64, 0
1, 541933, Poly_aftertouch_c, 0, 70, 0
1, 541963, Control_c, 0, 64, 59
1, 541978, Control_c, 0, 64, 68
1, 541993, Control_c, 0, 64, 80
1, 542007, Control_c, 0, 64, 101
1, 542030, Control_c, 0, 64, 127
1, 542201, Note_off_c, 0, 64, 35
1, 542233, Note_off_c, 0, 33, 56
1, 542344, Note_off_c, 0, 45, 62
1, 542361, Note_on_c, 0, 79, 86
1, 542398, Note_off_c, 0, 77, 62
1, 542709, Note_on_c, 0, 81, 81
1, 542715, Note_on_c, 0, 65, 76
1, 542729, Note_on_c, 0, 59, 75
1, 542848, Note_off_c, 0, 79, 26
1, 542851, Note_off_c, 0, 65, 55
1, 542962, Note_off_c, 0, 59, 57
1, 543005, Note_on_c, 0, 67, 88
1, 543115, Note_off_c, 0, 67, 57
1, 543215, Note_on_c, 0, 69, 89
1, 543316, Note_off_c, 0, 69, 57
1, 543471, Note_on_c, 0, 71, 87
1, 543476, Control_c, 0, 64, 95
1, 543486, Note_on_c, 0, 35, 78
1, 543486, Note_on_c, 0, 47, 81
1, 543490, Control_c, 0, 64, 73
1, 543505, Control_c, 0, 64, 51
1, 543507, Note_off_c, 0, 81, 66
1, 543528, Control_c, 0, 64, 0
1, 543543, Control_c, 0, 64, 59
1, 543558, Control_c, 0, 64, 70
1, 543572, Control_c, 0, 64, 85
1, 543587, Control_c, 0, 64, 127
1, 543726, Note_on_c, 0, 72, 84
1, 543758, Note_off_c, 0, 71, 58
1, 543809, Note_off_c, 0, 35, 61
1, 543903, Note_off_c, 0, 47, 61
1, 543915, Note_on_c, 0, 74, 89
1, 543921, Note_on_c, 0, 69, 82
1, 544079, Note_on_c, 0, 76, 90
1, 544100, Note_off_c, 0, 72, 59
1, 544109, Note_off_c, 0, 69, 61
1, 544120, Note_off_c, 0, 74, 62
1, 544278, Note_on_c, 0, 77, 91
1, 544284, Note_on_c, 0, 67, 87
1, 544289, Note_on_c, 0, 59, 81
1, 544305, Note_off_c, 0, 76, 63
1, 544364, Note_off_c, 0, 67, 47
1, 544492, Note_off_c, 0, 59, 55
1, 544701, Note_on_c, 0, 74, 89
1, 544838, Note_on_c, 0, 72, 92
1, 544938, Note_on_c, 0, 71, 91
1, 544965, Note_off_c, 0, 74, 59
1, 544966, Note_off_c, 0, 72, 58
1, 545070, Control_c, 0, 64, 101
1, 545080, Note_on_c, 0, 69, 88
1, 545085, Control_c, 0, 64, 76
1, 545088, Note_on_c, 0, 48, 87
1, 545089, Note_on_c, 0, 36, 83
1, 545095, Note_off_c, 0, 71, 61
1, 545100, Control_c, 0, 64, 51
1, 545115, Control_c, 0, 64, 0
1, 545144, Control_c, 0, 64, 44
1, 545159, Control_c, 0, 64, 68
1, 545174, Control_c, 0, 64, 79
1, 545189, Control_c, 0, 64, 99
1, 545204, Control_c, 0, 64, 127
1, 545239, Note_off_c, 0, 36, 59
1, 545341, Note_on_c, 0, 76, 86
1, 545450, Note_off_c, 0, 77, 39
1, 545531, Note_on_c, 0, 74, 89
1, 545699, Note_on_c, 0, 72, 92
1, 545723, Note_off_c, 0, 76, 29
1, 545746, Note_off_c, 0, 74, 57
1, 545752, Note_off_c, 0, 69, 24
1, 545900, Note_on_c, 0, 77, 92
1, 545902, Note_on_c, 0, 67, 91
1, 545909, Note_on_c, 0, 59, 86
1, 545924, Note_off_c, 0, 72, 65
1, 546068, Note_off_c, 0, 67, 57
1, 546095, Note_off_c, 0, 59, 53
1, 546226, Note_off_c, 0, 48, 55
1, 546322, Note_on_c, 0, 65, 93
1, 546571, Note_off_c, 0, 65, 48
1, 546725, Note_on_c, 0, 67, 92
1, 546732, Note_on_c, 0, 50, 95
1, 546733, Note_on_c, 0, 38, 84
1, 546745, Control_c, 0, 64, 86
1, 546760, Control_c, 0, 64, 65
1, 546775, Control_c, 0, 64, 0
1, 546804, Control_c, 0, 64, 46
1, 546819, Control_c, 0, 64, 66
1, 546834, Control_c, 0, 64, 76
1, 546848, Control_c, 0, 64, 91
1, 546863, Control_c, 0, 64, 127
1, 546950, Note_off_c, 0, 38, 57
1, 547529, Note_on_c, 0, 76, 87
1, 547542, Note_on_c, 0, 59, 74
1, 547650, Note_off_c, 0, 77, 49
1, 547668, Note_off_c, 0, 59, 55
1, 547807, Note_off_c, 0, 50, 58
1, 547924, Note_on_c, 0, 74, 90
1, 547972, Note_off_c, 0, 76, 56
1, 548095, Note_off_c, 0, 67, 53
1, 548310, Note_on_c, 0, 76, 89
1, 548317, Note_on_c, 0, 65, 85
1, 548318, Control_c, 0, 64, 120
1, 548329, Note_on_c, 0, 52, 90
1, 548332, Note_on_c, 0, 40, 84
1, 548333, Control_c, 0, 64, 86
1, 548348, Control_c, 0, 64, 66
1, 548362, Note_off_c, 0, 74, 56
1, 548362, Control_c, 0, 64, 0
1, 548407, Control_c, 0, 64, 62
1, 548421, Control_c, 0, 64, 72
1, 548436, Control_c, 0, 64, 86
1, 548451, Control_c, 0, 64, 127
1, 548563, Note_off_c, 0, 65, 40
1, 548571, Note_off_c, 0, 40, 62
1, 548773, Note_on_c, 0, 67, 89
1, 548922, Note_off_c, 0, 67, 54
1, 549177, Note_on_c, 0, 69, 81
1, 549182, Note_on_c, 0, 59, 74
1, 549361, Note_on_c, 0, 72, 84
1, 549384, Note_off_c, 0, 59, 57
1, 549437, Note_off_c, 0, 76, 52
1, 549466, Note_off_c, 0, 52, 59
1, 549543, Note_on_c, 0, 74, 89
1, 549634, Note_off_c, 0, 72, 52
1, 549710, Note_on_c, 0, 76, 93
1, 549747, Note_off_c, 0, 74, 65
1, 549919, Control_c, 0, 64, 98
1, 549921, Note_on_c, 0, 77, 85
1, 549927, Note_on_c, 0, 48, 95
1, 549928, Note_on_c, 0, 36, 86
1, 549934, Control_c, 0, 64, 74
1, 549940, Note_off_c, 0, 76, 60
1, 549949, Control_c, 0, 64, 44
1, 549963, Control_c, 0, 64, 0
1, 549978, Control_c, 0, 64, 28
1, 549993, Control_c, 0, 64, 65
1, 550008, Control_c, 0, 64, 79
1, 550023, Control_c, 0, 64, 101
1, 550038, Control_c, 0, 64, 127
1, 550106, Note_off_c, 0, 36, 60
1, 550121, Note_on_c, 0, 79, 86
1, 550143, Note_off_c, 0, 77, 58
1, 550343, Note_on_c, 0, 77, 85
1, 550402, Note_off_c, 0, 79, 61
1, 550560, Note_off_c, 0, 69, 55
1, 550749, Note_on_c, 0, 67, 91
1, 550750, Note_on_c, 0, 59, 78
1, 550943, Note_off_c, 0, 59, 40
1, 550996, Note_off_c, 0, 67, 35
1, 551115, Note_off_c, 0, 48, 59
1, 551150, Control_c, 0, 67, 8
1, 551165, Control_c, 0, 67, 11
1, 551180, Control_c, 0, 67, 13
1, 551195, Control_c, 0, 67, 16
1, 551210, Control_c, 0, 67, 19
1, 551218, Note_on_c, 0, 69, 90
1, 551224, Control_c, 0, 67, 22
1, 551239, Control_c, 0, 67, 25
1, 551254, Control_c, 0, 67, 29
1, 551269, Control_c, 0, 67, 32
1, 551284, Control_c, 0, 67, 34
1, 551299, Control_c, 0, 67, 37
1, 551313, Control_c, 0, 67, 41
1, 551328, Control_c, 0, 67, 44
1, 551343, Control_c, 0, 67, 46
1, 551358, Control_c, 0, 67, 48
1, 551373, Control_c, 0, 67, 50
1, 551387, Control_c, 0, 67, 52
1, 551402, Control_c, 0, 67, 54
1, 551417, Control_c, 0, 67, 57
1, 551431, Control_c, 0, 67, 59
1, 551440, Note_off_c, 0, 77, 57
1, 551446, Control_c, 0, 67, 61
1, 551461, Control_c, 0, 67, 63
1, 551476, Control_c, 0, 67, 65
1, 551491, Control_c, 0, 67, 67
1, 551505, Control_c, 0, 67, 68
1, 551520, Note_off_c, 0, 69, 39
1, 551520, Control_c, 0, 67, 69
1, 551535, Control_c, 0, 67, 70
1, 551550, Control_c, 0, 67, 70
1, 551706, Note_on_c, 0, 77, 80
1, 551714, Note_on_c, 0, 71, 82
1, 551726, Note_on_c, 0, 33, 79
1, 551727, Note_on_c, 0, 45, 79
1, 551728, Control_c, 0, 64, 111
1, 551743, Control_c, 0, 64, 85
1, 551743, Control_c, 0, 67, 70
1, 551765, Control_c, 0, 64, 67
1, 551780, Control_c, 0, 64, 0
1, 551794, Control_c, 0, 67, 69
1, 551809, Control_c, 0, 67, 69
1, 551824, Control_c, 0, 64, 59
1, 551840, Control_c, 0, 64, 69
1, 551855, Control_c, 0, 64, 81
1, 551869, Control_c, 0, 64, 104
1, 551884, Control_c, 0, 64, 127
1, 551914, Control_c, 0, 67, 69
1, 551943, Control_c, 0, 67, 70
1, 551958, Control_c, 0, 67, 70
1, 551973, Control_c, 0, 67, 71
1, 551988, Control_c, 0, 67, 71
1, 552003, Control_c, 0, 67, 72
1, 552017, Control_c, 0, 67, 73
1, 552032, Control_c, 0, 67, 77
1, 552047, Control_c, 0, 67, 82
1, 552054, Note_off_c, 0, 33, 55
1, 552062, Control_c, 0, 67, 85
1, 552077, Control_c, 0, 67, 88
1, 552092, Control_c, 0, 67, 90
1, 552107, Control_c, 0, 67, 92
1, 552122, Control_c, 0, 67, 94
1, 552136, Control_c, 0, 67, 95
1, 552151, Control_c, 0, 67, 96
1, 552166, Control_c, 0, 67, 97
1, 552173, Note_off_c, 0, 45, 61
1, 552181, Control_c, 0, 67, 97
1, 552210, Control_c, 0, 67, 98
1, 552308, Note_on_c, 0, 76, 85
1, 552455, Note_off_c, 0, 77, 33
1, 552467, Note_off_c, 0, 71, 53
1, 552741, Note_on_c, 0, 77, 84
1, 552752, Control_c, 0, 67, 97
1, 552753, Note_on_c, 0, 72, 79
1, 552757, Note_on_c, 0, 59, 76
1, 552790, Note_off_c, 0, 76, 59
1, 552929, Control_c, 0, 67, 97
1, 552989, Control_c, 0, 67, 96
1, 553138, Note_on_c, 0, 79, 87
1, 553167, Note_off_c, 0, 77, 59
1, 553292, Note_off_c, 0, 59, 52
1, 553292, Control_c, 0, 67, 97
1, 553352, Control_c, 0, 67, 97
1, 553396, Control_c, 0, 67, 98
1, 553487, Note_off_c, 0, 72, 45
1, 553602, Note_on_c, 0, 81, 77
1, 553618, Note_on_c, 0, 60, 70
1, 553620, Note_on_c, 0, 71, 79
1, 553639, Note_off_c, 0, 79, 56
1, 553648, Control_c, 0, 64, 115
1, 553663, Control_c, 0, 64, 110
1, 553678, Control_c, 0, 64, 111
1, 553693, Control_c, 0, 64, 127
1, 553752, Control_c, 0, 67, 97
1, 553758, Note_on_c, 0, 83, 74
1, 553763, Note_off_c, 0, 81, 61
1, 553796, Control_c, 0, 67, 97
1, 553845, Note_off_c, 0, 83, 61
1, 553864, Note_on_c, 0, 81, 78
1, 553943, Note_off_c, 0, 81, 59
1, 553952, Note_on_c, 0, 83, 77
1, 553959, Control_c, 0, 67, 96
1, 554012, Note_off_c, 0, 83, 63
1, 554026, Note_on_c, 0, 81, 76
1, 554026, Control_c, 0, 67, 96
1, 554086, Note_off_c, 0, 81, 63
1, 554088, Note_on_c, 0, 83, 81
1, 554123, Note_off_c, 0, 71, 54
1, 554123, Note_off_c, 0, 83, 62
1, 554140, Note_on_c, 0, 81, 74
1, 554144, Control_c, 0, 67, 95
1, 554187, Note_off_c, 0, 81, 60
1, 554188, Control_c, 0, 67, 95
1, 554202, Note_on_c, 0, 83, 80
1, 554233, Note_off_c, 0, 83, 64
1, 554253, Note_on_c, 0, 81, 77
1, 554305, Note_off_c, 0, 81, 64
1, 554308, Note_on_c, 0, 83, 78
1, 554336, Note_off_c, 0, 83, 63
1, 554356, Note_on_c, 0, 81, 70
1, 554393, Note_off_c, 0, 81, 57
1, 554409, Note_on_c, 0, 83, 81
1, 554411, Control_c, 0, 67, 95
1, 554426, Control_c, 0, 67, 96
1, 554438, Note_off_c, 0, 83, 62
1, 554459, Note_on_c, 0, 81, 73
1, 554471, Control_c, 0, 67, 96
1, 554512, Note_off_c, 0, 81, 65
1, 554515, Control_c, 0, 67, 97
1, 554520, Note_on_c, 0, 83, 75
1, 554539, Note_off_c, 0, 83, 72
1, 554560, Control_c, 0, 64, 97
1, 554563, Note_on_c, 0, 81, 71
1, 554569, Note_on_c, 0, 69, 53
1, 554575, Control_c, 0, 64, 79
1, 554587, Note_on_c, 0, 62, 45
1, 554590, Control_c, 0, 64, 67
1, 554590, Control_c, 0, 67, 97
1, 554604, Control_c, 0, 64, 57
1, 554608, Note_off_c, 0, 81, 61
1, 554614, Note_off_c, 0, 60, 54
1, 554619, Control_c, 0, 64, 56
1, 554620, Note_on_c, 0, 83, 74
1, 554634, Control_c, 0, 64, 62
1, 554645, Note_off_c, 0, 83, 66
1, 554648, Control_c, 0, 64, 67
1, 554648, Control_c, 0, 67, 98
1, 554663, Control_c, 0, 64, 76
1, 554668, Note_on_c, 0, 81, 68
1, 554678, Control_c, 0, 64, 88
1, 554678, Control_c, 0, 67, 98
1, 554693, Control_c, 0, 64, 112
1, 554708, Control_c, 0, 64, 127
1, 554708, Control_c, 0, 67, 99
1, 554721, Note_off_c, 0, 81, 64
1, 554730, Note_on_c, 0, 83, 69
1, 554737, Control_c, 0, 67, 100
1, 554760, Control_c, 0, 67, 100
1, 554763, Note_off_c, 0, 83, 69
1, 554775, Control_c, 0, 67, 101
1, 554777, Note_on_c, 0, 81, 65
1, 554789, Control_c, 0, 67, 105
1, 554804, Control_c, 0, 67, 108
1, 554819, Control_c, 0, 67, 109
1, 554829, Note_off_c, 0, 69, 46
1, 554830, Note_off_c, 0, 81, 61
1, 554834, Control_c, 0, 67, 110
1, 554837, Note_on_c, 0, 83, 70
1, 554849, Control_c, 0, 67, 111
1, 554861, Note_off_c, 0, 83, 66
1, 554863, Control_c, 0, 67, 111
1, 554878, Note_on_c, 0, 81, 59
1, 554878, Control_c, 0, 67, 113
1, 554893, Control_c, 0, 67, 114
1, 554908, Control_c, 0, 67, 114
1, 554917, Note_off_c, 0, 62, 37
1, 554923, Control_c, 0, 67, 115
1, 554939, Note_off_c, 0, 81, 63
1, 554951, Note_on_c, 0, 83, 65
1, 554952, Control_c, 0, 67, 116
1, 554975, Note_off_c, 0, 83, 70
1, 554981, Control_c, 0, 67, 116
1, 554995, Note_on_c, 0, 81, 64
1, 555042, Control_c, 0, 67, 117
1, 555043, Note_off_c, 0, 81, 60
1, 555054, Note_on_c, 0, 83, 72
1, 555126, Note_off_c, 0, 83, 57
1, 555129, Note_on_c, 0, 81, 66
1, 555131, Control_c, 0, 67, 117
1, 555160, Control_c, 0, 67, 118
1, 555190, Control_c, 0, 67, 118
1, 555204, Control_c, 0, 67, 119
1, 555219, Control_c, 0, 67, 119
1, 555234, Control_c, 0, 67, 120
1, 555249, Control_c, 0, 67, 121
1, 555264, Control_c, 0, 67, 121
1, 555295, Note_on_c, 0, 79, 71
1, 555330, Note_off_c, 0, 81, 52
1, 555593, Note_on_c, 0, 81, 72
1, 555597, Control_c, 0, 67, 122
1, 555612, Control_c, 0, 67, 122
1, 555642, Control_c, 0, 67, 123
1, 555657, Control_c, 0, 67, 123
1, 555672, Control_c, 0, 67, 126
1, 555686, Control_c, 0, 67, 127
1, 555692, Note_off_c, 0, 79, 51
1, 555960, Note_on_c, 0, 41, 29
1, 555964, Note_on_c, 0, 29, 36
1, 555969, Control_c, 0, 64, 117
1, 555983, Control_c, 0, 64, 105
1, 555998, Control_c, 0, 64, 93
1, 556013, Control_c, 0, 64, 81
1, 556027, Control_c, 0, 64, 69
1, 556029, Note_on_c, 0, 83, 62
1, 556042, Control_c, 0, 64, 48
1, 556049, Note_off_c, 0, 81, 58
1, 556057, Control_c, 0, 64, 0
1, 556131, Control_c, 0, 64, 55
1, 556146, Control_c, 0, 64, 68
1, 556161, Control_c, 0, 64, 79
1, 556176, Control_c, 0, 64, 94
1, 556191, Control_c, 0, 64, 127
1, 556325, Note_off_c, 0, 29, 41
1, 556396, Note_on_c, 0, 84, 57
1, 556399, Note_off_c, 0, 83, 60
1, 556490, Note_off_c, 0, 41, 40
1, 556536, Note_off_c, 0, 84, 61
1, 556545, Note_on_c, 0, 83, 64
1, 556655, Note_off_c, 0, 83, 62
1, 556663, Note_on_c, 0, 84, 69
1, 556766, Note_on_c, 0, 83, 75
1, 556772, Note_off_c, 0, 84, 61
1, 556828, Note_off_c, 0, 83, 61
1, 556855, Note_on_c, 0, 84, 74
1, 556934, Note_off_c, 0, 84, 62
1, 556941, Note_on_c, 0, 83, 76
1, 557014, Note_off_c, 0, 83, 60
1, 557032, Note_on_c, 0, 84, 74
1, 557102, Note_on_c, 0, 68, 40
1, 557112, Note_on_c, 0, 64, 41
1, 557134, Note_on_c, 0, 83, 81
1, 557151, Note_off_c, 0, 84, 60
1, 557210, Note_off_c, 0, 68, 58
1, 557318, Note_off_c, 0, 64, 55
1, 557561, Note_on_c, 0, 84, 78
1, 557848, Note_on_c, 0, 86, 71
1, 557891, Note_off_c, 0, 84, 58
1, 557907, Note_off_c, 0, 83, 60
1, 558080, Control_c, 0, 64, 110
1, 558092, Note_on_c, 0, 31, 35
1, 558095, Control_c, 0, 64, 97
1, 558097, Note_on_c, 0, 43, 30
1, 558110, Control_c, 0, 64, 86
1, 558125, Control_c, 0, 64, 76
1, 558140, Control_c, 0, 64, 65
1, 558155, Control_c, 0, 64, 29
1, 558156, Note_on_c, 0, 81, 65
1, 558170, Control_c, 0, 64, 0
1, 558189, Note_off_c, 0, 86, 54
1, 558199, Control_c, 0, 64, 26
1, 558214, Control_c, 0, 64, 57
1, 558230, Control_c, 0, 64, 67
1, 558244, Control_c, 0, 64, 77
1, 558259, Control_c, 0, 64, 91
1, 558274, Control_c, 0, 64, 127
1, 558371, Note_off_c, 0, 31, 41
1, 558458, Note_on_c, 0, 83, 63
1, 558502, Note_off_c, 0, 43, 50
1, 558511, Note_off_c, 0, 81, 56
1, 558639, Note_on_c, 0, 84, 62
1, 558643, Note_off_c, 0, 83, 60
1, 558766, Note_on_c, 0, 83, 64
1, 558766, Note_off_c, 0, 84, 61
1, 558844, Note_off_c, 0, 83, 62
1, 558870, Note_on_c, 0, 84, 61
1, 558933, Note_off_c, 0, 84, 62
1, 558947, Note_on_c, 0, 83, 66
1, 558987, Note_off_c, 0, 83, 55
1, 559027, Note_on_c, 0, 84, 64
1, 559076, Note_off_c, 0, 84, 55
1, 559081, Note_on_c, 0, 64, 39
1, 559089, Note_on_c, 0, 68, 43
1, 559095, Note_on_c, 0, 83, 67
1, 559126, Note_off_c, 0, 83, 62
1, 559163, Note_on_c, 0, 84, 65
1, 559195, Note_off_c, 0, 68, 58
1, 559201, Note_off_c, 0, 84, 58
1, 559227, Note_on_c, 0, 83, 74
1, 559266, Note_off_c, 0, 83, 60
1, 559299, Note_on_c, 0, 84, 63
1, 559301, Note_off_c, 0, 64, 57
1, 559324, Note_off_c, 0, 84, 67
1, 559347, Note_on_c, 0, 83, 75
1, 559373, Note_off_c, 0, 83, 62
1, 559401, Note_on_c, 0, 84, 66
1, 559452, Note_off_c, 0, 84, 55
1, 559461, Note_on_c, 0, 83, 77
1, 559542, Note_on_c, 0, 81, 78
1, 559547, Note_off_c, 0, 83, 62
1, 559973, Note_on_c, 0, 33, 45
1, 559976, Note_on_c, 0, 45, 43
1, 559980, Control_c, 0, 64, 109
1, 560001, Note_on_c, 0, 79, 78
1, 560002, Control_c, 0, 64, 93
1, 560017, Control_c, 0, 64, 81
1, 560032, Control_c, 0, 64, 68
1, 560047, Control_c, 0, 64, 43
1, 560062, Control_c, 0, 64, 0
1, 560091, Control_c, 0, 64, 42
1, 560106, Control_c, 0, 64, 64
1, 560121, Control_c, 0, 64, 73
1, 560136, Control_c, 0, 64, 86
1, 560150, Control_c, 0, 64, 113
1, 560165, Control_c, 0, 64, 127
1, 560224, Note_off_c, 0, 33, 36
1, 560317, Note_off_c, 0, 45, 45
1, 560452, Note_on_c, 0, 77, 79
1, 560466, Note_off_c, 0, 81, 4
1, 560546, Note_off_c, 0, 79, 53
1, 560864, Note_on_c, 0, 79, 75
1, 560903, Note_on_c, 0, 68, 34
1, 560906, Note_on_c, 0, 64, 38
1, 560924, Note_off_c, 0, 77, 59
1, 561026, Note_off_c, 0, 68, 53
1, 561201, Note_off_c, 0, 64, 52
1, 561330, Note_on_c, 0, 72, 60
1, 561564, Note_off_c, 0, 79, 38
1, 561771, Note_on_c, 0, 74, 65
1, 561780, Control_c, 0, 64, 111
1, 561795, Control_c, 0, 64, 91
1, 561810, Control_c, 0, 64, 77
1, 561815, Note_on_c, 0, 35, 33
1, 561819, Note_on_c, 0, 47, 34
1, 561825, Control_c, 0, 64, 65
1, 561839, Control_c, 0, 64, 23
1, 561854, Control_c, 0, 64, 0
1, 561884, Control_c, 0, 64, 29
1, 561888, Note_off_c, 0, 72, 38
1, 561899, Control_c, 0, 64, 62
1, 561914, Control_c, 0, 64, 70
1, 561929, Control_c, 0, 64, 82
1, 561944, Control_c, 0, 64, 105
1, 561959, Control_c, 0, 64, 127
1, 562012, Note_off_c, 0, 35, 42
1, 562114, Note_off_c, 0, 47, 48
1, 562216, Note_on_c, 0, 76, 65
1, 562677, Note_on_c, 0, 77, 66
1, 562703, Note_on_c, 0, 68, 38
1, 562716, Note_off_c, 0, 74, 55
1, 562716, Note_on_c, 0, 64, 38
1, 562731, Note_off_c, 0, 76, 54
1, 562826, Note_off_c, 0, 68, 53
1, 562910, Note_off_c, 0, 64, 57
1, 563624, Note_on_c, 0, 76, 63
1, 563649, Control_c, 0, 64, 104
1, 563662, Note_on_c, 0, 48, 45
1, 563664, Control_c, 0, 64, 88
1, 563668, Note_off_c, 0, 77, 53
1, 563673, Note_on_c, 0, 36, 47
1, 563679, Control_c, 0, 64, 75
1, 563694, Control_c, 0, 64, 63
1, 563708, Control_c, 0, 64, 53
1, 563723, Control_c, 0, 64, 58
1, 563745, Control_c, 0, 64, 65
1, 563760, Control_c, 0, 64, 71
1, 563775, Control_c, 0, 64, 81
1, 563790, Control_c, 0, 64, 97
1, 563805, Control_c, 0, 64, 127
1, 563894, Note_off_c, 0, 36, 38
1, 563979, Note_off_c, 0, 48, 62
1, 564111, Note_on_c, 0, 77, 67
1, 564232, Note_off_c, 0, 76, 38
1, 564506, Note_on_c, 0, 79, 70
1, 564508, Note_off_c, 0, 77, 54
1, 564534, Note_on_c, 0, 68, 40
1, 564561, Note_on_c, 0, 64, 35
1, 564591, Note_off_c, 0, 79, 61
1, 564681, Note_off_c, 0, 68, 59
1, 564826, Note_off_c, 0, 64, 51
1, 564949, Note_on_c, 0, 81, 72
1, 565081, Note_off_c, 0, 81, 59
1, 565109, Note_on_c, 0, 83, 50
1, 565159, Note_off_c, 0, 83, 59
1, 565197, Note_on_c, 0, 81, 61
1, 565244, Note_off_c, 0, 81, 53
1, 565284, Note_on_c, 0, 83, 54
1, 565309, Note_off_c, 0, 83, 64
1, 565341, Note_on_c, 0, 81, 60
1, 565388, Note_off_c, 0, 81, 57
1, 565397, Note_on_c, 0, 83, 66
1, 565405, Control_c, 0, 64, 116
1, 565421, Control_c, 0, 64, 95
1, 565423, Note_on_c, 0, 43, 46
1, 565425, Note_on_c, 0, 31, 47
1, 565427, Note_off_c, 0, 83, 64
1, 565436, Control_c, 0, 64, 79
1, 565451, Control_c, 0, 64, 67
1, 565461, Note_on_c, 0, 81, 66
1, 565466, Control_c, 0, 64, 59
1, 565481, Control_c, 0, 64, 62
1, 565495, Control_c, 0, 64, 67
1, 565498, Note_off_c, 0, 81, 61
1, 565510, Control_c, 0, 64, 75
1, 565525, Control_c, 0, 64, 84
1, 565530, Note_on_c, 0, 83, 61
1, 565539, Control_c, 0, 64, 94
1, 565548, Note_off_c, 0, 83, 66
1, 565554, Control_c, 0, 64, 103
1, 565569, Control_c, 0, 64, 107
1, 565572, Note_on_c, 0, 81, 68
1, 565584, Control_c, 0, 64, 108
1, 565598, Note_off_c, 0, 31, 40
1, 565613, Control_c, 0, 64, 109
1, 565617, Note_off_c, 0, 81, 55
1, 565624, Note_on_c, 0, 83, 70
1, 565628, Control_c, 0, 64, 111
1, 565643, Control_c, 0, 64, 112
1, 565653, Note_off_c, 0, 83, 65
1, 565658, Control_c, 0, 64, 113
1, 565673, Control_c, 0, 64, 114
1, 565675, Note_on_c, 0, 81, 61
1, 565681, Note_off_c, 0, 43, 59
1, 565688, Control_c, 0, 64, 114
1, 565715, Note_off_c, 0, 81, 55
1, 565732, Control_c, 0, 64, 115
1, 565738, Note_on_c, 0, 83, 68
1, 565747, Control_c, 0, 64, 116
1, 565757, Note_off_c, 0, 83, 68
1, 565762, Control_c, 0, 64, 120
1, 565773, Note_on_c, 0, 81, 67
1, 565777, Control_c, 0, 64, 127
1, 565824, Note_on_c, 0, 83, 75
1, 565828, Note_off_c, 0, 81, 63
1, 565859, Note_off_c, 0, 83, 63
1, 565878, Note_on_c, 0, 81, 58
1, 565920, Note_off_c, 0, 81, 59
1, 565931, Note_on_c, 0, 83, 70
1, 565954, Note_off_c, 0, 83, 69
1, 565971, Note_on_c, 0, 81, 66
1, 566034, Note_off_c, 0, 81, 63
1, 566043, Note_on_c, 0, 83, 70
1, 566066, Note_off_c, 0, 83, 70
1, 566086, Note_on_c, 0, 81, 62
1, 566111, Note_off_c, 0, 81, 65
1, 566142, Note_on_c, 0, 83, 68
1, 566168, Note_off_c, 0, 83, 67
1, 566191, Note_on_c, 0, 81, 73
1, 566219, Note_off_c, 0, 81, 61
1, 566233, Note_on_c, 0, 83, 72
1, 566261, Note_off_c, 0, 83, 65
1, 566272, Note_on_c, 0, 81, 64
1, 566308, Note_on_c, 0, 68, 48
1, 566313, Note_off_c, 0, 81, 63
1, 566320, Note_on_c, 0, 64, 44
1, 566344, Note_on_c, 0, 83, 67
1, 566362, Note_off_c, 0, 83, 68
1, 566387, Note_on_c, 0, 81, 74
1, 566424, Note_off_c, 0, 81, 60
1, 566425, Note_on_c, 0, 83, 76
1, 566477, Note_off_c, 0, 83, 62
1, 566489, Note_on_c, 0, 81, 78
1, 566516, Note_off_c, 0, 81, 62
1, 566540, Control_c, 0, 64, 110
1, 566548, Note_on_c, 0, 79, 76
1, 566555, Control_c, 0, 64, 89
1, 566570, Control_c, 0, 64, 74
1, 566585, Control_c, 0, 64, 62
1, 566599, Note_off_c, 0, 79, 56
1, 566600, Control_c, 0, 64, 45
1, 566608, Note_on_c, 0, 81, 77
1, 566615, Control_c, 0, 64, 55
1, 566629, Control_c, 0, 64, 65
1, 566630, Note_off_c, 0, 81, 65
1, 566644, Control_c, 0, 64, 75
1, 566659, Control_c, 0, 64, 87
1, 566660, Note_on_c, 0, 83, 72
1, 566674, Control_c, 0, 64, 106
1, 566676, Note_off_c, 0, 68, 61
1, 566681, Note_off_c, 0, 83, 71
1, 566689, Control_c, 0, 64, 127
1, 566717, Note_off_c, 0, 64, 61
1, 566732, Note_on_c, 0, 84, 67
1, 566759, Note_off_c, 0, 84, 65
1, 566800, Note_on_c, 0, 86, 68
1, 566832, Note_off_c, 0, 86, 61
1, 566863, Note_on_c, 0, 88, 63
1, 566902, Note_off_c, 0, 88, 61
1, 566922, Note_on_c, 0, 89, 67
1, 566994, Note_off_c, 0, 89, 61
1, 567019, Note_on_c, 0, 91, 53
1, 567113, Note_off_c, 0, 91, 39
1, 567114, Note_on_c, 0, 89, 58
1, 567170, Note_off_c, 0, 89, 46
1, 567196, Note_on_c, 0, 88, 59
1, 567271, Note_off_c, 0, 88, 39
1, 567289, Note_on_c, 0, 86, 55
1, 567318, Note_off_c, 0, 86, 62
1, 567384, Note_on_c, 0, 84, 49
1, 567548, Control_c, 0, 64, 109
1, 567552, Note_on_c, 0, 83, 53
1, 567563, Control_c, 0, 64, 97
1, 567575, Note_off_c, 0, 84, 35
1, 567578, Control_c, 0, 64, 85
1, 567592, Note_on_c, 0, 40, 25
1, 567592, Control_c, 0, 64, 71
1, 567600, Note_on_c, 0, 28, 27
1, 567607, Control_c, 0, 64, 54
1, 567622, Control_c, 0, 64, 0
1, 567696, Control_c, 0, 64, 42
1, 567710, Control_c, 0, 64, 65
1, 567725, Control_c, 0, 64, 74
1, 567730, Note_off_c, 0, 28, 41
1, 567740, Control_c, 0, 64, 87
1, 567755, Control_c, 0, 64, 109
1, 567770, Control_c, 0, 64, 127
1, 567827, Note_off_c, 0, 40, 41
1, 568535, Note_on_c, 0, 68, 32
1, 568544, Note_on_c, 0, 64, 28
1, 568593, Note_off_c, 0, 83, 57
1, 568652, Note_off_c, 0, 68, 58
1, 568734, Note_off_c, 0, 64, 44
1, 569673, Note_on_c, 0, 59, 38
1, 569684, Control_c, 0, 64, 109
1, 569699, Note_on_c, 0, 41, 24
1, 569699, Control_c, 0, 64, 99
1, 569703, Note_on_c, 0, 29, 32
1, 569714, Control_c, 0, 64, 89
1, 569736, Control_c, 0, 64, 78
1, 569751, Control_c, 0, 64, 67
1, 569766, Control_c, 0, 64, 51
1, 569780, Control_c, 0, 64, 11
1, 569795, Control_c, 0, 64, 27
1, 569810, Control_c, 0, 64, 47
1, 569825, Control_c, 0, 64, 60
1, 569840, Control_c, 0, 64, 66
1, 569855, Control_c, 0, 64, 71
1, 569869, Control_c, 0, 64, 80
1, 569884, Control_c, 0, 64, 96
1, 569899, Control_c, 0, 64, 123
1, 569913, Control_c, 0, 64, 127
1, 569986, Note_off_c, 0, 29, 40
1, 570118, Note_off_c, 0, 41, 40
1, 570677, Note_on_c, 0, 52, 33
1, 570824, Note_off_c, 0, 52, 35
1, 570877, Note_on_c, 0, 60, 35
1, 570953, Note_off_c, 0, 59, 34
1, 571073, Note_on_c, 0, 62, 39
1, 571122, Note_off_c, 0, 60, 36
1, 571250, Note_on_c, 0, 64, 46
1, 571277, Note_off_c, 0, 62, 36
1, 571329, Note_off_c, 0, 64, 60
1, 571530, Note_on_c, 0, 65, 41
1, 571558, Control_c, 0, 64, 106
1, 571565, Note_on_c, 0, 43, 37
1, 571573, Control_c, 0, 64, 91
1, 571575, Note_on_c, 0, 31, 39
1, 571588, Control_c, 0, 64, 75
1, 571603, Control_c, 0, 64, 64
1, 571618, Control_c, 0, 64, 47
1, 571632, Control_c, 0, 64, 46
1, 571647, Control_c, 0, 64, 60
1, 571662, Control_c, 0, 64, 66
1, 571676, Control_c, 0, 64, 73
1, 571691, Control_c, 0, 64, 82
1, 571706, Control_c, 0, 64, 95
1, 571709, Note_off_c, 0, 65, 55
1, 571721, Control_c, 0, 64, 110
1, 571736, Control_c, 0, 64, 127
1, 571756, Note_on_c, 0, 67, 39
1, 571771, Note_off_c, 0, 31, 40
1, 571848, Note_off_c, 0, 67, 53
1, 571880, Note_on_c, 0, 65, 32
1, 571951, Note_off_c, 0, 65, 57
1, 572013, Note_on_c, 0, 67, 31
1, 572050, Note_off_c, 0, 67, 51
1, 572085, Note_on_c, 0, 65, 42
1, 572127, Note_off_c, 0, 65, 48
1, 572150, Note_on_c, 0, 67, 44
1, 572195, Note_off_c, 0, 67, 58
1, 572239, Note_on_c, 0, 65, 49
1, 572272, Note_off_c, 0, 65, 59
1, 572326, Note_on_c, 0, 67, 21
1, 572353, Note_on_c, 0, 65, 52
1, 572374, Note_off_c, 0, 67, 41
1, 572424, Note_on_c, 0, 67, 32
1, 572447, Note_off_c, 0, 65, 0
1, 572448, Note_on_c, 0, 52, 43
1, 572466, Note_on_c, 0, 65, 30
1, 572468, Note_off_c, 0, 67, 46
1, 572543, Note_on_c, 0, 67, 35
1, 572574, Note_off_c, 0, 65, 0
1, 572574, Note_on_c, 0, 65, 20
1, 572626, Note_off_c, 0, 52, 36
1, 572630, Note_off_c, 0, 67, 0
1, 572645, Note_on_c, 0, 67, 36
1, 572651, Note_off_c, 0, 65, 0
1, 572687, Note_off_c, 0, 67, 55
1, 572688, Note_on_c, 0, 65, 10
1, 572755, Note_off_c, 0, 43, 40
1, 572758, Note_off_c, 0, 65, 53
1, 572764, Note_on_c, 0, 67, 40
1, 572804, Note_off_c, 0, 67, 56
1, 572813, Note_on_c, 0, 65, 40
1, 572866, Note_off_c, 0, 65, 55
1, 572874, Note_on_c, 0, 67, 42
1, 572914, Note_off_c, 0, 67, 57
1, 572922, Note_on_c, 0, 65, 39
1, 572985, Note_on_c, 0, 67, 44
1, 573006, Note_off_c, 0, 65, 0
1, 573027, Note_on_c, 0, 65, 27
1, 573027, Note_off_c, 0, 67, 56
1, 573100, Note_on_c, 0, 67, 41
1, 573126, Note_off_c, 0, 65, 0
1, 573137, Note_off_c, 0, 67, 58
1, 573145, Note_on_c, 0, 65, 32
1, 573203, Note_off_c, 0, 65, 55
1, 573221, Note_on_c, 0, 67, 39
1, 573250, Note_off_c, 0, 67, 55
1, 573254, Note_on_c, 0, 65, 41
1, 573304, Note_off_c, 0, 65, 62
1, 573353, Note_on_c, 0, 67, 14
1, 573393, Note_on_c, 0, 65, 52
1, 573399, Note_off_c, 0, 67, 47
1, 573399, Control_c, 0, 64, 113
1, 573410, Note_on_c, 0, 45, 41
1, 573414, Control_c, 0, 64, 97
1, 573415, Note_on_c, 0, 33, 39
1, 573428, Control_c, 0, 64, 84
1, 573443, Control_c, 0, 64, 72
1, 573458, Control_c, 0, 64, 60
1, 573480, Control_c, 0, 64, 32
1, 573495, Control_c, 0, 64, 41
1, 573510, Control_c, 0, 64, 57
1, 573525, Control_c, 0, 64, 65
1, 573539, Control_c, 0, 64, 70
1, 573554, Control_c, 0, 64, 77
1, 573569, Control_c, 0, 64, 87
1, 573584, Control_c, 0, 64, 101
1, 573596, Note_off_c, 0, 33, 41
1, 573599, Control_c, 0, 64, 116
1, 573614, Control_c, 0, 64, 127
1, 573837, Note_off_c, 0, 45, 0
1, 573864, Note_on_c, 0, 45, 26
1, 573875, Note_on_c, 0, 67, 58
1, 574085, Note_off_c, 0, 65, 30
1, 574273, Control_c, 0, 64, 116
1, 574288, Control_c, 0, 64, 105
1, 574291, Note_on_c, 0, 69, 52
1, 574303, Control_c, 0, 64, 95
1, 574318, Control_c, 0, 64, 85
1, 574320, Note_off_c, 0, 67, 51
1, 574326, Note_on_c, 0, 52, 41
1, 574332, Control_c, 0, 64, 74
1, 574347, Control_c, 0, 64, 63
1, 574362, Control_c, 0, 64, 44
1, 574377, Control_c, 0, 64, 44
1, 574392, Control_c, 0, 64, 57
1, 574407, Control_c, 0, 64, 64
1, 574422, Control_c, 0, 64, 68
1, 574437, Control_c, 0, 64, 74
1, 574451, Control_c, 0, 64, 83
1, 574466, Control_c, 0, 64, 91
1, 574481, Control_c, 0, 64, 100
1, 574496, Control_c, 0, 64, 107
1, 574510, Control_c, 0, 64, 111
1, 574525, Control_c, 0, 64, 116
1, 574540, Control_c, 0, 64, 127
1, 574616, Note_off_c, 0, 52, 41
1, 574684, Note_off_c, 0, 45, 42
1, 574727, Note_on_c, 0, 67, 46
1, 574804, Note_off_c, 0, 69, 37
1, 575173, Note_on_c, 0, 65, 42
1, 575180, Note_off_c, 0, 67, 51
1, 575200, Control_c, 0, 64, 114
1, 575215, Control_c, 0, 64, 97
1, 575222, Note_on_c, 0, 47, 28
1, 575230, Control_c, 0, 64, 85
1, 575242, Note_on_c, 0, 35, 31
1, 575245, Control_c, 0, 64, 74
1, 575259, Control_c, 0, 64, 65
1, 575274, Control_c, 0, 64, 61
1, 575289, Control_c, 0, 64, 63
1, 575304, Control_c, 0, 64, 67
1, 575318, Control_c, 0, 64, 72
1, 575333, Control_c, 0, 64, 78
1, 575348, Control_c, 0, 64, 86
1, 575363, Control_c, 0, 64, 96
1, 575378, Control_c, 0, 64, 105
1, 575393, Control_c, 0, 64, 115
1, 575407, Control_c, 0, 64, 122
1, 575414, Note_on_c, 0, 67, 38
1, 575422, Control_c, 0, 64, 127
1, 575439, Note_off_c, 0, 65, 29
1, 575442, Note_off_c, 0, 35, 42
1, 575482, Note_off_c, 0, 67, 51
1, 575499, Note_on_c, 0, 65, 25
1, 575569, Note_on_c, 0, 67, 25
1, 575646, Note_off_c, 0, 67, 0
1, 575668, Note_on_c, 0, 67, 24
1, 575733, Note_off_c, 0, 67, 53
1, 575736, Note_off_c, 0, 65, 0
1, 575736, Note_on_c, 0, 65, 16
1, 575802, Note_on_c, 0, 67, 36
1, 575838, Note_off_c, 0, 65, 0
1, 575856, Note_on_c, 0, 65, 31
1, 575894, Note_off_c, 0, 67, 0
1, 575909, Note_on_c, 0, 67, 35
1, 575951, Note_off_c, 0, 65, 0
1, 575967, Note_on_c, 0, 65, 34
1, 576005, Note_off_c, 0, 67, 0
1, 576022, Note_on_c, 0, 67, 26
1, 576043, Note_off_c, 0, 65, 0
1, 576077, Note_off_c, 0, 67, 41
1, 576081, Poly_aftertouch_c, 0, 65, 127
1, 576115, Poly_aftertouch_c, 0, 65, 0
1, 576131, Note_on_c, 0, 52, 28
1, 576136, Note_on_c, 0, 67, 16
1, 576184, Note_on_c, 0, 65, 34
1, 576246, Note_off_c, 0, 67, 27
1, 576362, Note_off_c, 0, 65, 38
1, 576377, Note_on_c, 0, 64, 40
1, 576574, Note_off_c, 0, 64, 51
1, 576610, Note_on_c, 0, 62, 36
1, 576772, Note_off_c, 0, 47, 38
1, 576833, Note_on_c, 0, 64, 41
1, 576842, Note_off_c, 0, 62, 40
1, 576896, Note_off_c, 0, 52, 28
1, 577112, Control_c, 0, 64, 124
1, 577127, Control_c, 0, 64, 120
1, 577142, Control_c, 0, 64, 118
1, 577157, Control_c, 0, 64, 116
1, 577171, Control_c, 0, 64, 114
1, 577186, Control_c, 0, 64, 113
1, 577201, Control_c, 0, 64, 110
1, 577224, Control_c, 0, 64, 108
1, 577239, Control_c, 0, 64, 106
1, 577246, Note_on_c, 0, 65, 34
1, 577253, Control_c, 0, 64, 102
1, 577268, Control_c, 0, 64, 98
1, 577283, Control_c, 0, 64, 92
1, 577297, Control_c, 0, 64, 82
1, 577302, Note_off_c, 0, 64, 38
1, 577312, Control_c, 0, 64, 72
1, 577327, Control_c, 0, 64, 63
1, 577342, Control_c, 0, 64, 44
1, 577357, Control_c, 0, 64, 46
1, 577371, Control_c, 0, 64, 59
1, 577386, Control_c, 0, 64, 66
1, 577402, Control_c, 0, 64, 72
1, 577417, Control_c, 0, 64, 81
1, 577432, Control_c, 0, 64, 93
1, 577447, Control_c, 0, 64, 115
1, 577462, Control_c, 0, 64, 127
1, 577611, Note_on_c, 0, 67, 29
1, 577622, Note_off_c, 0, 65, 44
1, 577726, Note_off_c, 0, 67, 47
1, 577753, Note_on_c, 0, 65, 39
1, 577861, Note_off_c, 0, 65, 38
1, 577865, Note_on_c, 0, 67, 43
1, 577936, Note_off_c, 0, 67, 52
1, 577977, Note_on_c, 0, 65, 39
1, 578049, Note_off_c, 0, 65, 54
1, 578073, Note_on_c, 0, 67, 42
1, 578112, Note_off_c, 0, 67, 60
1, 578147, Note_on_c, 0, 65, 45
1, 578190, Note_off_c, 0, 65, 58
1, 578220, Note_on_c, 0, 67, 51
1, 578261, Note_off_c, 0, 67, 58
1, 578290, Note_on_c, 0, 65, 49
1, 578339, Note_off_c, 0, 65, 57
1, 578376, Note_on_c, 0, 67, 40
1, 578407, Note_off_c, 0, 67, 55
1, 578412, Note_on_c, 0, 65, 44
1, 578470, Note_off_c, 0, 65, 56
1, 578508, Note_on_c, 0, 67, 35
1, 578535, Note_on_c, 0, 65, 44
1, 578539, Note_off_c, 0, 67, 52
1, 578593, Note_off_c, 0, 65, 57
1, 578608, Note_on_c, 0, 67, 41
1, 578647, Note_on_c, 0, 65, 44
1, 578648, Note_off_c, 0, 67, 57
1, 578723, Note_on_c, 0, 67, 48
1, 578744, Note_off_c, 0, 65, 0
1, 578763, Note_on_c, 0, 65, 34
1, 578763, Note_off_c, 0, 67, 59
1, 578829, Note_on_c, 0, 67, 51
1, 578829, Note_off_c, 0, 65, 57
1, 578877, Note_off_c, 0, 67, 54
1, 578879, Note_on_c, 0, 65, 41
1, 578936, Note_on_c, 0, 67, 41
1, 578954, Note_off_c, 0, 65, 0
1, 578979, Note_on_c, 0, 65, 34
1, 578986, Note_off_c, 0, 67, 57
1, 579053, Note_on_c, 0, 67, 48
1, 579062, Note_off_c, 0, 65, 0
1, 579087, Note_on_c, 0, 65, 31
1, 579097, Note_off_c, 0, 67, 54
1, 579161, Note_on_c, 0, 67, 43
1, 579174, Note_off_c, 0, 65, 0
1, 579203, Note_on_c, 0, 65, 22
1, 579218, Note_on_c, 0, 48, 44
1, 579235, Note_on_c, 0, 36, 64
1, 579262, Note_off_c, 0, 67, 0
1, 579277, Note_on_c, 0, 67, 39
1, 579300, Note_off_c, 0, 65, 0
1, 579319, Note_on_c, 0, 65, 33
1, 579328, Note_off_c, 0, 48, 60
1, 579329, Note_off_c, 0, 67, 57
1, 579347, Note_off_c, 0, 36, 56
1, 579389, Note_on_c, 0, 67, 44
1, 579415, Note_off_c, 0, 65, 0
1, 579435, Note_on_c, 0, 65, 34
1, 579442, Note_off_c, 0, 67, 55
1, 579510, Note_on_c, 0, 67, 45
1, 579510, Note_off_c, 0, 65, 59
1, 579559, Note_on_c, 0, 65, 46
1, 579597, Note_off_c, 0, 67, 0
1, 579613, Note_on_c, 0, 67, 44
1, 579624, Note_off_c, 0, 65, 56
1, 579669, Note_on_c, 0, 65, 45
1, 579701, Note_off_c, 0, 67, 0
1, 579717, Note_on_c, 0, 67, 45
1, 579732, Note_off_c, 0, 65, 57
1, 579775, Note_on_c, 0, 65, 48
1, 579780, Note_off_c, 0, 67, 58
1, 579821, Note_on_c, 0, 67, 46
1, 579832, Note_off_c, 0, 65, 61
1, 579883, Note_on_c, 0, 65, 57
1, 579884, Note_off_c, 0, 67, 61
1, 579931, Note_on_c, 0, 67, 50
1, 579937, Note_off_c, 0, 65, 62
1, 579987, Note_on_c, 0, 65, 59
1, 579991, Note_off_c, 0, 67, 57
1, 580034, Note_on_c, 0, 67, 48
1, 580046, Note_off_c, 0, 65, 62
1, 580090, Note_on_c, 0, 65, 52
1, 580092, Note_off_c, 0, 67, 57
1, 580130, Note_on_c, 0, 67, 49
1, 580145, Note_off_c, 0, 65, 61
1, 580192, Note_on_c, 0, 65, 59
1, 580192, Note_off_c, 0, 67, 61
1, 580243, Note_on_c, 0, 67, 51
1, 580251, Note_off_c, 0, 65, 63
1, 580303, Note_off_c, 0, 67, 61
1, 580309, Note_on_c, 0, 65, 61
1, 580351, Note_on_c, 0, 67, 46
1, 580361, Note_off_c, 0, 65, 61
1, 580394, Note_on_c, 0, 28, 61
1, 580410, Note_off_c, 0, 67, 62
1, 580410, Note_on_c, 0, 65, 52
1, 580461, Note_on_c, 0, 67, 44
1, 580497, Note_off_c, 0, 65, 0
1, 580505, Note_off_c, 0, 28, 52
1, 580512, Note_on_c, 0, 65, 42
1, 580516, Note_off_c, 0, 67, 57
1, 580562, Note_on_c, 0, 67, 39
1, 580597, Note_off_c, 0, 65, 0
1, 580616, Note_on_c, 0, 65, 34
1, 580634, Note_off_c, 0, 67, 0
1, 580663, Note_on_c, 0, 67, 31
1, 580711, Note_off_c, 0, 65, 0
1, 580726, Note_on_c, 0, 65, 43
1, 580747, Note_off_c, 0, 67, 0
1, 580767, Note_on_c, 0, 67, 38
1, 580781, Note_off_c, 0, 65, 59
1, 580834, Note_on_c, 0, 65, 49
1, 580855, Note_off_c, 0, 67, 0
1, 580875, Note_on_c, 0, 67, 35
1, 580920, Note_off_c, 0, 65, 0
1, 580938, Note_on_c, 0, 65, 33
1, 580971, Note_off_c, 0, 67, 0
1, 580993, Note_on_c, 0, 67, 26
1, 581026, Note_off_c, 0, 65, 0
1, 581051, Note_on_c, 0, 65, 34
1, 581098, Note_off_c, 0, 67, 0
1, 581098, Note_on_c, 0, 67, 16
1, 581162, Note_off_c, 0, 65, 0
1, 581162, Note_on_c, 0, 65, 18
1, 581236, Note_off_c, 0, 65, 0
1, 581260, Note_on_c, 0, 65, 29
1, 581266, Note_off_c, 0, 67, 0
1, 581303, Poly_aftertouch_c, 0, 67, 127
1, 581305, Note_on_c, 0, 67, 5
1, 581336, Note_off_c, 0, 65, 0
1, 581368, Note_on_c, 0, 65, 25
1, 581457, Note_off_c, 0, 65, 0
1, 581480, Note_on_c, 0, 65, 24
1, 581699, Note_off_c, 0, 65, 0
1, 581699, Note_on_c, 0, 65, 12
1, 581793, Note_off_c, 0, 65, 0
1, 581820, Note_on_c, 0, 65, 22
1, 581841, Note_off_c, 0, 67, 0
1, 581869, Note_on_c, 0, 67, 13
1, 581907, Note_off_c, 0, 65, 0
1, 581940, Note_on_c, 0, 65, 10
1, 581959, Note_off_c, 0, 67, 0
1, 581996, Poly_aftertouch_c, 0, 67, 127
1, 582023, Note_off_c, 0, 65, 0
1, 582054, Note_on_c, 0, 65, 15
1, 582077, Poly_aftertouch_c, 0, 67, 0
1, 582114, Poly_aftertouch_c, 0, 67, 127
1, 582132, Note_off_c, 0, 65, 0
1, 582167, Note_on_c, 0, 65, 15
1, 582227, Note_on_c, 0, 67, 8
1, 582593, Note_off_c, 0, 67, 0
1, 582631, Poly_aftertouch_c, 0, 67, 127
1, 582700, Poly_aftertouch_c, 0, 67, 0
1, 582736, Poly_aftertouch_c, 0, 67, 127
1, 582852, Poly_aftertouch_c, 0, 67, 0
1, 582889, Poly_aftertouch_c, 0, 67, 127
1, 583211, Poly_aftertouch_c, 0, 67, 0
1, 583248, Poly_aftertouch_c, 0, 67, 127
1, 583686, Poly_aftertouch_c, 0, 67, 0
1, 583808, Note_off_c, 0, 65, 28
1, 585215, Control_c, 0, 64, 119
1, 585230, Control_c, 0, 64, 114
1, 585245, Control_c, 0, 64, 111
1, 585260, Control_c, 0, 64, 108
1, 585275, Control_c, 0, 64, 105
1, 585290, Control_c, 0, 64, 101
1, 585304, Control_c, 0, 64, 97
1, 585319, Control_c, 0, 64, 92
1, 585334, Control_c, 0, 64, 86
1, 585349, Control_c, 0, 64, 79
1, 585364, Control_c, 0, 64, 71
1, 585380, Control_c, 0, 64, 63
1, 585395, Control_c, 0, 64, 51
1, 585409, Control_c, 0, 64, 21
1, 585424, Control_c, 0, 64, 0
1, 585654, Control_c, 0, 64, 42
1, 585668, Control_c, 0, 64, 57
1, 585683, Control_c, 0, 64, 63
1, 585698, Control_c, 0, 64, 66
1, 585713, Control_c, 0, 64, 69
1, 585728, Control_c, 0, 64, 71
1, 585742, Control_c, 0, 64, 74
1, 585757, Control_c, 0, 64, 78
1, 585772, Control_c, 0, 64, 81
1, 585787, Control_c, 0, 64, 85
1, 585802, Control_c, 0, 64, 89
1, 585816, Control_c, 0, 64, 93
1, 585831, Control_c, 0, 64, 98
1, 585846, Control_c, 0, 64, 105
1, 585860, Control_c, 0, 64, 113
1, 585875, Control_c, 0, 64, 127
1, 586864, Note_on_c, 0, 47, 19
1, 586864, Note_on_c, 0, 61, 29
1, 586874, Note_on_c, 0, 33, 31
1, 586877, Note_on_c, 0, 52, 27
1, 586892, Note_on_c, 0, 57, 14
1, 588137, Poly_aftertouch_c, 0, 36, 127
1, 588612, Poly_aftertouch_c, 0, 38, 127
1, 593946, Poly_aftertouch_c, 0, 35, 127
1, 594647, Poly_aftertouch_c, 0, 37, 127
1, 595089, Note_off_c, 0, 52, 30
1, 595389, Poly_aftertouch_c, 0, 38, 0
1, 595582, Note_off_c, 0, 33, 15
1, 595700, Note_off_c, 0, 47, 33
1, 595748, Poly_aftertouch_c, 0, 36, 0
1, 595765, Poly_aftertouch_c, 0, 37, 0
1, 595866, Note_off_c, 0, 61, 32
1, 596269, Control_c, 0, 64, 124
1, 596284, Control_c, 0, 64, 120
1, 596299, Control_c, 0, 64, 118
1, 596303, Poly_aftertouch_c, 0, 35, 0
1, 596314, Control_c, 0, 64, 116
1, 596328, Control_c, 0, 64, 114
1, 596343, Control_c, 0, 64, 113
1, 596358, Control_c, 0, 64, 111
1, 596373, Control_c, 0, 64, 110
1, 596387, Control_c, 0, 64, 108
1, 596402, Control_c, 0, 64, 107
1, 596417, Control_c, 0, 64, 106
1, 596432, Control_c, 0, 64, 106
1, 596447, Control_c, 0, 64, 105
1, 596461, Control_c, 0, 64, 104
1, 596475, Control_c, 0, 64, 103
1, 596490, Control_c, 0, 64, 102
1, 596505, Control_c, 0, 64, 101
1, 596520, Control_c, 0, 64, 101
1, 596534, Control_c, 0, 64, 100
1, 596549, Control_c, 0, 64, 99
1, 596565, Control_c, 0, 64, 99
1, 596580, Control_c, 0, 64, 98
1, 596595, Control_c, 0, 64, 97
1, 596609, Control_c, 0, 64, 96
1, 596610, Note_off_c, 0, 57, 39
1, 596624, Control_c, 0, 64, 95
1, 596639, Control_c, 0, 64, 94
1, 596654, Control_c, 0, 64, 94
1, 596669, Control_c, 0, 64, 93
1, 596691, Control_c, 0, 64, 91
1, 596706, Control_c, 0, 64, 90
1, 596721, Control_c, 0, 64, 89
1, 596736, Control_c, 0, 64, 87
1, 596751, Control_c, 0, 64, 85
1, 596765, Control_c, 0, 64, 84
1, 596780, Control_c, 0, 64, 82
1, 596795, Control_c, 0, 64, 80
1, 596810, Control_c, 0, 64, 78
1, 596824, Control_c, 0, 64, 75
1, 596839, Control_c, 0, 64, 72
1, 596854, Control_c, 0, 64, 70
1, 596869, Control_c, 0, 64, 68
1, 596884, Control_c, 0, 64, 67
1, 596913, Control_c, 0, 64, 66
1, 596928, Control_c, 0, 64, 66
1, 596943, Control_c, 0, 64, 64
1, 596958, Control_c, 0, 64, 63
1, 596972, Control_c, 0, 64, 63
1, 596987, Control_c, 0, 64, 62
1, 597313, Control_c, 0, 64, 63
1, 597989, Control_c, 0, 64, 63
1, 598826, Control_c, 0, 64, 64
1, 599821, Control_c, 0, 64, 64
1, 602755, Control_c, 0, 64, 64
1, 603891, Control_c, 0, 64, 63
1, 604928, Control_c, 0, 64, 63
1, 604972, Control_c, 0, 64, 62
1, 605002, Control_c, 0, 64, 62
1, 605061, Control_c, 0, 64, 61
1, 605194, Control_c, 0, 64, 62
1, 605283, Control_c, 0, 64, 62
1, 605298, Control_c, 0, 67, 126
1, 605313, Control_c, 0, 67, 123
1, 605328, Control_c, 0, 67, 119
1, 605343, Control_c, 0, 67, 114
1, 605358, Control_c, 0, 67, 106
1, 605373, Control_c, 0, 67, 97
1, 605387, Control_c, 0, 67, 87
1, 605402, Control_c, 0, 67, 77
1, 605417, Control_c, 0, 67, 65
1, 605432, Control_c, 0, 67, 55
1, 605447, Control_c, 0, 67, 46
1, 605462, Control_c, 0, 67, 36
1, 605477, Control_c, 0, 67, 27
1, 605492, Control_c, 0, 67, 16
1, 605507, Control_c, 0, 67, 0
1, 605582, End_track
0, 0, End_of_file
