0, 0, Header, 0, 1, 384
1, 0, Start_track
1, 0, Title_t, "BeethovenOp57_1--Guo            "
1, 0, Text_t, "2011 ePiano Junior Competition"
1, 0, Text_t, "captured in spring and summer 2011"
1, 0, Text_t, "http://www.piano-e-competition.com/"
1, 0, Text_t, "standard-resolution version"
1, 0, Text_t, "File processed for distribution with software designed and coded by Dr. John Q. Walker, founder of Zenph Sound Innovations"
1, 0, Instrument_name_t, "Yamaha Disklavier Pro Mark IV concert grand piano, model DCFIIISM4PRO"
1, 0, Sequencer_specific, 39, 67, 113, 0, 1, 0, 1, 0, 66, 101, 101, 116, 104, 111, 118, 101, 110, 83, 111, 110, 79, 112, 53, 55, 90, 104, 105, 104, 101, 110, 103, 32, 71, 117, 111, 32, 32, 32, 32, 32
1, 0, Sequencer_specific, 6, 67, 113, 0, 0, 0, 69
1, 0, System_exclusive, 21, 67, 113, 126, 21, 0, 2, 2, 2, 5, 12, 8, 4, 14, 1, 0, 13, 0, 1, 5, 1, 247
1, 0, Sequencer_specific, 5, 67, 123, 12, 2, 1
1, 0, Tempo, 512820
1, 0, Time_signature, 4, 2, 24, 8
1, 0, System_exclusive, 5, 126, 127, 9, 1, 247
1, 1, System_exclusive, 8, 67, 16, 76, 0, 0, 126, 0, 247
1, 2, System_exclusive, 8, 67, 16, 76, 8, 9, 7, 1, 247
1, 3, Control_c, 0, 0, 108
1, 3, Control_c, 1, 0, 108
1, 3, Control_c, 2, 0, 0
1, 3, Control_c, 3, 0, 0
1, 3, Control_c, 4, 0, 0
1, 3, Control_c, 5, 0, 0
1, 3, Control_c, 6, 0, 0
1, 3, Control_c, 7, 0, 0
1, 3, Control_c, 8, 0, 0
1, 3, Control_c, 9, 0, 127
1, 3, Control_c, 10, 0, 0
1, 3, Control_c, 11, 0, 0
1, 3, Control_c, 12, 0, 0
1, 3, Control_c, 13, 0, 0
1, 3, Control_c, 14, 0, 0
1, 3, Control_c, 15, 0, 0
1, 4, Control_c, 0, 32, 0
1, 4, Control_c, 1, 32, 0
1, 4, Control_c, 2, 32, 0
1, 4, Control_c, 3, 32, 0
1, 4, Control_c, 4, 32, 0
1, 4, Control_c, 5, 32, 0
1, 4, Control_c, 6, 32, 0
1, 4, Control_c, 7, 32, 0
1, 4, Control_c, 8, 32, 0
1, 4, Control_c, 9, 32, 0
1, 4, Control_c, 10, 32, 0
1, 4, Control_c, 11, 32, 0
1, 4, Control_c, 12, 32, 0
1, 4, Control_c, 13, 32, 0
1, 4, Control_c, 14, 32, 0
1, 4, Control_c, 15, 32, 0
1, 5, Program_c, 0, 0
1, 5, Program_c, 1, 0
1, 5, Program_c, 2, 0
1, 5, Program_c, 3, 0
1, 5, Program_c, 4, 0
1, 5, Program_c, 5, 0
1, 5, Program_c, 6, 0
1, 5, Program_c, 7, 0
1, 5, Program_c, 8, 0
1, 5, Program_c, 9, 0
1, 5, Program_c, 10, 0
1, 5, Program_c, 11, 0
1, 5, Program_c, 12, 0
1, 5, Program_c, 13, 0
1, 5, Program_c, 14, 0
1, 5, Program_c, 15, 0
1, 6, Control_c, 0, 7, 100
1, 6, Control_c, 1, 7, 100
1, 6, Control_c, 2, 7, 100
1, 6, Control_c, 3, 7, 100
1, 6, Control_c, 4, 7, 100
1, 6, Control_c, 5, 7, 100
1, 6, Control_c, 6, 7, 100
1, 6, Control_c, 7, 7, 100
1, 6, Control_c, 8, 7, 100
1, 6, Control_c, 9, 7, 100
1, 6, Control_c, 10, 7, 100
1, 6, Control_c, 11, 7, 100
1, 6, Control_c, 12, 7, 100
1, 6, Control_c, 13, 7, 100
1, 6, Control_c, 14, 7, 100
1, 6, Control_c, 15, 7, 100
1, 386, Control_c, 0, 67, 112
1, 386, Note_on_c, 0, 60, 38
1, 395, Note_on_c, 0, 36, 37
1, 445, Control_c, 0, 67, 113
1, 764, Note_on_c, 0, 32, 45
1, 773, Note_on_c, 0, 56, 40
1, 809, Control_c, 0, 67, 114
1, 838, Note_off_c, 0, 60, 28
1, 843, Note_off_c, 0, 36, 34
1, 848, Note_on_c, 0, 29, 40
1, 853, Note_on_c, 0, 53, 41
1, 858, Note_off_c, 0, 32, 49
1, 900, Note_off_c, 0, 56, 35
1, 956, Control_c, 0, 67, 114
1, 2175, Note_on_c, 0, 56, 40
1, 2180, Note_on_c, 0, 32, 38
1, 2326, Note_off_c, 0, 29, 41
1, 2481, Note_on_c, 0, 60, 49
1, 2487, Note_off_c, 0, 53, 41
1, 2512, Note_on_c, 0, 36, 32
1, 2545, Note_off_c, 0, 56, 42
1, 2563, Note_off_c, 0, 32, 43
1, 2578, Note_on_c, 0, 65, 50
1, 2580, Note_on_c, 0, 41, 46
1, 2594, Note_off_c, 0, 36, 56
1, 2598, Note_off_c, 0, 60, 61
1, 2663, Control_c, 0, 67, 115
1, 3021, Note_on_c, 0, 68, 56
1, 3029, Note_on_c, 0, 44, 45
1, 3083, Note_off_c, 0, 41, 37
1, 3189, Control_c, 0, 67, 115
1, 3307, Control_c, 0, 67, 116
1, 3344, Note_on_c, 0, 48, 44
1, 3352, Control_c, 0, 67, 117
1, 3355, Note_on_c, 0, 72, 61
1, 3364, Note_off_c, 0, 68, 62
1, 3366, Control_c, 0, 67, 117
1, 3396, Control_c, 0, 67, 118
1, 3411, Control_c, 0, 67, 119
1, 3416, Note_off_c, 0, 44, 35
1, 3425, Control_c, 0, 67, 120
1, 3439, Note_off_c, 0, 48, 62
1, 3441, Note_off_c, 0, 72, 62
1, 3442, Note_off_c, 0, 65, 36
1, 3443, Note_on_c, 0, 77, 60
1, 3453, Note_on_c, 0, 53, 47
1, 3455, Control_c, 0, 67, 120
1, 3558, Control_c, 0, 67, 121
1, 3581, Control_c, 0, 67, 122
1, 3596, Control_c, 0, 67, 123
1, 3611, Control_c, 0, 67, 124
1, 3685, Control_c, 0, 67, 123
1, 3715, Control_c, 0, 67, 122
1, 3730, Control_c, 0, 67, 122
1, 3745, Control_c, 0, 67, 121
1, 3760, Control_c, 0, 67, 120
1, 3790, Control_c, 0, 67, 120
1, 3819, Control_c, 0, 67, 119
1, 3834, Control_c, 0, 67, 118
1, 3848, Control_c, 0, 67, 117
1, 3863, Control_c, 0, 64, 32
1, 3878, Control_c, 0, 64, 49
1, 3893, Control_c, 0, 64, 57
1, 3908, Control_c, 0, 64, 61
1, 3915, Note_on_c, 0, 65, 42
1, 3920, Note_on_c, 0, 56, 36
1, 3922, Control_c, 0, 64, 63
1, 3937, Control_c, 0, 64, 63
1, 3952, Control_c, 0, 64, 64
1, 3952, Control_c, 0, 67, 117
1, 3966, Control_c, 0, 64, 66
1, 3966, Control_c, 0, 67, 116
1, 3981, Control_c, 0, 64, 68
1, 3981, Control_c, 0, 67, 115
1, 3994, Note_off_c, 0, 53, 53
1, 3996, Control_c, 0, 64, 71
1, 4000, Note_off_c, 0, 77, 32
1, 4011, Control_c, 0, 64, 73
1, 4026, Control_c, 0, 64, 76
1, 4040, Control_c, 0, 64, 78
1, 4055, Control_c, 0, 64, 81
1, 4070, Control_c, 0, 64, 85
1, 4085, Control_c, 0, 64, 88
1, 4100, Control_c, 0, 64, 90
1, 4115, Control_c, 0, 64, 91
1, 4144, Control_c, 0, 64, 91
1, 4150, Note_off_c, 0, 65, 61
1, 4159, Control_c, 0, 64, 93
1, 4174, Control_c, 0, 64, 97
1, 4189, Control_c, 0, 64, 101
1, 4204, Control_c, 0, 64, 104
1, 4219, Control_c, 0, 64, 106
1, 4248, Control_c, 0, 64, 105
1, 4293, Control_c, 0, 64, 106
1, 4308, Control_c, 0, 64, 107
1, 4448, Control_c, 0, 64, 105
1, 4463, Control_c, 0, 64, 104
1, 4478, Control_c, 0, 64, 104
1, 4493, Note_on_c, 0, 72, 54
1, 4493, Control_c, 0, 64, 103
1, 4497, Note_on_c, 0, 60, 35
1, 4503, Note_on_c, 0, 55, 36
1, 4508, Note_on_c, 0, 52, 38
1, 4508, Control_c, 0, 64, 102
1, 4523, Control_c, 0, 64, 99
1, 4538, Control_c, 0, 64, 95
1, 4553, Control_c, 0, 64, 87
1, 4568, Control_c, 0, 64, 80
1, 4583, Control_c, 0, 64, 74
1, 4597, Control_c, 0, 64, 68
1, 4602, Note_off_c, 0, 56, 36
1, 4612, Control_c, 0, 64, 64
1, 4627, Control_c, 0, 64, 62
1, 4642, Control_c, 0, 64, 61
1, 4642, Control_c, 0, 67, 116
1, 4657, Control_c, 0, 64, 61
1, 4701, Control_c, 0, 64, 60
1, 4716, Control_c, 0, 64, 60
1, 4716, Control_c, 0, 67, 117
1, 5012, Control_c, 0, 64, 60
1, 5123, Control_c, 0, 64, 61
1, 5161, Note_on_c, 0, 74, 62
1, 5276, Note_off_c, 0, 60, 42
1, 5286, Note_off_c, 0, 72, 37
1, 5301, Control_c, 0, 67, 117
1, 5413, Note_off_c, 0, 74, 63
1, 5417, Note_on_c, 0, 59, 57
1, 5422, Note_on_c, 0, 53, 47
1, 5427, Note_on_c, 0, 56, 44
1, 5427, Note_on_c, 0, 72, 63
1, 5479, Note_off_c, 0, 52, 41
1, 5499, Note_off_c, 0, 72, 64
1, 5501, Note_off_c, 0, 55, 44
1, 5509, Control_c, 0, 67, 118
1, 5514, Note_on_c, 0, 74, 60
1, 5554, Control_c, 0, 67, 119
1, 5562, Note_off_c, 0, 74, 63
1, 5568, Control_c, 0, 64, 61
1, 5569, Note_on_c, 0, 76, 62
1, 5614, Control_c, 0, 67, 119
1, 5620, Note_off_c, 0, 76, 61
1, 5635, Note_on_c, 0, 74, 58
1, 5681, Note_off_c, 0, 74, 62
1, 5691, Note_on_c, 0, 76, 53
1, 5736, Note_off_c, 0, 76, 61
1, 5746, Note_on_c, 0, 74, 57
1, 5790, Note_off_c, 0, 74, 64
1, 5809, Note_on_c, 0, 76, 56
1, 5855, Note_off_c, 0, 76, 65
1, 5866, Note_on_c, 0, 74, 53
1, 5912, Note_off_c, 0, 74, 64
1, 5917, Note_off_c, 0, 59, 38
1, 5931, Note_on_c, 0, 76, 64
1, 5987, Note_off_c, 0, 76, 63
1, 5990, Note_on_c, 0, 74, 56
1, 6046, Note_off_c, 0, 74, 60
1, 6060, Note_on_c, 0, 72, 58
1, 6109, Note_on_c, 0, 76, 57
1, 6112, Note_off_c, 0, 72, 59
1, 6140, Control_c, 0, 64, 61
1, 6185, Control_c, 0, 64, 60
1, 6195, Note_off_c, 0, 76, 61
1, 6197, Note_on_c, 0, 74, 57
1, 6214, Control_c, 0, 64, 60
1, 6229, Control_c, 0, 64, 59
1, 6243, Control_c, 0, 64, 58
1, 6258, Control_c, 0, 64, 58
1, 6273, Control_c, 0, 64, 56
1, 6273, Control_c, 0, 67, 120
1, 6279, Note_on_c, 0, 60, 26
1, 6281, Note_off_c, 0, 74, 56
1, 6286, Note_on_c, 0, 55, 31
1, 6288, Control_c, 0, 64, 55
1, 6290, Note_on_c, 0, 72, 50
1, 6303, Note_on_c, 0, 52, 28
1, 6303, Control_c, 0, 64, 54
1, 6318, Control_c, 0, 64, 53
1, 6332, Control_c, 0, 64, 52
1, 6332, Control_c, 0, 67, 120
1, 6346, Note_off_c, 0, 53, 30
1, 6347, Control_c, 0, 64, 51
1, 6362, Control_c, 0, 64, 50
1, 6364, Note_off_c, 0, 56, 32
1, 6377, Control_c, 0, 64, 49
1, 6392, Control_c, 0, 64, 49
1, 6392, Control_c, 0, 67, 121
1, 6437, Control_c, 0, 67, 122
1, 6466, Control_c, 0, 67, 122
1, 6592, Control_c, 0, 64, 49
1, 6637, Control_c, 0, 64, 50
1, 6696, Control_c, 0, 64, 50
1, 6699, Note_off_c, 0, 72, 63
1, 6702, Note_off_c, 0, 60, 55
1, 6708, Note_off_c, 0, 55, 45
1, 6711, Note_off_c, 0, 52, 55
1, 6755, Control_c, 0, 67, 122
1, 6814, Control_c, 0, 64, 51
1, 6858, Control_c, 0, 64, 51
1, 6919, Control_c, 0, 67, 121
1, 7066, Control_c, 0, 64, 52
1, 7289, Control_c, 0, 67, 120
1, 7607, Control_c, 0, 64, 52
1, 7607, Control_c, 0, 67, 120
1, 7815, Control_c, 0, 64, 53
1, 7927, Note_on_c, 0, 61, 36
1, 7927, Note_on_c, 0, 37, 21
1, 7977, Control_c, 0, 64, 53
1, 8337, Note_on_c, 0, 34, 38
1, 8351, Note_on_c, 0, 58, 40
1, 8425, Note_off_c, 0, 37, 41
1, 8426, Note_off_c, 0, 58, 51
1, 8428, Note_on_c, 0, 30, 35
1, 8428, Control_c, 0, 67, 120
1, 8438, Note_on_c, 0, 54, 39
1, 8442, Note_off_c, 0, 61, 31
1, 8500, Note_off_c, 0, 34, 43
1, 9222, Control_c, 0, 64, 54
1, 9372, Control_c, 0, 64, 54
1, 9431, Control_c, 0, 64, 55
1, 9660, Control_c, 0, 64, 55
1, 9739, Note_on_c, 0, 34, 39
1, 9753, Note_on_c, 0, 58, 37
1, 9868, Control_c, 0, 67, 121
1, 9942, Control_c, 0, 64, 56
1, 9965, Note_off_c, 0, 30, 36
1, 10085, Note_on_c, 0, 61, 50
1, 10098, Note_off_c, 0, 54, 43
1, 10100, Note_on_c, 0, 37, 39
1, 10127, Note_off_c, 0, 58, 57
1, 10148, Note_off_c, 0, 34, 49
1, 10180, Note_on_c, 0, 66, 53
1, 10182, Note_on_c, 0, 42, 47
1, 10192, Note_off_c, 0, 61, 61
1, 10224, Note_off_c, 0, 37, 55
1, 10335, Control_c, 0, 64, 56
1, 10618, Note_on_c, 0, 46, 51
1, 10618, Note_on_c, 0, 70, 64
1, 10722, Note_off_c, 0, 42, 36
1, 10808, Control_c, 0, 67, 122
1, 10937, Note_on_c, 0, 73, 63
1, 10938, Note_on_c, 0, 49, 46
1, 10965, Note_off_c, 0, 70, 63
1, 10966, Note_off_c, 0, 46, 56
1, 10999, Note_off_c, 0, 66, 14
1, 11031, Note_on_c, 0, 78, 62
1, 11036, Note_off_c, 0, 73, 63
1, 11061, Note_off_c, 0, 49, 60
1, 11062, Note_on_c, 0, 54, 45
1, 11099, Control_c, 0, 67, 122
1, 11128, Control_c, 0, 64, 56
1, 11143, Control_c, 0, 64, 55
1, 11158, Control_c, 0, 64, 54
1, 11173, Control_c, 0, 64, 52
1, 11187, Control_c, 0, 64, 50
1, 11202, Control_c, 0, 64, 47
1, 11202, Control_c, 0, 67, 123
1, 11217, Control_c, 0, 64, 46
1, 11232, Control_c, 0, 64, 45
1, 11291, Control_c, 0, 64, 46
1, 11305, Control_c, 0, 64, 49
1, 11320, Control_c, 0, 64, 52
1, 11335, Control_c, 0, 64, 55
1, 11350, Control_c, 0, 64, 57
1, 11365, Control_c, 0, 64, 59
1, 11379, Control_c, 0, 64, 61
1, 11394, Control_c, 0, 64, 63
1, 11409, Control_c, 0, 64, 64
1, 11424, Control_c, 0, 64, 66
1, 11439, Control_c, 0, 64, 68
1, 11454, Control_c, 0, 64, 70
1, 11469, Control_c, 0, 64, 73
1, 11483, Control_c, 0, 64, 77
1, 11498, Control_c, 0, 64, 81
1, 11513, Control_c, 0, 64, 85
1, 11519, Note_on_c, 0, 66, 52
1, 11528, Control_c, 0, 64, 89
1, 11540, Note_on_c, 0, 58, 41
1, 11543, Control_c, 0, 64, 93
1, 11558, Control_c, 0, 64, 96
1, 11573, Control_c, 0, 64, 98
1, 11587, Control_c, 0, 64, 99
1, 11594, Note_off_c, 0, 54, 54
1, 11701, Note_off_c, 0, 78, 24
1, 11788, Note_off_c, 0, 66, 50
1, 11922, Control_c, 0, 64, 98
1, 12010, Control_c, 0, 64, 97
1, 12025, Control_c, 0, 64, 95
1, 12040, Control_c, 0, 64, 94
1, 12055, Control_c, 0, 64, 93
1, 12069, Control_c, 0, 64, 93
1, 12084, Control_c, 0, 64, 92
1, 12099, Control_c, 0, 64, 90
1, 12104, Note_on_c, 0, 73, 55
1, 12111, Note_on_c, 0, 53, 32
1, 12114, Control_c, 0, 64, 87
1, 12120, Note_on_c, 0, 61, 34
1, 12129, Control_c, 0, 64, 83
1, 12136, Note_on_c, 0, 56, 26
1, 12143, Control_c, 0, 64, 78
1, 12158, Control_c, 0, 64, 74
1, 12173, Control_c, 0, 64, 71
1, 12173, Control_c, 0, 67, 124
1, 12188, Control_c, 0, 64, 68
1, 12203, Control_c, 0, 64, 66
1, 12217, Control_c, 0, 64, 65
1, 12232, Control_c, 0, 64, 63
1, 12235, Note_off_c, 0, 58, 31
1, 12247, Control_c, 0, 64, 62
1, 12261, Control_c, 0, 64, 62
1, 12261, Control_c, 0, 67, 124
1, 12276, Control_c, 0, 64, 61
1, 12291, Control_c, 0, 64, 61
1, 12321, Control_c, 0, 64, 60
1, 12336, Control_c, 0, 67, 125
1, 12396, Control_c, 0, 64, 60
1, 12425, Control_c, 0, 64, 59
1, 12440, Control_c, 0, 64, 59
1, 12455, Control_c, 0, 64, 58
1, 12470, Control_c, 0, 64, 57
1, 12485, Control_c, 0, 64, 57
1, 12500, Control_c, 0, 64, 56
1, 12515, Control_c, 0, 64, 55
1, 12530, Control_c, 0, 64, 54
1, 12545, Control_c, 0, 64, 54
1, 12566, Control_c, 0, 64, 53
1, 12626, Control_c, 0, 64, 53
1, 12744, Note_on_c, 0, 75, 66
1, 12774, Control_c, 0, 64, 53
1, 12852, Note_off_c, 0, 73, 47
1, 12863, Control_c, 0, 64, 54
1, 12948, Note_off_c, 0, 61, 42
1, 12952, Control_c, 0, 64, 54
1, 12975, Note_on_c, 0, 57, 58
1, 12977, Note_on_c, 0, 60, 64
1, 12986, Note_on_c, 0, 54, 50
1, 13013, Note_off_c, 0, 75, 63
1, 13025, Note_on_c, 0, 73, 62
1, 13025, Control_c, 0, 64, 55
1, 13039, Note_off_c, 0, 53, 49
1, 13055, Note_off_c, 0, 56, 42
1, 13107, Note_off_c, 0, 73, 63
1, 13120, Note_on_c, 0, 75, 68
1, 13130, Control_c, 0, 64, 55
1, 13180, Note_off_c, 0, 75, 63
1, 13183, Note_on_c, 0, 77, 69
1, 13236, Note_off_c, 0, 77, 59
1, 13239, Note_on_c, 0, 75, 68
1, 13298, Note_off_c, 0, 75, 63
1, 13314, Note_on_c, 0, 77, 63
1, 13357, Note_off_c, 0, 77, 62
1, 13361, Note_on_c, 0, 75, 66
1, 13421, Note_off_c, 0, 75, 63
1, 13427, Note_on_c, 0, 77, 57
1, 13468, Note_off_c, 0, 77, 63
1, 13476, Note_on_c, 0, 75, 64
1, 13492, Note_off_c, 0, 60, 56
1, 13513, Note_off_c, 0, 75, 63
1, 13529, Note_on_c, 0, 77, 62
1, 13594, Note_on_c, 0, 75, 68
1, 13600, Note_off_c, 0, 77, 59
1, 13659, Note_off_c, 0, 75, 59
1, 13671, Note_on_c, 0, 73, 54
1, 13710, Note_off_c, 0, 73, 62
1, 13745, Note_on_c, 0, 77, 53
1, 13803, Note_off_c, 0, 77, 59
1, 13817, Note_on_c, 0, 75, 57
1, 13886, Note_on_c, 0, 61, 27
1, 13896, Note_on_c, 0, 56, 20
1, 13896, Note_on_c, 0, 73, 54
1, 13898, Note_off_c, 0, 75, 57
1, 13916, Note_on_c, 0, 53, 22
1, 13966, Note_off_c, 0, 57, 34
1, 13978, Note_off_c, 0, 54, 42
1, 14357, Note_off_c, 0, 73, 50
1, 14368, Note_off_c, 0, 53, 45
1, 14368, Note_off_c, 0, 56, 48
1, 14390, Note_off_c, 0, 61, 47
1, 15466, Note_on_c, 0, 72, 52
1, 15473, Note_on_c, 0, 64, 36
1, 15473, Note_on_c, 0, 67, 40
1, 16107, Note_on_c, 0, 74, 74
1, 16234, Note_off_c, 0, 72, 39
1, 16360, Note_on_c, 0, 65, 51
1, 16361, Note_on_c, 0, 71, 64
1, 16366, Note_on_c, 0, 68, 58
1, 16375, Note_off_c, 0, 74, 64
1, 16382, Note_on_c, 0, 72, 70
1, 16417, Note_off_c, 0, 64, 36
1, 16459, Note_off_c, 0, 72, 65
1, 16473, Note_on_c, 0, 74, 63
1, 16480, Note_off_c, 0, 67, 32
1, 16488, Control_c, 0, 67, 125
1, 16521, Note_on_c, 0, 76, 67
1, 16522, Note_off_c, 0, 74, 63
1, 16570, Note_off_c, 0, 76, 61
1, 16584, Note_on_c, 0, 74, 60
1, 16637, Note_off_c, 0, 74, 62
1, 16642, Note_on_c, 0, 76, 51
1, 16695, Note_on_c, 0, 74, 59
1, 16699, Note_off_c, 0, 76, 59
1, 16745, Note_on_c, 0, 76, 50
1, 16747, Note_off_c, 0, 74, 62
1, 16795, Note_off_c, 0, 76, 65
1, 16806, Note_on_c, 0, 74, 53
1, 16855, Note_off_c, 0, 74, 64
1, 16859, Note_on_c, 0, 76, 69
1, 16921, Note_off_c, 0, 76, 63
1, 16927, Note_on_c, 0, 74, 61
1, 16986, Note_off_c, 0, 74, 61
1, 16992, Note_on_c, 0, 72, 60
1, 17055, Note_on_c, 0, 76, 56
1, 17059, Note_off_c, 0, 72, 60
1, 17138, Note_off_c, 0, 76, 60
1, 17144, Note_on_c, 0, 74, 51
1, 17153, Note_off_c, 0, 71, 47
1, 17202, Note_on_c, 0, 67, 30
1, 17205, Note_off_c, 0, 74, 54
1, 17208, Note_off_c, 0, 68, 37
1, 17211, Note_on_c, 0, 72, 50
1, 17228, Note_on_c, 0, 64, 24
1, 17247, Note_off_c, 0, 65, 35
1, 17268, Control_c, 0, 64, 55
1, 17335, Note_off_c, 0, 67, 63
1, 17356, Note_off_c, 0, 64, 58
1, 17372, Note_off_c, 0, 72, 61
1, 17386, Control_c, 0, 64, 54
1, 17680, Note_on_c, 0, 37, 67
1, 17725, Note_off_c, 0, 37, 62
1, 17846, Note_on_c, 0, 37, 47
1, 17880, Note_off_c, 0, 37, 59
1, 17973, Note_on_c, 0, 37, 48
1, 18019, Note_off_c, 0, 37, 59
1, 18134, Note_on_c, 0, 36, 38
1, 18463, Note_off_c, 0, 36, 53
1, 18942, Control_c, 0, 67, 125
1, 19102, Note_on_c, 0, 76, 53
1, 19106, Note_on_c, 0, 73, 41
1, 19107, Note_on_c, 0, 67, 37
1, 19107, Note_on_c, 0, 70, 39
1, 19208, Control_c, 0, 67, 124
1, 19305, Control_c, 0, 67, 124
1, 19349, Control_c, 0, 67, 123
1, 19600, Control_c, 0, 67, 124
1, 19726, Note_on_c, 0, 77, 83
1, 19808, Note_off_c, 0, 73, 37
1, 19832, Note_off_c, 0, 70, 37
1, 19913, Control_c, 0, 67, 124
1, 19951, Note_off_c, 0, 76, 34
1, 19970, Note_on_c, 0, 68, 60
1, 19970, Note_on_c, 0, 73, 65
1, 19973, Note_on_c, 0, 70, 53
1, 19973, Note_on_c, 0, 79, 77
1, 19990, Note_off_c, 0, 77, 62
1, 20016, Control_c, 0, 67, 125
1, 20072, Note_off_c, 0, 79, 65
1, 20080, Note_on_c, 0, 77, 81
1, 20133, Note_off_c, 0, 67, 42
1, 20140, Note_on_c, 0, 79, 71
1, 20140, Note_off_c, 0, 77, 64
1, 20197, Note_off_c, 0, 79, 65
1, 20203, Note_on_c, 0, 77, 71
1, 20252, Note_on_c, 0, 79, 66
1, 20253, Note_off_c, 0, 77, 62
1, 20308, Note_off_c, 0, 79, 62
1, 20312, Note_on_c, 0, 77, 66
1, 20370, Note_on_c, 0, 79, 57
1, 20370, Note_off_c, 0, 77, 63
1, 20422, Note_off_c, 0, 79, 60
1, 20431, Note_on_c, 0, 77, 63
1, 20434, Note_off_c, 0, 70, 36
1, 20456, Note_off_c, 0, 73, 52
1, 20504, Note_off_c, 0, 77, 58
1, 20510, Note_on_c, 0, 76, 58
1, 20555, Note_on_c, 0, 79, 55
1, 20566, Note_off_c, 0, 76, 60
1, 20652, Note_off_c, 0, 79, 62
1, 20668, Note_on_c, 0, 77, 47
1, 20727, Note_off_c, 0, 77, 55
1, 20742, Note_on_c, 0, 70, 36
1, 20745, Note_on_c, 0, 76, 46
1, 20748, Note_on_c, 0, 67, 41
1, 20752, Note_on_c, 0, 73, 37
1, 20765, Control_c, 0, 64, 54
1, 20859, Note_off_c, 0, 68, 26
1, 20877, Note_off_c, 0, 73, 64
1, 20887, Note_off_c, 0, 70, 63
1, 20892, Note_off_c, 0, 67, 63
1, 20896, Note_off_c, 0, 76, 56
1, 21237, Note_on_c, 0, 37, 63
1, 21282, Note_off_c, 0, 37, 62
1, 21292, Control_c, 0, 67, 125
1, 21399, Note_on_c, 0, 37, 47
1, 21437, Note_off_c, 0, 37, 62
1, 21558, Note_on_c, 0, 37, 45
1, 21605, Note_off_c, 0, 37, 60
1, 21749, Note_on_c, 0, 36, 45
1, 22056, Control_c, 0, 67, 125
1, 22177, Note_off_c, 0, 36, 42
1, 22205, Note_on_c, 0, 79, 70
1, 22208, Note_on_c, 0, 76, 63
1, 22246, Note_off_c, 0, 76, 61
1, 22256, Note_off_c, 0, 79, 60
1, 22389, Note_on_c, 0, 79, 63
1, 22406, Note_on_c, 0, 76, 48
1, 22418, Control_c, 0, 67, 125
1, 22438, Note_off_c, 0, 79, 59
1, 22444, Note_off_c, 0, 76, 62
1, 22522, Control_c, 0, 67, 126
1, 22558, Note_on_c, 0, 79, 61
1, 22566, Note_on_c, 0, 76, 41
1, 22611, Note_off_c, 0, 79, 59
1, 22612, Note_off_c, 0, 76, 59
1, 22700, Control_c, 0, 67, 127
1, 22750, Note_on_c, 0, 79, 45
1, 22751, Note_on_c, 0, 82, 52
1, 23307, Note_on_c, 0, 37, 55
1, 23350, Note_off_c, 0, 82, 42
1, 23360, Note_off_c, 0, 79, 44
1, 23368, Note_off_c, 0, 37, 58
1, 23514, Note_on_c, 0, 37, 48
1, 23562, Note_off_c, 0, 37, 58
1, 23730, Note_on_c, 0, 37, 33
1, 23780, Note_off_c, 0, 37, 51
1, 23991, Note_on_c, 0, 36, 26
1, 24212, Control_c, 0, 67, 126
1, 24257, Control_c, 0, 67, 125
1, 24331, Control_c, 0, 67, 125
1, 24390, Control_c, 0, 67, 124
1, 24405, Control_c, 0, 67, 124
1, 24420, Control_c, 0, 67, 123
1, 24450, Control_c, 0, 67, 122
1, 24480, Control_c, 0, 67, 121
1, 24495, Control_c, 0, 67, 119
1, 24510, Control_c, 0, 67, 116
1, 24525, Control_c, 0, 67, 112
1, 24546, Control_c, 0, 64, 54
1, 24546, Control_c, 0, 67, 105
1, 24561, Control_c, 0, 67, 95
1, 24576, Control_c, 0, 64, 55
1, 24576, Control_c, 0, 67, 63
1, 24591, Control_c, 0, 67, 0
1, 24606, Control_c, 0, 64, 54
1, 24611, Note_off_c, 0, 36, 49
1, 24620, Control_c, 0, 64, 51
1, 24635, Control_c, 0, 64, 44
1, 24650, Control_c, 0, 64, 32
1, 24665, Control_c, 0, 64, 0
1, 24799, Control_c, 0, 64, 25
1, 24813, Control_c, 0, 64, 51
1, 24828, Control_c, 0, 64, 61
1, 24843, Control_c, 0, 64, 67
1, 24849, Note_on_c, 0, 82, 95
1, 24850, Note_on_c, 0, 79, 90
1, 24858, Control_c, 0, 64, 76
1, 24873, Control_c, 0, 64, 96
1, 24887, Control_c, 0, 64, 127
1, 24909, Note_off_c, 0, 79, 64
1, 24917, Note_off_c, 0, 82, 64
1, 24961, Control_c, 0, 64, 90
1, 24976, Control_c, 0, 64, 66
1, 24991, Control_c, 0, 64, 48
1, 24995, Note_on_c, 0, 82, 93
1, 24996, Note_on_c, 0, 79, 84
1, 25006, Control_c, 0, 64, 42
1, 25035, Control_c, 0, 64, 44
1, 25045, Note_off_c, 0, 79, 67
1, 25050, Control_c, 0, 64, 54
1, 25061, Note_off_c, 0, 82, 65
1, 25065, Control_c, 0, 64, 63
1, 25080, Control_c, 0, 64, 69
1, 25094, Control_c, 0, 64, 73
1, 25109, Control_c, 0, 64, 71
1, 25118, Note_on_c, 0, 79, 84
1, 25124, Note_on_c, 0, 82, 88
1, 25124, Control_c, 0, 64, 64
1, 25139, Control_c, 0, 64, 56
1, 25154, Control_c, 0, 64, 38
1, 25169, Control_c, 0, 64, 0
1, 25175, Note_off_c, 0, 79, 65
1, 25184, Note_off_c, 0, 82, 64
1, 25243, Control_c, 0, 64, 33
1, 25246, Note_on_c, 0, 88, 96
1, 25258, Control_c, 0, 64, 66
1, 25273, Control_c, 0, 64, 90
1, 25296, Control_c, 0, 64, 127
1, 25327, Note_on_c, 0, 82, 87
1, 25340, Note_off_c, 0, 88, 63
1, 25385, Note_on_c, 0, 91, 85
1, 25392, Note_off_c, 0, 82, 67
1, 25447, Note_off_c, 0, 91, 63
1, 25460, Note_on_c, 0, 88, 88
1, 25526, Note_on_c, 0, 94, 88
1, 25535, Note_off_c, 0, 88, 56
1, 25580, Note_on_c, 0, 91, 86
1, 25616, Note_off_c, 0, 94, 63
1, 25639, Note_off_c, 0, 91, 64
1, 25643, Note_on_c, 0, 88, 83
1, 25687, Note_off_c, 0, 88, 65
1, 25705, Note_on_c, 0, 91, 88
1, 25763, Note_on_c, 0, 82, 93
1, 25773, Note_off_c, 0, 91, 61
1, 25827, Note_on_c, 0, 88, 80
1, 25834, Note_off_c, 0, 82, 64
1, 25876, Note_off_c, 0, 88, 65
1, 25878, Note_on_c, 0, 79, 80
1, 25932, Note_off_c, 0, 79, 66
1, 25944, Note_on_c, 0, 82, 92
1, 26003, Note_off_c, 0, 82, 63
1, 26009, Note_on_c, 0, 76, 82
1, 26062, Note_off_c, 0, 76, 65
1, 26076, Note_on_c, 0, 79, 82
1, 26136, Note_on_c, 0, 70, 89
1, 26143, Note_off_c, 0, 79, 62
1, 26200, Note_on_c, 0, 76, 76
1, 26203, Note_off_c, 0, 70, 65
1, 26248, Note_on_c, 0, 67, 84
1, 26249, Note_off_c, 0, 76, 65
1, 26301, Note_off_c, 0, 67, 66
1, 26316, Note_on_c, 0, 70, 93
1, 26376, Note_off_c, 0, 70, 62
1, 26379, Note_on_c, 0, 64, 81
1, 26425, Note_off_c, 0, 64, 64
1, 26447, Note_on_c, 0, 67, 83
1, 26506, Note_on_c, 0, 58, 83
1, 26513, Note_off_c, 0, 67, 63
1, 26570, Note_on_c, 0, 64, 67
1, 26579, Note_off_c, 0, 58, 64
1, 26618, Note_on_c, 0, 55, 84
1, 26620, Note_off_c, 0, 64, 63
1, 26674, Note_off_c, 0, 55, 63
1, 26677, Poly_aftertouch_c, 0, 63, 0
1, 26686, Note_on_c, 0, 58, 91
1, 26748, Note_off_c, 0, 58, 61
1, 26749, Note_on_c, 0, 52, 78
1, 26755, Control_c, 0, 64, 96
1, 26770, Control_c, 0, 64, 67
1, 26792, Control_c, 0, 64, 49
1, 26807, Control_c, 0, 64, 44
1, 26811, Note_off_c, 0, 52, 65
1, 26822, Control_c, 0, 64, 52
1, 26829, Note_on_c, 0, 55, 90
1, 26838, Control_c, 0, 64, 61
1, 26853, Control_c, 0, 64, 67
1, 26868, Control_c, 0, 64, 76
1, 26883, Control_c, 0, 64, 99
1, 26891, Note_on_c, 0, 46, 87
1, 26897, Control_c, 0, 64, 127
1, 26904, Note_off_c, 0, 55, 62
1, 26933, Poly_aftertouch_c, 0, 50, 0
1, 26955, Note_on_c, 0, 52, 83
1, 26977, Note_off_c, 0, 46, 64
1, 27000, Note_on_c, 0, 31, 80
1, 27013, Note_off_c, 0, 52, 66
1, 27030, Control_c, 0, 64, 80
1, 27045, Control_c, 0, 64, 62
1, 27060, Control_c, 0, 64, 43
1, 27063, Note_on_c, 0, 34, 80
1, 27075, Control_c, 0, 64, 44
1, 27089, Control_c, 0, 64, 55
1, 27104, Control_c, 0, 64, 63
1, 27108, Note_off_c, 0, 31, 61
1, 27119, Control_c, 0, 64, 73
1, 27133, Control_c, 0, 64, 98
1, 27134, Note_on_c, 0, 40, 83
1, 27148, Control_c, 0, 64, 127
1, 27165, Note_off_c, 0, 34, 62
1, 27212, Note_on_c, 0, 43, 86
1, 27213, Note_off_c, 0, 40, 62
1, 27289, Note_on_c, 0, 46, 89
1, 27299, Note_off_c, 0, 43, 64
1, 27347, Note_on_c, 0, 49, 84
1, 27369, Note_off_c, 0, 46, 65
1, 27407, Note_on_c, 0, 52, 87
1, 27407, Note_off_c, 0, 49, 63
1, 27470, Note_off_c, 0, 52, 67
1, 27475, Note_on_c, 0, 55, 92
1, 27489, Control_c, 0, 64, 89
1, 27504, Control_c, 0, 64, 66
1, 27519, Control_c, 0, 64, 49
1, 27541, Control_c, 0, 64, 47
1, 27545, Note_on_c, 0, 58, 103
1, 27548, Note_off_c, 0, 55, 67
1, 27556, Control_c, 0, 64, 52
1, 27571, Control_c, 0, 64, 59
1, 27586, Control_c, 0, 64, 69
1, 27601, Control_c, 0, 64, 98
1, 27615, Control_c, 0, 64, 127
1, 27650, Note_off_c, 0, 58, 61
1, 27750, Control_c, 0, 64, 106
1, 27764, Control_c, 0, 64, 80
1, 27779, Control_c, 0, 64, 66
1, 27794, Control_c, 0, 64, 55
1, 27809, Control_c, 0, 64, 49
1, 27824, Control_c, 0, 64, 46
1, 27838, Control_c, 0, 64, 39
1, 27853, Control_c, 0, 64, 30
1, 27868, Control_c, 0, 64, 22
1, 27883, Control_c, 0, 64, 16
1, 27898, Control_c, 0, 64, 9
1, 27912, Control_c, 0, 64, 0
1, 27971, Control_c, 0, 64, 23
1, 27986, Control_c, 0, 64, 58
1, 27989, Note_on_c, 0, 41, 94
1, 27989, Note_on_c, 0, 61, 102
1, 27994, Note_on_c, 0, 49, 93
1, 27995, Note_on_c, 0, 29, 85
1, 27997, Note_on_c, 0, 56, 82
1, 28001, Control_c, 0, 64, 71
1, 28016, Control_c, 0, 64, 114
1, 28030, Control_c, 0, 64, 127
1, 28171, Note_off_c, 0, 29, 60
1, 28178, Note_off_c, 0, 61, 56
1, 28189, Note_off_c, 0, 49, 53
1, 28208, Note_off_c, 0, 41, 62
1, 28216, Note_off_c, 0, 56, 61
1, 28291, Control_c, 0, 64, 101
1, 28305, Control_c, 0, 64, 76
1, 28320, Control_c, 0, 64, 65
1, 28335, Control_c, 0, 64, 56
1, 28350, Control_c, 0, 64, 49
1, 28364, Control_c, 0, 64, 46
1, 28379, Control_c, 0, 64, 43
1, 28394, Control_c, 0, 64, 42
1, 28440, Control_c, 0, 64, 42
1, 28455, Control_c, 0, 64, 43
1, 28469, Control_c, 0, 64, 43
1, 28484, Control_c, 0, 64, 44
1, 28499, Control_c, 0, 64, 45
1, 28514, Control_c, 0, 64, 46
1, 28529, Control_c, 0, 64, 46
1, 28543, Control_c, 0, 64, 47
1, 28558, Control_c, 0, 64, 47
1, 28573, Control_c, 0, 64, 48
1, 28588, Control_c, 0, 64, 48
1, 28603, Control_c, 0, 64, 49
1, 28648, Control_c, 0, 64, 49
1, 28677, Control_c, 0, 64, 50
1, 28766, Control_c, 0, 64, 51
1, 28810, Control_c, 0, 64, 51
1, 28880, Note_on_c, 0, 60, 47
1, 28882, Note_on_c, 0, 40, 32
1, 28886, Note_on_c, 0, 52, 37
1, 28887, Note_on_c, 0, 55, 32
1, 28895, Note_on_c, 0, 48, 32
1, 28943, Control_c, 0, 64, 52
1, 29039, Control_c, 0, 64, 52
1, 29202, Control_c, 0, 64, 53
1, 29232, Control_c, 0, 64, 53
1, 29440, Control_c, 0, 64, 54
1, 29787, Control_c, 0, 64, 54
1, 30173, Control_c, 0, 64, 55
1, 30188, Control_c, 0, 64, 55
1, 30203, Control_c, 0, 64, 56
1, 30218, Control_c, 0, 64, 56
1, 30232, Control_c, 0, 64, 57
1, 30247, Control_c, 0, 64, 57
1, 30262, Control_c, 0, 64, 58
1, 30277, Control_c, 0, 64, 59
1, 30380, Control_c, 0, 64, 59
1, 30395, Control_c, 0, 64, 60
1, 30410, Control_c, 0, 64, 60
1, 30536, Control_c, 0, 64, 61
1, 30551, Control_c, 0, 67, 24
1, 30565, Control_c, 0, 64, 61
1, 30565, Control_c, 0, 67, 45
1, 30580, Control_c, 0, 67, 65
1, 30595, Control_c, 0, 64, 62
1, 30595, Control_c, 0, 67, 83
1, 30610, Control_c, 0, 67, 102
1, 30625, Control_c, 0, 67, 119
1, 30639, Control_c, 0, 64, 62
1, 30639, Control_c, 0, 67, 127
1, 30669, Control_c, 0, 64, 63
1, 30699, Control_c, 0, 64, 63
1, 30713, Control_c, 0, 64, 64
1, 30758, Control_c, 0, 64, 64
1, 30866, Note_off_c, 0, 60, 30
1, 30973, Note_off_c, 0, 48, 42
1, 31087, Note_off_c, 0, 40, 56
1, 31178, Note_off_c, 0, 55, 41
1, 31245, Note_on_c, 0, 60, 47
1, 31259, Note_on_c, 0, 36, 45
1, 31506, Control_c, 0, 64, 65
1, 31537, Note_off_c, 0, 52, 43
1, 31551, Control_c, 0, 64, 65
1, 31566, Control_c, 0, 64, 66
1, 31580, Control_c, 0, 64, 66
1, 31580, Control_c, 0, 67, 126
1, 31595, Control_c, 0, 67, 117
1, 31610, Control_c, 0, 67, 92
1, 31622, Note_on_c, 0, 32, 60
1, 31625, Note_on_c, 0, 56, 60
1, 31625, Control_c, 0, 67, 46
1, 31640, Control_c, 0, 67, 0
1, 31648, Note_off_c, 0, 60, 56
1, 31655, Control_c, 0, 64, 63
1, 31670, Control_c, 0, 64, 56
1, 31685, Control_c, 0, 64, 40
1, 31691, Note_off_c, 0, 36, 53
1, 31700, Control_c, 0, 64, 29
1, 31730, Note_off_c, 0, 32, 59
1, 31730, Control_c, 0, 64, 42
1, 31740, Note_on_c, 0, 29, 99
1, 31744, Control_c, 0, 64, 63
1, 31746, Note_on_c, 0, 53, 97
1, 31759, Control_c, 0, 64, 84
1, 31774, Control_c, 0, 64, 127
1, 31780, Note_off_c, 0, 56, 57
1, 31879, Note_off_c, 0, 53, 58
1, 31971, Note_on_c, 0, 56, 66
1, 31974, Note_on_c, 0, 65, 88
1, 31977, Note_on_c, 0, 53, 91
1, 31981, Note_on_c, 0, 60, 76
1, 32025, Note_off_c, 0, 29, 47
1, 32117, Note_off_c, 0, 56, 62
1, 32139, Note_off_c, 0, 53, 61
1, 32145, Note_on_c, 0, 41, 81
1, 32150, Note_off_c, 0, 65, 58
1, 32151, Note_on_c, 0, 29, 69
1, 32153, Note_on_c, 0, 32, 62
1, 32154, Note_on_c, 0, 36, 62
1, 32195, Note_off_c, 0, 60, 63
1, 32290, Note_on_c, 0, 68, 101
1, 32293, Note_on_c, 0, 56, 95
1, 32310, Note_off_c, 0, 29, 53
1, 32317, Note_on_c, 0, 60, 64
1, 32320, Note_on_c, 0, 61, 25
1, 32340, Note_off_c, 0, 41, 56
1, 32347, Note_off_c, 0, 60, 66
1, 32365, Note_off_c, 0, 61, 48
1, 32407, Note_off_c, 0, 36, 0
1, 32418, Note_off_c, 0, 32, 0
1, 32424, Note_on_c, 0, 36, 51
1, 32430, Note_on_c, 0, 41, 98
1, 32433, Note_on_c, 0, 32, 50
1, 32433, Note_on_c, 0, 29, 75
1, 32461, Note_off_c, 0, 56, 62
1, 32481, Note_off_c, 0, 68, 44
1, 32563, Note_on_c, 0, 72, 98
1, 32564, Note_on_c, 0, 60, 100
1, 32565, Note_on_c, 0, 65, 81
1, 32567, Note_on_c, 0, 68, 75
1, 32594, Note_on_c, 0, 70, 61
1, 32600, Note_off_c, 0, 29, 50
1, 32610, Note_off_c, 0, 41, 60
1, 32660, Note_off_c, 0, 60, 61
1, 32672, Note_off_c, 0, 32, 0
1, 32676, Note_off_c, 0, 65, 61
1, 32679, Note_off_c, 0, 36, 0
1, 32681, Note_off_c, 0, 70, 33
1, 32695, Note_on_c, 0, 36, 51
1, 32696, Note_on_c, 0, 32, 39
1, 32696, Note_on_c, 0, 41, 95
1, 32700, Note_off_c, 0, 72, 62
1, 32702, Note_on_c, 0, 29, 79
1, 32705, Note_off_c, 0, 68, 59
1, 32830, Note_on_c, 0, 76, 97
1, 32834, Note_on_c, 0, 65, 96
1, 32838, Note_on_c, 0, 68, 84
1, 32851, Note_off_c, 0, 29, 54
1, 32860, Note_on_c, 0, 72, 58
1, 32864, Note_on_c, 0, 71, 56
1, 32870, Note_off_c, 0, 41, 57
1, 32892, Note_off_c, 0, 71, 65
1, 32907, Note_off_c, 0, 72, 51
1, 32927, Note_off_c, 0, 65, 59
1, 32931, Note_off_c, 0, 68, 60
1, 32935, Note_off_c, 0, 76, 61
1, 32966, Note_off_c, 0, 36, 0
1, 32976, Note_on_c, 0, 41, 96
1, 32978, Note_on_c, 0, 29, 76
1, 32979, Note_off_c, 0, 32, 0
1, 32979, Note_on_c, 0, 32, 26
1, 32980, Note_on_c, 0, 36, 52
1, 33096, Note_on_c, 0, 68, 95
1, 33096, Note_on_c, 0, 80, 98
1, 33107, Note_on_c, 0, 72, 78
1, 33119, Note_on_c, 0, 78, 66
1, 33128, Note_off_c, 0, 29, 55
1, 33137, Note_off_c, 0, 41, 58
1, 33159, Note_off_c, 0, 78, 57
1, 33167, Note_off_c, 0, 72, 60
1, 33211, Note_off_c, 0, 68, 59
1, 33211, Note_off_c, 0, 80, 62
1, 33243, Note_off_c, 0, 32, 0
1, 33247, Note_on_c, 0, 41, 97
1, 33247, Note_on_c, 0, 29, 78
1, 33253, Note_on_c, 0, 32, 61
1, 33366, Note_on_c, 0, 72, 100
1, 33366, Note_on_c, 0, 84, 104
1, 33369, Note_on_c, 0, 77, 95
1, 33371, Note_on_c, 0, 80, 80
1, 33393, Note_on_c, 0, 82, 59
1, 33394, Note_off_c, 0, 82, 127
1, 33402, Note_off_c, 0, 80, 62
1, 33422, Note_off_c, 0, 72, 61
1, 33432, Note_off_c, 0, 77, 58
1, 33444, Note_off_c, 0, 41, 58
1, 33446, Note_off_c, 0, 29, 35
1, 33473, Note_off_c, 0, 84, 62
1, 33508, Note_off_c, 0, 36, 38
1, 33527, Note_off_c, 0, 32, 32
1, 33655, Note_on_c, 0, 89, 106
1, 33658, Note_on_c, 0, 77, 104
1, 33659, Note_on_c, 0, 80, 95
1, 33661, Note_on_c, 0, 84, 90
1, 33664, Note_on_c, 0, 29, 88
1, 33664, Note_on_c, 0, 36, 79
1, 33664, Note_on_c, 0, 41, 99
1, 33666, Note_on_c, 0, 32, 74
1, 33681, Note_on_c, 0, 85, 50
1, 33682, Note_off_c, 0, 85, 127
1, 33692, Note_on_c, 0, 86, 57
1, 33709, Control_c, 0, 64, 85
1, 33713, Note_off_c, 0, 86, 62
1, 33724, Control_c, 0, 64, 60
1, 33739, Control_c, 0, 64, 0
1, 33946, Control_c, 0, 64, 41
1, 33961, Control_c, 0, 64, 59
1, 33975, Control_c, 0, 64, 65
1, 33990, Control_c, 0, 64, 68
1, 34005, Control_c, 0, 64, 76
1, 34021, Control_c, 0, 64, 92
1, 34036, Control_c, 0, 64, 127
1, 34664, Note_off_c, 0, 89, 51
1, 34750, Note_off_c, 0, 77, 53
1, 34761, Note_off_c, 0, 84, 51
1, 34807, Note_off_c, 0, 80, 62
1, 34860, Note_off_c, 0, 41, 57
1, 34945, Note_off_c, 0, 36, 39
1, 35011, Note_off_c, 0, 32, 29
1, 35083, Note_off_c, 0, 29, 36
1, 35162, Control_c, 0, 64, 107
1, 35176, Control_c, 0, 64, 98
1, 35191, Control_c, 0, 64, 91
1, 35206, Control_c, 0, 64, 86
1, 35220, Control_c, 0, 64, 83
1, 35235, Control_c, 0, 64, 81
1, 35250, Control_c, 0, 64, 78
1, 35265, Control_c, 0, 64, 77
1, 35280, Control_c, 0, 64, 75
1, 35295, Control_c, 0, 64, 73
1, 35310, Control_c, 0, 64, 70
1, 35325, Control_c, 0, 64, 68
1, 35340, Control_c, 0, 64, 66
1, 35355, Control_c, 0, 64, 65
1, 35369, Control_c, 0, 64, 64
1, 35378, Note_on_c, 0, 56, 43
1, 35384, Control_c, 0, 64, 62
1, 35396, Note_on_c, 0, 32, 36
1, 35399, Control_c, 0, 64, 60
1, 35414, Control_c, 0, 64, 58
1, 35428, Control_c, 0, 64, 55
1, 35443, Control_c, 0, 64, 53
1, 35458, Control_c, 0, 64, 51
1, 35473, Control_c, 0, 64, 49
1, 35488, Control_c, 0, 64, 49
1, 35502, Control_c, 0, 64, 48
1, 35532, Control_c, 0, 64, 48
1, 35623, Control_c, 0, 64, 48
1, 35694, Note_on_c, 0, 36, 36
1, 35697, Note_on_c, 0, 60, 46
1, 35711, Control_c, 0, 64, 49
1, 35730, Note_off_c, 0, 56, 51
1, 35742, Note_off_c, 0, 32, 42
1, 35756, Control_c, 0, 64, 50
1, 35783, Note_on_c, 0, 65, 44
1, 35793, Note_on_c, 0, 41, 44
1, 35795, Note_off_c, 0, 36, 59
1, 35808, Control_c, 0, 64, 50
1, 35824, Note_off_c, 0, 60, 57
1, 35941, Control_c, 0, 64, 51
1, 36015, Control_c, 0, 64, 51
1, 36182, Note_on_c, 0, 68, 49
1, 36188, Note_on_c, 0, 44, 40
1, 36237, Control_c, 0, 64, 52
1, 36245, Note_off_c, 0, 41, 32
1, 36469, Note_on_c, 0, 48, 36
1, 36479, Note_on_c, 0, 72, 57
1, 36510, Note_off_c, 0, 68, 54
1, 36523, Note_off_c, 0, 44, 34
1, 36566, Note_on_c, 0, 77, 60
1, 36572, Note_on_c, 0, 53, 43
1, 36583, Note_off_c, 0, 48, 47
1, 36586, Note_off_c, 0, 72, 59
1, 36604, Note_off_c, 0, 65, 40
1, 36956, Control_c, 0, 64, 54
1, 36971, Control_c, 0, 64, 58
1, 36979, Note_on_c, 0, 65, 52
1, 36980, Note_on_c, 0, 41, 43
1, 36986, Control_c, 0, 64, 62
1, 37000, Control_c, 0, 64, 65
1, 37015, Control_c, 0, 64, 69
1, 37028, Note_off_c, 0, 77, 35
1, 37030, Control_c, 0, 64, 76
1, 37045, Control_c, 0, 64, 87
1, 37057, Note_off_c, 0, 41, 62
1, 37060, Control_c, 0, 64, 111
1, 37075, Control_c, 0, 64, 127
1, 37096, Note_off_c, 0, 53, 51
1, 37141, Note_off_c, 0, 65, 61
1, 37291, Control_c, 0, 64, 100
1, 37305, Control_c, 0, 64, 74
1, 37320, Control_c, 0, 64, 54
1, 37335, Control_c, 0, 64, 0
1, 37364, Note_on_c, 0, 60, 101
1, 37364, Note_on_c, 0, 55, 84
1, 37364, Control_c, 0, 64, 28
1, 37367, Note_on_c, 0, 52, 82
1, 37379, Control_c, 0, 64, 58
1, 37394, Control_c, 0, 64, 72
1, 37409, Control_c, 0, 64, 127
1, 37447, Note_off_c, 0, 60, 55
1, 37470, Note_off_c, 0, 55, 64
1, 37485, Poly_aftertouch_c, 0, 53, 0
1, 37486, Note_off_c, 0, 52, 66
1, 37515, Note_on_c, 0, 64, 89
1, 37519, Note_on_c, 0, 60, 79
1, 37519, Note_on_c, 0, 55, 83
1, 37624, Note_off_c, 0, 60, 59
1, 37629, Note_on_c, 0, 48, 82
1, 37632, Note_on_c, 0, 40, 76
1, 37635, Note_off_c, 0, 55, 64
1, 37650, Note_on_c, 0, 43, 65
1, 37678, Note_on_c, 0, 47, 13
1, 37680, Note_off_c, 0, 64, 63
1, 37722, Note_off_c, 0, 47, 31
1, 37749, Note_on_c, 0, 67, 95
1, 37751, Note_on_c, 0, 60, 88
1, 37758, Note_on_c, 0, 64, 82
1, 37769, Note_off_c, 0, 40, 58
1, 37781, Note_off_c, 0, 48, 58
1, 37810, Note_off_c, 0, 43, 58
1, 37848, Note_on_c, 0, 48, 92
1, 37850, Note_on_c, 0, 43, 56
1, 37851, Note_on_c, 0, 40, 84
1, 37865, Note_off_c, 0, 60, 59
1, 37883, Note_off_c, 0, 64, 59
1, 37900, Note_off_c, 0, 67, 59
1, 37971, Note_on_c, 0, 72, 100
1, 37973, Note_on_c, 0, 64, 89
1, 37978, Note_on_c, 0, 67, 80
1, 38016, Note_off_c, 0, 40, 59
1, 38016, Note_off_c, 0, 48, 61
1, 38059, Note_off_c, 0, 43, 60
1, 38076, Note_off_c, 0, 64, 58
1, 38076, Note_off_c, 0, 67, 61
1, 38091, Note_on_c, 0, 40, 81
1, 38091, Note_on_c, 0, 48, 99
1, 38091, Note_on_c, 0, 43, 57
1, 38130, Note_off_c, 0, 72, 60
1, 38201, Note_on_c, 0, 76, 97
1, 38203, Note_on_c, 0, 67, 91
1, 38207, Note_on_c, 0, 72, 92
1, 38246, Note_off_c, 0, 40, 57
1, 38250, Note_off_c, 0, 48, 58
1, 38283, Note_off_c, 0, 43, 62
1, 38299, Note_off_c, 0, 67, 58
1, 38318, Note_on_c, 0, 48, 102
1, 38321, Note_on_c, 0, 40, 86
1, 38322, Note_on_c, 0, 43, 67
1, 38332, Note_off_c, 0, 72, 61
1, 38343, Note_off_c, 0, 76, 63
1, 38428, Note_on_c, 0, 79, 94
1, 38429, Note_on_c, 0, 72, 90
1, 38431, Note_on_c, 0, 76, 94
1, 38465, Note_off_c, 0, 40, 58
1, 38470, Note_off_c, 0, 48, 54
1, 38511, Note_off_c, 0, 43, 61
1, 38532, Note_off_c, 0, 72, 61
1, 38544, Note_on_c, 0, 48, 102
1, 38545, Note_on_c, 0, 43, 63
1, 38547, Note_on_c, 0, 40, 86
1, 38549, Note_off_c, 0, 76, 61
1, 38567, Note_off_c, 0, 79, 62
1, 38640, Note_on_c, 0, 84, 106
1, 38640, Note_on_c, 0, 76, 97
1, 38644, Note_on_c, 0, 79, 88
1, 38705, Note_off_c, 0, 40, 61
1, 38736, Note_off_c, 0, 43, 61
1, 38746, Note_off_c, 0, 48, 57
1, 38780, Note_off_c, 0, 84, 57
1, 38795, Note_off_c, 0, 76, 59
1, 38797, Note_off_c, 0, 79, 61
1, 38922, Control_c, 0, 64, 102
1, 38937, Control_c, 0, 64, 85
1, 38951, Control_c, 0, 64, 76
1, 38966, Control_c, 0, 64, 70
1, 38981, Control_c, 0, 64, 66
1, 38996, Control_c, 0, 64, 64
1, 39011, Control_c, 0, 64, 62
1, 39025, Control_c, 0, 64, 60
1, 39040, Control_c, 0, 64, 58
1, 39055, Control_c, 0, 64, 57
1, 39069, Control_c, 0, 64, 56
1, 39084, Control_c, 0, 64, 55
1, 39099, Control_c, 0, 64, 54
1, 39114, Control_c, 0, 64, 54
1, 39143, Control_c, 0, 64, 53
1, 39173, Control_c, 0, 64, 53
1, 39188, Control_c, 0, 64, 52
1, 39248, Note_on_c, 0, 72, 60
1, 39248, Control_c, 0, 64, 52
1, 39254, Note_on_c, 0, 64, 38
1, 39254, Note_on_c, 0, 67, 36
1, 39277, Control_c, 0, 64, 51
1, 39307, Control_c, 0, 64, 51
1, 39336, Control_c, 0, 64, 50
1, 39351, Control_c, 0, 64, 50
1, 39366, Control_c, 0, 64, 49
1, 39380, Control_c, 0, 64, 49
1, 39626, Control_c, 0, 64, 49
1, 39686, Control_c, 0, 64, 50
1, 39730, Control_c, 0, 64, 50
1, 39789, Control_c, 0, 64, 51
1, 39819, Control_c, 0, 64, 51
1, 39903, Note_on_c, 0, 74, 56
1, 39952, Control_c, 0, 64, 52
1, 39956, Note_off_c, 0, 72, 57
1, 40116, Note_off_c, 0, 74, 63
1, 40127, Note_on_c, 0, 76, 61
1, 40137, Note_on_c, 0, 71, 59
1, 40145, Note_on_c, 0, 65, 42
1, 40145, Note_on_c, 0, 68, 46
1, 40158, Note_off_c, 0, 64, 40
1, 40176, Note_off_c, 0, 76, 55
1, 40203, Note_on_c, 0, 74, 61
1, 40267, Note_off_c, 0, 74, 63
1, 40285, Note_on_c, 0, 76, 64
1, 40329, Control_c, 0, 64, 52
1, 40333, Note_off_c, 0, 76, 59
1, 40342, Note_on_c, 0, 74, 52
1, 40373, Control_c, 0, 64, 53
1, 40387, Note_off_c, 0, 74, 64
1, 40397, Note_on_c, 0, 76, 50
1, 40464, Note_on_c, 0, 74, 52
1, 40478, Control_c, 0, 64, 53
1, 40489, Note_off_c, 0, 76, 41
1, 40538, Note_off_c, 0, 74, 63
1, 40546, Note_on_c, 0, 76, 47
1, 40601, Note_on_c, 0, 74, 52
1, 40616, Note_off_c, 0, 76, 59
1, 40655, Control_c, 0, 64, 54
1, 40659, Note_off_c, 0, 67, 3
1, 40661, Note_off_c, 0, 74, 60
1, 40667, Note_on_c, 0, 72, 61
1, 40672, Note_off_c, 0, 65, 62
1, 40674, Note_off_c, 0, 68, 63
1, 40700, Control_c, 0, 64, 54
1, 40714, Control_c, 0, 64, 55
1, 40726, Note_off_c, 0, 71, 37
1, 40733, Note_on_c, 0, 76, 64
1, 40735, Note_off_c, 0, 72, 60
1, 40744, Control_c, 0, 64, 55
1, 40774, Control_c, 0, 64, 56
1, 40789, Control_c, 0, 64, 56
1, 40804, Control_c, 0, 64, 57
1, 40812, Note_on_c, 0, 74, 57
1, 40822, Note_off_c, 0, 76, 56
1, 40863, Note_off_c, 0, 74, 63
1, 40893, Control_c, 0, 64, 54
1, 40907, Control_c, 0, 64, 46
1, 40922, Control_c, 0, 64, 0
1, 40995, Note_on_c, 0, 60, 106
1, 40998, Note_on_c, 0, 52, 89
1, 40999, Note_on_c, 0, 55, 80
1, 41018, Control_c, 0, 64, 62
1, 41033, Control_c, 0, 64, 98
1, 41048, Control_c, 0, 64, 127
1, 41114, Note_off_c, 0, 60, 54
1, 41135, Note_off_c, 0, 55, 65
1, 41152, Note_off_c, 0, 52, 65
1, 41185, Note_on_c, 0, 64, 96
1, 41188, Note_on_c, 0, 55, 90
1, 41188, Note_on_c, 0, 60, 70
1, 41297, Note_on_c, 0, 48, 92
1, 41301, Note_off_c, 0, 55, 63
1, 41304, Note_on_c, 0, 40, 76
1, 41308, Note_on_c, 0, 38, 77
1, 41309, Note_on_c, 0, 43, 75
1, 41319, Note_off_c, 0, 60, 61
1, 41343, Note_off_c, 0, 64, 64
1, 41368, Note_off_c, 0, 38, 49
1, 41416, Note_on_c, 0, 67, 95
1, 41418, Note_on_c, 0, 60, 89
1, 41422, Note_on_c, 0, 64, 88
1, 41443, Note_off_c, 0, 40, 61
1, 41446, Note_off_c, 0, 48, 60
1, 41477, Note_off_c, 0, 43, 60
1, 41510, Note_off_c, 0, 60, 55
1, 41522, Note_on_c, 0, 48, 100
1, 41525, Note_on_c, 0, 40, 85
1, 41528, Note_on_c, 0, 43, 63
1, 41541, Note_off_c, 0, 64, 58
1, 41549, Note_off_c, 0, 67, 58
1, 41626, Note_on_c, 0, 72, 102
1, 41629, Note_on_c, 0, 64, 95
1, 41635, Note_on_c, 0, 67, 84
1, 41674, Note_off_c, 0, 48, 58
1, 41681, Note_off_c, 0, 40, 58
1, 41705, Note_off_c, 0, 43, 61
1, 41727, Note_off_c, 0, 67, 61
1, 41732, Note_off_c, 0, 64, 57
1, 41740, Note_on_c, 0, 40, 80
1, 41743, Note_on_c, 0, 48, 95
1, 41745, Note_on_c, 0, 43, 62
1, 41788, Note_off_c, 0, 72, 63
1, 41850, Note_on_c, 0, 76, 100
1, 41850, Note_on_c, 0, 67, 92
1, 41853, Note_on_c, 0, 72, 86
1, 41901, Note_off_c, 0, 40, 61
1, 41901, Note_off_c, 0, 48, 58
1, 41933, Note_off_c, 0, 43, 61
1, 41939, Note_off_c, 0, 67, 59
1, 41963, Note_on_c, 0, 40, 79
1, 41963, Note_on_c, 0, 48, 95
1, 41967, Note_on_c, 0, 43, 61
1, 41973, Note_off_c, 0, 72, 61
1, 41986, Note_off_c, 0, 76, 62
1, 42055, Note_on_c, 0, 79, 99
1, 42059, Note_on_c, 0, 72, 96
1, 42061, Note_on_c, 0, 76, 86
1, 42107, Note_off_c, 0, 48, 59
1, 42109, Note_off_c, 0, 40, 62
1, 42139, Note_off_c, 0, 43, 61
1, 42157, Note_off_c, 0, 72, 59
1, 42175, Note_on_c, 0, 43, 67
1, 42175, Note_off_c, 0, 76, 62
1, 42177, Note_on_c, 0, 48, 99
1, 42178, Note_on_c, 0, 40, 79
1, 42197, Note_off_c, 0, 79, 63
1, 42266, Note_on_c, 0, 84, 111
1, 42267, Note_on_c, 0, 76, 98
1, 42273, Note_on_c, 0, 79, 89
1, 42312, Note_off_c, 0, 40, 59
1, 42340, Note_off_c, 0, 43, 61
1, 42342, Note_off_c, 0, 48, 57
1, 42378, Note_off_c, 0, 84, 60
1, 42386, Note_off_c, 0, 76, 61
1, 42394, Note_off_c, 0, 79, 62
1, 42493, Control_c, 0, 64, 100
1, 42515, Control_c, 0, 64, 83
1, 42530, Control_c, 0, 64, 73
1, 42545, Control_c, 0, 64, 66
1, 42559, Control_c, 0, 64, 64
1, 42574, Control_c, 0, 64, 63
1, 42589, Control_c, 0, 64, 63
1, 42604, Control_c, 0, 64, 62
1, 42619, Control_c, 0, 64, 60
1, 42634, Control_c, 0, 64, 58
1, 42649, Control_c, 0, 64, 57
1, 42664, Control_c, 0, 64, 56
1, 42693, Control_c, 0, 64, 55
1, 42723, Control_c, 0, 64, 55
1, 42738, Control_c, 0, 64, 54
1, 42753, Control_c, 0, 64, 54
1, 42879, Note_on_c, 0, 67, 45
1, 42883, Note_on_c, 0, 72, 56
1, 42889, Note_on_c, 0, 64, 39
1, 43020, Control_c, 0, 64, 54
1, 43065, Control_c, 0, 64, 55
1, 43080, Control_c, 0, 64, 55
1, 43095, Control_c, 0, 64, 56
1, 43109, Control_c, 0, 64, 57
1, 43124, Control_c, 0, 64, 58
1, 43139, Control_c, 0, 64, 59
1, 43154, Control_c, 0, 64, 60
1, 43169, Control_c, 0, 64, 62
1, 43183, Control_c, 0, 64, 63
1, 43198, Control_c, 0, 64, 64
1, 43213, Control_c, 0, 64, 65
1, 43227, Control_c, 0, 64, 66
1, 43242, Control_c, 0, 64, 68
1, 43265, Control_c, 0, 64, 70
1, 43280, Control_c, 0, 64, 72
1, 43295, Control_c, 0, 64, 73
1, 43309, Control_c, 0, 64, 74
1, 43324, Control_c, 0, 64, 75
1, 43339, Control_c, 0, 64, 76
1, 43354, Control_c, 0, 64, 77
1, 43369, Control_c, 0, 64, 79
1, 43383, Control_c, 0, 64, 81
1, 43398, Control_c, 0, 64, 82
1, 43413, Control_c, 0, 64, 83
1, 43428, Control_c, 0, 64, 84
1, 43457, Control_c, 0, 64, 84
1, 43472, Control_c, 0, 64, 85
1, 43487, Control_c, 0, 64, 85
1, 43495, Note_on_c, 0, 73, 60
1, 43557, Note_off_c, 0, 67, 37
1, 43591, Control_c, 0, 64, 85
1, 43624, Note_off_c, 0, 72, 54
1, 43680, Control_c, 0, 64, 84
1, 43692, Note_on_c, 0, 63, 40
1, 43695, Control_c, 0, 64, 84
1, 43701, Note_on_c, 0, 67, 43
1, 43710, Control_c, 0, 64, 83
1, 43725, Control_c, 0, 64, 80
1, 43740, Control_c, 0, 64, 74
1, 43755, Control_c, 0, 64, 66
1, 43770, Control_c, 0, 64, 60
1, 43776, Note_off_c, 0, 73, 62
1, 43785, Control_c, 0, 64, 56
1, 43793, Note_on_c, 0, 72, 52
1, 43814, Control_c, 0, 64, 57
1, 43827, Note_off_c, 0, 64, 36
1, 43829, Control_c, 0, 64, 59
1, 43844, Control_c, 0, 64, 62
1, 43858, Control_c, 0, 64, 66
1, 43873, Control_c, 0, 64, 70
1, 43874, Note_off_c, 0, 72, 62
1, 43888, Control_c, 0, 64, 76
1, 43893, Note_on_c, 0, 73, 52
1, 43903, Control_c, 0, 64, 80
1, 43918, Control_c, 0, 64, 83
1, 43932, Control_c, 0, 64, 83
1, 43939, Note_off_c, 0, 73, 63
1, 43948, Note_on_c, 0, 75, 62
1, 43991, Note_off_c, 0, 75, 59
1, 44020, Note_on_c, 0, 73, 57
1, 44056, Note_off_c, 0, 73, 65
1, 44070, Note_on_c, 0, 75, 58
1, 44073, Control_c, 0, 64, 83
1, 44088, Control_c, 0, 64, 82
1, 44103, Control_c, 0, 64, 82
1, 44109, Note_off_c, 0, 75, 61
1, 44118, Control_c, 0, 64, 81
1, 44135, Note_on_c, 0, 73, 61
1, 44162, Control_c, 0, 64, 81
1, 44168, Note_off_c, 0, 73, 67
1, 44177, Control_c, 0, 64, 80
1, 44187, Note_on_c, 0, 75, 57
1, 44192, Control_c, 0, 64, 78
1, 44206, Control_c, 0, 64, 75
1, 44221, Control_c, 0, 64, 70
1, 44236, Control_c, 0, 64, 65
1, 44241, Note_off_c, 0, 75, 61
1, 44250, Note_on_c, 0, 73, 59
1, 44251, Control_c, 0, 64, 59
1, 44265, Control_c, 0, 64, 55
1, 44280, Control_c, 0, 64, 55
1, 44310, Control_c, 0, 64, 56
1, 44319, Note_off_c, 0, 73, 61
1, 44325, Control_c, 0, 64, 60
1, 44339, Control_c, 0, 64, 64
1, 44342, Note_on_c, 0, 72, 56
1, 44354, Control_c, 0, 64, 67
1, 44369, Control_c, 0, 64, 72
1, 44384, Control_c, 0, 64, 76
1, 44399, Control_c, 0, 64, 80
1, 44411, Note_off_c, 0, 72, 55
1, 44415, Control_c, 0, 64, 82
1, 44429, Control_c, 0, 64, 83
1, 44431, Note_off_c, 0, 67, 60
1, 44434, Note_on_c, 0, 73, 54
1, 44440, Note_off_c, 0, 63, 47
1, 44467, Note_off_c, 0, 73, 66
1, 44637, Note_on_c, 0, 82, 66
1, 44649, Note_on_c, 0, 79, 55
1, 44681, Control_c, 0, 64, 82
1, 44696, Control_c, 0, 64, 82
1, 44711, Control_c, 0, 64, 80
1, 44726, Control_c, 0, 64, 77
1, 44741, Control_c, 0, 64, 74
1, 44762, Control_c, 0, 64, 70
1, 44777, Control_c, 0, 64, 66
1, 44784, Note_on_c, 0, 75, 50
1, 44792, Control_c, 0, 64, 63
1, 44807, Note_off_c, 0, 75, 58
1, 44807, Control_c, 0, 64, 61
1, 44822, Control_c, 0, 64, 60
1, 44837, Control_c, 0, 64, 60
1, 44890, Note_on_c, 0, 75, 62
1, 44926, Control_c, 0, 64, 60
1, 44927, Note_off_c, 0, 75, 63
1, 44955, Control_c, 0, 64, 61
1, 45015, Control_c, 0, 64, 61
1, 45017, Note_on_c, 0, 75, 60
1, 45028, Note_off_c, 0, 82, 35
1, 45029, Control_c, 0, 64, 62
1, 45049, Note_off_c, 0, 75, 65
1, 45116, Note_off_c, 0, 79, 43
1, 45126, Note_on_c, 0, 75, 64
1, 45162, Note_off_c, 0, 75, 64
1, 45264, Note_on_c, 0, 75, 64
1, 45290, Note_off_c, 0, 75, 63
1, 45341, Control_c, 0, 64, 61
1, 45370, Control_c, 0, 64, 61
1, 45372, Note_on_c, 0, 75, 61
1, 45385, Control_c, 0, 64, 60
1, 45400, Control_c, 0, 64, 60
1, 45405, Note_off_c, 0, 75, 65
1, 45415, Control_c, 0, 64, 59
1, 45430, Control_c, 0, 64, 57
1, 45445, Control_c, 0, 64, 55
1, 45459, Control_c, 0, 64, 53
1, 45474, Control_c, 0, 64, 50
1, 45489, Control_c, 0, 64, 48
1, 45497, Note_on_c, 0, 75, 60
1, 45510, Control_c, 0, 64, 46
1, 45525, Control_c, 0, 64, 46
1, 45536, Note_off_c, 0, 75, 64
1, 45621, Note_on_c, 0, 75, 58
1, 45656, Note_off_c, 0, 75, 64
1, 45746, Note_on_c, 0, 75, 57
1, 45780, Note_off_c, 0, 75, 64
1, 45807, Control_c, 0, 64, 46
1, 45837, Control_c, 0, 64, 47
1, 45866, Note_on_c, 0, 75, 57
1, 45881, Control_c, 0, 64, 47
1, 45901, Note_off_c, 0, 75, 64
1, 45925, Control_c, 0, 64, 48
1, 45989, Note_on_c, 0, 75, 57
1, 46026, Note_off_c, 0, 75, 64
1, 46030, Control_c, 0, 64, 48
1, 46089, Note_on_c, 0, 80, 61
1, 46090, Note_on_c, 0, 83, 66
1, 46205, Note_on_c, 0, 75, 60
1, 46240, Note_off_c, 0, 75, 63
1, 46275, Control_c, 0, 64, 49
1, 46319, Control_c, 0, 64, 49
1, 46334, Note_on_c, 0, 75, 48
1, 46361, Note_off_c, 0, 75, 56
1, 46414, Note_on_c, 0, 71, 63
1, 46426, Note_on_c, 0, 68, 49
1, 46438, Control_c, 0, 64, 50
1, 46517, Note_off_c, 0, 71, 63
1, 46528, Note_off_c, 0, 68, 60
1, 46541, Note_on_c, 0, 75, 61
1, 46569, Note_off_c, 0, 75, 63
1, 46586, Note_off_c, 0, 80, 57
1, 46608, Note_off_c, 0, 83, 44
1, 46643, Note_on_c, 0, 75, 63
1, 46674, Note_off_c, 0, 75, 66
1, 46760, Note_on_c, 0, 75, 64
1, 46795, Note_off_c, 0, 75, 65
1, 46880, Note_on_c, 0, 75, 68
1, 46910, Note_off_c, 0, 75, 62
1, 47004, Note_on_c, 0, 75, 65
1, 47033, Note_off_c, 0, 75, 66
1, 47111, Note_on_c, 0, 75, 68
1, 47143, Note_off_c, 0, 75, 63
1, 47238, Note_on_c, 0, 75, 55
1, 47261, Note_off_c, 0, 75, 61
1, 47328, Note_on_c, 0, 75, 77
1, 47380, Note_off_c, 0, 75, 60
1, 47444, Note_on_c, 0, 88, 93
1, 47450, Note_on_c, 0, 80, 86
1, 47451, Note_on_c, 0, 83, 86
1, 47468, Control_c, 0, 64, 49
1, 47482, Control_c, 0, 64, 48
1, 47497, Control_c, 0, 64, 47
1, 47512, Control_c, 0, 64, 47
1, 47567, Note_on_c, 0, 75, 71
1, 47611, Note_off_c, 0, 75, 59
1, 47677, Control_c, 0, 64, 47
1, 47687, Note_on_c, 0, 75, 65
1, 47720, Note_off_c, 0, 75, 63
1, 47773, Control_c, 0, 64, 48
1, 47803, Note_on_c, 0, 71, 63
1, 47807, Note_on_c, 0, 68, 61
1, 47892, Control_c, 0, 64, 48
1, 47919, Note_on_c, 0, 75, 71
1, 47961, Note_off_c, 0, 71, 62
1, 47967, Note_off_c, 0, 75, 60
1, 47968, Note_off_c, 0, 68, 59
1, 48010, Control_c, 0, 64, 49
1, 48049, Note_on_c, 0, 75, 63
1, 48080, Note_off_c, 0, 75, 64
1, 48151, Note_on_c, 0, 71, 67
1, 48158, Note_on_c, 0, 68, 61
1, 48262, Note_on_c, 0, 75, 67
1, 48295, Note_off_c, 0, 68, 46
1, 48299, Note_off_c, 0, 75, 62
1, 48307, Note_off_c, 0, 71, 61
1, 48399, Note_on_c, 0, 75, 58
1, 48429, Note_off_c, 0, 75, 63
1, 48509, Note_on_c, 0, 71, 60
1, 48519, Note_on_c, 0, 68, 55
1, 48597, Note_off_c, 0, 83, 58
1, 48635, Note_on_c, 0, 75, 68
1, 48637, Note_off_c, 0, 80, 46
1, 48658, Note_off_c, 0, 71, 58
1, 48671, Note_off_c, 0, 75, 60
1, 48680, Note_off_c, 0, 68, 26
1, 48700, Control_c, 0, 64, 49
1, 48771, Note_on_c, 0, 75, 66
1, 48833, Control_c, 0, 64, 50
1, 48836, Note_off_c, 0, 75, 62
1, 48851, Note_on_c, 0, 70, 64
1, 48855, Note_on_c, 0, 67, 59
1, 48871, Note_on_c, 0, 87, 71
1, 48878, Note_off_c, 0, 70, 67
1, 48879, Note_on_c, 0, 79, 59
1, 48886, Note_on_c, 0, 82, 56
1, 48886, Note_off_c, 0, 67, 66
1, 48918, Note_off_c, 0, 88, 54
1, 48976, Note_on_c, 0, 63, 72
1, 49010, Note_off_c, 0, 63, 61
1, 49111, Note_on_c, 0, 63, 62
1, 49141, Note_off_c, 0, 63, 65
1, 49213, Note_on_c, 0, 63, 57
1, 49256, Note_off_c, 0, 63, 63
1, 49349, Note_on_c, 0, 63, 51
1, 49379, Note_off_c, 0, 87, 49
1, 49386, Note_off_c, 0, 63, 64
1, 49424, Note_off_c, 0, 79, 39
1, 49442, Note_off_c, 0, 82, 44
1, 49464, Note_on_c, 0, 63, 65
1, 49498, Note_off_c, 0, 63, 64
1, 49588, Note_on_c, 0, 63, 63
1, 49623, Note_off_c, 0, 63, 64
1, 49700, Note_on_c, 0, 63, 61
1, 49734, Note_off_c, 0, 63, 64
1, 49830, Note_on_c, 0, 63, 59
1, 49861, Note_off_c, 0, 63, 65
1, 49928, Note_on_c, 0, 82, 75
1, 49931, Note_on_c, 0, 79, 65
1, 49942, Note_on_c, 0, 63, 57
1, 49977, Note_off_c, 0, 63, 64
1, 49981, Note_off_c, 0, 79, 61
1, 50000, Note_off_c, 0, 82, 63
1, 50074, Note_on_c, 0, 63, 58
1, 50113, Note_off_c, 0, 63, 65
1, 50186, Note_on_c, 0, 82, 76
1, 50191, Note_on_c, 0, 79, 64
1, 50199, Note_on_c, 0, 63, 61
1, 50229, Note_off_c, 0, 63, 65
1, 50272, Note_on_c, 0, 83, 82
1, 50274, Note_on_c, 0, 80, 68
1, 50290, Note_on_c, 0, 63, 72
1, 50294, Note_off_c, 0, 79, 44
1, 50294, Note_off_c, 0, 82, 62
1, 50328, Note_off_c, 0, 63, 62
1, 50418, Note_on_c, 0, 63, 58
1, 50449, Note_off_c, 0, 63, 64
1, 50527, Note_on_c, 0, 63, 59
1, 50535, Note_on_c, 0, 82, 64
1, 50536, Note_on_c, 0, 79, 53
1, 50551, Note_off_c, 0, 83, 50
1, 50560, Note_off_c, 0, 63, 65
1, 50577, Note_off_c, 0, 79, 65
1, 50581, Note_off_c, 0, 80, 52
1, 50590, Note_off_c, 0, 82, 64
1, 50632, Note_on_c, 0, 63, 66
1, 50669, Note_off_c, 0, 63, 64
1, 50760, Note_on_c, 0, 63, 62
1, 50790, Note_off_c, 0, 63, 65
1, 50867, Note_on_c, 0, 63, 61
1, 50882, Note_on_c, 0, 70, 59
1, 50885, Note_on_c, 0, 67, 57
1, 50903, Note_off_c, 0, 63, 64
1, 50918, Note_off_c, 0, 67, 65
1, 50921, Note_off_c, 0, 70, 63
1, 50998, Note_on_c, 0, 63, 58
1, 51025, Note_off_c, 0, 63, 63
1, 51094, Note_on_c, 0, 63, 63
1, 51130, Note_off_c, 0, 63, 63
1, 51213, Note_on_c, 0, 58, 70
1, 51214, Note_on_c, 0, 55, 61
1, 51220, Note_on_c, 0, 63, 60
1, 51241, Note_off_c, 0, 55, 62
1, 51246, Note_off_c, 0, 58, 67
1, 51279, Note_off_c, 0, 63, 63
1, 51315, Note_on_c, 0, 61, 72
1, 51320, Note_on_c, 0, 58, 71
1, 51405, Note_off_c, 0, 58, 60
1, 51432, Note_on_c, 0, 63, 60
1, 51432, Note_off_c, 0, 61, 56
1, 51463, Note_off_c, 0, 63, 65
1, 51549, Note_on_c, 0, 63, 63
1, 51549, Note_on_c, 0, 82, 82
1, 51562, Note_on_c, 0, 79, 64
1, 51584, Note_off_c, 0, 63, 66
1, 51589, Note_off_c, 0, 79, 67
1, 51593, Note_off_c, 0, 82, 64
1, 51639, Note_on_c, 0, 82, 72
1, 51642, Note_on_c, 0, 85, 83
1, 51648, Note_on_c, 0, 63, 76
1, 51660, Note_on_c, 0, 79, 55
1, 51681, Note_off_c, 0, 79, 62
1, 51692, Note_off_c, 0, 63, 61
1, 51786, Note_on_c, 0, 63, 50
1, 51812, Note_off_c, 0, 63, 64
1, 51869, Note_off_c, 0, 82, 54
1, 51900, Note_on_c, 0, 80, 53
1, 51901, Note_on_c, 0, 63, 53
1, 51912, Note_on_c, 0, 83, 42
1, 51917, Note_off_c, 0, 85, 56
1, 51937, Note_off_c, 0, 63, 64
1, 51942, Note_on_c, 0, 84, 26
1, 51946, Note_off_c, 0, 80, 61
1, 51949, Note_off_c, 0, 83, 64
1, 51982, Note_off_c, 0, 84, 30
1, 52015, Note_on_c, 0, 63, 64
1, 52048, Note_off_c, 0, 63, 64
1, 52129, Note_on_c, 0, 63, 63
1, 52161, Note_off_c, 0, 63, 65
1, 52241, Note_on_c, 0, 63, 60
1, 52248, Note_on_c, 0, 71, 64
1, 52259, Note_on_c, 0, 68, 53
1, 52277, Note_off_c, 0, 63, 65
1, 52298, Note_off_c, 0, 71, 62
1, 52298, Note_off_c, 0, 68, 63
1, 52371, Note_on_c, 0, 63, 61
1, 52404, Note_off_c, 0, 63, 65
1, 52428, Control_c, 0, 64, 50
1, 52468, Note_on_c, 0, 63, 70
1, 52507, Note_off_c, 0, 63, 62
1, 52583, Note_on_c, 0, 63, 71
1, 52586, Note_on_c, 0, 56, 73
1, 52591, Note_on_c, 0, 59, 78
1, 52618, Note_off_c, 0, 56, 68
1, 52629, Note_off_c, 0, 59, 63
1, 52637, Note_off_c, 0, 63, 59
1, 52689, Note_on_c, 0, 59, 67
1, 52689, Note_on_c, 0, 56, 72
1, 52724, Control_c, 0, 64, 50
1, 52771, Note_off_c, 0, 56, 58
1, 52787, Note_off_c, 0, 59, 61
1, 52791, Note_on_c, 0, 63, 72
1, 52826, Note_off_c, 0, 63, 64
1, 52872, Control_c, 0, 64, 50
1, 52890, Note_on_c, 0, 63, 74
1, 52927, Note_on_c, 0, 83, 88
1, 52930, Note_on_c, 0, 80, 76
1, 52957, Note_off_c, 0, 63, 61
1, 52960, Note_off_c, 0, 80, 64
1, 52972, Note_off_c, 0, 83, 65
1, 53021, Note_on_c, 0, 88, 97
1, 53022, Note_on_c, 0, 80, 98
1, 53024, Note_on_c, 0, 83, 88
1, 53151, Note_on_c, 0, 63, 69
1, 53180, Note_off_c, 0, 63, 65
1, 53255, Note_on_c, 0, 63, 75
1, 53303, Note_off_c, 0, 63, 57
1, 53366, Note_on_c, 0, 56, 65
1, 53368, Note_on_c, 0, 59, 69
1, 53479, Note_on_c, 0, 63, 64
1, 53528, Note_off_c, 0, 59, 59
1, 53528, Note_off_c, 0, 63, 61
1, 53531, Note_off_c, 0, 56, 59
1, 53601, Note_on_c, 0, 63, 62
1, 53643, Note_off_c, 0, 63, 60
1, 53713, Note_on_c, 0, 59, 61
1, 53721, Note_on_c, 0, 56, 54
1, 53840, Note_on_c, 0, 63, 54
1, 53879, Note_off_c, 0, 63, 65
1, 53899, Note_off_c, 0, 59, 24
1, 53905, Note_off_c, 0, 56, 46
1, 53962, Note_on_c, 0, 63, 64
1, 53999, Note_off_c, 0, 63, 62
1, 54038, Note_off_c, 0, 83, 46
1, 54077, Note_on_c, 0, 59, 60
1, 54083, Note_on_c, 0, 56, 53
1, 54170, Note_off_c, 0, 80, 31
1, 54204, Note_on_c, 0, 63, 59
1, 54241, Note_off_c, 0, 59, 27
1, 54242, Note_off_c, 0, 63, 64
1, 54289, Note_off_c, 0, 56, 45
1, 54330, Note_on_c, 0, 63, 62
1, 54366, Note_off_c, 0, 63, 61
1, 54431, Note_on_c, 0, 87, 69
1, 54440, Note_on_c, 0, 79, 50
1, 54443, Note_on_c, 0, 82, 53
1, 54464, Note_off_c, 0, 88, 51
1, 54578, Note_on_c, 0, 63, 60
1, 54610, Note_off_c, 0, 63, 64
1, 54689, Note_on_c, 0, 63, 58
1, 54730, Note_off_c, 0, 63, 63
1, 54736, Note_off_c, 0, 79, 56
1, 54739, Note_off_c, 0, 87, 57
1, 54775, Note_off_c, 0, 82, 62
1, 54802, Note_on_c, 0, 58, 63
1, 54805, Note_on_c, 0, 55, 58
1, 54930, Note_on_c, 0, 63, 66
1, 54965, Note_off_c, 0, 63, 63
1, 54994, Note_off_c, 0, 55, 50
1, 55052, Note_off_c, 0, 58, 0
1, 55053, Note_on_c, 0, 63, 63
1, 55089, Poly_aftertouch_c, 0, 58, 127
1, 55093, Note_off_c, 0, 63, 60
1, 55119, Poly_aftertouch_c, 0, 58, 0
1, 55153, Note_on_c, 0, 75, 84
1, 55163, Note_on_c, 0, 69, 70
1, 55166, Note_on_c, 0, 66, 64
1, 55291, Note_on_c, 0, 63, 64
1, 55329, Note_off_c, 0, 63, 62
1, 55421, Note_on_c, 0, 63, 62
1, 55453, Note_off_c, 0, 63, 64
1, 55531, Note_on_c, 0, 57, 57
1, 55538, Note_on_c, 0, 54, 53
1, 55652, Note_off_c, 0, 69, 51
1, 55672, Note_on_c, 0, 63, 60
1, 55709, Note_off_c, 0, 63, 63
1, 55714, Note_off_c, 0, 75, 52
1, 55753, Note_off_c, 0, 66, 49
1, 55783, Note_on_c, 0, 63, 63
1, 55783, Note_off_c, 0, 54, 39
1, 55821, Note_off_c, 0, 63, 58
1, 55847, Note_off_c, 0, 57, 45
1, 55896, Note_on_c, 0, 74, 64
1, 55908, Note_on_c, 0, 65, 48
1, 55911, Note_on_c, 0, 68, 47
1, 56042, Note_on_c, 0, 63, 58
1, 56079, Note_off_c, 0, 63, 62
1, 56165, Note_on_c, 0, 63, 41
1, 56195, Note_off_c, 0, 63, 55
1, 56258, Note_on_c, 0, 56, 51
1, 56283, Note_on_c, 0, 53, 39
1, 56289, Note_off_c, 0, 74, 57
1, 56322, Note_off_c, 0, 65, 58
1, 56355, Note_off_c, 0, 68, 55
1, 56405, Note_on_c, 0, 63, 57
1, 56441, Note_off_c, 0, 63, 63
1, 56462, Note_off_c, 0, 53, 30
1, 56500, Note_off_c, 0, 56, 37
1, 56521, Note_on_c, 0, 63, 54
1, 56563, Note_off_c, 0, 63, 58
1, 56622, Note_on_c, 0, 73, 59
1, 56637, Note_on_c, 0, 64, 46
1, 56643, Note_on_c, 0, 67, 41
1, 56777, Note_on_c, 0, 63, 55
1, 56811, Note_off_c, 0, 63, 63
1, 56885, Note_on_c, 0, 63, 60
1, 56925, Note_off_c, 0, 63, 58
1, 57000, Note_on_c, 0, 52, 51
1, 57000, Note_on_c, 0, 55, 50
1, 57008, Control_c, 0, 64, 51
1, 57036, Note_off_c, 0, 64, 53
1, 57073, Note_off_c, 0, 73, 54
1, 57088, Note_off_c, 0, 67, 52
1, 57127, Control_c, 0, 64, 51
1, 57147, Note_on_c, 0, 63, 57
1, 57187, Note_off_c, 0, 63, 62
1, 57268, Note_on_c, 0, 63, 60
1, 57303, Note_off_c, 0, 63, 64
1, 57307, Note_off_c, 0, 52, 38
1, 57314, Note_off_c, 0, 55, 24
1, 57392, Note_on_c, 0, 73, 65
1, 57399, Note_on_c, 0, 63, 50
1, 57404, Note_on_c, 0, 67, 49
1, 57535, Note_on_c, 0, 51, 68
1, 57571, Note_off_c, 0, 51, 65
1, 57658, Note_on_c, 0, 51, 64
1, 57709, Note_off_c, 0, 51, 59
1, 57801, Note_on_c, 0, 51, 64
1, 57837, Note_off_c, 0, 51, 64
1, 57920, Note_on_c, 0, 51, 62
1, 57933, Note_off_c, 0, 73, 51
1, 57959, Note_off_c, 0, 51, 65
1, 57968, Note_off_c, 0, 67, 37
1, 58002, Note_off_c, 0, 63, 48
1, 58047, Note_on_c, 0, 51, 65
1, 58084, Note_off_c, 0, 51, 65
1, 58183, Note_on_c, 0, 51, 59
1, 58217, Note_off_c, 0, 51, 65
1, 58313, Note_on_c, 0, 51, 56
1, 58356, Note_off_c, 0, 51, 63
1, 58448, Note_on_c, 0, 51, 62
1, 58488, Note_off_c, 0, 51, 64
1, 58573, Note_on_c, 0, 51, 63
1, 58615, Note_off_c, 0, 51, 63
1, 58709, Note_on_c, 0, 51, 59
1, 58728, Control_c, 0, 67, 9
1, 58740, Note_off_c, 0, 51, 66
1, 58743, Control_c, 0, 67, 13
1, 58758, Control_c, 0, 67, 15
1, 58774, Control_c, 0, 67, 16
1, 58790, Control_c, 0, 67, 17
1, 58804, Control_c, 0, 67, 18
1, 58825, Note_on_c, 0, 51, 60
1, 58834, Control_c, 0, 67, 19
1, 58859, Note_off_c, 0, 51, 66
1, 58864, Control_c, 0, 67, 19
1, 58893, Control_c, 0, 67, 20
1, 58923, Control_c, 0, 67, 21
1, 58948, Note_on_c, 0, 61, 63
1, 58952, Control_c, 0, 67, 21
1, 58953, Note_on_c, 0, 58, 52
1, 58956, Note_on_c, 0, 55, 50
1, 58967, Control_c, 0, 67, 22
1, 58990, Control_c, 0, 67, 24
1, 59005, Control_c, 0, 67, 29
1, 59019, Control_c, 0, 67, 35
1, 59034, Control_c, 0, 67, 39
1, 59049, Control_c, 0, 67, 41
1, 59064, Control_c, 0, 67, 41
1, 59111, Note_on_c, 0, 39, 51
1, 59123, Control_c, 0, 67, 43
1, 59138, Control_c, 0, 67, 43
1, 59148, Note_off_c, 0, 39, 63
1, 59211, Control_c, 0, 67, 44
1, 59226, Control_c, 0, 67, 45
1, 59235, Note_on_c, 0, 39, 55
1, 59273, Note_off_c, 0, 39, 64
1, 59285, Control_c, 0, 67, 45
1, 59300, Control_c, 0, 67, 46
1, 59315, Control_c, 0, 67, 52
1, 59330, Control_c, 0, 67, 59
1, 59345, Control_c, 0, 67, 63
1, 59360, Control_c, 0, 67, 65
1, 59363, Note_on_c, 0, 39, 53
1, 59404, Control_c, 0, 67, 65
1, 59412, Note_off_c, 0, 39, 61
1, 59419, Control_c, 0, 67, 66
1, 59434, Control_c, 0, 67, 66
1, 59478, Note_off_c, 0, 61, 27
1, 59510, Note_on_c, 0, 39, 56
1, 59511, Note_off_c, 0, 58, 32
1, 59523, Control_c, 0, 67, 67
1, 59551, Note_off_c, 0, 39, 62
1, 59567, Note_off_c, 0, 55, 20
1, 59647, Note_on_c, 0, 39, 53
1, 59688, Note_off_c, 0, 39, 63
1, 59738, Control_c, 0, 67, 68
1, 59792, Note_on_c, 0, 39, 52
1, 59828, Control_c, 0, 67, 68
1, 59833, Note_off_c, 0, 39, 63
1, 59857, Control_c, 0, 67, 69
1, 59916, Control_c, 0, 67, 70
1, 59931, Control_c, 0, 67, 70
1, 59933, Note_on_c, 0, 39, 49
1, 59960, Control_c, 0, 67, 71
1, 59975, Control_c, 0, 67, 75
1, 59977, Note_off_c, 0, 39, 59
1, 59990, Control_c, 0, 67, 85
1, 60005, Control_c, 0, 67, 92
1, 60020, Control_c, 0, 67, 96
1, 60034, Control_c, 0, 67, 100
1, 60049, Control_c, 0, 67, 103
1, 60064, Control_c, 0, 67, 105
1, 60079, Control_c, 0, 67, 105
1, 60086, Note_on_c, 0, 39, 47
1, 60094, Control_c, 0, 67, 106
1, 60108, Control_c, 0, 67, 107
1, 60123, Control_c, 0, 67, 108
1, 60135, Note_off_c, 0, 39, 58
1, 60138, Control_c, 0, 67, 109
1, 60153, Control_c, 0, 67, 112
1, 60168, Control_c, 0, 67, 115
1, 60182, Control_c, 0, 67, 118
1, 60197, Control_c, 0, 67, 121
1, 60212, Control_c, 0, 67, 123
1, 60227, Control_c, 0, 67, 125
1, 60242, Control_c, 0, 67, 127
1, 60246, Note_on_c, 0, 39, 45
1, 60257, Control_c, 0, 67, 127
1, 60301, Note_off_c, 0, 39, 54
1, 60330, Control_c, 0, 64, 52
1, 60345, Control_c, 0, 64, 53
1, 60359, Control_c, 0, 64, 54
1, 60375, Control_c, 0, 64, 55
1, 60390, Control_c, 0, 64, 56
1, 60405, Control_c, 0, 64, 56
1, 60420, Control_c, 0, 64, 57
1, 60421, Note_on_c, 0, 39, 45
1, 60435, Control_c, 0, 64, 58
1, 60449, Control_c, 0, 64, 59
1, 60464, Control_c, 0, 64, 60
1, 60482, Note_off_c, 0, 39, 58
1, 60487, Control_c, 0, 64, 61
1, 60501, Control_c, 0, 64, 62
1, 60516, Control_c, 0, 64, 63
1, 60531, Control_c, 0, 64, 64
1, 60546, Control_c, 0, 64, 66
1, 60561, Control_c, 0, 64, 68
1, 60576, Control_c, 0, 64, 70
1, 60590, Control_c, 0, 64, 73
1, 60605, Control_c, 0, 64, 75
1, 60612, Note_on_c, 0, 39, 44
1, 60620, Control_c, 0, 64, 77
1, 60635, Control_c, 0, 64, 79
1, 60650, Control_c, 0, 64, 80
1, 60662, Note_off_c, 0, 39, 58
1, 60664, Control_c, 0, 64, 82
1, 60679, Control_c, 0, 64, 84
1, 60694, Control_c, 0, 64, 85
1, 60709, Control_c, 0, 64, 88
1, 60724, Control_c, 0, 64, 90
1, 60738, Control_c, 0, 64, 93
1, 60753, Control_c, 0, 64, 95
1, 60768, Control_c, 0, 64, 97
1, 60782, Control_c, 0, 64, 100
1, 60797, Control_c, 0, 64, 103
1, 60812, Control_c, 0, 64, 104
1, 60827, Control_c, 0, 64, 105
1, 60842, Control_c, 0, 64, 106
1, 60856, Control_c, 0, 64, 107
1, 60871, Control_c, 0, 64, 108
1, 60886, Control_c, 0, 64, 111
1, 60901, Control_c, 0, 64, 111
1, 60931, Control_c, 0, 64, 110
1, 60939, Note_on_c, 0, 32, 39
1, 60946, Control_c, 0, 64, 107
1, 60961, Control_c, 0, 64, 102
1, 60975, Control_c, 0, 64, 94
1, 60990, Control_c, 0, 64, 78
1, 61005, Control_c, 0, 64, 66
1, 61020, Control_c, 0, 64, 58
1, 61035, Control_c, 0, 64, 53
1, 61064, Control_c, 0, 64, 54
1, 61079, Control_c, 0, 64, 56
1, 61094, Control_c, 0, 64, 61
1, 61109, Control_c, 0, 64, 64
1, 61123, Control_c, 0, 64, 68
1, 61138, Control_c, 0, 64, 75
1, 61153, Control_c, 0, 64, 83
1, 61168, Control_c, 0, 64, 97
1, 61184, Control_c, 0, 64, 113
1, 61198, Control_c, 0, 64, 127
1, 61294, Note_on_c, 0, 36, 28
1, 61297, Note_on_c, 0, 39, 22
1, 61311, Note_on_c, 0, 44, 18
1, 61345, Note_off_c, 0, 32, 38
1, 61461, Note_off_c, 0, 36, 42
1, 61467, Note_off_c, 0, 44, 30
1, 61479, Note_on_c, 0, 32, 45
1, 61479, Note_off_c, 0, 39, 41
1, 61605, Note_on_c, 0, 36, 31
1, 61622, Note_on_c, 0, 44, 31
1, 61623, Note_on_c, 0, 39, 38
1, 61631, Note_off_c, 0, 32, 32
1, 61726, Note_off_c, 0, 39, 49
1, 61727, Note_off_c, 0, 44, 33
1, 61762, Note_off_c, 0, 36, 32
1, 61765, Note_on_c, 0, 32, 44
1, 61878, Note_off_c, 0, 32, 37
1, 61888, Note_on_c, 0, 39, 34
1, 61904, Note_on_c, 0, 44, 20
1, 61907, Note_on_c, 0, 36, 34
1, 61980, Note_off_c, 0, 36, 52
1, 61982, Note_off_c, 0, 44, 39
1, 62013, Note_off_c, 0, 39, 36
1, 62035, Note_on_c, 0, 32, 40
1, 62161, Note_on_c, 0, 39, 33
1, 62177, Note_on_c, 0, 36, 36
1, 62187, Note_on_c, 0, 44, 19
1, 62208, Note_off_c, 0, 32, 35
1, 62311, Note_off_c, 0, 36, 50
1, 62320, Note_off_c, 0, 44, 28
1, 62331, Note_on_c, 0, 32, 49
1, 62365, Note_off_c, 0, 39, 41
1, 62434, Note_on_c, 0, 60, 66
1, 62444, Note_on_c, 0, 48, 57
1, 62480, Note_on_c, 0, 36, 36
1, 62498, Note_on_c, 0, 39, 29
1, 62532, Poly_aftertouch_c, 0, 44, 127
1, 62542, Note_off_c, 0, 32, 38
1, 62614, Note_off_c, 0, 36, 55
1, 62619, Note_off_c, 0, 48, 57
1, 62641, Poly_aftertouch_c, 0, 44, 0
1, 62642, Note_on_c, 0, 32, 52
1, 62666, Note_off_c, 0, 39, 36
1, 62789, Note_on_c, 0, 63, 75
1, 62790, Note_on_c, 0, 44, 39
1, 62790, Note_on_c, 0, 51, 68
1, 62792, Note_off_c, 0, 60, 63
1, 62795, Note_on_c, 0, 36, 36
1, 62807, Note_on_c, 0, 39, 37
1, 62824, Note_off_c, 0, 51, 66
1, 62844, Note_off_c, 0, 32, 36
1, 62886, Note_off_c, 0, 44, 47
1, 62901, Poly_aftertouch_c, 0, 64, 127
1, 62933, Note_on_c, 0, 68, 77
1, 62946, Poly_aftertouch_c, 0, 64, 0
1, 62954, Note_on_c, 0, 56, 47
1, 62958, Note_on_c, 0, 32, 55
1, 62970, Note_off_c, 0, 63, 60
1, 62970, Control_c, 0, 64, 91
1, 62979, Note_off_c, 0, 36, 43
1, 62985, Control_c, 0, 64, 71
1, 62986, Note_off_c, 0, 39, 44
1, 62999, Control_c, 0, 64, 60
1, 63014, Control_c, 0, 64, 50
1, 63029, Control_c, 0, 64, 49
1, 63044, Control_c, 0, 64, 49
1, 63058, Control_c, 0, 64, 54
1, 63073, Control_c, 0, 64, 60
1, 63088, Control_c, 0, 64, 66
1, 63103, Control_c, 0, 64, 74
1, 63109, Note_on_c, 0, 36, 42
1, 63110, Note_on_c, 0, 39, 38
1, 63118, Control_c, 0, 64, 90
1, 63125, Note_on_c, 0, 44, 46
1, 63132, Control_c, 0, 64, 127
1, 63165, Note_off_c, 0, 32, 32
1, 63170, Note_off_c, 0, 56, 64
1, 63271, Note_off_c, 0, 44, 43
1, 63280, Note_on_c, 0, 32, 54
1, 63286, Note_off_c, 0, 36, 36
1, 63295, Note_off_c, 0, 39, 41
1, 63393, Note_on_c, 0, 72, 82
1, 63396, Note_on_c, 0, 60, 67
1, 63419, Note_off_c, 0, 32, 55
1, 63425, Note_on_c, 0, 36, 47
1, 63427, Note_on_c, 0, 39, 33
1, 63436, Note_on_c, 0, 44, 38
1, 63441, Note_off_c, 0, 68, 56
1, 63512, Note_off_c, 0, 44, 44
1, 63520, Note_off_c, 0, 36, 56
1, 63548, Note_off_c, 0, 60, 62
1, 63551, Note_on_c, 0, 32, 55
1, 63569, Note_off_c, 0, 39, 35
1, 63595, Note_off_c, 0, 72, 57
1, 63619, Note_on_c, 0, 64, 38
1, 63687, Note_on_c, 0, 36, 37
1, 63694, Note_off_c, 0, 32, 36
1, 63703, Note_on_c, 0, 44, 15
1, 63703, Note_on_c, 0, 68, 78
1, 63706, Note_on_c, 0, 56, 71
1, 63706, Note_on_c, 0, 39, 31
1, 63759, Note_off_c, 0, 36, 55
1, 63792, Note_off_c, 0, 64, 32
1, 63804, Note_off_c, 0, 56, 54
1, 63806, Note_off_c, 0, 44, 33
1, 63817, Note_off_c, 0, 39, 53
1, 63822, Control_c, 0, 64, 94
1, 63837, Note_on_c, 0, 55, 51
1, 63837, Control_c, 0, 64, 77
1, 63838, Note_on_c, 0, 67, 66
1, 63852, Control_c, 0, 64, 65
1, 63853, Note_on_c, 0, 34, 42
1, 63867, Control_c, 0, 64, 55
1, 63881, Control_c, 0, 64, 42
1, 63896, Control_c, 0, 64, 33
1, 63911, Control_c, 0, 64, 27
1, 63941, Control_c, 0, 64, 28
1, 63947, Note_off_c, 0, 68, 27
1, 63955, Control_c, 0, 64, 41
1, 63970, Control_c, 0, 64, 59
1, 63985, Control_c, 0, 64, 65
1, 63999, Control_c, 0, 64, 72
1, 64014, Control_c, 0, 64, 87
1, 64019, Note_on_c, 0, 46, 41
1, 64021, Note_on_c, 0, 37, 43
1, 64022, Note_on_c, 0, 39, 38
1, 64029, Control_c, 0, 64, 127
1, 64030, Note_off_c, 0, 34, 39
1, 64059, Note_off_c, 0, 55, 61
1, 64164, Note_off_c, 0, 46, 53
1, 64171, Note_on_c, 0, 34, 36
1, 64189, Note_off_c, 0, 37, 37
1, 64195, Note_off_c, 0, 39, 44
1, 64281, Note_on_c, 0, 70, 69
1, 64296, Note_on_c, 0, 58, 61
1, 64310, Note_off_c, 0, 67, 60
1, 64327, Note_on_c, 0, 46, 35
1, 64328, Note_on_c, 0, 37, 43
1, 64328, Note_on_c, 0, 39, 36
1, 64346, Note_off_c, 0, 34, 41
1, 64398, Note_off_c, 0, 46, 52
1, 64404, Note_off_c, 0, 39, 57
1, 64419, Note_off_c, 0, 37, 39
1, 64454, Note_on_c, 0, 34, 38
1, 64466, Note_off_c, 0, 58, 57
1, 64480, Note_off_c, 0, 70, 63
1, 64555, Note_on_c, 0, 37, 40
1, 64578, Note_on_c, 0, 39, 32
1, 64595, Note_on_c, 0, 67, 69
1, 64597, Note_off_c, 0, 34, 30
1, 64603, Note_on_c, 0, 46, 36
1, 64609, Note_on_c, 0, 55, 58
1, 64638, Note_off_c, 0, 39, 53
1, 64640, Note_off_c, 0, 37, 49
1, 64644, Note_off_c, 0, 55, 57
1, 64661, Note_off_c, 0, 46, 58
1, 64743, Note_off_c, 0, 67, 52
1, 64749, Control_c, 0, 64, 98
1, 64752, Note_on_c, 0, 68, 58
1, 64754, Note_on_c, 0, 36, 37
1, 64764, Control_c, 0, 64, 84
1, 64778, Note_on_c, 0, 56, 46
1, 64778, Control_c, 0, 64, 75
1, 64793, Control_c, 0, 64, 68
1, 64808, Control_c, 0, 64, 60
1, 64822, Control_c, 0, 64, 52
1, 64837, Control_c, 0, 64, 47
1, 64852, Control_c, 0, 64, 45
1, 64882, Control_c, 0, 64, 47
1, 64896, Control_c, 0, 64, 55
1, 64911, Control_c, 0, 64, 61
1, 64926, Control_c, 0, 64, 65
1, 64934, Note_off_c, 0, 36, 43
1, 64941, Note_on_c, 0, 48, 39
1, 64941, Control_c, 0, 64, 71
1, 64956, Control_c, 0, 64, 79
1, 64961, Note_on_c, 0, 44, 24
1, 64977, Note_on_c, 0, 39, 23
1, 64978, Control_c, 0, 64, 92
1, 64993, Control_c, 0, 64, 119
1, 64999, Note_off_c, 0, 56, 38
1, 65008, Control_c, 0, 64, 127
1, 65061, Note_off_c, 0, 68, 59
1, 65101, Note_on_c, 0, 36, 41
1, 65111, Note_off_c, 0, 44, 35
1, 65114, Note_off_c, 0, 48, 42
1, 65149, Note_off_c, 0, 39, 37
1, 65261, Note_on_c, 0, 63, 52
1, 65265, Note_on_c, 0, 51, 47
1, 65284, Note_on_c, 0, 48, 39
1, 65292, Note_off_c, 0, 36, 32
1, 65301, Note_on_c, 0, 44, 18
1, 65304, Note_on_c, 0, 39, 32
1, 65359, Note_off_c, 0, 44, 44
1, 65369, Note_off_c, 0, 39, 49
1, 65369, Note_off_c, 0, 48, 52
1, 65423, Note_on_c, 0, 36, 32
1, 65533, Note_on_c, 0, 48, 40
1, 65548, Note_on_c, 0, 39, 27
1, 65552, Note_off_c, 0, 36, 35
1, 65557, Note_on_c, 0, 44, 23
1, 65631, Note_off_c, 0, 48, 52
1, 65640, Note_off_c, 0, 44, 47
1, 65675, Note_off_c, 0, 39, 36
1, 65682, Note_on_c, 0, 36, 45
1, 65815, Note_on_c, 0, 48, 47
1, 65816, Note_on_c, 0, 39, 42
1, 65823, Note_off_c, 0, 51, 33
1, 65834, Note_on_c, 0, 44, 23
1, 65840, Note_off_c, 0, 36, 36
1, 65888, Note_off_c, 0, 44, 44
1, 65966, Note_on_c, 0, 36, 45
1, 66019, Note_off_c, 0, 39, 29
1, 66068, Control_c, 0, 64, 104
1, 66083, Control_c, 0, 64, 77
1, 66093, Note_on_c, 0, 65, 59
1, 66098, Control_c, 0, 64, 63
1, 66103, Note_on_c, 0, 53, 45
1, 66113, Control_c, 0, 64, 53
1, 66118, Note_off_c, 0, 48, 22
1, 66119, Note_on_c, 0, 44, 43
1, 66128, Control_c, 0, 64, 53
1, 66142, Control_c, 0, 64, 53
1, 66144, Note_off_c, 0, 63, 41
1, 66157, Control_c, 0, 64, 55
1, 66172, Control_c, 0, 64, 60
1, 66187, Control_c, 0, 64, 64
1, 66202, Control_c, 0, 64, 71
1, 66216, Control_c, 0, 64, 82
1, 66231, Control_c, 0, 64, 100
1, 66233, Note_off_c, 0, 44, 58
1, 66246, Control_c, 0, 64, 127
1, 66267, Note_off_c, 0, 53, 60
1, 66272, Note_on_c, 0, 37, 44
1, 66293, Poly_aftertouch_c, 0, 64, 127
1, 66300, Note_off_c, 0, 65, 37
1, 66325, Poly_aftertouch_c, 0, 64, 0
1, 66398, Note_on_c, 0, 44, 40
1, 66410, Note_on_c, 0, 61, 71
1, 66410, Note_off_c, 0, 37, 36
1, 66416, Note_on_c, 0, 49, 69
1, 66481, Note_off_c, 0, 36, 34
1, 66510, Note_off_c, 0, 49, 60
1, 66543, Note_off_c, 0, 44, 56
1, 66551, Note_on_c, 0, 48, 60
1, 66554, Note_on_c, 0, 60, 73
1, 66571, Note_on_c, 0, 39, 44
1, 66580, Note_off_c, 0, 61, 61
1, 66594, Control_c, 0, 64, 93
1, 66609, Control_c, 0, 64, 75
1, 66624, Control_c, 0, 64, 62
1, 66639, Control_c, 0, 64, 47
1, 66654, Control_c, 0, 64, 40
1, 66669, Control_c, 0, 64, 38
1, 66697, Note_on_c, 0, 44, 51
1, 66698, Control_c, 0, 64, 43
1, 66703, Note_off_c, 0, 39, 54
1, 66713, Control_c, 0, 64, 53
1, 66728, Control_c, 0, 64, 62
1, 66742, Control_c, 0, 64, 67
1, 66757, Control_c, 0, 64, 77
1, 66773, Control_c, 0, 64, 93
1, 66786, Note_off_c, 0, 48, 60
1, 66788, Control_c, 0, 64, 127
1, 66832, Note_off_c, 0, 44, 58
1, 66836, Note_on_c, 0, 39, 56
1, 66987, Note_on_c, 0, 63, 74
1, 66992, Note_on_c, 0, 44, 46
1, 66999, Note_on_c, 0, 51, 63
1, 67012, Note_off_c, 0, 39, 37
1, 67020, Note_off_c, 0, 60, 62
1, 67103, Note_off_c, 0, 44, 58
1, 67143, Note_on_c, 0, 39, 44
1, 67152, Note_off_c, 0, 51, 58
1, 67155, Note_off_c, 0, 63, 61
1, 67285, Note_on_c, 0, 44, 44
1, 67295, Note_on_c, 0, 60, 73
1, 67302, Note_off_c, 0, 39, 33
1, 67318, Note_on_c, 0, 48, 55
1, 67348, Note_off_c, 0, 48, 63
1, 67402, Control_c, 0, 64, 102
1, 67411, Note_off_c, 0, 60, 57
1, 67417, Control_c, 0, 64, 83
1, 67432, Control_c, 0, 64, 71
1, 67434, Note_on_c, 0, 39, 41
1, 67442, Note_off_c, 0, 44, 36
1, 67447, Control_c, 0, 64, 64
1, 67448, Note_on_c, 0, 58, 60
1, 67462, Control_c, 0, 64, 57
1, 67464, Note_on_c, 0, 46, 52
1, 67477, Control_c, 0, 64, 50
1, 67492, Control_c, 0, 64, 42
1, 67506, Control_c, 0, 64, 36
1, 67521, Control_c, 0, 64, 35
1, 67536, Control_c, 0, 64, 36
1, 67551, Control_c, 0, 64, 45
1, 67562, Note_on_c, 0, 43, 45
1, 67566, Control_c, 0, 64, 58
1, 67572, Note_off_c, 0, 39, 38
1, 67581, Control_c, 0, 64, 64
1, 67584, Note_off_c, 0, 46, 53
1, 67596, Control_c, 0, 64, 72
1, 67611, Control_c, 0, 64, 86
1, 67626, Control_c, 0, 64, 123
1, 67640, Control_c, 0, 64, 127
1, 67698, Note_on_c, 0, 39, 45
1, 67699, Note_off_c, 0, 43, 56
1, 67849, Note_on_c, 0, 43, 44
1, 67855, Note_on_c, 0, 63, 62
1, 67859, Note_off_c, 0, 58, 56
1, 67861, Note_off_c, 0, 39, 34
1, 67869, Note_on_c, 0, 51, 53
1, 67934, Note_off_c, 0, 43, 55
1, 67998, Note_on_c, 0, 39, 45
1, 68024, Note_off_c, 0, 51, 36
1, 68099, Note_off_c, 0, 39, 61
1, 68133, Note_on_c, 0, 43, 43
1, 68163, Note_on_c, 0, 61, 59
1, 68174, Note_on_c, 0, 49, 42
1, 68199, Note_off_c, 0, 63, 51
1, 68217, Note_off_c, 0, 43, 61
1, 68222, Note_off_c, 0, 49, 57
1, 68337, Note_on_c, 0, 60, 56
1, 68342, Note_on_c, 0, 44, 35
1, 68344, Control_c, 0, 64, 101
1, 68359, Control_c, 0, 64, 90
1, 68374, Control_c, 0, 64, 81
1, 68389, Note_off_c, 0, 61, 34
1, 68389, Control_c, 0, 64, 74
1, 68404, Control_c, 0, 64, 67
1, 68419, Control_c, 0, 64, 60
1, 68434, Control_c, 0, 64, 50
1, 68449, Control_c, 0, 64, 44
1, 68463, Control_c, 0, 64, 40
1, 68478, Control_c, 0, 64, 39
1, 68508, Control_c, 0, 64, 41
1, 68523, Control_c, 0, 64, 50
1, 68537, Control_c, 0, 64, 57
1, 68552, Control_c, 0, 64, 61
1, 68567, Control_c, 0, 64, 64
1, 68582, Control_c, 0, 64, 67
1, 68597, Note_off_c, 0, 44, 37
1, 68597, Control_c, 0, 64, 74
1, 68601, Note_on_c, 0, 56, 39
1, 68611, Control_c, 0, 64, 84
1, 68612, Note_on_c, 0, 51, 35
1, 68615, Note_on_c, 0, 48, 40
1, 68626, Control_c, 0, 64, 110
1, 68641, Control_c, 0, 64, 127
1, 68709, Note_off_c, 0, 51, 39
1, 68735, Note_off_c, 0, 48, 50
1, 68739, Note_off_c, 0, 56, 36
1, 68759, Note_on_c, 0, 44, 45
1, 68881, Note_on_c, 0, 56, 39
1, 68881, Note_on_c, 0, 63, 60
1, 68892, Note_on_c, 0, 51, 33
1, 68898, Note_off_c, 0, 44, 35
1, 68901, Note_on_c, 0, 48, 35
1, 68961, Note_off_c, 0, 60, 50
1, 69007, Note_off_c, 0, 48, 44
1, 69015, Note_off_c, 0, 51, 44
1, 69039, Note_on_c, 0, 44, 50
1, 69047, Note_off_c, 0, 56, 41
1, 69134, Note_off_c, 0, 44, 56
1, 69154, Note_on_c, 0, 48, 42
1, 69154, Note_on_c, 0, 51, 45
1, 69166, Note_on_c, 0, 56, 48
1, 69258, Note_off_c, 0, 48, 57
1, 69265, Note_off_c, 0, 51, 56
1, 69274, Note_off_c, 0, 56, 48
1, 69288, Note_on_c, 0, 44, 48
1, 69315, Poly_aftertouch_c, 0, 46, 127
1, 69404, Note_off_c, 0, 44, 57
1, 69414, Note_on_c, 0, 56, 54
1, 69418, Note_on_c, 0, 51, 44
1, 69419, Note_on_c, 0, 48, 41
1, 69449, Control_c, 0, 67, 121
1, 69471, Control_c, 0, 67, 114
1, 69486, Control_c, 0, 67, 107
1, 69501, Control_c, 0, 67, 100
1, 69516, Control_c, 0, 67, 95
1, 69531, Control_c, 0, 67, 88
1, 69537, Note_off_c, 0, 56, 53
1, 69546, Control_c, 0, 67, 78
1, 69548, Note_off_c, 0, 48, 51
1, 69554, Note_off_c, 0, 51, 52
1, 69557, Note_on_c, 0, 44, 50
1, 69560, Control_c, 0, 67, 66
1, 69575, Control_c, 0, 67, 55
1, 69590, Control_c, 0, 67, 44
1, 69605, Control_c, 0, 67, 34
1, 69619, Control_c, 0, 67, 25
1, 69634, Control_c, 0, 67, 16
1, 69649, Control_c, 0, 67, 0
1, 69689, Note_on_c, 0, 72, 67
1, 69694, Note_off_c, 0, 44, 53
1, 69695, Note_on_c, 0, 60, 59
1, 69703, Note_on_c, 0, 51, 44
1, 69705, Note_on_c, 0, 48, 41
1, 69705, Note_on_c, 0, 56, 36
1, 69764, Note_off_c, 0, 63, 60
1, 69844, Note_on_c, 0, 44, 56
1, 69847, Note_off_c, 0, 51, 55
1, 69857, Note_off_c, 0, 56, 40
1, 69863, Note_off_c, 0, 60, 55
1, 69869, Note_off_c, 0, 48, 36
1, 69972, Note_on_c, 0, 56, 45
1, 69972, Note_off_c, 0, 44, 53
1, 69983, Note_on_c, 0, 51, 52
1, 69987, Note_on_c, 0, 48, 50
1, 69990, Note_on_c, 0, 75, 85
1, 69994, Note_off_c, 0, 72, 64
1, 69997, Note_on_c, 0, 63, 67
1, 70050, Note_off_c, 0, 63, 63
1, 70099, Note_off_c, 0, 56, 47
1, 70108, Poly_aftertouch_c, 0, 46, 0
1, 70133, Note_off_c, 0, 48, 59
1, 70133, Note_on_c, 0, 80, 79
1, 70136, Note_on_c, 0, 44, 57
1, 70141, Note_off_c, 0, 51, 55
1, 70145, Poly_aftertouch_c, 0, 46, 127
1, 70150, Note_on_c, 0, 68, 61
1, 70156, Note_off_c, 0, 75, 60
1, 70221, Control_c, 0, 64, 103
1, 70236, Control_c, 0, 64, 80
1, 70250, Control_c, 0, 64, 67
1, 70265, Control_c, 0, 64, 60
1, 70280, Control_c, 0, 64, 57
1, 70300, Note_on_c, 0, 51, 48
1, 70301, Note_on_c, 0, 48, 44
1, 70306, Note_on_c, 0, 56, 59
1, 70310, Control_c, 0, 64, 60
1, 70312, Note_off_c, 0, 44, 58
1, 70324, Control_c, 0, 64, 64
1, 70339, Control_c, 0, 64, 71
1, 70354, Control_c, 0, 64, 84
1, 70369, Control_c, 0, 64, 127
1, 70375, Note_off_c, 0, 68, 61
1, 70413, Poly_aftertouch_c, 0, 46, 0
1, 70431, Note_on_c, 0, 44, 69
1, 70431, Note_off_c, 0, 56, 59
1, 70434, Note_on_c, 0, 46, 8
1, 70448, Note_off_c, 0, 51, 56
1, 70451, Note_off_c, 0, 48, 57
1, 70558, Note_on_c, 0, 84, 95
1, 70566, Note_on_c, 0, 72, 76
1, 70573, Note_on_c, 0, 56, 53
1, 70582, Note_on_c, 0, 51, 53
1, 70583, Note_off_c, 0, 44, 59
1, 70589, Note_on_c, 0, 48, 54
1, 70589, Note_off_c, 0, 80, 60
1, 70669, Note_off_c, 0, 48, 57
1, 70672, Note_off_c, 0, 56, 58
1, 70675, Note_off_c, 0, 46, 0
1, 70685, Note_on_c, 0, 44, 60
1, 70691, Note_off_c, 0, 51, 61
1, 70694, Note_off_c, 0, 72, 62
1, 70711, Poly_aftertouch_c, 0, 46, 127
1, 70720, Note_off_c, 0, 84, 57
1, 70790, Note_on_c, 0, 76, 15
1, 70811, Note_on_c, 0, 56, 55
1, 70812, Note_on_c, 0, 48, 48
1, 70812, Poly_aftertouch_c, 0, 46, 0
1, 70821, Note_off_c, 0, 44, 55
1, 70829, Note_on_c, 0, 51, 54
1, 70835, Note_on_c, 0, 80, 87
1, 70836, Note_on_c, 0, 68, 81
1, 70924, Note_off_c, 0, 76, 42
1, 70932, Note_off_c, 0, 68, 60
1, 70947, Note_off_c, 0, 56, 55
1, 70953, Note_off_c, 0, 48, 38
1, 70963, Note_on_c, 0, 79, 86
1, 70969, Note_on_c, 0, 67, 83
1, 70970, Note_on_c, 0, 46, 69
1, 70973, Note_off_c, 0, 51, 60
1, 70999, Control_c, 0, 64, 102
1, 71013, Control_c, 0, 64, 77
1, 71015, Note_off_c, 0, 80, 46
1, 71028, Control_c, 0, 64, 63
1, 71043, Control_c, 0, 64, 47
1, 71058, Control_c, 0, 64, 34
1, 71072, Control_c, 0, 64, 32
1, 71102, Control_c, 0, 64, 33
1, 71116, Note_on_c, 0, 58, 73
1, 71117, Note_on_c, 0, 51, 58
1, 71117, Control_c, 0, 64, 47
1, 71123, Note_on_c, 0, 49, 54
1, 71132, Control_c, 0, 64, 61
1, 71137, Note_off_c, 0, 46, 56
1, 71146, Control_c, 0, 64, 70
1, 71161, Control_c, 0, 64, 84
1, 71176, Control_c, 0, 64, 127
1, 71197, Note_off_c, 0, 67, 58
1, 71233, Note_on_c, 0, 46, 67
1, 71254, Note_off_c, 0, 49, 58
1, 71271, Note_off_c, 0, 51, 60
1, 71280, Note_off_c, 0, 58, 58
1, 71365, Note_on_c, 0, 82, 93
1, 71376, Note_on_c, 0, 70, 80
1, 71389, Note_on_c, 0, 49, 54
1, 71391, Note_on_c, 0, 58, 68
1, 71391, Poly_aftertouch_c, 0, 47, 0
1, 71399, Note_off_c, 0, 46, 60
1, 71400, Note_on_c, 0, 51, 59
1, 71422, Note_off_c, 0, 79, 62
1, 71497, Note_off_c, 0, 49, 60
1, 71510, Note_off_c, 0, 51, 60
1, 71510, Note_off_c, 0, 58, 61
1, 71515, Note_on_c, 0, 46, 62
1, 71544, Note_off_c, 0, 82, 64
1, 71585, Note_off_c, 0, 70, 63
1, 71629, Note_on_c, 0, 49, 52
1, 71641, Note_on_c, 0, 51, 58
1, 71645, Note_on_c, 0, 58, 61
1, 71719, Note_off_c, 0, 49, 61
1, 71720, Note_off_c, 0, 51, 59
1, 71730, Note_on_c, 0, 79, 76
1, 71749, Note_on_c, 0, 67, 62
1, 71749, Note_off_c, 0, 58, 61
1, 71758, Note_off_c, 0, 46, 32
1, 71811, Note_off_c, 0, 67, 58
1, 71826, Note_off_c, 0, 79, 62
1, 71851, Control_c, 0, 64, 98
1, 71866, Control_c, 0, 64, 87
1, 71881, Control_c, 0, 64, 82
1, 71895, Control_c, 0, 64, 80
1, 71910, Control_c, 0, 64, 77
1, 71925, Control_c, 0, 64, 72
1, 71940, Control_c, 0, 64, 66
1, 71955, Control_c, 0, 64, 62
1, 71969, Control_c, 0, 64, 59
1, 71984, Control_c, 0, 64, 57
1, 71999, Control_c, 0, 64, 54
1, 72014, Control_c, 0, 64, 49
1, 72029, Control_c, 0, 64, 41
1, 72044, Control_c, 0, 64, 28
1, 72049, Note_on_c, 0, 80, 56
1, 72058, Control_c, 0, 64, 0
1, 72062, Note_on_c, 0, 60, 44
1, 72067, Note_on_c, 0, 51, 41
1, 72071, Note_on_c, 0, 68, 42
1, 72072, Note_on_c, 0, 56, 42
1, 72077, Note_on_c, 0, 48, 38
1, 72133, Control_c, 0, 64, 21
1, 72148, Control_c, 0, 64, 46
1, 72162, Control_c, 0, 64, 60
1, 72177, Control_c, 0, 64, 63
1, 72192, Control_c, 0, 64, 65
1, 72207, Control_c, 0, 64, 68
1, 72221, Control_c, 0, 64, 73
1, 72236, Control_c, 0, 64, 80
1, 72250, Control_c, 0, 64, 92
1, 72265, Control_c, 0, 64, 105
1, 72280, Control_c, 0, 64, 127
1, 72317, Note_off_c, 0, 68, 37
1, 72331, Note_off_c, 0, 80, 61
1, 72540, Control_c, 0, 64, 110
1, 72555, Control_c, 0, 64, 102
1, 72567, Note_on_c, 0, 75, 51
1, 72570, Control_c, 0, 64, 96
1, 72577, Note_on_c, 0, 63, 41
1, 72584, Control_c, 0, 64, 91
1, 72599, Control_c, 0, 64, 85
1, 72614, Control_c, 0, 64, 79
1, 72629, Control_c, 0, 64, 72
1, 72644, Control_c, 0, 64, 67
1, 72658, Control_c, 0, 64, 63
1, 72673, Control_c, 0, 64, 60
1, 72688, Control_c, 0, 64, 57
1, 72703, Control_c, 0, 64, 53
1, 72717, Control_c, 0, 64, 49
1, 72732, Control_c, 0, 64, 45
1, 72747, Control_c, 0, 64, 43
1, 72762, Control_c, 0, 64, 40
1, 72777, Control_c, 0, 64, 40
1, 72836, Control_c, 0, 64, 42
1, 72851, Control_c, 0, 64, 45
1, 72866, Control_c, 0, 64, 51
1, 72881, Control_c, 0, 64, 57
1, 72896, Control_c, 0, 64, 61
1, 72910, Control_c, 0, 64, 64
1, 72925, Control_c, 0, 64, 66
1, 72940, Control_c, 0, 64, 68
1, 72955, Control_c, 0, 64, 72
1, 72970, Control_c, 0, 64, 76
1, 72984, Control_c, 0, 64, 82
1, 72998, Control_c, 0, 64, 90
1, 73013, Control_c, 0, 64, 98
1, 73028, Control_c, 0, 64, 106
1, 73042, Control_c, 0, 64, 115
1, 73057, Control_c, 0, 64, 127
1, 73468, Note_off_c, 0, 48, 49
1, 73498, Poly_aftertouch_c, 0, 53, 127
1, 73505, Note_off_c, 0, 51, 53
1, 73537, Note_off_c, 0, 56, 42
1, 73575, Poly_aftertouch_c, 0, 53, 0
1, 73738, Note_off_c, 0, 63, 40
1, 73763, Control_c, 0, 64, 88
1, 73765, Note_on_c, 0, 76, 94
1, 73767, Note_on_c, 0, 56, 83
1, 73769, Note_on_c, 0, 64, 88
1, 73775, Note_on_c, 0, 49, 71
1, 73775, Note_on_c, 0, 52, 73
1, 73778, Control_c, 0, 64, 64
1, 73780, Note_off_c, 0, 60, 53
1, 73793, Control_c, 0, 64, 38
1, 73807, Control_c, 0, 64, 27
1, 73825, Note_off_c, 0, 75, 62
1, 73837, Control_c, 0, 64, 36
1, 73852, Control_c, 0, 64, 55
1, 73866, Control_c, 0, 64, 67
1, 73881, Control_c, 0, 64, 85
1, 73896, Control_c, 0, 64, 127
1, 73999, Note_off_c, 0, 76, 58
1, 74078, Note_off_c, 0, 64, 59
1, 74229, Note_on_c, 0, 73, 95
1, 74234, Note_on_c, 0, 61, 88
1, 74237, Note_on_c, 0, 57, 83
1, 74297, Note_off_c, 0, 56, 57
1, 74304, Control_c, 0, 64, 91
1, 74319, Control_c, 0, 64, 68
1, 74334, Control_c, 0, 64, 53
1, 74349, Control_c, 0, 64, 38
1, 74363, Control_c, 0, 64, 27
1, 74378, Control_c, 0, 64, 0
1, 74467, Control_c, 0, 64, 29
1, 74482, Control_c, 0, 64, 44
1, 74497, Control_c, 0, 64, 55
1, 74512, Control_c, 0, 64, 61
1, 74527, Control_c, 0, 64, 65
1, 74542, Control_c, 0, 64, 70
1, 74556, Control_c, 0, 64, 78
1, 74571, Control_c, 0, 64, 90
1, 74586, Control_c, 0, 64, 110
1, 74601, Control_c, 0, 64, 127
1, 75173, Note_off_c, 0, 52, 62
1, 75189, Note_off_c, 0, 57, 57
1, 75543, Note_off_c, 0, 73, 16
1, 75594, Note_off_c, 0, 61, 14
1, 75648, Note_on_c, 0, 71, 56
1, 75669, Control_c, 0, 64, 116
1, 75677, Note_on_c, 0, 51, 41
1, 75679, Note_on_c, 0, 59, 36
1, 75683, Control_c, 0, 64, 104
1, 75692, Note_on_c, 0, 56, 28
1, 75698, Control_c, 0, 64, 94
1, 75713, Control_c, 0, 64, 87
1, 75728, Control_c, 0, 64, 80
1, 75743, Control_c, 0, 64, 74
1, 75758, Control_c, 0, 64, 69
1, 75773, Control_c, 0, 64, 66
1, 75782, Note_off_c, 0, 49, 31
1, 75788, Control_c, 0, 64, 63
1, 75802, Control_c, 0, 64, 60
1, 75817, Control_c, 0, 64, 58
1, 75832, Control_c, 0, 64, 54
1, 75847, Control_c, 0, 64, 49
1, 75862, Control_c, 0, 64, 43
1, 75877, Control_c, 0, 64, 36
1, 75891, Control_c, 0, 64, 26
1, 75906, Control_c, 0, 64, 17
1, 75921, Control_c, 0, 64, 11
1, 75980, Control_c, 0, 64, 12
1, 75995, Control_c, 0, 64, 24
1, 76009, Control_c, 0, 64, 37
1, 76024, Control_c, 0, 64, 51
1, 76039, Control_c, 0, 64, 59
1, 76053, Control_c, 0, 64, 62
1, 76068, Control_c, 0, 64, 64
1, 76083, Control_c, 0, 64, 65
1, 76098, Control_c, 0, 64, 66
1, 76113, Control_c, 0, 64, 67
1, 76127, Control_c, 0, 64, 70
1, 76142, Control_c, 0, 64, 73
1, 76157, Control_c, 0, 64, 76
1, 76172, Control_c, 0, 64, 79
1, 76187, Control_c, 0, 64, 80
1, 76209, Control_c, 0, 64, 81
1, 76224, Control_c, 0, 64, 83
1, 76239, Control_c, 0, 64, 85
1, 76253, Control_c, 0, 64, 87
1, 76268, Control_c, 0, 64, 90
1, 76283, Control_c, 0, 64, 92
1, 76298, Control_c, 0, 64, 93
1, 76313, Control_c, 0, 64, 93
1, 76327, Control_c, 0, 64, 94
1, 76342, Control_c, 0, 64, 95
1, 76358, Control_c, 0, 64, 98
1, 76373, Control_c, 0, 64, 101
1, 76388, Control_c, 0, 64, 102
1, 76447, Control_c, 0, 64, 103
1, 76462, Control_c, 0, 64, 104
1, 76477, Control_c, 0, 64, 105
1, 76492, Control_c, 0, 64, 107
1, 76506, Control_c, 0, 64, 109
1, 76521, Control_c, 0, 64, 110
1, 76551, Control_c, 0, 64, 111
1, 76580, Control_c, 0, 64, 113
1, 76595, Control_c, 0, 64, 117
1, 76610, Control_c, 0, 64, 127
1, 76766, Note_on_c, 0, 70, 41
1, 76818, Note_off_c, 0, 71, 32
1, 76847, Note_off_c, 0, 59, 42
1, 76983, Note_off_c, 0, 56, 42
1, 77016, Note_off_c, 0, 51, 38
1, 77050, Note_on_c, 0, 68, 50
1, 77181, Note_off_c, 0, 70, 29
1, 77218, Note_on_c, 0, 55, 43
1, 77225, Note_on_c, 0, 61, 39
1, 77236, Note_off_c, 0, 68, 58
1, 77238, Note_on_c, 0, 51, 40
1, 77284, Note_on_c, 0, 69, 45
1, 77284, Control_c, 0, 64, 110
1, 77299, Control_c, 0, 64, 87
1, 77314, Control_c, 0, 64, 71
1, 77329, Control_c, 0, 64, 60
1, 77344, Control_c, 0, 64, 51
1, 77358, Control_c, 0, 64, 51
1, 77369, Note_off_c, 0, 69, 59
1, 77388, Control_c, 0, 64, 52
1, 77400, Note_on_c, 0, 70, 40
1, 77403, Control_c, 0, 64, 57
1, 77418, Control_c, 0, 64, 63
1, 77433, Control_c, 0, 64, 69
1, 77445, Note_off_c, 0, 70, 63
1, 77448, Control_c, 0, 64, 78
1, 77462, Control_c, 0, 64, 93
1, 77465, Note_on_c, 0, 71, 48
1, 77477, Control_c, 0, 64, 127
1, 77524, Note_off_c, 0, 71, 59
1, 77558, Note_on_c, 0, 70, 49
1, 77588, Note_off_c, 0, 70, 63
1, 77616, Note_on_c, 0, 71, 42
1, 77658, Note_off_c, 0, 71, 62
1, 77682, Note_on_c, 0, 70, 53
1, 77721, Note_off_c, 0, 70, 65
1, 77738, Note_on_c, 0, 71, 55
1, 77785, Note_off_c, 0, 71, 63
1, 77801, Note_on_c, 0, 70, 56
1, 77844, Note_off_c, 0, 70, 62
1, 77862, Note_on_c, 0, 71, 55
1, 77910, Note_off_c, 0, 71, 60
1, 77931, Note_on_c, 0, 70, 54
1, 77968, Note_off_c, 0, 70, 63
1, 77987, Note_on_c, 0, 71, 51
1, 78033, Note_off_c, 0, 71, 63
1, 78044, Note_on_c, 0, 70, 57
1, 78088, Note_off_c, 0, 70, 61
1, 78107, Note_on_c, 0, 71, 59
1, 78148, Note_off_c, 0, 71, 60
1, 78163, Note_on_c, 0, 70, 56
1, 78211, Note_off_c, 0, 70, 58
1, 78226, Note_on_c, 0, 71, 55
1, 78271, Note_off_c, 0, 71, 62
1, 78278, Note_on_c, 0, 70, 54
1, 78327, Note_off_c, 0, 55, 57
1, 78330, Note_off_c, 0, 51, 52
1, 78333, Note_off_c, 0, 70, 61
1, 78348, Note_on_c, 0, 71, 53
1, 78378, Note_off_c, 0, 61, 60
1, 78391, Note_off_c, 0, 71, 61
1, 78398, Note_on_c, 0, 70, 53
1, 78458, Note_off_c, 0, 70, 62
1, 78470, Note_on_c, 0, 71, 52
1, 78515, Note_off_c, 0, 71, 63
1, 78529, Note_on_c, 0, 70, 57
1, 78575, Note_off_c, 0, 70, 58
1, 78587, Note_on_c, 0, 71, 50
1, 78636, Note_off_c, 0, 71, 63
1, 78639, Note_on_c, 0, 70, 56
1, 78712, Note_off_c, 0, 70, 63
1, 78741, Note_on_c, 0, 76, 62
1, 78768, Control_c, 0, 64, 83
1, 78783, Control_c, 0, 64, 63
1, 78798, Control_c, 0, 64, 52
1, 78813, Control_c, 0, 64, 53
1, 78827, Control_c, 0, 64, 55
1, 78835, Note_off_c, 0, 76, 59
1, 78842, Control_c, 0, 64, 60
1, 78843, Note_on_c, 0, 75, 64
1, 78857, Control_c, 0, 64, 66
1, 78872, Control_c, 0, 64, 78
1, 78887, Control_c, 0, 64, 118
1, 78901, Control_c, 0, 64, 127
1, 78908, Note_off_c, 0, 75, 62
1, 78909, Note_on_c, 0, 76, 57
1, 78974, Note_off_c, 0, 76, 63
1, 78977, Note_on_c, 0, 75, 61
1, 79028, Note_on_c, 0, 76, 56
1, 79028, Note_off_c, 0, 75, 60
1, 79091, Note_on_c, 0, 75, 69
1, 79094, Note_off_c, 0, 76, 63
1, 79147, Note_off_c, 0, 75, 63
1, 79149, Note_on_c, 0, 76, 58
1, 79212, Note_on_c, 0, 75, 64
1, 79219, Note_off_c, 0, 76, 62
1, 79270, Note_on_c, 0, 76, 58
1, 79270, Note_off_c, 0, 75, 62
1, 79322, Note_off_c, 0, 76, 62
1, 79325, Note_on_c, 0, 75, 63
1, 79382, Note_off_c, 0, 75, 62
1, 79385, Note_on_c, 0, 76, 60
1, 79431, Note_off_c, 0, 76, 62
1, 79436, Note_on_c, 0, 75, 64
1, 79497, Note_off_c, 0, 75, 62
1, 79502, Note_on_c, 0, 76, 59
1, 79549, Note_off_c, 0, 76, 62
1, 79552, Note_on_c, 0, 75, 68
1, 79608, Note_off_c, 0, 75, 63
1, 79626, Note_on_c, 0, 76, 50
1, 79672, Note_off_c, 0, 76, 62
1, 79674, Note_on_c, 0, 75, 71
1, 79725, Note_off_c, 0, 75, 60
1, 79727, Note_on_c, 0, 76, 50
1, 79775, Note_off_c, 0, 76, 63
1, 79781, Note_on_c, 0, 75, 68
1, 79833, Note_off_c, 0, 75, 62
1, 79835, Note_on_c, 0, 76, 57
1, 79881, Note_off_c, 0, 76, 62
1, 79887, Note_on_c, 0, 75, 67
1, 79967, Note_off_c, 0, 75, 61
1, 79973, Note_on_c, 0, 74, 60
1, 80040, Note_on_c, 0, 75, 65
1, 80064, Note_off_c, 0, 74, 61
1, 80097, Note_off_c, 0, 75, 63
1, 80144, Note_on_c, 0, 88, 66
1, 80161, Control_c, 0, 64, 118
1, 80175, Control_c, 0, 64, 72
1, 80190, Control_c, 0, 64, 57
1, 80205, Control_c, 0, 64, 48
1, 80235, Control_c, 0, 64, 49
1, 80250, Control_c, 0, 64, 55
1, 80265, Control_c, 0, 64, 65
1, 80270, Note_off_c, 0, 88, 62
1, 80277, Note_on_c, 0, 87, 64
1, 80280, Control_c, 0, 64, 75
1, 80295, Control_c, 0, 64, 104
1, 80309, Control_c, 0, 64, 127
1, 80333, Note_on_c, 0, 88, 51
1, 80338, Note_off_c, 0, 87, 64
1, 80403, Note_off_c, 0, 88, 66
1, 80407, Note_on_c, 0, 87, 73
1, 80458, Note_on_c, 0, 88, 63
1, 80459, Note_off_c, 0, 87, 63
1, 80520, Note_on_c, 0, 87, 72
1, 80521, Note_off_c, 0, 88, 65
1, 80576, Note_on_c, 0, 88, 63
1, 80579, Note_off_c, 0, 87, 64
1, 80631, Note_on_c, 0, 87, 74
1, 80634, Note_off_c, 0, 88, 65
1, 80699, Note_off_c, 0, 87, 64
1, 80700, Note_on_c, 0, 88, 65
1, 80750, Note_on_c, 0, 87, 73
1, 80757, Note_off_c, 0, 88, 66
1, 80811, Note_on_c, 0, 88, 63
1, 80816, Note_off_c, 0, 87, 64
1, 80864, Note_on_c, 0, 87, 71
1, 80867, Note_off_c, 0, 88, 65
1, 80917, Note_on_c, 0, 88, 63
1, 80924, Note_off_c, 0, 87, 65
1, 80982, Note_off_c, 0, 88, 64
1, 80985, Note_on_c, 0, 87, 71
1, 81023, Note_on_c, 0, 88, 56
1, 81031, Note_off_c, 0, 87, 62
1, 81082, Note_off_c, 0, 88, 66
1, 81088, Note_on_c, 0, 87, 72
1, 81138, Note_on_c, 0, 88, 60
1, 81143, Note_off_c, 0, 87, 65
1, 81202, Note_on_c, 0, 87, 67
1, 81213, Note_off_c, 0, 88, 56
1, 81308, Note_on_c, 0, 86, 68
1, 81312, Note_off_c, 0, 87, 64
1, 81416, Note_off_c, 0, 86, 62
1, 81427, Note_on_c, 0, 87, 61
1, 81481, Control_c, 0, 64, 117
1, 81496, Control_c, 0, 64, 106
1, 81511, Control_c, 0, 64, 97
1, 81511, Control_c, 0, 67, 8
1, 81526, Control_c, 0, 64, 90
1, 81526, Control_c, 0, 67, 20
1, 81541, Control_c, 0, 64, 84
1, 81541, Control_c, 0, 67, 35
1, 81555, Control_c, 0, 64, 80
1, 81555, Control_c, 0, 67, 50
1, 81570, Control_c, 0, 64, 77
1, 81570, Control_c, 0, 67, 66
1, 81585, Control_c, 0, 64, 75
1, 81585, Control_c, 0, 67, 83
1, 81600, Control_c, 0, 64, 73
1, 81600, Control_c, 0, 67, 95
1, 81615, Control_c, 0, 64, 71
1, 81615, Control_c, 0, 67, 102
1, 81620, Note_on_c, 0, 88, 52
1, 81629, Control_c, 0, 64, 68
1, 81629, Control_c, 0, 67, 103
1, 81644, Control_c, 0, 64, 67
1, 81644, Control_c, 0, 67, 103
1, 81648, Note_off_c, 0, 87, 55
1, 81659, Control_c, 0, 64, 65
1, 81659, Control_c, 0, 67, 105
1, 81674, Control_c, 0, 64, 65
1, 81674, Control_c, 0, 67, 111
1, 81689, Control_c, 0, 64, 64
1, 81689, Control_c, 0, 67, 118
1, 81703, Control_c, 0, 64, 64
1, 81703, Control_c, 0, 67, 121
1, 81718, Control_c, 0, 64, 63
1, 81733, Control_c, 0, 64, 62
1, 81747, Control_c, 0, 64, 61
1, 81747, Control_c, 0, 67, 123
1, 81762, Control_c, 0, 64, 60
1, 81762, Control_c, 0, 67, 125
1, 81777, Control_c, 0, 64, 60
1, 81777, Control_c, 0, 67, 127
1, 81792, Control_c, 0, 64, 59
1, 81793, Note_on_c, 0, 87, 61
1, 81807, Control_c, 0, 64, 59
1, 81821, Control_c, 0, 64, 57
1, 81836, Control_c, 0, 64, 56
1, 81840, Note_off_c, 0, 88, 56
1, 81851, Control_c, 0, 64, 55
1, 81866, Control_c, 0, 64, 54
1, 81881, Control_c, 0, 64, 54
1, 81910, Control_c, 0, 64, 53
1, 81925, Control_c, 0, 64, 52
1, 81934, Note_on_c, 0, 85, 65
1, 82000, Control_c, 0, 64, 52
1, 82015, Note_off_c, 0, 87, 53
1, 82015, Control_c, 0, 64, 51
1, 82059, Note_off_c, 0, 85, 65
1, 82065, Note_on_c, 0, 83, 64
1, 82194, Note_on_c, 0, 82, 58
1, 82229, Note_off_c, 0, 83, 61
1, 82328, Note_on_c, 0, 80, 62
1, 82348, Control_c, 0, 64, 52
1, 82418, Note_off_c, 0, 82, 52
1, 82463, Note_on_c, 0, 79, 60
1, 82467, Control_c, 0, 64, 52
1, 82476, Note_off_c, 0, 80, 62
1, 82556, Control_c, 0, 64, 53
1, 82598, Note_on_c, 0, 78, 58
1, 82604, Note_off_c, 0, 79, 59
1, 82689, Control_c, 0, 64, 53
1, 82725, Note_off_c, 0, 78, 62
1, 82727, Note_on_c, 0, 76, 58
1, 82793, Control_c, 0, 64, 54
1, 82855, Note_on_c, 0, 75, 59
1, 82862, Note_off_c, 0, 76, 60
1, 82993, Note_on_c, 0, 73, 59
1, 83007, Control_c, 0, 64, 54
1, 83079, Note_off_c, 0, 75, 46
1, 83120, Note_off_c, 0, 73, 63
1, 83123, Note_on_c, 0, 71, 57
1, 83254, Note_on_c, 0, 70, 53
1, 83263, Note_off_c, 0, 71, 58
1, 83318, Control_c, 0, 64, 55
1, 83397, Note_on_c, 0, 68, 53
1, 83487, Note_off_c, 0, 70, 45
1, 83514, Note_off_c, 0, 68, 60
1, 83515, Note_on_c, 0, 67, 55
1, 83652, Note_off_c, 0, 67, 61
1, 83654, Note_on_c, 0, 66, 55
1, 83789, Note_off_c, 0, 66, 60
1, 83793, Note_on_c, 0, 64, 58
1, 83917, Note_off_c, 0, 64, 60
1, 83923, Note_on_c, 0, 63, 55
1, 84045, Note_on_c, 0, 61, 55
1, 84131, Note_off_c, 0, 63, 37
1, 84170, Note_off_c, 0, 61, 61
1, 84181, Note_on_c, 0, 59, 56
1, 84304, Note_off_c, 0, 59, 60
1, 84307, Note_on_c, 0, 58, 55
1, 84441, Note_on_c, 0, 56, 53
1, 84531, Note_off_c, 0, 58, 36
1, 84566, Note_off_c, 0, 56, 60
1, 84572, Note_on_c, 0, 55, 55
1, 84684, Note_off_c, 0, 55, 61
1, 84691, Note_on_c, 0, 54, 53
1, 84818, Note_off_c, 0, 54, 63
1, 84823, Note_on_c, 0, 52, 54
1, 84945, Note_off_c, 0, 52, 61
1, 84948, Note_on_c, 0, 51, 54
1, 85081, Note_on_c, 0, 49, 47
1, 85139, Note_off_c, 0, 51, 44
1, 85210, Note_off_c, 0, 49, 62
1, 85231, Note_on_c, 0, 47, 39
1, 85355, Note_off_c, 0, 47, 59
1, 85358, Note_on_c, 0, 46, 49
1, 85488, Note_on_c, 0, 44, 47
1, 85506, Control_c, 0, 64, 55
1, 85526, Note_off_c, 0, 46, 35
1, 85612, Note_off_c, 0, 44, 61
1, 85622, Note_on_c, 0, 43, 51
1, 85738, Note_off_c, 0, 43, 61
1, 85752, Note_on_c, 0, 42, 51
1, 85883, Note_off_c, 0, 42, 53
1, 85886, Note_on_c, 0, 40, 53
1, 86012, Note_on_c, 0, 39, 48
1, 86142, Note_off_c, 0, 40, 31
1, 86143, Note_on_c, 0, 37, 52
1, 86150, Note_off_c, 0, 39, 53
1, 86240, Note_off_c, 0, 37, 62
1, 86271, Note_on_c, 0, 35, 45
1, 86381, Note_off_c, 0, 35, 51
1, 86394, Note_on_c, 0, 34, 46
1, 86524, Note_off_c, 0, 34, 60
1, 86543, Note_on_c, 0, 35, 44
1, 86658, Note_off_c, 0, 35, 59
1, 86663, Note_on_c, 0, 37, 52
1, 86774, Note_off_c, 0, 37, 58
1, 86797, Note_on_c, 0, 39, 49
1, 86921, Note_off_c, 0, 39, 59
1, 86935, Note_on_c, 0, 40, 52
1, 87049, Note_off_c, 0, 40, 59
1, 87060, Note_on_c, 0, 39, 48
1, 87186, Note_on_c, 0, 37, 48
1, 87196, Note_off_c, 0, 39, 53
1, 87314, Note_off_c, 0, 37, 54
1, 87327, Note_on_c, 0, 35, 48
1, 87473, Note_on_c, 0, 34, 51
1, 87485, Note_off_c, 0, 35, 55
1, 87514, Control_c, 0, 64, 56
1, 87589, Control_c, 0, 64, 56
1, 87603, Note_on_c, 0, 39, 55
1, 87634, Control_c, 0, 67, 126
1, 87649, Control_c, 0, 67, 121
1, 87663, Control_c, 0, 67, 114
1, 87678, Control_c, 0, 67, 106
1, 87685, Note_off_c, 0, 34, 36
1, 87693, Control_c, 0, 67, 72
1, 87708, Control_c, 0, 67, 17
1, 87711, Note_off_c, 0, 39, 61
1, 87714, Note_on_c, 0, 37, 59
1, 87723, Control_c, 0, 67, 0
1, 87752, Control_c, 0, 64, 56
1, 87767, Control_c, 0, 64, 55
1, 87839, Note_on_c, 0, 39, 54
1, 87856, Control_c, 0, 64, 55
1, 87905, Note_off_c, 0, 37, 58
1, 87915, Control_c, 0, 64, 55
1, 87959, Control_c, 0, 64, 56
1, 87982, Note_on_c, 0, 56, 98
1, 87983, Note_on_c, 0, 32, 76
1, 87990, Note_off_c, 0, 39, 62
1, 88066, Note_on_c, 0, 51, 76
1, 88071, Note_on_c, 0, 39, 67
1, 88131, Note_off_c, 0, 51, 65
1, 88137, Note_on_c, 0, 47, 69
1, 88138, Note_off_c, 0, 32, 59
1, 88138, Note_off_c, 0, 56, 59
1, 88160, Note_off_c, 0, 39, 62
1, 88161, Note_on_c, 0, 44, 64
1, 88198, Note_on_c, 0, 51, 65
1, 88204, Note_off_c, 0, 47, 63
1, 88242, Note_on_c, 0, 39, 54
1, 88248, Note_off_c, 0, 44, 63
1, 88269, Note_on_c, 0, 56, 69
1, 88269, Note_off_c, 0, 51, 65
1, 88295, Note_on_c, 0, 32, 61
1, 88321, Note_off_c, 0, 39, 62
1, 88322, Note_off_c, 0, 56, 64
1, 88331, Note_on_c, 0, 51, 71
1, 88338, Control_c, 0, 64, 55
1, 88367, Control_c, 0, 64, 55
1, 88376, Note_off_c, 0, 32, 61
1, 88387, Note_on_c, 0, 39, 57
1, 88397, Note_off_c, 0, 51, 62
1, 88397, Control_c, 0, 64, 54
1, 88409, Note_on_c, 0, 59, 87
1, 88427, Control_c, 0, 64, 54
1, 88435, Note_off_c, 0, 39, 64
1, 88441, Note_on_c, 0, 32, 63
1, 88456, Control_c, 0, 64, 53
1, 88471, Control_c, 0, 64, 53
1, 88480, Note_off_c, 0, 59, 63
1, 88482, Note_on_c, 0, 51, 73
1, 88500, Note_off_c, 0, 32, 61
1, 88501, Control_c, 0, 64, 52
1, 88505, Note_on_c, 0, 39, 57
1, 88549, Note_on_c, 0, 58, 83
1, 88549, Note_off_c, 0, 51, 62
1, 88557, Note_off_c, 0, 39, 63
1, 88576, Note_on_c, 0, 32, 62
1, 88603, Note_off_c, 0, 58, 64
1, 88619, Note_on_c, 0, 51, 76
1, 88626, Note_off_c, 0, 32, 63
1, 88635, Note_on_c, 0, 39, 64
1, 88678, Note_off_c, 0, 51, 63
1, 88685, Note_off_c, 0, 39, 62
1, 88691, Note_on_c, 0, 56, 87
1, 88712, Note_on_c, 0, 32, 69
1, 88754, Note_off_c, 0, 56, 64
1, 88762, Note_on_c, 0, 51, 77
1, 88764, Note_on_c, 0, 39, 57
1, 88767, Note_off_c, 0, 32, 61
1, 88801, Note_off_c, 0, 51, 63
1, 88814, Note_off_c, 0, 39, 63
1, 88820, Note_on_c, 0, 32, 75
1, 88821, Note_on_c, 0, 56, 97
1, 88895, Note_on_c, 0, 51, 83
1, 88909, Note_on_c, 0, 39, 73
1, 88961, Note_off_c, 0, 32, 61
1, 88964, Note_off_c, 0, 51, 64
1, 88969, Note_on_c, 0, 47, 72
1, 88990, Note_off_c, 0, 39, 63
1, 88992, Note_on_c, 0, 44, 68
1, 88997, Note_off_c, 0, 56, 60
1, 89026, Note_on_c, 0, 51, 66
1, 89032, Note_off_c, 0, 47, 61
1, 89065, Note_on_c, 0, 39, 57
1, 89067, Note_off_c, 0, 44, 63
1, 89103, Note_on_c, 0, 56, 71
1, 89106, Note_off_c, 0, 51, 65
1, 89112, Note_on_c, 0, 32, 64
1, 89145, Note_off_c, 0, 39, 63
1, 89162, Note_off_c, 0, 56, 63
1, 89170, Note_on_c, 0, 51, 77
1, 89186, Note_off_c, 0, 32, 61
1, 89202, Note_on_c, 0, 39, 59
1, 89237, Note_off_c, 0, 51, 63
1, 89244, Note_on_c, 0, 59, 84
1, 89244, Note_off_c, 0, 39, 64
1, 89261, Note_on_c, 0, 32, 68
1, 89306, Note_on_c, 0, 39, 71
1, 89309, Note_on_c, 0, 51, 78
1, 89309, Note_off_c, 0, 59, 62
1, 89312, Note_off_c, 0, 32, 62
1, 89366, Note_off_c, 0, 39, 63
1, 89374, Note_on_c, 0, 58, 84
1, 89374, Note_off_c, 0, 51, 62
1, 89383, Note_on_c, 0, 32, 69
1, 89428, Note_off_c, 0, 58, 64
1, 89431, Note_on_c, 0, 51, 62
1, 89437, Note_on_c, 0, 39, 65
1, 89437, Note_off_c, 0, 32, 62
1, 89494, Note_off_c, 0, 39, 63
1, 89500, Note_on_c, 0, 56, 85
1, 89503, Note_off_c, 0, 51, 63
1, 89512, Note_on_c, 0, 32, 68
1, 89546, Note_off_c, 0, 56, 67
1, 89547, Control_c, 0, 64, 53
1, 89561, Control_c, 0, 64, 53
1, 89562, Note_on_c, 0, 51, 81
1, 89566, Note_on_c, 0, 39, 67
1, 89579, Note_off_c, 0, 32, 61
1, 89619, Note_off_c, 0, 51, 65
1, 89628, Note_off_c, 0, 39, 63
1, 89634, Note_on_c, 0, 32, 80
1, 89640, Note_on_c, 0, 64, 94
1, 89702, Control_c, 0, 64, 53
1, 89726, Note_on_c, 0, 59, 70
1, 89728, Note_on_c, 0, 40, 63
1, 89729, Note_on_c, 0, 41, 67
1, 89773, Note_off_c, 0, 64, 57
1, 89777, Note_on_c, 0, 56, 72
1, 89783, Note_off_c, 0, 32, 57
1, 89786, Note_on_c, 0, 44, 79
1, 89789, Note_off_c, 0, 41, 60
1, 89798, Note_off_c, 0, 59, 59
1, 89799, Note_off_c, 0, 40, 62
1, 89837, Note_on_c, 0, 59, 62
1, 89860, Note_off_c, 0, 56, 64
1, 89863, Note_on_c, 0, 40, 63
1, 89869, Note_off_c, 0, 44, 64
1, 89908, Note_on_c, 0, 64, 73
1, 89917, Note_off_c, 0, 59, 64
1, 89924, Note_on_c, 0, 32, 67
1, 89941, Note_off_c, 0, 40, 62
1, 89965, Note_off_c, 0, 64, 65
1, 89971, Note_on_c, 0, 59, 67
1, 89989, Note_on_c, 0, 40, 61
1, 89996, Note_off_c, 0, 32, 61
1, 90033, Note_on_c, 0, 68, 91
1, 90039, Note_off_c, 0, 59, 64
1, 90046, Note_off_c, 0, 40, 62
1, 90055, Note_on_c, 0, 32, 72
1, 90091, Note_off_c, 0, 68, 62
1, 90099, Note_on_c, 0, 59, 78
1, 90103, Note_on_c, 0, 40, 61
1, 90113, Note_off_c, 0, 32, 60
1, 90157, Note_off_c, 0, 59, 63
1, 90164, Note_off_c, 0, 40, 64
1, 90168, Note_on_c, 0, 66, 83
1, 90182, Note_on_c, 0, 32, 68
1, 90220, Note_off_c, 0, 66, 61
1, 90229, Note_off_c, 0, 32, 56
1, 90230, Note_on_c, 0, 59, 78
1, 90235, Note_on_c, 0, 40, 67
1, 90276, Note_off_c, 0, 40, 64
1, 90299, Note_off_c, 0, 59, 63
1, 90302, Note_on_c, 0, 32, 68
1, 90305, Note_on_c, 0, 64, 84
1, 90349, Note_off_c, 0, 32, 62
1, 90353, Note_off_c, 0, 64, 63
1, 90361, Note_on_c, 0, 59, 74
1, 90363, Note_on_c, 0, 40, 68
1, 90402, Note_off_c, 0, 40, 66
1, 90421, Note_on_c, 0, 32, 90
1, 90424, Note_on_c, 0, 64, 93
1, 90428, Note_off_c, 0, 59, 58
1, 90495, Note_on_c, 0, 59, 70
1, 90496, Note_on_c, 0, 40, 81
1, 90524, Note_off_c, 0, 64, 62
1, 90551, Note_off_c, 0, 32, 57
1, 90560, Note_on_c, 0, 56, 77
1, 90562, Note_off_c, 0, 59, 65
1, 90564, Note_on_c, 0, 44, 78
1, 90570, Note_off_c, 0, 40, 63
1, 90626, Note_on_c, 0, 59, 71
1, 90633, Note_off_c, 0, 56, 64
1, 90638, Note_on_c, 0, 40, 65
1, 90645, Note_off_c, 0, 44, 63
1, 90695, Note_on_c, 0, 64, 78
1, 90696, Note_off_c, 0, 59, 64
1, 90700, Note_on_c, 0, 32, 70
1, 90716, Note_off_c, 0, 40, 62
1, 90751, Note_off_c, 0, 64, 63
1, 90766, Note_on_c, 0, 59, 80
1, 90774, Note_on_c, 0, 40, 64
1, 90777, Note_off_c, 0, 32, 62
1, 90823, Note_on_c, 0, 68, 93
1, 90825, Note_off_c, 0, 59, 63
1, 90829, Note_off_c, 0, 40, 64
1, 90842, Note_on_c, 0, 32, 73
1, 90881, Note_off_c, 0, 68, 63
1, 90886, Note_on_c, 0, 40, 72
1, 90889, Note_on_c, 0, 59, 81
1, 90889, Note_off_c, 0, 32, 63
1, 90942, Note_off_c, 0, 40, 64
1, 90953, Note_off_c, 0, 59, 60
1, 90958, Note_on_c, 0, 66, 88
1, 90960, Note_on_c, 0, 32, 71
1, 90985, Control_c, 0, 64, 53
1, 90990, Note_off_c, 0, 32, 63
1, 91007, Note_off_c, 0, 66, 64
1, 91011, Note_on_c, 0, 40, 72
1, 91019, Note_on_c, 0, 59, 58
1, 91050, Note_off_c, 0, 40, 66
1, 91062, Note_on_c, 0, 32, 73
1, 91067, Note_on_c, 0, 64, 84
1, 91071, Note_off_c, 0, 59, 63
1, 91109, Note_on_c, 0, 40, 76
1, 91118, Control_c, 0, 64, 54
1, 91126, Note_off_c, 0, 64, 63
1, 91140, Note_on_c, 0, 59, 77
1, 91159, Note_off_c, 0, 32, 61
1, 91162, Note_off_c, 0, 40, 62
1, 91169, Note_off_c, 0, 59, 69
1, 91229, Control_c, 0, 64, 54
1, 91237, Note_on_c, 0, 45, 103
1, 91238, Note_on_c, 0, 73, 98
1, 91240, Note_on_c, 0, 33, 92
1, 91274, Control_c, 0, 64, 54
1, 91288, Control_c, 0, 64, 53
1, 91294, Note_on_c, 0, 76, 74
1, 91297, Note_on_c, 0, 77, 78
1, 91300, Note_off_c, 0, 73, 63
1, 91303, Control_c, 0, 64, 52
1, 91318, Control_c, 0, 64, 51
1, 91325, Note_off_c, 0, 77, 61
1, 91347, Poly_aftertouch_c, 0, 75, 0
1, 91372, Note_on_c, 0, 73, 79
1, 91381, Note_off_c, 0, 76, 63
1, 91447, Note_on_c, 0, 76, 75
1, 91450, Note_off_c, 0, 73, 64
1, 91511, Note_on_c, 0, 73, 77
1, 91517, Note_off_c, 0, 76, 64
1, 91576, Note_on_c, 0, 76, 79
1, 91580, Note_off_c, 0, 73, 64
1, 91634, Note_on_c, 0, 73, 81
1, 91642, Note_off_c, 0, 76, 63
1, 91705, Note_on_c, 0, 76, 79
1, 91709, Note_off_c, 0, 73, 65
1, 91763, Note_on_c, 0, 73, 82
1, 91765, Note_off_c, 0, 76, 64
1, 91777, Control_c, 0, 64, 52
1, 91831, Note_on_c, 0, 76, 78
1, 91833, Note_off_c, 0, 73, 64
1, 91890, Note_on_c, 0, 73, 78
1, 91895, Note_off_c, 0, 76, 64
1, 91965, Note_on_c, 0, 76, 82
1, 91968, Note_off_c, 0, 73, 65
1, 92027, Note_on_c, 0, 73, 85
1, 92031, Note_off_c, 0, 76, 65
1, 92091, Note_on_c, 0, 76, 84
1, 92095, Note_off_c, 0, 73, 65
1, 92151, Note_on_c, 0, 73, 82
1, 92158, Note_off_c, 0, 76, 64
1, 92213, Note_on_c, 0, 76, 85
1, 92217, Note_off_c, 0, 73, 64
1, 92260, Note_off_c, 0, 33, 57
1, 92278, Note_on_c, 0, 73, 82
1, 92284, Note_off_c, 0, 76, 65
1, 92301, Note_off_c, 0, 45, 61
1, 92344, Note_off_c, 0, 73, 65
1, 92346, Note_on_c, 0, 76, 87
1, 92399, Note_on_c, 0, 46, 101
1, 92400, Note_on_c, 0, 34, 94
1, 92402, Note_on_c, 0, 73, 84
1, 92408, Note_off_c, 0, 76, 63
1, 92408, Control_c, 0, 64, 52
1, 92439, Note_off_c, 0, 46, 65
1, 92454, Note_off_c, 0, 34, 60
1, 92464, Note_on_c, 0, 41, 3
1, 92466, Note_on_c, 0, 76, 85
1, 92471, Note_off_c, 0, 73, 66
1, 92501, Note_off_c, 0, 41, 33
1, 92508, Poly_aftertouch_c, 0, 43, 0
1, 92525, Note_on_c, 0, 70, 83
1, 92529, Note_on_c, 0, 37, 88
1, 92534, Note_off_c, 0, 76, 63
1, 92586, Note_off_c, 0, 37, 63
1, 92606, Note_on_c, 0, 73, 76
1, 92613, Note_off_c, 0, 70, 65
1, 92645, Note_off_c, 0, 73, 65
1, 92653, Note_on_c, 0, 67, 63
1, 92665, Note_on_c, 0, 40, 90
1, 92667, Note_on_c, 0, 69, 56
1, 92695, Note_off_c, 0, 69, 61
1, 92704, Note_off_c, 0, 67, 57
1, 92717, Note_off_c, 0, 40, 65
1, 92719, Note_on_c, 0, 70, 89
1, 92776, Note_off_c, 0, 70, 62
1, 92785, Note_on_c, 0, 64, 83
1, 92800, Note_on_c, 0, 43, 93
1, 92826, Note_off_c, 0, 64, 61
1, 92853, Note_on_c, 0, 67, 84
1, 92856, Note_off_c, 0, 43, 65
1, 92913, Note_off_c, 0, 67, 64
1, 92913, Note_on_c, 0, 61, 83
1, 92934, Note_on_c, 0, 45, 84
1, 92979, Note_off_c, 0, 45, 62
1, 92990, Note_on_c, 0, 64, 73
1, 92996, Note_on_c, 0, 62, 68
1, 93020, Note_off_c, 0, 61, 60
1, 93041, Note_off_c, 0, 62, 54
1, 93052, Note_on_c, 0, 58, 82
1, 93052, Note_off_c, 0, 64, 63
1, 93056, Note_on_c, 0, 49, 88
1, 93111, Note_off_c, 0, 49, 65
1, 93118, Note_on_c, 0, 61, 82
1, 93134, Note_off_c, 0, 58, 62
1, 93179, Note_on_c, 0, 56, 84
1, 93185, Note_off_c, 0, 61, 57
1, 93191, Note_on_c, 0, 52, 93
1, 93235, Note_off_c, 0, 52, 67
1, 93250, Note_on_c, 0, 58, 83
1, 93251, Note_off_c, 0, 56, 60
1, 93321, Note_on_c, 0, 61, 83
1, 93327, Note_on_c, 0, 52, 85
1, 93329, Note_off_c, 0, 58, 64
1, 93365, Control_c, 0, 64, 52
1, 93369, Note_off_c, 0, 52, 68
1, 93376, Note_off_c, 0, 61, 65
1, 93390, Note_on_c, 0, 58, 83
1, 93431, Control_c, 0, 64, 51
1, 93463, Note_on_c, 0, 52, 97
1, 93464, Note_on_c, 0, 56, 84
1, 93464, Note_off_c, 0, 58, 65
1, 93507, Note_off_c, 0, 52, 68
1, 93530, Note_on_c, 0, 58, 81
1, 93548, Note_off_c, 0, 56, 62
1, 93585, Note_on_c, 0, 52, 99
1, 93587, Note_off_c, 0, 58, 65
1, 93666, Note_on_c, 0, 56, 76
1, 93726, Note_on_c, 0, 61, 74
1, 93727, Note_off_c, 0, 56, 63
1, 93797, Note_on_c, 0, 58, 70
1, 93799, Note_off_c, 0, 61, 57
1, 93843, Note_off_c, 0, 58, 62
1, 93868, Note_on_c, 0, 56, 57
1, 93902, Note_on_c, 0, 55, 41
1, 93923, Note_on_c, 0, 61, 72
1, 93929, Note_off_c, 0, 56, 37
1, 93935, Note_off_c, 0, 55, 34
1, 93963, Note_on_c, 0, 51, 72
1, 93980, Note_off_c, 0, 61, 61
1, 94049, Note_on_c, 0, 55, 63
1, 94068, Note_off_c, 0, 52, 55
1, 94105, Note_on_c, 0, 61, 68
1, 94114, Note_off_c, 0, 55, 63
1, 94186, Note_off_c, 0, 51, 61
1, 94186, Note_on_c, 0, 58, 73
1, 94189, Note_off_c, 0, 61, 58
1, 94245, Note_off_c, 0, 58, 64
1, 94247, Note_on_c, 0, 55, 69
1, 94254, Control_c, 0, 64, 52
1, 94298, Note_on_c, 0, 61, 60
1, 94309, Note_off_c, 0, 55, 63
1, 94313, Control_c, 0, 64, 52
1, 94325, Note_off_c, 0, 61, 65
1, 94389, Note_on_c, 0, 44, 79
1, 94392, Note_on_c, 0, 68, 86
1, 94464, Note_on_c, 0, 63, 74
1, 94469, Note_on_c, 0, 51, 73
1, 94491, Control_c, 0, 64, 52
1, 94499, Note_off_c, 0, 44, 61
1, 94520, Note_off_c, 0, 63, 63
1, 94527, Note_on_c, 0, 59, 69
1, 94536, Note_off_c, 0, 68, 59
1, 94537, Note_off_c, 0, 51, 66
1, 94551, Note_on_c, 0, 56, 64
1, 94592, Note_on_c, 0, 63, 64
1, 94594, Note_off_c, 0, 59, 57
1, 94615, Note_off_c, 0, 56, 64
1, 94615, Note_on_c, 0, 51, 67
1, 94654, Note_on_c, 0, 68, 71
1, 94658, Note_off_c, 0, 63, 65
1, 94680, Note_on_c, 0, 44, 62
1, 94692, Note_off_c, 0, 51, 63
1, 94712, Note_off_c, 0, 68, 63
1, 94722, Note_on_c, 0, 63, 70
1, 94737, Note_off_c, 0, 44, 63
1, 94760, Note_on_c, 0, 51, 64
1, 94794, Note_off_c, 0, 63, 61
1, 94794, Note_on_c, 0, 71, 88
1, 94800, Note_off_c, 0, 51, 66
1, 94813, Note_on_c, 0, 44, 69
1, 94854, Note_off_c, 0, 44, 63
1, 94857, Note_off_c, 0, 71, 60
1, 94868, Note_on_c, 0, 51, 68
1, 94871, Note_on_c, 0, 63, 67
1, 94908, Note_off_c, 0, 51, 65
1, 94928, Control_c, 0, 64, 51
1, 94941, Note_off_c, 0, 63, 61
1, 94942, Note_on_c, 0, 70, 81
1, 94951, Note_on_c, 0, 44, 65
1, 94984, Note_off_c, 0, 44, 63
1, 94990, Note_off_c, 0, 70, 63
1, 95002, Note_on_c, 0, 51, 66
1, 95011, Note_on_c, 0, 63, 68
1, 95047, Note_off_c, 0, 51, 63
1, 95059, Note_on_c, 0, 44, 69
1, 95065, Note_off_c, 0, 63, 62
1, 95071, Note_on_c, 0, 68, 81
1, 95101, Note_off_c, 0, 44, 62
1, 95119, Note_on_c, 0, 51, 61
1, 95128, Note_off_c, 0, 68, 62
1, 95143, Note_on_c, 0, 63, 69
1, 95163, Note_off_c, 0, 51, 64
1, 95179, Note_off_c, 0, 63, 62
1, 95191, Note_on_c, 0, 44, 75
1, 95203, Note_on_c, 0, 68, 94
1, 95265, Note_on_c, 0, 51, 77
1, 95278, Note_on_c, 0, 63, 74
1, 95313, Note_off_c, 0, 44, 61
1, 95344, Note_off_c, 0, 63, 62
1, 95350, Note_on_c, 0, 59, 72
1, 95350, Note_off_c, 0, 51, 64
1, 95352, Note_on_c, 0, 56, 66
1, 95357, Note_off_c, 0, 68, 57
1, 95412, Note_on_c, 0, 63, 66
1, 95416, Note_on_c, 0, 51, 65
1, 95418, Note_off_c, 0, 56, 65
1, 95422, Note_off_c, 0, 59, 62
1, 95477, Note_on_c, 0, 44, 66
1, 95477, Note_on_c, 0, 68, 76
1, 95485, Note_off_c, 0, 63, 64
1, 95492, Note_off_c, 0, 51, 64
1, 95536, Note_off_c, 0, 44, 61
1, 95536, Note_off_c, 0, 68, 64
1, 95540, Note_on_c, 0, 63, 66
1, 95554, Note_on_c, 0, 51, 66
1, 95593, Note_off_c, 0, 51, 66
1, 95605, Note_off_c, 0, 63, 62
1, 95616, Note_on_c, 0, 71, 86
1, 95619, Note_on_c, 0, 44, 73
1, 95660, Note_off_c, 0, 44, 63
1, 95681, Note_on_c, 0, 51, 82
1, 95691, Note_off_c, 0, 71, 64
1, 95694, Note_on_c, 0, 63, 74
1, 95730, Note_off_c, 0, 51, 62
1, 95747, Note_on_c, 0, 44, 72
1, 95757, Note_on_c, 0, 70, 85
1, 95764, Note_off_c, 0, 63, 61
1, 95781, Note_off_c, 0, 44, 63
1, 95791, Note_on_c, 0, 51, 69
1, 95809, Note_off_c, 0, 70, 65
1, 95822, Note_on_c, 0, 63, 65
1, 95846, Note_off_c, 0, 51, 64
1, 95866, Note_on_c, 0, 44, 72
1, 95879, Note_on_c, 0, 68, 90
1, 95885, Note_off_c, 0, 63, 62
1, 95919, Note_on_c, 0, 51, 78
1, 95921, Note_off_c, 0, 68, 64
1, 95931, Note_off_c, 0, 44, 63
1, 95946, Note_on_c, 0, 63, 75
1, 95980, Note_off_c, 0, 51, 63
1, 95995, Note_off_c, 0, 63, 64
1, 96007, Note_on_c, 0, 44, 85
1, 96017, Note_on_c, 0, 76, 97
1, 96075, Note_on_c, 0, 52, 76
1, 96094, Note_on_c, 0, 71, 74
1, 96126, Note_off_c, 0, 44, 61
1, 96146, Note_on_c, 0, 68, 70
1, 96149, Note_on_c, 0, 56, 81
1, 96152, Note_off_c, 0, 76, 61
1, 96154, Note_off_c, 0, 71, 65
1, 96156, Note_off_c, 0, 52, 63
1, 96177, Poly_aftertouch_c, 0, 48, 0
1, 96216, Note_on_c, 0, 71, 77
1, 96225, Note_on_c, 0, 52, 69
1, 96227, Note_off_c, 0, 56, 65
1, 96229, Note_off_c, 0, 68, 63
1, 96273, Note_on_c, 0, 44, 72
1, 96278, Note_on_c, 0, 76, 79
1, 96283, Note_off_c, 0, 71, 64
1, 96295, Note_off_c, 0, 52, 65
1, 96331, Note_off_c, 0, 76, 65
1, 96347, Note_on_c, 0, 52, 61
1, 96347, Note_off_c, 0, 44, 63
1, 96349, Note_on_c, 0, 71, 76
1, 96391, Control_c, 0, 64, 52
1, 96401, Note_off_c, 0, 71, 62
1, 96404, Note_off_c, 0, 52, 65
1, 96406, Note_on_c, 0, 80, 89
1, 96412, Note_on_c, 0, 44, 78
1, 96466, Note_on_c, 0, 52, 57
1, 96475, Note_off_c, 0, 44, 63
1, 96478, Note_on_c, 0, 71, 80
1, 96481, Note_off_c, 0, 80, 63
1, 96530, Note_off_c, 0, 52, 64
1, 96539, Note_off_c, 0, 71, 62
1, 96541, Note_on_c, 0, 44, 76
1, 96547, Note_on_c, 0, 78, 92
1, 96600, Note_off_c, 0, 78, 64
1, 96602, Note_off_c, 0, 44, 63
1, 96603, Note_on_c, 0, 52, 75
1, 96618, Note_on_c, 0, 71, 78
1, 96657, Note_off_c, 0, 52, 66
1, 96675, Note_on_c, 0, 44, 79
1, 96676, Note_off_c, 0, 71, 63
1, 96678, Note_on_c, 0, 76, 89
1, 96732, Note_off_c, 0, 76, 64
1, 96741, Note_off_c, 0, 44, 63
1, 96745, Note_on_c, 0, 71, 76
1, 96748, Note_on_c, 0, 52, 78
1, 96788, Note_off_c, 0, 52, 61
1, 96803, Note_on_c, 0, 44, 86
1, 96804, Note_on_c, 0, 76, 95
1, 96809, Note_off_c, 0, 71, 38
1, 96865, Note_on_c, 0, 71, 72
1, 96878, Note_on_c, 0, 52, 82
1, 96904, Note_off_c, 0, 76, 61
1, 96925, Note_off_c, 0, 44, 62
1, 96932, Note_off_c, 0, 71, 66
1, 96935, Note_on_c, 0, 68, 79
1, 96940, Note_off_c, 0, 52, 66
1, 96943, Note_on_c, 0, 56, 82
1, 96995, Note_on_c, 0, 71, 73
1, 97003, Note_off_c, 0, 68, 64
1, 97015, Note_on_c, 0, 52, 70
1, 97017, Note_off_c, 0, 56, 65
1, 97062, Note_on_c, 0, 76, 78
1, 97066, Note_off_c, 0, 71, 66
1, 97071, Note_on_c, 0, 44, 76
1, 97080, Note_off_c, 0, 52, 64
1, 97112, Note_off_c, 0, 76, 62
1, 97131, Note_on_c, 0, 52, 71
1, 97134, Note_on_c, 0, 71, 86
1, 97142, Note_off_c, 0, 44, 62
1, 97190, Note_off_c, 0, 71, 62
1, 97192, Control_c, 0, 64, 53
1, 97193, Note_off_c, 0, 52, 66
1, 97198, Note_on_c, 0, 80, 96
1, 97206, Control_c, 0, 64, 55
1, 97209, Note_on_c, 0, 44, 85
1, 97221, Control_c, 0, 64, 59
1, 97236, Control_c, 0, 64, 61
1, 97242, Note_on_c, 0, 81, 30
1, 97250, Control_c, 0, 64, 63
1, 97256, Note_on_c, 0, 52, 79
1, 97259, Note_off_c, 0, 80, 63
1, 97263, Note_on_c, 0, 71, 84
1, 97265, Note_off_c, 0, 44, 61
1, 97265, Control_c, 0, 64, 65
1, 97271, Note_off_c, 0, 81, 36
1, 97280, Control_c, 0, 64, 68
1, 97295, Control_c, 0, 64, 73
1, 97308, Note_off_c, 0, 52, 67
1, 97310, Control_c, 0, 64, 83
1, 97324, Note_off_c, 0, 71, 63
1, 97325, Control_c, 0, 64, 92
1, 97327, Note_on_c, 0, 44, 78
1, 97332, Note_on_c, 0, 78, 93
1, 97339, Control_c, 0, 64, 100
1, 97354, Control_c, 0, 64, 110
1, 97361, Note_off_c, 0, 44, 62
1, 97369, Control_c, 0, 64, 127
1, 97382, Note_on_c, 0, 52, 81
1, 97387, Note_off_c, 0, 78, 63
1, 97390, Note_on_c, 0, 71, 76
1, 97428, Note_off_c, 0, 52, 63
1, 97440, Note_on_c, 0, 44, 78
1, 97449, Note_on_c, 0, 76, 90
1, 97452, Note_off_c, 0, 71, 65
1, 97465, Note_on_c, 0, 52, 75
1, 97508, Note_off_c, 0, 76, 64
1, 97518, Note_off_c, 0, 44, 62
1, 97523, Note_on_c, 0, 71, 79
1, 97524, Note_off_c, 0, 52, 64
1, 97551, Note_off_c, 0, 71, 65
1, 97615, Note_on_c, 0, 57, 106
1, 97618, Note_on_c, 0, 45, 97
1, 97618, Note_on_c, 0, 85, 101
1, 97621, Control_c, 0, 64, 95
1, 97636, Control_c, 0, 64, 67
1, 97650, Control_c, 0, 64, 40
1, 97665, Control_c, 0, 64, 0
1, 97670, Note_on_c, 0, 88, 83
1, 97671, Note_on_c, 0, 84, 19
1, 97695, Note_off_c, 0, 84, 36
1, 97695, Note_off_c, 0, 85, 65
1, 97724, Control_c, 0, 64, 26
1, 97739, Control_c, 0, 64, 56
1, 97754, Control_c, 0, 64, 65
1, 97759, Note_on_c, 0, 85, 76
1, 97769, Control_c, 0, 64, 74
1, 97774, Note_off_c, 0, 88, 62
1, 97784, Control_c, 0, 64, 90
1, 97798, Control_c, 0, 64, 127
1, 97829, Note_on_c, 0, 88, 76
1, 97837, Note_off_c, 0, 85, 65
1, 97897, Note_on_c, 0, 85, 80
1, 97904, Note_off_c, 0, 88, 65
1, 97972, Note_on_c, 0, 88, 78
1, 97982, Note_off_c, 0, 85, 65
1, 98032, Note_on_c, 0, 85, 81
1, 98043, Note_off_c, 0, 88, 64
1, 98097, Note_on_c, 0, 88, 79
1, 98109, Note_off_c, 0, 85, 64
1, 98161, Note_on_c, 0, 85, 83
1, 98171, Note_off_c, 0, 88, 64
1, 98225, Note_on_c, 0, 88, 81
1, 98237, Note_off_c, 0, 85, 65
1, 98287, Note_on_c, 0, 85, 85
1, 98296, Note_off_c, 0, 88, 64
1, 98350, Note_on_c, 0, 88, 80
1, 98362, Note_off_c, 0, 85, 66
1, 98413, Note_on_c, 0, 85, 88
1, 98422, Note_off_c, 0, 88, 66
1, 98463, Note_on_c, 0, 77, 31
1, 98475, Note_on_c, 0, 88, 80
1, 98482, Note_off_c, 0, 85, 66
1, 98499, Note_off_c, 0, 77, 48
1, 98532, Note_on_c, 0, 85, 87
1, 98541, Note_off_c, 0, 88, 66
1, 98594, Note_on_c, 0, 88, 81
1, 98603, Note_off_c, 0, 85, 65
1, 98608, Note_off_c, 0, 45, 56
1, 98647, Note_off_c, 0, 57, 60
1, 98655, Note_on_c, 0, 85, 87
1, 98672, Note_off_c, 0, 88, 65
1, 98726, Note_on_c, 0, 88, 79
1, 98738, Note_off_c, 0, 85, 66
1, 98784, Note_on_c, 0, 46, 101
1, 98784, Note_on_c, 0, 85, 93
1, 98785, Note_on_c, 0, 58, 106
1, 98796, Note_off_c, 0, 88, 66
1, 98807, Control_c, 0, 64, 103
1, 98820, Note_off_c, 0, 58, 68
1, 98822, Control_c, 0, 64, 63
1, 98824, Note_off_c, 0, 46, 65
1, 98837, Control_c, 0, 64, 0
1, 98848, Note_on_c, 0, 88, 80
1, 98858, Note_off_c, 0, 85, 66
1, 98914, Note_on_c, 0, 85, 89
1, 98916, Note_on_c, 0, 49, 89
1, 98916, Note_on_c, 0, 61, 91
1, 98922, Note_off_c, 0, 88, 65
1, 98958, Note_off_c, 0, 61, 61
1, 98964, Note_off_c, 0, 49, 61
1, 98976, Note_on_c, 0, 88, 76
1, 98985, Note_off_c, 0, 85, 66
1, 99045, Note_on_c, 0, 85, 87
1, 99050, Note_on_c, 0, 64, 92
1, 99050, Note_off_c, 0, 88, 64
1, 99056, Note_on_c, 0, 52, 81
1, 99086, Note_off_c, 0, 52, 68
1, 99089, Note_off_c, 0, 64, 67
1, 99101, Note_on_c, 0, 88, 76
1, 99113, Note_off_c, 0, 85, 66
1, 99170, Note_on_c, 0, 85, 87
1, 99177, Note_on_c, 0, 67, 101
1, 99177, Note_off_c, 0, 88, 66
1, 99181, Note_on_c, 0, 55, 84
1, 99211, Note_off_c, 0, 55, 66
1, 99211, Note_off_c, 0, 67, 67
1, 99228, Note_on_c, 0, 88, 80
1, 99237, Note_off_c, 0, 85, 66
1, 99298, Note_on_c, 0, 70, 95
1, 99300, Note_on_c, 0, 82, 86
1, 99304, Note_on_c, 0, 58, 86
1, 99307, Note_off_c, 0, 88, 64
1, 99326, Note_off_c, 0, 58, 69
1, 99331, Note_off_c, 0, 70, 65
1, 99372, Note_on_c, 0, 85, 85
1, 99393, Note_off_c, 0, 82, 66
1, 99429, Note_on_c, 0, 73, 99
1, 99432, Note_on_c, 0, 61, 87
1, 99437, Note_off_c, 0, 85, 65
1, 99439, Note_on_c, 0, 80, 87
1, 99466, Note_off_c, 0, 73, 64
1, 99477, Note_off_c, 0, 61, 59
1, 99496, Note_off_c, 0, 80, 60
1, 99504, Note_on_c, 0, 82, 84
1, 99561, Note_on_c, 0, 76, 99
1, 99561, Note_off_c, 0, 82, 66
1, 99564, Note_on_c, 0, 64, 89
1, 99565, Note_on_c, 0, 80, 85
1, 99604, Note_off_c, 0, 76, 67
1, 99608, Note_off_c, 0, 64, 63
1, 99630, Note_on_c, 0, 82, 86
1, 99637, Note_off_c, 0, 80, 64
1, 99691, Note_on_c, 0, 85, 85
1, 99694, Note_on_c, 0, 76, 91
1, 99695, Note_on_c, 0, 64, 89
1, 99701, Note_off_c, 0, 82, 66
1, 99735, Note_off_c, 0, 76, 65
1, 99737, Note_off_c, 0, 64, 62
1, 99745, Note_off_c, 0, 85, 67
1, 99755, Note_on_c, 0, 82, 81
1, 99811, Note_off_c, 0, 82, 66
1, 99815, Note_on_c, 0, 80, 81
1, 99821, Note_on_c, 0, 76, 96
1, 99825, Note_on_c, 0, 64, 87
1, 99865, Note_off_c, 0, 64, 58
1, 99866, Note_off_c, 0, 76, 67
1, 99877, Note_on_c, 0, 82, 88
1, 99894, Note_off_c, 0, 80, 63
1, 99936, Note_off_c, 0, 82, 65
1, 99941, Control_c, 0, 64, 31
1, 99943, Note_on_c, 0, 76, 106
1, 99947, Note_on_c, 0, 64, 92
1, 99956, Control_c, 0, 64, 48
1, 99972, Control_c, 0, 64, 60
1, 99987, Control_c, 0, 64, 66
1, 100001, Control_c, 0, 64, 76
1, 100016, Control_c, 0, 64, 119
1, 100029, Note_on_c, 0, 80, 72
1, 100031, Control_c, 0, 64, 127
1, 100085, Note_on_c, 0, 85, 77
1, 100095, Note_off_c, 0, 80, 61
1, 100156, Note_on_c, 0, 82, 79
1, 100156, Note_off_c, 0, 85, 60
1, 100188, Note_off_c, 0, 76, 59
1, 100226, Note_off_c, 0, 82, 64
1, 100230, Note_on_c, 0, 80, 75
1, 100294, Note_on_c, 0, 85, 73
1, 100314, Note_off_c, 0, 80, 62
1, 100350, Note_on_c, 0, 63, 71
1, 100350, Note_on_c, 0, 75, 77
1, 100350, Note_off_c, 0, 64, 60
1, 100352, Note_off_c, 0, 85, 61
1, 100380, Control_c, 0, 64, 95
1, 100395, Control_c, 0, 64, 68
1, 100410, Control_c, 0, 64, 58
1, 100415, Note_on_c, 0, 79, 77
1, 100424, Control_c, 0, 64, 57
1, 100439, Control_c, 0, 64, 61
1, 100454, Control_c, 0, 64, 65
1, 100466, Note_off_c, 0, 75, 61
1, 100468, Control_c, 0, 64, 74
1, 100472, Note_on_c, 0, 85, 78
1, 100483, Control_c, 0, 64, 114
1, 100490, Note_off_c, 0, 63, 62
1, 100498, Control_c, 0, 64, 127
1, 100503, Note_off_c, 0, 79, 62
1, 100542, Note_on_c, 0, 82, 84
1, 100581, Note_off_c, 0, 85, 65
1, 100606, Note_on_c, 0, 79, 88
1, 100611, Note_off_c, 0, 82, 67
1, 100672, Note_on_c, 0, 85, 85
1, 100689, Note_off_c, 0, 79, 65
1, 100722, Note_on_c, 0, 68, 98
1, 100738, Note_off_c, 0, 85, 64
1, 100779, Control_c, 0, 64, 84
1, 100794, Control_c, 0, 64, 64
1, 100809, Note_on_c, 0, 76, 81
1, 100809, Control_c, 0, 64, 47
1, 100824, Control_c, 0, 64, 45
1, 100839, Control_c, 0, 64, 46
1, 100854, Control_c, 0, 64, 52
1, 100863, Note_on_c, 0, 85, 70
1, 100868, Control_c, 0, 64, 62
1, 100881, Note_off_c, 0, 76, 59
1, 100883, Control_c, 0, 64, 71
1, 100898, Control_c, 0, 64, 89
1, 100920, Control_c, 0, 64, 127
1, 100924, Note_on_c, 0, 82, 78
1, 100961, Note_off_c, 0, 85, 64
1, 100984, Note_off_c, 0, 82, 64
1, 101000, Note_on_c, 0, 76, 80
1, 101070, Note_on_c, 0, 85, 71
1, 101081, Note_off_c, 0, 76, 62
1, 101111, Note_off_c, 0, 85, 61
1, 101128, Note_on_c, 0, 67, 77
1, 101144, Note_off_c, 0, 68, 57
1, 101188, Control_c, 0, 64, 114
1, 101203, Control_c, 0, 64, 76
1, 101218, Control_c, 0, 64, 59
1, 101222, Note_on_c, 0, 75, 81
1, 101233, Control_c, 0, 64, 53
1, 101247, Control_c, 0, 64, 55
1, 101262, Note_on_c, 0, 85, 71
1, 101262, Control_c, 0, 64, 58
1, 101277, Control_c, 0, 64, 64
1, 101291, Control_c, 0, 64, 75
1, 101296, Note_off_c, 0, 67, 63
1, 101306, Note_off_c, 0, 75, 59
1, 101306, Control_c, 0, 64, 113
1, 101317, Note_on_c, 0, 82, 85
1, 101321, Control_c, 0, 64, 127
1, 101360, Note_off_c, 0, 85, 62
1, 101387, Note_on_c, 0, 75, 94
1, 101389, Note_off_c, 0, 82, 65
1, 101453, Note_off_c, 0, 75, 64
1, 101456, Note_on_c, 0, 85, 90
1, 101510, Note_on_c, 0, 76, 101
1, 101516, Note_off_c, 0, 85, 66
1, 101528, Control_c, 0, 64, 77
1, 101543, Control_c, 0, 64, 54
1, 101557, Control_c, 0, 64, 17
1, 101587, Control_c, 0, 64, 21
1, 101596, Note_on_c, 0, 80, 79
1, 101602, Control_c, 0, 64, 43
1, 101617, Control_c, 0, 64, 60
1, 101632, Control_c, 0, 64, 69
1, 101646, Note_on_c, 0, 85, 81
1, 101647, Control_c, 0, 64, 81
1, 101669, Control_c, 0, 64, 108
1, 101678, Note_off_c, 0, 80, 59
1, 101684, Control_c, 0, 64, 127
1, 101721, Note_on_c, 0, 82, 76
1, 101745, Note_off_c, 0, 85, 64
1, 101766, Note_off_c, 0, 82, 66
1, 101784, Note_on_c, 0, 80, 90
1, 101857, Note_on_c, 0, 85, 76
1, 101876, Note_off_c, 0, 80, 62
1, 101888, Note_on_c, 0, 75, 86
1, 101912, Note_off_c, 0, 85, 64
1, 101921, Control_c, 0, 64, 103
1, 101936, Control_c, 0, 64, 72
1, 101951, Control_c, 0, 64, 55
1, 101958, Note_off_c, 0, 76, 58
1, 101966, Control_c, 0, 64, 43
1, 101981, Control_c, 0, 64, 45
1, 101982, Note_on_c, 0, 79, 81
1, 101996, Control_c, 0, 64, 53
1, 102011, Control_c, 0, 64, 63
1, 102025, Control_c, 0, 64, 75
1, 102027, Note_on_c, 0, 85, 80
1, 102034, Note_off_c, 0, 75, 62
1, 102040, Control_c, 0, 64, 127
1, 102047, Note_off_c, 0, 79, 64
1, 102100, Note_on_c, 0, 82, 87
1, 102123, Note_off_c, 0, 85, 64
1, 102146, Note_on_c, 0, 79, 84
1, 102163, Note_off_c, 0, 82, 64
1, 102210, Note_on_c, 0, 85, 82
1, 102239, Note_off_c, 0, 79, 64
1, 102257, Note_on_c, 0, 74, 90
1, 102278, Note_off_c, 0, 85, 66
1, 102289, Poly_aftertouch_c, 0, 83, 127
1, 102306, Control_c, 0, 64, 72
1, 102317, Poly_aftertouch_c, 0, 83, 0
1, 102321, Control_c, 0, 64, 48
1, 102329, Note_on_c, 0, 77, 82
1, 102335, Control_c, 0, 64, 22
1, 102365, Control_c, 0, 64, 26
1, 102380, Control_c, 0, 64, 50
1, 102395, Note_on_c, 0, 80, 86
1, 102395, Control_c, 0, 64, 65
1, 102417, Control_c, 0, 64, 84
1, 102432, Control_c, 0, 64, 127
1, 102472, Note_on_c, 0, 83, 85
1, 102533, Note_on_c, 0, 86, 91
1, 102542, Note_off_c, 0, 83, 65
1, 102590, Note_on_c, 0, 89, 90
1, 102613, Note_off_c, 0, 86, 64
1, 102630, Note_on_c, 0, 92, 85
1, 102666, Note_off_c, 0, 89, 62
1, 102690, Note_on_c, 0, 89, 78
1, 102728, Note_off_c, 0, 92, 66
1, 102753, Note_on_c, 0, 86, 90
1, 102763, Note_off_c, 0, 89, 65
1, 102809, Note_on_c, 0, 95, 102
1, 102839, Note_off_c, 0, 86, 61
1, 102867, Note_off_c, 0, 80, 58
1, 102872, Note_on_c, 0, 94, 90
1, 102922, Note_off_c, 0, 95, 63
1, 102926, Note_on_c, 0, 92, 90
1, 102936, Control_c, 0, 64, 116
1, 102951, Control_c, 0, 64, 71
1, 102966, Control_c, 0, 64, 46
1, 102967, Note_on_c, 0, 75, 90
1, 102972, Note_on_c, 0, 91, 95
1, 102979, Note_off_c, 0, 94, 63
1, 102981, Control_c, 0, 64, 0
1, 102996, Note_off_c, 0, 92, 65
1, 103010, Control_c, 0, 64, 15
1, 103012, Note_off_c, 0, 77, 59
1, 103012, Note_off_c, 0, 74, 54
1, 103025, Control_c, 0, 64, 48
1, 103033, Note_on_c, 0, 94, 88
1, 103040, Control_c, 0, 64, 65
1, 103048, Note_off_c, 0, 91, 65
1, 103055, Control_c, 0, 64, 81
1, 103057, Note_on_c, 0, 79, 79
1, 103069, Control_c, 0, 64, 127
1, 103088, Note_on_c, 0, 92, 94
1, 103133, Note_off_c, 0, 94, 64
1, 103139, Note_on_c, 0, 91, 89
1, 103181, Note_off_c, 0, 92, 66
1, 103206, Note_on_c, 0, 88, 82
1, 103209, Note_off_c, 0, 91, 64
1, 103257, Note_off_c, 0, 88, 65
1, 103273, Note_on_c, 0, 87, 87
1, 103334, Note_on_c, 0, 85, 81
1, 103337, Note_off_c, 0, 79, 62
1, 103354, Note_off_c, 0, 87, 63
1, 103392, Note_on_c, 0, 88, 82
1, 103398, Note_off_c, 0, 85, 65
1, 103406, Note_off_c, 0, 75, 61
1, 103453, Note_off_c, 0, 88, 66
1, 103456, Note_on_c, 0, 87, 81
1, 103502, Note_on_c, 0, 85, 77
1, 103503, Note_off_c, 0, 87, 65
1, 103553, Note_off_c, 0, 85, 64
1, 103570, Note_on_c, 0, 83, 71
1, 103624, Note_off_c, 0, 83, 62
1, 103632, Note_on_c, 0, 82, 74
1, 103657, Note_off_c, 0, 82, 67
1, 103686, Control_c, 0, 64, 107
1, 103700, Control_c, 0, 64, 97
1, 103716, Control_c, 0, 64, 85
1, 103731, Control_c, 0, 64, 70
1, 103745, Control_c, 0, 64, 60
1, 103749, Note_on_c, 0, 68, 47
1, 103749, Note_on_c, 0, 71, 46
1, 103760, Control_c, 0, 64, 49
1, 103775, Control_c, 0, 64, 43
1, 103790, Control_c, 0, 64, 35
1, 103805, Control_c, 0, 64, 26
1, 103820, Control_c, 0, 64, 16
1, 103823, Note_on_c, 0, 80, 44
1, 103834, Control_c, 0, 64, 0
1, 103870, Note_off_c, 0, 80, 62
1, 103921, Note_on_c, 0, 84, 27
1, 103930, Control_c, 0, 64, 9
1, 103945, Control_c, 0, 64, 16
1, 103960, Note_off_c, 0, 84, 30
1, 103960, Control_c, 0, 64, 21
1, 103972, Note_on_c, 0, 87, 33
1, 103975, Control_c, 0, 64, 22
1, 104005, Note_off_c, 0, 87, 46
1, 104005, Control_c, 0, 64, 23
1, 104011, Note_on_c, 0, 92, 61
1, 104020, Control_c, 0, 64, 23
1, 104035, Control_c, 0, 64, 24
1, 104049, Control_c, 0, 64, 25
1, 104064, Control_c, 0, 64, 26
1, 104079, Note_on_c, 0, 80, 54
1, 104092, Note_off_c, 0, 92, 61
1, 104108, Control_c, 0, 64, 26
1, 104119, Note_off_c, 0, 80, 65
1, 104134, Note_on_c, 0, 73, 49
1, 104138, Control_c, 0, 64, 27
1, 104142, Note_on_c, 0, 76, 53
1, 104153, Control_c, 0, 64, 27
1, 104211, Note_off_c, 0, 71, 23
1, 104227, Control_c, 0, 64, 28
1, 104271, Control_c, 0, 64, 28
1, 104300, Control_c, 0, 64, 29
1, 104316, Control_c, 0, 64, 29
1, 104346, Control_c, 0, 64, 30
1, 104347, Note_off_c, 0, 76, 64
1, 104361, Control_c, 0, 64, 30
1, 104375, Note_on_c, 0, 92, 59
1, 104409, Note_off_c, 0, 92, 66
1, 104431, Note_on_c, 0, 80, 60
1, 104492, Note_on_c, 0, 92, 62
1, 104538, Note_off_c, 0, 80, 59
1, 104540, Note_on_c, 0, 75, 72
1, 104552, Note_on_c, 0, 71, 57
1, 104557, Note_off_c, 0, 68, 36
1, 104561, Note_off_c, 0, 92, 63
1, 104663, Control_c, 0, 64, 31
1, 104711, Note_off_c, 0, 73, 52
1, 104730, Note_off_c, 0, 75, 61
1, 104752, Control_c, 0, 64, 31
1, 104762, Note_on_c, 0, 92, 79
1, 104767, Control_c, 0, 64, 34
1, 104782, Control_c, 0, 64, 36
1, 104796, Control_c, 0, 64, 37
1, 104811, Control_c, 0, 64, 38
1, 104819, Note_off_c, 0, 92, 62
1, 104820, Note_on_c, 0, 80, 76
1, 104826, Control_c, 0, 64, 39
1, 104841, Control_c, 0, 64, 44
1, 104856, Control_c, 0, 64, 52
1, 104869, Note_on_c, 0, 83, 13
1, 104870, Control_c, 0, 64, 58
1, 104874, Note_on_c, 0, 92, 79
1, 104885, Control_c, 0, 64, 62
1, 104900, Control_c, 0, 64, 64
1, 104914, Control_c, 0, 64, 65
1, 104920, Note_off_c, 0, 83, 28
1, 104929, Control_c, 0, 64, 68
1, 104943, Note_on_c, 0, 75, 91
1, 104944, Control_c, 0, 64, 74
1, 104946, Note_on_c, 0, 73, 73
1, 104950, Note_on_c, 0, 70, 65
1, 104959, Control_c, 0, 64, 81
1, 104974, Control_c, 0, 64, 88
1, 104980, Note_off_c, 0, 71, 64
1, 104981, Note_off_c, 0, 80, 61
1, 104988, Control_c, 0, 64, 84
1, 105002, Note_off_c, 0, 92, 63
1, 105003, Control_c, 0, 64, 73
1, 105018, Control_c, 0, 64, 62
1, 105033, Control_c, 0, 64, 49
1, 105048, Control_c, 0, 64, 48
1, 105063, Control_c, 0, 64, 49
1, 105078, Control_c, 0, 64, 54
1, 105093, Control_c, 0, 64, 62
1, 105108, Control_c, 0, 64, 68
1, 105123, Control_c, 0, 64, 78
1, 105138, Control_c, 0, 64, 95
1, 105149, Note_on_c, 0, 91, 74
1, 105152, Control_c, 0, 64, 110
1, 105167, Control_c, 0, 64, 116
1, 105205, Note_off_c, 0, 91, 61
1, 105216, Note_on_c, 0, 79, 76
1, 105227, Control_c, 0, 64, 118
1, 105242, Control_c, 0, 64, 123
1, 105257, Control_c, 0, 64, 127
1, 105273, Note_on_c, 0, 91, 70
1, 105287, Note_off_c, 0, 79, 65
1, 105316, Note_off_c, 0, 91, 62
1, 105337, Note_on_c, 0, 68, 52
1, 105344, Note_off_c, 0, 75, 58
1, 105355, Note_on_c, 0, 71, 62
1, 105390, Control_c, 0, 64, 111
1, 105412, Control_c, 0, 64, 104
1, 105427, Control_c, 0, 64, 104
1, 105428, Note_on_c, 0, 80, 70
1, 105442, Control_c, 0, 64, 105
1, 105456, Control_c, 0, 64, 105
1, 105471, Note_off_c, 0, 73, 50
1, 105471, Control_c, 0, 64, 104
1, 105480, Note_off_c, 0, 71, 65
1, 105486, Control_c, 0, 64, 101
1, 105489, Note_off_c, 0, 80, 64
1, 105501, Control_c, 0, 64, 97
1, 105504, Note_on_c, 0, 83, 72
1, 105509, Note_off_c, 0, 68, 62
1, 105516, Control_c, 0, 64, 93
1, 105528, Note_off_c, 0, 70, 39
1, 105531, Control_c, 0, 64, 93
1, 105538, Note_off_c, 0, 83, 64
1, 105545, Control_c, 0, 64, 94
1, 105559, Note_on_c, 0, 87, 72
1, 105590, Control_c, 0, 64, 92
1, 105605, Control_c, 0, 64, 90
1, 105613, Note_on_c, 0, 92, 69
1, 105619, Note_off_c, 0, 87, 63
1, 105619, Control_c, 0, 64, 89
1, 105634, Control_c, 0, 64, 88
1, 105649, Control_c, 0, 64, 87
1, 105663, Control_c, 0, 64, 84
1, 105666, Note_on_c, 0, 80, 75
1, 105678, Control_c, 0, 64, 80
1, 105690, Note_off_c, 0, 92, 65
1, 105693, Control_c, 0, 64, 77
1, 105708, Control_c, 0, 64, 75
1, 105718, Note_off_c, 0, 80, 62
1, 105723, Control_c, 0, 64, 72
1, 105734, Note_on_c, 0, 61, 47
1, 105737, Note_on_c, 0, 64, 57
1, 105737, Control_c, 0, 64, 69
1, 105752, Control_c, 0, 64, 64
1, 105767, Control_c, 0, 64, 60
1, 105782, Control_c, 0, 64, 55
1, 105797, Control_c, 0, 64, 51
1, 105811, Control_c, 0, 64, 47
1, 105826, Control_c, 0, 64, 40
1, 105841, Control_c, 0, 64, 32
1, 105856, Control_c, 0, 64, 23
1, 105871, Control_c, 0, 64, 17
1, 105886, Control_c, 0, 64, 17
1, 105945, Note_on_c, 0, 80, 62
1, 105981, Note_off_c, 0, 64, 61
1, 105984, Note_off_c, 0, 80, 61
1, 105999, Note_on_c, 0, 68, 68
1, 106071, Note_on_c, 0, 80, 67
1, 106120, Note_on_c, 0, 63, 64
1, 106127, Note_off_c, 0, 68, 38
1, 106131, Note_on_c, 0, 59, 57
1, 106138, Note_off_c, 0, 80, 61
1, 106243, Note_off_c, 0, 61, 41
1, 106249, Control_c, 0, 64, 17
1, 106264, Control_c, 0, 64, 18
1, 106279, Control_c, 0, 64, 21
1, 106289, Note_off_c, 0, 63, 58
1, 106294, Control_c, 0, 64, 22
1, 106339, Note_on_c, 0, 80, 70
1, 106354, Control_c, 0, 64, 23
1, 106388, Note_off_c, 0, 80, 60
1, 106401, Note_on_c, 0, 68, 77
1, 106457, Control_c, 0, 64, 23
1, 106458, Note_on_c, 0, 80, 71
1, 106472, Control_c, 0, 64, 24
1, 106486, Control_c, 0, 64, 25
1, 106516, Control_c, 0, 64, 25
1, 106531, Note_on_c, 0, 63, 86
1, 106531, Control_c, 0, 64, 26
1, 106534, Note_on_c, 0, 61, 71
1, 106536, Note_on_c, 0, 58, 69
1, 106547, Note_off_c, 0, 59, 54
1, 106592, Note_off_c, 0, 68, 58
1, 106595, Note_off_c, 0, 80, 62
1, 106721, Note_on_c, 0, 79, 74
1, 106725, Control_c, 0, 64, 26
1, 106739, Control_c, 0, 64, 28
1, 106754, Control_c, 0, 64, 30
1, 106769, Control_c, 0, 64, 32
1, 106771, Note_off_c, 0, 79, 59
1, 106783, Control_c, 0, 64, 35
1, 106790, Note_on_c, 0, 67, 70
1, 106798, Control_c, 0, 64, 39
1, 106813, Control_c, 0, 64, 48
1, 106828, Control_c, 0, 64, 56
1, 106843, Control_c, 0, 64, 63
1, 106851, Note_off_c, 0, 67, 63
1, 106855, Note_on_c, 0, 79, 69
1, 106857, Control_c, 0, 64, 69
1, 106872, Control_c, 0, 64, 79
1, 106887, Control_c, 0, 64, 99
1, 106893, Note_off_c, 0, 79, 65
1, 106909, Control_c, 0, 64, 127
1, 106911, Note_on_c, 0, 56, 54
1, 106918, Note_on_c, 0, 59, 61
1, 106918, Note_off_c, 0, 63, 55
1, 107012, Note_on_c, 0, 80, 68
1, 107030, Note_off_c, 0, 59, 63
1, 107036, Note_off_c, 0, 61, 28
1, 107059, Note_off_c, 0, 56, 64
1, 107066, Note_off_c, 0, 80, 64
1, 107072, Control_c, 0, 64, 108
1, 107077, Note_on_c, 0, 83, 75
1, 107085, Note_off_c, 0, 58, 35
1, 107087, Control_c, 0, 64, 94
1, 107102, Control_c, 0, 64, 90
1, 107117, Control_c, 0, 64, 87
1, 107132, Control_c, 0, 64, 83
1, 107135, Note_on_c, 0, 87, 69
1, 107137, Note_off_c, 0, 83, 64
1, 107147, Control_c, 0, 64, 78
1, 107162, Control_c, 0, 64, 73
1, 107176, Control_c, 0, 64, 69
1, 107191, Control_c, 0, 64, 65
1, 107193, Note_on_c, 0, 92, 74
1, 107199, Note_off_c, 0, 87, 62
1, 107206, Control_c, 0, 64, 63
1, 107221, Control_c, 0, 64, 60
1, 107236, Control_c, 0, 64, 57
1, 107248, Note_on_c, 0, 80, 67
1, 107251, Control_c, 0, 64, 54
1, 107265, Control_c, 0, 64, 50
1, 107280, Control_c, 0, 64, 46
1, 107288, Note_on_c, 0, 49, 58
1, 107293, Note_on_c, 0, 52, 66
1, 107295, Control_c, 0, 64, 43
1, 107297, Note_off_c, 0, 92, 62
1, 107306, Note_off_c, 0, 80, 63
1, 107309, Control_c, 0, 64, 40
1, 107324, Control_c, 0, 64, 39
1, 107339, Control_c, 0, 64, 37
1, 107354, Control_c, 0, 64, 35
1, 107369, Control_c, 0, 64, 33
1, 107383, Control_c, 0, 64, 32
1, 107508, Note_on_c, 0, 92, 75
1, 107531, Note_off_c, 0, 52, 65
1, 107561, Note_off_c, 0, 92, 61
1, 107565, Note_on_c, 0, 80, 66
1, 107613, Note_on_c, 0, 92, 69
1, 107637, Control_c, 0, 64, 32
1, 107659, Control_c, 0, 64, 33
1, 107674, Control_c, 0, 64, 34
1, 107689, Control_c, 0, 64, 35
1, 107691, Note_on_c, 0, 47, 66
1, 107692, Note_on_c, 0, 51, 77
1, 107704, Control_c, 0, 64, 36
1, 107719, Control_c, 0, 64, 36
1, 107725, Note_off_c, 0, 80, 56
1, 107747, Note_off_c, 0, 92, 58
1, 107763, Control_c, 0, 64, 37
1, 107772, Note_off_c, 0, 49, 50
1, 107880, Note_off_c, 0, 51, 63
1, 107894, Note_on_c, 0, 92, 78
1, 107951, Note_on_c, 0, 80, 73
1, 107954, Note_off_c, 0, 92, 64
1, 108000, Control_c, 0, 64, 35
1, 108006, Note_on_c, 0, 92, 72
1, 108014, Control_c, 0, 64, 33
1, 108074, Control_c, 0, 64, 35
1, 108083, Note_on_c, 0, 51, 82
1, 108086, Note_on_c, 0, 46, 65
1, 108086, Note_on_c, 0, 49, 65
1, 108089, Control_c, 0, 64, 45
1, 108104, Control_c, 0, 64, 57
1, 108118, Control_c, 0, 64, 65
1, 108120, Note_off_c, 0, 47, 62
1, 108133, Control_c, 0, 64, 72
1, 108148, Control_c, 0, 64, 85
1, 108163, Control_c, 0, 64, 113
1, 108171, Note_off_c, 0, 92, 58
1, 108178, Control_c, 0, 64, 127
1, 108250, Note_off_c, 0, 51, 63
1, 108279, Note_on_c, 0, 91, 76
1, 108284, Note_off_c, 0, 49, 63
1, 108303, Note_off_c, 0, 46, 62
1, 108315, Note_off_c, 0, 80, 43
1, 108351, Note_on_c, 0, 79, 68
1, 108358, Note_off_c, 0, 91, 61
1, 108435, Note_off_c, 0, 79, 60
1, 108436, Note_on_c, 0, 91, 71
1, 108495, Note_off_c, 0, 91, 63
1, 108559, Note_on_c, 0, 44, 68
1, 108572, Note_on_c, 0, 92, 78
1, 108600, Control_c, 0, 64, 109
1, 108615, Control_c, 0, 64, 78
1, 108629, Control_c, 0, 64, 64
1, 108643, Note_off_c, 0, 92, 64
1, 108644, Note_on_c, 0, 87, 71
1, 108644, Control_c, 0, 64, 55
1, 108659, Control_c, 0, 64, 50
1, 108674, Control_c, 0, 64, 44
1, 108688, Note_off_c, 0, 87, 62
1, 108689, Control_c, 0, 64, 39
1, 108703, Control_c, 0, 64, 33
1, 108706, Note_on_c, 0, 83, 60
1, 108718, Control_c, 0, 64, 31
1, 108733, Control_c, 0, 64, 31
1, 108768, Note_on_c, 0, 87, 71
1, 108775, Note_off_c, 0, 83, 60
1, 108829, Note_off_c, 0, 87, 64
1, 108837, Note_on_c, 0, 92, 70
1, 108895, Note_on_c, 0, 87, 67
1, 108899, Note_off_c, 0, 92, 64
1, 108911, Control_c, 0, 64, 31
1, 108937, Note_off_c, 0, 87, 64
1, 108960, Note_on_c, 0, 83, 58
1, 108970, Control_c, 0, 64, 32
1, 109000, Control_c, 0, 64, 32
1, 109015, Control_c, 0, 64, 33
1, 109019, Note_off_c, 0, 83, 60
1, 109019, Note_on_c, 0, 87, 68
1, 109029, Control_c, 0, 64, 33
1, 109044, Control_c, 0, 64, 34
1, 109059, Control_c, 0, 64, 34
1, 109080, Note_off_c, 0, 87, 64
1, 109089, Note_on_c, 0, 92, 67
1, 109120, Control_c, 0, 64, 35
1, 109134, Control_c, 0, 64, 35
1, 109156, Control_c, 0, 64, 36
1, 109163, Note_on_c, 0, 87, 59
1, 109164, Note_off_c, 0, 92, 64
1, 109171, Control_c, 0, 64, 36
1, 109186, Control_c, 0, 64, 37
1, 109207, Note_off_c, 0, 87, 64
1, 109215, Control_c, 0, 64, 38
1, 109230, Control_c, 0, 64, 38
1, 109236, Note_on_c, 0, 83, 56
1, 109245, Control_c, 0, 64, 39
1, 109275, Control_c, 0, 64, 39
1, 109290, Note_off_c, 0, 83, 60
1, 109298, Note_on_c, 0, 87, 62
1, 109317, Note_on_c, 0, 39, 44
1, 109320, Control_c, 0, 64, 40
1, 109341, Note_off_c, 0, 87, 63
1, 109360, Note_on_c, 0, 92, 64
1, 109364, Control_c, 0, 64, 40
1, 109408, Control_c, 0, 64, 41
1, 109421, Note_on_c, 0, 87, 59
1, 109424, Note_off_c, 0, 92, 65
1, 109466, Note_off_c, 0, 87, 64
1, 109482, Control_c, 0, 64, 41
1, 109494, Note_on_c, 0, 83, 55
1, 109496, Note_off_c, 0, 44, 30
1, 109540, Note_off_c, 0, 83, 57
1, 109551, Note_on_c, 0, 87, 51
1, 109591, Note_off_c, 0, 87, 66
1, 109600, Control_c, 0, 64, 42
1, 109610, Note_on_c, 0, 92, 68
1, 109665, Note_off_c, 0, 92, 61
1, 109677, Note_on_c, 0, 87, 63
1, 109711, Note_off_c, 0, 87, 65
1, 109719, Note_on_c, 0, 35, 41
1, 109743, Note_on_c, 0, 92, 60
1, 109786, Note_off_c, 0, 92, 60
1, 109809, Note_on_c, 0, 87, 59
1, 109850, Note_off_c, 0, 87, 63
1, 109880, Note_on_c, 0, 92, 58
1, 109928, Note_off_c, 0, 92, 63
1, 109972, Note_on_c, 0, 87, 41
1, 110000, Note_off_c, 0, 87, 53
1, 110026, Note_on_c, 0, 92, 56
1, 110063, Note_off_c, 0, 92, 64
1, 110077, Note_on_c, 0, 87, 56
1, 110134, Note_off_c, 0, 87, 55
1, 110142, Control_c, 0, 64, 42
1, 110162, Note_on_c, 0, 32, 33
1, 110166, Note_on_c, 0, 92, 47
1, 110316, Note_off_c, 0, 35, 36
1, 110435, Note_off_c, 0, 39, 4
1, 110453, Control_c, 0, 64, 43
1, 110468, Control_c, 0, 64, 43
1, 110482, Control_c, 0, 64, 44
1, 110497, Control_c, 0, 64, 45
1, 110512, Control_c, 0, 64, 46
1, 110542, Control_c, 0, 64, 46
1, 110557, Control_c, 0, 64, 47
1, 110572, Control_c, 0, 64, 47
1, 110587, Control_c, 0, 64, 48
1, 110601, Control_c, 0, 64, 49
1, 110616, Control_c, 0, 64, 50
1, 110631, Control_c, 0, 64, 51
1, 110653, Control_c, 0, 64, 53
1, 110668, Control_c, 0, 64, 55
1, 110682, Control_c, 0, 64, 58
1, 110698, Control_c, 0, 64, 60
1, 110713, Control_c, 0, 64, 61
1, 110728, Control_c, 0, 64, 63
1, 110743, Control_c, 0, 64, 65
1, 110757, Control_c, 0, 64, 69
1, 110772, Control_c, 0, 64, 74
1, 110787, Control_c, 0, 64, 81
1, 110802, Control_c, 0, 64, 87
1, 110817, Control_c, 0, 64, 94
1, 110831, Control_c, 0, 64, 101
1, 110846, Control_c, 0, 64, 113
1, 110861, Control_c, 0, 64, 127
1, 110944, Note_off_c, 0, 92, 56
1, 111170, Note_off_c, 0, 32, 42
1, 111478, Note_on_c, 0, 59, 68
1, 111493, Note_on_c, 0, 47, 46
1, 111567, Control_c, 0, 64, 109
1, 111581, Control_c, 0, 64, 88
1, 111596, Control_c, 0, 64, 76
1, 111611, Control_c, 0, 64, 70
1, 111626, Control_c, 0, 64, 68
1, 111641, Control_c, 0, 64, 67
1, 111655, Control_c, 0, 64, 65
1, 111670, Control_c, 0, 64, 63
1, 111685, Control_c, 0, 64, 62
1, 111700, Control_c, 0, 64, 61
1, 111744, Control_c, 0, 64, 61
1, 111759, Control_c, 0, 64, 60
1, 111773, Control_c, 0, 64, 59
1, 111788, Control_c, 0, 64, 59
1, 111848, Control_c, 0, 64, 58
1, 111877, Control_c, 0, 64, 58
1, 111907, Note_on_c, 0, 56, 54
1, 111916, Note_on_c, 0, 44, 47
1, 111981, Control_c, 0, 64, 57
1, 111998, Note_on_c, 0, 51, 58
1, 112005, Note_off_c, 0, 59, 38
1, 112007, Note_on_c, 0, 39, 41
1, 112011, Control_c, 0, 64, 57
1, 112026, Note_off_c, 0, 44, 53
1, 112035, Note_off_c, 0, 47, 29
1, 112041, Control_c, 0, 64, 56
1, 112074, Note_off_c, 0, 56, 36
1, 112114, Control_c, 0, 64, 56
1, 112685, Control_c, 0, 64, 56
1, 113003, Control_c, 0, 64, 57
1, 113345, Note_on_c, 0, 59, 41
1, 113350, Note_on_c, 0, 47, 35
1, 113490, Note_off_c, 0, 51, 50
1, 113509, Note_off_c, 0, 39, 55
1, 113626, Control_c, 0, 64, 57
1, 113896, Note_on_c, 0, 56, 42
1, 113931, Note_on_c, 0, 44, 25
1, 113993, Note_off_c, 0, 59, 34
1, 114005, Note_on_c, 0, 40, 24
1, 114014, Note_on_c, 0, 52, 40
1, 114018, Note_off_c, 0, 47, 33
1, 114099, Note_off_c, 0, 44, 27
1, 114108, Note_off_c, 0, 56, 27
1, 114709, Control_c, 0, 64, 58
1, 115175, Control_c, 0, 64, 58
1, 115216, Note_on_c, 0, 44, 25
1, 115220, Note_on_c, 0, 56, 37
1, 115395, Note_off_c, 0, 40, 31
1, 115528, Note_off_c, 0, 52, 34
1, 115549, Note_on_c, 0, 47, 43
1, 115555, Note_on_c, 0, 59, 46
1, 115571, Note_off_c, 0, 44, 46
1, 115630, Note_off_c, 0, 56, 41
1, 115640, Note_on_c, 0, 64, 48
1, 115656, Note_on_c, 0, 52, 48
1, 115663, Note_off_c, 0, 47, 60
1, 115693, Note_off_c, 0, 59, 54
1, 116062, Note_on_c, 0, 68, 61
1, 116088, Note_on_c, 0, 56, 38
1, 116164, Note_off_c, 0, 52, 38
1, 116333, Note_off_c, 0, 64, 33
1, 116373, Note_on_c, 0, 59, 50
1, 116373, Note_on_c, 0, 71, 62
1, 116411, Note_off_c, 0, 56, 43
1, 116414, Note_off_c, 0, 68, 60
1, 116443, Control_c, 0, 64, 58
1, 116457, Note_on_c, 0, 76, 62
1, 116458, Control_c, 0, 64, 57
1, 116462, Note_on_c, 0, 64, 52
1, 116464, Note_off_c, 0, 71, 62
1, 116473, Control_c, 0, 64, 56
1, 116488, Control_c, 0, 64, 52
1, 116489, Note_off_c, 0, 59, 53
1, 116503, Control_c, 0, 64, 42
1, 116517, Control_c, 0, 64, 28
1, 116532, Control_c, 0, 64, 0
1, 116606, Control_c, 0, 64, 40
1, 116621, Control_c, 0, 64, 56
1, 116643, Control_c, 0, 64, 61
1, 116658, Control_c, 0, 64, 64
1, 116673, Control_c, 0, 64, 65
1, 116688, Control_c, 0, 64, 68
1, 116703, Control_c, 0, 64, 72
1, 116717, Control_c, 0, 64, 76
1, 116732, Control_c, 0, 64, 79
1, 116747, Control_c, 0, 64, 82
1, 116762, Control_c, 0, 64, 84
1, 116776, Control_c, 0, 64, 86
1, 116784, Note_off_c, 0, 64, 52
1, 116791, Control_c, 0, 64, 88
1, 116806, Control_c, 0, 64, 92
1, 116821, Control_c, 0, 64, 96
1, 116836, Control_c, 0, 64, 100
1, 116850, Control_c, 0, 64, 104
1, 116865, Control_c, 0, 64, 106
1, 116880, Control_c, 0, 64, 107
1, 116895, Control_c, 0, 64, 112
1, 116908, Note_on_c, 0, 64, 60
1, 116910, Control_c, 0, 64, 127
1, 116918, Note_on_c, 0, 52, 40
1, 116934, Note_off_c, 0, 76, 37
1, 117067, Note_off_c, 0, 52, 34
1, 117092, Note_off_c, 0, 64, 57
1, 117454, Note_on_c, 0, 71, 47
1, 117461, Note_on_c, 0, 59, 42
1, 117462, Note_on_c, 0, 51, 43
1, 117464, Note_on_c, 0, 54, 44
1, 117481, Control_c, 0, 64, 107
1, 117496, Control_c, 0, 64, 95
1, 117511, Control_c, 0, 64, 85
1, 117526, Control_c, 0, 64, 77
1, 117540, Control_c, 0, 64, 72
1, 117555, Control_c, 0, 64, 69
1, 117570, Control_c, 0, 64, 66
1, 117585, Control_c, 0, 64, 64
1, 117599, Control_c, 0, 64, 63
1, 117614, Control_c, 0, 64, 62
1, 117629, Control_c, 0, 64, 61
1, 117644, Control_c, 0, 64, 61
1, 117673, Control_c, 0, 64, 60
1, 117703, Control_c, 0, 64, 59
1, 117718, Control_c, 0, 64, 59
1, 117762, Control_c, 0, 64, 58
1, 117777, Control_c, 0, 64, 58
1, 117791, Control_c, 0, 64, 57
1, 117806, Control_c, 0, 64, 57
1, 117821, Control_c, 0, 64, 56
1, 117836, Control_c, 0, 64, 55
1, 117851, Control_c, 0, 64, 54
1, 117866, Control_c, 0, 64, 53
1, 117881, Control_c, 0, 64, 53
1, 117896, Control_c, 0, 64, 52
1, 118089, Control_c, 0, 64, 53
1, 118119, Control_c, 0, 64, 53
1, 118141, Note_on_c, 0, 73, 64
1, 118142, Note_off_c, 0, 59, 55
1, 118185, Control_c, 0, 64, 54
1, 118200, Control_c, 0, 64, 54
1, 118241, Note_off_c, 0, 54, 59
1, 118259, Control_c, 0, 64, 55
1, 118288, Note_off_c, 0, 71, 55
1, 118304, Control_c, 0, 64, 55
1, 118356, Note_off_c, 0, 73, 64
1, 118364, Note_on_c, 0, 55, 49
1, 118367, Note_on_c, 0, 52, 38
1, 118367, Note_on_c, 0, 58, 56
1, 118378, Control_c, 0, 64, 56
1, 118393, Note_on_c, 0, 71, 62
1, 118436, Note_off_c, 0, 71, 62
1, 118448, Note_off_c, 0, 51, 41
1, 118465, Note_on_c, 0, 73, 57
1, 118506, Note_off_c, 0, 73, 66
1, 118519, Note_on_c, 0, 75, 54
1, 118563, Note_off_c, 0, 75, 61
1, 118579, Note_on_c, 0, 73, 56
1, 118622, Note_off_c, 0, 73, 65
1, 118638, Note_on_c, 0, 75, 58
1, 118686, Note_off_c, 0, 75, 59
1, 118704, Note_on_c, 0, 73, 55
1, 118734, Control_c, 0, 64, 56
1, 118742, Note_off_c, 0, 73, 65
1, 118751, Note_on_c, 0, 75, 52
1, 118799, Note_off_c, 0, 75, 60
1, 118818, Note_on_c, 0, 73, 53
1, 118826, Note_off_c, 0, 58, 36
1, 118853, Control_c, 0, 64, 57
1, 118869, Note_off_c, 0, 73, 62
1, 118890, Note_on_c, 0, 75, 49
1, 118948, Note_off_c, 0, 75, 62
1, 118978, Note_on_c, 0, 73, 42
1, 119049, Note_on_c, 0, 71, 50
1, 119060, Note_off_c, 0, 73, 61
1, 119117, Note_on_c, 0, 75, 54
1, 119124, Note_off_c, 0, 71, 61
1, 119186, Note_on_c, 0, 73, 57
1, 119204, Note_off_c, 0, 75, 51
1, 119259, Note_on_c, 0, 71, 53
1, 119274, Note_off_c, 0, 73, 54
1, 119291, Note_on_c, 0, 54, 18
1, 119296, Note_on_c, 0, 59, 28
1, 119326, Note_on_c, 0, 51, 40
1, 119378, Note_off_c, 0, 55, 33
1, 119395, Note_off_c, 0, 52, 41
1, 119683, Control_c, 0, 64, 56
1, 119711, Note_off_c, 0, 54, 45
1, 119722, Note_off_c, 0, 71, 44
1, 119723, Note_off_c, 0, 59, 41
1, 119729, Note_off_c, 0, 51, 42
1, 119757, Control_c, 0, 64, 56
1, 120336, Control_c, 0, 64, 56
1, 120936, Control_c, 0, 64, 57
1, 121009, Control_c, 0, 64, 57
1, 121054, Control_c, 0, 64, 58
1, 121070, Note_on_c, 0, 78, 67
1, 121073, Note_on_c, 0, 73, 44
1, 121087, Note_on_c, 0, 69, 43
1, 121374, Control_c, 0, 64, 58
1, 121676, Note_on_c, 0, 80, 80
1, 121765, Note_off_c, 0, 78, 61
1, 121926, Note_on_c, 0, 74, 56
1, 121927, Note_on_c, 0, 71, 53
1, 121945, Note_on_c, 0, 81, 76
1, 121957, Note_on_c, 0, 77, 69
1, 121968, Note_off_c, 0, 80, 64
1, 122005, Note_off_c, 0, 69, 49
1, 122033, Note_on_c, 0, 80, 75
1, 122041, Note_off_c, 0, 81, 65
1, 122108, Note_on_c, 0, 81, 71
1, 122108, Note_off_c, 0, 80, 65
1, 122108, Control_c, 0, 64, 58
1, 122170, Note_on_c, 0, 80, 71
1, 122179, Note_off_c, 0, 81, 63
1, 122228, Note_off_c, 0, 80, 65
1, 122236, Note_on_c, 0, 81, 63
1, 122293, Note_on_c, 0, 80, 65
1, 122313, Note_off_c, 0, 81, 59
1, 122371, Note_off_c, 0, 80, 63
1, 122378, Note_on_c, 0, 81, 57
1, 122379, Note_off_c, 0, 73, 40
1, 122436, Note_on_c, 0, 80, 55
1, 122461, Note_off_c, 0, 81, 63
1, 122507, Note_off_c, 0, 80, 64
1, 122514, Note_on_c, 0, 78, 59
1, 122537, Note_off_c, 0, 77, 46
1, 122585, Note_off_c, 0, 78, 58
1, 122586, Note_on_c, 0, 81, 56
1, 122669, Note_off_c, 0, 81, 57
1, 122670, Note_on_c, 0, 80, 57
1, 122702, Note_off_c, 0, 74, 34
1, 122752, Note_on_c, 0, 78, 49
1, 122752, Note_off_c, 0, 80, 53
1, 122763, Note_on_c, 0, 73, 35
1, 122775, Note_on_c, 0, 69, 30
1, 122863, Note_off_c, 0, 71, 38
1, 123163, Note_off_c, 0, 73, 60
1, 123166, Note_off_c, 0, 69, 57
1, 123170, Note_off_c, 0, 78, 54
1, 124328, Note_on_c, 0, 64, 43
1, 124344, Note_on_c, 0, 59, 34
1, 124346, Note_on_c, 0, 56, 30
1, 124888, Note_on_c, 0, 66, 67
1, 124966, Note_off_c, 0, 64, 54
1, 125114, Note_off_c, 0, 66, 63
1, 125123, Note_on_c, 0, 68, 58
1, 125134, Note_on_c, 0, 60, 34
1, 125135, Note_on_c, 0, 57, 42
1, 125136, Note_on_c, 0, 63, 49
1, 125195, Note_off_c, 0, 68, 61
1, 125202, Note_on_c, 0, 66, 60
1, 125216, Note_off_c, 0, 56, 35
1, 125258, Note_off_c, 0, 66, 61
1, 125270, Note_on_c, 0, 68, 56
1, 125327, Note_off_c, 0, 68, 57
1, 125333, Note_on_c, 0, 66, 55
1, 125357, Note_off_c, 0, 59, 27
1, 125378, Note_off_c, 0, 66, 62
1, 125390, Note_on_c, 0, 68, 51
1, 125461, Note_on_c, 0, 66, 58
1, 125485, Note_off_c, 0, 68, 61
1, 125557, Note_off_c, 0, 66, 63
1, 125572, Note_on_c, 0, 64, 59
1, 125666, Note_off_c, 0, 64, 60
1, 125670, Note_on_c, 0, 68, 57
1, 125701, Control_c, 0, 64, 57
1, 125731, Control_c, 0, 64, 57
1, 125733, Note_on_c, 0, 66, 56
1, 125760, Control_c, 0, 64, 56
1, 125771, Note_off_c, 0, 60, 41
1, 125775, Control_c, 0, 64, 55
1, 125776, Note_off_c, 0, 68, 54
1, 125790, Control_c, 0, 64, 55
1, 125804, Control_c, 0, 64, 54
1, 125817, Note_on_c, 0, 64, 56
1, 125819, Control_c, 0, 64, 52
1, 125831, Note_on_c, 0, 56, 41
1, 125834, Note_on_c, 0, 59, 34
1, 125834, Control_c, 0, 64, 49
1, 125849, Control_c, 0, 64, 46
1, 125852, Note_off_c, 0, 66, 63
1, 125864, Control_c, 0, 64, 44
1, 125916, Note_off_c, 0, 57, 37
1, 125924, Control_c, 0, 64, 45
1, 125939, Control_c, 0, 64, 47
1, 125954, Control_c, 0, 64, 50
1, 125969, Control_c, 0, 64, 54
1, 125983, Control_c, 0, 64, 60
1, 125998, Control_c, 0, 64, 66
1, 125999, Note_off_c, 0, 59, 53
1, 126013, Control_c, 0, 64, 74
1, 126019, Note_off_c, 0, 63, 19
1, 126025, Note_off_c, 0, 56, 64
1, 126028, Control_c, 0, 64, 87
1, 126043, Control_c, 0, 64, 119
1, 126057, Control_c, 0, 64, 127
1, 126317, Note_on_c, 0, 69, 77
1, 126320, Note_on_c, 0, 42, 55
1, 126327, Note_on_c, 0, 61, 60
1, 126340, Note_on_c, 0, 57, 51
1, 126406, Control_c, 0, 64, 106
1, 126421, Control_c, 0, 64, 94
1, 126436, Control_c, 0, 64, 84
1, 126451, Control_c, 0, 64, 77
1, 126466, Control_c, 0, 64, 70
1, 126481, Control_c, 0, 64, 66
1, 126496, Control_c, 0, 64, 63
1, 126507, Note_off_c, 0, 64, 37
1, 126510, Control_c, 0, 64, 59
1, 126525, Control_c, 0, 64, 55
1, 126540, Control_c, 0, 64, 48
1, 126555, Control_c, 0, 64, 40
1, 126570, Control_c, 0, 64, 36
1, 126599, Control_c, 0, 64, 37
1, 126614, Control_c, 0, 64, 45
1, 126628, Control_c, 0, 64, 56
1, 126643, Control_c, 0, 64, 64
1, 126658, Control_c, 0, 64, 69
1, 126673, Control_c, 0, 64, 77
1, 126689, Control_c, 0, 64, 90
1, 126704, Control_c, 0, 64, 109
1, 126719, Control_c, 0, 64, 127
1, 126776, Note_off_c, 0, 61, 58
1, 126788, Note_off_c, 0, 57, 58
1, 127081, Note_on_c, 0, 66, 67
1, 127090, Note_on_c, 0, 45, 41
1, 127104, Control_c, 0, 64, 99
1, 127125, Control_c, 0, 64, 76
1, 127130, Note_on_c, 0, 57, 34
1, 127130, Note_on_c, 0, 61, 38
1, 127140, Control_c, 0, 64, 63
1, 127145, Note_off_c, 0, 69, 58
1, 127155, Control_c, 0, 64, 53
1, 127170, Control_c, 0, 64, 52
1, 127191, Note_off_c, 0, 57, 0
1, 127191, Note_on_c, 0, 57, 8
1, 127199, Control_c, 0, 64, 54
1, 127214, Control_c, 0, 64, 58
1, 127220, Note_off_c, 0, 42, 37
1, 127229, Control_c, 0, 64, 63
1, 127244, Control_c, 0, 64, 68
1, 127259, Control_c, 0, 64, 75
1, 127274, Control_c, 0, 64, 84
1, 127289, Control_c, 0, 64, 94
1, 127304, Control_c, 0, 64, 104
1, 127318, Control_c, 0, 64, 110
1, 127333, Control_c, 0, 64, 121
1, 127348, Control_c, 0, 64, 127
1, 127394, Note_off_c, 0, 57, 43
1, 127427, Note_off_c, 0, 61, 32
1, 127441, Note_off_c, 0, 66, 61
1, 127465, Note_on_c, 0, 68, 58
1, 127630, Control_c, 0, 64, 105
1, 127637, Note_on_c, 0, 59, 36
1, 127638, Note_on_c, 0, 64, 48
1, 127645, Control_c, 0, 64, 91
1, 127649, Note_off_c, 0, 68, 35
1, 127658, Note_on_c, 0, 56, 31
1, 127660, Control_c, 0, 64, 80
1, 127661, Note_on_c, 0, 47, 28
1, 127674, Control_c, 0, 64, 70
1, 127689, Control_c, 0, 64, 64
1, 127704, Control_c, 0, 64, 58
1, 127719, Control_c, 0, 64, 53
1, 127734, Control_c, 0, 64, 47
1, 127748, Control_c, 0, 64, 41
1, 127763, Control_c, 0, 64, 36
1, 127778, Control_c, 0, 64, 35
1, 127821, Note_off_c, 0, 45, 48
1, 127837, Control_c, 0, 64, 36
1, 127852, Control_c, 0, 64, 39
1, 127874, Control_c, 0, 64, 46
1, 127889, Control_c, 0, 64, 54
1, 127904, Control_c, 0, 64, 59
1, 127919, Control_c, 0, 64, 62
1, 127934, Control_c, 0, 64, 64
1, 127948, Control_c, 0, 64, 68
1, 127963, Control_c, 0, 64, 72
1, 127978, Control_c, 0, 64, 78
1, 127993, Control_c, 0, 64, 84
1, 128008, Control_c, 0, 64, 90
1, 128022, Control_c, 0, 64, 96
1, 128037, Control_c, 0, 64, 104
1, 128052, Control_c, 0, 64, 119
1, 128067, Control_c, 0, 64, 127
1, 128143, Note_off_c, 0, 59, 42
1, 128233, Note_off_c, 0, 56, 42
1, 128590, Note_on_c, 0, 63, 31
1, 128603, Note_off_c, 0, 64, 34
1, 128609, Note_on_c, 0, 57, 25
1, 128612, Note_on_c, 0, 35, 22
1, 128612, Note_on_c, 0, 54, 24
1, 128638, Control_c, 0, 64, 111
1, 128653, Control_c, 0, 64, 102
1, 128668, Control_c, 0, 64, 93
1, 128683, Control_c, 0, 64, 84
1, 128697, Control_c, 0, 64, 75
1, 128712, Control_c, 0, 64, 68
1, 128727, Control_c, 0, 64, 62
1, 128742, Control_c, 0, 64, 56
1, 128757, Control_c, 0, 64, 50
1, 128765, Note_off_c, 0, 47, 34
1, 128771, Control_c, 0, 64, 45
1, 128786, Control_c, 0, 64, 42
1, 128801, Control_c, 0, 64, 41
1, 128830, Control_c, 0, 64, 45
1, 128845, Control_c, 0, 64, 51
1, 128860, Control_c, 0, 64, 57
1, 128875, Control_c, 0, 64, 62
1, 128890, Control_c, 0, 64, 65
1, 128904, Control_c, 0, 64, 69
1, 128919, Control_c, 0, 64, 73
1, 128934, Control_c, 0, 64, 80
1, 128949, Control_c, 0, 64, 87
1, 128964, Control_c, 0, 64, 94
1, 128979, Control_c, 0, 64, 103
1, 128994, Control_c, 0, 64, 113
1, 129009, Control_c, 0, 64, 127
1, 129257, Note_off_c, 0, 54, 41
1, 129294, Note_off_c, 0, 57, 43
1, 129304, Note_off_c, 0, 35, 39
1, 129358, Note_off_c, 0, 63, 42
1, 129446, Control_c, 0, 64, 106
1, 129460, Control_c, 0, 64, 97
1, 129475, Control_c, 0, 64, 92
1, 129490, Control_c, 0, 64, 89
1, 129505, Control_c, 0, 64, 88
1, 129520, Control_c, 0, 64, 87
1, 129534, Control_c, 0, 64, 84
1, 129549, Control_c, 0, 64, 81
1, 129564, Control_c, 0, 64, 79
1, 129579, Control_c, 0, 64, 77
1, 129594, Control_c, 0, 64, 76
1, 129608, Control_c, 0, 64, 76
1, 129623, Control_c, 0, 64, 74
1, 129638, Control_c, 0, 64, 71
1, 129652, Control_c, 0, 64, 69
1, 129667, Control_c, 0, 64, 68
1, 129682, Control_c, 0, 64, 67
1, 129697, Control_c, 0, 64, 66
1, 129712, Control_c, 0, 64, 65
1, 129727, Control_c, 0, 64, 64
1, 129742, Control_c, 0, 64, 63
1, 129757, Control_c, 0, 64, 62
1, 129772, Control_c, 0, 64, 61
1, 129787, Control_c, 0, 64, 60
1, 129801, Control_c, 0, 64, 58
1, 129805, Note_on_c, 0, 76, 47
1, 129812, Note_on_c, 0, 71, 43
1, 129816, Control_c, 0, 64, 55
1, 129830, Note_on_c, 0, 68, 36
1, 129831, Control_c, 0, 64, 52
1, 129845, Control_c, 0, 64, 48
1, 129860, Control_c, 0, 64, 41
1, 129876, Control_c, 0, 64, 32
1, 129891, Control_c, 0, 64, 18
1, 129906, Control_c, 0, 64, 0
1, 130055, Control_c, 0, 64, 45
1, 130069, Control_c, 0, 64, 61
1, 130084, Control_c, 0, 64, 68
1, 130099, Control_c, 0, 64, 75
1, 130121, Control_c, 0, 64, 88
1, 130136, Control_c, 0, 64, 116
1, 130150, Control_c, 0, 64, 127
1, 130416, Note_on_c, 0, 78, 76
1, 130481, Note_off_c, 0, 76, 61
1, 130595, Control_c, 0, 64, 108
1, 130610, Control_c, 0, 64, 91
1, 130624, Control_c, 0, 64, 79
1, 130639, Control_c, 0, 64, 70
1, 130647, Note_on_c, 0, 80, 73
1, 130648, Note_on_c, 0, 72, 54
1, 130654, Control_c, 0, 64, 65
1, 130657, Note_off_c, 0, 78, 63
1, 130666, Note_on_c, 0, 69, 45
1, 130670, Control_c, 0, 64, 62
1, 130675, Note_on_c, 0, 75, 58
1, 130685, Control_c, 0, 64, 60
1, 130699, Control_c, 0, 64, 59
1, 130714, Control_c, 0, 64, 57
1, 130729, Note_off_c, 0, 80, 62
1, 130729, Control_c, 0, 64, 55
1, 130732, Note_on_c, 0, 78, 72
1, 130744, Control_c, 0, 64, 54
1, 130759, Control_c, 0, 64, 53
1, 130773, Control_c, 0, 64, 52
1, 130775, Note_off_c, 0, 68, 34
1, 130788, Control_c, 0, 64, 52
1, 130789, Note_off_c, 0, 78, 65
1, 130791, Note_on_c, 0, 80, 67
1, 130803, Control_c, 0, 64, 51
1, 130857, Note_off_c, 0, 80, 64
1, 130857, Note_on_c, 0, 78, 69
1, 130908, Note_off_c, 0, 78, 64
1, 130913, Note_on_c, 0, 80, 67
1, 130982, Note_on_c, 0, 78, 72
1, 130984, Note_off_c, 0, 80, 64
1, 130988, Control_c, 0, 64, 52
1, 131033, Control_c, 0, 64, 52
1, 131036, Note_off_c, 0, 78, 64
1, 131042, Note_on_c, 0, 80, 66
1, 131077, Control_c, 0, 64, 53
1, 131104, Note_on_c, 0, 78, 62
1, 131122, Control_c, 0, 64, 53
1, 131137, Note_off_c, 0, 80, 63
1, 131155, Note_off_c, 0, 71, 39
1, 131178, Note_off_c, 0, 78, 64
1, 131185, Note_on_c, 0, 76, 60
1, 131251, Note_on_c, 0, 80, 62
1, 131262, Note_off_c, 0, 76, 62
1, 131299, Note_off_c, 0, 72, 55
1, 131305, Note_on_c, 0, 78, 61
1, 131314, Control_c, 0, 64, 52
1, 131329, Control_c, 0, 64, 47
1, 131344, Control_c, 0, 64, 32
1, 131352, Note_off_c, 0, 80, 54
1, 131359, Control_c, 0, 64, 0
1, 131375, Note_on_c, 0, 68, 42
1, 131375, Note_on_c, 0, 76, 73
1, 131381, Note_off_c, 0, 78, 64
1, 131398, Note_on_c, 0, 71, 51
1, 131447, Note_off_c, 0, 75, 36
1, 131447, Control_c, 0, 64, 34
1, 131450, Note_off_c, 0, 69, 48
1, 131463, Control_c, 0, 64, 65
1, 131478, Control_c, 0, 64, 81
1, 131493, Control_c, 0, 64, 127
1, 131528, Note_off_c, 0, 71, 64
1, 131572, Note_off_c, 0, 68, 63
1, 131869, Note_on_c, 0, 81, 85
1, 131871, Note_on_c, 0, 73, 68
1, 131876, Note_on_c, 0, 66, 62
1, 131885, Note_on_c, 0, 54, 61
1, 131885, Note_on_c, 0, 69, 70
1, 131904, Note_off_c, 0, 76, 61
1, 131945, Control_c, 0, 64, 93
1, 131960, Control_c, 0, 64, 68
1, 131975, Control_c, 0, 64, 54
1, 131989, Control_c, 0, 64, 35
1, 132004, Control_c, 0, 64, 22
1, 132019, Control_c, 0, 64, 0
1, 132078, Control_c, 0, 64, 48
1, 132093, Control_c, 0, 64, 63
1, 132108, Control_c, 0, 64, 71
1, 132122, Control_c, 0, 64, 83
1, 132137, Control_c, 0, 64, 108
1, 132152, Control_c, 0, 64, 127
1, 132332, Note_off_c, 0, 69, 54
1, 132349, Note_off_c, 0, 73, 63
1, 132410, Note_off_c, 0, 66, 48
1, 132711, Note_on_c, 0, 78, 68
1, 132723, Control_c, 0, 64, 118
1, 132724, Note_on_c, 0, 57, 51
1, 132738, Control_c, 0, 64, 78
1, 132743, Note_on_c, 0, 73, 54
1, 132750, Note_on_c, 0, 69, 39
1, 132752, Note_off_c, 0, 81, 59
1, 132753, Control_c, 0, 64, 62
1, 132767, Control_c, 0, 64, 49
1, 132797, Control_c, 0, 64, 51
1, 132812, Control_c, 0, 64, 55
1, 132827, Control_c, 0, 64, 61
1, 132842, Control_c, 0, 64, 68
1, 132845, Note_off_c, 0, 54, 49
1, 132857, Control_c, 0, 64, 78
1, 132871, Control_c, 0, 64, 98
1, 132886, Control_c, 0, 64, 127
1, 133024, Note_off_c, 0, 69, 42
1, 133027, Note_off_c, 0, 73, 30
1, 133057, Note_off_c, 0, 78, 61
1, 133069, Note_on_c, 0, 80, 58
1, 133217, Note_off_c, 0, 80, 52
1, 133230, Note_on_c, 0, 76, 50
1, 133234, Note_on_c, 0, 59, 42
1, 133237, Note_on_c, 0, 71, 40
1, 133250, Control_c, 0, 64, 104
1, 133265, Control_c, 0, 64, 83
1, 133280, Control_c, 0, 64, 72
1, 133284, Note_on_c, 0, 68, 24
1, 133294, Control_c, 0, 64, 64
1, 133309, Control_c, 0, 64, 58
1, 133324, Control_c, 0, 64, 53
1, 133339, Control_c, 0, 64, 46
1, 133354, Control_c, 0, 64, 36
1, 133355, Note_off_c, 0, 57, 50
1, 133368, Control_c, 0, 64, 26
1, 133383, Control_c, 0, 64, 20
1, 133398, Control_c, 0, 64, 17
1, 133442, Control_c, 0, 64, 18
1, 133457, Control_c, 0, 64, 27
1, 133472, Control_c, 0, 64, 41
1, 133487, Control_c, 0, 64, 54
1, 133501, Control_c, 0, 64, 62
1, 133516, Control_c, 0, 64, 65
1, 133531, Control_c, 0, 64, 70
1, 133546, Control_c, 0, 64, 75
1, 133560, Control_c, 0, 64, 82
1, 133575, Control_c, 0, 64, 88
1, 133590, Control_c, 0, 64, 92
1, 133605, Control_c, 0, 64, 96
1, 133620, Control_c, 0, 64, 101
1, 133635, Control_c, 0, 64, 104
1, 133650, Control_c, 0, 64, 108
1, 133665, Control_c, 0, 64, 112
1, 133680, Control_c, 0, 64, 113
1, 133687, Note_off_c, 0, 71, 43
1, 133724, Control_c, 0, 64, 114
1, 133739, Control_c, 0, 64, 115
1, 133754, Control_c, 0, 64, 117
1, 133768, Control_c, 0, 64, 118
1, 133788, Note_off_c, 0, 68, 42
1, 133939, Control_c, 0, 64, 117
1, 133954, Control_c, 0, 64, 116
1, 133969, Control_c, 0, 64, 115
1, 133984, Control_c, 0, 64, 114
1, 133999, Control_c, 0, 64, 112
1, 134014, Control_c, 0, 64, 111
1, 134028, Control_c, 0, 64, 111
1, 134043, Control_c, 0, 64, 110
1, 134058, Control_c, 0, 64, 110
1, 134088, Control_c, 0, 64, 109
1, 134103, Control_c, 0, 64, 108
1, 134117, Control_c, 0, 64, 107
1, 134125, Note_on_c, 0, 47, 37
1, 134132, Control_c, 0, 64, 107
1, 134144, Note_on_c, 0, 75, 43
1, 134147, Control_c, 0, 64, 105
1, 134148, Note_on_c, 0, 69, 36
1, 134157, Note_on_c, 0, 66, 31
1, 134162, Control_c, 0, 64, 95
1, 134177, Control_c, 0, 64, 78
1, 134191, Control_c, 0, 64, 61
1, 134206, Control_c, 0, 64, 48
1, 134221, Control_c, 0, 64, 48
1, 134236, Control_c, 0, 64, 50
1, 134247, Note_off_c, 0, 59, 30
1, 134250, Note_off_c, 0, 76, 33
1, 134251, Control_c, 0, 64, 56
1, 134265, Control_c, 0, 64, 62
1, 134280, Control_c, 0, 64, 68
1, 134295, Control_c, 0, 64, 79
1, 134309, Control_c, 0, 64, 101
1, 134324, Control_c, 0, 64, 127
1, 134327, Note_off_c, 0, 47, 54
1, 134429, Note_off_c, 0, 69, 43
1, 134452, Note_off_c, 0, 75, 33
1, 134532, Control_c, 0, 64, 92
1, 134547, Control_c, 0, 64, 68
1, 134562, Control_c, 0, 64, 46
1, 134573, Note_off_c, 0, 66, 37
1, 134577, Control_c, 0, 64, 37
1, 134613, Control_c, 0, 64, 38
1, 134620, Note_on_c, 0, 47, 93
1, 134628, Control_c, 0, 64, 50
1, 134642, Control_c, 0, 64, 63
1, 134657, Control_c, 0, 64, 76
1, 134674, Control_c, 0, 64, 104
1, 134688, Control_c, 0, 64, 127
1, 134974, Note_on_c, 0, 43, 73
1, 135007, Note_off_c, 0, 47, 61
1, 135072, Note_on_c, 0, 40, 88
1, 135083, Note_on_c, 0, 71, 92
1, 135101, Note_off_c, 0, 43, 62
1, 135118, Control_c, 0, 64, 98
1, 135133, Control_c, 0, 64, 69
1, 135147, Control_c, 0, 64, 48
1, 135151, Note_on_c, 0, 67, 74
1, 135152, Note_off_c, 0, 71, 60
1, 135162, Control_c, 0, 64, 27
1, 135177, Control_c, 0, 64, 15
1, 135192, Control_c, 0, 64, 0
1, 135227, Note_on_c, 0, 71, 75
1, 135234, Note_off_c, 0, 67, 61
1, 135275, Note_on_c, 0, 67, 58
1, 135279, Note_off_c, 0, 71, 64
1, 135345, Note_on_c, 0, 71, 72
1, 135358, Note_off_c, 0, 67, 64
1, 135409, Note_on_c, 0, 67, 63
1, 135411, Note_off_c, 0, 71, 64
1, 135477, Note_on_c, 0, 71, 69
1, 135486, Note_off_c, 0, 67, 63
1, 135531, Note_on_c, 0, 67, 61
1, 135534, Note_off_c, 0, 71, 64
1, 135603, Note_on_c, 0, 71, 76
1, 135611, Note_off_c, 0, 67, 61
1, 135653, Note_on_c, 0, 67, 58
1, 135657, Note_off_c, 0, 71, 64
1, 135719, Note_on_c, 0, 71, 79
1, 135728, Note_off_c, 0, 67, 64
1, 135748, Control_c, 0, 64, 9
1, 135763, Control_c, 0, 64, 17
1, 135777, Note_off_c, 0, 71, 64
1, 135778, Note_on_c, 0, 67, 72
1, 135778, Control_c, 0, 64, 23
1, 135793, Control_c, 0, 64, 28
1, 135808, Control_c, 0, 64, 33
1, 135823, Control_c, 0, 64, 37
1, 135837, Control_c, 0, 64, 38
1, 135842, Note_on_c, 0, 71, 80
1, 135850, Note_off_c, 0, 67, 64
1, 135852, Control_c, 0, 64, 39
1, 135867, Control_c, 0, 64, 40
1, 135881, Control_c, 0, 64, 40
1, 135895, Note_off_c, 0, 71, 65
1, 135896, Control_c, 0, 64, 41
1, 135897, Note_on_c, 0, 67, 69
1, 135911, Control_c, 0, 64, 41
1, 135926, Control_c, 0, 64, 42
1, 135961, Note_on_c, 0, 71, 82
1, 135967, Note_off_c, 0, 67, 65
1, 135970, Control_c, 0, 64, 42
1, 135985, Control_c, 0, 64, 43
1, 136000, Control_c, 0, 64, 44
1, 136015, Control_c, 0, 64, 44
1, 136016, Note_off_c, 0, 71, 65
1, 136020, Note_on_c, 0, 67, 76
1, 136083, Note_on_c, 0, 71, 79
1, 136088, Control_c, 0, 64, 45
1, 136091, Note_off_c, 0, 67, 64
1, 136103, Control_c, 0, 64, 45
1, 136146, Note_on_c, 0, 67, 72
1, 136148, Note_off_c, 0, 71, 65
1, 136156, Control_c, 0, 64, 46
1, 136185, Control_c, 0, 64, 46
1, 136215, Control_c, 0, 64, 47
1, 136219, Note_on_c, 0, 71, 85
1, 136225, Note_off_c, 0, 67, 65
1, 136230, Control_c, 0, 64, 48
1, 136238, Note_on_c, 0, 43, 81
1, 136244, Control_c, 0, 64, 51
1, 136260, Control_c, 0, 64, 54
1, 136275, Control_c, 0, 64, 58
1, 136277, Note_on_c, 0, 67, 73
1, 136279, Note_off_c, 0, 71, 65
1, 136290, Control_c, 0, 64, 61
1, 136295, Note_off_c, 0, 40, 56
1, 136305, Control_c, 0, 64, 63
1, 136320, Control_c, 0, 64, 65
1, 136334, Control_c, 0, 64, 67
1, 136349, Control_c, 0, 64, 68
1, 136351, Note_on_c, 0, 71, 76
1, 136356, Note_off_c, 0, 67, 65
1, 136364, Control_c, 0, 64, 70
1, 136379, Control_c, 0, 64, 71
1, 136393, Control_c, 0, 64, 72
1, 136407, Note_on_c, 0, 67, 70
1, 136407, Note_off_c, 0, 71, 64
1, 136408, Control_c, 0, 64, 74
1, 136423, Control_c, 0, 64, 74
1, 136482, Note_off_c, 0, 67, 64
1, 136483, Note_on_c, 0, 71, 75
1, 136526, Control_c, 0, 64, 74
1, 136530, Note_on_c, 0, 47, 77
1, 136544, Note_off_c, 0, 43, 62
1, 136546, Note_on_c, 0, 67, 73
1, 136547, Note_off_c, 0, 71, 63
1, 136556, Control_c, 0, 64, 73
1, 136571, Control_c, 0, 64, 70
1, 136586, Control_c, 0, 64, 65
1, 136601, Control_c, 0, 64, 56
1, 136616, Control_c, 0, 64, 40
1, 136617, Note_on_c, 0, 71, 79
1, 136620, Note_off_c, 0, 67, 65
1, 136622, Note_on_c, 0, 52, 91
1, 136631, Control_c, 0, 64, 35
1, 136646, Control_c, 0, 64, 34
1, 136651, Note_off_c, 0, 47, 60
1, 136658, Control_c, 0, 64, 35
1, 136673, Control_c, 0, 64, 42
1, 136676, Note_off_c, 0, 71, 65
1, 136682, Note_on_c, 0, 67, 72
1, 136688, Control_c, 0, 64, 54
1, 136702, Control_c, 0, 64, 63
1, 136717, Control_c, 0, 64, 67
1, 136732, Control_c, 0, 64, 71
1, 136746, Note_on_c, 0, 71, 78
1, 136747, Control_c, 0, 64, 75
1, 136751, Note_off_c, 0, 67, 65
1, 136762, Control_c, 0, 64, 78
1, 136777, Control_c, 0, 64, 80
1, 136792, Control_c, 0, 64, 80
1, 136802, Note_off_c, 0, 71, 65
1, 136804, Note_on_c, 0, 67, 73
1, 136822, Control_c, 0, 64, 81
1, 136836, Control_c, 0, 64, 83
1, 136851, Control_c, 0, 64, 85
1, 136873, Control_c, 0, 64, 88
1, 136881, Note_on_c, 0, 71, 82
1, 136888, Control_c, 0, 64, 91
1, 136890, Note_off_c, 0, 67, 64
1, 136938, Note_on_c, 0, 67, 65
1, 136940, Note_off_c, 0, 71, 62
1, 136962, Control_c, 0, 64, 91
1, 136991, Control_c, 0, 64, 92
1, 137006, Control_c, 0, 64, 91
1, 137007, Note_on_c, 0, 71, 76
1, 137020, Note_on_c, 0, 55, 85
1, 137020, Note_off_c, 0, 67, 63
1, 137021, Control_c, 0, 64, 85
1, 137036, Control_c, 0, 64, 73
1, 137050, Note_off_c, 0, 52, 56
1, 137051, Control_c, 0, 64, 62
1, 137067, Control_c, 0, 64, 48
1, 137069, Note_on_c, 0, 67, 63
1, 137070, Note_off_c, 0, 71, 62
1, 137081, Control_c, 0, 64, 44
1, 137096, Control_c, 0, 64, 41
1, 137111, Control_c, 0, 64, 38
1, 137126, Control_c, 0, 64, 37
1, 137140, Note_on_c, 0, 71, 72
1, 137140, Control_c, 0, 64, 37
1, 137149, Note_off_c, 0, 67, 64
1, 137155, Control_c, 0, 64, 39
1, 137170, Control_c, 0, 64, 47
1, 137185, Control_c, 0, 64, 56
1, 137197, Note_off_c, 0, 71, 64
1, 137199, Note_on_c, 0, 67, 67
1, 137200, Control_c, 0, 64, 63
1, 137215, Control_c, 0, 64, 67
1, 137230, Control_c, 0, 64, 72
1, 137245, Control_c, 0, 64, 78
1, 137260, Control_c, 0, 64, 83
1, 137265, Note_on_c, 0, 71, 74
1, 137269, Note_off_c, 0, 67, 64
1, 137275, Control_c, 0, 64, 85
1, 137289, Control_c, 0, 64, 85
1, 137320, Note_off_c, 0, 71, 64
1, 137323, Note_on_c, 0, 67, 74
1, 137335, Note_on_c, 0, 59, 77
1, 137345, Note_off_c, 0, 55, 58
1, 137391, Note_on_c, 0, 71, 75
1, 137397, Note_off_c, 0, 67, 64
1, 137422, Control_c, 0, 64, 84
1, 137426, Note_on_c, 0, 64, 93
1, 137437, Control_c, 0, 64, 77
1, 137448, Note_off_c, 0, 71, 64
1, 137449, Note_on_c, 0, 67, 67
1, 137452, Control_c, 0, 64, 65
1, 137456, Note_off_c, 0, 59, 54
1, 137467, Control_c, 0, 64, 51
1, 137481, Control_c, 0, 64, 43
1, 137520, Note_on_c, 0, 71, 72
1, 137523, Note_off_c, 0, 67, 64
1, 137525, Control_c, 0, 64, 48
1, 137540, Control_c, 0, 64, 59
1, 137555, Control_c, 0, 64, 65
1, 137570, Control_c, 0, 64, 72
1, 137579, Note_off_c, 0, 71, 64
1, 137583, Note_on_c, 0, 67, 73
1, 137585, Control_c, 0, 64, 82
1, 137607, Control_c, 0, 64, 94
1, 137622, Control_c, 0, 64, 106
1, 137637, Control_c, 0, 64, 112
1, 137652, Control_c, 0, 64, 115
1, 137656, Note_on_c, 0, 71, 78
1, 137662, Note_off_c, 0, 67, 64
1, 137667, Control_c, 0, 64, 123
1, 137681, Control_c, 0, 64, 127
1, 137713, Note_off_c, 0, 71, 64
1, 137714, Note_on_c, 0, 67, 73
1, 137736, Note_off_c, 0, 64, 59
1, 137779, Note_on_c, 0, 71, 76
1, 137784, Note_off_c, 0, 67, 64
1, 137820, Note_on_c, 0, 64, 93
1, 137829, Control_c, 0, 64, 92
1, 137833, Note_off_c, 0, 71, 64
1, 137835, Note_on_c, 0, 67, 73
1, 137844, Control_c, 0, 64, 69
1, 137860, Control_c, 0, 64, 57
1, 137875, Control_c, 0, 64, 52
1, 137890, Control_c, 0, 64, 53
1, 137900, Note_on_c, 0, 71, 76
1, 137905, Control_c, 0, 64, 56
1, 137906, Note_off_c, 0, 67, 65
1, 137919, Control_c, 0, 64, 62
1, 137934, Control_c, 0, 64, 68
1, 137949, Control_c, 0, 64, 81
1, 137957, Note_off_c, 0, 71, 64
1, 137960, Note_on_c, 0, 67, 76
1, 137963, Control_c, 0, 64, 113
1, 137978, Control_c, 0, 64, 127
1, 138018, Note_on_c, 0, 71, 67
1, 138029, Note_off_c, 0, 67, 58
1, 138065, Note_on_c, 0, 67, 62
1, 138070, Note_off_c, 0, 71, 64
1, 138112, Note_on_c, 0, 71, 54
1, 138127, Note_off_c, 0, 67, 62
1, 138157, Note_off_c, 0, 64, 55
1, 138166, Note_off_c, 0, 71, 63
1, 138170, Note_on_c, 0, 67, 65
1, 138214, Note_off_c, 0, 67, 60
1, 138229, Note_on_c, 0, 65, 93
1, 138231, Control_c, 0, 64, 88
1, 138246, Control_c, 0, 64, 64
1, 138261, Control_c, 0, 64, 38
1, 138276, Control_c, 0, 64, 16
1, 138291, Control_c, 0, 64, 0
1, 138335, Control_c, 0, 64, 36
1, 138346, Note_on_c, 0, 67, 75
1, 138357, Control_c, 0, 64, 60
1, 138372, Control_c, 0, 64, 70
1, 138378, Note_off_c, 0, 65, 57
1, 138387, Control_c, 0, 64, 94
1, 138401, Control_c, 0, 64, 127
1, 138417, Note_off_c, 0, 67, 63
1, 138424, Note_on_c, 0, 71, 73
1, 138494, Note_off_c, 0, 71, 64
1, 138500, Note_on_c, 0, 67, 69
1, 138565, Note_on_c, 0, 65, 68
1, 138578, Note_off_c, 0, 67, 61
1, 138643, Note_on_c, 0, 62, 69
1, 138650, Note_off_c, 0, 65, 63
1, 138708, Note_on_c, 0, 65, 66
1, 138717, Note_off_c, 0, 62, 63
1, 138760, Note_off_c, 0, 65, 63
1, 138781, Note_on_c, 0, 67, 65
1, 138850, Note_off_c, 0, 67, 63
1, 138858, Note_on_c, 0, 65, 71
1, 138912, Note_on_c, 0, 62, 63
1, 138915, Note_off_c, 0, 65, 63
1, 138986, Note_off_c, 0, 62, 63
1, 138987, Note_on_c, 0, 59, 71
1, 139045, Note_on_c, 0, 62, 63
1, 139055, Note_off_c, 0, 59, 61
1, 139105, Note_off_c, 0, 62, 63
1, 139116, Note_on_c, 0, 65, 72
1, 139191, Note_off_c, 0, 65, 62
1, 139202, Note_on_c, 0, 62, 69
1, 139260, Note_off_c, 0, 62, 63
1, 139266, Note_on_c, 0, 59, 65
1, 139339, Note_off_c, 0, 59, 62
1, 139353, Note_on_c, 0, 55, 64
1, 139371, Note_on_c, 0, 71, 86
1, 139414, Note_on_c, 0, 59, 63
1, 139421, Note_off_c, 0, 55, 60
1, 139475, Note_off_c, 0, 59, 63
1, 139492, Note_on_c, 0, 62, 66
1, 139573, Note_off_c, 0, 62, 62
1, 139582, Note_on_c, 0, 59, 72
1, 139651, Note_off_c, 0, 59, 63
1, 139655, Note_on_c, 0, 74, 84
1, 139657, Note_on_c, 0, 55, 70
1, 139676, Note_off_c, 0, 71, 61
1, 139725, Note_on_c, 0, 53, 80
1, 139728, Control_c, 0, 64, 116
1, 139734, Note_off_c, 0, 55, 62
1, 139734, Note_on_c, 0, 79, 94
1, 139743, Control_c, 0, 64, 74
1, 139754, Note_off_c, 0, 74, 66
1, 139758, Control_c, 0, 64, 59
1, 139773, Control_c, 0, 64, 50
1, 139783, Note_on_c, 0, 55, 64
1, 139788, Control_c, 0, 64, 52
1, 139802, Control_c, 0, 64, 57
1, 139815, Note_off_c, 0, 53, 63
1, 139817, Control_c, 0, 64, 64
1, 139832, Control_c, 0, 64, 75
1, 139847, Control_c, 0, 64, 116
1, 139868, Note_off_c, 0, 55, 63
1, 139869, Control_c, 0, 64, 127
1, 139875, Note_on_c, 0, 59, 75
1, 139945, Note_on_c, 0, 55, 76
1, 139946, Note_off_c, 0, 59, 64
1, 140025, Note_on_c, 0, 53, 68
1, 140043, Note_off_c, 0, 55, 60
1, 140094, Note_on_c, 0, 50, 74
1, 140098, Note_off_c, 0, 53, 63
1, 140121, Note_on_c, 0, 83, 99
1, 140151, Note_on_c, 0, 53, 68
1, 140171, Note_off_c, 0, 50, 62
1, 140228, Note_off_c, 0, 53, 62
1, 140232, Note_on_c, 0, 55, 79
1, 140244, Note_off_c, 0, 79, 38
1, 140301, Note_on_c, 0, 53, 74
1, 140304, Note_off_c, 0, 55, 64
1, 140379, Note_on_c, 0, 50, 68
1, 140387, Note_off_c, 0, 53, 63
1, 140414, Note_on_c, 0, 86, 91
1, 140442, Note_off_c, 0, 83, 62
1, 140458, Note_on_c, 0, 47, 74
1, 140458, Note_off_c, 0, 50, 64
1, 140495, Note_on_c, 0, 91, 102
1, 140496, Note_on_c, 0, 79, 90
1, 140509, Note_off_c, 0, 86, 59
1, 140525, Note_on_c, 0, 50, 72
1, 140544, Note_off_c, 0, 47, 60
1, 140612, Note_off_c, 0, 50, 63
1, 140625, Note_on_c, 0, 53, 77
1, 140690, Note_off_c, 0, 53, 64
1, 140692, Note_on_c, 0, 50, 79
1, 140764, Note_on_c, 0, 47, 75
1, 140769, Note_off_c, 0, 50, 64
1, 140826, Note_off_c, 0, 91, 58
1, 140828, Note_on_c, 0, 43, 78
1, 140829, Note_off_c, 0, 47, 63
1, 140857, Note_off_c, 0, 79, 62
1, 140896, Note_off_c, 0, 43, 65
1, 140914, Note_on_c, 0, 41, 87
1, 140921, Note_on_c, 0, 91, 108
1, 140922, Note_on_c, 0, 79, 92
1, 140964, Note_on_c, 0, 90, 41
1, 140981, Note_on_c, 0, 43, 82
1, 140995, Note_off_c, 0, 41, 65
1, 141018, Note_off_c, 0, 90, 39
1, 141065, Note_off_c, 0, 43, 62
1, 141066, Note_on_c, 0, 47, 83
1, 141135, Note_on_c, 0, 43, 76
1, 141141, Note_off_c, 0, 91, 58
1, 141153, Note_off_c, 0, 47, 62
1, 141167, Note_off_c, 0, 79, 60
1, 141203, Note_on_c, 0, 41, 80
1, 141224, Note_off_c, 0, 43, 63
1, 141278, Note_on_c, 0, 38, 74
1, 141301, Note_off_c, 0, 41, 63
1, 141427, Note_off_c, 0, 38, 61
1, 141439, Note_on_c, 0, 36, 89
1, 141446, Note_on_c, 0, 79, 98
1, 141447, Note_on_c, 0, 91, 105
1, 141485, Control_c, 0, 64, 92
1, 141500, Control_c, 0, 64, 62
1, 141515, Control_c, 0, 64, 0
1, 141549, Note_on_c, 0, 87, 83
1, 141566, Note_off_c, 0, 91, 63
1, 141603, Control_c, 0, 64, 56
1, 141618, Control_c, 0, 64, 72
1, 141633, Control_c, 0, 64, 127
1, 141634, Note_on_c, 0, 91, 89
1, 141645, Note_off_c, 0, 87, 64
1, 141672, Note_off_c, 0, 79, 58
1, 141697, Note_on_c, 0, 87, 79
1, 141731, Note_off_c, 0, 91, 62
1, 141760, Note_on_c, 0, 84, 85
1, 141802, Note_off_c, 0, 87, 63
1, 141821, Note_on_c, 0, 79, 84
1, 141844, Note_off_c, 0, 84, 64
1, 141895, Note_on_c, 0, 84, 80
1, 141925, Note_off_c, 0, 79, 64
1, 141974, Note_on_c, 0, 87, 82
1, 141974, Note_off_c, 0, 84, 65
1, 142040, Note_on_c, 0, 84, 80
1, 142056, Note_off_c, 0, 87, 63
1, 142104, Note_off_c, 0, 84, 64
1, 142105, Note_on_c, 0, 79, 79
1, 142191, Note_on_c, 0, 75, 87
1, 142204, Note_off_c, 0, 79, 50
1, 142253, Note_on_c, 0, 79, 61
1, 142283, Note_off_c, 0, 75, 60
1, 142323, Note_on_c, 0, 84, 84
1, 142330, Note_off_c, 0, 79, 66
1, 142389, Note_on_c, 0, 79, 71
1, 142411, Note_off_c, 0, 84, 57
1, 142470, Note_on_c, 0, 75, 80
1, 142510, Note_off_c, 0, 79, 60
1, 142547, Note_on_c, 0, 39, 83
1, 142563, Note_on_c, 0, 72, 75
1, 142566, Note_off_c, 0, 75, 61
1, 142590, Control_c, 0, 64, 92
1, 142604, Control_c, 0, 64, 67
1, 142613, Note_off_c, 0, 36, 42
1, 142619, Control_c, 0, 64, 51
1, 142634, Control_c, 0, 64, 47
1, 142650, Control_c, 0, 64, 48
1, 142658, Note_on_c, 0, 75, 73
1, 142662, Note_off_c, 0, 72, 62
1, 142665, Control_c, 0, 64, 53
1, 142680, Control_c, 0, 64, 61
1, 142694, Control_c, 0, 64, 69
1, 142709, Control_c, 0, 64, 83
1, 142724, Control_c, 0, 64, 127
1, 142731, Note_off_c, 0, 75, 62
1, 142732, Note_on_c, 0, 79, 74
1, 142786, Note_on_c, 0, 75, 67
1, 142858, Note_on_c, 0, 43, 78
1, 142867, Note_on_c, 0, 72, 75
1, 142870, Note_off_c, 0, 79, 36
1, 142897, Note_off_c, 0, 39, 58
1, 142901, Note_off_c, 0, 75, 59
1, 142909, Control_c, 0, 64, 101
1, 142924, Control_c, 0, 64, 70
1, 142939, Control_c, 0, 64, 54
1, 142940, Note_on_c, 0, 67, 74
1, 142941, Note_off_c, 0, 72, 64
1, 142948, Note_on_c, 0, 48, 83
1, 142953, Control_c, 0, 64, 45
1, 142964, Note_off_c, 0, 43, 62
1, 142968, Control_c, 0, 64, 46
1, 142983, Control_c, 0, 64, 51
1, 142998, Control_c, 0, 64, 60
1, 143013, Control_c, 0, 64, 68
1, 143016, Note_on_c, 0, 72, 66
1, 143026, Note_off_c, 0, 67, 61
1, 143028, Control_c, 0, 64, 82
1, 143043, Control_c, 0, 64, 127
1, 143081, Note_on_c, 0, 75, 76
1, 143082, Note_off_c, 0, 72, 65
1, 143149, Note_on_c, 0, 72, 74
1, 143176, Note_off_c, 0, 75, 61
1, 143205, Note_off_c, 0, 72, 65
1, 143213, Note_on_c, 0, 67, 76
1, 143290, Note_on_c, 0, 51, 92
1, 143306, Note_on_c, 0, 63, 77
1, 143307, Note_off_c, 0, 67, 60
1, 143309, Control_c, 0, 64, 75
1, 143324, Control_c, 0, 64, 58
1, 143335, Note_off_c, 0, 48, 61
1, 143339, Control_c, 0, 64, 42
1, 143382, Note_off_c, 0, 63, 64
1, 143383, Control_c, 0, 64, 47
1, 143390, Note_on_c, 0, 67, 62
1, 143398, Control_c, 0, 64, 59
1, 143413, Control_c, 0, 64, 69
1, 143427, Control_c, 0, 64, 82
1, 143431, Note_on_c, 0, 72, 76
1, 143442, Control_c, 0, 64, 127
1, 143452, Note_off_c, 0, 67, 63
1, 143510, Note_on_c, 0, 67, 73
1, 143530, Note_off_c, 0, 72, 63
1, 143554, Note_on_c, 0, 55, 78
1, 143593, Note_off_c, 0, 67, 62
1, 143594, Note_off_c, 0, 51, 62
1, 143605, Note_on_c, 0, 63, 74
1, 143636, Note_off_c, 0, 63, 65
1, 143662, Note_on_c, 0, 60, 90
1, 143672, Note_off_c, 0, 55, 63
1, 143673, Control_c, 0, 64, 94
1, 143688, Control_c, 0, 64, 65
1, 143693, Note_on_c, 0, 63, 75
1, 143703, Control_c, 0, 64, 48
1, 143718, Control_c, 0, 64, 44
1, 143732, Control_c, 0, 64, 45
1, 143747, Control_c, 0, 64, 51
1, 143762, Control_c, 0, 64, 60
1, 143764, Note_off_c, 0, 63, 61
1, 143766, Note_on_c, 0, 67, 60
1, 143776, Control_c, 0, 64, 68
1, 143791, Control_c, 0, 64, 85
1, 143806, Control_c, 0, 64, 127
1, 143836, Note_on_c, 0, 72, 77
1, 143849, Note_off_c, 0, 67, 63
1, 143902, Note_on_c, 0, 67, 66
1, 143921, Note_off_c, 0, 72, 62
1, 143961, Note_off_c, 0, 60, 62
1, 143964, Note_on_c, 0, 63, 78
1, 143975, Note_off_c, 0, 67, 59
1, 144005, Note_off_c, 0, 63, 60
1, 144043, Poly_aftertouch_c, 0, 63, 0
1, 144044, Control_c, 0, 64, 108
1, 144046, Note_on_c, 0, 60, 94
1, 144049, Note_on_c, 0, 63, 73
1, 144058, Control_c, 0, 64, 69
1, 144073, Control_c, 0, 64, 49
1, 144088, Control_c, 0, 64, 37
1, 144117, Control_c, 0, 64, 44
1, 144130, Note_on_c, 0, 67, 66
1, 144130, Note_off_c, 0, 63, 62
1, 144132, Control_c, 0, 64, 57
1, 144146, Control_c, 0, 64, 68
1, 144161, Control_c, 0, 64, 86
1, 144175, Control_c, 0, 64, 127
1, 144192, Note_on_c, 0, 72, 72
1, 144205, Note_off_c, 0, 67, 63
1, 144260, Note_on_c, 0, 67, 68
1, 144302, Note_off_c, 0, 72, 61
1, 144321, Note_off_c, 0, 60, 54
1, 144322, Note_on_c, 0, 63, 76
1, 144357, Note_off_c, 0, 67, 60
1, 144398, Note_off_c, 0, 63, 62
1, 144459, Note_on_c, 0, 61, 91
1, 144495, Control_c, 0, 64, 79
1, 144510, Control_c, 0, 64, 58
1, 144525, Control_c, 0, 64, 0
1, 144584, Note_on_c, 0, 63, 64
1, 144584, Control_c, 0, 64, 40
1, 144599, Control_c, 0, 64, 62
1, 144614, Control_c, 0, 64, 76
1, 144619, Note_off_c, 0, 61, 54
1, 144629, Control_c, 0, 64, 127
1, 144679, Note_off_c, 0, 63, 63
1, 144691, Note_on_c, 0, 67, 63
1, 144755, Note_on_c, 0, 63, 63
1, 144764, Note_off_c, 0, 67, 62
1, 144823, Note_on_c, 0, 61, 64
1, 144835, Note_off_c, 0, 63, 59
1, 144885, Note_on_c, 0, 58, 68
1, 144912, Note_off_c, 0, 61, 52
1, 144948, Note_on_c, 0, 61, 51
1, 144959, Note_off_c, 0, 58, 61
1, 145017, Note_off_c, 0, 61, 61
1, 145032, Note_on_c, 0, 63, 69
1, 145088, Note_off_c, 0, 63, 61
1, 145105, Note_on_c, 0, 61, 68
1, 145174, Note_on_c, 0, 58, 70
1, 145175, Note_off_c, 0, 61, 62
1, 145239, Note_off_c, 0, 58, 63
1, 145241, Note_on_c, 0, 55, 72
1, 145305, Note_on_c, 0, 58, 71
1, 145311, Note_off_c, 0, 55, 63
1, 145362, Note_off_c, 0, 58, 62
1, 145379, Note_on_c, 0, 61, 72
1, 145439, Note_off_c, 0, 61, 61
1, 145457, Note_on_c, 0, 58, 71
1, 145517, Note_off_c, 0, 58, 63
1, 145530, Note_on_c, 0, 55, 68
1, 145588, Note_off_c, 0, 55, 62
1, 145600, Note_on_c, 0, 51, 73
1, 145612, Note_on_c, 0, 67, 83
1, 145675, Note_on_c, 0, 55, 68
1, 145679, Note_off_c, 0, 51, 58
1, 145741, Note_off_c, 0, 55, 64
1, 145750, Note_on_c, 0, 58, 71
1, 145833, Note_off_c, 0, 58, 62
1, 145848, Note_on_c, 0, 55, 76
1, 145898, Note_on_c, 0, 70, 85
1, 145924, Note_off_c, 0, 55, 64
1, 145928, Note_on_c, 0, 51, 73
1, 145946, Note_off_c, 0, 67, 59
1, 145975, Note_on_c, 0, 75, 94
1, 145977, Note_on_c, 0, 49, 67
1, 145979, Control_c, 0, 64, 75
1, 145986, Note_off_c, 0, 51, 63
1, 145990, Note_off_c, 0, 70, 66
1, 145994, Control_c, 0, 64, 58
1, 146009, Control_c, 0, 64, 46
1, 146024, Control_c, 0, 64, 47
1, 146038, Control_c, 0, 64, 53
1, 146053, Control_c, 0, 64, 62
1, 146060, Note_on_c, 0, 51, 72
1, 146068, Control_c, 0, 64, 70
1, 146083, Control_c, 0, 64, 92
1, 146083, Note_off_c, 0, 49, 61
1, 146098, Control_c, 0, 64, 127
1, 146131, Note_off_c, 0, 51, 64
1, 146136, Note_on_c, 0, 55, 75
1, 146202, Note_on_c, 0, 51, 73
1, 146206, Note_off_c, 0, 55, 63
1, 146265, Note_on_c, 0, 49, 71
1, 146282, Note_off_c, 0, 51, 62
1, 146322, Note_on_c, 0, 79, 90
1, 146323, Note_on_c, 0, 46, 78
1, 146332, Note_off_c, 0, 49, 64
1, 146360, Note_off_c, 0, 75, 56
1, 146439, Note_off_c, 0, 46, 62
1, 146447, Note_on_c, 0, 51, 84
1, 146457, Note_on_c, 0, 49, 36
1, 146489, Note_off_c, 0, 49, 47
1, 146544, Note_on_c, 0, 49, 73
1, 146558, Note_off_c, 0, 51, 64
1, 146603, Note_on_c, 0, 82, 90
1, 146620, Note_on_c, 0, 46, 65
1, 146621, Note_off_c, 0, 49, 64
1, 146635, Note_off_c, 0, 79, 61
1, 146691, Note_on_c, 0, 43, 75
1, 146691, Note_on_c, 0, 87, 101
1, 146694, Note_off_c, 0, 46, 63
1, 146698, Note_on_c, 0, 75, 87
1, 146701, Note_off_c, 0, 82, 63
1, 146774, Note_on_c, 0, 46, 71
1, 146784, Note_off_c, 0, 43, 62
1, 146821, Note_on_c, 0, 49, 79
1, 146825, Note_off_c, 0, 46, 64
1, 146893, Note_on_c, 0, 46, 78
1, 146903, Note_off_c, 0, 49, 64
1, 146940, Note_off_c, 0, 46, 63
1, 146966, Note_on_c, 0, 43, 84
1, 147019, Note_off_c, 0, 75, 59
1, 147036, Note_off_c, 0, 87, 60
1, 147044, Note_on_c, 0, 39, 80
1, 147047, Note_off_c, 0, 43, 60
1, 147088, Note_on_c, 0, 87, 109
1, 147090, Note_on_c, 0, 75, 97
1, 147103, Note_on_c, 0, 37, 80
1, 147126, Note_off_c, 0, 39, 62
1, 147183, Note_on_c, 0, 39, 69
1, 147200, Note_off_c, 0, 37, 59
1, 147219, Note_off_c, 0, 75, 62
1, 147222, Note_on_c, 0, 43, 82
1, 147240, Note_off_c, 0, 39, 62
1, 147292, Note_on_c, 0, 39, 69
1, 147296, Note_off_c, 0, 87, 61
1, 147315, Note_off_c, 0, 43, 63
1, 147357, Note_on_c, 0, 37, 78
1, 147377, Note_off_c, 0, 39, 62
1, 147428, Note_on_c, 0, 34, 77
1, 147431, Note_off_c, 0, 37, 61
1, 147557, Note_off_c, 0, 34, 60
1, 147571, Note_on_c, 0, 32, 96
1, 147595, Note_on_c, 0, 87, 78
1, 147603, Note_on_c, 0, 40, 53
1, 147604, Note_on_c, 0, 86, 89
1, 147621, Note_on_c, 0, 35, 25
1, 147623, Control_c, 0, 64, 97
1, 147631, Note_off_c, 0, 87, 0
1, 147631, Note_on_c, 0, 87, 27
1, 147633, Note_off_c, 0, 40, 56
1, 147638, Control_c, 0, 64, 65
1, 147653, Control_c, 0, 64, 0
1, 147654, Note_off_c, 0, 35, 46
1, 147680, Note_on_c, 0, 92, 82
1, 147684, Note_off_c, 0, 87, 54
1, 147695, Note_off_c, 0, 86, 61
1, 147697, Note_on_c, 0, 90, 61
1, 147712, Control_c, 0, 64, 17
1, 147716, Note_off_c, 0, 90, 59
1, 147727, Control_c, 0, 64, 57
1, 147742, Control_c, 0, 64, 70
1, 147757, Control_c, 0, 64, 90
1, 147761, Note_on_c, 0, 96, 76
1, 147771, Control_c, 0, 64, 127
1, 147778, Note_off_c, 0, 92, 0
1, 147815, Poly_aftertouch_c, 0, 92, 127
1, 147867, Note_off_c, 0, 96, 50
1, 147871, Note_on_c, 0, 87, 89
1, 147911, Poly_aftertouch_c, 0, 92, 0
1, 147936, Note_on_c, 0, 84, 82
1, 147943, Note_off_c, 0, 87, 65
1, 148016, Note_on_c, 0, 87, 87
1, 148030, Note_off_c, 0, 84, 62
1, 148075, Note_on_c, 0, 92, 86
1, 148098, Note_off_c, 0, 87, 63
1, 148143, Note_on_c, 0, 87, 78
1, 148168, Note_off_c, 0, 92, 66
1, 148201, Note_on_c, 0, 84, 90
1, 148233, Note_off_c, 0, 87, 62
1, 148257, Note_on_c, 0, 80, 83
1, 148258, Note_off_c, 0, 84, 65
1, 148333, Note_on_c, 0, 84, 84
1, 148344, Note_off_c, 0, 80, 64
1, 148373, Note_on_c, 0, 82, 27
1, 148403, Note_on_c, 0, 87, 87
1, 148405, Note_off_c, 0, 84, 65
1, 148407, Note_off_c, 0, 82, 53
1, 148468, Note_on_c, 0, 84, 83
1, 148501, Note_off_c, 0, 87, 64
1, 148538, Note_on_c, 0, 80, 85
1, 148554, Note_off_c, 0, 84, 59
1, 148587, Note_on_c, 0, 36, 87
1, 148599, Note_on_c, 0, 75, 88
1, 148607, Note_off_c, 0, 80, 63
1, 148624, Control_c, 0, 64, 73
1, 148632, Note_off_c, 0, 32, 58
1, 148638, Control_c, 0, 64, 56
1, 148653, Control_c, 0, 64, 46
1, 148668, Control_c, 0, 64, 49
1, 148673, Note_on_c, 0, 80, 75
1, 148683, Control_c, 0, 64, 56
1, 148689, Note_off_c, 0, 75, 61
1, 148698, Control_c, 0, 64, 63
1, 148712, Control_c, 0, 64, 75
1, 148727, Control_c, 0, 64, 110
1, 148742, Control_c, 0, 64, 127
1, 148746, Note_on_c, 0, 84, 80
1, 148758, Note_off_c, 0, 80, 62
1, 148811, Note_on_c, 0, 80, 75
1, 148841, Note_off_c, 0, 84, 59
1, 148892, Note_on_c, 0, 39, 86
1, 148897, Note_on_c, 0, 75, 86
1, 148914, Note_off_c, 0, 36, 61
1, 148939, Note_off_c, 0, 80, 63
1, 148942, Control_c, 0, 64, 97
1, 148957, Control_c, 0, 64, 68
1, 148964, Note_on_c, 0, 72, 85
1, 148968, Note_off_c, 0, 75, 62
1, 148972, Control_c, 0, 64, 51
1, 148974, Note_on_c, 0, 44, 88
1, 148987, Control_c, 0, 64, 46
1, 149001, Control_c, 0, 64, 50
1, 149006, Note_off_c, 0, 39, 60
1, 149016, Control_c, 0, 64, 57
1, 149031, Control_c, 0, 64, 65
1, 149044, Note_on_c, 0, 75, 77
1, 149047, Control_c, 0, 64, 76
1, 149056, Note_off_c, 0, 72, 65
1, 149062, Control_c, 0, 64, 117
1, 149076, Control_c, 0, 64, 127
1, 149100, Note_on_c, 0, 80, 77
1, 149115, Note_off_c, 0, 75, 61
1, 149157, Note_on_c, 0, 75, 75
1, 149186, Note_off_c, 0, 80, 64
1, 149232, Note_on_c, 0, 72, 81
1, 149264, Note_off_c, 0, 75, 59
1, 149289, Note_off_c, 0, 72, 64
1, 149294, Note_on_c, 0, 68, 79
1, 149299, Control_c, 0, 64, 82
1, 149314, Control_c, 0, 64, 64
1, 149316, Note_on_c, 0, 48, 90
1, 149329, Control_c, 0, 64, 55
1, 149339, Note_off_c, 0, 44, 55
1, 149343, Control_c, 0, 64, 56
1, 149358, Control_c, 0, 64, 57
1, 149368, Note_on_c, 0, 72, 76
1, 149372, Note_off_c, 0, 68, 61
1, 149373, Control_c, 0, 64, 62
1, 149388, Control_c, 0, 64, 69
1, 149403, Control_c, 0, 64, 83
1, 149418, Control_c, 0, 64, 127
1, 149451, Note_on_c, 0, 75, 80
1, 149455, Note_off_c, 0, 72, 63
1, 149516, Note_on_c, 0, 72, 73
1, 149532, Note_off_c, 0, 75, 61
1, 149588, Note_on_c, 0, 51, 86
1, 149607, Note_on_c, 0, 68, 79
1, 149614, Note_off_c, 0, 48, 62
1, 149614, Note_off_c, 0, 72, 63
1, 149662, Control_c, 0, 64, 113
1, 149670, Note_on_c, 0, 63, 80
1, 149670, Note_off_c, 0, 68, 59
1, 149676, Note_on_c, 0, 56, 91
1, 149677, Control_c, 0, 64, 75
1, 149692, Control_c, 0, 64, 60
1, 149693, Note_off_c, 0, 51, 64
1, 149707, Control_c, 0, 64, 51
1, 149722, Control_c, 0, 64, 53
1, 149737, Control_c, 0, 64, 58
1, 149743, Note_on_c, 0, 68, 68
1, 149746, Note_off_c, 0, 63, 62
1, 149751, Control_c, 0, 64, 64
1, 149766, Control_c, 0, 64, 74
1, 149781, Control_c, 0, 64, 101
1, 149795, Control_c, 0, 64, 127
1, 149815, Note_on_c, 0, 72, 76
1, 149826, Note_off_c, 0, 68, 61
1, 149883, Note_on_c, 0, 68, 69
1, 149908, Note_off_c, 0, 72, 56
1, 149929, Note_off_c, 0, 56, 59
1, 149959, Note_on_c, 0, 63, 75
1, 149994, Note_off_c, 0, 68, 57
1, 150015, Note_on_c, 0, 56, 86
1, 150017, Note_on_c, 0, 60, 82
1, 150023, Note_off_c, 0, 63, 63
1, 150097, Note_on_c, 0, 63, 74
1, 150098, Note_off_c, 0, 60, 62
1, 150163, Note_off_c, 0, 63, 63
1, 150164, Note_on_c, 0, 68, 75
1, 150228, Note_on_c, 0, 63, 71
1, 150249, Note_off_c, 0, 56, 56
1, 150252, Note_off_c, 0, 68, 48
1, 150304, Note_on_c, 0, 60, 76
1, 150314, Note_off_c, 0, 63, 60
1, 150362, Note_off_c, 0, 60, 62
1, 150411, Note_on_c, 0, 66, 87
1, 150416, Note_on_c, 0, 57, 77
1, 150425, Control_c, 0, 64, 74
1, 150440, Control_c, 0, 64, 55
1, 150455, Control_c, 0, 64, 34
1, 150470, Control_c, 0, 64, 34
1, 150484, Control_c, 0, 64, 34
1, 150499, Control_c, 0, 64, 47
1, 150514, Control_c, 0, 64, 61
1, 150529, Control_c, 0, 64, 73
1, 150530, Note_on_c, 0, 60, 66
1, 150538, Note_off_c, 0, 57, 59
1, 150544, Control_c, 0, 64, 108
1, 150558, Control_c, 0, 64, 127
1, 150599, Note_off_c, 0, 60, 63
1, 150617, Note_on_c, 0, 63, 64
1, 150678, Note_off_c, 0, 63, 61
1, 150679, Note_on_c, 0, 60, 57
1, 150749, Note_on_c, 0, 57, 66
1, 150752, Note_off_c, 0, 60, 61
1, 150808, Note_on_c, 0, 54, 70
1, 150811, Note_off_c, 0, 57, 64
1, 150882, Note_on_c, 0, 57, 64
1, 150890, Note_off_c, 0, 54, 63
1, 150947, Note_off_c, 0, 57, 63
1, 150958, Note_on_c, 0, 60, 66
1, 151026, Note_off_c, 0, 60, 64
1, 151028, Note_on_c, 0, 57, 73
1, 151102, Note_off_c, 0, 57, 64
1, 151111, Note_on_c, 0, 54, 72
1, 151151, Note_on_c, 0, 51, 72
1, 151155, Note_off_c, 0, 54, 66
1, 151222, Note_on_c, 0, 54, 73
1, 151237, Note_off_c, 0, 51, 62
1, 151272, Note_off_c, 0, 54, 64
1, 151283, Note_on_c, 0, 57, 75
1, 151350, Note_on_c, 0, 54, 71
1, 151355, Note_off_c, 0, 57, 64
1, 151417, Note_on_c, 0, 51, 74
1, 151428, Note_off_c, 0, 54, 64
1, 151497, Note_off_c, 0, 51, 64
1, 151499, Note_on_c, 0, 72, 89
1, 151501, Note_on_c, 0, 48, 73
1, 151557, Note_off_c, 0, 66, 54
1, 151565, Note_on_c, 0, 51, 75
1, 151571, Note_off_c, 0, 48, 64
1, 151620, Note_off_c, 0, 51, 63
1, 151638, Note_on_c, 0, 54, 75
1, 151705, Note_off_c, 0, 54, 63
1, 151711, Note_on_c, 0, 51, 80
1, 151774, Note_off_c, 0, 51, 65
1, 151779, Note_on_c, 0, 75, 88
1, 151787, Note_on_c, 0, 48, 78
1, 151807, Note_off_c, 0, 72, 61
1, 151849, Control_c, 0, 64, 100
1, 151850, Note_on_c, 0, 45, 76
1, 151856, Note_off_c, 0, 48, 64
1, 151863, Control_c, 0, 64, 70
1, 151870, Note_on_c, 0, 78, 90
1, 151878, Control_c, 0, 64, 57
1, 151887, Note_off_c, 0, 75, 67
1, 151893, Control_c, 0, 64, 55
1, 151908, Control_c, 0, 64, 59
1, 151910, Note_on_c, 0, 48, 69
1, 151923, Control_c, 0, 64, 64
1, 151932, Note_off_c, 0, 45, 63
1, 151938, Control_c, 0, 64, 73
1, 151953, Control_c, 0, 64, 106
1, 151967, Control_c, 0, 64, 127
1, 151989, Note_off_c, 0, 48, 63
1, 151997, Note_on_c, 0, 51, 86
1, 152064, Note_off_c, 0, 51, 64
1, 152066, Note_on_c, 0, 48, 72
1, 152142, Note_off_c, 0, 48, 63
1, 152146, Note_on_c, 0, 45, 70
1, 152203, Note_on_c, 0, 42, 78
1, 152212, Note_off_c, 0, 45, 62
1, 152259, Note_on_c, 0, 84, 96
1, 152278, Note_on_c, 0, 45, 71
1, 152295, Note_off_c, 0, 42, 61
1, 152360, Note_off_c, 0, 45, 63
1, 152363, Note_on_c, 0, 48, 77
1, 152444, Note_off_c, 0, 48, 63
1, 152446, Note_on_c, 0, 45, 78
1, 152500, Note_off_c, 0, 78, 56
1, 152509, Note_on_c, 0, 42, 70
1, 152513, Note_on_c, 0, 87, 93
1, 152516, Note_off_c, 0, 45, 62
1, 152542, Note_off_c, 0, 84, 61
1, 152564, Note_on_c, 0, 39, 72
1, 152570, Note_off_c, 0, 42, 64
1, 152602, Note_on_c, 0, 90, 99
1, 152642, Note_off_c, 0, 87, 59
1, 152647, Note_on_c, 0, 42, 70
1, 152680, Note_off_c, 0, 39, 58
1, 152704, Note_off_c, 0, 42, 64
1, 152711, Note_on_c, 0, 45, 79
1, 152771, Note_on_c, 0, 42, 70
1, 152784, Note_off_c, 0, 45, 62
1, 152832, Note_on_c, 0, 39, 79
1, 152847, Note_off_c, 0, 42, 63
1, 152872, Note_on_c, 0, 38, 70
1, 152880, Note_off_c, 0, 39, 60
1, 152880, Note_off_c, 0, 90, 55
1, 152902, Note_on_c, 0, 36, 69
1, 152904, Note_off_c, 0, 38, 63
1, 152957, Note_on_c, 0, 33, 82
1, 152972, Note_on_c, 0, 90, 111
1, 152975, Note_off_c, 0, 36, 61
1, 152999, Note_on_c, 0, 80, 70
1, 153030, Note_off_c, 0, 80, 61
1, 153048, Note_on_c, 0, 39, 72
1, 153057, Note_off_c, 0, 33, 61
1, 153099, Note_on_c, 0, 38, 54
1, 153101, Poly_aftertouch_c, 0, 35, 127
1, 153118, Note_on_c, 0, 42, 79
1, 153141, Note_off_c, 0, 38, 61
1, 153146, Poly_aftertouch_c, 0, 35, 0
1, 153151, Note_off_c, 0, 39, 58
1, 153196, Note_on_c, 0, 36, 56
1, 153236, Note_off_c, 0, 42, 58
1, 153294, Note_off_c, 0, 90, 47
1, 153362, Note_on_c, 0, 32, 95
1, 153380, Note_off_c, 0, 36, 58
1, 153384, Note_on_c, 0, 90, 113
1, 153392, Control_c, 0, 64, 87
1, 153407, Control_c, 0, 64, 60
1, 153422, Control_c, 0, 64, 0
1, 153442, Note_on_c, 0, 80, 5
1, 153443, Note_off_c, 0, 80, 127
1, 153446, Note_on_c, 0, 35, 3
1, 153464, Note_on_c, 0, 36, 55
1, 153466, Control_c, 0, 64, 24
1, 153481, Control_c, 0, 64, 61
1, 153492, Note_off_c, 0, 35, 48
1, 153496, Control_c, 0, 64, 80
1, 153510, Control_c, 0, 64, 127
1, 153512, Note_on_c, 0, 39, 65
1, 153547, Note_off_c, 0, 36, 62
1, 153578, Note_on_c, 0, 42, 75
1, 153601, Note_on_c, 0, 78, 14
1, 153630, Note_off_c, 0, 32, 59
1, 153646, Note_on_c, 0, 36, 53
1, 153705, Note_off_c, 0, 42, 38
1, 153712, Note_off_c, 0, 90, 57
1, 153766, Note_on_c, 0, 33, 91
1, 153783, Note_off_c, 0, 36, 58
1, 153800, Note_off_c, 0, 39, 40
1, 153891, Note_on_c, 0, 40, 76
1, 153903, Note_off_c, 0, 78, 57
1, 153904, Note_on_c, 0, 90, 108
1, 153923, Note_on_c, 0, 39, 27
1, 153924, Note_off_c, 0, 39, 127
1, 153935, Note_off_c, 0, 33, 60
1, 153940, Note_on_c, 0, 36, 38
1, 153952, Note_on_c, 0, 42, 74
1, 153956, Note_off_c, 0, 40, 62
1, 153965, Note_on_c, 0, 87, 86
1, 153985, Note_on_c, 0, 37, 17
1, 153994, Note_on_c, 0, 86, 80
1, 154011, Note_on_c, 0, 84, 91
1, 154017, Note_off_c, 0, 90, 61
1, 154020, Note_on_c, 0, 85, 33
1, 154027, Note_off_c, 0, 87, 67
1, 154029, Note_off_c, 0, 86, 66
1, 154036, Note_off_c, 0, 37, 28
1, 154051, Note_on_c, 0, 78, 65
1, 154053, Note_off_c, 0, 85, 56
1, 154091, Note_off_c, 0, 84, 60
1, 154121, Note_off_c, 0, 42, 58
1, 154124, Note_on_c, 0, 90, 103
1, 154126, Control_c, 0, 64, 118
1, 154130, Note_off_c, 0, 36, 0
1, 154141, Note_on_c, 0, 32, 96
1, 154141, Control_c, 0, 64, 68
1, 154149, Poly_aftertouch_c, 0, 36, 0
1, 154155, Control_c, 0, 64, 32
1, 154163, Note_on_c, 0, 34, 60
1, 154170, Control_c, 0, 64, 0
1, 154193, Note_off_c, 0, 34, 62
1, 154200, Control_c, 0, 64, 20
1, 154215, Control_c, 0, 64, 60
1, 154225, Note_on_c, 0, 37, 68
1, 154230, Control_c, 0, 64, 76
1, 154245, Control_c, 0, 64, 127
1, 154275, Note_off_c, 0, 37, 61
1, 154278, Note_on_c, 0, 39, 66
1, 154308, Note_off_c, 0, 90, 62
1, 154357, Note_on_c, 0, 42, 81
1, 154367, Note_off_c, 0, 39, 60
1, 154374, Note_off_c, 0, 78, 63
1, 154376, Note_on_c, 0, 36, 59
1, 154388, Note_off_c, 0, 32, 59
1, 154461, Note_off_c, 0, 42, 61
1, 154468, Note_off_c, 0, 36, 59
1, 154499, Note_on_c, 0, 33, 91
1, 154591, Note_on_c, 0, 66, 40
1, 154606, Poly_aftertouch_c, 0, 41, 0
1, 154607, Note_on_c, 0, 39, 74
1, 154628, Note_on_c, 0, 36, 35
1, 154629, Note_on_c, 0, 78, 96
1, 154642, Note_off_c, 0, 33, 60
1, 154657, Note_off_c, 0, 66, 34
1, 154670, Note_off_c, 0, 36, 53
1, 154675, Note_on_c, 0, 42, 76
1, 154686, Note_on_c, 0, 75, 88
1, 154724, Note_off_c, 0, 78, 63
1, 154729, Note_off_c, 0, 39, 61
1, 154736, Note_on_c, 0, 72, 85
1, 154751, Note_off_c, 0, 75, 64
1, 154755, Note_on_c, 0, 36, 60
1, 154785, Note_on_c, 0, 66, 81
1, 154814, Note_off_c, 0, 72, 64
1, 154832, Note_off_c, 0, 42, 59
1, 154833, Note_off_c, 0, 36, 62
1, 154854, Note_on_c, 0, 78, 99
1, 154862, Note_on_c, 0, 32, 95
1, 154874, Control_c, 0, 64, 72
1, 154889, Control_c, 0, 64, 44
1, 154904, Control_c, 0, 64, 0
1, 154910, Note_on_c, 0, 34, 19
1, 154948, Control_c, 0, 64, 50
1, 154953, Note_on_c, 0, 36, 67
1, 154957, Note_off_c, 0, 34, 52
1, 154963, Control_c, 0, 64, 68
1, 154978, Control_c, 0, 64, 92
1, 154990, Note_on_c, 0, 39, 64
1, 154993, Control_c, 0, 64, 127
1, 155017, Note_off_c, 0, 78, 62
1, 155045, Note_off_c, 0, 36, 62
1, 155071, Note_on_c, 0, 42, 81
1, 155088, Note_off_c, 0, 66, 59
1, 155118, Note_off_c, 0, 32, 61
1, 155121, Poly_aftertouch_c, 0, 37, 0
1, 155157, Poly_aftertouch_c, 0, 37, 127
1, 155163, Note_off_c, 0, 42, 59
1, 155211, Note_off_c, 0, 39, 42
1, 155214, Note_on_c, 0, 33, 93
1, 155223, Poly_aftertouch_c, 0, 36, 127
1, 155229, Control_c, 0, 64, 72
1, 155237, Poly_aftertouch_c, 0, 36, 0
1, 155244, Control_c, 0, 64, 48
1, 155255, Poly_aftertouch_c, 0, 37, 0
1, 155259, Control_c, 0, 64, 39
1, 155274, Control_c, 0, 64, 44
1, 155288, Control_c, 0, 64, 56
1, 155303, Control_c, 0, 64, 65
1, 155318, Note_on_c, 0, 39, 71
1, 155318, Control_c, 0, 64, 79
1, 155333, Control_c, 0, 64, 127
1, 155375, Note_off_c, 0, 33, 61
1, 155378, Note_on_c, 0, 66, 97
1, 155400, Note_on_c, 0, 42, 77
1, 155437, Note_on_c, 0, 63, 84
1, 155463, Note_off_c, 0, 39, 59
1, 155464, Note_on_c, 0, 36, 74
1, 155477, Note_on_c, 0, 60, 76
1, 155478, Note_off_c, 0, 66, 57
1, 155499, Note_off_c, 0, 63, 63
1, 155515, Note_on_c, 0, 54, 77
1, 155537, Note_off_c, 0, 42, 62
1, 155546, Note_off_c, 0, 36, 61
1, 155551, Note_off_c, 0, 60, 64
1, 155557, Control_c, 0, 64, 88
1, 155568, Note_on_c, 0, 32, 95
1, 155571, Control_c, 0, 64, 62
1, 155572, Note_on_c, 0, 66, 94
1, 155593, Control_c, 0, 64, 27
1, 155608, Control_c, 0, 64, 26
1, 155623, Control_c, 0, 64, 41
1, 155638, Control_c, 0, 64, 59
1, 155653, Control_c, 0, 64, 70
1, 155661, Note_on_c, 0, 60, 10
1, 155667, Control_c, 0, 64, 98
1, 155671, Note_on_c, 0, 36, 61
1, 155672, Note_off_c, 0, 66, 60
1, 155682, Note_on_c, 0, 39, 73
1, 155682, Control_c, 0, 64, 127
1, 155718, Note_off_c, 0, 60, 60
1, 155732, Note_off_c, 0, 36, 59
1, 155758, Note_off_c, 0, 54, 61
1, 155765, Note_on_c, 0, 42, 73
1, 155775, Note_on_c, 0, 66, 87
1, 155824, Note_off_c, 0, 32, 59
1, 155831, Note_on_c, 0, 63, 75
1, 155845, Control_c, 0, 64, 77
1, 155857, Note_on_c, 0, 36, 43
1, 155860, Control_c, 0, 64, 56
1, 155869, Note_off_c, 0, 66, 63
1, 155875, Control_c, 0, 64, 24
1, 155881, Note_off_c, 0, 63, 64
1, 155882, Note_off_c, 0, 42, 56
1, 155884, Note_on_c, 0, 60, 68
1, 155890, Control_c, 0, 64, 30
1, 155896, Note_on_c, 0, 54, 70
1, 155904, Control_c, 0, 64, 50
1, 155908, Note_on_c, 0, 33, 85
1, 155919, Control_c, 0, 64, 64
1, 155920, Note_off_c, 0, 36, 59
1, 155922, Note_off_c, 0, 39, 57
1, 155925, Note_on_c, 0, 66, 85
1, 155934, Control_c, 0, 64, 77
1, 155949, Control_c, 0, 64, 127
1, 155964, Note_off_c, 0, 60, 60
1, 155989, Note_on_c, 0, 42, 71
1, 156007, Note_on_c, 0, 39, 67
1, 156029, Note_off_c, 0, 66, 60
1, 156034, Note_off_c, 0, 33, 58
1, 156099, Note_off_c, 0, 42, 63
1, 156101, Note_off_c, 0, 39, 62
1, 156104, Note_off_c, 0, 54, 41
1, 156105, Note_on_c, 0, 66, 84
1, 156108, Note_on_c, 0, 36, 64
1, 156156, Note_on_c, 0, 63, 75
1, 156171, Control_c, 0, 64, 80
1, 156185, Control_c, 0, 64, 54
1, 156200, Control_c, 0, 64, 0
1, 156203, Note_on_c, 0, 60, 68
1, 156207, Note_off_c, 0, 66, 62
1, 156213, Note_off_c, 0, 63, 62
1, 156236, Note_on_c, 0, 54, 69
1, 156242, Note_off_c, 0, 60, 68
1, 156245, Note_off_c, 0, 36, 60
1, 156246, Control_c, 0, 64, 27
1, 156260, Control_c, 0, 64, 63
1, 156273, Note_on_c, 0, 32, 81
1, 156275, Control_c, 0, 64, 84
1, 156277, Note_on_c, 0, 44, 96
1, 156283, Note_on_c, 0, 66, 96
1, 156290, Control_c, 0, 64, 127
1, 156315, Note_off_c, 0, 54, 63
1, 156317, Note_off_c, 0, 44, 65
1, 156320, Note_off_c, 0, 32, 63
1, 156343, Note_on_c, 0, 55, 18
1, 156392, Note_off_c, 0, 55, 46
1, 156493, Note_off_c, 0, 66, 52
1, 156563, Note_on_c, 0, 56, 54
1, 156606, Note_off_c, 0, 56, 64
1, 156639, Control_c, 0, 64, 106
1, 156653, Control_c, 0, 64, 93
1, 156668, Control_c, 0, 64, 87
1, 156683, Control_c, 0, 64, 81
1, 156697, Note_on_c, 0, 56, 60
1, 156698, Control_c, 0, 64, 75
1, 156713, Control_c, 0, 64, 69
1, 156716, Note_off_c, 0, 56, 64
1, 156727, Control_c, 0, 64, 63
1, 156742, Control_c, 0, 64, 57
1, 156757, Control_c, 0, 64, 52
1, 156772, Control_c, 0, 64, 47
1, 156787, Control_c, 0, 64, 44
1, 156801, Control_c, 0, 64, 41
1, 156810, Note_on_c, 0, 56, 47
1, 156816, Control_c, 0, 64, 39
1, 156831, Control_c, 0, 64, 38
1, 156846, Note_off_c, 0, 56, 65
1, 156943, Note_on_c, 0, 56, 52
1, 156973, Note_off_c, 0, 56, 64
1, 157040, Control_c, 0, 64, 38
1, 157055, Control_c, 0, 64, 39
1, 157062, Note_on_c, 0, 56, 55
1, 157077, Control_c, 0, 64, 39
1, 157092, Control_c, 0, 64, 40
1, 157103, Note_off_c, 0, 56, 65
1, 157107, Control_c, 0, 64, 41
1, 157121, Control_c, 0, 64, 41
1, 157136, Control_c, 0, 64, 42
1, 157151, Control_c, 0, 64, 42
1, 157192, Note_on_c, 0, 56, 58
1, 157230, Note_off_c, 0, 56, 65
1, 157240, Control_c, 0, 64, 43
1, 157270, Control_c, 0, 64, 43
1, 157318, Note_on_c, 0, 56, 59
1, 157352, Note_off_c, 0, 56, 65
1, 157446, Note_on_c, 0, 56, 49
1, 157477, Note_off_c, 0, 56, 63
1, 157566, Control_c, 0, 64, 44
1, 157574, Note_on_c, 0, 56, 48
1, 157600, Note_off_c, 0, 56, 58
1, 157668, Control_c, 0, 64, 44
1, 157683, Note_on_c, 0, 56, 51
1, 157722, Note_off_c, 0, 56, 64
1, 157803, Note_on_c, 0, 63, 54
1, 157807, Note_on_c, 0, 60, 47
1, 157944, Note_on_c, 0, 56, 60
1, 157977, Note_off_c, 0, 56, 65
1, 158068, Note_on_c, 0, 56, 58
1, 158105, Note_off_c, 0, 56, 65
1, 158111, Note_off_c, 0, 60, 57
1, 158139, Note_off_c, 0, 63, 59
1, 158188, Note_on_c, 0, 56, 62
1, 158219, Note_off_c, 0, 56, 65
1, 158305, Note_on_c, 0, 56, 53
1, 158339, Note_off_c, 0, 56, 65
1, 158442, Note_on_c, 0, 56, 40
1, 158481, Note_off_c, 0, 56, 50
1, 158537, Note_on_c, 0, 75, 63
1, 158544, Note_on_c, 0, 54, 50
1, 158549, Note_on_c, 0, 72, 52
1, 158550, Control_c, 0, 64, 45
1, 158618, Note_off_c, 0, 54, 53
1, 158689, Note_on_c, 0, 56, 49
1, 158719, Note_off_c, 0, 56, 63
1, 158776, Note_off_c, 0, 72, 61
1, 158803, Note_on_c, 0, 56, 61
1, 158808, Note_off_c, 0, 75, 61
1, 158825, Control_c, 0, 64, 45
1, 158834, Note_off_c, 0, 56, 66
1, 158921, Note_on_c, 0, 56, 57
1, 158954, Note_off_c, 0, 56, 65
1, 159041, Note_on_c, 0, 56, 56
1, 159074, Note_off_c, 0, 56, 65
1, 159171, Note_on_c, 0, 56, 45
1, 159200, Note_off_c, 0, 56, 59
1, 159280, Note_on_c, 0, 65, 57
1, 159281, Note_on_c, 0, 61, 52
1, 159284, Control_c, 0, 64, 46
1, 159366, Control_c, 0, 64, 46
1, 159411, Note_on_c, 0, 56, 45
1, 159439, Note_off_c, 0, 56, 58
1, 159524, Note_on_c, 0, 56, 57
1, 159548, Note_off_c, 0, 65, 49
1, 159560, Note_off_c, 0, 56, 64
1, 159579, Note_off_c, 0, 61, 43
1, 159656, Note_on_c, 0, 56, 56
1, 159677, Control_c, 0, 64, 47
1, 159689, Note_off_c, 0, 56, 65
1, 159777, Note_on_c, 0, 56, 59
1, 159810, Note_off_c, 0, 56, 65
1, 159889, Note_on_c, 0, 56, 61
1, 159938, Note_off_c, 0, 56, 59
1, 160007, Note_on_c, 0, 53, 63
1, 160018, Control_c, 0, 64, 47
1, 160021, Note_on_c, 0, 77, 72
1, 160031, Note_on_c, 0, 73, 52
1, 160077, Note_off_c, 0, 53, 54
1, 160150, Note_on_c, 0, 56, 53
1, 160195, Note_off_c, 0, 56, 63
1, 160223, Note_off_c, 0, 77, 61
1, 160275, Note_off_c, 0, 73, 61
1, 160285, Note_on_c, 0, 56, 60
1, 160316, Note_off_c, 0, 56, 66
1, 160392, Note_on_c, 0, 56, 63
1, 160429, Note_off_c, 0, 56, 64
1, 160520, Note_on_c, 0, 56, 56
1, 160548, Note_off_c, 0, 56, 64
1, 160574, Control_c, 0, 64, 48
1, 160621, Note_on_c, 0, 56, 71
1, 160656, Note_off_c, 0, 56, 66
1, 160731, Note_on_c, 0, 70, 86
1, 160740, Note_on_c, 0, 61, 73
1, 160740, Note_on_c, 0, 65, 66
1, 160883, Note_on_c, 0, 56, 64
1, 160915, Note_off_c, 0, 56, 66
1, 160988, Note_on_c, 0, 56, 66
1, 161027, Note_off_c, 0, 56, 64
1, 161107, Note_on_c, 0, 53, 76
1, 161113, Note_on_c, 0, 49, 65
1, 161233, Note_on_c, 0, 56, 62
1, 161277, Note_off_c, 0, 56, 62
1, 161286, Note_off_c, 0, 53, 56
1, 161292, Note_off_c, 0, 49, 61
1, 161390, Note_on_c, 0, 56, 49
1, 161417, Note_off_c, 0, 56, 59
1, 161494, Note_on_c, 0, 53, 63
1, 161500, Note_on_c, 0, 49, 48
1, 161620, Note_on_c, 0, 56, 55
1, 161651, Note_off_c, 0, 53, 51
1, 161658, Note_off_c, 0, 49, 40
1, 161663, Note_off_c, 0, 56, 64
1, 161755, Note_on_c, 0, 56, 62
1, 161793, Note_off_c, 0, 56, 64
1, 161866, Note_on_c, 0, 53, 61
1, 161879, Note_on_c, 0, 49, 43
1, 161976, Note_on_c, 0, 56, 60
1, 161977, Note_off_c, 0, 53, 0
1, 162012, Note_off_c, 0, 56, 64
1, 162014, Poly_aftertouch_c, 0, 53, 127
1, 162072, Note_off_c, 0, 61, 34
1, 162089, Note_on_c, 0, 56, 63
1, 162126, Note_off_c, 0, 49, 27
1, 162140, Poly_aftertouch_c, 0, 53, 0
1, 162144, Note_off_c, 0, 56, 55
1, 162211, Note_on_c, 0, 51, 59
1, 162216, Note_off_c, 0, 65, 16
1, 162224, Note_on_c, 0, 48, 49
1, 162227, Note_on_c, 0, 68, 56
1, 162237, Note_on_c, 0, 60, 42
1, 162243, Note_on_c, 0, 63, 34
1, 162254, Note_off_c, 0, 51, 63
1, 162267, Note_off_c, 0, 48, 60
1, 162357, Note_on_c, 0, 56, 51
1, 162386, Note_off_c, 0, 70, 18
1, 162389, Note_off_c, 0, 56, 64
1, 162481, Note_on_c, 0, 56, 56
1, 162515, Note_off_c, 0, 56, 65
1, 162617, Note_on_c, 0, 56, 33
1, 162636, Note_off_c, 0, 68, 59
1, 162637, Note_off_c, 0, 60, 62
1, 162651, Note_off_c, 0, 56, 51
1, 162663, Note_off_c, 0, 63, 43
1, 162748, Note_on_c, 0, 56, 41
1, 162777, Note_off_c, 0, 56, 52
1, 162860, Note_on_c, 0, 56, 53
1, 162893, Note_off_c, 0, 56, 65
1, 162969, Control_c, 0, 64, 47
1, 162984, Note_on_c, 0, 56, 57
1, 163017, Note_off_c, 0, 56, 65
1, 163106, Note_on_c, 0, 56, 56
1, 163130, Note_off_c, 0, 56, 61
1, 163217, Note_on_c, 0, 56, 55
1, 163256, Note_off_c, 0, 56, 65
1, 163334, Note_on_c, 0, 63, 62
1, 163340, Note_on_c, 0, 60, 52
1, 163348, Note_on_c, 0, 56, 59
1, 163372, Note_off_c, 0, 60, 65
1, 163375, Note_off_c, 0, 63, 63
1, 163382, Note_off_c, 0, 56, 65
1, 163472, Note_on_c, 0, 56, 53
1, 163507, Note_off_c, 0, 56, 65
1, 163590, Note_on_c, 0, 63, 59
1, 163598, Note_on_c, 0, 56, 51
1, 163599, Note_on_c, 0, 60, 45
1, 163627, Note_off_c, 0, 56, 64
1, 163644, Note_off_c, 0, 60, 60
1, 163682, Note_off_c, 0, 63, 60
1, 163689, Note_on_c, 0, 65, 58
1, 163716, Note_on_c, 0, 56, 47
1, 163717, Note_on_c, 0, 61, 23
1, 163745, Note_off_c, 0, 56, 56
1, 163830, Note_on_c, 0, 56, 55
1, 163870, Note_off_c, 0, 56, 65
1, 163942, Note_off_c, 0, 65, 40
1, 163948, Note_on_c, 0, 63, 55
1, 163957, Note_on_c, 0, 60, 40
1, 163965, Note_on_c, 0, 56, 50
1, 163986, Note_off_c, 0, 60, 61
1, 163992, Note_off_c, 0, 61, 11
1, 163993, Note_off_c, 0, 56, 62
1, 163995, Note_off_c, 0, 63, 63
1, 164077, Note_on_c, 0, 56, 60
1, 164110, Note_off_c, 0, 56, 65
1, 164187, Note_on_c, 0, 56, 61
1, 164224, Note_off_c, 0, 56, 64
1, 164314, Note_on_c, 0, 56, 58
1, 164316, Note_on_c, 0, 75, 64
1, 164325, Note_on_c, 0, 72, 51
1, 164353, Note_off_c, 0, 56, 64
1, 164358, Note_off_c, 0, 72, 66
1, 164371, Note_off_c, 0, 75, 61
1, 164438, Note_on_c, 0, 56, 61
1, 164475, Note_off_c, 0, 56, 65
1, 164556, Note_on_c, 0, 56, 60
1, 164606, Note_off_c, 0, 56, 62
1, 164681, Note_on_c, 0, 87, 68
1, 164694, Note_on_c, 0, 84, 54
1, 164697, Note_on_c, 0, 56, 62
1, 164724, Note_off_c, 0, 87, 63
1, 164728, Note_off_c, 0, 84, 66
1, 164740, Note_off_c, 0, 56, 63
1, 164789, Note_on_c, 0, 51, 65
1, 164808, Note_on_c, 0, 54, 48
1, 164831, Note_off_c, 0, 51, 45
1, 164878, Note_off_c, 0, 54, 54
1, 164909, Note_on_c, 0, 56, 67
1, 164944, Note_off_c, 0, 56, 66
1, 165021, Note_on_c, 0, 63, 72
1, 165031, Note_on_c, 0, 56, 57
1, 165032, Note_on_c, 0, 60, 53
1, 165054, Note_off_c, 0, 63, 64
1, 165057, Note_off_c, 0, 60, 63
1, 165060, Note_off_c, 0, 56, 64
1, 165121, Note_on_c, 0, 66, 70
1, 165125, Note_on_c, 0, 63, 58
1, 165126, Note_on_c, 0, 56, 66
1, 165158, Note_off_c, 0, 56, 65
1, 165244, Note_on_c, 0, 56, 62
1, 165284, Note_off_c, 0, 56, 64
1, 165361, Note_on_c, 0, 61, 49
1, 165366, Note_on_c, 0, 65, 52
1, 165393, Note_on_c, 0, 56, 55
1, 165403, Note_off_c, 0, 61, 64
1, 165413, Note_off_c, 0, 63, 41
1, 165415, Note_off_c, 0, 65, 63
1, 165426, Note_off_c, 0, 56, 65
1, 165426, Note_off_c, 0, 66, 36
1, 165498, Note_on_c, 0, 56, 70
1, 165531, Note_off_c, 0, 56, 64
1, 165606, Note_on_c, 0, 56, 60
1, 165651, Note_off_c, 0, 56, 62
1, 165724, Note_on_c, 0, 73, 58
1, 165724, Note_on_c, 0, 77, 67
1, 165753, Note_on_c, 0, 56, 45
1, 165764, Note_off_c, 0, 73, 64
1, 165780, Note_off_c, 0, 56, 59
1, 165792, Note_off_c, 0, 77, 62
1, 165863, Note_on_c, 0, 56, 62
1, 165900, Note_off_c, 0, 56, 65
1, 165978, Note_on_c, 0, 56, 63
1, 166017, Note_off_c, 0, 56, 63
1, 166084, Note_on_c, 0, 89, 66
1, 166085, Note_on_c, 0, 85, 63
1, 166107, Note_on_c, 0, 56, 65
1, 166139, Note_off_c, 0, 89, 63
1, 166148, Note_off_c, 0, 56, 60
1, 166152, Note_off_c, 0, 85, 65
1, 166219, Note_on_c, 0, 53, 74
1, 166222, Note_on_c, 0, 49, 64
1, 166266, Note_off_c, 0, 53, 61
1, 166275, Note_off_c, 0, 49, 54
1, 166321, Note_on_c, 0, 56, 75
1, 166364, Note_off_c, 0, 56, 62
1, 166433, Note_on_c, 0, 56, 75
1, 166461, Note_on_c, 0, 66, 44
1, 166461, Note_on_c, 0, 65, 85
1, 166472, Note_on_c, 0, 61, 67
1, 166487, Note_off_c, 0, 66, 37
1, 166489, Note_off_c, 0, 56, 64
1, 166517, Note_off_c, 0, 61, 0
1, 166536, Note_on_c, 0, 70, 94
1, 166554, Poly_aftertouch_c, 0, 61, 127
1, 166575, Note_on_c, 0, 71, 49
1, 166601, Note_off_c, 0, 71, 53
1, 166672, Note_on_c, 0, 56, 71
1, 166705, Note_off_c, 0, 56, 66
1, 166783, Note_on_c, 0, 56, 70
1, 166822, Note_off_c, 0, 56, 65
1, 166902, Note_on_c, 0, 53, 71
1, 166906, Note_on_c, 0, 49, 60
1, 167031, Note_on_c, 0, 56, 55
1, 167061, Note_off_c, 0, 49, 60
1, 167068, Note_off_c, 0, 56, 65
1, 167072, Note_off_c, 0, 53, 60
1, 167147, Note_on_c, 0, 56, 60
1, 167184, Note_off_c, 0, 56, 64
1, 167266, Note_on_c, 0, 53, 60
1, 167275, Note_on_c, 0, 49, 52
1, 167375, Note_on_c, 0, 56, 63
1, 167416, Note_off_c, 0, 56, 65
1, 167434, Note_off_c, 0, 53, 61
1, 167444, Note_off_c, 0, 49, 53
1, 167522, Note_on_c, 0, 56, 54
1, 167552, Note_off_c, 0, 56, 64
1, 167622, Note_on_c, 0, 53, 56
1, 167623, Note_on_c, 0, 49, 50
1, 167753, Note_on_c, 0, 56, 60
1, 167788, Poly_aftertouch_c, 0, 61, 0
1, 167791, Note_off_c, 0, 56, 64
1, 167819, Note_off_c, 0, 53, 48
1, 167868, Note_on_c, 0, 56, 62
1, 167890, Note_off_c, 0, 49, 26
1, 167905, Note_off_c, 0, 56, 64
1, 167979, Note_on_c, 0, 68, 60
1, 167981, Note_on_c, 0, 63, 46
1, 167983, Note_off_c, 0, 70, 52
1, 167990, Note_on_c, 0, 60, 47
1, 168111, Note_on_c, 0, 56, 59
1, 168142, Note_off_c, 0, 65, 0
1, 168148, Note_off_c, 0, 56, 64
1, 168179, Poly_aftertouch_c, 0, 65, 127
1, 168233, Note_on_c, 0, 56, 55
1, 168271, Note_off_c, 0, 56, 65
1, 168334, Note_off_c, 0, 60, 54
1, 168343, Note_on_c, 0, 51, 71
1, 168363, Note_on_c, 0, 48, 50
1, 168379, Poly_aftertouch_c, 0, 65, 0
1, 168392, Note_off_c, 0, 68, 52
1, 168419, Note_off_c, 0, 63, 55
1, 168492, Note_on_c, 0, 56, 67
1, 168535, Note_off_c, 0, 56, 62
1, 168548, Note_off_c, 0, 48, 52
1, 168610, Note_on_c, 0, 56, 72
1, 168671, Note_off_c, 0, 56, 60
1, 168706, Note_off_c, 0, 51, 17
1, 168715, Note_on_c, 0, 69, 80
1, 168726, Note_on_c, 0, 64, 65
1, 168731, Note_on_c, 0, 61, 54
1, 168865, Note_on_c, 0, 56, 63
1, 168898, Note_off_c, 0, 56, 66
1, 168975, Note_on_c, 0, 56, 64
1, 169014, Note_off_c, 0, 56, 65
1, 169096, Note_on_c, 0, 52, 64
1, 169100, Note_on_c, 0, 49, 54
1, 169113, Note_off_c, 0, 64, 53
1, 169211, Note_on_c, 0, 56, 59
1, 169215, Note_off_c, 0, 61, 29
1, 169249, Note_off_c, 0, 56, 65
1, 169286, Note_off_c, 0, 52, 42
1, 169329, Note_on_c, 0, 56, 61
1, 169365, Note_off_c, 0, 56, 63
1, 169375, Note_off_c, 0, 49, 36
1, 169415, Note_off_c, 0, 69, 54
1, 169445, Note_on_c, 0, 63, 46
1, 169450, Note_on_c, 0, 60, 46
1, 169451, Note_on_c, 0, 68, 49
1, 169531, Note_off_c, 0, 60, 50
1, 169573, Note_on_c, 0, 56, 47
1, 169606, Note_off_c, 0, 56, 62
1, 169610, Note_off_c, 0, 63, 51
1, 169640, Note_off_c, 0, 68, 56
1, 169695, Note_on_c, 0, 56, 55
1, 169722, Control_c, 0, 64, 48
1, 169728, Note_off_c, 0, 56, 64
1, 169831, Note_on_c, 0, 51, 60
1, 169850, Note_on_c, 0, 48, 46
1, 169908, Control_c, 0, 64, 48
1, 169963, Note_on_c, 0, 56, 55
1, 169997, Control_c, 0, 64, 49
1, 169999, Note_off_c, 0, 56, 64
1, 170037, Note_off_c, 0, 48, 30
1, 170041, Control_c, 0, 64, 49
1, 170086, Note_on_c, 0, 56, 57
1, 170117, Note_off_c, 0, 51, 24
1, 170131, Note_off_c, 0, 56, 62
1, 170175, Control_c, 0, 64, 50
1, 170198, Note_on_c, 0, 81, 61
1, 170212, Note_on_c, 0, 73, 51
1, 170213, Note_on_c, 0, 76, 52
1, 170352, Note_on_c, 0, 56, 25
1, 170384, Note_off_c, 0, 56, 46
1, 170468, Note_on_c, 0, 56, 29
1, 170502, Note_off_c, 0, 56, 47
1, 170533, Note_off_c, 0, 76, 51
1, 170566, Note_on_c, 0, 49, 43
1, 170567, Note_on_c, 0, 52, 45
1, 170659, Note_off_c, 0, 73, 37
1, 170714, Note_on_c, 0, 56, 49
1, 170746, Note_off_c, 0, 56, 64
1, 170783, Note_off_c, 0, 52, 36
1, 170834, Note_off_c, 0, 49, 29
1, 170844, Note_on_c, 0, 56, 41
1, 170872, Note_off_c, 0, 56, 56
1, 170909, Note_off_c, 0, 81, 49
1, 170919, Note_on_c, 0, 80, 50
1, 170921, Note_on_c, 0, 75, 46
1, 170933, Note_on_c, 0, 72, 40
1, 171012, Control_c, 0, 67, 15
1, 171027, Control_c, 0, 67, 24
1, 171042, Control_c, 0, 67, 29
1, 171054, Note_on_c, 0, 56, 50
1, 171057, Control_c, 0, 67, 33
1, 171072, Control_c, 0, 67, 38
1, 171087, Control_c, 0, 67, 43
1, 171090, Note_off_c, 0, 56, 62
1, 171101, Control_c, 0, 67, 50
1, 171116, Control_c, 0, 67, 60
1, 171130, Control_c, 0, 67, 66
1, 171145, Control_c, 0, 67, 72
1, 171160, Note_off_c, 0, 80, 59
1, 171160, Control_c, 0, 67, 75
1, 171170, Note_on_c, 0, 56, 61
1, 171170, Note_off_c, 0, 72, 60
1, 171174, Control_c, 0, 67, 79
1, 171189, Control_c, 0, 67, 84
1, 171194, Note_off_c, 0, 75, 61
1, 171204, Control_c, 0, 67, 91
1, 171206, Note_off_c, 0, 56, 64
1, 171219, Control_c, 0, 67, 95
1, 171234, Control_c, 0, 67, 98
1, 171248, Control_c, 0, 67, 100
1, 171263, Control_c, 0, 67, 102
1, 171278, Control_c, 0, 67, 104
1, 171287, Note_on_c, 0, 51, 59
1, 171293, Control_c, 0, 67, 107
1, 171304, Note_on_c, 0, 48, 49
1, 171315, Control_c, 0, 67, 110
1, 171330, Control_c, 0, 67, 110
1, 171360, Control_c, 0, 67, 111
1, 171382, Note_off_c, 0, 48, 48
1, 171389, Control_c, 0, 67, 112
1, 171413, Note_off_c, 0, 51, 0
1, 171420, Control_c, 0, 67, 112
1, 171428, Note_on_c, 0, 56, 57
1, 171451, Poly_aftertouch_c, 0, 51, 127
1, 171463, Note_off_c, 0, 56, 64
1, 171479, Control_c, 0, 67, 114
1, 171494, Control_c, 0, 67, 115
1, 171495, Poly_aftertouch_c, 0, 51, 0
1, 171509, Control_c, 0, 67, 122
1, 171524, Control_c, 0, 67, 127
1, 171550, Note_on_c, 0, 56, 56
1, 171587, Note_off_c, 0, 56, 65
1, 171655, Note_on_c, 0, 68, 60
1, 171668, Note_on_c, 0, 59, 46
1, 171668, Note_on_c, 0, 62, 44
1, 171796, Note_on_c, 0, 56, 56
1, 171829, Note_off_c, 0, 56, 65
1, 171925, Note_on_c, 0, 56, 46
1, 171957, Note_off_c, 0, 56, 58
1, 172028, Note_on_c, 0, 50, 46
1, 172032, Note_off_c, 0, 59, 56
1, 172044, Note_on_c, 0, 47, 36
1, 172065, Note_off_c, 0, 68, 56
1, 172071, Note_off_c, 0, 62, 38
1, 172160, Note_off_c, 0, 50, 0
1, 172169, Note_on_c, 0, 56, 59
1, 172198, Poly_aftertouch_c, 0, 50, 127
1, 172206, Note_off_c, 0, 56, 64
1, 172237, Note_off_c, 0, 47, 23
1, 172267, Poly_aftertouch_c, 0, 50, 0
1, 172291, Note_on_c, 0, 56, 59
1, 172329, Note_off_c, 0, 56, 63
1, 172425, Note_on_c, 0, 67, 50
1, 172435, Note_on_c, 0, 61, 41
1, 172437, Note_on_c, 0, 58, 38
1, 172550, Note_on_c, 0, 56, 52
1, 172583, Note_off_c, 0, 56, 61
1, 172681, Note_on_c, 0, 56, 46
1, 172721, Note_off_c, 0, 56, 53
1, 172804, Note_on_c, 0, 49, 41
1, 172816, Note_on_c, 0, 46, 30
1, 172856, Note_off_c, 0, 67, 37
1, 172867, Note_off_c, 0, 61, 51
1, 172882, Note_off_c, 0, 58, 37
1, 172958, Note_on_c, 0, 56, 49
1, 172992, Note_off_c, 0, 56, 65
1, 173034, Note_off_c, 0, 46, 34
1, 173099, Note_on_c, 0, 56, 40
1, 173117, Note_off_c, 0, 49, 23
1, 173128, Note_off_c, 0, 56, 57
1, 173187, Note_on_c, 0, 66, 50
1, 173199, Note_on_c, 0, 57, 42
1, 173229, Note_on_c, 0, 60, 19
1, 173339, Note_on_c, 0, 56, 41
1, 173373, Note_off_c, 0, 56, 51
1, 173448, Note_on_c, 0, 56, 53
1, 173502, Note_off_c, 0, 56, 57
1, 173575, Note_on_c, 0, 48, 40
1, 173581, Note_off_c, 0, 57, 51
1, 173590, Note_on_c, 0, 45, 32
1, 173637, Control_c, 0, 64, 50
1, 173661, Note_off_c, 0, 66, 47
1, 173662, Note_off_c, 0, 60, 37
1, 173666, Control_c, 0, 64, 51
1, 173711, Control_c, 0, 64, 51
1, 173725, Control_c, 0, 64, 52
1, 173740, Control_c, 0, 64, 52
1, 173746, Note_on_c, 0, 56, 48
1, 173755, Control_c, 0, 64, 53
1, 173788, Note_off_c, 0, 56, 60
1, 173899, Note_on_c, 0, 56, 40
1, 173937, Note_off_c, 0, 56, 51
1, 173971, Note_off_c, 0, 48, 46
1, 173987, Note_off_c, 0, 45, 39
1, 174006, Note_on_c, 0, 66, 41
1, 174037, Note_on_c, 0, 56, 32
1, 174046, Note_on_c, 0, 60, 22
1, 174216, Note_on_c, 0, 44, 43
1, 174366, Note_on_c, 0, 43, 45
1, 174370, Note_off_c, 0, 44, 55
1, 174384, Note_off_c, 0, 60, 37
1, 174404, Note_off_c, 0, 56, 44
1, 174476, Note_off_c, 0, 66, 33
1, 174500, Note_off_c, 0, 43, 59
1, 174509, Note_on_c, 0, 44, 54
1, 174639, Note_off_c, 0, 44, 58
1, 174648, Note_on_c, 0, 46, 45
1, 174780, Note_on_c, 0, 44, 50
1, 174798, Note_off_c, 0, 46, 49
1, 174917, Note_on_c, 0, 75, 59
1, 174941, Note_on_c, 0, 42, 47
1, 175054, Note_off_c, 0, 44, 0
1, 175082, Note_on_c, 0, 77, 67
1, 175091, Poly_aftertouch_c, 0, 44, 127
1, 175093, Note_on_c, 0, 44, 3
1, 175096, Note_off_c, 0, 42, 60
1, 175103, Note_off_c, 0, 75, 58
1, 175204, Note_on_c, 0, 75, 74
1, 175215, Note_on_c, 0, 42, 56
1, 175312, Note_on_c, 0, 41, 48
1, 175319, Note_on_c, 0, 73, 70
1, 175321, Note_off_c, 0, 42, 56
1, 175344, Note_off_c, 0, 75, 59
1, 175407, Note_off_c, 0, 77, 17
1, 175417, Note_off_c, 0, 41, 61
1, 175441, Note_on_c, 0, 42, 64
1, 175448, Note_on_c, 0, 75, 77
1, 175472, Note_off_c, 0, 73, 60
1, 175555, Note_off_c, 0, 44, 42
1, 175556, Note_on_c, 0, 41, 52
1, 175565, Note_on_c, 0, 73, 78
1, 175565, Control_c, 0, 64, 53
1, 175584, Note_off_c, 0, 42, 56
1, 175605, Note_off_c, 0, 75, 59
1, 175669, Control_c, 0, 64, 52
1, 175675, Note_on_c, 0, 72, 73
1, 175693, Note_off_c, 0, 73, 60
1, 175697, Note_on_c, 0, 39, 58
1, 175787, Control_c, 0, 64, 52
1, 175798, Note_off_c, 0, 41, 32
1, 175829, Note_on_c, 0, 78, 68
1, 175840, Note_on_c, 0, 44, 60
1, 175898, Control_c, 0, 67, 125
1, 175913, Control_c, 0, 67, 122
1, 175928, Control_c, 0, 67, 120
1, 175943, Control_c, 0, 67, 119
1, 175952, Note_off_c, 0, 72, 50
1, 175958, Control_c, 0, 67, 117
1, 175960, Note_on_c, 0, 43, 63
1, 175965, Note_off_c, 0, 44, 61
1, 175972, Control_c, 0, 67, 115
1, 175987, Control_c, 0, 67, 112
1, 176002, Control_c, 0, 67, 110
1, 176017, Control_c, 0, 67, 107
1, 176024, Note_off_c, 0, 39, 29
1, 176032, Control_c, 0, 67, 105
1, 176046, Control_c, 0, 67, 103
1, 176061, Control_c, 0, 67, 102
1, 176073, Note_off_c, 0, 78, 59
1, 176076, Control_c, 0, 67, 100
1, 176083, Note_on_c, 0, 44, 68
1, 176089, Note_off_c, 0, 43, 64
1, 176091, Control_c, 0, 67, 97
1, 176106, Control_c, 0, 67, 93
1, 176120, Control_c, 0, 67, 92
1, 176135, Control_c, 0, 67, 90
1, 176150, Control_c, 0, 67, 89
1, 176165, Control_c, 0, 67, 88
1, 176179, Control_c, 0, 67, 87
1, 176196, Control_c, 0, 67, 87
1, 176205, Note_on_c, 0, 46, 72
1, 176211, Control_c, 0, 67, 86
1, 176225, Control_c, 0, 67, 85
1, 176228, Note_off_c, 0, 44, 59
1, 176240, Control_c, 0, 67, 84
1, 176255, Control_c, 0, 67, 83
1, 176269, Control_c, 0, 67, 82
1, 176284, Control_c, 0, 67, 80
1, 176299, Control_c, 0, 67, 78
1, 176314, Control_c, 0, 67, 75
1, 176318, Note_on_c, 0, 44, 71
1, 176321, Note_off_c, 0, 46, 64
1, 176329, Control_c, 0, 67, 73
1, 176343, Control_c, 0, 67, 70
1, 176358, Control_c, 0, 67, 69
1, 176373, Control_c, 0, 67, 67
1, 176388, Control_c, 0, 67, 65
1, 176402, Control_c, 0, 67, 63
1, 176417, Control_c, 0, 67, 61
1, 176432, Control_c, 0, 67, 59
1, 176447, Control_c, 0, 67, 57
1, 176462, Control_c, 0, 67, 55
1, 176469, Note_on_c, 0, 78, 74
1, 176471, Note_on_c, 0, 39, 54
1, 176476, Control_c, 0, 67, 54
1, 176491, Control_c, 0, 67, 53
1, 176506, Control_c, 0, 67, 52
1, 176521, Control_c, 0, 67, 51
1, 176543, Control_c, 0, 67, 51
1, 176558, Control_c, 0, 67, 50
1, 176588, Control_c, 0, 67, 50
1, 176602, Note_off_c, 0, 39, 60
1, 176603, Note_on_c, 0, 41, 60
1, 176610, Note_on_c, 0, 80, 76
1, 176632, Control_c, 0, 67, 49
1, 176640, Note_off_c, 0, 78, 63
1, 176647, Control_c, 0, 67, 47
1, 176662, Control_c, 0, 67, 45
1, 176676, Control_c, 0, 67, 42
1, 176691, Control_c, 0, 67, 40
1, 176706, Control_c, 0, 67, 38
1, 176721, Control_c, 0, 67, 37
1, 176731, Note_on_c, 0, 39, 64
1, 176736, Control_c, 0, 67, 36
1, 176740, Note_on_c, 0, 78, 85
1, 176745, Note_off_c, 0, 41, 58
1, 176751, Control_c, 0, 67, 34
1, 176766, Control_c, 0, 67, 31
1, 176781, Control_c, 0, 67, 29
1, 176795, Control_c, 0, 67, 28
1, 176810, Control_c, 0, 67, 26
1, 176816, Note_off_c, 0, 80, 50
1, 176825, Control_c, 0, 67, 24
1, 176840, Control_c, 0, 67, 23
1, 176848, Note_on_c, 0, 77, 91
1, 176855, Control_c, 0, 67, 22
1, 176861, Note_on_c, 0, 37, 60
1, 176867, Note_off_c, 0, 39, 61
1, 176869, Control_c, 0, 67, 21
1, 176880, Note_off_c, 0, 78, 63
1, 176884, Control_c, 0, 67, 19
1, 176899, Control_c, 0, 67, 17
1, 176914, Control_c, 0, 67, 15
1, 176929, Control_c, 0, 67, 13
1, 176943, Control_c, 0, 67, 11
1, 176958, Control_c, 0, 67, 9
1, 176960, Note_on_c, 0, 78, 88
1, 176973, Control_c, 0, 67, 0
1, 176975, Note_on_c, 0, 39, 70
1, 176977, Note_off_c, 0, 37, 61
1, 176989, Note_off_c, 0, 77, 63
1, 177040, Note_off_c, 0, 44, 49
1, 177077, Note_on_c, 0, 77, 91
1, 177085, Note_off_c, 0, 78, 50
1, 177097, Note_on_c, 0, 37, 68
1, 177138, Note_off_c, 0, 39, 54
1, 177216, Note_on_c, 0, 75, 91
1, 177221, Note_off_c, 0, 77, 65
1, 177222, Note_on_c, 0, 36, 65
1, 177245, Note_off_c, 0, 37, 60
1, 177353, Note_on_c, 0, 87, 88
1, 177359, Note_on_c, 0, 44, 71
1, 177477, Note_on_c, 0, 43, 73
1, 177486, Note_off_c, 0, 44, 61
1, 177523, Note_off_c, 0, 75, 61
1, 177569, Note_off_c, 0, 87, 63
1, 177606, Note_on_c, 0, 44, 80
1, 177618, Note_off_c, 0, 43, 64
1, 177705, Note_off_c, 0, 36, 38
1, 177723, Note_on_c, 0, 46, 79
1, 177755, Note_off_c, 0, 44, 63
1, 177845, Note_on_c, 0, 44, 80
1, 177852, Note_off_c, 0, 46, 63
1, 177922, Poly_aftertouch_c, 0, 36, 0
1, 178019, Note_on_c, 0, 87, 83
1, 178021, Note_on_c, 0, 36, 66
1, 178172, Note_on_c, 0, 89, 85
1, 178180, Note_off_c, 0, 36, 62
1, 178182, Note_on_c, 0, 37, 65
1, 178205, Note_off_c, 0, 87, 64
1, 178295, Note_on_c, 0, 87, 95
1, 178296, Note_on_c, 0, 36, 73
1, 178324, Note_off_c, 0, 89, 63
1, 178329, Note_off_c, 0, 37, 59
1, 178341, Note_off_c, 0, 44, 55
1, 178393, Note_on_c, 0, 34, 75
1, 178404, Note_on_c, 0, 85, 92
1, 178413, Note_off_c, 0, 36, 62
1, 178452, Note_off_c, 0, 87, 63
1, 178521, Note_on_c, 0, 36, 80
1, 178530, Note_on_c, 0, 87, 99
1, 178536, Note_off_c, 0, 34, 62
1, 178550, Note_off_c, 0, 85, 66
1, 178643, Note_on_c, 0, 34, 78
1, 178647, Note_on_c, 0, 85, 94
1, 178663, Note_off_c, 0, 36, 61
1, 178714, Note_off_c, 0, 87, 61
1, 178763, Note_on_c, 0, 84, 95
1, 178769, Note_on_c, 0, 32, 75
1, 178785, Note_off_c, 0, 34, 63
1, 178810, Note_off_c, 0, 85, 66
1, 178897, Note_on_c, 0, 31, 76
1, 178905, Note_on_c, 0, 85, 92
1, 178918, Note_off_c, 0, 32, 62
1, 178929, Note_off_c, 0, 84, 62
1, 179011, Note_on_c, 0, 84, 95
1, 179027, Note_on_c, 0, 32, 77
1, 179043, Note_off_c, 0, 31, 61
1, 179051, Note_off_c, 0, 85, 64
1, 179143, Note_on_c, 0, 82, 92
1, 179148, Note_on_c, 0, 34, 78
1, 179169, Note_off_c, 0, 32, 60
1, 179176, Note_off_c, 0, 84, 59
1, 179186, Note_on_c, 0, 76, 30
1, 179187, Note_off_c, 0, 76, 127
1, 179261, Note_on_c, 0, 84, 95
1, 179270, Note_on_c, 0, 32, 77
1, 179277, Note_off_c, 0, 82, 65
1, 179290, Note_off_c, 0, 34, 61
1, 179323, Control_c, 0, 64, 52
1, 179378, Note_on_c, 0, 82, 93
1, 179390, Note_on_c, 0, 34, 80
1, 179428, Note_off_c, 0, 32, 62
1, 179484, Note_on_c, 0, 35, 77
1, 179507, Note_on_c, 0, 80, 94
1, 179513, Note_off_c, 0, 34, 61
1, 179514, Note_off_c, 0, 84, 58
1, 179553, Note_off_c, 0, 82, 65
1, 179620, Note_on_c, 0, 34, 78
1, 179639, Note_off_c, 0, 35, 61
1, 179642, Note_on_c, 0, 82, 91
1, 179670, Note_off_c, 0, 80, 62
1, 179747, Note_on_c, 0, 35, 75
1, 179762, Note_on_c, 0, 80, 89
1, 179794, Note_off_c, 0, 82, 66
1, 179874, Note_off_c, 0, 34, 25
1, 179891, Note_on_c, 0, 36, 67
1, 179896, Note_on_c, 0, 78, 91
1, 179897, Note_off_c, 0, 35, 62
1, 179931, Note_off_c, 0, 80, 63
1, 180009, Note_off_c, 0, 36, 62
1, 180015, Note_on_c, 0, 35, 65
1, 180042, Note_on_c, 0, 80, 81
1, 180072, Note_off_c, 0, 78, 61
1, 180086, Control_c, 0, 64, 53
1, 180101, Control_c, 0, 64, 55
1, 180116, Control_c, 0, 64, 57
1, 180131, Control_c, 0, 64, 59
1, 180146, Control_c, 0, 64, 61
1, 180158, Note_on_c, 0, 36, 47
1, 180160, Note_off_c, 0, 35, 62
1, 180160, Control_c, 0, 64, 62
1, 180175, Control_c, 0, 64, 63
1, 180191, Control_c, 0, 64, 64
1, 180197, Note_on_c, 0, 78, 65
1, 180206, Control_c, 0, 64, 64
1, 180221, Control_c, 0, 64, 65
1, 180235, Control_c, 0, 64, 66
1, 180250, Control_c, 0, 64, 67
1, 180253, Note_off_c, 0, 80, 59
1, 180265, Control_c, 0, 64, 68
1, 180287, Control_c, 0, 64, 70
1, 180302, Control_c, 0, 64, 71
1, 180316, Control_c, 0, 64, 73
1, 180331, Control_c, 0, 64, 74
1, 180346, Note_off_c, 0, 36, 60
1, 180346, Control_c, 0, 64, 75
1, 180361, Control_c, 0, 64, 75
1, 180363, Note_on_c, 0, 37, 45
1, 180390, Control_c, 0, 64, 76
1, 180480, Control_c, 0, 64, 75
1, 180481, Note_on_c, 0, 77, 62
1, 180495, Control_c, 0, 64, 72
1, 180510, Control_c, 0, 64, 67
1, 180519, Note_off_c, 0, 78, 58
1, 180524, Control_c, 0, 64, 61
1, 180539, Control_c, 0, 64, 53
1, 180554, Control_c, 0, 64, 49
1, 180569, Control_c, 0, 64, 47
1, 180598, Control_c, 0, 64, 48
1, 180613, Control_c, 0, 64, 53
1, 180628, Control_c, 0, 64, 60
1, 180642, Control_c, 0, 64, 64
1, 180657, Control_c, 0, 64, 69
1, 180672, Control_c, 0, 64, 75
1, 180687, Control_c, 0, 64, 81
1, 180702, Control_c, 0, 64, 85
1, 180716, Control_c, 0, 64, 90
1, 180731, Control_c, 0, 64, 95
1, 180746, Control_c, 0, 64, 101
1, 180761, Control_c, 0, 64, 110
1, 180772, Note_off_c, 0, 37, 33
1, 180776, Control_c, 0, 64, 127
1, 180823, Note_on_c, 0, 41, 31
1, 180826, Note_on_c, 0, 49, 31
1, 180882, Poly_aftertouch_c, 0, 44, 127
1, 180926, Note_off_c, 0, 41, 47
1, 180934, Poly_aftertouch_c, 0, 44, 0
1, 180948, Note_on_c, 0, 37, 33
1, 180961, Note_off_c, 0, 49, 35
1, 181091, Note_off_c, 0, 77, 36
1, 181100, Note_on_c, 0, 49, 33
1, 181106, Note_on_c, 0, 41, 36
1, 181122, Note_off_c, 0, 37, 36
1, 181129, Note_on_c, 0, 44, 21
1, 181198, Note_off_c, 0, 44, 41
1, 181202, Note_off_c, 0, 49, 42
1, 181203, Note_off_c, 0, 41, 55
1, 181273, Note_on_c, 0, 37, 24
1, 181331, Note_off_c, 0, 37, 44
1, 181362, Note_on_c, 0, 41, 28
1, 181371, Note_on_c, 0, 49, 26
1, 181380, Note_on_c, 0, 44, 18
1, 181442, Note_off_c, 0, 49, 46
1, 181460, Note_off_c, 0, 41, 50
1, 181478, Note_off_c, 0, 44, 33
1, 181554, Note_on_c, 0, 37, 21
1, 181711, Note_off_c, 0, 37, 41
1, 181717, Note_on_c, 0, 41, 33
1, 181733, Note_on_c, 0, 44, 13
1, 181749, Note_on_c, 0, 65, 50
1, 181759, Note_on_c, 0, 53, 36
1, 181764, Poly_aftertouch_c, 0, 49, 127
1, 181877, Poly_aftertouch_c, 0, 49, 0
1, 181894, Note_off_c, 0, 41, 39
1, 181911, Note_on_c, 0, 37, 29
1, 181915, Note_off_c, 0, 44, 38
1, 181964, Note_off_c, 0, 53, 48
1, 182023, Note_on_c, 0, 41, 38
1, 182024, Note_on_c, 0, 49, 38
1, 182048, Note_on_c, 0, 44, 34
1, 182077, Note_off_c, 0, 65, 61
1, 182082, Note_off_c, 0, 37, 37
1, 182093, Note_on_c, 0, 56, 58
1, 182093, Note_on_c, 0, 68, 65
1, 182122, Note_off_c, 0, 56, 65
1, 182203, Note_off_c, 0, 49, 32
1, 182215, Note_off_c, 0, 41, 43
1, 182222, Note_on_c, 0, 37, 40
1, 182236, Note_on_c, 0, 73, 63
1, 182237, Note_off_c, 0, 44, 32
1, 182247, Note_off_c, 0, 68, 51
1, 182253, Note_on_c, 0, 61, 43
1, 182273, Control_c, 0, 64, 107
1, 182287, Control_c, 0, 64, 81
1, 182302, Control_c, 0, 64, 66
1, 182317, Control_c, 0, 64, 59
1, 182332, Control_c, 0, 64, 58
1, 182347, Control_c, 0, 64, 59
1, 182361, Control_c, 0, 64, 62
1, 182376, Control_c, 0, 64, 65
1, 182391, Control_c, 0, 64, 72
1, 182403, Note_on_c, 0, 44, 29
1, 182406, Note_on_c, 0, 49, 40
1, 182406, Control_c, 0, 64, 86
1, 182411, Note_on_c, 0, 41, 41
1, 182420, Control_c, 0, 64, 127
1, 182429, Note_off_c, 0, 37, 44
1, 182482, Note_off_c, 0, 61, 61
1, 182525, Note_off_c, 0, 49, 52
1, 182566, Note_off_c, 0, 44, 42
1, 182569, Note_on_c, 0, 37, 39
1, 182581, Note_off_c, 0, 41, 34
1, 182674, Note_on_c, 0, 77, 74
1, 182681, Note_on_c, 0, 65, 54
1, 182708, Note_on_c, 0, 41, 42
1, 182713, Note_on_c, 0, 49, 19
1, 182714, Note_off_c, 0, 73, 59
1, 182723, Note_on_c, 0, 44, 21
1, 182747, Note_off_c, 0, 37, 40
1, 182780, Note_off_c, 0, 41, 57
1, 182793, Note_off_c, 0, 44, 52
1, 182817, Note_off_c, 0, 65, 61
1, 182820, Note_off_c, 0, 49, 37
1, 182825, Note_on_c, 0, 37, 36
1, 182840, Note_on_c, 0, 76, 10
1, 182869, Note_off_c, 0, 77, 62
1, 182885, Note_off_c, 0, 76, 60
1, 182950, Note_on_c, 0, 49, 34
1, 182952, Poly_aftertouch_c, 0, 69, 127
1, 182969, Note_on_c, 0, 73, 77
1, 182970, Note_on_c, 0, 44, 30
1, 182976, Note_on_c, 0, 41, 29
1, 182978, Note_on_c, 0, 61, 70
1, 182991, Note_off_c, 0, 37, 33
1, 183055, Note_off_c, 0, 41, 50
1, 183058, Note_off_c, 0, 49, 53
1, 183069, Note_off_c, 0, 61, 60
1, 183075, Poly_aftertouch_c, 0, 69, 0
1, 183107, Note_on_c, 0, 72, 67
1, 183109, Note_on_c, 0, 60, 59
1, 183124, Note_off_c, 0, 44, 40
1, 183124, Note_off_c, 0, 73, 63
1, 183134, Note_on_c, 0, 39, 46
1, 183141, Control_c, 0, 64, 105
1, 183156, Control_c, 0, 64, 81
1, 183171, Control_c, 0, 64, 65
1, 183185, Control_c, 0, 64, 57
1, 183200, Control_c, 0, 64, 52
1, 183230, Control_c, 0, 64, 53
1, 183244, Control_c, 0, 64, 56
1, 183259, Control_c, 0, 64, 62
1, 183264, Note_off_c, 0, 39, 50
1, 183274, Control_c, 0, 64, 66
1, 183290, Note_on_c, 0, 51, 42
1, 183291, Note_on_c, 0, 42, 38
1, 183295, Note_on_c, 0, 44, 20
1, 183297, Control_c, 0, 64, 73
1, 183311, Control_c, 0, 64, 81
1, 183321, Note_off_c, 0, 60, 57
1, 183326, Control_c, 0, 64, 89
1, 183341, Control_c, 0, 64, 95
1, 183356, Control_c, 0, 64, 96
1, 183371, Control_c, 0, 64, 98
1, 183386, Control_c, 0, 64, 101
1, 183401, Control_c, 0, 64, 105
1, 183416, Control_c, 0, 64, 110
1, 183419, Note_off_c, 0, 42, 47
1, 183431, Control_c, 0, 64, 116
1, 183440, Note_on_c, 0, 39, 49
1, 183442, Note_off_c, 0, 44, 40
1, 183446, Control_c, 0, 64, 121
1, 183459, Note_off_c, 0, 51, 35
1, 183460, Control_c, 0, 64, 123
1, 183520, Control_c, 0, 64, 127
1, 183535, Note_on_c, 0, 75, 74
1, 183549, Note_off_c, 0, 72, 55
1, 183553, Note_on_c, 0, 63, 61
1, 183581, Note_on_c, 0, 42, 35
1, 183587, Note_on_c, 0, 51, 41
1, 183592, Note_on_c, 0, 44, 29
1, 183599, Note_off_c, 0, 39, 37
1, 183640, Note_off_c, 0, 42, 58
1, 183649, Note_off_c, 0, 44, 52
1, 183672, Note_off_c, 0, 51, 41
1, 183692, Note_on_c, 0, 39, 38
1, 183720, Note_off_c, 0, 63, 55
1, 183730, Note_off_c, 0, 75, 61
1, 183812, Note_on_c, 0, 42, 27
1, 183827, Note_on_c, 0, 44, 26
1, 183834, Note_off_c, 0, 39, 32
1, 183846, Note_on_c, 0, 72, 67
1, 183859, Note_on_c, 0, 60, 54
1, 183860, Note_on_c, 0, 51, 32
1, 183877, Note_off_c, 0, 42, 49
1, 183885, Note_off_c, 0, 60, 63
1, 183890, Note_off_c, 0, 44, 49
1, 183919, Note_off_c, 0, 51, 51
1, 183965, Note_off_c, 0, 72, 60
1, 183998, Note_on_c, 0, 73, 55
1, 184008, Control_c, 0, 64, 108
1, 184015, Note_on_c, 0, 61, 46
1, 184023, Control_c, 0, 64, 93
1, 184036, Note_on_c, 0, 41, 38
1, 184045, Control_c, 0, 64, 78
1, 184060, Control_c, 0, 64, 67
1, 184075, Control_c, 0, 64, 61
1, 184090, Control_c, 0, 64, 59
1, 184120, Control_c, 0, 64, 60
1, 184134, Control_c, 0, 64, 62
1, 184149, Control_c, 0, 64, 65
1, 184164, Control_c, 0, 64, 70
1, 184170, Note_off_c, 0, 41, 35
1, 184179, Control_c, 0, 64, 78
1, 184194, Control_c, 0, 64, 91
1, 184200, Note_on_c, 0, 53, 41
1, 184201, Note_on_c, 0, 49, 30
1, 184209, Control_c, 0, 64, 109
1, 184213, Note_off_c, 0, 61, 38
1, 184220, Note_on_c, 0, 44, 26
1, 184224, Control_c, 0, 64, 127
1, 184278, Note_off_c, 0, 73, 65
1, 184342, Note_off_c, 0, 53, 35
1, 184357, Note_off_c, 0, 49, 34
1, 184359, Note_on_c, 0, 41, 38
1, 184372, Note_off_c, 0, 44, 34
1, 184495, Note_on_c, 0, 68, 51
1, 184508, Note_off_c, 0, 41, 34
1, 184510, Note_on_c, 0, 56, 35
1, 184514, Note_on_c, 0, 49, 17
1, 184516, Note_on_c, 0, 53, 22
1, 184535, Note_on_c, 0, 44, 32
1, 184602, Note_off_c, 0, 44, 47
1, 184603, Note_off_c, 0, 49, 39
1, 184626, Note_off_c, 0, 53, 34
1, 184659, Note_on_c, 0, 41, 36
1, 184728, Control_c, 0, 64, 123
1, 184748, Note_off_c, 0, 41, 49
1, 184768, Note_on_c, 0, 53, 39
1, 184769, Note_on_c, 0, 44, 36
1, 184772, Control_c, 0, 64, 121
1, 184799, Note_on_c, 0, 49, 7
1, 184808, Control_c, 0, 64, 119
1, 184880, Note_off_c, 0, 49, 42
1, 184895, Note_off_c, 0, 44, 49
1, 184904, Note_off_c, 0, 53, 36
1, 184930, Note_on_c, 0, 41, 44
1, 185008, Note_off_c, 0, 56, 43
1, 185051, Note_on_c, 0, 53, 37
1, 185052, Note_off_c, 0, 41, 52
1, 185064, Note_on_c, 0, 44, 40
1, 185091, Control_c, 0, 64, 118
1, 185096, Note_on_c, 0, 49, 28
1, 185106, Control_c, 0, 64, 117
1, 185115, Note_off_c, 0, 53, 53
1, 185121, Control_c, 0, 64, 116
1, 185136, Control_c, 0, 64, 115
1, 185146, Note_off_c, 0, 44, 52
1, 185149, Note_on_c, 0, 41, 35
1, 185151, Control_c, 0, 64, 113
1, 185157, Note_off_c, 0, 49, 56
1, 185166, Control_c, 0, 64, 113
1, 185195, Control_c, 0, 64, 112
1, 185210, Control_c, 0, 64, 111
1, 185216, Note_off_c, 0, 41, 52
1, 185225, Control_c, 0, 64, 110
1, 185240, Control_c, 0, 64, 106
1, 185254, Control_c, 0, 64, 95
1, 185269, Control_c, 0, 64, 80
1, 185270, Note_on_c, 0, 70, 54
1, 185284, Control_c, 0, 64, 67
1, 185295, Note_on_c, 0, 58, 40
1, 185299, Control_c, 0, 64, 59
1, 185311, Note_on_c, 0, 49, 35
1, 185313, Control_c, 0, 64, 54
1, 185322, Note_on_c, 0, 51, 45
1, 185328, Control_c, 0, 64, 55
1, 185331, Note_on_c, 0, 54, 19
1, 185340, Note_off_c, 0, 68, 35
1, 185343, Control_c, 0, 64, 57
1, 185358, Control_c, 0, 64, 61
1, 185373, Control_c, 0, 64, 65
1, 185387, Control_c, 0, 64, 70
1, 185396, Note_off_c, 0, 54, 41
1, 185402, Control_c, 0, 64, 82
1, 185407, Note_off_c, 0, 49, 58
1, 185412, Note_off_c, 0, 51, 57
1, 185417, Control_c, 0, 64, 93
1, 185431, Control_c, 0, 64, 101
1, 185444, Note_on_c, 0, 42, 55
1, 185446, Control_c, 0, 64, 102
1, 185461, Control_c, 0, 64, 103
1, 185476, Control_c, 0, 64, 103
1, 185491, Control_c, 0, 64, 104
1, 185506, Control_c, 0, 64, 104
1, 185521, Control_c, 0, 64, 105
1, 185565, Note_on_c, 0, 66, 66
1, 185565, Note_off_c, 0, 42, 57
1, 185579, Note_on_c, 0, 51, 39
1, 185587, Control_c, 0, 64, 104
1, 185599, Note_on_c, 0, 49, 33
1, 185602, Control_c, 0, 64, 103
1, 185609, Note_on_c, 0, 54, 27
1, 185617, Control_c, 0, 64, 103
1, 185631, Control_c, 0, 64, 102
1, 185637, Note_off_c, 0, 70, 52
1, 185653, Note_off_c, 0, 51, 50
1, 185661, Control_c, 0, 64, 102
1, 185667, Note_off_c, 0, 54, 49
1, 185676, Note_on_c, 0, 65, 66
1, 185676, Control_c, 0, 64, 100
1, 185691, Control_c, 0, 64, 93
1, 185692, Note_off_c, 0, 49, 54
1, 185705, Control_c, 0, 64, 83
1, 185720, Control_c, 0, 64, 71
1, 185726, Note_on_c, 0, 44, 50
1, 185734, Note_off_c, 0, 58, 36
1, 185735, Control_c, 0, 64, 61
1, 185750, Control_c, 0, 64, 54
1, 185753, Note_off_c, 0, 66, 36
1, 185765, Control_c, 0, 64, 54
1, 185781, Control_c, 0, 64, 55
1, 185796, Control_c, 0, 64, 57
1, 185810, Control_c, 0, 64, 62
1, 185825, Control_c, 0, 64, 66
1, 185840, Control_c, 0, 64, 72
1, 185845, Note_on_c, 0, 49, 45
1, 185847, Note_off_c, 0, 44, 58
1, 185855, Control_c, 0, 64, 80
1, 185857, Note_on_c, 0, 56, 57
1, 185866, Note_on_c, 0, 53, 48
1, 185870, Control_c, 0, 64, 88
1, 185884, Control_c, 0, 64, 91
1, 185899, Control_c, 0, 64, 91
1, 185914, Control_c, 0, 64, 93
1, 185929, Control_c, 0, 64, 96
1, 185944, Control_c, 0, 64, 100
1, 185955, Note_off_c, 0, 49, 58
1, 185959, Control_c, 0, 64, 104
1, 185965, Note_off_c, 0, 56, 52
1, 185974, Control_c, 0, 64, 107
1, 185976, Note_on_c, 0, 44, 62
1, 185979, Note_off_c, 0, 53, 60
1, 185989, Control_c, 0, 64, 109
1, 186003, Control_c, 0, 64, 110
1, 186048, Control_c, 0, 64, 111
1, 186062, Control_c, 0, 64, 114
1, 186076, Control_c, 0, 64, 123
1, 186080, Note_on_c, 0, 68, 80
1, 186091, Control_c, 0, 64, 127
1, 186107, Note_off_c, 0, 44, 55
1, 186108, Note_on_c, 0, 49, 46
1, 186120, Note_on_c, 0, 53, 48
1, 186129, Note_on_c, 0, 56, 47
1, 186135, Note_off_c, 0, 65, 53
1, 186197, Note_off_c, 0, 49, 56
1, 186205, Note_off_c, 0, 53, 57
1, 186205, Note_off_c, 0, 56, 53
1, 186224, Note_on_c, 0, 44, 58
1, 186359, Note_on_c, 0, 65, 84
1, 186360, Note_on_c, 0, 49, 42
1, 186371, Note_on_c, 0, 53, 32
1, 186379, Note_on_c, 0, 56, 37
1, 186380, Note_off_c, 0, 44, 35
1, 186406, Note_off_c, 0, 68, 57
1, 186449, Note_off_c, 0, 56, 49
1, 186465, Note_off_c, 0, 53, 54
1, 186468, Note_on_c, 0, 63, 86
1, 186478, Note_off_c, 0, 65, 60
1, 186495, Note_on_c, 0, 44, 63
1, 186513, Control_c, 0, 64, 112
1, 186524, Note_off_c, 0, 49, 43
1, 186528, Control_c, 0, 64, 99
1, 186543, Control_c, 0, 64, 85
1, 186558, Control_c, 0, 64, 72
1, 186573, Control_c, 0, 64, 63
1, 186588, Control_c, 0, 64, 55
1, 186603, Control_c, 0, 64, 51
1, 186618, Control_c, 0, 64, 50
1, 186625, Note_off_c, 0, 44, 59
1, 186630, Note_on_c, 0, 51, 58
1, 186639, Note_on_c, 0, 56, 56
1, 186641, Note_on_c, 0, 48, 54
1, 186647, Control_c, 0, 64, 52
1, 186662, Control_c, 0, 64, 59
1, 186677, Control_c, 0, 64, 65
1, 186692, Control_c, 0, 64, 71
1, 186707, Control_c, 0, 64, 81
1, 186722, Control_c, 0, 64, 100
1, 186737, Control_c, 0, 64, 127
1, 186744, Note_on_c, 0, 44, 70
1, 186748, Note_off_c, 0, 56, 58
1, 186760, Note_off_c, 0, 48, 53
1, 186764, Note_off_c, 0, 51, 58
1, 186874, Note_on_c, 0, 66, 88
1, 186881, Note_on_c, 0, 56, 59
1, 186886, Note_on_c, 0, 51, 63
1, 186910, Note_off_c, 0, 63, 57
1, 186917, Note_on_c, 0, 48, 46
1, 186973, Note_off_c, 0, 56, 62
1, 186978, Note_off_c, 0, 48, 57
1, 187008, Note_off_c, 0, 51, 62
1, 187113, Note_on_c, 0, 56, 60
1, 187130, Note_on_c, 0, 51, 58
1, 187134, Note_on_c, 0, 48, 47
1, 187173, Note_on_c, 0, 63, 87
1, 187212, Note_off_c, 0, 44, 31
1, 187226, Note_off_c, 0, 66, 60
1, 187238, Note_off_c, 0, 56, 54
1, 187258, Note_off_c, 0, 48, 50
1, 187263, Control_c, 0, 64, 88
1, 187277, Control_c, 0, 64, 65
1, 187285, Note_on_c, 0, 60, 89
1, 187288, Note_on_c, 0, 45, 64
1, 187291, Note_off_c, 0, 51, 57
1, 187292, Control_c, 0, 64, 49
1, 187307, Control_c, 0, 64, 38
1, 187314, Note_off_c, 0, 63, 59
1, 187322, Control_c, 0, 64, 37
1, 187337, Control_c, 0, 64, 36
1, 187351, Control_c, 0, 64, 38
1, 187366, Control_c, 0, 64, 53
1, 187382, Control_c, 0, 64, 63
1, 187397, Control_c, 0, 64, 70
1, 187412, Control_c, 0, 64, 80
1, 187427, Control_c, 0, 64, 97
1, 187442, Control_c, 0, 64, 127
1, 187450, Note_on_c, 0, 53, 61
1, 187458, Note_on_c, 0, 48, 50
1, 187458, Note_on_c, 0, 57, 65
1, 187476, Note_off_c, 0, 45, 49
1, 187564, Note_on_c, 0, 45, 59
1, 187592, Note_off_c, 0, 53, 57
1, 187600, Note_off_c, 0, 57, 40
1, 187627, Note_off_c, 0, 48, 33
1, 187720, Note_on_c, 0, 65, 87
1, 187734, Note_on_c, 0, 53, 45
1, 187734, Note_on_c, 0, 57, 46
1, 187756, Note_on_c, 0, 48, 54
1, 187765, Note_off_c, 0, 45, 55
1, 187884, Note_on_c, 0, 45, 58
1, 187885, Note_off_c, 0, 48, 57
1, 187887, Note_off_c, 0, 57, 60
1, 187888, Note_off_c, 0, 53, 59
1, 188009, Note_on_c, 0, 57, 64
1, 188019, Note_on_c, 0, 53, 52
1, 188030, Note_on_c, 0, 48, 50
1, 188045, Note_off_c, 0, 45, 56
1, 188083, Note_off_c, 0, 60, 33
1, 188106, Note_off_c, 0, 57, 58
1, 188122, Note_off_c, 0, 53, 61
1, 188128, Note_on_c, 0, 45, 57
1, 188138, Note_off_c, 0, 48, 58
1, 188230, Note_off_c, 0, 45, 59
1, 188266, Note_on_c, 0, 57, 42
1, 188278, Note_on_c, 0, 53, 32
1, 188281, Note_on_c, 0, 48, 37
1, 188348, Note_off_c, 0, 57, 56
1, 188369, Note_off_c, 0, 53, 55
1, 188375, Note_on_c, 0, 45, 50
1, 188405, Note_off_c, 0, 48, 38
1, 188521, Note_off_c, 0, 45, 54
1, 188545, Note_off_c, 0, 65, 54
1, 188568, Control_c, 0, 64, 110
1, 188582, Note_on_c, 0, 73, 56
1, 188583, Control_c, 0, 64, 91
1, 188589, Note_on_c, 0, 61, 43
1, 188591, Note_on_c, 0, 49, 39
1, 188596, Note_on_c, 0, 58, 37
1, 188598, Control_c, 0, 64, 75
1, 188607, Note_on_c, 0, 53, 26
1, 188612, Control_c, 0, 64, 64
1, 188627, Control_c, 0, 64, 57
1, 188642, Control_c, 0, 64, 56
1, 188656, Control_c, 0, 64, 56
1, 188671, Control_c, 0, 64, 59
1, 188686, Control_c, 0, 64, 63
1, 188697, Note_off_c, 0, 61, 60
1, 188701, Note_off_c, 0, 49, 57
1, 188701, Control_c, 0, 64, 69
1, 188716, Control_c, 0, 64, 79
1, 188728, Note_off_c, 0, 58, 37
1, 188731, Control_c, 0, 64, 99
1, 188740, Note_on_c, 0, 46, 51
1, 188746, Control_c, 0, 64, 127
1, 188753, Note_off_c, 0, 53, 41
1, 188785, Note_off_c, 0, 73, 64
1, 188835, Note_off_c, 0, 46, 59
1, 188860, Note_on_c, 0, 49, 42
1, 188862, Note_on_c, 0, 77, 72
1, 188867, Note_on_c, 0, 58, 43
1, 188888, Note_on_c, 0, 53, 29
1, 188922, Note_off_c, 0, 58, 56
1, 188925, Note_off_c, 0, 77, 60
1, 188945, Note_off_c, 0, 49, 57
1, 188961, Note_off_c, 0, 53, 45
1, 188972, Note_on_c, 0, 46, 48
1, 188999, Note_on_c, 0, 82, 63
1, 189000, Note_on_c, 0, 70, 57
1, 189071, Note_off_c, 0, 46, 55
1, 189090, Note_on_c, 0, 49, 43
1, 189116, Note_on_c, 0, 53, 22
1, 189123, Note_on_c, 0, 58, 37
1, 189194, Note_off_c, 0, 70, 59
1, 189199, Note_off_c, 0, 58, 54
1, 189221, Note_off_c, 0, 53, 52
1, 189227, Note_off_c, 0, 49, 35
1, 189234, Note_on_c, 0, 46, 40
1, 189389, Note_on_c, 0, 85, 69
1, 189390, Note_off_c, 0, 46, 55
1, 189405, Note_on_c, 0, 73, 53
1, 189411, Note_off_c, 0, 82, 54
1, 189442, Note_on_c, 0, 49, 19
1, 189442, Note_on_c, 0, 58, 18
1, 189447, Note_on_c, 0, 53, 18
1, 189494, Note_off_c, 0, 49, 50
1, 189499, Note_off_c, 0, 58, 45
1, 189506, Note_off_c, 0, 53, 46
1, 189529, Note_on_c, 0, 46, 50
1, 189530, Note_off_c, 0, 73, 55
1, 189622, Note_off_c, 0, 85, 62
1, 189668, Note_off_c, 0, 46, 37
1, 189674, Note_on_c, 0, 82, 74
1, 189681, Note_on_c, 0, 49, 39
1, 189682, Note_on_c, 0, 58, 33
1, 189694, Note_on_c, 0, 70, 47
1, 189697, Note_on_c, 0, 53, 23
1, 189724, Note_off_c, 0, 49, 63
1, 189736, Note_off_c, 0, 58, 56
1, 189748, Note_off_c, 0, 70, 63
1, 189770, Note_off_c, 0, 53, 41
1, 189795, Note_off_c, 0, 82, 63
1, 189795, Note_on_c, 0, 81, 66
1, 189805, Note_on_c, 0, 69, 54
1, 189821, Note_on_c, 0, 48, 47
1, 189835, Control_c, 0, 64, 99
1, 189849, Control_c, 0, 64, 75
1, 189864, Control_c, 0, 64, 63
1, 189879, Control_c, 0, 64, 52
1, 189894, Control_c, 0, 64, 51
1, 189908, Control_c, 0, 64, 51
1, 189912, Note_off_c, 0, 48, 51
1, 189923, Control_c, 0, 64, 52
1, 189938, Control_c, 0, 64, 57
1, 189950, Note_on_c, 0, 60, 38
1, 189953, Control_c, 0, 64, 63
1, 189960, Note_on_c, 0, 51, 45
1, 189968, Control_c, 0, 64, 71
1, 189969, Note_off_c, 0, 69, 53
1, 189983, Control_c, 0, 64, 83
1, 189986, Note_on_c, 0, 53, 16
1, 189998, Control_c, 0, 64, 105
1, 190013, Control_c, 0, 64, 127
1, 190072, Note_off_c, 0, 51, 52
1, 190091, Note_on_c, 0, 48, 47
1, 190104, Note_off_c, 0, 53, 37
1, 190105, Note_off_c, 0, 60, 36
1, 190199, Note_on_c, 0, 84, 69
1, 190219, Note_off_c, 0, 48, 56
1, 190228, Note_on_c, 0, 72, 45
1, 190233, Note_off_c, 0, 81, 31
1, 190239, Note_on_c, 0, 60, 40
1, 190245, Note_on_c, 0, 51, 38
1, 190254, Note_on_c, 0, 53, 39
1, 190308, Note_off_c, 0, 51, 58
1, 190319, Note_off_c, 0, 53, 57
1, 190334, Note_off_c, 0, 84, 59
1, 190353, Note_on_c, 0, 48, 55
1, 190354, Note_off_c, 0, 60, 44
1, 190361, Note_off_c, 0, 72, 35
1, 190451, Note_off_c, 0, 48, 60
1, 190465, Note_on_c, 0, 51, 45
1, 190475, Note_on_c, 0, 81, 72
1, 190489, Note_on_c, 0, 69, 56
1, 190497, Note_on_c, 0, 53, 20
1, 190498, Note_on_c, 0, 60, 36
1, 190508, Note_off_c, 0, 69, 62
1, 190531, Note_off_c, 0, 51, 59
1, 190532, Note_off_c, 0, 60, 53
1, 190537, Note_off_c, 0, 53, 51
1, 190618, Note_on_c, 0, 82, 62
1, 190618, Note_off_c, 0, 81, 59
1, 190627, Note_on_c, 0, 49, 47
1, 190641, Note_on_c, 0, 70, 47
1, 190644, Control_c, 0, 64, 86
1, 190659, Control_c, 0, 64, 66
1, 190673, Control_c, 0, 64, 53
1, 190688, Control_c, 0, 64, 47
1, 190718, Control_c, 0, 64, 49
1, 190732, Control_c, 0, 64, 56
1, 190747, Control_c, 0, 64, 64
1, 190749, Note_off_c, 0, 49, 56
1, 190762, Control_c, 0, 64, 71
1, 190785, Control_c, 0, 64, 86
1, 190799, Control_c, 0, 64, 127
1, 190809, Note_on_c, 0, 58, 29
1, 190817, Note_on_c, 0, 53, 48
1, 190820, Note_on_c, 0, 61, 33
1, 190848, Note_off_c, 0, 70, 59
1, 190856, Note_off_c, 0, 82, 60
1, 190913, Note_off_c, 0, 53, 54
1, 190943, Note_on_c, 0, 49, 41
1, 190954, Note_off_c, 0, 61, 36
1, 190963, Note_off_c, 0, 58, 38
1, 191053, Note_off_c, 0, 49, 54
1, 191069, Note_on_c, 0, 77, 58
1, 191083, Note_on_c, 0, 61, 37
1, 191089, Note_on_c, 0, 58, 35
1, 191092, Note_on_c, 0, 65, 46
1, 191102, Note_on_c, 0, 53, 27
1, 191151, Note_off_c, 0, 61, 45
1, 191157, Note_off_c, 0, 53, 51
1, 191163, Note_off_c, 0, 58, 50
1, 191199, Note_on_c, 0, 49, 50
1, 191325, Note_on_c, 0, 58, 38
1, 191325, Note_on_c, 0, 61, 42
1, 191336, Note_on_c, 0, 53, 41
1, 191354, Note_off_c, 0, 49, 37
1, 191459, Note_off_c, 0, 58, 60
1, 191474, Note_on_c, 0, 49, 55
1, 191476, Note_off_c, 0, 65, 54
1, 191487, Note_off_c, 0, 61, 34
1, 191490, Note_off_c, 0, 53, 43
1, 191604, Note_off_c, 0, 49, 55
1, 191638, Note_on_c, 0, 61, 39
1, 191653, Note_on_c, 0, 58, 35
1, 191720, Note_off_c, 0, 61, 53
1, 191737, Note_off_c, 0, 58, 57
1, 191743, Note_on_c, 0, 49, 47
1, 191859, Control_c, 0, 64, 111
1, 191863, Note_on_c, 0, 78, 68
1, 191873, Control_c, 0, 64, 80
1, 191888, Control_c, 0, 64, 64
1, 191891, Note_on_c, 0, 58, 32
1, 191895, Note_off_c, 0, 49, 34
1, 191895, Note_off_c, 0, 77, 46
1, 191903, Note_on_c, 0, 63, 36
1, 191903, Control_c, 0, 64, 50
1, 191904, Note_on_c, 0, 54, 41
1, 191916, Note_on_c, 0, 66, 10
1, 191918, Control_c, 0, 64, 44
1, 191947, Control_c, 0, 64, 46
1, 191962, Control_c, 0, 64, 53
1, 191967, Note_off_c, 0, 63, 54
1, 191977, Control_c, 0, 64, 62
1, 191992, Control_c, 0, 64, 68
1, 192003, Note_off_c, 0, 54, 58
1, 192007, Control_c, 0, 64, 76
1, 192022, Control_c, 0, 64, 92
1, 192037, Note_on_c, 0, 51, 49
1, 192037, Note_off_c, 0, 58, 37
1, 192037, Control_c, 0, 64, 108
1, 192047, Poly_aftertouch_c, 0, 69, 127
1, 192052, Control_c, 0, 64, 127
1, 192094, Poly_aftertouch_c, 0, 69, 0
1, 192152, Note_on_c, 0, 75, 72
1, 192153, Note_on_c, 0, 58, 41
1, 192154, Note_on_c, 0, 54, 42
1, 192171, Note_off_c, 0, 51, 36
1, 192181, Note_off_c, 0, 78, 64
1, 192199, Note_off_c, 0, 54, 59
1, 192202, Note_on_c, 0, 63, 25
1, 192226, Note_off_c, 0, 58, 52
1, 192244, Control_c, 0, 64, 123
1, 192245, Note_off_c, 0, 63, 50
1, 192254, Note_on_c, 0, 73, 74
1, 192259, Control_c, 0, 64, 116
1, 192281, Control_c, 0, 64, 106
1, 192296, Control_c, 0, 64, 93
1, 192305, Note_off_c, 0, 75, 62
1, 192311, Control_c, 0, 64, 77
1, 192313, Note_on_c, 0, 53, 56
1, 192326, Control_c, 0, 64, 66
1, 192341, Control_c, 0, 64, 56
1, 192356, Control_c, 0, 64, 50
1, 192368, Note_off_c, 0, 66, 42
1, 192385, Control_c, 0, 64, 51
1, 192400, Control_c, 0, 64, 55
1, 192415, Control_c, 0, 64, 62
1, 192418, Note_off_c, 0, 53, 61
1, 192430, Control_c, 0, 64, 69
1, 192439, Note_on_c, 0, 65, 52
1, 192442, Note_on_c, 0, 61, 51
1, 192445, Control_c, 0, 64, 80
1, 192448, Note_on_c, 0, 58, 43
1, 192459, Control_c, 0, 64, 103
1, 192474, Control_c, 0, 64, 127
1, 192532, Note_off_c, 0, 58, 52
1, 192532, Note_off_c, 0, 65, 57
1, 192536, Note_on_c, 0, 53, 69
1, 192549, Note_off_c, 0, 61, 56
1, 192660, Note_off_c, 0, 53, 61
1, 192667, Note_off_c, 0, 73, 63
1, 192669, Note_on_c, 0, 77, 87
1, 192674, Note_on_c, 0, 65, 49
1, 192675, Note_on_c, 0, 58, 54
1, 192682, Note_on_c, 0, 61, 52
1, 192754, Note_off_c, 0, 58, 59
1, 192766, Note_off_c, 0, 65, 58
1, 192767, Note_off_c, 0, 61, 58
1, 192782, Note_on_c, 0, 53, 62
1, 192899, Note_off_c, 0, 53, 60
1, 192903, Note_on_c, 0, 58, 49
1, 192907, Note_on_c, 0, 65, 46
1, 192911, Note_on_c, 0, 61, 47
1, 192921, Note_on_c, 0, 73, 88
1, 192979, Note_off_c, 0, 65, 53
1, 192982, Note_off_c, 0, 77, 60
1, 193041, Note_on_c, 0, 72, 88
1, 193061, Note_on_c, 0, 53, 64
1, 193062, Note_off_c, 0, 58, 35
1, 193065, Note_off_c, 0, 73, 63
1, 193072, Note_off_c, 0, 61, 34
1, 193089, Control_c, 0, 64, 111
1, 193104, Control_c, 0, 64, 84
1, 193119, Control_c, 0, 64, 67
1, 193134, Control_c, 0, 64, 54
1, 193149, Control_c, 0, 64, 43
1, 193164, Control_c, 0, 64, 43
1, 193170, Note_off_c, 0, 53, 60
1, 193178, Control_c, 0, 64, 43
1, 193193, Control_c, 0, 64, 48
1, 193196, Note_on_c, 0, 63, 67
1, 193199, Note_on_c, 0, 60, 54
1, 193202, Note_on_c, 0, 57, 53
1, 193208, Control_c, 0, 64, 57
1, 193223, Control_c, 0, 64, 64
1, 193238, Control_c, 0, 64, 72
1, 193253, Control_c, 0, 64, 83
1, 193267, Control_c, 0, 64, 100
1, 193282, Control_c, 0, 64, 127
1, 193294, Note_on_c, 0, 53, 68
1, 193294, Note_off_c, 0, 57, 58
1, 193301, Note_off_c, 0, 63, 58
1, 193325, Note_off_c, 0, 60, 62
1, 193433, Note_on_c, 0, 75, 96
1, 193435, Note_off_c, 0, 53, 60
1, 193445, Note_on_c, 0, 57, 52
1, 193446, Note_on_c, 0, 63, 56
1, 193462, Note_on_c, 0, 60, 49
1, 193502, Note_off_c, 0, 72, 60
1, 193524, Note_off_c, 0, 57, 61
1, 193551, Note_off_c, 0, 63, 58
1, 193553, Note_off_c, 0, 60, 61
1, 193564, Note_on_c, 0, 53, 55
1, 193673, Note_on_c, 0, 63, 59
1, 193684, Note_on_c, 0, 60, 60
1, 193685, Note_on_c, 0, 57, 52
1, 193691, Note_off_c, 0, 53, 54
1, 193721, Note_on_c, 0, 72, 87
1, 193778, Note_off_c, 0, 75, 55
1, 193828, Note_off_c, 0, 63, 53
1, 193849, Note_off_c, 0, 57, 34
1, 193850, Note_on_c, 0, 70, 88
1, 193855, Note_off_c, 0, 60, 62
1, 193863, Note_off_c, 0, 72, 62
1, 193864, Note_on_c, 0, 54, 62
1, 193883, Control_c, 0, 64, 86
1, 193897, Control_c, 0, 64, 68
1, 193912, Control_c, 0, 64, 52
1, 193927, Control_c, 0, 64, 20
1, 193942, Control_c, 0, 64, 0
1, 194001, Control_c, 0, 64, 33
1, 194009, Note_on_c, 0, 66, 58
1, 194010, Note_on_c, 0, 58, 59
1, 194016, Control_c, 0, 64, 59
1, 194016, Note_off_c, 0, 54, 59
1, 194017, Note_on_c, 0, 61, 52
1, 194031, Control_c, 0, 64, 68
1, 194046, Control_c, 0, 64, 80
1, 194061, Control_c, 0, 64, 107
1, 194076, Control_c, 0, 64, 127
1, 194128, Note_off_c, 0, 58, 58
1, 194129, Note_off_c, 0, 66, 57
1, 194130, Note_on_c, 0, 54, 65
1, 194144, Note_off_c, 0, 61, 55
1, 194260, Note_on_c, 0, 73, 84
1, 194271, Note_on_c, 0, 58, 50
1, 194278, Note_off_c, 0, 54, 58
1, 194282, Note_on_c, 0, 61, 49
1, 194282, Note_on_c, 0, 66, 52
1, 194395, Note_off_c, 0, 58, 58
1, 194406, Note_off_c, 0, 61, 58
1, 194407, Note_on_c, 0, 54, 63
1, 194431, Note_off_c, 0, 66, 33
1, 194487, Note_off_c, 0, 70, 55
1, 194527, Note_on_c, 0, 58, 59
1, 194533, Note_off_c, 0, 54, 59
1, 194536, Note_on_c, 0, 61, 56
1, 194540, Note_on_c, 0, 66, 67
1, 194635, Note_off_c, 0, 66, 60
1, 194641, Note_on_c, 0, 54, 70
1, 194643, Note_off_c, 0, 58, 58
1, 194660, Note_off_c, 0, 61, 58
1, 194764, Note_on_c, 0, 58, 58
1, 194770, Note_on_c, 0, 66, 56
1, 194772, Note_off_c, 0, 54, 60
1, 194779, Note_on_c, 0, 61, 58
1, 194866, Note_off_c, 0, 58, 59
1, 194867, Note_off_c, 0, 66, 59
1, 194878, Note_on_c, 0, 54, 68
1, 194887, Note_off_c, 0, 61, 58
1, 194967, Poly_aftertouch_c, 0, 56, 127
1, 195003, Note_off_c, 0, 73, 63
1, 195004, Note_on_c, 0, 70, 79
1, 195004, Note_on_c, 0, 82, 85
1, 195010, Note_on_c, 0, 58, 49
1, 195010, Note_off_c, 0, 54, 60
1, 195018, Note_on_c, 0, 61, 51
1, 195018, Note_on_c, 0, 66, 47
1, 195020, Poly_aftertouch_c, 0, 56, 0
1, 195122, Note_off_c, 0, 58, 57
1, 195136, Note_on_c, 0, 54, 61
1, 195149, Note_off_c, 0, 66, 36
1, 195153, Note_off_c, 0, 61, 53
1, 195167, Note_off_c, 0, 70, 60
1, 195233, Note_off_c, 0, 82, 65
1, 195290, Note_on_c, 0, 85, 96
1, 195294, Note_off_c, 0, 54, 57
1, 195297, Note_on_c, 0, 61, 50
1, 195298, Note_on_c, 0, 66, 51
1, 195299, Note_on_c, 0, 58, 56
1, 195307, Note_on_c, 0, 73, 49
1, 195310, Note_on_c, 0, 86, 73
1, 195331, Note_off_c, 0, 73, 59
1, 195361, Note_off_c, 0, 85, 59
1, 195392, Note_off_c, 0, 66, 54
1, 195394, Note_off_c, 0, 86, 58
1, 195397, Note_on_c, 0, 90, 95
1, 195405, Note_on_c, 0, 78, 87
1, 195416, Note_on_c, 0, 54, 71
1, 195417, Note_off_c, 0, 58, 59
1, 195434, Note_off_c, 0, 61, 58
1, 195446, Note_on_c, 0, 80, 33
1, 195456, Note_on_c, 0, 91, 12
1, 195478, Note_off_c, 0, 80, 36
1, 195505, Note_off_c, 0, 91, 29
1, 195553, Note_off_c, 0, 54, 61
1, 195560, Note_on_c, 0, 58, 56
1, 195566, Note_on_c, 0, 61, 55
1, 195578, Note_on_c, 0, 66, 67
1, 195633, Note_off_c, 0, 78, 62
1, 195674, Note_off_c, 0, 66, 59
1, 195674, Note_on_c, 0, 54, 65
1, 195693, Note_off_c, 0, 58, 59
1, 195714, Note_off_c, 0, 61, 57
1, 195769, Note_off_c, 0, 90, 65
1, 195792, Note_on_c, 0, 94, 93
1, 195798, Note_on_c, 0, 82, 82
1, 195801, Note_off_c, 0, 54, 61
1, 195811, Note_on_c, 0, 58, 62
1, 195825, Note_on_c, 0, 66, 62
1, 195850, Note_on_c, 0, 61, 46
1, 195897, Note_off_c, 0, 58, 59
1, 195911, Note_on_c, 0, 54, 67
1, 195911, Note_off_c, 0, 66, 60
1, 195925, Note_off_c, 0, 61, 57
1, 195958, Note_off_c, 0, 82, 63
1, 195975, Note_off_c, 0, 94, 63
1, 196047, Note_on_c, 0, 66, 64
1, 196049, Note_off_c, 0, 54, 62
1, 196058, Note_on_c, 0, 58, 51
1, 196062, Note_on_c, 0, 61, 52
1, 196066, Note_on_c, 0, 90, 101
1, 196072, Note_on_c, 0, 78, 82
1, 196141, Note_off_c, 0, 58, 59
1, 196171, Note_off_c, 0, 78, 63
1, 196171, Note_off_c, 0, 90, 63
1, 196186, Note_on_c, 0, 89, 94
1, 196191, Note_on_c, 0, 77, 95
1, 196195, Note_off_c, 0, 61, 58
1, 196197, Note_on_c, 0, 56, 78
1, 196212, Note_off_c, 0, 66, 55
1, 196234, Control_c, 0, 64, 87
1, 196249, Control_c, 0, 64, 67
1, 196264, Control_c, 0, 64, 53
1, 196279, Control_c, 0, 64, 39
1, 196293, Control_c, 0, 64, 37
1, 196323, Control_c, 0, 64, 43
1, 196333, Note_off_c, 0, 56, 62
1, 196333, Note_on_c, 0, 61, 52
1, 196334, Note_on_c, 0, 68, 71
1, 196337, Control_c, 0, 64, 57
1, 196340, Note_on_c, 0, 59, 61
1, 196352, Control_c, 0, 64, 67
1, 196367, Control_c, 0, 64, 84
1, 196382, Control_c, 0, 64, 127
1, 196434, Note_on_c, 0, 56, 74
1, 196438, Note_off_c, 0, 77, 60
1, 196452, Note_off_c, 0, 59, 60
1, 196471, Note_off_c, 0, 61, 60
1, 196474, Note_off_c, 0, 68, 55
1, 196578, Note_on_c, 0, 92, 92
1, 196588, Note_on_c, 0, 59, 56
1, 196589, Note_on_c, 0, 80, 84
1, 196589, Note_off_c, 0, 89, 51
1, 196591, Note_on_c, 0, 61, 62
1, 196593, Note_off_c, 0, 56, 62
1, 196595, Note_on_c, 0, 68, 64
1, 196675, Note_off_c, 0, 59, 61
1, 196692, Note_off_c, 0, 61, 58
1, 196693, Note_off_c, 0, 68, 56
1, 196695, Note_on_c, 0, 56, 68
1, 196719, Poly_aftertouch_c, 0, 86, 127
1, 196741, Note_off_c, 0, 92, 65
1, 196743, Note_off_c, 0, 80, 61
1, 196788, Poly_aftertouch_c, 0, 86, 0
1, 196841, Note_on_c, 0, 61, 52
1, 196848, Note_on_c, 0, 59, 48
1, 196848, Note_on_c, 0, 68, 61
1, 196848, Note_off_c, 0, 56, 56
1, 196849, Note_on_c, 0, 89, 94
1, 196857, Note_on_c, 0, 77, 87
1, 196889, Note_off_c, 0, 59, 61
1, 196890, Note_off_c, 0, 77, 59
1, 196907, Note_off_c, 0, 61, 60
1, 196925, Note_off_c, 0, 89, 62
1, 196947, Note_off_c, 0, 68, 57
1, 196976, Note_on_c, 0, 78, 81
1, 196976, Note_on_c, 0, 90, 94
1, 197008, Note_on_c, 0, 58, 57
1, 197012, Control_c, 0, 64, 78
1, 197027, Control_c, 0, 64, 59
1, 197041, Control_c, 0, 64, 23
1, 197056, Control_c, 0, 64, 0
1, 197115, Control_c, 0, 64, 36
1, 197130, Control_c, 0, 64, 61
1, 197140, Note_off_c, 0, 58, 59
1, 197145, Control_c, 0, 64, 76
1, 197149, Note_on_c, 0, 66, 45
1, 197155, Note_on_c, 0, 61, 43
1, 197155, Note_on_c, 0, 70, 52
1, 197160, Control_c, 0, 64, 114
1, 197174, Control_c, 0, 64, 127
1, 197255, Note_off_c, 0, 70, 54
1, 197265, Note_off_c, 0, 66, 59
1, 197270, Note_off_c, 0, 90, 62
1, 197271, Note_on_c, 0, 58, 56
1, 197277, Note_off_c, 0, 78, 63
1, 197280, Note_off_c, 0, 61, 52
1, 197387, Note_off_c, 0, 58, 58
1, 197395, Note_on_c, 0, 85, 74
1, 197398, Note_on_c, 0, 70, 50
1, 197405, Note_on_c, 0, 73, 69
1, 197416, Note_on_c, 0, 66, 40
1, 197417, Note_on_c, 0, 61, 49
1, 197512, Note_off_c, 0, 70, 50
1, 197516, Note_off_c, 0, 66, 53
1, 197519, Note_off_c, 0, 61, 53
1, 197536, Note_on_c, 0, 58, 49
1, 197646, Note_on_c, 0, 70, 59
1, 197648, Note_off_c, 0, 58, 56
1, 197656, Note_on_c, 0, 61, 55
1, 197659, Note_on_c, 0, 66, 53
1, 197760, Note_off_c, 0, 70, 59
1, 197772, Note_off_c, 0, 61, 54
1, 197773, Note_on_c, 0, 58, 64
1, 197817, Note_off_c, 0, 66, 36
1, 197897, Note_on_c, 0, 70, 58
1, 197903, Note_on_c, 0, 61, 57
1, 197911, Note_off_c, 0, 58, 56
1, 197922, Note_on_c, 0, 66, 51
1, 198005, Note_off_c, 0, 70, 59
1, 198025, Note_on_c, 0, 58, 72
1, 198032, Note_off_c, 0, 61, 56
1, 198034, Note_off_c, 0, 66, 59
1, 198131, Note_on_c, 0, 70, 65
1, 198139, Note_off_c, 0, 58, 58
1, 198145, Note_on_c, 0, 61, 66
1, 198156, Note_on_c, 0, 66, 55
1, 198230, Note_off_c, 0, 73, 62
1, 198234, Note_off_c, 0, 70, 60
1, 198240, Note_on_c, 0, 58, 74
1, 198248, Note_off_c, 0, 61, 58
1, 198265, Note_off_c, 0, 66, 60
1, 198273, Note_off_c, 0, 85, 56
1, 198364, Note_on_c, 0, 70, 67
1, 198366, Note_on_c, 0, 61, 67
1, 198380, Note_on_c, 0, 66, 64
1, 198386, Note_off_c, 0, 58, 56
1, 198476, Note_off_c, 0, 70, 63
1, 198483, Note_off_c, 0, 61, 60
1, 198507, Note_on_c, 0, 90, 105
1, 198508, Note_on_c, 0, 59, 79
1, 198509, Note_off_c, 0, 66, 60
1, 198511, Note_on_c, 0, 78, 98
1, 198538, Control_c, 0, 64, 75
1, 198553, Control_c, 0, 64, 52
1, 198569, Control_c, 0, 64, 0
1, 198628, Control_c, 0, 64, 45
1, 198643, Control_c, 0, 64, 66
1, 198648, Note_off_c, 0, 59, 56
1, 198648, Note_on_c, 0, 71, 76
1, 198651, Note_on_c, 0, 62, 64
1, 198652, Note_on_c, 0, 66, 59
1, 198658, Control_c, 0, 64, 84
1, 198673, Control_c, 0, 64, 127
1, 198746, Note_on_c, 0, 59, 81
1, 198754, Note_off_c, 0, 71, 62
1, 198766, Note_off_c, 0, 62, 49
1, 198779, Note_off_c, 0, 66, 60
1, 198800, Note_off_c, 0, 90, 62
1, 198805, Note_off_c, 0, 78, 63
1, 198883, Note_on_c, 0, 86, 95
1, 198886, Note_on_c, 0, 71, 65
1, 198887, Note_on_c, 0, 74, 90
1, 198889, Note_off_c, 0, 59, 58
1, 198893, Note_on_c, 0, 62, 63
1, 198902, Note_on_c, 0, 66, 59
1, 198990, Note_off_c, 0, 62, 58
1, 199009, Note_on_c, 0, 59, 70
1, 199013, Note_off_c, 0, 71, 57
1, 199029, Note_off_c, 0, 66, 58
1, 199165, Note_on_c, 0, 71, 70
1, 199169, Note_on_c, 0, 62, 56
1, 199169, Note_on_c, 0, 66, 59
1, 199170, Note_off_c, 0, 59, 61
1, 199277, Note_on_c, 0, 59, 76
1, 199283, Note_off_c, 0, 62, 58
1, 199289, Note_off_c, 0, 66, 60
1, 199292, Note_off_c, 0, 71, 61
1, 199406, Note_on_c, 0, 62, 63
1, 199410, Note_off_c, 0, 59, 58
1, 199411, Note_on_c, 0, 71, 75
1, 199417, Note_on_c, 0, 66, 64
1, 199518, Note_on_c, 0, 59, 76
1, 199522, Note_off_c, 0, 62, 60
1, 199535, Note_off_c, 0, 71, 61
1, 199547, Note_off_c, 0, 66, 61
1, 199643, Note_on_c, 0, 62, 68
1, 199649, Note_on_c, 0, 71, 79
1, 199654, Note_off_c, 0, 59, 60
1, 199661, Note_on_c, 0, 66, 71
1, 199689, Note_off_c, 0, 74, 58
1, 199714, Note_off_c, 0, 86, 56
1, 199763, Note_on_c, 0, 59, 83
1, 199773, Note_off_c, 0, 71, 62
1, 199775, Note_off_c, 0, 66, 60
1, 199799, Note_off_c, 0, 62, 61
1, 199891, Note_on_c, 0, 71, 77
1, 199896, Note_on_c, 0, 66, 73
1, 199903, Note_on_c, 0, 62, 58
1, 199915, Note_off_c, 0, 59, 55
1, 199998, Note_off_c, 0, 62, 57
1, 200004, Note_on_c, 0, 91, 106
1, 200005, Note_on_c, 0, 79, 102
1, 200012, Note_off_c, 0, 66, 60
1, 200014, Note_on_c, 0, 59, 83
1, 200015, Note_off_c, 0, 71, 60
1, 200036, Control_c, 0, 64, 73
1, 200051, Control_c, 0, 64, 50
1, 200066, Control_c, 0, 64, 0
1, 200110, Control_c, 0, 64, 30
1, 200125, Control_c, 0, 64, 59
1, 200140, Control_c, 0, 64, 73
1, 200145, Note_on_c, 0, 62, 53
1, 200154, Note_off_c, 0, 59, 52
1, 200156, Control_c, 0, 64, 127
1, 200157, Note_on_c, 0, 67, 72
1, 200160, Note_on_c, 0, 71, 79
1, 200238, Note_off_c, 0, 91, 60
1, 200270, Note_on_c, 0, 59, 79
1, 200275, Note_off_c, 0, 79, 62
1, 200281, Note_off_c, 0, 71, 62
1, 200293, Note_off_c, 0, 62, 58
1, 200298, Poly_aftertouch_c, 0, 85, 127
1, 200304, Note_off_c, 0, 67, 62
1, 200338, Poly_aftertouch_c, 0, 85, 0
1, 200369, Note_on_c, 0, 86, 104
1, 200372, Note_on_c, 0, 74, 93
1, 200404, Note_off_c, 0, 59, 60
1, 200406, Note_on_c, 0, 71, 67
1, 200416, Note_on_c, 0, 62, 58
1, 200424, Note_on_c, 0, 67, 57
1, 200513, Note_off_c, 0, 67, 61
1, 200513, Note_off_c, 0, 62, 60
1, 200519, Note_off_c, 0, 71, 60
1, 200522, Note_on_c, 0, 59, 75
1, 200639, Note_off_c, 0, 59, 55
1, 200642, Note_on_c, 0, 62, 60
1, 200649, Note_on_c, 0, 67, 63
1, 200654, Note_on_c, 0, 71, 71
1, 200748, Note_on_c, 0, 59, 76
1, 200757, Note_off_c, 0, 71, 61
1, 200771, Note_off_c, 0, 67, 62
1, 200779, Note_off_c, 0, 62, 57
1, 200872, Note_on_c, 0, 71, 76
1, 200884, Note_on_c, 0, 62, 63
1, 200884, Note_off_c, 0, 59, 58
1, 200887, Note_on_c, 0, 67, 63
1, 200982, Note_off_c, 0, 62, 61
1, 200985, Note_off_c, 0, 71, 62
1, 200988, Note_on_c, 0, 59, 81
1, 201003, Note_off_c, 0, 67, 62
1, 201098, Note_on_c, 0, 71, 77
1, 201099, Note_off_c, 0, 74, 55
1, 201102, Note_on_c, 0, 62, 63
1, 201105, Note_on_c, 0, 67, 72
1, 201105, Note_off_c, 0, 59, 61
1, 201154, Note_off_c, 0, 86, 58
1, 201200, Note_on_c, 0, 59, 78
1, 201200, Note_off_c, 0, 71, 62
1, 201221, Note_off_c, 0, 67, 62
1, 201295, Note_off_c, 0, 62, 0
1, 201315, Note_on_c, 0, 62, 36
1, 201334, Note_on_c, 0, 71, 75
1, 201336, Note_on_c, 0, 67, 63
1, 201348, Note_off_c, 0, 59, 57
1, 201424, Note_off_c, 0, 62, 39
1, 201444, Control_c, 0, 64, 100
1, 201448, Note_off_c, 0, 71, 62
1, 201449, Note_on_c, 0, 91, 100
1, 201452, Note_on_c, 0, 79, 103
1, 201459, Control_c, 0, 64, 66
1, 201462, Note_on_c, 0, 60, 87
1, 201472, Note_off_c, 0, 67, 59
1, 201474, Control_c, 0, 64, 31
1, 201488, Control_c, 0, 64, 0
1, 201518, Control_c, 0, 64, 30
1, 201532, Control_c, 0, 64, 57
1, 201547, Control_c, 0, 64, 70
1, 201562, Control_c, 0, 64, 98
1, 201577, Control_c, 0, 64, 127
1, 201611, Note_on_c, 0, 67, 69
1, 201616, Note_on_c, 0, 64, 61
1, 201620, Note_on_c, 0, 72, 78
1, 201622, Note_off_c, 0, 60, 56
1, 201694, Note_off_c, 0, 91, 57
1, 201725, Note_on_c, 0, 60, 84
1, 201726, Note_off_c, 0, 64, 58
1, 201737, Note_off_c, 0, 79, 63
1, 201742, Note_off_c, 0, 72, 61
1, 201761, Note_off_c, 0, 67, 62
1, 201823, Note_on_c, 0, 88, 96
1, 201825, Note_on_c, 0, 76, 100
1, 201847, Note_on_c, 0, 64, 65
1, 201847, Note_on_c, 0, 72, 85
1, 201849, Note_on_c, 0, 67, 77
1, 201857, Note_off_c, 0, 60, 60
1, 201956, Note_off_c, 0, 64, 61
1, 201959, Note_on_c, 0, 60, 83
1, 201966, Note_off_c, 0, 72, 62
1, 201983, Note_off_c, 0, 67, 61
1, 202087, Note_on_c, 0, 64, 69
1, 202087, Note_on_c, 0, 72, 86
1, 202088, Note_off_c, 0, 60, 61
1, 202094, Note_on_c, 0, 67, 72
1, 202188, Note_on_c, 0, 60, 85
1, 202190, Note_off_c, 0, 64, 60
1, 202203, Note_off_c, 0, 72, 62
1, 202212, Note_off_c, 0, 67, 59
1, 202292, Note_off_c, 0, 60, 60
1, 202305, Note_on_c, 0, 64, 71
1, 202305, Note_on_c, 0, 72, 87
1, 202310, Note_on_c, 0, 67, 71
1, 202410, Note_on_c, 0, 60, 79
1, 202415, Note_off_c, 0, 64, 62
1, 202430, Note_off_c, 0, 72, 62
1, 202446, Note_off_c, 0, 67, 61
1, 202533, Note_on_c, 0, 72, 86
1, 202541, Note_on_c, 0, 64, 71
1, 202544, Note_off_c, 0, 60, 64
1, 202548, Note_on_c, 0, 67, 74
1, 202641, Note_off_c, 0, 64, 62
1, 202643, Note_on_c, 0, 60, 79
1, 202658, Note_off_c, 0, 72, 60
1, 202676, Note_off_c, 0, 67, 62
1, 202769, Note_on_c, 0, 64, 77
1, 202772, Note_off_c, 0, 60, 65
1, 202776, Note_on_c, 0, 72, 89
1, 202783, Note_on_c, 0, 67, 73
1, 202814, Note_off_c, 0, 64, 64
1, 202815, Note_off_c, 0, 67, 65
1, 202841, Note_off_c, 0, 72, 58
1, 203001, Control_c, 0, 64, 98
1, 203010, Note_on_c, 0, 61, 99
1, 203015, Control_c, 0, 64, 62
1, 203030, Control_c, 0, 64, 0
1, 203075, Control_c, 0, 64, 31
1, 203083, Note_on_c, 0, 64, 34
1, 203090, Control_c, 0, 64, 61
1, 203105, Control_c, 0, 64, 87
1, 203106, Note_on_c, 0, 67, 85
1, 203120, Control_c, 0, 64, 127
1, 203141, Note_off_c, 0, 88, 55
1, 203147, Note_on_c, 0, 70, 83
1, 203151, Note_off_c, 0, 76, 60
1, 203207, Note_on_c, 0, 73, 94
1, 203402, Note_off_c, 0, 61, 62
1, 203409, Note_off_c, 0, 67, 61
1, 203420, Note_on_c, 0, 79, 97
1, 203426, Note_off_c, 0, 64, 61
1, 203448, Note_off_c, 0, 70, 62
1, 203479, Note_on_c, 0, 82, 84
1, 203482, Note_off_c, 0, 73, 62
1, 203516, Note_off_c, 0, 79, 61
1, 203536, Note_on_c, 0, 85, 88
1, 203576, Note_off_c, 0, 82, 66
1, 203593, Note_on_c, 0, 88, 80
1, 203595, Note_off_c, 0, 85, 66
1, 203610, Note_on_c, 0, 86, 55
1, 203627, Note_on_c, 0, 91, 86
1, 203633, Note_off_c, 0, 86, 62
1, 203667, Note_off_c, 0, 88, 65
1, 203695, Note_on_c, 0, 79, 84
1, 203771, Note_on_c, 0, 64, 90
1, 203823, Note_off_c, 0, 91, 55
1, 203836, Note_on_c, 0, 67, 83
1, 203880, Note_off_c, 0, 79, 60
1, 203895, Note_on_c, 0, 70, 81
1, 203917, Note_on_c, 0, 73, 84
1, 203940, Poly_aftertouch_c, 0, 83, 0
1, 203973, Note_on_c, 0, 76, 94
1, 204153, Note_on_c, 0, 79, 97
1, 204212, Note_on_c, 0, 82, 91
1, 204242, Note_off_c, 0, 64, 60
1, 204254, Note_off_c, 0, 67, 61
1, 204265, Note_off_c, 0, 79, 51
1, 204271, Note_on_c, 0, 85, 88
1, 204282, Note_off_c, 0, 70, 60
1, 204290, Note_off_c, 0, 73, 58
1, 204307, Note_off_c, 0, 82, 66
1, 204325, Note_on_c, 0, 88, 85
1, 204325, Note_off_c, 0, 85, 68
1, 204368, Note_on_c, 0, 91, 92
1, 204394, Note_off_c, 0, 88, 65
1, 204422, Note_off_c, 0, 76, 52
1, 204431, Note_on_c, 0, 79, 90
1, 204529, Note_on_c, 0, 67, 96
1, 204539, Note_off_c, 0, 91, 54
1, 204586, Note_on_c, 0, 70, 85
1, 204595, Note_off_c, 0, 79, 61
1, 204629, Note_on_c, 0, 73, 86
1, 204670, Poly_aftertouch_c, 0, 69, 127
1, 204694, Note_on_c, 0, 76, 87
1, 204699, Poly_aftertouch_c, 0, 69, 0
1, 204929, Note_on_c, 0, 79, 99
1, 205001, Note_on_c, 0, 82, 89
1, 205053, Note_on_c, 0, 85, 87
1, 205055, Note_off_c, 0, 73, 61
1, 205063, Note_off_c, 0, 67, 53
1, 205067, Note_off_c, 0, 79, 38
1, 205083, Note_off_c, 0, 76, 52
1, 205085, Note_off_c, 0, 82, 66
1, 205086, Note_off_c, 0, 70, 56
1, 205111, Note_on_c, 0, 88, 75
1, 205116, Note_on_c, 0, 86, 67
1, 205117, Note_off_c, 0, 85, 65
1, 205138, Note_off_c, 0, 86, 65
1, 205144, Note_on_c, 0, 91, 89
1, 205173, Note_off_c, 0, 88, 65
1, 205219, Note_on_c, 0, 79, 81
1, 205301, Note_on_c, 0, 70, 101
1, 205306, Note_off_c, 0, 91, 56
1, 205358, Note_on_c, 0, 73, 86
1, 205367, Note_off_c, 0, 79, 62
1, 205428, Note_on_c, 0, 76, 82
1, 205683, Note_on_c, 0, 79, 97
1, 205719, Note_off_c, 0, 73, 62
1, 205727, Note_off_c, 0, 70, 63
1, 205751, Note_on_c, 0, 82, 84
1, 205777, Note_off_c, 0, 76, 62
1, 205782, Note_off_c, 0, 79, 60
1, 205803, Note_on_c, 0, 85, 85
1, 205844, Note_off_c, 0, 82, 65
1, 205856, Note_on_c, 0, 88, 73
1, 205867, Note_off_c, 0, 85, 68
1, 205883, Note_on_c, 0, 91, 84
1, 205920, Note_off_c, 0, 88, 65
1, 205949, Note_on_c, 0, 79, 84
1, 206007, Note_off_c, 0, 79, 64
1, 206010, Note_off_c, 0, 91, 62
1, 206038, Note_on_c, 0, 73, 86
1, 206083, Note_on_c, 0, 76, 71
1, 206152, Note_on_c, 0, 79, 70
1, 206152, Note_on_c, 0, 82, 90
1, 206214, Note_on_c, 0, 85, 76
1, 206271, Note_off_c, 0, 76, 64
1, 206275, Note_on_c, 0, 88, 56
1, 206280, Note_off_c, 0, 82, 62
1, 206282, Note_off_c, 0, 79, 63
1, 206284, Note_off_c, 0, 73, 62
1, 206319, Note_on_c, 0, 91, 84
1, 206334, Note_off_c, 0, 85, 58
1, 206393, Note_on_c, 0, 76, 95
1, 206399, Note_off_c, 0, 88, 65
1, 206402, Note_off_c, 0, 91, 63
1, 206457, Note_on_c, 0, 79, 73
1, 206531, Note_on_c, 0, 82, 81
1, 206549, Note_on_c, 0, 85, 85
1, 206569, Note_off_c, 0, 76, 62
1, 206583, Note_off_c, 0, 79, 64
1, 206603, Note_on_c, 0, 88, 71
1, 206625, Note_off_c, 0, 85, 64
1, 206640, Note_off_c, 0, 82, 64
1, 206650, Note_on_c, 0, 91, 70
1, 206690, Note_on_c, 0, 94, 96
1, 206702, Poly_aftertouch_c, 0, 87, 0
1, 206725, Note_off_c, 0, 88, 63
1, 206747, Note_off_c, 0, 91, 64
1, 206751, Note_on_c, 0, 79, 95
1, 206774, Note_off_c, 0, 94, 64
1, 206807, Note_on_c, 0, 82, 90
1, 206827, Note_off_c, 0, 79, 62
1, 206879, Note_on_c, 0, 85, 89
1, 206907, Note_off_c, 0, 82, 62
1, 206925, Note_on_c, 0, 88, 92
1, 206945, Note_off_c, 0, 85, 66
1, 206982, Note_on_c, 0, 91, 92
1, 207009, Note_off_c, 0, 88, 62
1, 207028, Note_on_c, 0, 94, 92
1, 207054, Note_off_c, 0, 91, 66
1, 207093, Note_off_c, 0, 94, 65
1, 207094, Note_on_c, 0, 82, 97
1, 207120, Note_on_c, 0, 83, 82
1, 207144, Note_on_c, 0, 85, 85
1, 207178, Note_off_c, 0, 82, 61
1, 207189, Note_off_c, 0, 83, 65
1, 207216, Note_on_c, 0, 88, 71
1, 207233, Note_off_c, 0, 85, 64
1, 207236, Note_off_c, 0, 88, 66
1, 207281, Note_on_c, 0, 88, 97
1, 207323, Note_on_c, 0, 91, 86
1, 207355, Note_off_c, 0, 88, 63
1, 207382, Note_on_c, 0, 94, 96
1, 207415, Note_off_c, 0, 91, 64
1, 207466, Note_off_c, 0, 94, 64
1, 207486, Note_on_c, 0, 85, 105
1, 207533, Note_on_c, 0, 88, 90
1, 207587, Note_off_c, 0, 88, 67
1, 207599, Note_off_c, 0, 85, 66
1, 207603, Note_on_c, 0, 88, 78
1, 207651, Note_on_c, 0, 91, 89
1, 207678, Note_off_c, 0, 88, 65
1, 207707, Note_on_c, 0, 94, 92
1, 207743, Note_off_c, 0, 91, 64
1, 207788, Note_off_c, 0, 94, 64
1, 207878, Note_on_c, 0, 82, 97
1, 207937, Note_on_c, 0, 85, 86
1, 207973, Note_off_c, 0, 85, 63
1, 207982, Note_off_c, 0, 82, 65
1, 208011, Note_on_c, 0, 85, 79
1, 208041, Note_on_c, 0, 83, 49
1, 208065, Note_off_c, 0, 83, 60
1, 208070, Note_on_c, 0, 88, 83
1, 208105, Note_off_c, 0, 85, 64
1, 208112, Note_on_c, 0, 91, 86
1, 208131, Note_off_c, 0, 88, 65
1, 208179, Note_off_c, 0, 91, 63
1, 208253, Note_on_c, 0, 79, 95
1, 208304, Note_on_c, 0, 82, 88
1, 208351, Note_off_c, 0, 79, 65
1, 208354, Note_off_c, 0, 82, 67
1, 208381, Poly_aftertouch_c, 0, 82, 0
1, 208388, Note_on_c, 0, 82, 84
1, 208435, Note_on_c, 0, 85, 79
1, 208467, Note_off_c, 0, 82, 65
1, 208482, Note_on_c, 0, 88, 84
1, 208521, Note_off_c, 0, 85, 65
1, 208567, Note_off_c, 0, 88, 63
1, 208639, Note_on_c, 0, 76, 101
1, 208693, Note_on_c, 0, 79, 84
1, 208744, Note_off_c, 0, 79, 66
1, 208752, Note_off_c, 0, 76, 64
1, 208772, Note_on_c, 0, 79, 83
1, 208826, Note_on_c, 0, 82, 86
1, 208867, Note_off_c, 0, 79, 57
1, 208886, Note_on_c, 0, 85, 85
1, 208940, Note_off_c, 0, 82, 62
1, 208969, Note_off_c, 0, 85, 64
1, 209023, Note_on_c, 0, 73, 107
1, 209074, Note_on_c, 0, 76, 88
1, 209123, Note_off_c, 0, 76, 65
1, 209135, Note_off_c, 0, 73, 65
1, 209156, Note_on_c, 0, 76, 80
1, 209201, Note_on_c, 0, 79, 81
1, 209217, Note_off_c, 0, 76, 57
1, 209260, Note_on_c, 0, 82, 84
1, 209302, Note_off_c, 0, 79, 62
1, 209342, Note_off_c, 0, 82, 63
1, 209424, Note_on_c, 0, 70, 101
1, 209472, Note_on_c, 0, 73, 91
1, 209527, Note_off_c, 0, 73, 67
1, 209533, Note_off_c, 0, 70, 64
1, 209554, Poly_aftertouch_c, 0, 73, 0
1, 209561, Note_on_c, 0, 73, 81
1, 209612, Note_on_c, 0, 76, 79
1, 209637, Note_off_c, 0, 73, 64
1, 209657, Note_on_c, 0, 79, 84
1, 209682, Note_off_c, 0, 76, 65
1, 209714, Note_off_c, 0, 79, 64
1, 209798, Note_on_c, 0, 68, 76
1, 209809, Note_on_c, 0, 67, 93
1, 209818, Note_off_c, 0, 68, 64
1, 209843, Note_on_c, 0, 70, 88
1, 209889, Note_off_c, 0, 70, 66
1, 209894, Note_off_c, 0, 67, 65
1, 209936, Note_on_c, 0, 70, 88
1, 209983, Note_on_c, 0, 73, 79
1, 210008, Note_off_c, 0, 70, 63
1, 210035, Note_on_c, 0, 76, 82
1, 210118, Note_off_c, 0, 73, 59
1, 210121, Note_off_c, 0, 76, 60
1, 210180, Note_on_c, 0, 64, 100
1, 210216, Note_on_c, 0, 67, 84
1, 210287, Note_off_c, 0, 67, 64
1, 210305, Note_off_c, 0, 64, 63
1, 210321, Note_on_c, 0, 67, 80
1, 210368, Note_on_c, 0, 70, 82
1, 210432, Note_on_c, 0, 73, 84
1, 210465, Note_off_c, 0, 67, 47
1, 210487, Note_off_c, 0, 70, 59
1, 210516, Note_off_c, 0, 73, 62
1, 210565, Note_on_c, 0, 61, 81
1, 210569, Note_on_c, 0, 60, 92
1, 210594, Note_on_c, 0, 59, 59
1, 210614, Note_on_c, 0, 64, 82
1, 210623, Note_off_c, 0, 59, 55
1, 210647, Note_on_c, 0, 62, 29
1, 210654, Note_off_c, 0, 60, 64
1, 210659, Note_off_c, 0, 61, 62
1, 210664, Note_off_c, 0, 64, 65
1, 210685, Note_off_c, 0, 62, 53
1, 210685, Note_on_c, 0, 64, 70
1, 210739, Note_on_c, 0, 67, 78
1, 210763, Note_off_c, 0, 64, 63
1, 210792, Note_on_c, 0, 70, 78
1, 210834, Note_off_c, 0, 67, 62
1, 210878, Note_off_c, 0, 70, 60
1, 210924, Note_on_c, 0, 58, 98
1, 210974, Note_on_c, 0, 61, 89
1, 211025, Note_off_c, 0, 61, 65
1, 211028, Note_off_c, 0, 58, 65
1, 211090, Note_on_c, 0, 61, 82
1, 211145, Note_on_c, 0, 64, 76
1, 211159, Note_off_c, 0, 61, 56
1, 211194, Note_on_c, 0, 67, 77
1, 211216, Note_off_c, 0, 64, 61
1, 211257, Note_off_c, 0, 67, 61
1, 211311, Note_on_c, 0, 55, 95
1, 211355, Note_on_c, 0, 58, 91
1, 211407, Note_off_c, 0, 58, 65
1, 211411, Note_off_c, 0, 55, 65
1, 211463, Note_on_c, 0, 58, 75
1, 211510, Note_on_c, 0, 61, 78
1, 211539, Note_off_c, 0, 58, 63
1, 211579, Note_on_c, 0, 63, 57
1, 211582, Note_on_c, 0, 64, 71
1, 211622, Note_off_c, 0, 63, 62
1, 211626, Note_off_c, 0, 61, 55
1, 211645, Note_off_c, 0, 64, 61
1, 211679, Note_on_c, 0, 52, 100
1, 211745, Note_on_c, 0, 55, 75
1, 211800, Note_off_c, 0, 55, 63
1, 211811, Note_off_c, 0, 52, 68
1, 211824, Note_on_c, 0, 55, 67
1, 211887, Note_on_c, 0, 58, 82
1, 211928, Note_off_c, 0, 55, 60
1, 211950, Note_on_c, 0, 61, 74
1, 211989, Note_off_c, 0, 58, 62
1, 212029, Note_off_c, 0, 61, 60
1, 212064, Note_on_c, 0, 49, 96
1, 212077, Note_on_c, 0, 48, 90
1, 212125, Note_on_c, 0, 52, 81
1, 212167, Note_off_c, 0, 48, 59
1, 212187, Note_off_c, 0, 49, 60
1, 212203, Poly_aftertouch_c, 0, 47, 0
1, 212254, Note_on_c, 0, 55, 80
1, 212277, Note_off_c, 0, 52, 51
1, 212315, Note_on_c, 0, 58, 75
1, 212340, Note_off_c, 0, 55, 61
1, 212383, Note_off_c, 0, 58, 62
1, 212441, Note_on_c, 0, 46, 99
1, 212513, Note_on_c, 0, 49, 79
1, 212554, Note_off_c, 0, 46, 60
1, 212562, Note_off_c, 0, 49, 63
1, 212635, Note_on_c, 0, 49, 77
1, 212691, Note_on_c, 0, 52, 77
1, 212724, Note_off_c, 0, 49, 54
1, 212742, Note_on_c, 0, 55, 73
1, 212770, Note_off_c, 0, 52, 65
1, 212795, Note_off_c, 0, 55, 61
1, 212799, Note_on_c, 0, 42, 102
1, 212826, Note_on_c, 0, 43, 92
1, 212857, Note_off_c, 0, 42, 60
1, 212881, Note_on_c, 0, 46, 82
1, 212930, Note_off_c, 0, 43, 64
1, 212930, Note_off_c, 0, 46, 64
1, 212996, Note_on_c, 0, 46, 74
1, 213047, Note_on_c, 0, 49, 70
1, 213070, Note_off_c, 0, 46, 62
1, 213108, Note_on_c, 0, 52, 70
1, 213156, Note_off_c, 0, 49, 51
1, 213159, Note_off_c, 0, 52, 59
1, 213187, Note_on_c, 0, 40, 103
1, 213258, Note_on_c, 0, 43, 70
1, 213295, Note_off_c, 0, 43, 65
1, 213308, Note_off_c, 0, 40, 64
1, 213357, Note_on_c, 0, 43, 74
1, 213380, Note_on_c, 0, 46, 66
1, 213448, Note_on_c, 0, 49, 75
1, 213449, Note_off_c, 0, 43, 57
1, 213484, Note_off_c, 0, 46, 62
1, 213529, Control_c, 0, 64, 107
1, 213543, Control_c, 0, 64, 64
1, 213558, Control_c, 0, 64, 26
1, 213567, Note_on_c, 0, 37, 103
1, 213567, Note_on_c, 0, 43, 93
1, 213568, Note_on_c, 0, 46, 94
1, 213573, Control_c, 0, 64, 0
1, 213588, Control_c, 0, 64, 25
1, 213589, Note_off_c, 0, 49, 40
1, 213603, Control_c, 0, 64, 55
1, 213617, Control_c, 0, 64, 72
1, 213632, Control_c, 0, 64, 127
1, 213647, Note_on_c, 0, 52, 78
1, 213654, Note_off_c, 0, 37, 62
1, 213658, Note_off_c, 0, 43, 62
1, 213662, Note_off_c, 0, 46, 62
1, 213714, Note_on_c, 0, 46, 76
1, 213715, Note_on_c, 0, 43, 73
1, 213724, Note_off_c, 0, 52, 63
1, 213757, Poly_aftertouch_c, 0, 50, 0
1, 213770, Note_off_c, 0, 43, 63
1, 213791, Note_on_c, 0, 52, 63
1, 213797, Note_off_c, 0, 46, 62
1, 213839, Poly_aftertouch_c, 0, 46, 0
1, 213847, Note_on_c, 0, 46, 64
1, 213853, Note_off_c, 0, 52, 63
1, 213854, Note_on_c, 0, 43, 80
1, 213900, Note_off_c, 0, 43, 60
1, 213917, Note_on_c, 0, 52, 59
1, 213917, Note_off_c, 0, 46, 62
1, 213987, Note_on_c, 0, 46, 85
1, 213991, Note_on_c, 0, 43, 90
1, 213992, Note_off_c, 0, 52, 65
1, 213995, Note_on_c, 0, 73, 113
1, 214043, Note_off_c, 0, 73, 66
1, 214045, Note_off_c, 0, 43, 63
1, 214060, Note_on_c, 0, 52, 75
1, 214064, Note_off_c, 0, 46, 63
1, 214106, Note_on_c, 0, 73, 104
1, 214119, Note_on_c, 0, 43, 84
1, 214120, Note_on_c, 0, 46, 74
1, 214131, Note_off_c, 0, 52, 64
1, 214160, Note_off_c, 0, 73, 66
1, 214180, Note_off_c, 0, 43, 62
1, 214189, Note_on_c, 0, 52, 61
1, 214194, Note_off_c, 0, 46, 63
1, 214222, Note_on_c, 0, 73, 95
1, 214248, Note_on_c, 0, 46, 69
1, 214253, Note_on_c, 0, 43, 79
1, 214259, Note_off_c, 0, 52, 64
1, 214274, Note_off_c, 0, 73, 65
1, 214298, Note_off_c, 0, 43, 62
1, 214321, Note_off_c, 0, 46, 63
1, 214325, Note_on_c, 0, 52, 56
1, 214343, Note_on_c, 0, 73, 103
1, 214360, Poly_aftertouch_c, 0, 46, 0
1, 214366, Note_on_c, 0, 46, 72
1, 214367, Note_off_c, 0, 52, 65
1, 214369, Note_on_c, 0, 43, 89
1, 214385, Note_off_c, 0, 73, 67
1, 214426, Note_off_c, 0, 43, 63
1, 214443, Note_on_c, 0, 52, 74
1, 214444, Note_off_c, 0, 46, 62
1, 214495, Note_off_c, 0, 52, 63
1, 214501, Note_on_c, 0, 46, 70
1, 214503, Note_on_c, 0, 43, 81
1, 214552, Note_off_c, 0, 43, 64
1, 214565, Note_on_c, 0, 52, 75
1, 214569, Note_off_c, 0, 46, 62
1, 214627, Note_on_c, 0, 46, 65
1, 214627, Note_off_c, 0, 52, 63
1, 214629, Note_on_c, 0, 43, 82
1, 214657, Note_on_c, 0, 34, 8
1, 214679, Note_off_c, 0, 43, 64
1, 214689, Note_on_c, 0, 52, 68
1, 214695, Note_off_c, 0, 46, 62
1, 214701, Note_off_c, 0, 34, 53
1, 214743, Note_on_c, 0, 37, 95
1, 214754, Note_on_c, 0, 46, 83
1, 214757, Note_on_c, 0, 43, 91
1, 214763, Note_off_c, 0, 52, 63
1, 214802, Note_off_c, 0, 37, 63
1, 214814, Note_off_c, 0, 43, 64
1, 214824, Note_on_c, 0, 52, 68
1, 214834, Note_off_c, 0, 46, 62
1, 214869, Note_on_c, 0, 37, 93
1, 214888, Note_on_c, 0, 46, 70
1, 214889, Note_on_c, 0, 43, 83
1, 214897, Note_off_c, 0, 52, 64
1, 214923, Note_off_c, 0, 37, 62
1, 214937, Note_off_c, 0, 43, 64
1, 214953, Note_on_c, 0, 52, 65
1, 214960, Note_off_c, 0, 46, 63
1, 214993, Note_on_c, 0, 37, 87
1, 215003, Note_on_c, 0, 46, 68
1, 215005, Note_on_c, 0, 43, 84
1, 215018, Note_off_c, 0, 52, 66
1, 215046, Note_off_c, 0, 37, 63
1, 215055, Note_off_c, 0, 43, 62
1, 215070, Note_on_c, 0, 52, 55
1, 215077, Note_off_c, 0, 46, 63
1, 215112, Note_on_c, 0, 37, 90
1, 215121, Note_on_c, 0, 46, 75
1, 215126, Note_on_c, 0, 43, 88
1, 215133, Note_off_c, 0, 52, 64
1, 215160, Note_off_c, 0, 37, 64
1, 215182, Note_off_c, 0, 43, 63
1, 215194, Note_on_c, 0, 52, 66
1, 215206, Note_off_c, 0, 46, 62
1, 215247, Note_on_c, 0, 46, 57
1, 215252, Note_on_c, 0, 43, 78
1, 215257, Note_off_c, 0, 52, 64
1, 215297, Note_off_c, 0, 43, 65
1, 215317, Note_on_c, 0, 52, 65
1, 215327, Note_off_c, 0, 46, 60
1, 215371, Note_on_c, 0, 46, 59
1, 215379, Note_on_c, 0, 43, 83
1, 215379, Note_off_c, 0, 52, 65
1, 215425, Note_off_c, 0, 43, 64
1, 215433, Note_on_c, 0, 52, 58
1, 215441, Note_off_c, 0, 46, 62
1, 215504, Note_on_c, 0, 46, 79
1, 215507, Note_off_c, 0, 52, 65
1, 215510, Note_on_c, 0, 43, 94
1, 215512, Note_on_c, 0, 73, 107
1, 215559, Note_off_c, 0, 73, 64
1, 215563, Note_off_c, 0, 43, 63
1, 215581, Note_on_c, 0, 52, 65
1, 215583, Note_off_c, 0, 46, 62
1, 215625, Note_on_c, 0, 73, 99
1, 215625, Poly_aftertouch_c, 0, 46, 0
1, 215631, Note_on_c, 0, 46, 70
1, 215634, Note_on_c, 0, 43, 86
1, 215643, Note_off_c, 0, 52, 64
1, 215672, Note_off_c, 0, 73, 65
1, 215687, Note_off_c, 0, 43, 62
1, 215702, Note_on_c, 0, 52, 65
1, 215709, Note_off_c, 0, 46, 62
1, 215727, Note_on_c, 0, 73, 89
1, 215758, Note_on_c, 0, 46, 66
1, 215759, Note_on_c, 0, 43, 86
1, 215772, Note_off_c, 0, 52, 65
1, 215784, Note_off_c, 0, 73, 65
1, 215811, Note_off_c, 0, 43, 62
1, 215824, Note_on_c, 0, 52, 53
1, 215833, Note_off_c, 0, 46, 63
1, 215851, Note_on_c, 0, 73, 99
1, 215869, Note_on_c, 0, 46, 70
1, 215871, Note_on_c, 0, 43, 88
1, 215884, Note_off_c, 0, 52, 64
1, 215897, Note_off_c, 0, 73, 67
1, 215932, Note_off_c, 0, 43, 62
1, 215944, Note_on_c, 0, 52, 70
1, 215952, Note_off_c, 0, 46, 62
1, 216007, Note_on_c, 0, 46, 67
1, 216009, Note_on_c, 0, 43, 77
1, 216011, Note_off_c, 0, 52, 64
1, 216062, Note_off_c, 0, 43, 64
1, 216071, Note_on_c, 0, 52, 66
1, 216075, Note_off_c, 0, 46, 61
1, 216141, Note_on_c, 0, 46, 71
1, 216143, Note_on_c, 0, 43, 79
1, 216145, Note_off_c, 0, 52, 64
1, 216191, Note_off_c, 0, 43, 61
1, 216203, Note_on_c, 0, 52, 57
1, 216206, Note_off_c, 0, 46, 63
1, 216254, Note_on_c, 0, 37, 90
1, 216267, Note_on_c, 0, 43, 88
1, 216267, Note_on_c, 0, 46, 80
1, 216270, Note_on_c, 0, 36, 80
1, 216280, Note_off_c, 0, 52, 63
1, 216301, Note_off_c, 0, 36, 65
1, 216301, Note_off_c, 0, 37, 63
1, 216320, Note_off_c, 0, 43, 64
1, 216337, Note_on_c, 0, 52, 59
1, 216342, Note_off_c, 0, 46, 63
1, 216382, Note_on_c, 0, 37, 95
1, 216395, Note_on_c, 0, 43, 88
1, 216395, Note_on_c, 0, 46, 73
1, 216399, Note_off_c, 0, 52, 66
1, 216444, Note_off_c, 0, 43, 64
1, 216444, Note_off_c, 0, 37, 61
1, 216459, Note_on_c, 0, 52, 70
1, 216464, Note_off_c, 0, 46, 63
1, 216495, Note_on_c, 0, 37, 77
1, 216505, Poly_aftertouch_c, 0, 46, 0
1, 216512, Note_on_c, 0, 43, 86
1, 216512, Note_on_c, 0, 46, 65
1, 216522, Note_off_c, 0, 52, 63
1, 216562, Note_off_c, 0, 43, 63
1, 216568, Control_c, 0, 64, 100
1, 216570, Note_off_c, 0, 37, 62
1, 216582, Note_on_c, 0, 52, 61
1, 216583, Control_c, 0, 64, 66
1, 216585, Note_off_c, 0, 46, 63
1, 216598, Control_c, 0, 64, 0
1, 216631, Note_on_c, 0, 36, 103
1, 216637, Note_on_c, 0, 43, 94
1, 216637, Note_on_c, 0, 46, 77
1, 216653, Note_off_c, 0, 52, 65
1, 216672, Control_c, 0, 64, 56
1, 216686, Control_c, 0, 64, 79
1, 216701, Note_off_c, 0, 43, 63
1, 216701, Control_c, 0, 64, 127
1, 216704, Note_off_c, 0, 36, 63
1, 216707, Note_on_c, 0, 52, 70
1, 216723, Note_off_c, 0, 46, 62
1, 216780, Note_on_c, 0, 46, 69
1, 216782, Note_on_c, 0, 43, 80
1, 216786, Note_off_c, 0, 52, 66
1, 216835, Note_off_c, 0, 43, 63
1, 216844, Note_on_c, 0, 52, 64
1, 216853, Note_off_c, 0, 46, 62
1, 216912, Note_on_c, 0, 46, 68
1, 216915, Note_off_c, 0, 52, 63
1, 216918, Note_on_c, 0, 43, 82
1, 216981, Note_off_c, 0, 43, 62
1, 216990, Note_on_c, 0, 52, 59
1, 216997, Note_off_c, 0, 46, 62
1, 217059, Note_off_c, 0, 52, 64
1, 217060, Note_on_c, 0, 46, 79
1, 217062, Note_on_c, 0, 73, 110
1, 217064, Note_on_c, 0, 43, 87
1, 217106, Note_off_c, 0, 73, 66
1, 217112, Note_off_c, 0, 43, 63
1, 217132, Note_on_c, 0, 52, 63
1, 217135, Note_off_c, 0, 46, 62
1, 217181, Note_on_c, 0, 73, 98
1, 217181, Poly_aftertouch_c, 0, 46, 0
1, 217187, Note_on_c, 0, 46, 70
1, 217190, Note_on_c, 0, 43, 86
1, 217199, Note_off_c, 0, 52, 62
1, 217229, Note_off_c, 0, 73, 65
1, 217243, Note_off_c, 0, 43, 62
1, 217256, Note_on_c, 0, 52, 59
1, 217263, Note_off_c, 0, 46, 63
1, 217296, Note_on_c, 0, 73, 90
1, 217306, Poly_aftertouch_c, 0, 46, 0
1, 217310, Note_on_c, 0, 43, 79
1, 217313, Note_on_c, 0, 46, 61
1, 217331, Note_off_c, 0, 52, 61
1, 217349, Note_off_c, 0, 73, 65
1, 217364, Note_off_c, 0, 43, 62
1, 217388, Note_on_c, 0, 52, 60
1, 217389, Note_off_c, 0, 46, 62
1, 217413, Note_on_c, 0, 72, 104
1, 217431, Poly_aftertouch_c, 0, 46, 0
1, 217435, Note_on_c, 0, 43, 84
1, 217439, Note_on_c, 0, 46, 63
1, 217452, Note_off_c, 0, 52, 64
1, 217465, Note_off_c, 0, 72, 67
1, 217497, Note_off_c, 0, 43, 59
1, 217509, Note_on_c, 0, 52, 63
1, 217515, Note_off_c, 0, 46, 62
1, 217578, Note_off_c, 0, 52, 65
1, 217580, Note_on_c, 0, 46, 70
1, 217583, Note_on_c, 0, 43, 78
1, 217625, Note_off_c, 0, 43, 61
1, 217636, Note_on_c, 0, 52, 67
1, 217646, Note_off_c, 0, 46, 62
1, 217706, Note_on_c, 0, 43, 74
1, 217707, Note_on_c, 0, 46, 63
1, 217708, Note_off_c, 0, 52, 64
1, 217712, Note_on_c, 0, 34, 40
1, 217759, Note_off_c, 0, 34, 48
1, 217760, Note_off_c, 0, 43, 60
1, 217779, Note_off_c, 0, 46, 62
1, 217780, Note_on_c, 0, 52, 59
1, 217824, Note_on_c, 0, 37, 92
1, 217833, Note_on_c, 0, 43, 90
1, 217835, Note_on_c, 0, 46, 73
1, 217845, Note_off_c, 0, 52, 63
1, 217848, Note_on_c, 0, 36, 67
1, 217867, Note_on_c, 0, 34, 21
1, 217872, Note_off_c, 0, 37, 64
1, 217877, Note_off_c, 0, 36, 62
1, 217890, Note_off_c, 0, 43, 62
1, 217900, Note_on_c, 0, 52, 62
1, 217909, Note_off_c, 0, 46, 62
1, 217911, Note_off_c, 0, 34, 51
1, 217948, Note_on_c, 0, 37, 90
1, 217956, Note_on_c, 0, 43, 86
1, 217962, Note_on_c, 0, 46, 67
1, 217969, Note_off_c, 0, 52, 66
1, 218001, Note_off_c, 0, 37, 62
1, 218006, Note_off_c, 0, 43, 64
1, 218026, Note_on_c, 0, 52, 62
1, 218030, Note_off_c, 0, 46, 62
1, 218066, Note_on_c, 0, 37, 90
1, 218078, Note_on_c, 0, 43, 85
1, 218078, Note_on_c, 0, 46, 67
1, 218093, Note_off_c, 0, 52, 63
1, 218124, Note_off_c, 0, 37, 62
1, 218129, Note_off_c, 0, 43, 62
1, 218138, Note_on_c, 0, 52, 51
1, 218140, Control_c, 0, 64, 85
1, 218147, Note_off_c, 0, 46, 63
1, 218155, Control_c, 0, 64, 57
1, 218170, Control_c, 0, 64, 0
1, 218185, Note_on_c, 0, 36, 96
1, 218193, Note_on_c, 0, 46, 73
1, 218194, Note_on_c, 0, 43, 85
1, 218209, Note_off_c, 0, 52, 62
1, 218229, Control_c, 0, 64, 38
1, 218244, Control_c, 0, 64, 66
1, 218250, Note_off_c, 0, 43, 64
1, 218258, Control_c, 0, 64, 97
1, 218259, Note_off_c, 0, 36, 62
1, 218266, Note_on_c, 0, 52, 63
1, 218273, Control_c, 0, 64, 127
1, 218279, Note_off_c, 0, 46, 63
1, 218319, Poly_aftertouch_c, 0, 46, 0
1, 218326, Note_on_c, 0, 46, 62
1, 218331, Note_on_c, 0, 43, 79
1, 218332, Note_off_c, 0, 52, 65
1, 218380, Note_off_c, 0, 43, 60
1, 218388, Note_on_c, 0, 52, 63
1, 218397, Note_off_c, 0, 46, 62
1, 218445, Note_on_c, 0, 46, 64
1, 218450, Note_on_c, 0, 43, 78
1, 218450, Note_off_c, 0, 52, 64
1, 218506, Note_off_c, 0, 43, 63
1, 218521, Note_on_c, 0, 52, 61
1, 218530, Note_off_c, 0, 46, 62
1, 218584, Note_on_c, 0, 46, 70
1, 218586, Note_on_c, 0, 43, 85
1, 218588, Note_off_c, 0, 52, 65
1, 218594, Note_on_c, 0, 73, 104
1, 218638, Note_off_c, 0, 73, 64
1, 218642, Note_off_c, 0, 43, 62
1, 218653, Note_on_c, 0, 52, 65
1, 218662, Note_off_c, 0, 46, 62
1, 218718, Note_on_c, 0, 46, 71
1, 218718, Note_on_c, 0, 73, 101
1, 218719, Note_on_c, 0, 43, 81
1, 218728, Note_off_c, 0, 52, 60
1, 218766, Note_off_c, 0, 73, 66
1, 218769, Note_off_c, 0, 43, 64
1, 218785, Note_on_c, 0, 52, 62
1, 218793, Note_off_c, 0, 46, 62
1, 218828, Note_on_c, 0, 73, 93
1, 218846, Note_on_c, 0, 46, 69
1, 218847, Note_on_c, 0, 43, 81
1, 218856, Note_off_c, 0, 52, 63
1, 218880, Note_off_c, 0, 73, 65
1, 218898, Note_off_c, 0, 43, 62
1, 218913, Note_on_c, 0, 52, 69
1, 218918, Note_off_c, 0, 46, 62
1, 218943, Note_on_c, 0, 72, 99
1, 218966, Note_on_c, 0, 43, 84
1, 218966, Note_on_c, 0, 46, 67
1, 218981, Note_off_c, 0, 52, 64
1, 218999, Note_off_c, 0, 72, 66
1, 219026, Note_off_c, 0, 43, 62
1, 219037, Note_on_c, 0, 52, 66
1, 219050, Note_off_c, 0, 46, 62
1, 219106, Note_on_c, 0, 46, 61
1, 219108, Note_on_c, 0, 43, 75
1, 219110, Note_off_c, 0, 52, 64
1, 219160, Note_off_c, 0, 43, 61
1, 219163, Note_on_c, 0, 52, 61
1, 219175, Note_off_c, 0, 46, 62
1, 219238, Note_on_c, 0, 46, 62
1, 219239, Note_off_c, 0, 52, 62
1, 219241, Note_on_c, 0, 43, 70
1, 219292, Note_off_c, 0, 43, 61
1, 219300, Note_on_c, 0, 52, 57
1, 219304, Note_off_c, 0, 46, 62
1, 219348, Note_off_c, 0, 52, 65
1, 219357, Control_c, 0, 64, 84
1, 219364, Note_on_c, 0, 37, 90
1, 219372, Control_c, 0, 64, 68
1, 219373, Note_on_c, 0, 46, 71
1, 219374, Note_on_c, 0, 43, 81
1, 219386, Control_c, 0, 64, 58
1, 219401, Control_c, 0, 64, 51
1, 219416, Control_c, 0, 64, 49
1, 219416, Note_off_c, 0, 37, 63
1, 219428, Note_off_c, 0, 43, 64
1, 219440, Note_on_c, 0, 52, 73
1, 219440, Note_off_c, 0, 46, 62
1, 219446, Control_c, 0, 64, 51
1, 219460, Control_c, 0, 64, 57
1, 219475, Control_c, 0, 64, 65
1, 219490, Control_c, 0, 64, 81
1, 219494, Note_on_c, 0, 37, 92
1, 219500, Note_on_c, 0, 43, 75
1, 219500, Note_off_c, 0, 52, 62
1, 219503, Note_on_c, 0, 46, 67
1, 219504, Control_c, 0, 64, 127
1, 219545, Note_off_c, 0, 37, 63
1, 219557, Note_off_c, 0, 43, 62
1, 219563, Note_off_c, 0, 46, 62
1, 219565, Note_on_c, 0, 52, 62
1, 219618, Note_on_c, 0, 37, 88
1, 219626, Note_on_c, 0, 43, 74
1, 219634, Note_on_c, 0, 46, 65
1, 219638, Control_c, 0, 67, 8
1, 219652, Control_c, 0, 67, 15
1, 219667, Note_off_c, 0, 37, 61
1, 219667, Control_c, 0, 67, 22
1, 219679, Note_off_c, 0, 52, 33
1, 219681, Note_off_c, 0, 43, 62
1, 219681, Note_off_c, 0, 46, 60
1, 219682, Control_c, 0, 67, 33
1, 219697, Control_c, 0, 67, 48
1, 219712, Control_c, 0, 67, 61
1, 219726, Control_c, 0, 67, 73
1, 219741, Control_c, 0, 67, 83
1, 219756, Control_c, 0, 67, 93
1, 219771, Control_c, 0, 67, 105
1, 219786, Control_c, 0, 67, 121
1, 219801, Control_c, 0, 67, 127
1, 219934, Control_c, 0, 64, 98
1, 219938, Note_on_c, 0, 43, 63
1, 219938, Note_on_c, 0, 52, 65
1, 219943, Note_on_c, 0, 36, 68
1, 219949, Control_c, 0, 64, 78
1, 219950, Note_on_c, 0, 46, 55
1, 219964, Control_c, 0, 64, 63
1, 219986, Control_c, 0, 64, 54
1, 219992, Note_off_c, 0, 36, 63
1, 220001, Control_c, 0, 64, 51
1, 220016, Control_c, 0, 64, 51
1, 220030, Control_c, 0, 64, 51
1, 220045, Control_c, 0, 64, 52
1, 220060, Control_c, 0, 64, 53
1, 220075, Control_c, 0, 64, 54
1, 220102, Note_on_c, 0, 36, 60
1, 220140, Note_off_c, 0, 36, 64
1, 220234, Note_on_c, 0, 36, 56
1, 220270, Note_off_c, 0, 36, 62
1, 220362, Note_on_c, 0, 36, 60
1, 220369, Note_off_c, 0, 43, 35
1, 220370, Note_off_c, 0, 46, 32
1, 220389, Note_off_c, 0, 52, 36
1, 220399, Note_off_c, 0, 36, 63
1, 220492, Note_on_c, 0, 36, 56
1, 220529, Note_off_c, 0, 36, 64
1, 220621, Note_on_c, 0, 36, 53
1, 220639, Control_c, 0, 64, 54
1, 220659, Note_off_c, 0, 36, 63
1, 220713, Control_c, 0, 64, 55
1, 220759, Note_on_c, 0, 36, 60
1, 220779, Control_c, 0, 64, 55
1, 220794, Note_off_c, 0, 36, 62
1, 220891, Note_on_c, 0, 36, 52
1, 220925, Note_off_c, 0, 36, 64
1, 221002, Control_c, 0, 64, 56
1, 221011, Note_on_c, 0, 36, 55
1, 221049, Note_off_c, 0, 36, 64
1, 221143, Note_on_c, 0, 36, 56
1, 221175, Note_off_c, 0, 36, 63
1, 221277, Note_on_c, 0, 36, 46
1, 221312, Note_off_c, 0, 36, 63
1, 221408, Note_on_c, 0, 36, 58
1, 221440, Note_off_c, 0, 36, 63
1, 221542, Note_on_c, 0, 36, 47
1, 221577, Note_off_c, 0, 36, 65
1, 221672, Note_on_c, 0, 36, 54
1, 221705, Note_off_c, 0, 36, 63
1, 221798, Note_on_c, 0, 36, 53
1, 221837, Note_off_c, 0, 36, 64
1, 221938, Note_on_c, 0, 36, 51
1, 221970, Note_off_c, 0, 36, 62
1, 222064, Note_on_c, 0, 36, 50
1, 222098, Note_off_c, 0, 36, 63
1, 222193, Note_on_c, 0, 36, 48
1, 222231, Note_off_c, 0, 36, 59
1, 222317, Note_on_c, 0, 36, 54
1, 222350, Note_off_c, 0, 36, 63
1, 222445, Note_on_c, 0, 36, 48
1, 222478, Note_off_c, 0, 36, 62
1, 222558, Control_c, 0, 64, 56
1, 222578, Note_on_c, 0, 36, 45
1, 222603, Control_c, 0, 64, 57
1, 222610, Note_off_c, 0, 36, 60
1, 222618, Control_c, 0, 64, 57
1, 222633, Control_c, 0, 64, 59
1, 222648, Control_c, 0, 64, 62
1, 222663, Control_c, 0, 64, 65
1, 222677, Control_c, 0, 64, 68
1, 222692, Control_c, 0, 64, 72
1, 222693, Note_on_c, 0, 60, 51
1, 222704, Note_on_c, 0, 48, 41
1, 222707, Control_c, 0, 64, 76
1, 222721, Control_c, 0, 64, 78
1, 222734, Note_on_c, 0, 36, 34
1, 222736, Control_c, 0, 64, 80
1, 222751, Control_c, 0, 64, 84
1, 222766, Control_c, 0, 64, 89
1, 222772, Note_off_c, 0, 36, 60
1, 222781, Control_c, 0, 64, 93
1, 222791, Note_off_c, 0, 48, 56
1, 222795, Control_c, 0, 64, 94
1, 222827, Note_off_c, 0, 60, 51
1, 222876, Note_on_c, 0, 36, 47
1, 222912, Note_off_c, 0, 36, 60
1, 222914, Control_c, 0, 64, 95
1, 223010, Control_c, 0, 64, 95
1, 223023, Note_on_c, 0, 56, 64
1, 223024, Note_on_c, 0, 36, 46
1, 223025, Control_c, 0, 64, 96
1, 223038, Note_on_c, 0, 44, 45
1, 223040, Control_c, 0, 64, 98
1, 223062, Note_off_c, 0, 56, 65
1, 223065, Note_off_c, 0, 36, 50
1, 223070, Note_off_c, 0, 44, 54
1, 223114, Control_c, 0, 64, 97
1, 223128, Control_c, 0, 64, 96
1, 223143, Control_c, 0, 64, 94
1, 223152, Note_on_c, 0, 53, 60
1, 223158, Control_c, 0, 64, 90
1, 223159, Note_on_c, 0, 36, 52
1, 223163, Note_on_c, 0, 41, 50
1, 223173, Control_c, 0, 64, 83
1, 223188, Control_c, 0, 64, 75
1, 223193, Note_off_c, 0, 36, 58
1, 223202, Control_c, 0, 64, 67
1, 223217, Control_c, 0, 64, 61
1, 223232, Control_c, 0, 64, 58
1, 223247, Control_c, 0, 64, 57
1, 223262, Note_off_c, 0, 41, 0
1, 223262, Control_c, 0, 64, 57
1, 223277, Control_c, 0, 64, 56
1, 223289, Note_on_c, 0, 36, 51
1, 223292, Control_c, 0, 64, 55
1, 223299, Poly_aftertouch_c, 0, 41, 127
1, 223325, Note_off_c, 0, 36, 64
1, 223421, Note_on_c, 0, 36, 54
1, 223459, Note_off_c, 0, 36, 64
1, 223543, Control_c, 0, 64, 56
1, 223560, Note_on_c, 0, 36, 53
1, 223597, Note_off_c, 0, 36, 64
1, 223693, Note_on_c, 0, 36, 55
1, 223736, Note_off_c, 0, 36, 63
1, 223758, Control_c, 0, 64, 56
1, 223835, Note_on_c, 0, 36, 53
1, 223870, Note_off_c, 0, 36, 63
1, 223965, Note_on_c, 0, 36, 52
1, 223998, Note_off_c, 0, 36, 63
1, 224089, Note_on_c, 0, 36, 56
1, 224117, Poly_aftertouch_c, 0, 41, 0
1, 224125, Note_off_c, 0, 36, 62
1, 224129, Control_c, 0, 64, 57
1, 224211, Note_on_c, 0, 36, 60
1, 224243, Note_off_c, 0, 36, 63
1, 224299, Note_off_c, 0, 53, 59
1, 224337, Note_on_c, 0, 36, 52
1, 224352, Control_c, 0, 64, 57
1, 224365, Note_on_c, 0, 56, 53
1, 224366, Note_on_c, 0, 44, 49
1, 224381, Control_c, 0, 64, 58
1, 224386, Note_off_c, 0, 36, 62
1, 224396, Control_c, 0, 64, 59
1, 224411, Control_c, 0, 64, 60
1, 224421, Note_off_c, 0, 44, 59
1, 224426, Control_c, 0, 64, 62
1, 224440, Control_c, 0, 64, 63
1, 224455, Control_c, 0, 64, 65
1, 224478, Control_c, 0, 64, 67
1, 224491, Note_on_c, 0, 36, 60
1, 224493, Control_c, 0, 64, 69
1, 224508, Control_c, 0, 64, 71
1, 224522, Control_c, 0, 64, 74
1, 224528, Note_off_c, 0, 36, 63
1, 224537, Control_c, 0, 64, 75
1, 224552, Control_c, 0, 64, 77
1, 224566, Control_c, 0, 64, 79
1, 224581, Control_c, 0, 64, 82
1, 224596, Control_c, 0, 64, 84
1, 224611, Control_c, 0, 64, 85
1, 224612, Note_off_c, 0, 56, 63
1, 224618, Note_on_c, 0, 36, 64
1, 224626, Control_c, 0, 64, 86
1, 224640, Control_c, 0, 64, 86
1, 224655, Control_c, 0, 64, 87
1, 224662, Note_on_c, 0, 60, 60
1, 224669, Note_off_c, 0, 36, 60
1, 224705, Poly_aftertouch_c, 0, 48, 0
1, 224714, Control_c, 0, 64, 86
1, 224729, Control_c, 0, 64, 84
1, 224733, Note_off_c, 0, 60, 63
1, 224742, Poly_aftertouch_c, 0, 48, 0
1, 224744, Control_c, 0, 64, 80
1, 224759, Control_c, 0, 64, 74
1, 224761, Note_on_c, 0, 53, 68
1, 224762, Note_on_c, 0, 36, 63
1, 224764, Note_on_c, 0, 65, 64
1, 224773, Control_c, 0, 64, 65
1, 224788, Control_c, 0, 64, 56
1, 224797, Note_off_c, 0, 36, 64
1, 224803, Control_c, 0, 64, 45
1, 224818, Control_c, 0, 64, 38
1, 224833, Control_c, 0, 64, 33
1, 224877, Control_c, 0, 64, 40
1, 224890, Note_on_c, 0, 36, 56
1, 224892, Control_c, 0, 64, 53
1, 224907, Control_c, 0, 64, 60
1, 224923, Control_c, 0, 64, 63
1, 224931, Note_off_c, 0, 36, 64
1, 224938, Control_c, 0, 64, 65
1, 224952, Control_c, 0, 64, 66
1, 224967, Control_c, 0, 64, 68
1, 224982, Control_c, 0, 64, 70
1, 224991, Note_off_c, 0, 53, 36
1, 224997, Control_c, 0, 64, 71
1, 225012, Control_c, 0, 64, 73
1, 225021, Note_on_c, 0, 36, 61
1, 225027, Control_c, 0, 64, 74
1, 225042, Control_c, 0, 64, 74
1, 225059, Note_off_c, 0, 36, 63
1, 225071, Control_c, 0, 64, 74
1, 225086, Control_c, 0, 64, 73
1, 225101, Control_c, 0, 64, 71
1, 225116, Control_c, 0, 64, 67
1, 225128, Note_off_c, 0, 65, 60
1, 225131, Control_c, 0, 64, 59
1, 225141, Note_on_c, 0, 68, 65
1, 225146, Control_c, 0, 64, 49
1, 225149, Note_on_c, 0, 56, 56
1, 225157, Note_on_c, 0, 36, 56
1, 225161, Control_c, 0, 64, 46
1, 225194, Note_off_c, 0, 36, 64
1, 225205, Control_c, 0, 64, 48
1, 225220, Note_off_c, 0, 56, 64
1, 225227, Control_c, 0, 64, 55
1, 225242, Control_c, 0, 64, 60
1, 225257, Control_c, 0, 64, 63
1, 225271, Control_c, 0, 64, 65
1, 225286, Control_c, 0, 64, 66
1, 225301, Note_on_c, 0, 36, 49
1, 225301, Control_c, 0, 64, 67
1, 225335, Note_off_c, 0, 36, 63
1, 225405, Note_off_c, 0, 68, 62
1, 225435, Note_on_c, 0, 36, 47
1, 225435, Control_c, 0, 64, 67
1, 225447, Note_on_c, 0, 72, 67
1, 225458, Note_on_c, 0, 60, 30
1, 225464, Control_c, 0, 64, 66
1, 225469, Note_off_c, 0, 36, 64
1, 225479, Control_c, 0, 64, 64
1, 225493, Note_off_c, 0, 60, 32
1, 225494, Control_c, 0, 64, 60
1, 225509, Control_c, 0, 64, 54
1, 225523, Control_c, 0, 64, 46
1, 225532, Note_off_c, 0, 72, 59
1, 225538, Control_c, 0, 64, 34
1, 225553, Control_c, 0, 64, 17
1, 225560, Note_on_c, 0, 36, 56
1, 225561, Note_on_c, 0, 77, 62
1, 225568, Control_c, 0, 64, 0
1, 225595, Note_on_c, 0, 65, 28
1, 225597, Note_off_c, 0, 36, 62
1, 225627, Control_c, 0, 64, 31
1, 225642, Control_c, 0, 64, 49
1, 225657, Control_c, 0, 64, 57
1, 225671, Control_c, 0, 64, 60
1, 225686, Control_c, 0, 64, 62
1, 225700, Note_on_c, 0, 36, 52
1, 225701, Control_c, 0, 64, 64
1, 225717, Control_c, 0, 64, 65
1, 225726, Note_off_c, 0, 77, 61
1, 225732, Control_c, 0, 64, 67
1, 225736, Note_off_c, 0, 36, 64
1, 225747, Control_c, 0, 64, 67
1, 225762, Control_c, 0, 64, 68
1, 225763, Note_off_c, 0, 65, 56
1, 225791, Control_c, 0, 64, 69
1, 225820, Control_c, 0, 64, 69
1, 225829, Note_on_c, 0, 36, 49
1, 225864, Note_off_c, 0, 36, 63
1, 225894, Control_c, 0, 64, 69
1, 225924, Control_c, 0, 64, 68
1, 225939, Control_c, 0, 64, 66
1, 225954, Control_c, 0, 64, 62
1, 225975, Note_on_c, 0, 65, 52
1, 225976, Control_c, 0, 64, 53
1, 225977, Note_on_c, 0, 36, 42
1, 225991, Control_c, 0, 64, 42
1, 225998, Note_on_c, 0, 53, 39
1, 226006, Control_c, 0, 64, 36
1, 226007, Note_off_c, 0, 36, 62
1, 226020, Control_c, 0, 64, 34
1, 226050, Control_c, 0, 64, 39
1, 226065, Control_c, 0, 64, 51
1, 226080, Control_c, 0, 64, 60
1, 226094, Control_c, 0, 64, 63
1, 226102, Note_on_c, 0, 36, 48
1, 226104, Note_off_c, 0, 53, 53
1, 226109, Control_c, 0, 64, 65
1, 226124, Control_c, 0, 64, 65
1, 226147, Note_off_c, 0, 36, 61
1, 226162, Note_off_c, 0, 65, 64
1, 226168, Control_c, 0, 64, 66
1, 226198, Control_c, 0, 64, 66
1, 226213, Control_c, 0, 64, 67
1, 226248, Note_on_c, 0, 36, 50
1, 226284, Note_off_c, 0, 36, 62
1, 226332, Control_c, 0, 64, 66
1, 226376, Control_c, 0, 64, 66
1, 226391, Control_c, 0, 64, 64
1, 226403, Note_on_c, 0, 36, 39
1, 226405, Note_on_c, 0, 72, 61
1, 226406, Note_on_c, 0, 67, 53
1, 226406, Control_c, 0, 64, 62
1, 226420, Control_c, 0, 64, 59
1, 226432, Note_off_c, 0, 36, 62
1, 226435, Control_c, 0, 64, 54
1, 226450, Control_c, 0, 64, 48
1, 226455, Poly_aftertouch_c, 0, 64, 127
1, 226465, Control_c, 0, 64, 45
1, 226480, Control_c, 0, 64, 43
1, 226538, Note_on_c, 0, 36, 45
1, 226576, Note_off_c, 0, 36, 63
1, 226670, Note_on_c, 0, 36, 55
1, 226703, Control_c, 0, 64, 44
1, 226704, Note_off_c, 0, 36, 63
1, 226725, Control_c, 0, 64, 44
1, 226740, Control_c, 0, 64, 45
1, 226755, Control_c, 0, 64, 45
1, 226769, Control_c, 0, 64, 46
1, 226784, Control_c, 0, 64, 47
1, 226799, Control_c, 0, 64, 49
1, 226803, Note_on_c, 0, 36, 51
1, 226814, Control_c, 0, 64, 52
1, 226829, Control_c, 0, 64, 56
1, 226837, Note_off_c, 0, 36, 63
1, 226843, Control_c, 0, 64, 60
1, 226858, Control_c, 0, 64, 63
1, 226873, Control_c, 0, 64, 65
1, 226888, Control_c, 0, 64, 67
1, 226903, Control_c, 0, 64, 69
1, 226917, Control_c, 0, 64, 70
1, 226932, Control_c, 0, 64, 71
1, 226933, Note_on_c, 0, 36, 50
1, 226947, Control_c, 0, 64, 72
1, 226962, Control_c, 0, 64, 73
1, 226967, Note_off_c, 0, 36, 64
1, 226976, Control_c, 0, 64, 75
1, 226991, Control_c, 0, 64, 76
1, 226998, Note_on_c, 0, 74, 62
1, 227006, Control_c, 0, 64, 78
1, 227021, Control_c, 0, 64, 79
1, 227036, Control_c, 0, 64, 79
1, 227062, Poly_aftertouch_c, 0, 64, 0
1, 227065, Note_on_c, 0, 36, 49
1, 227067, Note_off_c, 0, 67, 62
1, 227090, Note_off_c, 0, 72, 62
1, 227098, Note_off_c, 0, 36, 63
1, 227101, Note_off_c, 0, 74, 62
1, 227184, Note_on_c, 0, 36, 55
1, 227188, Note_on_c, 0, 76, 73
1, 227199, Control_c, 0, 64, 78
1, 227208, Note_on_c, 0, 65, 53
1, 227214, Control_c, 0, 64, 75
1, 227218, Note_on_c, 0, 71, 46
1, 227221, Note_off_c, 0, 36, 64
1, 227229, Control_c, 0, 64, 68
1, 227243, Control_c, 0, 64, 62
1, 227250, Note_off_c, 0, 76, 61
1, 227258, Control_c, 0, 64, 57
1, 227263, Note_on_c, 0, 74, 65
1, 227273, Control_c, 0, 64, 54
1, 227287, Control_c, 0, 64, 52
1, 227302, Control_c, 0, 64, 51
1, 227311, Note_on_c, 0, 36, 62
1, 227316, Note_off_c, 0, 74, 62
1, 227321, Note_on_c, 0, 76, 70
1, 227346, Note_off_c, 0, 36, 64
1, 227363, Control_c, 0, 64, 52
1, 227378, Note_on_c, 0, 74, 62
1, 227382, Note_off_c, 0, 76, 64
1, 227427, Note_on_c, 0, 36, 58
1, 227435, Note_off_c, 0, 74, 62
1, 227437, Control_c, 0, 64, 53
1, 227452, Control_c, 0, 64, 53
1, 227454, Note_on_c, 0, 76, 61
1, 227471, Note_off_c, 0, 36, 64
1, 227474, Control_c, 0, 64, 54
1, 227489, Control_c, 0, 64, 54
1, 227504, Control_c, 0, 64, 55
1, 227513, Note_on_c, 0, 74, 67
1, 227554, Note_off_c, 0, 71, 58
1, 227558, Note_on_c, 0, 36, 58
1, 227561, Note_off_c, 0, 76, 60
1, 227563, Control_c, 0, 64, 55
1, 227592, Note_off_c, 0, 36, 62
1, 227620, Note_off_c, 0, 74, 62
1, 227622, Note_on_c, 0, 72, 58
1, 227652, Control_c, 0, 64, 56
1, 227666, Control_c, 0, 64, 56
1, 227676, Note_on_c, 0, 36, 60
1, 227703, Note_on_c, 0, 76, 57
1, 227703, Note_off_c, 0, 72, 65
1, 227715, Note_off_c, 0, 36, 64
1, 227740, Control_c, 0, 64, 57
1, 227770, Note_on_c, 0, 74, 63
1, 227772, Note_off_c, 0, 65, 42
1, 227784, Note_off_c, 0, 76, 61
1, 227814, Note_off_c, 0, 74, 61
1, 227817, Note_on_c, 0, 36, 50
1, 227852, Note_off_c, 0, 36, 63
1, 227907, Note_on_c, 0, 72, 62
1, 227908, Note_on_c, 0, 64, 54
1, 227921, Note_on_c, 0, 67, 46
1, 227951, Note_on_c, 0, 36, 43
1, 227988, Note_off_c, 0, 36, 46
1, 228078, Note_on_c, 0, 36, 45
1, 228110, Note_off_c, 0, 36, 54
1, 228193, Note_on_c, 0, 36, 54
1, 228236, Note_off_c, 0, 36, 63
1, 228326, Note_on_c, 0, 36, 60
1, 228362, Note_off_c, 0, 36, 63
1, 228447, Note_on_c, 0, 36, 54
1, 228466, Note_off_c, 0, 72, 52
1, 228484, Note_off_c, 0, 36, 63
1, 228520, Note_off_c, 0, 64, 56
1, 228526, Note_off_c, 0, 67, 51
1, 228577, Note_on_c, 0, 36, 63
1, 228611, Note_off_c, 0, 36, 65
1, 228687, Note_on_c, 0, 36, 70
1, 228800, Control_c, 0, 64, 56
1, 228814, Note_off_c, 0, 36, 61
1, 228820, Note_on_c, 0, 37, 56
1, 228857, Note_off_c, 0, 37, 63
1, 228860, Control_c, 0, 64, 56
1, 228949, Control_c, 0, 64, 55
1, 228989, Note_on_c, 0, 37, 29
1, 229001, Control_c, 0, 64, 55
1, 229032, Note_off_c, 0, 37, 43
1, 229118, Note_on_c, 0, 37, 47
1, 229119, Control_c, 0, 64, 56
1, 229125, Note_on_c, 0, 61, 47
1, 229130, Note_on_c, 0, 49, 42
1, 229134, Control_c, 0, 64, 57
1, 229149, Control_c, 0, 64, 60
1, 229152, Note_off_c, 0, 37, 59
1, 229164, Control_c, 0, 64, 62
1, 229179, Control_c, 0, 64, 64
1, 229194, Control_c, 0, 64, 66
1, 229209, Control_c, 0, 64, 68
1, 229224, Control_c, 0, 64, 70
1, 229238, Control_c, 0, 64, 72
1, 229253, Control_c, 0, 64, 73
1, 229257, Note_on_c, 0, 37, 41
1, 229268, Control_c, 0, 64, 75
1, 229280, Note_off_c, 0, 49, 36
1, 229283, Control_c, 0, 64, 75
1, 229298, Control_c, 0, 64, 76
1, 229307, Note_off_c, 0, 37, 58
1, 229327, Control_c, 0, 64, 77
1, 229342, Control_c, 0, 64, 78
1, 229356, Control_c, 0, 64, 80
1, 229371, Control_c, 0, 64, 81
1, 229380, Note_off_c, 0, 61, 61
1, 229386, Control_c, 0, 64, 81
1, 229423, Note_on_c, 0, 37, 42
1, 229443, Note_on_c, 0, 58, 49
1, 229447, Note_on_c, 0, 46, 51
1, 229461, Note_off_c, 0, 37, 60
1, 229479, Note_off_c, 0, 58, 65
1, 229487, Note_off_c, 0, 46, 64
1, 229490, Control_c, 0, 64, 81
1, 229519, Control_c, 0, 64, 80
1, 229534, Control_c, 0, 64, 79
1, 229549, Control_c, 0, 64, 76
1, 229560, Note_on_c, 0, 37, 49
1, 229563, Control_c, 0, 64, 71
1, 229578, Control_c, 0, 64, 65
1, 229582, Note_on_c, 0, 54, 55
1, 229593, Control_c, 0, 64, 60
1, 229601, Note_on_c, 0, 42, 40
1, 229601, Note_off_c, 0, 37, 59
1, 229608, Control_c, 0, 64, 56
1, 229623, Control_c, 0, 64, 54
1, 229638, Control_c, 0, 64, 52
1, 229653, Control_c, 0, 64, 52
1, 229685, Note_off_c, 0, 42, 0
1, 229709, Note_on_c, 0, 37, 50
1, 229731, Poly_aftertouch_c, 0, 42, 127
1, 229746, Note_off_c, 0, 37, 63
1, 229794, Control_c, 0, 64, 52
1, 229841, Note_on_c, 0, 37, 51
1, 229876, Note_off_c, 0, 37, 63
1, 229883, Control_c, 0, 64, 53
1, 229942, Control_c, 0, 64, 53
1, 229968, Note_on_c, 0, 37, 53
1, 230004, Note_off_c, 0, 37, 63
1, 230076, Control_c, 0, 64, 54
1, 230096, Note_on_c, 0, 37, 56
1, 230131, Note_off_c, 0, 37, 62
1, 230225, Note_on_c, 0, 37, 53
1, 230261, Note_off_c, 0, 37, 63
1, 230298, Control_c, 0, 64, 54
1, 230350, Note_on_c, 0, 37, 57
1, 230384, Note_off_c, 0, 37, 63
1, 230386, Poly_aftertouch_c, 0, 42, 0
1, 230486, Note_on_c, 0, 37, 58
1, 230531, Note_off_c, 0, 37, 62
1, 230616, Note_on_c, 0, 37, 58
1, 230650, Note_off_c, 0, 37, 61
1, 230671, Note_off_c, 0, 54, 63
1, 230739, Note_on_c, 0, 37, 56
1, 230748, Note_on_c, 0, 58, 60
1, 230756, Note_on_c, 0, 46, 54
1, 230777, Note_off_c, 0, 37, 63
1, 230878, Note_on_c, 0, 37, 50
1, 230884, Note_off_c, 0, 46, 59
1, 230914, Note_off_c, 0, 37, 63
1, 230958, Control_c, 0, 64, 55
1, 231009, Note_on_c, 0, 37, 54
1, 231034, Note_on_c, 0, 49, 52
1, 231039, Note_on_c, 0, 61, 62
1, 231043, Note_off_c, 0, 58, 60
1, 231045, Note_off_c, 0, 37, 62
1, 231061, Note_off_c, 0, 49, 61
1, 231140, Note_on_c, 0, 37, 59
1, 231140, Note_off_c, 0, 61, 60
1, 231157, Note_on_c, 0, 66, 65
1, 231168, Note_on_c, 0, 54, 52
1, 231185, Note_off_c, 0, 37, 62
1, 231292, Note_on_c, 0, 37, 60
1, 231322, Control_c, 0, 64, 55
1, 231334, Note_off_c, 0, 37, 62
1, 231365, Note_off_c, 0, 54, 48
1, 231419, Note_on_c, 0, 37, 64
1, 231476, Note_off_c, 0, 37, 59
1, 231525, Note_off_c, 0, 66, 61
1, 231557, Note_on_c, 0, 70, 64
1, 231564, Note_on_c, 0, 58, 60
1, 231567, Note_on_c, 0, 37, 57
1, 231606, Note_off_c, 0, 37, 61
1, 231668, Note_off_c, 0, 58, 55
1, 231695, Note_on_c, 0, 37, 61
1, 231743, Note_off_c, 0, 37, 62
1, 231828, Note_on_c, 0, 61, 58
1, 231832, Note_on_c, 0, 37, 61
1, 231832, Note_on_c, 0, 73, 67
1, 231849, Note_off_c, 0, 61, 60
1, 231856, Note_off_c, 0, 70, 59
1, 231866, Note_off_c, 0, 37, 63
1, 231918, Note_off_c, 0, 73, 63
1, 231942, Note_on_c, 0, 78, 69
1, 231948, Note_on_c, 0, 66, 54
1, 231961, Note_on_c, 0, 37, 57
1, 231965, Control_c, 0, 64, 55
1, 231980, Control_c, 0, 64, 52
1, 231995, Note_off_c, 0, 37, 62
1, 231995, Control_c, 0, 64, 47
1, 232010, Control_c, 0, 64, 44
1, 232054, Control_c, 0, 64, 48
1, 232069, Control_c, 0, 64, 56
1, 232084, Control_c, 0, 64, 61
1, 232097, Note_on_c, 0, 37, 48
1, 232099, Control_c, 0, 64, 64
1, 232115, Control_c, 0, 64, 65
1, 232129, Control_c, 0, 64, 67
1, 232134, Note_off_c, 0, 37, 63
1, 232144, Control_c, 0, 64, 69
1, 232159, Control_c, 0, 64, 71
1, 232162, Note_off_c, 0, 78, 65
1, 232174, Control_c, 0, 64, 74
1, 232189, Control_c, 0, 64, 76
1, 232198, Note_off_c, 0, 66, 62
1, 232203, Control_c, 0, 64, 77
1, 232218, Control_c, 0, 64, 78
1, 232233, Control_c, 0, 64, 78
1, 232234, Note_on_c, 0, 37, 53
1, 232265, Note_off_c, 0, 37, 63
1, 232277, Control_c, 0, 64, 78
1, 232336, Control_c, 0, 64, 77
1, 232351, Control_c, 0, 64, 74
1, 232353, Note_on_c, 0, 66, 65
1, 232363, Note_on_c, 0, 37, 46
1, 232364, Note_on_c, 0, 54, 53
1, 232366, Control_c, 0, 64, 69
1, 232380, Control_c, 0, 64, 63
1, 232395, Control_c, 0, 64, 59
1, 232398, Note_off_c, 0, 37, 60
1, 232410, Control_c, 0, 64, 58
1, 232425, Control_c, 0, 64, 58
1, 232440, Control_c, 0, 64, 60
1, 232455, Control_c, 0, 64, 63
1, 232470, Control_c, 0, 64, 66
1, 232479, Note_off_c, 0, 54, 62
1, 232485, Control_c, 0, 64, 68
1, 232485, Note_on_c, 0, 37, 59
1, 232500, Control_c, 0, 64, 71
1, 232514, Control_c, 0, 64, 71
1, 232518, Note_off_c, 0, 37, 64
1, 232547, Note_off_c, 0, 66, 62
1, 232588, Control_c, 0, 64, 72
1, 232604, Note_on_c, 0, 37, 53
1, 232640, Note_off_c, 0, 37, 63
1, 232729, Control_c, 0, 64, 71
1, 232744, Control_c, 0, 64, 71
1, 232756, Note_on_c, 0, 73, 68
1, 232759, Control_c, 0, 64, 70
1, 232761, Note_on_c, 0, 37, 49
1, 232766, Note_on_c, 0, 65, 48
1, 232774, Control_c, 0, 64, 67
1, 232777, Note_on_c, 0, 68, 43
1, 232788, Control_c, 0, 64, 63
1, 232796, Note_off_c, 0, 37, 61
1, 232803, Control_c, 0, 64, 58
1, 232818, Control_c, 0, 64, 52
1, 232833, Control_c, 0, 64, 49
1, 232848, Control_c, 0, 64, 48
1, 232862, Control_c, 0, 64, 47
1, 232891, Note_on_c, 0, 37, 57
1, 232927, Note_off_c, 0, 37, 62
1, 232982, Control_c, 0, 64, 48
1, 233026, Note_on_c, 0, 37, 49
1, 233026, Control_c, 0, 64, 48
1, 233061, Note_off_c, 0, 37, 62
1, 233100, Control_c, 0, 64, 49
1, 233145, Control_c, 0, 64, 49
1, 233154, Note_on_c, 0, 37, 51
1, 233174, Control_c, 0, 64, 50
1, 233189, Control_c, 0, 64, 50
1, 233190, Note_off_c, 0, 37, 62
1, 233203, Control_c, 0, 64, 52
1, 233218, Control_c, 0, 64, 54
1, 233233, Control_c, 0, 64, 56
1, 233248, Control_c, 0, 64, 58
1, 233263, Control_c, 0, 64, 61
1, 233278, Control_c, 0, 64, 63
1, 233282, Note_on_c, 0, 37, 55
1, 233293, Control_c, 0, 64, 64
1, 233307, Control_c, 0, 64, 67
1, 233316, Note_off_c, 0, 37, 61
1, 233322, Control_c, 0, 64, 69
1, 233337, Control_c, 0, 64, 72
1, 233352, Control_c, 0, 64, 73
1, 233354, Note_on_c, 0, 75, 65
1, 233367, Control_c, 0, 64, 74
1, 233397, Control_c, 0, 64, 74
1, 233397, Note_off_c, 0, 68, 56
1, 233399, Note_off_c, 0, 65, 50
1, 233404, Note_on_c, 0, 37, 55
1, 233411, Control_c, 0, 64, 75
1, 233426, Control_c, 0, 64, 75
1, 233433, Note_off_c, 0, 73, 44
1, 233436, Note_off_c, 0, 37, 62
1, 233439, Note_off_c, 0, 75, 62
1, 233532, Note_on_c, 0, 37, 59
1, 233537, Control_c, 0, 64, 75
1, 233543, Note_on_c, 0, 77, 69
1, 233552, Control_c, 0, 64, 74
1, 233560, Note_on_c, 0, 66, 51
1, 233560, Note_on_c, 0, 72, 48
1, 233567, Control_c, 0, 64, 71
1, 233570, Note_off_c, 0, 37, 62
1, 233582, Control_c, 0, 64, 67
1, 233597, Control_c, 0, 64, 62
1, 233599, Note_off_c, 0, 77, 60
1, 233611, Control_c, 0, 64, 57
1, 233617, Note_on_c, 0, 75, 65
1, 233626, Control_c, 0, 64, 54
1, 233641, Control_c, 0, 64, 52
1, 233659, Note_off_c, 0, 75, 62
1, 233671, Note_on_c, 0, 37, 54
1, 233678, Note_on_c, 0, 77, 64
1, 233703, Note_off_c, 0, 37, 61
1, 233716, Control_c, 0, 64, 53
1, 233726, Note_off_c, 0, 77, 64
1, 233731, Note_on_c, 0, 75, 67
1, 233761, Control_c, 0, 64, 53
1, 233781, Note_on_c, 0, 37, 57
1, 233784, Note_off_c, 0, 75, 60
1, 233790, Control_c, 0, 64, 54
1, 233800, Note_on_c, 0, 77, 69
1, 233813, Note_off_c, 0, 37, 62
1, 233834, Control_c, 0, 64, 54
1, 233853, Note_on_c, 0, 75, 73
1, 233869, Note_off_c, 0, 77, 55
1, 233887, Note_off_c, 0, 72, 57
1, 233889, Note_on_c, 0, 37, 58
1, 233908, Control_c, 0, 64, 55
1, 233922, Note_off_c, 0, 37, 62
1, 233970, Note_on_c, 0, 73, 70
1, 233972, Note_off_c, 0, 75, 61
1, 233982, Control_c, 0, 64, 55
1, 234009, Note_on_c, 0, 37, 56
1, 234039, Note_on_c, 0, 77, 63
1, 234041, Note_off_c, 0, 37, 62
1, 234050, Note_off_c, 0, 73, 63
1, 234074, Note_off_c, 0, 66, 33
1, 234100, Control_c, 0, 64, 56
1, 234110, Note_on_c, 0, 75, 65
1, 234123, Note_off_c, 0, 77, 54
1, 234128, Note_on_c, 0, 37, 59
1, 234165, Note_off_c, 0, 37, 64
1, 234225, Note_on_c, 0, 73, 66
1, 234226, Note_off_c, 0, 75, 60
1, 234236, Note_on_c, 0, 68, 63
1, 234244, Note_on_c, 0, 65, 24
1, 234251, Note_on_c, 0, 37, 67
1, 234292, Note_off_c, 0, 37, 63
1, 234380, Note_on_c, 0, 35, 74
1, 234382, Note_on_c, 0, 41, 75
1, 234418, Note_off_c, 0, 41, 65
1, 234419, Note_off_c, 0, 35, 62
1, 234492, Note_on_c, 0, 41, 65
1, 234506, Note_on_c, 0, 35, 70
1, 234542, Note_off_c, 0, 41, 63
1, 234543, Note_off_c, 0, 35, 63
1, 234631, Note_on_c, 0, 35, 54
1, 234632, Note_on_c, 0, 41, 56
1, 234664, Note_off_c, 0, 41, 61
1, 234673, Note_off_c, 0, 35, 61
1, 234761, Note_on_c, 0, 41, 50
1, 234765, Note_on_c, 0, 35, 56
1, 234800, Note_off_c, 0, 41, 62
1, 234806, Note_off_c, 0, 35, 60
1, 234896, Note_on_c, 0, 41, 51
1, 234897, Note_on_c, 0, 35, 56
1, 234934, Note_off_c, 0, 41, 63
1, 234938, Note_off_c, 0, 35, 62
1, 234941, Note_off_c, 0, 65, 40
1, 234964, Note_off_c, 0, 68, 41
1, 234975, Note_off_c, 0, 73, 30
1, 235039, Note_on_c, 0, 41, 53
1, 235042, Note_on_c, 0, 35, 50
1, 235079, Note_off_c, 0, 35, 62
1, 235082, Note_off_c, 0, 41, 60
1, 235172, Note_on_c, 0, 35, 53
1, 235176, Note_on_c, 0, 41, 51
1, 235216, Note_off_c, 0, 41, 61
1, 235217, Note_off_c, 0, 35, 60
1, 235314, Note_on_c, 0, 41, 51
1, 235323, Note_on_c, 0, 35, 45
1, 235354, Note_off_c, 0, 35, 54
1, 235354, Note_off_c, 0, 41, 60
1, 235440, Note_on_c, 0, 35, 50
1, 235463, Note_on_c, 0, 41, 34
1, 235478, Note_off_c, 0, 35, 60
1, 235501, Note_off_c, 0, 41, 52
1, 235609, Note_on_c, 0, 41, 15
1, 235677, Note_on_c, 0, 35, 43
1, 235681, Note_off_c, 0, 41, 0
1, 235681, Note_on_c, 0, 41, 12
1, 235758, Note_off_c, 0, 35, 56
1, 235805, Note_off_c, 0, 41, 50
1, 235814, Note_on_c, 0, 72, 68
1, 235829, Note_on_c, 0, 40, 48
1, 235950, Note_on_c, 0, 36, 50
1, 235997, Note_off_c, 0, 36, 60
1, 236098, Note_on_c, 0, 36, 52
1, 236133, Note_off_c, 0, 36, 62
1, 236227, Note_on_c, 0, 36, 53
1, 236262, Note_off_c, 0, 36, 64
1, 236363, Control_c, 0, 64, 55
1, 236375, Note_on_c, 0, 36, 16
1, 236418, Note_off_c, 0, 36, 38
1, 236466, Note_on_c, 0, 74, 68
1, 236481, Note_on_c, 0, 36, 51
1, 236512, Note_off_c, 0, 72, 59
1, 236557, Note_off_c, 0, 36, 55
1, 236590, Note_on_c, 0, 41, 63
1, 236593, Note_off_c, 0, 40, 53
1, 236612, Note_off_c, 0, 74, 63
1, 236622, Note_on_c, 0, 72, 71
1, 236688, Note_off_c, 0, 72, 63
1, 236697, Note_on_c, 0, 74, 69
1, 236701, Note_on_c, 0, 36, 65
1, 236744, Note_off_c, 0, 36, 63
1, 236754, Note_off_c, 0, 74, 64
1, 236756, Note_on_c, 0, 76, 68
1, 236804, Note_off_c, 0, 76, 62
1, 236816, Note_on_c, 0, 74, 65
1, 236828, Note_on_c, 0, 36, 65
1, 236859, Note_on_c, 0, 76, 65
1, 236861, Note_off_c, 0, 74, 62
1, 236864, Note_off_c, 0, 36, 65
1, 236911, Note_off_c, 0, 76, 56
1, 236920, Note_on_c, 0, 74, 65
1, 236940, Note_on_c, 0, 36, 62
1, 236960, Note_on_c, 0, 76, 55
1, 236971, Note_off_c, 0, 74, 62
1, 236977, Note_off_c, 0, 36, 65
1, 237022, Note_on_c, 0, 74, 61
1, 237024, Note_off_c, 0, 76, 62
1, 237069, Note_on_c, 0, 76, 58
1, 237071, Note_on_c, 0, 36, 47
1, 237074, Note_off_c, 0, 74, 62
1, 237101, Note_off_c, 0, 36, 54
1, 237132, Note_off_c, 0, 76, 63
1, 237133, Note_on_c, 0, 74, 41
1, 237161, Note_on_c, 0, 72, 67
1, 237174, Note_off_c, 0, 74, 63
1, 237175, Note_on_c, 0, 36, 60
1, 237231, Note_on_c, 0, 76, 63
1, 237231, Note_off_c, 0, 72, 63
1, 237253, Note_off_c, 0, 36, 50
1, 237300, Note_on_c, 0, 74, 60
1, 237311, Note_off_c, 0, 76, 63
1, 237348, Note_on_c, 0, 40, 45
1, 237371, Note_on_c, 0, 72, 59
1, 237389, Note_off_c, 0, 41, 41
1, 237415, Note_off_c, 0, 74, 40
1, 237466, Note_off_c, 0, 72, 65
1, 237469, Note_on_c, 0, 36, 55
1, 237521, Note_off_c, 0, 36, 63
1, 237630, Note_on_c, 0, 36, 51
1, 237663, Note_off_c, 0, 36, 63
1, 237712, Control_c, 0, 64, 55
1, 237725, Note_on_c, 0, 49, 76
1, 237750, Note_on_c, 0, 36, 55
1, 237758, Note_off_c, 0, 49, 63
1, 237763, Note_off_c, 0, 40, 55
1, 237781, Note_off_c, 0, 36, 62
1, 237816, Control_c, 0, 64, 54
1, 237847, Note_on_c, 0, 49, 65
1, 237858, Note_on_c, 0, 36, 63
1, 237887, Note_off_c, 0, 49, 61
1, 237898, Note_off_c, 0, 36, 63
1, 237984, Note_on_c, 0, 49, 45
1, 238003, Note_on_c, 0, 36, 51
1, 238031, Note_off_c, 0, 49, 60
1, 238040, Note_off_c, 0, 36, 64
1, 238094, Note_on_c, 0, 48, 42
1, 238125, Note_on_c, 0, 36, 61
1, 238163, Note_off_c, 0, 36, 63
1, 238262, Note_on_c, 0, 36, 53
1, 238300, Note_off_c, 0, 36, 64
1, 238366, Poly_aftertouch_c, 0, 43, 127
1, 238376, Note_off_c, 0, 48, 62
1, 238385, Note_on_c, 0, 36, 60
1, 238422, Note_off_c, 0, 36, 63
1, 238463, Poly_aftertouch_c, 0, 43, 0
1, 238500, Poly_aftertouch_c, 0, 43, 127
1, 238509, Note_on_c, 0, 36, 60
1, 238545, Note_off_c, 0, 36, 59
1, 238634, Note_on_c, 0, 36, 56
1, 238670, Note_off_c, 0, 36, 62
1, 238765, Note_on_c, 0, 36, 60
1, 238771, Poly_aftertouch_c, 0, 43, 0
1, 238830, Note_off_c, 0, 36, 58
1, 238888, Note_on_c, 0, 43, 65
1, 238890, Note_on_c, 0, 76, 77
1, 239012, Note_on_c, 0, 36, 61
1, 239055, Note_off_c, 0, 36, 64
1, 239151, Note_on_c, 0, 36, 65
1, 239186, Note_off_c, 0, 36, 65
1, 239270, Note_on_c, 0, 36, 64
1, 239311, Note_off_c, 0, 36, 63
1, 239421, Note_on_c, 0, 36, 41
1, 239468, Note_off_c, 0, 36, 46
1, 239520, Note_on_c, 0, 36, 71
1, 239526, Note_on_c, 0, 77, 85
1, 239531, Note_off_c, 0, 43, 58
1, 239565, Note_off_c, 0, 76, 61
1, 239648, Note_off_c, 0, 36, 59
1, 239656, Note_on_c, 0, 44, 72
1, 239671, Note_off_c, 0, 77, 63
1, 239685, Note_on_c, 0, 76, 70
1, 239743, Note_off_c, 0, 76, 59
1, 239758, Note_on_c, 0, 77, 75
1, 239765, Note_on_c, 0, 36, 71
1, 239806, Note_on_c, 0, 79, 69
1, 239806, Note_off_c, 0, 77, 63
1, 239822, Note_off_c, 0, 36, 59
1, 239853, Note_off_c, 0, 79, 63
1, 239867, Note_on_c, 0, 77, 75
1, 239895, Note_on_c, 0, 36, 58
1, 239914, Note_on_c, 0, 79, 64
1, 239916, Note_off_c, 0, 77, 62
1, 239945, Note_off_c, 0, 36, 63
1, 239970, Note_off_c, 0, 79, 58
1, 239976, Note_on_c, 0, 77, 71
1, 240011, Note_on_c, 0, 79, 57
1, 240016, Note_off_c, 0, 77, 64
1, 240054, Note_on_c, 0, 36, 25
1, 240082, Note_on_c, 0, 77, 75
1, 240084, Note_off_c, 0, 79, 65
1, 240089, Note_off_c, 0, 36, 45
1, 240138, Note_off_c, 0, 77, 62
1, 240143, Note_on_c, 0, 79, 63
1, 240158, Note_on_c, 0, 36, 52
1, 240195, Note_off_c, 0, 36, 60
1, 240206, Note_on_c, 0, 77, 76
1, 240212, Note_off_c, 0, 79, 63
1, 240262, Note_on_c, 0, 76, 63
1, 240264, Note_off_c, 0, 77, 64
1, 240271, Note_on_c, 0, 36, 63
1, 240294, Note_off_c, 0, 44, 57
1, 240309, Note_on_c, 0, 79, 68
1, 240319, Note_off_c, 0, 76, 62
1, 240321, Control_c, 0, 64, 55
1, 240376, Note_off_c, 0, 36, 60
1, 240378, Note_on_c, 0, 77, 72
1, 240399, Note_off_c, 0, 79, 59
1, 240417, Note_on_c, 0, 43, 51
1, 240443, Note_on_c, 0, 76, 60
1, 240504, Note_off_c, 0, 77, 52
1, 240537, Note_off_c, 0, 76, 64
1, 240553, Note_on_c, 0, 36, 61
1, 240598, Note_off_c, 0, 36, 63
1, 240688, Note_on_c, 0, 36, 58
1, 240726, Note_off_c, 0, 36, 63
1, 240807, Note_on_c, 0, 49, 76
1, 240813, Note_on_c, 0, 36, 61
1, 240842, Note_off_c, 0, 49, 63
1, 240849, Note_off_c, 0, 36, 62
1, 240930, Note_on_c, 0, 49, 70
1, 240952, Note_on_c, 0, 36, 49
1, 240960, Note_off_c, 0, 43, 34
1, 240968, Note_off_c, 0, 49, 65
1, 240988, Note_off_c, 0, 36, 64
1, 241052, Note_on_c, 0, 49, 61
1, 241089, Note_on_c, 0, 36, 45
1, 241095, Note_off_c, 0, 49, 62
1, 241123, Note_off_c, 0, 36, 63
1, 241192, Note_on_c, 0, 48, 63
1, 241213, Note_on_c, 0, 36, 49
1, 241256, Note_off_c, 0, 36, 62
1, 241292, Note_off_c, 0, 48, 64
1, 241343, Note_on_c, 0, 36, 63
1, 241385, Note_off_c, 0, 36, 63
1, 241471, Note_on_c, 0, 36, 61
1, 241505, Note_off_c, 0, 36, 63
1, 241565, Note_on_c, 0, 79, 77
1, 241570, Note_on_c, 0, 76, 65
1, 241581, Note_on_c, 0, 36, 61
1, 241600, Note_off_c, 0, 76, 66
1, 241605, Note_off_c, 0, 79, 63
1, 241618, Note_off_c, 0, 36, 64
1, 241702, Note_on_c, 0, 79, 71
1, 241705, Note_on_c, 0, 76, 55
1, 241711, Note_on_c, 0, 36, 53
1, 241742, Note_off_c, 0, 79, 65
1, 241745, Note_off_c, 0, 76, 63
1, 241751, Note_off_c, 0, 36, 63
1, 241834, Note_on_c, 0, 79, 72
1, 241845, Note_on_c, 0, 36, 51
1, 241870, Note_off_c, 0, 79, 59
1, 241879, Note_off_c, 0, 36, 58
1, 241962, Note_on_c, 0, 82, 62
1, 241969, Note_on_c, 0, 36, 54
1, 241970, Note_on_c, 0, 79, 52
1, 242003, Note_off_c, 0, 36, 61
1, 242053, Note_off_c, 0, 79, 55
1, 242056, Control_c, 0, 64, 55
1, 242074, Note_off_c, 0, 82, 65
1, 242092, Note_on_c, 0, 36, 67
1, 242131, Note_off_c, 0, 36, 64
1, 242183, Poly_aftertouch_c, 0, 43, 127
1, 242217, Note_on_c, 0, 36, 62
1, 242251, Note_off_c, 0, 36, 62
1, 242329, Note_on_c, 0, 49, 72
1, 242335, Note_on_c, 0, 36, 64
1, 242361, Note_off_c, 0, 49, 67
1, 242366, Control_c, 0, 64, 55
1, 242375, Note_off_c, 0, 36, 64
1, 242447, Note_on_c, 0, 49, 64
1, 242465, Note_on_c, 0, 36, 57
1, 242480, Note_off_c, 0, 49, 65
1, 242493, Control_c, 0, 64, 54
1, 242501, Note_off_c, 0, 36, 61
1, 242561, Note_on_c, 0, 49, 59
1, 242595, Note_on_c, 0, 36, 45
1, 242607, Note_off_c, 0, 49, 62
1, 242623, Note_off_c, 0, 36, 56
1, 242698, Note_on_c, 0, 48, 62
1, 242709, Note_on_c, 0, 36, 53
1, 242748, Note_off_c, 0, 36, 63
1, 242769, Poly_aftertouch_c, 0, 43, 0
1, 242781, Note_off_c, 0, 48, 63
1, 242807, Poly_aftertouch_c, 0, 43, 127
1, 242819, Control_c, 0, 64, 55
1, 242833, Note_on_c, 0, 36, 68
1, 242867, Poly_aftertouch_c, 0, 43, 0
1, 242873, Note_off_c, 0, 36, 63
1, 242905, Poly_aftertouch_c, 0, 43, 127
1, 242952, Note_on_c, 0, 36, 66
1, 242988, Note_off_c, 0, 36, 65
1, 243067, Note_on_c, 0, 36, 65
1, 243069, Note_on_c, 0, 82, 67
1, 243070, Note_on_c, 0, 79, 63
1, 243101, Note_off_c, 0, 36, 66
1, 243104, Note_off_c, 0, 79, 64
1, 243119, Note_off_c, 0, 82, 63
1, 243159, Control_c, 0, 67, 126
1, 243174, Control_c, 0, 67, 125
1, 243197, Control_c, 0, 67, 123
1, 243207, Note_on_c, 0, 36, 57
1, 243209, Note_on_c, 0, 82, 75
1, 243210, Note_on_c, 0, 79, 56
1, 243212, Control_c, 0, 67, 121
1, 243226, Control_c, 0, 67, 119
1, 243235, Note_off_c, 0, 79, 65
1, 243240, Note_off_c, 0, 36, 61
1, 243241, Note_off_c, 0, 82, 67
1, 243241, Control_c, 0, 67, 117
1, 243256, Control_c, 0, 67, 115
1, 243270, Control_c, 0, 67, 115
1, 243286, Control_c, 0, 67, 114
1, 243301, Control_c, 0, 67, 113
1, 243316, Control_c, 0, 67, 112
1, 243319, Note_on_c, 0, 79, 55
1, 243320, Note_on_c, 0, 36, 59
1, 243331, Note_on_c, 0, 82, 71
1, 243331, Control_c, 0, 67, 112
1, 243346, Control_c, 0, 67, 110
1, 243353, Note_off_c, 0, 36, 62
1, 243355, Note_off_c, 0, 79, 63
1, 243358, Note_off_c, 0, 82, 67
1, 243361, Control_c, 0, 67, 108
1, 243375, Control_c, 0, 67, 105
1, 243390, Control_c, 0, 67, 102
1, 243405, Control_c, 0, 67, 99
1, 243420, Poly_aftertouch_c, 0, 43, 0
1, 243420, Control_c, 0, 67, 95
1, 243425, Note_on_c, 0, 36, 71
1, 243428, Note_on_c, 0, 88, 77
1, 243435, Control_c, 0, 67, 92
1, 243449, Control_c, 0, 67, 87
1, 243458, Note_off_c, 0, 36, 66
1, 243464, Control_c, 0, 67, 83
1, 243479, Control_c, 0, 67, 80
1, 243483, Note_off_c, 0, 88, 64
1, 243493, Note_on_c, 0, 82, 76
1, 243493, Control_c, 0, 67, 77
1, 243503, Note_on_c, 0, 43, 4
1, 243508, Control_c, 0, 67, 75
1, 243523, Control_c, 0, 67, 73
1, 243532, Note_off_c, 0, 82, 66
1, 243538, Note_on_c, 0, 36, 63
1, 243538, Control_c, 0, 67, 72
1, 243550, Note_on_c, 0, 91, 66
1, 243553, Control_c, 0, 67, 72
1, 243568, Control_c, 0, 67, 71
1, 243583, Control_c, 0, 67, 70
1, 243586, Note_off_c, 0, 36, 62
1, 243593, Note_off_c, 0, 91, 64
1, 243597, Control_c, 0, 67, 70
1, 243607, Note_off_c, 0, 43, 0
1, 243623, Note_on_c, 0, 88, 69
1, 243627, Control_c, 0, 67, 69
1, 243642, Control_c, 0, 67, 68
1, 243644, Poly_aftertouch_c, 0, 43, 127
1, 243657, Control_c, 0, 67, 66
1, 243672, Control_c, 0, 67, 61
1, 243676, Note_on_c, 0, 36, 70
1, 243678, Note_off_c, 0, 88, 65
1, 243680, Poly_aftertouch_c, 0, 43, 0
1, 243683, Note_on_c, 0, 94, 78
1, 243686, Control_c, 0, 67, 56
1, 243701, Control_c, 0, 67, 50
1, 243711, Note_off_c, 0, 36, 65
1, 243716, Control_c, 0, 67, 44
1, 243731, Control_c, 0, 67, 37
1, 243741, Note_on_c, 0, 91, 77
1, 243746, Control_c, 0, 67, 28
1, 243752, Note_off_c, 0, 94, 63
1, 243760, Control_c, 0, 67, 19
1, 243775, Control_c, 0, 67, 9
1, 243788, Note_off_c, 0, 91, 64
1, 243790, Control_c, 0, 67, 0
1, 243794, Note_on_c, 0, 36, 62
1, 243797, Note_on_c, 0, 88, 72
1, 243833, Note_off_c, 0, 36, 64
1, 243835, Note_off_c, 0, 88, 65
1, 243849, Control_c, 0, 64, 54
1, 243864, Control_c, 0, 64, 54
1, 243869, Note_on_c, 0, 91, 81
1, 243913, Note_off_c, 0, 91, 60
1, 243923, Note_on_c, 0, 36, 65
1, 243925, Note_on_c, 0, 82, 81
1, 243949, Poly_aftertouch_c, 0, 43, 0
1, 243972, Note_off_c, 0, 36, 63
1, 243986, Note_off_c, 0, 82, 64
1, 243991, Note_on_c, 0, 88, 74
1, 244029, Note_off_c, 0, 88, 64
1, 244046, Note_on_c, 0, 79, 78
1, 244063, Note_on_c, 0, 36, 71
1, 244093, Note_off_c, 0, 79, 64
1, 244099, Note_off_c, 0, 36, 65
1, 244111, Note_on_c, 0, 82, 87
1, 244164, Note_off_c, 0, 82, 65
1, 244179, Note_on_c, 0, 76, 75
1, 244184, Note_on_c, 0, 36, 62
1, 244211, Note_off_c, 0, 76, 63
1, 244226, Note_off_c, 0, 36, 61
1, 244232, Note_on_c, 0, 79, 82
1, 244298, Note_off_c, 0, 79, 64
1, 244299, Note_on_c, 0, 70, 84
1, 244320, Note_on_c, 0, 36, 67
1, 244353, Note_off_c, 0, 36, 63
1, 244364, Note_on_c, 0, 76, 80
1, 244367, Note_off_c, 0, 70, 64
1, 244408, Note_off_c, 0, 76, 63
1, 244420, Note_on_c, 0, 36, 71
1, 244420, Note_on_c, 0, 67, 85
1, 244468, Note_off_c, 0, 67, 65
1, 244477, Note_off_c, 0, 36, 63
1, 244483, Note_on_c, 0, 70, 87
1, 244536, Note_off_c, 0, 70, 63
1, 244538, Control_c, 0, 64, 54
1, 244543, Note_on_c, 0, 64, 84
1, 244545, Note_on_c, 0, 36, 72
1, 244583, Note_off_c, 0, 64, 61
1, 244593, Note_off_c, 0, 36, 62
1, 244602, Note_on_c, 0, 67, 82
1, 244627, Control_c, 0, 64, 55
1, 244641, Control_c, 0, 64, 55
1, 244657, Note_on_c, 0, 58, 85
1, 244665, Note_off_c, 0, 67, 62
1, 244695, Note_on_c, 0, 36, 72
1, 244730, Note_off_c, 0, 36, 65
1, 244735, Note_off_c, 0, 58, 65
1, 244737, Note_on_c, 0, 64, 63
1, 244740, Note_on_c, 0, 65, 72
1, 244769, Note_off_c, 0, 65, 65
1, 244774, Note_off_c, 0, 64, 67
1, 244784, Note_on_c, 0, 55, 88
1, 244807, Note_on_c, 0, 36, 81
1, 244833, Note_off_c, 0, 55, 64
1, 244841, Control_c, 0, 64, 55
1, 244851, Note_off_c, 0, 36, 62
1, 244852, Note_on_c, 0, 58, 92
1, 244856, Control_c, 0, 64, 54
1, 244887, Control_c, 0, 64, 54
1, 244902, Control_c, 0, 64, 53
1, 244915, Note_off_c, 0, 58, 64
1, 244920, Note_on_c, 0, 52, 86
1, 244921, Note_on_c, 0, 36, 84
1, 244963, Note_off_c, 0, 36, 62
1, 244966, Note_off_c, 0, 52, 66
1, 244988, Note_on_c, 0, 55, 89
1, 244991, Control_c, 0, 64, 53
1, 245020, Control_c, 0, 64, 52
1, 245040, Note_on_c, 0, 36, 77
1, 245051, Note_on_c, 0, 46, 85
1, 245059, Note_off_c, 0, 55, 62
1, 245079, Control_c, 0, 64, 52
1, 245091, Note_off_c, 0, 36, 62
1, 245094, Control_c, 0, 64, 51
1, 245118, Note_on_c, 0, 52, 78
1, 245126, Note_off_c, 0, 46, 64
1, 245171, Note_on_c, 0, 43, 85
1, 245174, Note_on_c, 0, 36, 83
1, 245183, Note_off_c, 0, 52, 65
1, 245198, Control_c, 0, 64, 51
1, 245213, Control_c, 0, 64, 50
1, 245216, Note_off_c, 0, 36, 63
1, 245237, Note_on_c, 0, 46, 87
1, 245255, Note_off_c, 0, 43, 63
1, 245294, Note_on_c, 0, 36, 86
1, 245301, Note_on_c, 0, 49, 85
1, 245310, Note_off_c, 0, 46, 63
1, 245345, Note_off_c, 0, 36, 62
1, 245360, Note_on_c, 0, 46, 81
1, 245365, Note_off_c, 0, 49, 64
1, 245402, Note_off_c, 0, 46, 66
1, 245413, Note_on_c, 0, 52, 87
1, 245421, Note_on_c, 0, 36, 88
1, 245468, Note_off_c, 0, 36, 63
1, 245490, Note_on_c, 0, 49, 83
1, 245493, Note_off_c, 0, 52, 66
1, 245502, Control_c, 0, 64, 51
1, 245517, Control_c, 0, 64, 51
1, 245539, Note_on_c, 0, 36, 92
1, 245544, Note_on_c, 0, 55, 82
1, 245546, Control_c, 0, 64, 52
1, 245555, Note_off_c, 0, 49, 65
1, 245561, Control_c, 0, 64, 52
1, 245592, Note_off_c, 0, 55, 62
1, 245595, Note_off_c, 0, 36, 63
1, 245600, Note_on_c, 0, 52, 90
1, 245648, Note_on_c, 0, 43, 103
1, 245654, Note_on_c, 0, 31, 87
1, 245658, Note_on_c, 0, 58, 100
1, 245698, Note_off_c, 0, 43, 65
1, 245704, Note_off_c, 0, 31, 63
1, 245714, Note_off_c, 0, 52, 61
1, 245717, Note_on_c, 0, 59, 11
1, 245725, Control_c, 0, 64, 52
1, 245738, Note_off_c, 0, 59, 35
1, 245740, Control_c, 0, 64, 51
1, 245755, Control_c, 0, 64, 51
1, 245771, Note_off_c, 0, 58, 58
1, 245791, Note_on_c, 0, 36, 91
1, 245839, Note_off_c, 0, 36, 63
1, 245932, Note_on_c, 0, 36, 94
1, 245987, Note_off_c, 0, 36, 61
1, 246053, Note_on_c, 0, 61, 97
1, 246055, Note_on_c, 0, 49, 92
1, 246061, Note_on_c, 0, 41, 104
1, 246066, Note_on_c, 0, 29, 93
1, 246072, Note_on_c, 0, 56, 58
1, 246081, Note_on_c, 0, 57, 70
1, 246102, Note_off_c, 0, 41, 66
1, 246122, Note_off_c, 0, 29, 61
1, 246125, Control_c, 0, 64, 50
1, 246150, Note_off_c, 0, 57, 57
1, 246165, Poly_aftertouch_c, 0, 60, 0
1, 246167, Note_off_c, 0, 56, 57
1, 246220, Note_off_c, 0, 61, 51
1, 246221, Note_on_c, 0, 36, 91
1, 246232, Note_off_c, 0, 49, 60
1, 246274, Note_off_c, 0, 36, 63
1, 246378, Note_on_c, 0, 36, 91
1, 246431, Note_off_c, 0, 36, 63
1, 246866, Note_on_c, 0, 36, 23
1, 246867, Note_on_c, 0, 40, 34
1, 246871, Note_on_c, 0, 60, 49
1, 246894, Note_on_c, 0, 52, 30
1, 246905, Note_on_c, 0, 55, 20
1, 247251, Control_c, 0, 64, 51
1, 247356, Control_c, 0, 64, 51
1, 247445, Control_c, 0, 64, 52
1, 247608, Control_c, 0, 64, 52
1, 247653, Control_c, 0, 64, 53
1, 247668, Control_c, 0, 64, 53
1, 247705, Control_c, 0, 64, 54
1, 247749, Control_c, 0, 64, 54
1, 247779, Control_c, 0, 64, 55
1, 248001, Control_c, 0, 64, 55
1, 248343, Control_c, 0, 67, 8
1, 248358, Control_c, 0, 67, 28
1, 248372, Control_c, 0, 67, 47
1, 248387, Control_c, 0, 67, 64
1, 248402, Control_c, 0, 67, 78
1, 248417, Control_c, 0, 67, 92
1, 248438, Control_c, 0, 67, 108
1, 248453, Control_c, 0, 67, 120
1, 248468, Control_c, 0, 67, 127
1, 248513, Note_off_c, 0, 60, 32
1, 248655, Note_off_c, 0, 36, 40
1, 248721, Note_off_c, 0, 55, 43
1, 248838, Control_c, 0, 64, 55
1, 249132, Note_on_c, 0, 60, 37
1, 249136, Note_on_c, 0, 36, 28
1, 249165, Control_c, 0, 64, 54
1, 249202, Control_c, 0, 64, 54
1, 249236, Note_off_c, 0, 40, 44
1, 249276, Note_off_c, 0, 52, 42
1, 249291, Control_c, 0, 67, 123
1, 249305, Control_c, 0, 67, 109
1, 249320, Control_c, 0, 67, 78
1, 249335, Control_c, 0, 67, 31
1, 249350, Control_c, 0, 67, 0
1, 249394, Control_c, 0, 64, 54
1, 249483, Control_c, 0, 64, 54
1, 249498, Control_c, 0, 64, 49
1, 249500, Note_off_c, 0, 60, 63
1, 249507, Note_on_c, 0, 57, 63
1, 249512, Control_c, 0, 64, 40
1, 249517, Note_on_c, 0, 33, 60
1, 249527, Control_c, 0, 64, 32
1, 249542, Control_c, 0, 64, 31
1, 249557, Control_c, 0, 64, 32
1, 249565, Note_off_c, 0, 36, 0
1, 249572, Control_c, 0, 64, 54
1, 249579, Note_on_c, 0, 29, 95
1, 249585, Note_on_c, 0, 53, 90
1, 249586, Control_c, 0, 64, 71
1, 249597, Note_on_c, 0, 36, 20
1, 249601, Control_c, 0, 64, 127
1, 249625, Note_off_c, 0, 33, 60
1, 249636, Note_off_c, 0, 57, 63
1, 249642, Note_off_c, 0, 36, 42
1, 249710, Note_off_c, 0, 53, 62
1, 249738, Note_on_c, 0, 56, 40
1, 249776, Note_off_c, 0, 56, 65
1, 249822, Note_on_c, 0, 53, 87
1, 249822, Note_on_c, 0, 65, 89
1, 249825, Note_on_c, 0, 57, 73
1, 249830, Note_on_c, 0, 60, 70
1, 249861, Note_off_c, 0, 29, 55
1, 249962, Note_off_c, 0, 57, 55
1, 249986, Note_on_c, 0, 41, 80
1, 249986, Note_off_c, 0, 53, 55
1, 249992, Note_on_c, 0, 29, 69
1, 249992, Note_off_c, 0, 60, 62
1, 249996, Note_on_c, 0, 36, 59
1, 250001, Note_on_c, 0, 33, 62
1, 250033, Note_off_c, 0, 65, 58
1, 250135, Note_on_c, 0, 57, 92
1, 250135, Note_on_c, 0, 60, 77
1, 250135, Note_on_c, 0, 69, 91
1, 250147, Note_on_c, 0, 65, 69
1, 250179, Note_off_c, 0, 29, 55
1, 250186, Note_off_c, 0, 41, 59
1, 250212, Note_off_c, 0, 33, 54
1, 250232, Note_off_c, 0, 36, 55
1, 250259, Note_off_c, 0, 60, 55
1, 250261, Note_off_c, 0, 57, 60
1, 250263, Note_on_c, 0, 41, 92
1, 250266, Note_on_c, 0, 29, 74
1, 250266, Note_on_c, 0, 36, 47
1, 250273, Note_on_c, 0, 33, 53
1, 250310, Note_off_c, 0, 65, 60
1, 250310, Note_off_c, 0, 69, 57
1, 250384, Note_on_c, 0, 72, 94
1, 250385, Note_on_c, 0, 60, 91
1, 250399, Note_on_c, 0, 65, 78
1, 250403, Note_on_c, 0, 69, 75
1, 250427, Note_off_c, 0, 29, 53
1, 250429, Note_off_c, 0, 41, 60
1, 250453, Note_off_c, 0, 33, 51
1, 250462, Note_on_c, 0, 67, 3
1, 250480, Note_off_c, 0, 36, 55
1, 250482, Note_off_c, 0, 69, 59
1, 250495, Note_off_c, 0, 60, 58
1, 250505, Note_on_c, 0, 41, 96
1, 250506, Note_on_c, 0, 29, 76
1, 250506, Note_off_c, 0, 65, 60
1, 250507, Note_off_c, 0, 67, 45
1, 250510, Note_on_c, 0, 36, 41
1, 250518, Note_on_c, 0, 33, 54
1, 250534, Note_off_c, 0, 72, 63
1, 250629, Note_on_c, 0, 65, 95
1, 250629, Note_on_c, 0, 72, 88
1, 250629, Note_on_c, 0, 77, 100
1, 250631, Note_on_c, 0, 69, 87
1, 250686, Note_off_c, 0, 41, 56
1, 250698, Note_off_c, 0, 29, 49
1, 250737, Note_off_c, 0, 33, 57
1, 250745, Note_off_c, 0, 65, 57
1, 250757, Note_off_c, 0, 36, 0
1, 250776, Note_on_c, 0, 41, 99
1, 250779, Note_on_c, 0, 29, 72
1, 250779, Note_off_c, 0, 69, 56
1, 250783, Note_on_c, 0, 36, 32
1, 250786, Note_on_c, 0, 33, 49
1, 250796, Note_off_c, 0, 77, 59
1, 250800, Note_off_c, 0, 72, 62
1, 250881, Note_on_c, 0, 69, 99
1, 250881, Note_on_c, 0, 81, 88
1, 250889, Note_on_c, 0, 72, 83
1, 250895, Note_on_c, 0, 77, 80
1, 250907, Note_on_c, 0, 76, 57
1, 250914, Note_on_c, 0, 79, 47
1, 250915, Note_off_c, 0, 79, 127
1, 250928, Note_off_c, 0, 76, 59
1, 250945, Note_off_c, 0, 41, 60
1, 250951, Note_off_c, 0, 29, 54
1, 250984, Note_off_c, 0, 69, 57
1, 250985, Note_off_c, 0, 72, 62
1, 251016, Note_off_c, 0, 36, 0
1, 251023, Note_off_c, 0, 77, 55
1, 251025, Note_off_c, 0, 33, 0
1, 251025, Note_off_c, 0, 81, 64
1, 251029, Note_on_c, 0, 41, 101
1, 251032, Note_on_c, 0, 29, 77
1, 251041, Note_on_c, 0, 36, 27
1, 251041, Note_on_c, 0, 33, 46
1, 251124, Note_on_c, 0, 84, 105
1, 251124, Note_on_c, 0, 72, 102
1, 251127, Note_on_c, 0, 77, 91
1, 251131, Note_on_c, 0, 81, 79
1, 251169, Note_off_c, 0, 72, 63
1, 251175, Note_off_c, 0, 81, 48
1, 251181, Note_off_c, 0, 77, 55
1, 251218, Note_off_c, 0, 29, 53
1, 251228, Note_off_c, 0, 84, 60
1, 251264, Note_off_c, 0, 41, 57
1, 251297, Note_off_c, 0, 33, 32
1, 251324, Note_off_c, 0, 36, 26
1, 251451, Note_on_c, 0, 36, 76
1, 251451, Note_on_c, 0, 77, 103
1, 251451, Note_on_c, 0, 89, 103
1, 251452, Note_on_c, 0, 81, 85
1, 251455, Note_on_c, 0, 84, 90
1, 251456, Note_on_c, 0, 33, 78
1, 251456, Note_on_c, 0, 41, 103
1, 251458, Note_on_c, 0, 29, 94
1, 251482, Note_on_c, 0, 86, 55
1, 251503, Note_off_c, 0, 86, 61
1, 251524, Control_c, 0, 64, 81
1, 251538, Control_c, 0, 64, 55
1, 251553, Control_c, 0, 64, 0
1, 251745, Control_c, 0, 64, 43
1, 251760, Control_c, 0, 64, 55
1, 251775, Control_c, 0, 64, 61
1, 251789, Control_c, 0, 64, 65
1, 251804, Control_c, 0, 64, 72
1, 251819, Control_c, 0, 64, 85
1, 251834, Control_c, 0, 64, 113
1, 251849, Control_c, 0, 64, 127
1, 252412, Note_off_c, 0, 89, 32
1, 252514, Note_off_c, 0, 77, 53
1, 252529, Note_off_c, 0, 84, 55
1, 252531, Note_off_c, 0, 81, 54
1, 252592, Note_off_c, 0, 41, 59
1, 252664, Note_off_c, 0, 36, 39
1, 252707, Note_off_c, 0, 33, 38
1, 252849, Control_c, 0, 64, 109
1, 252864, Control_c, 0, 64, 96
1, 252880, Control_c, 0, 64, 88
1, 252894, Control_c, 0, 64, 83
1, 252909, Control_c, 0, 64, 81
1, 252931, Control_c, 0, 64, 80
1, 252946, Control_c, 0, 64, 79
1, 252961, Control_c, 0, 64, 77
1, 252975, Control_c, 0, 64, 75
1, 252990, Control_c, 0, 64, 72
1, 253005, Control_c, 0, 64, 70
1, 253020, Control_c, 0, 64, 68
1, 253035, Control_c, 0, 64, 66
1, 253050, Control_c, 0, 64, 64
1, 253065, Control_c, 0, 64, 63
1, 253080, Control_c, 0, 64, 62
1, 253082, Note_on_c, 0, 57, 50
1, 253095, Control_c, 0, 64, 60
1, 253102, Note_on_c, 0, 33, 27
1, 253109, Control_c, 0, 64, 59
1, 253124, Control_c, 0, 64, 56
1, 253139, Note_off_c, 0, 29, 27
1, 253139, Control_c, 0, 64, 54
1, 253153, Control_c, 0, 64, 52
1, 253168, Control_c, 0, 64, 51
1, 253198, Control_c, 0, 64, 50
1, 253213, Control_c, 0, 64, 49
1, 253227, Control_c, 0, 64, 48
1, 253242, Control_c, 0, 64, 47
1, 253257, Control_c, 0, 64, 46
1, 253401, Note_on_c, 0, 60, 45
1, 253413, Note_on_c, 0, 36, 34
1, 253422, Note_off_c, 0, 57, 55
1, 253457, Note_off_c, 0, 33, 40
1, 253485, Note_on_c, 0, 65, 48
1, 253498, Note_on_c, 0, 41, 38
1, 253515, Note_off_c, 0, 36, 56
1, 253533, Note_off_c, 0, 60, 56
1, 253553, Control_c, 0, 64, 47
1, 253627, Control_c, 0, 64, 47
1, 253739, Control_c, 0, 64, 48
1, 253813, Control_c, 0, 64, 48
1, 253913, Note_on_c, 0, 69, 49
1, 253918, Note_on_c, 0, 45, 45
1, 254021, Note_off_c, 0, 41, 37
1, 254215, Note_off_c, 0, 45, 56
1, 254217, Note_on_c, 0, 72, 53
1, 254218, Note_on_c, 0, 48, 39
1, 254222, Note_off_c, 0, 69, 56
1, 254257, Control_c, 0, 64, 49
1, 254299, Note_on_c, 0, 53, 46
1, 254305, Note_on_c, 0, 77, 57
1, 254321, Note_off_c, 0, 72, 59
1, 254328, Note_off_c, 0, 65, 30
1, 254342, Note_off_c, 0, 48, 46
1, 254746, Note_on_c, 0, 65, 44
1, 254760, Note_on_c, 0, 41, 36
1, 254784, Control_c, 0, 64, 52
1, 254798, Control_c, 0, 64, 58
1, 254813, Control_c, 0, 64, 63
1, 254828, Control_c, 0, 64, 67
1, 254843, Control_c, 0, 64, 74
1, 254850, Note_off_c, 0, 77, 40
1, 254858, Control_c, 0, 64, 86
1, 254872, Control_c, 0, 64, 110
1, 254886, Note_off_c, 0, 41, 53
1, 254887, Control_c, 0, 64, 127
1, 254924, Note_off_c, 0, 53, 26
1, 254964, Note_off_c, 0, 65, 59
1, 255139, Control_c, 0, 64, 77
1, 255154, Control_c, 0, 64, 53
1, 255176, Control_c, 0, 64, 0
1, 255193, Note_on_c, 0, 60, 99
1, 255195, Note_on_c, 0, 55, 80
1, 255197, Note_on_c, 0, 52, 86
1, 255205, Control_c, 0, 64, 38
1, 255220, Control_c, 0, 64, 63
1, 255235, Control_c, 0, 64, 84
1, 255250, Control_c, 0, 64, 127
1, 255330, Note_off_c, 0, 55, 64
1, 255336, Note_off_c, 0, 60, 43
1, 255351, Note_off_c, 0, 52, 64
1, 255379, Note_on_c, 0, 60, 54
1, 255381, Note_on_c, 0, 64, 89
1, 255384, Note_on_c, 0, 55, 86
1, 255499, Note_on_c, 0, 40, 85
1, 255502, Note_on_c, 0, 48, 89
1, 255506, Note_off_c, 0, 55, 58
1, 255510, Note_on_c, 0, 43, 73
1, 255560, Note_off_c, 0, 60, 35
1, 255564, Note_off_c, 0, 64, 62
1, 255632, Note_on_c, 0, 67, 99
1, 255634, Note_on_c, 0, 60, 89
1, 255640, Note_on_c, 0, 64, 82
1, 255667, Note_off_c, 0, 48, 59
1, 255677, Note_off_c, 0, 40, 60
1, 255700, Note_off_c, 0, 43, 60
1, 255737, Poly_aftertouch_c, 0, 43, 0
1, 255739, Note_on_c, 0, 40, 79
1, 255742, Note_on_c, 0, 48, 94
1, 255745, Note_on_c, 0, 43, 58
1, 255760, Note_off_c, 0, 60, 62
1, 255772, Note_off_c, 0, 64, 60
1, 255790, Note_off_c, 0, 67, 59
1, 255853, Note_on_c, 0, 72, 103
1, 255856, Note_on_c, 0, 64, 92
1, 255857, Note_on_c, 0, 67, 82
1, 255912, Note_off_c, 0, 48, 60
1, 255925, Note_off_c, 0, 40, 60
1, 255949, Note_off_c, 0, 43, 61
1, 255971, Note_off_c, 0, 67, 61
1, 255975, Note_off_c, 0, 64, 59
1, 255978, Note_on_c, 0, 40, 77
1, 255981, Note_on_c, 0, 48, 95
1, 255985, Note_on_c, 0, 43, 57
1, 256025, Note_off_c, 0, 72, 62
1, 256083, Note_on_c, 0, 76, 101
1, 256084, Note_on_c, 0, 67, 88
1, 256085, Note_on_c, 0, 72, 90
1, 256136, Note_off_c, 0, 40, 57
1, 256146, Note_off_c, 0, 48, 61
1, 256171, Note_off_c, 0, 43, 61
1, 256187, Note_off_c, 0, 67, 58
1, 256204, Note_on_c, 0, 48, 91
1, 256207, Note_on_c, 0, 40, 81
1, 256209, Note_on_c, 0, 43, 62
1, 256219, Note_off_c, 0, 72, 59
1, 256234, Note_off_c, 0, 76, 61
1, 256303, Note_on_c, 0, 79, 96
1, 256306, Note_on_c, 0, 72, 93
1, 256308, Note_on_c, 0, 76, 89
1, 256343, Note_off_c, 0, 48, 58
1, 256346, Note_off_c, 0, 40, 61
1, 256371, Note_off_c, 0, 43, 58
1, 256412, Note_off_c, 0, 72, 61
1, 256416, Note_on_c, 0, 43, 66
1, 256417, Note_on_c, 0, 48, 93
1, 256418, Note_on_c, 0, 40, 80
1, 256433, Note_off_c, 0, 76, 62
1, 256448, Note_off_c, 0, 79, 62
1, 256520, Note_on_c, 0, 84, 101
1, 256523, Note_on_c, 0, 76, 94
1, 256529, Note_on_c, 0, 79, 82
1, 256569, Note_off_c, 0, 40, 60
1, 256598, Note_off_c, 0, 43, 62
1, 256602, Note_off_c, 0, 48, 60
1, 256654, Note_off_c, 0, 84, 60
1, 256672, Note_off_c, 0, 76, 60
1, 256679, Note_off_c, 0, 79, 60
1, 256748, Control_c, 0, 64, 114
1, 256763, Control_c, 0, 64, 92
1, 256777, Control_c, 0, 64, 81
1, 256792, Control_c, 0, 64, 73
1, 256807, Control_c, 0, 64, 68
1, 256822, Control_c, 0, 64, 65
1, 256837, Control_c, 0, 64, 63
1, 256851, Control_c, 0, 64, 61
1, 256867, Control_c, 0, 64, 60
1, 256882, Control_c, 0, 64, 58
1, 256897, Control_c, 0, 64, 57
1, 256912, Control_c, 0, 64, 55
1, 256927, Control_c, 0, 64, 53
1, 256941, Control_c, 0, 64, 52
1, 256956, Control_c, 0, 64, 51
1, 256971, Control_c, 0, 64, 49
1, 256986, Control_c, 0, 64, 48
1, 257000, Control_c, 0, 64, 46
1, 257015, Control_c, 0, 64, 44
1, 257030, Control_c, 0, 64, 42
1, 257045, Control_c, 0, 64, 42
1, 257060, Control_c, 0, 64, 41
1, 257104, Control_c, 0, 64, 41
1, 257119, Control_c, 0, 64, 40
1, 257181, Note_on_c, 0, 72, 51
1, 257196, Note_on_c, 0, 67, 37
1, 257202, Note_on_c, 0, 64, 34
1, 257468, Control_c, 0, 64, 41
1, 257482, Control_c, 0, 64, 41
1, 257512, Control_c, 0, 64, 42
1, 257526, Control_c, 0, 64, 42
1, 257541, Control_c, 0, 64, 43
1, 257556, Control_c, 0, 64, 44
1, 257571, Control_c, 0, 64, 45
1, 257586, Control_c, 0, 64, 46
1, 257600, Control_c, 0, 64, 47
1, 257615, Control_c, 0, 64, 48
1, 257630, Control_c, 0, 64, 51
1, 257645, Control_c, 0, 64, 52
1, 257660, Control_c, 0, 64, 53
1, 257676, Control_c, 0, 64, 53
1, 257690, Control_c, 0, 64, 54
1, 257705, Control_c, 0, 64, 55
1, 257720, Control_c, 0, 64, 57
1, 257735, Control_c, 0, 64, 59
1, 257750, Control_c, 0, 64, 60
1, 257764, Control_c, 0, 64, 60
1, 257794, Control_c, 0, 64, 61
1, 257809, Control_c, 0, 64, 61
1, 257823, Control_c, 0, 64, 62
1, 257838, Control_c, 0, 64, 63
1, 257862, Note_on_c, 0, 74, 51
1, 257868, Control_c, 0, 64, 63
1, 257897, Control_c, 0, 64, 64
1, 257957, Note_off_c, 0, 72, 54
1, 258071, Note_off_c, 0, 74, 63
1, 258082, Note_on_c, 0, 76, 60
1, 258099, Note_on_c, 0, 71, 51
1, 258101, Note_on_c, 0, 65, 36
1, 258106, Note_on_c, 0, 68, 34
1, 258126, Note_off_c, 0, 76, 58
1, 258134, Control_c, 0, 64, 62
1, 258145, Note_off_c, 0, 64, 39
1, 258149, Control_c, 0, 64, 60
1, 258170, Note_on_c, 0, 74, 54
1, 258171, Control_c, 0, 64, 57
1, 258185, Note_off_c, 0, 67, 41
1, 258186, Control_c, 0, 64, 55
1, 258201, Control_c, 0, 64, 54
1, 258212, Note_off_c, 0, 74, 64
1, 258216, Control_c, 0, 64, 53
1, 258231, Control_c, 0, 64, 52
1, 258232, Note_on_c, 0, 76, 59
1, 258275, Note_off_c, 0, 76, 62
1, 258294, Note_on_c, 0, 74, 54
1, 258332, Note_off_c, 0, 74, 65
1, 258350, Note_on_c, 0, 76, 50
1, 258364, Control_c, 0, 64, 53
1, 258394, Control_c, 0, 64, 53
1, 258406, Note_off_c, 0, 76, 58
1, 258411, Note_on_c, 0, 74, 58
1, 258423, Control_c, 0, 64, 54
1, 258469, Control_c, 0, 64, 54
1, 258477, Note_off_c, 0, 74, 62
1, 258496, Note_on_c, 0, 76, 61
1, 258544, Note_on_c, 0, 74, 56
1, 258558, Control_c, 0, 64, 55
1, 258560, Note_off_c, 0, 76, 59
1, 258609, Note_off_c, 0, 74, 62
1, 258615, Note_on_c, 0, 72, 62
1, 258646, Control_c, 0, 64, 55
1, 258659, Note_off_c, 0, 65, 63
1, 258664, Note_off_c, 0, 68, 58
1, 258675, Note_on_c, 0, 76, 62
1, 258675, Note_off_c, 0, 72, 60
1, 258676, Control_c, 0, 64, 56
1, 258691, Control_c, 0, 64, 57
1, 258707, Control_c, 0, 64, 58
1, 258721, Control_c, 0, 64, 60
1, 258736, Note_on_c, 0, 74, 65
1, 258736, Control_c, 0, 64, 61
1, 258751, Control_c, 0, 64, 61
1, 258755, Note_off_c, 0, 71, 22
1, 258757, Note_off_c, 0, 76, 51
1, 258795, Control_c, 0, 64, 58
1, 258796, Note_off_c, 0, 74, 63
1, 258810, Control_c, 0, 64, 48
1, 258825, Control_c, 0, 64, 34
1, 258839, Control_c, 0, 64, 25
1, 258854, Control_c, 0, 64, 26
1, 258869, Control_c, 0, 64, 50
1, 258884, Control_c, 0, 64, 70
1, 258899, Control_c, 0, 64, 127
1, 258903, Note_on_c, 0, 60, 99
1, 258904, Note_on_c, 0, 55, 89
1, 258907, Note_on_c, 0, 52, 90
1, 259039, Note_off_c, 0, 60, 58
1, 259072, Note_off_c, 0, 55, 63
1, 259094, Note_off_c, 0, 52, 64
1, 259096, Note_on_c, 0, 64, 90
1, 259098, Note_on_c, 0, 55, 73
1, 259102, Note_on_c, 0, 60, 69
1, 259208, Note_off_c, 0, 55, 57
1, 259214, Note_on_c, 0, 48, 90
1, 259215, Note_on_c, 0, 40, 85
1, 259226, Note_on_c, 0, 43, 71
1, 259226, Note_off_c, 0, 60, 63
1, 259259, Note_off_c, 0, 64, 63
1, 259328, Note_on_c, 0, 67, 95
1, 259331, Note_on_c, 0, 60, 89
1, 259334, Note_on_c, 0, 64, 81
1, 259366, Note_off_c, 0, 48, 60
1, 259384, Note_off_c, 0, 40, 60
1, 259401, Note_off_c, 0, 43, 60
1, 259441, Note_on_c, 0, 40, 76
1, 259443, Note_on_c, 0, 48, 91
1, 259444, Note_off_c, 0, 60, 59
1, 259446, Note_on_c, 0, 43, 59
1, 259455, Note_off_c, 0, 64, 60
1, 259477, Note_off_c, 0, 67, 61
1, 259548, Note_on_c, 0, 72, 101
1, 259551, Note_on_c, 0, 64, 94
1, 259557, Note_on_c, 0, 67, 83
1, 259596, Note_off_c, 0, 48, 59
1, 259603, Note_off_c, 0, 40, 60
1, 259638, Note_off_c, 0, 43, 51
1, 259679, Note_off_c, 0, 64, 58
1, 259679, Note_on_c, 0, 40, 79
1, 259681, Note_on_c, 0, 48, 95
1, 259682, Note_on_c, 0, 43, 59
1, 259685, Note_off_c, 0, 67, 60
1, 259724, Note_off_c, 0, 72, 54
1, 259786, Note_on_c, 0, 76, 98
1, 259787, Note_on_c, 0, 67, 93
1, 259790, Note_on_c, 0, 72, 88
1, 259839, Note_off_c, 0, 48, 62
1, 259843, Note_off_c, 0, 40, 61
1, 259864, Note_off_c, 0, 43, 61
1, 259869, Note_off_c, 0, 67, 51
1, 259901, Note_on_c, 0, 48, 89
1, 259902, Note_on_c, 0, 40, 78
1, 259903, Note_on_c, 0, 43, 65
1, 259915, Note_off_c, 0, 72, 63
1, 259928, Note_off_c, 0, 76, 61
1, 259998, Note_on_c, 0, 79, 94
1, 260004, Note_on_c, 0, 76, 84
1, 260005, Note_on_c, 0, 72, 82
1, 260045, Note_off_c, 0, 48, 57
1, 260049, Note_off_c, 0, 40, 59
1, 260081, Note_off_c, 0, 43, 60
1, 260099, Note_off_c, 0, 72, 60
1, 260122, Note_off_c, 0, 76, 61
1, 260123, Note_on_c, 0, 43, 63
1, 260124, Note_on_c, 0, 40, 77
1, 260127, Note_on_c, 0, 48, 87
1, 260139, Note_off_c, 0, 79, 64
1, 260210, Note_on_c, 0, 84, 107
1, 260216, Note_on_c, 0, 76, 88
1, 260221, Note_on_c, 0, 79, 80
1, 260250, Note_off_c, 0, 40, 60
1, 260282, Note_off_c, 0, 43, 61
1, 260284, Note_off_c, 0, 48, 53
1, 260335, Note_off_c, 0, 84, 60
1, 260349, Note_off_c, 0, 76, 59
1, 260364, Note_off_c, 0, 79, 61
1, 260478, Control_c, 0, 64, 98
1, 260492, Control_c, 0, 64, 86
1, 260507, Control_c, 0, 64, 77
1, 260522, Control_c, 0, 64, 72
1, 260537, Control_c, 0, 64, 68
1, 260552, Control_c, 0, 64, 65
1, 260566, Control_c, 0, 64, 64
1, 260581, Control_c, 0, 64, 63
1, 260596, Control_c, 0, 64, 62
1, 260610, Control_c, 0, 64, 61
1, 260640, Control_c, 0, 64, 61
1, 260670, Control_c, 0, 64, 60
1, 260684, Control_c, 0, 64, 60
1, 260773, Control_c, 0, 64, 59
1, 260788, Control_c, 0, 64, 59
1, 260794, Note_on_c, 0, 67, 44
1, 260798, Note_on_c, 0, 72, 54
1, 260803, Control_c, 0, 64, 58
1, 260809, Note_on_c, 0, 64, 34
1, 260818, Control_c, 0, 64, 58
1, 260833, Control_c, 0, 64, 57
1, 260848, Control_c, 0, 64, 57
1, 260863, Control_c, 0, 64, 56
1, 260878, Control_c, 0, 64, 55
1, 260893, Control_c, 0, 64, 53
1, 260908, Control_c, 0, 64, 51
1, 260923, Control_c, 0, 64, 50
1, 260937, Control_c, 0, 64, 49
1, 260952, Control_c, 0, 64, 49
1, 260967, Control_c, 0, 64, 48
1, 260982, Control_c, 0, 64, 47
1, 260997, Control_c, 0, 64, 46
1, 261012, Control_c, 0, 64, 45
1, 261027, Control_c, 0, 64, 45
1, 261041, Control_c, 0, 64, 44
1, 261071, Control_c, 0, 64, 44
1, 261086, Control_c, 0, 64, 43
1, 261101, Control_c, 0, 64, 41
1, 261115, Control_c, 0, 64, 39
1, 261130, Control_c, 0, 64, 38
1, 261145, Control_c, 0, 64, 37
1, 261167, Control_c, 0, 64, 35
1, 261182, Control_c, 0, 64, 33
1, 261197, Control_c, 0, 64, 31
1, 261212, Control_c, 0, 64, 30
1, 261227, Control_c, 0, 64, 30
1, 261432, Note_on_c, 0, 74, 57
1, 261507, Control_c, 0, 64, 30
1, 261552, Control_c, 0, 64, 31
1, 261566, Control_c, 0, 64, 31
1, 261581, Control_c, 0, 64, 32
1, 261596, Control_c, 0, 64, 32
1, 261611, Note_off_c, 0, 72, 30
1, 261611, Control_c, 0, 64, 33
1, 261626, Control_c, 0, 64, 33
1, 261635, Note_off_c, 0, 74, 61
1, 261641, Control_c, 0, 64, 34
1, 261650, Note_on_c, 0, 76, 60
1, 261671, Control_c, 0, 64, 34
1, 261678, Note_on_c, 0, 68, 43
1, 261679, Note_off_c, 0, 64, 51
1, 261683, Note_on_c, 0, 65, 45
1, 261702, Note_off_c, 0, 76, 62
1, 261724, Note_on_c, 0, 74, 58
1, 261760, Control_c, 0, 64, 35
1, 261761, Note_off_c, 0, 74, 65
1, 261771, Note_off_c, 0, 67, 42
1, 261780, Note_on_c, 0, 76, 51
1, 261818, Note_off_c, 0, 76, 65
1, 261820, Control_c, 0, 64, 35
1, 261840, Note_on_c, 0, 74, 61
1, 261871, Note_off_c, 0, 74, 66
1, 261879, Control_c, 0, 64, 36
1, 261894, Note_on_c, 0, 76, 61
1, 261894, Control_c, 0, 64, 36
1, 261916, Control_c, 0, 64, 37
1, 261945, Note_off_c, 0, 76, 61
1, 261945, Control_c, 0, 64, 37
1, 261955, Note_on_c, 0, 74, 60
1, 261960, Control_c, 0, 64, 38
1, 261989, Note_off_c, 0, 74, 66
1, 261994, Note_on_c, 0, 76, 54
1, 262019, Control_c, 0, 64, 38
1, 262060, Note_off_c, 0, 76, 61
1, 262073, Note_on_c, 0, 74, 54
1, 262097, Note_off_c, 0, 74, 63
1, 262102, Note_on_c, 0, 76, 48
1, 262124, Control_c, 0, 64, 39
1, 262146, Note_off_c, 0, 68, 62
1, 262148, Note_off_c, 0, 65, 64
1, 262149, Note_off_c, 0, 76, 66
1, 262153, Control_c, 0, 64, 39
1, 262166, Note_on_c, 0, 74, 70
1, 262183, Control_c, 0, 64, 40
1, 262197, Control_c, 0, 64, 40
1, 262198, Note_off_c, 0, 74, 61
1, 262210, Note_on_c, 0, 72, 66
1, 262212, Control_c, 0, 64, 41
1, 262227, Control_c, 0, 64, 43
1, 262242, Control_c, 0, 64, 44
1, 262256, Control_c, 0, 64, 45
1, 262276, Note_on_c, 0, 74, 69
1, 262285, Note_off_c, 0, 72, 58
1, 262301, Control_c, 0, 64, 44
1, 262304, Note_off_c, 0, 74, 67
1, 262316, Control_c, 0, 64, 37
1, 262330, Control_c, 0, 64, 20
1, 262345, Control_c, 0, 64, 16
1, 262360, Control_c, 0, 64, 35
1, 262375, Control_c, 0, 64, 61
1, 262384, Note_on_c, 0, 64, 95
1, 262386, Note_on_c, 0, 58, 88
1, 262389, Control_c, 0, 64, 78
1, 262390, Note_on_c, 0, 55, 80
1, 262404, Control_c, 0, 64, 127
1, 262473, Note_off_c, 0, 64, 58
1, 262494, Note_off_c, 0, 58, 64
1, 262517, Note_off_c, 0, 55, 64
1, 262540, Note_on_c, 0, 67, 90
1, 262541, Note_on_c, 0, 58, 81
1, 262583, Note_on_c, 0, 64, 41
1, 262612, Note_off_c, 0, 64, 62
1, 262629, Note_off_c, 0, 58, 64
1, 262661, Note_on_c, 0, 46, 77
1, 262663, Note_on_c, 0, 52, 80
1, 262666, Note_on_c, 0, 43, 71
1, 262674, Note_off_c, 0, 67, 60
1, 262681, Note_on_c, 0, 53, 58
1, 262707, Note_off_c, 0, 53, 61
1, 262773, Note_on_c, 0, 70, 89
1, 262774, Note_on_c, 0, 64, 87
1, 262786, Note_on_c, 0, 67, 76
1, 262800, Note_off_c, 0, 52, 60
1, 262815, Note_off_c, 0, 43, 59
1, 262821, Note_off_c, 0, 46, 59
1, 262848, Note_on_c, 0, 69, 33
1, 262883, Note_off_c, 0, 69, 52
1, 262884, Note_on_c, 0, 52, 95
1, 262886, Poly_aftertouch_c, 0, 68, 0
1, 262887, Note_off_c, 0, 70, 58
1, 262890, Note_on_c, 0, 46, 79
1, 262893, Note_on_c, 0, 43, 77
1, 262896, Note_off_c, 0, 64, 60
1, 262904, Note_off_c, 0, 67, 58
1, 262985, Note_on_c, 0, 76, 96
1, 262990, Note_on_c, 0, 70, 87
1, 263006, Note_on_c, 0, 67, 55
1, 263012, Note_on_c, 0, 69, 67
1, 263017, Note_off_c, 0, 52, 61
1, 263021, Note_off_c, 0, 43, 56
1, 263033, Note_off_c, 0, 46, 62
1, 263048, Note_off_c, 0, 67, 61
1, 263058, Note_off_c, 0, 69, 49
1, 263066, Poly_aftertouch_c, 0, 73, 127
1, 263090, Note_on_c, 0, 52, 93
1, 263091, Note_off_c, 0, 70, 61
1, 263095, Note_on_c, 0, 46, 73
1, 263099, Note_on_c, 0, 43, 76
1, 263109, Poly_aftertouch_c, 0, 73, 0
1, 263116, Note_off_c, 0, 76, 61
1, 263210, Note_on_c, 0, 79, 95
1, 263218, Note_on_c, 0, 70, 91
1, 263222, Note_off_c, 0, 52, 60
1, 263224, Note_off_c, 0, 43, 55
1, 263230, Note_on_c, 0, 74, 51
1, 263251, Note_off_c, 0, 46, 55
1, 263251, Note_on_c, 0, 77, 30
1, 263259, Note_off_c, 0, 74, 56
1, 263290, Note_off_c, 0, 77, 33
1, 263295, Note_off_c, 0, 70, 61
1, 263313, Note_on_c, 0, 46, 70
1, 263313, Note_on_c, 0, 52, 92
1, 263330, Note_on_c, 0, 43, 71
1, 263342, Note_off_c, 0, 79, 63
1, 263421, Note_on_c, 0, 76, 92
1, 263424, Note_on_c, 0, 82, 102
1, 263438, Note_on_c, 0, 79, 82
1, 263459, Note_off_c, 0, 52, 58
1, 263460, Note_off_c, 0, 43, 60
1, 263480, Note_off_c, 0, 46, 60
1, 263540, Note_on_c, 0, 52, 94
1, 263542, Note_on_c, 0, 46, 69
1, 263543, Note_on_c, 0, 43, 72
1, 263549, Note_off_c, 0, 79, 60
1, 263563, Note_off_c, 0, 82, 62
1, 263568, Note_off_c, 0, 76, 58
1, 263615, Note_off_c, 0, 43, 61
1, 263638, Note_on_c, 0, 88, 97
1, 263645, Note_on_c, 0, 79, 83
1, 263647, Note_on_c, 0, 82, 85
1, 263658, Note_off_c, 0, 46, 61
1, 263664, Note_off_c, 0, 52, 64
1, 263721, Note_off_c, 0, 79, 59
1, 263728, Note_off_c, 0, 88, 62
1, 263767, Note_off_c, 0, 82, 61
1, 263828, Control_c, 0, 64, 106
1, 263843, Control_c, 0, 64, 96
1, 263858, Control_c, 0, 64, 91
1, 263873, Control_c, 0, 64, 87
1, 263888, Control_c, 0, 64, 84
1, 263903, Control_c, 0, 64, 79
1, 263917, Control_c, 0, 64, 73
1, 263932, Control_c, 0, 64, 69
1, 263947, Control_c, 0, 64, 67
1, 263961, Control_c, 0, 64, 66
1, 263976, Control_c, 0, 64, 65
1, 263991, Control_c, 0, 64, 65
1, 264006, Control_c, 0, 64, 64
1, 264021, Control_c, 0, 64, 63
1, 264035, Control_c, 0, 64, 63
1, 264051, Control_c, 0, 64, 62
1, 264066, Control_c, 0, 64, 61
1, 264081, Control_c, 0, 64, 60
1, 264096, Control_c, 0, 64, 59
1, 264111, Control_c, 0, 64, 59
1, 264125, Control_c, 0, 64, 58
1, 264133, Note_on_c, 0, 76, 60
1, 264138, Note_on_c, 0, 70, 40
1, 264140, Control_c, 0, 64, 57
1, 264145, Note_on_c, 0, 67, 37
1, 264163, Control_c, 0, 64, 56
1, 264178, Control_c, 0, 64, 55
1, 264193, Control_c, 0, 64, 53
1, 264207, Control_c, 0, 64, 52
1, 264222, Control_c, 0, 64, 50
1, 264237, Control_c, 0, 64, 49
1, 264252, Control_c, 0, 64, 47
1, 264266, Control_c, 0, 64, 44
1, 264281, Control_c, 0, 64, 42
1, 264296, Control_c, 0, 64, 38
1, 264311, Control_c, 0, 64, 35
1, 264326, Control_c, 0, 64, 32
1, 264340, Control_c, 0, 64, 28
1, 264355, Control_c, 0, 64, 23
1, 264370, Control_c, 0, 64, 15
1, 264385, Control_c, 0, 64, 0
1, 264666, Control_c, 0, 64, 11
1, 264681, Control_c, 0, 64, 13
1, 264696, Control_c, 0, 64, 15
1, 264710, Control_c, 0, 64, 16
1, 264724, Control_c, 0, 64, 17
1, 264739, Control_c, 0, 64, 20
1, 264754, Control_c, 0, 64, 22
1, 264769, Control_c, 0, 64, 23
1, 264783, Control_c, 0, 64, 24
1, 264785, Note_on_c, 0, 77, 62
1, 264798, Control_c, 0, 64, 25
1, 264813, Control_c, 0, 64, 25
1, 264828, Control_c, 0, 64, 26
1, 264843, Control_c, 0, 64, 27
1, 264859, Control_c, 0, 64, 27
1, 264873, Control_c, 0, 64, 28
1, 264888, Control_c, 0, 64, 28
1, 264911, Control_c, 0, 64, 29
1, 264915, Note_off_c, 0, 76, 34
1, 264941, Control_c, 0, 64, 29
1, 264955, Control_c, 0, 64, 30
1, 264981, Note_off_c, 0, 77, 63
1, 264985, Control_c, 0, 64, 30
1, 264986, Note_on_c, 0, 79, 65
1, 265003, Note_on_c, 0, 68, 53
1, 265007, Note_on_c, 0, 72, 47
1, 265028, Note_off_c, 0, 67, 51
1, 265045, Note_off_c, 0, 79, 64
1, 265064, Note_on_c, 0, 77, 63
1, 265100, Note_off_c, 0, 77, 64
1, 265117, Note_on_c, 0, 79, 52
1, 265154, Note_off_c, 0, 79, 65
1, 265173, Note_on_c, 0, 77, 64
1, 265204, Note_off_c, 0, 77, 65
1, 265224, Note_on_c, 0, 79, 60
1, 265236, Control_c, 0, 64, 31
1, 265251, Control_c, 0, 64, 31
1, 265266, Control_c, 0, 64, 32
1, 265268, Note_off_c, 0, 79, 62
1, 265275, Note_on_c, 0, 77, 65
1, 265295, Control_c, 0, 64, 32
1, 265310, Control_c, 0, 64, 33
1, 265312, Note_off_c, 0, 77, 63
1, 265324, Note_on_c, 0, 79, 46
1, 265340, Control_c, 0, 64, 33
1, 265355, Control_c, 0, 64, 34
1, 265370, Control_c, 0, 64, 34
1, 265381, Note_off_c, 0, 79, 57
1, 265398, Note_on_c, 0, 77, 49
1, 265415, Note_on_c, 0, 79, 46
1, 265421, Note_off_c, 0, 77, 58
1, 265465, Note_off_c, 0, 72, 65
1, 265472, Note_off_c, 0, 70, 44
1, 265479, Note_off_c, 0, 79, 64
1, 265487, Note_off_c, 0, 68, 63
1, 265490, Note_on_c, 0, 77, 69
1, 265517, Control_c, 0, 64, 35
1, 265518, Note_off_c, 0, 77, 66
1, 265522, Note_on_c, 0, 76, 69
1, 265532, Control_c, 0, 64, 36
1, 265546, Control_c, 0, 64, 38
1, 265561, Control_c, 0, 64, 39
1, 265574, Note_on_c, 0, 77, 78
1, 265576, Control_c, 0, 64, 40
1, 265606, Note_off_c, 0, 77, 64
1, 265606, Control_c, 0, 64, 35
1, 265608, Note_off_c, 0, 76, 64
1, 265620, Control_c, 0, 64, 0
1, 265676, Note_on_c, 0, 67, 94
1, 265680, Note_on_c, 0, 64, 86
1, 265689, Control_c, 0, 64, 57
1, 265704, Control_c, 0, 64, 73
1, 265718, Control_c, 0, 64, 127
1, 265735, Note_off_c, 0, 67, 64
1, 265758, Note_off_c, 0, 64, 66
1, 265829, Note_on_c, 0, 73, 87
1, 265834, Note_on_c, 0, 76, 93
1, 265917, Note_off_c, 0, 73, 63
1, 265941, Note_off_c, 0, 76, 62
1, 265961, Note_on_c, 0, 55, 87
1, 265963, Note_on_c, 0, 46, 77
1, 265963, Note_on_c, 0, 52, 75
1, 265969, Note_on_c, 0, 49, 70
1, 266041, Note_off_c, 0, 46, 62
1, 266047, Note_off_c, 0, 52, 65
1, 266052, Note_off_c, 0, 49, 62
1, 266058, Note_off_c, 0, 55, 62
1, 266061, Note_on_c, 0, 76, 91
1, 266061, Note_on_c, 0, 79, 96
1, 266166, Note_off_c, 0, 76, 61
1, 266170, Note_on_c, 0, 67, 91
1, 266176, Note_on_c, 0, 64, 79
1, 266178, Note_on_c, 0, 61, 72
1, 266181, Note_on_c, 0, 58, 76
1, 266209, Note_off_c, 0, 79, 61
1, 266254, Note_off_c, 0, 67, 57
1, 266273, Note_on_c, 0, 79, 92
1, 266273, Note_on_c, 0, 82, 96
1, 266278, Note_off_c, 0, 58, 58
1, 266284, Note_off_c, 0, 61, 59
1, 266295, Note_off_c, 0, 64, 59
1, 266371, Note_on_c, 0, 67, 93
1, 266376, Note_off_c, 0, 79, 60
1, 266377, Note_on_c, 0, 61, 80
1, 266378, Note_on_c, 0, 64, 76
1, 266381, Note_on_c, 0, 58, 73
1, 266428, Note_off_c, 0, 82, 63
1, 266492, Note_on_c, 0, 85, 97
1, 266494, Note_on_c, 0, 82, 89
1, 266509, Note_off_c, 0, 58, 61
1, 266510, Note_off_c, 0, 67, 60
1, 266521, Note_off_c, 0, 61, 55
1, 266547, Note_off_c, 0, 64, 60
1, 266599, Note_on_c, 0, 67, 102
1, 266601, Note_on_c, 0, 64, 67
1, 266611, Note_on_c, 0, 61, 77
1, 266611, Note_off_c, 0, 82, 62
1, 266614, Note_on_c, 0, 58, 77
1, 266626, Note_off_c, 0, 85, 65
1, 266701, Note_on_c, 0, 88, 99
1, 266703, Note_on_c, 0, 85, 91
1, 266725, Note_off_c, 0, 67, 56
1, 266732, Note_off_c, 0, 58, 55
1, 266754, Note_off_c, 0, 61, 45
1, 266774, Note_off_c, 0, 64, 57
1, 266809, Note_off_c, 0, 85, 58
1, 266812, Note_on_c, 0, 64, 60
1, 266813, Note_on_c, 0, 67, 97
1, 266818, Note_on_c, 0, 61, 66
1, 266825, Note_on_c, 0, 58, 74
1, 266868, Note_off_c, 0, 88, 61
1, 266917, Note_on_c, 0, 91, 107
1, 266920, Note_on_c, 0, 88, 81
1, 266922, Note_off_c, 0, 58, 60
1, 266942, Note_off_c, 0, 61, 60
1, 266945, Note_off_c, 0, 64, 62
1, 266977, Note_off_c, 0, 67, 62
1, 266997, Note_off_c, 0, 88, 63
1, 267008, Note_off_c, 0, 91, 65
1, 267268, Note_on_c, 0, 79, 95
1, 267275, Note_on_c, 0, 76, 87
1, 267277, Note_on_c, 0, 73, 79
1, 267278, Note_on_c, 0, 70, 71
1, 267320, Control_c, 0, 64, 87
1, 267335, Control_c, 0, 64, 64
1, 267349, Control_c, 0, 64, 25
1, 267364, Control_c, 0, 64, 0
1, 267469, Control_c, 0, 64, 50
1, 267483, Control_c, 0, 64, 63
1, 267498, Control_c, 0, 64, 68
1, 267513, Control_c, 0, 64, 77
1, 267528, Control_c, 0, 64, 103
1, 267543, Control_c, 0, 64, 127
1, 267871, Note_on_c, 0, 80, 95
1, 267932, Note_off_c, 0, 79, 49
1, 267941, Note_off_c, 0, 76, 61
1, 268143, Control_c, 0, 64, 104
1, 268151, Note_on_c, 0, 77, 94
1, 268152, Note_on_c, 0, 82, 99
1, 268154, Note_on_c, 0, 71, 77
1, 268154, Note_on_c, 0, 74, 88
1, 268158, Control_c, 0, 64, 68
1, 268172, Control_c, 0, 64, 30
1, 268176, Note_off_c, 0, 80, 66
1, 268187, Control_c, 0, 64, 0
1, 268193, Note_off_c, 0, 70, 60
1, 268195, Note_off_c, 0, 73, 60
1, 268232, Control_c, 0, 64, 15
1, 268247, Control_c, 0, 64, 58
1, 268259, Note_on_c, 0, 80, 81
1, 268261, Control_c, 0, 64, 72
1, 268263, Note_off_c, 0, 82, 65
1, 268276, Control_c, 0, 64, 102
1, 268291, Control_c, 0, 64, 127
1, 268323, Note_on_c, 0, 82, 82
1, 268333, Note_off_c, 0, 80, 64
1, 268389, Note_on_c, 0, 80, 76
1, 268396, Note_off_c, 0, 82, 64
1, 268438, Note_on_c, 0, 82, 74
1, 268447, Note_off_c, 0, 80, 63
1, 268497, Note_on_c, 0, 80, 74
1, 268509, Note_off_c, 0, 82, 63
1, 268557, Note_on_c, 0, 82, 70
1, 268560, Note_off_c, 0, 80, 64
1, 268616, Note_on_c, 0, 80, 72
1, 268670, Note_off_c, 0, 82, 62
1, 268699, Note_on_c, 0, 79, 70
1, 268699, Note_off_c, 0, 80, 63
1, 268747, Note_off_c, 0, 77, 48
1, 268765, Note_on_c, 0, 82, 71
1, 268767, Note_off_c, 0, 79, 64
1, 268768, Note_off_c, 0, 74, 61
1, 268774, Note_off_c, 0, 71, 61
1, 268838, Note_on_c, 0, 80, 64
1, 268855, Note_off_c, 0, 82, 59
1, 269078, Note_on_c, 0, 60, 44
1, 269081, Note_on_c, 0, 79, 51
1, 269091, Note_on_c, 0, 76, 51
1, 269099, Control_c, 0, 67, 13
1, 269106, Note_off_c, 0, 60, 56
1, 269114, Note_off_c, 0, 80, 37
1, 269114, Control_c, 0, 67, 33
1, 269129, Control_c, 0, 67, 48
1, 269144, Control_c, 0, 67, 60
1, 269159, Control_c, 0, 64, 110
1, 269159, Control_c, 0, 67, 71
1, 269174, Control_c, 0, 64, 102
1, 269174, Control_c, 0, 67, 80
1, 269189, Control_c, 0, 64, 93
1, 269189, Control_c, 0, 67, 86
1, 269203, Control_c, 0, 64, 84
1, 269203, Control_c, 0, 67, 92
1, 269218, Control_c, 0, 64, 75
1, 269218, Control_c, 0, 67, 96
1, 269232, Note_on_c, 0, 72, 50
1, 269233, Control_c, 0, 64, 70
1, 269233, Control_c, 0, 67, 102
1, 269247, Control_c, 0, 64, 68
1, 269247, Control_c, 0, 67, 109
1, 269257, Note_off_c, 0, 72, 58
1, 269262, Control_c, 0, 64, 66
1, 269262, Control_c, 0, 67, 112
1, 269277, Control_c, 0, 64, 64
1, 269277, Control_c, 0, 67, 114
1, 269292, Control_c, 0, 64, 62
1, 269292, Control_c, 0, 67, 115
1, 269307, Control_c, 0, 64, 61
1, 269307, Control_c, 0, 67, 115
1, 269321, Control_c, 0, 64, 59
1, 269321, Control_c, 0, 67, 117
1, 269336, Control_c, 0, 64, 58
1, 269336, Control_c, 0, 67, 117
1, 269337, Note_on_c, 0, 72, 61
1, 269351, Control_c, 0, 64, 57
1, 269366, Control_c, 0, 64, 56
1, 269366, Control_c, 0, 67, 118
1, 269378, Note_off_c, 0, 72, 66
1, 269381, Control_c, 0, 64, 55
1, 269381, Control_c, 0, 67, 119
1, 269403, Control_c, 0, 64, 54
1, 269418, Control_c, 0, 64, 52
1, 269433, Control_c, 0, 64, 52
1, 269433, Control_c, 0, 67, 120
1, 269448, Control_c, 0, 64, 51
1, 269448, Control_c, 0, 67, 120
1, 269472, Note_on_c, 0, 72, 59
1, 269504, Note_off_c, 0, 72, 66
1, 269522, Control_c, 0, 64, 51
1, 269522, Note_off_c, 0, 79, 45
1, 269527, Note_off_c, 0, 76, 45
1, 269536, Control_c, 0, 64, 50
1, 269536, Control_c, 0, 67, 121
1, 269585, Note_on_c, 0, 72, 60
1, 269619, Note_off_c, 0, 72, 65
1, 269685, Control_c, 0, 64, 50
1, 269709, Note_on_c, 0, 72, 65
1, 269715, Control_c, 0, 64, 49
1, 269730, Control_c, 0, 64, 47
1, 269743, Note_off_c, 0, 72, 64
1, 269744, Control_c, 0, 64, 46
1, 269759, Control_c, 0, 64, 44
1, 269774, Control_c, 0, 64, 42
1, 269789, Control_c, 0, 64, 39
1, 269804, Control_c, 0, 64, 37
1, 269818, Control_c, 0, 64, 34
1, 269833, Control_c, 0, 64, 31
1, 269835, Note_on_c, 0, 72, 64
1, 269848, Control_c, 0, 64, 29
1, 269863, Control_c, 0, 64, 28
1, 269865, Note_off_c, 0, 72, 67
1, 269877, Control_c, 0, 64, 26
1, 269892, Control_c, 0, 64, 26
1, 269944, Note_on_c, 0, 72, 62
1, 269952, Control_c, 0, 67, 120
1, 269967, Control_c, 0, 67, 120
1, 269985, Note_off_c, 0, 72, 62
1, 269996, Control_c, 0, 67, 119
1, 270056, Control_c, 0, 67, 119
1, 270081, Note_on_c, 0, 72, 64
1, 270113, Note_off_c, 0, 72, 66
1, 270151, Control_c, 0, 67, 118
1, 270201, Note_on_c, 0, 72, 62
1, 270235, Note_off_c, 0, 72, 64
1, 270270, Control_c, 0, 64, 26
1, 270333, Note_on_c, 0, 72, 59
1, 270345, Control_c, 0, 64, 27
1, 270365, Note_off_c, 0, 72, 65
1, 270403, Control_c, 0, 64, 27
1, 270441, Note_on_c, 0, 72, 61
1, 270480, Note_off_c, 0, 72, 63
1, 270493, Control_c, 0, 64, 28
1, 270541, Note_on_c, 0, 80, 70
1, 270548, Note_on_c, 0, 77, 58
1, 270612, Control_c, 0, 64, 28
1, 270671, Control_c, 0, 64, 29
1, 270679, Note_on_c, 0, 72, 54
1, 270703, Note_off_c, 0, 72, 62
1, 270782, Note_on_c, 0, 72, 59
1, 270804, Control_c, 0, 64, 29
1, 270825, Note_off_c, 0, 72, 62
1, 270893, Note_on_c, 0, 68, 60
1, 270900, Control_c, 0, 64, 30
1, 270904, Note_on_c, 0, 65, 54
1, 270960, Control_c, 0, 64, 30
1, 271014, Note_off_c, 0, 65, 57
1, 271030, Note_on_c, 0, 72, 57
1, 271041, Note_off_c, 0, 68, 37
1, 271061, Note_off_c, 0, 72, 66
1, 271065, Note_off_c, 0, 77, 34
1, 271104, Note_off_c, 0, 80, 59
1, 271150, Note_on_c, 0, 72, 60
1, 271182, Control_c, 0, 67, 117
1, 271184, Note_off_c, 0, 72, 64
1, 271212, Control_c, 0, 67, 117
1, 271273, Note_on_c, 0, 72, 62
1, 271287, Control_c, 0, 67, 116
1, 271302, Control_c, 0, 67, 115
1, 271308, Note_off_c, 0, 72, 64
1, 271346, Control_c, 0, 67, 115
1, 271361, Control_c, 0, 67, 114
1, 271376, Control_c, 0, 67, 113
1, 271391, Note_on_c, 0, 72, 68
1, 271420, Note_off_c, 0, 72, 67
1, 271420, Control_c, 0, 67, 112
1, 271435, Control_c, 0, 67, 112
1, 271450, Control_c, 0, 67, 111
1, 271464, Control_c, 0, 67, 109
1, 271479, Control_c, 0, 67, 109
1, 271504, Note_on_c, 0, 72, 63
1, 271543, Note_off_c, 0, 72, 62
1, 271553, Control_c, 0, 67, 108
1, 271568, Control_c, 0, 67, 107
1, 271583, Control_c, 0, 67, 107
1, 271625, Note_on_c, 0, 72, 73
1, 271668, Note_off_c, 0, 72, 63
1, 271723, Control_c, 0, 64, 31
1, 271738, Control_c, 0, 67, 107
1, 271746, Note_on_c, 0, 72, 75
1, 271753, Control_c, 0, 64, 31
1, 271768, Control_c, 0, 64, 32
1, 271783, Note_off_c, 0, 72, 65
1, 271842, Control_c, 0, 64, 32
1, 271853, Note_on_c, 0, 72, 79
1, 271856, Control_c, 0, 64, 33
1, 271897, Note_off_c, 0, 72, 64
1, 271901, Control_c, 0, 67, 108
1, 271947, Note_on_c, 0, 85, 95
1, 271949, Note_on_c, 0, 77, 87
1, 271953, Note_on_c, 0, 80, 74
1, 271976, Control_c, 0, 67, 109
1, 272080, Control_c, 0, 67, 109
1, 272093, Note_on_c, 0, 72, 70
1, 272121, Note_off_c, 0, 72, 68
1, 272203, Note_on_c, 0, 72, 68
1, 272232, Note_off_c, 0, 72, 65
1, 272307, Note_on_c, 0, 68, 71
1, 272315, Note_on_c, 0, 65, 67
1, 272317, Control_c, 0, 64, 33
1, 272444, Note_on_c, 0, 72, 64
1, 272468, Note_off_c, 0, 65, 57
1, 272482, Note_off_c, 0, 72, 62
1, 272491, Note_off_c, 0, 68, 59
1, 272517, Control_c, 0, 67, 109
1, 272532, Control_c, 0, 67, 108
1, 272569, Note_on_c, 0, 72, 65
1, 272602, Note_off_c, 0, 72, 65
1, 272679, Control_c, 0, 67, 109
1, 272686, Note_on_c, 0, 65, 64
1, 272688, Note_on_c, 0, 68, 64
1, 272784, Control_c, 0, 67, 109
1, 272803, Note_on_c, 0, 72, 68
1, 272844, Note_off_c, 0, 72, 63
1, 272848, Note_off_c, 0, 65, 33
1, 272873, Note_off_c, 0, 68, 36
1, 272930, Note_on_c, 0, 72, 64
1, 272976, Note_off_c, 0, 72, 60
1, 273007, Control_c, 0, 64, 34
1, 273044, Note_on_c, 0, 68, 60
1, 273052, Note_on_c, 0, 65, 57
1, 273110, Control_c, 0, 64, 34
1, 273125, Control_c, 0, 67, 110
1, 273165, Note_on_c, 0, 72, 66
1, 273177, Control_c, 0, 67, 110
1, 273177, Note_off_c, 0, 77, 51
1, 273180, Note_off_c, 0, 65, 34
1, 273188, Note_off_c, 0, 80, 34
1, 273200, Note_off_c, 0, 72, 64
1, 273236, Note_off_c, 0, 68, 50
1, 273251, Control_c, 0, 67, 111
1, 273281, Control_c, 0, 64, 35
1, 273289, Note_on_c, 0, 72, 69
1, 273325, Control_c, 0, 64, 35
1, 273347, Note_off_c, 0, 72, 57
1, 273355, Control_c, 0, 67, 112
1, 273403, Note_on_c, 0, 64, 55
1, 273408, Note_on_c, 0, 84, 66
1, 273414, Note_on_c, 0, 76, 57
1, 273414, Control_c, 0, 67, 112
1, 273421, Note_on_c, 0, 79, 49
1, 273430, Note_off_c, 0, 64, 63
1, 273535, Note_on_c, 0, 60, 55
1, 273545, Note_off_c, 0, 85, 26
1, 273562, Note_off_c, 0, 60, 64
1, 273644, Note_on_c, 0, 60, 62
1, 273681, Note_off_c, 0, 60, 64
1, 273711, Control_c, 0, 67, 112
1, 273725, Control_c, 0, 67, 110
1, 273755, Control_c, 0, 67, 110
1, 273777, Note_on_c, 0, 60, 56
1, 273807, Note_off_c, 0, 60, 66
1, 273807, Note_off_c, 0, 79, 43
1, 273809, Note_off_c, 0, 84, 60
1, 273812, Note_off_c, 0, 76, 54
1, 273815, Control_c, 0, 67, 109
1, 273881, Note_on_c, 0, 60, 66
1, 273921, Note_off_c, 0, 60, 65
1, 273955, Control_c, 0, 67, 110
1, 274013, Note_on_c, 0, 60, 60
1, 274044, Note_off_c, 0, 60, 66
1, 274044, Control_c, 0, 67, 110
1, 274113, Note_on_c, 0, 60, 66
1, 274144, Note_off_c, 0, 60, 65
1, 274232, Note_on_c, 0, 60, 68
1, 274259, Note_off_c, 0, 60, 66
1, 274326, Note_on_c, 0, 60, 67
1, 274340, Control_c, 0, 67, 111
1, 274368, Note_off_c, 0, 60, 63
1, 274399, Control_c, 0, 67, 112
1, 274453, Note_on_c, 0, 79, 74
1, 274459, Note_on_c, 0, 76, 68
1, 274462, Note_on_c, 0, 60, 63
1, 274491, Note_off_c, 0, 60, 66
1, 274512, Note_off_c, 0, 76, 61
1, 274521, Note_off_c, 0, 79, 62
1, 274563, Control_c, 0, 67, 112
1, 274568, Note_on_c, 0, 60, 60
1, 274578, Control_c, 0, 67, 113
1, 274593, Control_c, 0, 67, 114
1, 274604, Note_off_c, 0, 60, 64
1, 274660, Control_c, 0, 67, 114
1, 274674, Control_c, 0, 67, 115
1, 274703, Note_on_c, 0, 60, 63
1, 274709, Note_on_c, 0, 79, 78
1, 274715, Note_on_c, 0, 76, 62
1, 274736, Note_off_c, 0, 60, 65
1, 274768, Note_off_c, 0, 76, 0
1, 274790, Note_on_c, 0, 80, 79
1, 274795, Poly_aftertouch_c, 0, 76, 0
1, 274802, Note_on_c, 0, 77, 68
1, 274803, Note_off_c, 0, 79, 56
1, 274807, Note_on_c, 0, 60, 66
1, 274822, Control_c, 0, 67, 114
1, 274840, Note_off_c, 0, 60, 62
1, 274882, Note_off_c, 0, 77, 0
1, 274920, Poly_aftertouch_c, 0, 77, 127
1, 274930, Note_on_c, 0, 77, 8
1, 274936, Note_on_c, 0, 60, 54
1, 274972, Note_off_c, 0, 60, 65
1, 274986, Control_c, 0, 67, 114
1, 275001, Control_c, 0, 67, 113
1, 275042, Note_off_c, 0, 77, 36
1, 275057, Note_on_c, 0, 76, 56
1, 275063, Note_on_c, 0, 79, 60
1, 275067, Note_on_c, 0, 60, 47
1, 275094, Note_off_c, 0, 60, 61
1, 275103, Note_off_c, 0, 80, 56
1, 275115, Note_off_c, 0, 76, 60
1, 275117, Note_off_c, 0, 79, 64
1, 275174, Note_on_c, 0, 60, 62
1, 275206, Note_off_c, 0, 60, 66
1, 275282, Note_on_c, 0, 60, 60
1, 275320, Note_off_c, 0, 60, 63
1, 275422, Note_on_c, 0, 64, 61
1, 275425, Note_on_c, 0, 67, 57
1, 275426, Note_on_c, 0, 60, 53
1, 275448, Note_off_c, 0, 60, 62
1, 275457, Note_off_c, 0, 64, 64
1, 275461, Note_off_c, 0, 67, 63
1, 275526, Note_on_c, 0, 60, 61
1, 275559, Note_off_c, 0, 60, 64
1, 275634, Note_on_c, 0, 60, 61
1, 275645, Control_c, 0, 67, 114
1, 275667, Note_off_c, 0, 60, 65
1, 275720, Control_c, 0, 67, 114
1, 275751, Note_on_c, 0, 60, 57
1, 275764, Note_on_c, 0, 52, 64
1, 275766, Note_on_c, 0, 55, 68
1, 275785, Note_off_c, 0, 52, 65
1, 275794, Note_off_c, 0, 60, 62
1, 275796, Note_off_c, 0, 55, 65
1, 275857, Note_on_c, 0, 55, 69
1, 275858, Note_on_c, 0, 58, 69
1, 275937, Note_off_c, 0, 55, 59
1, 275949, Note_on_c, 0, 60, 69
1, 275955, Control_c, 0, 67, 114
1, 275964, Note_off_c, 0, 58, 60
1, 275970, Control_c, 0, 67, 113
1, 275988, Note_off_c, 0, 60, 64
1, 276077, Note_on_c, 0, 60, 65
1, 276081, Note_on_c, 0, 79, 84
1, 276091, Note_on_c, 0, 76, 69
1, 276107, Note_off_c, 0, 60, 66
1, 276119, Note_off_c, 0, 76, 66
1, 276121, Note_off_c, 0, 79, 66
1, 276181, Note_on_c, 0, 79, 78
1, 276188, Note_on_c, 0, 82, 84
1, 276188, Note_on_c, 0, 60, 69
1, 276229, Note_off_c, 0, 60, 64
1, 276274, Control_c, 0, 67, 112
1, 276319, Control_c, 0, 67, 112
1, 276324, Note_on_c, 0, 60, 57
1, 276355, Note_off_c, 0, 60, 66
1, 276364, Control_c, 0, 67, 111
1, 276450, Note_on_c, 0, 60, 52
1, 276453, Control_c, 0, 67, 110
1, 276456, Note_on_c, 0, 80, 63
1, 276460, Note_on_c, 0, 77, 59
1, 276467, Note_off_c, 0, 79, 52
1, 276489, Note_off_c, 0, 60, 65
1, 276495, Note_off_c, 0, 82, 58
1, 276516, Note_off_c, 0, 77, 59
1, 276522, Note_off_c, 0, 80, 64
1, 276572, Note_on_c, 0, 60, 70
1, 276610, Note_off_c, 0, 60, 64
1, 276630, Control_c, 0, 64, 36
1, 276659, Control_c, 0, 67, 111
1, 276689, Control_c, 0, 67, 112
1, 276703, Note_on_c, 0, 60, 55
1, 276735, Note_off_c, 0, 60, 65
1, 276808, Note_on_c, 0, 65, 54
1, 276810, Note_on_c, 0, 68, 55
1, 276817, Note_on_c, 0, 60, 61
1, 276848, Note_off_c, 0, 65, 63
1, 276852, Note_off_c, 0, 60, 65
1, 276853, Control_c, 0, 67, 112
1, 276860, Note_off_c, 0, 68, 60
1, 276938, Note_on_c, 0, 60, 65
1, 276964, Control_c, 0, 67, 113
1, 276969, Note_off_c, 0, 60, 66
1, 276979, Control_c, 0, 67, 114
1, 276994, Control_c, 0, 67, 114
1, 277043, Note_on_c, 0, 60, 65
1, 277068, Control_c, 0, 67, 115
1, 277082, Note_off_c, 0, 60, 67
1, 277097, Control_c, 0, 67, 116
1, 277112, Control_c, 0, 67, 117
1, 277142, Control_c, 0, 64, 36
1, 277151, Note_on_c, 0, 56, 82
1, 277157, Note_on_c, 0, 53, 74
1, 277157, Control_c, 0, 64, 37
1, 277168, Note_on_c, 0, 60, 59
1, 277171, Control_c, 0, 64, 37
1, 277183, Note_off_c, 0, 53, 66
1, 277186, Control_c, 0, 64, 38
1, 277202, Note_off_c, 0, 56, 65
1, 277208, Note_off_c, 0, 60, 65
1, 277231, Control_c, 0, 64, 38
1, 277246, Control_c, 0, 67, 116
1, 277255, Note_on_c, 0, 53, 66
1, 277267, Note_on_c, 0, 56, 72
1, 277276, Control_c, 0, 67, 115
1, 277290, Control_c, 0, 67, 114
1, 277305, Control_c, 0, 67, 114
1, 277320, Control_c, 0, 67, 113
1, 277334, Control_c, 0, 67, 112
1, 277349, Control_c, 0, 67, 112
1, 277361, Note_on_c, 0, 60, 83
1, 277362, Note_off_c, 0, 56, 61
1, 277364, Control_c, 0, 67, 110
1, 277372, Note_off_c, 0, 53, 60
1, 277379, Control_c, 0, 67, 110
1, 277394, Control_c, 0, 67, 109
1, 277423, Note_off_c, 0, 60, 59
1, 277423, Control_c, 0, 67, 109
1, 277439, Control_c, 0, 67, 108
1, 277453, Control_c, 0, 64, 39
1, 277468, Control_c, 0, 67, 107
1, 277471, Note_on_c, 0, 60, 71
1, 277483, Control_c, 0, 64, 39
1, 277498, Control_c, 0, 67, 107
1, 277502, Note_on_c, 0, 80, 94
1, 277507, Note_on_c, 0, 77, 88
1, 277513, Control_c, 0, 67, 106
1, 277538, Note_off_c, 0, 77, 65
1, 277542, Control_c, 0, 67, 105
1, 277548, Note_off_c, 0, 60, 65
1, 277549, Note_off_c, 0, 80, 67
1, 277572, Control_c, 0, 67, 104
1, 277589, Note_on_c, 0, 80, 86
1, 277590, Note_on_c, 0, 85, 96
1, 277598, Note_on_c, 0, 77, 82
1, 277602, Control_c, 0, 67, 103
1, 277616, Control_c, 0, 67, 103
1, 277684, Control_c, 0, 67, 102
1, 277737, Note_on_c, 0, 60, 63
1, 277744, Control_c, 0, 67, 102
1, 277768, Note_off_c, 0, 60, 66
1, 277773, Control_c, 0, 67, 101
1, 277788, Control_c, 0, 67, 100
1, 277818, Control_c, 0, 67, 100
1, 277836, Note_on_c, 0, 60, 65
1, 277862, Control_c, 0, 67, 99
1, 277876, Note_off_c, 0, 60, 62
1, 277943, Note_on_c, 0, 56, 68
1, 277948, Note_on_c, 0, 53, 66
1, 277951, Control_c, 0, 67, 98
1, 278069, Control_c, 0, 67, 98
1, 278078, Note_on_c, 0, 60, 65
1, 278098, Control_c, 0, 67, 97
1, 278116, Note_off_c, 0, 60, 64
1, 278125, Note_off_c, 0, 56, 61
1, 278125, Note_off_c, 0, 53, 56
1, 278158, Control_c, 0, 67, 97
1, 278217, Note_on_c, 0, 60, 60
1, 278247, Note_off_c, 0, 60, 65
1, 278311, Note_on_c, 0, 56, 62
1, 278315, Note_on_c, 0, 53, 62
1, 278450, Note_on_c, 0, 60, 61
1, 278482, Note_off_c, 0, 53, 39
1, 278489, Note_off_c, 0, 60, 61
1, 278498, Note_off_c, 0, 56, 49
1, 278582, Note_on_c, 0, 60, 57
1, 278621, Note_off_c, 0, 60, 64
1, 278641, Control_c, 0, 67, 96
1, 278691, Note_on_c, 0, 56, 57
1, 278692, Note_on_c, 0, 53, 60
1, 278726, Note_off_c, 0, 80, 40
1, 278783, Note_off_c, 0, 77, 58
1, 278818, Control_c, 0, 67, 97
1, 278824, Note_on_c, 0, 60, 57
1, 278862, Note_off_c, 0, 60, 63
1, 278877, Control_c, 0, 67, 97
1, 278891, Note_off_c, 0, 53, 39
1, 278892, Control_c, 0, 67, 98
1, 278904, Note_off_c, 0, 56, 41
1, 278936, Control_c, 0, 67, 98
1, 278945, Note_on_c, 0, 60, 56
1, 278966, Control_c, 0, 67, 99
1, 278984, Note_off_c, 0, 60, 64
1, 279011, Control_c, 0, 67, 100
1, 279055, Control_c, 0, 67, 100
1, 279057, Note_on_c, 0, 84, 64
1, 279069, Note_on_c, 0, 79, 43
1, 279077, Note_on_c, 0, 76, 42
1, 279136, Control_c, 0, 67, 101
1, 279198, Note_on_c, 0, 60, 55
1, 279233, Note_off_c, 0, 60, 65
1, 279318, Note_on_c, 0, 60, 56
1, 279359, Note_off_c, 0, 60, 62
1, 279404, Note_off_c, 0, 84, 62
1, 279424, Note_on_c, 0, 55, 55
1, 279436, Note_on_c, 0, 52, 48
1, 279437, Note_off_c, 0, 76, 62
1, 279440, Note_off_c, 0, 85, 40
1, 279443, Note_off_c, 0, 79, 62
1, 279537, Control_c, 0, 67, 102
1, 279567, Note_on_c, 0, 60, 59
1, 279597, Control_c, 0, 67, 102
1, 279602, Note_off_c, 0, 60, 63
1, 279656, Control_c, 0, 67, 103
1, 279684, Note_on_c, 0, 60, 60
1, 279734, Note_off_c, 0, 52, 27
1, 279741, Note_off_c, 0, 60, 55
1, 279759, Note_off_c, 0, 55, 20
1, 279814, Note_on_c, 0, 72, 75
1, 279818, Note_on_c, 0, 66, 59
1, 279828, Note_on_c, 0, 63, 54
1, 279930, Control_c, 0, 64, 40
1, 279967, Note_on_c, 0, 60, 61
1, 280003, Note_off_c, 0, 60, 65
1, 280087, Note_on_c, 0, 60, 56
1, 280127, Note_off_c, 0, 60, 63
1, 280197, Note_on_c, 0, 54, 54
1, 280199, Note_on_c, 0, 51, 52
1, 280242, Control_c, 0, 67, 103
1, 280331, Note_on_c, 0, 60, 59
1, 280341, Note_off_c, 0, 72, 54
1, 280369, Note_off_c, 0, 60, 63
1, 280387, Note_off_c, 0, 66, 53
1, 280419, Note_off_c, 0, 54, 44
1, 280436, Note_off_c, 0, 51, 38
1, 280463, Control_c, 0, 64, 40
1, 280473, Note_off_c, 0, 63, 47
1, 280482, Note_on_c, 0, 60, 45
1, 280507, Note_off_c, 0, 60, 57
1, 280574, Note_on_c, 0, 71, 62
1, 280588, Note_on_c, 0, 62, 48
1, 280613, Note_on_c, 0, 65, 34
1, 280725, Note_on_c, 0, 60, 58
1, 280752, Control_c, 0, 67, 103
1, 280757, Note_off_c, 0, 60, 63
1, 280838, Note_on_c, 0, 60, 62
1, 280877, Note_off_c, 0, 60, 61
1, 280969, Note_on_c, 0, 50, 53
1, 280969, Note_on_c, 0, 53, 51
1, 281070, Note_off_c, 0, 71, 52
1, 281073, Note_off_c, 0, 62, 54
1, 281096, Note_on_c, 0, 60, 47
1, 281122, Note_off_c, 0, 65, 47
1, 281130, Note_off_c, 0, 60, 62
1, 281210, Note_on_c, 0, 60, 48
1, 281234, Note_off_c, 0, 60, 58
1, 281235, Note_off_c, 0, 50, 29
1, 281246, Note_off_c, 0, 53, 21
1, 281340, Note_on_c, 0, 70, 59
1, 281353, Note_on_c, 0, 61, 49
1, 281367, Note_on_c, 0, 65, 40
1, 281461, Note_on_c, 0, 60, 47
1, 281490, Note_off_c, 0, 60, 60
1, 281576, Note_on_c, 0, 60, 55
1, 281616, Note_off_c, 0, 60, 60
1, 281666, Control_c, 0, 67, 103
1, 281696, Note_on_c, 0, 49, 43
1, 281698, Note_on_c, 0, 53, 50
1, 281744, Note_off_c, 0, 70, 54
1, 281754, Control_c, 0, 67, 104
1, 281777, Note_off_c, 0, 61, 51
1, 281783, Note_off_c, 0, 65, 35
1, 281784, Control_c, 0, 67, 105
1, 281846, Note_on_c, 0, 60, 35
1, 281858, Control_c, 0, 67, 105
1, 281875, Note_off_c, 0, 60, 48
1, 281917, Control_c, 0, 67, 106
1, 281929, Note_on_c, 0, 60, 63
1, 281959, Note_off_c, 0, 60, 66
1, 281986, Note_off_c, 0, 53, 43
1, 282008, Note_off_c, 0, 49, 50
1, 282051, Control_c, 0, 67, 107
1, 282083, Note_on_c, 0, 60, 38
1, 282085, Note_on_c, 0, 68, 58
1, 282105, Note_on_c, 0, 65, 29
1, 282147, Control_c, 0, 67, 107
1, 282176, Control_c, 0, 67, 108
1, 282191, Control_c, 0, 67, 109
1, 282206, Control_c, 0, 67, 109
1, 282221, Control_c, 0, 67, 110
1, 282240, Note_on_c, 0, 48, 40
1, 282251, Control_c, 0, 67, 110
1, 282266, Control_c, 0, 67, 111
1, 282270, Note_off_c, 0, 48, 48
1, 282280, Control_c, 0, 67, 112
1, 282295, Control_c, 0, 67, 112
1, 282310, Control_c, 0, 67, 113
1, 282325, Control_c, 0, 67, 114
1, 282339, Control_c, 0, 67, 114
1, 282353, Note_on_c, 0, 48, 58
1, 282354, Control_c, 0, 67, 115
1, 282384, Control_c, 0, 67, 115
1, 282397, Note_off_c, 0, 48, 61
1, 282413, Control_c, 0, 67, 116
1, 282429, Control_c, 0, 67, 117
1, 282444, Control_c, 0, 67, 117
1, 282489, Note_on_c, 0, 48, 58
1, 282489, Control_c, 0, 67, 118
1, 282518, Control_c, 0, 67, 119
1, 282526, Note_off_c, 0, 48, 63
1, 282533, Control_c, 0, 67, 119
1, 282548, Control_c, 0, 67, 120
1, 282562, Control_c, 0, 67, 120
1, 282606, Note_off_c, 0, 68, 44
1, 282612, Note_off_c, 0, 65, 41
1, 282614, Note_on_c, 0, 48, 61
1, 282621, Control_c, 0, 67, 121
1, 282653, Note_off_c, 0, 48, 63
1, 282666, Control_c, 0, 67, 122
1, 282681, Control_c, 0, 67, 122
1, 282683, Note_off_c, 0, 60, 36
1, 282740, Note_on_c, 0, 48, 60
1, 282740, Control_c, 0, 67, 123
1, 282755, Control_c, 0, 67, 124
1, 282778, Note_off_c, 0, 48, 62
1, 282784, Control_c, 0, 67, 124
1, 282829, Control_c, 0, 67, 125
1, 282874, Note_on_c, 0, 48, 58
1, 282910, Control_c, 0, 67, 126
1, 282913, Note_off_c, 0, 48, 63
1, 282925, Control_c, 0, 67, 127
1, 283002, Note_on_c, 0, 48, 59
1, 283038, Note_off_c, 0, 48, 62
1, 283128, Note_on_c, 0, 48, 52
1, 283164, Note_off_c, 0, 48, 63
1, 283257, Note_on_c, 0, 48, 57
1, 283291, Note_off_c, 0, 48, 64
1, 283382, Note_on_c, 0, 48, 52
1, 283415, Note_off_c, 0, 48, 64
1, 283504, Control_c, 0, 64, 41
1, 283512, Note_on_c, 0, 48, 38
1, 283543, Note_off_c, 0, 48, 48
1, 283622, Control_c, 0, 64, 41
1, 283649, Note_on_c, 0, 48, 40
1, 283653, Note_on_c, 0, 55, 49
1, 283655, Note_on_c, 0, 52, 45
1, 283674, Control_c, 0, 64, 42
1, 283804, Note_on_c, 0, 36, 41
1, 283839, Note_off_c, 0, 36, 53
1, 283934, Note_on_c, 0, 36, 47
1, 283965, Note_off_c, 0, 36, 60
1, 284057, Note_on_c, 0, 36, 54
1, 284098, Note_off_c, 0, 36, 62
1, 284179, Note_off_c, 0, 55, 52
1, 284191, Note_on_c, 0, 36, 58
1, 284194, Note_off_c, 0, 52, 41
1, 284224, Note_off_c, 0, 48, 38
1, 284232, Note_off_c, 0, 36, 63
1, 284328, Note_on_c, 0, 36, 54
1, 284364, Note_off_c, 0, 36, 63
1, 284469, Note_on_c, 0, 36, 48
1, 284506, Note_off_c, 0, 36, 62
1, 284606, Note_on_c, 0, 36, 50
1, 284645, Note_off_c, 0, 36, 62
1, 284749, Note_on_c, 0, 36, 46
1, 284792, Note_off_c, 0, 36, 60
1, 284883, Control_c, 0, 64, 42
1, 284897, Control_c, 0, 64, 43
1, 284912, Note_on_c, 0, 36, 38
1, 284928, Control_c, 0, 64, 44
1, 284943, Control_c, 0, 64, 44
1, 284958, Control_c, 0, 64, 45
1, 284972, Control_c, 0, 64, 46
1, 284975, Note_off_c, 0, 36, 56
1, 284987, Control_c, 0, 64, 47
1, 285061, Control_c, 0, 64, 47
1, 285101, Note_on_c, 0, 36, 43
1, 285145, Note_off_c, 0, 36, 54
1, 285246, Control_c, 0, 64, 48
1, 285261, Control_c, 0, 64, 50
1, 285276, Control_c, 0, 64, 53
1, 285290, Note_on_c, 0, 36, 40
1, 285291, Control_c, 0, 64, 56
1, 285305, Control_c, 0, 64, 59
1, 285320, Control_c, 0, 64, 61
1, 285335, Control_c, 0, 64, 63
1, 285349, Note_off_c, 0, 36, 54
1, 285349, Control_c, 0, 64, 64
1, 285364, Control_c, 0, 64, 66
1, 285379, Control_c, 0, 64, 69
1, 285394, Control_c, 0, 64, 72
1, 285409, Control_c, 0, 64, 76
1, 285423, Control_c, 0, 64, 80
1, 285438, Control_c, 0, 64, 85
1, 285453, Control_c, 0, 64, 89
1, 285468, Control_c, 0, 64, 93
1, 285483, Control_c, 0, 64, 95
1, 285497, Control_c, 0, 64, 97
1, 285587, Control_c, 0, 64, 96
1, 285598, Note_on_c, 0, 29, 42
1, 285601, Control_c, 0, 64, 95
1, 285617, Control_c, 0, 64, 93
1, 285632, Control_c, 0, 64, 91
1, 285646, Control_c, 0, 64, 86
1, 285661, Control_c, 0, 64, 78
1, 285676, Control_c, 0, 64, 69
1, 285691, Control_c, 0, 64, 62
1, 285706, Control_c, 0, 64, 55
1, 285721, Control_c, 0, 64, 52
1, 285736, Control_c, 0, 64, 51
1, 285750, Control_c, 0, 64, 51
1, 285780, Control_c, 0, 64, 52
1, 285795, Control_c, 0, 64, 56
1, 285810, Control_c, 0, 64, 60
1, 285825, Control_c, 0, 64, 63
1, 285839, Control_c, 0, 64, 65
1, 285854, Control_c, 0, 64, 68
1, 285876, Control_c, 0, 64, 71
1, 285891, Control_c, 0, 64, 75
1, 285906, Control_c, 0, 64, 81
1, 285920, Control_c, 0, 64, 87
1, 285935, Control_c, 0, 64, 93
1, 285950, Control_c, 0, 64, 99
1, 285959, Note_on_c, 0, 36, 18
1, 285959, Note_on_c, 0, 41, 26
1, 285965, Control_c, 0, 64, 106
1, 285972, Note_on_c, 0, 33, 33
1, 285980, Control_c, 0, 64, 118
1, 285990, Note_off_c, 0, 29, 38
1, 285995, Control_c, 0, 64, 127
1, 286108, Note_off_c, 0, 41, 44
1, 286129, Note_off_c, 0, 36, 39
1, 286141, Note_on_c, 0, 29, 44
1, 286150, Note_off_c, 0, 33, 38
1, 286285, Note_on_c, 0, 36, 34
1, 286292, Note_on_c, 0, 41, 24
1, 286299, Note_on_c, 0, 33, 34
1, 286324, Note_off_c, 0, 29, 34
1, 286391, Note_off_c, 0, 41, 44
1, 286433, Note_off_c, 0, 33, 35
1, 286436, Note_on_c, 0, 29, 43
1, 286455, Note_off_c, 0, 36, 31
1, 286581, Note_on_c, 0, 41, 20
1, 286592, Note_on_c, 0, 36, 28
1, 286595, Note_on_c, 0, 33, 30
1, 286595, Note_off_c, 0, 29, 40
1, 286684, Note_off_c, 0, 33, 44
1, 286686, Note_off_c, 0, 41, 35
1, 286716, Note_on_c, 0, 29, 41
1, 286722, Note_off_c, 0, 36, 35
1, 286874, Note_on_c, 0, 33, 35
1, 286875, Note_on_c, 0, 36, 34
1, 286891, Note_off_c, 0, 29, 37
1, 286898, Note_on_c, 0, 41, 27
1, 286964, Note_off_c, 0, 41, 51
1, 286982, Note_off_c, 0, 36, 49
1, 287010, Note_on_c, 0, 29, 44
1, 287029, Note_off_c, 0, 33, 32
1, 287080, Note_on_c, 0, 57, 65
1, 287094, Note_on_c, 0, 45, 52
1, 287164, Note_on_c, 0, 36, 26
1, 287182, Note_on_c, 0, 33, 34
1, 287200, Note_off_c, 0, 29, 34
1, 287209, Poly_aftertouch_c, 0, 41, 127
1, 287274, Note_off_c, 0, 45, 37
1, 287335, Note_on_c, 0, 29, 52
1, 287351, Poly_aftertouch_c, 0, 41, 0
1, 287356, Note_off_c, 0, 36, 38
1, 287359, Note_off_c, 0, 33, 30
1, 287362, Note_off_c, 0, 57, 63
1, 287418, Note_on_c, 0, 60, 76
1, 287444, Note_on_c, 0, 48, 32
1, 287461, Note_off_c, 0, 29, 53
1, 287482, Note_on_c, 0, 41, 31
1, 287485, Note_off_c, 0, 48, 42
1, 287494, Note_on_c, 0, 36, 15
1, 287496, Note_on_c, 0, 33, 24
1, 287515, Note_off_c, 0, 41, 53
1, 287542, Note_off_c, 0, 33, 49
1, 287546, Note_off_c, 0, 36, 49
1, 287554, Note_off_c, 0, 60, 64
1, 287560, Note_on_c, 0, 65, 78
1, 287566, Note_on_c, 0, 53, 68
1, 287570, Note_on_c, 0, 29, 53
1, 287610, Control_c, 0, 64, 90
1, 287624, Control_c, 0, 64, 70
1, 287639, Control_c, 0, 64, 58
1, 287654, Control_c, 0, 64, 51
1, 287669, Control_c, 0, 64, 52
1, 287684, Control_c, 0, 64, 54
1, 287698, Control_c, 0, 64, 59
1, 287709, Note_off_c, 0, 29, 57
1, 287713, Control_c, 0, 64, 64
1, 287725, Note_on_c, 0, 33, 45
1, 287728, Control_c, 0, 64, 70
1, 287735, Note_on_c, 0, 41, 44
1, 287742, Control_c, 0, 64, 83
1, 287744, Note_on_c, 0, 36, 24
1, 287757, Control_c, 0, 64, 127
1, 287780, Note_off_c, 0, 53, 48
1, 287813, Note_off_c, 0, 33, 54
1, 287831, Note_off_c, 0, 41, 60
1, 287841, Note_on_c, 0, 29, 58
1, 287844, Note_off_c, 0, 36, 49
1, 287974, Note_off_c, 0, 29, 52
1, 287980, Note_on_c, 0, 69, 77
1, 287987, Note_on_c, 0, 57, 69
1, 287998, Note_on_c, 0, 33, 36
1, 288001, Note_on_c, 0, 36, 43
1, 288002, Note_on_c, 0, 41, 40
1, 288027, Note_off_c, 0, 65, 60
1, 288075, Note_off_c, 0, 33, 53
1, 288088, Note_off_c, 0, 41, 53
1, 288089, Note_off_c, 0, 36, 51
1, 288095, Note_on_c, 0, 29, 46
1, 288151, Note_off_c, 0, 69, 58
1, 288161, Note_off_c, 0, 57, 63
1, 288251, Note_on_c, 0, 33, 39
1, 288260, Note_on_c, 0, 36, 36
1, 288260, Note_on_c, 0, 41, 33
1, 288282, Note_off_c, 0, 29, 35
1, 288291, Note_on_c, 0, 65, 72
1, 288306, Note_on_c, 0, 53, 52
1, 288311, Note_off_c, 0, 36, 54
1, 288336, Note_off_c, 0, 33, 50
1, 288345, Note_off_c, 0, 53, 60
1, 288352, Note_on_c, 0, 60, 13
1, 288395, Note_off_c, 0, 65, 61
1, 288417, Note_on_c, 0, 64, 69
1, 288426, Note_off_c, 0, 60, 39
1, 288429, Note_on_c, 0, 52, 65
1, 288430, Note_off_c, 0, 41, 35
1, 288433, Control_c, 0, 64, 113
1, 288437, Note_on_c, 0, 31, 52
1, 288447, Control_c, 0, 64, 83
1, 288462, Control_c, 0, 64, 67
1, 288477, Control_c, 0, 64, 55
1, 288492, Control_c, 0, 64, 44
1, 288507, Control_c, 0, 64, 42
1, 288536, Control_c, 0, 64, 44
1, 288551, Control_c, 0, 64, 52
1, 288565, Control_c, 0, 64, 60
1, 288572, Note_off_c, 0, 31, 54
1, 288580, Control_c, 0, 64, 65
1, 288593, Note_off_c, 0, 52, 56
1, 288595, Control_c, 0, 64, 73
1, 288597, Note_on_c, 0, 43, 45
1, 288602, Note_on_c, 0, 40, 36
1, 288603, Note_on_c, 0, 34, 39
1, 288610, Control_c, 0, 64, 85
1, 288625, Control_c, 0, 64, 102
1, 288639, Control_c, 0, 64, 127
1, 288685, Note_off_c, 0, 43, 54
1, 288702, Note_off_c, 0, 40, 56
1, 288714, Note_on_c, 0, 31, 53
1, 288720, Note_off_c, 0, 34, 0
1, 288757, Poly_aftertouch_c, 0, 34, 0
1, 288853, Note_on_c, 0, 67, 71
1, 288874, Note_on_c, 0, 55, 61
1, 288878, Note_off_c, 0, 31, 36
1, 288882, Note_on_c, 0, 34, 45
1, 288883, Note_on_c, 0, 40, 33
1, 288890, Note_off_c, 0, 64, 62
1, 288892, Note_on_c, 0, 43, 37
1, 288954, Note_off_c, 0, 43, 54
1, 288967, Note_off_c, 0, 40, 58
1, 288968, Note_off_c, 0, 34, 50
1, 288973, Note_on_c, 0, 31, 47
1, 288997, Note_off_c, 0, 55, 57
1, 289049, Note_off_c, 0, 67, 60
1, 289124, Note_on_c, 0, 34, 50
1, 289133, Note_off_c, 0, 31, 37
1, 289145, Note_on_c, 0, 40, 22
1, 289148, Note_on_c, 0, 43, 38
1, 289153, Note_on_c, 0, 64, 69
1, 289154, Note_on_c, 0, 52, 59
1, 289193, Note_off_c, 0, 52, 56
1, 289210, Note_off_c, 0, 40, 46
1, 289262, Note_off_c, 0, 43, 52
1, 289263, Note_off_c, 0, 34, 33
1, 289286, Control_c, 0, 64, 117
1, 289301, Control_c, 0, 64, 82
1, 289310, Note_on_c, 0, 33, 50
1, 289313, Note_on_c, 0, 65, 62
1, 289316, Control_c, 0, 64, 65
1, 289326, Note_off_c, 0, 64, 57
1, 289331, Control_c, 0, 64, 50
1, 289334, Note_on_c, 0, 53, 40
1, 289345, Control_c, 0, 64, 43
1, 289360, Control_c, 0, 64, 43
1, 289389, Control_c, 0, 64, 45
1, 289404, Control_c, 0, 64, 54
1, 289419, Control_c, 0, 64, 62
1, 289434, Control_c, 0, 64, 69
1, 289449, Control_c, 0, 64, 78
1, 289463, Control_c, 0, 64, 98
1, 289478, Control_c, 0, 64, 127
1, 289525, Note_on_c, 0, 45, 43
1, 289526, Note_on_c, 0, 36, 40
1, 289529, Note_on_c, 0, 41, 28
1, 289545, Note_off_c, 0, 53, 60
1, 289553, Note_off_c, 0, 65, 34
1, 289590, Note_off_c, 0, 33, 29
1, 289657, Note_off_c, 0, 45, 50
1, 289681, Note_on_c, 0, 33, 37
1, 289697, Note_off_c, 0, 41, 35
1, 289712, Note_off_c, 0, 36, 40
1, 289825, Note_on_c, 0, 60, 59
1, 289839, Note_on_c, 0, 48, 50
1, 289849, Note_on_c, 0, 41, 19
1, 289856, Note_on_c, 0, 36, 35
1, 289860, Note_on_c, 0, 45, 24
1, 289889, Note_off_c, 0, 33, 38
1, 289931, Note_off_c, 0, 41, 42
1, 289932, Note_off_c, 0, 36, 55
1, 289940, Note_off_c, 0, 45, 37
1, 289977, Note_on_c, 0, 33, 36
1, 290117, Note_on_c, 0, 45, 40
1, 290129, Note_on_c, 0, 36, 33
1, 290139, Note_on_c, 0, 41, 35
1, 290178, Note_off_c, 0, 33, 36
1, 290221, Note_off_c, 0, 36, 52
1, 290227, Note_off_c, 0, 45, 52
1, 290231, Note_off_c, 0, 41, 51
1, 290246, Note_on_c, 0, 33, 41
1, 290322, Note_off_c, 0, 48, 38
1, 290403, Note_on_c, 0, 36, 50
1, 290425, Note_on_c, 0, 45, 47
1, 290430, Note_off_c, 0, 33, 40
1, 290537, Note_on_c, 0, 33, 55
1, 290571, Note_off_c, 0, 45, 37
1, 290579, Note_off_c, 0, 36, 33
1, 290650, Control_c, 0, 64, 89
1, 290665, Control_c, 0, 64, 69
1, 290666, Note_on_c, 0, 62, 71
1, 290678, Note_on_c, 0, 50, 58
1, 290680, Control_c, 0, 64, 58
1, 290682, Note_on_c, 0, 41, 49
1, 290695, Control_c, 0, 64, 51
1, 290724, Control_c, 0, 64, 52
1, 290731, Note_off_c, 0, 60, 41
1, 290739, Control_c, 0, 64, 57
1, 290754, Control_c, 0, 64, 63
1, 290768, Note_off_c, 0, 33, 39
1, 290769, Control_c, 0, 64, 69
1, 290784, Control_c, 0, 64, 80
1, 290798, Control_c, 0, 64, 105
1, 290813, Control_c, 0, 64, 127
1, 290826, Note_off_c, 0, 41, 55
1, 290833, Note_on_c, 0, 34, 50
1, 290836, Note_off_c, 0, 50, 58
1, 290866, Note_off_c, 0, 62, 56
1, 290976, Note_on_c, 0, 41, 41
1, 290988, Note_on_c, 0, 58, 74
1, 290999, Note_on_c, 0, 46, 69
1, 291051, Note_off_c, 0, 34, 30
1, 291062, Note_off_c, 0, 46, 62
1, 291101, Note_on_c, 0, 45, 55
1, 291102, Note_on_c, 0, 57, 65
1, 291131, Control_c, 0, 64, 97
1, 291140, Note_on_c, 0, 36, 49
1, 291146, Control_c, 0, 64, 72
1, 291153, Note_off_c, 0, 41, 34
1, 291161, Control_c, 0, 64, 58
1, 291175, Control_c, 0, 64, 39
1, 291190, Control_c, 0, 64, 35
1, 291194, Note_off_c, 0, 58, 26
1, 291220, Control_c, 0, 64, 37
1, 291235, Control_c, 0, 64, 48
1, 291250, Control_c, 0, 64, 60
1, 291265, Control_c, 0, 64, 66
1, 291274, Note_on_c, 0, 41, 49
1, 291277, Note_off_c, 0, 36, 50
1, 291280, Control_c, 0, 64, 75
1, 291295, Control_c, 0, 64, 96
1, 291310, Control_c, 0, 64, 127
1, 291316, Note_off_c, 0, 45, 55
1, 291406, Note_off_c, 0, 41, 56
1, 291446, Note_on_c, 0, 36, 43
1, 291538, Note_on_c, 0, 60, 71
1, 291551, Note_on_c, 0, 48, 61
1, 291556, Note_off_c, 0, 57, 58
1, 291564, Note_on_c, 0, 41, 34
1, 291579, Note_off_c, 0, 36, 35
1, 291673, Note_off_c, 0, 60, 54
1, 291694, Note_off_c, 0, 48, 62
1, 291714, Note_off_c, 0, 41, 34
1, 291718, Note_on_c, 0, 36, 44
1, 291847, Note_on_c, 0, 41, 39
1, 291852, Note_on_c, 0, 57, 52
1, 291852, Note_off_c, 0, 36, 35
1, 291881, Note_on_c, 0, 45, 25
1, 291915, Note_off_c, 0, 45, 49
1, 291949, Poly_aftertouch_c, 0, 59, 0
1, 291951, Note_off_c, 0, 57, 50
1, 291960, Note_off_c, 0, 41, 59
1, 291982, Note_on_c, 0, 55, 60
1, 291984, Control_c, 0, 64, 90
1, 291998, Control_c, 0, 64, 70
1, 292007, Note_on_c, 0, 43, 51
1, 292013, Note_on_c, 0, 36, 33
1, 292014, Control_c, 0, 64, 57
1, 292029, Control_c, 0, 64, 44
1, 292043, Control_c, 0, 64, 40
1, 292058, Control_c, 0, 64, 39
1, 292088, Control_c, 0, 64, 44
1, 292103, Control_c, 0, 64, 56
1, 292112, Note_off_c, 0, 43, 55
1, 292118, Control_c, 0, 64, 64
1, 292133, Control_c, 0, 64, 70
1, 292147, Control_c, 0, 64, 82
1, 292153, Note_on_c, 0, 40, 46
1, 292162, Control_c, 0, 64, 105
1, 292174, Note_off_c, 0, 36, 36
1, 292177, Control_c, 0, 64, 127
1, 292264, Note_off_c, 0, 55, 60
1, 292264, Note_off_c, 0, 40, 52
1, 292293, Note_on_c, 0, 36, 44
1, 292411, Note_off_c, 0, 36, 51
1, 292415, Note_on_c, 0, 60, 67
1, 292436, Note_on_c, 0, 48, 51
1, 292443, Note_on_c, 0, 40, 36
1, 292514, Note_off_c, 0, 48, 49
1, 292530, Note_off_c, 0, 40, 57
1, 292564, Note_on_c, 0, 36, 47
1, 292663, Note_off_c, 0, 36, 56
1, 292685, Note_on_c, 0, 40, 49
1, 292728, Note_on_c, 0, 58, 65
1, 292744, Note_off_c, 0, 40, 61
1, 292750, Note_off_c, 0, 60, 39
1, 292770, Note_on_c, 0, 46, 21
1, 292812, Note_off_c, 0, 46, 48
1, 292823, Control_c, 0, 64, 121
1, 292837, Control_c, 0, 64, 105
1, 292852, Control_c, 0, 64, 97
1, 292867, Control_c, 0, 64, 92
1, 292881, Note_on_c, 0, 57, 66
1, 292882, Control_c, 0, 64, 85
1, 292897, Control_c, 0, 64, 78
1, 292899, Note_on_c, 0, 41, 37
1, 292911, Control_c, 0, 64, 69
1, 292920, Note_off_c, 0, 58, 52
1, 292926, Control_c, 0, 64, 62
1, 292941, Control_c, 0, 64, 51
1, 292956, Control_c, 0, 64, 45
1, 292971, Control_c, 0, 64, 41
1, 292985, Control_c, 0, 64, 41
1, 293000, Control_c, 0, 64, 41
1, 293015, Control_c, 0, 64, 46
1, 293030, Control_c, 0, 64, 55
1, 293045, Control_c, 0, 64, 62
1, 293060, Control_c, 0, 64, 66
1, 293075, Control_c, 0, 64, 72
1, 293089, Control_c, 0, 64, 81
1, 293104, Control_c, 0, 64, 93
1, 293110, Note_off_c, 0, 41, 39
1, 293119, Note_on_c, 0, 53, 47
1, 293119, Control_c, 0, 64, 115
1, 293129, Note_on_c, 0, 48, 32
1, 293134, Control_c, 0, 64, 127
1, 293136, Note_on_c, 0, 45, 38
1, 293209, Note_off_c, 0, 53, 54
1, 293236, Note_off_c, 0, 48, 38
1, 293243, Note_off_c, 0, 45, 55
1, 293249, Note_on_c, 0, 41, 40
1, 293282, Control_c, 0, 67, 127
1, 293297, Control_c, 0, 67, 123
1, 293311, Control_c, 0, 67, 119
1, 293326, Control_c, 0, 67, 115
1, 293341, Control_c, 0, 67, 110
1, 293364, Control_c, 0, 67, 103
1, 293379, Control_c, 0, 67, 97
1, 293386, Note_on_c, 0, 60, 66
1, 293393, Control_c, 0, 67, 92
1, 293405, Note_on_c, 0, 53, 40
1, 293408, Control_c, 0, 67, 85
1, 293408, Note_off_c, 0, 41, 33
1, 293411, Note_on_c, 0, 45, 36
1, 293414, Note_on_c, 0, 48, 18
1, 293423, Control_c, 0, 67, 77
1, 293437, Control_c, 0, 67, 66
1, 293438, Note_off_c, 0, 57, 59
1, 293452, Control_c, 0, 67, 50
1, 293467, Control_c, 0, 67, 30
1, 293482, Control_c, 0, 67, 0
1, 293494, Note_off_c, 0, 45, 54
1, 293500, Note_off_c, 0, 48, 35
1, 293519, Note_off_c, 0, 53, 55
1, 293541, Note_on_c, 0, 41, 51
1, 293647, Note_off_c, 0, 41, 56
1, 293665, Note_on_c, 0, 53, 49
1, 293670, Note_on_c, 0, 48, 38
1, 293677, Note_on_c, 0, 45, 36
1, 293774, Note_off_c, 0, 53, 59
1, 293782, Note_on_c, 0, 41, 53
1, 293787, Note_off_c, 0, 45, 50
1, 293790, Note_off_c, 0, 48, 50
1, 293903, Note_off_c, 0, 41, 59
1, 293922, Note_on_c, 0, 53, 48
1, 293933, Note_on_c, 0, 48, 48
1, 293936, Note_on_c, 0, 45, 47
1, 294036, Note_off_c, 0, 53, 57
1, 294037, Note_off_c, 0, 45, 51
1, 294038, Note_on_c, 0, 41, 56
1, 294046, Note_off_c, 0, 48, 55
1, 294177, Note_off_c, 0, 60, 64
1, 294188, Note_off_c, 0, 41, 56
1, 294198, Note_on_c, 0, 69, 66
1, 294209, Note_on_c, 0, 48, 44
1, 294209, Note_on_c, 0, 53, 38
1, 294210, Note_on_c, 0, 45, 41
1, 294210, Note_on_c, 0, 57, 54
1, 294324, Note_off_c, 0, 45, 56
1, 294332, Note_on_c, 0, 41, 55
1, 294338, Note_off_c, 0, 48, 56
1, 294347, Note_off_c, 0, 53, 57
1, 294353, Note_off_c, 0, 57, 52
1, 294450, Note_off_c, 0, 69, 63
1, 294471, Note_off_c, 0, 41, 55
1, 294476, Note_on_c, 0, 53, 55
1, 294477, Note_on_c, 0, 72, 81
1, 294480, Note_on_c, 0, 48, 47
1, 294483, Note_on_c, 0, 45, 43
1, 294496, Note_on_c, 0, 60, 44
1, 294525, Note_off_c, 0, 60, 55
1, 294572, Note_off_c, 0, 53, 57
1, 294584, Note_off_c, 0, 45, 59
1, 294584, Note_off_c, 0, 72, 65
1, 294592, Note_on_c, 0, 77, 89
1, 294601, Note_off_c, 0, 48, 58
1, 294601, Note_on_c, 0, 41, 62
1, 294603, Note_on_c, 0, 65, 74
1, 294631, Control_c, 0, 64, 99
1, 294646, Control_c, 0, 64, 69
1, 294660, Control_c, 0, 64, 56
1, 294675, Control_c, 0, 64, 49
1, 294690, Control_c, 0, 64, 48
1, 294705, Control_c, 0, 64, 48
1, 294720, Control_c, 0, 64, 49
1, 294729, Note_on_c, 0, 48, 60
1, 294734, Note_off_c, 0, 41, 57
1, 294735, Control_c, 0, 64, 57
1, 294737, Note_on_c, 0, 53, 69
1, 294741, Note_on_c, 0, 45, 51
1, 294750, Control_c, 0, 64, 64
1, 294764, Control_c, 0, 64, 72
1, 294779, Control_c, 0, 64, 89
1, 294794, Control_c, 0, 64, 127
1, 294827, Note_off_c, 0, 65, 48
1, 294849, Note_on_c, 0, 41, 69
1, 294875, Note_off_c, 0, 53, 58
1, 294875, Note_off_c, 0, 45, 57
1, 294888, Note_off_c, 0, 48, 58
1, 294997, Note_on_c, 0, 81, 83
1, 295001, Note_on_c, 0, 69, 78
1, 295012, Note_off_c, 0, 41, 57
1, 295015, Note_on_c, 0, 53, 52
1, 295018, Note_on_c, 0, 45, 47
1, 295024, Note_on_c, 0, 48, 51
1, 295038, Note_off_c, 0, 77, 61
1, 295092, Note_off_c, 0, 45, 54
1, 295117, Note_off_c, 0, 53, 60
1, 295118, Note_on_c, 0, 41, 62
1, 295128, Note_off_c, 0, 48, 59
1, 295158, Note_off_c, 0, 69, 59
1, 295160, Note_off_c, 0, 81, 57
1, 295255, Note_on_c, 0, 53, 56
1, 295261, Note_on_c, 0, 45, 42
1, 295263, Note_off_c, 0, 41, 40
1, 295265, Note_on_c, 0, 48, 50
1, 295278, Note_on_c, 0, 77, 89
1, 295285, Note_on_c, 0, 65, 83
1, 295339, Note_off_c, 0, 65, 63
1, 295359, Note_off_c, 0, 45, 58
1, 295370, Note_off_c, 0, 48, 54
1, 295381, Note_off_c, 0, 77, 60
1, 295390, Note_on_c, 0, 76, 85
1, 295394, Note_off_c, 0, 53, 50
1, 295395, Note_on_c, 0, 64, 87
1, 295407, Note_on_c, 0, 43, 75
1, 295409, Control_c, 0, 64, 93
1, 295424, Control_c, 0, 64, 70
1, 295438, Control_c, 0, 64, 55
1, 295444, Note_on_c, 0, 72, 5
1, 295453, Control_c, 0, 64, 43
1, 295468, Control_c, 0, 64, 39
1, 295483, Control_c, 0, 64, 36
1, 295498, Control_c, 0, 64, 36
1, 295513, Control_c, 0, 64, 43
1, 295527, Note_off_c, 0, 72, 40
1, 295528, Control_c, 0, 64, 58
1, 295541, Note_on_c, 0, 46, 66
1, 295543, Note_on_c, 0, 55, 77
1, 295543, Control_c, 0, 64, 66
1, 295544, Note_on_c, 0, 48, 65
1, 295555, Note_off_c, 0, 43, 58
1, 295558, Control_c, 0, 64, 77
1, 295573, Control_c, 0, 64, 99
1, 295587, Control_c, 0, 64, 127
1, 295663, Note_off_c, 0, 64, 49
1, 295671, Note_on_c, 0, 43, 76
1, 295701, Note_off_c, 0, 48, 61
1, 295711, Note_off_c, 0, 46, 56
1, 295720, Note_off_c, 0, 55, 59
1, 295805, Note_on_c, 0, 79, 93
1, 295817, Note_on_c, 0, 67, 86
1, 295829, Note_on_c, 0, 55, 72
1, 295836, Note_on_c, 0, 46, 64
1, 295841, Note_on_c, 0, 48, 54
1, 295843, Note_off_c, 0, 43, 61
1, 295843, Note_off_c, 0, 76, 61
1, 295862, Poly_aftertouch_c, 0, 72, 127
1, 295904, Poly_aftertouch_c, 0, 72, 0
1, 295949, Note_on_c, 0, 43, 67
1, 295966, Note_off_c, 0, 46, 59
1, 295969, Note_off_c, 0, 48, 61
1, 295982, Note_off_c, 0, 55, 59
1, 295997, Note_off_c, 0, 79, 60
1, 296052, Note_off_c, 0, 67, 60
1, 296083, Note_on_c, 0, 46, 64
1, 296085, Note_on_c, 0, 55, 74
1, 296092, Note_on_c, 0, 48, 63
1, 296135, Note_off_c, 0, 43, 58
1, 296157, Note_off_c, 0, 48, 58
1, 296170, Note_on_c, 0, 76, 78
1, 296175, Note_off_c, 0, 46, 59
1, 296179, Note_on_c, 0, 64, 74
1, 296207, Note_off_c, 0, 55, 58
1, 296248, Control_c, 0, 64, 115
1, 296261, Note_off_c, 0, 64, 52
1, 296262, Control_c, 0, 64, 99
1, 296277, Control_c, 0, 64, 89
1, 296292, Control_c, 0, 64, 82
1, 296307, Note_off_c, 0, 76, 56
1, 296307, Control_c, 0, 64, 77
1, 296322, Control_c, 0, 64, 73
1, 296336, Control_c, 0, 64, 69
1, 296359, Control_c, 0, 64, 66
1, 296374, Control_c, 0, 64, 64
1, 296389, Control_c, 0, 64, 61
1, 296404, Control_c, 0, 64, 56
1, 296418, Control_c, 0, 64, 46
1, 296433, Control_c, 0, 64, 32
1, 296448, Control_c, 0, 64, 0
1, 296515, Note_on_c, 0, 77, 56
1, 296534, Note_on_c, 0, 53, 37
1, 296535, Note_on_c, 0, 57, 33
1, 296536, Note_on_c, 0, 48, 29
1, 296541, Note_on_c, 0, 65, 40
1, 296542, Note_on_c, 0, 45, 32
1, 296596, Control_c, 0, 64, 43
1, 296610, Control_c, 0, 64, 62
1, 296625, Control_c, 0, 64, 67
1, 296640, Control_c, 0, 64, 74
1, 296655, Control_c, 0, 64, 85
1, 296669, Control_c, 0, 64, 107
1, 296684, Control_c, 0, 64, 127
1, 296706, Note_off_c, 0, 77, 45
1, 296721, Note_off_c, 0, 65, 59
1, 297048, Note_on_c, 0, 72, 50
1, 297053, Note_on_c, 0, 60, 44
1, 297054, Control_c, 0, 64, 107
1, 297069, Control_c, 0, 64, 94
1, 297084, Control_c, 0, 64, 86
1, 297106, Control_c, 0, 64, 80
1, 297121, Control_c, 0, 64, 74
1, 297136, Control_c, 0, 64, 69
1, 297151, Control_c, 0, 64, 64
1, 297165, Control_c, 0, 64, 60
1, 297180, Control_c, 0, 64, 56
1, 297195, Control_c, 0, 64, 52
1, 297210, Control_c, 0, 64, 47
1, 297225, Control_c, 0, 64, 41
1, 297239, Control_c, 0, 64, 36
1, 297254, Control_c, 0, 64, 34
1, 297298, Control_c, 0, 64, 37
1, 297313, Control_c, 0, 64, 43
1, 297328, Control_c, 0, 64, 52
1, 297343, Control_c, 0, 64, 59
1, 297358, Control_c, 0, 64, 64
1, 297373, Control_c, 0, 64, 67
1, 297388, Control_c, 0, 64, 72
1, 297402, Control_c, 0, 64, 79
1, 297417, Control_c, 0, 64, 89
1, 297432, Control_c, 0, 64, 100
1, 297447, Control_c, 0, 64, 127
1, 297967, Note_off_c, 0, 60, 60
1, 297993, Note_off_c, 0, 48, 41
1, 297999, Note_off_c, 0, 45, 50
1, 298071, Note_off_c, 0, 53, 41
1, 298263, Note_on_c, 0, 73, 86
1, 298268, Note_on_c, 0, 61, 83
1, 298270, Control_c, 0, 64, 91
1, 298276, Note_on_c, 0, 53, 75
1, 298276, Note_on_c, 0, 46, 71
1, 298278, Note_on_c, 0, 49, 67
1, 298285, Control_c, 0, 64, 64
1, 298299, Control_c, 0, 64, 43
1, 298302, Note_off_c, 0, 57, 44
1, 298314, Control_c, 0, 64, 38
1, 298330, Note_off_c, 0, 72, 60
1, 298344, Control_c, 0, 64, 40
1, 298359, Control_c, 0, 64, 53
1, 298361, Poly_aftertouch_c, 0, 67, 0
1, 298373, Control_c, 0, 64, 66
1, 298388, Control_c, 0, 64, 80
1, 298404, Control_c, 0, 64, 127
1, 298561, Note_off_c, 0, 73, 63
1, 298615, Poly_aftertouch_c, 0, 67, 127
1, 298634, Note_off_c, 0, 61, 60
1, 298723, Note_on_c, 0, 70, 93
1, 298733, Note_on_c, 0, 54, 77
1, 298734, Note_on_c, 0, 58, 88
1, 298765, Poly_aftertouch_c, 0, 67, 0
1, 298786, Note_on_c, 0, 71, 10
1, 298796, Control_c, 0, 64, 94
1, 298811, Control_c, 0, 64, 71
1, 298819, Note_off_c, 0, 53, 58
1, 298826, Control_c, 0, 64, 58
1, 298832, Note_off_c, 0, 71, 36
1, 298841, Control_c, 0, 64, 44
1, 298855, Control_c, 0, 64, 35
1, 298870, Control_c, 0, 64, 0
1, 299048, Control_c, 0, 64, 46
1, 299063, Control_c, 0, 64, 61
1, 299078, Control_c, 0, 64, 67
1, 299093, Control_c, 0, 64, 74
1, 299108, Control_c, 0, 64, 83
1, 299122, Control_c, 0, 64, 96
1, 299137, Control_c, 0, 64, 112
1, 299152, Control_c, 0, 64, 127
1, 299545, Note_off_c, 0, 58, 54
1, 299657, Note_off_c, 0, 54, 60
1, 299676, Note_off_c, 0, 49, 37
1, 299761, Note_off_c, 0, 70, 52
1, 300178, Note_off_c, 0, 46, 52
1, 300235, Note_on_c, 0, 68, 47
1, 300247, Note_on_c, 0, 56, 35
1, 300255, Note_on_c, 0, 53, 36
1, 300259, Note_on_c, 0, 48, 33
1, 300265, Control_c, 0, 64, 107
1, 300280, Control_c, 0, 64, 96
1, 300295, Control_c, 0, 64, 86
1, 300309, Control_c, 0, 64, 77
1, 300324, Control_c, 0, 64, 70
1, 300339, Control_c, 0, 64, 65
1, 300354, Control_c, 0, 64, 62
1, 300369, Control_c, 0, 64, 59
1, 300384, Control_c, 0, 64, 55
1, 300399, Control_c, 0, 64, 51
1, 300414, Control_c, 0, 64, 45
1, 300428, Control_c, 0, 64, 34
1, 300443, Control_c, 0, 64, 21
1, 300458, Control_c, 0, 64, 0
1, 300650, Control_c, 0, 64, 17
1, 300665, Control_c, 0, 64, 48
1, 300680, Control_c, 0, 64, 58
1, 300694, Control_c, 0, 64, 62
1, 300709, Control_c, 0, 64, 65
1, 300724, Control_c, 0, 64, 69
1, 300739, Control_c, 0, 64, 76
1, 300754, Control_c, 0, 64, 88
1, 300768, Control_c, 0, 64, 106
1, 300783, Control_c, 0, 64, 127
1, 301407, Note_on_c, 0, 67, 44
1, 301552, Note_off_c, 0, 56, 43
1, 301553, Note_off_c, 0, 53, 42
1, 301607, Note_off_c, 0, 48, 41
1, 301709, Note_off_c, 0, 68, 21
1, 301737, Note_off_c, 0, 67, 57
1, 301742, Note_on_c, 0, 65, 51
1, 301867, Note_on_c, 0, 52, 38
1, 301868, Note_on_c, 0, 48, 41
1, 301877, Note_off_c, 0, 65, 57
1, 301884, Note_on_c, 0, 58, 35
1, 301895, Control_c, 0, 64, 107
1, 301910, Control_c, 0, 64, 75
1, 301925, Control_c, 0, 64, 60
1, 301940, Control_c, 0, 64, 38
1, 301942, Note_on_c, 0, 66, 36
1, 301955, Control_c, 0, 64, 23
1, 301970, Control_c, 0, 64, 0
1, 302019, Note_off_c, 0, 66, 58
1, 302029, Control_c, 0, 64, 41
1, 302044, Control_c, 0, 64, 61
1, 302047, Note_on_c, 0, 67, 46
1, 302059, Control_c, 0, 64, 69
1, 302073, Control_c, 0, 64, 79
1, 302088, Control_c, 0, 64, 95
1, 302098, Note_off_c, 0, 67, 60
1, 302103, Control_c, 0, 64, 127
1, 302130, Note_on_c, 0, 68, 42
1, 302166, Note_off_c, 0, 68, 55
1, 302189, Note_on_c, 0, 67, 53
1, 302229, Note_off_c, 0, 67, 61
1, 302261, Note_on_c, 0, 68, 46
1, 302292, Note_off_c, 0, 68, 59
1, 302308, Note_on_c, 0, 67, 54
1, 302358, Note_off_c, 0, 67, 63
1, 302384, Note_on_c, 0, 68, 56
1, 302425, Note_off_c, 0, 68, 62
1, 302444, Note_on_c, 0, 67, 59
1, 302491, Note_off_c, 0, 67, 63
1, 302512, Note_on_c, 0, 68, 60
1, 302553, Note_off_c, 0, 68, 60
1, 302569, Note_on_c, 0, 67, 57
1, 302619, Note_off_c, 0, 67, 54
1, 302637, Note_on_c, 0, 68, 50
1, 302686, Note_on_c, 0, 67, 43
1, 302691, Note_off_c, 0, 68, 52
1, 302747, Note_on_c, 0, 68, 42
1, 302748, Note_off_c, 0, 67, 57
1, 302813, Note_on_c, 0, 67, 37
1, 302849, Note_off_c, 0, 68, 0
1, 302864, Note_on_c, 0, 68, 38
1, 302910, Note_off_c, 0, 67, 0
1, 302923, Note_off_c, 0, 68, 60
1, 302924, Note_on_c, 0, 67, 38
1, 302985, Note_off_c, 0, 67, 58
1, 302995, Note_on_c, 0, 68, 56
1, 303038, Note_off_c, 0, 68, 62
1, 303043, Note_off_c, 0, 48, 56
1, 303049, Note_on_c, 0, 67, 41
1, 303064, Note_off_c, 0, 52, 60
1, 303102, Note_off_c, 0, 67, 61
1, 303111, Note_off_c, 0, 58, 51
1, 303114, Note_on_c, 0, 68, 58
1, 303158, Note_off_c, 0, 68, 62
1, 303173, Note_on_c, 0, 67, 56
1, 303216, Note_off_c, 0, 67, 59
1, 303240, Note_on_c, 0, 68, 59
1, 303295, Note_off_c, 0, 68, 60
1, 303296, Note_on_c, 0, 67, 56
1, 303359, Note_off_c, 0, 67, 62
1, 303405, Note_on_c, 0, 73, 60
1, 303423, Control_c, 0, 64, 87
1, 303438, Control_c, 0, 64, 66
1, 303453, Control_c, 0, 64, 47
1, 303467, Control_c, 0, 64, 39
1, 303497, Control_c, 0, 64, 41
1, 303503, Note_on_c, 0, 72, 57
1, 303506, Note_off_c, 0, 73, 56
1, 303512, Control_c, 0, 64, 51
1, 303526, Control_c, 0, 64, 61
1, 303541, Control_c, 0, 64, 68
1, 303556, Control_c, 0, 64, 78
1, 303560, Note_off_c, 0, 72, 62
1, 303567, Note_on_c, 0, 73, 39
1, 303571, Control_c, 0, 64, 95
1, 303586, Control_c, 0, 64, 127
1, 303627, Note_off_c, 0, 73, 61
1, 303634, Note_on_c, 0, 72, 60
1, 303680, Note_off_c, 0, 72, 63
1, 303687, Note_on_c, 0, 73, 50
1, 303749, Note_on_c, 0, 72, 64
1, 303778, Note_off_c, 0, 73, 0
1, 303792, Note_on_c, 0, 73, 42
1, 303798, Note_off_c, 0, 72, 62
1, 303862, Note_off_c, 0, 73, 61
1, 303866, Note_on_c, 0, 72, 63
1, 303917, Note_on_c, 0, 73, 47
1, 303919, Note_off_c, 0, 72, 63
1, 303973, Note_off_c, 0, 73, 62
1, 303982, Note_on_c, 0, 72, 64
1, 304040, Note_off_c, 0, 72, 63
1, 304042, Note_on_c, 0, 73, 57
1, 304090, Note_off_c, 0, 73, 62
1, 304096, Note_on_c, 0, 72, 59
1, 304149, Note_off_c, 0, 72, 63
1, 304152, Note_on_c, 0, 73, 54
1, 304211, Note_on_c, 0, 72, 62
1, 304234, Note_off_c, 0, 73, 0
1, 304250, Note_on_c, 0, 73, 38
1, 304253, Note_off_c, 0, 72, 63
1, 304306, Note_off_c, 0, 73, 56
1, 304316, Note_on_c, 0, 72, 64
1, 304357, Note_on_c, 0, 73, 46
1, 304359, Note_off_c, 0, 72, 61
1, 304426, Note_on_c, 0, 72, 55
1, 304480, Note_off_c, 0, 72, 0
1, 304496, Note_off_c, 0, 73, 65
1, 304518, Poly_aftertouch_c, 0, 72, 127
1, 304554, Poly_aftertouch_c, 0, 72, 0
1, 304566, Note_on_c, 0, 71, 62
1, 304635, Note_off_c, 0, 71, 61
1, 304638, Note_on_c, 0, 72, 65
1, 304678, Note_off_c, 0, 72, 64
1, 304742, Control_c, 0, 64, 84
1, 304757, Control_c, 0, 64, 65
1, 304758, Note_on_c, 0, 85, 52
1, 304772, Control_c, 0, 64, 49
1, 304787, Control_c, 0, 64, 40
1, 304803, Control_c, 0, 64, 38
1, 304818, Control_c, 0, 64, 37
1, 304833, Control_c, 0, 64, 39
1, 304847, Control_c, 0, 64, 51
1, 304858, Note_off_c, 0, 85, 62
1, 304862, Control_c, 0, 64, 62
1, 304869, Note_on_c, 0, 84, 59
1, 304877, Control_c, 0, 64, 68
1, 304892, Control_c, 0, 64, 82
1, 304907, Control_c, 0, 64, 107
1, 304916, Note_off_c, 0, 84, 64
1, 304921, Control_c, 0, 64, 127
1, 304944, Note_on_c, 0, 85, 40
1, 304989, Note_off_c, 0, 85, 50
1, 305006, Note_on_c, 0, 84, 60
1, 305046, Note_off_c, 0, 84, 63
1, 305068, Note_on_c, 0, 85, 60
1, 305105, Note_off_c, 0, 85, 63
1, 305117, Note_on_c, 0, 84, 72
1, 305167, Note_off_c, 0, 84, 63
1, 305180, Note_on_c, 0, 85, 56
1, 305225, Note_off_c, 0, 85, 63
1, 305228, Note_on_c, 0, 84, 70
1, 305284, Note_off_c, 0, 84, 65
1, 305296, Note_on_c, 0, 85, 62
1, 305354, Note_on_c, 0, 84, 69
1, 305354, Note_off_c, 0, 85, 64
1, 305410, Note_off_c, 0, 84, 65
1, 305414, Note_on_c, 0, 85, 62
1, 305468, Note_off_c, 0, 85, 66
1, 305472, Note_on_c, 0, 84, 70
1, 305524, Note_off_c, 0, 84, 64
1, 305532, Note_on_c, 0, 85, 61
1, 305585, Note_on_c, 0, 84, 74
1, 305585, Note_off_c, 0, 85, 64
1, 305639, Note_off_c, 0, 84, 64
1, 305646, Note_on_c, 0, 85, 62
1, 305708, Note_off_c, 0, 85, 64
1, 305710, Note_on_c, 0, 84, 76
1, 305764, Note_off_c, 0, 84, 63
1, 305776, Note_on_c, 0, 85, 43
1, 305825, Note_on_c, 0, 84, 53
1, 305859, Note_off_c, 0, 85, 65
1, 305916, Note_off_c, 0, 84, 63
1, 305917, Note_on_c, 0, 83, 63
1, 306016, Note_off_c, 0, 83, 58
1, 306024, Note_on_c, 0, 84, 63
1, 306055, Control_c, 0, 64, 121
1, 306069, Control_c, 0, 64, 110
1, 306092, Control_c, 0, 64, 102
1, 306107, Control_c, 0, 64, 95
1, 306121, Control_c, 0, 64, 90
1, 306136, Control_c, 0, 64, 85
1, 306151, Control_c, 0, 64, 81
1, 306166, Control_c, 0, 64, 79
1, 306181, Control_c, 0, 64, 78
1, 306195, Control_c, 0, 64, 77
1, 306204, Note_on_c, 0, 85, 53
1, 306210, Control_c, 0, 64, 76
1, 306210, Control_c, 0, 67, 15
1, 306225, Control_c, 0, 64, 74
1, 306225, Control_c, 0, 67, 25
1, 306240, Control_c, 0, 64, 72
1, 306240, Control_c, 0, 67, 30
1, 306255, Control_c, 0, 64, 71
1, 306255, Control_c, 0, 67, 32
1, 306256, Note_off_c, 0, 84, 38
1, 306269, Control_c, 0, 64, 70
1, 306284, Control_c, 0, 67, 33
1, 306313, Control_c, 0, 64, 69
1, 306313, Control_c, 0, 67, 34
1, 306328, Control_c, 0, 64, 68
1, 306328, Control_c, 0, 67, 35
1, 306343, Control_c, 0, 64, 67
1, 306352, Note_on_c, 0, 84, 59
1, 306354, Note_off_c, 0, 85, 62
1, 306358, Control_c, 0, 64, 67
1, 306404, Control_c, 0, 64, 66
1, 306418, Control_c, 0, 64, 66
1, 306433, Control_c, 0, 64, 65
1, 306476, Note_on_c, 0, 82, 63
1, 306492, Control_c, 0, 64, 65
1, 306499, Note_off_c, 0, 84, 60
1, 306522, Control_c, 0, 64, 64
1, 306536, Control_c, 0, 64, 64
1, 306611, Control_c, 0, 64, 63
1, 306611, Control_c, 0, 67, 35
1, 306613, Note_on_c, 0, 80, 61
1, 306626, Control_c, 0, 67, 36
1, 306641, Control_c, 0, 64, 63
1, 306700, Control_c, 0, 67, 37
1, 306705, Note_off_c, 0, 82, 52
1, 306715, Control_c, 0, 64, 62
1, 306715, Control_c, 0, 67, 38
1, 306730, Control_c, 0, 67, 39
1, 306734, Note_on_c, 0, 79, 60
1, 306736, Note_off_c, 0, 80, 61
1, 306744, Control_c, 0, 67, 43
1, 306759, Control_c, 0, 64, 62
1, 306759, Control_c, 0, 67, 56
1, 306774, Control_c, 0, 67, 63
1, 306789, Control_c, 0, 67, 68
1, 306804, Control_c, 0, 67, 72
1, 306818, Control_c, 0, 67, 76
1, 306840, Control_c, 0, 67, 80
1, 306855, Control_c, 0, 67, 82
1, 306870, Control_c, 0, 67, 84
1, 306873, Note_on_c, 0, 78, 56
1, 306885, Control_c, 0, 67, 85
1, 306898, Note_off_c, 0, 79, 56
1, 306915, Control_c, 0, 67, 86
1, 306930, Control_c, 0, 67, 87
1, 306944, Control_c, 0, 67, 87
1, 306959, Control_c, 0, 67, 89
1, 306974, Control_c, 0, 67, 90
1, 306989, Control_c, 0, 67, 91
1, 307004, Control_c, 0, 67, 92
1, 307004, Note_on_c, 0, 77, 66
1, 307033, Control_c, 0, 67, 92
1, 307097, Note_off_c, 0, 78, 50
1, 307120, Note_off_c, 0, 77, 63
1, 307132, Note_on_c, 0, 76, 61
1, 307269, Note_on_c, 0, 75, 63
1, 307292, Note_off_c, 0, 76, 61
1, 307407, Note_on_c, 0, 73, 57
1, 307469, Note_off_c, 0, 75, 54
1, 307511, Note_off_c, 0, 73, 64
1, 307536, Note_on_c, 0, 72, 54
1, 307604, Control_c, 0, 64, 62
1, 307667, Note_off_c, 0, 72, 62
1, 307668, Note_on_c, 0, 70, 55
1, 307792, Note_on_c, 0, 68, 53
1, 307873, Note_off_c, 0, 70, 39
1, 307913, Note_off_c, 0, 68, 59
1, 307923, Note_on_c, 0, 67, 51
1, 308043, Note_off_c, 0, 67, 57
1, 308051, Note_on_c, 0, 66, 47
1, 308179, Note_on_c, 0, 65, 50
1, 308276, Note_off_c, 0, 66, 36
1, 308277, Note_off_c, 0, 65, 62
1, 308299, Note_on_c, 0, 64, 52
1, 308441, Note_off_c, 0, 64, 59
1, 308446, Note_on_c, 0, 63, 52
1, 308576, Note_on_c, 0, 61, 50
1, 308661, Note_off_c, 0, 63, 36
1, 308694, Note_off_c, 0, 61, 61
1, 308703, Note_on_c, 0, 60, 50
1, 308841, Note_on_c, 0, 58, 49
1, 308842, Note_off_c, 0, 60, 61
1, 308969, Note_on_c, 0, 56, 47
1, 309057, Note_off_c, 0, 58, 36
1, 309091, Note_off_c, 0, 56, 61
1, 309100, Note_on_c, 0, 55, 47
1, 309223, Note_off_c, 0, 55, 57
1, 309232, Note_on_c, 0, 54, 44
1, 309338, Control_c, 0, 67, 92
1, 309362, Note_on_c, 0, 53, 43
1, 309442, Note_off_c, 0, 54, 36
1, 309464, Note_off_c, 0, 53, 64
1, 309481, Note_on_c, 0, 52, 50
1, 309607, Note_off_c, 0, 52, 61
1, 309617, Note_on_c, 0, 51, 51
1, 309680, Control_c, 0, 67, 91
1, 309743, Note_on_c, 0, 49, 49
1, 309798, Note_off_c, 0, 51, 35
1, 309856, Note_off_c, 0, 49, 62
1, 309912, Note_on_c, 0, 47, 36
1, 310005, Note_off_c, 0, 47, 57
1, 310017, Note_on_c, 0, 46, 46
1, 310057, Control_c, 0, 67, 92
1, 310136, Note_on_c, 0, 44, 51
1, 310141, Note_off_c, 0, 46, 48
1, 310176, Control_c, 0, 64, 62
1, 310237, Note_off_c, 0, 44, 62
1, 310262, Note_on_c, 0, 43, 50
1, 310265, Control_c, 0, 64, 61
1, 310294, Control_c, 0, 67, 92
1, 310379, Note_off_c, 0, 43, 59
1, 310399, Note_on_c, 0, 42, 43
1, 310399, Control_c, 0, 67, 93
1, 310512, Note_on_c, 0, 41, 50
1, 310634, Note_off_c, 0, 41, 54
1, 310635, Note_off_c, 0, 42, 31
1, 310658, Note_on_c, 0, 40, 40
1, 310775, Note_off_c, 0, 40, 57
1, 310781, Note_on_c, 0, 39, 43
1, 310895, Control_c, 0, 67, 93
1, 310909, Control_c, 0, 67, 94
1, 310927, Note_on_c, 0, 37, 44
1, 310932, Note_off_c, 0, 39, 60
1, 310984, Control_c, 0, 67, 95
1, 310999, Control_c, 0, 67, 95
1, 311001, Note_off_c, 0, 37, 59
1, 311032, Note_on_c, 0, 36, 45
1, 311172, Note_off_c, 0, 36, 55
1, 311181, Note_on_c, 0, 34, 47
1, 311292, Note_off_c, 0, 34, 53
1, 311297, Note_on_c, 0, 32, 43
1, 311392, Control_c, 0, 64, 62
1, 311397, Note_off_c, 0, 32, 60
1, 311417, Note_on_c, 0, 31, 43
1, 311537, Note_off_c, 0, 31, 56
1, 311544, Note_on_c, 0, 32, 41
1, 311644, Control_c, 0, 67, 95
1, 311699, Note_off_c, 0, 32, 53
1, 311706, Note_on_c, 0, 34, 44
1, 311732, Control_c, 0, 67, 94
1, 311762, Control_c, 0, 67, 93
1, 311807, Control_c, 0, 67, 93
1, 311820, Note_off_c, 0, 34, 55
1, 311850, Note_on_c, 0, 36, 43
1, 311866, Control_c, 0, 67, 92
1, 311896, Control_c, 0, 67, 92
1, 311911, Control_c, 0, 67, 91
1, 311970, Control_c, 0, 67, 90
1, 311976, Note_off_c, 0, 36, 49
1, 311979, Note_on_c, 0, 35, 39
1, 311985, Control_c, 0, 67, 90
1, 312000, Control_c, 0, 67, 89
1, 312097, Control_c, 0, 67, 88
1, 312098, Note_off_c, 0, 35, 54
1, 312111, Control_c, 0, 67, 88
1, 312118, Note_on_c, 0, 36, 51
1, 312126, Control_c, 0, 67, 87
1, 312141, Control_c, 0, 67, 85
1, 312156, Control_c, 0, 67, 83
1, 312170, Control_c, 0, 67, 82
1, 312185, Control_c, 0, 67, 80
1, 312200, Control_c, 0, 67, 77
1, 312215, Control_c, 0, 67, 76
1, 312230, Control_c, 0, 67, 74
1, 312245, Control_c, 0, 67, 72
1, 312246, Note_off_c, 0, 36, 48
1, 312250, Note_on_c, 0, 35, 45
1, 312260, Control_c, 0, 67, 68
1, 312275, Control_c, 0, 67, 66
1, 312289, Control_c, 0, 67, 63
1, 312304, Control_c, 0, 67, 60
1, 312319, Control_c, 0, 67, 51
1, 312334, Control_c, 0, 64, 61
1, 312334, Control_c, 0, 67, 32
1, 312349, Control_c, 0, 67, 16
1, 312363, Control_c, 0, 64, 61
1, 312363, Control_c, 0, 67, 0
1, 312386, Note_on_c, 0, 36, 57
1, 312393, Control_c, 0, 64, 60
1, 312423, Control_c, 0, 64, 61
1, 312424, Note_off_c, 0, 35, 45
1, 312437, Control_c, 0, 64, 63
1, 312452, Control_c, 0, 64, 69
1, 312467, Control_c, 0, 64, 89
1, 312468, Note_on_c, 0, 53, 95
1, 312479, Note_on_c, 0, 29, 93
1, 312482, Control_c, 0, 64, 127
1, 312507, Note_off_c, 0, 36, 60
1, 312555, Control_c, 0, 64, 91
1, 312558, Note_on_c, 0, 48, 75
1, 312570, Control_c, 0, 64, 71
1, 312573, Note_on_c, 0, 36, 61
1, 312585, Control_c, 0, 64, 59
1, 312588, Note_off_c, 0, 53, 61
1, 312600, Control_c, 0, 64, 47
1, 312615, Control_c, 0, 64, 43
1, 312626, Note_off_c, 0, 48, 63
1, 312629, Note_on_c, 0, 44, 69
1, 312629, Note_off_c, 0, 29, 58
1, 312629, Control_c, 0, 64, 40
1, 312644, Control_c, 0, 64, 40
1, 312646, Note_on_c, 0, 41, 68
1, 312656, Note_off_c, 0, 36, 62
1, 312672, Note_off_c, 0, 44, 63
1, 312686, Note_on_c, 0, 48, 55
1, 312704, Control_c, 0, 64, 40
1, 312724, Note_on_c, 0, 36, 50
1, 312734, Note_off_c, 0, 41, 62
1, 312746, Note_on_c, 0, 53, 76
1, 312754, Note_off_c, 0, 48, 63
1, 312778, Note_on_c, 0, 29, 66
1, 312808, Note_off_c, 0, 53, 63
1, 312811, Note_off_c, 0, 36, 62
1, 312830, Note_on_c, 0, 48, 67
1, 312877, Note_off_c, 0, 29, 61
1, 312880, Note_on_c, 0, 36, 59
1, 312890, Note_on_c, 0, 56, 86
1, 312898, Note_off_c, 0, 48, 62
1, 312905, Control_c, 0, 64, 41
1, 312933, Note_off_c, 0, 36, 62
1, 312940, Note_on_c, 0, 29, 61
1, 312954, Note_off_c, 0, 56, 65
1, 312960, Note_on_c, 0, 48, 69
1, 312993, Control_c, 0, 64, 41
1, 312999, Note_off_c, 0, 29, 61
1, 313005, Note_on_c, 0, 36, 66
1, 313008, Control_c, 0, 64, 42
1, 313023, Control_c, 0, 64, 43
1, 313033, Note_on_c, 0, 55, 78
1, 313035, Note_off_c, 0, 48, 64
1, 313038, Control_c, 0, 64, 44
1, 313052, Note_off_c, 0, 36, 61
1, 313053, Control_c, 0, 64, 44
1, 313064, Note_on_c, 0, 29, 61
1, 313067, Control_c, 0, 64, 45
1, 313082, Control_c, 0, 64, 45
1, 313086, Note_off_c, 0, 55, 63
1, 313100, Note_on_c, 0, 48, 56
1, 313107, Note_off_c, 0, 29, 63
1, 313117, Note_on_c, 0, 36, 67
1, 313127, Control_c, 0, 64, 46
1, 313142, Control_c, 0, 64, 47
1, 313154, Note_on_c, 0, 53, 83
1, 313156, Note_off_c, 0, 48, 64
1, 313157, Control_c, 0, 64, 47
1, 313172, Control_c, 0, 64, 48
1, 313172, Note_off_c, 0, 36, 62
1, 313183, Note_on_c, 0, 29, 74
1, 313214, Note_off_c, 0, 53, 62
1, 313222, Note_off_c, 0, 29, 63
1, 313223, Note_on_c, 0, 48, 63
1, 313240, Note_on_c, 0, 36, 54
1, 313246, Control_c, 0, 64, 48
1, 313260, Control_c, 0, 64, 49
1, 313275, Control_c, 0, 64, 49
1, 313279, Note_on_c, 0, 53, 89
1, 313283, Note_off_c, 0, 48, 46
1, 313284, Note_on_c, 0, 29, 85
1, 313291, Note_off_c, 0, 36, 63
1, 313351, Note_on_c, 0, 48, 66
1, 313365, Note_on_c, 0, 36, 78
1, 313396, Note_off_c, 0, 53, 61
1, 313411, Note_off_c, 0, 29, 61
1, 313427, Note_on_c, 0, 44, 71
1, 313432, Note_off_c, 0, 48, 65
1, 313435, Note_on_c, 0, 41, 70
1, 313438, Note_off_c, 0, 36, 61
1, 313479, Note_off_c, 0, 44, 63
1, 313490, Note_on_c, 0, 48, 64
1, 313508, Note_on_c, 0, 36, 62
1, 313512, Control_c, 0, 64, 49
1, 313518, Note_off_c, 0, 41, 63
1, 313556, Note_on_c, 0, 53, 82
1, 313560, Note_off_c, 0, 48, 64
1, 313580, Note_on_c, 0, 29, 69
1, 313598, Note_off_c, 0, 36, 63
1, 313622, Note_off_c, 0, 53, 64
1, 313639, Control_c, 0, 64, 48
1, 313646, Note_on_c, 0, 48, 79
1, 313652, Note_off_c, 0, 29, 61
1, 313660, Note_on_c, 0, 36, 69
1, 313705, Note_on_c, 0, 56, 89
1, 313708, Note_off_c, 0, 36, 63
1, 313711, Note_off_c, 0, 48, 63
1, 313722, Note_on_c, 0, 29, 78
1, 313765, Note_off_c, 0, 29, 63
1, 313768, Note_off_c, 0, 56, 65
1, 313769, Note_on_c, 0, 48, 69
1, 313773, Note_on_c, 0, 36, 68
1, 313829, Note_off_c, 0, 36, 63
1, 313835, Note_on_c, 0, 56, 82
1, 313837, Note_on_c, 0, 29, 77
1, 313848, Note_off_c, 0, 48, 64
1, 313878, Note_off_c, 0, 29, 63
1, 313886, Note_on_c, 0, 36, 70
1, 313894, Note_off_c, 0, 56, 65
1, 313920, Note_on_c, 0, 48, 60
1, 313944, Note_off_c, 0, 36, 63
1, 313955, Note_on_c, 0, 29, 76
1, 313962, Note_on_c, 0, 53, 80
1, 313968, Note_off_c, 0, 48, 64
1, 314009, Note_on_c, 0, 36, 68
1, 314009, Control_c, 0, 64, 49
1, 314018, Note_off_c, 0, 53, 63
1, 314024, Control_c, 0, 64, 51
1, 314024, Note_off_c, 0, 29, 62
1, 314029, Note_on_c, 0, 48, 73
1, 314039, Control_c, 0, 64, 56
1, 314054, Control_c, 0, 64, 62
1, 314060, Note_off_c, 0, 48, 67
1, 314069, Control_c, 0, 64, 68
1, 314083, Note_off_c, 0, 36, 61
1, 314083, Control_c, 0, 64, 80
1, 314090, Note_on_c, 0, 29, 78
1, 314093, Note_on_c, 0, 61, 100
1, 314098, Control_c, 0, 64, 127
1, 314155, Note_on_c, 0, 37, 79
1, 314178, Note_on_c, 0, 56, 77
1, 314206, Note_off_c, 0, 61, 60
1, 314210, Note_off_c, 0, 29, 59
1, 314237, Note_on_c, 0, 41, 78
1, 314238, Note_off_c, 0, 37, 62
1, 314240, Note_off_c, 0, 56, 65
1, 314242, Note_on_c, 0, 53, 77
1, 314275, Control_c, 0, 64, 104
1, 314290, Control_c, 0, 64, 82
1, 314292, Note_on_c, 0, 56, 74
1, 314305, Control_c, 0, 64, 66
1, 314312, Note_off_c, 0, 41, 64
1, 314313, Note_on_c, 0, 37, 70
1, 314313, Note_off_c, 0, 53, 60
1, 314327, Control_c, 0, 64, 57
1, 314342, Control_c, 0, 64, 49
1, 314357, Control_c, 0, 64, 47
1, 314372, Control_c, 0, 64, 45
1, 314376, Note_on_c, 0, 61, 80
1, 314380, Note_off_c, 0, 56, 65
1, 314384, Note_on_c, 0, 29, 71
1, 314388, Control_c, 0, 64, 45
1, 314394, Note_off_c, 0, 37, 61
1, 314429, Note_off_c, 0, 61, 64
1, 314442, Note_on_c, 0, 56, 78
1, 314453, Note_off_c, 0, 29, 62
1, 314454, Note_on_c, 0, 37, 69
1, 314509, Note_off_c, 0, 56, 63
1, 314516, Note_on_c, 0, 65, 88
1, 314518, Note_on_c, 0, 29, 70
1, 314520, Note_off_c, 0, 37, 63
1, 314521, Control_c, 0, 64, 45
1, 314577, Note_on_c, 0, 37, 73
1, 314578, Note_off_c, 0, 65, 58
1, 314586, Note_off_c, 0, 29, 61
1, 314587, Note_on_c, 0, 56, 75
1, 314647, Note_on_c, 0, 29, 61
1, 314647, Note_off_c, 0, 37, 62
1, 314649, Note_on_c, 0, 63, 84
1, 314653, Note_off_c, 0, 56, 62
1, 314684, Control_c, 0, 64, 46
1, 314693, Note_on_c, 0, 37, 63
1, 314697, Note_off_c, 0, 29, 61
1, 314706, Note_off_c, 0, 63, 63
1, 314715, Note_on_c, 0, 56, 70
1, 314770, Note_off_c, 0, 37, 62
1, 314776, Note_off_c, 0, 56, 64
1, 314778, Note_on_c, 0, 61, 84
1, 314783, Note_on_c, 0, 29, 61
1, 314787, Control_c, 0, 64, 46
1, 314817, Control_c, 0, 64, 47
1, 314820, Note_on_c, 0, 37, 64
1, 314826, Note_off_c, 0, 29, 63
1, 314833, Note_off_c, 0, 61, 62
1, 314844, Note_on_c, 0, 56, 73
1, 314877, Control_c, 0, 64, 47
1, 314892, Control_c, 0, 64, 49
1, 314893, Note_off_c, 0, 37, 62
1, 314896, Note_off_c, 0, 56, 65
1, 314906, Control_c, 0, 64, 51
1, 314912, Note_on_c, 0, 29, 81
1, 314915, Note_on_c, 0, 61, 91
1, 314921, Control_c, 0, 64, 56
1, 314936, Control_c, 0, 64, 61
1, 314950, Control_c, 0, 64, 67
1, 314965, Control_c, 0, 64, 77
1, 314972, Note_on_c, 0, 37, 72
1, 314980, Control_c, 0, 64, 99
1, 314987, Note_on_c, 0, 56, 86
1, 314995, Control_c, 0, 64, 127
1, 315012, Note_off_c, 0, 29, 60
1, 315039, Control_c, 0, 64, 110
1, 315047, Note_off_c, 0, 56, 65
1, 315052, Note_off_c, 0, 37, 61
1, 315054, Note_on_c, 0, 53, 78
1, 315054, Control_c, 0, 64, 86
1, 315055, Note_off_c, 0, 61, 54
1, 315057, Note_on_c, 0, 41, 67
1, 315077, Control_c, 0, 64, 73
1, 315091, Control_c, 0, 64, 67
1, 315106, Control_c, 0, 64, 64
1, 315120, Note_on_c, 0, 56, 73
1, 315121, Control_c, 0, 64, 63
1, 315133, Note_on_c, 0, 37, 66
1, 315136, Control_c, 0, 64, 62
1, 315142, Note_off_c, 0, 41, 62
1, 315146, Note_off_c, 0, 53, 61
1, 315150, Control_c, 0, 64, 61
1, 315165, Control_c, 0, 64, 60
1, 315181, Control_c, 0, 64, 59
1, 315186, Note_on_c, 0, 61, 81
1, 315186, Note_off_c, 0, 56, 66
1, 315196, Control_c, 0, 64, 57
1, 315198, Note_on_c, 0, 29, 72
1, 315208, Note_off_c, 0, 37, 62
1, 315211, Control_c, 0, 64, 55
1, 315226, Control_c, 0, 64, 54
1, 315241, Control_c, 0, 64, 53
1, 315252, Note_off_c, 0, 61, 63
1, 315255, Control_c, 0, 64, 52
1, 315267, Note_on_c, 0, 56, 84
1, 315269, Note_on_c, 0, 37, 68
1, 315276, Note_off_c, 0, 29, 61
1, 315327, Note_off_c, 0, 56, 63
1, 315333, Note_on_c, 0, 29, 66
1, 315336, Note_on_c, 0, 65, 91
1, 315337, Note_off_c, 0, 37, 62
1, 315373, Control_c, 0, 64, 53
1, 315388, Control_c, 0, 64, 54
1, 315393, Note_on_c, 0, 37, 70
1, 315401, Note_on_c, 0, 56, 81
1, 315403, Control_c, 0, 64, 55
1, 315406, Note_off_c, 0, 29, 61
1, 315410, Note_off_c, 0, 65, 59
1, 315418, Control_c, 0, 64, 56
1, 315433, Control_c, 0, 64, 56
1, 315447, Control_c, 0, 64, 58
1, 315453, Note_off_c, 0, 37, 63
1, 315462, Note_on_c, 0, 63, 84
1, 315462, Control_c, 0, 64, 60
1, 315467, Note_on_c, 0, 29, 60
1, 315470, Note_off_c, 0, 56, 62
1, 315477, Control_c, 0, 64, 62
1, 315492, Control_c, 0, 64, 63
1, 315507, Control_c, 0, 64, 65
1, 315515, Note_off_c, 0, 29, 62
1, 315518, Note_on_c, 0, 37, 66
1, 315518, Note_off_c, 0, 63, 63
1, 315521, Control_c, 0, 64, 66
1, 315531, Note_on_c, 0, 56, 82
1, 315536, Control_c, 0, 64, 69
1, 315551, Control_c, 0, 64, 75
1, 315566, Note_off_c, 0, 37, 61
1, 315566, Control_c, 0, 64, 84
1, 315580, Control_c, 0, 64, 98
1, 315588, Note_off_c, 0, 56, 61
1, 315589, Note_on_c, 0, 61, 89
1, 315593, Note_on_c, 0, 29, 67
1, 315595, Control_c, 0, 64, 127
1, 315623, Note_on_c, 0, 37, 73
1, 315643, Note_off_c, 0, 29, 61
1, 315643, Note_off_c, 0, 61, 61
1, 315656, Note_on_c, 0, 56, 79
1, 315694, Note_off_c, 0, 37, 61
1, 315707, Note_off_c, 0, 56, 63
1, 315753, Note_on_c, 0, 42, 105
1, 315756, Note_on_c, 0, 30, 101
1, 315758, Note_on_c, 0, 70, 94
1, 315788, Control_c, 0, 64, 109
1, 315801, Note_on_c, 0, 32, 27
1, 315803, Control_c, 0, 64, 73
1, 315825, Control_c, 0, 64, 55
1, 315832, Note_on_c, 0, 73, 79
1, 315840, Control_c, 0, 64, 31
1, 315843, Note_off_c, 0, 70, 61
1, 315853, Note_off_c, 0, 32, 49
1, 315855, Control_c, 0, 64, 28
1, 315869, Control_c, 0, 64, 19
1, 315884, Control_c, 0, 64, 12
1, 315899, Control_c, 0, 64, 11
1, 315911, Note_on_c, 0, 70, 78
1, 315916, Note_off_c, 0, 73, 64
1, 315929, Control_c, 0, 64, 12
1, 315944, Control_c, 0, 64, 13
1, 315959, Control_c, 0, 64, 16
1, 315974, Control_c, 0, 64, 17
1, 315979, Note_on_c, 0, 73, 78
1, 315985, Note_off_c, 0, 70, 62
1, 315989, Control_c, 0, 64, 18
1, 316004, Control_c, 0, 64, 20
1, 316019, Control_c, 0, 64, 24
1, 316033, Control_c, 0, 64, 27
1, 316048, Note_on_c, 0, 70, 79
1, 316048, Control_c, 0, 64, 28
1, 316052, Note_off_c, 0, 73, 63
1, 316063, Control_c, 0, 64, 29
1, 316078, Control_c, 0, 64, 30
1, 316093, Control_c, 0, 64, 30
1, 316108, Control_c, 0, 64, 32
1, 316112, Note_on_c, 0, 73, 74
1, 316116, Note_off_c, 0, 70, 63
1, 316123, Control_c, 0, 64, 34
1, 316138, Control_c, 0, 64, 35
1, 316152, Control_c, 0, 64, 36
1, 316167, Control_c, 0, 64, 36
1, 316176, Note_on_c, 0, 70, 80
1, 316177, Note_off_c, 0, 73, 64
1, 316182, Control_c, 0, 64, 37
1, 316211, Control_c, 0, 64, 37
1, 316241, Note_on_c, 0, 73, 76
1, 316241, Control_c, 0, 64, 38
1, 316245, Note_off_c, 0, 70, 63
1, 316270, Control_c, 0, 64, 38
1, 316285, Control_c, 0, 64, 39
1, 316300, Control_c, 0, 64, 39
1, 316308, Note_on_c, 0, 70, 78
1, 316314, Note_off_c, 0, 73, 64
1, 316359, Control_c, 0, 64, 40
1, 316370, Note_on_c, 0, 73, 72
1, 316370, Note_off_c, 0, 70, 63
1, 316389, Control_c, 0, 64, 40
1, 316403, Control_c, 0, 64, 41
1, 316438, Note_on_c, 0, 70, 80
1, 316440, Note_off_c, 0, 73, 63
1, 316448, Control_c, 0, 64, 41
1, 316501, Note_on_c, 0, 73, 76
1, 316507, Note_off_c, 0, 70, 63
1, 316563, Note_on_c, 0, 70, 79
1, 316579, Note_off_c, 0, 73, 63
1, 316589, Control_c, 0, 64, 42
1, 316603, Control_c, 0, 64, 42
1, 316618, Control_c, 0, 64, 43
1, 316628, Note_on_c, 0, 73, 77
1, 316636, Note_off_c, 0, 70, 64
1, 316648, Control_c, 0, 64, 43
1, 316677, Control_c, 0, 64, 44
1, 316694, Note_on_c, 0, 70, 77
1, 316701, Note_off_c, 0, 73, 64
1, 316707, Control_c, 0, 64, 45
1, 316722, Control_c, 0, 64, 45
1, 316752, Note_on_c, 0, 73, 78
1, 316752, Control_c, 0, 64, 46
1, 316755, Note_off_c, 0, 70, 64
1, 316767, Control_c, 0, 64, 46
1, 316782, Control_c, 0, 64, 47
1, 316797, Control_c, 0, 64, 47
1, 316820, Note_on_c, 0, 70, 79
1, 316825, Note_off_c, 0, 73, 65
1, 316826, Control_c, 0, 64, 48
1, 316856, Note_off_c, 0, 30, 59
1, 316859, Note_off_c, 0, 42, 61
1, 316881, Note_off_c, 0, 70, 64
1, 316882, Note_on_c, 0, 73, 72
1, 316931, Control_c, 0, 64, 48
1, 316937, Note_on_c, 0, 43, 95
1, 316937, Note_on_c, 0, 70, 88
1, 316942, Note_on_c, 0, 31, 86
1, 316946, Control_c, 0, 64, 49
1, 316949, Note_off_c, 0, 73, 64
1, 316961, Control_c, 0, 64, 49
1, 316982, Note_off_c, 0, 43, 63
1, 316987, Note_off_c, 0, 31, 62
1, 316999, Note_on_c, 0, 73, 82
1, 317005, Note_off_c, 0, 70, 65
1, 317049, Control_c, 0, 64, 49
1, 317071, Note_on_c, 0, 67, 83
1, 317076, Note_on_c, 0, 34, 85
1, 317077, Note_off_c, 0, 73, 64
1, 317129, Note_on_c, 0, 70, 81
1, 317129, Note_off_c, 0, 34, 63
1, 317134, Note_off_c, 0, 67, 64
1, 317187, Note_off_c, 0, 70, 63
1, 317196, Note_on_c, 0, 64, 75
1, 317209, Note_on_c, 0, 37, 87
1, 317223, Note_off_c, 0, 64, 66
1, 317263, Note_on_c, 0, 67, 87
1, 317263, Note_off_c, 0, 37, 63
1, 317332, Note_off_c, 0, 67, 62
1, 317336, Note_on_c, 0, 61, 78
1, 317351, Note_on_c, 0, 40, 94
1, 317393, Note_off_c, 0, 40, 64
1, 317424, Note_on_c, 0, 64, 71
1, 317424, Note_off_c, 0, 61, 61
1, 317452, Note_on_c, 0, 62, 38
1, 317466, Note_on_c, 0, 58, 66
1, 317472, Note_on_c, 0, 43, 95
1, 317487, Note_off_c, 0, 62, 32
1, 317492, Note_off_c, 0, 64, 63
1, 317520, Note_off_c, 0, 43, 65
1, 317542, Note_on_c, 0, 61, 59
1, 317558, Note_off_c, 0, 58, 63
1, 317581, Note_on_c, 0, 55, 73
1, 317583, Note_off_c, 0, 61, 64
1, 317610, Note_on_c, 0, 46, 93
1, 317631, Note_off_c, 0, 55, 62
1, 317652, Note_on_c, 0, 58, 82
1, 317661, Note_off_c, 0, 46, 63
1, 317716, Note_off_c, 0, 58, 58
1, 317728, Note_on_c, 0, 53, 80
1, 317744, Note_on_c, 0, 49, 93
1, 317788, Note_off_c, 0, 49, 66
1, 317798, Note_on_c, 0, 55, 78
1, 317798, Note_off_c, 0, 53, 62
1, 317858, Note_on_c, 0, 58, 79
1, 317866, Note_off_c, 0, 55, 65
1, 317879, Note_on_c, 0, 49, 88
1, 317920, Note_off_c, 0, 58, 67
1, 317927, Note_off_c, 0, 49, 66
1, 317930, Note_on_c, 0, 55, 80
1, 317995, Note_on_c, 0, 53, 88
1, 318000, Note_off_c, 0, 55, 64
1, 318007, Note_on_c, 0, 49, 96
1, 318020, Control_c, 0, 64, 48
1, 318049, Note_off_c, 0, 49, 65
1, 318076, Note_on_c, 0, 55, 86
1, 318086, Note_off_c, 0, 53, 63
1, 318087, Control_c, 0, 64, 48
1, 318129, Note_off_c, 0, 55, 65
1, 318143, Note_on_c, 0, 49, 98
1, 318190, Control_c, 0, 64, 47
1, 318220, Control_c, 0, 64, 47
1, 318225, Note_on_c, 0, 53, 80
1, 318294, Control_c, 0, 64, 48
1, 318296, Note_off_c, 0, 53, 57
1, 318300, Note_on_c, 0, 58, 76
1, 318309, Control_c, 0, 64, 51
1, 318323, Control_c, 0, 64, 57
1, 318338, Control_c, 0, 64, 61
1, 318353, Control_c, 0, 64, 63
1, 318365, Note_on_c, 0, 55, 71
1, 318367, Note_off_c, 0, 58, 63
1, 318368, Control_c, 0, 64, 65
1, 318384, Control_c, 0, 64, 68
1, 318398, Control_c, 0, 64, 71
1, 318413, Control_c, 0, 64, 74
1, 318418, Note_off_c, 0, 55, 63
1, 318428, Control_c, 0, 64, 77
1, 318430, Note_on_c, 0, 53, 76
1, 318443, Control_c, 0, 64, 79
1, 318458, Control_c, 0, 64, 80
1, 318487, Control_c, 0, 64, 80
1, 318497, Note_on_c, 0, 58, 67
1, 318502, Control_c, 0, 64, 76
1, 318506, Note_off_c, 0, 53, 62
1, 318517, Control_c, 0, 64, 68
1, 318526, Note_on_c, 0, 48, 72
1, 318532, Control_c, 0, 64, 57
1, 318535, Note_off_c, 0, 58, 61
1, 318546, Control_c, 0, 64, 43
1, 318561, Control_c, 0, 64, 43
1, 318565, Note_off_c, 0, 49, 58
1, 318591, Control_c, 0, 64, 46
1, 318606, Control_c, 0, 64, 57
1, 318619, Control_c, 0, 64, 64
1, 318620, Note_on_c, 0, 52, 71
1, 318634, Control_c, 0, 64, 72
1, 318649, Control_c, 0, 64, 84
1, 318663, Control_c, 0, 64, 108
1, 318673, Note_on_c, 0, 58, 70
1, 318678, Note_off_c, 0, 52, 66
1, 318678, Control_c, 0, 64, 127
1, 318686, Note_off_c, 0, 48, 62
1, 318749, Note_on_c, 0, 55, 70
1, 318749, Note_off_c, 0, 58, 62
1, 318784, Note_on_c, 0, 52, 69
1, 318786, Note_off_c, 0, 55, 60
1, 318855, Note_on_c, 0, 58, 72
1, 318862, Note_off_c, 0, 52, 66
1, 318877, Note_off_c, 0, 58, 69
1, 318944, Note_on_c, 0, 41, 79
1, 318952, Control_c, 0, 64, 77
1, 318955, Note_on_c, 0, 65, 87
1, 318967, Control_c, 0, 64, 62
1, 318982, Control_c, 0, 64, 49
1, 318996, Control_c, 0, 64, 47
1, 319011, Control_c, 0, 64, 43
1, 319016, Note_on_c, 0, 48, 67
1, 319026, Control_c, 0, 64, 38
1, 319029, Note_on_c, 0, 60, 73
1, 319041, Control_c, 0, 64, 36
1, 319056, Note_off_c, 0, 41, 59
1, 319080, Note_off_c, 0, 65, 55
1, 319098, Note_on_c, 0, 56, 71
1, 319098, Note_off_c, 0, 60, 64
1, 319101, Note_off_c, 0, 48, 63
1, 319105, Note_on_c, 0, 53, 63
1, 319116, Control_c, 0, 64, 37
1, 319131, Control_c, 0, 64, 37
1, 319145, Control_c, 0, 64, 38
1, 319160, Control_c, 0, 64, 39
1, 319171, Note_on_c, 0, 60, 68
1, 319175, Control_c, 0, 64, 40
1, 319178, Note_off_c, 0, 56, 64
1, 319190, Control_c, 0, 64, 40
1, 319194, Note_off_c, 0, 53, 62
1, 319200, Note_on_c, 0, 48, 61
1, 319205, Control_c, 0, 64, 41
1, 319220, Control_c, 0, 64, 41
1, 319230, Note_on_c, 0, 65, 74
1, 319235, Note_off_c, 0, 60, 65
1, 319244, Note_on_c, 0, 41, 65
1, 319274, Note_off_c, 0, 48, 63
1, 319295, Note_off_c, 0, 65, 62
1, 319315, Note_on_c, 0, 60, 75
1, 319315, Note_off_c, 0, 41, 62
1, 319323, Note_on_c, 0, 48, 60
1, 319372, Note_on_c, 0, 68, 84
1, 319372, Note_off_c, 0, 60, 64
1, 319374, Note_off_c, 0, 48, 62
1, 319384, Control_c, 0, 64, 42
1, 319393, Note_on_c, 0, 41, 68
1, 319413, Control_c, 0, 64, 42
1, 319429, Note_off_c, 0, 68, 63
1, 319436, Note_off_c, 0, 41, 64
1, 319442, Note_on_c, 0, 60, 72
1, 319443, Control_c, 0, 64, 43
1, 319453, Note_on_c, 0, 48, 60
1, 319458, Control_c, 0, 64, 43
1, 319497, Note_off_c, 0, 48, 63
1, 319505, Note_off_c, 0, 60, 63
1, 319510, Note_on_c, 0, 67, 78
1, 319515, Note_on_c, 0, 41, 66
1, 319551, Note_off_c, 0, 41, 64
1, 319555, Note_off_c, 0, 67, 62
1, 319569, Control_c, 0, 64, 44
1, 319577, Note_on_c, 0, 48, 63
1, 319578, Note_on_c, 0, 60, 63
1, 319622, Note_off_c, 0, 48, 62
1, 319628, Control_c, 0, 64, 44
1, 319634, Note_on_c, 0, 41, 67
1, 319638, Note_off_c, 0, 60, 63
1, 319639, Note_on_c, 0, 65, 81
1, 319688, Note_off_c, 0, 41, 62
1, 319692, Note_off_c, 0, 65, 62
1, 319706, Note_on_c, 0, 60, 63
1, 319712, Note_on_c, 0, 48, 51
1, 319732, Control_c, 0, 64, 45
1, 319746, Note_off_c, 0, 48, 63
1, 319747, Control_c, 0, 64, 50
1, 319760, Note_on_c, 0, 41, 79
1, 319762, Control_c, 0, 64, 57
1, 319764, Note_on_c, 0, 65, 88
1, 319772, Note_off_c, 0, 60, 39
1, 319776, Control_c, 0, 64, 61
1, 319791, Control_c, 0, 64, 62
1, 319835, Note_on_c, 0, 48, 75
1, 319839, Note_on_c, 0, 60, 75
1, 319850, Control_c, 0, 64, 61
1, 319865, Control_c, 0, 64, 60
1, 319876, Note_off_c, 0, 41, 60
1, 319876, Note_off_c, 0, 65, 59
1, 319880, Control_c, 0, 64, 59
1, 319894, Control_c, 0, 64, 58
1, 319909, Control_c, 0, 64, 57
1, 319912, Note_off_c, 0, 48, 64
1, 319913, Note_off_c, 0, 60, 66
1, 319915, Note_on_c, 0, 56, 77
1, 319920, Note_on_c, 0, 53, 68
1, 319924, Control_c, 0, 64, 56
1, 319970, Control_c, 0, 64, 56
1, 319983, Note_off_c, 0, 56, 65
1, 319985, Note_on_c, 0, 60, 73
1, 319985, Control_c, 0, 64, 55
1, 319995, Note_off_c, 0, 53, 63
1, 319999, Control_c, 0, 64, 54
1, 320001, Note_on_c, 0, 48, 69
1, 320014, Control_c, 0, 64, 52
1, 320029, Control_c, 0, 64, 51
1, 320043, Control_c, 0, 64, 51
1, 320049, Note_on_c, 0, 65, 82
1, 320050, Note_on_c, 0, 41, 71
1, 320050, Note_off_c, 0, 60, 65
1, 320067, Note_off_c, 0, 48, 63
1, 320073, Control_c, 0, 64, 50
1, 320088, Control_c, 0, 64, 50
1, 320105, Note_off_c, 0, 65, 64
1, 320111, Note_off_c, 0, 41, 62
1, 320117, Control_c, 0, 64, 49
1, 320120, Note_on_c, 0, 48, 65
1, 320126, Note_on_c, 0, 60, 82
1, 320177, Note_off_c, 0, 48, 64
1, 320182, Note_on_c, 0, 68, 89
1, 320188, Note_on_c, 0, 41, 74
1, 320188, Note_off_c, 0, 60, 63
1, 320192, Control_c, 0, 64, 49
1, 320232, Note_off_c, 0, 41, 64
1, 320240, Note_on_c, 0, 48, 67
1, 320242, Note_off_c, 0, 68, 60
1, 320248, Note_on_c, 0, 60, 77
1, 320299, Note_off_c, 0, 48, 64
1, 320320, Note_on_c, 0, 41, 76
1, 320326, Note_on_c, 0, 67, 84
1, 320332, Note_off_c, 0, 60, 64
1, 320365, Note_off_c, 0, 41, 63
1, 320369, Note_on_c, 0, 48, 66
1, 320379, Note_off_c, 0, 67, 64
1, 320396, Note_on_c, 0, 60, 59
1, 320428, Note_off_c, 0, 48, 64
1, 320449, Note_on_c, 0, 65, 80
1, 320451, Note_on_c, 0, 41, 79
1, 320453, Note_off_c, 0, 60, 66
1, 320502, Note_on_c, 0, 48, 70
1, 320504, Note_on_c, 0, 60, 65
1, 320508, Note_off_c, 0, 65, 66
1, 320514, Note_off_c, 0, 41, 63
1, 320551, Note_off_c, 0, 60, 63
1, 320555, Control_c, 0, 64, 49
1, 320570, Control_c, 0, 64, 50
1, 320581, Note_off_c, 0, 48, 61
1, 320585, Control_c, 0, 64, 50
1, 320589, Note_on_c, 0, 73, 89
1, 320600, Note_on_c, 0, 41, 58
1, 320615, Control_c, 0, 64, 51
1, 320648, Note_on_c, 0, 49, 70
1, 320672, Note_on_c, 0, 68, 76
1, 320694, Note_off_c, 0, 41, 63
1, 320704, Control_c, 0, 64, 51
1, 320728, Note_off_c, 0, 49, 64
1, 320731, Note_on_c, 0, 53, 75
1, 320738, Note_off_c, 0, 68, 63
1, 320746, Note_off_c, 0, 73, 62
1, 320746, Note_on_c, 0, 65, 60
1, 320764, Control_c, 0, 64, 52
1, 320800, Note_on_c, 0, 68, 69
1, 320803, Note_on_c, 0, 49, 69
1, 320809, Note_off_c, 0, 53, 64
1, 320829, Note_off_c, 0, 65, 63
1, 320865, Note_on_c, 0, 73, 82
1, 320867, Note_on_c, 0, 41, 72
1, 320870, Note_off_c, 0, 49, 64
1, 320873, Note_off_c, 0, 68, 64
1, 320923, Note_off_c, 0, 73, 65
1, 320928, Note_on_c, 0, 49, 66
1, 320931, Note_on_c, 0, 68, 85
1, 320933, Note_off_c, 0, 41, 63
1, 320991, Note_off_c, 0, 49, 64
1, 320992, Note_on_c, 0, 41, 70
1, 321005, Note_off_c, 0, 68, 56
1, 321006, Note_on_c, 0, 77, 94
1, 321045, Note_on_c, 0, 49, 69
1, 321058, Note_off_c, 0, 41, 65
1, 321071, Note_off_c, 0, 77, 62
1, 321080, Note_on_c, 0, 68, 73
1, 321125, Note_on_c, 0, 41, 69
1, 321129, Note_off_c, 0, 49, 64
1, 321143, Note_on_c, 0, 75, 88
1, 321150, Note_off_c, 0, 68, 61
1, 321169, Poly_aftertouch_c, 0, 49, 0
1, 321178, Note_on_c, 0, 49, 63
1, 321187, Note_off_c, 0, 41, 64
1, 321199, Note_off_c, 0, 75, 63
1, 321216, Note_on_c, 0, 68, 78
1, 321249, Note_off_c, 0, 49, 63
1, 321254, Note_on_c, 0, 41, 71
1, 321271, Note_on_c, 0, 73, 87
1, 321274, Note_off_c, 0, 68, 62
1, 321305, Note_on_c, 0, 49, 64
1, 321325, Note_off_c, 0, 41, 63
1, 321332, Note_off_c, 0, 73, 64
1, 321340, Note_on_c, 0, 68, 82
1, 321389, Note_off_c, 0, 49, 63
1, 321390, Note_off_c, 0, 68, 61
1, 321396, Note_on_c, 0, 41, 79
1, 321408, Note_on_c, 0, 73, 97
1, 321464, Note_on_c, 0, 49, 72
1, 321485, Note_on_c, 0, 68, 81
1, 321489, Note_off_c, 0, 41, 62
1, 321512, Control_c, 0, 64, 52
1, 321527, Control_c, 0, 64, 53
1, 321542, Note_on_c, 0, 65, 82
1, 321545, Note_off_c, 0, 68, 63
1, 321546, Note_on_c, 0, 53, 75
1, 321547, Note_off_c, 0, 49, 64
1, 321565, Note_off_c, 0, 73, 57
1, 321572, Control_c, 0, 64, 53
1, 321587, Control_c, 0, 64, 54
1, 321599, Note_on_c, 0, 68, 70
1, 321602, Control_c, 0, 64, 56
1, 321610, Note_on_c, 0, 49, 59
1, 321616, Control_c, 0, 64, 57
1, 321623, Note_off_c, 0, 65, 63
1, 321626, Note_off_c, 0, 53, 62
1, 321631, Control_c, 0, 64, 57
1, 321663, Note_on_c, 0, 41, 78
1, 321663, Note_on_c, 0, 73, 84
1, 321667, Note_off_c, 0, 68, 66
1, 321677, Note_off_c, 0, 49, 65
1, 321690, Control_c, 0, 64, 57
1, 321705, Control_c, 0, 64, 56
1, 321713, Note_off_c, 0, 73, 66
1, 321720, Control_c, 0, 64, 55
1, 321735, Note_off_c, 0, 41, 60
1, 321735, Control_c, 0, 64, 55
1, 321739, Note_on_c, 0, 49, 69
1, 321742, Note_on_c, 0, 68, 82
1, 321750, Control_c, 0, 64, 54
1, 321764, Control_c, 0, 64, 52
1, 321779, Control_c, 0, 64, 51
1, 321788, Note_on_c, 0, 41, 65
1, 321794, Control_c, 0, 64, 49
1, 321796, Note_off_c, 0, 49, 64
1, 321801, Note_off_c, 0, 68, 60
1, 321807, Note_on_c, 0, 77, 96
1, 321846, Control_c, 0, 64, 50
1, 321855, Note_on_c, 0, 49, 72
1, 321861, Control_c, 0, 64, 52
1, 321876, Control_c, 0, 64, 57
1, 321878, Note_off_c, 0, 77, 62
1, 321879, Note_on_c, 0, 68, 82
1, 321879, Note_off_c, 0, 41, 59
1, 321890, Control_c, 0, 64, 62
1, 321905, Control_c, 0, 64, 66
1, 321919, Note_off_c, 0, 49, 63
1, 321920, Control_c, 0, 64, 73
1, 321935, Control_c, 0, 64, 88
1, 321936, Note_on_c, 0, 75, 92
1, 321949, Note_on_c, 0, 41, 67
1, 321950, Note_off_c, 0, 68, 63
1, 321950, Control_c, 0, 64, 118
1, 321964, Control_c, 0, 64, 127
1, 321981, Note_on_c, 0, 49, 63
1, 321992, Note_off_c, 0, 75, 63
1, 321996, Note_off_c, 0, 41, 63
1, 322005, Note_on_c, 0, 68, 88
1, 322024, Note_off_c, 0, 49, 62
1, 322067, Note_on_c, 0, 73, 94
1, 322076, Note_on_c, 0, 41, 73
1, 322084, Note_off_c, 0, 68, 60
1, 322088, Note_on_c, 0, 49, 72
1, 322119, Note_off_c, 0, 73, 67
1, 322127, Note_on_c, 0, 68, 77
1, 322141, Note_off_c, 0, 41, 63
1, 322174, Note_off_c, 0, 49, 63
1, 322184, Note_off_c, 0, 68, 62
1, 322249, Note_on_c, 0, 54, 106
1, 322250, Note_on_c, 0, 42, 97
1, 322253, Note_on_c, 0, 82, 99
1, 322302, Note_on_c, 0, 80, 28
1, 322303, Note_off_c, 0, 80, 127
1, 322305, Control_c, 0, 64, 76
1, 322320, Control_c, 0, 64, 57
1, 322331, Note_on_c, 0, 85, 83
1, 322335, Control_c, 0, 64, 17
1, 322341, Note_off_c, 0, 82, 64
1, 322350, Control_c, 0, 64, 0
1, 322407, Note_on_c, 0, 82, 86
1, 322417, Note_off_c, 0, 85, 65
1, 322453, Control_c, 0, 64, 32
1, 322468, Control_c, 0, 64, 44
1, 322475, Note_on_c, 0, 85, 74
1, 322483, Control_c, 0, 64, 52
1, 322485, Note_off_c, 0, 82, 64
1, 322498, Control_c, 0, 64, 59
1, 322512, Control_c, 0, 64, 63
1, 322527, Control_c, 0, 64, 67
1, 322542, Control_c, 0, 64, 73
1, 322547, Note_on_c, 0, 82, 76
1, 322562, Note_off_c, 0, 85, 64
1, 322565, Control_c, 0, 64, 81
1, 322580, Control_c, 0, 64, 93
1, 322594, Control_c, 0, 64, 111
1, 322609, Control_c, 0, 64, 127
1, 322613, Note_on_c, 0, 85, 73
1, 322620, Note_off_c, 0, 82, 64
1, 322681, Note_on_c, 0, 82, 86
1, 322687, Note_off_c, 0, 85, 65
1, 322744, Note_on_c, 0, 85, 77
1, 322755, Note_off_c, 0, 82, 64
1, 322812, Note_on_c, 0, 82, 88
1, 322822, Note_off_c, 0, 85, 65
1, 322872, Note_on_c, 0, 85, 74
1, 322881, Note_off_c, 0, 82, 64
1, 322905, Control_c, 0, 64, 123
1, 322919, Control_c, 0, 64, 102
1, 322934, Control_c, 0, 64, 85
1, 322937, Note_on_c, 0, 82, 89
1, 322947, Note_off_c, 0, 85, 64
1, 322949, Control_c, 0, 64, 70
1, 322964, Control_c, 0, 64, 54
1, 322979, Control_c, 0, 64, 44
1, 323000, Note_on_c, 0, 85, 80
1, 323006, Note_off_c, 0, 82, 65
1, 323009, Control_c, 0, 64, 45
1, 323024, Control_c, 0, 64, 53
1, 323038, Control_c, 0, 64, 62
1, 323053, Control_c, 0, 64, 72
1, 323059, Note_on_c, 0, 82, 87
1, 323068, Control_c, 0, 64, 95
1, 323071, Note_off_c, 0, 85, 66
1, 323083, Control_c, 0, 64, 127
1, 323128, Note_on_c, 0, 85, 83
1, 323130, Note_off_c, 0, 82, 65
1, 323151, Poly_aftertouch_c, 0, 76, 127
1, 323176, Poly_aftertouch_c, 0, 76, 0
1, 323194, Note_on_c, 0, 82, 86
1, 323200, Note_off_c, 0, 85, 63
1, 323251, Note_on_c, 0, 85, 82
1, 323259, Note_off_c, 0, 82, 66
1, 323265, Note_off_c, 0, 42, 57
1, 323310, Note_off_c, 0, 54, 59
1, 323313, Poly_aftertouch_c, 0, 44, 0
1, 323331, Note_on_c, 0, 82, 93
1, 323340, Note_off_c, 0, 85, 64
1, 323387, Note_on_c, 0, 85, 73
1, 323396, Note_off_c, 0, 82, 65
1, 323438, Note_on_c, 0, 55, 100
1, 323441, Note_on_c, 0, 43, 91
1, 323445, Note_on_c, 0, 82, 97
1, 323459, Note_off_c, 0, 85, 66
1, 323475, Note_off_c, 0, 55, 68
1, 323477, Control_c, 0, 64, 85
1, 323477, Note_on_c, 0, 76, 44
1, 323482, Note_off_c, 0, 43, 61
1, 323492, Control_c, 0, 64, 59
1, 323504, Note_off_c, 0, 76, 55
1, 323507, Control_c, 0, 64, 0
1, 323507, Note_on_c, 0, 85, 74
1, 323516, Note_off_c, 0, 82, 65
1, 323572, Note_on_c, 0, 82, 86
1, 323581, Note_off_c, 0, 85, 65
1, 323582, Note_on_c, 0, 58, 89
1, 323584, Note_on_c, 0, 46, 83
1, 323610, Note_off_c, 0, 46, 68
1, 323610, Note_off_c, 0, 58, 67
1, 323632, Note_on_c, 0, 85, 79
1, 323638, Note_off_c, 0, 82, 66
1, 323705, Note_on_c, 0, 49, 88
1, 323706, Note_on_c, 0, 61, 91
1, 323707, Note_off_c, 0, 85, 59
1, 323711, Note_on_c, 0, 82, 73
1, 323729, Note_on_c, 0, 83, 61
1, 323739, Note_off_c, 0, 61, 61
1, 323750, Note_on_c, 0, 77, 19
1, 323751, Note_on_c, 0, 85, 73
1, 323752, Note_off_c, 0, 49, 60
1, 323754, Note_off_c, 0, 83, 58
1, 323754, Note_off_c, 0, 82, 67
1, 323774, Note_off_c, 0, 77, 39
1, 323792, Note_on_c, 0, 86, 36
1, 323814, Note_off_c, 0, 86, 38
1, 323825, Note_on_c, 0, 82, 91
1, 323832, Control_c, 0, 64, 9
1, 323835, Note_off_c, 0, 85, 63
1, 323837, Note_on_c, 0, 64, 96
1, 323840, Note_on_c, 0, 52, 84
1, 323847, Control_c, 0, 64, 12
1, 323861, Control_c, 0, 64, 13
1, 323873, Note_off_c, 0, 52, 64
1, 323875, Note_off_c, 0, 64, 66
1, 323892, Note_on_c, 0, 85, 79
1, 323900, Note_off_c, 0, 82, 65
1, 323906, Control_c, 0, 64, 15
1, 323966, Note_on_c, 0, 65, 93
1, 323971, Note_on_c, 0, 79, 85
1, 323972, Note_on_c, 0, 53, 81
1, 323981, Control_c, 0, 64, 16
1, 323984, Note_off_c, 0, 85, 64
1, 323997, Note_on_c, 0, 55, 62
1, 323998, Note_off_c, 0, 55, 127
1, 323998, Note_off_c, 0, 53, 68
1, 324000, Note_on_c, 0, 67, 51
1, 324001, Note_off_c, 0, 67, 127
1, 324003, Note_off_c, 0, 65, 65
1, 324042, Note_on_c, 0, 82, 85
1, 324061, Note_off_c, 0, 79, 65
1, 324078, Control_c, 0, 64, 17
1, 324098, Note_on_c, 0, 70, 96
1, 324103, Note_on_c, 0, 58, 93
1, 324114, Note_on_c, 0, 77, 87
1, 324115, Note_off_c, 0, 82, 65
1, 324127, Note_off_c, 0, 58, 67
1, 324130, Note_off_c, 0, 70, 65
1, 324174, Note_on_c, 0, 79, 86
1, 324180, Note_off_c, 0, 77, 61
1, 324231, Note_on_c, 0, 73, 97
1, 324236, Note_off_c, 0, 79, 64
1, 324240, Note_on_c, 0, 61, 79
1, 324251, Note_on_c, 0, 77, 92
1, 324264, Note_off_c, 0, 61, 69
1, 324270, Note_off_c, 0, 73, 65
1, 324270, Control_c, 0, 64, 17
1, 324310, Note_on_c, 0, 79, 84
1, 324318, Note_off_c, 0, 77, 61
1, 324362, Note_on_c, 0, 73, 99
1, 324365, Note_on_c, 0, 82, 85
1, 324366, Note_on_c, 0, 61, 83
1, 324371, Note_off_c, 0, 79, 67
1, 324395, Note_off_c, 0, 61, 66
1, 324401, Note_off_c, 0, 73, 63
1, 324434, Note_off_c, 0, 82, 68
1, 324441, Note_on_c, 0, 79, 78
1, 324491, Note_on_c, 0, 73, 102
1, 324492, Note_on_c, 0, 61, 88
1, 324497, Note_on_c, 0, 77, 94
1, 324501, Note_off_c, 0, 79, 65
1, 324522, Control_c, 0, 64, 18
1, 324527, Note_off_c, 0, 73, 64
1, 324535, Note_off_c, 0, 61, 59
1, 324537, Control_c, 0, 64, 19
1, 324568, Note_on_c, 0, 79, 84
1, 324581, Note_off_c, 0, 77, 59
1, 324610, Control_c, 0, 64, 20
1, 324621, Note_off_c, 0, 79, 65
1, 324625, Control_c, 0, 64, 27
1, 324628, Note_on_c, 0, 73, 103
1, 324631, Note_on_c, 0, 61, 97
1, 324640, Control_c, 0, 64, 37
1, 324655, Control_c, 0, 64, 48
1, 324670, Control_c, 0, 64, 59
1, 324684, Control_c, 0, 64, 65
1, 324699, Control_c, 0, 64, 73
1, 324710, Note_on_c, 0, 77, 86
1, 324714, Control_c, 0, 64, 92
1, 324729, Control_c, 0, 64, 127
1, 324777, Note_on_c, 0, 82, 81
1, 324796, Note_off_c, 0, 77, 59
1, 324859, Note_off_c, 0, 82, 59
1, 324860, Note_on_c, 0, 79, 73
1, 324920, Note_off_c, 0, 79, 65
1, 324928, Note_on_c, 0, 77, 80
1, 324983, Note_on_c, 0, 82, 72
1, 325001, Note_off_c, 0, 73, 60
1, 325006, Note_off_c, 0, 77, 62
1, 325029, Note_off_c, 0, 82, 62
1, 325048, Control_c, 0, 64, 121
1, 325061, Note_on_c, 0, 72, 86
1, 325063, Control_c, 0, 64, 76
1, 325065, Note_on_c, 0, 60, 73
1, 325078, Control_c, 0, 64, 60
1, 325093, Control_c, 0, 64, 50
1, 325107, Control_c, 0, 64, 53
1, 325122, Control_c, 0, 64, 58
1, 325131, Note_on_c, 0, 76, 77
1, 325137, Control_c, 0, 64, 64
1, 325152, Control_c, 0, 64, 73
1, 325167, Control_c, 0, 64, 98
1, 325178, Note_off_c, 0, 72, 64
1, 325182, Control_c, 0, 64, 127
1, 325183, Note_off_c, 0, 60, 62
1, 325187, Note_on_c, 0, 82, 80
1, 325199, Note_off_c, 0, 76, 64
1, 325203, Note_off_c, 0, 61, 36
1, 325251, Note_on_c, 0, 79, 81
1, 325280, Note_off_c, 0, 82, 64
1, 325307, Note_on_c, 0, 76, 80
1, 325318, Note_off_c, 0, 79, 62
1, 325367, Note_on_c, 0, 82, 83
1, 325381, Note_off_c, 0, 76, 65
1, 325426, Note_off_c, 0, 82, 64
1, 325436, Note_on_c, 0, 65, 100
1, 325478, Control_c, 0, 64, 83
1, 325493, Control_c, 0, 64, 63
1, 325507, Note_on_c, 0, 73, 76
1, 325507, Control_c, 0, 64, 46
1, 325522, Control_c, 0, 64, 44
1, 325537, Control_c, 0, 64, 45
1, 325560, Control_c, 0, 64, 50
1, 325575, Control_c, 0, 64, 61
1, 325579, Note_on_c, 0, 82, 73
1, 325590, Note_off_c, 0, 73, 62
1, 325590, Control_c, 0, 64, 68
1, 325605, Control_c, 0, 64, 80
1, 325620, Control_c, 0, 64, 106
1, 325635, Control_c, 0, 64, 127
1, 325651, Note_on_c, 0, 79, 77
1, 325655, Note_off_c, 0, 82, 56
1, 325705, Note_off_c, 0, 79, 64
1, 325706, Note_on_c, 0, 73, 69
1, 325755, Note_on_c, 0, 82, 78
1, 325789, Note_off_c, 0, 73, 61
1, 325818, Note_off_c, 0, 82, 63
1, 325827, Control_c, 0, 64, 105
1, 325833, Note_on_c, 0, 64, 72
1, 325842, Control_c, 0, 64, 75
1, 325856, Control_c, 0, 64, 58
1, 325871, Control_c, 0, 64, 52
1, 325877, Note_off_c, 0, 65, 55
1, 325886, Control_c, 0, 64, 54
1, 325899, Note_on_c, 0, 72, 79
1, 325901, Control_c, 0, 64, 58
1, 325916, Control_c, 0, 64, 64
1, 325931, Control_c, 0, 64, 72
1, 325945, Control_c, 0, 64, 102
1, 325958, Note_on_c, 0, 82, 78
1, 325960, Control_c, 0, 64, 127
1, 325969, Note_off_c, 0, 64, 61
1, 325970, Note_off_c, 0, 72, 56
1, 326019, Note_on_c, 0, 79, 80
1, 326053, Note_off_c, 0, 82, 63
1, 326069, Note_on_c, 0, 72, 86
1, 326137, Note_on_c, 0, 82, 86
1, 326138, Note_off_c, 0, 72, 66
1, 326177, Note_off_c, 0, 79, 66
1, 326208, Note_off_c, 0, 82, 66
1, 326224, Note_on_c, 0, 73, 98
1, 326241, Control_c, 0, 64, 106
1, 326255, Control_c, 0, 64, 71
1, 326270, Control_c, 0, 64, 54
1, 326285, Control_c, 0, 64, 42
1, 326315, Note_on_c, 0, 77, 81
1, 326323, Control_c, 0, 64, 46
1, 326337, Control_c, 0, 64, 57
1, 326352, Control_c, 0, 64, 65
1, 326368, Control_c, 0, 64, 78
1, 326370, Note_on_c, 0, 82, 77
1, 326381, Note_off_c, 0, 77, 63
1, 326383, Control_c, 0, 64, 127
1, 326437, Note_on_c, 0, 79, 78
1, 326449, Note_off_c, 0, 82, 63
1, 326487, Note_off_c, 0, 79, 65
1, 326493, Note_on_c, 0, 77, 82
1, 326546, Note_on_c, 0, 82, 81
1, 326572, Note_off_c, 0, 77, 60
1, 326604, Note_off_c, 0, 82, 64
1, 326623, Note_off_c, 0, 73, 61
1, 326625, Note_on_c, 0, 72, 89
1, 326678, Control_c, 0, 64, 81
1, 326693, Control_c, 0, 64, 60
1, 326701, Note_on_c, 0, 76, 80
1, 326708, Control_c, 0, 64, 49
1, 326723, Control_c, 0, 64, 52
1, 326735, Note_off_c, 0, 72, 65
1, 326738, Control_c, 0, 64, 58
1, 326753, Control_c, 0, 64, 64
1, 326759, Note_on_c, 0, 82, 79
1, 326768, Control_c, 0, 64, 75
1, 326774, Note_off_c, 0, 76, 63
1, 326783, Control_c, 0, 64, 127
1, 326827, Note_on_c, 0, 79, 80
1, 326846, Note_off_c, 0, 82, 65
1, 326870, Note_on_c, 0, 76, 86
1, 326931, Note_on_c, 0, 82, 93
1, 326946, Note_off_c, 0, 76, 66
1, 326969, Note_off_c, 0, 79, 64
1, 326981, Note_on_c, 0, 81, 32
1, 326987, Note_off_c, 0, 82, 68
1, 326991, Note_on_c, 0, 71, 95
1, 327012, Note_off_c, 0, 81, 55
1, 327020, Control_c, 0, 64, 100
1, 327035, Control_c, 0, 64, 68
1, 327039, Note_on_c, 0, 72, 51
1, 327057, Note_on_c, 0, 74, 72
1, 327057, Control_c, 0, 64, 49
1, 327072, Control_c, 0, 64, 44
1, 327087, Control_c, 0, 64, 46
1, 327093, Note_off_c, 0, 72, 0
1, 327093, Note_on_c, 0, 72, 5
1, 327102, Control_c, 0, 64, 54
1, 327116, Control_c, 0, 64, 64
1, 327125, Note_on_c, 0, 77, 84
1, 327127, Note_off_c, 0, 72, 54
1, 327131, Control_c, 0, 64, 76
1, 327146, Control_c, 0, 64, 127
1, 327200, Note_on_c, 0, 80, 87
1, 327245, Note_on_c, 0, 83, 89
1, 327312, Note_on_c, 0, 86, 83
1, 327325, Note_off_c, 0, 83, 60
1, 327358, Note_on_c, 0, 89, 89
1, 327372, Note_off_c, 0, 86, 65
1, 327416, Note_on_c, 0, 86, 88
1, 327432, Note_off_c, 0, 77, 57
1, 327453, Note_off_c, 0, 89, 62
1, 327471, Note_off_c, 0, 86, 63
1, 327489, Note_on_c, 0, 83, 96
1, 327552, Note_off_c, 0, 80, 62
1, 327552, Note_off_c, 0, 83, 61
1, 327552, Note_on_c, 0, 92, 99
1, 327608, Note_on_c, 0, 91, 87
1, 327645, Note_off_c, 0, 92, 65
1, 327670, Note_on_c, 0, 89, 90
1, 327686, Note_off_c, 0, 74, 61
1, 327694, Note_off_c, 0, 91, 64
1, 327695, Control_c, 0, 64, 107
1, 327710, Control_c, 0, 64, 66
1, 327716, Note_on_c, 0, 72, 80
1, 327720, Note_on_c, 0, 88, 89
1, 327725, Control_c, 0, 64, 40
1, 327735, Note_off_c, 0, 89, 63
1, 327739, Control_c, 0, 64, 33
1, 327754, Control_c, 0, 64, 41
1, 327758, Note_off_c, 0, 71, 55
1, 327767, Note_on_c, 0, 76, 64
1, 327769, Control_c, 0, 64, 57
1, 327784, Control_c, 0, 64, 66
1, 327784, Note_on_c, 0, 91, 92
1, 327799, Control_c, 0, 64, 92
1, 327821, Note_off_c, 0, 88, 57
1, 327821, Control_c, 0, 64, 127
1, 327847, Note_on_c, 0, 89, 86
1, 327859, Note_on_c, 0, 79, 65
1, 327898, Note_off_c, 0, 91, 64
1, 327902, Note_on_c, 0, 88, 77
1, 327939, Note_off_c, 0, 89, 62
1, 327948, Note_on_c, 0, 85, 83
1, 327981, Note_off_c, 0, 88, 65
1, 328008, Note_off_c, 0, 85, 66
1, 328010, Note_on_c, 0, 84, 87
1, 328019, Note_off_c, 0, 79, 64
1, 328061, Note_off_c, 0, 84, 64
1, 328067, Note_off_c, 0, 76, 63
1, 328082, Note_on_c, 0, 82, 82
1, 328096, Note_off_c, 0, 72, 63
1, 328142, Note_on_c, 0, 85, 79
1, 328148, Note_off_c, 0, 82, 64
1, 328213, Note_on_c, 0, 84, 75
1, 328217, Note_off_c, 0, 85, 64
1, 328252, Note_on_c, 0, 82, 75
1, 328275, Note_off_c, 0, 84, 63
1, 328310, Note_off_c, 0, 82, 65
1, 328312, Note_on_c, 0, 80, 64
1, 328361, Note_off_c, 0, 80, 63
1, 328377, Note_on_c, 0, 79, 59
1, 328404, Note_off_c, 0, 79, 66
1, 328414, Control_c, 0, 64, 110
1, 328429, Control_c, 0, 64, 100
1, 328444, Control_c, 0, 64, 93
1, 328451, Note_on_c, 0, 68, 55
1, 328452, Note_on_c, 0, 65, 45
1, 328458, Control_c, 0, 64, 86
1, 328473, Control_c, 0, 64, 76
1, 328488, Control_c, 0, 64, 65
1, 328503, Control_c, 0, 64, 52
1, 328518, Control_c, 0, 64, 42
1, 328532, Control_c, 0, 64, 35
1, 328544, Note_on_c, 0, 77, 60
1, 328547, Control_c, 0, 64, 20
1, 328570, Control_c, 0, 64, 0
1, 328592, Note_off_c, 0, 77, 63
1, 328613, Note_on_c, 0, 80, 60
1, 328642, Note_off_c, 0, 80, 67
1, 328676, Note_on_c, 0, 85, 33
1, 328677, Note_off_c, 0, 85, 127
1, 328693, Note_on_c, 0, 84, 56
1, 328723, Note_off_c, 0, 84, 66
1, 328726, Note_on_c, 0, 89, 62
1, 328795, Note_off_c, 0, 89, 56
1, 328808, Note_on_c, 0, 77, 63
1, 328843, Note_off_c, 0, 77, 64
1, 328851, Note_on_c, 0, 70, 51
1, 328854, Note_on_c, 0, 73, 57
1, 328936, Note_off_c, 0, 68, 36
1, 329009, Note_off_c, 0, 65, 23
1, 329078, Note_on_c, 0, 89, 65
1, 329128, Note_off_c, 0, 89, 62
1, 329147, Note_on_c, 0, 77, 62
1, 329173, Note_off_c, 0, 73, 52
1, 329205, Note_on_c, 0, 89, 61
1, 329240, Note_off_c, 0, 77, 51
1, 329248, Note_on_c, 0, 72, 71
1, 329262, Note_on_c, 0, 68, 59
1, 329262, Note_off_c, 0, 89, 60
1, 329400, Note_off_c, 0, 70, 37
1, 329442, Note_off_c, 0, 72, 63
1, 329450, Control_c, 0, 64, 12
1, 329460, Note_on_c, 0, 89, 80
1, 329465, Control_c, 0, 64, 22
1, 329480, Control_c, 0, 64, 36
1, 329495, Control_c, 0, 64, 49
1, 329510, Control_c, 0, 64, 56
1, 329513, Note_off_c, 0, 89, 59
1, 329525, Control_c, 0, 64, 60
1, 329525, Note_on_c, 0, 77, 81
1, 329540, Control_c, 0, 64, 62
1, 329555, Control_c, 0, 64, 65
1, 329570, Control_c, 0, 64, 69
1, 329579, Note_on_c, 0, 89, 79
1, 329585, Control_c, 0, 64, 78
1, 329600, Control_c, 0, 64, 92
1, 329614, Control_c, 0, 64, 116
1, 329629, Control_c, 0, 64, 127
1, 329644, Note_on_c, 0, 72, 97
1, 329644, Control_c, 0, 64, 99
1, 329645, Note_on_c, 0, 70, 73
1, 329650, Note_on_c, 0, 67, 74
1, 329659, Control_c, 0, 64, 74
1, 329672, Note_off_c, 0, 89, 64
1, 329674, Control_c, 0, 64, 55
1, 329683, Note_off_c, 0, 77, 58
1, 329689, Control_c, 0, 64, 43
1, 329718, Control_c, 0, 64, 44
1, 329733, Control_c, 0, 64, 49
1, 329748, Control_c, 0, 64, 57
1, 329763, Control_c, 0, 64, 63
1, 329777, Control_c, 0, 64, 67
1, 329792, Control_c, 0, 64, 71
1, 329807, Control_c, 0, 64, 77
1, 329822, Control_c, 0, 64, 86
1, 329837, Control_c, 0, 64, 93
1, 329846, Note_on_c, 0, 88, 71
1, 329851, Control_c, 0, 64, 95
1, 329881, Control_c, 0, 64, 95
1, 329895, Control_c, 0, 64, 97
1, 329901, Note_off_c, 0, 88, 64
1, 329910, Control_c, 0, 64, 101
1, 329920, Note_on_c, 0, 76, 76
1, 329925, Control_c, 0, 64, 105
1, 329940, Control_c, 0, 64, 109
1, 329979, Note_on_c, 0, 88, 64
1, 329981, Note_off_c, 0, 76, 63
1, 329984, Control_c, 0, 64, 108
1, 329987, Note_off_c, 0, 68, 35
1, 329999, Control_c, 0, 64, 102
1, 330014, Control_c, 0, 64, 90
1, 330021, Note_off_c, 0, 88, 61
1, 330029, Control_c, 0, 64, 73
1, 330050, Note_off_c, 0, 72, 55
1, 330051, Control_c, 0, 64, 60
1, 330056, Note_on_c, 0, 65, 48
1, 330057, Note_on_c, 0, 68, 46
1, 330066, Control_c, 0, 64, 55
1, 330081, Control_c, 0, 64, 55
1, 330088, Note_off_c, 0, 67, 24
1, 330096, Control_c, 0, 64, 57
1, 330110, Control_c, 0, 64, 59
1, 330119, Note_on_c, 0, 77, 64
1, 330125, Control_c, 0, 64, 63
1, 330131, Note_off_c, 0, 70, 58
1, 330140, Control_c, 0, 64, 67
1, 330155, Control_c, 0, 64, 70
1, 330170, Control_c, 0, 64, 72
1, 330178, Note_on_c, 0, 80, 68
1, 330183, Note_off_c, 0, 77, 59
1, 330184, Control_c, 0, 64, 73
1, 330187, Note_off_c, 0, 65, 63
1, 330193, Note_off_c, 0, 68, 63
1, 330214, Control_c, 0, 64, 74
1, 330220, Note_off_c, 0, 80, 63
1, 330243, Control_c, 0, 64, 73
1, 330248, Note_on_c, 0, 84, 71
1, 330258, Control_c, 0, 64, 73
1, 330273, Control_c, 0, 64, 72
1, 330287, Note_on_c, 0, 89, 67
1, 330301, Note_off_c, 0, 84, 60
1, 330301, Poly_aftertouch_c, 0, 85, 0
1, 330318, Control_c, 0, 64, 72
1, 330333, Control_c, 0, 64, 71
1, 330354, Note_off_c, 0, 89, 62
1, 330360, Note_on_c, 0, 77, 69
1, 330363, Control_c, 0, 64, 71
1, 330378, Control_c, 0, 64, 70
1, 330387, Note_off_c, 0, 77, 68
1, 330393, Control_c, 0, 64, 70
1, 330407, Control_c, 0, 64, 69
1, 330422, Control_c, 0, 64, 68
1, 330423, Note_on_c, 0, 61, 67
1, 330435, Note_on_c, 0, 58, 50
1, 330437, Control_c, 0, 64, 66
1, 330452, Control_c, 0, 64, 63
1, 330467, Control_c, 0, 64, 60
1, 330482, Control_c, 0, 64, 58
1, 330497, Control_c, 0, 64, 54
1, 330512, Control_c, 0, 64, 52
1, 330526, Control_c, 0, 64, 51
1, 330541, Control_c, 0, 64, 49
1, 330638, Note_on_c, 0, 77, 66
1, 330681, Note_off_c, 0, 77, 59
1, 330701, Note_on_c, 0, 65, 63
1, 330768, Note_off_c, 0, 61, 56
1, 330772, Note_on_c, 0, 77, 66
1, 330786, Note_off_c, 0, 65, 52
1, 330816, Control_c, 0, 64, 50
1, 330827, Note_on_c, 0, 60, 68
1, 330828, Note_off_c, 0, 77, 59
1, 330837, Note_on_c, 0, 56, 59
1, 330897, Note_off_c, 0, 58, 49
1, 330905, Control_c, 0, 64, 50
1, 330920, Control_c, 0, 64, 51
1, 330964, Control_c, 0, 64, 51
1, 330979, Control_c, 0, 64, 52
1, 330983, Note_off_c, 0, 60, 63
1, 331008, Control_c, 0, 64, 53
1, 331021, Note_on_c, 0, 77, 73
1, 331023, Control_c, 0, 64, 54
1, 331038, Control_c, 0, 64, 56
1, 331052, Control_c, 0, 64, 59
1, 331062, Note_off_c, 0, 77, 58
1, 331067, Control_c, 0, 64, 62
1, 331081, Note_on_c, 0, 65, 68
1, 331082, Control_c, 0, 64, 65
1, 331097, Control_c, 0, 64, 68
1, 331112, Control_c, 0, 64, 73
1, 331126, Control_c, 0, 64, 80
1, 331131, Note_on_c, 0, 77, 78
1, 331141, Control_c, 0, 64, 90
1, 331157, Control_c, 0, 64, 100
1, 331172, Control_c, 0, 64, 103
1, 331187, Control_c, 0, 64, 93
1, 331197, Note_on_c, 0, 58, 71
1, 331197, Note_on_c, 0, 60, 89
1, 331201, Note_on_c, 0, 55, 72
1, 331202, Control_c, 0, 64, 76
1, 331217, Control_c, 0, 64, 62
1, 331221, Note_off_c, 0, 65, 60
1, 331224, Note_off_c, 0, 77, 62
1, 331231, Control_c, 0, 64, 47
1, 331239, Note_off_c, 0, 56, 59
1, 331246, Control_c, 0, 64, 46
1, 331276, Control_c, 0, 64, 49
1, 331291, Control_c, 0, 64, 57
1, 331305, Control_c, 0, 64, 64
1, 331320, Control_c, 0, 64, 69
1, 331335, Control_c, 0, 64, 76
1, 331349, Control_c, 0, 64, 83
1, 331364, Control_c, 0, 64, 86
1, 331389, Note_on_c, 0, 76, 73
1, 331394, Control_c, 0, 64, 86
1, 331409, Control_c, 0, 64, 87
1, 331424, Control_c, 0, 64, 88
1, 331439, Control_c, 0, 64, 90
1, 331441, Note_off_c, 0, 76, 57
1, 331451, Note_on_c, 0, 64, 68
1, 331454, Control_c, 0, 64, 93
1, 331469, Control_c, 0, 64, 98
1, 331483, Control_c, 0, 64, 101
1, 331498, Control_c, 0, 64, 99
1, 331509, Note_off_c, 0, 64, 61
1, 331510, Note_on_c, 0, 76, 64
1, 331513, Control_c, 0, 64, 87
1, 331528, Control_c, 0, 64, 68
1, 331543, Control_c, 0, 64, 55
1, 331553, Note_off_c, 0, 76, 61
1, 331564, Control_c, 0, 64, 50
1, 331579, Note_on_c, 0, 56, 58
1, 331579, Control_c, 0, 64, 51
1, 331594, Control_c, 0, 64, 57
1, 331597, Note_off_c, 0, 55, 32
1, 331597, Note_on_c, 0, 53, 40
1, 331609, Control_c, 0, 64, 62
1, 331624, Control_c, 0, 64, 69
1, 331638, Control_c, 0, 64, 79
1, 331653, Control_c, 0, 64, 96
1, 331668, Control_c, 0, 64, 116
1, 331674, Note_on_c, 0, 77, 67
1, 331677, Note_off_c, 0, 60, 36
1, 331683, Control_c, 0, 64, 127
1, 331730, Note_on_c, 0, 80, 64
1, 331730, Note_off_c, 0, 77, 55
1, 331731, Note_off_c, 0, 58, 27
1, 331734, Note_off_c, 0, 56, 64
1, 331743, Control_c, 0, 64, 121
1, 331746, Note_off_c, 0, 53, 53
1, 331757, Control_c, 0, 64, 115
1, 331771, Note_off_c, 0, 80, 62
1, 331772, Control_c, 0, 64, 113
1, 331791, Note_on_c, 0, 84, 65
1, 331802, Control_c, 0, 64, 112
1, 331817, Control_c, 0, 64, 110
1, 331831, Control_c, 0, 64, 106
1, 331838, Note_on_c, 0, 89, 68
1, 331838, Note_off_c, 0, 84, 62
1, 331846, Control_c, 0, 64, 102
1, 331861, Control_c, 0, 64, 97
1, 331875, Control_c, 0, 64, 92
1, 331890, Control_c, 0, 64, 86
1, 331905, Control_c, 0, 64, 78
1, 331909, Note_on_c, 0, 77, 66
1, 331920, Control_c, 0, 64, 71
1, 331934, Note_off_c, 0, 89, 57
1, 331935, Control_c, 0, 64, 65
1, 331951, Control_c, 0, 64, 62
1, 331957, Note_off_c, 0, 77, 59
1, 331964, Note_on_c, 0, 49, 56
1, 331966, Control_c, 0, 64, 60
1, 331973, Note_on_c, 0, 46, 49
1, 331980, Control_c, 0, 64, 59
1, 331995, Control_c, 0, 64, 56
1, 332010, Control_c, 0, 64, 55
1, 332025, Control_c, 0, 64, 54
1, 332040, Control_c, 0, 64, 54
1, 332166, Note_on_c, 0, 89, 69
1, 332202, Control_c, 0, 64, 53
1, 332208, Note_off_c, 0, 89, 63
1, 332230, Note_on_c, 0, 77, 69
1, 332283, Note_off_c, 0, 49, 57
1, 332303, Note_on_c, 0, 89, 68
1, 332349, Note_off_c, 0, 77, 46
1, 332351, Note_on_c, 0, 48, 63
1, 332354, Note_on_c, 0, 44, 58
1, 332382, Note_off_c, 0, 89, 62
1, 332447, Control_c, 0, 64, 53
1, 332461, Control_c, 0, 64, 52
1, 332466, Note_off_c, 0, 46, 37
1, 332506, Control_c, 0, 64, 51
1, 332514, Note_off_c, 0, 48, 63
1, 332569, Note_on_c, 0, 89, 79
1, 332611, Note_off_c, 0, 89, 61
1, 332627, Note_on_c, 0, 77, 78
1, 332654, Control_c, 0, 64, 52
1, 332669, Control_c, 0, 64, 54
1, 332675, Note_on_c, 0, 89, 78
1, 332684, Control_c, 0, 64, 57
1, 332698, Control_c, 0, 64, 61
1, 332713, Control_c, 0, 64, 64
1, 332728, Control_c, 0, 64, 69
1, 332737, Note_on_c, 0, 48, 90
1, 332740, Note_on_c, 0, 43, 72
1, 332741, Note_on_c, 0, 46, 73
1, 332744, Control_c, 0, 64, 78
1, 332759, Control_c, 0, 64, 82
1, 332761, Note_off_c, 0, 44, 59
1, 332774, Control_c, 0, 64, 74
1, 332782, Note_off_c, 0, 89, 59
1, 332789, Control_c, 0, 64, 62
1, 332803, Control_c, 0, 64, 48
1, 332818, Control_c, 0, 64, 45
1, 332833, Control_c, 0, 64, 44
1, 332847, Control_c, 0, 64, 50
1, 332862, Control_c, 0, 64, 61
1, 332876, Control_c, 0, 64, 69
1, 332891, Control_c, 0, 64, 86
1, 332906, Control_c, 0, 64, 127
1, 332916, Note_off_c, 0, 77, 62
1, 332928, Note_on_c, 0, 88, 88
1, 332938, Note_off_c, 0, 48, 62
1, 332961, Note_off_c, 0, 46, 62
1, 332974, Note_off_c, 0, 43, 62
1, 332998, Note_on_c, 0, 76, 82
1, 333009, Note_off_c, 0, 88, 64
1, 333070, Note_on_c, 0, 88, 67
1, 333078, Note_off_c, 0, 76, 61
1, 333123, Note_off_c, 0, 88, 65
1, 333180, Control_c, 0, 64, 105
1, 333181, Note_on_c, 0, 41, 65
1, 333188, Note_on_c, 0, 89, 83
1, 333195, Control_c, 0, 64, 80
1, 333195, Control_c, 0, 67, 13
1, 333209, Control_c, 0, 64, 65
1, 333209, Control_c, 0, 67, 19
1, 333224, Control_c, 0, 64, 58
1, 333224, Control_c, 0, 67, 23
1, 333239, Control_c, 0, 64, 56
1, 333239, Control_c, 0, 67, 26
1, 333253, Note_on_c, 0, 84, 81
1, 333254, Control_c, 0, 64, 55
1, 333254, Control_c, 0, 67, 29
1, 333269, Control_c, 0, 64, 52
1, 333269, Control_c, 0, 67, 33
1, 333271, Note_off_c, 0, 89, 61
1, 333284, Control_c, 0, 64, 50
1, 333284, Control_c, 0, 67, 36
1, 333299, Control_c, 0, 64, 49
1, 333299, Control_c, 0, 67, 38
1, 333316, Note_off_c, 0, 84, 64
1, 333328, Note_on_c, 0, 80, 63
1, 333388, Note_on_c, 0, 84, 73
1, 333388, Control_c, 0, 67, 37
1, 333391, Note_off_c, 0, 80, 64
1, 333402, Control_c, 0, 67, 36
1, 333444, Note_off_c, 0, 84, 64
1, 333445, Note_on_c, 0, 89, 76
1, 333476, Control_c, 0, 67, 36
1, 333491, Control_c, 0, 67, 35
1, 333506, Control_c, 0, 67, 35
1, 333510, Note_on_c, 0, 84, 75
1, 333519, Note_off_c, 0, 89, 60
1, 333564, Note_off_c, 0, 84, 63
1, 333579, Note_on_c, 0, 80, 66
1, 333596, Control_c, 0, 64, 50
1, 333625, Control_c, 0, 67, 34
1, 333636, Note_on_c, 0, 84, 71
1, 333641, Note_off_c, 0, 80, 62
1, 333685, Control_c, 0, 67, 35
1, 333693, Note_off_c, 0, 84, 63
1, 333704, Note_on_c, 0, 89, 74
1, 333714, Control_c, 0, 64, 50
1, 333743, Control_c, 0, 64, 51
1, 333758, Control_c, 0, 67, 35
1, 333767, Note_on_c, 0, 84, 67
1, 333773, Control_c, 0, 67, 36
1, 333779, Note_off_c, 0, 89, 58
1, 333796, Control_c, 0, 64, 51
1, 333796, Control_c, 0, 67, 37
1, 333811, Control_c, 0, 67, 38
1, 333818, Note_off_c, 0, 84, 64
1, 333825, Control_c, 0, 64, 52
1, 333825, Control_c, 0, 67, 38
1, 333840, Control_c, 0, 67, 39
1, 333841, Note_on_c, 0, 80, 66
1, 333855, Control_c, 0, 67, 40
1, 333870, Control_c, 0, 67, 40
1, 333885, Control_c, 0, 67, 41
1, 333895, Note_off_c, 0, 80, 61
1, 333899, Control_c, 0, 67, 41
1, 333900, Note_on_c, 0, 84, 62
1, 333914, Control_c, 0, 67, 43
1, 333929, Control_c, 0, 67, 48
1, 333939, Note_off_c, 0, 84, 65
1, 333943, Control_c, 0, 67, 60
1, 333946, Note_on_c, 0, 89, 70
1, 333951, Note_on_c, 0, 36, 39
1, 333958, Control_c, 0, 67, 67
1, 333973, Control_c, 0, 67, 74
1, 333988, Control_c, 0, 67, 82
1, 334003, Control_c, 0, 67, 89
1, 334018, Control_c, 0, 67, 95
1, 334022, Note_off_c, 0, 89, 59
1, 334023, Note_on_c, 0, 84, 65
1, 334033, Control_c, 0, 67, 100
1, 334048, Control_c, 0, 67, 104
1, 334053, Note_off_c, 0, 84, 66
1, 334063, Control_c, 0, 67, 107
1, 334072, Note_off_c, 0, 41, 34
1, 334077, Control_c, 0, 67, 110
1, 334078, Note_on_c, 0, 80, 64
1, 334092, Control_c, 0, 67, 114
1, 334107, Control_c, 0, 67, 120
1, 334122, Control_c, 0, 67, 127
1, 334132, Note_off_c, 0, 80, 59
1, 334137, Control_c, 0, 67, 127
1, 334145, Note_on_c, 0, 84, 62
1, 334184, Note_off_c, 0, 84, 63
1, 334205, Note_on_c, 0, 89, 61
1, 334256, Note_off_c, 0, 89, 60
1, 334277, Note_on_c, 0, 84, 56
1, 334321, Note_off_c, 0, 84, 63
1, 334322, Note_on_c, 0, 32, 36
1, 334342, Note_on_c, 0, 89, 55
1, 334387, Note_off_c, 0, 89, 62
1, 334414, Note_on_c, 0, 84, 59
1, 334458, Note_off_c, 0, 36, 33
1, 334458, Note_off_c, 0, 84, 63
1, 334485, Note_on_c, 0, 89, 59
1, 334529, Note_off_c, 0, 89, 61
1, 334562, Note_on_c, 0, 84, 48
1, 334596, Note_off_c, 0, 84, 61
1, 334621, Note_on_c, 0, 89, 53
1, 334666, Note_off_c, 0, 89, 61
1, 334694, Note_on_c, 0, 84, 53
1, 334736, Note_off_c, 0, 84, 64
1, 334754, Note_on_c, 0, 89, 58
1, 334761, Note_on_c, 0, 29, 36
1, 334806, Note_off_c, 0, 89, 57
1, 334826, Note_on_c, 0, 84, 62
1, 334864, Note_off_c, 0, 84, 61
1, 334892, Note_on_c, 0, 80, 63
1, 334940, Note_off_c, 0, 32, 35
1, 334945, Note_off_c, 0, 80, 58
1, 334968, Note_on_c, 0, 84, 55
1, 335000, Note_off_c, 0, 84, 66
1, 335017, Note_on_c, 0, 89, 58
1, 335073, Note_off_c, 0, 89, 57
1, 335081, Note_on_c, 0, 84, 62
1, 335124, Note_off_c, 0, 84, 61
1, 335161, Note_on_c, 0, 80, 52
1, 335201, Note_off_c, 0, 80, 62
1, 335227, Note_on_c, 0, 84, 52
1, 335261, Note_off_c, 0, 84, 65
1, 335279, Note_on_c, 0, 89, 56
1, 335341, Note_off_c, 0, 89, 58
1, 335352, Note_on_c, 0, 84, 62
1, 335394, Note_off_c, 0, 84, 61
1, 335436, Note_on_c, 0, 80, 52
1, 335475, Note_off_c, 0, 80, 61
1, 335499, Note_on_c, 0, 84, 52
1, 335532, Note_off_c, 0, 84, 66
1, 335547, Note_on_c, 0, 89, 59
1, 335605, Note_off_c, 0, 89, 58
1, 335612, Note_on_c, 0, 84, 65
1, 335657, Note_off_c, 0, 84, 62
1, 335690, Note_on_c, 0, 80, 52
1, 335722, Note_off_c, 0, 80, 53
1, 335761, Note_on_c, 0, 84, 50
1, 335790, Note_off_c, 0, 84, 62
1, 335808, Note_on_c, 0, 89, 60
1, 335857, Note_off_c, 0, 89, 60
1, 335880, Note_on_c, 0, 84, 56
1, 335907, Note_on_c, 0, 32, 44
1, 335919, Note_off_c, 0, 84, 64
1, 335941, Note_on_c, 0, 89, 58
1, 336001, Note_off_c, 0, 89, 60
1, 336022, Note_on_c, 0, 84, 58
1, 336045, Note_off_c, 0, 29, 38
1, 336062, Note_off_c, 0, 84, 66
1, 336087, Note_on_c, 0, 80, 57
1, 336130, Note_off_c, 0, 80, 58
1, 336146, Note_on_c, 0, 84, 58
1, 336196, Note_off_c, 0, 84, 63
1, 336211, Note_on_c, 0, 89, 59
1, 336220, Note_on_c, 0, 36, 47
1, 336271, Note_off_c, 0, 89, 62
1, 336288, Note_on_c, 0, 84, 52
1, 336289, Note_off_c, 0, 32, 43
1, 336321, Note_on_c, 0, 41, 50
1, 336326, Note_off_c, 0, 84, 65
1, 336327, Note_off_c, 0, 36, 60
1, 336340, Note_on_c, 0, 89, 58
1, 336409, Note_on_c, 0, 84, 69
1, 336411, Note_off_c, 0, 89, 58
1, 336451, Note_off_c, 0, 84, 63
1, 336476, Note_on_c, 0, 80, 66
1, 336529, Note_off_c, 0, 80, 57
1, 336543, Note_on_c, 0, 84, 57
1, 336583, Note_off_c, 0, 84, 64
1, 336592, Note_on_c, 0, 89, 65
1, 336655, Note_off_c, 0, 89, 61
1, 336663, Note_on_c, 0, 84, 63
1, 336709, Note_on_c, 0, 44, 60
1, 336712, Note_off_c, 0, 84, 63
1, 336726, Note_on_c, 0, 89, 57
1, 336766, Note_off_c, 0, 41, 49
1, 336806, Note_on_c, 0, 84, 64
1, 336813, Note_off_c, 0, 89, 58
1, 336858, Note_off_c, 0, 84, 64
1, 336882, Note_on_c, 0, 80, 61
1, 336933, Note_off_c, 0, 80, 56
1, 336950, Note_on_c, 0, 84, 55
1, 336992, Note_off_c, 0, 84, 65
1, 337007, Note_on_c, 0, 48, 53
1, 337008, Note_on_c, 0, 89, 61
1, 337052, Note_off_c, 0, 89, 60
1, 337088, Note_on_c, 0, 84, 48
1, 337110, Note_on_c, 0, 53, 59
1, 337111, Note_off_c, 0, 84, 61
1, 337131, Note_on_c, 0, 89, 57
1, 337178, Note_off_c, 0, 89, 61
1, 337189, Note_on_c, 0, 84, 63
1, 337210, Note_off_c, 0, 44, 21
1, 337224, Note_off_c, 0, 48, 30
1, 337226, Note_off_c, 0, 84, 61
1, 337256, Note_on_c, 0, 80, 62
1, 337291, Note_off_c, 0, 80, 61
1, 337332, Note_on_c, 0, 84, 52
1, 337365, Note_off_c, 0, 84, 65
1, 337374, Note_on_c, 0, 89, 60
1, 337429, Note_off_c, 0, 89, 60
1, 337451, Note_on_c, 0, 84, 58
1, 337488, Note_off_c, 0, 84, 64
1, 337500, Note_on_c, 0, 41, 47
1, 337509, Note_on_c, 0, 89, 65
1, 337588, Note_off_c, 0, 89, 57
1, 337589, Note_on_c, 0, 84, 63
1, 337609, Note_off_c, 0, 53, 40
1, 337619, Note_off_c, 0, 84, 67
1, 337649, Note_on_c, 0, 80, 64
1, 337693, Note_off_c, 0, 80, 54
1, 337710, Note_on_c, 0, 84, 63
1, 337762, Note_off_c, 0, 84, 64
1, 337774, Note_on_c, 0, 89, 61
1, 337787, Note_off_c, 0, 41, 55
1, 337827, Note_off_c, 0, 89, 60
1, 337838, Note_on_c, 0, 84, 59
1, 337886, Note_off_c, 0, 84, 62
1, 337907, Note_on_c, 0, 87, 64
1, 337915, Note_on_c, 0, 42, 52
1, 337955, Note_off_c, 0, 87, 63
1, 337970, Note_on_c, 0, 84, 65
1, 337999, Note_off_c, 0, 84, 66
1, 338031, Note_on_c, 0, 80, 61
1, 338073, Note_off_c, 0, 80, 60
1, 338099, Note_on_c, 0, 84, 63
1, 338132, Note_off_c, 0, 84, 65
1, 338155, Note_on_c, 0, 87, 59
1, 338196, Note_off_c, 0, 87, 63
1, 338219, Note_on_c, 0, 84, 62
1, 338257, Note_off_c, 0, 84, 63
1, 338284, Note_on_c, 0, 80, 60
1, 338334, Note_off_c, 0, 80, 60
1, 338359, Note_on_c, 0, 84, 59
1, 338398, Note_off_c, 0, 84, 64
1, 338417, Note_on_c, 0, 87, 59
1, 338469, Note_off_c, 0, 87, 63
1, 338494, Note_on_c, 0, 84, 57
1, 338526, Note_off_c, 0, 84, 66
1, 338543, Note_on_c, 0, 80, 62
1, 338587, Note_off_c, 0, 80, 58
1, 338608, Note_on_c, 0, 84, 63
1, 338659, Note_off_c, 0, 84, 63
1, 338677, Note_on_c, 0, 87, 60
1, 338726, Note_off_c, 0, 87, 63
1, 338733, Note_on_c, 0, 84, 62
1, 338774, Note_off_c, 0, 84, 63
1, 338793, Note_on_c, 0, 80, 62
1, 338849, Note_off_c, 0, 80, 59
1, 338856, Note_on_c, 0, 84, 65
1, 338909, Note_off_c, 0, 84, 64
1, 338924, Note_on_c, 0, 87, 63
1, 338972, Note_off_c, 0, 87, 61
1, 338989, Note_on_c, 0, 84, 62
1, 339044, Note_off_c, 0, 84, 65
1, 339045, Note_on_c, 0, 48, 57
1, 339047, Note_on_c, 0, 87, 65
1, 339109, Note_on_c, 0, 84, 63
1, 339109, Note_off_c, 0, 87, 63
1, 339165, Note_off_c, 0, 84, 63
1, 339180, Note_on_c, 0, 80, 61
1, 339226, Note_off_c, 0, 42, 37
1, 339240, Note_on_c, 0, 84, 60
1, 339243, Note_off_c, 0, 80, 60
1, 339298, Note_off_c, 0, 84, 63
1, 339308, Note_on_c, 0, 87, 63
1, 339325, Note_on_c, 0, 51, 63
1, 339350, Note_off_c, 0, 48, 63
1, 339359, Note_off_c, 0, 87, 62
1, 339370, Note_on_c, 0, 84, 64
1, 339425, Note_off_c, 0, 84, 63
1, 339428, Note_on_c, 0, 87, 68
1, 339435, Note_on_c, 0, 54, 68
1, 339447, Note_off_c, 0, 51, 61
1, 339484, Note_off_c, 0, 87, 64
1, 339489, Note_on_c, 0, 84, 70
1, 339540, Note_off_c, 0, 84, 64
1, 339553, Note_on_c, 0, 80, 67
1, 339611, Note_on_c, 0, 84, 67
1, 339621, Note_off_c, 0, 80, 59
1, 339665, Note_off_c, 0, 84, 63
1, 339673, Note_on_c, 0, 87, 68
1, 339733, Note_off_c, 0, 87, 64
1, 339735, Note_on_c, 0, 84, 69
1, 339794, Note_off_c, 0, 84, 63
1, 339797, Note_on_c, 0, 87, 66
1, 339803, Note_on_c, 0, 60, 69
1, 339836, Note_off_c, 0, 54, 59
1, 339862, Note_off_c, 0, 87, 62
1, 339871, Note_on_c, 0, 84, 69
1, 339922, Note_off_c, 0, 84, 63
1, 339943, Note_on_c, 0, 80, 65
1, 340010, Note_on_c, 0, 84, 64
1, 340012, Note_off_c, 0, 80, 61
1, 340056, Note_off_c, 0, 84, 64
1, 340065, Note_on_c, 0, 87, 69
1, 340110, Note_on_c, 0, 63, 58
1, 340125, Note_off_c, 0, 87, 62
1, 340137, Note_on_c, 0, 84, 66
1, 340140, Note_off_c, 0, 60, 60
1, 340182, Note_off_c, 0, 84, 63
1, 340188, Note_on_c, 0, 87, 64
1, 340200, Note_on_c, 0, 66, 51
1, 340201, Control_c, 0, 64, 52
1, 340216, Control_c, 0, 64, 53
1, 340228, Note_off_c, 0, 63, 58
1, 340231, Control_c, 0, 64, 54
1, 340246, Control_c, 0, 64, 55
1, 340250, Note_off_c, 0, 87, 65
1, 340257, Note_on_c, 0, 84, 63
1, 340260, Control_c, 0, 64, 57
1, 340275, Control_c, 0, 64, 59
1, 340290, Control_c, 0, 64, 60
1, 340298, Note_off_c, 0, 84, 61
1, 340305, Control_c, 0, 64, 61
1, 340320, Control_c, 0, 64, 62
1, 340323, Note_on_c, 0, 80, 63
1, 340334, Control_c, 0, 64, 64
1, 340349, Control_c, 0, 64, 66
1, 340364, Control_c, 0, 64, 69
1, 340378, Control_c, 0, 64, 72
1, 340384, Note_off_c, 0, 80, 61
1, 340387, Note_on_c, 0, 84, 58
1, 340393, Control_c, 0, 64, 75
1, 340408, Control_c, 0, 64, 76
1, 340422, Note_off_c, 0, 84, 65
1, 340423, Control_c, 0, 64, 77
1, 340435, Note_on_c, 0, 87, 63
1, 340438, Control_c, 0, 64, 77
1, 340453, Control_c, 0, 64, 78
1, 340483, Control_c, 0, 64, 78
1, 340500, Note_off_c, 0, 87, 63
1, 340516, Note_on_c, 0, 84, 64
1, 340549, Control_c, 0, 64, 77
1, 340562, Note_off_c, 0, 84, 61
1, 340564, Control_c, 0, 64, 73
1, 340566, Note_on_c, 0, 54, 52
1, 340574, Note_on_c, 0, 87, 61
1, 340579, Control_c, 0, 64, 66
1, 340593, Control_c, 0, 64, 59
1, 340608, Control_c, 0, 64, 56
1, 340614, Note_off_c, 0, 66, 43
1, 340638, Note_off_c, 0, 87, 63
1, 340638, Control_c, 0, 64, 57
1, 340642, Note_on_c, 0, 84, 63
1, 340653, Control_c, 0, 64, 59
1, 340668, Control_c, 0, 64, 63
1, 340676, Note_off_c, 0, 84, 64
1, 340683, Control_c, 0, 64, 66
1, 340690, Note_on_c, 0, 80, 62
1, 340697, Control_c, 0, 64, 70
1, 340712, Control_c, 0, 64, 76
1, 340727, Control_c, 0, 64, 81
1, 340743, Control_c, 0, 64, 83
1, 340758, Control_c, 0, 64, 83
1, 340759, Note_on_c, 0, 84, 65
1, 340760, Note_off_c, 0, 80, 60
1, 340796, Note_off_c, 0, 84, 63
1, 340815, Note_on_c, 0, 87, 62
1, 340817, Control_c, 0, 64, 84
1, 340832, Control_c, 0, 64, 85
1, 340864, Note_off_c, 0, 87, 56
1, 340891, Control_c, 0, 64, 84
1, 340891, Note_on_c, 0, 84, 60
1, 340906, Control_c, 0, 64, 83
1, 340915, Note_off_c, 0, 84, 64
1, 340921, Control_c, 0, 64, 80
1, 340936, Control_c, 0, 64, 71
1, 340949, Note_on_c, 0, 89, 62
1, 340951, Control_c, 0, 64, 62
1, 340960, Note_on_c, 0, 53, 51
1, 340965, Control_c, 0, 64, 56
1, 340980, Control_c, 0, 64, 55
1, 340998, Note_off_c, 0, 54, 52
1, 341009, Control_c, 0, 64, 57
1, 341024, Control_c, 0, 64, 60
1, 341033, Note_on_c, 0, 85, 50
1, 341039, Control_c, 0, 64, 64
1, 341040, Note_off_c, 0, 89, 59
1, 341054, Control_c, 0, 64, 67
1, 341069, Control_c, 0, 64, 71
1, 341075, Note_off_c, 0, 85, 64
1, 341083, Control_c, 0, 64, 76
1, 341085, Note_on_c, 0, 80, 57
1, 341098, Control_c, 0, 64, 81
1, 341113, Control_c, 0, 64, 84
1, 341127, Control_c, 0, 64, 85
1, 341157, Note_off_c, 0, 80, 57
1, 341157, Control_c, 0, 64, 86
1, 341160, Note_on_c, 0, 85, 61
1, 341172, Control_c, 0, 64, 88
1, 341187, Control_c, 0, 64, 90
1, 341198, Note_off_c, 0, 85, 63
1, 341201, Control_c, 0, 64, 92
1, 341213, Note_on_c, 0, 89, 60
1, 341216, Control_c, 0, 64, 94
1, 341231, Control_c, 0, 64, 94
1, 341285, Note_off_c, 0, 89, 61
1, 341288, Note_on_c, 0, 85, 56
1, 341298, Control_c, 0, 64, 91
1, 341313, Control_c, 0, 64, 84
1, 341318, Note_on_c, 0, 56, 62
1, 341328, Control_c, 0, 64, 77
1, 341333, Note_off_c, 0, 85, 62
1, 341342, Control_c, 0, 64, 70
1, 341348, Note_on_c, 0, 89, 60
1, 341357, Control_c, 0, 64, 67
1, 341372, Control_c, 0, 64, 66
1, 341387, Control_c, 0, 64, 67
1, 341394, Note_off_c, 0, 53, 50
1, 341402, Control_c, 0, 64, 69
1, 341411, Note_on_c, 0, 85, 65
1, 341416, Control_c, 0, 64, 73
1, 341426, Note_off_c, 0, 89, 58
1, 341431, Control_c, 0, 64, 81
1, 341446, Control_c, 0, 64, 94
1, 341461, Control_c, 0, 64, 121
1, 341468, Note_off_c, 0, 85, 65
1, 341476, Control_c, 0, 64, 127
1, 341478, Note_on_c, 0, 80, 68
1, 341547, Note_on_c, 0, 85, 59
1, 341556, Note_off_c, 0, 80, 61
1, 341580, Note_on_c, 0, 61, 66
1, 341596, Note_off_c, 0, 85, 64
1, 341610, Note_on_c, 0, 89, 70
1, 341639, Control_c, 0, 67, 124
1, 341642, Note_off_c, 0, 56, 53
1, 341654, Control_c, 0, 67, 119
1, 341662, Note_off_c, 0, 89, 60
1, 341669, Control_c, 0, 64, 113
1, 341669, Control_c, 0, 67, 115
1, 341673, Note_on_c, 0, 85, 63
1, 341682, Note_on_c, 0, 65, 75
1, 341684, Control_c, 0, 64, 80
1, 341684, Control_c, 0, 67, 112
1, 341699, Control_c, 0, 64, 66
1, 341699, Control_c, 0, 67, 109
1, 341710, Note_off_c, 0, 85, 62
1, 341714, Control_c, 0, 64, 60
1, 341714, Control_c, 0, 67, 107
1, 341726, Note_off_c, 0, 61, 61
1, 341729, Note_on_c, 0, 89, 61
1, 341729, Control_c, 0, 67, 105
1, 341744, Control_c, 0, 64, 61
1, 341744, Control_c, 0, 67, 102
1, 341758, Control_c, 0, 64, 63
1, 341758, Control_c, 0, 67, 98
1, 341773, Control_c, 0, 64, 67
1, 341773, Control_c, 0, 67, 95
1, 341788, Note_on_c, 0, 85, 66
1, 341788, Control_c, 0, 64, 76
1, 341788, Control_c, 0, 67, 92
1, 341791, Note_off_c, 0, 89, 60
1, 341803, Control_c, 0, 64, 94
1, 341803, Control_c, 0, 67, 90
1, 341818, Control_c, 0, 64, 127
1, 341818, Control_c, 0, 67, 89
1, 341831, Note_off_c, 0, 85, 61
1, 341833, Control_c, 0, 67, 88
1, 341848, Control_c, 0, 67, 88
1, 341850, Note_on_c, 0, 80, 67
1, 341863, Control_c, 0, 67, 87
1, 341878, Control_c, 0, 67, 85
1, 341893, Control_c, 0, 67, 83
1, 341907, Control_c, 0, 67, 80
1, 341912, Note_on_c, 0, 85, 66
1, 341915, Note_off_c, 0, 80, 60
1, 341922, Control_c, 0, 67, 79
1, 341952, Control_c, 0, 67, 78
1, 341955, Note_off_c, 0, 85, 62
1, 341967, Note_on_c, 0, 89, 66
1, 341981, Control_c, 0, 67, 78
1, 341996, Control_c, 0, 67, 77
1, 342021, Note_off_c, 0, 89, 61
1, 342031, Note_on_c, 0, 85, 60
1, 342033, Control_c, 0, 67, 77
1, 342063, Control_c, 0, 67, 76
1, 342075, Note_off_c, 0, 85, 63
1, 342078, Control_c, 0, 64, 83
1, 342078, Control_c, 0, 67, 75
1, 342082, Note_on_c, 0, 53, 72
1, 342088, Note_on_c, 0, 89, 62
1, 342093, Control_c, 0, 64, 66
1, 342093, Control_c, 0, 67, 75
1, 342101, Note_off_c, 0, 65, 56
1, 342107, Control_c, 0, 64, 59
1, 342107, Control_c, 0, 67, 71
1, 342122, Control_c, 0, 64, 60
1, 342122, Control_c, 0, 67, 65
1, 342137, Control_c, 0, 64, 62
1, 342137, Control_c, 0, 67, 61
1, 342150, Note_on_c, 0, 85, 65
1, 342152, Control_c, 0, 64, 65
1, 342152, Control_c, 0, 67, 58
1, 342158, Note_off_c, 0, 89, 61
1, 342166, Control_c, 0, 64, 71
1, 342166, Control_c, 0, 67, 56
1, 342181, Control_c, 0, 64, 83
1, 342181, Control_c, 0, 67, 56
1, 342196, Control_c, 0, 64, 113
1, 342196, Control_c, 0, 67, 55
1, 342200, Note_off_c, 0, 85, 64
1, 342211, Control_c, 0, 64, 127
1, 342211, Control_c, 0, 67, 55
1, 342212, Note_on_c, 0, 80, 67
1, 342226, Control_c, 0, 67, 54
1, 342240, Control_c, 0, 67, 52
1, 342255, Control_c, 0, 67, 50
1, 342270, Note_on_c, 0, 85, 64
1, 342270, Control_c, 0, 67, 46
1, 342279, Note_off_c, 0, 80, 61
1, 342285, Control_c, 0, 67, 43
1, 342300, Control_c, 0, 67, 41
1, 342314, Control_c, 0, 67, 40
1, 342323, Note_off_c, 0, 85, 64
1, 342329, Control_c, 0, 67, 40
1, 342331, Note_on_c, 0, 89, 63
1, 342345, Control_c, 0, 67, 39
1, 342360, Control_c, 0, 67, 38
1, 342366, Note_off_c, 0, 89, 65
1, 342375, Control_c, 0, 67, 38
1, 342389, Control_c, 0, 67, 37
1, 342404, Control_c, 0, 67, 36
1, 342419, Control_c, 0, 67, 35
1, 342434, Control_c, 0, 67, 35
1, 342437, Note_on_c, 0, 51, 71
1, 342449, Control_c, 0, 67, 34
1, 342462, Note_on_c, 0, 90, 65
1, 342463, Control_c, 0, 67, 33
1, 342478, Control_c, 0, 64, 92
1, 342493, Control_c, 0, 64, 71
1, 342493, Control_c, 0, 67, 32
1, 342508, Control_c, 0, 64, 60
1, 342508, Control_c, 0, 67, 31
1, 342522, Note_off_c, 0, 53, 54
1, 342523, Control_c, 0, 64, 56
1, 342523, Control_c, 0, 67, 30
1, 342537, Note_on_c, 0, 84, 65
1, 342537, Control_c, 0, 64, 57
1, 342537, Control_c, 0, 67, 28
1, 342548, Note_off_c, 0, 90, 60
1, 342552, Control_c, 0, 64, 60
1, 342552, Control_c, 0, 67, 26
1, 342567, Control_c, 0, 64, 64
1, 342567, Control_c, 0, 67, 23
1, 342581, Control_c, 0, 64, 70
1, 342581, Control_c, 0, 67, 22
1, 342594, Note_off_c, 0, 84, 63
1, 342596, Control_c, 0, 64, 85
1, 342596, Control_c, 0, 67, 21
1, 342601, Note_on_c, 0, 80, 64
1, 342611, Control_c, 0, 64, 127
1, 342611, Control_c, 0, 67, 20
1, 342626, Control_c, 0, 67, 19
1, 342641, Control_c, 0, 67, 18
1, 342656, Control_c, 0, 67, 16
1, 342656, Note_on_c, 0, 84, 58
1, 342671, Control_c, 0, 67, 13
1, 342671, Note_off_c, 0, 80, 55
1, 342686, Control_c, 0, 67, 9
1, 342701, Control_c, 0, 67, 0
1, 342712, Note_on_c, 0, 90, 69
1, 342713, Note_off_c, 0, 84, 64
1, 342732, Note_on_c, 0, 54, 70
1, 342776, Note_on_c, 0, 84, 67
1, 342790, Note_off_c, 0, 90, 63
1, 342796, Control_c, 0, 64, 96
1, 342811, Control_c, 0, 64, 72
1, 342814, Note_off_c, 0, 51, 52
1, 342826, Control_c, 0, 64, 61
1, 342838, Note_off_c, 0, 84, 63
1, 342840, Note_on_c, 0, 56, 71
1, 342841, Note_on_c, 0, 90, 69
1, 342841, Control_c, 0, 64, 57
1, 342856, Control_c, 0, 64, 59
1, 342871, Control_c, 0, 64, 61
1, 342872, Note_off_c, 0, 54, 61
1, 342885, Control_c, 0, 64, 65
1, 342900, Note_on_c, 0, 84, 68
1, 342900, Control_c, 0, 64, 76
1, 342915, Control_c, 0, 64, 99
1, 342930, Control_c, 0, 64, 127
1, 342932, Note_off_c, 0, 90, 58
1, 342959, Note_off_c, 0, 84, 65
1, 342965, Note_on_c, 0, 80, 77
1, 343029, Note_on_c, 0, 84, 77
1, 343044, Note_off_c, 0, 80, 60
1, 343068, Note_on_c, 0, 60, 69
1, 343091, Note_off_c, 0, 84, 64
1, 343092, Note_on_c, 0, 90, 80
1, 343092, Note_off_c, 0, 56, 65
1, 343139, Control_c, 0, 64, 99
1, 343153, Control_c, 0, 64, 75
1, 343159, Note_on_c, 0, 84, 79
1, 343159, Note_off_c, 0, 90, 63
1, 343168, Control_c, 0, 64, 64
1, 343183, Control_c, 0, 64, 61
1, 343189, Note_on_c, 0, 63, 74
1, 343198, Control_c, 0, 64, 63
1, 343212, Note_on_c, 0, 90, 77
1, 343212, Control_c, 0, 64, 65
1, 343217, Note_off_c, 0, 84, 64
1, 343224, Note_off_c, 0, 60, 65
1, 343227, Control_c, 0, 64, 70
1, 343242, Control_c, 0, 64, 82
1, 343257, Control_c, 0, 64, 121
1, 343272, Control_c, 0, 64, 127
1, 343279, Note_on_c, 0, 84, 82
1, 343309, Note_off_c, 0, 90, 59
1, 343337, Note_off_c, 0, 84, 65
1, 343346, Note_on_c, 0, 80, 77
1, 343404, Note_on_c, 0, 84, 81
1, 343417, Note_off_c, 0, 80, 61
1, 343453, Note_on_c, 0, 66, 76
1, 343464, Note_on_c, 0, 90, 83
1, 343465, Note_off_c, 0, 84, 64
1, 343486, Note_off_c, 0, 63, 63
1, 343541, Note_on_c, 0, 84, 83
1, 343553, Note_off_c, 0, 90, 63
1, 343568, Note_on_c, 0, 68, 82
1, 343597, Note_on_c, 0, 90, 75
1, 343605, Note_off_c, 0, 84, 62
1, 343620, Note_off_c, 0, 66, 55
1, 343668, Note_on_c, 0, 87, 82
1, 343692, Note_off_c, 0, 90, 61
1, 343734, Note_on_c, 0, 80, 80
1, 343740, Note_off_c, 0, 87, 64
1, 343802, Note_on_c, 0, 87, 81
1, 343810, Note_on_c, 0, 72, 54
1, 343841, Note_off_c, 0, 80, 56
1, 343881, Note_on_c, 0, 90, 75
1, 343888, Note_off_c, 0, 87, 64
1, 343994, Note_on_c, 0, 87, 67
1, 344000, Note_off_c, 0, 72, 58
1, 344063, Note_off_c, 0, 68, 30
1, 344071, Note_on_c, 0, 61, 41
1, 344094, Control_c, 0, 64, 106
1, 344096, Note_off_c, 0, 90, 28
1, 344108, Control_c, 0, 64, 97
1, 344123, Control_c, 0, 64, 90
1, 344138, Control_c, 0, 64, 85
1, 344149, Poly_aftertouch_c, 0, 64, 127
1, 344153, Control_c, 0, 64, 78
1, 344161, Note_on_c, 0, 89, 56
1, 344167, Note_off_c, 0, 87, 58
1, 344168, Control_c, 0, 64, 70
1, 344182, Control_c, 0, 64, 62
1, 344197, Control_c, 0, 64, 48
1, 344212, Control_c, 0, 64, 35
1, 344227, Control_c, 0, 64, 27
1, 344242, Control_c, 0, 64, 24
1, 344252, Poly_aftertouch_c, 0, 64, 0
1, 344279, Control_c, 0, 64, 28
1, 344294, Control_c, 0, 64, 48
1, 344308, Control_c, 0, 64, 61
1, 344323, Control_c, 0, 64, 67
1, 344338, Control_c, 0, 64, 74
1, 344352, Control_c, 0, 64, 84
1, 344367, Control_c, 0, 64, 98
1, 344382, Control_c, 0, 64, 127
1, 344403, Note_on_c, 0, 65, 33
1, 344423, Note_on_c, 0, 73, 35
1, 344446, Note_on_c, 0, 68, 18
1, 344456, Note_off_c, 0, 61, 30
1, 344533, Note_off_c, 0, 65, 44
1, 344546, Note_off_c, 0, 73, 37
1, 344565, Note_off_c, 0, 68, 33
1, 344579, Note_on_c, 0, 61, 43
1, 344605, Control_c, 0, 64, 91
1, 344620, Control_c, 0, 64, 74
1, 344634, Control_c, 0, 64, 64
1, 344649, Control_c, 0, 64, 54
1, 344664, Control_c, 0, 64, 44
1, 344665, Note_on_c, 0, 73, 40
1, 344679, Control_c, 0, 64, 39
1, 344680, Note_off_c, 0, 61, 40
1, 344694, Note_on_c, 0, 68, 25
1, 344698, Note_on_c, 0, 65, 23
1, 344708, Control_c, 0, 64, 39
1, 344724, Control_c, 0, 64, 47
1, 344739, Control_c, 0, 64, 59
1, 344754, Control_c, 0, 64, 68
1, 344769, Control_c, 0, 64, 79
1, 344783, Note_off_c, 0, 73, 51
1, 344784, Control_c, 0, 64, 100
1, 344797, Note_off_c, 0, 65, 38
1, 344798, Control_c, 0, 64, 127
1, 344813, Note_on_c, 0, 61, 44
1, 344813, Note_off_c, 0, 68, 35
1, 344915, Note_off_c, 0, 89, 36
1, 344920, Note_off_c, 0, 61, 48
1, 344935, Note_on_c, 0, 65, 39
1, 344939, Note_on_c, 0, 73, 37
1, 344966, Note_on_c, 0, 68, 37
1, 345038, Note_off_c, 0, 65, 55
1, 345047, Note_off_c, 0, 68, 49
1, 345055, Note_off_c, 0, 73, 39
1, 345081, Note_on_c, 0, 61, 42
1, 345196, Note_off_c, 0, 61, 37
1, 345199, Note_on_c, 0, 65, 33
1, 345207, Note_on_c, 0, 73, 27
1, 345214, Note_on_c, 0, 68, 33
1, 345279, Note_off_c, 0, 65, 54
1, 345315, Note_off_c, 0, 73, 38
1, 345334, Note_off_c, 0, 68, 36
1, 345342, Note_on_c, 0, 61, 39
1, 345434, Note_on_c, 0, 77, 62
1, 345462, Note_on_c, 0, 73, 18
1, 345466, Note_off_c, 0, 61, 36
1, 345470, Note_on_c, 0, 65, 19
1, 345488, Note_on_c, 0, 68, 31
1, 345556, Note_off_c, 0, 65, 38
1, 345583, Note_off_c, 0, 73, 41
1, 345585, Note_off_c, 0, 68, 36
1, 345616, Note_on_c, 0, 61, 36
1, 345716, Note_off_c, 0, 61, 38
1, 345745, Note_on_c, 0, 73, 19
1, 345747, Note_on_c, 0, 80, 62
1, 345755, Note_on_c, 0, 68, 23
1, 345762, Note_on_c, 0, 65, 13
1, 345842, Note_off_c, 0, 65, 42
1, 345860, Note_on_c, 0, 85, 64
1, 345861, Note_off_c, 0, 73, 35
1, 345875, Note_off_c, 0, 80, 58
1, 345881, Note_off_c, 0, 68, 32
1, 345881, Note_on_c, 0, 61, 42
1, 345946, Note_off_c, 0, 77, 53
1, 345980, Note_off_c, 0, 61, 50
1, 346013, Note_on_c, 0, 65, 34
1, 346018, Note_on_c, 0, 73, 28
1, 346024, Note_on_c, 0, 68, 42
1, 346094, Note_off_c, 0, 65, 53
1, 346111, Note_off_c, 0, 68, 50
1, 346120, Note_off_c, 0, 73, 39
1, 346148, Note_on_c, 0, 61, 40
1, 346276, Note_on_c, 0, 89, 73
1, 346297, Note_on_c, 0, 73, 26
1, 346297, Note_off_c, 0, 61, 34
1, 346297, Note_off_c, 0, 85, 59
1, 346313, Note_on_c, 0, 65, 28
1, 346313, Note_on_c, 0, 68, 25
1, 346363, Note_off_c, 0, 65, 58
1, 346396, Note_off_c, 0, 68, 38
1, 346401, Note_off_c, 0, 73, 38
1, 346433, Note_on_c, 0, 61, 40
1, 346573, Note_off_c, 0, 61, 35
1, 346578, Note_on_c, 0, 73, 15
1, 346583, Note_on_c, 0, 85, 75
1, 346589, Note_on_c, 0, 65, 22
1, 346614, Note_on_c, 0, 68, 6
1, 346645, Note_off_c, 0, 65, 44
1, 346680, Note_on_c, 0, 84, 78
1, 346689, Note_off_c, 0, 68, 43
1, 346689, Control_c, 0, 64, 105
1, 346693, Note_off_c, 0, 73, 42
1, 346704, Control_c, 0, 64, 79
1, 346719, Control_c, 0, 64, 63
1, 346721, Note_on_c, 0, 63, 42
1, 346722, Note_off_c, 0, 89, 35
1, 346734, Control_c, 0, 64, 53
1, 346736, Note_off_c, 0, 85, 54
1, 346749, Control_c, 0, 64, 52
1, 346778, Control_c, 0, 64, 54
1, 346793, Control_c, 0, 64, 58
1, 346808, Control_c, 0, 64, 64
1, 346822, Control_c, 0, 64, 71
1, 346832, Note_off_c, 0, 63, 51
1, 346837, Control_c, 0, 64, 82
1, 346852, Control_c, 0, 64, 104
1, 346863, Note_on_c, 0, 66, 35
1, 346865, Note_on_c, 0, 75, 43
1, 346867, Control_c, 0, 64, 127
1, 346871, Note_on_c, 0, 68, 40
1, 346957, Note_off_c, 0, 66, 53
1, 346969, Note_off_c, 0, 68, 52
1, 346993, Note_on_c, 0, 63, 39
1, 347002, Note_off_c, 0, 75, 36
1, 347083, Note_off_c, 0, 63, 54
1, 347095, Note_on_c, 0, 87, 80
1, 347115, Note_on_c, 0, 66, 36
1, 347122, Note_off_c, 0, 84, 62
1, 347123, Note_on_c, 0, 75, 45
1, 347131, Note_on_c, 0, 68, 36
1, 347192, Note_off_c, 0, 66, 48
1, 347194, Note_off_c, 0, 68, 54
1, 347195, Note_off_c, 0, 75, 50
1, 347226, Note_on_c, 0, 63, 45
1, 347364, Note_off_c, 0, 63, 33
1, 347369, Note_on_c, 0, 66, 31
1, 347384, Note_on_c, 0, 68, 22
1, 347387, Note_on_c, 0, 84, 75
1, 347389, Note_on_c, 0, 75, 34
1, 347420, Note_off_c, 0, 66, 44
1, 347429, Note_off_c, 0, 68, 49
1, 347446, Note_off_c, 0, 87, 54
1, 347462, Note_off_c, 0, 75, 48
1, 347497, Control_c, 0, 64, 91
1, 347498, Note_on_c, 0, 85, 69
1, 347512, Control_c, 0, 64, 70
1, 347519, Note_off_c, 0, 84, 58
1, 347526, Control_c, 0, 64, 58
1, 347541, Control_c, 0, 64, 47
1, 347556, Control_c, 0, 64, 46
1, 347567, Note_on_c, 0, 65, 36
1, 347571, Control_c, 0, 64, 45
1, 347585, Control_c, 0, 64, 47
1, 347600, Control_c, 0, 64, 54
1, 347615, Control_c, 0, 64, 62
1, 347630, Control_c, 0, 64, 69
1, 347644, Control_c, 0, 64, 84
1, 347659, Control_c, 0, 64, 127
1, 347675, Note_off_c, 0, 65, 52
1, 347717, Note_on_c, 0, 73, 24
1, 347725, Note_on_c, 0, 77, 43
1, 347728, Note_on_c, 0, 68, 27
1, 347803, Note_off_c, 0, 77, 56
1, 347824, Note_off_c, 0, 73, 38
1, 347843, Note_off_c, 0, 68, 34
1, 347844, Note_on_c, 0, 65, 38
1, 347925, Note_off_c, 0, 65, 51
1, 347965, Note_on_c, 0, 80, 61
1, 347971, Note_on_c, 0, 73, 25
1, 347977, Note_on_c, 0, 77, 37
1, 347994, Note_on_c, 0, 68, 33
1, 348058, Note_off_c, 0, 68, 43
1, 348075, Note_off_c, 0, 77, 39
1, 348086, Note_off_c, 0, 73, 38
1, 348105, Note_on_c, 0, 65, 41
1, 348182, Note_off_c, 0, 65, 51
1, 348216, Note_on_c, 0, 77, 48
1, 348220, Note_on_c, 0, 73, 37
1, 348242, Note_on_c, 0, 68, 36
1, 348315, Note_off_c, 0, 68, 51
1, 348319, Note_off_c, 0, 77, 56
1, 348325, Note_off_c, 0, 73, 55
1, 348349, Note_on_c, 0, 65, 48
1, 348387, Note_off_c, 0, 85, 40
1, 348402, Note_off_c, 0, 80, 58
1, 348461, Note_off_c, 0, 65, 52
1, 348465, Note_on_c, 0, 77, 53
1, 348466, Note_on_c, 0, 73, 46
1, 348486, Note_on_c, 0, 68, 34
1, 348564, Note_off_c, 0, 73, 54
1, 348582, Note_off_c, 0, 68, 46
1, 348584, Note_off_c, 0, 77, 55
1, 348607, Note_on_c, 0, 65, 49
1, 348716, Note_off_c, 0, 65, 52
1, 348719, Note_on_c, 0, 77, 73
1, 348737, Note_on_c, 0, 73, 44
1, 348751, Note_on_c, 0, 68, 37
1, 348858, Note_off_c, 0, 73, 56
1, 348865, Note_off_c, 0, 68, 36
1, 348883, Note_on_c, 0, 65, 51
1, 349002, Note_on_c, 0, 80, 81
1, 349007, Note_off_c, 0, 65, 56
1, 349034, Note_on_c, 0, 68, 43
1, 349034, Note_on_c, 0, 73, 40
1, 349093, Note_off_c, 0, 73, 56
1, 349094, Note_off_c, 0, 68, 55
1, 349098, Note_on_c, 0, 85, 83
1, 349121, Note_off_c, 0, 80, 64
1, 349137, Note_on_c, 0, 65, 59
1, 349172, Note_off_c, 0, 77, 54
1, 349242, Note_off_c, 0, 65, 59
1, 349279, Note_on_c, 0, 68, 37
1, 349282, Note_on_c, 0, 77, 63
1, 349286, Note_on_c, 0, 73, 44
1, 349356, Note_off_c, 0, 77, 57
1, 349357, Note_off_c, 0, 68, 47
1, 349364, Note_on_c, 0, 65, 62
1, 349366, Note_off_c, 0, 73, 55
1, 349474, Note_off_c, 0, 65, 56
1, 349506, Note_on_c, 0, 68, 44
1, 349506, Note_on_c, 0, 77, 53
1, 349512, Note_on_c, 0, 89, 91
1, 349530, Note_on_c, 0, 73, 41
1, 349536, Note_off_c, 0, 85, 66
1, 349595, Note_off_c, 0, 73, 58
1, 349598, Note_off_c, 0, 77, 57
1, 349616, Note_on_c, 0, 65, 59
1, 349642, Note_off_c, 0, 68, 34
1, 349707, Note_off_c, 0, 65, 59
1, 349726, Note_on_c, 0, 77, 58
1, 349735, Note_on_c, 0, 68, 37
1, 349743, Note_on_c, 0, 73, 49
1, 349797, Note_on_c, 0, 85, 88
1, 349802, Note_off_c, 0, 68, 52
1, 349806, Note_off_c, 0, 77, 61
1, 349848, Note_off_c, 0, 73, 48
1, 349862, Control_c, 0, 64, 86
1, 349876, Note_off_c, 0, 89, 56
1, 349877, Control_c, 0, 64, 66
1, 349892, Control_c, 0, 64, 52
1, 349894, Note_on_c, 0, 66, 54
1, 349894, Note_on_c, 0, 84, 95
1, 349907, Control_c, 0, 64, 45
1, 349936, Control_c, 0, 64, 45
1, 349950, Note_off_c, 0, 85, 58
1, 349951, Control_c, 0, 64, 51
1, 349966, Control_c, 0, 64, 61
1, 349981, Control_c, 0, 64, 67
1, 349995, Control_c, 0, 64, 76
1, 350010, Control_c, 0, 64, 96
1, 350025, Control_c, 0, 64, 127
1, 350028, Note_on_c, 0, 75, 66
1, 350028, Note_off_c, 0, 66, 59
1, 350040, Note_on_c, 0, 72, 55
1, 350041, Note_on_c, 0, 69, 56
1, 350135, Note_on_c, 0, 66, 69
1, 350140, Note_off_c, 0, 69, 59
1, 350155, Note_off_c, 0, 75, 57
1, 350163, Note_off_c, 0, 72, 62
1, 350240, Poly_aftertouch_c, 0, 67, 127
1, 350281, Poly_aftertouch_c, 0, 67, 0
1, 350290, Note_on_c, 0, 69, 50
1, 350292, Note_on_c, 0, 75, 61
1, 350293, Note_on_c, 0, 87, 97
1, 350305, Note_off_c, 0, 66, 59
1, 350316, Note_on_c, 0, 72, 49
1, 350369, Note_off_c, 0, 84, 54
1, 350394, Note_off_c, 0, 69, 63
1, 350402, Note_off_c, 0, 75, 59
1, 350421, Note_on_c, 0, 66, 62
1, 350427, Note_off_c, 0, 72, 64
1, 350531, Note_off_c, 0, 66, 55
1, 350546, Note_on_c, 0, 75, 59
1, 350562, Note_on_c, 0, 69, 28
1, 350572, Note_on_c, 0, 84, 94
1, 350579, Note_on_c, 0, 72, 37
1, 350588, Note_off_c, 0, 87, 64
1, 350639, Note_off_c, 0, 75, 60
1, 350667, Note_on_c, 0, 83, 94
1, 350669, Note_off_c, 0, 72, 55
1, 350670, Control_c, 0, 64, 80
1, 350681, Note_on_c, 0, 65, 65
1, 350683, Note_off_c, 0, 84, 62
1, 350685, Control_c, 0, 64, 61
1, 350686, Note_off_c, 0, 69, 43
1, 350700, Control_c, 0, 64, 40
1, 350715, Control_c, 0, 64, 34
1, 350730, Control_c, 0, 64, 33
1, 350759, Control_c, 0, 64, 43
1, 350774, Control_c, 0, 64, 59
1, 350788, Control_c, 0, 64, 69
1, 350797, Note_off_c, 0, 65, 59
1, 350803, Control_c, 0, 64, 92
1, 350810, Note_on_c, 0, 68, 64
1, 350817, Control_c, 0, 64, 127
1, 350821, Note_on_c, 0, 71, 58
1, 350825, Note_on_c, 0, 74, 65
1, 350923, Note_on_c, 0, 65, 63
1, 350928, Note_off_c, 0, 68, 51
1, 350948, Note_off_c, 0, 74, 51
1, 350949, Note_off_c, 0, 71, 59
1, 351084, Note_on_c, 0, 86, 96
1, 351089, Note_off_c, 0, 65, 58
1, 351096, Note_on_c, 0, 68, 58
1, 351097, Note_on_c, 0, 71, 48
1, 351099, Note_on_c, 0, 74, 56
1, 351186, Note_off_c, 0, 74, 60
1, 351189, Note_off_c, 0, 68, 58
1, 351212, Note_on_c, 0, 65, 65
1, 351217, Note_off_c, 0, 71, 60
1, 351322, Note_off_c, 0, 65, 59
1, 351330, Note_on_c, 0, 68, 57
1, 351333, Note_on_c, 0, 74, 58
1, 351339, Note_on_c, 0, 71, 57
1, 351426, Note_off_c, 0, 68, 57
1, 351434, Note_on_c, 0, 65, 70
1, 351434, Note_off_c, 0, 74, 60
1, 351448, Note_off_c, 0, 71, 62
1, 351554, Note_on_c, 0, 68, 66
1, 351562, Note_on_c, 0, 74, 63
1, 351564, Note_off_c, 0, 65, 59
1, 351566, Note_on_c, 0, 71, 66
1, 351596, Note_off_c, 0, 83, 0
1, 351626, Note_off_c, 0, 86, 48
1, 351633, Poly_aftertouch_c, 0, 83, 127
1, 351661, Note_off_c, 0, 68, 59
1, 351673, Note_on_c, 0, 65, 74
1, 351679, Note_off_c, 0, 74, 59
1, 351686, Note_off_c, 0, 71, 59
1, 351756, Poly_aftertouch_c, 0, 83, 0
1, 351786, Note_on_c, 0, 86, 93
1, 351798, Note_on_c, 0, 68, 65
1, 351802, Note_on_c, 0, 74, 65
1, 351805, Note_on_c, 0, 71, 67
1, 351809, Note_off_c, 0, 65, 58
1, 351891, Note_off_c, 0, 74, 61
1, 351894, Note_off_c, 0, 68, 60
1, 351908, Note_off_c, 0, 71, 62
1, 351912, Note_on_c, 0, 65, 69
1, 352017, Note_off_c, 0, 65, 60
1, 352030, Note_on_c, 0, 74, 57
1, 352034, Note_on_c, 0, 71, 60
1, 352043, Note_on_c, 0, 83, 98
1, 352049, Note_on_c, 0, 68, 42
1, 352050, Note_off_c, 0, 86, 62
1, 352099, Note_off_c, 0, 71, 55
1, 352112, Note_off_c, 0, 68, 53
1, 352126, Note_off_c, 0, 74, 60
1, 352132, Note_on_c, 0, 84, 107
1, 352137, Control_c, 0, 64, 75
1, 352151, Note_on_c, 0, 64, 70
1, 352152, Control_c, 0, 64, 57
1, 352167, Control_c, 0, 64, 39
1, 352180, Note_off_c, 0, 83, 57
1, 352182, Control_c, 0, 64, 38
1, 352211, Control_c, 0, 64, 42
1, 352226, Control_c, 0, 64, 56
1, 352240, Control_c, 0, 64, 66
1, 352255, Control_c, 0, 64, 83
1, 352270, Control_c, 0, 64, 127
1, 352289, Note_off_c, 0, 64, 52
1, 352292, Note_on_c, 0, 76, 74
1, 352297, Note_on_c, 0, 72, 63
1, 352301, Note_on_c, 0, 67, 65
1, 352394, Note_on_c, 0, 64, 80
1, 352396, Note_off_c, 0, 67, 53
1, 352397, Note_off_c, 0, 76, 61
1, 352426, Note_off_c, 0, 72, 63
1, 352529, Note_on_c, 0, 88, 94
1, 352547, Note_on_c, 0, 76, 73
1, 352551, Note_off_c, 0, 84, 65
1, 352552, Note_on_c, 0, 72, 68
1, 352558, Note_off_c, 0, 64, 57
1, 352561, Note_on_c, 0, 67, 62
1, 352645, Note_off_c, 0, 67, 58
1, 352660, Note_on_c, 0, 64, 78
1, 352664, Note_off_c, 0, 76, 62
1, 352679, Note_off_c, 0, 72, 62
1, 352781, Note_off_c, 0, 64, 55
1, 352785, Note_on_c, 0, 67, 60
1, 352790, Note_on_c, 0, 76, 75
1, 352798, Note_on_c, 0, 72, 67
1, 352887, Note_on_c, 0, 64, 78
1, 352896, Note_off_c, 0, 76, 61
1, 352914, Note_off_c, 0, 67, 39
1, 352916, Note_off_c, 0, 72, 63
1, 353015, Note_on_c, 0, 76, 74
1, 353027, Note_on_c, 0, 72, 60
1, 353027, Note_off_c, 0, 64, 57
1, 353029, Note_on_c, 0, 67, 50
1, 353069, Note_on_c, 0, 68, 17
1, 353109, Note_off_c, 0, 68, 29
1, 353119, Note_off_c, 0, 67, 59
1, 353127, Note_on_c, 0, 64, 75
1, 353129, Note_off_c, 0, 76, 62
1, 353150, Note_off_c, 0, 72, 63
1, 353220, Note_on_c, 0, 91, 94
1, 353228, Note_on_c, 0, 79, 85
1, 353247, Note_off_c, 0, 88, 48
1, 353250, Note_on_c, 0, 67, 51
1, 353251, Note_off_c, 0, 64, 58
1, 353253, Note_on_c, 0, 76, 69
1, 353275, Note_on_c, 0, 72, 64
1, 353337, Note_off_c, 0, 67, 62
1, 353343, Note_off_c, 0, 72, 62
1, 353348, Note_off_c, 0, 76, 61
1, 353351, Note_on_c, 0, 64, 63
1, 353379, Note_off_c, 0, 79, 62
1, 353388, Note_off_c, 0, 91, 59
1, 353444, Note_on_c, 0, 76, 59
1, 353453, Note_off_c, 0, 64, 58
1, 353456, Note_on_c, 0, 72, 57
1, 353459, Note_on_c, 0, 67, 53
1, 353474, Note_off_c, 0, 76, 65
1, 353482, Note_off_c, 0, 72, 66
1, 353485, Note_on_c, 0, 89, 87
1, 353487, Note_on_c, 0, 77, 86
1, 353496, Note_off_c, 0, 67, 64
1, 353532, Note_off_c, 0, 77, 63
1, 353539, Note_off_c, 0, 89, 64
1, 353587, Note_on_c, 0, 88, 95
1, 353589, Note_on_c, 0, 58, 78
1, 353589, Note_on_c, 0, 76, 88
1, 353621, Control_c, 0, 64, 83
1, 353635, Control_c, 0, 64, 62
1, 353650, Control_c, 0, 64, 33
1, 353665, Control_c, 0, 64, 22
1, 353680, Control_c, 0, 64, 21
1, 353694, Control_c, 0, 64, 21
1, 353708, Note_on_c, 0, 67, 73
1, 353709, Note_on_c, 0, 64, 65
1, 353709, Control_c, 0, 64, 39
1, 353710, Note_off_c, 0, 58, 60
1, 353715, Note_on_c, 0, 61, 69
1, 353724, Control_c, 0, 64, 59
1, 353739, Control_c, 0, 64, 70
1, 353754, Control_c, 0, 64, 91
1, 353769, Control_c, 0, 64, 127
1, 353802, Note_on_c, 0, 58, 84
1, 353816, Note_off_c, 0, 61, 57
1, 353816, Note_off_c, 0, 67, 61
1, 353822, Note_off_c, 0, 64, 61
1, 353843, Note_off_c, 0, 76, 57
1, 353971, Note_on_c, 0, 91, 103
1, 353977, Note_on_c, 0, 64, 60
1, 353977, Note_on_c, 0, 79, 95
1, 353980, Note_on_c, 0, 61, 63
1, 353980, Note_on_c, 0, 67, 72
1, 353993, Note_off_c, 0, 58, 59
1, 353999, Note_off_c, 0, 88, 65
1, 354109, Note_on_c, 0, 58, 77
1, 354109, Note_off_c, 0, 61, 58
1, 354114, Note_off_c, 0, 67, 60
1, 354132, Note_off_c, 0, 64, 59
1, 354237, Note_on_c, 0, 61, 61
1, 354240, Note_off_c, 0, 58, 58
1, 354245, Note_on_c, 0, 67, 69
1, 354247, Note_on_c, 0, 64, 65
1, 354300, Note_off_c, 0, 91, 54
1, 354338, Note_on_c, 0, 58, 81
1, 354339, Note_off_c, 0, 61, 60
1, 354352, Note_off_c, 0, 67, 61
1, 354353, Note_off_c, 0, 64, 58
1, 354462, Note_on_c, 0, 61, 64
1, 354468, Note_on_c, 0, 64, 67
1, 354470, Note_off_c, 0, 58, 59
1, 354471, Note_on_c, 0, 67, 74
1, 354559, Note_off_c, 0, 61, 60
1, 354561, Note_on_c, 0, 58, 78
1, 354568, Note_off_c, 0, 67, 61
1, 354582, Note_off_c, 0, 64, 60
1, 354585, Note_off_c, 0, 79, 38
1, 354694, Note_on_c, 0, 61, 61
1, 354696, Note_on_c, 0, 91, 101
1, 354701, Note_on_c, 0, 79, 86
1, 354702, Note_on_c, 0, 67, 62
1, 354703, Note_on_c, 0, 64, 59
1, 354713, Note_off_c, 0, 58, 58
1, 354714, Note_on_c, 0, 84, 58
1, 354738, Note_off_c, 0, 84, 58
1, 354797, Note_off_c, 0, 67, 59
1, 354801, Note_off_c, 0, 61, 59
1, 354803, Note_on_c, 0, 58, 70
1, 354816, Note_off_c, 0, 64, 59
1, 354850, Note_off_c, 0, 79, 63
1, 354872, Note_off_c, 0, 91, 60
1, 354895, Note_on_c, 0, 84, 11
1, 354941, Note_on_c, 0, 61, 45
1, 354946, Note_off_c, 0, 84, 36
1, 354947, Note_on_c, 0, 64, 58
1, 354947, Note_on_c, 0, 67, 61
1, 354947, Note_off_c, 0, 58, 59
1, 354957, Note_on_c, 0, 88, 92
1, 354966, Note_on_c, 0, 76, 80
1, 355001, Note_off_c, 0, 76, 62
1, 355019, Note_off_c, 0, 67, 59
1, 355035, Note_off_c, 0, 64, 60
1, 355059, Note_on_c, 0, 89, 105
1, 355061, Note_on_c, 0, 77, 97
1, 355067, Note_on_c, 0, 56, 83
1, 355087, Control_c, 0, 64, 86
1, 355092, Note_off_c, 0, 88, 63
1, 355102, Control_c, 0, 64, 59
1, 355118, Control_c, 0, 64, 12
1, 355120, Note_off_c, 0, 61, 26
1, 355132, Control_c, 0, 64, 0
1, 355177, Control_c, 0, 64, 31
1, 355192, Control_c, 0, 64, 64
1, 355194, Note_off_c, 0, 56, 61
1, 355201, Note_on_c, 0, 60, 60
1, 355206, Control_c, 0, 64, 84
1, 355212, Note_on_c, 0, 68, 85
1, 355215, Note_on_c, 0, 65, 70
1, 355221, Control_c, 0, 64, 127
1, 355304, Note_on_c, 0, 56, 87
1, 355309, Note_off_c, 0, 77, 60
1, 355315, Note_off_c, 0, 68, 61
1, 355336, Note_off_c, 0, 60, 60
1, 355336, Note_off_c, 0, 65, 63
1, 355453, Note_on_c, 0, 60, 70
1, 355454, Note_on_c, 0, 92, 107
1, 355456, Note_on_c, 0, 80, 100
1, 355460, Note_off_c, 0, 56, 59
1, 355462, Note_on_c, 0, 68, 84
1, 355471, Note_on_c, 0, 65, 61
1, 355547, Note_on_c, 0, 91, 61
1, 355587, Note_off_c, 0, 68, 59
1, 355589, Note_off_c, 0, 89, 54
1, 355594, Note_on_c, 0, 56, 75
1, 355596, Note_off_c, 0, 60, 58
1, 355628, Note_off_c, 0, 65, 60
1, 355632, Note_off_c, 0, 91, 56
1, 355699, Poly_aftertouch_c, 0, 86, 127
1, 355717, Note_on_c, 0, 60, 68
1, 355718, Note_off_c, 0, 56, 62
1, 355721, Note_on_c, 0, 68, 82
1, 355726, Note_on_c, 0, 65, 74
1, 355821, Note_on_c, 0, 56, 88
1, 355831, Note_off_c, 0, 60, 45
1, 355832, Note_off_c, 0, 68, 60
1, 355837, Note_off_c, 0, 65, 62
1, 355906, Note_off_c, 0, 92, 60
1, 355946, Note_on_c, 0, 60, 75
1, 355948, Note_off_c, 0, 56, 61
1, 355954, Note_on_c, 0, 68, 83
1, 355957, Note_on_c, 0, 65, 70
1, 356002, Note_off_c, 0, 80, 57
1, 356056, Note_off_c, 0, 68, 58
1, 356062, Note_on_c, 0, 56, 86
1, 356063, Note_off_c, 0, 60, 50
1, 356081, Note_off_c, 0, 65, 61
1, 356142, Poly_aftertouch_c, 0, 86, 0
1, 356148, Note_on_c, 0, 92, 114
1, 356153, Note_on_c, 0, 80, 96
1, 356172, Note_on_c, 0, 60, 80
1, 356179, Note_on_c, 0, 68, 90
1, 356180, Note_off_c, 0, 56, 61
1, 356188, Note_on_c, 0, 65, 69
1, 356190, Note_on_c, 0, 86, 34
1, 356277, Note_off_c, 0, 68, 62
1, 356278, Note_off_c, 0, 86, 0
1, 356278, Note_on_c, 0, 86, 10
1, 356294, Note_on_c, 0, 56, 85
1, 356296, Note_off_c, 0, 80, 58
1, 356299, Note_off_c, 0, 60, 61
1, 356323, Note_off_c, 0, 65, 62
1, 356351, Note_off_c, 0, 92, 58
1, 356376, Note_on_c, 0, 68, 90
1, 356377, Note_on_c, 0, 65, 63
1, 356386, Note_on_c, 0, 60, 76
1, 356411, Note_off_c, 0, 68, 61
1, 356414, Note_off_c, 0, 86, 37
1, 356422, Note_off_c, 0, 65, 64
1, 356438, Note_off_c, 0, 56, 63
1, 356441, Note_off_c, 0, 60, 65
1, 356453, Note_on_c, 0, 89, 105
1, 356457, Note_on_c, 0, 77, 104
1, 356568, Note_off_c, 0, 89, 61
1, 356597, Note_on_c, 0, 87, 20
1, 356607, Note_off_c, 0, 77, 62
1, 356639, Note_off_c, 0, 87, 45
1, 356674, Control_c, 0, 64, 78
1, 356688, Control_c, 0, 64, 47
1, 356699, Note_on_c, 0, 46, 100
1, 356699, Note_on_c, 0, 34, 95
1, 356703, Control_c, 0, 64, 0
1, 356725, Note_on_c, 0, 33, 64
1, 356749, Control_c, 0, 64, 46
1, 356764, Control_c, 0, 64, 71
1, 356778, Note_off_c, 0, 33, 40
1, 356778, Control_c, 0, 64, 127
1, 356828, Note_on_c, 0, 61, 81
1, 356832, Note_off_c, 0, 34, 61
1, 356855, Note_off_c, 0, 46, 62
1, 356891, Note_off_c, 0, 61, 62
1, 356899, Note_on_c, 0, 58, 78
1, 356966, Note_on_c, 0, 66, 82
1, 357013, Note_on_c, 0, 49, 68
1, 357040, Note_off_c, 0, 58, 62
1, 357072, Note_on_c, 0, 54, 82
1, 357106, Note_off_c, 0, 49, 62
1, 357122, Note_off_c, 0, 66, 59
1, 357133, Note_on_c, 0, 58, 102
1, 357176, Note_off_c, 0, 54, 65
1, 357241, Note_on_c, 0, 66, 80
1, 357295, Note_off_c, 0, 58, 52
1, 357304, Note_off_c, 0, 66, 62
1, 357307, Note_on_c, 0, 61, 88
1, 357373, Note_on_c, 0, 70, 89
1, 357408, Note_off_c, 0, 61, 58
1, 357410, Note_on_c, 0, 54, 71
1, 357460, Note_on_c, 0, 58, 82
1, 357480, Note_off_c, 0, 54, 64
1, 357492, Note_off_c, 0, 70, 58
1, 357533, Note_on_c, 0, 61, 95
1, 357566, Note_off_c, 0, 58, 63
1, 357629, Note_on_c, 0, 70, 82
1, 357663, Note_off_c, 0, 61, 58
1, 357678, Note_off_c, 0, 70, 64
1, 357683, Note_on_c, 0, 66, 82
1, 357740, Note_on_c, 0, 73, 88
1, 357795, Note_off_c, 0, 66, 52
1, 357807, Note_on_c, 0, 58, 71
1, 357856, Note_on_c, 0, 61, 85
1, 357863, Note_off_c, 0, 73, 61
1, 357888, Note_off_c, 0, 58, 62
1, 357921, Note_on_c, 0, 66, 95
1, 357954, Note_off_c, 0, 61, 61
1, 358000, Note_on_c, 0, 73, 79
1, 358043, Note_off_c, 0, 73, 67
1, 358046, Note_on_c, 0, 70, 87
1, 358085, Note_off_c, 0, 66, 46
1, 358101, Note_on_c, 0, 78, 91
1, 358137, Note_off_c, 0, 70, 58
1, 358165, Note_on_c, 0, 61, 74
1, 358217, Note_off_c, 0, 78, 62
1, 358218, Note_on_c, 0, 66, 80
1, 358252, Note_off_c, 0, 61, 61
1, 358286, Note_on_c, 0, 70, 98
1, 358299, Note_off_c, 0, 66, 63
1, 358361, Note_on_c, 0, 78, 89
1, 358404, Note_off_c, 0, 78, 66
1, 358413, Note_on_c, 0, 73, 89
1, 358446, Note_off_c, 0, 70, 60
1, 358472, Note_on_c, 0, 82, 90
1, 358516, Note_off_c, 0, 73, 62
1, 358551, Note_on_c, 0, 66, 76
1, 358588, Note_on_c, 0, 70, 85
1, 358597, Note_off_c, 0, 82, 61
1, 358622, Note_off_c, 0, 66, 61
1, 358628, Note_on_c, 0, 68, 7
1, 358659, Note_on_c, 0, 73, 99
1, 358690, Note_off_c, 0, 68, 49
1, 358693, Note_off_c, 0, 70, 65
1, 358723, Note_on_c, 0, 82, 87
1, 358771, Note_off_c, 0, 82, 66
1, 358771, Note_on_c, 0, 78, 89
1, 358784, Note_off_c, 0, 73, 57
1, 358833, Note_on_c, 0, 85, 82
1, 358872, Note_off_c, 0, 78, 56
1, 358883, Note_on_c, 0, 70, 77
1, 358929, Note_on_c, 0, 73, 86
1, 358944, Note_off_c, 0, 85, 63
1, 358960, Note_off_c, 0, 70, 63
1, 358994, Note_on_c, 0, 78, 100
1, 359012, Note_off_c, 0, 73, 61
1, 359048, Note_on_c, 0, 85, 91
1, 359061, Note_off_c, 0, 78, 63
1, 359090, Note_off_c, 0, 85, 67
1, 359101, Note_on_c, 0, 82, 96
1, 359155, Note_on_c, 0, 90, 103
1, 359191, Note_on_c, 0, 91, 48
1, 359194, Note_off_c, 0, 82, 64
1, 359216, Note_off_c, 0, 91, 57
1, 359224, Note_on_c, 0, 73, 81
1, 359260, Note_off_c, 0, 90, 62
1, 359271, Note_on_c, 0, 78, 83
1, 359309, Note_off_c, 0, 73, 62
1, 359337, Note_on_c, 0, 82, 100
1, 359349, Note_on_c, 0, 79, 15
1, 359455, Note_off_c, 0, 82, 66
1, 359468, Note_on_c, 0, 90, 102
1, 359486, Note_off_c, 0, 79, 43
1, 359501, Note_off_c, 0, 78, 63
1, 359528, Note_on_c, 0, 85, 85
1, 359529, Note_off_c, 0, 90, 63
1, 359586, Note_on_c, 0, 94, 112
1, 359629, Note_off_c, 0, 85, 62
1, 359665, Note_off_c, 0, 94, 65
1, 359847, Control_c, 0, 64, 97
1, 359856, Note_on_c, 0, 48, 102
1, 359859, Note_on_c, 0, 36, 83
1, 359862, Control_c, 0, 64, 62
1, 359877, Control_c, 0, 64, 0
1, 359936, Control_c, 0, 64, 61
1, 359942, Note_on_c, 0, 63, 80
1, 359951, Control_c, 0, 64, 81
1, 359960, Note_off_c, 0, 36, 62
1, 359966, Control_c, 0, 64, 127
1, 359990, Note_off_c, 0, 48, 64
1, 360010, Note_off_c, 0, 63, 64
1, 360024, Note_on_c, 0, 60, 76
1, 360094, Note_on_c, 0, 69, 84
1, 360145, Note_off_c, 0, 60, 60
1, 360170, Note_on_c, 0, 51, 79
1, 360185, Note_off_c, 0, 69, 62
1, 360223, Note_on_c, 0, 57, 73
1, 360252, Note_on_c, 0, 60, 94
1, 360299, Note_off_c, 0, 57, 63
1, 360306, Note_off_c, 0, 51, 63
1, 360315, Note_on_c, 0, 69, 64
1, 360366, Note_off_c, 0, 60, 61
1, 360392, Note_on_c, 0, 63, 73
1, 360413, Note_off_c, 0, 69, 61
1, 360453, Note_on_c, 0, 72, 83
1, 360491, Note_off_c, 0, 63, 60
1, 360501, Note_on_c, 0, 57, 77
1, 360538, Note_off_c, 0, 72, 63
1, 360561, Note_on_c, 0, 60, 81
1, 360568, Note_off_c, 0, 57, 63
1, 360614, Note_on_c, 0, 63, 93
1, 360644, Note_off_c, 0, 60, 62
1, 360700, Note_on_c, 0, 72, 81
1, 360753, Note_on_c, 0, 69, 80
1, 360756, Note_off_c, 0, 72, 64
1, 360758, Note_off_c, 0, 63, 59
1, 360816, Note_on_c, 0, 75, 88
1, 360865, Note_on_c, 0, 60, 76
1, 360874, Note_off_c, 0, 69, 59
1, 360926, Note_off_c, 0, 75, 60
1, 360930, Note_on_c, 0, 63, 84
1, 360935, Note_off_c, 0, 60, 65
1, 360994, Note_on_c, 0, 69, 95
1, 361027, Note_off_c, 0, 63, 63
1, 361062, Note_on_c, 0, 75, 79
1, 361094, Note_off_c, 0, 69, 59
1, 361108, Note_off_c, 0, 75, 62
1, 361109, Note_on_c, 0, 72, 93
1, 361173, Note_on_c, 0, 81, 84
1, 361236, Note_on_c, 0, 63, 76
1, 361236, Note_off_c, 0, 72, 60
1, 361278, Note_off_c, 0, 81, 63
1, 361282, Note_on_c, 0, 69, 80
1, 361343, Note_on_c, 0, 72, 93
1, 361373, Note_off_c, 0, 63, 61
1, 361382, Note_off_c, 0, 69, 61
1, 361388, Note_on_c, 0, 81, 79
1, 361442, Note_off_c, 0, 72, 63
1, 361450, Note_on_c, 0, 75, 86
1, 361466, Note_off_c, 0, 81, 63
1, 361525, Note_on_c, 0, 84, 94
1, 361537, Note_off_c, 0, 75, 62
1, 361564, Note_on_c, 0, 69, 82
1, 361608, Note_off_c, 0, 84, 61
1, 361609, Poly_aftertouch_c, 0, 85, 127
1, 361625, Note_on_c, 0, 72, 82
1, 361628, Note_off_c, 0, 69, 64
1, 361649, Poly_aftertouch_c, 0, 85, 0
1, 361684, Note_on_c, 0, 75, 96
1, 361701, Note_off_c, 0, 72, 62
1, 361739, Note_on_c, 0, 84, 87
1, 361795, Note_off_c, 0, 75, 59
1, 361796, Note_on_c, 0, 81, 81
1, 361796, Note_off_c, 0, 84, 65
1, 361851, Note_on_c, 0, 87, 92
1, 361880, Note_off_c, 0, 81, 61
1, 361910, Note_on_c, 0, 72, 73
1, 361953, Note_off_c, 0, 87, 63
1, 361957, Note_on_c, 0, 75, 91
1, 361969, Note_off_c, 0, 72, 63
1, 362024, Note_on_c, 0, 81, 90
1, 362035, Note_off_c, 0, 75, 60
1, 362051, Note_on_c, 0, 87, 91
1, 362093, Note_off_c, 0, 81, 65
1, 362102, Note_on_c, 0, 84, 96
1, 362106, Note_off_c, 0, 87, 66
1, 362157, Note_on_c, 0, 93, 90
1, 362201, Note_off_c, 0, 84, 62
1, 362231, Note_off_c, 0, 93, 67
1, 362255, Note_on_c, 0, 75, 73
1, 362300, Note_on_c, 0, 81, 78
1, 362351, Note_off_c, 0, 75, 59
1, 362363, Note_on_c, 0, 84, 105
1, 362467, Note_off_c, 0, 84, 60
1, 362498, Note_off_c, 0, 81, 62
1, 362504, Note_on_c, 0, 94, 111
1, 362543, Note_on_c, 0, 93, 85
1, 362583, Note_on_c, 0, 87, 96
1, 362589, Note_off_c, 0, 94, 63
1, 362595, Note_off_c, 0, 93, 66
1, 362629, Note_on_c, 0, 96, 97
1, 362659, Note_off_c, 0, 87, 65
1, 362687, Note_off_c, 0, 96, 67
1, 362816, Poly_aftertouch_c, 0, 49, 0
1, 362827, Control_c, 0, 64, 69
1, 362842, Control_c, 0, 64, 35
1, 362843, Note_on_c, 0, 49, 91
1, 362849, Note_on_c, 0, 37, 90
1, 362857, Control_c, 0, 64, 0
1, 362901, Control_c, 0, 64, 27
1, 362916, Control_c, 0, 64, 61
1, 362930, Control_c, 0, 64, 77
1, 362931, Note_on_c, 0, 65, 76
1, 362945, Control_c, 0, 64, 127
1, 362959, Note_off_c, 0, 37, 62
1, 362983, Note_off_c, 0, 49, 62
1, 363001, Note_off_c, 0, 65, 64
1, 363006, Note_on_c, 0, 61, 74
1, 363072, Note_on_c, 0, 70, 84
1, 363094, Note_off_c, 0, 61, 60
1, 363128, Note_on_c, 0, 53, 76
1, 363160, Note_off_c, 0, 70, 61
1, 363188, Note_on_c, 0, 58, 85
1, 363194, Note_off_c, 0, 53, 64
1, 363244, Note_on_c, 0, 61, 93
1, 363317, Note_on_c, 0, 70, 79
1, 363330, Note_off_c, 0, 58, 61
1, 363330, Note_off_c, 0, 61, 64
1, 363361, Note_on_c, 0, 65, 89
1, 363372, Note_off_c, 0, 70, 64
1, 363424, Note_on_c, 0, 73, 90
1, 363494, Note_off_c, 0, 65, 60
1, 363517, Note_off_c, 0, 73, 60
1, 363531, Control_c, 0, 64, 102
1, 363546, Control_c, 0, 64, 70
1, 363561, Control_c, 0, 64, 35
1, 363576, Control_c, 0, 64, 0
1, 363619, Note_on_c, 0, 52, 94
1, 363622, Note_on_c, 0, 40, 85
1, 363664, Control_c, 0, 64, 64
1, 363679, Control_c, 0, 64, 85
1, 363688, Note_on_c, 0, 67, 76
1, 363694, Control_c, 0, 64, 127
1, 363710, Note_off_c, 0, 40, 63
1, 363752, Note_off_c, 0, 52, 65
1, 363752, Note_off_c, 0, 67, 62
1, 363765, Note_on_c, 0, 64, 78
1, 363829, Note_on_c, 0, 72, 80
1, 363844, Note_off_c, 0, 64, 63
1, 363879, Note_on_c, 0, 55, 78
1, 363908, Note_off_c, 0, 72, 64
1, 363936, Note_on_c, 0, 60, 82
1, 363951, Note_off_c, 0, 55, 63
1, 363995, Note_on_c, 0, 64, 87
1, 364026, Note_off_c, 0, 60, 64
1, 364065, Note_on_c, 0, 72, 82
1, 364086, Note_off_c, 0, 64, 65
1, 364109, Note_off_c, 0, 72, 62
1, 364124, Note_on_c, 0, 67, 86
1, 364180, Note_on_c, 0, 76, 86
1, 364266, Note_off_c, 0, 76, 61
1, 364280, Note_off_c, 0, 67, 57
1, 364309, Control_c, 0, 64, 81
1, 364324, Control_c, 0, 64, 51
1, 364339, Control_c, 0, 64, 0
1, 364359, Note_on_c, 0, 53, 99
1, 364362, Note_on_c, 0, 41, 90
1, 364399, Control_c, 0, 64, 43
1, 364414, Control_c, 0, 64, 69
1, 364428, Note_off_c, 0, 41, 65
1, 364428, Control_c, 0, 64, 110
1, 364430, Note_on_c, 0, 68, 79
1, 364443, Control_c, 0, 64, 127
1, 364464, Note_off_c, 0, 53, 63
1, 364495, Note_on_c, 0, 65, 80
1, 364495, Note_off_c, 0, 68, 62
1, 364557, Note_on_c, 0, 73, 83
1, 364607, Note_off_c, 0, 65, 58
1, 364638, Note_on_c, 0, 57, 65
1, 364643, Note_on_c, 0, 56, 30
1, 364664, Note_on_c, 0, 61, 80
1, 364667, Note_off_c, 0, 73, 63
1, 364669, Note_off_c, 0, 57, 65
1, 364679, Note_off_c, 0, 56, 47
1, 364736, Note_on_c, 0, 65, 89
1, 364777, Note_off_c, 0, 61, 62
1, 364783, Note_on_c, 0, 73, 75
1, 364793, Note_off_c, 0, 65, 62
1, 364831, Note_off_c, 0, 73, 65
1, 364840, Note_on_c, 0, 68, 84
1, 364899, Note_on_c, 0, 77, 89
1, 365026, Note_off_c, 0, 77, 56
1, 365029, Control_c, 0, 64, 108
1, 365044, Control_c, 0, 64, 66
1, 365049, Note_off_c, 0, 68, 56
1, 365059, Control_c, 0, 64, 0
1, 365069, Note_on_c, 0, 55, 97
1, 365072, Note_on_c, 0, 43, 83
1, 365117, Control_c, 0, 64, 34
1, 365132, Control_c, 0, 64, 65
1, 365145, Note_on_c, 0, 70, 76
1, 365147, Control_c, 0, 64, 105
1, 365152, Note_off_c, 0, 43, 64
1, 365162, Control_c, 0, 64, 127
1, 365182, Note_off_c, 0, 55, 63
1, 365218, Note_on_c, 0, 67, 81
1, 365224, Note_off_c, 0, 70, 64
1, 365275, Note_on_c, 0, 76, 77
1, 365297, Note_off_c, 0, 67, 63
1, 365340, Note_on_c, 0, 58, 69
1, 365352, Note_off_c, 0, 76, 64
1, 365393, Note_on_c, 0, 64, 72
1, 365445, Note_on_c, 0, 67, 84
1, 365472, Note_off_c, 0, 58, 56
1, 365502, Note_off_c, 0, 67, 63
1, 365505, Note_off_c, 0, 64, 59
1, 365510, Note_on_c, 0, 76, 72
1, 365565, Note_off_c, 0, 76, 65
1, 365569, Note_on_c, 0, 70, 68
1, 365631, Note_on_c, 0, 79, 70
1, 365690, Note_off_c, 0, 79, 62
1, 365704, Note_off_c, 0, 70, 53
1, 365793, Control_c, 0, 64, 117
1, 365808, Control_c, 0, 64, 69
1, 365821, Note_on_c, 0, 44, 70
1, 365822, Control_c, 0, 64, 47
1, 365837, Control_c, 0, 64, 34
1, 365867, Control_c, 0, 64, 37
1, 365882, Control_c, 0, 64, 50
1, 365883, Note_on_c, 0, 72, 52
1, 365896, Control_c, 0, 64, 65
1, 365911, Control_c, 0, 64, 80
1, 365922, Note_off_c, 0, 44, 62
1, 365926, Control_c, 0, 64, 127
1, 365940, Note_off_c, 0, 72, 62
1, 365952, Note_on_c, 0, 68, 67
1, 366011, Note_on_c, 0, 77, 68
1, 366057, Note_on_c, 0, 56, 62
1, 366083, Note_off_c, 0, 68, 53
1, 366097, Note_off_c, 0, 77, 58
1, 366119, Note_on_c, 0, 60, 67
1, 366135, Note_off_c, 0, 56, 62
1, 366147, Note_off_c, 0, 60, 65
1, 366185, Note_on_c, 0, 46, 89
1, 366185, Control_c, 0, 64, 110
1, 366200, Control_c, 0, 64, 72
1, 366215, Control_c, 0, 64, 55
1, 366229, Control_c, 0, 64, 44
1, 366244, Control_c, 0, 64, 46
1, 366256, Note_on_c, 0, 73, 65
1, 366259, Control_c, 0, 64, 51
1, 366274, Control_c, 0, 64, 62
1, 366290, Control_c, 0, 64, 71
1, 366291, Note_off_c, 0, 73, 66
1, 366300, Note_on_c, 0, 70, 78
1, 366304, Note_off_c, 0, 46, 61
1, 366305, Control_c, 0, 64, 92
1, 366319, Control_c, 0, 64, 127
1, 366378, Note_on_c, 0, 79, 76
1, 366416, Note_on_c, 0, 58, 56
1, 366441, Note_off_c, 0, 58, 59
1, 366455, Note_off_c, 0, 70, 54
1, 366464, Note_on_c, 0, 57, 30
1, 366470, Note_off_c, 0, 79, 58
1, 366476, Note_on_c, 0, 61, 78
1, 366500, Note_off_c, 0, 57, 47
1, 366516, Note_off_c, 0, 61, 60
1, 366542, Control_c, 0, 64, 77
1, 366548, Note_on_c, 0, 48, 91
1, 366557, Control_c, 0, 64, 55
1, 366571, Control_c, 0, 64, 45
1, 366586, Control_c, 0, 64, 46
1, 366601, Control_c, 0, 64, 50
1, 366614, Note_on_c, 0, 75, 66
1, 366616, Control_c, 0, 64, 59
1, 366631, Control_c, 0, 64, 68
1, 366645, Control_c, 0, 64, 87
1, 366647, Note_off_c, 0, 48, 61
1, 366650, Note_off_c, 0, 75, 64
1, 366660, Control_c, 0, 64, 127
1, 366664, Note_on_c, 0, 72, 81
1, 366721, Note_on_c, 0, 81, 72
1, 366780, Note_on_c, 0, 60, 66
1, 366816, Note_off_c, 0, 72, 60
1, 366826, Note_off_c, 0, 81, 60
1, 366837, Note_off_c, 0, 60, 64
1, 366839, Note_on_c, 0, 63, 76
1, 366888, Note_off_c, 0, 63, 63
1, 366890, Control_c, 0, 64, 97
1, 366895, Note_on_c, 0, 49, 89
1, 366904, Control_c, 0, 64, 69
1, 366919, Control_c, 0, 64, 54
1, 366949, Control_c, 0, 64, 56
1, 366955, Note_on_c, 0, 77, 80
1, 366964, Control_c, 0, 64, 61
1, 366978, Control_c, 0, 64, 68
1, 366989, Note_off_c, 0, 49, 64
1, 366993, Control_c, 0, 64, 83
1, 367006, Note_on_c, 0, 73, 85
1, 367007, Note_off_c, 0, 77, 63
1, 367008, Control_c, 0, 64, 127
1, 367064, Note_on_c, 0, 82, 86
1, 367150, Note_on_c, 0, 62, 64
1, 367163, Note_off_c, 0, 73, 34
1, 367182, Note_off_c, 0, 62, 67
1, 367183, Note_off_c, 0, 82, 55
1, 367187, Note_on_c, 0, 65, 80
1, 367239, Note_off_c, 0, 65, 61
1, 367246, Control_c, 0, 64, 86
1, 367260, Control_c, 0, 64, 64
1, 367263, Note_on_c, 0, 52, 89
1, 367275, Control_c, 0, 64, 50
1, 367290, Control_c, 0, 64, 49
1, 367305, Control_c, 0, 64, 51
1, 367319, Note_on_c, 0, 79, 75
1, 367320, Control_c, 0, 64, 56
1, 367335, Control_c, 0, 64, 64
1, 367350, Control_c, 0, 64, 75
1, 367356, Note_off_c, 0, 52, 63
1, 367365, Control_c, 0, 64, 99
1, 367377, Note_off_c, 0, 79, 66
1, 367380, Control_c, 0, 64, 127
1, 367381, Note_on_c, 0, 76, 82
1, 367431, Note_on_c, 0, 84, 82
1, 367496, Note_on_c, 0, 64, 77
1, 367520, Note_off_c, 0, 76, 54
1, 367546, Note_on_c, 0, 67, 83
1, 367548, Note_off_c, 0, 84, 57
1, 367549, Note_off_c, 0, 64, 62
1, 367598, Note_off_c, 0, 67, 63
1, 367609, Control_c, 0, 64, 78
1, 367620, Note_on_c, 0, 53, 96
1, 367624, Control_c, 0, 64, 61
1, 367639, Control_c, 0, 64, 49
1, 367654, Control_c, 0, 64, 51
1, 367668, Control_c, 0, 64, 55
1, 367675, Note_on_c, 0, 80, 80
1, 367683, Control_c, 0, 64, 62
1, 367698, Control_c, 0, 64, 69
1, 367712, Note_off_c, 0, 53, 63
1, 367713, Control_c, 0, 64, 87
1, 367727, Control_c, 0, 64, 127
1, 367728, Note_off_c, 0, 80, 66
1, 367732, Note_on_c, 0, 77, 90
1, 367791, Note_on_c, 0, 85, 86
1, 367835, Note_on_c, 0, 65, 73
1, 367893, Note_off_c, 0, 77, 57
1, 367899, Note_on_c, 0, 68, 82
1, 367903, Note_off_c, 0, 65, 63
1, 367922, Note_off_c, 0, 68, 70
1, 367924, Note_off_c, 0, 85, 62
1, 367950, Control_c, 0, 64, 96
1, 367965, Control_c, 0, 64, 67
1, 367970, Note_on_c, 0, 55, 97
1, 367980, Control_c, 0, 64, 50
1, 367995, Control_c, 0, 64, 49
1, 368010, Control_c, 0, 64, 50
1, 368024, Control_c, 0, 64, 55
1, 368030, Note_on_c, 0, 82, 80
1, 368039, Control_c, 0, 64, 64
1, 368054, Control_c, 0, 64, 75
1, 368056, Note_off_c, 0, 55, 65
1, 368069, Control_c, 0, 64, 114
1, 368077, Note_on_c, 0, 79, 88
1, 368082, Note_off_c, 0, 82, 66
1, 368083, Control_c, 0, 64, 127
1, 368135, Note_on_c, 0, 88, 84
1, 368196, Note_on_c, 0, 67, 65
1, 368241, Note_off_c, 0, 79, 61
1, 368247, Note_on_c, 0, 70, 81
1, 368257, Note_off_c, 0, 67, 61
1, 368271, Note_off_c, 0, 88, 61
1, 368291, Note_off_c, 0, 70, 66
1, 368316, Note_on_c, 0, 56, 97
1, 368328, Control_c, 0, 64, 75
1, 368342, Control_c, 0, 64, 58
1, 368357, Control_c, 0, 64, 48
1, 368372, Note_on_c, 0, 84, 80
1, 368372, Control_c, 0, 64, 51
1, 368387, Control_c, 0, 64, 57
1, 368396, Note_off_c, 0, 56, 65
1, 368402, Control_c, 0, 64, 63
1, 368417, Control_c, 0, 64, 76
1, 368422, Note_on_c, 0, 80, 79
1, 368428, Note_off_c, 0, 84, 66
1, 368432, Control_c, 0, 64, 127
1, 368490, Note_on_c, 0, 89, 87
1, 368530, Note_on_c, 0, 68, 73
1, 368570, Note_off_c, 0, 80, 61
1, 368587, Note_off_c, 0, 68, 59
1, 368599, Note_on_c, 0, 72, 71
1, 368612, Poly_aftertouch_c, 0, 90, 0
1, 368619, Note_off_c, 0, 89, 54
1, 368620, Note_on_c, 0, 71, 42
1, 368628, Note_off_c, 0, 72, 63
1, 368645, Note_off_c, 0, 71, 55
1, 368654, Control_c, 0, 64, 85
1, 368661, Note_on_c, 0, 58, 98
1, 368669, Control_c, 0, 64, 63
1, 368684, Control_c, 0, 64, 50
1, 368700, Control_c, 0, 64, 52
1, 368714, Control_c, 0, 64, 57
1, 368729, Control_c, 0, 64, 63
1, 368733, Note_on_c, 0, 85, 78
1, 368744, Control_c, 0, 64, 72
1, 368748, Note_off_c, 0, 58, 64
1, 368759, Control_c, 0, 64, 95
1, 368773, Control_c, 0, 64, 127
1, 368780, Note_off_c, 0, 85, 66
1, 368787, Note_on_c, 0, 82, 92
1, 368854, Note_on_c, 0, 91, 91
1, 368891, Note_on_c, 0, 70, 74
1, 368903, Note_off_c, 0, 82, 54
1, 368954, Note_on_c, 0, 73, 87
1, 368957, Note_off_c, 0, 70, 62
1, 368995, Note_off_c, 0, 73, 64
1, 369020, Note_off_c, 0, 91, 55
1, 369024, Poly_aftertouch_c, 0, 69, 0
1, 369033, Control_c, 0, 64, 104
1, 369045, Note_on_c, 0, 60, 95
1, 369047, Control_c, 0, 64, 69
1, 369062, Control_c, 0, 64, 50
1, 369077, Control_c, 0, 64, 49
1, 369092, Control_c, 0, 64, 52
1, 369099, Note_on_c, 0, 87, 83
1, 369107, Control_c, 0, 64, 58
1, 369121, Control_c, 0, 64, 65
1, 369130, Note_off_c, 0, 60, 61
1, 369136, Control_c, 0, 64, 78
1, 369151, Control_c, 0, 64, 127
1, 369167, Note_on_c, 0, 84, 95
1, 369173, Note_off_c, 0, 87, 65
1, 369210, Note_on_c, 0, 93, 90
1, 369217, Note_on_c, 0, 83, 18
1, 369261, Note_off_c, 0, 83, 51
1, 369277, Note_on_c, 0, 72, 74
1, 369308, Note_off_c, 0, 84, 58
1, 369320, Note_on_c, 0, 75, 85
1, 369328, Note_off_c, 0, 72, 65
1, 369344, Note_off_c, 0, 93, 62
1, 369344, Control_c, 0, 64, 95
1, 369345, Note_off_c, 0, 75, 66
1, 369359, Control_c, 0, 64, 66
1, 369373, Control_c, 0, 64, 43
1, 369388, Control_c, 0, 64, 39
1, 369389, Note_on_c, 0, 61, 94
1, 369403, Control_c, 0, 64, 43
1, 369418, Control_c, 0, 64, 54
1, 369421, Note_on_c, 0, 60, 57
1, 369433, Control_c, 0, 64, 65
1, 369446, Note_off_c, 0, 60, 57
1, 369447, Control_c, 0, 64, 81
1, 369453, Note_on_c, 0, 89, 93
1, 369461, Note_off_c, 0, 61, 64
1, 369462, Control_c, 0, 64, 127
1, 369511, Note_on_c, 0, 85, 89
1, 369524, Note_off_c, 0, 89, 63
1, 369571, Note_on_c, 0, 94, 98
1, 369620, Note_on_c, 0, 73, 78
1, 369666, Note_off_c, 0, 85, 54
1, 369685, Note_on_c, 0, 77, 89
1, 369696, Note_off_c, 0, 73, 64
1, 369707, Note_off_c, 0, 77, 67
1, 369715, Control_c, 0, 64, 94
1, 369730, Control_c, 0, 64, 65
1, 369752, Control_c, 0, 64, 43
1, 369767, Control_c, 0, 64, 39
1, 369769, Note_on_c, 0, 61, 92
1, 369773, Note_off_c, 0, 94, 61
1, 369782, Control_c, 0, 64, 45
1, 369796, Control_c, 0, 64, 57
1, 369805, Note_on_c, 0, 65, 40
1, 369806, Note_off_c, 0, 65, 127
1, 369808, Note_on_c, 0, 64, 33
1, 369809, Note_off_c, 0, 64, 127
1, 369811, Control_c, 0, 64, 68
1, 369823, Note_on_c, 0, 89, 90
1, 369826, Control_c, 0, 64, 94
1, 369832, Note_off_c, 0, 61, 64
1, 369839, Poly_aftertouch_c, 0, 64, 0
1, 369841, Control_c, 0, 64, 127
1, 369894, Note_on_c, 0, 85, 92
1, 369901, Poly_aftertouch_c, 0, 63, 0
1, 369904, Note_off_c, 0, 89, 64
1, 369958, Note_on_c, 0, 94, 105
1, 370009, Note_on_c, 0, 73, 74
1, 370073, Note_on_c, 0, 77, 92
1, 370092, Note_off_c, 0, 73, 65
1, 370109, Note_off_c, 0, 77, 65
1, 370152, Control_c, 0, 64, 75
1, 370167, Control_c, 0, 64, 49
1, 370170, Note_on_c, 0, 61, 98
1, 370181, Control_c, 0, 64, 0
1, 370218, Note_off_c, 0, 85, 61
1, 370241, Control_c, 0, 64, 58
1, 370254, Note_off_c, 0, 94, 62
1, 370256, Control_c, 0, 64, 78
1, 370270, Control_c, 0, 64, 127
1, 370317, Note_off_c, 0, 61, 59
1, 370329, Note_on_c, 0, 73, 87
1, 370412, Note_on_c, 0, 77, 97
1, 370469, Note_off_c, 0, 73, 56
1, 370521, Note_on_c, 0, 89, 104
1, 370598, Note_off_c, 0, 77, 58
1, 370631, Note_on_c, 0, 85, 91
1, 370631, Note_off_c, 0, 89, 62
1, 370700, Note_on_c, 0, 94, 100
1, 370715, Note_off_c, 0, 85, 65
1, 370770, Note_on_c, 0, 89, 83
1, 370816, Note_off_c, 0, 94, 64
1, 370819, Note_on_c, 0, 85, 87
1, 370852, Note_off_c, 0, 89, 63
1, 370884, Note_on_c, 0, 82, 88
1, 370885, Note_off_c, 0, 85, 64
1, 370902, Note_off_c, 0, 82, 73
1, 370957, Note_on_c, 0, 78, 88
1, 370971, Note_off_c, 0, 78, 71
1, 370975, Note_on_c, 0, 77, 82
1, 371019, Note_on_c, 0, 73, 87
1, 371034, Note_off_c, 0, 77, 60
1, 371082, Note_on_c, 0, 82, 90
1, 371095, Note_off_c, 0, 73, 63
1, 371145, Note_on_c, 0, 77, 85
1, 371147, Poly_aftertouch_c, 0, 78, 0
1, 371193, Note_off_c, 0, 82, 61
1, 371194, Note_on_c, 0, 73, 83
1, 371216, Note_off_c, 0, 77, 62
1, 371251, Note_off_c, 0, 73, 63
1, 371261, Note_on_c, 0, 70, 80
1, 371282, Note_off_c, 0, 70, 72
1, 371344, Note_on_c, 0, 65, 78
1, 371399, Note_on_c, 0, 61, 82
1, 371401, Note_off_c, 0, 65, 62
1, 371461, Note_on_c, 0, 70, 90
1, 371474, Note_off_c, 0, 61, 61
1, 371526, Note_on_c, 0, 65, 76
1, 371568, Note_off_c, 0, 70, 63
1, 371571, Note_on_c, 0, 61, 77
1, 371604, Note_off_c, 0, 65, 63
1, 371630, Note_off_c, 0, 61, 61
1, 371633, Note_on_c, 0, 58, 78
1, 371658, Note_off_c, 0, 58, 66
1, 371708, Note_on_c, 0, 53, 83
1, 371766, Note_off_c, 0, 53, 61
1, 371767, Note_on_c, 0, 49, 80
1, 371827, Note_on_c, 0, 58, 71
1, 371841, Note_off_c, 0, 49, 63
1, 371886, Note_on_c, 0, 53, 76
1, 371896, Note_off_c, 0, 58, 62
1, 371954, Note_on_c, 0, 49, 75
1, 371954, Note_off_c, 0, 53, 63
1, 372024, Note_on_c, 0, 46, 81
1, 372030, Note_off_c, 0, 49, 64
1, 372083, Note_on_c, 0, 49, 63
1, 372088, Note_off_c, 0, 46, 64
1, 372104, Note_off_c, 0, 49, 71
1, 372143, Note_on_c, 0, 53, 87
1, 372208, Note_on_c, 0, 58, 86
1, 372216, Note_off_c, 0, 53, 60
1, 372257, Note_on_c, 0, 61, 79
1, 372268, Note_off_c, 0, 58, 64
1, 372285, Note_off_c, 0, 61, 68
1, 372325, Note_on_c, 0, 65, 91
1, 372384, Note_on_c, 0, 70, 84
1, 372398, Note_off_c, 0, 65, 55
1, 372423, Note_on_c, 0, 73, 81
1, 372442, Note_off_c, 0, 70, 67
1, 372474, Note_on_c, 0, 77, 92
1, 372486, Note_off_c, 0, 73, 65
1, 372540, Note_on_c, 0, 73, 80
1, 372561, Note_off_c, 0, 77, 60
1, 372579, Note_on_c, 0, 70, 89
1, 372590, Note_off_c, 0, 73, 65
1, 372640, Note_on_c, 0, 73, 79
1, 372646, Note_off_c, 0, 70, 69
1, 372669, Note_off_c, 0, 73, 65
1, 372712, Note_on_c, 0, 77, 89
1, 372772, Note_on_c, 0, 82, 91
1, 372795, Note_off_c, 0, 77, 61
1, 372822, Note_on_c, 0, 85, 75
1, 372832, Note_off_c, 0, 82, 66
1, 372862, Note_off_c, 0, 85, 64
1, 372875, Note_on_c, 0, 82, 89
1, 372936, Note_on_c, 0, 89, 82
1, 372951, Note_on_c, 0, 90, 67
1, 372955, Note_off_c, 0, 82, 65
1, 372981, Note_off_c, 0, 90, 48
1, 373009, Note_on_c, 0, 85, 94
1, 373022, Note_off_c, 0, 89, 63
1, 373066, Note_on_c, 0, 94, 101
1, 373086, Note_off_c, 0, 85, 63
1, 373109, Note_on_c, 0, 89, 73
1, 373158, Note_on_c, 0, 85, 90
1, 373195, Note_off_c, 0, 94, 63
1, 373208, Note_on_c, 0, 82, 99
1, 373221, Note_off_c, 0, 85, 64
1, 373235, Control_c, 0, 64, 101
1, 373250, Control_c, 0, 64, 55
1, 373265, Control_c, 0, 64, 0
1, 373270, Note_on_c, 0, 62, 96
1, 373276, Note_on_c, 0, 64, 85
1, 373279, Note_off_c, 0, 82, 63
1, 373294, Note_off_c, 0, 89, 62
1, 373324, Control_c, 0, 64, 42
1, 373338, Control_c, 0, 64, 73
1, 373353, Control_c, 0, 64, 127
1, 373416, Note_off_c, 0, 62, 60
1, 373425, Note_on_c, 0, 74, 82
1, 373427, Note_off_c, 0, 64, 60
1, 373519, Note_on_c, 0, 77, 94
1, 373579, Note_on_c, 0, 92, 101
1, 373657, Note_on_c, 0, 89, 98
1, 373669, Note_off_c, 0, 92, 66
1, 373708, Note_off_c, 0, 77, 59
1, 373719, Note_off_c, 0, 74, 59
1, 373723, Note_on_c, 0, 95, 94
1, 373729, Note_off_c, 0, 89, 65
1, 373735, Note_on_c, 0, 93, 67
1, 373752, Note_off_c, 0, 93, 66
1, 373774, Note_on_c, 0, 92, 93
1, 373817, Note_off_c, 0, 95, 64
1, 373819, Note_on_c, 0, 89, 89
1, 373857, Note_off_c, 0, 92, 66
1, 373875, Note_on_c, 0, 86, 90
1, 373879, Note_off_c, 0, 89, 63
1, 373919, Note_off_c, 0, 86, 66
1, 373954, Note_on_c, 0, 83, 89
1, 374004, Note_on_c, 0, 80, 88
1, 374015, Note_off_c, 0, 83, 64
1, 374060, Note_on_c, 0, 77, 91
1, 374066, Note_off_c, 0, 80, 63
1, 374113, Note_on_c, 0, 83, 90
1, 374128, Note_off_c, 0, 77, 63
1, 374163, Note_on_c, 0, 80, 84
1, 374194, Note_off_c, 0, 83, 64
1, 374212, Note_on_c, 0, 77, 88
1, 374251, Note_off_c, 0, 80, 63
1, 374278, Note_off_c, 0, 77, 63
1, 374280, Note_on_c, 0, 74, 79
1, 374319, Note_off_c, 0, 74, 61
1, 374349, Note_on_c, 0, 71, 86
1, 374410, Note_on_c, 0, 68, 84
1, 374416, Note_off_c, 0, 71, 63
1, 374477, Note_on_c, 0, 74, 76
1, 374482, Note_off_c, 0, 68, 61
1, 374498, Note_on_c, 0, 76, 47
1, 374499, Note_off_c, 0, 76, 127
1, 374521, Note_on_c, 0, 71, 80
1, 374559, Note_off_c, 0, 74, 61
1, 374569, Note_on_c, 0, 68, 80
1, 374575, Note_off_c, 0, 71, 62
1, 374622, Note_on_c, 0, 65, 83
1, 374622, Note_off_c, 0, 68, 61
1, 374659, Note_off_c, 0, 65, 61
1, 374697, Note_on_c, 0, 62, 77
1, 374755, Note_off_c, 0, 62, 57
1, 374760, Note_on_c, 0, 59, 83
1, 374823, Note_on_c, 0, 68, 82
1, 374825, Note_off_c, 0, 59, 61
1, 374884, Note_on_c, 0, 65, 77
1, 374904, Note_off_c, 0, 68, 61
1, 374932, Note_on_c, 0, 62, 78
1, 374962, Note_off_c, 0, 65, 62
1, 374990, Note_off_c, 0, 62, 63
1, 375002, Note_on_c, 0, 59, 79
1, 375045, Note_off_c, 0, 59, 60
1, 375073, Note_on_c, 0, 56, 81
1, 375127, Note_on_c, 0, 53, 78
1, 375160, Note_off_c, 0, 56, 63
1, 375172, Note_on_c, 0, 50, 79
1, 375201, Note_off_c, 0, 53, 63
1, 375237, Note_on_c, 0, 47, 79
1, 375243, Note_off_c, 0, 50, 63
1, 375297, Note_on_c, 0, 50, 70
1, 375298, Note_off_c, 0, 47, 64
1, 375380, Note_on_c, 0, 55, 68
1, 375381, Note_on_c, 0, 53, 71
1, 375393, Note_off_c, 0, 50, 62
1, 375425, Note_on_c, 0, 56, 70
1, 375440, Note_off_c, 0, 53, 63
1, 375450, Note_off_c, 0, 55, 63
1, 375461, Note_off_c, 0, 56, 65
1, 375493, Note_on_c, 0, 59, 80
1, 375551, Note_on_c, 0, 62, 83
1, 375557, Note_off_c, 0, 59, 64
1, 375611, Note_on_c, 0, 65, 82
1, 375648, Note_off_c, 0, 62, 63
1, 375662, Note_on_c, 0, 68, 78
1, 375678, Note_off_c, 0, 65, 66
1, 375707, Note_off_c, 0, 68, 61
1, 375729, Note_on_c, 0, 71, 95
1, 375786, Note_on_c, 0, 74, 91
1, 375790, Note_off_c, 0, 71, 66
1, 375838, Note_on_c, 0, 77, 83
1, 375884, Note_off_c, 0, 74, 64
1, 375888, Note_on_c, 0, 80, 88
1, 375916, Note_off_c, 0, 77, 65
1, 375938, Note_off_c, 0, 80, 65
1, 375955, Note_on_c, 0, 83, 106
1, 376012, Note_on_c, 0, 86, 95
1, 376018, Note_off_c, 0, 83, 66
1, 376064, Note_on_c, 0, 89, 94
1, 376096, Note_off_c, 0, 86, 66
1, 376120, Note_on_c, 0, 92, 87
1, 376145, Note_off_c, 0, 89, 65
1, 376169, Note_on_c, 0, 95, 99
1, 376181, Note_off_c, 0, 92, 68
1, 376227, Note_on_c, 0, 36, 97
1, 376245, Note_off_c, 0, 95, 66
1, 376275, Control_c, 0, 64, 81
1, 376290, Control_c, 0, 64, 58
1, 376304, Control_c, 0, 64, 0
1, 376564, Control_c, 0, 64, 47
1, 376579, Control_c, 0, 64, 63
1, 376593, Control_c, 0, 64, 74
1, 376608, Control_c, 0, 64, 127
1, 376632, Note_on_c, 0, 92, 107
1, 376665, Note_on_c, 0, 86, 53
1, 376689, Note_off_c, 0, 86, 62
1, 376782, Note_on_c, 0, 89, 101
1, 376794, Note_off_c, 0, 92, 63
1, 376871, Note_on_c, 0, 96, 102
1, 376887, Note_off_c, 0, 89, 64
1, 376952, Note_on_c, 0, 92, 95
1, 376978, Note_off_c, 0, 96, 65
1, 377000, Note_on_c, 0, 89, 87
1, 377037, Note_off_c, 0, 92, 66
1, 377060, Note_off_c, 0, 89, 64
1, 377064, Note_on_c, 0, 84, 88
1, 377082, Note_off_c, 0, 36, 56
1, 377103, Note_off_c, 0, 84, 65
1, 377139, Note_on_c, 0, 80, 84
1, 377196, Note_on_c, 0, 77, 89
1, 377205, Note_off_c, 0, 80, 64
1, 377260, Note_on_c, 0, 84, 92
1, 377267, Note_off_c, 0, 77, 65
1, 377319, Note_on_c, 0, 80, 86
1, 377356, Note_off_c, 0, 84, 57
1, 377375, Note_on_c, 0, 77, 90
1, 377411, Note_off_c, 0, 80, 63
1, 377424, Note_off_c, 0, 77, 63
1, 377433, Note_on_c, 0, 72, 83
1, 377472, Note_off_c, 0, 72, 61
1, 377507, Note_on_c, 0, 68, 83
1, 377565, Note_on_c, 0, 65, 83
1, 377572, Note_off_c, 0, 68, 62
1, 377591, Poly_aftertouch_c, 0, 69, 0
1, 377625, Note_on_c, 0, 72, 87
1, 377629, Note_off_c, 0, 65, 64
1, 377684, Note_on_c, 0, 68, 86
1, 377714, Note_off_c, 0, 72, 59
1, 377734, Note_on_c, 0, 65, 80
1, 377765, Note_off_c, 0, 68, 60
1, 377785, Note_off_c, 0, 65, 62
1, 377786, Note_on_c, 0, 60, 81
1, 377828, Note_off_c, 0, 60, 65
1, 377869, Note_on_c, 0, 56, 75
1, 377890, Note_on_c, 0, 55, 62
1, 377909, Note_off_c, 0, 56, 43
1, 377923, Note_on_c, 0, 53, 83
1, 377923, Note_off_c, 0, 55, 65
1, 377951, Poly_aftertouch_c, 0, 57, 0
1, 377995, Note_on_c, 0, 60, 84
1, 378005, Note_off_c, 0, 53, 63
1, 378054, Note_on_c, 0, 56, 81
1, 378084, Note_off_c, 0, 60, 62
1, 378117, Note_on_c, 0, 53, 80
1, 378137, Note_off_c, 0, 56, 61
1, 378160, Note_off_c, 0, 53, 63
1, 378163, Note_on_c, 0, 48, 77
1, 378212, Note_off_c, 0, 48, 63
1, 378252, Note_on_c, 0, 44, 79
1, 378309, Note_on_c, 0, 41, 73
1, 378337, Note_off_c, 0, 44, 60
1, 378386, Note_on_c, 0, 36, 74
1, 378386, Note_off_c, 0, 41, 64
1, 378427, Note_on_c, 0, 47, 10
1, 378448, Note_off_c, 0, 36, 63
1, 378453, Note_on_c, 0, 41, 64
1, 378474, Note_off_c, 0, 47, 35
1, 378505, Note_on_c, 0, 44, 76
1, 378515, Note_off_c, 0, 41, 63
1, 378534, Note_off_c, 0, 44, 66
1, 378578, Note_on_c, 0, 48, 85
1, 378635, Note_off_c, 0, 48, 61
1, 378639, Note_on_c, 0, 53, 80
1, 378694, Note_on_c, 0, 56, 80
1, 378722, Note_off_c, 0, 53, 64
1, 378749, Note_off_c, 0, 56, 66
1, 378782, Note_on_c, 0, 60, 89
1, 378841, Note_on_c, 0, 65, 82
1, 378841, Note_off_c, 0, 60, 65
1, 378892, Note_on_c, 0, 68, 84
1, 378911, Note_off_c, 0, 65, 64
1, 378936, Note_off_c, 0, 68, 64
1, 378972, Note_on_c, 0, 72, 93
1, 379025, Note_on_c, 0, 77, 89
1, 379033, Note_off_c, 0, 72, 63
1, 379076, Note_on_c, 0, 80, 82
1, 379092, Note_off_c, 0, 77, 63
1, 379119, Note_off_c, 0, 80, 65
1, 379151, Note_on_c, 0, 84, 95
1, 379205, Note_on_c, 0, 89, 88
1, 379222, Note_off_c, 0, 84, 61
1, 379252, Note_on_c, 0, 92, 88
1, 379292, Note_off_c, 0, 89, 64
1, 379299, Note_on_c, 0, 96, 95
1, 379321, Note_off_c, 0, 92, 66
1, 379362, Note_on_c, 0, 92, 86
1, 379403, Note_on_c, 0, 89, 94
1, 379410, Note_off_c, 0, 96, 58
1, 379446, Note_off_c, 0, 92, 65
1, 379449, Note_on_c, 0, 84, 96
1, 379485, Control_c, 0, 64, 74
1, 379493, Note_off_c, 0, 89, 62
1, 379500, Control_c, 0, 64, 0
1, 379518, Note_on_c, 0, 36, 98
1, 379574, Control_c, 0, 64, 51
1, 379589, Control_c, 0, 64, 83
1, 379604, Control_c, 0, 64, 127
1, 379644, Note_on_c, 0, 48, 87
1, 379663, Note_off_c, 0, 36, 62
1, 379691, Poly_aftertouch_c, 0, 43, 0
1, 379732, Note_off_c, 0, 48, 62
1, 379751, Note_on_c, 0, 52, 89
1, 379825, Note_on_c, 0, 91, 101
1, 379839, Note_off_c, 0, 84, 49
1, 379846, Note_on_c, 0, 55, 89
1, 379857, Note_off_c, 0, 52, 60
1, 379911, Note_on_c, 0, 88, 96
1, 379917, Note_off_c, 0, 91, 64
1, 379960, Note_on_c, 0, 58, 84
1, 379982, Note_on_c, 0, 94, 106
1, 379992, Note_off_c, 0, 88, 65
1, 380036, Note_on_c, 0, 91, 84
1, 380079, Note_off_c, 0, 94, 63
1, 380089, Note_on_c, 0, 88, 90
1, 380106, Note_off_c, 0, 58, 57
1, 380120, Note_off_c, 0, 55, 57
1, 380129, Note_off_c, 0, 91, 63
1, 380147, Note_on_c, 0, 84, 89
1, 380150, Note_off_c, 0, 88, 66
1, 380201, Note_off_c, 0, 84, 65
1, 380232, Note_on_c, 0, 82, 89
1, 380251, Note_on_c, 0, 83, 39
1, 380280, Note_off_c, 0, 83, 56
1, 380287, Note_on_c, 0, 79, 84
1, 380318, Note_off_c, 0, 82, 65
1, 380347, Note_on_c, 0, 76, 87
1, 380381, Note_off_c, 0, 79, 63
1, 380407, Note_off_c, 0, 76, 65
1, 380411, Note_on_c, 0, 72, 80
1, 380464, Note_off_c, 0, 72, 63
1, 380486, Note_on_c, 0, 70, 82
1, 380543, Note_on_c, 0, 67, 81
1, 380588, Note_off_c, 0, 70, 62
1, 380601, Note_on_c, 0, 64, 84
1, 380634, Note_off_c, 0, 67, 61
1, 380659, Note_off_c, 0, 64, 64
1, 380663, Note_on_c, 0, 60, 79
1, 380722, Note_off_c, 0, 60, 64
1, 380740, Note_on_c, 0, 58, 84
1, 380798, Note_on_c, 0, 55, 77
1, 380834, Poly_aftertouch_c, 0, 59, 0
1, 380847, Note_off_c, 0, 58, 62
1, 380854, Note_on_c, 0, 52, 79
1, 380892, Note_off_c, 0, 55, 62
1, 380916, Note_off_c, 0, 52, 66
1, 380927, Note_on_c, 0, 48, 70
1, 380987, Note_off_c, 0, 48, 63
1, 381007, Note_on_c, 0, 46, 81
1, 381070, Note_on_c, 0, 43, 79
1, 381102, Poly_aftertouch_c, 0, 47, 0
1, 381107, Note_off_c, 0, 46, 62
1, 381116, Note_on_c, 0, 40, 78
1, 381181, Note_off_c, 0, 43, 61
1, 381191, Note_on_c, 0, 36, 79
1, 381205, Note_off_c, 0, 40, 63
1, 381264, Note_off_c, 0, 36, 61
1, 381265, Note_on_c, 0, 40, 73
1, 381337, Note_on_c, 0, 43, 78
1, 381357, Note_off_c, 0, 40, 61
1, 381402, Note_on_c, 0, 46, 75
1, 381423, Note_off_c, 0, 43, 62
1, 381452, Note_off_c, 0, 46, 64
1, 381478, Note_on_c, 0, 48, 80
1, 381544, Note_on_c, 0, 52, 82
1, 381545, Note_off_c, 0, 48, 65
1, 381607, Note_on_c, 0, 55, 83
1, 381634, Note_off_c, 0, 52, 63
1, 381668, Note_on_c, 0, 58, 78
1, 381696, Note_off_c, 0, 55, 64
1, 381732, Note_off_c, 0, 58, 66
1, 381753, Note_on_c, 0, 60, 84
1, 381814, Note_on_c, 0, 64, 82
1, 381819, Note_off_c, 0, 60, 65
1, 381878, Note_on_c, 0, 67, 82
1, 381917, Note_off_c, 0, 64, 61
1, 381940, Note_on_c, 0, 70, 86
1, 381962, Note_off_c, 0, 67, 67
1, 381986, Note_off_c, 0, 70, 67
1, 382013, Note_on_c, 0, 72, 93
1, 382078, Note_off_c, 0, 72, 66
1, 382080, Note_on_c, 0, 76, 86
1, 382137, Note_on_c, 0, 79, 85
1, 382149, Note_off_c, 0, 76, 66
1, 382173, Note_on_c, 0, 77, 33
1, 382203, Note_off_c, 0, 79, 64
1, 382208, Note_off_c, 0, 77, 56
1, 382209, Note_on_c, 0, 76, 93
1, 382272, Note_off_c, 0, 76, 64
1, 382272, Note_on_c, 0, 72, 85
1, 382333, Note_on_c, 0, 76, 88
1, 382347, Note_off_c, 0, 72, 64
1, 382394, Note_on_c, 0, 79, 79
1, 382405, Note_off_c, 0, 76, 65
1, 382436, Note_off_c, 0, 79, 66
1, 382467, Note_on_c, 0, 76, 87
1, 382535, Note_on_c, 0, 82, 95
1, 382561, Note_off_c, 0, 76, 61
1, 382610, Note_on_c, 0, 79, 88
1, 382616, Note_off_c, 0, 82, 67
1, 382679, Note_on_c, 0, 76, 81
1, 382683, Note_off_c, 0, 79, 66
1, 382754, Note_on_c, 0, 79, 83
1, 382779, Note_off_c, 0, 76, 61
1, 382866, Note_on_c, 0, 82, 82
1, 382901, Note_off_c, 0, 79, 62
1, 383044, Note_off_c, 0, 82, 57
1, 383148, Control_c, 0, 64, 117
1, 383162, Control_c, 0, 64, 104
1, 383177, Control_c, 0, 64, 99
1, 383192, Control_c, 0, 64, 96
1, 383207, Control_c, 0, 64, 94
1, 383229, Control_c, 0, 64, 93
1, 383244, Control_c, 0, 64, 89
1, 383259, Control_c, 0, 64, 84
1, 383274, Control_c, 0, 64, 79
1, 383289, Control_c, 0, 64, 76
1, 383303, Control_c, 0, 64, 75
1, 383318, Control_c, 0, 64, 74
1, 383333, Control_c, 0, 64, 73
1, 383348, Control_c, 0, 64, 71
1, 383363, Control_c, 0, 64, 69
1, 383377, Control_c, 0, 64, 67
1, 383392, Control_c, 0, 64, 66
1, 383407, Control_c, 0, 64, 66
1, 383422, Control_c, 0, 64, 65
1, 383451, Control_c, 0, 64, 65
1, 383466, Control_c, 0, 64, 64
1, 383481, Control_c, 0, 64, 63
1, 383495, Control_c, 0, 64, 62
1, 383569, Control_c, 0, 64, 62
1, 383628, Control_c, 0, 64, 62
1, 383654, Note_on_c, 0, 49, 59
1, 383673, Control_c, 0, 64, 63
1, 383688, Control_c, 0, 64, 63
1, 383709, Note_off_c, 0, 49, 60
1, 383718, Control_c, 0, 64, 64
1, 383777, Control_c, 0, 64, 64
1, 383807, Control_c, 0, 64, 65
1, 383834, Note_on_c, 0, 49, 52
1, 383874, Note_off_c, 0, 49, 64
1, 384019, Note_on_c, 0, 49, 45
1, 384022, Control_c, 0, 64, 65
1, 384064, Note_off_c, 0, 49, 61
1, 384213, Note_on_c, 0, 48, 43
1, 384348, Control_c, 0, 64, 66
1, 384734, Note_on_c, 0, 79, 70
1, 384737, Note_on_c, 0, 76, 60
1, 384773, Note_off_c, 0, 76, 64
1, 384779, Note_off_c, 0, 79, 59
1, 384897, Note_on_c, 0, 79, 65
1, 384904, Note_on_c, 0, 76, 52
1, 384940, Note_off_c, 0, 79, 61
1, 384944, Note_off_c, 0, 76, 62
1, 384979, Note_off_c, 0, 48, 32
1, 385079, Note_on_c, 0, 79, 56
1, 385095, Note_on_c, 0, 76, 38
1, 385131, Note_off_c, 0, 79, 57
1, 385137, Note_off_c, 0, 76, 54
1, 385278, Note_on_c, 0, 79, 38
1, 385283, Note_on_c, 0, 82, 51
1, 385407, Control_c, 0, 64, 66
1, 385807, Note_on_c, 0, 49, 56
1, 385851, Note_off_c, 0, 49, 61
1, 385956, Note_off_c, 0, 82, 40
1, 385977, Note_on_c, 0, 49, 51
1, 385993, Note_off_c, 0, 79, 36
1, 386015, Note_off_c, 0, 49, 65
1, 386156, Note_on_c, 0, 49, 45
1, 386199, Note_off_c, 0, 49, 61
1, 386354, Note_on_c, 0, 48, 49
1, 386939, Note_on_c, 0, 67, 64
1, 386943, Note_on_c, 0, 64, 58
1, 386984, Note_off_c, 0, 67, 59
1, 386988, Note_off_c, 0, 64, 63
1, 387093, Note_off_c, 0, 48, 35
1, 387116, Note_on_c, 0, 67, 55
1, 387119, Note_on_c, 0, 64, 49
1, 387157, Note_off_c, 0, 67, 60
1, 387162, Note_off_c, 0, 64, 61
1, 387312, Note_on_c, 0, 67, 49
1, 387319, Note_on_c, 0, 64, 43
1, 387360, Note_off_c, 0, 67, 59
1, 387362, Note_off_c, 0, 64, 58
1, 387554, Note_on_c, 0, 67, 38
1, 387560, Note_on_c, 0, 70, 40
1, 388258, Note_on_c, 0, 37, 52
1, 388314, Note_off_c, 0, 37, 59
1, 388507, Note_on_c, 0, 37, 42
1, 388562, Note_off_c, 0, 37, 55
1, 388782, Note_on_c, 0, 37, 37
1, 388841, Note_off_c, 0, 37, 50
1, 389151, Note_on_c, 0, 36, 31
1, 389303, Note_off_c, 0, 67, 1
1, 389752, Control_c, 0, 64, 67
1, 390642, Note_on_c, 0, 37, 35
1, 390738, Note_off_c, 0, 36, 40
1, 390762, Note_off_c, 0, 37, 36
1, 391014, Note_on_c, 0, 37, 28
1, 391147, Note_off_c, 0, 37, 37
1, 391386, Note_on_c, 0, 37, 22
1, 391550, Note_off_c, 0, 37, 43
1, 391844, Note_on_c, 0, 36, 26
1, 392270, Note_off_c, 0, 70, 1
1, 392274, Control_c, 0, 64, 67
1, 392318, Control_c, 0, 64, 68
1, 392348, Control_c, 0, 64, 68
1, 392422, Control_c, 0, 64, 69
1, 392763, Control_c, 0, 64, 68
1, 392867, Control_c, 0, 64, 68
1, 392963, Control_c, 0, 64, 67
1, 393037, Control_c, 0, 64, 67
1, 393082, Control_c, 0, 64, 66
1, 393111, Control_c, 0, 67, 22
1, 393126, Control_c, 0, 67, 37
1, 393141, Control_c, 0, 64, 66
1, 393141, Control_c, 0, 67, 57
1, 393155, Control_c, 0, 67, 76
1, 393170, Control_c, 0, 67, 96
1, 393185, Control_c, 0, 64, 65
1, 393185, Control_c, 0, 67, 116
1, 393200, Control_c, 0, 67, 127
1, 393378, Control_c, 0, 64, 66
1, 393393, Control_c, 0, 64, 66
1, 393408, Control_c, 0, 64, 67
1, 393422, Control_c, 0, 64, 69
1, 393437, Control_c, 0, 64, 73
1, 393453, Control_c, 0, 64, 79
1, 393468, Control_c, 0, 64, 89
1, 393483, Control_c, 0, 64, 103
1, 393496, Control_c, 0, 64, 127
1, 393975, Note_on_c, 0, 76, 44
1, 394003, Note_on_c, 0, 70, 31
1, 394004, Note_on_c, 0, 67, 38
1, 394006, Note_on_c, 0, 37, 34
1, 394037, Control_c, 0, 64, 97
1, 394051, Control_c, 0, 64, 80
1, 394066, Control_c, 0, 64, 68
1, 394081, Control_c, 0, 64, 61
1, 394095, Control_c, 0, 64, 56
1, 394110, Control_c, 0, 64, 53
1, 394133, Note_off_c, 0, 36, 35
1, 394140, Control_c, 0, 64, 54
1, 394155, Control_c, 0, 64, 56
1, 394169, Control_c, 0, 64, 61
1, 394184, Control_c, 0, 64, 66
1, 394199, Control_c, 0, 64, 74
1, 394214, Control_c, 0, 64, 86
1, 394229, Control_c, 0, 64, 113
1, 394245, Control_c, 0, 64, 127
1, 394434, Note_off_c, 0, 67, 37
1, 394449, Note_off_c, 0, 70, 38
1, 394456, Note_off_c, 0, 76, 35
1, 394493, Note_off_c, 0, 37, 37
1, 394604, Note_on_c, 0, 76, 64
1, 394613, Note_on_c, 0, 70, 51
1, 394622, Note_on_c, 0, 67, 51
1, 394624, Note_on_c, 0, 37, 45
1, 395015, Note_off_c, 0, 37, 40
1, 395039, Note_off_c, 0, 67, 36
1, 395042, Note_off_c, 0, 76, 52
1, 395046, Note_off_c, 0, 70, 40
1, 395175, Note_on_c, 0, 76, 72
1, 395196, Note_on_c, 0, 67, 48
1, 395198, Note_on_c, 0, 70, 53
1, 395203, Note_on_c, 0, 37, 36
1, 395564, Note_off_c, 0, 37, 35
1, 395966, Note_off_c, 0, 76, 32
1, 395971, Note_off_c, 0, 67, 30
1, 396008, Note_off_c, 0, 70, 33
1, 396454, Note_on_c, 0, 36, 26
1, 396457, Note_on_c, 0, 76, 36
1, 396461, Note_on_c, 0, 67, 37
1, 396474, Note_on_c, 0, 70, 22
1, 396565, Control_c, 0, 64, 104
1, 396579, Control_c, 0, 64, 92
1, 396594, Control_c, 0, 64, 85
1, 396609, Control_c, 0, 64, 80
1, 396624, Control_c, 0, 64, 74
1, 396640, Control_c, 0, 64, 69
1, 396655, Control_c, 0, 64, 66
1, 396669, Control_c, 0, 64, 63
1, 396684, Control_c, 0, 64, 61
1, 396706, Control_c, 0, 64, 60
1, 396721, Control_c, 0, 64, 58
1, 396736, Control_c, 0, 64, 58
1, 396765, Control_c, 0, 64, 58
1, 396780, Control_c, 0, 64, 60
1, 396795, Control_c, 0, 64, 62
1, 396810, Control_c, 0, 64, 64
1, 396825, Control_c, 0, 64, 67
1, 396840, Control_c, 0, 64, 72
1, 396855, Control_c, 0, 64, 80
1, 396869, Control_c, 0, 64, 92
1, 396884, Control_c, 0, 64, 123
1, 396899, Control_c, 0, 64, 127
1, 398241, Note_off_c, 0, 67, 64
1, 398262, Note_off_c, 0, 76, 55
1, 398268, Note_off_c, 0, 70, 57
1, 398352, Control_c, 0, 67, 107
1, 398366, Control_c, 0, 67, 69
1, 398381, Control_c, 0, 67, 16
1, 398396, Note_off_c, 0, 36, 40
1, 398396, Control_c, 0, 67, 0
1, 398522, Note_on_c, 0, 48, 101
1, 398527, Note_on_c, 0, 79, 92
1, 398528, Note_on_c, 0, 76, 108
1, 398529, Note_on_c, 0, 36, 84
1, 398532, Note_on_c, 0, 88, 91
1, 398533, Note_on_c, 0, 84, 78
1, 398543, Note_on_c, 0, 86, 84
1, 398544, Note_on_c, 0, 82, 80
1, 398545, Note_on_c, 0, 83, 79
1, 398557, Note_off_c, 0, 86, 70
1, 398561, Note_off_c, 0, 83, 65
1, 398566, Note_on_c, 0, 39, 30
1, 398566, Note_off_c, 0, 82, 71
1, 398568, Note_off_c, 0, 76, 68
1, 398569, Note_off_c, 0, 36, 61
1, 398569, Note_off_c, 0, 48, 65
1, 398576, Note_off_c, 0, 88, 66
1, 398580, Note_off_c, 0, 79, 67
1, 398580, Note_off_c, 0, 84, 64
1, 398618, Note_on_c, 0, 48, 96
1, 398621, Note_on_c, 0, 79, 85
1, 398622, Note_on_c, 0, 76, 101
1, 398624, Note_on_c, 0, 36, 76
1, 398630, Note_on_c, 0, 88, 79
1, 398635, Note_on_c, 0, 85, 70
1, 398638, Note_on_c, 0, 82, 79
1, 398653, Note_off_c, 0, 85, 62
1, 398659, Note_off_c, 0, 36, 64
1, 398659, Note_off_c, 0, 76, 67
1, 398663, Note_on_c, 0, 84, 61
1, 398669, Note_off_c, 0, 48, 64
1, 398673, Note_off_c, 0, 79, 67
1, 398674, Note_off_c, 0, 82, 58
1, 398680, Note_off_c, 0, 88, 65
1, 398681, Note_off_c, 0, 39, 26
1, 398681, Note_off_c, 0, 84, 66
1, 398700, Poly_aftertouch_c, 0, 43, 127
1, 398707, Note_on_c, 0, 48, 82
1, 398713, Note_on_c, 0, 36, 74
1, 398713, Note_on_c, 0, 79, 79
1, 398713, Note_on_c, 0, 88, 84
1, 398713, Note_on_c, 0, 76, 92
1, 398720, Note_on_c, 0, 82, 75
1, 398740, Note_off_c, 0, 48, 64
1, 398745, Note_on_c, 0, 84, 73
1, 398748, Note_on_c, 0, 39, 23
1, 398751, Note_off_c, 0, 76, 65
1, 398755, Note_off_c, 0, 79, 66
1, 398767, Control_c, 0, 64, 90
1, 398768, Note_off_c, 0, 88, 65
1, 398771, Note_off_c, 0, 84, 67
1, 398772, Note_off_c, 0, 36, 61
1, 398773, Note_off_c, 0, 82, 66
1, 398774, Poly_aftertouch_c, 0, 43, 0
1, 398782, Control_c, 0, 64, 55
1, 398794, Note_off_c, 0, 39, 51
1, 398797, Control_c, 0, 64, 0
1, 398814, Note_on_c, 0, 77, 109
1, 398815, Note_on_c, 0, 29, 95
1, 398816, Note_on_c, 0, 89, 108
1, 398817, Note_on_c, 0, 41, 110
1, 398821, Note_on_c, 0, 80, 93
1, 398822, Note_on_c, 0, 84, 93
1, 398854, Note_off_c, 0, 29, 64
1, 398856, Control_c, 0, 64, 48
1, 398861, Note_on_c, 0, 86, 15
1, 398868, Note_off_c, 0, 41, 67
1, 398871, Control_c, 0, 64, 75
1, 398886, Control_c, 0, 64, 127
1, 398891, Note_off_c, 0, 86, 47
1, 399065, Note_on_c, 0, 65, 72
1, 399067, Note_on_c, 0, 60, 53
1, 399117, Control_c, 0, 64, 82
1, 399131, Note_off_c, 0, 65, 58
1, 399132, Control_c, 0, 64, 67
1, 399138, Note_off_c, 0, 60, 57
1, 399140, Note_on_c, 0, 56, 70
1, 399146, Control_c, 0, 64, 63
1, 399161, Control_c, 0, 64, 66
1, 399176, Control_c, 0, 64, 73
1, 399190, Control_c, 0, 64, 91
1, 399205, Control_c, 0, 64, 127
1, 399225, Note_off_c, 0, 56, 59
1, 399238, Note_on_c, 0, 60, 52
1, 399248, Note_on_c, 0, 65, 58
1, 399279, Control_c, 0, 64, 113
1, 399292, Note_off_c, 0, 65, 62
1, 399294, Control_c, 0, 64, 83
1, 399309, Control_c, 0, 64, 73
1, 399314, Note_off_c, 0, 60, 63
1, 399324, Control_c, 0, 64, 72
1, 399328, Note_off_c, 0, 89, 53
1, 399335, Note_on_c, 0, 56, 61
1, 399338, Control_c, 0, 64, 77
1, 399353, Control_c, 0, 64, 92
1, 399368, Control_c, 0, 64, 127
1, 399380, Note_off_c, 0, 56, 57
1, 399391, Note_off_c, 0, 77, 58
1, 399416, Note_off_c, 0, 84, 44
1, 399427, Note_on_c, 0, 65, 34
1, 399430, Note_on_c, 0, 60, 51
1, 399436, Note_off_c, 0, 80, 63
1, 399466, Note_off_c, 0, 65, 46
1, 399471, Note_off_c, 0, 60, 63
1, 399484, Note_on_c, 0, 56, 70
1, 399613, Note_off_c, 0, 56, 57
1, 399633, Note_on_c, 0, 60, 37
1, 399650, Note_on_c, 0, 65, 48
1, 399678, Control_c, 0, 64, 91
1, 399701, Control_c, 0, 64, 69
1, 399710, Note_on_c, 0, 68, 68
1, 399711, Note_off_c, 0, 65, 57
1, 399715, Control_c, 0, 64, 54
1, 399722, Note_off_c, 0, 60, 56
1, 399730, Control_c, 0, 64, 51
1, 399745, Control_c, 0, 64, 53
1, 399760, Control_c, 0, 64, 58
1, 399763, Note_on_c, 0, 56, 43
1, 399775, Control_c, 0, 64, 63
1, 399789, Control_c, 0, 64, 70
1, 399804, Control_c, 0, 64, 89
1, 399819, Control_c, 0, 64, 127
1, 399834, Note_off_c, 0, 56, 58
1, 399870, Note_on_c, 0, 60, 34
1, 399871, Note_on_c, 0, 65, 39
1, 399913, Note_on_c, 0, 72, 64
1, 399925, Note_off_c, 0, 65, 59
1, 399931, Note_off_c, 0, 60, 57
1, 399954, Control_c, 0, 64, 103
1, 399968, Control_c, 0, 64, 76
1, 399970, Note_on_c, 0, 56, 50
1, 399983, Control_c, 0, 64, 60
1, 399998, Control_c, 0, 64, 45
1, 400000, Note_on_c, 0, 77, 71
1, 400012, Control_c, 0, 64, 35
1, 400027, Control_c, 0, 64, 30
1, 400056, Note_off_c, 0, 56, 58
1, 400057, Control_c, 0, 64, 31
1, 400071, Note_off_c, 0, 72, 38
1, 400072, Control_c, 0, 64, 48
1, 400087, Note_on_c, 0, 60, 35
1, 400087, Control_c, 0, 64, 62
1, 400100, Note_on_c, 0, 65, 36
1, 400101, Control_c, 0, 64, 68
1, 400116, Control_c, 0, 64, 75
1, 400131, Control_c, 0, 64, 83
1, 400139, Note_off_c, 0, 65, 60
1, 400146, Control_c, 0, 64, 90
1, 400151, Note_off_c, 0, 60, 58
1, 400161, Control_c, 0, 64, 94
1, 400175, Control_c, 0, 64, 97
1, 400177, Note_on_c, 0, 56, 61
1, 400190, Control_c, 0, 64, 101
1, 400205, Control_c, 0, 64, 105
1, 400220, Control_c, 0, 64, 103
1, 400235, Control_c, 0, 64, 93
1, 400250, Control_c, 0, 64, 78
1, 400254, Note_off_c, 0, 56, 59
1, 400265, Control_c, 0, 64, 65
1, 400280, Control_c, 0, 64, 60
1, 400283, Note_on_c, 0, 60, 40
1, 400289, Note_on_c, 0, 80, 72
1, 400310, Control_c, 0, 64, 62
1, 400311, Note_on_c, 0, 65, 33
1, 400324, Control_c, 0, 64, 64
1, 400338, Note_off_c, 0, 60, 58
1, 400339, Control_c, 0, 64, 69
1, 400341, Note_off_c, 0, 65, 54
1, 400342, Note_off_c, 0, 77, 55
1, 400354, Control_c, 0, 64, 82
1, 400369, Control_c, 0, 64, 104
1, 400377, Note_on_c, 0, 56, 60
1, 400384, Control_c, 0, 64, 127
1, 400432, Note_off_c, 0, 56, 57
1, 400476, Note_on_c, 0, 60, 40
1, 400479, Note_on_c, 0, 65, 39
1, 400496, Note_on_c, 0, 77, 68
1, 400520, Note_off_c, 0, 65, 63
1, 400524, Control_c, 0, 64, 108
1, 400527, Note_off_c, 0, 60, 56
1, 400539, Control_c, 0, 64, 73
1, 400545, Note_off_c, 0, 80, 60
1, 400554, Control_c, 0, 64, 57
1, 400569, Control_c, 0, 64, 44
1, 400576, Note_on_c, 0, 76, 68
1, 400584, Note_on_c, 0, 58, 38
1, 400586, Note_off_c, 0, 77, 61
1, 400599, Control_c, 0, 64, 45
1, 400600, Note_off_c, 0, 68, 41
1, 400613, Control_c, 0, 64, 52
1, 400628, Control_c, 0, 64, 61
1, 400643, Note_off_c, 0, 58, 60
1, 400643, Control_c, 0, 64, 70
1, 400658, Control_c, 0, 64, 82
1, 400661, Note_on_c, 0, 60, 41
1, 400663, Note_on_c, 0, 67, 46
1, 400673, Control_c, 0, 64, 106
1, 400688, Control_c, 0, 64, 127
1, 400727, Note_off_c, 0, 67, 55
1, 400744, Note_off_c, 0, 60, 60
1, 400769, Note_on_c, 0, 58, 47
1, 400835, Note_on_c, 0, 79, 70
1, 400856, Note_off_c, 0, 58, 57
1, 400859, Note_on_c, 0, 67, 50
1, 400861, Note_off_c, 0, 76, 58
1, 400888, Note_on_c, 0, 60, 38
1, 400918, Note_off_c, 0, 67, 54
1, 400923, Note_off_c, 0, 60, 54
1, 400972, Note_on_c, 0, 58, 54
1, 401040, Note_on_c, 0, 67, 43
1, 401055, Note_on_c, 0, 76, 65
1, 401071, Note_off_c, 0, 67, 54
1, 401073, Note_off_c, 0, 79, 61
1, 401089, Note_off_c, 0, 58, 0
1, 401117, Control_c, 0, 64, 90
1, 401126, Poly_aftertouch_c, 0, 58, 127
1, 401130, Note_on_c, 0, 56, 50
1, 401132, Control_c, 0, 64, 69
1, 401141, Note_off_c, 0, 76, 62
1, 401147, Note_on_c, 0, 77, 62
1, 401147, Control_c, 0, 64, 53
1, 401162, Control_c, 0, 64, 37
1, 401177, Control_c, 0, 64, 35
1, 401199, Control_c, 0, 64, 36
1, 401200, Poly_aftertouch_c, 0, 58, 0
1, 401206, Note_off_c, 0, 56, 58
1, 401214, Control_c, 0, 64, 43
1, 401228, Note_on_c, 0, 60, 42
1, 401229, Control_c, 0, 64, 56
1, 401243, Control_c, 0, 64, 64
1, 401246, Note_on_c, 0, 65, 46
1, 401258, Control_c, 0, 64, 71
1, 401273, Control_c, 0, 64, 82
1, 401288, Control_c, 0, 64, 103
1, 401298, Note_off_c, 0, 65, 61
1, 401303, Control_c, 0, 64, 127
1, 401314, Note_off_c, 0, 60, 57
1, 401341, Note_on_c, 0, 56, 49
1, 401377, Control_c, 0, 64, 100
1, 401392, Control_c, 0, 64, 92
1, 401398, Note_on_c, 0, 72, 61
1, 401398, Note_off_c, 0, 56, 59
1, 401407, Control_c, 0, 64, 91
1, 401421, Control_c, 0, 64, 92
1, 401428, Note_on_c, 0, 65, 43
1, 401437, Control_c, 0, 64, 93
1, 401451, Note_on_c, 0, 60, 45
1, 401452, Control_c, 0, 64, 95
1, 401466, Control_c, 0, 64, 99
1, 401473, Note_off_c, 0, 65, 55
1, 401481, Control_c, 0, 64, 108
1, 401491, Note_off_c, 0, 60, 61
1, 401496, Control_c, 0, 64, 127
1, 401530, Note_off_c, 0, 77, 33
1, 401535, Note_on_c, 0, 56, 47
1, 401582, Note_off_c, 0, 56, 60
1, 401600, Note_on_c, 0, 65, 53
1, 401618, Note_on_c, 0, 60, 50
1, 401651, Note_off_c, 0, 65, 59
1, 401674, Note_off_c, 0, 60, 62
1, 401693, Note_on_c, 0, 56, 60
1, 401769, Note_off_c, 0, 56, 62
1, 401781, Note_on_c, 0, 65, 49
1, 401794, Note_on_c, 0, 60, 55
1, 401825, Note_off_c, 0, 65, 58
1, 401851, Note_off_c, 0, 60, 59
1, 401891, Note_on_c, 0, 56, 60
1, 401917, Note_off_c, 0, 72, 62
1, 401947, Note_on_c, 0, 80, 72
1, 401954, Note_on_c, 0, 68, 65
1, 401970, Note_off_c, 0, 56, 59
1, 401981, Note_on_c, 0, 60, 59
1, 401991, Note_on_c, 0, 65, 51
1, 402030, Note_off_c, 0, 65, 62
1, 402035, Note_off_c, 0, 60, 54
1, 402054, Note_off_c, 0, 68, 61
1, 402078, Note_on_c, 0, 56, 53
1, 402104, Note_off_c, 0, 80, 64
1, 402132, Note_off_c, 0, 56, 56
1, 402153, Note_on_c, 0, 60, 63
1, 402155, Note_on_c, 0, 84, 81
1, 402160, Note_on_c, 0, 72, 62
1, 402164, Note_on_c, 0, 65, 54
1, 402179, Note_off_c, 0, 72, 65
1, 402190, Note_off_c, 0, 84, 63
1, 402194, Note_off_c, 0, 65, 64
1, 402196, Note_off_c, 0, 60, 64
1, 402244, Note_on_c, 0, 89, 93
1, 402249, Note_on_c, 0, 77, 81
1, 402253, Note_on_c, 0, 56, 69
1, 402275, Control_c, 0, 64, 100
1, 402289, Control_c, 0, 64, 71
1, 402304, Control_c, 0, 64, 56
1, 402319, Control_c, 0, 64, 48
1, 402325, Note_off_c, 0, 56, 62
1, 402334, Control_c, 0, 64, 50
1, 402349, Control_c, 0, 64, 53
1, 402352, Note_on_c, 0, 65, 36
1, 402353, Note_on_c, 0, 60, 45
1, 402357, Note_on_c, 0, 68, 64
1, 402363, Control_c, 0, 64, 60
1, 402378, Control_c, 0, 64, 67
1, 402393, Control_c, 0, 64, 80
1, 402408, Control_c, 0, 64, 127
1, 402408, Note_off_c, 0, 68, 55
1, 402410, Note_off_c, 0, 77, 60
1, 402436, Note_on_c, 0, 56, 78
1, 402441, Note_off_c, 0, 60, 60
1, 402448, Note_off_c, 0, 65, 62
1, 402529, Note_on_c, 0, 80, 76
1, 402530, Note_on_c, 0, 92, 87
1, 402533, Note_off_c, 0, 56, 60
1, 402545, Note_on_c, 0, 68, 63
1, 402548, Note_off_c, 0, 89, 58
1, 402559, Note_on_c, 0, 65, 51
1, 402560, Note_on_c, 0, 60, 54
1, 402597, Note_off_c, 0, 80, 62
1, 402612, Note_off_c, 0, 68, 58
1, 402616, Note_off_c, 0, 60, 59
1, 402634, Note_off_c, 0, 92, 65
1, 402637, Note_off_c, 0, 65, 60
1, 402638, Note_on_c, 0, 56, 72
1, 402718, Note_off_c, 0, 56, 60
1, 402729, Note_on_c, 0, 68, 67
1, 402730, Note_on_c, 0, 89, 89
1, 402736, Note_on_c, 0, 60, 58
1, 402742, Note_on_c, 0, 77, 75
1, 402766, Note_off_c, 0, 77, 69
1, 402776, Note_off_c, 0, 60, 55
1, 402780, Poly_aftertouch_c, 0, 65, 127
1, 402787, Control_c, 0, 64, 84
1, 402793, Note_off_c, 0, 68, 59
1, 402802, Control_c, 0, 64, 62
1, 402805, Note_off_c, 0, 89, 58
1, 402814, Note_on_c, 0, 88, 81
1, 402814, Poly_aftertouch_c, 0, 65, 0
1, 402815, Note_on_c, 0, 58, 80
1, 402816, Control_c, 0, 64, 33
1, 402819, Note_on_c, 0, 76, 91
1, 402831, Control_c, 0, 64, 24
1, 402846, Control_c, 0, 64, 24
1, 402861, Control_c, 0, 64, 23
1, 402876, Control_c, 0, 64, 38
1, 402890, Control_c, 0, 64, 60
1, 402903, Note_off_c, 0, 58, 62
1, 402903, Note_on_c, 0, 67, 64
1, 402905, Control_c, 0, 64, 71
1, 402911, Note_on_c, 0, 60, 57
1, 402919, Note_on_c, 0, 64, 58
1, 402920, Control_c, 0, 64, 98
1, 402935, Control_c, 0, 64, 127
1, 402955, Note_off_c, 0, 76, 58
1, 402974, Note_off_c, 0, 67, 62
1, 402977, Note_off_c, 0, 60, 63
1, 402982, Note_on_c, 0, 58, 79
1, 403010, Note_off_c, 0, 64, 62
1, 403074, Note_off_c, 0, 58, 60
1, 403082, Note_on_c, 0, 91, 97
1, 403085, Note_on_c, 0, 67, 73
1, 403088, Note_on_c, 0, 79, 96
1, 403100, Note_on_c, 0, 60, 49
1, 403102, Note_on_c, 0, 64, 44
1, 403141, Note_off_c, 0, 60, 53
1, 403142, Note_off_c, 0, 67, 60
1, 403146, Note_off_c, 0, 88, 36
1, 403162, Note_on_c, 0, 58, 77
1, 403163, Note_off_c, 0, 64, 62
1, 403179, Note_off_c, 0, 91, 64
1, 403180, Note_off_c, 0, 79, 63
1, 403185, Poly_aftertouch_c, 0, 84, 127
1, 403231, Poly_aftertouch_c, 0, 84, 0
1, 403250, Note_off_c, 0, 58, 59
1, 403255, Note_on_c, 0, 60, 55
1, 403261, Note_on_c, 0, 64, 56
1, 403261, Note_on_c, 0, 67, 60
1, 403271, Note_on_c, 0, 88, 94
1, 403277, Note_on_c, 0, 76, 87
1, 403296, Note_off_c, 0, 67, 61
1, 403298, Note_off_c, 0, 76, 70
1, 403300, Note_off_c, 0, 60, 58
1, 403305, Note_off_c, 0, 64, 64
1, 403350, Control_c, 0, 64, 100
1, 403365, Control_c, 0, 64, 66
1, 403370, Note_on_c, 0, 90, 92
1, 403371, Note_on_c, 0, 57, 68
1, 403372, Note_on_c, 0, 78, 88
1, 403380, Control_c, 0, 64, 32
1, 403389, Note_off_c, 0, 88, 62
1, 403395, Control_c, 0, 64, 0
1, 403458, Note_off_c, 0, 57, 61
1, 403476, Control_c, 0, 64, 55
1, 403484, Note_on_c, 0, 66, 54
1, 403491, Control_c, 0, 64, 70
1, 403500, Note_on_c, 0, 63, 42
1, 403506, Control_c, 0, 64, 90
1, 403520, Control_c, 0, 64, 127
1, 403549, Poly_aftertouch_c, 0, 60, 127
1, 403553, Note_on_c, 0, 60, 3
1, 403559, Note_off_c, 0, 66, 60
1, 403568, Note_off_c, 0, 78, 63
1, 403575, Note_off_c, 0, 90, 64
1, 403579, Note_on_c, 0, 57, 66
1, 403583, Note_off_c, 0, 63, 60
1, 403589, Note_off_c, 0, 60, 51
1, 403660, Note_off_c, 0, 57, 61
1, 403686, Note_on_c, 0, 66, 56
1, 403699, Note_on_c, 0, 84, 74
1, 403705, Note_on_c, 0, 60, 35
1, 403719, Note_on_c, 0, 72, 57
1, 403729, Note_on_c, 0, 63, 32
1, 403743, Note_off_c, 0, 60, 54
1, 403744, Note_off_c, 0, 66, 49
1, 403767, Note_off_c, 0, 63, 50
1, 403789, Note_on_c, 0, 57, 57
1, 403863, Note_off_c, 0, 57, 62
1, 403885, Note_on_c, 0, 60, 40
1, 403893, Note_on_c, 0, 63, 42
1, 403893, Note_on_c, 0, 66, 59
1, 403946, Note_off_c, 0, 60, 61
1, 403961, Note_off_c, 0, 66, 61
1, 403971, Note_off_c, 0, 63, 62
1, 403973, Note_on_c, 0, 57, 70
1, 403988, Note_off_c, 0, 72, 63
1, 404045, Note_off_c, 0, 57, 61
1, 404065, Note_on_c, 0, 60, 55
1, 404066, Note_on_c, 0, 66, 66
1, 404091, Note_on_c, 0, 63, 36
1, 404119, Note_off_c, 0, 60, 58
1, 404134, Note_off_c, 0, 63, 55
1, 404136, Note_off_c, 0, 66, 60
1, 404146, Note_on_c, 0, 57, 69
1, 404226, Note_off_c, 0, 57, 60
1, 404242, Note_on_c, 0, 60, 55
1, 404246, Note_off_c, 0, 84, 52
1, 404248, Note_on_c, 0, 87, 95
1, 404249, Note_on_c, 0, 63, 48
1, 404254, Note_on_c, 0, 66, 63
1, 404258, Note_on_c, 0, 75, 81
1, 404298, Note_off_c, 0, 60, 62
1, 404314, Note_off_c, 0, 66, 58
1, 404326, Note_off_c, 0, 63, 60
1, 404333, Note_on_c, 0, 57, 67
1, 404341, Note_off_c, 0, 75, 59
1, 404364, Note_off_c, 0, 87, 62
1, 404424, Note_off_c, 0, 57, 57
1, 404432, Note_on_c, 0, 66, 67
1, 404438, Note_on_c, 0, 60, 45
1, 404444, Note_on_c, 0, 84, 92
1, 404447, Note_on_c, 0, 72, 77
1, 404458, Note_on_c, 0, 63, 55
1, 404468, Note_off_c, 0, 72, 70
1, 404486, Note_off_c, 0, 84, 67
1, 404494, Note_off_c, 0, 60, 54
1, 404513, Note_off_c, 0, 63, 58
1, 404533, Note_off_c, 0, 66, 60
1, 404539, Note_on_c, 0, 89, 99
1, 404542, Note_on_c, 0, 57, 68
1, 404545, Note_on_c, 0, 77, 88
1, 404549, Control_c, 0, 64, 70
1, 404564, Control_c, 0, 64, 50
1, 404578, Control_c, 0, 64, 34
1, 404593, Control_c, 0, 64, 33
1, 404608, Control_c, 0, 64, 34
1, 404610, Note_off_c, 0, 57, 63
1, 404623, Note_on_c, 0, 63, 49
1, 404623, Control_c, 0, 64, 47
1, 404635, Note_on_c, 0, 65, 43
1, 404637, Note_on_c, 0, 60, 41
1, 404639, Control_c, 0, 64, 63
1, 404654, Control_c, 0, 64, 74
1, 404669, Control_c, 0, 64, 105
1, 404677, Note_off_c, 0, 60, 63
1, 404681, Note_off_c, 0, 89, 62
1, 404683, Control_c, 0, 64, 127
1, 404687, Note_off_c, 0, 65, 60
1, 404688, Note_on_c, 0, 57, 59
1, 404718, Note_off_c, 0, 77, 63
1, 404751, Note_off_c, 0, 63, 51
1, 404775, Note_off_c, 0, 57, 61
1, 404809, Note_on_c, 0, 65, 47
1, 404823, Note_on_c, 0, 61, 49
1, 404826, Note_on_c, 0, 82, 80
1, 404832, Control_c, 0, 64, 86
1, 404835, Note_on_c, 0, 70, 67
1, 404846, Control_c, 0, 64, 64
1, 404859, Note_off_c, 0, 65, 60
1, 404861, Control_c, 0, 64, 44
1, 404876, Control_c, 0, 64, 39
1, 404897, Note_off_c, 0, 61, 55
1, 404906, Control_c, 0, 64, 42
1, 404918, Note_on_c, 0, 58, 61
1, 404921, Control_c, 0, 64, 55
1, 404943, Control_c, 0, 64, 64
1, 404957, Control_c, 0, 64, 73
1, 404972, Control_c, 0, 64, 88
1, 404987, Control_c, 0, 64, 127
1, 405010, Note_off_c, 0, 58, 55
1, 405019, Note_on_c, 0, 61, 61
1, 405025, Note_on_c, 0, 65, 56
1, 405076, Note_off_c, 0, 65, 59
1, 405091, Note_off_c, 0, 61, 55
1, 405116, Note_on_c, 0, 58, 69
1, 405131, Note_off_c, 0, 70, 53
1, 405180, Note_off_c, 0, 58, 61
1, 405201, Note_on_c, 0, 61, 59
1, 405210, Note_on_c, 0, 65, 54
1, 405253, Note_off_c, 0, 65, 58
1, 405284, Note_off_c, 0, 61, 55
1, 405292, Note_on_c, 0, 58, 68
1, 405357, Control_c, 0, 64, 80
1, 405361, Note_off_c, 0, 58, 60
1, 405362, Note_on_c, 0, 85, 74
1, 405364, Note_off_c, 0, 82, 61
1, 405371, Note_on_c, 0, 73, 64
1, 405372, Control_c, 0, 64, 62
1, 405387, Control_c, 0, 64, 47
1, 405394, Note_on_c, 0, 67, 52
1, 405395, Note_on_c, 0, 64, 48
1, 405401, Control_c, 0, 64, 50
1, 405416, Control_c, 0, 64, 54
1, 405432, Control_c, 0, 64, 61
1, 405435, Note_off_c, 0, 67, 62
1, 405447, Control_c, 0, 64, 67
1, 405462, Control_c, 0, 64, 81
1, 405467, Note_off_c, 0, 64, 55
1, 405469, Note_off_c, 0, 73, 60
1, 405477, Control_c, 0, 64, 127
1, 405478, Note_on_c, 0, 58, 63
1, 405513, Note_off_c, 0, 85, 64
1, 405538, Note_on_c, 0, 67, 60
1, 405549, Note_on_c, 0, 64, 50
1, 405552, Note_off_c, 0, 58, 60
1, 405559, Note_on_c, 0, 82, 74
1, 405567, Note_off_c, 0, 67, 64
1, 405571, Note_off_c, 0, 64, 59
1, 405647, Note_on_c, 0, 80, 79
1, 405652, Note_on_c, 0, 68, 68
1, 405654, Control_c, 0, 64, 79
1, 405666, Note_off_c, 0, 82, 62
1, 405669, Control_c, 0, 64, 57
1, 405692, Control_c, 0, 64, 44
1, 405696, Note_on_c, 0, 48, 38
1, 405701, Note_on_c, 0, 47, 39
1, 405707, Control_c, 0, 64, 45
1, 405721, Control_c, 0, 64, 50
1, 405725, Note_off_c, 0, 68, 59
1, 405732, Note_off_c, 0, 48, 60
1, 405734, Note_off_c, 0, 47, 45
1, 405736, Control_c, 0, 64, 58
1, 405751, Control_c, 0, 64, 65
1, 405766, Control_c, 0, 64, 79
1, 405768, Note_on_c, 0, 53, 50
1, 405771, Note_on_c, 0, 60, 68
1, 405780, Control_c, 0, 64, 127
1, 405788, Note_on_c, 0, 56, 57
1, 405838, Note_off_c, 0, 53, 61
1, 405851, Note_off_c, 0, 60, 55
1, 405864, Note_on_c, 0, 48, 63
1, 405865, Note_off_c, 0, 56, 60
1, 405933, Note_on_c, 0, 84, 88
1, 405948, Note_on_c, 0, 72, 71
1, 405950, Note_off_c, 0, 48, 61
1, 405954, Note_off_c, 0, 80, 62
1, 405964, Note_on_c, 0, 53, 55
1, 405974, Note_on_c, 0, 60, 60
1, 405985, Note_on_c, 0, 56, 53
1, 406008, Note_off_c, 0, 53, 61
1, 406029, Note_off_c, 0, 84, 65
1, 406032, Note_on_c, 0, 48, 64
1, 406032, Note_off_c, 0, 72, 64
1, 406033, Note_off_c, 0, 60, 60
1, 406035, Note_off_c, 0, 56, 60
1, 406103, Note_off_c, 0, 48, 63
1, 406121, Note_on_c, 0, 56, 62
1, 406129, Note_on_c, 0, 53, 52
1, 406131, Note_on_c, 0, 80, 91
1, 406134, Note_on_c, 0, 68, 81
1, 406150, Note_off_c, 0, 56, 65
1, 406164, Note_off_c, 0, 53, 55
1, 406185, Note_off_c, 0, 68, 52
1, 406195, Control_c, 0, 64, 79
1, 406210, Control_c, 0, 64, 60
1, 406214, Note_on_c, 0, 46, 83
1, 406223, Note_on_c, 0, 79, 84
1, 406224, Note_on_c, 0, 67, 84
1, 406226, Control_c, 0, 64, 41
1, 406241, Control_c, 0, 64, 42
1, 406255, Control_c, 0, 64, 47
1, 406270, Control_c, 0, 64, 57
1, 406275, Note_off_c, 0, 80, 54
1, 406285, Control_c, 0, 64, 67
1, 406300, Control_c, 0, 64, 84
1, 406308, Note_off_c, 0, 46, 62
1, 406315, Note_on_c, 0, 48, 66
1, 406315, Control_c, 0, 64, 127
1, 406317, Note_on_c, 0, 55, 71
1, 406322, Note_off_c, 0, 67, 54
1, 406324, Note_on_c, 0, 52, 60
1, 406390, Note_off_c, 0, 55, 58
1, 406393, Note_off_c, 0, 79, 65
1, 406398, Note_on_c, 0, 46, 82
1, 406399, Note_off_c, 0, 48, 59
1, 406416, Note_off_c, 0, 52, 61
1, 406500, Note_on_c, 0, 55, 72
1, 406505, Note_off_c, 0, 46, 60
1, 406507, Note_on_c, 0, 91, 103
1, 406512, Note_on_c, 0, 79, 87
1, 406514, Note_on_c, 0, 48, 58
1, 406526, Note_on_c, 0, 52, 62
1, 406552, Note_off_c, 0, 48, 60
1, 406583, Note_off_c, 0, 55, 60
1, 406584, Note_on_c, 0, 46, 71
1, 406614, Note_off_c, 0, 52, 57
1, 406622, Note_off_c, 0, 79, 62
1, 406626, Note_off_c, 0, 91, 62
1, 406678, Note_on_c, 0, 52, 46
1, 406686, Note_on_c, 0, 48, 43
1, 406687, Note_off_c, 0, 46, 59
1, 406692, Note_on_c, 0, 55, 71
1, 406707, Note_on_c, 0, 88, 93
1, 406713, Note_on_c, 0, 76, 83
1, 406731, Note_off_c, 0, 48, 57
1, 406733, Note_off_c, 0, 76, 71
1, 406745, Note_off_c, 0, 52, 62
1, 406758, Note_off_c, 0, 55, 59
1, 406781, Control_c, 0, 64, 77
1, 406787, Note_on_c, 0, 45, 78
1, 406793, Note_on_c, 0, 90, 101
1, 406794, Note_on_c, 0, 78, 94
1, 406796, Control_c, 0, 64, 55
1, 406811, Control_c, 0, 64, 16
1, 406818, Note_off_c, 0, 88, 59
1, 406826, Control_c, 0, 64, 15
1, 406841, Control_c, 0, 64, 13
1, 406855, Control_c, 0, 64, 21
1, 406870, Control_c, 0, 64, 52
1, 406885, Control_c, 0, 64, 66
1, 406888, Note_off_c, 0, 45, 60
1, 406900, Control_c, 0, 64, 81
1, 406907, Note_on_c, 0, 57, 68
1, 406908, Note_on_c, 0, 51, 60
1, 406908, Note_on_c, 0, 54, 63
1, 406915, Control_c, 0, 64, 127
1, 406978, Note_off_c, 0, 57, 62
1, 406985, Note_off_c, 0, 51, 60
1, 406996, Note_on_c, 0, 45, 71
1, 406999, Note_off_c, 0, 54, 63
1, 407008, Note_off_c, 0, 78, 63
1, 407008, Note_off_c, 0, 90, 63
1, 407080, Note_off_c, 0, 45, 56
1, 407102, Note_on_c, 0, 57, 55
1, 407107, Note_on_c, 0, 84, 84
1, 407124, Note_on_c, 0, 72, 70
1, 407127, Note_on_c, 0, 51, 45
1, 407133, Note_on_c, 0, 54, 46
1, 407160, Note_off_c, 0, 57, 60
1, 407165, Note_off_c, 0, 51, 57
1, 407183, Note_off_c, 0, 54, 63
1, 407212, Note_on_c, 0, 45, 54
1, 407281, Note_off_c, 0, 45, 56
1, 407300, Note_on_c, 0, 51, 49
1, 407300, Note_on_c, 0, 57, 66
1, 407306, Note_on_c, 0, 54, 58
1, 407355, Note_off_c, 0, 51, 55
1, 407359, Note_off_c, 0, 57, 64
1, 407377, Note_off_c, 0, 72, 62
1, 407380, Note_on_c, 0, 45, 77
1, 407383, Note_off_c, 0, 54, 61
1, 407464, Note_off_c, 0, 45, 61
1, 407472, Note_on_c, 0, 51, 64
1, 407476, Note_on_c, 0, 57, 64
1, 407482, Note_on_c, 0, 54, 58
1, 407523, Note_off_c, 0, 51, 58
1, 407538, Note_off_c, 0, 57, 60
1, 407547, Note_on_c, 0, 45, 75
1, 407550, Note_off_c, 0, 54, 61
1, 407619, Note_off_c, 0, 84, 60
1, 407636, Note_off_c, 0, 45, 62
1, 407651, Note_on_c, 0, 51, 56
1, 407651, Note_on_c, 0, 87, 100
1, 407654, Note_on_c, 0, 57, 67
1, 407657, Note_on_c, 0, 75, 84
1, 407664, Note_on_c, 0, 54, 67
1, 407699, Note_off_c, 0, 51, 56
1, 407729, Note_off_c, 0, 57, 63
1, 407730, Note_on_c, 0, 45, 75
1, 407738, Note_off_c, 0, 54, 60
1, 407750, Note_off_c, 0, 75, 60
1, 407768, Note_off_c, 0, 87, 62
1, 407828, Note_off_c, 0, 45, 62
1, 407833, Note_on_c, 0, 51, 70
1, 407842, Note_on_c, 0, 84, 93
1, 407845, Note_on_c, 0, 72, 81
1, 407847, Note_on_c, 0, 54, 67
1, 407847, Note_on_c, 0, 57, 74
1, 407866, Note_off_c, 0, 72, 71
1, 407885, Note_off_c, 0, 84, 67
1, 407895, Note_off_c, 0, 54, 61
1, 407905, Note_off_c, 0, 57, 64
1, 407908, Note_off_c, 0, 51, 57
1, 407935, Note_on_c, 0, 45, 87
1, 407938, Control_c, 0, 64, 106
1, 407946, Note_on_c, 0, 89, 105
1, 407953, Note_on_c, 0, 77, 90
1, 407953, Control_c, 0, 64, 69
1, 407968, Control_c, 0, 64, 51
1, 407982, Control_c, 0, 64, 44
1, 407997, Control_c, 0, 64, 46
1, 408012, Control_c, 0, 64, 54
1, 408019, Note_on_c, 0, 51, 73
1, 408024, Note_off_c, 0, 45, 61
1, 408027, Control_c, 0, 64, 64
1, 408037, Note_on_c, 0, 57, 60
1, 408042, Control_c, 0, 64, 75
1, 408048, Note_on_c, 0, 53, 51
1, 408057, Control_c, 0, 64, 127
1, 408072, Note_off_c, 0, 89, 62
1, 408082, Note_off_c, 0, 57, 58
1, 408093, Note_on_c, 0, 45, 76
1, 408097, Note_off_c, 0, 51, 64
1, 408101, Note_off_c, 0, 77, 62
1, 408114, Note_off_c, 0, 53, 61
1, 408192, Note_off_c, 0, 45, 61
1, 408214, Note_on_c, 0, 82, 83
1, 408220, Control_c, 0, 64, 104
1, 408221, Note_on_c, 0, 70, 74
1, 408223, Note_on_c, 0, 49, 51
1, 408234, Control_c, 0, 64, 71
1, 408240, Note_on_c, 0, 53, 54
1, 408245, Note_on_c, 0, 58, 62
1, 408249, Control_c, 0, 64, 52
1, 408264, Control_c, 0, 64, 35
1, 408284, Note_off_c, 0, 49, 58
1, 408289, Note_off_c, 0, 58, 58
1, 408294, Control_c, 0, 64, 36
1, 408295, Note_off_c, 0, 53, 56
1, 408308, Control_c, 0, 64, 46
1, 408314, Note_on_c, 0, 46, 70
1, 408323, Control_c, 0, 64, 60
1, 408338, Control_c, 0, 64, 67
1, 408353, Control_c, 0, 64, 76
1, 408368, Control_c, 0, 64, 92
1, 408382, Control_c, 0, 64, 111
1, 408397, Control_c, 0, 64, 127
1, 408402, Note_off_c, 0, 46, 62
1, 408409, Note_on_c, 0, 49, 53
1, 408409, Note_on_c, 0, 58, 65
1, 408416, Note_on_c, 0, 53, 64
1, 408453, Note_off_c, 0, 49, 62
1, 408477, Note_off_c, 0, 58, 62
1, 408491, Note_off_c, 0, 53, 62
1, 408492, Note_off_c, 0, 70, 59
1, 408495, Note_on_c, 0, 46, 80
1, 408578, Note_off_c, 0, 46, 62
1, 408584, Note_on_c, 0, 49, 60
1, 408596, Note_on_c, 0, 58, 65
1, 408611, Note_on_c, 0, 53, 52
1, 408649, Note_off_c, 0, 53, 62
1, 408658, Note_off_c, 0, 58, 58
1, 408680, Note_on_c, 0, 46, 79
1, 408729, Note_off_c, 0, 49, 55
1, 408761, Control_c, 0, 64, 110
1, 408767, Note_on_c, 0, 85, 82
1, 408771, Note_off_c, 0, 82, 60
1, 408776, Control_c, 0, 64, 73
1, 408778, Note_on_c, 0, 73, 73
1, 408781, Note_on_c, 0, 54, 66
1, 408791, Control_c, 0, 64, 58
1, 408793, Note_on_c, 0, 51, 55
1, 408803, Note_on_c, 0, 58, 55
1, 408805, Control_c, 0, 64, 49
1, 408810, Note_off_c, 0, 54, 52
1, 408820, Control_c, 0, 64, 51
1, 408835, Note_on_c, 0, 55, 31
1, 408835, Control_c, 0, 64, 57
1, 408845, Note_off_c, 0, 46, 0
1, 408850, Control_c, 0, 64, 63
1, 408858, Note_on_c, 0, 46, 49
1, 408859, Note_off_c, 0, 58, 55
1, 408862, Note_off_c, 0, 51, 63
1, 408865, Control_c, 0, 64, 70
1, 408880, Control_c, 0, 64, 86
1, 408895, Note_off_c, 0, 73, 52
1, 408895, Control_c, 0, 64, 127
1, 408921, Note_off_c, 0, 55, 0
1, 408921, Note_on_c, 0, 55, 19
1, 408946, Note_off_c, 0, 85, 66
1, 408954, Note_on_c, 0, 58, 69
1, 408961, Note_on_c, 0, 82, 82
1, 408964, Note_off_c, 0, 46, 57
1, 408969, Note_on_c, 0, 52, 32
1, 409002, Note_off_c, 0, 55, 59
1, 409004, Note_off_c, 0, 52, 52
1, 409009, Note_off_c, 0, 58, 60
1, 409028, Note_off_c, 0, 82, 63
1, 409028, Control_c, 0, 64, 108
1, 409043, Control_c, 0, 64, 71
1, 409045, Note_on_c, 0, 48, 81
1, 409050, Note_on_c, 0, 80, 81
1, 409050, Note_on_c, 0, 68, 85
1, 409057, Control_c, 0, 64, 53
1, 409072, Control_c, 0, 64, 37
1, 409102, Control_c, 0, 64, 37
1, 409117, Control_c, 0, 64, 47
1, 409131, Control_c, 0, 64, 60
1, 409139, Note_off_c, 0, 48, 60
1, 409145, Note_on_c, 0, 53, 59
1, 409145, Note_on_c, 0, 60, 74
1, 409146, Control_c, 0, 64, 69
1, 409149, Note_on_c, 0, 56, 67
1, 409157, Note_off_c, 0, 68, 60
1, 409161, Control_c, 0, 64, 86
1, 409176, Control_c, 0, 64, 127
1, 409225, Note_off_c, 0, 60, 60
1, 409229, Note_off_c, 0, 53, 61
1, 409231, Note_on_c, 0, 48, 84
1, 409242, Note_off_c, 0, 56, 62
1, 409323, Note_on_c, 0, 84, 96
1, 409327, Note_on_c, 0, 60, 80
1, 409331, Note_on_c, 0, 72, 87
1, 409335, Note_off_c, 0, 48, 62
1, 409338, Note_on_c, 0, 53, 68
1, 409339, Control_c, 0, 64, 90
1, 409340, Note_on_c, 0, 56, 70
1, 409351, Note_off_c, 0, 80, 62
1, 409354, Control_c, 0, 64, 66
1, 409369, Control_c, 0, 64, 54
1, 409374, Note_on_c, 0, 74, 31
1, 409375, Note_off_c, 0, 74, 127
1, 409383, Control_c, 0, 64, 56
1, 409398, Control_c, 0, 64, 61
1, 409413, Control_c, 0, 64, 66
1, 409425, Note_off_c, 0, 84, 63
1, 409432, Note_on_c, 0, 48, 82
1, 409432, Note_off_c, 0, 53, 62
1, 409436, Control_c, 0, 64, 74
1, 409437, Note_off_c, 0, 72, 65
1, 409440, Note_off_c, 0, 56, 63
1, 409440, Note_off_c, 0, 60, 61
1, 409451, Control_c, 0, 64, 95
1, 409464, Poly_aftertouch_c, 0, 82, 0
1, 409466, Control_c, 0, 64, 127
1, 409521, Note_on_c, 0, 68, 82
1, 409521, Note_on_c, 0, 80, 91
1, 409524, Note_on_c, 0, 53, 65
1, 409532, Note_on_c, 0, 56, 62
1, 409545, Note_off_c, 0, 48, 61
1, 409547, Note_on_c, 0, 60, 79
1, 409567, Note_off_c, 0, 68, 62
1, 409569, Control_c, 0, 64, 80
1, 409571, Note_off_c, 0, 80, 63
1, 409584, Control_c, 0, 64, 56
1, 409598, Note_off_c, 0, 53, 53
1, 409599, Control_c, 0, 64, 37
1, 409601, Note_on_c, 0, 67, 92
1, 409601, Note_on_c, 0, 79, 92
1, 409612, Note_off_c, 0, 56, 58
1, 409614, Control_c, 0, 64, 41
1, 409618, Note_on_c, 0, 48, 85
1, 409626, Note_off_c, 0, 60, 61
1, 409628, Control_c, 0, 64, 53
1, 409643, Control_c, 0, 64, 62
1, 409657, Note_on_c, 0, 52, 42
1, 409658, Control_c, 0, 64, 71
1, 409673, Control_c, 0, 64, 119
1, 409687, Control_c, 0, 64, 127
1, 409696, Note_off_c, 0, 52, 0
1, 409696, Note_on_c, 0, 52, 31
1, 409711, Note_on_c, 0, 55, 69
1, 409721, Note_on_c, 0, 60, 80
1, 409722, Note_off_c, 0, 48, 59
1, 409741, Note_off_c, 0, 67, 58
1, 409753, Note_off_c, 0, 79, 60
1, 409765, Poly_aftertouch_c, 0, 75, 127
1, 409780, Note_off_c, 0, 52, 65
1, 409801, Poly_aftertouch_c, 0, 75, 0
1, 409803, Note_off_c, 0, 60, 62
1, 409811, Note_on_c, 0, 48, 78
1, 409822, Note_off_c, 0, 55, 63
1, 409863, Note_on_c, 0, 72, 98
1, 409863, Note_on_c, 0, 84, 104
1, 409874, Note_on_c, 0, 60, 81
1, 409882, Note_on_c, 0, 52, 78
1, 409888, Note_on_c, 0, 55, 67
1, 409930, Note_off_c, 0, 72, 53
1, 409935, Note_off_c, 0, 60, 64
1, 409954, Note_off_c, 0, 84, 49
1, 409956, Note_off_c, 0, 55, 63
1, 409986, Note_off_c, 0, 52, 65
1, 410007, Note_off_c, 0, 48, 63
1, 410036, Note_on_c, 0, 84, 95
1, 410038, Note_on_c, 0, 72, 77
1, 410063, Note_off_c, 0, 72, 66
1, 410073, Note_off_c, 0, 84, 66
1, 410087, Control_c, 0, 64, 77
1, 410102, Control_c, 0, 64, 59
1, 410117, Note_on_c, 0, 41, 86
1, 410117, Note_on_c, 0, 53, 98
1, 410117, Control_c, 0, 64, 57
1, 410120, Note_on_c, 0, 48, 87
1, 410121, Note_on_c, 0, 44, 84
1, 410125, Note_on_c, 0, 84, 102
1, 410126, Note_on_c, 0, 72, 106
1, 410132, Control_c, 0, 64, 68
1, 410147, Control_c, 0, 64, 94
1, 410147, Note_off_c, 0, 48, 66
1, 410150, Note_off_c, 0, 84, 64
1, 410157, Note_off_c, 0, 41, 64
1, 410158, Note_off_c, 0, 53, 65
1, 410161, Control_c, 0, 64, 127
1, 410162, Note_off_c, 0, 72, 68
1, 410179, Note_off_c, 0, 44, 63
1, 410245, Note_on_c, 0, 60, 89
1, 410245, Note_on_c, 0, 66, 81
1, 410245, Control_c, 0, 64, 74
1, 410255, Note_on_c, 0, 72, 71
1, 410259, Control_c, 0, 64, 48
1, 410260, Note_on_c, 0, 74, 69
1, 410263, Note_off_c, 0, 66, 44
1, 410265, Note_off_c, 0, 60, 69
1, 410269, Note_on_c, 0, 68, 40
1, 410270, Note_off_c, 0, 68, 127
1, 410274, Control_c, 0, 64, 0
1, 410278, Note_off_c, 0, 74, 66
1, 410278, Note_off_c, 0, 72, 70
1, 410287, Note_on_c, 0, 62, 17
1, 410288, Note_off_c, 0, 62, 127
1, 410291, Note_on_c, 0, 65, 20
1, 410291, Note_on_c, 0, 70, 9
1, 410292, Note_off_c, 0, 70, 127
1, 410334, Note_off_c, 0, 65, 0
1, 410334, Note_on_c, 0, 65, 60
1, 410336, Note_on_c, 0, 60, 89
1, 410349, Note_on_c, 0, 72, 74
1, 410355, Note_on_c, 0, 68, 69
1, 410364, Note_off_c, 0, 72, 69
1, 410365, Note_off_c, 0, 60, 66
1, 410373, Note_off_c, 0, 68, 65
1, 410380, Note_off_c, 0, 65, 63
1, 410418, Note_on_c, 0, 65, 80
1, 410418, Note_on_c, 0, 72, 97
1, 410419, Note_on_c, 0, 60, 92
1, 410427, Note_on_c, 0, 68, 82
1, 410447, Note_on_c, 0, 70, 39
1, 410448, Note_off_c, 0, 70, 127
1, 410514, Note_on_c, 0, 56, 91
1, 410525, Note_on_c, 0, 53, 74
1, 410556, Note_off_c, 0, 53, 67
1, 410559, Note_off_c, 0, 56, 62
1, 410603, Note_on_c, 0, 56, 85
1, 410623, Note_on_c, 0, 53, 59
1, 410637, Note_off_c, 0, 72, 61
1, 410646, Note_off_c, 0, 53, 60
1, 410647, Note_off_c, 0, 56, 66
1, 410647, Note_off_c, 0, 60, 64
1, 410656, Note_off_c, 0, 65, 61
1, 410665, Note_off_c, 0, 68, 61
1, 410695, Note_on_c, 0, 55, 98
1, 410699, Note_on_c, 0, 52, 92
1, 410786, Note_on_c, 0, 60, 99
1, 410792, Note_on_c, 0, 67, 79
1, 410792, Note_on_c, 0, 72, 84
1, 410799, Note_on_c, 0, 64, 70
1, 410816, Note_off_c, 0, 60, 67
1, 410817, Note_off_c, 0, 67, 66
1, 410826, Note_off_c, 0, 64, 67
1, 410830, Note_off_c, 0, 72, 59
1, 410871, Note_on_c, 0, 60, 68
1, 410872, Note_on_c, 0, 64, 84
1, 410883, Note_on_c, 0, 72, 55
1, 410887, Note_off_c, 0, 52, 60
1, 410897, Note_off_c, 0, 60, 66
1, 410899, Note_off_c, 0, 55, 62
1, 410904, Note_off_c, 0, 72, 62
1, 410909, Note_off_c, 0, 64, 65
1, 410975, Note_on_c, 0, 60, 92
1, 410975, Note_on_c, 0, 72, 93
1, 410981, Note_on_c, 0, 70, 83
1, 410987, Note_on_c, 0, 67, 73
1, 411072, Note_on_c, 0, 58, 82
1, 411073, Note_on_c, 0, 55, 76
1, 411109, Note_off_c, 0, 58, 61
1, 411114, Note_off_c, 0, 55, 62
1, 411181, Note_on_c, 0, 58, 96
1, 411187, Note_off_c, 0, 72, 62
1, 411193, Note_on_c, 0, 55, 75
1, 411203, Note_off_c, 0, 60, 62
1, 411210, Note_off_c, 0, 67, 62
1, 411214, Note_off_c, 0, 70, 62
1, 411219, Note_off_c, 0, 55, 66
1, 411220, Note_off_c, 0, 58, 63
1, 411270, Note_on_c, 0, 56, 97
1, 411272, Note_on_c, 0, 53, 90
1, 411274, Control_c, 0, 64, 11
1, 411289, Control_c, 0, 64, 12
1, 411345, Note_on_c, 0, 60, 93
1, 411347, Note_on_c, 0, 72, 87
1, 411349, Note_on_c, 0, 68, 78
1, 411360, Note_on_c, 0, 65, 61
1, 411364, Note_on_c, 0, 71, 62
1, 411372, Note_off_c, 0, 68, 69
1, 411373, Note_off_c, 0, 60, 68
1, 411381, Note_off_c, 0, 65, 63
1, 411382, Note_off_c, 0, 71, 64
1, 411390, Note_off_c, 0, 72, 65
1, 411434, Note_on_c, 0, 60, 85
1, 411435, Note_on_c, 0, 72, 79
1, 411437, Note_on_c, 0, 68, 82
1, 411437, Note_off_c, 0, 53, 60
1, 411440, Note_on_c, 0, 65, 82
1, 411446, Note_off_c, 0, 56, 61
1, 411463, Note_off_c, 0, 72, 65
1, 411464, Note_off_c, 0, 65, 65
1, 411464, Note_off_c, 0, 68, 64
1, 411467, Note_off_c, 0, 60, 65
1, 411524, Note_on_c, 0, 72, 99
1, 411525, Note_on_c, 0, 60, 90
1, 411529, Note_on_c, 0, 68, 85
1, 411532, Note_on_c, 0, 65, 80
1, 411598, Note_on_c, 0, 53, 79
1, 411598, Note_on_c, 0, 56, 84
1, 411630, Control_c, 0, 64, 15
1, 411631, Note_off_c, 0, 56, 64
1, 411638, Note_off_c, 0, 53, 62
1, 411644, Control_c, 0, 64, 17
1, 411682, Control_c, 0, 64, 20
1, 411688, Note_on_c, 0, 56, 80
1, 411693, Note_on_c, 0, 53, 68
1, 411697, Control_c, 0, 64, 25
1, 411712, Control_c, 0, 64, 28
1, 411722, Note_off_c, 0, 72, 61
1, 411723, Note_off_c, 0, 53, 67
1, 411726, Control_c, 0, 64, 30
1, 411726, Note_off_c, 0, 56, 64
1, 411737, Note_off_c, 0, 60, 63
1, 411750, Note_off_c, 0, 65, 60
1, 411753, Note_off_c, 0, 68, 59
1, 411777, Note_on_c, 0, 55, 100
1, 411780, Note_on_c, 0, 52, 89
1, 411846, Control_c, 0, 64, 30
1, 411868, Note_on_c, 0, 60, 98
1, 411875, Control_c, 0, 64, 29
1, 411877, Note_on_c, 0, 67, 75
1, 411878, Note_on_c, 0, 64, 75
1, 411884, Note_on_c, 0, 72, 66
1, 411890, Control_c, 0, 64, 28
1, 411899, Note_on_c, 0, 71, 56
1, 411901, Note_off_c, 0, 60, 66
1, 411901, Note_off_c, 0, 64, 66
1, 411902, Note_off_c, 0, 67, 69
1, 411905, Control_c, 0, 64, 28
1, 411912, Note_off_c, 0, 72, 65
1, 411919, Note_off_c, 0, 71, 60
1, 411920, Control_c, 0, 64, 27
1, 411935, Control_c, 0, 64, 27
1, 411955, Note_on_c, 0, 64, 84
1, 411956, Note_on_c, 0, 60, 85
1, 411965, Note_on_c, 0, 72, 84
1, 411968, Note_off_c, 0, 52, 61
1, 411981, Note_off_c, 0, 55, 63
1, 411983, Note_on_c, 0, 68, 52
1, 411984, Note_off_c, 0, 68, 127
1, 411986, Note_off_c, 0, 60, 63
1, 411989, Note_off_c, 0, 72, 66
1, 411992, Note_off_c, 0, 64, 64
1, 411994, Control_c, 0, 64, 26
1, 412005, Note_on_c, 0, 71, 27
1, 412006, Note_off_c, 0, 71, 127
1, 412046, Note_on_c, 0, 60, 97
1, 412047, Note_on_c, 0, 72, 98
1, 412049, Note_on_c, 0, 70, 95
1, 412055, Note_on_c, 0, 67, 83
1, 412118, Note_on_c, 0, 55, 77
1, 412118, Note_on_c, 0, 58, 84
1, 412161, Note_off_c, 0, 55, 62
1, 412165, Note_off_c, 0, 58, 63
1, 412215, Note_off_c, 0, 72, 58
1, 412229, Note_off_c, 0, 70, 62
1, 412230, Note_on_c, 0, 58, 69
1, 412230, Note_off_c, 0, 60, 59
1, 412231, Note_off_c, 0, 67, 61
1, 412241, Note_on_c, 0, 55, 51
1, 412257, Note_off_c, 0, 58, 67
1, 412265, Note_off_c, 0, 55, 58
1, 412323, Note_on_c, 0, 56, 77
1, 412326, Note_on_c, 0, 53, 68
1, 412355, Note_off_c, 0, 53, 64
1, 412358, Note_off_c, 0, 56, 65
1, 412427, Note_on_c, 0, 60, 71
1, 412433, Note_on_c, 0, 72, 60
1, 412439, Note_on_c, 0, 68, 48
1, 412456, Note_off_c, 0, 60, 66
1, 412457, Note_off_c, 0, 72, 61
1, 412480, Note_off_c, 0, 68, 60
1, 412516, Note_on_c, 0, 56, 68
1, 412516, Note_on_c, 0, 53, 66
1, 412552, Note_off_c, 0, 56, 66
1, 412553, Note_off_c, 0, 53, 65
1, 412579, Control_c, 0, 64, 27
1, 412601, Note_on_c, 0, 61, 68
1, 412607, Note_on_c, 0, 73, 63
1, 412613, Note_on_c, 0, 65, 49
1, 412620, Note_on_c, 0, 67, 44
1, 412657, Note_off_c, 0, 67, 50
1, 412659, Note_off_c, 0, 61, 57
1, 412671, Note_off_c, 0, 73, 61
1, 412671, Note_off_c, 0, 65, 57
1, 412699, Note_on_c, 0, 55, 65
1, 412700, Note_on_c, 0, 46, 62
1, 412731, Note_off_c, 0, 55, 64
1, 412740, Note_off_c, 0, 46, 60
1, 412745, Note_on_c, 0, 53, 5
1, 412786, Note_on_c, 0, 73, 77
1, 412787, Note_on_c, 0, 61, 74
1, 412788, Note_on_c, 0, 65, 68
1, 412802, Note_off_c, 0, 53, 31
1, 412832, Note_off_c, 0, 61, 60
1, 412845, Note_off_c, 0, 73, 65
1, 412858, Note_off_c, 0, 65, 60
1, 412878, Note_on_c, 0, 56, 86
1, 412885, Note_on_c, 0, 53, 68
1, 412889, Note_on_c, 0, 48, 69
1, 412916, Note_off_c, 0, 56, 58
1, 412921, Note_off_c, 0, 53, 65
1, 412926, Note_off_c, 0, 48, 60
1, 412967, Note_on_c, 0, 60, 83
1, 412968, Note_on_c, 0, 72, 83
1, 412972, Note_on_c, 0, 68, 76
1, 412975, Note_on_c, 0, 65, 71
1, 413004, Note_off_c, 0, 65, 63
1, 413023, Note_off_c, 0, 60, 64
1, 413034, Note_off_c, 0, 68, 61
1, 413039, Note_off_c, 0, 72, 62
1, 413053, Note_on_c, 0, 56, 90
1, 413066, Note_on_c, 0, 48, 73
1, 413066, Note_on_c, 0, 52, 74
1, 413104, Note_off_c, 0, 48, 63
1, 413109, Note_off_c, 0, 56, 64
1, 413110, Note_off_c, 0, 52, 59
1, 413132, Note_on_c, 0, 60, 92
1, 413137, Note_on_c, 0, 72, 87
1, 413145, Note_on_c, 0, 64, 70
1, 413145, Note_on_c, 0, 67, 69
1, 413180, Note_off_c, 0, 64, 66
1, 413194, Note_off_c, 0, 67, 57
1, 413196, Note_off_c, 0, 60, 64
1, 413211, Note_off_c, 0, 72, 63
1, 413238, Note_on_c, 0, 55, 93
1, 413241, Note_on_c, 0, 48, 82
1, 413241, Note_on_c, 0, 52, 80
1, 413283, Control_c, 0, 64, 29
1, 413285, Note_off_c, 0, 55, 66
1, 413295, Note_off_c, 0, 52, 63
1, 413297, Control_c, 0, 64, 45
1, 413298, Note_on_c, 0, 60, 80
1, 413301, Note_off_c, 0, 48, 62
1, 413306, Note_on_c, 0, 72, 79
1, 413308, Note_on_c, 0, 65, 76
1, 413312, Control_c, 0, 64, 58
1, 413324, Note_off_c, 0, 60, 67
1, 413327, Control_c, 0, 64, 66
1, 413337, Note_on_c, 0, 68, 27
1, 413339, Note_off_c, 0, 65, 63
1, 413342, Control_c, 0, 64, 77
1, 413343, Note_off_c, 0, 72, 61
1, 413357, Control_c, 0, 64, 127
1, 413376, Note_off_c, 0, 68, 43
1, 413399, Poly_aftertouch_c, 0, 68, 0
1, 413402, Note_on_c, 0, 60, 88
1, 413402, Note_on_c, 0, 72, 79
1, 413405, Note_on_c, 0, 68, 68
1, 413406, Note_on_c, 0, 53, 104
1, 413411, Note_on_c, 0, 65, 75
1, 413413, Note_on_c, 0, 44, 86
1, 413414, Note_on_c, 0, 48, 82
1, 413417, Note_on_c, 0, 41, 83
1, 413419, Note_on_c, 0, 66, 53
1, 413420, Note_off_c, 0, 66, 127
1, 413420, Note_off_c, 0, 72, 67
1, 413426, Note_off_c, 0, 53, 73
1, 413431, Note_off_c, 0, 60, 66
1, 413431, Note_off_c, 0, 65, 72
1, 413433, Note_off_c, 0, 68, 65
1, 413439, Note_off_c, 0, 48, 68
1, 413447, Control_c, 0, 64, 90
1, 413452, Note_off_c, 0, 41, 67
1, 413458, Note_off_c, 0, 44, 64
1, 413462, Control_c, 0, 64, 60
1, 413476, Control_c, 0, 64, 0
1, 413505, Note_on_c, 0, 48, 89
1, 413514, Note_on_c, 0, 52, 78
1, 413518, Note_on_c, 0, 59, 70
1, 413518, Note_on_c, 0, 60, 75
1, 413539, Note_on_c, 0, 55, 47
1, 413539, Note_off_c, 0, 52, 68
1, 413542, Note_on_c, 0, 56, 34
1, 413543, Note_off_c, 0, 56, 127
1, 413543, Note_off_c, 0, 60, 68
1, 413545, Note_off_c, 0, 48, 65
1, 413547, Note_off_c, 0, 59, 67
1, 413567, Note_off_c, 0, 55, 54
1, 413598, Note_on_c, 0, 60, 84
1, 413601, Note_on_c, 0, 48, 80
1, 413602, Note_on_c, 0, 53, 77
1, 413602, Note_on_c, 0, 56, 58
1, 413631, Note_off_c, 0, 48, 65
1, 413631, Note_off_c, 0, 53, 67
1, 413636, Note_off_c, 0, 60, 63
1, 413640, Note_off_c, 0, 56, 65
1, 413681, Note_on_c, 0, 48, 92
1, 413687, Note_on_c, 0, 62, 82
1, 413688, Note_on_c, 0, 54, 71
1, 413691, Note_on_c, 0, 60, 75
1, 413691, Note_on_c, 0, 56, 88
1, 413696, Note_on_c, 0, 53, 82
1, 413709, Note_off_c, 0, 54, 62
1, 413719, Note_off_c, 0, 62, 61
1, 413730, Note_on_c, 0, 58, 11
1, 413745, Note_off_c, 0, 53, 0
1, 413746, Note_off_c, 0, 58, 39
1, 413783, Poly_aftertouch_c, 0, 53, 127
1, 413794, Note_on_c, 0, 41, 86
1, 413795, Note_on_c, 0, 44, 91
1, 413827, Note_off_c, 0, 44, 65
1, 413833, Note_off_c, 0, 41, 65
1, 413888, Note_on_c, 0, 44, 87
1, 413896, Note_on_c, 0, 41, 72
1, 413911, Note_off_c, 0, 60, 63
1, 413928, Note_off_c, 0, 48, 61
1, 413932, Note_off_c, 0, 41, 65
1, 413933, Note_off_c, 0, 44, 62
1, 413938, Poly_aftertouch_c, 0, 53, 0
1, 413947, Note_off_c, 0, 56, 64
1, 413978, Note_on_c, 0, 43, 104
1, 413983, Note_on_c, 0, 40, 91
1, 414066, Note_on_c, 0, 48, 99
1, 414070, Note_on_c, 0, 60, 86
1, 414075, Note_on_c, 0, 55, 76
1, 414080, Note_on_c, 0, 52, 75
1, 414100, Note_off_c, 0, 48, 65
1, 414105, Note_off_c, 0, 52, 65
1, 414109, Note_off_c, 0, 55, 66
1, 414117, Note_off_c, 0, 60, 51
1, 414152, Note_on_c, 0, 52, 87
1, 414155, Note_on_c, 0, 60, 54
1, 414158, Note_on_c, 0, 48, 73
1, 414180, Note_off_c, 0, 40, 60
1, 414187, Note_off_c, 0, 48, 66
1, 414191, Note_off_c, 0, 60, 51
1, 414195, Note_off_c, 0, 43, 64
1, 414198, Note_off_c, 0, 52, 67
1, 414251, Note_on_c, 0, 48, 97
1, 414253, Note_on_c, 0, 60, 98
1, 414257, Note_on_c, 0, 58, 86
1, 414261, Note_on_c, 0, 55, 68
1, 414340, Note_on_c, 0, 46, 92
1, 414342, Note_on_c, 0, 43, 87
1, 414376, Note_off_c, 0, 43, 65
1, 414379, Note_off_c, 0, 46, 62
1, 414436, Note_on_c, 0, 46, 84
1, 414439, Note_on_c, 0, 43, 81
1, 414460, Note_off_c, 0, 60, 58
1, 414467, Note_off_c, 0, 46, 65
1, 414469, Note_off_c, 0, 43, 66
1, 414480, Note_off_c, 0, 48, 61
1, 414491, Note_off_c, 0, 55, 62
1, 414495, Note_off_c, 0, 58, 62
1, 414522, Note_on_c, 0, 44, 97
1, 414524, Note_on_c, 0, 41, 92
1, 414611, Note_on_c, 0, 48, 100
1, 414615, Note_on_c, 0, 60, 80
1, 414624, Note_on_c, 0, 53, 83
1, 414627, Note_on_c, 0, 56, 62
1, 414642, Note_on_c, 0, 54, 41
1, 414645, Note_off_c, 0, 48, 65
1, 414648, Note_off_c, 0, 53, 66
1, 414651, Note_off_c, 0, 60, 59
1, 414652, Note_off_c, 0, 56, 38
1, 414683, Note_off_c, 0, 54, 51
1, 414708, Note_on_c, 0, 60, 84
1, 414711, Note_on_c, 0, 48, 88
1, 414711, Note_on_c, 0, 53, 78
1, 414713, Note_on_c, 0, 56, 84
1, 414743, Note_off_c, 0, 60, 59
1, 414745, Note_off_c, 0, 41, 62
1, 414747, Note_off_c, 0, 48, 63
1, 414749, Note_off_c, 0, 56, 63
1, 414756, Note_off_c, 0, 53, 62
1, 414764, Note_off_c, 0, 44, 64
1, 414807, Note_on_c, 0, 56, 91
1, 414807, Note_on_c, 0, 60, 97
1, 414808, Note_on_c, 0, 48, 96
1, 414813, Note_on_c, 0, 53, 75
1, 414892, Note_on_c, 0, 44, 88
1, 414894, Note_on_c, 0, 41, 87
1, 414935, Note_off_c, 0, 41, 65
1, 414943, Note_off_c, 0, 44, 63
1, 414997, Note_on_c, 0, 44, 90
1, 415008, Note_off_c, 0, 60, 58
1, 415019, Note_on_c, 0, 41, 64
1, 415020, Note_off_c, 0, 48, 60
1, 415032, Note_off_c, 0, 53, 61
1, 415038, Note_off_c, 0, 56, 62
1, 415043, Note_off_c, 0, 41, 58
1, 415044, Note_off_c, 0, 44, 63
1, 415083, Note_on_c, 0, 43, 98
1, 415087, Note_on_c, 0, 40, 89
1, 415159, Note_on_c, 0, 48, 96
1, 415165, Note_on_c, 0, 55, 73
1, 415168, Note_on_c, 0, 52, 72
1, 415169, Note_on_c, 0, 60, 72
1, 415187, Note_off_c, 0, 48, 66
1, 415189, Note_off_c, 0, 52, 68
1, 415193, Note_on_c, 0, 59, 51
1, 415198, Note_off_c, 0, 55, 66
1, 415198, Note_off_c, 0, 60, 68
1, 415219, Note_off_c, 0, 59, 53
1, 415237, Note_off_c, 0, 40, 63
1, 415242, Note_off_c, 0, 43, 62
1, 415251, Note_on_c, 0, 48, 90
1, 415252, Note_on_c, 0, 52, 77
1, 415257, Note_on_c, 0, 60, 80
1, 415269, Note_on_c, 0, 56, 57
1, 415270, Note_off_c, 0, 56, 127
1, 415283, Note_on_c, 0, 53, 27
1, 415284, Note_off_c, 0, 53, 127
1, 415286, Note_off_c, 0, 48, 61
1, 415286, Note_off_c, 0, 52, 66
1, 415286, Note_off_c, 0, 60, 57
1, 415343, Note_on_c, 0, 60, 95
1, 415345, Note_on_c, 0, 48, 98
1, 415347, Note_on_c, 0, 58, 90
1, 415349, Note_on_c, 0, 55, 82
1, 415404, Note_on_c, 0, 46, 86
1, 415405, Note_on_c, 0, 43, 82
1, 415442, Poly_aftertouch_c, 0, 59, 0
1, 415445, Note_off_c, 0, 43, 66
1, 415448, Note_off_c, 0, 46, 63
1, 415513, Note_off_c, 0, 55, 54
1, 415514, Note_on_c, 0, 46, 87
1, 415522, Note_on_c, 0, 43, 70
1, 415525, Note_off_c, 0, 60, 56
1, 415540, Note_off_c, 0, 58, 61
1, 415542, Note_off_c, 0, 48, 59
1, 415551, Note_off_c, 0, 43, 65
1, 415555, Note_off_c, 0, 46, 62
1, 415622, Note_on_c, 0, 41, 84
1, 415622, Note_on_c, 0, 44, 75
1, 415660, Note_off_c, 0, 41, 64
1, 415663, Note_off_c, 0, 44, 62
1, 415730, Note_on_c, 0, 48, 69
1, 415733, Note_on_c, 0, 60, 66
1, 415742, Note_on_c, 0, 56, 46
1, 415760, Note_off_c, 0, 48, 65
1, 415762, Note_off_c, 0, 60, 64
1, 415765, Note_on_c, 0, 53, 20
1, 415782, Note_off_c, 0, 56, 64
1, 415810, Note_off_c, 0, 53, 38
1, 415820, Note_on_c, 0, 44, 71
1, 415834, Note_on_c, 0, 41, 55
1, 415855, Note_off_c, 0, 44, 63
1, 415862, Note_off_c, 0, 41, 55
1, 415905, Note_on_c, 0, 49, 67
1, 415909, Note_on_c, 0, 53, 59
1, 415909, Note_on_c, 0, 61, 67
1, 415924, Note_on_c, 0, 55, 47
1, 415946, Note_off_c, 0, 49, 61
1, 415959, Note_off_c, 0, 55, 61
1, 415960, Note_off_c, 0, 53, 61
1, 415978, Note_off_c, 0, 61, 59
1, 415984, Note_on_c, 0, 43, 67
1, 415990, Note_on_c, 0, 41, 46
1, 415996, Note_on_c, 0, 34, 53
1, 416022, Note_off_c, 0, 43, 63
1, 416033, Note_off_c, 0, 41, 62
1, 416037, Note_off_c, 0, 34, 60
1, 416088, Note_on_c, 0, 61, 75
1, 416090, Note_on_c, 0, 49, 71
1, 416098, Note_on_c, 0, 53, 67
1, 416126, Note_off_c, 0, 49, 64
1, 416147, Note_off_c, 0, 53, 60
1, 416156, Note_off_c, 0, 61, 61
1, 416180, Note_on_c, 0, 44, 79
1, 416185, Note_on_c, 0, 41, 68
1, 416198, Note_on_c, 0, 36, 58
1, 416215, Note_off_c, 0, 44, 63
1, 416231, Note_off_c, 0, 36, 64
1, 416231, Note_off_c, 0, 41, 63
1, 416275, Note_on_c, 0, 48, 81
1, 416278, Note_on_c, 0, 60, 77
1, 416284, Note_on_c, 0, 53, 66
1, 416284, Note_on_c, 0, 56, 69
1, 416316, Note_off_c, 0, 53, 64
1, 416327, Note_off_c, 0, 48, 59
1, 416327, Note_off_c, 0, 56, 60
1, 416344, Note_off_c, 0, 60, 61
1, 416357, Note_on_c, 0, 44, 83
1, 416364, Note_on_c, 0, 36, 69
1, 416375, Note_on_c, 0, 40, 58
1, 416411, Note_off_c, 0, 40, 64
1, 416415, Note_off_c, 0, 44, 63
1, 416431, Note_off_c, 0, 36, 60
1, 416444, Note_on_c, 0, 48, 83
1, 416447, Note_on_c, 0, 60, 80
1, 416455, Note_on_c, 0, 52, 65
1, 416457, Note_on_c, 0, 55, 65
1, 416475, Note_on_c, 0, 56, 40
1, 416505, Note_off_c, 0, 48, 60
1, 416508, Note_off_c, 0, 56, 50
1, 416526, Note_on_c, 0, 43, 95
1, 416526, Note_off_c, 0, 52, 63
1, 416526, Note_off_c, 0, 60, 61
1, 416529, Note_on_c, 0, 34, 86
1, 416529, Note_off_c, 0, 55, 48
1, 416545, Note_on_c, 0, 41, 63
1, 416579, Note_off_c, 0, 43, 64
1, 416594, Note_off_c, 0, 34, 61
1, 416603, Note_off_c, 0, 41, 55
1, 416619, Note_on_c, 0, 60, 90
1, 416622, Note_on_c, 0, 48, 76
1, 416625, Note_on_c, 0, 52, 71
1, 416651, Note_off_c, 0, 48, 66
1, 416651, Note_off_c, 0, 52, 67
1, 416680, Note_off_c, 0, 60, 66
1, 416706, Note_on_c, 0, 41, 79
1, 416706, Note_on_c, 0, 44, 94
1, 416715, Note_on_c, 0, 32, 78
1, 416717, Note_on_c, 0, 36, 68
1, 416771, Note_off_c, 0, 44, 62
1, 416779, Note_off_c, 0, 32, 61
1, 416794, Note_off_c, 0, 41, 60
1, 416795, Note_off_c, 0, 36, 60
1, 416797, Note_on_c, 0, 60, 93
1, 416799, Note_on_c, 0, 72, 91
1, 416806, Note_on_c, 0, 68, 70
1, 416811, Note_on_c, 0, 65, 65
1, 416838, Note_on_c, 0, 70, 7
1, 416839, Note_off_c, 0, 70, 127
1, 416843, Note_off_c, 0, 65, 62
1, 416845, Note_off_c, 0, 60, 63
1, 416848, Note_off_c, 0, 68, 56
1, 416851, Note_off_c, 0, 72, 65
1, 416892, Note_on_c, 0, 41, 80
1, 416895, Note_on_c, 0, 44, 90
1, 416898, Note_on_c, 0, 32, 74
1, 416916, Note_on_c, 0, 36, 60
1, 416963, Note_off_c, 0, 36, 60
1, 416965, Note_off_c, 0, 41, 63
1, 416967, Note_off_c, 0, 44, 62
1, 416969, Note_off_c, 0, 32, 62
1, 416985, Note_on_c, 0, 61, 87
1, 416987, Note_on_c, 0, 73, 87
1, 416996, Note_on_c, 0, 65, 75
1, 417000, Note_on_c, 0, 67, 67
1, 417034, Note_off_c, 0, 61, 62
1, 417044, Note_off_c, 0, 67, 57
1, 417065, Note_off_c, 0, 73, 61
1, 417070, Note_off_c, 0, 65, 56
1, 417077, Note_on_c, 0, 46, 97
1, 417083, Note_on_c, 0, 41, 79
1, 417084, Note_on_c, 0, 34, 77
1, 417089, Note_on_c, 0, 43, 72
1, 417131, Note_off_c, 0, 43, 61
1, 417149, Note_off_c, 0, 34, 61
1, 417152, Note_off_c, 0, 46, 61
1, 417159, Note_on_c, 0, 61, 92
1, 417161, Note_on_c, 0, 73, 92
1, 417164, Note_off_c, 0, 41, 62
1, 417167, Note_on_c, 0, 65, 83
1, 417205, Note_on_c, 0, 70, 33
1, 417214, Note_off_c, 0, 61, 64
1, 417232, Note_off_c, 0, 73, 65
1, 417241, Note_off_c, 0, 70, 45
1, 417250, Note_on_c, 0, 48, 102
1, 417257, Note_on_c, 0, 41, 76
1, 417258, Note_on_c, 0, 44, 81
1, 417262, Note_on_c, 0, 36, 75
1, 417277, Note_off_c, 0, 65, 56
1, 417307, Control_c, 0, 64, 11
1, 417320, Note_off_c, 0, 36, 57
1, 417322, Control_c, 0, 64, 17
1, 417331, Note_off_c, 0, 48, 61
1, 417336, Control_c, 0, 64, 17
1, 417342, Note_on_c, 0, 60, 95
1, 417342, Note_off_c, 0, 41, 60
1, 417342, Note_on_c, 0, 72, 93
1, 417352, Note_on_c, 0, 68, 80
1, 417352, Note_off_c, 0, 44, 62
1, 417354, Note_on_c, 0, 65, 75
1, 417366, Control_c, 0, 64, 18
1, 417371, Note_on_c, 0, 70, 42
1, 417402, Note_off_c, 0, 70, 47
1, 417423, Note_off_c, 0, 60, 57
1, 417428, Note_off_c, 0, 65, 60
1, 417431, Note_off_c, 0, 72, 61
1, 417432, Note_on_c, 0, 44, 85
1, 417432, Note_on_c, 0, 48, 100
1, 417436, Note_on_c, 0, 36, 72
1, 417441, Control_c, 0, 64, 17
1, 417453, Note_off_c, 0, 68, 55
1, 417457, Control_c, 0, 64, 17
1, 417462, Note_on_c, 0, 41, 52
1, 417472, Control_c, 0, 64, 16
1, 417486, Note_off_c, 0, 36, 61
1, 417495, Note_off_c, 0, 48, 63
1, 417502, Control_c, 0, 64, 15
1, 417515, Note_off_c, 0, 41, 64
1, 417528, Note_on_c, 0, 60, 90
1, 417530, Note_on_c, 0, 72, 94
1, 417534, Note_on_c, 0, 64, 82
1, 417534, Note_off_c, 0, 44, 60
1, 417536, Note_on_c, 0, 67, 73
1, 417546, Control_c, 0, 64, 20
1, 417560, Control_c, 0, 64, 39
1, 417575, Control_c, 0, 64, 55
1, 417590, Control_c, 0, 64, 64
1, 417598, Note_off_c, 0, 60, 62
1, 417605, Control_c, 0, 64, 69
1, 417612, Note_on_c, 0, 46, 100
1, 417614, Note_off_c, 0, 72, 62
1, 417615, Note_on_c, 0, 43, 88
1, 417617, Note_on_c, 0, 40, 75
1, 417620, Control_c, 0, 64, 79
1, 417622, Note_on_c, 0, 34, 70
1, 417629, Note_off_c, 0, 64, 59
1, 417635, Control_c, 0, 64, 96
1, 417649, Control_c, 0, 64, 118
1, 417656, Note_off_c, 0, 67, 52
1, 417672, Control_c, 0, 64, 102
1, 417687, Control_c, 0, 64, 74
1, 417701, Control_c, 0, 64, 60
1, 417705, Note_off_c, 0, 43, 63
1, 417705, Note_off_c, 0, 34, 57
1, 417709, Note_off_c, 0, 46, 60
1, 417710, Note_on_c, 0, 72, 101
1, 417713, Note_on_c, 0, 60, 92
1, 417716, Control_c, 0, 64, 52
1, 417717, Note_on_c, 0, 64, 80
1, 417731, Note_off_c, 0, 60, 73
1, 417731, Control_c, 0, 64, 58
1, 417733, Note_on_c, 0, 67, 43
1, 417738, Note_off_c, 0, 40, 62
1, 417744, Note_off_c, 0, 64, 66
1, 417746, Control_c, 0, 64, 65
1, 417761, Note_off_c, 0, 67, 56
1, 417761, Control_c, 0, 64, 75
1, 417762, Note_on_c, 0, 69, 27
1, 417775, Note_off_c, 0, 72, 67
1, 417775, Control_c, 0, 64, 127
1, 417799, Note_off_c, 0, 69, 33
1, 417804, Note_on_c, 0, 44, 103
1, 417810, Note_on_c, 0, 41, 86
1, 417811, Note_on_c, 0, 32, 87
1, 417820, Note_on_c, 0, 36, 72
1, 417835, Control_c, 0, 64, 84
1, 417849, Control_c, 0, 64, 64
1, 417864, Control_c, 0, 64, 45
1, 417879, Control_c, 0, 64, 49
1, 417894, Control_c, 0, 64, 57
1, 417896, Note_off_c, 0, 32, 59
1, 417905, Note_off_c, 0, 44, 62
1, 417906, Note_on_c, 0, 72, 105
1, 417907, Note_on_c, 0, 84, 109
1, 417909, Control_c, 0, 64, 64
1, 417914, Note_on_c, 0, 80, 85
1, 417915, Note_on_c, 0, 77, 85
1, 417924, Control_c, 0, 64, 74
1, 417939, Control_c, 0, 64, 99
1, 417954, Control_c, 0, 64, 127
1, 417971, Note_off_c, 0, 36, 33
1, 417984, Note_off_c, 0, 41, 31
1, 417993, Note_off_c, 0, 84, 65
1, 418002, Note_off_c, 0, 72, 61
1, 418007, Note_on_c, 0, 41, 68
1, 418010, Note_on_c, 0, 36, 53
1, 418010, Note_off_c, 0, 80, 60
1, 418010, Note_on_c, 0, 32, 76
1, 418010, Note_on_c, 0, 44, 103
1, 418031, Note_off_c, 0, 77, 61
1, 418042, Control_c, 0, 64, 101
1, 418057, Control_c, 0, 64, 75
1, 418072, Control_c, 0, 64, 61
1, 418073, Note_off_c, 0, 32, 63
1, 418079, Note_off_c, 0, 41, 62
1, 418085, Note_off_c, 0, 36, 56
1, 418086, Control_c, 0, 64, 48
1, 418097, Note_on_c, 0, 73, 103
1, 418099, Note_on_c, 0, 85, 96
1, 418101, Control_c, 0, 64, 48
1, 418106, Note_on_c, 0, 77, 89
1, 418108, Note_on_c, 0, 79, 79
1, 418112, Note_off_c, 0, 44, 62
1, 418116, Control_c, 0, 64, 54
1, 418131, Control_c, 0, 64, 63
1, 418146, Control_c, 0, 64, 73
1, 418160, Control_c, 0, 64, 99
1, 418175, Control_c, 0, 64, 127
1, 418183, Note_on_c, 0, 46, 100
1, 418186, Note_on_c, 0, 34, 86
1, 418189, Note_on_c, 0, 41, 82
1, 418192, Note_off_c, 0, 73, 60
1, 418193, Note_on_c, 0, 43, 76
1, 418204, Note_off_c, 0, 85, 63
1, 418218, Note_off_c, 0, 79, 59
1, 418236, Control_c, 0, 64, 82
1, 418251, Control_c, 0, 64, 64
1, 418252, Note_off_c, 0, 34, 62
1, 418258, Note_off_c, 0, 77, 52
1, 418265, Control_c, 0, 64, 53
1, 418267, Note_off_c, 0, 43, 61
1, 418278, Note_off_c, 0, 46, 63
1, 418280, Control_c, 0, 64, 56
1, 418283, Note_on_c, 0, 73, 107
1, 418286, Note_on_c, 0, 77, 80
1, 418287, Note_on_c, 0, 85, 102
1, 418295, Control_c, 0, 64, 62
1, 418309, Control_c, 0, 64, 70
1, 418324, Control_c, 0, 64, 108
1, 418332, Note_off_c, 0, 41, 55
1, 418339, Control_c, 0, 64, 127
1, 418372, Note_on_c, 0, 41, 70
1, 418377, Note_off_c, 0, 85, 66
1, 418377, Note_off_c, 0, 73, 61
1, 418378, Note_on_c, 0, 48, 106
1, 418381, Note_on_c, 0, 44, 86
1, 418386, Note_on_c, 0, 36, 86
1, 418421, Control_c, 0, 64, 86
1, 418436, Control_c, 0, 64, 66
1, 418440, Note_off_c, 0, 77, 56
1, 418451, Control_c, 0, 64, 58
1, 418465, Control_c, 0, 64, 60
1, 418480, Control_c, 0, 64, 65
1, 418487, Note_on_c, 0, 72, 104
1, 418487, Note_on_c, 0, 84, 108
1, 418492, Note_on_c, 0, 80, 86
1, 418494, Note_on_c, 0, 77, 83
1, 418495, Control_c, 0, 64, 77
1, 418510, Control_c, 0, 64, 127
1, 418521, Note_off_c, 0, 48, 59
1, 418535, Note_on_c, 0, 81, 46
1, 418553, Note_off_c, 0, 36, 47
1, 418566, Note_off_c, 0, 81, 62
1, 418568, Note_off_c, 0, 44, 61
1, 418572, Note_off_c, 0, 77, 62
1, 418582, Note_off_c, 0, 41, 0
1, 418584, Note_off_c, 0, 80, 64
1, 418594, Note_on_c, 0, 41, 48
1, 418597, Note_on_c, 0, 44, 81
1, 418603, Note_on_c, 0, 48, 104
1, 418603, Note_off_c, 0, 84, 63
1, 418615, Note_on_c, 0, 36, 58
1, 418624, Note_off_c, 0, 72, 58
1, 418703, Note_on_c, 0, 84, 99
1, 418704, Note_on_c, 0, 72, 106
1, 418707, Note_on_c, 0, 76, 94
1, 418711, Note_off_c, 0, 36, 58
1, 418713, Note_on_c, 0, 79, 75
1, 418721, Note_off_c, 0, 44, 63
1, 418736, Note_off_c, 0, 48, 55
1, 418740, Note_on_c, 0, 81, 46
1, 418768, Note_off_c, 0, 81, 51
1, 418797, Note_off_c, 0, 72, 55
1, 418809, Note_off_c, 0, 84, 55
1, 418812, Note_off_c, 0, 41, 57
1, 418827, Note_on_c, 0, 48, 116
1, 418832, Note_on_c, 0, 43, 83
1, 418839, Note_on_c, 0, 40, 82
1, 418840, Note_on_c, 0, 36, 73
1, 418895, Note_off_c, 0, 48, 61
1, 418895, Poly_aftertouch_c, 0, 41, 127
1, 418911, Note_off_c, 0, 76, 60
1, 418912, Note_off_c, 0, 43, 63
1, 418920, Note_off_c, 0, 79, 61
1, 418921, Poly_aftertouch_c, 0, 41, 0
1, 418928, Note_off_c, 0, 40, 64
1, 418934, Note_off_c, 0, 36, 63
1, 418937, Poly_aftertouch_c, 0, 38, 0
1, 418940, Note_on_c, 0, 84, 108
1, 418941, Note_on_c, 0, 76, 92
1, 418942, Note_on_c, 0, 72, 108
1, 418955, Note_on_c, 0, 79, 55
1, 418955, Poly_aftertouch_c, 0, 38, 0
1, 418976, Note_on_c, 0, 81, 48
1, 418985, Note_off_c, 0, 84, 68
1, 418988, Note_on_c, 0, 74, 24
1, 418989, Note_off_c, 0, 74, 127
1, 418997, Note_off_c, 0, 81, 61
1, 419005, Note_off_c, 0, 72, 64
1, 419009, Note_off_c, 0, 79, 66
1, 419018, Note_off_c, 0, 76, 65
1, 419170, Control_c, 0, 64, 86
1, 419185, Control_c, 0, 64, 58
1, 419200, Control_c, 0, 64, 0
1, 419207, Note_on_c, 0, 41, 100
1, 419212, Note_on_c, 0, 60, 104
1, 419214, Note_on_c, 0, 29, 93
1, 419244, Control_c, 0, 64, 49
1, 419259, Control_c, 0, 64, 72
1, 419274, Control_c, 0, 64, 127
1, 419292, Note_off_c, 0, 60, 63
1, 419297, Note_on_c, 0, 56, 80
1, 419303, Note_off_c, 0, 29, 63
1, 419320, Note_off_c, 0, 41, 64
1, 419343, Poly_aftertouch_c, 0, 33, 0
1, 419364, Note_off_c, 0, 56, 63
1, 419377, Note_on_c, 0, 60, 73
1, 419429, Note_on_c, 0, 56, 65
1, 419433, Note_off_c, 0, 60, 62
1, 419492, Note_off_c, 0, 56, 61
1, 419510, Note_on_c, 0, 60, 58
1, 419542, Note_on_c, 0, 68, 93
1, 419546, Note_off_c, 0, 60, 56
1, 419556, Note_on_c, 0, 56, 65
1, 419615, Note_off_c, 0, 56, 63
1, 419632, Note_on_c, 0, 60, 65
1, 419679, Note_off_c, 0, 60, 61
1, 419700, Note_on_c, 0, 56, 58
1, 419742, Note_off_c, 0, 56, 62
1, 419766, Note_on_c, 0, 72, 73
1, 419773, Note_on_c, 0, 60, 46
1, 419784, Note_off_c, 0, 68, 57
1, 419817, Note_off_c, 0, 60, 64
1, 419825, Note_on_c, 0, 77, 92
1, 419829, Note_off_c, 0, 72, 65
1, 419833, Note_on_c, 0, 56, 58
1, 419868, Note_off_c, 0, 56, 65
1, 419900, Note_on_c, 0, 60, 43
1, 419933, Note_off_c, 0, 60, 59
1, 419952, Note_on_c, 0, 56, 62
1, 419989, Note_off_c, 0, 56, 65
1, 420009, Note_on_c, 0, 60, 65
1, 420048, Note_off_c, 0, 60, 60
1, 420065, Note_on_c, 0, 56, 64
1, 420109, Note_off_c, 0, 56, 63
1, 420109, Note_off_c, 0, 77, 60
1, 420130, Note_on_c, 0, 60, 54
1, 420130, Note_on_c, 0, 80, 87
1, 420166, Note_off_c, 0, 60, 64
1, 420190, Note_on_c, 0, 56, 54
1, 420228, Note_off_c, 0, 56, 64
1, 420255, Note_on_c, 0, 60, 56
1, 420291, Note_off_c, 0, 60, 63
1, 420314, Note_on_c, 0, 56, 56
1, 420354, Note_off_c, 0, 56, 63
1, 420365, Note_on_c, 0, 84, 77
1, 420376, Note_off_c, 0, 80, 58
1, 420382, Note_on_c, 0, 60, 55
1, 420416, Note_off_c, 0, 60, 65
1, 420425, Note_on_c, 0, 89, 86
1, 420440, Note_on_c, 0, 56, 59
1, 420457, Note_off_c, 0, 84, 62
1, 420471, Note_off_c, 0, 56, 65
1, 420496, Note_on_c, 0, 60, 58
1, 420534, Note_off_c, 0, 60, 64
1, 420550, Note_on_c, 0, 56, 56
1, 420590, Note_off_c, 0, 56, 65
1, 420612, Note_on_c, 0, 60, 62
1, 420643, Note_off_c, 0, 60, 61
1, 420699, Note_on_c, 0, 56, 38
1, 420720, Note_off_c, 0, 89, 62
1, 420726, Note_off_c, 0, 56, 60
1, 420745, Note_on_c, 0, 84, 78
1, 420753, Note_on_c, 0, 60, 58
1, 420788, Note_off_c, 0, 60, 64
1, 420807, Note_on_c, 0, 56, 59
1, 420842, Note_off_c, 0, 56, 64
1, 420890, Note_on_c, 0, 60, 40
1, 420914, Note_off_c, 0, 60, 58
1, 420928, Note_on_c, 0, 56, 56
1, 420964, Note_off_c, 0, 84, 63
1, 420968, Note_off_c, 0, 56, 64
1, 420970, Note_on_c, 0, 80, 59
1, 420999, Note_off_c, 0, 80, 66
1, 421002, Note_on_c, 0, 60, 55
1, 421034, Note_off_c, 0, 60, 65
1, 421051, Note_on_c, 0, 56, 62
1, 421051, Note_on_c, 0, 77, 63
1, 421084, Note_off_c, 0, 56, 66
1, 421108, Note_on_c, 0, 60, 62
1, 421142, Note_off_c, 0, 60, 64
1, 421159, Note_on_c, 0, 56, 67
1, 421200, Note_off_c, 0, 56, 63
1, 421231, Note_on_c, 0, 60, 53
1, 421262, Note_off_c, 0, 60, 65
1, 421286, Note_on_c, 0, 56, 58
1, 421313, Note_off_c, 0, 77, 56
1, 421323, Note_off_c, 0, 56, 64
1, 421341, Note_on_c, 0, 72, 69
1, 421344, Note_on_c, 0, 60, 55
1, 421388, Note_off_c, 0, 60, 63
1, 421412, Note_on_c, 0, 56, 60
1, 421453, Note_off_c, 0, 56, 61
1, 421489, Note_on_c, 0, 60, 54
1, 421522, Note_off_c, 0, 60, 66
1, 421539, Note_on_c, 0, 56, 59
1, 421549, Note_on_c, 0, 68, 66
1, 421549, Note_off_c, 0, 72, 65
1, 421578, Note_off_c, 0, 56, 65
1, 421579, Note_off_c, 0, 68, 66
1, 421594, Note_on_c, 0, 60, 59
1, 421642, Note_off_c, 0, 60, 60
1, 421647, Note_on_c, 0, 65, 64
1, 421659, Note_on_c, 0, 56, 69
1, 421689, Note_off_c, 0, 56, 67
1, 421697, Note_on_c, 0, 60, 45
1, 421748, Note_off_c, 0, 60, 64
1, 421759, Note_on_c, 0, 56, 71
1, 421822, Note_on_c, 0, 60, 66
1, 421823, Note_off_c, 0, 65, 60
1, 421875, Note_off_c, 0, 60, 64
1, 421930, Note_off_c, 0, 56, 62
1, 421955, Note_on_c, 0, 60, 67
1, 422047, Note_on_c, 0, 65, 62
1, 422079, Note_off_c, 0, 65, 64
1, 422117, Note_on_c, 0, 68, 55
1, 422145, Note_off_c, 0, 68, 63
1, 422164, Note_on_c, 0, 65, 65
1, 422180, Note_off_c, 0, 60, 61
1, 422192, Note_on_c, 0, 56, 66
1, 422204, Note_off_c, 0, 65, 63
1, 422220, Note_on_c, 0, 68, 71
1, 422228, Note_off_c, 0, 56, 65
1, 422251, Note_off_c, 0, 68, 65
1, 422260, Note_on_c, 0, 72, 60
1, 422282, Note_on_c, 0, 53, 65
1, 422324, Note_off_c, 0, 72, 64
1, 422332, Note_on_c, 0, 68, 69
1, 422371, Note_off_c, 0, 68, 63
1, 422395, Note_on_c, 0, 72, 52
1, 422443, Note_off_c, 0, 72, 65
1, 422449, Note_on_c, 0, 68, 68
1, 422461, Control_c, 0, 64, 111
1, 422476, Control_c, 0, 64, 101
1, 422485, Note_off_c, 0, 68, 61
1, 422491, Control_c, 0, 64, 97
1, 422506, Control_c, 0, 64, 96
1, 422510, Note_on_c, 0, 72, 65
1, 422520, Control_c, 0, 64, 95
1, 422535, Control_c, 0, 64, 92
1, 422550, Control_c, 0, 64, 88
1, 422552, Note_off_c, 0, 53, 58
1, 422555, Note_off_c, 0, 72, 61
1, 422557, Note_on_c, 0, 48, 59
1, 422565, Control_c, 0, 64, 83
1, 422568, Note_on_c, 0, 68, 68
1, 422580, Control_c, 0, 64, 78
1, 422595, Control_c, 0, 64, 75
1, 422606, Note_off_c, 0, 68, 60
1, 422610, Control_c, 0, 64, 74
1, 422622, Note_on_c, 0, 72, 57
1, 422639, Control_c, 0, 64, 74
1, 422654, Control_c, 0, 64, 73
1, 422669, Control_c, 0, 64, 72
1, 422678, Note_off_c, 0, 72, 60
1, 422684, Control_c, 0, 64, 71
1, 422689, Note_on_c, 0, 68, 58
1, 422698, Control_c, 0, 64, 70
1, 422728, Control_c, 0, 64, 70
1, 422729, Note_off_c, 0, 68, 63
1, 422744, Note_on_c, 0, 72, 53
1, 422750, Note_off_c, 0, 48, 62
1, 422753, Note_on_c, 0, 44, 56
1, 422757, Control_c, 0, 64, 70
1, 422772, Control_c, 0, 64, 69
1, 422787, Control_c, 0, 64, 68
1, 422788, Note_off_c, 0, 44, 65
1, 422792, Note_off_c, 0, 72, 64
1, 422802, Control_c, 0, 64, 67
1, 422804, Note_on_c, 0, 68, 58
1, 422845, Note_off_c, 0, 68, 64
1, 422846, Control_c, 0, 64, 67
1, 422847, Note_on_c, 0, 72, 57
1, 422861, Control_c, 0, 64, 66
1, 422866, Note_on_c, 0, 43, 22
1, 422867, Note_on_c, 0, 41, 38
1, 422876, Control_c, 0, 64, 65
1, 422891, Control_c, 0, 64, 65
1, 422908, Note_off_c, 0, 43, 52
1, 422912, Note_off_c, 0, 72, 59
1, 422928, Note_on_c, 0, 68, 60
1, 422928, Control_c, 0, 64, 64
1, 422943, Control_c, 0, 64, 63
1, 422966, Note_off_c, 0, 68, 63
1, 422968, Note_on_c, 0, 72, 46
1, 422972, Control_c, 0, 64, 63
1, 423024, Note_off_c, 0, 72, 63
1, 423044, Note_on_c, 0, 68, 66
1, 423078, Note_off_c, 0, 68, 63
1, 423092, Control_c, 0, 64, 62
1, 423098, Note_on_c, 0, 72, 53
1, 423122, Control_c, 0, 64, 62
1, 423139, Note_off_c, 0, 72, 67
1, 423153, Note_on_c, 0, 36, 52
1, 423161, Note_on_c, 0, 68, 63
1, 423167, Note_off_c, 0, 41, 42
1, 423180, Control_c, 0, 64, 61
1, 423194, Note_off_c, 0, 68, 63
1, 423195, Control_c, 0, 64, 61
1, 423206, Note_on_c, 0, 72, 55
1, 423261, Note_off_c, 0, 72, 60
1, 423283, Note_on_c, 0, 68, 51
1, 423321, Note_off_c, 0, 68, 64
1, 423332, Note_on_c, 0, 72, 50
1, 423359, Note_on_c, 0, 32, 44
1, 423373, Note_off_c, 0, 36, 51
1, 423379, Note_off_c, 0, 72, 65
1, 423398, Note_on_c, 0, 68, 62
1, 423435, Note_off_c, 0, 68, 63
1, 423444, Note_on_c, 0, 72, 59
1, 423455, Note_on_c, 0, 29, 55
1, 423495, Note_off_c, 0, 32, 35
1, 423498, Note_off_c, 0, 72, 63
1, 423516, Note_on_c, 0, 68, 62
1, 423552, Note_off_c, 0, 68, 64
1, 423559, Note_on_c, 0, 72, 49
1, 423610, Control_c, 0, 67, 8
1, 423612, Note_off_c, 0, 72, 62
1, 423625, Control_c, 0, 67, 10
1, 423632, Note_on_c, 0, 68, 57
1, 423640, Control_c, 0, 67, 13
1, 423662, Control_c, 0, 67, 17
1, 423674, Note_off_c, 0, 68, 64
1, 423677, Control_c, 0, 67, 21
1, 423685, Note_on_c, 0, 72, 52
1, 423689, Note_off_c, 0, 29, 36
1, 423692, Control_c, 0, 67, 21
1, 423706, Control_c, 0, 67, 22
1, 423731, Note_off_c, 0, 72, 64
1, 423736, Control_c, 0, 67, 23
1, 423751, Control_c, 0, 67, 24
1, 423752, Note_on_c, 0, 68, 66
1, 423766, Control_c, 0, 67, 25
1, 423780, Control_c, 0, 67, 27
1, 423786, Note_on_c, 0, 29, 56
1, 423788, Note_off_c, 0, 68, 64
1, 423795, Control_c, 0, 67, 29
1, 423797, Note_on_c, 0, 72, 60
1, 423811, Control_c, 0, 67, 30
1, 423826, Control_c, 0, 67, 31
1, 423841, Control_c, 0, 64, 60
1, 423841, Control_c, 0, 67, 33
1, 423854, Note_off_c, 0, 72, 60
1, 423856, Control_c, 0, 64, 60
1, 423856, Control_c, 0, 67, 36
1, 423865, Note_on_c, 0, 68, 63
1, 423871, Control_c, 0, 67, 39
1, 423885, Control_c, 0, 67, 40
1, 423900, Control_c, 0, 67, 41
1, 423905, Note_off_c, 0, 68, 64
1, 423918, Note_on_c, 0, 72, 51
1, 423930, Control_c, 0, 67, 41
1, 423945, Control_c, 0, 67, 42
1, 423964, Note_off_c, 0, 72, 62
1, 423974, Control_c, 0, 67, 43
1, 423975, Note_on_c, 0, 68, 56
1, 424018, Control_c, 0, 64, 59
1, 424020, Note_off_c, 0, 68, 61
1, 424029, Note_on_c, 0, 72, 54
1, 424032, Note_off_c, 0, 29, 54
1, 424033, Control_c, 0, 64, 59
1, 424048, Control_c, 0, 64, 58
1, 424048, Control_c, 0, 67, 43
1, 424079, Note_off_c, 0, 72, 61
1, 424090, Note_on_c, 0, 68, 63
1, 424092, Control_c, 0, 64, 58
1, 424107, Control_c, 0, 64, 57
1, 424109, Note_on_c, 0, 29, 58
1, 424122, Control_c, 0, 64, 56
1, 424129, Note_off_c, 0, 68, 63
1, 424136, Note_on_c, 0, 72, 54
1, 424136, Control_c, 0, 67, 44
1, 424151, Control_c, 0, 67, 45
1, 424201, Note_off_c, 0, 72, 64
1, 424209, Note_on_c, 0, 68, 59
1, 424248, Note_off_c, 0, 68, 62
1, 424260, Note_on_c, 0, 72, 47
1, 424264, Poly_aftertouch_c, 0, 62, 0
1, 424310, Note_off_c, 0, 72, 64
1, 424330, Note_on_c, 0, 68, 55
1, 424344, Control_c, 0, 67, 45
1, 424371, Note_off_c, 0, 68, 64
1, 424377, Note_on_c, 0, 72, 54
1, 424428, Note_off_c, 0, 72, 63
1, 424453, Note_on_c, 0, 68, 62
1, 424470, Control_c, 0, 67, 46
1, 424486, Note_off_c, 0, 68, 64
1, 424494, Note_on_c, 0, 72, 56
1, 424545, Note_off_c, 0, 72, 62
1, 424559, Control_c, 0, 67, 46
1, 424561, Note_on_c, 0, 68, 62
1, 424574, Control_c, 0, 67, 47
1, 424604, Note_off_c, 0, 68, 63
1, 424616, Note_on_c, 0, 72, 46
1, 424655, Note_off_c, 0, 29, 44
1, 424660, Note_off_c, 0, 72, 64
1, 424678, Note_on_c, 0, 68, 50
1, 424718, Note_off_c, 0, 68, 64
1, 424732, Note_on_c, 0, 72, 65
1, 424753, Control_c, 0, 67, 48
1, 424756, Note_on_c, 0, 29, 61
1, 424767, Control_c, 0, 64, 56
1, 424767, Control_c, 0, 67, 48
1, 424780, Note_off_c, 0, 72, 61
1, 424782, Control_c, 0, 67, 49
1, 424803, Note_on_c, 0, 68, 63
1, 424826, Control_c, 0, 67, 55
1, 424837, Note_off_c, 0, 68, 64
1, 424841, Control_c, 0, 67, 59
1, 424849, Note_on_c, 0, 72, 50
1, 424856, Control_c, 0, 64, 55
1, 424856, Control_c, 0, 67, 60
1, 424871, Control_c, 0, 67, 61
1, 424886, Control_c, 0, 67, 61
1, 424895, Note_off_c, 0, 72, 63
1, 424929, Note_on_c, 0, 68, 54
1, 424930, Control_c, 0, 67, 62
1, 424945, Control_c, 0, 64, 55
1, 424965, Note_off_c, 0, 68, 65
1, 424977, Note_on_c, 0, 72, 54
1, 424989, Control_c, 0, 64, 54
1, 425020, Note_off_c, 0, 72, 64
1, 425033, Control_c, 0, 67, 63
1, 425054, Note_on_c, 0, 68, 52
1, 425091, Note_off_c, 0, 68, 64
1, 425101, Note_on_c, 0, 72, 55
1, 425123, Control_c, 0, 64, 54
1, 425155, Note_off_c, 0, 72, 61
1, 425189, Control_c, 0, 67, 63
1, 425190, Note_on_c, 0, 68, 55
1, 425228, Note_off_c, 0, 68, 63
1, 425243, Note_on_c, 0, 72, 52
1, 425293, Control_c, 0, 67, 64
1, 425295, Note_off_c, 0, 72, 56
1, 425307, Control_c, 0, 64, 53
1, 425307, Control_c, 0, 67, 65
1, 425323, Note_on_c, 0, 68, 47
1, 425354, Note_off_c, 0, 68, 62
1, 425358, Note_on_c, 0, 72, 44
1, 425447, Note_off_c, 0, 72, 56
1, 425450, Note_on_c, 0, 68, 50
1, 425505, Note_off_c, 0, 68, 58
1, 425537, Note_off_c, 0, 29, 41
1, 425546, Control_c, 0, 64, 54
1, 425764, Note_on_c, 0, 29, 38
1, 425764, Note_on_c, 0, 72, 45
1, 425772, Note_on_c, 0, 68, 42
1, 426575, Control_c, 0, 64, 54
1, 426893, Control_c, 0, 67, 64
1, 427249, Control_c, 0, 64, 55
1, 427449, Control_c, 0, 67, 63
1, 427641, Control_c, 0, 64, 55
1, 427865, Control_c, 0, 64, 56
1, 428221, Note_off_c, 0, 29, 34
1, 428270, Note_off_c, 0, 72, 44
1, 428272, Note_off_c, 0, 68, 41
1, 428287, Control_c, 0, 67, 63
1, 428643, Control_c, 0, 67, 62
1, 428866, Control_c, 0, 67, 61
1, 428962, Control_c, 0, 67, 61
1, 429037, Control_c, 0, 67, 60
1, 429126, Control_c, 0, 67, 60
1, 429155, Control_c, 0, 67, 59
1, 429244, Control_c, 0, 67, 58
1, 429288, Control_c, 0, 67, 58
1, 429317, Control_c, 0, 67, 57
1, 429332, Control_c, 0, 67, 56
1, 429362, Control_c, 0, 67, 56
1, 429393, Control_c, 0, 67, 55
1, 429408, Control_c, 0, 67, 54
1, 429422, Control_c, 0, 67, 53
1, 429437, Control_c, 0, 67, 51
1, 429452, Control_c, 0, 67, 50
1, 429467, Control_c, 0, 67, 50
1, 429482, Control_c, 0, 67, 48
1, 429496, Control_c, 0, 67, 47
1, 429511, Control_c, 0, 67, 46
1, 429526, Control_c, 0, 67, 45
1, 429541, Control_c, 0, 67, 44
1, 429556, Control_c, 0, 67, 42
1, 429570, Control_c, 0, 67, 40
1, 429585, Control_c, 0, 67, 38
1, 429600, Control_c, 0, 67, 37
1, 429615, Control_c, 0, 67, 36
1, 429630, Control_c, 0, 67, 35
1, 429652, Control_c, 0, 67, 34
1, 429667, Control_c, 0, 67, 33
1, 429682, Control_c, 0, 67, 31
1, 429696, Control_c, 0, 67, 29
1, 429711, Control_c, 0, 67, 25
1, 429726, Control_c, 0, 67, 18
1, 429741, Control_c, 0, 64, 55
1, 429741, Control_c, 0, 67, 14
1, 429756, Control_c, 0, 67, 13
1, 429770, Control_c, 0, 67, 11
1, 429785, Control_c, 0, 67, 8
1, 429800, Control_c, 0, 67, 0
1, 429875, End_track
0, 0, End_of_file
