0, 0, Header, 0, 1, 384
1, 0, Start_track
1, 0, Title_t, "Sonata Hob. XVI/49--Miao Hou    "
1, 0, Text_t, "2009 Piano-e-Competition audition round"
1, 0, Text_t, "captured January 2009"
1, 0, Text_t, "http://www.piano-e-competition.com/"
1, 0, Text_t, "File processed for distribution by software from Zenph Studios, Inc., http://www.zenph.com"
1, 0, Instrument_name_t, "Yamaha Disklavier Pro Mark IV concert grand piano, model DCFIIISM4PRO"
1, 0, Sequencer_specific, 39, 67, 113, 0, 1, 0, 1, 0, 83, 111, 110, 97, 116, 97, 72, 111, 98, 46, 88, 86, 73, 47, 52, 57, 77, 105, 97, 111, 32, 72, 111, 117, 32, 32, 32, 32, 32, 32, 32, 32
1, 0, Sequencer_specific, 6, 67, 113, 0, 0, 0, 69
1, 0, System_exclusive, 21, 67, 113, 126, 21, 0, 2, 2, 0, 3, 14, 1, 4, 1, 13, 13, 10, 11, 9, 2, 7, 247
1, 0, Sequencer_specific, 5, 67, 123, 12, 2, 1
1, 0, Tempo, 512820
1, 0, Time_signature, 4, 2, 24, 8
1, 0, System_exclusive, 5, 126, 127, 9, 1, 247
1, 1, System_exclusive, 8, 67, 16, 76, 0, 0, 126, 0, 247
1, 2, System_exclusive, 8, 67, 16, 76, 8, 9, 7, 1, 247
1, 3, Control_c, 0, 0, 0
1, 3, Control_c, 1, 0, 0
1, 3, Control_c, 2, 0, 0
1, 3, Control_c, 3, 0, 0
1, 3, Control_c, 4, 0, 0
1, 3, Control_c, 5, 0, 0
1, 3, Control_c, 6, 0, 0
1, 3, Control_c, 7, 0, 0
1, 3, Control_c, 8, 0, 0
1, 3, Control_c, 9, 0, 127
1, 3, Control_c, 10, 0, 0
1, 3, Control_c, 11, 0, 0
1, 3, Control_c, 12, 0, 0
1, 3, Control_c, 13, 0, 0
1, 3, Control_c, 14, 0, 0
1, 3, Control_c, 15, 0, 0
1, 4, Control_c, 0, 32, 0
1, 4, Control_c, 1, 32, 0
1, 4, Control_c, 2, 32, 0
1, 4, Control_c, 3, 32, 0
1, 4, Control_c, 4, 32, 0
1, 4, Control_c, 5, 32, 0
1, 4, Control_c, 6, 32, 0
1, 4, Control_c, 7, 32, 0
1, 4, Control_c, 8, 32, 0
1, 4, Control_c, 9, 32, 0
1, 4, Control_c, 10, 32, 0
1, 4, Control_c, 11, 32, 0
1, 4, Control_c, 12, 32, 0
1, 4, Control_c, 13, 32, 0
1, 4, Control_c, 14, 32, 0
1, 4, Control_c, 15, 32, 0
1, 5, Program_c, 0, 0
1, 5, Program_c, 1, 0
1, 5, Program_c, 2, 0
1, 5, Program_c, 3, 0
1, 5, Program_c, 4, 0
1, 5, Program_c, 5, 0
1, 5, Program_c, 6, 0
1, 5, Program_c, 7, 0
1, 5, Program_c, 8, 0
1, 5, Program_c, 9, 0
1, 5, Program_c, 10, 0
1, 5, Program_c, 11, 0
1, 5, Program_c, 12, 0
1, 5, Program_c, 13, 0
1, 5, Program_c, 14, 0
1, 5, Program_c, 15, 0
1, 6, Control_c, 0, 7, 100
1, 6, Control_c, 1, 7, 100
1, 6, Control_c, 2, 7, 100
1, 6, Control_c, 3, 7, 100
1, 6, Control_c, 4, 7, 100
1, 6, Control_c, 5, 7, 100
1, 6, Control_c, 6, 7, 100
1, 6, Control_c, 7, 7, 100
1, 6, Control_c, 8, 7, 100
1, 6, Control_c, 9, 7, 100
1, 6, Control_c, 10, 7, 100
1, 6, Control_c, 11, 7, 100
1, 6, Control_c, 12, 7, 100
1, 6, Control_c, 13, 7, 100
1, 6, Control_c, 14, 7, 100
1, 6, Control_c, 15, 7, 100
1, 1132, Note_on_c, 0, 55, 54
1, 1199, Note_on_c, 0, 58, 58
1, 1206, Note_off_c, 0, 55, 58
1, 1260, Note_off_c, 0, 58, 62
1, 1272, Note_on_c, 0, 56, 63
1, 1321, Note_off_c, 0, 56, 67
1, 1331, Note_on_c, 0, 60, 66
1, 1405, Note_on_c, 0, 58, 67
1, 1407, Note_on_c, 0, 43, 59
1, 1408, Note_off_c, 0, 60, 64
1, 1411, Note_on_c, 0, 39, 57
1, 1438, Note_off_c, 0, 58, 65
1, 1449, Note_off_c, 0, 43, 64
1, 1459, Note_off_c, 0, 39, 65
1, 1771, Note_on_c, 0, 51, 50
1, 1772, Note_on_c, 0, 55, 45
1, 1796, Note_off_c, 0, 51, 60
1, 1799, Note_off_c, 0, 55, 58
1, 2109, Note_on_c, 0, 67, 68
1, 2181, Note_on_c, 0, 63, 76
1, 2207, Note_off_c, 0, 67, 61
1, 2251, Note_on_c, 0, 62, 74
1, 2258, Note_off_c, 0, 63, 66
1, 2318, Note_on_c, 0, 65, 79
1, 2327, Note_off_c, 0, 62, 64
1, 2386, Note_on_c, 0, 63, 80
1, 2397, Note_on_c, 0, 39, 68
1, 2398, Note_on_c, 0, 43, 67
1, 2412, Note_off_c, 0, 65, 66
1, 2430, Note_off_c, 0, 43, 63
1, 2434, Note_off_c, 0, 39, 64
1, 2446, Note_off_c, 0, 63, 66
1, 2762, Note_on_c, 0, 51, 54
1, 2765, Note_on_c, 0, 55, 42
1, 2786, Note_off_c, 0, 51, 61
1, 2793, Note_off_c, 0, 55, 58
1, 2935, Note_on_c, 0, 63, 60
1, 3089, Control_c, 0, 64, 13
1, 3098, Note_on_c, 0, 67, 73
1, 3103, Control_c, 0, 64, 24
1, 3113, Note_off_c, 0, 63, 64
1, 3118, Control_c, 0, 64, 35
1, 3133, Control_c, 0, 64, 45
1, 3148, Control_c, 0, 64, 54
1, 3163, Control_c, 0, 64, 62
1, 3170, Poly_aftertouch_c, 0, 64, 127
1, 3177, Control_c, 0, 64, 67
1, 3192, Control_c, 0, 64, 73
1, 3207, Control_c, 0, 64, 78
1, 3211, Poly_aftertouch_c, 0, 64, 0
1, 3221, Control_c, 0, 64, 84
1, 3236, Control_c, 0, 64, 91
1, 3259, Control_c, 0, 64, 104
1, 3271, Note_on_c, 0, 70, 85
1, 3274, Control_c, 0, 64, 127
1, 3329, Note_off_c, 0, 67, 62
1, 3393, Control_c, 0, 64, 114
1, 3398, Note_off_c, 0, 70, 60
1, 3408, Control_c, 0, 64, 93
1, 3422, Control_c, 0, 64, 84
1, 3437, Control_c, 0, 64, 80
1, 3452, Control_c, 0, 64, 77
1, 3467, Control_c, 0, 64, 69
1, 3483, Control_c, 0, 64, 60
1, 3486, Note_on_c, 0, 70, 87
1, 3498, Control_c, 0, 64, 46
1, 3499, Note_on_c, 0, 63, 54
1, 3501, Note_on_c, 0, 60, 52
1, 3513, Control_c, 0, 64, 31
1, 3527, Control_c, 0, 64, 28
1, 3542, Control_c, 0, 64, 29
1, 3557, Control_c, 0, 64, 32
1, 3572, Control_c, 0, 64, 38
1, 3587, Control_c, 0, 64, 44
1, 3601, Control_c, 0, 64, 53
1, 3616, Control_c, 0, 64, 61
1, 3631, Control_c, 0, 64, 67
1, 3645, Control_c, 0, 64, 86
1, 3660, Control_c, 0, 64, 122
1, 3675, Control_c, 0, 64, 127
1, 3749, Control_c, 0, 64, 115
1, 3754, Note_off_c, 0, 60, 48
1, 3764, Control_c, 0, 64, 103
1, 3779, Control_c, 0, 64, 95
1, 3793, Note_off_c, 0, 63, 52
1, 3793, Control_c, 0, 64, 88
1, 3808, Control_c, 0, 64, 83
1, 3823, Control_c, 0, 64, 78
1, 3838, Control_c, 0, 64, 74
1, 3848, Note_on_c, 0, 68, 69
1, 3853, Control_c, 0, 64, 70
1, 3864, Note_off_c, 0, 70, 57
1, 3868, Control_c, 0, 64, 67
1, 3883, Control_c, 0, 64, 64
1, 3898, Control_c, 0, 64, 62
1, 3912, Control_c, 0, 64, 59
1, 3927, Control_c, 0, 64, 54
1, 3942, Control_c, 0, 64, 48
1, 3957, Control_c, 0, 64, 40
1, 3972, Control_c, 0, 64, 31
1, 3987, Control_c, 0, 64, 19
1, 4008, Control_c, 0, 64, 0
1, 4017, Note_on_c, 0, 62, 52
1, 4017, Note_off_c, 0, 68, 61
1, 4020, Note_on_c, 0, 67, 68
1, 4025, Note_on_c, 0, 58, 51
1, 4042, Note_off_c, 0, 62, 60
1, 4047, Note_off_c, 0, 67, 66
1, 4053, Note_off_c, 0, 58, 57
1, 4174, Note_on_c, 0, 65, 68
1, 4178, Note_on_c, 0, 56, 51
1, 4190, Note_on_c, 0, 60, 45
1, 4200, Note_off_c, 0, 65, 69
1, 4223, Note_off_c, 0, 56, 61
1, 4228, Note_off_c, 0, 60, 49
1, 4341, Note_on_c, 0, 58, 52
1, 4346, Note_on_c, 0, 63, 58
1, 4348, Note_on_c, 0, 55, 44
1, 4363, Note_off_c, 0, 58, 60
1, 4375, Note_off_c, 0, 55, 55
1, 4387, Note_off_c, 0, 63, 53
1, 4548, Note_on_c, 0, 62, 48
1, 4575, Note_on_c, 0, 53, 38
1, 4577, Note_on_c, 0, 56, 29
1, 4894, Note_off_c, 0, 62, 56
1, 4915, Note_on_c, 0, 65, 44
1, 4975, Note_off_c, 0, 65, 63
1, 4978, Note_on_c, 0, 68, 56
1, 4986, Note_off_c, 0, 56, 45
1, 5003, Note_off_c, 0, 53, 41
1, 5006, Note_off_c, 0, 68, 62
1, 5326, Note_on_c, 0, 58, 62
1, 5391, Note_on_c, 0, 62, 69
1, 5404, Note_off_c, 0, 58, 62
1, 5454, Note_on_c, 0, 60, 75
1, 5458, Note_off_c, 0, 62, 64
1, 5537, Note_on_c, 0, 63, 81
1, 5552, Note_off_c, 0, 60, 64
1, 5607, Note_on_c, 0, 34, 83
1, 5610, Note_on_c, 0, 38, 77
1, 5619, Note_on_c, 0, 62, 80
1, 5629, Note_off_c, 0, 63, 66
1, 5637, Note_off_c, 0, 38, 65
1, 5641, Note_off_c, 0, 34, 70
1, 5651, Note_off_c, 0, 62, 68
1, 5978, Note_on_c, 0, 46, 62
1, 5978, Note_on_c, 0, 50, 57
1, 6005, Note_off_c, 0, 50, 65
1, 6008, Note_off_c, 0, 46, 67
1, 6319, Note_on_c, 0, 62, 71
1, 6390, Note_on_c, 0, 65, 74
1, 6415, Note_off_c, 0, 62, 61
1, 6452, Note_on_c, 0, 63, 84
1, 6464, Note_off_c, 0, 65, 66
1, 6529, Note_on_c, 0, 67, 79
1, 6545, Note_off_c, 0, 63, 66
1, 6593, Note_on_c, 0, 34, 85
1, 6596, Note_on_c, 0, 38, 83
1, 6604, Note_on_c, 0, 65, 88
1, 6638, Note_off_c, 0, 67, 65
1, 6640, Note_off_c, 0, 38, 67
1, 6649, Note_off_c, 0, 34, 64
1, 6656, Note_off_c, 0, 65, 68
1, 6977, Note_on_c, 0, 46, 68
1, 6979, Note_on_c, 0, 50, 58
1, 7010, Note_off_c, 0, 50, 63
1, 7013, Note_off_c, 0, 46, 67
1, 7164, Note_on_c, 0, 65, 69
1, 7337, Note_on_c, 0, 68, 85
1, 7344, Control_c, 0, 64, 11
1, 7359, Control_c, 0, 64, 24
1, 7374, Control_c, 0, 64, 32
1, 7388, Control_c, 0, 64, 41
1, 7394, Note_off_c, 0, 65, 63
1, 7403, Control_c, 0, 64, 50
1, 7418, Control_c, 0, 64, 58
1, 7433, Control_c, 0, 64, 63
1, 7448, Control_c, 0, 64, 68
1, 7464, Control_c, 0, 64, 72
1, 7479, Control_c, 0, 64, 75
1, 7493, Control_c, 0, 64, 79
1, 7508, Control_c, 0, 64, 85
1, 7509, Note_on_c, 0, 72, 90
1, 7523, Control_c, 0, 64, 93
1, 7538, Control_c, 0, 64, 99
1, 7553, Control_c, 0, 64, 99
1, 7567, Note_off_c, 0, 68, 59
1, 7582, Control_c, 0, 64, 98
1, 7597, Control_c, 0, 64, 96
1, 7612, Control_c, 0, 64, 92
1, 7627, Control_c, 0, 64, 88
1, 7638, Note_off_c, 0, 72, 60
1, 7642, Control_c, 0, 64, 83
1, 7657, Control_c, 0, 64, 79
1, 7672, Control_c, 0, 64, 75
1, 7686, Control_c, 0, 64, 72
1, 7701, Control_c, 0, 64, 68
1, 7716, Control_c, 0, 64, 64
1, 7729, Note_on_c, 0, 72, 78
1, 7731, Control_c, 0, 64, 57
1, 7753, Control_c, 0, 64, 45
1, 7761, Note_on_c, 0, 65, 49
1, 7767, Control_c, 0, 64, 28
1, 7772, Note_on_c, 0, 62, 40
1, 7782, Control_c, 0, 64, 15
1, 7797, Control_c, 0, 64, 14
1, 7812, Control_c, 0, 64, 16
1, 7827, Control_c, 0, 64, 22
1, 7842, Control_c, 0, 64, 28
1, 7856, Control_c, 0, 64, 34
1, 7871, Control_c, 0, 64, 41
1, 7886, Control_c, 0, 64, 49
1, 7901, Control_c, 0, 64, 58
1, 7916, Control_c, 0, 64, 63
1, 7931, Control_c, 0, 64, 69
1, 7946, Control_c, 0, 64, 75
1, 7961, Control_c, 0, 64, 79
1, 7975, Control_c, 0, 64, 79
1, 7990, Control_c, 0, 64, 79
1, 8005, Control_c, 0, 64, 76
1, 8009, Note_off_c, 0, 62, 42
1, 8019, Control_c, 0, 64, 74
1, 8034, Control_c, 0, 64, 71
1, 8049, Control_c, 0, 64, 69
1, 8064, Control_c, 0, 64, 66
1, 8079, Control_c, 0, 64, 64
1, 8093, Control_c, 0, 64, 62
1, 8094, Note_on_c, 0, 70, 67
1, 8108, Control_c, 0, 64, 60
1, 8123, Control_c, 0, 64, 57
1, 8129, Note_off_c, 0, 72, 56
1, 8138, Control_c, 0, 64, 53
1, 8153, Control_c, 0, 64, 48
1, 8167, Control_c, 0, 64, 42
1, 8182, Control_c, 0, 64, 36
1, 8194, Note_off_c, 0, 65, 43
1, 8197, Control_c, 0, 64, 27
1, 8211, Control_c, 0, 64, 17
1, 8226, Control_c, 0, 64, 0
1, 8262, Note_on_c, 0, 63, 47
1, 8265, Note_on_c, 0, 60, 50
1, 8265, Note_off_c, 0, 70, 61
1, 8268, Note_on_c, 0, 68, 73
1, 8289, Note_off_c, 0, 60, 59
1, 8289, Note_off_c, 0, 63, 58
1, 8298, Note_off_c, 0, 68, 62
1, 8428, Note_on_c, 0, 67, 68
1, 8432, Note_on_c, 0, 62, 50
1, 8441, Note_on_c, 0, 58, 41
1, 8450, Note_off_c, 0, 67, 66
1, 8461, Note_off_c, 0, 62, 58
1, 8468, Note_off_c, 0, 58, 57
1, 8591, Note_on_c, 0, 65, 69
1, 8602, Note_on_c, 0, 60, 46
1, 8606, Note_on_c, 0, 56, 45
1, 8619, Note_off_c, 0, 65, 69
1, 8629, Note_off_c, 0, 60, 57
1, 8640, Note_off_c, 0, 56, 56
1, 8783, Note_on_c, 0, 63, 42
1, 8792, Note_on_c, 0, 58, 31
1, 8798, Note_on_c, 0, 55, 36
1, 8811, Note_off_c, 0, 63, 59
1, 8834, Note_on_c, 0, 65, 53
1, 8875, Note_off_c, 0, 65, 66
1, 8892, Note_on_c, 0, 63, 57
1, 8921, Note_off_c, 0, 63, 65
1, 8952, Note_on_c, 0, 62, 49
1, 8988, Note_off_c, 0, 62, 53
1, 9013, Note_on_c, 0, 63, 44
1, 9044, Note_off_c, 0, 63, 59
1, 9086, Note_on_c, 0, 67, 39
1, 9100, Note_off_c, 0, 55, 44
1, 9102, Note_off_c, 0, 58, 39
1, 9147, Note_off_c, 0, 67, 48
1, 9167, Note_on_c, 0, 70, 55
1, 9236, Control_c, 0, 64, 10
1, 9251, Control_c, 0, 64, 24
1, 9265, Control_c, 0, 64, 32
1, 9280, Control_c, 0, 64, 40
1, 9294, Control_c, 0, 64, 48
1, 9309, Control_c, 0, 64, 55
1, 9324, Control_c, 0, 64, 60
1, 9338, Control_c, 0, 64, 63
1, 9353, Control_c, 0, 64, 64
1, 9363, Note_off_c, 0, 70, 61
1, 9383, Control_c, 0, 64, 65
1, 9457, Control_c, 0, 64, 64
1, 9502, Control_c, 0, 64, 64
1, 9532, Control_c, 0, 64, 61
1, 9546, Control_c, 0, 64, 56
1, 9561, Control_c, 0, 64, 44
1, 9564, Note_on_c, 0, 75, 73
1, 9576, Control_c, 0, 64, 21
1, 9590, Control_c, 0, 64, 0
1, 9630, Note_on_c, 0, 74, 78
1, 9640, Note_off_c, 0, 75, 62
1, 9703, Note_on_c, 0, 77, 86
1, 9728, Note_off_c, 0, 74, 63
1, 9767, Note_on_c, 0, 43, 69
1, 9778, Note_on_c, 0, 75, 86
1, 9791, Note_off_c, 0, 77, 63
1, 9800, Note_on_c, 0, 46, 67
1, 9847, Note_on_c, 0, 51, 82
1, 9852, Note_on_c, 0, 79, 83
1, 9871, Note_off_c, 0, 75, 63
1, 9927, Note_off_c, 0, 79, 56
1, 9929, Note_on_c, 0, 77, 84
1, 10010, Note_on_c, 0, 80, 88
1, 10032, Note_off_c, 0, 77, 61
1, 10086, Note_on_c, 0, 79, 86
1, 10092, Note_off_c, 0, 80, 66
1, 10158, Note_on_c, 0, 82, 92
1, 10173, Note_off_c, 0, 79, 64
1, 10230, Note_on_c, 0, 80, 83
1, 10281, Note_off_c, 0, 82, 63
1, 10300, Note_on_c, 0, 79, 79
1, 10313, Note_off_c, 0, 80, 65
1, 10354, Note_off_c, 0, 79, 64
1, 10374, Note_on_c, 0, 77, 78
1, 10415, Note_off_c, 0, 43, 60
1, 10432, Note_off_c, 0, 77, 61
1, 10449, Note_on_c, 0, 75, 74
1, 10459, Control_c, 0, 64, 19
1, 10474, Control_c, 0, 64, 28
1, 10474, Note_off_c, 0, 51, 61
1, 10488, Control_c, 0, 64, 36
1, 10503, Control_c, 0, 64, 43
1, 10518, Control_c, 0, 64, 50
1, 10532, Note_on_c, 0, 74, 67
1, 10532, Control_c, 0, 64, 55
1, 10536, Note_off_c, 0, 75, 59
1, 10547, Control_c, 0, 64, 58
1, 10562, Control_c, 0, 64, 60
1, 10577, Control_c, 0, 64, 60
1, 10590, Note_off_c, 0, 74, 65
1, 10600, Note_on_c, 0, 72, 65
1, 10606, Control_c, 0, 64, 60
1, 10621, Control_c, 0, 64, 59
1, 10636, Control_c, 0, 64, 58
1, 10639, Note_off_c, 0, 72, 49
1, 10651, Control_c, 0, 64, 56
1, 10667, Control_c, 0, 64, 54
1, 10682, Control_c, 0, 64, 52
1, 10685, Note_on_c, 0, 71, 63
1, 10697, Control_c, 0, 64, 50
1, 10711, Control_c, 0, 64, 47
1, 10713, Note_off_c, 0, 71, 59
1, 10726, Control_c, 0, 64, 42
1, 10748, Control_c, 0, 64, 35
1, 10763, Control_c, 0, 64, 27
1, 10778, Control_c, 0, 64, 20
1, 10793, Control_c, 0, 64, 15
1, 10808, Control_c, 0, 64, 9
1, 10822, Control_c, 0, 64, 0
1, 10840, Note_on_c, 0, 71, 56
1, 10840, Note_on_c, 0, 51, 42
1, 10852, Note_on_c, 0, 44, 33
1, 10860, Note_off_c, 0, 46, 32
1, 11173, Note_on_c, 0, 72, 56
1, 11174, Note_off_c, 0, 71, 64
1, 11257, Note_off_c, 0, 72, 59
1, 11329, Note_on_c, 0, 74, 47
1, 11351, Note_off_c, 0, 74, 62
1, 11366, Note_on_c, 0, 72, 61
1, 11385, Note_off_c, 0, 72, 64
1, 11398, Note_on_c, 0, 71, 62
1, 11433, Note_off_c, 0, 71, 61
1, 11445, Note_on_c, 0, 72, 74
1, 11485, Note_on_c, 0, 74, 72
1, 11511, Note_off_c, 0, 72, 64
1, 11547, Note_off_c, 0, 51, 38
1, 11653, Note_on_c, 0, 75, 69
1, 11654, Note_off_c, 0, 74, 66
1, 11659, Note_off_c, 0, 44, 51
1, 11679, Note_off_c, 0, 75, 65
1, 11822, Note_on_c, 0, 75, 85
1, 11988, Note_off_c, 0, 75, 59
1, 11997, Note_on_c, 0, 65, 58
1, 12027, Note_off_c, 0, 65, 68
1, 12165, Note_on_c, 0, 72, 58
1, 12311, Note_off_c, 0, 72, 58
1, 12339, Note_on_c, 0, 60, 56
1, 12365, Note_off_c, 0, 60, 65
1, 12498, Note_on_c, 0, 53, 34
1, 12500, Note_on_c, 0, 68, 54
1, 12513, Note_on_c, 0, 46, 29
1, 12650, Note_off_c, 0, 68, 60
1, 12662, Note_on_c, 0, 62, 56
1, 12668, Note_off_c, 0, 53, 59
1, 12675, Note_off_c, 0, 46, 60
1, 12685, Note_off_c, 0, 62, 62
1, 12830, Note_on_c, 0, 63, 48
1, 12993, Note_on_c, 0, 51, 56
1, 13019, Note_off_c, 0, 51, 65
1, 13172, Note_on_c, 0, 46, 46
1, 13200, Note_off_c, 0, 46, 57
1, 13352, Note_on_c, 0, 43, 37
1, 13399, Note_off_c, 0, 63, 47
1, 13403, Note_off_c, 0, 43, 45
1, 13569, Note_on_c, 0, 39, 19
1, 13586, Control_c, 0, 67, 8
1, 13601, Control_c, 0, 67, 9
1, 13616, Control_c, 0, 67, 10
1, 13630, Control_c, 0, 67, 12
1, 13645, Control_c, 0, 67, 15
1, 13660, Control_c, 0, 67, 17
1, 13675, Control_c, 0, 67, 21
1, 13690, Control_c, 0, 67, 26
1, 13705, Control_c, 0, 67, 34
1, 13720, Control_c, 0, 67, 42
1, 13742, Control_c, 0, 67, 52
1, 13756, Control_c, 0, 67, 64
1, 13771, Control_c, 0, 67, 75
1, 13786, Control_c, 0, 67, 86
1, 13801, Control_c, 0, 67, 96
1, 13816, Control_c, 0, 67, 108
1, 13830, Control_c, 0, 67, 120
1, 13845, Control_c, 0, 67, 127
1, 13926, Note_off_c, 0, 39, 39
1, 13935, Control_c, 0, 64, 14
1, 13950, Control_c, 0, 64, 21
1, 13965, Control_c, 0, 64, 26
1, 13979, Control_c, 0, 64, 30
1, 13994, Control_c, 0, 64, 34
1, 14009, Control_c, 0, 64, 38
1, 14012, Note_on_c, 0, 58, 31
1, 14024, Control_c, 0, 64, 43
1, 14039, Control_c, 0, 64, 46
1, 14054, Control_c, 0, 64, 47
1, 14069, Control_c, 0, 64, 48
1, 14084, Control_c, 0, 64, 48
1, 14098, Control_c, 0, 64, 46
1, 14113, Control_c, 0, 64, 44
1, 14128, Control_c, 0, 64, 41
1, 14143, Control_c, 0, 64, 40
1, 14158, Control_c, 0, 64, 38
1, 14173, Control_c, 0, 64, 35
1, 14187, Control_c, 0, 64, 30
1, 14202, Control_c, 0, 64, 21
1, 14217, Control_c, 0, 64, 8
1, 14226, Note_on_c, 0, 63, 44
1, 14232, Control_c, 0, 64, 0
1, 14237, Note_off_c, 0, 58, 40
1, 14306, Control_c, 0, 67, 119
1, 14321, Control_c, 0, 67, 109
1, 14335, Control_c, 0, 67, 98
1, 14350, Control_c, 0, 67, 84
1, 14365, Control_c, 0, 67, 71
1, 14379, Control_c, 0, 67, 59
1, 14394, Control_c, 0, 67, 50
1, 14407, Note_on_c, 0, 51, 35
1, 14409, Control_c, 0, 67, 43
1, 14424, Control_c, 0, 67, 36
1, 14439, Control_c, 0, 67, 30
1, 14453, Control_c, 0, 67, 24
1, 14468, Control_c, 0, 67, 20
1, 14491, Control_c, 0, 67, 18
1, 14505, Control_c, 0, 67, 17
1, 14566, Note_off_c, 0, 51, 33
1, 14609, Note_on_c, 0, 55, 22
1, 14670, Control_c, 0, 67, 17
1, 14684, Control_c, 0, 67, 16
1, 14699, Control_c, 0, 67, 16
1, 14714, Control_c, 0, 67, 14
1, 14729, Control_c, 0, 67, 11
1, 14742, Note_off_c, 0, 55, 44
1, 14744, Control_c, 0, 67, 8
1, 14758, Control_c, 0, 67, 0
1, 14783, Note_on_c, 0, 51, 28
1, 14948, Note_on_c, 0, 56, 35
1, 14948, Note_off_c, 0, 51, 41
1, 15084, Control_c, 0, 64, 14
1, 15099, Control_c, 0, 64, 19
1, 15114, Control_c, 0, 64, 24
1, 15118, Note_on_c, 0, 46, 36
1, 15118, Note_on_c, 0, 62, 53
1, 15121, Note_off_c, 0, 63, 55
1, 15128, Control_c, 0, 64, 27
1, 15143, Control_c, 0, 64, 30
1, 15158, Control_c, 0, 64, 32
1, 15173, Control_c, 0, 64, 34
1, 15186, Note_off_c, 0, 56, 26
1, 15188, Control_c, 0, 64, 36
1, 15202, Control_c, 0, 64, 38
1, 15217, Control_c, 0, 64, 40
1, 15240, Control_c, 0, 64, 42
1, 15255, Control_c, 0, 64, 44
1, 15255, Note_off_c, 0, 46, 37
1, 15270, Control_c, 0, 64, 46
1, 15283, Control_c, 0, 64, 47
1, 15313, Control_c, 0, 64, 47
1, 15321, Note_on_c, 0, 68, 60
1, 15327, Control_c, 0, 64, 45
1, 15342, Control_c, 0, 64, 44
1, 15357, Control_c, 0, 64, 40
1, 15364, Note_off_c, 0, 62, 37
1, 15372, Control_c, 0, 64, 38
1, 15387, Control_c, 0, 64, 36
1, 15401, Control_c, 0, 64, 33
1, 15416, Control_c, 0, 64, 30
1, 15431, Control_c, 0, 64, 24
1, 15446, Control_c, 0, 64, 15
1, 15462, Control_c, 0, 64, 0
1, 15482, Note_on_c, 0, 46, 45
1, 15598, Note_off_c, 0, 46, 59
1, 15652, Note_on_c, 0, 50, 40
1, 15815, Note_on_c, 0, 46, 50
1, 15815, Note_off_c, 0, 50, 56
1, 15945, Note_off_c, 0, 46, 64
1, 15988, Note_on_c, 0, 51, 54
1, 16018, Control_c, 0, 64, 14
1, 16032, Control_c, 0, 64, 21
1, 16047, Control_c, 0, 64, 26
1, 16062, Control_c, 0, 64, 30
1, 16077, Control_c, 0, 64, 34
1, 16092, Control_c, 0, 64, 39
1, 16106, Control_c, 0, 64, 43
1, 16121, Control_c, 0, 64, 47
1, 16129, Note_off_c, 0, 68, 53
1, 16136, Control_c, 0, 64, 49
1, 16139, Note_off_c, 0, 51, 0
1, 16150, Control_c, 0, 64, 51
1, 16161, Note_on_c, 0, 67, 55
1, 16161, Note_on_c, 0, 39, 44
1, 16195, Control_c, 0, 64, 50
1, 16210, Control_c, 0, 64, 50
1, 16212, Note_off_c, 0, 39, 60
1, 16218, Poly_aftertouch_c, 0, 51, 0
1, 16224, Control_c, 0, 64, 49
1, 16239, Control_c, 0, 64, 49
1, 16252, Note_off_c, 0, 67, 59
1, 16255, Control_c, 0, 64, 48
1, 16270, Control_c, 0, 64, 46
1, 16285, Control_c, 0, 64, 43
1, 16286, Poly_aftertouch_c, 0, 51, 0
1, 16300, Control_c, 0, 64, 40
1, 16315, Control_c, 0, 64, 37
1, 16329, Control_c, 0, 64, 33
1, 16335, Note_on_c, 0, 75, 71
1, 16344, Control_c, 0, 64, 29
1, 16359, Control_c, 0, 64, 25
1, 16364, Note_on_c, 0, 67, 52
1, 16373, Control_c, 0, 64, 18
1, 16388, Control_c, 0, 64, 0
1, 16478, Note_off_c, 0, 67, 0
1, 16478, Note_on_c, 0, 67, 11
1, 16497, Note_on_c, 0, 51, 41
1, 16675, Note_on_c, 0, 55, 49
1, 16699, Note_off_c, 0, 51, 35
1, 16813, Note_off_c, 0, 67, 42
1, 16831, Note_on_c, 0, 51, 57
1, 16859, Note_off_c, 0, 55, 54
1, 17006, Note_on_c, 0, 65, 59
1, 17010, Note_off_c, 0, 51, 62
1, 17024, Note_on_c, 0, 58, 48
1, 17091, Note_off_c, 0, 75, 58
1, 17153, Control_c, 0, 64, 15
1, 17157, Note_off_c, 0, 65, 60
1, 17168, Control_c, 0, 64, 27
1, 17171, Note_on_c, 0, 74, 69
1, 17183, Control_c, 0, 64, 34
1, 17197, Control_c, 0, 64, 40
1, 17200, Note_on_c, 0, 46, 50
1, 17212, Control_c, 0, 64, 45
1, 17214, Note_off_c, 0, 74, 65
1, 17227, Control_c, 0, 64, 49
1, 17242, Control_c, 0, 64, 51
1, 17257, Control_c, 0, 64, 52
1, 17271, Control_c, 0, 64, 51
1, 17286, Control_c, 0, 64, 50
1, 17295, Note_off_c, 0, 46, 62
1, 17301, Control_c, 0, 64, 48
1, 17316, Control_c, 0, 64, 47
1, 17330, Control_c, 0, 64, 46
1, 17340, Note_off_c, 0, 58, 20
1, 17345, Control_c, 0, 64, 46
1, 17354, Note_on_c, 0, 80, 88
1, 17360, Control_c, 0, 64, 44
1, 17367, Note_on_c, 0, 77, 67
1, 17375, Control_c, 0, 64, 42
1, 17390, Control_c, 0, 64, 39
1, 17404, Control_c, 0, 64, 36
1, 17419, Control_c, 0, 64, 33
1, 17434, Control_c, 0, 64, 31
1, 17449, Control_c, 0, 64, 26
1, 17464, Control_c, 0, 64, 18
1, 17486, Control_c, 0, 64, 0
1, 17521, Note_on_c, 0, 58, 53
1, 17688, Note_on_c, 0, 62, 65
1, 17729, Note_off_c, 0, 58, 56
1, 17842, Note_on_c, 0, 58, 70
1, 17890, Note_off_c, 0, 62, 60
1, 17993, Note_off_c, 0, 58, 62
1, 18003, Note_on_c, 0, 63, 76
1, 18132, Note_off_c, 0, 77, 25
1, 18152, Note_off_c, 0, 80, 63
1, 18167, Note_on_c, 0, 79, 84
1, 18170, Note_on_c, 0, 51, 62
1, 18198, Control_c, 0, 64, 12
1, 18213, Control_c, 0, 64, 24
1, 18235, Control_c, 0, 64, 31
1, 18250, Control_c, 0, 64, 37
1, 18254, Note_off_c, 0, 51, 61
1, 18262, Note_off_c, 0, 79, 63
1, 18265, Note_off_c, 0, 63, 61
1, 18265, Control_c, 0, 64, 42
1, 18280, Control_c, 0, 64, 47
1, 18295, Control_c, 0, 64, 50
1, 18309, Control_c, 0, 64, 52
1, 18324, Control_c, 0, 64, 53
1, 18339, Control_c, 0, 64, 52
1, 18343, Note_on_c, 0, 84, 92
1, 18353, Control_c, 0, 64, 51
1, 18368, Control_c, 0, 64, 49
1, 18383, Control_c, 0, 64, 47
1, 18398, Control_c, 0, 64, 45
1, 18413, Control_c, 0, 64, 43
1, 18427, Control_c, 0, 64, 41
1, 18442, Control_c, 0, 64, 38
1, 18457, Control_c, 0, 64, 34
1, 18472, Control_c, 0, 64, 28
1, 18487, Control_c, 0, 64, 19
1, 18495, Note_on_c, 0, 63, 66
1, 18501, Control_c, 0, 64, 0
1, 18678, Note_on_c, 0, 67, 72
1, 18737, Note_off_c, 0, 63, 63
1, 18838, Note_on_c, 0, 63, 81
1, 18901, Note_off_c, 0, 67, 58
1, 19008, Note_on_c, 0, 62, 81
1, 19043, Note_off_c, 0, 63, 60
1, 19147, Control_c, 0, 64, 14
1, 19162, Note_on_c, 0, 83, 88
1, 19162, Control_c, 0, 64, 24
1, 19166, Note_on_c, 0, 65, 69
1, 19170, Note_off_c, 0, 62, 63
1, 19176, Control_c, 0, 64, 33
1, 19188, Note_off_c, 0, 84, 60
1, 19191, Control_c, 0, 64, 40
1, 19206, Control_c, 0, 64, 46
1, 19219, Note_off_c, 0, 65, 65
1, 19221, Control_c, 0, 64, 51
1, 19236, Control_c, 0, 64, 55
1, 19250, Control_c, 0, 64, 56
1, 19260, Note_off_c, 0, 83, 65
1, 19280, Control_c, 0, 64, 55
1, 19295, Control_c, 0, 64, 53
1, 19309, Control_c, 0, 64, 50
1, 19324, Control_c, 0, 64, 47
1, 19332, Note_on_c, 0, 86, 93
1, 19338, Note_on_c, 0, 77, 87
1, 19339, Control_c, 0, 64, 44
1, 19354, Control_c, 0, 64, 41
1, 19369, Control_c, 0, 64, 35
1, 19384, Control_c, 0, 64, 29
1, 19398, Control_c, 0, 64, 20
1, 19413, Control_c, 0, 64, 0
1, 19482, Note_on_c, 0, 55, 72
1, 19655, Note_on_c, 0, 59, 79
1, 19696, Note_off_c, 0, 55, 59
1, 19810, Note_on_c, 0, 55, 89
1, 19827, Note_off_c, 0, 77, 59
1, 19844, Note_off_c, 0, 59, 62
1, 19958, Note_off_c, 0, 86, 51
1, 19967, Note_off_c, 0, 55, 65
1, 19971, Note_on_c, 0, 60, 90
1, 20044, Control_c, 0, 64, 12
1, 20059, Control_c, 0, 64, 23
1, 20073, Control_c, 0, 64, 32
1, 20088, Control_c, 0, 64, 39
1, 20103, Control_c, 0, 64, 46
1, 20117, Control_c, 0, 64, 52
1, 20125, Note_on_c, 0, 84, 88
1, 20126, Note_on_c, 0, 48, 79
1, 20128, Note_on_c, 0, 75, 81
1, 20132, Control_c, 0, 64, 55
1, 20147, Control_c, 0, 64, 56
1, 20149, Note_off_c, 0, 60, 66
1, 20155, Note_off_c, 0, 48, 69
1, 20165, Note_off_c, 0, 75, 55
1, 20177, Control_c, 0, 64, 55
1, 20180, Note_off_c, 0, 84, 64
1, 20191, Control_c, 0, 64, 54
1, 20206, Control_c, 0, 64, 52
1, 20221, Control_c, 0, 64, 47
1, 20236, Control_c, 0, 64, 38
1, 20252, Control_c, 0, 64, 18
1, 20267, Control_c, 0, 64, 0
1, 20284, Note_on_c, 0, 87, 95
1, 20290, Note_on_c, 0, 79, 90
1, 20431, Note_on_c, 0, 47, 77
1, 20432, Note_on_c, 0, 59, 75
1, 20454, Note_off_c, 0, 59, 68
1, 20468, Note_off_c, 0, 47, 68
1, 20598, Note_on_c, 0, 60, 83
1, 20600, Note_on_c, 0, 48, 77
1, 20638, Note_off_c, 0, 48, 67
1, 20639, Note_off_c, 0, 60, 64
1, 20642, Note_off_c, 0, 87, 60
1, 20686, Note_off_c, 0, 79, 58
1, 20745, Note_on_c, 0, 62, 86
1, 20746, Note_on_c, 0, 50, 78
1, 20749, Note_on_c, 0, 86, 86
1, 20756, Note_on_c, 0, 77, 83
1, 20771, Note_off_c, 0, 62, 67
1, 20775, Note_off_c, 0, 50, 65
1, 20790, Note_off_c, 0, 77, 61
1, 20794, Note_off_c, 0, 86, 61
1, 20897, Note_on_c, 0, 63, 84
1, 20902, Note_on_c, 0, 84, 79
1, 20904, Note_on_c, 0, 51, 73
1, 20907, Note_on_c, 0, 75, 74
1, 20924, Note_off_c, 0, 63, 65
1, 20929, Note_off_c, 0, 51, 68
1, 20931, Note_off_c, 0, 75, 65
1, 20934, Note_off_c, 0, 84, 53
1, 21058, Note_on_c, 0, 82, 91
1, 21063, Note_on_c, 0, 64, 79
1, 21065, Note_on_c, 0, 74, 78
1, 21074, Note_on_c, 0, 52, 72
1, 21084, Note_off_c, 0, 74, 74
1, 21089, Note_off_c, 0, 64, 67
1, 21095, Note_off_c, 0, 52, 69
1, 21107, Note_off_c, 0, 82, 63
1, 21241, Note_on_c, 0, 65, 85
1, 21243, Note_on_c, 0, 82, 90
1, 21247, Note_on_c, 0, 74, 83
1, 21249, Note_on_c, 0, 53, 78
1, 21274, Note_off_c, 0, 65, 65
1, 21275, Note_off_c, 0, 53, 70
1, 21290, Control_c, 0, 64, 21
1, 21304, Control_c, 0, 64, 35
1, 21319, Control_c, 0, 64, 47
1, 21334, Control_c, 0, 64, 58
1, 21349, Control_c, 0, 64, 65
1, 21363, Control_c, 0, 64, 72
1, 21378, Control_c, 0, 64, 75
1, 21408, Control_c, 0, 64, 76
1, 21421, Note_off_c, 0, 74, 60
1, 21467, Note_off_c, 0, 82, 58
1, 21467, Control_c, 0, 64, 75
1, 21482, Control_c, 0, 64, 74
1, 21497, Control_c, 0, 64, 73
1, 21512, Control_c, 0, 64, 73
1, 21527, Control_c, 0, 64, 71
1, 21542, Control_c, 0, 64, 69
1, 21557, Control_c, 0, 64, 67
1, 21568, Note_on_c, 0, 81, 82
1, 21571, Control_c, 0, 64, 64
1, 21574, Note_on_c, 0, 72, 67
1, 21586, Control_c, 0, 64, 62
1, 21595, Note_off_c, 0, 81, 63
1, 21598, Note_off_c, 0, 72, 66
1, 21601, Control_c, 0, 64, 61
1, 21616, Control_c, 0, 64, 58
1, 21631, Control_c, 0, 64, 53
1, 21645, Control_c, 0, 64, 45
1, 21660, Control_c, 0, 64, 30
1, 21675, Control_c, 0, 64, 12
1, 21689, Control_c, 0, 64, 0
1, 21739, Note_on_c, 0, 79, 84
1, 21745, Note_on_c, 0, 70, 69
1, 21752, Note_on_c, 0, 72, 64
1, 21899, Note_off_c, 0, 70, 64
1, 21912, Note_on_c, 0, 69, 57
1, 21914, Note_on_c, 0, 77, 65
1, 22063, Note_off_c, 0, 69, 55
1, 22069, Note_on_c, 0, 76, 70
1, 22075, Note_off_c, 0, 77, 62
1, 22079, Note_on_c, 0, 67, 60
1, 22112, Note_off_c, 0, 67, 64
1, 22125, Note_off_c, 0, 76, 58
1, 22232, Note_on_c, 0, 67, 59
1, 22239, Note_on_c, 0, 76, 69
1, 22527, Control_c, 0, 64, 21
1, 22542, Control_c, 0, 64, 32
1, 22549, Note_off_c, 0, 76, 60
1, 22553, Note_on_c, 0, 69, 61
1, 22557, Control_c, 0, 64, 42
1, 22561, Note_on_c, 0, 77, 74
1, 22570, Note_off_c, 0, 79, 52
1, 22572, Control_c, 0, 64, 52
1, 22573, Note_off_c, 0, 69, 65
1, 22582, Note_off_c, 0, 67, 40
1, 22583, Note_off_c, 0, 77, 69
1, 22585, Note_off_c, 0, 72, 48
1, 22586, Control_c, 0, 64, 58
1, 22601, Control_c, 0, 64, 62
1, 22616, Control_c, 0, 64, 62
1, 22647, Control_c, 0, 64, 61
1, 22662, Control_c, 0, 64, 59
1, 22677, Control_c, 0, 64, 57
1, 22691, Control_c, 0, 64, 54
1, 22706, Control_c, 0, 64, 46
1, 22725, Note_on_c, 0, 79, 89
1, 22728, Control_c, 0, 64, 35
1, 22736, Note_on_c, 0, 72, 74
1, 22737, Note_on_c, 0, 70, 84
1, 22743, Control_c, 0, 64, 16
1, 22758, Control_c, 0, 64, 0
1, 22890, Note_on_c, 0, 69, 61
1, 22892, Note_on_c, 0, 77, 73
1, 22913, Note_off_c, 0, 70, 61
1, 23018, Note_off_c, 0, 69, 52
1, 23038, Note_off_c, 0, 77, 62
1, 23048, Note_on_c, 0, 76, 61
1, 23056, Note_on_c, 0, 67, 57
1, 23088, Note_off_c, 0, 67, 64
1, 23105, Note_off_c, 0, 76, 61
1, 23229, Note_on_c, 0, 76, 63
1, 23232, Note_on_c, 0, 67, 53
1, 23537, Note_off_c, 0, 79, 57
1, 23542, Note_off_c, 0, 67, 52
1, 23542, Note_off_c, 0, 76, 50
1, 23546, Note_on_c, 0, 69, 56
1, 23551, Control_c, 0, 64, 23
1, 23556, Note_on_c, 0, 77, 57
1, 23563, Note_off_c, 0, 72, 48
1, 23566, Control_c, 0, 64, 33
1, 23566, Note_off_c, 0, 69, 65
1, 23576, Note_off_c, 0, 77, 62
1, 23581, Control_c, 0, 64, 43
1, 23596, Control_c, 0, 64, 49
1, 23611, Control_c, 0, 64, 54
1, 23625, Control_c, 0, 64, 56
1, 23640, Control_c, 0, 64, 56
1, 23670, Control_c, 0, 64, 56
1, 23685, Control_c, 0, 64, 55
1, 23699, Control_c, 0, 64, 52
1, 23706, Note_on_c, 0, 79, 79
1, 23714, Control_c, 0, 64, 45
1, 23724, Note_on_c, 0, 70, 68
1, 23727, Note_on_c, 0, 73, 65
1, 23729, Control_c, 0, 64, 30
1, 23744, Control_c, 0, 64, 0
1, 23882, Note_on_c, 0, 69, 68
1, 23888, Note_on_c, 0, 77, 83
1, 23888, Note_off_c, 0, 70, 61
1, 23897, Note_on_c, 0, 72, 68
1, 23904, Note_off_c, 0, 73, 64
1, 23921, Control_c, 0, 64, 21
1, 23924, Note_off_c, 0, 79, 58
1, 23936, Control_c, 0, 64, 29
1, 23951, Control_c, 0, 64, 37
1, 23965, Control_c, 0, 64, 43
1, 23974, Note_off_c, 0, 77, 62
1, 23980, Control_c, 0, 64, 48
1, 23995, Control_c, 0, 64, 53
1, 24010, Control_c, 0, 64, 56
1, 24025, Control_c, 0, 64, 58
1, 24040, Control_c, 0, 64, 58
1, 24050, Note_on_c, 0, 67, 77
1, 24052, Note_on_c, 0, 76, 90
1, 24065, Note_on_c, 0, 70, 75
1, 24070, Control_c, 0, 64, 58
1, 24084, Control_c, 0, 64, 57
1, 24087, Note_off_c, 0, 69, 34
1, 24089, Note_off_c, 0, 72, 59
1, 24114, Control_c, 0, 64, 57
1, 24129, Control_c, 0, 64, 56
1, 24134, Note_off_c, 0, 67, 61
1, 24143, Note_off_c, 0, 70, 58
1, 24144, Control_c, 0, 64, 54
1, 24158, Control_c, 0, 64, 53
1, 24172, Note_off_c, 0, 76, 64
1, 24173, Control_c, 0, 64, 51
1, 24188, Control_c, 0, 64, 49
1, 24203, Control_c, 0, 64, 46
1, 24225, Control_c, 0, 64, 40
1, 24241, Control_c, 0, 64, 31
1, 24256, Control_c, 0, 64, 19
1, 24264, Note_on_c, 0, 76, 85
1, 24270, Control_c, 0, 64, 0
1, 24275, Note_on_c, 0, 70, 68
1, 24291, Note_on_c, 0, 67, 75
1, 24972, Note_on_c, 0, 66, 52
1, 25023, Note_off_c, 0, 67, 49
1, 25064, Control_c, 0, 64, 9
1, 25079, Control_c, 0, 64, 23
1, 25093, Control_c, 0, 64, 31
1, 25093, Control_c, 0, 67, 8
1, 25108, Control_c, 0, 64, 36
1, 25108, Control_c, 0, 67, 9
1, 25123, Control_c, 0, 64, 41
1, 25123, Control_c, 0, 67, 10
1, 25137, Control_c, 0, 64, 45
1, 25137, Control_c, 0, 67, 10
1, 25152, Control_c, 0, 64, 48
1, 25152, Control_c, 0, 67, 11
1, 25167, Control_c, 0, 64, 50
1, 25182, Control_c, 0, 64, 51
1, 25197, Control_c, 0, 64, 51
1, 25211, Control_c, 0, 64, 50
1, 25226, Control_c, 0, 64, 49
1, 25241, Control_c, 0, 64, 48
1, 25256, Control_c, 0, 64, 48
1, 25271, Control_c, 0, 64, 47
1, 25271, Control_c, 0, 67, 11
1, 25286, Control_c, 0, 64, 45
1, 25286, Control_c, 0, 67, 10
1, 25301, Control_c, 0, 64, 42
1, 25316, Control_c, 0, 64, 39
1, 25330, Control_c, 0, 64, 37
1, 25345, Control_c, 0, 64, 34
1, 25345, Control_c, 0, 67, 10
1, 25360, Control_c, 0, 64, 33
1, 25375, Control_c, 0, 64, 32
1, 25390, Control_c, 0, 64, 30
1, 25405, Control_c, 0, 64, 27
1, 25419, Control_c, 0, 64, 22
1, 25434, Control_c, 0, 64, 15
1, 25434, Control_c, 0, 67, 9
1, 25449, Control_c, 0, 64, 0
1, 25509, Note_on_c, 0, 75, 45
1, 25510, Note_on_c, 0, 69, 34
1, 25523, Note_on_c, 0, 65, 40
1, 25552, Note_off_c, 0, 76, 38
1, 25561, Note_off_c, 0, 70, 33
1, 25664, Note_off_c, 0, 66, 35
1, 25670, Control_c, 0, 67, 10
1, 25723, Control_c, 0, 67, 10
1, 25796, Control_c, 0, 67, 11
1, 25855, Control_c, 0, 67, 11
1, 25885, Control_c, 0, 67, 12
1, 25915, Control_c, 0, 67, 13
1, 25930, Control_c, 0, 67, 13
1, 25945, Control_c, 0, 67, 14
1, 25959, Control_c, 0, 67, 14
1, 25974, Control_c, 0, 67, 16
1, 25989, Control_c, 0, 67, 18
1, 26004, Control_c, 0, 67, 20
1, 26019, Control_c, 0, 67, 21
1, 26033, Control_c, 0, 67, 24
1, 26048, Control_c, 0, 67, 26
1, 26063, Control_c, 0, 67, 29
1, 26078, Control_c, 0, 67, 31
1, 26092, Control_c, 0, 67, 34
1, 26107, Control_c, 0, 67, 37
1, 26122, Control_c, 0, 67, 41
1, 26137, Control_c, 0, 67, 47
1, 26151, Control_c, 0, 67, 51
1, 26166, Control_c, 0, 67, 56
1, 26181, Control_c, 0, 67, 62
1, 26196, Control_c, 0, 67, 67
1, 26211, Control_c, 0, 67, 73
1, 26226, Control_c, 0, 67, 78
1, 26240, Control_c, 0, 67, 84
1, 26255, Control_c, 0, 67, 89
1, 26270, Control_c, 0, 67, 93
1, 26284, Control_c, 0, 67, 96
1, 26299, Control_c, 0, 67, 100
1, 26314, Control_c, 0, 67, 103
1, 26329, Control_c, 0, 67, 106
1, 26344, Control_c, 0, 67, 110
1, 26359, Control_c, 0, 67, 113
1, 26374, Control_c, 0, 67, 116
1, 26389, Control_c, 0, 67, 119
1, 26404, Control_c, 0, 67, 122
1, 26419, Control_c, 0, 67, 125
1, 26433, Control_c, 0, 67, 127
1, 26683, Note_off_c, 0, 65, 55
1, 26702, Note_off_c, 0, 75, 18
1, 26723, Note_off_c, 0, 69, 58
1, 26738, Control_c, 0, 67, 127
1, 26753, Control_c, 0, 67, 125
1, 26768, Control_c, 0, 67, 123
1, 26782, Control_c, 0, 67, 123
1, 26797, Control_c, 0, 67, 121
1, 26812, Control_c, 0, 67, 118
1, 26827, Control_c, 0, 67, 114
1, 26842, Control_c, 0, 67, 108
1, 26857, Control_c, 0, 67, 99
1, 26872, Control_c, 0, 67, 92
1, 26887, Control_c, 0, 67, 86
1, 26901, Control_c, 0, 67, 83
1, 26916, Control_c, 0, 67, 80
1, 26931, Control_c, 0, 67, 78
1, 26946, Control_c, 0, 67, 75
1, 26961, Control_c, 0, 67, 71
1, 26975, Control_c, 0, 67, 66
1, 26990, Control_c, 0, 67, 60
1, 27005, Control_c, 0, 67, 53
1, 27020, Control_c, 0, 67, 46
1, 27035, Control_c, 0, 67, 40
1, 27050, Control_c, 0, 67, 34
1, 27064, Control_c, 0, 67, 30
1, 27079, Control_c, 0, 67, 26
1, 27094, Control_c, 0, 67, 22
1, 27108, Control_c, 0, 67, 18
1, 27123, Control_c, 0, 67, 13
1, 27138, Control_c, 0, 67, 8
1, 27153, Control_c, 0, 67, 0
1, 27214, Note_on_c, 0, 62, 49
1, 27279, Note_off_c, 0, 62, 56
1, 27280, Note_on_c, 0, 65, 53
1, 27322, Note_off_c, 0, 65, 65
1, 27355, Note_on_c, 0, 63, 52
1, 27390, Note_off_c, 0, 63, 62
1, 27416, Note_on_c, 0, 67, 60
1, 27498, Note_off_c, 0, 67, 61
1, 27505, Note_on_c, 0, 46, 56
1, 27507, Note_on_c, 0, 65, 55
1, 27510, Note_on_c, 0, 50, 39
1, 27532, Note_off_c, 0, 46, 63
1, 27534, Note_off_c, 0, 65, 64
1, 27541, Note_off_c, 0, 50, 46
1, 27894, Note_on_c, 0, 62, 42
1, 27898, Note_on_c, 0, 58, 31
1, 27923, Note_off_c, 0, 62, 58
1, 27926, Note_off_c, 0, 58, 47
1, 27954, Control_c, 0, 67, 8
1, 27969, Control_c, 0, 67, 10
1, 27983, Control_c, 0, 67, 12
1, 27998, Control_c, 0, 67, 13
1, 28013, Control_c, 0, 67, 16
1, 28028, Control_c, 0, 67, 20
1, 28043, Control_c, 0, 67, 25
1, 28058, Control_c, 0, 67, 32
1, 28063, Note_on_c, 0, 79, 46
1, 28072, Control_c, 0, 67, 41
1, 28087, Control_c, 0, 67, 50
1, 28102, Control_c, 0, 67, 60
1, 28117, Control_c, 0, 67, 69
1, 28129, Note_off_c, 0, 79, 58
1, 28132, Control_c, 0, 67, 78
1, 28136, Note_on_c, 0, 77, 51
1, 28146, Control_c, 0, 67, 86
1, 28161, Control_c, 0, 67, 94
1, 28176, Control_c, 0, 67, 98
1, 28191, Control_c, 0, 67, 102
1, 28192, Note_off_c, 0, 77, 57
1, 28201, Note_on_c, 0, 75, 57
1, 28205, Control_c, 0, 67, 103
1, 28220, Control_c, 0, 67, 104
1, 28263, Note_off_c, 0, 75, 62
1, 28279, Note_on_c, 0, 74, 52
1, 28304, Note_off_c, 0, 74, 66
1, 28351, Note_on_c, 0, 72, 51
1, 28354, Control_c, 0, 67, 103
1, 28369, Control_c, 0, 67, 103
1, 28383, Note_off_c, 0, 72, 50
1, 28384, Control_c, 0, 67, 102
1, 28399, Control_c, 0, 67, 102
1, 28414, Control_c, 0, 67, 100
1, 28427, Note_on_c, 0, 70, 47
1, 28428, Control_c, 0, 67, 98
1, 28443, Control_c, 0, 67, 96
1, 28458, Control_c, 0, 67, 93
1, 28473, Control_c, 0, 67, 90
1, 28487, Control_c, 0, 67, 87
1, 28502, Control_c, 0, 67, 82
1, 28511, Note_off_c, 0, 70, 48
1, 28514, Note_on_c, 0, 69, 51
1, 28517, Control_c, 0, 67, 74
1, 28531, Note_on_c, 0, 41, 33
1, 28532, Control_c, 0, 67, 64
1, 28538, Note_off_c, 0, 69, 61
1, 28539, Note_on_c, 0, 45, 39
1, 28547, Control_c, 0, 67, 54
1, 28562, Control_c, 0, 67, 45
1, 28575, Note_off_c, 0, 41, 58
1, 28575, Note_off_c, 0, 45, 64
1, 28577, Control_c, 0, 67, 36
1, 28592, Control_c, 0, 67, 27
1, 28607, Control_c, 0, 67, 19
1, 28621, Control_c, 0, 67, 14
1, 28636, Control_c, 0, 67, 11
1, 28651, Control_c, 0, 67, 10
1, 28680, Control_c, 0, 67, 9
1, 28695, Control_c, 0, 67, 9
1, 28776, Control_c, 0, 67, 8
1, 28791, Control_c, 0, 67, 8
1, 28821, Control_c, 0, 67, 0
1, 28878, Note_on_c, 0, 57, 45
1, 28891, Note_on_c, 0, 53, 38
1, 28906, Note_off_c, 0, 57, 61
1, 28925, Note_off_c, 0, 53, 48
1, 29248, Note_on_c, 0, 72, 64
1, 29320, Note_on_c, 0, 75, 72
1, 29325, Note_off_c, 0, 72, 58
1, 29388, Note_off_c, 0, 75, 61
1, 29396, Note_on_c, 0, 74, 64
1, 29473, Note_on_c, 0, 77, 80
1, 29486, Note_off_c, 0, 74, 64
1, 29548, Note_on_c, 0, 75, 81
1, 29555, Note_on_c, 0, 45, 67
1, 29564, Note_on_c, 0, 41, 51
1, 29564, Note_off_c, 0, 77, 63
1, 29586, Note_off_c, 0, 45, 64
1, 29592, Note_off_c, 0, 41, 58
1, 29600, Note_off_c, 0, 75, 66
1, 29925, Note_on_c, 0, 57, 46
1, 29945, Note_on_c, 0, 53, 19
1, 29946, Note_off_c, 0, 53, 127
1, 29951, Note_off_c, 0, 57, 54
1, 30098, Note_on_c, 0, 84, 66
1, 30169, Note_on_c, 0, 82, 69
1, 30192, Note_off_c, 0, 84, 60
1, 30252, Note_on_c, 0, 81, 63
1, 30270, Note_off_c, 0, 82, 62
1, 30286, Note_on_c, 0, 83, 7
1, 30287, Note_off_c, 0, 83, 127
1, 30313, Note_off_c, 0, 81, 64
1, 30315, Note_on_c, 0, 79, 71
1, 30371, Note_off_c, 0, 79, 61
1, 30403, Note_on_c, 0, 77, 57
1, 30432, Note_off_c, 0, 77, 59
1, 30472, Note_on_c, 0, 75, 53
1, 30535, Note_on_c, 0, 58, 30
1, 30546, Note_on_c, 0, 74, 58
1, 30550, Note_off_c, 0, 75, 59
1, 30564, Note_off_c, 0, 58, 56
1, 30572, Note_off_c, 0, 74, 71
1, 30616, Note_on_c, 0, 65, 39
1, 30653, Note_off_c, 0, 65, 57
1, 30698, Note_on_c, 0, 62, 33
1, 30732, Note_off_c, 0, 62, 51
1, 30763, Note_on_c, 0, 65, 40
1, 30800, Note_off_c, 0, 65, 55
1, 30835, Note_on_c, 0, 58, 30
1, 30842, Note_on_c, 0, 70, 49
1, 30866, Note_off_c, 0, 58, 46
1, 30872, Note_off_c, 0, 70, 56
1, 30911, Note_on_c, 0, 65, 37
1, 30916, Note_on_c, 0, 72, 52
1, 30950, Note_off_c, 0, 65, 58
1, 30964, Note_off_c, 0, 72, 60
1, 30989, Note_on_c, 0, 74, 62
1, 30991, Note_on_c, 0, 62, 36
1, 31026, Note_off_c, 0, 62, 55
1, 31048, Note_on_c, 0, 65, 49
1, 31048, Note_off_c, 0, 74, 63
1, 31063, Note_on_c, 0, 75, 64
1, 31093, Note_off_c, 0, 65, 60
1, 31107, Note_off_c, 0, 75, 62
1, 31119, Note_on_c, 0, 58, 50
1, 31129, Note_on_c, 0, 77, 78
1, 31159, Note_off_c, 0, 58, 63
1, 31194, Note_off_c, 0, 77, 54
1, 31202, Note_on_c, 0, 79, 77
1, 31216, Note_on_c, 0, 65, 30
1, 31261, Note_off_c, 0, 65, 52
1, 31275, Note_on_c, 0, 81, 79
1, 31283, Note_on_c, 0, 62, 54
1, 31284, Note_off_c, 0, 79, 62
1, 31337, Note_off_c, 0, 62, 61
1, 31341, Note_on_c, 0, 82, 76
1, 31346, Note_off_c, 0, 81, 65
1, 31364, Note_on_c, 0, 65, 51
1, 31369, Note_off_c, 0, 82, 64
1, 31418, Note_off_c, 0, 65, 61
1, 31419, Note_on_c, 0, 82, 85
1, 31444, Note_on_c, 0, 60, 58
1, 31453, Control_c, 0, 64, 10
1, 31468, Control_c, 0, 64, 13
1, 31481, Note_off_c, 0, 60, 64
1, 31483, Control_c, 0, 64, 15
1, 31498, Control_c, 0, 64, 16
1, 31537, Note_on_c, 0, 65, 53
1, 31558, Control_c, 0, 64, 16
1, 31572, Control_c, 0, 64, 14
1, 31575, Note_off_c, 0, 65, 60
1, 31587, Control_c, 0, 64, 13
1, 31602, Control_c, 0, 64, 9
1, 31605, Note_on_c, 0, 63, 61
1, 31617, Control_c, 0, 64, 0
1, 31673, Note_off_c, 0, 63, 61
1, 31683, Note_on_c, 0, 65, 51
1, 31739, Note_off_c, 0, 82, 64
1, 31747, Note_off_c, 0, 65, 62
1, 31754, Note_on_c, 0, 81, 75
1, 31772, Note_on_c, 0, 60, 47
1, 31781, Note_off_c, 0, 81, 64
1, 31808, Note_off_c, 0, 60, 59
1, 31860, Note_on_c, 0, 65, 40
1, 31897, Note_off_c, 0, 65, 56
1, 31914, Note_on_c, 0, 79, 66
1, 31924, Note_on_c, 0, 58, 43
1, 31942, Note_off_c, 0, 79, 53
1, 31963, Note_off_c, 0, 58, 60
1, 32002, Note_on_c, 0, 65, 47
1, 32053, Note_off_c, 0, 65, 58
1, 32073, Note_on_c, 0, 77, 65
1, 32076, Note_on_c, 0, 57, 42
1, 32108, Note_off_c, 0, 57, 54
1, 32112, Note_off_c, 0, 77, 58
1, 32175, Note_on_c, 0, 65, 29
1, 32208, Note_off_c, 0, 65, 57
1, 32230, Note_on_c, 0, 60, 43
1, 32246, Note_on_c, 0, 75, 42
1, 32264, Note_off_c, 0, 60, 52
1, 32280, Note_off_c, 0, 75, 55
1, 32315, Note_on_c, 0, 65, 35
1, 32356, Note_off_c, 0, 65, 50
1, 32381, Note_on_c, 0, 58, 45
1, 32408, Note_on_c, 0, 73, 40
1, 32416, Note_off_c, 0, 58, 55
1, 32484, Note_on_c, 0, 65, 37
1, 32526, Note_off_c, 0, 65, 52
1, 32547, Note_off_c, 0, 73, 55
1, 32557, Note_on_c, 0, 62, 44
1, 32559, Note_on_c, 0, 74, 49
1, 32583, Note_off_c, 0, 74, 65
1, 32597, Note_off_c, 0, 62, 53
1, 32638, Note_on_c, 0, 65, 36
1, 32669, Note_off_c, 0, 65, 57
1, 32687, Note_on_c, 0, 58, 57
1, 32696, Note_on_c, 0, 70, 61
1, 32723, Note_off_c, 0, 58, 64
1, 32757, Note_off_c, 0, 70, 62
1, 32769, Note_on_c, 0, 65, 44
1, 32777, Note_on_c, 0, 72, 62
1, 32824, Note_off_c, 0, 65, 64
1, 32839, Note_on_c, 0, 74, 76
1, 32845, Note_off_c, 0, 72, 60
1, 32848, Note_on_c, 0, 62, 58
1, 32899, Note_off_c, 0, 62, 60
1, 32908, Note_off_c, 0, 74, 66
1, 32916, Note_on_c, 0, 75, 73
1, 32943, Note_on_c, 0, 65, 49
1, 32961, Note_off_c, 0, 75, 64
1, 32969, Note_off_c, 0, 65, 60
1, 32990, Note_on_c, 0, 77, 82
1, 33005, Note_on_c, 0, 58, 52
1, 33048, Note_off_c, 0, 77, 60
1, 33050, Note_off_c, 0, 58, 63
1, 33060, Note_on_c, 0, 79, 80
1, 33061, Note_on_c, 0, 65, 55
1, 33129, Control_c, 0, 64, 12
1, 33133, Note_off_c, 0, 65, 63
1, 33140, Note_on_c, 0, 81, 85
1, 33143, Control_c, 0, 64, 15
1, 33151, Note_on_c, 0, 62, 56
1, 33156, Note_off_c, 0, 79, 62
1, 33158, Control_c, 0, 64, 16
1, 33212, Note_off_c, 0, 62, 60
1, 33218, Note_on_c, 0, 82, 83
1, 33222, Note_off_c, 0, 81, 66
1, 33233, Note_on_c, 0, 65, 57
1, 33240, Control_c, 0, 64, 13
1, 33247, Note_off_c, 0, 82, 66
1, 33255, Control_c, 0, 64, 0
1, 33292, Note_off_c, 0, 65, 63
1, 33301, Note_on_c, 0, 82, 92
1, 33318, Note_on_c, 0, 60, 60
1, 33351, Note_off_c, 0, 60, 65
1, 33403, Note_on_c, 0, 65, 56
1, 33450, Note_off_c, 0, 65, 62
1, 33476, Note_on_c, 0, 63, 60
1, 33542, Note_off_c, 0, 63, 61
1, 33558, Note_on_c, 0, 65, 57
1, 33621, Note_off_c, 0, 65, 64
1, 33627, Note_off_c, 0, 82, 64
1, 33643, Note_on_c, 0, 81, 74
1, 33644, Note_on_c, 0, 60, 47
1, 33681, Note_off_c, 0, 81, 64
1, 33684, Note_off_c, 0, 60, 63
1, 33731, Note_on_c, 0, 65, 49
1, 33784, Note_off_c, 0, 65, 56
1, 33806, Note_on_c, 0, 79, 66
1, 33817, Note_on_c, 0, 58, 40
1, 33831, Note_off_c, 0, 79, 58
1, 33852, Note_off_c, 0, 58, 54
1, 33905, Note_on_c, 0, 65, 41
1, 33948, Note_off_c, 0, 65, 58
1, 33977, Note_on_c, 0, 77, 65
1, 33981, Note_on_c, 0, 57, 37
1, 34007, Note_off_c, 0, 77, 57
1, 34011, Note_off_c, 0, 57, 54
1, 34053, Note_on_c, 0, 65, 43
1, 34095, Note_off_c, 0, 65, 55
1, 34123, Note_on_c, 0, 60, 44
1, 34131, Note_on_c, 0, 75, 62
1, 34159, Note_off_c, 0, 60, 53
1, 34161, Note_off_c, 0, 75, 59
1, 34214, Note_on_c, 0, 65, 33
1, 34249, Note_off_c, 0, 65, 54
1, 34285, Note_on_c, 0, 58, 37
1, 34292, Note_on_c, 0, 73, 56
1, 34321, Note_off_c, 0, 58, 54
1, 34369, Note_on_c, 0, 65, 35
1, 34429, Note_off_c, 0, 65, 62
1, 34452, Note_on_c, 0, 74, 57
1, 34458, Note_on_c, 0, 62, 49
1, 34461, Note_off_c, 0, 73, 59
1, 34479, Note_off_c, 0, 74, 72
1, 34506, Note_off_c, 0, 62, 62
1, 34538, Note_on_c, 0, 65, 49
1, 34571, Note_off_c, 0, 65, 59
1, 34595, Note_on_c, 0, 70, 66
1, 34598, Note_on_c, 0, 58, 53
1, 34636, Note_off_c, 0, 58, 64
1, 34652, Note_off_c, 0, 70, 61
1, 34658, Note_on_c, 0, 72, 76
1, 34673, Note_on_c, 0, 65, 50
1, 34728, Note_off_c, 0, 65, 64
1, 34735, Note_on_c, 0, 74, 80
1, 34745, Note_off_c, 0, 72, 59
1, 34746, Note_on_c, 0, 62, 57
1, 34808, Note_on_c, 0, 75, 85
1, 34810, Note_off_c, 0, 62, 64
1, 34816, Note_on_c, 0, 65, 60
1, 34817, Note_off_c, 0, 74, 66
1, 34855, Note_off_c, 0, 75, 66
1, 34871, Control_c, 0, 64, 11
1, 34879, Note_on_c, 0, 77, 92
1, 34880, Note_on_c, 0, 58, 64
1, 34881, Note_off_c, 0, 65, 65
1, 34886, Control_c, 0, 64, 16
1, 34901, Control_c, 0, 64, 19
1, 34916, Control_c, 0, 64, 22
1, 34930, Control_c, 0, 64, 23
1, 34939, Note_off_c, 0, 58, 61
1, 34945, Control_c, 0, 64, 26
1, 34953, Note_on_c, 0, 79, 89
1, 34960, Control_c, 0, 64, 28
1, 34966, Note_on_c, 0, 65, 56
1, 34966, Note_off_c, 0, 77, 59
1, 34975, Control_c, 0, 64, 30
1, 34990, Control_c, 0, 64, 33
1, 35004, Control_c, 0, 64, 35
1, 35019, Control_c, 0, 64, 37
1, 35021, Note_on_c, 0, 80, 89
1, 35030, Note_off_c, 0, 65, 65
1, 35034, Control_c, 0, 64, 38
1, 35038, Note_on_c, 0, 62, 60
1, 35046, Note_off_c, 0, 79, 60
1, 35048, Control_c, 0, 64, 39
1, 35084, Note_on_c, 0, 82, 86
1, 35093, Control_c, 0, 64, 38
1, 35108, Control_c, 0, 64, 37
1, 35114, Note_on_c, 0, 65, 46
1, 35114, Note_off_c, 0, 62, 60
1, 35123, Control_c, 0, 64, 35
1, 35123, Note_off_c, 0, 80, 64
1, 35138, Control_c, 0, 64, 27
1, 35153, Control_c, 0, 64, 8
1, 35167, Control_c, 0, 64, 0
1, 35176, Note_on_c, 0, 84, 94
1, 35185, Note_off_c, 0, 65, 61
1, 35191, Note_on_c, 0, 56, 60
1, 35205, Note_off_c, 0, 82, 65
1, 35292, Note_on_c, 0, 65, 53
1, 35334, Note_off_c, 0, 65, 63
1, 35345, Control_c, 0, 64, 10
1, 35346, Note_on_c, 0, 62, 57
1, 35360, Control_c, 0, 64, 16
1, 35368, Note_off_c, 0, 56, 59
1, 35374, Control_c, 0, 64, 22
1, 35389, Control_c, 0, 64, 27
1, 35404, Control_c, 0, 64, 32
1, 35420, Control_c, 0, 64, 38
1, 35430, Note_off_c, 0, 62, 65
1, 35432, Note_on_c, 0, 65, 60
1, 35435, Control_c, 0, 64, 43
1, 35457, Control_c, 0, 64, 47
1, 35472, Control_c, 0, 64, 50
1, 35486, Control_c, 0, 64, 51
1, 35501, Control_c, 0, 64, 52
1, 35511, Note_off_c, 0, 65, 63
1, 35516, Control_c, 0, 64, 51
1, 35517, Note_on_c, 0, 56, 63
1, 35531, Control_c, 0, 64, 51
1, 35546, Control_c, 0, 64, 49
1, 35561, Control_c, 0, 64, 48
1, 35568, Note_off_c, 0, 56, 61
1, 35576, Control_c, 0, 64, 46
1, 35591, Control_c, 0, 64, 43
1, 35602, Note_on_c, 0, 65, 55
1, 35606, Control_c, 0, 64, 40
1, 35616, Note_off_c, 0, 84, 60
1, 35620, Control_c, 0, 64, 37
1, 35635, Control_c, 0, 64, 33
1, 35640, Note_on_c, 0, 86, 71
1, 35650, Control_c, 0, 64, 31
1, 35655, Note_off_c, 0, 65, 63
1, 35665, Control_c, 0, 64, 28
1, 35674, Note_on_c, 0, 62, 62
1, 35679, Control_c, 0, 64, 26
1, 35686, Note_on_c, 0, 84, 71
1, 35687, Note_off_c, 0, 86, 62
1, 35694, Control_c, 0, 64, 22
1, 35709, Control_c, 0, 64, 15
1, 35724, Control_c, 0, 64, 0
1, 35728, Note_off_c, 0, 84, 64
1, 35729, Note_on_c, 0, 83, 78
1, 35745, Note_off_c, 0, 62, 62
1, 35764, Note_on_c, 0, 65, 57
1, 35785, Note_on_c, 0, 84, 83
1, 35802, Note_off_c, 0, 83, 67
1, 35826, Note_off_c, 0, 65, 60
1, 35830, Note_on_c, 0, 89, 96
1, 35849, Note_on_c, 0, 56, 56
1, 35893, Note_off_c, 0, 56, 63
1, 35896, Note_off_c, 0, 84, 54
1, 35931, Control_c, 0, 64, 10
1, 35945, Control_c, 0, 64, 20
1, 35948, Note_on_c, 0, 65, 53
1, 35960, Control_c, 0, 64, 26
1, 35975, Control_c, 0, 64, 31
1, 35990, Control_c, 0, 64, 38
1, 35999, Note_off_c, 0, 65, 61
1, 36005, Control_c, 0, 64, 44
1, 36017, Note_on_c, 0, 62, 59
1, 36020, Control_c, 0, 64, 49
1, 36035, Control_c, 0, 64, 53
1, 36050, Control_c, 0, 64, 55
1, 36079, Control_c, 0, 64, 54
1, 36094, Note_off_c, 0, 62, 62
1, 36094, Control_c, 0, 64, 52
1, 36102, Note_on_c, 0, 86, 83
1, 36106, Note_on_c, 0, 65, 52
1, 36109, Control_c, 0, 64, 49
1, 36123, Note_off_c, 0, 89, 58
1, 36124, Control_c, 0, 64, 46
1, 36138, Control_c, 0, 64, 44
1, 36153, Control_c, 0, 64, 42
1, 36168, Control_c, 0, 64, 38
1, 36175, Note_off_c, 0, 65, 62
1, 36181, Note_on_c, 0, 84, 87
1, 36183, Control_c, 0, 64, 29
1, 36205, Control_c, 0, 64, 0
1, 36210, Note_on_c, 0, 55, 41
1, 36219, Note_off_c, 0, 86, 64
1, 36267, Note_off_c, 0, 55, 57
1, 36294, Note_on_c, 0, 65, 51
1, 36338, Note_off_c, 0, 65, 65
1, 36339, Control_c, 0, 64, 21
1, 36354, Control_c, 0, 64, 29
1, 36365, Note_on_c, 0, 62, 58
1, 36369, Control_c, 0, 64, 34
1, 36384, Control_c, 0, 64, 39
1, 36399, Control_c, 0, 64, 42
1, 36413, Control_c, 0, 64, 45
1, 36428, Control_c, 0, 64, 46
1, 36430, Note_off_c, 0, 62, 63
1, 36445, Note_on_c, 0, 65, 56
1, 36458, Control_c, 0, 64, 44
1, 36473, Control_c, 0, 64, 39
1, 36488, Control_c, 0, 64, 35
1, 36491, Note_off_c, 0, 65, 61
1, 36492, Note_off_c, 0, 84, 61
1, 36502, Control_c, 0, 64, 34
1, 36515, Note_on_c, 0, 55, 55
1, 36518, Note_on_c, 0, 83, 65
1, 36532, Control_c, 0, 64, 35
1, 36545, Note_off_c, 0, 83, 67
1, 36547, Control_c, 0, 64, 37
1, 36554, Note_off_c, 0, 55, 65
1, 36562, Control_c, 0, 64, 38
1, 36576, Control_c, 0, 64, 40
1, 36589, Note_on_c, 0, 84, 59
1, 36591, Control_c, 0, 64, 41
1, 36606, Control_c, 0, 64, 41
1, 36608, Note_off_c, 0, 84, 64
1, 36609, Note_on_c, 0, 65, 50
1, 36620, Control_c, 0, 64, 42
1, 36625, Note_on_c, 0, 83, 64
1, 36640, Note_off_c, 0, 65, 64
1, 36654, Note_off_c, 0, 83, 65
1, 36670, Note_on_c, 0, 62, 55
1, 36672, Note_on_c, 0, 84, 72
1, 36680, Control_c, 0, 64, 41
1, 36694, Control_c, 0, 64, 41
1, 36702, Note_off_c, 0, 84, 61
1, 36709, Control_c, 0, 64, 40
1, 36712, Note_off_c, 0, 62, 61
1, 36724, Control_c, 0, 64, 38
1, 36727, Note_on_c, 0, 83, 71
1, 36738, Note_on_c, 0, 65, 59
1, 36739, Control_c, 0, 64, 36
1, 36754, Control_c, 0, 64, 35
1, 36757, Note_off_c, 0, 83, 65
1, 36768, Control_c, 0, 64, 34
1, 36782, Note_off_c, 0, 65, 64
1, 36789, Note_on_c, 0, 84, 55
1, 36808, Note_off_c, 0, 84, 62
1, 36813, Note_on_c, 0, 55, 63
1, 36828, Control_c, 0, 64, 35
1, 36832, Note_on_c, 0, 83, 60
1, 36845, Note_off_c, 0, 55, 66
1, 36849, Note_off_c, 0, 83, 69
1, 36870, Note_on_c, 0, 84, 68
1, 36887, Note_off_c, 0, 84, 62
1, 36891, Note_on_c, 0, 65, 55
1, 36917, Control_c, 0, 64, 34
1, 36919, Note_on_c, 0, 83, 62
1, 36928, Note_off_c, 0, 65, 66
1, 36949, Note_off_c, 0, 83, 65
1, 36954, Control_c, 0, 64, 33
1, 36957, Note_on_c, 0, 84, 69
1, 36968, Control_c, 0, 64, 32
1, 36973, Note_on_c, 0, 62, 64
1, 36983, Control_c, 0, 64, 31
1, 36986, Note_off_c, 0, 84, 66
1, 36999, Control_c, 0, 64, 29
1, 37007, Note_on_c, 0, 83, 63
1, 37014, Control_c, 0, 64, 27
1, 37025, Note_off_c, 0, 62, 59
1, 37030, Control_c, 0, 64, 25
1, 37039, Note_off_c, 0, 83, 69
1, 37042, Note_on_c, 0, 81, 82
1, 37044, Control_c, 0, 64, 24
1, 37058, Note_on_c, 0, 65, 50
1, 37059, Control_c, 0, 64, 23
1, 37074, Control_c, 0, 64, 22
1, 37089, Control_c, 0, 64, 20
1, 37091, Note_off_c, 0, 65, 66
1, 37104, Control_c, 0, 64, 18
1, 37105, Note_off_c, 0, 81, 63
1, 37114, Note_on_c, 0, 83, 74
1, 37118, Control_c, 0, 64, 17
1, 37153, Note_on_c, 0, 55, 47
1, 37163, Control_c, 0, 64, 17
1, 37169, Note_on_c, 0, 84, 72
1, 37178, Control_c, 0, 64, 18
1, 37182, Note_off_c, 0, 83, 67
1, 37194, Note_off_c, 0, 55, 65
1, 37213, Note_on_c, 0, 86, 85
1, 37227, Note_on_c, 0, 63, 63
1, 37234, Note_off_c, 0, 84, 64
1, 37263, Note_off_c, 0, 86, 63
1, 37275, Note_on_c, 0, 84, 66
1, 37276, Note_off_c, 0, 63, 61
1, 37305, Note_off_c, 0, 84, 67
1, 37305, Note_on_c, 0, 60, 61
1, 37307, Note_on_c, 0, 83, 75
1, 37358, Note_off_c, 0, 60, 62
1, 37360, Note_off_c, 0, 83, 67
1, 37367, Note_on_c, 0, 84, 88
1, 37373, Note_on_c, 0, 63, 60
1, 37421, Note_on_c, 0, 86, 79
1, 37433, Note_off_c, 0, 63, 64
1, 37445, Note_on_c, 0, 55, 63
1, 37452, Note_off_c, 0, 84, 62
1, 37471, Note_on_c, 0, 87, 94
1, 37474, Control_c, 0, 64, 18
1, 37486, Note_off_c, 0, 86, 65
1, 37489, Control_c, 0, 64, 19
1, 37492, Note_off_c, 0, 55, 65
1, 37505, Note_off_c, 0, 87, 69
1, 37533, Note_on_c, 0, 63, 55
1, 37563, Control_c, 0, 64, 18
1, 37577, Control_c, 0, 64, 17
1, 37592, Control_c, 0, 64, 12
1, 37604, Note_off_c, 0, 63, 65
1, 37607, Control_c, 0, 64, 0
1, 37627, Note_on_c, 0, 60, 58
1, 37703, Note_off_c, 0, 60, 64
1, 37717, Note_on_c, 0, 63, 54
1, 37737, Note_on_c, 0, 86, 81
1, 37785, Note_off_c, 0, 63, 65
1, 37799, Note_off_c, 0, 86, 63
1, 37807, Note_on_c, 0, 54, 63
1, 37809, Note_on_c, 0, 84, 77
1, 37841, Note_off_c, 0, 84, 65
1, 37876, Note_off_c, 0, 54, 58
1, 37904, Note_on_c, 0, 63, 50
1, 37956, Note_off_c, 0, 63, 66
1, 37990, Note_on_c, 0, 60, 42
1, 38041, Note_off_c, 0, 60, 61
1, 38059, Note_on_c, 0, 82, 81
1, 38061, Note_on_c, 0, 63, 47
1, 38084, Note_off_c, 0, 82, 62
1, 38117, Note_off_c, 0, 63, 63
1, 38144, Note_on_c, 0, 82, 78
1, 38151, Note_on_c, 0, 53, 46
1, 38211, Note_off_c, 0, 53, 51
1, 38244, Note_on_c, 0, 63, 36
1, 38277, Note_off_c, 0, 63, 58
1, 38302, Note_on_c, 0, 60, 50
1, 38312, Control_c, 0, 64, 10
1, 38327, Control_c, 0, 64, 18
1, 38341, Control_c, 0, 64, 24
1, 38356, Control_c, 0, 64, 28
1, 38364, Note_off_c, 0, 60, 60
1, 38371, Control_c, 0, 64, 33
1, 38372, Note_on_c, 0, 63, 55
1, 38386, Control_c, 0, 64, 37
1, 38400, Control_c, 0, 64, 41
1, 38415, Control_c, 0, 64, 43
1, 38430, Control_c, 0, 64, 45
1, 38444, Note_off_c, 0, 63, 63
1, 38452, Control_c, 0, 64, 46
1, 38454, Note_off_c, 0, 82, 62
1, 38482, Note_on_c, 0, 53, 52
1, 38482, Note_on_c, 0, 81, 62
1, 38482, Control_c, 0, 64, 45
1, 38501, Note_off_c, 0, 81, 62
1, 38510, Control_c, 0, 64, 44
1, 38540, Control_c, 0, 64, 43
1, 38554, Control_c, 0, 64, 42
1, 38556, Note_off_c, 0, 53, 53
1, 38565, Note_on_c, 0, 63, 45
1, 38568, Note_on_c, 0, 81, 74
1, 38569, Control_c, 0, 64, 41
1, 38584, Control_c, 0, 64, 40
1, 38598, Control_c, 0, 64, 39
1, 38611, Note_off_c, 0, 63, 65
1, 38614, Control_c, 0, 64, 38
1, 38628, Note_on_c, 0, 82, 86
1, 38629, Control_c, 0, 64, 36
1, 38631, Note_off_c, 0, 81, 61
1, 38639, Note_on_c, 0, 60, 52
1, 38644, Control_c, 0, 64, 34
1, 38659, Control_c, 0, 64, 31
1, 38674, Control_c, 0, 64, 27
1, 38684, Note_off_c, 0, 82, 63
1, 38685, Note_on_c, 0, 81, 58
1, 38688, Control_c, 0, 64, 24
1, 38703, Note_off_c, 0, 60, 61
1, 38703, Control_c, 0, 64, 22
1, 38718, Note_off_c, 0, 81, 64
1, 38718, Control_c, 0, 64, 19
1, 38730, Note_on_c, 0, 79, 65
1, 38733, Note_on_c, 0, 63, 47
1, 38733, Control_c, 0, 64, 13
1, 38748, Control_c, 0, 64, 0
1, 38787, Note_on_c, 0, 81, 78
1, 38793, Note_off_c, 0, 79, 62
1, 38801, Note_off_c, 0, 63, 50
1, 38852, Note_on_c, 0, 82, 68
1, 38861, Note_on_c, 0, 55, 38
1, 38863, Note_off_c, 0, 81, 60
1, 38924, Note_off_c, 0, 55, 43
1, 38962, Note_on_c, 0, 62, 39
1, 39022, Note_off_c, 0, 62, 49
1, 39049, Note_on_c, 0, 58, 48
1, 39114, Note_off_c, 0, 58, 55
1, 39118, Control_c, 0, 64, 14
1, 39133, Control_c, 0, 64, 19
1, 39144, Note_on_c, 0, 62, 37
1, 39148, Control_c, 0, 64, 23
1, 39162, Control_c, 0, 64, 25
1, 39177, Control_c, 0, 64, 26
1, 39229, Control_c, 0, 64, 25
1, 39244, Control_c, 0, 64, 24
1, 39259, Control_c, 0, 64, 23
1, 39272, Note_off_c, 0, 82, 63
1, 39274, Control_c, 0, 64, 21
1, 39288, Control_c, 0, 64, 18
1, 39288, Control_c, 0, 67, 9
1, 39303, Control_c, 0, 64, 15
1, 39303, Control_c, 0, 67, 10
1, 39317, Note_on_c, 0, 81, 60
1, 39318, Control_c, 0, 64, 12
1, 39318, Control_c, 0, 67, 11
1, 39319, Note_on_c, 0, 51, 40
1, 39333, Control_c, 0, 64, 8
1, 39333, Control_c, 0, 67, 11
1, 39347, Control_c, 0, 64, 0
1, 39347, Control_c, 0, 67, 12
1, 39351, Note_off_c, 0, 62, 42
1, 39362, Control_c, 0, 67, 12
1, 39412, Note_on_c, 0, 79, 59
1, 39439, Note_off_c, 0, 81, 60
1, 39452, Control_c, 0, 67, 11
1, 39467, Control_c, 0, 67, 10
1, 39482, Control_c, 0, 67, 8
1, 39489, Note_off_c, 0, 79, 61
1, 39492, Note_on_c, 0, 78, 69
1, 39497, Control_c, 0, 67, 0
1, 39541, Control_c, 0, 64, 14
1, 39556, Control_c, 0, 64, 18
1, 39563, Note_off_c, 0, 78, 65
1, 39565, Note_on_c, 0, 79, 69
1, 39571, Control_c, 0, 64, 19
1, 39634, Note_off_c, 0, 51, 63
1, 39635, Note_off_c, 0, 79, 63
1, 39638, Note_on_c, 0, 78, 74
1, 39645, Control_c, 0, 64, 18
1, 39660, Control_c, 0, 64, 15
1, 39675, Control_c, 0, 64, 10
1, 39690, Control_c, 0, 64, 0
1, 39703, Note_on_c, 0, 79, 73
1, 39707, Note_off_c, 0, 78, 65
1, 39775, Note_off_c, 0, 79, 63
1, 39788, Note_on_c, 0, 78, 82
1, 39835, Note_off_c, 0, 78, 65
1, 39870, Note_on_c, 0, 79, 67
1, 39950, Note_off_c, 0, 79, 54
1, 39968, Note_on_c, 0, 82, 79
1, 39989, Note_off_c, 0, 82, 71
1, 40189, Note_on_c, 0, 79, 66
1, 40208, Note_off_c, 0, 79, 66
1, 40423, Note_on_c, 0, 77, 56
1, 40434, Note_on_c, 0, 67, 33
1, 40439, Note_on_c, 0, 63, 30
1, 40466, Note_off_c, 0, 77, 54
1, 40498, Note_on_c, 0, 75, 54
1, 40573, Note_off_c, 0, 75, 62
1, 40587, Note_on_c, 0, 74, 57
1, 40651, Note_off_c, 0, 74, 61
1, 40676, Note_on_c, 0, 75, 63
1, 40718, Note_off_c, 0, 67, 56
1, 40731, Note_off_c, 0, 63, 54
1, 40731, Note_off_c, 0, 75, 62
1, 40751, Note_on_c, 0, 74, 58
1, 40811, Note_off_c, 0, 74, 63
1, 40825, Note_on_c, 0, 75, 60
1, 40884, Note_off_c, 0, 75, 62
1, 40902, Note_on_c, 0, 74, 57
1, 40960, Note_off_c, 0, 74, 63
1, 40994, Note_on_c, 0, 75, 46
1, 41079, Note_off_c, 0, 75, 60
1, 41094, Note_on_c, 0, 79, 55
1, 41120, Note_off_c, 0, 79, 59
1, 41345, Note_on_c, 0, 75, 47
1, 41369, Note_off_c, 0, 75, 58
1, 41569, Note_on_c, 0, 74, 47
1, 41643, Note_off_c, 0, 74, 60
1, 41671, Note_on_c, 0, 72, 44
1, 41712, Note_off_c, 0, 72, 53
1, 41752, Note_on_c, 0, 71, 51
1, 41826, Note_off_c, 0, 71, 65
1, 41827, Note_on_c, 0, 72, 57
1, 41869, Note_off_c, 0, 72, 61
1, 41909, Note_on_c, 0, 74, 61
1, 41989, Note_on_c, 0, 72, 63
1, 42006, Note_off_c, 0, 74, 59
1, 42049, Note_off_c, 0, 72, 63
1, 42080, Note_on_c, 0, 71, 66
1, 42144, Note_off_c, 0, 71, 66
1, 42149, Note_on_c, 0, 72, 75
1, 42188, Note_off_c, 0, 72, 60
1, 42223, Note_on_c, 0, 74, 72
1, 42311, Note_on_c, 0, 72, 78
1, 42334, Note_off_c, 0, 74, 64
1, 42369, Note_off_c, 0, 72, 64
1, 42378, Note_on_c, 0, 71, 64
1, 42456, Note_off_c, 0, 71, 62
1, 42465, Note_on_c, 0, 72, 63
1, 42553, Note_off_c, 0, 72, 59
1, 42578, Note_on_c, 0, 78, 60
1, 42788, Note_off_c, 0, 78, 65
1, 42801, Note_on_c, 0, 79, 59
1, 42844, Note_on_c, 0, 78, 61
1, 42855, Note_off_c, 0, 79, 60
1, 42903, Note_off_c, 0, 78, 66
1, 42906, Note_on_c, 0, 76, 65
1, 42967, Note_on_c, 0, 78, 70
1, 42982, Note_off_c, 0, 76, 65
1, 43338, Note_on_c, 0, 81, 56
1, 43347, Note_off_c, 0, 78, 53
1, 43486, Note_on_c, 0, 79, 53
1, 43541, Note_off_c, 0, 81, 34
1, 43604, Note_on_c, 0, 75, 51
1, 43615, Note_off_c, 0, 79, 56
1, 43705, Note_off_c, 0, 75, 58
1, 43732, Note_on_c, 0, 72, 44
1, 43912, Note_on_c, 0, 70, 47
1, 43913, Note_on_c, 0, 62, 37
1, 43925, Note_on_c, 0, 53, 24
1, 43925, Note_off_c, 0, 72, 36
1, 44123, Control_c, 0, 67, 8
1, 44137, Control_c, 0, 64, 14
1, 44137, Control_c, 0, 67, 9
1, 44152, Control_c, 0, 64, 21
1, 44152, Control_c, 0, 67, 11
1, 44167, Control_c, 0, 64, 26
1, 44167, Control_c, 0, 67, 14
1, 44182, Control_c, 0, 64, 30
1, 44182, Control_c, 0, 67, 19
1, 44197, Control_c, 0, 64, 34
1, 44197, Control_c, 0, 67, 25
1, 44213, Control_c, 0, 64, 39
1, 44213, Control_c, 0, 67, 33
1, 44227, Control_c, 0, 64, 43
1, 44227, Control_c, 0, 67, 43
1, 44242, Control_c, 0, 64, 46
1, 44242, Control_c, 0, 67, 54
1, 44257, Control_c, 0, 64, 49
1, 44257, Control_c, 0, 67, 65
1, 44272, Control_c, 0, 64, 50
1, 44272, Control_c, 0, 67, 76
1, 44280, Note_off_c, 0, 70, 0
1, 44287, Control_c, 0, 67, 89
1, 44301, Control_c, 0, 64, 49
1, 44301, Control_c, 0, 67, 101
1, 44316, Poly_aftertouch_c, 0, 70, 127
1, 44316, Control_c, 0, 64, 48
1, 44316, Control_c, 0, 67, 112
1, 44331, Control_c, 0, 64, 47
1, 44331, Control_c, 0, 67, 120
1, 44346, Control_c, 0, 64, 46
1, 44346, Control_c, 0, 67, 127
1, 44361, Control_c, 0, 64, 46
1, 44375, Control_c, 0, 64, 44
1, 44390, Control_c, 0, 64, 43
1, 44405, Control_c, 0, 64, 42
1, 44409, Poly_aftertouch_c, 0, 70, 0
1, 44420, Control_c, 0, 64, 41
1, 44442, Control_c, 0, 64, 39
1, 44457, Control_c, 0, 64, 38
1, 44462, Note_on_c, 0, 72, 34
1, 44472, Control_c, 0, 64, 36
1, 44486, Control_c, 0, 64, 34
1, 44498, Note_off_c, 0, 72, 53
1, 44501, Control_c, 0, 64, 31
1, 44513, Note_on_c, 0, 70, 53
1, 44516, Control_c, 0, 64, 27
1, 44530, Control_c, 0, 64, 22
1, 44540, Note_off_c, 0, 70, 60
1, 44545, Control_c, 0, 64, 16
1, 44556, Note_off_c, 0, 53, 24
1, 44560, Control_c, 0, 64, 0
1, 44572, Note_on_c, 0, 69, 49
1, 44604, Note_off_c, 0, 69, 57
1, 44632, Note_on_c, 0, 70, 54
1, 44668, Note_off_c, 0, 62, 43
1, 44677, Note_off_c, 0, 70, 58
1, 44695, Note_on_c, 0, 74, 45
1, 44703, Note_on_c, 0, 63, 31
1, 44738, Control_c, 0, 67, 126
1, 44752, Control_c, 0, 67, 124
1, 44767, Control_c, 0, 67, 121
1, 44782, Control_c, 0, 67, 118
1, 44797, Control_c, 0, 67, 112
1, 44812, Control_c, 0, 67, 108
1, 44826, Control_c, 0, 67, 105
1, 44841, Control_c, 0, 67, 103
1, 44856, Control_c, 0, 67, 103
1, 44871, Control_c, 0, 67, 102
1, 44886, Control_c, 0, 67, 102
1, 44889, Note_on_c, 0, 72, 43
1, 44897, Note_off_c, 0, 74, 38
1, 44901, Control_c, 0, 67, 101
1, 44915, Control_c, 0, 67, 100
1, 44930, Control_c, 0, 67, 98
1, 44945, Control_c, 0, 67, 96
1, 44960, Control_c, 0, 67, 93
1, 44975, Control_c, 0, 67, 89
1, 44990, Control_c, 0, 67, 85
1, 45005, Control_c, 0, 67, 79
1, 45009, Note_off_c, 0, 63, 43
1, 45020, Control_c, 0, 67, 71
1, 45035, Control_c, 0, 67, 61
1, 45043, Note_on_c, 0, 58, 43
1, 45049, Note_on_c, 0, 70, 43
1, 45049, Control_c, 0, 67, 50
1, 45052, Note_off_c, 0, 72, 48
1, 45064, Control_c, 0, 67, 38
1, 45076, Note_off_c, 0, 58, 57
1, 45079, Control_c, 0, 67, 25
1, 45094, Control_c, 0, 67, 12
1, 45109, Control_c, 0, 67, 0
1, 45133, Note_on_c, 0, 65, 35
1, 45169, Note_off_c, 0, 65, 56
1, 45207, Note_on_c, 0, 62, 52
1, 45228, Note_off_c, 0, 70, 56
1, 45254, Note_off_c, 0, 62, 62
1, 45281, Note_on_c, 0, 65, 46
1, 45323, Note_off_c, 0, 65, 63
1, 45352, Note_on_c, 0, 58, 61
1, 45407, Note_off_c, 0, 58, 59
1, 45429, Note_on_c, 0, 65, 42
1, 45484, Note_off_c, 0, 65, 56
1, 45505, Note_on_c, 0, 62, 62
1, 45526, Note_on_c, 0, 41, 69
1, 45561, Note_off_c, 0, 41, 65
1, 45562, Note_off_c, 0, 62, 59
1, 45580, Note_on_c, 0, 65, 53
1, 45638, Note_off_c, 0, 65, 60
1, 45680, Note_on_c, 0, 58, 52
1, 45684, Note_on_c, 0, 46, 83
1, 45711, Note_off_c, 0, 46, 67
1, 45728, Note_off_c, 0, 58, 58
1, 45760, Note_on_c, 0, 65, 50
1, 45827, Note_off_c, 0, 65, 59
1, 45849, Note_on_c, 0, 62, 61
1, 45853, Note_on_c, 0, 50, 86
1, 45873, Note_off_c, 0, 50, 71
1, 45953, Note_on_c, 0, 65, 59
1, 45953, Note_off_c, 0, 62, 53
1, 46030, Note_off_c, 0, 65, 64
1, 46039, Note_on_c, 0, 51, 89
1, 46048, Note_on_c, 0, 57, 53
1, 46110, Note_off_c, 0, 57, 55
1, 46131, Control_c, 0, 64, 19
1, 46146, Control_c, 0, 64, 29
1, 46150, Note_on_c, 0, 65, 48
1, 46161, Control_c, 0, 64, 36
1, 46176, Control_c, 0, 64, 43
1, 46191, Control_c, 0, 64, 49
1, 46197, Note_off_c, 0, 65, 63
1, 46206, Control_c, 0, 64, 52
1, 46218, Note_on_c, 0, 60, 60
1, 46221, Control_c, 0, 64, 54
1, 46236, Control_c, 0, 64, 54
1, 46250, Control_c, 0, 64, 54
1, 46261, Note_off_c, 0, 60, 60
1, 46290, Note_off_c, 0, 51, 62
1, 46303, Note_on_c, 0, 65, 58
1, 46325, Control_c, 0, 64, 53
1, 46339, Note_off_c, 0, 65, 66
1, 46339, Control_c, 0, 64, 51
1, 46354, Control_c, 0, 64, 45
1, 46369, Control_c, 0, 64, 31
1, 46373, Note_on_c, 0, 57, 72
1, 46384, Control_c, 0, 64, 0
1, 46419, Note_off_c, 0, 57, 60
1, 46448, Note_on_c, 0, 65, 56
1, 46497, Note_off_c, 0, 65, 58
1, 46525, Note_on_c, 0, 60, 61
1, 46531, Note_on_c, 0, 48, 79
1, 46584, Note_on_c, 0, 45, 75
1, 46589, Note_off_c, 0, 60, 60
1, 46606, Note_off_c, 0, 48, 64
1, 46618, Note_on_c, 0, 65, 56
1, 46656, Note_off_c, 0, 65, 66
1, 46658, Note_off_c, 0, 45, 64
1, 46665, Note_on_c, 0, 41, 84
1, 46682, Note_on_c, 0, 57, 62
1, 46715, Note_off_c, 0, 41, 64
1, 46725, Note_off_c, 0, 57, 62
1, 46771, Note_on_c, 0, 65, 51
1, 46814, Note_off_c, 0, 65, 55
1, 46843, Note_on_c, 0, 60, 60
1, 46847, Note_on_c, 0, 39, 76
1, 46872, Note_off_c, 0, 39, 69
1, 46888, Note_off_c, 0, 60, 63
1, 46931, Note_on_c, 0, 65, 49
1, 46987, Note_off_c, 0, 65, 59
1, 47025, Note_on_c, 0, 58, 57
1, 47026, Note_on_c, 0, 38, 85
1, 47068, Note_off_c, 0, 58, 63
1, 47118, Control_c, 0, 64, 17
1, 47124, Note_on_c, 0, 65, 53
1, 47133, Control_c, 0, 64, 29
1, 47147, Control_c, 0, 64, 37
1, 47162, Control_c, 0, 64, 43
1, 47168, Note_off_c, 0, 65, 63
1, 47177, Control_c, 0, 64, 49
1, 47192, Note_off_c, 0, 38, 60
1, 47192, Control_c, 0, 64, 52
1, 47198, Note_on_c, 0, 62, 61
1, 47207, Control_c, 0, 64, 54
1, 47221, Control_c, 0, 64, 55
1, 47236, Control_c, 0, 64, 56
1, 47261, Note_off_c, 0, 62, 60
1, 47273, Note_on_c, 0, 65, 62
1, 47281, Control_c, 0, 64, 55
1, 47295, Control_c, 0, 64, 51
1, 47310, Control_c, 0, 64, 40
1, 47320, Note_off_c, 0, 65, 62
1, 47325, Control_c, 0, 64, 0
1, 47336, Note_on_c, 0, 58, 71
1, 47380, Note_off_c, 0, 58, 64
1, 47438, Note_on_c, 0, 65, 66
1, 47489, Note_off_c, 0, 65, 60
1, 47502, Note_on_c, 0, 77, 79
1, 47526, Note_on_c, 0, 62, 55
1, 47543, Note_off_c, 0, 77, 63
1, 47572, Note_off_c, 0, 62, 61
1, 47603, Note_on_c, 0, 65, 47
1, 47636, Note_off_c, 0, 65, 60
1, 47656, Note_on_c, 0, 58, 60
1, 47666, Note_on_c, 0, 82, 91
1, 47697, Note_off_c, 0, 58, 63
1, 47708, Note_off_c, 0, 82, 65
1, 47735, Note_on_c, 0, 65, 54
1, 47812, Note_off_c, 0, 65, 60
1, 47819, Note_on_c, 0, 86, 91
1, 47836, Note_on_c, 0, 62, 54
1, 47860, Note_off_c, 0, 86, 63
1, 47913, Note_off_c, 0, 62, 61
1, 47936, Note_on_c, 0, 65, 38
1, 47969, Note_off_c, 0, 65, 59
1, 47972, Note_on_c, 0, 77, 71
1, 47980, Note_on_c, 0, 81, 59
1, 47986, Note_on_c, 0, 57, 58
1, 48009, Note_on_c, 0, 84, 72
1, 48016, Note_on_c, 0, 87, 94
1, 48033, Note_off_c, 0, 57, 57
1, 48045, Control_c, 0, 64, 18
1, 48054, Note_off_c, 0, 77, 64
1, 48060, Control_c, 0, 64, 33
1, 48069, Note_off_c, 0, 81, 62
1, 48069, Note_on_c, 0, 65, 50
1, 48075, Control_c, 0, 64, 44
1, 48080, Note_off_c, 0, 84, 64
1, 48090, Control_c, 0, 64, 53
1, 48104, Control_c, 0, 64, 58
1, 48119, Control_c, 0, 64, 59
1, 48122, Note_off_c, 0, 65, 61
1, 48148, Note_on_c, 0, 60, 50
1, 48164, Control_c, 0, 64, 59
1, 48185, Control_c, 0, 64, 58
1, 48197, Note_off_c, 0, 60, 63
1, 48201, Control_c, 0, 64, 57
1, 48216, Control_c, 0, 64, 55
1, 48231, Control_c, 0, 64, 53
1, 48246, Note_on_c, 0, 65, 52
1, 48246, Control_c, 0, 64, 50
1, 48261, Control_c, 0, 64, 48
1, 48275, Control_c, 0, 64, 44
1, 48277, Note_off_c, 0, 65, 56
1, 48290, Control_c, 0, 64, 41
1, 48305, Control_c, 0, 64, 36
1, 48313, Note_on_c, 0, 57, 54
1, 48320, Control_c, 0, 64, 29
1, 48334, Control_c, 0, 64, 20
1, 48349, Note_off_c, 0, 57, 61
1, 48349, Control_c, 0, 64, 0
1, 48389, Note_on_c, 0, 65, 47
1, 48453, Note_off_c, 0, 65, 63
1, 48453, Note_off_c, 0, 87, 64
1, 48477, Note_on_c, 0, 60, 49
1, 48492, Note_on_c, 0, 84, 63
1, 48520, Note_off_c, 0, 60, 62
1, 48541, Note_off_c, 0, 84, 61
1, 48554, Note_on_c, 0, 81, 64
1, 48579, Note_on_c, 0, 65, 37
1, 48593, Note_off_c, 0, 81, 63
1, 48608, Note_off_c, 0, 65, 58
1, 48623, Note_on_c, 0, 77, 68
1, 48627, Note_on_c, 0, 57, 46
1, 48650, Note_off_c, 0, 77, 67
1, 48662, Note_off_c, 0, 57, 62
1, 48706, Note_on_c, 0, 65, 45
1, 48770, Note_off_c, 0, 65, 62
1, 48787, Note_on_c, 0, 75, 61
1, 48790, Note_on_c, 0, 60, 44
1, 48811, Note_off_c, 0, 75, 59
1, 48831, Note_off_c, 0, 60, 51
1, 48898, Note_on_c, 0, 65, 32
1, 48939, Note_off_c, 0, 65, 53
1, 48962, Note_on_c, 0, 58, 46
1, 48962, Note_on_c, 0, 74, 51
1, 48996, Note_off_c, 0, 58, 59
1, 49038, Note_on_c, 0, 65, 44
1, 49038, Control_c, 0, 64, 9
1, 49053, Control_c, 0, 64, 23
1, 49068, Control_c, 0, 64, 32
1, 49083, Control_c, 0, 64, 40
1, 49089, Note_off_c, 0, 65, 64
1, 49097, Control_c, 0, 64, 46
1, 49112, Control_c, 0, 64, 50
1, 49118, Note_on_c, 0, 62, 48
1, 49124, Note_off_c, 0, 74, 64
1, 49127, Control_c, 0, 64, 52
1, 49142, Control_c, 0, 64, 53
1, 49157, Control_c, 0, 64, 54
1, 49168, Note_off_c, 0, 62, 63
1, 49172, Control_c, 0, 64, 53
1, 49187, Control_c, 0, 64, 51
1, 49192, Note_on_c, 0, 65, 57
1, 49202, Control_c, 0, 64, 48
1, 49216, Control_c, 0, 64, 43
1, 49225, Note_off_c, 0, 65, 61
1, 49231, Control_c, 0, 64, 35
1, 49246, Control_c, 0, 64, 23
1, 49256, Note_on_c, 0, 58, 69
1, 49261, Control_c, 0, 64, 0
1, 49314, Note_off_c, 0, 58, 59
1, 49321, Note_on_c, 0, 65, 65
1, 49386, Note_off_c, 0, 65, 64
1, 49411, Note_on_c, 0, 62, 68
1, 49413, Note_on_c, 0, 41, 75
1, 49453, Note_off_c, 0, 41, 62
1, 49480, Note_off_c, 0, 62, 63
1, 49481, Note_on_c, 0, 65, 65
1, 49542, Note_off_c, 0, 65, 65
1, 49569, Note_on_c, 0, 58, 66
1, 49576, Note_on_c, 0, 46, 94
1, 49607, Note_off_c, 0, 46, 62
1, 49628, Note_off_c, 0, 58, 62
1, 49649, Note_on_c, 0, 65, 61
1, 49730, Note_off_c, 0, 65, 63
1, 49744, Note_on_c, 0, 62, 71
1, 49747, Note_on_c, 0, 50, 93
1, 49780, Note_off_c, 0, 50, 65
1, 49822, Note_on_c, 0, 65, 69
1, 49839, Note_off_c, 0, 62, 57
1, 49918, Note_off_c, 0, 65, 64
1, 49924, Note_on_c, 0, 57, 75
1, 49925, Note_on_c, 0, 51, 97
1, 49974, Note_off_c, 0, 51, 65
1, 49990, Note_off_c, 0, 57, 62
1, 50003, Note_on_c, 0, 65, 62
1, 50079, Note_off_c, 0, 65, 64
1, 50083, Note_on_c, 0, 60, 66
1, 50175, Note_on_c, 0, 65, 64
1, 50179, Note_off_c, 0, 60, 62
1, 50202, Note_on_c, 0, 51, 74
1, 50235, Note_on_c, 0, 48, 72
1, 50254, Note_off_c, 0, 65, 64
1, 50256, Note_on_c, 0, 45, 85
1, 50257, Note_on_c, 0, 57, 69
1, 50280, Note_off_c, 0, 51, 64
1, 50298, Note_off_c, 0, 48, 66
1, 50310, Note_off_c, 0, 45, 66
1, 50328, Note_off_c, 0, 57, 61
1, 50334, Note_on_c, 0, 65, 61
1, 50411, Note_off_c, 0, 65, 65
1, 50424, Note_on_c, 0, 60, 68
1, 50519, Note_on_c, 0, 65, 64
1, 50527, Note_off_c, 0, 60, 63
1, 50538, Note_on_c, 0, 48, 75
1, 50555, Note_on_c, 0, 45, 75
1, 50586, Note_on_c, 0, 41, 84
1, 50588, Note_on_c, 0, 57, 70
1, 50589, Note_off_c, 0, 65, 65
1, 50609, Note_off_c, 0, 48, 63
1, 50615, Note_off_c, 0, 45, 64
1, 50637, Note_off_c, 0, 41, 62
1, 50659, Note_off_c, 0, 57, 61
1, 50679, Note_on_c, 0, 65, 64
1, 50749, Note_off_c, 0, 65, 65
1, 50760, Note_on_c, 0, 60, 66
1, 50761, Note_on_c, 0, 39, 86
1, 50798, Note_off_c, 0, 39, 65
1, 50845, Note_off_c, 0, 60, 61
1, 50860, Note_on_c, 0, 65, 62
1, 50928, Note_off_c, 0, 65, 64
1, 50939, Note_on_c, 0, 38, 88
1, 50947, Note_on_c, 0, 58, 71
1, 50966, Control_c, 0, 64, 27
1, 50975, Note_off_c, 0, 38, 63
1, 50981, Control_c, 0, 64, 37
1, 50996, Control_c, 0, 64, 47
1, 51011, Control_c, 0, 64, 54
1, 51011, Note_off_c, 0, 58, 62
1, 51026, Control_c, 0, 64, 59
1, 51041, Control_c, 0, 64, 61
1, 51042, Note_on_c, 0, 65, 69
1, 51056, Control_c, 0, 64, 61
1, 51085, Control_c, 0, 64, 61
1, 51100, Control_c, 0, 64, 60
1, 51112, Note_off_c, 0, 65, 61
1, 51115, Note_on_c, 0, 62, 72
1, 51144, Control_c, 0, 64, 60
1, 51159, Control_c, 0, 64, 59
1, 51181, Control_c, 0, 64, 58
1, 51196, Control_c, 0, 64, 55
1, 51199, Note_off_c, 0, 62, 63
1, 51208, Note_on_c, 0, 65, 73
1, 51211, Control_c, 0, 64, 48
1, 51224, Control_c, 0, 64, 30
1, 51239, Control_c, 0, 64, 0
1, 51259, Note_off_c, 0, 65, 64
1, 51268, Note_on_c, 0, 58, 70
1, 51321, Note_off_c, 0, 58, 61
1, 51329, Note_on_c, 0, 77, 82
1, 51338, Note_on_c, 0, 65, 68
1, 51398, Note_on_c, 0, 82, 92
1, 51407, Note_off_c, 0, 65, 64
1, 51417, Note_off_c, 0, 77, 59
1, 51420, Note_on_c, 0, 62, 66
1, 51478, Note_on_c, 0, 86, 87
1, 51484, Note_off_c, 0, 82, 69
1, 51491, Note_off_c, 0, 62, 63
1, 51498, Note_on_c, 0, 65, 69
1, 51544, Note_on_c, 0, 89, 102
1, 51550, Note_off_c, 0, 86, 62
1, 51556, Note_off_c, 0, 65, 63
1, 51558, Note_on_c, 0, 58, 74
1, 51577, Note_off_c, 0, 89, 68
1, 51621, Note_off_c, 0, 58, 63
1, 51652, Note_on_c, 0, 65, 66
1, 51713, Note_on_c, 0, 89, 102
1, 51713, Note_off_c, 0, 65, 64
1, 51717, Note_on_c, 0, 62, 70
1, 51750, Note_off_c, 0, 89, 63
1, 51804, Note_on_c, 0, 65, 65
1, 51810, Note_off_c, 0, 62, 61
1, 51893, Note_on_c, 0, 57, 79
1, 51896, Note_on_c, 0, 87, 85
1, 51900, Note_off_c, 0, 65, 62
1, 51980, Note_on_c, 0, 89, 84
1, 51987, Note_off_c, 0, 87, 66
1, 51988, Control_c, 0, 64, 13
1, 52003, Control_c, 0, 64, 22
1, 52017, Control_c, 0, 64, 28
1, 52032, Control_c, 0, 64, 33
1, 52047, Control_c, 0, 64, 38
1, 52054, Note_on_c, 0, 87, 81
1, 52061, Control_c, 0, 64, 42
1, 52076, Control_c, 0, 64, 45
1, 52089, Note_off_c, 0, 89, 64
1, 52091, Control_c, 0, 64, 46
1, 52106, Control_c, 0, 64, 45
1, 52121, Control_c, 0, 64, 42
1, 52131, Note_on_c, 0, 86, 84
1, 52136, Control_c, 0, 64, 39
1, 52140, Note_off_c, 0, 87, 65
1, 52150, Control_c, 0, 64, 39
1, 52180, Control_c, 0, 64, 38
1, 52192, Note_off_c, 0, 86, 62
1, 52196, Control_c, 0, 64, 37
1, 52199, Note_on_c, 0, 84, 81
1, 52211, Control_c, 0, 64, 35
1, 52226, Control_c, 0, 64, 33
1, 52239, Note_off_c, 0, 57, 58
1, 52241, Control_c, 0, 64, 32
1, 52255, Control_c, 0, 64, 31
1, 52270, Control_c, 0, 64, 30
1, 52272, Note_on_c, 0, 82, 86
1, 52280, Note_off_c, 0, 84, 63
1, 52285, Control_c, 0, 64, 27
1, 52299, Control_c, 0, 64, 23
1, 52314, Control_c, 0, 64, 18
1, 52329, Control_c, 0, 64, 10
1, 52344, Control_c, 0, 64, 0
1, 52346, Note_on_c, 0, 81, 83
1, 52409, Note_off_c, 0, 82, 63
1, 52416, Note_on_c, 0, 79, 85
1, 52428, Note_off_c, 0, 81, 65
1, 52487, Note_off_c, 0, 79, 62
1, 52487, Note_on_c, 0, 77, 88
1, 52550, Note_on_c, 0, 75, 85
1, 52550, Note_off_c, 0, 77, 59
1, 52623, Note_on_c, 0, 74, 85
1, 52627, Note_off_c, 0, 75, 62
1, 52685, Note_off_c, 0, 74, 66
1, 52691, Note_on_c, 0, 72, 81
1, 52764, Note_on_c, 0, 58, 83
1, 52772, Note_on_c, 0, 70, 84
1, 52780, Note_off_c, 0, 72, 64
1, 52798, Note_off_c, 0, 70, 65
1, 52930, Note_on_c, 0, 86, 96
1, 52938, Note_off_c, 0, 58, 59
1, 52974, Note_on_c, 0, 83, 37
1, 52974, Note_off_c, 0, 86, 66
1, 53004, Note_off_c, 0, 83, 35
1, 53086, Note_on_c, 0, 65, 80
1, 53247, Note_off_c, 0, 65, 67
1, 53249, Note_on_c, 0, 84, 85
1, 53256, Note_on_c, 0, 81, 80
1, 53292, Note_off_c, 0, 81, 65
1, 53292, Note_off_c, 0, 84, 67
1, 53400, Note_on_c, 0, 67, 78
1, 53547, Note_off_c, 0, 67, 64
1, 53569, Note_on_c, 0, 82, 83
1, 53574, Note_on_c, 0, 79, 76
1, 53606, Note_off_c, 0, 79, 62
1, 53618, Note_off_c, 0, 82, 66
1, 53718, Note_on_c, 0, 62, 72
1, 53876, Note_off_c, 0, 62, 64
1, 53888, Note_on_c, 0, 80, 79
1, 53892, Note_on_c, 0, 77, 74
1, 53920, Note_off_c, 0, 77, 65
1, 53927, Note_off_c, 0, 80, 62
1, 54046, Note_on_c, 0, 63, 67
1, 54196, Note_off_c, 0, 63, 64
1, 54207, Note_on_c, 0, 79, 68
1, 54215, Note_on_c, 0, 75, 55
1, 54240, Note_off_c, 0, 75, 64
1, 54240, Note_off_c, 0, 79, 63
1, 54387, Note_on_c, 0, 67, 44
1, 54400, Note_on_c, 0, 71, 37
1, 54534, Note_off_c, 0, 67, 61
1, 54551, Note_off_c, 0, 71, 57
1, 54552, Note_on_c, 0, 77, 58
1, 54557, Note_on_c, 0, 74, 44
1, 54605, Note_off_c, 0, 74, 62
1, 54619, Note_off_c, 0, 77, 61
1, 54744, Note_on_c, 0, 68, 45
1, 54988, Note_on_c, 0, 75, 33
1, 54992, Note_on_c, 0, 72, 28
1, 55057, Control_c, 0, 64, 15
1, 55072, Control_c, 0, 64, 24
1, 55086, Control_c, 0, 64, 31
1, 55101, Control_c, 0, 64, 38
1, 55116, Control_c, 0, 64, 44
1, 55116, Control_c, 0, 67, 8
1, 55131, Control_c, 0, 64, 49
1, 55131, Control_c, 0, 67, 8
1, 55146, Control_c, 0, 64, 52
1, 55146, Control_c, 0, 67, 10
1, 55161, Control_c, 0, 64, 54
1, 55161, Control_c, 0, 67, 11
1, 55175, Control_c, 0, 64, 55
1, 55175, Control_c, 0, 67, 13
1, 55190, Control_c, 0, 67, 15
1, 55205, Control_c, 0, 67, 17
1, 55220, Control_c, 0, 67, 20
1, 55229, Note_off_c, 0, 68, 30
1, 55235, Control_c, 0, 64, 54
1, 55235, Control_c, 0, 67, 24
1, 55250, Control_c, 0, 67, 28
1, 55265, Control_c, 0, 64, 54
1, 55265, Control_c, 0, 67, 32
1, 55280, Control_c, 0, 64, 53
1, 55280, Control_c, 0, 67, 36
1, 55286, Note_off_c, 0, 75, 38
1, 55294, Control_c, 0, 64, 52
1, 55294, Control_c, 0, 67, 40
1, 55309, Control_c, 0, 64, 52
1, 55309, Control_c, 0, 67, 44
1, 55313, Note_off_c, 0, 72, 36
1, 55324, Control_c, 0, 64, 51
1, 55324, Control_c, 0, 67, 49
1, 55339, Control_c, 0, 64, 50
1, 55339, Control_c, 0, 67, 55
1, 55354, Control_c, 0, 64, 49
1, 55354, Control_c, 0, 67, 60
1, 55368, Control_c, 0, 64, 47
1, 55368, Control_c, 0, 67, 65
1, 55384, Control_c, 0, 64, 46
1, 55384, Control_c, 0, 67, 69
1, 55399, Control_c, 0, 67, 73
1, 55414, Control_c, 0, 67, 75
1, 55429, Control_c, 0, 64, 46
1, 55429, Control_c, 0, 67, 77
1, 55444, Control_c, 0, 64, 45
1, 55444, Control_c, 0, 67, 79
1, 55458, Control_c, 0, 64, 44
1, 55458, Control_c, 0, 67, 79
1, 55473, Control_c, 0, 64, 42
1, 55473, Control_c, 0, 67, 81
1, 55488, Control_c, 0, 64, 39
1, 55488, Control_c, 0, 67, 82
1, 55503, Control_c, 0, 64, 35
1, 55517, Control_c, 0, 64, 31
1, 55517, Control_c, 0, 67, 82
1, 55532, Control_c, 0, 64, 27
1, 55547, Control_c, 0, 64, 24
1, 55547, Control_c, 0, 67, 83
1, 55562, Control_c, 0, 64, 22
1, 55577, Control_c, 0, 64, 17
1, 55591, Control_c, 0, 64, 9
1, 55606, Control_c, 0, 64, 0
1, 55806, Control_c, 0, 67, 82
1, 55851, Control_c, 0, 67, 82
1, 55880, Control_c, 0, 67, 81
1, 55909, Control_c, 0, 67, 81
1, 55924, Control_c, 0, 67, 80
1, 55939, Control_c, 0, 67, 80
1, 55954, Control_c, 0, 67, 79
1, 56013, Control_c, 0, 67, 79
1, 56043, Control_c, 0, 67, 78
1, 56073, Control_c, 0, 67, 78
1, 56132, Control_c, 0, 67, 77
1, 56162, Control_c, 0, 67, 77
1, 56222, Control_c, 0, 67, 76
1, 56340, Control_c, 0, 67, 76
1, 56355, Control_c, 0, 67, 75
1, 56421, Control_c, 0, 67, 75
1, 56451, Control_c, 0, 64, 9
1, 56451, Control_c, 0, 67, 74
1, 56466, Control_c, 0, 64, 13
1, 56481, Control_c, 0, 64, 16
1, 56490, Note_on_c, 0, 75, 27
1, 56496, Control_c, 0, 64, 18
1, 56496, Control_c, 0, 67, 74
1, 56508, Note_on_c, 0, 72, 14
1, 56511, Control_c, 0, 64, 20
1, 56526, Control_c, 0, 64, 21
1, 56538, Note_off_c, 0, 75, 46
1, 56540, Control_c, 0, 64, 22
1, 56555, Control_c, 0, 64, 23
1, 56557, Note_off_c, 0, 72, 48
1, 56570, Control_c, 0, 64, 23
1, 56585, Control_c, 0, 64, 24
1, 56600, Control_c, 0, 67, 73
1, 56614, Control_c, 0, 64, 24
1, 56629, Control_c, 0, 64, 25
1, 56644, Control_c, 0, 64, 25
1, 56658, Control_c, 0, 64, 26
1, 56668, Note_on_c, 0, 75, 37
1, 56671, Note_on_c, 0, 72, 40
1, 56673, Control_c, 0, 64, 26
1, 56688, Control_c, 0, 64, 27
1, 56703, Control_c, 0, 64, 27
1, 56718, Control_c, 0, 64, 28
1, 56725, Note_off_c, 0, 75, 56
1, 56732, Control_c, 0, 64, 30
1, 56735, Note_off_c, 0, 72, 44
1, 56747, Control_c, 0, 64, 31
1, 56762, Control_c, 0, 64, 32
1, 56777, Control_c, 0, 64, 33
1, 56792, Control_c, 0, 64, 33
1, 56792, Control_c, 0, 67, 73
1, 56806, Control_c, 0, 64, 34
1, 56821, Control_c, 0, 64, 35
1, 56836, Control_c, 0, 64, 36
1, 56847, Note_on_c, 0, 72, 46
1, 56851, Note_on_c, 0, 75, 46
1, 56851, Control_c, 0, 64, 36
1, 56865, Control_c, 0, 64, 37
1, 56888, Note_off_c, 0, 75, 54
1, 56892, Note_off_c, 0, 72, 47
1, 56895, Control_c, 0, 64, 37
1, 57015, Control_c, 0, 64, 37
1, 57044, Control_c, 0, 64, 36
1, 57045, Note_on_c, 0, 72, 42
1, 57047, Note_on_c, 0, 75, 43
1, 57185, Control_c, 0, 64, 37
1, 57231, Control_c, 0, 64, 37
1, 57260, Control_c, 0, 64, 38
1, 57289, Control_c, 0, 64, 39
1, 57304, Control_c, 0, 64, 39
1, 57319, Control_c, 0, 64, 40
1, 57334, Control_c, 0, 64, 40
1, 57349, Control_c, 0, 64, 41
1, 57378, Control_c, 0, 64, 41
1, 57393, Control_c, 0, 64, 42
1, 57482, Control_c, 0, 64, 42
1, 57556, Control_c, 0, 64, 43
1, 57601, Control_c, 0, 64, 43
1, 57604, Note_on_c, 0, 68, 32
1, 57641, Note_off_c, 0, 68, 48
1, 57777, Note_on_c, 0, 68, 32
1, 57853, Note_off_c, 0, 68, 39
1, 57969, Note_on_c, 0, 68, 47
1, 57980, Control_c, 0, 64, 43
1, 58010, Note_off_c, 0, 68, 49
1, 58024, Control_c, 0, 64, 42
1, 58054, Control_c, 0, 64, 42
1, 58068, Control_c, 0, 64, 41
1, 58098, Control_c, 0, 64, 41
1, 58112, Control_c, 0, 64, 40
1, 58142, Control_c, 0, 64, 40
1, 58162, Note_on_c, 0, 68, 45
1, 58285, Note_off_c, 0, 72, 35
1, 58290, Control_c, 0, 64, 40
1, 58323, Note_off_c, 0, 75, 37
1, 58394, Control_c, 0, 64, 41
1, 58424, Control_c, 0, 64, 41
1, 58453, Control_c, 0, 64, 42
1, 58483, Control_c, 0, 64, 42
1, 58527, Control_c, 0, 64, 43
1, 58684, Control_c, 0, 64, 43
1, 58741, Note_on_c, 0, 75, 43
1, 58758, Note_on_c, 0, 72, 28
1, 58774, Note_off_c, 0, 75, 56
1, 58794, Note_off_c, 0, 72, 47
1, 58891, Control_c, 0, 64, 43
1, 58908, Note_on_c, 0, 72, 46
1, 58910, Note_on_c, 0, 75, 57
1, 58921, Control_c, 0, 64, 42
1, 58935, Control_c, 0, 67, 72
1, 58949, Note_off_c, 0, 75, 60
1, 58950, Control_c, 0, 64, 42
1, 58950, Control_c, 0, 67, 72
1, 58956, Note_off_c, 0, 72, 45
1, 58965, Control_c, 0, 67, 71
1, 58980, Control_c, 0, 64, 41
1, 58980, Control_c, 0, 67, 70
1, 58995, Control_c, 0, 67, 70
1, 59009, Control_c, 0, 64, 41
1, 59009, Control_c, 0, 67, 69
1, 59024, Control_c, 0, 67, 68
1, 59039, Control_c, 0, 67, 67
1, 59053, Control_c, 0, 67, 64
1, 59068, Control_c, 0, 67, 60
1, 59080, Note_on_c, 0, 75, 63
1, 59083, Control_c, 0, 67, 55
1, 59091, Note_on_c, 0, 72, 52
1, 59098, Control_c, 0, 67, 51
1, 59113, Control_c, 0, 67, 48
1, 59128, Control_c, 0, 67, 47
1, 59134, Note_off_c, 0, 75, 60
1, 59135, Note_off_c, 0, 72, 55
1, 59143, Control_c, 0, 67, 46
1, 59158, Control_c, 0, 64, 41
1, 59158, Control_c, 0, 67, 45
1, 59173, Control_c, 0, 67, 45
1, 59188, Control_c, 0, 67, 44
1, 59202, Control_c, 0, 67, 42
1, 59217, Control_c, 0, 67, 40
1, 59232, Control_c, 0, 64, 42
1, 59232, Control_c, 0, 67, 37
1, 59247, Control_c, 0, 67, 35
1, 59261, Control_c, 0, 67, 32
1, 59274, Note_on_c, 0, 75, 60
1, 59276, Control_c, 0, 64, 42
1, 59276, Control_c, 0, 67, 30
1, 59282, Note_off_c, 0, 68, 41
1, 59290, Note_on_c, 0, 72, 47
1, 59291, Control_c, 0, 67, 27
1, 59306, Control_c, 0, 64, 43
1, 59306, Control_c, 0, 67, 24
1, 59321, Control_c, 0, 67, 21
1, 59335, Control_c, 0, 67, 18
1, 59350, Control_c, 0, 64, 43
1, 59350, Control_c, 0, 67, 15
1, 59365, Control_c, 0, 67, 13
1, 59381, Control_c, 0, 67, 10
1, 59396, Control_c, 0, 67, 0
1, 59639, Control_c, 0, 64, 43
1, 59669, Control_c, 0, 64, 42
1, 59698, Control_c, 0, 64, 42
1, 59713, Control_c, 0, 64, 41
1, 59728, Control_c, 0, 64, 41
1, 59743, Control_c, 0, 64, 40
1, 59772, Control_c, 0, 64, 40
1, 59787, Control_c, 0, 64, 39
1, 59810, Note_on_c, 0, 56, 55
1, 59817, Control_c, 0, 64, 39
1, 59831, Control_c, 0, 64, 38
1, 59840, Note_off_c, 0, 56, 67
1, 59846, Control_c, 0, 64, 38
1, 59861, Control_c, 0, 64, 37
1, 59876, Control_c, 0, 64, 36
1, 59891, Control_c, 0, 64, 36
1, 59906, Control_c, 0, 64, 35
1, 59936, Control_c, 0, 64, 34
1, 59950, Control_c, 0, 64, 34
1, 59965, Control_c, 0, 64, 33
1, 59975, Note_on_c, 0, 56, 65
1, 59980, Control_c, 0, 64, 32
1, 60009, Note_off_c, 0, 56, 66
1, 60039, Control_c, 0, 64, 31
1, 60069, Control_c, 0, 64, 31
1, 60083, Control_c, 0, 64, 30
1, 60098, Control_c, 0, 64, 30
1, 60113, Control_c, 0, 64, 29
1, 60128, Control_c, 0, 64, 28
1, 60142, Note_on_c, 0, 56, 74
1, 60143, Control_c, 0, 64, 28
1, 60180, Control_c, 0, 64, 27
1, 60189, Note_off_c, 0, 56, 66
1, 60255, Control_c, 0, 64, 27
1, 60270, Control_c, 0, 64, 26
1, 60285, Control_c, 0, 64, 26
1, 60299, Control_c, 0, 64, 25
1, 60314, Control_c, 0, 64, 24
1, 60329, Control_c, 0, 64, 23
1, 60335, Note_on_c, 0, 56, 83
1, 60344, Control_c, 0, 64, 21
1, 60359, Control_c, 0, 64, 17
1, 60374, Control_c, 0, 64, 12
1, 60388, Control_c, 0, 64, 0
1, 60655, Note_on_c, 0, 55, 86
1, 60660, Note_off_c, 0, 56, 61
1, 60697, Note_off_c, 0, 72, 63
1, 60714, Control_c, 0, 64, 11
1, 60717, Note_off_c, 0, 75, 62
1, 60729, Control_c, 0, 64, 24
1, 60744, Control_c, 0, 64, 33
1, 60759, Control_c, 0, 64, 40
1, 60773, Control_c, 0, 64, 47
1, 60788, Control_c, 0, 64, 52
1, 60803, Control_c, 0, 64, 56
1, 60818, Control_c, 0, 64, 57
1, 60832, Control_c, 0, 64, 58
1, 60862, Control_c, 0, 64, 57
1, 60892, Control_c, 0, 64, 56
1, 60914, Control_c, 0, 64, 53
1, 60928, Control_c, 0, 64, 45
1, 60943, Control_c, 0, 64, 32
1, 60959, Control_c, 0, 64, 0
1, 60990, Control_c, 0, 64, 12
1, 60997, Note_on_c, 0, 54, 86
1, 60999, Note_on_c, 0, 76, 91
1, 61004, Control_c, 0, 64, 27
1, 61006, Note_on_c, 0, 73, 77
1, 61008, Note_on_c, 0, 70, 79
1, 61015, Note_off_c, 0, 55, 64
1, 61019, Control_c, 0, 64, 38
1, 61032, Note_off_c, 0, 70, 66
1, 61034, Control_c, 0, 64, 50
1, 61038, Note_off_c, 0, 73, 62
1, 61049, Control_c, 0, 64, 59
1, 61051, Note_off_c, 0, 76, 68
1, 61063, Control_c, 0, 64, 64
1, 61078, Control_c, 0, 64, 67
1, 61093, Control_c, 0, 64, 68
1, 61123, Control_c, 0, 64, 68
1, 61137, Control_c, 0, 64, 67
1, 61152, Control_c, 0, 64, 67
1, 61167, Control_c, 0, 64, 66
1, 61182, Control_c, 0, 64, 66
1, 61197, Control_c, 0, 64, 65
1, 61218, Note_off_c, 0, 54, 58
1, 61221, Note_on_c, 0, 53, 65
1, 61227, Control_c, 0, 64, 65
1, 61256, Control_c, 0, 64, 64
1, 61271, Control_c, 0, 64, 63
1, 61285, Note_on_c, 0, 65, 60
1, 61286, Control_c, 0, 64, 61
1, 61301, Control_c, 0, 64, 59
1, 61316, Control_c, 0, 64, 53
1, 61322, Note_on_c, 0, 58, 81
1, 61322, Note_on_c, 0, 70, 82
1, 61327, Note_on_c, 0, 74, 81
1, 61330, Control_c, 0, 64, 40
1, 61331, Note_on_c, 0, 62, 86
1, 61333, Note_on_c, 0, 77, 95
1, 61345, Control_c, 0, 64, 0
1, 61372, Note_off_c, 0, 65, 66
1, 61508, Control_c, 0, 64, 24
1, 61522, Control_c, 0, 64, 33
1, 61537, Control_c, 0, 64, 42
1, 61552, Control_c, 0, 64, 52
1, 61567, Control_c, 0, 64, 61
1, 61581, Control_c, 0, 64, 69
1, 61596, Control_c, 0, 64, 83
1, 61603, Note_off_c, 0, 74, 63
1, 61607, Note_off_c, 0, 70, 62
1, 61611, Control_c, 0, 64, 94
1, 61626, Control_c, 0, 64, 97
1, 61628, Note_off_c, 0, 77, 63
1, 61693, Control_c, 0, 64, 97
1, 61708, Control_c, 0, 64, 95
1, 61723, Control_c, 0, 64, 93
1, 61737, Control_c, 0, 64, 91
1, 61752, Control_c, 0, 64, 89
1, 61767, Control_c, 0, 64, 87
1, 61783, Control_c, 0, 64, 85
1, 61798, Control_c, 0, 64, 82
1, 61813, Control_c, 0, 64, 81
1, 61817, Note_on_c, 0, 79, 85
1, 61827, Control_c, 0, 64, 79
1, 61842, Control_c, 0, 64, 78
1, 61857, Control_c, 0, 64, 78
1, 61870, Note_on_c, 0, 77, 84
1, 61872, Control_c, 0, 64, 77
1, 61874, Note_off_c, 0, 62, 62
1, 61880, Note_off_c, 0, 53, 41
1, 61883, Note_off_c, 0, 58, 63
1, 61901, Control_c, 0, 64, 77
1, 61912, Note_off_c, 0, 79, 63
1, 61931, Control_c, 0, 64, 76
1, 61946, Note_on_c, 0, 75, 88
1, 61946, Control_c, 0, 64, 76
1, 61956, Note_off_c, 0, 77, 63
1, 61960, Control_c, 0, 64, 75
1, 61975, Control_c, 0, 64, 74
1, 61990, Control_c, 0, 64, 74
1, 62003, Note_on_c, 0, 74, 81
1, 62003, Note_off_c, 0, 75, 63
1, 62005, Control_c, 0, 64, 73
1, 62020, Control_c, 0, 64, 72
1, 62034, Control_c, 0, 64, 71
1, 62049, Control_c, 0, 64, 70
1, 62064, Control_c, 0, 64, 69
1, 62069, Note_on_c, 0, 72, 85
1, 62076, Note_off_c, 0, 74, 63
1, 62079, Control_c, 0, 64, 68
1, 62094, Control_c, 0, 64, 67
1, 62109, Control_c, 0, 64, 66
1, 62124, Control_c, 0, 64, 64
1, 62139, Control_c, 0, 64, 61
1, 62142, Note_on_c, 0, 70, 88
1, 62153, Control_c, 0, 64, 56
1, 62159, Note_off_c, 0, 72, 61
1, 62168, Control_c, 0, 64, 44
1, 62183, Control_c, 0, 64, 24
1, 62197, Control_c, 0, 64, 0
1, 62204, Note_on_c, 0, 60, 60
1, 62206, Note_on_c, 0, 63, 73
1, 62222, Note_on_c, 0, 69, 83
1, 62230, Note_on_c, 0, 53, 59
1, 62267, Note_off_c, 0, 70, 61
1, 62486, Control_c, 0, 64, 10
1, 62501, Control_c, 0, 64, 23
1, 62516, Control_c, 0, 64, 31
1, 62531, Control_c, 0, 64, 38
1, 62546, Control_c, 0, 64, 47
1, 62560, Control_c, 0, 64, 55
1, 62575, Control_c, 0, 64, 58
1, 62591, Control_c, 0, 64, 59
1, 62621, Control_c, 0, 64, 59
1, 62628, Note_off_c, 0, 69, 62
1, 62638, Note_on_c, 0, 74, 71
1, 62665, Control_c, 0, 64, 58
1, 62670, Note_on_c, 0, 72, 74
1, 62680, Control_c, 0, 64, 56
1, 62692, Note_off_c, 0, 74, 61
1, 62695, Control_c, 0, 64, 51
1, 62709, Control_c, 0, 64, 44
1, 62723, Note_off_c, 0, 72, 64
1, 62724, Control_c, 0, 64, 40
1, 62729, Note_on_c, 0, 71, 74
1, 62739, Control_c, 0, 64, 40
1, 62754, Control_c, 0, 64, 42
1, 62769, Control_c, 0, 64, 43
1, 62780, Note_on_c, 0, 72, 75
1, 62783, Control_c, 0, 64, 44
1, 62784, Note_off_c, 0, 53, 56
1, 62784, Note_off_c, 0, 71, 66
1, 62798, Control_c, 0, 64, 46
1, 62813, Control_c, 0, 64, 48
1, 62825, Note_off_c, 0, 60, 65
1, 62827, Control_c, 0, 64, 51
1, 62842, Control_c, 0, 64, 53
1, 62848, Note_on_c, 0, 75, 84
1, 62857, Control_c, 0, 64, 55
1, 62872, Control_c, 0, 64, 55
1, 62884, Note_off_c, 0, 72, 54
1, 62887, Control_c, 0, 64, 56
1, 62902, Control_c, 0, 64, 55
1, 62932, Control_c, 0, 64, 55
1, 62947, Control_c, 0, 64, 54
1, 62961, Control_c, 0, 64, 53
1, 62976, Control_c, 0, 64, 52
1, 62991, Control_c, 0, 64, 50
1, 63002, Note_on_c, 0, 69, 75
1, 63006, Control_c, 0, 64, 48
1, 63008, Note_off_c, 0, 75, 63
1, 63020, Control_c, 0, 64, 46
1, 63035, Control_c, 0, 64, 44
1, 63050, Control_c, 0, 64, 43
1, 63065, Control_c, 0, 64, 41
1, 63080, Control_c, 0, 64, 37
1, 63094, Control_c, 0, 64, 31
1, 63109, Control_c, 0, 64, 23
1, 63124, Control_c, 0, 64, 8
1, 63139, Control_c, 0, 64, 0
1, 63161, Note_off_c, 0, 69, 63
1, 63162, Note_on_c, 0, 58, 45
1, 63164, Note_on_c, 0, 70, 68
1, 63182, Note_off_c, 0, 63, 35
1, 63331, Note_on_c, 0, 65, 52
1, 63351, Note_on_c, 0, 62, 44
1, 63487, Control_c, 0, 64, 11
1, 63499, Note_on_c, 0, 66, 61
1, 63501, Note_on_c, 0, 63, 57
1, 63502, Control_c, 0, 64, 15
1, 63507, Note_off_c, 0, 65, 59
1, 63517, Control_c, 0, 64, 15
1, 63576, Control_c, 0, 64, 15
1, 63591, Control_c, 0, 64, 13
1, 63605, Control_c, 0, 64, 10
1, 63620, Control_c, 0, 64, 0
1, 63623, Note_off_c, 0, 70, 55
1, 63659, Note_on_c, 0, 64, 68
1, 63662, Note_on_c, 0, 67, 71
1, 63664, Note_off_c, 0, 66, 62
1, 63704, Note_off_c, 0, 63, 61
1, 63799, Note_off_c, 0, 62, 31
1, 63806, Note_on_c, 0, 65, 68
1, 63813, Note_on_c, 0, 68, 71
1, 63815, Note_off_c, 0, 64, 62
1, 63826, Note_off_c, 0, 67, 58
1, 63972, Note_on_c, 0, 66, 65
1, 63981, Note_on_c, 0, 69, 63
1, 63993, Note_off_c, 0, 65, 58
1, 64030, Note_off_c, 0, 68, 36
1, 64136, Note_off_c, 0, 66, 59
1, 64140, Note_on_c, 0, 67, 57
1, 64147, Note_off_c, 0, 69, 59
1, 64150, Note_on_c, 0, 70, 61
1, 64288, Note_off_c, 0, 70, 58
1, 64291, Note_off_c, 0, 67, 55
1, 64306, Note_on_c, 0, 71, 56
1, 64316, Note_on_c, 0, 65, 46
1, 64475, Note_on_c, 0, 63, 44
1, 64475, Note_on_c, 0, 72, 47
1, 64477, Note_off_c, 0, 71, 52
1, 64549, Note_off_c, 0, 65, 35
1, 64613, Note_off_c, 0, 63, 48
1, 64620, Note_on_c, 0, 64, 42
1, 64631, Note_off_c, 0, 72, 58
1, 64639, Note_on_c, 0, 74, 54
1, 64774, Note_off_c, 0, 58, 39
1, 64802, Note_on_c, 0, 60, 46
1, 64805, Note_on_c, 0, 75, 57
1, 64807, Note_off_c, 0, 74, 58
1, 64810, Note_off_c, 0, 64, 44
1, 64974, Note_off_c, 0, 60, 57
1, 64978, Note_on_c, 0, 69, 45
1, 64979, Note_on_c, 0, 63, 50
1, 65117, Note_off_c, 0, 63, 58
1, 65139, Note_off_c, 0, 75, 34
1, 65143, Note_on_c, 0, 70, 50
1, 65153, Note_off_c, 0, 69, 60
1, 65157, Note_on_c, 0, 62, 40
1, 65158, Note_on_c, 0, 58, 40
1, 65168, Note_off_c, 0, 70, 61
1, 65304, Note_on_c, 0, 74, 51
1, 65305, Note_on_c, 0, 77, 60
1, 65467, Note_off_c, 0, 62, 57
1, 65468, Note_off_c, 0, 58, 51
1, 65476, Note_off_c, 0, 77, 61
1, 65479, Note_off_c, 0, 74, 58
1, 65483, Note_on_c, 0, 79, 68
1, 65489, Note_on_c, 0, 75, 58
1, 65576, Note_off_c, 0, 75, 61
1, 65635, Note_on_c, 0, 74, 67
1, 65640, Note_on_c, 0, 77, 74
1, 65679, Note_off_c, 0, 79, 58
1, 65790, Note_off_c, 0, 74, 66
1, 65793, Note_on_c, 0, 75, 78
1, 65799, Note_off_c, 0, 77, 57
1, 65802, Note_on_c, 0, 72, 72
1, 65863, Note_off_c, 0, 75, 60
1, 65949, Note_on_c, 0, 74, 80
1, 65956, Note_on_c, 0, 70, 78
1, 65969, Note_off_c, 0, 72, 55
1, 66042, Note_off_c, 0, 70, 60
1, 66099, Note_on_c, 0, 53, 92
1, 66101, Note_on_c, 0, 69, 77
1, 66101, Note_on_c, 0, 72, 83
1, 66105, Note_on_c, 0, 41, 80
1, 66121, Note_off_c, 0, 74, 64
1, 66132, Note_off_c, 0, 53, 68
1, 66134, Note_off_c, 0, 41, 67
1, 66262, Note_on_c, 0, 52, 92
1, 66267, Note_on_c, 0, 40, 84
1, 66279, Note_off_c, 0, 69, 62
1, 66289, Note_off_c, 0, 52, 69
1, 66293, Note_off_c, 0, 72, 62
1, 66299, Note_off_c, 0, 40, 68
1, 66417, Note_on_c, 0, 51, 91
1, 66419, Note_on_c, 0, 39, 86
1, 66450, Note_off_c, 0, 51, 65
1, 66458, Note_off_c, 0, 39, 66
1, 66580, Note_on_c, 0, 50, 86
1, 66585, Note_on_c, 0, 38, 84
1, 66616, Note_off_c, 0, 50, 66
1, 66630, Note_off_c, 0, 38, 61
1, 66743, Note_on_c, 0, 81, 95
1, 66745, Note_on_c, 0, 72, 87
1, 66747, Note_on_c, 0, 48, 95
1, 66747, Note_on_c, 0, 75, 80
1, 66752, Note_on_c, 0, 36, 83
1, 66768, Note_off_c, 0, 72, 67
1, 66771, Note_off_c, 0, 75, 64
1, 66777, Note_off_c, 0, 48, 70
1, 66783, Note_off_c, 0, 36, 67
1, 66795, Note_off_c, 0, 81, 64
1, 66914, Note_on_c, 0, 53, 97
1, 66923, Note_on_c, 0, 41, 80
1, 66940, Note_off_c, 0, 53, 71
1, 66948, Note_off_c, 0, 41, 67
1, 67160, Note_on_c, 0, 46, 94
1, 67160, Note_on_c, 0, 82, 97
1, 67164, Note_on_c, 0, 34, 90
1, 67167, Note_on_c, 0, 74, 85
1, 67167, Note_on_c, 0, 77, 82
1, 67185, Control_c, 0, 64, 30
1, 67200, Control_c, 0, 64, 43
1, 67215, Control_c, 0, 64, 56
1, 67230, Control_c, 0, 64, 67
1, 67231, Note_off_c, 0, 74, 66
1, 67236, Note_off_c, 0, 46, 66
1, 67238, Note_off_c, 0, 77, 65
1, 67244, Note_off_c, 0, 34, 65
1, 67245, Control_c, 0, 64, 83
1, 67252, Note_off_c, 0, 82, 68
1, 67260, Control_c, 0, 64, 111
1, 67274, Control_c, 0, 64, 127
1, 67348, Control_c, 0, 64, 110
1, 67364, Control_c, 0, 64, 100
1, 67379, Control_c, 0, 64, 94
1, 67394, Control_c, 0, 64, 90
1, 67409, Control_c, 0, 64, 86
1, 67423, Control_c, 0, 64, 82
1, 67438, Control_c, 0, 64, 78
1, 67453, Control_c, 0, 64, 74
1, 67468, Control_c, 0, 64, 70
1, 67483, Control_c, 0, 64, 67
1, 67497, Control_c, 0, 64, 65
1, 67512, Control_c, 0, 64, 64
1, 67527, Control_c, 0, 64, 62
1, 67542, Control_c, 0, 64, 60
1, 67557, Control_c, 0, 64, 57
1, 67571, Control_c, 0, 64, 53
1, 67586, Control_c, 0, 64, 47
1, 67601, Control_c, 0, 64, 39
1, 67615, Control_c, 0, 64, 30
1, 67630, Control_c, 0, 64, 23
1, 67653, Control_c, 0, 64, 15
1, 67668, Control_c, 0, 64, 11
1, 67683, Control_c, 0, 64, 10
1, 67698, Control_c, 0, 64, 8
1, 67713, Control_c, 0, 64, 0
1, 68142, Control_c, 0, 67, 8
1, 68157, Control_c, 0, 67, 9
1, 68173, Control_c, 0, 67, 10
1, 68188, Control_c, 0, 67, 11
1, 68202, Control_c, 0, 67, 12
1, 68217, Control_c, 0, 67, 14
1, 68232, Control_c, 0, 67, 20
1, 68247, Control_c, 0, 67, 25
1, 68261, Control_c, 0, 67, 30
1, 68276, Control_c, 0, 67, 35
1, 68291, Control_c, 0, 67, 40
1, 68306, Control_c, 0, 67, 47
1, 68321, Control_c, 0, 67, 54
1, 68336, Control_c, 0, 67, 60
1, 68351, Control_c, 0, 67, 67
1, 68366, Control_c, 0, 67, 73
1, 68381, Control_c, 0, 67, 80
1, 68402, Control_c, 0, 67, 85
1, 68417, Control_c, 0, 67, 90
1, 68432, Control_c, 0, 67, 93
1, 68446, Control_c, 0, 67, 95
1, 68461, Control_c, 0, 67, 99
1, 68476, Control_c, 0, 67, 104
1, 68491, Control_c, 0, 67, 107
1, 68506, Control_c, 0, 67, 109
1, 68521, Control_c, 0, 67, 111
1, 68527, Note_on_c, 0, 65, 45
1, 68536, Control_c, 0, 67, 114
1, 68551, Control_c, 0, 67, 118
1, 68565, Control_c, 0, 67, 121
1, 68579, Note_on_c, 0, 62, 5
1, 68580, Control_c, 0, 67, 125
1, 68585, Note_off_c, 0, 65, 62
1, 68595, Control_c, 0, 67, 127
1, 68679, Note_off_c, 0, 62, 43
1, 68712, Note_on_c, 0, 67, 44
1, 68714, Note_on_c, 0, 63, 41
1, 68865, Note_off_c, 0, 63, 46
1, 68876, Note_off_c, 0, 67, 56
1, 68879, Note_on_c, 0, 65, 52
1, 68884, Note_on_c, 0, 62, 44
1, 68999, Note_off_c, 0, 62, 57
1, 69046, Note_on_c, 0, 60, 45
1, 69056, Note_on_c, 0, 63, 49
1, 69084, Note_off_c, 0, 65, 56
1, 69156, Note_off_c, 0, 60, 56
1, 69181, Control_c, 0, 67, 127
1, 69192, Note_off_c, 0, 63, 59
1, 69195, Control_c, 0, 67, 126
1, 69210, Control_c, 0, 67, 125
1, 69214, Note_on_c, 0, 58, 39
1, 69223, Note_on_c, 0, 62, 55
1, 69225, Control_c, 0, 67, 125
1, 69240, Control_c, 0, 67, 124
1, 69255, Control_c, 0, 67, 124
1, 69269, Control_c, 0, 67, 123
1, 69284, Control_c, 0, 67, 122
1, 69299, Control_c, 0, 67, 119
1, 69314, Control_c, 0, 67, 116
1, 69328, Note_off_c, 0, 58, 56
1, 69329, Control_c, 0, 67, 113
1, 69344, Control_c, 0, 67, 110
1, 69358, Control_c, 0, 67, 107
1, 69373, Control_c, 0, 67, 104
1, 69388, Control_c, 0, 67, 99
1, 69388, Note_on_c, 0, 57, 46
1, 69389, Note_on_c, 0, 60, 49
1, 69403, Control_c, 0, 67, 95
1, 69403, Note_off_c, 0, 62, 37
1, 69418, Control_c, 0, 67, 91
1, 69433, Control_c, 0, 67, 86
1, 69448, Control_c, 0, 67, 81
1, 69462, Control_c, 0, 67, 76
1, 69477, Control_c, 0, 67, 70
1, 69492, Control_c, 0, 67, 64
1, 69496, Note_off_c, 0, 60, 57
1, 69507, Control_c, 0, 67, 59
1, 69522, Control_c, 0, 67, 55
1, 69536, Control_c, 0, 67, 52
1, 69551, Control_c, 0, 67, 49
1, 69555, Note_off_c, 0, 57, 54
1, 69566, Control_c, 0, 67, 46
1, 69570, Note_on_c, 0, 63, 41
1, 69571, Note_on_c, 0, 53, 50
1, 69581, Control_c, 0, 67, 43
1, 69595, Control_c, 0, 67, 40
1, 69610, Control_c, 0, 67, 36
1, 69625, Control_c, 0, 67, 33
1, 69640, Control_c, 0, 67, 29
1, 69655, Control_c, 0, 67, 26
1, 69669, Control_c, 0, 67, 22
1, 69684, Control_c, 0, 67, 19
1, 69699, Control_c, 0, 67, 16
1, 69711, Note_off_c, 0, 53, 55
1, 69713, Control_c, 0, 67, 14
1, 69728, Control_c, 0, 67, 13
1, 69743, Control_c, 0, 67, 12
1, 69746, Note_on_c, 0, 55, 45
1, 69746, Note_off_c, 0, 63, 49
1, 69746, Note_on_c, 0, 62, 44
1, 69759, Control_c, 0, 67, 10
1, 69770, Note_on_c, 0, 58, 11
1, 69774, Control_c, 0, 67, 9
1, 69789, Control_c, 0, 67, 0
1, 69829, Note_off_c, 0, 58, 43
1, 69848, Control_c, 0, 64, 17
1, 69863, Control_c, 0, 64, 24
1, 69878, Control_c, 0, 64, 29
1, 69896, Note_off_c, 0, 62, 63
1, 69900, Control_c, 0, 64, 33
1, 69904, Note_on_c, 0, 53, 59
1, 69915, Control_c, 0, 64, 37
1, 69929, Note_off_c, 0, 55, 57
1, 69930, Control_c, 0, 64, 38
1, 69959, Control_c, 0, 64, 37
1, 69973, Control_c, 0, 64, 34
1, 69988, Control_c, 0, 64, 32
1, 70003, Control_c, 0, 64, 31
1, 70017, Control_c, 0, 64, 30
1, 70032, Control_c, 0, 64, 28
1, 70047, Control_c, 0, 64, 25
1, 70062, Control_c, 0, 64, 20
1, 70068, Note_on_c, 0, 70, 64
1, 70077, Control_c, 0, 64, 14
1, 70081, Note_on_c, 0, 51, 51
1, 70086, Note_off_c, 0, 53, 54
1, 70092, Control_c, 0, 64, 0
1, 70100, Note_on_c, 0, 62, 24
1, 70227, Note_off_c, 0, 51, 63
1, 70238, Note_on_c, 0, 50, 56
1, 70393, Note_off_c, 0, 50, 61
1, 70403, Note_on_c, 0, 48, 53
1, 70408, Note_on_c, 0, 63, 47
1, 70445, Note_off_c, 0, 62, 32
1, 70495, Note_off_c, 0, 48, 59
1, 70566, Note_on_c, 0, 53, 46
1, 70576, Note_on_c, 0, 69, 51
1, 70579, Note_off_c, 0, 63, 63
1, 70615, Note_off_c, 0, 70, 35
1, 70728, Note_off_c, 0, 53, 62
1, 70742, Note_on_c, 0, 46, 46
1, 70752, Note_on_c, 0, 68, 56
1, 70767, Control_c, 0, 64, 11
1, 70770, Note_off_c, 0, 46, 61
1, 70780, Note_on_c, 0, 62, 34
1, 70782, Control_c, 0, 64, 24
1, 70790, Note_off_c, 0, 69, 53
1, 70797, Control_c, 0, 64, 31
1, 70812, Control_c, 0, 64, 37
1, 70817, Note_off_c, 0, 62, 56
1, 70827, Control_c, 0, 64, 43
1, 70841, Control_c, 0, 64, 47
1, 70856, Control_c, 0, 64, 50
1, 70871, Control_c, 0, 64, 51
1, 70901, Control_c, 0, 64, 50
1, 70906, Note_on_c, 0, 58, 61
1, 70915, Control_c, 0, 64, 48
1, 70930, Control_c, 0, 64, 46
1, 70945, Control_c, 0, 64, 44
1, 70960, Control_c, 0, 64, 43
1, 70974, Control_c, 0, 64, 41
1, 70989, Control_c, 0, 64, 37
1, 71004, Control_c, 0, 64, 29
1, 71019, Control_c, 0, 64, 16
1, 71034, Control_c, 0, 64, 0
1, 71080, Note_on_c, 0, 67, 72
1, 71088, Note_off_c, 0, 58, 59
1, 71090, Note_on_c, 0, 60, 51
1, 71114, Note_on_c, 0, 63, 41
1, 71140, Note_off_c, 0, 68, 56
1, 71210, Note_off_c, 0, 63, 57
1, 71212, Control_c, 0, 64, 20
1, 71227, Control_c, 0, 64, 29
1, 71233, Note_on_c, 0, 58, 66
1, 71241, Control_c, 0, 64, 36
1, 71248, Note_off_c, 0, 60, 50
1, 71256, Control_c, 0, 64, 41
1, 71263, Note_off_c, 0, 67, 62
1, 71271, Control_c, 0, 64, 44
1, 71286, Control_c, 0, 64, 46
1, 71301, Control_c, 0, 64, 47
1, 71315, Control_c, 0, 64, 46
1, 71330, Control_c, 0, 64, 44
1, 71345, Control_c, 0, 64, 42
1, 71361, Control_c, 0, 64, 40
1, 71376, Control_c, 0, 64, 38
1, 71397, Control_c, 0, 64, 36
1, 71412, Control_c, 0, 64, 32
1, 71413, Note_on_c, 0, 56, 53
1, 71415, Note_on_c, 0, 75, 80
1, 71427, Control_c, 0, 64, 24
1, 71437, Note_off_c, 0, 58, 59
1, 71442, Note_on_c, 0, 67, 52
1, 71442, Control_c, 0, 64, 0
1, 71587, Note_off_c, 0, 56, 64
1, 71591, Note_on_c, 0, 55, 62
1, 71762, Note_on_c, 0, 53, 50
1, 71770, Note_off_c, 0, 55, 59
1, 71772, Note_on_c, 0, 68, 69
1, 71871, Control_c, 0, 64, 19
1, 71886, Control_c, 0, 64, 26
1, 71901, Control_c, 0, 64, 32
1, 71916, Control_c, 0, 64, 38
1, 71928, Note_off_c, 0, 67, 37
1, 71929, Note_off_c, 0, 53, 61
1, 71931, Control_c, 0, 64, 43
1, 71941, Note_on_c, 0, 60, 61
1, 71946, Control_c, 0, 64, 46
1, 71961, Control_c, 0, 64, 49
1, 71967, Note_off_c, 0, 75, 58
1, 71976, Control_c, 0, 64, 50
1, 71990, Control_c, 0, 64, 49
1, 72005, Control_c, 0, 64, 48
1, 72020, Control_c, 0, 64, 46
1, 72035, Control_c, 0, 64, 45
1, 72050, Control_c, 0, 64, 44
1, 72064, Control_c, 0, 64, 43
1, 72079, Control_c, 0, 64, 40
1, 72094, Control_c, 0, 64, 36
1, 72105, Note_off_c, 0, 60, 59
1, 72108, Control_c, 0, 64, 29
1, 72113, Note_on_c, 0, 74, 75
1, 72120, Note_on_c, 0, 58, 48
1, 72123, Control_c, 0, 64, 23
1, 72146, Control_c, 0, 64, 20
1, 72161, Control_c, 0, 64, 19
1, 72176, Control_c, 0, 64, 18
1, 72191, Control_c, 0, 64, 15
1, 72206, Control_c, 0, 64, 0
1, 72272, Note_off_c, 0, 58, 55
1, 72285, Note_on_c, 0, 56, 45
1, 72291, Note_off_c, 0, 68, 58
1, 72292, Note_on_c, 0, 72, 54
1, 72432, Note_off_c, 0, 56, 59
1, 72444, Note_on_c, 0, 70, 56
1, 72454, Note_on_c, 0, 55, 43
1, 72601, Note_off_c, 0, 72, 31
1, 72624, Note_on_c, 0, 68, 59
1, 72628, Note_on_c, 0, 53, 42
1, 72643, Note_off_c, 0, 55, 36
1, 72679, Note_off_c, 0, 70, 53
1, 72759, Note_off_c, 0, 53, 57
1, 72789, Note_on_c, 0, 67, 52
1, 72795, Note_on_c, 0, 51, 45
1, 72875, Note_off_c, 0, 74, 39
1, 72900, Note_off_c, 0, 68, 51
1, 72939, Control_c, 0, 64, 16
1, 72953, Note_on_c, 0, 58, 47
1, 72953, Control_c, 0, 64, 22
1, 72970, Control_c, 0, 64, 26
1, 72984, Control_c, 0, 64, 28
1, 72990, Note_off_c, 0, 51, 43
1, 72999, Control_c, 0, 64, 28
1, 73014, Control_c, 0, 64, 29
1, 73029, Control_c, 0, 64, 28
1, 73043, Control_c, 0, 64, 28
1, 73058, Control_c, 0, 64, 26
1, 73073, Control_c, 0, 64, 23
1, 73088, Control_c, 0, 64, 20
1, 73103, Control_c, 0, 64, 15
1, 73117, Control_c, 0, 64, 10
1, 73120, Note_off_c, 0, 58, 51
1, 73132, Control_c, 0, 64, 0
1, 73134, Note_on_c, 0, 72, 59
1, 73148, Note_on_c, 0, 56, 41
1, 73269, Note_off_c, 0, 56, 61
1, 73295, Note_off_c, 0, 67, 42
1, 73302, Note_on_c, 0, 70, 53
1, 73308, Note_on_c, 0, 55, 42
1, 73442, Note_off_c, 0, 55, 34
1, 73470, Note_on_c, 0, 53, 42
1, 73474, Note_on_c, 0, 68, 50
1, 73535, Note_off_c, 0, 70, 36
1, 73625, Note_off_c, 0, 53, 34
1, 73628, Note_on_c, 0, 51, 43
1, 73628, Note_on_c, 0, 67, 50
1, 73677, Note_off_c, 0, 68, 36
1, 73743, Note_off_c, 0, 51, 57
1, 73800, Note_on_c, 0, 65, 51
1, 73806, Note_on_c, 0, 50, 32
1, 73836, Note_off_c, 0, 67, 37
1, 73901, Note_off_c, 0, 72, 44
1, 73955, Note_on_c, 0, 56, 47
1, 73995, Note_off_c, 0, 50, 38
1, 73999, Control_c, 0, 67, 8
1, 74014, Control_c, 0, 67, 8
1, 74029, Control_c, 0, 67, 9
1, 74044, Control_c, 0, 67, 10
1, 74058, Control_c, 0, 67, 11
1, 74073, Control_c, 0, 67, 13
1, 74088, Control_c, 0, 67, 14
1, 74089, Note_off_c, 0, 56, 57
1, 74103, Control_c, 0, 67, 15
1, 74118, Control_c, 0, 67, 16
1, 74132, Control_c, 0, 67, 17
1, 74133, Note_on_c, 0, 71, 53
1, 74137, Note_on_c, 0, 55, 35
1, 74147, Control_c, 0, 67, 19
1, 74162, Control_c, 0, 67, 21
1, 74176, Control_c, 0, 67, 25
1, 74191, Control_c, 0, 67, 29
1, 74206, Control_c, 0, 67, 33
1, 74221, Control_c, 0, 67, 38
1, 74236, Control_c, 0, 67, 42
1, 74250, Control_c, 0, 67, 46
1, 74265, Control_c, 0, 67, 49
1, 74274, Note_off_c, 0, 65, 44
1, 74280, Control_c, 0, 67, 52
1, 74295, Control_c, 0, 67, 55
1, 74301, Note_on_c, 0, 68, 50
1, 74305, Note_off_c, 0, 55, 41
1, 74310, Control_c, 0, 67, 59
1, 74316, Note_on_c, 0, 53, 43
1, 74325, Control_c, 0, 67, 62
1, 74340, Control_c, 0, 67, 64
1, 74354, Control_c, 0, 67, 66
1, 74369, Control_c, 0, 67, 68
1, 74391, Control_c, 0, 67, 69
1, 74406, Control_c, 0, 67, 69
1, 74437, Control_c, 0, 67, 70
1, 74480, Note_on_c, 0, 67, 49
1, 74483, Note_on_c, 0, 51, 45
1, 74509, Note_off_c, 0, 53, 35
1, 74606, Note_off_c, 0, 68, 34
1, 74613, Note_off_c, 0, 71, 40
1, 74615, Control_c, 0, 67, 69
1, 74623, Note_off_c, 0, 51, 61
1, 74632, Note_off_c, 0, 67, 43
1, 74639, Note_on_c, 0, 65, 53
1, 74645, Control_c, 0, 67, 69
1, 74660, Control_c, 0, 67, 68
1, 74665, Note_on_c, 0, 50, 42
1, 74675, Control_c, 0, 67, 68
1, 74689, Control_c, 0, 67, 67
1, 74704, Control_c, 0, 67, 67
1, 74719, Control_c, 0, 67, 66
1, 74733, Control_c, 0, 67, 65
1, 74748, Control_c, 0, 67, 64
1, 74763, Control_c, 0, 67, 63
1, 74778, Control_c, 0, 67, 62
1, 74793, Note_off_c, 0, 50, 61
1, 74793, Control_c, 0, 67, 60
1, 74808, Control_c, 0, 67, 59
1, 74810, Note_on_c, 0, 70, 59
1, 74817, Note_on_c, 0, 48, 51
1, 74822, Control_c, 0, 67, 57
1, 74837, Control_c, 0, 67, 56
1, 74852, Note_on_c, 0, 64, 38
1, 74852, Control_c, 0, 67, 54
1, 74867, Note_off_c, 0, 65, 59
1, 74867, Control_c, 0, 67, 52
1, 74882, Control_c, 0, 67, 49
1, 74897, Control_c, 0, 67, 44
1, 74912, Control_c, 0, 67, 40
1, 74927, Control_c, 0, 67, 35
1, 74928, Note_off_c, 0, 48, 53
1, 74941, Control_c, 0, 67, 30
1, 74956, Control_c, 0, 67, 25
1, 74968, Note_on_c, 0, 60, 67
1, 74971, Control_c, 0, 67, 21
1, 74986, Control_c, 0, 67, 18
1, 74991, Note_off_c, 0, 64, 34
1, 75000, Control_c, 0, 67, 14
1, 75015, Control_c, 0, 67, 11
1, 75030, Control_c, 0, 67, 8
1, 75045, Control_c, 0, 67, 0
1, 75145, Note_on_c, 0, 61, 69
1, 75153, Note_on_c, 0, 68, 74
1, 75170, Note_on_c, 0, 65, 58
1, 75180, Note_off_c, 0, 60, 58
1, 75186, Note_off_c, 0, 70, 59
1, 75241, Note_off_c, 0, 65, 64
1, 75245, Control_c, 0, 64, 14
1, 75260, Control_c, 0, 64, 22
1, 75275, Control_c, 0, 64, 28
1, 75281, Note_off_c, 0, 68, 60
1, 75289, Control_c, 0, 64, 32
1, 75304, Control_c, 0, 64, 35
1, 75305, Note_on_c, 0, 60, 69
1, 75319, Control_c, 0, 64, 38
1, 75333, Control_c, 0, 64, 40
1, 75342, Note_off_c, 0, 61, 65
1, 75348, Control_c, 0, 64, 41
1, 75379, Control_c, 0, 64, 40
1, 75394, Control_c, 0, 64, 39
1, 75409, Control_c, 0, 64, 38
1, 75424, Control_c, 0, 64, 37
1, 75438, Control_c, 0, 64, 34
1, 75453, Control_c, 0, 64, 31
1, 75468, Control_c, 0, 64, 28
1, 75481, Note_on_c, 0, 77, 82
1, 75483, Control_c, 0, 64, 26
1, 75498, Control_c, 0, 64, 25
1, 75500, Note_on_c, 0, 68, 59
1, 75511, Note_on_c, 0, 58, 60
1, 75512, Control_c, 0, 64, 23
1, 75527, Control_c, 0, 64, 21
1, 75542, Control_c, 0, 64, 18
1, 75556, Control_c, 0, 64, 12
1, 75571, Control_c, 0, 64, 0
1, 75605, Note_off_c, 0, 60, 38
1, 75642, Note_on_c, 0, 56, 68
1, 75678, Note_off_c, 0, 58, 59
1, 75801, Note_off_c, 0, 56, 62
1, 75803, Note_on_c, 0, 70, 72
1, 75806, Note_on_c, 0, 55, 59
1, 75825, Note_off_c, 0, 68, 59
1, 75914, Note_off_c, 0, 77, 55
1, 75972, Note_on_c, 0, 61, 74
1, 75994, Control_c, 0, 64, 8
1, 76009, Control_c, 0, 64, 11
1, 76024, Control_c, 0, 64, 13
1, 76038, Control_c, 0, 64, 14
1, 76068, Control_c, 0, 64, 13
1, 76082, Control_c, 0, 64, 0
1, 76131, Note_on_c, 0, 76, 85
1, 76133, Note_on_c, 0, 60, 65
1, 76145, Note_off_c, 0, 61, 64
1, 76208, Note_off_c, 0, 70, 58
1, 76287, Note_on_c, 0, 58, 73
1, 76306, Control_c, 0, 64, 10
1, 76321, Control_c, 0, 64, 13
1, 76326, Note_off_c, 0, 55, 46
1, 76335, Control_c, 0, 64, 14
1, 76379, Control_c, 0, 64, 10
1, 76394, Note_off_c, 0, 60, 35
1, 76394, Control_c, 0, 64, 0
1, 76447, Note_on_c, 0, 56, 66
1, 76465, Note_on_c, 0, 79, 87
1, 76491, Note_off_c, 0, 58, 60
1, 76497, Note_off_c, 0, 76, 61
1, 76614, Note_on_c, 0, 55, 68
1, 76615, Note_off_c, 0, 56, 65
1, 76792, Note_on_c, 0, 72, 70
1, 76804, Note_on_c, 0, 56, 68
1, 76897, Note_off_c, 0, 55, 52
1, 76913, Note_off_c, 0, 79, 52
1, 76955, Note_on_c, 0, 76, 81
1, 76960, Note_on_c, 0, 58, 73
1, 76981, Control_c, 0, 64, 9
1, 76988, Note_off_c, 0, 56, 58
1, 76996, Control_c, 0, 64, 10
1, 77010, Control_c, 0, 64, 11
1, 77115, Note_on_c, 0, 56, 67
1, 77116, Note_on_c, 0, 77, 84
1, 77143, Control_c, 0, 64, 9
1, 77147, Note_off_c, 0, 76, 64
1, 77158, Control_c, 0, 64, 0
1, 77168, Note_off_c, 0, 58, 60
1, 77274, Note_on_c, 0, 79, 89
1, 77285, Note_off_c, 0, 56, 66
1, 77289, Note_on_c, 0, 55, 71
1, 77311, Note_off_c, 0, 77, 63
1, 77443, Note_on_c, 0, 80, 90
1, 77446, Control_c, 0, 64, 10
1, 77449, Note_on_c, 0, 53, 72
1, 77461, Control_c, 0, 64, 13
1, 77475, Control_c, 0, 64, 15
1, 77480, Note_off_c, 0, 79, 59
1, 77490, Control_c, 0, 64, 18
1, 77505, Control_c, 0, 64, 19
1, 77510, Note_off_c, 0, 55, 39
1, 77520, Control_c, 0, 64, 21
1, 77534, Control_c, 0, 64, 22
1, 77549, Control_c, 0, 64, 23
1, 77564, Control_c, 0, 64, 25
1, 77579, Control_c, 0, 64, 26
1, 77583, Note_off_c, 0, 72, 45
1, 77594, Control_c, 0, 64, 27
1, 77601, Note_on_c, 0, 51, 75
1, 77608, Control_c, 0, 64, 28
1, 77651, Note_off_c, 0, 53, 63
1, 77712, Control_c, 0, 64, 27
1, 77726, Control_c, 0, 64, 26
1, 77741, Control_c, 0, 64, 25
1, 77753, Note_on_c, 0, 71, 77
1, 77756, Note_on_c, 0, 50, 64
1, 77757, Control_c, 0, 64, 24
1, 77764, Note_off_c, 0, 51, 65
1, 77772, Control_c, 0, 64, 23
1, 77787, Control_c, 0, 64, 21
1, 77802, Control_c, 0, 64, 19
1, 77817, Control_c, 0, 64, 18
1, 77831, Control_c, 0, 64, 16
1, 77846, Control_c, 0, 64, 14
1, 77861, Control_c, 0, 64, 10
1, 77869, Note_off_c, 0, 80, 59
1, 77876, Control_c, 0, 64, 0
1, 77913, Note_on_c, 0, 48, 67
1, 77920, Note_on_c, 0, 72, 80
1, 77932, Note_off_c, 0, 71, 67
1, 77952, Note_off_c, 0, 50, 51
1, 78091, Note_on_c, 0, 47, 64
1, 78095, Note_on_c, 0, 79, 86
1, 78111, Note_on_c, 0, 74, 70
1, 78143, Note_off_c, 0, 48, 58
1, 78167, Note_off_c, 0, 72, 53
1, 78247, Note_on_c, 0, 43, 65
1, 78255, Note_off_c, 0, 47, 63
1, 78417, Note_on_c, 0, 45, 71
1, 78422, Note_on_c, 0, 77, 83
1, 78444, Note_off_c, 0, 43, 61
1, 78504, Note_off_c, 0, 79, 53
1, 78572, Note_on_c, 0, 47, 76
1, 78645, Note_off_c, 0, 45, 55
1, 78745, Note_on_c, 0, 75, 78
1, 78748, Note_on_c, 0, 48, 65
1, 78778, Note_off_c, 0, 47, 61
1, 78803, Control_c, 0, 64, 9
1, 78818, Control_c, 0, 64, 14
1, 78833, Control_c, 0, 64, 16
1, 78842, Note_off_c, 0, 77, 57
1, 78847, Control_c, 0, 64, 18
1, 78915, Note_off_c, 0, 48, 64
1, 78921, Note_on_c, 0, 50, 68
1, 78959, Control_c, 0, 64, 17
1, 78973, Control_c, 0, 64, 16
1, 78975, Note_off_c, 0, 74, 31
1, 78988, Control_c, 0, 64, 14
1, 79003, Control_c, 0, 64, 11
1, 79018, Control_c, 0, 64, 0
1, 79064, Note_on_c, 0, 51, 66
1, 79080, Note_on_c, 0, 72, 67
1, 79119, Note_off_c, 0, 50, 57
1, 79223, Note_on_c, 0, 52, 79
1, 79325, Note_off_c, 0, 51, 44
1, 79387, Note_on_c, 0, 53, 78
1, 79403, Note_off_c, 0, 52, 63
1, 79537, Control_c, 0, 64, 18
1, 79549, Note_on_c, 0, 54, 82
1, 79552, Control_c, 0, 64, 27
1, 79567, Control_c, 0, 64, 34
1, 79582, Control_c, 0, 64, 38
1, 79584, Note_off_c, 0, 53, 63
1, 79596, Control_c, 0, 64, 42
1, 79611, Control_c, 0, 64, 44
1, 79634, Control_c, 0, 64, 45
1, 79649, Control_c, 0, 64, 44
1, 79663, Control_c, 0, 64, 43
1, 79678, Control_c, 0, 64, 41
1, 79693, Control_c, 0, 64, 40
1, 79708, Control_c, 0, 64, 39
1, 79713, Note_off_c, 0, 72, 37
1, 79722, Control_c, 0, 64, 38
1, 79726, Note_on_c, 0, 74, 65
1, 79731, Note_off_c, 0, 75, 56
1, 79735, Note_on_c, 0, 55, 77
1, 79737, Control_c, 0, 64, 37
1, 79752, Control_c, 0, 64, 34
1, 79756, Note_off_c, 0, 54, 61
1, 79767, Control_c, 0, 64, 31
1, 79782, Control_c, 0, 64, 25
1, 79796, Control_c, 0, 64, 15
1, 79811, Control_c, 0, 64, 0
1, 79881, Note_on_c, 0, 69, 70
1, 80055, Note_off_c, 0, 69, 62
1, 80061, Note_on_c, 0, 71, 66
1, 80199, Note_on_c, 0, 59, 67
1, 80203, Note_on_c, 0, 68, 70
1, 80275, Note_off_c, 0, 71, 62
1, 80373, Note_on_c, 0, 60, 79
1, 80377, Note_on_c, 0, 67, 70
1, 80405, Note_off_c, 0, 68, 56
1, 80405, Note_off_c, 0, 74, 53
1, 80409, Note_off_c, 0, 55, 30
1, 80434, Note_off_c, 0, 59, 58
1, 80525, Note_on_c, 0, 62, 87
1, 80527, Note_on_c, 0, 65, 74
1, 80530, Note_off_c, 0, 60, 66
1, 80545, Control_c, 0, 64, 13
1, 80559, Control_c, 0, 64, 23
1, 80561, Note_off_c, 0, 67, 61
1, 80574, Control_c, 0, 64, 29
1, 80589, Control_c, 0, 64, 33
1, 80604, Control_c, 0, 64, 35
1, 80618, Control_c, 0, 64, 36
1, 80648, Control_c, 0, 64, 34
1, 80656, Note_off_c, 0, 65, 64
1, 80663, Control_c, 0, 64, 31
1, 80677, Control_c, 0, 64, 28
1, 80680, Note_on_c, 0, 63, 90
1, 80692, Control_c, 0, 64, 23
1, 80697, Note_on_c, 0, 67, 73
1, 80707, Control_c, 0, 64, 14
1, 80713, Note_on_c, 0, 55, 56
1, 80722, Control_c, 0, 64, 0
1, 80729, Note_off_c, 0, 62, 56
1, 80853, Note_on_c, 0, 71, 74
1, 80984, Note_off_c, 0, 67, 0
1, 81005, Control_c, 0, 64, 9
1, 81006, Note_on_c, 0, 72, 82
1, 81017, Note_on_c, 0, 67, 22
1, 81020, Control_c, 0, 64, 22
1, 81035, Control_c, 0, 64, 30
1, 81044, Note_off_c, 0, 71, 61
1, 81049, Control_c, 0, 64, 36
1, 81064, Control_c, 0, 64, 41
1, 81079, Control_c, 0, 64, 45
1, 81086, Note_off_c, 0, 67, 41
1, 81093, Control_c, 0, 64, 48
1, 81108, Control_c, 0, 64, 49
1, 81145, Control_c, 0, 64, 48
1, 81157, Note_on_c, 0, 74, 81
1, 81160, Control_c, 0, 64, 47
1, 81175, Control_c, 0, 64, 47
1, 81190, Control_c, 0, 64, 46
1, 81197, Note_off_c, 0, 72, 60
1, 81205, Control_c, 0, 64, 46
1, 81220, Control_c, 0, 64, 45
1, 81235, Control_c, 0, 64, 44
1, 81249, Control_c, 0, 64, 39
1, 81262, Poly_aftertouch_c, 0, 67, 127
1, 81264, Control_c, 0, 64, 30
1, 81279, Control_c, 0, 64, 0
1, 81294, Poly_aftertouch_c, 0, 67, 0
1, 81314, Note_on_c, 0, 75, 78
1, 81316, Note_on_c, 0, 60, 79
1, 81337, Note_off_c, 0, 74, 64
1, 81347, Note_off_c, 0, 55, 42
1, 81400, Note_off_c, 0, 63, 60
1, 81466, Note_on_c, 0, 66, 79
1, 81529, Note_off_c, 0, 75, 58
1, 81613, Note_off_c, 0, 66, 65
1, 81618, Note_on_c, 0, 59, 62
1, 81624, Note_on_c, 0, 67, 76
1, 81626, Note_off_c, 0, 60, 59
1, 81631, Note_on_c, 0, 55, 50
1, 81777, Note_on_c, 0, 78, 83
1, 81828, Control_c, 0, 64, 8
1, 81843, Control_c, 0, 64, 20
1, 81854, Note_off_c, 0, 59, 60
1, 81858, Control_c, 0, 64, 28
1, 81880, Control_c, 0, 64, 33
1, 81895, Control_c, 0, 64, 37
1, 81910, Control_c, 0, 64, 40
1, 81924, Control_c, 0, 64, 44
1, 81939, Control_c, 0, 64, 47
1, 81949, Note_on_c, 0, 79, 80
1, 81954, Control_c, 0, 64, 49
1, 81969, Control_c, 0, 64, 50
1, 81984, Note_off_c, 0, 78, 66
1, 81984, Control_c, 0, 64, 49
1, 81998, Control_c, 0, 64, 47
1, 82013, Control_c, 0, 64, 45
1, 82028, Control_c, 0, 64, 44
1, 82043, Control_c, 0, 64, 43
1, 82050, Note_off_c, 0, 67, 23
1, 82058, Control_c, 0, 64, 42
1, 82072, Control_c, 0, 64, 39
1, 82087, Control_c, 0, 64, 36
1, 82097, Note_on_c, 0, 77, 76
1, 82102, Note_on_c, 0, 59, 58
1, 82102, Control_c, 0, 64, 30
1, 82117, Control_c, 0, 64, 21
1, 82132, Control_c, 0, 64, 0
1, 82180, Note_off_c, 0, 79, 52
1, 82250, Note_on_c, 0, 60, 65
1, 82256, Note_on_c, 0, 75, 72
1, 82283, Note_off_c, 0, 55, 43
1, 82304, Note_off_c, 0, 77, 55
1, 82310, Note_off_c, 0, 59, 58
1, 82369, Control_c, 0, 64, 11
1, 82384, Control_c, 0, 64, 14
1, 82398, Control_c, 0, 64, 14
1, 82412, Note_on_c, 0, 74, 61
1, 82418, Note_on_c, 0, 62, 73
1, 82428, Control_c, 0, 64, 14
1, 82432, Note_off_c, 0, 60, 65
1, 82442, Control_c, 0, 64, 11
1, 82457, Control_c, 0, 64, 0
1, 82469, Note_off_c, 0, 75, 57
1, 82575, Note_off_c, 0, 74, 63
1, 82583, Note_on_c, 0, 63, 71
1, 82588, Note_on_c, 0, 72, 54
1, 82590, Note_on_c, 0, 55, 44
1, 82666, Note_off_c, 0, 62, 56
1, 82749, Note_on_c, 0, 71, 63
1, 82775, Note_off_c, 0, 72, 37
1, 82917, Note_on_c, 0, 72, 62
1, 82922, Note_off_c, 0, 71, 61
1, 82925, Control_c, 0, 67, 8
1, 82940, Control_c, 0, 67, 10
1, 82954, Control_c, 0, 67, 11
1, 82969, Control_c, 0, 67, 13
1, 82982, Note_off_c, 0, 63, 63
1, 82984, Control_c, 0, 67, 15
1, 82999, Control_c, 0, 67, 18
1, 83014, Control_c, 0, 67, 21
1, 83029, Control_c, 0, 67, 26
1, 83044, Control_c, 0, 67, 32
1, 83053, Note_on_c, 0, 68, 59
1, 83059, Control_c, 0, 67, 38
1, 83062, Note_off_c, 0, 72, 57
1, 83073, Control_c, 0, 67, 44
1, 83088, Control_c, 0, 67, 51
1, 83103, Control_c, 0, 67, 57
1, 83118, Control_c, 0, 67, 65
1, 83133, Control_c, 0, 67, 73
1, 83147, Control_c, 0, 67, 82
1, 83162, Control_c, 0, 67, 90
1, 83177, Control_c, 0, 67, 98
1, 83192, Control_c, 0, 67, 106
1, 83197, Note_off_c, 0, 68, 57
1, 83207, Control_c, 0, 67, 112
1, 83214, Note_on_c, 0, 67, 56
1, 83221, Control_c, 0, 67, 118
1, 83227, Note_on_c, 0, 60, 53
1, 83236, Control_c, 0, 67, 123
1, 83244, Note_off_c, 0, 55, 49
1, 83251, Control_c, 0, 64, 10
1, 83251, Control_c, 0, 67, 127
1, 83265, Control_c, 0, 64, 22
1, 83280, Control_c, 0, 64, 29
1, 83295, Control_c, 0, 64, 34
1, 83310, Control_c, 0, 64, 39
1, 83325, Control_c, 0, 64, 43
1, 83341, Control_c, 0, 64, 46
1, 83356, Control_c, 0, 64, 47
1, 83357, Note_off_c, 0, 60, 52
1, 83382, Note_on_c, 0, 66, 53
1, 83388, Note_off_c, 0, 67, 36
1, 83393, Control_c, 0, 64, 46
1, 83407, Control_c, 0, 64, 44
1, 83422, Control_c, 0, 64, 43
1, 83452, Control_c, 0, 64, 43
1, 83467, Control_c, 0, 64, 42
1, 83482, Control_c, 0, 64, 39
1, 83496, Control_c, 0, 64, 35
1, 83511, Control_c, 0, 64, 32
1, 83526, Control_c, 0, 64, 28
1, 83541, Control_c, 0, 64, 26
1, 83556, Control_c, 0, 64, 23
1, 83570, Control_c, 0, 64, 15
1, 83578, Note_off_c, 0, 66, 54
1, 83585, Control_c, 0, 64, 0
1, 83604, Note_on_c, 0, 67, 44
1, 83629, Note_on_c, 0, 55, 30
1, 83630, Note_on_c, 0, 59, 36
1, 83837, Control_c, 0, 64, 14
1, 83852, Control_c, 0, 64, 25
1, 83866, Control_c, 0, 64, 34
1, 83881, Control_c, 0, 64, 41
1, 83896, Control_c, 0, 64, 46
1, 83911, Control_c, 0, 64, 49
1, 83926, Control_c, 0, 64, 52
1, 83941, Control_c, 0, 64, 53
1, 83941, Note_off_c, 0, 55, 43
1, 83955, Note_off_c, 0, 59, 41
1, 83970, Control_c, 0, 64, 52
1, 83985, Control_c, 0, 64, 51
1, 84000, Control_c, 0, 64, 50
1, 84000, Control_c, 0, 67, 127
1, 84015, Control_c, 0, 64, 49
1, 84015, Control_c, 0, 67, 125
1, 84030, Control_c, 0, 64, 47
1, 84030, Control_c, 0, 67, 123
1, 84031, Note_off_c, 0, 67, 41
1, 84044, Control_c, 0, 64, 45
1, 84044, Control_c, 0, 67, 120
1, 84059, Control_c, 0, 64, 41
1, 84059, Control_c, 0, 67, 117
1, 84074, Control_c, 0, 64, 37
1, 84074, Control_c, 0, 67, 112
1, 84088, Control_c, 0, 64, 31
1, 84088, Control_c, 0, 67, 106
1, 84103, Control_c, 0, 64, 22
1, 84103, Control_c, 0, 67, 101
1, 84126, Control_c, 0, 64, 8
1, 84126, Control_c, 0, 67, 94
1, 84141, Control_c, 0, 64, 0
1, 84141, Control_c, 0, 67, 86
1, 84156, Control_c, 0, 67, 76
1, 84171, Control_c, 0, 67, 66
1, 84185, Control_c, 0, 67, 56
1, 84200, Control_c, 0, 67, 46
1, 84215, Control_c, 0, 67, 38
1, 84230, Control_c, 0, 67, 31
1, 84245, Control_c, 0, 67, 25
1, 84260, Control_c, 0, 67, 19
1, 84274, Control_c, 0, 67, 15
1, 84289, Control_c, 0, 67, 12
1, 84304, Control_c, 0, 67, 8
1, 84318, Control_c, 0, 67, 0
1, 84401, Note_on_c, 0, 72, 56
1, 84465, Note_off_c, 0, 72, 54
1, 84472, Note_on_c, 0, 75, 60
1, 84534, Note_off_c, 0, 75, 60
1, 84547, Note_on_c, 0, 74, 59
1, 84592, Note_off_c, 0, 74, 66
1, 84606, Note_on_c, 0, 77, 68
1, 84683, Note_on_c, 0, 48, 48
1, 84686, Note_on_c, 0, 51, 47
1, 84687, Note_on_c, 0, 75, 65
1, 84692, Note_off_c, 0, 77, 62
1, 84718, Control_c, 0, 64, 21
1, 84724, Note_off_c, 0, 75, 63
1, 84729, Note_off_c, 0, 51, 64
1, 84731, Note_off_c, 0, 48, 62
1, 84733, Control_c, 0, 64, 31
1, 84748, Control_c, 0, 64, 38
1, 84763, Control_c, 0, 64, 44
1, 84778, Control_c, 0, 64, 49
1, 84792, Control_c, 0, 64, 51
1, 84807, Control_c, 0, 64, 51
1, 84822, Control_c, 0, 64, 50
1, 84836, Control_c, 0, 64, 47
1, 84851, Control_c, 0, 64, 44
1, 84874, Control_c, 0, 64, 44
1, 84904, Control_c, 0, 64, 43
1, 84919, Control_c, 0, 64, 41
1, 84934, Control_c, 0, 64, 37
1, 84949, Control_c, 0, 64, 29
1, 84964, Control_c, 0, 64, 12
1, 84979, Control_c, 0, 64, 0
1, 85040, Note_on_c, 0, 60, 43
1, 85042, Note_on_c, 0, 63, 46
1, 85065, Note_off_c, 0, 60, 54
1, 85070, Note_off_c, 0, 63, 59
1, 85113, Control_c, 0, 67, 8
1, 85127, Control_c, 0, 67, 9
1, 85142, Control_c, 0, 67, 10
1, 85157, Control_c, 0, 67, 11
1, 85172, Control_c, 0, 67, 12
1, 85187, Control_c, 0, 67, 14
1, 85202, Control_c, 0, 67, 16
1, 85205, Note_on_c, 0, 80, 58
1, 85216, Control_c, 0, 67, 20
1, 85231, Control_c, 0, 67, 25
1, 85246, Control_c, 0, 67, 31
1, 85260, Control_c, 0, 67, 40
1, 85261, Note_off_c, 0, 80, 61
1, 85274, Note_on_c, 0, 79, 59
1, 85275, Control_c, 0, 67, 49
1, 85290, Control_c, 0, 67, 57
1, 85305, Control_c, 0, 67, 66
1, 85313, Note_off_c, 0, 79, 62
1, 85320, Control_c, 0, 67, 73
1, 85334, Control_c, 0, 67, 81
1, 85348, Note_on_c, 0, 77, 65
1, 85349, Control_c, 0, 67, 90
1, 85364, Control_c, 0, 67, 98
1, 85379, Note_off_c, 0, 77, 61
1, 85379, Control_c, 0, 67, 105
1, 85394, Control_c, 0, 67, 112
1, 85408, Note_on_c, 0, 75, 57
1, 85408, Control_c, 0, 67, 117
1, 85423, Control_c, 0, 67, 121
1, 85438, Control_c, 0, 67, 124
1, 85452, Note_off_c, 0, 75, 54
1, 85453, Control_c, 0, 67, 127
1, 85467, Control_c, 0, 67, 127
1, 85484, Note_on_c, 0, 74, 52
1, 85511, Note_off_c, 0, 74, 66
1, 85550, Note_on_c, 0, 72, 49
1, 85596, Note_off_c, 0, 72, 49
1, 85640, Note_on_c, 0, 71, 46
1, 85654, Note_on_c, 0, 43, 45
1, 85667, Control_c, 0, 64, 14
1, 85668, Note_off_c, 0, 71, 59
1, 85682, Control_c, 0, 64, 28
1, 85697, Note_off_c, 0, 43, 60
1, 85697, Poly_aftertouch_c, 0, 47, 127
1, 85697, Control_c, 0, 64, 36
1, 85712, Control_c, 0, 64, 42
1, 85727, Control_c, 0, 64, 47
1, 85743, Control_c, 0, 64, 50
1, 85747, Poly_aftertouch_c, 0, 47, 0
1, 85758, Control_c, 0, 64, 51
1, 85772, Control_c, 0, 64, 49
1, 85787, Control_c, 0, 64, 46
1, 85802, Control_c, 0, 64, 44
1, 85817, Control_c, 0, 64, 43
1, 85846, Control_c, 0, 64, 43
1, 85861, Control_c, 0, 64, 41
1, 85876, Control_c, 0, 64, 37
1, 85891, Control_c, 0, 64, 31
1, 85905, Control_c, 0, 64, 19
1, 85920, Control_c, 0, 64, 0
1, 86004, Note_on_c, 0, 55, 48
1, 86007, Note_on_c, 0, 59, 52
1, 86025, Control_c, 0, 67, 123
1, 86034, Note_off_c, 0, 55, 67
1, 86039, Control_c, 0, 67, 116
1, 86043, Note_off_c, 0, 59, 64
1, 86054, Control_c, 0, 67, 109
1, 86069, Control_c, 0, 67, 103
1, 86084, Control_c, 0, 67, 98
1, 86098, Control_c, 0, 67, 93
1, 86113, Control_c, 0, 67, 86
1, 86128, Control_c, 0, 67, 79
1, 86143, Control_c, 0, 67, 72
1, 86158, Control_c, 0, 67, 64
1, 86172, Control_c, 0, 67, 55
1, 86187, Control_c, 0, 67, 47
1, 86202, Control_c, 0, 67, 41
1, 86217, Control_c, 0, 67, 36
1, 86231, Control_c, 0, 67, 35
1, 86246, Control_c, 0, 67, 35
1, 86276, Control_c, 0, 67, 34
1, 86290, Control_c, 0, 67, 34
1, 86320, Control_c, 0, 67, 33
1, 86335, Control_c, 0, 67, 29
1, 86350, Control_c, 0, 67, 24
1, 86372, Control_c, 0, 67, 17
1, 86376, Note_on_c, 0, 74, 63
1, 86387, Control_c, 0, 67, 9
1, 86402, Control_c, 0, 67, 0
1, 86438, Note_off_c, 0, 74, 64
1, 86444, Note_on_c, 0, 77, 72
1, 86505, Note_off_c, 0, 77, 62
1, 86514, Note_on_c, 0, 75, 75
1, 86576, Note_off_c, 0, 75, 63
1, 86584, Note_on_c, 0, 79, 76
1, 86666, Note_on_c, 0, 77, 78
1, 86670, Note_off_c, 0, 79, 64
1, 86673, Note_on_c, 0, 47, 64
1, 86681, Note_on_c, 0, 43, 54
1, 86699, Control_c, 0, 64, 16
1, 86702, Note_off_c, 0, 47, 66
1, 86707, Note_off_c, 0, 77, 64
1, 86709, Note_off_c, 0, 43, 59
1, 86713, Control_c, 0, 64, 31
1, 86728, Control_c, 0, 64, 41
1, 86743, Control_c, 0, 64, 50
1, 86758, Control_c, 0, 64, 55
1, 86773, Control_c, 0, 64, 57
1, 86788, Control_c, 0, 64, 58
1, 86803, Control_c, 0, 64, 57
1, 86818, Control_c, 0, 64, 55
1, 86832, Control_c, 0, 64, 52
1, 86847, Control_c, 0, 64, 45
1, 86862, Control_c, 0, 64, 36
1, 86877, Control_c, 0, 64, 22
1, 86892, Control_c, 0, 64, 0
1, 87029, Note_on_c, 0, 59, 52
1, 87030, Note_on_c, 0, 55, 52
1, 87059, Note_off_c, 0, 55, 66
1, 87063, Note_off_c, 0, 59, 63
1, 87223, Note_on_c, 0, 86, 65
1, 87254, Control_c, 0, 67, 8
1, 87269, Control_c, 0, 67, 10
1, 87284, Control_c, 0, 67, 11
1, 87293, Note_on_c, 0, 84, 69
1, 87299, Control_c, 0, 67, 13
1, 87313, Control_c, 0, 67, 15
1, 87321, Note_off_c, 0, 86, 60
1, 87328, Control_c, 0, 67, 17
1, 87344, Control_c, 0, 67, 19
1, 87357, Note_on_c, 0, 83, 71
1, 87359, Control_c, 0, 67, 22
1, 87374, Control_c, 0, 67, 26
1, 87387, Note_off_c, 0, 84, 63
1, 87389, Control_c, 0, 67, 31
1, 87404, Control_c, 0, 67, 36
1, 87418, Control_c, 0, 67, 43
1, 87426, Note_off_c, 0, 83, 67
1, 87430, Note_on_c, 0, 80, 78
1, 87433, Control_c, 0, 67, 51
1, 87448, Control_c, 0, 67, 64
1, 87462, Control_c, 0, 67, 78
1, 87477, Control_c, 0, 67, 89
1, 87485, Note_off_c, 0, 80, 62
1, 87492, Control_c, 0, 67, 98
1, 87499, Note_on_c, 0, 79, 69
1, 87507, Control_c, 0, 67, 103
1, 87522, Control_c, 0, 67, 106
1, 87536, Control_c, 0, 67, 111
1, 87544, Note_off_c, 0, 79, 57
1, 87551, Control_c, 0, 67, 115
1, 87566, Note_on_c, 0, 77, 63
1, 87566, Control_c, 0, 67, 119
1, 87581, Control_c, 0, 67, 121
1, 87596, Control_c, 0, 67, 122
1, 87611, Control_c, 0, 67, 122
1, 87634, Note_on_c, 0, 60, 38
1, 87655, Note_off_c, 0, 77, 60
1, 87655, Note_on_c, 0, 75, 59
1, 87668, Note_off_c, 0, 60, 54
1, 87670, Control_c, 0, 67, 122
1, 87679, Note_off_c, 0, 75, 62
1, 87685, Control_c, 0, 67, 120
1, 87700, Control_c, 0, 67, 118
1, 87715, Control_c, 0, 67, 115
1, 87721, Note_on_c, 0, 67, 43
1, 87730, Control_c, 0, 67, 112
1, 87744, Control_c, 0, 67, 110
1, 87759, Control_c, 0, 67, 108
1, 87769, Note_off_c, 0, 67, 47
1, 87774, Control_c, 0, 67, 106
1, 87789, Control_c, 0, 67, 101
1, 87799, Note_on_c, 0, 63, 52
1, 87804, Control_c, 0, 67, 95
1, 87818, Control_c, 0, 67, 86
1, 87833, Control_c, 0, 67, 76
1, 87842, Note_off_c, 0, 63, 64
1, 87848, Control_c, 0, 67, 66
1, 87870, Control_c, 0, 67, 53
1, 87876, Note_on_c, 0, 67, 52
1, 87885, Control_c, 0, 67, 39
1, 87900, Control_c, 0, 67, 23
1, 87915, Control_c, 0, 67, 0
1, 87922, Note_off_c, 0, 67, 61
1, 87950, Note_on_c, 0, 60, 50
1, 87953, Note_on_c, 0, 72, 59
1, 87980, Note_off_c, 0, 60, 57
1, 88004, Note_off_c, 0, 72, 52
1, 88011, Note_on_c, 0, 74, 63
1, 88043, Note_on_c, 0, 67, 37
1, 88073, Note_off_c, 0, 67, 56
1, 88076, Note_off_c, 0, 74, 64
1, 88094, Note_on_c, 0, 75, 65
1, 88105, Note_on_c, 0, 63, 51
1, 88145, Note_off_c, 0, 75, 62
1, 88150, Note_off_c, 0, 63, 64
1, 88162, Note_on_c, 0, 77, 73
1, 88165, Note_on_c, 0, 67, 49
1, 88217, Note_off_c, 0, 67, 60
1, 88233, Note_on_c, 0, 79, 75
1, 88234, Note_off_c, 0, 77, 60
1, 88243, Note_on_c, 0, 60, 48
1, 88287, Note_off_c, 0, 60, 64
1, 88305, Note_on_c, 0, 81, 81
1, 88329, Note_off_c, 0, 79, 62
1, 88331, Control_c, 0, 64, 10
1, 88332, Note_on_c, 0, 67, 52
1, 88346, Control_c, 0, 64, 16
1, 88360, Control_c, 0, 64, 18
1, 88375, Control_c, 0, 64, 19
1, 88377, Note_off_c, 0, 67, 56
1, 88384, Note_on_c, 0, 83, 73
1, 88390, Control_c, 0, 64, 20
1, 88405, Control_c, 0, 64, 20
1, 88406, Note_off_c, 0, 81, 63
1, 88407, Note_on_c, 0, 63, 60
1, 88420, Control_c, 0, 64, 21
1, 88449, Note_off_c, 0, 63, 64
1, 88449, Control_c, 0, 64, 17
1, 88463, Note_on_c, 0, 84, 72
1, 88464, Control_c, 0, 64, 0
1, 88469, Note_off_c, 0, 83, 67
1, 88488, Note_off_c, 0, 84, 66
1, 88490, Note_on_c, 0, 67, 51
1, 88535, Note_on_c, 0, 84, 91
1, 88541, Note_off_c, 0, 67, 57
1, 88564, Note_on_c, 0, 62, 61
1, 88567, Control_c, 0, 64, 11
1, 88582, Control_c, 0, 64, 18
1, 88597, Control_c, 0, 64, 22
1, 88603, Note_off_c, 0, 62, 64
1, 88619, Control_c, 0, 64, 23
1, 88634, Control_c, 0, 64, 24
1, 88660, Note_on_c, 0, 67, 49
1, 88678, Control_c, 0, 64, 23
1, 88693, Control_c, 0, 64, 21
1, 88699, Note_off_c, 0, 67, 57
1, 88707, Control_c, 0, 64, 19
1, 88722, Control_c, 0, 64, 18
1, 88725, Note_on_c, 0, 65, 55
1, 88737, Control_c, 0, 64, 14
1, 88752, Control_c, 0, 64, 9
1, 88767, Control_c, 0, 64, 0
1, 88775, Note_off_c, 0, 65, 62
1, 88795, Note_on_c, 0, 67, 57
1, 88860, Note_off_c, 0, 67, 60
1, 88870, Note_on_c, 0, 62, 61
1, 88877, Note_on_c, 0, 83, 71
1, 88881, Note_off_c, 0, 84, 61
1, 88901, Note_off_c, 0, 83, 68
1, 88918, Note_off_c, 0, 62, 62
1, 88955, Note_on_c, 0, 67, 55
1, 89019, Note_off_c, 0, 67, 59
1, 89029, Note_on_c, 0, 80, 74
1, 89037, Note_on_c, 0, 60, 51
1, 89057, Note_off_c, 0, 80, 59
1, 89075, Note_off_c, 0, 60, 65
1, 89133, Note_on_c, 0, 67, 46
1, 89167, Note_off_c, 0, 67, 55
1, 89199, Note_on_c, 0, 79, 55
1, 89208, Note_on_c, 0, 59, 40
1, 89229, Note_off_c, 0, 79, 54
1, 89247, Note_off_c, 0, 59, 52
1, 89286, Note_on_c, 0, 67, 40
1, 89337, Note_off_c, 0, 67, 61
1, 89361, Note_on_c, 0, 77, 66
1, 89364, Note_on_c, 0, 62, 46
1, 89405, Note_off_c, 0, 62, 63
1, 89416, Note_off_c, 0, 77, 58
1, 89453, Note_on_c, 0, 67, 44
1, 89500, Note_off_c, 0, 67, 54
1, 89520, Note_on_c, 0, 60, 47
1, 89521, Note_on_c, 0, 75, 55
1, 89560, Note_off_c, 0, 60, 65
1, 89605, Control_c, 0, 64, 12
1, 89610, Note_on_c, 0, 67, 47
1, 89620, Control_c, 0, 64, 26
1, 89634, Control_c, 0, 64, 35
1, 89649, Control_c, 0, 64, 41
1, 89652, Note_off_c, 0, 67, 57
1, 89661, Note_off_c, 0, 75, 54
1, 89664, Control_c, 0, 64, 46
1, 89678, Note_on_c, 0, 63, 61
1, 89679, Control_c, 0, 64, 49
1, 89694, Control_c, 0, 64, 51
1, 89723, Control_c, 0, 64, 50
1, 89733, Note_off_c, 0, 63, 58
1, 89739, Control_c, 0, 64, 49
1, 89749, Note_on_c, 0, 67, 60
1, 89754, Control_c, 0, 64, 48
1, 89769, Control_c, 0, 64, 49
1, 89804, Note_off_c, 0, 67, 54
1, 89813, Control_c, 0, 64, 47
1, 89820, Note_on_c, 0, 72, 71
1, 89828, Control_c, 0, 64, 42
1, 89828, Note_on_c, 0, 60, 55
1, 89843, Control_c, 0, 64, 31
1, 89857, Control_c, 0, 64, 0
1, 89867, Note_off_c, 0, 60, 65
1, 89887, Note_on_c, 0, 74, 73
1, 89894, Note_off_c, 0, 72, 61
1, 89912, Note_on_c, 0, 67, 53
1, 89931, Control_c, 0, 64, 14
1, 89946, Control_c, 0, 64, 20
1, 89951, Note_off_c, 0, 67, 62
1, 89961, Control_c, 0, 64, 24
1, 89962, Note_on_c, 0, 75, 86
1, 89966, Note_off_c, 0, 74, 67
1, 89968, Note_on_c, 0, 63, 64
1, 89991, Control_c, 0, 64, 20
1, 90005, Control_c, 0, 64, 12
1, 90013, Note_off_c, 0, 75, 66
1, 90020, Control_c, 0, 64, 11
1, 90029, Note_on_c, 0, 77, 88
1, 90033, Note_off_c, 0, 63, 62
1, 90035, Control_c, 0, 64, 13
1, 90039, Note_on_c, 0, 67, 66
1, 90049, Control_c, 0, 64, 17
1, 90064, Control_c, 0, 64, 22
1, 90079, Control_c, 0, 64, 25
1, 90094, Control_c, 0, 64, 30
1, 90110, Note_on_c, 0, 79, 89
1, 90110, Note_off_c, 0, 67, 62
1, 90115, Note_on_c, 0, 60, 62
1, 90117, Control_c, 0, 64, 34
1, 90123, Note_off_c, 0, 77, 59
1, 90131, Control_c, 0, 64, 39
1, 90146, Control_c, 0, 64, 42
1, 90160, Control_c, 0, 64, 43
1, 90171, Note_off_c, 0, 60, 62
1, 90172, Note_on_c, 0, 80, 91
1, 90190, Control_c, 0, 64, 42
1, 90193, Note_on_c, 0, 67, 62
1, 90197, Note_off_c, 0, 79, 61
1, 90204, Control_c, 0, 64, 42
1, 90219, Control_c, 0, 64, 41
1, 90234, Control_c, 0, 64, 41
1, 90237, Note_on_c, 0, 82, 89
1, 90249, Control_c, 0, 64, 40
1, 90256, Note_off_c, 0, 67, 63
1, 90264, Control_c, 0, 64, 37
1, 90264, Note_off_c, 0, 80, 65
1, 90269, Note_on_c, 0, 63, 60
1, 90278, Control_c, 0, 64, 35
1, 90293, Control_c, 0, 64, 34
1, 90308, Control_c, 0, 64, 34
1, 90323, Control_c, 0, 64, 33
1, 90325, Note_on_c, 0, 84, 83
1, 90329, Note_off_c, 0, 82, 66
1, 90338, Control_c, 0, 64, 29
1, 90340, Note_off_c, 0, 63, 62
1, 90345, Note_on_c, 0, 67, 60
1, 90353, Control_c, 0, 64, 12
1, 90368, Control_c, 0, 64, 0
1, 90413, Note_off_c, 0, 67, 62
1, 90427, Note_on_c, 0, 58, 55
1, 90433, Note_on_c, 0, 85, 90
1, 90466, Note_off_c, 0, 84, 62
1, 90501, Control_c, 0, 64, 13
1, 90504, Note_off_c, 0, 58, 59
1, 90516, Control_c, 0, 64, 24
1, 90523, Note_on_c, 0, 67, 52
1, 90532, Control_c, 0, 64, 31
1, 90547, Control_c, 0, 64, 38
1, 90561, Control_c, 0, 64, 42
1, 90569, Note_off_c, 0, 67, 63
1, 90576, Control_c, 0, 64, 45
1, 90591, Control_c, 0, 64, 47
1, 90594, Note_on_c, 0, 63, 59
1, 90606, Control_c, 0, 64, 49
1, 90635, Control_c, 0, 64, 48
1, 90642, Note_off_c, 0, 63, 59
1, 90650, Control_c, 0, 64, 47
1, 90665, Control_c, 0, 64, 46
1, 90675, Note_on_c, 0, 67, 60
1, 90679, Control_c, 0, 64, 45
1, 90694, Control_c, 0, 64, 44
1, 90709, Control_c, 0, 64, 42
1, 90723, Note_off_c, 0, 67, 62
1, 90724, Control_c, 0, 64, 39
1, 90739, Control_c, 0, 64, 35
1, 90753, Control_c, 0, 64, 29
1, 90754, Note_on_c, 0, 58, 63
1, 90768, Control_c, 0, 64, 21
1, 90783, Control_c, 0, 64, 0
1, 90792, Note_off_c, 0, 58, 63
1, 90835, Note_on_c, 0, 67, 54
1, 90890, Note_off_c, 0, 85, 57
1, 90895, Note_off_c, 0, 67, 58
1, 90898, Note_on_c, 0, 82, 71
1, 90919, Note_on_c, 0, 63, 61
1, 90965, Note_on_c, 0, 79, 73
1, 90970, Note_off_c, 0, 82, 65
1, 90977, Note_off_c, 0, 63, 61
1, 91007, Note_on_c, 0, 67, 54
1, 91017, Note_off_c, 0, 79, 62
1, 91047, Note_on_c, 0, 75, 65
1, 91047, Note_off_c, 0, 67, 63
1, 91062, Note_on_c, 0, 58, 64
1, 91076, Note_off_c, 0, 75, 65
1, 91116, Note_off_c, 0, 58, 60
1, 91145, Note_on_c, 0, 67, 54
1, 91190, Note_off_c, 0, 67, 60
1, 91218, Note_on_c, 0, 73, 65
1, 91226, Note_on_c, 0, 63, 56
1, 91250, Note_off_c, 0, 73, 61
1, 91301, Note_on_c, 0, 67, 27
1, 91340, Note_off_c, 0, 67, 46
1, 91365, Note_on_c, 0, 56, 48
1, 91385, Note_on_c, 0, 72, 59
1, 91444, Note_off_c, 0, 63, 0
1, 91459, Note_on_c, 0, 63, 38
1, 91459, Note_off_c, 0, 56, 59
1, 91472, Control_c, 0, 64, 14
1, 91487, Control_c, 0, 64, 21
1, 91501, Control_c, 0, 64, 26
1, 91508, Note_off_c, 0, 72, 58
1, 91512, Note_off_c, 0, 63, 58
1, 91516, Control_c, 0, 64, 29
1, 91531, Control_c, 0, 64, 31
1, 91533, Note_on_c, 0, 60, 54
1, 91546, Control_c, 0, 64, 32
1, 91561, Control_c, 0, 64, 32
1, 91572, Note_off_c, 0, 60, 65
1, 91590, Control_c, 0, 64, 32
1, 91613, Control_c, 0, 64, 30
1, 91615, Note_on_c, 0, 63, 55
1, 91628, Control_c, 0, 64, 28
1, 91642, Control_c, 0, 64, 23
1, 91656, Note_off_c, 0, 63, 62
1, 91658, Control_c, 0, 64, 17
1, 91673, Control_c, 0, 64, 9
1, 91688, Note_on_c, 0, 56, 54
1, 91688, Note_on_c, 0, 68, 58
1, 91688, Control_c, 0, 64, 0
1, 91727, Note_off_c, 0, 56, 66
1, 91758, Note_on_c, 0, 63, 52
1, 91758, Note_on_c, 0, 70, 65
1, 91760, Note_off_c, 0, 68, 58
1, 91802, Note_off_c, 0, 63, 62
1, 91808, Note_off_c, 0, 70, 61
1, 91830, Note_on_c, 0, 60, 53
1, 91832, Note_on_c, 0, 72, 64
1, 91870, Note_off_c, 0, 72, 56
1, 91886, Note_off_c, 0, 60, 59
1, 91903, Note_on_c, 0, 73, 66
1, 91915, Note_on_c, 0, 63, 45
1, 91958, Note_off_c, 0, 63, 53
1, 91958, Note_off_c, 0, 73, 64
1, 91985, Note_on_c, 0, 56, 46
1, 91992, Note_on_c, 0, 75, 58
1, 92021, Note_off_c, 0, 75, 65
1, 92032, Note_off_c, 0, 56, 61
1, 92059, Note_on_c, 0, 63, 53
1, 92059, Note_on_c, 0, 77, 64
1, 92103, Note_off_c, 0, 77, 61
1, 92133, Note_on_c, 0, 79, 71
1, 92135, Note_off_c, 0, 63, 65
1, 92158, Note_on_c, 0, 60, 41
1, 92176, Note_off_c, 0, 79, 64
1, 92206, Note_on_c, 0, 80, 61
1, 92212, Note_off_c, 0, 60, 62
1, 92225, Note_off_c, 0, 80, 64
1, 92244, Note_on_c, 0, 63, 45
1, 92287, Note_off_c, 0, 63, 62
1, 92290, Note_on_c, 0, 80, 74
1, 92315, Note_on_c, 0, 58, 50
1, 92360, Note_off_c, 0, 58, 65
1, 92401, Note_on_c, 0, 63, 56
1, 92445, Note_off_c, 0, 63, 66
1, 92471, Note_on_c, 0, 61, 58
1, 92528, Note_off_c, 0, 61, 59
1, 92539, Note_on_c, 0, 63, 56
1, 92607, Note_off_c, 0, 63, 64
1, 92619, Note_off_c, 0, 80, 47
1, 92624, Note_on_c, 0, 58, 55
1, 92639, Note_on_c, 0, 79, 62
1, 92675, Note_off_c, 0, 79, 62
1, 92682, Note_off_c, 0, 58, 58
1, 92715, Note_on_c, 0, 63, 42
1, 92772, Note_off_c, 0, 63, 63
1, 92789, Note_on_c, 0, 77, 71
1, 92793, Note_on_c, 0, 56, 53
1, 92821, Note_off_c, 0, 77, 61
1, 92846, Note_off_c, 0, 56, 59
1, 92886, Note_on_c, 0, 63, 43
1, 92925, Note_off_c, 0, 63, 58
1, 92943, Note_on_c, 0, 75, 73
1, 92961, Note_on_c, 0, 55, 35
1, 92968, Note_off_c, 0, 75, 66
1, 92994, Note_off_c, 0, 55, 54
1, 93030, Note_on_c, 0, 63, 48
1, 93083, Note_off_c, 0, 63, 62
1, 93113, Note_on_c, 0, 58, 51
1, 93113, Note_on_c, 0, 73, 59
1, 93152, Note_off_c, 0, 73, 56
1, 93159, Note_off_c, 0, 58, 60
1, 93199, Note_on_c, 0, 63, 49
1, 93242, Note_off_c, 0, 63, 59
1, 93268, Note_on_c, 0, 56, 48
1, 93283, Note_on_c, 0, 72, 58
1, 93309, Note_off_c, 0, 56, 63
1, 93352, Note_on_c, 0, 63, 48
1, 93402, Note_off_c, 0, 63, 55
1, 93407, Control_c, 0, 64, 17
1, 93422, Control_c, 0, 64, 24
1, 93432, Note_on_c, 0, 60, 47
1, 93437, Control_c, 0, 64, 28
1, 93452, Control_c, 0, 64, 32
1, 93465, Note_off_c, 0, 72, 48
1, 93467, Control_c, 0, 64, 35
1, 93481, Note_off_c, 0, 60, 61
1, 93481, Control_c, 0, 64, 38
1, 93496, Control_c, 0, 64, 40
1, 93509, Note_on_c, 0, 63, 56
1, 93511, Control_c, 0, 64, 40
1, 93548, Note_off_c, 0, 63, 66
1, 93555, Control_c, 0, 64, 40
1, 93570, Control_c, 0, 64, 39
1, 93573, Note_on_c, 0, 56, 56
1, 93580, Note_on_c, 0, 72, 60
1, 93585, Control_c, 0, 64, 38
1, 93599, Control_c, 0, 64, 36
1, 93614, Note_off_c, 0, 56, 66
1, 93614, Control_c, 0, 64, 33
1, 93629, Control_c, 0, 64, 27
1, 93644, Control_c, 0, 64, 16
1, 93651, Note_on_c, 0, 63, 57
1, 93652, Note_on_c, 0, 73, 77
1, 93652, Note_off_c, 0, 72, 59
1, 93659, Control_c, 0, 64, 0
1, 93704, Note_off_c, 0, 63, 64
1, 93725, Note_on_c, 0, 60, 57
1, 93734, Note_on_c, 0, 75, 75
1, 93741, Note_off_c, 0, 73, 62
1, 93778, Control_c, 0, 64, 9
1, 93785, Note_off_c, 0, 60, 63
1, 93787, Note_off_c, 0, 75, 64
1, 93793, Control_c, 0, 64, 14
1, 93794, Note_on_c, 0, 77, 85
1, 93796, Note_on_c, 0, 63, 64
1, 93808, Control_c, 0, 64, 15
1, 93864, Note_off_c, 0, 63, 65
1, 93872, Note_on_c, 0, 79, 86
1, 93877, Note_on_c, 0, 56, 68
1, 93880, Note_off_c, 0, 77, 61
1, 93890, Control_c, 0, 64, 14
1, 93904, Control_c, 0, 64, 11
1, 93919, Control_c, 0, 64, 0
1, 93937, Note_off_c, 0, 56, 62
1, 93942, Note_on_c, 0, 80, 84
1, 93964, Note_on_c, 0, 63, 60
1, 93966, Note_off_c, 0, 79, 63
1, 94005, Note_on_c, 0, 82, 81
1, 94017, Note_off_c, 0, 63, 64
1, 94020, Note_off_c, 0, 80, 63
1, 94034, Note_on_c, 0, 60, 61
1, 94091, Note_on_c, 0, 84, 79
1, 94093, Note_off_c, 0, 82, 63
1, 94103, Note_off_c, 0, 60, 61
1, 94119, Note_on_c, 0, 63, 48
1, 94192, Note_on_c, 0, 55, 45
1, 94193, Note_on_c, 0, 82, 81
1, 94205, Note_off_c, 0, 63, 52
1, 94235, Note_off_c, 0, 84, 58
1, 94273, Note_off_c, 0, 55, 52
1, 94275, Control_c, 0, 64, 19
1, 94290, Control_c, 0, 64, 25
1, 94304, Control_c, 0, 64, 28
1, 94305, Note_on_c, 0, 64, 42
1, 94319, Control_c, 0, 64, 30
1, 94334, Control_c, 0, 64, 31
1, 94345, Note_off_c, 0, 64, 62
1, 94363, Note_on_c, 0, 58, 54
1, 94364, Control_c, 0, 64, 30
1, 94378, Control_c, 0, 64, 29
1, 94393, Control_c, 0, 64, 27
1, 94404, Note_off_c, 0, 58, 62
1, 94408, Control_c, 0, 64, 24
1, 94422, Control_c, 0, 64, 19
1, 94437, Control_c, 0, 64, 13
1, 94440, Note_on_c, 0, 64, 59
1, 94452, Control_c, 0, 64, 0
1, 94478, Note_off_c, 0, 64, 63
1, 94523, Note_on_c, 0, 55, 45
1, 94553, Note_off_c, 0, 55, 58
1, 94576, Note_on_c, 0, 64, 55
1, 94634, Note_off_c, 0, 82, 54
1, 94641, Note_off_c, 0, 64, 57
1, 94672, Note_on_c, 0, 58, 48
1, 94674, Note_on_c, 0, 79, 59
1, 94704, Note_off_c, 0, 58, 55
1, 94718, Note_off_c, 0, 79, 60
1, 94733, Note_on_c, 0, 76, 65
1, 94759, Note_on_c, 0, 64, 46
1, 94774, Note_off_c, 0, 76, 65
1, 94790, Note_off_c, 0, 64, 55
1, 94811, Note_on_c, 0, 72, 64
1, 94830, Note_on_c, 0, 55, 46
1, 94842, Note_off_c, 0, 72, 64
1, 94857, Note_off_c, 0, 55, 60
1, 94887, Note_on_c, 0, 64, 51
1, 94943, Note_off_c, 0, 64, 56
1, 94976, Note_on_c, 0, 70, 58
1, 94985, Note_on_c, 0, 58, 39
1, 95012, Note_off_c, 0, 58, 57
1, 95012, Note_off_c, 0, 70, 60
1, 95075, Note_on_c, 0, 64, 11
1, 95121, Note_on_c, 0, 53, 52
1, 95122, Note_off_c, 0, 64, 40
1, 95141, Note_on_c, 0, 68, 52
1, 95176, Note_off_c, 0, 53, 59
1, 95219, Note_on_c, 0, 60, 48
1, 95231, Control_c, 0, 64, 11
1, 95245, Control_c, 0, 64, 20
1, 95260, Control_c, 0, 64, 25
1, 95262, Note_off_c, 0, 60, 64
1, 95275, Control_c, 0, 64, 30
1, 95282, Note_on_c, 0, 56, 58
1, 95290, Control_c, 0, 64, 33
1, 95305, Control_c, 0, 64, 36
1, 95321, Control_c, 0, 64, 38
1, 95327, Note_off_c, 0, 56, 66
1, 95336, Control_c, 0, 64, 38
1, 95368, Note_on_c, 0, 60, 61
1, 95373, Control_c, 0, 64, 38
1, 95388, Control_c, 0, 64, 37
1, 95403, Control_c, 0, 64, 35
1, 95406, Note_off_c, 0, 60, 62
1, 95417, Control_c, 0, 64, 32
1, 95429, Note_off_c, 0, 68, 31
1, 95432, Control_c, 0, 64, 27
1, 95447, Note_on_c, 0, 53, 58
1, 95447, Control_c, 0, 64, 18
1, 95453, Note_on_c, 0, 65, 64
1, 95462, Control_c, 0, 64, 0
1, 95485, Note_off_c, 0, 53, 66
1, 95519, Note_on_c, 0, 60, 58
1, 95524, Note_off_c, 0, 65, 61
1, 95525, Note_on_c, 0, 67, 71
1, 95562, Note_off_c, 0, 60, 60
1, 95586, Note_on_c, 0, 56, 58
1, 95587, Note_on_c, 0, 68, 78
1, 95587, Note_off_c, 0, 67, 62
1, 95646, Note_off_c, 0, 56, 60
1, 95668, Note_off_c, 0, 68, 60
1, 95672, Note_on_c, 0, 70, 69
1, 95676, Note_on_c, 0, 60, 53
1, 95698, Note_off_c, 0, 70, 67
1, 95716, Note_off_c, 0, 60, 65
1, 95741, Note_on_c, 0, 72, 74
1, 95746, Note_on_c, 0, 53, 53
1, 95793, Note_off_c, 0, 53, 62
1, 95802, Note_off_c, 0, 72, 61
1, 95807, Note_on_c, 0, 74, 74
1, 95838, Note_on_c, 0, 60, 53
1, 95891, Note_off_c, 0, 74, 64
1, 95891, Note_on_c, 0, 76, 74
1, 95918, Note_off_c, 0, 60, 62
1, 95930, Note_on_c, 0, 56, 51
1, 95954, Note_off_c, 0, 76, 67
1, 95965, Note_on_c, 0, 77, 57
1, 95975, Note_off_c, 0, 56, 63
1, 95987, Note_off_c, 0, 77, 61
1, 96035, Note_on_c, 0, 60, 42
1, 96036, Note_on_c, 0, 77, 89
1, 96063, Note_off_c, 0, 60, 58
1, 96075, Note_on_c, 0, 55, 57
1, 96106, Control_c, 0, 64, 11
1, 96118, Note_off_c, 0, 55, 66
1, 96121, Control_c, 0, 64, 18
1, 96136, Control_c, 0, 64, 21
1, 96151, Control_c, 0, 64, 23
1, 96159, Note_on_c, 0, 60, 60
1, 96166, Control_c, 0, 64, 23
1, 96196, Control_c, 0, 64, 22
1, 96201, Note_off_c, 0, 60, 63
1, 96201, Note_off_c, 0, 77, 0
1, 96201, Note_on_c, 0, 77, 15
1, 96210, Control_c, 0, 64, 19
1, 96225, Control_c, 0, 64, 15
1, 96240, Control_c, 0, 64, 9
1, 96241, Note_on_c, 0, 58, 54
1, 96255, Control_c, 0, 64, 0
1, 96295, Note_off_c, 0, 58, 60
1, 96318, Note_on_c, 0, 60, 54
1, 96359, Note_off_c, 0, 60, 63
1, 96365, Note_off_c, 0, 77, 52
1, 96388, Note_on_c, 0, 55, 49
1, 96392, Note_on_c, 0, 76, 64
1, 96419, Note_off_c, 0, 76, 67
1, 96436, Note_off_c, 0, 55, 64
1, 96477, Note_on_c, 0, 60, 56
1, 96526, Note_off_c, 0, 60, 56
1, 96556, Note_on_c, 0, 73, 66
1, 96565, Note_on_c, 0, 53, 42
1, 96577, Note_off_c, 0, 73, 67
1, 96597, Note_off_c, 0, 53, 57
1, 96645, Note_on_c, 0, 60, 57
1, 96683, Note_off_c, 0, 60, 65
1, 96714, Note_on_c, 0, 52, 51
1, 96724, Note_on_c, 0, 72, 58
1, 96753, Note_off_c, 0, 52, 65
1, 96753, Note_off_c, 0, 72, 52
1, 96799, Note_on_c, 0, 60, 51
1, 96848, Note_off_c, 0, 60, 64
1, 96876, Note_on_c, 0, 55, 50
1, 96893, Note_on_c, 0, 70, 65
1, 96917, Note_off_c, 0, 55, 64
1, 96941, Note_off_c, 0, 70, 55
1, 96950, Note_on_c, 0, 60, 55
1, 97020, Note_off_c, 0, 60, 63
1, 97048, Note_on_c, 0, 53, 48
1, 97053, Note_on_c, 0, 68, 60
1, 97080, Note_off_c, 0, 53, 61
1, 97136, Note_on_c, 0, 60, 41
1, 97167, Control_c, 0, 64, 11
1, 97170, Note_off_c, 0, 60, 57
1, 97182, Control_c, 0, 64, 19
1, 97196, Control_c, 0, 64, 23
1, 97198, Note_on_c, 0, 56, 52
1, 97211, Control_c, 0, 64, 26
1, 97226, Control_c, 0, 64, 28
1, 97248, Note_off_c, 0, 56, 60
1, 97270, Control_c, 0, 64, 27
1, 97273, Note_on_c, 0, 60, 53
1, 97284, Note_off_c, 0, 68, 32
1, 97285, Control_c, 0, 64, 26
1, 97300, Control_c, 0, 64, 26
1, 97315, Control_c, 0, 64, 25
1, 97328, Note_off_c, 0, 60, 60
1, 97329, Control_c, 0, 64, 24
1, 97344, Control_c, 0, 64, 21
1, 97354, Note_on_c, 0, 53, 50
1, 97359, Control_c, 0, 64, 14
1, 97373, Note_on_c, 0, 65, 67
1, 97373, Control_c, 0, 64, 0
1, 97392, Note_off_c, 0, 53, 65
1, 97443, Note_on_c, 0, 60, 52
1, 97448, Note_on_c, 0, 67, 71
1, 97462, Note_off_c, 0, 65, 62
1, 97474, Note_off_c, 0, 60, 57
1, 97508, Note_on_c, 0, 56, 57
1, 97513, Note_on_c, 0, 68, 84
1, 97530, Note_off_c, 0, 67, 62
1, 97561, Note_off_c, 0, 56, 60
1, 97584, Note_on_c, 0, 60, 51
1, 97605, Note_on_c, 0, 70, 80
1, 97614, Note_off_c, 0, 68, 62
1, 97641, Note_off_c, 0, 60, 62
1, 97651, Note_off_c, 0, 70, 66
1, 97674, Note_on_c, 0, 53, 48
1, 97677, Control_c, 0, 64, 8
1, 97683, Note_on_c, 0, 72, 85
1, 97692, Control_c, 0, 64, 18
1, 97707, Note_off_c, 0, 53, 66
1, 97707, Control_c, 0, 64, 23
1, 97723, Control_c, 0, 64, 28
1, 97738, Control_c, 0, 64, 29
1, 97752, Note_off_c, 0, 72, 60
1, 97755, Note_on_c, 0, 74, 78
1, 97756, Note_on_c, 0, 60, 54
1, 97767, Control_c, 0, 64, 29
1, 97782, Control_c, 0, 64, 28
1, 97794, Note_off_c, 0, 60, 65
1, 97796, Control_c, 0, 64, 27
1, 97811, Control_c, 0, 64, 24
1, 97817, Note_on_c, 0, 76, 77
1, 97826, Control_c, 0, 64, 21
1, 97832, Note_on_c, 0, 56, 52
1, 97835, Note_off_c, 0, 74, 65
1, 97841, Control_c, 0, 64, 17
1, 97856, Control_c, 0, 64, 15
1, 97871, Control_c, 0, 64, 14
1, 97886, Control_c, 0, 64, 13
1, 97889, Note_off_c, 0, 56, 58
1, 97895, Note_on_c, 0, 77, 74
1, 97899, Note_off_c, 0, 76, 66
1, 97901, Control_c, 0, 64, 10
1, 97908, Note_on_c, 0, 60, 54
1, 97915, Control_c, 0, 64, 0
1, 97983, Note_off_c, 0, 60, 64
1, 97984, Note_on_c, 0, 78, 75
1, 97995, Note_off_c, 0, 77, 56
1, 98004, Note_on_c, 0, 51, 47
1, 98047, Note_off_c, 0, 51, 65
1, 98106, Note_on_c, 0, 60, 44
1, 98133, Note_off_c, 0, 60, 59
1, 98169, Note_on_c, 0, 56, 46
1, 98202, Note_off_c, 0, 56, 62
1, 98227, Note_on_c, 0, 60, 54
1, 98282, Note_off_c, 0, 60, 58
1, 98312, Note_on_c, 0, 51, 50
1, 98345, Note_off_c, 0, 51, 60
1, 98412, Note_on_c, 0, 60, 46
1, 98441, Note_off_c, 0, 60, 58
1, 98446, Note_off_c, 0, 78, 59
1, 98460, Note_on_c, 0, 75, 66
1, 98476, Note_on_c, 0, 56, 52
1, 98521, Note_off_c, 0, 56, 64
1, 98536, Note_off_c, 0, 75, 61
1, 98541, Note_on_c, 0, 72, 53
1, 98549, Note_on_c, 0, 60, 43
1, 98586, Note_off_c, 0, 72, 60
1, 98592, Note_off_c, 0, 60, 56
1, 98604, Note_on_c, 0, 68, 66
1, 98615, Note_on_c, 0, 51, 59
1, 98631, Note_off_c, 0, 68, 66
1, 98653, Note_off_c, 0, 51, 64
1, 98695, Note_on_c, 0, 60, 58
1, 98732, Note_off_c, 0, 60, 64
1, 98768, Control_c, 0, 67, 9
1, 98776, Note_on_c, 0, 56, 57
1, 98783, Control_c, 0, 67, 10
1, 98798, Control_c, 0, 67, 12
1, 98813, Control_c, 0, 67, 14
1, 98819, Note_off_c, 0, 56, 62
1, 98828, Control_c, 0, 67, 16
1, 98843, Control_c, 0, 67, 18
1, 98845, Note_on_c, 0, 60, 53
1, 98857, Control_c, 0, 67, 21
1, 98872, Control_c, 0, 67, 25
1, 98882, Note_off_c, 0, 60, 66
1, 98887, Control_c, 0, 67, 28
1, 98902, Control_c, 0, 67, 32
1, 98917, Control_c, 0, 67, 37
1, 98929, Note_on_c, 0, 49, 56
1, 98932, Control_c, 0, 67, 41
1, 98946, Note_on_c, 0, 65, 62
1, 98946, Control_c, 0, 67, 45
1, 98961, Control_c, 0, 67, 49
1, 98976, Control_c, 0, 67, 50
1, 99006, Control_c, 0, 67, 51
1, 99012, Note_off_c, 0, 49, 61
1, 99032, Note_on_c, 0, 56, 44
1, 99050, Control_c, 0, 67, 50
1, 99065, Control_c, 0, 67, 50
1, 99072, Note_off_c, 0, 56, 57
1, 99080, Control_c, 0, 64, 12
1, 99080, Control_c, 0, 67, 49
1, 99102, Control_c, 0, 64, 19
1, 99102, Control_c, 0, 67, 49
1, 99117, Control_c, 0, 64, 23
1, 99117, Control_c, 0, 67, 48
1, 99119, Note_on_c, 0, 53, 47
1, 99132, Control_c, 0, 64, 25
1, 99145, Control_c, 0, 64, 26
1, 99145, Control_c, 0, 67, 47
1, 99162, Note_off_c, 0, 53, 64
1, 99175, Control_c, 0, 67, 46
1, 99186, Note_on_c, 0, 56, 54
1, 99205, Control_c, 0, 67, 46
1, 99219, Control_c, 0, 64, 25
1, 99219, Control_c, 0, 67, 45
1, 99234, Control_c, 0, 64, 22
1, 99234, Control_c, 0, 67, 45
1, 99240, Note_off_c, 0, 56, 62
1, 99242, Note_off_c, 0, 65, 65
1, 99249, Control_c, 0, 64, 9
1, 99249, Control_c, 0, 67, 43
1, 99264, Control_c, 0, 64, 0
1, 99264, Control_c, 0, 67, 42
1, 99279, Note_on_c, 0, 49, 58
1, 99279, Control_c, 0, 67, 39
1, 99293, Control_c, 0, 67, 37
1, 99308, Control_c, 0, 67, 35
1, 99322, Note_off_c, 0, 49, 65
1, 99324, Control_c, 0, 67, 31
1, 99339, Control_c, 0, 67, 27
1, 99350, Note_on_c, 0, 56, 52
1, 99354, Control_c, 0, 67, 23
1, 99368, Control_c, 0, 67, 18
1, 99383, Control_c, 0, 67, 11
1, 99392, Note_off_c, 0, 56, 65
1, 99398, Control_c, 0, 67, 0
1, 99424, Note_on_c, 0, 53, 54
1, 99429, Note_on_c, 0, 77, 77
1, 99451, Note_off_c, 0, 77, 67
1, 99477, Note_off_c, 0, 53, 62
1, 99497, Note_on_c, 0, 56, 57
1, 99559, Note_off_c, 0, 56, 58
1, 99591, Note_on_c, 0, 49, 57
1, 99602, Note_on_c, 0, 77, 84
1, 99621, Note_off_c, 0, 77, 71
1, 99635, Note_off_c, 0, 49, 66
1, 99671, Note_on_c, 0, 56, 67
1, 99729, Note_off_c, 0, 56, 56
1, 99765, Note_on_c, 0, 53, 62
1, 99770, Note_on_c, 0, 77, 92
1, 99800, Note_off_c, 0, 77, 61
1, 99835, Note_on_c, 0, 56, 68
1, 99854, Note_off_c, 0, 53, 62
1, 99920, Note_off_c, 0, 56, 64
1, 99939, Note_on_c, 0, 75, 61
1, 99942, Note_on_c, 0, 48, 58
1, 99960, Note_on_c, 0, 77, 84
1, 99987, Note_on_c, 0, 78, 92
1, 99993, Note_off_c, 0, 48, 61
1, 99995, Note_off_c, 0, 75, 63
1, 100013, Control_c, 0, 64, 22
1, 100022, Note_on_c, 0, 56, 52
1, 100028, Control_c, 0, 64, 29
1, 100030, Note_off_c, 0, 77, 64
1, 100042, Control_c, 0, 64, 34
1, 100057, Control_c, 0, 64, 38
1, 100072, Control_c, 0, 64, 41
1, 100078, Note_off_c, 0, 56, 63
1, 100087, Control_c, 0, 64, 42
1, 100103, Note_on_c, 0, 51, 63
1, 100118, Control_c, 0, 64, 41
1, 100133, Control_c, 0, 64, 39
1, 100147, Control_c, 0, 64, 37
1, 100153, Note_off_c, 0, 51, 60
1, 100162, Control_c, 0, 64, 35
1, 100177, Control_c, 0, 64, 32
1, 100190, Note_on_c, 0, 56, 58
1, 100191, Control_c, 0, 64, 28
1, 100206, Control_c, 0, 64, 21
1, 100221, Control_c, 0, 64, 12
1, 100233, Note_off_c, 0, 56, 67
1, 100236, Control_c, 0, 64, 0
1, 100265, Note_on_c, 0, 48, 64
1, 100307, Note_off_c, 0, 48, 64
1, 100338, Note_on_c, 0, 56, 59
1, 100387, Note_off_c, 0, 56, 59
1, 100421, Note_on_c, 0, 51, 61
1, 100432, Note_off_c, 0, 78, 64
1, 100437, Note_on_c, 0, 75, 70
1, 100480, Note_off_c, 0, 51, 58
1, 100504, Note_on_c, 0, 56, 57
1, 100514, Note_on_c, 0, 72, 63
1, 100524, Note_off_c, 0, 75, 62
1, 100549, Note_off_c, 0, 56, 64
1, 100576, Note_off_c, 0, 72, 62
1, 100580, Note_on_c, 0, 48, 57
1, 100583, Note_on_c, 0, 68, 71
1, 100621, Note_off_c, 0, 68, 63
1, 100628, Note_off_c, 0, 48, 64
1, 100675, Note_on_c, 0, 56, 54
1, 100747, Note_off_c, 0, 56, 57
1, 100756, Note_on_c, 0, 66, 65
1, 100773, Note_on_c, 0, 51, 49
1, 100785, Note_off_c, 0, 66, 65
1, 100819, Note_off_c, 0, 51, 64
1, 100854, Note_on_c, 0, 56, 49
1, 100907, Note_off_c, 0, 56, 62
1, 100934, Note_on_c, 0, 65, 67
1, 100935, Note_on_c, 0, 49, 49
1, 100977, Note_off_c, 0, 49, 65
1, 101025, Note_on_c, 0, 56, 44
1, 101060, Note_off_c, 0, 56, 58
1, 101085, Note_on_c, 0, 53, 56
1, 101088, Control_c, 0, 64, 17
1, 101103, Control_c, 0, 64, 21
1, 101118, Control_c, 0, 64, 24
1, 101133, Control_c, 0, 64, 26
1, 101148, Control_c, 0, 64, 27
1, 101156, Note_on_c, 0, 56, 59
1, 101160, Note_off_c, 0, 53, 65
1, 101162, Control_c, 0, 64, 28
1, 101182, Note_off_c, 0, 65, 63
1, 101219, Note_off_c, 0, 56, 64
1, 101221, Control_c, 0, 64, 27
1, 101230, Note_on_c, 0, 49, 66
1, 101236, Control_c, 0, 64, 25
1, 101251, Control_c, 0, 64, 20
1, 101266, Control_c, 0, 64, 11
1, 101277, Note_off_c, 0, 49, 65
1, 101281, Control_c, 0, 64, 0
1, 101305, Note_on_c, 0, 56, 62
1, 101382, Note_off_c, 0, 56, 66
1, 101396, Note_on_c, 0, 53, 63
1, 101404, Note_on_c, 0, 73, 78
1, 101474, Note_on_c, 0, 77, 82
1, 101474, Note_off_c, 0, 53, 64
1, 101476, Note_on_c, 0, 56, 60
1, 101492, Note_off_c, 0, 73, 62
1, 101529, Note_off_c, 0, 56, 64
1, 101543, Note_on_c, 0, 49, 60
1, 101557, Note_on_c, 0, 80, 92
1, 101573, Note_off_c, 0, 77, 64
1, 101598, Note_off_c, 0, 80, 65
1, 101600, Note_off_c, 0, 49, 60
1, 101636, Note_on_c, 0, 56, 62
1, 101706, Note_off_c, 0, 56, 65
1, 101725, Note_on_c, 0, 53, 60
1, 101726, Note_on_c, 0, 80, 94
1, 101763, Note_off_c, 0, 80, 62
1, 101800, Note_off_c, 0, 53, 62
1, 101804, Note_on_c, 0, 56, 57
1, 101859, Note_off_c, 0, 56, 63
1, 101883, Note_on_c, 0, 48, 54
1, 101886, Note_on_c, 0, 78, 87
1, 101925, Note_off_c, 0, 48, 61
1, 101960, Note_on_c, 0, 56, 51
1, 101961, Note_on_c, 0, 80, 79
1, 101965, Note_off_c, 0, 78, 65
1, 102007, Note_off_c, 0, 56, 64
1, 102036, Note_off_c, 0, 80, 62
1, 102039, Note_on_c, 0, 51, 55
1, 102041, Note_on_c, 0, 78, 79
1, 102101, Note_off_c, 0, 78, 67
1, 102101, Note_off_c, 0, 51, 59
1, 102120, Note_on_c, 0, 77, 76
1, 102134, Note_on_c, 0, 56, 49
1, 102177, Note_off_c, 0, 56, 66
1, 102193, Note_off_c, 0, 77, 61
1, 102193, Note_on_c, 0, 75, 67
1, 102201, Note_on_c, 0, 48, 51
1, 102242, Note_off_c, 0, 48, 63
1, 102249, Note_off_c, 0, 75, 60
1, 102266, Note_on_c, 0, 77, 67
1, 102292, Note_on_c, 0, 56, 51
1, 102332, Note_off_c, 0, 56, 67
1, 102342, Note_on_c, 0, 75, 66
1, 102347, Note_off_c, 0, 77, 61
1, 102364, Note_on_c, 0, 51, 46
1, 102412, Note_off_c, 0, 51, 63
1, 102422, Note_on_c, 0, 73, 68
1, 102422, Note_off_c, 0, 75, 60
1, 102443, Note_on_c, 0, 56, 49
1, 102474, Note_off_c, 0, 73, 63
1, 102479, Note_off_c, 0, 56, 66
1, 102500, Note_on_c, 0, 48, 47
1, 102510, Note_on_c, 0, 72, 59
1, 102536, Note_off_c, 0, 48, 65
1, 102548, Note_off_c, 0, 72, 58
1, 102582, Note_on_c, 0, 70, 60
1, 102584, Note_on_c, 0, 56, 52
1, 102620, Note_off_c, 0, 56, 64
1, 102649, Note_off_c, 0, 70, 59
1, 102653, Note_on_c, 0, 51, 48
1, 102658, Note_on_c, 0, 68, 61
1, 102695, Note_off_c, 0, 51, 64
1, 102728, Note_off_c, 0, 68, 59
1, 102730, Note_on_c, 0, 56, 50
1, 102732, Note_on_c, 0, 66, 55
1, 102778, Note_off_c, 0, 56, 61
1, 102798, Note_off_c, 0, 66, 63
1, 102811, Note_on_c, 0, 49, 47
1, 102818, Note_on_c, 0, 65, 51
1, 102859, Note_off_c, 0, 49, 65
1, 102912, Note_on_c, 0, 56, 35
1, 102948, Note_off_c, 0, 56, 55
1, 102949, Control_c, 0, 64, 15
1, 102964, Control_c, 0, 64, 20
1, 102979, Control_c, 0, 64, 24
1, 102980, Note_on_c, 0, 53, 44
1, 102993, Control_c, 0, 64, 26
1, 103008, Control_c, 0, 64, 27
1, 103023, Control_c, 0, 64, 28
1, 103031, Note_off_c, 0, 53, 62
1, 103049, Note_on_c, 0, 56, 50
1, 103096, Note_off_c, 0, 56, 63
1, 103107, Note_off_c, 0, 65, 66
1, 103111, Control_c, 0, 64, 25
1, 103126, Control_c, 0, 64, 17
1, 103133, Note_on_c, 0, 49, 48
1, 103141, Control_c, 0, 64, 0
1, 103171, Note_off_c, 0, 49, 64
1, 103197, Note_on_c, 0, 56, 59
1, 103254, Note_off_c, 0, 56, 62
1, 103287, Note_on_c, 0, 53, 52
1, 103290, Note_on_c, 0, 77, 78
1, 103320, Note_off_c, 0, 77, 63
1, 103343, Note_off_c, 0, 53, 63
1, 103372, Note_on_c, 0, 56, 53
1, 103430, Note_off_c, 0, 56, 61
1, 103454, Note_on_c, 0, 49, 50
1, 103463, Note_on_c, 0, 77, 81
1, 103483, Note_off_c, 0, 77, 70
1, 103497, Note_off_c, 0, 49, 63
1, 103545, Note_on_c, 0, 56, 57
1, 103614, Note_off_c, 0, 56, 64
1, 103638, Note_on_c, 0, 77, 76
1, 103639, Note_on_c, 0, 53, 56
1, 103660, Note_off_c, 0, 77, 70
1, 103713, Note_off_c, 0, 53, 62
1, 103722, Note_on_c, 0, 56, 54
1, 103770, Note_on_c, 0, 77, 66
1, 103775, Note_off_c, 0, 56, 63
1, 103806, Note_on_c, 0, 79, 72
1, 103807, Note_on_c, 0, 48, 42
1, 103807, Note_off_c, 0, 77, 58
1, 103849, Note_off_c, 0, 79, 64
1, 103851, Note_off_c, 0, 48, 62
1, 103852, Note_on_c, 0, 80, 72
1, 103889, Control_c, 0, 64, 21
1, 103890, Note_on_c, 0, 56, 59
1, 103904, Control_c, 0, 64, 30
1, 103919, Control_c, 0, 64, 37
1, 103934, Note_off_c, 0, 56, 64
1, 103934, Control_c, 0, 64, 43
1, 103949, Control_c, 0, 64, 47
1, 103964, Control_c, 0, 64, 50
1, 103964, Note_on_c, 0, 53, 57
1, 103979, Control_c, 0, 64, 51
1, 103994, Control_c, 0, 64, 52
1, 104023, Control_c, 0, 64, 51
1, 104028, Note_off_c, 0, 53, 63
1, 104038, Control_c, 0, 64, 51
1, 104046, Note_on_c, 0, 56, 62
1, 104082, Control_c, 0, 64, 50
1, 104092, Note_off_c, 0, 56, 59
1, 104097, Control_c, 0, 64, 49
1, 104099, Note_off_c, 0, 80, 61
1, 104113, Control_c, 0, 64, 44
1, 104125, Note_on_c, 0, 48, 69
1, 104128, Control_c, 0, 64, 35
1, 104143, Control_c, 0, 64, 9
1, 104157, Control_c, 0, 64, 0
1, 104166, Note_off_c, 0, 48, 62
1, 104200, Note_on_c, 0, 56, 65
1, 104243, Note_off_c, 0, 56, 63
1, 104270, Note_on_c, 0, 53, 62
1, 104281, Note_on_c, 0, 77, 85
1, 104307, Note_off_c, 0, 77, 63
1, 104351, Note_off_c, 0, 53, 63
1, 104362, Note_on_c, 0, 56, 64
1, 104416, Note_off_c, 0, 56, 56
1, 104452, Note_on_c, 0, 48, 62
1, 104459, Note_on_c, 0, 77, 96
1, 104488, Note_off_c, 0, 77, 66
1, 104493, Note_off_c, 0, 48, 64
1, 104530, Note_on_c, 0, 56, 61
1, 104601, Note_off_c, 0, 56, 63
1, 104622, Note_on_c, 0, 53, 73
1, 104626, Note_on_c, 0, 77, 96
1, 104655, Note_off_c, 0, 77, 64
1, 104695, Note_on_c, 0, 56, 65
1, 104721, Note_off_c, 0, 53, 61
1, 104764, Note_on_c, 0, 77, 73
1, 104770, Note_off_c, 0, 56, 66
1, 104778, Note_on_c, 0, 47, 74
1, 104790, Note_on_c, 0, 79, 93
1, 104814, Note_on_c, 0, 80, 99
1, 104823, Note_off_c, 0, 77, 63
1, 104846, Control_c, 0, 64, 11
1, 104854, Note_off_c, 0, 47, 63
1, 104855, Note_off_c, 0, 79, 63
1, 104861, Control_c, 0, 64, 23
1, 104862, Note_on_c, 0, 56, 68
1, 104876, Control_c, 0, 64, 33
1, 104890, Control_c, 0, 64, 41
1, 104906, Control_c, 0, 64, 47
1, 104921, Control_c, 0, 64, 51
1, 104924, Note_off_c, 0, 56, 63
1, 104936, Control_c, 0, 64, 53
1, 104949, Note_on_c, 0, 53, 79
1, 104950, Control_c, 0, 64, 53
1, 104980, Control_c, 0, 64, 53
1, 105010, Note_off_c, 0, 80, 59
1, 105025, Control_c, 0, 64, 52
1, 105031, Note_on_c, 0, 56, 74
1, 105038, Note_off_c, 0, 53, 64
1, 105054, Control_c, 0, 64, 51
1, 105069, Control_c, 0, 64, 47
1, 105091, Control_c, 0, 64, 41
1, 105095, Note_off_c, 0, 56, 66
1, 105105, Note_on_c, 0, 47, 84
1, 105106, Control_c, 0, 64, 29
1, 105121, Control_c, 0, 64, 0
1, 105172, Note_on_c, 0, 56, 77
1, 105187, Note_off_c, 0, 47, 63
1, 105252, Note_off_c, 0, 56, 64
1, 105260, Note_on_c, 0, 53, 78
1, 105266, Note_on_c, 0, 77, 95
1, 105287, Note_on_c, 0, 47, 46
1, 105301, Note_off_c, 0, 77, 65
1, 105318, Note_off_c, 0, 47, 59
1, 105340, Note_on_c, 0, 56, 76
1, 105368, Note_off_c, 0, 53, 63
1, 105415, Note_off_c, 0, 56, 64
1, 105417, Note_on_c, 0, 47, 81
1, 105424, Note_on_c, 0, 77, 98
1, 105455, Note_off_c, 0, 77, 64
1, 105502, Note_on_c, 0, 56, 74
1, 105509, Note_off_c, 0, 47, 63
1, 105577, Note_on_c, 0, 77, 101
1, 105581, Note_off_c, 0, 56, 66
1, 105584, Note_on_c, 0, 53, 78
1, 105619, Note_off_c, 0, 77, 62
1, 105669, Note_on_c, 0, 56, 76
1, 105687, Note_off_c, 0, 53, 62
1, 105745, Note_off_c, 0, 56, 63
1, 105750, Note_on_c, 0, 48, 86
1, 105755, Note_on_c, 0, 76, 87
1, 105782, Note_off_c, 0, 48, 68
1, 105788, Control_c, 0, 64, 29
1, 105791, Note_on_c, 0, 77, 22
1, 105792, Note_off_c, 0, 77, 127
1, 105803, Control_c, 0, 64, 41
1, 105818, Note_off_c, 0, 76, 67
1, 105818, Control_c, 0, 64, 51
1, 105836, Note_on_c, 0, 72, 80
1, 105840, Control_c, 0, 64, 60
1, 105855, Control_c, 0, 64, 65
1, 105870, Control_c, 0, 64, 70
1, 105884, Control_c, 0, 64, 73
1, 105913, Note_on_c, 0, 76, 84
1, 105914, Note_off_c, 0, 72, 60
1, 105914, Control_c, 0, 64, 73
1, 105943, Control_c, 0, 64, 74
1, 105985, Note_on_c, 0, 79, 84
1, 106000, Note_off_c, 0, 76, 63
1, 106032, Control_c, 0, 64, 71
1, 106047, Control_c, 0, 64, 65
1, 106054, Note_off_c, 0, 79, 67
1, 106059, Note_on_c, 0, 84, 93
1, 106062, Control_c, 0, 64, 55
1, 106077, Control_c, 0, 64, 31
1, 106092, Control_c, 0, 64, 0
1, 106112, Note_off_c, 0, 84, 65
1, 106128, Note_on_c, 0, 72, 82
1, 106186, Note_off_c, 0, 72, 64
1, 106199, Note_on_c, 0, 76, 84
1, 106275, Note_on_c, 0, 79, 80
1, 106288, Note_off_c, 0, 76, 63
1, 106343, Control_c, 0, 64, 19
1, 106345, Note_on_c, 0, 84, 88
1, 106347, Note_off_c, 0, 79, 64
1, 106350, Note_on_c, 0, 64, 81
1, 106354, Note_on_c, 0, 60, 78
1, 106358, Control_c, 0, 64, 38
1, 106370, Note_off_c, 0, 64, 69
1, 106373, Control_c, 0, 64, 50
1, 106376, Note_off_c, 0, 60, 71
1, 106388, Control_c, 0, 64, 58
1, 106402, Control_c, 0, 64, 61
1, 106417, Control_c, 0, 64, 58
1, 106430, Note_on_c, 0, 82, 82
1, 106432, Control_c, 0, 64, 46
1, 106447, Control_c, 0, 64, 9
1, 106462, Control_c, 0, 64, 0
1, 106465, Note_off_c, 0, 84, 59
1, 106500, Note_on_c, 0, 80, 75
1, 106533, Note_off_c, 0, 82, 63
1, 106571, Note_on_c, 0, 79, 80
1, 106593, Note_off_c, 0, 80, 64
1, 106664, Note_on_c, 0, 80, 90
1, 106664, Note_on_c, 0, 65, 91
1, 106673, Note_on_c, 0, 60, 74
1, 106678, Control_c, 0, 64, 22
1, 106686, Note_off_c, 0, 79, 58
1, 106693, Control_c, 0, 64, 42
1, 106702, Note_off_c, 0, 65, 70
1, 106705, Note_off_c, 0, 60, 66
1, 106707, Control_c, 0, 64, 58
1, 106722, Control_c, 0, 64, 69
1, 106737, Control_c, 0, 64, 93
1, 106751, Note_on_c, 0, 72, 76
1, 106751, Control_c, 0, 64, 127
1, 106753, Note_off_c, 0, 80, 62
1, 106826, Note_off_c, 0, 72, 62
1, 106828, Note_on_c, 0, 77, 87
1, 106855, Control_c, 0, 64, 113
1, 106870, Control_c, 0, 64, 95
1, 106885, Control_c, 0, 64, 80
1, 106900, Control_c, 0, 64, 69
1, 106903, Note_on_c, 0, 80, 90
1, 106915, Control_c, 0, 64, 61
1, 106917, Note_off_c, 0, 77, 61
1, 106930, Control_c, 0, 64, 46
1, 106945, Control_c, 0, 64, 0
1, 106983, Note_on_c, 0, 84, 85
1, 106997, Note_off_c, 0, 80, 60
1, 107031, Note_off_c, 0, 84, 63
1, 107050, Note_on_c, 0, 72, 76
1, 107126, Note_off_c, 0, 72, 64
1, 107128, Note_on_c, 0, 77, 86
1, 107201, Note_on_c, 0, 80, 85
1, 107208, Note_off_c, 0, 77, 64
1, 107270, Control_c, 0, 64, 20
1, 107273, Note_on_c, 0, 68, 96
1, 107276, Note_on_c, 0, 84, 88
1, 107284, Note_off_c, 0, 80, 63
1, 107284, Note_on_c, 0, 60, 73
1, 107284, Control_c, 0, 64, 37
1, 107301, Control_c, 0, 64, 50
1, 107308, Note_off_c, 0, 68, 61
1, 107310, Note_off_c, 0, 60, 69
1, 107316, Control_c, 0, 64, 60
1, 107338, Control_c, 0, 64, 63
1, 107353, Control_c, 0, 64, 63
1, 107368, Control_c, 0, 64, 58
1, 107374, Note_on_c, 0, 80, 84
1, 107382, Control_c, 0, 64, 46
1, 107389, Note_off_c, 0, 84, 60
1, 107397, Control_c, 0, 64, 20
1, 107412, Control_c, 0, 64, 0
1, 107450, Note_on_c, 0, 79, 78
1, 107453, Note_off_c, 0, 80, 64
1, 107517, Note_off_c, 0, 79, 63
1, 107523, Note_on_c, 0, 77, 77
1, 107562, Note_off_c, 0, 77, 64
1, 107594, Note_on_c, 0, 67, 100
1, 107600, Note_on_c, 0, 76, 84
1, 107602, Note_on_c, 0, 60, 82
1, 107604, Control_c, 0, 64, 29
1, 107619, Control_c, 0, 64, 46
1, 107626, Note_off_c, 0, 60, 69
1, 107629, Note_off_c, 0, 67, 68
1, 107634, Control_c, 0, 64, 61
1, 107649, Control_c, 0, 64, 86
1, 107663, Control_c, 0, 64, 127
1, 107664, Note_off_c, 0, 76, 63
1, 107681, Note_on_c, 0, 72, 74
1, 107743, Note_off_c, 0, 72, 62
1, 107751, Note_on_c, 0, 76, 83
1, 107817, Note_on_c, 0, 79, 84
1, 107832, Note_off_c, 0, 76, 64
1, 107856, Control_c, 0, 64, 97
1, 107871, Control_c, 0, 64, 73
1, 107885, Note_on_c, 0, 84, 96
1, 107886, Control_c, 0, 64, 62
1, 107898, Note_off_c, 0, 79, 59
1, 107900, Control_c, 0, 64, 49
1, 107915, Control_c, 0, 64, 21
1, 107930, Control_c, 0, 64, 0
1, 107943, Note_off_c, 0, 84, 60
1, 107961, Note_on_c, 0, 72, 81
1, 108008, Note_off_c, 0, 72, 66
1, 108026, Note_on_c, 0, 64, 92
1, 108030, Note_on_c, 0, 76, 81
1, 108039, Note_on_c, 0, 60, 71
1, 108061, Note_off_c, 0, 64, 67
1, 108061, Note_off_c, 0, 60, 69
1, 108113, Note_on_c, 0, 79, 75
1, 108151, Note_off_c, 0, 76, 61
1, 108170, Note_on_c, 0, 84, 81
1, 108179, Note_off_c, 0, 79, 63
1, 108181, Note_on_c, 0, 64, 102
1, 108184, Note_on_c, 0, 60, 74
1, 108215, Note_off_c, 0, 64, 68
1, 108217, Note_off_c, 0, 60, 66
1, 108256, Note_on_c, 0, 82, 84
1, 108289, Note_off_c, 0, 84, 64
1, 108330, Note_on_c, 0, 64, 96
1, 108333, Note_on_c, 0, 60, 82
1, 108338, Note_on_c, 0, 80, 82
1, 108367, Note_off_c, 0, 60, 66
1, 108375, Note_off_c, 0, 64, 64
1, 108381, Note_off_c, 0, 82, 59
1, 108417, Note_on_c, 0, 79, 81
1, 108427, Note_off_c, 0, 80, 64
1, 108492, Note_on_c, 0, 65, 103
1, 108495, Note_on_c, 0, 60, 88
1, 108507, Note_on_c, 0, 80, 88
1, 108510, Note_off_c, 0, 65, 75
1, 108514, Note_off_c, 0, 60, 73
1, 108517, Control_c, 0, 64, 32
1, 108522, Note_off_c, 0, 79, 56
1, 108531, Control_c, 0, 64, 45
1, 108546, Control_c, 0, 64, 56
1, 108561, Control_c, 0, 64, 65
1, 108576, Control_c, 0, 64, 75
1, 108578, Note_on_c, 0, 72, 73
1, 108585, Note_off_c, 0, 80, 62
1, 108591, Control_c, 0, 64, 84
1, 108605, Control_c, 0, 64, 85
1, 108620, Control_c, 0, 64, 85
1, 108635, Control_c, 0, 64, 84
1, 108650, Control_c, 0, 64, 84
1, 108656, Note_on_c, 0, 77, 83
1, 108662, Note_off_c, 0, 72, 61
1, 108665, Control_c, 0, 64, 83
1, 108680, Control_c, 0, 64, 83
1, 108694, Control_c, 0, 64, 81
1, 108709, Control_c, 0, 64, 77
1, 108721, Note_on_c, 0, 80, 89
1, 108724, Control_c, 0, 64, 72
1, 108733, Note_off_c, 0, 77, 63
1, 108739, Control_c, 0, 64, 66
1, 108754, Control_c, 0, 64, 62
1, 108769, Control_c, 0, 64, 55
1, 108784, Control_c, 0, 64, 44
1, 108793, Note_on_c, 0, 84, 90
1, 108798, Control_c, 0, 64, 16
1, 108813, Control_c, 0, 64, 0
1, 108816, Note_off_c, 0, 80, 62
1, 108846, Note_off_c, 0, 84, 66
1, 108862, Note_on_c, 0, 72, 80
1, 108936, Note_off_c, 0, 72, 63
1, 108940, Note_on_c, 0, 77, 89
1, 108944, Note_on_c, 0, 68, 93
1, 108958, Note_on_c, 0, 60, 64
1, 108976, Note_off_c, 0, 60, 67
1, 108978, Note_off_c, 0, 68, 59
1, 109010, Note_on_c, 0, 80, 84
1, 109022, Note_off_c, 0, 77, 62
1, 109092, Note_on_c, 0, 84, 84
1, 109100, Note_off_c, 0, 80, 63
1, 109107, Note_on_c, 0, 68, 91
1, 109112, Note_on_c, 0, 60, 67
1, 109139, Note_off_c, 0, 60, 67
1, 109142, Note_off_c, 0, 68, 59
1, 109173, Note_on_c, 0, 80, 81
1, 109196, Note_off_c, 0, 84, 61
1, 109249, Note_on_c, 0, 79, 81
1, 109258, Note_on_c, 0, 68, 91
1, 109264, Note_off_c, 0, 80, 63
1, 109267, Note_on_c, 0, 60, 63
1, 109282, Note_off_c, 0, 68, 64
1, 109294, Note_off_c, 0, 60, 68
1, 109323, Note_off_c, 0, 79, 62
1, 109326, Note_on_c, 0, 77, 81
1, 109453, Note_off_c, 0, 77, 62
1, 109490, Note_on_c, 0, 76, 70
1, 109491, Note_on_c, 0, 67, 97
1, 109504, Note_on_c, 0, 60, 84
1, 109506, Note_on_c, 0, 79, 86
1, 109514, Note_on_c, 0, 84, 90
1, 109517, Control_c, 0, 64, 15
1, 109532, Control_c, 0, 64, 34
1, 109547, Control_c, 0, 64, 49
1, 109553, Note_off_c, 0, 76, 69
1, 109561, Note_off_c, 0, 79, 67
1, 109562, Control_c, 0, 64, 63
1, 109579, Note_off_c, 0, 84, 68
1, 109584, Control_c, 0, 64, 79
1, 109599, Control_c, 0, 64, 127
1, 110280, Control_c, 0, 64, 122
1, 110295, Control_c, 0, 64, 110
1, 110310, Control_c, 0, 64, 105
1, 110332, Control_c, 0, 64, 102
1, 110347, Control_c, 0, 64, 101
1, 110362, Control_c, 0, 64, 100
1, 110376, Control_c, 0, 64, 99
1, 110391, Control_c, 0, 64, 98
1, 110406, Control_c, 0, 64, 96
1, 110421, Control_c, 0, 64, 93
1, 110436, Control_c, 0, 64, 88
1, 110441, Note_off_c, 0, 67, 55
1, 110450, Control_c, 0, 64, 80
1, 110459, Note_off_c, 0, 60, 21
1, 110465, Control_c, 0, 64, 72
1, 110480, Control_c, 0, 64, 65
1, 110496, Control_c, 0, 64, 59
1, 110511, Control_c, 0, 64, 48
1, 110525, Control_c, 0, 64, 29
1, 110540, Control_c, 0, 64, 0
1, 110689, Control_c, 0, 67, 9
1, 110704, Control_c, 0, 67, 10
1, 110718, Control_c, 0, 67, 13
1, 110733, Control_c, 0, 67, 15
1, 110748, Control_c, 0, 67, 18
1, 110763, Control_c, 0, 67, 21
1, 110778, Control_c, 0, 67, 25
1, 110793, Control_c, 0, 67, 30
1, 110807, Control_c, 0, 67, 37
1, 110822, Control_c, 0, 67, 45
1, 110837, Control_c, 0, 67, 53
1, 110852, Control_c, 0, 67, 62
1, 110867, Control_c, 0, 67, 72
1, 110881, Control_c, 0, 67, 81
1, 110896, Control_c, 0, 67, 90
1, 110911, Control_c, 0, 67, 101
1, 110925, Control_c, 0, 67, 110
1, 110940, Control_c, 0, 67, 118
1, 110955, Control_c, 0, 67, 125
1, 110970, Control_c, 0, 67, 127
1, 111208, Note_on_c, 0, 73, 51
1, 111215, Note_on_c, 0, 70, 42
1, 111244, Note_off_c, 0, 70, 57
1, 111245, Note_off_c, 0, 73, 60
1, 111383, Note_on_c, 0, 73, 55
1, 111390, Note_on_c, 0, 70, 40
1, 111422, Note_off_c, 0, 73, 62
1, 111425, Note_off_c, 0, 70, 55
1, 111553, Note_on_c, 0, 73, 57
1, 111559, Note_on_c, 0, 70, 43
1, 111586, Note_off_c, 0, 73, 61
1, 111592, Note_off_c, 0, 70, 54
1, 111748, Control_c, 0, 67, 126
1, 111763, Control_c, 0, 67, 122
1, 111765, Note_on_c, 0, 73, 49
1, 111778, Control_c, 0, 67, 117
1, 111783, Note_on_c, 0, 70, 29
1, 111793, Control_c, 0, 67, 112
1, 111808, Control_c, 0, 67, 106
1, 111830, Control_c, 0, 67, 100
1, 111845, Control_c, 0, 67, 94
1, 111860, Control_c, 0, 67, 88
1, 111875, Control_c, 0, 67, 82
1, 111890, Control_c, 0, 67, 76
1, 111905, Control_c, 0, 67, 69
1, 111920, Control_c, 0, 67, 61
1, 111935, Control_c, 0, 67, 56
1, 111949, Control_c, 0, 67, 52
1, 111964, Control_c, 0, 67, 49
1, 111979, Control_c, 0, 67, 47
1, 111994, Control_c, 0, 67, 46
1, 112038, Control_c, 0, 67, 47
1, 112053, Control_c, 0, 67, 48
1, 112068, Control_c, 0, 67, 50
1, 112077, Note_off_c, 0, 70, 42
1, 112082, Control_c, 0, 67, 53
1, 112098, Control_c, 0, 67, 57
1, 112113, Control_c, 0, 67, 61
1, 112128, Control_c, 0, 67, 65
1, 112143, Control_c, 0, 67, 74
1, 112150, Note_off_c, 0, 73, 41
1, 112158, Control_c, 0, 67, 85
1, 112172, Control_c, 0, 67, 98
1, 112187, Control_c, 0, 67, 112
1, 112202, Control_c, 0, 67, 125
1, 112217, Control_c, 0, 67, 127
1, 112320, Note_on_c, 0, 40, 44
1, 112368, Note_off_c, 0, 40, 61
1, 112498, Note_on_c, 0, 40, 50
1, 112548, Note_off_c, 0, 40, 60
1, 112689, Note_on_c, 0, 40, 51
1, 112730, Note_off_c, 0, 40, 64
1, 112888, Note_on_c, 0, 40, 41
1, 113040, Control_c, 0, 64, 15
1, 113055, Control_c, 0, 64, 28
1, 113069, Control_c, 0, 64, 38
1, 113084, Control_c, 0, 64, 47
1, 113099, Control_c, 0, 64, 56
1, 113114, Control_c, 0, 64, 60
1, 113128, Control_c, 0, 64, 63
1, 113142, Note_off_c, 0, 40, 42
1, 113143, Control_c, 0, 64, 63
1, 113158, Control_c, 0, 64, 64
1, 113217, Control_c, 0, 64, 63
1, 113247, Control_c, 0, 64, 63
1, 113262, Control_c, 0, 64, 62
1, 113276, Control_c, 0, 64, 60
1, 113291, Control_c, 0, 64, 57
1, 113291, Control_c, 0, 67, 123
1, 113306, Control_c, 0, 64, 53
1, 113306, Control_c, 0, 67, 115
1, 113328, Control_c, 0, 64, 49
1, 113328, Control_c, 0, 67, 106
1, 113343, Control_c, 0, 64, 44
1, 113343, Control_c, 0, 67, 97
1, 113358, Control_c, 0, 64, 37
1, 113358, Control_c, 0, 67, 88
1, 113372, Control_c, 0, 64, 29
1, 113372, Control_c, 0, 67, 78
1, 113387, Control_c, 0, 64, 19
1, 113387, Control_c, 0, 67, 68
1, 113401, Control_c, 0, 64, 0
1, 113401, Control_c, 0, 67, 58
1, 113416, Control_c, 0, 67, 49
1, 113431, Control_c, 0, 67, 37
1, 113446, Control_c, 0, 67, 28
1, 113461, Control_c, 0, 67, 21
1, 113466, Note_on_c, 0, 72, 49
1, 113475, Note_on_c, 0, 70, 42
1, 113476, Control_c, 0, 67, 17
1, 113482, Note_on_c, 0, 67, 42
1, 113491, Control_c, 0, 67, 14
1, 113499, Note_on_c, 0, 64, 10
1, 113506, Control_c, 0, 67, 13
1, 113508, Note_off_c, 0, 70, 54
1, 113510, Note_off_c, 0, 72, 60
1, 113520, Control_c, 0, 67, 13
1, 113525, Note_off_c, 0, 67, 46
1, 113535, Control_c, 0, 67, 12
1, 113546, Note_off_c, 0, 64, 50
1, 113550, Control_c, 0, 67, 11
1, 113565, Control_c, 0, 67, 10
1, 113580, Control_c, 0, 67, 8
1, 113594, Control_c, 0, 67, 0
1, 113636, Note_on_c, 0, 72, 54
1, 113643, Note_on_c, 0, 70, 42
1, 113645, Note_on_c, 0, 64, 47
1, 113657, Note_on_c, 0, 67, 41
1, 113684, Note_off_c, 0, 70, 59
1, 113688, Note_off_c, 0, 72, 57
1, 113690, Note_off_c, 0, 64, 47
1, 113696, Note_off_c, 0, 67, 52
1, 113812, Note_on_c, 0, 72, 49
1, 113827, Note_on_c, 0, 70, 38
1, 113831, Note_on_c, 0, 64, 31
1, 113839, Note_on_c, 0, 67, 11
1, 113863, Note_off_c, 0, 70, 52
1, 113868, Note_off_c, 0, 64, 51
1, 113871, Note_off_c, 0, 72, 56
1, 113887, Note_off_c, 0, 67, 49
1, 114012, Note_on_c, 0, 72, 45
1, 114023, Note_on_c, 0, 67, 31
1, 114029, Note_on_c, 0, 70, 36
1, 114030, Note_on_c, 0, 64, 31
1, 114091, Control_c, 0, 64, 9
1, 114106, Control_c, 0, 64, 23
1, 114121, Control_c, 0, 64, 32
1, 114136, Control_c, 0, 64, 40
1, 114150, Control_c, 0, 64, 50
1, 114165, Control_c, 0, 64, 57
1, 114179, Note_off_c, 0, 64, 39
1, 114180, Control_c, 0, 64, 61
1, 114188, Note_off_c, 0, 67, 44
1, 114195, Control_c, 0, 64, 63
1, 114210, Control_c, 0, 64, 64
1, 114260, Note_off_c, 0, 70, 29
1, 114269, Control_c, 0, 67, 8
1, 114284, Control_c, 0, 64, 64
1, 114284, Control_c, 0, 67, 8
1, 114299, Control_c, 0, 64, 63
1, 114299, Control_c, 0, 67, 9
1, 114313, Control_c, 0, 64, 62
1, 114313, Control_c, 0, 67, 9
1, 114325, Note_off_c, 0, 72, 34
1, 114328, Control_c, 0, 64, 61
1, 114328, Control_c, 0, 67, 10
1, 114343, Control_c, 0, 64, 59
1, 114343, Control_c, 0, 67, 10
1, 114358, Control_c, 0, 64, 57
1, 114373, Control_c, 0, 64, 55
1, 114388, Control_c, 0, 64, 53
1, 114388, Control_c, 0, 67, 11
1, 114403, Control_c, 0, 64, 50
1, 114417, Control_c, 0, 64, 46
1, 114432, Control_c, 0, 64, 41
1, 114447, Control_c, 0, 64, 37
1, 114461, Control_c, 0, 64, 34
1, 114476, Control_c, 0, 64, 32
1, 114492, Control_c, 0, 64, 28
1, 114507, Control_c, 0, 64, 21
1, 114522, Control_c, 0, 64, 0
1, 114594, Note_on_c, 0, 41, 40
1, 114644, Note_off_c, 0, 41, 60
1, 114714, Control_c, 0, 67, 10
1, 114762, Note_on_c, 0, 41, 46
1, 114788, Control_c, 0, 67, 10
1, 114808, Note_off_c, 0, 41, 59
1, 114954, Note_on_c, 0, 41, 40
1, 115011, Note_off_c, 0, 41, 60
1, 115091, Control_c, 0, 67, 9
1, 115162, Note_on_c, 0, 41, 34
1, 115166, Control_c, 0, 67, 9
1, 115211, Control_c, 0, 67, 8
1, 115225, Control_c, 0, 67, 8
1, 115240, Control_c, 0, 67, 0
1, 115537, Control_c, 0, 64, 21
1, 115545, Note_off_c, 0, 41, 48
1, 115552, Control_c, 0, 64, 32
1, 115574, Control_c, 0, 64, 40
1, 115589, Control_c, 0, 64, 48
1, 115604, Control_c, 0, 64, 53
1, 115619, Control_c, 0, 64, 57
1, 115634, Control_c, 0, 64, 60
1, 115649, Control_c, 0, 64, 61
1, 115679, Control_c, 0, 64, 60
1, 115694, Control_c, 0, 64, 58
1, 115709, Control_c, 0, 64, 53
1, 115723, Control_c, 0, 64, 46
1, 115736, Note_on_c, 0, 78, 81
1, 115738, Control_c, 0, 64, 35
1, 115742, Note_on_c, 0, 63, 73
1, 115746, Note_on_c, 0, 69, 65
1, 115753, Control_c, 0, 64, 26
1, 115768, Control_c, 0, 64, 17
1, 115779, Note_off_c, 0, 63, 60
1, 115783, Control_c, 0, 64, 14
1, 115792, Note_off_c, 0, 69, 59
1, 115797, Control_c, 0, 64, 12
1, 115812, Control_c, 0, 64, 0
1, 115813, Note_off_c, 0, 78, 64
1, 115905, Note_on_c, 0, 78, 90
1, 115908, Note_on_c, 0, 63, 88
1, 115911, Note_on_c, 0, 69, 73
1, 115948, Note_off_c, 0, 69, 60
1, 115957, Note_off_c, 0, 63, 66
1, 115968, Note_off_c, 0, 78, 63
1, 116075, Note_on_c, 0, 63, 100
1, 116076, Note_on_c, 0, 78, 94
1, 116083, Note_on_c, 0, 69, 82
1, 116113, Note_off_c, 0, 69, 64
1, 116125, Note_off_c, 0, 63, 67
1, 116135, Note_off_c, 0, 78, 65
1, 116258, Note_on_c, 0, 78, 94
1, 116260, Note_on_c, 0, 69, 82
1, 116267, Note_on_c, 0, 63, 96
1, 116339, Control_c, 0, 64, 16
1, 116353, Control_c, 0, 64, 30
1, 116367, Control_c, 0, 64, 39
1, 116369, Note_off_c, 0, 63, 66
1, 116382, Control_c, 0, 64, 48
1, 116391, Note_off_c, 0, 69, 53
1, 116397, Control_c, 0, 64, 57
1, 116412, Control_c, 0, 64, 63
1, 116424, Note_off_c, 0, 78, 56
1, 116426, Control_c, 0, 64, 69
1, 116441, Control_c, 0, 64, 80
1, 116456, Control_c, 0, 64, 87
1, 116470, Control_c, 0, 64, 92
1, 116485, Control_c, 0, 64, 94
1, 116515, Control_c, 0, 64, 93
1, 116530, Control_c, 0, 64, 88
1, 116544, Control_c, 0, 64, 83
1, 116559, Control_c, 0, 64, 79
1, 116574, Control_c, 0, 64, 75
1, 116589, Control_c, 0, 64, 72
1, 116604, Control_c, 0, 64, 68
1, 116618, Control_c, 0, 64, 64
1, 116633, Control_c, 0, 64, 59
1, 116648, Control_c, 0, 64, 54
1, 116662, Control_c, 0, 64, 49
1, 116677, Control_c, 0, 64, 46
1, 116692, Control_c, 0, 64, 44
1, 116707, Control_c, 0, 64, 41
1, 116722, Control_c, 0, 64, 35
1, 116737, Control_c, 0, 64, 24
1, 116752, Control_c, 0, 64, 0
1, 116823, Note_on_c, 0, 36, 86
1, 116875, Note_off_c, 0, 36, 61
1, 116999, Note_on_c, 0, 36, 87
1, 117041, Note_off_c, 0, 36, 67
1, 117175, Note_on_c, 0, 36, 87
1, 117219, Note_off_c, 0, 36, 66
1, 117369, Note_on_c, 0, 36, 84
1, 117515, Control_c, 0, 64, 23
1, 117530, Control_c, 0, 64, 33
1, 117545, Note_off_c, 0, 36, 60
1, 117545, Control_c, 0, 64, 41
1, 117560, Control_c, 0, 64, 49
1, 117575, Control_c, 0, 64, 55
1, 117589, Control_c, 0, 64, 61
1, 117604, Control_c, 0, 64, 64
1, 117619, Control_c, 0, 64, 66
1, 117634, Control_c, 0, 64, 69
1, 117649, Control_c, 0, 64, 71
1, 117664, Control_c, 0, 64, 73
1, 117679, Control_c, 0, 64, 74
1, 117724, Control_c, 0, 64, 73
1, 117739, Control_c, 0, 64, 71
1, 117753, Control_c, 0, 64, 68
1, 117768, Control_c, 0, 64, 64
1, 117783, Control_c, 0, 64, 57
1, 117798, Control_c, 0, 64, 43
1, 117820, Control_c, 0, 64, 11
1, 117835, Control_c, 0, 64, 0
1, 118039, Note_on_c, 0, 77, 66
1, 118043, Note_on_c, 0, 61, 57
1, 118049, Note_on_c, 0, 70, 61
1, 118081, Note_off_c, 0, 70, 65
1, 118084, Note_off_c, 0, 61, 62
1, 118087, Note_off_c, 0, 77, 60
1, 118216, Note_on_c, 0, 77, 66
1, 118218, Note_on_c, 0, 70, 64
1, 118220, Note_on_c, 0, 61, 57
1, 118255, Note_off_c, 0, 70, 59
1, 118259, Note_off_c, 0, 61, 62
1, 118272, Note_off_c, 0, 77, 59
1, 118384, Note_on_c, 0, 61, 60
1, 118388, Note_on_c, 0, 77, 70
1, 118391, Note_on_c, 0, 70, 61
1, 118426, Note_off_c, 0, 70, 62
1, 118430, Note_off_c, 0, 61, 63
1, 118437, Note_off_c, 0, 77, 57
1, 118596, Note_on_c, 0, 77, 51
1, 118603, Note_on_c, 0, 70, 51
1, 118606, Note_on_c, 0, 61, 52
1, 118703, Control_c, 0, 64, 17
1, 118718, Control_c, 0, 64, 26
1, 118732, Note_off_c, 0, 61, 60
1, 118733, Control_c, 0, 64, 35
1, 118747, Control_c, 0, 64, 43
1, 118762, Control_c, 0, 64, 51
1, 118777, Control_c, 0, 64, 56
1, 118792, Control_c, 0, 64, 60
1, 118807, Control_c, 0, 64, 62
1, 118821, Control_c, 0, 64, 63
1, 118821, Control_c, 0, 67, 10
1, 118836, Control_c, 0, 67, 14
1, 118851, Control_c, 0, 67, 18
1, 118862, Note_off_c, 0, 70, 42
1, 118865, Control_c, 0, 67, 24
1, 118880, Control_c, 0, 64, 62
1, 118880, Control_c, 0, 67, 31
1, 118895, Control_c, 0, 64, 62
1, 118895, Control_c, 0, 67, 40
1, 118904, Note_off_c, 0, 77, 40
1, 118910, Control_c, 0, 64, 61
1, 118910, Control_c, 0, 67, 49
1, 118925, Control_c, 0, 64, 59
1, 118925, Control_c, 0, 67, 58
1, 118940, Control_c, 0, 64, 58
1, 118940, Control_c, 0, 67, 66
1, 118955, Control_c, 0, 64, 57
1, 118955, Control_c, 0, 67, 75
1, 118970, Control_c, 0, 64, 55
1, 118970, Control_c, 0, 67, 88
1, 118985, Control_c, 0, 64, 53
1, 118985, Control_c, 0, 67, 99
1, 118999, Control_c, 0, 64, 50
1, 118999, Control_c, 0, 67, 110
1, 119014, Control_c, 0, 64, 47
1, 119014, Control_c, 0, 67, 121
1, 119029, Control_c, 0, 64, 44
1, 119029, Control_c, 0, 67, 127
1, 119044, Control_c, 0, 64, 41
1, 119058, Control_c, 0, 64, 37
1, 119073, Control_c, 0, 64, 30
1, 119088, Control_c, 0, 64, 17
1, 119103, Control_c, 0, 64, 0
1, 119172, Note_on_c, 0, 34, 61
1, 119226, Note_off_c, 0, 34, 61
1, 119363, Note_on_c, 0, 34, 70
1, 119414, Note_off_c, 0, 34, 62
1, 119542, Note_on_c, 0, 34, 64
1, 119595, Note_off_c, 0, 34, 61
1, 119771, Note_on_c, 0, 34, 43
1, 119970, Control_c, 0, 64, 16
1, 119985, Control_c, 0, 64, 25
1, 120000, Control_c, 0, 64, 32
1, 120014, Control_c, 0, 64, 38
1, 120029, Control_c, 0, 64, 44
1, 120039, Note_off_c, 0, 34, 39
1, 120044, Control_c, 0, 64, 50
1, 120067, Control_c, 0, 64, 54
1, 120081, Control_c, 0, 64, 56
1, 120097, Control_c, 0, 64, 57
1, 120111, Control_c, 0, 64, 58
1, 120156, Control_c, 0, 64, 57
1, 120171, Control_c, 0, 64, 57
1, 120185, Control_c, 0, 64, 56
1, 120200, Control_c, 0, 64, 55
1, 120215, Control_c, 0, 64, 54
1, 120230, Control_c, 0, 64, 53
1, 120244, Control_c, 0, 64, 52
1, 120259, Control_c, 0, 64, 51
1, 120274, Control_c, 0, 64, 50
1, 120289, Control_c, 0, 64, 50
1, 120304, Control_c, 0, 64, 49
1, 120318, Control_c, 0, 64, 48
1, 120333, Control_c, 0, 64, 46
1, 120348, Control_c, 0, 64, 42
1, 120363, Control_c, 0, 64, 38
1, 120378, Control_c, 0, 64, 34
1, 120392, Control_c, 0, 64, 31
1, 120407, Control_c, 0, 64, 29
1, 120422, Control_c, 0, 64, 26
1, 120436, Control_c, 0, 64, 23
1, 120451, Control_c, 0, 64, 16
1, 120466, Control_c, 0, 64, 0
1, 120677, Note_on_c, 0, 73, 36
1, 120689, Note_on_c, 0, 66, 35
1, 120699, Note_on_c, 0, 70, 16
1, 120718, Control_c, 0, 64, 8
1, 120733, Control_c, 0, 64, 19
1, 120743, Note_off_c, 0, 70, 51
1, 120748, Control_c, 0, 64, 25
1, 120749, Note_off_c, 0, 73, 49
1, 120762, Control_c, 0, 64, 30
1, 120771, Note_off_c, 0, 66, 42
1, 120777, Control_c, 0, 64, 34
1, 120792, Control_c, 0, 64, 38
1, 120815, Control_c, 0, 64, 43
1, 120830, Control_c, 0, 64, 47
1, 120844, Control_c, 0, 64, 50
1, 120859, Control_c, 0, 64, 53
1, 120874, Control_c, 0, 64, 54
1, 120877, Note_on_c, 0, 70, 25
1, 120880, Note_on_c, 0, 73, 47
1, 120904, Control_c, 0, 64, 53
1, 120910, Note_on_c, 0, 66, 26
1, 120916, Note_off_c, 0, 70, 51
1, 120916, Note_off_c, 0, 73, 50
1, 120919, Control_c, 0, 64, 51
1, 120919, Control_c, 0, 67, 126
1, 120934, Control_c, 0, 64, 46
1, 120934, Control_c, 0, 67, 123
1, 120948, Note_off_c, 0, 66, 46
1, 120949, Control_c, 0, 64, 40
1, 120949, Control_c, 0, 67, 118
1, 120964, Control_c, 0, 64, 36
1, 120964, Control_c, 0, 67, 114
1, 120979, Control_c, 0, 64, 36
1, 120979, Control_c, 0, 67, 110
1, 120994, Control_c, 0, 64, 36
1, 120994, Control_c, 0, 67, 105
1, 121008, Control_c, 0, 64, 37
1, 121008, Control_c, 0, 67, 101
1, 121023, Control_c, 0, 67, 98
1, 121038, Control_c, 0, 64, 37
1, 121038, Control_c, 0, 67, 97
1, 121050, Note_on_c, 0, 66, 43
1, 121053, Control_c, 0, 64, 38
1, 121053, Control_c, 0, 67, 96
1, 121057, Note_on_c, 0, 73, 42
1, 121060, Note_on_c, 0, 70, 33
1, 121067, Control_c, 0, 64, 40
1, 121082, Control_c, 0, 64, 41
1, 121097, Control_c, 0, 64, 43
1, 121107, Note_off_c, 0, 70, 45
1, 121112, Note_off_c, 0, 73, 57
1, 121130, Note_off_c, 0, 66, 39
1, 121156, Control_c, 0, 64, 43
1, 121156, Control_c, 0, 67, 97
1, 121186, Control_c, 0, 64, 43
1, 121201, Control_c, 0, 64, 42
1, 121215, Control_c, 0, 64, 39
1, 121230, Control_c, 0, 64, 34
1, 121245, Control_c, 0, 64, 29
1, 121245, Control_c, 0, 67, 96
1, 121246, Note_on_c, 0, 73, 44
1, 121251, Note_on_c, 0, 66, 42
1, 121259, Control_c, 0, 64, 27
1, 121259, Control_c, 0, 67, 96
1, 121264, Note_on_c, 0, 70, 38
1, 121274, Control_c, 0, 64, 28
1, 121289, Control_c, 0, 64, 28
1, 121289, Control_c, 0, 67, 95
1, 121304, Control_c, 0, 64, 29
1, 121304, Control_c, 0, 67, 93
1, 121319, Control_c, 0, 64, 30
1, 121319, Control_c, 0, 67, 86
1, 121333, Control_c, 0, 64, 31
1, 121333, Control_c, 0, 67, 75
1, 121348, Control_c, 0, 64, 31
1, 121348, Control_c, 0, 67, 63
1, 121363, Control_c, 0, 64, 32
1, 121363, Control_c, 0, 67, 53
1, 121378, Control_c, 0, 67, 49
1, 121393, Control_c, 0, 64, 34
1, 121408, Control_c, 0, 64, 35
1, 121423, Control_c, 0, 64, 35
1, 121452, Control_c, 0, 67, 49
1, 121467, Control_c, 0, 67, 48
1, 121482, Control_c, 0, 67, 48
1, 121512, Control_c, 0, 64, 36
1, 121512, Control_c, 0, 67, 47
1, 121526, Control_c, 0, 64, 38
1, 121526, Control_c, 0, 67, 44
1, 121541, Control_c, 0, 64, 39
1, 121541, Control_c, 0, 67, 40
1, 121563, Control_c, 0, 64, 40
1, 121563, Control_c, 0, 67, 36
1, 121578, Control_c, 0, 64, 42
1, 121578, Control_c, 0, 67, 31
1, 121593, Control_c, 0, 64, 42
1, 121593, Control_c, 0, 67, 25
1, 121608, Control_c, 0, 64, 43
1, 121608, Control_c, 0, 67, 20
1, 121614, Note_on_c, 0, 65, 59
1, 121623, Control_c, 0, 64, 44
1, 121623, Control_c, 0, 67, 15
1, 121638, Control_c, 0, 64, 45
1, 121638, Control_c, 0, 67, 10
1, 121652, Control_c, 0, 64, 46
1, 121652, Control_c, 0, 67, 0
1, 121654, Note_off_c, 0, 70, 42
1, 121667, Control_c, 0, 64, 46
1, 121681, Note_off_c, 0, 66, 41
1, 121682, Control_c, 0, 64, 47
1, 121690, Note_off_c, 0, 73, 42
1, 121697, Control_c, 0, 64, 49
1, 121712, Control_c, 0, 64, 50
1, 121727, Control_c, 0, 64, 50
1, 121742, Control_c, 0, 64, 51
1, 121757, Control_c, 0, 64, 51
1, 121787, Control_c, 0, 64, 52
1, 121831, Control_c, 0, 64, 51
1, 121846, Control_c, 0, 64, 50
1, 121861, Control_c, 0, 64, 46
1, 121876, Control_c, 0, 64, 39
1, 121890, Control_c, 0, 64, 27
1, 121905, Control_c, 0, 64, 18
1, 121920, Control_c, 0, 64, 17
1, 121935, Control_c, 0, 64, 17
1, 121946, Note_on_c, 0, 74, 64
1, 121950, Control_c, 0, 64, 18
1, 121964, Control_c, 0, 64, 20
1, 121977, Note_on_c, 0, 64, 42
1, 121979, Control_c, 0, 64, 22
1, 121980, Note_on_c, 0, 71, 35
1, 121982, Note_on_c, 0, 68, 31
1, 121994, Control_c, 0, 64, 25
1, 122002, Note_off_c, 0, 65, 44
1, 122008, Control_c, 0, 64, 27
1, 122023, Control_c, 0, 64, 30
1, 122038, Control_c, 0, 64, 31
1, 122053, Control_c, 0, 64, 32
1, 122171, Control_c, 0, 64, 31
1, 122186, Control_c, 0, 64, 30
1, 122201, Control_c, 0, 64, 30
1, 122231, Control_c, 0, 64, 29
1, 122246, Control_c, 0, 64, 28
1, 122261, Control_c, 0, 64, 25
1, 122275, Control_c, 0, 64, 19
1, 122278, Note_off_c, 0, 71, 43
1, 122290, Control_c, 0, 64, 9
1, 122312, Control_c, 0, 64, 0
1, 122320, Note_on_c, 0, 75, 54
1, 122322, Note_off_c, 0, 64, 52
1, 122331, Note_on_c, 0, 63, 45
1, 122344, Note_off_c, 0, 74, 57
1, 122409, Note_off_c, 0, 68, 42
1, 122580, Control_c, 0, 64, 12
1, 122595, Control_c, 0, 64, 20
1, 122610, Control_c, 0, 64, 25
1, 122624, Control_c, 0, 64, 30
1, 122639, Control_c, 0, 64, 34
1, 122654, Control_c, 0, 64, 40
1, 122669, Control_c, 0, 64, 46
1, 122679, Note_on_c, 0, 70, 60
1, 122684, Note_on_c, 0, 67, 35
1, 122684, Control_c, 0, 64, 50
1, 122699, Control_c, 0, 64, 54
1, 122714, Control_c, 0, 64, 57
1, 122725, Note_off_c, 0, 75, 60
1, 122729, Control_c, 0, 64, 58
1, 122737, Note_off_c, 0, 67, 44
1, 122743, Control_c, 0, 64, 59
1, 122758, Control_c, 0, 64, 59
1, 122788, Control_c, 0, 64, 59
1, 122803, Control_c, 0, 64, 58
1, 122818, Control_c, 0, 64, 57
1, 122832, Control_c, 0, 64, 57
1, 122847, Control_c, 0, 64, 56
1, 122862, Control_c, 0, 64, 55
1, 122877, Control_c, 0, 64, 54
1, 122892, Control_c, 0, 64, 53
1, 122906, Control_c, 0, 64, 51
1, 122921, Control_c, 0, 64, 46
1, 122936, Control_c, 0, 64, 38
1, 122951, Control_c, 0, 64, 25
1, 122966, Control_c, 0, 64, 9
1, 122980, Control_c, 0, 64, 0
1, 123007, Note_on_c, 0, 75, 76
1, 123010, Control_c, 0, 64, 10
1, 123018, Note_on_c, 0, 65, 69
1, 123024, Control_c, 0, 64, 15
1, 123027, Note_on_c, 0, 69, 55
1, 123028, Note_on_c, 0, 60, 59
1, 123039, Control_c, 0, 64, 18
1, 123062, Control_c, 0, 64, 22
1, 123077, Control_c, 0, 64, 25
1, 123092, Control_c, 0, 64, 28
1, 123099, Note_off_c, 0, 70, 54
1, 123100, Note_off_c, 0, 63, 50
1, 123106, Control_c, 0, 64, 30
1, 123121, Control_c, 0, 64, 31
1, 123195, Control_c, 0, 64, 30
1, 123210, Control_c, 0, 64, 29
1, 123225, Control_c, 0, 64, 27
1, 123239, Control_c, 0, 64, 24
1, 123254, Control_c, 0, 64, 19
1, 123269, Control_c, 0, 64, 0
1, 123322, Note_off_c, 0, 60, 61
1, 123353, Note_on_c, 0, 66, 50
1, 123358, Note_on_c, 0, 58, 42
1, 123367, Note_off_c, 0, 65, 39
1, 123368, Note_on_c, 0, 70, 51
1, 123439, Note_off_c, 0, 69, 38
1, 123682, Note_on_c, 0, 73, 76
1, 123697, Note_on_c, 0, 65, 67
1, 123700, Control_c, 0, 64, 22
1, 123711, Note_off_c, 0, 75, 56
1, 123715, Control_c, 0, 64, 34
1, 123720, Note_off_c, 0, 70, 62
1, 123729, Control_c, 0, 64, 42
1, 123735, Note_off_c, 0, 66, 60
1, 123744, Control_c, 0, 64, 50
1, 123745, Note_off_c, 0, 73, 63
1, 123759, Control_c, 0, 64, 55
1, 123773, Control_c, 0, 64, 58
1, 123788, Control_c, 0, 64, 60
1, 123811, Control_c, 0, 64, 60
1, 123855, Control_c, 0, 64, 61
1, 123884, Control_c, 0, 64, 60
1, 123914, Control_c, 0, 64, 60
1, 123928, Control_c, 0, 64, 59
1, 123943, Control_c, 0, 64, 58
1, 123958, Control_c, 0, 64, 56
1, 123973, Control_c, 0, 64, 53
1, 123987, Control_c, 0, 64, 47
1, 124002, Note_on_c, 0, 76, 88
1, 124002, Control_c, 0, 64, 38
1, 124010, Note_on_c, 0, 67, 86
1, 124013, Note_off_c, 0, 58, 44
1, 124017, Note_on_c, 0, 70, 71
1, 124017, Control_c, 0, 64, 29
1, 124027, Note_on_c, 0, 73, 61
1, 124032, Control_c, 0, 64, 14
1, 124047, Control_c, 0, 64, 0
1, 124097, Note_off_c, 0, 65, 48
1, 124312, Note_off_c, 0, 73, 45
1, 124353, Note_on_c, 0, 77, 91
1, 124356, Note_on_c, 0, 65, 74
1, 124389, Note_off_c, 0, 70, 28
1, 124396, Note_off_c, 0, 76, 48
1, 124413, Note_off_c, 0, 67, 61
1, 124559, Control_c, 0, 64, 15
1, 124574, Control_c, 0, 64, 24
1, 124589, Control_c, 0, 64, 31
1, 124603, Control_c, 0, 64, 38
1, 124618, Control_c, 0, 64, 45
1, 124633, Control_c, 0, 64, 53
1, 124648, Control_c, 0, 64, 58
1, 124663, Control_c, 0, 64, 62
1, 124677, Control_c, 0, 64, 64
1, 124681, Note_on_c, 0, 72, 83
1, 124684, Note_on_c, 0, 68, 80
1, 124692, Control_c, 0, 64, 65
1, 124707, Control_c, 0, 64, 67
1, 124719, Note_off_c, 0, 77, 62
1, 124722, Control_c, 0, 64, 68
1, 124724, Note_off_c, 0, 68, 58
1, 124732, Note_off_c, 0, 72, 64
1, 124737, Control_c, 0, 64, 68
1, 124781, Control_c, 0, 64, 68
1, 124825, Control_c, 0, 64, 67
1, 124840, Control_c, 0, 64, 66
1, 124855, Control_c, 0, 64, 65
1, 124870, Control_c, 0, 64, 65
1, 124900, Control_c, 0, 64, 64
1, 124915, Control_c, 0, 64, 64
1, 124930, Control_c, 0, 64, 63
1, 124945, Control_c, 0, 64, 62
1, 124960, Control_c, 0, 64, 62
1, 124989, Note_on_c, 0, 77, 96
1, 124994, Note_on_c, 0, 67, 92
1, 124996, Note_on_c, 0, 62, 77
1, 124999, Note_on_c, 0, 71, 87
1, 125004, Control_c, 0, 64, 61
1, 125019, Control_c, 0, 64, 61
1, 125032, Note_off_c, 0, 65, 65
1, 125033, Control_c, 0, 64, 60
1, 125048, Control_c, 0, 64, 59
1, 125063, Control_c, 0, 64, 57
1, 125078, Control_c, 0, 64, 55
1, 125093, Control_c, 0, 64, 52
1, 125107, Control_c, 0, 64, 48
1, 125122, Control_c, 0, 64, 42
1, 125137, Control_c, 0, 64, 35
1, 125152, Control_c, 0, 64, 25
1, 125167, Control_c, 0, 64, 12
1, 125179, Note_off_c, 0, 71, 60
1, 125182, Control_c, 0, 64, 0
1, 125185, Note_off_c, 0, 67, 0
1, 125221, Poly_aftertouch_c, 0, 67, 127
1, 125232, Note_on_c, 0, 67, 11
1, 125323, Note_on_c, 0, 72, 80
1, 125325, Note_on_c, 0, 68, 95
1, 125329, Note_on_c, 0, 60, 70
1, 125358, Note_off_c, 0, 67, 63
1, 125394, Note_off_c, 0, 62, 46
1, 125645, Note_on_c, 0, 75, 100
1, 125649, Control_c, 0, 64, 20
1, 125654, Note_on_c, 0, 67, 94
1, 125656, Note_off_c, 0, 77, 62
1, 125664, Control_c, 0, 64, 34
1, 125666, Note_off_c, 0, 72, 63
1, 125680, Control_c, 0, 64, 46
1, 125681, Note_off_c, 0, 68, 62
1, 125695, Note_off_c, 0, 75, 66
1, 125695, Control_c, 0, 64, 56
1, 125709, Control_c, 0, 64, 62
1, 125724, Control_c, 0, 64, 66
1, 125739, Control_c, 0, 64, 67
1, 125828, Control_c, 0, 64, 67
1, 125843, Control_c, 0, 64, 66
1, 125887, Control_c, 0, 64, 66
1, 125917, Control_c, 0, 64, 65
1, 125931, Control_c, 0, 64, 64
1, 125946, Control_c, 0, 64, 64
1, 125961, Control_c, 0, 64, 62
1, 125965, Note_on_c, 0, 78, 107
1, 125966, Note_on_c, 0, 68, 101
1, 125972, Note_on_c, 0, 72, 84
1, 125975, Control_c, 0, 64, 59
1, 125976, Note_on_c, 0, 75, 81
1, 125990, Control_c, 0, 64, 55
1, 125994, Note_off_c, 0, 67, 61
1, 126005, Control_c, 0, 64, 47
1, 126020, Control_c, 0, 64, 36
1, 126035, Control_c, 0, 64, 22
1, 126057, Control_c, 0, 64, 0
1, 126135, Note_off_c, 0, 75, 33
1, 126303, Note_on_c, 0, 79, 94
1, 126306, Note_on_c, 0, 67, 97
1, 126330, Note_off_c, 0, 72, 62
1, 126336, Note_off_c, 0, 78, 65
1, 126342, Note_off_c, 0, 68, 62
1, 126356, Note_off_c, 0, 60, 53
1, 126473, Control_c, 0, 64, 16
1, 126487, Control_c, 0, 64, 36
1, 126502, Control_c, 0, 64, 50
1, 126517, Control_c, 0, 64, 61
1, 126532, Control_c, 0, 64, 71
1, 126547, Control_c, 0, 64, 85
1, 126562, Control_c, 0, 64, 95
1, 126577, Control_c, 0, 64, 102
1, 126592, Control_c, 0, 64, 109
1, 126606, Control_c, 0, 64, 127
1, 126611, Note_on_c, 0, 74, 78
1, 126614, Note_on_c, 0, 71, 77
1, 126623, Note_off_c, 0, 79, 58
1, 126634, Note_off_c, 0, 71, 72
1, 126637, Note_off_c, 0, 74, 67
1, 126639, Note_off_c, 0, 67, 61
1, 126725, Control_c, 0, 64, 110
1, 126740, Control_c, 0, 64, 86
1, 126754, Control_c, 0, 64, 69
1, 126769, Control_c, 0, 64, 54
1, 126776, Note_on_c, 0, 80, 95
1, 126781, Note_on_c, 0, 71, 82
1, 126781, Note_on_c, 0, 74, 82
1, 126783, Note_on_c, 0, 65, 94
1, 126784, Control_c, 0, 64, 17
1, 126805, Note_off_c, 0, 71, 74
1, 126806, Control_c, 0, 64, 0
1, 126808, Note_off_c, 0, 74, 72
1, 126818, Note_off_c, 0, 65, 67
1, 126827, Note_off_c, 0, 80, 64
1, 126932, Note_on_c, 0, 80, 100
1, 126937, Note_on_c, 0, 65, 98
1, 126941, Note_on_c, 0, 71, 88
1, 126944, Note_on_c, 0, 74, 73
1, 126959, Note_off_c, 0, 71, 74
1, 126959, Note_off_c, 0, 65, 69
1, 126962, Note_off_c, 0, 74, 73
1, 126979, Note_off_c, 0, 80, 64
1, 127088, Note_on_c, 0, 65, 98
1, 127088, Note_on_c, 0, 80, 98
1, 127093, Note_on_c, 0, 71, 90
1, 127095, Note_on_c, 0, 74, 79
1, 127120, Note_off_c, 0, 71, 66
1, 127122, Note_off_c, 0, 65, 66
1, 127129, Note_off_c, 0, 74, 61
1, 127141, Note_off_c, 0, 80, 63
1, 127268, Note_on_c, 0, 80, 102
1, 127272, Note_on_c, 0, 74, 89
1, 127273, Note_on_c, 0, 71, 94
1, 127277, Note_on_c, 0, 65, 105
1, 127281, Control_c, 0, 64, 19
1, 127295, Control_c, 0, 64, 46
1, 127296, Note_off_c, 0, 71, 69
1, 127301, Note_off_c, 0, 74, 67
1, 127305, Note_off_c, 0, 65, 74
1, 127310, Control_c, 0, 64, 61
1, 127314, Note_off_c, 0, 80, 66
1, 127325, Control_c, 0, 64, 79
1, 127340, Control_c, 0, 64, 127
1, 127570, Control_c, 0, 64, 92
1, 127584, Control_c, 0, 64, 75
1, 127599, Control_c, 0, 64, 64
1, 127614, Control_c, 0, 64, 55
1, 127629, Control_c, 0, 64, 29
1, 127644, Control_c, 0, 64, 0
1, 127790, Note_on_c, 0, 36, 78
1, 127796, Note_on_c, 0, 35, 68
1, 127820, Note_off_c, 0, 35, 63
1, 127820, Note_off_c, 0, 36, 66
1, 127952, Note_on_c, 0, 35, 92
1, 127988, Note_off_c, 0, 35, 64
1, 128117, Note_on_c, 0, 35, 99
1, 128153, Note_off_c, 0, 35, 69
1, 128315, Note_on_c, 0, 35, 94
1, 128689, Note_off_c, 0, 35, 58
1, 129054, Note_on_c, 0, 77, 63
1, 129054, Note_on_c, 0, 80, 63
1, 129084, Note_off_c, 0, 77, 60
1, 129084, Note_off_c, 0, 80, 61
1, 129221, Note_on_c, 0, 80, 75
1, 129231, Note_on_c, 0, 77, 58
1, 129259, Note_off_c, 0, 77, 62
1, 129261, Note_off_c, 0, 80, 62
1, 129401, Note_on_c, 0, 80, 73
1, 129411, Note_on_c, 0, 77, 62
1, 129433, Note_off_c, 0, 77, 65
1, 129445, Note_off_c, 0, 80, 62
1, 129609, Note_on_c, 0, 80, 56
1, 129613, Note_on_c, 0, 77, 49
1, 129749, Control_c, 0, 67, 8
1, 129763, Control_c, 0, 67, 9
1, 129778, Control_c, 0, 67, 10
1, 129801, Control_c, 0, 67, 10
1, 129816, Control_c, 0, 67, 11
1, 129830, Control_c, 0, 67, 12
1, 129845, Control_c, 0, 67, 13
1, 129860, Control_c, 0, 67, 15
1, 129875, Control_c, 0, 67, 16
1, 129890, Control_c, 0, 67, 18
1, 129904, Control_c, 0, 67, 20
1, 129919, Control_c, 0, 67, 22
1, 129934, Control_c, 0, 67, 24
1, 129949, Control_c, 0, 67, 26
1, 129964, Control_c, 0, 67, 30
1, 129978, Control_c, 0, 67, 34
1, 129993, Control_c, 0, 67, 38
1, 130008, Control_c, 0, 67, 43
1, 130023, Control_c, 0, 67, 48
1, 130038, Control_c, 0, 67, 53
1, 130053, Control_c, 0, 67, 59
1, 130068, Control_c, 0, 67, 67
1, 130082, Control_c, 0, 67, 75
1, 130097, Control_c, 0, 67, 84
1, 130112, Control_c, 0, 67, 93
1, 130127, Control_c, 0, 67, 103
1, 130141, Control_c, 0, 67, 112
1, 130156, Control_c, 0, 67, 123
1, 130171, Control_c, 0, 67, 127
1, 130220, Note_off_c, 0, 77, 40
1, 130252, Note_off_c, 0, 80, 45
1, 130565, Note_on_c, 0, 34, 43
1, 130599, Note_off_c, 0, 34, 56
1, 130733, Note_on_c, 0, 34, 44
1, 130772, Note_off_c, 0, 34, 63
1, 130831, Control_c, 0, 67, 124
1, 130845, Control_c, 0, 67, 117
1, 130860, Control_c, 0, 67, 108
1, 130875, Control_c, 0, 67, 99
1, 130890, Note_on_c, 0, 34, 45
1, 130890, Control_c, 0, 67, 94
1, 130905, Control_c, 0, 67, 90
1, 130919, Control_c, 0, 67, 90
1, 130926, Note_off_c, 0, 34, 54
1, 130949, Control_c, 0, 67, 89
1, 130978, Control_c, 0, 67, 89
1, 130993, Control_c, 0, 67, 88
1, 131008, Control_c, 0, 67, 84
1, 131023, Control_c, 0, 67, 80
1, 131037, Control_c, 0, 67, 74
1, 131052, Control_c, 0, 67, 69
1, 131054, Note_on_c, 0, 34, 42
1, 131066, Note_on_c, 0, 50, 45
1, 131067, Control_c, 0, 67, 64
1, 131082, Control_c, 0, 67, 60
1, 131086, Note_off_c, 0, 34, 56
1, 131097, Control_c, 0, 67, 58
1, 131111, Control_c, 0, 67, 56
1, 131116, Note_off_c, 0, 50, 47
1, 131126, Control_c, 0, 67, 54
1, 131132, Note_on_c, 0, 53, 32
1, 131141, Control_c, 0, 67, 51
1, 131156, Control_c, 0, 67, 48
1, 131166, Note_off_c, 0, 53, 56
1, 131170, Control_c, 0, 67, 44
1, 131185, Control_c, 0, 67, 41
1, 131192, Note_on_c, 0, 51, 52
1, 131200, Control_c, 0, 67, 37
1, 131215, Control_c, 0, 67, 35
1, 131225, Note_off_c, 0, 51, 64
1, 131230, Control_c, 0, 67, 32
1, 131245, Control_c, 0, 67, 30
1, 131253, Note_on_c, 0, 55, 52
1, 131260, Control_c, 0, 67, 29
1, 131275, Control_c, 0, 67, 27
1, 131298, Control_c, 0, 67, 25
1, 131313, Control_c, 0, 67, 25
1, 131317, Note_off_c, 0, 55, 63
1, 131328, Control_c, 0, 67, 23
1, 131342, Control_c, 0, 67, 21
1, 131343, Note_on_c, 0, 53, 31
1, 131357, Control_c, 0, 67, 19
1, 131372, Control_c, 0, 67, 15
1, 131380, Note_off_c, 0, 53, 43
1, 131387, Control_c, 0, 67, 12
1, 131401, Control_c, 0, 67, 8
1, 131416, Control_c, 0, 67, 0
1, 131480, Note_on_c, 0, 58, 54
1, 131486, Note_on_c, 0, 56, 52
1, 131505, Note_off_c, 0, 58, 61
1, 131515, Note_off_c, 0, 56, 66
1, 131641, Note_on_c, 0, 56, 52
1, 131645, Note_on_c, 0, 58, 39
1, 131668, Note_off_c, 0, 56, 63
1, 131671, Note_off_c, 0, 58, 57
1, 131790, Note_on_c, 0, 58, 46
1, 131795, Note_on_c, 0, 56, 44
1, 131827, Note_off_c, 0, 58, 63
1, 131829, Note_off_c, 0, 56, 62
1, 131947, Note_on_c, 0, 58, 41
1, 131948, Note_on_c, 0, 62, 54
1, 131950, Note_on_c, 0, 56, 37
1, 131974, Note_off_c, 0, 58, 53
1, 131982, Note_off_c, 0, 56, 48
1, 131987, Note_off_c, 0, 62, 62
1, 132013, Note_on_c, 0, 65, 53
1, 132065, Note_off_c, 0, 65, 65
1, 132089, Note_on_c, 0, 63, 55
1, 132130, Note_off_c, 0, 63, 67
1, 132155, Note_on_c, 0, 67, 61
1, 132220, Note_on_c, 0, 65, 65
1, 132221, Note_off_c, 0, 67, 62
1, 132247, Note_off_c, 0, 65, 69
1, 132378, Note_on_c, 0, 70, 68
1, 132384, Note_on_c, 0, 68, 62
1, 132405, Note_off_c, 0, 70, 65
1, 132413, Note_off_c, 0, 68, 65
1, 132534, Note_on_c, 0, 70, 68
1, 132537, Note_on_c, 0, 68, 60
1, 132562, Note_off_c, 0, 70, 65
1, 132568, Note_off_c, 0, 68, 64
1, 132678, Note_on_c, 0, 70, 73
1, 132685, Note_on_c, 0, 68, 65
1, 132707, Note_off_c, 0, 70, 61
1, 132715, Note_off_c, 0, 68, 65
1, 132840, Note_on_c, 0, 70, 75
1, 132843, Note_on_c, 0, 68, 73
1, 132846, Note_on_c, 0, 74, 74
1, 132863, Note_off_c, 0, 70, 69
1, 132867, Note_off_c, 0, 68, 67
1, 132921, Note_on_c, 0, 77, 77
1, 132934, Note_off_c, 0, 74, 63
1, 132985, Note_off_c, 0, 77, 62
1, 132991, Note_on_c, 0, 75, 78
1, 133050, Note_off_c, 0, 75, 64
1, 133054, Note_on_c, 0, 79, 81
1, 133123, Note_on_c, 0, 77, 86
1, 133144, Note_off_c, 0, 79, 65
1, 133161, Note_off_c, 0, 77, 66
1, 133406, Note_on_c, 0, 70, 68
1, 133410, Note_on_c, 0, 68, 65
1, 133423, Note_on_c, 0, 74, 76
1, 133431, Note_off_c, 0, 70, 66
1, 133437, Note_off_c, 0, 68, 66
1, 133491, Note_on_c, 0, 77, 75
1, 133498, Note_off_c, 0, 74, 62
1, 133567, Note_on_c, 0, 75, 84
1, 133569, Note_off_c, 0, 77, 63
1, 133573, Note_on_c, 0, 70, 60
1, 133576, Note_on_c, 0, 68, 60
1, 133606, Note_off_c, 0, 70, 63
1, 133609, Note_off_c, 0, 68, 63
1, 133618, Note_off_c, 0, 75, 65
1, 133638, Note_on_c, 0, 79, 85
1, 133714, Note_on_c, 0, 77, 91
1, 133721, Note_on_c, 0, 70, 73
1, 133725, Note_on_c, 0, 68, 70
1, 133730, Note_off_c, 0, 79, 64
1, 133743, Note_off_c, 0, 70, 68
1, 133750, Note_off_c, 0, 68, 66
1, 133755, Note_off_c, 0, 77, 65
1, 134048, Note_on_c, 0, 74, 58
1, 134054, Note_on_c, 0, 70, 51
1, 134056, Note_on_c, 0, 68, 51
1, 134079, Note_off_c, 0, 70, 58
1, 134087, Note_off_c, 0, 68, 54
1, 134088, Note_on_c, 0, 77, 58
1, 134098, Note_off_c, 0, 74, 59
1, 134154, Note_off_c, 0, 77, 63
1, 134178, Note_on_c, 0, 75, 59
1, 134201, Note_on_c, 0, 68, 50
1, 134206, Note_on_c, 0, 70, 45
1, 134223, Note_off_c, 0, 75, 62
1, 134235, Note_off_c, 0, 70, 55
1, 134241, Note_off_c, 0, 68, 61
1, 134249, Note_on_c, 0, 79, 65
1, 134328, Note_off_c, 0, 79, 58
1, 134345, Note_on_c, 0, 77, 71
1, 134360, Note_on_c, 0, 70, 56
1, 134368, Note_on_c, 0, 68, 57
1, 134385, Note_off_c, 0, 77, 62
1, 134389, Note_off_c, 0, 70, 65
1, 134396, Note_off_c, 0, 68, 63
1, 134774, Note_on_c, 0, 68, 45
1, 134902, Note_on_c, 0, 70, 56
1, 134988, Note_on_c, 0, 72, 55
1, 135019, Control_c, 0, 64, 14
1, 135041, Control_c, 0, 64, 22
1, 135056, Control_c, 0, 64, 28
1, 135060, Note_off_c, 0, 72, 59
1, 135061, Note_on_c, 0, 74, 66
1, 135071, Control_c, 0, 64, 33
1, 135085, Control_c, 0, 64, 39
1, 135100, Control_c, 0, 64, 44
1, 135112, Note_off_c, 0, 74, 57
1, 135115, Control_c, 0, 64, 47
1, 135120, Note_on_c, 0, 75, 71
1, 135130, Control_c, 0, 64, 50
1, 135144, Control_c, 0, 64, 51
1, 135154, Note_off_c, 0, 75, 64
1, 135155, Note_off_c, 0, 70, 56
1, 135159, Control_c, 0, 64, 51
1, 135174, Control_c, 0, 64, 52
1, 135177, Note_off_c, 0, 68, 56
1, 135180, Note_on_c, 0, 77, 80
1, 135204, Control_c, 0, 64, 52
1, 135219, Control_c, 0, 64, 53
1, 135233, Control_c, 0, 64, 54
1, 135243, Note_on_c, 0, 79, 81
1, 135248, Control_c, 0, 64, 54
1, 135254, Note_off_c, 0, 77, 54
1, 135264, Control_c, 0, 64, 55
1, 135279, Control_c, 0, 64, 55
1, 135294, Control_c, 0, 64, 56
1, 135305, Note_on_c, 0, 80, 83
1, 135308, Control_c, 0, 64, 56
1, 135323, Note_off_c, 0, 79, 63
1, 135358, Note_on_c, 0, 82, 82
1, 135371, Note_off_c, 0, 80, 65
1, 135385, Note_off_c, 0, 82, 69
1, 135412, Control_c, 0, 64, 56
1, 135424, Note_on_c, 0, 84, 87
1, 135427, Control_c, 0, 64, 55
1, 135442, Control_c, 0, 64, 55
1, 135457, Control_c, 0, 64, 54
1, 135472, Control_c, 0, 64, 54
1, 135486, Note_on_c, 0, 86, 90
1, 135502, Control_c, 0, 64, 53
1, 135512, Note_off_c, 0, 84, 61
1, 135516, Control_c, 0, 64, 53
1, 135546, Control_c, 0, 64, 52
1, 135549, Note_on_c, 0, 87, 98
1, 135585, Note_off_c, 0, 86, 59
1, 135660, Note_off_c, 0, 87, 65
1, 135679, Control_c, 0, 64, 51
1, 135693, Control_c, 0, 64, 50
1, 135708, Control_c, 0, 64, 48
1, 135723, Control_c, 0, 64, 45
1, 135738, Control_c, 0, 64, 42
1, 135748, Note_on_c, 0, 89, 99
1, 135752, Control_c, 0, 64, 39
1, 135754, Note_on_c, 0, 62, 70
1, 135758, Note_on_c, 0, 65, 74
1, 135761, Note_on_c, 0, 58, 65
1, 135764, Note_on_c, 0, 56, 67
1, 135767, Control_c, 0, 64, 35
1, 135790, Control_c, 0, 64, 27
1, 135805, Control_c, 0, 64, 12
1, 135820, Control_c, 0, 64, 0
1, 136339, Control_c, 0, 64, 11
1, 136354, Control_c, 0, 64, 18
1, 136369, Control_c, 0, 64, 22
1, 136384, Control_c, 0, 64, 26
1, 136399, Control_c, 0, 64, 29
1, 136414, Control_c, 0, 64, 33
1, 136429, Control_c, 0, 64, 36
1, 136444, Control_c, 0, 64, 39
1, 136458, Control_c, 0, 64, 41
1, 136473, Control_c, 0, 64, 44
1, 136488, Control_c, 0, 64, 45
1, 136502, Control_c, 0, 64, 46
1, 136517, Control_c, 0, 64, 46
1, 136599, Control_c, 0, 64, 46
1, 136628, Control_c, 0, 64, 45
1, 136673, Control_c, 0, 64, 45
1, 136703, Control_c, 0, 64, 44
1, 136732, Control_c, 0, 64, 44
1, 136777, Control_c, 0, 64, 43
1, 136791, Control_c, 0, 64, 43
1, 136821, Control_c, 0, 64, 42
1, 136896, Control_c, 0, 64, 42
1, 136944, Note_on_c, 0, 87, 65
1, 136970, Control_c, 0, 64, 41
1, 137014, Note_off_c, 0, 89, 59
1, 137029, Control_c, 0, 64, 41
1, 137074, Control_c, 0, 64, 40
1, 137118, Control_c, 0, 64, 40
1, 137181, Note_on_c, 0, 86, 71
1, 137237, Note_off_c, 0, 87, 63
1, 137266, Control_c, 0, 64, 39
1, 137341, Note_off_c, 0, 86, 63
1, 137353, Note_on_c, 0, 84, 72
1, 137362, Control_c, 0, 64, 39
1, 137407, Control_c, 0, 64, 38
1, 137451, Control_c, 0, 64, 38
1, 137481, Control_c, 0, 64, 37
1, 137490, Note_on_c, 0, 82, 70
1, 137511, Control_c, 0, 64, 37
1, 137527, Note_off_c, 0, 84, 59
1, 137540, Control_c, 0, 64, 36
1, 137555, Control_c, 0, 64, 36
1, 137600, Control_c, 0, 64, 35
1, 137614, Control_c, 0, 64, 35
1, 137618, Note_on_c, 0, 80, 74
1, 137644, Control_c, 0, 64, 34
1, 137660, Control_c, 0, 64, 34
1, 137683, Note_off_c, 0, 82, 65
1, 137690, Control_c, 0, 64, 33
1, 137719, Control_c, 0, 64, 32
1, 137733, Note_on_c, 0, 79, 79
1, 137734, Control_c, 0, 64, 32
1, 137749, Control_c, 0, 64, 31
1, 137763, Control_c, 0, 64, 30
1, 137771, Note_off_c, 0, 80, 61
1, 137778, Control_c, 0, 64, 29
1, 137793, Control_c, 0, 64, 28
1, 137808, Control_c, 0, 64, 28
1, 137822, Note_on_c, 0, 77, 77
1, 137822, Note_off_c, 0, 79, 63
1, 137823, Control_c, 0, 64, 26
1, 137837, Control_c, 0, 64, 25
1, 137852, Control_c, 0, 64, 23
1, 137867, Control_c, 0, 64, 22
1, 137882, Control_c, 0, 64, 20
1, 137897, Control_c, 0, 64, 17
1, 137911, Control_c, 0, 64, 14
1, 137919, Note_on_c, 0, 80, 84
1, 137926, Control_c, 0, 64, 12
1, 137941, Control_c, 0, 64, 11
1, 137946, Note_off_c, 0, 77, 56
1, 138005, Note_on_c, 0, 79, 77
1, 138017, Note_off_c, 0, 80, 63
1, 138096, Note_on_c, 0, 82, 85
1, 138096, Control_c, 0, 64, 12
1, 138106, Note_off_c, 0, 79, 63
1, 138111, Control_c, 0, 64, 12
1, 138126, Control_c, 0, 64, 13
1, 138141, Control_c, 0, 64, 14
1, 138170, Control_c, 0, 64, 14
1, 138186, Note_on_c, 0, 80, 81
1, 138215, Control_c, 0, 64, 14
1, 138224, Note_off_c, 0, 82, 64
1, 138229, Control_c, 0, 64, 12
1, 138244, Control_c, 0, 64, 10
1, 138259, Control_c, 0, 64, 9
1, 138292, Note_on_c, 0, 84, 80
1, 138319, Control_c, 0, 64, 10
1, 138321, Note_off_c, 0, 80, 62
1, 138334, Control_c, 0, 64, 12
1, 138348, Control_c, 0, 64, 14
1, 138363, Control_c, 0, 64, 17
1, 138378, Control_c, 0, 64, 19
1, 138393, Control_c, 0, 64, 20
1, 138408, Control_c, 0, 64, 22
1, 138421, Note_on_c, 0, 82, 74
1, 138423, Control_c, 0, 64, 23
1, 138437, Control_c, 0, 64, 24
1, 138453, Control_c, 0, 64, 25
1, 138466, Note_off_c, 0, 84, 58
1, 138468, Control_c, 0, 64, 26
1, 138483, Control_c, 0, 64, 27
1, 138497, Control_c, 0, 64, 28
1, 138506, Note_on_c, 0, 80, 76
1, 138512, Control_c, 0, 64, 29
1, 138527, Control_c, 0, 64, 29
1, 138554, Note_off_c, 0, 82, 63
1, 138590, Note_on_c, 0, 79, 74
1, 138596, Note_off_c, 0, 80, 64
1, 138641, Note_off_c, 0, 79, 62
1, 138647, Note_on_c, 0, 77, 76
1, 138675, Control_c, 0, 64, 29
1, 138704, Control_c, 0, 64, 28
1, 138723, Note_on_c, 0, 76, 75
1, 138723, Note_off_c, 0, 77, 60
1, 138734, Control_c, 0, 64, 28
1, 138784, Note_on_c, 0, 79, 73
1, 138787, Note_off_c, 0, 76, 67
1, 138837, Note_off_c, 0, 79, 62
1, 138846, Note_on_c, 0, 77, 73
1, 138910, Note_on_c, 0, 80, 80
1, 138915, Note_off_c, 0, 77, 55
1, 138969, Note_on_c, 0, 79, 72
1, 138977, Note_off_c, 0, 80, 63
1, 138978, Control_c, 0, 64, 27
1, 138993, Control_c, 0, 64, 27
1, 139021, Note_on_c, 0, 82, 82
1, 139027, Note_off_c, 0, 79, 64
1, 139052, Control_c, 0, 64, 27
1, 139067, Control_c, 0, 64, 28
1, 139092, Note_on_c, 0, 80, 78
1, 139097, Control_c, 0, 64, 29
1, 139116, Note_off_c, 0, 82, 65
1, 139126, Control_c, 0, 64, 29
1, 139141, Note_on_c, 0, 79, 77
1, 139147, Note_off_c, 0, 80, 65
1, 139187, Note_off_c, 0, 79, 60
1, 139196, Note_on_c, 0, 77, 75
1, 139216, Control_c, 0, 64, 29
1, 139230, Control_c, 0, 64, 28
1, 139245, Control_c, 0, 64, 28
1, 139256, Note_off_c, 0, 77, 60
1, 139261, Control_c, 0, 64, 27
1, 139263, Note_on_c, 0, 75, 73
1, 139276, Control_c, 0, 64, 27
1, 139290, Control_c, 0, 64, 26
1, 139305, Control_c, 0, 64, 26
1, 139320, Control_c, 0, 64, 25
1, 139324, Note_off_c, 0, 75, 61
1, 139329, Note_on_c, 0, 74, 65
1, 139335, Control_c, 0, 64, 25
1, 139350, Control_c, 0, 64, 24
1, 139365, Control_c, 0, 64, 23
1, 139380, Note_off_c, 0, 74, 64
1, 139380, Control_c, 0, 64, 22
1, 139388, Note_on_c, 0, 77, 66
1, 139394, Control_c, 0, 64, 21
1, 139409, Control_c, 0, 64, 20
1, 139424, Control_c, 0, 64, 19
1, 139439, Control_c, 0, 64, 19
1, 139454, Control_c, 0, 64, 18
1, 139465, Note_on_c, 0, 75, 64
1, 139469, Control_c, 0, 64, 17
1, 139470, Note_off_c, 0, 77, 57
1, 139483, Control_c, 0, 64, 16
1, 139498, Control_c, 0, 64, 13
1, 139513, Control_c, 0, 64, 0
1, 139545, Note_on_c, 0, 79, 69
1, 139548, Note_off_c, 0, 75, 61
1, 139656, Note_off_c, 0, 79, 57
1, 139666, Note_on_c, 0, 77, 62
1, 139683, Control_c, 0, 64, 20
1, 139698, Control_c, 0, 64, 27
1, 139713, Control_c, 0, 64, 33
1, 139727, Control_c, 0, 64, 37
1, 139742, Control_c, 0, 64, 42
1, 139750, Note_on_c, 0, 75, 63
1, 139756, Note_off_c, 0, 77, 58
1, 139757, Control_c, 0, 64, 46
1, 139772, Control_c, 0, 64, 48
1, 139772, Control_c, 0, 67, 8
1, 139787, Control_c, 0, 64, 50
1, 139787, Control_c, 0, 67, 9
1, 139801, Control_c, 0, 67, 10
1, 139816, Control_c, 0, 67, 11
1, 139826, Note_off_c, 0, 75, 61
1, 139831, Control_c, 0, 64, 49
1, 139831, Control_c, 0, 67, 11
1, 139836, Note_on_c, 0, 74, 55
1, 139846, Control_c, 0, 67, 12
1, 139861, Control_c, 0, 64, 49
1, 139861, Control_c, 0, 67, 13
1, 139865, Note_off_c, 0, 74, 61
1, 139875, Control_c, 0, 64, 48
1, 139890, Control_c, 0, 67, 13
1, 139891, Note_off_c, 0, 62, 23
1, 139902, Note_off_c, 0, 65, 32
1, 139903, Note_on_c, 0, 72, 56
1, 139905, Control_c, 0, 64, 48
1, 139905, Control_c, 0, 67, 14
1, 139920, Control_c, 0, 64, 47
1, 139920, Control_c, 0, 67, 14
1, 139934, Control_c, 0, 64, 47
1, 139934, Control_c, 0, 67, 15
1, 139949, Control_c, 0, 64, 46
1, 139949, Control_c, 0, 67, 17
1, 139950, Note_off_c, 0, 72, 47
1, 139964, Note_off_c, 0, 58, 21
1, 139964, Control_c, 0, 64, 46
1, 139964, Control_c, 0, 67, 18
1, 139979, Control_c, 0, 67, 20
1, 139982, Note_on_c, 0, 71, 50
1, 139994, Control_c, 0, 64, 45
1, 139994, Control_c, 0, 67, 21
1, 140009, Control_c, 0, 64, 45
1, 140009, Control_c, 0, 67, 25
1, 140015, Note_off_c, 0, 56, 37
1, 140016, Note_off_c, 0, 71, 62
1, 140024, Control_c, 0, 64, 44
1, 140024, Control_c, 0, 67, 31
1, 140037, Note_on_c, 0, 70, 61
1, 140039, Control_c, 0, 64, 44
1, 140039, Control_c, 0, 67, 36
1, 140054, Control_c, 0, 64, 43
1, 140054, Control_c, 0, 67, 40
1, 140069, Control_c, 0, 64, 43
1, 140069, Control_c, 0, 67, 44
1, 140073, Note_off_c, 0, 70, 63
1, 140083, Control_c, 0, 64, 42
1, 140083, Control_c, 0, 67, 47
1, 140098, Note_on_c, 0, 69, 60
1, 140098, Control_c, 0, 64, 42
1, 140098, Control_c, 0, 67, 49
1, 140113, Control_c, 0, 64, 41
1, 140128, Control_c, 0, 67, 49
1, 140131, Note_off_c, 0, 69, 64
1, 140143, Control_c, 0, 64, 40
1, 140158, Control_c, 0, 64, 40
1, 140158, Note_on_c, 0, 68, 65
1, 140173, Control_c, 0, 64, 39
1, 140188, Note_off_c, 0, 68, 65
1, 140188, Control_c, 0, 64, 38
1, 140203, Control_c, 0, 64, 37
1, 140203, Control_c, 0, 67, 49
1, 140205, Note_on_c, 0, 67, 69
1, 140217, Control_c, 0, 64, 35
1, 140217, Control_c, 0, 67, 48
1, 140232, Control_c, 0, 64, 34
1, 140232, Control_c, 0, 67, 47
1, 140239, Note_off_c, 0, 67, 60
1, 140247, Control_c, 0, 64, 32
1, 140247, Control_c, 0, 67, 46
1, 140256, Note_on_c, 0, 66, 75
1, 140262, Control_c, 0, 64, 31
1, 140283, Control_c, 0, 64, 29
1, 140283, Control_c, 0, 67, 46
1, 140298, Control_c, 0, 64, 27
1, 140298, Control_c, 0, 67, 45
1, 140313, Control_c, 0, 64, 24
1, 140313, Control_c, 0, 67, 45
1, 140315, Note_off_c, 0, 66, 62
1, 140322, Note_on_c, 0, 65, 70
1, 140328, Control_c, 0, 64, 22
1, 140328, Control_c, 0, 67, 44
1, 140343, Control_c, 0, 64, 19
1, 140343, Control_c, 0, 67, 44
1, 140358, Control_c, 0, 64, 17
1, 140373, Control_c, 0, 64, 14
1, 140373, Control_c, 0, 67, 43
1, 140373, Note_on_c, 0, 64, 70
1, 140374, Note_off_c, 0, 65, 65
1, 140387, Control_c, 0, 64, 10
1, 140387, Control_c, 0, 67, 43
1, 140402, Control_c, 0, 64, 0
1, 140417, Control_c, 0, 67, 42
1, 140423, Note_on_c, 0, 63, 72
1, 140429, Note_off_c, 0, 64, 63
1, 140466, Note_off_c, 0, 63, 65
1, 140473, Note_on_c, 0, 62, 77
1, 140513, Note_off_c, 0, 62, 61
1, 140537, Note_on_c, 0, 61, 68
1, 140572, Note_off_c, 0, 61, 66
1, 140591, Note_on_c, 0, 60, 68
1, 140646, Note_on_c, 0, 59, 68
1, 140649, Note_off_c, 0, 60, 65
1, 140730, Note_on_c, 0, 58, 69
1, 140742, Note_off_c, 0, 59, 60
1, 141062, Control_c, 0, 67, 42
1, 141092, Control_c, 0, 67, 41
1, 141103, Note_on_c, 0, 57, 65
1, 141136, Control_c, 0, 67, 41
1, 141151, Control_c, 0, 67, 40
1, 141152, Note_off_c, 0, 58, 58
1, 141166, Control_c, 0, 67, 40
1, 141180, Control_c, 0, 67, 39
1, 141195, Control_c, 0, 67, 39
1, 141210, Control_c, 0, 67, 38
1, 141240, Control_c, 0, 67, 37
1, 141285, Control_c, 0, 67, 37
1, 141314, Control_c, 0, 67, 36
1, 141403, Control_c, 0, 67, 36
1, 141418, Control_c, 0, 67, 35
1, 141432, Control_c, 0, 67, 35
1, 141447, Control_c, 0, 67, 34
1, 141477, Control_c, 0, 67, 33
1, 141690, Note_on_c, 0, 56, 46
1, 141820, Note_off_c, 0, 57, 33
1, 142002, Control_c, 0, 67, 33
1, 142047, Control_c, 0, 67, 32
1, 142062, Control_c, 0, 67, 32
1, 142076, Control_c, 0, 67, 31
1, 142106, Control_c, 0, 67, 30
1, 142120, Control_c, 0, 67, 29
1, 142135, Control_c, 0, 67, 28
1, 142150, Control_c, 0, 67, 27
1, 142402, Control_c, 0, 67, 28
1, 142477, Control_c, 0, 67, 28
1, 142492, Control_c, 0, 67, 29
1, 142544, Control_c, 0, 67, 29
1, 142589, Control_c, 0, 67, 30
1, 142781, Control_c, 0, 67, 30
1, 142856, Control_c, 0, 67, 31
1, 142930, Control_c, 0, 67, 31
1, 142974, Control_c, 0, 67, 32
1, 143004, Control_c, 0, 67, 32
1, 143107, Control_c, 0, 67, 33
1, 143196, Control_c, 0, 67, 33
1, 143225, Control_c, 0, 67, 34
1, 143279, Control_c, 0, 67, 34
1, 143294, Control_c, 0, 67, 35
1, 143323, Control_c, 0, 67, 35
1, 143353, Control_c, 0, 67, 36
1, 143368, Control_c, 0, 67, 36
1, 143382, Control_c, 0, 67, 37
1, 143397, Control_c, 0, 67, 38
1, 143412, Control_c, 0, 67, 39
1, 143427, Control_c, 0, 67, 40
1, 143442, Control_c, 0, 67, 41
1, 143456, Control_c, 0, 67, 43
1, 143471, Control_c, 0, 67, 46
1, 143486, Control_c, 0, 67, 51
1, 143500, Control_c, 0, 67, 56
1, 143515, Control_c, 0, 67, 62
1, 143530, Control_c, 0, 67, 67
1, 143545, Control_c, 0, 67, 73
1, 143560, Control_c, 0, 67, 78
1, 143574, Control_c, 0, 67, 84
1, 143589, Control_c, 0, 67, 90
1, 143604, Control_c, 0, 67, 95
1, 143619, Control_c, 0, 67, 100
1, 143634, Control_c, 0, 67, 103
1, 143649, Control_c, 0, 67, 106
1, 143663, Control_c, 0, 67, 109
1, 143678, Control_c, 0, 67, 111
1, 143693, Control_c, 0, 67, 113
1, 143708, Control_c, 0, 67, 116
1, 143723, Control_c, 0, 67, 118
1, 143738, Control_c, 0, 67, 121
1, 143753, Control_c, 0, 67, 123
1, 143767, Control_c, 0, 67, 125
1, 143782, Control_c, 0, 67, 126
1, 143797, Control_c, 0, 67, 127
1, 143888, Note_off_c, 0, 56, 44
1, 143902, Note_on_c, 0, 55, 35
1, 143966, Note_off_c, 0, 55, 43
1, 143970, Note_on_c, 0, 58, 41
1, 144030, Note_off_c, 0, 58, 63
1, 144066, Note_on_c, 0, 56, 32
1, 144097, Note_off_c, 0, 56, 57
1, 144127, Note_on_c, 0, 60, 48
1, 144131, Control_c, 0, 67, 127
1, 144146, Control_c, 0, 67, 125
1, 144161, Control_c, 0, 67, 123
1, 144176, Control_c, 0, 67, 121
1, 144191, Control_c, 0, 67, 120
1, 144205, Control_c, 0, 67, 118
1, 144207, Note_off_c, 0, 60, 63
1, 144218, Note_on_c, 0, 58, 56
1, 144220, Control_c, 0, 67, 117
1, 144234, Note_on_c, 0, 39, 33
1, 144235, Control_c, 0, 67, 116
1, 144241, Note_on_c, 0, 43, 22
1, 144249, Note_off_c, 0, 58, 64
1, 144249, Control_c, 0, 67, 114
1, 144264, Control_c, 0, 67, 113
1, 144273, Note_off_c, 0, 39, 50
1, 144279, Control_c, 0, 67, 110
1, 144284, Note_off_c, 0, 43, 40
1, 144294, Control_c, 0, 67, 108
1, 144309, Control_c, 0, 67, 107
1, 144323, Control_c, 0, 67, 106
1, 144338, Control_c, 0, 67, 105
1, 144353, Control_c, 0, 67, 103
1, 144368, Control_c, 0, 67, 99
1, 144383, Control_c, 0, 67, 96
1, 144397, Control_c, 0, 67, 94
1, 144412, Control_c, 0, 67, 91
1, 144427, Control_c, 0, 67, 87
1, 144441, Control_c, 0, 67, 84
1, 144456, Control_c, 0, 67, 79
1, 144471, Control_c, 0, 67, 74
1, 144486, Control_c, 0, 67, 69
1, 144501, Control_c, 0, 67, 63
1, 144516, Control_c, 0, 67, 55
1, 144531, Control_c, 0, 67, 47
1, 144546, Control_c, 0, 67, 39
1, 144561, Control_c, 0, 67, 31
1, 144562, Note_on_c, 0, 51, 52
1, 144562, Note_on_c, 0, 55, 43
1, 144576, Control_c, 0, 67, 24
1, 144590, Note_off_c, 0, 55, 58
1, 144590, Control_c, 0, 67, 13
1, 144590, Note_off_c, 0, 51, 64
1, 144605, Control_c, 0, 67, 0
1, 144883, Note_on_c, 0, 67, 59
1, 144960, Note_off_c, 0, 67, 62
1, 144961, Note_on_c, 0, 63, 66
1, 145025, Note_on_c, 0, 62, 69
1, 145029, Note_off_c, 0, 63, 65
1, 145088, Note_on_c, 0, 65, 78
1, 145090, Note_off_c, 0, 62, 64
1, 145164, Note_on_c, 0, 63, 77
1, 145175, Note_on_c, 0, 43, 60
1, 145178, Note_on_c, 0, 39, 64
1, 145180, Note_off_c, 0, 65, 66
1, 145205, Note_off_c, 0, 43, 63
1, 145212, Note_off_c, 0, 39, 66
1, 145214, Note_off_c, 0, 63, 66
1, 145522, Note_on_c, 0, 55, 53
1, 145527, Note_on_c, 0, 51, 44
1, 145546, Note_off_c, 0, 55, 62
1, 145555, Note_off_c, 0, 51, 51
1, 145696, Note_on_c, 0, 63, 61
1, 145857, Note_off_c, 0, 63, 64
1, 145871, Note_on_c, 0, 67, 75
1, 145881, Control_c, 0, 64, 23
1, 145895, Control_c, 0, 64, 33
1, 145910, Control_c, 0, 64, 43
1, 145925, Control_c, 0, 64, 52
1, 145940, Control_c, 0, 64, 59
1, 145955, Control_c, 0, 64, 63
1, 145969, Control_c, 0, 64, 67
1, 145984, Control_c, 0, 64, 70
1, 145999, Control_c, 0, 64, 72
1, 146013, Control_c, 0, 64, 74
1, 146025, Note_on_c, 0, 70, 89
1, 146028, Control_c, 0, 64, 76
1, 146043, Control_c, 0, 64, 76
1, 146072, Note_off_c, 0, 67, 63
1, 146088, Control_c, 0, 64, 76
1, 146102, Control_c, 0, 64, 75
1, 146117, Control_c, 0, 64, 74
1, 146132, Control_c, 0, 64, 72
1, 146141, Note_off_c, 0, 70, 61
1, 146147, Control_c, 0, 64, 71
1, 146162, Control_c, 0, 64, 67
1, 146176, Control_c, 0, 64, 65
1, 146191, Control_c, 0, 64, 62
1, 146206, Control_c, 0, 64, 59
1, 146221, Control_c, 0, 64, 53
1, 146232, Note_on_c, 0, 70, 82
1, 146236, Control_c, 0, 64, 42
1, 146249, Note_on_c, 0, 60, 44
1, 146250, Note_on_c, 0, 63, 40
1, 146251, Control_c, 0, 64, 25
1, 146273, Control_c, 0, 64, 8
1, 146288, Control_c, 0, 64, 0
1, 146302, Control_c, 0, 64, 8
1, 146317, Control_c, 0, 64, 13
1, 146332, Control_c, 0, 64, 21
1, 146347, Control_c, 0, 64, 30
1, 146362, Control_c, 0, 64, 41
1, 146376, Control_c, 0, 64, 51
1, 146391, Control_c, 0, 64, 58
1, 146406, Control_c, 0, 64, 62
1, 146421, Control_c, 0, 64, 64
1, 146436, Control_c, 0, 64, 65
1, 146463, Note_off_c, 0, 63, 63
1, 146466, Control_c, 0, 64, 64
1, 146468, Note_off_c, 0, 60, 36
1, 146496, Control_c, 0, 64, 64
1, 146511, Control_c, 0, 64, 62
1, 146525, Control_c, 0, 64, 61
1, 146540, Control_c, 0, 64, 59
1, 146555, Control_c, 0, 64, 57
1, 146570, Control_c, 0, 64, 56
1, 146585, Control_c, 0, 64, 53
1, 146591, Note_on_c, 0, 68, 71
1, 146600, Control_c, 0, 64, 49
1, 146615, Control_c, 0, 64, 42
1, 146616, Note_off_c, 0, 70, 38
1, 146629, Control_c, 0, 64, 36
1, 146644, Control_c, 0, 64, 28
1, 146659, Control_c, 0, 64, 20
1, 146674, Control_c, 0, 64, 0
1, 146707, Note_off_c, 0, 68, 55
1, 146755, Note_on_c, 0, 67, 75
1, 146766, Note_on_c, 0, 62, 45
1, 146769, Note_on_c, 0, 58, 51
1, 146784, Note_off_c, 0, 67, 62
1, 146795, Note_off_c, 0, 62, 57
1, 146800, Note_off_c, 0, 58, 54
1, 146913, Note_on_c, 0, 65, 72
1, 146917, Note_on_c, 0, 56, 51
1, 146923, Note_on_c, 0, 60, 50
1, 146940, Note_off_c, 0, 65, 68
1, 146957, Note_off_c, 0, 56, 64
1, 146966, Note_off_c, 0, 60, 57
1, 147088, Note_on_c, 0, 58, 47
1, 147090, Note_on_c, 0, 55, 47
1, 147091, Note_on_c, 0, 63, 64
1, 147112, Note_off_c, 0, 58, 59
1, 147115, Note_off_c, 0, 55, 60
1, 147119, Note_off_c, 0, 63, 71
1, 147284, Note_on_c, 0, 62, 57
1, 147321, Note_on_c, 0, 56, 40
1, 147362, Note_on_c, 0, 53, 25
1, 147615, Note_off_c, 0, 62, 58
1, 147649, Note_on_c, 0, 65, 37
1, 147678, Note_off_c, 0, 53, 43
1, 147679, Note_off_c, 0, 56, 56
1, 147697, Note_off_c, 0, 65, 53
1, 147704, Note_on_c, 0, 68, 55
1, 147738, Note_off_c, 0, 68, 63
1, 148026, Note_on_c, 0, 58, 64
1, 148093, Note_on_c, 0, 62, 68
1, 148105, Note_off_c, 0, 58, 63
1, 148166, Note_on_c, 0, 60, 73
1, 148168, Note_off_c, 0, 62, 62
1, 148246, Note_on_c, 0, 63, 79
1, 148260, Note_off_c, 0, 60, 62
1, 148310, Note_on_c, 0, 34, 83
1, 148310, Note_on_c, 0, 38, 81
1, 148316, Note_on_c, 0, 62, 81
1, 148333, Note_off_c, 0, 63, 66
1, 148345, Note_off_c, 0, 38, 66
1, 148352, Note_off_c, 0, 62, 68
1, 148352, Note_off_c, 0, 34, 64
1, 148665, Note_on_c, 0, 50, 65
1, 148668, Note_on_c, 0, 46, 64
1, 148691, Note_off_c, 0, 50, 67
1, 148698, Note_off_c, 0, 46, 66
1, 148990, Note_on_c, 0, 62, 68
1, 149059, Note_on_c, 0, 65, 76
1, 149079, Note_off_c, 0, 62, 60
1, 149137, Note_on_c, 0, 63, 82
1, 149139, Note_off_c, 0, 65, 66
1, 149204, Note_on_c, 0, 67, 80
1, 149209, Note_off_c, 0, 63, 66
1, 149283, Note_on_c, 0, 34, 84
1, 149283, Note_on_c, 0, 38, 86
1, 149285, Note_on_c, 0, 65, 92
1, 149309, Note_off_c, 0, 67, 64
1, 149316, Note_off_c, 0, 34, 69
1, 149316, Note_off_c, 0, 38, 66
1, 149327, Note_off_c, 0, 65, 69
1, 149648, Note_on_c, 0, 50, 67
1, 149654, Note_on_c, 0, 46, 60
1, 149673, Note_off_c, 0, 50, 67
1, 149679, Note_off_c, 0, 46, 63
1, 149818, Note_on_c, 0, 65, 74
1, 149989, Note_on_c, 0, 68, 86
1, 150032, Control_c, 0, 64, 11
1, 150045, Note_off_c, 0, 65, 62
1, 150047, Control_c, 0, 64, 23
1, 150062, Control_c, 0, 64, 31
1, 150076, Control_c, 0, 64, 40
1, 150091, Control_c, 0, 64, 50
1, 150106, Control_c, 0, 64, 57
1, 150121, Control_c, 0, 64, 62
1, 150135, Control_c, 0, 64, 64
1, 150150, Control_c, 0, 64, 65
1, 150166, Note_on_c, 0, 72, 91
1, 150215, Note_off_c, 0, 68, 59
1, 150224, Control_c, 0, 64, 65
1, 150239, Control_c, 0, 64, 64
1, 150254, Control_c, 0, 64, 63
1, 150269, Control_c, 0, 64, 62
1, 150282, Note_off_c, 0, 72, 58
1, 150284, Control_c, 0, 64, 60
1, 150299, Control_c, 0, 64, 58
1, 150314, Control_c, 0, 64, 55
1, 150329, Control_c, 0, 64, 52
1, 150343, Control_c, 0, 64, 48
1, 150358, Control_c, 0, 64, 44
1, 150373, Control_c, 0, 64, 41
1, 150387, Note_on_c, 0, 72, 85
1, 150387, Control_c, 0, 64, 38
1, 150402, Control_c, 0, 64, 35
1, 150412, Note_on_c, 0, 65, 46
1, 150416, Note_on_c, 0, 62, 52
1, 150417, Control_c, 0, 64, 31
1, 150433, Control_c, 0, 64, 27
1, 150448, Control_c, 0, 64, 25
1, 150478, Control_c, 0, 64, 26
1, 150492, Control_c, 0, 64, 29
1, 150507, Control_c, 0, 64, 32
1, 150522, Control_c, 0, 64, 36
1, 150537, Control_c, 0, 64, 41
1, 150552, Control_c, 0, 64, 47
1, 150566, Control_c, 0, 64, 52
1, 150581, Control_c, 0, 64, 57
1, 150596, Control_c, 0, 64, 60
1, 150611, Control_c, 0, 64, 62
1, 150626, Control_c, 0, 64, 62
1, 150640, Control_c, 0, 64, 62
1, 150649, Note_off_c, 0, 62, 53
1, 150655, Control_c, 0, 64, 61
1, 150670, Control_c, 0, 64, 60
1, 150684, Control_c, 0, 64, 58
1, 150699, Control_c, 0, 64, 56
1, 150714, Control_c, 0, 64, 54
1, 150729, Control_c, 0, 64, 51
1, 150744, Control_c, 0, 64, 47
1, 150762, Note_on_c, 0, 70, 77
1, 150766, Control_c, 0, 64, 43
1, 150781, Control_c, 0, 64, 39
1, 150796, Control_c, 0, 64, 32
1, 150811, Control_c, 0, 64, 25
1, 150816, Note_off_c, 0, 72, 57
1, 150825, Control_c, 0, 64, 15
1, 150840, Control_c, 0, 64, 0
1, 150905, Note_off_c, 0, 65, 45
1, 150928, Note_off_c, 0, 70, 62
1, 150932, Note_on_c, 0, 63, 53
1, 150934, Note_on_c, 0, 60, 52
1, 150937, Note_on_c, 0, 68, 72
1, 150956, Note_off_c, 0, 60, 60
1, 150956, Note_off_c, 0, 63, 61
1, 150962, Note_off_c, 0, 68, 64
1, 151098, Note_on_c, 0, 62, 51
1, 151101, Note_on_c, 0, 58, 51
1, 151101, Note_on_c, 0, 67, 70
1, 151127, Note_off_c, 0, 67, 67
1, 151131, Note_off_c, 0, 62, 56
1, 151143, Note_off_c, 0, 58, 60
1, 151254, Note_on_c, 0, 56, 54
1, 151256, Note_on_c, 0, 65, 71
1, 151259, Note_on_c, 0, 60, 47
1, 151282, Note_off_c, 0, 65, 70
1, 151283, Note_off_c, 0, 60, 60
1, 151289, Note_off_c, 0, 56, 63
1, 151424, Note_on_c, 0, 63, 57
1, 151426, Note_on_c, 0, 58, 50
1, 151429, Note_on_c, 0, 55, 47
1, 151459, Note_off_c, 0, 63, 67
1, 151470, Note_on_c, 0, 65, 58
1, 151515, Note_off_c, 0, 65, 66
1, 151551, Note_on_c, 0, 63, 47
1, 151579, Note_off_c, 0, 63, 58
1, 151594, Note_on_c, 0, 62, 51
1, 151640, Note_off_c, 0, 62, 54
1, 151658, Note_on_c, 0, 63, 56
1, 151673, Note_off_c, 0, 58, 29
1, 151683, Note_off_c, 0, 63, 65
1, 151707, Note_off_c, 0, 55, 42
1, 151710, Note_on_c, 0, 67, 48
1, 151759, Note_off_c, 0, 67, 61
1, 151792, Note_on_c, 0, 70, 58
1, 151826, Control_c, 0, 64, 12
1, 151840, Control_c, 0, 64, 28
1, 151855, Control_c, 0, 64, 38
1, 151870, Control_c, 0, 64, 48
1, 151885, Control_c, 0, 64, 55
1, 151900, Control_c, 0, 64, 60
1, 151915, Control_c, 0, 64, 62
1, 151928, Note_off_c, 0, 70, 60
1, 152093, Control_c, 0, 64, 60
1, 152108, Control_c, 0, 64, 55
1, 152123, Control_c, 0, 64, 43
1, 152131, Note_on_c, 0, 75, 78
1, 152138, Control_c, 0, 64, 0
1, 152210, Note_on_c, 0, 74, 80
1, 152211, Note_off_c, 0, 75, 61
1, 152292, Note_on_c, 0, 77, 95
1, 152319, Note_off_c, 0, 74, 65
1, 152365, Note_on_c, 0, 75, 89
1, 152379, Note_off_c, 0, 77, 62
1, 152380, Note_on_c, 0, 43, 55
1, 152399, Note_on_c, 0, 46, 64
1, 152442, Note_on_c, 0, 79, 87
1, 152446, Note_on_c, 0, 51, 75
1, 152447, Note_off_c, 0, 75, 66
1, 152486, Control_c, 0, 64, 14
1, 152501, Control_c, 0, 64, 22
1, 152516, Control_c, 0, 64, 26
1, 152522, Note_on_c, 0, 77, 86
1, 152528, Note_off_c, 0, 79, 63
1, 152531, Control_c, 0, 64, 29
1, 152545, Control_c, 0, 64, 32
1, 152560, Control_c, 0, 64, 33
1, 152596, Note_on_c, 0, 80, 93
1, 152618, Note_off_c, 0, 77, 60
1, 152634, Control_c, 0, 64, 34
1, 152649, Control_c, 0, 64, 34
1, 152670, Note_on_c, 0, 79, 87
1, 152684, Note_off_c, 0, 80, 64
1, 152693, Control_c, 0, 64, 34
1, 152708, Control_c, 0, 64, 31
1, 152723, Control_c, 0, 64, 22
1, 152737, Control_c, 0, 64, 0
1, 152742, Note_on_c, 0, 82, 91
1, 152750, Note_off_c, 0, 79, 65
1, 152820, Note_on_c, 0, 80, 85
1, 152855, Note_off_c, 0, 82, 65
1, 152897, Note_on_c, 0, 79, 74
1, 152899, Note_off_c, 0, 80, 65
1, 152916, Control_c, 0, 64, 15
1, 152926, Note_off_c, 0, 43, 60
1, 152931, Control_c, 0, 64, 22
1, 152945, Note_off_c, 0, 79, 61
1, 152946, Control_c, 0, 64, 28
1, 152961, Control_c, 0, 64, 31
1, 152965, Note_on_c, 0, 77, 74
1, 152976, Control_c, 0, 64, 34
1, 152991, Control_c, 0, 64, 37
1, 153012, Control_c, 0, 64, 38
1, 153027, Control_c, 0, 64, 36
1, 153030, Note_off_c, 0, 77, 62
1, 153042, Control_c, 0, 64, 29
1, 153044, Note_off_c, 0, 51, 59
1, 153044, Note_on_c, 0, 75, 70
1, 153057, Control_c, 0, 64, 10
1, 153072, Control_c, 0, 64, 0
1, 153116, Control_c, 0, 64, 15
1, 153125, Note_on_c, 0, 74, 74
1, 153131, Control_c, 0, 64, 23
1, 153135, Note_off_c, 0, 75, 59
1, 153146, Control_c, 0, 64, 29
1, 153161, Control_c, 0, 64, 34
1, 153175, Control_c, 0, 64, 38
1, 153190, Control_c, 0, 64, 42
1, 153195, Note_off_c, 0, 74, 66
1, 153202, Note_on_c, 0, 72, 73
1, 153205, Control_c, 0, 64, 46
1, 153220, Control_c, 0, 64, 49
1, 153235, Control_c, 0, 64, 50
1, 153236, Note_off_c, 0, 72, 59
1, 153265, Control_c, 0, 64, 49
1, 153279, Control_c, 0, 64, 47
1, 153283, Note_on_c, 0, 71, 61
1, 153294, Control_c, 0, 64, 45
1, 153309, Control_c, 0, 64, 43
1, 153311, Note_off_c, 0, 71, 66
1, 153324, Control_c, 0, 64, 41
1, 153339, Control_c, 0, 64, 39
1, 153353, Control_c, 0, 64, 36
1, 153368, Control_c, 0, 64, 30
1, 153383, Control_c, 0, 64, 21
1, 153397, Note_off_c, 0, 46, 0
1, 153398, Control_c, 0, 64, 0
1, 153402, Note_on_c, 0, 51, 45
1, 153408, Note_on_c, 0, 71, 55
1, 153418, Note_on_c, 0, 44, 38
1, 153438, Poly_aftertouch_c, 0, 46, 0
1, 153650, Control_c, 0, 67, 9
1, 153665, Control_c, 0, 67, 10
1, 153680, Control_c, 0, 67, 13
1, 153695, Control_c, 0, 67, 15
1, 153709, Control_c, 0, 67, 17
1, 153724, Control_c, 0, 64, 14
1, 153724, Control_c, 0, 67, 20
1, 153739, Control_c, 0, 64, 22
1, 153739, Control_c, 0, 67, 25
1, 153742, Note_off_c, 0, 71, 64
1, 153745, Note_on_c, 0, 72, 54
1, 153762, Control_c, 0, 64, 28
1, 153762, Control_c, 0, 67, 30
1, 153777, Control_c, 0, 64, 31
1, 153777, Control_c, 0, 67, 36
1, 153791, Control_c, 0, 64, 34
1, 153791, Control_c, 0, 67, 44
1, 153806, Control_c, 0, 64, 35
1, 153806, Control_c, 0, 67, 52
1, 153821, Control_c, 0, 67, 60
1, 153834, Note_off_c, 0, 72, 57
1, 153835, Control_c, 0, 67, 68
1, 153850, Control_c, 0, 67, 77
1, 153865, Control_c, 0, 64, 34
1, 153865, Control_c, 0, 67, 84
1, 153880, Control_c, 0, 64, 33
1, 153880, Control_c, 0, 67, 90
1, 153895, Control_c, 0, 64, 30
1, 153895, Control_c, 0, 67, 94
1, 153899, Note_on_c, 0, 74, 42
1, 153909, Control_c, 0, 64, 25
1, 153909, Control_c, 0, 67, 97
1, 153924, Note_off_c, 0, 74, 57
1, 153924, Control_c, 0, 64, 18
1, 153924, Control_c, 0, 67, 98
1, 153939, Control_c, 0, 64, 0
1, 153939, Control_c, 0, 67, 98
1, 153947, Note_on_c, 0, 72, 49
1, 153971, Note_on_c, 0, 71, 69
1, 153971, Note_off_c, 0, 72, 57
1, 154010, Note_off_c, 0, 71, 54
1, 154013, Control_c, 0, 67, 98
1, 154028, Control_c, 0, 67, 96
1, 154029, Note_on_c, 0, 72, 76
1, 154043, Control_c, 0, 67, 95
1, 154052, Note_on_c, 0, 74, 72
1, 154058, Control_c, 0, 67, 93
1, 154073, Control_c, 0, 67, 92
1, 154085, Note_off_c, 0, 72, 64
1, 154088, Control_c, 0, 67, 90
1, 154102, Control_c, 0, 67, 89
1, 154106, Note_off_c, 0, 44, 39
1, 154111, Note_off_c, 0, 51, 41
1, 154117, Control_c, 0, 67, 86
1, 154132, Control_c, 0, 67, 84
1, 154147, Control_c, 0, 67, 82
1, 154161, Control_c, 0, 67, 79
1, 154176, Control_c, 0, 67, 75
1, 154191, Control_c, 0, 67, 71
1, 154206, Control_c, 0, 67, 68
1, 154214, Note_off_c, 0, 74, 67
1, 154217, Note_on_c, 0, 75, 71
1, 154221, Control_c, 0, 67, 64
1, 154235, Control_c, 0, 67, 59
1, 154240, Note_off_c, 0, 75, 67
1, 154250, Control_c, 0, 67, 54
1, 154265, Control_c, 0, 67, 48
1, 154280, Control_c, 0, 67, 42
1, 154295, Control_c, 0, 67, 35
1, 154309, Control_c, 0, 67, 27
1, 154324, Control_c, 0, 67, 17
1, 154339, Control_c, 0, 67, 8
1, 154353, Control_c, 0, 67, 0
1, 154389, Note_on_c, 0, 75, 85
1, 154560, Note_off_c, 0, 75, 60
1, 154571, Note_on_c, 0, 65, 51
1, 154597, Note_off_c, 0, 65, 60
1, 154732, Note_on_c, 0, 72, 59
1, 154865, Note_off_c, 0, 72, 44
1, 154893, Note_on_c, 0, 60, 57
1, 154930, Note_off_c, 0, 60, 66
1, 155053, Note_on_c, 0, 53, 36
1, 155055, Note_on_c, 0, 68, 60
1, 155058, Note_on_c, 0, 46, 41
1, 155203, Note_off_c, 0, 68, 60
1, 155217, Note_on_c, 0, 62, 60
1, 155225, Note_off_c, 0, 53, 59
1, 155235, Note_off_c, 0, 46, 61
1, 155256, Note_off_c, 0, 62, 67
1, 155392, Note_on_c, 0, 63, 58
1, 155556, Note_on_c, 0, 51, 64
1, 155587, Note_off_c, 0, 51, 67
1, 155719, Note_on_c, 0, 46, 60
1, 155756, Note_off_c, 0, 46, 64
1, 155894, Note_on_c, 0, 43, 45
1, 155939, Control_c, 0, 67, 8
1, 155942, Note_off_c, 0, 43, 52
1, 155951, Note_off_c, 0, 63, 46
1, 155954, Control_c, 0, 67, 10
1, 155969, Control_c, 0, 67, 11
1, 155983, Control_c, 0, 67, 12
1, 156005, Control_c, 0, 67, 14
1, 156020, Control_c, 0, 67, 16
1, 156036, Control_c, 0, 67, 19
1, 156052, Control_c, 0, 67, 22
1, 156067, Control_c, 0, 67, 26
1, 156082, Control_c, 0, 67, 30
1, 156097, Control_c, 0, 67, 35
1, 156111, Control_c, 0, 67, 41
1, 156116, Note_on_c, 0, 39, 29
1, 156126, Control_c, 0, 67, 47
1, 156141, Control_c, 0, 67, 54
1, 156156, Control_c, 0, 67, 62
1, 156171, Control_c, 0, 67, 71
1, 156185, Control_c, 0, 67, 79
1, 156200, Control_c, 0, 67, 87
1, 156215, Control_c, 0, 67, 96
1, 156229, Control_c, 0, 67, 105
1, 156244, Control_c, 0, 67, 113
1, 156259, Control_c, 0, 67, 121
1, 156274, Control_c, 0, 67, 127
1, 156354, Note_off_c, 0, 39, 33
1, 156489, Note_on_c, 0, 58, 33
1, 156496, Control_c, 0, 64, 12
1, 156511, Control_c, 0, 64, 15
1, 156526, Control_c, 0, 64, 16
1, 156541, Control_c, 0, 64, 17
1, 156615, Control_c, 0, 64, 16
1, 156629, Control_c, 0, 64, 16
1, 156644, Control_c, 0, 64, 14
1, 156659, Control_c, 0, 64, 13
1, 156674, Control_c, 0, 64, 11
1, 156680, Note_off_c, 0, 58, 40
1, 156689, Control_c, 0, 64, 9
1, 156691, Note_on_c, 0, 63, 47
1, 156703, Control_c, 0, 64, 0
1, 156850, Note_on_c, 0, 51, 35
1, 156920, Control_c, 0, 67, 123
1, 156934, Control_c, 0, 67, 120
1, 156949, Control_c, 0, 67, 118
1, 156964, Control_c, 0, 67, 115
1, 156978, Control_c, 0, 67, 112
1, 156993, Control_c, 0, 67, 108
1, 156997, Note_off_c, 0, 51, 45
1, 157008, Control_c, 0, 67, 103
1, 157023, Control_c, 0, 67, 97
1, 157038, Control_c, 0, 67, 89
1, 157039, Note_on_c, 0, 55, 26
1, 157052, Control_c, 0, 67, 81
1, 157067, Control_c, 0, 67, 72
1, 157082, Control_c, 0, 67, 65
1, 157097, Control_c, 0, 67, 58
1, 157112, Control_c, 0, 67, 54
1, 157126, Control_c, 0, 67, 50
1, 157141, Control_c, 0, 67, 48
1, 157146, Note_off_c, 0, 55, 56
1, 157156, Control_c, 0, 67, 46
1, 157170, Control_c, 0, 67, 45
1, 157185, Control_c, 0, 67, 43
1, 157194, Note_on_c, 0, 51, 42
1, 157200, Control_c, 0, 67, 40
1, 157215, Control_c, 0, 67, 36
1, 157230, Control_c, 0, 67, 32
1, 157245, Control_c, 0, 67, 29
1, 157259, Control_c, 0, 67, 26
1, 157274, Control_c, 0, 67, 24
1, 157289, Control_c, 0, 67, 22
1, 157304, Control_c, 0, 67, 21
1, 157319, Control_c, 0, 67, 20
1, 157334, Control_c, 0, 67, 19
1, 157349, Control_c, 0, 67, 18
1, 157362, Note_on_c, 0, 56, 39
1, 157364, Control_c, 0, 67, 17
1, 157364, Note_off_c, 0, 51, 37
1, 157378, Control_c, 0, 67, 15
1, 157393, Control_c, 0, 67, 14
1, 157408, Control_c, 0, 67, 12
1, 157423, Control_c, 0, 67, 10
1, 157438, Control_c, 0, 67, 8
1, 157452, Control_c, 0, 67, 0
1, 157528, Note_off_c, 0, 63, 45
1, 157534, Control_c, 0, 64, 12
1, 157548, Control_c, 0, 64, 19
1, 157550, Note_on_c, 0, 62, 45
1, 157563, Control_c, 0, 64, 23
1, 157571, Note_on_c, 0, 46, 27
1, 157578, Control_c, 0, 64, 25
1, 157593, Control_c, 0, 64, 26
1, 157608, Control_c, 0, 64, 26
1, 157608, Note_off_c, 0, 56, 33
1, 157614, Note_off_c, 0, 46, 50
1, 157668, Control_c, 0, 64, 26
1, 157683, Control_c, 0, 64, 25
1, 157698, Control_c, 0, 64, 23
1, 157712, Control_c, 0, 64, 20
1, 157727, Control_c, 0, 64, 18
1, 157742, Note_on_c, 0, 68, 56
1, 157742, Control_c, 0, 64, 16
1, 157757, Control_c, 0, 64, 13
1, 157763, Note_off_c, 0, 62, 44
1, 157772, Control_c, 0, 64, 9
1, 157787, Control_c, 0, 64, 0
1, 157906, Note_on_c, 0, 46, 48
1, 158012, Note_off_c, 0, 46, 52
1, 158073, Note_on_c, 0, 50, 41
1, 158213, Note_off_c, 0, 50, 60
1, 158229, Note_on_c, 0, 46, 53
1, 158369, Note_off_c, 0, 46, 62
1, 158403, Note_on_c, 0, 51, 53
1, 158446, Control_c, 0, 64, 11
1, 158461, Control_c, 0, 64, 16
1, 158476, Control_c, 0, 64, 19
1, 158491, Control_c, 0, 64, 21
1, 158505, Control_c, 0, 64, 22
1, 158520, Control_c, 0, 64, 22
1, 158535, Control_c, 0, 64, 23
1, 158546, Note_off_c, 0, 68, 38
1, 158550, Control_c, 0, 64, 24
1, 158565, Control_c, 0, 64, 25
1, 158572, Note_on_c, 0, 39, 43
1, 158576, Note_off_c, 0, 51, 44
1, 158577, Note_on_c, 0, 67, 62
1, 158580, Control_c, 0, 64, 27
1, 158595, Control_c, 0, 64, 28
1, 158624, Control_c, 0, 64, 28
1, 158637, Note_off_c, 0, 39, 58
1, 158653, Note_off_c, 0, 67, 59
1, 158684, Control_c, 0, 64, 28
1, 158698, Control_c, 0, 64, 27
1, 158713, Control_c, 0, 64, 25
1, 158728, Control_c, 0, 64, 23
1, 158742, Control_c, 0, 64, 22
1, 158757, Control_c, 0, 64, 20
1, 158765, Note_on_c, 0, 75, 82
1, 158772, Control_c, 0, 64, 20
1, 158787, Control_c, 0, 64, 19
1, 158790, Note_on_c, 0, 67, 38
1, 158802, Control_c, 0, 64, 18
1, 158816, Control_c, 0, 64, 17
1, 158831, Control_c, 0, 64, 16
1, 158890, Control_c, 0, 64, 18
1, 158905, Control_c, 0, 64, 20
1, 158920, Control_c, 0, 64, 22
1, 158925, Note_on_c, 0, 51, 43
1, 158935, Control_c, 0, 64, 24
1, 158949, Control_c, 0, 64, 26
1, 158964, Control_c, 0, 64, 27
1, 158979, Control_c, 0, 64, 29
1, 159002, Control_c, 0, 64, 30
1, 159017, Control_c, 0, 64, 31
1, 159031, Control_c, 0, 64, 32
1, 159061, Control_c, 0, 64, 32
1, 159083, Note_off_c, 0, 51, 53
1, 159091, Note_on_c, 0, 55, 54
1, 159109, Note_off_c, 0, 67, 34
1, 159164, Control_c, 0, 64, 32
1, 159194, Control_c, 0, 64, 31
1, 159225, Control_c, 0, 64, 31
1, 159240, Control_c, 0, 64, 30
1, 159254, Control_c, 0, 64, 30
1, 159257, Note_on_c, 0, 51, 65
1, 159275, Note_off_c, 0, 55, 61
1, 159284, Control_c, 0, 64, 29
1, 159299, Control_c, 0, 64, 28
1, 159314, Control_c, 0, 64, 25
1, 159328, Control_c, 0, 64, 18
1, 159343, Control_c, 0, 64, 0
1, 159413, Note_off_c, 0, 51, 62
1, 159420, Note_on_c, 0, 65, 66
1, 159434, Note_on_c, 0, 58, 56
1, 159457, Note_off_c, 0, 75, 31
1, 159536, Control_c, 0, 64, 11
1, 159551, Control_c, 0, 64, 20
1, 159556, Note_off_c, 0, 65, 56
1, 159565, Control_c, 0, 64, 27
1, 159580, Control_c, 0, 64, 32
1, 159587, Note_on_c, 0, 74, 79
1, 159595, Control_c, 0, 64, 37
1, 159596, Note_on_c, 0, 46, 51
1, 159610, Control_c, 0, 64, 41
1, 159625, Control_c, 0, 64, 45
1, 159635, Note_off_c, 0, 74, 64
1, 159639, Note_off_c, 0, 46, 63
1, 159639, Control_c, 0, 64, 49
1, 159654, Control_c, 0, 64, 51
1, 159669, Control_c, 0, 64, 52
1, 159699, Control_c, 0, 64, 51
1, 159700, Note_off_c, 0, 58, 41
1, 159714, Control_c, 0, 64, 50
1, 159728, Control_c, 0, 64, 50
1, 159766, Control_c, 0, 64, 48
1, 159777, Note_on_c, 0, 80, 89
1, 159780, Control_c, 0, 64, 47
1, 159786, Note_on_c, 0, 77, 74
1, 159795, Control_c, 0, 64, 45
1, 159810, Control_c, 0, 64, 43
1, 159825, Control_c, 0, 64, 42
1, 159840, Control_c, 0, 64, 41
1, 159854, Control_c, 0, 64, 39
1, 159869, Control_c, 0, 64, 38
1, 159884, Control_c, 0, 64, 34
1, 159899, Control_c, 0, 64, 30
1, 159914, Control_c, 0, 64, 25
1, 159928, Control_c, 0, 64, 20
1, 159930, Note_on_c, 0, 58, 65
1, 159943, Control_c, 0, 64, 18
1, 159958, Control_c, 0, 64, 15
1, 159972, Control_c, 0, 64, 12
1, 159987, Control_c, 0, 64, 0
1, 160097, Note_on_c, 0, 62, 76
1, 160159, Note_off_c, 0, 58, 50
1, 160261, Note_on_c, 0, 58, 79
1, 160272, Note_off_c, 0, 77, 55
1, 160314, Note_off_c, 0, 62, 61
1, 160425, Note_on_c, 0, 63, 85
1, 160434, Note_off_c, 0, 58, 61
1, 160570, Note_off_c, 0, 80, 63
1, 160589, Control_c, 0, 64, 15
1, 160595, Note_on_c, 0, 79, 89
1, 160601, Note_on_c, 0, 51, 67
1, 160603, Control_c, 0, 64, 24
1, 160618, Control_c, 0, 64, 28
1, 160633, Control_c, 0, 64, 32
1, 160648, Control_c, 0, 64, 35
1, 160663, Control_c, 0, 64, 38
1, 160671, Note_off_c, 0, 79, 64
1, 160677, Control_c, 0, 64, 40
1, 160680, Note_off_c, 0, 51, 64
1, 160691, Note_off_c, 0, 63, 63
1, 160692, Control_c, 0, 64, 41
1, 160721, Control_c, 0, 64, 41
1, 160736, Control_c, 0, 64, 40
1, 160751, Control_c, 0, 64, 40
1, 160766, Control_c, 0, 64, 39
1, 160769, Note_on_c, 0, 84, 99
1, 160781, Control_c, 0, 64, 39
1, 160795, Control_c, 0, 64, 38
1, 160810, Control_c, 0, 64, 37
1, 160826, Control_c, 0, 64, 36
1, 160841, Control_c, 0, 64, 35
1, 160856, Control_c, 0, 64, 33
1, 160871, Control_c, 0, 64, 32
1, 160886, Control_c, 0, 64, 31
1, 160900, Control_c, 0, 64, 30
1, 160915, Control_c, 0, 64, 28
1, 160920, Note_on_c, 0, 63, 81
1, 160930, Control_c, 0, 64, 27
1, 160945, Control_c, 0, 64, 25
1, 160960, Control_c, 0, 64, 24
1, 160974, Control_c, 0, 64, 21
1, 160989, Control_c, 0, 64, 19
1, 161004, Control_c, 0, 64, 18
1, 161018, Control_c, 0, 64, 16
1, 161033, Control_c, 0, 64, 15
1, 161048, Control_c, 0, 64, 12
1, 161063, Control_c, 0, 64, 8
1, 161078, Control_c, 0, 64, 0
1, 161086, Note_on_c, 0, 67, 80
1, 161143, Note_off_c, 0, 63, 62
1, 161256, Note_on_c, 0, 63, 85
1, 161304, Note_off_c, 0, 67, 58
1, 161412, Note_on_c, 0, 62, 82
1, 161450, Note_off_c, 0, 63, 65
1, 161559, Control_c, 0, 64, 12
1, 161565, Note_on_c, 0, 83, 90
1, 161574, Control_c, 0, 64, 22
1, 161578, Note_on_c, 0, 65, 76
1, 161589, Control_c, 0, 64, 28
1, 161592, Note_off_c, 0, 84, 61
1, 161600, Note_off_c, 0, 62, 63
1, 161604, Control_c, 0, 64, 32
1, 161620, Control_c, 0, 64, 35
1, 161635, Control_c, 0, 64, 38
1, 161640, Note_off_c, 0, 65, 65
1, 161649, Control_c, 0, 64, 40
1, 161650, Note_off_c, 0, 83, 64
1, 161664, Control_c, 0, 64, 41
1, 161709, Control_c, 0, 64, 41
1, 161723, Control_c, 0, 64, 40
1, 161738, Control_c, 0, 64, 39
1, 161748, Note_on_c, 0, 86, 96
1, 161753, Control_c, 0, 64, 38
1, 161754, Note_on_c, 0, 77, 88
1, 161767, Control_c, 0, 64, 37
1, 161782, Control_c, 0, 64, 35
1, 161797, Control_c, 0, 64, 34
1, 161812, Control_c, 0, 64, 33
1, 161827, Control_c, 0, 64, 32
1, 161856, Control_c, 0, 64, 32
1, 161871, Control_c, 0, 64, 31
1, 161886, Control_c, 0, 64, 31
1, 161888, Note_on_c, 0, 55, 81
1, 161901, Control_c, 0, 64, 29
1, 161915, Control_c, 0, 64, 28
1, 161930, Control_c, 0, 64, 25
1, 161945, Control_c, 0, 64, 24
1, 161960, Control_c, 0, 64, 23
1, 161975, Control_c, 0, 64, 21
1, 161997, Control_c, 0, 64, 18
1, 162012, Control_c, 0, 64, 14
1, 162027, Control_c, 0, 64, 0
1, 162060, Note_on_c, 0, 59, 77
1, 162125, Note_off_c, 0, 55, 57
1, 162200, Note_off_c, 0, 77, 56
1, 162224, Note_on_c, 0, 55, 88
1, 162267, Note_off_c, 0, 59, 61
1, 162384, Note_off_c, 0, 55, 65
1, 162389, Note_on_c, 0, 60, 77
1, 162413, Control_c, 0, 64, 12
1, 162428, Control_c, 0, 64, 18
1, 162443, Control_c, 0, 64, 22
1, 162458, Control_c, 0, 64, 25
1, 162472, Control_c, 0, 64, 28
1, 162487, Control_c, 0, 64, 30
1, 162502, Control_c, 0, 64, 32
1, 162517, Control_c, 0, 64, 33
1, 162532, Control_c, 0, 64, 34
1, 162543, Note_on_c, 0, 84, 75
1, 162546, Control_c, 0, 64, 35
1, 162552, Note_on_c, 0, 48, 56
1, 162559, Note_on_c, 0, 75, 62
1, 162566, Note_off_c, 0, 86, 60
1, 162590, Control_c, 0, 64, 35
1, 162605, Control_c, 0, 64, 34
1, 162620, Control_c, 0, 64, 34
1, 162621, Note_off_c, 0, 48, 64
1, 162622, Note_off_c, 0, 75, 60
1, 162635, Control_c, 0, 64, 33
1, 162638, Note_off_c, 0, 84, 59
1, 162648, Note_off_c, 0, 60, 63
1, 162650, Control_c, 0, 64, 32
1, 162664, Control_c, 0, 64, 31
1, 162679, Control_c, 0, 64, 30
1, 162694, Control_c, 0, 64, 29
1, 162709, Control_c, 0, 64, 28
1, 162723, Control_c, 0, 64, 26
1, 162746, Control_c, 0, 64, 23
1, 162755, Note_on_c, 0, 82, 62
1, 162761, Control_c, 0, 64, 20
1, 162776, Control_c, 0, 64, 14
1, 162777, Note_on_c, 0, 73, 49
1, 162792, Control_c, 0, 64, 0
1, 162932, Note_on_c, 0, 63, 41
1, 162939, Control_c, 0, 67, 8
1, 162954, Control_c, 0, 67, 9
1, 162969, Control_c, 0, 67, 10
1, 162984, Control_c, 0, 67, 10
1, 162998, Control_c, 0, 67, 11
1, 163013, Control_c, 0, 67, 12
1, 163028, Control_c, 0, 67, 14
1, 163043, Control_c, 0, 67, 15
1, 163058, Control_c, 0, 67, 17
1, 163072, Control_c, 0, 67, 20
1, 163087, Control_c, 0, 67, 21
1, 163093, Note_on_c, 0, 67, 48
1, 163102, Control_c, 0, 67, 23
1, 163112, Note_off_c, 0, 63, 44
1, 163117, Control_c, 0, 67, 26
1, 163132, Control_c, 0, 67, 28
1, 163147, Control_c, 0, 67, 31
1, 163162, Control_c, 0, 67, 35
1, 163176, Control_c, 0, 67, 39
1, 163191, Control_c, 0, 67, 43
1, 163197, Note_off_c, 0, 67, 59
1, 163206, Control_c, 0, 67, 47
1, 163221, Control_c, 0, 67, 53
1, 163236, Control_c, 0, 67, 57
1, 163242, Note_on_c, 0, 63, 50
1, 163251, Control_c, 0, 67, 61
1, 163266, Control_c, 0, 67, 65
1, 163281, Control_c, 0, 67, 69
1, 163296, Control_c, 0, 67, 74
1, 163311, Control_c, 0, 67, 79
1, 163325, Control_c, 0, 67, 85
1, 163340, Control_c, 0, 67, 91
1, 163355, Control_c, 0, 67, 96
1, 163370, Control_c, 0, 67, 101
1, 163385, Control_c, 0, 67, 106
1, 163397, Note_off_c, 0, 63, 55
1, 163400, Control_c, 0, 67, 110
1, 163408, Note_on_c, 0, 68, 50
1, 163414, Control_c, 0, 67, 117
1, 163429, Control_c, 0, 67, 123
1, 163436, Note_off_c, 0, 73, 46
1, 163444, Control_c, 0, 67, 127
1, 163561, Note_off_c, 0, 82, 44
1, 163573, Note_on_c, 0, 80, 62
1, 163585, Note_off_c, 0, 68, 47
1, 163591, Note_on_c, 0, 72, 41
1, 163596, Note_on_c, 0, 56, 36
1, 163617, Note_off_c, 0, 72, 57
1, 163629, Note_off_c, 0, 56, 57
1, 163709, Note_off_c, 0, 80, 0
1, 163750, Note_on_c, 0, 79, 69
1, 163751, Poly_aftertouch_c, 0, 80, 0
1, 163766, Note_on_c, 0, 70, 49
1, 163920, Note_on_c, 0, 48, 32
1, 164014, Control_c, 0, 67, 127
1, 164029, Control_c, 0, 67, 124
1, 164044, Control_c, 0, 67, 122
1, 164059, Control_c, 0, 67, 118
1, 164074, Control_c, 0, 67, 111
1, 164074, Note_off_c, 0, 48, 44
1, 164075, Note_on_c, 0, 52, 57
1, 164089, Control_c, 0, 67, 106
1, 164103, Control_c, 0, 67, 102
1, 164118, Control_c, 0, 67, 98
1, 164133, Control_c, 0, 67, 94
1, 164148, Control_c, 0, 67, 91
1, 164162, Control_c, 0, 67, 88
1, 164177, Control_c, 0, 67, 84
1, 164185, Note_off_c, 0, 70, 26
1, 164192, Control_c, 0, 67, 82
1, 164207, Control_c, 0, 67, 80
1, 164222, Control_c, 0, 67, 78
1, 164227, Note_off_c, 0, 52, 54
1, 164244, Control_c, 0, 67, 76
1, 164245, Note_on_c, 0, 48, 52
1, 164258, Control_c, 0, 67, 74
1, 164273, Control_c, 0, 67, 72
1, 164288, Control_c, 0, 67, 68
1, 164303, Control_c, 0, 67, 64
1, 164318, Control_c, 0, 67, 57
1, 164333, Control_c, 0, 67, 49
1, 164348, Control_c, 0, 67, 43
1, 164362, Control_c, 0, 67, 36
1, 164367, Note_off_c, 0, 48, 63
1, 164377, Control_c, 0, 67, 30
1, 164392, Control_c, 0, 67, 24
1, 164403, Note_on_c, 0, 53, 58
1, 164407, Control_c, 0, 67, 18
1, 164422, Control_c, 0, 67, 12
1, 164436, Control_c, 0, 67, 0
1, 164479, Note_off_c, 0, 79, 35
1, 164562, Note_on_c, 0, 77, 63
1, 164573, Note_on_c, 0, 68, 50
1, 164577, Note_on_c, 0, 41, 39
1, 164610, Note_off_c, 0, 41, 58
1, 164614, Note_off_c, 0, 53, 24
1, 164614, Control_c, 0, 64, 9
1, 164628, Note_off_c, 0, 68, 56
1, 164629, Control_c, 0, 64, 17
1, 164643, Control_c, 0, 64, 21
1, 164658, Control_c, 0, 64, 24
1, 164673, Control_c, 0, 64, 26
1, 164688, Control_c, 0, 64, 27
1, 164703, Control_c, 0, 64, 27
1, 164732, Control_c, 0, 64, 27
1, 164746, Note_on_c, 0, 80, 75
1, 164747, Control_c, 0, 64, 26
1, 164762, Control_c, 0, 64, 25
1, 164777, Control_c, 0, 64, 23
1, 164777, Note_on_c, 0, 71, 43
1, 164792, Control_c, 0, 64, 21
1, 164795, Note_off_c, 0, 77, 53
1, 164807, Control_c, 0, 64, 19
1, 164822, Control_c, 0, 64, 18
1, 164837, Control_c, 0, 64, 17
1, 164852, Control_c, 0, 64, 15
1, 164867, Control_c, 0, 64, 12
1, 164881, Control_c, 0, 64, 0
1, 164915, Note_on_c, 0, 62, 47
1, 165078, Note_on_c, 0, 65, 51
1, 165080, Note_off_c, 0, 62, 54
1, 165123, Note_off_c, 0, 71, 38
1, 165230, Note_on_c, 0, 62, 58
1, 165314, Note_off_c, 0, 65, 38
1, 165407, Note_on_c, 0, 63, 53
1, 165459, Note_off_c, 0, 62, 37
1, 165570, Note_on_c, 0, 79, 59
1, 165581, Note_off_c, 0, 80, 58
1, 165584, Note_on_c, 0, 67, 43
1, 165604, Note_off_c, 0, 63, 58
1, 165645, Control_c, 0, 64, 12
1, 165660, Note_off_c, 0, 67, 42
1, 165660, Control_c, 0, 64, 17
1, 165675, Control_c, 0, 64, 20
1, 165689, Control_c, 0, 64, 22
1, 165746, Note_on_c, 0, 77, 61
1, 165779, Note_on_c, 0, 68, 36
1, 165786, Control_c, 0, 64, 22
1, 165801, Control_c, 0, 64, 21
1, 165812, Note_off_c, 0, 79, 37
1, 165815, Control_c, 0, 64, 20
1, 165830, Control_c, 0, 64, 18
1, 165845, Control_c, 0, 64, 17
1, 165860, Control_c, 0, 64, 16
1, 165875, Control_c, 0, 64, 15
1, 165889, Control_c, 0, 64, 14
1, 165904, Control_c, 0, 64, 14
1, 165913, Note_on_c, 0, 59, 45
1, 166023, Control_c, 0, 64, 14
1, 166038, Control_c, 0, 64, 15
1, 166053, Control_c, 0, 64, 16
1, 166065, Note_off_c, 0, 59, 55
1, 166068, Control_c, 0, 64, 18
1, 166081, Note_on_c, 0, 62, 53
1, 166082, Control_c, 0, 64, 19
1, 166097, Control_c, 0, 64, 19
1, 166215, Control_c, 0, 64, 19
1, 166230, Control_c, 0, 64, 18
1, 166245, Control_c, 0, 64, 18
1, 166246, Note_on_c, 0, 59, 51
1, 166259, Control_c, 0, 64, 17
1, 166262, Note_off_c, 0, 68, 41
1, 166264, Note_off_c, 0, 62, 53
1, 166274, Control_c, 0, 64, 16
1, 166304, Control_c, 0, 64, 15
1, 166319, Control_c, 0, 64, 13
1, 166333, Control_c, 0, 64, 8
1, 166348, Control_c, 0, 64, 0
1, 166408, Note_off_c, 0, 59, 55
1, 166414, Note_on_c, 0, 58, 53
1, 166551, Control_c, 0, 64, 18
1, 166559, Note_off_c, 0, 58, 59
1, 166565, Control_c, 0, 64, 26
1, 166580, Control_c, 0, 64, 32
1, 166587, Note_on_c, 0, 75, 58
1, 166595, Control_c, 0, 64, 36
1, 166597, Note_on_c, 0, 63, 32
1, 166609, Note_on_c, 0, 67, 39
1, 166610, Control_c, 0, 64, 40
1, 166625, Control_c, 0, 64, 44
1, 166635, Note_off_c, 0, 63, 52
1, 166639, Control_c, 0, 64, 47
1, 166646, Note_off_c, 0, 67, 51
1, 166654, Control_c, 0, 64, 48
1, 166659, Note_off_c, 0, 77, 34
1, 166669, Control_c, 0, 64, 49
1, 166698, Control_c, 0, 64, 48
1, 166713, Control_c, 0, 64, 47
1, 166728, Control_c, 0, 64, 47
1, 166743, Control_c, 0, 64, 45
1, 166747, Note_on_c, 0, 65, 58
1, 166758, Control_c, 0, 64, 43
1, 166759, Note_on_c, 0, 60, 44
1, 166765, Note_on_c, 0, 56, 48
1, 166772, Control_c, 0, 64, 41
1, 166787, Control_c, 0, 64, 39
1, 166802, Control_c, 0, 64, 34
1, 166817, Control_c, 0, 64, 28
1, 166831, Control_c, 0, 64, 14
1, 166846, Control_c, 0, 64, 0
1, 166897, Note_off_c, 0, 75, 60
1, 166909, Note_on_c, 0, 72, 59
1, 167086, Note_on_c, 0, 79, 73
1, 167095, Note_off_c, 0, 72, 57
1, 167143, Control_c, 0, 64, 11
1, 167157, Control_c, 0, 64, 17
1, 167172, Control_c, 0, 64, 22
1, 167187, Control_c, 0, 64, 26
1, 167203, Control_c, 0, 64, 30
1, 167218, Control_c, 0, 64, 32
1, 167240, Control_c, 0, 64, 34
1, 167254, Control_c, 0, 64, 35
1, 167255, Note_on_c, 0, 76, 80
1, 167255, Note_off_c, 0, 79, 62
1, 167314, Control_c, 0, 64, 35
1, 167329, Control_c, 0, 64, 34
1, 167344, Control_c, 0, 64, 33
1, 167359, Control_c, 0, 64, 32
1, 167374, Control_c, 0, 64, 31
1, 167388, Control_c, 0, 64, 30
1, 167403, Control_c, 0, 64, 29
1, 167410, Note_on_c, 0, 80, 87
1, 167418, Control_c, 0, 64, 28
1, 167433, Control_c, 0, 64, 27
1, 167445, Note_off_c, 0, 76, 58
1, 167570, Note_on_c, 0, 77, 80
1, 167625, Note_off_c, 0, 80, 59
1, 167625, Control_c, 0, 64, 27
1, 167655, Control_c, 0, 64, 26
1, 167684, Control_c, 0, 64, 25
1, 167699, Control_c, 0, 64, 24
1, 167713, Control_c, 0, 64, 21
1, 167721, Note_on_c, 0, 83, 75
1, 167728, Control_c, 0, 64, 15
1, 167743, Control_c, 0, 64, 0
1, 167841, Note_off_c, 0, 77, 52
1, 167889, Note_on_c, 0, 86, 78
1, 167946, Note_off_c, 0, 83, 65
1, 168056, Note_on_c, 0, 84, 75
1, 168116, Note_off_c, 0, 86, 61
1, 168165, Control_c, 0, 64, 10
1, 168180, Control_c, 0, 64, 17
1, 168195, Control_c, 0, 64, 22
1, 168202, Note_on_c, 0, 79, 79
1, 168209, Note_off_c, 0, 84, 63
1, 168209, Control_c, 0, 64, 26
1, 168224, Control_c, 0, 64, 29
1, 168239, Control_c, 0, 64, 33
1, 168254, Control_c, 0, 64, 36
1, 168269, Control_c, 0, 64, 38
1, 168283, Control_c, 0, 64, 41
1, 168298, Control_c, 0, 64, 44
1, 168313, Control_c, 0, 64, 47
1, 168317, Note_off_c, 0, 56, 41
1, 168323, Note_off_c, 0, 65, 58
1, 168327, Control_c, 0, 64, 49
1, 168342, Control_c, 0, 64, 51
1, 168348, Note_off_c, 0, 79, 52
1, 168357, Control_c, 0, 64, 52
1, 168360, Note_off_c, 0, 60, 63
1, 168372, Note_on_c, 0, 80, 73
1, 168404, Note_on_c, 0, 81, 64
1, 168410, Note_off_c, 0, 80, 0
1, 168410, Note_on_c, 0, 80, 37
1, 168432, Control_c, 0, 64, 51
1, 168447, Control_c, 0, 64, 51
1, 168462, Control_c, 0, 64, 50
1, 168476, Control_c, 0, 64, 50
1, 168506, Control_c, 0, 64, 49
1, 168521, Control_c, 0, 64, 49
1, 168524, Note_on_c, 0, 77, 70
1, 168535, Control_c, 0, 64, 48
1, 168550, Control_c, 0, 64, 48
1, 168565, Control_c, 0, 64, 47
1, 168572, Note_off_c, 0, 81, 25
1, 168580, Control_c, 0, 64, 46
1, 168587, Note_off_c, 0, 80, 44
1, 168595, Control_c, 0, 64, 45
1, 168609, Control_c, 0, 64, 43
1, 168624, Control_c, 0, 64, 39
1, 168639, Control_c, 0, 64, 34
1, 168653, Control_c, 0, 64, 26
1, 168668, Control_c, 0, 64, 16
1, 168683, Note_on_c, 0, 68, 61
1, 168683, Control_c, 0, 64, 0
1, 168687, Note_on_c, 0, 75, 71
1, 168694, Note_on_c, 0, 65, 57
1, 168701, Note_on_c, 0, 58, 53
1, 168791, Note_off_c, 0, 77, 56
1, 168859, Note_on_c, 0, 74, 72
1, 168876, Note_off_c, 0, 75, 59
1, 169017, Note_on_c, 0, 80, 75
1, 169025, Note_off_c, 0, 74, 61
1, 169106, Control_c, 0, 64, 12
1, 169121, Control_c, 0, 64, 19
1, 169136, Control_c, 0, 64, 23
1, 169150, Control_c, 0, 64, 28
1, 169163, Note_on_c, 0, 77, 73
1, 169165, Control_c, 0, 64, 31
1, 169180, Control_c, 0, 64, 34
1, 169195, Control_c, 0, 64, 37
1, 169210, Control_c, 0, 64, 37
1, 169217, Note_off_c, 0, 80, 61
1, 169284, Control_c, 0, 64, 37
1, 169299, Control_c, 0, 64, 36
1, 169314, Control_c, 0, 64, 35
1, 169329, Control_c, 0, 64, 34
1, 169340, Note_on_c, 0, 74, 62
1, 169344, Control_c, 0, 64, 33
1, 169358, Control_c, 0, 64, 32
1, 169373, Control_c, 0, 64, 31
1, 169388, Control_c, 0, 64, 30
1, 169403, Control_c, 0, 64, 29
1, 169418, Control_c, 0, 64, 29
1, 169432, Control_c, 0, 64, 28
1, 169436, Note_off_c, 0, 77, 57
1, 169447, Control_c, 0, 64, 26
1, 169462, Control_c, 0, 64, 25
1, 169484, Control_c, 0, 64, 24
1, 169485, Note_off_c, 0, 74, 65
1, 169487, Note_on_c, 0, 71, 60
1, 169499, Control_c, 0, 64, 23
1, 169514, Control_c, 0, 64, 23
1, 169529, Control_c, 0, 64, 22
1, 169538, Note_off_c, 0, 68, 36
1, 169544, Control_c, 0, 64, 21
1, 169559, Control_c, 0, 64, 20
1, 169573, Control_c, 0, 64, 18
1, 169588, Control_c, 0, 64, 16
1, 169604, Control_c, 0, 64, 15
1, 169619, Control_c, 0, 64, 13
1, 169634, Control_c, 0, 64, 10
1, 169649, Control_c, 0, 64, 0
1, 169662, Note_on_c, 0, 70, 69
1, 169693, Note_off_c, 0, 71, 65
1, 169767, Note_off_c, 0, 65, 52
1, 169821, Note_on_c, 0, 69, 61
1, 169830, Note_off_c, 0, 70, 59
1, 169986, Note_on_c, 0, 77, 58
1, 169995, Note_off_c, 0, 69, 58
1, 170092, Note_off_c, 0, 58, 34
1, 170093, Control_c, 0, 67, 8
1, 170107, Control_c, 0, 67, 10
1, 170122, Control_c, 0, 67, 11
1, 170137, Control_c, 0, 67, 13
1, 170148, Note_on_c, 0, 69, 55
1, 170152, Control_c, 0, 67, 15
1, 170167, Control_c, 0, 67, 16
1, 170173, Note_off_c, 0, 77, 36
1, 170182, Control_c, 0, 67, 18
1, 170196, Control_c, 0, 67, 20
1, 170211, Control_c, 0, 67, 22
1, 170234, Control_c, 0, 67, 26
1, 170249, Control_c, 0, 67, 30
1, 170263, Control_c, 0, 67, 36
1, 170277, Control_c, 0, 67, 44
1, 170292, Control_c, 0, 67, 51
1, 170307, Control_c, 0, 67, 59
1, 170321, Note_on_c, 0, 77, 49
1, 170322, Control_c, 0, 67, 67
1, 170337, Control_c, 0, 67, 74
1, 170351, Control_c, 0, 67, 81
1, 170366, Control_c, 0, 67, 88
1, 170381, Control_c, 0, 67, 96
1, 170387, Note_off_c, 0, 69, 39
1, 170396, Control_c, 0, 67, 104
1, 170411, Control_c, 0, 67, 111
1, 170426, Control_c, 0, 67, 118
1, 170438, Note_off_c, 0, 77, 42
1, 170441, Control_c, 0, 67, 124
1, 170456, Control_c, 0, 67, 127
1, 170497, Note_on_c, 0, 68, 37
1, 170651, Note_off_c, 0, 68, 56
1, 170652, Note_on_c, 0, 51, 39
1, 170664, Note_on_c, 0, 67, 51
1, 170685, Note_off_c, 0, 51, 58
1, 170690, Note_off_c, 0, 67, 61
1, 170738, Note_on_c, 0, 58, 35
1, 170775, Note_off_c, 0, 58, 53
1, 170813, Note_on_c, 0, 55, 44
1, 170855, Note_off_c, 0, 55, 65
1, 170876, Note_on_c, 0, 58, 52
1, 170915, Control_c, 0, 67, 125
1, 170920, Note_off_c, 0, 58, 62
1, 170930, Control_c, 0, 67, 122
1, 170945, Control_c, 0, 67, 118
1, 170954, Note_on_c, 0, 63, 54
1, 170960, Control_c, 0, 67, 114
1, 170964, Note_on_c, 0, 51, 38
1, 170982, Control_c, 0, 67, 108
1, 170997, Control_c, 0, 67, 101
1, 170998, Note_off_c, 0, 51, 53
1, 171004, Note_off_c, 0, 63, 64
1, 171011, Control_c, 0, 67, 94
1, 171026, Control_c, 0, 67, 84
1, 171038, Note_on_c, 0, 58, 50
1, 171041, Control_c, 0, 67, 76
1, 171043, Note_on_c, 0, 65, 62
1, 171055, Control_c, 0, 67, 69
1, 171070, Control_c, 0, 67, 64
1, 171071, Note_off_c, 0, 58, 61
1, 171084, Note_off_c, 0, 65, 60
1, 171085, Control_c, 0, 67, 60
1, 171100, Control_c, 0, 67, 57
1, 171112, Note_on_c, 0, 67, 63
1, 171115, Control_c, 0, 67, 53
1, 171118, Note_on_c, 0, 55, 35
1, 171129, Control_c, 0, 67, 47
1, 171144, Control_c, 0, 67, 40
1, 171151, Note_off_c, 0, 55, 59
1, 171159, Control_c, 0, 67, 33
1, 171168, Note_on_c, 0, 58, 56
1, 171173, Note_off_c, 0, 67, 63
1, 171174, Control_c, 0, 67, 26
1, 171181, Note_on_c, 0, 68, 63
1, 171189, Control_c, 0, 67, 19
1, 171205, Control_c, 0, 67, 15
1, 171212, Note_off_c, 0, 58, 63
1, 171220, Control_c, 0, 67, 10
1, 171234, Control_c, 0, 67, 0
1, 171243, Note_on_c, 0, 51, 46
1, 171256, Note_on_c, 0, 70, 63
1, 171265, Note_off_c, 0, 68, 60
1, 171284, Note_off_c, 0, 51, 63
1, 171284, Note_off_c, 0, 70, 67
1, 171329, Note_on_c, 0, 58, 41
1, 171330, Note_on_c, 0, 72, 64
1, 171360, Note_off_c, 0, 58, 58
1, 171369, Note_off_c, 0, 72, 56
1, 171398, Note_on_c, 0, 74, 65
1, 171401, Note_on_c, 0, 55, 42
1, 171443, Note_off_c, 0, 55, 52
1, 171446, Note_off_c, 0, 74, 64
1, 171458, Note_on_c, 0, 75, 78
1, 171465, Note_on_c, 0, 58, 49
1, 171481, Note_off_c, 0, 75, 65
1, 171536, Note_off_c, 0, 58, 60
1, 171553, Note_on_c, 0, 75, 83
1, 171574, Note_on_c, 0, 53, 42
1, 171603, Note_off_c, 0, 53, 58
1, 171634, Note_on_c, 0, 58, 51
1, 171634, Control_c, 0, 64, 15
1, 171649, Control_c, 0, 64, 23
1, 171664, Control_c, 0, 64, 29
1, 171678, Control_c, 0, 64, 32
1, 171686, Note_off_c, 0, 58, 59
1, 171693, Control_c, 0, 64, 34
1, 171708, Control_c, 0, 64, 34
1, 171735, Note_on_c, 0, 56, 53
1, 171746, Control_c, 0, 64, 33
1, 171760, Control_c, 0, 64, 33
1, 171775, Control_c, 0, 64, 32
1, 171787, Note_off_c, 0, 56, 60
1, 171790, Control_c, 0, 64, 30
1, 171805, Control_c, 0, 64, 28
1, 171815, Note_on_c, 0, 58, 44
1, 171820, Control_c, 0, 64, 26
1, 171834, Control_c, 0, 64, 22
1, 171849, Control_c, 0, 64, 16
1, 171857, Note_off_c, 0, 58, 63
1, 171864, Control_c, 0, 64, 0
1, 171890, Note_off_c, 0, 75, 60
1, 171897, Note_on_c, 0, 53, 44
1, 171898, Note_on_c, 0, 74, 62
1, 171924, Note_off_c, 0, 74, 69
1, 171937, Note_off_c, 0, 53, 56
1, 171970, Note_on_c, 0, 58, 52
1, 172019, Note_off_c, 0, 58, 61
1, 172062, Note_on_c, 0, 51, 42
1, 172069, Note_on_c, 0, 72, 55
1, 172092, Note_off_c, 0, 72, 59
1, 172098, Note_off_c, 0, 51, 56
1, 172148, Note_on_c, 0, 58, 41
1, 172185, Note_off_c, 0, 58, 59
1, 172207, Note_on_c, 0, 70, 65
1, 172232, Note_on_c, 0, 50, 31
1, 172238, Note_off_c, 0, 70, 62
1, 172269, Note_off_c, 0, 50, 50
1, 172296, Note_on_c, 0, 58, 42
1, 172348, Note_off_c, 0, 58, 61
1, 172375, Note_on_c, 0, 68, 55
1, 172387, Note_on_c, 0, 53, 38
1, 172407, Note_off_c, 0, 68, 53
1, 172430, Note_off_c, 0, 53, 50
1, 172478, Note_on_c, 0, 58, 41
1, 172512, Note_off_c, 0, 58, 57
1, 172543, Note_on_c, 0, 66, 56
1, 172570, Note_on_c, 0, 51, 20
1, 172611, Note_off_c, 0, 51, 47
1, 172641, Note_on_c, 0, 58, 38
1, 172685, Note_off_c, 0, 58, 63
1, 172687, Note_off_c, 0, 66, 61
1, 172700, Note_on_c, 0, 67, 59
1, 172714, Note_on_c, 0, 55, 49
1, 172721, Note_off_c, 0, 67, 64
1, 172754, Note_off_c, 0, 55, 64
1, 172790, Note_on_c, 0, 58, 54
1, 172829, Note_off_c, 0, 58, 64
1, 172857, Note_on_c, 0, 51, 57
1, 172858, Note_on_c, 0, 63, 61
1, 172902, Note_off_c, 0, 51, 63
1, 172919, Note_off_c, 0, 63, 64
1, 172927, Note_on_c, 0, 65, 71
1, 172930, Note_on_c, 0, 58, 51
1, 172973, Note_off_c, 0, 58, 63
1, 172999, Note_on_c, 0, 55, 60
1, 173007, Note_on_c, 0, 67, 80
1, 173013, Note_off_c, 0, 65, 61
1, 173079, Note_on_c, 0, 68, 76
1, 173081, Note_on_c, 0, 58, 58
1, 173081, Note_off_c, 0, 55, 64
1, 173088, Note_off_c, 0, 67, 61
1, 173131, Note_off_c, 0, 58, 62
1, 173132, Control_c, 0, 64, 11
1, 173141, Note_on_c, 0, 51, 64
1, 173147, Control_c, 0, 64, 19
1, 173153, Note_on_c, 0, 70, 76
1, 173162, Control_c, 0, 64, 24
1, 173164, Note_off_c, 0, 68, 61
1, 173177, Control_c, 0, 64, 28
1, 173189, Note_off_c, 0, 70, 65
1, 173192, Control_c, 0, 64, 30
1, 173206, Control_c, 0, 64, 32
1, 173213, Note_off_c, 0, 51, 63
1, 173237, Note_on_c, 0, 72, 75
1, 173237, Note_on_c, 0, 58, 56
1, 173273, Control_c, 0, 64, 31
1, 173288, Control_c, 0, 64, 30
1, 173291, Note_off_c, 0, 72, 60
1, 173292, Note_off_c, 0, 58, 61
1, 173303, Control_c, 0, 64, 29
1, 173309, Note_on_c, 0, 74, 85
1, 173318, Control_c, 0, 64, 27
1, 173322, Note_on_c, 0, 55, 56
1, 173332, Control_c, 0, 64, 25
1, 173347, Control_c, 0, 64, 21
1, 173362, Control_c, 0, 64, 15
1, 173369, Note_off_c, 0, 74, 65
1, 173377, Control_c, 0, 64, 0
1, 173388, Note_on_c, 0, 75, 67
1, 173388, Note_off_c, 0, 55, 64
1, 173401, Note_on_c, 0, 58, 61
1, 173405, Note_off_c, 0, 75, 65
1, 173460, Note_on_c, 0, 75, 86
1, 173469, Note_off_c, 0, 58, 61
1, 173484, Note_on_c, 0, 53, 63
1, 173526, Note_off_c, 0, 53, 65
1, 173565, Note_on_c, 0, 58, 52
1, 173600, Note_off_c, 0, 75, 0
1, 173622, Note_off_c, 0, 58, 61
1, 173628, Note_on_c, 0, 75, 28
1, 173645, Note_on_c, 0, 56, 58
1, 173727, Note_on_c, 0, 58, 53
1, 173732, Note_off_c, 0, 56, 60
1, 173786, Note_off_c, 0, 58, 62
1, 173795, Note_on_c, 0, 74, 69
1, 173808, Note_on_c, 0, 53, 53
1, 173818, Note_off_c, 0, 74, 70
1, 173821, Note_off_c, 0, 75, 38
1, 173857, Note_off_c, 0, 53, 59
1, 173903, Note_on_c, 0, 58, 47
1, 173943, Note_off_c, 0, 58, 64
1, 173963, Note_on_c, 0, 72, 60
1, 173973, Note_on_c, 0, 51, 50
1, 173994, Note_off_c, 0, 72, 60
1, 174015, Note_off_c, 0, 51, 61
1, 174053, Note_on_c, 0, 58, 50
1, 174104, Note_off_c, 0, 58, 59
1, 174121, Note_on_c, 0, 70, 69
1, 174131, Note_on_c, 0, 50, 51
1, 174147, Note_off_c, 0, 70, 65
1, 174172, Note_off_c, 0, 50, 62
1, 174212, Note_on_c, 0, 58, 51
1, 174263, Note_off_c, 0, 58, 61
1, 174289, Note_on_c, 0, 53, 46
1, 174295, Note_on_c, 0, 68, 55
1, 174324, Note_off_c, 0, 68, 56
1, 174334, Note_off_c, 0, 53, 54
1, 174373, Note_on_c, 0, 58, 46
1, 174414, Note_off_c, 0, 58, 64
1, 174450, Note_on_c, 0, 51, 43
1, 174451, Note_on_c, 0, 66, 63
1, 174495, Note_off_c, 0, 51, 57
1, 174523, Note_on_c, 0, 58, 47
1, 174595, Note_off_c, 0, 58, 63
1, 174610, Note_off_c, 0, 66, 59
1, 174617, Note_on_c, 0, 55, 53
1, 174620, Note_on_c, 0, 67, 54
1, 174643, Note_off_c, 0, 67, 60
1, 174679, Note_off_c, 0, 55, 62
1, 174692, Note_on_c, 0, 58, 53
1, 174758, Note_off_c, 0, 58, 60
1, 174783, Note_on_c, 0, 51, 56
1, 174787, Note_on_c, 0, 63, 68
1, 174826, Note_off_c, 0, 51, 64
1, 174850, Note_off_c, 0, 63, 66
1, 174858, Note_on_c, 0, 58, 59
1, 174862, Note_on_c, 0, 65, 76
1, 174912, Note_off_c, 0, 58, 61
1, 174935, Note_on_c, 0, 55, 61
1, 174935, Note_on_c, 0, 67, 83
1, 174956, Note_off_c, 0, 65, 60
1, 175004, Note_on_c, 0, 58, 65
1, 175010, Note_off_c, 0, 55, 65
1, 175011, Note_on_c, 0, 68, 85
1, 175035, Note_off_c, 0, 67, 61
1, 175077, Note_off_c, 0, 58, 63
1, 175079, Note_on_c, 0, 51, 66
1, 175087, Note_on_c, 0, 70, 82
1, 175104, Note_off_c, 0, 68, 60
1, 175132, Note_off_c, 0, 70, 66
1, 175154, Note_on_c, 0, 58, 62
1, 175158, Note_off_c, 0, 51, 62
1, 175168, Note_on_c, 0, 72, 84
1, 175234, Note_on_c, 0, 73, 84
1, 175240, Note_off_c, 0, 58, 64
1, 175246, Note_off_c, 0, 72, 58
1, 175251, Note_on_c, 0, 55, 62
1, 175302, Note_on_c, 0, 75, 87
1, 175318, Note_on_c, 0, 58, 56
1, 175335, Note_off_c, 0, 73, 51
1, 175339, Note_off_c, 0, 55, 63
1, 175390, Note_on_c, 0, 77, 99
1, 175398, Note_off_c, 0, 58, 62
1, 175401, Note_on_c, 0, 49, 67
1, 175428, Note_off_c, 0, 75, 60
1, 175487, Note_on_c, 0, 58, 59
1, 175560, Note_off_c, 0, 58, 63
1, 175566, Note_on_c, 0, 55, 65
1, 175579, Control_c, 0, 64, 13
1, 175593, Control_c, 0, 64, 20
1, 175608, Control_c, 0, 64, 24
1, 175615, Note_off_c, 0, 49, 63
1, 175623, Control_c, 0, 64, 26
1, 175638, Control_c, 0, 64, 28
1, 175640, Note_on_c, 0, 58, 63
1, 175652, Control_c, 0, 64, 28
1, 175665, Note_off_c, 0, 55, 64
1, 175667, Control_c, 0, 64, 29
1, 175697, Control_c, 0, 64, 29
1, 175720, Note_off_c, 0, 58, 63
1, 175726, Control_c, 0, 64, 29
1, 175732, Note_on_c, 0, 49, 73
1, 175756, Control_c, 0, 64, 28
1, 175771, Control_c, 0, 64, 28
1, 175786, Control_c, 0, 64, 27
1, 175801, Control_c, 0, 64, 26
1, 175804, Note_on_c, 0, 58, 61
1, 175804, Note_off_c, 0, 49, 64
1, 175815, Control_c, 0, 64, 26
1, 175818, Note_off_c, 0, 77, 56
1, 175830, Control_c, 0, 64, 25
1, 175852, Note_on_c, 0, 79, 73
1, 175875, Control_c, 0, 64, 24
1, 175884, Note_off_c, 0, 58, 63
1, 175891, Note_on_c, 0, 55, 62
1, 175897, Note_off_c, 0, 79, 63
1, 175909, Note_on_c, 0, 77, 78
1, 175934, Control_c, 0, 64, 24
1, 175945, Note_off_c, 0, 77, 65
1, 175949, Note_on_c, 0, 76, 76
1, 175949, Control_c, 0, 64, 23
1, 175964, Control_c, 0, 64, 22
1, 175971, Note_on_c, 0, 58, 59
1, 175979, Note_off_c, 0, 55, 65
1, 175979, Control_c, 0, 64, 16
1, 175994, Control_c, 0, 64, 0
1, 176011, Note_on_c, 0, 77, 83
1, 176045, Note_off_c, 0, 76, 38
1, 176061, Note_on_c, 0, 82, 90
1, 176064, Note_off_c, 0, 58, 63
1, 176069, Note_on_c, 0, 49, 68
1, 176090, Note_off_c, 0, 77, 62
1, 176150, Note_off_c, 0, 49, 63
1, 176153, Note_on_c, 0, 58, 58
1, 176157, Control_c, 0, 64, 17
1, 176172, Control_c, 0, 64, 23
1, 176187, Control_c, 0, 64, 26
1, 176202, Control_c, 0, 64, 28
1, 176224, Control_c, 0, 64, 29
1, 176228, Note_off_c, 0, 58, 63
1, 176242, Note_on_c, 0, 55, 61
1, 176283, Control_c, 0, 64, 28
1, 176298, Control_c, 0, 64, 27
1, 176313, Control_c, 0, 64, 26
1, 176322, Note_off_c, 0, 82, 59
1, 176328, Note_on_c, 0, 58, 59
1, 176328, Control_c, 0, 64, 25
1, 176343, Note_off_c, 0, 55, 58
1, 176343, Control_c, 0, 64, 24
1, 176346, Note_on_c, 0, 79, 73
1, 176358, Control_c, 0, 64, 23
1, 176373, Control_c, 0, 64, 22
1, 176388, Control_c, 0, 64, 19
1, 176402, Note_off_c, 0, 58, 62
1, 176403, Control_c, 0, 64, 0
1, 176408, Note_on_c, 0, 48, 56
1, 176410, Note_on_c, 0, 77, 87
1, 176444, Note_off_c, 0, 79, 62
1, 176504, Note_on_c, 0, 58, 61
1, 176519, Note_off_c, 0, 48, 56
1, 176570, Note_off_c, 0, 58, 63
1, 176575, Note_on_c, 0, 55, 67
1, 176594, Control_c, 0, 64, 10
1, 176609, Control_c, 0, 64, 15
1, 176624, Control_c, 0, 64, 19
1, 176639, Control_c, 0, 64, 23
1, 176648, Note_on_c, 0, 58, 63
1, 176648, Note_off_c, 0, 55, 65
1, 176654, Control_c, 0, 64, 27
1, 176668, Control_c, 0, 64, 29
1, 176683, Control_c, 0, 64, 31
1, 176713, Control_c, 0, 64, 28
1, 176726, Note_off_c, 0, 58, 62
1, 176728, Control_c, 0, 64, 24
1, 176741, Note_off_c, 0, 77, 62
1, 176743, Note_on_c, 0, 48, 58
1, 176743, Control_c, 0, 64, 23
1, 176757, Control_c, 0, 64, 23
1, 176772, Control_c, 0, 64, 24
1, 176773, Note_on_c, 0, 76, 59
1, 176787, Control_c, 0, 64, 25
1, 176796, Note_off_c, 0, 76, 64
1, 176803, Control_c, 0, 64, 26
1, 176814, Note_off_c, 0, 48, 59
1, 176818, Control_c, 0, 64, 27
1, 176823, Note_on_c, 0, 58, 55
1, 176829, Note_on_c, 0, 77, 68
1, 176833, Control_c, 0, 64, 29
1, 176847, Control_c, 0, 64, 29
1, 176856, Note_off_c, 0, 77, 65
1, 176862, Control_c, 0, 64, 30
1, 176874, Note_on_c, 0, 76, 67
1, 176874, Note_off_c, 0, 58, 61
1, 176892, Control_c, 0, 64, 29
1, 176898, Note_on_c, 0, 55, 58
1, 176906, Control_c, 0, 64, 28
1, 176910, Note_off_c, 0, 76, 62
1, 176921, Note_on_c, 0, 77, 71
1, 176936, Control_c, 0, 64, 29
1, 176950, Note_off_c, 0, 77, 59
1, 176951, Control_c, 0, 64, 29
1, 176973, Control_c, 0, 64, 30
1, 176975, Note_off_c, 0, 55, 63
1, 176979, Note_on_c, 0, 58, 61
1, 176981, Note_on_c, 0, 76, 68
1, 177003, Control_c, 0, 64, 31
1, 177017, Note_off_c, 0, 76, 60
1, 177018, Control_c, 0, 64, 31
1, 177032, Note_off_c, 0, 58, 60
1, 177032, Control_c, 0, 64, 32
1, 177036, Note_on_c, 0, 77, 73
1, 177047, Control_c, 0, 64, 32
1, 177066, Note_off_c, 0, 77, 60
1, 177067, Note_on_c, 0, 48, 58
1, 177082, Note_on_c, 0, 76, 70
1, 177112, Note_off_c, 0, 76, 66
1, 177125, Note_on_c, 0, 77, 70
1, 177136, Control_c, 0, 64, 32
1, 177141, Note_on_c, 0, 58, 64
1, 177151, Control_c, 0, 64, 31
1, 177155, Note_off_c, 0, 48, 37
1, 177164, Note_off_c, 0, 77, 62
1, 177166, Control_c, 0, 64, 31
1, 177178, Note_on_c, 0, 76, 75
1, 177196, Control_c, 0, 64, 30
1, 177199, Note_off_c, 0, 58, 61
1, 177211, Control_c, 0, 64, 30
1, 177216, Note_on_c, 0, 55, 63
1, 177222, Note_off_c, 0, 76, 64
1, 177240, Control_c, 0, 64, 29
1, 177255, Control_c, 0, 64, 29
1, 177263, Note_on_c, 0, 74, 77
1, 177270, Control_c, 0, 64, 28
1, 177297, Note_on_c, 0, 58, 68
1, 177299, Control_c, 0, 64, 28
1, 177301, Note_off_c, 0, 55, 62
1, 177314, Control_c, 0, 64, 27
1, 177322, Note_off_c, 0, 74, 65
1, 177324, Note_on_c, 0, 76, 81
1, 177329, Control_c, 0, 64, 24
1, 177344, Control_c, 0, 64, 14
1, 177359, Control_c, 0, 64, 0
1, 177366, Note_off_c, 0, 58, 62
1, 177386, Note_on_c, 0, 77, 80
1, 177397, Note_off_c, 0, 76, 65
1, 177411, Note_on_c, 0, 48, 59
1, 177434, Note_on_c, 0, 79, 85
1, 177449, Note_off_c, 0, 77, 63
1, 177468, Note_off_c, 0, 48, 61
1, 177478, Note_on_c, 0, 56, 64
1, 177489, Note_off_c, 0, 79, 64
1, 177496, Note_on_c, 0, 77, 74
1, 177532, Note_off_c, 0, 56, 58
1, 177543, Note_off_c, 0, 77, 62
1, 177553, Note_on_c, 0, 76, 78
1, 177574, Note_on_c, 0, 53, 57
1, 177607, Note_on_c, 0, 77, 78
1, 177622, Note_off_c, 0, 76, 63
1, 177654, Note_on_c, 0, 56, 57
1, 177661, Note_on_c, 0, 79, 74
1, 177664, Note_off_c, 0, 53, 62
1, 177706, Note_off_c, 0, 77, 56
1, 177720, Note_on_c, 0, 80, 97
1, 177727, Note_off_c, 0, 56, 65
1, 177734, Note_on_c, 0, 48, 61
1, 177741, Note_off_c, 0, 79, 64
1, 177758, Note_off_c, 0, 80, 68
1, 177783, Note_off_c, 0, 48, 62
1, 177810, Note_on_c, 0, 56, 61
1, 177882, Note_off_c, 0, 56, 66
1, 177896, Note_on_c, 0, 53, 63
1, 177982, Note_on_c, 0, 56, 63
1, 177990, Note_off_c, 0, 53, 62
1, 177992, Note_on_c, 0, 79, 85
1, 178037, Note_off_c, 0, 56, 63
1, 178053, Note_off_c, 0, 79, 65
1, 178059, Note_on_c, 0, 77, 84
1, 178061, Note_on_c, 0, 47, 60
1, 178090, Note_off_c, 0, 77, 64
1, 178116, Note_off_c, 0, 47, 61
1, 178153, Note_on_c, 0, 56, 56
1, 178218, Note_off_c, 0, 56, 65
1, 178239, Note_on_c, 0, 53, 56
1, 178306, Note_off_c, 0, 53, 63
1, 178318, Note_on_c, 0, 56, 53
1, 178322, Note_on_c, 0, 75, 73
1, 178348, Note_off_c, 0, 75, 65
1, 178377, Note_off_c, 0, 56, 63
1, 178402, Note_on_c, 0, 75, 86
1, 178409, Note_on_c, 0, 46, 57
1, 178489, Note_off_c, 0, 46, 55
1, 178505, Note_on_c, 0, 56, 54
1, 178515, Control_c, 0, 64, 18
1, 178530, Control_c, 0, 64, 24
1, 178541, Note_off_c, 0, 56, 66
1, 178544, Control_c, 0, 64, 28
1, 178559, Control_c, 0, 64, 32
1, 178569, Note_on_c, 0, 53, 56
1, 178574, Control_c, 0, 64, 34
1, 178589, Control_c, 0, 64, 36
1, 178604, Control_c, 0, 64, 38
1, 178618, Control_c, 0, 64, 39
1, 178635, Note_off_c, 0, 53, 60
1, 178646, Note_on_c, 0, 56, 59
1, 178705, Note_off_c, 0, 56, 62
1, 178707, Control_c, 0, 64, 38
1, 178713, Note_off_c, 0, 75, 58
1, 178722, Control_c, 0, 64, 37
1, 178737, Control_c, 0, 64, 33
1, 178745, Note_on_c, 0, 46, 63
1, 178747, Note_on_c, 0, 74, 59
1, 178752, Control_c, 0, 64, 24
1, 178767, Control_c, 0, 64, 13
1, 178777, Note_off_c, 0, 74, 61
1, 178781, Control_c, 0, 64, 0
1, 178814, Note_on_c, 0, 75, 59
1, 178823, Note_off_c, 0, 46, 62
1, 178832, Note_on_c, 0, 56, 53
1, 178835, Note_off_c, 0, 75, 60
1, 178846, Note_on_c, 0, 74, 66
1, 178884, Note_off_c, 0, 74, 62
1, 178891, Note_off_c, 0, 56, 62
1, 178895, Note_on_c, 0, 75, 75
1, 178919, Note_off_c, 0, 75, 68
1, 178932, Note_on_c, 0, 53, 42
1, 178940, Note_on_c, 0, 74, 55
1, 178969, Note_off_c, 0, 74, 67
1, 178973, Note_on_c, 0, 72, 72
1, 178996, Note_off_c, 0, 53, 63
1, 179019, Note_on_c, 0, 56, 51
1, 179033, Note_off_c, 0, 72, 59
1, 179034, Note_on_c, 0, 74, 76
1, 179069, Note_off_c, 0, 56, 59
1, 179106, Note_on_c, 0, 75, 64
1, 179128, Note_on_c, 0, 48, 42
1, 179131, Note_off_c, 0, 74, 61
1, 179173, Note_off_c, 0, 48, 49
1, 179203, Note_on_c, 0, 55, 48
1, 179255, Note_off_c, 0, 55, 62
1, 179281, Note_on_c, 0, 51, 51
1, 179339, Note_off_c, 0, 51, 56
1, 179353, Control_c, 0, 67, 9
1, 179367, Control_c, 0, 67, 12
1, 179371, Note_on_c, 0, 55, 45
1, 179382, Control_c, 0, 67, 14
1, 179397, Control_c, 0, 67, 17
1, 179411, Control_c, 0, 67, 21
1, 179426, Control_c, 0, 67, 26
1, 179441, Control_c, 0, 67, 35
1, 179456, Control_c, 0, 67, 49
1, 179471, Control_c, 0, 67, 58
1, 179486, Control_c, 0, 67, 67
1, 179500, Control_c, 0, 67, 76
1, 179515, Note_off_c, 0, 75, 56
1, 179515, Control_c, 0, 67, 85
1, 179530, Control_c, 0, 67, 93
1, 179534, Note_on_c, 0, 44, 44
1, 179545, Control_c, 0, 67, 101
1, 179556, Note_off_c, 0, 55, 42
1, 179560, Control_c, 0, 67, 107
1, 179564, Note_on_c, 0, 74, 54
1, 179574, Control_c, 0, 67, 113
1, 179589, Control_c, 0, 67, 116
1, 179604, Control_c, 0, 67, 118
1, 179619, Control_c, 0, 67, 119
1, 179634, Control_c, 0, 67, 119
1, 179654, Note_off_c, 0, 74, 62
1, 179660, Note_on_c, 0, 72, 56
1, 179679, Control_c, 0, 67, 118
1, 179693, Control_c, 0, 67, 117
1, 179708, Control_c, 0, 67, 115
1, 179721, Note_off_c, 0, 72, 63
1, 179723, Control_c, 0, 67, 113
1, 179724, Note_on_c, 0, 71, 66
1, 179738, Control_c, 0, 67, 112
1, 179753, Control_c, 0, 67, 110
1, 179767, Control_c, 0, 67, 108
1, 179782, Control_c, 0, 67, 107
1, 179797, Control_c, 0, 67, 106
1, 179801, Note_on_c, 0, 72, 81
1, 179811, Note_off_c, 0, 71, 64
1, 179811, Control_c, 0, 67, 104
1, 179826, Control_c, 0, 67, 102
1, 179841, Control_c, 0, 67, 98
1, 179856, Control_c, 0, 67, 94
1, 179871, Control_c, 0, 67, 91
1, 179885, Control_c, 0, 67, 89
1, 179887, Note_off_c, 0, 72, 63
1, 179892, Note_on_c, 0, 71, 74
1, 179896, Note_off_c, 0, 44, 59
1, 179900, Control_c, 0, 67, 87
1, 179915, Control_c, 0, 67, 84
1, 179930, Control_c, 0, 67, 79
1, 179945, Control_c, 0, 67, 73
1, 179967, Control_c, 0, 67, 65
1, 179970, Note_off_c, 0, 71, 64
1, 179971, Note_on_c, 0, 72, 76
1, 179982, Control_c, 0, 67, 57
1, 179998, Control_c, 0, 67, 48
1, 180013, Control_c, 0, 67, 39
1, 180028, Control_c, 0, 67, 31
1, 180042, Control_c, 0, 67, 23
1, 180045, Note_off_c, 0, 72, 61
1, 180057, Control_c, 0, 67, 14
1, 180063, Note_on_c, 0, 71, 68
1, 180072, Control_c, 0, 67, 0
1, 180124, Note_off_c, 0, 71, 63
1, 180140, Note_on_c, 0, 72, 65
1, 180218, Note_off_c, 0, 72, 58
1, 180239, Note_on_c, 0, 75, 72
1, 180263, Note_off_c, 0, 75, 67
1, 180464, Note_on_c, 0, 72, 61
1, 180483, Note_off_c, 0, 72, 64
1, 180699, Note_on_c, 0, 70, 53
1, 180702, Note_on_c, 0, 60, 41
1, 180719, Note_on_c, 0, 63, 34
1, 180779, Note_off_c, 0, 70, 60
1, 180781, Note_on_c, 0, 68, 54
1, 180856, Note_off_c, 0, 68, 61
1, 180864, Control_c, 0, 64, 15
1, 180871, Note_on_c, 0, 67, 59
1, 180879, Control_c, 0, 64, 20
1, 180894, Control_c, 0, 64, 23
1, 180909, Control_c, 0, 64, 25
1, 180909, Control_c, 0, 67, 8
1, 180924, Control_c, 0, 64, 27
1, 180924, Control_c, 0, 67, 8
1, 180938, Control_c, 0, 64, 27
1, 180938, Control_c, 0, 67, 9
1, 180942, Note_off_c, 0, 67, 62
1, 180953, Control_c, 0, 67, 10
1, 180955, Note_on_c, 0, 68, 64
1, 180968, Control_c, 0, 67, 10
1, 180983, Control_c, 0, 64, 26
1, 180983, Control_c, 0, 67, 11
1, 180998, Control_c, 0, 64, 25
1, 180998, Control_c, 0, 67, 11
1, 181012, Control_c, 0, 64, 22
1, 181012, Control_c, 0, 67, 12
1, 181027, Control_c, 0, 64, 20
1, 181027, Control_c, 0, 67, 12
1, 181031, Note_off_c, 0, 68, 62
1, 181038, Note_on_c, 0, 67, 69
1, 181042, Control_c, 0, 64, 18
1, 181042, Control_c, 0, 67, 13
1, 181044, Note_off_c, 0, 60, 62
1, 181056, Control_c, 0, 64, 18
1, 181056, Control_c, 0, 67, 14
1, 181065, Note_off_c, 0, 63, 58
1, 181071, Control_c, 0, 67, 14
1, 181086, Control_c, 0, 64, 16
1, 181086, Control_c, 0, 67, 15
1, 181101, Control_c, 0, 64, 13
1, 181101, Control_c, 0, 67, 16
1, 181106, Note_off_c, 0, 67, 62
1, 181107, Note_on_c, 0, 68, 66
1, 181116, Control_c, 0, 64, 0
1, 181116, Control_c, 0, 67, 18
1, 181130, Control_c, 0, 67, 20
1, 181145, Control_c, 0, 67, 22
1, 181160, Control_c, 0, 67, 25
1, 181175, Control_c, 0, 67, 28
1, 181178, Note_off_c, 0, 68, 62
1, 181190, Control_c, 0, 67, 32
1, 181193, Note_on_c, 0, 67, 63
1, 181205, Control_c, 0, 67, 37
1, 181220, Control_c, 0, 67, 42
1, 181235, Control_c, 0, 67, 47
1, 181250, Control_c, 0, 67, 52
1, 181264, Control_c, 0, 67, 57
1, 181275, Note_off_c, 0, 67, 57
1, 181279, Control_c, 0, 67, 62
1, 181285, Note_on_c, 0, 68, 61
1, 181294, Control_c, 0, 67, 67
1, 181309, Control_c, 0, 67, 72
1, 181324, Control_c, 0, 67, 77
1, 181338, Control_c, 0, 67, 82
1, 181353, Control_c, 0, 67, 88
1, 181368, Control_c, 0, 67, 93
1, 181369, Note_off_c, 0, 68, 61
1, 181382, Control_c, 0, 67, 97
1, 181384, Note_on_c, 0, 72, 62
1, 181397, Control_c, 0, 67, 100
1, 181408, Note_off_c, 0, 72, 63
1, 181412, Control_c, 0, 67, 102
1, 181427, Control_c, 0, 67, 104
1, 181442, Control_c, 0, 67, 105
1, 181464, Control_c, 0, 67, 106
1, 181623, Note_on_c, 0, 68, 56
1, 181656, Note_off_c, 0, 68, 54
1, 181673, Control_c, 0, 67, 105
1, 181702, Control_c, 0, 67, 104
1, 181732, Control_c, 0, 67, 104
1, 181747, Control_c, 0, 67, 103
1, 181761, Control_c, 0, 67, 103
1, 181791, Control_c, 0, 67, 102
1, 181806, Control_c, 0, 67, 101
1, 181820, Control_c, 0, 67, 101
1, 181850, Control_c, 0, 67, 100
1, 181855, Note_on_c, 0, 67, 54
1, 181879, Control_c, 0, 67, 100
1, 181894, Control_c, 0, 67, 99
1, 181909, Control_c, 0, 67, 99
1, 181924, Control_c, 0, 67, 98
1, 181926, Note_off_c, 0, 67, 61
1, 181939, Control_c, 0, 67, 98
1, 181950, Note_on_c, 0, 65, 46
1, 181953, Control_c, 0, 67, 97
1, 181968, Control_c, 0, 67, 96
1, 181980, Note_off_c, 0, 65, 60
1, 181983, Control_c, 0, 67, 95
1, 181998, Control_c, 0, 67, 94
1, 182013, Control_c, 0, 67, 93
1, 182014, Note_on_c, 0, 64, 48
1, 182028, Control_c, 0, 67, 92
1, 182043, Control_c, 0, 67, 91
1, 182057, Control_c, 0, 67, 89
1, 182072, Control_c, 0, 67, 86
1, 182084, Note_off_c, 0, 64, 63
1, 182086, Note_on_c, 0, 65, 58
1, 182087, Control_c, 0, 67, 83
1, 182102, Control_c, 0, 67, 80
1, 182117, Control_c, 0, 67, 77
1, 182121, Note_off_c, 0, 65, 67
1, 182132, Control_c, 0, 67, 75
1, 182147, Control_c, 0, 67, 73
1, 182156, Note_on_c, 0, 73, 66
1, 182161, Control_c, 0, 67, 70
1, 182176, Control_c, 0, 67, 67
1, 182191, Control_c, 0, 67, 64
1, 182212, Control_c, 0, 67, 59
1, 182227, Control_c, 0, 67, 52
1, 182234, Note_on_c, 0, 72, 70
1, 182240, Note_off_c, 0, 73, 64
1, 182242, Control_c, 0, 67, 44
1, 182257, Control_c, 0, 67, 36
1, 182269, Note_off_c, 0, 72, 62
1, 182272, Control_c, 0, 67, 26
1, 182287, Control_c, 0, 67, 20
1, 182302, Control_c, 0, 67, 16
1, 182317, Control_c, 0, 67, 13
1, 182321, Note_on_c, 0, 71, 69
1, 182332, Control_c, 0, 67, 10
1, 182347, Control_c, 0, 67, 8
1, 182361, Control_c, 0, 67, 0
1, 182386, Note_off_c, 0, 71, 66
1, 182388, Note_on_c, 0, 72, 67
1, 182418, Note_off_c, 0, 72, 64
1, 182458, Note_on_c, 0, 79, 77
1, 182528, Note_on_c, 0, 77, 80
1, 182545, Note_off_c, 0, 79, 61
1, 182577, Note_off_c, 0, 77, 62
1, 182621, Note_on_c, 0, 76, 58
1, 182681, Note_off_c, 0, 76, 62
1, 182692, Note_on_c, 0, 77, 54
1, 182804, Note_off_c, 0, 77, 60
1, 182815, Note_on_c, 0, 83, 61
1, 183018, Note_off_c, 0, 83, 63
1, 183044, Note_on_c, 0, 84, 53
1, 183087, Note_off_c, 0, 84, 64
1, 183092, Note_on_c, 0, 83, 58
1, 183145, Note_off_c, 0, 83, 65
1, 183154, Note_on_c, 0, 81, 67
1, 183207, Note_on_c, 0, 83, 66
1, 183215, Note_off_c, 0, 81, 61
1, 183482, Control_c, 0, 67, 8
1, 183497, Control_c, 0, 67, 9
1, 183512, Control_c, 0, 67, 10
1, 183519, Note_off_c, 0, 83, 59
1, 183525, Note_on_c, 0, 86, 54
1, 183526, Control_c, 0, 67, 11
1, 183541, Control_c, 0, 67, 12
1, 183556, Control_c, 0, 67, 13
1, 183571, Control_c, 0, 67, 14
1, 183585, Control_c, 0, 67, 15
1, 183600, Control_c, 0, 67, 17
1, 183615, Control_c, 0, 67, 18
1, 183630, Control_c, 0, 67, 21
1, 183645, Control_c, 0, 67, 25
1, 183659, Control_c, 0, 67, 29
1, 183661, Note_on_c, 0, 84, 60
1, 183674, Control_c, 0, 67, 37
1, 183689, Control_c, 0, 67, 45
1, 183712, Control_c, 0, 67, 52
1, 183727, Control_c, 0, 67, 59
1, 183741, Control_c, 0, 67, 65
1, 183756, Control_c, 0, 67, 71
1, 183769, Note_off_c, 0, 86, 33
1, 183771, Control_c, 0, 67, 76
1, 183785, Control_c, 0, 67, 82
1, 183793, Note_on_c, 0, 80, 59
1, 183800, Control_c, 0, 67, 86
1, 183815, Control_c, 0, 67, 89
1, 183830, Control_c, 0, 67, 90
1, 183846, Note_off_c, 0, 84, 60
1, 183889, Control_c, 0, 67, 89
1, 183906, Note_off_c, 0, 80, 62
1, 183918, Note_on_c, 0, 77, 63
1, 183919, Control_c, 0, 67, 89
1, 183948, Control_c, 0, 67, 88
1, 184087, Note_on_c, 0, 67, 41
1, 184096, Note_on_c, 0, 58, 32
1, 184097, Control_c, 0, 67, 89
1, 184105, Note_on_c, 0, 75, 52
1, 184109, Note_off_c, 0, 77, 50
1, 184127, Control_c, 0, 67, 89
1, 184156, Control_c, 0, 67, 90
1, 184186, Control_c, 0, 67, 90
1, 184231, Control_c, 0, 67, 91
1, 184245, Control_c, 0, 67, 91
1, 184275, Control_c, 0, 67, 92
1, 184290, Control_c, 0, 67, 94
1, 184305, Control_c, 0, 67, 98
1, 184320, Control_c, 0, 67, 100
1, 184335, Control_c, 0, 67, 103
1, 184350, Control_c, 0, 67, 104
1, 184364, Control_c, 0, 64, 15
1, 184364, Control_c, 0, 67, 105
1, 184379, Control_c, 0, 64, 22
1, 184379, Control_c, 0, 67, 106
1, 184394, Control_c, 0, 64, 27
1, 184394, Control_c, 0, 67, 107
1, 184408, Control_c, 0, 64, 30
1, 184408, Control_c, 0, 67, 108
1, 184423, Control_c, 0, 64, 33
1, 184438, Control_c, 0, 64, 36
1, 184460, Control_c, 0, 64, 39
1, 184475, Control_c, 0, 64, 40
1, 184490, Control_c, 0, 64, 41
1, 184504, Control_c, 0, 64, 40
1, 184519, Control_c, 0, 64, 39
1, 184534, Control_c, 0, 64, 39
1, 184549, Control_c, 0, 64, 38
1, 184563, Control_c, 0, 64, 37
1, 184578, Control_c, 0, 64, 36
1, 184578, Control_c, 0, 67, 107
1, 184591, Note_off_c, 0, 75, 49
1, 184593, Control_c, 0, 64, 34
1, 184593, Control_c, 0, 67, 106
1, 184607, Control_c, 0, 64, 31
1, 184607, Control_c, 0, 67, 105
1, 184622, Control_c, 0, 64, 30
1, 184622, Control_c, 0, 67, 105
1, 184633, Note_on_c, 0, 77, 43
1, 184637, Control_c, 0, 64, 30
1, 184637, Control_c, 0, 67, 104
1, 184652, Control_c, 0, 64, 29
1, 184667, Control_c, 0, 64, 26
1, 184675, Note_off_c, 0, 77, 53
1, 184681, Control_c, 0, 64, 23
1, 184695, Note_on_c, 0, 75, 46
1, 184696, Control_c, 0, 64, 15
1, 184711, Control_c, 0, 64, 0
1, 184719, Note_off_c, 0, 67, 43
1, 184719, Note_off_c, 0, 75, 58
1, 184731, Note_on_c, 0, 74, 55
1, 184767, Note_off_c, 0, 74, 65
1, 184779, Note_on_c, 0, 75, 63
1, 184801, Control_c, 0, 67, 104
1, 184816, Control_c, 0, 67, 103
1, 184830, Control_c, 0, 67, 102
1, 184845, Control_c, 0, 67, 101
1, 184852, Note_off_c, 0, 75, 61
1, 184857, Note_on_c, 0, 79, 56
1, 184860, Note_on_c, 0, 68, 36
1, 184860, Control_c, 0, 67, 100
1, 184875, Control_c, 0, 67, 99
1, 184904, Control_c, 0, 64, 15
1, 184904, Control_c, 0, 67, 99
1, 184918, Poly_aftertouch_c, 0, 74, 127
1, 184919, Control_c, 0, 64, 23
1, 184927, Note_off_c, 0, 68, 59
1, 184934, Control_c, 0, 64, 27
1, 184934, Control_c, 0, 67, 98
1, 184949, Control_c, 0, 64, 31
1, 184960, Poly_aftertouch_c, 0, 74, 0
1, 184964, Note_off_c, 0, 58, 58
1, 184964, Control_c, 0, 64, 34
1, 184979, Control_c, 0, 64, 37
1, 184994, Control_c, 0, 64, 39
1, 185009, Control_c, 0, 64, 40
1, 185029, Note_on_c, 0, 77, 53
1, 185053, Control_c, 0, 64, 39
1, 185074, Note_off_c, 0, 79, 35
1, 185142, Control_c, 0, 64, 39
1, 185156, Control_c, 0, 64, 38
1, 185156, Control_c, 0, 67, 98
1, 185171, Control_c, 0, 64, 37
1, 185171, Control_c, 0, 67, 96
1, 185186, Control_c, 0, 64, 34
1, 185186, Control_c, 0, 67, 94
1, 185208, Control_c, 0, 64, 28
1, 185208, Control_c, 0, 67, 91
1, 185211, Note_on_c, 0, 75, 58
1, 185212, Note_on_c, 0, 51, 49
1, 185223, Control_c, 0, 64, 18
1, 185223, Control_c, 0, 67, 86
1, 185238, Control_c, 0, 64, 0
1, 185238, Control_c, 0, 67, 78
1, 185253, Control_c, 0, 67, 66
1, 185260, Note_off_c, 0, 51, 64
1, 185268, Control_c, 0, 67, 54
1, 185283, Control_c, 0, 67, 44
1, 185294, Note_on_c, 0, 58, 48
1, 185296, Note_off_c, 0, 77, 34
1, 185298, Control_c, 0, 67, 33
1, 185312, Control_c, 0, 67, 25
1, 185327, Control_c, 0, 67, 19
1, 185336, Note_off_c, 0, 58, 62
1, 185342, Control_c, 0, 67, 15
1, 185356, Control_c, 0, 67, 13
1, 185371, Note_on_c, 0, 55, 49
1, 185371, Control_c, 0, 67, 13
1, 185386, Control_c, 0, 67, 12
1, 185401, Control_c, 0, 67, 12
1, 185416, Control_c, 0, 67, 11
1, 185428, Note_off_c, 0, 55, 64
1, 185430, Control_c, 0, 67, 10
1, 185442, Note_on_c, 0, 58, 58
1, 185445, Control_c, 0, 67, 8
1, 185460, Control_c, 0, 67, 0
1, 185483, Note_off_c, 0, 58, 62
1, 185485, Note_off_c, 0, 75, 56
1, 185510, Note_on_c, 0, 51, 63
1, 185546, Note_off_c, 0, 51, 66
1, 185600, Note_on_c, 0, 58, 56
1, 185628, Note_off_c, 0, 58, 59
1, 185664, Note_on_c, 0, 55, 53
1, 185667, Note_on_c, 0, 70, 69
1, 185708, Note_off_c, 0, 70, 53
1, 185722, Note_off_c, 0, 55, 61
1, 185737, Note_on_c, 0, 58, 50
1, 185787, Note_off_c, 0, 58, 60
1, 185819, Note_on_c, 0, 51, 58
1, 185831, Note_on_c, 0, 75, 77
1, 185863, Note_off_c, 0, 75, 58
1, 185867, Note_off_c, 0, 51, 61
1, 185904, Note_on_c, 0, 58, 59
1, 185975, Note_off_c, 0, 58, 61
1, 185998, Note_on_c, 0, 79, 76
1, 185999, Note_on_c, 0, 55, 58
1, 186024, Note_off_c, 0, 79, 65
1, 186077, Note_on_c, 0, 58, 56
1, 186091, Note_off_c, 0, 55, 57
1, 186138, Note_off_c, 0, 58, 62
1, 186155, Note_on_c, 0, 74, 58
1, 186163, Note_on_c, 0, 50, 49
1, 186170, Note_on_c, 0, 77, 82
1, 186184, Note_on_c, 0, 80, 94
1, 186210, Note_off_c, 0, 50, 60
1, 186215, Note_off_c, 0, 74, 64
1, 186221, Note_off_c, 0, 77, 65
1, 186239, Control_c, 0, 64, 11
1, 186245, Note_on_c, 0, 58, 54
1, 186253, Control_c, 0, 64, 19
1, 186268, Control_c, 0, 64, 23
1, 186283, Control_c, 0, 64, 25
1, 186291, Note_off_c, 0, 58, 62
1, 186298, Control_c, 0, 64, 25
1, 186326, Note_on_c, 0, 53, 56
1, 186357, Control_c, 0, 64, 25
1, 186381, Note_off_c, 0, 53, 62
1, 186388, Control_c, 0, 64, 24
1, 186402, Note_on_c, 0, 58, 58
1, 186402, Control_c, 0, 64, 22
1, 186417, Control_c, 0, 64, 19
1, 186432, Control_c, 0, 64, 16
1, 186447, Control_c, 0, 64, 13
1, 186450, Note_off_c, 0, 58, 62
1, 186462, Control_c, 0, 64, 8
1, 186476, Control_c, 0, 64, 0
1, 186482, Note_on_c, 0, 50, 57
1, 186526, Note_off_c, 0, 50, 62
1, 186566, Note_on_c, 0, 58, 49
1, 186605, Note_off_c, 0, 58, 63
1, 186628, Note_off_c, 0, 80, 58
1, 186638, Note_on_c, 0, 53, 53
1, 186645, Note_on_c, 0, 77, 71
1, 186681, Note_off_c, 0, 77, 62
1, 186693, Note_off_c, 0, 53, 59
1, 186732, Note_on_c, 0, 74, 56
1, 186735, Note_on_c, 0, 58, 47
1, 186761, Note_off_c, 0, 74, 68
1, 186780, Note_off_c, 0, 58, 62
1, 186800, Note_on_c, 0, 70, 71
1, 186805, Note_on_c, 0, 50, 49
1, 186825, Note_off_c, 0, 70, 65
1, 186849, Note_off_c, 0, 50, 62
1, 186877, Note_on_c, 0, 58, 58
1, 186938, Note_off_c, 0, 58, 59
1, 186973, Note_on_c, 0, 53, 43
1, 186975, Note_on_c, 0, 68, 67
1, 187007, Note_off_c, 0, 68, 62
1, 187018, Note_off_c, 0, 53, 55
1, 187071, Note_on_c, 0, 58, 42
1, 187100, Note_off_c, 0, 58, 56
1, 187133, Note_on_c, 0, 51, 51
1, 187143, Note_on_c, 0, 67, 64
1, 187176, Note_off_c, 0, 51, 65
1, 187211, Note_on_c, 0, 58, 47
1, 187280, Note_off_c, 0, 58, 61
1, 187300, Note_on_c, 0, 55, 59
1, 187300, Control_c, 0, 64, 11
1, 187315, Control_c, 0, 64, 17
1, 187330, Control_c, 0, 64, 20
1, 187345, Control_c, 0, 64, 23
1, 187360, Control_c, 0, 64, 24
1, 187360, Note_off_c, 0, 67, 63
1, 187374, Note_off_c, 0, 55, 65
1, 187389, Note_on_c, 0, 58, 61
1, 187404, Control_c, 0, 64, 24
1, 187419, Control_c, 0, 64, 23
1, 187428, Note_off_c, 0, 58, 62
1, 187433, Control_c, 0, 64, 20
1, 187456, Control_c, 0, 64, 18
1, 187462, Note_on_c, 0, 51, 70
1, 187471, Control_c, 0, 64, 15
1, 187486, Control_c, 0, 64, 11
1, 187501, Control_c, 0, 64, 0
1, 187517, Note_off_c, 0, 51, 62
1, 187541, Note_on_c, 0, 58, 65
1, 187545, Note_on_c, 0, 70, 79
1, 187600, Note_on_c, 0, 75, 79
1, 187604, Note_off_c, 0, 58, 62
1, 187618, Note_on_c, 0, 55, 67
1, 187619, Note_off_c, 0, 70, 61
1, 187667, Note_on_c, 0, 79, 80
1, 187691, Note_off_c, 0, 75, 63
1, 187700, Note_off_c, 0, 55, 65
1, 187702, Note_on_c, 0, 58, 68
1, 187740, Note_off_c, 0, 79, 65
1, 187741, Note_on_c, 0, 82, 88
1, 187754, Note_on_c, 0, 51, 71
1, 187759, Note_off_c, 0, 58, 63
1, 187784, Note_off_c, 0, 82, 62
1, 187812, Note_off_c, 0, 51, 66
1, 187855, Note_on_c, 0, 58, 57
1, 187901, Note_on_c, 0, 82, 88
1, 187903, Note_off_c, 0, 58, 64
1, 187920, Note_on_c, 0, 55, 66
1, 187963, Note_off_c, 0, 82, 64
1, 187992, Note_on_c, 0, 58, 70
1, 188003, Note_off_c, 0, 55, 64
1, 188078, Note_on_c, 0, 80, 81
1, 188079, Note_on_c, 0, 50, 77
1, 188095, Note_off_c, 0, 58, 58
1, 188153, Note_on_c, 0, 82, 80
1, 188167, Note_off_c, 0, 80, 61
1, 188237, Note_on_c, 0, 80, 82
1, 188265, Note_off_c, 0, 82, 61
1, 188318, Note_on_c, 0, 79, 82
1, 188320, Note_off_c, 0, 80, 65
1, 188386, Note_off_c, 0, 79, 60
1, 188392, Note_on_c, 0, 77, 83
1, 188454, Note_off_c, 0, 77, 51
1, 188461, Note_on_c, 0, 75, 81
1, 188535, Note_on_c, 0, 74, 79
1, 188539, Note_off_c, 0, 75, 62
1, 188548, Note_off_c, 0, 50, 62
1, 188585, Note_off_c, 0, 74, 65
1, 188602, Note_on_c, 0, 72, 80
1, 188669, Note_on_c, 0, 70, 82
1, 188673, Note_off_c, 0, 72, 63
1, 188735, Note_on_c, 0, 68, 79
1, 188788, Note_off_c, 0, 70, 62
1, 188798, Note_on_c, 0, 67, 79
1, 188825, Note_off_c, 0, 68, 60
1, 188866, Note_off_c, 0, 67, 63
1, 188874, Note_on_c, 0, 65, 76
1, 188951, Note_on_c, 0, 51, 83
1, 188952, Note_on_c, 0, 63, 84
1, 188960, Note_off_c, 0, 65, 65
1, 188977, Note_off_c, 0, 63, 70
1, 189106, Note_off_c, 0, 51, 65
1, 189124, Note_on_c, 0, 79, 87
1, 189129, Note_on_c, 0, 75, 84
1, 189154, Note_off_c, 0, 75, 64
1, 189164, Note_off_c, 0, 79, 63
1, 189270, Note_on_c, 0, 58, 86
1, 189420, Note_off_c, 0, 58, 65
1, 189438, Note_on_c, 0, 77, 90
1, 189444, Note_on_c, 0, 74, 79
1, 189465, Note_off_c, 0, 74, 71
1, 189473, Note_off_c, 0, 77, 66
1, 189604, Note_on_c, 0, 60, 86
1, 189729, Note_off_c, 0, 60, 67
1, 189765, Note_on_c, 0, 75, 86
1, 189766, Note_on_c, 0, 72, 76
1, 189789, Note_off_c, 0, 72, 68
1, 189805, Note_off_c, 0, 75, 58
1, 189921, Note_on_c, 0, 55, 74
1, 190070, Note_off_c, 0, 55, 66
1, 190081, Note_on_c, 0, 73, 80
1, 190083, Note_on_c, 0, 70, 71
1, 190109, Note_off_c, 0, 70, 67
1, 190118, Note_off_c, 0, 73, 61
1, 190237, Note_on_c, 0, 56, 70
1, 190392, Note_on_c, 0, 72, 75
1, 190401, Note_off_c, 0, 56, 64
1, 190406, Note_on_c, 0, 68, 58
1, 190419, Note_off_c, 0, 72, 63
1, 190427, Note_off_c, 0, 68, 62
1, 190566, Note_on_c, 0, 64, 52
1, 190571, Note_on_c, 0, 60, 49
1, 190708, Note_off_c, 0, 60, 64
1, 190721, Note_off_c, 0, 64, 61
1, 190727, Note_on_c, 0, 70, 67
1, 190747, Note_on_c, 0, 67, 49
1, 190769, Note_off_c, 0, 70, 61
1, 190772, Note_off_c, 0, 67, 60
1, 190909, Note_on_c, 0, 61, 49
1, 190969, Control_c, 0, 67, 8
1, 190984, Control_c, 0, 67, 10
1, 190999, Control_c, 0, 67, 11
1, 191014, Control_c, 0, 67, 13
1, 191029, Control_c, 0, 67, 15
1, 191043, Control_c, 0, 67, 17
1, 191058, Control_c, 0, 67, 20
1, 191073, Control_c, 0, 67, 24
1, 191088, Control_c, 0, 67, 29
1, 191102, Control_c, 0, 67, 34
1, 191117, Control_c, 0, 67, 40
1, 191132, Note_on_c, 0, 68, 46
1, 191132, Control_c, 0, 67, 48
1, 191144, Note_on_c, 0, 65, 28
1, 191147, Control_c, 0, 67, 54
1, 191163, Control_c, 0, 67, 60
1, 191178, Control_c, 0, 67, 66
1, 191200, Control_c, 0, 67, 71
1, 191215, Control_c, 0, 67, 75
1, 191229, Note_off_c, 0, 61, 36
1, 191230, Control_c, 0, 64, 14
1, 191230, Control_c, 0, 67, 80
1, 191245, Control_c, 0, 64, 23
1, 191245, Control_c, 0, 67, 84
1, 191260, Control_c, 0, 64, 30
1, 191260, Control_c, 0, 67, 88
1, 191274, Control_c, 0, 64, 37
1, 191274, Control_c, 0, 67, 90
1, 191289, Control_c, 0, 64, 42
1, 191289, Control_c, 0, 67, 91
1, 191304, Control_c, 0, 64, 47
1, 191304, Control_c, 0, 67, 92
1, 191319, Control_c, 0, 64, 50
1, 191334, Control_c, 0, 64, 52
1, 191348, Control_c, 0, 64, 52
1, 191363, Control_c, 0, 64, 52
1, 191378, Control_c, 0, 64, 51
1, 191378, Control_c, 0, 67, 92
1, 191392, Control_c, 0, 64, 50
1, 191407, Control_c, 0, 64, 49
1, 191422, Control_c, 0, 64, 48
1, 191431, Note_off_c, 0, 65, 43
1, 191437, Control_c, 0, 64, 48
1, 191452, Control_c, 0, 64, 46
1, 191456, Note_off_c, 0, 68, 29
1, 191466, Control_c, 0, 64, 45
1, 191481, Control_c, 0, 64, 43
1, 191496, Control_c, 0, 64, 42
1, 191511, Control_c, 0, 64, 40
1, 191525, Control_c, 0, 64, 39
1, 191540, Control_c, 0, 64, 38
1, 191555, Control_c, 0, 64, 37
1, 191570, Control_c, 0, 64, 35
1, 191585, Control_c, 0, 64, 33
1, 191599, Control_c, 0, 64, 30
1, 191614, Control_c, 0, 64, 27
1, 191629, Control_c, 0, 64, 21
1, 191629, Control_c, 0, 67, 93
1, 191644, Control_c, 0, 64, 11
1, 191659, Control_c, 0, 64, 0
1, 192067, Control_c, 0, 67, 92
1, 192097, Control_c, 0, 67, 92
1, 192171, Control_c, 0, 67, 91
1, 192260, Control_c, 0, 67, 91
1, 192289, Control_c, 0, 67, 90
1, 192348, Control_c, 0, 64, 9
1, 192348, Control_c, 0, 67, 90
1, 192363, Control_c, 0, 64, 10
1, 192378, Control_c, 0, 64, 11
1, 192393, Control_c, 0, 64, 12
1, 192408, Control_c, 0, 64, 14
1, 192408, Control_c, 0, 67, 89
1, 192422, Control_c, 0, 64, 14
1, 192437, Control_c, 0, 64, 15
1, 192452, Control_c, 0, 64, 15
1, 192458, Note_on_c, 0, 68, 36
1, 192474, Note_on_c, 0, 65, 19
1, 192515, Note_off_c, 0, 65, 53
1, 192517, Note_off_c, 0, 68, 43
1, 192571, Control_c, 0, 64, 16
1, 192626, Note_on_c, 0, 68, 52
1, 192628, Note_on_c, 0, 65, 43
1, 192673, Note_off_c, 0, 68, 59
1, 192675, Note_off_c, 0, 65, 60
1, 192726, Control_c, 0, 67, 89
1, 192811, Note_on_c, 0, 68, 54
1, 192816, Note_on_c, 0, 65, 48
1, 192860, Control_c, 0, 64, 16
1, 192863, Note_off_c, 0, 65, 59
1, 192865, Note_off_c, 0, 68, 56
1, 192905, Control_c, 0, 64, 17
1, 192934, Control_c, 0, 64, 17
1, 192949, Control_c, 0, 64, 18
1, 192964, Control_c, 0, 67, 88
1, 192978, Control_c, 0, 64, 18
1, 192993, Control_c, 0, 64, 19
1, 192993, Control_c, 0, 67, 88
1, 193008, Control_c, 0, 64, 20
1, 193023, Control_c, 0, 64, 22
1, 193023, Control_c, 0, 67, 87
1, 193028, Note_on_c, 0, 68, 48
1, 193037, Control_c, 0, 64, 23
1, 193037, Control_c, 0, 67, 87
1, 193039, Note_on_c, 0, 65, 44
1, 193052, Control_c, 0, 64, 24
1, 193052, Control_c, 0, 67, 86
1, 193067, Control_c, 0, 64, 25
1, 193067, Control_c, 0, 67, 86
1, 193082, Control_c, 0, 64, 27
1, 193082, Control_c, 0, 67, 85
1, 193097, Control_c, 0, 64, 28
1, 193097, Control_c, 0, 67, 84
1, 193111, Control_c, 0, 64, 29
1, 193111, Control_c, 0, 67, 83
1, 193126, Control_c, 0, 64, 30
1, 193126, Control_c, 0, 67, 82
1, 193141, Control_c, 0, 64, 32
1, 193141, Control_c, 0, 67, 81
1, 193156, Control_c, 0, 64, 33
1, 193156, Control_c, 0, 67, 80
1, 193170, Control_c, 0, 64, 35
1, 193170, Control_c, 0, 67, 79
1, 193185, Control_c, 0, 64, 36
1, 193185, Control_c, 0, 67, 78
1, 193200, Control_c, 0, 64, 37
1, 193200, Control_c, 0, 67, 77
1, 193215, Control_c, 0, 67, 75
1, 193230, Control_c, 0, 64, 37
1, 193230, Control_c, 0, 67, 71
1, 193245, Control_c, 0, 67, 67
1, 193260, Control_c, 0, 67, 62
1, 193275, Control_c, 0, 67, 57
1, 193289, Control_c, 0, 67, 52
1, 193304, Control_c, 0, 67, 47
1, 193319, Control_c, 0, 67, 42
1, 193334, Control_c, 0, 67, 37
1, 193349, Control_c, 0, 64, 37
1, 193349, Control_c, 0, 67, 31
1, 193363, Control_c, 0, 67, 27
1, 193378, Control_c, 0, 67, 24
1, 193393, Control_c, 0, 64, 36
1, 193393, Control_c, 0, 67, 22
1, 193408, Control_c, 0, 67, 20
1, 193423, Control_c, 0, 67, 19
1, 193445, Control_c, 0, 64, 36
1, 193445, Control_c, 0, 67, 18
1, 193459, Control_c, 0, 67, 17
1, 193474, Control_c, 0, 67, 15
1, 193489, Control_c, 0, 64, 35
1, 193489, Control_c, 0, 67, 14
1, 193504, Control_c, 0, 67, 12
1, 193519, Control_c, 0, 67, 11
1, 193534, Control_c, 0, 64, 35
1, 193534, Control_c, 0, 67, 10
1, 193549, Control_c, 0, 67, 9
1, 193564, Control_c, 0, 67, 8
1, 193569, Note_on_c, 0, 61, 46
1, 193579, Control_c, 0, 67, 0
1, 193594, Control_c, 0, 64, 34
1, 193606, Note_off_c, 0, 61, 64
1, 193638, Control_c, 0, 64, 34
1, 193743, Note_on_c, 0, 61, 51
1, 193784, Note_off_c, 0, 61, 65
1, 193801, Control_c, 0, 64, 34
1, 193861, Control_c, 0, 64, 35
1, 193930, Note_on_c, 0, 61, 53
1, 193970, Note_off_c, 0, 61, 64
1, 194023, Control_c, 0, 64, 34
1, 194053, Control_c, 0, 64, 34
1, 194068, Control_c, 0, 64, 33
1, 194082, Control_c, 0, 64, 32
1, 194097, Control_c, 0, 64, 31
1, 194112, Control_c, 0, 64, 30
1, 194127, Control_c, 0, 64, 29
1, 194142, Control_c, 0, 64, 28
1, 194148, Note_on_c, 0, 61, 55
1, 194157, Control_c, 0, 64, 27
1, 194172, Control_c, 0, 64, 26
1, 194193, Control_c, 0, 64, 24
1, 194208, Control_c, 0, 64, 22
1, 194223, Control_c, 0, 64, 18
1, 194238, Control_c, 0, 64, 17
1, 194253, Control_c, 0, 64, 16
1, 194282, Control_c, 0, 64, 16
1, 194327, Control_c, 0, 64, 16
1, 194342, Control_c, 0, 64, 17
1, 194357, Control_c, 0, 64, 19
1, 194372, Control_c, 0, 64, 20
1, 194387, Control_c, 0, 64, 22
1, 194402, Control_c, 0, 64, 24
1, 194416, Control_c, 0, 64, 26
1, 194431, Control_c, 0, 64, 27
1, 194446, Control_c, 0, 64, 28
1, 194461, Control_c, 0, 64, 28
1, 194491, Note_off_c, 0, 68, 48
1, 194503, Note_off_c, 0, 65, 46
1, 194654, Control_c, 0, 64, 28
1, 194669, Control_c, 0, 64, 27
1, 194684, Control_c, 0, 64, 26
1, 194698, Control_c, 0, 64, 23
1, 194713, Control_c, 0, 64, 20
1, 194728, Control_c, 0, 64, 18
1, 194732, Note_on_c, 0, 67, 57
1, 194742, Control_c, 0, 64, 15
1, 194749, Note_on_c, 0, 68, 67
1, 194753, Note_on_c, 0, 65, 53
1, 194756, Note_off_c, 0, 67, 65
1, 194757, Control_c, 0, 64, 13
1, 194772, Control_c, 0, 64, 8
1, 194787, Note_off_c, 0, 65, 63
1, 194787, Control_c, 0, 64, 0
1, 194793, Note_off_c, 0, 68, 58
1, 194911, Note_on_c, 0, 68, 58
1, 194914, Note_on_c, 0, 65, 54
1, 194920, Note_on_c, 0, 67, 54
1, 194952, Note_off_c, 0, 67, 59
1, 194958, Note_off_c, 0, 65, 61
1, 194971, Note_off_c, 0, 68, 61
1, 195088, Note_on_c, 0, 67, 56
1, 195102, Note_on_c, 0, 68, 69
1, 195108, Note_on_c, 0, 65, 47
1, 195111, Note_off_c, 0, 67, 62
1, 195134, Note_off_c, 0, 65, 61
1, 195139, Note_off_c, 0, 68, 57
1, 195278, Note_on_c, 0, 67, 67
1, 195284, Note_on_c, 0, 68, 71
1, 195290, Note_on_c, 0, 65, 59
1, 195314, Note_off_c, 0, 67, 59
1, 195387, Control_c, 0, 64, 12
1, 195402, Control_c, 0, 64, 18
1, 195417, Control_c, 0, 64, 21
1, 195432, Control_c, 0, 64, 24
1, 195446, Control_c, 0, 64, 26
1, 195461, Control_c, 0, 64, 27
1, 195476, Control_c, 0, 64, 28
1, 195501, Note_off_c, 0, 61, 64
1, 195505, Control_c, 0, 64, 28
1, 195579, Control_c, 0, 64, 28
1, 195609, Control_c, 0, 64, 27
1, 195624, Control_c, 0, 64, 27
1, 195638, Control_c, 0, 64, 26
1, 195653, Control_c, 0, 64, 26
1, 195668, Control_c, 0, 64, 25
1, 195690, Control_c, 0, 64, 25
1, 195705, Control_c, 0, 64, 24
1, 195735, Control_c, 0, 64, 24
1, 195750, Control_c, 0, 64, 23
1, 195764, Control_c, 0, 64, 22
1, 195779, Control_c, 0, 64, 18
1, 195794, Control_c, 0, 64, 0
1, 195798, Note_on_c, 0, 48, 84
1, 195823, Note_off_c, 0, 48, 70
1, 195832, Note_on_c, 0, 49, 66
1, 195854, Note_off_c, 0, 49, 63
1, 195972, Note_on_c, 0, 48, 80
1, 195978, Note_on_c, 0, 49, 72
1, 195996, Note_off_c, 0, 48, 67
1, 196014, Note_off_c, 0, 49, 67
1, 196124, Note_on_c, 0, 48, 75
1, 196132, Note_on_c, 0, 49, 88
1, 196153, Note_off_c, 0, 48, 69
1, 196175, Note_off_c, 0, 49, 65
1, 196306, Note_on_c, 0, 48, 95
1, 196325, Note_on_c, 0, 49, 94
1, 196356, Note_off_c, 0, 48, 67
1, 196611, Note_off_c, 0, 68, 27
1, 196667, Note_on_c, 0, 48, 93
1, 196703, Note_off_c, 0, 49, 58
1, 196711, Note_off_c, 0, 65, 65
1, 196750, Control_c, 0, 64, 11
1, 196766, Control_c, 0, 64, 20
1, 196781, Control_c, 0, 64, 28
1, 196796, Control_c, 0, 64, 35
1, 196810, Control_c, 0, 64, 40
1, 196825, Control_c, 0, 64, 44
1, 196840, Control_c, 0, 64, 46
1, 196855, Control_c, 0, 64, 48
1, 196870, Control_c, 0, 64, 48
1, 196929, Control_c, 0, 64, 46
1, 196944, Control_c, 0, 64, 39
1, 196959, Control_c, 0, 64, 18
1, 196974, Control_c, 0, 64, 0
1, 196998, Note_on_c, 0, 47, 86
1, 197007, Note_on_c, 0, 69, 87
1, 197011, Note_on_c, 0, 63, 86
1, 197014, Note_off_c, 0, 48, 65
1, 197024, Note_on_c, 0, 66, 68
1, 197033, Control_c, 0, 64, 15
1, 197034, Note_off_c, 0, 47, 66
1, 197048, Control_c, 0, 64, 31
1, 197051, Note_off_c, 0, 66, 66
1, 197060, Note_off_c, 0, 63, 65
1, 197063, Control_c, 0, 64, 42
1, 197077, Control_c, 0, 64, 52
1, 197083, Note_off_c, 0, 69, 65
1, 197092, Control_c, 0, 64, 59
1, 197107, Control_c, 0, 64, 62
1, 197122, Control_c, 0, 64, 64
1, 197136, Control_c, 0, 64, 64
1, 197233, Control_c, 0, 64, 64
1, 197248, Control_c, 0, 64, 63
1, 197263, Control_c, 0, 64, 62
1, 197266, Note_on_c, 0, 46, 64
1, 197278, Control_c, 0, 64, 61
1, 197293, Control_c, 0, 64, 60
1, 197308, Control_c, 0, 64, 58
1, 197323, Control_c, 0, 64, 54
1, 197337, Control_c, 0, 64, 45
1, 197345, Note_on_c, 0, 51, 81
1, 197352, Note_on_c, 0, 70, 95
1, 197352, Control_c, 0, 64, 23
1, 197358, Note_on_c, 0, 55, 88
1, 197361, Note_on_c, 0, 63, 84
1, 197362, Note_on_c, 0, 67, 79
1, 197367, Control_c, 0, 64, 0
1, 197515, Control_c, 0, 64, 19
1, 197530, Control_c, 0, 64, 31
1, 197544, Control_c, 0, 64, 40
1, 197560, Control_c, 0, 64, 50
1, 197575, Control_c, 0, 64, 57
1, 197590, Control_c, 0, 64, 61
1, 197605, Control_c, 0, 64, 64
1, 197618, Note_off_c, 0, 63, 65
1, 197620, Control_c, 0, 64, 65
1, 197634, Control_c, 0, 64, 66
1, 197649, Control_c, 0, 64, 67
1, 197664, Control_c, 0, 64, 69
1, 197679, Control_c, 0, 64, 72
1, 197693, Control_c, 0, 64, 74
1, 197708, Control_c, 0, 64, 75
1, 197723, Control_c, 0, 64, 75
1, 197734, Note_off_c, 0, 70, 54
1, 197743, Note_off_c, 0, 67, 11
1, 197782, Control_c, 0, 64, 75
1, 197826, Control_c, 0, 64, 74
1, 197830, Note_on_c, 0, 72, 83
1, 197841, Control_c, 0, 64, 74
1, 197868, Note_off_c, 0, 46, 33
1, 197896, Note_on_c, 0, 70, 83
1, 197901, Control_c, 0, 64, 73
1, 197907, Note_off_c, 0, 55, 61
1, 197916, Control_c, 0, 64, 73
1, 197937, Note_off_c, 0, 72, 62
1, 197953, Control_c, 0, 64, 72
1, 197967, Control_c, 0, 64, 71
1, 197978, Note_on_c, 0, 68, 82
1, 197982, Control_c, 0, 64, 71
1, 197997, Control_c, 0, 64, 70
1, 198012, Control_c, 0, 64, 68
1, 198022, Note_off_c, 0, 70, 65
1, 198027, Control_c, 0, 64, 66
1, 198041, Control_c, 0, 64, 64
1, 198042, Note_on_c, 0, 67, 82
1, 198056, Control_c, 0, 64, 62
1, 198066, Note_off_c, 0, 68, 61
1, 198071, Control_c, 0, 64, 60
1, 198086, Control_c, 0, 64, 57
1, 198100, Note_off_c, 0, 67, 63
1, 198101, Control_c, 0, 64, 55
1, 198103, Note_on_c, 0, 65, 87
1, 198116, Control_c, 0, 64, 51
1, 198130, Control_c, 0, 64, 45
1, 198145, Control_c, 0, 64, 38
1, 198156, Note_off_c, 0, 65, 56
1, 198160, Control_c, 0, 64, 31
1, 198167, Note_on_c, 0, 63, 89
1, 198175, Control_c, 0, 64, 24
1, 198190, Control_c, 0, 64, 19
1, 198205, Control_c, 0, 64, 11
1, 198220, Control_c, 0, 64, 0
1, 198241, Note_off_c, 0, 51, 43
1, 198243, Note_on_c, 0, 56, 72
1, 198244, Note_on_c, 0, 53, 66
1, 198248, Note_on_c, 0, 62, 95
1, 198252, Note_on_c, 0, 46, 58
1, 198284, Note_off_c, 0, 63, 57
1, 198546, Control_c, 0, 64, 13
1, 198561, Control_c, 0, 64, 24
1, 198576, Control_c, 0, 64, 32
1, 198590, Control_c, 0, 64, 39
1, 198605, Control_c, 0, 64, 46
1, 198620, Control_c, 0, 64, 52
1, 198635, Control_c, 0, 64, 56
1, 198650, Control_c, 0, 64, 58
1, 198664, Control_c, 0, 64, 58
1, 198687, Control_c, 0, 64, 58
1, 198698, Note_off_c, 0, 62, 55
1, 198702, Control_c, 0, 64, 57
1, 198711, Note_on_c, 0, 67, 67
1, 198716, Control_c, 0, 64, 56
1, 198731, Control_c, 0, 64, 54
1, 198746, Control_c, 0, 64, 51
1, 198751, Note_on_c, 0, 65, 75
1, 198761, Control_c, 0, 64, 47
1, 198769, Note_off_c, 0, 67, 63
1, 198776, Control_c, 0, 64, 38
1, 198790, Control_c, 0, 64, 21
1, 198801, Note_on_c, 0, 64, 65
1, 198801, Note_off_c, 0, 65, 65
1, 198805, Control_c, 0, 64, 0
1, 198851, Note_on_c, 0, 65, 75
1, 198864, Control_c, 0, 64, 17
1, 198879, Control_c, 0, 64, 25
1, 198894, Control_c, 0, 64, 32
1, 198899, Note_off_c, 0, 46, 53
1, 198909, Control_c, 0, 64, 41
1, 198920, Note_on_c, 0, 68, 82
1, 198923, Control_c, 0, 64, 48
1, 198936, Note_off_c, 0, 64, 50
1, 198938, Control_c, 0, 64, 53
1, 198941, Note_off_c, 0, 53, 62
1, 198948, Note_off_c, 0, 65, 66
1, 198953, Control_c, 0, 64, 55
1, 198968, Control_c, 0, 64, 57
1, 198983, Control_c, 0, 64, 58
1, 199013, Control_c, 0, 64, 57
1, 199028, Control_c, 0, 64, 57
1, 199042, Control_c, 0, 64, 56
1, 199057, Control_c, 0, 64, 56
1, 199072, Control_c, 0, 64, 55
1, 199072, Note_on_c, 0, 62, 77
1, 199080, Note_off_c, 0, 68, 61
1, 199087, Control_c, 0, 64, 53
1, 199102, Control_c, 0, 64, 52
1, 199116, Control_c, 0, 64, 50
1, 199131, Control_c, 0, 64, 49
1, 199146, Control_c, 0, 64, 48
1, 199162, Control_c, 0, 64, 47
1, 199177, Control_c, 0, 64, 44
1, 199192, Control_c, 0, 64, 41
1, 199206, Control_c, 0, 64, 39
1, 199215, Note_off_c, 0, 56, 31
1, 199221, Control_c, 0, 64, 36
1, 199236, Control_c, 0, 64, 34
1, 199242, Note_on_c, 0, 51, 46
1, 199247, Note_on_c, 0, 63, 63
1, 199251, Note_off_c, 0, 62, 59
1, 199251, Control_c, 0, 64, 31
1, 199266, Control_c, 0, 64, 26
1, 199280, Control_c, 0, 64, 19
1, 199295, Control_c, 0, 64, 0
1, 199414, Note_on_c, 0, 55, 51
1, 199420, Note_on_c, 0, 58, 54
1, 199567, Note_on_c, 0, 56, 69
1, 199580, Note_on_c, 0, 59, 62
1, 199592, Note_off_c, 0, 58, 57
1, 199637, Note_off_c, 0, 63, 37
1, 199729, Note_on_c, 0, 57, 67
1, 199736, Note_on_c, 0, 60, 73
1, 199746, Note_off_c, 0, 56, 63
1, 199773, Note_off_c, 0, 55, 31
1, 199794, Note_off_c, 0, 59, 55
1, 199896, Note_on_c, 0, 61, 77
1, 199902, Note_on_c, 0, 58, 70
1, 199941, Note_off_c, 0, 60, 64
1, 199946, Note_off_c, 0, 57, 61
1, 200051, Note_on_c, 0, 59, 72
1, 200059, Note_off_c, 0, 61, 65
1, 200060, Note_on_c, 0, 62, 75
1, 200091, Note_off_c, 0, 58, 62
1, 200209, Note_on_c, 0, 60, 60
1, 200219, Note_on_c, 0, 63, 62
1, 200219, Note_off_c, 0, 62, 59
1, 200231, Note_off_c, 0, 59, 60
1, 200366, Note_off_c, 0, 63, 61
1, 200384, Note_on_c, 0, 64, 57
1, 200390, Note_off_c, 0, 60, 55
1, 200393, Note_on_c, 0, 58, 50
1, 200557, Note_on_c, 0, 56, 45
1, 200562, Note_on_c, 0, 65, 52
1, 200566, Note_off_c, 0, 64, 52
1, 200611, Note_off_c, 0, 58, 36
1, 200690, Note_off_c, 0, 56, 61
1, 200703, Note_on_c, 0, 55, 51
1, 200705, Note_off_c, 0, 65, 62
1, 200710, Note_on_c, 0, 67, 53
1, 200834, Note_off_c, 0, 51, 38
1, 200870, Note_off_c, 0, 55, 53
1, 200877, Note_on_c, 0, 53, 46
1, 200878, Note_off_c, 0, 67, 56
1, 200879, Note_on_c, 0, 68, 57
1, 201019, Note_off_c, 0, 53, 63
1, 201023, Note_off_c, 0, 68, 57
1, 201043, Note_on_c, 0, 56, 54
1, 201069, Note_on_c, 0, 62, 39
1, 201173, Note_off_c, 0, 56, 60
1, 201210, Note_on_c, 0, 55, 45
1, 201217, Note_on_c, 0, 63, 70
1, 201227, Note_off_c, 0, 62, 64
1, 201233, Note_on_c, 0, 51, 45
1, 201243, Note_off_c, 0, 63, 71
1, 201386, Note_on_c, 0, 70, 63
1, 201387, Note_on_c, 0, 67, 59
1, 201546, Note_on_c, 0, 72, 70
1, 201548, Note_off_c, 0, 70, 61
1, 201554, Note_off_c, 0, 67, 58
1, 201565, Note_on_c, 0, 68, 56
1, 201576, Note_off_c, 0, 55, 53
1, 201593, Note_off_c, 0, 51, 48
1, 201651, Note_off_c, 0, 68, 61
1, 201712, Note_on_c, 0, 70, 73
1, 201717, Note_on_c, 0, 67, 70
1, 201755, Note_off_c, 0, 72, 57
1, 201882, Note_off_c, 0, 67, 62
1, 201883, Note_on_c, 0, 68, 78
1, 201888, Note_on_c, 0, 65, 72
1, 201907, Note_off_c, 0, 70, 58
1, 201952, Note_off_c, 0, 68, 59
1, 202038, Note_on_c, 0, 67, 85
1, 202052, Note_on_c, 0, 63, 73
1, 202056, Note_off_c, 0, 65, 62
1, 202149, Note_off_c, 0, 63, 62
1, 202195, Note_on_c, 0, 65, 80
1, 202196, Note_on_c, 0, 58, 94
1, 202198, Note_on_c, 0, 62, 76
1, 202202, Note_on_c, 0, 46, 85
1, 202205, Note_off_c, 0, 67, 58
1, 202227, Note_off_c, 0, 58, 65
1, 202231, Note_off_c, 0, 46, 69
1, 202352, Note_on_c, 0, 57, 88
1, 202360, Note_on_c, 0, 45, 80
1, 202367, Note_off_c, 0, 62, 62
1, 202380, Note_off_c, 0, 65, 65
1, 202382, Note_off_c, 0, 57, 64
1, 202388, Note_off_c, 0, 45, 69
1, 202519, Note_on_c, 0, 56, 95
1, 202523, Note_on_c, 0, 44, 88
1, 202557, Note_off_c, 0, 56, 67
1, 202566, Note_off_c, 0, 44, 59
1, 202675, Note_on_c, 0, 55, 92
1, 202680, Note_on_c, 0, 43, 88
1, 202724, Note_off_c, 0, 55, 67
1, 202735, Note_off_c, 0, 43, 63
1, 202837, Note_on_c, 0, 53, 95
1, 202839, Note_on_c, 0, 74, 95
1, 202840, Note_on_c, 0, 65, 85
1, 202841, Note_on_c, 0, 68, 86
1, 202843, Note_on_c, 0, 41, 88
1, 202866, Note_off_c, 0, 65, 66
1, 202869, Note_off_c, 0, 41, 68
1, 202871, Note_off_c, 0, 53, 70
1, 202871, Note_off_c, 0, 68, 58
1, 202888, Note_off_c, 0, 74, 67
1, 202995, Note_on_c, 0, 58, 103
1, 203000, Note_on_c, 0, 46, 92
1, 203025, Note_off_c, 0, 58, 65
1, 203029, Note_off_c, 0, 46, 68
1, 203198, Note_on_c, 0, 75, 97
1, 203204, Note_on_c, 0, 67, 84
1, 203204, Note_on_c, 0, 70, 80
1, 203207, Note_on_c, 0, 51, 93
1, 203208, Note_on_c, 0, 39, 92
1, 203210, Control_c, 0, 64, 11
1, 203224, Control_c, 0, 64, 31
1, 203225, Note_off_c, 0, 67, 70
1, 203235, Note_off_c, 0, 51, 69
1, 203237, Note_off_c, 0, 39, 67
1, 203239, Control_c, 0, 64, 44
1, 203246, Note_off_c, 0, 70, 57
1, 203253, Control_c, 0, 64, 53
1, 203255, Note_off_c, 0, 75, 63
1, 203268, Control_c, 0, 64, 59
1, 203283, Control_c, 0, 64, 61
1, 203298, Control_c, 0, 64, 62
1, 203342, Control_c, 0, 64, 63
1, 203401, Control_c, 0, 64, 62
1, 203416, Control_c, 0, 64, 62
1, 203445, Control_c, 0, 64, 61
1, 203460, Control_c, 0, 64, 60
1, 203475, Control_c, 0, 64, 58
1, 203490, Control_c, 0, 64, 56
1, 203505, Control_c, 0, 64, 53
1, 203520, Control_c, 0, 64, 50
1, 203535, Control_c, 0, 64, 46
1, 203550, Control_c, 0, 64, 43
1, 203565, Control_c, 0, 64, 39
1, 203579, Control_c, 0, 64, 36
1, 203594, Control_c, 0, 64, 31
1, 203609, Control_c, 0, 64, 27
1, 203623, Control_c, 0, 64, 23
1, 203638, Control_c, 0, 64, 19
1, 203653, Control_c, 0, 64, 15
1, 203668, Control_c, 0, 64, 10
1, 203683, Control_c, 0, 64, 0
1, 203735, Note_on_c, 0, 82, 63
1, 203746, Note_on_c, 0, 79, 51
1, 203771, Control_c, 0, 67, 8
1, 203801, Control_c, 0, 67, 8
1, 203816, Control_c, 0, 67, 9
1, 203845, Control_c, 0, 67, 9
1, 203860, Control_c, 0, 67, 10
1, 203875, Control_c, 0, 67, 11
1, 203890, Control_c, 0, 67, 12
1, 203927, Control_c, 0, 67, 13
1, 203941, Note_off_c, 0, 79, 56
1, 203958, Note_on_c, 0, 84, 67
1, 203964, Note_off_c, 0, 82, 61
1, 203964, Note_on_c, 0, 80, 56
1, 204033, Control_c, 0, 67, 12
1, 204062, Control_c, 0, 67, 12
1, 204077, Control_c, 0, 67, 11
1, 204122, Control_c, 0, 67, 11
1, 204124, Note_on_c, 0, 82, 71
1, 204134, Note_on_c, 0, 79, 68
1, 204136, Control_c, 0, 67, 10
1, 204143, Note_off_c, 0, 80, 46
1, 204181, Control_c, 0, 64, 15
1, 204182, Note_off_c, 0, 84, 55
1, 204196, Control_c, 0, 64, 20
1, 204210, Control_c, 0, 64, 23
1, 204225, Control_c, 0, 64, 25
1, 204240, Control_c, 0, 64, 27
1, 204254, Control_c, 0, 64, 28
1, 204269, Control_c, 0, 64, 29
1, 204307, Note_on_c, 0, 80, 67
1, 204307, Note_off_c, 0, 79, 63
1, 204317, Note_on_c, 0, 77, 63
1, 204328, Control_c, 0, 67, 10
1, 204329, Note_off_c, 0, 82, 58
1, 204343, Control_c, 0, 64, 28
1, 204358, Control_c, 0, 64, 27
1, 204373, Control_c, 0, 64, 26
1, 204381, Note_off_c, 0, 80, 62
1, 204388, Control_c, 0, 64, 25
1, 204402, Control_c, 0, 64, 23
1, 204417, Control_c, 0, 64, 22
1, 204447, Control_c, 0, 64, 22
1, 204462, Control_c, 0, 64, 21
1, 204469, Note_off_c, 0, 77, 59
1, 204473, Note_on_c, 0, 79, 50
1, 204477, Control_c, 0, 64, 21
1, 204492, Control_c, 0, 64, 20
1, 204506, Note_on_c, 0, 75, 41
1, 204521, Control_c, 0, 64, 20
1, 204551, Control_c, 0, 64, 19
1, 204566, Control_c, 0, 64, 19
1, 204569, Note_off_c, 0, 75, 38
1, 204581, Control_c, 0, 64, 18
1, 204595, Control_c, 0, 64, 17
1, 204610, Control_c, 0, 64, 16
1, 204625, Control_c, 0, 64, 15
1, 204640, Control_c, 0, 64, 14
1, 204645, Note_on_c, 0, 77, 55
1, 204654, Note_off_c, 0, 79, 62
1, 204654, Control_c, 0, 64, 13
1, 204659, Note_on_c, 0, 74, 38
1, 204677, Control_c, 0, 64, 11
1, 204691, Control_c, 0, 64, 8
1, 204706, Control_c, 0, 64, 0
1, 204829, Note_on_c, 0, 70, 37
1, 204900, Control_c, 0, 67, 9
1, 204945, Control_c, 0, 67, 9
1, 204975, Note_off_c, 0, 70, 43
1, 204996, Note_on_c, 0, 72, 45
1, 205092, Control_c, 0, 67, 8
1, 205107, Control_c, 0, 67, 8
1, 205137, Control_c, 0, 67, 0
1, 205147, Note_on_c, 0, 70, 59
1, 205209, Note_off_c, 0, 72, 31
1, 205261, Note_off_c, 0, 74, 41
1, 205305, Note_on_c, 0, 79, 60
1, 205305, Note_off_c, 0, 77, 54
1, 205323, Note_on_c, 0, 68, 50
1, 205328, Note_on_c, 0, 76, 45
1, 205334, Note_off_c, 0, 70, 51
1, 205440, Control_c, 0, 64, 11
1, 205455, Control_c, 0, 64, 15
1, 205470, Control_c, 0, 64, 18
1, 205481, Note_off_c, 0, 68, 60
1, 205484, Control_c, 0, 64, 20
1, 205489, Note_on_c, 0, 67, 59
1, 205499, Control_c, 0, 64, 21
1, 205574, Control_c, 0, 64, 20
1, 205589, Control_c, 0, 64, 19
1, 205604, Control_c, 0, 64, 17
1, 205609, Note_off_c, 0, 76, 42
1, 205619, Control_c, 0, 64, 15
1, 205634, Control_c, 0, 64, 14
1, 205648, Note_on_c, 0, 80, 75
1, 205663, Control_c, 0, 64, 14
1, 205669, Note_off_c, 0, 67, 55
1, 205672, Note_on_c, 0, 77, 53
1, 205675, Note_on_c, 0, 65, 52
1, 205693, Control_c, 0, 64, 12
1, 205697, Note_off_c, 0, 79, 54
1, 205708, Control_c, 0, 64, 11
1, 205723, Control_c, 0, 64, 11
1, 205797, Control_c, 0, 64, 10
1, 205809, Note_off_c, 0, 77, 42
1, 205812, Control_c, 0, 64, 10
1, 205823, Note_on_c, 0, 68, 66
1, 205826, Control_c, 0, 64, 9
1, 205841, Control_c, 0, 64, 8
1, 205856, Control_c, 0, 64, 0
1, 205919, Note_off_c, 0, 65, 60
1, 205988, Note_on_c, 0, 75, 71
1, 205989, Control_c, 0, 64, 10
1, 205996, Note_on_c, 0, 70, 67
1, 206004, Control_c, 0, 64, 15
1, 206005, Note_on_c, 0, 72, 54
1, 206018, Control_c, 0, 64, 18
1, 206023, Note_off_c, 0, 68, 43
1, 206033, Control_c, 0, 64, 21
1, 206048, Control_c, 0, 64, 24
1, 206063, Control_c, 0, 64, 26
1, 206078, Control_c, 0, 64, 27
1, 206092, Control_c, 0, 64, 28
1, 206131, Note_on_c, 0, 68, 71
1, 206143, Note_off_c, 0, 72, 55
1, 206152, Control_c, 0, 64, 27
1, 206174, Control_c, 0, 64, 26
1, 206189, Control_c, 0, 64, 25
1, 206197, Note_off_c, 0, 80, 36
1, 206204, Control_c, 0, 64, 23
1, 206219, Control_c, 0, 64, 23
1, 206233, Control_c, 0, 64, 22
1, 206245, Note_off_c, 0, 70, 36
1, 206248, Control_c, 0, 64, 22
1, 206263, Control_c, 0, 64, 20
1, 206278, Control_c, 0, 64, 17
1, 206292, Control_c, 0, 64, 0
1, 206311, Note_on_c, 0, 77, 82
1, 206320, Note_on_c, 0, 67, 64
1, 206326, Note_on_c, 0, 74, 61
1, 206331, Note_off_c, 0, 68, 57
1, 206363, Note_off_c, 0, 75, 60
1, 206456, Control_c, 0, 64, 17
1, 206459, Note_off_c, 0, 74, 58
1, 206462, Note_on_c, 0, 65, 74
1, 206471, Control_c, 0, 64, 26
1, 206476, Note_off_c, 0, 67, 57
1, 206486, Control_c, 0, 64, 32
1, 206501, Control_c, 0, 64, 36
1, 206516, Control_c, 0, 64, 39
1, 206522, Note_off_c, 0, 77, 60
1, 206531, Control_c, 0, 64, 40
1, 206546, Control_c, 0, 64, 41
1, 206575, Control_c, 0, 64, 40
1, 206590, Control_c, 0, 64, 39
1, 206605, Control_c, 0, 64, 37
1, 206620, Control_c, 0, 64, 34
1, 206626, Note_on_c, 0, 63, 59
1, 206632, Note_off_c, 0, 65, 63
1, 206635, Control_c, 0, 64, 28
1, 206641, Note_on_c, 0, 79, 77
1, 206649, Note_on_c, 0, 75, 70
1, 206649, Control_c, 0, 64, 12
1, 206664, Control_c, 0, 64, 0
1, 206797, Control_c, 0, 64, 19
1, 206800, Note_on_c, 0, 77, 80
1, 206804, Note_on_c, 0, 70, 81
1, 206807, Note_on_c, 0, 74, 68
1, 206812, Control_c, 0, 64, 26
1, 206819, Note_off_c, 0, 75, 60
1, 206824, Note_off_c, 0, 79, 62
1, 206827, Control_c, 0, 64, 31
1, 206832, Note_off_c, 0, 74, 67
1, 206841, Control_c, 0, 64, 35
1, 206856, Control_c, 0, 64, 37
1, 206864, Note_off_c, 0, 77, 63
1, 206871, Control_c, 0, 64, 38
1, 206901, Control_c, 0, 64, 38
1, 206923, Control_c, 0, 64, 35
1, 206938, Control_c, 0, 64, 26
1, 206953, Control_c, 0, 64, 0
1, 206972, Note_on_c, 0, 80, 89
1, 206979, Note_on_c, 0, 72, 64
1, 206986, Note_on_c, 0, 75, 81
1, 207020, Note_off_c, 0, 70, 56
1, 207070, Control_c, 0, 64, 20
1, 207085, Control_c, 0, 64, 28
1, 207095, Note_off_c, 0, 63, 47
1, 207100, Control_c, 0, 64, 33
1, 207109, Note_off_c, 0, 80, 62
1, 207112, Note_off_c, 0, 75, 60
1, 207115, Control_c, 0, 64, 38
1, 207123, Note_off_c, 0, 72, 58
1, 207130, Control_c, 0, 64, 41
1, 207139, Note_on_c, 0, 79, 72
1, 207142, Note_on_c, 0, 70, 68
1, 207145, Control_c, 0, 64, 43
1, 207146, Note_on_c, 0, 74, 66
1, 207160, Control_c, 0, 64, 44
1, 207186, Note_off_c, 0, 79, 58
1, 207188, Note_off_c, 0, 74, 60
1, 207190, Control_c, 0, 64, 43
1, 207205, Control_c, 0, 64, 42
1, 207219, Control_c, 0, 64, 41
1, 207234, Control_c, 0, 64, 39
1, 207249, Control_c, 0, 64, 33
1, 207264, Control_c, 0, 64, 22
1, 207279, Control_c, 0, 64, 0
1, 207287, Note_on_c, 0, 77, 73
1, 207288, Note_off_c, 0, 70, 55
1, 207300, Note_on_c, 0, 68, 53
1, 207305, Note_on_c, 0, 72, 58
1, 207409, Note_off_c, 0, 77, 60
1, 207413, Control_c, 0, 64, 16
1, 207427, Control_c, 0, 64, 24
1, 207430, Note_on_c, 0, 75, 67
1, 207442, Note_off_c, 0, 72, 59
1, 207442, Control_c, 0, 64, 28
1, 207443, Note_off_c, 0, 68, 60
1, 207447, Note_on_c, 0, 70, 60
1, 207457, Control_c, 0, 64, 31
1, 207459, Note_on_c, 0, 67, 65
1, 207471, Control_c, 0, 64, 34
1, 207486, Control_c, 0, 64, 37
1, 207495, Note_off_c, 0, 75, 59
1, 207501, Control_c, 0, 64, 38
1, 207503, Note_off_c, 0, 70, 60
1, 207513, Note_off_c, 0, 67, 63
1, 207545, Control_c, 0, 64, 37
1, 207560, Control_c, 0, 64, 35
1, 207575, Control_c, 0, 64, 32
1, 207589, Control_c, 0, 64, 25
1, 207598, Note_on_c, 0, 65, 56
1, 207602, Note_on_c, 0, 74, 64
1, 207604, Control_c, 0, 64, 0
1, 207618, Note_on_c, 0, 68, 56
1, 207753, Note_off_c, 0, 74, 58
1, 207760, Control_c, 0, 64, 22
1, 207762, Note_off_c, 0, 68, 59
1, 207767, Note_off_c, 0, 65, 64
1, 207768, Note_on_c, 0, 72, 66
1, 207769, Note_on_c, 0, 63, 69
1, 207775, Control_c, 0, 64, 29
1, 207790, Control_c, 0, 64, 37
1, 207793, Note_on_c, 0, 67, 47
1, 207798, Note_off_c, 0, 63, 69
1, 207798, Note_off_c, 0, 72, 64
1, 207804, Control_c, 0, 64, 41
1, 207819, Control_c, 0, 64, 44
1, 207834, Control_c, 0, 64, 46
1, 207854, Note_off_c, 0, 67, 59
1, 207864, Control_c, 0, 64, 44
1, 207878, Control_c, 0, 64, 42
1, 207893, Control_c, 0, 64, 38
1, 207908, Control_c, 0, 64, 35
1, 207923, Control_c, 0, 64, 29
1, 207927, Note_on_c, 0, 70, 64
1, 207929, Note_on_c, 0, 62, 74
1, 207939, Control_c, 0, 64, 20
1, 207948, Note_on_c, 0, 65, 52
1, 207954, Control_c, 0, 64, 0
1, 208094, Note_on_c, 0, 61, 71
1, 208102, Control_c, 0, 64, 16
1, 208115, Note_off_c, 0, 62, 62
1, 208117, Control_c, 0, 64, 24
1, 208131, Control_c, 0, 64, 29
1, 208146, Control_c, 0, 64, 31
1, 208149, Note_off_c, 0, 61, 65
1, 208161, Control_c, 0, 64, 32
1, 208191, Control_c, 0, 64, 32
1, 208206, Control_c, 0, 64, 31
1, 208220, Control_c, 0, 64, 28
1, 208235, Control_c, 0, 64, 22
1, 208250, Control_c, 0, 64, 0
1, 208273, Note_on_c, 0, 69, 62
1, 208282, Note_on_c, 0, 60, 59
1, 208294, Note_on_c, 0, 63, 42
1, 208301, Note_off_c, 0, 65, 45
1, 208424, Note_off_c, 0, 70, 31
1, 208432, Note_off_c, 0, 60, 55
1, 208450, Control_c, 0, 64, 19
1, 208465, Control_c, 0, 64, 28
1, 208471, Note_on_c, 0, 59, 43
1, 208480, Control_c, 0, 64, 34
1, 208494, Control_c, 0, 64, 38
1, 208509, Control_c, 0, 64, 41
1, 208510, Note_off_c, 0, 59, 59
1, 208524, Control_c, 0, 64, 44
1, 208539, Control_c, 0, 64, 46
1, 208554, Control_c, 0, 64, 46
1, 208558, Note_off_c, 0, 63, 41
1, 208568, Control_c, 0, 64, 46
1, 208583, Control_c, 0, 64, 45
1, 208598, Control_c, 0, 64, 44
1, 208613, Control_c, 0, 64, 43
1, 208627, Control_c, 0, 64, 42
1, 208642, Control_c, 0, 64, 41
1, 208657, Control_c, 0, 64, 38
1, 208672, Control_c, 0, 64, 35
1, 208687, Control_c, 0, 64, 31
1, 208701, Control_c, 0, 64, 28
1, 208716, Control_c, 0, 64, 25
1, 208731, Control_c, 0, 64, 22
1, 208743, Note_on_c, 0, 68, 43
1, 208747, Control_c, 0, 64, 16
1, 208762, Control_c, 0, 64, 0
1, 208764, Note_on_c, 0, 58, 35
1, 208766, Note_on_c, 0, 62, 34
1, 208794, Note_off_c, 0, 69, 42
1, 209303, Control_c, 0, 67, 8
1, 209317, Control_c, 0, 67, 8
1, 209332, Control_c, 0, 67, 9
1, 209347, Control_c, 0, 67, 10
1, 209362, Control_c, 0, 67, 11
1, 209376, Control_c, 0, 64, 16
1, 209376, Control_c, 0, 67, 12
1, 209391, Control_c, 0, 64, 22
1, 209391, Control_c, 0, 67, 14
1, 209406, Control_c, 0, 64, 26
1, 209406, Control_c, 0, 67, 15
1, 209421, Control_c, 0, 64, 31
1, 209421, Control_c, 0, 67, 17
1, 209436, Control_c, 0, 64, 34
1, 209436, Control_c, 0, 67, 20
1, 209450, Control_c, 0, 64, 37
1, 209450, Control_c, 0, 67, 22
1, 209465, Control_c, 0, 64, 40
1, 209465, Control_c, 0, 67, 25
1, 209480, Control_c, 0, 64, 42
1, 209480, Control_c, 0, 67, 31
1, 209495, Control_c, 0, 64, 44
1, 209495, Control_c, 0, 67, 36
1, 209510, Control_c, 0, 64, 45
1, 209510, Control_c, 0, 67, 41
1, 209524, Control_c, 0, 67, 47
1, 209540, Control_c, 0, 64, 44
1, 209540, Control_c, 0, 67, 52
1, 209555, Control_c, 0, 67, 57
1, 209570, Control_c, 0, 64, 44
1, 209570, Control_c, 0, 67, 61
1, 209585, Control_c, 0, 67, 67
1, 209600, Control_c, 0, 64, 43
1, 209600, Control_c, 0, 67, 71
1, 209614, Control_c, 0, 64, 42
1, 209614, Control_c, 0, 67, 76
1, 209629, Control_c, 0, 64, 42
1, 209629, Control_c, 0, 67, 80
1, 209644, Note_off_c, 0, 58, 28
1, 209644, Control_c, 0, 64, 41
1, 209644, Control_c, 0, 67, 84
1, 209659, Control_c, 0, 64, 41
1, 209659, Control_c, 0, 67, 89
1, 209673, Control_c, 0, 64, 40
1, 209673, Control_c, 0, 67, 92
1, 209688, Control_c, 0, 64, 40
1, 209688, Control_c, 0, 67, 96
1, 209703, Control_c, 0, 64, 38
1, 209703, Control_c, 0, 67, 99
1, 209718, Control_c, 0, 64, 37
1, 209718, Control_c, 0, 67, 101
1, 209733, Control_c, 0, 64, 35
1, 209733, Control_c, 0, 67, 103
1, 209747, Control_c, 0, 64, 34
1, 209747, Control_c, 0, 67, 104
1, 209762, Control_c, 0, 64, 33
1, 209762, Control_c, 0, 67, 105
1, 209777, Control_c, 0, 64, 32
1, 209777, Control_c, 0, 67, 105
1, 209792, Control_c, 0, 64, 30
1, 209807, Control_c, 0, 64, 29
1, 209822, Control_c, 0, 64, 27
1, 209837, Control_c, 0, 64, 23
1, 209846, Note_off_c, 0, 62, 41
1, 209851, Control_c, 0, 64, 17
1, 209852, Note_off_c, 0, 68, 42
1, 209866, Control_c, 0, 64, 0
1, 209866, Control_c, 0, 67, 104
1, 209881, Control_c, 0, 67, 103
1, 209896, Control_c, 0, 67, 100
1, 209918, Control_c, 0, 67, 98
1, 209933, Control_c, 0, 67, 97
1, 209947, Control_c, 0, 67, 95
1, 209962, Control_c, 0, 67, 94
1, 209977, Control_c, 0, 67, 93
1, 209991, Control_c, 0, 67, 91
1, 210006, Control_c, 0, 67, 89
1, 210021, Control_c, 0, 67, 85
1, 210036, Control_c, 0, 67, 81
1, 210051, Control_c, 0, 67, 76
1, 210065, Control_c, 0, 67, 71
1, 210080, Control_c, 0, 67, 65
1, 210095, Control_c, 0, 67, 57
1, 210110, Control_c, 0, 67, 47
1, 210120, Note_on_c, 0, 46, 52
1, 210125, Control_c, 0, 67, 38
1, 210139, Control_c, 0, 67, 30
1, 210146, Note_off_c, 0, 46, 59
1, 210154, Control_c, 0, 67, 24
1, 210169, Control_c, 0, 67, 20
1, 210184, Control_c, 0, 67, 17
1, 210198, Control_c, 0, 67, 15
1, 210213, Control_c, 0, 67, 14
1, 210228, Control_c, 0, 67, 11
1, 210243, Control_c, 0, 67, 8
1, 210258, Control_c, 0, 67, 0
1, 210304, Note_on_c, 0, 51, 50
1, 210487, Note_on_c, 0, 63, 38
1, 210635, Note_off_c, 0, 63, 51
1, 210640, Note_on_c, 0, 67, 52
1, 210801, Note_off_c, 0, 67, 59
1, 210807, Note_on_c, 0, 63, 49
1, 210829, Control_c, 0, 64, 8
1, 210844, Control_c, 0, 64, 11
1, 210857, Note_off_c, 0, 51, 59
1, 210859, Control_c, 0, 64, 11
1, 210904, Control_c, 0, 64, 11
1, 210919, Control_c, 0, 64, 0
1, 210960, Note_off_c, 0, 63, 59
1, 210965, Note_on_c, 0, 68, 54
1, 211121, Note_on_c, 0, 50, 54
1, 211130, Note_on_c, 0, 58, 52
1, 211147, Note_off_c, 0, 50, 62
1, 211187, Note_off_c, 0, 68, 54
1, 211203, Note_off_c, 0, 58, 57
1, 211282, Note_on_c, 0, 56, 71
1, 211454, Note_on_c, 0, 70, 61
1, 211611, Note_on_c, 0, 74, 71
1, 211651, Note_off_c, 0, 70, 56
1, 211766, Note_on_c, 0, 70, 74
1, 211812, Note_off_c, 0, 74, 59
1, 211932, Note_on_c, 0, 75, 78
1, 211976, Note_off_c, 0, 70, 59
1, 211978, Note_off_c, 0, 56, 36
1, 212079, Note_on_c, 0, 63, 75
1, 212081, Note_on_c, 0, 55, 71
1, 212108, Note_off_c, 0, 55, 69
1, 212135, Note_off_c, 0, 63, 64
1, 212139, Note_off_c, 0, 75, 61
1, 212249, Note_on_c, 0, 61, 83
1, 212414, Note_on_c, 0, 75, 79
1, 212570, Note_on_c, 0, 79, 84
1, 212616, Note_off_c, 0, 75, 57
1, 212639, Control_c, 0, 64, 14
1, 212653, Control_c, 0, 64, 20
1, 212668, Control_c, 0, 64, 24
1, 212683, Control_c, 0, 64, 26
1, 212698, Control_c, 0, 64, 28
1, 212722, Note_on_c, 0, 75, 85
1, 212761, Note_off_c, 0, 79, 61
1, 212788, Control_c, 0, 64, 27
1, 212802, Control_c, 0, 64, 26
1, 212817, Control_c, 0, 64, 24
1, 212832, Control_c, 0, 64, 24
1, 212847, Control_c, 0, 64, 23
1, 212862, Control_c, 0, 64, 23
1, 212877, Control_c, 0, 64, 22
1, 212884, Note_on_c, 0, 80, 82
1, 212913, Control_c, 0, 64, 22
1, 212928, Control_c, 0, 64, 21
1, 212943, Control_c, 0, 64, 20
1, 212958, Control_c, 0, 64, 19
1, 212972, Control_c, 0, 64, 17
1, 212974, Note_off_c, 0, 75, 51
1, 212987, Control_c, 0, 64, 15
1, 213002, Control_c, 0, 64, 12
1, 213017, Control_c, 0, 64, 0
1, 213025, Note_on_c, 0, 60, 69
1, 213026, Note_off_c, 0, 61, 65
1, 213049, Note_off_c, 0, 60, 69
1, 213051, Note_on_c, 0, 68, 61
1, 213065, Note_off_c, 0, 80, 60
1, 213089, Note_off_c, 0, 68, 59
1, 213199, Note_on_c, 0, 81, 69
1, 213254, Note_off_c, 0, 81, 62
1, 213345, Note_on_c, 0, 65, 66
1, 213345, Note_on_c, 0, 69, 62
1, 213346, Note_on_c, 0, 63, 67
1, 213366, Note_off_c, 0, 63, 68
1, 213369, Note_off_c, 0, 65, 68
1, 213375, Note_off_c, 0, 69, 67
1, 213500, Note_on_c, 0, 82, 77
1, 213551, Note_off_c, 0, 82, 55
1, 213646, Note_on_c, 0, 62, 72
1, 213651, Note_on_c, 0, 65, 71
1, 213653, Note_on_c, 0, 70, 78
1, 213681, Note_off_c, 0, 62, 67
1, 213683, Note_off_c, 0, 65, 70
1, 213702, Note_off_c, 0, 70, 59
1, 213816, Note_on_c, 0, 83, 93
1, 213877, Note_off_c, 0, 83, 64
1, 213952, Note_on_c, 0, 67, 87
1, 213953, Note_on_c, 0, 65, 83
1, 213965, Note_on_c, 0, 71, 81
1, 213971, Note_off_c, 0, 67, 70
1, 213972, Note_off_c, 0, 65, 74
1, 214010, Note_off_c, 0, 71, 65
1, 214110, Note_on_c, 0, 84, 96
1, 214174, Note_off_c, 0, 84, 59
1, 214248, Note_on_c, 0, 63, 83
1, 214251, Note_on_c, 0, 67, 75
1, 214261, Note_on_c, 0, 72, 91
1, 214266, Note_on_c, 0, 65, 61
1, 214269, Note_off_c, 0, 63, 73
1, 214274, Note_off_c, 0, 67, 70
1, 214287, Note_off_c, 0, 65, 65
1, 214312, Note_off_c, 0, 72, 64
1, 214421, Note_on_c, 0, 86, 101
1, 214483, Note_off_c, 0, 86, 61
1, 214567, Note_on_c, 0, 70, 92
1, 214567, Note_on_c, 0, 68, 81
1, 214571, Note_on_c, 0, 74, 86
1, 214612, Note_off_c, 0, 74, 69
1, 214613, Note_off_c, 0, 70, 62
1, 214615, Note_off_c, 0, 68, 61
1, 214724, Note_on_c, 0, 87, 100
1, 214781, Note_off_c, 0, 87, 65
1, 214882, Note_on_c, 0, 75, 92
1, 214886, Note_on_c, 0, 70, 83
1, 214888, Note_on_c, 0, 67, 80
1, 214918, Note_off_c, 0, 75, 65
1, 214927, Note_off_c, 0, 70, 65
1, 214929, Note_off_c, 0, 67, 61
1, 215885, Control_c, 0, 67, 9
1, 215908, Control_c, 0, 67, 11
1, 215923, Control_c, 0, 67, 13
1, 215938, Control_c, 0, 67, 15
1, 215953, Control_c, 0, 67, 18
1, 215968, Control_c, 0, 67, 20
1, 215983, Control_c, 0, 67, 24
1, 215998, Control_c, 0, 67, 28
1, 216013, Control_c, 0, 67, 34
1, 216028, Control_c, 0, 67, 40
1, 216042, Control_c, 0, 67, 48
1, 216057, Control_c, 0, 67, 55
1, 216072, Control_c, 0, 67, 62
1, 216087, Control_c, 0, 67, 70
1, 216102, Control_c, 0, 67, 78
1, 216116, Control_c, 0, 67, 86
1, 216131, Control_c, 0, 67, 93
1, 216146, Control_c, 0, 67, 100
1, 216161, Control_c, 0, 67, 105
1, 216176, Control_c, 0, 67, 110
1, 216190, Control_c, 0, 67, 115
1, 216205, Control_c, 0, 67, 119
1, 216220, Control_c, 0, 67, 123
1, 216234, Control_c, 0, 67, 127
1, 216324, Note_on_c, 0, 60, 35
1, 216442, Note_off_c, 0, 60, 37
1, 216553, Note_on_c, 0, 72, 27
1, 216609, Note_off_c, 0, 72, 0
1, 216609, Note_on_c, 0, 72, 3
1, 216710, Note_on_c, 0, 44, 26
1, 216870, Note_off_c, 0, 44, 43
1, 216886, Note_on_c, 0, 56, 32
1, 216895, Control_c, 0, 64, 11
1, 216910, Control_c, 0, 64, 18
1, 216925, Control_c, 0, 64, 22
1, 216925, Control_c, 0, 67, 125
1, 216939, Control_c, 0, 64, 26
1, 216939, Control_c, 0, 67, 118
1, 216954, Control_c, 0, 64, 29
1, 216954, Control_c, 0, 67, 112
1, 216969, Control_c, 0, 64, 33
1, 216969, Control_c, 0, 67, 105
1, 216983, Control_c, 0, 64, 36
1, 216983, Control_c, 0, 67, 97
1, 216994, Note_off_c, 0, 56, 51
1, 216998, Control_c, 0, 64, 39
1, 216998, Control_c, 0, 67, 87
1, 217013, Control_c, 0, 64, 42
1, 217013, Control_c, 0, 67, 76
1, 217028, Control_c, 0, 64, 44
1, 217028, Control_c, 0, 67, 65
1, 217043, Note_on_c, 0, 53, 45
1, 217043, Control_c, 0, 64, 46
1, 217043, Control_c, 0, 67, 52
1, 217057, Control_c, 0, 64, 47
1, 217057, Control_c, 0, 67, 42
1, 217072, Control_c, 0, 67, 34
1, 217087, Control_c, 0, 64, 46
1, 217087, Control_c, 0, 67, 28
1, 217102, Control_c, 0, 64, 46
1, 217102, Control_c, 0, 67, 25
1, 217117, Control_c, 0, 64, 45
1, 217117, Control_c, 0, 67, 24
1, 217131, Control_c, 0, 64, 43
1, 217131, Control_c, 0, 67, 24
1, 217146, Control_c, 0, 64, 38
1, 217161, Control_c, 0, 64, 31
1, 217175, Control_c, 0, 64, 30
1, 217190, Control_c, 0, 64, 31
1, 217205, Control_c, 0, 64, 33
1, 217207, Note_on_c, 0, 58, 41
1, 217220, Control_c, 0, 64, 34
1, 217226, Note_off_c, 0, 53, 35
1, 217235, Control_c, 0, 64, 36
1, 217250, Control_c, 0, 64, 39
1, 217265, Control_c, 0, 64, 41
1, 217280, Control_c, 0, 64, 44
1, 217295, Control_c, 0, 64, 46
1, 217310, Control_c, 0, 64, 47
1, 217324, Control_c, 0, 64, 48
1, 217363, Note_on_c, 0, 46, 44
1, 217367, Note_off_c, 0, 58, 30
1, 217368, Note_on_c, 0, 62, 45
1, 217383, Control_c, 0, 67, 24
1, 217393, Note_off_c, 0, 46, 54
1, 217405, Control_c, 0, 67, 25
1, 217420, Control_c, 0, 64, 48
1, 217435, Control_c, 0, 64, 47
1, 217435, Control_c, 0, 67, 25
1, 217451, Control_c, 0, 64, 45
1, 217451, Control_c, 0, 67, 26
1, 217465, Control_c, 0, 64, 44
1, 217465, Control_c, 0, 67, 26
1, 217480, Control_c, 0, 64, 44
1, 217495, Control_c, 0, 64, 43
1, 217495, Control_c, 0, 67, 27
1, 217508, Note_off_c, 0, 62, 25
1, 217509, Control_c, 0, 64, 42
1, 217509, Control_c, 0, 67, 27
1, 217524, Control_c, 0, 64, 41
1, 217541, Control_c, 0, 64, 37
1, 217541, Control_c, 0, 67, 28
1, 217555, Control_c, 0, 64, 33
1, 217556, Note_on_c, 0, 63, 49
1, 217570, Control_c, 0, 64, 28
1, 217572, Note_off_c, 0, 72, 39
1, 217585, Control_c, 0, 64, 23
1, 217587, Note_on_c, 0, 51, 33
1, 217600, Control_c, 0, 64, 17
1, 217614, Control_c, 0, 64, 0
1, 217722, Note_on_c, 0, 70, 51
1, 217731, Note_on_c, 0, 67, 41
1, 217733, Control_c, 0, 67, 27
1, 217778, Control_c, 0, 67, 27
1, 217793, Control_c, 0, 67, 26
1, 217822, Control_c, 0, 67, 25
1, 217852, Control_c, 0, 67, 25
1, 217857, Note_off_c, 0, 70, 60
1, 217878, Note_off_c, 0, 67, 40
1, 217879, Note_on_c, 0, 72, 54
1, 217881, Control_c, 0, 67, 24
1, 217896, Control_c, 0, 67, 24
1, 217910, Note_on_c, 0, 68, 38
1, 217911, Control_c, 0, 67, 23
1, 217940, Control_c, 0, 67, 22
1, 217954, Note_off_c, 0, 63, 46
1, 217955, Control_c, 0, 67, 22
1, 217970, Control_c, 0, 67, 20
1, 217985, Control_c, 0, 67, 15
1, 217999, Control_c, 0, 67, 12
1, 218014, Note_off_c, 0, 72, 37
1, 218014, Control_c, 0, 67, 9
1, 218025, Note_off_c, 0, 68, 38
1, 218029, Control_c, 0, 67, 0
1, 218037, Note_on_c, 0, 70, 59
1, 218049, Note_on_c, 0, 67, 54
1, 218174, Note_off_c, 0, 51, 44
1, 218176, Note_off_c, 0, 67, 61
1, 218191, Note_off_c, 0, 70, 59
1, 218207, Note_on_c, 0, 68, 56
1, 218210, Note_on_c, 0, 65, 48
1, 218248, Note_off_c, 0, 68, 59
1, 218356, Note_off_c, 0, 65, 63
1, 218359, Note_on_c, 0, 67, 49
1, 218375, Note_on_c, 0, 63, 47
1, 218508, Note_off_c, 0, 63, 37
1, 218516, Note_off_c, 0, 67, 56
1, 218522, Note_on_c, 0, 65, 46
1, 218537, Note_on_c, 0, 62, 45
1, 218689, Note_on_c, 0, 58, 45
1, 218814, Note_off_c, 0, 58, 52
1, 218837, Note_on_c, 0, 57, 49
1, 218989, Note_off_c, 0, 57, 61
1, 219013, Note_on_c, 0, 58, 51
1, 219172, Note_off_c, 0, 58, 47
1, 219176, Note_on_c, 0, 56, 54
1, 219189, Note_off_c, 0, 65, 38
1, 219205, Note_off_c, 0, 62, 39
1, 219325, Note_off_c, 0, 56, 62
1, 219341, Note_on_c, 0, 53, 49
1, 219505, Note_off_c, 0, 53, 57
1, 219515, Note_on_c, 0, 51, 52
1, 219678, Note_on_c, 0, 58, 47
1, 219693, Note_on_c, 0, 55, 33
1, 219802, Note_off_c, 0, 51, 51
1, 219814, Note_off_c, 0, 58, 64
1, 219824, Note_off_c, 0, 55, 47
1, 219825, Note_on_c, 0, 60, 58
1, 219829, Control_c, 0, 67, 8
1, 219844, Note_on_c, 0, 56, 56
1, 219844, Control_c, 0, 67, 9
1, 219858, Control_c, 0, 67, 10
1, 219873, Control_c, 0, 67, 10
1, 219888, Control_c, 0, 67, 11
1, 219903, Control_c, 0, 67, 12
1, 219918, Control_c, 0, 67, 14
1, 219934, Control_c, 0, 67, 15
1, 219946, Note_off_c, 0, 60, 52
1, 219948, Control_c, 0, 67, 15
1, 219963, Control_c, 0, 67, 17
1, 219978, Control_c, 0, 67, 19
1, 219991, Note_off_c, 0, 56, 36
1, 219993, Control_c, 0, 67, 22
1, 219995, Note_on_c, 0, 58, 59
1, 220000, Note_on_c, 0, 55, 47
1, 220007, Control_c, 0, 67, 26
1, 220022, Control_c, 0, 67, 31
1, 220037, Control_c, 0, 67, 36
1, 220052, Control_c, 0, 67, 41
1, 220067, Control_c, 0, 67, 47
1, 220082, Control_c, 0, 67, 52
1, 220097, Control_c, 0, 67, 58
1, 220112, Control_c, 0, 67, 64
1, 220127, Control_c, 0, 67, 70
1, 220132, Note_off_c, 0, 55, 65
1, 220141, Control_c, 0, 67, 76
1, 220141, Note_off_c, 0, 58, 61
1, 220146, Note_on_c, 0, 56, 57
1, 220156, Control_c, 0, 67, 81
1, 220156, Note_on_c, 0, 53, 54
1, 220171, Control_c, 0, 67, 85
1, 220186, Control_c, 0, 67, 88
1, 220199, Note_off_c, 0, 56, 62
1, 220200, Control_c, 0, 67, 89
1, 220215, Control_c, 0, 67, 90
1, 220230, Control_c, 0, 67, 91
1, 220291, Note_off_c, 0, 53, 59
1, 220311, Note_on_c, 0, 55, 49
1, 220318, Control_c, 0, 67, 90
1, 220319, Note_on_c, 0, 51, 46
1, 220348, Control_c, 0, 67, 89
1, 220378, Control_c, 0, 67, 89
1, 220385, Note_off_c, 0, 51, 52
1, 220415, Control_c, 0, 67, 88
1, 220430, Control_c, 0, 67, 88
1, 220445, Control_c, 0, 67, 87
1, 220458, Note_off_c, 0, 55, 62
1, 220460, Control_c, 0, 67, 87
1, 220474, Control_c, 0, 67, 86
1, 220486, Note_on_c, 0, 53, 49
1, 220502, Note_on_c, 0, 50, 36
1, 220504, Control_c, 0, 67, 86
1, 220519, Control_c, 0, 67, 85
1, 220533, Control_c, 0, 67, 84
1, 220548, Control_c, 0, 67, 84
1, 220563, Control_c, 0, 67, 83
1, 220578, Control_c, 0, 67, 80
1, 220593, Control_c, 0, 67, 79
1, 220607, Control_c, 0, 67, 76
1, 220622, Control_c, 0, 67, 74
1, 220637, Control_c, 0, 67, 71
1, 220642, Note_on_c, 0, 34, 51
1, 220652, Control_c, 0, 67, 68
1, 220667, Control_c, 0, 67, 65
1, 220681, Control_c, 0, 67, 62
1, 220696, Control_c, 0, 67, 58
1, 220711, Control_c, 0, 67, 54
1, 220727, Control_c, 0, 67, 49
1, 220742, Control_c, 0, 67, 45
1, 220756, Control_c, 0, 67, 40
1, 220771, Control_c, 0, 67, 36
1, 220786, Control_c, 0, 67, 34
1, 220793, Note_off_c, 0, 34, 57
1, 220801, Control_c, 0, 67, 32
1, 220805, Note_on_c, 0, 35, 47
1, 220816, Control_c, 0, 67, 30
1, 220830, Control_c, 0, 67, 27
1, 220845, Control_c, 0, 67, 21
1, 220860, Control_c, 0, 67, 12
1, 220875, Control_c, 0, 67, 0
1, 220937, Note_off_c, 0, 35, 59
1, 220967, Note_on_c, 0, 36, 54
1, 221120, Note_off_c, 0, 36, 60
1, 221122, Note_on_c, 0, 37, 53
1, 221298, Note_off_c, 0, 50, 37
1, 221307, Note_on_c, 0, 38, 62
1, 221307, Note_off_c, 0, 37, 59
1, 221358, Note_off_c, 0, 53, 37
1, 221471, Note_off_c, 0, 38, 61
1, 221473, Note_on_c, 0, 39, 60
1, 221625, Note_on_c, 0, 51, 52
1, 221793, Note_on_c, 0, 52, 65
1, 221793, Note_off_c, 0, 51, 58
1, 221809, Note_off_c, 0, 39, 50
1, 221959, Note_on_c, 0, 53, 62
1, 221996, Note_off_c, 0, 52, 56
1, 222117, Note_on_c, 0, 54, 62
1, 222137, Note_off_c, 0, 53, 59
1, 222248, Note_off_c, 0, 54, 57
1, 222281, Note_on_c, 0, 55, 45
1, 222374, Note_off_c, 0, 55, 63
1, 222437, Note_on_c, 0, 56, 52
1, 222615, Note_on_c, 0, 48, 36
1, 222777, Note_on_c, 0, 51, 45
1, 222783, Note_off_c, 0, 48, 43
1, 222929, Note_on_c, 0, 48, 50
1, 222960, Note_off_c, 0, 51, 48
1, 223094, Note_on_c, 0, 46, 55
1, 223126, Note_off_c, 0, 48, 35
1, 223252, Note_on_c, 0, 55, 62
1, 223262, Note_off_c, 0, 46, 59
1, 223265, Note_off_c, 0, 56, 43
1, 223271, Note_on_c, 0, 51, 49
1, 223303, Note_off_c, 0, 51, 64
1, 223326, Note_off_c, 0, 55, 60
1, 223438, Note_on_c, 0, 60, 67
1, 223591, Note_on_c, 0, 44, 47
1, 223759, Note_on_c, 0, 51, 48
1, 223763, Note_off_c, 0, 44, 53
1, 223908, Note_on_c, 0, 44, 57
1, 223945, Note_off_c, 0, 51, 52
1, 224064, Note_on_c, 0, 43, 66
1, 224064, Note_off_c, 0, 44, 61
1, 224221, Note_off_c, 0, 60, 64
1, 224249, Note_on_c, 0, 58, 70
1, 224252, Note_on_c, 0, 51, 70
1, 224277, Note_off_c, 0, 43, 62
1, 224279, Note_off_c, 0, 51, 68
1, 224299, Note_off_c, 0, 58, 53
1, 224407, Note_on_c, 0, 58, 92
1, 224408, Note_on_c, 0, 65, 89
1, 224411, Note_on_c, 0, 68, 90
1, 224560, Note_on_c, 0, 38, 96
1, 224607, Note_off_c, 0, 38, 61
1, 224720, Note_on_c, 0, 50, 86
1, 224773, Note_off_c, 0, 50, 63
1, 224872, Note_on_c, 0, 38, 92
1, 224924, Note_off_c, 0, 38, 64
1, 224962, Note_off_c, 0, 58, 57
1, 225040, Note_on_c, 0, 39, 90
1, 225120, Note_off_c, 0, 68, 47
1, 225122, Note_off_c, 0, 39, 62
1, 225170, Note_off_c, 0, 65, 20
1, 225194, Note_on_c, 0, 51, 77
1, 225196, Note_on_c, 0, 67, 79
1, 225200, Note_on_c, 0, 63, 74
1, 225223, Note_off_c, 0, 51, 68
1, 225225, Note_off_c, 0, 63, 70
1, 225231, Note_off_c, 0, 67, 64
1, 225360, Note_on_c, 0, 56, 52
1, 225368, Note_on_c, 0, 44, 47
1, 225385, Note_off_c, 0, 56, 58
1, 225397, Note_off_c, 0, 44, 51
1, 225513, Note_on_c, 0, 65, 52
1, 225519, Note_on_c, 0, 60, 49
1, 225536, Note_off_c, 0, 65, 63
1, 225541, Note_off_c, 0, 60, 60
1, 225667, Note_on_c, 0, 55, 57
1, 225677, Note_on_c, 0, 46, 51
1, 225689, Note_off_c, 0, 55, 63
1, 225704, Note_off_c, 0, 46, 55
1, 225838, Note_on_c, 0, 63, 58
1, 225850, Note_on_c, 0, 58, 35
1, 225864, Note_off_c, 0, 63, 66
1, 225880, Note_off_c, 0, 58, 48
1, 225992, Note_on_c, 0, 46, 66
1, 225995, Note_on_c, 0, 53, 55
1, 226018, Note_off_c, 0, 46, 67
1, 226018, Note_off_c, 0, 53, 60
1, 226133, Note_on_c, 0, 62, 77
1, 226142, Note_on_c, 0, 56, 61
1, 226161, Note_off_c, 0, 62, 67
1, 226164, Note_off_c, 0, 56, 63
1, 226309, Note_on_c, 0, 58, 97
1, 226312, Note_on_c, 0, 68, 92
1, 226314, Note_on_c, 0, 65, 82
1, 226451, Note_on_c, 0, 38, 97
1, 226488, Note_off_c, 0, 38, 66
1, 226619, Note_on_c, 0, 50, 90
1, 226656, Note_off_c, 0, 50, 64
1, 226772, Note_on_c, 0, 38, 89
1, 226835, Note_off_c, 0, 38, 63
1, 226932, Note_on_c, 0, 39, 90
1, 226986, Note_off_c, 0, 58, 58
1, 227021, Note_off_c, 0, 39, 61
1, 227085, Note_on_c, 0, 51, 82
1, 227090, Note_on_c, 0, 67, 74
1, 227096, Note_on_c, 0, 63, 67
1, 227097, Note_off_c, 0, 65, 45
1, 227102, Note_off_c, 0, 68, 33
1, 227117, Note_off_c, 0, 51, 66
1, 227124, Note_off_c, 0, 63, 69
1, 227124, Note_off_c, 0, 67, 65
1, 227258, Note_on_c, 0, 56, 68
1, 227270, Note_on_c, 0, 44, 54
1, 227286, Note_off_c, 0, 56, 68
1, 227296, Note_off_c, 0, 44, 56
1, 227417, Note_on_c, 0, 65, 60
1, 227423, Note_on_c, 0, 60, 49
1, 227441, Note_off_c, 0, 65, 68
1, 227445, Note_off_c, 0, 60, 60
1, 227571, Note_on_c, 0, 55, 47
1, 227576, Note_on_c, 0, 46, 50
1, 227595, Note_off_c, 0, 55, 59
1, 227601, Note_off_c, 0, 46, 57
1, 227716, Note_on_c, 0, 63, 66
1, 227734, Note_on_c, 0, 58, 35
1, 227745, Note_off_c, 0, 63, 69
1, 227764, Note_off_c, 0, 58, 49
1, 227895, Note_on_c, 0, 53, 55
1, 227898, Note_on_c, 0, 46, 54
1, 227921, Note_off_c, 0, 53, 59
1, 227925, Note_off_c, 0, 46, 58
1, 228044, Note_on_c, 0, 62, 64
1, 228046, Note_on_c, 0, 56, 55
1, 228068, Note_off_c, 0, 56, 65
1, 228071, Note_off_c, 0, 62, 67
1, 228202, Note_on_c, 0, 55, 41
1, 228211, Note_on_c, 0, 51, 41
1, 228367, Note_on_c, 0, 70, 55
1, 228387, Note_on_c, 0, 67, 38
1, 228519, Note_off_c, 0, 70, 58
1, 228526, Note_on_c, 0, 72, 66
1, 228532, Note_off_c, 0, 67, 53
1, 228541, Control_c, 0, 64, 9
1, 228556, Control_c, 0, 64, 16
1, 228564, Note_on_c, 0, 68, 24
1, 228567, Note_off_c, 0, 55, 44
1, 228571, Control_c, 0, 64, 21
1, 228571, Note_off_c, 0, 51, 41
1, 228586, Control_c, 0, 64, 24
1, 228601, Control_c, 0, 64, 26
1, 228615, Control_c, 0, 64, 28
1, 228616, Note_off_c, 0, 68, 45
1, 228682, Control_c, 0, 64, 27
1, 228698, Note_on_c, 0, 70, 78
1, 228706, Note_on_c, 0, 67, 59
1, 228711, Control_c, 0, 64, 27
1, 228726, Control_c, 0, 64, 23
1, 228741, Control_c, 0, 64, 9
1, 228743, Note_off_c, 0, 72, 58
1, 228756, Control_c, 0, 64, 0
1, 228831, Control_c, 0, 64, 19
1, 228845, Control_c, 0, 64, 27
1, 228860, Control_c, 0, 64, 33
1, 228861, Note_off_c, 0, 67, 63
1, 228871, Note_on_c, 0, 65, 63
1, 228871, Note_on_c, 0, 68, 64
1, 228875, Control_c, 0, 64, 38
1, 228889, Control_c, 0, 64, 43
1, 228900, Note_off_c, 0, 70, 60
1, 228904, Control_c, 0, 64, 48
1, 228919, Control_c, 0, 64, 51
1, 228926, Note_off_c, 0, 68, 58
1, 228934, Control_c, 0, 64, 52
1, 228949, Control_c, 0, 64, 53
1, 228963, Note_off_c, 0, 65, 65
1, 228963, Control_c, 0, 64, 52
1, 229021, Note_on_c, 0, 67, 70
1, 229023, Control_c, 0, 64, 52
1, 229035, Note_on_c, 0, 63, 57
1, 229037, Control_c, 0, 64, 51
1, 229052, Control_c, 0, 64, 51
1, 229058, Note_off_c, 0, 63, 62
1, 229067, Control_c, 0, 64, 50
1, 229071, Note_off_c, 0, 67, 61
1, 229081, Control_c, 0, 64, 50
1, 229096, Control_c, 0, 64, 49
1, 229111, Control_c, 0, 64, 48
1, 229126, Control_c, 0, 64, 47
1, 229141, Control_c, 0, 64, 45
1, 229156, Control_c, 0, 64, 42
1, 229171, Control_c, 0, 64, 40
1, 229185, Note_on_c, 0, 65, 68
1, 229186, Control_c, 0, 64, 39
1, 229200, Control_c, 0, 64, 38
1, 229209, Note_on_c, 0, 58, 43
1, 229209, Note_on_c, 0, 62, 53
1, 229212, Note_on_c, 0, 56, 54
1, 229215, Control_c, 0, 64, 36
1, 229230, Control_c, 0, 64, 32
1, 229245, Control_c, 0, 64, 26
1, 229260, Control_c, 0, 64, 16
1, 229275, Control_c, 0, 64, 0
1, 229340, Note_on_c, 0, 82, 66
1, 229520, Note_on_c, 0, 83, 66
1, 229520, Note_off_c, 0, 82, 62
1, 229623, Note_off_c, 0, 56, 36
1, 229677, Note_on_c, 0, 84, 59
1, 229711, Note_off_c, 0, 83, 52
1, 229815, Note_off_c, 0, 62, 59
1, 229816, Control_c, 0, 64, 8
1, 229817, Note_off_c, 0, 58, 36
1, 229831, Control_c, 0, 64, 16
1, 229840, Note_on_c, 0, 85, 50
1, 229843, Note_off_c, 0, 84, 55
1, 229846, Control_c, 0, 64, 20
1, 229860, Control_c, 0, 64, 23
1, 229875, Control_c, 0, 64, 25
1, 229890, Control_c, 0, 64, 27
1, 229904, Control_c, 0, 64, 28
1, 229919, Control_c, 0, 64, 28
1, 229940, Note_off_c, 0, 85, 53
1, 229993, Control_c, 0, 64, 28
1, 229999, Note_on_c, 0, 86, 49
1, 230008, Control_c, 0, 64, 26
1, 230023, Control_c, 0, 64, 25
1, 230038, Control_c, 0, 64, 23
1, 230053, Control_c, 0, 64, 21
1, 230068, Control_c, 0, 64, 19
1, 230070, Note_off_c, 0, 65, 30
1, 230083, Control_c, 0, 64, 0
1, 230171, Note_on_c, 0, 87, 56
1, 230177, Note_off_c, 0, 86, 52
1, 230184, Note_on_c, 0, 58, 32
1, 230187, Note_on_c, 0, 63, 28
1, 230193, Control_c, 0, 64, 22
1, 230203, Note_off_c, 0, 87, 66
1, 230208, Control_c, 0, 64, 35
1, 230214, Note_on_c, 0, 55, 10
1, 230223, Control_c, 0, 64, 43
1, 230238, Control_c, 0, 64, 50
1, 230253, Control_c, 0, 64, 53
1, 230283, Control_c, 0, 64, 51
1, 230297, Control_c, 0, 64, 47
1, 230313, Control_c, 0, 64, 45
1, 230328, Control_c, 0, 64, 44
1, 230357, Control_c, 0, 64, 43
1, 230372, Control_c, 0, 64, 42
1, 230387, Control_c, 0, 64, 39
1, 230402, Control_c, 0, 64, 35
1, 230409, Note_on_c, 0, 70, 51
1, 230417, Control_c, 0, 64, 30
1, 230421, Note_on_c, 0, 67, 47
1, 230432, Control_c, 0, 64, 26
1, 230446, Control_c, 0, 64, 23
1, 230457, Note_off_c, 0, 63, 39
1, 230461, Control_c, 0, 64, 21
1, 230476, Control_c, 0, 64, 18
1, 230491, Control_c, 0, 64, 14
1, 230506, Control_c, 0, 64, 0
1, 230534, Note_off_c, 0, 70, 54
1, 230581, Note_off_c, 0, 67, 48
1, 230581, Note_on_c, 0, 72, 53
1, 230603, Note_on_c, 0, 68, 47
1, 230625, Note_off_c, 0, 58, 38
1, 230631, Note_off_c, 0, 55, 43
1, 230713, Note_off_c, 0, 68, 52
1, 230718, Note_off_c, 0, 72, 49
1, 230759, Note_on_c, 0, 70, 60
1, 230762, Note_on_c, 0, 67, 46
1, 230925, Note_off_c, 0, 67, 59
1, 230936, Note_off_c, 0, 70, 56
1, 230942, Note_on_c, 0, 68, 50
1, 230949, Note_on_c, 0, 65, 33
1, 230958, Control_c, 0, 64, 12
1, 230973, Control_c, 0, 64, 23
1, 230988, Control_c, 0, 64, 30
1, 230998, Note_off_c, 0, 68, 57
1, 231003, Control_c, 0, 64, 37
1, 231017, Control_c, 0, 64, 45
1, 231032, Control_c, 0, 64, 51
1, 231047, Control_c, 0, 64, 55
1, 231061, Control_c, 0, 64, 57
1, 231107, Control_c, 0, 64, 57
1, 231122, Control_c, 0, 64, 55
1, 231137, Control_c, 0, 64, 55
1, 231147, Note_on_c, 0, 67, 58
1, 231152, Control_c, 0, 64, 54
1, 231157, Note_off_c, 0, 65, 45
1, 231159, Note_on_c, 0, 63, 46
1, 231166, Control_c, 0, 64, 53
1, 231178, Note_off_c, 0, 67, 66
1, 231181, Control_c, 0, 64, 53
1, 231188, Note_off_c, 0, 63, 57
1, 231196, Control_c, 0, 64, 52
1, 231211, Control_c, 0, 64, 51
1, 231226, Control_c, 0, 64, 51
1, 231240, Control_c, 0, 64, 50
1, 231270, Control_c, 0, 64, 50
1, 231284, Control_c, 0, 64, 49
1, 231299, Control_c, 0, 64, 49
1, 231314, Control_c, 0, 64, 48
1, 231329, Control_c, 0, 64, 47
1, 231344, Control_c, 0, 64, 46
1, 231359, Control_c, 0, 64, 45
1, 231492, Control_c, 0, 64, 45
1, 231522, Control_c, 0, 64, 43
1, 231537, Control_c, 0, 64, 38
1, 231544, Note_on_c, 0, 58, 102
1, 231546, Note_on_c, 0, 56, 97
1, 231549, Note_on_c, 0, 53, 89
1, 231551, Control_c, 0, 64, 20
1, 231555, Note_on_c, 0, 50, 76
1, 231555, Note_on_c, 0, 46, 77
1, 231566, Control_c, 0, 64, 0
1, 231796, Control_c, 0, 64, 12
1, 231810, Control_c, 0, 64, 17
1, 231825, Control_c, 0, 64, 19
1, 231840, Control_c, 0, 64, 20
1, 231855, Control_c, 0, 64, 21
1, 231870, Control_c, 0, 64, 23
1, 231884, Control_c, 0, 64, 26
1, 231899, Control_c, 0, 64, 31
1, 231915, Control_c, 0, 64, 37
1, 231930, Control_c, 0, 64, 41
1, 231945, Control_c, 0, 64, 44
1, 231960, Control_c, 0, 64, 46
1, 231989, Control_c, 0, 64, 45
1, 232004, Control_c, 0, 64, 43
1, 232019, Control_c, 0, 64, 41
1, 232034, Control_c, 0, 64, 40
1, 232049, Control_c, 0, 64, 41
1, 232063, Control_c, 0, 64, 43
1, 232078, Control_c, 0, 64, 46
1, 232093, Control_c, 0, 64, 48
1, 232107, Control_c, 0, 64, 50
1, 232122, Control_c, 0, 64, 53
1, 232137, Control_c, 0, 64, 55
1, 232152, Control_c, 0, 64, 57
1, 232167, Control_c, 0, 64, 58
1, 232181, Control_c, 0, 64, 59
1, 232196, Control_c, 0, 64, 59
1, 232211, Control_c, 0, 64, 60
1, 232241, Control_c, 0, 64, 60
1, 232363, Note_on_c, 0, 60, 87
1, 232364, Note_off_c, 0, 58, 63
1, 232411, Control_c, 0, 64, 60
1, 232426, Control_c, 0, 64, 57
1, 232439, Control_c, 0, 64, 47
1, 232454, Control_c, 0, 64, 16
1, 232469, Control_c, 0, 64, 0
1, 232492, Note_on_c, 0, 62, 89
1, 232500, Note_off_c, 0, 60, 62
1, 232573, Control_c, 0, 64, 11
1, 232587, Note_on_c, 0, 63, 94
1, 232587, Control_c, 0, 64, 20
1, 232602, Control_c, 0, 64, 25
1, 232606, Note_off_c, 0, 62, 63
1, 232617, Control_c, 0, 64, 28
1, 232631, Control_c, 0, 64, 32
1, 232646, Note_off_c, 0, 63, 68
1, 232646, Control_c, 0, 64, 37
1, 232661, Control_c, 0, 64, 43
1, 232664, Note_on_c, 0, 65, 88
1, 232676, Control_c, 0, 64, 49
1, 232691, Control_c, 0, 64, 55
1, 232707, Control_c, 0, 64, 59
1, 232717, Note_off_c, 0, 56, 64
1, 232722, Control_c, 0, 64, 61
1, 232727, Note_off_c, 0, 53, 65
1, 232729, Note_off_c, 0, 50, 64
1, 232734, Note_off_c, 0, 46, 65
1, 232736, Control_c, 0, 64, 62
1, 232739, Note_on_c, 0, 67, 94
1, 232757, Note_off_c, 0, 65, 62
1, 232766, Control_c, 0, 64, 63
1, 232804, Note_on_c, 0, 68, 84
1, 232826, Note_off_c, 0, 67, 62
1, 232840, Control_c, 0, 64, 62
1, 232855, Control_c, 0, 64, 62
1, 232858, Note_on_c, 0, 70, 88
1, 232868, Note_off_c, 0, 68, 63
1, 232870, Control_c, 0, 64, 61
1, 232885, Control_c, 0, 64, 60
1, 232891, Note_off_c, 0, 70, 64
1, 232900, Control_c, 0, 64, 59
1, 232915, Control_c, 0, 64, 59
1, 232926, Note_on_c, 0, 72, 89
1, 232929, Control_c, 0, 64, 57
1, 232944, Control_c, 0, 64, 54
1, 232959, Control_c, 0, 64, 50
1, 232974, Control_c, 0, 64, 46
1, 232983, Note_on_c, 0, 74, 83
1, 232989, Control_c, 0, 64, 43
1, 232992, Note_off_c, 0, 72, 58
1, 233003, Control_c, 0, 64, 42
1, 233018, Control_c, 0, 64, 40
1, 233024, Note_on_c, 0, 75, 81
1, 233033, Control_c, 0, 64, 37
1, 233047, Control_c, 0, 64, 33
1, 233053, Note_off_c, 0, 74, 66
1, 233062, Control_c, 0, 64, 29
1, 233077, Control_c, 0, 64, 27
1, 233079, Note_off_c, 0, 75, 66
1, 233087, Note_on_c, 0, 77, 84
1, 233107, Control_c, 0, 64, 25
1, 233129, Control_c, 0, 64, 9
1, 233144, Control_c, 0, 64, 0
1, 233180, Note_on_c, 0, 51, 105
1, 233185, Note_on_c, 0, 46, 92
1, 233186, Note_on_c, 0, 79, 106
1, 233187, Note_on_c, 0, 43, 79
1, 233192, Note_on_c, 0, 39, 88
1, 233198, Note_off_c, 0, 77, 63
1, 233203, Control_c, 0, 64, 13
1, 233218, Control_c, 0, 64, 50
1, 233231, Note_off_c, 0, 79, 71
1, 233233, Control_c, 0, 64, 75
1, 233248, Control_c, 0, 64, 127
1, 233259, Note_on_c, 0, 41, 14
1, 233309, Note_off_c, 0, 41, 51
1, 233813, Note_off_c, 0, 51, 56
1, 233839, Note_off_c, 0, 43, 58
1, 233841, Control_c, 0, 64, 114
1, 233851, Note_off_c, 0, 46, 63
1, 233856, Control_c, 0, 64, 75
1, 233866, Note_off_c, 0, 39, 62
1, 233877, Control_c, 0, 64, 61
1, 233892, Control_c, 0, 64, 50
1, 233907, Control_c, 0, 64, 33
1, 233922, Control_c, 0, 64, 0
1, 233997, End_track
0, 0, End_of_file
