0, 0, Header, 0, 1, 384
1, 0, Start_track
1, 0, Title_t, "SchubertOp90No3--Hou            "
1, 0, Text_t, "2011 ePiano Junior Competition"
1, 0, Text_t, "captured in spring and summer 2011"
1, 0, Text_t, "http://www.piano-e-competition.com/"
1, 0, Text_t, "standard-resolution version"
1, 0, Text_t, "File processed for distribution with software designed and coded by Dr. John Q. Walker, founder of Zenph Sound Innovations"
1, 0, Instrument_name_t, "Yamaha Disklavier Pro Mark IV concert grand piano, model DCFIIISM4PRO"
1, 0, Sequencer_specific, 39, 67, 113, 0, 1, 0, 1, 0, 83, 99, 104, 117, 98, 101, 114, 116, 32, 79, 112, 57, 48, 78, 111, 51, 75, 105, 109, 98, 101, 114, 108, 121, 32, 72, 111, 117, 32, 32, 32, 32
1, 0, Sequencer_specific, 6, 67, 113, 0, 0, 0, 69
1, 0, System_exclusive, 21, 67, 113, 126, 21, 0, 2, 2, 2, 5, 12, 8, 4, 14, 1, 3, 6, 9, 10, 0, 7, 247
1, 0, Sequencer_specific, 5, 67, 123, 12, 2, 1
1, 0, Tempo, 512820
1, 0, Time_signature, 4, 2, 24, 8
1, 0, System_exclusive, 5, 126, 127, 9, 1, 247
1, 1, System_exclusive, 8, 67, 16, 76, 0, 0, 126, 0, 247
1, 2, System_exclusive, 8, 67, 16, 76, 8, 9, 7, 1, 247
1, 3, Control_c, 0, 0, 108
1, 3, Control_c, 1, 0, 108
1, 3, Control_c, 2, 0, 0
1, 3, Control_c, 3, 0, 0
1, 3, Control_c, 4, 0, 0
1, 3, Control_c, 5, 0, 0
1, 3, Control_c, 6, 0, 0
1, 3, Control_c, 7, 0, 0
1, 3, Control_c, 8, 0, 0
1, 3, Control_c, 9, 0, 127
1, 3, Control_c, 10, 0, 0
1, 3, Control_c, 11, 0, 0
1, 3, Control_c, 12, 0, 0
1, 3, Control_c, 13, 0, 0
1, 3, Control_c, 14, 0, 0
1, 3, Control_c, 15, 0, 0
1, 4, Control_c, 0, 32, 0
1, 4, Control_c, 1, 32, 0
1, 4, Control_c, 2, 32, 0
1, 4, Control_c, 3, 32, 0
1, 4, Control_c, 4, 32, 0
1, 4, Control_c, 5, 32, 0
1, 4, Control_c, 6, 32, 0
1, 4, Control_c, 7, 32, 0
1, 4, Control_c, 8, 32, 0
1, 4, Control_c, 9, 32, 0
1, 4, Control_c, 10, 32, 0
1, 4, Control_c, 11, 32, 0
1, 4, Control_c, 12, 32, 0
1, 4, Control_c, 13, 32, 0
1, 4, Control_c, 14, 32, 0
1, 4, Control_c, 15, 32, 0
1, 5, Program_c, 0, 0
1, 5, Program_c, 1, 0
1, 5, Program_c, 2, 0
1, 5, Program_c, 3, 0
1, 5, Program_c, 4, 0
1, 5, Program_c, 5, 0
1, 5, Program_c, 6, 0
1, 5, Program_c, 7, 0
1, 5, Program_c, 8, 0
1, 5, Program_c, 9, 0
1, 5, Program_c, 10, 0
1, 5, Program_c, 11, 0
1, 5, Program_c, 12, 0
1, 5, Program_c, 13, 0
1, 5, Program_c, 14, 0
1, 5, Program_c, 15, 0
1, 6, Control_c, 0, 7, 100
1, 6, Control_c, 1, 7, 100
1, 6, Control_c, 2, 7, 100
1, 6, Control_c, 3, 7, 100
1, 6, Control_c, 4, 7, 100
1, 6, Control_c, 5, 7, 100
1, 6, Control_c, 6, 7, 100
1, 6, Control_c, 7, 7, 100
1, 6, Control_c, 8, 7, 100
1, 6, Control_c, 9, 7, 100
1, 6, Control_c, 10, 7, 100
1, 6, Control_c, 11, 7, 100
1, 6, Control_c, 12, 7, 100
1, 6, Control_c, 13, 7, 100
1, 6, Control_c, 14, 7, 100
1, 6, Control_c, 15, 7, 100
1, 42, Control_c, 0, 64, 15
1, 42, Control_c, 0, 67, 15
1, 79, Control_c, 0, 64, 31
1, 79, Control_c, 0, 67, 31
1, 116, Control_c, 0, 64, 46
1, 116, Control_c, 0, 67, 46
1, 153, Control_c, 0, 64, 63
1, 153, Control_c, 0, 67, 63
1, 190, Control_c, 0, 64, 77
1, 190, Control_c, 0, 67, 77
1, 226, Control_c, 0, 64, 94
1, 226, Control_c, 0, 67, 94
1, 263, Control_c, 0, 64, 108
1, 263, Control_c, 0, 67, 108
1, 300, Control_c, 0, 64, 127
1, 300, Control_c, 0, 67, 127
1, 382, Note_on_c, 0, 70, 54
1, 392, Note_on_c, 0, 42, 31
1, 393, Note_on_c, 0, 49, 23
1, 725, Note_on_c, 0, 58, 33
1, 852, Note_on_c, 0, 61, 39
1, 944, Note_off_c, 0, 61, 52
1, 957, Note_off_c, 0, 58, 29
1, 994, Note_on_c, 0, 66, 34
1, 1104, Note_on_c, 0, 61, 44
1, 1106, Note_off_c, 0, 66, 37
1, 1150, Note_off_c, 0, 61, 57
1, 1184, Note_on_c, 0, 58, 30
1, 1227, Note_off_c, 0, 58, 53
1, 1264, Note_on_c, 0, 61, 41
1, 1305, Note_off_c, 0, 61, 58
1, 1331, Note_on_c, 0, 58, 46
1, 1399, Note_off_c, 0, 58, 48
1, 1425, Note_on_c, 0, 61, 50
1, 1479, Note_off_c, 0, 61, 55
1, 1532, Note_off_c, 0, 49, 36
1, 1541, Note_on_c, 0, 66, 32
1, 1600, Note_off_c, 0, 42, 40
1, 1618, Note_on_c, 0, 61, 40
1, 1655, Note_off_c, 0, 70, 32
1, 1716, Note_on_c, 0, 58, 30
1, 1823, Note_on_c, 0, 70, 57
1, 1835, Note_on_c, 0, 49, 22
1, 1845, Note_on_c, 0, 42, 34
1, 1859, Note_off_c, 0, 58, 36
1, 1947, Note_off_c, 0, 61, 40
1, 1981, Note_off_c, 0, 66, 40
1, 1989, Note_on_c, 0, 58, 41
1, 2041, Note_off_c, 0, 58, 57
1, 2069, Note_on_c, 0, 61, 48
1, 2120, Note_off_c, 0, 61, 56
1, 2183, Note_on_c, 0, 66, 42
1, 2201, Note_off_c, 0, 49, 37
1, 2247, Note_on_c, 0, 61, 48
1, 2258, Note_off_c, 0, 42, 37
1, 2283, Note_off_c, 0, 70, 38
1, 2336, Note_on_c, 0, 58, 44
1, 2411, Note_on_c, 0, 70, 71
1, 2416, Note_off_c, 0, 58, 58
1, 2421, Note_on_c, 0, 49, 40
1, 2424, Note_on_c, 0, 42, 45
1, 2473, Note_off_c, 0, 61, 47
1, 2546, Note_on_c, 0, 58, 51
1, 2573, Note_off_c, 0, 66, 32
1, 2623, Note_on_c, 0, 61, 51
1, 2624, Note_off_c, 0, 58, 57
1, 2711, Note_off_c, 0, 61, 55
1, 2746, Note_on_c, 0, 66, 47
1, 2765, Note_off_c, 0, 49, 37
1, 2861, Note_on_c, 0, 61, 48
1, 2880, Note_off_c, 0, 70, 52
1, 2949, Note_off_c, 0, 61, 60
1, 2965, Note_on_c, 0, 58, 54
1, 3125, Note_on_c, 0, 51, 42
1, 3142, Note_on_c, 0, 39, 44
1, 3152, Note_on_c, 0, 70, 71
1, 3199, Control_c, 0, 64, 106
1, 3214, Control_c, 0, 64, 92
1, 3221, Note_off_c, 0, 58, 31
1, 3229, Control_c, 0, 64, 83
1, 3244, Control_c, 0, 64, 77
1, 3259, Control_c, 0, 64, 71
1, 3269, Note_off_c, 0, 42, 36
1, 3274, Control_c, 0, 64, 64
1, 3288, Control_c, 0, 64, 52
1, 3303, Control_c, 0, 64, 0
1, 3318, Note_off_c, 0, 66, 35
1, 3364, Note_on_c, 0, 58, 37
1, 3421, Control_c, 0, 64, 29
1, 3444, Control_c, 0, 64, 44
1, 3458, Control_c, 0, 64, 52
1, 3473, Control_c, 0, 64, 59
1, 3486, Note_on_c, 0, 63, 42
1, 3488, Control_c, 0, 64, 64
1, 3503, Control_c, 0, 64, 67
1, 3518, Control_c, 0, 64, 71
1, 3533, Control_c, 0, 64, 76
1, 3547, Control_c, 0, 64, 81
1, 3562, Control_c, 0, 64, 85
1, 3563, Note_off_c, 0, 63, 58
1, 3577, Control_c, 0, 64, 91
1, 3592, Control_c, 0, 64, 94
1, 3593, Note_off_c, 0, 58, 26
1, 3607, Control_c, 0, 64, 96
1, 3621, Control_c, 0, 64, 97
1, 3631, Note_on_c, 0, 66, 32
1, 3712, Note_on_c, 0, 63, 42
1, 3721, Note_off_c, 0, 66, 34
1, 3753, Note_off_c, 0, 63, 55
1, 3775, Note_on_c, 0, 58, 43
1, 3824, Note_off_c, 0, 58, 53
1, 3883, Note_on_c, 0, 63, 30
1, 3917, Note_off_c, 0, 63, 47
1, 3948, Note_on_c, 0, 58, 38
1, 4004, Note_off_c, 0, 58, 47
1, 4030, Note_on_c, 0, 63, 38
1, 4074, Note_off_c, 0, 63, 54
1, 4147, Note_on_c, 0, 66, 33
1, 4199, Note_off_c, 0, 70, 37
1, 4237, Note_on_c, 0, 63, 25
1, 4281, Control_c, 0, 64, 97
1, 4288, Note_off_c, 0, 63, 43
1, 4295, Note_off_c, 0, 66, 33
1, 4320, Note_on_c, 0, 58, 42
1, 4341, Control_c, 0, 64, 98
1, 4382, Note_off_c, 0, 58, 56
1, 4414, Note_on_c, 0, 66, 56
1, 4535, Control_c, 0, 64, 97
1, 4552, Note_on_c, 0, 54, 36
1, 4618, Note_off_c, 0, 54, 49
1, 4637, Note_on_c, 0, 58, 44
1, 4653, Control_c, 0, 64, 97
1, 4681, Note_off_c, 0, 58, 60
1, 4737, Note_on_c, 0, 63, 36
1, 4771, Control_c, 0, 64, 96
1, 4833, Note_off_c, 0, 51, 39
1, 4837, Note_on_c, 0, 58, 35
1, 4880, Note_off_c, 0, 58, 49
1, 4907, Note_off_c, 0, 63, 31
1, 4908, Note_on_c, 0, 54, 42
1, 4983, Note_off_c, 0, 54, 52
1, 5030, Note_on_c, 0, 58, 41
1, 5074, Note_off_c, 0, 58, 58
1, 5134, Control_c, 0, 64, 97
1, 5140, Note_on_c, 0, 54, 33
1, 5194, Note_off_c, 0, 54, 45
1, 5198, Note_on_c, 0, 58, 39
1, 5208, Control_c, 0, 64, 97
1, 5253, Note_off_c, 0, 58, 53
1, 5289, Note_off_c, 0, 39, 37
1, 5307, Note_on_c, 0, 63, 41
1, 5327, Control_c, 0, 64, 98
1, 5434, Note_off_c, 0, 66, 29
1, 5480, Note_on_c, 0, 58, 7
1, 5490, Control_c, 0, 64, 97
1, 5523, Note_off_c, 0, 63, 28
1, 5543, Note_on_c, 0, 54, 39
1, 5563, Note_off_c, 0, 58, 35
1, 5603, Note_off_c, 0, 54, 57
1, 5638, Control_c, 0, 64, 97
1, 5668, Control_c, 0, 64, 96
1, 5690, Control_c, 0, 64, 95
1, 5705, Control_c, 0, 64, 94
1, 5720, Control_c, 0, 64, 93
1, 5735, Control_c, 0, 64, 92
1, 5739, Note_on_c, 0, 35, 36
1, 5749, Control_c, 0, 64, 90
1, 5764, Control_c, 0, 64, 88
1, 5765, Note_on_c, 0, 68, 52
1, 5779, Control_c, 0, 64, 86
1, 5789, Note_on_c, 0, 47, 5
1, 5794, Control_c, 0, 64, 85
1, 5809, Control_c, 0, 64, 82
1, 5823, Control_c, 0, 64, 78
1, 5838, Control_c, 0, 64, 71
1, 5853, Control_c, 0, 64, 64
1, 5868, Control_c, 0, 64, 55
1, 5883, Control_c, 0, 64, 36
1, 5897, Control_c, 0, 64, 22
1, 5939, Note_on_c, 0, 56, 39
1, 5986, Control_c, 0, 64, 25
1, 6001, Control_c, 0, 64, 33
1, 6016, Control_c, 0, 64, 43
1, 6031, Control_c, 0, 64, 50
1, 6046, Control_c, 0, 64, 54
1, 6056, Note_on_c, 0, 59, 38
1, 6061, Control_c, 0, 64, 57
1, 6076, Control_c, 0, 64, 60
1, 6091, Control_c, 0, 64, 62
1, 6106, Control_c, 0, 64, 64
1, 6120, Note_off_c, 0, 56, 37
1, 6120, Control_c, 0, 64, 65
1, 6132, Note_off_c, 0, 59, 56
1, 6135, Control_c, 0, 64, 67
1, 6150, Control_c, 0, 64, 68
1, 6165, Control_c, 0, 64, 71
1, 6180, Control_c, 0, 64, 74
1, 6181, Note_on_c, 0, 63, 27
1, 6195, Control_c, 0, 64, 77
1, 6210, Control_c, 0, 64, 79
1, 6225, Control_c, 0, 64, 81
1, 6239, Control_c, 0, 64, 82
1, 6281, Note_on_c, 0, 59, 33
1, 6284, Note_off_c, 0, 63, 34
1, 6284, Control_c, 0, 64, 83
1, 6299, Control_c, 0, 64, 83
1, 6328, Control_c, 0, 64, 84
1, 6329, Note_off_c, 0, 59, 46
1, 6339, Note_on_c, 0, 56, 38
1, 6357, Control_c, 0, 64, 84
1, 6372, Control_c, 0, 64, 85
1, 6395, Note_off_c, 0, 56, 47
1, 6417, Control_c, 0, 64, 85
1, 6440, Note_on_c, 0, 59, 38
1, 6454, Control_c, 0, 64, 86
1, 6469, Control_c, 0, 64, 86
1, 6482, Note_off_c, 0, 59, 57
1, 6513, Control_c, 0, 64, 87
1, 6537, Note_on_c, 0, 56, 28
1, 6558, Control_c, 0, 64, 88
1, 6572, Control_c, 0, 64, 88
1, 6584, Note_off_c, 0, 56, 46
1, 6596, Note_on_c, 0, 59, 49
1, 6617, Control_c, 0, 64, 89
1, 6618, Note_off_c, 0, 47, 38
1, 6650, Note_off_c, 0, 59, 54
1, 6737, Note_on_c, 0, 63, 35
1, 6764, Note_off_c, 0, 35, 33
1, 6830, Note_on_c, 0, 59, 25
1, 6890, Note_off_c, 0, 68, 36
1, 6911, Note_on_c, 0, 56, 33
1, 6958, Control_c, 0, 64, 88
1, 6988, Control_c, 0, 64, 87
1, 7003, Control_c, 0, 64, 87
1, 7018, Control_c, 0, 64, 86
1, 7033, Control_c, 0, 64, 86
1, 7048, Note_on_c, 0, 66, 51
1, 7050, Note_on_c, 0, 37, 31
1, 7054, Note_on_c, 0, 49, 25
1, 7065, Note_off_c, 0, 56, 40
1, 7077, Control_c, 0, 64, 85
1, 7092, Control_c, 0, 64, 81
1, 7106, Control_c, 0, 64, 72
1, 7121, Control_c, 0, 64, 60
1, 7127, Note_off_c, 0, 59, 42
1, 7136, Control_c, 0, 64, 37
1, 7147, Note_off_c, 0, 63, 34
1, 7151, Control_c, 0, 64, 24
1, 7166, Control_c, 0, 64, 28
1, 7188, Control_c, 0, 64, 38
1, 7202, Note_on_c, 0, 56, 42
1, 7202, Control_c, 0, 64, 50
1, 7217, Control_c, 0, 64, 60
1, 7232, Control_c, 0, 64, 64
1, 7247, Control_c, 0, 64, 67
1, 7262, Control_c, 0, 64, 69
1, 7277, Control_c, 0, 64, 72
1, 7292, Control_c, 0, 64, 75
1, 7307, Control_c, 0, 64, 79
1, 7321, Control_c, 0, 64, 82
1, 7327, Note_off_c, 0, 66, 63
1, 7334, Note_on_c, 0, 59, 26
1, 7336, Control_c, 0, 64, 86
1, 7351, Control_c, 0, 64, 91
1, 7366, Control_c, 0, 64, 97
1, 7381, Control_c, 0, 64, 104
1, 7386, Note_on_c, 0, 65, 57
1, 7395, Control_c, 0, 64, 111
1, 7410, Control_c, 0, 64, 117
1, 7425, Control_c, 0, 64, 123
1, 7428, Note_off_c, 0, 56, 37
1, 7440, Control_c, 0, 64, 127
1, 7489, Note_off_c, 0, 37, 40
1, 7502, Note_on_c, 0, 56, 30
1, 7545, Note_off_c, 0, 59, 0
1, 7565, Note_on_c, 0, 59, 22
1, 7635, Note_off_c, 0, 56, 35
1, 7647, Note_off_c, 0, 49, 38
1, 7673, Note_on_c, 0, 63, 63
1, 7760, Note_off_c, 0, 59, 41
1, 7766, Note_on_c, 0, 56, 46
1, 7879, Note_off_c, 0, 56, 38
1, 7885, Note_on_c, 0, 59, 47
1, 7966, Control_c, 0, 64, 102
1, 7967, Note_on_c, 0, 47, 43
1, 7971, Note_on_c, 0, 61, 66
1, 7977, Note_on_c, 0, 49, 40
1, 7981, Control_c, 0, 64, 81
1, 7996, Control_c, 0, 64, 67
1, 8006, Note_off_c, 0, 59, 38
1, 8011, Control_c, 0, 64, 50
1, 8025, Control_c, 0, 64, 16
1, 8040, Control_c, 0, 64, 23
1, 8055, Note_off_c, 0, 65, 55
1, 8055, Control_c, 0, 64, 39
1, 8070, Control_c, 0, 64, 54
1, 8085, Control_c, 0, 64, 63
1, 8100, Control_c, 0, 64, 67
1, 8103, Note_off_c, 0, 63, 57
1, 8115, Control_c, 0, 64, 73
1, 8125, Note_on_c, 0, 53, 48
1, 8129, Control_c, 0, 64, 80
1, 8144, Control_c, 0, 64, 87
1, 8151, Note_off_c, 0, 49, 51
1, 8159, Control_c, 0, 64, 93
1, 8174, Control_c, 0, 64, 97
1, 8189, Control_c, 0, 64, 99
1, 8212, Note_on_c, 0, 56, 45
1, 8233, Control_c, 0, 64, 99
1, 8248, Control_c, 0, 64, 98
1, 8249, Note_off_c, 0, 53, 39
1, 8258, Note_off_c, 0, 56, 56
1, 8263, Control_c, 0, 64, 97
1, 8287, Note_off_c, 0, 47, 36
1, 8292, Control_c, 0, 64, 97
1, 8293, Note_on_c, 0, 46, 45
1, 8307, Control_c, 0, 64, 95
1, 8314, Note_on_c, 0, 49, 38
1, 8320, Note_on_c, 0, 66, 67
1, 8322, Control_c, 0, 64, 87
1, 8336, Control_c, 0, 64, 75
1, 8351, Control_c, 0, 64, 64
1, 8366, Control_c, 0, 64, 41
1, 8368, Note_off_c, 0, 61, 55
1, 8381, Control_c, 0, 64, 0
1, 8425, Control_c, 0, 64, 12
1, 8440, Control_c, 0, 64, 44
1, 8455, Control_c, 0, 64, 59
1, 8463, Note_on_c, 0, 54, 30
1, 8470, Control_c, 0, 64, 65
1, 8486, Control_c, 0, 64, 70
1, 8501, Control_c, 0, 64, 75
1, 8509, Note_off_c, 0, 54, 47
1, 8510, Note_on_c, 0, 58, 49
1, 8515, Control_c, 0, 64, 82
1, 8530, Control_c, 0, 64, 88
1, 8545, Control_c, 0, 64, 95
1, 8559, Control_c, 0, 64, 103
1, 8574, Control_c, 0, 64, 117
1, 8581, Note_off_c, 0, 58, 55
1, 8589, Control_c, 0, 64, 127
1, 8633, Note_on_c, 0, 61, 48
1, 8687, Note_off_c, 0, 66, 54
1, 8698, Note_off_c, 0, 49, 37
1, 8743, Note_on_c, 0, 58, 51
1, 8752, Note_off_c, 0, 61, 56
1, 8815, Note_on_c, 0, 54, 57
1, 8819, Note_off_c, 0, 58, 61
1, 8851, Note_off_c, 0, 54, 64
1, 8937, Note_on_c, 0, 51, 45
1, 8954, Note_on_c, 0, 42, 38
1, 8970, Note_on_c, 0, 70, 67
1, 8981, Control_c, 0, 64, 84
1, 8996, Control_c, 0, 64, 68
1, 9011, Control_c, 0, 64, 51
1, 9026, Control_c, 0, 64, 0
1, 9042, Note_off_c, 0, 46, 35
1, 9085, Control_c, 0, 64, 38
1, 9100, Control_c, 0, 64, 54
1, 9114, Control_c, 0, 64, 63
1, 9116, Note_off_c, 0, 51, 53
1, 9129, Control_c, 0, 64, 67
1, 9144, Control_c, 0, 64, 71
1, 9152, Note_on_c, 0, 60, 38
1, 9158, Control_c, 0, 64, 77
1, 9173, Control_c, 0, 64, 83
1, 9188, Control_c, 0, 64, 89
1, 9203, Control_c, 0, 64, 95
1, 9218, Control_c, 0, 64, 103
1, 9232, Control_c, 0, 64, 109
1, 9247, Control_c, 0, 64, 110
1, 9262, Note_on_c, 0, 63, 41
1, 9278, Control_c, 0, 64, 109
1, 9290, Note_off_c, 0, 42, 53
1, 9301, Note_off_c, 0, 63, 53
1, 9337, Control_c, 0, 64, 108
1, 9352, Control_c, 0, 64, 107
1, 9362, Note_on_c, 0, 66, 40
1, 9374, Note_off_c, 0, 60, 42
1, 9381, Control_c, 0, 64, 107
1, 9487, Note_on_c, 0, 63, 36
1, 9528, Note_off_c, 0, 66, 29
1, 9560, Note_off_c, 0, 63, 51
1, 9581, Control_c, 0, 64, 106
1, 9596, Control_c, 0, 64, 106
1, 9602, Note_on_c, 0, 60, 35
1, 9611, Control_c, 0, 64, 105
1, 9626, Control_c, 0, 64, 105
1, 9641, Control_c, 0, 64, 104
1, 9655, Control_c, 0, 64, 104
1, 9670, Control_c, 0, 64, 102
1, 9685, Control_c, 0, 64, 100
1, 9700, Control_c, 0, 64, 98
1, 9715, Control_c, 0, 64, 94
1, 9729, Control_c, 0, 64, 90
1, 9744, Control_c, 0, 64, 87
1, 9759, Control_c, 0, 64, 85
1, 9772, Note_off_c, 0, 70, 53
1, 9774, Control_c, 0, 64, 82
1, 9788, Control_c, 0, 64, 74
1, 9793, Note_on_c, 0, 37, 32
1, 9802, Note_on_c, 0, 68, 44
1, 9803, Control_c, 0, 64, 65
1, 9809, Note_off_c, 0, 60, 42
1, 9818, Control_c, 0, 64, 46
1, 9833, Control_c, 0, 64, 0
1, 9892, Control_c, 0, 64, 15
1, 9906, Control_c, 0, 64, 43
1, 9921, Control_c, 0, 64, 54
1, 9936, Control_c, 0, 64, 61
1, 9951, Control_c, 0, 64, 64
1, 9966, Control_c, 0, 64, 68
1, 9981, Control_c, 0, 64, 72
1, 9996, Control_c, 0, 64, 78
1, 10010, Control_c, 0, 64, 83
1, 10025, Control_c, 0, 64, 89
1, 10040, Control_c, 0, 64, 94
1, 10055, Control_c, 0, 64, 98
1, 10070, Control_c, 0, 64, 101
1, 10074, Note_off_c, 0, 37, 40
1, 10080, Note_on_c, 0, 56, 36
1, 10085, Control_c, 0, 64, 103
1, 10100, Control_c, 0, 64, 104
1, 10168, Note_on_c, 0, 61, 41
1, 10182, Control_c, 0, 64, 103
1, 10197, Control_c, 0, 64, 103
1, 10241, Control_c, 0, 64, 102
1, 10290, Note_off_c, 0, 56, 28
1, 10316, Note_off_c, 0, 61, 37
1, 10318, Note_on_c, 0, 53, 38
1, 10350, Note_on_c, 0, 65, 34
1, 10388, Note_off_c, 0, 53, 49
1, 10490, Note_on_c, 0, 61, 40
1, 10505, Note_off_c, 0, 65, 31
1, 10554, Note_off_c, 0, 61, 51
1, 10573, Note_on_c, 0, 56, 42
1, 10597, Control_c, 0, 64, 103
1, 10611, Control_c, 0, 64, 103
1, 10648, Note_off_c, 0, 56, 47
1, 10656, Control_c, 0, 64, 104
1, 10663, Note_on_c, 0, 61, 25
1, 10671, Control_c, 0, 64, 104
1, 10685, Control_c, 0, 64, 105
1, 10700, Control_c, 0, 64, 106
1, 10715, Control_c, 0, 64, 106
1, 10729, Control_c, 0, 64, 107
1, 10744, Control_c, 0, 64, 108
1, 10759, Control_c, 0, 64, 110
1, 10774, Control_c, 0, 64, 113
1, 10776, Note_off_c, 0, 61, 0
1, 10789, Control_c, 0, 64, 116
1, 10793, Note_on_c, 0, 56, 42
1, 10803, Control_c, 0, 64, 119
1, 10813, Poly_aftertouch_c, 0, 61, 0
1, 10818, Control_c, 0, 64, 121
1, 10833, Control_c, 0, 64, 123
1, 10843, Note_off_c, 0, 56, 59
1, 10851, Poly_aftertouch_c, 0, 61, 127
1, 10938, Note_off_c, 0, 68, 19
1, 10979, Note_on_c, 0, 69, 61
1, 11000, Note_on_c, 0, 65, 46
1, 11034, Poly_aftertouch_c, 0, 61, 0
1, 11184, Note_on_c, 0, 61, 40
1, 11197, Note_off_c, 0, 69, 54
1, 11322, Note_on_c, 0, 57, 46
1, 11361, Control_c, 0, 64, 121
1, 11376, Control_c, 0, 64, 119
1, 11391, Control_c, 0, 64, 117
1, 11406, Control_c, 0, 64, 115
1, 11420, Control_c, 0, 64, 113
1, 11435, Control_c, 0, 64, 109
1, 11450, Control_c, 0, 64, 104
1, 11451, Note_on_c, 0, 49, 28
1, 11465, Control_c, 0, 64, 99
1, 11477, Note_on_c, 0, 42, 41
1, 11480, Control_c, 0, 64, 95
1, 11483, Note_off_c, 0, 57, 34
1, 11484, Note_on_c, 0, 70, 64
1, 11489, Note_off_c, 0, 65, 54
1, 11495, Control_c, 0, 64, 92
1, 11509, Control_c, 0, 64, 91
1, 11510, Note_off_c, 0, 61, 35
1, 11524, Control_c, 0, 64, 91
1, 11539, Control_c, 0, 64, 89
1, 11553, Control_c, 0, 64, 86
1, 11568, Control_c, 0, 64, 78
1, 11583, Control_c, 0, 64, 68
1, 11598, Control_c, 0, 64, 58
1, 11613, Control_c, 0, 64, 26
1, 11627, Control_c, 0, 64, 0
1, 11723, Note_on_c, 0, 58, 33
1, 11725, Control_c, 0, 64, 27
1, 11739, Control_c, 0, 64, 42
1, 11754, Control_c, 0, 64, 51
1, 11769, Control_c, 0, 64, 58
1, 11784, Control_c, 0, 64, 62
1, 11786, Note_on_c, 0, 61, 41
1, 11799, Control_c, 0, 64, 65
1, 11814, Control_c, 0, 64, 69
1, 11829, Control_c, 0, 64, 72
1, 11844, Control_c, 0, 64, 77
1, 11858, Control_c, 0, 64, 80
1, 11870, Note_off_c, 0, 61, 59
1, 11873, Control_c, 0, 64, 84
1, 11888, Control_c, 0, 64, 87
1, 11903, Control_c, 0, 64, 91
1, 11918, Control_c, 0, 64, 94
1, 11920, Note_on_c, 0, 66, 42
1, 11926, Note_off_c, 0, 58, 34
1, 11932, Control_c, 0, 64, 97
1, 11947, Control_c, 0, 64, 99
1, 11962, Control_c, 0, 64, 101
1, 11976, Control_c, 0, 64, 101
1, 12006, Control_c, 0, 64, 102
1, 12018, Note_on_c, 0, 61, 41
1, 12049, Note_off_c, 0, 66, 30
1, 12050, Note_off_c, 0, 61, 54
1, 12080, Note_on_c, 0, 58, 44
1, 12121, Note_off_c, 0, 58, 58
1, 12139, Control_c, 0, 64, 102
1, 12160, Note_on_c, 0, 61, 48
1, 12207, Note_off_c, 0, 61, 59
1, 12243, Control_c, 0, 64, 103
1, 12244, Note_on_c, 0, 58, 46
1, 12258, Control_c, 0, 64, 104
1, 12273, Control_c, 0, 64, 106
1, 12285, Note_off_c, 0, 58, 52
1, 12288, Control_c, 0, 64, 108
1, 12303, Control_c, 0, 64, 111
1, 12318, Control_c, 0, 64, 117
1, 12321, Note_on_c, 0, 61, 46
1, 12332, Control_c, 0, 64, 127
1, 12364, Note_off_c, 0, 61, 53
1, 12391, Note_on_c, 0, 66, 46
1, 12447, Note_off_c, 0, 49, 41
1, 12474, Note_off_c, 0, 42, 35
1, 12474, Note_off_c, 0, 70, 50
1, 12493, Note_on_c, 0, 61, 45
1, 12562, Note_on_c, 0, 58, 51
1, 12631, Note_off_c, 0, 58, 55
1, 12637, Note_on_c, 0, 70, 68
1, 12640, Note_on_c, 0, 42, 46
1, 12648, Note_on_c, 0, 49, 39
1, 12741, Note_off_c, 0, 61, 38
1, 12758, Note_off_c, 0, 66, 41
1, 12759, Note_on_c, 0, 58, 54
1, 12793, Note_off_c, 0, 58, 61
1, 12836, Note_on_c, 0, 61, 45
1, 12905, Note_off_c, 0, 61, 57
1, 12930, Note_on_c, 0, 66, 53
1, 13015, Note_off_c, 0, 70, 38
1, 13033, Note_on_c, 0, 61, 60
1, 13099, Note_on_c, 0, 58, 61
1, 13146, Poly_aftertouch_c, 0, 45, 127
1, 13149, Note_off_c, 0, 49, 39
1, 13188, Note_off_c, 0, 42, 25
1, 13200, Note_off_c, 0, 58, 55
1, 13215, Note_on_c, 0, 70, 80
1, 13219, Note_on_c, 0, 41, 52
1, 13229, Note_on_c, 0, 50, 49
1, 13266, Control_c, 0, 64, 94
1, 13282, Control_c, 0, 64, 72
1, 13297, Control_c, 0, 64, 56
1, 13298, Poly_aftertouch_c, 0, 45, 0
1, 13311, Control_c, 0, 64, 0
1, 13313, Note_off_c, 0, 61, 55
1, 13338, Note_off_c, 0, 66, 51
1, 13355, Note_on_c, 0, 58, 40
1, 13371, Control_c, 0, 64, 44
1, 13385, Control_c, 0, 64, 60
1, 13400, Control_c, 0, 64, 67
1, 13415, Control_c, 0, 64, 74
1, 13415, Control_c, 0, 67, 114
1, 13430, Control_c, 0, 64, 87
1, 13430, Control_c, 0, 67, 90
1, 13444, Control_c, 0, 64, 113
1, 13444, Control_c, 0, 67, 70
1, 13445, Note_on_c, 0, 62, 51
1, 13450, Note_off_c, 0, 58, 40
1, 13459, Control_c, 0, 64, 127
1, 13459, Control_c, 0, 67, 49
1, 13474, Control_c, 0, 67, 26
1, 13489, Control_c, 0, 67, 0
1, 13571, Note_off_c, 0, 62, 53
1, 13614, Note_on_c, 0, 68, 30
1, 13628, Note_off_c, 0, 50, 37
1, 13737, Note_on_c, 0, 62, 46
1, 13745, Note_off_c, 0, 70, 52
1, 13830, Note_on_c, 0, 58, 55
1, 13842, Note_off_c, 0, 62, 60
1, 13969, Control_c, 0, 64, 114
1, 13984, Control_c, 0, 64, 101
1, 13999, Note_on_c, 0, 70, 72
1, 13999, Control_c, 0, 64, 92
1, 14004, Note_on_c, 0, 51, 40
1, 14014, Control_c, 0, 64, 83
1, 14018, Note_off_c, 0, 58, 29
1, 14025, Note_on_c, 0, 39, 40
1, 14029, Control_c, 0, 64, 78
1, 14044, Control_c, 0, 64, 75
1, 14059, Control_c, 0, 64, 71
1, 14074, Control_c, 0, 64, 66
1, 14089, Control_c, 0, 64, 57
1, 14104, Control_c, 0, 64, 20
1, 14119, Control_c, 0, 64, 0
1, 14136, Note_off_c, 0, 41, 50
1, 14194, Note_on_c, 0, 58, 36
1, 14222, Control_c, 0, 64, 22
1, 14237, Control_c, 0, 64, 39
1, 14242, Note_off_c, 0, 68, 34
1, 14252, Control_c, 0, 64, 50
1, 14267, Control_c, 0, 64, 58
1, 14282, Control_c, 0, 64, 62
1, 14284, Note_on_c, 0, 63, 43
1, 14297, Control_c, 0, 64, 65
1, 14312, Control_c, 0, 64, 67
1, 14326, Control_c, 0, 64, 69
1, 14326, Control_c, 0, 67, 9
1, 14337, Note_off_c, 0, 63, 57
1, 14341, Control_c, 0, 64, 72
1, 14341, Control_c, 0, 67, 15
1, 14356, Note_off_c, 0, 58, 29
1, 14356, Control_c, 0, 64, 75
1, 14356, Control_c, 0, 67, 21
1, 14370, Control_c, 0, 64, 77
1, 14370, Control_c, 0, 67, 28
1, 14385, Control_c, 0, 64, 80
1, 14385, Control_c, 0, 67, 33
1, 14394, Note_on_c, 0, 66, 40
1, 14400, Control_c, 0, 64, 82
1, 14400, Control_c, 0, 67, 37
1, 14415, Control_c, 0, 64, 84
1, 14415, Control_c, 0, 67, 42
1, 14430, Control_c, 0, 64, 85
1, 14430, Control_c, 0, 67, 48
1, 14444, Control_c, 0, 64, 85
1, 14444, Control_c, 0, 67, 55
1, 14459, Control_c, 0, 64, 86
1, 14459, Control_c, 0, 67, 66
1, 14474, Control_c, 0, 64, 87
1, 14474, Control_c, 0, 67, 78
1, 14483, Note_off_c, 0, 66, 49
1, 14487, Note_on_c, 0, 63, 40
1, 14489, Control_c, 0, 67, 90
1, 14504, Control_c, 0, 67, 101
1, 14518, Control_c, 0, 67, 112
1, 14533, Note_off_c, 0, 63, 59
1, 14533, Control_c, 0, 67, 122
1, 14548, Control_c, 0, 67, 127
1, 14560, Note_on_c, 0, 58, 48
1, 14602, Note_off_c, 0, 58, 58
1, 14658, Note_on_c, 0, 63, 43
1, 14708, Note_off_c, 0, 63, 52
1, 14734, Control_c, 0, 64, 86
1, 14752, Note_on_c, 0, 58, 34
1, 14795, Note_off_c, 0, 58, 46
1, 14822, Note_on_c, 0, 63, 43
1, 14838, Control_c, 0, 64, 87
1, 14856, Note_off_c, 0, 63, 50
1, 14867, Control_c, 0, 64, 87
1, 14883, Control_c, 0, 64, 88
1, 14898, Control_c, 0, 64, 88
1, 14905, Note_on_c, 0, 66, 45
1, 14955, Note_off_c, 0, 70, 51
1, 14980, Note_on_c, 0, 63, 39
1, 15047, Note_off_c, 0, 63, 52
1, 15063, Note_off_c, 0, 66, 30
1, 15072, Note_on_c, 0, 58, 45
1, 15141, Note_off_c, 0, 58, 55
1, 15189, Note_on_c, 0, 66, 53
1, 15254, Control_c, 0, 64, 89
1, 15260, Note_off_c, 0, 51, 36
1, 15298, Control_c, 0, 64, 89
1, 15313, Control_c, 0, 64, 90
1, 15323, Note_on_c, 0, 54, 19
1, 15328, Control_c, 0, 64, 91
1, 15342, Control_c, 0, 64, 91
1, 15367, Note_off_c, 0, 54, 53
1, 15379, Note_on_c, 0, 58, 45
1, 15424, Control_c, 0, 64, 92
1, 15434, Note_off_c, 0, 58, 60
1, 15440, Note_off_c, 0, 39, 41
1, 15454, Control_c, 0, 64, 92
1, 15468, Control_c, 0, 64, 93
1, 15483, Control_c, 0, 64, 93
1, 15487, Note_on_c, 0, 63, 47
1, 15498, Control_c, 0, 64, 94
1, 15513, Control_c, 0, 64, 94
1, 15528, Control_c, 0, 64, 95
1, 15543, Control_c, 0, 64, 95
1, 15557, Control_c, 0, 64, 96
1, 15568, Note_on_c, 0, 58, 46
1, 15572, Control_c, 0, 64, 96
1, 15587, Control_c, 0, 64, 97
1, 15601, Control_c, 0, 64, 98
1, 15616, Control_c, 0, 64, 99
1, 15631, Control_c, 0, 64, 99
1, 15634, Note_on_c, 0, 54, 50
1, 15677, Control_c, 0, 64, 99
1, 15701, Note_off_c, 0, 66, 38
1, 15748, Note_on_c, 0, 65, 64
1, 15758, Note_on_c, 0, 46, 37
1, 15764, Note_on_c, 0, 34, 46
1, 15764, Note_off_c, 0, 54, 36
1, 15766, Control_c, 0, 64, 97
1, 15780, Control_c, 0, 64, 89
1, 15795, Control_c, 0, 64, 76
1, 15810, Control_c, 0, 64, 65
1, 15824, Control_c, 0, 64, 53
1, 15837, Note_off_c, 0, 63, 31
1, 15839, Control_c, 0, 64, 31
1, 15853, Note_off_c, 0, 58, 53
1, 15854, Control_c, 0, 64, 27
1, 15869, Control_c, 0, 64, 34
1, 15884, Control_c, 0, 64, 46
1, 15898, Control_c, 0, 64, 55
1, 15900, Note_on_c, 0, 53, 46
1, 15913, Control_c, 0, 64, 59
1, 15928, Control_c, 0, 64, 63
1, 15943, Control_c, 0, 64, 67
1, 15958, Control_c, 0, 64, 72
1, 15972, Control_c, 0, 64, 80
1, 15987, Control_c, 0, 64, 89
1, 15988, Note_on_c, 0, 56, 54
1, 16002, Control_c, 0, 64, 101
1, 16005, Note_off_c, 0, 53, 40
1, 16017, Control_c, 0, 64, 127
1, 16041, Note_off_c, 0, 56, 59
1, 16078, Note_on_c, 0, 62, 53
1, 16120, Note_off_c, 0, 65, 57
1, 16160, Note_on_c, 0, 56, 55
1, 16180, Note_off_c, 0, 34, 58
1, 16213, Note_off_c, 0, 46, 35
1, 16238, Note_on_c, 0, 53, 51
1, 16261, Note_off_c, 0, 62, 60
1, 16294, Note_off_c, 0, 53, 60
1, 16336, Note_on_c, 0, 35, 57
1, 16342, Note_on_c, 0, 63, 73
1, 16379, Note_on_c, 0, 47, 22
1, 16395, Control_c, 0, 64, 123
1, 16408, Note_off_c, 0, 56, 59
1, 16410, Control_c, 0, 64, 86
1, 16424, Control_c, 0, 64, 66
1, 16439, Control_c, 0, 64, 47
1, 16454, Control_c, 0, 64, 0
1, 16473, Note_on_c, 0, 51, 50
1, 16500, Control_c, 0, 64, 37
1, 16515, Control_c, 0, 64, 53
1, 16523, Note_off_c, 0, 51, 58
1, 16529, Control_c, 0, 64, 63
1, 16544, Control_c, 0, 64, 69
1, 16546, Note_on_c, 0, 54, 56
1, 16559, Control_c, 0, 64, 78
1, 16574, Control_c, 0, 64, 90
1, 16589, Control_c, 0, 64, 107
1, 16603, Control_c, 0, 64, 127
1, 16608, Note_off_c, 0, 54, 54
1, 16631, Note_on_c, 0, 59, 55
1, 16636, Note_off_c, 0, 47, 36
1, 16700, Note_off_c, 0, 35, 55
1, 16707, Note_off_c, 0, 63, 56
1, 16737, Note_off_c, 0, 59, 57
1, 16739, Note_on_c, 0, 54, 51
1, 16810, Note_off_c, 0, 54, 61
1, 16819, Note_on_c, 0, 51, 58
1, 16853, Note_off_c, 0, 51, 64
1, 16951, Note_on_c, 0, 32, 54
1, 16986, Note_on_c, 0, 68, 64
1, 16995, Control_c, 0, 64, 110
1, 17010, Control_c, 0, 64, 84
1, 17025, Control_c, 0, 64, 68
1, 17040, Control_c, 0, 64, 54
1, 17054, Control_c, 0, 64, 0
1, 17114, Control_c, 0, 64, 13
1, 17129, Control_c, 0, 64, 36
1, 17136, Note_on_c, 0, 56, 41
1, 17144, Control_c, 0, 64, 48
1, 17159, Control_c, 0, 64, 57
1, 17173, Control_c, 0, 64, 63
1, 17188, Control_c, 0, 64, 65
1, 17203, Control_c, 0, 64, 67
1, 17205, Note_off_c, 0, 56, 56
1, 17218, Control_c, 0, 64, 69
1, 17233, Control_c, 0, 64, 73
1, 17245, Note_on_c, 0, 59, 41
1, 17247, Control_c, 0, 64, 77
1, 17262, Control_c, 0, 64, 83
1, 17278, Control_c, 0, 64, 88
1, 17293, Control_c, 0, 64, 92
1, 17308, Control_c, 0, 64, 93
1, 17316, Note_off_c, 0, 59, 54
1, 17317, Note_off_c, 0, 32, 57
1, 17396, Control_c, 0, 64, 92
1, 17399, Note_on_c, 0, 63, 37
1, 17411, Control_c, 0, 64, 92
1, 17456, Control_c, 0, 64, 91
1, 17485, Control_c, 0, 64, 91
1, 17503, Note_on_c, 0, 59, 37
1, 17508, Note_off_c, 0, 68, 50
1, 17544, Control_c, 0, 64, 90
1, 17574, Control_c, 0, 64, 90
1, 17588, Control_c, 0, 64, 89
1, 17603, Control_c, 0, 64, 89
1, 17618, Control_c, 0, 64, 88
1, 17633, Control_c, 0, 64, 87
1, 17642, Note_on_c, 0, 56, 29
1, 17648, Control_c, 0, 64, 86
1, 17669, Control_c, 0, 64, 85
1, 17684, Control_c, 0, 64, 85
1, 17699, Control_c, 0, 64, 84
1, 17714, Control_c, 0, 64, 82
1, 17729, Control_c, 0, 64, 80
1, 17743, Control_c, 0, 64, 79
1, 17758, Control_c, 0, 64, 78
1, 17773, Control_c, 0, 64, 77
1, 17793, Note_on_c, 0, 37, 28
1, 17794, Note_off_c, 0, 59, 26
1, 17812, Note_off_c, 0, 63, 24
1, 17817, Control_c, 0, 64, 77
1, 17826, Note_on_c, 0, 66, 51
1, 17828, Poly_aftertouch_c, 0, 49, 127
1, 17832, Control_c, 0, 64, 73
1, 17847, Control_c, 0, 64, 66
1, 17862, Control_c, 0, 64, 57
1, 17865, Note_off_c, 0, 56, 41
1, 17877, Control_c, 0, 64, 29
1, 17892, Control_c, 0, 64, 0
1, 17937, Control_c, 0, 64, 27
1, 17951, Control_c, 0, 64, 42
1, 17966, Control_c, 0, 64, 51
1, 17981, Control_c, 0, 64, 57
1, 17995, Control_c, 0, 64, 61
1, 18001, Note_on_c, 0, 59, 36
1, 18010, Control_c, 0, 64, 64
1, 18025, Control_c, 0, 64, 65
1, 18040, Control_c, 0, 64, 66
1, 18055, Control_c, 0, 64, 68
1, 18071, Control_c, 0, 64, 71
1, 18086, Control_c, 0, 64, 75
1, 18100, Control_c, 0, 64, 79
1, 18109, Note_on_c, 0, 56, 38
1, 18113, Note_off_c, 0, 66, 46
1, 18115, Control_c, 0, 64, 82
1, 18130, Control_c, 0, 64, 83
1, 18145, Control_c, 0, 64, 83
1, 18161, Note_off_c, 0, 59, 56
1, 18174, Control_c, 0, 64, 83
1, 18204, Note_on_c, 0, 65, 53
1, 18204, Control_c, 0, 64, 82
1, 18218, Control_c, 0, 64, 82
1, 18220, Note_off_c, 0, 56, 38
1, 18233, Control_c, 0, 64, 81
1, 18248, Control_c, 0, 64, 81
1, 18263, Control_c, 0, 64, 80
1, 18278, Control_c, 0, 64, 80
1, 18292, Control_c, 0, 64, 79
1, 18307, Control_c, 0, 64, 79
1, 18315, Note_on_c, 0, 59, 44
1, 18337, Control_c, 0, 64, 78
1, 18367, Control_c, 0, 64, 78
1, 18382, Control_c, 0, 64, 77
1, 18412, Control_c, 0, 64, 77
1, 18427, Note_on_c, 0, 56, 36
1, 18455, Note_off_c, 0, 59, 55
1, 18464, Control_c, 0, 64, 76
1, 18479, Control_c, 0, 64, 75
1, 18493, Control_c, 0, 64, 74
1, 18508, Control_c, 0, 64, 72
1, 18510, Note_off_c, 0, 56, 39
1, 18512, Note_on_c, 0, 63, 51
1, 18523, Control_c, 0, 64, 69
1, 18538, Control_c, 0, 64, 66
1, 18553, Control_c, 0, 64, 64
1, 18557, Note_off_c, 0, 65, 52
1, 18567, Control_c, 0, 64, 62
1, 18582, Control_c, 0, 64, 63
1, 18597, Control_c, 0, 64, 63
1, 18609, Note_on_c, 0, 59, 44
1, 18612, Control_c, 0, 64, 65
1, 18626, Control_c, 0, 64, 66
1, 18641, Control_c, 0, 64, 68
1, 18656, Control_c, 0, 64, 69
1, 18671, Control_c, 0, 64, 70
1, 18683, Note_on_c, 0, 56, 33
1, 18686, Control_c, 0, 64, 70
1, 18715, Control_c, 0, 64, 71
1, 18745, Control_c, 0, 64, 71
1, 18760, Note_off_c, 0, 59, 57
1, 18760, Control_c, 0, 64, 72
1, 18774, Control_c, 0, 64, 73
1, 18780, Note_on_c, 0, 65, 57
1, 18789, Control_c, 0, 64, 74
1, 18804, Control_c, 0, 64, 76
1, 18819, Control_c, 0, 64, 79
1, 18819, Note_off_c, 0, 56, 34
1, 18834, Control_c, 0, 64, 81
1, 18849, Control_c, 0, 64, 83
1, 18864, Control_c, 0, 64, 84
1, 18902, Poly_aftertouch_c, 0, 49, 0
1, 18906, Note_off_c, 0, 65, 60
1, 18923, Note_on_c, 0, 59, 43
1, 18991, Note_off_c, 0, 63, 38
1, 19009, Note_off_c, 0, 59, 61
1, 19042, Control_c, 0, 64, 84
1, 19052, Note_on_c, 0, 56, 42
1, 19087, Control_c, 0, 64, 83
1, 19115, Control_c, 0, 64, 83
1, 19130, Control_c, 0, 64, 82
1, 19145, Control_c, 0, 64, 82
1, 19168, Control_c, 0, 64, 81
1, 19170, Note_on_c, 0, 49, 29
1, 19180, Note_off_c, 0, 56, 36
1, 19183, Control_c, 0, 64, 80
1, 19194, Note_on_c, 0, 42, 35
1, 19197, Control_c, 0, 64, 78
1, 19212, Control_c, 0, 64, 78
1, 19215, Note_on_c, 0, 68, 61
1, 19242, Control_c, 0, 64, 77
1, 19256, Control_c, 0, 64, 73
1, 19271, Control_c, 0, 64, 65
1, 19286, Control_c, 0, 64, 53
1, 19301, Control_c, 0, 64, 0
1, 19375, Control_c, 0, 64, 21
1, 19389, Control_c, 0, 64, 38
1, 19404, Note_off_c, 0, 37, 43
1, 19404, Control_c, 0, 64, 49
1, 19419, Control_c, 0, 64, 56
1, 19434, Control_c, 0, 64, 61
1, 19436, Note_on_c, 0, 59, 20
1, 19448, Control_c, 0, 64, 63
1, 19463, Control_c, 0, 64, 64
1, 19478, Control_c, 0, 64, 66
1, 19491, Note_on_c, 0, 61, 39
1, 19493, Control_c, 0, 64, 68
1, 19508, Control_c, 0, 64, 70
1, 19523, Control_c, 0, 64, 72
1, 19537, Control_c, 0, 64, 74
1, 19540, Note_off_c, 0, 59, 32
1, 19550, Note_off_c, 0, 61, 55
1, 19552, Control_c, 0, 64, 75
1, 19567, Control_c, 0, 64, 76
1, 19582, Control_c, 0, 64, 77
1, 19597, Control_c, 0, 64, 77
1, 19612, Control_c, 0, 64, 78
1, 19630, Note_on_c, 0, 65, 30
1, 19676, Note_off_c, 0, 65, 46
1, 19713, Note_on_c, 0, 61, 38
1, 19758, Note_off_c, 0, 61, 58
1, 19776, Control_c, 0, 64, 79
1, 19791, Control_c, 0, 64, 79
1, 19797, Note_on_c, 0, 59, 36
1, 19806, Control_c, 0, 64, 80
1, 19843, Note_off_c, 0, 59, 46
1, 19883, Note_on_c, 0, 61, 40
1, 19925, Note_off_c, 0, 61, 52
1, 19985, Note_on_c, 0, 59, 34
1, 20022, Note_off_c, 0, 59, 48
1, 20044, Note_on_c, 0, 61, 44
1, 20098, Note_off_c, 0, 61, 54
1, 20157, Note_on_c, 0, 65, 33
1, 20214, Note_off_c, 0, 65, 41
1, 20245, Note_on_c, 0, 61, 5
1, 20318, Note_off_c, 0, 61, 38
1, 20323, Note_on_c, 0, 59, 36
1, 20345, Control_c, 0, 64, 79
1, 20380, Note_off_c, 0, 68, 61
1, 20381, Note_off_c, 0, 59, 56
1, 20404, Control_c, 0, 64, 79
1, 20432, Note_on_c, 0, 66, 37
1, 20464, Control_c, 0, 64, 78
1, 20494, Control_c, 0, 64, 78
1, 20509, Control_c, 0, 64, 77
1, 20568, Control_c, 0, 64, 76
1, 20583, Control_c, 0, 64, 72
1, 20598, Control_c, 0, 64, 66
1, 20613, Control_c, 0, 64, 56
1, 20616, Note_on_c, 0, 54, 22
1, 20628, Control_c, 0, 64, 38
1, 20642, Control_c, 0, 64, 21
1, 20664, Control_c, 0, 64, 22
1, 20679, Control_c, 0, 64, 30
1, 20694, Control_c, 0, 64, 41
1, 20696, Note_on_c, 0, 58, 46
1, 20709, Control_c, 0, 64, 51
1, 20724, Control_c, 0, 64, 56
1, 20739, Control_c, 0, 64, 59
1, 20754, Control_c, 0, 64, 62
1, 20764, Note_off_c, 0, 58, 56
1, 20768, Control_c, 0, 64, 64
1, 20783, Control_c, 0, 64, 66
1, 20798, Control_c, 0, 64, 68
1, 20811, Note_off_c, 0, 54, 33
1, 20812, Control_c, 0, 64, 70
1, 20818, Note_on_c, 0, 61, 28
1, 20827, Control_c, 0, 64, 73
1, 20842, Control_c, 0, 64, 75
1, 20857, Control_c, 0, 64, 77
1, 20872, Control_c, 0, 64, 79
1, 20886, Control_c, 0, 64, 79
1, 20901, Control_c, 0, 64, 80
1, 20916, Control_c, 0, 64, 80
1, 20917, Note_off_c, 0, 61, 37
1, 20931, Control_c, 0, 64, 81
1, 20932, Note_on_c, 0, 58, 34
1, 20946, Control_c, 0, 64, 81
1, 20968, Note_off_c, 0, 58, 49
1, 20975, Control_c, 0, 64, 82
1, 20990, Control_c, 0, 64, 82
1, 20998, Note_on_c, 0, 54, 34
1, 21005, Control_c, 0, 64, 83
1, 21019, Control_c, 0, 64, 83
1, 21034, Control_c, 0, 64, 84
1, 21037, Note_off_c, 0, 54, 49
1, 21064, Control_c, 0, 64, 84
1, 21079, Control_c, 0, 64, 85
1, 21080, Note_on_c, 0, 58, 42
1, 21093, Control_c, 0, 64, 86
1, 21108, Control_c, 0, 64, 87
1, 21123, Note_off_c, 0, 58, 54
1, 21138, Control_c, 0, 64, 87
1, 21168, Control_c, 0, 64, 88
1, 21174, Note_on_c, 0, 54, 32
1, 21183, Control_c, 0, 64, 89
1, 21198, Control_c, 0, 64, 90
1, 21212, Control_c, 0, 64, 91
1, 21227, Control_c, 0, 64, 91
1, 21242, Control_c, 0, 64, 92
1, 21262, Note_on_c, 0, 58, 43
1, 21266, Note_off_c, 0, 54, 35
1, 21272, Control_c, 0, 64, 93
1, 21287, Control_c, 0, 64, 93
1, 21302, Control_c, 0, 64, 94
1, 21308, Note_off_c, 0, 58, 56
1, 21317, Control_c, 0, 64, 94
1, 21347, Note_off_c, 0, 42, 40
1, 21347, Control_c, 0, 64, 95
1, 21398, Note_on_c, 0, 61, 41
1, 21401, Note_off_c, 0, 49, 39
1, 21555, Note_on_c, 0, 58, 32
1, 21579, Note_off_c, 0, 66, 34
1, 21612, Note_off_c, 0, 61, 38
1, 21639, Note_on_c, 0, 54, 37
1, 21650, Control_c, 0, 64, 94
1, 21695, Control_c, 0, 64, 94
1, 21708, Note_off_c, 0, 58, 36
1, 21739, Control_c, 0, 64, 93
1, 21769, Control_c, 0, 64, 92
1, 21783, Control_c, 0, 64, 92
1, 21788, Note_off_c, 0, 54, 35
1, 21798, Control_c, 0, 64, 91
1, 21813, Control_c, 0, 64, 91
1, 21828, Control_c, 0, 64, 89
1, 21842, Control_c, 0, 64, 88
1, 21857, Control_c, 0, 64, 86
1, 21872, Control_c, 0, 64, 84
1, 21886, Note_on_c, 0, 68, 63
1, 21886, Note_on_c, 0, 53, 34
1, 21887, Control_c, 0, 64, 83
1, 21897, Note_on_c, 0, 49, 31
1, 21902, Control_c, 0, 64, 82
1, 21916, Control_c, 0, 64, 82
1, 21931, Control_c, 0, 64, 81
1, 21946, Control_c, 0, 64, 79
1, 21961, Control_c, 0, 64, 76
1, 21976, Control_c, 0, 64, 69
1, 21991, Control_c, 0, 64, 62
1, 22006, Control_c, 0, 64, 47
1, 22021, Control_c, 0, 64, 30
1, 22035, Control_c, 0, 64, 27
1, 22080, Control_c, 0, 64, 27
1, 22094, Note_on_c, 0, 56, 34
1, 22096, Control_c, 0, 64, 30
1, 22111, Control_c, 0, 64, 37
1, 22126, Control_c, 0, 64, 45
1, 22140, Control_c, 0, 64, 52
1, 22155, Control_c, 0, 64, 55
1, 22175, Note_off_c, 0, 56, 44
1, 22178, Control_c, 0, 64, 58
1, 22185, Note_on_c, 0, 61, 39
1, 22193, Control_c, 0, 64, 61
1, 22208, Control_c, 0, 64, 64
1, 22222, Control_c, 0, 64, 66
1, 22237, Control_c, 0, 64, 68
1, 22240, Note_off_c, 0, 61, 57
1, 22252, Control_c, 0, 64, 70
1, 22266, Control_c, 0, 64, 72
1, 22281, Control_c, 0, 64, 74
1, 22286, Note_on_c, 0, 65, 39
1, 22296, Control_c, 0, 64, 77
1, 22311, Control_c, 0, 64, 80
1, 22326, Control_c, 0, 64, 82
1, 22340, Control_c, 0, 64, 84
1, 22355, Control_c, 0, 64, 86
1, 22364, Note_off_c, 0, 65, 52
1, 22370, Control_c, 0, 64, 88
1, 22384, Note_on_c, 0, 61, 42
1, 22385, Control_c, 0, 64, 91
1, 22400, Control_c, 0, 64, 93
1, 22414, Control_c, 0, 64, 96
1, 22429, Note_off_c, 0, 61, 61
1, 22429, Control_c, 0, 64, 98
1, 22444, Control_c, 0, 64, 101
1, 22459, Control_c, 0, 64, 104
1, 22460, Note_on_c, 0, 56, 43
1, 22474, Control_c, 0, 64, 108
1, 22489, Control_c, 0, 64, 118
1, 22502, Note_off_c, 0, 56, 57
1, 22503, Control_c, 0, 64, 127
1, 22545, Note_on_c, 0, 61, 50
1, 22591, Note_off_c, 0, 61, 59
1, 22617, Note_on_c, 0, 56, 48
1, 22666, Note_off_c, 0, 56, 56
1, 22717, Note_on_c, 0, 61, 25
1, 22745, Note_off_c, 0, 61, 53
1, 22776, Note_off_c, 0, 53, 41
1, 22783, Note_on_c, 0, 65, 47
1, 22851, Note_on_c, 0, 61, 50
1, 22874, Note_off_c, 0, 68, 53
1, 22960, Note_on_c, 0, 56, 52
1, 22983, Note_off_c, 0, 61, 57
1, 23045, Note_off_c, 0, 56, 57
1, 23084, Note_on_c, 0, 55, 49
1, 23085, Note_on_c, 0, 70, 76
1, 23088, Note_on_c, 0, 51, 46
1, 23094, Note_on_c, 0, 46, 49
1, 23114, Note_on_c, 0, 68, 44
1, 23130, Note_off_c, 0, 65, 62
1, 23143, Note_off_c, 0, 68, 53
1, 23163, Control_c, 0, 64, 95
1, 23178, Control_c, 0, 64, 77
1, 23193, Control_c, 0, 64, 64
1, 23207, Control_c, 0, 64, 47
1, 23210, Note_off_c, 0, 49, 58
1, 23222, Control_c, 0, 64, 23
1, 23237, Control_c, 0, 64, 29
1, 23252, Control_c, 0, 64, 40
1, 23267, Control_c, 0, 64, 52
1, 23281, Control_c, 0, 64, 59
1, 23286, Note_on_c, 0, 61, 46
1, 23296, Control_c, 0, 64, 64
1, 23311, Control_c, 0, 64, 69
1, 23326, Control_c, 0, 64, 78
1, 23341, Control_c, 0, 64, 90
1, 23344, Note_off_c, 0, 61, 52
1, 23356, Control_c, 0, 64, 111
1, 23356, Note_on_c, 0, 63, 50
1, 23371, Control_c, 0, 64, 127
1, 23371, Control_c, 0, 67, 115
1, 23386, Control_c, 0, 67, 99
1, 23401, Control_c, 0, 67, 85
1, 23408, Note_off_c, 0, 63, 55
1, 23415, Control_c, 0, 67, 72
1, 23430, Control_c, 0, 67, 58
1, 23445, Control_c, 0, 67, 43
1, 23453, Note_on_c, 0, 67, 51
1, 23460, Control_c, 0, 67, 30
1, 23475, Control_c, 0, 67, 18
1, 23489, Control_c, 0, 67, 0
1, 23542, Note_off_c, 0, 67, 56
1, 23546, Note_on_c, 0, 63, 47
1, 23595, Note_off_c, 0, 63, 61
1, 23622, Note_on_c, 0, 61, 53
1, 23669, Note_off_c, 0, 61, 61
1, 23711, Note_on_c, 0, 63, 56
1, 23770, Note_off_c, 0, 63, 55
1, 23805, Note_on_c, 0, 61, 44
1, 23841, Note_off_c, 0, 61, 57
1, 23875, Note_on_c, 0, 63, 48
1, 23922, Note_off_c, 0, 63, 56
1, 23933, Note_off_c, 0, 55, 39
1, 23962, Note_on_c, 0, 67, 52
1, 23973, Note_off_c, 0, 51, 55
1, 24048, Note_on_c, 0, 63, 46
1, 24079, Note_off_c, 0, 70, 62
1, 24134, Note_off_c, 0, 63, 60
1, 24153, Note_on_c, 0, 61, 49
1, 24258, Note_on_c, 0, 73, 78
1, 24259, Note_on_c, 0, 56, 37
1, 24261, Note_on_c, 0, 51, 45
1, 24292, Note_on_c, 0, 44, 47
1, 24292, Note_off_c, 0, 61, 37
1, 24327, Control_c, 0, 64, 111
1, 24341, Control_c, 0, 64, 100
1, 24356, Control_c, 0, 64, 93
1, 24371, Control_c, 0, 64, 84
1, 24376, Note_off_c, 0, 67, 58
1, 24385, Control_c, 0, 64, 74
1, 24408, Control_c, 0, 64, 64
1, 24423, Control_c, 0, 64, 44
1, 24426, Note_on_c, 0, 61, 47
1, 24437, Control_c, 0, 64, 0
1, 24438, Note_off_c, 0, 46, 37
1, 24513, Control_c, 0, 64, 20
1, 24525, Note_off_c, 0, 61, 47
1, 24527, Control_c, 0, 64, 45
1, 24542, Control_c, 0, 64, 57
1, 24548, Note_on_c, 0, 63, 39
1, 24557, Control_c, 0, 64, 63
1, 24572, Control_c, 0, 64, 65
1, 24587, Control_c, 0, 64, 68
1, 24602, Control_c, 0, 64, 72
1, 24605, Note_off_c, 0, 63, 57
1, 24616, Control_c, 0, 64, 76
1, 24631, Control_c, 0, 64, 82
1, 24646, Control_c, 0, 64, 87
1, 24657, Note_on_c, 0, 68, 43
1, 24660, Control_c, 0, 64, 91
1, 24675, Control_c, 0, 64, 95
1, 24690, Control_c, 0, 64, 101
1, 24705, Control_c, 0, 64, 107
1, 24720, Control_c, 0, 64, 123
1, 24734, Control_c, 0, 64, 127
1, 24754, Note_on_c, 0, 63, 41
1, 24773, Note_off_c, 0, 68, 37
1, 24807, Note_off_c, 0, 63, 58
1, 24837, Note_on_c, 0, 61, 40
1, 24875, Note_off_c, 0, 61, 52
1, 24915, Note_on_c, 0, 63, 52
1, 24992, Note_off_c, 0, 63, 56
1, 25020, Note_on_c, 0, 61, 44
1, 25050, Note_off_c, 0, 73, 63
1, 25124, Note_on_c, 0, 63, 46
1, 25153, Note_off_c, 0, 61, 37
1, 25201, Control_c, 0, 64, 119
1, 25216, Control_c, 0, 64, 118
1, 25225, Note_on_c, 0, 71, 64
1, 25231, Control_c, 0, 64, 116
1, 25242, Note_on_c, 0, 68, 45
1, 25246, Control_c, 0, 64, 105
1, 25261, Control_c, 0, 64, 87
1, 25276, Control_c, 0, 64, 69
1, 25285, Note_off_c, 0, 63, 37
1, 25291, Control_c, 0, 64, 57
1, 25305, Control_c, 0, 64, 34
1, 25320, Control_c, 0, 64, 33
1, 25335, Control_c, 0, 64, 43
1, 25350, Control_c, 0, 64, 53
1, 25365, Control_c, 0, 64, 60
1, 25380, Control_c, 0, 64, 64
1, 25395, Control_c, 0, 64, 68
1, 25410, Control_c, 0, 64, 72
1, 25417, Note_on_c, 0, 63, 47
1, 25425, Control_c, 0, 64, 77
1, 25433, Note_off_c, 0, 71, 58
1, 25439, Control_c, 0, 64, 81
1, 25454, Control_c, 0, 64, 85
1, 25469, Control_c, 0, 64, 87
1, 25483, Control_c, 0, 64, 87
1, 25498, Control_c, 0, 64, 88
1, 25528, Control_c, 0, 64, 88
1, 25532, Note_on_c, 0, 59, 37
1, 25572, Control_c, 0, 64, 89
1, 25617, Control_c, 0, 64, 89
1, 25619, Note_on_c, 0, 71, 67
1, 25632, Note_off_c, 0, 59, 47
1, 25646, Control_c, 0, 64, 90
1, 25661, Control_c, 0, 64, 91
1, 25671, Note_off_c, 0, 68, 56
1, 25676, Control_c, 0, 64, 92
1, 25688, Note_off_c, 0, 63, 34
1, 25690, Control_c, 0, 64, 93
1, 25705, Control_c, 0, 64, 94
1, 25720, Control_c, 0, 64, 94
1, 25735, Control_c, 0, 64, 95
1, 25750, Control_c, 0, 64, 97
1, 25765, Control_c, 0, 64, 98
1, 25766, Note_on_c, 0, 59, 44
1, 25779, Control_c, 0, 64, 100
1, 25794, Control_c, 0, 64, 103
1, 25809, Control_c, 0, 64, 106
1, 25824, Control_c, 0, 64, 107
1, 25839, Control_c, 0, 64, 107
1, 25863, Note_on_c, 0, 63, 31
1, 25877, Note_off_c, 0, 59, 36
1, 25912, Note_off_c, 0, 63, 47
1, 25952, Note_on_c, 0, 68, 27
1, 25965, Control_c, 0, 64, 107
1, 26041, Note_on_c, 0, 63, 41
1, 26055, Control_c, 0, 64, 107
1, 26070, Control_c, 0, 64, 108
1, 26085, Control_c, 0, 64, 110
1, 26093, Note_off_c, 0, 63, 53
1, 26100, Control_c, 0, 64, 112
1, 26110, Note_off_c, 0, 68, 33
1, 26114, Control_c, 0, 64, 117
1, 26125, Note_on_c, 0, 59, 39
1, 26129, Control_c, 0, 64, 123
1, 26144, Control_c, 0, 64, 127
1, 26162, Note_off_c, 0, 59, 56
1, 26221, Note_on_c, 0, 63, 39
1, 26253, Note_off_c, 0, 63, 53
1, 26301, Note_on_c, 0, 59, 33
1, 26358, Note_on_c, 0, 63, 43
1, 26358, Note_off_c, 0, 59, 42
1, 26414, Note_off_c, 0, 63, 55
1, 26477, Note_on_c, 0, 68, 51
1, 26511, Note_off_c, 0, 51, 31
1, 26528, Note_off_c, 0, 56, 41
1, 26553, Note_on_c, 0, 63, 49
1, 26559, Note_off_c, 0, 71, 51
1, 26632, Note_on_c, 0, 59, 53
1, 26760, Note_on_c, 0, 52, 46
1, 26760, Note_on_c, 0, 56, 43
1, 26766, Note_on_c, 0, 71, 78
1, 26778, Note_off_c, 0, 59, 58
1, 26802, Note_off_c, 0, 63, 28
1, 26864, Control_c, 0, 64, 104
1, 26878, Control_c, 0, 64, 82
1, 26893, Control_c, 0, 64, 67
1, 26908, Control_c, 0, 64, 48
1, 26918, Note_on_c, 0, 59, 36
1, 26923, Control_c, 0, 64, 0
1, 26934, Note_off_c, 0, 68, 35
1, 26963, Note_off_c, 0, 44, 39
1, 26967, Control_c, 0, 64, 13
1, 26972, Note_off_c, 0, 59, 44
1, 26982, Control_c, 0, 64, 36
1, 26986, Note_on_c, 0, 64, 50
1, 26997, Control_c, 0, 64, 49
1, 27011, Control_c, 0, 64, 58
1, 27026, Control_c, 0, 64, 63
1, 27041, Control_c, 0, 64, 68
1, 27051, Note_off_c, 0, 64, 58
1, 27056, Control_c, 0, 64, 74
1, 27071, Control_c, 0, 64, 83
1, 27085, Control_c, 0, 64, 96
1, 27086, Note_on_c, 0, 68, 48
1, 27100, Control_c, 0, 64, 127
1, 27191, Note_on_c, 0, 64, 44
1, 27233, Note_off_c, 0, 64, 62
1, 27249, Note_on_c, 0, 59, 49
1, 27256, Note_off_c, 0, 68, 27
1, 27306, Note_off_c, 0, 59, 57
1, 27338, Note_on_c, 0, 64, 48
1, 27392, Note_off_c, 0, 64, 59
1, 27441, Note_on_c, 0, 59, 44
1, 27473, Note_off_c, 0, 59, 54
1, 27511, Note_on_c, 0, 64, 52
1, 27550, Note_off_c, 0, 64, 59
1, 27602, Note_on_c, 0, 68, 52
1, 27670, Note_on_c, 0, 64, 52
1, 27684, Note_off_c, 0, 56, 63
1, 27699, Note_off_c, 0, 71, 53
1, 27744, Note_on_c, 0, 59, 53
1, 27819, Note_on_c, 0, 71, 78
1, 27824, Note_on_c, 0, 54, 51
1, 27834, Note_on_c, 0, 51, 54
1, 27865, Control_c, 0, 64, 86
1, 27879, Note_off_c, 0, 59, 39
1, 27879, Control_c, 0, 64, 66
1, 27886, Note_off_c, 0, 64, 59
1, 27894, Control_c, 0, 64, 45
1, 27909, Control_c, 0, 64, 0
1, 27914, Note_off_c, 0, 52, 60
1, 27924, Control_c, 0, 64, 28
1, 27939, Control_c, 0, 64, 45
1, 27953, Control_c, 0, 64, 58
1, 27968, Control_c, 0, 64, 65
1, 27975, Note_on_c, 0, 59, 51
1, 27983, Control_c, 0, 64, 74
1, 27998, Control_c, 0, 64, 90
1, 28013, Control_c, 0, 64, 127
1, 28029, Note_on_c, 0, 63, 56
1, 28031, Note_off_c, 0, 59, 55
1, 28106, Note_off_c, 0, 63, 55
1, 28141, Note_on_c, 0, 66, 58
1, 28189, Note_off_c, 0, 54, 60
1, 28230, Note_off_c, 0, 71, 59
1, 28232, Note_on_c, 0, 63, 57
1, 28281, Note_off_c, 0, 68, 49
1, 28311, Note_on_c, 0, 59, 61
1, 28324, Note_off_c, 0, 66, 58
1, 28340, Note_off_c, 0, 59, 65
1, 28342, Note_off_c, 0, 63, 62
1, 28418, Note_on_c, 0, 54, 51
1, 28426, Note_on_c, 0, 49, 48
1, 28429, Note_on_c, 0, 58, 50
1, 28431, Note_on_c, 0, 73, 86
1, 28450, Control_c, 0, 64, 113
1, 28465, Control_c, 0, 64, 77
1, 28470, Note_off_c, 0, 51, 54
1, 28480, Control_c, 0, 64, 61
1, 28495, Control_c, 0, 64, 0
1, 28554, Control_c, 0, 64, 13
1, 28569, Control_c, 0, 64, 42
1, 28583, Control_c, 0, 64, 56
1, 28593, Note_on_c, 0, 64, 55
1, 28598, Control_c, 0, 64, 64
1, 28613, Control_c, 0, 64, 70
1, 28628, Control_c, 0, 64, 82
1, 28643, Control_c, 0, 64, 101
1, 28657, Control_c, 0, 64, 127
1, 28686, Note_on_c, 0, 66, 53
1, 28771, Note_off_c, 0, 64, 32
1, 28791, Note_off_c, 0, 66, 50
1, 28805, Note_on_c, 0, 70, 60
1, 28838, Note_off_c, 0, 58, 36
1, 28858, Note_off_c, 0, 54, 48
1, 28883, Note_off_c, 0, 73, 52
1, 28937, Note_on_c, 0, 66, 53
1, 29069, Note_on_c, 0, 64, 59
1, 29127, Note_off_c, 0, 66, 33
1, 29240, Note_on_c, 0, 76, 80
1, 29246, Note_on_c, 0, 47, 43
1, 29258, Note_on_c, 0, 59, 29
1, 29266, Note_on_c, 0, 54, 43
1, 29273, Control_c, 0, 64, 103
1, 29285, Note_off_c, 0, 64, 53
1, 29288, Control_c, 0, 64, 84
1, 29303, Control_c, 0, 64, 73
1, 29318, Control_c, 0, 64, 63
1, 29332, Control_c, 0, 64, 44
1, 29347, Control_c, 0, 64, 0
1, 29368, Note_off_c, 0, 49, 49
1, 29443, Note_off_c, 0, 70, 55
1, 29480, Control_c, 0, 64, 25
1, 29480, Control_c, 0, 67, 18
1, 29495, Control_c, 0, 64, 38
1, 29495, Control_c, 0, 67, 33
1, 29510, Control_c, 0, 64, 48
1, 29510, Control_c, 0, 67, 45
1, 29516, Note_on_c, 0, 64, 33
1, 29524, Control_c, 0, 64, 54
1, 29524, Control_c, 0, 67, 58
1, 29539, Control_c, 0, 64, 58
1, 29539, Control_c, 0, 67, 72
1, 29554, Control_c, 0, 64, 62
1, 29554, Control_c, 0, 67, 90
1, 29569, Control_c, 0, 64, 64
1, 29569, Control_c, 0, 67, 109
1, 29584, Control_c, 0, 64, 66
1, 29584, Control_c, 0, 67, 127
1, 29598, Control_c, 0, 64, 68
1, 29613, Control_c, 0, 64, 71
1, 29628, Note_on_c, 0, 66, 40
1, 29628, Control_c, 0, 64, 73
1, 29643, Control_c, 0, 64, 75
1, 29665, Control_c, 0, 64, 76
1, 29680, Control_c, 0, 64, 77
1, 29695, Control_c, 0, 64, 77
1, 29732, Note_off_c, 0, 64, 36
1, 29774, Note_off_c, 0, 66, 49
1, 29789, Note_on_c, 0, 73, 51
1, 29944, Note_on_c, 0, 66, 40
1, 29957, Note_off_c, 0, 73, 0
1, 29971, Poly_aftertouch_c, 0, 74, 127
1, 29994, Poly_aftertouch_c, 0, 73, 127
1, 30006, Note_off_c, 0, 66, 58
1, 30058, Note_on_c, 0, 64, 36
1, 30109, Note_off_c, 0, 64, 46
1, 30147, Note_on_c, 0, 66, 43
1, 30155, Poly_aftertouch_c, 0, 73, 0
1, 30205, Note_off_c, 0, 66, 58
1, 30252, Note_off_c, 0, 76, 35
1, 30254, Note_on_c, 0, 64, 33
1, 30255, Poly_aftertouch_c, 0, 74, 0
1, 30328, Note_on_c, 0, 66, 37
1, 30361, Note_off_c, 0, 64, 38
1, 30361, Control_c, 0, 64, 77
1, 30414, Control_c, 0, 64, 76
1, 30443, Control_c, 0, 64, 76
1, 30473, Note_on_c, 0, 75, 56
1, 30473, Control_c, 0, 64, 75
1, 30486, Note_off_c, 0, 66, 58
1, 30487, Control_c, 0, 64, 75
1, 30502, Control_c, 0, 64, 74
1, 30504, Note_on_c, 0, 71, 42
1, 30517, Control_c, 0, 64, 71
1, 30532, Control_c, 0, 64, 65
1, 30546, Control_c, 0, 64, 59
1, 30561, Control_c, 0, 64, 46
1, 30576, Control_c, 0, 64, 32
1, 30591, Control_c, 0, 64, 34
1, 30606, Control_c, 0, 64, 42
1, 30620, Control_c, 0, 64, 50
1, 30635, Control_c, 0, 64, 55
1, 30647, Note_on_c, 0, 66, 36
1, 30650, Control_c, 0, 64, 58
1, 30665, Control_c, 0, 64, 61
1, 30680, Control_c, 0, 64, 64
1, 30695, Control_c, 0, 64, 66
1, 30710, Control_c, 0, 64, 68
1, 30725, Control_c, 0, 64, 70
1, 30740, Control_c, 0, 64, 72
1, 30754, Control_c, 0, 64, 74
1, 30769, Control_c, 0, 64, 76
1, 30772, Note_off_c, 0, 75, 38
1, 30784, Control_c, 0, 64, 78
1, 30788, Note_on_c, 0, 63, 39
1, 30799, Control_c, 0, 64, 80
1, 30814, Control_c, 0, 64, 81
1, 30828, Control_c, 0, 64, 82
1, 30844, Control_c, 0, 64, 83
1, 30859, Control_c, 0, 64, 83
1, 30950, Note_on_c, 0, 75, 50
1, 30963, Control_c, 0, 64, 83
1, 31007, Note_off_c, 0, 63, 39
1, 31051, Control_c, 0, 64, 82
1, 31065, Note_off_c, 0, 71, 29
1, 31076, Note_off_c, 0, 66, 31
1, 31121, Note_on_c, 0, 63, 28
1, 31220, Note_on_c, 0, 66, 30
1, 31266, Note_off_c, 0, 63, 30
1, 31351, Note_off_c, 0, 66, 35
1, 31356, Note_on_c, 0, 71, 40
1, 31370, Control_c, 0, 64, 82
1, 31477, Note_on_c, 0, 66, 40
1, 31477, Note_off_c, 0, 71, 37
1, 31521, Note_off_c, 0, 66, 56
1, 31559, Note_on_c, 0, 63, 28
1, 31595, Note_off_c, 0, 63, 51
1, 31654, Note_on_c, 0, 66, 22
1, 31699, Note_off_c, 0, 66, 45
1, 31726, Control_c, 0, 64, 81
1, 31727, Note_on_c, 0, 63, 26
1, 31812, Note_on_c, 0, 66, 34
1, 31842, Note_off_c, 0, 63, 26
1, 31882, Note_off_c, 0, 66, 50
1, 31936, Note_off_c, 0, 54, 35
1, 31951, Note_on_c, 0, 71, 33
1, 31998, Note_off_c, 0, 47, 35
1, 32060, Control_c, 0, 64, 81
1, 32069, Note_off_c, 0, 59, 31
1, 32075, Note_on_c, 0, 66, 39
1, 32132, Note_off_c, 0, 75, 24
1, 32213, Note_on_c, 0, 63, 35
1, 32311, Control_c, 0, 64, 80
1, 32340, Control_c, 0, 64, 80
1, 32385, Control_c, 0, 64, 79
1, 32400, Control_c, 0, 64, 79
1, 32415, Control_c, 0, 64, 78
1, 32430, Control_c, 0, 64, 78
1, 32439, Note_on_c, 0, 75, 49
1, 32445, Control_c, 0, 64, 77
1, 32448, Note_on_c, 0, 47, 20
1, 32460, Control_c, 0, 64, 76
1, 32473, Note_on_c, 0, 54, 30
1, 32475, Control_c, 0, 64, 75
1, 32489, Control_c, 0, 64, 74
1, 32490, Note_off_c, 0, 63, 32
1, 32504, Control_c, 0, 64, 73
1, 32519, Control_c, 0, 64, 71
1, 32534, Control_c, 0, 64, 66
1, 32549, Control_c, 0, 64, 60
1, 32550, Note_off_c, 0, 71, 28
1, 32564, Control_c, 0, 64, 48
1, 32567, Note_off_c, 0, 66, 34
1, 32579, Control_c, 0, 64, 26
1, 32594, Control_c, 0, 64, 16
1, 32623, Control_c, 0, 64, 17
1, 32645, Control_c, 0, 64, 26
1, 32660, Control_c, 0, 64, 36
1, 32675, Control_c, 0, 64, 45
1, 32687, Poly_aftertouch_c, 0, 63, 127
1, 32690, Control_c, 0, 64, 51
1, 32704, Control_c, 0, 64, 54
1, 32719, Control_c, 0, 64, 57
1, 32734, Control_c, 0, 64, 60
1, 32748, Note_on_c, 0, 66, 27
1, 32749, Control_c, 0, 64, 63
1, 32749, Poly_aftertouch_c, 0, 63, 0
1, 32764, Control_c, 0, 64, 64
1, 32779, Control_c, 0, 64, 66
1, 32793, Control_c, 0, 64, 67
1, 32808, Control_c, 0, 64, 69
1, 32823, Control_c, 0, 64, 71
1, 32838, Control_c, 0, 64, 73
1, 32853, Control_c, 0, 64, 76
1, 32862, Note_off_c, 0, 66, 36
1, 32868, Control_c, 0, 64, 77
1, 32881, Note_on_c, 0, 71, 38
1, 32883, Control_c, 0, 64, 78
1, 32978, Note_on_c, 0, 66, 37
1, 33030, Note_off_c, 0, 66, 56
1, 33038, Note_off_c, 0, 71, 27
1, 33071, Note_on_c, 0, 63, 28
1, 33108, Note_off_c, 0, 63, 50
1, 33147, Note_on_c, 0, 66, 26
1, 33148, Control_c, 0, 64, 77
1, 33204, Note_off_c, 0, 66, 41
1, 33243, Note_on_c, 0, 63, 23
1, 33310, Note_off_c, 0, 63, 39
1, 33314, Note_on_c, 0, 66, 25
1, 33379, Note_off_c, 0, 66, 50
1, 33440, Control_c, 0, 64, 77
1, 33449, Note_on_c, 0, 71, 32
1, 33551, Note_on_c, 0, 66, 27
1, 33604, Note_off_c, 0, 47, 24
1, 33631, Note_off_c, 0, 75, 28
1, 33632, Control_c, 0, 64, 76
1, 33694, Poly_aftertouch_c, 0, 63, 127
1, 33706, Control_c, 0, 64, 76
1, 33735, Control_c, 0, 64, 75
1, 33750, Control_c, 0, 64, 74
1, 33765, Control_c, 0, 64, 74
1, 33773, Note_off_c, 0, 66, 37
1, 33780, Control_c, 0, 64, 73
1, 33805, Note_on_c, 0, 47, 24
1, 33819, Note_on_c, 0, 75, 55
1, 33822, Note_on_c, 0, 56, 31
1, 33854, Control_c, 0, 64, 73
1, 33869, Control_c, 0, 64, 70
1, 33873, Poly_aftertouch_c, 0, 63, 0
1, 33884, Control_c, 0, 64, 66
1, 33898, Control_c, 0, 64, 61
1, 33913, Control_c, 0, 64, 52
1, 33928, Control_c, 0, 64, 47
1, 33943, Control_c, 0, 64, 49
1, 33944, Note_off_c, 0, 71, 30
1, 33958, Control_c, 0, 64, 52
1, 33972, Control_c, 0, 64, 55
1, 33987, Control_c, 0, 64, 58
1, 34002, Control_c, 0, 64, 60
1, 34017, Control_c, 0, 64, 62
1, 34027, Note_on_c, 0, 68, 34
1, 34032, Control_c, 0, 64, 64
1, 34048, Control_c, 0, 64, 66
1, 34063, Control_c, 0, 64, 68
1, 34077, Control_c, 0, 64, 70
1, 34092, Control_c, 0, 64, 73
1, 34107, Control_c, 0, 64, 77
1, 34110, Note_on_c, 0, 65, 24
1, 34121, Control_c, 0, 64, 81
1, 34136, Control_c, 0, 64, 83
1, 34147, Note_off_c, 0, 68, 45
1, 34159, Control_c, 0, 64, 85
1, 34172, Note_on_c, 0, 71, 54
1, 34180, Note_off_c, 0, 65, 39
1, 34189, Control_c, 0, 64, 85
1, 34203, Note_off_c, 0, 54, 41
1, 34203, Control_c, 0, 64, 86
1, 34218, Control_c, 0, 64, 87
1, 34233, Control_c, 0, 64, 88
1, 34242, Note_off_c, 0, 75, 50
1, 34248, Control_c, 0, 64, 89
1, 34281, Note_on_c, 0, 68, 54
1, 34281, Note_off_c, 0, 71, 59
1, 34321, Control_c, 0, 64, 88
1, 34325, Note_off_c, 0, 68, 59
1, 34336, Control_c, 0, 64, 88
1, 34351, Control_c, 0, 64, 87
1, 34366, Control_c, 0, 64, 86
1, 34381, Control_c, 0, 64, 86
1, 34384, Note_on_c, 0, 65, 32
1, 34421, Note_off_c, 0, 65, 49
1, 34425, Control_c, 0, 64, 85
1, 34440, Control_c, 0, 64, 82
1, 34444, Note_on_c, 0, 70, 64
1, 34446, Note_on_c, 0, 53, 41
1, 34455, Control_c, 0, 64, 75
1, 34469, Control_c, 0, 64, 68
1, 34484, Control_c, 0, 64, 62
1, 34499, Control_c, 0, 64, 54
1, 34513, Control_c, 0, 64, 55
1, 34528, Control_c, 0, 64, 57
1, 34543, Control_c, 0, 64, 60
1, 34548, Note_on_c, 0, 65, 43
1, 34558, Control_c, 0, 64, 61
1, 34573, Control_c, 0, 64, 63
1, 34586, Note_off_c, 0, 56, 42
1, 34588, Control_c, 0, 64, 64
1, 34603, Control_c, 0, 64, 66
1, 34618, Control_c, 0, 64, 68
1, 34633, Control_c, 0, 64, 70
1, 34648, Control_c, 0, 64, 73
1, 34661, Note_on_c, 0, 61, 35
1, 34662, Control_c, 0, 64, 75
1, 34677, Control_c, 0, 64, 78
1, 34692, Control_c, 0, 64, 79
1, 34707, Control_c, 0, 64, 80
1, 34714, Note_off_c, 0, 65, 56
1, 34721, Control_c, 0, 64, 81
1, 34734, Note_on_c, 0, 68, 62
1, 34736, Control_c, 0, 64, 81
1, 34743, Note_off_c, 0, 61, 46
1, 34749, Note_off_c, 0, 47, 36
1, 34766, Control_c, 0, 64, 82
1, 34781, Control_c, 0, 64, 82
1, 34810, Control_c, 0, 64, 83
1, 34853, Note_on_c, 0, 65, 44
1, 34905, Note_off_c, 0, 70, 36
1, 34907, Control_c, 0, 64, 82
1, 34934, Note_on_c, 0, 61, 39
1, 34937, Control_c, 0, 64, 82
1, 34946, Note_off_c, 0, 65, 59
1, 34951, Control_c, 0, 64, 81
1, 34966, Control_c, 0, 64, 80
1, 34981, Control_c, 0, 64, 79
1, 34996, Control_c, 0, 64, 78
1, 35011, Control_c, 0, 64, 76
1, 35025, Control_c, 0, 64, 75
1, 35040, Control_c, 0, 64, 74
1, 35055, Control_c, 0, 64, 73
1, 35066, Note_on_c, 0, 54, 27
1, 35070, Control_c, 0, 64, 73
1, 35079, Note_on_c, 0, 46, 36
1, 35085, Note_on_c, 0, 73, 63
1, 35085, Control_c, 0, 64, 72
1, 35089, Note_off_c, 0, 61, 34
1, 35099, Control_c, 0, 64, 69
1, 35114, Control_c, 0, 64, 64
1, 35129, Note_off_c, 0, 68, 58
1, 35129, Control_c, 0, 64, 57
1, 35143, Control_c, 0, 64, 32
1, 35158, Control_c, 0, 64, 0
1, 35210, Note_off_c, 0, 53, 43
1, 35217, Note_on_c, 0, 61, 43
1, 35277, Control_c, 0, 64, 28
1, 35291, Control_c, 0, 64, 40
1, 35306, Control_c, 0, 64, 50
1, 35310, Note_on_c, 0, 66, 45
1, 35312, Note_off_c, 0, 61, 48
1, 35321, Control_c, 0, 64, 57
1, 35336, Control_c, 0, 64, 62
1, 35351, Control_c, 0, 64, 64
1, 35366, Control_c, 0, 64, 65
1, 35376, Note_off_c, 0, 66, 57
1, 35381, Control_c, 0, 64, 67
1, 35396, Control_c, 0, 64, 68
1, 35410, Control_c, 0, 64, 70
1, 35411, Note_on_c, 0, 70, 40
1, 35425, Control_c, 0, 64, 72
1, 35440, Control_c, 0, 64, 72
1, 35514, Control_c, 0, 64, 72
1, 35515, Note_off_c, 0, 70, 39
1, 35527, Note_on_c, 0, 66, 33
1, 35543, Control_c, 0, 64, 71
1, 35558, Note_off_c, 0, 66, 54
1, 35558, Control_c, 0, 64, 69
1, 35573, Control_c, 0, 64, 67
1, 35588, Control_c, 0, 64, 63
1, 35589, Note_on_c, 0, 61, 35
1, 35603, Control_c, 0, 64, 60
1, 35617, Control_c, 0, 64, 59
1, 35626, Note_off_c, 0, 61, 56
1, 35640, Control_c, 0, 64, 60
1, 35655, Control_c, 0, 64, 61
1, 35670, Control_c, 0, 64, 63
1, 35679, Note_on_c, 0, 66, 42
1, 35685, Control_c, 0, 64, 64
1, 35700, Control_c, 0, 64, 65
1, 35715, Control_c, 0, 64, 67
1, 35730, Control_c, 0, 64, 69
1, 35737, Note_off_c, 0, 66, 56
1, 35745, Control_c, 0, 64, 71
1, 35759, Control_c, 0, 64, 74
1, 35768, Note_on_c, 0, 61, 35
1, 35774, Control_c, 0, 64, 76
1, 35789, Control_c, 0, 64, 78
1, 35804, Control_c, 0, 64, 81
1, 35819, Control_c, 0, 64, 83
1, 35828, Note_off_c, 0, 61, 50
1, 35834, Control_c, 0, 64, 85
1, 35848, Control_c, 0, 64, 86
1, 35852, Note_on_c, 0, 66, 30
1, 35863, Control_c, 0, 64, 86
1, 35878, Control_c, 0, 64, 87
1, 35891, Note_off_c, 0, 66, 48
1, 35893, Control_c, 0, 64, 88
1, 35908, Control_c, 0, 64, 89
1, 35929, Note_on_c, 0, 70, 45
1, 36010, Note_off_c, 0, 73, 60
1, 36013, Note_off_c, 0, 54, 42
1, 36025, Note_on_c, 0, 66, 41
1, 36055, Control_c, 0, 64, 88
1, 36068, Note_off_c, 0, 46, 37
1, 36123, Note_on_c, 0, 61, 38
1, 36129, Control_c, 0, 64, 87
1, 36159, Control_c, 0, 64, 87
1, 36189, Control_c, 0, 64, 86
1, 36241, Note_on_c, 0, 47, 41
1, 36248, Control_c, 0, 64, 85
1, 36248, Note_on_c, 0, 73, 64
1, 36263, Control_c, 0, 64, 79
1, 36265, Note_off_c, 0, 66, 41
1, 36268, Note_on_c, 0, 54, 42
1, 36278, Control_c, 0, 64, 71
1, 36292, Note_off_c, 0, 61, 40
1, 36292, Control_c, 0, 64, 64
1, 36307, Control_c, 0, 64, 58
1, 36337, Control_c, 0, 64, 59
1, 36352, Control_c, 0, 64, 61
1, 36366, Control_c, 0, 64, 63
1, 36388, Control_c, 0, 64, 65
1, 36403, Control_c, 0, 64, 67
1, 36404, Note_on_c, 0, 66, 39
1, 36418, Control_c, 0, 64, 69
1, 36433, Control_c, 0, 64, 73
1, 36449, Control_c, 0, 64, 77
1, 36453, Note_off_c, 0, 73, 64
1, 36463, Control_c, 0, 64, 80
1, 36478, Control_c, 0, 64, 83
1, 36480, Note_on_c, 0, 63, 39
1, 36493, Control_c, 0, 64, 85
1, 36508, Control_c, 0, 64, 88
1, 36523, Control_c, 0, 64, 91
1, 36538, Control_c, 0, 64, 94
1, 36547, Note_off_c, 0, 63, 54
1, 36552, Control_c, 0, 64, 96
1, 36555, Note_on_c, 0, 71, 75
1, 36555, Note_off_c, 0, 66, 61
1, 36562, Note_off_c, 0, 70, 33
1, 36567, Control_c, 0, 64, 96
1, 36582, Control_c, 0, 64, 97
1, 36597, Control_c, 0, 64, 97
1, 36612, Control_c, 0, 64, 99
1, 36627, Control_c, 0, 64, 100
1, 36642, Control_c, 0, 64, 101
1, 36658, Note_on_c, 0, 66, 45
1, 36713, Note_off_c, 0, 66, 55
1, 36748, Note_on_c, 0, 63, 46
1, 36787, Note_off_c, 0, 63, 48
1, 36789, Control_c, 0, 64, 102
1, 36819, Control_c, 0, 64, 101
1, 36832, Note_on_c, 0, 68, 69
1, 36834, Control_c, 0, 64, 98
1, 36835, Note_on_c, 0, 56, 56
1, 36849, Control_c, 0, 64, 91
1, 36863, Control_c, 0, 64, 80
1, 36878, Control_c, 0, 64, 70
1, 36893, Control_c, 0, 64, 64
1, 36908, Control_c, 0, 64, 63
1, 36910, Note_off_c, 0, 71, 36
1, 36922, Control_c, 0, 64, 65
1, 36937, Control_c, 0, 64, 67
1, 36945, Note_on_c, 0, 63, 54
1, 36952, Control_c, 0, 64, 71
1, 36965, Note_off_c, 0, 68, 62
1, 36967, Control_c, 0, 64, 76
1, 36982, Control_c, 0, 64, 82
1, 36997, Control_c, 0, 64, 88
1, 37011, Control_c, 0, 64, 93
1, 37020, Note_off_c, 0, 63, 60
1, 37026, Control_c, 0, 64, 96
1, 37047, Note_on_c, 0, 59, 48
1, 37086, Control_c, 0, 64, 97
1, 37101, Note_off_c, 0, 54, 42
1, 37122, Note_off_c, 0, 56, 59
1, 37125, Note_off_c, 0, 59, 57
1, 37148, Note_on_c, 0, 63, 68
1, 37168, Control_c, 0, 64, 96
1, 37227, Control_c, 0, 64, 96
1, 37243, Control_c, 0, 64, 95
1, 37258, Control_c, 0, 64, 95
1, 37273, Control_c, 0, 64, 94
1, 37286, Note_on_c, 0, 59, 42
1, 37287, Control_c, 0, 64, 94
1, 37332, Control_c, 0, 64, 93
1, 37361, Control_c, 0, 64, 93
1, 37376, Control_c, 0, 64, 92
1, 37391, Control_c, 0, 64, 92
1, 37399, Note_on_c, 0, 56, 48
1, 37406, Control_c, 0, 64, 91
1, 37420, Control_c, 0, 64, 91
1, 37435, Control_c, 0, 64, 89
1, 37440, Note_off_c, 0, 59, 38
1, 37450, Control_c, 0, 64, 87
1, 37465, Control_c, 0, 64, 84
1, 37480, Control_c, 0, 64, 78
1, 37494, Control_c, 0, 64, 74
1, 37509, Control_c, 0, 64, 70
1, 37521, Note_on_c, 0, 66, 63
1, 37524, Note_on_c, 0, 49, 34
1, 37524, Control_c, 0, 64, 68
1, 37539, Control_c, 0, 64, 67
1, 37554, Control_c, 0, 64, 66
1, 37569, Control_c, 0, 64, 64
1, 37569, Note_off_c, 0, 63, 56
1, 37582, Note_off_c, 0, 56, 33
1, 37584, Control_c, 0, 64, 60
1, 37599, Control_c, 0, 64, 50
1, 37613, Control_c, 0, 64, 23
1, 37628, Control_c, 0, 64, 0
1, 37643, Note_off_c, 0, 47, 60
1, 37702, Control_c, 0, 64, 22
1, 37717, Note_on_c, 0, 54, 39
1, 37717, Control_c, 0, 64, 38
1, 37732, Control_c, 0, 64, 48
1, 37746, Control_c, 0, 64, 57
1, 37761, Control_c, 0, 64, 61
1, 37776, Control_c, 0, 64, 63
1, 37790, Note_on_c, 0, 58, 42
1, 37791, Control_c, 0, 64, 64
1, 37806, Control_c, 0, 64, 66
1, 37809, Note_off_c, 0, 54, 36
1, 37820, Control_c, 0, 64, 68
1, 37835, Control_c, 0, 64, 70
1, 37850, Control_c, 0, 64, 73
1, 37851, Note_off_c, 0, 58, 57
1, 37865, Control_c, 0, 64, 75
1, 37880, Control_c, 0, 64, 76
1, 37902, Control_c, 0, 64, 76
1, 37905, Note_on_c, 0, 61, 41
1, 37917, Control_c, 0, 64, 77
1, 38005, Note_off_c, 0, 61, 53
1, 38021, Note_on_c, 0, 58, 36
1, 38055, Note_off_c, 0, 58, 61
1, 38081, Control_c, 0, 64, 77
1, 38090, Note_on_c, 0, 54, 38
1, 38130, Note_off_c, 0, 54, 49
1, 38165, Note_on_c, 0, 58, 41
1, 38184, Control_c, 0, 64, 78
1, 38218, Note_off_c, 0, 58, 59
1, 38229, Control_c, 0, 64, 79
1, 38243, Control_c, 0, 64, 79
1, 38258, Control_c, 0, 64, 80
1, 38266, Note_on_c, 0, 54, 31
1, 38317, Control_c, 0, 64, 80
1, 38321, Note_off_c, 0, 54, 44
1, 38342, Note_on_c, 0, 58, 42
1, 38372, Note_off_c, 0, 49, 36
1, 38378, Note_off_c, 0, 58, 57
1, 38463, Note_on_c, 0, 61, 32
1, 38523, Note_on_c, 0, 58, 35
1, 38568, Control_c, 0, 64, 80
1, 38613, Control_c, 0, 64, 79
1, 38615, Note_on_c, 0, 54, 30
1, 38628, Control_c, 0, 64, 79
1, 38630, Note_on_c, 0, 37, 30
1, 38646, Note_off_c, 0, 66, 33
1, 38650, Control_c, 0, 64, 78
1, 38665, Control_c, 0, 64, 78
1, 38723, Note_off_c, 0, 58, 21
1, 38754, Control_c, 0, 64, 77
1, 38768, Control_c, 0, 64, 76
1, 38783, Control_c, 0, 64, 71
1, 38798, Control_c, 0, 64, 65
1, 38813, Control_c, 0, 64, 60
1, 38822, Note_on_c, 0, 66, 44
1, 38828, Control_c, 0, 64, 56
1, 38831, Note_off_c, 0, 54, 51
1, 38841, Note_on_c, 0, 49, 32
1, 38844, Control_c, 0, 64, 56
1, 38859, Control_c, 0, 64, 58
1, 38873, Control_c, 0, 64, 61
1, 38888, Control_c, 0, 64, 62
1, 38903, Control_c, 0, 64, 64
1, 38918, Control_c, 0, 64, 65
1, 38932, Control_c, 0, 64, 67
1, 38947, Control_c, 0, 64, 69
1, 38962, Control_c, 0, 64, 71
1, 38968, Note_on_c, 0, 59, 37
1, 38971, Note_off_c, 0, 37, 42
1, 38977, Control_c, 0, 64, 73
1, 38991, Control_c, 0, 64, 74
1, 39006, Control_c, 0, 64, 75
1, 39021, Control_c, 0, 64, 76
1, 39024, Note_off_c, 0, 66, 44
1, 39036, Control_c, 0, 64, 77
1, 39051, Control_c, 0, 64, 77
1, 39061, Note_on_c, 0, 56, 38
1, 39095, Control_c, 0, 64, 78
1, 39100, Note_off_c, 0, 61, 41
1, 39105, Note_off_c, 0, 59, 58
1, 39114, Note_off_c, 0, 56, 56
1, 39122, Note_on_c, 0, 65, 58
1, 39125, Control_c, 0, 64, 78
1, 39212, Note_off_c, 0, 65, 60
1, 39253, Note_on_c, 0, 59, 45
1, 39280, Note_off_c, 0, 59, 59
1, 39318, Control_c, 0, 64, 78
1, 39331, Note_on_c, 0, 56, 18
1, 39347, Control_c, 0, 64, 77
1, 39384, Note_off_c, 0, 56, 53
1, 39399, Control_c, 0, 64, 77
1, 39429, Control_c, 0, 64, 74
1, 39437, Note_on_c, 0, 54, 38
1, 39444, Control_c, 0, 64, 69
1, 39458, Control_c, 0, 64, 62
1, 39473, Control_c, 0, 64, 53
1, 39480, Note_on_c, 0, 70, 37
1, 39488, Control_c, 0, 64, 41
1, 39503, Control_c, 0, 64, 38
1, 39517, Control_c, 0, 64, 43
1, 39532, Control_c, 0, 64, 51
1, 39540, Poly_aftertouch_c, 0, 68, 127
1, 39547, Control_c, 0, 64, 56
1, 39562, Control_c, 0, 64, 59
1, 39563, Note_off_c, 0, 49, 43
1, 39577, Control_c, 0, 64, 63
1, 39582, Note_off_c, 0, 70, 61
1, 39591, Control_c, 0, 64, 66
1, 39593, Note_on_c, 0, 61, 41
1, 39606, Control_c, 0, 64, 71
1, 39619, Poly_aftertouch_c, 0, 68, 0
1, 39621, Control_c, 0, 64, 76
1, 39637, Control_c, 0, 64, 81
1, 39652, Control_c, 0, 64, 86
1, 39667, Control_c, 0, 64, 89
1, 39682, Control_c, 0, 64, 91
1, 39696, Control_c, 0, 64, 92
1, 39711, Control_c, 0, 64, 92
1, 39716, Note_off_c, 0, 61, 52
1, 39741, Control_c, 0, 64, 90
1, 39745, Note_on_c, 0, 68, 57
1, 39756, Control_c, 0, 64, 83
1, 39766, Note_on_c, 0, 53, 50
1, 39770, Note_off_c, 0, 54, 38
1, 39770, Control_c, 0, 64, 74
1, 39785, Control_c, 0, 64, 67
1, 39800, Control_c, 0, 64, 65
1, 39814, Control_c, 0, 64, 66
1, 39829, Control_c, 0, 64, 67
1, 39844, Control_c, 0, 64, 69
1, 39850, Note_off_c, 0, 53, 63
1, 39858, Note_on_c, 0, 61, 38
1, 39859, Control_c, 0, 64, 71
1, 39874, Control_c, 0, 64, 73
1, 39888, Control_c, 0, 64, 76
1, 39890, Note_off_c, 0, 68, 52
1, 39903, Control_c, 0, 64, 80
1, 39918, Control_c, 0, 64, 82
1, 39933, Control_c, 0, 64, 83
1, 39942, Note_on_c, 0, 59, 41
1, 39963, Control_c, 0, 64, 84
1, 39977, Control_c, 0, 64, 86
1, 39992, Control_c, 0, 64, 87
1, 40014, Note_off_c, 0, 59, 56
1, 40037, Control_c, 0, 64, 86
1, 40067, Control_c, 0, 64, 86
1, 40081, Control_c, 0, 64, 85
1, 40096, Control_c, 0, 64, 84
1, 40111, Control_c, 0, 64, 83
1, 40118, Note_on_c, 0, 66, 52
1, 40123, Note_on_c, 0, 49, 35
1, 40132, Control_c, 0, 64, 82
1, 40141, Note_on_c, 0, 42, 43
1, 40147, Control_c, 0, 64, 81
1, 40162, Control_c, 0, 64, 79
1, 40174, Note_off_c, 0, 61, 38
1, 40177, Control_c, 0, 64, 77
1, 40192, Control_c, 0, 64, 74
1, 40207, Control_c, 0, 64, 69
1, 40222, Control_c, 0, 64, 62
1, 40237, Control_c, 0, 64, 50
1, 40252, Control_c, 0, 64, 33
1, 40267, Control_c, 0, 64, 27
1, 40296, Control_c, 0, 64, 28
1, 40311, Control_c, 0, 64, 33
1, 40326, Control_c, 0, 64, 38
1, 40326, Note_on_c, 0, 54, 30
1, 40340, Control_c, 0, 64, 44
1, 40355, Control_c, 0, 64, 50
1, 40370, Control_c, 0, 64, 54
1, 40385, Control_c, 0, 64, 57
1, 40386, Note_on_c, 0, 58, 37
1, 40400, Control_c, 0, 64, 61
1, 40414, Control_c, 0, 64, 63
1, 40430, Control_c, 0, 64, 65
1, 40431, Note_off_c, 0, 58, 62
1, 40445, Control_c, 0, 64, 67
1, 40460, Control_c, 0, 64, 71
1, 40468, Note_off_c, 0, 54, 36
1, 40475, Control_c, 0, 64, 73
1, 40490, Control_c, 0, 64, 76
1, 40505, Control_c, 0, 64, 77
1, 40513, Note_on_c, 0, 61, 28
1, 40519, Control_c, 0, 64, 79
1, 40534, Control_c, 0, 64, 81
1, 40549, Control_c, 0, 64, 82
1, 40563, Control_c, 0, 64, 83
1, 40572, Note_off_c, 0, 61, 41
1, 40575, Note_on_c, 0, 58, 35
1, 40578, Control_c, 0, 64, 84
1, 40593, Control_c, 0, 64, 86
1, 40608, Control_c, 0, 64, 86
1, 40614, Note_off_c, 0, 58, 56
1, 40623, Control_c, 0, 64, 87
1, 40637, Control_c, 0, 64, 89
1, 40652, Control_c, 0, 64, 90
1, 40654, Note_on_c, 0, 54, 39
1, 40667, Control_c, 0, 64, 92
1, 40682, Control_c, 0, 64, 94
1, 40697, Control_c, 0, 64, 96
1, 40697, Control_c, 0, 67, 120
1, 40702, Note_off_c, 0, 54, 46
1, 40711, Control_c, 0, 64, 99
1, 40711, Control_c, 0, 67, 110
1, 40726, Control_c, 0, 64, 102
1, 40726, Control_c, 0, 67, 100
1, 40737, Note_on_c, 0, 58, 43
1, 40741, Control_c, 0, 64, 106
1, 40741, Control_c, 0, 67, 89
1, 40755, Control_c, 0, 64, 110
1, 40755, Control_c, 0, 67, 80
1, 40770, Control_c, 0, 64, 114
1, 40770, Control_c, 0, 67, 70
1, 40785, Control_c, 0, 64, 116
1, 40785, Control_c, 0, 67, 62
1, 40788, Note_off_c, 0, 58, 58
1, 40800, Control_c, 0, 64, 118
1, 40800, Control_c, 0, 67, 55
1, 40815, Control_c, 0, 64, 119
1, 40815, Control_c, 0, 67, 47
1, 40829, Control_c, 0, 64, 123
1, 40829, Control_c, 0, 67, 39
1, 40836, Note_on_c, 0, 54, 45
1, 40844, Control_c, 0, 64, 127
1, 40844, Control_c, 0, 67, 31
1, 40859, Control_c, 0, 67, 21
1, 40868, Note_off_c, 0, 49, 39
1, 40874, Note_off_c, 0, 54, 56
1, 40874, Control_c, 0, 67, 11
1, 40896, Control_c, 0, 67, 0
1, 40936, Note_on_c, 0, 58, 26
1, 40963, Note_off_c, 0, 58, 54
1, 41026, Note_on_c, 0, 61, 40
1, 41077, Note_on_c, 0, 58, 37
1, 41098, Note_off_c, 0, 66, 54
1, 41127, Poly_aftertouch_c, 0, 45, 127
1, 41184, Poly_aftertouch_c, 0, 43, 127
1, 41221, Note_on_c, 0, 54, 42
1, 41399, Note_on_c, 0, 49, 30
1, 41406, Note_on_c, 0, 46, 34
1, 41408, Note_on_c, 0, 66, 64
1, 41441, Note_off_c, 0, 54, 37
1, 41459, Control_c, 0, 64, 102
1, 41474, Control_c, 0, 64, 81
1, 41489, Control_c, 0, 64, 70
1, 41504, Control_c, 0, 64, 63
1, 41508, Note_off_c, 0, 61, 53
1, 41519, Control_c, 0, 64, 56
1, 41527, Note_off_c, 0, 58, 40
1, 41533, Control_c, 0, 64, 57
1, 41548, Control_c, 0, 64, 61
1, 41563, Control_c, 0, 64, 64
1, 41565, Note_on_c, 0, 54, 50
1, 41578, Control_c, 0, 64, 66
1, 41593, Control_c, 0, 64, 72
1, 41608, Control_c, 0, 64, 80
1, 41615, Note_off_c, 0, 54, 56
1, 41623, Control_c, 0, 64, 93
1, 41645, Control_c, 0, 64, 113
1, 41650, Note_on_c, 0, 58, 53
1, 41659, Control_c, 0, 64, 127
1, 41700, Note_off_c, 0, 58, 58
1, 41748, Note_on_c, 0, 61, 49
1, 41793, Note_off_c, 0, 46, 41
1, 41828, Note_on_c, 0, 58, 52
1, 41828, Note_off_c, 0, 49, 42
1, 41879, Note_on_c, 0, 54, 55
1, 41892, Note_off_c, 0, 61, 36
1, 41925, Note_off_c, 0, 54, 60
1, 41930, Note_off_c, 0, 58, 60
1, 41968, Note_on_c, 0, 67, 73
1, 41975, Note_off_c, 0, 66, 16
1, 41984, Note_on_c, 0, 49, 34
1, 41987, Note_on_c, 0, 46, 45
1, 42015, Control_c, 0, 64, 113
1, 42029, Poly_aftertouch_c, 0, 43, 0
1, 42031, Control_c, 0, 64, 84
1, 42046, Control_c, 0, 64, 68
1, 42061, Control_c, 0, 64, 59
1, 42075, Control_c, 0, 64, 55
1, 42090, Control_c, 0, 64, 58
1, 42097, Poly_aftertouch_c, 0, 45, 0
1, 42098, Note_on_c, 0, 55, 47
1, 42105, Control_c, 0, 64, 62
1, 42120, Control_c, 0, 64, 64
1, 42135, Control_c, 0, 64, 69
1, 42149, Control_c, 0, 64, 76
1, 42164, Control_c, 0, 64, 90
1, 42175, Note_off_c, 0, 55, 50
1, 42177, Note_on_c, 0, 58, 58
1, 42179, Control_c, 0, 64, 116
1, 42194, Control_c, 0, 64, 127
1, 42248, Note_off_c, 0, 58, 51
1, 42286, Note_off_c, 0, 49, 51
1, 42288, Note_on_c, 0, 61, 57
1, 42322, Note_off_c, 0, 67, 59
1, 42395, Note_on_c, 0, 58, 55
1, 42448, Note_off_c, 0, 61, 59
1, 42475, Note_off_c, 0, 58, 63
1, 42497, Note_on_c, 0, 55, 58
1, 42602, Note_off_c, 0, 42, 40
1, 42607, Note_on_c, 0, 53, 47
1, 42611, Note_on_c, 0, 49, 47
1, 42625, Note_on_c, 0, 68, 76
1, 42639, Note_off_c, 0, 55, 63
1, 42675, Control_c, 0, 64, 121
1, 42690, Control_c, 0, 64, 91
1, 42705, Control_c, 0, 64, 78
1, 42720, Control_c, 0, 64, 67
1, 42732, Note_off_c, 0, 46, 61
1, 42734, Control_c, 0, 64, 56
1, 42740, Poly_aftertouch_c, 0, 66, 0
1, 42749, Control_c, 0, 64, 31
1, 42764, Control_c, 0, 64, 0
1, 42793, Note_on_c, 0, 56, 51
1, 42854, Control_c, 0, 64, 17
1, 42869, Control_c, 0, 64, 29
1, 42874, Note_on_c, 0, 61, 52
1, 42884, Control_c, 0, 64, 40
1, 42898, Control_c, 0, 64, 49
1, 42913, Control_c, 0, 64, 55
1, 42928, Control_c, 0, 64, 59
1, 42935, Note_off_c, 0, 56, 37
1, 42941, Note_off_c, 0, 61, 55
1, 42943, Control_c, 0, 64, 63
1, 42958, Control_c, 0, 64, 66
1, 42972, Control_c, 0, 64, 71
1, 42987, Control_c, 0, 64, 78
1, 42994, Note_on_c, 0, 65, 43
1, 43002, Control_c, 0, 64, 85
1, 43017, Control_c, 0, 64, 96
1, 43031, Control_c, 0, 64, 114
1, 43046, Control_c, 0, 64, 127
1, 43052, Note_off_c, 0, 65, 55
1, 43098, Note_on_c, 0, 61, 13
1, 43139, Note_on_c, 0, 56, 47
1, 43149, Note_off_c, 0, 61, 52
1, 43179, Note_off_c, 0, 56, 60
1, 43237, Note_on_c, 0, 61, 24
1, 43280, Note_off_c, 0, 61, 47
1, 43283, Note_on_c, 0, 56, 55
1, 43334, Note_off_c, 0, 56, 56
1, 43367, Note_on_c, 0, 61, 44
1, 43377, Note_off_c, 0, 53, 57
1, 43411, Note_off_c, 0, 61, 59
1, 43456, Note_on_c, 0, 65, 52
1, 43528, Note_on_c, 0, 61, 55
1, 43549, Note_off_c, 0, 68, 58
1, 43612, Note_on_c, 0, 56, 57
1, 43624, Note_off_c, 0, 61, 57
1, 43706, Note_off_c, 0, 56, 57
1, 43741, Note_on_c, 0, 55, 45
1, 43745, Note_on_c, 0, 70, 80
1, 43750, Note_on_c, 0, 52, 49
1, 43765, Note_on_c, 0, 46, 45
1, 43805, Note_off_c, 0, 65, 61
1, 43810, Control_c, 0, 64, 111
1, 43825, Control_c, 0, 64, 79
1, 43840, Control_c, 0, 64, 63
1, 43854, Control_c, 0, 64, 35
1, 43876, Control_c, 0, 64, 0
1, 43906, Control_c, 0, 64, 32
1, 43921, Control_c, 0, 64, 49
1, 43936, Control_c, 0, 64, 58
1, 43951, Control_c, 0, 64, 64
1, 43951, Note_on_c, 0, 61, 54
1, 43954, Note_off_c, 0, 49, 58
1, 43966, Control_c, 0, 64, 70
1, 43980, Control_c, 0, 64, 79
1, 43995, Control_c, 0, 64, 99
1, 44010, Control_c, 0, 64, 127
1, 44011, Note_off_c, 0, 61, 52
1, 44046, Note_on_c, 0, 64, 53
1, 44090, Note_off_c, 0, 64, 57
1, 44115, Note_on_c, 0, 67, 56
1, 44196, Note_off_c, 0, 67, 58
1, 44202, Note_on_c, 0, 64, 56
1, 44245, Note_off_c, 0, 64, 64
1, 44267, Note_on_c, 0, 61, 56
1, 44328, Note_off_c, 0, 61, 50
1, 44333, Note_on_c, 0, 51, 75
1, 44365, Control_c, 0, 64, 91
1, 44369, Note_on_c, 0, 63, 56
1, 44380, Control_c, 0, 64, 73
1, 44395, Control_c, 0, 64, 62
1, 44410, Control_c, 0, 64, 56
1, 44422, Note_off_c, 0, 63, 57
1, 44425, Control_c, 0, 64, 61
1, 44430, Note_off_c, 0, 52, 61
1, 44440, Control_c, 0, 64, 65
1, 44455, Control_c, 0, 64, 73
1, 44459, Note_on_c, 0, 61, 51
1, 44470, Control_c, 0, 64, 90
1, 44485, Control_c, 0, 64, 127
1, 44499, Note_off_c, 0, 61, 58
1, 44541, Note_on_c, 0, 63, 50
1, 44577, Note_off_c, 0, 63, 57
1, 44624, Note_on_c, 0, 67, 57
1, 44705, Note_on_c, 0, 63, 55
1, 44705, Note_off_c, 0, 55, 35
1, 44717, Note_off_c, 0, 70, 62
1, 44738, Note_off_c, 0, 51, 64
1, 44789, Note_off_c, 0, 46, 36
1, 44808, Note_on_c, 0, 61, 54
1, 44878, Note_off_c, 0, 63, 37
1, 44967, Note_on_c, 0, 51, 48
1, 44968, Note_on_c, 0, 73, 81
1, 44974, Note_on_c, 0, 55, 45
1, 44977, Note_on_c, 0, 44, 46
1, 44998, Note_off_c, 0, 61, 37
1, 45011, Control_c, 0, 64, 108
1, 45026, Control_c, 0, 64, 92
1, 45041, Control_c, 0, 64, 79
1, 45056, Control_c, 0, 64, 67
1, 45071, Control_c, 0, 64, 54
1, 45085, Control_c, 0, 64, 0
1, 45092, Note_off_c, 0, 67, 59
1, 45127, Note_on_c, 0, 61, 49
1, 45193, Note_off_c, 0, 61, 50
1, 45218, Control_c, 0, 64, 23
1, 45224, Note_on_c, 0, 63, 48
1, 45234, Control_c, 0, 64, 45
1, 45249, Control_c, 0, 64, 57
1, 45264, Control_c, 0, 64, 63
1, 45279, Control_c, 0, 64, 66
1, 45294, Control_c, 0, 64, 71
1, 45302, Note_off_c, 0, 63, 57
1, 45307, Control_c, 0, 64, 77
1, 45322, Control_c, 0, 64, 85
1, 45332, Note_on_c, 0, 70, 51
1, 45337, Control_c, 0, 64, 95
1, 45352, Control_c, 0, 64, 112
1, 45367, Control_c, 0, 64, 127
1, 45433, Note_on_c, 0, 63, 49
1, 45490, Note_off_c, 0, 63, 60
1, 45518, Note_on_c, 0, 61, 50
1, 45557, Note_off_c, 0, 55, 43
1, 45558, Note_off_c, 0, 61, 62
1, 45591, Note_on_c, 0, 63, 53
1, 45611, Note_off_c, 0, 73, 62
1, 45668, Note_off_c, 0, 63, 61
1, 45685, Note_on_c, 0, 61, 50
1, 45762, Note_off_c, 0, 61, 54
1, 45796, Note_on_c, 0, 63, 58
1, 45827, Note_off_c, 0, 70, 41
1, 45854, Note_on_c, 0, 56, 42
1, 45862, Note_on_c, 0, 71, 70
1, 45863, Control_c, 0, 64, 111
1, 45878, Control_c, 0, 64, 83
1, 45892, Control_c, 0, 64, 68
1, 45906, Note_on_c, 0, 68, 49
1, 45907, Control_c, 0, 64, 56
1, 45922, Control_c, 0, 64, 44
1, 45932, Note_off_c, 0, 63, 55
1, 45937, Control_c, 0, 64, 51
1, 45951, Control_c, 0, 64, 58
1, 45966, Control_c, 0, 64, 63
1, 45981, Control_c, 0, 64, 68
1, 45996, Control_c, 0, 64, 77
1, 46011, Control_c, 0, 64, 95
1, 46027, Control_c, 0, 64, 127
1, 46044, Note_off_c, 0, 51, 50
1, 46054, Note_off_c, 0, 56, 59
1, 46067, Note_on_c, 0, 63, 40
1, 46079, Note_off_c, 0, 44, 36
1, 46094, Note_off_c, 0, 71, 60
1, 46139, Note_on_c, 0, 59, 53
1, 46271, Note_on_c, 0, 44, 41
1, 46271, Note_on_c, 0, 71, 78
1, 46274, Note_on_c, 0, 56, 39
1, 46275, Note_on_c, 0, 51, 45
1, 46292, Note_off_c, 0, 59, 46
1, 46345, Control_c, 0, 64, 90
1, 46360, Control_c, 0, 64, 72
1, 46375, Control_c, 0, 64, 60
1, 46380, Note_off_c, 0, 63, 52
1, 46387, Note_off_c, 0, 68, 57
1, 46390, Control_c, 0, 64, 43
1, 46404, Control_c, 0, 64, 42
1, 46419, Control_c, 0, 64, 51
1, 46421, Note_on_c, 0, 59, 52
1, 46434, Control_c, 0, 64, 57
1, 46449, Control_c, 0, 64, 62
1, 46464, Control_c, 0, 64, 67
1, 46479, Control_c, 0, 64, 75
1, 46494, Control_c, 0, 64, 89
1, 46509, Control_c, 0, 64, 127
1, 46514, Note_on_c, 0, 63, 54
1, 46522, Note_off_c, 0, 59, 38
1, 46562, Note_off_c, 0, 63, 54
1, 46598, Note_on_c, 0, 68, 53
1, 46672, Note_off_c, 0, 56, 50
1, 46693, Note_on_c, 0, 63, 49
1, 46735, Note_off_c, 0, 63, 59
1, 46766, Note_on_c, 0, 59, 47
1, 46825, Note_off_c, 0, 59, 59
1, 46843, Note_on_c, 0, 63, 58
1, 46857, Note_off_c, 0, 51, 36
1, 46872, Note_off_c, 0, 68, 17
1, 46927, Note_off_c, 0, 63, 59
1, 46929, Note_off_c, 0, 44, 55
1, 46942, Note_on_c, 0, 59, 61
1, 47003, Poly_aftertouch_c, 0, 69, 127
1, 47024, Note_on_c, 0, 63, 62
1, 47124, Note_on_c, 0, 68, 73
1, 47130, Note_off_c, 0, 63, 60
1, 47201, Note_off_c, 0, 59, 39
1, 47230, Note_on_c, 0, 42, 75
1, 47246, Note_on_c, 0, 63, 65
1, 47250, Note_off_c, 0, 71, 55
1, 47269, Poly_aftertouch_c, 0, 69, 0
1, 47324, Note_on_c, 0, 59, 60
1, 47366, Note_off_c, 0, 63, 56
1, 47471, Note_on_c, 0, 40, 64
1, 47481, Poly_aftertouch_c, 0, 66, 127
1, 47491, Note_on_c, 0, 71, 87
1, 47545, Poly_aftertouch_c, 0, 66, 0
1, 47545, Note_off_c, 0, 59, 53
1, 47568, Control_c, 0, 64, 101
1, 47583, Control_c, 0, 64, 76
1, 47594, Note_off_c, 0, 42, 52
1, 47597, Control_c, 0, 64, 62
1, 47621, Control_c, 0, 64, 26
1, 47636, Control_c, 0, 64, 0
1, 47682, Note_off_c, 0, 68, 37
1, 47683, Note_on_c, 0, 59, 47
1, 47695, Control_c, 0, 64, 11
1, 47710, Control_c, 0, 64, 35
1, 47725, Control_c, 0, 64, 51
1, 47740, Control_c, 0, 64, 59
1, 47755, Control_c, 0, 64, 64
1, 47766, Note_on_c, 0, 64, 45
1, 47770, Control_c, 0, 64, 68
1, 47784, Control_c, 0, 64, 75
1, 47786, Note_off_c, 0, 59, 37
1, 47799, Control_c, 0, 64, 87
1, 47814, Control_c, 0, 64, 127
1, 47826, Note_off_c, 0, 64, 56
1, 47865, Note_on_c, 0, 68, 45
1, 47954, Note_off_c, 0, 68, 51
1, 47960, Note_on_c, 0, 64, 48
1, 48004, Note_off_c, 0, 64, 61
1, 48011, Note_on_c, 0, 59, 53
1, 48062, Note_off_c, 0, 59, 53
1, 48109, Note_on_c, 0, 64, 53
1, 48151, Note_off_c, 0, 64, 61
1, 48189, Note_on_c, 0, 59, 48
1, 48222, Note_off_c, 0, 59, 58
1, 48250, Note_on_c, 0, 64, 56
1, 48306, Note_off_c, 0, 64, 54
1, 48333, Note_on_c, 0, 68, 57
1, 48431, Note_off_c, 0, 71, 57
1, 48436, Note_on_c, 0, 64, 59
1, 48488, Note_on_c, 0, 59, 53
1, 48582, Note_off_c, 0, 68, 57
1, 48598, Note_on_c, 0, 39, 68
1, 48598, Note_on_c, 0, 71, 92
1, 48624, Note_off_c, 0, 59, 38
1, 48637, Control_c, 0, 64, 98
1, 48648, Note_off_c, 0, 64, 62
1, 48652, Control_c, 0, 64, 71
1, 48667, Control_c, 0, 64, 54
1, 48681, Poly_aftertouch_c, 0, 68, 127
1, 48682, Control_c, 0, 64, 19
1, 48697, Control_c, 0, 64, 29
1, 48712, Control_c, 0, 64, 43
1, 48719, Note_off_c, 0, 40, 51
1, 48724, Note_on_c, 0, 59, 46
1, 48726, Control_c, 0, 64, 55
1, 48741, Control_c, 0, 64, 64
1, 48756, Control_c, 0, 64, 72
1, 48771, Control_c, 0, 64, 86
1, 48786, Control_c, 0, 64, 127
1, 48788, Note_off_c, 0, 59, 60
1, 48791, Note_on_c, 0, 63, 58
1, 48872, Note_off_c, 0, 39, 63
1, 48878, Note_off_c, 0, 63, 52
1, 48911, Note_on_c, 0, 66, 65
1, 48983, Note_on_c, 0, 63, 57
1, 48992, Note_off_c, 0, 71, 56
1, 49055, Poly_aftertouch_c, 0, 68, 0
1, 49064, Note_on_c, 0, 59, 68
1, 49103, Note_off_c, 0, 59, 62
1, 49103, Note_off_c, 0, 66, 56
1, 49144, Note_off_c, 0, 63, 63
1, 49213, Note_on_c, 0, 73, 89
1, 49221, Note_on_c, 0, 39, 60
1, 49252, Control_c, 0, 64, 81
1, 49267, Control_c, 0, 64, 63
1, 49281, Control_c, 0, 64, 22
1, 49296, Control_c, 0, 64, 0
1, 49308, Note_off_c, 0, 39, 63
1, 49311, Control_c, 0, 64, 25
1, 49326, Note_on_c, 0, 37, 57
1, 49326, Control_c, 0, 64, 48
1, 49340, Control_c, 0, 64, 62
1, 49355, Control_c, 0, 64, 71
1, 49370, Note_off_c, 0, 37, 62
1, 49370, Control_c, 0, 64, 88
1, 49372, Note_on_c, 0, 64, 59
1, 49385, Control_c, 0, 64, 127
1, 49400, Note_on_c, 0, 39, 59
1, 49439, Note_off_c, 0, 39, 63
1, 49439, Note_off_c, 0, 64, 59
1, 49453, Note_on_c, 0, 37, 64
1, 49465, Note_on_c, 0, 66, 59
1, 49489, Note_off_c, 0, 37, 60
1, 49520, Note_on_c, 0, 39, 60
1, 49549, Note_off_c, 0, 39, 64
1, 49549, Note_on_c, 0, 37, 62
1, 49557, Note_off_c, 0, 66, 58
1, 49569, Note_on_c, 0, 70, 68
1, 49600, Note_off_c, 0, 37, 58
1, 49608, Note_on_c, 0, 39, 70
1, 49648, Note_on_c, 0, 66, 50
1, 49651, Note_off_c, 0, 73, 53
1, 49656, Note_on_c, 0, 37, 41
1, 49713, Note_off_c, 0, 70, 62
1, 49723, Note_off_c, 0, 37, 50
1, 49724, Note_off_c, 0, 39, 61
1, 49734, Note_on_c, 0, 35, 66
1, 49737, Note_on_c, 0, 64, 66
1, 49745, Note_off_c, 0, 66, 60
1, 49829, Note_on_c, 0, 37, 78
1, 49853, Note_off_c, 0, 35, 57
1, 49992, Poly_aftertouch_c, 0, 68, 127
1, 49999, Note_on_c, 0, 76, 89
1, 50000, Note_on_c, 0, 35, 61
1, 50044, Poly_aftertouch_c, 0, 68, 0
1, 50046, Control_c, 0, 64, 110
1, 50061, Control_c, 0, 64, 85
1, 50076, Control_c, 0, 64, 71
1, 50078, Note_off_c, 0, 37, 58
1, 50091, Control_c, 0, 64, 60
1, 50105, Control_c, 0, 64, 34
1, 50107, Note_off_c, 0, 64, 49
1, 50120, Control_c, 0, 64, 0
1, 50250, Note_on_c, 0, 64, 41
1, 50312, Control_c, 0, 67, 21
1, 50327, Control_c, 0, 64, 22
1, 50327, Control_c, 0, 67, 42
1, 50342, Control_c, 0, 64, 37
1, 50342, Control_c, 0, 67, 65
1, 50357, Control_c, 0, 64, 47
1, 50357, Control_c, 0, 67, 93
1, 50360, Note_on_c, 0, 66, 50
1, 50372, Control_c, 0, 64, 54
1, 50372, Control_c, 0, 67, 117
1, 50387, Control_c, 0, 64, 59
1, 50387, Control_c, 0, 67, 127
1, 50402, Control_c, 0, 64, 62
1, 50416, Control_c, 0, 64, 64
1, 50431, Control_c, 0, 64, 66
1, 50446, Control_c, 0, 64, 67
1, 50461, Control_c, 0, 64, 69
1, 50476, Control_c, 0, 64, 71
1, 50487, Note_off_c, 0, 64, 28
1, 50490, Control_c, 0, 64, 73
1, 50491, Note_on_c, 0, 73, 60
1, 50505, Control_c, 0, 64, 74
1, 50507, Note_off_c, 0, 66, 53
1, 50520, Control_c, 0, 64, 75
1, 50535, Control_c, 0, 64, 76
1, 50550, Control_c, 0, 64, 77
1, 50564, Control_c, 0, 64, 77
1, 50579, Control_c, 0, 64, 78
1, 50594, Control_c, 0, 64, 78
1, 50636, Note_on_c, 0, 66, 30
1, 50661, Control_c, 0, 64, 79
1, 50715, Note_off_c, 0, 66, 56
1, 50726, Note_on_c, 0, 64, 44
1, 50735, Control_c, 0, 64, 79
1, 50738, Note_off_c, 0, 73, 0
1, 50788, Note_off_c, 0, 64, 58
1, 50826, Note_on_c, 0, 66, 44
1, 50846, Poly_aftertouch_c, 0, 73, 0
1, 50895, Note_off_c, 0, 66, 60
1, 50906, Note_off_c, 0, 76, 48
1, 50917, Poly_aftertouch_c, 0, 74, 0
1, 50920, Note_on_c, 0, 64, 56
1, 50988, Control_c, 0, 64, 79
1, 50995, Note_off_c, 0, 64, 59
1, 51015, Note_on_c, 0, 66, 52
1, 51017, Control_c, 0, 64, 78
1, 51032, Control_c, 0, 64, 78
1, 51046, Control_c, 0, 64, 77
1, 51061, Control_c, 0, 64, 77
1, 51076, Control_c, 0, 64, 76
1, 51091, Control_c, 0, 64, 76
1, 51120, Control_c, 0, 64, 75
1, 51135, Control_c, 0, 64, 72
1, 51136, Note_on_c, 0, 75, 69
1, 51150, Control_c, 0, 64, 67
1, 51165, Control_c, 0, 64, 61
1, 51174, Note_on_c, 0, 71, 38
1, 51180, Control_c, 0, 64, 54
1, 51190, Note_off_c, 0, 66, 35
1, 51195, Control_c, 0, 64, 50
1, 51210, Control_c, 0, 64, 53
1, 51224, Control_c, 0, 64, 56
1, 51239, Control_c, 0, 64, 60
1, 51254, Control_c, 0, 64, 63
1, 51269, Control_c, 0, 64, 65
1, 51284, Control_c, 0, 64, 68
1, 51290, Note_on_c, 0, 66, 19
1, 51297, Control_c, 0, 64, 71
1, 51311, Control_c, 0, 64, 76
1, 51326, Control_c, 0, 64, 81
1, 51341, Control_c, 0, 64, 85
1, 51364, Control_c, 0, 64, 89
1, 51379, Control_c, 0, 64, 92
1, 51388, Note_off_c, 0, 75, 55
1, 51393, Control_c, 0, 64, 93
1, 51471, Note_on_c, 0, 63, 40
1, 51526, Control_c, 0, 64, 93
1, 51541, Control_c, 0, 64, 92
1, 51556, Control_c, 0, 64, 92
1, 51576, Note_on_c, 0, 75, 61
1, 51603, Note_off_c, 0, 66, 40
1, 51606, Note_off_c, 0, 63, 53
1, 51664, Note_off_c, 0, 71, 32
1, 51768, Note_on_c, 0, 63, 22
1, 51815, Note_off_c, 0, 63, 45
1, 51824, Control_c, 0, 64, 91
1, 51838, Note_on_c, 0, 66, 40
1, 51853, Control_c, 0, 64, 91
1, 51913, Control_c, 0, 64, 90
1, 51928, Control_c, 0, 64, 90
1, 51934, Note_off_c, 0, 66, 52
1, 51971, Note_on_c, 0, 71, 40
1, 52002, Control_c, 0, 64, 89
1, 52113, Note_on_c, 0, 66, 43
1, 52163, Note_off_c, 0, 66, 59
1, 52178, Note_off_c, 0, 71, 24
1, 52198, Note_on_c, 0, 63, 38
1, 52260, Note_off_c, 0, 63, 41
1, 52305, Note_on_c, 0, 66, 38
1, 52348, Note_off_c, 0, 66, 46
1, 52395, Control_c, 0, 64, 90
1, 52405, Note_on_c, 0, 63, 39
1, 52479, Note_off_c, 0, 63, 36
1, 52480, Note_off_c, 0, 35, 36
1, 52484, Note_on_c, 0, 66, 44
1, 52485, Control_c, 0, 64, 90
1, 52576, Note_off_c, 0, 66, 51
1, 52633, Note_on_c, 0, 71, 35
1, 52760, Note_on_c, 0, 66, 35
1, 52766, Note_off_c, 0, 75, 37
1, 52936, Control_c, 0, 64, 90
1, 52965, Note_on_c, 0, 63, 30
1, 53128, Note_off_c, 0, 63, 34
1, 53129, Control_c, 0, 64, 89
1, 53144, Control_c, 0, 64, 89
1, 53159, Control_c, 0, 64, 88
1, 53173, Control_c, 0, 64, 87
1, 53188, Control_c, 0, 64, 86
1, 53203, Control_c, 0, 64, 84
1, 53219, Control_c, 0, 64, 81
1, 53219, Note_off_c, 0, 71, 35
1, 53229, Note_on_c, 0, 75, 47
1, 53234, Control_c, 0, 64, 78
1, 53246, Note_on_c, 0, 54, 24
1, 53248, Control_c, 0, 64, 76
1, 53263, Control_c, 0, 64, 74
1, 53265, Note_on_c, 0, 47, 33
1, 53278, Control_c, 0, 64, 73
1, 53293, Control_c, 0, 64, 70
1, 53307, Control_c, 0, 64, 66
1, 53322, Control_c, 0, 64, 62
1, 53328, Note_off_c, 0, 66, 25
1, 53337, Control_c, 0, 64, 55
1, 53352, Control_c, 0, 64, 44
1, 53367, Control_c, 0, 64, 34
1, 53381, Control_c, 0, 64, 32
1, 53411, Control_c, 0, 64, 35
1, 53426, Control_c, 0, 64, 41
1, 53440, Control_c, 0, 64, 48
1, 53455, Control_c, 0, 64, 52
1, 53470, Control_c, 0, 64, 56
1, 53485, Control_c, 0, 64, 58
1, 53487, Note_on_c, 0, 63, 30
1, 53500, Control_c, 0, 64, 61
1, 53514, Control_c, 0, 64, 63
1, 53529, Control_c, 0, 64, 64
1, 53544, Control_c, 0, 64, 65
1, 53559, Control_c, 0, 64, 66
1, 53574, Control_c, 0, 64, 68
1, 53588, Control_c, 0, 64, 70
1, 53594, Note_on_c, 0, 66, 28
1, 53603, Control_c, 0, 64, 72
1, 53626, Control_c, 0, 64, 73
1, 53640, Control_c, 0, 64, 74
1, 53655, Control_c, 0, 64, 75
1, 53656, Note_off_c, 0, 63, 29
1, 53670, Control_c, 0, 64, 76
1, 53685, Control_c, 0, 64, 78
1, 53700, Control_c, 0, 64, 79
1, 53713, Note_off_c, 0, 66, 34
1, 53714, Control_c, 0, 64, 79
1, 53735, Note_on_c, 0, 71, 36
1, 53744, Control_c, 0, 64, 80
1, 53759, Control_c, 0, 64, 80
1, 53774, Control_c, 0, 64, 81
1, 53788, Control_c, 0, 64, 82
1, 53849, Note_on_c, 0, 66, 41
1, 53900, Note_off_c, 0, 71, 28
1, 53907, Note_off_c, 0, 66, 54
1, 53943, Note_on_c, 0, 63, 25
1, 53990, Note_off_c, 0, 63, 45
1, 54026, Note_on_c, 0, 66, 16
1, 54072, Note_off_c, 0, 66, 46
1, 54137, Note_on_c, 0, 63, 18
1, 54176, Note_off_c, 0, 63, 43
1, 54193, Note_on_c, 0, 66, 42
1, 54241, Note_off_c, 0, 66, 54
1, 54322, Note_on_c, 0, 71, 29
1, 54384, Note_off_c, 0, 54, 36
1, 54418, Note_on_c, 0, 66, 15
1, 54441, Note_off_c, 0, 47, 39
1, 54501, Note_off_c, 0, 75, 29
1, 54559, Note_on_c, 0, 63, 23
1, 54611, Note_off_c, 0, 66, 39
1, 54626, Control_c, 0, 64, 82
1, 54656, Control_c, 0, 64, 81
1, 54700, Control_c, 0, 64, 81
1, 54712, Note_on_c, 0, 47, 34
1, 54715, Note_on_c, 0, 56, 26
1, 54715, Note_on_c, 0, 75, 44
1, 54760, Control_c, 0, 64, 80
1, 54763, Note_off_c, 0, 63, 34
1, 54775, Control_c, 0, 64, 78
1, 54790, Control_c, 0, 64, 73
1, 54804, Control_c, 0, 64, 67
1, 54820, Control_c, 0, 64, 62
1, 54834, Control_c, 0, 64, 56
1, 54864, Control_c, 0, 64, 59
1, 54879, Control_c, 0, 64, 61
1, 54894, Control_c, 0, 64, 63
1, 54909, Control_c, 0, 64, 64
1, 54914, Note_on_c, 0, 68, 32
1, 54924, Control_c, 0, 64, 66
1, 54939, Control_c, 0, 64, 69
1, 54953, Control_c, 0, 64, 72
1, 54968, Control_c, 0, 64, 75
1, 54983, Control_c, 0, 64, 78
1, 54998, Control_c, 0, 64, 79
1, 54998, Note_off_c, 0, 75, 63
1, 55013, Control_c, 0, 64, 80
1, 55027, Control_c, 0, 64, 81
1, 55032, Note_on_c, 0, 65, 36
1, 55042, Control_c, 0, 64, 81
1, 55057, Control_c, 0, 64, 82
1, 55085, Note_on_c, 0, 74, 53
1, 55088, Note_off_c, 0, 68, 39
1, 55126, Note_off_c, 0, 65, 46
1, 55140, Note_off_c, 0, 71, 13
1, 55218, Note_on_c, 0, 68, 44
1, 55242, Control_c, 0, 64, 81
1, 55272, Control_c, 0, 64, 81
1, 55291, Note_off_c, 0, 68, 49
1, 55300, Note_on_c, 0, 65, 34
1, 55338, Note_off_c, 0, 65, 50
1, 55350, Note_off_c, 0, 74, 37
1, 55373, Note_on_c, 0, 53, 43
1, 55374, Note_on_c, 0, 71, 57
1, 55375, Control_c, 0, 64, 80
1, 55390, Control_c, 0, 64, 78
1, 55405, Control_c, 0, 64, 74
1, 55420, Control_c, 0, 64, 69
1, 55434, Control_c, 0, 64, 64
1, 55445, Note_off_c, 0, 56, 37
1, 55449, Control_c, 0, 64, 62
1, 55464, Control_c, 0, 64, 63
1, 55479, Control_c, 0, 64, 64
1, 55493, Control_c, 0, 64, 65
1, 55504, Note_on_c, 0, 65, 42
1, 55508, Control_c, 0, 64, 66
1, 55523, Control_c, 0, 64, 67
1, 55538, Control_c, 0, 64, 69
1, 55553, Control_c, 0, 64, 72
1, 55568, Control_c, 0, 64, 75
1, 55572, Note_on_c, 0, 62, 42
1, 55582, Control_c, 0, 64, 78
1, 55589, Note_off_c, 0, 65, 48
1, 55597, Control_c, 0, 64, 80
1, 55613, Control_c, 0, 64, 81
1, 55628, Control_c, 0, 64, 81
1, 55643, Control_c, 0, 64, 82
1, 55645, Note_off_c, 0, 62, 60
1, 55657, Control_c, 0, 64, 83
1, 55672, Control_c, 0, 64, 84
1, 55685, Note_on_c, 0, 68, 55
1, 55722, Note_off_c, 0, 47, 36
1, 55728, Note_off_c, 0, 71, 48
1, 55776, Note_on_c, 0, 65, 36
1, 55776, Control_c, 0, 64, 83
1, 55851, Note_off_c, 0, 65, 56
1, 55887, Control_c, 0, 64, 83
1, 55910, Note_on_c, 0, 61, 36
1, 55916, Control_c, 0, 64, 82
1, 55946, Control_c, 0, 64, 81
1, 55961, Control_c, 0, 64, 81
1, 55976, Control_c, 0, 64, 80
1, 55991, Control_c, 0, 64, 78
1, 55993, Note_off_c, 0, 61, 34
1, 56000, Note_on_c, 0, 73, 63
1, 56006, Control_c, 0, 64, 76
1, 56009, Note_on_c, 0, 46, 33
1, 56021, Control_c, 0, 64, 74
1, 56024, Note_on_c, 0, 54, 31
1, 56035, Control_c, 0, 64, 72
1, 56050, Control_c, 0, 64, 71
1, 56065, Control_c, 0, 64, 69
1, 56080, Control_c, 0, 64, 67
1, 56095, Control_c, 0, 64, 64
1, 56109, Control_c, 0, 64, 56
1, 56124, Control_c, 0, 64, 44
1, 56126, Note_off_c, 0, 68, 36
1, 56139, Control_c, 0, 64, 26
1, 56154, Control_c, 0, 64, 13
1, 56158, Note_on_c, 0, 61, 32
1, 56160, Note_off_c, 0, 53, 42
1, 56198, Control_c, 0, 64, 20
1, 56213, Control_c, 0, 64, 30
1, 56228, Control_c, 0, 64, 39
1, 56242, Control_c, 0, 64, 47
1, 56257, Note_on_c, 0, 66, 38
1, 56257, Control_c, 0, 64, 51
1, 56272, Control_c, 0, 64, 55
1, 56282, Note_off_c, 0, 61, 34
1, 56287, Control_c, 0, 64, 60
1, 56302, Control_c, 0, 64, 62
1, 56316, Note_off_c, 0, 66, 56
1, 56316, Control_c, 0, 64, 64
1, 56331, Control_c, 0, 64, 65
1, 56346, Control_c, 0, 64, 67
1, 56352, Note_on_c, 0, 70, 42
1, 56361, Control_c, 0, 64, 68
1, 56376, Control_c, 0, 64, 70
1, 56390, Control_c, 0, 64, 72
1, 56406, Control_c, 0, 64, 73
1, 56421, Control_c, 0, 64, 73
1, 56471, Note_on_c, 0, 66, 40
1, 56520, Note_off_c, 0, 66, 58
1, 56523, Note_off_c, 0, 70, 30
1, 56545, Note_on_c, 0, 61, 35
1, 56587, Note_off_c, 0, 61, 48
1, 56647, Note_on_c, 0, 66, 29
1, 56691, Note_off_c, 0, 66, 46
1, 56710, Control_c, 0, 64, 73
1, 56728, Note_on_c, 0, 61, 23
1, 56787, Note_off_c, 0, 61, 43
1, 56842, Note_on_c, 0, 66, 9
1, 56889, Note_off_c, 0, 66, 37
1, 56906, Note_off_c, 0, 54, 38
1, 56918, Note_on_c, 0, 70, 29
1, 57025, Note_on_c, 0, 66, 37
1, 57034, Note_off_c, 0, 46, 33
1, 57043, Note_off_c, 0, 73, 39
1, 57050, Control_c, 0, 64, 72
1, 57095, Control_c, 0, 64, 72
1, 57133, Note_on_c, 0, 61, 24
1, 57139, Control_c, 0, 64, 71
1, 57199, Control_c, 0, 64, 71
1, 57211, Note_off_c, 0, 66, 41
1, 57215, Control_c, 0, 64, 70
1, 57224, Note_off_c, 0, 61, 56
1, 57229, Control_c, 0, 64, 67
1, 57234, Note_on_c, 0, 73, 55
1, 57238, Note_on_c, 0, 47, 31
1, 57243, Note_on_c, 0, 55, 25
1, 57244, Control_c, 0, 64, 64
1, 57259, Control_c, 0, 64, 59
1, 57274, Control_c, 0, 64, 54
1, 57288, Control_c, 0, 64, 54
1, 57303, Control_c, 0, 64, 56
1, 57318, Control_c, 0, 64, 58
1, 57333, Control_c, 0, 64, 60
1, 57348, Control_c, 0, 64, 61
1, 57370, Control_c, 0, 64, 63
1, 57385, Control_c, 0, 64, 64
1, 57400, Control_c, 0, 64, 66
1, 57415, Control_c, 0, 64, 67
1, 57420, Note_on_c, 0, 67, 7
1, 57428, Note_off_c, 0, 73, 60
1, 57430, Control_c, 0, 64, 69
1, 57444, Control_c, 0, 64, 70
1, 57459, Control_c, 0, 64, 71
1, 57474, Control_c, 0, 64, 72
1, 57475, Note_off_c, 0, 70, 22
1, 57478, Note_on_c, 0, 63, 9
1, 57525, Note_off_c, 0, 63, 43
1, 57533, Control_c, 0, 64, 72
1, 57548, Control_c, 0, 64, 70
1, 57556, Note_on_c, 0, 71, 53
1, 57558, Note_on_c, 0, 56, 39
1, 57562, Control_c, 0, 64, 67
1, 57577, Control_c, 0, 64, 63
1, 57591, Note_off_c, 0, 67, 39
1, 57592, Control_c, 0, 64, 56
1, 57607, Control_c, 0, 64, 54
1, 57622, Control_c, 0, 64, 55
1, 57636, Control_c, 0, 64, 57
1, 57651, Control_c, 0, 64, 59
1, 57659, Note_on_c, 0, 68, 10
1, 57666, Control_c, 0, 64, 61
1, 57681, Control_c, 0, 64, 63
1, 57696, Control_c, 0, 64, 65
1, 57710, Note_off_c, 0, 68, 49
1, 57711, Control_c, 0, 64, 66
1, 57726, Control_c, 0, 64, 68
1, 57741, Control_c, 0, 64, 70
1, 57747, Note_on_c, 0, 63, 29
1, 57755, Control_c, 0, 64, 72
1, 57770, Control_c, 0, 64, 75
1, 57781, Note_off_c, 0, 63, 51
1, 57785, Control_c, 0, 64, 76
1, 57800, Control_c, 0, 64, 76
1, 57815, Control_c, 0, 64, 74
1, 57829, Control_c, 0, 64, 70
1, 57844, Control_c, 0, 64, 65
1, 57845, Note_off_c, 0, 71, 36
1, 57851, Note_on_c, 0, 51, 44
1, 57855, Note_on_c, 0, 68, 45
1, 57859, Control_c, 0, 64, 61
1, 57860, Note_off_c, 0, 55, 36
1, 57873, Control_c, 0, 64, 62
1, 57881, Note_off_c, 0, 56, 35
1, 57888, Control_c, 0, 64, 63
1, 57903, Control_c, 0, 64, 64
1, 57918, Control_c, 0, 64, 65
1, 57933, Control_c, 0, 64, 66
1, 57948, Control_c, 0, 64, 67
1, 57949, Note_off_c, 0, 68, 61
1, 57955, Note_on_c, 0, 63, 36
1, 57962, Control_c, 0, 64, 68
1, 57977, Control_c, 0, 64, 69
1, 57992, Control_c, 0, 64, 71
1, 57999, Note_off_c, 0, 63, 57
1, 58008, Control_c, 0, 64, 72
1, 58023, Control_c, 0, 64, 72
1, 58038, Control_c, 0, 64, 73
1, 58080, Note_on_c, 0, 59, 30
1, 58119, Control_c, 0, 64, 72
1, 58128, Note_off_c, 0, 59, 50
1, 58134, Control_c, 0, 64, 70
1, 58149, Control_c, 0, 64, 65
1, 58158, Note_on_c, 0, 48, 37
1, 58164, Control_c, 0, 64, 60
1, 58164, Note_on_c, 0, 63, 52
1, 58179, Control_c, 0, 64, 56
1, 58193, Control_c, 0, 64, 57
1, 58196, Note_off_c, 0, 47, 16
1, 58208, Control_c, 0, 64, 59
1, 58223, Control_c, 0, 64, 61
1, 58227, Note_off_c, 0, 51, 38
1, 58238, Control_c, 0, 64, 62
1, 58253, Control_c, 0, 64, 63
1, 58267, Control_c, 0, 64, 64
1, 58274, Note_on_c, 0, 60, 49
1, 58282, Control_c, 0, 64, 66
1, 58297, Control_c, 0, 64, 68
1, 58311, Control_c, 0, 64, 69
1, 58326, Control_c, 0, 64, 71
1, 58341, Control_c, 0, 64, 73
1, 58356, Control_c, 0, 64, 74
1, 58371, Control_c, 0, 64, 74
1, 58385, Control_c, 0, 64, 75
1, 58400, Control_c, 0, 64, 76
1, 58411, Note_on_c, 0, 56, 34
1, 58415, Control_c, 0, 64, 76
1, 58459, Control_c, 0, 64, 76
1, 58474, Control_c, 0, 64, 75
1, 58489, Note_off_c, 0, 60, 30
1, 58541, Note_on_c, 0, 49, 34
1, 58548, Control_c, 0, 64, 75
1, 58563, Note_on_c, 0, 66, 58
1, 58563, Control_c, 0, 64, 73
1, 58571, Note_off_c, 0, 56, 39
1, 58578, Control_c, 0, 64, 70
1, 58593, Control_c, 0, 64, 66
1, 58608, Control_c, 0, 64, 59
1, 58620, Note_off_c, 0, 63, 39
1, 58623, Control_c, 0, 64, 50
1, 58630, Note_off_c, 0, 48, 41
1, 58638, Control_c, 0, 64, 46
1, 58652, Control_c, 0, 64, 47
1, 58667, Control_c, 0, 64, 51
1, 58682, Control_c, 0, 64, 55
1, 58697, Control_c, 0, 64, 58
1, 58711, Control_c, 0, 64, 60
1, 58726, Control_c, 0, 64, 62
1, 58741, Control_c, 0, 64, 64
1, 58748, Note_on_c, 0, 54, 25
1, 58756, Control_c, 0, 64, 65
1, 58771, Control_c, 0, 64, 67
1, 58785, Control_c, 0, 64, 68
1, 58801, Control_c, 0, 64, 70
1, 58813, Note_on_c, 0, 58, 41
1, 58816, Control_c, 0, 64, 72
1, 58831, Control_c, 0, 64, 74
1, 58853, Control_c, 0, 64, 75
1, 58880, Note_off_c, 0, 54, 28
1, 58907, Note_off_c, 0, 58, 51
1, 58948, Note_on_c, 0, 61, 36
1, 58949, Note_off_c, 0, 49, 48
1, 59031, Note_off_c, 0, 61, 50
1, 59058, Note_on_c, 0, 58, 47
1, 59097, Note_off_c, 0, 58, 62
1, 59127, Note_on_c, 0, 54, 41
1, 59169, Note_off_c, 0, 54, 48
1, 59210, Note_on_c, 0, 58, 43
1, 59258, Note_off_c, 0, 58, 60
1, 59310, Note_on_c, 0, 54, 16
1, 59352, Note_off_c, 0, 54, 48
1, 59374, Note_on_c, 0, 58, 49
1, 59419, Note_off_c, 0, 58, 57
1, 59492, Note_on_c, 0, 61, 36
1, 59574, Note_on_c, 0, 58, 37
1, 59625, Note_off_c, 0, 66, 34
1, 59631, Control_c, 0, 64, 74
1, 59640, Note_off_c, 0, 58, 56
1, 59659, Note_on_c, 0, 54, 34
1, 59661, Control_c, 0, 64, 74
1, 59677, Note_on_c, 0, 37, 28
1, 59735, Control_c, 0, 64, 74
1, 59750, Control_c, 0, 64, 74
1, 59765, Control_c, 0, 64, 72
1, 59780, Control_c, 0, 64, 68
1, 59795, Control_c, 0, 64, 64
1, 59809, Control_c, 0, 64, 62
1, 59810, Note_off_c, 0, 54, 54
1, 59822, Note_on_c, 0, 66, 50
1, 59824, Control_c, 0, 64, 62
1, 59839, Control_c, 0, 64, 63
1, 59854, Control_c, 0, 64, 64
1, 59865, Note_on_c, 0, 49, 14
1, 59869, Control_c, 0, 64, 65
1, 59884, Control_c, 0, 64, 67
1, 59899, Control_c, 0, 64, 68
1, 59913, Control_c, 0, 64, 70
1, 59928, Control_c, 0, 64, 73
1, 59943, Control_c, 0, 64, 75
1, 59950, Note_on_c, 0, 59, 43
1, 59952, Note_off_c, 0, 37, 42
1, 59957, Control_c, 0, 64, 78
1, 59972, Control_c, 0, 64, 80
1, 59978, Note_off_c, 0, 66, 57
1, 59987, Control_c, 0, 64, 83
1, 60002, Control_c, 0, 64, 85
1, 60017, Control_c, 0, 64, 87
1, 60031, Control_c, 0, 64, 89
1, 60032, Note_on_c, 0, 56, 47
1, 60046, Control_c, 0, 64, 89
1, 60061, Control_c, 0, 64, 90
1, 60075, Control_c, 0, 64, 91
1, 60078, Note_off_c, 0, 61, 51
1, 60085, Note_off_c, 0, 56, 58
1, 60090, Control_c, 0, 64, 91
1, 60099, Note_off_c, 0, 59, 60
1, 60104, Note_on_c, 0, 65, 65
1, 60105, Control_c, 0, 64, 92
1, 60120, Control_c, 0, 64, 92
1, 60135, Control_c, 0, 64, 93
1, 60149, Control_c, 0, 64, 93
1, 60179, Control_c, 0, 64, 94
1, 60191, Note_off_c, 0, 65, 60
1, 60194, Control_c, 0, 64, 94
1, 60209, Control_c, 0, 64, 95
1, 60224, Control_c, 0, 64, 95
1, 60227, Note_on_c, 0, 59, 54
1, 60260, Note_off_c, 0, 59, 64
1, 60307, Note_on_c, 0, 56, 49
1, 60343, Control_c, 0, 64, 95
1, 60344, Note_off_c, 0, 56, 62
1, 60364, Control_c, 0, 64, 94
1, 60394, Control_c, 0, 64, 93
1, 60410, Control_c, 0, 64, 93
1, 60425, Control_c, 0, 64, 92
1, 60440, Control_c, 0, 64, 91
1, 60444, Note_on_c, 0, 54, 43
1, 60454, Control_c, 0, 64, 90
1, 60461, Note_on_c, 0, 70, 61
1, 60469, Control_c, 0, 64, 87
1, 60484, Control_c, 0, 64, 79
1, 60499, Control_c, 0, 64, 69
1, 60514, Control_c, 0, 64, 59
1, 60528, Control_c, 0, 64, 41
1, 60543, Control_c, 0, 64, 29
1, 60558, Control_c, 0, 64, 33
1, 60573, Control_c, 0, 64, 44
1, 60587, Control_c, 0, 64, 52
1, 60602, Control_c, 0, 64, 58
1, 60608, Note_off_c, 0, 49, 42
1, 60617, Control_c, 0, 64, 62
1, 60626, Note_on_c, 0, 61, 37
1, 60632, Control_c, 0, 64, 64
1, 60647, Control_c, 0, 64, 67
1, 60662, Control_c, 0, 64, 70
1, 60677, Control_c, 0, 64, 72
1, 60689, Note_off_c, 0, 70, 55
1, 60692, Control_c, 0, 64, 74
1, 60706, Control_c, 0, 64, 75
1, 60721, Control_c, 0, 64, 76
1, 60736, Control_c, 0, 64, 77
1, 60739, Note_on_c, 0, 59, 40
1, 60751, Control_c, 0, 64, 78
1, 60756, Note_off_c, 0, 54, 36
1, 60766, Control_c, 0, 64, 78
1, 60795, Control_c, 0, 64, 77
1, 60810, Control_c, 0, 64, 74
1, 60825, Control_c, 0, 64, 69
1, 60829, Note_off_c, 0, 61, 37
1, 60829, Note_on_c, 0, 53, 40
1, 60832, Note_off_c, 0, 59, 51
1, 60840, Control_c, 0, 64, 64
1, 60848, Note_on_c, 0, 68, 48
1, 60854, Control_c, 0, 64, 61
1, 60869, Control_c, 0, 64, 62
1, 60884, Control_c, 0, 64, 63
1, 60898, Control_c, 0, 64, 64
1, 60913, Control_c, 0, 64, 65
1, 60928, Control_c, 0, 64, 66
1, 60943, Control_c, 0, 64, 67
1, 60958, Control_c, 0, 64, 69
1, 60972, Control_c, 0, 64, 71
1, 60979, Note_off_c, 0, 53, 53
1, 60986, Note_on_c, 0, 61, 33
1, 60987, Control_c, 0, 64, 74
1, 61002, Control_c, 0, 64, 76
1, 61017, Control_c, 0, 64, 78
1, 61032, Control_c, 0, 64, 79
1, 61046, Control_c, 0, 64, 80
1, 61076, Control_c, 0, 64, 80
1, 61079, Note_off_c, 0, 68, 36
1, 61154, Note_on_c, 0, 59, 27
1, 61218, Control_c, 0, 64, 80
1, 61263, Control_c, 0, 64, 79
1, 61264, Note_off_c, 0, 59, 49
1, 61277, Control_c, 0, 64, 79
1, 61292, Control_c, 0, 64, 78
1, 61322, Control_c, 0, 64, 77
1, 61336, Control_c, 0, 64, 77
1, 61342, Note_on_c, 0, 49, 28
1, 61343, Note_on_c, 0, 42, 31
1, 61345, Note_on_c, 0, 66, 48
1, 61351, Control_c, 0, 64, 75
1, 61366, Control_c, 0, 64, 74
1, 61381, Control_c, 0, 64, 73
1, 61396, Control_c, 0, 64, 72
1, 61410, Control_c, 0, 64, 72
1, 61419, Note_off_c, 0, 61, 37
1, 61425, Control_c, 0, 64, 70
1, 61440, Control_c, 0, 64, 68
1, 61455, Control_c, 0, 64, 65
1, 61470, Control_c, 0, 64, 61
1, 61485, Control_c, 0, 64, 54
1, 61500, Control_c, 0, 64, 46
1, 61514, Control_c, 0, 64, 43
1, 61559, Control_c, 0, 64, 45
1, 61574, Control_c, 0, 64, 49
1, 61589, Control_c, 0, 64, 52
1, 61591, Note_on_c, 0, 54, 35
1, 61603, Control_c, 0, 64, 54
1, 61618, Control_c, 0, 64, 56
1, 61633, Control_c, 0, 64, 58
1, 61648, Control_c, 0, 64, 59
1, 61663, Control_c, 0, 64, 61
1, 61673, Note_on_c, 0, 58, 39
1, 61677, Control_c, 0, 64, 62
1, 61692, Control_c, 0, 64, 64
1, 61707, Control_c, 0, 64, 65
1, 61721, Control_c, 0, 64, 66
1, 61735, Note_off_c, 0, 58, 57
1, 61736, Control_c, 0, 64, 67
1, 61751, Control_c, 0, 64, 68
1, 61766, Control_c, 0, 64, 70
1, 61780, Control_c, 0, 64, 71
1, 61791, Note_off_c, 0, 54, 17
1, 61794, Control_c, 0, 64, 72
1, 61798, Note_on_c, 0, 61, 36
1, 61809, Control_c, 0, 64, 72
1, 61839, Control_c, 0, 64, 73
1, 61861, Control_c, 0, 64, 73
1, 61875, Control_c, 0, 64, 74
1, 61890, Control_c, 0, 64, 75
1, 61918, Note_on_c, 0, 58, 39
1, 61920, Control_c, 0, 64, 75
1, 61935, Control_c, 0, 64, 76
1, 61935, Note_off_c, 0, 61, 36
1, 61950, Control_c, 0, 64, 77
1, 61963, Note_off_c, 0, 58, 60
1, 61965, Control_c, 0, 64, 78
1, 61984, Note_on_c, 0, 54, 41
1, 61994, Control_c, 0, 64, 78
1, 62024, Control_c, 0, 64, 79
1, 62036, Note_off_c, 0, 54, 57
1, 62039, Control_c, 0, 64, 80
1, 62054, Control_c, 0, 64, 80
1, 62069, Control_c, 0, 64, 81
1, 62090, Note_on_c, 0, 58, 44
1, 62114, Control_c, 0, 64, 81
1, 62129, Note_off_c, 0, 58, 50
1, 62143, Control_c, 0, 64, 82
1, 62158, Control_c, 0, 64, 82
1, 62179, Note_on_c, 0, 54, 35
1, 62188, Control_c, 0, 64, 83
1, 62203, Control_c, 0, 64, 83
1, 62225, Note_off_c, 0, 54, 44
1, 62232, Control_c, 0, 64, 84
1, 62245, Note_on_c, 0, 58, 46
1, 62247, Control_c, 0, 64, 85
1, 62277, Note_off_c, 0, 58, 59
1, 62277, Control_c, 0, 64, 85
1, 62336, Control_c, 0, 64, 86
1, 62349, Note_on_c, 0, 61, 36
1, 62350, Control_c, 0, 64, 86
1, 62365, Control_c, 0, 64, 87
1, 62380, Control_c, 0, 64, 88
1, 62395, Control_c, 0, 64, 89
1, 62424, Control_c, 0, 64, 89
1, 62436, Note_on_c, 0, 58, 35
1, 62439, Control_c, 0, 64, 90
1, 62454, Note_off_c, 0, 61, 34
1, 62454, Control_c, 0, 64, 92
1, 62468, Control_c, 0, 64, 93
1, 62478, Note_off_c, 0, 58, 59
1, 62483, Control_c, 0, 64, 95
1, 62498, Control_c, 0, 64, 97
1, 62513, Control_c, 0, 64, 99
1, 62515, Note_on_c, 0, 54, 41
1, 62528, Control_c, 0, 64, 101
1, 62543, Control_c, 0, 64, 103
1, 62558, Control_c, 0, 64, 107
1, 62558, Control_c, 0, 67, 122
1, 62561, Note_off_c, 0, 54, 50
1, 62573, Control_c, 0, 64, 113
1, 62573, Control_c, 0, 67, 112
1, 62588, Control_c, 0, 64, 127
1, 62588, Control_c, 0, 67, 100
1, 62604, Note_on_c, 0, 58, 41
1, 62610, Control_c, 0, 67, 90
1, 62624, Control_c, 0, 67, 79
1, 62639, Control_c, 0, 67, 69
1, 62654, Control_c, 0, 67, 60
1, 62668, Note_off_c, 0, 58, 55
1, 62669, Control_c, 0, 67, 51
1, 62683, Control_c, 0, 67, 44
1, 62698, Control_c, 0, 67, 38
1, 62713, Note_on_c, 0, 54, 42
1, 62713, Control_c, 0, 67, 31
1, 62728, Control_c, 0, 67, 25
1, 62743, Control_c, 0, 67, 19
1, 62758, Control_c, 0, 67, 12
1, 62772, Control_c, 0, 67, 0
1, 62793, Note_on_c, 0, 58, 56
1, 62811, Note_off_c, 0, 54, 42
1, 62838, Note_off_c, 0, 58, 57
1, 62893, Note_on_c, 0, 61, 49
1, 62978, Note_on_c, 0, 58, 52
1, 63066, Note_on_c, 0, 54, 53
1, 63095, Note_off_c, 0, 58, 48
1, 63131, Poly_aftertouch_c, 0, 63, 127
1, 63142, Note_off_c, 0, 49, 41
1, 63166, Note_off_c, 0, 54, 55
1, 63169, Note_on_c, 0, 50, 60
1, 63172, Note_on_c, 0, 41, 53
1, 63200, Note_on_c, 0, 58, 44
1, 63208, Note_off_c, 0, 42, 35
1, 63264, Note_off_c, 0, 61, 37
1, 63302, Note_on_c, 0, 54, 61
1, 63304, Note_off_c, 0, 58, 60
1, 63307, Control_c, 0, 64, 100
1, 63322, Control_c, 0, 64, 76
1, 63337, Control_c, 0, 64, 64
1, 63360, Control_c, 0, 64, 46
1, 63374, Control_c, 0, 64, 30
1, 63389, Control_c, 0, 64, 38
1, 63404, Control_c, 0, 64, 50
1, 63419, Control_c, 0, 64, 59
1, 63421, Note_on_c, 0, 58, 63
1, 63434, Control_c, 0, 64, 65
1, 63434, Note_off_c, 0, 54, 51
1, 63449, Control_c, 0, 64, 73
1, 63463, Control_c, 0, 64, 99
1, 63478, Control_c, 0, 64, 127
1, 63550, Note_on_c, 0, 62, 59
1, 63571, Note_off_c, 0, 58, 60
1, 63676, Note_on_c, 0, 58, 56
1, 63704, Note_off_c, 0, 50, 54
1, 63737, Poly_aftertouch_c, 0, 63, 0
1, 63749, Note_off_c, 0, 66, 52
1, 63759, Note_off_c, 0, 62, 57
1, 63801, Note_on_c, 0, 54, 62
1, 63806, Note_off_c, 0, 58, 62
1, 63837, Note_off_c, 0, 54, 65
1, 64028, Note_on_c, 0, 51, 66
1, 64032, Note_on_c, 0, 70, 85
1, 64034, Note_on_c, 0, 39, 64
1, 64057, Control_c, 0, 64, 106
1, 64071, Control_c, 0, 64, 81
1, 64086, Control_c, 0, 64, 67
1, 64108, Control_c, 0, 64, 46
1, 64123, Control_c, 0, 64, 0
1, 64137, Note_off_c, 0, 41, 59
1, 64312, Note_on_c, 0, 58, 53
1, 64438, Note_on_c, 0, 63, 42
1, 64480, Control_c, 0, 64, 17
1, 64494, Control_c, 0, 64, 38
1, 64496, Note_off_c, 0, 63, 56
1, 64509, Control_c, 0, 64, 50
1, 64524, Control_c, 0, 64, 59
1, 64539, Control_c, 0, 64, 63
1, 64546, Note_on_c, 0, 66, 38
1, 64553, Control_c, 0, 64, 67
1, 64568, Control_c, 0, 64, 75
1, 64582, Note_off_c, 0, 58, 34
1, 64583, Control_c, 0, 64, 87
1, 64598, Control_c, 0, 64, 127
1, 64655, Note_on_c, 0, 63, 42
1, 64713, Note_off_c, 0, 63, 57
1, 64716, Note_off_c, 0, 66, 38
1, 64755, Note_on_c, 0, 58, 46
1, 64816, Note_off_c, 0, 58, 59
1, 64868, Note_on_c, 0, 63, 43
1, 64930, Note_off_c, 0, 63, 57
1, 64959, Note_on_c, 0, 58, 53
1, 64968, Note_off_c, 0, 51, 32
1, 65029, Note_off_c, 0, 58, 51
1, 65035, Note_off_c, 0, 39, 26
1, 65058, Note_on_c, 0, 63, 49
1, 65124, Note_on_c, 0, 39, 58
1, 65138, Note_off_c, 0, 63, 55
1, 65143, Note_on_c, 0, 66, 59
1, 65246, Note_on_c, 0, 41, 67
1, 65264, Note_on_c, 0, 63, 70
1, 65330, Note_off_c, 0, 70, 57
1, 65334, Note_off_c, 0, 39, 34
1, 65342, Note_on_c, 0, 42, 82
1, 65354, Note_on_c, 0, 58, 76
1, 65366, Note_off_c, 0, 41, 64
1, 65393, Note_off_c, 0, 42, 63
1, 65458, Note_on_c, 0, 70, 87
1, 65463, Note_on_c, 0, 42, 86
1, 65477, Note_off_c, 0, 58, 59
1, 65488, Note_off_c, 0, 66, 60
1, 65524, Control_c, 0, 64, 104
1, 65539, Control_c, 0, 64, 75
1, 65554, Control_c, 0, 64, 60
1, 65569, Control_c, 0, 64, 24
1, 65583, Control_c, 0, 64, 0
1, 65601, Note_off_c, 0, 63, 25
1, 65632, Note_on_c, 0, 58, 54
1, 65636, Control_c, 0, 64, 36
1, 65650, Control_c, 0, 64, 50
1, 65665, Control_c, 0, 64, 56
1, 65680, Control_c, 0, 64, 62
1, 65695, Control_c, 0, 64, 66
1, 65706, Note_off_c, 0, 58, 56
1, 65710, Control_c, 0, 64, 72
1, 65724, Control_c, 0, 64, 80
1, 65739, Note_on_c, 0, 63, 45
1, 65739, Control_c, 0, 64, 92
1, 65754, Control_c, 0, 64, 127
1, 65790, Note_off_c, 0, 63, 58
1, 65831, Note_on_c, 0, 66, 48
1, 65920, Note_on_c, 0, 63, 47
1, 65968, Note_off_c, 0, 66, 36
1, 65974, Note_off_c, 0, 63, 57
1, 66013, Note_on_c, 0, 58, 49
1, 66057, Note_off_c, 0, 58, 61
1, 66102, Note_on_c, 0, 63, 47
1, 66150, Note_off_c, 0, 63, 58
1, 66192, Note_on_c, 0, 58, 51
1, 66241, Note_off_c, 0, 58, 56
1, 66252, Note_on_c, 0, 63, 57
1, 66262, Note_off_c, 0, 42, 61
1, 66329, Note_off_c, 0, 63, 61
1, 66330, Note_on_c, 0, 42, 76
1, 66359, Note_on_c, 0, 66, 57
1, 66446, Note_on_c, 0, 44, 80
1, 66466, Note_on_c, 0, 63, 58
1, 66478, Note_off_c, 0, 66, 59
1, 66487, Note_off_c, 0, 42, 62
1, 66500, Note_off_c, 0, 70, 56
1, 66510, Note_off_c, 0, 63, 59
1, 66543, Note_on_c, 0, 46, 83
1, 66573, Note_off_c, 0, 44, 61
1, 66588, Note_off_c, 0, 46, 63
1, 66687, Note_on_c, 0, 70, 88
1, 66704, Note_on_c, 0, 46, 60
1, 66724, Control_c, 0, 64, 78
1, 66739, Control_c, 0, 64, 56
1, 66754, Control_c, 0, 64, 0
1, 66805, Note_on_c, 0, 62, 45
1, 66814, Control_c, 0, 64, 24
1, 66829, Control_c, 0, 64, 56
1, 66844, Control_c, 0, 64, 67
1, 66859, Control_c, 0, 64, 79
1, 66874, Control_c, 0, 64, 108
1, 66876, Note_on_c, 0, 65, 59
1, 66877, Note_off_c, 0, 70, 62
1, 66888, Control_c, 0, 64, 127
1, 66890, Note_off_c, 0, 62, 61
1, 66903, Note_off_c, 0, 65, 64
1, 67041, Note_on_c, 0, 59, 57
1, 67071, Note_on_c, 0, 77, 84
1, 67220, Note_on_c, 0, 65, 55
1, 67318, Note_on_c, 0, 68, 58
1, 67360, Note_on_c, 0, 56, 64
1, 67365, Note_on_c, 0, 74, 84
1, 67370, Note_off_c, 0, 68, 60
1, 67375, Note_off_c, 0, 59, 31
1, 67382, Note_off_c, 0, 65, 30
1, 67423, Note_off_c, 0, 77, 49
1, 67469, Note_on_c, 0, 65, 46
1, 67541, Note_off_c, 0, 65, 55
1, 67548, Note_on_c, 0, 68, 70
1, 67616, Note_on_c, 0, 53, 60
1, 67631, Note_on_c, 0, 71, 82
1, 67658, Note_off_c, 0, 46, 57
1, 67663, Note_off_c, 0, 68, 58
1, 67667, Note_off_c, 0, 56, 59
1, 67694, Note_off_c, 0, 53, 63
1, 67700, Note_off_c, 0, 74, 46
1, 67729, Note_on_c, 0, 65, 54
1, 67822, Note_on_c, 0, 68, 61
1, 67861, Note_off_c, 0, 71, 61
1, 67905, Note_on_c, 0, 46, 52
1, 67905, Note_off_c, 0, 65, 57
1, 67921, Note_on_c, 0, 50, 49
1, 67927, Note_on_c, 0, 71, 76
1, 67956, Control_c, 0, 64, 85
1, 67971, Control_c, 0, 64, 66
1, 67986, Control_c, 0, 64, 39
1, 67992, Note_off_c, 0, 68, 53
1, 68001, Control_c, 0, 64, 0
1, 68043, Note_on_c, 0, 65, 47
1, 68075, Control_c, 0, 64, 32
1, 68090, Control_c, 0, 64, 47
1, 68105, Control_c, 0, 64, 56
1, 68119, Control_c, 0, 64, 62
1, 68134, Control_c, 0, 64, 65
1, 68144, Note_on_c, 0, 68, 47
1, 68149, Control_c, 0, 64, 67
1, 68162, Note_off_c, 0, 65, 36
1, 68163, Control_c, 0, 64, 70
1, 68178, Control_c, 0, 64, 74
1, 68193, Control_c, 0, 64, 79
1, 68208, Control_c, 0, 64, 84
1, 68223, Control_c, 0, 64, 88
1, 68228, Note_on_c, 0, 70, 63
1, 68237, Control_c, 0, 64, 90
1, 68252, Control_c, 0, 64, 92
1, 68275, Note_off_c, 0, 68, 37
1, 68282, Control_c, 0, 64, 93
1, 68297, Control_c, 0, 64, 95
1, 68307, Note_on_c, 0, 65, 50
1, 68311, Control_c, 0, 64, 98
1, 68317, Note_off_c, 0, 71, 54
1, 68326, Control_c, 0, 64, 100
1, 68341, Control_c, 0, 64, 100
1, 68378, Note_off_c, 0, 65, 61
1, 68388, Note_off_c, 0, 70, 55
1, 68404, Note_on_c, 0, 68, 57
1, 68416, Control_c, 0, 64, 100
1, 68475, Control_c, 0, 64, 99
1, 68490, Note_off_c, 0, 68, 60
1, 68490, Control_c, 0, 64, 98
1, 68504, Note_on_c, 0, 70, 68
1, 68505, Control_c, 0, 64, 91
1, 68520, Control_c, 0, 64, 78
1, 68535, Control_c, 0, 64, 66
1, 68549, Control_c, 0, 64, 49
1, 68564, Control_c, 0, 64, 0
1, 68616, Control_c, 0, 64, 32
1, 68623, Note_on_c, 0, 58, 40
1, 68631, Control_c, 0, 64, 48
1, 68646, Control_c, 0, 64, 56
1, 68661, Control_c, 0, 64, 61
1, 68669, Note_off_c, 0, 58, 56
1, 68675, Control_c, 0, 64, 66
1, 68681, Note_on_c, 0, 65, 49
1, 68690, Control_c, 0, 64, 70
1, 68705, Control_c, 0, 64, 76
1, 68720, Control_c, 0, 64, 84
1, 68735, Control_c, 0, 64, 92
1, 68749, Control_c, 0, 64, 101
1, 68764, Control_c, 0, 64, 121
1, 68774, Note_on_c, 0, 68, 65
1, 68779, Control_c, 0, 64, 127
1, 68789, Note_off_c, 0, 65, 50
1, 68820, Note_off_c, 0, 50, 30
1, 68824, Control_c, 0, 64, 103
1, 68839, Control_c, 0, 64, 83
1, 68840, Note_off_c, 0, 70, 55
1, 68844, Note_on_c, 0, 58, 42
1, 68853, Control_c, 0, 64, 68
1, 68868, Control_c, 0, 64, 61
1, 68883, Control_c, 0, 64, 59
1, 68898, Control_c, 0, 64, 62
1, 68913, Control_c, 0, 64, 63
1, 68925, Note_on_c, 0, 48, 46
1, 68928, Control_c, 0, 64, 65
1, 68939, Note_off_c, 0, 58, 46
1, 68942, Control_c, 0, 64, 66
1, 68946, Note_off_c, 0, 46, 55
1, 68957, Control_c, 0, 64, 68
1, 68960, Note_off_c, 0, 68, 50
1, 68968, Note_on_c, 0, 65, 29
1, 68972, Control_c, 0, 64, 70
1, 68986, Control_c, 0, 64, 72
1, 69021, Note_on_c, 0, 50, 53
1, 69031, Control_c, 0, 64, 71
1, 69034, Note_off_c, 0, 48, 57
1, 69060, Control_c, 0, 64, 71
1, 69075, Control_c, 0, 64, 70
1, 69090, Control_c, 0, 64, 69
1, 69105, Control_c, 0, 64, 68
1, 69112, Note_on_c, 0, 68, 62
1, 69119, Control_c, 0, 64, 68
1, 69149, Control_c, 0, 64, 67
1, 69159, Note_on_c, 0, 51, 43
1, 69164, Note_off_c, 0, 65, 40
1, 69164, Control_c, 0, 64, 64
1, 69172, Note_off_c, 0, 50, 56
1, 69179, Control_c, 0, 64, 57
1, 69195, Control_c, 0, 64, 42
1, 69209, Control_c, 0, 64, 15
1, 69212, Note_on_c, 0, 58, 41
1, 69224, Control_c, 0, 64, 0
1, 69254, Control_c, 0, 64, 13
1, 69269, Control_c, 0, 64, 34
1, 69283, Control_c, 0, 64, 48
1, 69298, Control_c, 0, 64, 56
1, 69313, Control_c, 0, 64, 62
1, 69316, Note_off_c, 0, 58, 50
1, 69319, Note_on_c, 0, 63, 42
1, 69328, Control_c, 0, 64, 66
1, 69351, Control_c, 0, 64, 70
1, 69365, Control_c, 0, 64, 76
1, 69380, Control_c, 0, 64, 84
1, 69395, Control_c, 0, 64, 95
1, 69410, Control_c, 0, 64, 113
1, 69413, Note_on_c, 0, 66, 64
1, 69424, Control_c, 0, 64, 127
1, 69441, Note_off_c, 0, 63, 56
1, 69450, Note_off_c, 0, 68, 62
1, 69512, Note_on_c, 0, 58, 48
1, 69590, Note_on_c, 0, 63, 45
1, 69619, Note_off_c, 0, 66, 58
1, 69674, Note_on_c, 0, 44, 60
1, 69674, Note_on_c, 0, 65, 74
1, 69686, Note_off_c, 0, 58, 40
1, 69691, Control_c, 0, 64, 116
1, 69706, Control_c, 0, 64, 83
1, 69712, Note_off_c, 0, 63, 60
1, 69721, Control_c, 0, 64, 66
1, 69735, Control_c, 0, 64, 51
1, 69750, Control_c, 0, 64, 46
1, 69765, Control_c, 0, 64, 53
1, 69780, Control_c, 0, 64, 59
1, 69792, Note_on_c, 0, 56, 44
1, 69795, Control_c, 0, 64, 65
1, 69809, Control_c, 0, 64, 73
1, 69824, Control_c, 0, 64, 87
1, 69831, Note_off_c, 0, 65, 61
1, 69839, Control_c, 0, 64, 127
1, 69858, Note_on_c, 0, 59, 60
1, 69866, Note_off_c, 0, 56, 60
1, 69894, Note_off_c, 0, 59, 65
1, 69895, Note_off_c, 0, 51, 34
1, 69947, Note_on_c, 0, 68, 85
1, 69957, Poly_aftertouch_c, 0, 42, 127
1, 70032, Note_on_c, 0, 56, 50
1, 70037, Note_off_c, 0, 68, 61
1, 70153, Note_on_c, 0, 59, 52
1, 70204, Note_off_c, 0, 56, 57
1, 70246, Note_on_c, 0, 46, 59
1, 70276, Note_on_c, 0, 63, 78
1, 70313, Note_off_c, 0, 59, 63
1, 70373, Poly_aftertouch_c, 0, 42, 0
1, 70380, Control_c, 0, 64, 84
1, 70395, Control_c, 0, 64, 67
1, 70410, Control_c, 0, 64, 48
1, 70424, Control_c, 0, 64, 0
1, 70430, Note_on_c, 0, 51, 52
1, 70454, Control_c, 0, 64, 11
1, 70469, Control_c, 0, 64, 35
1, 70484, Control_c, 0, 64, 47
1, 70498, Note_off_c, 0, 51, 54
1, 70499, Note_off_c, 0, 44, 29
1, 70499, Control_c, 0, 64, 55
1, 70502, Note_on_c, 0, 54, 52
1, 70513, Control_c, 0, 64, 61
1, 70528, Control_c, 0, 64, 65
1, 70543, Control_c, 0, 64, 68
1, 70556, Note_off_c, 0, 54, 60
1, 70557, Control_c, 0, 64, 72
1, 70572, Control_c, 0, 64, 76
1, 70587, Control_c, 0, 64, 80
1, 70593, Note_on_c, 0, 58, 58
1, 70602, Control_c, 0, 64, 83
1, 70617, Control_c, 0, 64, 86
1, 70631, Control_c, 0, 64, 89
1, 70646, Control_c, 0, 64, 91
1, 70661, Control_c, 0, 64, 94
1, 70671, Note_on_c, 0, 54, 61
1, 70676, Control_c, 0, 64, 100
1, 70691, Control_c, 0, 64, 110
1, 70705, Control_c, 0, 64, 127
1, 70718, Note_on_c, 0, 51, 63
1, 70755, Note_off_c, 0, 63, 58
1, 70836, Note_off_c, 0, 51, 63
1, 70840, Note_off_c, 0, 46, 60
1, 70859, Note_on_c, 0, 62, 74
1, 70926, Note_off_c, 0, 58, 57
1, 70954, Note_off_c, 0, 54, 62
1, 70963, Note_on_c, 0, 50, 61
1, 71037, Note_off_c, 0, 50, 60
1, 71043, Note_on_c, 0, 53, 63
1, 71056, Note_off_c, 0, 62, 58
1, 71113, Note_off_c, 0, 53, 63
1, 71124, Note_on_c, 0, 58, 68
1, 71136, Note_on_c, 0, 44, 74
1, 71182, Note_off_c, 0, 58, 62
1, 71211, Note_on_c, 0, 55, 52
1, 71236, Note_off_c, 0, 55, 57
1, 71244, Note_on_c, 0, 42, 77
1, 71289, Note_off_c, 0, 44, 52
1, 71340, Note_on_c, 0, 70, 88
1, 71352, Note_on_c, 0, 41, 73
1, 71477, Note_off_c, 0, 70, 60
1, 71529, Note_on_c, 0, 39, 77
1, 71548, Note_on_c, 0, 70, 88
1, 71563, Note_off_c, 0, 42, 45
1, 71569, Note_off_c, 0, 41, 62
1, 71597, Control_c, 0, 64, 94
1, 71611, Control_c, 0, 64, 71
1, 71626, Control_c, 0, 64, 53
1, 71641, Control_c, 0, 64, 0
1, 71649, Poly_aftertouch_c, 0, 62, 0
1, 71709, Note_on_c, 0, 58, 53
1, 71715, Control_c, 0, 64, 30
1, 71730, Control_c, 0, 64, 47
1, 71745, Control_c, 0, 64, 58
1, 71760, Control_c, 0, 64, 63
1, 71775, Control_c, 0, 64, 65
1, 71790, Control_c, 0, 64, 68
1, 71804, Control_c, 0, 64, 72
1, 71817, Note_on_c, 0, 63, 53
1, 71819, Control_c, 0, 64, 76
1, 71824, Note_off_c, 0, 58, 39
1, 71834, Control_c, 0, 64, 82
1, 71849, Control_c, 0, 64, 91
1, 71864, Control_c, 0, 64, 105
1, 71879, Control_c, 0, 64, 127
1, 71885, Note_off_c, 0, 63, 53
1, 71907, Note_on_c, 0, 66, 53
1, 72019, Note_on_c, 0, 63, 56
1, 72046, Note_off_c, 0, 66, 51
1, 72085, Note_off_c, 0, 63, 55
1, 72110, Note_on_c, 0, 58, 53
1, 72168, Note_off_c, 0, 58, 54
1, 72208, Note_on_c, 0, 63, 59
1, 72283, Note_off_c, 0, 63, 57
1, 72300, Note_on_c, 0, 58, 59
1, 72349, Note_off_c, 0, 39, 54
1, 72359, Poly_aftertouch_c, 0, 65, 127
1, 72393, Note_off_c, 0, 58, 50
1, 72396, Note_on_c, 0, 63, 55
1, 72466, Poly_aftertouch_c, 0, 65, 0
1, 72501, Note_on_c, 0, 39, 62
1, 72507, Note_on_c, 0, 66, 72
1, 72524, Note_off_c, 0, 63, 56
1, 72615, Note_on_c, 0, 41, 73
1, 72630, Note_on_c, 0, 63, 80
1, 72668, Note_off_c, 0, 70, 52
1, 72699, Note_off_c, 0, 39, 36
1, 72709, Note_on_c, 0, 42, 85
1, 72716, Note_on_c, 0, 58, 84
1, 72720, Note_off_c, 0, 41, 62
1, 72745, Note_off_c, 0, 42, 64
1, 72789, Note_off_c, 0, 66, 61
1, 72820, Note_on_c, 0, 70, 93
1, 72828, Note_on_c, 0, 42, 84
1, 72840, Note_off_c, 0, 58, 56
1, 72849, Control_c, 0, 64, 109
1, 72864, Control_c, 0, 64, 72
1, 72869, Note_off_c, 0, 63, 61
1, 72879, Control_c, 0, 64, 48
1, 72894, Control_c, 0, 64, 0
1, 72964, Note_on_c, 0, 58, 60
1, 73026, Control_c, 0, 64, 41
1, 73036, Note_off_c, 0, 58, 56
1, 73040, Control_c, 0, 64, 58
1, 73052, Note_on_c, 0, 63, 58
1, 73055, Control_c, 0, 64, 63
1, 73070, Control_c, 0, 64, 66
1, 73092, Control_c, 0, 64, 70
1, 73107, Control_c, 0, 64, 75
1, 73122, Control_c, 0, 64, 82
1, 73136, Note_off_c, 0, 63, 60
1, 73137, Control_c, 0, 64, 96
1, 73152, Control_c, 0, 64, 127
1, 73166, Note_on_c, 0, 66, 57
1, 73264, Note_on_c, 0, 63, 60
1, 73296, Note_off_c, 0, 66, 52
1, 73310, Note_off_c, 0, 63, 54
1, 73340, Note_on_c, 0, 58, 52
1, 73382, Note_off_c, 0, 58, 61
1, 73426, Note_on_c, 0, 63, 63
1, 73490, Note_off_c, 0, 42, 51
1, 73494, Note_off_c, 0, 63, 61
1, 73502, Note_on_c, 0, 58, 64
1, 73582, Note_on_c, 0, 63, 57
1, 73594, Note_off_c, 0, 58, 60
1, 73621, Note_off_c, 0, 70, 60
1, 73671, Note_on_c, 0, 66, 41
1, 73696, Note_on_c, 0, 71, 91
1, 73706, Note_on_c, 0, 42, 59
1, 73745, Control_c, 0, 64, 97
1, 73760, Control_c, 0, 64, 73
1, 73774, Control_c, 0, 64, 60
1, 73789, Control_c, 0, 64, 52
1, 73804, Control_c, 0, 64, 57
1, 73816, Note_off_c, 0, 66, 35
1, 73817, Note_on_c, 0, 44, 65
1, 73819, Control_c, 0, 64, 61
1, 73839, Note_off_c, 0, 42, 59
1, 73841, Control_c, 0, 64, 65
1, 73855, Control_c, 0, 64, 71
1, 73870, Control_c, 0, 64, 83
1, 73885, Control_c, 0, 64, 127
1, 73896, Note_on_c, 0, 58, 74
1, 73899, Note_off_c, 0, 63, 58
1, 73921, Note_on_c, 0, 46, 69
1, 73946, Note_off_c, 0, 44, 58
1, 73958, Note_off_c, 0, 46, 63
1, 73986, Note_off_c, 0, 58, 63
1, 74058, Note_on_c, 0, 70, 89
1, 74081, Note_on_c, 0, 46, 63
1, 74093, Note_off_c, 0, 71, 57
1, 74094, Control_c, 0, 64, 84
1, 74109, Control_c, 0, 64, 62
1, 74124, Control_c, 0, 64, 0
1, 74192, Note_on_c, 0, 62, 58
1, 74198, Control_c, 0, 64, 26
1, 74212, Control_c, 0, 64, 58
1, 74227, Control_c, 0, 64, 69
1, 74242, Control_c, 0, 64, 87
1, 74255, Note_off_c, 0, 70, 59
1, 74257, Control_c, 0, 64, 127
1, 74275, Note_on_c, 0, 65, 56
1, 74287, Note_off_c, 0, 62, 63
1, 74299, Note_off_c, 0, 65, 63
1, 74367, Note_on_c, 0, 59, 58
1, 74419, Note_on_c, 0, 77, 79
1, 74555, Note_on_c, 0, 65, 55
1, 74654, Note_on_c, 0, 68, 63
1, 74664, Note_off_c, 0, 65, 58
1, 74667, Note_off_c, 0, 59, 32
1, 74667, Note_off_c, 0, 77, 62
1, 74705, Note_on_c, 0, 56, 70
1, 74707, Note_on_c, 0, 74, 88
1, 74719, Note_off_c, 0, 68, 48
1, 74805, Note_on_c, 0, 65, 61
1, 74894, Note_on_c, 0, 68, 57
1, 74894, Note_off_c, 0, 65, 58
1, 74958, Note_on_c, 0, 71, 88
1, 74965, Note_on_c, 0, 53, 70
1, 74992, Note_off_c, 0, 68, 52
1, 75024, Note_off_c, 0, 56, 60
1, 75031, Note_off_c, 0, 46, 56
1, 75051, Note_off_c, 0, 53, 62
1, 75080, Note_off_c, 0, 74, 45
1, 75095, Note_on_c, 0, 65, 65
1, 75112, Note_on_c, 0, 48, 21
1, 75154, Note_off_c, 0, 48, 43
1, 75155, Note_off_c, 0, 71, 60
1, 75170, Note_on_c, 0, 68, 63
1, 75254, Note_off_c, 0, 65, 56
1, 75271, Note_on_c, 0, 70, 84
1, 75274, Note_on_c, 0, 46, 54
1, 75287, Note_on_c, 0, 50, 51
1, 75317, Control_c, 0, 64, 81
1, 75340, Control_c, 0, 64, 63
1, 75343, Note_off_c, 0, 68, 56
1, 75354, Control_c, 0, 64, 0
1, 75406, Note_on_c, 0, 65, 56
1, 75428, Control_c, 0, 64, 43
1, 75443, Control_c, 0, 64, 62
1, 75458, Control_c, 0, 64, 69
1, 75473, Control_c, 0, 64, 81
1, 75488, Control_c, 0, 64, 101
1, 75500, Note_on_c, 0, 68, 64
1, 75502, Control_c, 0, 64, 127
1, 75503, Note_off_c, 0, 65, 46
1, 75552, Note_on_c, 0, 71, 75
1, 75559, Note_off_c, 0, 50, 63
1, 75595, Note_off_c, 0, 46, 60
1, 75617, Note_off_c, 0, 68, 60
1, 75651, Note_on_c, 0, 65, 58
1, 75659, Note_off_c, 0, 70, 38
1, 75727, Note_off_c, 0, 65, 56
1, 75747, Note_on_c, 0, 68, 60
1, 75747, Note_off_c, 0, 71, 61
1, 75832, Note_on_c, 0, 50, 54
1, 75838, Note_on_c, 0, 70, 63
1, 75844, Control_c, 0, 64, 96
1, 75846, Note_off_c, 0, 68, 56
1, 75859, Control_c, 0, 64, 73
1, 75871, Note_off_c, 0, 50, 65
1, 75874, Control_c, 0, 64, 58
1, 75888, Control_c, 0, 64, 33
1, 75903, Control_c, 0, 64, 40
1, 75904, Note_on_c, 0, 51, 51
1, 75918, Control_c, 0, 64, 52
1, 75933, Control_c, 0, 64, 62
1, 75947, Note_off_c, 0, 51, 63
1, 75948, Control_c, 0, 64, 67
1, 75951, Note_on_c, 0, 50, 63
1, 75963, Control_c, 0, 64, 73
1, 75977, Control_c, 0, 64, 84
1, 75985, Note_off_c, 0, 50, 62
1, 75992, Control_c, 0, 64, 107
1, 76007, Control_c, 0, 64, 127
1, 76014, Poly_aftertouch_c, 0, 58, 127
1, 76017, Note_on_c, 0, 65, 53
1, 76046, Note_on_c, 0, 51, 32
1, 76081, Note_off_c, 0, 51, 0
1, 76081, Poly_aftertouch_c, 0, 58, 0
1, 76083, Note_on_c, 0, 50, 39
1, 76088, Control_c, 0, 64, 110
1, 76097, Note_on_c, 0, 58, 37
1, 76103, Control_c, 0, 64, 80
1, 76114, Note_on_c, 0, 68, 66
1, 76115, Note_on_c, 0, 51, 16
1, 76115, Note_off_c, 0, 70, 31
1, 76118, Control_c, 0, 64, 65
1, 76121, Note_off_c, 0, 65, 59
1, 76133, Control_c, 0, 64, 56
1, 76148, Control_c, 0, 64, 58
1, 76163, Control_c, 0, 64, 62
1, 76177, Control_c, 0, 64, 64
1, 76192, Control_c, 0, 64, 68
1, 76193, Note_off_c, 0, 51, 33
1, 76207, Control_c, 0, 64, 74
1, 76207, Note_on_c, 0, 48, 55
1, 76211, Note_off_c, 0, 50, 21
1, 76222, Control_c, 0, 64, 84
1, 76237, Control_c, 0, 64, 92
1, 76242, Note_off_c, 0, 58, 37
1, 76251, Control_c, 0, 64, 96
1, 76266, Control_c, 0, 64, 97
1, 76274, Note_on_c, 0, 65, 47
1, 76281, Control_c, 0, 64, 96
1, 76296, Control_c, 0, 64, 95
1, 76307, Note_off_c, 0, 68, 36
1, 76314, Note_on_c, 0, 50, 43
1, 76340, Control_c, 0, 64, 95
1, 76343, Note_off_c, 0, 48, 34
1, 76355, Control_c, 0, 64, 94
1, 76370, Control_c, 0, 64, 90
1, 76386, Control_c, 0, 64, 86
1, 76401, Control_c, 0, 64, 81
1, 76416, Control_c, 0, 64, 76
1, 76430, Control_c, 0, 64, 70
1, 76435, Note_on_c, 0, 51, 41
1, 76436, Note_on_c, 0, 68, 67
1, 76445, Control_c, 0, 64, 63
1, 76456, Note_off_c, 0, 65, 45
1, 76460, Control_c, 0, 64, 49
1, 76472, Note_off_c, 0, 50, 54
1, 76474, Control_c, 0, 64, 11
1, 76489, Control_c, 0, 64, 0
1, 76547, Note_on_c, 0, 58, 41
1, 76651, Note_on_c, 0, 63, 47
1, 76703, Note_off_c, 0, 58, 36
1, 76735, Note_on_c, 0, 66, 65
1, 76755, Control_c, 0, 64, 39
1, 76765, Note_off_c, 0, 68, 63
1, 76770, Control_c, 0, 64, 58
1, 76783, Note_off_c, 0, 63, 57
1, 76785, Control_c, 0, 64, 64
1, 76799, Control_c, 0, 64, 69
1, 76814, Control_c, 0, 64, 76
1, 76835, Note_on_c, 0, 58, 48
1, 76836, Control_c, 0, 64, 86
1, 76851, Control_c, 0, 64, 105
1, 76866, Control_c, 0, 64, 127
1, 76917, Note_on_c, 0, 63, 47
1, 76937, Note_off_c, 0, 66, 61
1, 76998, Note_off_c, 0, 58, 56
1, 77006, Note_on_c, 0, 65, 72
1, 77029, Control_c, 0, 64, 92
1, 77030, Note_on_c, 0, 44, 52
1, 77030, Note_off_c, 0, 63, 60
1, 77044, Control_c, 0, 64, 70
1, 77059, Control_c, 0, 64, 54
1, 77073, Control_c, 0, 64, 51
1, 77088, Control_c, 0, 64, 57
1, 77103, Control_c, 0, 64, 62
1, 77117, Note_on_c, 0, 56, 46
1, 77118, Control_c, 0, 64, 67
1, 77133, Control_c, 0, 64, 77
1, 77145, Note_off_c, 0, 51, 52
1, 77147, Control_c, 0, 64, 111
1, 77159, Note_off_c, 0, 56, 62
1, 77162, Control_c, 0, 64, 127
1, 77186, Note_on_c, 0, 59, 56
1, 77191, Note_off_c, 0, 65, 53
1, 77215, Note_off_c, 0, 59, 65
1, 77309, Note_on_c, 0, 71, 71
1, 77397, Note_on_c, 0, 59, 48
1, 77477, Note_off_c, 0, 71, 59
1, 77495, Note_off_c, 0, 59, 61
1, 77512, Note_on_c, 0, 65, 47
1, 77542, Note_off_c, 0, 65, 62
1, 77635, Note_on_c, 0, 46, 50
1, 77683, Note_on_c, 0, 63, 72
1, 77748, Control_c, 0, 64, 94
1, 77763, Control_c, 0, 64, 73
1, 77778, Control_c, 0, 64, 59
1, 77793, Control_c, 0, 64, 0
1, 77812, Note_off_c, 0, 44, 57
1, 77830, Note_on_c, 0, 51, 43
1, 77867, Control_c, 0, 64, 18
1, 77882, Control_c, 0, 64, 44
1, 77896, Control_c, 0, 64, 59
1, 77901, Note_on_c, 0, 54, 48
1, 77911, Control_c, 0, 64, 63
1, 77918, Note_off_c, 0, 51, 54
1, 77926, Control_c, 0, 64, 65
1, 77941, Control_c, 0, 64, 67
1, 77955, Control_c, 0, 64, 69
1, 77972, Control_c, 0, 64, 71
1, 77980, Note_off_c, 0, 54, 58
1, 77987, Control_c, 0, 64, 74
1, 78001, Control_c, 0, 64, 77
1, 78014, Note_on_c, 0, 58, 59
1, 78016, Control_c, 0, 64, 80
1, 78031, Control_c, 0, 64, 83
1, 78045, Control_c, 0, 64, 88
1, 78060, Control_c, 0, 64, 94
1, 78075, Control_c, 0, 64, 105
1, 78090, Control_c, 0, 64, 123
1, 78091, Note_on_c, 0, 54, 52
1, 78105, Control_c, 0, 64, 127
1, 78143, Note_on_c, 0, 51, 57
1, 78143, Note_off_c, 0, 63, 56
1, 78240, Note_off_c, 0, 51, 62
1, 78246, Note_off_c, 0, 46, 63
1, 78263, Note_on_c, 0, 62, 70
1, 78302, Note_off_c, 0, 54, 56
1, 78305, Note_off_c, 0, 58, 61
1, 78365, Note_on_c, 0, 50, 52
1, 78381, Note_off_c, 0, 62, 59
1, 78404, Note_on_c, 0, 54, 8
1, 78414, Note_off_c, 0, 50, 57
1, 78440, Note_on_c, 0, 58, 64
1, 78461, Note_off_c, 0, 54, 47
1, 78469, Note_off_c, 0, 58, 66
1, 78557, Control_c, 0, 64, 97
1, 78565, Note_on_c, 0, 38, 55
1, 78571, Control_c, 0, 64, 71
1, 78586, Control_c, 0, 64, 51
1, 78587, Note_on_c, 0, 70, 67
1, 78601, Control_c, 0, 64, 0
1, 78646, Control_c, 0, 64, 38
1, 78661, Control_c, 0, 64, 58
1, 78671, Note_on_c, 0, 58, 50
1, 78676, Control_c, 0, 64, 66
1, 78690, Control_c, 0, 64, 72
1, 78705, Control_c, 0, 64, 83
1, 78720, Control_c, 0, 64, 97
1, 78735, Control_c, 0, 64, 127
1, 78765, Note_on_c, 0, 65, 53
1, 78766, Note_off_c, 0, 58, 59
1, 78860, Note_on_c, 0, 39, 67
1, 78865, Note_on_c, 0, 68, 85
1, 78899, Control_c, 0, 64, 95
1, 78914, Control_c, 0, 64, 67
1, 78926, Note_off_c, 0, 38, 61
1, 78927, Note_off_c, 0, 65, 57
1, 78929, Control_c, 0, 64, 40
1, 78937, Note_on_c, 0, 51, 28
1, 78943, Control_c, 0, 64, 0
1, 78958, Control_c, 0, 64, 23
1, 78973, Control_c, 0, 64, 47
1, 78988, Control_c, 0, 64, 62
1, 78989, Note_off_c, 0, 51, 44
1, 78992, Note_on_c, 0, 58, 65
1, 79003, Control_c, 0, 64, 73
1, 79017, Control_c, 0, 64, 97
1, 79032, Control_c, 0, 64, 127
1, 79052, Poly_aftertouch_c, 0, 62, 127
1, 79054, Poly_aftertouch_c, 0, 60, 127
1, 79097, Note_on_c, 0, 63, 60
1, 79106, Note_off_c, 0, 58, 53
1, 79165, Poly_aftertouch_c, 0, 62, 0
1, 79167, Poly_aftertouch_c, 0, 60, 0
1, 79188, Control_c, 0, 67, 14
1, 79197, Note_on_c, 0, 66, 79
1, 79202, Control_c, 0, 67, 50
1, 79217, Control_c, 0, 67, 85
1, 79218, Note_off_c, 0, 70, 61
1, 79232, Control_c, 0, 67, 121
1, 79247, Control_c, 0, 67, 127
1, 79281, Note_off_c, 0, 39, 62
1, 79313, Note_off_c, 0, 63, 36
1, 79323, Note_on_c, 0, 58, 66
1, 79397, Note_off_c, 0, 68, 59
1, 79433, Note_on_c, 0, 63, 66
1, 79513, Note_off_c, 0, 66, 60
1, 79588, Control_c, 0, 64, 121
1, 79603, Control_c, 0, 64, 105
1, 79612, Note_on_c, 0, 32, 49
1, 79618, Control_c, 0, 64, 97
1, 79621, Note_off_c, 0, 58, 61
1, 79633, Control_c, 0, 64, 88
1, 79638, Note_on_c, 0, 64, 71
1, 79647, Control_c, 0, 64, 77
1, 79662, Control_c, 0, 64, 64
1, 79677, Control_c, 0, 64, 42
1, 79692, Control_c, 0, 64, 0
1, 79701, Note_off_c, 0, 63, 60
1, 79804, Note_on_c, 0, 56, 39
1, 79811, Control_c, 0, 64, 32
1, 79833, Control_c, 0, 64, 50
1, 79847, Control_c, 0, 64, 60
1, 79862, Note_off_c, 0, 56, 61
1, 79862, Control_c, 0, 64, 63
1, 79877, Control_c, 0, 64, 66
1, 79892, Control_c, 0, 64, 70
1, 79907, Control_c, 0, 64, 75
1, 79913, Note_on_c, 0, 59, 44
1, 79922, Control_c, 0, 64, 81
1, 79933, Note_off_c, 0, 64, 55
1, 79936, Control_c, 0, 64, 92
1, 79943, Note_off_c, 0, 59, 63
1, 79951, Control_c, 0, 64, 102
1, 79966, Control_c, 0, 64, 119
1, 79981, Control_c, 0, 64, 127
1, 80063, Note_on_c, 0, 71, 67
1, 80212, Note_off_c, 0, 71, 30
1, 80223, Note_on_c, 0, 59, 22
1, 80376, Note_on_c, 0, 64, 53
1, 80384, Note_off_c, 0, 59, 37
1, 80442, Note_off_c, 0, 64, 61
1, 80557, Note_on_c, 0, 42, 40
1, 80616, Note_on_c, 0, 63, 57
1, 80625, Control_c, 0, 64, 110
1, 80640, Control_c, 0, 64, 100
1, 80655, Control_c, 0, 64, 87
1, 80670, Control_c, 0, 64, 74
1, 80685, Control_c, 0, 64, 61
1, 80700, Control_c, 0, 64, 40
1, 80714, Control_c, 0, 64, 0
1, 80747, Note_off_c, 0, 32, 46
1, 80759, Control_c, 0, 64, 15
1, 80774, Control_c, 0, 64, 31
1, 80789, Control_c, 0, 64, 42
1, 80803, Control_c, 0, 64, 50
1, 80810, Note_on_c, 0, 51, 38
1, 80818, Control_c, 0, 64, 56
1, 80833, Control_c, 0, 64, 60
1, 80847, Control_c, 0, 64, 62
1, 80862, Control_c, 0, 64, 64
1, 80877, Control_c, 0, 64, 66
1, 80885, Note_off_c, 0, 51, 54
1, 80892, Control_c, 0, 64, 69
1, 80907, Control_c, 0, 64, 71
1, 80914, Note_on_c, 0, 54, 45
1, 80921, Control_c, 0, 64, 74
1, 80936, Control_c, 0, 64, 78
1, 80951, Control_c, 0, 64, 81
1, 80966, Control_c, 0, 64, 84
1, 80981, Control_c, 0, 64, 86
1, 80987, Note_off_c, 0, 54, 58
1, 81036, Note_on_c, 0, 59, 42
1, 81084, Control_c, 0, 64, 85
1, 81141, Note_off_c, 0, 63, 37
1, 81159, Control_c, 0, 64, 85
1, 81173, Note_on_c, 0, 54, 34
1, 81218, Control_c, 0, 64, 84
1, 81233, Control_c, 0, 64, 84
1, 81248, Control_c, 0, 64, 83
1, 81249, Note_on_c, 0, 51, 38
1, 81263, Control_c, 0, 64, 83
1, 81278, Control_c, 0, 64, 82
1, 81293, Control_c, 0, 64, 81
1, 81308, Control_c, 0, 64, 80
1, 81320, Note_off_c, 0, 51, 58
1, 81325, Note_off_c, 0, 59, 39
1, 81330, Note_on_c, 0, 61, 43
1, 81330, Control_c, 0, 64, 78
1, 81344, Control_c, 0, 64, 77
1, 81359, Control_c, 0, 64, 76
1, 81367, Note_on_c, 0, 40, 30
1, 81374, Control_c, 0, 64, 76
1, 81389, Control_c, 0, 64, 74
1, 81393, Note_off_c, 0, 54, 41
1, 81404, Control_c, 0, 64, 72
1, 81418, Control_c, 0, 64, 69
1, 81433, Control_c, 0, 64, 65
1, 81442, Note_off_c, 0, 42, 29
1, 81448, Control_c, 0, 64, 60
1, 81463, Control_c, 0, 64, 52
1, 81478, Control_c, 0, 64, 46
1, 81493, Control_c, 0, 64, 44
1, 81504, Note_on_c, 0, 49, 26
1, 81522, Control_c, 0, 64, 45
1, 81537, Control_c, 0, 64, 48
1, 81552, Control_c, 0, 64, 50
1, 81567, Control_c, 0, 64, 53
1, 81573, Note_on_c, 0, 54, 26
1, 81582, Control_c, 0, 64, 55
1, 81597, Control_c, 0, 64, 57
1, 81612, Control_c, 0, 64, 60
1, 81626, Control_c, 0, 64, 62
1, 81641, Control_c, 0, 64, 64
1, 81642, Note_off_c, 0, 49, 30
1, 81656, Control_c, 0, 64, 65
1, 81670, Control_c, 0, 64, 67
1, 81685, Control_c, 0, 64, 70
1, 81700, Control_c, 0, 64, 73
1, 81715, Control_c, 0, 64, 76
1, 81728, Note_off_c, 0, 54, 40
1, 81730, Control_c, 0, 64, 78
1, 81744, Control_c, 0, 64, 80
1, 81752, Note_on_c, 0, 58, 34
1, 81759, Control_c, 0, 64, 82
1, 81774, Control_c, 0, 64, 84
1, 81789, Control_c, 0, 64, 84
1, 81818, Control_c, 0, 64, 85
1, 81848, Control_c, 0, 64, 85
1, 81862, Control_c, 0, 64, 86
1, 81887, Note_on_c, 0, 54, 31
1, 81921, Note_off_c, 0, 58, 28
1, 82056, Note_off_c, 0, 61, 20
1, 82076, Note_on_c, 0, 49, 16
1, 82109, Control_c, 0, 64, 86
1, 82120, Note_off_c, 0, 49, 51
1, 82130, Note_off_c, 0, 54, 43
1, 82183, Control_c, 0, 64, 86
1, 82228, Control_c, 0, 64, 85
1, 82257, Control_c, 0, 64, 85
1, 82272, Control_c, 0, 64, 84
1, 82287, Control_c, 0, 64, 83
1, 82301, Control_c, 0, 64, 83
1, 82316, Control_c, 0, 64, 82
1, 82330, Note_on_c, 0, 39, 28
1, 82331, Control_c, 0, 64, 81
1, 82341, Note_on_c, 0, 66, 43
1, 82346, Control_c, 0, 64, 80
1, 82361, Control_c, 0, 64, 79
1, 82375, Control_c, 0, 64, 78
1, 82390, Control_c, 0, 64, 76
1, 82405, Control_c, 0, 64, 73
1, 82420, Control_c, 0, 64, 71
1, 82435, Control_c, 0, 64, 67
1, 82449, Control_c, 0, 64, 62
1, 82464, Control_c, 0, 64, 56
1, 82479, Control_c, 0, 64, 48
1, 82494, Control_c, 0, 64, 41
1, 82507, Note_off_c, 0, 40, 43
1, 82509, Control_c, 0, 64, 38
1, 82554, Control_c, 0, 64, 38
1, 82566, Note_on_c, 0, 54, 33
1, 82568, Control_c, 0, 64, 41
1, 82583, Control_c, 0, 64, 46
1, 82598, Control_c, 0, 64, 50
1, 82612, Control_c, 0, 64, 52
1, 82627, Control_c, 0, 64, 54
1, 82642, Control_c, 0, 64, 58
1, 82657, Control_c, 0, 64, 61
1, 82672, Control_c, 0, 64, 63
1, 82686, Control_c, 0, 64, 64
1, 82700, Note_on_c, 0, 59, 33
1, 82701, Control_c, 0, 64, 65
1, 82716, Control_c, 0, 64, 67
1, 82731, Control_c, 0, 64, 69
1, 82746, Control_c, 0, 64, 70
1, 82762, Control_c, 0, 64, 72
1, 82776, Note_off_c, 0, 54, 38
1, 82777, Control_c, 0, 64, 74
1, 82791, Control_c, 0, 64, 75
1, 82804, Note_off_c, 0, 59, 52
1, 82806, Control_c, 0, 64, 76
1, 82828, Control_c, 0, 64, 76
1, 82843, Control_c, 0, 64, 77
1, 82855, Note_on_c, 0, 63, 39
1, 82858, Control_c, 0, 64, 77
1, 82873, Control_c, 0, 64, 78
1, 82888, Control_c, 0, 64, 79
1, 82974, Note_off_c, 0, 63, 37
1, 82976, Note_on_c, 0, 59, 42
1, 83025, Note_off_c, 0, 59, 59
1, 83063, Note_on_c, 0, 54, 34
1, 83111, Note_off_c, 0, 54, 47
1, 83147, Note_on_c, 0, 59, 42
1, 83189, Note_off_c, 0, 59, 61
1, 83198, Control_c, 0, 64, 78
1, 83242, Note_on_c, 0, 54, 32
1, 83272, Control_c, 0, 64, 79
1, 83294, Note_off_c, 0, 54, 46
1, 83312, Note_on_c, 0, 59, 40
1, 83347, Control_c, 0, 64, 79
1, 83365, Note_off_c, 0, 59, 57
1, 83376, Control_c, 0, 64, 80
1, 83391, Control_c, 0, 64, 81
1, 83406, Control_c, 0, 64, 81
1, 83443, Note_on_c, 0, 63, 40
1, 83502, Note_on_c, 0, 59, 42
1, 83605, Note_on_c, 0, 54, 49
1, 83627, Note_off_c, 0, 66, 36
1, 83724, Control_c, 0, 64, 81
1, 83734, Note_on_c, 0, 37, 47
1, 83753, Control_c, 0, 64, 80
1, 83767, Note_on_c, 0, 66, 66
1, 83767, Note_off_c, 0, 54, 53
1, 83768, Control_c, 0, 64, 80
1, 83783, Control_c, 0, 64, 79
1, 83798, Control_c, 0, 64, 79
1, 83865, Note_off_c, 0, 59, 63
1, 83871, Control_c, 0, 64, 78
1, 83886, Control_c, 0, 64, 76
1, 83899, Note_off_c, 0, 39, 54
1, 83901, Control_c, 0, 64, 70
1, 83904, Note_on_c, 0, 54, 54
1, 83916, Control_c, 0, 64, 63
1, 83931, Control_c, 0, 64, 52
1, 83946, Control_c, 0, 64, 35
1, 83961, Control_c, 0, 64, 32
1, 83970, Note_off_c, 0, 54, 59
1, 83976, Control_c, 0, 64, 32
1, 83991, Control_c, 0, 64, 35
1, 83992, Note_off_c, 0, 63, 25
1, 84001, Note_on_c, 0, 58, 54
1, 84005, Control_c, 0, 64, 41
1, 84020, Control_c, 0, 64, 49
1, 84035, Control_c, 0, 64, 57
1, 84050, Control_c, 0, 64, 62
1, 84064, Control_c, 0, 64, 65
1, 84079, Control_c, 0, 64, 69
1, 84084, Note_off_c, 0, 58, 57
1, 84094, Control_c, 0, 64, 73
1, 84107, Note_on_c, 0, 64, 55
1, 84109, Control_c, 0, 64, 79
1, 84124, Control_c, 0, 64, 89
1, 84138, Control_c, 0, 64, 100
1, 84153, Control_c, 0, 64, 119
1, 84168, Control_c, 0, 64, 127
1, 84194, Note_off_c, 0, 66, 55
1, 84223, Note_on_c, 0, 58, 51
1, 84269, Note_off_c, 0, 64, 59
1, 84299, Note_on_c, 0, 54, 54
1, 84340, Note_off_c, 0, 58, 58
1, 84383, Note_off_c, 0, 54, 63
1, 84457, Note_on_c, 0, 68, 71
1, 84473, Control_c, 0, 64, 117
1, 84487, Control_c, 0, 64, 102
1, 84502, Control_c, 0, 64, 82
1, 84517, Control_c, 0, 64, 67
1, 84532, Control_c, 0, 64, 50
1, 84547, Control_c, 0, 64, 0
1, 84591, Control_c, 0, 64, 36
1, 84606, Control_c, 0, 64, 52
1, 84617, Note_on_c, 0, 58, 49
1, 84621, Control_c, 0, 64, 61
1, 84635, Control_c, 0, 64, 66
1, 84650, Control_c, 0, 64, 70
1, 84665, Control_c, 0, 64, 77
1, 84680, Control_c, 0, 64, 86
1, 84694, Control_c, 0, 64, 99
1, 84709, Control_c, 0, 64, 117
1, 84724, Control_c, 0, 64, 127
1, 84736, Note_on_c, 0, 61, 52
1, 84781, Note_off_c, 0, 58, 38
1, 84863, Note_on_c, 0, 66, 62
1, 84887, Control_c, 0, 64, 105
1, 84902, Control_c, 0, 64, 82
1, 84917, Control_c, 0, 64, 68
1, 84932, Control_c, 0, 64, 58
1, 84947, Control_c, 0, 64, 55
1, 84961, Control_c, 0, 64, 60
1, 84976, Control_c, 0, 64, 64
1, 84991, Control_c, 0, 64, 69
1, 85005, Control_c, 0, 64, 77
1, 85017, Note_on_c, 0, 64, 46
1, 85020, Control_c, 0, 64, 87
1, 85027, Note_off_c, 0, 61, 32
1, 85035, Control_c, 0, 64, 99
1, 85050, Control_c, 0, 64, 110
1, 85073, Control_c, 0, 64, 116
1, 85087, Control_c, 0, 64, 118
1, 85099, Note_off_c, 0, 66, 37
1, 85099, Note_off_c, 0, 68, 53
1, 85102, Control_c, 0, 64, 123
1, 85117, Control_c, 0, 64, 127
1, 85153, Note_off_c, 0, 64, 61
1, 85154, Note_on_c, 0, 58, 43
1, 85209, Note_off_c, 0, 58, 62
1, 85457, Note_on_c, 0, 35, 37
1, 85484, Note_on_c, 0, 75, 67
1, 85517, Control_c, 0, 64, 123
1, 85532, Control_c, 0, 64, 106
1, 85547, Control_c, 0, 64, 98
1, 85562, Control_c, 0, 64, 92
1, 85577, Control_c, 0, 64, 85
1, 85591, Control_c, 0, 64, 76
1, 85606, Control_c, 0, 64, 68
1, 85621, Control_c, 0, 64, 58
1, 85636, Control_c, 0, 64, 46
1, 85651, Control_c, 0, 64, 34
1, 85666, Control_c, 0, 64, 30
1, 85681, Control_c, 0, 64, 30
1, 85684, Note_off_c, 0, 37, 36
1, 85725, Control_c, 0, 64, 30
1, 85740, Control_c, 0, 64, 33
1, 85755, Control_c, 0, 64, 37
1, 85770, Control_c, 0, 64, 42
1, 85785, Control_c, 0, 64, 47
1, 85800, Control_c, 0, 64, 51
1, 85815, Note_on_c, 0, 63, 30
1, 85822, Control_c, 0, 64, 54
1, 85837, Control_c, 0, 64, 56
1, 85852, Control_c, 0, 64, 58
1, 85866, Control_c, 0, 64, 61
1, 85881, Control_c, 0, 64, 63
1, 85896, Control_c, 0, 64, 64
1, 85911, Control_c, 0, 64, 66
1, 85925, Control_c, 0, 64, 68
1, 85940, Control_c, 0, 64, 71
1, 85955, Control_c, 0, 64, 74
1, 85964, Note_on_c, 0, 66, 33
1, 85971, Control_c, 0, 64, 77
1, 85986, Control_c, 0, 64, 79
1, 86001, Control_c, 0, 64, 82
1, 86015, Control_c, 0, 64, 83
1, 86030, Control_c, 0, 64, 85
1, 86045, Control_c, 0, 64, 87
1, 86060, Control_c, 0, 64, 88
1, 86075, Control_c, 0, 64, 88
1, 86080, Note_off_c, 0, 63, 32
1, 86117, Note_on_c, 0, 71, 45
1, 86119, Control_c, 0, 64, 89
1, 86122, Note_off_c, 0, 66, 35
1, 86134, Control_c, 0, 64, 89
1, 86149, Control_c, 0, 64, 90
1, 86260, Note_on_c, 0, 66, 44
1, 86309, Note_off_c, 0, 66, 57
1, 86345, Note_on_c, 0, 63, 38
1, 86392, Note_off_c, 0, 63, 48
1, 86447, Note_on_c, 0, 66, 34
1, 86483, Note_off_c, 0, 66, 50
1, 86521, Note_on_c, 0, 63, 33
1, 86587, Note_off_c, 0, 75, 51
1, 86634, Note_on_c, 0, 66, 23
1, 86659, Control_c, 0, 64, 90
1, 86674, Control_c, 0, 64, 91
1, 86689, Control_c, 0, 64, 91
1, 86691, Note_off_c, 0, 63, 34
1, 86704, Control_c, 0, 64, 93
1, 86715, Note_off_c, 0, 71, 36
1, 86736, Note_on_c, 0, 73, 61
1, 86768, Note_off_c, 0, 66, 34
1, 86779, Control_c, 0, 64, 93
1, 86794, Control_c, 0, 64, 94
1, 86824, Control_c, 0, 64, 94
1, 86925, Note_on_c, 0, 67, 35
1, 87004, Note_off_c, 0, 73, 50
1, 87019, Note_on_c, 0, 63, 39
1, 87076, Control_c, 0, 64, 94
1, 87090, Control_c, 0, 64, 93
1, 87105, Control_c, 0, 64, 93
1, 87120, Control_c, 0, 64, 92
1, 87135, Control_c, 0, 64, 92
1, 87150, Control_c, 0, 64, 91
1, 87150, Note_on_c, 0, 40, 33
1, 87164, Control_c, 0, 64, 91
1, 87179, Control_c, 0, 64, 90
1, 87194, Control_c, 0, 64, 86
1, 87209, Control_c, 0, 64, 75
1, 87224, Control_c, 0, 64, 65
1, 87228, Note_on_c, 0, 73, 63
1, 87237, Control_c, 0, 64, 55
1, 87252, Control_c, 0, 64, 44
1, 87267, Control_c, 0, 64, 46
1, 87281, Control_c, 0, 64, 52
1, 87290, Note_off_c, 0, 63, 32
1, 87296, Control_c, 0, 64, 57
1, 87319, Control_c, 0, 64, 61
1, 87326, Note_off_c, 0, 67, 40
1, 87334, Control_c, 0, 64, 64
1, 87349, Control_c, 0, 64, 67
1, 87363, Control_c, 0, 64, 70
1, 87378, Control_c, 0, 64, 74
1, 87393, Control_c, 0, 64, 78
1, 87408, Control_c, 0, 64, 81
1, 87410, Note_off_c, 0, 73, 60
1, 87423, Control_c, 0, 64, 83
1, 87437, Control_c, 0, 64, 83
1, 87452, Control_c, 0, 64, 84
1, 87467, Control_c, 0, 64, 84
1, 87555, Note_off_c, 0, 35, 0
1, 87592, Poly_aftertouch_c, 0, 35, 127
1, 87601, Control_c, 0, 64, 85
1, 87609, Note_on_c, 0, 71, 57
1, 87631, Control_c, 0, 64, 85
1, 87633, Poly_aftertouch_c, 0, 59, 0
1, 87660, Poly_aftertouch_c, 0, 59, 0
1, 87660, Control_c, 0, 64, 86
1, 87675, Control_c, 0, 64, 87
1, 87690, Control_c, 0, 64, 87
1, 87705, Control_c, 0, 64, 88
1, 87720, Control_c, 0, 64, 89
1, 87732, Note_on_c, 0, 68, 26
1, 87735, Control_c, 0, 64, 89
1, 87749, Control_c, 0, 64, 90
1, 87764, Control_c, 0, 64, 91
1, 87773, Note_off_c, 0, 68, 48
1, 87775, Note_off_c, 0, 71, 57
1, 87779, Control_c, 0, 64, 92
1, 87780, Note_on_c, 0, 59, 17
1, 87794, Control_c, 0, 64, 94
1, 87809, Control_c, 0, 64, 95
1, 87824, Control_c, 0, 64, 96
1, 87839, Control_c, 0, 64, 97
1, 87853, Control_c, 0, 64, 98
1, 87864, Note_off_c, 0, 59, 33
1, 87868, Control_c, 0, 64, 99
1, 87872, Note_on_c, 0, 68, 60
1, 87883, Control_c, 0, 64, 100
1, 87898, Control_c, 0, 64, 101
1, 87912, Control_c, 0, 64, 102
1, 87927, Control_c, 0, 64, 103
1, 87942, Control_c, 0, 64, 105
1, 87957, Control_c, 0, 64, 107
1, 87972, Control_c, 0, 64, 108
1, 87985, Note_on_c, 0, 64, 50
1, 87986, Control_c, 0, 64, 109
1, 88001, Note_off_c, 0, 68, 53
1, 88001, Control_c, 0, 64, 110
1, 88016, Control_c, 0, 64, 111
1, 88031, Control_c, 0, 64, 112
1, 88070, Note_off_c, 0, 64, 52
1, 88092, Note_on_c, 0, 59, 43
1, 88153, Note_off_c, 0, 59, 58
1, 88204, Note_on_c, 0, 64, 59
1, 88226, Poly_aftertouch_c, 0, 35, 0
1, 88283, Poly_aftertouch_c, 0, 65, 0
1, 88283, Note_off_c, 0, 64, 58
1, 88286, Note_on_c, 0, 61, 53
1, 88424, Note_on_c, 0, 56, 46
1, 88439, Control_c, 0, 64, 111
1, 88469, Control_c, 0, 64, 110
1, 88483, Control_c, 0, 64, 108
1, 88489, Note_off_c, 0, 61, 26
1, 88498, Control_c, 0, 64, 107
1, 88513, Control_c, 0, 64, 105
1, 88524, Note_off_c, 0, 56, 60
1, 88528, Control_c, 0, 64, 103
1, 88538, Note_on_c, 0, 42, 45
1, 88542, Control_c, 0, 64, 102
1, 88548, Note_on_c, 0, 63, 61
1, 88557, Control_c, 0, 64, 100
1, 88572, Control_c, 0, 64, 97
1, 88587, Control_c, 0, 64, 89
1, 88602, Control_c, 0, 64, 76
1, 88617, Control_c, 0, 64, 67
1, 88632, Control_c, 0, 64, 58
1, 88633, Note_off_c, 0, 40, 43
1, 88647, Control_c, 0, 64, 45
1, 88662, Control_c, 0, 64, 39
1, 88676, Control_c, 0, 64, 40
1, 88691, Control_c, 0, 64, 46
1, 88706, Control_c, 0, 64, 51
1, 88711, Note_on_c, 0, 51, 35
1, 88721, Control_c, 0, 64, 56
1, 88735, Control_c, 0, 64, 59
1, 88750, Control_c, 0, 64, 62
1, 88751, Note_off_c, 0, 51, 50
1, 88765, Control_c, 0, 64, 64
1, 88776, Note_on_c, 0, 54, 46
1, 88780, Control_c, 0, 64, 67
1, 88795, Control_c, 0, 64, 69
1, 88817, Control_c, 0, 64, 72
1, 88831, Control_c, 0, 64, 75
1, 88843, Note_off_c, 0, 54, 59
1, 88846, Control_c, 0, 64, 79
1, 88861, Control_c, 0, 64, 83
1, 88875, Note_on_c, 0, 59, 49
1, 88876, Control_c, 0, 64, 88
1, 88891, Control_c, 0, 64, 90
1, 88906, Control_c, 0, 64, 91
1, 88950, Control_c, 0, 64, 91
1, 88965, Note_off_c, 0, 59, 56
1, 88972, Note_on_c, 0, 54, 54
1, 88995, Control_c, 0, 64, 91
1, 89021, Note_off_c, 0, 54, 59
1, 89049, Note_on_c, 0, 51, 50
1, 89068, Control_c, 0, 64, 91
1, 89083, Control_c, 0, 64, 92
1, 89103, Note_off_c, 0, 51, 59
1, 89113, Control_c, 0, 64, 92
1, 89127, Control_c, 0, 64, 93
1, 89142, Note_on_c, 0, 54, 56
1, 89142, Control_c, 0, 64, 94
1, 89158, Control_c, 0, 64, 95
1, 89173, Control_c, 0, 64, 96
1, 89174, Note_off_c, 0, 42, 59
1, 89188, Control_c, 0, 64, 96
1, 89197, Note_off_c, 0, 54, 50
1, 89203, Control_c, 0, 64, 97
1, 89218, Control_c, 0, 64, 98
1, 89222, Note_on_c, 0, 51, 57
1, 89232, Control_c, 0, 64, 101
1, 89247, Control_c, 0, 64, 108
1, 89262, Control_c, 0, 64, 115
1, 89277, Control_c, 0, 64, 121
1, 89282, Note_off_c, 0, 51, 59
1, 89292, Control_c, 0, 64, 123
1, 89306, Control_c, 0, 64, 127
1, 89311, Note_on_c, 0, 54, 54
1, 89322, Note_off_c, 0, 63, 36
1, 89403, Note_on_c, 0, 63, 73
1, 89410, Note_off_c, 0, 54, 61
1, 89422, Note_on_c, 0, 59, 48
1, 89505, Note_off_c, 0, 59, 59
1, 89511, Note_on_c, 0, 54, 58
1, 89526, Note_off_c, 0, 63, 58
1, 89607, Note_off_c, 0, 54, 65
1, 89623, Note_on_c, 0, 51, 58
1, 89650, Note_off_c, 0, 51, 61
1, 89782, Note_on_c, 0, 42, 43
1, 89803, Control_c, 0, 64, 112
1, 89806, Note_on_c, 0, 49, 43
1, 89818, Control_c, 0, 64, 106
1, 89830, Note_on_c, 0, 68, 73
1, 89832, Control_c, 0, 64, 99
1, 89847, Control_c, 0, 64, 92
1, 89862, Control_c, 0, 64, 83
1, 89876, Control_c, 0, 64, 73
1, 89891, Control_c, 0, 64, 63
1, 89906, Control_c, 0, 64, 26
1, 89921, Control_c, 0, 64, 0
1, 90058, Note_on_c, 0, 58, 41
1, 90085, Control_c, 0, 64, 35
1, 90099, Control_c, 0, 64, 50
1, 90114, Control_c, 0, 64, 59
1, 90129, Control_c, 0, 64, 63
1, 90144, Control_c, 0, 64, 65
1, 90159, Control_c, 0, 64, 68
1, 90173, Control_c, 0, 64, 70
1, 90184, Note_on_c, 0, 61, 43
1, 90188, Control_c, 0, 64, 74
1, 90203, Control_c, 0, 64, 76
1, 90206, Note_off_c, 0, 58, 37
1, 90218, Control_c, 0, 64, 78
1, 90234, Control_c, 0, 64, 78
1, 90236, Note_on_c, 0, 66, 53
1, 90247, Note_off_c, 0, 61, 51
1, 90278, Control_c, 0, 64, 78
1, 90339, Note_off_c, 0, 68, 52
1, 90366, Note_on_c, 0, 58, 40
1, 90389, Control_c, 0, 64, 77
1, 90417, Note_off_c, 0, 66, 62
1, 90419, Control_c, 0, 64, 77
1, 90449, Control_c, 0, 64, 76
1, 90461, Note_on_c, 0, 61, 45
1, 90463, Control_c, 0, 64, 76
1, 90478, Control_c, 0, 64, 75
1, 90493, Control_c, 0, 64, 74
1, 90498, Note_off_c, 0, 58, 56
1, 90507, Control_c, 0, 64, 73
1, 90522, Control_c, 0, 64, 72
1, 90537, Control_c, 0, 64, 71
1, 90545, Note_on_c, 0, 64, 54
1, 90552, Control_c, 0, 64, 70
1, 90567, Control_c, 0, 64, 70
1, 90581, Control_c, 0, 64, 69
1, 90596, Control_c, 0, 64, 68
1, 90602, Note_off_c, 0, 61, 34
1, 90611, Control_c, 0, 64, 68
1, 90626, Control_c, 0, 64, 67
1, 90641, Control_c, 0, 64, 67
1, 90656, Control_c, 0, 64, 66
1, 90686, Control_c, 0, 64, 65
1, 90698, Note_on_c, 0, 54, 32
1, 90701, Control_c, 0, 64, 65
1, 90715, Control_c, 0, 64, 64
1, 90730, Control_c, 0, 64, 64
1, 90745, Control_c, 0, 64, 63
1, 90760, Control_c, 0, 64, 63
1, 90782, Note_on_c, 0, 58, 40
1, 90820, Control_c, 0, 64, 62
1, 90845, Note_off_c, 0, 64, 42
1, 90850, Control_c, 0, 64, 62
1, 90864, Control_c, 0, 64, 61
1, 90879, Control_c, 0, 64, 59
1, 90889, Note_off_c, 0, 54, 41
1, 90892, Note_on_c, 0, 52, 25
1, 90894, Control_c, 0, 64, 57
1, 90909, Control_c, 0, 64, 56
1, 90923, Control_c, 0, 64, 56
1, 90938, Control_c, 0, 64, 58
1, 90939, Note_on_c, 0, 61, 41
1, 90953, Control_c, 0, 64, 59
1, 90968, Control_c, 0, 64, 60
1, 90982, Control_c, 0, 64, 61
1, 90996, Control_c, 0, 64, 62
1, 90997, Note_off_c, 0, 58, 36
1, 91011, Control_c, 0, 64, 62
1, 91026, Control_c, 0, 64, 63
1, 91041, Control_c, 0, 64, 64
1, 91064, Control_c, 0, 64, 65
1, 91078, Control_c, 0, 64, 67
1, 91082, Note_off_c, 0, 52, 49
1, 91093, Control_c, 0, 64, 68
1, 91096, Note_on_c, 0, 54, 31
1, 91108, Control_c, 0, 64, 70
1, 91112, Note_off_c, 0, 49, 57
1, 91123, Control_c, 0, 64, 72
1, 91137, Control_c, 0, 64, 73
1, 91152, Control_c, 0, 64, 73
1, 91167, Control_c, 0, 64, 74
1, 91170, Note_off_c, 0, 42, 37
1, 91182, Control_c, 0, 64, 75
1, 91197, Control_c, 0, 64, 75
1, 91211, Control_c, 0, 64, 76
1, 91250, Note_on_c, 0, 58, 36
1, 91275, Note_off_c, 0, 54, 42
1, 91315, Control_c, 0, 64, 75
1, 91374, Control_c, 0, 64, 75
1, 91404, Control_c, 0, 64, 74
1, 91449, Control_c, 0, 64, 74
1, 91455, Note_off_c, 0, 61, 27
1, 91464, Control_c, 0, 64, 73
1, 91478, Control_c, 0, 64, 72
1, 91493, Control_c, 0, 64, 72
1, 91495, Note_on_c, 0, 59, 42
1, 91508, Control_c, 0, 64, 71
1, 91510, Note_on_c, 0, 35, 10
1, 91523, Control_c, 0, 64, 70
1, 91537, Control_c, 0, 64, 70
1, 91553, Control_c, 0, 64, 69
1, 91568, Control_c, 0, 64, 68
1, 91583, Control_c, 0, 64, 67
1, 91598, Control_c, 0, 64, 66
1, 91613, Control_c, 0, 64, 65
1, 91617, Note_off_c, 0, 58, 17
1, 91627, Control_c, 0, 64, 63
1, 91642, Control_c, 0, 64, 61
1, 91657, Control_c, 0, 64, 59
1, 91672, Control_c, 0, 64, 57
1, 91687, Control_c, 0, 64, 56
1, 91701, Control_c, 0, 64, 54
1, 91716, Control_c, 0, 64, 54
1, 91745, Control_c, 0, 64, 54
1, 91757, Note_on_c, 0, 47, 42
1, 91760, Control_c, 0, 64, 56
1, 91775, Control_c, 0, 64, 58
1, 91790, Control_c, 0, 64, 59
1, 91812, Control_c, 0, 64, 60
1, 91827, Control_c, 0, 64, 62
1, 91842, Control_c, 0, 64, 63
1, 91857, Control_c, 0, 64, 64
1, 91872, Control_c, 0, 64, 65
1, 91880, Note_on_c, 0, 51, 40
1, 91884, Note_off_c, 0, 47, 35
1, 91887, Control_c, 0, 64, 66
1, 91901, Control_c, 0, 64, 66
1, 91931, Control_c, 0, 64, 67
1, 91950, Note_off_c, 0, 51, 53
1, 91960, Control_c, 0, 64, 67
1, 91975, Control_c, 0, 64, 68
1, 91990, Control_c, 0, 64, 69
1, 92003, Note_on_c, 0, 54, 33
1, 92005, Control_c, 0, 64, 69
1, 92020, Control_c, 0, 64, 70
1, 92034, Control_c, 0, 64, 71
1, 92049, Control_c, 0, 64, 72
1, 92064, Control_c, 0, 64, 72
1, 92078, Control_c, 0, 64, 73
1, 92093, Control_c, 0, 64, 73
1, 92105, Note_on_c, 0, 51, 48
1, 92110, Note_off_c, 0, 54, 38
1, 92151, Note_off_c, 0, 51, 58
1, 92203, Note_on_c, 0, 47, 24
1, 92242, Note_off_c, 0, 47, 45
1, 92289, Note_on_c, 0, 51, 35
1, 92331, Note_off_c, 0, 51, 49
1, 92369, Note_on_c, 0, 47, 22
1, 92419, Note_off_c, 0, 47, 43
1, 92462, Note_on_c, 0, 51, 31
1, 92495, Control_c, 0, 64, 74
1, 92502, Note_off_c, 0, 51, 51
1, 92524, Control_c, 0, 64, 74
1, 92539, Control_c, 0, 64, 75
1, 92561, Control_c, 0, 64, 76
1, 92563, Note_on_c, 0, 54, 30
1, 92576, Control_c, 0, 64, 76
1, 92620, Control_c, 0, 64, 77
1, 92650, Control_c, 0, 64, 77
1, 92659, Note_on_c, 0, 51, 32
1, 92665, Control_c, 0, 64, 78
1, 92677, Note_off_c, 0, 59, 37
1, 92680, Control_c, 0, 64, 78
1, 92785, Note_on_c, 0, 47, 30
1, 92843, Control_c, 0, 64, 78
1, 92887, Control_c, 0, 64, 77
1, 92901, Control_c, 0, 64, 77
1, 92916, Control_c, 0, 64, 76
1, 92918, Note_on_c, 0, 31, 39
1, 92924, Note_on_c, 0, 59, 53
1, 92931, Control_c, 0, 64, 76
1, 92933, Note_off_c, 0, 47, 37
1, 92946, Control_c, 0, 64, 75
1, 92961, Control_c, 0, 64, 74
1, 92975, Control_c, 0, 64, 73
1, 92976, Note_off_c, 0, 51, 37
1, 92990, Control_c, 0, 64, 72
1, 92993, Note_off_c, 0, 54, 43
1, 93005, Control_c, 0, 64, 71
1, 93020, Control_c, 0, 64, 70
1, 93035, Control_c, 0, 64, 69
1, 93049, Control_c, 0, 64, 67
1, 93064, Control_c, 0, 64, 64
1, 93076, Note_on_c, 0, 47, 24
1, 93079, Control_c, 0, 64, 60
1, 93094, Control_c, 0, 64, 55
1, 93109, Control_c, 0, 64, 51
1, 93124, Control_c, 0, 64, 48
1, 93126, Note_off_c, 0, 35, 41
1, 93154, Control_c, 0, 64, 49
1, 93169, Control_c, 0, 64, 52
1, 93184, Control_c, 0, 64, 54
1, 93199, Control_c, 0, 64, 57
1, 93201, Note_on_c, 0, 52, 42
1, 93213, Control_c, 0, 64, 59
1, 93228, Control_c, 0, 64, 60
1, 93235, Note_off_c, 0, 47, 31
1, 93243, Control_c, 0, 64, 62
1, 93258, Control_c, 0, 64, 64
1, 93273, Control_c, 0, 64, 66
1, 93276, Note_off_c, 0, 52, 58
1, 93288, Control_c, 0, 64, 68
1, 93310, Control_c, 0, 64, 70
1, 93325, Control_c, 0, 64, 73
1, 93339, Control_c, 0, 64, 76
1, 93345, Note_on_c, 0, 55, 34
1, 93354, Control_c, 0, 64, 78
1, 93369, Control_c, 0, 64, 80
1, 93384, Control_c, 0, 64, 83
1, 93399, Control_c, 0, 64, 85
1, 93413, Control_c, 0, 64, 87
1, 93428, Control_c, 0, 64, 89
1, 93431, Note_off_c, 0, 55, 52
1, 93440, Note_on_c, 0, 52, 39
1, 93443, Control_c, 0, 64, 90
1, 93458, Control_c, 0, 64, 91
1, 93473, Control_c, 0, 64, 91
1, 93488, Note_off_c, 0, 52, 59
1, 93503, Control_c, 0, 64, 92
1, 93535, Note_on_c, 0, 47, 23
1, 93579, Note_off_c, 0, 47, 50
1, 93608, Note_on_c, 0, 52, 42
1, 93666, Control_c, 0, 64, 91
1, 93667, Note_off_c, 0, 52, 59
1, 93702, Note_on_c, 0, 47, 33
1, 93721, Note_off_c, 0, 31, 32
1, 93770, Note_off_c, 0, 47, 39
1, 93797, Note_on_c, 0, 52, 43
1, 93848, Note_off_c, 0, 52, 54
1, 93906, Note_on_c, 0, 31, 44
1, 93920, Note_on_c, 0, 55, 40
1, 93932, Control_c, 0, 64, 92
1, 93977, Control_c, 0, 64, 92
1, 93991, Control_c, 0, 64, 93
1, 94006, Control_c, 0, 64, 94
1, 94016, Note_on_c, 0, 33, 64
1, 94021, Control_c, 0, 64, 95
1, 94024, Note_off_c, 0, 31, 53
1, 94036, Control_c, 0, 64, 97
1, 94057, Poly_aftertouch_c, 0, 56, 127
1, 94058, Control_c, 0, 64, 98
1, 94073, Control_c, 0, 64, 99
1, 94081, Note_off_c, 0, 59, 48
1, 94088, Control_c, 0, 64, 99
1, 94092, Note_on_c, 0, 52, 37
1, 94102, Control_c, 0, 64, 100
1, 94116, Note_on_c, 0, 35, 67
1, 94117, Control_c, 0, 64, 101
1, 94128, Note_off_c, 0, 33, 61
1, 94132, Control_c, 0, 64, 101
1, 94158, Note_off_c, 0, 35, 61
1, 94186, Note_on_c, 0, 47, 5
1, 94191, Control_c, 0, 64, 100
1, 94206, Control_c, 0, 64, 99
1, 94221, Control_c, 0, 64, 98
1, 94236, Control_c, 0, 64, 97
1, 94251, Note_off_c, 0, 47, 42
1, 94251, Control_c, 0, 64, 95
1, 94260, Note_on_c, 0, 59, 77
1, 94260, Note_on_c, 0, 35, 62
1, 94266, Control_c, 0, 64, 93
1, 94281, Control_c, 0, 64, 91
1, 94295, Control_c, 0, 64, 88
1, 94307, Note_off_c, 0, 52, 40
1, 94310, Control_c, 0, 64, 84
1, 94321, Note_off_c, 0, 55, 56
1, 94325, Control_c, 0, 64, 80
1, 94340, Control_c, 0, 64, 75
1, 94354, Control_c, 0, 64, 69
1, 94369, Control_c, 0, 64, 63
1, 94381, Poly_aftertouch_c, 0, 56, 0
1, 94384, Control_c, 0, 64, 55
1, 94399, Control_c, 0, 64, 46
1, 94414, Control_c, 0, 64, 42
1, 94428, Control_c, 0, 64, 41
1, 94443, Control_c, 0, 64, 40
1, 94513, Poly_aftertouch_c, 0, 47, 127
1, 94517, Control_c, 0, 64, 43
1, 94532, Control_c, 0, 64, 45
1, 94546, Control_c, 0, 64, 48
1, 94547, Note_on_c, 0, 51, 46
1, 94549, Poly_aftertouch_c, 0, 47, 0
1, 94561, Control_c, 0, 64, 51
1, 94576, Control_c, 0, 64, 54
1, 94591, Control_c, 0, 64, 55
1, 94602, Note_off_c, 0, 51, 59
1, 94606, Control_c, 0, 64, 56
1, 94620, Control_c, 0, 64, 58
1, 94635, Control_c, 0, 64, 59
1, 94650, Control_c, 0, 64, 60
1, 94658, Note_on_c, 0, 54, 38
1, 94665, Control_c, 0, 64, 61
1, 94680, Control_c, 0, 64, 62
1, 94695, Control_c, 0, 64, 63
1, 94710, Control_c, 0, 64, 63
1, 94710, Control_c, 0, 67, 127
1, 94725, Control_c, 0, 64, 64
1, 94725, Control_c, 0, 67, 117
1, 94740, Control_c, 0, 64, 64
1, 94740, Control_c, 0, 67, 105
1, 94741, Note_on_c, 0, 51, 38
1, 94755, Control_c, 0, 64, 65
1, 94755, Control_c, 0, 67, 92
1, 94765, Note_off_c, 0, 54, 37
1, 94769, Control_c, 0, 64, 66
1, 94769, Control_c, 0, 67, 78
1, 94784, Control_c, 0, 64, 67
1, 94784, Control_c, 0, 67, 62
1, 94787, Note_off_c, 0, 51, 60
1, 94807, Control_c, 0, 64, 68
1, 94807, Control_c, 0, 67, 48
1, 94822, Control_c, 0, 64, 70
1, 94822, Control_c, 0, 67, 34
1, 94837, Control_c, 0, 64, 71
1, 94837, Control_c, 0, 67, 20
1, 94840, Note_on_c, 0, 47, 26
1, 94851, Control_c, 0, 64, 72
1, 94851, Control_c, 0, 67, 0
1, 94866, Control_c, 0, 64, 73
1, 94880, Note_off_c, 0, 47, 49
1, 94909, Note_on_c, 0, 51, 50
1, 94911, Control_c, 0, 64, 73
1, 94925, Control_c, 0, 64, 74
1, 94940, Control_c, 0, 64, 74
1, 94955, Control_c, 0, 64, 75
1, 94965, Note_off_c, 0, 51, 60
1, 94970, Control_c, 0, 64, 75
1, 94984, Control_c, 0, 64, 76
1, 94999, Note_on_c, 0, 47, 35
1, 94999, Control_c, 0, 64, 77
1, 95014, Control_c, 0, 64, 78
1, 95029, Control_c, 0, 64, 79
1, 95044, Control_c, 0, 64, 80
1, 95059, Control_c, 0, 64, 82
1, 95074, Control_c, 0, 64, 84
1, 95076, Note_off_c, 0, 47, 35
1, 95088, Control_c, 0, 64, 86
1, 95093, Note_on_c, 0, 51, 48
1, 95103, Control_c, 0, 64, 89
1, 95118, Control_c, 0, 64, 92
1, 95133, Control_c, 0, 64, 93
1, 95133, Note_off_c, 0, 51, 50
1, 95185, Note_on_c, 0, 54, 55
1, 95186, Note_on_c, 0, 37, 60
1, 95193, Poly_aftertouch_c, 0, 56, 127
1, 95207, Control_c, 0, 64, 92
1, 95228, Note_off_c, 0, 35, 54
1, 95249, Note_on_c, 0, 51, 46
1, 95265, Note_on_c, 0, 39, 70
1, 95278, Note_off_c, 0, 37, 60
1, 95295, Control_c, 0, 64, 93
1, 95318, Note_off_c, 0, 59, 51
1, 95330, Note_off_c, 0, 51, 56
1, 95333, Note_off_c, 0, 39, 64
1, 95340, Control_c, 0, 64, 93
1, 95345, Note_on_c, 0, 47, 41
1, 95347, Note_on_c, 0, 40, 72
1, 95369, Control_c, 0, 64, 93
1, 95384, Control_c, 0, 64, 92
1, 95399, Control_c, 0, 64, 92
1, 95414, Control_c, 0, 64, 90
1, 95422, Note_on_c, 0, 42, 80
1, 95429, Control_c, 0, 64, 89
1, 95443, Control_c, 0, 64, 86
1, 95449, Note_off_c, 0, 40, 59
1, 95458, Control_c, 0, 64, 84
1, 95473, Control_c, 0, 64, 80
1, 95488, Control_c, 0, 64, 75
1, 95503, Control_c, 0, 64, 70
1, 95514, Note_on_c, 0, 59, 79
1, 95518, Control_c, 0, 64, 65
1, 95529, Note_on_c, 0, 43, 70
1, 95533, Control_c, 0, 64, 61
1, 95547, Note_off_c, 0, 47, 41
1, 95553, Note_off_c, 0, 42, 63
1, 95556, Control_c, 0, 64, 55
1, 95571, Control_c, 0, 64, 48
1, 95586, Control_c, 0, 64, 43
1, 95600, Control_c, 0, 64, 40
1, 95611, Note_off_c, 0, 54, 58
1, 95615, Control_c, 0, 64, 37
1, 95630, Control_c, 0, 64, 33
1, 95645, Control_c, 0, 64, 28
1, 95660, Control_c, 0, 64, 22
1, 95674, Control_c, 0, 64, 13
1, 95689, Control_c, 0, 64, 0
1, 95705, Note_on_c, 0, 47, 27
1, 95792, Control_c, 0, 64, 21
1, 95792, Control_c, 0, 67, 9
1, 95807, Note_off_c, 0, 47, 40
1, 95807, Control_c, 0, 64, 31
1, 95807, Control_c, 0, 67, 19
1, 95808, Poly_aftertouch_c, 0, 56, 0
1, 95817, Note_on_c, 0, 50, 36
1, 95822, Control_c, 0, 64, 40
1, 95822, Control_c, 0, 67, 31
1, 95837, Control_c, 0, 64, 47
1, 95837, Control_c, 0, 67, 44
1, 95852, Control_c, 0, 64, 51
1, 95852, Control_c, 0, 67, 60
1, 95859, Note_off_c, 0, 50, 56
1, 95866, Control_c, 0, 64, 55
1, 95866, Control_c, 0, 67, 77
1, 95881, Control_c, 0, 64, 57
1, 95881, Control_c, 0, 67, 92
1, 95896, Control_c, 0, 64, 60
1, 95896, Control_c, 0, 67, 105
1, 95907, Note_on_c, 0, 53, 49
1, 95911, Control_c, 0, 64, 62
1, 95911, Control_c, 0, 67, 118
1, 95926, Control_c, 0, 64, 63
1, 95926, Control_c, 0, 67, 127
1, 95941, Control_c, 0, 64, 64
1, 95944, Note_off_c, 0, 59, 56
1, 95956, Control_c, 0, 64, 65
1, 95971, Control_c, 0, 64, 66
1, 95986, Control_c, 0, 64, 66
1, 95999, Note_on_c, 0, 50, 42
1, 96000, Control_c, 0, 64, 67
1, 96015, Control_c, 0, 64, 67
1, 96060, Control_c, 0, 64, 67
1, 96089, Control_c, 0, 64, 66
1, 96091, Note_on_c, 0, 47, 42
1, 96118, Control_c, 0, 64, 66
1, 96130, Note_off_c, 0, 50, 60
1, 96133, Control_c, 0, 64, 65
1, 96135, Note_off_c, 0, 47, 60
1, 96148, Control_c, 0, 64, 65
1, 96163, Control_c, 0, 64, 64
1, 96173, Note_on_c, 0, 42, 42
1, 96176, Note_on_c, 0, 58, 59
1, 96178, Note_off_c, 0, 53, 55
1, 96178, Control_c, 0, 64, 64
1, 96192, Control_c, 0, 64, 63
1, 96207, Control_c, 0, 64, 62
1, 96222, Control_c, 0, 64, 61
1, 96237, Control_c, 0, 64, 60
1, 96245, Note_off_c, 0, 43, 57
1, 96252, Control_c, 0, 64, 59
1, 96266, Control_c, 0, 64, 57
1, 96281, Control_c, 0, 64, 56
1, 96304, Control_c, 0, 64, 54
1, 96319, Control_c, 0, 64, 53
1, 96333, Note_on_c, 0, 49, 42
1, 96333, Control_c, 0, 64, 51
1, 96349, Control_c, 0, 64, 50
1, 96409, Control_c, 0, 64, 51
1, 96423, Control_c, 0, 64, 54
1, 96438, Control_c, 0, 64, 58
1, 96448, Note_on_c, 0, 52, 31
1, 96453, Control_c, 0, 64, 61
1, 96468, Control_c, 0, 64, 62
1, 96483, Control_c, 0, 64, 63
1, 96497, Control_c, 0, 64, 64
1, 96499, Note_off_c, 0, 49, 34
1, 96512, Control_c, 0, 64, 66
1, 96518, Note_off_c, 0, 52, 56
1, 96527, Control_c, 0, 64, 69
1, 96542, Control_c, 0, 64, 72
1, 96557, Control_c, 0, 64, 75
1, 96571, Control_c, 0, 64, 77
1, 96573, Note_on_c, 0, 54, 40
1, 96586, Control_c, 0, 64, 80
1, 96601, Control_c, 0, 64, 82
1, 96615, Control_c, 0, 64, 83
1, 96630, Control_c, 0, 64, 83
1, 96645, Control_c, 0, 64, 84
1, 96689, Note_on_c, 0, 52, 33
1, 96708, Note_off_c, 0, 42, 56
1, 96719, Control_c, 0, 64, 84
1, 96767, Note_off_c, 0, 58, 29
1, 96781, Note_off_c, 0, 54, 37
1, 96792, Note_on_c, 0, 49, 38
1, 96793, Control_c, 0, 64, 84
1, 96823, Control_c, 0, 64, 83
1, 96853, Control_c, 0, 64, 83
1, 96883, Control_c, 0, 64, 82
1, 96897, Control_c, 0, 64, 82
1, 96912, Control_c, 0, 64, 81
1, 96927, Control_c, 0, 64, 80
1, 96941, Control_c, 0, 64, 79
1, 96942, Note_off_c, 0, 49, 36
1, 96947, Note_on_c, 0, 35, 40
1, 96956, Control_c, 0, 64, 78
1, 96971, Control_c, 0, 64, 77
1, 96986, Control_c, 0, 64, 76
1, 96989, Note_on_c, 0, 59, 45
1, 97001, Control_c, 0, 64, 75
1, 97015, Control_c, 0, 64, 73
1, 97030, Control_c, 0, 64, 70
1, 97032, Note_off_c, 0, 52, 38
1, 97053, Control_c, 0, 64, 68
1, 97068, Control_c, 0, 64, 66
1, 97083, Control_c, 0, 64, 63
1, 97097, Control_c, 0, 64, 61
1, 97112, Control_c, 0, 64, 59
1, 97127, Control_c, 0, 64, 57
1, 97142, Control_c, 0, 64, 56
1, 97157, Control_c, 0, 64, 55
1, 97172, Control_c, 0, 64, 54
1, 97187, Control_c, 0, 64, 54
1, 97211, Note_on_c, 0, 47, 20
1, 97232, Control_c, 0, 64, 54
1, 97261, Control_c, 0, 64, 55
1, 97276, Control_c, 0, 64, 55
1, 97291, Control_c, 0, 64, 56
1, 97293, Note_off_c, 0, 47, 39
1, 97306, Control_c, 0, 64, 57
1, 97306, Note_on_c, 0, 51, 36
1, 97320, Control_c, 0, 64, 58
1, 97335, Control_c, 0, 64, 59
1, 97345, Note_off_c, 0, 51, 52
1, 97350, Control_c, 0, 64, 60
1, 97364, Control_c, 0, 64, 60
1, 97379, Control_c, 0, 64, 61
1, 97394, Control_c, 0, 64, 62
1, 97398, Note_on_c, 0, 54, 30
1, 97409, Control_c, 0, 64, 62
1, 97424, Control_c, 0, 64, 63
1, 97438, Control_c, 0, 64, 64
1, 97453, Control_c, 0, 64, 64
1, 97468, Control_c, 0, 64, 65
1, 97483, Note_off_c, 0, 54, 38
1, 97483, Control_c, 0, 64, 66
1, 97496, Note_on_c, 0, 51, 6
1, 97498, Control_c, 0, 64, 67
1, 97512, Control_c, 0, 64, 68
1, 97527, Control_c, 0, 64, 70
1, 97527, Control_c, 0, 67, 126
1, 97542, Control_c, 0, 64, 71
1, 97542, Control_c, 0, 67, 110
1, 97548, Note_off_c, 0, 51, 37
1, 97557, Control_c, 0, 64, 73
1, 97557, Control_c, 0, 67, 93
1, 97560, Note_on_c, 0, 47, 32
1, 97572, Control_c, 0, 64, 75
1, 97572, Control_c, 0, 67, 77
1, 97586, Control_c, 0, 64, 76
1, 97586, Control_c, 0, 67, 61
1, 97601, Control_c, 0, 64, 77
1, 97601, Control_c, 0, 67, 45
1, 97606, Note_off_c, 0, 47, 51
1, 97616, Control_c, 0, 64, 78
1, 97616, Control_c, 0, 67, 33
1, 97631, Control_c, 0, 64, 79
1, 97631, Control_c, 0, 67, 21
1, 97646, Control_c, 0, 64, 80
1, 97646, Control_c, 0, 67, 10
1, 97648, Note_on_c, 0, 51, 50
1, 97661, Control_c, 0, 64, 81
1, 97661, Control_c, 0, 67, 0
1, 97676, Control_c, 0, 64, 83
1, 97691, Control_c, 0, 64, 85
1, 97693, Note_off_c, 0, 51, 61
1, 97706, Control_c, 0, 64, 87
1, 97720, Control_c, 0, 64, 90
1, 97735, Control_c, 0, 64, 93
1, 97747, Note_on_c, 0, 47, 36
1, 97750, Control_c, 0, 64, 96
1, 97764, Control_c, 0, 64, 99
1, 97779, Control_c, 0, 64, 104
1, 97801, Control_c, 0, 64, 109
1, 97816, Control_c, 0, 64, 119
1, 97825, Note_on_c, 0, 51, 40
1, 97831, Control_c, 0, 64, 127
1, 97864, Note_off_c, 0, 51, 58
1, 97879, Note_off_c, 0, 47, 34
1, 97916, Note_on_c, 0, 54, 46
1, 98010, Note_on_c, 0, 51, 37
1, 98029, Note_off_c, 0, 59, 41
1, 98117, Note_on_c, 0, 47, 37
1, 98251, Note_off_c, 0, 51, 25
1, 98268, Note_on_c, 0, 32, 63
1, 98272, Note_on_c, 0, 59, 73
1, 98325, Note_off_c, 0, 47, 39
1, 98365, Control_c, 0, 64, 108
1, 98380, Control_c, 0, 64, 95
1, 98394, Control_c, 0, 64, 88
1, 98409, Control_c, 0, 64, 83
1, 98424, Control_c, 0, 64, 80
1, 98439, Control_c, 0, 64, 76
1, 98454, Control_c, 0, 64, 72
1, 98462, Note_on_c, 0, 47, 44
1, 98463, Note_off_c, 0, 35, 37
1, 98469, Control_c, 0, 64, 66
1, 98484, Control_c, 0, 64, 60
1, 98496, Note_off_c, 0, 54, 34
1, 98499, Control_c, 0, 64, 48
1, 98513, Control_c, 0, 64, 33
1, 98528, Control_c, 0, 64, 17
1, 98550, Control_c, 0, 64, 0
1, 98582, Note_on_c, 0, 52, 49
1, 98606, Note_off_c, 0, 47, 38
1, 98667, Note_off_c, 0, 52, 62
1, 98691, Note_on_c, 0, 56, 52
1, 98698, Control_c, 0, 64, 40
1, 98713, Control_c, 0, 64, 51
1, 98728, Control_c, 0, 64, 55
1, 98744, Control_c, 0, 64, 58
1, 98759, Control_c, 0, 64, 63
1, 98773, Control_c, 0, 64, 66
1, 98788, Control_c, 0, 64, 70
1, 98798, Note_off_c, 0, 56, 55
1, 98801, Note_on_c, 0, 52, 54
1, 98803, Control_c, 0, 64, 77
1, 98818, Control_c, 0, 64, 87
1, 98832, Control_c, 0, 64, 102
1, 98847, Control_c, 0, 64, 127
1, 98857, Note_off_c, 0, 52, 59
1, 98880, Note_on_c, 0, 47, 47
1, 98948, Note_off_c, 0, 47, 55
1, 98980, Note_on_c, 0, 52, 53
1, 99045, Note_off_c, 0, 52, 62
1, 99059, Note_off_c, 0, 32, 60
1, 99072, Note_on_c, 0, 47, 52
1, 99145, Note_off_c, 0, 47, 49
1, 99168, Note_on_c, 0, 52, 54
1, 99238, Note_off_c, 0, 52, 60
1, 99241, Note_on_c, 0, 56, 70
1, 99244, Note_on_c, 0, 32, 63
1, 99300, Poly_aftertouch_c, 0, 29, 127
1, 99357, Note_on_c, 0, 52, 72
1, 99375, Note_off_c, 0, 59, 56
1, 99381, Note_on_c, 0, 34, 70
1, 99386, Poly_aftertouch_c, 0, 29, 0
1, 99426, Note_off_c, 0, 32, 59
1, 99438, Note_on_c, 0, 47, 71
1, 99470, Note_on_c, 0, 35, 64
1, 99472, Note_off_c, 0, 34, 61
1, 99512, Note_off_c, 0, 35, 58
1, 99578, Note_on_c, 0, 59, 87
1, 99602, Note_on_c, 0, 35, 59
1, 99619, Note_off_c, 0, 47, 48
1, 99619, Note_off_c, 0, 52, 64
1, 99622, Note_on_c, 0, 33, 34
1, 99626, Control_c, 0, 64, 97
1, 99640, Control_c, 0, 64, 74
1, 99655, Control_c, 0, 64, 58
1, 99659, Note_off_c, 0, 33, 45
1, 99670, Control_c, 0, 64, 0
1, 99754, Note_on_c, 0, 47, 51
1, 99863, Note_on_c, 0, 51, 39
1, 99899, Note_off_c, 0, 51, 55
1, 99932, Note_off_c, 0, 47, 32
1, 99963, Note_on_c, 0, 54, 42
1, 100028, Note_off_c, 0, 54, 57
1, 100038, Note_off_c, 0, 56, 38
1, 100041, Note_on_c, 0, 51, 45
1, 100102, Note_off_c, 0, 51, 63
1, 100135, Note_on_c, 0, 47, 40
1, 100183, Note_off_c, 0, 47, 60
1, 100228, Note_on_c, 0, 51, 51
1, 100266, Note_off_c, 0, 51, 64
1, 100292, Note_on_c, 0, 47, 53
1, 100300, Control_c, 0, 64, 18
1, 100314, Control_c, 0, 64, 28
1, 100329, Control_c, 0, 64, 35
1, 100345, Control_c, 0, 64, 41
1, 100360, Control_c, 0, 64, 47
1, 100375, Control_c, 0, 64, 52
1, 100381, Note_on_c, 0, 51, 50
1, 100385, Note_off_c, 0, 47, 50
1, 100389, Control_c, 0, 64, 55
1, 100404, Control_c, 0, 64, 57
1, 100419, Control_c, 0, 64, 59
1, 100434, Control_c, 0, 64, 60
1, 100449, Control_c, 0, 64, 60
1, 100456, Note_off_c, 0, 51, 58
1, 100502, Note_on_c, 0, 54, 60
1, 100505, Note_on_c, 0, 37, 65
1, 100547, Note_off_c, 0, 35, 59
1, 100576, Note_on_c, 0, 51, 67
1, 100592, Note_on_c, 0, 39, 69
1, 100606, Note_off_c, 0, 59, 56
1, 100620, Note_off_c, 0, 37, 59
1, 100653, Note_off_c, 0, 39, 65
1, 100657, Control_c, 0, 64, 61
1, 100661, Note_on_c, 0, 47, 60
1, 100666, Note_on_c, 0, 40, 69
1, 100668, Note_off_c, 0, 51, 62
1, 100745, Control_c, 0, 64, 60
1, 100746, Note_on_c, 0, 42, 81
1, 100751, Note_off_c, 0, 40, 63
1, 100797, Control_c, 0, 64, 60
1, 100812, Control_c, 0, 64, 59
1, 100827, Control_c, 0, 64, 58
1, 100842, Control_c, 0, 64, 57
1, 100856, Control_c, 0, 64, 56
1, 100870, Note_on_c, 0, 44, 67
1, 100871, Control_c, 0, 64, 55
1, 100873, Note_on_c, 0, 59, 80
1, 100886, Control_c, 0, 64, 54
1, 100901, Control_c, 0, 64, 52
1, 100906, Note_off_c, 0, 42, 63
1, 100916, Control_c, 0, 64, 50
1, 100920, Note_off_c, 0, 47, 60
1, 100931, Control_c, 0, 64, 49
1, 100945, Control_c, 0, 64, 48
1, 100960, Control_c, 0, 64, 48
1, 100989, Control_c, 0, 64, 47
1, 100993, Note_off_c, 0, 54, 49
1, 101004, Control_c, 0, 64, 47
1, 101077, Note_on_c, 0, 47, 45
1, 101108, Control_c, 0, 64, 47
1, 101123, Control_c, 0, 64, 48
1, 101139, Control_c, 0, 64, 50
1, 101154, Control_c, 0, 64, 52
1, 101164, Note_off_c, 0, 47, 58
1, 101168, Control_c, 0, 64, 55
1, 101183, Control_c, 0, 64, 57
1, 101190, Note_on_c, 0, 50, 45
1, 101198, Control_c, 0, 64, 59
1, 101212, Control_c, 0, 64, 60
1, 101227, Control_c, 0, 64, 61
1, 101242, Control_c, 0, 64, 62
1, 101257, Control_c, 0, 64, 62
1, 101267, Note_off_c, 0, 50, 60
1, 101272, Control_c, 0, 64, 63
1, 101286, Control_c, 0, 64, 64
1, 101299, Note_on_c, 0, 53, 54
1, 101301, Control_c, 0, 64, 66
1, 101316, Control_c, 0, 64, 69
1, 101327, Note_off_c, 0, 59, 55
1, 101331, Control_c, 0, 64, 72
1, 101346, Control_c, 0, 64, 75
1, 101346, Control_c, 0, 67, 25
1, 101360, Control_c, 0, 64, 78
1, 101360, Control_c, 0, 67, 50
1, 101375, Control_c, 0, 64, 80
1, 101375, Control_c, 0, 67, 75
1, 101390, Control_c, 0, 67, 102
1, 101405, Control_c, 0, 67, 127
1, 101407, Note_on_c, 0, 50, 54
1, 101420, Control_c, 0, 64, 79
1, 101450, Control_c, 0, 64, 79
1, 101465, Control_c, 0, 64, 78
1, 101479, Control_c, 0, 64, 78
1, 101494, Control_c, 0, 64, 77
1, 101509, Control_c, 0, 64, 76
1, 101524, Control_c, 0, 64, 76
1, 101530, Note_on_c, 0, 47, 49
1, 101546, Control_c, 0, 64, 75
1, 101560, Control_c, 0, 64, 75
1, 101575, Control_c, 0, 64, 74
1, 101590, Control_c, 0, 64, 72
1, 101605, Control_c, 0, 64, 71
1, 101609, Note_off_c, 0, 47, 58
1, 101620, Control_c, 0, 64, 70
1, 101626, Note_off_c, 0, 50, 57
1, 101634, Control_c, 0, 64, 68
1, 101637, Note_off_c, 0, 53, 34
1, 101648, Note_on_c, 0, 42, 50
1, 101649, Control_c, 0, 64, 67
1, 101656, Note_on_c, 0, 58, 53
1, 101664, Control_c, 0, 64, 66
1, 101679, Control_c, 0, 64, 64
1, 101694, Control_c, 0, 64, 63
1, 101709, Control_c, 0, 64, 60
1, 101724, Control_c, 0, 64, 56
1, 101739, Control_c, 0, 64, 53
1, 101754, Control_c, 0, 64, 51
1, 101768, Control_c, 0, 64, 48
1, 101783, Control_c, 0, 64, 45
1, 101798, Control_c, 0, 64, 42
1, 101812, Control_c, 0, 64, 40
1, 101827, Control_c, 0, 64, 39
1, 101831, Note_off_c, 0, 44, 52
1, 101842, Control_c, 0, 64, 38
1, 101856, Note_on_c, 0, 49, 39
1, 101857, Control_c, 0, 64, 36
1, 101872, Control_c, 0, 64, 35
1, 101886, Control_c, 0, 64, 34
1, 101960, Note_on_c, 0, 52, 37
1, 101980, Note_off_c, 0, 49, 36
1, 101991, Control_c, 0, 64, 35
1, 102006, Control_c, 0, 64, 38
1, 102021, Control_c, 0, 64, 40
1, 102035, Control_c, 0, 64, 44
1, 102050, Control_c, 0, 64, 47
1, 102065, Control_c, 0, 64, 50
1, 102079, Note_off_c, 0, 52, 55
1, 102080, Control_c, 0, 64, 52
1, 102095, Control_c, 0, 64, 54
1, 102109, Control_c, 0, 64, 56
1, 102124, Control_c, 0, 64, 57
1, 102138, Note_on_c, 0, 54, 26
1, 102139, Control_c, 0, 64, 59
1, 102154, Control_c, 0, 64, 60
1, 102169, Control_c, 0, 64, 62
1, 102183, Control_c, 0, 64, 63
1, 102198, Control_c, 0, 64, 65
1, 102213, Control_c, 0, 64, 66
1, 102228, Control_c, 0, 64, 67
1, 102243, Control_c, 0, 64, 69
1, 102257, Control_c, 0, 64, 70
1, 102272, Control_c, 0, 64, 71
1, 102275, Note_on_c, 0, 52, 20
1, 102295, Control_c, 0, 64, 72
1, 102303, Note_off_c, 0, 58, 50
1, 102309, Control_c, 0, 64, 72
1, 102376, Note_off_c, 0, 54, 41
1, 102398, Control_c, 0, 64, 72
1, 102471, Note_on_c, 0, 49, 33
1, 102472, Control_c, 0, 64, 71
1, 102517, Control_c, 0, 64, 71
1, 102576, Control_c, 0, 64, 70
1, 102606, Control_c, 0, 64, 70
1, 102635, Control_c, 0, 64, 69
1, 102650, Control_c, 0, 64, 69
1, 102665, Control_c, 0, 64, 68
1, 102680, Control_c, 0, 64, 68
1, 102695, Control_c, 0, 64, 67
1, 102704, Note_off_c, 0, 49, 30
1, 102709, Control_c, 0, 64, 67
1, 102710, Note_on_c, 0, 35, 33
1, 102740, Control_c, 0, 64, 66
1, 102755, Note_on_c, 0, 59, 39
1, 102755, Control_c, 0, 64, 65
1, 102770, Control_c, 0, 64, 65
1, 102785, Control_c, 0, 64, 64
1, 102800, Control_c, 0, 64, 63
1, 102814, Control_c, 0, 64, 63
1, 102829, Control_c, 0, 64, 62
1, 102844, Control_c, 0, 64, 60
1, 102853, Note_off_c, 0, 52, 41
1, 102858, Control_c, 0, 64, 59
1, 102873, Control_c, 0, 64, 58
1, 102888, Note_off_c, 0, 42, 48
1, 102888, Control_c, 0, 64, 56
1, 102903, Control_c, 0, 64, 54
1, 102918, Control_c, 0, 64, 51
1, 102932, Control_c, 0, 64, 48
1, 102947, Control_c, 0, 64, 47
1, 102962, Control_c, 0, 64, 46
1, 102976, Control_c, 0, 64, 46
1, 102979, Note_on_c, 0, 47, 21
1, 103006, Control_c, 0, 64, 46
1, 103021, Control_c, 0, 64, 47
1, 103044, Control_c, 0, 64, 49
1, 103058, Control_c, 0, 64, 50
1, 103073, Control_c, 0, 64, 52
1, 103088, Control_c, 0, 64, 54
1, 103101, Note_on_c, 0, 51, 46
1, 103103, Control_c, 0, 64, 56
1, 103118, Control_c, 0, 64, 57
1, 103132, Control_c, 0, 64, 59
1, 103147, Control_c, 0, 64, 60
1, 103162, Control_c, 0, 64, 61
1, 103165, Note_off_c, 0, 51, 56
1, 103177, Control_c, 0, 64, 62
1, 103191, Control_c, 0, 64, 63
1, 103206, Control_c, 0, 64, 64
1, 103214, Note_off_c, 0, 47, 33
1, 103221, Control_c, 0, 64, 65
1, 103235, Note_on_c, 0, 54, 26
1, 103236, Control_c, 0, 64, 66
1, 103251, Control_c, 0, 64, 66
1, 103280, Control_c, 0, 64, 67
1, 103310, Control_c, 0, 64, 67
1, 103334, Note_on_c, 0, 51, 34
1, 103340, Control_c, 0, 64, 68
1, 103340, Note_off_c, 0, 54, 34
1, 103354, Control_c, 0, 64, 68
1, 103369, Control_c, 0, 64, 69
1, 103377, Note_off_c, 0, 51, 50
1, 103384, Control_c, 0, 64, 69
1, 103399, Control_c, 0, 64, 70
1, 103408, Note_on_c, 0, 47, 39
1, 103414, Control_c, 0, 64, 70
1, 103444, Control_c, 0, 64, 71
1, 103458, Note_off_c, 0, 47, 55
1, 103458, Control_c, 0, 64, 71
1, 103473, Control_c, 0, 64, 72
1, 103488, Control_c, 0, 64, 72
1, 103502, Note_on_c, 0, 51, 42
1, 103503, Control_c, 0, 64, 73
1, 103540, Note_off_c, 0, 51, 53
1, 103563, Control_c, 0, 64, 73
1, 103599, Note_on_c, 0, 47, 33
1, 103679, Note_on_c, 0, 51, 30
1, 103695, Note_off_c, 0, 47, 32
1, 103722, Note_off_c, 0, 51, 49
1, 103770, Control_c, 0, 64, 74
1, 103782, Note_on_c, 0, 54, 35
1, 103808, Control_c, 0, 64, 74
1, 103822, Control_c, 0, 64, 75
1, 103837, Control_c, 0, 64, 75
1, 103867, Control_c, 0, 64, 76
1, 103873, Note_off_c, 0, 59, 32
1, 103879, Note_on_c, 0, 51, 35
1, 103882, Control_c, 0, 64, 76
1, 103896, Control_c, 0, 64, 77
1, 103911, Control_c, 0, 64, 78
1, 103926, Control_c, 0, 64, 79
1, 103941, Control_c, 0, 64, 80
1, 103955, Control_c, 0, 64, 80
1, 103970, Control_c, 0, 64, 81
1, 103985, Control_c, 0, 64, 81
1, 104000, Control_c, 0, 64, 82
1, 104014, Control_c, 0, 64, 83
1, 104018, Note_on_c, 0, 47, 36
1, 104029, Control_c, 0, 64, 84
1, 104044, Control_c, 0, 64, 85
1, 104059, Control_c, 0, 64, 86
1, 104074, Control_c, 0, 64, 87
1, 104079, Note_off_c, 0, 47, 40
1, 104088, Control_c, 0, 64, 87
1, 104103, Control_c, 0, 64, 88
1, 104118, Control_c, 0, 64, 89
1, 104127, Note_off_c, 0, 54, 17
1, 104133, Control_c, 0, 64, 90
1, 104134, Note_off_c, 0, 51, 50
1, 104148, Control_c, 0, 64, 91
1, 104150, Note_on_c, 0, 59, 53
1, 104162, Control_c, 0, 64, 92
1, 104177, Control_c, 0, 64, 94
1, 104192, Control_c, 0, 64, 96
1, 104207, Control_c, 0, 64, 99
1, 104222, Control_c, 0, 64, 101
1, 104237, Control_c, 0, 64, 104
1, 104252, Control_c, 0, 64, 110
1, 104267, Control_c, 0, 64, 119
1, 104281, Control_c, 0, 64, 127
1, 104311, Note_on_c, 0, 51, 47
1, 104382, Note_off_c, 0, 59, 58
1, 104387, Note_off_c, 0, 51, 57
1, 104402, Note_on_c, 0, 54, 51
1, 104431, Note_off_c, 0, 54, 64
1, 104526, Note_on_c, 0, 63, 59
1, 104623, Note_on_c, 0, 54, 49
1, 104679, Note_off_c, 0, 54, 58
1, 104686, Note_off_c, 0, 63, 56
1, 104699, Note_on_c, 0, 59, 34
1, 104728, Note_off_c, 0, 59, 52
1, 104803, Note_on_c, 0, 66, 67
1, 104890, Note_on_c, 0, 59, 46
1, 104905, Note_off_c, 0, 66, 58
1, 104949, Note_on_c, 0, 63, 47
1, 104956, Control_c, 0, 67, 121
1, 104971, Control_c, 0, 67, 100
1, 104985, Control_c, 0, 67, 79
1, 105000, Control_c, 0, 67, 59
1, 105015, Control_c, 0, 67, 40
1, 105030, Control_c, 0, 67, 19
1, 105045, Control_c, 0, 67, 0
1, 105072, Note_on_c, 0, 71, 81
1, 105098, Note_off_c, 0, 63, 33
1, 105213, Note_on_c, 0, 63, 60
1, 105358, Note_on_c, 0, 66, 59
1, 105387, Poly_aftertouch_c, 0, 38, 127
1, 105389, Note_off_c, 0, 71, 54
1, 105503, Note_on_c, 0, 44, 49
1, 105525, Note_on_c, 0, 71, 74
1, 105527, Control_c, 0, 64, 110
1, 105541, Control_c, 0, 64, 99
1, 105556, Control_c, 0, 64, 89
1, 105571, Control_c, 0, 64, 83
1, 105583, Note_off_c, 0, 66, 55
1, 105586, Control_c, 0, 64, 76
1, 105587, Note_off_c, 0, 59, 48
1, 105601, Control_c, 0, 64, 70
1, 105615, Control_c, 0, 64, 63
1, 105623, Note_off_c, 0, 63, 28
1, 105626, Poly_aftertouch_c, 0, 38, 0
1, 105630, Control_c, 0, 64, 53
1, 105645, Control_c, 0, 64, 37
1, 105659, Control_c, 0, 64, 30
1, 105674, Control_c, 0, 64, 24
1, 105689, Control_c, 0, 64, 17
1, 105704, Control_c, 0, 64, 11
1, 105710, Note_off_c, 0, 35, 50
1, 105720, Note_on_c, 0, 59, 46
1, 105763, Control_c, 0, 64, 15
1, 105778, Control_c, 0, 64, 24
1, 105793, Control_c, 0, 64, 32
1, 105808, Control_c, 0, 64, 41
1, 105823, Control_c, 0, 64, 49
1, 105834, Note_on_c, 0, 62, 41
1, 105838, Control_c, 0, 64, 53
1, 105852, Control_c, 0, 64, 56
1, 105865, Note_off_c, 0, 59, 33
1, 105867, Control_c, 0, 64, 60
1, 105882, Control_c, 0, 64, 63
1, 105885, Note_off_c, 0, 62, 58
1, 105897, Control_c, 0, 64, 66
1, 105912, Control_c, 0, 64, 70
1, 105927, Control_c, 0, 64, 74
1, 105928, Note_on_c, 0, 65, 42
1, 105942, Control_c, 0, 64, 79
1, 105957, Control_c, 0, 64, 84
1, 105972, Control_c, 0, 64, 89
1, 105987, Control_c, 0, 64, 96
1, 106001, Control_c, 0, 64, 103
1, 106004, Note_off_c, 0, 65, 53
1, 106016, Control_c, 0, 64, 115
1, 106034, Note_on_c, 0, 62, 50
1, 106038, Control_c, 0, 64, 127
1, 106081, Note_off_c, 0, 62, 61
1, 106119, Note_on_c, 0, 59, 51
1, 106191, Note_off_c, 0, 59, 55
1, 106216, Note_on_c, 0, 62, 50
1, 106264, Note_off_c, 0, 62, 56
1, 106287, Note_off_c, 0, 44, 53
1, 106314, Note_on_c, 0, 59, 55
1, 106372, Note_off_c, 0, 59, 51
1, 106383, Note_on_c, 0, 62, 60
1, 106479, Note_off_c, 0, 62, 58
1, 106484, Note_on_c, 0, 65, 67
1, 106496, Note_on_c, 0, 44, 65
1, 106542, Poly_aftertouch_c, 0, 67, 127
1, 106571, Note_off_c, 0, 71, 55
1, 106582, Note_on_c, 0, 62, 67
1, 106607, Note_on_c, 0, 46, 75
1, 106644, Poly_aftertouch_c, 0, 67, 0
1, 106666, Note_off_c, 0, 44, 56
1, 106682, Note_on_c, 0, 59, 67
1, 106699, Note_on_c, 0, 47, 74
1, 106701, Note_off_c, 0, 46, 63
1, 106750, Note_off_c, 0, 47, 60
1, 106801, Note_off_c, 0, 59, 63
1, 106802, Control_c, 0, 64, 107
1, 106817, Control_c, 0, 64, 76
1, 106827, Note_on_c, 0, 70, 79
1, 106830, Note_on_c, 0, 47, 64
1, 106832, Control_c, 0, 64, 60
1, 106847, Control_c, 0, 64, 0
1, 106871, Note_off_c, 0, 65, 58
1, 106935, Control_c, 0, 64, 12
1, 106950, Control_c, 0, 64, 41
1, 106965, Control_c, 0, 64, 52
1, 106973, Note_off_c, 0, 62, 54
1, 106979, Control_c, 0, 64, 57
1, 106994, Control_c, 0, 64, 61
1, 107009, Control_c, 0, 64, 65
1, 107010, Note_off_c, 0, 70, 54
1, 107024, Control_c, 0, 64, 68
1, 107039, Control_c, 0, 64, 74
1, 107040, Note_on_c, 0, 56, 46
1, 107054, Control_c, 0, 64, 82
1, 107069, Control_c, 0, 64, 91
1, 107084, Control_c, 0, 64, 100
1, 107098, Control_c, 0, 64, 107
1, 107113, Control_c, 0, 64, 107
1, 107128, Control_c, 0, 64, 106
1, 107148, Note_on_c, 0, 62, 39
1, 107158, Note_off_c, 0, 56, 37
1, 107158, Control_c, 0, 64, 106
1, 107172, Note_on_c, 0, 68, 71
1, 107172, Control_c, 0, 64, 107
1, 107184, Note_off_c, 0, 62, 53
1, 107192, Note_on_c, 0, 65, 50
1, 107202, Control_c, 0, 64, 105
1, 107217, Control_c, 0, 64, 97
1, 107231, Control_c, 0, 64, 81
1, 107246, Control_c, 0, 64, 69
1, 107261, Control_c, 0, 64, 61
1, 107276, Control_c, 0, 64, 51
1, 107291, Control_c, 0, 64, 52
1, 107300, Note_on_c, 0, 62, 44
1, 107305, Control_c, 0, 64, 55
1, 107320, Control_c, 0, 64, 58
1, 107333, Note_off_c, 0, 65, 37
1, 107335, Control_c, 0, 64, 61
1, 107350, Control_c, 0, 64, 63
1, 107365, Control_c, 0, 64, 64
1, 107373, Note_off_c, 0, 62, 57
1, 107379, Control_c, 0, 64, 66
1, 107394, Control_c, 0, 64, 69
1, 107399, Note_on_c, 0, 56, 41
1, 107409, Control_c, 0, 64, 74
1, 107423, Control_c, 0, 64, 80
1, 107438, Control_c, 0, 64, 87
1, 107453, Note_off_c, 0, 56, 58
1, 107453, Control_c, 0, 64, 94
1, 107468, Control_c, 0, 64, 104
1, 107483, Control_c, 0, 64, 127
1, 107511, Note_on_c, 0, 62, 49
1, 107561, Note_off_c, 0, 62, 62
1, 107580, Note_on_c, 0, 56, 53
1, 107653, Note_off_c, 0, 56, 50
1, 107669, Note_on_c, 0, 62, 49
1, 107687, Note_off_c, 0, 47, 58
1, 107772, Note_off_c, 0, 62, 60
1, 107784, Note_on_c, 0, 65, 63
1, 107793, Note_on_c, 0, 47, 73
1, 107817, Control_c, 0, 64, 95
1, 107832, Control_c, 0, 64, 73
1, 107847, Control_c, 0, 64, 61
1, 107862, Control_c, 0, 64, 52
1, 107863, Poly_aftertouch_c, 0, 66, 127
1, 107876, Control_c, 0, 64, 57
1, 107891, Note_on_c, 0, 62, 68
1, 107891, Control_c, 0, 64, 61
1, 107894, Note_on_c, 0, 49, 71
1, 107906, Control_c, 0, 64, 64
1, 107921, Control_c, 0, 64, 68
1, 107923, Note_off_c, 0, 68, 53
1, 107934, Note_off_c, 0, 47, 57
1, 107936, Control_c, 0, 64, 77
1, 107951, Control_c, 0, 64, 97
1, 107963, Poly_aftertouch_c, 0, 66, 0
1, 107966, Control_c, 0, 64, 127
1, 107986, Note_off_c, 0, 65, 57
1, 107997, Note_on_c, 0, 50, 82
1, 107997, Note_on_c, 0, 56, 36
1, 108026, Note_off_c, 0, 49, 62
1, 108036, Note_off_c, 0, 50, 63
1, 108103, Note_off_c, 0, 56, 38
1, 108114, Note_on_c, 0, 66, 77
1, 108139, Note_on_c, 0, 50, 68
1, 108141, Note_on_c, 0, 52, 74
1, 108143, Control_c, 0, 64, 91
1, 108158, Control_c, 0, 64, 69
1, 108163, Note_off_c, 0, 62, 62
1, 108173, Control_c, 0, 64, 50
1, 108188, Control_c, 0, 64, 0
1, 108246, Control_c, 0, 64, 31
1, 108261, Control_c, 0, 64, 45
1, 108283, Control_c, 0, 64, 50
1, 108285, Note_on_c, 0, 56, 54
1, 108298, Control_c, 0, 64, 52
1, 108313, Control_c, 0, 64, 55
1, 108329, Control_c, 0, 64, 60
1, 108344, Control_c, 0, 64, 63
1, 108358, Control_c, 0, 64, 66
1, 108373, Control_c, 0, 64, 68
1, 108384, Note_on_c, 0, 58, 57
1, 108385, Note_off_c, 0, 52, 36
1, 108387, Note_off_c, 0, 56, 59
1, 108388, Control_c, 0, 64, 70
1, 108403, Control_c, 0, 64, 71
1, 108405, Note_off_c, 0, 66, 31
1, 108432, Control_c, 0, 64, 70
1, 108447, Control_c, 0, 64, 68
1, 108462, Control_c, 0, 64, 64
1, 108468, Note_on_c, 0, 65, 75
1, 108473, Note_off_c, 0, 58, 62
1, 108476, Control_c, 0, 64, 57
1, 108491, Control_c, 0, 64, 45
1, 108499, Note_on_c, 0, 59, 38
1, 108506, Control_c, 0, 64, 0
1, 108562, Note_on_c, 0, 58, 59
1, 108589, Note_off_c, 0, 59, 55
1, 108649, Note_off_c, 0, 58, 64
1, 108667, Note_on_c, 0, 56, 47
1, 108711, Note_off_c, 0, 56, 62
1, 108750, Note_on_c, 0, 58, 58
1, 108817, Note_off_c, 0, 58, 63
1, 108836, Note_on_c, 0, 56, 58
1, 108847, Control_c, 0, 64, 19
1, 108862, Control_c, 0, 64, 25
1, 108876, Control_c, 0, 64, 44
1, 108882, Note_off_c, 0, 56, 61
1, 108891, Control_c, 0, 64, 59
1, 108896, Note_on_c, 0, 58, 58
1, 108906, Control_c, 0, 64, 64
1, 108921, Control_c, 0, 64, 68
1, 108936, Control_c, 0, 64, 73
1, 108940, Note_off_c, 0, 50, 63
1, 108951, Control_c, 0, 64, 83
1, 108966, Control_c, 0, 64, 105
1, 108981, Control_c, 0, 64, 127
1, 109006, Note_on_c, 0, 50, 71
1, 109006, Note_on_c, 0, 59, 72
1, 109010, Control_c, 0, 64, 106
1, 109015, Note_off_c, 0, 58, 59
1, 109033, Control_c, 0, 64, 73
1, 109048, Control_c, 0, 64, 53
1, 109063, Control_c, 0, 64, 0
1, 109122, Note_on_c, 0, 51, 78
1, 109122, Control_c, 0, 64, 49
1, 109131, Note_on_c, 0, 58, 61
1, 109137, Control_c, 0, 64, 62
1, 109152, Control_c, 0, 64, 70
1, 109159, Note_off_c, 0, 50, 59
1, 109167, Control_c, 0, 64, 87
1, 109175, Note_off_c, 0, 65, 54
1, 109182, Control_c, 0, 64, 127
1, 109217, Note_on_c, 0, 56, 68
1, 109220, Note_on_c, 0, 53, 83
1, 109254, Note_off_c, 0, 51, 64
1, 109266, Note_off_c, 0, 53, 64
1, 109360, Control_c, 0, 64, 98
1, 109372, Note_on_c, 0, 53, 77
1, 109373, Note_on_c, 0, 63, 80
1, 109374, Control_c, 0, 64, 75
1, 109377, Note_off_c, 0, 56, 57
1, 109389, Control_c, 0, 64, 60
1, 109404, Control_c, 0, 64, 0
1, 109472, Note_off_c, 0, 59, 38
1, 109492, Note_off_c, 0, 58, 57
1, 109556, Note_on_c, 0, 56, 53
1, 109582, Control_c, 0, 64, 24
1, 109596, Control_c, 0, 64, 43
1, 109611, Control_c, 0, 64, 54
1, 109626, Control_c, 0, 64, 60
1, 109641, Control_c, 0, 64, 64
1, 109656, Control_c, 0, 64, 66
1, 109664, Note_on_c, 0, 58, 58
1, 109671, Control_c, 0, 64, 68
1, 109686, Control_c, 0, 64, 69
1, 109712, Note_off_c, 0, 63, 62
1, 109715, Control_c, 0, 64, 68
1, 109730, Control_c, 0, 64, 67
1, 109745, Control_c, 0, 64, 64
1, 109752, Note_off_c, 0, 56, 38
1, 109760, Control_c, 0, 64, 60
1, 109766, Note_on_c, 0, 62, 72
1, 109781, Control_c, 0, 64, 57
1, 109787, Note_on_c, 0, 59, 42
1, 109789, Note_off_c, 0, 58, 63
1, 109796, Control_c, 0, 64, 52
1, 109811, Control_c, 0, 64, 48
1, 109826, Control_c, 0, 64, 45
1, 109856, Control_c, 0, 64, 46
1, 109871, Control_c, 0, 64, 48
1, 109886, Control_c, 0, 64, 49
1, 109889, Note_on_c, 0, 58, 60
1, 109893, Note_off_c, 0, 59, 55
1, 109900, Control_c, 0, 64, 51
1, 109915, Control_c, 0, 64, 52
1, 109930, Control_c, 0, 64, 54
1, 109945, Control_c, 0, 64, 55
1, 109960, Control_c, 0, 64, 57
1, 109975, Note_off_c, 0, 58, 63
1, 109975, Control_c, 0, 64, 58
1, 109990, Control_c, 0, 64, 59
1, 109990, Control_c, 0, 67, 21
1, 109997, Note_on_c, 0, 56, 47
1, 110005, Control_c, 0, 64, 60
1, 110005, Control_c, 0, 67, 41
1, 110020, Control_c, 0, 64, 62
1, 110020, Control_c, 0, 67, 63
1, 110035, Control_c, 0, 64, 62
1, 110035, Control_c, 0, 67, 82
1, 110041, Note_off_c, 0, 56, 62
1, 110050, Control_c, 0, 64, 63
1, 110050, Control_c, 0, 67, 104
1, 110064, Control_c, 0, 64, 64
1, 110064, Control_c, 0, 67, 127
1, 110079, Control_c, 0, 64, 64
1, 110094, Control_c, 0, 64, 65
1, 110105, Note_on_c, 0, 58, 48
1, 110136, Note_off_c, 0, 58, 62
1, 110138, Control_c, 0, 64, 65
1, 110168, Control_c, 0, 64, 66
1, 110175, Note_on_c, 0, 56, 44
1, 110183, Control_c, 0, 64, 67
1, 110197, Control_c, 0, 64, 69
1, 110212, Control_c, 0, 64, 71
1, 110227, Control_c, 0, 64, 73
1, 110231, Note_off_c, 0, 56, 59
1, 110240, Note_on_c, 0, 58, 47
1, 110242, Control_c, 0, 64, 74
1, 110256, Control_c, 0, 64, 74
1, 110301, Control_c, 0, 64, 74
1, 110315, Control_c, 0, 64, 73
1, 110318, Note_on_c, 0, 41, 60
1, 110333, Note_off_c, 0, 58, 60
1, 110345, Control_c, 0, 64, 72
1, 110353, Note_off_c, 0, 62, 51
1, 110360, Control_c, 0, 64, 72
1, 110364, Note_on_c, 0, 59, 46
1, 110375, Control_c, 0, 64, 71
1, 110390, Control_c, 0, 64, 69
1, 110404, Control_c, 0, 64, 68
1, 110419, Control_c, 0, 64, 66
1, 110423, Note_off_c, 0, 59, 60
1, 110434, Control_c, 0, 64, 66
1, 110456, Note_on_c, 0, 58, 58
1, 110523, Note_off_c, 0, 58, 54
1, 110542, Note_on_c, 0, 56, 50
1, 110560, Control_c, 0, 64, 65
1, 110655, Note_off_c, 0, 56, 55
1, 110664, Control_c, 0, 64, 65
1, 110669, Note_on_c, 0, 65, 61
1, 110678, Note_on_c, 0, 42, 55
1, 110679, Control_c, 0, 64, 63
1, 110681, Note_off_c, 0, 53, 57
1, 110693, Control_c, 0, 64, 56
1, 110708, Control_c, 0, 64, 40
1, 110724, Control_c, 0, 64, 0
1, 110792, Note_off_c, 0, 41, 64
1, 110807, Note_on_c, 0, 54, 48
1, 110813, Control_c, 0, 64, 20
1, 110828, Control_c, 0, 64, 33
1, 110842, Control_c, 0, 64, 44
1, 110857, Control_c, 0, 64, 52
1, 110864, Note_on_c, 0, 58, 58
1, 110872, Control_c, 0, 64, 58
1, 110887, Control_c, 0, 64, 62
1, 110899, Note_off_c, 0, 54, 54
1, 110902, Control_c, 0, 64, 66
1, 110917, Control_c, 0, 64, 69
1, 110928, Note_off_c, 0, 65, 61
1, 110932, Control_c, 0, 64, 75
1, 110946, Control_c, 0, 64, 84
1, 110961, Control_c, 0, 64, 95
1, 110976, Note_on_c, 0, 63, 65
1, 110976, Control_c, 0, 64, 123
1, 110991, Control_c, 0, 64, 127
1, 111023, Note_off_c, 0, 58, 58
1, 111041, Note_off_c, 0, 42, 63
1, 111068, Note_on_c, 0, 54, 53
1, 111122, Poly_aftertouch_c, 0, 61, 127
1, 111155, Note_on_c, 0, 58, 58
1, 111218, Note_off_c, 0, 54, 59
1, 111234, Note_on_c, 0, 66, 72
1, 111240, Note_on_c, 0, 38, 71
1, 111279, Control_c, 0, 64, 88
1, 111284, Note_off_c, 0, 58, 61
1, 111294, Control_c, 0, 64, 70
1, 111309, Control_c, 0, 64, 55
1, 111309, Control_c, 0, 67, 126
1, 111324, Control_c, 0, 64, 33
1, 111324, Control_c, 0, 67, 109
1, 111339, Control_c, 0, 64, 45
1, 111339, Control_c, 0, 67, 85
1, 111353, Control_c, 0, 64, 56
1, 111353, Control_c, 0, 67, 63
1, 111368, Control_c, 0, 64, 63
1, 111368, Control_c, 0, 67, 40
1, 111370, Note_on_c, 0, 56, 51
1, 111383, Control_c, 0, 64, 71
1, 111383, Control_c, 0, 67, 18
1, 111398, Control_c, 0, 64, 87
1, 111398, Control_c, 0, 67, 0
1, 111413, Control_c, 0, 64, 127
1, 111431, Note_off_c, 0, 66, 63
1, 111433, Note_on_c, 0, 59, 55
1, 111490, Note_off_c, 0, 56, 63
1, 111505, Note_off_c, 0, 63, 41
1, 111534, Note_on_c, 0, 65, 79
1, 111566, Poly_aftertouch_c, 0, 61, 0
1, 111576, Note_off_c, 0, 59, 62
1, 111624, Note_on_c, 0, 56, 62
1, 111679, Note_on_c, 0, 59, 53
1, 111679, Note_off_c, 0, 65, 61
1, 111689, Note_off_c, 0, 56, 50
1, 111733, Note_off_c, 0, 59, 61
1, 111813, Note_on_c, 0, 39, 71
1, 111841, Note_on_c, 0, 68, 78
1, 111873, Control_c, 0, 64, 102
1, 111888, Control_c, 0, 64, 75
1, 111902, Control_c, 0, 64, 59
1, 111907, Note_off_c, 0, 38, 63
1, 111917, Control_c, 0, 64, 0
1, 111962, Note_on_c, 0, 58, 57
1, 111990, Control_c, 0, 64, 35
1, 112005, Control_c, 0, 64, 49
1, 112028, Control_c, 0, 64, 58
1, 112035, Note_off_c, 0, 58, 58
1, 112043, Control_c, 0, 64, 64
1, 112051, Note_on_c, 0, 63, 58
1, 112057, Control_c, 0, 64, 68
1, 112072, Control_c, 0, 64, 77
1, 112087, Control_c, 0, 64, 86
1, 112101, Control_c, 0, 64, 100
1, 112116, Control_c, 0, 64, 127
1, 112131, Note_on_c, 0, 66, 85
1, 112169, Note_off_c, 0, 63, 59
1, 112193, Note_off_c, 0, 68, 60
1, 112238, Note_on_c, 0, 58, 63
1, 112317, Note_on_c, 0, 63, 58
1, 112363, Note_off_c, 0, 66, 61
1, 112413, Note_on_c, 0, 32, 74
1, 112414, Note_off_c, 0, 58, 57
1, 112434, Note_on_c, 0, 65, 70
1, 112443, Control_c, 0, 64, 112
1, 112458, Control_c, 0, 64, 79
1, 112464, Note_off_c, 0, 63, 62
1, 112473, Control_c, 0, 64, 63
1, 112488, Control_c, 0, 64, 34
1, 112503, Control_c, 0, 64, 15
1, 112517, Control_c, 0, 64, 34
1, 112532, Control_c, 0, 64, 52
1, 112537, Note_on_c, 0, 56, 51
1, 112547, Control_c, 0, 64, 60
1, 112561, Note_off_c, 0, 39, 49
1, 112562, Control_c, 0, 64, 65
1, 112577, Control_c, 0, 64, 72
1, 112591, Control_c, 0, 64, 86
1, 112595, Note_off_c, 0, 65, 61
1, 112606, Control_c, 0, 64, 127
1, 112628, Note_on_c, 0, 59, 61
1, 112635, Note_off_c, 0, 56, 61
1, 112670, Note_off_c, 0, 59, 62
1, 112735, Note_on_c, 0, 68, 83
1, 112827, Note_on_c, 0, 56, 57
1, 112846, Note_off_c, 0, 68, 60
1, 112940, Note_on_c, 0, 59, 63
1, 113058, Note_off_c, 0, 56, 31
1, 113099, Note_on_c, 0, 34, 61
1, 113104, Note_on_c, 0, 63, 79
1, 113147, Note_off_c, 0, 59, 63
1, 113163, Control_c, 0, 64, 114
1, 113178, Control_c, 0, 64, 104
1, 113193, Control_c, 0, 64, 95
1, 113208, Control_c, 0, 64, 87
1, 113212, Note_off_c, 0, 32, 55
1, 113222, Control_c, 0, 64, 79
1, 113237, Control_c, 0, 64, 73
1, 113252, Control_c, 0, 64, 67
1, 113266, Control_c, 0, 64, 62
1, 113281, Control_c, 0, 64, 58
1, 113293, Note_on_c, 0, 51, 52
1, 113296, Control_c, 0, 64, 55
1, 113311, Control_c, 0, 64, 53
1, 113326, Control_c, 0, 64, 52
1, 113340, Control_c, 0, 64, 51
1, 113355, Control_c, 0, 64, 50
1, 113370, Control_c, 0, 64, 49
1, 113377, Note_on_c, 0, 54, 62
1, 113385, Control_c, 0, 64, 48
1, 113415, Control_c, 0, 64, 48
1, 113421, Note_off_c, 0, 51, 40
1, 113474, Note_off_c, 0, 54, 61
1, 113497, Note_on_c, 0, 58, 51
1, 113555, Control_c, 0, 64, 48
1, 113570, Control_c, 0, 64, 49
1, 113585, Control_c, 0, 64, 50
1, 113600, Control_c, 0, 64, 50
1, 113615, Control_c, 0, 64, 51
1, 113617, Note_on_c, 0, 54, 58
1, 113630, Control_c, 0, 64, 52
1, 113645, Control_c, 0, 64, 54
1, 113659, Control_c, 0, 64, 55
1, 113674, Control_c, 0, 64, 56
1, 113677, Note_off_c, 0, 58, 55
1, 113704, Control_c, 0, 64, 56
1, 113707, Note_off_c, 0, 54, 62
1, 113719, Control_c, 0, 64, 57
1, 113725, Note_on_c, 0, 51, 52
1, 113734, Control_c, 0, 64, 58
1, 113748, Control_c, 0, 64, 58
1, 113778, Note_off_c, 0, 51, 59
1, 113778, Control_c, 0, 64, 59
1, 113793, Control_c, 0, 64, 59
1, 113808, Control_c, 0, 64, 60
1, 113832, Note_on_c, 0, 54, 53
1, 113837, Control_c, 0, 64, 61
1, 113916, Note_off_c, 0, 54, 63
1, 113922, Note_on_c, 0, 33, 53
1, 113927, Poly_aftertouch_c, 0, 61, 127
1, 113941, Note_off_c, 0, 34, 58
1, 113942, Control_c, 0, 64, 61
1, 113957, Note_on_c, 0, 51, 40
1, 113961, Poly_aftertouch_c, 0, 59, 127
1, 113990, Note_off_c, 0, 51, 55
1, 114041, Note_on_c, 0, 54, 43
1, 114051, Note_on_c, 0, 34, 65
1, 114065, Note_off_c, 0, 33, 58
1, 114093, Note_off_c, 0, 54, 59
1, 114127, Note_on_c, 0, 58, 53
1, 114151, Note_on_c, 0, 35, 60
1, 114193, Control_c, 0, 64, 62
1, 114201, Note_off_c, 0, 34, 37
1, 114222, Note_on_c, 0, 54, 56
1, 114236, Note_on_c, 0, 34, 60
1, 114237, Poly_aftertouch_c, 0, 59, 0
1, 114238, Control_c, 0, 64, 62
1, 114258, Note_off_c, 0, 35, 59
1, 114288, Note_on_c, 0, 51, 62
1, 114298, Note_off_c, 0, 63, 56
1, 114337, Note_on_c, 0, 33, 70
1, 114349, Control_c, 0, 64, 62
1, 114360, Poly_aftertouch_c, 0, 61, 0
1, 114360, Note_off_c, 0, 34, 58
1, 114381, Note_off_c, 0, 51, 64
1, 114420, Note_on_c, 0, 62, 77
1, 114423, Control_c, 0, 64, 61
1, 114434, Note_on_c, 0, 34, 71
1, 114447, Note_off_c, 0, 33, 63
1, 114452, Control_c, 0, 64, 61
1, 114461, Note_off_c, 0, 58, 62
1, 114467, Control_c, 0, 64, 60
1, 114482, Control_c, 0, 64, 56
1, 114488, Note_off_c, 0, 54, 50
1, 114497, Control_c, 0, 64, 50
1, 114512, Control_c, 0, 64, 41
1, 114527, Control_c, 0, 64, 27
1, 114542, Control_c, 0, 64, 13
1, 114557, Control_c, 0, 64, 12
1, 114560, Note_on_c, 0, 50, 45
1, 114601, Control_c, 0, 64, 16
1, 114616, Control_c, 0, 64, 21
1, 114619, Note_off_c, 0, 50, 61
1, 114631, Control_c, 0, 64, 26
1, 114641, Note_on_c, 0, 53, 51
1, 114645, Control_c, 0, 64, 31
1, 114660, Control_c, 0, 64, 36
1, 114675, Control_c, 0, 64, 41
1, 114689, Control_c, 0, 64, 45
1, 114691, Note_off_c, 0, 62, 38
1, 114698, Note_off_c, 0, 53, 61
1, 114704, Control_c, 0, 64, 48
1, 114710, Note_on_c, 0, 58, 60
1, 114720, Control_c, 0, 64, 52
1, 114735, Control_c, 0, 64, 55
1, 114750, Control_c, 0, 64, 58
1, 114765, Control_c, 0, 64, 62
1, 114780, Control_c, 0, 64, 64
1, 114794, Control_c, 0, 64, 66
1, 114795, Note_on_c, 0, 53, 59
1, 114797, Note_off_c, 0, 58, 58
1, 114809, Control_c, 0, 64, 70
1, 114824, Control_c, 0, 64, 75
1, 114839, Control_c, 0, 64, 82
1, 114840, Note_off_c, 0, 53, 63
1, 114854, Control_c, 0, 64, 94
1, 114868, Control_c, 0, 64, 110
1, 114872, Note_on_c, 0, 50, 57
1, 114883, Control_c, 0, 64, 127
1, 114908, Note_off_c, 0, 50, 63
1, 114971, Note_on_c, 0, 65, 80
1, 115089, Note_on_c, 0, 58, 70
1, 115099, Note_off_c, 0, 34, 57
1, 115152, Note_off_c, 0, 65, 53
1, 115172, Note_on_c, 0, 62, 60
1, 115174, Note_off_c, 0, 58, 62
1, 115203, Note_off_c, 0, 62, 65
1, 115289, Note_on_c, 0, 34, 69
1, 115291, Note_on_c, 0, 46, 62
1, 115299, Note_on_c, 0, 70, 91
1, 115426, Note_on_c, 0, 62, 71
1, 115555, Note_on_c, 0, 65, 83
1, 115593, Note_off_c, 0, 70, 60
1, 115594, Note_off_c, 0, 46, 60
1, 115643, Note_off_c, 0, 34, 34
1, 115729, Poly_aftertouch_c, 0, 38, 127
1, 115743, Note_on_c, 0, 32, 62
1, 115748, Note_on_c, 0, 44, 59
1, 115767, Note_on_c, 0, 71, 95
1, 115792, Poly_aftertouch_c, 0, 38, 0
1, 115801, Note_off_c, 0, 65, 64
1, 115838, Note_off_c, 0, 62, 60
1, 115845, Control_c, 0, 64, 97
1, 115860, Control_c, 0, 64, 75
1, 115874, Control_c, 0, 64, 61
1, 115889, Control_c, 0, 64, 0
1, 115988, Note_on_c, 0, 59, 53
1, 116008, Control_c, 0, 64, 30
1, 116023, Control_c, 0, 64, 44
1, 116038, Control_c, 0, 64, 51
1, 116053, Control_c, 0, 64, 57
1, 116067, Control_c, 0, 64, 62
1, 116082, Control_c, 0, 64, 65
1, 116095, Note_on_c, 0, 62, 42
1, 116097, Control_c, 0, 64, 70
1, 116112, Control_c, 0, 64, 79
1, 116127, Control_c, 0, 64, 95
1, 116141, Control_c, 0, 64, 127
1, 116172, Note_off_c, 0, 62, 53
1, 116208, Note_on_c, 0, 65, 43
1, 116225, Note_off_c, 0, 59, 58
1, 116323, Note_on_c, 0, 62, 45
1, 116381, Note_off_c, 0, 62, 60
1, 116387, Note_off_c, 0, 65, 42
1, 116437, Note_on_c, 0, 59, 41
1, 116484, Note_off_c, 0, 59, 58
1, 116516, Note_on_c, 0, 62, 51
1, 116555, Note_off_c, 0, 32, 53
1, 116597, Note_off_c, 0, 62, 59
1, 116620, Note_on_c, 0, 59, 55
1, 116651, Note_off_c, 0, 44, 62
1, 116701, Note_off_c, 0, 59, 56
1, 116727, Note_on_c, 0, 62, 58
1, 116782, Note_on_c, 0, 44, 75
1, 116808, Note_off_c, 0, 62, 59
1, 116810, Note_on_c, 0, 65, 66
1, 116836, Poly_aftertouch_c, 0, 67, 127
1, 116893, Note_on_c, 0, 46, 81
1, 116903, Note_on_c, 0, 62, 68
1, 116903, Note_off_c, 0, 71, 60
1, 116911, Note_off_c, 0, 44, 56
1, 116950, Note_off_c, 0, 46, 62
1, 116962, Poly_aftertouch_c, 0, 67, 0
1, 116989, Note_on_c, 0, 59, 78
1, 117005, Note_on_c, 0, 47, 65
1, 117043, Note_off_c, 0, 47, 62
1, 117108, Note_on_c, 0, 70, 92
1, 117113, Note_on_c, 0, 35, 70
1, 117119, Note_on_c, 0, 47, 70
1, 117144, Control_c, 0, 64, 105
1, 117147, Note_off_c, 0, 59, 61
1, 117148, Note_off_c, 0, 65, 35
1, 117159, Control_c, 0, 64, 76
1, 117174, Control_c, 0, 64, 61
1, 117188, Control_c, 0, 64, 18
1, 117203, Control_c, 0, 64, 0
1, 117218, Control_c, 0, 64, 33
1, 117233, Control_c, 0, 64, 48
1, 117248, Control_c, 0, 64, 58
1, 117269, Control_c, 0, 64, 65
1, 117284, Control_c, 0, 64, 74
1, 117299, Control_c, 0, 64, 95
1, 117314, Control_c, 0, 64, 127
1, 117320, Note_off_c, 0, 62, 59
1, 117354, Note_on_c, 0, 56, 56
1, 117377, Note_off_c, 0, 70, 55
1, 117450, Note_on_c, 0, 62, 52
1, 117493, Note_on_c, 0, 68, 80
1, 117510, Note_off_c, 0, 56, 37
1, 117522, Note_off_c, 0, 62, 60
1, 117526, Note_on_c, 0, 65, 55
1, 117551, Control_c, 0, 64, 84
1, 117566, Control_c, 0, 64, 64
1, 117581, Control_c, 0, 64, 35
1, 117595, Control_c, 0, 64, 0
1, 117609, Note_off_c, 0, 65, 57
1, 117619, Note_on_c, 0, 62, 46
1, 117625, Control_c, 0, 64, 34
1, 117640, Control_c, 0, 64, 52
1, 117655, Control_c, 0, 64, 63
1, 117669, Control_c, 0, 64, 71
1, 117674, Note_off_c, 0, 62, 61
1, 117684, Control_c, 0, 64, 89
1, 117699, Control_c, 0, 64, 127
1, 117704, Note_on_c, 0, 56, 49
1, 117765, Note_off_c, 0, 56, 59
1, 117770, Note_off_c, 0, 35, 57
1, 117800, Note_on_c, 0, 62, 62
1, 117874, Note_off_c, 0, 47, 61
1, 117874, Note_off_c, 0, 62, 58
1, 117877, Note_on_c, 0, 56, 65
1, 117944, Note_on_c, 0, 66, 16
1, 117945, Note_off_c, 0, 56, 63
1, 117958, Note_on_c, 0, 62, 60
1, 118032, Poly_aftertouch_c, 0, 64, 0
1, 118060, Note_on_c, 0, 65, 73
1, 118060, Note_off_c, 0, 62, 60
1, 118068, Note_on_c, 0, 47, 74
1, 118171, Note_on_c, 0, 62, 78
1, 118184, Note_on_c, 0, 49, 82
1, 118190, Note_off_c, 0, 68, 57
1, 118209, Note_off_c, 0, 47, 57
1, 118219, Note_off_c, 0, 66, 41
1, 118252, Note_off_c, 0, 65, 61
1, 118256, Note_off_c, 0, 49, 64
1, 118276, Note_on_c, 0, 56, 83
1, 118293, Note_on_c, 0, 50, 88
1, 118322, Note_on_c, 0, 59, 20
1, 118344, Note_off_c, 0, 50, 64
1, 118367, Note_off_c, 0, 59, 41
1, 118406, Note_on_c, 0, 50, 79
1, 118407, Note_on_c, 0, 66, 85
1, 118409, Note_on_c, 0, 38, 76
1, 118441, Note_off_c, 0, 62, 61
1, 118448, Control_c, 0, 64, 88
1, 118452, Note_off_c, 0, 56, 59
1, 118462, Control_c, 0, 64, 66
1, 118477, Control_c, 0, 64, 33
1, 118492, Control_c, 0, 64, 0
1, 118536, Control_c, 0, 64, 24
1, 118551, Control_c, 0, 64, 49
1, 118552, Note_on_c, 0, 56, 65
1, 118566, Control_c, 0, 64, 61
1, 118581, Control_c, 0, 64, 71
1, 118596, Control_c, 0, 64, 89
1, 118611, Control_c, 0, 64, 127
1, 118624, Note_off_c, 0, 66, 58
1, 118652, Note_on_c, 0, 58, 71
1, 118687, Note_off_c, 0, 56, 52
1, 118734, Note_on_c, 0, 65, 84
1, 118745, Note_on_c, 0, 59, 60
1, 118769, Note_off_c, 0, 58, 60
1, 118781, Control_c, 0, 64, 85
1, 118796, Control_c, 0, 64, 64
1, 118811, Control_c, 0, 64, 0
1, 118854, Note_on_c, 0, 58, 65
1, 118885, Control_c, 0, 64, 23
1, 118893, Note_off_c, 0, 59, 61
1, 118900, Control_c, 0, 64, 50
1, 118915, Control_c, 0, 64, 63
1, 118930, Control_c, 0, 64, 70
1, 118936, Note_off_c, 0, 58, 64
1, 118945, Control_c, 0, 64, 83
1, 118959, Note_on_c, 0, 56, 66
1, 118959, Control_c, 0, 64, 127
1, 119009, Note_off_c, 0, 56, 59
1, 119022, Note_off_c, 0, 38, 59
1, 119031, Note_on_c, 0, 58, 72
1, 119106, Note_off_c, 0, 50, 63
1, 119116, Note_off_c, 0, 58, 63
1, 119121, Note_on_c, 0, 56, 75
1, 119186, Note_off_c, 0, 56, 63
1, 119189, Note_on_c, 0, 58, 65
1, 119296, Note_on_c, 0, 50, 76
1, 119299, Note_on_c, 0, 59, 82
1, 119344, Control_c, 0, 64, 82
1, 119359, Control_c, 0, 64, 63
1, 119374, Control_c, 0, 64, 0
1, 119396, Note_off_c, 0, 58, 0
1, 119410, Note_on_c, 0, 58, 59
1, 119413, Note_on_c, 0, 51, 82
1, 119419, Control_c, 0, 64, 23
1, 119433, Control_c, 0, 64, 56
1, 119448, Control_c, 0, 64, 68
1, 119457, Note_off_c, 0, 50, 61
1, 119463, Control_c, 0, 64, 85
1, 119477, Control_c, 0, 64, 127
1, 119532, Note_on_c, 0, 53, 76
1, 119534, Note_off_c, 0, 51, 63
1, 119535, Note_on_c, 0, 56, 90
1, 119570, Note_off_c, 0, 65, 49
1, 119579, Note_off_c, 0, 53, 60
1, 119693, Note_on_c, 0, 53, 55
1, 119696, Note_on_c, 0, 41, 62
1, 119708, Control_c, 0, 64, 90
1, 119709, Note_on_c, 0, 63, 87
1, 119723, Control_c, 0, 64, 68
1, 119730, Note_off_c, 0, 56, 56
1, 119738, Control_c, 0, 64, 39
1, 119742, Note_off_c, 0, 59, 57
1, 119752, Control_c, 0, 64, 0
1, 119848, Poly_aftertouch_c, 0, 61, 127
1, 119860, Note_off_c, 0, 58, 34
1, 119911, Note_on_c, 0, 56, 59
1, 119945, Control_c, 0, 64, 35
1, 119960, Control_c, 0, 64, 54
1, 119974, Control_c, 0, 64, 63
1, 119989, Control_c, 0, 64, 66
1, 120004, Control_c, 0, 64, 69
1, 120019, Control_c, 0, 64, 72
1, 120031, Note_on_c, 0, 58, 62
1, 120034, Control_c, 0, 64, 77
1, 120049, Control_c, 0, 64, 83
1, 120063, Control_c, 0, 64, 89
1, 120066, Note_off_c, 0, 63, 61
1, 120068, Poly_aftertouch_c, 0, 61, 0
1, 120078, Control_c, 0, 64, 91
1, 120093, Control_c, 0, 64, 90
1, 120137, Control_c, 0, 64, 90
1, 120145, Note_on_c, 0, 62, 69
1, 120149, Note_on_c, 0, 59, 15
1, 120152, Control_c, 0, 64, 87
1, 120167, Note_off_c, 0, 58, 59
1, 120167, Control_c, 0, 64, 79
1, 120175, Note_off_c, 0, 56, 51
1, 120182, Control_c, 0, 64, 69
1, 120197, Control_c, 0, 64, 59
1, 120211, Poly_aftertouch_c, 0, 57, 0
1, 120212, Control_c, 0, 64, 39
1, 120227, Control_c, 0, 64, 27
1, 120242, Control_c, 0, 64, 29
1, 120264, Control_c, 0, 64, 41
1, 120266, Note_on_c, 0, 58, 58
1, 120279, Control_c, 0, 64, 52
1, 120294, Control_c, 0, 64, 59
1, 120294, Control_c, 0, 67, 18
1, 120306, Note_off_c, 0, 59, 48
1, 120310, Control_c, 0, 64, 62
1, 120310, Control_c, 0, 67, 42
1, 120325, Control_c, 0, 64, 65
1, 120325, Control_c, 0, 67, 66
1, 120336, Note_off_c, 0, 58, 62
1, 120339, Control_c, 0, 64, 67
1, 120339, Control_c, 0, 67, 90
1, 120352, Note_on_c, 0, 56, 55
1, 120354, Control_c, 0, 64, 71
1, 120354, Control_c, 0, 67, 114
1, 120369, Control_c, 0, 64, 74
1, 120369, Control_c, 0, 67, 127
1, 120384, Control_c, 0, 64, 77
1, 120395, Note_off_c, 0, 56, 58
1, 120399, Control_c, 0, 64, 79
1, 120413, Control_c, 0, 64, 80
1, 120428, Control_c, 0, 64, 81
1, 120443, Control_c, 0, 64, 81
1, 120458, Control_c, 0, 64, 83
1, 120473, Control_c, 0, 64, 85
1, 120474, Note_on_c, 0, 58, 25
1, 120483, Note_off_c, 0, 41, 32
1, 120487, Control_c, 0, 64, 88
1, 120502, Control_c, 0, 64, 92
1, 120510, Note_off_c, 0, 58, 42
1, 120517, Control_c, 0, 64, 96
1, 120523, Note_on_c, 0, 56, 49
1, 120531, Control_c, 0, 64, 103
1, 120546, Control_c, 0, 64, 127
1, 120590, Note_off_c, 0, 56, 57
1, 120607, Note_on_c, 0, 58, 54
1, 120690, Note_on_c, 0, 41, 60
1, 120704, Note_off_c, 0, 58, 58
1, 120736, Note_on_c, 0, 59, 48
1, 120787, Note_off_c, 0, 62, 51
1, 120826, Note_off_c, 0, 59, 59
1, 120839, Note_on_c, 0, 58, 58
1, 120921, Note_off_c, 0, 58, 61
1, 120927, Note_on_c, 0, 56, 49
1, 121013, Control_c, 0, 64, 118
1, 121028, Control_c, 0, 64, 105
1, 121043, Control_c, 0, 64, 95
1, 121057, Control_c, 0, 64, 86
1, 121072, Control_c, 0, 64, 78
1, 121087, Control_c, 0, 64, 71
1, 121088, Note_on_c, 0, 42, 50
1, 121102, Control_c, 0, 64, 62
1, 121118, Control_c, 0, 64, 46
1, 121126, Note_on_c, 0, 65, 63
1, 121127, Note_off_c, 0, 56, 57
1, 121133, Control_c, 0, 64, 0
1, 121161, Note_off_c, 0, 53, 60
1, 121186, Note_off_c, 0, 41, 57
1, 121296, Note_on_c, 0, 54, 20
1, 121310, Control_c, 0, 64, 18
1, 121325, Control_c, 0, 64, 39
1, 121340, Control_c, 0, 64, 54
1, 121346, Note_on_c, 0, 58, 53
1, 121352, Note_off_c, 0, 54, 47
1, 121354, Control_c, 0, 64, 61
1, 121369, Control_c, 0, 64, 65
1, 121384, Control_c, 0, 64, 69
1, 121399, Control_c, 0, 64, 74
1, 121414, Control_c, 0, 64, 81
1, 121428, Control_c, 0, 64, 90
1, 121443, Control_c, 0, 64, 101
1, 121446, Note_on_c, 0, 63, 60
1, 121458, Control_c, 0, 64, 123
1, 121472, Note_off_c, 0, 58, 54
1, 121473, Control_c, 0, 64, 127
1, 121483, Note_off_c, 0, 42, 63
1, 121515, Note_off_c, 0, 65, 58
1, 121525, Note_on_c, 0, 54, 50
1, 121613, Note_on_c, 0, 58, 55
1, 121656, Note_off_c, 0, 54, 37
1, 121722, Note_on_c, 0, 66, 66
1, 121738, Note_on_c, 0, 38, 49
1, 121762, Control_c, 0, 64, 94
1, 121776, Note_off_c, 0, 58, 60
1, 121776, Control_c, 0, 64, 75
1, 121783, Note_off_c, 0, 38, 62
1, 121791, Control_c, 0, 64, 62
1, 121806, Control_c, 0, 64, 43
1, 121809, Note_on_c, 0, 39, 53
1, 121821, Control_c, 0, 64, 43
1, 121827, Note_on_c, 0, 56, 49
1, 121836, Control_c, 0, 64, 53
1, 121850, Note_off_c, 0, 63, 0
1, 121851, Control_c, 0, 64, 60
1, 121852, Note_off_c, 0, 39, 62
1, 121866, Control_c, 0, 64, 66
1, 121875, Note_on_c, 0, 38, 50
1, 121880, Control_c, 0, 64, 76
1, 121887, Poly_aftertouch_c, 0, 63, 127
1, 121895, Control_c, 0, 64, 104
1, 121905, Note_on_c, 0, 59, 46
1, 121911, Control_c, 0, 64, 127
1, 121936, Note_off_c, 0, 66, 62
1, 121937, Note_on_c, 0, 39, 50
1, 121941, Note_off_c, 0, 38, 0
1, 121941, Note_off_c, 0, 56, 52
1, 121951, Note_on_c, 0, 38, 54
1, 121969, Poly_aftertouch_c, 0, 63, 0
1, 121970, Note_off_c, 0, 39, 55
1, 121970, Control_c, 0, 67, 115
1, 121985, Control_c, 0, 67, 83
1, 122000, Control_c, 0, 67, 45
1, 122006, Note_off_c, 0, 38, 61
1, 122012, Note_on_c, 0, 65, 72
1, 122015, Control_c, 0, 67, 8
1, 122027, Note_on_c, 0, 39, 58
1, 122030, Control_c, 0, 67, 0
1, 122051, Note_off_c, 0, 59, 63
1, 122057, Note_on_c, 0, 56, 70
1, 122075, Note_on_c, 0, 38, 43
1, 122116, Note_off_c, 0, 39, 32
1, 122128, Note_off_c, 0, 38, 60
1, 122130, Note_on_c, 0, 59, 59
1, 122149, Note_off_c, 0, 56, 62
1, 122149, Note_on_c, 0, 36, 60
1, 122152, Note_off_c, 0, 65, 58
1, 122190, Note_off_c, 0, 59, 64
1, 122250, Note_on_c, 0, 38, 60
1, 122292, Note_on_c, 0, 68, 83
1, 122295, Note_off_c, 0, 36, 36
1, 122313, Note_on_c, 0, 39, 45
1, 122340, Control_c, 0, 64, 87
1, 122352, Note_off_c, 0, 38, 61
1, 122355, Control_c, 0, 64, 68
1, 122370, Control_c, 0, 64, 48
1, 122385, Control_c, 0, 64, 0
1, 122414, Note_on_c, 0, 58, 58
1, 122458, Control_c, 0, 64, 32
1, 122473, Control_c, 0, 64, 49
1, 122488, Control_c, 0, 64, 61
1, 122501, Note_on_c, 0, 63, 63
1, 122510, Control_c, 0, 64, 68
1, 122525, Control_c, 0, 64, 79
1, 122534, Note_off_c, 0, 58, 47
1, 122540, Control_c, 0, 64, 110
1, 122554, Control_c, 0, 64, 127
1, 122588, Note_on_c, 0, 66, 83
1, 122646, Note_off_c, 0, 63, 58
1, 122650, Note_off_c, 0, 68, 60
1, 122703, Note_on_c, 0, 58, 64
1, 122808, Note_on_c, 0, 63, 59
1, 122828, Note_off_c, 0, 66, 61
1, 122912, Note_on_c, 0, 32, 47
1, 122924, Note_off_c, 0, 58, 60
1, 122948, Note_on_c, 0, 64, 76
1, 122955, Control_c, 0, 64, 94
1, 122970, Control_c, 0, 64, 69
1, 122985, Control_c, 0, 64, 47
1, 122999, Note_off_c, 0, 63, 41
1, 122999, Control_c, 0, 64, 0
1, 123044, Control_c, 0, 64, 20
1, 123047, Note_off_c, 0, 39, 60
1, 123059, Control_c, 0, 64, 53
1, 123061, Note_on_c, 0, 56, 57
1, 123073, Control_c, 0, 64, 63
1, 123088, Control_c, 0, 64, 69
1, 123103, Control_c, 0, 64, 77
1, 123104, Note_off_c, 0, 56, 62
1, 123118, Control_c, 0, 64, 91
1, 123133, Control_c, 0, 64, 127
1, 123142, Note_on_c, 0, 59, 59
1, 123171, Note_off_c, 0, 64, 62
1, 123172, Note_off_c, 0, 59, 65
1, 123288, Note_on_c, 0, 71, 64
1, 123291, Note_on_c, 0, 72, 55
1, 123321, Note_off_c, 0, 72, 64
1, 123374, Note_on_c, 0, 59, 55
1, 123472, Note_off_c, 0, 71, 61
1, 123479, Note_off_c, 0, 59, 62
1, 123484, Note_on_c, 0, 64, 56
1, 123546, Note_off_c, 0, 64, 61
1, 123672, Note_on_c, 0, 34, 48
1, 123704, Note_on_c, 0, 63, 68
1, 123734, Control_c, 0, 64, 116
1, 123748, Control_c, 0, 64, 94
1, 123763, Control_c, 0, 64, 80
1, 123778, Control_c, 0, 64, 70
1, 123793, Control_c, 0, 64, 60
1, 123808, Control_c, 0, 64, 47
1, 123808, Control_c, 0, 67, 10
1, 123822, Control_c, 0, 64, 37
1, 123822, Control_c, 0, 67, 33
1, 123837, Control_c, 0, 64, 34
1, 123837, Control_c, 0, 67, 55
1, 123852, Control_c, 0, 64, 28
1, 123852, Control_c, 0, 67, 78
1, 123867, Control_c, 0, 64, 18
1, 123867, Control_c, 0, 67, 102
1, 123877, Note_on_c, 0, 51, 47
1, 123882, Control_c, 0, 64, 0
1, 123882, Control_c, 0, 67, 126
1, 123893, Note_off_c, 0, 32, 51
1, 123896, Control_c, 0, 67, 127
1, 123979, Note_on_c, 0, 54, 53
1, 124098, Control_c, 0, 64, 22
1, 124103, Note_off_c, 0, 54, 62
1, 124110, Note_off_c, 0, 51, 36
1, 124112, Control_c, 0, 64, 34
1, 124119, Note_on_c, 0, 58, 47
1, 124127, Control_c, 0, 64, 43
1, 124142, Control_c, 0, 64, 49
1, 124156, Control_c, 0, 64, 52
1, 124171, Control_c, 0, 64, 53
1, 124186, Control_c, 0, 64, 54
1, 124201, Control_c, 0, 64, 54
1, 124257, Note_on_c, 0, 54, 54
1, 124292, Note_off_c, 0, 58, 56
1, 124338, Note_off_c, 0, 54, 62
1, 124355, Note_on_c, 0, 51, 49
1, 124379, Control_c, 0, 64, 54
1, 124403, Note_off_c, 0, 51, 57
1, 124453, Control_c, 0, 64, 53
1, 124488, Note_on_c, 0, 54, 41
1, 124498, Control_c, 0, 64, 53
1, 124525, Note_off_c, 0, 54, 61
1, 124528, Control_c, 0, 64, 52
1, 124546, Note_on_c, 0, 33, 43
1, 124556, Note_off_c, 0, 34, 55
1, 124558, Control_c, 0, 64, 52
1, 124559, Poly_aftertouch_c, 0, 61, 127
1, 124582, Note_on_c, 0, 51, 31
1, 124602, Control_c, 0, 64, 51
1, 124632, Note_off_c, 0, 51, 45
1, 124646, Control_c, 0, 64, 51
1, 124650, Note_on_c, 0, 54, 38
1, 124676, Control_c, 0, 64, 50
1, 124683, Note_on_c, 0, 34, 59
1, 124769, Note_off_c, 0, 33, 37
1, 124806, Note_off_c, 0, 54, 34
1, 124808, Note_on_c, 0, 58, 39
1, 124812, Note_on_c, 0, 35, 53
1, 124866, Note_on_c, 0, 51, 38
1, 124881, Note_off_c, 0, 34, 0
1, 124891, Control_c, 0, 64, 50
1, 124902, Note_on_c, 0, 34, 42
1, 124905, Control_c, 0, 64, 49
1, 124923, Note_on_c, 0, 54, 49
1, 124924, Note_off_c, 0, 35, 59
1, 124935, Control_c, 0, 64, 49
1, 124938, Note_off_c, 0, 63, 61
1, 124965, Control_c, 0, 64, 48
1, 125009, Control_c, 0, 64, 48
1, 125011, Poly_aftertouch_c, 0, 61, 0
1, 125017, Note_on_c, 0, 33, 58
1, 125022, Note_off_c, 0, 34, 59
1, 125024, Control_c, 0, 64, 47
1, 125026, Note_off_c, 0, 51, 47
1, 125039, Control_c, 0, 64, 47
1, 125068, Control_c, 0, 64, 46
1, 125083, Control_c, 0, 64, 46
1, 125111, Note_on_c, 0, 62, 55
1, 125114, Control_c, 0, 64, 45
1, 125126, Note_off_c, 0, 33, 59
1, 125129, Control_c, 0, 64, 45
1, 125136, Note_on_c, 0, 34, 45
1, 125144, Control_c, 0, 64, 44
1, 125151, Note_off_c, 0, 58, 58
1, 125158, Control_c, 0, 64, 43
1, 125173, Control_c, 0, 64, 43
1, 125188, Control_c, 0, 64, 42
1, 125202, Control_c, 0, 64, 42
1, 125217, Note_off_c, 0, 54, 35
1, 125232, Control_c, 0, 64, 41
1, 125266, Note_on_c, 0, 50, 35
1, 125363, Note_on_c, 0, 53, 37
1, 125366, Note_off_c, 0, 50, 38
1, 125443, Note_off_c, 0, 53, 58
1, 125479, Note_on_c, 0, 58, 30
1, 125604, Note_on_c, 0, 53, 31
1, 125616, Note_off_c, 0, 58, 37
1, 125670, Note_off_c, 0, 53, 54
1, 125698, Note_on_c, 0, 50, 30
1, 125728, Control_c, 0, 64, 41
1, 125788, Note_off_c, 0, 50, 38
1, 125801, Note_on_c, 0, 32, 38
1, 125820, Note_on_c, 0, 53, 41
1, 125884, Note_off_c, 0, 34, 44
1, 125905, Note_off_c, 0, 53, 56
1, 125940, Note_on_c, 0, 50, 34
1, 125952, Control_c, 0, 64, 42
1, 125967, Control_c, 0, 64, 44
1, 125981, Control_c, 0, 64, 45
1, 125996, Control_c, 0, 64, 47
1, 126011, Control_c, 0, 64, 50
1, 126025, Control_c, 0, 64, 52
1, 126040, Control_c, 0, 64, 54
1, 126042, Note_on_c, 0, 53, 43
1, 126055, Control_c, 0, 64, 56
1, 126057, Note_off_c, 0, 50, 36
1, 126070, Control_c, 0, 64, 58
1, 126085, Control_c, 0, 64, 60
1, 126099, Control_c, 0, 64, 62
1, 126114, Control_c, 0, 64, 64
1, 126129, Control_c, 0, 64, 65
1, 126140, Note_off_c, 0, 53, 57
1, 126144, Control_c, 0, 64, 67
1, 126159, Control_c, 0, 64, 69
1, 126172, Control_c, 0, 64, 71
1, 126187, Control_c, 0, 64, 75
1, 126191, Note_on_c, 0, 58, 47
1, 126202, Control_c, 0, 64, 78
1, 126216, Control_c, 0, 64, 81
1, 126231, Control_c, 0, 64, 83
1, 126254, Control_c, 0, 64, 85
1, 126269, Control_c, 0, 64, 86
1, 126284, Control_c, 0, 64, 86
1, 126295, Note_off_c, 0, 62, 38
1, 126298, Control_c, 0, 64, 87
1, 126343, Control_c, 0, 64, 87
1, 126360, Note_on_c, 0, 53, 45
1, 126412, Note_off_c, 0, 58, 35
1, 126417, Control_c, 0, 64, 88
1, 126446, Control_c, 0, 64, 89
1, 126461, Control_c, 0, 64, 90
1, 126468, Note_off_c, 0, 53, 60
1, 126476, Control_c, 0, 64, 91
1, 126477, Note_on_c, 0, 50, 39
1, 126491, Control_c, 0, 64, 92
1, 126505, Control_c, 0, 64, 94
1, 126512, Note_off_c, 0, 50, 62
1, 126520, Control_c, 0, 64, 96
1, 126535, Control_c, 0, 64, 98
1, 126549, Control_c, 0, 64, 99
1, 126564, Control_c, 0, 64, 99
1, 126579, Control_c, 0, 64, 100
1, 126590, Note_off_c, 0, 32, 33
1, 126683, Control_c, 0, 64, 99
1, 126699, Control_c, 0, 64, 99
1, 126714, Control_c, 0, 64, 98
1, 126728, Control_c, 0, 64, 97
1, 126743, Control_c, 0, 64, 97
1, 126758, Control_c, 0, 64, 96
1, 126772, Control_c, 0, 64, 94
1, 126787, Control_c, 0, 64, 93
1, 126802, Note_on_c, 0, 70, 61
1, 126802, Control_c, 0, 64, 91
1, 126805, Note_on_c, 0, 31, 43
1, 126817, Control_c, 0, 64, 90
1, 126832, Control_c, 0, 64, 89
1, 126834, Note_on_c, 0, 43, 22
1, 126847, Control_c, 0, 64, 87
1, 126862, Control_c, 0, 64, 84
1, 126877, Control_c, 0, 64, 81
1, 126892, Control_c, 0, 64, 78
1, 126907, Control_c, 0, 64, 75
1, 126921, Control_c, 0, 64, 72
1, 126936, Control_c, 0, 64, 69
1, 126951, Control_c, 0, 64, 66
1, 126965, Control_c, 0, 64, 64
1, 126980, Control_c, 0, 64, 60
1, 127002, Control_c, 0, 64, 55
1, 127017, Control_c, 0, 64, 48
1, 127032, Control_c, 0, 64, 37
1, 127047, Control_c, 0, 64, 25
1, 127055, Note_on_c, 0, 58, 39
1, 127062, Control_c, 0, 64, 17
1, 127076, Control_c, 0, 64, 13
1, 127091, Control_c, 0, 64, 12
1, 127106, Control_c, 0, 64, 11
1, 127164, Note_on_c, 0, 63, 43
1, 127165, Control_c, 0, 64, 16
1, 127180, Control_c, 0, 64, 25
1, 127195, Control_c, 0, 64, 34
1, 127210, Control_c, 0, 64, 42
1, 127223, Note_off_c, 0, 58, 36
1, 127225, Control_c, 0, 64, 48
1, 127226, Note_off_c, 0, 63, 56
1, 127240, Control_c, 0, 64, 53
1, 127254, Control_c, 0, 64, 58
1, 127269, Control_c, 0, 64, 62
1, 127282, Note_on_c, 0, 67, 36
1, 127284, Control_c, 0, 64, 64
1, 127299, Control_c, 0, 64, 65
1, 127314, Control_c, 0, 64, 67
1, 127328, Control_c, 0, 64, 69
1, 127343, Control_c, 0, 64, 72
1, 127358, Control_c, 0, 64, 74
1, 127366, Note_on_c, 0, 63, 46
1, 127372, Control_c, 0, 64, 76
1, 127373, Note_off_c, 0, 67, 52
1, 127387, Control_c, 0, 64, 78
1, 127402, Control_c, 0, 64, 79
1, 127410, Note_off_c, 0, 63, 61
1, 127417, Control_c, 0, 64, 80
1, 127432, Control_c, 0, 64, 81
1, 127439, Note_on_c, 0, 58, 48
1, 127446, Control_c, 0, 64, 81
1, 127461, Control_c, 0, 64, 82
1, 127488, Note_off_c, 0, 58, 58
1, 127491, Control_c, 0, 64, 82
1, 127522, Control_c, 0, 64, 83
1, 127528, Note_on_c, 0, 63, 45
1, 127537, Control_c, 0, 64, 83
1, 127551, Control_c, 0, 64, 84
1, 127566, Control_c, 0, 64, 85
1, 127571, Note_off_c, 0, 63, 61
1, 127581, Control_c, 0, 64, 85
1, 127595, Control_c, 0, 64, 86
1, 127610, Control_c, 0, 64, 86
1, 127616, Note_on_c, 0, 58, 41
1, 127625, Control_c, 0, 64, 87
1, 127640, Control_c, 0, 64, 88
1, 127646, Note_off_c, 0, 58, 53
1, 127655, Control_c, 0, 64, 89
1, 127670, Control_c, 0, 64, 90
1, 127681, Note_on_c, 0, 63, 53
1, 127685, Control_c, 0, 64, 91
1, 127700, Control_c, 0, 64, 92
1, 127715, Control_c, 0, 64, 93
1, 127766, Note_off_c, 0, 63, 53
1, 127783, Note_on_c, 0, 67, 50
1, 127796, Control_c, 0, 64, 93
1, 127826, Control_c, 0, 64, 94
1, 127856, Control_c, 0, 64, 95
1, 127884, Note_off_c, 0, 43, 40
1, 127886, Note_on_c, 0, 63, 51
1, 127900, Control_c, 0, 64, 95
1, 127914, Note_off_c, 0, 70, 56
1, 127972, Note_on_c, 0, 58, 52
1, 128004, Control_c, 0, 64, 95
1, 128018, Control_c, 0, 64, 94
1, 128033, Control_c, 0, 64, 94
1, 128048, Control_c, 0, 64, 93
1, 128063, Control_c, 0, 64, 91
1, 128069, Note_on_c, 0, 41, 52
1, 128078, Control_c, 0, 64, 90
1, 128093, Control_c, 0, 64, 89
1, 128093, Note_off_c, 0, 58, 55
1, 128108, Note_on_c, 0, 70, 74
1, 128137, Control_c, 0, 64, 88
1, 128152, Control_c, 0, 64, 84
1, 128167, Control_c, 0, 64, 74
1, 128182, Control_c, 0, 64, 62
1, 128196, Control_c, 0, 64, 35
1, 128200, Note_off_c, 0, 31, 58
1, 128211, Control_c, 0, 64, 0
1, 128221, Note_off_c, 0, 67, 62
1, 128228, Note_off_c, 0, 63, 54
1, 128251, Note_on_c, 0, 58, 48
1, 128270, Control_c, 0, 64, 35
1, 128286, Control_c, 0, 64, 47
1, 128301, Control_c, 0, 64, 56
1, 128311, Note_off_c, 0, 58, 57
1, 128316, Control_c, 0, 64, 61
1, 128331, Control_c, 0, 64, 63
1, 128344, Note_on_c, 0, 62, 52
1, 128346, Control_c, 0, 64, 65
1, 128360, Control_c, 0, 64, 68
1, 128375, Control_c, 0, 64, 70
1, 128390, Control_c, 0, 64, 75
1, 128405, Control_c, 0, 64, 80
1, 128419, Control_c, 0, 64, 86
1, 128428, Note_off_c, 0, 62, 58
1, 128434, Control_c, 0, 64, 93
1, 128449, Control_c, 0, 64, 101
1, 128464, Control_c, 0, 64, 108
1, 128469, Note_on_c, 0, 68, 54
1, 128479, Control_c, 0, 64, 123
1, 128501, Control_c, 0, 64, 127
1, 128552, Note_off_c, 0, 70, 56
1, 128568, Note_on_c, 0, 62, 52
1, 128575, Note_off_c, 0, 68, 56
1, 128603, Note_off_c, 0, 62, 61
1, 128638, Note_on_c, 0, 58, 62
1, 128677, Note_off_c, 0, 58, 61
1, 128765, Note_on_c, 0, 72, 75
1, 128812, Control_c, 0, 64, 114
1, 128826, Control_c, 0, 64, 104
1, 128841, Control_c, 0, 64, 98
1, 128856, Control_c, 0, 64, 91
1, 128871, Control_c, 0, 64, 85
1, 128886, Control_c, 0, 64, 81
1, 128896, Note_on_c, 0, 62, 55
1, 128901, Control_c, 0, 64, 78
1, 128916, Control_c, 0, 64, 75
1, 128931, Control_c, 0, 64, 73
1, 128945, Control_c, 0, 64, 70
1, 128960, Control_c, 0, 64, 69
1, 128975, Control_c, 0, 64, 68
1, 128990, Control_c, 0, 64, 67
1, 128991, Note_off_c, 0, 62, 58
1, 129005, Control_c, 0, 64, 66
1, 129019, Control_c, 0, 64, 65
1, 129034, Note_on_c, 0, 68, 36
1, 129034, Control_c, 0, 64, 63
1, 129049, Control_c, 0, 64, 61
1, 129064, Control_c, 0, 64, 60
1, 129079, Control_c, 0, 64, 57
1, 129095, Control_c, 0, 64, 52
1, 129109, Control_c, 0, 64, 43
1, 129114, Note_off_c, 0, 68, 51
1, 129124, Control_c, 0, 64, 32
1, 129139, Control_c, 0, 64, 26
1, 129151, Note_on_c, 0, 70, 61
1, 129154, Control_c, 0, 64, 26
1, 129168, Control_c, 0, 64, 28
1, 129182, Control_c, 0, 64, 38
1, 129197, Control_c, 0, 64, 50
1, 129212, Control_c, 0, 64, 56
1, 129227, Control_c, 0, 64, 61
1, 129249, Control_c, 0, 64, 64
1, 129264, Control_c, 0, 64, 67
1, 129279, Control_c, 0, 64, 70
1, 129294, Control_c, 0, 64, 75
1, 129304, Note_on_c, 0, 68, 41
1, 129309, Control_c, 0, 64, 81
1, 129323, Control_c, 0, 64, 86
1, 129324, Note_off_c, 0, 72, 49
1, 129338, Control_c, 0, 64, 92
1, 129353, Control_c, 0, 64, 96
1, 129367, Control_c, 0, 64, 99
1, 129382, Control_c, 0, 64, 101
1, 129387, Note_off_c, 0, 70, 57
1, 129397, Control_c, 0, 64, 102
1, 129412, Control_c, 0, 64, 106
1, 129426, Note_off_c, 0, 68, 57
1, 129427, Control_c, 0, 64, 115
1, 129431, Note_on_c, 0, 62, 38
1, 129441, Control_c, 0, 64, 127
1, 129461, Note_off_c, 0, 62, 53
1, 129672, Note_on_c, 0, 39, 36
1, 129685, Note_on_c, 0, 79, 66
1, 129723, Control_c, 0, 64, 119
1, 129738, Control_c, 0, 64, 107
1, 129753, Control_c, 0, 64, 97
1, 129767, Control_c, 0, 64, 89
1, 129782, Control_c, 0, 64, 80
1, 129797, Control_c, 0, 64, 71
1, 129812, Control_c, 0, 64, 64
1, 129827, Control_c, 0, 64, 54
1, 129840, Note_off_c, 0, 41, 52
1, 129841, Control_c, 0, 64, 42
1, 129856, Control_c, 0, 64, 30
1, 129871, Control_c, 0, 64, 24
1, 129887, Control_c, 0, 64, 19
1, 129902, Control_c, 0, 64, 17
1, 129946, Control_c, 0, 64, 23
1, 129959, Note_on_c, 0, 67, 42
1, 129961, Control_c, 0, 64, 30
1, 129976, Control_c, 0, 64, 38
1, 129998, Control_c, 0, 64, 44
1, 130013, Control_c, 0, 64, 49
1, 130028, Control_c, 0, 64, 52
1, 130042, Control_c, 0, 64, 56
1, 130057, Control_c, 0, 64, 59
1, 130072, Control_c, 0, 64, 62
1, 130087, Control_c, 0, 64, 63
1, 130102, Control_c, 0, 64, 65
1, 130117, Control_c, 0, 64, 66
1, 130132, Control_c, 0, 64, 68
1, 130146, Control_c, 0, 64, 70
1, 130151, Note_on_c, 0, 70, 18
1, 130161, Control_c, 0, 64, 72
1, 130176, Control_c, 0, 64, 75
1, 130190, Control_c, 0, 64, 78
1, 130205, Control_c, 0, 64, 80
1, 130220, Control_c, 0, 64, 81
1, 130235, Control_c, 0, 64, 83
1, 130250, Control_c, 0, 64, 83
1, 130264, Control_c, 0, 64, 84
1, 130266, Note_off_c, 0, 67, 31
1, 130279, Control_c, 0, 64, 84
1, 130292, Note_off_c, 0, 70, 35
1, 130302, Note_on_c, 0, 75, 41
1, 130412, Control_c, 0, 64, 84
1, 130433, Note_on_c, 0, 70, 37
1, 130451, Note_off_c, 0, 75, 21
1, 130479, Note_off_c, 0, 70, 50
1, 130529, Note_on_c, 0, 67, 39
1, 130563, Note_off_c, 0, 67, 50
1, 130598, Note_on_c, 0, 70, 46
1, 130651, Note_off_c, 0, 70, 56
1, 130664, Control_c, 0, 64, 84
1, 130713, Note_on_c, 0, 67, 26
1, 130747, Control_c, 0, 64, 85
1, 130757, Note_off_c, 0, 79, 51
1, 130762, Control_c, 0, 64, 85
1, 130776, Control_c, 0, 64, 86
1, 130791, Control_c, 0, 64, 87
1, 130806, Control_c, 0, 64, 88
1, 130809, Note_on_c, 0, 70, 26
1, 130821, Control_c, 0, 64, 88
1, 130850, Note_off_c, 0, 70, 46
1, 130865, Control_c, 0, 64, 89
1, 130886, Note_on_c, 0, 77, 66
1, 130893, Note_off_c, 0, 67, 38
1, 130910, Control_c, 0, 64, 89
1, 130925, Control_c, 0, 64, 90
1, 130940, Control_c, 0, 64, 92
1, 130955, Control_c, 0, 64, 94
1, 130969, Control_c, 0, 64, 95
1, 130984, Control_c, 0, 64, 96
1, 130999, Control_c, 0, 64, 97
1, 131013, Control_c, 0, 64, 98
1, 131028, Control_c, 0, 64, 100
1, 131043, Control_c, 0, 64, 101
1, 131056, Note_on_c, 0, 71, 31
1, 131058, Control_c, 0, 64, 101
1, 131102, Control_c, 0, 64, 102
1, 131130, Note_on_c, 0, 67, 43
1, 131145, Note_off_c, 0, 77, 50
1, 131233, Note_off_c, 0, 71, 35
1, 131250, Control_c, 0, 64, 101
1, 131254, Note_off_c, 0, 67, 60
1, 131312, Note_on_c, 0, 44, 33
1, 131330, Note_on_c, 0, 77, 65
1, 131339, Control_c, 0, 64, 100
1, 131354, Control_c, 0, 64, 97
1, 131369, Control_c, 0, 64, 89
1, 131384, Control_c, 0, 64, 78
1, 131399, Control_c, 0, 64, 69
1, 131414, Control_c, 0, 64, 62
1, 131429, Control_c, 0, 64, 56
1, 131444, Control_c, 0, 64, 58
1, 131458, Control_c, 0, 64, 60
1, 131473, Control_c, 0, 64, 63
1, 131497, Control_c, 0, 64, 65
1, 131512, Control_c, 0, 64, 67
1, 131515, Note_off_c, 0, 77, 58
1, 131526, Control_c, 0, 64, 71
1, 131531, Note_on_c, 0, 72, 45
1, 131541, Control_c, 0, 64, 77
1, 131556, Control_c, 0, 64, 81
1, 131571, Control_c, 0, 64, 85
1, 131586, Control_c, 0, 64, 89
1, 131600, Control_c, 0, 64, 92
1, 131613, Note_off_c, 0, 72, 62
1, 131615, Control_c, 0, 64, 95
1, 131630, Control_c, 0, 64, 100
1, 131644, Control_c, 0, 64, 103
1, 131658, Note_on_c, 0, 63, 38
1, 131659, Control_c, 0, 64, 104
1, 131674, Control_c, 0, 64, 106
1, 131689, Control_c, 0, 64, 108
1, 131693, Note_off_c, 0, 63, 50
1, 131704, Control_c, 0, 64, 113
1, 131718, Control_c, 0, 64, 127
1, 131723, Note_on_c, 0, 75, 65
1, 131821, Note_off_c, 0, 75, 60
1, 131822, Note_on_c, 0, 72, 54
1, 131909, Note_on_c, 0, 63, 49
1, 131926, Note_off_c, 0, 72, 49
1, 131980, Note_on_c, 0, 72, 60
1, 131982, Note_off_c, 0, 63, 47
1, 132087, Note_on_c, 0, 68, 55
1, 132126, Note_off_c, 0, 68, 60
1, 132171, Note_on_c, 0, 63, 41
1, 132207, Note_off_c, 0, 63, 48
1, 132290, Note_on_c, 0, 68, 53
1, 132336, Note_off_c, 0, 72, 20
1, 132398, Note_on_c, 0, 65, 45
1, 132417, Note_off_c, 0, 44, 39
1, 132517, Note_off_c, 0, 68, 35
1, 132529, Note_on_c, 0, 60, 42
1, 132610, Note_off_c, 0, 65, 33
1, 132623, Note_off_c, 0, 60, 61
1, 132641, Note_on_c, 0, 67, 59
1, 132651, Note_on_c, 0, 46, 41
1, 132719, Control_c, 0, 64, 110
1, 132734, Control_c, 0, 64, 88
1, 132749, Control_c, 0, 64, 72
1, 132764, Control_c, 0, 64, 60
1, 132779, Control_c, 0, 64, 35
1, 132789, Note_on_c, 0, 55, 41
1, 132793, Control_c, 0, 64, 0
1, 132823, Control_c, 0, 64, 12
1, 132838, Control_c, 0, 64, 27
1, 132853, Control_c, 0, 64, 37
1, 132860, Note_off_c, 0, 39, 40
1, 132867, Control_c, 0, 64, 45
1, 132871, Note_off_c, 0, 55, 52
1, 132882, Note_on_c, 0, 58, 49
1, 132882, Control_c, 0, 64, 53
1, 132897, Control_c, 0, 64, 58
1, 132911, Control_c, 0, 64, 62
1, 132926, Control_c, 0, 64, 64
1, 132940, Control_c, 0, 64, 65
1, 132946, Note_off_c, 0, 58, 55
1, 132955, Control_c, 0, 64, 67
1, 132970, Control_c, 0, 64, 70
1, 132992, Control_c, 0, 64, 73
1, 133007, Control_c, 0, 64, 76
1, 133014, Note_on_c, 0, 63, 32
1, 133022, Control_c, 0, 64, 80
1, 133037, Control_c, 0, 64, 83
1, 133052, Control_c, 0, 64, 86
1, 133066, Control_c, 0, 64, 88
1, 133081, Control_c, 0, 64, 90
1, 133092, Note_on_c, 0, 58, 48
1, 133097, Control_c, 0, 64, 92
1, 133112, Control_c, 0, 64, 96
1, 133127, Control_c, 0, 64, 99
1, 133133, Note_off_c, 0, 58, 61
1, 133142, Control_c, 0, 64, 103
1, 133157, Control_c, 0, 64, 109
1, 133161, Note_off_c, 0, 63, 30
1, 133167, Note_on_c, 0, 55, 47
1, 133171, Control_c, 0, 64, 121
1, 133186, Control_c, 0, 64, 127
1, 133229, Note_off_c, 0, 55, 52
1, 133241, Note_on_c, 0, 58, 51
1, 133289, Note_off_c, 0, 58, 59
1, 133346, Note_on_c, 0, 55, 50
1, 133407, Note_on_c, 0, 58, 48
1, 133413, Note_off_c, 0, 55, 52
1, 133429, Note_off_c, 0, 67, 59
1, 133517, Note_on_c, 0, 67, 71
1, 133528, Note_on_c, 0, 63, 60
1, 133532, Note_off_c, 0, 58, 60
1, 133626, Note_off_c, 0, 67, 60
1, 133639, Note_off_c, 0, 46, 63
1, 133640, Note_on_c, 0, 58, 51
1, 133669, Note_off_c, 0, 63, 52
1, 133751, Note_off_c, 0, 58, 63
1, 133760, Note_on_c, 0, 55, 59
1, 133788, Note_off_c, 0, 55, 66
1, 133947, Note_on_c, 0, 53, 38
1, 133976, Note_on_c, 0, 46, 45
1, 133992, Note_on_c, 0, 72, 74
1, 134068, Control_c, 0, 64, 100
1, 134083, Control_c, 0, 64, 84
1, 134098, Control_c, 0, 64, 69
1, 134112, Control_c, 0, 64, 54
1, 134127, Control_c, 0, 64, 0
1, 134217, Note_on_c, 0, 62, 38
1, 134260, Control_c, 0, 64, 15
1, 134275, Control_c, 0, 64, 33
1, 134290, Control_c, 0, 64, 46
1, 134305, Control_c, 0, 64, 54
1, 134308, Note_off_c, 0, 62, 50
1, 134320, Control_c, 0, 64, 60
1, 134330, Note_on_c, 0, 65, 40
1, 134335, Control_c, 0, 64, 62
1, 134350, Control_c, 0, 64, 64
1, 134365, Control_c, 0, 64, 66
1, 134379, Control_c, 0, 64, 68
1, 134394, Control_c, 0, 64, 71
1, 134409, Control_c, 0, 64, 74
1, 134415, Note_on_c, 0, 70, 58
1, 134424, Control_c, 0, 64, 76
1, 134438, Control_c, 0, 64, 79
1, 134442, Note_off_c, 0, 65, 37
1, 134453, Control_c, 0, 64, 81
1, 134468, Control_c, 0, 64, 83
1, 134505, Control_c, 0, 64, 82
1, 134535, Control_c, 0, 64, 82
1, 134538, Note_on_c, 0, 62, 42
1, 134550, Control_c, 0, 64, 81
1, 134579, Control_c, 0, 64, 81
1, 134606, Note_on_c, 0, 65, 37
1, 134609, Control_c, 0, 64, 80
1, 134625, Note_off_c, 0, 62, 48
1, 134638, Control_c, 0, 64, 80
1, 134652, Note_off_c, 0, 70, 37
1, 134660, Note_off_c, 0, 72, 45
1, 134737, Note_on_c, 0, 68, 50
1, 134747, Note_off_c, 0, 65, 52
1, 134788, Control_c, 0, 64, 80
1, 134794, Note_off_c, 0, 68, 57
1, 134883, Note_on_c, 0, 58, 38
1, 134921, Control_c, 0, 64, 80
1, 134959, Note_off_c, 0, 58, 43
1, 134995, Control_c, 0, 64, 79
1, 135009, Control_c, 0, 64, 79
1, 135036, Note_on_c, 0, 62, 38
1, 135105, Note_off_c, 0, 62, 50
1, 135113, Control_c, 0, 64, 78
1, 135120, Note_on_c, 0, 56, 35
1, 135128, Control_c, 0, 64, 75
1, 135137, Note_on_c, 0, 65, 45
1, 135143, Control_c, 0, 64, 70
1, 135158, Control_c, 0, 64, 64
1, 135173, Control_c, 0, 64, 61
1, 135188, Control_c, 0, 64, 62
1, 135202, Control_c, 0, 64, 63
1, 135217, Control_c, 0, 64, 63
1, 135240, Control_c, 0, 64, 64
1, 135255, Control_c, 0, 64, 65
1, 135269, Control_c, 0, 64, 66
1, 135284, Control_c, 0, 64, 67
1, 135299, Control_c, 0, 64, 69
1, 135309, Note_on_c, 0, 58, 34
1, 135314, Control_c, 0, 64, 70
1, 135319, Note_off_c, 0, 56, 40
1, 135329, Control_c, 0, 64, 72
1, 135343, Control_c, 0, 64, 73
1, 135348, Note_off_c, 0, 53, 41
1, 135358, Control_c, 0, 64, 74
1, 135373, Control_c, 0, 64, 76
1, 135387, Control_c, 0, 64, 77
1, 135402, Control_c, 0, 64, 77
1, 135427, Note_off_c, 0, 46, 53
1, 135432, Control_c, 0, 64, 78
1, 135473, Note_on_c, 0, 62, 38
1, 135474, Note_off_c, 0, 65, 40
1, 135545, Note_off_c, 0, 58, 34
1, 135596, Control_c, 0, 64, 77
1, 135626, Control_c, 0, 64, 77
1, 135641, Control_c, 0, 64, 76
1, 135656, Control_c, 0, 64, 76
1, 135670, Control_c, 0, 64, 75
1, 135682, Note_on_c, 0, 39, 45
1, 135685, Control_c, 0, 64, 74
1, 135688, Note_on_c, 0, 63, 49
1, 135700, Control_c, 0, 64, 73
1, 135714, Note_off_c, 0, 62, 39
1, 135715, Control_c, 0, 64, 71
1, 135730, Control_c, 0, 64, 70
1, 135745, Control_c, 0, 64, 69
1, 135759, Control_c, 0, 64, 67
1, 135774, Control_c, 0, 64, 66
1, 135789, Control_c, 0, 64, 64
1, 135803, Control_c, 0, 64, 62
1, 135818, Control_c, 0, 64, 58
1, 135833, Control_c, 0, 64, 54
1, 135848, Control_c, 0, 64, 49
1, 135863, Control_c, 0, 64, 43
1, 135877, Control_c, 0, 64, 39
1, 135892, Control_c, 0, 64, 38
1, 135937, Control_c, 0, 64, 40
1, 135945, Note_on_c, 0, 51, 30
1, 135951, Control_c, 0, 64, 43
1, 135966, Control_c, 0, 64, 47
1, 135989, Control_c, 0, 64, 50
1, 136004, Control_c, 0, 64, 53
1, 136018, Control_c, 0, 64, 56
1, 136033, Control_c, 0, 64, 59
1, 136048, Control_c, 0, 64, 61
1, 136063, Control_c, 0, 64, 63
1, 136076, Note_on_c, 0, 55, 42
1, 136078, Control_c, 0, 64, 65
1, 136092, Control_c, 0, 64, 67
1, 136106, Note_off_c, 0, 51, 35
1, 136107, Control_c, 0, 64, 69
1, 136122, Control_c, 0, 64, 72
1, 136137, Control_c, 0, 64, 75
1, 136152, Control_c, 0, 64, 78
1, 136166, Control_c, 0, 64, 81
1, 136172, Note_off_c, 0, 55, 58
1, 136181, Control_c, 0, 64, 84
1, 136196, Control_c, 0, 64, 89
1, 136210, Control_c, 0, 64, 94
1, 136213, Note_on_c, 0, 58, 43
1, 136225, Control_c, 0, 64, 101
1, 136240, Control_c, 0, 64, 108
1, 136255, Control_c, 0, 64, 118
1, 136270, Control_c, 0, 64, 127
1, 136333, Note_on_c, 0, 55, 41
1, 136342, Note_off_c, 0, 58, 49
1, 136375, Control_c, 0, 67, 127
1, 136389, Control_c, 0, 67, 115
1, 136395, Note_off_c, 0, 55, 59
1, 136404, Control_c, 0, 67, 105
1, 136419, Control_c, 0, 67, 93
1, 136423, Note_on_c, 0, 51, 42
1, 136434, Control_c, 0, 67, 83
1, 136449, Control_c, 0, 67, 75
1, 136463, Control_c, 0, 67, 65
1, 136464, Note_off_c, 0, 51, 54
1, 136478, Control_c, 0, 67, 56
1, 136493, Control_c, 0, 67, 46
1, 136508, Control_c, 0, 67, 36
1, 136523, Control_c, 0, 67, 26
1, 136538, Note_on_c, 0, 55, 35
1, 136538, Control_c, 0, 67, 18
1, 136553, Control_c, 0, 67, 8
1, 136568, Control_c, 0, 67, 0
1, 136575, Note_off_c, 0, 55, 57
1, 136612, Note_on_c, 0, 51, 39
1, 136652, Note_off_c, 0, 51, 52
1, 136696, Note_on_c, 0, 55, 43
1, 136783, Note_off_c, 0, 55, 59
1, 136832, Note_on_c, 0, 58, 40
1, 136961, Note_on_c, 0, 55, 33
1, 137010, Note_off_c, 0, 63, 35
1, 137086, Note_on_c, 0, 51, 28
1, 137228, Note_on_c, 0, 63, 53
1, 137229, Note_on_c, 0, 37, 45
1, 137249, Note_off_c, 0, 51, 42
1, 137255, Control_c, 0, 64, 105
1, 137270, Control_c, 0, 64, 95
1, 137285, Control_c, 0, 64, 88
1, 137300, Control_c, 0, 64, 81
1, 137302, Note_off_c, 0, 55, 36
1, 137315, Control_c, 0, 64, 74
1, 137329, Control_c, 0, 64, 68
1, 137344, Control_c, 0, 64, 63
1, 137357, Note_off_c, 0, 58, 32
1, 137359, Control_c, 0, 64, 57
1, 137374, Control_c, 0, 64, 50
1, 137389, Control_c, 0, 64, 40
1, 137391, Note_on_c, 0, 51, 28
1, 137403, Control_c, 0, 64, 30
1, 137418, Control_c, 0, 64, 21
1, 137433, Control_c, 0, 64, 12
1, 137447, Control_c, 0, 64, 9
1, 137462, Control_c, 0, 64, 0
1, 137464, Note_off_c, 0, 39, 37
1, 137500, Control_c, 0, 64, 9
1, 137515, Control_c, 0, 64, 17
1, 137520, Note_on_c, 0, 55, 35
1, 137520, Note_off_c, 0, 51, 35
1, 137529, Control_c, 0, 64, 25
1, 137544, Control_c, 0, 64, 33
1, 137559, Control_c, 0, 64, 40
1, 137574, Control_c, 0, 64, 47
1, 137589, Note_off_c, 0, 55, 58
1, 137589, Control_c, 0, 64, 53
1, 137603, Control_c, 0, 64, 57
1, 137618, Control_c, 0, 64, 60
1, 137631, Note_on_c, 0, 58, 36
1, 137633, Control_c, 0, 64, 62
1, 137648, Control_c, 0, 64, 63
1, 137662, Control_c, 0, 64, 65
1, 137677, Control_c, 0, 64, 66
1, 137692, Control_c, 0, 64, 67
1, 137707, Control_c, 0, 64, 67
1, 137722, Control_c, 0, 64, 68
1, 137736, Control_c, 0, 64, 68
1, 137750, Note_on_c, 0, 55, 29
1, 137751, Control_c, 0, 64, 69
1, 137752, Note_off_c, 0, 58, 50
1, 137766, Control_c, 0, 64, 70
1, 137781, Control_c, 0, 64, 70
1, 137796, Control_c, 0, 64, 71
1, 137801, Note_off_c, 0, 55, 59
1, 137811, Control_c, 0, 64, 72
1, 137826, Control_c, 0, 64, 73
1, 137835, Note_on_c, 0, 51, 41
1, 137841, Control_c, 0, 64, 74
1, 137855, Control_c, 0, 64, 76
1, 137870, Control_c, 0, 64, 78
1, 137885, Control_c, 0, 64, 79
1, 137893, Note_off_c, 0, 51, 55
1, 137900, Control_c, 0, 64, 80
1, 137915, Control_c, 0, 64, 81
1, 137930, Control_c, 0, 64, 83
1, 137945, Control_c, 0, 64, 84
1, 137949, Note_on_c, 0, 55, 32
1, 137960, Control_c, 0, 64, 86
1, 137975, Control_c, 0, 64, 87
1, 137994, Note_off_c, 0, 55, 51
1, 138004, Control_c, 0, 64, 87
1, 138019, Control_c, 0, 64, 88
1, 138034, Control_c, 0, 64, 89
1, 138046, Note_on_c, 0, 51, 32
1, 138049, Control_c, 0, 64, 91
1, 138064, Control_c, 0, 64, 92
1, 138091, Note_off_c, 0, 51, 47
1, 138108, Control_c, 0, 64, 93
1, 138123, Control_c, 0, 64, 94
1, 138128, Note_on_c, 0, 55, 35
1, 138138, Control_c, 0, 64, 95
1, 138152, Control_c, 0, 64, 96
1, 138182, Control_c, 0, 64, 97
1, 138197, Control_c, 0, 64, 97
1, 138216, Note_off_c, 0, 55, 54
1, 138264, Note_on_c, 0, 58, 45
1, 138278, Control_c, 0, 64, 97
1, 138289, Note_on_c, 0, 40, 46
1, 138293, Control_c, 0, 64, 96
1, 138308, Control_c, 0, 64, 96
1, 138323, Control_c, 0, 64, 95
1, 138338, Control_c, 0, 64, 95
1, 138352, Control_c, 0, 64, 94
1, 138394, Note_on_c, 0, 55, 46
1, 138415, Note_on_c, 0, 39, 67
1, 138426, Control_c, 0, 64, 95
1, 138441, Control_c, 0, 64, 95
1, 138456, Control_c, 0, 64, 96
1, 138471, Control_c, 0, 64, 96
1, 138485, Note_off_c, 0, 37, 35
1, 138485, Control_c, 0, 64, 97
1, 138487, Note_off_c, 0, 63, 26
1, 138500, Control_c, 0, 64, 99
1, 138503, Note_on_c, 0, 51, 43
1, 138515, Control_c, 0, 64, 101
1, 138526, Note_on_c, 0, 37, 66
1, 138530, Control_c, 0, 64, 104
1, 138545, Control_c, 0, 64, 106
1, 138559, Control_c, 0, 64, 107
1, 138565, Note_off_c, 0, 40, 34
1, 138574, Control_c, 0, 64, 108
1, 138619, Control_c, 0, 64, 107
1, 138633, Control_c, 0, 64, 106
1, 138648, Control_c, 0, 64, 105
1, 138663, Control_c, 0, 64, 103
1, 138664, Note_on_c, 0, 35, 71
1, 138666, Note_on_c, 0, 63, 73
1, 138679, Control_c, 0, 64, 100
1, 138694, Control_c, 0, 64, 95
1, 138708, Note_off_c, 0, 58, 53
1, 138708, Control_c, 0, 64, 91
1, 138723, Control_c, 0, 64, 87
1, 138726, Note_off_c, 0, 51, 36
1, 138732, Note_off_c, 0, 55, 53
1, 138738, Control_c, 0, 64, 82
1, 138753, Control_c, 0, 64, 78
1, 138755, Note_off_c, 0, 39, 33
1, 138768, Control_c, 0, 64, 72
1, 138774, Note_off_c, 0, 37, 37
1, 138782, Control_c, 0, 64, 66
1, 138797, Control_c, 0, 64, 59
1, 138812, Control_c, 0, 64, 51
1, 138827, Control_c, 0, 64, 40
1, 138842, Control_c, 0, 64, 29
1, 138845, Note_on_c, 0, 51, 52
1, 138857, Control_c, 0, 64, 20
1, 138872, Control_c, 0, 64, 12
1, 138887, Control_c, 0, 64, 9
1, 138910, Note_off_c, 0, 51, 52
1, 138925, Note_on_c, 0, 56, 51
1, 138946, Control_c, 0, 64, 13
1, 138961, Control_c, 0, 64, 24
1, 138983, Control_c, 0, 64, 35
1, 138998, Control_c, 0, 64, 43
1, 139013, Control_c, 0, 64, 50
1, 139020, Note_off_c, 0, 56, 60
1, 139027, Control_c, 0, 64, 55
1, 139039, Note_on_c, 0, 59, 38
1, 139042, Control_c, 0, 64, 59
1, 139057, Control_c, 0, 64, 62
1, 139072, Control_c, 0, 64, 64
1, 139087, Control_c, 0, 64, 65
1, 139101, Control_c, 0, 64, 67
1, 139116, Control_c, 0, 64, 69
1, 139131, Control_c, 0, 64, 72
1, 139146, Control_c, 0, 64, 76
1, 139147, Note_on_c, 0, 56, 52
1, 139157, Note_off_c, 0, 59, 54
1, 139161, Control_c, 0, 64, 81
1, 139176, Control_c, 0, 64, 86
1, 139188, Note_off_c, 0, 56, 61
1, 139191, Control_c, 0, 64, 92
1, 139206, Control_c, 0, 64, 100
1, 139214, Note_on_c, 0, 51, 49
1, 139221, Control_c, 0, 64, 113
1, 139235, Control_c, 0, 64, 127
1, 139259, Note_off_c, 0, 51, 61
1, 139301, Note_on_c, 0, 56, 46
1, 139356, Note_off_c, 0, 56, 59
1, 139377, Note_on_c, 0, 51, 52
1, 139435, Note_off_c, 0, 51, 55
1, 139473, Note_on_c, 0, 56, 55
1, 139530, Note_off_c, 0, 56, 58
1, 139552, Note_on_c, 0, 59, 48
1, 139647, Note_on_c, 0, 56, 62
1, 139703, Note_off_c, 0, 63, 55
1, 139737, Note_on_c, 0, 51, 64
1, 139847, Note_on_c, 0, 34, 77
1, 139851, Note_on_c, 0, 63, 82
1, 139877, Note_off_c, 0, 51, 52
1, 139954, Control_c, 0, 64, 102
1, 139959, Note_off_c, 0, 59, 32
1, 139969, Control_c, 0, 64, 82
1, 139984, Control_c, 0, 64, 68
1, 139998, Control_c, 0, 64, 56
1, 140005, Note_off_c, 0, 56, 52
1, 140008, Note_on_c, 0, 51, 59
1, 140013, Control_c, 0, 64, 11
1, 140028, Control_c, 0, 64, 0
1, 140112, Note_on_c, 0, 55, 55
1, 140115, Note_off_c, 0, 51, 52
1, 140117, Control_c, 0, 64, 27
1, 140131, Control_c, 0, 64, 40
1, 140135, Note_off_c, 0, 35, 27
1, 140146, Control_c, 0, 64, 48
1, 140161, Control_c, 0, 64, 54
1, 140176, Control_c, 0, 64, 59
1, 140191, Control_c, 0, 64, 63
1, 140205, Control_c, 0, 64, 66
1, 140215, Note_off_c, 0, 55, 60
1, 140220, Control_c, 0, 64, 70
1, 140235, Control_c, 0, 64, 75
1, 140249, Control_c, 0, 64, 81
1, 140258, Note_on_c, 0, 61, 47
1, 140264, Control_c, 0, 64, 88
1, 140280, Control_c, 0, 64, 100
1, 140295, Control_c, 0, 64, 121
1, 140310, Control_c, 0, 64, 127
1, 140352, Note_on_c, 0, 55, 54
1, 140416, Note_off_c, 0, 55, 58
1, 140430, Note_on_c, 0, 51, 56
1, 140512, Note_off_c, 0, 51, 58
1, 140552, Note_on_c, 0, 55, 51
1, 140612, Note_on_c, 0, 35, 66
1, 140624, Note_off_c, 0, 34, 59
1, 140634, Note_off_c, 0, 55, 62
1, 140643, Note_on_c, 0, 51, 59
1, 140675, Note_off_c, 0, 61, 25
1, 140721, Note_off_c, 0, 51, 59
1, 140728, Note_on_c, 0, 34, 76
1, 140732, Note_off_c, 0, 35, 60
1, 140756, Note_on_c, 0, 55, 59
1, 140814, Note_off_c, 0, 63, 60
1, 140840, Note_on_c, 0, 37, 76
1, 140862, Note_off_c, 0, 34, 52
1, 140865, Note_on_c, 0, 61, 73
1, 140878, Note_off_c, 0, 55, 63
1, 140943, Note_on_c, 0, 35, 79
1, 140966, Note_on_c, 0, 55, 58
1, 140975, Note_off_c, 0, 37, 52
1, 141026, Note_on_c, 0, 51, 71
1, 141047, Note_on_c, 0, 34, 82
1, 141069, Note_off_c, 0, 61, 53
1, 141078, Note_off_c, 0, 35, 59
1, 141157, Note_on_c, 0, 63, 90
1, 141159, Note_on_c, 0, 32, 82
1, 141167, Note_off_c, 0, 51, 45
1, 141185, Note_off_c, 0, 34, 62
1, 141188, Note_off_c, 0, 55, 63
1, 141207, Control_c, 0, 64, 87
1, 141230, Control_c, 0, 64, 67
1, 141233, Note_on_c, 0, 61, 28
1, 141245, Control_c, 0, 64, 41
1, 141259, Control_c, 0, 64, 0
1, 141313, Note_on_c, 0, 51, 59
1, 141396, Note_on_c, 0, 56, 64
1, 141399, Note_off_c, 0, 51, 56
1, 141496, Control_c, 0, 64, 22
1, 141497, Note_off_c, 0, 56, 62
1, 141508, Note_on_c, 0, 59, 56
1, 141510, Control_c, 0, 64, 37
1, 141525, Control_c, 0, 64, 46
1, 141540, Control_c, 0, 64, 52
1, 141555, Control_c, 0, 64, 57
1, 141570, Control_c, 0, 64, 61
1, 141585, Control_c, 0, 64, 64
1, 141599, Control_c, 0, 64, 67
1, 141611, Note_on_c, 0, 56, 62
1, 141614, Control_c, 0, 64, 71
1, 141629, Control_c, 0, 64, 76
1, 141634, Note_off_c, 0, 59, 56
1, 141644, Control_c, 0, 64, 84
1, 141659, Control_c, 0, 64, 95
1, 141674, Control_c, 0, 64, 123
1, 141682, Note_off_c, 0, 56, 63
1, 141689, Control_c, 0, 64, 127
1, 141703, Note_on_c, 0, 51, 54
1, 141766, Note_off_c, 0, 51, 56
1, 141805, Note_on_c, 0, 56, 63
1, 141881, Note_off_c, 0, 56, 61
1, 141883, Note_on_c, 0, 51, 67
1, 141958, Note_on_c, 0, 56, 63
1, 141971, Note_off_c, 0, 32, 60
1, 141975, Note_off_c, 0, 51, 58
1, 142079, Note_on_c, 0, 59, 74
1, 142091, Note_off_c, 0, 56, 62
1, 142202, Note_on_c, 0, 56, 78
1, 142226, Note_off_c, 0, 63, 56
1, 142231, Note_off_c, 0, 61, 39
1, 142270, Note_off_c, 0, 59, 63
1, 142306, Note_on_c, 0, 51, 67
1, 142308, Note_off_c, 0, 56, 64
1, 142335, Note_off_c, 0, 51, 65
1, 142473, Note_on_c, 0, 32, 82
1, 142485, Poly_aftertouch_c, 0, 30, 127
1, 142489, Note_on_c, 0, 68, 87
1, 142512, Control_c, 0, 64, 113
1, 142526, Control_c, 0, 64, 75
1, 142527, Poly_aftertouch_c, 0, 30, 0
1, 142541, Control_c, 0, 64, 59
1, 142556, Control_c, 0, 64, 24
1, 142571, Control_c, 0, 64, 24
1, 142586, Control_c, 0, 64, 40
1, 142600, Control_c, 0, 64, 56
1, 142615, Control_c, 0, 64, 62
1, 142619, Note_on_c, 0, 30, 66
1, 142625, Note_off_c, 0, 32, 62
1, 142630, Control_c, 0, 64, 68
1, 142645, Control_c, 0, 64, 80
1, 142660, Control_c, 0, 64, 127
1, 142669, Note_on_c, 0, 56, 54
1, 142702, Note_off_c, 0, 30, 61
1, 142732, Note_on_c, 0, 32, 59
1, 142739, Note_off_c, 0, 56, 59
1, 142771, Note_on_c, 0, 59, 52
1, 142773, Note_off_c, 0, 32, 61
1, 142800, Note_on_c, 0, 30, 53
1, 142826, Note_off_c, 0, 59, 56
1, 142832, Note_off_c, 0, 30, 66
1, 142853, Note_on_c, 0, 32, 60
1, 142867, Note_on_c, 0, 62, 59
1, 142899, Note_off_c, 0, 32, 56
1, 142904, Note_on_c, 0, 30, 66
1, 142943, Note_off_c, 0, 30, 62
1, 142944, Note_off_c, 0, 62, 56
1, 142944, Note_on_c, 0, 59, 64
1, 142986, Note_on_c, 0, 32, 42
1, 143006, Note_off_c, 0, 59, 63
1, 143017, Note_on_c, 0, 56, 60
1, 143018, Note_on_c, 0, 30, 71
1, 143021, Note_off_c, 0, 32, 54
1, 143056, Note_off_c, 0, 30, 63
1, 143066, Note_off_c, 0, 56, 61
1, 143093, Note_on_c, 0, 32, 49
1, 143099, Note_on_c, 0, 59, 61
1, 143123, Note_on_c, 0, 30, 73
1, 143123, Note_off_c, 0, 32, 63
1, 143154, Note_off_c, 0, 59, 61
1, 143162, Note_off_c, 0, 30, 60
1, 143169, Poly_aftertouch_c, 0, 66, 127
1, 143172, Note_on_c, 0, 56, 65
1, 143182, Poly_aftertouch_c, 0, 32, 0
1, 143210, Poly_aftertouch_c, 0, 32, 0
1, 143212, Note_off_c, 0, 56, 62
1, 143235, Note_on_c, 0, 30, 65
1, 143236, Note_on_c, 0, 59, 64
1, 143270, Note_off_c, 0, 30, 65
1, 143296, Note_on_c, 0, 32, 48
1, 143305, Note_off_c, 0, 59, 63
1, 143312, Poly_aftertouch_c, 0, 66, 0
1, 143314, Note_on_c, 0, 62, 71
1, 143321, Note_on_c, 0, 30, 71
1, 143329, Note_off_c, 0, 32, 53
1, 143361, Note_off_c, 0, 68, 57
1, 143375, Note_off_c, 0, 62, 64
1, 143379, Note_on_c, 0, 59, 78
1, 143379, Note_off_c, 0, 30, 62
1, 143385, Note_on_c, 0, 32, 69
1, 143436, Note_off_c, 0, 59, 64
1, 143445, Note_on_c, 0, 30, 73
1, 143447, Note_on_c, 0, 56, 72
1, 143460, Note_off_c, 0, 32, 62
1, 143510, Note_off_c, 0, 56, 63
1, 143548, Note_off_c, 0, 30, 61
1, 143556, Note_on_c, 0, 29, 69
1, 143558, Note_on_c, 0, 28, 64
1, 143626, Note_on_c, 0, 30, 75
1, 143642, Note_off_c, 0, 29, 60
1, 143644, Note_off_c, 0, 28, 58
1, 143656, Poly_aftertouch_c, 0, 70, 0
1, 143677, Note_off_c, 0, 30, 64
1, 143699, Note_on_c, 0, 64, 43
1, 143729, Note_on_c, 0, 71, 98
1, 143741, Note_on_c, 0, 29, 85
1, 143743, Note_on_c, 0, 41, 87
1, 143743, Note_off_c, 0, 64, 55
1, 143802, Control_c, 0, 64, 81
1, 143817, Control_c, 0, 64, 56
1, 143832, Control_c, 0, 64, 0
1, 143945, Note_on_c, 0, 59, 70
1, 144053, Note_on_c, 0, 61, 70
1, 144172, Note_on_c, 0, 68, 72
1, 144176, Note_off_c, 0, 61, 61
1, 144242, Note_off_c, 0, 59, 57
1, 144284, Note_on_c, 0, 61, 66
1, 144299, Control_c, 0, 64, 41
1, 144314, Control_c, 0, 64, 53
1, 144328, Control_c, 0, 64, 58
1, 144343, Control_c, 0, 64, 61
1, 144353, Note_off_c, 0, 29, 62
1, 144358, Control_c, 0, 64, 64
1, 144373, Control_c, 0, 64, 69
1, 144375, Note_on_c, 0, 59, 65
1, 144387, Note_off_c, 0, 61, 62
1, 144388, Control_c, 0, 64, 79
1, 144402, Control_c, 0, 64, 97
1, 144417, Control_c, 0, 64, 127
1, 144482, Note_on_c, 0, 61, 75
1, 144487, Note_off_c, 0, 59, 64
1, 144591, Note_on_c, 0, 59, 73
1, 144608, Note_off_c, 0, 61, 61
1, 144622, Note_on_c, 0, 44, 89
1, 144651, Note_off_c, 0, 41, 64
1, 144712, Note_on_c, 0, 61, 68
1, 144759, Note_off_c, 0, 68, 50
1, 144853, Note_on_c, 0, 47, 95
1, 144868, Note_off_c, 0, 59, 34
1, 144869, Note_off_c, 0, 61, 58
1, 144880, Note_on_c, 0, 68, 73
1, 144892, Note_off_c, 0, 44, 59
1, 145019, Note_on_c, 0, 61, 67
1, 145063, Note_on_c, 0, 49, 92
1, 145133, Note_on_c, 0, 59, 78
1, 145147, Note_off_c, 0, 61, 61
1, 145220, Note_off_c, 0, 49, 59
1, 145349, Note_on_c, 0, 50, 85
1, 145358, Control_c, 0, 64, 97
1, 145362, Note_on_c, 0, 41, 58
1, 145373, Control_c, 0, 64, 83
1, 145388, Control_c, 0, 64, 75
1, 145394, Note_on_c, 0, 62, 59
1, 145403, Control_c, 0, 64, 69
1, 145407, Note_off_c, 0, 59, 56
1, 145418, Control_c, 0, 64, 65
1, 145433, Control_c, 0, 64, 61
1, 145448, Control_c, 0, 64, 57
1, 145463, Control_c, 0, 64, 51
1, 145478, Control_c, 0, 64, 43
1, 145483, Note_off_c, 0, 47, 55
1, 145492, Control_c, 0, 64, 25
1, 145507, Control_c, 0, 64, 0
1, 145560, Note_off_c, 0, 62, 60
1, 145562, Note_on_c, 0, 59, 52
1, 145674, Note_off_c, 0, 68, 34
1, 145691, Note_on_c, 0, 62, 53
1, 145829, Note_on_c, 0, 68, 55
1, 145830, Note_off_c, 0, 59, 0
1, 145836, Note_off_c, 0, 62, 61
1, 145855, Control_c, 0, 64, 17
1, 145868, Poly_aftertouch_c, 0, 59, 127
1, 145871, Control_c, 0, 64, 38
1, 145886, Control_c, 0, 64, 50
1, 145900, Control_c, 0, 64, 56
1, 145915, Control_c, 0, 64, 60
1, 145930, Control_c, 0, 64, 64
1, 145945, Control_c, 0, 64, 67
1, 145948, Poly_aftertouch_c, 0, 59, 0
1, 145959, Control_c, 0, 64, 71
1, 145974, Control_c, 0, 64, 78
1, 145987, Note_on_c, 0, 62, 53
1, 145989, Control_c, 0, 64, 87
1, 146004, Control_c, 0, 64, 97
1, 146019, Control_c, 0, 64, 117
1, 146034, Control_c, 0, 64, 127
1, 146106, Note_off_c, 0, 62, 60
1, 146111, Note_on_c, 0, 59, 53
1, 146226, Control_c, 0, 64, 115
1, 146241, Control_c, 0, 64, 103
1, 146256, Control_c, 0, 64, 95
1, 146271, Control_c, 0, 64, 88
1, 146282, Note_on_c, 0, 49, 64
1, 146285, Control_c, 0, 64, 81
1, 146295, Note_off_c, 0, 59, 54
1, 146300, Control_c, 0, 64, 76
1, 146314, Note_on_c, 0, 61, 51
1, 146315, Control_c, 0, 64, 72
1, 146330, Control_c, 0, 64, 68
1, 146345, Control_c, 0, 64, 66
1, 146359, Control_c, 0, 64, 64
1, 146374, Control_c, 0, 64, 63
1, 146375, Note_off_c, 0, 68, 29
1, 146390, Control_c, 0, 64, 62
1, 146405, Control_c, 0, 64, 60
1, 146405, Note_off_c, 0, 50, 55
1, 146420, Control_c, 0, 64, 59
1, 146434, Control_c, 0, 64, 57
1, 146449, Control_c, 0, 64, 55
1, 146471, Control_c, 0, 64, 53
1, 146486, Control_c, 0, 64, 51
1, 146500, Control_c, 0, 64, 49
1, 146507, Note_off_c, 0, 61, 56
1, 146515, Control_c, 0, 64, 46
1, 146520, Note_on_c, 0, 59, 45
1, 146530, Control_c, 0, 64, 42
1, 146530, Control_c, 0, 67, 15
1, 146545, Control_c, 0, 64, 38
1, 146545, Control_c, 0, 67, 24
1, 146560, Control_c, 0, 64, 35
1, 146560, Control_c, 0, 67, 35
1, 146575, Control_c, 0, 64, 32
1, 146575, Control_c, 0, 67, 44
1, 146589, Control_c, 0, 64, 27
1, 146589, Control_c, 0, 67, 55
1, 146604, Control_c, 0, 64, 23
1, 146604, Control_c, 0, 67, 68
1, 146619, Control_c, 0, 64, 17
1, 146619, Control_c, 0, 67, 83
1, 146634, Control_c, 0, 64, 11
1, 146634, Control_c, 0, 67, 100
1, 146649, Control_c, 0, 64, 0
1, 146649, Control_c, 0, 67, 119
1, 146664, Control_c, 0, 67, 127
1, 146725, Note_on_c, 0, 61, 41
1, 146752, Note_off_c, 0, 59, 37
1, 147007, Note_on_c, 0, 68, 50
1, 147123, Note_off_c, 0, 61, 53
1, 147236, Note_off_c, 0, 71, 18
1, 147334, Note_on_c, 0, 61, 32
1, 147532, Control_c, 0, 64, 18
1, 147546, Control_c, 0, 64, 26
1, 147561, Control_c, 0, 64, 30
1, 147576, Control_c, 0, 64, 33
1, 147591, Control_c, 0, 64, 35
1, 147606, Control_c, 0, 64, 36
1, 147621, Control_c, 0, 64, 37
1, 147636, Control_c, 0, 64, 38
1, 147651, Control_c, 0, 64, 38
1, 147680, Control_c, 0, 64, 39
1, 147725, Control_c, 0, 64, 39
1, 147739, Control_c, 0, 64, 40
1, 147740, Note_on_c, 0, 59, 34
1, 147754, Control_c, 0, 64, 42
1, 147769, Control_c, 0, 64, 44
1, 147784, Control_c, 0, 64, 46
1, 147799, Control_c, 0, 64, 48
1, 147813, Control_c, 0, 64, 51
1, 147828, Control_c, 0, 64, 53
1, 147843, Control_c, 0, 64, 55
1, 147858, Control_c, 0, 64, 57
1, 147873, Control_c, 0, 64, 59
1, 147887, Control_c, 0, 64, 60
1, 147901, Control_c, 0, 64, 62
1, 147916, Control_c, 0, 64, 63
1, 147930, Control_c, 0, 64, 64
1, 147931, Note_off_c, 0, 61, 38
1, 147945, Control_c, 0, 64, 65
1, 147967, Control_c, 0, 64, 66
1, 147982, Control_c, 0, 64, 67
1, 147996, Note_off_c, 0, 41, 56
1, 147997, Control_c, 0, 64, 68
1, 148012, Control_c, 0, 64, 69
1, 148026, Control_c, 0, 64, 70
1, 148041, Control_c, 0, 64, 71
1, 148056, Control_c, 0, 64, 72
1, 148075, Note_off_c, 0, 59, 38
1, 148132, Note_off_c, 0, 49, 32
1, 148262, Note_off_c, 0, 68, 30
1, 148339, Control_c, 0, 64, 71
1, 148442, Control_c, 0, 64, 71
1, 148475, Note_on_c, 0, 42, 31
1, 148476, Note_on_c, 0, 70, 41
1, 148477, Note_on_c, 0, 49, 20
1, 148487, Control_c, 0, 64, 70
1, 148516, Control_c, 0, 64, 70
1, 148531, Control_c, 0, 64, 69
1, 148560, Control_c, 0, 64, 69
1, 148575, Control_c, 0, 64, 68
1, 148590, Control_c, 0, 64, 67
1, 148605, Control_c, 0, 64, 66
1, 148620, Control_c, 0, 64, 65
1, 148634, Control_c, 0, 64, 64
1, 148649, Control_c, 0, 64, 62
1, 148664, Control_c, 0, 64, 58
1, 148679, Control_c, 0, 64, 54
1, 148694, Control_c, 0, 64, 50
1, 148716, Control_c, 0, 64, 48
1, 148731, Control_c, 0, 64, 46
1, 148746, Control_c, 0, 64, 45
1, 148820, Control_c, 0, 64, 46
1, 148822, Note_on_c, 0, 58, 30
1, 148834, Control_c, 0, 64, 48
1, 148849, Control_c, 0, 64, 50
1, 148864, Control_c, 0, 64, 52
1, 148879, Control_c, 0, 64, 53
1, 148894, Control_c, 0, 64, 55
1, 148909, Control_c, 0, 64, 57
1, 148924, Control_c, 0, 64, 58
1, 148938, Control_c, 0, 64, 59
1, 148953, Control_c, 0, 64, 60
1, 148968, Control_c, 0, 64, 61
1, 148983, Control_c, 0, 64, 61
1, 148987, Note_on_c, 0, 61, 26
1, 148998, Control_c, 0, 64, 62
1, 149013, Control_c, 0, 64, 63
1, 149028, Control_c, 0, 64, 63
1, 149042, Control_c, 0, 64, 64
1, 149073, Control_c, 0, 64, 64
1, 149086, Note_off_c, 0, 61, 49
1, 149087, Control_c, 0, 64, 65
1, 149102, Control_c, 0, 64, 65
1, 149117, Control_c, 0, 64, 66
1, 149132, Control_c, 0, 64, 66
1, 149160, Note_on_c, 0, 66, 6
1, 149162, Control_c, 0, 64, 67
1, 149176, Note_off_c, 0, 58, 15
1, 149177, Control_c, 0, 64, 67
1, 149191, Control_c, 0, 64, 68
1, 149206, Control_c, 0, 64, 69
1, 149221, Control_c, 0, 64, 69
1, 149251, Control_c, 0, 64, 70
1, 149265, Control_c, 0, 64, 70
1, 149267, Note_on_c, 0, 61, 38
1, 149280, Control_c, 0, 64, 71
1, 149294, Note_off_c, 0, 66, 28
1, 149295, Control_c, 0, 64, 72
1, 149309, Control_c, 0, 64, 72
1, 149326, Note_off_c, 0, 61, 55
1, 149341, Note_on_c, 0, 58, 41
1, 149386, Note_off_c, 0, 58, 57
1, 149447, Note_on_c, 0, 61, 22
1, 149494, Note_off_c, 0, 61, 48
1, 149527, Note_on_c, 0, 58, 38
1, 149539, Control_c, 0, 64, 73
1, 149569, Control_c, 0, 64, 73
1, 149575, Note_off_c, 0, 58, 43
1, 149598, Control_c, 0, 64, 74
1, 149599, Note_on_c, 0, 61, 39
1, 149643, Control_c, 0, 64, 74
1, 149657, Note_off_c, 0, 61, 54
1, 149684, Note_on_c, 0, 66, 39
1, 149702, Control_c, 0, 64, 75
1, 149708, Note_off_c, 0, 49, 37
1, 149709, Note_off_c, 0, 42, 39
1, 149794, Note_on_c, 0, 61, 14
1, 149802, Note_off_c, 0, 70, 36
1, 149877, Note_on_c, 0, 58, 38
1, 149955, Control_c, 0, 64, 75
1, 149970, Control_c, 0, 64, 76
1, 149986, Note_on_c, 0, 49, 20
1, 149989, Note_on_c, 0, 42, 36
1, 150000, Control_c, 0, 64, 76
1, 150003, Note_on_c, 0, 70, 60
1, 150012, Note_off_c, 0, 58, 52
1, 150014, Control_c, 0, 64, 77
1, 150029, Control_c, 0, 64, 77
1, 150044, Control_c, 0, 64, 78
1, 150059, Control_c, 0, 64, 79
1, 150074, Control_c, 0, 64, 80
1, 150088, Control_c, 0, 64, 81
1, 150095, Note_off_c, 0, 61, 40
1, 150103, Control_c, 0, 64, 81
1, 150118, Control_c, 0, 64, 82
1, 150132, Control_c, 0, 64, 83
1, 150147, Control_c, 0, 64, 85
1, 150161, Note_off_c, 0, 66, 38
1, 150162, Control_c, 0, 64, 87
1, 150177, Control_c, 0, 64, 89
1, 150184, Note_on_c, 0, 58, 3
1, 150192, Control_c, 0, 64, 91
1, 150214, Control_c, 0, 64, 93
1, 150219, Note_on_c, 0, 61, 52
1, 150229, Control_c, 0, 64, 95
1, 150230, Note_off_c, 0, 58, 52
1, 150244, Control_c, 0, 64, 97
1, 150259, Control_c, 0, 64, 99
1, 150268, Note_off_c, 0, 61, 55
1, 150274, Control_c, 0, 64, 101
1, 150288, Control_c, 0, 64, 102
1, 150298, Note_on_c, 0, 66, 50
1, 150303, Control_c, 0, 64, 104
1, 150318, Control_c, 0, 64, 106
1, 150332, Control_c, 0, 64, 107
1, 150340, Note_off_c, 0, 49, 37
1, 150347, Control_c, 0, 64, 110
1, 150350, Note_off_c, 0, 42, 36
1, 150362, Control_c, 0, 64, 111
1, 150377, Control_c, 0, 64, 114
1, 150392, Control_c, 0, 64, 119
1, 150403, Note_off_c, 0, 70, 36
1, 150406, Control_c, 0, 64, 127
1, 150409, Note_on_c, 0, 61, 41
1, 150492, Note_on_c, 0, 58, 45
1, 150581, Note_on_c, 0, 42, 44
1, 150582, Note_on_c, 0, 70, 67
1, 150584, Note_off_c, 0, 58, 50
1, 150586, Note_on_c, 0, 49, 26
1, 150681, Note_off_c, 0, 61, 40
1, 150724, Note_on_c, 0, 58, 44
1, 150733, Note_off_c, 0, 66, 48
1, 150778, Note_off_c, 0, 58, 43
1, 150800, Note_on_c, 0, 61, 51
1, 150885, Note_off_c, 0, 61, 52
1, 150918, Note_on_c, 0, 66, 47
1, 150940, Note_off_c, 0, 42, 35
1, 150977, Note_off_c, 0, 49, 40
1, 150977, Control_c, 0, 64, 123
1, 151037, Control_c, 0, 64, 121
1, 151043, Note_off_c, 0, 70, 52
1, 151052, Control_c, 0, 64, 119
1, 151055, Note_on_c, 0, 61, 51
1, 151097, Control_c, 0, 64, 118
1, 151111, Control_c, 0, 64, 117
1, 151126, Control_c, 0, 64, 115
1, 151141, Control_c, 0, 64, 114
1, 151157, Note_off_c, 0, 61, 61
1, 151170, Control_c, 0, 64, 113
1, 151180, Note_on_c, 0, 58, 46
1, 151244, Control_c, 0, 64, 113
1, 151259, Control_c, 0, 64, 112
1, 151274, Control_c, 0, 64, 111
1, 151289, Control_c, 0, 64, 110
1, 151303, Control_c, 0, 64, 107
1, 151318, Control_c, 0, 64, 106
1, 151333, Control_c, 0, 64, 103
1, 151348, Control_c, 0, 64, 100
1, 151352, Note_on_c, 0, 39, 43
1, 151362, Control_c, 0, 64, 96
1, 151369, Note_on_c, 0, 70, 65
1, 151370, Note_on_c, 0, 51, 35
1, 151377, Control_c, 0, 64, 93
1, 151392, Control_c, 0, 64, 89
1, 151405, Note_off_c, 0, 58, 38
1, 151407, Control_c, 0, 64, 85
1, 151422, Control_c, 0, 64, 81
1, 151436, Control_c, 0, 64, 78
1, 151452, Control_c, 0, 64, 73
1, 151467, Control_c, 0, 64, 68
1, 151482, Control_c, 0, 64, 64
1, 151497, Control_c, 0, 64, 58
1, 151512, Control_c, 0, 64, 50
1, 151526, Control_c, 0, 64, 43
1, 151541, Control_c, 0, 64, 34
1, 151556, Control_c, 0, 64, 27
1, 151569, Note_on_c, 0, 58, 35
1, 151571, Control_c, 0, 64, 23
1, 151585, Control_c, 0, 64, 18
1, 151600, Control_c, 0, 64, 17
1, 151630, Note_off_c, 0, 66, 25
1, 151645, Control_c, 0, 64, 18
1, 151660, Control_c, 0, 64, 26
1, 151675, Control_c, 0, 64, 35
1, 151681, Note_on_c, 0, 63, 37
1, 151690, Control_c, 0, 64, 43
1, 151712, Control_c, 0, 64, 50
1, 151727, Control_c, 0, 64, 54
1, 151741, Control_c, 0, 64, 56
1, 151756, Control_c, 0, 64, 58
1, 151771, Control_c, 0, 64, 59
1, 151778, Note_off_c, 0, 58, 33
1, 151778, Note_off_c, 0, 63, 59
1, 151785, Control_c, 0, 64, 61
1, 151800, Control_c, 0, 64, 62
1, 151815, Control_c, 0, 64, 64
1, 151817, Note_on_c, 0, 66, 32
1, 151830, Control_c, 0, 64, 65
1, 151845, Control_c, 0, 64, 66
1, 151860, Control_c, 0, 64, 67
1, 151875, Control_c, 0, 64, 68
1, 151890, Control_c, 0, 64, 70
1, 151904, Control_c, 0, 64, 71
1, 151919, Control_c, 0, 64, 72
1, 151925, Note_on_c, 0, 63, 40
1, 151934, Control_c, 0, 64, 73
1, 151949, Control_c, 0, 64, 74
1, 151964, Control_c, 0, 64, 75
1, 151967, Note_off_c, 0, 63, 62
1, 151975, Note_off_c, 0, 66, 41
1, 151978, Control_c, 0, 64, 75
1, 151993, Control_c, 0, 64, 76
1, 151997, Note_on_c, 0, 58, 42
1, 152008, Control_c, 0, 64, 76
1, 152023, Control_c, 0, 64, 77
1, 152031, Note_off_c, 0, 58, 52
1, 152038, Control_c, 0, 64, 78
1, 152052, Control_c, 0, 64, 78
1, 152067, Control_c, 0, 64, 79
1, 152090, Note_on_c, 0, 63, 34
1, 152111, Control_c, 0, 64, 79
1, 152123, Note_off_c, 0, 63, 52
1, 152141, Control_c, 0, 64, 80
1, 152170, Note_on_c, 0, 58, 26
1, 152171, Control_c, 0, 64, 80
1, 152185, Control_c, 0, 64, 81
1, 152200, Control_c, 0, 64, 81
1, 152210, Note_off_c, 0, 58, 47
1, 152215, Control_c, 0, 64, 82
1, 152230, Control_c, 0, 64, 82
1, 152237, Note_on_c, 0, 63, 40
1, 152245, Control_c, 0, 64, 83
1, 152261, Control_c, 0, 64, 84
1, 152275, Control_c, 0, 64, 85
1, 152290, Control_c, 0, 64, 85
1, 152292, Note_off_c, 0, 63, 56
1, 152305, Control_c, 0, 64, 86
1, 152320, Control_c, 0, 64, 86
1, 152337, Note_on_c, 0, 66, 42
1, 152349, Control_c, 0, 64, 87
1, 152378, Note_off_c, 0, 70, 49
1, 152394, Control_c, 0, 64, 87
1, 152423, Control_c, 0, 64, 88
1, 152461, Control_c, 0, 64, 88
1, 152462, Note_on_c, 0, 63, 24
1, 152495, Note_on_c, 0, 58, 40
1, 152508, Note_off_c, 0, 63, 47
1, 152509, Note_off_c, 0, 66, 30
1, 152575, Note_off_c, 0, 58, 60
1, 152618, Note_on_c, 0, 66, 53
1, 152729, Note_on_c, 0, 54, 47
1, 152757, Control_c, 0, 64, 89
1, 152782, Note_off_c, 0, 54, 51
1, 152802, Control_c, 0, 64, 89
1, 152819, Note_on_c, 0, 58, 38
1, 152831, Control_c, 0, 64, 90
1, 152861, Control_c, 0, 64, 90
1, 152864, Note_off_c, 0, 58, 56
1, 152905, Note_off_c, 0, 51, 37
1, 152910, Note_on_c, 0, 63, 42
1, 152934, Control_c, 0, 64, 91
1, 153002, Note_on_c, 0, 58, 39
1, 153053, Note_off_c, 0, 58, 59
1, 153071, Note_off_c, 0, 63, 28
1, 153082, Note_on_c, 0, 54, 45
1, 153123, Note_off_c, 0, 54, 52
1, 153182, Note_on_c, 0, 58, 39
1, 153229, Note_off_c, 0, 58, 49
1, 153296, Note_on_c, 0, 54, 8
1, 153359, Note_on_c, 0, 58, 41
1, 153362, Note_off_c, 0, 54, 42
1, 153410, Note_off_c, 0, 58, 55
1, 153417, Control_c, 0, 64, 91
1, 153469, Note_on_c, 0, 63, 41
1, 153476, Control_c, 0, 64, 92
1, 153487, Note_off_c, 0, 39, 35
1, 153535, Control_c, 0, 64, 92
1, 153565, Control_c, 0, 64, 93
1, 153603, Note_off_c, 0, 66, 33
1, 153613, Note_on_c, 0, 58, 32
1, 153624, Control_c, 0, 64, 93
1, 153639, Control_c, 0, 64, 94
1, 153720, Note_on_c, 0, 54, 41
1, 153750, Note_off_c, 0, 63, 23
1, 153784, Note_off_c, 0, 54, 55
1, 153826, Note_off_c, 0, 58, 38
1, 153831, Control_c, 0, 64, 93
1, 153847, Control_c, 0, 64, 93
1, 153862, Control_c, 0, 64, 92
1, 153877, Control_c, 0, 64, 91
1, 153892, Control_c, 0, 64, 90
1, 153907, Control_c, 0, 64, 87
1, 153911, Note_on_c, 0, 35, 39
1, 153921, Control_c, 0, 64, 85
1, 153924, Note_on_c, 0, 68, 51
1, 153936, Control_c, 0, 64, 82
1, 153958, Control_c, 0, 64, 80
1, 153967, Note_on_c, 0, 47, 8
1, 153973, Control_c, 0, 64, 78
1, 153988, Control_c, 0, 64, 75
1, 154003, Control_c, 0, 64, 72
1, 154018, Control_c, 0, 64, 68
1, 154033, Control_c, 0, 64, 64
1, 154048, Control_c, 0, 64, 59
1, 154062, Control_c, 0, 64, 51
1, 154077, Control_c, 0, 64, 46
1, 154087, Note_on_c, 0, 56, 39
1, 154092, Control_c, 0, 64, 45
1, 154136, Control_c, 0, 64, 45
1, 154151, Control_c, 0, 64, 47
1, 154166, Control_c, 0, 64, 49
1, 154180, Control_c, 0, 64, 51
1, 154195, Control_c, 0, 64, 54
1, 154203, Note_on_c, 0, 59, 35
1, 154210, Control_c, 0, 64, 56
1, 154225, Control_c, 0, 64, 58
1, 154240, Control_c, 0, 64, 60
1, 154254, Control_c, 0, 64, 61
1, 154258, Note_off_c, 0, 59, 58
1, 154269, Control_c, 0, 64, 63
1, 154284, Control_c, 0, 64, 64
1, 154299, Control_c, 0, 64, 65
1, 154301, Note_on_c, 0, 63, 38
1, 154314, Control_c, 0, 64, 67
1, 154328, Control_c, 0, 64, 69
1, 154343, Control_c, 0, 64, 72
1, 154350, Note_off_c, 0, 56, 35
1, 154358, Control_c, 0, 64, 73
1, 154373, Control_c, 0, 64, 75
1, 154388, Control_c, 0, 64, 76
1, 154391, Note_on_c, 0, 59, 40
1, 154402, Control_c, 0, 64, 76
1, 154413, Note_off_c, 0, 63, 38
1, 154417, Control_c, 0, 64, 77
1, 154432, Control_c, 0, 64, 78
1, 154439, Note_off_c, 0, 59, 59
1, 154447, Control_c, 0, 64, 80
1, 154462, Control_c, 0, 64, 81
1, 154477, Control_c, 0, 64, 82
1, 154480, Note_on_c, 0, 56, 40
1, 154532, Note_off_c, 0, 56, 45
1, 154568, Note_on_c, 0, 59, 44
1, 154609, Note_off_c, 0, 59, 54
1, 154610, Control_c, 0, 64, 83
1, 154640, Control_c, 0, 64, 83
1, 154656, Control_c, 0, 64, 84
1, 154658, Note_on_c, 0, 56, 26
1, 154670, Control_c, 0, 64, 85
1, 154685, Control_c, 0, 64, 86
1, 154704, Note_off_c, 0, 56, 51
1, 154707, Control_c, 0, 64, 86
1, 154722, Control_c, 0, 64, 87
1, 154728, Note_off_c, 0, 47, 37
1, 154737, Control_c, 0, 64, 87
1, 154751, Note_on_c, 0, 59, 26
1, 154751, Control_c, 0, 64, 88
1, 154781, Control_c, 0, 64, 88
1, 154786, Note_off_c, 0, 59, 52
1, 154828, Poly_aftertouch_c, 0, 66, 127
1, 154850, Note_on_c, 0, 63, 24
1, 154870, Control_c, 0, 64, 89
1, 154913, Note_on_c, 0, 59, 35
1, 154989, Control_c, 0, 64, 88
1, 154991, Note_off_c, 0, 68, 57
1, 155001, Note_off_c, 0, 35, 38
1, 155024, Note_on_c, 0, 56, 37
1, 155047, Poly_aftertouch_c, 0, 66, 0
1, 155063, Control_c, 0, 64, 88
1, 155077, Control_c, 0, 64, 87
1, 155107, Control_c, 0, 64, 87
1, 155121, Control_c, 0, 64, 86
1, 155136, Control_c, 0, 64, 84
1, 155151, Control_c, 0, 64, 83
1, 155162, Note_on_c, 0, 49, 26
1, 155166, Control_c, 0, 64, 81
1, 155181, Control_c, 0, 64, 81
1, 155182, Note_on_c, 0, 66, 45
1, 155184, Note_on_c, 0, 37, 33
1, 155192, Note_off_c, 0, 56, 37
1, 155225, Control_c, 0, 64, 78
1, 155240, Control_c, 0, 64, 73
1, 155255, Control_c, 0, 64, 66
1, 155267, Note_off_c, 0, 59, 39
1, 155270, Control_c, 0, 64, 59
1, 155285, Control_c, 0, 64, 51
1, 155300, Control_c, 0, 64, 49
1, 155315, Control_c, 0, 64, 51
1, 155329, Control_c, 0, 64, 54
1, 155330, Note_on_c, 0, 56, 31
1, 155344, Control_c, 0, 64, 57
1, 155359, Control_c, 0, 64, 61
1, 155374, Control_c, 0, 64, 63
1, 155389, Control_c, 0, 64, 65
1, 155404, Control_c, 0, 64, 66
1, 155419, Control_c, 0, 64, 69
1, 155434, Control_c, 0, 64, 72
1, 155439, Note_off_c, 0, 66, 60
1, 155457, Control_c, 0, 64, 76
1, 155468, Note_on_c, 0, 59, 11
1, 155472, Control_c, 0, 64, 83
1, 155475, Note_off_c, 0, 63, 0
1, 155487, Control_c, 0, 64, 89
1, 155501, Control_c, 0, 64, 97
1, 155511, Poly_aftertouch_c, 0, 63, 127
1, 155516, Note_on_c, 0, 65, 56
1, 155516, Control_c, 0, 64, 106
1, 155518, Note_off_c, 0, 56, 40
1, 155531, Control_c, 0, 64, 127
1, 155571, Poly_aftertouch_c, 0, 63, 0
1, 155590, Note_off_c, 0, 59, 38
1, 155635, Note_on_c, 0, 56, 49
1, 155687, Note_off_c, 0, 56, 54
1, 155707, Note_on_c, 0, 59, 49
1, 155731, Note_off_c, 0, 37, 40
1, 155753, Control_c, 0, 67, 113
1, 155768, Control_c, 0, 67, 91
1, 155783, Control_c, 0, 67, 68
1, 155797, Control_c, 0, 67, 44
1, 155812, Control_c, 0, 67, 18
1, 155816, Note_on_c, 0, 63, 68
1, 155827, Control_c, 0, 67, 0
1, 155867, Note_off_c, 0, 59, 60
1, 155878, Note_off_c, 0, 49, 37
1, 155908, Note_on_c, 0, 56, 43
1, 155953, Note_off_c, 0, 56, 53
1, 156009, Note_on_c, 0, 59, 46
1, 156094, Note_on_c, 0, 61, 69
1, 156096, Note_off_c, 0, 59, 58
1, 156099, Note_on_c, 0, 47, 43
1, 156118, Note_on_c, 0, 49, 44
1, 156123, Control_c, 0, 64, 84
1, 156138, Control_c, 0, 64, 66
1, 156152, Control_c, 0, 64, 46
1, 156167, Control_c, 0, 64, 0
1, 156219, Note_off_c, 0, 65, 60
1, 156220, Control_c, 0, 64, 25
1, 156230, Note_on_c, 0, 53, 49
1, 156233, Note_off_c, 0, 63, 62
1, 156234, Control_c, 0, 64, 43
1, 156250, Control_c, 0, 64, 54
1, 156265, Control_c, 0, 64, 60
1, 156280, Control_c, 0, 64, 63
1, 156295, Control_c, 0, 64, 67
1, 156297, Note_off_c, 0, 49, 60
1, 156310, Control_c, 0, 64, 74
1, 156312, Note_on_c, 0, 56, 55
1, 156325, Control_c, 0, 64, 83
1, 156336, Note_off_c, 0, 53, 54
1, 156339, Control_c, 0, 64, 93
1, 156354, Control_c, 0, 64, 104
1, 156369, Control_c, 0, 64, 111
1, 156383, Control_c, 0, 64, 111
1, 156384, Note_off_c, 0, 56, 58
1, 156413, Note_on_c, 0, 46, 54
1, 156426, Note_on_c, 0, 66, 65
1, 156436, Note_on_c, 0, 49, 48
1, 156447, Note_off_c, 0, 47, 58
1, 156457, Control_c, 0, 64, 110
1, 156472, Control_c, 0, 64, 102
1, 156487, Control_c, 0, 64, 83
1, 156502, Note_off_c, 0, 61, 55
1, 156502, Control_c, 0, 64, 67
1, 156517, Control_c, 0, 64, 50
1, 156531, Control_c, 0, 64, 0
1, 156557, Note_on_c, 0, 54, 47
1, 156605, Control_c, 0, 64, 33
1, 156620, Control_c, 0, 64, 47
1, 156627, Note_off_c, 0, 54, 57
1, 156634, Note_on_c, 0, 58, 49
1, 156635, Control_c, 0, 64, 56
1, 156650, Control_c, 0, 64, 60
1, 156665, Control_c, 0, 64, 63
1, 156680, Control_c, 0, 64, 67
1, 156695, Control_c, 0, 64, 73
1, 156701, Note_off_c, 0, 58, 57
1, 156710, Control_c, 0, 64, 82
1, 156724, Control_c, 0, 64, 96
1, 156739, Control_c, 0, 64, 127
1, 156745, Note_on_c, 0, 61, 52
1, 156778, Note_off_c, 0, 66, 56
1, 156834, Note_off_c, 0, 49, 41
1, 156838, Note_on_c, 0, 58, 58
1, 156855, Note_off_c, 0, 61, 57
1, 156922, Note_off_c, 0, 58, 62
1, 156933, Note_on_c, 0, 54, 51
1, 156966, Note_off_c, 0, 54, 61
1, 157058, Control_c, 0, 64, 105
1, 157063, Note_on_c, 0, 51, 41
1, 157073, Control_c, 0, 64, 82
1, 157074, Note_on_c, 0, 42, 46
1, 157081, Note_on_c, 0, 70, 67
1, 157088, Control_c, 0, 64, 66
1, 157103, Control_c, 0, 64, 44
1, 157118, Control_c, 0, 64, 0
1, 157148, Note_off_c, 0, 46, 54
1, 157177, Control_c, 0, 67, 13
1, 157192, Control_c, 0, 67, 40
1, 157206, Control_c, 0, 67, 64
1, 157221, Control_c, 0, 67, 87
1, 157234, Note_on_c, 0, 60, 39
1, 157236, Control_c, 0, 67, 110
1, 157251, Control_c, 0, 67, 127
1, 157295, Control_c, 0, 64, 11
1, 157310, Control_c, 0, 64, 39
1, 157323, Note_on_c, 0, 63, 47
1, 157325, Control_c, 0, 64, 53
1, 157340, Control_c, 0, 64, 60
1, 157354, Control_c, 0, 64, 63
1, 157369, Control_c, 0, 64, 65
1, 157377, Note_off_c, 0, 60, 30
1, 157384, Note_off_c, 0, 63, 54
1, 157384, Control_c, 0, 64, 67
1, 157398, Control_c, 0, 64, 70
1, 157413, Control_c, 0, 64, 74
1, 157425, Note_on_c, 0, 66, 45
1, 157428, Control_c, 0, 64, 78
1, 157443, Control_c, 0, 64, 82
1, 157458, Control_c, 0, 64, 85
1, 157473, Control_c, 0, 64, 86
1, 157488, Control_c, 0, 64, 87
1, 157503, Control_c, 0, 64, 87
1, 157517, Control_c, 0, 64, 88
1, 157532, Control_c, 0, 64, 89
1, 157536, Note_on_c, 0, 63, 44
1, 157547, Control_c, 0, 64, 91
1, 157550, Note_off_c, 0, 51, 44
1, 157562, Control_c, 0, 64, 93
1, 157563, Note_off_c, 0, 42, 60
1, 157573, Note_off_c, 0, 66, 33
1, 157577, Control_c, 0, 64, 93
1, 157591, Control_c, 0, 64, 94
1, 157648, Note_off_c, 0, 63, 55
1, 157682, Note_on_c, 0, 60, 33
1, 157703, Control_c, 0, 64, 93
1, 157733, Control_c, 0, 64, 93
1, 157747, Control_c, 0, 64, 92
1, 157762, Control_c, 0, 64, 92
1, 157777, Control_c, 0, 64, 91
1, 157792, Control_c, 0, 64, 89
1, 157807, Control_c, 0, 64, 88
1, 157822, Control_c, 0, 64, 86
1, 157836, Control_c, 0, 64, 85
1, 157848, Note_on_c, 0, 37, 39
1, 157851, Note_off_c, 0, 70, 56
1, 157852, Control_c, 0, 64, 81
1, 157860, Note_on_c, 0, 68, 54
1, 157867, Control_c, 0, 64, 71
1, 157869, Note_off_c, 0, 60, 54
1, 157882, Control_c, 0, 64, 58
1, 157896, Control_c, 0, 64, 23
1, 157911, Control_c, 0, 64, 0
1, 157971, Control_c, 0, 64, 34
1, 157985, Control_c, 0, 64, 52
1, 158000, Control_c, 0, 64, 59
1, 158015, Control_c, 0, 64, 63
1, 158030, Control_c, 0, 64, 65
1, 158045, Control_c, 0, 64, 66
1, 158060, Control_c, 0, 64, 68
1, 158075, Control_c, 0, 64, 71
1, 158090, Control_c, 0, 64, 74
1, 158104, Control_c, 0, 64, 77
1, 158119, Control_c, 0, 64, 80
1, 158132, Note_off_c, 0, 37, 60
1, 158134, Control_c, 0, 64, 81
1, 158141, Note_on_c, 0, 56, 26
1, 158164, Control_c, 0, 64, 81
1, 158198, Note_on_c, 0, 61, 42
1, 158252, Control_c, 0, 64, 81
1, 158291, Note_off_c, 0, 56, 32
1, 158324, Note_off_c, 0, 61, 55
1, 158356, Control_c, 0, 64, 80
1, 158373, Note_on_c, 0, 65, 36
1, 158392, Note_on_c, 0, 53, 15
1, 158414, Control_c, 0, 64, 81
1, 158495, Control_c, 0, 64, 81
1, 158496, Note_off_c, 0, 65, 55
1, 158522, Note_on_c, 0, 61, 36
1, 158558, Note_off_c, 0, 61, 57
1, 158564, Note_off_c, 0, 53, 37
1, 158584, Control_c, 0, 64, 82
1, 158597, Note_on_c, 0, 56, 36
1, 158644, Control_c, 0, 64, 82
1, 158645, Note_off_c, 0, 56, 47
1, 158659, Control_c, 0, 64, 83
1, 158674, Control_c, 0, 64, 84
1, 158689, Control_c, 0, 64, 85
1, 158690, Note_on_c, 0, 61, 40
1, 158718, Control_c, 0, 64, 85
1, 158733, Control_c, 0, 64, 86
1, 158748, Control_c, 0, 64, 88
1, 158763, Control_c, 0, 64, 90
1, 158775, Note_off_c, 0, 61, 55
1, 158778, Control_c, 0, 64, 92
1, 158792, Control_c, 0, 64, 92
1, 158793, Note_on_c, 0, 56, 41
1, 158855, Note_off_c, 0, 56, 57
1, 158875, Note_on_c, 0, 61, 33
1, 158901, Note_off_c, 0, 68, 37
1, 158925, Control_c, 0, 64, 92
1, 159000, Note_on_c, 0, 69, 60
1, 159012, Note_off_c, 0, 61, 53
1, 159032, Note_on_c, 0, 65, 38
1, 159174, Note_off_c, 0, 69, 59
1, 159182, Note_on_c, 0, 61, 38
1, 159285, Note_off_c, 0, 61, 53
1, 159306, Note_on_c, 0, 57, 44
1, 159348, Control_c, 0, 64, 91
1, 159377, Control_c, 0, 64, 91
1, 159407, Control_c, 0, 64, 90
1, 159422, Control_c, 0, 64, 89
1, 159437, Control_c, 0, 64, 88
1, 159452, Control_c, 0, 64, 86
1, 159457, Note_off_c, 0, 57, 37
1, 159463, Note_on_c, 0, 42, 41
1, 159467, Control_c, 0, 64, 84
1, 159473, Note_on_c, 0, 70, 59
1, 159476, Note_on_c, 0, 49, 34
1, 159482, Control_c, 0, 64, 81
1, 159497, Control_c, 0, 64, 78
1, 159503, Note_off_c, 0, 65, 36
1, 159512, Control_c, 0, 64, 74
1, 159527, Control_c, 0, 64, 70
1, 159541, Control_c, 0, 64, 64
1, 159556, Control_c, 0, 64, 54
1, 159571, Control_c, 0, 64, 42
1, 159586, Control_c, 0, 64, 32
1, 159600, Control_c, 0, 64, 30
1, 159645, Control_c, 0, 64, 31
1, 159660, Control_c, 0, 64, 35
1, 159674, Control_c, 0, 64, 40
1, 159689, Control_c, 0, 64, 47
1, 159690, Note_on_c, 0, 58, 45
1, 159704, Control_c, 0, 64, 51
1, 159719, Control_c, 0, 64, 54
1, 159734, Control_c, 0, 64, 55
1, 159748, Control_c, 0, 64, 56
1, 159763, Control_c, 0, 64, 57
1, 159778, Control_c, 0, 64, 59
1, 159781, Note_on_c, 0, 61, 39
1, 159792, Control_c, 0, 64, 62
1, 159807, Control_c, 0, 64, 63
1, 159822, Control_c, 0, 64, 65
1, 159837, Control_c, 0, 64, 67
1, 159849, Note_off_c, 0, 58, 32
1, 159852, Control_c, 0, 64, 69
1, 159856, Note_off_c, 0, 61, 54
1, 159866, Control_c, 0, 64, 71
1, 159881, Control_c, 0, 64, 73
1, 159885, Note_on_c, 0, 66, 45
1, 159896, Control_c, 0, 64, 76
1, 159911, Control_c, 0, 64, 78
1, 159926, Control_c, 0, 64, 80
1, 159948, Control_c, 0, 64, 80
1, 160018, Note_on_c, 0, 61, 37
1, 160051, Note_off_c, 0, 61, 51
1, 160057, Note_off_c, 0, 66, 28
1, 160067, Control_c, 0, 64, 80
1, 160081, Note_on_c, 0, 58, 35
1, 160123, Note_off_c, 0, 58, 52
1, 160126, Control_c, 0, 64, 79
1, 160156, Control_c, 0, 64, 79
1, 160160, Note_on_c, 0, 61, 33
1, 160204, Note_off_c, 0, 61, 59
1, 160230, Control_c, 0, 64, 78
1, 160239, Note_on_c, 0, 58, 39
1, 160296, Note_off_c, 0, 58, 55
1, 160327, Note_on_c, 0, 61, 41
1, 160334, Control_c, 0, 64, 79
1, 160364, Control_c, 0, 64, 79
1, 160385, Note_off_c, 0, 61, 54
1, 160409, Control_c, 0, 64, 80
1, 160412, Note_on_c, 0, 66, 44
1, 160423, Control_c, 0, 64, 80
1, 160438, Control_c, 0, 64, 81
1, 160449, Note_off_c, 0, 49, 33
1, 160453, Control_c, 0, 64, 81
1, 160499, Note_off_c, 0, 70, 39
1, 160507, Note_on_c, 0, 61, 38
1, 160510, Note_off_c, 0, 42, 37
1, 160512, Control_c, 0, 64, 82
1, 160598, Note_on_c, 0, 58, 36
1, 160615, Control_c, 0, 64, 81
1, 160661, Note_off_c, 0, 58, 54
1, 160672, Note_on_c, 0, 70, 65
1, 160674, Note_on_c, 0, 42, 42
1, 160692, Note_on_c, 0, 49, 43
1, 160728, Note_off_c, 0, 61, 33
1, 160756, Control_c, 0, 64, 82
1, 160770, Control_c, 0, 64, 82
1, 160785, Control_c, 0, 64, 83
1, 160800, Control_c, 0, 64, 84
1, 160802, Note_on_c, 0, 58, 46
1, 160814, Control_c, 0, 64, 86
1, 160829, Note_off_c, 0, 66, 35
1, 160829, Control_c, 0, 64, 87
1, 160842, Note_off_c, 0, 58, 50
1, 160844, Control_c, 0, 64, 89
1, 160859, Control_c, 0, 64, 90
1, 160865, Note_on_c, 0, 61, 52
1, 160874, Control_c, 0, 64, 92
1, 160874, Control_c, 0, 67, 112
1, 160889, Control_c, 0, 64, 95
1, 160889, Control_c, 0, 67, 93
1, 160904, Control_c, 0, 64, 100
1, 160904, Control_c, 0, 67, 73
1, 160919, Control_c, 0, 64, 108
1, 160919, Control_c, 0, 67, 55
1, 160934, Control_c, 0, 64, 127
1, 160934, Control_c, 0, 67, 36
1, 160948, Control_c, 0, 67, 21
1, 160960, Note_off_c, 0, 61, 54
1, 160963, Control_c, 0, 67, 8
1, 160978, Control_c, 0, 67, 0
1, 160993, Note_on_c, 0, 66, 46
1, 161084, Note_off_c, 0, 70, 52
1, 161093, Note_on_c, 0, 61, 49
1, 161170, Note_on_c, 0, 58, 55
1, 161214, Note_off_c, 0, 42, 34
1, 161298, Note_on_c, 0, 50, 44
1, 161301, Note_on_c, 0, 41, 55
1, 161309, Note_on_c, 0, 70, 76
1, 161376, Note_off_c, 0, 58, 37
1, 161410, Control_c, 0, 64, 108
1, 161425, Control_c, 0, 64, 78
1, 161446, Control_c, 0, 64, 64
1, 161460, Note_off_c, 0, 61, 41
1, 161461, Control_c, 0, 64, 46
1, 161468, Note_on_c, 0, 58, 41
1, 161472, Note_off_c, 0, 49, 63
1, 161476, Control_c, 0, 64, 0
1, 161485, Note_off_c, 0, 66, 57
1, 161521, Control_c, 0, 64, 27
1, 161536, Control_c, 0, 64, 44
1, 161545, Note_off_c, 0, 58, 56
1, 161551, Control_c, 0, 64, 55
1, 161565, Control_c, 0, 64, 60
1, 161580, Control_c, 0, 64, 64
1, 161583, Note_on_c, 0, 62, 43
1, 161595, Control_c, 0, 64, 69
1, 161610, Control_c, 0, 64, 81
1, 161625, Control_c, 0, 64, 97
1, 161639, Control_c, 0, 64, 127
1, 161701, Note_off_c, 0, 62, 52
1, 161742, Note_on_c, 0, 68, 50
1, 161855, Note_on_c, 0, 62, 45
1, 161867, Note_off_c, 0, 70, 56
1, 161908, Note_off_c, 0, 50, 17
1, 161958, Note_on_c, 0, 58, 50
1, 161971, Note_off_c, 0, 62, 56
1, 162055, Control_c, 0, 67, 22
1, 162069, Control_c, 0, 67, 37
1, 162084, Control_c, 0, 67, 52
1, 162099, Control_c, 0, 64, 116
1, 162099, Control_c, 0, 67, 66
1, 162114, Control_c, 0, 64, 103
1, 162114, Control_c, 0, 67, 80
1, 162126, Note_on_c, 0, 51, 45
1, 162127, Note_on_c, 0, 39, 42
1, 162129, Control_c, 0, 64, 95
1, 162129, Control_c, 0, 67, 93
1, 162130, Note_on_c, 0, 70, 70
1, 162133, Note_off_c, 0, 58, 35
1, 162144, Control_c, 0, 64, 91
1, 162144, Control_c, 0, 67, 105
1, 162159, Control_c, 0, 64, 88
1, 162159, Control_c, 0, 67, 120
1, 162174, Control_c, 0, 64, 85
1, 162174, Control_c, 0, 67, 127
1, 162195, Control_c, 0, 64, 78
1, 162210, Control_c, 0, 64, 69
1, 162225, Control_c, 0, 64, 58
1, 162240, Control_c, 0, 64, 21
1, 162255, Control_c, 0, 64, 0
1, 162261, Note_off_c, 0, 41, 61
1, 162281, Note_on_c, 0, 58, 48
1, 162358, Note_off_c, 0, 68, 25
1, 162383, Note_on_c, 0, 63, 46
1, 162403, Control_c, 0, 64, 24
1, 162418, Control_c, 0, 64, 39
1, 162427, Note_off_c, 0, 58, 32
1, 162433, Control_c, 0, 64, 48
1, 162448, Control_c, 0, 64, 54
1, 162449, Note_off_c, 0, 63, 56
1, 162462, Control_c, 0, 64, 57
1, 162477, Control_c, 0, 64, 60
1, 162492, Control_c, 0, 64, 63
1, 162504, Note_on_c, 0, 66, 35
1, 162507, Control_c, 0, 64, 65
1, 162522, Control_c, 0, 64, 66
1, 162537, Control_c, 0, 64, 68
1, 162551, Control_c, 0, 64, 69
1, 162559, Note_off_c, 0, 66, 56
1, 162566, Control_c, 0, 64, 70
1, 162581, Control_c, 0, 64, 70
1, 162587, Note_on_c, 0, 63, 41
1, 162610, Control_c, 0, 64, 71
1, 162625, Control_c, 0, 64, 72
1, 162629, Note_off_c, 0, 63, 62
1, 162641, Control_c, 0, 64, 74
1, 162656, Control_c, 0, 64, 76
1, 162671, Control_c, 0, 64, 80
1, 162673, Note_on_c, 0, 58, 40
1, 162685, Control_c, 0, 64, 83
1, 162700, Control_c, 0, 64, 86
1, 162703, Note_off_c, 0, 58, 53
1, 162715, Control_c, 0, 64, 87
1, 162730, Control_c, 0, 64, 89
1, 162749, Note_on_c, 0, 63, 43
1, 162785, Note_off_c, 0, 63, 58
1, 162817, Note_on_c, 0, 58, 43
1, 162818, Control_c, 0, 64, 88
1, 162848, Control_c, 0, 64, 88
1, 162878, Control_c, 0, 64, 87
1, 162896, Note_on_c, 0, 63, 41
1, 162896, Note_off_c, 0, 58, 41
1, 162907, Control_c, 0, 64, 87
1, 162945, Control_c, 0, 64, 86
1, 162947, Note_off_c, 0, 63, 47
1, 163005, Note_on_c, 0, 66, 45
1, 163050, Note_off_c, 0, 70, 55
1, 163077, Note_on_c, 0, 63, 38
1, 163101, Note_off_c, 0, 66, 46
1, 163137, Control_c, 0, 64, 87
1, 163150, Note_off_c, 0, 63, 53
1, 163181, Control_c, 0, 64, 87
1, 163185, Note_on_c, 0, 58, 30
1, 163211, Control_c, 0, 64, 88
1, 163224, Note_off_c, 0, 58, 53
1, 163226, Control_c, 0, 64, 88
1, 163256, Control_c, 0, 64, 89
1, 163286, Control_c, 0, 64, 89
1, 163291, Note_on_c, 0, 66, 51
1, 163300, Control_c, 0, 64, 90
1, 163315, Control_c, 0, 64, 91
1, 163330, Control_c, 0, 64, 92
1, 163345, Control_c, 0, 64, 94
1, 163359, Control_c, 0, 64, 95
1, 163374, Control_c, 0, 64, 96
1, 163389, Control_c, 0, 64, 97
1, 163393, Note_on_c, 0, 54, 40
1, 163434, Control_c, 0, 64, 97
1, 163438, Note_off_c, 0, 51, 35
1, 163442, Note_off_c, 0, 54, 49
1, 163449, Control_c, 0, 64, 98
1, 163464, Control_c, 0, 64, 99
1, 163475, Note_on_c, 0, 58, 44
1, 163479, Control_c, 0, 64, 101
1, 163485, Note_off_c, 0, 39, 61
1, 163494, Control_c, 0, 64, 103
1, 163508, Control_c, 0, 64, 106
1, 163523, Control_c, 0, 64, 109
1, 163527, Note_off_c, 0, 58, 60
1, 163538, Control_c, 0, 64, 111
1, 163553, Control_c, 0, 64, 113
1, 163558, Note_on_c, 0, 63, 47
1, 163568, Control_c, 0, 64, 118
1, 163582, Control_c, 0, 64, 127
1, 163653, Note_on_c, 0, 58, 52
1, 163728, Note_on_c, 0, 54, 54
1, 163790, Note_on_c, 0, 61, 23
1, 163817, Note_off_c, 0, 54, 54
1, 163831, Note_off_c, 0, 66, 35
1, 163848, Note_on_c, 0, 65, 67
1, 163871, Control_c, 0, 64, 110
1, 163876, Note_on_c, 0, 34, 51
1, 163886, Control_c, 0, 64, 90
1, 163901, Control_c, 0, 64, 73
1, 163915, Control_c, 0, 64, 62
1, 163927, Note_off_c, 0, 61, 34
1, 163930, Control_c, 0, 64, 46
1, 163945, Control_c, 0, 64, 32
1, 163960, Control_c, 0, 64, 33
1, 163963, Note_off_c, 0, 58, 59
1, 163975, Control_c, 0, 64, 34
1, 163985, Note_off_c, 0, 63, 26
1, 163989, Poly_aftertouch_c, 0, 46, 127
1, 163989, Control_c, 0, 64, 41
1, 163998, Note_on_c, 0, 53, 47
1, 164004, Control_c, 0, 64, 50
1, 164019, Control_c, 0, 64, 56
1, 164034, Control_c, 0, 64, 60
1, 164049, Control_c, 0, 64, 62
1, 164064, Control_c, 0, 64, 64
1, 164068, Note_off_c, 0, 53, 57
1, 164078, Control_c, 0, 64, 65
1, 164093, Control_c, 0, 64, 67
1, 164095, Note_on_c, 0, 56, 48
1, 164104, Poly_aftertouch_c, 0, 46, 0
1, 164108, Control_c, 0, 64, 70
1, 164123, Control_c, 0, 64, 74
1, 164138, Control_c, 0, 64, 77
1, 164147, Note_off_c, 0, 56, 60
1, 164153, Control_c, 0, 64, 81
1, 164168, Control_c, 0, 64, 84
1, 164181, Note_on_c, 0, 62, 47
1, 164182, Control_c, 0, 64, 87
1, 164186, Note_off_c, 0, 65, 39
1, 164197, Control_c, 0, 64, 91
1, 164212, Control_c, 0, 64, 97
1, 164227, Control_c, 0, 64, 102
1, 164242, Control_c, 0, 64, 106
1, 164257, Control_c, 0, 64, 107
1, 164272, Control_c, 0, 64, 108
1, 164279, Note_on_c, 0, 56, 46
1, 164317, Control_c, 0, 64, 106
1, 164331, Control_c, 0, 64, 104
1, 164346, Control_c, 0, 64, 101
1, 164350, Note_on_c, 0, 53, 49
1, 164350, Note_off_c, 0, 34, 27
1, 164361, Control_c, 0, 64, 99
1, 164374, Note_off_c, 0, 62, 55
1, 164375, Control_c, 0, 64, 97
1, 164390, Control_c, 0, 64, 95
1, 164398, Note_off_c, 0, 53, 63
1, 164404, Control_c, 0, 64, 95
1, 164419, Control_c, 0, 64, 94
1, 164442, Control_c, 0, 64, 93
1, 164445, Note_on_c, 0, 35, 51
1, 164448, Note_on_c, 0, 63, 59
1, 164457, Control_c, 0, 64, 91
1, 164471, Note_on_c, 0, 47, 10
1, 164471, Control_c, 0, 64, 87
1, 164486, Control_c, 0, 64, 78
1, 164488, Note_off_c, 0, 56, 57
1, 164501, Control_c, 0, 64, 65
1, 164516, Control_c, 0, 64, 52
1, 164531, Control_c, 0, 64, 30
1, 164545, Control_c, 0, 64, 20
1, 164590, Control_c, 0, 64, 30
1, 164598, Note_on_c, 0, 51, 30
1, 164605, Control_c, 0, 64, 42
1, 164619, Control_c, 0, 64, 52
1, 164634, Control_c, 0, 64, 57
1, 164636, Note_off_c, 0, 51, 44
1, 164649, Control_c, 0, 64, 59
1, 164659, Note_on_c, 0, 54, 44
1, 164659, Note_off_c, 0, 47, 38
1, 164663, Control_c, 0, 64, 61
1, 164678, Control_c, 0, 64, 63
1, 164693, Control_c, 0, 64, 65
1, 164702, Note_off_c, 0, 54, 60
1, 164708, Control_c, 0, 64, 67
1, 164723, Control_c, 0, 64, 70
1, 164737, Control_c, 0, 64, 74
1, 164744, Note_off_c, 0, 35, 57
1, 164752, Control_c, 0, 64, 77
1, 164767, Control_c, 0, 64, 79
1, 164773, Note_on_c, 0, 59, 33
1, 164782, Control_c, 0, 64, 82
1, 164797, Control_c, 0, 64, 86
1, 164812, Control_c, 0, 64, 89
1, 164827, Control_c, 0, 64, 92
1, 164842, Control_c, 0, 64, 96
1, 164856, Control_c, 0, 64, 98
1, 164857, Note_off_c, 0, 63, 32
1, 164871, Control_c, 0, 64, 99
1, 164873, Note_on_c, 0, 54, 38
1, 164945, Note_off_c, 0, 59, 45
1, 164949, Note_off_c, 0, 54, 57
1, 164962, Note_on_c, 0, 51, 39
1, 164993, Note_off_c, 0, 51, 55
1, 165004, Control_c, 0, 64, 99
1, 165019, Control_c, 0, 64, 98
1, 165035, Control_c, 0, 64, 97
1, 165050, Control_c, 0, 64, 95
1, 165065, Control_c, 0, 64, 92
1, 165079, Control_c, 0, 64, 90
1, 165094, Control_c, 0, 64, 88
1, 165109, Control_c, 0, 64, 87
1, 165123, Note_on_c, 0, 32, 36
1, 165125, Control_c, 0, 64, 86
1, 165140, Control_c, 0, 64, 82
1, 165154, Control_c, 0, 64, 77
1, 165169, Control_c, 0, 64, 70
1, 165170, Note_on_c, 0, 68, 48
1, 165191, Control_c, 0, 64, 63
1, 165206, Control_c, 0, 64, 51
1, 165221, Control_c, 0, 64, 36
1, 165235, Control_c, 0, 64, 33
1, 165265, Control_c, 0, 64, 37
1, 165280, Control_c, 0, 64, 43
1, 165295, Control_c, 0, 64, 50
1, 165310, Note_on_c, 0, 56, 35
1, 165310, Control_c, 0, 64, 55
1, 165324, Control_c, 0, 64, 58
1, 165339, Control_c, 0, 64, 60
1, 165354, Control_c, 0, 64, 61
1, 165369, Control_c, 0, 64, 62
1, 165374, Note_off_c, 0, 56, 56
1, 165384, Control_c, 0, 64, 63
1, 165399, Control_c, 0, 64, 65
1, 165414, Control_c, 0, 64, 67
1, 165428, Note_on_c, 0, 59, 39
1, 165429, Control_c, 0, 64, 70
1, 165443, Control_c, 0, 64, 72
1, 165458, Control_c, 0, 64, 75
1, 165473, Control_c, 0, 64, 77
1, 165487, Control_c, 0, 64, 78
1, 165499, Note_off_c, 0, 59, 54
1, 165502, Control_c, 0, 64, 79
1, 165524, Note_off_c, 0, 32, 40
1, 165566, Note_on_c, 0, 63, 42
1, 165635, Control_c, 0, 64, 78
1, 165687, Note_on_c, 0, 59, 38
1, 165723, Note_off_c, 0, 68, 34
1, 165769, Control_c, 0, 64, 78
1, 165808, Note_on_c, 0, 56, 43
1, 165844, Control_c, 0, 64, 77
1, 165858, Control_c, 0, 64, 77
1, 165888, Control_c, 0, 64, 76
1, 165903, Control_c, 0, 64, 75
1, 165918, Control_c, 0, 64, 74
1, 165940, Control_c, 0, 64, 73
1, 165955, Control_c, 0, 64, 71
1, 165970, Control_c, 0, 64, 70
1, 165984, Control_c, 0, 64, 69
1, 165986, Note_on_c, 0, 37, 36
1, 165992, Note_off_c, 0, 56, 36
1, 166000, Note_on_c, 0, 66, 43
1, 166014, Note_off_c, 0, 59, 31
1, 166014, Control_c, 0, 64, 69
1, 166029, Control_c, 0, 64, 66
1, 166032, Poly_aftertouch_c, 0, 49, 127
1, 166043, Control_c, 0, 64, 61
1, 166058, Control_c, 0, 64, 52
1, 166073, Control_c, 0, 64, 39
1, 166088, Control_c, 0, 64, 34
1, 166103, Control_c, 0, 64, 35
1, 166117, Control_c, 0, 64, 40
1, 166127, Note_off_c, 0, 63, 18
1, 166132, Control_c, 0, 64, 48
1, 166147, Control_c, 0, 64, 55
1, 166162, Control_c, 0, 64, 58
1, 166177, Control_c, 0, 64, 60
1, 166192, Control_c, 0, 64, 62
1, 166197, Note_on_c, 0, 56, 34
1, 166207, Control_c, 0, 64, 63
1, 166222, Control_c, 0, 64, 64
1, 166236, Control_c, 0, 64, 65
1, 166251, Control_c, 0, 64, 67
1, 166266, Control_c, 0, 64, 70
1, 166281, Control_c, 0, 64, 72
1, 166296, Control_c, 0, 64, 73
1, 166310, Control_c, 0, 64, 73
1, 166318, Note_off_c, 0, 66, 35
1, 166329, Note_on_c, 0, 59, 22
1, 166374, Note_off_c, 0, 56, 36
1, 166384, Note_on_c, 0, 65, 51
1, 166396, Note_off_c, 0, 59, 41
1, 166458, Control_c, 0, 64, 73
1, 166488, Control_c, 0, 64, 72
1, 166505, Note_on_c, 0, 56, 45
1, 166532, Control_c, 0, 64, 73
1, 166571, Note_off_c, 0, 56, 51
1, 166582, Note_on_c, 0, 59, 38
1, 166591, Control_c, 0, 64, 73
1, 166666, Control_c, 0, 64, 74
1, 166689, Note_on_c, 0, 63, 50
1, 166691, Note_off_c, 0, 59, 54
1, 166704, Control_c, 0, 64, 74
1, 166734, Control_c, 0, 64, 75
1, 166748, Control_c, 0, 64, 75
1, 166763, Control_c, 0, 64, 76
1, 166778, Control_c, 0, 64, 76
1, 166792, Note_off_c, 0, 65, 36
1, 166793, Control_c, 0, 64, 77
1, 166808, Control_c, 0, 64, 77
1, 166815, Note_on_c, 0, 56, 39
1, 166822, Control_c, 0, 64, 78
1, 166837, Control_c, 0, 64, 79
1, 166852, Control_c, 0, 64, 79
1, 166879, Note_off_c, 0, 56, 48
1, 166891, Note_on_c, 0, 59, 34
1, 166940, Control_c, 0, 64, 79
1, 166982, Note_on_c, 0, 65, 62
1, 167005, Note_off_c, 0, 59, 52
1, 167054, Poly_aftertouch_c, 0, 49, 0
1, 167116, Note_on_c, 0, 56, 39
1, 167119, Note_off_c, 0, 65, 60
1, 167173, Note_off_c, 0, 56, 52
1, 167194, Note_on_c, 0, 59, 40
1, 167251, Control_c, 0, 64, 78
1, 167281, Control_c, 0, 64, 78
1, 167311, Control_c, 0, 64, 77
1, 167326, Control_c, 0, 64, 76
1, 167340, Control_c, 0, 64, 75
1, 167345, Note_on_c, 0, 42, 37
1, 167355, Control_c, 0, 64, 74
1, 167360, Note_on_c, 0, 49, 23
1, 167370, Control_c, 0, 64, 72
1, 167383, Note_on_c, 0, 68, 62
1, 167385, Control_c, 0, 64, 70
1, 167386, Note_off_c, 0, 59, 37
1, 167414, Control_c, 0, 64, 70
1, 167438, Control_c, 0, 64, 67
1, 167450, Note_off_c, 0, 63, 61
1, 167453, Control_c, 0, 64, 62
1, 167468, Control_c, 0, 64, 55
1, 167483, Control_c, 0, 64, 45
1, 167497, Control_c, 0, 64, 35
1, 167512, Control_c, 0, 64, 31
1, 167542, Control_c, 0, 64, 34
1, 167545, Note_on_c, 0, 59, 30
1, 167557, Control_c, 0, 64, 42
1, 167571, Control_c, 0, 64, 51
1, 167572, Note_off_c, 0, 37, 32
1, 167586, Control_c, 0, 64, 55
1, 167601, Control_c, 0, 64, 58
1, 167616, Control_c, 0, 64, 60
1, 167630, Control_c, 0, 64, 61
1, 167645, Control_c, 0, 64, 62
1, 167660, Control_c, 0, 64, 64
1, 167665, Note_on_c, 0, 61, 30
1, 167675, Control_c, 0, 64, 65
1, 167689, Control_c, 0, 64, 66
1, 167704, Control_c, 0, 64, 67
1, 167709, Note_off_c, 0, 61, 47
1, 167712, Note_off_c, 0, 59, 34
1, 167719, Control_c, 0, 64, 68
1, 167749, Control_c, 0, 64, 68
1, 167767, Note_on_c, 0, 65, 35
1, 167793, Control_c, 0, 64, 69
1, 167808, Control_c, 0, 64, 69
1, 167831, Note_off_c, 0, 65, 53
1, 167843, Note_on_c, 0, 61, 39
1, 167867, Control_c, 0, 64, 70
1, 167897, Control_c, 0, 64, 70
1, 167902, Note_off_c, 0, 61, 58
1, 167937, Note_on_c, 0, 59, 37
1, 167942, Control_c, 0, 64, 71
1, 167956, Control_c, 0, 64, 71
1, 167986, Control_c, 0, 64, 72
1, 167991, Note_off_c, 0, 59, 56
1, 168041, Note_on_c, 0, 61, 39
1, 168070, Note_off_c, 0, 61, 59
1, 168089, Control_c, 0, 64, 72
1, 168131, Note_on_c, 0, 59, 32
1, 168134, Control_c, 0, 64, 73
1, 168186, Control_c, 0, 64, 73
1, 168198, Note_off_c, 0, 59, 44
1, 168206, Note_on_c, 0, 61, 32
1, 168215, Control_c, 0, 64, 74
1, 168264, Note_off_c, 0, 61, 57
1, 168335, Note_on_c, 0, 65, 39
1, 168403, Note_off_c, 0, 65, 57
1, 168430, Note_on_c, 0, 61, 30
1, 168483, Control_c, 0, 64, 73
1, 168509, Note_on_c, 0, 59, 38
1, 168565, Note_off_c, 0, 59, 61
1, 168572, Control_c, 0, 64, 73
1, 168578, Note_off_c, 0, 68, 60
1, 168604, Note_on_c, 0, 66, 47
1, 168616, Control_c, 0, 64, 72
1, 168645, Control_c, 0, 64, 72
1, 168660, Control_c, 0, 64, 71
1, 168664, Note_off_c, 0, 61, 15
1, 168675, Control_c, 0, 64, 70
1, 168690, Control_c, 0, 64, 69
1, 168720, Control_c, 0, 64, 69
1, 168735, Control_c, 0, 64, 68
1, 168750, Control_c, 0, 64, 67
1, 168764, Control_c, 0, 64, 65
1, 168779, Control_c, 0, 64, 61
1, 168794, Control_c, 0, 64, 58
1, 168796, Note_on_c, 0, 54, 31
1, 168809, Control_c, 0, 64, 55
1, 168823, Control_c, 0, 64, 54
1, 168838, Control_c, 0, 64, 54
1, 168853, Control_c, 0, 64, 56
1, 168862, Note_on_c, 0, 58, 47
1, 168867, Control_c, 0, 64, 58
1, 168882, Control_c, 0, 64, 60
1, 168896, Control_c, 0, 64, 61
1, 168911, Control_c, 0, 64, 62
1, 168922, Note_off_c, 0, 58, 58
1, 168934, Control_c, 0, 64, 63
1, 168949, Control_c, 0, 64, 64
1, 168963, Note_off_c, 0, 54, 21
1, 168964, Control_c, 0, 64, 65
1, 168976, Note_on_c, 0, 61, 39
1, 168978, Control_c, 0, 64, 66
1, 168993, Control_c, 0, 64, 67
1, 169008, Control_c, 0, 64, 68
1, 169023, Control_c, 0, 64, 69
1, 169039, Control_c, 0, 64, 70
1, 169054, Control_c, 0, 64, 71
1, 169068, Control_c, 0, 64, 72
1, 169074, Note_off_c, 0, 61, 54
1, 169076, Note_on_c, 0, 58, 41
1, 169083, Control_c, 0, 64, 73
1, 169098, Control_c, 0, 64, 73
1, 169127, Control_c, 0, 64, 74
1, 169128, Note_off_c, 0, 58, 57
1, 169142, Control_c, 0, 64, 74
1, 169179, Note_on_c, 0, 54, 23
1, 169187, Control_c, 0, 64, 75
1, 169226, Note_off_c, 0, 54, 48
1, 169246, Control_c, 0, 64, 75
1, 169261, Control_c, 0, 64, 76
1, 169263, Note_on_c, 0, 58, 39
1, 169305, Control_c, 0, 64, 76
1, 169315, Note_off_c, 0, 58, 53
1, 169349, Control_c, 0, 64, 77
1, 169352, Note_on_c, 0, 54, 34
1, 169379, Control_c, 0, 64, 78
1, 169408, Control_c, 0, 64, 78
1, 169423, Note_off_c, 0, 54, 48
1, 169423, Control_c, 0, 64, 79
1, 169446, Note_on_c, 0, 58, 39
1, 169453, Control_c, 0, 64, 79
1, 169468, Control_c, 0, 64, 80
1, 169483, Control_c, 0, 64, 80
1, 169498, Control_c, 0, 64, 81
1, 169513, Control_c, 0, 64, 82
1, 169515, Note_off_c, 0, 58, 53
1, 169527, Control_c, 0, 64, 82
1, 169542, Control_c, 0, 64, 83
1, 169557, Control_c, 0, 64, 83
1, 169572, Control_c, 0, 64, 84
1, 169583, Note_off_c, 0, 42, 35
1, 169587, Control_c, 0, 64, 85
1, 169599, Note_on_c, 0, 61, 33
1, 169601, Control_c, 0, 64, 86
1, 169616, Control_c, 0, 64, 86
1, 169683, Control_c, 0, 64, 87
1, 169714, Note_off_c, 0, 49, 38
1, 169765, Note_on_c, 0, 58, 36
1, 169801, Note_off_c, 0, 61, 34
1, 169818, Note_off_c, 0, 66, 24
1, 169895, Note_on_c, 0, 54, 33
1, 169927, Note_off_c, 0, 58, 36
1, 169962, Note_off_c, 0, 54, 57
1, 170010, Control_c, 0, 64, 86
1, 170039, Control_c, 0, 64, 86
1, 170054, Control_c, 0, 64, 85
1, 170083, Control_c, 0, 64, 85
1, 170098, Control_c, 0, 64, 84
1, 170112, Note_on_c, 0, 53, 37
1, 170113, Control_c, 0, 64, 84
1, 170118, Note_on_c, 0, 49, 37
1, 170128, Control_c, 0, 64, 83
1, 170134, Note_on_c, 0, 68, 63
1, 170143, Control_c, 0, 64, 83
1, 170157, Control_c, 0, 64, 81
1, 170172, Control_c, 0, 64, 79
1, 170187, Control_c, 0, 64, 76
1, 170202, Control_c, 0, 64, 74
1, 170217, Control_c, 0, 64, 71
1, 170231, Control_c, 0, 64, 69
1, 170246, Control_c, 0, 64, 67
1, 170261, Control_c, 0, 64, 65
1, 170276, Control_c, 0, 64, 63
1, 170291, Control_c, 0, 64, 61
1, 170306, Control_c, 0, 64, 60
1, 170320, Control_c, 0, 64, 59
1, 170334, Note_on_c, 0, 56, 33
1, 170335, Control_c, 0, 64, 58
1, 170350, Control_c, 0, 64, 55
1, 170365, Control_c, 0, 64, 47
1, 170380, Control_c, 0, 64, 28
1, 170394, Note_on_c, 0, 61, 48
1, 170395, Control_c, 0, 64, 0
1, 170460, Note_off_c, 0, 61, 55
1, 170505, Control_c, 0, 64, 25
1, 170510, Note_on_c, 0, 65, 44
1, 170510, Note_off_c, 0, 56, 36
1, 170520, Control_c, 0, 64, 39
1, 170535, Control_c, 0, 64, 48
1, 170550, Control_c, 0, 64, 54
1, 170565, Control_c, 0, 64, 58
1, 170580, Control_c, 0, 64, 61
1, 170595, Control_c, 0, 64, 63
1, 170599, Note_on_c, 0, 61, 46
1, 170609, Control_c, 0, 64, 65
1, 170616, Note_off_c, 0, 65, 56
1, 170625, Control_c, 0, 64, 67
1, 170640, Control_c, 0, 64, 70
1, 170644, Note_off_c, 0, 61, 61
1, 170654, Control_c, 0, 64, 74
1, 170669, Note_on_c, 0, 56, 43
1, 170669, Control_c, 0, 64, 79
1, 170684, Control_c, 0, 64, 84
1, 170699, Control_c, 0, 64, 90
1, 170710, Note_off_c, 0, 56, 60
1, 170714, Control_c, 0, 64, 95
1, 170729, Control_c, 0, 64, 102
1, 170744, Control_c, 0, 64, 111
1, 170753, Note_on_c, 0, 61, 50
1, 170759, Control_c, 0, 64, 127
1, 170801, Note_off_c, 0, 61, 56
1, 170818, Control_c, 0, 67, 121
1, 170833, Control_c, 0, 67, 108
1, 170840, Note_on_c, 0, 56, 46
1, 170847, Control_c, 0, 67, 93
1, 170862, Control_c, 0, 67, 78
1, 170877, Control_c, 0, 67, 62
1, 170890, Note_off_c, 0, 56, 56
1, 170892, Control_c, 0, 67, 43
1, 170906, Control_c, 0, 67, 28
1, 170917, Note_on_c, 0, 61, 53
1, 170921, Control_c, 0, 67, 14
1, 170936, Control_c, 0, 67, 0
1, 170957, Note_off_c, 0, 61, 57
1, 171019, Note_on_c, 0, 65, 51
1, 171049, Note_off_c, 0, 53, 41
1, 171098, Note_on_c, 0, 61, 54
1, 171119, Note_off_c, 0, 68, 52
1, 171188, Note_on_c, 0, 56, 58
1, 171195, Note_off_c, 0, 61, 58
1, 171271, Note_off_c, 0, 56, 57
1, 171316, Note_on_c, 0, 70, 73
1, 171329, Note_on_c, 0, 55, 46
1, 171331, Note_on_c, 0, 46, 44
1, 171334, Note_on_c, 0, 52, 52
1, 171360, Note_off_c, 0, 65, 61
1, 171387, Control_c, 0, 64, 103
1, 171402, Control_c, 0, 64, 79
1, 171417, Control_c, 0, 64, 65
1, 171432, Control_c, 0, 64, 49
1, 171447, Control_c, 0, 64, 0
1, 171492, Control_c, 0, 64, 16
1, 171506, Note_off_c, 0, 49, 55
1, 171507, Control_c, 0, 64, 35
1, 171521, Control_c, 0, 64, 50
1, 171522, Note_on_c, 0, 61, 42
1, 171536, Control_c, 0, 64, 58
1, 171551, Control_c, 0, 64, 63
1, 171566, Control_c, 0, 64, 67
1, 171567, Note_off_c, 0, 61, 53
1, 171581, Control_c, 0, 64, 75
1, 171595, Control_c, 0, 64, 88
1, 171597, Note_on_c, 0, 64, 53
1, 171610, Control_c, 0, 64, 127
1, 171669, Note_off_c, 0, 64, 54
1, 171677, Note_on_c, 0, 67, 50
1, 171757, Note_on_c, 0, 64, 43
1, 171790, Note_off_c, 0, 67, 58
1, 171817, Note_off_c, 0, 64, 61
1, 171840, Note_on_c, 0, 61, 54
1, 171906, Note_off_c, 0, 61, 48
1, 171924, Note_on_c, 0, 51, 76
1, 171957, Note_on_c, 0, 63, 51
1, 171988, Control_c, 0, 64, 84
1, 172002, Control_c, 0, 64, 68
1, 172004, Note_off_c, 0, 63, 60
1, 172017, Control_c, 0, 64, 57
1, 172032, Control_c, 0, 64, 50
1, 172047, Control_c, 0, 64, 56
1, 172048, Note_on_c, 0, 61, 44
1, 172061, Control_c, 0, 64, 61
1, 172076, Control_c, 0, 64, 64
1, 172081, Note_off_c, 0, 61, 53
1, 172082, Note_off_c, 0, 52, 55
1, 172091, Control_c, 0, 64, 68
1, 172106, Control_c, 0, 64, 74
1, 172115, Note_on_c, 0, 63, 54
1, 172121, Control_c, 0, 64, 87
1, 172136, Control_c, 0, 64, 127
1, 172171, Note_off_c, 0, 63, 49
1, 172203, Note_on_c, 0, 67, 55
1, 172243, Note_off_c, 0, 55, 61
1, 172304, Note_on_c, 0, 63, 55
1, 172309, Note_off_c, 0, 70, 58
1, 172347, Note_off_c, 0, 46, 33
1, 172369, Note_off_c, 0, 51, 64
1, 172389, Note_off_c, 0, 63, 61
1, 172401, Note_on_c, 0, 61, 54
1, 172529, Note_on_c, 0, 73, 79
1, 172531, Note_on_c, 0, 51, 50
1, 172540, Note_off_c, 0, 61, 54
1, 172546, Note_on_c, 0, 55, 54
1, 172549, Note_on_c, 0, 44, 49
1, 172612, Control_c, 0, 64, 112
1, 172626, Control_c, 0, 64, 87
1, 172641, Control_c, 0, 64, 73
1, 172654, Note_off_c, 0, 67, 62
1, 172656, Control_c, 0, 64, 63
1, 172678, Control_c, 0, 64, 43
1, 172685, Note_on_c, 0, 61, 49
1, 172693, Control_c, 0, 64, 0
1, 172774, Note_off_c, 0, 61, 52
1, 172807, Note_on_c, 0, 63, 50
1, 172812, Control_c, 0, 64, 30
1, 172826, Control_c, 0, 64, 51
1, 172841, Control_c, 0, 64, 60
1, 172856, Control_c, 0, 64, 64
1, 172869, Note_off_c, 0, 63, 54
1, 172871, Control_c, 0, 64, 69
1, 172885, Control_c, 0, 64, 75
1, 172900, Control_c, 0, 64, 86
1, 172906, Note_on_c, 0, 70, 46
1, 172915, Control_c, 0, 64, 102
1, 172930, Control_c, 0, 64, 127
1, 173009, Note_on_c, 0, 63, 50
1, 173079, Note_off_c, 0, 63, 57
1, 173114, Note_on_c, 0, 61, 33
1, 173148, Note_off_c, 0, 61, 50
1, 173173, Note_on_c, 0, 63, 45
1, 173211, Note_off_c, 0, 55, 59
1, 173261, Note_off_c, 0, 63, 59
1, 173272, Note_on_c, 0, 61, 49
1, 173283, Note_off_c, 0, 73, 63
1, 173388, Note_on_c, 0, 63, 58
1, 173429, Note_off_c, 0, 61, 34
1, 173445, Note_off_c, 0, 70, 38
1, 173467, Note_on_c, 0, 56, 51
1, 173474, Note_on_c, 0, 71, 70
1, 173486, Control_c, 0, 64, 103
1, 173498, Note_on_c, 0, 68, 47
1, 173501, Control_c, 0, 64, 78
1, 173516, Control_c, 0, 64, 65
1, 173525, Note_off_c, 0, 63, 53
1, 173531, Control_c, 0, 64, 49
1, 173546, Control_c, 0, 64, 43
1, 173561, Control_c, 0, 64, 49
1, 173575, Control_c, 0, 64, 57
1, 173590, Control_c, 0, 64, 62
1, 173605, Control_c, 0, 64, 65
1, 173620, Control_c, 0, 64, 71
1, 173635, Control_c, 0, 64, 81
1, 173649, Control_c, 0, 64, 100
1, 173661, Note_on_c, 0, 63, 53
1, 173664, Control_c, 0, 64, 127
1, 173697, Note_off_c, 0, 71, 57
1, 173710, Note_off_c, 0, 51, 57
1, 173710, Note_off_c, 0, 56, 52
1, 173725, Note_on_c, 0, 59, 50
1, 173728, Note_off_c, 0, 44, 53
1, 173851, Note_on_c, 0, 51, 50
1, 173853, Note_on_c, 0, 71, 73
1, 173864, Note_off_c, 0, 59, 62
1, 173868, Note_on_c, 0, 44, 46
1, 173868, Note_on_c, 0, 56, 42
1, 173872, Control_c, 0, 64, 108
1, 173887, Control_c, 0, 64, 80
1, 173902, Control_c, 0, 64, 65
1, 173917, Control_c, 0, 64, 56
1, 173931, Control_c, 0, 64, 50
1, 173946, Control_c, 0, 64, 52
1, 173947, Note_off_c, 0, 63, 36
1, 173959, Note_off_c, 0, 68, 55
1, 173961, Control_c, 0, 64, 55
1, 173976, Control_c, 0, 64, 60
1, 173991, Control_c, 0, 64, 63
1, 173999, Note_on_c, 0, 59, 49
1, 174005, Control_c, 0, 64, 67
1, 174020, Control_c, 0, 64, 72
1, 174035, Control_c, 0, 64, 80
1, 174050, Control_c, 0, 64, 96
1, 174065, Control_c, 0, 64, 127
1, 174071, Note_on_c, 0, 63, 53
1, 174102, Note_off_c, 0, 59, 37
1, 174143, Note_off_c, 0, 63, 58
1, 174151, Note_off_c, 0, 56, 50
1, 174184, Note_on_c, 0, 68, 54
1, 174279, Note_on_c, 0, 63, 55
1, 174315, Note_off_c, 0, 63, 63
1, 174339, Poly_aftertouch_c, 0, 46, 127
1, 174348, Note_on_c, 0, 59, 50
1, 174396, Note_off_c, 0, 59, 57
1, 174425, Note_on_c, 0, 63, 55
1, 174427, Note_off_c, 0, 51, 36
1, 174485, Note_off_c, 0, 68, 30
1, 174493, Note_off_c, 0, 63, 60
1, 174501, Note_off_c, 0, 44, 63
1, 174505, Poly_aftertouch_c, 0, 46, 0
1, 174514, Poly_aftertouch_c, 0, 69, 127
1, 174516, Note_on_c, 0, 59, 60
1, 174582, Note_on_c, 0, 63, 67
1, 174676, Poly_aftertouch_c, 0, 69, 0
1, 174683, Note_on_c, 0, 68, 74
1, 174684, Note_off_c, 0, 63, 61
1, 174713, Poly_aftertouch_c, 0, 69, 127
1, 174725, Note_off_c, 0, 59, 39
1, 174775, Note_on_c, 0, 42, 80
1, 174787, Note_on_c, 0, 63, 72
1, 174796, Note_off_c, 0, 71, 56
1, 174819, Poly_aftertouch_c, 0, 69, 0
1, 174885, Note_on_c, 0, 59, 76
1, 174925, Note_off_c, 0, 63, 62
1, 175066, Note_on_c, 0, 40, 76
1, 175084, Note_on_c, 0, 71, 92
1, 175133, Note_off_c, 0, 59, 59
1, 175161, Control_c, 0, 64, 102
1, 175161, Note_off_c, 0, 68, 55
1, 175176, Control_c, 0, 64, 76
1, 175191, Control_c, 0, 64, 59
1, 175206, Control_c, 0, 64, 0
1, 175209, Note_off_c, 0, 42, 33
1, 175270, Note_on_c, 0, 59, 52
1, 175309, Control_c, 0, 64, 25
1, 175324, Control_c, 0, 64, 44
1, 175339, Control_c, 0, 64, 55
1, 175347, Note_off_c, 0, 59, 53
1, 175353, Control_c, 0, 64, 61
1, 175367, Note_on_c, 0, 64, 44
1, 175368, Control_c, 0, 64, 66
1, 175383, Control_c, 0, 64, 73
1, 175398, Control_c, 0, 64, 92
1, 175411, Note_off_c, 0, 64, 61
1, 175414, Control_c, 0, 64, 127
1, 175437, Note_on_c, 0, 68, 51
1, 175522, Note_on_c, 0, 64, 47
1, 175582, Note_off_c, 0, 64, 58
1, 175597, Note_off_c, 0, 68, 33
1, 175611, Note_on_c, 0, 59, 48
1, 175666, Note_off_c, 0, 59, 61
1, 175719, Note_on_c, 0, 64, 44
1, 175752, Note_off_c, 0, 64, 56
1, 175776, Note_on_c, 0, 59, 52
1, 175812, Note_off_c, 0, 59, 61
1, 175844, Note_on_c, 0, 64, 56
1, 175905, Note_off_c, 0, 64, 54
1, 175941, Note_on_c, 0, 68, 62
1, 176022, Note_off_c, 0, 71, 51
1, 176030, Note_on_c, 0, 64, 63
1, 176089, Note_on_c, 0, 59, 67
1, 176163, Note_off_c, 0, 68, 59
1, 176190, Note_on_c, 0, 39, 76
1, 176202, Note_on_c, 0, 71, 91
1, 176228, Note_off_c, 0, 59, 59
1, 176237, Control_c, 0, 64, 83
1, 176252, Control_c, 0, 64, 62
1, 176253, Note_off_c, 0, 64, 60
1, 176266, Control_c, 0, 64, 0
1, 176307, Note_off_c, 0, 40, 39
1, 176325, Control_c, 0, 64, 42
1, 176340, Control_c, 0, 64, 60
1, 176351, Note_on_c, 0, 59, 59
1, 176356, Control_c, 0, 64, 69
1, 176371, Control_c, 0, 64, 88
1, 176385, Control_c, 0, 64, 127
1, 176404, Poly_aftertouch_c, 0, 68, 127
1, 176425, Note_off_c, 0, 59, 63
1, 176431, Note_on_c, 0, 63, 62
1, 176471, Note_off_c, 0, 39, 63
1, 176518, Note_off_c, 0, 63, 58
1, 176530, Note_on_c, 0, 66, 69
1, 176616, Note_off_c, 0, 71, 58
1, 176622, Note_on_c, 0, 63, 69
1, 176690, Poly_aftertouch_c, 0, 68, 0
1, 176712, Note_on_c, 0, 59, 70
1, 176715, Note_off_c, 0, 66, 56
1, 176741, Note_off_c, 0, 59, 65
1, 176764, Note_off_c, 0, 63, 64
1, 176819, Note_on_c, 0, 39, 69
1, 176832, Note_on_c, 0, 73, 87
1, 176837, Control_c, 0, 64, 89
1, 176852, Control_c, 0, 64, 65
1, 176861, Note_on_c, 0, 75, 52
1, 176867, Control_c, 0, 64, 16
1, 176880, Note_off_c, 0, 75, 57
1, 176881, Control_c, 0, 64, 0
1, 176908, Note_off_c, 0, 39, 62
1, 176919, Note_on_c, 0, 37, 66
1, 176926, Control_c, 0, 64, 49
1, 176941, Control_c, 0, 64, 63
1, 176956, Control_c, 0, 64, 75
1, 176962, Note_off_c, 0, 37, 61
1, 176971, Control_c, 0, 64, 127
1, 176980, Note_on_c, 0, 39, 62
1, 176994, Note_on_c, 0, 64, 58
1, 177034, Note_off_c, 0, 39, 64
1, 177039, Note_on_c, 0, 37, 72
1, 177046, Note_off_c, 0, 64, 53
1, 177063, Note_on_c, 0, 66, 64
1, 177076, Note_off_c, 0, 37, 59
1, 177121, Note_on_c, 0, 39, 50
1, 177141, Note_off_c, 0, 66, 62
1, 177145, Note_off_c, 0, 39, 59
1, 177146, Note_on_c, 0, 37, 55
1, 177153, Note_on_c, 0, 70, 68
1, 177184, Note_off_c, 0, 73, 55
1, 177197, Note_off_c, 0, 37, 59
1, 177204, Note_on_c, 0, 39, 69
1, 177230, Note_on_c, 0, 66, 64
1, 177261, Note_on_c, 0, 37, 66
1, 177261, Note_off_c, 0, 39, 58
1, 177265, Note_off_c, 0, 70, 64
1, 177289, Note_off_c, 0, 66, 59
1, 177296, Note_on_c, 0, 64, 76
1, 177321, Note_on_c, 0, 35, 70
1, 177331, Note_off_c, 0, 37, 61
1, 177390, Note_on_c, 0, 37, 73
1, 177409, Note_off_c, 0, 35, 59
1, 177536, Note_on_c, 0, 76, 95
1, 177545, Note_on_c, 0, 35, 70
1, 177591, Note_off_c, 0, 37, 55
1, 177601, Control_c, 0, 64, 105
1, 177605, Note_off_c, 0, 64, 45
1, 177615, Control_c, 0, 64, 78
1, 177630, Control_c, 0, 64, 63
1, 177645, Control_c, 0, 64, 49
1, 177660, Control_c, 0, 64, 29
1, 177675, Control_c, 0, 64, 24
1, 177689, Control_c, 0, 64, 13
1, 177704, Control_c, 0, 64, 0
1, 177763, Note_on_c, 0, 64, 43
1, 177808, Control_c, 0, 64, 9
1, 177824, Control_c, 0, 64, 24
1, 177838, Control_c, 0, 64, 35
1, 177853, Control_c, 0, 64, 47
1, 177863, Note_on_c, 0, 66, 63
1, 177868, Control_c, 0, 64, 56
1, 177883, Control_c, 0, 64, 60
1, 177898, Control_c, 0, 64, 63
1, 177920, Control_c, 0, 64, 65
1, 177935, Control_c, 0, 64, 68
1, 177950, Control_c, 0, 64, 71
1, 177965, Control_c, 0, 64, 75
1, 177979, Control_c, 0, 64, 79
1, 177994, Control_c, 0, 64, 83
1, 178002, Note_on_c, 0, 73, 71
1, 178009, Control_c, 0, 64, 89
1, 178010, Note_off_c, 0, 66, 62
1, 178024, Control_c, 0, 64, 101
1, 178028, Note_off_c, 0, 64, 26
1, 178038, Control_c, 0, 64, 127
1, 178127, Note_on_c, 0, 66, 62
1, 178215, Note_off_c, 0, 66, 61
1, 178238, Note_on_c, 0, 64, 52
1, 178301, Note_off_c, 0, 64, 52
1, 178309, Note_on_c, 0, 66, 61
1, 178325, Poly_aftertouch_c, 0, 74, 127
1, 178361, Note_off_c, 0, 76, 57
1, 178377, Note_off_c, 0, 73, 38
1, 178386, Poly_aftertouch_c, 0, 74, 0
1, 178390, Note_off_c, 0, 66, 61
1, 178407, Note_on_c, 0, 64, 68
1, 178481, Note_on_c, 0, 66, 56
1, 178494, Note_off_c, 0, 64, 61
1, 178589, Note_on_c, 0, 75, 88
1, 178599, Note_on_c, 0, 71, 57
1, 178632, Control_c, 0, 64, 84
1, 178647, Control_c, 0, 64, 63
1, 178655, Note_off_c, 0, 66, 52
1, 178669, Control_c, 0, 64, 32
1, 178684, Control_c, 0, 64, 0
1, 178729, Control_c, 0, 64, 41
1, 178743, Control_c, 0, 64, 57
1, 178758, Control_c, 0, 64, 64
1, 178766, Note_on_c, 0, 66, 50
1, 178773, Control_c, 0, 64, 71
1, 178788, Control_c, 0, 64, 84
1, 178802, Control_c, 0, 64, 127
1, 178830, Note_off_c, 0, 75, 59
1, 178909, Note_on_c, 0, 63, 70
1, 178935, Note_off_c, 0, 66, 63
1, 179088, Note_on_c, 0, 75, 84
1, 179132, Note_off_c, 0, 63, 56
1, 179242, Note_off_c, 0, 71, 59
1, 179264, Note_on_c, 0, 63, 51
1, 179335, Note_off_c, 0, 63, 58
1, 179362, Note_on_c, 0, 66, 49
1, 179485, Note_off_c, 0, 66, 57
1, 179499, Note_on_c, 0, 71, 60
1, 179622, Note_on_c, 0, 66, 55
1, 179634, Note_off_c, 0, 71, 57
1, 179683, Note_off_c, 0, 66, 58
1, 179704, Note_on_c, 0, 63, 45
1, 179761, Note_off_c, 0, 63, 51
1, 179806, Note_on_c, 0, 66, 48
1, 179806, Note_off_c, 0, 35, 31
1, 179853, Note_off_c, 0, 66, 58
1, 179894, Note_on_c, 0, 63, 41
1, 179939, Note_off_c, 0, 63, 50
1, 179967, Note_on_c, 0, 66, 52
1, 180066, Note_off_c, 0, 66, 54
1, 180104, Note_on_c, 0, 71, 46
1, 180127, Control_c, 0, 67, 24
1, 180142, Control_c, 0, 67, 48
1, 180164, Control_c, 0, 67, 70
1, 180179, Control_c, 0, 67, 92
1, 180194, Control_c, 0, 67, 115
1, 180210, Control_c, 0, 67, 127
1, 180241, Note_on_c, 0, 66, 39
1, 180306, Note_off_c, 0, 75, 49
1, 180406, Note_on_c, 0, 63, 35
1, 180474, Note_off_c, 0, 71, 36
1, 180545, Note_off_c, 0, 66, 33
1, 180785, Note_off_c, 0, 63, 10
1, 180794, Note_on_c, 0, 75, 62
1, 180817, Note_on_c, 0, 54, 43
1, 180868, Note_on_c, 0, 47, 33
1, 180876, Control_c, 0, 64, 104
1, 180891, Control_c, 0, 64, 85
1, 180914, Control_c, 0, 64, 72
1, 180929, Control_c, 0, 64, 62
1, 180944, Control_c, 0, 64, 47
1, 180959, Control_c, 0, 64, 26
1, 180973, Control_c, 0, 64, 9
1, 180988, Control_c, 0, 64, 0
1, 181026, Note_on_c, 0, 63, 24
1, 181120, Note_on_c, 0, 66, 39
1, 181123, Control_c, 0, 64, 23
1, 181137, Control_c, 0, 64, 40
1, 181152, Control_c, 0, 64, 52
1, 181167, Control_c, 0, 64, 60
1, 181181, Note_off_c, 0, 66, 57
1, 181181, Control_c, 0, 64, 63
1, 181187, Note_off_c, 0, 63, 29
1, 181196, Control_c, 0, 64, 64
1, 181211, Control_c, 0, 64, 65
1, 181226, Control_c, 0, 64, 67
1, 181236, Note_on_c, 0, 71, 35
1, 181241, Control_c, 0, 64, 70
1, 181256, Control_c, 0, 64, 73
1, 181270, Control_c, 0, 64, 77
1, 181285, Control_c, 0, 64, 79
1, 181300, Control_c, 0, 64, 82
1, 181315, Control_c, 0, 64, 83
1, 181322, Note_off_c, 0, 71, 50
1, 181330, Control_c, 0, 64, 84
1, 181332, Note_on_c, 0, 66, 42
1, 181379, Note_off_c, 0, 66, 54
1, 181421, Note_on_c, 0, 63, 28
1, 181465, Note_off_c, 0, 63, 47
1, 181509, Note_on_c, 0, 66, 29
1, 181537, Control_c, 0, 64, 84
1, 181552, Note_off_c, 0, 66, 46
1, 181581, Control_c, 0, 64, 84
1, 181597, Note_on_c, 0, 63, 31
1, 181648, Note_off_c, 0, 63, 44
1, 181692, Control_c, 0, 64, 85
1, 181696, Note_on_c, 0, 66, 39
1, 181743, Note_off_c, 0, 66, 55
1, 181795, Control_c, 0, 64, 85
1, 181823, Note_on_c, 0, 71, 32
1, 181912, Note_off_c, 0, 54, 37
1, 181937, Note_on_c, 0, 66, 33
1, 181979, Note_off_c, 0, 47, 35
1, 182039, Note_off_c, 0, 75, 26
1, 182063, Note_on_c, 0, 63, 32
1, 182107, Control_c, 0, 64, 85
1, 182135, Note_off_c, 0, 66, 37
1, 182152, Control_c, 0, 64, 84
1, 182167, Control_c, 0, 64, 84
1, 182181, Control_c, 0, 64, 83
1, 182196, Control_c, 0, 64, 83
1, 182211, Control_c, 0, 64, 82
1, 182226, Control_c, 0, 64, 82
1, 182241, Control_c, 0, 64, 81
1, 182246, Note_off_c, 0, 63, 40
1, 182251, Note_on_c, 0, 75, 51
1, 182256, Note_on_c, 0, 47, 35
1, 182267, Note_on_c, 0, 56, 29
1, 182271, Control_c, 0, 64, 81
1, 182280, Note_off_c, 0, 71, 32
1, 182285, Control_c, 0, 64, 78
1, 182300, Control_c, 0, 64, 72
1, 182315, Control_c, 0, 64, 65
1, 182329, Control_c, 0, 64, 56
1, 182344, Control_c, 0, 64, 46
1, 182359, Control_c, 0, 64, 42
1, 182374, Control_c, 0, 64, 43
1, 182389, Control_c, 0, 64, 47
1, 182411, Control_c, 0, 64, 53
1, 182426, Control_c, 0, 64, 57
1, 182441, Control_c, 0, 64, 60
1, 182449, Note_on_c, 0, 68, 31
1, 182456, Control_c, 0, 64, 63
1, 182471, Control_c, 0, 64, 66
1, 182485, Control_c, 0, 64, 68
1, 182500, Control_c, 0, 64, 72
1, 182515, Control_c, 0, 64, 76
1, 182530, Control_c, 0, 64, 80
1, 182533, Note_off_c, 0, 68, 37
1, 182544, Control_c, 0, 64, 84
1, 182557, Note_on_c, 0, 65, 30
1, 182559, Control_c, 0, 64, 87
1, 182574, Control_c, 0, 64, 89
1, 182577, Note_on_c, 0, 71, 46
1, 182589, Control_c, 0, 64, 89
1, 182612, Note_off_c, 0, 65, 43
1, 182620, Control_c, 0, 64, 90
1, 182649, Control_c, 0, 64, 90
1, 182655, Note_off_c, 0, 75, 35
1, 182687, Note_on_c, 0, 68, 50
1, 182697, Note_off_c, 0, 71, 58
1, 182752, Control_c, 0, 64, 90
1, 182757, Note_off_c, 0, 68, 56
1, 182812, Note_on_c, 0, 65, 35
1, 182849, Note_off_c, 0, 65, 50
1, 182856, Control_c, 0, 64, 89
1, 182864, Note_on_c, 0, 53, 43
1, 182865, Note_on_c, 0, 70, 62
1, 182871, Control_c, 0, 64, 85
1, 182886, Control_c, 0, 64, 79
1, 182900, Control_c, 0, 64, 71
1, 182915, Control_c, 0, 64, 65
1, 182930, Control_c, 0, 64, 61
1, 182945, Control_c, 0, 64, 62
1, 182946, Note_off_c, 0, 56, 43
1, 182959, Control_c, 0, 64, 64
1, 182974, Note_on_c, 0, 65, 42
1, 182974, Control_c, 0, 64, 65
1, 182989, Control_c, 0, 64, 67
1, 183004, Control_c, 0, 64, 68
1, 183019, Control_c, 0, 64, 71
1, 183034, Control_c, 0, 64, 74
1, 183049, Control_c, 0, 64, 79
1, 183064, Control_c, 0, 64, 82
1, 183079, Control_c, 0, 64, 84
1, 183082, Note_on_c, 0, 61, 39
1, 183094, Control_c, 0, 64, 85
1, 183130, Note_off_c, 0, 65, 49
1, 183165, Note_off_c, 0, 61, 47
1, 183180, Note_off_c, 0, 47, 38
1, 183183, Note_on_c, 0, 68, 54
1, 183219, Control_c, 0, 64, 84
1, 183264, Control_c, 0, 64, 84
1, 183286, Note_on_c, 0, 65, 42
1, 183293, Control_c, 0, 64, 83
1, 183311, Note_off_c, 0, 70, 59
1, 183323, Control_c, 0, 64, 83
1, 183353, Control_c, 0, 64, 82
1, 183368, Note_off_c, 0, 65, 51
1, 183382, Control_c, 0, 64, 82
1, 183386, Note_on_c, 0, 61, 32
1, 183397, Control_c, 0, 64, 81
1, 183413, Control_c, 0, 64, 81
1, 183427, Control_c, 0, 64, 80
1, 183442, Control_c, 0, 64, 79
1, 183457, Control_c, 0, 64, 77
1, 183472, Control_c, 0, 64, 75
1, 183487, Control_c, 0, 64, 74
1, 183502, Note_on_c, 0, 46, 34
1, 183502, Control_c, 0, 64, 73
1, 183508, Note_on_c, 0, 54, 23
1, 183517, Control_c, 0, 64, 72
1, 183527, Note_on_c, 0, 73, 60
1, 183531, Control_c, 0, 64, 71
1, 183535, Note_off_c, 0, 61, 35
1, 183546, Control_c, 0, 64, 69
1, 183561, Control_c, 0, 64, 66
1, 183575, Note_off_c, 0, 68, 52
1, 183576, Control_c, 0, 64, 62
1, 183590, Control_c, 0, 64, 51
1, 183593, Note_off_c, 0, 53, 52
1, 183605, Control_c, 0, 64, 41
1, 183620, Control_c, 0, 64, 34
1, 183635, Control_c, 0, 64, 32
1, 183664, Note_on_c, 0, 61, 42
1, 183664, Control_c, 0, 64, 33
1, 183679, Control_c, 0, 64, 38
1, 183694, Control_c, 0, 64, 43
1, 183709, Control_c, 0, 64, 50
1, 183723, Control_c, 0, 64, 54
1, 183738, Control_c, 0, 64, 56
1, 183749, Note_on_c, 0, 66, 46
1, 183753, Control_c, 0, 64, 58
1, 183768, Control_c, 0, 64, 61
1, 183771, Note_off_c, 0, 61, 37
1, 183782, Control_c, 0, 64, 63
1, 183797, Control_c, 0, 64, 64
1, 183811, Note_off_c, 0, 66, 58
1, 183812, Control_c, 0, 64, 65
1, 183827, Control_c, 0, 64, 66
1, 183838, Note_on_c, 0, 70, 44
1, 183842, Control_c, 0, 64, 67
1, 183857, Control_c, 0, 64, 68
1, 183872, Control_c, 0, 64, 69
1, 183887, Control_c, 0, 64, 69
1, 183909, Control_c, 0, 64, 70
1, 183924, Control_c, 0, 64, 71
1, 183938, Control_c, 0, 64, 71
1, 183953, Control_c, 0, 64, 72
1, 183967, Note_on_c, 0, 66, 35
1, 183980, Note_off_c, 0, 70, 35
1, 183982, Control_c, 0, 64, 72
1, 184002, Note_off_c, 0, 66, 52
1, 184027, Control_c, 0, 64, 73
1, 184033, Note_on_c, 0, 61, 37
1, 184056, Control_c, 0, 64, 73
1, 184071, Note_off_c, 0, 61, 58
1, 184086, Control_c, 0, 64, 74
1, 184101, Control_c, 0, 64, 74
1, 184116, Control_c, 0, 64, 75
1, 184124, Note_on_c, 0, 66, 38
1, 184131, Control_c, 0, 64, 76
1, 184146, Control_c, 0, 64, 76
1, 184160, Note_off_c, 0, 66, 50
1, 184202, Note_on_c, 0, 61, 36
1, 184268, Note_off_c, 0, 61, 50
1, 184284, Note_on_c, 0, 66, 42
1, 184343, Note_off_c, 0, 66, 56
1, 184387, Note_on_c, 0, 70, 42
1, 184451, Note_off_c, 0, 46, 35
1, 184458, Control_c, 0, 64, 76
1, 184463, Note_off_c, 0, 54, 44
1, 184492, Note_off_c, 0, 73, 53
1, 184504, Note_on_c, 0, 66, 35
1, 184611, Note_on_c, 0, 61, 27
1, 184688, Control_c, 0, 64, 75
1, 184718, Control_c, 0, 64, 75
1, 184743, Note_on_c, 0, 73, 51
1, 184761, Note_off_c, 0, 66, 36
1, 184765, Note_on_c, 0, 47, 31
1, 184778, Note_on_c, 0, 54, 34
1, 184781, Note_off_c, 0, 61, 35
1, 184806, Control_c, 0, 64, 74
1, 184821, Control_c, 0, 64, 71
1, 184836, Control_c, 0, 64, 66
1, 184851, Control_c, 0, 64, 60
1, 184866, Control_c, 0, 64, 53
1, 184880, Control_c, 0, 64, 51
1, 184895, Control_c, 0, 64, 54
1, 184910, Control_c, 0, 64, 58
1, 184925, Control_c, 0, 64, 61
1, 184930, Note_on_c, 0, 66, 29
1, 184935, Note_off_c, 0, 73, 64
1, 184939, Control_c, 0, 64, 63
1, 184954, Control_c, 0, 64, 65
1, 184969, Control_c, 0, 64, 68
1, 184984, Control_c, 0, 64, 72
1, 184992, Note_off_c, 0, 70, 42
1, 184999, Control_c, 0, 64, 77
1, 185004, Note_on_c, 0, 63, 28
1, 185015, Control_c, 0, 64, 82
1, 185029, Control_c, 0, 64, 86
1, 185044, Control_c, 0, 64, 89
1, 185046, Note_off_c, 0, 63, 48
1, 185050, Note_on_c, 0, 71, 63
1, 185051, Note_off_c, 0, 66, 47
1, 185059, Control_c, 0, 64, 91
1, 185074, Control_c, 0, 64, 93
1, 185089, Control_c, 0, 64, 94
1, 185103, Control_c, 0, 64, 95
1, 185118, Control_c, 0, 64, 96
1, 185133, Control_c, 0, 64, 97
1, 185139, Note_on_c, 0, 66, 39
1, 185148, Control_c, 0, 64, 98
1, 185163, Control_c, 0, 64, 99
1, 185237, Control_c, 0, 64, 99
1, 185243, Note_on_c, 0, 63, 46
1, 185261, Note_off_c, 0, 66, 34
1, 185282, Control_c, 0, 64, 100
1, 185284, Note_off_c, 0, 63, 51
1, 185311, Control_c, 0, 64, 100
1, 185320, Note_on_c, 0, 68, 67
1, 185339, Note_on_c, 0, 56, 47
1, 185370, Control_c, 0, 64, 101
1, 185393, Note_off_c, 0, 71, 36
1, 185407, Control_c, 0, 64, 102
1, 185422, Control_c, 0, 64, 104
1, 185433, Note_on_c, 0, 63, 51
1, 185436, Control_c, 0, 64, 107
1, 185451, Control_c, 0, 64, 113
1, 185461, Note_off_c, 0, 68, 61
1, 185466, Control_c, 0, 64, 118
1, 185481, Control_c, 0, 64, 121
1, 185496, Control_c, 0, 64, 123
1, 185511, Note_off_c, 0, 63, 57
1, 185542, Note_on_c, 0, 59, 48
1, 185586, Note_off_c, 0, 59, 59
1, 185621, Note_on_c, 0, 63, 73
1, 185648, Note_off_c, 0, 56, 37
1, 185658, Control_c, 0, 64, 121
1, 185677, Note_off_c, 0, 54, 41
1, 185717, Note_on_c, 0, 59, 39
1, 185717, Control_c, 0, 64, 119
1, 185732, Control_c, 0, 64, 117
1, 185747, Control_c, 0, 64, 116
1, 185791, Control_c, 0, 64, 115
1, 185807, Control_c, 0, 64, 114
1, 185822, Control_c, 0, 64, 113
1, 185837, Control_c, 0, 64, 112
1, 185851, Control_c, 0, 64, 111
1, 185858, Note_off_c, 0, 59, 54
1, 185866, Control_c, 0, 64, 109
1, 185867, Note_on_c, 0, 56, 43
1, 185881, Control_c, 0, 64, 108
1, 185896, Control_c, 0, 64, 107
1, 185911, Control_c, 0, 64, 106
1, 185925, Control_c, 0, 64, 104
1, 185940, Control_c, 0, 64, 102
1, 185955, Control_c, 0, 64, 100
1, 185970, Control_c, 0, 64, 99
1, 185985, Note_on_c, 0, 49, 41
1, 185985, Control_c, 0, 64, 97
1, 186000, Control_c, 0, 64, 94
1, 186008, Note_on_c, 0, 66, 69
1, 186015, Control_c, 0, 64, 91
1, 186030, Control_c, 0, 64, 87
1, 186045, Control_c, 0, 64, 85
1, 186059, Control_c, 0, 64, 83
1, 186074, Control_c, 0, 64, 81
1, 186079, Note_off_c, 0, 56, 34
1, 186086, Note_off_c, 0, 63, 58
1, 186089, Control_c, 0, 64, 77
1, 186104, Control_c, 0, 64, 70
1, 186119, Control_c, 0, 64, 63
1, 186133, Control_c, 0, 64, 52
1, 186155, Control_c, 0, 64, 37
1, 186170, Control_c, 0, 64, 25
1, 186179, Note_off_c, 0, 47, 41
1, 186185, Control_c, 0, 64, 24
1, 186200, Control_c, 0, 64, 23
1, 186228, Note_on_c, 0, 54, 31
1, 186244, Control_c, 0, 64, 25
1, 186259, Control_c, 0, 64, 32
1, 186274, Control_c, 0, 64, 41
1, 186285, Note_off_c, 0, 54, 42
1, 186289, Control_c, 0, 64, 50
1, 186292, Note_on_c, 0, 58, 45
1, 186304, Control_c, 0, 64, 54
1, 186319, Control_c, 0, 64, 57
1, 186333, Control_c, 0, 64, 60
1, 186348, Control_c, 0, 64, 63
1, 186349, Note_off_c, 0, 58, 58
1, 186363, Control_c, 0, 64, 65
1, 186377, Control_c, 0, 64, 67
1, 186392, Control_c, 0, 64, 70
1, 186405, Note_on_c, 0, 61, 40
1, 186407, Control_c, 0, 64, 72
1, 186422, Control_c, 0, 64, 76
1, 186437, Control_c, 0, 64, 79
1, 186451, Control_c, 0, 64, 81
1, 186466, Control_c, 0, 64, 84
1, 186481, Control_c, 0, 64, 85
1, 186496, Control_c, 0, 64, 85
1, 186515, Note_on_c, 0, 58, 38
1, 186516, Note_off_c, 0, 61, 50
1, 186540, Control_c, 0, 64, 86
1, 186547, Note_off_c, 0, 58, 52
1, 186570, Control_c, 0, 64, 86
1, 186581, Note_on_c, 0, 54, 45
1, 186584, Control_c, 0, 64, 87
1, 186600, Control_c, 0, 64, 87
1, 186618, Note_off_c, 0, 54, 57
1, 186630, Control_c, 0, 64, 88
1, 186645, Control_c, 0, 64, 88
1, 186651, Note_on_c, 0, 58, 49
1, 186660, Control_c, 0, 64, 89
1, 186674, Control_c, 0, 64, 90
1, 186689, Control_c, 0, 64, 91
1, 186697, Note_off_c, 0, 58, 56
1, 186704, Control_c, 0, 64, 92
1, 186719, Control_c, 0, 64, 93
1, 186747, Note_on_c, 0, 54, 43
1, 186748, Control_c, 0, 64, 93
1, 186763, Control_c, 0, 64, 94
1, 186778, Control_c, 0, 64, 94
1, 186791, Note_off_c, 0, 54, 53
1, 186793, Control_c, 0, 64, 95
1, 186808, Control_c, 0, 64, 97
1, 186823, Control_c, 0, 64, 99
1, 186826, Note_on_c, 0, 58, 49
1, 186838, Control_c, 0, 64, 99
1, 186853, Control_c, 0, 64, 100
1, 186867, Note_off_c, 0, 58, 59
1, 186867, Control_c, 0, 64, 101
1, 186912, Note_off_c, 0, 49, 56
1, 186935, Note_on_c, 0, 61, 41
1, 187006, Note_on_c, 0, 58, 42
1, 187052, Control_c, 0, 64, 101
1, 187067, Control_c, 0, 64, 100
1, 187094, Note_on_c, 0, 54, 41
1, 187097, Control_c, 0, 64, 99
1, 187115, Note_off_c, 0, 58, 38
1, 187124, Note_off_c, 0, 66, 38
1, 187127, Control_c, 0, 64, 99
1, 187139, Note_on_c, 0, 37, 44
1, 187171, Control_c, 0, 64, 99
1, 187186, Control_c, 0, 64, 100
1, 187215, Control_c, 0, 64, 99
1, 187230, Control_c, 0, 64, 96
1, 187245, Control_c, 0, 64, 89
1, 187260, Control_c, 0, 64, 80
1, 187273, Note_on_c, 0, 66, 57
1, 187274, Control_c, 0, 64, 72
1, 187278, Note_off_c, 0, 54, 62
1, 187289, Control_c, 0, 64, 67
1, 187304, Control_c, 0, 64, 66
1, 187306, Note_on_c, 0, 49, 30
1, 187319, Control_c, 0, 64, 67
1, 187333, Control_c, 0, 64, 70
1, 187348, Control_c, 0, 64, 73
1, 187363, Control_c, 0, 64, 77
1, 187378, Control_c, 0, 64, 81
1, 187394, Control_c, 0, 64, 86
1, 187409, Control_c, 0, 64, 98
1, 187415, Note_on_c, 0, 59, 42
1, 187423, Control_c, 0, 64, 121
1, 187437, Poly_aftertouch_c, 0, 63, 127
1, 187438, Control_c, 0, 64, 127
1, 187466, Note_off_c, 0, 37, 35
1, 187500, Note_off_c, 0, 66, 57
1, 187509, Note_on_c, 0, 56, 37
1, 187541, Poly_aftertouch_c, 0, 63, 0
1, 187547, Note_off_c, 0, 56, 51
1, 187567, Note_off_c, 0, 59, 61
1, 187574, Note_off_c, 0, 61, 52
1, 187575, Note_on_c, 0, 65, 62
1, 187601, Control_c, 0, 67, 119
1, 187616, Control_c, 0, 67, 100
1, 187631, Control_c, 0, 67, 81
1, 187653, Control_c, 0, 67, 61
1, 187668, Control_c, 0, 67, 41
1, 187675, Note_off_c, 0, 65, 61
1, 187683, Note_on_c, 0, 59, 53
1, 187683, Control_c, 0, 67, 23
1, 187697, Control_c, 0, 67, 0
1, 187726, Note_off_c, 0, 59, 64
1, 187762, Note_on_c, 0, 56, 44
1, 187795, Note_off_c, 0, 56, 60
1, 187869, Note_on_c, 0, 54, 53
1, 187869, Note_on_c, 0, 70, 71
1, 187920, Control_c, 0, 64, 92
1, 187935, Control_c, 0, 64, 71
1, 187950, Control_c, 0, 64, 58
1, 187964, Control_c, 0, 64, 29
1, 187979, Control_c, 0, 64, 21
1, 187991, Note_off_c, 0, 49, 60
1, 187994, Control_c, 0, 64, 28
1, 188009, Control_c, 0, 64, 42
1, 188018, Note_on_c, 0, 61, 47
1, 188023, Control_c, 0, 64, 54
1, 188038, Control_c, 0, 64, 59
1, 188049, Note_off_c, 0, 70, 61
1, 188053, Control_c, 0, 64, 62
1, 188068, Control_c, 0, 64, 65
1, 188083, Control_c, 0, 64, 69
1, 188087, Note_on_c, 0, 59, 44
1, 188097, Control_c, 0, 64, 76
1, 188112, Control_c, 0, 64, 86
1, 188127, Control_c, 0, 64, 101
1, 188142, Control_c, 0, 64, 127
1, 188164, Note_on_c, 0, 68, 77
1, 188168, Note_on_c, 0, 53, 56
1, 188173, Note_off_c, 0, 61, 28
1, 188180, Note_off_c, 0, 59, 59
1, 188209, Note_off_c, 0, 54, 59
1, 188283, Note_on_c, 0, 61, 46
1, 188344, Note_off_c, 0, 68, 55
1, 188352, Note_off_c, 0, 61, 60
1, 188380, Note_on_c, 0, 59, 64
1, 188520, Note_on_c, 0, 54, 45
1, 188541, Note_on_c, 0, 51, 55
1, 188543, Note_on_c, 0, 71, 82
1, 188575, Note_off_c, 0, 59, 52
1, 188609, Note_off_c, 0, 53, 57
1, 188610, Control_c, 0, 64, 107
1, 188625, Control_c, 0, 64, 92
1, 188640, Control_c, 0, 64, 81
1, 188654, Control_c, 0, 64, 71
1, 188669, Control_c, 0, 64, 63
1, 188684, Control_c, 0, 64, 49
1, 188699, Control_c, 0, 64, 0
1, 188710, Note_on_c, 0, 59, 44
1, 188778, Note_on_c, 0, 63, 44
1, 188817, Control_c, 0, 64, 25
1, 188824, Note_off_c, 0, 63, 57
1, 188832, Control_c, 0, 64, 40
1, 188847, Control_c, 0, 64, 50
1, 188862, Control_c, 0, 64, 56
1, 188877, Note_on_c, 0, 66, 43
1, 188877, Control_c, 0, 64, 59
1, 188884, Note_off_c, 0, 59, 41
1, 188891, Control_c, 0, 64, 62
1, 188906, Control_c, 0, 64, 63
1, 188921, Control_c, 0, 64, 65
1, 188936, Control_c, 0, 64, 67
1, 188951, Control_c, 0, 64, 70
1, 188962, Note_on_c, 0, 63, 42
1, 188966, Control_c, 0, 64, 74
1, 188980, Control_c, 0, 64, 81
1, 188996, Control_c, 0, 64, 87
1, 189011, Control_c, 0, 64, 95
1, 189012, Note_off_c, 0, 66, 30
1, 189020, Note_off_c, 0, 63, 58
1, 189026, Control_c, 0, 64, 107
1, 189041, Control_c, 0, 64, 127
1, 189056, Note_on_c, 0, 59, 43
1, 189103, Note_off_c, 0, 59, 60
1, 189139, Note_on_c, 0, 63, 51
1, 189190, Note_off_c, 0, 63, 59
1, 189228, Note_on_c, 0, 59, 45
1, 189269, Note_off_c, 0, 59, 58
1, 189297, Note_on_c, 0, 63, 46
1, 189339, Note_off_c, 0, 63, 60
1, 189386, Note_on_c, 0, 66, 58
1, 189418, Poly_aftertouch_c, 0, 68, 127
1, 189478, Note_on_c, 0, 63, 52
1, 189494, Note_off_c, 0, 54, 32
1, 189547, Note_off_c, 0, 71, 51
1, 189589, Note_on_c, 0, 59, 54
1, 189616, Note_off_c, 0, 66, 61
1, 189620, Note_off_c, 0, 59, 65
1, 189626, Poly_aftertouch_c, 0, 68, 0
1, 189634, Note_off_c, 0, 63, 63
1, 189708, Note_on_c, 0, 73, 85
1, 189710, Note_on_c, 0, 49, 47
1, 189712, Note_on_c, 0, 54, 45
1, 189722, Note_on_c, 0, 58, 45
1, 189759, Control_c, 0, 64, 99
1, 189774, Control_c, 0, 64, 72
1, 189789, Control_c, 0, 64, 56
1, 189804, Control_c, 0, 64, 0
1, 189807, Note_off_c, 0, 51, 62
1, 189848, Control_c, 0, 64, 25
1, 189863, Control_c, 0, 64, 44
1, 189878, Control_c, 0, 64, 55
1, 189887, Note_on_c, 0, 64, 46
1, 189899, Control_c, 0, 64, 59
1, 189914, Control_c, 0, 64, 63
1, 189929, Control_c, 0, 64, 67
1, 189944, Control_c, 0, 64, 73
1, 189959, Control_c, 0, 64, 85
1, 189965, Note_off_c, 0, 64, 49
1, 189974, Control_c, 0, 64, 110
1, 189978, Note_on_c, 0, 66, 53
1, 189988, Control_c, 0, 64, 127
1, 190065, Note_off_c, 0, 66, 54
1, 190090, Note_on_c, 0, 70, 63
1, 190188, Note_on_c, 0, 66, 56
1, 190261, Note_off_c, 0, 73, 59
1, 190303, Note_on_c, 0, 64, 58
1, 190349, Note_off_c, 0, 66, 59
1, 190419, Note_on_c, 0, 74, 80
1, 190430, Note_off_c, 0, 64, 60
1, 190448, Control_c, 0, 64, 86
1, 190462, Control_c, 0, 64, 67
1, 190477, Control_c, 0, 64, 35
1, 190492, Control_c, 0, 64, 0
1, 190510, Note_off_c, 0, 70, 60
1, 190551, Note_on_c, 0, 64, 60
1, 190566, Control_c, 0, 64, 35
1, 190580, Control_c, 0, 64, 51
1, 190596, Control_c, 0, 64, 60
1, 190611, Control_c, 0, 64, 65
1, 190626, Control_c, 0, 64, 70
1, 190647, Control_c, 0, 64, 78
1, 190658, Note_on_c, 0, 66, 58
1, 190658, Note_off_c, 0, 64, 48
1, 190662, Control_c, 0, 64, 100
1, 190677, Control_c, 0, 64, 127
1, 190794, Note_off_c, 0, 58, 54
1, 190802, Note_off_c, 0, 66, 57
1, 190818, Note_off_c, 0, 54, 54
1, 190826, Note_on_c, 0, 70, 66
1, 190935, Note_on_c, 0, 66, 58
1, 190959, Note_off_c, 0, 74, 58
1, 191057, Note_off_c, 0, 66, 59
1, 191079, Note_on_c, 0, 64, 60
1, 191290, Note_off_c, 0, 64, 59
1, 191295, Note_on_c, 0, 75, 76
1, 191306, Note_on_c, 0, 47, 43
1, 191309, Note_on_c, 0, 54, 41
1, 191314, Note_on_c, 0, 59, 34
1, 191358, Control_c, 0, 64, 112
1, 191373, Control_c, 0, 64, 92
1, 191397, Control_c, 0, 64, 80
1, 191412, Control_c, 0, 64, 68
1, 191426, Control_c, 0, 64, 61
1, 191441, Control_c, 0, 64, 50
1, 191456, Control_c, 0, 64, 44
1, 191470, Control_c, 0, 64, 43
1, 191473, Note_off_c, 0, 70, 36
1, 191485, Control_c, 0, 64, 42
1, 191500, Control_c, 0, 64, 40
1, 191515, Control_c, 0, 64, 38
1, 191530, Control_c, 0, 64, 35
1, 191544, Control_c, 0, 64, 32
1, 191553, Note_on_c, 0, 63, 49
1, 191559, Control_c, 0, 64, 29
1, 191560, Note_off_c, 0, 49, 38
1, 191574, Control_c, 0, 64, 25
1, 191589, Control_c, 0, 64, 20
1, 191604, Control_c, 0, 64, 16
1, 191619, Control_c, 0, 64, 13
1, 191693, Control_c, 0, 64, 20
1, 191697, Note_on_c, 0, 66, 40
1, 191708, Control_c, 0, 64, 26
1, 191708, Control_c, 0, 67, 18
1, 191723, Control_c, 0, 64, 32
1, 191723, Control_c, 0, 67, 34
1, 191738, Control_c, 0, 64, 38
1, 191738, Control_c, 0, 67, 49
1, 191752, Control_c, 0, 64, 43
1, 191752, Control_c, 0, 67, 65
1, 191767, Control_c, 0, 64, 47
1, 191767, Control_c, 0, 67, 78
1, 191782, Control_c, 0, 64, 52
1, 191782, Control_c, 0, 67, 92
1, 191796, Control_c, 0, 64, 55
1, 191796, Control_c, 0, 67, 107
1, 191811, Control_c, 0, 64, 58
1, 191811, Control_c, 0, 67, 123
1, 191826, Control_c, 0, 64, 60
1, 191826, Control_c, 0, 67, 127
1, 191841, Control_c, 0, 64, 62
1, 191856, Control_c, 0, 64, 63
1, 191863, Note_off_c, 0, 63, 35
1, 191870, Control_c, 0, 64, 65
1, 191885, Control_c, 0, 64, 66
1, 191890, Note_off_c, 0, 66, 50
1, 191899, Note_on_c, 0, 71, 47
1, 191900, Control_c, 0, 64, 67
1, 191915, Control_c, 0, 64, 69
1, 191930, Control_c, 0, 64, 72
1, 191944, Control_c, 0, 64, 75
1, 191959, Control_c, 0, 64, 80
1, 191974, Control_c, 0, 64, 83
1, 191989, Control_c, 0, 64, 85
1, 192041, Note_off_c, 0, 71, 53
1, 192046, Note_on_c, 0, 66, 50
1, 192129, Note_off_c, 0, 66, 56
1, 192174, Control_c, 0, 64, 84
1, 192191, Note_on_c, 0, 63, 14
1, 192235, Control_c, 0, 64, 84
1, 192237, Note_off_c, 0, 63, 42
1, 192264, Control_c, 0, 64, 83
1, 192280, Note_on_c, 0, 66, 34
1, 192293, Control_c, 0, 64, 83
1, 192317, Note_off_c, 0, 66, 48
1, 192323, Control_c, 0, 64, 82
1, 192351, Note_on_c, 0, 63, 34
1, 192353, Control_c, 0, 64, 82
1, 192382, Control_c, 0, 64, 81
1, 192406, Note_off_c, 0, 63, 43
1, 192445, Note_on_c, 0, 66, 38
1, 192463, Note_off_c, 0, 59, 42
1, 192499, Note_off_c, 0, 66, 54
1, 192551, Note_on_c, 0, 71, 40
1, 192585, Note_off_c, 0, 47, 36
1, 192703, Note_on_c, 0, 66, 35
1, 192764, Note_off_c, 0, 75, 26
1, 192780, Note_off_c, 0, 54, 40
1, 192874, Note_on_c, 0, 63, 21
1, 192907, Note_off_c, 0, 66, 39
1, 192967, Control_c, 0, 64, 81
1, 192982, Control_c, 0, 64, 80
1, 192998, Control_c, 0, 64, 79
1, 193013, Control_c, 0, 64, 78
1, 193028, Control_c, 0, 64, 77
1, 193042, Control_c, 0, 64, 75
1, 193057, Control_c, 0, 64, 74
1, 193069, Note_on_c, 0, 56, 29
1, 193072, Control_c, 0, 64, 74
1, 193090, Note_on_c, 0, 47, 30
1, 193090, Note_off_c, 0, 63, 34
1, 193101, Note_on_c, 0, 75, 49
1, 193131, Control_c, 0, 64, 73
1, 193146, Control_c, 0, 64, 69
1, 193161, Control_c, 0, 64, 63
1, 193176, Control_c, 0, 64, 48
1, 193190, Control_c, 0, 64, 29
1, 193205, Control_c, 0, 64, 24
1, 193220, Control_c, 0, 64, 28
1, 193235, Control_c, 0, 64, 38
1, 193250, Control_c, 0, 64, 47
1, 193264, Control_c, 0, 64, 54
1, 193279, Control_c, 0, 64, 58
1, 193285, Note_on_c, 0, 68, 33
1, 193294, Control_c, 0, 64, 62
1, 193309, Control_c, 0, 64, 64
1, 193316, Note_off_c, 0, 71, 11
1, 193324, Control_c, 0, 64, 65
1, 193339, Control_c, 0, 64, 67
1, 193354, Control_c, 0, 64, 68
1, 193369, Control_c, 0, 64, 70
1, 193384, Note_off_c, 0, 75, 63
1, 193384, Control_c, 0, 64, 72
1, 193398, Control_c, 0, 64, 73
1, 193413, Control_c, 0, 64, 74
1, 193418, Note_on_c, 0, 65, 33
1, 193473, Note_off_c, 0, 68, 39
1, 193495, Note_on_c, 0, 74, 51
1, 193545, Note_off_c, 0, 65, 35
1, 193590, Control_c, 0, 64, 74
1, 193619, Note_on_c, 0, 68, 28
1, 193685, Note_on_c, 0, 65, 43
1, 193707, Note_off_c, 0, 68, 39
1, 193738, Note_off_c, 0, 65, 58
1, 193742, Note_off_c, 0, 74, 51
1, 193776, Control_c, 0, 64, 73
1, 193789, Note_on_c, 0, 71, 53
1, 193806, Note_on_c, 0, 53, 41
1, 193821, Control_c, 0, 64, 73
1, 193836, Control_c, 0, 64, 71
1, 193851, Control_c, 0, 64, 69
1, 193855, Note_off_c, 0, 56, 38
1, 193865, Control_c, 0, 64, 66
1, 193880, Control_c, 0, 64, 63
1, 193895, Note_on_c, 0, 65, 36
1, 193895, Control_c, 0, 64, 58
1, 193910, Control_c, 0, 64, 54
1, 193925, Control_c, 0, 64, 54
1, 193939, Control_c, 0, 64, 57
1, 193954, Control_c, 0, 64, 60
1, 193969, Control_c, 0, 64, 62
1, 193984, Control_c, 0, 64, 63
1, 193999, Control_c, 0, 64, 65
1, 194004, Note_on_c, 0, 62, 38
1, 194013, Control_c, 0, 64, 67
1, 194028, Control_c, 0, 64, 68
1, 194043, Control_c, 0, 64, 70
1, 194052, Note_off_c, 0, 65, 36
1, 194058, Control_c, 0, 64, 71
1, 194063, Note_off_c, 0, 62, 56
1, 194072, Control_c, 0, 64, 72
1, 194102, Note_on_c, 0, 68, 51
1, 194108, Note_off_c, 0, 71, 54
1, 194117, Control_c, 0, 64, 72
1, 194136, Note_off_c, 0, 47, 36
1, 194147, Control_c, 0, 64, 73
1, 194206, Control_c, 0, 64, 73
1, 194217, Note_on_c, 0, 65, 28
1, 194325, Control_c, 0, 64, 73
1, 194354, Note_on_c, 0, 61, 29
1, 194361, Note_off_c, 0, 65, 34
1, 194369, Control_c, 0, 64, 72
1, 194391, Control_c, 0, 64, 72
1, 194406, Control_c, 0, 64, 71
1, 194421, Control_c, 0, 64, 71
1, 194436, Control_c, 0, 64, 70
1, 194439, Note_off_c, 0, 61, 47
1, 194451, Control_c, 0, 64, 70
1, 194461, Note_on_c, 0, 73, 55
1, 194461, Note_off_c, 0, 68, 40
1, 194465, Control_c, 0, 64, 69
1, 194468, Note_on_c, 0, 46, 25
1, 194474, Note_on_c, 0, 54, 26
1, 194480, Control_c, 0, 64, 69
1, 194495, Control_c, 0, 64, 67
1, 194510, Control_c, 0, 64, 64
1, 194525, Control_c, 0, 64, 58
1, 194539, Control_c, 0, 64, 44
1, 194554, Control_c, 0, 64, 16
1, 194565, Note_off_c, 0, 53, 42
1, 194569, Control_c, 0, 64, 0
1, 194612, Note_on_c, 0, 61, 29
1, 194644, Control_c, 0, 64, 26
1, 194659, Control_c, 0, 64, 37
1, 194674, Control_c, 0, 64, 47
1, 194688, Control_c, 0, 64, 53
1, 194697, Note_on_c, 0, 66, 40
1, 194703, Control_c, 0, 64, 57
1, 194718, Control_c, 0, 64, 60
1, 194733, Control_c, 0, 64, 62
1, 194746, Note_off_c, 0, 61, 28
1, 194748, Control_c, 0, 64, 64
1, 194760, Note_off_c, 0, 66, 56
1, 194762, Control_c, 0, 64, 65
1, 194777, Control_c, 0, 64, 66
1, 194792, Control_c, 0, 64, 67
1, 194800, Note_on_c, 0, 70, 39
1, 194807, Control_c, 0, 64, 68
1, 194822, Control_c, 0, 64, 69
1, 194836, Control_c, 0, 64, 69
1, 194851, Control_c, 0, 64, 70
1, 194927, Note_on_c, 0, 66, 23
1, 194952, Note_off_c, 0, 70, 30
1, 194967, Note_off_c, 0, 66, 49
1, 194981, Note_on_c, 0, 61, 39
1, 195014, Control_c, 0, 64, 70
1, 195018, Note_off_c, 0, 61, 57
1, 195059, Control_c, 0, 64, 71
1, 195074, Control_c, 0, 64, 71
1, 195086, Note_on_c, 0, 66, 34
1, 195088, Control_c, 0, 64, 72
1, 195118, Control_c, 0, 64, 72
1, 195136, Note_off_c, 0, 66, 49
1, 195184, Note_on_c, 0, 61, 17
1, 195247, Note_off_c, 0, 61, 38
1, 195253, Note_on_c, 0, 66, 39
1, 195259, Control_c, 0, 64, 73
1, 195274, Control_c, 0, 64, 73
1, 195288, Control_c, 0, 64, 74
1, 195303, Control_c, 0, 64, 75
1, 195305, Note_off_c, 0, 66, 56
1, 195318, Control_c, 0, 64, 75
1, 195333, Control_c, 0, 64, 76
1, 195348, Control_c, 0, 64, 77
1, 195351, Note_on_c, 0, 70, 41
1, 195362, Control_c, 0, 64, 77
1, 195460, Note_on_c, 0, 66, 39
1, 195461, Note_off_c, 0, 73, 50
1, 195482, Control_c, 0, 64, 77
1, 195511, Note_off_c, 0, 46, 39
1, 195515, Note_off_c, 0, 54, 44
1, 195563, Note_on_c, 0, 61, 37
1, 195571, Control_c, 0, 64, 76
1, 195636, Note_off_c, 0, 61, 55
1, 195645, Control_c, 0, 64, 76
1, 195656, Note_on_c, 0, 73, 56
1, 195659, Control_c, 0, 64, 74
1, 195662, Note_off_c, 0, 66, 35
1, 195664, Note_on_c, 0, 55, 31
1, 195673, Note_on_c, 0, 47, 34
1, 195674, Control_c, 0, 64, 70
1, 195689, Control_c, 0, 64, 65
1, 195704, Control_c, 0, 64, 61
1, 195718, Control_c, 0, 64, 60
1, 195733, Control_c, 0, 64, 61
1, 195748, Control_c, 0, 64, 63
1, 195763, Control_c, 0, 64, 64
1, 195778, Control_c, 0, 64, 65
1, 195792, Control_c, 0, 64, 67
1, 195807, Control_c, 0, 64, 69
1, 195812, Note_on_c, 0, 67, 24
1, 195822, Control_c, 0, 64, 72
1, 195837, Control_c, 0, 64, 75
1, 195845, Note_off_c, 0, 73, 62
1, 195852, Control_c, 0, 64, 77
1, 195867, Control_c, 0, 64, 79
1, 195870, Note_on_c, 0, 63, 38
1, 195889, Control_c, 0, 64, 79
1, 195903, Note_off_c, 0, 70, 38
1, 195904, Control_c, 0, 64, 80
1, 195918, Control_c, 0, 64, 80
1, 195928, Note_off_c, 0, 63, 42
1, 195963, Control_c, 0, 64, 79
1, 195968, Note_on_c, 0, 71, 53
1, 195978, Control_c, 0, 64, 74
1, 195987, Note_on_c, 0, 56, 43
1, 195992, Control_c, 0, 64, 68
1, 196004, Note_off_c, 0, 67, 52
1, 196007, Control_c, 0, 64, 64
1, 196022, Control_c, 0, 64, 62
1, 196037, Control_c, 0, 64, 62
1, 196046, Note_on_c, 0, 68, 47
1, 196052, Control_c, 0, 64, 63
1, 196067, Control_c, 0, 64, 64
1, 196081, Control_c, 0, 64, 65
1, 196096, Control_c, 0, 64, 66
1, 196111, Control_c, 0, 64, 67
1, 196123, Note_off_c, 0, 68, 56
1, 196126, Control_c, 0, 64, 69
1, 196141, Control_c, 0, 64, 70
1, 196156, Control_c, 0, 64, 73
1, 196168, Note_on_c, 0, 63, 33
1, 196171, Control_c, 0, 64, 75
1, 196186, Control_c, 0, 64, 77
1, 196201, Control_c, 0, 64, 77
1, 196202, Note_off_c, 0, 63, 47
1, 196216, Control_c, 0, 64, 76
1, 196230, Control_c, 0, 64, 73
1, 196245, Control_c, 0, 64, 68
1, 196246, Note_off_c, 0, 71, 38
1, 196247, Note_on_c, 0, 51, 48
1, 196253, Note_on_c, 0, 68, 60
1, 196260, Control_c, 0, 64, 63
1, 196275, Control_c, 0, 64, 62
1, 196281, Note_off_c, 0, 56, 39
1, 196290, Control_c, 0, 64, 62
1, 196305, Control_c, 0, 64, 63
1, 196320, Control_c, 0, 64, 64
1, 196334, Control_c, 0, 64, 66
1, 196347, Note_on_c, 0, 63, 39
1, 196349, Control_c, 0, 64, 67
1, 196356, Note_off_c, 0, 68, 61
1, 196364, Control_c, 0, 64, 69
1, 196379, Control_c, 0, 64, 70
1, 196394, Control_c, 0, 64, 73
1, 196403, Note_off_c, 0, 63, 59
1, 196408, Control_c, 0, 64, 75
1, 196423, Control_c, 0, 64, 77
1, 196438, Control_c, 0, 64, 78
1, 196442, Note_on_c, 0, 59, 42
1, 196446, Note_off_c, 0, 47, 19
1, 196453, Control_c, 0, 64, 79
1, 196467, Control_c, 0, 64, 80
1, 196496, Note_off_c, 0, 59, 58
1, 196497, Control_c, 0, 64, 79
1, 196512, Control_c, 0, 64, 78
1, 196523, Note_on_c, 0, 48, 42
1, 196527, Control_c, 0, 64, 73
1, 196541, Control_c, 0, 64, 68
1, 196542, Note_on_c, 0, 63, 52
1, 196556, Control_c, 0, 64, 64
1, 196571, Control_c, 0, 64, 61
1, 196585, Note_off_c, 0, 51, 47
1, 196601, Control_c, 0, 64, 62
1, 196615, Control_c, 0, 64, 64
1, 196622, Note_off_c, 0, 55, 7
1, 196638, Control_c, 0, 64, 65
1, 196653, Control_c, 0, 64, 66
1, 196658, Note_on_c, 0, 60, 37
1, 196667, Control_c, 0, 64, 68
1, 196682, Control_c, 0, 64, 69
1, 196697, Control_c, 0, 64, 71
1, 196712, Control_c, 0, 64, 73
1, 196727, Control_c, 0, 64, 73
1, 196741, Control_c, 0, 64, 74
1, 196756, Control_c, 0, 64, 75
1, 196771, Control_c, 0, 64, 75
1, 196792, Note_on_c, 0, 56, 40
1, 196828, Note_off_c, 0, 60, 34
1, 196859, Control_c, 0, 64, 75
1, 196874, Control_c, 0, 64, 74
1, 196889, Control_c, 0, 64, 74
1, 196904, Control_c, 0, 64, 73
1, 196913, Note_on_c, 0, 66, 52
1, 196913, Note_on_c, 0, 49, 34
1, 196919, Control_c, 0, 64, 73
1, 196934, Control_c, 0, 64, 72
1, 196940, Note_off_c, 0, 56, 35
1, 196946, Note_off_c, 0, 63, 49
1, 196949, Control_c, 0, 64, 71
1, 196964, Control_c, 0, 64, 69
1, 196979, Control_c, 0, 64, 65
1, 196994, Control_c, 0, 64, 59
1, 197009, Control_c, 0, 64, 51
1, 197020, Note_off_c, 0, 48, 54
1, 197024, Control_c, 0, 64, 42
1, 197038, Control_c, 0, 64, 41
1, 197053, Control_c, 0, 64, 42
1, 197068, Control_c, 0, 64, 45
1, 197077, Note_on_c, 0, 54, 36
1, 197083, Control_c, 0, 64, 50
1, 197098, Control_c, 0, 64, 54
1, 197113, Control_c, 0, 64, 57
1, 197128, Control_c, 0, 64, 59
1, 197137, Note_off_c, 0, 54, 41
1, 197143, Control_c, 0, 64, 61
1, 197150, Note_on_c, 0, 58, 40
1, 197157, Control_c, 0, 64, 63
1, 197172, Control_c, 0, 64, 65
1, 197187, Control_c, 0, 64, 67
1, 197202, Control_c, 0, 64, 69
1, 197217, Control_c, 0, 64, 71
1, 197220, Note_off_c, 0, 58, 54
1, 197231, Control_c, 0, 64, 73
1, 197246, Control_c, 0, 64, 74
1, 197261, Control_c, 0, 64, 76
1, 197269, Note_on_c, 0, 61, 37
1, 197276, Control_c, 0, 64, 77
1, 197290, Control_c, 0, 64, 78
1, 197354, Note_off_c, 0, 61, 46
1, 197370, Note_on_c, 0, 58, 44
1, 197387, Control_c, 0, 64, 77
1, 197417, Control_c, 0, 64, 77
1, 197423, Note_off_c, 0, 58, 60
1, 197446, Control_c, 0, 64, 76
1, 197448, Note_on_c, 0, 54, 39
1, 197485, Note_off_c, 0, 54, 51
1, 197490, Control_c, 0, 64, 76
1, 197526, Note_on_c, 0, 58, 44
1, 197584, Note_off_c, 0, 58, 53
1, 197594, Control_c, 0, 64, 76
1, 197624, Note_on_c, 0, 54, 26
1, 197676, Note_off_c, 0, 54, 47
1, 197685, Note_on_c, 0, 58, 40
1, 197712, Control_c, 0, 64, 77
1, 197747, Note_off_c, 0, 58, 52
1, 197831, Note_on_c, 0, 61, 30
1, 197841, Note_off_c, 0, 49, 35
1, 197918, Note_on_c, 0, 58, 34
1, 198004, Note_on_c, 0, 54, 29
1, 198014, Note_off_c, 0, 66, 27
1, 198025, Control_c, 0, 64, 76
1, 198077, Note_off_c, 0, 58, 30
1, 198084, Control_c, 0, 64, 76
1, 198109, Note_on_c, 0, 37, 31
1, 198113, Control_c, 0, 64, 75
1, 198135, Control_c, 0, 64, 75
1, 198206, Note_on_c, 0, 66, 39
1, 198239, Control_c, 0, 64, 75
1, 198241, Note_off_c, 0, 54, 44
1, 198254, Control_c, 0, 64, 75
1, 198269, Control_c, 0, 64, 74
1, 198272, Note_on_c, 0, 49, 40
1, 198284, Control_c, 0, 64, 72
1, 198299, Control_c, 0, 64, 67
1, 198313, Control_c, 0, 64, 64
1, 198328, Control_c, 0, 64, 61
1, 198358, Control_c, 0, 64, 62
1, 198364, Note_on_c, 0, 59, 32
1, 198373, Control_c, 0, 64, 64
1, 198387, Control_c, 0, 64, 65
1, 198402, Control_c, 0, 64, 67
1, 198417, Control_c, 0, 64, 70
1, 198431, Control_c, 0, 64, 74
1, 198434, Note_off_c, 0, 66, 54
1, 198446, Control_c, 0, 64, 78
1, 198461, Control_c, 0, 64, 83
1, 198476, Control_c, 0, 64, 86
1, 198481, Note_on_c, 0, 56, 28
1, 198487, Note_off_c, 0, 37, 41
1, 198491, Control_c, 0, 64, 89
1, 198505, Control_c, 0, 64, 89
1, 198522, Note_off_c, 0, 61, 41
1, 198525, Note_off_c, 0, 56, 48
1, 198526, Note_on_c, 0, 65, 61
1, 198533, Note_off_c, 0, 59, 49
1, 198535, Control_c, 0, 64, 90
1, 198618, Note_off_c, 0, 65, 60
1, 198648, Note_on_c, 0, 59, 51
1, 198670, Control_c, 0, 64, 90
1, 198687, Note_off_c, 0, 59, 64
1, 198699, Control_c, 0, 64, 91
1, 198733, Note_on_c, 0, 56, 41
1, 198801, Note_off_c, 0, 56, 44
1, 198818, Control_c, 0, 64, 90
1, 198848, Control_c, 0, 64, 89
1, 198863, Control_c, 0, 64, 89
1, 198899, Note_on_c, 0, 54, 53
1, 198911, Note_on_c, 0, 70, 54
1, 198914, Control_c, 0, 64, 88
1, 198929, Control_c, 0, 64, 86
1, 198943, Control_c, 0, 64, 81
1, 198958, Control_c, 0, 64, 71
1, 198973, Control_c, 0, 64, 64
1, 198988, Control_c, 0, 64, 54
1, 199003, Control_c, 0, 64, 43
1, 199018, Control_c, 0, 64, 43
1, 199033, Control_c, 0, 64, 47
1, 199047, Control_c, 0, 64, 53
1, 199062, Control_c, 0, 64, 57
1, 199077, Note_off_c, 0, 49, 60
1, 199077, Control_c, 0, 64, 59
1, 199092, Control_c, 0, 64, 62
1, 199107, Control_c, 0, 64, 64
1, 199113, Note_on_c, 0, 61, 25
1, 199122, Control_c, 0, 64, 66
1, 199136, Control_c, 0, 64, 69
1, 199151, Control_c, 0, 64, 71
1, 199165, Note_off_c, 0, 70, 59
1, 199166, Control_c, 0, 64, 74
1, 199181, Control_c, 0, 64, 77
1, 199196, Control_c, 0, 64, 79
1, 199210, Control_c, 0, 64, 81
1, 199217, Note_on_c, 0, 59, 10
1, 199225, Control_c, 0, 64, 82
1, 199240, Control_c, 0, 64, 84
1, 199254, Control_c, 0, 64, 84
1, 199284, Control_c, 0, 64, 83
1, 199299, Control_c, 0, 64, 80
1, 199301, Note_off_c, 0, 61, 36
1, 199313, Note_on_c, 0, 53, 47
1, 199314, Control_c, 0, 64, 74
1, 199324, Note_off_c, 0, 54, 36
1, 199328, Control_c, 0, 64, 67
1, 199340, Note_on_c, 0, 68, 49
1, 199343, Control_c, 0, 64, 63
1, 199346, Note_off_c, 0, 59, 41
1, 199358, Control_c, 0, 64, 61
1, 199373, Control_c, 0, 64, 62
1, 199389, Control_c, 0, 64, 64
1, 199404, Control_c, 0, 64, 65
1, 199419, Control_c, 0, 64, 67
1, 199433, Control_c, 0, 64, 68
1, 199448, Control_c, 0, 64, 70
1, 199456, Note_on_c, 0, 61, 38
1, 199463, Control_c, 0, 64, 72
1, 199478, Control_c, 0, 64, 74
1, 199491, Note_off_c, 0, 53, 63
1, 199493, Control_c, 0, 64, 76
1, 199507, Control_c, 0, 64, 76
1, 199509, Note_off_c, 0, 68, 58
1, 199522, Control_c, 0, 64, 77
1, 199551, Control_c, 0, 64, 78
1, 199567, Control_c, 0, 64, 79
1, 199582, Control_c, 0, 64, 80
1, 199597, Control_c, 0, 64, 82
1, 199612, Control_c, 0, 64, 83
1, 199617, Note_on_c, 0, 59, 35
1, 199634, Control_c, 0, 64, 85
1, 199649, Control_c, 0, 64, 86
1, 199677, Note_off_c, 0, 59, 58
1, 199753, Control_c, 0, 64, 86
1, 199767, Control_c, 0, 64, 85
1, 199782, Control_c, 0, 64, 85
1, 199797, Control_c, 0, 64, 84
1, 199799, Note_on_c, 0, 49, 40
1, 199806, Note_on_c, 0, 66, 52
1, 199812, Control_c, 0, 64, 83
1, 199814, Note_on_c, 0, 42, 44
1, 199827, Control_c, 0, 64, 82
1, 199841, Control_c, 0, 64, 80
1, 199856, Control_c, 0, 64, 79
1, 199870, Note_off_c, 0, 61, 36
1, 199871, Control_c, 0, 64, 77
1, 199885, Control_c, 0, 64, 74
1, 199900, Control_c, 0, 64, 71
1, 199915, Control_c, 0, 64, 66
1, 199930, Control_c, 0, 64, 62
1, 199945, Control_c, 0, 64, 56
1, 199960, Control_c, 0, 64, 50
1, 199974, Control_c, 0, 64, 47
1, 200017, Note_on_c, 0, 54, 32
1, 200019, Control_c, 0, 64, 48
1, 200034, Control_c, 0, 64, 49
1, 200049, Control_c, 0, 64, 51
1, 200064, Control_c, 0, 64, 54
1, 200078, Control_c, 0, 64, 56
1, 200093, Control_c, 0, 64, 57
1, 200107, Note_on_c, 0, 58, 37
1, 200108, Control_c, 0, 64, 59
1, 200123, Control_c, 0, 64, 60
1, 200138, Control_c, 0, 64, 61
1, 200141, Note_off_c, 0, 54, 27
1, 200152, Control_c, 0, 64, 63
1, 200163, Note_off_c, 0, 58, 58
1, 200167, Control_c, 0, 64, 64
1, 200183, Control_c, 0, 64, 65
1, 200198, Control_c, 0, 64, 67
1, 200213, Control_c, 0, 64, 70
1, 200222, Note_on_c, 0, 61, 38
1, 200228, Control_c, 0, 64, 72
1, 200243, Control_c, 0, 64, 74
1, 200257, Control_c, 0, 64, 77
1, 200272, Control_c, 0, 64, 78
1, 200287, Control_c, 0, 64, 80
1, 200301, Control_c, 0, 64, 81
1, 200307, Note_off_c, 0, 61, 50
1, 200314, Note_on_c, 0, 58, 45
1, 200315, Control_c, 0, 64, 83
1, 200330, Control_c, 0, 64, 85
1, 200345, Control_c, 0, 64, 87
1, 200360, Control_c, 0, 64, 89
1, 200362, Note_off_c, 0, 58, 57
1, 200382, Control_c, 0, 64, 90
1, 200397, Control_c, 0, 64, 92
1, 200410, Note_on_c, 0, 54, 38
1, 200412, Control_c, 0, 64, 94
1, 200427, Control_c, 0, 64, 96
1, 200442, Control_c, 0, 64, 97
1, 200453, Note_off_c, 0, 54, 52
1, 200456, Control_c, 0, 64, 97
1, 200471, Control_c, 0, 64, 98
1, 200486, Control_c, 0, 64, 99
1, 200500, Control_c, 0, 64, 101
1, 200502, Note_on_c, 0, 58, 40
1, 200515, Control_c, 0, 64, 104
1, 200530, Control_c, 0, 64, 106
1, 200535, Note_off_c, 0, 58, 54
1, 200545, Control_c, 0, 64, 107
1, 200560, Control_c, 0, 64, 108
1, 200575, Control_c, 0, 64, 110
1, 200583, Note_on_c, 0, 54, 36
1, 200589, Control_c, 0, 64, 113
1, 200604, Control_c, 0, 64, 118
1, 200619, Control_c, 0, 64, 123
1, 200634, Control_c, 0, 64, 127
1, 200642, Note_on_c, 0, 58, 42
1, 200644, Note_off_c, 0, 54, 45
1, 200703, Note_off_c, 0, 58, 51
1, 200766, Note_on_c, 0, 61, 40
1, 200860, Note_on_c, 0, 58, 49
1, 200915, Control_c, 0, 67, 119
1, 200919, Note_off_c, 0, 42, 59
1, 200925, Note_off_c, 0, 66, 34
1, 200930, Control_c, 0, 67, 107
1, 200945, Control_c, 0, 67, 93
1, 200960, Control_c, 0, 67, 78
1, 200976, Control_c, 0, 67, 66
1, 200983, Note_on_c, 0, 54, 42
1, 200991, Control_c, 0, 67, 54
1, 201005, Control_c, 0, 67, 40
1, 201020, Control_c, 0, 67, 24
1, 201035, Control_c, 0, 67, 8
1, 201050, Control_c, 0, 67, 0
1, 201137, Note_on_c, 0, 40, 58
1, 201144, Note_on_c, 0, 66, 65
1, 201156, Note_off_c, 0, 54, 54
1, 201249, Control_c, 0, 64, 113
1, 201264, Control_c, 0, 64, 99
1, 201277, Note_off_c, 0, 58, 39
1, 201277, Note_off_c, 0, 61, 37
1, 201278, Control_c, 0, 64, 85
1, 201293, Control_c, 0, 64, 76
1, 201301, Note_on_c, 0, 54, 52
1, 201308, Control_c, 0, 64, 68
1, 201323, Control_c, 0, 64, 61
1, 201337, Control_c, 0, 64, 56
1, 201352, Control_c, 0, 64, 57
1, 201367, Control_c, 0, 64, 59
1, 201382, Control_c, 0, 64, 61
1, 201397, Control_c, 0, 64, 63
1, 201402, Note_on_c, 0, 58, 44
1, 201411, Control_c, 0, 64, 65
1, 201426, Control_c, 0, 64, 66
1, 201429, Note_off_c, 0, 54, 35
1, 201441, Control_c, 0, 64, 69
1, 201456, Control_c, 0, 64, 73
1, 201466, Note_off_c, 0, 58, 58
1, 201471, Control_c, 0, 64, 80
1, 201486, Control_c, 0, 64, 88
1, 201501, Control_c, 0, 64, 96
1, 201512, Note_on_c, 0, 61, 45
1, 201516, Control_c, 0, 64, 107
1, 201530, Control_c, 0, 64, 127
1, 201611, Note_on_c, 0, 58, 49
1, 201660, Note_off_c, 0, 58, 57
1, 201691, Note_off_c, 0, 61, 34
1, 201711, Note_on_c, 0, 54, 41
1, 201751, Note_off_c, 0, 54, 59
1, 201800, Note_off_c, 0, 49, 32
1, 201801, Note_on_c, 0, 58, 43
1, 201856, Note_off_c, 0, 58, 56
1, 201857, Poly_aftertouch_c, 0, 62, 127
1, 201912, Note_on_c, 0, 54, 37
1, 201953, Note_off_c, 0, 54, 50
1, 201993, Note_on_c, 0, 58, 45
1, 202034, Note_off_c, 0, 58, 59
1, 202088, Note_on_c, 0, 61, 42
1, 202174, Note_on_c, 0, 58, 40
1, 202270, Poly_aftertouch_c, 0, 62, 0
1, 202292, Note_on_c, 0, 54, 54
1, 202292, Note_off_c, 0, 66, 51
1, 202425, Note_on_c, 0, 66, 75
1, 202429, Note_on_c, 0, 38, 62
1, 202437, Note_off_c, 0, 58, 33
1, 202503, Note_off_c, 0, 54, 38
1, 202512, Note_off_c, 0, 61, 59
1, 202575, Control_c, 0, 64, 115
1, 202590, Control_c, 0, 64, 97
1, 202605, Control_c, 0, 64, 80
1, 202627, Control_c, 0, 64, 67
1, 202633, Note_on_c, 0, 54, 48
1, 202642, Control_c, 0, 64, 50
1, 202649, Note_off_c, 0, 40, 52
1, 202657, Control_c, 0, 64, 0
1, 202685, Note_off_c, 0, 54, 60
1, 202714, Note_on_c, 0, 59, 44
1, 202716, Control_c, 0, 64, 32
1, 202731, Control_c, 0, 64, 49
1, 202746, Control_c, 0, 64, 57
1, 202761, Control_c, 0, 64, 62
1, 202775, Control_c, 0, 64, 68
1, 202790, Control_c, 0, 64, 75
1, 202802, Note_off_c, 0, 59, 59
1, 202805, Control_c, 0, 64, 86
1, 202820, Control_c, 0, 64, 108
1, 202828, Note_on_c, 0, 62, 53
1, 202835, Control_c, 0, 64, 127
1, 202922, Note_off_c, 0, 62, 59
1, 202926, Note_on_c, 0, 59, 58
1, 202977, Note_off_c, 0, 59, 55
1, 203006, Note_on_c, 0, 54, 47
1, 203053, Note_off_c, 0, 54, 62
1, 203104, Note_on_c, 0, 59, 55
1, 203152, Note_off_c, 0, 59, 56
1, 203171, Note_on_c, 0, 54, 51
1, 203222, Note_off_c, 0, 54, 57
1, 203279, Note_on_c, 0, 59, 44
1, 203319, Note_off_c, 0, 59, 62
1, 203351, Note_on_c, 0, 62, 54
1, 203356, Note_off_c, 0, 38, 55
1, 203443, Note_on_c, 0, 59, 48
1, 203552, Note_on_c, 0, 54, 59
1, 203608, Note_off_c, 0, 66, 55
1, 203713, Note_on_c, 0, 38, 49
1, 203721, Note_on_c, 0, 66, 79
1, 203732, Control_c, 0, 64, 87
1, 203747, Control_c, 0, 64, 71
1, 203762, Control_c, 0, 64, 60
1, 203772, Note_off_c, 0, 54, 53
1, 203777, Control_c, 0, 64, 47
1, 203792, Control_c, 0, 64, 43
1, 203806, Note_off_c, 0, 38, 60
1, 203806, Control_c, 0, 64, 47
1, 203821, Control_c, 0, 64, 53
1, 203827, Note_on_c, 0, 37, 50
1, 203836, Control_c, 0, 64, 58
1, 203851, Control_c, 0, 64, 61
1, 203866, Control_c, 0, 64, 64
1, 203872, Note_off_c, 0, 37, 61
1, 203875, Note_off_c, 0, 59, 63
1, 203880, Control_c, 0, 64, 69
1, 203894, Note_on_c, 0, 54, 59
1, 203895, Control_c, 0, 64, 76
1, 203910, Control_c, 0, 64, 89
1, 203912, Note_on_c, 0, 38, 43
1, 203924, Control_c, 0, 64, 118
1, 203939, Control_c, 0, 64, 127
1, 203950, Note_off_c, 0, 38, 61
1, 203963, Note_on_c, 0, 37, 63
1, 203963, Note_off_c, 0, 54, 52
1, 204002, Note_on_c, 0, 58, 62
1, 204005, Note_off_c, 0, 37, 60
1, 204046, Note_on_c, 0, 38, 56
1, 204067, Note_off_c, 0, 62, 26
1, 204079, Note_off_c, 0, 38, 63
1, 204081, Note_on_c, 0, 37, 69
1, 204085, Note_off_c, 0, 58, 61
1, 204112, Note_on_c, 0, 64, 52
1, 204130, Note_off_c, 0, 37, 57
1, 204184, Note_on_c, 0, 38, 45
1, 204192, Note_on_c, 0, 58, 61
1, 204210, Note_on_c, 0, 37, 59
1, 204227, Note_off_c, 0, 66, 49
1, 204236, Note_off_c, 0, 38, 41
1, 204247, Note_off_c, 0, 37, 61
1, 204260, Note_on_c, 0, 54, 63
1, 204276, Note_on_c, 0, 38, 39
1, 204290, Note_off_c, 0, 54, 66
1, 204295, Note_off_c, 0, 58, 0
1, 204309, Note_on_c, 0, 58, 48
1, 204309, Note_off_c, 0, 38, 56
1, 204315, Note_on_c, 0, 37, 60
1, 204327, Note_on_c, 0, 55, 9
1, 204347, Note_off_c, 0, 37, 64
1, 204350, Note_off_c, 0, 64, 40
1, 204356, Note_on_c, 0, 67, 86
1, 204378, Note_on_c, 0, 38, 53
1, 204380, Note_off_c, 0, 55, 45
1, 204395, Note_off_c, 0, 58, 63
1, 204396, Note_on_c, 0, 57, 11
1, 204407, Control_c, 0, 64, 97
1, 204411, Note_off_c, 0, 38, 63
1, 204418, Note_on_c, 0, 37, 65
1, 204422, Control_c, 0, 64, 76
1, 204437, Control_c, 0, 64, 67
1, 204441, Note_off_c, 0, 57, 51
1, 204452, Note_off_c, 0, 37, 64
1, 204452, Control_c, 0, 64, 65
1, 204467, Control_c, 0, 64, 67
1, 204482, Control_c, 0, 64, 72
1, 204483, Note_on_c, 0, 38, 52
1, 204495, Poly_aftertouch_c, 0, 64, 127
1, 204496, Control_c, 0, 64, 80
1, 204497, Note_on_c, 0, 58, 61
1, 204498, Poly_aftertouch_c, 0, 65, 127
1, 204502, Note_off_c, 0, 67, 59
1, 204511, Control_c, 0, 64, 103
1, 204511, Note_on_c, 0, 37, 69
1, 204516, Note_off_c, 0, 38, 62
1, 204526, Control_c, 0, 64, 127
1, 204536, Poly_aftertouch_c, 0, 64, 0
1, 204536, Poly_aftertouch_c, 0, 65, 0
1, 204565, Note_off_c, 0, 37, 59
1, 204583, Note_off_c, 0, 58, 64
1, 204585, Note_on_c, 0, 54, 74
1, 204596, Note_on_c, 0, 38, 51
1, 204607, Note_on_c, 0, 37, 65
1, 204626, Note_off_c, 0, 38, 57
1, 204640, Note_on_c, 0, 58, 73
1, 204659, Control_c, 0, 64, 81
1, 204672, Note_on_c, 0, 66, 90
1, 204673, Control_c, 0, 64, 63
1, 204679, Note_off_c, 0, 54, 0
1, 204688, Control_c, 0, 64, 11
1, 204690, Note_off_c, 0, 37, 55
1, 204698, Note_on_c, 0, 38, 66
1, 204699, Note_on_c, 0, 54, 32
1, 204703, Control_c, 0, 64, 0
1, 204718, Control_c, 0, 64, 26
1, 204733, Control_c, 0, 64, 55
1, 204747, Control_c, 0, 64, 71
1, 204755, Note_on_c, 0, 37, 62
1, 204762, Control_c, 0, 64, 127
1, 204765, Note_off_c, 0, 38, 58
1, 204831, Note_on_c, 0, 35, 75
1, 204851, Note_off_c, 0, 37, 55
1, 204851, Control_c, 0, 64, 84
1, 204873, Control_c, 0, 64, 63
1, 204888, Control_c, 0, 64, 38
1, 204902, Note_off_c, 0, 66, 56
1, 204903, Control_c, 0, 64, 47
1, 204907, Note_on_c, 0, 37, 72
1, 204918, Control_c, 0, 64, 61
1, 204933, Control_c, 0, 64, 71
1, 204934, Note_off_c, 0, 35, 61
1, 204947, Control_c, 0, 64, 98
1, 204962, Control_c, 0, 64, 127
1, 205048, Note_on_c, 0, 66, 93
1, 205049, Note_on_c, 0, 35, 79
1, 205080, Note_off_c, 0, 54, 50
1, 205080, Note_off_c, 0, 37, 62
1, 205082, Control_c, 0, 64, 93
1, 205096, Note_off_c, 0, 58, 63
1, 205097, Control_c, 0, 64, 64
1, 205112, Control_c, 0, 64, 0
1, 205282, Note_on_c, 0, 54, 58
1, 205360, Note_off_c, 0, 54, 55
1, 205366, Note_on_c, 0, 59, 53
1, 205408, Control_c, 0, 64, 36
1, 205423, Control_c, 0, 64, 60
1, 205425, Note_off_c, 0, 59, 57
1, 205438, Control_c, 0, 64, 67
1, 205452, Control_c, 0, 64, 82
1, 205455, Note_on_c, 0, 62, 56
1, 205467, Control_c, 0, 64, 127
1, 205547, Note_on_c, 0, 59, 58
1, 205563, Note_off_c, 0, 62, 57
1, 205623, Note_off_c, 0, 59, 62
1, 205681, Note_on_c, 0, 54, 15
1, 205722, Note_off_c, 0, 54, 54
1, 205722, Poly_aftertouch_c, 0, 33, 127
1, 205747, Note_on_c, 0, 59, 54
1, 205780, Note_off_c, 0, 59, 64
1, 205820, Note_on_c, 0, 54, 49
1, 205850, Note_off_c, 0, 54, 54
1, 205887, Note_on_c, 0, 59, 54
1, 205923, Note_off_c, 0, 59, 61
1, 205958, Note_on_c, 0, 62, 62
1, 206039, Note_on_c, 0, 59, 65
1, 206059, Note_off_c, 0, 66, 61
1, 206126, Note_off_c, 0, 62, 61
1, 206130, Note_on_c, 0, 54, 64
1, 206252, Note_off_c, 0, 54, 63
1, 206263, Note_on_c, 0, 38, 56
1, 206294, Note_off_c, 0, 59, 61
1, 206299, Note_on_c, 0, 60, 78
1, 206318, Poly_aftertouch_c, 0, 33, 0
1, 206348, Control_c, 0, 64, 100
1, 206371, Control_c, 0, 64, 79
1, 206386, Control_c, 0, 64, 66
1, 206400, Control_c, 0, 64, 51
1, 206412, Note_off_c, 0, 35, 54
1, 206415, Control_c, 0, 64, 32
1, 206430, Control_c, 0, 64, 27
1, 206482, Note_on_c, 0, 48, 45
1, 206548, Control_c, 0, 64, 26
1, 206563, Control_c, 0, 64, 26
1, 206577, Note_on_c, 0, 54, 51
1, 206634, Note_off_c, 0, 54, 60
1, 206641, Note_off_c, 0, 48, 35
1, 206653, Control_c, 0, 64, 28
1, 206668, Control_c, 0, 64, 32
1, 206683, Control_c, 0, 64, 38
1, 206684, Note_on_c, 0, 57, 43
1, 206697, Control_c, 0, 64, 41
1, 206712, Control_c, 0, 64, 45
1, 206727, Control_c, 0, 64, 49
1, 206741, Control_c, 0, 64, 51
1, 206756, Control_c, 0, 64, 53
1, 206768, Note_on_c, 0, 54, 49
1, 206769, Note_off_c, 0, 57, 57
1, 206771, Control_c, 0, 64, 54
1, 206786, Control_c, 0, 64, 56
1, 206801, Control_c, 0, 64, 58
1, 206816, Control_c, 0, 64, 59
1, 206816, Control_c, 0, 67, 52
1, 206831, Control_c, 0, 64, 61
1, 206831, Control_c, 0, 67, 106
1, 206831, Note_off_c, 0, 54, 61
1, 206845, Control_c, 0, 64, 63
1, 206845, Control_c, 0, 67, 127
1, 206859, Note_on_c, 0, 48, 40
1, 206860, Control_c, 0, 64, 65
1, 206875, Control_c, 0, 64, 66
1, 206890, Control_c, 0, 64, 68
1, 206905, Control_c, 0, 64, 70
1, 206908, Note_off_c, 0, 48, 60
1, 206920, Control_c, 0, 64, 72
1, 206935, Control_c, 0, 64, 73
1, 206949, Control_c, 0, 64, 74
1, 206964, Note_on_c, 0, 54, 47
1, 206964, Control_c, 0, 64, 75
1, 206979, Control_c, 0, 64, 76
1, 206994, Control_c, 0, 64, 76
1, 207008, Note_off_c, 0, 54, 62
1, 207009, Control_c, 0, 64, 77
1, 207023, Control_c, 0, 64, 77
1, 207038, Control_c, 0, 64, 78
1, 207048, Note_on_c, 0, 48, 36
1, 207131, Note_off_c, 0, 48, 37
1, 207147, Note_on_c, 0, 54, 38
1, 207202, Note_off_c, 0, 54, 57
1, 207254, Control_c, 0, 64, 78
1, 207271, Note_on_c, 0, 57, 26
1, 207283, Control_c, 0, 64, 79
1, 207298, Control_c, 0, 64, 79
1, 207313, Control_c, 0, 64, 80
1, 207318, Note_off_c, 0, 60, 57
1, 207342, Control_c, 0, 64, 80
1, 207362, Note_on_c, 0, 54, 41
1, 207373, Control_c, 0, 64, 81
1, 207388, Control_c, 0, 64, 81
1, 207403, Control_c, 0, 64, 82
1, 207509, Note_off_c, 0, 57, 34
1, 207512, Note_on_c, 0, 48, 37
1, 207551, Control_c, 0, 64, 81
1, 207558, Note_off_c, 0, 54, 33
1, 207590, Note_off_c, 0, 48, 49
1, 207610, Control_c, 0, 64, 81
1, 207625, Control_c, 0, 64, 80
1, 207639, Control_c, 0, 64, 80
1, 207654, Control_c, 0, 64, 79
1, 207667, Note_on_c, 0, 61, 52
1, 207669, Control_c, 0, 64, 78
1, 207677, Note_on_c, 0, 37, 39
1, 207684, Control_c, 0, 64, 77
1, 207699, Control_c, 0, 64, 75
1, 207713, Control_c, 0, 64, 72
1, 207728, Control_c, 0, 64, 68
1, 207743, Control_c, 0, 64, 63
1, 207758, Control_c, 0, 64, 52
1, 207761, Note_off_c, 0, 38, 55
1, 207773, Control_c, 0, 64, 30
1, 207787, Control_c, 0, 64, 0
1, 207839, Note_on_c, 0, 49, 39
1, 207847, Control_c, 0, 64, 12
1, 207869, Control_c, 0, 64, 25
1, 207884, Control_c, 0, 64, 35
1, 207898, Control_c, 0, 64, 44
1, 207913, Control_c, 0, 64, 49
1, 207925, Note_off_c, 0, 49, 55
1, 207928, Control_c, 0, 64, 52
1, 207942, Note_on_c, 0, 54, 40
1, 207943, Control_c, 0, 64, 56
1, 207958, Control_c, 0, 64, 59
1, 207972, Control_c, 0, 64, 61
1, 207987, Control_c, 0, 64, 63
1, 208002, Control_c, 0, 64, 64
1, 208004, Note_off_c, 0, 54, 59
1, 208017, Control_c, 0, 64, 64
1, 208032, Control_c, 0, 64, 65
1, 208047, Control_c, 0, 64, 66
1, 208061, Note_on_c, 0, 58, 33
1, 208062, Control_c, 0, 64, 68
1, 208077, Control_c, 0, 64, 71
1, 208091, Control_c, 0, 64, 73
1, 208106, Control_c, 0, 64, 76
1, 208119, Note_off_c, 0, 58, 56
1, 208121, Control_c, 0, 64, 78
1, 208136, Control_c, 0, 64, 80
1, 208150, Note_on_c, 0, 54, 40
1, 208151, Control_c, 0, 64, 83
1, 208166, Control_c, 0, 64, 86
1, 208181, Control_c, 0, 64, 86
1, 208195, Note_off_c, 0, 54, 60
1, 208252, Note_on_c, 0, 49, 22
1, 208285, Control_c, 0, 64, 86
1, 208295, Note_off_c, 0, 49, 49
1, 208315, Control_c, 0, 64, 85
1, 208317, Note_on_c, 0, 54, 40
1, 208330, Control_c, 0, 64, 85
1, 208368, Note_off_c, 0, 54, 60
1, 208374, Control_c, 0, 64, 84
1, 208428, Note_on_c, 0, 49, 37
1, 208466, Note_off_c, 0, 49, 51
1, 208502, Note_on_c, 0, 54, 43
1, 208550, Note_off_c, 0, 54, 60
1, 208622, Note_on_c, 0, 58, 37
1, 208635, Note_off_c, 0, 37, 0
1, 208679, Poly_aftertouch_c, 0, 37, 0
1, 208703, Note_on_c, 0, 54, 42
1, 208747, Note_off_c, 0, 61, 35
1, 208795, Control_c, 0, 64, 84
1, 208828, Note_on_c, 0, 49, 41
1, 208855, Control_c, 0, 64, 83
1, 208884, Note_off_c, 0, 49, 45
1, 208884, Control_c, 0, 64, 83
1, 208899, Control_c, 0, 64, 82
1, 208914, Control_c, 0, 64, 81
1, 208944, Control_c, 0, 64, 81
1, 208947, Note_off_c, 0, 54, 30
1, 208974, Control_c, 0, 64, 81
1, 208996, Note_on_c, 0, 61, 50
1, 209009, Note_on_c, 0, 37, 36
1, 209019, Note_off_c, 0, 58, 34
1, 209019, Control_c, 0, 64, 78
1, 209033, Control_c, 0, 64, 70
1, 209048, Control_c, 0, 64, 61
1, 209063, Control_c, 0, 64, 42
1, 209078, Control_c, 0, 64, 28
1, 209093, Control_c, 0, 64, 33
1, 209108, Control_c, 0, 64, 45
1, 209123, Control_c, 0, 64, 54
1, 209138, Control_c, 0, 64, 60
1, 209152, Note_on_c, 0, 53, 40
1, 209153, Control_c, 0, 64, 64
1, 209167, Control_c, 0, 64, 68
1, 209182, Control_c, 0, 64, 73
1, 209197, Control_c, 0, 64, 80
1, 209211, Control_c, 0, 64, 86
1, 209226, Control_c, 0, 64, 91
1, 209241, Control_c, 0, 64, 94
1, 209248, Note_off_c, 0, 53, 50
1, 209256, Control_c, 0, 64, 97
1, 209259, Note_on_c, 0, 56, 34
1, 209271, Note_off_c, 0, 61, 30
1, 209271, Control_c, 0, 64, 100
1, 209285, Control_c, 0, 64, 103
1, 209293, Note_off_c, 0, 56, 49
1, 209300, Control_c, 0, 64, 105
1, 209315, Control_c, 0, 64, 105
1, 209344, Control_c, 0, 64, 106
1, 209367, Control_c, 0, 64, 106
1, 209382, Control_c, 0, 64, 107
1, 209397, Control_c, 0, 64, 108
1, 209412, Control_c, 0, 64, 108
1, 209426, Control_c, 0, 64, 110
1, 209441, Control_c, 0, 64, 113
1, 209450, Note_on_c, 0, 49, 32
1, 209456, Control_c, 0, 64, 116
1, 209457, Note_on_c, 0, 71, 65
1, 209471, Control_c, 0, 64, 121
1, 209486, Control_c, 0, 64, 127
1, 209606, Note_on_c, 0, 59, 43
1, 209624, Note_off_c, 0, 37, 39
1, 209630, Note_off_c, 0, 49, 59
1, 209709, Note_off_c, 0, 59, 39
1, 209713, Note_on_c, 0, 61, 38
1, 209791, Note_off_c, 0, 61, 50
1, 209805, Note_on_c, 0, 68, 60
1, 209813, Note_on_c, 0, 53, 45
1, 209964, Poly_aftertouch_c, 0, 59, 127
1, 209993, Note_on_c, 0, 61, 41
1, 209997, Poly_aftertouch_c, 0, 59, 0
1, 210099, Note_on_c, 0, 56, 47
1, 210116, Note_on_c, 0, 65, 55
1, 210195, Note_off_c, 0, 56, 59
1, 210200, Note_off_c, 0, 61, 33
1, 210202, Poly_aftertouch_c, 0, 69, 127
1, 210222, Note_off_c, 0, 71, 32
1, 210227, Note_on_c, 0, 59, 44
1, 210228, Note_off_c, 0, 53, 40
1, 210233, Poly_aftertouch_c, 0, 69, 0
1, 210250, Note_off_c, 0, 68, 61
1, 210301, Note_on_c, 0, 61, 41
1, 210312, Note_off_c, 0, 59, 54
1, 210319, Note_off_c, 0, 65, 55
1, 210441, Control_c, 0, 64, 111
1, 210454, Note_on_c, 0, 42, 48
1, 210456, Control_c, 0, 64, 104
1, 210461, Note_on_c, 0, 66, 59
1, 210471, Control_c, 0, 64, 99
1, 210486, Control_c, 0, 64, 95
1, 210490, Note_off_c, 0, 61, 48
1, 210501, Control_c, 0, 64, 91
1, 210515, Control_c, 0, 64, 86
1, 210530, Control_c, 0, 64, 80
1, 210545, Control_c, 0, 64, 72
1, 210561, Control_c, 0, 64, 64
1, 210576, Control_c, 0, 64, 49
1, 210590, Control_c, 0, 64, 24
1, 210605, Control_c, 0, 64, 23
1, 210617, Note_on_c, 0, 54, 38
1, 210650, Control_c, 0, 64, 24
1, 210664, Control_c, 0, 64, 30
1, 210669, Note_off_c, 0, 54, 51
1, 210672, Note_on_c, 0, 58, 51
1, 210679, Control_c, 0, 64, 38
1, 210694, Control_c, 0, 64, 46
1, 210709, Control_c, 0, 64, 51
1, 210724, Control_c, 0, 64, 54
1, 210739, Control_c, 0, 64, 57
1, 210747, Note_off_c, 0, 58, 56
1, 210753, Control_c, 0, 64, 60
1, 210768, Control_c, 0, 64, 62
1, 210773, Note_on_c, 0, 61, 38
1, 210783, Control_c, 0, 64, 64
1, 210798, Control_c, 0, 64, 66
1, 210813, Control_c, 0, 64, 67
1, 210828, Control_c, 0, 64, 69
1, 210843, Control_c, 0, 64, 72
1, 210864, Control_c, 0, 64, 75
1, 210879, Control_c, 0, 64, 79
1, 210890, Note_on_c, 0, 58, 50
1, 210894, Control_c, 0, 64, 83
1, 210901, Note_off_c, 0, 61, 36
1, 210909, Control_c, 0, 64, 87
1, 210924, Control_c, 0, 64, 92
1, 210935, Note_off_c, 0, 58, 59
1, 210939, Control_c, 0, 64, 98
1, 210949, Note_on_c, 0, 54, 49
1, 210953, Control_c, 0, 64, 105
1, 210968, Control_c, 0, 64, 127
1, 211004, Note_off_c, 0, 54, 57
1, 211042, Note_on_c, 0, 58, 49
1, 211083, Note_off_c, 0, 58, 61
1, 211145, Note_on_c, 0, 54, 40
1, 211161, Control_c, 0, 67, 127
1, 211176, Control_c, 0, 67, 114
1, 211190, Control_c, 0, 67, 102
1, 211195, Note_off_c, 0, 54, 53
1, 211204, Note_on_c, 0, 58, 44
1, 211205, Control_c, 0, 67, 93
1, 211220, Control_c, 0, 67, 84
1, 211235, Control_c, 0, 67, 73
1, 211250, Control_c, 0, 67, 57
1, 211264, Control_c, 0, 67, 38
1, 211279, Control_c, 0, 67, 14
1, 211285, Note_off_c, 0, 58, 57
1, 211294, Control_c, 0, 67, 0
1, 211317, Note_on_c, 0, 61, 48
1, 211371, Poly_aftertouch_c, 0, 62, 127
1, 211415, Note_on_c, 0, 58, 58
1, 211456, Note_off_c, 0, 66, 48
1, 211499, Note_on_c, 0, 54, 52
1, 211502, Poly_aftertouch_c, 0, 62, 0
1, 211603, Note_on_c, 0, 40, 68
1, 211625, Note_off_c, 0, 58, 51
1, 211630, Note_on_c, 0, 66, 73
1, 211660, Note_off_c, 0, 54, 50
1, 211676, Poly_aftertouch_c, 0, 62, 127
1, 211687, Control_c, 0, 64, 108
1, 211702, Control_c, 0, 64, 100
1, 211717, Control_c, 0, 64, 92
1, 211732, Control_c, 0, 64, 85
1, 211746, Control_c, 0, 64, 75
1, 211758, Note_off_c, 0, 61, 37
1, 211761, Control_c, 0, 64, 65
1, 211764, Poly_aftertouch_c, 0, 63, 127
1, 211776, Control_c, 0, 64, 46
1, 211791, Control_c, 0, 64, 0
1, 211797, Note_on_c, 0, 54, 58
1, 211800, Note_off_c, 0, 42, 50
1, 211865, Control_c, 0, 64, 25
1, 211880, Control_c, 0, 64, 39
1, 211884, Note_on_c, 0, 58, 50
1, 211889, Note_off_c, 0, 54, 48
1, 211895, Control_c, 0, 64, 50
1, 211910, Control_c, 0, 64, 54
1, 211925, Control_c, 0, 64, 57
1, 211939, Control_c, 0, 64, 60
1, 211954, Control_c, 0, 64, 63
1, 211969, Control_c, 0, 64, 67
1, 211973, Note_off_c, 0, 58, 59
1, 211984, Control_c, 0, 64, 73
1, 211993, Note_on_c, 0, 61, 44
1, 211999, Control_c, 0, 64, 82
1, 212013, Control_c, 0, 64, 98
1, 212028, Control_c, 0, 64, 127
1, 212108, Note_on_c, 0, 58, 52
1, 212147, Note_off_c, 0, 58, 62
1, 212168, Note_off_c, 0, 61, 36
1, 212188, Note_on_c, 0, 54, 50
1, 212234, Note_off_c, 0, 54, 60
1, 212268, Note_on_c, 0, 58, 45
1, 212349, Note_off_c, 0, 58, 60
1, 212381, Note_on_c, 0, 54, 51
1, 212431, Note_off_c, 0, 54, 57
1, 212465, Note_on_c, 0, 58, 46
1, 212520, Note_off_c, 0, 58, 58
1, 212560, Note_on_c, 0, 61, 54
1, 212652, Note_on_c, 0, 58, 55
1, 212697, Poly_aftertouch_c, 0, 62, 0
1, 212727, Note_off_c, 0, 66, 56
1, 212751, Note_on_c, 0, 54, 61
1, 212909, Note_on_c, 0, 38, 76
1, 212921, Note_on_c, 0, 66, 82
1, 212941, Poly_aftertouch_c, 0, 63, 0
1, 212970, Control_c, 0, 64, 108
1, 212984, Control_c, 0, 64, 87
1, 212998, Note_off_c, 0, 54, 47
1, 212999, Control_c, 0, 64, 74
1, 213011, Note_off_c, 0, 58, 29
1, 213014, Control_c, 0, 64, 62
1, 213026, Note_off_c, 0, 61, 56
1, 213029, Control_c, 0, 64, 47
1, 213043, Control_c, 0, 64, 32
1, 213058, Control_c, 0, 64, 30
1, 213073, Control_c, 0, 64, 27
1, 213087, Control_c, 0, 64, 26
1, 213125, Control_c, 0, 64, 26
1, 213139, Control_c, 0, 64, 30
1, 213142, Note_on_c, 0, 54, 54
1, 213154, Control_c, 0, 64, 33
1, 213159, Note_off_c, 0, 40, 31
1, 213169, Control_c, 0, 64, 37
1, 213183, Control_c, 0, 64, 42
1, 213198, Control_c, 0, 64, 50
1, 213213, Control_c, 0, 64, 55
1, 213224, Note_off_c, 0, 54, 54
1, 213228, Control_c, 0, 64, 58
1, 213243, Note_on_c, 0, 59, 48
1, 213243, Control_c, 0, 64, 59
1, 213257, Control_c, 0, 64, 61
1, 213272, Control_c, 0, 64, 63
1, 213287, Control_c, 0, 64, 65
1, 213302, Control_c, 0, 64, 67
1, 213317, Control_c, 0, 64, 72
1, 213332, Control_c, 0, 64, 79
1, 213338, Note_off_c, 0, 59, 59
1, 213347, Control_c, 0, 64, 89
1, 213362, Control_c, 0, 64, 111
1, 213369, Note_on_c, 0, 62, 49
1, 213377, Control_c, 0, 64, 127
1, 213472, Note_on_c, 0, 59, 52
1, 213480, Note_off_c, 0, 62, 56
1, 213530, Note_off_c, 0, 59, 55
1, 213547, Note_on_c, 0, 54, 54
1, 213618, Note_off_c, 0, 54, 59
1, 213620, Poly_aftertouch_c, 0, 63, 127
1, 213663, Note_on_c, 0, 59, 53
1, 213708, Poly_aftertouch_c, 0, 63, 0
1, 213716, Note_off_c, 0, 59, 56
1, 213745, Note_on_c, 0, 54, 55
1, 213746, Poly_aftertouch_c, 0, 63, 127
1, 213797, Note_off_c, 0, 54, 52
1, 213830, Note_on_c, 0, 59, 48
1, 213899, Note_off_c, 0, 59, 58
1, 213935, Note_on_c, 0, 62, 47
1, 214018, Note_off_c, 0, 38, 51
1, 214047, Note_on_c, 0, 59, 54
1, 214139, Note_on_c, 0, 54, 60
1, 214156, Note_off_c, 0, 66, 56
1, 214247, Poly_aftertouch_c, 0, 63, 0
1, 214283, Note_on_c, 0, 38, 56
1, 214284, Note_on_c, 0, 66, 81
1, 214332, Control_c, 0, 64, 104
1, 214333, Note_off_c, 0, 62, 57
1, 214347, Control_c, 0, 64, 75
1, 214361, Note_off_c, 0, 54, 52
1, 214362, Control_c, 0, 64, 61
1, 214377, Control_c, 0, 64, 33
1, 214392, Control_c, 0, 64, 13
1, 214406, Control_c, 0, 64, 26
1, 214421, Control_c, 0, 64, 42
1, 214434, Note_on_c, 0, 36, 54
1, 214435, Note_off_c, 0, 59, 37
1, 214436, Control_c, 0, 64, 53
1, 214437, Note_off_c, 0, 38, 57
1, 214451, Control_c, 0, 64, 58
1, 214466, Control_c, 0, 64, 62
1, 214480, Control_c, 0, 64, 66
1, 214491, Note_on_c, 0, 54, 52
1, 214495, Control_c, 0, 64, 72
1, 214510, Control_c, 0, 64, 81
1, 214524, Control_c, 0, 64, 93
1, 214528, Note_off_c, 0, 36, 59
1, 214540, Control_c, 0, 64, 107
1, 214557, Control_c, 0, 64, 127
1, 214560, Note_on_c, 0, 38, 51
1, 214600, Note_off_c, 0, 54, 56
1, 214624, Note_on_c, 0, 57, 53
1, 214631, Note_off_c, 0, 38, 59
1, 214666, Note_on_c, 0, 36, 49
1, 214703, Note_off_c, 0, 36, 63
1, 214716, Note_off_c, 0, 57, 58
1, 214734, Note_on_c, 0, 38, 48
1, 214742, Note_on_c, 0, 62, 51
1, 214778, Note_off_c, 0, 38, 59
1, 214791, Note_on_c, 0, 36, 58
1, 214828, Note_off_c, 0, 36, 62
1, 214846, Note_on_c, 0, 57, 54
1, 214889, Note_on_c, 0, 38, 36
1, 214905, Note_off_c, 0, 57, 61
1, 214917, Note_on_c, 0, 54, 55
1, 214922, Note_on_c, 0, 36, 53
1, 214953, Note_off_c, 0, 36, 60
1, 214959, Note_off_c, 0, 38, 0
1, 214973, Note_on_c, 0, 38, 37
1, 214977, Note_off_c, 0, 54, 62
1, 215009, Note_off_c, 0, 38, 62
1, 215020, Note_on_c, 0, 57, 62
1, 215029, Note_on_c, 0, 36, 49
1, 215038, Note_off_c, 0, 62, 37
1, 215061, Note_off_c, 0, 36, 54
1, 215082, Note_on_c, 0, 38, 52
1, 215083, Note_off_c, 0, 57, 63
1, 215099, Note_on_c, 0, 54, 58
1, 215114, Note_off_c, 0, 38, 61
1, 215132, Note_on_c, 0, 36, 53
1, 215142, Note_off_c, 0, 54, 62
1, 215156, Note_on_c, 0, 57, 59
1, 215167, Note_off_c, 0, 36, 52
1, 215188, Note_on_c, 0, 38, 47
1, 215213, Note_on_c, 0, 36, 57
1, 215216, Note_off_c, 0, 38, 56
1, 215230, Note_off_c, 0, 57, 62
1, 215258, Note_on_c, 0, 62, 54
1, 215267, Note_off_c, 0, 36, 61
1, 215279, Note_on_c, 0, 38, 67
1, 215297, Note_on_c, 0, 57, 56
1, 215308, Note_on_c, 0, 36, 52
1, 215310, Note_off_c, 0, 66, 61
1, 215321, Note_off_c, 0, 62, 50
1, 215368, Note_off_c, 0, 57, 63
1, 215378, Note_off_c, 0, 38, 54
1, 215380, Note_on_c, 0, 54, 65
1, 215386, Note_on_c, 0, 34, 79
1, 215400, Note_off_c, 0, 36, 62
1, 215449, Note_off_c, 0, 54, 63
1, 215476, Note_on_c, 0, 36, 82
1, 215491, Note_off_c, 0, 34, 61
1, 215643, Note_on_c, 0, 60, 29
1, 215648, Note_on_c, 0, 34, 76
1, 215660, Note_on_c, 0, 67, 91
1, 215669, Poly_aftertouch_c, 0, 63, 0
1, 215681, Note_off_c, 0, 60, 52
1, 215684, Note_off_c, 0, 36, 61
1, 215713, Control_c, 0, 64, 102
1, 215727, Control_c, 0, 64, 80
1, 215742, Control_c, 0, 64, 67
1, 215757, Control_c, 0, 64, 55
1, 215772, Control_c, 0, 64, 34
1, 215786, Control_c, 0, 64, 18
1, 215801, Control_c, 0, 64, 13
1, 215816, Control_c, 0, 64, 0
1, 215890, Note_on_c, 0, 55, 52
1, 215934, Control_c, 0, 64, 13
1, 215949, Control_c, 0, 64, 21
1, 215964, Control_c, 0, 64, 28
1, 215979, Control_c, 0, 64, 34
1, 215994, Control_c, 0, 64, 40
1, 215996, Note_on_c, 0, 58, 58
1, 216009, Control_c, 0, 64, 46
1, 216024, Control_c, 0, 64, 51
1, 216039, Control_c, 0, 64, 54
1, 216053, Control_c, 0, 64, 56
1, 216068, Control_c, 0, 64, 57
1, 216083, Control_c, 0, 64, 59
1, 216095, Note_off_c, 0, 58, 59
1, 216105, Control_c, 0, 64, 61
1, 216120, Control_c, 0, 64, 64
1, 216128, Note_on_c, 0, 62, 51
1, 216134, Control_c, 0, 64, 66
1, 216149, Control_c, 0, 64, 70
1, 216165, Control_c, 0, 64, 76
1, 216170, Note_off_c, 0, 55, 41
1, 216180, Control_c, 0, 64, 87
1, 216195, Control_c, 0, 64, 102
1, 216209, Control_c, 0, 64, 127
1, 216226, Note_on_c, 0, 58, 64
1, 216265, Note_off_c, 0, 62, 56
1, 216304, Note_off_c, 0, 58, 61
1, 216312, Note_on_c, 0, 55, 47
1, 216391, Note_off_c, 0, 55, 58
1, 216411, Note_on_c, 0, 58, 61
1, 216425, Poly_aftertouch_c, 0, 65, 127
1, 216462, Poly_aftertouch_c, 0, 33, 127
1, 216497, Note_off_c, 0, 58, 60
1, 216510, Note_on_c, 0, 55, 60
1, 216543, Poly_aftertouch_c, 0, 64, 127
1, 216560, Note_on_c, 0, 58, 55
1, 216671, Note_on_c, 0, 62, 69
1, 216674, Note_off_c, 0, 58, 61
1, 216710, Note_off_c, 0, 55, 21
1, 216788, Note_on_c, 0, 58, 72
1, 216790, Note_off_c, 0, 67, 56
1, 216903, Note_on_c, 0, 55, 70
1, 216909, Poly_aftertouch_c, 0, 65, 0
1, 216919, Note_off_c, 0, 62, 55
1, 216923, Poly_aftertouch_c, 0, 64, 0
1, 217030, Note_off_c, 0, 55, 59
1, 217104, Note_on_c, 0, 38, 57
1, 217121, Note_on_c, 0, 60, 72
1, 217183, Note_off_c, 0, 58, 62
1, 217210, Poly_aftertouch_c, 0, 31, 127
1, 217210, Control_c, 0, 64, 102
1, 217224, Control_c, 0, 64, 85
1, 217239, Control_c, 0, 64, 73
1, 217253, Note_off_c, 0, 34, 60
1, 217254, Control_c, 0, 64, 64
1, 217255, Poly_aftertouch_c, 0, 33, 0
1, 217269, Control_c, 0, 64, 53
1, 217284, Control_c, 0, 64, 38
1, 217298, Control_c, 0, 64, 35
1, 217313, Control_c, 0, 64, 34
1, 217323, Poly_aftertouch_c, 0, 31, 0
1, 217328, Control_c, 0, 64, 33
1, 217343, Control_c, 0, 64, 31
1, 217358, Control_c, 0, 64, 29
1, 217370, Note_on_c, 0, 48, 52
1, 217373, Control_c, 0, 64, 28
1, 217387, Control_c, 0, 64, 27
1, 217417, Control_c, 0, 64, 27
1, 217479, Note_on_c, 0, 54, 47
1, 217491, Control_c, 0, 64, 27
1, 217505, Control_c, 0, 64, 28
1, 217520, Control_c, 0, 64, 31
1, 217535, Control_c, 0, 64, 34
1, 217550, Control_c, 0, 64, 38
1, 217565, Control_c, 0, 64, 41
1, 217576, Note_off_c, 0, 54, 60
1, 217580, Control_c, 0, 64, 44
1, 217602, Control_c, 0, 64, 47
1, 217617, Control_c, 0, 64, 50
1, 217622, Note_on_c, 0, 57, 37
1, 217631, Control_c, 0, 64, 52
1, 217646, Control_c, 0, 64, 54
1, 217661, Control_c, 0, 64, 55
1, 217666, Note_off_c, 0, 48, 36
1, 217676, Control_c, 0, 64, 57
1, 217691, Control_c, 0, 64, 59
1, 217705, Control_c, 0, 64, 61
1, 217720, Control_c, 0, 64, 63
1, 217735, Control_c, 0, 64, 64
1, 217751, Control_c, 0, 64, 65
1, 217761, Note_on_c, 0, 54, 34
1, 217766, Control_c, 0, 64, 67
1, 217781, Control_c, 0, 64, 68
1, 217796, Control_c, 0, 64, 70
1, 217810, Control_c, 0, 64, 72
1, 217810, Control_c, 0, 67, 33
1, 217815, Note_off_c, 0, 54, 53
1, 217816, Note_off_c, 0, 57, 36
1, 217825, Control_c, 0, 64, 72
1, 217825, Control_c, 0, 67, 62
1, 217840, Control_c, 0, 67, 93
1, 217841, Note_on_c, 0, 48, 41
1, 217854, Control_c, 0, 67, 124
1, 217869, Control_c, 0, 67, 127
1, 217899, Control_c, 0, 64, 72
1, 217913, Note_off_c, 0, 48, 57
1, 217928, Control_c, 0, 64, 71
1, 217957, Note_on_c, 0, 54, 44
1, 217958, Control_c, 0, 64, 71
1, 218003, Control_c, 0, 64, 70
1, 218007, Note_off_c, 0, 54, 59
1, 218018, Control_c, 0, 64, 70
1, 218069, Note_on_c, 0, 48, 36
1, 218122, Note_off_c, 0, 48, 50
1, 218140, Note_on_c, 0, 54, 39
1, 218199, Note_off_c, 0, 54, 53
1, 218267, Note_on_c, 0, 57, 37
1, 218382, Note_off_c, 0, 60, 39
1, 218384, Note_on_c, 0, 54, 39
1, 218519, Note_on_c, 0, 48, 37
1, 218620, Control_c, 0, 64, 69
1, 218630, Note_off_c, 0, 48, 39
1, 218649, Control_c, 0, 64, 69
1, 218678, Control_c, 0, 64, 68
1, 218693, Control_c, 0, 64, 67
1, 218705, Note_off_c, 0, 57, 11
1, 218707, Note_on_c, 0, 61, 49
1, 218712, Note_on_c, 0, 37, 29
1, 218723, Control_c, 0, 64, 67
1, 218738, Control_c, 0, 64, 66
1, 218748, Note_off_c, 0, 54, 15
1, 218752, Control_c, 0, 64, 65
1, 218767, Control_c, 0, 64, 63
1, 218782, Control_c, 0, 64, 58
1, 218797, Control_c, 0, 64, 47
1, 218812, Control_c, 0, 64, 24
1, 218823, Note_off_c, 0, 38, 57
1, 218826, Control_c, 0, 64, 0
1, 218887, Note_on_c, 0, 49, 30
1, 218930, Control_c, 0, 64, 11
1, 218945, Control_c, 0, 64, 23
1, 218960, Control_c, 0, 64, 30
1, 218968, Note_on_c, 0, 54, 40
1, 218975, Control_c, 0, 64, 37
1, 218990, Control_c, 0, 64, 41
1, 219004, Control_c, 0, 64, 47
1, 219019, Control_c, 0, 64, 52
1, 219034, Control_c, 0, 64, 56
1, 219034, Note_off_c, 0, 49, 29
1, 219038, Note_off_c, 0, 54, 58
1, 219049, Control_c, 0, 64, 58
1, 219064, Control_c, 0, 64, 60
1, 219078, Control_c, 0, 64, 61
1, 219100, Control_c, 0, 64, 62
1, 219101, Note_on_c, 0, 58, 31
1, 219115, Control_c, 0, 64, 63
1, 219130, Control_c, 0, 64, 63
1, 219145, Control_c, 0, 64, 64
1, 219160, Control_c, 0, 64, 64
1, 219174, Control_c, 0, 64, 65
1, 219189, Control_c, 0, 64, 65
1, 219199, Note_on_c, 0, 54, 35
1, 219234, Control_c, 0, 64, 66
1, 219241, Note_off_c, 0, 54, 57
1, 219249, Control_c, 0, 64, 66
1, 219251, Note_off_c, 0, 58, 27
1, 219278, Control_c, 0, 64, 67
1, 219279, Note_on_c, 0, 49, 28
1, 219293, Control_c, 0, 64, 67
1, 219318, Note_off_c, 0, 49, 52
1, 219323, Control_c, 0, 64, 68
1, 219353, Control_c, 0, 64, 69
1, 219376, Note_on_c, 0, 54, 32
1, 219383, Control_c, 0, 64, 69
1, 219413, Control_c, 0, 64, 70
1, 219418, Note_off_c, 0, 54, 53
1, 219442, Control_c, 0, 64, 70
1, 219458, Note_on_c, 0, 49, 28
1, 219510, Note_off_c, 0, 49, 47
1, 219552, Note_on_c, 0, 54, 39
1, 219601, Note_off_c, 0, 54, 60
1, 219657, Note_on_c, 0, 58, 38
1, 219785, Note_on_c, 0, 54, 25
1, 219802, Note_off_c, 0, 37, 42
1, 219820, Note_off_c, 0, 61, 30
1, 219914, Note_on_c, 0, 49, 30
1, 220003, Note_off_c, 0, 49, 56
1, 220072, Control_c, 0, 64, 70
1, 220086, Note_off_c, 0, 54, 42
1, 220115, Note_on_c, 0, 37, 35
1, 220116, Control_c, 0, 64, 70
1, 220128, Note_on_c, 0, 61, 49
1, 220161, Control_c, 0, 64, 69
1, 220176, Control_c, 0, 64, 65
1, 220184, Note_off_c, 0, 58, 24
1, 220191, Control_c, 0, 64, 55
1, 220206, Control_c, 0, 64, 35
1, 220221, Control_c, 0, 64, 23
1, 220250, Control_c, 0, 64, 29
1, 220265, Control_c, 0, 64, 40
1, 220280, Control_c, 0, 64, 52
1, 220286, Note_on_c, 0, 53, 29
1, 220295, Control_c, 0, 64, 59
1, 220310, Control_c, 0, 64, 63
1, 220324, Control_c, 0, 64, 67
1, 220339, Control_c, 0, 64, 70
1, 220354, Control_c, 0, 64, 74
1, 220369, Control_c, 0, 64, 79
1, 220384, Control_c, 0, 64, 82
1, 220398, Control_c, 0, 64, 85
1, 220406, Note_off_c, 0, 61, 31
1, 220413, Control_c, 0, 64, 88
1, 220414, Note_on_c, 0, 56, 35
1, 220428, Control_c, 0, 64, 90
1, 220433, Note_off_c, 0, 53, 36
1, 220442, Control_c, 0, 64, 91
1, 220448, Note_off_c, 0, 56, 49
1, 220457, Control_c, 0, 64, 92
1, 220472, Control_c, 0, 64, 93
1, 220487, Control_c, 0, 64, 93
1, 220502, Control_c, 0, 64, 94
1, 220531, Control_c, 0, 64, 95
1, 220598, Control_c, 0, 64, 95
1, 220613, Control_c, 0, 64, 96
1, 220623, Note_on_c, 0, 71, 57
1, 220642, Note_on_c, 0, 49, 33
1, 220643, Control_c, 0, 64, 96
1, 220657, Control_c, 0, 64, 97
1, 220672, Control_c, 0, 64, 99
1, 220687, Control_c, 0, 64, 102
1, 220702, Control_c, 0, 64, 104
1, 220746, Control_c, 0, 64, 104
1, 220761, Control_c, 0, 64, 105
1, 220775, Control_c, 0, 64, 105
1, 220781, Note_off_c, 0, 37, 57
1, 220785, Note_on_c, 0, 59, 44
1, 220790, Control_c, 0, 64, 107
1, 220805, Control_c, 0, 64, 108
1, 220820, Control_c, 0, 64, 110
1, 220829, Note_off_c, 0, 49, 60
1, 220835, Control_c, 0, 64, 110
1, 220875, Note_off_c, 0, 59, 46
1, 220903, Note_on_c, 0, 61, 40
1, 220975, Note_off_c, 0, 61, 52
1, 220988, Note_on_c, 0, 68, 62
1, 220999, Control_c, 0, 64, 110
1, 221008, Note_on_c, 0, 53, 46
1, 221088, Control_c, 0, 64, 110
1, 221118, Control_c, 0, 64, 111
1, 221125, Note_on_c, 0, 59, 24
1, 221147, Control_c, 0, 64, 111
1, 221162, Control_c, 0, 64, 113
1, 221163, Note_off_c, 0, 59, 52
1, 221182, Note_on_c, 0, 61, 46
1, 221192, Control_c, 0, 64, 113
1, 221206, Control_c, 0, 64, 114
1, 221221, Control_c, 0, 64, 116
1, 221236, Control_c, 0, 64, 117
1, 221251, Control_c, 0, 64, 119
1, 221265, Control_c, 0, 64, 121
1, 221279, Control_c, 0, 64, 127
1, 221289, Note_on_c, 0, 56, 44
1, 221307, Note_on_c, 0, 65, 58
1, 221336, Note_off_c, 0, 61, 31
1, 221369, Note_off_c, 0, 71, 41
1, 221401, Note_on_c, 0, 59, 47
1, 221405, Note_off_c, 0, 68, 62
1, 221418, Note_off_c, 0, 56, 59
1, 221431, Note_off_c, 0, 53, 40
1, 221459, Note_off_c, 0, 59, 63
1, 221489, Note_on_c, 0, 61, 59
1, 221497, Note_off_c, 0, 65, 57
1, 221592, Note_on_c, 0, 42, 46
1, 221610, Note_on_c, 0, 66, 67
1, 221613, Control_c, 0, 64, 118
1, 221616, Note_off_c, 0, 61, 56
1, 221628, Control_c, 0, 64, 99
1, 221643, Control_c, 0, 64, 81
1, 221658, Control_c, 0, 64, 66
1, 221672, Control_c, 0, 64, 48
1, 221687, Control_c, 0, 64, 40
1, 221702, Control_c, 0, 64, 44
1, 221708, Note_on_c, 0, 54, 43
1, 221717, Control_c, 0, 64, 49
1, 221732, Control_c, 0, 64, 54
1, 221741, Note_off_c, 0, 54, 56
1, 221747, Control_c, 0, 64, 59
1, 221762, Control_c, 0, 64, 63
1, 221777, Control_c, 0, 64, 66
1, 221783, Note_on_c, 0, 58, 53
1, 221792, Control_c, 0, 64, 70
1, 221807, Control_c, 0, 64, 74
1, 221821, Control_c, 0, 64, 79
1, 221836, Control_c, 0, 64, 82
1, 221851, Control_c, 0, 64, 84
1, 221866, Control_c, 0, 64, 85
1, 221878, Note_on_c, 0, 46, 45
1, 221881, Control_c, 0, 64, 86
1, 221882, Note_on_c, 0, 61, 66
1, 221884, Note_on_c, 0, 49, 40
1, 221895, Control_c, 0, 64, 87
1, 221910, Control_c, 0, 64, 86
1, 221925, Control_c, 0, 64, 84
1, 221940, Control_c, 0, 64, 80
1, 221944, Note_off_c, 0, 58, 35
1, 221955, Control_c, 0, 64, 78
1, 221967, Note_on_c, 0, 54, 57
1, 221969, Control_c, 0, 64, 77
1, 221984, Control_c, 0, 64, 78
1, 221999, Control_c, 0, 64, 78
1, 222013, Control_c, 0, 64, 79
1, 222029, Control_c, 0, 64, 80
1, 222030, Note_off_c, 0, 66, 56
1, 222045, Note_off_c, 0, 46, 57
1, 222059, Control_c, 0, 64, 80
1, 222066, Note_on_c, 0, 58, 16
1, 222111, Poly_aftertouch_c, 0, 57, 127
1, 222115, Poly_aftertouch_c, 0, 59, 127
1, 222140, Control_c, 0, 64, 81
1, 222173, Note_on_c, 0, 63, 72
1, 222180, Note_on_c, 0, 51, 53
1, 222181, Note_off_c, 0, 54, 33
1, 222185, Control_c, 0, 64, 80
1, 222193, Note_on_c, 0, 47, 49
1, 222200, Control_c, 0, 64, 77
1, 222215, Control_c, 0, 64, 71
1, 222229, Control_c, 0, 64, 63
1, 222236, Note_off_c, 0, 58, 52
1, 222238, Note_off_c, 0, 49, 56
1, 222244, Control_c, 0, 64, 48
1, 222259, Control_c, 0, 64, 41
1, 222274, Control_c, 0, 64, 44
1, 222284, Poly_aftertouch_c, 0, 59, 0
1, 222288, Note_on_c, 0, 54, 57
1, 222289, Control_c, 0, 64, 48
1, 222303, Control_c, 0, 64, 53
1, 222318, Control_c, 0, 64, 56
1, 222331, Note_off_c, 0, 61, 49
1, 222333, Control_c, 0, 64, 61
1, 222346, Note_on_c, 0, 59, 42
1, 222348, Control_c, 0, 64, 63
1, 222363, Control_c, 0, 64, 65
1, 222377, Control_c, 0, 64, 67
1, 222381, Poly_aftertouch_c, 0, 57, 0
1, 222392, Control_c, 0, 64, 70
1, 222403, Note_off_c, 0, 54, 38
1, 222407, Control_c, 0, 64, 73
1, 222417, Note_off_c, 0, 51, 49
1, 222421, Control_c, 0, 64, 78
1, 222436, Note_on_c, 0, 49, 53
1, 222436, Control_c, 0, 64, 84
1, 222439, Note_off_c, 0, 42, 57
1, 222451, Control_c, 0, 64, 91
1, 222455, Note_on_c, 0, 46, 48
1, 222465, Note_on_c, 0, 61, 73
1, 222466, Control_c, 0, 64, 100
1, 222481, Control_c, 0, 64, 113
1, 222495, Control_c, 0, 64, 127
1, 222528, Note_off_c, 0, 49, 59
1, 222528, Note_off_c, 0, 59, 57
1, 222543, Note_off_c, 0, 47, 57
1, 222544, Note_on_c, 0, 54, 60
1, 222568, Note_off_c, 0, 46, 63
1, 222641, Note_off_c, 0, 54, 56
1, 222697, Note_on_c, 0, 58, 35
1, 222763, Control_c, 0, 64, 111
1, 222766, Note_on_c, 0, 37, 52
1, 222778, Note_on_c, 0, 65, 77
1, 222778, Control_c, 0, 64, 95
1, 222782, Note_off_c, 0, 58, 53
1, 222792, Control_c, 0, 64, 74
1, 222807, Control_c, 0, 64, 60
1, 222817, Note_off_c, 0, 61, 61
1, 222822, Control_c, 0, 64, 0
1, 222904, Control_c, 0, 64, 22
1, 222918, Control_c, 0, 64, 48
1, 222933, Control_c, 0, 64, 60
1, 222937, Note_on_c, 0, 59, 54
1, 222948, Control_c, 0, 64, 65
1, 222963, Control_c, 0, 64, 70
1, 222978, Control_c, 0, 64, 78
1, 222992, Control_c, 0, 64, 85
1, 223002, Note_off_c, 0, 63, 12
1, 223006, Note_on_c, 0, 61, 47
1, 223007, Note_off_c, 0, 59, 62
1, 223007, Control_c, 0, 64, 92
1, 223012, Note_off_c, 0, 65, 58
1, 223022, Control_c, 0, 64, 96
1, 223032, Note_off_c, 0, 61, 56
1, 223037, Control_c, 0, 64, 99
1, 223051, Control_c, 0, 64, 99
1, 223066, Control_c, 0, 64, 100
1, 223081, Control_c, 0, 64, 100
1, 223096, Control_c, 0, 64, 101
1, 223111, Control_c, 0, 64, 101
1, 223125, Control_c, 0, 64, 102
1, 223140, Control_c, 0, 64, 104
1, 223145, Note_on_c, 0, 71, 74
1, 223155, Control_c, 0, 64, 107
1, 223163, Note_on_c, 0, 49, 39
1, 223170, Control_c, 0, 64, 111
1, 223185, Control_c, 0, 64, 114
1, 223199, Control_c, 0, 64, 116
1, 223214, Control_c, 0, 64, 117
1, 223229, Control_c, 0, 64, 119
1, 223243, Control_c, 0, 64, 127
1, 223268, Note_off_c, 0, 37, 60
1, 223306, Note_off_c, 0, 49, 63
1, 223366, Note_on_c, 0, 61, 45
1, 223431, Note_off_c, 0, 61, 42
1, 223447, Note_on_c, 0, 68, 72
1, 223459, Note_on_c, 0, 53, 46
1, 223509, Poly_aftertouch_c, 0, 69, 127
1, 223566, Note_on_c, 0, 59, 17
1, 223623, Note_off_c, 0, 59, 47
1, 223653, Note_on_c, 0, 61, 30
1, 223735, Note_on_c, 0, 56, 54
1, 223741, Note_on_c, 0, 65, 68
1, 223755, Note_off_c, 0, 61, 34
1, 223792, Note_off_c, 0, 53, 63
1, 223806, Note_off_c, 0, 56, 56
1, 223824, Note_off_c, 0, 71, 55
1, 223834, Note_on_c, 0, 59, 57
1, 223863, Poly_aftertouch_c, 0, 69, 0
1, 223887, Note_off_c, 0, 68, 58
1, 223887, Note_off_c, 0, 59, 59
1, 223918, Note_on_c, 0, 61, 56
1, 223986, Note_off_c, 0, 65, 49
1, 224037, Note_on_c, 0, 42, 52
1, 224042, Note_on_c, 0, 66, 70
1, 224054, Note_off_c, 0, 61, 56
1, 224066, Control_c, 0, 64, 96
1, 224081, Control_c, 0, 64, 76
1, 224096, Control_c, 0, 64, 61
1, 224111, Control_c, 0, 64, 41
1, 224126, Control_c, 0, 64, 39
1, 224131, Note_on_c, 0, 54, 48
1, 224141, Control_c, 0, 64, 47
1, 224156, Control_c, 0, 64, 54
1, 224170, Control_c, 0, 64, 60
1, 224185, Control_c, 0, 64, 65
1, 224195, Note_off_c, 0, 54, 55
1, 224200, Control_c, 0, 64, 68
1, 224207, Note_on_c, 0, 58, 55
1, 224215, Control_c, 0, 64, 74
1, 224230, Control_c, 0, 64, 81
1, 224245, Control_c, 0, 64, 88
1, 224260, Control_c, 0, 64, 94
1, 224275, Control_c, 0, 64, 97
1, 224289, Control_c, 0, 64, 98
1, 224308, Note_on_c, 0, 61, 69
1, 224311, Note_on_c, 0, 46, 50
1, 224317, Poly_aftertouch_c, 0, 62, 127
1, 224319, Note_on_c, 0, 49, 46
1, 224319, Control_c, 0, 64, 97
1, 224328, Note_off_c, 0, 58, 54
1, 224341, Control_c, 0, 64, 91
1, 224356, Control_c, 0, 64, 80
1, 224370, Control_c, 0, 64, 70
1, 224385, Control_c, 0, 64, 62
1, 224389, Note_on_c, 0, 54, 52
1, 224400, Control_c, 0, 64, 61
1, 224415, Control_c, 0, 64, 63
1, 224430, Control_c, 0, 64, 65
1, 224445, Control_c, 0, 64, 67
1, 224460, Control_c, 0, 64, 71
1, 224475, Note_on_c, 0, 58, 52
1, 224475, Control_c, 0, 64, 77
1, 224480, Note_off_c, 0, 46, 54
1, 224489, Control_c, 0, 64, 84
1, 224504, Control_c, 0, 64, 90
1, 224519, Control_c, 0, 64, 94
1, 224534, Control_c, 0, 64, 95
1, 224593, Control_c, 0, 64, 96
1, 224601, Poly_aftertouch_c, 0, 62, 0
1, 224608, Control_c, 0, 64, 96
1, 224625, Note_on_c, 0, 63, 73
1, 224627, Note_on_c, 0, 47, 44
1, 224627, Note_on_c, 0, 51, 46
1, 224627, Note_off_c, 0, 54, 34
1, 224637, Control_c, 0, 64, 94
1, 224652, Control_c, 0, 64, 83
1, 224667, Control_c, 0, 64, 72
1, 224682, Control_c, 0, 64, 63
1, 224687, Poly_aftertouch_c, 0, 59, 127
1, 224689, Note_off_c, 0, 66, 61
1, 224692, Note_off_c, 0, 49, 55
1, 224696, Control_c, 0, 64, 50
1, 224704, Note_off_c, 0, 58, 52
1, 224711, Control_c, 0, 64, 42
1, 224726, Control_c, 0, 64, 44
1, 224730, Poly_aftertouch_c, 0, 57, 0
1, 224738, Note_off_c, 0, 61, 51
1, 224741, Control_c, 0, 64, 52
1, 224742, Poly_aftertouch_c, 0, 59, 0
1, 224747, Note_on_c, 0, 54, 59
1, 224756, Control_c, 0, 64, 58
1, 224770, Control_c, 0, 64, 61
1, 224785, Control_c, 0, 64, 63
1, 224800, Control_c, 0, 64, 66
1, 224812, Note_on_c, 0, 59, 35
1, 224814, Control_c, 0, 64, 69
1, 224829, Control_c, 0, 64, 72
1, 224844, Control_c, 0, 64, 76
1, 224859, Control_c, 0, 64, 78
1, 224862, Note_off_c, 0, 54, 33
1, 224874, Control_c, 0, 64, 79
1, 224889, Control_c, 0, 64, 80
1, 224904, Control_c, 0, 64, 81
1, 224914, Note_on_c, 0, 46, 35
1, 224919, Control_c, 0, 64, 84
1, 224919, Note_on_c, 0, 49, 57
1, 224934, Control_c, 0, 64, 87
1, 224935, Note_on_c, 0, 61, 75
1, 224949, Control_c, 0, 64, 92
1, 224964, Control_c, 0, 64, 98
1, 224979, Control_c, 0, 64, 104
1, 224993, Note_off_c, 0, 51, 36
1, 224993, Control_c, 0, 64, 114
1, 225008, Control_c, 0, 64, 121
1, 225011, Note_off_c, 0, 59, 60
1, 225038, Control_c, 0, 64, 119
1, 225049, Note_on_c, 0, 54, 65
1, 225074, Note_off_c, 0, 49, 58
1, 225105, Control_c, 0, 64, 121
1, 225114, Note_off_c, 0, 47, 38
1, 225119, Control_c, 0, 64, 127
1, 225124, Note_off_c, 0, 46, 57
1, 225141, Note_on_c, 0, 58, 60
1, 225147, Note_off_c, 0, 42, 35
1, 225187, Note_off_c, 0, 54, 54
1, 225312, Control_c, 0, 64, 121
1, 225319, Note_on_c, 0, 37, 51
1, 225327, Control_c, 0, 64, 117
1, 225342, Control_c, 0, 64, 113
1, 225346, Note_on_c, 0, 65, 77
1, 225357, Control_c, 0, 64, 108
1, 225372, Control_c, 0, 64, 99
1, 225383, Note_off_c, 0, 58, 55
1, 225386, Control_c, 0, 64, 88
1, 225401, Control_c, 0, 64, 73
1, 225412, Note_off_c, 0, 61, 59
1, 225416, Control_c, 0, 64, 61
1, 225431, Control_c, 0, 64, 0
1, 225542, Note_off_c, 0, 63, 32
1, 225543, Note_on_c, 0, 59, 48
1, 225564, Control_c, 0, 64, 36
1, 225579, Control_c, 0, 64, 61
1, 225593, Control_c, 0, 64, 68
1, 225608, Control_c, 0, 64, 78
1, 225623, Control_c, 0, 64, 98
1, 225635, Note_off_c, 0, 59, 60
1, 225637, Control_c, 0, 64, 127
1, 225643, Note_on_c, 0, 61, 53
1, 225667, Note_off_c, 0, 65, 62
1, 225675, Note_off_c, 0, 61, 64
1, 225867, Note_on_c, 0, 49, 25
1, 225889, Note_on_c, 0, 75, 72
1, 226113, Note_on_c, 0, 65, 40
1, 226120, Note_off_c, 0, 37, 60
1, 226173, Note_off_c, 0, 49, 55
1, 226293, Note_on_c, 0, 68, 37
1, 226294, Note_off_c, 0, 65, 30
1, 226391, Note_off_c, 0, 75, 53
1, 226421, Note_off_c, 0, 68, 57
1, 226427, Note_on_c, 0, 56, 31
1, 226431, Note_on_c, 0, 71, 56
1, 226624, Note_on_c, 0, 61, 42
1, 226689, Note_off_c, 0, 61, 41
1, 226721, Note_on_c, 0, 65, 39
1, 226740, Note_off_c, 0, 71, 29
1, 226854, Note_on_c, 0, 59, 37
1, 226916, Note_on_c, 0, 68, 47
1, 226951, Note_off_c, 0, 65, 36
1, 226986, Note_off_c, 0, 59, 58
1, 227059, Note_on_c, 0, 61, 32
1, 227111, Note_off_c, 0, 56, 41
1, 227295, Note_on_c, 0, 65, 39
1, 227399, Note_off_c, 0, 68, 37
1, 227405, Note_off_c, 0, 61, 43
1, 227470, Note_off_c, 0, 65, 32
1, 227633, Control_c, 0, 64, 123
1, 227648, Control_c, 0, 64, 105
1, 227662, Control_c, 0, 64, 96
1, 227669, Note_on_c, 0, 42, 40
1, 227677, Control_c, 0, 64, 89
1, 227681, Note_on_c, 0, 49, 26
1, 227687, Note_on_c, 0, 66, 48
1, 227692, Control_c, 0, 64, 83
1, 227707, Control_c, 0, 64, 78
1, 227721, Control_c, 0, 64, 72
1, 227736, Control_c, 0, 64, 67
1, 227751, Control_c, 0, 64, 60
1, 227766, Control_c, 0, 64, 47
1, 227781, Control_c, 0, 64, 22
1, 227795, Control_c, 0, 64, 0
1, 227870, Control_c, 0, 64, 17
1, 227885, Control_c, 0, 64, 33
1, 227900, Control_c, 0, 64, 44
1, 227914, Control_c, 0, 64, 52
1, 227929, Control_c, 0, 64, 57
1, 227944, Control_c, 0, 64, 60
1, 227959, Control_c, 0, 64, 63
1, 227974, Control_c, 0, 64, 64
1, 227988, Control_c, 0, 64, 66
1, 228003, Control_c, 0, 64, 68
1, 228018, Control_c, 0, 64, 70
1, 228019, Note_on_c, 0, 54, 31
1, 228032, Control_c, 0, 64, 72
1, 228047, Control_c, 0, 64, 74
1, 228062, Control_c, 0, 64, 75
1, 228084, Control_c, 0, 64, 77
1, 228099, Control_c, 0, 64, 79
1, 228114, Control_c, 0, 64, 81
1, 228129, Control_c, 0, 64, 83
1, 228144, Control_c, 0, 64, 84
1, 228159, Control_c, 0, 64, 85
1, 228180, Note_on_c, 0, 58, 38
1, 228189, Control_c, 0, 64, 86
1, 228204, Control_c, 0, 64, 86
1, 228219, Control_c, 0, 64, 88
1, 228233, Control_c, 0, 64, 90
1, 228248, Control_c, 0, 64, 91
1, 228308, Control_c, 0, 64, 91
1, 228317, Note_off_c, 0, 58, 53
1, 228323, Control_c, 0, 64, 92
1, 228337, Control_c, 0, 64, 92
1, 228352, Control_c, 0, 64, 93
1, 228367, Control_c, 0, 64, 94
1, 228382, Control_c, 0, 64, 96
1, 228391, Note_on_c, 0, 61, 35
1, 228397, Control_c, 0, 64, 97
1, 228409, Note_off_c, 0, 54, 34
1, 228411, Control_c, 0, 64, 99
1, 228426, Control_c, 0, 64, 101
1, 228441, Control_c, 0, 64, 104
1, 228455, Control_c, 0, 64, 105
1, 228470, Control_c, 0, 64, 107
1, 228485, Control_c, 0, 64, 108
1, 228500, Control_c, 0, 64, 111
1, 228515, Control_c, 0, 64, 113
1, 228519, Note_on_c, 0, 58, 45
1, 228530, Control_c, 0, 64, 115
1, 228538, Note_off_c, 0, 61, 36
1, 228544, Control_c, 0, 64, 117
1, 228559, Control_c, 0, 64, 119
1, 228572, Note_off_c, 0, 58, 56
1, 228574, Control_c, 0, 64, 123
1, 228589, Control_c, 0, 64, 127
1, 228597, Note_on_c, 0, 54, 40
1, 228642, Note_off_c, 0, 54, 53
1, 228693, Note_on_c, 0, 58, 38
1, 228725, Note_off_c, 0, 58, 54
1, 228774, Note_on_c, 0, 54, 40
1, 228820, Note_off_c, 0, 54, 49
1, 228842, Note_on_c, 0, 58, 44
1, 228890, Note_off_c, 0, 58, 58
1, 228956, Note_off_c, 0, 49, 34
1, 228961, Note_on_c, 0, 61, 40
1, 229010, Note_off_c, 0, 42, 34
1, 229021, Note_on_c, 0, 58, 43
1, 229021, Note_off_c, 0, 66, 53
1, 229062, Note_off_c, 0, 58, 60
1, 229106, Note_on_c, 0, 54, 43
1, 229170, Note_off_c, 0, 54, 52
1, 229181, Note_on_c, 0, 66, 56
1, 229189, Note_on_c, 0, 42, 36
1, 229198, Note_on_c, 0, 58, 46
1, 229199, Note_on_c, 0, 49, 32
1, 229249, Note_off_c, 0, 58, 57
1, 229272, Note_off_c, 0, 61, 37
1, 229316, Note_on_c, 0, 54, 41
1, 229374, Note_off_c, 0, 54, 45
1, 229381, Note_on_c, 0, 58, 49
1, 229429, Note_off_c, 0, 58, 53
1, 229495, Note_on_c, 0, 61, 39
1, 229525, Note_off_c, 0, 42, 37
1, 229529, Note_off_c, 0, 49, 34
1, 229575, Note_on_c, 0, 58, 41
1, 229621, Note_off_c, 0, 58, 52
1, 229635, Note_off_c, 0, 66, 37
1, 229639, Note_on_c, 0, 54, 53
1, 229720, Note_off_c, 0, 54, 55
1, 229730, Note_on_c, 0, 49, 11
1, 229739, Note_on_c, 0, 66, 73
1, 229756, Note_on_c, 0, 42, 43
1, 229757, Note_on_c, 0, 58, 27
1, 229815, Note_off_c, 0, 58, 44
1, 229850, Note_off_c, 0, 61, 37
1, 229869, Note_on_c, 0, 54, 44
1, 229927, Note_off_c, 0, 54, 44
1, 229954, Note_on_c, 0, 58, 47
1, 230039, Note_off_c, 0, 58, 55
1, 230078, Note_on_c, 0, 61, 40
1, 230207, Note_on_c, 0, 58, 39
1, 230262, Note_off_c, 0, 58, 54
1, 230280, Note_on_c, 0, 54, 45
1, 230301, Note_off_c, 0, 66, 53
1, 230393, Note_off_c, 0, 54, 38
1, 230498, Note_off_c, 0, 42, 39
1, 230516, Note_off_c, 0, 49, 34
1, 230521, Note_on_c, 0, 66, 47
1, 230525, Note_on_c, 0, 54, 40
1, 230537, Note_on_c, 0, 58, 44
1, 230715, Note_on_c, 0, 42, 41
1, 230862, Note_on_c, 0, 46, 37
1, 230936, Note_off_c, 0, 46, 58
1, 230979, Note_on_c, 0, 49, 34
1, 231060, Note_off_c, 0, 49, 51
1, 231085, Note_off_c, 0, 42, 42
1, 231096, Note_on_c, 0, 46, 43
1, 231174, Note_off_c, 0, 46, 54
1, 231196, Note_on_c, 0, 42, 48
1, 231256, Note_off_c, 0, 42, 58
1, 231305, Note_on_c, 0, 46, 39
1, 231339, Note_off_c, 0, 46, 60
1, 231384, Note_on_c, 0, 42, 47
1, 231450, Note_on_c, 0, 46, 35
1, 231524, Note_off_c, 0, 46, 55
1, 231533, Note_off_c, 0, 58, 37
1, 231575, Note_on_c, 0, 49, 29
1, 231608, Note_off_c, 0, 66, 34
1, 231626, Note_off_c, 0, 42, 57
1, 231631, Note_off_c, 0, 49, 53
1, 231664, Note_off_c, 0, 54, 40
1, 231666, Note_on_c, 0, 46, 45
1, 231724, Note_off_c, 0, 46, 52
1, 231766, Note_on_c, 0, 42, 43
1, 231809, Note_on_c, 0, 66, 50
1, 231835, Note_on_c, 0, 54, 35
1, 231838, Note_on_c, 0, 58, 46
1, 231870, Note_off_c, 0, 42, 54
1, 231888, Note_on_c, 0, 46, 40
1, 231932, Note_off_c, 0, 46, 52
1, 231969, Note_on_c, 0, 42, 33
1, 232055, Note_on_c, 0, 46, 34
1, 232095, Note_off_c, 0, 46, 51
1, 232159, Note_on_c, 0, 49, 8
1, 232201, Note_off_c, 0, 58, 34
1, 232217, Note_off_c, 0, 42, 42
1, 232229, Note_off_c, 0, 49, 41
1, 232240, Note_on_c, 0, 46, 36
1, 232289, Note_off_c, 0, 66, 33
1, 232331, Note_off_c, 0, 46, 56
1, 232346, Note_off_c, 0, 54, 34
1, 232350, Note_on_c, 0, 42, 43
1, 232413, Note_off_c, 0, 42, 61
1, 232497, Note_on_c, 0, 66, 50
1, 232502, Note_on_c, 0, 46, 35
1, 232502, Note_on_c, 0, 54, 42
1, 232538, Note_on_c, 0, 58, 41
1, 232584, Note_off_c, 0, 46, 53
1, 232638, Note_on_c, 0, 42, 47
1, 232797, Note_on_c, 0, 37, 31
1, 232803, Note_off_c, 0, 42, 35
1, 232926, Note_off_c, 0, 37, 36
1, 232971, Note_on_c, 0, 42, 41
1, 233119, Note_off_c, 0, 58, 37
1, 233184, Note_off_c, 0, 42, 33
1, 233206, Note_on_c, 0, 37, 39
1, 233240, Note_off_c, 0, 54, 40
1, 233295, Note_off_c, 0, 61, 39
1, 233422, Note_off_c, 0, 37, 39
1, 233480, Note_off_c, 0, 66, 34
1, 233590, Note_on_c, 0, 34, 34
1, 233984, Note_off_c, 0, 34, 39
1, 234354, Note_on_c, 0, 66, 39
1, 234362, Note_on_c, 0, 30, 30
1, 234365, Note_on_c, 0, 58, 39
1, 234368, Note_on_c, 0, 37, 32
1, 234369, Note_on_c, 0, 42, 27
1, 234371, Note_on_c, 0, 54, 31
1, 234445, Control_c, 0, 64, 109
1, 234460, Control_c, 0, 64, 97
1, 234474, Control_c, 0, 64, 89
1, 234489, Control_c, 0, 64, 83
1, 234504, Control_c, 0, 64, 77
1, 234520, Control_c, 0, 64, 71
1, 234535, Control_c, 0, 64, 67
1, 234550, Control_c, 0, 64, 64
1, 234565, Control_c, 0, 64, 61
1, 234579, Control_c, 0, 64, 60
1, 234594, Control_c, 0, 64, 60
1, 234609, Control_c, 0, 64, 59
1, 234639, Control_c, 0, 64, 59
1, 234653, Control_c, 0, 64, 58
1, 234668, Control_c, 0, 64, 58
1, 234698, Control_c, 0, 64, 57
1, 234742, Control_c, 0, 64, 57
1, 234771, Control_c, 0, 64, 56
1, 234824, Control_c, 0, 64, 56
1, 235090, Control_c, 0, 64, 55
1, 235312, Control_c, 0, 64, 55
1, 235432, Control_c, 0, 64, 54
1, 235520, Control_c, 0, 64, 54
1, 235691, Control_c, 0, 64, 53
1, 236195, Control_c, 0, 64, 54
1, 236884, Control_c, 0, 64, 54
1, 237204, Control_c, 0, 64, 55
1, 237619, Control_c, 0, 64, 55
1, 237996, Control_c, 0, 64, 56
1, 238056, Control_c, 0, 64, 56
1, 238085, Control_c, 0, 64, 57
1, 238130, Control_c, 0, 64, 57
1, 238145, Control_c, 0, 64, 58
1, 238175, Control_c, 0, 64, 59
1, 238190, Control_c, 0, 64, 59
1, 238204, Control_c, 0, 64, 60
1, 238234, Control_c, 0, 64, 60
1, 238249, Control_c, 0, 64, 61
1, 238264, Control_c, 0, 64, 61
1, 238278, Control_c, 0, 64, 62
1, 238322, Control_c, 0, 64, 62
1, 238337, Control_c, 0, 64, 63
1, 238382, Control_c, 0, 64, 63
1, 238642, Control_c, 0, 64, 64
1, 238844, Note_off_c, 0, 54, 1
1, 239219, Control_c, 0, 64, 63
1, 239251, Note_off_c, 0, 58, 5
1, 239361, Control_c, 0, 64, 63
1, 239365, Note_off_c, 0, 42, 27
1, 239427, Note_off_c, 0, 30, 40
1, 239436, Note_off_c, 0, 66, 31
1, 239465, Control_c, 0, 64, 62
1, 239488, Note_off_c, 0, 37, 30
1, 239510, Control_c, 0, 64, 62
1, 239554, Control_c, 0, 64, 61
1, 239583, Control_c, 0, 64, 61
1, 239613, Control_c, 0, 64, 60
1, 239642, Control_c, 0, 64, 60
1, 239657, Control_c, 0, 64, 59
1, 239687, Control_c, 0, 64, 59
1, 239790, Control_c, 0, 64, 58
1, 240703, Control_c, 0, 64, 58
1, 240792, Control_c, 0, 64, 57
1, 240807, Control_c, 0, 64, 57
1, 240859, Control_c, 0, 64, 56
1, 240873, Control_c, 0, 67, 119
1, 240888, Control_c, 0, 67, 95
1, 240903, Control_c, 0, 67, 71
1, 240919, Control_c, 0, 67, 45
1, 240934, Control_c, 0, 67, 17
1, 240949, Control_c, 0, 67, 0
1, 240978, Control_c, 0, 64, 56
1, 240993, Control_c, 0, 64, 55
1, 241008, Control_c, 0, 64, 55
1, 241052, Control_c, 0, 64, 54
1, 241185, Control_c, 0, 64, 54
1, 241215, Control_c, 0, 64, 53
1, 241230, Control_c, 0, 64, 53
1, 241245, Control_c, 0, 64, 52
1, 241275, Control_c, 0, 64, 52
1, 241304, Control_c, 0, 64, 51
1, 241511, Control_c, 0, 64, 51
1, 241578, Control_c, 0, 64, 50
1, 241593, Control_c, 0, 64, 47
1, 241608, Control_c, 0, 64, 42
1, 241622, Control_c, 0, 64, 33
1, 241637, Control_c, 0, 64, 27
1, 241652, Control_c, 0, 64, 25
1, 241667, Control_c, 0, 64, 20
1, 241682, Control_c, 0, 64, 0
1, 241757, End_track
0, 0, End_of_file
