0, 0, Header, 0, 1, 384
1, 0, Start_track
1, 0, Title_t, "BarberSonata--Hou               "
1, 0, Text_t, "2011 ePiano Junior Competition"
1, 0, Text_t, "captured in spring and summer 2011"
1, 0, Text_t, "http://www.piano-e-competition.com/"
1, 0, Text_t, "standard-resolution version"
1, 0, Text_t, "File processed for distribution with software designed and coded by Dr. John Q. Walker, founder of Zenph Sound Innovations"
1, 0, Instrument_name_t, "Yamaha Disklavier Pro Mark IV concert grand piano, model DCFIIISM4PRO"
1, 0, Sequencer_specific, 39, 67, 113, 0, 1, 0, 1, 0, 66, 97, 114, 98, 101, 114, 32, 83, 111, 110, 97, 116, 97, 32, 32, 32, 75, 105, 109, 98, 101, 114, 108, 121, 32, 72, 111, 117, 32, 32, 32, 32
1, 0, Sequencer_specific, 6, 67, 113, 0, 0, 0, 69
1, 0, System_exclusive, 21, 67, 113, 126, 21, 0, 2, 2, 2, 5, 12, 8, 4, 14, 1, 3, 6, 9, 10, 0, 7, 247
1, 0, Sequencer_specific, 5, 67, 123, 12, 2, 1
1, 0, Tempo, 512820
1, 0, Time_signature, 4, 2, 24, 8
1, 0, System_exclusive, 5, 126, 127, 9, 1, 247
1, 1, System_exclusive, 8, 67, 16, 76, 0, 0, 126, 0, 247
1, 2, System_exclusive, 8, 67, 16, 76, 8, 9, 7, 1, 247
1, 3, Control_c, 0, 0, 108
1, 3, Control_c, 1, 0, 108
1, 3, Control_c, 2, 0, 0
1, 3, Control_c, 3, 0, 0
1, 3, Control_c, 4, 0, 0
1, 3, Control_c, 5, 0, 0
1, 3, Control_c, 6, 0, 0
1, 3, Control_c, 7, 0, 0
1, 3, Control_c, 8, 0, 0
1, 3, Control_c, 9, 0, 127
1, 3, Control_c, 10, 0, 0
1, 3, Control_c, 11, 0, 0
1, 3, Control_c, 12, 0, 0
1, 3, Control_c, 13, 0, 0
1, 3, Control_c, 14, 0, 0
1, 3, Control_c, 15, 0, 0
1, 4, Control_c, 0, 32, 0
1, 4, Control_c, 1, 32, 0
1, 4, Control_c, 2, 32, 0
1, 4, Control_c, 3, 32, 0
1, 4, Control_c, 4, 32, 0
1, 4, Control_c, 5, 32, 0
1, 4, Control_c, 6, 32, 0
1, 4, Control_c, 7, 32, 0
1, 4, Control_c, 8, 32, 0
1, 4, Control_c, 9, 32, 0
1, 4, Control_c, 10, 32, 0
1, 4, Control_c, 11, 32, 0
1, 4, Control_c, 12, 32, 0
1, 4, Control_c, 13, 32, 0
1, 4, Control_c, 14, 32, 0
1, 4, Control_c, 15, 32, 0
1, 5, Program_c, 0, 0
1, 5, Program_c, 1, 0
1, 5, Program_c, 2, 0
1, 5, Program_c, 3, 0
1, 5, Program_c, 4, 0
1, 5, Program_c, 5, 0
1, 5, Program_c, 6, 0
1, 5, Program_c, 7, 0
1, 5, Program_c, 8, 0
1, 5, Program_c, 9, 0
1, 5, Program_c, 10, 0
1, 5, Program_c, 11, 0
1, 5, Program_c, 12, 0
1, 5, Program_c, 13, 0
1, 5, Program_c, 14, 0
1, 5, Program_c, 15, 0
1, 6, Control_c, 0, 7, 100
1, 6, Control_c, 1, 7, 100
1, 6, Control_c, 2, 7, 100
1, 6, Control_c, 3, 7, 100
1, 6, Control_c, 4, 7, 100
1, 6, Control_c, 5, 7, 100
1, 6, Control_c, 6, 7, 100
1, 6, Control_c, 7, 7, 100
1, 6, Control_c, 8, 7, 100
1, 6, Control_c, 9, 7, 100
1, 6, Control_c, 10, 7, 100
1, 6, Control_c, 11, 7, 100
1, 6, Control_c, 12, 7, 100
1, 6, Control_c, 13, 7, 100
1, 6, Control_c, 14, 7, 100
1, 6, Control_c, 15, 7, 100
1, 42, Control_c, 0, 64, 15
1, 79, Control_c, 0, 64, 31
1, 116, Control_c, 0, 64, 46
1, 153, Control_c, 0, 64, 63
1, 190, Control_c, 0, 64, 77
1, 226, Control_c, 0, 64, 94
1, 263, Control_c, 0, 64, 108
1, 300, Control_c, 0, 64, 127
1, 380, Note_on_c, 0, 59, 80
1, 385, Note_on_c, 0, 39, 72
1, 392, Note_on_c, 0, 27, 60
1, 415, Note_off_c, 0, 39, 62
1, 424, Note_off_c, 0, 27, 58
1, 431, Control_c, 0, 64, 94
1, 446, Control_c, 0, 64, 67
1, 453, Note_on_c, 0, 58, 99
1, 456, Note_off_c, 0, 59, 38
1, 461, Control_c, 0, 64, 40
1, 470, Note_on_c, 0, 30, 75
1, 471, Note_on_c, 0, 42, 82
1, 475, Control_c, 0, 64, 0
1, 505, Control_c, 0, 64, 43
1, 520, Control_c, 0, 64, 59
1, 535, Control_c, 0, 64, 67
1, 551, Control_c, 0, 64, 82
1, 566, Control_c, 0, 64, 127
1, 593, Note_off_c, 0, 42, 61
1, 600, Note_off_c, 0, 30, 60
1, 716, Note_on_c, 0, 45, 80
1, 729, Note_on_c, 0, 33, 57
1, 740, Note_off_c, 0, 45, 67
1, 758, Control_c, 0, 64, 107
1, 761, Note_off_c, 0, 33, 56
1, 773, Control_c, 0, 64, 70
1, 788, Control_c, 0, 64, 31
1, 797, Note_on_c, 0, 35, 80
1, 798, Note_on_c, 0, 47, 84
1, 803, Control_c, 0, 64, 0
1, 862, Control_c, 0, 64, 48
1, 877, Control_c, 0, 64, 61
1, 891, Control_c, 0, 64, 66
1, 906, Control_c, 0, 64, 76
1, 921, Control_c, 0, 64, 104
1, 936, Control_c, 0, 64, 127
1, 1009, Note_off_c, 0, 58, 53
1, 1041, Note_on_c, 0, 57, 84
1, 1103, Note_off_c, 0, 57, 55
1, 1104, Control_c, 0, 64, 99
1, 1119, Control_c, 0, 64, 68
1, 1126, Note_on_c, 0, 58, 96
1, 1134, Control_c, 0, 64, 55
1, 1149, Control_c, 0, 64, 57
1, 1164, Control_c, 0, 64, 62
1, 1178, Control_c, 0, 64, 67
1, 1193, Control_c, 0, 64, 77
1, 1208, Control_c, 0, 64, 106
1, 1223, Control_c, 0, 64, 127
1, 1274, Note_off_c, 0, 47, 62
1, 1309, Note_off_c, 0, 35, 61
1, 1336, Note_off_c, 0, 58, 60
1, 1394, Note_on_c, 0, 57, 83
1, 1403, Note_on_c, 0, 39, 75
1, 1409, Note_on_c, 0, 27, 69
1, 1432, Control_c, 0, 64, 94
1, 1433, Note_off_c, 0, 39, 64
1, 1435, Note_off_c, 0, 57, 66
1, 1439, Note_off_c, 0, 27, 58
1, 1446, Control_c, 0, 64, 66
1, 1461, Control_c, 0, 64, 38
1, 1471, Note_on_c, 0, 56, 101
1, 1476, Control_c, 0, 64, 0
1, 1477, Note_on_c, 0, 42, 89
1, 1479, Note_on_c, 0, 30, 84
1, 1491, Control_c, 0, 64, 39
1, 1494, Note_on_c, 0, 55, 68
1, 1506, Control_c, 0, 64, 56
1, 1520, Control_c, 0, 64, 65
1, 1535, Note_off_c, 0, 55, 40
1, 1535, Control_c, 0, 64, 86
1, 1550, Control_c, 0, 64, 127
1, 1598, Note_off_c, 0, 56, 63
1, 1626, Note_off_c, 0, 30, 59
1, 1636, Note_off_c, 0, 42, 62
1, 1782, Note_on_c, 0, 59, 87
1, 1786, Note_on_c, 0, 45, 80
1, 1789, Note_on_c, 0, 33, 73
1, 1817, Note_off_c, 0, 33, 64
1, 1817, Note_off_c, 0, 45, 66
1, 1825, Note_off_c, 0, 59, 66
1, 1876, Note_on_c, 0, 58, 111
1, 1880, Note_on_c, 0, 35, 88
1, 1880, Note_on_c, 0, 47, 91
1, 1884, Control_c, 0, 64, 106
1, 1899, Control_c, 0, 64, 64
1, 1914, Control_c, 0, 64, 0
1, 2017, Control_c, 0, 64, 40
1, 2032, Control_c, 0, 64, 58
1, 2047, Control_c, 0, 64, 62
1, 2062, Control_c, 0, 64, 66
1, 2076, Control_c, 0, 64, 74
1, 2091, Control_c, 0, 64, 99
1, 2106, Control_c, 0, 64, 127
1, 2149, Note_off_c, 0, 35, 57
1, 2199, Note_off_c, 0, 47, 58
1, 2375, Note_off_c, 0, 58, 60
1, 2598, Note_on_c, 0, 57, 80
1, 2603, Control_c, 0, 64, 100
1, 2618, Control_c, 0, 64, 68
1, 2624, Note_on_c, 0, 39, 45
1, 2625, Note_on_c, 0, 27, 49
1, 2633, Control_c, 0, 64, 30
1, 2648, Control_c, 0, 64, 0
1, 2659, Note_off_c, 0, 39, 53
1, 2664, Note_off_c, 0, 27, 52
1, 2694, Note_on_c, 0, 30, 66
1, 2697, Note_on_c, 0, 59, 73
1, 2703, Note_off_c, 0, 57, 59
1, 2707, Control_c, 0, 64, 24
1, 2709, Note_on_c, 0, 42, 58
1, 2722, Control_c, 0, 64, 48
1, 2737, Control_c, 0, 64, 61
1, 2751, Control_c, 0, 64, 66
1, 2766, Control_c, 0, 64, 71
1, 2773, Note_off_c, 0, 42, 58
1, 2781, Control_c, 0, 64, 78
1, 2790, Note_off_c, 0, 30, 60
1, 2796, Control_c, 0, 64, 86
1, 2811, Control_c, 0, 64, 94
1, 2825, Control_c, 0, 64, 105
1, 2840, Control_c, 0, 64, 127
1, 2925, Note_on_c, 0, 45, 64
1, 2928, Note_on_c, 0, 33, 59
1, 2931, Note_off_c, 0, 59, 63
1, 2941, Note_on_c, 0, 58, 77
1, 2956, Note_off_c, 0, 45, 64
1, 2959, Note_off_c, 0, 33, 58
1, 2959, Control_c, 0, 64, 84
1, 2974, Control_c, 0, 64, 65
1, 2989, Control_c, 0, 64, 36
1, 3004, Control_c, 0, 64, 0
1, 3017, Note_on_c, 0, 57, 86
1, 3019, Control_c, 0, 64, 11
1, 3033, Note_off_c, 0, 58, 63
1, 3033, Control_c, 0, 64, 42
1, 3035, Note_on_c, 0, 35, 68
1, 3035, Note_on_c, 0, 47, 65
1, 3048, Control_c, 0, 64, 58
1, 3063, Control_c, 0, 64, 67
1, 3068, Note_off_c, 0, 47, 64
1, 3078, Control_c, 0, 64, 79
1, 3093, Control_c, 0, 64, 121
1, 3095, Note_off_c, 0, 35, 59
1, 3107, Control_c, 0, 64, 127
1, 3227, Note_on_c, 0, 44, 71
1, 3235, Note_on_c, 0, 32, 59
1, 3235, Note_on_c, 0, 64, 81
1, 3262, Note_off_c, 0, 44, 63
1, 3271, Note_off_c, 0, 32, 62
1, 3283, Note_off_c, 0, 57, 62
1, 3285, Control_c, 0, 64, 81
1, 3300, Control_c, 0, 64, 55
1, 3314, Note_on_c, 0, 63, 93
1, 3315, Control_c, 0, 64, 0
1, 3328, Note_on_c, 0, 47, 77
1, 3339, Note_on_c, 0, 35, 71
1, 3353, Note_off_c, 0, 64, 65
1, 3381, Control_c, 0, 64, 50
1, 3396, Control_c, 0, 64, 67
1, 3410, Note_off_c, 0, 47, 62
1, 3411, Control_c, 0, 64, 81
1, 3426, Note_off_c, 0, 35, 59
1, 3426, Control_c, 0, 64, 105
1, 3441, Control_c, 0, 64, 127
1, 3545, Note_on_c, 0, 50, 78
1, 3552, Note_on_c, 0, 59, 88
1, 3557, Note_on_c, 0, 38, 55
1, 3571, Note_off_c, 0, 50, 66
1, 3587, Note_off_c, 0, 38, 55
1, 3626, Note_on_c, 0, 52, 88
1, 3631, Note_on_c, 0, 58, 90
1, 3640, Note_on_c, 0, 40, 60
1, 3643, Note_on_c, 0, 38, 69
1, 3648, Control_c, 0, 64, 78
1, 3663, Control_c, 0, 64, 63
1, 3678, Note_off_c, 0, 38, 62
1, 3678, Control_c, 0, 64, 42
1, 3682, Note_off_c, 0, 63, 58
1, 3694, Note_off_c, 0, 59, 58
1, 3707, Control_c, 0, 64, 51
1, 3722, Control_c, 0, 64, 60
1, 3738, Control_c, 0, 64, 66
1, 3753, Control_c, 0, 64, 72
1, 3768, Control_c, 0, 64, 80
1, 3783, Control_c, 0, 64, 87
1, 3797, Control_c, 0, 64, 89
1, 3812, Control_c, 0, 64, 88
1, 3827, Control_c, 0, 64, 83
1, 3842, Control_c, 0, 64, 76
1, 3857, Control_c, 0, 64, 64
1, 3861, Note_on_c, 0, 62, 86
1, 3871, Control_c, 0, 64, 51
1, 3886, Control_c, 0, 64, 33
1, 3891, Note_off_c, 0, 58, 63
1, 3901, Control_c, 0, 64, 0
1, 3945, Note_on_c, 0, 61, 92
1, 3990, Note_off_c, 0, 62, 62
1, 4049, Control_c, 0, 64, 38
1, 4064, Control_c, 0, 64, 53
1, 4086, Control_c, 0, 64, 58
1, 4101, Control_c, 0, 64, 61
1, 4116, Control_c, 0, 64, 65
1, 4131, Control_c, 0, 64, 72
1, 4145, Control_c, 0, 64, 83
1, 4160, Control_c, 0, 64, 108
1, 4175, Control_c, 0, 64, 127
1, 4179, Note_on_c, 0, 57, 86
1, 4234, Control_c, 0, 64, 75
1, 4249, Control_c, 0, 64, 61
1, 4263, Control_c, 0, 64, 51
1, 4278, Control_c, 0, 64, 59
1, 4281, Note_on_c, 0, 56, 93
1, 4293, Control_c, 0, 64, 65
1, 4308, Control_c, 0, 64, 73
1, 4313, Note_off_c, 0, 52, 62
1, 4323, Control_c, 0, 64, 127
1, 4353, Note_off_c, 0, 61, 54
1, 4364, Note_off_c, 0, 57, 58
1, 4376, Note_off_c, 0, 40, 63
1, 4456, Note_off_c, 0, 56, 64
1, 4487, Note_on_c, 0, 60, 99
1, 4499, Note_on_c, 0, 32, 75
1, 4502, Note_on_c, 0, 44, 66
1, 4530, Control_c, 0, 64, 79
1, 4547, Control_c, 0, 64, 60
1, 4561, Control_c, 0, 64, 29
1, 4570, Note_off_c, 0, 44, 63
1, 4570, Note_off_c, 0, 32, 62
1, 4576, Control_c, 0, 64, 35
1, 4591, Control_c, 0, 64, 52
1, 4606, Control_c, 0, 64, 62
1, 4611, Poly_aftertouch_c, 0, 42, 0
1, 4615, Note_on_c, 0, 59, 91
1, 4620, Control_c, 0, 64, 70
1, 4635, Control_c, 0, 64, 88
1, 4642, Note_on_c, 0, 47, 85
1, 4645, Note_on_c, 0, 35, 79
1, 4650, Control_c, 0, 64, 127
1, 4660, Note_off_c, 0, 60, 53
1, 4689, Note_off_c, 0, 47, 62
1, 4695, Note_off_c, 0, 35, 60
1, 4727, Note_on_c, 0, 58, 87
1, 4740, Note_on_c, 0, 56, 79
1, 4749, Note_off_c, 0, 59, 64
1, 4821, Note_on_c, 0, 55, 90
1, 4824, Note_on_c, 0, 50, 86
1, 4834, Control_c, 0, 64, 119
1, 4839, Note_on_c, 0, 38, 73
1, 4845, Note_off_c, 0, 58, 60
1, 4846, Note_off_c, 0, 56, 64
1, 4849, Control_c, 0, 64, 70
1, 4864, Control_c, 0, 64, 30
1, 4872, Note_off_c, 0, 38, 61
1, 4872, Note_off_c, 0, 50, 61
1, 4879, Control_c, 0, 64, 0
1, 4923, Control_c, 0, 64, 41
1, 4927, Note_on_c, 0, 54, 85
1, 4937, Control_c, 0, 64, 63
1, 4938, Note_on_c, 0, 57, 88
1, 4943, Note_on_c, 0, 52, 87
1, 4946, Note_on_c, 0, 40, 74
1, 4948, Note_off_c, 0, 55, 59
1, 4952, Control_c, 0, 64, 76
1, 4967, Control_c, 0, 64, 127
1, 4982, Note_off_c, 0, 54, 62
1, 5001, Note_off_c, 0, 52, 65
1, 5042, Note_on_c, 0, 56, 95
1, 5063, Note_off_c, 0, 57, 63
1, 5143, Note_on_c, 0, 54, 94
1, 5148, Note_on_c, 0, 55, 96
1, 5160, Control_c, 0, 64, 98
1, 5175, Control_c, 0, 64, 77
1, 5181, Note_off_c, 0, 56, 60
1, 5185, Note_off_c, 0, 54, 63
1, 5187, Note_on_c, 0, 42, 39
1, 5190, Control_c, 0, 64, 63
1, 5205, Control_c, 0, 64, 16
1, 5219, Control_c, 0, 64, 0
1, 5247, Note_on_c, 0, 53, 100
1, 5254, Note_off_c, 0, 42, 0
1, 5277, Note_on_c, 0, 42, 14
1, 5285, Note_off_c, 0, 53, 64
1, 5322, Note_off_c, 0, 42, 51
1, 5350, Note_on_c, 0, 52, 104
1, 5354, Note_on_c, 0, 54, 94
1, 5372, Note_off_c, 0, 55, 66
1, 5429, Note_off_c, 0, 54, 66
1, 5476, Note_on_c, 0, 53, 97
1, 5487, Control_c, 0, 64, 33
1, 5502, Control_c, 0, 64, 78
1, 5512, Note_on_c, 0, 56, 21
1, 5512, Note_off_c, 0, 53, 67
1, 5517, Control_c, 0, 64, 127
1, 5550, Note_off_c, 0, 56, 51
1, 5699, Note_on_c, 0, 71, 105
1, 5719, Note_off_c, 0, 52, 69
1, 5730, Poly_aftertouch_c, 0, 42, 127
1, 5765, Note_off_c, 0, 40, 63
1, 5776, Control_c, 0, 64, 88
1, 5778, Poly_aftertouch_c, 0, 42, 0
1, 5791, Control_c, 0, 64, 71
1, 5806, Control_c, 0, 64, 59
1, 5821, Control_c, 0, 64, 41
1, 5835, Control_c, 0, 64, 29
1, 5850, Control_c, 0, 64, 23
1, 5865, Control_c, 0, 64, 0
1, 5949, Note_on_c, 0, 39, 73
1, 5954, Note_on_c, 0, 59, 88
1, 5958, Note_on_c, 0, 27, 61
1, 5975, Note_off_c, 0, 39, 65
1, 5980, Note_off_c, 0, 59, 66
1, 5989, Note_off_c, 0, 27, 59
1, 6040, Note_on_c, 0, 58, 96
1, 6044, Note_on_c, 0, 42, 77
1, 6046, Note_on_c, 0, 30, 73
1, 6058, Control_c, 0, 64, 57
1, 6073, Control_c, 0, 64, 68
1, 6087, Control_c, 0, 64, 85
1, 6102, Control_c, 0, 64, 127
1, 6131, Note_off_c, 0, 42, 61
1, 6144, Note_off_c, 0, 30, 60
1, 6262, Note_on_c, 0, 45, 79
1, 6273, Note_on_c, 0, 33, 60
1, 6287, Note_off_c, 0, 45, 66
1, 6305, Note_off_c, 0, 33, 60
1, 6326, Control_c, 0, 64, 113
1, 6347, Control_c, 0, 64, 76
1, 6362, Control_c, 0, 64, 60
1, 6368, Note_on_c, 0, 47, 79
1, 6370, Note_on_c, 0, 35, 73
1, 6377, Control_c, 0, 64, 17
1, 6392, Control_c, 0, 64, 26
1, 6407, Control_c, 0, 64, 45
1, 6422, Control_c, 0, 64, 57
1, 6425, Poly_aftertouch_c, 0, 68, 127
1, 6436, Control_c, 0, 64, 64
1, 6451, Control_c, 0, 64, 69
1, 6466, Control_c, 0, 64, 82
1, 6473, Note_off_c, 0, 58, 58
1, 6481, Control_c, 0, 64, 99
1, 6496, Control_c, 0, 64, 127
1, 6571, Note_off_c, 0, 71, 57
1, 6581, Note_on_c, 0, 57, 80
1, 6614, Note_off_c, 0, 57, 64
1, 6618, Note_on_c, 0, 64, 51
1, 6628, Poly_aftertouch_c, 0, 68, 0
1, 6644, Control_c, 0, 64, 96
1, 6658, Control_c, 0, 64, 64
1, 6669, Note_on_c, 0, 70, 88
1, 6672, Note_on_c, 0, 58, 84
1, 6672, Note_off_c, 0, 64, 59
1, 6673, Control_c, 0, 64, 0
1, 6717, Control_c, 0, 64, 26
1, 6718, Note_off_c, 0, 70, 68
1, 6732, Control_c, 0, 64, 55
1, 6747, Control_c, 0, 64, 69
1, 6750, Note_on_c, 0, 69, 50
1, 6762, Control_c, 0, 64, 87
1, 6777, Control_c, 0, 64, 127
1, 6779, Note_off_c, 0, 69, 55
1, 6828, Note_off_c, 0, 58, 58
1, 6905, Note_on_c, 0, 57, 78
1, 6937, Note_off_c, 0, 47, 62
1, 6956, Note_off_c, 0, 57, 62
1, 6963, Note_off_c, 0, 35, 61
1, 6976, Note_on_c, 0, 64, 36
1, 7000, Note_on_c, 0, 56, 96
1, 7000, Poly_aftertouch_c, 0, 37, 127
1, 7030, Note_off_c, 0, 64, 38
1, 7045, Poly_aftertouch_c, 0, 37, 0
1, 7050, Poly_aftertouch_c, 0, 67, 127
1, 7085, Poly_aftertouch_c, 0, 67, 0
1, 7095, Note_on_c, 0, 64, 26
1, 7097, Note_off_c, 0, 56, 58
1, 7106, Poly_aftertouch_c, 0, 68, 127
1, 7122, Poly_aftertouch_c, 0, 67, 127
1, 7163, Note_off_c, 0, 64, 56
1, 7177, Poly_aftertouch_c, 0, 67, 0
1, 7186, Poly_aftertouch_c, 0, 68, 0
1, 7213, Note_on_c, 0, 39, 89
1, 7220, Note_on_c, 0, 59, 83
1, 7220, Note_on_c, 0, 64, 69
1, 7223, Note_on_c, 0, 27, 77
1, 7243, Note_off_c, 0, 39, 68
1, 7250, Note_off_c, 0, 27, 64
1, 7253, Note_off_c, 0, 59, 65
1, 7279, Note_off_c, 0, 64, 64
1, 7304, Control_c, 0, 64, 85
1, 7311, Note_on_c, 0, 71, 90
1, 7313, Note_on_c, 0, 58, 103
1, 7317, Note_on_c, 0, 30, 89
1, 7317, Note_on_c, 0, 42, 92
1, 7319, Control_c, 0, 64, 62
1, 7326, Note_on_c, 0, 69, 77
1, 7333, Control_c, 0, 64, 0
1, 7378, Control_c, 0, 64, 40
1, 7384, Note_off_c, 0, 69, 0
1, 7384, Note_on_c, 0, 69, 26
1, 7393, Control_c, 0, 64, 63
1, 7407, Control_c, 0, 64, 73
1, 7422, Control_c, 0, 64, 95
1, 7424, Note_off_c, 0, 69, 23
1, 7430, Note_off_c, 0, 42, 63
1, 7437, Control_c, 0, 64, 127
1, 7442, Note_off_c, 0, 30, 62
1, 7529, Note_on_c, 0, 45, 85
1, 7536, Note_on_c, 0, 33, 70
1, 7557, Note_off_c, 0, 45, 68
1, 7568, Note_off_c, 0, 33, 64
1, 7585, Control_c, 0, 64, 95
1, 7600, Control_c, 0, 64, 67
1, 7614, Control_c, 0, 64, 20
1, 7623, Note_on_c, 0, 47, 98
1, 7627, Note_on_c, 0, 35, 83
1, 7629, Control_c, 0, 64, 0
1, 7674, Control_c, 0, 64, 44
1, 7688, Control_c, 0, 64, 64
1, 7697, Note_off_c, 0, 58, 63
1, 7703, Control_c, 0, 64, 76
1, 7718, Control_c, 0, 64, 102
1, 7734, Control_c, 0, 64, 127
1, 7834, Note_off_c, 0, 71, 56
1, 7852, Note_on_c, 0, 57, 90
1, 7889, Note_on_c, 0, 64, 28
1, 7894, Note_off_c, 0, 57, 66
1, 7934, Control_c, 0, 64, 83
1, 7944, Note_on_c, 0, 70, 90
1, 7945, Note_on_c, 0, 59, 83
1, 7949, Control_c, 0, 64, 60
1, 7963, Control_c, 0, 64, 0
1, 7980, Note_off_c, 0, 64, 60
1, 8023, Control_c, 0, 64, 43
1, 8037, Control_c, 0, 64, 62
1, 8052, Control_c, 0, 64, 70
1, 8067, Control_c, 0, 64, 81
1, 8072, Note_off_c, 0, 59, 64
1, 8082, Control_c, 0, 64, 100
1, 8085, Note_on_c, 0, 64, 26
1, 8097, Control_c, 0, 64, 127
1, 8116, Poly_aftertouch_c, 0, 67, 127
1, 8168, Note_on_c, 0, 58, 81
1, 8216, Control_c, 0, 64, 93
1, 8230, Control_c, 0, 64, 70
1, 8243, Note_off_c, 0, 35, 61
1, 8245, Control_c, 0, 64, 64
1, 8246, Poly_aftertouch_c, 0, 67, 0
1, 8253, Note_on_c, 0, 57, 87
1, 8253, Note_off_c, 0, 70, 59
1, 8256, Note_off_c, 0, 58, 65
1, 8260, Control_c, 0, 64, 66
1, 8261, Note_off_c, 0, 64, 37
1, 8275, Note_off_c, 0, 47, 65
1, 8275, Control_c, 0, 64, 71
1, 8281, Note_off_c, 0, 57, 67
1, 8290, Control_c, 0, 64, 80
1, 8304, Control_c, 0, 64, 99
1, 8319, Control_c, 0, 64, 127
1, 8323, Poly_aftertouch_c, 0, 68, 0
1, 8452, Control_c, 0, 64, 86
1, 8467, Control_c, 0, 64, 60
1, 8482, Control_c, 0, 64, 0
1, 8489, Note_on_c, 0, 64, 66
1, 8490, Note_on_c, 0, 75, 74
1, 8508, Note_on_c, 0, 76, 69
1, 8510, Note_on_c, 0, 65, 34
1, 8543, Note_off_c, 0, 76, 63
1, 8544, Note_off_c, 0, 65, 35
1, 8547, Note_off_c, 0, 75, 63
1, 8579, Note_on_c, 0, 63, 95
1, 8583, Note_off_c, 0, 64, 47
1, 8583, Note_on_c, 0, 66, 89
1, 8584, Note_on_c, 0, 78, 98
1, 8594, Control_c, 0, 64, 55
1, 8609, Note_off_c, 0, 63, 63
1, 8609, Control_c, 0, 64, 72
1, 8624, Control_c, 0, 64, 102
1, 8639, Control_c, 0, 64, 127
1, 8801, Control_c, 0, 64, 64
1, 8804, Note_on_c, 0, 52, 86
1, 8811, Note_on_c, 0, 40, 78
1, 8816, Control_c, 0, 64, 0
1, 8835, Note_off_c, 0, 52, 68
1, 8843, Note_off_c, 0, 40, 64
1, 8860, Control_c, 0, 64, 49
1, 8873, Note_off_c, 0, 78, 62
1, 8875, Control_c, 0, 64, 66
1, 8890, Control_c, 0, 64, 127
1, 8901, Note_on_c, 0, 51, 96
1, 8919, Note_on_c, 0, 39, 64
1, 8926, Note_off_c, 0, 51, 64
1, 8946, Note_off_c, 0, 39, 60
1, 8956, Note_off_c, 0, 66, 61
1, 9109, Note_on_c, 0, 70, 94
1, 9113, Control_c, 0, 64, 68
1, 9127, Control_c, 0, 64, 0
1, 9138, Note_on_c, 0, 61, 75
1, 9186, Control_c, 0, 64, 42
1, 9201, Control_c, 0, 64, 63
1, 9203, Note_on_c, 0, 60, 85
1, 9205, Note_on_c, 0, 74, 104
1, 9209, Note_on_c, 0, 62, 93
1, 9212, Note_off_c, 0, 61, 62
1, 9216, Control_c, 0, 64, 77
1, 9223, Note_off_c, 0, 60, 72
1, 9231, Control_c, 0, 64, 127
1, 9246, Note_off_c, 0, 70, 62
1, 9262, Note_on_c, 0, 58, 11
1, 9305, Note_off_c, 0, 58, 45
1, 9417, Control_c, 0, 64, 96
1, 9432, Control_c, 0, 64, 66
1, 9433, Note_on_c, 0, 49, 77
1, 9444, Note_on_c, 0, 37, 67
1, 9446, Note_off_c, 0, 62, 62
1, 9447, Control_c, 0, 64, 38
1, 9462, Control_c, 0, 64, 51
1, 9473, Note_off_c, 0, 49, 62
1, 9477, Control_c, 0, 64, 63
1, 9477, Note_off_c, 0, 37, 64
1, 9491, Control_c, 0, 64, 74
1, 9494, Note_off_c, 0, 74, 67
1, 9506, Control_c, 0, 64, 127
1, 9535, Note_on_c, 0, 47, 83
1, 9545, Note_on_c, 0, 35, 73
1, 9572, Note_off_c, 0, 35, 63
1, 9576, Note_on_c, 0, 33, 16
1, 9582, Note_off_c, 0, 47, 63
1, 9626, Note_off_c, 0, 33, 41
1, 9741, Note_on_c, 0, 81, 26
1, 9754, Note_on_c, 0, 75, 90
1, 9755, Note_on_c, 0, 87, 92
1, 9757, Control_c, 0, 64, 88
1, 9768, Note_on_c, 0, 63, 54
1, 9772, Control_c, 0, 64, 58
1, 9780, Note_off_c, 0, 81, 53
1, 9787, Control_c, 0, 64, 0
1, 9793, Note_on_c, 0, 65, 39
1, 9799, Note_on_c, 0, 64, 48
1, 9891, Control_c, 0, 64, 43
1, 9894, Note_off_c, 0, 87, 63
1, 9903, Note_off_c, 0, 75, 59
1, 9906, Control_c, 0, 64, 60
1, 9906, Note_on_c, 0, 81, 46
1, 9918, Note_on_c, 0, 68, 61
1, 9918, Note_on_c, 0, 70, 56
1, 9921, Control_c, 0, 64, 65
1, 9931, Note_on_c, 0, 80, 37
1, 9936, Control_c, 0, 64, 72
1, 9943, Note_on_c, 0, 74, 77
1, 9943, Note_on_c, 0, 86, 85
1, 9950, Control_c, 0, 64, 84
1, 9965, Control_c, 0, 64, 119
1, 9966, Note_off_c, 0, 80, 48
1, 9978, Note_off_c, 0, 81, 62
1, 9980, Control_c, 0, 64, 127
1, 9999, Note_off_c, 0, 65, 61
1, 10011, Note_off_c, 0, 64, 38
1, 10021, Note_off_c, 0, 63, 60
1, 10093, Note_off_c, 0, 74, 61
1, 10106, Control_c, 0, 64, 116
1, 10121, Control_c, 0, 64, 104
1, 10136, Control_c, 0, 64, 96
1, 10151, Control_c, 0, 64, 89
1, 10166, Control_c, 0, 64, 83
1, 10180, Control_c, 0, 64, 79
1, 10195, Control_c, 0, 64, 76
1, 10210, Control_c, 0, 64, 72
1, 10225, Control_c, 0, 64, 67
1, 10230, Note_off_c, 0, 70, 57
1, 10233, Note_on_c, 0, 61, 37
1, 10240, Control_c, 0, 64, 60
1, 10240, Note_off_c, 0, 68, 59
1, 10243, Note_on_c, 0, 63, 42
1, 10251, Note_off_c, 0, 86, 54
1, 10255, Note_on_c, 0, 85, 61
1, 10255, Control_c, 0, 64, 43
1, 10264, Note_on_c, 0, 73, 50
1, 10270, Control_c, 0, 64, 0
1, 10380, Note_off_c, 0, 73, 63
1, 10419, Note_on_c, 0, 65, 37
1, 10423, Note_on_c, 0, 84, 57
1, 10425, Note_on_c, 0, 68, 34
1, 10428, Note_off_c, 0, 85, 55
1, 10432, Control_c, 0, 64, 45
1, 10434, Note_on_c, 0, 72, 41
1, 10447, Control_c, 0, 64, 60
1, 10462, Control_c, 0, 64, 65
1, 10477, Control_c, 0, 64, 73
1, 10492, Control_c, 0, 64, 86
1, 10506, Control_c, 0, 64, 127
1, 10532, Note_off_c, 0, 84, 60
1, 10546, Note_off_c, 0, 68, 53
1, 10564, Note_off_c, 0, 65, 63
1, 10566, Control_c, 0, 66, 127
1, 10574, Note_off_c, 0, 72, 47
1, 10579, Note_off_c, 0, 63, 62
1, 10613, Note_off_c, 0, 61, 34
1, 10788, Note_on_c, 0, 59, 62
1, 10853, Note_off_c, 0, 59, 58
1, 11003, Control_c, 0, 64, 108
1, 11007, Note_on_c, 0, 58, 58
1, 11018, Control_c, 0, 64, 82
1, 11030, Note_on_c, 0, 47, 40
1, 11032, Note_on_c, 0, 53, 48
1, 11033, Control_c, 0, 64, 61
1, 11045, Note_on_c, 0, 63, 43
1, 11048, Control_c, 0, 64, 0
1, 11048, Control_c, 0, 66, 0
1, 11152, Control_c, 0, 66, 127
1, 11195, Note_on_c, 0, 73, 52
1, 11226, Control_c, 0, 64, 33
1, 11241, Control_c, 0, 64, 53
1, 11247, Note_off_c, 0, 63, 59
1, 11255, Control_c, 0, 64, 62
1, 11270, Control_c, 0, 64, 67
1, 11285, Control_c, 0, 64, 73
1, 11298, Note_off_c, 0, 73, 58
1, 11300, Control_c, 0, 64, 81
1, 11311, Note_on_c, 0, 68, 50
1, 11315, Control_c, 0, 64, 85
1, 11318, Note_off_c, 0, 47, 55
1, 11327, Note_off_c, 0, 53, 61
1, 11329, Control_c, 0, 64, 89
1, 11344, Control_c, 0, 64, 94
1, 11359, Control_c, 0, 64, 98
1, 11373, Control_c, 0, 64, 102
1, 11384, Note_off_c, 0, 68, 59
1, 11386, Note_off_c, 0, 58, 63
1, 11388, Control_c, 0, 64, 104
1, 11403, Control_c, 0, 64, 105
1, 11410, Note_on_c, 0, 66, 55
1, 11433, Control_c, 0, 64, 104
1, 11447, Control_c, 0, 64, 103
1, 11462, Control_c, 0, 64, 102
1, 11477, Control_c, 0, 64, 101
1, 11492, Control_c, 0, 64, 99
1, 11494, Note_off_c, 0, 66, 53
1, 11495, Note_on_c, 0, 76, 60
1, 11506, Control_c, 0, 64, 97
1, 11520, Control_c, 0, 64, 95
1, 11535, Control_c, 0, 64, 94
1, 11550, Control_c, 0, 64, 93
1, 11572, Control_c, 0, 64, 93
1, 11582, Note_off_c, 0, 76, 57
1, 11605, Note_on_c, 0, 71, 50
1, 11624, Note_on_c, 0, 59, 59
1, 11632, Control_c, 0, 64, 89
1, 11647, Note_off_c, 0, 71, 64
1, 11647, Control_c, 0, 64, 78
1, 11661, Control_c, 0, 64, 66
1, 11676, Control_c, 0, 64, 53
1, 11690, Note_on_c, 0, 69, 52
1, 11691, Control_c, 0, 64, 36
1, 11693, Note_off_c, 0, 59, 57
1, 11698, Note_on_c, 0, 61, 63
1, 11706, Control_c, 0, 64, 33
1, 11721, Control_c, 0, 64, 41
1, 11737, Control_c, 0, 64, 53
1, 11751, Control_c, 0, 64, 61
1, 11766, Note_off_c, 0, 69, 59
1, 11766, Control_c, 0, 64, 65
1, 11771, Note_off_c, 0, 61, 60
1, 11772, Note_on_c, 0, 79, 61
1, 11781, Control_c, 0, 64, 70
1, 11796, Control_c, 0, 64, 79
1, 11810, Control_c, 0, 64, 92
1, 11825, Control_c, 0, 64, 102
1, 11840, Control_c, 0, 64, 105
1, 11850, Note_off_c, 0, 79, 61
1, 11855, Control_c, 0, 64, 106
1, 11869, Note_on_c, 0, 74, 61
1, 11870, Control_c, 0, 64, 107
1, 11876, Note_on_c, 0, 60, 70
1, 11884, Control_c, 0, 64, 107
1, 11899, Control_c, 0, 64, 108
1, 11929, Control_c, 0, 64, 99
1, 11930, Note_off_c, 0, 74, 61
1, 11944, Control_c, 0, 64, 81
1, 11945, Note_off_c, 0, 60, 56
1, 11957, Note_on_c, 0, 62, 73
1, 11958, Control_c, 0, 64, 64
1, 11973, Control_c, 0, 64, 43
1, 11980, Note_on_c, 0, 72, 54
1, 11988, Control_c, 0, 64, 23
1, 12002, Control_c, 0, 64, 33
1, 12004, Note_off_c, 0, 62, 61
1, 12017, Control_c, 0, 64, 49
1, 12026, Note_off_c, 0, 72, 58
1, 12032, Control_c, 0, 64, 59
1, 12047, Control_c, 0, 64, 66
1, 12056, Note_on_c, 0, 82, 64
1, 12062, Control_c, 0, 64, 74
1, 12076, Control_c, 0, 64, 89
1, 12091, Control_c, 0, 64, 107
1, 12106, Control_c, 0, 64, 117
1, 12136, Control_c, 0, 64, 118
1, 12151, Control_c, 0, 64, 123
1, 12157, Note_on_c, 0, 77, 59
1, 12163, Note_on_c, 0, 64, 53
1, 12166, Control_c, 0, 64, 127
1, 12168, Note_off_c, 0, 82, 57
1, 12204, Note_off_c, 0, 64, 53
1, 12209, Note_off_c, 0, 77, 58
1, 12224, Note_on_c, 0, 63, 87
1, 12240, Control_c, 0, 64, 92
1, 12245, Note_on_c, 0, 75, 64
1, 12255, Control_c, 0, 64, 71
1, 12269, Control_c, 0, 64, 58
1, 12284, Control_c, 0, 64, 32
1, 12299, Control_c, 0, 64, 34
1, 12314, Control_c, 0, 64, 50
1, 12333, Note_off_c, 0, 75, 52
1, 12336, Control_c, 0, 64, 61
1, 12343, Note_on_c, 0, 85, 74
1, 12351, Control_c, 0, 64, 68
1, 12365, Control_c, 0, 64, 78
1, 12380, Control_c, 0, 64, 102
1, 12395, Control_c, 0, 64, 127
1, 12437, Note_on_c, 0, 80, 74
1, 12440, Note_off_c, 0, 85, 62
1, 12518, Note_on_c, 0, 78, 81
1, 12521, Note_off_c, 0, 80, 64
1, 12600, Note_off_c, 0, 78, 57
1, 12603, Note_on_c, 0, 88, 82
1, 12604, Note_off_c, 0, 63, 58
1, 12704, Note_on_c, 0, 83, 71
1, 12711, Note_on_c, 0, 65, 88
1, 12731, Note_off_c, 0, 88, 61
1, 12752, Control_c, 0, 64, 80
1, 12767, Control_c, 0, 64, 61
1, 12780, Note_off_c, 0, 83, 64
1, 12781, Control_c, 0, 64, 0
1, 12797, Note_on_c, 0, 67, 99
1, 12800, Note_on_c, 0, 81, 72
1, 12815, Note_off_c, 0, 65, 54
1, 12840, Control_c, 0, 64, 51
1, 12855, Control_c, 0, 64, 63
1, 12870, Control_c, 0, 64, 71
1, 12885, Control_c, 0, 64, 87
1, 12893, Note_off_c, 0, 81, 63
1, 12899, Control_c, 0, 64, 115
1, 12900, Note_on_c, 0, 91, 77
1, 12914, Control_c, 0, 64, 127
1, 12950, Note_off_c, 0, 67, 54
1, 12973, Note_on_c, 0, 86, 80
1, 12982, Note_on_c, 0, 66, 94
1, 13007, Note_off_c, 0, 91, 62
1, 13018, Control_c, 0, 64, 83
1, 13033, Control_c, 0, 64, 63
1, 13048, Control_c, 0, 64, 11
1, 13061, Note_off_c, 0, 66, 58
1, 13063, Control_c, 0, 64, 0
1, 13078, Note_on_c, 0, 68, 101
1, 13087, Note_on_c, 0, 84, 80
1, 13099, Control_c, 0, 64, 49
1, 13114, Control_c, 0, 64, 64
1, 13129, Control_c, 0, 64, 77
1, 13135, Note_off_c, 0, 86, 63
1, 13144, Control_c, 0, 64, 127
1, 13162, Note_off_c, 0, 84, 64
1, 13170, Note_on_c, 0, 94, 87
1, 13181, Note_off_c, 0, 68, 57
1, 13191, Note_off_c, 0, 94, 70
1, 13328, Note_on_c, 0, 69, 80
1, 13329, Note_on_c, 0, 70, 93
1, 13337, Control_c, 0, 66, 0
1, 13352, Control_c, 0, 64, 95
1, 13367, Control_c, 0, 64, 68
1, 13379, Note_off_c, 0, 69, 59
1, 13382, Control_c, 0, 64, 47
1, 13397, Control_c, 0, 64, 0
1, 13409, Note_off_c, 0, 70, 62
1, 13412, Note_on_c, 0, 68, 72
1, 13413, Note_on_c, 0, 72, 88
1, 13644, Note_on_c, 0, 75, 77
1, 13646, Note_off_c, 0, 72, 64
1, 13695, Note_off_c, 0, 75, 61
1, 13721, Note_on_c, 0, 76, 85
1, 13957, Note_on_c, 0, 69, 81
1, 13961, Note_off_c, 0, 68, 59
1, 13966, Note_on_c, 0, 67, 65
1, 14001, Note_off_c, 0, 67, 61
1, 14035, Note_off_c, 0, 69, 62
1, 14040, Note_on_c, 0, 70, 77
1, 14046, Note_on_c, 0, 66, 52
1, 14059, Note_off_c, 0, 76, 57
1, 14293, Note_on_c, 0, 73, 59
1, 14297, Note_off_c, 0, 70, 56
1, 14366, Note_off_c, 0, 73, 63
1, 14371, Note_on_c, 0, 74, 67
1, 14586, Note_off_c, 0, 66, 62
1, 14593, Note_on_c, 0, 65, 51
1, 14595, Note_on_c, 0, 67, 66
1, 14652, Note_off_c, 0, 65, 57
1, 14664, Note_off_c, 0, 74, 54
1, 14674, Note_off_c, 0, 67, 57
1, 14678, Note_on_c, 0, 64, 51
1, 14695, Note_on_c, 0, 68, 57
1, 14935, Note_on_c, 0, 71, 48
1, 14945, Note_off_c, 0, 68, 50
1, 14969, Control_c, 0, 64, 12
1, 14984, Control_c, 0, 64, 26
1, 14999, Control_c, 0, 64, 35
1, 15008, Note_off_c, 0, 71, 65
1, 15014, Control_c, 0, 64, 44
1, 15028, Control_c, 0, 64, 50
1, 15040, Note_on_c, 0, 72, 50
1, 15043, Control_c, 0, 64, 54
1, 15058, Control_c, 0, 64, 57
1, 15073, Control_c, 0, 64, 59
1, 15088, Control_c, 0, 64, 62
1, 15102, Control_c, 0, 64, 64
1, 15117, Control_c, 0, 64, 67
1, 15132, Control_c, 0, 64, 69
1, 15147, Control_c, 0, 64, 71
1, 15162, Control_c, 0, 64, 74
1, 15172, Note_off_c, 0, 64, 60
1, 15176, Control_c, 0, 64, 78
1, 15191, Control_c, 0, 64, 83
1, 15206, Control_c, 0, 64, 89
1, 15220, Note_off_c, 0, 72, 63
1, 15221, Control_c, 0, 64, 97
1, 15236, Control_c, 0, 64, 101
1, 15250, Control_c, 0, 64, 97
1, 15265, Control_c, 0, 64, 87
1, 15270, Note_on_c, 0, 77, 93
1, 15280, Note_on_c, 0, 76, 72
1, 15280, Control_c, 0, 64, 75
1, 15294, Control_c, 0, 64, 65
1, 15309, Control_c, 0, 64, 55
1, 15328, Note_off_c, 0, 76, 62
1, 15331, Control_c, 0, 64, 45
1, 15346, Control_c, 0, 64, 41
1, 15361, Control_c, 0, 64, 40
1, 15378, Note_on_c, 0, 75, 56
1, 15381, Note_off_c, 0, 77, 63
1, 15387, Note_on_c, 0, 79, 76
1, 15606, Note_on_c, 0, 70, 76
1, 15625, Note_on_c, 0, 82, 47
1, 15677, Note_off_c, 0, 82, 64
1, 15689, Note_off_c, 0, 79, 52
1, 15691, Note_on_c, 0, 83, 55
1, 15694, Note_off_c, 0, 70, 61
1, 15701, Note_on_c, 0, 69, 57
1, 15798, Poly_aftertouch_c, 0, 79, 127
1, 15905, Note_off_c, 0, 75, 63
1, 15909, Poly_aftertouch_c, 0, 79, 0
1, 15917, Note_on_c, 0, 76, 91
1, 15920, Note_on_c, 0, 74, 63
1, 15924, Note_off_c, 0, 69, 64
1, 15986, Note_off_c, 0, 76, 0
1, 15997, Note_on_c, 0, 73, 71
1, 16002, Note_off_c, 0, 74, 53
1, 16012, Note_on_c, 0, 77, 79
1, 16029, Poly_aftertouch_c, 0, 76, 0
1, 16030, Note_off_c, 0, 83, 58
1, 16241, Note_on_c, 0, 68, 85
1, 16245, Note_on_c, 0, 80, 80
1, 16318, Note_off_c, 0, 68, 56
1, 16332, Note_off_c, 0, 80, 62
1, 16345, Note_on_c, 0, 67, 65
1, 16348, Note_on_c, 0, 81, 59
1, 16518, Note_off_c, 0, 77, 59
1, 16548, Note_on_c, 0, 74, 93
1, 16553, Note_on_c, 0, 72, 87
1, 16553, Note_off_c, 0, 73, 63
1, 16555, Control_c, 0, 64, 35
1, 16562, Note_off_c, 0, 67, 61
1, 16570, Control_c, 0, 64, 0
1, 16607, Note_off_c, 0, 74, 55
1, 16636, Note_off_c, 0, 72, 41
1, 16641, Note_off_c, 0, 81, 48
1, 16646, Note_on_c, 0, 75, 74
1, 16649, Note_on_c, 0, 71, 71
1, 16916, Note_on_c, 0, 66, 58
1, 16920, Note_on_c, 0, 78, 49
1, 16992, Control_c, 0, 64, 32
1, 17007, Note_on_c, 0, 79, 56
1, 17007, Control_c, 0, 64, 51
1, 17017, Note_off_c, 0, 66, 59
1, 17022, Control_c, 0, 64, 60
1, 17034, Note_on_c, 0, 65, 56
1, 17037, Control_c, 0, 64, 67
1, 17051, Note_off_c, 0, 75, 59
1, 17051, Control_c, 0, 64, 78
1, 17053, Note_off_c, 0, 78, 56
1, 17066, Control_c, 0, 64, 118
1, 17072, Note_off_c, 0, 71, 62
1, 17081, Note_off_c, 0, 79, 64
1, 17081, Control_c, 0, 64, 127
1, 17098, Note_off_c, 0, 65, 63
1, 17314, Note_on_c, 0, 73, 107
1, 17316, Note_on_c, 0, 77, 90
1, 17347, Note_off_c, 0, 73, 59
1, 17387, Note_on_c, 0, 72, 111
1, 17393, Control_c, 0, 64, 91
1, 17408, Note_on_c, 0, 80, 88
1, 17408, Control_c, 0, 64, 67
1, 17422, Control_c, 0, 64, 38
1, 17437, Control_c, 0, 64, 0
1, 17642, Note_on_c, 0, 83, 65
1, 17672, Note_off_c, 0, 80, 54
1, 17687, Note_off_c, 0, 77, 48
1, 17697, Control_c, 0, 64, 30
1, 17712, Control_c, 0, 64, 49
1, 17727, Control_c, 0, 64, 57
1, 17742, Control_c, 0, 64, 61
1, 17749, Note_on_c, 0, 85, 72
1, 17757, Control_c, 0, 64, 65
1, 17771, Control_c, 0, 64, 71
1, 17772, Note_off_c, 0, 83, 65
1, 17772, Note_off_c, 0, 85, 71
1, 17786, Control_c, 0, 64, 81
1, 17801, Control_c, 0, 64, 99
1, 17815, Control_c, 0, 64, 127
1, 17959, Note_on_c, 0, 89, 67
1, 18023, Control_c, 0, 64, 97
1, 18038, Control_c, 0, 64, 79
1, 18045, Note_off_c, 0, 89, 57
1, 18053, Control_c, 0, 64, 71
1, 18056, Note_on_c, 0, 92, 62
1, 18068, Control_c, 0, 64, 72
1, 18083, Control_c, 0, 64, 77
1, 18097, Control_c, 0, 64, 84
1, 18113, Control_c, 0, 64, 90
1, 18128, Control_c, 0, 64, 95
1, 18142, Control_c, 0, 64, 101
1, 18157, Control_c, 0, 64, 111
1, 18172, Control_c, 0, 64, 127
1, 18225, Note_off_c, 0, 92, 61
1, 18235, Note_off_c, 0, 72, 54
1, 18258, Note_on_c, 0, 95, 69
1, 18260, Note_on_c, 0, 71, 82
1, 18291, Control_c, 0, 64, 91
1, 18299, Note_off_c, 0, 71, 65
1, 18306, Control_c, 0, 64, 70
1, 18327, Control_c, 0, 64, 61
1, 18333, Note_on_c, 0, 72, 103
1, 18336, Note_on_c, 0, 97, 80
1, 18342, Control_c, 0, 64, 57
1, 18346, Note_off_c, 0, 95, 65
1, 18357, Control_c, 0, 64, 62
1, 18358, Note_off_c, 0, 97, 69
1, 18372, Control_c, 0, 64, 65
1, 18387, Control_c, 0, 64, 70
1, 18402, Control_c, 0, 64, 80
1, 18417, Control_c, 0, 64, 99
1, 18432, Control_c, 0, 64, 127
1, 18578, Note_on_c, 0, 71, 89
1, 18583, Note_on_c, 0, 77, 75
1, 18606, Note_off_c, 0, 72, 46
1, 18609, Control_c, 0, 64, 78
1, 18624, Control_c, 0, 64, 60
1, 18635, Note_on_c, 0, 80, 92
1, 18638, Control_c, 0, 64, 29
1, 18643, Note_on_c, 0, 70, 96
1, 18649, Note_off_c, 0, 71, 64
1, 18653, Control_c, 0, 64, 23
1, 18660, Note_off_c, 0, 77, 64
1, 18668, Control_c, 0, 64, 45
1, 18683, Control_c, 0, 64, 59
1, 18698, Control_c, 0, 64, 65
1, 18712, Control_c, 0, 64, 70
1, 18727, Control_c, 0, 64, 80
1, 18742, Control_c, 0, 64, 104
1, 18757, Control_c, 0, 64, 127
1, 18838, Note_on_c, 0, 83, 75
1, 18858, Note_off_c, 0, 80, 61
1, 18858, Note_on_c, 0, 73, 95
1, 18876, Control_c, 0, 64, 84
1, 18879, Note_off_c, 0, 70, 60
1, 18891, Control_c, 0, 64, 64
1, 18894, Note_off_c, 0, 73, 69
1, 18906, Control_c, 0, 64, 53
1, 18921, Control_c, 0, 64, 60
1, 18929, Note_on_c, 0, 85, 89
1, 18936, Control_c, 0, 64, 68
1, 18940, Note_on_c, 0, 72, 99
1, 18945, Note_off_c, 0, 85, 75
1, 18946, Note_off_c, 0, 83, 66
1, 18950, Control_c, 0, 64, 78
1, 18965, Control_c, 0, 64, 127
1, 18994, Note_off_c, 0, 72, 68
1, 19214, Note_on_c, 0, 89, 94
1, 19218, Note_on_c, 0, 71, 105
1, 19259, Note_off_c, 0, 71, 64
1, 19302, Note_on_c, 0, 74, 113
1, 19311, Note_on_c, 0, 92, 104
1, 19343, Control_c, 0, 64, 115
1, 19358, Control_c, 0, 64, 72
1, 19373, Control_c, 0, 64, 42
1, 19388, Control_c, 0, 64, 0
1, 19541, Note_on_c, 0, 95, 82
1, 19564, Note_off_c, 0, 92, 63
1, 19621, Note_on_c, 0, 72, 89
1, 19653, Note_on_c, 0, 97, 99
1, 19653, Note_off_c, 0, 74, 61
1, 19669, Note_off_c, 0, 89, 63
1, 19678, Note_off_c, 0, 95, 67
1, 19684, Note_on_c, 0, 71, 88
1, 19690, Note_off_c, 0, 97, 65
1, 19714, Control_c, 0, 64, 74
1, 19729, Control_c, 0, 64, 127
1, 19738, Note_off_c, 0, 72, 63
1, 19836, Note_off_c, 0, 71, 68
1, 19967, Note_on_c, 0, 78, 94
1, 19973, Note_on_c, 0, 80, 94
1, 20073, Note_off_c, 0, 78, 62
1, 20109, Note_on_c, 0, 38, 95
1, 20109, Note_on_c, 0, 77, 116
1, 20111, Note_on_c, 0, 81, 99
1, 20113, Note_on_c, 0, 26, 95
1, 20121, Control_c, 0, 64, 71
1, 20133, Note_on_c, 0, 82, 55
1, 20136, Control_c, 0, 64, 37
1, 20137, Note_off_c, 0, 80, 63
1, 20151, Control_c, 0, 64, 0
1, 20157, Note_off_c, 0, 82, 40
1, 20175, Note_on_c, 0, 27, 20
1, 20180, Control_c, 0, 64, 49
1, 20195, Control_c, 0, 64, 68
1, 20210, Control_c, 0, 64, 102
1, 20223, Note_off_c, 0, 77, 59
1, 20225, Control_c, 0, 64, 127
1, 20229, Note_off_c, 0, 27, 36
1, 20244, Note_off_c, 0, 81, 64
1, 20351, Note_off_c, 0, 26, 61
1, 20360, Note_on_c, 0, 89, 103
1, 20364, Note_on_c, 0, 87, 101
1, 20377, Note_off_c, 0, 38, 63
1, 20520, Note_off_c, 0, 89, 61
1, 20533, Note_on_c, 0, 48, 98
1, 20574, Note_on_c, 0, 86, 96
1, 20575, Note_on_c, 0, 90, 102
1, 20588, Note_off_c, 0, 87, 68
1, 20604, Note_off_c, 0, 86, 61
1, 20614, Note_off_c, 0, 90, 67
1, 20778, Note_on_c, 0, 78, 69
1, 20798, Note_on_c, 0, 76, 37
1, 20824, Note_on_c, 0, 56, 99
1, 20830, Note_on_c, 0, 77, 9
1, 20839, Note_on_c, 0, 79, 91
1, 20870, Note_off_c, 0, 76, 65
1, 20870, Note_off_c, 0, 78, 64
1, 20878, Note_off_c, 0, 79, 69
1, 20890, Note_off_c, 0, 77, 64
1, 20944, Note_off_c, 0, 48, 61
1, 20968, Note_on_c, 0, 87, 101
1, 20974, Note_on_c, 0, 85, 97
1, 20989, Note_on_c, 0, 88, 68
1, 21009, Note_off_c, 0, 56, 63
1, 21017, Note_off_c, 0, 88, 46
1, 21020, Note_on_c, 0, 89, 20
1, 21057, Note_off_c, 0, 89, 40
1, 21058, Note_on_c, 0, 64, 100
1, 21088, Note_off_c, 0, 85, 61
1, 21108, Note_off_c, 0, 87, 60
1, 21110, Note_off_c, 0, 64, 67
1, 21180, Note_on_c, 0, 84, 105
1, 21182, Note_on_c, 0, 88, 101
1, 21185, Note_on_c, 0, 89, 102
1, 21267, Note_off_c, 0, 89, 60
1, 21269, Note_on_c, 0, 70, 110
1, 21269, Note_off_c, 0, 88, 60
1, 21271, Note_off_c, 0, 84, 63
1, 21296, Note_off_c, 0, 70, 69
1, 21371, Note_on_c, 0, 75, 81
1, 21371, Note_on_c, 0, 82, 96
1, 21382, Note_on_c, 0, 80, 77
1, 21395, Note_off_c, 0, 80, 71
1, 21396, Note_off_c, 0, 75, 67
1, 21429, Note_off_c, 0, 82, 62
1, 21496, Note_on_c, 0, 74, 95
1, 21500, Note_on_c, 0, 83, 102
1, 21516, Control_c, 0, 64, 71
1, 21531, Control_c, 0, 64, 33
1, 21534, Note_on_c, 0, 70, 39
1, 21534, Note_off_c, 0, 74, 65
1, 21545, Control_c, 0, 64, 0
1, 21550, Note_off_c, 0, 70, 38
1, 21569, Note_on_c, 0, 84, 93
1, 21579, Note_off_c, 0, 83, 62
1, 21580, Note_on_c, 0, 73, 96
1, 21614, Note_off_c, 0, 84, 68
1, 21627, Note_off_c, 0, 73, 65
1, 21657, Note_on_c, 0, 72, 92
1, 21659, Note_on_c, 0, 85, 101
1, 21660, Note_on_c, 0, 73, 51
1, 21681, Note_off_c, 0, 73, 66
1, 21693, Note_on_c, 0, 71, 28
1, 21694, Note_off_c, 0, 71, 127
1, 21695, Note_off_c, 0, 72, 67
1, 21711, Note_off_c, 0, 85, 67
1, 21911, Note_on_c, 0, 65, 76
1, 22021, Note_on_c, 0, 64, 83
1, 22061, Note_off_c, 0, 65, 53
1, 22299, Note_on_c, 0, 63, 73
1, 22369, Note_off_c, 0, 64, 62
1, 22396, Control_c, 0, 64, 34
1, 22411, Control_c, 0, 64, 51
1, 22426, Control_c, 0, 64, 58
1, 22430, Note_on_c, 0, 65, 70
1, 22441, Control_c, 0, 64, 62
1, 22456, Control_c, 0, 64, 66
1, 22464, Note_off_c, 0, 63, 59
1, 22471, Control_c, 0, 64, 73
1, 22485, Control_c, 0, 64, 85
1, 22500, Control_c, 0, 64, 110
1, 22515, Control_c, 0, 64, 127
1, 22629, Note_off_c, 0, 65, 59
1, 22646, Note_on_c, 0, 64, 66
1, 22673, Note_off_c, 0, 64, 66
1, 22679, Note_on_c, 0, 70, 80
1, 22781, Note_on_c, 0, 50, 67
1, 22848, Control_c, 0, 64, 107
1, 22863, Control_c, 0, 64, 84
1, 22878, Control_c, 0, 64, 68
1, 22892, Control_c, 0, 64, 52
1, 22894, Note_on_c, 0, 63, 88
1, 22908, Control_c, 0, 64, 0
1, 22929, Note_on_c, 0, 71, 80
1, 22940, Note_off_c, 0, 70, 63
1, 23138, Note_on_c, 0, 81, 85
1, 23343, Note_on_c, 0, 80, 85
1, 23377, Note_off_c, 0, 81, 65
1, 23436, Note_off_c, 0, 71, 61
1, 23499, Note_off_c, 0, 63, 61
1, 23515, Control_c, 0, 64, 26
1, 23530, Control_c, 0, 64, 39
1, 23532, Note_off_c, 0, 80, 64
1, 23539, Note_on_c, 0, 62, 81
1, 23553, Control_c, 0, 64, 45
1, 23567, Note_off_c, 0, 50, 63
1, 23568, Control_c, 0, 64, 46
1, 23571, Note_on_c, 0, 70, 72
1, 23582, Control_c, 0, 64, 37
1, 23597, Control_c, 0, 64, 0
1, 23625, Note_off_c, 0, 70, 65
1, 23669, Note_on_c, 0, 61, 80
1, 23673, Note_on_c, 0, 69, 62
1, 23673, Note_on_c, 0, 77, 76
1, 23692, Note_off_c, 0, 62, 59
1, 23699, Note_off_c, 0, 69, 62
1, 23725, Note_off_c, 0, 77, 54
1, 23764, Note_on_c, 0, 68, 72
1, 23767, Note_on_c, 0, 77, 46
1, 23767, Note_on_c, 0, 78, 79
1, 23800, Note_off_c, 0, 68, 64
1, 23804, Note_off_c, 0, 77, 64
1, 23842, Note_on_c, 0, 67, 71
1, 23849, Note_on_c, 0, 79, 78
1, 23854, Note_off_c, 0, 78, 63
1, 23880, Note_off_c, 0, 67, 66
1, 23881, Note_off_c, 0, 79, 66
1, 23926, Note_on_c, 0, 60, 72
1, 23931, Note_off_c, 0, 61, 59
1, 24016, Note_off_c, 0, 60, 64
1, 24027, Note_on_c, 0, 61, 73
1, 24244, Note_on_c, 0, 60, 62
1, 24244, Note_off_c, 0, 61, 59
1, 24318, Note_off_c, 0, 60, 64
1, 24351, Note_on_c, 0, 59, 53
1, 24415, Poly_aftertouch_c, 0, 60, 127
1, 24459, Poly_aftertouch_c, 0, 60, 0
1, 24580, Note_on_c, 0, 85, 85
1, 24581, Note_on_c, 0, 66, 55
1, 24587, Note_on_c, 0, 73, 74
1, 24611, Note_off_c, 0, 73, 69
1, 24614, Note_off_c, 0, 85, 66
1, 24656, Note_off_c, 0, 66, 61
1, 24658, Note_on_c, 0, 84, 88
1, 24658, Control_c, 0, 64, 33
1, 24659, Note_on_c, 0, 68, 63
1, 24668, Note_on_c, 0, 72, 65
1, 24673, Control_c, 0, 64, 44
1, 24684, Note_off_c, 0, 72, 66
1, 24687, Control_c, 0, 64, 50
1, 24692, Note_off_c, 0, 84, 66
1, 24702, Control_c, 0, 64, 54
1, 24717, Control_c, 0, 64, 57
1, 24732, Control_c, 0, 64, 59
1, 24747, Control_c, 0, 64, 61
1, 24761, Control_c, 0, 64, 62
1, 24776, Control_c, 0, 64, 63
1, 24791, Control_c, 0, 64, 64
1, 24806, Control_c, 0, 64, 64
1, 24821, Control_c, 0, 64, 65
1, 24831, Note_off_c, 0, 68, 56
1, 24865, Control_c, 0, 64, 64
1, 24870, Note_on_c, 0, 86, 86
1, 24883, Note_on_c, 0, 74, 65
1, 24885, Note_on_c, 0, 65, 54
1, 24889, Note_off_c, 0, 86, 69
1, 24894, Control_c, 0, 64, 64
1, 24899, Note_off_c, 0, 74, 64
1, 24924, Control_c, 0, 64, 63
1, 24936, Note_off_c, 0, 65, 58
1, 24961, Note_on_c, 0, 83, 88
1, 24964, Note_on_c, 0, 67, 61
1, 24969, Note_on_c, 0, 71, 75
1, 24984, Note_off_c, 0, 83, 67
1, 24986, Note_off_c, 0, 71, 67
1, 25014, Control_c, 0, 64, 64
1, 25028, Control_c, 0, 64, 64
1, 25043, Control_c, 0, 64, 65
1, 25066, Control_c, 0, 64, 65
1, 25080, Control_c, 0, 64, 66
1, 25095, Control_c, 0, 64, 68
1, 25110, Control_c, 0, 64, 70
1, 25125, Control_c, 0, 64, 72
1, 25136, Note_off_c, 0, 67, 55
1, 25140, Control_c, 0, 64, 74
1, 25154, Control_c, 0, 64, 76
1, 25169, Control_c, 0, 64, 77
1, 25184, Control_c, 0, 64, 79
1, 25219, Note_on_c, 0, 66, 53
1, 25224, Note_on_c, 0, 85, 85
1, 25228, Control_c, 0, 64, 76
1, 25232, Note_on_c, 0, 73, 75
1, 25243, Control_c, 0, 64, 69
1, 25258, Control_c, 0, 64, 59
1, 25273, Control_c, 0, 64, 32
1, 25288, Control_c, 0, 64, 0
1, 25289, Note_off_c, 0, 73, 60
1, 25295, Note_off_c, 0, 85, 65
1, 25298, Note_off_c, 0, 66, 61
1, 25314, Note_on_c, 0, 84, 75
1, 25318, Note_on_c, 0, 68, 57
1, 25327, Note_on_c, 0, 72, 64
1, 25452, Control_c, 0, 64, 18
1, 25467, Control_c, 0, 64, 33
1, 25481, Control_c, 0, 64, 43
1, 25496, Control_c, 0, 64, 50
1, 25502, Note_off_c, 0, 84, 56
1, 25511, Control_c, 0, 64, 53
1, 25523, Note_off_c, 0, 72, 37
1, 25526, Control_c, 0, 64, 56
1, 25541, Control_c, 0, 64, 59
1, 25556, Control_c, 0, 64, 62
1, 25571, Control_c, 0, 64, 64
1, 25585, Control_c, 0, 64, 66
1, 25600, Control_c, 0, 64, 68
1, 25615, Control_c, 0, 64, 70
1, 25630, Control_c, 0, 64, 72
1, 25638, Note_on_c, 0, 86, 60
1, 25645, Note_on_c, 0, 65, 46
1, 25645, Control_c, 0, 64, 74
1, 25649, Note_off_c, 0, 68, 33
1, 25659, Control_c, 0, 64, 74
1, 25675, Note_on_c, 0, 74, 42
1, 25685, Note_off_c, 0, 86, 55
1, 25697, Note_off_c, 0, 74, 58
1, 25703, Control_c, 0, 64, 73
1, 25718, Control_c, 0, 64, 72
1, 25732, Control_c, 0, 64, 69
1, 25747, Note_off_c, 0, 65, 52
1, 25747, Control_c, 0, 64, 67
1, 25762, Control_c, 0, 64, 65
1, 25777, Control_c, 0, 64, 63
1, 25791, Control_c, 0, 64, 60
1, 25792, Note_on_c, 0, 67, 36
1, 25814, Control_c, 0, 64, 57
1, 25829, Control_c, 0, 64, 51
1, 25844, Control_c, 0, 64, 36
1, 25844, Control_c, 0, 67, 13
1, 25845, Note_on_c, 0, 71, 50
1, 25858, Control_c, 0, 64, 0
1, 25858, Control_c, 0, 67, 30
1, 25873, Control_c, 0, 67, 47
1, 25888, Control_c, 0, 67, 65
1, 25902, Control_c, 0, 67, 85
1, 25917, Control_c, 0, 64, 9
1, 25917, Control_c, 0, 67, 110
1, 25932, Control_c, 0, 64, 35
1, 25932, Control_c, 0, 67, 127
1, 25943, Note_off_c, 0, 71, 56
1, 25947, Control_c, 0, 64, 48
1, 25958, Note_on_c, 0, 82, 50
1, 25962, Control_c, 0, 64, 55
1, 25976, Control_c, 0, 64, 58
1, 25991, Control_c, 0, 64, 60
1, 26006, Control_c, 0, 64, 61
1, 26021, Control_c, 0, 64, 63
1, 26033, Note_on_c, 0, 84, 53
1, 26036, Control_c, 0, 64, 65
1, 26051, Control_c, 0, 64, 67
1, 26066, Control_c, 0, 64, 69
1, 26081, Control_c, 0, 64, 70
1, 26096, Control_c, 0, 64, 71
1, 26134, Note_off_c, 0, 84, 59
1, 26152, Note_on_c, 0, 81, 40
1, 26227, Note_on_c, 0, 73, 45
1, 26291, Note_off_c, 0, 82, 22
1, 26297, Note_off_c, 0, 73, 57
1, 26323, Note_on_c, 0, 80, 50
1, 26328, Note_off_c, 0, 59, 54
1, 26331, Note_off_c, 0, 81, 45
1, 26375, Note_off_c, 0, 80, 60
1, 26397, Note_on_c, 0, 86, 57
1, 26437, Control_c, 0, 64, 71
1, 26468, Note_off_c, 0, 86, 57
1, 26481, Control_c, 0, 64, 72
1, 26489, Note_on_c, 0, 79, 49
1, 26496, Control_c, 0, 64, 73
1, 26511, Control_c, 0, 64, 73
1, 26525, Control_c, 0, 64, 74
1, 26537, Note_off_c, 0, 79, 63
1, 26587, Note_on_c, 0, 75, 45
1, 26588, Note_on_c, 0, 60, 74
1, 26644, Note_off_c, 0, 75, 61
1, 26652, Control_c, 0, 64, 73
1, 26653, Note_on_c, 0, 78, 65
1, 26659, Note_on_c, 0, 59, 74
1, 26666, Control_c, 0, 64, 72
1, 26668, Note_off_c, 0, 60, 62
1, 26681, Control_c, 0, 64, 68
1, 26692, Note_off_c, 0, 78, 62
1, 26696, Control_c, 0, 64, 64
1, 26711, Control_c, 0, 64, 60
1, 26725, Control_c, 0, 64, 55
1, 26740, Control_c, 0, 64, 49
1, 26755, Control_c, 0, 64, 45
1, 26770, Control_c, 0, 64, 42
1, 26776, Note_on_c, 0, 88, 61
1, 26814, Control_c, 0, 64, 43
1, 26829, Control_c, 0, 64, 44
1, 26844, Control_c, 0, 64, 47
1, 26859, Control_c, 0, 64, 52
1, 26874, Control_c, 0, 64, 55
1, 26885, Note_on_c, 0, 77, 40
1, 26888, Control_c, 0, 64, 58
1, 26904, Control_c, 0, 64, 60
1, 26911, Note_off_c, 0, 67, 60
1, 26919, Control_c, 0, 64, 62
1, 26934, Control_c, 0, 64, 64
1, 26945, Note_off_c, 0, 88, 36
1, 26948, Control_c, 0, 64, 66
1, 26963, Control_c, 0, 64, 68
1, 26978, Control_c, 0, 64, 71
1, 26987, Note_on_c, 0, 83, 51
1, 26993, Control_c, 0, 64, 73
1, 27008, Control_c, 0, 64, 75
1, 27023, Control_c, 0, 64, 76
1, 27029, Note_off_c, 0, 83, 63
1, 27048, Note_off_c, 0, 77, 35
1, 27069, Note_on_c, 0, 67, 47
1, 27171, Control_c, 0, 64, 75
1, 27178, Note_on_c, 0, 75, 50
1, 27188, Note_off_c, 0, 59, 59
1, 27201, Control_c, 0, 64, 75
1, 27249, Note_off_c, 0, 67, 58
1, 27260, Control_c, 0, 64, 74
1, 27266, Note_on_c, 0, 78, 55
1, 27327, Control_c, 0, 64, 74
1, 27342, Control_c, 0, 64, 73
1, 27356, Control_c, 0, 64, 72
1, 27371, Control_c, 0, 64, 72
1, 27373, Note_off_c, 0, 75, 31
1, 27384, Note_on_c, 0, 70, 48
1, 27401, Control_c, 0, 64, 71
1, 27437, Note_off_c, 0, 70, 58
1, 27443, Note_on_c, 0, 62, 45
1, 27455, Note_off_c, 0, 78, 36
1, 27504, Control_c, 0, 64, 69
1, 27519, Control_c, 0, 64, 63
1, 27534, Control_c, 0, 64, 55
1, 27548, Control_c, 0, 64, 42
1, 27559, Note_on_c, 0, 65, 50
1, 27563, Control_c, 0, 64, 38
1, 27578, Control_c, 0, 64, 39
1, 27593, Control_c, 0, 64, 43
1, 27608, Control_c, 0, 64, 51
1, 27622, Control_c, 0, 64, 57
1, 27637, Control_c, 0, 64, 60
1, 27652, Control_c, 0, 64, 62
1, 27664, Note_on_c, 0, 73, 41
1, 27667, Control_c, 0, 64, 63
1, 27681, Control_c, 0, 64, 65
1, 27698, Control_c, 0, 64, 67
1, 27713, Control_c, 0, 64, 70
1, 27726, Note_off_c, 0, 62, 42
1, 27727, Control_c, 0, 64, 72
1, 27739, Note_off_c, 0, 65, 62
1, 27742, Control_c, 0, 64, 75
1, 27753, Note_on_c, 0, 81, 48
1, 27757, Control_c, 0, 64, 77
1, 27771, Control_c, 0, 64, 77
1, 27816, Note_off_c, 0, 73, 61
1, 27858, Note_on_c, 0, 84, 51
1, 27869, Note_off_c, 0, 81, 56
1, 27875, Control_c, 0, 64, 77
1, 27995, Note_on_c, 0, 76, 29
1, 28007, Note_off_c, 0, 84, 58
1, 28024, Control_c, 0, 64, 76
1, 28029, Note_off_c, 0, 76, 47
1, 28039, Control_c, 0, 64, 76
1, 28054, Note_on_c, 0, 68, 41
1, 28060, Control_c, 0, 64, 75
1, 28075, Control_c, 0, 64, 74
1, 28134, Control_c, 0, 64, 72
1, 28149, Control_c, 0, 64, 67
1, 28164, Control_c, 0, 64, 59
1, 28179, Control_c, 0, 64, 47
1, 28185, Note_on_c, 0, 71, 49
1, 28194, Control_c, 0, 64, 36
1, 28202, Note_off_c, 0, 68, 48
1, 28224, Control_c, 0, 64, 40
1, 28239, Control_c, 0, 64, 47
1, 28253, Control_c, 0, 64, 53
1, 28268, Control_c, 0, 64, 56
1, 28283, Control_c, 0, 64, 59
1, 28286, Note_on_c, 0, 75, 51
1, 28297, Control_c, 0, 64, 61
1, 28312, Control_c, 0, 64, 63
1, 28327, Control_c, 0, 64, 64
1, 28342, Control_c, 0, 64, 66
1, 28357, Control_c, 0, 64, 67
1, 28371, Control_c, 0, 64, 68
1, 28386, Control_c, 0, 64, 70
1, 28389, Note_on_c, 0, 79, 48
1, 28401, Control_c, 0, 64, 72
1, 28416, Control_c, 0, 64, 72
1, 28431, Control_c, 0, 64, 73
1, 28446, Control_c, 0, 64, 72
1, 28479, Note_off_c, 0, 75, 36
1, 28481, Note_on_c, 0, 82, 43
1, 28506, Control_c, 0, 64, 72
1, 28539, Note_off_c, 0, 79, 55
1, 28551, Note_off_c, 0, 82, 58
1, 28565, Control_c, 0, 64, 72
1, 28573, Note_on_c, 0, 86, 54
1, 28609, Control_c, 0, 64, 73
1, 28654, Control_c, 0, 64, 73
1, 28665, Note_off_c, 0, 86, 60
1, 28701, Note_on_c, 0, 78, 43
1, 28743, Control_c, 0, 64, 73
1, 28772, Note_off_c, 0, 78, 58
1, 28773, Control_c, 0, 64, 72
1, 28821, Note_on_c, 0, 77, 46
1, 28825, Control_c, 0, 64, 72
1, 28921, Note_on_c, 0, 81, 43
1, 28934, Note_off_c, 0, 77, 37
1, 28943, Control_c, 0, 64, 72
1, 28988, Control_c, 0, 64, 73
1, 28996, Note_off_c, 0, 81, 59
1, 29002, Control_c, 0, 64, 73
1, 29014, Note_on_c, 0, 85, 57
1, 29017, Control_c, 0, 64, 74
1, 29032, Control_c, 0, 64, 75
1, 29034, Note_off_c, 0, 71, 59
1, 29047, Control_c, 0, 64, 75
1, 29062, Control_c, 0, 64, 76
1, 29076, Control_c, 0, 64, 77
1, 29091, Control_c, 0, 64, 77
1, 29106, Control_c, 0, 64, 78
1, 29121, Control_c, 0, 64, 78
1, 29142, Note_on_c, 0, 88, 51
1, 29234, Note_off_c, 0, 85, 55
1, 29280, Note_on_c, 0, 91, 42
1, 29315, Control_c, 0, 64, 78
1, 29323, Note_off_c, 0, 88, 26
1, 29389, Control_c, 0, 64, 77
1, 29402, Note_on_c, 0, 84, 44
1, 29433, Control_c, 0, 64, 77
1, 29437, Note_off_c, 0, 91, 37
1, 29448, Control_c, 0, 64, 76
1, 29463, Control_c, 0, 64, 76
1, 29478, Control_c, 0, 64, 75
1, 29555, Note_on_c, 0, 59, 36
1, 29555, Note_off_c, 0, 84, 26
1, 29574, Control_c, 0, 64, 73
1, 29589, Control_c, 0, 64, 68
1, 29604, Control_c, 0, 64, 62
1, 29619, Control_c, 0, 64, 55
1, 29633, Control_c, 0, 64, 47
1, 29648, Control_c, 0, 64, 44
1, 29663, Control_c, 0, 64, 48
1, 29678, Control_c, 0, 64, 54
1, 29693, Control_c, 0, 64, 60
1, 29707, Control_c, 0, 64, 63
1, 29722, Control_c, 0, 64, 66
1, 29728, Note_on_c, 0, 63, 30
1, 29737, Control_c, 0, 64, 69
1, 29751, Control_c, 0, 64, 77
1, 29766, Control_c, 0, 64, 85
1, 29781, Control_c, 0, 64, 93
1, 29795, Note_off_c, 0, 59, 58
1, 29796, Control_c, 0, 64, 101
1, 29811, Control_c, 0, 64, 110
1, 29825, Control_c, 0, 64, 123
1, 29840, Control_c, 0, 64, 127
1, 29847, Note_off_c, 0, 63, 54
1, 29881, Note_on_c, 0, 67, 42
1, 29939, Note_off_c, 0, 67, 54
1, 30021, Note_on_c, 0, 70, 30
1, 30062, Note_on_c, 0, 79, 76
1, 30180, Note_on_c, 0, 74, 30
1, 30211, Note_off_c, 0, 74, 51
1, 30261, Note_on_c, 0, 66, 39
1, 30368, Note_off_c, 0, 66, 37
1, 30385, Note_off_c, 0, 70, 37
1, 30413, Note_on_c, 0, 65, 42
1, 30433, Note_on_c, 0, 80, 80
1, 30455, Control_c, 0, 64, 91
1, 30470, Control_c, 0, 64, 71
1, 30485, Control_c, 0, 64, 56
1, 30499, Control_c, 0, 64, 0
1, 30529, Control_c, 0, 64, 15
1, 30544, Control_c, 0, 64, 38
1, 30559, Control_c, 0, 64, 52
1, 30570, Note_off_c, 0, 79, 63
1, 30573, Note_on_c, 0, 69, 39
1, 30573, Control_c, 0, 64, 61
1, 30588, Control_c, 0, 64, 66
1, 30603, Control_c, 0, 64, 71
1, 30618, Control_c, 0, 64, 79
1, 30633, Control_c, 0, 64, 88
1, 30647, Control_c, 0, 64, 98
1, 30662, Control_c, 0, 64, 112
1, 30677, Control_c, 0, 64, 127
1, 30682, Note_on_c, 0, 73, 41
1, 30716, Note_off_c, 0, 69, 35
1, 30740, Note_off_c, 0, 80, 63
1, 30749, Note_on_c, 0, 85, 64
1, 30750, Note_off_c, 0, 65, 39
1, 30776, Note_off_c, 0, 73, 59
1, 30819, Note_on_c, 0, 76, 44
1, 30826, Note_on_c, 0, 80, 71
1, 30832, Note_off_c, 0, 85, 63
1, 30856, Note_off_c, 0, 76, 55
1, 30951, Note_on_c, 0, 79, 52
1, 31023, Note_off_c, 0, 79, 63
1, 31055, Note_on_c, 0, 72, 48
1, 31077, Note_off_c, 0, 72, 61
1, 31227, Note_on_c, 0, 79, 76
1, 31248, Note_on_c, 0, 59, 39
1, 31278, Control_c, 0, 64, 93
1, 31293, Control_c, 0, 64, 72
1, 31304, Note_off_c, 0, 80, 61
1, 31308, Control_c, 0, 64, 57
1, 31322, Control_c, 0, 64, 0
1, 31348, Note_on_c, 0, 63, 33
1, 31367, Control_c, 0, 64, 37
1, 31382, Control_c, 0, 64, 54
1, 31396, Control_c, 0, 64, 64
1, 31407, Note_off_c, 0, 59, 62
1, 31411, Control_c, 0, 64, 71
1, 31426, Control_c, 0, 64, 84
1, 31441, Control_c, 0, 64, 104
1, 31450, Note_off_c, 0, 63, 58
1, 31456, Control_c, 0, 64, 127
1, 31468, Note_on_c, 0, 67, 44
1, 31509, Note_off_c, 0, 67, 60
1, 31563, Note_on_c, 0, 70, 60
1, 31655, Note_on_c, 0, 74, 57
1, 31700, Note_off_c, 0, 74, 57
1, 31718, Note_on_c, 0, 66, 62
1, 31738, Note_off_c, 0, 79, 64
1, 31750, Note_on_c, 0, 76, 76
1, 31828, Note_on_c, 0, 79, 83
1, 31887, Note_off_c, 0, 76, 53
1, 31934, Note_on_c, 0, 65, 40
1, 31938, Control_c, 0, 64, 113
1, 31939, Note_on_c, 0, 80, 85
1, 31953, Control_c, 0, 64, 85
1, 31968, Control_c, 0, 64, 68
1, 31982, Note_off_c, 0, 70, 41
1, 31983, Control_c, 0, 64, 44
1, 31994, Note_off_c, 0, 66, 22
1, 31995, Note_off_c, 0, 79, 62
1, 31998, Control_c, 0, 64, 0
1, 32063, Note_on_c, 0, 69, 52
1, 32072, Control_c, 0, 64, 32
1, 32087, Control_c, 0, 64, 52
1, 32101, Control_c, 0, 64, 63
1, 32116, Control_c, 0, 64, 67
1, 32122, Note_off_c, 0, 65, 53
1, 32131, Control_c, 0, 64, 74
1, 32145, Control_c, 0, 64, 84
1, 32157, Note_on_c, 0, 73, 59
1, 32160, Control_c, 0, 64, 108
1, 32175, Control_c, 0, 64, 127
1, 32183, Note_off_c, 0, 69, 53
1, 32225, Note_off_c, 0, 73, 63
1, 32243, Note_on_c, 0, 76, 62
1, 32299, Note_off_c, 0, 76, 54
1, 32341, Note_on_c, 0, 79, 62
1, 32412, Note_off_c, 0, 79, 64
1, 32421, Note_on_c, 0, 72, 57
1, 32454, Note_off_c, 0, 72, 66
1, 32478, Note_on_c, 0, 82, 89
1, 32546, Note_off_c, 0, 80, 64
1, 32630, Note_on_c, 0, 59, 49
1, 32688, Control_c, 0, 64, 99
1, 32701, Note_on_c, 0, 83, 88
1, 32703, Control_c, 0, 64, 73
1, 32717, Control_c, 0, 64, 58
1, 32725, Note_off_c, 0, 82, 65
1, 32732, Control_c, 0, 64, 0
1, 32754, Note_on_c, 0, 63, 32
1, 32776, Control_c, 0, 64, 33
1, 32791, Control_c, 0, 64, 53
1, 32806, Control_c, 0, 64, 64
1, 32821, Control_c, 0, 64, 71
1, 32836, Control_c, 0, 64, 83
1, 32844, Note_off_c, 0, 59, 61
1, 32850, Control_c, 0, 64, 105
1, 32862, Note_off_c, 0, 63, 62
1, 32865, Control_c, 0, 64, 127
1, 32878, Note_on_c, 0, 67, 62
1, 32906, Note_on_c, 0, 84, 90
1, 32922, Note_off_c, 0, 67, 59
1, 32987, Note_on_c, 0, 70, 56
1, 32990, Note_off_c, 0, 83, 50
1, 33086, Note_on_c, 0, 74, 53
1, 33098, Note_on_c, 0, 91, 92
1, 33123, Note_off_c, 0, 74, 64
1, 33159, Note_on_c, 0, 66, 51
1, 33264, Control_c, 0, 64, 92
1, 33277, Note_on_c, 0, 65, 46
1, 33279, Control_c, 0, 64, 67
1, 33280, Note_on_c, 0, 88, 81
1, 33302, Control_c, 0, 64, 46
1, 33309, Note_off_c, 0, 70, 43
1, 33317, Control_c, 0, 64, 0
1, 33335, Note_off_c, 0, 84, 62
1, 33361, Control_c, 0, 64, 13
1, 33376, Control_c, 0, 64, 49
1, 33377, Note_on_c, 0, 69, 51
1, 33390, Control_c, 0, 64, 61
1, 33405, Control_c, 0, 64, 67
1, 33413, Note_off_c, 0, 66, 15
1, 33420, Control_c, 0, 64, 74
1, 33435, Control_c, 0, 64, 85
1, 33450, Control_c, 0, 64, 102
1, 33464, Control_c, 0, 64, 127
1, 33468, Note_off_c, 0, 65, 36
1, 33470, Note_on_c, 0, 85, 88
1, 33476, Note_on_c, 0, 73, 53
1, 33491, Note_off_c, 0, 69, 57
1, 33520, Note_off_c, 0, 73, 60
1, 33568, Note_on_c, 0, 76, 30
1, 33573, Note_off_c, 0, 88, 60
1, 33607, Note_off_c, 0, 91, 58
1, 33641, Note_off_c, 0, 76, 32
1, 33653, Note_on_c, 0, 81, 85
1, 33656, Note_on_c, 0, 79, 56
1, 33685, Note_off_c, 0, 85, 65
1, 33702, Note_off_c, 0, 79, 64
1, 33728, Note_on_c, 0, 72, 50
1, 33733, Note_off_c, 0, 81, 65
1, 33750, Note_off_c, 0, 72, 59
1, 33848, Note_on_c, 0, 77, 81
1, 33850, Control_c, 0, 64, 108
1, 33864, Control_c, 0, 64, 76
1, 33879, Control_c, 0, 64, 60
1, 33894, Control_c, 0, 64, 0
1, 33914, Note_on_c, 0, 60, 15
1, 33920, Note_on_c, 0, 59, 4
1, 33923, Control_c, 0, 64, 20
1, 33938, Control_c, 0, 64, 50
1, 33953, Control_c, 0, 64, 63
1, 33968, Control_c, 0, 64, 69
1, 33970, Note_on_c, 0, 63, 47
1, 33983, Control_c, 0, 64, 78
1, 33998, Control_c, 0, 64, 92
1, 34013, Control_c, 0, 64, 113
1, 34016, Note_off_c, 0, 63, 62
1, 34028, Control_c, 0, 64, 127
1, 34030, Note_off_c, 0, 59, 36
1, 34051, Note_off_c, 0, 60, 38
1, 34052, Note_on_c, 0, 67, 56
1, 34066, Note_on_c, 0, 78, 85
1, 34096, Note_off_c, 0, 67, 60
1, 34150, Note_on_c, 0, 70, 40
1, 34241, Note_on_c, 0, 86, 85
1, 34253, Note_on_c, 0, 74, 55
1, 34308, Note_off_c, 0, 74, 52
1, 34335, Note_on_c, 0, 66, 52
1, 34347, Control_c, 0, 64, 116
1, 34362, Control_c, 0, 64, 101
1, 34376, Control_c, 0, 64, 92
1, 34391, Control_c, 0, 64, 85
1, 34406, Control_c, 0, 64, 81
1, 34417, Note_off_c, 0, 78, 54
1, 34421, Control_c, 0, 64, 75
1, 34436, Control_c, 0, 64, 67
1, 34437, Note_on_c, 0, 82, 74
1, 34442, Note_off_c, 0, 70, 37
1, 34450, Note_off_c, 0, 66, 36
1, 34451, Control_c, 0, 64, 56
1, 34466, Note_on_c, 0, 65, 42
1, 34466, Control_c, 0, 64, 0
1, 34480, Note_off_c, 0, 77, 62
1, 34551, Note_on_c, 0, 69, 46
1, 34569, Control_c, 0, 64, 23
1, 34584, Control_c, 0, 64, 42
1, 34599, Control_c, 0, 64, 52
1, 34605, Note_off_c, 0, 86, 48
1, 34613, Control_c, 0, 64, 58
1, 34628, Control_c, 0, 64, 62
1, 34643, Control_c, 0, 64, 64
1, 34652, Note_on_c, 0, 73, 47
1, 34655, Note_on_c, 0, 79, 63
1, 34658, Control_c, 0, 64, 67
1, 34673, Control_c, 0, 64, 72
1, 34687, Note_off_c, 0, 69, 34
1, 34687, Control_c, 0, 64, 76
1, 34702, Control_c, 0, 64, 79
1, 34717, Control_c, 0, 64, 80
1, 34730, Note_off_c, 0, 82, 57
1, 34734, Note_off_c, 0, 65, 33
1, 34746, Control_c, 0, 64, 79
1, 34750, Note_off_c, 0, 73, 56
1, 34761, Control_c, 0, 64, 79
1, 34770, Note_on_c, 0, 76, 47
1, 34776, Control_c, 0, 64, 78
1, 34799, Control_c, 0, 64, 78
1, 34813, Control_c, 0, 64, 77
1, 34830, Note_off_c, 0, 76, 60
1, 34842, Note_on_c, 0, 75, 62
1, 34844, Note_off_c, 0, 79, 65
1, 34858, Control_c, 0, 64, 77
1, 34888, Control_c, 0, 64, 76
1, 34903, Note_off_c, 0, 75, 57
1, 34904, Control_c, 0, 64, 76
1, 34918, Control_c, 0, 64, 75
1, 34933, Control_c, 0, 64, 74
1, 34940, Note_on_c, 0, 79, 25
1, 34948, Control_c, 0, 64, 72
1, 34962, Control_c, 0, 64, 71
1, 34977, Control_c, 0, 64, 70
1, 34983, Note_off_c, 0, 79, 65
1, 34987, Note_on_c, 0, 72, 51
1, 34992, Control_c, 0, 64, 69
1, 35007, Control_c, 0, 64, 68
1, 35022, Control_c, 0, 64, 68
1, 35051, Control_c, 0, 64, 67
1, 35066, Control_c, 0, 64, 66
1, 35081, Control_c, 0, 64, 66
1, 35085, Note_off_c, 0, 72, 64
1, 35096, Control_c, 0, 64, 65
1, 35110, Control_c, 0, 64, 64
1, 35116, Note_on_c, 0, 71, 42
1, 35125, Control_c, 0, 64, 63
1, 35140, Control_c, 0, 64, 61
1, 35155, Control_c, 0, 64, 59
1, 35169, Control_c, 0, 64, 57
1, 35184, Control_c, 0, 64, 56
1, 35242, Note_on_c, 0, 72, 43
1, 35259, Control_c, 0, 64, 57
1, 35274, Control_c, 0, 64, 57
1, 35289, Control_c, 0, 64, 58
1, 35304, Control_c, 0, 64, 59
1, 35318, Control_c, 0, 64, 60
1, 35333, Control_c, 0, 64, 61
1, 35343, Note_on_c, 0, 79, 43
1, 35348, Control_c, 0, 64, 63
1, 35362, Control_c, 0, 64, 63
1, 35377, Control_c, 0, 64, 64
1, 35392, Control_c, 0, 64, 65
1, 35407, Control_c, 0, 64, 66
1, 35408, Note_off_c, 0, 72, 37
1, 35422, Control_c, 0, 64, 68
1, 35436, Control_c, 0, 64, 69
1, 35451, Control_c, 0, 64, 71
1, 35452, Note_off_c, 0, 71, 16
1, 35466, Control_c, 0, 64, 73
1, 35476, Note_on_c, 0, 55, 58
1, 35481, Control_c, 0, 64, 76
1, 35486, Note_on_c, 0, 76, 52
1, 35496, Control_c, 0, 64, 81
1, 35510, Control_c, 0, 64, 87
1, 35525, Control_c, 0, 64, 94
1, 35548, Control_c, 0, 64, 101
1, 35562, Control_c, 0, 64, 112
1, 35577, Control_c, 0, 64, 127
1, 35593, Note_off_c, 0, 79, 37
1, 35640, Note_on_c, 0, 73, 56
1, 35652, Note_off_c, 0, 76, 55
1, 35727, Note_off_c, 0, 73, 60
1, 35742, Note_on_c, 0, 69, 49
1, 35767, Note_off_c, 0, 69, 63
1, 35829, Note_on_c, 0, 56, 79
1, 35845, Control_c, 0, 64, 115
1, 35859, Control_c, 0, 64, 100
1, 35874, Control_c, 0, 64, 88
1, 35889, Control_c, 0, 64, 76
1, 35904, Control_c, 0, 64, 67
1, 35910, Note_on_c, 0, 65, 38
1, 35919, Control_c, 0, 64, 59
1, 35923, Note_off_c, 0, 55, 60
1, 35933, Control_c, 0, 64, 48
1, 35948, Control_c, 0, 64, 43
1, 35992, Control_c, 0, 64, 44
1, 36007, Control_c, 0, 64, 44
1, 36012, Note_on_c, 0, 66, 39
1, 36022, Control_c, 0, 64, 45
1, 36037, Control_c, 0, 64, 45
1, 36052, Control_c, 0, 64, 46
1, 36053, Note_off_c, 0, 65, 35
1, 36067, Control_c, 0, 64, 46
1, 36082, Control_c, 0, 64, 47
1, 36096, Control_c, 0, 64, 48
1, 36111, Control_c, 0, 64, 49
1, 36114, Note_on_c, 0, 74, 37
1, 36126, Control_c, 0, 64, 49
1, 36171, Control_c, 0, 64, 50
1, 36186, Note_on_c, 0, 61, 59
1, 36195, Note_off_c, 0, 56, 62
1, 36200, Control_c, 0, 64, 50
1, 36215, Control_c, 0, 64, 51
1, 36219, Note_off_c, 0, 66, 36
1, 36230, Control_c, 0, 64, 51
1, 36259, Control_c, 0, 64, 52
1, 36274, Control_c, 0, 64, 52
1, 36289, Note_on_c, 0, 70, 52
1, 36296, Control_c, 0, 64, 53
1, 36311, Control_c, 0, 64, 54
1, 36323, Note_on_c, 0, 56, 64
1, 36326, Control_c, 0, 64, 55
1, 36341, Control_c, 0, 64, 56
1, 36356, Control_c, 0, 64, 58
1, 36362, Note_off_c, 0, 74, 34
1, 36371, Control_c, 0, 64, 59
1, 36385, Control_c, 0, 64, 60
1, 36400, Note_off_c, 0, 61, 38
1, 36400, Control_c, 0, 64, 60
1, 36415, Control_c, 0, 64, 61
1, 36445, Control_c, 0, 64, 61
1, 36484, Note_on_c, 0, 67, 41
1, 36490, Control_c, 0, 64, 61
1, 36504, Note_off_c, 0, 70, 49
1, 36564, Control_c, 0, 64, 60
1, 36606, Note_on_c, 0, 63, 36
1, 36622, Note_off_c, 0, 67, 58
1, 36623, Control_c, 0, 64, 60
1, 36653, Control_c, 0, 64, 59
1, 36653, Control_c, 0, 67, 100
1, 36668, Control_c, 0, 67, 49
1, 36683, Control_c, 0, 64, 59
1, 36683, Control_c, 0, 67, 0
1, 36708, Note_off_c, 0, 63, 57
1, 36712, Control_c, 0, 64, 58
1, 36727, Control_c, 0, 64, 58
1, 36742, Control_c, 0, 64, 57
1, 36753, Note_on_c, 0, 55, 50
1, 36757, Control_c, 0, 64, 54
1, 36771, Control_c, 0, 64, 49
1, 36786, Control_c, 0, 64, 44
1, 36801, Control_c, 0, 64, 40
1, 36815, Control_c, 0, 64, 36
1, 36830, Control_c, 0, 64, 35
1, 36845, Control_c, 0, 64, 34
1, 36850, Note_off_c, 0, 56, 64
1, 36889, Control_c, 0, 66, 127
1, 36904, Control_c, 0, 64, 36
1, 36919, Control_c, 0, 64, 41
1, 36934, Control_c, 0, 64, 46
1, 36949, Control_c, 0, 64, 52
1, 36964, Control_c, 0, 64, 56
1, 36979, Control_c, 0, 64, 59
1, 36985, Note_on_c, 0, 63, 46
1, 36994, Control_c, 0, 64, 62
1, 36994, Note_on_c, 0, 60, 40
1, 37000, Note_off_c, 0, 55, 64
1, 37008, Control_c, 0, 64, 64
1, 37023, Control_c, 0, 64, 67
1, 37045, Control_c, 0, 64, 71
1, 37060, Control_c, 0, 64, 76
1, 37075, Control_c, 0, 64, 82
1, 37089, Control_c, 0, 64, 87
1, 37104, Control_c, 0, 64, 90
1, 37119, Control_c, 0, 64, 91
1, 37149, Control_c, 0, 64, 91
1, 37164, Control_c, 0, 64, 92
1, 37179, Control_c, 0, 64, 93
1, 37193, Control_c, 0, 64, 94
1, 37208, Control_c, 0, 64, 95
1, 37218, Note_on_c, 0, 68, 48
1, 37223, Control_c, 0, 64, 98
1, 37223, Note_on_c, 0, 65, 52
1, 37238, Control_c, 0, 64, 103
1, 37239, Note_off_c, 0, 60, 40
1, 37253, Control_c, 0, 64, 110
1, 37254, Note_on_c, 0, 36, 39
1, 37265, Note_on_c, 0, 43, 40
1, 37268, Control_c, 0, 64, 127
1, 37315, Note_off_c, 0, 63, 55
1, 37317, Note_off_c, 0, 65, 58
1, 37357, Note_off_c, 0, 43, 57
1, 37365, Note_off_c, 0, 68, 57
1, 37497, Note_off_c, 0, 36, 41
1, 37501, Note_on_c, 0, 74, 62
1, 37544, Note_on_c, 0, 70, 55
1, 37629, Note_on_c, 0, 67, 67
1, 37737, Note_off_c, 0, 74, 48
1, 37742, Note_off_c, 0, 67, 62
1, 37758, Note_on_c, 0, 53, 69
1, 37772, Note_off_c, 0, 70, 21
1, 37942, Control_c, 0, 66, 0
1, 37949, Note_on_c, 0, 58, 76
1, 38048, Note_off_c, 0, 53, 60
1, 38195, Note_off_c, 0, 58, 63
1, 38198, Note_on_c, 0, 63, 66
1, 38249, Note_off_c, 0, 63, 59
1, 38284, Control_c, 0, 64, 98
1, 38291, Note_on_c, 0, 56, 68
1, 38299, Control_c, 0, 64, 67
1, 38306, Note_on_c, 0, 48, 56
1, 38314, Control_c, 0, 64, 24
1, 38328, Control_c, 0, 64, 0
1, 38343, Control_c, 0, 64, 30
1, 38358, Control_c, 0, 64, 51
1, 38373, Control_c, 0, 64, 63
1, 38387, Control_c, 0, 64, 73
1, 38397, Note_off_c, 0, 56, 62
1, 38402, Control_c, 0, 64, 117
1, 38417, Control_c, 0, 64, 127
1, 38454, Note_on_c, 0, 72, 78
1, 38458, Note_off_c, 0, 48, 62
1, 38472, Note_on_c, 0, 63, 48
1, 38496, Note_off_c, 0, 63, 59
1, 38672, Note_on_c, 0, 77, 80
1, 38680, Note_on_c, 0, 24, 63
1, 38699, Note_on_c, 0, 68, 56
1, 38699, Note_off_c, 0, 72, 64
1, 38714, Note_off_c, 0, 24, 61
1, 38766, Note_off_c, 0, 77, 60
1, 38882, Note_off_c, 0, 68, 52
1, 38947, Note_on_c, 0, 82, 67
1, 38965, Note_on_c, 0, 74, 63
1, 38981, Note_off_c, 0, 82, 65
1, 39045, Note_on_c, 0, 67, 67
1, 39046, Note_off_c, 0, 74, 62
1, 39113, Note_off_c, 0, 67, 62
1, 39207, Note_on_c, 0, 60, 63
1, 39223, Note_on_c, 0, 62, 52
1, 39252, Note_off_c, 0, 62, 35
1, 39402, Note_on_c, 0, 65, 83
1, 39421, Note_off_c, 0, 60, 64
1, 39730, Note_on_c, 0, 70, 74
1, 39855, Control_c, 0, 64, 95
1, 39870, Control_c, 0, 64, 75
1, 39885, Control_c, 0, 64, 60
1, 39900, Control_c, 0, 64, 27
1, 39915, Control_c, 0, 64, 0
1, 39917, Note_on_c, 0, 63, 68
1, 39930, Note_off_c, 0, 70, 54
1, 39973, Note_off_c, 0, 65, 57
1, 40019, Control_c, 0, 66, 127
1, 40104, Note_on_c, 0, 59, 28
1, 40145, Control_c, 0, 64, 21
1, 40160, Control_c, 0, 64, 47
1, 40175, Control_c, 0, 64, 59
1, 40189, Control_c, 0, 64, 64
1, 40204, Note_on_c, 0, 67, 45
1, 40204, Control_c, 0, 64, 67
1, 40213, Note_off_c, 0, 59, 56
1, 40219, Control_c, 0, 64, 72
1, 40224, Note_off_c, 0, 63, 60
1, 40234, Control_c, 0, 64, 78
1, 40249, Control_c, 0, 64, 85
1, 40264, Control_c, 0, 64, 90
1, 40279, Control_c, 0, 64, 93
1, 40294, Control_c, 0, 64, 97
1, 40298, Note_off_c, 0, 67, 60
1, 40308, Control_c, 0, 64, 102
1, 40323, Control_c, 0, 64, 108
1, 40336, Note_on_c, 0, 70, 52
1, 40338, Control_c, 0, 64, 110
1, 40344, Note_on_c, 0, 79, 69
1, 40427, Control_c, 0, 64, 108
1, 40441, Control_c, 0, 64, 108
1, 40471, Control_c, 0, 64, 107
1, 40480, Note_on_c, 0, 74, 51
1, 40530, Note_off_c, 0, 74, 56
1, 40572, Note_on_c, 0, 66, 49
1, 40590, Control_c, 0, 64, 105
1, 40605, Control_c, 0, 64, 103
1, 40620, Control_c, 0, 64, 101
1, 40663, Note_off_c, 0, 66, 53
1, 40679, Control_c, 0, 64, 101
1, 40694, Control_c, 0, 64, 97
1, 40707, Note_off_c, 0, 70, 19
1, 40708, Control_c, 0, 64, 86
1, 40713, Note_on_c, 0, 80, 70
1, 40720, Note_on_c, 0, 65, 43
1, 40723, Control_c, 0, 64, 74
1, 40738, Control_c, 0, 64, 62
1, 40753, Control_c, 0, 64, 46
1, 40768, Control_c, 0, 64, 28
1, 40789, Control_c, 0, 64, 29
1, 40804, Control_c, 0, 64, 36
1, 40807, Note_off_c, 0, 79, 62
1, 40819, Control_c, 0, 64, 49
1, 40834, Control_c, 0, 64, 58
1, 40849, Control_c, 0, 64, 62
1, 40852, Note_on_c, 0, 69, 52
1, 40863, Control_c, 0, 64, 66
1, 40878, Control_c, 0, 64, 71
1, 40893, Control_c, 0, 64, 81
1, 40908, Control_c, 0, 64, 95
1, 40923, Control_c, 0, 64, 108
1, 40937, Control_c, 0, 64, 119
1, 40952, Control_c, 0, 64, 127
1, 40988, Note_on_c, 0, 73, 47
1, 41006, Note_off_c, 0, 80, 62
1, 41023, Note_on_c, 0, 85, 58
1, 41023, Note_off_c, 0, 65, 31
1, 41056, Control_c, 0, 66, 0
1, 41067, Note_off_c, 0, 69, 33
1, 41104, Note_off_c, 0, 73, 62
1, 41106, Note_on_c, 0, 80, 61
1, 41122, Note_off_c, 0, 85, 53
1, 41125, Note_on_c, 0, 76, 49
1, 41168, Note_off_c, 0, 76, 56
1, 41252, Note_on_c, 0, 79, 53
1, 41279, Control_c, 0, 67, 26
1, 41294, Control_c, 0, 67, 68
1, 41309, Control_c, 0, 67, 107
1, 41324, Control_c, 0, 67, 127
1, 41332, Note_off_c, 0, 79, 64
1, 41351, Note_on_c, 0, 72, 50
1, 41373, Note_off_c, 0, 72, 62
1, 41486, Control_c, 0, 64, 111
1, 41501, Control_c, 0, 64, 104
1, 41516, Control_c, 0, 64, 101
1, 41537, Note_on_c, 0, 79, 57
1, 41539, Control_c, 0, 64, 90
1, 41544, Note_on_c, 0, 51, 46
1, 41553, Control_c, 0, 64, 74
1, 41568, Control_c, 0, 64, 58
1, 41577, Note_off_c, 0, 80, 59
1, 41583, Control_c, 0, 64, 0
1, 41657, Control_c, 0, 64, 25
1, 41672, Control_c, 0, 64, 48
1, 41684, Note_on_c, 0, 55, 35
1, 41686, Control_c, 0, 64, 57
1, 41701, Control_c, 0, 64, 62
1, 41716, Control_c, 0, 64, 65
1, 41731, Control_c, 0, 64, 69
1, 41746, Control_c, 0, 64, 73
1, 41760, Control_c, 0, 64, 81
1, 41775, Control_c, 0, 64, 88
1, 41781, Note_on_c, 0, 59, 45
1, 41787, Note_off_c, 0, 55, 49
1, 41790, Control_c, 0, 64, 96
1, 41805, Control_c, 0, 64, 103
1, 41820, Control_c, 0, 64, 106
1, 41829, Note_off_c, 0, 51, 26
1, 41850, Control_c, 0, 64, 105
1, 41865, Control_c, 0, 64, 104
1, 41879, Note_off_c, 0, 59, 62
1, 41879, Control_c, 0, 64, 104
1, 41894, Control_c, 0, 64, 103
1, 41909, Control_c, 0, 64, 102
1, 41924, Control_c, 0, 64, 101
1, 41924, Note_on_c, 0, 62, 48
1, 41939, Control_c, 0, 64, 99
1, 41953, Control_c, 0, 64, 99
1, 41983, Control_c, 0, 64, 98
1, 42012, Control_c, 0, 64, 97
1, 42033, Note_off_c, 0, 62, 52
1, 42038, Note_on_c, 0, 66, 46
1, 42042, Control_c, 0, 64, 97
1, 42057, Control_c, 0, 64, 96
1, 42073, Control_c, 0, 64, 95
1, 42088, Control_c, 0, 64, 94
1, 42102, Control_c, 0, 64, 91
1, 42104, Note_off_c, 0, 66, 53
1, 42117, Control_c, 0, 64, 88
1, 42132, Control_c, 0, 64, 85
1, 42139, Note_on_c, 0, 58, 45
1, 42145, Note_on_c, 0, 76, 45
1, 42147, Control_c, 0, 64, 84
1, 42163, Note_off_c, 0, 79, 62
1, 42176, Control_c, 0, 64, 84
1, 42181, Note_on_c, 0, 85, 59
1, 42191, Control_c, 0, 64, 83
1, 42206, Control_c, 0, 64, 77
1, 42216, Note_off_c, 0, 58, 46
1, 42221, Control_c, 0, 64, 65
1, 42235, Control_c, 0, 64, 50
1, 42250, Control_c, 0, 64, 0
1, 42263, Note_on_c, 0, 84, 58
1, 42276, Note_on_c, 0, 57, 43
1, 42282, Note_off_c, 0, 85, 63
1, 42362, Control_c, 0, 64, 28
1, 42377, Control_c, 0, 64, 50
1, 42391, Control_c, 0, 64, 58
1, 42406, Control_c, 0, 64, 62
1, 42416, Note_off_c, 0, 76, 49
1, 42421, Control_c, 0, 64, 65
1, 42435, Control_c, 0, 64, 69
1, 42439, Note_on_c, 0, 61, 43
1, 42450, Control_c, 0, 64, 75
1, 42465, Control_c, 0, 64, 82
1, 42480, Control_c, 0, 64, 87
1, 42495, Control_c, 0, 64, 91
1, 42509, Control_c, 0, 64, 92
1, 42522, Note_off_c, 0, 84, 61
1, 42524, Note_off_c, 0, 57, 58
1, 42553, Note_off_c, 0, 61, 60
1, 42559, Note_on_c, 0, 65, 52
1, 42569, Control_c, 0, 64, 91
1, 42598, Control_c, 0, 64, 91
1, 42628, Control_c, 0, 64, 90
1, 42640, Note_off_c, 0, 65, 60
1, 42643, Control_c, 0, 64, 90
1, 42672, Control_c, 0, 64, 89
1, 42675, Note_on_c, 0, 68, 50
1, 42687, Control_c, 0, 64, 89
1, 42702, Control_c, 0, 64, 88
1, 42717, Control_c, 0, 64, 87
1, 42732, Control_c, 0, 64, 86
1, 42747, Control_c, 0, 64, 84
1, 42762, Control_c, 0, 64, 82
1, 42776, Control_c, 0, 64, 81
1, 42784, Note_on_c, 0, 83, 54
1, 42791, Control_c, 0, 64, 80
1, 42806, Note_on_c, 0, 72, 48
1, 42806, Control_c, 0, 64, 79
1, 42820, Control_c, 0, 64, 79
1, 42826, Note_on_c, 0, 84, 60
1, 42828, Note_off_c, 0, 83, 61
1, 42835, Control_c, 0, 64, 78
1, 42850, Control_c, 0, 64, 77
1, 42861, Note_off_c, 0, 84, 63
1, 42865, Control_c, 0, 64, 76
1, 42877, Note_on_c, 0, 87, 62
1, 42881, Control_c, 0, 64, 73
1, 42896, Control_c, 0, 64, 70
1, 42904, Note_off_c, 0, 72, 54
1, 42908, Note_off_c, 0, 87, 66
1, 42911, Control_c, 0, 64, 68
1, 42914, Note_on_c, 0, 64, 52
1, 42925, Control_c, 0, 64, 65
1, 42931, Note_on_c, 0, 92, 64
1, 42940, Control_c, 0, 64, 63
1, 42949, Note_off_c, 0, 68, 32
1, 42955, Control_c, 0, 64, 60
1, 42970, Control_c, 0, 64, 57
1, 42985, Control_c, 0, 64, 54
1, 42992, Note_off_c, 0, 64, 62
1, 42999, Control_c, 0, 64, 52
1, 43006, Note_off_c, 0, 92, 59
1, 43007, Note_on_c, 0, 91, 64
1, 43008, Note_on_c, 0, 63, 64
1, 43014, Control_c, 0, 64, 51
1, 43036, Control_c, 0, 64, 50
1, 43051, Control_c, 0, 64, 49
1, 43066, Note_on_c, 0, 89, 58
1, 43066, Control_c, 0, 64, 49
1, 43102, Note_off_c, 0, 91, 56
1, 43111, Control_c, 0, 64, 48
1, 43120, Note_off_c, 0, 89, 63
1, 43124, Note_on_c, 0, 90, 67
1, 43134, Note_on_c, 0, 67, 70
1, 43165, Note_off_c, 0, 90, 65
1, 43173, Note_on_c, 0, 86, 51
1, 43212, Note_off_c, 0, 86, 57
1, 43221, Note_on_c, 0, 87, 69
1, 43245, Note_off_c, 0, 63, 52
1, 43252, Note_on_c, 0, 71, 76
1, 43282, Note_off_c, 0, 67, 59
1, 43296, Note_off_c, 0, 87, 58
1, 43319, Note_on_c, 0, 88, 48
1, 43340, Note_off_c, 0, 88, 62
1, 43341, Note_on_c, 0, 89, 69
1, 43355, Note_off_c, 0, 71, 63
1, 43359, Note_on_c, 0, 74, 72
1, 43394, Note_on_c, 0, 87, 70
1, 43409, Note_off_c, 0, 89, 59
1, 43453, Note_on_c, 0, 88, 62
1, 43476, Note_on_c, 0, 78, 75
1, 43486, Note_off_c, 0, 87, 39
1, 43534, Note_off_c, 0, 74, 51
1, 43534, Note_off_c, 0, 88, 65
1, 43569, Note_on_c, 0, 85, 73
1, 43596, Note_on_c, 0, 70, 65
1, 43605, Note_off_c, 0, 85, 65
1, 43634, Note_off_c, 0, 78, 63
1, 43648, Note_on_c, 0, 86, 69
1, 43658, Control_c, 0, 64, 49
1, 43701, Note_on_c, 0, 69, 74
1, 43702, Note_off_c, 0, 86, 58
1, 43720, Note_on_c, 0, 94, 73
1, 43752, Note_off_c, 0, 70, 58
1, 43765, Note_on_c, 0, 92, 74
1, 43814, Note_off_c, 0, 94, 54
1, 43814, Control_c, 0, 64, 45
1, 43829, Control_c, 0, 64, 35
1, 43829, Note_on_c, 0, 93, 69
1, 43841, Note_on_c, 0, 73, 73
1, 43844, Control_c, 0, 64, 0
1, 43853, Note_on_c, 0, 89, 70
1, 43864, Note_off_c, 0, 92, 60
1, 43866, Note_off_c, 0, 93, 64
1, 43889, Note_off_c, 0, 69, 62
1, 43901, Note_off_c, 0, 89, 60
1, 43915, Note_on_c, 0, 90, 71
1, 43933, Note_on_c, 0, 77, 76
1, 43952, Note_off_c, 0, 73, 64
1, 43968, Note_off_c, 0, 90, 64
1, 43976, Note_on_c, 0, 91, 65
1, 44020, Note_off_c, 0, 77, 64
1, 44030, Note_on_c, 0, 92, 75
1, 44031, Note_on_c, 0, 80, 70
1, 44055, Note_off_c, 0, 91, 61
1, 44066, Control_c, 0, 64, 19
1, 44070, Note_on_c, 0, 90, 73
1, 44080, Control_c, 0, 64, 35
1, 44095, Control_c, 0, 64, 44
1, 44108, Note_off_c, 0, 92, 64
1, 44110, Control_c, 0, 64, 51
1, 44125, Control_c, 0, 64, 55
1, 44135, Note_on_c, 0, 84, 71
1, 44136, Note_on_c, 0, 87, 75
1, 44140, Control_c, 0, 64, 59
1, 44140, Control_c, 0, 67, 127
1, 44154, Control_c, 0, 64, 63
1, 44154, Control_c, 0, 67, 95
1, 44169, Control_c, 0, 64, 66
1, 44169, Control_c, 0, 67, 53
1, 44184, Control_c, 0, 64, 69
1, 44184, Control_c, 0, 67, 9
1, 44190, Note_off_c, 0, 80, 62
1, 44192, Note_off_c, 0, 84, 62
1, 44199, Control_c, 0, 64, 73
1, 44199, Control_c, 0, 67, 0
1, 44205, Note_on_c, 0, 76, 70
1, 44213, Control_c, 0, 64, 78
1, 44217, Note_on_c, 0, 88, 65
1, 44228, Control_c, 0, 64, 84
1, 44231, Note_off_c, 0, 76, 67
1, 44243, Control_c, 0, 64, 90
1, 44258, Control_c, 0, 64, 94
1, 44276, Note_on_c, 0, 89, 80
1, 44280, Note_off_c, 0, 88, 66
1, 44283, Note_off_c, 0, 90, 37
1, 44288, Control_c, 0, 64, 93
1, 44294, Note_off_c, 0, 87, 62
1, 44303, Control_c, 0, 64, 89
1, 44318, Control_c, 0, 64, 81
1, 44333, Control_c, 0, 64, 71
1, 44347, Control_c, 0, 64, 63
1, 44351, Note_on_c, 0, 78, 78
1, 44362, Control_c, 0, 64, 55
1, 44377, Control_c, 0, 64, 51
1, 44391, Control_c, 0, 64, 50
1, 44420, Note_on_c, 0, 72, 43
1, 44453, Note_off_c, 0, 72, 55
1, 44473, Note_on_c, 0, 74, 67
1, 44476, Note_on_c, 0, 81, 73
1, 44491, Note_on_c, 0, 70, 50
1, 44494, Note_off_c, 0, 78, 63
1, 44509, Note_off_c, 0, 74, 61
1, 44579, Note_off_c, 0, 70, 67
1, 44585, Note_off_c, 0, 89, 38
1, 44595, Note_on_c, 0, 85, 82
1, 44613, Note_off_c, 0, 81, 64
1, 44641, Note_on_c, 0, 73, 77
1, 44642, Note_on_c, 0, 72, 29
1, 44673, Poly_aftertouch_c, 0, 71, 127
1, 44675, Note_off_c, 0, 72, 50
1, 44681, Control_c, 0, 64, 49
1, 44691, Note_off_c, 0, 73, 60
1, 44696, Control_c, 0, 64, 46
1, 44703, Note_on_c, 0, 88, 84
1, 44711, Note_off_c, 0, 85, 65
1, 44711, Control_c, 0, 64, 40
1, 44716, Poly_aftertouch_c, 0, 71, 0
1, 44721, Note_on_c, 0, 72, 68
1, 44726, Control_c, 0, 64, 34
1, 44741, Control_c, 0, 64, 25
1, 44756, Control_c, 0, 64, 17
1, 44770, Control_c, 0, 64, 15
1, 44774, Note_off_c, 0, 72, 62
1, 44784, Note_on_c, 0, 69, 65
1, 44800, Control_c, 0, 64, 17
1, 44815, Control_c, 0, 64, 32
1, 44820, Note_off_c, 0, 69, 65
1, 44822, Note_on_c, 0, 92, 81
1, 44829, Note_on_c, 0, 70, 71
1, 44829, Control_c, 0, 64, 49
1, 44844, Control_c, 0, 64, 57
1, 44859, Control_c, 0, 64, 60
1, 44864, Note_off_c, 0, 70, 67
1, 44867, Note_off_c, 0, 88, 59
1, 44874, Control_c, 0, 64, 62
1, 44889, Control_c, 0, 64, 65
1, 44903, Control_c, 0, 64, 70
1, 44914, Note_on_c, 0, 84, 76
1, 44918, Control_c, 0, 64, 78
1, 44928, Note_off_c, 0, 92, 62
1, 44933, Control_c, 0, 64, 88
1, 44934, Note_on_c, 0, 71, 67
1, 44948, Control_c, 0, 64, 98
1, 44956, Note_off_c, 0, 71, 59
1, 44963, Control_c, 0, 64, 108
1, 44965, Note_off_c, 0, 84, 64
1, 44977, Control_c, 0, 64, 113
1, 44992, Control_c, 0, 64, 108
1, 44993, Note_on_c, 0, 80, 67
1, 45007, Control_c, 0, 64, 97
1, 45014, Note_on_c, 0, 83, 84
1, 45021, Control_c, 0, 64, 81
1, 45036, Control_c, 0, 64, 69
1, 45047, Note_on_c, 0, 78, 72
1, 45051, Control_c, 0, 64, 60
1, 45052, Note_off_c, 0, 80, 62
1, 45066, Control_c, 0, 64, 48
1, 45081, Control_c, 0, 64, 33
1, 45092, Note_off_c, 0, 78, 61
1, 45096, Control_c, 0, 64, 0
1, 45097, Note_on_c, 0, 79, 67
1, 45129, Note_on_c, 0, 87, 85
1, 45149, Note_off_c, 0, 79, 65
1, 45150, Note_on_c, 0, 75, 61
1, 45195, Note_on_c, 0, 77, 74
1, 45197, Note_off_c, 0, 83, 51
1, 45202, Note_off_c, 0, 75, 56
1, 45242, Note_on_c, 0, 91, 85
1, 45260, Note_off_c, 0, 77, 62
1, 45275, Note_on_c, 0, 78, 62
1, 45301, Note_off_c, 0, 87, 64
1, 45302, Note_on_c, 0, 79, 73
1, 45310, Note_off_c, 0, 78, 66
1, 45335, Note_on_c, 0, 77, 58
1, 45360, Note_on_c, 0, 94, 93
1, 45370, Note_off_c, 0, 79, 58
1, 45389, Note_on_c, 0, 78, 77
1, 45391, Note_off_c, 0, 77, 62
1, 45415, Control_c, 0, 64, 18
1, 45430, Control_c, 0, 64, 40
1, 45445, Control_c, 0, 64, 53
1, 45459, Note_off_c, 0, 78, 63
1, 45459, Control_c, 0, 64, 60
1, 45474, Control_c, 0, 64, 65
1, 45475, Note_on_c, 0, 97, 80
1, 45477, Note_on_c, 0, 74, 63
1, 45489, Control_c, 0, 64, 71
1, 45504, Control_c, 0, 64, 79
1, 45514, Note_on_c, 0, 75, 75
1, 45514, Note_off_c, 0, 74, 62
1, 45519, Control_c, 0, 64, 89
1, 45534, Control_c, 0, 64, 102
1, 45543, Note_off_c, 0, 91, 59
1, 45549, Control_c, 0, 64, 127
1, 45567, Note_off_c, 0, 94, 64
1, 45577, Note_off_c, 0, 97, 64
1, 45582, Note_on_c, 0, 87, 83
1, 45592, Note_off_c, 0, 75, 63
1, 45601, Note_on_c, 0, 76, 59
1, 45621, Note_off_c, 0, 76, 41
1, 45631, Note_off_c, 0, 87, 64
1, 45667, Control_c, 0, 64, 91
1, 45682, Control_c, 0, 64, 69
1, 45697, Control_c, 0, 64, 54
1, 45712, Control_c, 0, 64, 42
1, 45725, Note_on_c, 0, 77, 64
1, 45726, Control_c, 0, 64, 51
1, 45728, Note_on_c, 0, 69, 41
1, 45732, Note_on_c, 0, 87, 72
1, 45736, Note_on_c, 0, 57, 35
1, 45741, Control_c, 0, 64, 58
1, 45756, Note_off_c, 0, 69, 54
1, 45756, Note_off_c, 0, 77, 65
1, 45756, Control_c, 0, 64, 63
1, 45771, Note_off_c, 0, 57, 57
1, 45771, Control_c, 0, 64, 67
1, 45781, Note_off_c, 0, 87, 54
1, 45784, Note_on_c, 0, 59, 3
1, 45786, Control_c, 0, 64, 75
1, 45787, Note_on_c, 0, 78, 67
1, 45792, Note_on_c, 0, 60, 3
1, 45800, Control_c, 0, 64, 88
1, 45815, Control_c, 0, 64, 111
1, 45825, Note_off_c, 0, 59, 53
1, 45826, Note_off_c, 0, 60, 26
1, 45830, Control_c, 0, 64, 127
1, 45852, Note_off_c, 0, 78, 64
1, 45861, Note_on_c, 0, 79, 69
1, 45868, Note_on_c, 0, 61, 64
1, 45871, Note_on_c, 0, 86, 63
1, 45871, Note_on_c, 0, 71, 64
1, 45893, Note_off_c, 0, 79, 62
1, 45896, Note_on_c, 0, 59, 12
1, 45896, Note_off_c, 0, 71, 64
1, 45903, Note_off_c, 0, 61, 64
1, 45927, Note_on_c, 0, 80, 71
1, 45937, Note_off_c, 0, 86, 62
1, 45942, Note_off_c, 0, 59, 37
1, 45963, Note_off_c, 0, 80, 63
1, 45965, Note_on_c, 0, 85, 69
1, 45972, Note_on_c, 0, 71, 69
1, 45980, Note_on_c, 0, 81, 71
1, 45981, Note_on_c, 0, 62, 62
1, 46002, Note_off_c, 0, 71, 66
1, 46007, Note_off_c, 0, 81, 66
1, 46026, Note_off_c, 0, 62, 63
1, 46062, Note_on_c, 0, 82, 64
1, 46062, Note_off_c, 0, 85, 0
1, 46075, Note_on_c, 0, 85, 58
1, 46085, Note_on_c, 0, 71, 76
1, 46090, Note_on_c, 0, 63, 71
1, 46091, Note_on_c, 0, 59, 59
1, 46091, Note_off_c, 0, 82, 68
1, 46097, Note_on_c, 0, 83, 76
1, 46129, Note_off_c, 0, 59, 65
1, 46137, Note_off_c, 0, 71, 58
1, 46145, Note_off_c, 0, 83, 62
1, 46148, Note_off_c, 0, 63, 57
1, 46161, Note_off_c, 0, 85, 64
1, 46166, Note_on_c, 0, 82, 71
1, 46205, Note_on_c, 0, 85, 55
1, 46208, Note_off_c, 0, 82, 62
1, 46210, Note_on_c, 0, 71, 66
1, 46212, Note_on_c, 0, 64, 66
1, 46215, Note_on_c, 0, 59, 61
1, 46219, Note_on_c, 0, 81, 70
1, 46240, Note_off_c, 0, 71, 65
1, 46243, Note_off_c, 0, 59, 64
1, 46244, Note_off_c, 0, 64, 63
1, 46252, Note_off_c, 0, 81, 63
1, 46289, Note_on_c, 0, 80, 70
1, 46308, Note_on_c, 0, 86, 78
1, 46316, Note_off_c, 0, 80, 69
1, 46323, Note_on_c, 0, 65, 74
1, 46324, Note_on_c, 0, 71, 72
1, 46330, Note_on_c, 0, 59, 56
1, 46336, Note_on_c, 0, 79, 70
1, 46357, Note_off_c, 0, 86, 64
1, 46362, Note_off_c, 0, 85, 36
1, 46366, Note_off_c, 0, 59, 61
1, 46372, Note_off_c, 0, 79, 57
1, 46373, Note_off_c, 0, 65, 60
1, 46390, Note_on_c, 0, 78, 79
1, 46397, Note_off_c, 0, 71, 56
1, 46401, Control_c, 0, 64, 103
1, 46416, Control_c, 0, 64, 71
1, 46422, Note_off_c, 0, 78, 62
1, 46431, Control_c, 0, 64, 56
1, 46446, Control_c, 0, 64, 31
1, 46448, Note_on_c, 0, 77, 86
1, 46450, Note_on_c, 0, 66, 82
1, 46452, Note_on_c, 0, 87, 93
1, 46456, Note_on_c, 0, 59, 73
1, 46461, Control_c, 0, 64, 42
1, 46475, Control_c, 0, 64, 57
1, 46490, Control_c, 0, 64, 64
1, 46495, Note_off_c, 0, 77, 63
1, 46498, Note_off_c, 0, 59, 55
1, 46505, Control_c, 0, 64, 76
1, 46513, Note_on_c, 0, 78, 75
1, 46520, Control_c, 0, 64, 116
1, 46533, Note_off_c, 0, 87, 63
1, 46535, Control_c, 0, 64, 127
1, 46538, Note_off_c, 0, 66, 56
1, 46568, Note_off_c, 0, 78, 64
1, 46579, Note_on_c, 0, 67, 80
1, 46581, Note_on_c, 0, 79, 78
1, 46583, Note_on_c, 0, 59, 68
1, 46588, Note_on_c, 0, 86, 71
1, 46620, Note_off_c, 0, 59, 58
1, 46625, Note_off_c, 0, 67, 61
1, 46631, Note_off_c, 0, 79, 64
1, 46652, Note_on_c, 0, 80, 75
1, 46667, Note_off_c, 0, 86, 62
1, 46685, Note_off_c, 0, 80, 63
1, 46700, Note_on_c, 0, 68, 88
1, 46701, Note_on_c, 0, 85, 68
1, 46706, Note_on_c, 0, 59, 76
1, 46709, Note_on_c, 0, 81, 68
1, 46750, Note_off_c, 0, 59, 61
1, 46753, Note_off_c, 0, 81, 63
1, 46755, Note_off_c, 0, 68, 59
1, 46771, Note_on_c, 0, 82, 84
1, 46797, Note_off_c, 0, 85, 59
1, 46828, Note_on_c, 0, 69, 105
1, 46829, Note_off_c, 0, 82, 61
1, 46831, Note_on_c, 0, 59, 92
1, 46831, Note_on_c, 0, 83, 95
1, 46834, Note_on_c, 0, 85, 57
1, 46842, Note_on_c, 0, 84, 70
1, 46851, Poly_aftertouch_c, 0, 62, 0
1, 46866, Note_on_c, 0, 65, 41
1, 46872, Note_off_c, 0, 69, 64
1, 46883, Control_c, 0, 64, 115
1, 46887, Note_on_c, 0, 82, 75
1, 46889, Poly_aftertouch_c, 0, 62, 127
1, 46890, Note_off_c, 0, 59, 55
1, 46892, Note_off_c, 0, 83, 61
1, 46897, Control_c, 0, 64, 73
1, 46899, Note_off_c, 0, 85, 63
1, 46910, Note_off_c, 0, 65, 62
1, 46912, Control_c, 0, 64, 56
1, 46927, Note_off_c, 0, 84, 47
1, 46927, Control_c, 0, 64, 42
1, 46942, Note_on_c, 0, 59, 59
1, 46942, Control_c, 0, 64, 55
1, 46948, Note_on_c, 0, 85, 47
1, 46953, Note_off_c, 0, 82, 65
1, 46953, Note_on_c, 0, 81, 78
1, 46955, Note_on_c, 0, 70, 84
1, 46957, Control_c, 0, 64, 61
1, 46959, Poly_aftertouch_c, 0, 62, 0
1, 46971, Control_c, 0, 64, 67
1, 46986, Control_c, 0, 64, 80
1, 46995, Note_off_c, 0, 70, 60
1, 47001, Control_c, 0, 64, 127
1, 47002, Note_off_c, 0, 59, 62
1, 47011, Note_off_c, 0, 81, 65
1, 47028, Note_on_c, 0, 80, 80
1, 47068, Note_on_c, 0, 71, 86
1, 47069, Note_on_c, 0, 79, 76
1, 47069, Note_off_c, 0, 80, 59
1, 47100, Note_on_c, 0, 59, 25
1, 47108, Note_off_c, 0, 85, 65
1, 47108, Note_off_c, 0, 71, 63
1, 47123, Note_off_c, 0, 59, 56
1, 47127, Note_off_c, 0, 79, 66
1, 47129, Note_on_c, 0, 78, 83
1, 47165, Note_on_c, 0, 87, 97
1, 47165, Control_c, 0, 64, 88
1, 47179, Control_c, 0, 64, 65
1, 47180, Note_off_c, 0, 78, 67
1, 47181, Note_on_c, 0, 79, 51
1, 47186, Note_on_c, 0, 65, 109
1, 47188, Note_on_c, 0, 59, 90
1, 47194, Control_c, 0, 64, 49
1, 47201, Note_off_c, 0, 79, 40
1, 47203, Note_off_c, 0, 87, 68
1, 47209, Control_c, 0, 64, 55
1, 47210, Note_off_c, 0, 59, 69
1, 47214, Note_off_c, 0, 65, 69
1, 47223, Control_c, 0, 64, 63
1, 47238, Control_c, 0, 64, 72
1, 47253, Control_c, 0, 64, 119
1, 47268, Control_c, 0, 64, 127
1, 47273, Note_on_c, 0, 59, 93
1, 47276, Note_on_c, 0, 65, 91
1, 47286, Note_on_c, 0, 64, 75
1, 47292, Note_off_c, 0, 59, 66
1, 47296, Note_off_c, 0, 65, 71
1, 47302, Note_off_c, 0, 64, 69
1, 47354, Note_on_c, 0, 65, 94
1, 47356, Note_on_c, 0, 59, 90
1, 47376, Note_off_c, 0, 59, 71
1, 47386, Note_off_c, 0, 65, 64
1, 47429, Note_on_c, 0, 59, 87
1, 47435, Note_on_c, 0, 65, 89
1, 47522, Note_on_c, 0, 96, 106
1, 47525, Note_on_c, 0, 84, 104
1, 47543, Control_c, 0, 64, 103
1, 47549, Note_off_c, 0, 96, 64
1, 47551, Note_off_c, 0, 84, 65
1, 47558, Control_c, 0, 64, 66
1, 47573, Control_c, 0, 64, 0
1, 47594, Note_on_c, 0, 83, 107
1, 47594, Note_on_c, 0, 95, 112
1, 47632, Control_c, 0, 64, 21
1, 47647, Control_c, 0, 64, 54
1, 47662, Control_c, 0, 64, 65
1, 47677, Control_c, 0, 64, 75
1, 47692, Control_c, 0, 64, 105
1, 47707, Control_c, 0, 64, 127
1, 47724, Note_off_c, 0, 95, 63
1, 47789, Note_off_c, 0, 83, 60
1, 47951, Note_off_c, 0, 65, 53
1, 48016, Note_off_c, 0, 59, 53
1, 48103, Note_on_c, 0, 65, 54
1, 48127, Note_off_c, 0, 65, 57
1, 48160, Note_on_c, 0, 76, 64
1, 48213, Note_on_c, 0, 78, 64
1, 48253, Note_off_c, 0, 76, 61
1, 48288, Note_on_c, 0, 67, 68
1, 48288, Note_on_c, 0, 75, 57
1, 48289, Note_on_c, 0, 60, 89
1, 48303, Note_off_c, 0, 78, 61
1, 48307, Note_off_c, 0, 60, 74
1, 48324, Note_off_c, 0, 67, 59
1, 48336, Control_c, 0, 64, 95
1, 48337, Note_on_c, 0, 74, 74
1, 48351, Control_c, 0, 64, 67
1, 48360, Note_on_c, 0, 59, 107
1, 48366, Control_c, 0, 64, 0
1, 48367, Note_off_c, 0, 75, 62
1, 48388, Note_on_c, 0, 80, 77
1, 48393, Note_off_c, 0, 74, 64
1, 48411, Control_c, 0, 64, 28
1, 48425, Control_c, 0, 64, 57
1, 48440, Control_c, 0, 64, 67
1, 48455, Control_c, 0, 64, 80
1, 48470, Control_c, 0, 64, 127
1, 48477, Note_on_c, 0, 73, 72
1, 48509, Note_off_c, 0, 80, 61
1, 48534, Note_on_c, 0, 69, 66
1, 48538, Note_off_c, 0, 59, 63
1, 48555, Note_off_c, 0, 69, 64
1, 48589, Note_off_c, 0, 73, 63
1, 48622, Note_on_c, 0, 82, 76
1, 48679, Note_on_c, 0, 74, 69
1, 48723, Note_off_c, 0, 82, 64
1, 48733, Note_on_c, 0, 71, 84
1, 48738, Control_c, 0, 64, 86
1, 48744, Note_off_c, 0, 74, 61
1, 48752, Control_c, 0, 64, 61
1, 48767, Control_c, 0, 64, 34
1, 48770, Note_off_c, 0, 71, 66
1, 48782, Control_c, 0, 64, 46
1, 48797, Control_c, 0, 64, 59
1, 48802, Note_on_c, 0, 77, 123
1, 48812, Control_c, 0, 64, 65
1, 48826, Control_c, 0, 64, 77
1, 48833, Note_off_c, 0, 77, 64
1, 48841, Control_c, 0, 64, 127
1, 48889, Note_on_c, 0, 77, 105
1, 48922, Note_off_c, 0, 77, 64
1, 48973, Note_on_c, 0, 77, 100
1, 49000, Note_off_c, 0, 77, 66
1, 49054, Note_on_c, 0, 77, 94
1, 49074, Note_off_c, 0, 77, 68
1, 49224, Note_on_c, 0, 75, 65
1, 49296, Note_on_c, 0, 77, 76
1, 49297, Note_off_c, 0, 75, 58
1, 49375, Note_on_c, 0, 80, 85
1, 49385, Note_on_c, 0, 60, 100
1, 49388, Note_on_c, 0, 48, 86
1, 49394, Note_off_c, 0, 77, 61
1, 49413, Note_off_c, 0, 48, 69
1, 49420, Note_off_c, 0, 60, 67
1, 49442, Control_c, 0, 64, 71
1, 49444, Note_off_c, 0, 80, 60
1, 49457, Note_on_c, 0, 85, 87
1, 49457, Control_c, 0, 64, 38
1, 49466, Note_on_c, 0, 59, 97
1, 49467, Note_on_c, 0, 47, 99
1, 49472, Control_c, 0, 64, 0
1, 49501, Note_on_c, 0, 80, 79
1, 49501, Control_c, 0, 64, 41
1, 49516, Control_c, 0, 64, 61
1, 49521, Note_off_c, 0, 85, 67
1, 49531, Control_c, 0, 64, 73
1, 49531, Note_off_c, 0, 80, 64
1, 49537, Note_off_c, 0, 47, 65
1, 49546, Control_c, 0, 64, 114
1, 49552, Note_on_c, 0, 79, 50
1, 49555, Note_off_c, 0, 59, 66
1, 49560, Control_c, 0, 64, 127
1, 49576, Note_on_c, 0, 77, 102
1, 49583, Note_off_c, 0, 79, 49
1, 49626, Note_off_c, 0, 77, 66
1, 49684, Note_on_c, 0, 77, 96
1, 49719, Note_off_c, 0, 77, 62
1, 49773, Note_on_c, 0, 77, 80
1, 49794, Note_off_c, 0, 77, 67
1, 49804, Note_on_c, 0, 63, 64
1, 49864, Note_on_c, 0, 77, 70
1, 49879, Control_c, 0, 64, 103
1, 49884, Note_on_c, 0, 79, 47
1, 49891, Note_off_c, 0, 63, 58
1, 49893, Control_c, 0, 64, 86
1, 49893, Control_c, 0, 67, 57
1, 49908, Control_c, 0, 64, 75
1, 49908, Control_c, 0, 67, 127
1, 49916, Note_on_c, 0, 67, 55
1, 49923, Control_c, 0, 64, 67
1, 49938, Control_c, 0, 64, 60
1, 49953, Control_c, 0, 64, 54
1, 49982, Control_c, 0, 64, 53
1, 49992, Note_off_c, 0, 67, 61
1, 49997, Control_c, 0, 64, 50
1, 50012, Control_c, 0, 64, 47
1, 50026, Control_c, 0, 64, 41
1, 50036, Note_on_c, 0, 70, 45
1, 50041, Control_c, 0, 64, 24
1, 50048, Note_on_c, 0, 87, 63
1, 50056, Control_c, 0, 64, 0
1, 50182, Note_on_c, 0, 74, 43
1, 50226, Note_off_c, 0, 74, 55
1, 50273, Note_on_c, 0, 66, 38
1, 50354, Note_off_c, 0, 66, 47
1, 50375, Note_off_c, 0, 70, 21
1, 50433, Note_on_c, 0, 65, 28
1, 50435, Note_on_c, 0, 88, 55
1, 50457, Control_c, 0, 64, 30
1, 50472, Control_c, 0, 64, 43
1, 50482, Note_off_c, 0, 87, 57
1, 50487, Control_c, 0, 64, 50
1, 50502, Control_c, 0, 64, 55
1, 50524, Control_c, 0, 64, 59
1, 50539, Control_c, 0, 64, 62
1, 50543, Note_off_c, 0, 77, 36
1, 50554, Control_c, 0, 64, 64
1, 50565, Note_off_c, 0, 79, 1
1, 50569, Control_c, 0, 64, 66
1, 50580, Note_on_c, 0, 69, 40
1, 50584, Control_c, 0, 64, 68
1, 50598, Control_c, 0, 64, 69
1, 50613, Control_c, 0, 64, 72
1, 50628, Control_c, 0, 64, 74
1, 50642, Control_c, 0, 64, 76
1, 50654, Note_off_c, 0, 65, 41
1, 50657, Control_c, 0, 64, 77
1, 50673, Note_off_c, 0, 69, 58
1, 50697, Note_on_c, 0, 74, 35
1, 50750, Note_off_c, 0, 88, 61
1, 50780, Note_on_c, 0, 93, 44
1, 50790, Note_off_c, 0, 74, 48
1, 50790, Control_c, 0, 64, 77
1, 50855, Note_on_c, 0, 77, 46
1, 50866, Control_c, 0, 64, 78
1, 50881, Control_c, 0, 64, 79
1, 50887, Note_on_c, 0, 88, 46
1, 50895, Control_c, 0, 64, 81
1, 50910, Control_c, 0, 64, 82
1, 50925, Control_c, 0, 64, 83
1, 50939, Control_c, 0, 64, 84
1, 50954, Control_c, 0, 64, 86
1, 50969, Control_c, 0, 64, 89
1, 50984, Control_c, 0, 64, 93
1, 50999, Control_c, 0, 64, 97
1, 51013, Control_c, 0, 64, 105
1, 51028, Control_c, 0, 64, 121
1, 51030, Note_on_c, 0, 80, 42
1, 51043, Control_c, 0, 64, 127
1, 51073, Control_c, 0, 67, 121
1, 51081, Note_off_c, 0, 80, 55
1, 51087, Control_c, 0, 67, 112
1, 51102, Control_c, 0, 67, 106
1, 51117, Control_c, 0, 67, 102
1, 51132, Control_c, 0, 67, 97
1, 51147, Control_c, 0, 67, 93
1, 51154, Note_off_c, 0, 77, 16
1, 51162, Control_c, 0, 67, 90
1, 51166, Note_on_c, 0, 73, 46
1, 51177, Control_c, 0, 67, 88
1, 51192, Control_c, 0, 67, 85
1, 51204, Note_off_c, 0, 73, 65
1, 51206, Control_c, 0, 67, 83
1, 51221, Control_c, 0, 67, 82
1, 51236, Control_c, 0, 67, 81
1, 51251, Control_c, 0, 67, 79
1, 51272, Control_c, 0, 67, 70
1, 51274, Note_off_c, 0, 88, 0
1, 51287, Control_c, 0, 67, 35
1, 51288, Note_on_c, 0, 87, 94
1, 51299, Note_off_c, 0, 93, 66
1, 51302, Control_c, 0, 67, 0
1, 51308, Note_on_c, 0, 65, 113
1, 51312, Poly_aftertouch_c, 0, 88, 0
1, 51317, Note_on_c, 0, 59, 87
1, 51329, Note_off_c, 0, 87, 66
1, 51335, Note_off_c, 0, 59, 73
1, 51335, Note_off_c, 0, 65, 70
1, 51399, Note_on_c, 0, 65, 98
1, 51400, Note_on_c, 0, 59, 84
1, 51415, Note_off_c, 0, 59, 74
1, 51417, Note_off_c, 0, 65, 71
1, 51469, Note_on_c, 0, 65, 89
1, 51481, Note_on_c, 0, 59, 67
1, 51489, Note_on_c, 0, 60, 60
1, 51495, Note_off_c, 0, 65, 62
1, 51502, Note_off_c, 0, 59, 71
1, 51510, Note_off_c, 0, 60, 61
1, 51543, Note_on_c, 0, 65, 93
1, 51547, Note_on_c, 0, 59, 82
1, 51611, Note_on_c, 0, 86, 85
1, 51614, Note_on_c, 0, 72, 83
1, 51614, Note_on_c, 0, 84, 84
1, 51617, Note_on_c, 0, 74, 76
1, 51630, Note_off_c, 0, 86, 72
1, 51633, Note_off_c, 0, 84, 73
1, 51634, Note_off_c, 0, 72, 72
1, 51642, Note_off_c, 0, 74, 68
1, 51675, Control_c, 0, 64, 99
1, 51684, Note_on_c, 0, 72, 104
1, 51689, Control_c, 0, 64, 63
1, 51690, Note_on_c, 0, 84, 95
1, 51693, Note_on_c, 0, 83, 91
1, 51704, Control_c, 0, 64, 0
1, 51764, Note_off_c, 0, 84, 64
1, 51867, Control_c, 0, 64, 33
1, 51882, Control_c, 0, 64, 51
1, 51896, Control_c, 0, 64, 60
1, 51911, Control_c, 0, 64, 67
1, 51926, Control_c, 0, 64, 75
1, 51941, Control_c, 0, 64, 94
1, 51946, Note_off_c, 0, 72, 0
1, 51955, Control_c, 0, 64, 127
1, 51983, Poly_aftertouch_c, 0, 72, 127
1, 52041, Poly_aftertouch_c, 0, 72, 0
1, 52049, Note_off_c, 0, 65, 57
1, 52052, Note_off_c, 0, 83, 62
1, 52055, Note_on_c, 0, 82, 77
1, 52078, Note_off_c, 0, 59, 63
1, 52134, Note_on_c, 0, 84, 74
1, 52147, Note_off_c, 0, 82, 63
1, 52190, Note_off_c, 0, 84, 63
1, 52192, Note_on_c, 0, 81, 75
1, 52250, Note_on_c, 0, 73, 71
1, 52274, Note_on_c, 0, 60, 90
1, 52283, Note_on_c, 0, 48, 73
1, 52295, Note_off_c, 0, 60, 69
1, 52298, Note_on_c, 0, 80, 82
1, 52301, Note_off_c, 0, 48, 65
1, 52301, Note_off_c, 0, 73, 66
1, 52317, Note_off_c, 0, 81, 63
1, 52333, Control_c, 0, 64, 95
1, 52348, Control_c, 0, 64, 66
1, 52350, Note_on_c, 0, 59, 102
1, 52354, Note_on_c, 0, 47, 96
1, 52360, Note_off_c, 0, 80, 67
1, 52361, Note_on_c, 0, 86, 99
1, 52363, Control_c, 0, 64, 0
1, 52389, Note_off_c, 0, 47, 66
1, 52398, Note_off_c, 0, 59, 67
1, 52408, Control_c, 0, 64, 46
1, 52420, Note_on_c, 0, 79, 69
1, 52422, Control_c, 0, 64, 65
1, 52429, Note_off_c, 0, 86, 66
1, 52437, Control_c, 0, 64, 80
1, 52452, Control_c, 0, 64, 127
1, 52458, Note_on_c, 0, 82, 54
1, 52483, Note_off_c, 0, 79, 66
1, 52500, Note_on_c, 0, 75, 81
1, 52527, Note_off_c, 0, 82, 48
1, 52554, Note_off_c, 0, 75, 64
1, 52560, Note_on_c, 0, 78, 74
1, 52582, Note_off_c, 0, 78, 68
1, 52602, Note_on_c, 0, 88, 81
1, 52667, Note_on_c, 0, 77, 83
1, 52705, Note_off_c, 0, 88, 64
1, 52712, Note_off_c, 0, 77, 64
1, 52749, Control_c, 0, 64, 97
1, 52763, Note_on_c, 0, 83, 106
1, 52772, Control_c, 0, 64, 60
1, 52779, Note_on_c, 0, 79, 113
1, 52786, Control_c, 0, 64, 0
1, 52804, Note_off_c, 0, 79, 64
1, 52860, Note_on_c, 0, 79, 101
1, 52861, Control_c, 0, 64, 31
1, 52875, Control_c, 0, 64, 60
1, 52890, Control_c, 0, 64, 70
1, 52895, Note_off_c, 0, 79, 66
1, 52905, Control_c, 0, 64, 86
1, 52919, Control_c, 0, 64, 127
1, 52950, Note_on_c, 0, 79, 95
1, 52975, Note_off_c, 0, 79, 67
1, 53034, Note_on_c, 0, 79, 98
1, 53055, Note_off_c, 0, 79, 67
1, 53265, Note_on_c, 0, 76, 66
1, 53297, Note_off_c, 0, 83, 47
1, 53330, Note_off_c, 0, 76, 61
1, 53386, Note_on_c, 0, 77, 58
1, 53421, Note_off_c, 0, 77, 64
1, 53484, Note_on_c, 0, 80, 52
1, 53519, Note_on_c, 0, 88, 71
1, 53555, Note_off_c, 0, 88, 63
1, 53562, Note_off_c, 0, 80, 63
1, 53576, Note_on_c, 0, 87, 74
1, 53582, Note_on_c, 0, 91, 70
1, 53642, Note_off_c, 0, 91, 63
1, 53655, Note_on_c, 0, 88, 68
1, 53671, Note_on_c, 0, 82, 33
1, 53672, Note_off_c, 0, 82, 127
1, 53675, Note_off_c, 0, 87, 64
1, 53682, Note_off_c, 0, 88, 68
1, 53698, Control_c, 0, 64, 77
1, 53713, Control_c, 0, 64, 58
1, 53716, Note_on_c, 0, 91, 103
1, 53717, Note_on_c, 0, 79, 103
1, 53728, Control_c, 0, 64, 42
1, 53742, Note_off_c, 0, 91, 70
1, 53742, Control_c, 0, 64, 54
1, 53757, Control_c, 0, 64, 62
1, 53765, Note_off_c, 0, 79, 66
1, 53772, Control_c, 0, 64, 69
1, 53787, Control_c, 0, 64, 88
1, 53802, Control_c, 0, 64, 127
1, 53894, Note_on_c, 0, 79, 83
1, 53920, Note_off_c, 0, 79, 60
1, 53983, Note_on_c, 0, 79, 74
1, 54008, Note_off_c, 0, 79, 70
1, 54064, Note_on_c, 0, 79, 78
1, 54111, Note_off_c, 0, 79, 63
1, 54160, Note_on_c, 0, 73, 119
1, 54185, Note_off_c, 0, 73, 69
1, 54252, Note_on_c, 0, 73, 101
1, 54262, Note_on_c, 0, 76, 76
1, 54289, Note_off_c, 0, 73, 57
1, 54317, Note_off_c, 0, 76, 62
1, 54343, Note_on_c, 0, 77, 73
1, 54355, Note_on_c, 0, 73, 76
1, 54372, Note_off_c, 0, 77, 63
1, 54391, Note_off_c, 0, 73, 59
1, 54403, Note_on_c, 0, 80, 72
1, 54438, Note_off_c, 0, 80, 61
1, 54491, Note_on_c, 0, 87, 65
1, 54514, Note_on_c, 0, 68, 70
1, 54540, Note_on_c, 0, 73, 41
1, 54540, Note_on_c, 0, 82, 75
1, 54563, Note_off_c, 0, 82, 69
1, 54563, Note_off_c, 0, 87, 64
1, 54573, Note_off_c, 0, 73, 62
1, 54603, Note_on_c, 0, 78, 91
1, 54616, Note_on_c, 0, 79, 104
1, 54620, Note_off_c, 0, 68, 60
1, 54647, Note_on_c, 0, 81, 39
1, 54648, Note_off_c, 0, 81, 127
1, 54650, Note_off_c, 0, 79, 67
1, 54652, Note_off_c, 0, 78, 64
1, 54727, Note_on_c, 0, 79, 101
1, 54757, Note_off_c, 0, 79, 65
1, 54774, Note_on_c, 0, 76, 37
1, 54813, Note_on_c, 0, 79, 92
1, 54843, Note_off_c, 0, 76, 33
1, 54844, Note_off_c, 0, 79, 64
1, 54882, Note_on_c, 0, 79, 81
1, 54903, Note_off_c, 0, 79, 71
1, 54935, Note_on_c, 0, 77, 7
1, 54936, Note_off_c, 0, 77, 127
1, 54943, Note_on_c, 0, 73, 120
1, 54969, Note_on_c, 0, 74, 57
1, 54970, Note_off_c, 0, 74, 127
1, 54975, Note_off_c, 0, 73, 65
1, 55013, Note_on_c, 0, 64, 76
1, 55049, Note_off_c, 0, 64, 55
1, 55050, Note_on_c, 0, 65, 57
1, 55050, Note_on_c, 0, 73, 82
1, 55063, Note_off_c, 0, 73, 70
1, 55091, Note_on_c, 0, 68, 91
1, 55106, Note_off_c, 0, 65, 64
1, 55134, Note_off_c, 0, 68, 65
1, 55180, Note_on_c, 0, 76, 87
1, 55186, Note_on_c, 0, 75, 54
1, 55201, Note_off_c, 0, 76, 69
1, 55207, Note_on_c, 0, 70, 33
1, 55209, Note_on_c, 0, 56, 83
1, 55216, Note_off_c, 0, 75, 50
1, 55240, Note_off_c, 0, 70, 52
1, 55272, Note_on_c, 0, 67, 111
1, 55296, Note_on_c, 0, 66, 81
1, 55298, Note_off_c, 0, 67, 71
1, 55310, Note_off_c, 0, 56, 61
1, 55355, Note_on_c, 0, 67, 108
1, 55362, Note_off_c, 0, 66, 66
1, 55385, Note_off_c, 0, 67, 67
1, 55438, Note_on_c, 0, 67, 105
1, 55464, Note_off_c, 0, 67, 65
1, 55469, Note_on_c, 0, 64, 48
1, 55487, Note_on_c, 0, 65, 15
1, 55493, Note_off_c, 0, 64, 59
1, 55514, Note_on_c, 0, 67, 98
1, 55532, Note_off_c, 0, 67, 71
1, 55534, Note_off_c, 0, 65, 40
1, 55554, Note_on_c, 0, 61, 113
1, 55576, Note_on_c, 0, 62, 65
1, 55577, Note_off_c, 0, 62, 127
1, 55585, Note_off_c, 0, 61, 67
1, 55598, Poly_aftertouch_c, 0, 62, 0
1, 55630, Note_on_c, 0, 53, 83
1, 55636, Note_on_c, 0, 54, 79
1, 55636, Note_on_c, 0, 61, 103
1, 55660, Note_off_c, 0, 61, 64
1, 55667, Note_off_c, 0, 54, 69
1, 55671, Note_off_c, 0, 53, 0
1, 55708, Note_on_c, 0, 61, 96
1, 55715, Poly_aftertouch_c, 0, 53, 0
1, 55721, Note_on_c, 0, 56, 83
1, 55739, Note_off_c, 0, 61, 66
1, 55744, Note_off_c, 0, 56, 71
1, 55794, Note_on_c, 0, 63, 79
1, 55823, Note_on_c, 0, 58, 87
1, 55839, Note_on_c, 0, 62, 40
1, 55843, Note_off_c, 0, 63, 60
1, 55868, Note_off_c, 0, 58, 65
1, 55869, Note_off_c, 0, 62, 53
1, 55899, Control_c, 0, 64, 81
1, 55908, Note_on_c, 0, 44, 101
1, 55914, Control_c, 0, 64, 47
1, 55916, Note_on_c, 0, 56, 92
1, 55916, Note_on_c, 0, 32, 89
1, 55923, Note_on_c, 0, 50, 96
1, 55924, Note_on_c, 0, 53, 84
1, 55928, Control_c, 0, 64, 0
1, 55934, Note_on_c, 0, 42, 57
1, 55935, Note_off_c, 0, 42, 127
1, 55937, Note_off_c, 0, 56, 72
1, 55939, Note_on_c, 0, 51, 58
1, 55940, Note_off_c, 0, 51, 127
1, 55940, Note_off_c, 0, 32, 68
1, 55941, Note_on_c, 0, 55, 70
1, 55943, Note_off_c, 0, 44, 67
1, 55943, Control_c, 0, 64, 21
1, 55958, Control_c, 0, 64, 54
1, 55960, Note_on_c, 0, 57, 25
1, 55961, Note_off_c, 0, 57, 127
1, 55973, Control_c, 0, 64, 65
1, 55986, Note_off_c, 0, 55, 66
1, 55988, Control_c, 0, 64, 76
1, 56003, Control_c, 0, 64, 127
1, 56005, Note_off_c, 0, 50, 61
1, 56035, Note_off_c, 0, 53, 66
1, 56054, Poly_aftertouch_c, 0, 32, 127
1, 56072, Note_on_c, 0, 51, 82
1, 56079, Note_on_c, 0, 53, 81
1, 56092, Poly_aftertouch_c, 0, 32, 0
1, 56099, Note_on_c, 0, 44, 50
1, 56101, Note_off_c, 0, 53, 72
1, 56120, Note_off_c, 0, 51, 64
1, 56125, Note_off_c, 0, 44, 57
1, 56158, Note_on_c, 0, 51, 75
1, 56170, Note_on_c, 0, 44, 71
1, 56170, Note_on_c, 0, 53, 68
1, 56174, Note_on_c, 0, 55, 68
1, 56192, Note_off_c, 0, 55, 67
1, 56200, Note_off_c, 0, 44, 64
1, 56200, Note_off_c, 0, 53, 65
1, 56202, Note_off_c, 0, 51, 56
1, 56246, Note_on_c, 0, 55, 78
1, 56251, Note_on_c, 0, 52, 59
1, 56255, Note_on_c, 0, 44, 69
1, 56268, Note_on_c, 0, 49, 60
1, 56271, Note_on_c, 0, 72, 100
1, 56271, Note_on_c, 0, 60, 101
1, 56298, Note_off_c, 0, 72, 65
1, 56299, Note_off_c, 0, 60, 65
1, 56314, Control_c, 0, 64, 80
1, 56328, Control_c, 0, 64, 42
1, 56343, Control_c, 0, 64, 0
1, 56346, Note_on_c, 0, 59, 105
1, 56347, Note_on_c, 0, 71, 105
1, 56545, Control_c, 0, 64, 53
1, 56559, Control_c, 0, 64, 65
1, 56574, Control_c, 0, 64, 72
1, 56589, Control_c, 0, 64, 84
1, 56590, Note_off_c, 0, 44, 60
1, 56604, Control_c, 0, 64, 119
1, 56619, Control_c, 0, 64, 127
1, 56641, Note_off_c, 0, 55, 59
1, 56643, Note_off_c, 0, 49, 46
1, 56653, Note_off_c, 0, 52, 64
1, 56778, Note_off_c, 0, 59, 59
1, 56856, Note_off_c, 0, 71, 55
1, 56864, Note_on_c, 0, 66, 84
1, 56869, Note_on_c, 0, 63, 81
1, 56892, Note_off_c, 0, 66, 61
1, 56900, Note_off_c, 0, 63, 58
1, 56921, Note_on_c, 0, 64, 83
1, 56928, Note_on_c, 0, 67, 95
1, 56970, Note_off_c, 0, 64, 62
1, 56998, Note_on_c, 0, 71, 95
1, 57031, Note_off_c, 0, 67, 61
1, 57071, Note_off_c, 0, 71, 61
1, 57072, Note_on_c, 0, 75, 107
1, 57083, Note_on_c, 0, 70, 80
1, 57133, Note_on_c, 0, 71, 88
1, 57142, Note_on_c, 0, 65, 90
1, 57154, Note_off_c, 0, 75, 56
1, 57180, Poly_aftertouch_c, 0, 66, 0
1, 57237, Note_on_c, 0, 67, 84
1, 57252, Note_on_c, 0, 64, 73
1, 57276, Note_off_c, 0, 71, 54
1, 57298, Note_on_c, 0, 63, 84
1, 57298, Note_off_c, 0, 65, 64
1, 57300, Note_off_c, 0, 64, 65
1, 57301, Note_on_c, 0, 66, 68
1, 57303, Note_off_c, 0, 70, 65
1, 57328, Note_off_c, 0, 66, 68
1, 57329, Note_off_c, 0, 63, 62
1, 57331, Note_off_c, 0, 67, 64
1, 57441, Control_c, 0, 64, 84
1, 57456, Note_on_c, 0, 48, 100
1, 57456, Control_c, 0, 64, 59
1, 57457, Note_on_c, 0, 55, 93
1, 57463, Note_on_c, 0, 44, 97
1, 57467, Note_on_c, 0, 32, 93
1, 57471, Control_c, 0, 64, 0
1, 57478, Note_on_c, 0, 52, 70
1, 57493, Note_off_c, 0, 32, 68
1, 57496, Note_off_c, 0, 44, 62
1, 57501, Control_c, 0, 64, 39
1, 57514, Note_off_c, 0, 48, 65
1, 57515, Control_c, 0, 64, 59
1, 57517, Note_off_c, 0, 55, 68
1, 57530, Control_c, 0, 64, 69
1, 57542, Note_off_c, 0, 52, 66
1, 57545, Control_c, 0, 64, 85
1, 57560, Control_c, 0, 64, 127
1, 57613, Note_on_c, 0, 55, 80
1, 57616, Note_on_c, 0, 49, 56
1, 57622, Note_on_c, 0, 44, 61
1, 57633, Note_on_c, 0, 52, 54
1, 57635, Note_off_c, 0, 55, 70
1, 57644, Note_off_c, 0, 49, 56
1, 57645, Note_off_c, 0, 44, 62
1, 57654, Note_off_c, 0, 52, 61
1, 57683, Note_on_c, 0, 55, 86
1, 57687, Note_on_c, 0, 44, 70
1, 57693, Note_on_c, 0, 48, 50
1, 57696, Note_on_c, 0, 52, 71
1, 57719, Note_off_c, 0, 52, 70
1, 57720, Note_off_c, 0, 48, 66
1, 57721, Note_off_c, 0, 44, 63
1, 57723, Note_off_c, 0, 55, 51
1, 57777, Note_on_c, 0, 44, 65
1, 57778, Note_on_c, 0, 52, 66
1, 57780, Note_on_c, 0, 55, 71
1, 57782, Control_c, 0, 64, 113
1, 57794, Note_on_c, 0, 48, 64
1, 57797, Control_c, 0, 64, 90
1, 57797, Note_on_c, 0, 72, 95
1, 57799, Note_on_c, 0, 60, 91
1, 57812, Control_c, 0, 64, 67
1, 57814, Note_off_c, 0, 72, 74
1, 57818, Note_off_c, 0, 60, 71
1, 57827, Control_c, 0, 64, 0
1, 57868, Note_on_c, 0, 71, 106
1, 57869, Note_on_c, 0, 59, 97
1, 58220, Control_c, 0, 64, 50
1, 58235, Control_c, 0, 64, 69
1, 58243, Note_off_c, 0, 48, 59
1, 58249, Note_off_c, 0, 44, 64
1, 58250, Control_c, 0, 64, 84
1, 58253, Note_off_c, 0, 52, 65
1, 58265, Control_c, 0, 64, 127
1, 58276, Note_off_c, 0, 55, 54
1, 58309, Note_off_c, 0, 59, 61
1, 58373, Note_off_c, 0, 71, 53
1, 58376, Note_on_c, 0, 63, 88
1, 58379, Note_on_c, 0, 66, 82
1, 58397, Note_off_c, 0, 63, 69
1, 58402, Note_off_c, 0, 66, 69
1, 58442, Note_on_c, 0, 64, 78
1, 58453, Note_on_c, 0, 67, 79
1, 58503, Note_off_c, 0, 64, 57
1, 58531, Note_on_c, 0, 71, 87
1, 58581, Note_off_c, 0, 67, 62
1, 58604, Note_off_c, 0, 71, 60
1, 58611, Note_on_c, 0, 75, 99
1, 58620, Note_on_c, 0, 70, 83
1, 58638, Note_on_c, 0, 73, 54
1, 58656, Note_off_c, 0, 75, 57
1, 58660, Note_off_c, 0, 73, 62
1, 58698, Note_on_c, 0, 65, 92
1, 58699, Note_on_c, 0, 71, 88
1, 58784, Note_on_c, 0, 67, 81
1, 58802, Note_on_c, 0, 64, 51
1, 58802, Note_off_c, 0, 71, 58
1, 58810, Note_off_c, 0, 65, 59
1, 58825, Note_off_c, 0, 64, 62
1, 58844, Note_off_c, 0, 70, 43
1, 58864, Note_on_c, 0, 66, 77
1, 58873, Note_on_c, 0, 63, 79
1, 58879, Note_off_c, 0, 67, 60
1, 58901, Note_off_c, 0, 63, 66
1, 58904, Note_off_c, 0, 66, 61
1, 58999, Control_c, 0, 64, 70
1, 59014, Control_c, 0, 64, 0
1, 59022, Note_on_c, 0, 55, 95
1, 59026, Note_on_c, 0, 52, 77
1, 59028, Note_on_c, 0, 44, 87
1, 59031, Note_on_c, 0, 49, 72
1, 59048, Note_on_c, 0, 53, 47
1, 59049, Note_off_c, 0, 53, 127
1, 59049, Note_off_c, 0, 55, 66
1, 59052, Note_off_c, 0, 52, 68
1, 59056, Note_off_c, 0, 49, 66
1, 59058, Note_off_c, 0, 44, 65
1, 59058, Control_c, 0, 64, 35
1, 59073, Control_c, 0, 64, 61
1, 59088, Control_c, 0, 64, 74
1, 59103, Control_c, 0, 64, 101
1, 59105, Note_on_c, 0, 51, 91
1, 59106, Note_on_c, 0, 44, 76
1, 59117, Note_on_c, 0, 49, 64
1, 59118, Control_c, 0, 64, 127
1, 59127, Note_on_c, 0, 55, 58
1, 59139, Note_off_c, 0, 49, 63
1, 59147, Note_off_c, 0, 44, 62
1, 59148, Note_off_c, 0, 51, 66
1, 59152, Note_off_c, 0, 55, 60
1, 59198, Note_on_c, 0, 44, 77
1, 59201, Note_on_c, 0, 49, 70
1, 59204, Note_on_c, 0, 55, 80
1, 59207, Control_c, 0, 64, 111
1, 59208, Note_on_c, 0, 52, 67
1, 59222, Control_c, 0, 64, 80
1, 59227, Note_off_c, 0, 55, 67
1, 59228, Note_off_c, 0, 49, 63
1, 59231, Note_off_c, 0, 44, 61
1, 59234, Note_off_c, 0, 52, 69
1, 59236, Control_c, 0, 64, 61
1, 59251, Control_c, 0, 64, 0
1, 59281, Note_on_c, 0, 44, 64
1, 59288, Note_on_c, 0, 52, 72
1, 59289, Note_on_c, 0, 55, 68
1, 59297, Note_on_c, 0, 49, 59
1, 59347, Note_on_c, 0, 87, 91
1, 59350, Note_on_c, 0, 80, 71
1, 59364, Note_off_c, 0, 80, 69
1, 59372, Note_off_c, 0, 87, 66
1, 59419, Note_on_c, 0, 79, 78
1, 59421, Note_on_c, 0, 88, 88
1, 59428, Note_on_c, 0, 87, 71
1, 59452, Note_off_c, 0, 79, 66
1, 59453, Note_off_c, 0, 87, 69
1, 59467, Note_off_c, 0, 88, 66
1, 59515, Note_on_c, 0, 89, 63
1, 59523, Note_on_c, 0, 88, 70
1, 59541, Note_on_c, 0, 78, 67
1, 59570, Note_off_c, 0, 88, 59
1, 59577, Note_on_c, 0, 90, 95
1, 59583, Note_on_c, 0, 77, 67
1, 59601, Note_off_c, 0, 78, 66
1, 59601, Note_off_c, 0, 89, 62
1, 59618, Note_off_c, 0, 77, 64
1, 59629, Note_off_c, 0, 90, 66
1, 59704, Control_c, 0, 64, 26
1, 59719, Control_c, 0, 64, 54
1, 59725, Note_off_c, 0, 55, 57
1, 59733, Control_c, 0, 64, 65
1, 59748, Control_c, 0, 64, 72
1, 59750, Note_off_c, 0, 52, 55
1, 59758, Note_off_c, 0, 44, 59
1, 59763, Control_c, 0, 64, 85
1, 59777, Control_c, 0, 64, 127
1, 59801, Note_off_c, 0, 49, 52
1, 59853, Note_on_c, 0, 44, 86
1, 59853, Note_on_c, 0, 55, 85
1, 59858, Note_on_c, 0, 52, 88
1, 59859, Note_on_c, 0, 48, 74
1, 59860, Note_on_c, 0, 51, 58
1, 59877, Note_off_c, 0, 55, 68
1, 59879, Note_off_c, 0, 44, 67
1, 59882, Note_off_c, 0, 52, 71
1, 59885, Note_off_c, 0, 48, 66
1, 59886, Note_off_c, 0, 51, 63
1, 59896, Control_c, 0, 64, 84
1, 59911, Control_c, 0, 64, 62
1, 59926, Control_c, 0, 64, 0
1, 59927, Note_on_c, 0, 44, 85
1, 59931, Note_on_c, 0, 55, 84
1, 59935, Note_on_c, 0, 48, 76
1, 59935, Note_on_c, 0, 52, 76
1, 59956, Note_off_c, 0, 55, 67
1, 59961, Note_off_c, 0, 52, 70
1, 59965, Note_off_c, 0, 48, 65
1, 59971, Note_off_c, 0, 44, 55
1, 60003, Note_on_c, 0, 44, 62
1, 60018, Note_on_c, 0, 52, 73
1, 60018, Note_on_c, 0, 55, 72
1, 60022, Note_on_c, 0, 48, 62
1, 60046, Note_off_c, 0, 55, 65
1, 60049, Note_off_c, 0, 52, 65
1, 60054, Note_off_c, 0, 48, 63
1, 60058, Note_off_c, 0, 44, 0
1, 60096, Poly_aftertouch_c, 0, 44, 127
1, 60111, Note_on_c, 0, 48, 56
1, 60119, Poly_aftertouch_c, 0, 52, 127
1, 60191, Note_on_c, 0, 73, 85
1, 60191, Note_on_c, 0, 80, 80
1, 60229, Note_off_c, 0, 73, 66
1, 60248, Note_off_c, 0, 80, 64
1, 60278, Note_on_c, 0, 81, 93
1, 60289, Note_on_c, 0, 72, 80
1, 60313, Note_off_c, 0, 72, 66
1, 60321, Note_off_c, 0, 81, 66
1, 60362, Note_on_c, 0, 80, 49
1, 60367, Note_on_c, 0, 82, 93
1, 60370, Note_on_c, 0, 71, 90
1, 60401, Note_off_c, 0, 80, 66
1, 60404, Note_off_c, 0, 71, 66
1, 60440, Note_on_c, 0, 81, 77
1, 60441, Note_on_c, 0, 70, 87
1, 60441, Note_on_c, 0, 83, 96
1, 60471, Note_off_c, 0, 82, 30
1, 60474, Note_off_c, 0, 70, 60
1, 60477, Note_off_c, 0, 83, 65
1, 60495, Note_off_c, 0, 81, 64
1, 60556, Control_c, 0, 64, 23
1, 60558, Poly_aftertouch_c, 0, 55, 0
1, 60571, Control_c, 0, 64, 51
1, 60583, Poly_aftertouch_c, 0, 44, 0
1, 60583, Poly_aftertouch_c, 0, 52, 0
1, 60586, Control_c, 0, 64, 62
1, 60594, Note_off_c, 0, 48, 60
1, 60600, Control_c, 0, 64, 66
1, 60615, Control_c, 0, 64, 71
1, 60630, Control_c, 0, 64, 78
1, 60645, Control_c, 0, 64, 89
1, 60660, Control_c, 0, 64, 127
1, 60674, Note_on_c, 0, 55, 99
1, 60676, Note_on_c, 0, 52, 94
1, 60678, Note_on_c, 0, 44, 87
1, 60685, Note_on_c, 0, 49, 73
1, 60689, Control_c, 0, 64, 98
1, 60696, Note_off_c, 0, 55, 69
1, 60701, Note_off_c, 0, 52, 67
1, 60704, Control_c, 0, 64, 69
1, 60706, Note_off_c, 0, 44, 68
1, 60713, Note_off_c, 0, 49, 67
1, 60719, Control_c, 0, 64, 20
1, 60734, Control_c, 0, 64, 0
1, 60761, Note_on_c, 0, 44, 75
1, 60762, Note_on_c, 0, 49, 77
1, 60762, Note_on_c, 0, 55, 84
1, 60766, Note_on_c, 0, 52, 81
1, 60784, Note_off_c, 0, 55, 70
1, 60790, Note_off_c, 0, 52, 67
1, 60793, Note_off_c, 0, 44, 66
1, 60794, Note_off_c, 0, 49, 65
1, 60838, Note_on_c, 0, 55, 81
1, 60842, Note_on_c, 0, 52, 75
1, 60846, Note_on_c, 0, 49, 57
1, 60847, Note_on_c, 0, 44, 64
1, 60868, Note_off_c, 0, 55, 59
1, 60870, Note_off_c, 0, 52, 69
1, 60878, Note_off_c, 0, 49, 62
1, 60880, Note_off_c, 0, 44, 65
1, 60929, Note_on_c, 0, 44, 47
1, 60930, Note_on_c, 0, 55, 60
1, 60935, Note_on_c, 0, 52, 67
1, 60951, Poly_aftertouch_c, 0, 49, 127
1, 61016, Note_on_c, 0, 75, 80
1, 61020, Note_on_c, 0, 68, 77
1, 61050, Note_off_c, 0, 68, 65
1, 61087, Note_on_c, 0, 67, 84
1, 61088, Note_on_c, 0, 76, 87
1, 61094, Note_off_c, 0, 75, 0
1, 61109, Note_on_c, 0, 75, 30
1, 61115, Note_off_c, 0, 67, 64
1, 61130, Note_off_c, 0, 75, 49
1, 61136, Note_off_c, 0, 76, 62
1, 61165, Note_on_c, 0, 77, 78
1, 61175, Note_on_c, 0, 66, 87
1, 61204, Note_on_c, 0, 76, 17
1, 61205, Note_off_c, 0, 77, 62
1, 61218, Note_off_c, 0, 66, 58
1, 61242, Note_on_c, 0, 78, 92
1, 61249, Note_on_c, 0, 65, 75
1, 61273, Note_off_c, 0, 76, 57
1, 61284, Note_off_c, 0, 78, 66
1, 61287, Note_off_c, 0, 65, 62
1, 61379, Control_c, 0, 64, 19
1, 61394, Control_c, 0, 64, 32
1, 61395, Note_off_c, 0, 52, 42
1, 61401, Note_off_c, 0, 55, 49
1, 61403, Note_off_c, 0, 44, 52
1, 61409, Control_c, 0, 64, 41
1, 61410, Poly_aftertouch_c, 0, 49, 0
1, 61423, Control_c, 0, 64, 44
1, 61438, Control_c, 0, 64, 46
1, 61453, Control_c, 0, 64, 48
1, 61468, Control_c, 0, 64, 50
1, 61497, Control_c, 0, 64, 47
1, 61498, Note_on_c, 0, 55, 96
1, 61500, Note_on_c, 0, 44, 87
1, 61500, Note_on_c, 0, 52, 84
1, 61509, Note_on_c, 0, 48, 70
1, 61512, Control_c, 0, 64, 41
1, 61521, Note_off_c, 0, 55, 68
1, 61525, Note_off_c, 0, 52, 70
1, 61527, Control_c, 0, 64, 30
1, 61530, Note_off_c, 0, 44, 64
1, 61541, Note_off_c, 0, 48, 65
1, 61542, Control_c, 0, 64, 9
1, 61556, Control_c, 0, 64, 0
1, 61571, Note_on_c, 0, 44, 81
1, 61576, Note_on_c, 0, 55, 80
1, 61580, Note_on_c, 0, 52, 78
1, 61599, Note_off_c, 0, 55, 70
1, 61600, Note_on_c, 0, 48, 58
1, 61604, Note_off_c, 0, 52, 70
1, 61623, Note_off_c, 0, 48, 59
1, 61655, Note_on_c, 0, 55, 75
1, 61661, Note_on_c, 0, 52, 75
1, 61677, Note_on_c, 0, 48, 34
1, 61685, Note_off_c, 0, 52, 68
1, 61686, Note_off_c, 0, 55, 59
1, 61731, Note_off_c, 0, 48, 0
1, 61735, Note_on_c, 0, 52, 72
1, 61753, Note_on_c, 0, 48, 40
1, 61862, Note_on_c, 0, 68, 75
1, 61865, Note_on_c, 0, 61, 66
1, 61893, Note_off_c, 0, 61, 65
1, 61938, Note_on_c, 0, 69, 79
1, 61943, Note_on_c, 0, 60, 76
1, 61971, Note_off_c, 0, 69, 66
1, 61974, Note_off_c, 0, 60, 65
1, 61974, Note_off_c, 0, 68, 27
1, 62021, Note_on_c, 0, 70, 84
1, 62026, Note_on_c, 0, 59, 81
1, 62048, Note_off_c, 0, 59, 70
1, 62091, Note_on_c, 0, 71, 90
1, 62093, Note_on_c, 0, 58, 83
1, 62094, Note_off_c, 0, 70, 64
1, 62153, Note_off_c, 0, 58, 62
1, 62159, Note_off_c, 0, 71, 61
1, 62275, Control_c, 0, 64, 9
1, 62290, Control_c, 0, 64, 20
1, 62305, Control_c, 0, 64, 24
1, 62319, Control_c, 0, 64, 26
1, 62334, Control_c, 0, 64, 33
1, 62349, Control_c, 0, 64, 39
1, 62364, Control_c, 0, 64, 42
1, 62379, Control_c, 0, 64, 43
1, 62394, Control_c, 0, 64, 45
1, 62409, Control_c, 0, 64, 46
1, 62424, Control_c, 0, 64, 48
1, 62439, Control_c, 0, 64, 50
1, 62454, Control_c, 0, 64, 52
1, 62469, Control_c, 0, 64, 53
1, 62483, Control_c, 0, 64, 54
1, 62501, Poly_aftertouch_c, 0, 55, 0
1, 62506, Control_c, 0, 64, 54
1, 62550, Control_c, 0, 64, 54
1, 62565, Control_c, 0, 64, 53
1, 62567, Note_off_c, 0, 48, 40
1, 62579, Control_c, 0, 64, 52
1, 62594, Control_c, 0, 64, 51
1, 62609, Control_c, 0, 64, 50
1, 62624, Control_c, 0, 64, 49
1, 62639, Control_c, 0, 64, 48
1, 62653, Control_c, 0, 64, 47
1, 62668, Control_c, 0, 64, 46
1, 62675, Note_off_c, 0, 52, 34
1, 62683, Control_c, 0, 64, 45
1, 62698, Control_c, 0, 64, 43
1, 62713, Control_c, 0, 64, 42
1, 62728, Control_c, 0, 64, 40
1, 62743, Control_c, 0, 64, 39
1, 62749, Note_off_c, 0, 44, 35
1, 62758, Control_c, 0, 64, 37
1, 62769, Note_on_c, 0, 55, 36
1, 62772, Control_c, 0, 64, 35
1, 62779, Note_on_c, 0, 48, 40
1, 62787, Control_c, 0, 64, 33
1, 62802, Control_c, 0, 64, 30
1, 62817, Control_c, 0, 64, 28
1, 62829, Note_off_c, 0, 48, 57
1, 62831, Note_off_c, 0, 55, 58
1, 62832, Control_c, 0, 64, 27
1, 62847, Control_c, 0, 67, 38
1, 62862, Control_c, 0, 67, 74
1, 62877, Control_c, 0, 64, 29
1, 62877, Control_c, 0, 67, 112
1, 62892, Control_c, 0, 64, 33
1, 62892, Control_c, 0, 67, 127
1, 62901, Note_on_c, 0, 55, 42
1, 62904, Note_on_c, 0, 48, 42
1, 62907, Control_c, 0, 64, 40
1, 62922, Control_c, 0, 64, 45
1, 62937, Control_c, 0, 64, 47
1, 62941, Note_off_c, 0, 55, 61
1, 62951, Control_c, 0, 64, 48
1, 62953, Note_off_c, 0, 48, 53
1, 62966, Control_c, 0, 64, 49
1, 63001, Note_on_c, 0, 48, 40
1, 63004, Note_on_c, 0, 55, 55
1, 63035, Note_on_c, 0, 63, 60
1, 63044, Note_off_c, 0, 48, 61
1, 63056, Control_c, 0, 64, 49
1, 63063, Note_on_c, 0, 60, 32
1, 63085, Control_c, 0, 64, 48
1, 63100, Control_c, 0, 64, 47
1, 63114, Note_off_c, 0, 55, 61
1, 63115, Control_c, 0, 64, 47
1, 63124, Note_on_c, 0, 48, 42
1, 63144, Control_c, 0, 64, 46
1, 63154, Note_off_c, 0, 48, 49
1, 63159, Control_c, 0, 64, 46
1, 63174, Control_c, 0, 64, 45
1, 63188, Control_c, 0, 64, 43
1, 63203, Control_c, 0, 64, 41
1, 63218, Control_c, 0, 64, 40
1, 63233, Control_c, 0, 64, 38
1, 63255, Control_c, 0, 64, 38
1, 63281, Note_on_c, 0, 65, 50
1, 63281, Note_off_c, 0, 60, 59
1, 63283, Note_on_c, 0, 68, 59
1, 63285, Control_c, 0, 64, 39
1, 63300, Control_c, 0, 64, 43
1, 63312, Note_on_c, 0, 36, 33
1, 63315, Control_c, 0, 64, 47
1, 63317, Note_on_c, 0, 43, 22
1, 63330, Control_c, 0, 64, 52
1, 63344, Control_c, 0, 64, 55
1, 63354, Note_off_c, 0, 63, 53
1, 63359, Control_c, 0, 64, 60
1, 63374, Control_c, 0, 64, 63
1, 63387, Note_off_c, 0, 65, 60
1, 63389, Control_c, 0, 64, 65
1, 63403, Control_c, 0, 64, 67
1, 63418, Control_c, 0, 64, 71
1, 63424, Note_off_c, 0, 68, 61
1, 63433, Control_c, 0, 64, 77
1, 63448, Control_c, 0, 64, 85
1, 63463, Control_c, 0, 64, 99
1, 63477, Control_c, 0, 64, 127
1, 63560, Note_off_c, 0, 43, 40
1, 63580, Note_off_c, 0, 36, 40
1, 63595, Note_on_c, 0, 74, 45
1, 63613, Note_on_c, 0, 70, 55
1, 63701, Note_on_c, 0, 67, 58
1, 63849, Control_c, 0, 67, 115
1, 63852, Note_on_c, 0, 53, 55
1, 63864, Control_c, 0, 67, 96
1, 63878, Control_c, 0, 67, 73
1, 63893, Control_c, 0, 67, 53
1, 63908, Control_c, 0, 67, 33
1, 63923, Control_c, 0, 67, 11
1, 63938, Control_c, 0, 67, 0
1, 64036, Note_on_c, 0, 58, 75
1, 64137, Note_off_c, 0, 67, 62
1, 64175, Note_off_c, 0, 74, 63
1, 64184, Note_off_c, 0, 53, 62
1, 64225, Note_off_c, 0, 70, 62
1, 64311, Note_on_c, 0, 63, 70
1, 64320, Note_off_c, 0, 58, 63
1, 64389, Control_c, 0, 64, 86
1, 64390, Note_on_c, 0, 56, 71
1, 64397, Note_off_c, 0, 63, 59
1, 64404, Control_c, 0, 64, 62
1, 64418, Control_c, 0, 64, 0
1, 64424, Note_on_c, 0, 48, 56
1, 64464, Control_c, 0, 64, 30
1, 64479, Control_c, 0, 64, 59
1, 64494, Control_c, 0, 64, 70
1, 64509, Control_c, 0, 64, 89
1, 64523, Control_c, 0, 64, 127
1, 64532, Note_off_c, 0, 56, 62
1, 64564, Note_on_c, 0, 72, 73
1, 64576, Note_off_c, 0, 48, 63
1, 64583, Note_on_c, 0, 63, 47
1, 64607, Note_off_c, 0, 63, 59
1, 64785, Note_on_c, 0, 24, 54
1, 64794, Note_on_c, 0, 77, 77
1, 64811, Note_on_c, 0, 68, 45
1, 64814, Note_off_c, 0, 72, 64
1, 64867, Note_off_c, 0, 77, 63
1, 64904, Note_off_c, 0, 24, 55
1, 65040, Note_off_c, 0, 68, 33
1, 65068, Note_on_c, 0, 82, 68
1, 65081, Note_on_c, 0, 74, 61
1, 65120, Note_off_c, 0, 82, 65
1, 65175, Note_on_c, 0, 67, 79
1, 65184, Note_off_c, 0, 74, 61
1, 65236, Note_off_c, 0, 67, 61
1, 65354, Note_on_c, 0, 70, 113
1, 65386, Note_off_c, 0, 70, 72
1, 65591, Note_on_c, 0, 65, 110
1, 65737, Note_off_c, 0, 65, 57
1, 65856, Note_on_c, 0, 60, 105
1, 65879, Note_off_c, 0, 60, 67
1, 65929, Note_on_c, 0, 59, 116
1, 65929, Control_c, 0, 64, 92
1, 65944, Control_c, 0, 64, 62
1, 65947, Note_on_c, 0, 55, 71
1, 65948, Note_on_c, 0, 52, 62
1, 65950, Note_on_c, 0, 44, 70
1, 65959, Control_c, 0, 64, 0
1, 65971, Note_on_c, 0, 49, 55
1, 65985, Note_off_c, 0, 55, 61
1, 66012, Note_off_c, 0, 44, 59
1, 66013, Note_off_c, 0, 49, 59
1, 66019, Note_off_c, 0, 52, 50
1, 66056, Note_on_c, 0, 52, 47
1, 66059, Note_on_c, 0, 44, 43
1, 66061, Note_on_c, 0, 55, 62
1, 66075, Note_on_c, 0, 49, 52
1, 66079, Control_c, 0, 64, 51
1, 66093, Control_c, 0, 64, 62
1, 66102, Note_off_c, 0, 55, 61
1, 66108, Control_c, 0, 64, 68
1, 66115, Note_off_c, 0, 49, 61
1, 66117, Note_off_c, 0, 52, 59
1, 66119, Note_off_c, 0, 44, 57
1, 66123, Control_c, 0, 64, 76
1, 66138, Control_c, 0, 64, 92
1, 66153, Control_c, 0, 64, 127
1, 66175, Note_on_c, 0, 52, 44
1, 66176, Note_on_c, 0, 44, 36
1, 66177, Note_on_c, 0, 55, 60
1, 66188, Note_on_c, 0, 49, 49
1, 66216, Note_off_c, 0, 55, 56
1, 66223, Note_off_c, 0, 52, 60
1, 66227, Note_off_c, 0, 59, 59
1, 66230, Note_off_c, 0, 49, 59
1, 66242, Note_off_c, 0, 44, 50
1, 66320, Note_on_c, 0, 55, 59
1, 66323, Note_on_c, 0, 52, 55
1, 66323, Note_on_c, 0, 44, 37
1, 66329, Note_on_c, 0, 49, 54
1, 66524, Note_on_c, 0, 35, 83
1, 66527, Note_on_c, 0, 33, 81
1, 66550, Note_off_c, 0, 33, 63
1, 66555, Note_off_c, 0, 35, 61
1, 66576, Control_c, 0, 64, 69
1, 66580, Note_on_c, 0, 32, 94
1, 66591, Control_c, 0, 64, 0
1, 66603, Note_off_c, 0, 55, 63
1, 66614, Note_off_c, 0, 52, 60
1, 66618, Note_off_c, 0, 44, 57
1, 66623, Note_off_c, 0, 49, 56
1, 66633, Note_on_c, 0, 34, 18
1, 66634, Note_off_c, 0, 34, 127
1, 66723, Note_on_c, 0, 55, 70
1, 66733, Note_on_c, 0, 48, 58
1, 66733, Note_on_c, 0, 52, 58
1, 66740, Note_on_c, 0, 44, 49
1, 66760, Note_off_c, 0, 55, 62
1, 66773, Note_off_c, 0, 52, 63
1, 66778, Note_off_c, 0, 44, 62
1, 66781, Note_off_c, 0, 48, 61
1, 66856, Note_on_c, 0, 44, 51
1, 66863, Note_on_c, 0, 52, 56
1, 66864, Note_on_c, 0, 48, 44
1, 66864, Note_on_c, 0, 55, 47
1, 66892, Note_off_c, 0, 55, 56
1, 66896, Note_off_c, 0, 44, 58
1, 66901, Note_off_c, 0, 52, 62
1, 66905, Note_off_c, 0, 48, 62
1, 66952, Note_off_c, 0, 32, 62
1, 66973, Note_on_c, 0, 55, 58
1, 66977, Control_c, 0, 64, 51
1, 66982, Note_on_c, 0, 44, 40
1, 66992, Note_on_c, 0, 52, 62
1, 66997, Note_on_c, 0, 48, 49
1, 66999, Control_c, 0, 64, 68
1, 67014, Control_c, 0, 64, 83
1, 67023, Note_off_c, 0, 55, 60
1, 67029, Note_off_c, 0, 44, 49
1, 67029, Control_c, 0, 64, 127
1, 67033, Note_off_c, 0, 52, 61
1, 67037, Note_off_c, 0, 48, 61
1, 67112, Note_on_c, 0, 55, 65
1, 67116, Note_on_c, 0, 44, 67
1, 67116, Note_on_c, 0, 52, 66
1, 67129, Note_on_c, 0, 48, 66
1, 67285, Note_on_c, 0, 60, 92
1, 67302, Note_off_c, 0, 60, 75
1, 67303, Note_on_c, 0, 62, 54
1, 67304, Note_off_c, 0, 62, 127
1, 67345, Note_on_c, 0, 59, 108
1, 67390, Note_off_c, 0, 48, 56
1, 67399, Control_c, 0, 64, 87
1, 67407, Note_off_c, 0, 55, 54
1, 67412, Note_off_c, 0, 44, 59
1, 67414, Control_c, 0, 64, 63
1, 67421, Note_off_c, 0, 52, 57
1, 67429, Control_c, 0, 64, 0
1, 67484, Note_on_c, 0, 55, 90
1, 67485, Note_on_c, 0, 52, 77
1, 67488, Note_on_c, 0, 44, 74
1, 67495, Note_on_c, 0, 49, 70
1, 67513, Note_off_c, 0, 55, 62
1, 67521, Note_off_c, 0, 52, 67
1, 67529, Note_off_c, 0, 49, 64
1, 67536, Note_off_c, 0, 44, 60
1, 67598, Note_on_c, 0, 44, 55
1, 67602, Note_on_c, 0, 55, 65
1, 67612, Note_on_c, 0, 52, 60
1, 67617, Note_on_c, 0, 49, 50
1, 67640, Note_off_c, 0, 55, 61
1, 67648, Note_off_c, 0, 52, 65
1, 67650, Note_off_c, 0, 49, 64
1, 67653, Note_off_c, 0, 44, 62
1, 67729, Note_on_c, 0, 52, 55
1, 67733, Note_on_c, 0, 55, 50
1, 67746, Note_on_c, 0, 44, 30
1, 67747, Note_on_c, 0, 49, 47
1, 67770, Note_off_c, 0, 55, 56
1, 67779, Note_off_c, 0, 52, 62
1, 67784, Note_off_c, 0, 44, 52
1, 67784, Note_off_c, 0, 49, 61
1, 67792, Control_c, 0, 64, 27
1, 67806, Control_c, 0, 64, 46
1, 67821, Control_c, 0, 64, 59
1, 67824, Note_off_c, 0, 59, 56
1, 67836, Control_c, 0, 64, 67
1, 67851, Control_c, 0, 64, 76
1, 67865, Control_c, 0, 64, 94
1, 67880, Note_on_c, 0, 55, 49
1, 67880, Control_c, 0, 64, 127
1, 67883, Note_on_c, 0, 52, 51
1, 67891, Note_on_c, 0, 49, 46
1, 67898, Note_on_c, 0, 44, 43
1, 68147, Note_on_c, 0, 33, 87
1, 68171, Note_on_c, 0, 35, 41
1, 68176, Note_off_c, 0, 33, 66
1, 68204, Note_on_c, 0, 32, 94
1, 68204, Note_off_c, 0, 35, 53
1, 68206, Control_c, 0, 64, 79
1, 68221, Control_c, 0, 64, 50
1, 68233, Note_on_c, 0, 34, 54
1, 68236, Control_c, 0, 64, 0
1, 68237, Note_off_c, 0, 55, 63
1, 68241, Note_off_c, 0, 44, 56
1, 68246, Note_off_c, 0, 52, 58
1, 68255, Note_off_c, 0, 49, 55
1, 68266, Note_off_c, 0, 34, 56
1, 68329, Note_on_c, 0, 44, 79
1, 68332, Note_on_c, 0, 55, 82
1, 68335, Note_on_c, 0, 52, 83
1, 68337, Note_on_c, 0, 48, 71
1, 68359, Note_off_c, 0, 55, 62
1, 68382, Note_off_c, 0, 52, 52
1, 68385, Note_off_c, 0, 48, 53
1, 68399, Note_off_c, 0, 44, 61
1, 68440, Note_off_c, 0, 32, 63
1, 68444, Control_c, 0, 64, 32
1, 68459, Control_c, 0, 64, 49
1, 68464, Note_on_c, 0, 44, 44
1, 68472, Note_on_c, 0, 48, 39
1, 68473, Note_on_c, 0, 52, 42
1, 68474, Control_c, 0, 64, 55
1, 68494, Note_on_c, 0, 55, 38
1, 68496, Control_c, 0, 64, 56
1, 68511, Control_c, 0, 64, 58
1, 68522, Note_off_c, 0, 52, 63
1, 68523, Note_off_c, 0, 48, 61
1, 68525, Note_off_c, 0, 55, 52
1, 68526, Control_c, 0, 64, 60
1, 68529, Note_off_c, 0, 44, 57
1, 68541, Control_c, 0, 64, 62
1, 68556, Control_c, 0, 64, 64
1, 68570, Control_c, 0, 64, 65
1, 68585, Control_c, 0, 64, 67
1, 68600, Control_c, 0, 64, 70
1, 68601, Note_on_c, 0, 44, 31
1, 68606, Note_on_c, 0, 55, 54
1, 68614, Control_c, 0, 64, 75
1, 68615, Note_on_c, 0, 52, 57
1, 68621, Note_on_c, 0, 48, 49
1, 68629, Control_c, 0, 64, 82
1, 68644, Note_off_c, 0, 55, 53
1, 68644, Control_c, 0, 64, 91
1, 68657, Note_off_c, 0, 48, 58
1, 68658, Note_off_c, 0, 52, 59
1, 68659, Control_c, 0, 64, 104
1, 68662, Note_off_c, 0, 44, 45
1, 68674, Control_c, 0, 64, 127
1, 68749, Note_on_c, 0, 55, 52
1, 68757, Note_on_c, 0, 44, 48
1, 68765, Note_on_c, 0, 52, 55
1, 68773, Note_on_c, 0, 48, 59
1, 69017, Note_on_c, 0, 60, 94
1, 69036, Note_off_c, 0, 60, 73
1, 69085, Note_on_c, 0, 59, 95
1, 69092, Note_off_c, 0, 48, 60
1, 69117, Note_off_c, 0, 55, 58
1, 69123, Note_off_c, 0, 44, 54
1, 69131, Note_off_c, 0, 52, 57
1, 69132, Control_c, 0, 64, 96
1, 69147, Control_c, 0, 64, 78
1, 69162, Control_c, 0, 64, 64
1, 69177, Control_c, 0, 64, 36
1, 69192, Control_c, 0, 64, 0
1, 69211, Note_on_c, 0, 55, 81
1, 69213, Note_on_c, 0, 44, 64
1, 69213, Note_on_c, 0, 52, 69
1, 69217, Note_on_c, 0, 49, 56
1, 69247, Note_off_c, 0, 55, 63
1, 69259, Note_off_c, 0, 52, 65
1, 69267, Note_off_c, 0, 49, 62
1, 69275, Note_off_c, 0, 44, 61
1, 69348, Note_on_c, 0, 55, 54
1, 69357, Note_on_c, 0, 44, 37
1, 69358, Note_on_c, 0, 49, 50
1, 69359, Note_on_c, 0, 52, 58
1, 69386, Note_off_c, 0, 55, 57
1, 69393, Note_off_c, 0, 52, 65
1, 69396, Note_off_c, 0, 49, 63
1, 69400, Note_off_c, 0, 44, 57
1, 69480, Note_on_c, 0, 55, 50
1, 69481, Note_on_c, 0, 52, 51
1, 69492, Note_on_c, 0, 44, 41
1, 69492, Note_on_c, 0, 49, 49
1, 69521, Note_off_c, 0, 55, 59
1, 69532, Note_off_c, 0, 52, 60
1, 69533, Note_off_c, 0, 44, 56
1, 69534, Note_off_c, 0, 49, 60
1, 69638, Note_on_c, 0, 55, 35
1, 69650, Note_on_c, 0, 52, 49
1, 69658, Note_on_c, 0, 49, 46
1, 69658, Note_on_c, 0, 44, 43
1, 69867, Control_c, 0, 64, 20
1, 69882, Control_c, 0, 64, 41
1, 69897, Control_c, 0, 64, 53
1, 69912, Control_c, 0, 64, 59
1, 69927, Control_c, 0, 64, 62
1, 69942, Control_c, 0, 64, 64
1, 69956, Control_c, 0, 64, 66
1, 69971, Control_c, 0, 64, 69
1, 69993, Control_c, 0, 64, 73
1, 69993, Control_c, 0, 67, 18
1, 70008, Control_c, 0, 64, 77
1, 70008, Control_c, 0, 67, 25
1, 70023, Control_c, 0, 64, 80
1, 70023, Control_c, 0, 67, 27
1, 70039, Control_c, 0, 64, 84
1, 70054, Control_c, 0, 64, 88
1, 70054, Control_c, 0, 67, 26
1, 70068, Control_c, 0, 64, 94
1, 70074, Note_off_c, 0, 55, 40
1, 70083, Control_c, 0, 64, 97
1, 70098, Control_c, 0, 64, 100
1, 70103, Note_off_c, 0, 52, 25
1, 70112, Note_off_c, 0, 44, 39
1, 70113, Control_c, 0, 64, 102
1, 70128, Control_c, 0, 64, 104
1, 70128, Control_c, 0, 67, 24
1, 70142, Control_c, 0, 64, 105
1, 70153, Note_off_c, 0, 49, 37
1, 70157, Control_c, 0, 64, 96
1, 70157, Control_c, 0, 67, 25
1, 70171, Note_on_c, 0, 55, 88
1, 70172, Control_c, 0, 64, 80
1, 70172, Control_c, 0, 67, 27
1, 70179, Note_on_c, 0, 52, 83
1, 70180, Note_on_c, 0, 44, 71
1, 70183, Note_on_c, 0, 48, 72
1, 70187, Control_c, 0, 64, 67
1, 70187, Control_c, 0, 67, 28
1, 70202, Control_c, 0, 64, 52
1, 70212, Note_off_c, 0, 55, 60
1, 70216, Control_c, 0, 64, 0
1, 70216, Control_c, 0, 67, 29
1, 70219, Note_off_c, 0, 48, 62
1, 70223, Note_off_c, 0, 52, 55
1, 70228, Note_off_c, 0, 44, 58
1, 70231, Control_c, 0, 67, 31
1, 70246, Control_c, 0, 67, 38
1, 70261, Control_c, 0, 67, 50
1, 70276, Control_c, 0, 67, 61
1, 70290, Control_c, 0, 67, 68
1, 70305, Control_c, 0, 67, 75
1, 70320, Control_c, 0, 67, 82
1, 70324, Note_on_c, 0, 52, 58
1, 70326, Note_on_c, 0, 55, 59
1, 70331, Note_on_c, 0, 48, 56
1, 70335, Control_c, 0, 67, 93
1, 70350, Control_c, 0, 67, 105
1, 70362, Note_off_c, 0, 55, 63
1, 70365, Control_c, 0, 67, 115
1, 70374, Note_off_c, 0, 52, 60
1, 70377, Note_off_c, 0, 48, 59
1, 70380, Control_c, 0, 67, 123
1, 70394, Control_c, 0, 67, 127
1, 70448, Note_on_c, 0, 55, 53
1, 70449, Poly_aftertouch_c, 0, 44, 0
1, 70457, Note_on_c, 0, 52, 52
1, 70467, Note_on_c, 0, 48, 45
1, 70487, Poly_aftertouch_c, 0, 44, 127
1, 70490, Note_off_c, 0, 55, 60
1, 70505, Note_off_c, 0, 48, 60
1, 70506, Note_off_c, 0, 52, 59
1, 70524, Poly_aftertouch_c, 0, 44, 0
1, 70604, Note_on_c, 0, 52, 46
1, 70604, Note_on_c, 0, 55, 39
1, 70609, Note_on_c, 0, 44, 40
1, 70630, Note_on_c, 0, 48, 39
1, 70787, Control_c, 0, 64, 20
1, 70802, Control_c, 0, 64, 30
1, 70817, Control_c, 0, 64, 40
1, 70833, Control_c, 0, 64, 49
1, 70848, Control_c, 0, 64, 56
1, 70863, Control_c, 0, 64, 59
1, 70878, Control_c, 0, 64, 61
1, 70892, Control_c, 0, 64, 62
1, 70907, Control_c, 0, 64, 63
1, 70922, Control_c, 0, 64, 64
1, 70937, Control_c, 0, 64, 65
1, 70952, Control_c, 0, 64, 67
1, 70966, Control_c, 0, 64, 68
1, 70981, Control_c, 0, 64, 69
1, 70996, Control_c, 0, 64, 70
1, 71010, Control_c, 0, 64, 70
1, 71025, Control_c, 0, 64, 71
1, 71040, Control_c, 0, 64, 71
1, 71044, Note_off_c, 0, 48, 34
1, 71055, Control_c, 0, 64, 72
1, 71070, Control_c, 0, 64, 72
1, 71084, Control_c, 0, 64, 73
1, 71099, Control_c, 0, 64, 75
1, 71114, Control_c, 0, 64, 76
1, 71117, Note_off_c, 0, 52, 21
1, 71129, Control_c, 0, 64, 77
1, 71144, Control_c, 0, 64, 78
1, 71158, Control_c, 0, 64, 78
1, 71173, Control_c, 0, 64, 79
1, 71194, Note_off_c, 0, 44, 34
1, 71231, Note_off_c, 0, 55, 34
1, 71292, Control_c, 0, 64, 78
1, 71337, Control_c, 0, 64, 78
1, 71366, Control_c, 0, 64, 77
1, 71378, Note_on_c, 0, 55, 67
1, 71381, Control_c, 0, 64, 75
1, 71387, Note_on_c, 0, 44, 61
1, 71390, Note_on_c, 0, 51, 66
1, 71395, Note_on_c, 0, 47, 58
1, 71396, Control_c, 0, 64, 72
1, 71410, Control_c, 0, 64, 69
1, 71425, Control_c, 0, 64, 66
1, 71440, Control_c, 0, 64, 64
1, 71455, Control_c, 0, 64, 63
1, 71470, Control_c, 0, 64, 62
1, 71486, Note_off_c, 0, 55, 53
1, 71495, Note_off_c, 0, 44, 53
1, 71496, Note_off_c, 0, 47, 55
1, 71499, Note_off_c, 0, 51, 58
1, 71522, Control_c, 0, 64, 61
1, 71536, Control_c, 0, 64, 60
1, 71551, Control_c, 0, 64, 59
1, 71566, Control_c, 0, 64, 57
1, 71581, Control_c, 0, 64, 56
1, 71596, Control_c, 0, 64, 53
1, 71610, Control_c, 0, 64, 51
1, 71625, Control_c, 0, 64, 49
1, 71641, Control_c, 0, 64, 47
1, 71647, Note_on_c, 0, 55, 48
1, 71652, Note_on_c, 0, 51, 54
1, 71656, Control_c, 0, 64, 44
1, 71659, Note_on_c, 0, 44, 35
1, 71664, Note_on_c, 0, 47, 38
1, 71671, Control_c, 0, 64, 39
1, 71685, Control_c, 0, 64, 34
1, 71700, Control_c, 0, 64, 27
1, 71702, Note_off_c, 0, 55, 60
1, 71703, Note_off_c, 0, 51, 58
1, 71703, Note_off_c, 0, 47, 58
1, 71712, Note_off_c, 0, 44, 51
1, 71715, Control_c, 0, 64, 18
1, 71730, Control_c, 0, 64, 0
1, 71831, Note_on_c, 0, 55, 47
1, 71834, Note_on_c, 0, 51, 49
1, 71839, Note_on_c, 0, 44, 43
1, 71841, Note_on_c, 0, 47, 37
1, 71981, Control_c, 0, 64, 12
1, 71996, Control_c, 0, 64, 26
1, 72011, Control_c, 0, 64, 36
1, 72026, Control_c, 0, 64, 45
1, 72040, Control_c, 0, 64, 51
1, 72055, Control_c, 0, 64, 56
1, 72070, Control_c, 0, 64, 59
1, 72085, Control_c, 0, 64, 61
1, 72100, Control_c, 0, 64, 63
1, 72115, Control_c, 0, 64, 64
1, 72130, Control_c, 0, 64, 66
1, 72145, Control_c, 0, 64, 68
1, 72159, Control_c, 0, 64, 70
1, 72174, Control_c, 0, 64, 73
1, 72188, Control_c, 0, 64, 77
1, 72203, Control_c, 0, 64, 82
1, 72218, Control_c, 0, 64, 86
1, 72240, Control_c, 0, 64, 91
1, 72255, Control_c, 0, 64, 96
1, 72259, Note_off_c, 0, 55, 54
1, 72270, Control_c, 0, 64, 101
1, 72285, Control_c, 0, 64, 105
1, 72286, Note_off_c, 0, 44, 31
1, 72296, Note_off_c, 0, 47, 34
1, 72296, Note_off_c, 0, 51, 34
1, 72300, Control_c, 0, 64, 106
1, 72314, Control_c, 0, 64, 106
1, 72329, Control_c, 0, 64, 105
1, 72344, Control_c, 0, 64, 103
1, 72358, Control_c, 0, 64, 101
1, 72370, Note_on_c, 0, 55, 73
1, 72373, Control_c, 0, 64, 98
1, 72380, Note_on_c, 0, 51, 69
1, 72383, Note_on_c, 0, 44, 53
1, 72388, Control_c, 0, 64, 94
1, 72389, Note_on_c, 0, 47, 58
1, 72403, Control_c, 0, 64, 87
1, 72410, Note_off_c, 0, 55, 55
1, 72418, Control_c, 0, 64, 80
1, 72421, Note_off_c, 0, 44, 59
1, 72429, Note_off_c, 0, 47, 60
1, 72434, Control_c, 0, 64, 72
1, 72437, Note_off_c, 0, 51, 48
1, 72449, Control_c, 0, 64, 65
1, 72463, Control_c, 0, 64, 59
1, 72478, Control_c, 0, 64, 53
1, 72493, Control_c, 0, 64, 51
1, 72567, Control_c, 0, 64, 51
1, 72597, Control_c, 0, 64, 50
1, 72611, Control_c, 0, 64, 50
1, 72626, Control_c, 0, 64, 49
1, 72641, Control_c, 0, 64, 48
1, 72646, Note_on_c, 0, 51, 32
1, 72651, Note_on_c, 0, 44, 41
1, 72654, Note_on_c, 0, 55, 51
1, 72655, Control_c, 0, 64, 47
1, 72663, Note_on_c, 0, 47, 43
1, 72670, Control_c, 0, 64, 44
1, 72685, Control_c, 0, 64, 39
1, 72700, Control_c, 0, 64, 33
1, 72715, Control_c, 0, 64, 29
1, 72729, Control_c, 0, 64, 25
1, 72744, Control_c, 0, 64, 21
1, 72759, Control_c, 0, 64, 18
1, 72774, Control_c, 0, 64, 15
1, 72789, Control_c, 0, 64, 12
1, 72803, Control_c, 0, 64, 11
1, 72818, Control_c, 0, 64, 0
1, 72923, Control_c, 0, 64, 11
1, 72937, Control_c, 0, 64, 18
1, 72952, Control_c, 0, 64, 26
1, 72967, Control_c, 0, 64, 32
1, 72988, Control_c, 0, 64, 38
1, 73003, Control_c, 0, 64, 43
1, 73018, Control_c, 0, 64, 48
1, 73033, Control_c, 0, 64, 53
1, 73048, Control_c, 0, 64, 58
1, 73063, Control_c, 0, 64, 61
1, 73078, Control_c, 0, 64, 63
1, 73092, Control_c, 0, 64, 64
1, 73107, Control_c, 0, 64, 65
1, 73122, Control_c, 0, 64, 67
1, 73137, Control_c, 0, 64, 69
1, 73152, Control_c, 0, 64, 71
1, 73167, Control_c, 0, 64, 74
1, 73181, Control_c, 0, 64, 76
1, 73196, Control_c, 0, 64, 78
1, 73203, Note_off_c, 0, 51, 27
1, 73211, Control_c, 0, 64, 79
1, 73225, Note_off_c, 0, 47, 18
1, 73226, Control_c, 0, 64, 80
1, 73273, Note_off_c, 0, 55, 35
1, 73331, Control_c, 0, 64, 79
1, 73370, Note_off_c, 0, 44, 27
1, 73375, Control_c, 0, 64, 79
1, 73420, Control_c, 0, 64, 78
1, 73434, Control_c, 0, 64, 78
1, 73464, Control_c, 0, 64, 77
1, 73474, Note_on_c, 0, 44, 18
1, 73478, Control_c, 0, 64, 77
1, 73489, Note_on_c, 0, 51, 34
1, 73492, Note_on_c, 0, 55, 35
1, 73493, Control_c, 0, 64, 76
1, 73508, Control_c, 0, 64, 75
1, 73511, Note_on_c, 0, 47, 17
1, 73523, Control_c, 0, 64, 75
1, 73552, Control_c, 0, 64, 74
1, 73567, Control_c, 0, 64, 73
1, 73582, Control_c, 0, 64, 71
1, 73596, Control_c, 0, 64, 70
1, 73611, Control_c, 0, 64, 68
1, 73626, Control_c, 0, 64, 66
1, 73641, Control_c, 0, 64, 64
1, 73657, Control_c, 0, 64, 63
1, 73672, Control_c, 0, 64, 62
1, 73686, Control_c, 0, 64, 61
1, 73701, Control_c, 0, 64, 60
1, 73716, Control_c, 0, 64, 58
1, 73739, Control_c, 0, 64, 55
1, 73754, Control_c, 0, 64, 52
1, 73768, Control_c, 0, 64, 49
1, 73783, Control_c, 0, 64, 47
1, 73798, Control_c, 0, 64, 47
1, 73812, Control_c, 0, 64, 47
1, 73827, Control_c, 0, 64, 48
1, 73842, Control_c, 0, 64, 50
1, 73857, Control_c, 0, 64, 52
1, 73872, Control_c, 0, 64, 54
1, 73879, Note_off_c, 0, 55, 32
1, 73886, Control_c, 0, 64, 57
1, 73901, Control_c, 0, 64, 58
1, 73916, Control_c, 0, 64, 59
1, 73931, Control_c, 0, 64, 60
1, 73942, Note_off_c, 0, 51, 50
1, 73946, Control_c, 0, 64, 61
1, 73960, Control_c, 0, 64, 62
1, 73964, Note_off_c, 0, 47, 36
1, 73975, Control_c, 0, 64, 63
1, 73990, Control_c, 0, 64, 64
1, 74020, Control_c, 0, 64, 64
1, 74051, Control_c, 0, 64, 65
1, 74144, Note_off_c, 0, 44, 51
1, 74183, Control_c, 0, 64, 64
1, 74243, Control_c, 0, 64, 64
1, 74273, Control_c, 0, 64, 63
1, 74302, Control_c, 0, 64, 63
1, 74317, Control_c, 0, 64, 62
1, 74347, Control_c, 0, 64, 62
1, 74362, Control_c, 0, 64, 61
1, 74376, Control_c, 0, 64, 60
1, 74391, Control_c, 0, 64, 59
1, 74406, Control_c, 0, 64, 58
1, 74420, Control_c, 0, 64, 57
1, 74435, Control_c, 0, 64, 55
1, 74450, Control_c, 0, 64, 53
1, 74465, Control_c, 0, 64, 51
1, 74488, Control_c, 0, 64, 50
1, 74502, Control_c, 0, 64, 49
1, 74517, Control_c, 0, 64, 48
1, 74532, Control_c, 0, 64, 47
1, 74547, Control_c, 0, 64, 47
1, 74562, Control_c, 0, 64, 46
1, 74577, Control_c, 0, 64, 45
1, 74591, Control_c, 0, 64, 44
1, 74621, Control_c, 0, 64, 43
1, 74635, Control_c, 0, 64, 43
1, 74709, Control_c, 0, 64, 42
1, 74918, Control_c, 0, 64, 43
1, 74977, Control_c, 0, 64, 43
1, 75021, Control_c, 0, 64, 44
1, 75036, Control_c, 0, 64, 44
1, 75051, Control_c, 0, 64, 46
1, 75066, Control_c, 0, 64, 48
1, 75081, Control_c, 0, 64, 51
1, 75096, Control_c, 0, 64, 54
1, 75111, Control_c, 0, 64, 57
1, 75125, Control_c, 0, 64, 59
1, 75139, Note_off_c, 0, 59, 49
1, 75140, Control_c, 0, 64, 62
1, 75155, Control_c, 0, 64, 64
1, 75170, Control_c, 0, 64, 65
1, 75185, Control_c, 0, 64, 66
1, 75199, Control_c, 0, 64, 68
1, 75214, Control_c, 0, 64, 70
1, 75236, Control_c, 0, 64, 72
1, 75251, Control_c, 0, 64, 75
1, 75266, Control_c, 0, 64, 76
1, 75397, Note_on_c, 0, 27, 33
1, 75406, Note_on_c, 0, 59, 26
1, 75414, Control_c, 0, 64, 75
1, 75429, Control_c, 0, 64, 72
1, 75444, Control_c, 0, 64, 67
1, 75445, Note_off_c, 0, 59, 50
1, 75458, Control_c, 0, 64, 61
1, 75463, Note_on_c, 0, 58, 49
1, 75473, Control_c, 0, 64, 48
1, 75488, Control_c, 0, 64, 44
1, 75489, Note_on_c, 0, 30, 38
1, 75503, Control_c, 0, 64, 48
1, 75516, Note_off_c, 0, 27, 56
1, 75518, Control_c, 0, 64, 53
1, 75527, Note_off_c, 0, 30, 58
1, 75532, Control_c, 0, 64, 57
1, 75547, Control_c, 0, 64, 60
1, 75562, Control_c, 0, 64, 64
1, 75577, Control_c, 0, 64, 66
1, 75592, Control_c, 0, 64, 68
1, 75606, Control_c, 0, 64, 71
1, 75621, Control_c, 0, 64, 75
1, 75637, Control_c, 0, 64, 77
1, 75652, Control_c, 0, 64, 80
1, 75667, Control_c, 0, 64, 81
1, 75741, Control_c, 0, 64, 80
1, 75755, Control_c, 0, 64, 79
1, 75770, Control_c, 0, 64, 77
1, 75785, Control_c, 0, 64, 73
1, 75796, Note_on_c, 0, 33, 24
1, 75800, Control_c, 0, 64, 68
1, 75815, Control_c, 0, 64, 63
1, 75829, Control_c, 0, 64, 56
1, 75841, Note_on_c, 0, 35, 43
1, 75844, Note_off_c, 0, 33, 51
1, 75844, Control_c, 0, 64, 46
1, 75859, Control_c, 0, 64, 42
1, 75874, Control_c, 0, 64, 42
1, 75917, Control_c, 0, 64, 41
1, 75946, Control_c, 0, 64, 41
1, 75961, Control_c, 0, 64, 40
1, 75984, Control_c, 0, 64, 39
1, 75999, Control_c, 0, 64, 38
1, 76014, Control_c, 0, 64, 37
1, 76028, Control_c, 0, 64, 35
1, 76043, Control_c, 0, 64, 34
1, 76058, Control_c, 0, 64, 33
1, 76087, Control_c, 0, 64, 33
1, 76091, Note_off_c, 0, 58, 62
1, 76102, Control_c, 0, 64, 33
1, 76117, Control_c, 0, 64, 37
1, 76132, Control_c, 0, 64, 47
1, 76147, Control_c, 0, 64, 53
1, 76151, Note_on_c, 0, 57, 24
1, 76161, Control_c, 0, 64, 58
1, 76176, Control_c, 0, 64, 63
1, 76191, Control_c, 0, 64, 65
1, 76193, Note_off_c, 0, 57, 50
1, 76201, Note_off_c, 0, 35, 62
1, 76206, Control_c, 0, 64, 69
1, 76216, Note_on_c, 0, 58, 48
1, 76221, Control_c, 0, 64, 73
1, 76235, Control_c, 0, 64, 78
1, 76250, Control_c, 0, 64, 82
1, 76265, Control_c, 0, 64, 84
1, 76279, Control_c, 0, 64, 85
1, 76466, Note_off_c, 0, 58, 52
1, 76473, Control_c, 0, 64, 84
1, 76481, Note_on_c, 0, 57, 55
1, 76488, Control_c, 0, 64, 83
1, 76495, Note_on_c, 0, 63, 57
1, 76503, Control_c, 0, 64, 81
1, 76518, Control_c, 0, 64, 78
1, 76532, Control_c, 0, 64, 73
1, 76547, Control_c, 0, 64, 70
1, 76550, Note_off_c, 0, 57, 55
1, 76562, Control_c, 0, 64, 66
1, 76570, Note_on_c, 0, 56, 43
1, 76577, Control_c, 0, 64, 64
1, 76582, Note_on_c, 0, 66, 45
1, 76592, Control_c, 0, 64, 60
1, 76607, Control_c, 0, 64, 56
1, 76622, Control_c, 0, 64, 52
1, 76637, Note_off_c, 0, 63, 35
1, 76637, Control_c, 0, 64, 49
1, 76651, Control_c, 0, 64, 47
1, 76666, Control_c, 0, 64, 45
1, 76681, Control_c, 0, 64, 44
1, 76747, Control_c, 0, 64, 44
1, 76777, Control_c, 0, 64, 43
1, 76792, Control_c, 0, 64, 43
1, 76807, Control_c, 0, 64, 42
1, 76822, Control_c, 0, 64, 41
1, 76836, Control_c, 0, 64, 40
1, 76851, Control_c, 0, 64, 39
1, 76866, Control_c, 0, 64, 37
1, 76874, Note_on_c, 0, 69, 62
1, 76881, Control_c, 0, 64, 34
1, 76896, Control_c, 0, 64, 33
1, 76902, Note_off_c, 0, 56, 37
1, 76909, Note_on_c, 0, 59, 25
1, 76910, Control_c, 0, 64, 31
1, 76925, Control_c, 0, 64, 30
1, 76938, Note_off_c, 0, 69, 60
1, 76940, Control_c, 0, 64, 30
1, 76951, Note_off_c, 0, 59, 54
1, 76956, Note_on_c, 0, 71, 54
1, 76966, Note_off_c, 0, 66, 35
1, 76971, Note_on_c, 0, 58, 30
1, 76984, Control_c, 0, 64, 29
1, 77102, Control_c, 0, 64, 30
1, 77117, Control_c, 0, 64, 31
1, 77132, Control_c, 0, 64, 33
1, 77147, Control_c, 0, 64, 38
1, 77162, Control_c, 0, 64, 43
1, 77176, Control_c, 0, 64, 48
1, 77191, Control_c, 0, 64, 51
1, 77206, Control_c, 0, 64, 55
1, 77222, Control_c, 0, 64, 57
1, 77237, Control_c, 0, 64, 61
1, 77252, Control_c, 0, 64, 63
1, 77266, Control_c, 0, 64, 65
1, 77281, Control_c, 0, 64, 68
1, 77296, Control_c, 0, 64, 72
1, 77311, Control_c, 0, 64, 75
1, 77325, Control_c, 0, 64, 78
1, 77332, Note_off_c, 0, 71, 58
1, 77340, Control_c, 0, 64, 81
1, 77355, Control_c, 0, 64, 83
1, 77370, Control_c, 0, 64, 84
1, 77459, Control_c, 0, 64, 84
1, 77477, Note_off_c, 0, 58, 41
1, 77615, Control_c, 0, 64, 83
1, 77645, Control_c, 0, 64, 83
1, 77669, Note_on_c, 0, 75, 47
1, 77674, Control_c, 0, 64, 82
1, 77687, Note_on_c, 0, 57, 40
1, 77689, Control_c, 0, 64, 81
1, 77704, Control_c, 0, 64, 80
1, 77719, Control_c, 0, 64, 78
1, 77734, Control_c, 0, 64, 76
1, 77749, Control_c, 0, 64, 74
1, 77763, Note_off_c, 0, 57, 47
1, 77764, Control_c, 0, 64, 71
1, 77772, Note_on_c, 0, 59, 44
1, 77778, Control_c, 0, 64, 69
1, 77787, Note_on_c, 0, 78, 57
1, 77793, Control_c, 0, 64, 67
1, 77808, Control_c, 0, 64, 65
1, 77823, Control_c, 0, 64, 64
1, 77838, Control_c, 0, 64, 63
1, 77843, Note_off_c, 0, 75, 53
1, 77852, Control_c, 0, 64, 62
1, 77867, Control_c, 0, 64, 62
1, 77882, Control_c, 0, 64, 61
1, 77897, Control_c, 0, 64, 60
1, 77912, Control_c, 0, 64, 59
1, 77926, Control_c, 0, 64, 58
1, 77941, Control_c, 0, 64, 57
1, 77956, Control_c, 0, 64, 56
1, 77971, Control_c, 0, 64, 55
1, 77986, Control_c, 0, 64, 54
1, 78015, Control_c, 0, 64, 53
1, 78031, Control_c, 0, 64, 53
1, 78046, Control_c, 0, 64, 52
1, 78047, Note_off_c, 0, 59, 57
1, 78085, Note_on_c, 0, 81, 54
1, 78087, Note_off_c, 0, 78, 60
1, 78093, Note_on_c, 0, 58, 41
1, 78144, Note_off_c, 0, 58, 60
1, 78158, Note_off_c, 0, 81, 65
1, 78169, Note_on_c, 0, 83, 41
1, 78189, Note_on_c, 0, 57, 44
1, 78363, Control_c, 0, 64, 53
1, 78378, Control_c, 0, 64, 54
1, 78393, Control_c, 0, 64, 57
1, 78408, Control_c, 0, 64, 60
1, 78422, Control_c, 0, 64, 63
1, 78434, Note_off_c, 0, 83, 63
1, 78437, Control_c, 0, 64, 65
1, 78452, Control_c, 0, 64, 69
1, 78460, Note_on_c, 0, 67, 52
1, 78467, Control_c, 0, 64, 73
1, 78482, Control_c, 0, 64, 80
1, 78497, Control_c, 0, 64, 89
1, 78512, Control_c, 0, 64, 93
1, 78527, Control_c, 0, 64, 94
1, 78542, Control_c, 0, 64, 93
1, 78549, Note_on_c, 0, 66, 59
1, 78556, Control_c, 0, 64, 92
1, 78571, Control_c, 0, 64, 91
1, 78586, Control_c, 0, 64, 90
1, 78601, Control_c, 0, 64, 89
1, 78610, Note_off_c, 0, 57, 52
1, 78616, Control_c, 0, 64, 88
1, 78627, Note_off_c, 0, 67, 50
1, 78630, Control_c, 0, 64, 87
1, 78645, Control_c, 0, 64, 86
1, 78660, Control_c, 0, 64, 86
1, 78689, Control_c, 0, 64, 85
1, 78719, Control_c, 0, 64, 85
1, 78734, Control_c, 0, 64, 84
1, 78748, Control_c, 0, 64, 83
1, 78763, Control_c, 0, 64, 83
1, 78824, Control_c, 0, 64, 82
1, 78839, Control_c, 0, 64, 82
1, 78853, Control_c, 0, 64, 81
1, 78868, Control_c, 0, 64, 80
1, 78883, Control_c, 0, 64, 79
1, 78897, Control_c, 0, 64, 79
1, 78912, Control_c, 0, 64, 78
1, 78927, Control_c, 0, 64, 77
1, 78935, Note_on_c, 0, 56, 44
1, 78942, Control_c, 0, 64, 77
1, 78942, Control_c, 0, 67, 119
1, 78957, Control_c, 0, 64, 76
1, 78957, Control_c, 0, 67, 66
1, 78979, Control_c, 0, 67, 0
1, 78994, Control_c, 0, 64, 76
1, 79009, Control_c, 0, 64, 75
1, 79024, Control_c, 0, 64, 73
1, 79039, Control_c, 0, 64, 71
1, 79039, Note_on_c, 0, 35, 35
1, 79045, Note_off_c, 0, 56, 59
1, 79053, Control_c, 0, 64, 69
1, 79068, Control_c, 0, 64, 66
1, 79083, Control_c, 0, 64, 64
1, 79097, Control_c, 0, 64, 60
1, 79111, Note_on_c, 0, 55, 36
1, 79112, Control_c, 0, 64, 56
1, 79127, Control_c, 0, 64, 52
1, 79142, Control_c, 0, 64, 48
1, 79157, Control_c, 0, 64, 45
1, 79171, Control_c, 0, 64, 44
1, 79186, Control_c, 0, 64, 44
1, 79231, Control_c, 0, 64, 44
1, 79231, Control_c, 0, 66, 127
1, 79245, Control_c, 0, 64, 47
1, 79260, Control_c, 0, 64, 50
1, 79272, Note_off_c, 0, 66, 61
1, 79275, Control_c, 0, 64, 53
1, 79290, Control_c, 0, 64, 56
1, 79305, Control_c, 0, 64, 58
1, 79320, Control_c, 0, 64, 60
1, 79334, Control_c, 0, 64, 61
1, 79349, Control_c, 0, 64, 62
1, 79364, Control_c, 0, 64, 63
1, 79379, Control_c, 0, 64, 65
1, 79394, Control_c, 0, 64, 67
1, 79407, Note_on_c, 0, 65, 34
1, 79409, Control_c, 0, 64, 70
1, 79423, Control_c, 0, 64, 72
1, 79438, Control_c, 0, 64, 74
1, 79453, Control_c, 0, 64, 75
1, 79462, Note_on_c, 0, 64, 50
1, 79462, Note_off_c, 0, 35, 39
1, 79483, Control_c, 0, 64, 75
1, 79486, Note_off_c, 0, 55, 49
1, 79508, Note_off_c, 0, 65, 37
1, 79512, Control_c, 0, 64, 74
1, 79542, Control_c, 0, 64, 74
1, 79601, Control_c, 0, 64, 73
1, 79746, Note_on_c, 0, 54, 43
1, 79758, Control_c, 0, 64, 72
1, 79773, Control_c, 0, 64, 69
1, 79788, Control_c, 0, 64, 64
1, 79802, Control_c, 0, 64, 61
1, 79817, Control_c, 0, 64, 57
1, 79823, Note_off_c, 0, 54, 62
1, 79825, Note_on_c, 0, 35, 37
1, 79832, Control_c, 0, 64, 54
1, 79847, Control_c, 0, 64, 55
1, 79862, Control_c, 0, 64, 58
1, 79867, Note_on_c, 0, 53, 45
1, 79876, Control_c, 0, 64, 60
1, 79891, Control_c, 0, 64, 62
1, 79906, Control_c, 0, 64, 63
1, 79918, Note_off_c, 0, 35, 52
1, 79920, Control_c, 0, 64, 65
1, 79935, Control_c, 0, 64, 67
1, 79950, Control_c, 0, 64, 69
1, 79965, Control_c, 0, 64, 72
1, 79980, Control_c, 0, 64, 74
1, 79994, Control_c, 0, 64, 75
1, 80009, Control_c, 0, 64, 76
1, 80068, Control_c, 0, 64, 76
1, 80110, Note_off_c, 0, 64, 54
1, 80142, Control_c, 0, 64, 77
1, 80161, Note_on_c, 0, 63, 50
1, 80202, Control_c, 0, 64, 76
1, 80238, Note_off_c, 0, 53, 37
1, 80246, Control_c, 0, 64, 76
1, 80251, Note_off_c, 0, 63, 61
1, 80256, Note_on_c, 0, 62, 54
1, 80380, Control_c, 0, 64, 76
1, 80425, Control_c, 0, 64, 77
1, 80461, Note_on_c, 0, 52, 57
1, 80473, Note_on_c, 0, 70, 54
1, 80491, Note_off_c, 0, 52, 59
1, 80536, Control_c, 0, 64, 76
1, 80548, Note_off_c, 0, 70, 43
1, 80551, Control_c, 0, 64, 75
1, 80557, Note_on_c, 0, 69, 58
1, 80566, Control_c, 0, 64, 73
1, 80578, Note_on_c, 0, 53, 54
1, 80580, Control_c, 0, 64, 71
1, 80595, Control_c, 0, 64, 69
1, 80610, Control_c, 0, 64, 67
1, 80625, Control_c, 0, 64, 66
1, 80640, Control_c, 0, 64, 65
1, 80655, Control_c, 0, 64, 64
1, 80669, Control_c, 0, 64, 64
1, 80684, Control_c, 0, 64, 63
1, 80699, Control_c, 0, 64, 62
1, 80714, Control_c, 0, 64, 61
1, 80729, Control_c, 0, 64, 60
1, 80743, Note_off_c, 0, 62, 55
1, 80743, Control_c, 0, 64, 60
1, 80758, Control_c, 0, 64, 58
1, 80773, Control_c, 0, 64, 57
1, 80788, Control_c, 0, 64, 56
1, 80803, Control_c, 0, 64, 54
1, 80817, Control_c, 0, 64, 53
1, 80829, Note_on_c, 0, 63, 46
1, 80832, Control_c, 0, 64, 51
1, 80847, Control_c, 0, 64, 48
1, 80862, Control_c, 0, 64, 46
1, 80876, Control_c, 0, 64, 43
1, 80891, Control_c, 0, 64, 41
1, 80899, Note_off_c, 0, 63, 62
1, 80906, Control_c, 0, 64, 40
1, 80911, Note_on_c, 0, 64, 55
1, 80921, Control_c, 0, 64, 39
1, 80936, Control_c, 0, 64, 39
1, 81117, Note_on_c, 0, 68, 58
1, 81126, Note_off_c, 0, 53, 56
1, 81139, Note_on_c, 0, 54, 52
1, 81155, Note_off_c, 0, 69, 48
1, 81159, Control_c, 0, 64, 39
1, 81194, Note_on_c, 0, 67, 58
1, 81227, Control_c, 0, 64, 40
1, 81230, Note_off_c, 0, 54, 64
1, 81245, Note_off_c, 0, 68, 50
1, 81256, Control_c, 0, 64, 40
1, 81271, Note_on_c, 0, 55, 52
1, 81271, Control_c, 0, 64, 41
1, 81286, Control_c, 0, 64, 41
1, 81300, Control_c, 0, 64, 42
1, 81315, Control_c, 0, 64, 42
1, 81330, Control_c, 0, 64, 43
1, 81334, Note_off_c, 0, 64, 43
1, 81345, Control_c, 0, 64, 43
1, 81360, Control_c, 0, 64, 44
1, 81374, Control_c, 0, 64, 44
1, 81419, Control_c, 0, 64, 45
1, 81434, Control_c, 0, 64, 45
1, 81463, Control_c, 0, 64, 46
1, 81480, Note_on_c, 0, 65, 48
1, 81552, Control_c, 0, 64, 46
1, 81553, Note_on_c, 0, 66, 53
1, 81587, Note_off_c, 0, 55, 53
1, 81597, Control_c, 0, 64, 47
1, 81597, Note_off_c, 0, 65, 55
1, 81656, Control_c, 0, 64, 47
1, 81686, Control_c, 0, 64, 48
1, 81715, Control_c, 0, 64, 48
1, 81722, Note_off_c, 0, 67, 57
1, 81730, Control_c, 0, 64, 49
1, 81745, Control_c, 0, 64, 49
1, 81767, Note_on_c, 0, 56, 52
1, 81811, Note_off_c, 0, 56, 61
1, 81850, Note_on_c, 0, 65, 66
1, 81862, Note_on_c, 0, 57, 45
1, 81878, Control_c, 0, 64, 50
1, 81907, Control_c, 0, 64, 49
1, 82126, Note_on_c, 0, 67, 43
1, 82138, Control_c, 0, 64, 50
1, 82153, Control_c, 0, 64, 50
1, 82168, Control_c, 0, 64, 53
1, 82183, Control_c, 0, 64, 57
1, 82190, Note_on_c, 0, 68, 57
1, 82197, Control_c, 0, 64, 58
1, 82212, Control_c, 0, 64, 59
1, 82216, Note_off_c, 0, 67, 56
1, 82227, Control_c, 0, 64, 60
1, 82242, Control_c, 0, 64, 60
1, 82257, Control_c, 0, 64, 61
1, 82258, Note_off_c, 0, 57, 40
1, 82271, Control_c, 0, 64, 62
1, 82315, Control_c, 0, 64, 62
1, 82390, Note_off_c, 0, 66, 38
1, 82410, Note_on_c, 0, 64, 52
1, 82423, Note_off_c, 0, 65, 54
1, 82432, Note_on_c, 0, 58, 51
1, 82435, Control_c, 0, 64, 62
1, 82450, Control_c, 0, 64, 59
1, 82464, Control_c, 0, 64, 54
1, 82479, Control_c, 0, 64, 50
1, 82487, Note_off_c, 0, 58, 58
1, 82494, Control_c, 0, 64, 46
1, 82494, Note_off_c, 0, 64, 62
1, 82506, Note_on_c, 0, 63, 56
1, 82509, Control_c, 0, 64, 42
1, 82518, Note_on_c, 0, 59, 38
1, 82523, Control_c, 0, 64, 39
1, 82538, Control_c, 0, 64, 39
1, 82568, Control_c, 0, 64, 40
1, 82583, Control_c, 0, 64, 45
1, 82597, Control_c, 0, 64, 50
1, 82612, Control_c, 0, 64, 54
1, 82627, Control_c, 0, 64, 57
1, 82642, Control_c, 0, 64, 59
1, 82656, Control_c, 0, 64, 61
1, 82670, Control_c, 0, 64, 62
1, 82685, Control_c, 0, 64, 63
1, 82700, Control_c, 0, 64, 65
1, 82722, Control_c, 0, 64, 67
1, 82726, Note_off_c, 0, 68, 58
1, 82737, Control_c, 0, 64, 69
1, 82752, Control_c, 0, 64, 71
1, 82767, Control_c, 0, 64, 74
1, 82771, Note_on_c, 0, 69, 48
1, 82782, Control_c, 0, 64, 76
1, 82796, Control_c, 0, 64, 78
1, 82812, Control_c, 0, 64, 79
1, 82831, Note_off_c, 0, 59, 42
1, 82840, Note_off_c, 0, 63, 54
1, 82908, Note_on_c, 0, 70, 47
1, 83003, Note_off_c, 0, 69, 34
1, 83019, Control_c, 0, 64, 79
1, 83108, Control_c, 0, 64, 80
1, 83173, Note_on_c, 0, 60, 50
1, 83173, Note_on_c, 0, 62, 42
1, 83201, Note_off_c, 0, 60, 64
1, 83205, Note_off_c, 0, 62, 64
1, 83212, Control_c, 0, 64, 81
1, 83227, Control_c, 0, 64, 81
1, 83242, Control_c, 0, 64, 82
1, 83272, Control_c, 0, 64, 80
1, 83286, Control_c, 0, 64, 75
1, 83298, Note_on_c, 0, 35, 42
1, 83301, Control_c, 0, 64, 68
1, 83316, Control_c, 0, 64, 61
1, 83317, Note_on_c, 0, 61, 49
1, 83331, Control_c, 0, 64, 51
1, 83341, Poly_aftertouch_c, 0, 67, 127
1, 83345, Control_c, 0, 64, 52
1, 83360, Control_c, 0, 64, 56
1, 83375, Control_c, 0, 64, 60
1, 83390, Control_c, 0, 64, 63
1, 83405, Control_c, 0, 64, 65
1, 83413, Poly_aftertouch_c, 0, 67, 0
1, 83419, Control_c, 0, 64, 68
1, 83434, Control_c, 0, 64, 73
1, 83449, Control_c, 0, 64, 77
1, 83459, Note_off_c, 0, 35, 33
1, 83471, Control_c, 0, 64, 81
1, 83486, Control_c, 0, 64, 82
1, 83490, Note_off_c, 0, 61, 60
1, 83516, Control_c, 0, 64, 82
1, 83605, Control_c, 0, 64, 81
1, 83627, Note_on_c, 0, 72, 57
1, 83657, Note_off_c, 0, 70, 38
1, 83680, Control_c, 0, 64, 81
1, 83691, Note_off_c, 0, 72, 60
1, 83701, Note_on_c, 0, 71, 62
1, 83739, Control_c, 0, 64, 80
1, 83768, Control_c, 0, 64, 80
1, 83780, Note_on_c, 0, 77, 63
1, 83798, Control_c, 0, 64, 79
1, 83813, Control_c, 0, 64, 79
1, 83828, Control_c, 0, 64, 78
1, 83842, Control_c, 0, 64, 77
1, 83857, Control_c, 0, 64, 75
1, 83869, Note_on_c, 0, 76, 66
1, 83870, Note_off_c, 0, 77, 57
1, 83872, Control_c, 0, 64, 73
1, 83886, Control_c, 0, 64, 72
1, 83901, Control_c, 0, 64, 71
1, 83916, Control_c, 0, 64, 70
1, 83931, Control_c, 0, 64, 69
1, 83946, Control_c, 0, 64, 68
1, 83961, Control_c, 0, 64, 65
1, 83969, Note_on_c, 0, 62, 53
1, 83976, Control_c, 0, 64, 60
1, 83991, Control_c, 0, 64, 48
1, 84006, Control_c, 0, 64, 37
1, 84010, Note_off_c, 0, 62, 63
1, 84020, Control_c, 0, 64, 35
1, 84035, Control_c, 0, 64, 36
1, 84050, Control_c, 0, 64, 41
1, 84065, Control_c, 0, 64, 47
1, 84068, Note_on_c, 0, 61, 30
1, 84080, Control_c, 0, 64, 51
1, 84094, Control_c, 0, 64, 54
1, 84109, Control_c, 0, 64, 57
1, 84124, Control_c, 0, 64, 59
1, 84139, Control_c, 0, 64, 62
1, 84154, Control_c, 0, 64, 64
1, 84168, Control_c, 0, 64, 65
1, 84183, Control_c, 0, 64, 67
1, 84198, Control_c, 0, 64, 69
1, 84220, Control_c, 0, 64, 70
1, 84235, Control_c, 0, 64, 71
1, 84281, Note_off_c, 0, 71, 51
1, 84318, Note_on_c, 0, 70, 51
1, 84324, Control_c, 0, 64, 70
1, 84368, Control_c, 0, 64, 70
1, 84378, Note_off_c, 0, 61, 40
1, 84397, Note_on_c, 0, 69, 60
1, 84461, Note_on_c, 0, 75, 60
1, 84473, Control_c, 0, 64, 69
1, 84488, Note_off_c, 0, 76, 49
1, 84527, Note_off_c, 0, 70, 25
1, 84532, Control_c, 0, 64, 69
1, 84542, Note_on_c, 0, 74, 60
1, 84547, Control_c, 0, 64, 68
1, 84548, Note_off_c, 0, 75, 60
1, 84577, Control_c, 0, 64, 68
1, 84591, Control_c, 0, 64, 67
1, 84621, Control_c, 0, 64, 67
1, 84636, Control_c, 0, 64, 66
1, 84647, Note_on_c, 0, 60, 45
1, 84651, Control_c, 0, 64, 66
1, 84665, Control_c, 0, 64, 65
1, 84680, Control_c, 0, 64, 64
1, 84682, Note_off_c, 0, 60, 65
1, 84695, Control_c, 0, 64, 62
1, 84709, Control_c, 0, 64, 59
1, 84724, Control_c, 0, 64, 56
1, 84729, Note_on_c, 0, 59, 46
1, 84739, Control_c, 0, 64, 54
1, 84828, Control_c, 0, 64, 55
1, 84933, Control_c, 0, 64, 55
1, 84954, Note_off_c, 0, 69, 60
1, 84970, Control_c, 0, 64, 56
1, 84985, Control_c, 0, 64, 57
1, 84999, Control_c, 0, 64, 58
1, 85001, Note_on_c, 0, 68, 51
1, 85014, Control_c, 0, 64, 59
1, 85029, Control_c, 0, 64, 60
1, 85044, Note_off_c, 0, 68, 64
1, 85044, Control_c, 0, 64, 61
1, 85059, Control_c, 0, 64, 61
1, 85068, Note_on_c, 0, 67, 62
1, 85073, Control_c, 0, 64, 62
1, 85150, Note_on_c, 0, 73, 55
1, 85185, Note_off_c, 0, 74, 57
1, 85204, Note_on_c, 0, 72, 58
1, 85237, Control_c, 0, 64, 61
1, 85246, Note_off_c, 0, 73, 55
1, 85296, Note_off_c, 0, 59, 54
1, 85296, Control_c, 0, 64, 61
1, 85304, Note_on_c, 0, 58, 55
1, 85369, Note_off_c, 0, 58, 63
1, 85371, Control_c, 0, 64, 60
1, 85386, Control_c, 0, 64, 60
1, 85397, Note_on_c, 0, 57, 56
1, 85401, Control_c, 0, 64, 58
1, 85415, Control_c, 0, 64, 56
1, 85430, Control_c, 0, 64, 55
1, 85445, Control_c, 0, 64, 54
1, 85460, Control_c, 0, 64, 53
1, 85475, Control_c, 0, 64, 52
1, 85489, Control_c, 0, 64, 51
1, 85504, Control_c, 0, 64, 51
1, 85519, Control_c, 0, 64, 50
1, 85585, Note_off_c, 0, 67, 61
1, 85607, Control_c, 0, 64, 52
1, 85622, Control_c, 0, 64, 55
1, 85632, Note_on_c, 0, 66, 58
1, 85637, Control_c, 0, 64, 58
1, 85646, Note_off_c, 0, 57, 57
1, 85652, Control_c, 0, 64, 61
1, 85667, Control_c, 0, 64, 62
1, 85681, Control_c, 0, 64, 64
1, 85696, Control_c, 0, 64, 66
1, 85704, Note_off_c, 0, 66, 64
1, 85719, Control_c, 0, 64, 71
1, 85734, Control_c, 0, 64, 76
1, 85745, Note_on_c, 0, 65, 36
1, 85748, Control_c, 0, 64, 81
1, 85763, Control_c, 0, 64, 83
1, 85777, Note_off_c, 0, 65, 48
1, 85778, Control_c, 0, 64, 84
1, 85788, Note_on_c, 0, 71, 57
1, 85793, Control_c, 0, 64, 85
1, 85808, Control_c, 0, 64, 86
1, 85822, Control_c, 0, 64, 89
1, 85837, Control_c, 0, 64, 92
1, 85852, Control_c, 0, 64, 97
1, 85867, Control_c, 0, 64, 106
1, 85869, Note_off_c, 0, 72, 56
1, 85872, Note_on_c, 0, 70, 68
1, 85881, Note_off_c, 0, 71, 65
1, 85882, Control_c, 0, 64, 127
1, 85898, Note_off_c, 0, 70, 69
1, 85956, Note_on_c, 0, 80, 80
1, 86045, Control_c, 0, 64, 94
1, 86060, Control_c, 0, 64, 71
1, 86063, Note_on_c, 0, 35, 64
1, 86075, Control_c, 0, 64, 56
1, 86081, Note_off_c, 0, 80, 59
1, 86089, Note_on_c, 0, 79, 85
1, 86090, Control_c, 0, 64, 51
1, 86096, Note_off_c, 0, 35, 61
1, 86105, Control_c, 0, 64, 55
1, 86119, Control_c, 0, 64, 59
1, 86120, Note_on_c, 0, 71, 53
1, 86134, Control_c, 0, 64, 63
1, 86149, Control_c, 0, 64, 66
1, 86164, Control_c, 0, 64, 70
1, 86179, Control_c, 0, 64, 75
1, 86183, Note_off_c, 0, 79, 63
1, 86194, Control_c, 0, 64, 78
1, 86208, Control_c, 0, 64, 78
1, 86213, Note_on_c, 0, 62, 53
1, 86236, Note_off_c, 0, 62, 58
1, 86238, Control_c, 0, 64, 78
1, 86274, Note_off_c, 0, 71, 64
1, 86295, Note_on_c, 0, 61, 68
1, 86355, Note_on_c, 0, 69, 66
1, 86399, Control_c, 0, 64, 77
1, 86411, Note_off_c, 0, 69, 65
1, 86426, Note_on_c, 0, 68, 66
1, 86429, Control_c, 0, 64, 77
1, 86466, Control_c, 0, 64, 76
1, 86481, Control_c, 0, 64, 76
1, 86507, Note_on_c, 0, 52, 58
1, 86596, Note_on_c, 0, 51, 66
1, 86604, Note_off_c, 0, 52, 62
1, 86667, Note_on_c, 0, 78, 75
1, 86673, Control_c, 0, 64, 74
1, 86688, Control_c, 0, 64, 70
1, 86703, Control_c, 0, 64, 66
1, 86718, Control_c, 0, 64, 64
1, 86731, Note_on_c, 0, 77, 77
1, 86733, Control_c, 0, 64, 62
1, 86748, Control_c, 0, 64, 63
1, 86759, Note_off_c, 0, 78, 64
1, 86762, Control_c, 0, 64, 64
1, 86777, Control_c, 0, 64, 65
1, 86792, Control_c, 0, 64, 66
1, 86808, Control_c, 0, 64, 68
1, 86808, Note_off_c, 0, 77, 65
1, 86819, Note_on_c, 0, 60, 63
1, 86823, Control_c, 0, 64, 70
1, 86837, Note_off_c, 0, 61, 56
1, 86837, Control_c, 0, 64, 72
1, 86852, Control_c, 0, 64, 73
1, 86867, Control_c, 0, 64, 74
1, 86882, Control_c, 0, 64, 74
1, 86884, Note_off_c, 0, 60, 64
1, 86897, Control_c, 0, 64, 75
1, 86903, Note_on_c, 0, 59, 61
1, 86923, Note_off_c, 0, 68, 61
1, 86928, Note_off_c, 0, 51, 61
1, 86978, Note_on_c, 0, 67, 71
1, 87000, Control_c, 0, 64, 75
1, 87030, Control_c, 0, 64, 76
1, 87055, Note_on_c, 0, 66, 77
1, 87058, Note_off_c, 0, 67, 64
1, 87059, Control_c, 0, 64, 76
1, 87074, Control_c, 0, 64, 77
1, 87089, Control_c, 0, 64, 79
1, 87103, Control_c, 0, 64, 82
1, 87118, Control_c, 0, 64, 86
1, 87133, Control_c, 0, 64, 90
1, 87133, Control_c, 0, 66, 0
1, 87135, Note_on_c, 0, 50, 67
1, 87148, Control_c, 0, 64, 95
1, 87163, Control_c, 0, 64, 101
1, 87177, Control_c, 0, 64, 108
1, 87192, Control_c, 0, 64, 121
1, 87215, Control_c, 0, 64, 127
1, 87231, Note_on_c, 0, 49, 72
1, 87256, Note_off_c, 0, 50, 62
1, 87282, Note_off_c, 0, 66, 46
1, 87302, Note_on_c, 0, 76, 78
1, 87348, Control_c, 0, 64, 93
1, 87363, Control_c, 0, 64, 75
1, 87377, Note_on_c, 0, 75, 85
1, 87378, Control_c, 0, 64, 64
1, 87392, Control_c, 0, 64, 57
1, 87407, Control_c, 0, 64, 60
1, 87422, Control_c, 0, 64, 63
1, 87437, Control_c, 0, 64, 66
1, 87449, Note_on_c, 0, 58, 82
1, 87452, Control_c, 0, 64, 71
1, 87454, Note_off_c, 0, 59, 64
1, 87466, Control_c, 0, 64, 81
1, 87469, Note_off_c, 0, 76, 63
1, 87481, Control_c, 0, 64, 112
1, 87496, Control_c, 0, 64, 127
1, 87499, Note_off_c, 0, 75, 61
1, 87523, Note_off_c, 0, 58, 63
1, 87532, Note_on_c, 0, 57, 80
1, 87544, Note_off_c, 0, 49, 55
1, 87624, Note_on_c, 0, 65, 84
1, 87702, Note_on_c, 0, 64, 92
1, 87708, Note_off_c, 0, 65, 64
1, 87765, Note_on_c, 0, 48, 68
1, 87808, Control_c, 0, 64, 115
1, 87823, Control_c, 0, 64, 112
1, 87838, Control_c, 0, 64, 110
1, 87853, Control_c, 0, 64, 110
1, 87855, Note_on_c, 0, 47, 75
1, 87868, Control_c, 0, 64, 109
1, 87871, Note_off_c, 0, 48, 63
1, 87882, Control_c, 0, 64, 107
1, 87897, Control_c, 0, 64, 104
1, 87912, Control_c, 0, 64, 99
1, 87919, Note_on_c, 0, 74, 85
1, 87926, Control_c, 0, 64, 95
1, 87941, Control_c, 0, 64, 90
1, 87964, Control_c, 0, 64, 86
1, 87979, Control_c, 0, 64, 81
1, 87994, Control_c, 0, 64, 77
1, 88003, Note_on_c, 0, 73, 97
1, 88009, Control_c, 0, 64, 71
1, 88023, Control_c, 0, 64, 65
1, 88038, Control_c, 0, 64, 50
1, 88053, Control_c, 0, 64, 0
1, 88057, Note_on_c, 0, 56, 87
1, 88063, Note_off_c, 0, 57, 64
1, 88072, Note_off_c, 0, 74, 46
1, 88119, Note_off_c, 0, 47, 63
1, 88127, Note_off_c, 0, 56, 63
1, 88137, Note_on_c, 0, 55, 88
1, 88152, Note_off_c, 0, 73, 64
1, 88310, Note_off_c, 0, 64, 64
1, 88313, Note_on_c, 0, 62, 86
1, 88319, Control_c, 0, 64, 62
1, 88334, Control_c, 0, 64, 127
1, 88338, Note_off_c, 0, 62, 63
1, 88362, Note_on_c, 0, 46, 78
1, 88464, Note_on_c, 0, 45, 73
1, 88498, Note_off_c, 0, 55, 60
1, 88535, Note_on_c, 0, 75, 77
1, 88541, Note_on_c, 0, 85, 100
1, 88555, Note_off_c, 0, 46, 63
1, 88560, Note_off_c, 0, 45, 63
1, 88581, Note_off_c, 0, 75, 64
1, 88589, Note_off_c, 0, 85, 66
1, 88617, Control_c, 0, 64, 85
1, 88631, Control_c, 0, 64, 59
1, 88643, Note_on_c, 0, 84, 104
1, 88645, Note_on_c, 0, 76, 102
1, 88646, Control_c, 0, 64, 0
1, 88662, Note_on_c, 0, 32, 83
1, 88665, Note_on_c, 0, 44, 85
1, 88687, Note_off_c, 0, 44, 67
1, 88688, Note_off_c, 0, 32, 66
1, 88691, Control_c, 0, 64, 60
1, 88712, Control_c, 0, 64, 76
1, 88727, Control_c, 0, 64, 127
1, 88892, Note_on_c, 0, 68, 87
1, 88920, Note_off_c, 0, 68, 63
1, 88921, Note_on_c, 0, 58, 41
1, 88951, Note_off_c, 0, 58, 53
1, 88976, Note_on_c, 0, 67, 94
1, 88984, Note_on_c, 0, 59, 90
1, 89001, Note_off_c, 0, 76, 63
1, 89072, Note_off_c, 0, 84, 61
1, 89143, Note_on_c, 0, 83, 98
1, 89183, Note_off_c, 0, 83, 66
1, 89187, Note_on_c, 0, 84, 13
1, 89188, Note_off_c, 0, 84, 127
1, 89244, Note_on_c, 0, 75, 100
1, 89244, Note_on_c, 0, 85, 100
1, 89368, Note_off_c, 0, 75, 58
1, 89370, Note_off_c, 0, 85, 62
1, 89439, Note_on_c, 0, 66, 75
1, 89439, Note_off_c, 0, 59, 63
1, 89446, Note_on_c, 0, 84, 98
1, 89446, Note_off_c, 0, 67, 60
1, 89455, Note_on_c, 0, 76, 82
1, 89459, Note_on_c, 0, 60, 57
1, 89468, Note_off_c, 0, 84, 73
1, 89477, Note_off_c, 0, 76, 71
1, 89502, Note_off_c, 0, 66, 63
1, 89502, Note_off_c, 0, 60, 63
1, 89521, Control_c, 0, 64, 102
1, 89530, Note_on_c, 0, 83, 111
1, 89533, Note_on_c, 0, 77, 98
1, 89535, Control_c, 0, 64, 67
1, 89541, Note_on_c, 0, 58, 83
1, 89545, Note_on_c, 0, 68, 88
1, 89550, Control_c, 0, 64, 28
1, 89560, Poly_aftertouch_c, 0, 62, 0
1, 89565, Control_c, 0, 64, 0
1, 89580, Control_c, 0, 64, 12
1, 89595, Control_c, 0, 64, 48
1, 89610, Control_c, 0, 64, 63
1, 89625, Control_c, 0, 64, 76
1, 89636, Note_off_c, 0, 68, 59
1, 89639, Control_c, 0, 64, 102
1, 89642, Note_off_c, 0, 58, 61
1, 89654, Control_c, 0, 64, 127
1, 89736, Note_on_c, 0, 67, 80
1, 89741, Note_on_c, 0, 59, 68
1, 89776, Note_off_c, 0, 67, 60
1, 89794, Note_off_c, 0, 59, 52
1, 89807, Note_off_c, 0, 77, 61
1, 89815, Note_on_c, 0, 66, 93
1, 89823, Note_on_c, 0, 60, 78
1, 89950, Note_off_c, 0, 83, 58
1, 89977, Note_on_c, 0, 85, 96
1, 89979, Note_on_c, 0, 75, 94
1, 90000, Note_on_c, 0, 81, 10
1, 90000, Note_off_c, 0, 75, 66
1, 90018, Note_off_c, 0, 85, 66
1, 90037, Note_off_c, 0, 81, 0
1, 90057, Note_on_c, 0, 84, 100
1, 90058, Note_on_c, 0, 81, 43
1, 90061, Note_on_c, 0, 76, 90
1, 90069, Control_c, 0, 64, 107
1, 90084, Control_c, 0, 64, 71
1, 90099, Control_c, 0, 64, 24
1, 90105, Note_off_c, 0, 81, 57
1, 90114, Control_c, 0, 64, 0
1, 90188, Control_c, 0, 64, 9
1, 90210, Control_c, 0, 64, 42
1, 90225, Control_c, 0, 64, 57
1, 90240, Control_c, 0, 64, 64
1, 90255, Control_c, 0, 64, 68
1, 90270, Control_c, 0, 64, 75
1, 90274, Note_on_c, 0, 58, 51
1, 90278, Note_on_c, 0, 68, 64
1, 90284, Control_c, 0, 64, 89
1, 90299, Control_c, 0, 64, 115
1, 90306, Note_off_c, 0, 60, 28
1, 90314, Control_c, 0, 64, 127
1, 90334, Note_off_c, 0, 58, 63
1, 90371, Note_off_c, 0, 66, 54
1, 90373, Note_off_c, 0, 68, 62
1, 90386, Note_on_c, 0, 59, 61
1, 90392, Note_on_c, 0, 67, 66
1, 90477, Note_off_c, 0, 76, 60
1, 90519, Note_off_c, 0, 84, 63
1, 90555, Note_off_c, 0, 59, 63
1, 90563, Note_off_c, 0, 67, 49
1, 90567, Note_on_c, 0, 66, 80
1, 90570, Note_on_c, 0, 83, 98
1, 90575, Note_on_c, 0, 60, 64
1, 90601, Note_on_c, 0, 61, 33
1, 90602, Note_off_c, 0, 60, 68
1, 90607, Note_off_c, 0, 83, 64
1, 90610, Control_c, 0, 64, 119
1, 90615, Note_off_c, 0, 66, 62
1, 90625, Control_c, 0, 64, 78
1, 90636, Note_off_c, 0, 61, 32
1, 90640, Control_c, 0, 64, 61
1, 90655, Control_c, 0, 64, 43
1, 90662, Note_on_c, 0, 58, 87
1, 90662, Note_on_c, 0, 75, 101
1, 90663, Note_on_c, 0, 68, 88
1, 90665, Note_on_c, 0, 85, 104
1, 90670, Control_c, 0, 64, 50
1, 90684, Control_c, 0, 64, 59
1, 90699, Control_c, 0, 64, 67
1, 90714, Control_c, 0, 64, 78
1, 90728, Control_c, 0, 64, 127
1, 90779, Note_off_c, 0, 58, 63
1, 90808, Note_off_c, 0, 85, 62
1, 90817, Note_off_c, 0, 75, 61
1, 90819, Note_off_c, 0, 68, 61
1, 90835, Poly_aftertouch_c, 0, 61, 127
1, 90874, Poly_aftertouch_c, 0, 61, 0
1, 90880, Note_on_c, 0, 84, 101
1, 90881, Note_on_c, 0, 76, 96
1, 90883, Note_on_c, 0, 67, 84
1, 90887, Note_on_c, 0, 59, 77
1, 90907, Control_c, 0, 64, 82
1, 90922, Control_c, 0, 64, 58
1, 90934, Note_off_c, 0, 76, 64
1, 90936, Note_off_c, 0, 84, 65
1, 90937, Control_c, 0, 64, 0
1, 90939, Note_off_c, 0, 67, 62
1, 90974, Control_c, 0, 64, 35
1, 90982, Note_on_c, 0, 83, 104
1, 90983, Note_off_c, 0, 59, 52
1, 90984, Note_on_c, 0, 66, 88
1, 90989, Control_c, 0, 64, 58
1, 90998, Note_on_c, 0, 60, 53
1, 90998, Note_on_c, 0, 84, 57
1, 91004, Control_c, 0, 64, 69
1, 91016, Note_off_c, 0, 84, 61
1, 91019, Control_c, 0, 64, 86
1, 91020, Note_off_c, 0, 60, 58
1, 91027, Note_off_c, 0, 66, 61
1, 91033, Control_c, 0, 64, 127
1, 91074, Note_off_c, 0, 83, 64
1, 91166, Control_c, 0, 64, 105
1, 91181, Control_c, 0, 64, 65
1, 91196, Control_c, 0, 64, 0
1, 91201, Note_on_c, 0, 89, 98
1, 91202, Note_on_c, 0, 61, 63
1, 91213, Note_on_c, 0, 90, 73
1, 91218, Note_on_c, 0, 62, 63
1, 91222, Note_on_c, 0, 67, 68
1, 91255, Note_off_c, 0, 90, 0
1, 91255, Control_c, 0, 64, 34
1, 91270, Control_c, 0, 64, 66
1, 91279, Note_on_c, 0, 71, 69
1, 91285, Control_c, 0, 64, 89
1, 91292, Poly_aftertouch_c, 0, 90, 127
1, 91300, Control_c, 0, 64, 127
1, 91301, Note_off_c, 0, 67, 64
1, 91306, Note_off_c, 0, 62, 63
1, 91306, Note_off_c, 0, 89, 59
1, 91315, Note_on_c, 0, 90, 3
1, 91320, Note_off_c, 0, 90, 56
1, 91323, Note_off_c, 0, 61, 61
1, 91345, Note_off_c, 0, 71, 63
1, 91391, Note_on_c, 0, 74, 104
1, 91393, Note_on_c, 0, 89, 104
1, 91676, Note_on_c, 0, 84, 88
1, 91759, Note_off_c, 0, 84, 63
1, 91762, Note_on_c, 0, 83, 93
1, 91789, Note_off_c, 0, 89, 62
1, 91959, Note_on_c, 0, 88, 94
1, 91967, Note_off_c, 0, 83, 38
1, 92006, Note_off_c, 0, 88, 64
1, 92009, Note_off_c, 0, 74, 58
1, 92036, Note_on_c, 0, 88, 72
1, 92042, Note_on_c, 0, 87, 98
1, 92067, Note_off_c, 0, 88, 63
1, 92256, Note_on_c, 0, 82, 94
1, 92335, Note_off_c, 0, 87, 49
1, 92381, Note_on_c, 0, 81, 100
1, 92405, Note_on_c, 0, 73, 81
1, 92416, Note_off_c, 0, 82, 63
1, 92495, Note_on_c, 0, 72, 83
1, 92513, Note_off_c, 0, 73, 65
1, 92518, Note_off_c, 0, 72, 69
1, 92600, Note_on_c, 0, 86, 98
1, 92623, Note_on_c, 0, 56, 75
1, 92635, Control_c, 0, 64, 80
1, 92650, Control_c, 0, 64, 63
1, 92665, Control_c, 0, 64, 47
1, 92680, Control_c, 0, 64, 53
1, 92680, Note_on_c, 0, 62, 50
1, 92695, Control_c, 0, 64, 59
1, 92710, Control_c, 0, 64, 65
1, 92716, Note_off_c, 0, 56, 60
1, 92723, Note_on_c, 0, 67, 69
1, 92723, Note_off_c, 0, 62, 65
1, 92725, Control_c, 0, 64, 75
1, 92740, Control_c, 0, 64, 105
1, 92745, Note_on_c, 0, 85, 90
1, 92754, Control_c, 0, 64, 127
1, 92764, Note_off_c, 0, 86, 59
1, 92786, Note_off_c, 0, 67, 58
1, 92791, Note_off_c, 0, 81, 64
1, 92810, Note_off_c, 0, 85, 66
1, 92829, Note_on_c, 0, 71, 71
1, 92865, Note_on_c, 0, 81, 88
1, 92868, Note_on_c, 0, 84, 94
1, 92951, Note_off_c, 0, 81, 62
1, 92954, Note_on_c, 0, 80, 84
1, 92995, Note_off_c, 0, 84, 63
1, 93039, Note_off_c, 0, 80, 58
1, 93044, Note_on_c, 0, 79, 77
1, 93059, Note_on_c, 0, 83, 87
1, 93149, Note_on_c, 0, 82, 90
1, 93151, Note_off_c, 0, 83, 66
1, 93172, Note_off_c, 0, 79, 63
1, 93202, Note_off_c, 0, 82, 67
1, 93237, Note_on_c, 0, 79, 78
1, 93253, Note_on_c, 0, 81, 86
1, 93338, Note_off_c, 0, 79, 62
1, 93339, Note_on_c, 0, 78, 86
1, 93375, Note_off_c, 0, 81, 66
1, 93381, Note_off_c, 0, 71, 63
1, 93434, Note_on_c, 0, 80, 89
1, 93461, Note_off_c, 0, 78, 61
1, 93467, Note_on_c, 0, 77, 19
1, 93479, Note_off_c, 0, 80, 67
1, 93505, Note_off_c, 0, 77, 39
1, 93529, Note_on_c, 0, 79, 92
1, 93635, Note_on_c, 0, 78, 91
1, 93635, Control_c, 0, 64, 121
1, 93650, Control_c, 0, 64, 75
1, 93663, Note_off_c, 0, 79, 64
1, 93665, Control_c, 0, 64, 55
1, 93678, Note_on_c, 0, 53, 51
1, 93680, Control_c, 0, 64, 0
1, 93709, Control_c, 0, 64, 35
1, 93716, Note_off_c, 0, 78, 68
1, 93724, Control_c, 0, 64, 57
1, 93739, Control_c, 0, 64, 66
1, 93752, Note_on_c, 0, 59, 49
1, 93753, Note_on_c, 0, 77, 91
1, 93753, Control_c, 0, 64, 77
1, 93768, Control_c, 0, 64, 103
1, 93783, Control_c, 0, 64, 127
1, 93854, Note_on_c, 0, 76, 81
1, 93860, Note_off_c, 0, 53, 58
1, 93870, Note_on_c, 0, 75, 64
1, 93873, Note_off_c, 0, 59, 61
1, 93884, Note_off_c, 0, 77, 63
1, 93888, Note_on_c, 0, 64, 53
1, 93911, Note_off_c, 0, 75, 55
1, 93936, Note_off_c, 0, 76, 60
1, 93968, Note_off_c, 0, 64, 57
1, 94029, Note_on_c, 0, 69, 66
1, 94045, Note_on_c, 0, 74, 92
1, 94061, Note_off_c, 0, 69, 66
1, 94317, Note_on_c, 0, 69, 73
1, 94394, Note_off_c, 0, 69, 64
1, 94397, Note_on_c, 0, 68, 76
1, 94462, Note_off_c, 0, 68, 56
1, 94588, Note_off_c, 0, 74, 60
1, 94591, Note_on_c, 0, 73, 83
1, 94630, Note_off_c, 0, 73, 67
1, 94678, Note_on_c, 0, 72, 85
1, 94714, Note_on_c, 0, 71, 46
1, 94715, Note_off_c, 0, 71, 127
1, 94911, Note_on_c, 0, 67, 75
1, 94970, Control_c, 0, 64, 89
1, 94985, Control_c, 0, 64, 72
1, 94999, Control_c, 0, 64, 64
1, 95014, Control_c, 0, 64, 62
1, 95029, Control_c, 0, 64, 64
1, 95044, Control_c, 0, 64, 66
1, 95048, Note_on_c, 0, 66, 87
1, 95059, Control_c, 0, 64, 67
1, 95064, Note_on_c, 0, 63, 55
1, 95074, Control_c, 0, 64, 69
1, 95089, Control_c, 0, 64, 70
1, 95103, Control_c, 0, 64, 70
1, 95148, Control_c, 0, 64, 70
1, 95162, Note_on_c, 0, 62, 63
1, 95169, Note_off_c, 0, 63, 62
1, 95192, Note_off_c, 0, 62, 66
1, 95207, Control_c, 0, 64, 69
1, 95208, Note_off_c, 0, 72, 58
1, 95267, Control_c, 0, 64, 69
1, 95311, Control_c, 0, 64, 68
1, 95326, Control_c, 0, 64, 68
1, 95330, Note_on_c, 0, 71, 75
1, 95340, Control_c, 0, 64, 67
1, 95351, Note_off_c, 0, 66, 16
1, 95355, Control_c, 0, 64, 66
1, 95357, Note_on_c, 0, 47, 53
1, 95370, Control_c, 0, 64, 66
1, 95385, Control_c, 0, 64, 65
1, 95399, Control_c, 0, 64, 65
1, 95450, Note_on_c, 0, 52, 50
1, 95452, Control_c, 0, 64, 64
1, 95486, Note_on_c, 0, 60, 59
1, 95488, Note_on_c, 0, 70, 77
1, 95488, Note_off_c, 0, 67, 61
1, 95496, Control_c, 0, 64, 64
1, 95505, Note_off_c, 0, 71, 61
1, 95526, Control_c, 0, 64, 63
1, 95541, Note_off_c, 0, 70, 64
1, 95555, Control_c, 0, 64, 63
1, 95601, Control_c, 0, 64, 62
1, 95601, Note_on_c, 0, 66, 77
1, 95660, Control_c, 0, 64, 62
1, 95735, Note_on_c, 0, 69, 73
1, 95794, Note_off_c, 0, 66, 58
1, 95831, Note_on_c, 0, 64, 54
1, 95864, Note_off_c, 0, 69, 64
1, 95865, Note_on_c, 0, 68, 75
1, 95896, Control_c, 0, 64, 61
1, 95920, Note_off_c, 0, 68, 63
1, 95926, Control_c, 0, 64, 61
1, 95941, Control_c, 0, 64, 60
1, 95956, Control_c, 0, 64, 60
1, 95963, Note_on_c, 0, 67, 76
1, 95968, Note_off_c, 0, 64, 34
1, 95971, Control_c, 0, 64, 59
1, 95986, Control_c, 0, 64, 57
1, 96001, Control_c, 0, 64, 56
1, 96016, Control_c, 0, 64, 54
1, 96030, Control_c, 0, 64, 52
1, 96045, Control_c, 0, 64, 51
1, 96048, Note_on_c, 0, 64, 50
1, 96060, Control_c, 0, 64, 50
1, 96075, Control_c, 0, 64, 49
1, 96078, Note_off_c, 0, 67, 62
1, 96089, Control_c, 0, 64, 48
1, 96096, Note_on_c, 0, 66, 66
1, 96104, Control_c, 0, 64, 47
1, 96135, Control_c, 0, 64, 47
1, 96164, Note_on_c, 0, 63, 64
1, 96170, Note_off_c, 0, 64, 58
1, 96179, Control_c, 0, 64, 46
1, 96242, Note_off_c, 0, 63, 58
1, 96273, Note_off_c, 0, 66, 57
1, 96281, Note_on_c, 0, 65, 65
1, 96396, Note_on_c, 0, 64, 66
1, 96424, Control_c, 0, 64, 46
1, 96528, Control_c, 0, 64, 45
1, 96537, Note_on_c, 0, 63, 50
1, 96540, Note_on_c, 0, 61, 57
1, 96541, Note_off_c, 0, 60, 39
1, 96559, Note_off_c, 0, 47, 37
1, 96565, Note_off_c, 0, 52, 35
1, 96611, Note_off_c, 0, 61, 62
1, 96626, Note_on_c, 0, 62, 64
1, 96631, Note_off_c, 0, 65, 25
1, 96632, Control_c, 0, 64, 45
1, 96646, Control_c, 0, 64, 44
1, 96661, Control_c, 0, 64, 39
1, 96676, Control_c, 0, 64, 29
1, 96679, Note_off_c, 0, 64, 22
1, 96681, Note_off_c, 0, 62, 59
1, 96691, Control_c, 0, 64, 0
1, 96713, Note_on_c, 0, 61, 53
1, 96745, Note_off_c, 0, 63, 62
1, 96774, Note_off_c, 0, 61, 59
1, 96780, Note_on_c, 0, 60, 57
1, 96840, Note_off_c, 0, 60, 62
1, 96871, Note_on_c, 0, 59, 52
1, 96874, Note_on_c, 0, 52, 40
1, 96884, Note_on_c, 0, 48, 44
1, 96898, Control_c, 0, 67, 13
1, 96912, Control_c, 0, 67, 33
1, 96927, Control_c, 0, 67, 53
1, 96949, Control_c, 0, 67, 78
1, 96964, Control_c, 0, 67, 102
1, 96978, Control_c, 0, 67, 124
1, 96993, Control_c, 0, 67, 127
1, 97138, Note_on_c, 0, 64, 53
1, 97190, Note_off_c, 0, 64, 56
1, 97250, Note_on_c, 0, 67, 35
1, 97337, Note_off_c, 0, 52, 61
1, 97400, Note_off_c, 0, 67, 59
1, 97472, Note_on_c, 0, 64, 45
1, 97479, Note_on_c, 0, 58, 62
1, 97513, Control_c, 0, 64, 21
1, 97527, Note_off_c, 0, 59, 63
1, 97528, Control_c, 0, 64, 33
1, 97537, Note_off_c, 0, 64, 52
1, 97542, Control_c, 0, 64, 42
1, 97557, Control_c, 0, 64, 47
1, 97569, Note_on_c, 0, 76, 58
1, 97572, Control_c, 0, 64, 52
1, 97587, Control_c, 0, 64, 56
1, 97601, Control_c, 0, 64, 59
1, 97608, Note_off_c, 0, 76, 65
1, 97616, Control_c, 0, 64, 61
1, 97631, Control_c, 0, 64, 63
1, 97646, Control_c, 0, 64, 65
1, 97650, Note_on_c, 0, 60, 81
1, 97660, Control_c, 0, 64, 66
1, 97675, Control_c, 0, 64, 69
1, 97697, Control_c, 0, 64, 72
1, 97712, Control_c, 0, 64, 77
1, 97720, Note_off_c, 0, 58, 59
1, 97727, Control_c, 0, 64, 83
1, 97742, Control_c, 0, 64, 90
1, 97756, Control_c, 0, 64, 99
1, 97771, Control_c, 0, 64, 114
1, 97786, Control_c, 0, 64, 127
1, 97789, Note_off_c, 0, 60, 60
1, 97895, Note_on_c, 0, 59, 80
1, 97919, Note_off_c, 0, 59, 69
1, 97935, Note_off_c, 0, 48, 63
1, 97975, Note_on_c, 0, 58, 92
1, 97979, Control_c, 0, 64, 108
1, 97995, Control_c, 0, 64, 76
1, 98010, Control_c, 0, 64, 60
1, 98022, Note_on_c, 0, 43, 68
1, 98024, Control_c, 0, 64, 35
1, 98039, Control_c, 0, 64, 26
1, 98054, Control_c, 0, 64, 36
1, 98069, Control_c, 0, 64, 49
1, 98084, Control_c, 0, 64, 56
1, 98098, Control_c, 0, 64, 60
1, 98113, Control_c, 0, 64, 62
1, 98128, Control_c, 0, 64, 64
1, 98143, Control_c, 0, 64, 66
1, 98147, Note_off_c, 0, 43, 63
1, 98158, Control_c, 0, 64, 68
1, 98172, Control_c, 0, 64, 69
1, 98187, Control_c, 0, 64, 70
1, 98195, Note_on_c, 0, 60, 81
1, 98218, Note_off_c, 0, 58, 61
1, 98231, Control_c, 0, 64, 70
1, 98246, Control_c, 0, 64, 70
1, 98261, Control_c, 0, 64, 69
1, 98276, Control_c, 0, 64, 64
1, 98287, Note_on_c, 0, 59, 87
1, 98288, Note_on_c, 0, 45, 56
1, 98290, Control_c, 0, 64, 47
1, 98302, Note_off_c, 0, 60, 64
1, 98305, Control_c, 0, 64, 0
1, 98315, Note_on_c, 0, 52, 58
1, 98409, Control_c, 0, 64, 35
1, 98424, Control_c, 0, 64, 55
1, 98446, Control_c, 0, 64, 63
1, 98461, Control_c, 0, 64, 66
1, 98476, Control_c, 0, 64, 70
1, 98490, Control_c, 0, 64, 74
1, 98505, Control_c, 0, 64, 81
1, 98520, Control_c, 0, 64, 90
1, 98535, Control_c, 0, 64, 99
1, 98541, Note_on_c, 0, 64, 63
1, 98550, Control_c, 0, 64, 100
1, 98564, Control_c, 0, 64, 89
1, 98579, Control_c, 0, 64, 75
1, 98594, Control_c, 0, 64, 64
1, 98606, Note_off_c, 0, 64, 58
1, 98609, Control_c, 0, 64, 56
1, 98624, Control_c, 0, 64, 58
1, 98636, Note_on_c, 0, 67, 59
1, 98639, Control_c, 0, 64, 61
1, 98654, Control_c, 0, 64, 63
1, 98669, Control_c, 0, 64, 65
1, 98684, Control_c, 0, 64, 67
1, 98698, Control_c, 0, 64, 71
1, 98713, Control_c, 0, 64, 74
1, 98716, Note_off_c, 0, 59, 59
1, 98728, Control_c, 0, 64, 77
1, 98742, Control_c, 0, 64, 79
1, 98757, Control_c, 0, 64, 80
1, 98761, Note_off_c, 0, 67, 51
1, 98772, Control_c, 0, 64, 81
1, 98833, Control_c, 0, 64, 80
1, 98860, Note_on_c, 0, 58, 78
1, 98871, Note_on_c, 0, 64, 48
1, 98877, Control_c, 0, 64, 80
1, 98963, Note_off_c, 0, 58, 62
1, 98966, Control_c, 0, 64, 79
1, 98981, Control_c, 0, 64, 77
1, 98995, Control_c, 0, 64, 70
1, 99010, Note_on_c, 0, 59, 68
1, 99010, Control_c, 0, 64, 62
1, 99016, Note_on_c, 0, 73, 57
1, 99025, Control_c, 0, 64, 32
1, 99039, Control_c, 0, 64, 0
1, 99143, Control_c, 0, 64, 33
1, 99157, Control_c, 0, 64, 46
1, 99172, Control_c, 0, 64, 54
1, 99194, Control_c, 0, 64, 60
1, 99209, Control_c, 0, 64, 62
1, 99211, Note_off_c, 0, 59, 58
1, 99224, Control_c, 0, 64, 63
1, 99238, Control_c, 0, 64, 64
1, 99253, Control_c, 0, 64, 65
1, 99268, Control_c, 0, 64, 66
1, 99283, Control_c, 0, 64, 66
1, 99298, Control_c, 0, 64, 67
1, 99336, Note_on_c, 0, 58, 60
1, 99357, Control_c, 0, 64, 65
1, 99372, Control_c, 0, 64, 61
1, 99387, Control_c, 0, 64, 49
1, 99402, Control_c, 0, 64, 33
1, 99417, Control_c, 0, 64, 13
1, 99424, Note_off_c, 0, 58, 59
1, 99432, Control_c, 0, 64, 9
1, 99442, Note_off_c, 0, 64, 55
1, 99446, Control_c, 0, 64, 13
1, 99461, Control_c, 0, 64, 31
1, 99464, Note_on_c, 0, 57, 52
1, 99476, Control_c, 0, 64, 47
1, 99491, Control_c, 0, 64, 56
1, 99506, Control_c, 0, 64, 60
1, 99516, Note_off_c, 0, 73, 64
1, 99520, Control_c, 0, 64, 62
1, 99535, Control_c, 0, 64, 65
1, 99550, Control_c, 0, 64, 67
1, 99564, Control_c, 0, 64, 70
1, 99579, Control_c, 0, 64, 73
1, 99583, Note_off_c, 0, 45, 61
1, 99596, Control_c, 0, 64, 77
1, 99601, Note_off_c, 0, 52, 62
1, 99610, Control_c, 0, 64, 80
1, 99625, Control_c, 0, 64, 84
1, 99631, Note_off_c, 0, 57, 64
1, 99640, Control_c, 0, 64, 88
1, 99655, Control_c, 0, 64, 91
1, 99669, Control_c, 0, 64, 92
1, 99684, Control_c, 0, 64, 93
1, 99699, Control_c, 0, 64, 93
1, 99714, Control_c, 0, 64, 94
1, 99729, Control_c, 0, 64, 95
1, 99743, Control_c, 0, 64, 96
1, 99758, Control_c, 0, 64, 96
1, 99803, Control_c, 0, 64, 96
1, 99817, Control_c, 0, 64, 94
1, 99819, Note_on_c, 0, 88, 63
1, 99832, Control_c, 0, 64, 90
1, 99845, Note_on_c, 0, 75, 56
1, 99847, Control_c, 0, 64, 82
1, 99861, Control_c, 0, 64, 71
1, 99870, Note_off_c, 0, 88, 60
1, 99877, Control_c, 0, 64, 64
1, 99892, Control_c, 0, 64, 57
1, 99907, Control_c, 0, 64, 52
1, 99919, Note_off_c, 0, 75, 54
1, 99922, Control_c, 0, 64, 49
1, 99932, Note_on_c, 0, 73, 53
1, 99943, Note_on_c, 0, 91, 59
1, 99944, Note_on_c, 0, 79, 52
1, 99944, Control_c, 0, 64, 48
1, 99959, Control_c, 0, 64, 47
1, 99974, Control_c, 0, 64, 46
1, 99988, Control_c, 0, 64, 45
1, 100003, Control_c, 0, 64, 44
1, 100018, Control_c, 0, 64, 42
1, 100033, Control_c, 0, 64, 40
1, 100048, Control_c, 0, 64, 36
1, 100062, Control_c, 0, 64, 31
1, 100077, Control_c, 0, 64, 26
1, 100092, Control_c, 0, 64, 19
1, 100107, Control_c, 0, 64, 12
1, 100122, Control_c, 0, 64, 11
1, 100136, Control_c, 0, 64, 9
1, 100166, Control_c, 0, 64, 13
1, 100181, Control_c, 0, 64, 27
1, 100186, Note_on_c, 0, 65, 58
1, 100195, Control_c, 0, 64, 43
1, 100199, Note_off_c, 0, 91, 59
1, 100205, Note_off_c, 0, 79, 58
1, 100210, Control_c, 0, 64, 54
1, 100225, Note_off_c, 0, 73, 64
1, 100225, Control_c, 0, 64, 59
1, 100240, Control_c, 0, 64, 62
1, 100255, Control_c, 0, 64, 64
1, 100269, Control_c, 0, 64, 67
1, 100284, Note_on_c, 0, 64, 64
1, 100284, Control_c, 0, 64, 72
1, 100299, Control_c, 0, 64, 78
1, 100314, Control_c, 0, 64, 85
1, 100319, Note_off_c, 0, 65, 60
1, 100329, Control_c, 0, 64, 91
1, 100344, Control_c, 0, 64, 100
1, 100359, Control_c, 0, 64, 110
1, 100374, Control_c, 0, 64, 127
1, 100478, Note_on_c, 0, 72, 56
1, 100478, Control_c, 0, 64, 123
1, 100492, Note_on_c, 0, 85, 77
1, 100493, Control_c, 0, 64, 109
1, 100505, Note_on_c, 0, 73, 54
1, 100508, Control_c, 0, 64, 98
1, 100523, Control_c, 0, 64, 89
1, 100525, Note_off_c, 0, 73, 63
1, 100532, Poly_aftertouch_c, 0, 82, 127
1, 100538, Control_c, 0, 64, 81
1, 100541, Note_off_c, 0, 64, 61
1, 100553, Control_c, 0, 64, 74
1, 100567, Control_c, 0, 64, 69
1, 100570, Note_off_c, 0, 72, 59
1, 100582, Control_c, 0, 64, 65
1, 100585, Poly_aftertouch_c, 0, 82, 0
1, 100597, Control_c, 0, 64, 61
1, 100599, Note_on_c, 0, 70, 51
1, 100609, Note_on_c, 0, 88, 77
1, 100611, Control_c, 0, 64, 55
1, 100615, Note_on_c, 0, 76, 64
1, 100626, Control_c, 0, 64, 50
1, 100641, Control_c, 0, 64, 43
1, 100656, Control_c, 0, 64, 33
1, 100671, Control_c, 0, 64, 0
1, 100714, Note_off_c, 0, 85, 58
1, 100857, Note_on_c, 0, 62, 54
1, 100868, Note_off_c, 0, 76, 63
1, 100900, Control_c, 0, 64, 40
1, 100915, Control_c, 0, 64, 53
1, 100930, Control_c, 0, 64, 61
1, 100941, Note_off_c, 0, 88, 65
1, 100945, Control_c, 0, 64, 66
1, 100959, Control_c, 0, 64, 74
1, 100969, Note_on_c, 0, 61, 68
1, 100974, Control_c, 0, 64, 91
1, 100989, Control_c, 0, 64, 127
1, 101006, Note_off_c, 0, 62, 64
1, 101015, Note_off_c, 0, 70, 62
1, 101018, Control_c, 0, 67, 123
1, 101033, Control_c, 0, 67, 115
1, 101046, Note_off_c, 0, 61, 48
1, 101048, Control_c, 0, 67, 107
1, 101063, Control_c, 0, 67, 95
1, 101078, Control_c, 0, 67, 80
1, 101092, Control_c, 0, 67, 67
1, 101107, Control_c, 0, 67, 50
1, 101122, Control_c, 0, 67, 30
1, 101137, Control_c, 0, 67, 11
1, 101152, Control_c, 0, 67, 0
1, 101173, Note_on_c, 0, 62, 44
1, 101198, Note_on_c, 0, 98, 83
1, 101204, Note_on_c, 0, 64, 51
1, 101226, Note_on_c, 0, 86, 48
1, 101247, Note_off_c, 0, 86, 61
1, 101256, Control_c, 0, 64, 90
1, 101271, Control_c, 0, 64, 70
1, 101286, Control_c, 0, 64, 62
1, 101301, Control_c, 0, 64, 53
1, 101316, Control_c, 0, 64, 51
1, 101331, Control_c, 0, 64, 53
1, 101342, Note_on_c, 0, 97, 82
1, 101345, Control_c, 0, 64, 55
1, 101354, Note_on_c, 0, 69, 54
1, 101359, Note_on_c, 0, 67, 52
1, 101360, Control_c, 0, 64, 59
1, 101368, Note_on_c, 0, 85, 69
1, 101375, Control_c, 0, 64, 62
1, 101390, Control_c, 0, 64, 64
1, 101405, Control_c, 0, 64, 66
1, 101420, Control_c, 0, 64, 69
1, 101420, Note_off_c, 0, 62, 56
1, 101420, Note_off_c, 0, 98, 55
1, 101435, Note_off_c, 0, 64, 63
1, 101441, Control_c, 0, 64, 74
1, 101456, Control_c, 0, 64, 80
1, 101471, Control_c, 0, 64, 87
1, 101486, Control_c, 0, 64, 94
1, 101501, Control_c, 0, 64, 99
1, 101515, Control_c, 0, 64, 101
1, 101530, Control_c, 0, 64, 103
1, 101573, Note_off_c, 0, 97, 57
1, 101582, Note_off_c, 0, 85, 63
1, 101590, Control_c, 0, 64, 104
1, 101605, Control_c, 0, 64, 106
1, 101613, Note_off_c, 0, 69, 57
1, 101614, Note_off_c, 0, 67, 57
1, 101618, Note_on_c, 0, 60, 45
1, 101635, Control_c, 0, 64, 94
1, 101644, Note_on_c, 0, 96, 69
1, 101647, Note_on_c, 0, 62, 43
1, 101649, Control_c, 0, 64, 76
1, 101653, Note_on_c, 0, 84, 54
1, 101664, Control_c, 0, 64, 62
1, 101679, Control_c, 0, 64, 34
1, 101694, Control_c, 0, 64, 0
1, 101694, Poly_aftertouch_c, 0, 92, 127
1, 101703, Note_off_c, 0, 84, 62
1, 101738, Control_c, 0, 64, 13
1, 101753, Control_c, 0, 64, 35
1, 101763, Note_off_c, 0, 96, 64
1, 101768, Control_c, 0, 64, 48
1, 101781, Note_on_c, 0, 95, 66
1, 101783, Control_c, 0, 64, 54
1, 101797, Control_c, 0, 64, 58
1, 101802, Note_on_c, 0, 67, 37
1, 101812, Control_c, 0, 64, 61
1, 101818, Poly_aftertouch_c, 0, 92, 0
1, 101819, Note_on_c, 0, 65, 22
1, 101827, Control_c, 0, 64, 65
1, 101834, Note_on_c, 0, 83, 43
1, 101841, Control_c, 0, 64, 70
1, 101842, Note_off_c, 0, 95, 65
1, 101856, Control_c, 0, 64, 78
1, 101863, Note_off_c, 0, 83, 62
1, 101871, Control_c, 0, 64, 91
1, 101886, Control_c, 0, 64, 108
1, 101901, Control_c, 0, 64, 127
1, 102042, Note_on_c, 0, 74, 56
1, 102070, Note_off_c, 0, 67, 61
1, 102079, Control_c, 0, 64, 92
1, 102086, Note_off_c, 0, 62, 63
1, 102094, Control_c, 0, 64, 75
1, 102098, Note_off_c, 0, 60, 61
1, 102100, Note_off_c, 0, 65, 53
1, 102109, Control_c, 0, 64, 61
1, 102116, Note_on_c, 0, 75, 66
1, 102116, Note_off_c, 0, 74, 62
1, 102124, Control_c, 0, 64, 39
1, 102138, Control_c, 0, 64, 0
1, 102212, Note_on_c, 0, 78, 58
1, 102227, Note_off_c, 0, 75, 58
1, 102350, Note_on_c, 0, 63, 35
1, 102362, Note_on_c, 0, 65, 56
1, 102377, Note_on_c, 0, 58, 53
1, 102439, Note_off_c, 0, 65, 63
1, 102442, Control_c, 0, 64, 33
1, 102445, Note_on_c, 0, 66, 62
1, 102457, Control_c, 0, 64, 47
1, 102472, Control_c, 0, 64, 55
1, 102487, Control_c, 0, 64, 60
1, 102502, Control_c, 0, 64, 62
1, 102517, Control_c, 0, 64, 63
1, 102532, Control_c, 0, 64, 63
1, 102545, Note_on_c, 0, 69, 67
1, 102546, Control_c, 0, 64, 64
1, 102561, Control_c, 0, 64, 65
1, 102564, Note_off_c, 0, 66, 54
1, 102576, Control_c, 0, 64, 66
1, 102647, Note_off_c, 0, 78, 36
1, 102660, Note_off_c, 0, 69, 62
1, 102664, Control_c, 0, 64, 65
1, 102678, Note_on_c, 0, 71, 61
1, 102679, Control_c, 0, 64, 64
1, 102681, Note_off_c, 0, 63, 62
1, 102694, Control_c, 0, 64, 61
1, 102699, Note_off_c, 0, 58, 63
1, 102709, Control_c, 0, 64, 57
1, 102724, Control_c, 0, 64, 49
1, 102738, Control_c, 0, 64, 37
1, 102753, Control_c, 0, 64, 0
1, 102758, Note_on_c, 0, 72, 61
1, 102768, Note_off_c, 0, 71, 58
1, 102848, Note_on_c, 0, 75, 52
1, 102864, Note_off_c, 0, 72, 57
1, 102977, Note_on_c, 0, 62, 59
1, 102990, Note_on_c, 0, 55, 50
1, 103009, Note_off_c, 0, 75, 63
1, 103027, Note_on_c, 0, 60, 36
1, 103029, Control_c, 0, 64, 21
1, 103033, Note_off_c, 0, 62, 59
1, 103043, Control_c, 0, 64, 45
1, 103058, Control_c, 0, 64, 55
1, 103073, Control_c, 0, 64, 59
1, 103086, Note_on_c, 0, 63, 54
1, 103087, Control_c, 0, 64, 61
1, 103176, Control_c, 0, 64, 60
1, 103179, Note_on_c, 0, 66, 54
1, 103191, Control_c, 0, 64, 60
1, 103206, Control_c, 0, 64, 59
1, 103221, Control_c, 0, 64, 57
1, 103235, Control_c, 0, 64, 56
1, 103250, Control_c, 0, 64, 54
1, 103265, Control_c, 0, 64, 53
1, 103280, Control_c, 0, 64, 53
1, 103295, Control_c, 0, 64, 52
1, 103295, Note_on_c, 0, 83, 64
1, 103340, Control_c, 0, 64, 53
1, 103354, Control_c, 0, 64, 54
1, 103369, Control_c, 0, 64, 55
1, 103384, Control_c, 0, 64, 57
1, 103399, Control_c, 0, 64, 59
1, 103413, Control_c, 0, 64, 61
1, 103428, Control_c, 0, 64, 63
1, 103432, Note_on_c, 0, 82, 82
1, 103443, Control_c, 0, 64, 64
1, 103458, Control_c, 0, 64, 66
1, 103473, Control_c, 0, 64, 71
1, 103487, Control_c, 0, 64, 78
1, 103500, Note_off_c, 0, 83, 56
1, 103502, Control_c, 0, 64, 92
1, 103517, Control_c, 0, 64, 110
1, 103532, Control_c, 0, 64, 127
1, 103548, Note_on_c, 0, 81, 89
1, 103602, Note_off_c, 0, 82, 63
1, 103650, Note_off_c, 0, 81, 62
1, 103659, Note_on_c, 0, 83, 93
1, 103767, Note_off_c, 0, 66, 61
1, 103789, Note_on_c, 0, 80, 89
1, 103817, Note_off_c, 0, 83, 61
1, 103831, Note_off_c, 0, 63, 61
1, 103832, Note_off_c, 0, 55, 61
1, 103863, Note_off_c, 0, 60, 51
1, 103897, Note_on_c, 0, 85, 78
1, 103923, Note_off_c, 0, 80, 58
1, 103927, Note_on_c, 0, 84, 79
1, 103940, Control_c, 0, 64, 111
1, 103955, Control_c, 0, 64, 90
1, 103970, Control_c, 0, 64, 77
1, 103984, Control_c, 0, 64, 69
1, 103999, Control_c, 0, 64, 64
1, 104014, Control_c, 0, 64, 58
1, 104028, Control_c, 0, 64, 55
1, 104046, Note_on_c, 0, 79, 75
1, 104088, Control_c, 0, 64, 54
1, 104091, Note_on_c, 0, 68, 64
1, 104097, Note_off_c, 0, 84, 59
1, 104103, Control_c, 0, 64, 54
1, 104115, Note_off_c, 0, 85, 28
1, 104118, Control_c, 0, 64, 53
1, 104133, Control_c, 0, 64, 52
1, 104148, Control_c, 0, 64, 51
1, 104161, Note_off_c, 0, 79, 65
1, 104162, Control_c, 0, 64, 49
1, 104177, Control_c, 0, 64, 47
1, 104189, Note_on_c, 0, 60, 31
1, 104192, Control_c, 0, 64, 45
1, 104192, Control_c, 0, 67, 11
1, 104199, Note_on_c, 0, 56, 55
1, 104201, Note_off_c, 0, 68, 63
1, 104204, Note_on_c, 0, 67, 79
1, 104207, Control_c, 0, 64, 42
1, 104207, Control_c, 0, 67, 29
1, 104222, Control_c, 0, 64, 37
1, 104222, Control_c, 0, 67, 50
1, 104236, Control_c, 0, 64, 25
1, 104236, Control_c, 0, 67, 73
1, 104251, Control_c, 0, 64, 0
1, 104251, Control_c, 0, 67, 97
1, 104266, Control_c, 0, 67, 124
1, 104281, Control_c, 0, 67, 127
1, 104526, Control_c, 0, 64, 28
1, 104541, Control_c, 0, 64, 45
1, 104545, Note_on_c, 0, 72, 62
1, 104556, Control_c, 0, 64, 56
1, 104571, Control_c, 0, 64, 62
1, 104572, Note_off_c, 0, 60, 64
1, 104572, Note_off_c, 0, 72, 67
1, 104586, Control_c, 0, 64, 64
1, 104601, Control_c, 0, 64, 66
1, 104605, Note_off_c, 0, 56, 63
1, 104615, Control_c, 0, 64, 68
1, 104621, Note_on_c, 0, 72, 80
1, 104630, Control_c, 0, 64, 70
1, 104642, Note_off_c, 0, 72, 72
1, 104645, Control_c, 0, 64, 72
1, 104659, Control_c, 0, 64, 73
1, 104674, Control_c, 0, 64, 72
1, 104708, Note_on_c, 0, 72, 73
1, 104723, Note_off_c, 0, 72, 71
1, 104738, Note_off_c, 0, 67, 62
1, 104748, Control_c, 0, 64, 72
1, 104763, Control_c, 0, 64, 71
1, 104763, Control_c, 0, 67, 120
1, 104778, Control_c, 0, 64, 71
1, 104778, Control_c, 0, 67, 91
1, 104788, Note_on_c, 0, 72, 66
1, 104788, Note_on_c, 0, 66, 68
1, 104793, Control_c, 0, 64, 70
1, 104793, Control_c, 0, 67, 54
1, 104807, Control_c, 0, 64, 69
1, 104807, Control_c, 0, 67, 15
1, 104816, Note_off_c, 0, 72, 54
1, 104822, Control_c, 0, 64, 69
1, 104822, Control_c, 0, 67, 0
1, 104837, Control_c, 0, 64, 68
1, 104866, Control_c, 0, 64, 68
1, 104881, Control_c, 0, 64, 67
1, 104888, Note_on_c, 0, 68, 88
1, 104896, Control_c, 0, 64, 67
1, 104917, Note_off_c, 0, 66, 62
1, 104926, Control_c, 0, 64, 67
1, 104970, Control_c, 0, 64, 66
1, 104979, Note_on_c, 0, 71, 55
1, 104985, Control_c, 0, 64, 65
1, 105000, Control_c, 0, 64, 63
1, 105015, Control_c, 0, 64, 63
1, 105023, Note_off_c, 0, 71, 56
1, 105030, Control_c, 0, 64, 63
1, 105039, Note_on_c, 0, 72, 69
1, 105045, Control_c, 0, 64, 64
1, 105059, Control_c, 0, 64, 65
1, 105074, Control_c, 0, 64, 68
1, 105089, Control_c, 0, 64, 72
1, 105104, Control_c, 0, 64, 77
1, 105116, Note_off_c, 0, 72, 64
1, 105119, Control_c, 0, 64, 85
1, 105122, Note_on_c, 0, 67, 82
1, 105133, Control_c, 0, 64, 97
1, 105137, Note_on_c, 0, 75, 61
1, 105148, Control_c, 0, 64, 127
1, 105181, Note_off_c, 0, 68, 58
1, 105218, Note_on_c, 0, 66, 83
1, 105221, Note_on_c, 0, 79, 76
1, 105221, Note_off_c, 0, 75, 61
1, 105253, Note_off_c, 0, 67, 63
1, 105277, Note_off_c, 0, 66, 64
1, 105311, Note_on_c, 0, 75, 69
1, 105378, Note_on_c, 0, 72, 77
1, 105400, Note_off_c, 0, 79, 50
1, 105434, Note_off_c, 0, 75, 58
1, 105453, Note_on_c, 0, 68, 87
1, 105479, Note_off_c, 0, 72, 63
1, 105512, Control_c, 0, 64, 91
1, 105523, Note_off_c, 0, 68, 59
1, 105527, Control_c, 0, 64, 67
1, 105534, Note_on_c, 0, 67, 84
1, 105542, Control_c, 0, 64, 32
1, 105545, Note_on_c, 0, 60, 50
1, 105546, Note_on_c, 0, 53, 60
1, 105556, Control_c, 0, 64, 0
1, 105592, Poly_aftertouch_c, 0, 78, 127
1, 105600, Poly_aftertouch_c, 0, 79, 0
1, 105689, Control_c, 0, 64, 29
1, 105701, Poly_aftertouch_c, 0, 78, 0
1, 105704, Control_c, 0, 64, 41
1, 105719, Control_c, 0, 64, 53
1, 105734, Control_c, 0, 64, 61
1, 105748, Control_c, 0, 64, 64
1, 105763, Control_c, 0, 64, 67
1, 105778, Control_c, 0, 64, 70
1, 105793, Control_c, 0, 64, 73
1, 105806, Note_on_c, 0, 72, 68
1, 105808, Control_c, 0, 64, 76
1, 105823, Control_c, 0, 64, 80
1, 105831, Note_off_c, 0, 72, 68
1, 105838, Control_c, 0, 64, 80
1, 105853, Control_c, 0, 64, 79
1, 105867, Note_off_c, 0, 60, 61
1, 105867, Control_c, 0, 64, 78
1, 105871, Note_off_c, 0, 53, 62
1, 105880, Note_on_c, 0, 72, 78
1, 105882, Control_c, 0, 64, 77
1, 105908, Note_off_c, 0, 72, 67
1, 105912, Control_c, 0, 64, 76
1, 105934, Control_c, 0, 64, 75
1, 105949, Control_c, 0, 64, 74
1, 105963, Control_c, 0, 64, 73
1, 105971, Note_on_c, 0, 72, 77
1, 105979, Control_c, 0, 64, 73
1, 105990, Note_off_c, 0, 72, 74
1, 106024, Control_c, 0, 64, 72
1, 106038, Note_off_c, 0, 67, 55
1, 106039, Control_c, 0, 64, 71
1, 106054, Control_c, 0, 64, 70
1, 106057, Note_on_c, 0, 72, 78
1, 106064, Note_on_c, 0, 66, 72
1, 106068, Control_c, 0, 64, 70
1, 106109, Note_off_c, 0, 72, 56
1, 106112, Control_c, 0, 64, 69
1, 106127, Control_c, 0, 64, 69
1, 106142, Control_c, 0, 64, 68
1, 106150, Note_on_c, 0, 67, 90
1, 106157, Control_c, 0, 64, 67
1, 106172, Control_c, 0, 64, 67
1, 106195, Note_on_c, 0, 62, 36
1, 106197, Note_off_c, 0, 66, 63
1, 106201, Control_c, 0, 64, 66
1, 106235, Note_on_c, 0, 71, 64
1, 106238, Note_off_c, 0, 62, 47
1, 106246, Control_c, 0, 64, 66
1, 106276, Control_c, 0, 64, 65
1, 106300, Note_on_c, 0, 72, 71
1, 106305, Control_c, 0, 64, 65
1, 106329, Note_off_c, 0, 71, 58
1, 106335, Control_c, 0, 64, 64
1, 106365, Control_c, 0, 64, 64
1, 106394, Control_c, 0, 64, 63
1, 106401, Note_on_c, 0, 75, 58
1, 106409, Control_c, 0, 64, 63
1, 106410, Note_on_c, 0, 66, 73
1, 106417, Note_off_c, 0, 72, 61
1, 106423, Control_c, 0, 64, 62
1, 106438, Control_c, 0, 64, 59
1, 106453, Control_c, 0, 64, 53
1, 106467, Poly_aftertouch_c, 0, 63, 0
1, 106468, Control_c, 0, 64, 38
1, 106483, Control_c, 0, 64, 0
1, 106488, Note_off_c, 0, 67, 56
1, 106517, Note_on_c, 0, 81, 64
1, 106520, Note_off_c, 0, 75, 62
1, 106520, Note_on_c, 0, 65, 63
1, 106550, Note_off_c, 0, 66, 60
1, 106586, Control_c, 0, 64, 33
1, 106594, Note_off_c, 0, 81, 65
1, 106601, Control_c, 0, 64, 55
1, 106613, Note_on_c, 0, 75, 50
1, 106616, Control_c, 0, 64, 63
1, 106631, Control_c, 0, 64, 67
1, 106646, Control_c, 0, 64, 70
1, 106646, Control_c, 0, 67, 26
1, 106660, Control_c, 0, 64, 76
1, 106660, Control_c, 0, 67, 44
1, 106683, Control_c, 0, 64, 80
1, 106683, Control_c, 0, 67, 63
1, 106698, Control_c, 0, 64, 82
1, 106698, Control_c, 0, 67, 87
1, 106702, Note_off_c, 0, 65, 62
1, 106708, Note_off_c, 0, 75, 63
1, 106712, Control_c, 0, 64, 83
1, 106712, Control_c, 0, 67, 115
1, 106723, Note_on_c, 0, 72, 51
1, 106727, Control_c, 0, 67, 127
1, 106765, Note_off_c, 0, 72, 66
1, 106772, Control_c, 0, 64, 83
1, 106789, Note_on_c, 0, 66, 57
1, 106809, Note_off_c, 0, 66, 61
1, 106832, Control_c, 0, 64, 83
1, 106862, Control_c, 0, 64, 82
1, 106876, Control_c, 0, 64, 81
1, 106891, Control_c, 0, 64, 80
1, 106906, Control_c, 0, 64, 79
1, 106921, Control_c, 0, 64, 79
1, 106935, Control_c, 0, 64, 78
1, 106950, Control_c, 0, 64, 76
1, 106965, Control_c, 0, 64, 71
1, 106980, Control_c, 0, 64, 65
1, 106982, Note_on_c, 0, 48, 41
1, 106987, Note_on_c, 0, 65, 52
1, 106995, Control_c, 0, 64, 52
1, 107006, Note_on_c, 0, 36, 37
1, 107009, Control_c, 0, 64, 0
1, 107016, Note_on_c, 0, 60, 50
1, 107028, Note_on_c, 0, 44, 25
1, 107035, Note_on_c, 0, 56, 44
1, 107084, Control_c, 0, 64, 39
1, 107099, Control_c, 0, 64, 53
1, 107114, Control_c, 0, 64, 60
1, 107121, Note_off_c, 0, 65, 62
1, 107128, Control_c, 0, 64, 63
1, 107139, Note_on_c, 0, 64, 49
1, 107143, Control_c, 0, 64, 65
1, 107158, Control_c, 0, 64, 66
1, 107173, Control_c, 0, 64, 68
1, 107177, Note_off_c, 0, 48, 48
1, 107188, Control_c, 0, 64, 69
1, 107189, Note_off_c, 0, 36, 55
1, 107212, Note_off_c, 0, 44, 58
1, 107248, Note_on_c, 0, 66, 56
1, 107312, Note_off_c, 0, 56, 51
1, 107330, Note_off_c, 0, 64, 29
1, 107359, Note_off_c, 0, 60, 30
1, 107361, Note_on_c, 0, 63, 56
1, 107391, Note_off_c, 0, 63, 65
1, 107394, Control_c, 0, 64, 68
1, 107408, Note_off_c, 0, 66, 33
1, 107409, Control_c, 0, 64, 68
1, 107431, Control_c, 0, 64, 67
1, 107446, Control_c, 0, 64, 67
1, 107460, Control_c, 0, 64, 66
1, 107490, Control_c, 0, 64, 66
1, 107503, Note_on_c, 0, 68, 58
1, 107508, Note_on_c, 0, 67, 44
1, 107520, Control_c, 0, 64, 65
1, 107549, Control_c, 0, 64, 65
1, 107564, Control_c, 0, 64, 64
1, 107580, Control_c, 0, 64, 64
1, 107595, Control_c, 0, 64, 63
1, 107610, Control_c, 0, 64, 62
1, 107617, Note_on_c, 0, 75, 61
1, 107621, Note_on_c, 0, 62, 51
1, 107624, Control_c, 0, 64, 61
1, 107654, Control_c, 0, 64, 61
1, 107743, Control_c, 0, 64, 61
1, 107747, Note_on_c, 0, 74, 74
1, 107757, Control_c, 0, 64, 62
1, 107772, Control_c, 0, 64, 62
1, 107787, Control_c, 0, 64, 63
1, 107817, Control_c, 0, 64, 63
1, 107832, Control_c, 0, 64, 64
1, 107849, Note_off_c, 0, 75, 57
1, 107854, Note_on_c, 0, 73, 77
1, 107862, Control_c, 0, 64, 64
1, 107870, Note_off_c, 0, 67, 52
1, 107876, Control_c, 0, 67, 113
1, 107877, Note_off_c, 0, 68, 56
1, 107891, Control_c, 0, 64, 65
1, 107891, Control_c, 0, 67, 95
1, 107906, Control_c, 0, 67, 78
1, 107921, Control_c, 0, 67, 62
1, 107936, Control_c, 0, 64, 65
1, 107936, Control_c, 0, 67, 45
1, 107950, Control_c, 0, 67, 33
1, 107963, Note_on_c, 0, 75, 77
1, 107965, Control_c, 0, 67, 20
1, 107980, Control_c, 0, 67, 8
1, 107995, Control_c, 0, 64, 65
1, 107995, Control_c, 0, 67, 0
1, 108007, Note_off_c, 0, 62, 64
1, 108015, Note_off_c, 0, 73, 62
1, 108069, Note_on_c, 0, 72, 76
1, 108120, Note_off_c, 0, 74, 37
1, 108130, Note_off_c, 0, 75, 59
1, 108193, Note_on_c, 0, 77, 62
1, 108209, Note_on_c, 0, 76, 75
1, 108210, Control_c, 0, 64, 65
1, 108222, Note_off_c, 0, 72, 58
1, 108225, Control_c, 0, 64, 67
1, 108239, Control_c, 0, 64, 69
1, 108254, Control_c, 0, 64, 70
1, 108269, Control_c, 0, 64, 69
1, 108283, Control_c, 0, 64, 64
1, 108295, Note_on_c, 0, 71, 75
1, 108298, Control_c, 0, 64, 57
1, 108313, Control_c, 0, 64, 52
1, 108321, Note_on_c, 0, 78, 79
1, 108328, Control_c, 0, 64, 51
1, 108357, Control_c, 0, 64, 53
1, 108373, Control_c, 0, 64, 56
1, 108374, Note_off_c, 0, 77, 46
1, 108388, Control_c, 0, 64, 60
1, 108394, Note_off_c, 0, 76, 59
1, 108403, Control_c, 0, 64, 63
1, 108418, Control_c, 0, 64, 65
1, 108425, Note_on_c, 0, 77, 68
1, 108433, Control_c, 0, 64, 67
1, 108447, Control_c, 0, 64, 71
1, 108457, Note_off_c, 0, 78, 63
1, 108460, Note_off_c, 0, 71, 66
1, 108462, Control_c, 0, 64, 77
1, 108477, Control_c, 0, 64, 85
1, 108492, Control_c, 0, 64, 97
1, 108506, Control_c, 0, 64, 115
1, 108521, Control_c, 0, 64, 127
1, 108535, Note_on_c, 0, 76, 88
1, 108571, Note_off_c, 0, 77, 64
1, 108637, Note_on_c, 0, 78, 85
1, 108735, Note_on_c, 0, 75, 88
1, 108753, Note_off_c, 0, 78, 64
1, 108844, Note_on_c, 0, 80, 80
1, 108851, Note_on_c, 0, 79, 86
1, 108873, Note_off_c, 0, 76, 61
1, 108879, Note_off_c, 0, 75, 62
1, 108929, Control_c, 0, 64, 118
1, 108944, Control_c, 0, 64, 104
1, 108959, Control_c, 0, 64, 95
1, 108972, Note_on_c, 0, 74, 76
1, 108973, Note_on_c, 0, 87, 91
1, 108974, Control_c, 0, 64, 86
1, 108988, Control_c, 0, 64, 76
1, 109003, Control_c, 0, 64, 64
1, 109018, Control_c, 0, 64, 51
1, 109033, Control_c, 0, 64, 0
1, 109099, Note_on_c, 0, 86, 88
1, 109137, Note_off_c, 0, 80, 51
1, 109197, Control_c, 0, 64, 30
1, 109209, Note_on_c, 0, 85, 93
1, 109211, Control_c, 0, 64, 49
1, 109226, Control_c, 0, 64, 57
1, 109241, Control_c, 0, 64, 61
1, 109256, Control_c, 0, 64, 63
1, 109257, Note_off_c, 0, 87, 60
1, 109270, Control_c, 0, 64, 66
1, 109284, Note_off_c, 0, 86, 56
1, 109285, Control_c, 0, 64, 69
1, 109300, Control_c, 0, 64, 74
1, 109308, Note_off_c, 0, 79, 54
1, 109313, Note_on_c, 0, 87, 85
1, 109315, Control_c, 0, 64, 78
1, 109329, Control_c, 0, 64, 82
1, 109340, Note_on_c, 0, 86, 26
1, 109344, Control_c, 0, 64, 86
1, 109359, Control_c, 0, 64, 90
1, 109359, Control_c, 0, 67, 14
1, 109368, Note_off_c, 0, 85, 64
1, 109374, Control_c, 0, 64, 93
1, 109374, Control_c, 0, 67, 50
1, 109389, Control_c, 0, 64, 95
1, 109389, Control_c, 0, 67, 93
1, 109403, Control_c, 0, 64, 96
1, 109403, Control_c, 0, 67, 127
1, 109409, Note_off_c, 0, 74, 56
1, 109418, Control_c, 0, 64, 97
1, 109433, Control_c, 0, 64, 98
1, 109437, Note_on_c, 0, 84, 89
1, 109477, Control_c, 0, 64, 97
1, 109488, Note_off_c, 0, 87, 63
1, 109492, Control_c, 0, 64, 97
1, 109507, Note_off_c, 0, 86, 41
1, 109507, Control_c, 0, 64, 96
1, 109537, Control_c, 0, 64, 95
1, 109576, Note_on_c, 0, 89, 75
1, 109582, Control_c, 0, 64, 95
1, 109596, Control_c, 0, 64, 94
1, 109606, Note_on_c, 0, 88, 71
1, 109610, Control_c, 0, 64, 94
1, 109613, Note_off_c, 0, 84, 60
1, 109625, Control_c, 0, 64, 92
1, 109640, Control_c, 0, 64, 90
1, 109655, Control_c, 0, 64, 88
1, 109677, Control_c, 0, 64, 86
1, 109688, Note_off_c, 0, 89, 61
1, 109692, Control_c, 0, 64, 85
1, 109707, Control_c, 0, 64, 83
1, 109721, Control_c, 0, 64, 81
1, 109736, Control_c, 0, 64, 78
1, 109751, Control_c, 0, 64, 76
1, 109766, Control_c, 0, 64, 74
1, 109781, Control_c, 0, 64, 73
1, 109795, Control_c, 0, 64, 73
1, 109810, Control_c, 0, 64, 72
1, 109825, Note_on_c, 0, 83, 50
1, 109825, Control_c, 0, 64, 71
1, 109840, Control_c, 0, 64, 69
1, 109850, Note_off_c, 0, 88, 55
1, 109854, Control_c, 0, 64, 68
1, 109869, Control_c, 0, 64, 67
1, 109884, Control_c, 0, 64, 65
1, 109899, Control_c, 0, 64, 64
1, 109914, Control_c, 0, 64, 63
1, 109928, Control_c, 0, 64, 62
1, 109943, Control_c, 0, 64, 61
1, 109958, Control_c, 0, 64, 60
1, 109974, Control_c, 0, 64, 60
1, 109989, Control_c, 0, 64, 59
1, 110004, Control_c, 0, 64, 59
1, 110017, Note_off_c, 0, 83, 59
1, 110019, Control_c, 0, 64, 58
1, 110033, Control_c, 0, 64, 57
1, 110048, Control_c, 0, 64, 56
1, 110063, Control_c, 0, 64, 54
1, 110078, Control_c, 0, 64, 53
1, 110092, Control_c, 0, 64, 52
1, 110107, Control_c, 0, 64, 52
1, 110122, Control_c, 0, 64, 51
1, 110181, Control_c, 0, 64, 52
1, 110196, Control_c, 0, 64, 54
1, 110211, Control_c, 0, 64, 55
1, 110226, Control_c, 0, 64, 57
1, 110240, Control_c, 0, 64, 58
1, 110255, Control_c, 0, 64, 60
1, 110270, Control_c, 0, 64, 61
1, 110285, Control_c, 0, 64, 63
1, 110299, Note_on_c, 0, 48, 29
1, 110300, Control_c, 0, 64, 64
1, 110305, Note_on_c, 0, 36, 35
1, 110315, Control_c, 0, 64, 65
1, 110330, Control_c, 0, 64, 66
1, 110344, Control_c, 0, 64, 68
1, 110359, Control_c, 0, 64, 70
1, 110374, Control_c, 0, 64, 72
1, 110387, Note_off_c, 0, 48, 53
1, 110389, Control_c, 0, 64, 76
1, 110404, Control_c, 0, 64, 78
1, 110404, Note_off_c, 0, 36, 53
1, 110425, Control_c, 0, 64, 81
1, 110440, Control_c, 0, 64, 83
1, 110455, Control_c, 0, 64, 85
1, 110470, Control_c, 0, 64, 86
1, 110485, Control_c, 0, 64, 88
1, 110500, Control_c, 0, 64, 89
1, 110515, Control_c, 0, 64, 90
1, 110518, Note_on_c, 0, 48, 35
1, 110526, Note_on_c, 0, 36, 32
1, 110530, Control_c, 0, 64, 91
1, 110544, Control_c, 0, 64, 93
1, 110559, Control_c, 0, 64, 94
1, 110569, Note_off_c, 0, 48, 54
1, 110574, Control_c, 0, 64, 94
1, 110584, Note_off_c, 0, 36, 54
1, 110673, Note_on_c, 0, 36, 30
1, 110673, Note_on_c, 0, 48, 42
1, 110711, Note_off_c, 0, 48, 53
1, 110759, Note_off_c, 0, 36, 34
1, 110812, Note_on_c, 0, 36, 30
1, 110827, Control_c, 0, 64, 95
1, 110830, Note_on_c, 0, 48, 41
1, 110842, Control_c, 0, 64, 95
1, 110856, Control_c, 0, 64, 96
1, 110871, Control_c, 0, 64, 97
1, 110878, Note_off_c, 0, 48, 51
1, 110886, Control_c, 0, 64, 97
1, 110900, Control_c, 0, 64, 98
1, 110912, Note_off_c, 0, 36, 38
1, 110915, Control_c, 0, 64, 99
1, 110930, Control_c, 0, 64, 99
1, 110945, Control_c, 0, 64, 100
1, 110960, Control_c, 0, 64, 101
1, 111004, Control_c, 0, 64, 101
1, 111034, Control_c, 0, 64, 102
1, 111048, Control_c, 0, 64, 102
1, 111138, Control_c, 0, 64, 103
1, 111153, Control_c, 0, 64, 103
1, 111174, Control_c, 0, 64, 104
1, 111293, Note_on_c, 0, 51, 41
1, 111323, Control_c, 0, 64, 104
1, 111337, Control_c, 0, 64, 105
1, 111352, Control_c, 0, 64, 106
1, 111367, Control_c, 0, 64, 108
1, 111382, Control_c, 0, 64, 110
1, 111397, Control_c, 0, 64, 111
1, 111412, Control_c, 0, 64, 112
1, 111414, Note_off_c, 0, 51, 52
1, 111427, Control_c, 0, 64, 113
1, 111442, Note_on_c, 0, 56, 42
1, 111471, Control_c, 0, 64, 113
1, 111486, Control_c, 0, 64, 114
1, 111500, Control_c, 0, 64, 115
1, 111515, Control_c, 0, 64, 117
1, 111530, Control_c, 0, 64, 118
1, 111545, Control_c, 0, 64, 119
1, 111584, Note_on_c, 0, 51, 58
1, 111608, Note_off_c, 0, 56, 39
1, 111615, Note_off_c, 0, 51, 66
1, 111679, Control_c, 0, 64, 123
1, 111694, Control_c, 0, 64, 127
1, 111738, Control_c, 0, 64, 100
1, 111752, Note_on_c, 0, 48, 46
1, 111753, Control_c, 0, 64, 80
1, 111766, Note_on_c, 0, 36, 50
1, 111768, Control_c, 0, 64, 66
1, 111779, Note_off_c, 0, 48, 54
1, 111783, Control_c, 0, 64, 55
1, 111797, Control_c, 0, 64, 54
1, 111812, Control_c, 0, 64, 58
1, 111827, Control_c, 0, 64, 61
1, 111842, Control_c, 0, 64, 63
1, 111858, Control_c, 0, 64, 66
1, 111872, Control_c, 0, 64, 68
1, 111881, Note_on_c, 0, 48, 54
1, 111887, Control_c, 0, 64, 73
1, 111902, Control_c, 0, 64, 79
1, 111924, Control_c, 0, 64, 86
1, 111929, Note_off_c, 0, 48, 61
1, 111939, Control_c, 0, 64, 93
1, 111954, Control_c, 0, 64, 99
1, 111969, Control_c, 0, 64, 104
1, 111984, Control_c, 0, 64, 107
1, 111998, Control_c, 0, 64, 107
1, 112013, Control_c, 0, 64, 108
1, 112028, Control_c, 0, 64, 109
1, 112034, Note_on_c, 0, 48, 52
1, 112043, Control_c, 0, 64, 111
1, 112058, Control_c, 0, 64, 117
1, 112072, Control_c, 0, 64, 127
1, 112086, Note_off_c, 0, 48, 53
1, 112182, Note_off_c, 0, 36, 28
1, 112196, Note_on_c, 0, 48, 40
1, 112296, Note_off_c, 0, 48, 53
1, 112513, Note_on_c, 0, 53, 49
1, 112654, Note_off_c, 0, 53, 52
1, 112687, Note_on_c, 0, 58, 52
1, 112747, Note_off_c, 0, 58, 51
1, 112808, Note_on_c, 0, 53, 51
1, 112833, Note_off_c, 0, 53, 58
1, 112954, Note_on_c, 0, 48, 43
1, 112969, Control_c, 0, 64, 101
1, 112983, Note_on_c, 0, 36, 53
1, 112984, Control_c, 0, 64, 77
1, 112999, Control_c, 0, 64, 61
1, 113014, Control_c, 0, 64, 39
1, 113028, Control_c, 0, 64, 13
1, 113043, Control_c, 0, 64, 19
1, 113055, Note_off_c, 0, 48, 27
1, 113058, Control_c, 0, 64, 34
1, 113072, Control_c, 0, 64, 50
1, 113087, Control_c, 0, 64, 60
1, 113102, Control_c, 0, 64, 64
1, 113113, Note_on_c, 0, 46, 44
1, 113117, Control_c, 0, 64, 67
1, 113132, Control_c, 0, 64, 74
1, 113147, Control_c, 0, 64, 87
1, 113162, Control_c, 0, 64, 118
1, 113167, Note_off_c, 0, 36, 36
1, 113177, Control_c, 0, 64, 127
1, 113218, Note_off_c, 0, 46, 59
1, 113236, Control_c, 0, 67, 114
1, 113251, Control_c, 0, 67, 95
1, 113254, Note_on_c, 0, 63, 64
1, 113260, Note_on_c, 0, 48, 49
1, 113266, Control_c, 0, 67, 75
1, 113281, Control_c, 0, 67, 55
1, 113293, Note_off_c, 0, 48, 64
1, 113296, Control_c, 0, 67, 35
1, 113305, Note_on_c, 0, 60, 38
1, 113311, Control_c, 0, 67, 19
1, 113326, Control_c, 0, 67, 0
1, 113403, Note_on_c, 0, 48, 48
1, 113552, Note_on_c, 0, 68, 71
1, 113588, Note_on_c, 0, 65, 41
1, 113593, Note_off_c, 0, 60, 63
1, 113663, Note_off_c, 0, 63, 62
1, 113673, Note_on_c, 0, 51, 58
1, 113728, Note_off_c, 0, 65, 33
1, 113766, Note_off_c, 0, 68, 61
1, 113779, Note_off_c, 0, 51, 57
1, 113800, Note_on_c, 0, 65, 37
1, 113835, Note_on_c, 0, 56, 47
1, 113882, Note_off_c, 0, 56, 61
1, 113928, Note_on_c, 0, 51, 56
1, 113952, Note_on_c, 0, 74, 58
1, 113954, Note_on_c, 0, 70, 64
1, 113955, Note_off_c, 0, 51, 64
1, 113955, Note_off_c, 0, 48, 61
1, 113987, Note_off_c, 0, 65, 43
1, 114059, Control_c, 0, 64, 111
1, 114074, Control_c, 0, 64, 95
1, 114089, Control_c, 0, 64, 76
1, 114104, Control_c, 0, 64, 61
1, 114114, Note_on_c, 0, 36, 39
1, 114118, Control_c, 0, 64, 0
1, 114119, Note_on_c, 0, 67, 71
1, 114199, Control_c, 0, 64, 38
1, 114210, Note_off_c, 0, 70, 60
1, 114214, Control_c, 0, 64, 56
1, 114229, Control_c, 0, 64, 63
1, 114244, Control_c, 0, 64, 69
1, 114259, Control_c, 0, 64, 78
1, 114269, Note_on_c, 0, 46, 46
1, 114274, Control_c, 0, 64, 93
1, 114289, Control_c, 0, 64, 127
1, 114317, Note_off_c, 0, 36, 40
1, 114353, Note_off_c, 0, 46, 58
1, 114385, Note_on_c, 0, 48, 48
1, 114413, Note_off_c, 0, 48, 61
1, 114520, Note_on_c, 0, 48, 51
1, 114688, Control_c, 0, 67, 9
1, 114703, Control_c, 0, 67, 27
1, 114718, Control_c, 0, 67, 41
1, 114733, Control_c, 0, 67, 55
1, 114748, Control_c, 0, 67, 70
1, 114763, Control_c, 0, 67, 85
1, 114778, Control_c, 0, 67, 103
1, 114793, Control_c, 0, 67, 124
1, 114807, Control_c, 0, 67, 127
1, 114813, Note_on_c, 0, 53, 49
1, 114942, Note_off_c, 0, 53, 58
1, 114964, Note_on_c, 0, 58, 48
1, 115016, Note_off_c, 0, 58, 57
1, 115082, Note_on_c, 0, 53, 60
1, 115113, Note_off_c, 0, 53, 65
1, 115138, Note_off_c, 0, 48, 55
1, 115215, Control_c, 0, 64, 110
1, 115230, Control_c, 0, 64, 72
1, 115245, Control_c, 0, 64, 54
1, 115260, Control_c, 0, 64, 0
1, 115260, Note_on_c, 0, 36, 52
1, 115270, Note_on_c, 0, 48, 22
1, 115278, Note_off_c, 0, 67, 58
1, 115283, Note_off_c, 0, 74, 62
1, 115289, Control_c, 0, 64, 30
1, 115304, Control_c, 0, 64, 50
1, 115319, Control_c, 0, 64, 61
1, 115324, Note_off_c, 0, 48, 42
1, 115333, Control_c, 0, 64, 68
1, 115348, Control_c, 0, 64, 78
1, 115363, Control_c, 0, 64, 102
1, 115378, Control_c, 0, 64, 127
1, 115381, Note_on_c, 0, 46, 48
1, 115437, Note_off_c, 0, 36, 34
1, 115474, Note_off_c, 0, 46, 60
1, 115511, Note_on_c, 0, 48, 42
1, 115517, Note_on_c, 0, 72, 72
1, 115541, Note_off_c, 0, 48, 57
1, 115543, Note_on_c, 0, 63, 53
1, 115622, Note_off_c, 0, 63, 60
1, 115678, Note_on_c, 0, 48, 44
1, 115699, Control_c, 0, 67, 119
1, 115713, Control_c, 0, 67, 102
1, 115728, Control_c, 0, 67, 82
1, 115743, Control_c, 0, 67, 58
1, 115758, Control_c, 0, 67, 39
1, 115772, Control_c, 0, 67, 21
1, 115787, Control_c, 0, 67, 0
1, 115818, Note_on_c, 0, 77, 77
1, 115851, Note_on_c, 0, 68, 46
1, 115916, Note_off_c, 0, 72, 61
1, 115946, Note_on_c, 0, 51, 50
1, 115976, Note_off_c, 0, 77, 61
1, 116047, Note_off_c, 0, 51, 51
1, 116053, Control_c, 0, 67, 44
1, 116068, Control_c, 0, 67, 84
1, 116083, Control_c, 0, 67, 122
1, 116097, Note_on_c, 0, 56, 51
1, 116098, Control_c, 0, 67, 127
1, 116153, Note_off_c, 0, 56, 55
1, 116179, Note_off_c, 0, 68, 47
1, 116205, Note_on_c, 0, 51, 49
1, 116212, Note_off_c, 0, 48, 59
1, 116230, Note_off_c, 0, 51, 60
1, 116232, Note_on_c, 0, 82, 57
1, 116243, Note_on_c, 0, 74, 48
1, 116303, Note_off_c, 0, 82, 64
1, 116381, Control_c, 0, 64, 102
1, 116395, Control_c, 0, 64, 73
1, 116417, Control_c, 0, 64, 55
1, 116420, Note_on_c, 0, 67, 53
1, 116432, Note_on_c, 0, 36, 12
1, 116432, Control_c, 0, 64, 0
1, 116444, Note_off_c, 0, 74, 55
1, 116450, Poly_aftertouch_c, 0, 48, 0
1, 116506, Control_c, 0, 64, 33
1, 116521, Control_c, 0, 64, 53
1, 116536, Control_c, 0, 64, 62
1, 116550, Note_on_c, 0, 46, 36
1, 116551, Control_c, 0, 64, 66
1, 116566, Control_c, 0, 64, 71
1, 116581, Control_c, 0, 64, 78
1, 116595, Control_c, 0, 64, 87
1, 116610, Note_off_c, 0, 36, 40
1, 116610, Control_c, 0, 64, 99
1, 116625, Control_c, 0, 64, 121
1, 116638, Note_off_c, 0, 46, 56
1, 116640, Control_c, 0, 64, 127
1, 116679, Note_on_c, 0, 48, 40
1, 116708, Note_off_c, 0, 48, 56
1, 116821, Note_on_c, 0, 48, 38
1, 117100, Note_on_c, 0, 53, 49
1, 117225, Note_off_c, 0, 53, 57
1, 117252, Note_on_c, 0, 58, 48
1, 117318, Note_off_c, 0, 58, 53
1, 117375, Note_on_c, 0, 53, 51
1, 117406, Note_off_c, 0, 53, 54
1, 117417, Note_off_c, 0, 48, 54
1, 117522, Control_c, 0, 64, 84
1, 117534, Note_on_c, 0, 70, 63
1, 117536, Control_c, 0, 64, 66
1, 117550, Note_on_c, 0, 60, 44
1, 117551, Control_c, 0, 64, 48
1, 117566, Control_c, 0, 64, 40
1, 117579, Note_off_c, 0, 67, 38
1, 117581, Control_c, 0, 64, 51
1, 117583, Note_on_c, 0, 36, 23
1, 117596, Control_c, 0, 64, 60
1, 117610, Control_c, 0, 64, 66
1, 117625, Control_c, 0, 64, 72
1, 117640, Control_c, 0, 64, 83
1, 117655, Control_c, 0, 64, 102
1, 117657, Note_on_c, 0, 46, 60
1, 117670, Control_c, 0, 64, 127
1, 117712, Note_off_c, 0, 46, 51
1, 117717, Note_off_c, 0, 60, 39
1, 117737, Note_off_c, 0, 70, 58
1, 117780, Note_on_c, 0, 67, 60
1, 117791, Note_on_c, 0, 46, 44
1, 117793, Note_on_c, 0, 75, 85
1, 117801, Note_on_c, 0, 48, 37
1, 117817, Note_off_c, 0, 67, 61
1, 117833, Note_off_c, 0, 48, 50
1, 117844, Note_off_c, 0, 36, 39
1, 117862, Control_c, 0, 67, 117
1, 117870, Note_off_c, 0, 75, 62
1, 117876, Control_c, 0, 67, 96
1, 117891, Control_c, 0, 67, 68
1, 117892, Note_off_c, 0, 46, 51
1, 117913, Control_c, 0, 67, 41
1, 117924, Note_on_c, 0, 48, 56
1, 117928, Control_c, 0, 67, 15
1, 117943, Control_c, 0, 67, 0
1, 117947, Note_off_c, 0, 48, 59
1, 118073, Note_on_c, 0, 80, 80
1, 118082, Note_on_c, 0, 65, 41
1, 118092, Note_on_c, 0, 64, 30
1, 118108, Note_off_c, 0, 65, 55
1, 118126, Note_off_c, 0, 64, 52
1, 118217, Note_on_c, 0, 53, 60
1, 118301, Note_off_c, 0, 53, 52
1, 118329, Note_on_c, 0, 58, 59
1, 118339, Note_on_c, 0, 74, 79
1, 118354, Note_off_c, 0, 80, 65
1, 118365, Note_off_c, 0, 74, 66
1, 118400, Note_off_c, 0, 58, 59
1, 118441, Note_on_c, 0, 53, 44
1, 118477, Note_off_c, 0, 53, 51
1, 118608, Note_on_c, 0, 48, 34
1, 118616, Note_on_c, 0, 36, 50
1, 118619, Note_on_c, 0, 67, 75
1, 118624, Control_c, 0, 64, 83
1, 118639, Control_c, 0, 64, 64
1, 118662, Control_c, 0, 64, 33
1, 118673, Note_on_c, 0, 56, 46
1, 118676, Control_c, 0, 64, 15
1, 118691, Control_c, 0, 64, 41
1, 118706, Control_c, 0, 64, 57
1, 118721, Control_c, 0, 64, 65
1, 118731, Note_off_c, 0, 67, 59
1, 118736, Control_c, 0, 64, 71
1, 118739, Note_off_c, 0, 48, 37
1, 118745, Note_on_c, 0, 46, 48
1, 118750, Note_off_c, 0, 56, 64
1, 118751, Control_c, 0, 64, 82
1, 118766, Control_c, 0, 64, 98
1, 118781, Control_c, 0, 64, 127
1, 118864, Note_on_c, 0, 48, 50
1, 118869, Note_on_c, 0, 63, 56
1, 118888, Note_on_c, 0, 72, 71
1, 118903, Note_off_c, 0, 63, 64
1, 118913, Note_off_c, 0, 48, 60
1, 118917, Note_off_c, 0, 36, 38
1, 118949, Note_off_c, 0, 72, 60
1, 118993, Note_off_c, 0, 46, 41
1, 119055, Poly_aftertouch_c, 0, 48, 0
1, 119082, Poly_aftertouch_c, 0, 48, 0
1, 119092, Control_c, 0, 67, 16
1, 119107, Control_c, 0, 67, 29
1, 119122, Control_c, 0, 67, 47
1, 119136, Control_c, 0, 67, 66
1, 119151, Control_c, 0, 67, 87
1, 119166, Control_c, 0, 67, 109
1, 119180, Control_c, 0, 67, 127
1, 119190, Note_on_c, 0, 77, 69
1, 119191, Note_on_c, 0, 62, 11
1, 119239, Note_off_c, 0, 62, 38
1, 119296, Note_off_c, 0, 77, 62
1, 119347, Note_on_c, 0, 53, 46
1, 119395, Note_off_c, 0, 53, 57
1, 119455, Note_on_c, 0, 58, 49
1, 119508, Note_on_c, 0, 65, 50
1, 119517, Note_off_c, 0, 58, 58
1, 119539, Note_off_c, 0, 65, 64
1, 119586, Note_on_c, 0, 53, 51
1, 119610, Note_off_c, 0, 53, 59
1, 119767, Control_c, 0, 64, 110
1, 119782, Control_c, 0, 64, 75
1, 119789, Note_on_c, 0, 36, 41
1, 119797, Control_c, 0, 64, 49
1, 119812, Control_c, 0, 64, 0
1, 119822, Note_on_c, 0, 53, 59
1, 119872, Control_c, 0, 64, 36
1, 119886, Control_c, 0, 64, 58
1, 119901, Control_c, 0, 64, 65
1, 119916, Control_c, 0, 64, 70
1, 119930, Control_c, 0, 64, 78
1, 119945, Control_c, 0, 64, 88
1, 119955, Note_on_c, 0, 46, 50
1, 119960, Control_c, 0, 64, 100
1, 119962, Note_off_c, 0, 53, 63
1, 119975, Control_c, 0, 64, 113
1, 119990, Control_c, 0, 64, 127
1, 120091, Note_on_c, 0, 48, 47
1, 120119, Note_off_c, 0, 48, 58
1, 120234, Note_on_c, 0, 75, 64
1, 120238, Note_on_c, 0, 48, 42
1, 120241, Note_off_c, 0, 46, 40
1, 120245, Note_off_c, 0, 36, 37
1, 120249, Note_on_c, 0, 63, 48
1, 120264, Note_off_c, 0, 48, 55
1, 120265, Note_off_c, 0, 75, 66
1, 120272, Note_off_c, 0, 63, 56
1, 120274, Note_on_c, 0, 68, 42
1, 120310, Note_off_c, 0, 68, 60
1, 120316, Note_on_c, 0, 62, 53
1, 120323, Note_on_c, 0, 67, 60
1, 120339, Note_on_c, 0, 72, 57
1, 120497, Note_on_c, 0, 51, 46
1, 120551, Note_off_c, 0, 62, 30
1, 120619, Note_off_c, 0, 51, 54
1, 120635, Note_on_c, 0, 56, 54
1, 120643, Note_off_c, 0, 67, 57
1, 120756, Note_off_c, 0, 56, 58
1, 120766, Note_on_c, 0, 51, 51
1, 120907, Note_off_c, 0, 72, 38
1, 120956, Note_on_c, 0, 56, 54
1, 121001, Note_on_c, 0, 62, 47
1, 121015, Note_off_c, 0, 51, 36
1, 121031, Note_off_c, 0, 56, 56
1, 121042, Note_off_c, 0, 62, 62
1, 121066, Note_on_c, 0, 67, 67
1, 121104, Note_off_c, 0, 67, 62
1, 121124, Note_on_c, 0, 62, 64
1, 121155, Note_off_c, 0, 62, 67
1, 121161, Note_on_c, 0, 56, 47
1, 121184, Note_on_c, 0, 51, 68
1, 121186, Note_off_c, 0, 56, 58
1, 121210, Note_off_c, 0, 51, 64
1, 121259, Note_on_c, 0, 55, 60
1, 121292, Note_off_c, 0, 55, 65
1, 121319, Note_on_c, 0, 50, 50
1, 121324, Note_on_c, 0, 44, 61
1, 121363, Note_off_c, 0, 50, 62
1, 121391, Note_off_c, 0, 44, 61
1, 121402, Note_on_c, 0, 39, 59
1, 121444, Note_off_c, 0, 39, 62
1, 121657, Note_on_c, 0, 24, 83
1, 121663, Poly_aftertouch_c, 0, 36, 127
1, 121672, Control_c, 0, 64, 111
1, 121687, Control_c, 0, 64, 76
1, 121702, Control_c, 0, 64, 58
1, 121704, Note_on_c, 0, 60, 43
1, 121708, Poly_aftertouch_c, 0, 36, 0
1, 121717, Control_c, 0, 64, 0
1, 121775, Control_c, 0, 64, 42
1, 121790, Control_c, 0, 64, 61
1, 121804, Note_off_c, 0, 24, 61
1, 121805, Control_c, 0, 64, 68
1, 121820, Control_c, 0, 64, 79
1, 121835, Control_c, 0, 64, 103
1, 121850, Control_c, 0, 64, 127
1, 121909, Note_off_c, 0, 60, 55
1, 121949, Note_on_c, 0, 58, 45
1, 122069, Note_on_c, 0, 48, 73
1, 122075, Note_on_c, 0, 51, 66
1, 122081, Note_off_c, 0, 58, 56
1, 122087, Note_on_c, 0, 60, 35
1, 122140, Note_off_c, 0, 60, 56
1, 122191, Note_off_c, 0, 51, 38
1, 122191, Control_c, 0, 67, 119
1, 122206, Control_c, 0, 67, 102
1, 122221, Control_c, 0, 67, 78
1, 122236, Control_c, 0, 67, 58
1, 122251, Control_c, 0, 67, 38
1, 122259, Note_on_c, 0, 60, 55
1, 122265, Control_c, 0, 67, 19
1, 122280, Control_c, 0, 67, 0
1, 122376, Note_on_c, 0, 53, 79
1, 122385, Note_on_c, 0, 56, 83
1, 122574, Note_on_c, 0, 63, 57
1, 122587, Note_off_c, 0, 60, 40
1, 122631, Note_off_c, 0, 48, 56
1, 122635, Note_off_c, 0, 53, 61
1, 122642, Note_off_c, 0, 63, 62
1, 122644, Note_on_c, 0, 68, 65
1, 122690, Note_off_c, 0, 56, 63
1, 122701, Note_off_c, 0, 68, 61
1, 122719, Note_on_c, 0, 74, 66
1, 122761, Note_off_c, 0, 74, 56
1, 122769, Note_on_c, 0, 68, 65
1, 122848, Note_on_c, 0, 58, 94
1, 122853, Note_on_c, 0, 63, 69
1, 122860, Note_off_c, 0, 68, 61
1, 122884, Note_off_c, 0, 63, 61
1, 122955, Poly_aftertouch_c, 0, 62, 0
1, 123013, Note_on_c, 0, 55, 89
1, 123038, Note_on_c, 0, 60, 59
1, 123043, Control_c, 0, 64, 118
1, 123046, Note_on_c, 0, 62, 55
1, 123046, Note_off_c, 0, 58, 63
1, 123058, Control_c, 0, 64, 70
1, 123073, Control_c, 0, 64, 44
1, 123089, Control_c, 0, 64, 0
1, 123171, Control_c, 0, 64, 43
1, 123177, Note_off_c, 0, 60, 61
1, 123183, Note_on_c, 0, 58, 59
1, 123185, Control_c, 0, 64, 55
1, 123200, Control_c, 0, 64, 60
1, 123215, Control_c, 0, 64, 65
1, 123229, Control_c, 0, 64, 70
1, 123244, Control_c, 0, 64, 82
1, 123259, Control_c, 0, 64, 103
1, 123274, Control_c, 0, 64, 127
1, 123318, Note_off_c, 0, 58, 56
1, 123332, Note_on_c, 0, 60, 59
1, 123356, Note_off_c, 0, 62, 41
1, 123377, Note_off_c, 0, 60, 61
1, 123500, Note_on_c, 0, 60, 59
1, 123574, Note_off_c, 0, 60, 62
1, 123783, Note_on_c, 0, 65, 45
1, 123826, Note_off_c, 0, 65, 61
1, 123857, Note_on_c, 0, 70, 56
1, 123860, Note_off_c, 0, 55, 65
1, 123914, Note_off_c, 0, 70, 56
1, 123932, Note_on_c, 0, 75, 58
1, 124012, Note_on_c, 0, 70, 64
1, 124013, Note_off_c, 0, 75, 60
1, 124080, Note_off_c, 0, 70, 61
1, 124081, Note_on_c, 0, 65, 53
1, 124129, Note_off_c, 0, 65, 59
1, 124223, Note_on_c, 0, 72, 70
1, 124230, Control_c, 0, 64, 86
1, 124231, Note_on_c, 0, 36, 72
1, 124234, Note_on_c, 0, 48, 74
1, 124245, Control_c, 0, 64, 66
1, 124260, Control_c, 0, 64, 53
1, 124268, Note_on_c, 0, 38, 41
1, 124269, Note_off_c, 0, 38, 127
1, 124275, Control_c, 0, 64, 53
1, 124289, Control_c, 0, 64, 60
1, 124304, Control_c, 0, 64, 64
1, 124319, Control_c, 0, 64, 71
1, 124334, Control_c, 0, 64, 85
1, 124339, Note_off_c, 0, 36, 62
1, 124349, Control_c, 0, 64, 127
1, 124369, Note_off_c, 0, 48, 63
1, 124385, Note_on_c, 0, 70, 67
1, 124405, Note_off_c, 0, 72, 60
1, 124516, Note_on_c, 0, 60, 99
1, 124521, Note_on_c, 0, 51, 91
1, 124531, Note_on_c, 0, 72, 58
1, 124534, Note_off_c, 0, 70, 64
1, 124576, Note_off_c, 0, 72, 62
1, 124671, Note_off_c, 0, 60, 64
1, 124674, Note_off_c, 0, 51, 62
1, 124678, Note_on_c, 0, 72, 84
1, 124815, Note_on_c, 0, 65, 96
1, 124820, Note_on_c, 0, 56, 92
1, 124996, Note_on_c, 0, 75, 72
1, 125025, Note_off_c, 0, 56, 62
1, 125027, Note_off_c, 0, 72, 56
1, 125057, Note_on_c, 0, 80, 72
1, 125061, Note_off_c, 0, 65, 62
1, 125074, Note_off_c, 0, 75, 63
1, 125123, Note_on_c, 0, 86, 77
1, 125124, Note_off_c, 0, 80, 64
1, 125195, Note_off_c, 0, 86, 62
1, 125199, Note_on_c, 0, 80, 72
1, 125252, Note_on_c, 0, 70, 97
1, 125255, Note_on_c, 0, 62, 88
1, 125255, Note_on_c, 0, 75, 79
1, 125292, Note_off_c, 0, 80, 63
1, 125300, Note_off_c, 0, 70, 62
1, 125305, Note_off_c, 0, 62, 62
1, 125331, Note_off_c, 0, 75, 61
1, 125431, Note_on_c, 0, 67, 92
1, 125437, Note_on_c, 0, 55, 85
1, 125440, Note_on_c, 0, 72, 78
1, 125440, Note_on_c, 0, 60, 75
1, 125446, Note_on_c, 0, 58, 75
1, 125505, Control_c, 0, 64, 117
1, 125520, Control_c, 0, 64, 73
1, 125535, Control_c, 0, 64, 49
1, 125550, Control_c, 0, 64, 0
1, 125577, Note_on_c, 0, 70, 79
1, 125579, Note_off_c, 0, 72, 58
1, 125638, Control_c, 0, 64, 49
1, 125653, Control_c, 0, 64, 61
1, 125668, Control_c, 0, 64, 69
1, 125683, Control_c, 0, 64, 79
1, 125697, Control_c, 0, 64, 109
1, 125712, Control_c, 0, 64, 127
1, 125722, Note_on_c, 0, 72, 66
1, 125743, Note_off_c, 0, 70, 55
1, 125789, Note_off_c, 0, 72, 63
1, 125895, Note_on_c, 0, 72, 78
1, 125998, Note_off_c, 0, 72, 63
1, 126165, Note_on_c, 0, 77, 55
1, 126210, Note_off_c, 0, 77, 61
1, 126222, Note_on_c, 0, 82, 58
1, 126243, Note_off_c, 0, 82, 65
1, 126261, Note_on_c, 0, 87, 71
1, 126309, Note_on_c, 0, 82, 82
1, 126328, Note_off_c, 0, 87, 62
1, 126355, Note_off_c, 0, 82, 61
1, 126371, Note_on_c, 0, 77, 70
1, 126400, Note_off_c, 0, 77, 66
1, 126430, Note_on_c, 0, 75, 76
1, 126484, Note_on_c, 0, 70, 81
1, 126488, Note_off_c, 0, 67, 48
1, 126499, Note_off_c, 0, 75, 62
1, 126526, Note_off_c, 0, 70, 62
1, 126552, Note_off_c, 0, 60, 62
1, 126561, Note_on_c, 0, 67, 48
1, 126576, Note_off_c, 0, 58, 63
1, 126585, Note_off_c, 0, 67, 58
1, 126591, Note_off_c, 0, 55, 63
1, 126611, Note_on_c, 0, 63, 81
1, 126698, Control_c, 0, 64, 97
1, 126699, Note_on_c, 0, 58, 104
1, 126713, Control_c, 0, 64, 67
1, 126720, Note_on_c, 0, 48, 56
1, 126725, Note_on_c, 0, 36, 67
1, 126728, Control_c, 0, 64, 0
1, 126746, Note_off_c, 0, 48, 57
1, 126754, Note_off_c, 0, 63, 26
1, 126766, Note_off_c, 0, 36, 64
1, 126773, Control_c, 0, 64, 12
1, 126788, Control_c, 0, 64, 57
1, 126802, Control_c, 0, 64, 68
1, 126817, Control_c, 0, 64, 81
1, 126833, Control_c, 0, 64, 127
1, 126874, Note_on_c, 0, 34, 62
1, 126882, Note_on_c, 0, 46, 47
1, 126917, Note_off_c, 0, 46, 56
1, 126918, Note_off_c, 0, 34, 63
1, 126968, Note_off_c, 0, 58, 63
1, 126996, Note_on_c, 0, 63, 98
1, 127009, Note_on_c, 0, 36, 57
1, 127023, Note_on_c, 0, 48, 40
1, 127045, Note_off_c, 0, 36, 63
1, 127053, Note_off_c, 0, 48, 51
1, 127058, Note_off_c, 0, 63, 63
1, 127121, Note_on_c, 0, 48, 76
1, 127146, Note_off_c, 0, 48, 68
1, 127161, Note_on_c, 0, 36, 5
1, 127201, Note_off_c, 0, 36, 54
1, 127261, Note_on_c, 0, 68, 100
1, 127280, Note_on_c, 0, 53, 84
1, 127364, Note_off_c, 0, 68, 59
1, 127408, Note_on_c, 0, 65, 66
1, 127440, Note_off_c, 0, 65, 60
1, 127473, Note_on_c, 0, 75, 53
1, 127479, Note_on_c, 0, 70, 52
1, 127500, Note_off_c, 0, 75, 61
1, 127509, Note_off_c, 0, 70, 66
1, 127521, Note_on_c, 0, 77, 73
1, 127553, Note_on_c, 0, 62, 100
1, 127579, Note_on_c, 0, 75, 74
1, 127589, Note_on_c, 0, 70, 79
1, 127597, Note_off_c, 0, 77, 60
1, 127604, Note_off_c, 0, 75, 67
1, 127634, Note_off_c, 0, 70, 65
1, 127682, Note_on_c, 0, 65, 59
1, 127687, Note_off_c, 0, 62, 63
1, 127712, Note_off_c, 0, 65, 64
1, 127735, Note_off_c, 0, 53, 64
1, 127834, Note_on_c, 0, 59, 8
1, 127870, Note_off_c, 0, 59, 45
1, 127883, Note_on_c, 0, 55, 98
1, 127900, Note_on_c, 0, 48, 46
1, 127900, Control_c, 0, 64, 91
1, 127905, Note_on_c, 0, 36, 53
1, 127907, Note_on_c, 0, 35, 54
1, 127915, Control_c, 0, 64, 66
1, 127926, Note_off_c, 0, 48, 55
1, 127930, Control_c, 0, 64, 32
1, 127936, Note_off_c, 0, 35, 56
1, 127940, Note_off_c, 0, 36, 62
1, 127945, Control_c, 0, 64, 0
1, 127960, Control_c, 0, 64, 38
1, 127974, Control_c, 0, 64, 57
1, 127989, Control_c, 0, 64, 68
1, 128004, Control_c, 0, 64, 82
1, 128019, Control_c, 0, 64, 127
1, 128036, Note_on_c, 0, 46, 64
1, 128038, Note_on_c, 0, 34, 67
1, 128078, Note_off_c, 0, 46, 62
1, 128079, Note_off_c, 0, 34, 59
1, 128147, Note_on_c, 0, 60, 104
1, 128156, Note_off_c, 0, 55, 58
1, 128162, Note_on_c, 0, 48, 64
1, 128165, Note_on_c, 0, 36, 63
1, 128192, Note_off_c, 0, 48, 63
1, 128204, Note_off_c, 0, 36, 60
1, 128272, Note_on_c, 0, 48, 80
1, 128285, Note_on_c, 0, 36, 65
1, 128317, Note_off_c, 0, 36, 62
1, 128322, Note_off_c, 0, 48, 65
1, 128344, Note_off_c, 0, 60, 64
1, 128436, Note_on_c, 0, 65, 109
1, 128453, Note_on_c, 0, 50, 80
1, 128546, Note_off_c, 0, 65, 60
1, 128599, Note_on_c, 0, 62, 65
1, 128636, Note_off_c, 0, 62, 60
1, 128691, Note_on_c, 0, 67, 56
1, 128712, Note_on_c, 0, 58, 86
1, 128725, Note_off_c, 0, 67, 64
1, 128734, Note_on_c, 0, 74, 64
1, 128782, Note_on_c, 0, 72, 62
1, 128805, Note_off_c, 0, 74, 63
1, 128812, Note_on_c, 0, 67, 69
1, 128829, Note_off_c, 0, 72, 58
1, 128846, Note_off_c, 0, 67, 59
1, 128856, Note_off_c, 0, 58, 61
1, 128868, Note_on_c, 0, 62, 63
1, 128900, Note_off_c, 0, 62, 65
1, 128903, Note_off_c, 0, 50, 63
1, 129008, Note_on_c, 0, 55, 72
1, 129049, Poly_aftertouch_c, 0, 60, 0
1, 129077, Note_on_c, 0, 53, 106
1, 129092, Note_off_c, 0, 55, 50
1, 129092, Control_c, 0, 64, 77
1, 129107, Control_c, 0, 64, 51
1, 129121, Note_on_c, 0, 34, 42
1, 129122, Control_c, 0, 64, 0
1, 129160, Control_c, 0, 64, 33
1, 129171, Note_off_c, 0, 34, 56
1, 129175, Control_c, 0, 64, 54
1, 129190, Control_c, 0, 64, 65
1, 129205, Control_c, 0, 64, 80
1, 129219, Control_c, 0, 64, 127
1, 129228, Note_on_c, 0, 34, 52
1, 129244, Note_on_c, 0, 46, 33
1, 129264, Note_off_c, 0, 34, 62
1, 129281, Note_off_c, 0, 46, 48
1, 129311, Note_off_c, 0, 53, 64
1, 129368, Note_on_c, 0, 50, 67
1, 129396, Note_off_c, 0, 50, 66
1, 129470, Note_on_c, 0, 50, 70
1, 129506, Note_off_c, 0, 50, 65
1, 129547, Note_on_c, 0, 63, 65
1, 129565, Note_off_c, 0, 63, 66
1, 129606, Note_on_c, 0, 67, 83
1, 129616, Note_on_c, 0, 72, 88
1, 129621, Note_on_c, 0, 62, 78
1, 129639, Poly_aftertouch_c, 0, 68, 0
1, 129704, Note_on_c, 0, 51, 71
1, 129725, Note_off_c, 0, 62, 60
1, 129753, Note_off_c, 0, 67, 61
1, 129768, Note_on_c, 0, 56, 78
1, 129775, Note_off_c, 0, 51, 64
1, 129788, Note_off_c, 0, 72, 57
1, 129794, Note_off_c, 0, 56, 68
1, 129807, Note_on_c, 0, 62, 57
1, 129839, Note_on_c, 0, 67, 71
1, 129840, Note_off_c, 0, 62, 64
1, 129873, Note_off_c, 0, 67, 62
1, 129891, Note_on_c, 0, 72, 68
1, 129895, Note_on_c, 0, 63, 81
1, 129919, Note_off_c, 0, 72, 67
1, 129935, Note_on_c, 0, 66, 70
1, 129940, Note_off_c, 0, 63, 64
1, 129964, Note_off_c, 0, 66, 64
1, 129966, Note_on_c, 0, 74, 91
1, 130009, Note_on_c, 0, 79, 80
1, 130012, Note_off_c, 0, 74, 65
1, 130037, Note_off_c, 0, 79, 67
1, 130040, Note_on_c, 0, 84, 78
1, 130045, Note_on_c, 0, 75, 93
1, 130061, Note_off_c, 0, 84, 71
1, 130087, Note_on_c, 0, 80, 87
1, 130096, Note_off_c, 0, 75, 63
1, 130111, Note_on_c, 0, 86, 88
1, 130132, Note_off_c, 0, 80, 62
1, 130161, Note_off_c, 0, 86, 63
1, 130198, Note_on_c, 0, 96, 103
1, 130259, Note_on_c, 0, 91, 83
1, 130276, Note_on_c, 0, 80, 69
1, 130289, Note_off_c, 0, 96, 66
1, 130300, Note_on_c, 0, 86, 80
1, 130315, Note_off_c, 0, 91, 66
1, 130330, Note_on_c, 0, 75, 74
1, 130332, Note_off_c, 0, 80, 65
1, 130333, Note_on_c, 0, 88, 10
1, 130333, Note_off_c, 0, 86, 62
1, 130353, Note_off_c, 0, 75, 68
1, 130384, Note_off_c, 0, 88, 28
1, 130396, Note_on_c, 0, 84, 88
1, 130406, Note_on_c, 0, 79, 86
1, 130447, Note_off_c, 0, 84, 64
1, 130450, Note_on_c, 0, 68, 81
1, 130472, Note_off_c, 0, 79, 63
1, 130477, Note_on_c, 0, 74, 70
1, 130502, Note_off_c, 0, 74, 68
1, 130520, Note_on_c, 0, 63, 80
1, 130520, Note_off_c, 0, 68, 62
1, 130542, Note_off_c, 0, 63, 70
1, 130578, Note_on_c, 0, 67, 62
1, 130610, Note_off_c, 0, 67, 65
1, 130657, Poly_aftertouch_c, 0, 72, 0
1, 130659, Note_on_c, 0, 56, 65
1, 130663, Note_on_c, 0, 60, 58
1, 130676, Note_on_c, 0, 57, 50
1, 130689, Poly_aftertouch_c, 0, 65, 0
1, 130694, Note_off_c, 0, 60, 63
1, 130696, Note_on_c, 0, 51, 82
1, 130698, Note_off_c, 0, 56, 65
1, 130702, Note_off_c, 0, 57, 57
1, 130747, Note_off_c, 0, 51, 63
1, 130806, Control_c, 0, 64, 111
1, 130817, Note_on_c, 0, 60, 112
1, 130821, Control_c, 0, 64, 71
1, 130833, Note_on_c, 0, 48, 82
1, 130835, Control_c, 0, 64, 32
1, 130839, Note_on_c, 0, 36, 78
1, 130850, Control_c, 0, 64, 0
1, 130868, Note_off_c, 0, 48, 65
1, 130880, Control_c, 0, 64, 40
1, 130889, Note_off_c, 0, 36, 60
1, 130895, Control_c, 0, 64, 64
1, 130909, Control_c, 0, 64, 78
1, 130920, Note_off_c, 0, 60, 66
1, 130924, Control_c, 0, 64, 127
1, 130984, Note_on_c, 0, 46, 76
1, 130986, Note_on_c, 0, 58, 94
1, 131011, Note_on_c, 0, 34, 36
1, 131011, Note_off_c, 0, 46, 66
1, 131025, Note_off_c, 0, 58, 61
1, 131054, Note_off_c, 0, 34, 50
1, 131134, Note_on_c, 0, 48, 77
1, 131136, Note_on_c, 0, 75, 103
1, 131137, Note_on_c, 0, 63, 97
1, 131138, Note_on_c, 0, 60, 84
1, 131166, Note_off_c, 0, 60, 59
1, 131201, Note_off_c, 0, 48, 61
1, 131215, Poly_aftertouch_c, 0, 51, 127
1, 131235, Poly_aftertouch_c, 0, 51, 0
1, 131238, Note_off_c, 0, 63, 60
1, 131252, Note_on_c, 0, 51, 63
1, 131268, Note_on_c, 0, 60, 72
1, 131289, Note_off_c, 0, 60, 72
1, 131308, Note_off_c, 0, 51, 64
1, 131310, Note_off_c, 0, 75, 58
1, 131397, Note_on_c, 0, 80, 106
1, 131400, Note_on_c, 0, 65, 89
1, 131401, Note_on_c, 0, 68, 97
1, 131402, Note_on_c, 0, 53, 87
1, 131556, Note_off_c, 0, 68, 58
1, 131563, Note_off_c, 0, 53, 60
1, 131605, Note_off_c, 0, 65, 56
1, 131678, Note_off_c, 0, 80, 60
1, 131810, Note_on_c, 0, 58, 69
1, 131810, Note_on_c, 0, 86, 104
1, 131812, Note_on_c, 0, 74, 99
1, 131813, Note_on_c, 0, 70, 73
1, 131846, Note_off_c, 0, 74, 67
1, 131846, Note_off_c, 0, 86, 70
1, 131866, Note_off_c, 0, 70, 61
1, 131932, Note_on_c, 0, 62, 75
1, 131935, Note_off_c, 0, 58, 60
1, 131936, Note_on_c, 0, 79, 103
1, 131937, Note_on_c, 0, 60, 72
1, 131940, Note_on_c, 0, 67, 100
1, 131940, Control_c, 0, 64, 83
1, 131955, Control_c, 0, 64, 59
1, 131970, Control_c, 0, 64, 0
1, 132014, Control_c, 0, 64, 51
1, 132029, Control_c, 0, 64, 67
1, 132044, Control_c, 0, 64, 92
1, 132058, Control_c, 0, 64, 127
1, 132076, Note_off_c, 0, 60, 60
1, 132085, Note_on_c, 0, 58, 66
1, 132085, Note_off_c, 0, 62, 59
1, 132189, Note_off_c, 0, 58, 61
1, 132213, Note_on_c, 0, 62, 66
1, 132217, Note_on_c, 0, 60, 58
1, 132266, Note_off_c, 0, 62, 60
1, 132278, Note_off_c, 0, 60, 57
1, 132359, Note_on_c, 0, 62, 81
1, 132365, Note_on_c, 0, 60, 69
1, 132383, Note_off_c, 0, 62, 69
1, 132392, Note_off_c, 0, 60, 66
1, 132493, Note_off_c, 0, 67, 58
1, 132509, Note_off_c, 0, 79, 51
1, 132614, Note_on_c, 0, 63, 72
1, 132617, Note_on_c, 0, 68, 80
1, 132648, Note_off_c, 0, 63, 59
1, 132675, Note_off_c, 0, 68, 61
1, 132679, Note_on_c, 0, 67, 60
1, 132687, Note_on_c, 0, 72, 82
1, 132714, Note_off_c, 0, 67, 65
1, 132737, Note_on_c, 0, 77, 85
1, 132747, Note_on_c, 0, 74, 78
1, 132749, Note_off_c, 0, 72, 66
1, 132790, Note_on_c, 0, 80, 101
1, 132799, Note_on_c, 0, 75, 83
1, 132803, Note_on_c, 0, 72, 66
1, 132804, Note_off_c, 0, 77, 62
1, 132813, Note_off_c, 0, 74, 62
1, 132822, Note_off_c, 0, 80, 61
1, 132826, Note_on_c, 0, 73, 43
1, 132854, Note_off_c, 0, 73, 57
1, 132857, Note_off_c, 0, 75, 59
1, 132860, Note_off_c, 0, 72, 64
1, 132877, Note_on_c, 0, 77, 76
1, 132897, Note_on_c, 0, 74, 82
1, 132942, Note_off_c, 0, 77, 62
1, 132956, Note_on_c, 0, 72, 83
1, 132974, Note_off_c, 0, 74, 60
1, 133011, Note_on_c, 0, 67, 79
1, 133015, Note_off_c, 0, 72, 64
1, 133041, Note_off_c, 0, 67, 65
1, 133082, Control_c, 0, 64, 88
1, 133096, Control_c, 0, 64, 62
1, 133098, Note_on_c, 0, 60, 100
1, 133100, Note_on_c, 0, 48, 81
1, 133111, Note_on_c, 0, 36, 73
1, 133111, Control_c, 0, 64, 0
1, 133140, Note_off_c, 0, 48, 61
1, 133142, Control_c, 0, 64, 21
1, 133150, Note_off_c, 0, 36, 65
1, 133157, Control_c, 0, 64, 56
1, 133172, Control_c, 0, 64, 68
1, 133186, Control_c, 0, 64, 86
1, 133201, Control_c, 0, 64, 127
1, 133204, Note_off_c, 0, 60, 64
1, 133240, Note_on_c, 0, 58, 89
1, 133257, Note_on_c, 0, 46, 63
1, 133259, Note_on_c, 0, 34, 59
1, 133259, Note_off_c, 0, 58, 72
1, 133281, Note_off_c, 0, 46, 60
1, 133292, Note_off_c, 0, 34, 54
1, 133402, Note_on_c, 0, 72, 102
1, 133405, Note_on_c, 0, 84, 100
1, 133408, Note_on_c, 0, 60, 71
1, 133410, Note_on_c, 0, 51, 75
1, 133411, Note_on_c, 0, 63, 73
1, 133422, Note_on_c, 0, 61, 44
1, 133438, Note_off_c, 0, 63, 65
1, 133441, Note_off_c, 0, 51, 63
1, 133451, Note_off_c, 0, 61, 52
1, 133506, Note_off_c, 0, 60, 0
1, 133523, Note_on_c, 0, 63, 82
1, 133524, Note_on_c, 0, 51, 85
1, 133530, Note_on_c, 0, 60, 23
1, 133539, Note_off_c, 0, 72, 60
1, 133569, Note_off_c, 0, 51, 65
1, 133569, Note_off_c, 0, 63, 65
1, 133570, Note_off_c, 0, 60, 43
1, 133576, Note_off_c, 0, 84, 63
1, 133661, Note_on_c, 0, 77, 108
1, 133664, Note_on_c, 0, 89, 113
1, 133667, Note_on_c, 0, 68, 95
1, 133672, Note_on_c, 0, 56, 82
1, 133727, Note_off_c, 0, 56, 64
1, 133761, Note_off_c, 0, 68, 59
1, 133848, Note_off_c, 0, 77, 60
1, 133852, Note_on_c, 0, 88, 39
1, 133888, Note_off_c, 0, 88, 50
1, 133903, Note_off_c, 0, 89, 59
1, 134067, Note_on_c, 0, 74, 77
1, 134071, Note_on_c, 0, 62, 73
1, 134079, Note_on_c, 0, 82, 103
1, 134080, Note_on_c, 0, 94, 103
1, 134091, Note_off_c, 0, 74, 69
1, 134112, Note_off_c, 0, 82, 67
1, 134114, Note_off_c, 0, 62, 62
1, 134123, Note_off_c, 0, 94, 64
1, 134179, Note_on_c, 0, 79, 106
1, 134179, Note_on_c, 0, 91, 111
1, 134187, Control_c, 0, 64, 113
1, 134197, Note_on_c, 0, 60, 67
1, 134201, Note_on_c, 0, 62, 68
1, 134202, Control_c, 0, 64, 68
1, 134216, Control_c, 0, 64, 16
1, 134231, Control_c, 0, 64, 0
1, 134261, Control_c, 0, 64, 36
1, 134276, Control_c, 0, 64, 60
1, 134290, Control_c, 0, 64, 73
1, 134300, Note_off_c, 0, 60, 57
1, 134305, Control_c, 0, 64, 111
1, 134310, Note_off_c, 0, 62, 59
1, 134317, Note_on_c, 0, 58, 74
1, 134321, Control_c, 0, 64, 127
1, 134427, Note_off_c, 0, 58, 58
1, 134431, Note_off_c, 0, 91, 61
1, 134458, Note_on_c, 0, 62, 62
1, 134471, Note_on_c, 0, 60, 52
1, 134478, Poly_aftertouch_c, 0, 85, 127
1, 134484, Note_off_c, 0, 79, 61
1, 134503, Note_off_c, 0, 60, 64
1, 134510, Note_off_c, 0, 62, 58
1, 134532, Poly_aftertouch_c, 0, 85, 0
1, 134604, Note_on_c, 0, 62, 88
1, 134607, Note_on_c, 0, 60, 78
1, 134630, Note_off_c, 0, 62, 67
1, 134633, Note_off_c, 0, 60, 68
1, 134869, Note_on_c, 0, 67, 92
1, 134876, Note_on_c, 0, 65, 79
1, 134900, Note_off_c, 0, 65, 68
1, 134905, Note_off_c, 0, 67, 65
1, 134928, Note_on_c, 0, 70, 79
1, 134929, Note_on_c, 0, 75, 85
1, 134953, Note_off_c, 0, 70, 67
1, 134980, Note_on_c, 0, 82, 84
1, 134989, Note_off_c, 0, 75, 61
1, 134998, Note_on_c, 0, 77, 60
1, 135033, Note_off_c, 0, 77, 45
1, 135034, Note_on_c, 0, 75, 83
1, 135049, Note_on_c, 0, 89, 113
1, 135051, Note_off_c, 0, 82, 63
1, 135057, Note_on_c, 0, 84, 85
1, 135063, Note_on_c, 0, 70, 65
1, 135071, Note_off_c, 0, 89, 63
1, 135074, Note_off_c, 0, 84, 72
1, 135089, Note_off_c, 0, 70, 68
1, 135109, Note_off_c, 0, 75, 63
1, 135113, Note_on_c, 0, 77, 83
1, 135118, Note_on_c, 0, 82, 73
1, 135164, Note_on_c, 0, 80, 43
1, 135172, Note_on_c, 0, 75, 80
1, 135187, Note_off_c, 0, 77, 60
1, 135189, Note_off_c, 0, 80, 55
1, 135194, Note_off_c, 0, 82, 64
1, 135199, Note_on_c, 0, 70, 85
1, 135232, Note_off_c, 0, 75, 64
1, 135236, Note_on_c, 0, 69, 79
1, 135251, Note_off_c, 0, 69, 70
1, 135252, Note_off_c, 0, 70, 65
1, 135372, Control_c, 0, 64, 92
1, 135375, Note_on_c, 0, 63, 86
1, 135381, Note_on_c, 0, 50, 47
1, 135387, Note_on_c, 0, 48, 52
1, 135387, Control_c, 0, 64, 69
1, 135402, Control_c, 0, 64, 48
1, 135405, Note_on_c, 0, 36, 48
1, 135411, Note_off_c, 0, 50, 57
1, 135417, Note_off_c, 0, 48, 54
1, 135417, Control_c, 0, 64, 0
1, 135453, Note_off_c, 0, 36, 44
1, 135490, Note_on_c, 0, 46, 66
1, 135520, Note_off_c, 0, 46, 65
1, 135633, Note_on_c, 0, 48, 68
1, 135634, Note_on_c, 0, 68, 77
1, 135636, Note_on_c, 0, 36, 66
1, 135655, Note_off_c, 0, 48, 63
1, 135666, Note_off_c, 0, 36, 63
1, 135712, Note_off_c, 0, 63, 54
1, 135760, Note_on_c, 0, 48, 59
1, 135760, Note_on_c, 0, 36, 60
1, 135797, Note_off_c, 0, 36, 55
1, 135798, Note_off_c, 0, 48, 60
1, 135895, Note_on_c, 0, 46, 53
1, 135897, Note_on_c, 0, 73, 74
1, 135915, Note_off_c, 0, 68, 58
1, 135921, Note_off_c, 0, 46, 59
1, 136022, Note_on_c, 0, 36, 49
1, 136025, Note_on_c, 0, 48, 45
1, 136055, Note_off_c, 0, 36, 54
1, 136055, Note_off_c, 0, 48, 35
1, 136142, Note_on_c, 0, 48, 65
1, 136142, Note_on_c, 0, 66, 71
1, 136143, Note_on_c, 0, 36, 65
1, 136162, Note_off_c, 0, 73, 55
1, 136171, Note_off_c, 0, 48, 64
1, 136176, Note_off_c, 0, 36, 64
1, 136177, Note_off_c, 0, 66, 63
1, 136188, Note_on_c, 0, 68, 68
1, 136241, Note_on_c, 0, 66, 69
1, 136252, Note_on_c, 0, 46, 66
1, 136259, Note_off_c, 0, 68, 61
1, 136283, Note_off_c, 0, 46, 65
1, 136370, Note_off_c, 0, 66, 62
1, 136371, Note_on_c, 0, 60, 75
1, 136379, Note_on_c, 0, 48, 69
1, 136387, Note_on_c, 0, 36, 66
1, 136399, Note_off_c, 0, 48, 63
1, 136413, Note_off_c, 0, 36, 58
1, 136496, Note_on_c, 0, 48, 75
1, 136497, Note_on_c, 0, 36, 77
1, 136526, Note_off_c, 0, 48, 66
1, 136529, Note_off_c, 0, 36, 67
1, 136632, Note_on_c, 0, 65, 76
1, 136633, Note_on_c, 0, 46, 73
1, 136644, Note_off_c, 0, 60, 62
1, 136659, Note_off_c, 0, 46, 66
1, 136749, Note_on_c, 0, 48, 71
1, 136752, Note_on_c, 0, 36, 68
1, 136781, Note_off_c, 0, 48, 65
1, 136785, Note_off_c, 0, 36, 64
1, 136877, Note_on_c, 0, 70, 78
1, 136878, Note_on_c, 0, 36, 74
1, 136878, Note_on_c, 0, 48, 78
1, 136889, Note_off_c, 0, 65, 61
1, 136902, Note_off_c, 0, 48, 67
1, 136904, Note_off_c, 0, 36, 66
1, 136988, Note_on_c, 0, 48, 63
1, 136989, Note_on_c, 0, 36, 59
1, 137018, Note_off_c, 0, 36, 62
1, 137021, Note_off_c, 0, 48, 65
1, 137088, Note_on_c, 0, 63, 64
1, 137107, Note_on_c, 0, 46, 78
1, 137123, Note_off_c, 0, 63, 64
1, 137137, Note_on_c, 0, 65, 71
1, 137149, Note_off_c, 0, 46, 59
1, 137152, Control_c, 0, 64, 26
1, 137158, Note_off_c, 0, 70, 55
1, 137164, Note_on_c, 0, 48, 80
1, 137167, Control_c, 0, 64, 46
1, 137182, Control_c, 0, 64, 55
1, 137188, Note_off_c, 0, 65, 60
1, 137190, Note_off_c, 0, 48, 68
1, 137197, Note_on_c, 0, 63, 70
1, 137197, Control_c, 0, 64, 62
1, 137212, Control_c, 0, 64, 67
1, 137224, Note_off_c, 0, 63, 68
1, 137227, Control_c, 0, 64, 73
1, 137242, Control_c, 0, 64, 86
1, 137256, Control_c, 0, 64, 115
1, 137271, Control_c, 0, 64, 127
1, 137315, Note_on_c, 0, 56, 91
1, 137316, Control_c, 0, 64, 88
1, 137318, Note_on_c, 0, 82, 88
1, 137331, Control_c, 0, 64, 71
1, 137342, Note_on_c, 0, 70, 54
1, 137345, Control_c, 0, 64, 60
1, 137360, Control_c, 0, 64, 39
1, 137364, Note_off_c, 0, 70, 60
1, 137368, Note_off_c, 0, 82, 63
1, 137382, Control_c, 0, 64, 23
1, 137397, Control_c, 0, 64, 23
1, 137412, Control_c, 0, 64, 25
1, 137426, Control_c, 0, 64, 27
1, 137432, Note_on_c, 0, 80, 81
1, 137441, Control_c, 0, 64, 29
1, 137451, Note_on_c, 0, 70, 54
1, 137456, Control_c, 0, 64, 30
1, 137471, Control_c, 0, 64, 31
1, 137472, Note_off_c, 0, 70, 61
1, 137485, Note_off_c, 0, 80, 64
1, 137486, Control_c, 0, 64, 32
1, 137516, Control_c, 0, 64, 32
1, 137531, Control_c, 0, 64, 33
1, 137540, Note_on_c, 0, 61, 88
1, 137545, Note_on_c, 0, 82, 87
1, 137546, Control_c, 0, 64, 33
1, 137550, Note_on_c, 0, 70, 65
1, 137575, Control_c, 0, 64, 34
1, 137577, Note_off_c, 0, 70, 68
1, 137582, Note_off_c, 0, 82, 61
1, 137656, Note_on_c, 0, 82, 86
1, 137663, Note_on_c, 0, 70, 72
1, 137678, Control_c, 0, 64, 34
1, 137692, Note_off_c, 0, 70, 67
1, 137697, Note_off_c, 0, 82, 62
1, 137738, Control_c, 0, 64, 35
1, 137752, Control_c, 0, 64, 35
1, 137758, Note_on_c, 0, 66, 92
1, 137762, Note_on_c, 0, 80, 81
1, 137767, Control_c, 0, 64, 37
1, 137775, Note_off_c, 0, 61, 61
1, 137782, Control_c, 0, 64, 38
1, 137796, Note_off_c, 0, 80, 63
1, 137797, Control_c, 0, 64, 38
1, 137812, Control_c, 0, 64, 40
1, 137826, Control_c, 0, 64, 43
1, 137841, Control_c, 0, 64, 48
1, 137856, Control_c, 0, 64, 52
1, 137871, Control_c, 0, 64, 56
1, 137879, Note_on_c, 0, 82, 84
1, 137885, Control_c, 0, 64, 59
1, 137890, Note_on_c, 0, 70, 50
1, 137898, Note_off_c, 0, 82, 70
1, 137900, Control_c, 0, 64, 62
1, 137907, Note_off_c, 0, 66, 61
1, 137913, Note_off_c, 0, 70, 59
1, 137915, Control_c, 0, 64, 65
1, 137931, Control_c, 0, 64, 71
1, 137946, Control_c, 0, 64, 79
1, 137959, Note_off_c, 0, 56, 62
1, 137961, Control_c, 0, 64, 95
1, 137964, Note_on_c, 0, 59, 73
1, 137972, Note_on_c, 0, 82, 94
1, 137975, Control_c, 0, 64, 127
1, 137981, Note_on_c, 0, 70, 81
1, 138009, Note_on_c, 0, 61, 80
1, 138019, Note_off_c, 0, 59, 62
1, 138020, Note_off_c, 0, 70, 57
1, 138020, Note_off_c, 0, 82, 65
1, 138075, Note_on_c, 0, 80, 83
1, 138076, Note_off_c, 0, 61, 61
1, 138082, Note_on_c, 0, 58, 65
1, 138083, Note_off_c, 0, 58, 127
1, 138094, Note_on_c, 0, 59, 71
1, 138112, Note_off_c, 0, 80, 62
1, 138116, Note_off_c, 0, 59, 68
1, 138132, Control_c, 0, 64, 105
1, 138147, Control_c, 0, 64, 86
1, 138162, Control_c, 0, 64, 73
1, 138177, Control_c, 0, 64, 64
1, 138181, Note_on_c, 0, 53, 92
1, 138186, Note_on_c, 0, 82, 98
1, 138187, Note_on_c, 0, 70, 85
1, 138191, Control_c, 0, 64, 51
1, 138206, Control_c, 0, 64, 38
1, 138216, Note_off_c, 0, 70, 64
1, 138221, Control_c, 0, 64, 38
1, 138230, Note_off_c, 0, 82, 64
1, 138295, Note_on_c, 0, 82, 91
1, 138295, Control_c, 0, 64, 38
1, 138300, Note_on_c, 0, 70, 84
1, 138324, Control_c, 0, 64, 39
1, 138334, Note_off_c, 0, 70, 62
1, 138338, Note_off_c, 0, 82, 64
1, 138369, Control_c, 0, 64, 39
1, 138393, Note_on_c, 0, 58, 92
1, 138398, Control_c, 0, 64, 40
1, 138399, Note_on_c, 0, 80, 86
1, 138413, Control_c, 0, 64, 40
1, 138427, Note_on_c, 0, 70, 52
1, 138428, Control_c, 0, 64, 41
1, 138442, Note_off_c, 0, 80, 65
1, 138443, Control_c, 0, 64, 41
1, 138451, Note_off_c, 0, 70, 57
1, 138473, Control_c, 0, 64, 42
1, 138498, Note_on_c, 0, 82, 87
1, 138511, Note_on_c, 0, 70, 71
1, 138517, Control_c, 0, 64, 42
1, 138532, Note_off_c, 0, 82, 63
1, 138537, Note_off_c, 0, 70, 69
1, 138589, Note_off_c, 0, 58, 60
1, 138599, Note_on_c, 0, 63, 99
1, 138613, Note_on_c, 0, 82, 89
1, 138616, Note_on_c, 0, 70, 83
1, 138651, Note_off_c, 0, 70, 63
1, 138662, Note_off_c, 0, 82, 63
1, 138709, Control_c, 0, 64, 42
1, 138711, Note_on_c, 0, 80, 79
1, 138725, Control_c, 0, 64, 42
1, 138731, Note_on_c, 0, 70, 55
1, 138752, Note_off_c, 0, 70, 63
1, 138767, Note_off_c, 0, 80, 63
1, 138770, Control_c, 0, 64, 46
1, 138785, Control_c, 0, 64, 52
1, 138790, Note_on_c, 0, 56, 65
1, 138799, Control_c, 0, 64, 59
1, 138813, Control_c, 0, 64, 63
1, 138815, Note_on_c, 0, 82, 79
1, 138824, Note_on_c, 0, 58, 80
1, 138824, Note_off_c, 0, 63, 54
1, 138827, Note_on_c, 0, 70, 59
1, 138828, Control_c, 0, 64, 65
1, 138829, Note_off_c, 0, 56, 64
1, 138839, Note_off_c, 0, 82, 67
1, 138843, Control_c, 0, 64, 69
1, 138847, Note_off_c, 0, 70, 62
1, 138858, Control_c, 0, 64, 77
1, 138880, Control_c, 0, 64, 94
1, 138895, Control_c, 0, 64, 127
1, 138899, Note_on_c, 0, 56, 83
1, 138915, Note_on_c, 0, 82, 82
1, 138917, Note_off_c, 0, 58, 63
1, 138918, Note_on_c, 0, 70, 81
1, 138924, Note_off_c, 0, 53, 60
1, 138937, Note_off_c, 0, 82, 68
1, 138940, Note_off_c, 0, 56, 64
1, 138953, Note_off_c, 0, 70, 59
1, 139010, Note_on_c, 0, 47, 98
1, 139030, Note_on_c, 0, 35, 57
1, 139038, Note_off_c, 0, 47, 66
1, 139043, Control_c, 0, 64, 76
1, 139058, Control_c, 0, 64, 56
1, 139060, Note_on_c, 0, 36, 17
1, 139063, Note_off_c, 0, 35, 58
1, 139072, Control_c, 0, 64, 0
1, 139105, Note_off_c, 0, 36, 50
1, 139109, Note_on_c, 0, 46, 94
1, 139114, Note_on_c, 0, 34, 84
1, 139139, Note_off_c, 0, 46, 65
1, 139143, Note_off_c, 0, 34, 68
1, 139199, Note_on_c, 0, 47, 82
1, 139204, Note_on_c, 0, 35, 72
1, 139235, Note_off_c, 0, 47, 64
1, 139239, Note_off_c, 0, 35, 61
1, 139260, Note_on_c, 0, 66, 83
1, 139260, Note_on_c, 0, 78, 87
1, 139284, Note_on_c, 0, 75, 52
1, 139285, Note_off_c, 0, 75, 127
1, 139286, Note_off_c, 0, 66, 64
1, 139295, Note_on_c, 0, 47, 66
1, 139298, Note_on_c, 0, 35, 69
1, 139300, Note_off_c, 0, 78, 65
1, 139346, Note_on_c, 0, 65, 79
1, 139350, Note_on_c, 0, 75, 109
1, 139354, Control_c, 0, 64, 69
1, 139369, Control_c, 0, 64, 93
1, 139374, Note_off_c, 0, 75, 63
1, 139377, Note_off_c, 0, 65, 65
1, 139379, Note_off_c, 0, 35, 61
1, 139384, Note_off_c, 0, 47, 62
1, 139384, Control_c, 0, 64, 127
1, 139492, Note_on_c, 0, 34, 59
1, 139492, Note_on_c, 0, 46, 84
1, 139536, Note_on_c, 0, 56, 24
1, 139538, Note_off_c, 0, 46, 59
1, 139539, Note_off_c, 0, 34, 54
1, 139562, Control_c, 0, 64, 109
1, 139576, Note_on_c, 0, 35, 66
1, 139577, Control_c, 0, 64, 73
1, 139579, Note_off_c, 0, 56, 54
1, 139581, Note_on_c, 0, 47, 84
1, 139592, Control_c, 0, 64, 56
1, 139607, Control_c, 0, 64, 46
1, 139629, Control_c, 0, 64, 56
1, 139644, Control_c, 0, 64, 64
1, 139659, Control_c, 0, 64, 72
1, 139667, Note_on_c, 0, 51, 83
1, 139671, Note_off_c, 0, 47, 64
1, 139674, Control_c, 0, 64, 95
1, 139679, Note_on_c, 0, 39, 74
1, 139683, Note_off_c, 0, 35, 61
1, 139689, Control_c, 0, 64, 127
1, 139713, Note_off_c, 0, 51, 65
1, 139745, Note_off_c, 0, 39, 63
1, 139748, Note_on_c, 0, 46, 81
1, 139751, Note_on_c, 0, 58, 94
1, 139802, Note_off_c, 0, 46, 63
1, 139818, Note_on_c, 0, 41, 83
1, 139822, Note_off_c, 0, 58, 66
1, 139842, Note_on_c, 0, 53, 81
1, 139862, Note_off_c, 0, 41, 63
1, 139878, Note_on_c, 0, 57, 9
1, 139886, Note_off_c, 0, 53, 67
1, 139921, Note_off_c, 0, 57, 54
1, 139939, Note_on_c, 0, 59, 96
1, 139967, Note_off_c, 0, 59, 69
1, 139971, Note_on_c, 0, 48, 47
1, 139984, Note_on_c, 0, 49, 23
1, 139984, Control_c, 0, 64, 110
1, 139999, Control_c, 0, 64, 72
1, 140000, Note_off_c, 0, 48, 54
1, 140014, Control_c, 0, 64, 35
1, 140018, Note_off_c, 0, 49, 49
1, 140029, Control_c, 0, 64, 0
1, 140038, Note_on_c, 0, 58, 96
1, 140044, Note_on_c, 0, 46, 83
1, 140068, Note_off_c, 0, 46, 71
1, 140071, Note_off_c, 0, 58, 64
1, 140132, Note_on_c, 0, 59, 58
1, 140133, Note_on_c, 0, 60, 69
1, 140134, Note_on_c, 0, 47, 69
1, 140151, Note_off_c, 0, 60, 43
1, 140158, Note_off_c, 0, 47, 66
1, 140158, Note_off_c, 0, 59, 66
1, 140172, Note_on_c, 0, 48, 14
1, 140173, Note_off_c, 0, 48, 127
1, 140199, Note_on_c, 0, 71, 97
1, 140199, Note_on_c, 0, 82, 90
1, 140205, Note_on_c, 0, 77, 78
1, 140218, Note_off_c, 0, 82, 69
1, 140221, Note_on_c, 0, 47, 81
1, 140222, Note_on_c, 0, 59, 85
1, 140229, Note_off_c, 0, 77, 68
1, 140234, Note_off_c, 0, 71, 66
1, 140295, Control_c, 0, 64, 67
1, 140298, Note_on_c, 0, 67, 93
1, 140300, Note_on_c, 0, 77, 87
1, 140309, Control_c, 0, 64, 96
1, 140313, Note_off_c, 0, 77, 46
1, 140316, Note_off_c, 0, 67, 73
1, 140318, Note_on_c, 0, 76, 53
1, 140319, Note_on_c, 0, 72, 56
1, 140325, Control_c, 0, 64, 127
1, 140333, Note_off_c, 0, 47, 62
1, 140341, Note_off_c, 0, 76, 60
1, 140342, Note_off_c, 0, 59, 64
1, 140342, Note_off_c, 0, 72, 62
1, 140384, Note_on_c, 0, 51, 41
1, 140419, Note_off_c, 0, 51, 48
1, 140425, Note_on_c, 0, 58, 92
1, 140431, Note_on_c, 0, 46, 59
1, 140460, Note_off_c, 0, 46, 64
1, 140496, Control_c, 0, 64, 111
1, 140502, Note_on_c, 0, 59, 85
1, 140509, Note_on_c, 0, 47, 73
1, 140510, Control_c, 0, 64, 70
1, 140517, Note_off_c, 0, 58, 57
1, 140525, Control_c, 0, 64, 21
1, 140540, Control_c, 0, 64, 0
1, 140581, Note_on_c, 0, 63, 82
1, 140584, Control_c, 0, 64, 58
1, 140589, Note_off_c, 0, 59, 64
1, 140592, Note_on_c, 0, 51, 84
1, 140592, Note_off_c, 0, 47, 62
1, 140599, Control_c, 0, 64, 71
1, 140614, Control_c, 0, 64, 92
1, 140629, Control_c, 0, 64, 127
1, 140642, Note_off_c, 0, 51, 65
1, 140657, Note_off_c, 0, 63, 62
1, 140663, Note_on_c, 0, 58, 83
1, 140667, Note_on_c, 0, 68, 75
1, 140687, Note_on_c, 0, 69, 75
1, 140711, Note_off_c, 0, 58, 60
1, 140734, Note_on_c, 0, 65, 66
1, 140737, Note_on_c, 0, 53, 76
1, 140747, Control_c, 0, 64, 102
1, 140749, Note_off_c, 0, 68, 54
1, 140759, Note_off_c, 0, 65, 66
1, 140760, Note_off_c, 0, 69, 62
1, 140762, Control_c, 0, 64, 64
1, 140777, Control_c, 0, 64, 0
1, 140782, Note_off_c, 0, 53, 58
1, 140799, Note_on_c, 0, 59, 108
1, 140807, Note_on_c, 0, 71, 97
1, 140825, Note_off_c, 0, 59, 70
1, 140836, Control_c, 0, 64, 38
1, 140851, Control_c, 0, 64, 63
1, 140865, Note_off_c, 0, 71, 56
1, 140866, Control_c, 0, 64, 73
1, 140881, Control_c, 0, 64, 97
1, 140884, Note_on_c, 0, 70, 83
1, 140895, Control_c, 0, 64, 127
1, 140950, Note_off_c, 0, 70, 63
1, 140969, Note_on_c, 0, 71, 81
1, 140999, Control_c, 0, 64, 75
1, 141014, Control_c, 0, 64, 47
1, 141029, Control_c, 0, 64, 0
1, 141054, Note_on_c, 0, 87, 94
1, 141056, Note_on_c, 0, 75, 80
1, 141082, Note_off_c, 0, 71, 55
1, 141106, Note_off_c, 0, 87, 60
1, 141114, Note_on_c, 0, 82, 76
1, 141129, Note_on_c, 0, 91, 93
1, 141163, Note_off_c, 0, 75, 57
1, 141187, Note_off_c, 0, 91, 65
1, 141199, Note_on_c, 0, 77, 73
1, 141203, Note_on_c, 0, 87, 81
1, 141232, Note_off_c, 0, 82, 58
1, 141266, Note_on_c, 0, 91, 119
1, 141269, Note_off_c, 0, 77, 60
1, 141273, Note_off_c, 0, 87, 62
1, 141278, Note_on_c, 0, 72, 85
1, 141304, Control_c, 0, 64, 67
1, 141306, Note_off_c, 0, 91, 68
1, 141319, Control_c, 0, 64, 106
1, 141333, Control_c, 0, 64, 127
1, 141343, Note_off_c, 0, 72, 56
1, 141376, Note_on_c, 0, 70, 56
1, 141407, Control_c, 0, 64, 87
1, 141412, Note_on_c, 0, 69, 35
1, 141422, Control_c, 0, 64, 63
1, 141433, Note_off_c, 0, 70, 49
1, 141437, Control_c, 0, 64, 0
1, 141445, Note_off_c, 0, 69, 47
1, 141459, Note_on_c, 0, 71, 71
1, 141519, Note_on_c, 0, 90, 79
1, 141536, Note_on_c, 0, 75, 75
1, 141544, Note_off_c, 0, 71, 58
1, 141590, Note_off_c, 0, 90, 64
1, 141600, Note_on_c, 0, 94, 91
1, 141603, Note_on_c, 0, 82, 72
1, 141668, Note_on_c, 0, 90, 87
1, 141668, Note_off_c, 0, 75, 61
1, 141670, Note_off_c, 0, 94, 64
1, 141674, Note_on_c, 0, 77, 75
1, 141681, Note_off_c, 0, 82, 63
1, 141704, Note_off_c, 0, 90, 66
1, 141731, Note_on_c, 0, 94, 112
1, 141733, Note_off_c, 0, 77, 66
1, 141748, Control_c, 0, 64, 53
1, 141751, Note_on_c, 0, 72, 88
1, 141763, Control_c, 0, 64, 86
1, 141771, Note_off_c, 0, 94, 66
1, 141778, Control_c, 0, 64, 127
1, 141830, Note_off_c, 0, 72, 44
1, 141844, Note_on_c, 0, 70, 78
1, 141874, Control_c, 0, 64, 113
1, 141889, Control_c, 0, 64, 71
1, 141904, Control_c, 0, 64, 29
1, 141906, Note_off_c, 0, 70, 64
1, 141920, Control_c, 0, 64, 0
1, 141945, Note_on_c, 0, 71, 72
1, 142006, Note_on_c, 0, 87, 73
1, 142023, Note_on_c, 0, 75, 73
1, 142035, Note_off_c, 0, 71, 52
1, 142070, Note_off_c, 0, 87, 64
1, 142074, Note_on_c, 0, 82, 70
1, 142088, Note_on_c, 0, 91, 83
1, 142121, Note_off_c, 0, 75, 60
1, 142146, Note_on_c, 0, 77, 74
1, 142151, Note_on_c, 0, 87, 80
1, 142151, Note_off_c, 0, 91, 63
1, 142160, Note_off_c, 0, 82, 62
1, 142207, Note_off_c, 0, 77, 65
1, 142212, Note_off_c, 0, 87, 67
1, 142217, Note_on_c, 0, 91, 107
1, 142231, Control_c, 0, 64, 43
1, 142234, Note_on_c, 0, 72, 86
1, 142246, Note_off_c, 0, 91, 67
1, 142246, Control_c, 0, 64, 95
1, 142261, Control_c, 0, 64, 127
1, 142299, Note_off_c, 0, 72, 59
1, 142333, Note_on_c, 0, 70, 74
1, 142357, Note_off_c, 0, 70, 70
1, 142398, Note_on_c, 0, 71, 81
1, 142401, Note_on_c, 0, 75, 113
1, 142419, Note_off_c, 0, 75, 60
1, 142477, Note_off_c, 0, 71, 61
1, 142494, Note_on_c, 0, 75, 81
1, 142562, Note_off_c, 0, 75, 63
1, 142569, Note_on_c, 0, 82, 88
1, 142580, Note_on_c, 0, 80, 111
1, 142606, Note_off_c, 0, 80, 61
1, 142610, Note_off_c, 0, 82, 66
1, 142631, Note_on_c, 0, 81, 60
1, 142647, Note_on_c, 0, 77, 81
1, 142665, Note_off_c, 0, 81, 65
1, 142725, Note_on_c, 0, 72, 75
1, 142729, Note_off_c, 0, 77, 60
1, 142825, Note_on_c, 0, 85, 103
1, 142834, Note_on_c, 0, 70, 83
1, 142841, Note_off_c, 0, 72, 62
1, 142845, Note_off_c, 0, 85, 68
1, 142888, Note_off_c, 0, 70, 64
1, 142900, Note_on_c, 0, 82, 107
1, 142907, Note_on_c, 0, 71, 93
1, 142926, Note_on_c, 0, 77, 58
1, 142931, Note_off_c, 0, 82, 68
1, 142945, Note_off_c, 0, 77, 63
1, 142988, Note_off_c, 0, 71, 58
1, 143000, Note_on_c, 0, 75, 66
1, 143025, Note_on_c, 0, 82, 76
1, 143049, Note_on_c, 0, 76, 32
1, 143063, Note_off_c, 0, 75, 34
1, 143083, Note_off_c, 0, 76, 42
1, 143117, Note_on_c, 0, 77, 69
1, 143145, Note_off_c, 0, 82, 59
1, 143175, Note_off_c, 0, 77, 60
1, 143189, Note_on_c, 0, 72, 81
1, 143202, Control_c, 0, 64, 94
1, 143217, Control_c, 0, 64, 64
1, 143232, Control_c, 0, 64, 0
1, 143237, Note_off_c, 0, 72, 60
1, 143268, Note_on_c, 0, 70, 75
1, 143308, Note_off_c, 0, 70, 63
1, 143336, Note_on_c, 0, 71, 76
1, 143418, Note_on_c, 0, 75, 81
1, 143424, Note_on_c, 0, 63, 81
1, 143425, Note_off_c, 0, 71, 58
1, 143467, Note_on_c, 0, 82, 73
1, 143487, Note_off_c, 0, 63, 62
1, 143487, Note_off_c, 0, 75, 60
1, 143500, Note_on_c, 0, 67, 85
1, 143535, Note_on_c, 0, 77, 75
1, 143551, Note_off_c, 0, 67, 64
1, 143562, Note_off_c, 0, 82, 58
1, 143564, Note_on_c, 0, 63, 79
1, 143597, Note_off_c, 0, 63, 67
1, 143598, Note_off_c, 0, 77, 64
1, 143622, Note_on_c, 0, 67, 110
1, 143625, Control_c, 0, 64, 64
1, 143626, Note_on_c, 0, 72, 93
1, 143639, Note_on_c, 0, 64, 31
1, 143640, Control_c, 0, 64, 92
1, 143655, Control_c, 0, 64, 127
1, 143663, Note_off_c, 0, 67, 69
1, 143670, Note_off_c, 0, 64, 55
1, 143683, Note_off_c, 0, 72, 64
1, 143716, Note_on_c, 0, 70, 84
1, 143767, Note_off_c, 0, 70, 64
1, 143788, Control_c, 0, 64, 82
1, 143802, Note_on_c, 0, 71, 77
1, 143802, Control_c, 0, 64, 52
1, 143817, Control_c, 0, 64, 0
1, 143874, Note_on_c, 0, 75, 81
1, 143880, Note_on_c, 0, 66, 88
1, 143888, Note_off_c, 0, 71, 52
1, 143930, Note_on_c, 0, 82, 81
1, 143936, Note_off_c, 0, 66, 62
1, 143944, Note_on_c, 0, 70, 94
1, 143969, Note_off_c, 0, 75, 57
1, 144007, Note_on_c, 0, 77, 73
1, 144012, Note_on_c, 0, 66, 86
1, 144017, Note_off_c, 0, 70, 64
1, 144033, Note_off_c, 0, 82, 61
1, 144061, Note_off_c, 0, 66, 63
1, 144066, Note_off_c, 0, 77, 65
1, 144082, Note_on_c, 0, 70, 103
1, 144084, Note_on_c, 0, 72, 89
1, 144099, Control_c, 0, 64, 65
1, 144121, Control_c, 0, 64, 97
1, 144123, Note_off_c, 0, 70, 69
1, 144136, Control_c, 0, 64, 127
1, 144181, Note_on_c, 0, 70, 86
1, 144191, Note_off_c, 0, 72, 63
1, 144241, Note_off_c, 0, 70, 61
1, 144270, Note_on_c, 0, 71, 80
1, 144299, Control_c, 0, 64, 78
1, 144314, Control_c, 0, 64, 48
1, 144330, Control_c, 0, 64, 0
1, 144345, Note_on_c, 0, 75, 81
1, 144350, Note_on_c, 0, 63, 73
1, 144354, Note_off_c, 0, 71, 54
1, 144389, Note_on_c, 0, 82, 75
1, 144416, Note_off_c, 0, 63, 62
1, 144419, Note_on_c, 0, 67, 77
1, 144430, Note_off_c, 0, 75, 59
1, 144470, Note_on_c, 0, 77, 75
1, 144483, Note_on_c, 0, 63, 78
1, 144485, Note_off_c, 0, 67, 63
1, 144488, Note_off_c, 0, 82, 59
1, 144532, Note_off_c, 0, 63, 65
1, 144534, Note_off_c, 0, 77, 64
1, 144543, Note_on_c, 0, 67, 103
1, 144554, Note_on_c, 0, 72, 88
1, 144569, Note_off_c, 0, 67, 70
1, 144581, Control_c, 0, 64, 65
1, 144596, Control_c, 0, 64, 127
1, 144648, Note_off_c, 0, 72, 40
1, 144653, Note_on_c, 0, 70, 79
1, 144718, Note_off_c, 0, 70, 63
1, 144723, Note_on_c, 0, 87, 103
1, 144727, Note_on_c, 0, 71, 89
1, 144742, Note_off_c, 0, 87, 65
1, 144815, Note_on_c, 0, 75, 83
1, 144844, Note_off_c, 0, 71, 60
1, 144882, Note_on_c, 0, 82, 89
1, 144882, Note_on_c, 0, 92, 126
1, 144907, Note_off_c, 0, 92, 70
1, 144913, Note_off_c, 0, 75, 62
1, 144947, Note_on_c, 0, 77, 68
1, 144995, Note_off_c, 0, 82, 61
1, 145028, Note_off_c, 0, 77, 63
1, 145034, Note_on_c, 0, 72, 76
1, 145097, Note_on_c, 0, 97, 103
1, 145124, Note_on_c, 0, 70, 82
1, 145127, Note_off_c, 0, 72, 64
1, 145133, Note_off_c, 0, 97, 63
1, 145177, Note_on_c, 0, 94, 109
1, 145191, Note_off_c, 0, 70, 64
1, 145194, Note_on_c, 0, 71, 83
1, 145215, Note_off_c, 0, 94, 67
1, 145268, Note_on_c, 0, 75, 82
1, 145274, Note_off_c, 0, 71, 58
1, 145308, Note_on_c, 0, 82, 75
1, 145341, Note_off_c, 0, 75, 61
1, 145371, Note_on_c, 0, 77, 79
1, 145406, Note_off_c, 0, 82, 62
1, 145432, Note_off_c, 0, 77, 64
1, 145442, Note_on_c, 0, 72, 80
1, 145493, Control_c, 0, 64, 80
1, 145505, Note_off_c, 0, 72, 62
1, 145508, Control_c, 0, 64, 67
1, 145510, Note_on_c, 0, 70, 73
1, 145522, Control_c, 0, 64, 59
1, 145537, Control_c, 0, 64, 53
1, 145552, Note_off_c, 0, 70, 61
1, 145552, Control_c, 0, 64, 53
1, 145567, Control_c, 0, 64, 53
1, 145574, Note_on_c, 0, 71, 78
1, 145582, Control_c, 0, 64, 54
1, 145619, Control_c, 0, 64, 54
1, 145648, Control_c, 0, 64, 55
1, 145663, Note_on_c, 0, 75, 67
1, 145681, Note_off_c, 0, 75, 59
1, 145690, Note_on_c, 0, 74, 62
1, 145690, Note_off_c, 0, 71, 51
1, 145715, Note_on_c, 0, 80, 67
1, 145730, Note_off_c, 0, 74, 60
1, 145737, Control_c, 0, 64, 55
1, 145740, Note_on_c, 0, 81, 70
1, 145782, Note_on_c, 0, 77, 66
1, 145782, Control_c, 0, 64, 56
1, 145803, Note_off_c, 0, 80, 59
1, 145807, Note_off_c, 0, 81, 65
1, 145839, Note_off_c, 0, 77, 63
1, 145871, Control_c, 0, 64, 55
1, 145873, Note_on_c, 0, 59, 74
1, 145900, Control_c, 0, 64, 54
1, 145916, Control_c, 0, 64, 53
1, 145931, Control_c, 0, 64, 50
1, 145942, Note_off_c, 0, 59, 64
1, 145945, Note_on_c, 0, 58, 78
1, 145946, Control_c, 0, 64, 40
1, 145961, Control_c, 0, 64, 0
1, 145993, Note_off_c, 0, 58, 65
1, 146023, Note_on_c, 0, 60, 72
1, 146100, Note_on_c, 0, 63, 53
1, 146122, Note_off_c, 0, 60, 65
1, 146144, Note_off_c, 0, 63, 60
1, 146153, Note_on_c, 0, 70, 59
1, 146221, Note_off_c, 0, 70, 59
1, 146225, Note_on_c, 0, 65, 61
1, 146274, Note_off_c, 0, 65, 61
1, 146307, Note_on_c, 0, 60, 64
1, 146375, Note_off_c, 0, 60, 60
1, 146397, Note_on_c, 0, 58, 59
1, 146397, Control_c, 0, 64, 22
1, 146412, Control_c, 0, 64, 31
1, 146427, Control_c, 0, 64, 33
1, 146442, Note_off_c, 0, 58, 62
1, 146442, Control_c, 0, 64, 34
1, 146457, Control_c, 0, 64, 36
1, 146471, Control_c, 0, 64, 41
1, 146482, Note_on_c, 0, 59, 60
1, 146486, Control_c, 0, 64, 48
1, 146501, Control_c, 0, 64, 55
1, 146515, Control_c, 0, 64, 61
1, 146530, Control_c, 0, 64, 67
1, 146545, Control_c, 0, 64, 74
1, 146560, Control_c, 0, 64, 92
1, 146564, Note_on_c, 0, 39, 61
1, 146570, Note_on_c, 0, 51, 46
1, 146575, Control_c, 0, 64, 127
1, 146579, Note_on_c, 0, 63, 60
1, 146599, Note_off_c, 0, 51, 53
1, 146605, Note_off_c, 0, 39, 62
1, 146606, Note_off_c, 0, 59, 59
1, 146643, Note_on_c, 0, 70, 70
1, 146650, Note_on_c, 0, 54, 65
1, 146670, Note_off_c, 0, 63, 59
1, 146679, Note_off_c, 0, 54, 65
1, 146703, Note_on_c, 0, 65, 65
1, 146715, Note_on_c, 0, 51, 83
1, 146723, Note_off_c, 0, 70, 58
1, 146725, Note_on_c, 0, 39, 70
1, 146740, Note_off_c, 0, 51, 69
1, 146744, Poly_aftertouch_c, 0, 42, 0
1, 146754, Note_off_c, 0, 39, 65
1, 146765, Note_off_c, 0, 65, 62
1, 146768, Note_on_c, 0, 60, 70
1, 146803, Note_on_c, 0, 54, 80
1, 146808, Note_on_c, 0, 42, 75
1, 146813, Control_c, 0, 64, 88
1, 146828, Control_c, 0, 64, 69
1, 146828, Note_off_c, 0, 60, 63
1, 146843, Control_c, 0, 64, 57
1, 146844, Note_on_c, 0, 58, 66
1, 146858, Control_c, 0, 64, 30
1, 146873, Control_c, 0, 64, 0
1, 146879, Note_off_c, 0, 58, 67
1, 146926, Note_on_c, 0, 59, 53
1, 147018, Note_on_c, 0, 63, 51
1, 147075, Note_off_c, 0, 63, 55
1, 147090, Note_on_c, 0, 69, 56
1, 147093, Note_off_c, 0, 59, 36
1, 147094, Control_c, 0, 67, 18
1, 147117, Control_c, 0, 67, 43
1, 147132, Control_c, 0, 67, 64
1, 147146, Control_c, 0, 67, 85
1, 147161, Control_c, 0, 67, 106
1, 147176, Control_c, 0, 67, 127
1, 147179, Note_on_c, 0, 65, 55
1, 147183, Note_off_c, 0, 69, 59
1, 147191, Control_c, 0, 67, 127
1, 147259, Note_off_c, 0, 65, 62
1, 147299, Note_on_c, 0, 60, 47
1, 147324, Control_c, 0, 64, 32
1, 147338, Control_c, 0, 64, 46
1, 147353, Control_c, 0, 64, 52
1, 147368, Control_c, 0, 64, 56
1, 147369, Note_off_c, 0, 60, 55
1, 147383, Control_c, 0, 64, 59
1, 147398, Control_c, 0, 64, 60
1, 147412, Control_c, 0, 64, 62
1, 147418, Note_on_c, 0, 58, 46
1, 147427, Control_c, 0, 64, 63
1, 147442, Control_c, 0, 64, 64
1, 147457, Control_c, 0, 64, 65
1, 147468, Note_off_c, 0, 54, 47
1, 147472, Note_off_c, 0, 58, 63
1, 147472, Control_c, 0, 64, 65
1, 147487, Control_c, 0, 64, 66
1, 147491, Note_off_c, 0, 42, 53
1, 147502, Control_c, 0, 64, 66
1, 147535, Note_on_c, 0, 59, 44
1, 147561, Control_c, 0, 64, 66
1, 147591, Control_c, 0, 64, 65
1, 147621, Control_c, 0, 64, 65
1, 147658, Note_on_c, 0, 51, 57
1, 147661, Note_on_c, 0, 39, 56
1, 147666, Note_off_c, 0, 59, 52
1, 147684, Note_on_c, 0, 63, 46
1, 147687, Note_off_c, 0, 51, 64
1, 147696, Control_c, 0, 64, 65
1, 147698, Note_off_c, 0, 39, 64
1, 147725, Control_c, 0, 64, 66
1, 147740, Control_c, 0, 64, 66
1, 147755, Control_c, 0, 64, 67
1, 147758, Note_off_c, 0, 63, 54
1, 147764, Note_on_c, 0, 70, 46
1, 147767, Note_on_c, 0, 54, 59
1, 147769, Control_c, 0, 64, 67
1, 147784, Control_c, 0, 64, 68
1, 147785, Note_on_c, 0, 42, 34
1, 147789, Note_off_c, 0, 54, 62
1, 147812, Note_off_c, 0, 70, 61
1, 147824, Note_off_c, 0, 42, 31
1, 147838, Note_on_c, 0, 65, 43
1, 147848, Note_on_c, 0, 51, 69
1, 147857, Note_on_c, 0, 39, 50
1, 147858, Control_c, 0, 64, 67
1, 147880, Note_off_c, 0, 65, 62
1, 147880, Control_c, 0, 64, 67
1, 147885, Note_off_c, 0, 51, 64
1, 147895, Control_c, 0, 64, 65
1, 147896, Note_off_c, 0, 39, 56
1, 147908, Note_on_c, 0, 60, 50
1, 147910, Control_c, 0, 64, 63
1, 147925, Control_c, 0, 64, 61
1, 147940, Control_c, 0, 64, 59
1, 147952, Note_on_c, 0, 42, 43
1, 147952, Note_off_c, 0, 60, 59
1, 147955, Control_c, 0, 64, 57
1, 147959, Note_on_c, 0, 54, 47
1, 147969, Control_c, 0, 64, 56
1, 147984, Control_c, 0, 64, 55
1, 147999, Control_c, 0, 64, 53
1, 148014, Control_c, 0, 64, 52
1, 148025, Note_on_c, 0, 58, 32
1, 148029, Control_c, 0, 64, 50
1, 148043, Control_c, 0, 64, 49
1, 148052, Note_off_c, 0, 58, 54
1, 148058, Control_c, 0, 64, 48
1, 148073, Control_c, 0, 64, 47
1, 148088, Control_c, 0, 64, 46
1, 148089, Note_on_c, 0, 59, 50
1, 148103, Control_c, 0, 64, 45
1, 148176, Control_c, 0, 64, 46
1, 148191, Control_c, 0, 64, 46
1, 148206, Control_c, 0, 64, 48
1, 148207, Note_off_c, 0, 59, 52
1, 148214, Note_on_c, 0, 63, 37
1, 148221, Control_c, 0, 64, 49
1, 148235, Control_c, 0, 64, 51
1, 148250, Control_c, 0, 64, 53
1, 148265, Control_c, 0, 64, 55
1, 148280, Note_off_c, 0, 63, 56
1, 148280, Control_c, 0, 64, 57
1, 148295, Control_c, 0, 64, 58
1, 148307, Note_on_c, 0, 69, 42
1, 148311, Control_c, 0, 64, 59
1, 148326, Control_c, 0, 64, 60
1, 148340, Control_c, 0, 64, 61
1, 148355, Control_c, 0, 64, 62
1, 148370, Note_off_c, 0, 69, 53
1, 148370, Control_c, 0, 64, 63
1, 148384, Control_c, 0, 64, 63
1, 148399, Control_c, 0, 64, 64
1, 148403, Note_on_c, 0, 65, 34
1, 148414, Control_c, 0, 64, 65
1, 148429, Control_c, 0, 64, 66
1, 148444, Control_c, 0, 64, 66
1, 148454, Note_off_c, 0, 65, 52
1, 148459, Control_c, 0, 64, 67
1, 148474, Control_c, 0, 64, 68
1, 148488, Control_c, 0, 64, 69
1, 148494, Note_on_c, 0, 60, 46
1, 148503, Control_c, 0, 64, 71
1, 148518, Control_c, 0, 64, 72
1, 148533, Control_c, 0, 64, 74
1, 148548, Control_c, 0, 64, 75
1, 148563, Control_c, 0, 64, 76
1, 148577, Control_c, 0, 64, 77
1, 148588, Note_off_c, 0, 60, 54
1, 148592, Control_c, 0, 64, 78
1, 148614, Control_c, 0, 64, 78
1, 148655, Note_on_c, 0, 58, 41
1, 148696, Note_off_c, 0, 54, 52
1, 148698, Note_off_c, 0, 58, 64
1, 148732, Note_off_c, 0, 42, 58
1, 148746, Note_on_c, 0, 59, 47
1, 148792, Control_c, 0, 64, 79
1, 148847, Note_on_c, 0, 51, 45
1, 148849, Note_off_c, 0, 59, 57
1, 148851, Note_on_c, 0, 39, 43
1, 148852, Control_c, 0, 64, 79
1, 148866, Control_c, 0, 64, 80
1, 148876, Note_off_c, 0, 51, 52
1, 148880, Note_on_c, 0, 63, 43
1, 148881, Control_c, 0, 64, 81
1, 148885, Note_off_c, 0, 39, 55
1, 148896, Control_c, 0, 64, 83
1, 148910, Control_c, 0, 64, 85
1, 148925, Control_c, 0, 64, 87
1, 148940, Control_c, 0, 64, 90
1, 148955, Control_c, 0, 64, 94
1, 148959, Note_on_c, 0, 54, 60
1, 148970, Control_c, 0, 64, 99
1, 148973, Note_on_c, 0, 70, 48
1, 148977, Note_on_c, 0, 42, 48
1, 148984, Control_c, 0, 64, 106
1, 148999, Control_c, 0, 64, 127
1, 149001, Note_off_c, 0, 54, 63
1, 149008, Note_off_c, 0, 42, 59
1, 149020, Note_off_c, 0, 63, 31
1, 149061, Note_on_c, 0, 65, 44
1, 149081, Note_on_c, 0, 51, 68
1, 149088, Control_c, 0, 67, 116
1, 149103, Control_c, 0, 67, 101
1, 149114, Note_off_c, 0, 51, 65
1, 149115, Note_off_c, 0, 70, 32
1, 149119, Control_c, 0, 67, 82
1, 149128, Note_on_c, 0, 39, 14
1, 149134, Control_c, 0, 67, 60
1, 149149, Control_c, 0, 67, 36
1, 149163, Control_c, 0, 67, 9
1, 149172, Note_off_c, 0, 65, 61
1, 149177, Note_off_c, 0, 39, 52
1, 149178, Control_c, 0, 67, 0
1, 149199, Note_on_c, 0, 60, 47
1, 149201, Note_on_c, 0, 54, 63
1, 149217, Note_on_c, 0, 42, 49
1, 149232, Note_off_c, 0, 54, 66
1, 149248, Note_off_c, 0, 42, 54
1, 149309, Note_off_c, 0, 60, 56
1, 149324, Note_on_c, 0, 51, 65
1, 149339, Note_on_c, 0, 58, 53
1, 149363, Note_off_c, 0, 51, 64
1, 149397, Poly_aftertouch_c, 0, 39, 127
1, 149398, Poly_aftertouch_c, 0, 42, 0
1, 149416, Note_off_c, 0, 58, 62
1, 149433, Note_on_c, 0, 42, 35
1, 149434, Poly_aftertouch_c, 0, 39, 0
1, 149436, Note_on_c, 0, 54, 66
1, 149448, Note_on_c, 0, 59, 58
1, 149467, Note_off_c, 0, 54, 66
1, 149469, Note_off_c, 0, 42, 60
1, 149542, Note_on_c, 0, 51, 59
1, 149545, Note_on_c, 0, 63, 60
1, 149565, Note_off_c, 0, 51, 60
1, 149594, Note_off_c, 0, 59, 35
1, 149599, Poly_aftertouch_c, 0, 39, 127
1, 149621, Note_on_c, 0, 42, 32
1, 149624, Note_on_c, 0, 70, 67
1, 149628, Note_on_c, 0, 54, 78
1, 149636, Poly_aftertouch_c, 0, 39, 0
1, 149647, Note_off_c, 0, 63, 56
1, 149657, Note_off_c, 0, 42, 63
1, 149659, Note_off_c, 0, 54, 66
1, 149702, Note_on_c, 0, 65, 58
1, 149709, Note_off_c, 0, 70, 60
1, 149723, Note_on_c, 0, 51, 69
1, 149736, Note_on_c, 0, 39, 56
1, 149749, Note_off_c, 0, 51, 66
1, 149772, Note_off_c, 0, 39, 54
1, 149785, Note_off_c, 0, 65, 62
1, 149801, Note_on_c, 0, 60, 71
1, 149815, Note_on_c, 0, 42, 42
1, 149815, Note_on_c, 0, 54, 84
1, 149845, Note_off_c, 0, 54, 60
1, 149847, Note_off_c, 0, 42, 64
1, 149889, Note_off_c, 0, 60, 56
1, 149907, Note_on_c, 0, 58, 65
1, 149916, Note_on_c, 0, 51, 88
1, 149919, Note_on_c, 0, 39, 69
1, 149940, Note_off_c, 0, 51, 67
1, 149951, Note_off_c, 0, 39, 64
1, 149980, Note_off_c, 0, 58, 63
1, 149997, Note_on_c, 0, 59, 71
1, 150016, Note_on_c, 0, 54, 85
1, 150021, Note_on_c, 0, 42, 73
1, 150047, Note_off_c, 0, 54, 63
1, 150049, Note_off_c, 0, 42, 65
1, 150090, Note_on_c, 0, 63, 72
1, 150101, Note_on_c, 0, 51, 87
1, 150113, Note_on_c, 0, 39, 67
1, 150147, Note_off_c, 0, 39, 64
1, 150148, Note_off_c, 0, 51, 65
1, 150176, Note_on_c, 0, 70, 79
1, 150188, Note_off_c, 0, 59, 37
1, 150212, Note_on_c, 0, 54, 81
1, 150218, Note_on_c, 0, 42, 39
1, 150220, Note_off_c, 0, 63, 57
1, 150235, Note_off_c, 0, 54, 70
1, 150241, Note_off_c, 0, 42, 60
1, 150271, Note_on_c, 0, 65, 72
1, 150281, Note_off_c, 0, 70, 63
1, 150286, Note_on_c, 0, 42, 89
1, 150315, Note_off_c, 0, 42, 65
1, 150339, Note_on_c, 0, 40, 38
1, 150344, Note_on_c, 0, 41, 14
1, 150381, Note_off_c, 0, 40, 47
1, 150390, Note_off_c, 0, 41, 40
1, 150408, Control_c, 0, 64, 78
1, 150423, Note_on_c, 0, 42, 77
1, 150423, Control_c, 0, 64, 65
1, 150429, Note_on_c, 0, 60, 74
1, 150434, Note_off_c, 0, 65, 61
1, 150435, Note_on_c, 0, 30, 70
1, 150438, Control_c, 0, 64, 63
1, 150453, Control_c, 0, 64, 67
1, 150456, Note_off_c, 0, 42, 63
1, 150466, Note_off_c, 0, 30, 66
1, 150468, Control_c, 0, 64, 77
1, 150483, Control_c, 0, 64, 108
1, 150498, Control_c, 0, 64, 127
1, 150542, Note_on_c, 0, 27, 83
1, 150542, Note_on_c, 0, 39, 84
1, 150554, Note_on_c, 0, 58, 81
1, 150575, Note_off_c, 0, 39, 68
1, 150581, Note_off_c, 0, 27, 61
1, 150582, Note_off_c, 0, 60, 63
1, 150658, Note_on_c, 0, 42, 90
1, 150662, Note_on_c, 0, 30, 84
1, 150663, Note_on_c, 0, 59, 82
1, 150663, Note_off_c, 0, 58, 63
1, 150694, Note_off_c, 0, 30, 66
1, 150694, Note_off_c, 0, 42, 62
1, 150769, Note_on_c, 0, 39, 93
1, 150771, Note_on_c, 0, 27, 92
1, 150776, Note_on_c, 0, 63, 81
1, 150809, Note_off_c, 0, 39, 64
1, 150814, Note_off_c, 0, 27, 62
1, 150841, Note_off_c, 0, 59, 57
1, 150906, Note_on_c, 0, 42, 107
1, 150909, Note_on_c, 0, 30, 86
1, 150910, Note_on_c, 0, 70, 81
1, 150930, Note_on_c, 0, 32, 62
1, 150949, Note_off_c, 0, 30, 61
1, 150957, Note_off_c, 0, 42, 64
1, 150966, Note_off_c, 0, 32, 51
1, 150983, Note_off_c, 0, 70, 65
1, 150995, Note_off_c, 0, 63, 60
1, 151030, Note_on_c, 0, 39, 99
1, 151042, Note_on_c, 0, 65, 94
1, 151114, Note_on_c, 0, 27, 76
1, 151135, Note_off_c, 0, 39, 60
1, 151141, Note_off_c, 0, 65, 60
1, 151141, Note_on_c, 0, 35, 74
1, 151156, Control_c, 0, 64, 70
1, 151171, Control_c, 0, 64, 0
1, 151189, Note_off_c, 0, 27, 64
1, 151195, Note_off_c, 0, 35, 62
1, 151213, Note_on_c, 0, 63, 116
1, 151215, Note_on_c, 0, 59, 112
1, 151216, Note_on_c, 0, 57, 109
1, 151216, Note_on_c, 0, 42, 110
1, 151222, Note_on_c, 0, 70, 105
1, 151232, Note_on_c, 0, 64, 71
1, 151240, Note_on_c, 0, 68, 58
1, 151241, Note_off_c, 0, 68, 127
1, 151246, Control_c, 0, 64, 63
1, 151257, Note_off_c, 0, 42, 62
1, 151260, Note_off_c, 0, 64, 67
1, 151260, Control_c, 0, 64, 119
1, 151264, Note_off_c, 0, 70, 68
1, 151275, Control_c, 0, 64, 127
1, 151280, Note_on_c, 0, 43, 16
1, 151282, Poly_aftertouch_c, 0, 68, 127
1, 151328, Note_off_c, 0, 43, 39
1, 151338, Poly_aftertouch_c, 0, 37, 0
1, 151348, Poly_aftertouch_c, 0, 68, 0
1, 151354, Note_on_c, 0, 61, 47
1, 151357, Note_off_c, 0, 57, 60
1, 151364, Note_off_c, 0, 59, 40
1, 151388, Note_off_c, 0, 61, 53
1, 151399, Note_off_c, 0, 63, 56
1, 151756, Control_c, 0, 64, 65
1, 151771, Control_c, 0, 64, 0
1, 151797, Note_on_c, 0, 59, 82
1, 151799, Note_on_c, 0, 71, 105
1, 151801, Note_on_c, 0, 66, 87
1, 151803, Note_on_c, 0, 75, 99
1, 151804, Note_on_c, 0, 83, 98
1, 151806, Note_on_c, 0, 63, 85
1, 151811, Note_on_c, 0, 78, 83
1, 151822, Note_on_c, 0, 81, 68
1, 151825, Note_on_c, 0, 80, 56
1, 151842, Note_off_c, 0, 81, 59
1, 151848, Note_off_c, 0, 80, 58
1, 151859, Note_off_c, 0, 71, 65
1, 151875, Control_c, 0, 64, 77
1, 151884, Note_off_c, 0, 59, 64
1, 151890, Note_off_c, 0, 75, 65
1, 151890, Control_c, 0, 64, 127
1, 151890, Note_off_c, 0, 66, 62
1, 151894, Note_off_c, 0, 78, 64
1, 151907, Note_off_c, 0, 63, 64
1, 151911, Note_on_c, 0, 58, 100
1, 151926, Note_on_c, 0, 70, 106
1, 151934, Note_on_c, 0, 60, 51
1, 151940, Note_on_c, 0, 80, 74
1, 151943, Note_on_c, 0, 81, 58
1, 151951, Note_on_c, 0, 71, 69
1, 151955, Note_off_c, 0, 58, 66
1, 151956, Note_off_c, 0, 60, 62
1, 151964, Note_on_c, 0, 82, 28
1, 151967, Note_off_c, 0, 71, 67
1, 151976, Note_on_c, 0, 72, 22
1, 151993, Note_off_c, 0, 81, 0
1, 152014, Note_off_c, 0, 72, 51
1, 152030, Poly_aftertouch_c, 0, 81, 127
1, 152215, Note_off_c, 0, 82, 12
1, 152215, Note_off_c, 0, 83, 26
1, 152218, Note_off_c, 0, 80, 35
1, 152228, Poly_aftertouch_c, 0, 81, 0
1, 152267, Note_on_c, 0, 39, 91
1, 152282, Note_on_c, 0, 27, 72
1, 152291, Note_off_c, 0, 39, 72
1, 152311, Note_off_c, 0, 27, 63
1, 152320, Control_c, 0, 64, 81
1, 152335, Control_c, 0, 64, 57
1, 152337, Note_on_c, 0, 30, 66
1, 152340, Note_on_c, 0, 42, 104
1, 152358, Control_c, 0, 64, 0
1, 152379, Note_on_c, 0, 32, 46
1, 152387, Control_c, 0, 64, 53
1, 152402, Control_c, 0, 64, 71
1, 152417, Control_c, 0, 64, 127
1, 152471, Note_off_c, 0, 32, 0
1, 152507, Poly_aftertouch_c, 0, 32, 127
1, 152515, Note_off_c, 0, 42, 62
1, 152519, Note_off_c, 0, 30, 59
1, 152557, Poly_aftertouch_c, 0, 32, 0
1, 152609, Note_on_c, 0, 45, 95
1, 152612, Note_on_c, 0, 33, 89
1, 152638, Control_c, 0, 64, 94
1, 152640, Note_off_c, 0, 33, 65
1, 152641, Note_off_c, 0, 45, 65
1, 152653, Control_c, 0, 64, 63
1, 152668, Control_c, 0, 64, 0
1, 152683, Control_c, 0, 64, 44
1, 152697, Note_on_c, 0, 47, 102
1, 152698, Control_c, 0, 64, 67
1, 152699, Note_on_c, 0, 35, 94
1, 152712, Control_c, 0, 64, 111
1, 152727, Control_c, 0, 64, 127
1, 152765, Note_off_c, 0, 35, 63
1, 152784, Note_off_c, 0, 70, 56
1, 152796, Note_off_c, 0, 47, 64
1, 152939, Note_on_c, 0, 69, 102
1, 152942, Note_on_c, 0, 57, 101
1, 152985, Note_off_c, 0, 69, 61
1, 153012, Note_off_c, 0, 57, 59
1, 153069, Note_on_c, 0, 70, 111
1, 153071, Note_on_c, 0, 75, 89
1, 153072, Note_on_c, 0, 66, 109
1, 153074, Note_on_c, 0, 58, 93
1, 153078, Note_on_c, 0, 82, 94
1, 153081, Note_on_c, 0, 63, 92
1, 153107, Note_on_c, 0, 76, 50
1, 153112, Note_on_c, 0, 80, 41
1, 153122, Control_c, 0, 64, 74
1, 153129, Note_off_c, 0, 76, 57
1, 153130, Note_on_c, 0, 79, 48
1, 153136, Control_c, 0, 64, 0
1, 153139, Note_on_c, 0, 78, 43
1, 153181, Control_c, 0, 64, 56
1, 153196, Control_c, 0, 64, 76
1, 153210, Control_c, 0, 64, 127
1, 153258, Note_off_c, 0, 70, 58
1, 153270, Note_off_c, 0, 58, 61
1, 153283, Note_off_c, 0, 66, 53
1, 153294, Note_off_c, 0, 75, 60
1, 153307, Note_off_c, 0, 82, 64
1, 153309, Note_off_c, 0, 63, 58
1, 153324, Note_off_c, 0, 78, 0
1, 153325, Note_off_c, 0, 80, 0
1, 153330, Note_off_c, 0, 79, 0
1, 153332, Note_on_c, 0, 69, 106
1, 153339, Note_on_c, 0, 57, 88
1, 153342, Note_on_c, 0, 80, 31
1, 153344, Note_on_c, 0, 78, 29
1, 153346, Note_on_c, 0, 79, 37
1, 153365, Note_off_c, 0, 69, 70
1, 153419, Note_off_c, 0, 79, 0
1, 153425, Note_off_c, 0, 57, 55
1, 153429, Note_off_c, 0, 78, 0
1, 153431, Note_on_c, 0, 56, 89
1, 153431, Note_on_c, 0, 68, 109
1, 153435, Note_on_c, 0, 58, 85
1, 153443, Note_on_c, 0, 78, 55
1, 153456, Poly_aftertouch_c, 0, 79, 127
1, 153458, Note_off_c, 0, 58, 70
1, 153460, Note_on_c, 0, 70, 53
1, 153463, Note_on_c, 0, 79, 13
1, 153467, Note_off_c, 0, 56, 66
1, 153505, Note_off_c, 0, 70, 0
1, 153505, Note_on_c, 0, 70, 9
1, 153541, Note_off_c, 0, 68, 58
1, 153551, Note_off_c, 0, 70, 45
1, 153579, Note_off_c, 0, 80, 62
1, 153598, Note_off_c, 0, 79, 44
1, 153618, Note_off_c, 0, 78, 43
1, 153645, Note_on_c, 0, 69, 96
1, 153645, Note_on_c, 0, 75, 95
1, 153647, Note_on_c, 0, 83, 98
1, 153650, Note_on_c, 0, 71, 88
1, 153653, Note_on_c, 0, 81, 81
1, 153660, Note_on_c, 0, 37, 93
1, 153662, Note_on_c, 0, 27, 98
1, 153665, Note_on_c, 0, 39, 86
1, 153669, Note_off_c, 0, 71, 70
1, 153669, Note_off_c, 0, 83, 67
1, 153675, Note_off_c, 0, 81, 71
1, 153679, Note_off_c, 0, 69, 65
1, 153680, Note_off_c, 0, 75, 63
1, 153687, Note_off_c, 0, 37, 68
1, 153693, Note_off_c, 0, 27, 68
1, 153694, Note_off_c, 0, 39, 68
1, 153696, Note_on_c, 0, 25, 33
1, 153704, Note_on_c, 0, 26, 35
1, 153729, Control_c, 0, 64, 119
1, 153744, Control_c, 0, 64, 68
1, 153747, Note_off_c, 0, 25, 45
1, 153748, Note_off_c, 0, 26, 52
1, 153758, Note_on_c, 0, 42, 104
1, 153759, Control_c, 0, 64, 0
1, 153761, Note_on_c, 0, 30, 96
1, 153771, Note_on_c, 0, 68, 93
1, 153774, Note_on_c, 0, 56, 95
1, 153777, Note_on_c, 0, 58, 90
1, 153783, Note_on_c, 0, 69, 84
1, 153789, Note_on_c, 0, 29, 62
1, 153803, Control_c, 0, 64, 35
1, 153818, Control_c, 0, 64, 63
1, 153827, Note_off_c, 0, 29, 53
1, 153833, Control_c, 0, 64, 77
1, 153841, Note_on_c, 0, 32, 6
1, 153854, Control_c, 0, 64, 127
1, 153870, Note_off_c, 0, 69, 60
1, 153886, Note_on_c, 0, 66, 16
1, 153895, Note_off_c, 0, 42, 62
1, 153901, Note_off_c, 0, 30, 60
1, 153911, Note_off_c, 0, 32, 46
1, 153952, Note_off_c, 0, 56, 62
1, 153967, Note_off_c, 0, 58, 62
1, 153983, Note_off_c, 0, 66, 35
1, 154003, Control_c, 0, 64, 97
1, 154012, Note_on_c, 0, 47, 75
1, 154014, Note_on_c, 0, 45, 72
1, 154018, Control_c, 0, 64, 69
1, 154024, Note_on_c, 0, 35, 51
1, 154033, Control_c, 0, 64, 59
1, 154040, Note_off_c, 0, 45, 63
1, 154040, Note_off_c, 0, 47, 64
1, 154048, Control_c, 0, 64, 64
1, 154056, Note_off_c, 0, 35, 54
1, 154063, Note_on_c, 0, 58, 37
1, 154063, Control_c, 0, 64, 71
1, 154078, Control_c, 0, 64, 99
1, 154084, Note_off_c, 0, 58, 53
1, 154091, Note_on_c, 0, 47, 101
1, 154093, Control_c, 0, 64, 127
1, 154101, Note_on_c, 0, 35, 81
1, 154117, Note_off_c, 0, 68, 59
1, 154122, Note_off_c, 0, 35, 62
1, 154127, Note_off_c, 0, 47, 65
1, 154182, Poly_aftertouch_c, 0, 69, 0
1, 154308, Note_on_c, 0, 57, 99
1, 154308, Note_on_c, 0, 69, 106
1, 154343, Note_off_c, 0, 69, 69
1, 154345, Control_c, 0, 64, 73
1, 154346, Note_off_c, 0, 57, 63
1, 154359, Control_c, 0, 64, 0
1, 154390, Note_on_c, 0, 71, 75
1, 154397, Note_on_c, 0, 59, 99
1, 154403, Note_on_c, 0, 60, 79
1, 154421, Note_off_c, 0, 60, 41
1, 154610, Note_on_c, 0, 70, 94
1, 154617, Note_on_c, 0, 58, 86
1, 154623, Note_off_c, 0, 71, 64
1, 154635, Note_off_c, 0, 59, 59
1, 154663, Control_c, 0, 64, 72
1, 154677, Control_c, 0, 64, 127
1, 154698, Note_on_c, 0, 69, 103
1, 154700, Note_on_c, 0, 57, 87
1, 154705, Note_off_c, 0, 58, 51
1, 154722, Note_off_c, 0, 70, 60
1, 154724, Note_off_c, 0, 57, 70
1, 154760, Note_on_c, 0, 59, 7
1, 154772, Note_off_c, 0, 59, 0
1, 154798, Poly_aftertouch_c, 0, 59, 0
1, 154891, Note_on_c, 0, 64, 86
1, 154896, Note_on_c, 0, 76, 103
1, 154917, Note_on_c, 0, 44, 86
1, 154925, Note_off_c, 0, 64, 67
1, 154926, Note_on_c, 0, 32, 73
1, 154944, Note_off_c, 0, 44, 67
1, 154952, Note_off_c, 0, 32, 64
1, 154952, Note_off_c, 0, 69, 61
1, 154960, Control_c, 0, 64, 104
1, 154974, Note_off_c, 0, 76, 53
1, 154975, Control_c, 0, 64, 65
1, 154990, Note_on_c, 0, 63, 100
1, 154990, Control_c, 0, 64, 0
1, 154996, Note_on_c, 0, 47, 89
1, 155003, Note_on_c, 0, 35, 77
1, 155017, Note_on_c, 0, 74, 40
1, 155020, Control_c, 0, 64, 38
1, 155034, Control_c, 0, 64, 64
1, 155043, Note_off_c, 0, 47, 64
1, 155043, Note_off_c, 0, 74, 38
1, 155049, Control_c, 0, 64, 94
1, 155058, Note_off_c, 0, 35, 59
1, 155064, Control_c, 0, 64, 127
1, 155077, Note_off_c, 0, 63, 64
1, 155201, Note_on_c, 0, 50, 85
1, 155213, Note_on_c, 0, 59, 97
1, 155224, Note_on_c, 0, 38, 48
1, 155226, Note_off_c, 0, 50, 68
1, 155241, Control_c, 0, 64, 94
1, 155256, Control_c, 0, 64, 64
1, 155257, Note_off_c, 0, 38, 53
1, 155271, Control_c, 0, 64, 0
1, 155290, Note_on_c, 0, 52, 89
1, 155292, Note_on_c, 0, 40, 84
1, 155297, Note_on_c, 0, 58, 95
1, 155300, Control_c, 0, 64, 22
1, 155315, Control_c, 0, 64, 56
1, 155316, Note_off_c, 0, 59, 65
1, 155330, Control_c, 0, 64, 73
1, 155339, Note_off_c, 0, 58, 66
1, 155353, Control_c, 0, 64, 127
1, 155490, Note_on_c, 0, 74, 95
1, 155494, Note_on_c, 0, 62, 86
1, 155514, Note_off_c, 0, 62, 73
1, 155537, Note_off_c, 0, 74, 65
1, 155561, Control_c, 0, 64, 84
1, 155576, Control_c, 0, 64, 66
1, 155581, Note_on_c, 0, 61, 102
1, 155591, Control_c, 0, 64, 64
1, 155604, Note_on_c, 0, 72, 58
1, 155605, Control_c, 0, 64, 71
1, 155620, Control_c, 0, 64, 89
1, 155625, Note_off_c, 0, 72, 62
1, 155635, Control_c, 0, 64, 127
1, 155647, Note_off_c, 0, 52, 64
1, 155669, Note_off_c, 0, 61, 60
1, 155681, Poly_aftertouch_c, 0, 73, 0
1, 155687, Note_off_c, 0, 40, 62
1, 155803, Note_on_c, 0, 57, 112
1, 155813, Control_c, 0, 64, 84
1, 155817, Note_on_c, 0, 44, 85
1, 155824, Note_on_c, 0, 32, 74
1, 155827, Control_c, 0, 64, 56
1, 155842, Control_c, 0, 64, 0
1, 155853, Note_off_c, 0, 57, 61
1, 155857, Control_c, 0, 64, 46
1, 155863, Note_off_c, 0, 32, 63
1, 155872, Control_c, 0, 64, 66
1, 155874, Note_off_c, 0, 44, 63
1, 155887, Control_c, 0, 64, 88
1, 155902, Control_c, 0, 64, 127
1, 155912, Note_on_c, 0, 57, 68
1, 155913, Note_on_c, 0, 56, 106
1, 155934, Note_on_c, 0, 47, 91
1, 155934, Note_off_c, 0, 57, 71
1, 155938, Note_on_c, 0, 35, 81
1, 155939, Note_on_c, 0, 55, 65
1, 155952, Note_off_c, 0, 56, 68
1, 155970, Note_off_c, 0, 55, 64
1, 155982, Note_off_c, 0, 47, 63
1, 155995, Note_off_c, 0, 35, 59
1, 156167, Note_on_c, 0, 60, 109
1, 156185, Note_on_c, 0, 50, 75
1, 156186, Note_on_c, 0, 38, 73
1, 156207, Note_off_c, 0, 60, 69
1, 156215, Note_off_c, 0, 50, 65
1, 156222, Note_off_c, 0, 38, 62
1, 156291, Note_on_c, 0, 59, 106
1, 156293, Control_c, 0, 64, 104
1, 156304, Note_on_c, 0, 40, 78
1, 156306, Note_on_c, 0, 52, 82
1, 156309, Control_c, 0, 64, 65
1, 156324, Control_c, 0, 64, 0
1, 156368, Control_c, 0, 64, 36
1, 156383, Control_c, 0, 64, 61
1, 156398, Control_c, 0, 64, 79
1, 156413, Control_c, 0, 64, 127
1, 156424, Note_off_c, 0, 40, 62
1, 156429, Note_on_c, 0, 58, 78
1, 156435, Note_on_c, 0, 56, 79
1, 156451, Note_off_c, 0, 52, 64
1, 156476, Note_off_c, 0, 59, 49
1, 156533, Note_on_c, 0, 55, 91
1, 156565, Note_off_c, 0, 58, 61
1, 156620, Control_c, 0, 64, 86
1, 156625, Note_off_c, 0, 56, 36
1, 156635, Control_c, 0, 64, 62
1, 156644, Note_on_c, 0, 59, 86
1, 156648, Note_on_c, 0, 57, 78
1, 156649, Note_off_c, 0, 55, 62
1, 156650, Control_c, 0, 64, 0
1, 156679, Control_c, 0, 64, 40
1, 156694, Control_c, 0, 64, 66
1, 156709, Control_c, 0, 64, 100
1, 156716, Note_off_c, 0, 57, 64
1, 156719, Note_on_c, 0, 58, 96
1, 156723, Note_off_c, 0, 59, 65
1, 156724, Control_c, 0, 64, 127
1, 156763, Note_off_c, 0, 58, 65
1, 156768, Control_c, 0, 64, 83
1, 156784, Control_c, 0, 64, 57
1, 156797, Note_on_c, 0, 57, 90
1, 156798, Control_c, 0, 64, 0
1, 156800, Note_on_c, 0, 55, 84
1, 156813, Control_c, 0, 64, 53
1, 156828, Control_c, 0, 64, 79
1, 156832, Note_off_c, 0, 55, 65
1, 156850, Control_c, 0, 64, 127
1, 156852, Note_off_c, 0, 57, 66
1, 156868, Note_on_c, 0, 56, 86
1, 156895, Control_c, 0, 64, 89
1, 156910, Control_c, 0, 64, 63
1, 156915, Note_off_c, 0, 56, 61
1, 156924, Control_c, 0, 64, 0
1, 156930, Note_on_c, 0, 53, 94
1, 156930, Note_on_c, 0, 55, 92
1, 156939, Control_c, 0, 64, 23
1, 156954, Control_c, 0, 64, 72
1, 156954, Note_off_c, 0, 53, 68
1, 156965, Note_off_c, 0, 55, 65
1, 156969, Control_c, 0, 64, 127
1, 156976, Note_on_c, 0, 54, 92
1, 157013, Control_c, 0, 64, 91
1, 157025, Note_off_c, 0, 54, 64
1, 157028, Control_c, 0, 64, 65
1, 157043, Control_c, 0, 64, 0
1, 157048, Note_on_c, 0, 55, 84
1, 157049, Note_on_c, 0, 57, 84
1, 157051, Note_on_c, 0, 53, 84
1, 157071, Note_off_c, 0, 53, 71
1, 157073, Control_c, 0, 64, 54
1, 157076, Note_off_c, 0, 57, 64
1, 157079, Note_off_c, 0, 55, 66
1, 157087, Control_c, 0, 64, 93
1, 157091, Note_on_c, 0, 56, 96
1, 157103, Control_c, 0, 64, 127
1, 157136, Note_off_c, 0, 56, 63
1, 157148, Control_c, 0, 64, 92
1, 157157, Note_on_c, 0, 53, 81
1, 157159, Note_on_c, 0, 55, 95
1, 157163, Control_c, 0, 64, 58
1, 157177, Control_c, 0, 64, 0
1, 157191, Note_off_c, 0, 55, 65
1, 157196, Note_off_c, 0, 53, 64
1, 157207, Control_c, 0, 64, 35
1, 157208, Note_on_c, 0, 54, 98
1, 157221, Control_c, 0, 64, 79
1, 157236, Control_c, 0, 64, 127
1, 157253, Note_off_c, 0, 54, 66
1, 157263, Note_on_c, 0, 53, 98
1, 157266, Control_c, 0, 64, 83
1, 157272, Note_on_c, 0, 52, 83
1, 157281, Control_c, 0, 64, 56
1, 157288, Note_off_c, 0, 52, 69
1, 157294, Note_off_c, 0, 53, 66
1, 157295, Control_c, 0, 64, 0
1, 157325, Control_c, 0, 64, 60
1, 157327, Note_on_c, 0, 52, 110
1, 157340, Control_c, 0, 64, 91
1, 157355, Control_c, 0, 64, 127
1, 157428, Note_off_c, 0, 52, 67
1, 157458, Control_c, 0, 64, 87
1, 157473, Control_c, 0, 64, 55
1, 157488, Control_c, 0, 64, 0
1, 157577, Note_on_c, 0, 71, 107
1, 157578, Note_on_c, 0, 83, 107
1, 157580, Note_on_c, 0, 59, 88
1, 157580, Note_on_c, 0, 75, 108
1, 157599, Note_on_c, 0, 66, 99
1, 157604, Note_on_c, 0, 63, 89
1, 157628, Control_c, 0, 64, 58
1, 157643, Control_c, 0, 64, 127
1, 157667, Note_off_c, 0, 83, 69
1, 157691, Note_off_c, 0, 71, 61
1, 157693, Note_off_c, 0, 66, 59
1, 157693, Note_off_c, 0, 75, 63
1, 157744, Note_off_c, 0, 63, 60
1, 157770, Note_off_c, 0, 59, 65
1, 157926, Note_on_c, 0, 59, 97
1, 157931, Note_on_c, 0, 39, 95
1, 157936, Note_on_c, 0, 27, 87
1, 157958, Note_off_c, 0, 39, 69
1, 157964, Note_off_c, 0, 27, 65
1, 157965, Note_off_c, 0, 59, 70
1, 157986, Control_c, 0, 64, 89
1, 158000, Control_c, 0, 64, 58
1, 158011, Note_on_c, 0, 58, 106
1, 158015, Control_c, 0, 64, 0
1, 158016, Note_on_c, 0, 42, 94
1, 158018, Note_on_c, 0, 30, 83
1, 158027, Note_on_c, 0, 59, 59
1, 158028, Note_on_c, 0, 57, 82
1, 158043, Note_on_c, 0, 56, 56
1, 158045, Control_c, 0, 64, 47
1, 158045, Note_on_c, 0, 29, 57
1, 158049, Note_off_c, 0, 59, 59
1, 158052, Note_on_c, 0, 28, 53
1, 158059, Control_c, 0, 64, 69
1, 158074, Control_c, 0, 64, 127
1, 158099, Note_on_c, 0, 40, 42
1, 158103, Poly_aftertouch_c, 0, 41, 127
1, 158122, Note_off_c, 0, 28, 52
1, 158124, Note_off_c, 0, 57, 59
1, 158126, Poly_aftertouch_c, 0, 39, 127
1, 158129, Note_off_c, 0, 29, 52
1, 158138, Note_off_c, 0, 56, 23
1, 158141, Note_off_c, 0, 40, 50
1, 158151, Poly_aftertouch_c, 0, 41, 0
1, 158161, Note_off_c, 0, 30, 60
1, 158169, Poly_aftertouch_c, 0, 39, 0
1, 158176, Note_off_c, 0, 42, 38
1, 158225, Note_off_c, 0, 58, 58
1, 158280, Note_on_c, 0, 45, 95
1, 158283, Note_on_c, 0, 33, 89
1, 158313, Note_off_c, 0, 33, 65
1, 158322, Note_off_c, 0, 45, 65
1, 158392, Note_on_c, 0, 47, 102
1, 158394, Note_on_c, 0, 35, 90
1, 158430, Note_off_c, 0, 35, 62
1, 158448, Note_off_c, 0, 47, 63
1, 158627, Note_on_c, 0, 69, 97
1, 158635, Note_on_c, 0, 57, 92
1, 158683, Note_on_c, 0, 80, 12
1, 158686, Note_off_c, 0, 69, 64
1, 158698, Note_off_c, 0, 57, 62
1, 158729, Note_off_c, 0, 80, 29
1, 158762, Note_on_c, 0, 70, 120
1, 158765, Note_on_c, 0, 82, 102
1, 158767, Note_on_c, 0, 58, 91
1, 158767, Note_on_c, 0, 75, 96
1, 158767, Note_on_c, 0, 66, 113
1, 158779, Note_on_c, 0, 63, 80
1, 158779, Control_c, 0, 64, 71
1, 158793, Control_c, 0, 64, 31
1, 158797, Note_on_c, 0, 76, 48
1, 158802, Note_on_c, 0, 80, 46
1, 158808, Control_c, 0, 64, 0
1, 158818, Note_off_c, 0, 58, 66
1, 158819, Note_on_c, 0, 79, 37
1, 158820, Note_off_c, 0, 76, 39
1, 158833, Note_on_c, 0, 67, 23
1, 158838, Control_c, 0, 64, 32
1, 158844, Poly_aftertouch_c, 0, 78, 127
1, 158853, Control_c, 0, 64, 63
1, 158867, Control_c, 0, 64, 83
1, 158873, Note_off_c, 0, 67, 48
1, 158882, Control_c, 0, 64, 127
1, 158932, Note_off_c, 0, 66, 49
1, 158940, Note_off_c, 0, 70, 55
1, 158954, Note_off_c, 0, 75, 47
1, 158994, Note_off_c, 0, 80, 0
1, 159011, Note_off_c, 0, 63, 60
1, 159014, Note_off_c, 0, 79, 44
1, 159019, Note_off_c, 0, 82, 63
1, 159025, Note_on_c, 0, 69, 105
1, 159031, Poly_aftertouch_c, 0, 80, 127
1, 159032, Note_on_c, 0, 80, 26
1, 159035, Note_on_c, 0, 57, 90
1, 159041, Note_on_c, 0, 78, 9
1, 159053, Note_off_c, 0, 69, 68
1, 159065, Note_off_c, 0, 80, 64
1, 159071, Note_off_c, 0, 78, 48
1, 159132, Poly_aftertouch_c, 0, 81, 0
1, 159135, Note_on_c, 0, 68, 115
1, 159136, Note_on_c, 0, 56, 95
1, 159140, Note_on_c, 0, 58, 85
1, 159144, Note_off_c, 0, 57, 62
1, 159163, Note_off_c, 0, 58, 70
1, 159166, Note_on_c, 0, 67, 59
1, 159174, Note_off_c, 0, 56, 68
1, 159181, Note_off_c, 0, 68, 64
1, 159189, Note_off_c, 0, 67, 62
1, 159375, Note_on_c, 0, 59, 91
1, 159381, Note_on_c, 0, 39, 96
1, 159390, Note_on_c, 0, 27, 85
1, 159411, Note_off_c, 0, 39, 63
1, 159411, Note_off_c, 0, 59, 67
1, 159418, Note_off_c, 0, 27, 63
1, 159440, Note_on_c, 0, 30, 10
1, 159473, Note_on_c, 0, 58, 110
1, 159475, Poly_aftertouch_c, 0, 40, 127
1, 159476, Note_on_c, 0, 42, 106
1, 159478, Note_off_c, 0, 30, 0
1, 159478, Note_on_c, 0, 30, 54
1, 159479, Note_on_c, 0, 71, 101
1, 159480, Note_on_c, 0, 63, 89
1, 159482, Control_c, 0, 64, 81
1, 159483, Note_on_c, 0, 66, 37
1, 159487, Note_on_c, 0, 32, 83
1, 159497, Note_on_c, 0, 70, 66
1, 159497, Control_c, 0, 64, 32
1, 159500, Poly_aftertouch_c, 0, 40, 0
1, 159500, Note_on_c, 0, 59, 64
1, 159501, Note_off_c, 0, 59, 127
1, 159512, Control_c, 0, 64, 0
1, 159518, Note_off_c, 0, 66, 0
1, 159518, Note_on_c, 0, 66, 6
1, 159525, Note_off_c, 0, 70, 63
1, 159541, Note_on_c, 0, 67, 28
1, 159542, Control_c, 0, 64, 23
1, 159550, Note_off_c, 0, 32, 0
1, 159557, Control_c, 0, 64, 63
1, 159571, Control_c, 0, 64, 82
1, 159586, Poly_aftertouch_c, 0, 32, 127
1, 159586, Control_c, 0, 64, 127
1, 159589, Note_off_c, 0, 67, 44
1, 159603, Note_on_c, 0, 37, 7
1, 159611, Note_off_c, 0, 30, 59
1, 159613, Note_off_c, 0, 42, 61
1, 159644, Poly_aftertouch_c, 0, 32, 0
1, 159661, Note_off_c, 0, 37, 50
1, 159711, Note_on_c, 0, 45, 93
1, 159717, Note_on_c, 0, 33, 74
1, 159745, Poly_aftertouch_c, 0, 69, 127
1, 159749, Note_off_c, 0, 45, 64
1, 159749, Note_off_c, 0, 71, 54
1, 159750, Note_off_c, 0, 33, 64
1, 159774, Poly_aftertouch_c, 0, 69, 0
1, 159804, Note_on_c, 0, 47, 100
1, 159807, Note_on_c, 0, 35, 91
1, 159847, Note_off_c, 0, 58, 61
1, 159909, Poly_aftertouch_c, 0, 42, 0
1, 159911, Note_on_c, 0, 67, 21
1, 159920, Note_off_c, 0, 63, 51
1, 159934, Poly_aftertouch_c, 0, 42, 0
1, 159965, Note_off_c, 0, 66, 36
1, 160022, Note_on_c, 0, 57, 106
1, 160047, Note_on_c, 0, 66, 35
1, 160051, Note_on_c, 0, 68, 40
1, 160081, Note_off_c, 0, 67, 0
1, 160094, Note_off_c, 0, 68, 59
1, 160102, Note_off_c, 0, 57, 67
1, 160137, Poly_aftertouch_c, 0, 67, 0
1, 160147, Note_on_c, 0, 59, 110
1, 160152, Note_off_c, 0, 66, 40
1, 160156, Note_on_c, 0, 63, 66
1, 160157, Note_on_c, 0, 70, 98
1, 160162, Note_on_c, 0, 67, 59
1, 160186, Control_c, 0, 64, 112
1, 160196, Note_on_c, 0, 64, 35
1, 160200, Control_c, 0, 64, 65
1, 160215, Control_c, 0, 64, 0
1, 160232, Note_off_c, 0, 64, 48
1, 160260, Control_c, 0, 64, 48
1, 160275, Control_c, 0, 64, 65
1, 160290, Control_c, 0, 64, 77
1, 160305, Control_c, 0, 64, 127
1, 160313, Note_off_c, 0, 59, 68
1, 160321, Note_off_c, 0, 63, 58
1, 160379, Note_off_c, 0, 35, 55
1, 160413, Note_on_c, 0, 58, 92
1, 160433, Note_off_c, 0, 47, 59
1, 160462, Poly_aftertouch_c, 0, 68, 127
1, 160468, Note_off_c, 0, 58, 60
1, 160481, Note_off_c, 0, 67, 61
1, 160490, Poly_aftertouch_c, 0, 64, 0
1, 160496, Note_off_c, 0, 70, 57
1, 160503, Note_on_c, 0, 57, 94
1, 160536, Note_off_c, 0, 57, 67
1, 160552, Note_on_c, 0, 66, 30
1, 160585, Note_off_c, 0, 66, 53
1, 160612, Poly_aftertouch_c, 0, 69, 127
1, 160623, Poly_aftertouch_c, 0, 68, 0
1, 160633, Poly_aftertouch_c, 0, 69, 0
1, 160713, Control_c, 0, 64, 80
1, 160728, Control_c, 0, 64, 29
1, 160743, Control_c, 0, 64, 0
1, 160761, Note_on_c, 0, 75, 101
1, 160763, Note_on_c, 0, 87, 102
1, 160764, Note_on_c, 0, 70, 94
1, 160769, Note_on_c, 0, 76, 88
1, 160776, Note_on_c, 0, 67, 67
1, 160788, Control_c, 0, 64, 56
1, 160800, Note_off_c, 0, 75, 65
1, 160800, Note_on_c, 0, 82, 35
1, 160801, Note_off_c, 0, 82, 127
1, 160801, Note_off_c, 0, 76, 67
1, 160802, Control_c, 0, 64, 83
1, 160803, Note_off_c, 0, 87, 67
1, 160804, Note_on_c, 0, 85, 24
1, 160805, Note_off_c, 0, 85, 127
1, 160817, Control_c, 0, 64, 127
1, 160823, Note_off_c, 0, 67, 61
1, 160831, Note_off_c, 0, 70, 64
1, 160871, Note_on_c, 0, 78, 117
1, 160872, Note_on_c, 0, 75, 112
1, 160874, Note_on_c, 0, 90, 110
1, 160883, Note_on_c, 0, 63, 85
1, 160889, Note_on_c, 0, 80, 64
1, 160893, Note_on_c, 0, 91, 73
1, 160894, Note_off_c, 0, 91, 127
1, 160904, Note_off_c, 0, 63, 68
1, 160907, Note_off_c, 0, 80, 64
1, 160908, Note_off_c, 0, 90, 69
1, 160913, Note_on_c, 0, 66, 37
1, 160914, Note_off_c, 0, 66, 127
1, 160914, Note_off_c, 0, 78, 66
1, 160937, Note_off_c, 0, 75, 67
1, 160943, Poly_aftertouch_c, 0, 66, 0
1, 161271, Note_on_c, 0, 39, 113
1, 161271, Note_on_c, 0, 51, 121
1, 161291, Note_on_c, 0, 30, 76
1, 161295, Note_on_c, 0, 50, 66
1, 161298, Note_on_c, 0, 28, 67
1, 161306, Note_off_c, 0, 51, 68
1, 161312, Note_off_c, 0, 39, 64
1, 161315, Note_off_c, 0, 50, 66
1, 161315, Note_on_c, 0, 40, 36
1, 161324, Note_off_c, 0, 30, 60
1, 161329, Note_off_c, 0, 28, 57
1, 161356, Note_off_c, 0, 40, 53
1, 161419, Poly_aftertouch_c, 0, 29, 0
1, 161575, Note_on_c, 0, 67, 73
1, 161586, Note_on_c, 0, 70, 101
1, 161593, Note_on_c, 0, 82, 97
1, 161612, Note_off_c, 0, 82, 69
1, 161625, Note_off_c, 0, 70, 67
1, 161649, Note_off_c, 0, 67, 63
1, 161679, Note_on_c, 0, 60, 85
1, 161686, Note_on_c, 0, 74, 110
1, 161689, Note_on_c, 0, 86, 106
1, 161690, Note_on_c, 0, 72, 102
1, 161697, Poly_aftertouch_c, 0, 63, 0
1, 161702, Note_on_c, 0, 76, 70
1, 161703, Note_off_c, 0, 76, 127
1, 161721, Note_on_c, 0, 63, 7
1, 161721, Note_off_c, 0, 86, 69
1, 161732, Note_off_c, 0, 74, 70
1, 161740, Note_off_c, 0, 72, 69
1, 161744, Note_on_c, 0, 62, 52
1, 161750, Note_off_c, 0, 60, 63
1, 161764, Note_off_c, 0, 63, 37
1, 161787, Note_off_c, 0, 62, 65
1, 162114, Note_on_c, 0, 39, 104
1, 162116, Note_on_c, 0, 51, 108
1, 162120, Note_on_c, 0, 27, 96
1, 162135, Note_on_c, 0, 54, 71
1, 162136, Note_off_c, 0, 54, 127
1, 162136, Control_c, 0, 64, 85
1, 162140, Note_on_c, 0, 52, 66
1, 162151, Control_c, 0, 64, 63
1, 162163, Note_off_c, 0, 52, 62
1, 162166, Control_c, 0, 64, 50
1, 162181, Control_c, 0, 64, 61
1, 162196, Control_c, 0, 64, 66
1, 162211, Control_c, 0, 64, 75
1, 162216, Note_off_c, 0, 27, 64
1, 162225, Control_c, 0, 64, 102
1, 162240, Control_c, 0, 64, 127
1, 162246, Note_off_c, 0, 39, 63
1, 162264, Note_on_c, 0, 40, 21
1, 162266, Note_off_c, 0, 51, 60
1, 162310, Note_off_c, 0, 40, 51
1, 162539, Note_on_c, 0, 63, 82
1, 162544, Note_on_c, 0, 65, 74
1, 162550, Note_on_c, 0, 68, 82
1, 162552, Note_on_c, 0, 70, 87
1, 162568, Note_on_c, 0, 87, 106
1, 162569, Note_on_c, 0, 99, 110
1, 162605, Note_on_c, 0, 100, 44
1, 162634, Note_off_c, 0, 100, 38
1, 162652, Note_off_c, 0, 87, 62
1, 162662, Note_on_c, 0, 93, 47
1, 162664, Note_off_c, 0, 99, 65
1, 162683, Note_off_c, 0, 93, 63
1, 162729, Note_on_c, 0, 98, 110
1, 162730, Note_on_c, 0, 86, 103
1, 162738, Note_on_c, 0, 93, 82
1, 162744, Note_on_c, 0, 74, 91
1, 162762, Note_off_c, 0, 93, 68
1, 162776, Note_off_c, 0, 70, 61
1, 162805, Note_off_c, 0, 68, 58
1, 162825, Note_off_c, 0, 65, 62
1, 162855, Note_off_c, 0, 63, 61
1, 162860, Note_off_c, 0, 74, 60
1, 162917, Note_off_c, 0, 98, 61
1, 162928, Note_off_c, 0, 86, 59
1, 162962, Note_on_c, 0, 93, 37
1, 162989, Note_off_c, 0, 93, 52
1, 163000, Note_on_c, 0, 61, 88
1, 163017, Note_on_c, 0, 63, 76
1, 163017, Note_on_c, 0, 66, 82
1, 163017, Note_on_c, 0, 68, 81
1, 163026, Note_on_c, 0, 97, 103
1, 163027, Note_on_c, 0, 85, 103
1, 163044, Note_on_c, 0, 98, 79
1, 163060, Note_on_c, 0, 87, 48
1, 163063, Control_c, 0, 64, 67
1, 163070, Note_on_c, 0, 93, 48
1, 163078, Control_c, 0, 64, 0
1, 163086, Note_off_c, 0, 87, 39
1, 163136, Note_off_c, 0, 97, 63
1, 163137, Note_off_c, 0, 98, 24
1, 163142, Note_off_c, 0, 85, 60
1, 163153, Note_off_c, 0, 93, 66
1, 163182, Control_c, 0, 64, 73
1, 163186, Note_on_c, 0, 93, 72
1, 163187, Note_on_c, 0, 84, 100
1, 163191, Note_on_c, 0, 96, 91
1, 163194, Note_on_c, 0, 72, 106
1, 163195, Note_on_c, 0, 98, 92
1, 163196, Control_c, 0, 64, 127
1, 163198, Note_on_c, 0, 86, 77
1, 163210, Note_off_c, 0, 93, 67
1, 163212, Note_off_c, 0, 86, 43
1, 163215, Note_off_c, 0, 98, 72
1, 163216, Note_off_c, 0, 61, 65
1, 163218, Note_off_c, 0, 68, 64
1, 163229, Note_off_c, 0, 96, 66
1, 163234, Note_off_c, 0, 63, 63
1, 163235, Note_off_c, 0, 84, 69
1, 163239, Note_off_c, 0, 72, 70
1, 163241, Note_off_c, 0, 66, 53
1, 163506, Note_on_c, 0, 59, 111
1, 163664, Note_on_c, 0, 35, 102
1, 163672, Note_on_c, 0, 36, 80
1, 163682, Note_off_c, 0, 59, 60
1, 163691, Note_off_c, 0, 35, 66
1, 163694, Note_off_c, 0, 36, 63
1, 163877, Note_on_c, 0, 53, 30
1, 163909, Note_off_c, 0, 53, 0
1, 163924, Note_on_c, 0, 47, 79
1, 163926, Note_on_c, 0, 58, 103
1, 163933, Note_on_c, 0, 53, 51
1, 163947, Note_on_c, 0, 63, 91
1, 164047, Poly_aftertouch_c, 0, 70, 127
1, 164063, Control_c, 0, 66, 127
1, 164157, Note_on_c, 0, 73, 64
1, 164226, Control_c, 0, 64, 110
1, 164241, Control_c, 0, 64, 101
1, 164255, Control_c, 0, 64, 94
1, 164264, Note_off_c, 0, 63, 57
1, 164271, Control_c, 0, 64, 87
1, 164287, Control_c, 0, 64, 81
1, 164302, Control_c, 0, 64, 76
1, 164305, Note_on_c, 0, 68, 59
1, 164317, Control_c, 0, 64, 70
1, 164339, Control_c, 0, 64, 67
1, 164351, Poly_aftertouch_c, 0, 70, 0
1, 164351, Note_off_c, 0, 73, 58
1, 164354, Control_c, 0, 64, 64
1, 164369, Control_c, 0, 64, 63
1, 164372, Note_off_c, 0, 53, 62
1, 164376, Note_off_c, 0, 47, 56
1, 164384, Control_c, 0, 64, 63
1, 164399, Control_c, 0, 64, 62
1, 164428, Control_c, 0, 64, 62
1, 164433, Note_off_c, 0, 68, 61
1, 164440, Note_on_c, 0, 66, 62
1, 164443, Control_c, 0, 64, 61
1, 164451, Note_off_c, 0, 58, 60
1, 164458, Control_c, 0, 64, 61
1, 164473, Control_c, 0, 64, 60
1, 164487, Control_c, 0, 64, 59
1, 164502, Control_c, 0, 64, 56
1, 164517, Control_c, 0, 64, 53
1, 164532, Control_c, 0, 64, 48
1, 164541, Note_off_c, 0, 66, 53
1, 164547, Control_c, 0, 64, 39
1, 164562, Control_c, 0, 64, 17
1, 164565, Note_on_c, 0, 76, 51
1, 164576, Control_c, 0, 64, 0
1, 164643, Note_on_c, 0, 59, 65
1, 164655, Note_off_c, 0, 76, 58
1, 164670, Note_on_c, 0, 71, 55
1, 164723, Note_off_c, 0, 71, 60
1, 164728, Note_on_c, 0, 61, 76
1, 164729, Note_off_c, 0, 59, 61
1, 164756, Note_on_c, 0, 69, 57
1, 164825, Note_off_c, 0, 61, 61
1, 164850, Note_off_c, 0, 69, 59
1, 164878, Note_on_c, 0, 79, 37
1, 164893, Note_on_c, 0, 77, 44
1, 164926, Note_off_c, 0, 77, 49
1, 164941, Note_on_c, 0, 60, 81
1, 164941, Note_off_c, 0, 79, 58
1, 164965, Note_on_c, 0, 74, 58
1, 165025, Note_off_c, 0, 60, 54
1, 165033, Note_on_c, 0, 62, 85
1, 165035, Control_c, 0, 64, 25
1, 165036, Note_off_c, 0, 74, 62
1, 165050, Control_c, 0, 64, 43
1, 165065, Control_c, 0, 64, 48
1, 165072, Note_on_c, 0, 72, 59
1, 165105, Note_off_c, 0, 62, 57
1, 165132, Control_c, 0, 64, 48
1, 165136, Note_off_c, 0, 72, 60
1, 165147, Control_c, 0, 64, 47
1, 165162, Control_c, 0, 64, 46
1, 165177, Control_c, 0, 64, 44
1, 165191, Note_on_c, 0, 82, 60
1, 165191, Control_c, 0, 64, 43
1, 165206, Control_c, 0, 64, 42
1, 165221, Control_c, 0, 64, 40
1, 165234, Note_on_c, 0, 64, 90
1, 165236, Control_c, 0, 64, 39
1, 165251, Control_c, 0, 64, 38
1, 165266, Control_c, 0, 64, 36
1, 165268, Note_on_c, 0, 77, 58
1, 165271, Note_off_c, 0, 64, 66
1, 165272, Note_off_c, 0, 82, 57
1, 165281, Control_c, 0, 64, 34
1, 165296, Control_c, 0, 64, 29
1, 165310, Control_c, 0, 64, 22
1, 165321, Note_on_c, 0, 63, 96
1, 165325, Control_c, 0, 64, 12
1, 165338, Note_off_c, 0, 77, 63
1, 165340, Control_c, 0, 64, 0
1, 165359, Note_on_c, 0, 75, 68
1, 165413, Poly_aftertouch_c, 0, 64, 0
1, 165451, Note_on_c, 0, 85, 76
1, 165469, Note_off_c, 0, 75, 59
1, 165532, Control_c, 0, 64, 11
1, 165540, Note_on_c, 0, 80, 78
1, 165547, Control_c, 0, 64, 47
1, 165562, Control_c, 0, 64, 62
1, 165563, Note_off_c, 0, 85, 61
1, 165577, Control_c, 0, 64, 72
1, 165591, Control_c, 0, 64, 86
1, 165606, Control_c, 0, 64, 103
1, 165621, Control_c, 0, 64, 127
1, 165630, Note_on_c, 0, 78, 85
1, 165647, Note_off_c, 0, 80, 63
1, 165657, Note_off_c, 0, 63, 61
1, 165714, Note_on_c, 0, 88, 80
1, 165730, Note_off_c, 0, 78, 62
1, 165782, Note_on_c, 0, 65, 97
1, 165814, Note_on_c, 0, 83, 74
1, 165823, Note_off_c, 0, 65, 64
1, 165835, Control_c, 0, 64, 86
1, 165848, Note_off_c, 0, 88, 61
1, 165850, Control_c, 0, 64, 65
1, 165865, Control_c, 0, 64, 0
1, 165877, Note_on_c, 0, 67, 104
1, 165907, Note_off_c, 0, 83, 64
1, 165910, Note_on_c, 0, 81, 73
1, 165970, Control_c, 0, 64, 53
1, 165983, Note_off_c, 0, 81, 63
1, 165985, Control_c, 0, 64, 73
1, 165997, Note_on_c, 0, 91, 90
1, 166000, Control_c, 0, 64, 127
1, 166013, Note_off_c, 0, 67, 58
1, 166083, Note_on_c, 0, 86, 80
1, 166088, Note_on_c, 0, 66, 101
1, 166124, Note_off_c, 0, 91, 63
1, 166132, Note_off_c, 0, 66, 63
1, 166133, Control_c, 0, 64, 82
1, 166148, Control_c, 0, 64, 57
1, 166163, Control_c, 0, 64, 0
1, 166180, Note_on_c, 0, 68, 110
1, 166182, Note_on_c, 0, 84, 83
1, 166207, Control_c, 0, 64, 34
1, 166215, Note_off_c, 0, 68, 69
1, 166222, Control_c, 0, 64, 62
1, 166227, Note_off_c, 0, 86, 63
1, 166237, Control_c, 0, 64, 98
1, 166252, Control_c, 0, 64, 127
1, 166261, Note_off_c, 0, 84, 66
1, 166271, Note_on_c, 0, 94, 87
1, 166283, Note_off_c, 0, 94, 70
1, 166428, Note_on_c, 0, 69, 86
1, 166428, Note_on_c, 0, 70, 93
1, 166458, Control_c, 0, 64, 74
1, 166473, Control_c, 0, 64, 53
1, 166479, Note_off_c, 0, 69, 62
1, 166482, Note_off_c, 0, 70, 61
1, 166488, Control_c, 0, 64, 0
1, 166488, Control_c, 0, 66, 0
1, 166507, Note_on_c, 0, 72, 92
1, 166513, Note_on_c, 0, 68, 77
1, 166759, Note_on_c, 0, 75, 78
1, 166773, Note_off_c, 0, 72, 63
1, 166849, Note_on_c, 0, 76, 80
1, 166853, Note_off_c, 0, 75, 62
1, 167065, Note_off_c, 0, 68, 60
1, 167079, Note_on_c, 0, 69, 63
1, 167090, Note_on_c, 0, 67, 61
1, 167097, Note_on_c, 0, 71, 60
1, 167124, Note_off_c, 0, 71, 51
1, 167126, Note_off_c, 0, 67, 63
1, 167157, Note_on_c, 0, 70, 71
1, 167162, Note_on_c, 0, 66, 55
1, 167162, Note_off_c, 0, 69, 59
1, 167168, Note_off_c, 0, 76, 59
1, 167412, Note_on_c, 0, 73, 68
1, 167436, Note_off_c, 0, 70, 54
1, 167507, Note_off_c, 0, 73, 64
1, 167521, Note_on_c, 0, 74, 62
1, 167710, Note_off_c, 0, 66, 59
1, 167725, Note_on_c, 0, 65, 43
1, 167740, Note_on_c, 0, 67, 58
1, 167782, Note_off_c, 0, 65, 58
1, 167815, Note_on_c, 0, 64, 49
1, 167852, Note_off_c, 0, 67, 54
1, 167852, Note_off_c, 0, 74, 55
1, 167856, Note_on_c, 0, 68, 48
1, 168047, Note_off_c, 0, 68, 59
1, 168072, Note_on_c, 0, 71, 52
1, 168156, Note_off_c, 0, 71, 64
1, 168172, Control_c, 0, 64, 20
1, 168186, Note_on_c, 0, 72, 61
1, 168186, Control_c, 0, 64, 43
1, 168201, Control_c, 0, 64, 53
1, 168216, Control_c, 0, 64, 55
1, 168231, Control_c, 0, 64, 56
1, 168246, Control_c, 0, 64, 56
1, 168260, Control_c, 0, 64, 57
1, 168275, Control_c, 0, 64, 59
1, 168289, Note_off_c, 0, 64, 61
1, 168291, Control_c, 0, 64, 60
1, 168347, Note_off_c, 0, 72, 65
1, 168350, Control_c, 0, 64, 59
1, 168365, Control_c, 0, 64, 55
1, 168380, Control_c, 0, 64, 49
1, 168387, Note_on_c, 0, 77, 92
1, 168395, Control_c, 0, 64, 44
1, 168402, Note_on_c, 0, 76, 69
1, 168409, Control_c, 0, 64, 38
1, 168424, Control_c, 0, 64, 33
1, 168438, Note_off_c, 0, 76, 64
1, 168439, Control_c, 0, 64, 30
1, 168454, Control_c, 0, 64, 28
1, 168469, Control_c, 0, 64, 27
1, 168483, Control_c, 0, 64, 26
1, 168485, Note_on_c, 0, 75, 49
1, 168488, Note_on_c, 0, 79, 83
1, 168494, Note_off_c, 0, 77, 63
1, 168498, Control_c, 0, 64, 25
1, 168513, Control_c, 0, 64, 24
1, 168527, Control_c, 0, 64, 23
1, 168557, Control_c, 0, 64, 23
1, 168717, Note_on_c, 0, 70, 69
1, 168725, Note_on_c, 0, 82, 46
1, 168782, Note_off_c, 0, 70, 62
1, 168786, Note_off_c, 0, 82, 64
1, 168797, Note_on_c, 0, 69, 63
1, 168807, Note_on_c, 0, 83, 61
1, 169022, Note_off_c, 0, 79, 41
1, 169023, Note_on_c, 0, 76, 92
1, 169031, Note_on_c, 0, 74, 74
1, 169033, Note_off_c, 0, 75, 63
1, 169046, Note_off_c, 0, 69, 64
1, 169087, Note_off_c, 0, 83, 62
1, 169099, Control_c, 0, 64, 22
1, 169113, Note_on_c, 0, 73, 79
1, 169119, Note_on_c, 0, 77, 84
1, 169125, Note_off_c, 0, 74, 54
1, 169144, Note_off_c, 0, 76, 61
1, 169262, Control_c, 0, 64, 21
1, 169306, Control_c, 0, 64, 20
1, 169321, Control_c, 0, 64, 9
1, 169336, Control_c, 0, 64, 0
1, 169347, Note_on_c, 0, 68, 85
1, 169350, Note_on_c, 0, 80, 85
1, 169446, Note_on_c, 0, 67, 76
1, 169455, Note_off_c, 0, 80, 64
1, 169466, Note_on_c, 0, 81, 60
1, 169529, Note_off_c, 0, 68, 35
1, 169630, Note_off_c, 0, 77, 63
1, 169665, Note_on_c, 0, 74, 101
1, 169675, Note_on_c, 0, 72, 77
1, 169680, Note_off_c, 0, 67, 62
1, 169685, Note_off_c, 0, 73, 64
1, 169756, Note_on_c, 0, 71, 89
1, 169756, Note_off_c, 0, 72, 64
1, 169763, Note_on_c, 0, 75, 95
1, 169807, Note_off_c, 0, 74, 57
1, 169814, Note_off_c, 0, 81, 63
1, 170015, Note_on_c, 0, 78, 90
1, 170016, Note_on_c, 0, 66, 83
1, 170119, Note_on_c, 0, 79, 86
1, 170121, Note_on_c, 0, 65, 78
1, 170129, Control_c, 0, 64, 62
1, 170138, Note_off_c, 0, 75, 60
1, 170144, Control_c, 0, 64, 127
1, 170160, Note_off_c, 0, 78, 64
1, 170164, Note_off_c, 0, 66, 56
1, 170167, Note_off_c, 0, 79, 68
1, 170178, Note_off_c, 0, 71, 58
1, 170251, Note_off_c, 0, 65, 64
1, 170347, Poly_aftertouch_c, 0, 81, 0
1, 170384, Note_on_c, 0, 83, 108
1, 170387, Note_on_c, 0, 81, 86
1, 170441, Note_off_c, 0, 81, 55
1, 170507, Note_off_c, 0, 83, 65
1, 170554, Note_on_c, 0, 84, 110
1, 170555, Note_on_c, 0, 80, 92
1, 170565, Note_on_c, 0, 41, 105
1, 170568, Note_on_c, 0, 29, 103
1, 170580, Control_c, 0, 64, 74
1, 170588, Note_on_c, 0, 40, 57
1, 170589, Note_off_c, 0, 40, 127
1, 170595, Control_c, 0, 64, 54
1, 170610, Control_c, 0, 64, 0
1, 170616, Note_on_c, 0, 34, 24
1, 170625, Control_c, 0, 64, 15
1, 170640, Control_c, 0, 64, 52
1, 170654, Control_c, 0, 64, 66
1, 170661, Note_off_c, 0, 34, 30
1, 170667, Note_off_c, 0, 80, 60
1, 170669, Control_c, 0, 64, 83
1, 170685, Control_c, 0, 64, 127
1, 170700, Note_off_c, 0, 84, 59
1, 170730, Note_off_c, 0, 29, 60
1, 170769, Note_off_c, 0, 41, 64
1, 170791, Note_on_c, 0, 92, 117
1, 170797, Note_on_c, 0, 90, 96
1, 170807, Note_on_c, 0, 93, 73
1, 170828, Note_on_c, 0, 94, 50
1, 170830, Note_off_c, 0, 93, 52
1, 170850, Note_on_c, 0, 85, 21
1, 170851, Note_off_c, 0, 85, 127
1, 170920, Note_off_c, 0, 94, 27
1, 170930, Note_on_c, 0, 51, 100
1, 170948, Note_off_c, 0, 92, 63
1, 170954, Note_off_c, 0, 90, 61
1, 171009, Note_on_c, 0, 93, 114
1, 171011, Note_on_c, 0, 89, 105
1, 171046, Note_off_c, 0, 89, 67
1, 171094, Note_off_c, 0, 93, 63
1, 171199, Note_on_c, 0, 81, 93
1, 171199, Note_on_c, 0, 79, 86
1, 171213, Note_off_c, 0, 81, 77
1, 171219, Note_off_c, 0, 79, 71
1, 171281, Note_on_c, 0, 59, 77
1, 171293, Note_on_c, 0, 78, 89
1, 171293, Note_on_c, 0, 80, 93
1, 171293, Note_on_c, 0, 81, 101
1, 171296, Note_off_c, 0, 51, 62
1, 171300, Note_on_c, 0, 82, 58
1, 171301, Note_off_c, 0, 82, 127
1, 171306, Note_off_c, 0, 78, 70
1, 171338, Note_off_c, 0, 80, 58
1, 171338, Note_off_c, 0, 59, 64
1, 171359, Note_off_c, 0, 81, 64
1, 171434, Note_on_c, 0, 90, 118
1, 171529, Note_on_c, 0, 67, 116
1, 171562, Note_off_c, 0, 90, 60
1, 171568, Note_off_c, 0, 67, 70
1, 171630, Note_on_c, 0, 91, 109
1, 171636, Note_on_c, 0, 85, 93
1, 171648, Note_off_c, 0, 85, 46
1, 171654, Note_on_c, 0, 86, 77
1, 171668, Note_off_c, 0, 86, 70
1, 171678, Note_off_c, 0, 91, 66
1, 171732, Note_on_c, 0, 73, 109
1, 171769, Note_off_c, 0, 73, 67
1, 171806, Note_on_c, 0, 84, 87
1, 171812, Note_on_c, 0, 82, 60
1, 171833, Note_off_c, 0, 84, 68
1, 171838, Note_off_c, 0, 82, 64
1, 171928, Note_on_c, 0, 77, 117
1, 171934, Note_on_c, 0, 84, 91
1, 171949, Note_on_c, 0, 86, 75
1, 171960, Note_off_c, 0, 77, 68
1, 171967, Note_off_c, 0, 86, 61
1, 171975, Control_c, 0, 64, 89
1, 171976, Note_off_c, 0, 84, 67
1, 171990, Control_c, 0, 64, 67
1, 172005, Control_c, 0, 64, 54
1, 172020, Note_on_c, 0, 76, 95
1, 172020, Control_c, 0, 64, 43
1, 172022, Note_on_c, 0, 86, 96
1, 172035, Control_c, 0, 64, 39
1, 172050, Control_c, 0, 64, 37
1, 172054, Note_off_c, 0, 76, 65
1, 172057, Note_off_c, 0, 86, 64
1, 172065, Control_c, 0, 64, 38
1, 172079, Control_c, 0, 64, 39
1, 172094, Control_c, 0, 64, 41
1, 172103, Note_on_c, 0, 75, 100
1, 172105, Note_on_c, 0, 88, 88
1, 172107, Note_on_c, 0, 76, 57
1, 172107, Note_on_c, 0, 86, 93
1, 172128, Note_off_c, 0, 76, 62
1, 172139, Note_off_c, 0, 75, 66
1, 172168, Note_off_c, 0, 88, 55
1, 172168, Control_c, 0, 64, 42
1, 172183, Control_c, 0, 64, 42
1, 172190, Note_off_c, 0, 86, 68
1, 172198, Control_c, 0, 64, 43
1, 172242, Control_c, 0, 64, 42
1, 172257, Control_c, 0, 64, 41
1, 172273, Control_c, 0, 64, 38
1, 172288, Control_c, 0, 64, 32
1, 172303, Control_c, 0, 64, 0
1, 172324, Note_on_c, 0, 68, 97
1, 172369, Note_off_c, 0, 68, 61
1, 172427, Note_on_c, 0, 67, 98
1, 172688, Note_on_c, 0, 66, 79
1, 172760, Note_off_c, 0, 67, 55
1, 172793, Note_on_c, 0, 68, 90
1, 172838, Note_off_c, 0, 66, 62
1, 172990, Control_c, 0, 64, 25
1, 173004, Control_c, 0, 64, 47
1, 173019, Control_c, 0, 64, 56
1, 173034, Control_c, 0, 64, 60
1, 173043, Note_on_c, 0, 67, 69
1, 173049, Control_c, 0, 64, 63
1, 173051, Note_off_c, 0, 68, 61
1, 173055, Note_on_c, 0, 73, 89
1, 173064, Control_c, 0, 64, 67
1, 173075, Note_off_c, 0, 67, 66
1, 173079, Control_c, 0, 64, 72
1, 173094, Control_c, 0, 64, 81
1, 173109, Control_c, 0, 64, 95
1, 173124, Control_c, 0, 64, 127
1, 173197, Note_on_c, 0, 53, 73
1, 173264, Note_on_c, 0, 74, 82
1, 173270, Note_on_c, 0, 66, 93
1, 173271, Note_off_c, 0, 73, 65
1, 173272, Control_c, 0, 64, 117
1, 173287, Control_c, 0, 64, 96
1, 173302, Control_c, 0, 64, 82
1, 173323, Control_c, 0, 64, 71
1, 173338, Control_c, 0, 64, 61
1, 173353, Control_c, 0, 64, 38
1, 173368, Control_c, 0, 64, 0
1, 173487, Note_on_c, 0, 84, 85
1, 173576, Control_c, 0, 64, 26
1, 173591, Control_c, 0, 64, 41
1, 173605, Control_c, 0, 64, 49
1, 173620, Control_c, 0, 64, 53
1, 173635, Control_c, 0, 64, 57
1, 173650, Control_c, 0, 64, 60
1, 173665, Control_c, 0, 64, 62
1, 173679, Control_c, 0, 64, 65
1, 173694, Control_c, 0, 64, 68
1, 173709, Control_c, 0, 64, 72
1, 173712, Note_on_c, 0, 83, 85
1, 173723, Control_c, 0, 64, 77
1, 173730, Note_off_c, 0, 84, 64
1, 173738, Control_c, 0, 64, 80
1, 173753, Control_c, 0, 64, 83
1, 173768, Control_c, 0, 64, 86
1, 173781, Note_off_c, 0, 74, 59
1, 173783, Control_c, 0, 64, 88
1, 173797, Control_c, 0, 64, 90
1, 173812, Control_c, 0, 64, 92
1, 173827, Control_c, 0, 64, 96
1, 173842, Control_c, 0, 64, 103
1, 173857, Control_c, 0, 64, 115
1, 173873, Control_c, 0, 64, 127
1, 173886, Note_off_c, 0, 66, 53
1, 173961, Note_on_c, 0, 65, 67
1, 173967, Note_off_c, 0, 53, 58
1, 173976, Note_on_c, 0, 73, 70
1, 174037, Note_off_c, 0, 73, 63
1, 174043, Note_off_c, 0, 83, 58
1, 174088, Control_c, 0, 64, 104
1, 174098, Note_off_c, 0, 65, 60
1, 174102, Control_c, 0, 64, 79
1, 174107, Note_on_c, 0, 80, 79
1, 174109, Note_on_c, 0, 72, 76
1, 174112, Note_on_c, 0, 64, 69
1, 174117, Control_c, 0, 64, 64
1, 174132, Control_c, 0, 64, 48
1, 174136, Note_off_c, 0, 72, 66
1, 174143, Note_off_c, 0, 80, 59
1, 174146, Control_c, 0, 64, 19
1, 174161, Control_c, 0, 64, 15
1, 174197, Note_on_c, 0, 81, 79
1, 174203, Note_on_c, 0, 71, 63
1, 174220, Note_off_c, 0, 71, 65
1, 174224, Note_off_c, 0, 81, 67
1, 174294, Note_on_c, 0, 70, 81
1, 174295, Note_on_c, 0, 82, 81
1, 174317, Note_off_c, 0, 70, 66
1, 174319, Note_off_c, 0, 82, 66
1, 174414, Note_off_c, 0, 64, 63
1, 174419, Note_on_c, 0, 63, 62
1, 174502, Control_c, 0, 64, 16
1, 174509, Note_off_c, 0, 63, 60
1, 174532, Control_c, 0, 64, 17
1, 174536, Note_on_c, 0, 64, 56
1, 174576, Control_c, 0, 64, 17
1, 174591, Control_c, 0, 64, 18
1, 174606, Control_c, 0, 64, 19
1, 174696, Control_c, 0, 64, 20
1, 174740, Control_c, 0, 64, 21
1, 174763, Note_off_c, 0, 64, 58
1, 174769, Control_c, 0, 64, 21
1, 174783, Note_on_c, 0, 63, 52
1, 174784, Control_c, 0, 64, 22
1, 174814, Control_c, 0, 64, 23
1, 174837, Control_c, 0, 64, 23
1, 174851, Control_c, 0, 64, 24
1, 174866, Control_c, 0, 64, 24
1, 174881, Note_off_c, 0, 63, 60
1, 174881, Control_c, 0, 64, 25
1, 174895, Note_on_c, 0, 62, 57
1, 174896, Control_c, 0, 64, 25
1, 174925, Control_c, 0, 64, 26
1, 174940, Control_c, 0, 64, 26
1, 174984, Control_c, 0, 64, 27
1, 175115, Note_on_c, 0, 69, 48
1, 175118, Note_on_c, 0, 88, 86
1, 175126, Note_on_c, 0, 76, 65
1, 175143, Note_off_c, 0, 76, 65
1, 175145, Note_off_c, 0, 88, 64
1, 175148, Control_c, 0, 64, 30
1, 175163, Control_c, 0, 64, 40
1, 175170, Note_off_c, 0, 69, 62
1, 175177, Control_c, 0, 64, 50
1, 175192, Control_c, 0, 64, 55
1, 175204, Note_on_c, 0, 71, 58
1, 175205, Note_on_c, 0, 87, 93
1, 175207, Control_c, 0, 64, 60
1, 175213, Note_on_c, 0, 75, 69
1, 175222, Control_c, 0, 64, 63
1, 175224, Note_off_c, 0, 87, 70
1, 175228, Note_off_c, 0, 75, 65
1, 175237, Control_c, 0, 64, 67
1, 175251, Control_c, 0, 64, 73
1, 175266, Control_c, 0, 64, 84
1, 175281, Control_c, 0, 64, 99
1, 175295, Control_c, 0, 64, 127
1, 175407, Note_off_c, 0, 71, 32
1, 175449, Note_on_c, 0, 89, 85
1, 175459, Control_c, 0, 64, 121
1, 175462, Note_on_c, 0, 68, 55
1, 175462, Note_on_c, 0, 77, 67
1, 175471, Note_off_c, 0, 89, 69
1, 175474, Control_c, 0, 64, 81
1, 175480, Note_off_c, 0, 77, 61
1, 175489, Control_c, 0, 64, 63
1, 175505, Control_c, 0, 64, 48
1, 175520, Control_c, 0, 64, 53
1, 175535, Control_c, 0, 64, 58
1, 175541, Note_on_c, 0, 86, 87
1, 175547, Note_on_c, 0, 74, 72
1, 175549, Control_c, 0, 64, 62
1, 175550, Note_on_c, 0, 70, 63
1, 175560, Note_off_c, 0, 68, 56
1, 175564, Control_c, 0, 64, 65
1, 175577, Note_off_c, 0, 74, 63
1, 175580, Note_off_c, 0, 86, 65
1, 175586, Control_c, 0, 64, 71
1, 175601, Control_c, 0, 64, 80
1, 175616, Control_c, 0, 64, 98
1, 175631, Control_c, 0, 64, 127
1, 175737, Note_off_c, 0, 70, 41
1, 175794, Control_c, 0, 64, 107
1, 175796, Note_on_c, 0, 69, 47
1, 175805, Note_on_c, 0, 88, 72
1, 175808, Control_c, 0, 64, 79
1, 175821, Note_on_c, 0, 76, 46
1, 175823, Control_c, 0, 64, 65
1, 175838, Control_c, 0, 64, 45
1, 175848, Note_off_c, 0, 76, 38
1, 175851, Note_off_c, 0, 88, 59
1, 175853, Control_c, 0, 64, 0
1, 175860, Note_off_c, 0, 69, 52
1, 175882, Control_c, 0, 64, 17
1, 175894, Note_on_c, 0, 71, 42
1, 175897, Control_c, 0, 64, 28
1, 175900, Note_on_c, 0, 87, 66
1, 175912, Control_c, 0, 64, 38
1, 175926, Control_c, 0, 64, 47
1, 175930, Note_on_c, 0, 75, 36
1, 175941, Control_c, 0, 64, 53
1, 175956, Control_c, 0, 64, 58
1, 175956, Control_c, 0, 67, 17
1, 175971, Control_c, 0, 64, 61
1, 175971, Control_c, 0, 67, 40
1, 175986, Control_c, 0, 64, 64
1, 175986, Control_c, 0, 67, 58
1, 176000, Control_c, 0, 64, 66
1, 176000, Control_c, 0, 67, 75
1, 176015, Control_c, 0, 64, 68
1, 176015, Control_c, 0, 67, 93
1, 176030, Control_c, 0, 64, 70
1, 176030, Control_c, 0, 67, 112
1, 176045, Control_c, 0, 64, 74
1, 176045, Control_c, 0, 67, 127
1, 176060, Control_c, 0, 64, 77
1, 176065, Note_off_c, 0, 75, 42
1, 176075, Control_c, 0, 64, 80
1, 176090, Control_c, 0, 64, 82
1, 176105, Control_c, 0, 64, 83
1, 176119, Control_c, 0, 64, 84
1, 176134, Control_c, 0, 64, 85
1, 176178, Note_off_c, 0, 71, 35
1, 176198, Note_off_c, 0, 87, 55
1, 176203, Note_on_c, 0, 89, 64
1, 176208, Control_c, 0, 64, 84
1, 176209, Note_on_c, 0, 68, 40
1, 176238, Control_c, 0, 64, 83
1, 176248, Note_off_c, 0, 89, 57
1, 176268, Control_c, 0, 64, 83
1, 176283, Control_c, 0, 64, 82
1, 176298, Control_c, 0, 64, 79
1, 176320, Control_c, 0, 64, 72
1, 176327, Note_off_c, 0, 68, 38
1, 176335, Control_c, 0, 64, 64
1, 176337, Note_on_c, 0, 70, 36
1, 176349, Control_c, 0, 64, 54
1, 176361, Note_on_c, 0, 74, 51
1, 176364, Control_c, 0, 64, 44
1, 176379, Control_c, 0, 64, 43
1, 176394, Control_c, 0, 64, 46
1, 176409, Control_c, 0, 64, 50
1, 176424, Control_c, 0, 64, 55
1, 176438, Control_c, 0, 64, 57
1, 176451, Note_off_c, 0, 74, 49
1, 176453, Control_c, 0, 64, 59
1, 176468, Control_c, 0, 64, 60
1, 176481, Note_on_c, 0, 85, 40
1, 176483, Control_c, 0, 64, 61
1, 176498, Control_c, 0, 64, 61
1, 176513, Control_c, 0, 64, 62
1, 176528, Control_c, 0, 64, 64
1, 176542, Control_c, 0, 64, 65
1, 176552, Note_on_c, 0, 87, 49
1, 176557, Control_c, 0, 64, 67
1, 176572, Control_c, 0, 64, 68
1, 176587, Control_c, 0, 64, 70
1, 176602, Control_c, 0, 64, 71
1, 176617, Control_c, 0, 64, 73
1, 176631, Control_c, 0, 64, 75
1, 176640, Note_on_c, 0, 84, 47
1, 176646, Control_c, 0, 64, 76
1, 176661, Note_off_c, 0, 85, 31
1, 176661, Control_c, 0, 64, 78
1, 176676, Control_c, 0, 64, 78
1, 176689, Note_off_c, 0, 87, 34
1, 176691, Control_c, 0, 64, 79
1, 176720, Control_c, 0, 64, 79
1, 176742, Note_on_c, 0, 76, 40
1, 176746, Note_off_c, 0, 84, 55
1, 176792, Note_off_c, 0, 76, 45
1, 176818, Note_on_c, 0, 83, 49
1, 176889, Note_off_c, 0, 83, 62
1, 176896, Note_off_c, 0, 62, 63
1, 176914, Note_on_c, 0, 89, 71
1, 176984, Note_off_c, 0, 89, 60
1, 177014, Note_on_c, 0, 82, 55
1, 177083, Control_c, 0, 64, 80
1, 177100, Note_off_c, 0, 82, 59
1, 177115, Note_on_c, 0, 63, 81
1, 177117, Note_on_c, 0, 78, 60
1, 177157, Control_c, 0, 64, 79
1, 177172, Control_c, 0, 64, 79
1, 177175, Note_off_c, 0, 78, 62
1, 177180, Note_on_c, 0, 81, 66
1, 177187, Control_c, 0, 64, 78
1, 177198, Note_on_c, 0, 62, 75
1, 177202, Control_c, 0, 64, 76
1, 177207, Note_off_c, 0, 81, 67
1, 177211, Note_off_c, 0, 63, 60
1, 177216, Control_c, 0, 64, 74
1, 177231, Control_c, 0, 64, 71
1, 177246, Control_c, 0, 64, 68
1, 177261, Control_c, 0, 64, 66
1, 177276, Control_c, 0, 64, 64
1, 177291, Control_c, 0, 64, 62
1, 177299, Note_on_c, 0, 91, 66
1, 177306, Control_c, 0, 64, 59
1, 177320, Control_c, 0, 64, 55
1, 177335, Control_c, 0, 64, 52
1, 177350, Control_c, 0, 64, 50
1, 177364, Control_c, 0, 64, 50
1, 177395, Note_on_c, 0, 80, 46
1, 177409, Control_c, 0, 64, 50
1, 177424, Control_c, 0, 64, 51
1, 177438, Control_c, 0, 64, 51
1, 177453, Control_c, 0, 64, 52
1, 177455, Note_off_c, 0, 70, 56
1, 177468, Control_c, 0, 64, 54
1, 177483, Control_c, 0, 64, 57
1, 177491, Note_off_c, 0, 91, 35
1, 177498, Control_c, 0, 64, 60
1, 177513, Control_c, 0, 64, 62
1, 177514, Note_on_c, 0, 86, 53
1, 177527, Control_c, 0, 64, 64
1, 177542, Control_c, 0, 64, 66
1, 177555, Note_off_c, 0, 80, 38
1, 177557, Control_c, 0, 64, 67
1, 177568, Note_off_c, 0, 86, 57
1, 177571, Control_c, 0, 64, 69
1, 177586, Control_c, 0, 64, 72
1, 177601, Control_c, 0, 64, 77
1, 177609, Note_on_c, 0, 70, 44
1, 177616, Control_c, 0, 64, 81
1, 177631, Control_c, 0, 64, 86
1, 177646, Control_c, 0, 64, 88
1, 177742, Note_off_c, 0, 62, 59
1, 177765, Note_on_c, 0, 80, 41
1, 177794, Control_c, 0, 64, 88
1, 177799, Note_off_c, 0, 70, 57
1, 177831, Control_c, 0, 64, 87
1, 177833, Poly_aftertouch_c, 0, 78, 127
1, 177839, Note_on_c, 0, 81, 61
1, 177891, Control_c, 0, 64, 87
1, 177949, Note_on_c, 0, 73, 39
1, 177953, Note_off_c, 0, 81, 65
1, 177990, Note_off_c, 0, 73, 45
1, 177991, Note_off_c, 0, 80, 23
1, 177998, Note_on_c, 0, 65, 45
1, 178024, Control_c, 0, 64, 86
1, 178039, Control_c, 0, 64, 86
1, 178054, Control_c, 0, 64, 85
1, 178069, Control_c, 0, 64, 83
1, 178084, Control_c, 0, 64, 82
1, 178087, Poly_aftertouch_c, 0, 78, 0
1, 178096, Note_on_c, 0, 68, 48
1, 178099, Control_c, 0, 64, 80
1, 178114, Control_c, 0, 64, 80
1, 178129, Control_c, 0, 64, 79
1, 178158, Control_c, 0, 64, 79
1, 178173, Control_c, 0, 64, 77
1, 178187, Control_c, 0, 64, 72
1, 178202, Control_c, 0, 64, 66
1, 178208, Note_on_c, 0, 76, 44
1, 178217, Control_c, 0, 64, 61
1, 178232, Control_c, 0, 64, 57
1, 178247, Control_c, 0, 64, 56
1, 178276, Control_c, 0, 64, 56
1, 178291, Control_c, 0, 64, 57
1, 178306, Control_c, 0, 64, 59
1, 178316, Note_on_c, 0, 84, 40
1, 178321, Control_c, 0, 64, 61
1, 178335, Control_c, 0, 64, 63
1, 178344, Note_off_c, 0, 76, 61
1, 178350, Control_c, 0, 64, 65
1, 178365, Control_c, 0, 64, 67
1, 178380, Control_c, 0, 64, 70
1, 178394, Control_c, 0, 64, 73
1, 178409, Control_c, 0, 64, 76
1, 178424, Control_c, 0, 64, 80
1, 178439, Control_c, 0, 64, 83
1, 178453, Note_on_c, 0, 87, 41
1, 178454, Control_c, 0, 64, 85
1, 178468, Control_c, 0, 64, 88
1, 178483, Control_c, 0, 64, 90
1, 178498, Control_c, 0, 64, 91
1, 178500, Note_off_c, 0, 68, 37
1, 178513, Control_c, 0, 64, 91
1, 178521, Note_off_c, 0, 65, 61
1, 178524, Note_off_c, 0, 87, 60
1, 178580, Control_c, 0, 64, 92
1, 178620, Note_on_c, 0, 79, 50
1, 178639, Control_c, 0, 64, 92
1, 178650, Note_off_c, 0, 84, 30
1, 178654, Control_c, 0, 64, 93
1, 178670, Control_c, 0, 64, 94
1, 178699, Control_c, 0, 64, 95
1, 178759, Control_c, 0, 64, 94
1, 178778, Note_off_c, 0, 79, 27
1, 178785, Note_on_c, 0, 71, 48
1, 178788, Control_c, 0, 64, 93
1, 178803, Control_c, 0, 64, 93
1, 178817, Control_c, 0, 64, 92
1, 178832, Control_c, 0, 64, 91
1, 178847, Control_c, 0, 64, 91
1, 178862, Control_c, 0, 64, 90
1, 178920, Note_off_c, 0, 71, 56
1, 178951, Control_c, 0, 64, 89
1, 178956, Note_on_c, 0, 50, 33
1, 178966, Control_c, 0, 64, 85
1, 178981, Control_c, 0, 64, 77
1, 178996, Control_c, 0, 64, 68
1, 179010, Control_c, 0, 64, 60
1, 179025, Control_c, 0, 64, 48
1, 179040, Control_c, 0, 64, 50
1, 179055, Control_c, 0, 64, 54
1, 179070, Control_c, 0, 64, 58
1, 179084, Control_c, 0, 64, 60
1, 179099, Control_c, 0, 64, 63
1, 179114, Control_c, 0, 64, 66
1, 179129, Control_c, 0, 64, 71
1, 179139, Note_on_c, 0, 54, 29
1, 179144, Control_c, 0, 64, 78
1, 179158, Control_c, 0, 64, 87
1, 179173, Control_c, 0, 64, 96
1, 179188, Control_c, 0, 64, 102
1, 179203, Control_c, 0, 64, 108
1, 179217, Control_c, 0, 64, 116
1, 179232, Control_c, 0, 64, 127
1, 179237, Note_on_c, 0, 58, 34
1, 179250, Note_off_c, 0, 50, 37
1, 179392, Note_on_c, 0, 61, 44
1, 179409, Note_on_c, 0, 82, 73
1, 179413, Note_off_c, 0, 54, 43
1, 179422, Note_off_c, 0, 58, 37
1, 179443, Note_off_c, 0, 61, 59
1, 179539, Note_on_c, 0, 65, 42
1, 179568, Note_off_c, 0, 65, 50
1, 179639, Note_on_c, 0, 57, 44
1, 179685, Note_off_c, 0, 57, 52
1, 179741, Note_on_c, 0, 56, 51
1, 179748, Note_on_c, 0, 83, 80
1, 179774, Control_c, 0, 64, 110
1, 179779, Note_on_c, 0, 81, 42
1, 179789, Control_c, 0, 64, 81
1, 179804, Control_c, 0, 64, 66
1, 179813, Note_off_c, 0, 81, 47
1, 179819, Control_c, 0, 64, 53
1, 179827, Note_off_c, 0, 82, 58
1, 179834, Control_c, 0, 64, 43
1, 179849, Control_c, 0, 64, 52
1, 179863, Control_c, 0, 64, 59
1, 179868, Note_on_c, 0, 60, 45
1, 179878, Control_c, 0, 64, 63
1, 179893, Control_c, 0, 64, 67
1, 179908, Control_c, 0, 64, 76
1, 179923, Control_c, 0, 64, 97
1, 179938, Control_c, 0, 64, 127
1, 179972, Note_on_c, 0, 64, 48
1, 179987, Note_off_c, 0, 56, 34
1, 179994, Note_off_c, 0, 60, 52
1, 180024, Note_on_c, 0, 88, 78
1, 180040, Note_off_c, 0, 64, 60
1, 180048, Note_off_c, 0, 83, 62
1, 180077, Note_on_c, 0, 67, 50
1, 180135, Note_on_c, 0, 83, 86
1, 180227, Note_off_c, 0, 67, 53
1, 180228, Note_on_c, 0, 70, 48
1, 180299, Note_off_c, 0, 70, 51
1, 180346, Note_on_c, 0, 63, 38
1, 180421, Note_off_c, 0, 63, 50
1, 180436, Note_on_c, 0, 62, 43
1, 180479, Note_on_c, 0, 82, 87
1, 180538, Control_c, 0, 64, 82
1, 180553, Control_c, 0, 64, 64
1, 180568, Control_c, 0, 64, 27
1, 180582, Control_c, 0, 64, 0
1, 180585, Note_off_c, 0, 83, 56
1, 180627, Note_on_c, 0, 66, 47
1, 180671, Control_c, 0, 64, 31
1, 180684, Note_off_c, 0, 62, 54
1, 180686, Control_c, 0, 64, 46
1, 180701, Control_c, 0, 64, 57
1, 180716, Control_c, 0, 64, 63
1, 180722, Note_on_c, 0, 70, 50
1, 180731, Control_c, 0, 64, 67
1, 180742, Note_off_c, 0, 88, 57
1, 180745, Control_c, 0, 64, 73
1, 180760, Control_c, 0, 64, 83
1, 180775, Control_c, 0, 64, 104
1, 180789, Control_c, 0, 64, 127
1, 180816, Note_off_c, 0, 70, 63
1, 180821, Note_off_c, 0, 66, 36
1, 180834, Note_on_c, 0, 73, 51
1, 180874, Note_off_c, 0, 73, 65
1, 180915, Note_on_c, 0, 78, 66
1, 180949, Note_off_c, 0, 78, 65
1, 181031, Note_on_c, 0, 69, 50
1, 181034, Note_off_c, 0, 82, 64
1, 181041, Note_on_c, 0, 79, 64
1, 181120, Note_off_c, 0, 79, 61
1, 181121, Note_off_c, 0, 69, 37
1, 181128, Note_on_c, 0, 82, 66
1, 181168, Control_c, 0, 64, 117
1, 181183, Control_c, 0, 64, 91
1, 181198, Control_c, 0, 64, 74
1, 181199, Note_on_c, 0, 68, 40
1, 181212, Control_c, 0, 64, 62
1, 181223, Note_on_c, 0, 83, 67
1, 181227, Control_c, 0, 64, 15
1, 181242, Control_c, 0, 64, 0
1, 181256, Note_off_c, 0, 82, 61
1, 181316, Control_c, 0, 64, 33
1, 181331, Control_c, 0, 64, 51
1, 181345, Note_on_c, 0, 72, 47
1, 181346, Control_c, 0, 64, 60
1, 181360, Control_c, 0, 64, 65
1, 181375, Control_c, 0, 64, 69
1, 181390, Control_c, 0, 64, 75
1, 181405, Control_c, 0, 64, 85
1, 181419, Control_c, 0, 64, 99
1, 181434, Control_c, 0, 64, 123
1, 181446, Note_on_c, 0, 76, 46
1, 181449, Control_c, 0, 64, 127
1, 181465, Note_off_c, 0, 72, 52
1, 181476, Note_off_c, 0, 83, 62
1, 181488, Note_off_c, 0, 68, 34
1, 181515, Note_off_c, 0, 76, 63
1, 181554, Note_on_c, 0, 79, 48
1, 181637, Note_off_c, 0, 79, 62
1, 181651, Note_on_c, 0, 82, 56
1, 181696, Note_off_c, 0, 82, 59
1, 181738, Note_on_c, 0, 75, 46
1, 181761, Note_off_c, 0, 75, 59
1, 181813, Note_on_c, 0, 85, 68
1, 181932, Control_c, 0, 64, 102
1, 181947, Control_c, 0, 64, 80
1, 181962, Control_c, 0, 64, 67
1, 181963, Note_on_c, 0, 50, 40
1, 181977, Control_c, 0, 64, 56
1, 181991, Control_c, 0, 64, 46
1, 182006, Control_c, 0, 64, 50
1, 182021, Control_c, 0, 64, 54
1, 182022, Note_on_c, 0, 86, 65
1, 182035, Control_c, 0, 64, 58
1, 182050, Control_c, 0, 64, 61
1, 182061, Note_off_c, 0, 85, 63
1, 182065, Control_c, 0, 64, 64
1, 182080, Control_c, 0, 64, 65
1, 182095, Control_c, 0, 64, 69
1, 182109, Control_c, 0, 64, 74
1, 182124, Control_c, 0, 64, 82
1, 182138, Note_on_c, 0, 54, 46
1, 182139, Control_c, 0, 64, 93
1, 182154, Control_c, 0, 64, 110
1, 182169, Control_c, 0, 64, 127
1, 182208, Note_off_c, 0, 50, 39
1, 182220, Note_on_c, 0, 58, 49
1, 182230, Note_on_c, 0, 87, 80
1, 182273, Note_off_c, 0, 54, 37
1, 182288, Note_off_c, 0, 58, 62
1, 182325, Note_on_c, 0, 61, 55
1, 182361, Note_off_c, 0, 61, 64
1, 182406, Note_on_c, 0, 65, 58
1, 182442, Note_on_c, 0, 94, 82
1, 182454, Poly_aftertouch_c, 0, 62, 0
1, 182459, Note_off_c, 0, 65, 47
1, 182478, Poly_aftertouch_c, 0, 62, 0
1, 182528, Note_on_c, 0, 57, 39
1, 182571, Note_off_c, 0, 57, 49
1, 182594, Note_on_c, 0, 56, 53
1, 182612, Note_on_c, 0, 91, 87
1, 182627, Note_off_c, 0, 94, 64
1, 182650, Control_c, 0, 64, 84
1, 182666, Control_c, 0, 64, 63
1, 182670, Note_off_c, 0, 87, 63
1, 182675, Note_off_c, 0, 86, 57
1, 182680, Control_c, 0, 64, 27
1, 182695, Control_c, 0, 64, 0
1, 182713, Note_on_c, 0, 60, 54
1, 182725, Control_c, 0, 64, 31
1, 182740, Control_c, 0, 64, 51
1, 182755, Control_c, 0, 64, 62
1, 182770, Control_c, 0, 64, 68
1, 182784, Control_c, 0, 64, 78
1, 182799, Control_c, 0, 64, 103
1, 182803, Note_on_c, 0, 88, 89
1, 182814, Control_c, 0, 64, 127
1, 182816, Note_on_c, 0, 64, 53
1, 182827, Note_off_c, 0, 56, 59
1, 182835, Note_off_c, 0, 60, 62
1, 182859, Note_off_c, 0, 64, 62
1, 182883, Note_on_c, 0, 67, 59
1, 182970, Note_off_c, 0, 67, 62
1, 182971, Note_on_c, 0, 70, 69
1, 182973, Note_off_c, 0, 91, 58
1, 182984, Note_on_c, 0, 84, 84
1, 182997, Note_off_c, 0, 88, 65
1, 183034, Note_off_c, 0, 84, 66
1, 183042, Note_off_c, 0, 70, 57
1, 183050, Note_on_c, 0, 63, 61
1, 183169, Note_on_c, 0, 62, 62
1, 183170, Note_on_c, 0, 80, 88
1, 183176, Control_c, 0, 64, 89
1, 183190, Control_c, 0, 64, 67
1, 183205, Control_c, 0, 64, 39
1, 183220, Control_c, 0, 64, 0
1, 183233, Note_off_c, 0, 63, 30
1, 183250, Control_c, 0, 64, 20
1, 183265, Control_c, 0, 64, 51
1, 183272, Note_on_c, 0, 66, 60
1, 183280, Control_c, 0, 64, 64
1, 183294, Control_c, 0, 64, 73
1, 183309, Control_c, 0, 64, 103
1, 183324, Control_c, 0, 64, 127
1, 183327, Note_off_c, 0, 62, 50
1, 183346, Note_on_c, 0, 81, 87
1, 183359, Note_on_c, 0, 70, 60
1, 183396, Note_off_c, 0, 66, 59
1, 183396, Note_off_c, 0, 80, 54
1, 183408, Note_off_c, 0, 70, 57
1, 183426, Note_on_c, 0, 73, 54
1, 183455, Note_off_c, 0, 73, 66
1, 183498, Note_on_c, 0, 77, 60
1, 183515, Note_on_c, 0, 89, 87
1, 183519, Note_off_c, 0, 77, 58
1, 183584, Note_on_c, 0, 69, 59
1, 183606, Note_off_c, 0, 81, 59
1, 183672, Note_off_c, 0, 69, 58
1, 183682, Note_on_c, 0, 68, 52
1, 183694, Note_on_c, 0, 85, 82
1, 183740, Control_c, 0, 64, 88
1, 183754, Control_c, 0, 64, 69
1, 183769, Control_c, 0, 64, 51
1, 183782, Note_on_c, 0, 72, 52
1, 183784, Control_c, 0, 64, 0
1, 183791, Note_off_c, 0, 89, 49
1, 183875, Note_on_c, 0, 76, 50
1, 183888, Note_on_c, 0, 82, 66
1, 183895, Control_c, 0, 64, 28
1, 183898, Note_off_c, 0, 72, 59
1, 183910, Control_c, 0, 64, 46
1, 183925, Control_c, 0, 64, 55
1, 183940, Control_c, 0, 64, 60
1, 183950, Note_off_c, 0, 76, 61
1, 183954, Note_on_c, 0, 79, 57
1, 183955, Control_c, 0, 64, 64
1, 183962, Note_off_c, 0, 85, 57
1, 183969, Control_c, 0, 64, 68
1, 183984, Control_c, 0, 64, 72
1, 183999, Control_c, 0, 64, 78
1, 184013, Control_c, 0, 64, 84
1, 184028, Control_c, 0, 64, 88
1, 184043, Control_c, 0, 64, 89
1, 184058, Control_c, 0, 64, 90
1, 184061, Note_off_c, 0, 82, 62
1, 184064, Note_on_c, 0, 78, 56
1, 184066, Note_off_c, 0, 79, 64
1, 184073, Control_c, 0, 64, 89
1, 184087, Control_c, 0, 64, 89
1, 184096, Note_off_c, 0, 78, 55
1, 184102, Control_c, 0, 64, 88
1, 184117, Control_c, 0, 64, 87
1, 184132, Control_c, 0, 64, 85
1, 184147, Control_c, 0, 64, 84
1, 184154, Note_on_c, 0, 75, 56
1, 184162, Control_c, 0, 64, 82
1, 184177, Control_c, 0, 64, 81
1, 184192, Control_c, 0, 64, 80
1, 184195, Note_off_c, 0, 75, 63
1, 184206, Control_c, 0, 64, 78
1, 184213, Note_off_c, 0, 68, 62
1, 184221, Control_c, 0, 64, 76
1, 184236, Control_c, 0, 64, 74
1, 184251, Control_c, 0, 64, 72
1, 184264, Note_on_c, 0, 74, 49
1, 184266, Control_c, 0, 64, 71
1, 184281, Control_c, 0, 64, 71
1, 184296, Control_c, 0, 64, 70
1, 184341, Control_c, 0, 64, 70
1, 184356, Control_c, 0, 64, 69
1, 184371, Control_c, 0, 64, 69
1, 184381, Note_on_c, 0, 75, 44
1, 184385, Control_c, 0, 64, 68
1, 184400, Control_c, 0, 64, 67
1, 184415, Control_c, 0, 64, 67
1, 184429, Control_c, 0, 64, 66
1, 184444, Control_c, 0, 64, 66
1, 184459, Control_c, 0, 64, 65
1, 184466, Note_on_c, 0, 82, 50
1, 184539, Note_off_c, 0, 75, 51
1, 184542, Note_on_c, 0, 58, 75
1, 184555, Control_c, 0, 64, 65
1, 184567, Note_off_c, 0, 74, 41
1, 184570, Control_c, 0, 64, 64
1, 184579, Note_on_c, 0, 79, 57
1, 184585, Control_c, 0, 64, 61
1, 184597, Note_off_c, 0, 82, 65
1, 184600, Control_c, 0, 64, 59
1, 184629, Control_c, 0, 64, 61
1, 184644, Control_c, 0, 64, 63
1, 184659, Control_c, 0, 64, 65
1, 184674, Control_c, 0, 64, 68
1, 184689, Control_c, 0, 64, 72
1, 184703, Control_c, 0, 64, 77
1, 184716, Note_on_c, 0, 76, 56
1, 184718, Control_c, 0, 64, 87
1, 184733, Control_c, 0, 64, 99
1, 184748, Control_c, 0, 64, 127
1, 184752, Note_off_c, 0, 79, 58
1, 184779, Note_off_c, 0, 76, 62
1, 184797, Note_on_c, 0, 72, 59
1, 184825, Note_off_c, 0, 72, 66
1, 184910, Note_on_c, 0, 59, 83
1, 184974, Note_on_c, 0, 68, 60
1, 185000, Control_c, 0, 64, 106
1, 185014, Control_c, 0, 64, 91
1, 185029, Control_c, 0, 64, 81
1, 185044, Control_c, 0, 64, 72
1, 185059, Control_c, 0, 64, 65
1, 185065, Note_on_c, 0, 69, 57
1, 185074, Control_c, 0, 64, 59
1, 185089, Control_c, 0, 64, 57
1, 185098, Note_off_c, 0, 68, 38
1, 185104, Control_c, 0, 64, 58
1, 185178, Control_c, 0, 64, 57
1, 185179, Note_on_c, 0, 77, 54
1, 185185, Note_off_c, 0, 58, 21
1, 185193, Control_c, 0, 64, 57
1, 185208, Control_c, 0, 64, 56
1, 185222, Note_off_c, 0, 69, 53
1, 185223, Control_c, 0, 64, 54
1, 185238, Control_c, 0, 64, 53
1, 185246, Note_on_c, 0, 64, 61
1, 185252, Control_c, 0, 64, 52
1, 185267, Control_c, 0, 64, 51
1, 185280, Note_off_c, 0, 59, 63
1, 185282, Control_c, 0, 64, 49
1, 185297, Control_c, 0, 64, 47
1, 185319, Control_c, 0, 64, 43
1, 185333, Control_c, 0, 64, 36
1, 185348, Control_c, 0, 64, 24
1, 185361, Note_on_c, 0, 59, 67
1, 185363, Control_c, 0, 64, 0
1, 185385, Poly_aftertouch_c, 0, 56, 127
1, 185392, Note_on_c, 0, 73, 54
1, 185422, Note_off_c, 0, 64, 57
1, 185431, Poly_aftertouch_c, 0, 56, 0
1, 185482, Note_off_c, 0, 77, 38
1, 185512, Control_c, 0, 64, 30
1, 185526, Control_c, 0, 64, 43
1, 185539, Note_on_c, 0, 70, 51
1, 185541, Control_c, 0, 64, 51
1, 185556, Control_c, 0, 64, 56
1, 185571, Control_c, 0, 64, 58
1, 185571, Control_c, 0, 67, 122
1, 185586, Control_c, 0, 64, 60
1, 185586, Control_c, 0, 67, 86
1, 185601, Control_c, 0, 64, 61
1, 185601, Control_c, 0, 67, 36
1, 185615, Control_c, 0, 64, 61
1, 185615, Control_c, 0, 67, 0
1, 185650, Note_on_c, 0, 66, 47
1, 185669, Note_off_c, 0, 73, 26
1, 185671, Note_off_c, 0, 70, 58
1, 185704, Control_c, 0, 64, 61
1, 185719, Control_c, 0, 64, 60
1, 185733, Control_c, 0, 64, 60
1, 185736, Note_off_c, 0, 66, 61
1, 185748, Control_c, 0, 64, 59
1, 185751, Note_on_c, 0, 58, 59
1, 185763, Control_c, 0, 64, 58
1, 185778, Control_c, 0, 64, 55
1, 185792, Control_c, 0, 64, 48
1, 185807, Control_c, 0, 64, 42
1, 185822, Control_c, 0, 64, 38
1, 185831, Note_off_c, 0, 59, 63
1, 185837, Control_c, 0, 64, 35
1, 185853, Control_c, 0, 64, 33
1, 185882, Control_c, 0, 66, 127
1, 185912, Control_c, 0, 64, 36
1, 185927, Control_c, 0, 64, 43
1, 185942, Control_c, 0, 64, 52
1, 185956, Control_c, 0, 64, 57
1, 185958, Note_off_c, 0, 58, 64
1, 185965, Note_on_c, 0, 63, 47
1, 185971, Control_c, 0, 64, 60
1, 185976, Note_on_c, 0, 66, 49
1, 185986, Control_c, 0, 64, 62
1, 186001, Control_c, 0, 64, 65
1, 186016, Control_c, 0, 64, 70
1, 186031, Control_c, 0, 64, 76
1, 186046, Control_c, 0, 64, 83
1, 186068, Control_c, 0, 64, 88
1, 186082, Control_c, 0, 64, 91
1, 186097, Control_c, 0, 64, 95
1, 186112, Control_c, 0, 64, 99
1, 186127, Control_c, 0, 64, 102
1, 186142, Control_c, 0, 64, 103
1, 186156, Control_c, 0, 64, 104
1, 186171, Control_c, 0, 64, 106
1, 186179, Note_on_c, 0, 71, 51
1, 186183, Note_off_c, 0, 63, 34
1, 186186, Control_c, 0, 64, 110
1, 186192, Note_on_c, 0, 46, 41
1, 186195, Note_on_c, 0, 39, 48
1, 186199, Note_on_c, 0, 68, 45
1, 186201, Control_c, 0, 64, 121
1, 186216, Note_off_c, 0, 66, 56
1, 186216, Control_c, 0, 64, 127
1, 186231, Note_off_c, 0, 68, 56
1, 186249, Note_off_c, 0, 71, 63
1, 186389, Note_off_c, 0, 39, 58
1, 186394, Note_off_c, 0, 46, 60
1, 186442, Note_on_c, 0, 77, 53
1, 186466, Note_on_c, 0, 73, 56
1, 186560, Note_on_c, 0, 70, 61
1, 186690, Note_on_c, 0, 56, 68
1, 186774, Note_off_c, 0, 77, 52
1, 186861, Control_c, 0, 66, 0
1, 186870, Note_on_c, 0, 61, 80
1, 187027, Note_off_c, 0, 70, 33
1, 187065, Note_off_c, 0, 56, 61
1, 187121, Note_on_c, 0, 66, 73
1, 187138, Note_off_c, 0, 61, 62
1, 187149, Note_off_c, 0, 73, 30
1, 187193, Note_off_c, 0, 66, 61
1, 187208, Note_on_c, 0, 59, 75
1, 187231, Control_c, 0, 64, 86
1, 187238, Note_on_c, 0, 51, 70
1, 187246, Control_c, 0, 64, 64
1, 187261, Control_c, 0, 64, 41
1, 187276, Control_c, 0, 64, 42
1, 187291, Control_c, 0, 64, 55
1, 187305, Control_c, 0, 64, 62
1, 187320, Control_c, 0, 64, 71
1, 187335, Note_off_c, 0, 59, 63
1, 187335, Control_c, 0, 64, 88
1, 187350, Control_c, 0, 64, 127
1, 187369, Note_on_c, 0, 75, 87
1, 187389, Note_on_c, 0, 66, 47
1, 187392, Note_off_c, 0, 51, 64
1, 187427, Note_off_c, 0, 66, 54
1, 187577, Note_on_c, 0, 71, 62
1, 187583, Note_on_c, 0, 27, 59
1, 187585, Note_on_c, 0, 80, 83
1, 187609, Note_on_c, 0, 78, 61
1, 187628, Note_off_c, 0, 78, 62
1, 187629, Note_off_c, 0, 71, 62
1, 187639, Note_off_c, 0, 27, 57
1, 187660, Note_off_c, 0, 75, 61
1, 187711, Note_off_c, 0, 80, 63
1, 187841, Note_on_c, 0, 85, 84
1, 187852, Note_on_c, 0, 77, 74
1, 187901, Note_off_c, 0, 85, 65
1, 187949, Note_on_c, 0, 70, 75
1, 187978, Note_on_c, 0, 82, 14
1, 188018, Note_off_c, 0, 82, 54
1, 188028, Note_off_c, 0, 77, 52
1, 188078, Note_off_c, 0, 70, 63
1, 188091, Note_on_c, 0, 63, 83
1, 188290, Note_on_c, 0, 68, 86
1, 188574, Note_on_c, 0, 73, 76
1, 188678, Note_off_c, 0, 63, 57
1, 188684, Control_c, 0, 64, 97
1, 188699, Control_c, 0, 64, 80
1, 188705, Note_on_c, 0, 66, 70
1, 188712, Note_off_c, 0, 73, 58
1, 188714, Control_c, 0, 64, 67
1, 188729, Control_c, 0, 64, 56
1, 188744, Control_c, 0, 64, 0
1, 188812, Note_off_c, 0, 68, 57
1, 188833, Control_c, 0, 66, 127
1, 188842, Note_on_c, 0, 62, 52
1, 188922, Control_c, 0, 64, 40
1, 188937, Control_c, 0, 64, 56
1, 188951, Control_c, 0, 64, 63
1, 188966, Control_c, 0, 64, 67
1, 188981, Control_c, 0, 64, 71
1, 188986, Note_on_c, 0, 70, 50
1, 188995, Control_c, 0, 64, 79
1, 189010, Control_c, 0, 64, 84
1, 189018, Note_off_c, 0, 62, 56
1, 189025, Control_c, 0, 64, 87
1, 189048, Control_c, 0, 64, 90
1, 189063, Control_c, 0, 64, 91
1, 189087, Note_off_c, 0, 66, 59
1, 189094, Note_on_c, 0, 82, 78
1, 189094, Note_off_c, 0, 70, 58
1, 189120, Note_on_c, 0, 73, 47
1, 189149, Note_off_c, 0, 73, 60
1, 189226, Note_on_c, 0, 77, 41
1, 189252, Note_off_c, 0, 77, 49
1, 189318, Note_on_c, 0, 69, 56
1, 189345, Control_c, 0, 64, 90
1, 189360, Control_c, 0, 64, 88
1, 189374, Control_c, 0, 64, 86
1, 189389, Control_c, 0, 64, 85
1, 189400, Note_off_c, 0, 69, 61
1, 189404, Control_c, 0, 64, 84
1, 189433, Control_c, 0, 64, 83
1, 189444, Note_on_c, 0, 68, 45
1, 189448, Control_c, 0, 64, 77
1, 189463, Control_c, 0, 64, 67
1, 189468, Note_on_c, 0, 83, 73
1, 189478, Control_c, 0, 64, 57
1, 189492, Control_c, 0, 64, 37
1, 189507, Control_c, 0, 64, 28
1, 189522, Control_c, 0, 64, 32
1, 189537, Control_c, 0, 64, 43
1, 189552, Control_c, 0, 64, 55
1, 189563, Note_off_c, 0, 82, 53
1, 189567, Control_c, 0, 64, 60
1, 189581, Control_c, 0, 64, 64
1, 189596, Control_c, 0, 64, 67
1, 189608, Note_on_c, 0, 72, 34
1, 189611, Control_c, 0, 64, 71
1, 189626, Control_c, 0, 64, 78
1, 189641, Control_c, 0, 64, 84
1, 189656, Control_c, 0, 64, 85
1, 189671, Control_c, 0, 64, 86
1, 189692, Note_on_c, 0, 76, 44
1, 189727, Note_off_c, 0, 68, 25
1, 189730, Control_c, 0, 64, 86
1, 189739, Note_off_c, 0, 72, 35
1, 189754, Note_off_c, 0, 83, 60
1, 189760, Control_c, 0, 64, 87
1, 189760, Note_on_c, 0, 88, 64
1, 189781, Note_off_c, 0, 76, 64
1, 189789, Control_c, 0, 64, 87
1, 189822, Note_on_c, 0, 79, 45
1, 189826, Control_c, 0, 64, 88
1, 189857, Control_c, 0, 64, 87
1, 189867, Note_on_c, 0, 83, 64
1, 189886, Control_c, 0, 64, 86
1, 189901, Control_c, 0, 64, 85
1, 189916, Control_c, 0, 64, 86
1, 189916, Control_c, 0, 66, 0
1, 189972, Note_on_c, 0, 82, 51
1, 190005, Note_off_c, 0, 79, 41
1, 190059, Note_off_c, 0, 82, 64
1, 190070, Note_on_c, 0, 75, 53
1, 190079, Control_c, 0, 64, 87
1, 190091, Note_off_c, 0, 75, 61
1, 190109, Control_c, 0, 64, 86
1, 190123, Control_c, 0, 64, 86
1, 190138, Control_c, 0, 67, 28
1, 190153, Control_c, 0, 64, 85
1, 190153, Control_c, 0, 67, 80
1, 190168, Control_c, 0, 64, 85
1, 190168, Control_c, 0, 67, 127
1, 190183, Control_c, 0, 64, 84
1, 190197, Control_c, 0, 64, 83
1, 190212, Control_c, 0, 64, 82
1, 190227, Control_c, 0, 64, 81
1, 190241, Control_c, 0, 64, 80
1, 190256, Control_c, 0, 64, 78
1, 190271, Control_c, 0, 64, 76
1, 190279, Note_on_c, 0, 82, 59
1, 190286, Control_c, 0, 64, 75
1, 190301, Control_c, 0, 64, 74
1, 190303, Note_on_c, 0, 55, 34
1, 190315, Control_c, 0, 64, 72
1, 190323, Note_off_c, 0, 83, 59
1, 190330, Control_c, 0, 64, 69
1, 190345, Control_c, 0, 64, 63
1, 190360, Control_c, 0, 64, 50
1, 190375, Control_c, 0, 64, 0
1, 190425, Note_on_c, 0, 58, 45
1, 190449, Control_c, 0, 64, 23
1, 190464, Control_c, 0, 64, 40
1, 190468, Note_off_c, 0, 88, 27
1, 190478, Control_c, 0, 64, 52
1, 190493, Control_c, 0, 64, 58
1, 190508, Control_c, 0, 64, 61
1, 190523, Control_c, 0, 64, 63
1, 190538, Control_c, 0, 64, 64
1, 190551, Note_off_c, 0, 55, 44
1, 190559, Note_on_c, 0, 62, 45
1, 190560, Control_c, 0, 64, 65
1, 190568, Note_off_c, 0, 58, 48
1, 190575, Control_c, 0, 64, 66
1, 190590, Control_c, 0, 64, 67
1, 190619, Control_c, 0, 64, 68
1, 190628, Note_off_c, 0, 62, 59
1, 190673, Note_on_c, 0, 65, 42
1, 190694, Control_c, 0, 64, 68
1, 190709, Control_c, 0, 64, 69
1, 190724, Control_c, 0, 64, 69
1, 190736, Note_off_c, 0, 65, 50
1, 190739, Control_c, 0, 64, 70
1, 190753, Control_c, 0, 64, 71
1, 190768, Control_c, 0, 64, 73
1, 190783, Control_c, 0, 64, 74
1, 190787, Note_on_c, 0, 69, 48
1, 190798, Control_c, 0, 64, 74
1, 190813, Control_c, 0, 64, 75
1, 190828, Note_off_c, 0, 69, 60
1, 190842, Control_c, 0, 64, 76
1, 190887, Control_c, 0, 64, 75
1, 190902, Control_c, 0, 64, 75
1, 190917, Note_on_c, 0, 79, 44
1, 190932, Control_c, 0, 64, 74
1, 190942, Note_off_c, 0, 82, 58
1, 190946, Control_c, 0, 64, 74
1, 190949, Poly_aftertouch_c, 0, 61, 127
1, 190961, Control_c, 0, 64, 73
1, 190972, Note_on_c, 0, 88, 47
1, 190976, Control_c, 0, 64, 70
1, 190991, Control_c, 0, 64, 66
1, 190994, Poly_aftertouch_c, 0, 61, 0
1, 191006, Control_c, 0, 64, 60
1, 191020, Control_c, 0, 64, 52
1, 191035, Control_c, 0, 64, 38
1, 191037, Note_on_c, 0, 60, 40
1, 191050, Control_c, 0, 64, 30
1, 191054, Note_off_c, 0, 88, 57
1, 191057, Note_on_c, 0, 87, 53
1, 191079, Control_c, 0, 64, 34
1, 191094, Control_c, 0, 64, 42
1, 191109, Control_c, 0, 64, 50
1, 191124, Control_c, 0, 64, 56
1, 191138, Control_c, 0, 64, 59
1, 191153, Control_c, 0, 64, 61
1, 191168, Control_c, 0, 64, 63
1, 191183, Control_c, 0, 64, 65
1, 191198, Control_c, 0, 64, 68
1, 191201, Note_off_c, 0, 79, 58
1, 191202, Note_on_c, 0, 64, 42
1, 191212, Control_c, 0, 64, 71
1, 191227, Control_c, 0, 64, 75
1, 191242, Control_c, 0, 64, 77
1, 191257, Control_c, 0, 64, 78
1, 191320, Note_off_c, 0, 87, 64
1, 191340, Note_on_c, 0, 68, 44
1, 191367, Note_off_c, 0, 60, 59
1, 191399, Note_off_c, 0, 64, 34
1, 191415, Note_off_c, 0, 68, 57
1, 191440, Note_on_c, 0, 71, 47
1, 191488, Control_c, 0, 64, 78
1, 191517, Control_c, 0, 64, 79
1, 191547, Control_c, 0, 64, 79
1, 191560, Note_off_c, 0, 71, 58
1, 191582, Note_on_c, 0, 75, 51
1, 191585, Note_on_c, 0, 86, 52
1, 191606, Control_c, 0, 64, 80
1, 191621, Control_c, 0, 64, 81
1, 191634, Note_off_c, 0, 86, 45
1, 191636, Control_c, 0, 64, 81
1, 191641, Note_on_c, 0, 87, 58
1, 191650, Control_c, 0, 64, 82
1, 191659, Note_on_c, 0, 67, 55
1, 191665, Control_c, 0, 64, 84
1, 191680, Control_c, 0, 64, 85
1, 191705, Note_on_c, 0, 90, 52
1, 191715, Note_off_c, 0, 87, 63
1, 191722, Note_off_c, 0, 67, 60
1, 191724, Control_c, 0, 64, 84
1, 191730, Note_off_c, 0, 90, 55
1, 191739, Control_c, 0, 64, 84
1, 191754, Control_c, 0, 64, 83
1, 191756, Note_on_c, 0, 95, 66
1, 191769, Control_c, 0, 64, 82
1, 191783, Note_off_c, 0, 75, 33
1, 191784, Control_c, 0, 64, 81
1, 191799, Control_c, 0, 64, 80
1, 191811, Note_on_c, 0, 66, 68
1, 191814, Control_c, 0, 64, 79
1, 191829, Control_c, 0, 64, 76
1, 191831, Note_on_c, 0, 94, 70
1, 191838, Note_off_c, 0, 95, 58
1, 191843, Control_c, 0, 64, 73
1, 191858, Control_c, 0, 64, 69
1, 191873, Control_c, 0, 64, 66
1, 191888, Control_c, 0, 64, 64
1, 191892, Note_on_c, 0, 92, 64
1, 191902, Control_c, 0, 64, 63
1, 191923, Note_off_c, 0, 94, 57
1, 191932, Control_c, 0, 64, 62
1, 191947, Control_c, 0, 64, 62
1, 191951, Note_on_c, 0, 93, 62
1, 191954, Note_off_c, 0, 92, 65
1, 191957, Note_on_c, 0, 70, 72
1, 191976, Control_c, 0, 64, 61
1, 191984, Note_off_c, 0, 93, 67
1, 191991, Note_on_c, 0, 89, 64
1, 191991, Control_c, 0, 64, 61
1, 192001, Note_off_c, 0, 66, 58
1, 192006, Control_c, 0, 64, 60
1, 192043, Control_c, 0, 64, 60
1, 192048, Note_off_c, 0, 89, 62
1, 192049, Note_on_c, 0, 90, 71
1, 192072, Note_on_c, 0, 74, 67
1, 192073, Control_c, 0, 64, 59
1, 192097, Note_on_c, 0, 92, 74
1, 192102, Control_c, 0, 64, 58
1, 192106, Note_off_c, 0, 90, 63
1, 192111, Note_off_c, 0, 70, 63
1, 192117, Control_c, 0, 64, 58
1, 192145, Note_off_c, 0, 74, 62
1, 192161, Note_on_c, 0, 77, 72
1, 192162, Control_c, 0, 64, 57
1, 192177, Note_on_c, 0, 91, 41
1, 192201, Note_off_c, 0, 91, 48
1, 192210, Note_on_c, 0, 90, 77
1, 192220, Control_c, 0, 64, 57
1, 192222, Note_off_c, 0, 92, 65
1, 192267, Control_c, 0, 64, 56
1, 192270, Note_on_c, 0, 81, 72
1, 192272, Note_off_c, 0, 90, 64
1, 192277, Note_on_c, 0, 91, 74
1, 192281, Control_c, 0, 64, 56
1, 192292, Note_on_c, 0, 87, 57
1, 192296, Control_c, 0, 64, 52
1, 192298, Note_off_c, 0, 77, 57
1, 192311, Control_c, 0, 64, 44
1, 192320, Note_off_c, 0, 87, 52
1, 192325, Control_c, 0, 64, 24
1, 192340, Note_on_c, 0, 88, 70
1, 192340, Control_c, 0, 64, 0
1, 192342, Note_off_c, 0, 91, 63
1, 192362, Note_on_c, 0, 73, 71
1, 192376, Note_off_c, 0, 88, 60
1, 192399, Control_c, 0, 67, 122
1, 192403, Note_on_c, 0, 89, 77
1, 192414, Control_c, 0, 67, 98
1, 192429, Control_c, 0, 67, 69
1, 192444, Control_c, 0, 67, 39
1, 192457, Note_off_c, 0, 81, 61
1, 192459, Control_c, 0, 67, 11
1, 192462, Note_off_c, 0, 89, 63
1, 192473, Control_c, 0, 67, 0
1, 192480, Note_on_c, 0, 72, 68
1, 192487, Note_on_c, 0, 97, 76
1, 192521, Note_on_c, 0, 95, 70
1, 192577, Note_off_c, 0, 95, 65
1, 192577, Control_c, 0, 64, 22
1, 192579, Note_on_c, 0, 96, 72
1, 192592, Control_c, 0, 64, 29
1, 192601, Note_on_c, 0, 76, 70
1, 192607, Control_c, 0, 64, 34
1, 192611, Note_on_c, 0, 92, 73
1, 192613, Note_off_c, 0, 97, 42
1, 192616, Note_off_c, 0, 96, 63
1, 192622, Control_c, 0, 64, 38
1, 192637, Control_c, 0, 64, 40
1, 192651, Control_c, 0, 64, 41
1, 192654, Note_on_c, 0, 94, 82
1, 192661, Note_off_c, 0, 92, 63
1, 192677, Note_off_c, 0, 94, 68
1, 192690, Note_on_c, 0, 93, 71
1, 192708, Note_on_c, 0, 80, 67
1, 192729, Note_on_c, 0, 94, 86
1, 192729, Note_off_c, 0, 93, 64
1, 192770, Control_c, 0, 64, 41
1, 192779, Note_off_c, 0, 72, 59
1, 192785, Control_c, 0, 64, 44
1, 192787, Note_off_c, 0, 73, 44
1, 192801, Note_off_c, 0, 94, 61
1, 192802, Note_on_c, 0, 95, 82
1, 192807, Control_c, 0, 64, 49
1, 192813, Note_off_c, 0, 76, 62
1, 192821, Control_c, 0, 64, 53
1, 192833, Note_on_c, 0, 83, 69
1, 192833, Note_off_c, 0, 80, 63
1, 192836, Control_c, 0, 64, 57
1, 192851, Control_c, 0, 64, 61
1, 192857, Note_on_c, 0, 93, 69
1, 192866, Note_off_c, 0, 95, 66
1, 192866, Control_c, 0, 64, 64
1, 192881, Control_c, 0, 64, 67
1, 192896, Control_c, 0, 64, 70
1, 192896, Note_off_c, 0, 83, 60
1, 192902, Note_on_c, 0, 94, 76
1, 192911, Note_off_c, 0, 93, 66
1, 192911, Control_c, 0, 64, 76
1, 192925, Control_c, 0, 64, 81
1, 192940, Control_c, 0, 64, 85
1, 192944, Note_on_c, 0, 90, 76
1, 192945, Note_on_c, 0, 87, 69
1, 192955, Control_c, 0, 64, 87
1, 192981, Note_off_c, 0, 94, 61
1, 192982, Note_off_c, 0, 90, 65
1, 192999, Note_on_c, 0, 91, 76
1, 192999, Control_c, 0, 64, 86
1, 193005, Note_off_c, 0, 87, 65
1, 193016, Note_on_c, 0, 81, 63
1, 193043, Note_off_c, 0, 81, 68
1, 193061, Note_off_c, 0, 91, 64
1, 193062, Note_on_c, 0, 93, 72
1, 193074, Control_c, 0, 64, 86
1, 193089, Control_c, 0, 64, 85
1, 193104, Control_c, 0, 64, 83
1, 193119, Control_c, 0, 64, 76
1, 193130, Note_on_c, 0, 81, 74
1, 193134, Control_c, 0, 64, 65
1, 193147, Note_on_c, 0, 78, 71
1, 193148, Control_c, 0, 64, 55
1, 193163, Control_c, 0, 64, 47
1, 193178, Control_c, 0, 64, 46
1, 193185, Note_on_c, 0, 91, 6
1, 193208, Control_c, 0, 64, 48
1, 193210, Note_on_c, 0, 76, 68
1, 193215, Note_off_c, 0, 78, 59
1, 193222, Control_c, 0, 64, 52
1, 193237, Control_c, 0, 64, 55
1, 193250, Note_off_c, 0, 76, 61
1, 193252, Control_c, 0, 64, 58
1, 193266, Control_c, 0, 64, 60
1, 193272, Note_on_c, 0, 77, 68
1, 193281, Control_c, 0, 64, 61
1, 193282, Note_on_c, 0, 84, 81
1, 193296, Control_c, 0, 64, 62
1, 193311, Control_c, 0, 64, 63
1, 193319, Note_off_c, 0, 81, 60
1, 193325, Note_on_c, 0, 73, 64
1, 193331, Note_off_c, 0, 77, 64
1, 193340, Control_c, 0, 64, 63
1, 193370, Control_c, 0, 64, 63
1, 193379, Note_off_c, 0, 91, 41
1, 193382, Note_off_c, 0, 73, 65
1, 193385, Note_off_c, 0, 93, 43
1, 193385, Control_c, 0, 64, 62
1, 193387, Note_on_c, 0, 74, 72
1, 193391, Note_on_c, 0, 88, 78
1, 193400, Control_c, 0, 64, 61
1, 193413, Note_off_c, 0, 84, 61
1, 193415, Control_c, 0, 64, 61
1, 193465, Note_on_c, 0, 76, 73
1, 193472, Control_c, 0, 64, 61
1, 193480, Note_on_c, 0, 91, 89
1, 193483, Note_off_c, 0, 74, 60
1, 193487, Control_c, 0, 64, 62
1, 193502, Control_c, 0, 64, 63
1, 193509, Note_on_c, 0, 75, 74
1, 193513, Note_off_c, 0, 88, 60
1, 193517, Control_c, 0, 64, 64
1, 193532, Control_c, 0, 64, 65
1, 193533, Note_off_c, 0, 76, 62
1, 193554, Control_c, 0, 64, 69
1, 193569, Control_c, 0, 64, 73
1, 193584, Control_c, 0, 64, 80
1, 193591, Note_on_c, 0, 72, 60
1, 193599, Control_c, 0, 64, 90
1, 193600, Note_on_c, 0, 94, 85
1, 193614, Control_c, 0, 64, 103
1, 193628, Control_c, 0, 64, 127
1, 193637, Note_off_c, 0, 75, 56
1, 193641, Note_off_c, 0, 72, 62
1, 193642, Note_on_c, 0, 73, 78
1, 193692, Note_off_c, 0, 73, 64
1, 193705, Note_on_c, 0, 87, 82
1, 193707, Note_off_c, 0, 91, 59
1, 193746, Note_off_c, 0, 94, 62
1, 193762, Note_on_c, 0, 74, 51
1, 193784, Note_off_c, 0, 74, 61
1, 193791, Control_c, 0, 64, 100
1, 193792, Note_off_c, 0, 87, 65
1, 193806, Control_c, 0, 64, 77
1, 193814, Note_on_c, 0, 86, 95
1, 193816, Note_on_c, 0, 83, 71
1, 193820, Control_c, 0, 64, 63
1, 193836, Control_c, 0, 64, 42
1, 193851, Control_c, 0, 64, 31
1, 193856, Note_off_c, 0, 83, 64
1, 193866, Control_c, 0, 64, 32
1, 193874, Note_on_c, 0, 81, 69
1, 193881, Control_c, 0, 64, 38
1, 193895, Control_c, 0, 64, 47
1, 193910, Control_c, 0, 64, 53
1, 193925, Control_c, 0, 64, 57
1, 193939, Note_on_c, 0, 90, 84
1, 193939, Note_off_c, 0, 81, 64
1, 193940, Control_c, 0, 64, 60
1, 193955, Control_c, 0, 64, 62
1, 193959, Note_on_c, 0, 82, 78
1, 193969, Control_c, 0, 64, 63
1, 193984, Control_c, 0, 64, 65
1, 193985, Note_on_c, 0, 78, 56
1, 193999, Control_c, 0, 64, 68
1, 194014, Note_off_c, 0, 82, 55
1, 194014, Control_c, 0, 64, 73
1, 194029, Control_c, 0, 64, 80
1, 194037, Note_on_c, 0, 80, 76
1, 194039, Note_off_c, 0, 78, 59
1, 194044, Control_c, 0, 64, 87
1, 194050, Note_on_c, 0, 94, 94
1, 194059, Control_c, 0, 64, 93
1, 194073, Control_c, 0, 64, 97
1, 194088, Control_c, 0, 64, 97
1, 194092, Note_off_c, 0, 90, 64
1, 194104, Note_off_c, 0, 86, 59
1, 194127, Note_off_c, 0, 80, 63
1, 194127, Note_on_c, 0, 81, 73
1, 194133, Control_c, 0, 64, 98
1, 194148, Control_c, 0, 64, 100
1, 194162, Control_c, 0, 64, 104
1, 194167, Note_on_c, 0, 97, 94
1, 194172, Note_off_c, 0, 81, 64
1, 194175, Note_on_c, 0, 82, 75
1, 194177, Control_c, 0, 64, 113
1, 194192, Control_c, 0, 64, 127
1, 194216, Note_on_c, 0, 80, 64
1, 194223, Note_off_c, 0, 94, 60
1, 194233, Note_off_c, 0, 82, 62
1, 194292, Note_on_c, 0, 81, 65
1, 194300, Note_on_c, 0, 100, 85
1, 194322, Note_off_c, 0, 81, 66
1, 194327, Poly_aftertouch_c, 0, 95, 127
1, 194342, Note_on_c, 0, 77, 63
1, 194360, Poly_aftertouch_c, 0, 95, 0
1, 194369, Note_off_c, 0, 80, 35
1, 194388, Note_off_c, 0, 77, 60
1, 194391, Note_on_c, 0, 78, 73
1, 194400, Note_on_c, 0, 93, 77
1, 194408, Note_off_c, 0, 100, 66
1, 194416, Note_off_c, 0, 97, 63
1, 194433, Note_on_c, 0, 79, 63
1, 194440, Note_off_c, 0, 78, 66
1, 194440, Note_off_c, 0, 93, 65
1, 194449, Note_off_c, 0, 79, 67
1, 194496, Control_c, 0, 64, 117
1, 194511, Control_c, 0, 64, 76
1, 194526, Control_c, 0, 64, 60
1, 194541, Control_c, 0, 64, 39
1, 194544, Note_on_c, 0, 82, 73
1, 194553, Note_on_c, 0, 76, 78
1, 194556, Control_c, 0, 64, 46
1, 194557, Note_on_c, 0, 92, 75
1, 194558, Note_on_c, 0, 64, 69
1, 194570, Control_c, 0, 64, 54
1, 194575, Note_off_c, 0, 82, 64
1, 194581, Note_off_c, 0, 76, 66
1, 194585, Control_c, 0, 64, 60
1, 194599, Note_off_c, 0, 64, 59
1, 194600, Control_c, 0, 64, 64
1, 194613, Note_on_c, 0, 83, 69
1, 194615, Control_c, 0, 64, 69
1, 194630, Control_c, 0, 64, 78
1, 194646, Control_c, 0, 64, 102
1, 194655, Note_off_c, 0, 83, 62
1, 194657, Note_off_c, 0, 92, 61
1, 194660, Control_c, 0, 64, 127
1, 194692, Note_on_c, 0, 66, 66
1, 194692, Note_on_c, 0, 76, 67
1, 194692, Note_on_c, 0, 84, 75
1, 194701, Note_on_c, 0, 91, 47
1, 194720, Note_off_c, 0, 76, 67
1, 194730, Note_off_c, 0, 66, 59
1, 194730, Note_off_c, 0, 84, 51
1, 194758, Note_on_c, 0, 85, 70
1, 194759, Note_off_c, 0, 91, 56
1, 194784, Note_off_c, 0, 85, 69
1, 194785, Note_on_c, 0, 90, 72
1, 194796, Note_on_c, 0, 76, 75
1, 194807, Note_on_c, 0, 86, 72
1, 194825, Note_on_c, 0, 67, 50
1, 194829, Note_on_c, 0, 64, 11
1, 194837, Note_off_c, 0, 76, 61
1, 194838, Note_off_c, 0, 86, 62
1, 194857, Note_off_c, 0, 67, 64
1, 194860, Note_off_c, 0, 64, 48
1, 194864, Note_on_c, 0, 87, 72
1, 194875, Note_off_c, 0, 90, 61
1, 194908, Note_on_c, 0, 76, 89
1, 194908, Note_on_c, 0, 68, 85
1, 194909, Note_on_c, 0, 88, 85
1, 194912, Note_off_c, 0, 87, 58
1, 194920, Note_on_c, 0, 90, 44
1, 194921, Note_on_c, 0, 64, 71
1, 194925, Note_on_c, 0, 89, 49
1, 194951, Note_off_c, 0, 64, 62
1, 194956, Note_off_c, 0, 76, 63
1, 194966, Note_off_c, 0, 68, 63
1, 194968, Note_off_c, 0, 90, 48
1, 194972, Note_off_c, 0, 88, 61
1, 194996, Note_on_c, 0, 86, 64
1, 195003, Note_off_c, 0, 89, 30
1, 195025, Note_on_c, 0, 76, 79
1, 195047, Note_on_c, 0, 69, 56
1, 195048, Note_on_c, 0, 90, 51
1, 195050, Note_on_c, 0, 64, 62
1, 195069, Note_off_c, 0, 69, 63
1, 195080, Note_off_c, 0, 64, 65
1, 195084, Note_off_c, 0, 86, 64
1, 195102, Note_off_c, 0, 90, 45
1, 195108, Note_on_c, 0, 85, 83
1, 195114, Note_off_c, 0, 76, 58
1, 195146, Note_on_c, 0, 84, 67
1, 195162, Note_on_c, 0, 71, 73
1, 195162, Note_off_c, 0, 85, 64
1, 195166, Note_on_c, 0, 64, 46
1, 195178, Note_on_c, 0, 68, 49
1, 195188, Note_off_c, 0, 71, 66
1, 195191, Note_off_c, 0, 64, 57
1, 195200, Control_c, 0, 64, 80
1, 195211, Note_off_c, 0, 68, 61
1, 195215, Control_c, 0, 64, 68
1, 195218, Note_off_c, 0, 84, 65
1, 195219, Note_on_c, 0, 87, 19
1, 195230, Control_c, 0, 64, 67
1, 195240, Note_on_c, 0, 92, 93
1, 195245, Control_c, 0, 64, 73
1, 195248, Note_off_c, 0, 87, 32
1, 195255, Note_on_c, 0, 82, 91
1, 195259, Note_on_c, 0, 64, 87
1, 195259, Note_on_c, 0, 71, 90
1, 195260, Control_c, 0, 64, 85
1, 195275, Control_c, 0, 64, 127
1, 195297, Note_off_c, 0, 71, 60
1, 195309, Note_off_c, 0, 64, 58
1, 195312, Note_off_c, 0, 82, 64
1, 195324, Note_on_c, 0, 83, 70
1, 195330, Note_off_c, 0, 92, 60
1, 195371, Note_off_c, 0, 83, 55
1, 195382, Note_on_c, 0, 72, 90
1, 195385, Note_on_c, 0, 64, 76
1, 195388, Note_on_c, 0, 91, 71
1, 195391, Note_on_c, 0, 84, 79
1, 195421, Note_off_c, 0, 72, 62
1, 195421, Note_off_c, 0, 64, 63
1, 195439, Note_off_c, 0, 84, 63
1, 195457, Note_on_c, 0, 85, 80
1, 195472, Poly_aftertouch_c, 0, 70, 127
1, 195477, Note_off_c, 0, 91, 64
1, 195499, Note_on_c, 0, 73, 97
1, 195502, Note_off_c, 0, 85, 64
1, 195508, Note_on_c, 0, 64, 75
1, 195509, Note_on_c, 0, 90, 63
1, 195511, Note_on_c, 0, 86, 80
1, 195534, Note_off_c, 0, 64, 65
1, 195547, Note_off_c, 0, 73, 60
1, 195558, Note_off_c, 0, 86, 64
1, 195562, Note_on_c, 0, 87, 85
1, 195564, Poly_aftertouch_c, 0, 70, 0
1, 195571, Note_on_c, 0, 67, 19
1, 195585, Note_off_c, 0, 90, 63
1, 195602, Note_off_c, 0, 67, 0
1, 195615, Note_on_c, 0, 74, 109
1, 195618, Note_on_c, 0, 64, 94
1, 195618, Poly_aftertouch_c, 0, 67, 0
1, 195624, Note_on_c, 0, 88, 92
1, 195626, Note_on_c, 0, 90, 66
1, 195632, Note_on_c, 0, 89, 54
1, 195633, Note_off_c, 0, 87, 58
1, 195648, Note_on_c, 0, 67, 4
1, 195659, Note_off_c, 0, 74, 61
1, 195675, Note_on_c, 0, 65, 22
1, 195677, Note_off_c, 0, 64, 60
1, 195689, Note_off_c, 0, 88, 63
1, 195699, Note_off_c, 0, 89, 38
1, 195701, Note_on_c, 0, 86, 78
1, 195719, Note_on_c, 0, 64, 69
1, 195737, Note_on_c, 0, 75, 99
1, 195744, Note_off_c, 0, 65, 0
1, 195758, Note_on_c, 0, 65, 31
1, 195777, Note_off_c, 0, 64, 64
1, 195801, Note_off_c, 0, 75, 63
1, 195804, Note_off_c, 0, 65, 45
1, 195825, Note_off_c, 0, 67, 37
1, 195851, Note_off_c, 0, 86, 62
1, 195852, Note_on_c, 0, 63, 75
1, 195863, Note_on_c, 0, 76, 93
1, 195868, Note_off_c, 0, 63, 67
1, 195881, Note_on_c, 0, 84, 79
1, 195888, Note_on_c, 0, 64, 66
1, 195935, Note_off_c, 0, 90, 38
1, 195937, Note_on_c, 0, 83, 93
1, 195948, Note_off_c, 0, 76, 62
1, 195951, Poly_aftertouch_c, 0, 91, 0
1, 195976, Note_on_c, 0, 87, 53
1, 195992, Note_on_c, 0, 70, 70
1, 195996, Note_off_c, 0, 84, 62
1, 195999, Note_off_c, 0, 83, 61
1, 196009, Note_off_c, 0, 87, 66
1, 196023, Control_c, 0, 64, 80
1, 196038, Control_c, 0, 64, 54
1, 196041, Poly_aftertouch_c, 0, 67, 0
1, 196047, Note_on_c, 0, 77, 115
1, 196053, Control_c, 0, 64, 0
1, 196056, Note_on_c, 0, 82, 116
1, 196056, Note_on_c, 0, 92, 71
1, 196066, Note_on_c, 0, 90, 87
1, 196068, Note_on_c, 0, 65, 57
1, 196087, Note_off_c, 0, 64, 60
1, 196091, Note_off_c, 0, 82, 68
1, 196097, Control_c, 0, 64, 37
1, 196100, Note_on_c, 0, 81, 33
1, 196101, Note_off_c, 0, 81, 127
1, 196112, Control_c, 0, 64, 63
1, 196127, Control_c, 0, 64, 75
1, 196129, Note_off_c, 0, 90, 57
1, 196138, Note_on_c, 0, 68, 15
1, 196142, Control_c, 0, 64, 127
1, 196151, Poly_aftertouch_c, 0, 66, 127
1, 196157, Note_on_c, 0, 82, 103
1, 196181, Note_off_c, 0, 65, 59
1, 196192, Note_off_c, 0, 82, 66
1, 196197, Note_on_c, 0, 90, 14
1, 196253, Note_off_c, 0, 90, 38
1, 196255, Note_on_c, 0, 82, 99
1, 196292, Note_off_c, 0, 77, 56
1, 196292, Note_off_c, 0, 82, 64
1, 196308, Poly_aftertouch_c, 0, 66, 0
1, 196330, Note_off_c, 0, 70, 54
1, 196341, Note_off_c, 0, 68, 42
1, 196352, Note_on_c, 0, 82, 100
1, 196381, Note_off_c, 0, 92, 64
1, 196446, Note_off_c, 0, 82, 58
1, 196659, Note_on_c, 0, 79, 76
1, 196758, Note_on_c, 0, 80, 65
1, 196804, Note_off_c, 0, 79, 53
1, 196849, Note_off_c, 0, 80, 64
1, 196852, Note_on_c, 0, 91, 104
1, 196852, Note_on_c, 0, 83, 75
1, 196923, Note_off_c, 0, 83, 65
1, 196935, Note_off_c, 0, 91, 61
1, 196938, Note_on_c, 0, 94, 98
1, 196961, Note_on_c, 0, 90, 54
1, 196983, Note_off_c, 0, 90, 39
1, 197002, Note_on_c, 0, 92, 74
1, 197006, Note_off_c, 0, 94, 63
1, 197021, Note_on_c, 0, 85, 86
1, 197032, Note_off_c, 0, 92, 67
1, 197040, Control_c, 0, 64, 80
1, 197042, Note_off_c, 0, 85, 70
1, 197055, Control_c, 0, 64, 57
1, 197057, Note_on_c, 0, 91, 48
1, 197058, Note_off_c, 0, 91, 127
1, 197069, Control_c, 0, 64, 0
1, 197084, Control_c, 0, 64, 30
1, 197087, Note_on_c, 0, 94, 114
1, 197091, Note_on_c, 0, 82, 109
1, 197099, Control_c, 0, 64, 54
1, 197114, Control_c, 0, 64, 62
1, 197117, Note_off_c, 0, 94, 66
1, 197129, Control_c, 0, 64, 70
1, 197130, Note_off_c, 0, 82, 66
1, 197144, Control_c, 0, 64, 94
1, 197159, Control_c, 0, 64, 127
1, 197240, Note_on_c, 0, 82, 97
1, 197272, Note_off_c, 0, 82, 62
1, 197334, Note_on_c, 0, 82, 84
1, 197365, Note_off_c, 0, 82, 62
1, 197409, Note_on_c, 0, 82, 87
1, 197453, Note_off_c, 0, 82, 67
1, 197502, Note_on_c, 0, 76, 115
1, 197525, Note_off_c, 0, 76, 68
1, 197573, Note_on_c, 0, 79, 79
1, 197603, Note_on_c, 0, 76, 100
1, 197629, Note_off_c, 0, 79, 60
1, 197632, Note_off_c, 0, 76, 64
1, 197653, Note_on_c, 0, 80, 79
1, 197680, Note_on_c, 0, 76, 72
1, 197712, Note_off_c, 0, 80, 61
1, 197715, Note_on_c, 0, 77, 10
1, 197729, Note_on_c, 0, 83, 65
1, 197730, Note_off_c, 0, 76, 52
1, 197755, Note_off_c, 0, 77, 33
1, 197756, Note_off_c, 0, 83, 67
1, 197790, Note_on_c, 0, 90, 69
1, 197828, Note_on_c, 0, 71, 71
1, 197864, Note_on_c, 0, 85, 87
1, 197892, Note_off_c, 0, 90, 63
1, 197902, Note_off_c, 0, 85, 63
1, 197922, Note_on_c, 0, 76, 82
1, 197923, Note_off_c, 0, 71, 63
1, 197964, Note_on_c, 0, 82, 114
1, 197978, Note_off_c, 0, 76, 62
1, 197993, Note_off_c, 0, 82, 66
1, 198021, Note_on_c, 0, 80, 76
1, 198077, Note_off_c, 0, 80, 45
1, 198077, Poly_aftertouch_c, 0, 85, 0
1, 198102, Note_on_c, 0, 82, 108
1, 198122, Note_on_c, 0, 84, 74
1, 198135, Note_off_c, 0, 82, 66
1, 198178, Note_off_c, 0, 84, 63
1, 198199, Note_on_c, 0, 82, 103
1, 198226, Note_on_c, 0, 79, 75
1, 198235, Note_off_c, 0, 82, 64
1, 198277, Note_off_c, 0, 79, 66
1, 198283, Note_on_c, 0, 82, 95
1, 198324, Note_off_c, 0, 82, 66
1, 198352, Note_on_c, 0, 76, 110
1, 198387, Note_off_c, 0, 76, 69
1, 198434, Note_on_c, 0, 67, 56
1, 198437, Note_on_c, 0, 76, 87
1, 198454, Note_off_c, 0, 67, 62
1, 198465, Note_on_c, 0, 68, 81
1, 198484, Note_off_c, 0, 76, 65
1, 198506, Note_off_c, 0, 68, 66
1, 198515, Note_on_c, 0, 71, 68
1, 198545, Note_on_c, 0, 76, 79
1, 198551, Note_on_c, 0, 77, 56
1, 198566, Note_off_c, 0, 71, 63
1, 198566, Note_off_c, 0, 76, 69
1, 198572, Note_on_c, 0, 78, 82
1, 198572, Note_off_c, 0, 77, 60
1, 198614, Note_on_c, 0, 73, 86
1, 198637, Note_off_c, 0, 78, 64
1, 198644, Note_on_c, 0, 59, 84
1, 198649, Note_off_c, 0, 73, 64
1, 198712, Note_off_c, 0, 59, 60
1, 198713, Note_on_c, 0, 70, 120
1, 198735, Note_on_c, 0, 68, 68
1, 198736, Note_off_c, 0, 68, 127
1, 198739, Note_off_c, 0, 70, 71
1, 198742, Note_on_c, 0, 67, 72
1, 198768, Note_off_c, 0, 67, 64
1, 198814, Note_on_c, 0, 70, 106
1, 198832, Note_on_c, 0, 72, 36
1, 198836, Note_on_c, 0, 73, 61
1, 198844, Note_off_c, 0, 70, 60
1, 198854, Note_off_c, 0, 73, 64
1, 198861, Note_off_c, 0, 72, 55
1, 198900, Note_on_c, 0, 70, 104
1, 198914, Note_on_c, 0, 65, 63
1, 198927, Note_off_c, 0, 70, 69
1, 198942, Note_off_c, 0, 65, 66
1, 198971, Note_on_c, 0, 70, 103
1, 198995, Poly_aftertouch_c, 0, 73, 0
1, 199001, Note_off_c, 0, 70, 69
1, 199012, Note_on_c, 0, 64, 115
1, 199037, Note_off_c, 0, 64, 72
1, 199109, Note_on_c, 0, 58, 68
1, 199113, Note_on_c, 0, 62, 83
1, 199116, Note_on_c, 0, 64, 79
1, 199123, Note_on_c, 0, 57, 74
1, 199137, Note_off_c, 0, 62, 69
1, 199140, Note_off_c, 0, 64, 66
1, 199147, Note_on_c, 0, 60, 62
1, 199151, Note_off_c, 0, 57, 67
1, 199177, Note_off_c, 0, 60, 66
1, 199183, Note_on_c, 0, 64, 79
1, 199183, Note_off_c, 0, 58, 64
1, 199200, Note_off_c, 0, 64, 75
1, 199209, Note_on_c, 0, 66, 81
1, 199262, Note_on_c, 0, 61, 83
1, 199287, Note_off_c, 0, 66, 64
1, 199307, Note_off_c, 0, 61, 62
1, 199330, Control_c, 0, 64, 87
1, 199345, Control_c, 0, 64, 56
1, 199346, Note_on_c, 0, 47, 109
1, 199350, Note_on_c, 0, 35, 88
1, 199350, Note_on_c, 0, 58, 98
1, 199352, Note_on_c, 0, 55, 108
1, 199355, Note_on_c, 0, 52, 97
1, 199359, Control_c, 0, 64, 0
1, 199374, Note_off_c, 0, 35, 69
1, 199377, Note_off_c, 0, 47, 66
1, 199380, Note_on_c, 0, 57, 65
1, 199404, Control_c, 0, 64, 56
1, 199409, Note_off_c, 0, 52, 68
1, 199419, Control_c, 0, 64, 75
1, 199435, Note_off_c, 0, 58, 60
1, 199435, Control_c, 0, 64, 127
1, 199443, Note_off_c, 0, 55, 55
1, 199491, Note_off_c, 0, 57, 56
1, 199561, Note_on_c, 0, 58, 92
1, 199564, Note_on_c, 0, 55, 65
1, 199570, Note_on_c, 0, 47, 69
1, 199574, Note_on_c, 0, 52, 66
1, 199595, Note_off_c, 0, 58, 62
1, 199597, Note_off_c, 0, 47, 63
1, 199600, Note_off_c, 0, 52, 66
1, 199606, Note_off_c, 0, 55, 64
1, 199659, Note_on_c, 0, 47, 73
1, 199660, Note_on_c, 0, 55, 76
1, 199660, Note_on_c, 0, 58, 83
1, 199678, Note_on_c, 0, 52, 63
1, 199678, Note_off_c, 0, 58, 70
1, 199686, Note_off_c, 0, 47, 63
1, 199687, Note_off_c, 0, 55, 66
1, 199705, Note_off_c, 0, 52, 66
1, 199745, Note_on_c, 0, 47, 78
1, 199749, Note_on_c, 0, 58, 77
1, 199761, Note_on_c, 0, 55, 73
1, 199777, Note_on_c, 0, 52, 66
1, 199828, Note_on_c, 0, 75, 98
1, 199831, Note_on_c, 0, 63, 91
1, 199845, Note_off_c, 0, 75, 71
1, 199850, Note_off_c, 0, 63, 73
1, 199900, Note_on_c, 0, 62, 102
1, 199900, Note_on_c, 0, 74, 101
1, 199901, Control_c, 0, 64, 74
1, 199916, Control_c, 0, 64, 0
1, 200168, Control_c, 0, 64, 38
1, 200182, Control_c, 0, 64, 54
1, 200197, Control_c, 0, 64, 62
1, 200212, Control_c, 0, 64, 67
1, 200228, Control_c, 0, 64, 73
1, 200230, Note_off_c, 0, 47, 33
1, 200243, Control_c, 0, 64, 84
1, 200258, Control_c, 0, 64, 107
1, 200261, Note_off_c, 0, 52, 60
1, 200280, Control_c, 0, 64, 127
1, 200286, Note_off_c, 0, 55, 59
1, 200325, Note_off_c, 0, 58, 64
1, 200398, Note_off_c, 0, 62, 58
1, 200480, Note_off_c, 0, 74, 57
1, 200518, Note_on_c, 0, 70, 91
1, 200527, Note_on_c, 0, 66, 74
1, 200562, Note_off_c, 0, 66, 58
1, 200562, Note_off_c, 0, 70, 62
1, 200584, Note_on_c, 0, 67, 76
1, 200593, Note_on_c, 0, 71, 78
1, 200596, Note_on_c, 0, 69, 84
1, 200644, Note_off_c, 0, 69, 67
1, 200652, Note_off_c, 0, 67, 52
1, 200654, Note_on_c, 0, 74, 88
1, 200678, Note_off_c, 0, 71, 62
1, 200711, Note_off_c, 0, 74, 64
1, 200722, Note_on_c, 0, 78, 111
1, 200731, Note_on_c, 0, 73, 88
1, 200752, Note_off_c, 0, 73, 68
1, 200761, Note_off_c, 0, 78, 65
1, 200791, Note_on_c, 0, 74, 87
1, 200809, Note_on_c, 0, 68, 84
1, 200848, Note_on_c, 0, 73, 53
1, 200873, Note_on_c, 0, 67, 64
1, 200882, Note_on_c, 0, 71, 88
1, 200889, Note_off_c, 0, 74, 55
1, 200893, Note_off_c, 0, 68, 63
1, 200913, Note_off_c, 0, 67, 61
1, 200948, Note_on_c, 0, 70, 96
1, 200953, Note_off_c, 0, 71, 61
1, 200965, Note_off_c, 0, 73, 65
1, 200968, Note_on_c, 0, 66, 80
1, 200987, Note_off_c, 0, 70, 62
1, 200988, Note_off_c, 0, 66, 71
1, 201103, Control_c, 0, 64, 85
1, 201117, Control_c, 0, 64, 59
1, 201118, Note_on_c, 0, 58, 106
1, 201121, Note_on_c, 0, 55, 88
1, 201129, Note_on_c, 0, 47, 95
1, 201129, Note_on_c, 0, 51, 77
1, 201132, Note_on_c, 0, 54, 75
1, 201132, Control_c, 0, 64, 23
1, 201141, Note_on_c, 0, 35, 69
1, 201141, Note_on_c, 0, 36, 74
1, 201147, Control_c, 0, 64, 47
1, 201150, Note_off_c, 0, 51, 40
1, 201153, Note_off_c, 0, 47, 70
1, 201160, Note_off_c, 0, 54, 68
1, 201162, Control_c, 0, 64, 57
1, 201168, Note_off_c, 0, 35, 59
1, 201172, Note_off_c, 0, 36, 61
1, 201177, Control_c, 0, 64, 63
1, 201192, Note_off_c, 0, 55, 61
1, 201192, Control_c, 0, 64, 72
1, 201207, Control_c, 0, 64, 95
1, 201222, Control_c, 0, 64, 127
1, 201225, Note_off_c, 0, 58, 64
1, 201302, Note_on_c, 0, 58, 81
1, 201302, Note_on_c, 0, 55, 74
1, 201314, Note_on_c, 0, 48, 45
1, 201320, Note_off_c, 0, 58, 73
1, 201328, Note_off_c, 0, 55, 65
1, 201344, Note_off_c, 0, 48, 0
1, 201367, Note_on_c, 0, 48, 52
1, 201375, Note_on_c, 0, 58, 83
1, 201384, Note_on_c, 0, 55, 76
1, 201390, Note_on_c, 0, 51, 49
1, 201395, Note_off_c, 0, 58, 68
1, 201398, Note_off_c, 0, 48, 62
1, 201403, Note_off_c, 0, 55, 72
1, 201446, Note_off_c, 0, 51, 0
1, 201460, Note_on_c, 0, 58, 73
1, 201464, Note_on_c, 0, 47, 61
1, 201466, Note_on_c, 0, 55, 75
1, 201484, Poly_aftertouch_c, 0, 51, 127
1, 201491, Note_on_c, 0, 75, 97
1, 201496, Note_on_c, 0, 63, 87
1, 201516, Note_off_c, 0, 63, 71
1, 201516, Note_off_c, 0, 75, 64
1, 201561, Control_c, 0, 64, 64
1, 201562, Note_on_c, 0, 74, 101
1, 201564, Note_on_c, 0, 62, 101
1, 201576, Control_c, 0, 64, 0
1, 201709, Control_c, 0, 64, 41
1, 201724, Control_c, 0, 64, 59
1, 201739, Control_c, 0, 64, 66
1, 201753, Control_c, 0, 64, 72
1, 201768, Control_c, 0, 64, 83
1, 201791, Control_c, 0, 64, 103
1, 201806, Control_c, 0, 64, 127
1, 201810, Note_off_c, 0, 47, 37
1, 201815, Poly_aftertouch_c, 0, 51, 0
1, 201852, Note_off_c, 0, 55, 59
1, 201880, Note_off_c, 0, 58, 62
1, 202015, Note_off_c, 0, 62, 57
1, 202088, Note_off_c, 0, 74, 62
1, 202124, Note_on_c, 0, 66, 73
1, 202124, Note_on_c, 0, 70, 75
1, 202148, Note_off_c, 0, 70, 69
1, 202150, Note_off_c, 0, 66, 66
1, 202188, Note_on_c, 0, 67, 74
1, 202193, Note_on_c, 0, 71, 87
1, 202236, Note_off_c, 0, 67, 61
1, 202258, Note_on_c, 0, 74, 89
1, 202286, Note_off_c, 0, 71, 63
1, 202320, Note_on_c, 0, 78, 104
1, 202324, Note_on_c, 0, 73, 84
1, 202329, Note_off_c, 0, 74, 51
1, 202363, Note_off_c, 0, 78, 62
1, 202373, Note_off_c, 0, 73, 61
1, 202387, Note_on_c, 0, 74, 78
1, 202405, Note_on_c, 0, 68, 86
1, 202476, Note_off_c, 0, 74, 63
1, 202478, Note_on_c, 0, 67, 52
1, 202478, Note_off_c, 0, 68, 67
1, 202480, Note_on_c, 0, 71, 85
1, 202489, Note_on_c, 0, 73, 31
1, 202501, Note_off_c, 0, 67, 63
1, 202517, Note_off_c, 0, 73, 56
1, 202555, Note_off_c, 0, 71, 68
1, 202558, Note_on_c, 0, 70, 79
1, 202559, Note_on_c, 0, 66, 83
1, 202580, Note_off_c, 0, 70, 70
1, 202598, Note_off_c, 0, 66, 59
1, 202689, Control_c, 0, 64, 89
1, 202703, Note_on_c, 0, 58, 103
1, 202704, Control_c, 0, 64, 63
1, 202712, Note_on_c, 0, 46, 89
1, 202712, Note_on_c, 0, 51, 74
1, 202713, Note_off_c, 0, 51, 127
1, 202716, Note_on_c, 0, 54, 65
1, 202717, Note_off_c, 0, 54, 127
1, 202717, Note_on_c, 0, 55, 85
1, 202719, Control_c, 0, 64, 0
1, 202724, Note_on_c, 0, 49, 59
1, 202727, Note_on_c, 0, 52, 73
1, 202748, Control_c, 0, 64, 21
1, 202749, Note_off_c, 0, 58, 64
1, 202750, Note_off_c, 0, 49, 62
1, 202757, Note_off_c, 0, 52, 66
1, 202763, Control_c, 0, 64, 54
1, 202765, Note_off_c, 0, 55, 61
1, 202768, Note_off_c, 0, 46, 63
1, 202778, Control_c, 0, 64, 69
1, 202793, Control_c, 0, 64, 88
1, 202807, Control_c, 0, 64, 127
1, 202819, Note_on_c, 0, 47, 83
1, 202819, Note_on_c, 0, 58, 95
1, 202821, Note_on_c, 0, 55, 77
1, 202827, Note_on_c, 0, 52, 79
1, 202845, Note_off_c, 0, 58, 61
1, 202859, Note_off_c, 0, 55, 64
1, 202860, Note_off_c, 0, 52, 64
1, 202861, Note_off_c, 0, 47, 60
1, 202897, Poly_aftertouch_c, 0, 47, 0
1, 202906, Note_on_c, 0, 47, 76
1, 202915, Note_on_c, 0, 58, 86
1, 202918, Note_on_c, 0, 52, 74
1, 202918, Note_on_c, 0, 55, 73
1, 202929, Poly_aftertouch_c, 0, 49, 0
1, 202936, Note_off_c, 0, 47, 64
1, 202938, Note_off_c, 0, 55, 72
1, 202943, Note_off_c, 0, 58, 66
1, 202945, Note_off_c, 0, 52, 67
1, 202986, Control_c, 0, 64, 74
1, 202996, Note_on_c, 0, 58, 83
1, 202998, Note_on_c, 0, 47, 71
1, 203000, Control_c, 0, 64, 47
1, 203002, Note_on_c, 0, 52, 63
1, 203008, Note_on_c, 0, 55, 76
1, 203015, Control_c, 0, 64, 0
1, 203088, Note_on_c, 0, 83, 86
1, 203091, Note_on_c, 0, 90, 90
1, 203113, Note_on_c, 0, 92, 61
1, 203118, Note_off_c, 0, 83, 65
1, 203129, Note_off_c, 0, 92, 62
1, 203132, Note_off_c, 0, 90, 63
1, 203181, Note_on_c, 0, 91, 97
1, 203182, Note_on_c, 0, 82, 80
1, 203198, Note_off_c, 0, 82, 63
1, 203204, Note_on_c, 0, 83, 61
1, 203208, Note_on_c, 0, 90, 21
1, 203210, Note_on_c, 0, 81, 59
1, 203217, Note_off_c, 0, 91, 65
1, 203221, Note_off_c, 0, 83, 65
1, 203228, Note_off_c, 0, 81, 65
1, 203233, Note_off_c, 0, 90, 34
1, 203263, Note_on_c, 0, 92, 82
1, 203267, Note_on_c, 0, 91, 69
1, 203281, Note_on_c, 0, 81, 64
1, 203291, Note_off_c, 0, 92, 71
1, 203298, Note_off_c, 0, 91, 66
1, 203305, Note_off_c, 0, 81, 65
1, 203353, Note_on_c, 0, 93, 95
1, 203354, Note_on_c, 0, 80, 88
1, 203361, Note_on_c, 0, 90, 71
1, 203386, Note_off_c, 0, 90, 68
1, 203394, Note_off_c, 0, 80, 60
1, 203408, Note_off_c, 0, 93, 66
1, 203422, Control_c, 0, 64, 50
1, 203438, Control_c, 0, 64, 63
1, 203453, Control_c, 0, 64, 70
1, 203468, Control_c, 0, 64, 80
1, 203483, Control_c, 0, 64, 100
1, 203498, Control_c, 0, 64, 127
1, 203505, Note_off_c, 0, 58, 54
1, 203529, Note_off_c, 0, 55, 51
1, 203530, Note_off_c, 0, 52, 50
1, 203556, Note_off_c, 0, 47, 36
1, 203620, Note_on_c, 0, 58, 95
1, 203627, Note_on_c, 0, 47, 76
1, 203628, Note_on_c, 0, 55, 83
1, 203634, Note_on_c, 0, 51, 73
1, 203652, Note_off_c, 0, 47, 65
1, 203653, Note_off_c, 0, 55, 66
1, 203654, Note_off_c, 0, 58, 58
1, 203662, Note_off_c, 0, 51, 66
1, 203690, Control_c, 0, 64, 100
1, 203705, Control_c, 0, 64, 80
1, 203709, Note_on_c, 0, 47, 79
1, 203714, Note_on_c, 0, 58, 82
1, 203719, Note_on_c, 0, 51, 75
1, 203720, Control_c, 0, 64, 70
1, 203723, Note_on_c, 0, 55, 79
1, 203734, Note_off_c, 0, 47, 61
1, 203735, Control_c, 0, 64, 63
1, 203744, Note_off_c, 0, 51, 67
1, 203746, Note_off_c, 0, 58, 65
1, 203747, Note_off_c, 0, 55, 68
1, 203749, Control_c, 0, 64, 58
1, 203764, Control_c, 0, 64, 56
1, 203798, Note_on_c, 0, 47, 68
1, 203800, Note_on_c, 0, 58, 75
1, 203812, Note_on_c, 0, 55, 75
1, 203827, Note_on_c, 0, 51, 53
1, 203830, Note_off_c, 0, 47, 60
1, 203837, Note_off_c, 0, 55, 66
1, 203839, Note_off_c, 0, 58, 55
1, 203851, Note_off_c, 0, 51, 58
1, 203853, Control_c, 0, 64, 56
1, 203868, Control_c, 0, 64, 55
1, 203883, Control_c, 0, 64, 54
1, 203897, Control_c, 0, 64, 53
1, 203901, Note_on_c, 0, 83, 87
1, 203903, Note_on_c, 0, 58, 49
1, 203904, Note_on_c, 0, 47, 61
1, 203907, Note_on_c, 0, 76, 75
1, 203912, Control_c, 0, 64, 52
1, 203920, Note_on_c, 0, 55, 56
1, 203927, Control_c, 0, 64, 49
1, 203934, Note_off_c, 0, 76, 69
1, 203935, Note_on_c, 0, 51, 58
1, 203937, Note_off_c, 0, 83, 64
1, 203942, Control_c, 0, 64, 43
1, 203956, Control_c, 0, 64, 25
1, 203971, Control_c, 0, 64, 0
1, 203982, Note_on_c, 0, 75, 89
1, 203982, Note_on_c, 0, 84, 81
1, 203997, Note_on_c, 0, 83, 57
1, 204005, Note_off_c, 0, 84, 69
1, 204022, Note_off_c, 0, 83, 61
1, 204046, Note_off_c, 0, 75, 62
1, 204058, Note_on_c, 0, 85, 87
1, 204065, Note_on_c, 0, 74, 72
1, 204091, Note_off_c, 0, 74, 68
1, 204100, Note_off_c, 0, 85, 66
1, 204136, Note_on_c, 0, 86, 97
1, 204149, Note_on_c, 0, 74, 71
1, 204169, Note_on_c, 0, 75, 40
1, 204170, Note_off_c, 0, 75, 127
1, 204173, Note_off_c, 0, 74, 63
1, 204173, Note_off_c, 0, 86, 66
1, 204246, Control_c, 0, 64, 43
1, 204261, Control_c, 0, 64, 56
1, 204276, Control_c, 0, 64, 64
1, 204291, Control_c, 0, 64, 69
1, 204306, Control_c, 0, 64, 77
1, 204321, Control_c, 0, 64, 91
1, 204324, Note_off_c, 0, 58, 57
1, 204335, Control_c, 0, 64, 127
1, 204342, Note_off_c, 0, 47, 55
1, 204342, Note_off_c, 0, 55, 54
1, 204381, Note_off_c, 0, 51, 35
1, 204412, Note_on_c, 0, 47, 84
1, 204414, Note_on_c, 0, 58, 100
1, 204423, Note_on_c, 0, 55, 80
1, 204424, Note_on_c, 0, 52, 76
1, 204441, Note_off_c, 0, 47, 65
1, 204446, Note_off_c, 0, 55, 70
1, 204448, Note_off_c, 0, 58, 59
1, 204451, Note_off_c, 0, 52, 69
1, 204453, Control_c, 0, 64, 96
1, 204468, Control_c, 0, 64, 73
1, 204483, Control_c, 0, 64, 60
1, 204497, Note_on_c, 0, 47, 77
1, 204497, Note_on_c, 0, 58, 83
1, 204498, Control_c, 0, 64, 35
1, 204507, Note_on_c, 0, 55, 77
1, 204513, Note_on_c, 0, 52, 74
1, 204513, Control_c, 0, 64, 0
1, 204527, Note_off_c, 0, 58, 61
1, 204532, Note_off_c, 0, 47, 64
1, 204534, Note_off_c, 0, 55, 68
1, 204537, Note_off_c, 0, 52, 69
1, 204572, Control_c, 0, 64, 9
1, 204587, Control_c, 0, 64, 13
1, 204589, Note_on_c, 0, 58, 69
1, 204590, Note_on_c, 0, 52, 68
1, 204594, Note_on_c, 0, 47, 64
1, 204601, Note_on_c, 0, 55, 64
1, 204602, Control_c, 0, 64, 15
1, 204612, Note_off_c, 0, 58, 63
1, 204617, Note_off_c, 0, 47, 61
1, 204617, Control_c, 0, 64, 16
1, 204627, Note_off_c, 0, 52, 58
1, 204632, Control_c, 0, 64, 17
1, 204632, Note_off_c, 0, 55, 64
1, 204672, Note_on_c, 0, 47, 55
1, 204676, Control_c, 0, 64, 17
1, 204690, Poly_aftertouch_c, 0, 52, 127
1, 204691, Note_on_c, 0, 55, 57
1, 204691, Poly_aftertouch_c, 0, 58, 127
1, 204749, Note_on_c, 0, 71, 67
1, 204755, Note_on_c, 0, 78, 73
1, 204784, Note_off_c, 0, 71, 69
1, 204799, Note_off_c, 0, 78, 62
1, 204834, Note_on_c, 0, 70, 82
1, 204841, Note_on_c, 0, 79, 78
1, 204864, Note_off_c, 0, 79, 71
1, 204896, Note_off_c, 0, 70, 64
1, 204903, Control_c, 0, 64, 0
1, 204912, Note_on_c, 0, 80, 82
1, 204924, Note_on_c, 0, 69, 47
1, 204928, Poly_aftertouch_c, 0, 78, 127
1, 204951, Note_off_c, 0, 69, 57
1, 204957, Note_off_c, 0, 80, 66
1, 204966, Poly_aftertouch_c, 0, 78, 0
1, 204981, Note_on_c, 0, 81, 93
1, 204986, Note_on_c, 0, 68, 86
1, 205007, Note_off_c, 0, 68, 70
1, 205018, Note_off_c, 0, 81, 66
1, 205053, Control_c, 0, 64, 27
1, 205067, Control_c, 0, 64, 46
1, 205082, Control_c, 0, 64, 55
1, 205097, Control_c, 0, 64, 62
1, 205112, Control_c, 0, 64, 67
1, 205127, Control_c, 0, 64, 76
1, 205142, Control_c, 0, 64, 93
1, 205156, Control_c, 0, 64, 127
1, 205163, Poly_aftertouch_c, 0, 58, 0
1, 205198, Poly_aftertouch_c, 0, 52, 0
1, 205203, Note_off_c, 0, 47, 50
1, 205216, Note_off_c, 0, 55, 38
1, 205285, Note_on_c, 0, 58, 99
1, 205288, Note_on_c, 0, 47, 78
1, 205291, Note_on_c, 0, 55, 86
1, 205297, Note_on_c, 0, 51, 77
1, 205305, Control_c, 0, 64, 104
1, 205317, Note_off_c, 0, 58, 56
1, 205319, Control_c, 0, 64, 74
1, 205322, Note_off_c, 0, 47, 62
1, 205326, Note_off_c, 0, 55, 62
1, 205331, Note_off_c, 0, 51, 62
1, 205334, Control_c, 0, 64, 60
1, 205349, Control_c, 0, 64, 40
1, 205364, Control_c, 0, 64, 0
1, 205403, Note_on_c, 0, 58, 74
1, 205406, Note_on_c, 0, 47, 62
1, 205408, Control_c, 0, 64, 11
1, 205413, Note_on_c, 0, 55, 65
1, 205416, Note_on_c, 0, 51, 54
1, 205423, Control_c, 0, 64, 19
1, 205433, Note_off_c, 0, 58, 64
1, 205438, Control_c, 0, 64, 23
1, 205439, Note_off_c, 0, 47, 64
1, 205446, Note_off_c, 0, 55, 64
1, 205449, Note_off_c, 0, 51, 65
1, 205453, Control_c, 0, 64, 24
1, 205467, Control_c, 0, 64, 25
1, 205482, Control_c, 0, 64, 26
1, 205505, Note_on_c, 0, 58, 60
1, 205507, Note_on_c, 0, 55, 64
1, 205511, Note_on_c, 0, 47, 39
1, 205512, Control_c, 0, 64, 26
1, 205535, Note_off_c, 0, 58, 59
1, 205544, Note_off_c, 0, 55, 65
1, 205550, Note_off_c, 0, 47, 45
1, 205564, Control_c, 0, 64, 27
1, 205579, Control_c, 0, 64, 27
1, 205594, Control_c, 0, 64, 28
1, 205604, Poly_aftertouch_c, 0, 51, 127
1, 205607, Note_on_c, 0, 58, 44
1, 205611, Note_on_c, 0, 55, 57
1, 205623, Control_c, 0, 64, 29
1, 205624, Note_on_c, 0, 47, 14
1, 205663, Note_off_c, 0, 58, 0
1, 205668, Note_on_c, 0, 64, 65
1, 205670, Note_on_c, 0, 71, 72
1, 205692, Note_on_c, 0, 58, 9
1, 205696, Note_off_c, 0, 64, 68
1, 205701, Note_off_c, 0, 71, 63
1, 205744, Note_on_c, 0, 63, 82
1, 205749, Note_on_c, 0, 72, 53
1, 205779, Note_off_c, 0, 72, 66
1, 205800, Note_off_c, 0, 63, 62
1, 205815, Note_on_c, 0, 73, 80
1, 205831, Control_c, 0, 64, 26
1, 205843, Note_on_c, 0, 62, 21
1, 205846, Control_c, 0, 64, 20
1, 205861, Control_c, 0, 64, 0
1, 205884, Note_off_c, 0, 73, 66
1, 205885, Note_off_c, 0, 62, 31
1, 205902, Note_on_c, 0, 61, 81
1, 205902, Note_on_c, 0, 74, 82
1, 205922, Note_off_c, 0, 74, 70
1, 205926, Note_off_c, 0, 61, 70
1, 206083, Control_c, 0, 64, 19
1, 206098, Control_c, 0, 64, 31
1, 206113, Control_c, 0, 64, 40
1, 206128, Control_c, 0, 64, 48
1, 206142, Control_c, 0, 64, 52
1, 206157, Control_c, 0, 64, 55
1, 206172, Control_c, 0, 64, 58
1, 206187, Control_c, 0, 64, 61
1, 206203, Control_c, 0, 64, 63
1, 206217, Control_c, 0, 64, 65
1, 206232, Control_c, 0, 64, 68
1, 206247, Control_c, 0, 64, 72
1, 206262, Control_c, 0, 64, 76
1, 206281, Note_off_c, 0, 55, 53
1, 206283, Note_on_c, 0, 63, 86
1, 206284, Control_c, 0, 64, 82
1, 206292, Note_off_c, 0, 58, 42
1, 206293, Poly_aftertouch_c, 0, 51, 0
1, 206294, Note_off_c, 0, 47, 41
1, 206298, Control_c, 0, 64, 91
1, 206313, Control_c, 0, 64, 127
1, 206319, Note_off_c, 0, 63, 61
1, 206355, Note_on_c, 0, 62, 99
1, 206367, Note_on_c, 0, 58, 86
1, 206373, Control_c, 0, 64, 88
1, 206378, Note_on_c, 0, 47, 63
1, 206387, Note_on_c, 0, 52, 57
1, 206388, Control_c, 0, 64, 65
1, 206388, Note_on_c, 0, 55, 61
1, 206394, Note_off_c, 0, 58, 65
1, 206402, Control_c, 0, 64, 0
1, 206420, Note_off_c, 0, 55, 61
1, 206431, Note_off_c, 0, 52, 58
1, 206433, Note_off_c, 0, 47, 49
1, 206477, Control_c, 0, 64, 35
1, 206492, Control_c, 0, 64, 58
1, 206493, Note_on_c, 0, 58, 53
1, 206496, Poly_aftertouch_c, 0, 47, 127
1, 206498, Note_on_c, 0, 55, 57
1, 206506, Control_c, 0, 64, 69
1, 206512, Note_on_c, 0, 52, 47
1, 206521, Control_c, 0, 64, 79
1, 206536, Control_c, 0, 64, 100
1, 206537, Note_off_c, 0, 58, 60
1, 206540, Note_off_c, 0, 55, 60
1, 206548, Note_off_c, 0, 52, 56
1, 206550, Control_c, 0, 64, 127
1, 206551, Note_off_c, 0, 62, 66
1, 206556, Poly_aftertouch_c, 0, 47, 0
1, 206611, Note_on_c, 0, 47, 42
1, 206632, Note_on_c, 0, 58, 55
1, 206642, Note_on_c, 0, 55, 48
1, 206651, Note_on_c, 0, 52, 57
1, 206692, Note_off_c, 0, 52, 57
1, 206693, Note_off_c, 0, 58, 57
1, 206697, Note_off_c, 0, 55, 58
1, 206713, Note_off_c, 0, 47, 49
1, 206813, Note_on_c, 0, 55, 53
1, 206823, Note_on_c, 0, 58, 63
1, 206828, Note_on_c, 0, 52, 43
1, 206841, Note_on_c, 0, 47, 49
1, 207096, Note_on_c, 0, 36, 68
1, 207121, Note_off_c, 0, 36, 61
1, 207151, Note_on_c, 0, 35, 100
1, 207195, Control_c, 0, 64, 78
1, 207201, Note_off_c, 0, 52, 63
1, 207206, Note_off_c, 0, 58, 62
1, 207208, Note_off_c, 0, 55, 61
1, 207210, Control_c, 0, 64, 58
1, 207224, Note_off_c, 0, 47, 56
1, 207225, Control_c, 0, 64, 0
1, 207300, Control_c, 0, 64, 28
1, 207315, Control_c, 0, 64, 58
1, 207326, Note_on_c, 0, 58, 70
1, 207328, Note_on_c, 0, 55, 63
1, 207329, Control_c, 0, 64, 68
1, 207335, Note_on_c, 0, 47, 46
1, 207341, Note_on_c, 0, 51, 60
1, 207344, Control_c, 0, 64, 87
1, 207352, Note_off_c, 0, 35, 62
1, 207359, Control_c, 0, 64, 127
1, 207373, Note_off_c, 0, 47, 50
1, 207373, Note_off_c, 0, 58, 55
1, 207389, Note_off_c, 0, 51, 58
1, 207396, Note_off_c, 0, 55, 57
1, 207477, Note_on_c, 0, 47, 50
1, 207489, Note_on_c, 0, 55, 50
1, 207490, Note_on_c, 0, 51, 62
1, 207491, Note_on_c, 0, 58, 48
1, 207525, Note_off_c, 0, 58, 53
1, 207527, Note_off_c, 0, 47, 53
1, 207532, Note_off_c, 0, 51, 59
1, 207537, Note_off_c, 0, 55, 58
1, 207628, Note_on_c, 0, 58, 60
1, 207641, Note_on_c, 0, 55, 58
1, 207642, Note_on_c, 0, 47, 55
1, 207642, Note_on_c, 0, 51, 56
1, 207689, Note_off_c, 0, 58, 57
1, 207691, Note_off_c, 0, 47, 55
1, 207701, Note_off_c, 0, 55, 59
1, 207711, Note_off_c, 0, 51, 54
1, 207800, Note_on_c, 0, 47, 62
1, 207807, Note_on_c, 0, 58, 72
1, 207811, Note_on_c, 0, 55, 65
1, 207818, Note_on_c, 0, 51, 64
1, 208006, Note_on_c, 0, 63, 97
1, 208025, Note_off_c, 0, 63, 70
1, 208069, Note_on_c, 0, 62, 113
1, 208093, Control_c, 0, 64, 105
1, 208096, Note_off_c, 0, 58, 58
1, 208096, Note_off_c, 0, 51, 56
1, 208105, Note_off_c, 0, 47, 53
1, 208108, Control_c, 0, 64, 75
1, 208110, Note_off_c, 0, 55, 58
1, 208122, Control_c, 0, 64, 60
1, 208137, Control_c, 0, 64, 19
1, 208152, Control_c, 0, 64, 0
1, 208197, Note_on_c, 0, 58, 85
1, 208204, Note_on_c, 0, 50, 65
1, 208214, Note_on_c, 0, 55, 67
1, 208218, Note_on_c, 0, 47, 49
1, 208233, Note_off_c, 0, 58, 61
1, 208248, Note_off_c, 0, 55, 63
1, 208253, Note_off_c, 0, 47, 60
1, 208269, Note_off_c, 0, 50, 57
1, 208324, Note_on_c, 0, 55, 54
1, 208328, Note_on_c, 0, 50, 35
1, 208333, Note_on_c, 0, 58, 63
1, 208343, Note_on_c, 0, 47, 45
1, 208372, Note_off_c, 0, 58, 62
1, 208380, Note_off_c, 0, 47, 56
1, 208387, Note_off_c, 0, 55, 59
1, 208390, Control_c, 0, 64, 37
1, 208393, Note_off_c, 0, 50, 59
1, 208405, Control_c, 0, 64, 52
1, 208419, Control_c, 0, 64, 59
1, 208424, Note_off_c, 0, 62, 71
1, 208434, Control_c, 0, 64, 63
1, 208448, Control_c, 0, 64, 69
1, 208463, Control_c, 0, 64, 79
1, 208465, Note_on_c, 0, 58, 58
1, 208476, Note_on_c, 0, 55, 55
1, 208478, Control_c, 0, 64, 107
1, 208480, Note_on_c, 0, 50, 39
1, 208489, Note_on_c, 0, 47, 32
1, 208492, Control_c, 0, 64, 127
1, 208531, Note_off_c, 0, 58, 53
1, 208543, Note_off_c, 0, 47, 47
1, 208546, Note_off_c, 0, 50, 56
1, 208549, Note_off_c, 0, 55, 51
1, 208654, Note_on_c, 0, 55, 39
1, 208659, Note_on_c, 0, 58, 49
1, 208675, Note_on_c, 0, 47, 54
1, 208688, Note_on_c, 0, 50, 49
1, 208856, Note_on_c, 0, 36, 76
1, 208879, Note_off_c, 0, 36, 65
1, 208919, Note_on_c, 0, 35, 95
1, 208953, Note_off_c, 0, 50, 56
1, 208959, Note_off_c, 0, 58, 59
1, 208959, Control_c, 0, 64, 107
1, 208971, Note_off_c, 0, 55, 55
1, 208974, Control_c, 0, 64, 82
1, 208989, Control_c, 0, 64, 67
1, 209004, Note_off_c, 0, 47, 44
1, 209004, Control_c, 0, 64, 48
1, 209020, Control_c, 0, 64, 0
1, 209076, Note_on_c, 0, 58, 75
1, 209085, Note_on_c, 0, 50, 66
1, 209088, Note_on_c, 0, 47, 45
1, 209089, Note_on_c, 0, 54, 62
1, 209109, Note_off_c, 0, 58, 61
1, 209128, Note_off_c, 0, 54, 62
1, 209136, Note_off_c, 0, 47, 59
1, 209139, Note_off_c, 0, 50, 57
1, 209222, Note_on_c, 0, 54, 56
1, 209226, Note_on_c, 0, 50, 47
1, 209228, Note_on_c, 0, 58, 54
1, 209255, Note_on_c, 0, 47, 28
1, 209256, Control_c, 0, 67, 16
1, 209279, Control_c, 0, 67, 47
1, 209279, Note_off_c, 0, 58, 58
1, 209294, Control_c, 0, 67, 78
1, 209303, Note_off_c, 0, 54, 56
1, 209303, Note_off_c, 0, 47, 46
1, 209306, Note_off_c, 0, 50, 57
1, 209309, Control_c, 0, 67, 109
1, 209323, Control_c, 0, 67, 127
1, 209393, Note_on_c, 0, 58, 49
1, 209405, Note_on_c, 0, 50, 28
1, 209406, Note_on_c, 0, 54, 36
1, 209431, Note_on_c, 0, 47, 5
1, 209455, Note_off_c, 0, 58, 57
1, 209459, Note_off_c, 0, 50, 56
1, 209463, Note_off_c, 0, 54, 57
1, 209483, Note_off_c, 0, 47, 38
1, 209625, Note_on_c, 0, 58, 40
1, 209639, Note_on_c, 0, 54, 34
1, 209642, Note_on_c, 0, 47, 20
1, 209649, Note_on_c, 0, 50, 38
1, 209814, Note_off_c, 0, 35, 29
1, 209889, Note_on_c, 0, 36, 76
1, 209921, Note_off_c, 0, 36, 67
1, 209995, Note_off_c, 0, 50, 39
1, 210006, Note_on_c, 0, 35, 21
1, 210027, Note_on_c, 0, 33, 18
1, 210068, Note_off_c, 0, 58, 23
1, 210074, Note_off_c, 0, 33, 50
1, 210138, Note_off_c, 0, 47, 18
1, 210194, Note_off_c, 0, 54, 42
1, 210282, Note_on_c, 0, 58, 49
1, 210295, Note_on_c, 0, 50, 48
1, 210300, Note_on_c, 0, 52, 51
1, 210308, Note_on_c, 0, 47, 26
1, 210346, Note_off_c, 0, 58, 53
1, 210355, Note_off_c, 0, 47, 47
1, 210355, Note_off_c, 0, 50, 58
1, 210356, Note_off_c, 0, 52, 58
1, 210489, Note_on_c, 0, 58, 46
1, 210492, Note_on_c, 0, 50, 43
1, 210498, Note_on_c, 0, 52, 47
1, 210540, Note_off_c, 0, 58, 58
1, 210543, Note_off_c, 0, 52, 60
1, 210549, Note_off_c, 0, 50, 57
1, 210577, Poly_aftertouch_c, 0, 47, 0
1, 210666, Note_on_c, 0, 58, 49
1, 210684, Note_on_c, 0, 52, 35
1, 210698, Note_on_c, 0, 50, 37
1, 210706, Note_on_c, 0, 47, 22
1, 210739, Note_off_c, 0, 52, 58
1, 210743, Note_off_c, 0, 50, 54
1, 210744, Note_off_c, 0, 58, 53
1, 210752, Note_off_c, 0, 47, 48
1, 210940, Control_c, 0, 64, 21
1, 210943, Note_on_c, 0, 58, 27
1, 210955, Control_c, 0, 64, 30
1, 210960, Note_on_c, 0, 47, 13
1, 210963, Note_on_c, 0, 52, 34
1, 210969, Control_c, 0, 64, 37
1, 210974, Note_on_c, 0, 50, 31
1, 210984, Control_c, 0, 64, 41
1, 210999, Control_c, 0, 64, 46
1, 211014, Control_c, 0, 64, 50
1, 211029, Control_c, 0, 64, 54
1, 211044, Control_c, 0, 64, 56
1, 211059, Control_c, 0, 64, 58
1, 211074, Control_c, 0, 64, 59
1, 211088, Control_c, 0, 64, 60
1, 211103, Control_c, 0, 64, 61
1, 211118, Control_c, 0, 64, 62
1, 211133, Control_c, 0, 64, 62
1, 211148, Control_c, 0, 64, 63
1, 211162, Control_c, 0, 64, 64
1, 211177, Control_c, 0, 64, 64
1, 211192, Control_c, 0, 64, 65
1, 211207, Control_c, 0, 64, 65
1, 211221, Control_c, 0, 64, 66
1, 211251, Control_c, 0, 64, 66
1, 211266, Control_c, 0, 64, 67
1, 211281, Control_c, 0, 64, 68
1, 211295, Control_c, 0, 64, 69
1, 211310, Control_c, 0, 64, 69
1, 211325, Control_c, 0, 64, 70
1, 211426, Note_off_c, 0, 35, 33
1, 211526, Control_c, 0, 64, 69
1, 211571, Control_c, 0, 64, 69
1, 211585, Control_c, 0, 64, 68
1, 211600, Control_c, 0, 64, 68
1, 211604, Note_on_c, 0, 36, 40
1, 211615, Control_c, 0, 64, 67
1, 211630, Control_c, 0, 64, 66
1, 211643, Note_off_c, 0, 36, 61
1, 211644, Control_c, 0, 64, 63
1, 211659, Control_c, 0, 64, 59
1, 211674, Control_c, 0, 64, 50
1, 211679, Note_on_c, 0, 35, 41
1, 211689, Control_c, 0, 64, 35
1, 211704, Control_c, 0, 64, 23
1, 211718, Control_c, 0, 64, 20
1, 211748, Control_c, 0, 64, 22
1, 211763, Control_c, 0, 64, 29
1, 211778, Control_c, 0, 64, 38
1, 211792, Control_c, 0, 64, 46
1, 211807, Control_c, 0, 64, 53
1, 211822, Control_c, 0, 64, 56
1, 211837, Control_c, 0, 64, 60
1, 211852, Control_c, 0, 64, 62
1, 211866, Control_c, 0, 64, 64
1, 211881, Control_c, 0, 64, 65
1, 211896, Control_c, 0, 64, 67
1, 211911, Control_c, 0, 64, 68
1, 211926, Note_off_c, 0, 47, 40
1, 211926, Control_c, 0, 64, 70
1, 211941, Control_c, 0, 64, 71
1, 211941, Note_off_c, 0, 58, 40
1, 211956, Control_c, 0, 64, 72
1, 211970, Control_c, 0, 64, 73
1, 211976, Note_off_c, 0, 52, 38
1, 212000, Control_c, 0, 64, 73
1, 212001, Note_off_c, 0, 35, 39
1, 212015, Control_c, 0, 64, 74
1, 212019, Note_off_c, 0, 50, 40
1, 212133, Control_c, 0, 64, 73
1, 212207, Control_c, 0, 64, 73
1, 212348, Control_c, 0, 64, 72
1, 212481, Control_c, 0, 64, 72
1, 212526, Control_c, 0, 64, 71
1, 212540, Control_c, 0, 64, 71
1, 212555, Control_c, 0, 64, 70
1, 212585, Control_c, 0, 64, 70
1, 212615, Control_c, 0, 64, 69
1, 212689, Control_c, 0, 64, 69
1, 212704, Control_c, 0, 64, 68
1, 212719, Control_c, 0, 64, 64
1, 212725, Note_on_c, 0, 39, 30
1, 212733, Control_c, 0, 64, 54
1, 212736, Note_on_c, 0, 27, 36
1, 212748, Control_c, 0, 64, 37
1, 212763, Control_c, 0, 64, 31
1, 212778, Control_c, 0, 64, 34
1, 212792, Control_c, 0, 64, 41
1, 212807, Control_c, 0, 64, 49
1, 212822, Control_c, 0, 64, 54
1, 212837, Control_c, 0, 64, 58
1, 212852, Control_c, 0, 64, 61
1, 212866, Control_c, 0, 64, 64
1, 212881, Control_c, 0, 64, 65
1, 212886, Note_off_c, 0, 27, 56
1, 212896, Note_off_c, 0, 39, 55
1, 212896, Control_c, 0, 64, 67
1, 212911, Control_c, 0, 64, 69
1, 212926, Control_c, 0, 64, 72
1, 212940, Control_c, 0, 64, 75
1, 212955, Control_c, 0, 64, 77
1, 212970, Control_c, 0, 64, 79
1, 212984, Control_c, 0, 64, 80
1, 213023, Control_c, 0, 64, 80
1, 213038, Control_c, 0, 64, 81
1, 213112, Control_c, 0, 64, 81
1, 213153, Note_on_c, 0, 51, 38
1, 213156, Note_on_c, 0, 39, 36
1, 213209, Note_off_c, 0, 51, 43
1, 213222, Note_off_c, 0, 39, 50
1, 213335, Note_on_c, 0, 39, 27
1, 213343, Note_on_c, 0, 51, 43
1, 213376, Note_off_c, 0, 51, 53
1, 213390, Note_off_c, 0, 39, 46
1, 213408, Control_c, 0, 64, 81
1, 213437, Control_c, 0, 64, 80
1, 213467, Control_c, 0, 64, 80
1, 213489, Note_on_c, 0, 51, 30
1, 213497, Note_on_c, 0, 39, 30
1, 213512, Control_c, 0, 64, 80
1, 213527, Control_c, 0, 64, 80
1, 213542, Control_c, 0, 64, 76
1, 213556, Control_c, 0, 64, 70
1, 213569, Note_on_c, 0, 64, 44
1, 213571, Control_c, 0, 64, 64
1, 213586, Control_c, 0, 64, 60
1, 213615, Control_c, 0, 64, 62
1, 213630, Control_c, 0, 64, 63
1, 213632, Note_on_c, 0, 63, 62
1, 213645, Control_c, 0, 64, 64
1, 213660, Control_c, 0, 64, 65
1, 213664, Note_off_c, 0, 39, 56
1, 213671, Note_off_c, 0, 64, 57
1, 213675, Control_c, 0, 64, 67
1, 213690, Control_c, 0, 64, 68
1, 213695, Note_off_c, 0, 51, 55
1, 213705, Control_c, 0, 64, 69
1, 213720, Control_c, 0, 64, 71
1, 213735, Control_c, 0, 64, 72
1, 213750, Control_c, 0, 64, 73
1, 213771, Control_c, 0, 64, 73
1, 213808, Note_on_c, 0, 54, 44
1, 213817, Control_c, 0, 64, 74
1, 213832, Control_c, 0, 64, 75
1, 213846, Control_c, 0, 64, 76
1, 213861, Control_c, 0, 64, 76
1, 213876, Control_c, 0, 64, 77
1, 213936, Note_off_c, 0, 54, 33
1, 213959, Note_on_c, 0, 59, 46
1, 214013, Note_off_c, 0, 59, 55
1, 214085, Note_on_c, 0, 54, 59
1, 214099, Control_c, 0, 64, 76
1, 214113, Control_c, 0, 64, 76
1, 214114, Note_off_c, 0, 54, 67
1, 214128, Control_c, 0, 64, 75
1, 214143, Control_c, 0, 64, 75
1, 214158, Control_c, 0, 64, 74
1, 214173, Control_c, 0, 64, 73
1, 214187, Control_c, 0, 64, 72
1, 214202, Control_c, 0, 64, 71
1, 214217, Control_c, 0, 64, 71
1, 214231, Control_c, 0, 64, 70
1, 214246, Control_c, 0, 64, 69
1, 214251, Note_on_c, 0, 51, 59
1, 214261, Control_c, 0, 64, 69
1, 214263, Note_on_c, 0, 39, 54
1, 214276, Control_c, 0, 64, 68
1, 214280, Note_off_c, 0, 51, 64
1, 214291, Control_c, 0, 64, 68
1, 214296, Note_off_c, 0, 39, 54
1, 214305, Control_c, 0, 64, 67
1, 214320, Control_c, 0, 64, 66
1, 214335, Control_c, 0, 64, 66
1, 214350, Control_c, 0, 64, 65
1, 214379, Control_c, 0, 64, 65
1, 214393, Note_on_c, 0, 51, 46
1, 214394, Control_c, 0, 64, 64
1, 214396, Note_on_c, 0, 39, 49
1, 214409, Control_c, 0, 64, 64
1, 214424, Control_c, 0, 64, 63
1, 214428, Note_off_c, 0, 51, 59
1, 214439, Control_c, 0, 64, 63
1, 214440, Note_off_c, 0, 39, 57
1, 214454, Control_c, 0, 64, 62
1, 214484, Control_c, 0, 64, 62
1, 214499, Control_c, 0, 64, 61
1, 214520, Control_c, 0, 64, 58
1, 214535, Control_c, 0, 64, 51
1, 214541, Note_on_c, 0, 51, 47
1, 214550, Control_c, 0, 64, 34
1, 214559, Note_on_c, 0, 39, 36
1, 214565, Control_c, 0, 64, 17
1, 214579, Note_off_c, 0, 51, 59
1, 214580, Control_c, 0, 64, 9
1, 214594, Note_off_c, 0, 39, 53
1, 214594, Control_c, 0, 64, 0
1, 214692, Note_on_c, 0, 39, 45
1, 214701, Note_on_c, 0, 51, 19
1, 214729, Control_c, 0, 64, 21
1, 214743, Control_c, 0, 64, 32
1, 214753, Note_on_c, 0, 59, 45
1, 214758, Control_c, 0, 64, 40
1, 214773, Control_c, 0, 64, 47
1, 214788, Control_c, 0, 64, 51
1, 214803, Control_c, 0, 64, 54
1, 214818, Control_c, 0, 64, 59
1, 214826, Note_on_c, 0, 58, 66
1, 214827, Note_off_c, 0, 39, 57
1, 214832, Control_c, 0, 64, 62
1, 214845, Note_off_c, 0, 59, 56
1, 214847, Control_c, 0, 64, 64
1, 214853, Note_off_c, 0, 63, 49
1, 214862, Note_off_c, 0, 51, 52
1, 214862, Control_c, 0, 64, 66
1, 214877, Control_c, 0, 64, 68
1, 214892, Control_c, 0, 64, 70
1, 214907, Control_c, 0, 64, 72
1, 214922, Control_c, 0, 64, 74
1, 214936, Control_c, 0, 64, 76
1, 214951, Control_c, 0, 64, 77
1, 214966, Control_c, 0, 64, 78
1, 214984, Note_off_c, 0, 58, 63
1, 214996, Control_c, 0, 64, 78
1, 215036, Poly_aftertouch_c, 0, 54, 127
1, 215083, Poly_aftertouch_c, 0, 56, 127
1, 215095, Poly_aftertouch_c, 0, 54, 0
1, 215099, Control_c, 0, 64, 79
1, 215128, Control_c, 0, 64, 79
1, 215141, Note_on_c, 0, 61, 50
1, 215143, Control_c, 0, 64, 80
1, 215157, Poly_aftertouch_c, 0, 56, 0
1, 215158, Control_c, 0, 64, 82
1, 215173, Control_c, 0, 64, 84
1, 215186, Control_c, 0, 64, 85
1, 215201, Control_c, 0, 64, 86
1, 215204, Note_off_c, 0, 61, 51
1, 215264, Note_on_c, 0, 56, 56
1, 215297, Note_off_c, 0, 56, 66
1, 215312, Control_c, 0, 64, 86
1, 215357, Control_c, 0, 64, 85
1, 215417, Control_c, 0, 64, 85
1, 215424, Note_on_c, 0, 51, 54
1, 215432, Control_c, 0, 64, 83
1, 215439, Note_on_c, 0, 39, 48
1, 215447, Control_c, 0, 64, 78
1, 215461, Control_c, 0, 64, 72
1, 215476, Control_c, 0, 64, 66
1, 215491, Control_c, 0, 64, 63
1, 215506, Control_c, 0, 64, 63
1, 215521, Control_c, 0, 64, 64
1, 215536, Control_c, 0, 64, 65
1, 215551, Control_c, 0, 64, 66
1, 215565, Control_c, 0, 64, 67
1, 215570, Note_on_c, 0, 49, 63
1, 215580, Control_c, 0, 64, 68
1, 215587, Note_off_c, 0, 51, 59
1, 215595, Control_c, 0, 64, 69
1, 215610, Control_c, 0, 64, 70
1, 215615, Note_off_c, 0, 39, 60
1, 215632, Note_off_c, 0, 49, 57
1, 215691, Note_on_c, 0, 51, 71
1, 215713, Control_c, 0, 64, 69
1, 215716, Note_on_c, 0, 39, 35
1, 215725, Note_off_c, 0, 51, 64
1, 215743, Control_c, 0, 64, 69
1, 215751, Note_off_c, 0, 39, 55
1, 215772, Control_c, 0, 64, 68
1, 215816, Note_on_c, 0, 51, 52
1, 215834, Note_on_c, 0, 39, 48
1, 215876, Control_c, 0, 64, 68
1, 215891, Control_c, 0, 64, 65
1, 215896, Note_on_c, 0, 64, 72
1, 215906, Control_c, 0, 64, 57
1, 215920, Control_c, 0, 64, 43
1, 215935, Control_c, 0, 64, 17
1, 215950, Control_c, 0, 64, 0
1, 215956, Note_on_c, 0, 63, 85
1, 215965, Control_c, 0, 64, 9
1, 215980, Control_c, 0, 64, 27
1, 215994, Note_off_c, 0, 39, 62
1, 215995, Control_c, 0, 64, 45
1, 216016, Control_c, 0, 64, 54
1, 216031, Note_off_c, 0, 64, 61
1, 216031, Control_c, 0, 64, 58
1, 216042, Note_off_c, 0, 51, 62
1, 216046, Control_c, 0, 64, 61
1, 216061, Control_c, 0, 64, 63
1, 216076, Control_c, 0, 64, 64
1, 216090, Control_c, 0, 64, 65
1, 216115, Note_on_c, 0, 54, 60
1, 216150, Control_c, 0, 64, 65
1, 216165, Control_c, 0, 64, 66
1, 216180, Control_c, 0, 64, 67
1, 216195, Control_c, 0, 64, 68
1, 216202, Note_off_c, 0, 54, 56
1, 216210, Control_c, 0, 64, 69
1, 216225, Control_c, 0, 64, 70
1, 216240, Control_c, 0, 64, 72
1, 216254, Control_c, 0, 64, 73
1, 216265, Note_on_c, 0, 59, 41
1, 216269, Control_c, 0, 64, 74
1, 216284, Control_c, 0, 64, 75
1, 216299, Control_c, 0, 64, 75
1, 216314, Control_c, 0, 64, 76
1, 216329, Control_c, 0, 64, 77
1, 216344, Control_c, 0, 64, 78
1, 216353, Note_off_c, 0, 59, 32
1, 216379, Note_on_c, 0, 54, 55
1, 216401, Note_off_c, 0, 54, 62
1, 216403, Control_c, 0, 64, 77
1, 216433, Control_c, 0, 64, 77
1, 216462, Control_c, 0, 64, 76
1, 216492, Control_c, 0, 64, 76
1, 216506, Control_c, 0, 64, 75
1, 216521, Control_c, 0, 64, 73
1, 216522, Note_on_c, 0, 51, 64
1, 216528, Note_on_c, 0, 39, 61
1, 216536, Control_c, 0, 64, 70
1, 216547, Note_off_c, 0, 51, 63
1, 216551, Control_c, 0, 64, 66
1, 216557, Note_off_c, 0, 39, 57
1, 216566, Control_c, 0, 64, 63
1, 216580, Control_c, 0, 64, 61
1, 216595, Control_c, 0, 64, 58
1, 216610, Control_c, 0, 64, 57
1, 216624, Control_c, 0, 64, 57
1, 216639, Control_c, 0, 64, 56
1, 216657, Note_on_c, 0, 39, 54
1, 216659, Note_on_c, 0, 51, 48
1, 216669, Control_c, 0, 64, 56
1, 216684, Control_c, 0, 64, 55
1, 216687, Note_off_c, 0, 51, 59
1, 216695, Note_off_c, 0, 39, 63
1, 216698, Control_c, 0, 64, 54
1, 216713, Control_c, 0, 64, 52
1, 216728, Control_c, 0, 64, 51
1, 216743, Control_c, 0, 64, 51
1, 216766, Control_c, 0, 64, 50
1, 216780, Control_c, 0, 64, 50
1, 216788, Note_on_c, 0, 51, 52
1, 216795, Control_c, 0, 64, 49
1, 216802, Note_on_c, 0, 39, 41
1, 216810, Control_c, 0, 64, 47
1, 216823, Note_off_c, 0, 51, 61
1, 216825, Control_c, 0, 64, 43
1, 216836, Note_off_c, 0, 39, 53
1, 216839, Control_c, 0, 64, 38
1, 216854, Control_c, 0, 64, 34
1, 216869, Control_c, 0, 64, 30
1, 216884, Control_c, 0, 64, 23
1, 216899, Control_c, 0, 64, 0
1, 216923, Note_on_c, 0, 51, 34
1, 216928, Note_on_c, 0, 39, 44
1, 216993, Note_on_c, 0, 59, 44
1, 217004, Note_off_c, 0, 63, 53
1, 217062, Note_off_c, 0, 59, 58
1, 217062, Control_c, 0, 64, 27
1, 217065, Note_on_c, 0, 58, 56
1, 217077, Control_c, 0, 64, 43
1, 217092, Control_c, 0, 64, 52
1, 217095, Note_off_c, 0, 39, 57
1, 217107, Control_c, 0, 64, 56
1, 217119, Note_off_c, 0, 51, 62
1, 217122, Control_c, 0, 64, 60
1, 217137, Control_c, 0, 64, 62
1, 217152, Control_c, 0, 64, 63
1, 217166, Control_c, 0, 64, 65
1, 217181, Control_c, 0, 64, 67
1, 217196, Control_c, 0, 64, 69
1, 217208, Note_off_c, 0, 58, 63
1, 217211, Control_c, 0, 64, 72
1, 217226, Control_c, 0, 64, 74
1, 217241, Note_on_c, 0, 56, 46
1, 217241, Control_c, 0, 64, 76
1, 217255, Control_c, 0, 64, 78
1, 217270, Control_c, 0, 64, 80
1, 217285, Control_c, 0, 64, 81
1, 217300, Control_c, 0, 64, 82
1, 217358, Note_on_c, 0, 61, 47
1, 217381, Note_off_c, 0, 56, 31
1, 217472, Note_on_c, 0, 56, 44
1, 217476, Note_off_c, 0, 61, 35
1, 217515, Note_off_c, 0, 56, 64
1, 217590, Control_c, 0, 64, 83
1, 217604, Control_c, 0, 64, 83
1, 217619, Control_c, 0, 64, 84
1, 217634, Control_c, 0, 64, 85
1, 217637, Note_on_c, 0, 51, 54
1, 217649, Control_c, 0, 64, 86
1, 217663, Control_c, 0, 64, 83
1, 217667, Note_on_c, 0, 39, 36
1, 217678, Control_c, 0, 64, 74
1, 217693, Control_c, 0, 64, 65
1, 217708, Control_c, 0, 64, 58
1, 217723, Control_c, 0, 64, 54
1, 217737, Control_c, 0, 64, 57
1, 217752, Control_c, 0, 64, 60
1, 217763, Note_on_c, 0, 49, 48
1, 217767, Control_c, 0, 64, 63
1, 217781, Control_c, 0, 64, 67
1, 217784, Note_off_c, 0, 51, 36
1, 217796, Control_c, 0, 64, 73
1, 217813, Control_c, 0, 64, 85
1, 217827, Control_c, 0, 64, 121
1, 217842, Control_c, 0, 64, 127
1, 217881, Note_on_c, 0, 51, 65
1, 217906, Note_on_c, 0, 66, 68
1, 217908, Note_on_c, 0, 63, 55
1, 217924, Note_off_c, 0, 51, 60
1, 218023, Note_on_c, 0, 51, 60
1, 218052, Note_off_c, 0, 49, 50
1, 218056, Note_off_c, 0, 51, 64
1, 218064, Control_c, 0, 67, 125
1, 218072, Note_off_c, 0, 39, 39
1, 218079, Control_c, 0, 67, 105
1, 218094, Control_c, 0, 67, 82
1, 218108, Control_c, 0, 67, 54
1, 218111, Note_off_c, 0, 63, 60
1, 218123, Control_c, 0, 67, 24
1, 218138, Control_c, 0, 67, 0
1, 218153, Note_on_c, 0, 71, 81
1, 218165, Note_on_c, 0, 68, 55
1, 218236, Note_off_c, 0, 66, 59
1, 218297, Note_off_c, 0, 68, 61
1, 218307, Note_off_c, 0, 71, 64
1, 218309, Note_on_c, 0, 54, 56
1, 218407, Note_off_c, 0, 54, 53
1, 218450, Note_on_c, 0, 59, 38
1, 218477, Poly_aftertouch_c, 0, 69, 127
1, 218500, Note_off_c, 0, 59, 58
1, 218515, Poly_aftertouch_c, 0, 69, 0
1, 218531, Note_on_c, 0, 77, 76
1, 218535, Note_on_c, 0, 73, 67
1, 218536, Note_on_c, 0, 54, 44
1, 218563, Note_off_c, 0, 54, 57
1, 218676, Note_on_c, 0, 51, 47
1, 218695, Note_on_c, 0, 39, 49
1, 218708, Note_on_c, 0, 70, 81
1, 218739, Control_c, 0, 64, 81
1, 218754, Control_c, 0, 64, 63
1, 218769, Control_c, 0, 64, 24
1, 218782, Note_off_c, 0, 73, 60
1, 218783, Control_c, 0, 64, 0
1, 218813, Control_c, 0, 64, 30
1, 218828, Control_c, 0, 64, 52
1, 218843, Control_c, 0, 64, 63
1, 218851, Note_off_c, 0, 77, 61
1, 218853, Note_on_c, 0, 49, 50
1, 218857, Control_c, 0, 64, 72
1, 218867, Note_off_c, 0, 51, 48
1, 218872, Control_c, 0, 64, 90
1, 218887, Control_c, 0, 64, 127
1, 218898, Note_off_c, 0, 70, 65
1, 218985, Note_on_c, 0, 51, 58
1, 219018, Note_off_c, 0, 51, 58
1, 219099, Note_on_c, 0, 51, 58
1, 219144, Note_off_c, 0, 39, 59
1, 219152, Note_off_c, 0, 49, 54
1, 219163, Note_on_c, 0, 59, 60
1, 219167, Note_off_c, 0, 51, 61
1, 219216, Note_on_c, 0, 58, 78
1, 219232, Note_off_c, 0, 59, 59
1, 219318, Note_off_c, 0, 58, 63
1, 219348, Note_on_c, 0, 56, 58
1, 219444, Note_off_c, 0, 56, 60
1, 219482, Note_on_c, 0, 61, 57
1, 219564, Note_off_c, 0, 61, 59
1, 219590, Note_on_c, 0, 56, 62
1, 219620, Note_off_c, 0, 56, 65
1, 219734, Note_on_c, 0, 51, 62
1, 219751, Note_on_c, 0, 39, 59
1, 219776, Control_c, 0, 64, 82
1, 219791, Control_c, 0, 64, 63
1, 219805, Control_c, 0, 64, 36
1, 219820, Control_c, 0, 64, 36
1, 219835, Control_c, 0, 64, 51
1, 219849, Control_c, 0, 64, 61
1, 219853, Note_off_c, 0, 51, 55
1, 219863, Note_on_c, 0, 49, 53
1, 219864, Control_c, 0, 64, 70
1, 219879, Control_c, 0, 64, 95
1, 219894, Control_c, 0, 64, 127
1, 219951, Poly_aftertouch_c, 0, 42, 127
1, 219972, Note_on_c, 0, 75, 82
1, 219976, Note_on_c, 0, 51, 64
1, 219981, Note_on_c, 0, 66, 56
1, 220010, Note_off_c, 0, 51, 63
1, 220022, Note_off_c, 0, 66, 59
1, 220097, Note_on_c, 0, 51, 61
1, 220104, Note_off_c, 0, 39, 58
1, 220117, Note_off_c, 0, 49, 61
1, 220127, Note_off_c, 0, 51, 66
1, 220146, Poly_aftertouch_c, 0, 42, 0
1, 220243, Note_on_c, 0, 80, 85
1, 220252, Note_on_c, 0, 71, 58
1, 220285, Note_off_c, 0, 75, 62
1, 220363, Poly_aftertouch_c, 0, 81, 0
1, 220398, Note_on_c, 0, 54, 46
1, 220454, Note_off_c, 0, 71, 56
1, 220458, Control_c, 0, 67, 22
1, 220472, Control_c, 0, 67, 46
1, 220487, Control_c, 0, 67, 73
1, 220510, Control_c, 0, 67, 94
1, 220525, Control_c, 0, 67, 114
1, 220530, Note_off_c, 0, 54, 36
1, 220540, Control_c, 0, 67, 127
1, 220546, Note_on_c, 0, 59, 46
1, 220611, Note_off_c, 0, 59, 55
1, 220676, Note_on_c, 0, 54, 40
1, 220708, Note_on_c, 0, 85, 64
1, 220709, Note_off_c, 0, 54, 56
1, 220728, Note_on_c, 0, 77, 51
1, 220776, Note_off_c, 0, 80, 51
1, 220791, Control_c, 0, 64, 110
1, 220806, Control_c, 0, 64, 97
1, 220821, Control_c, 0, 64, 93
1, 220834, Note_off_c, 0, 85, 49
1, 220851, Control_c, 0, 64, 93
1, 220880, Control_c, 0, 64, 89
1, 220895, Control_c, 0, 64, 78
1, 220910, Control_c, 0, 64, 65
1, 220912, Note_on_c, 0, 39, 34
1, 220925, Control_c, 0, 64, 40
1, 220938, Note_on_c, 0, 70, 60
1, 220940, Control_c, 0, 64, 0
1, 220958, Poly_aftertouch_c, 0, 51, 127
1, 220982, Note_off_c, 0, 77, 58
1, 221000, Control_c, 0, 64, 38
1, 221015, Control_c, 0, 64, 53
1, 221030, Control_c, 0, 64, 63
1, 221044, Control_c, 0, 64, 67
1, 221059, Control_c, 0, 64, 72
1, 221074, Control_c, 0, 64, 78
1, 221089, Control_c, 0, 64, 85
1, 221102, Note_on_c, 0, 49, 41
1, 221103, Poly_aftertouch_c, 0, 51, 0
1, 221103, Control_c, 0, 64, 93
1, 221118, Control_c, 0, 64, 111
1, 221131, Note_off_c, 0, 70, 62
1, 221133, Control_c, 0, 64, 127
1, 221247, Note_on_c, 0, 51, 46
1, 221277, Note_off_c, 0, 51, 55
1, 221384, Note_on_c, 0, 51, 41
1, 221417, Note_off_c, 0, 39, 42
1, 221433, Note_off_c, 0, 51, 56
1, 221458, Note_off_c, 0, 49, 41
1, 221465, Note_on_c, 0, 59, 49
1, 221501, Note_off_c, 0, 59, 64
1, 221505, Note_on_c, 0, 58, 59
1, 221599, Note_off_c, 0, 58, 61
1, 221651, Note_on_c, 0, 56, 46
1, 221743, Note_off_c, 0, 56, 57
1, 221785, Note_on_c, 0, 61, 44
1, 221868, Note_off_c, 0, 61, 51
1, 221930, Note_on_c, 0, 56, 43
1, 221965, Note_off_c, 0, 56, 64
1, 222201, Control_c, 0, 64, 88
1, 222202, Note_on_c, 0, 73, 60
1, 222216, Control_c, 0, 64, 69
1, 222221, Note_on_c, 0, 39, 39
1, 222229, Note_on_c, 0, 51, 18
1, 222231, Control_c, 0, 64, 52
1, 222245, Control_c, 0, 64, 33
1, 222260, Control_c, 0, 64, 41
1, 222262, Note_on_c, 0, 63, 22
1, 222275, Control_c, 0, 64, 49
1, 222290, Control_c, 0, 64, 57
1, 222305, Control_c, 0, 64, 63
1, 222319, Control_c, 0, 64, 69
1, 222334, Control_c, 0, 64, 78
1, 222349, Control_c, 0, 64, 91
1, 222364, Note_on_c, 0, 49, 40
1, 222364, Control_c, 0, 64, 115
1, 222368, Note_off_c, 0, 51, 42
1, 222379, Control_c, 0, 64, 127
1, 222415, Note_off_c, 0, 63, 42
1, 222461, Note_on_c, 0, 70, 45
1, 222470, Note_on_c, 0, 78, 68
1, 222475, Note_on_c, 0, 51, 38
1, 222508, Note_off_c, 0, 51, 52
1, 222513, Note_off_c, 0, 39, 40
1, 222524, Note_off_c, 0, 73, 63
1, 222532, Note_off_c, 0, 70, 61
1, 222550, Note_off_c, 0, 78, 63
1, 222579, Note_off_c, 0, 49, 58
1, 222598, Note_on_c, 0, 51, 47
1, 222625, Note_off_c, 0, 51, 57
1, 222661, Control_c, 0, 67, 120
1, 222675, Control_c, 0, 67, 103
1, 222690, Control_c, 0, 67, 81
1, 222705, Control_c, 0, 67, 55
1, 222720, Control_c, 0, 67, 27
1, 222735, Control_c, 0, 67, 0
1, 222746, Note_on_c, 0, 68, 53
1, 222753, Note_on_c, 0, 83, 74
1, 222769, Note_off_c, 0, 68, 59
1, 222910, Note_on_c, 0, 54, 41
1, 222959, Note_off_c, 0, 54, 57
1, 223016, Note_off_c, 0, 83, 64
1, 223019, Note_on_c, 0, 77, 70
1, 223044, Note_on_c, 0, 59, 31
1, 223053, Note_off_c, 0, 77, 63
1, 223081, Note_off_c, 0, 59, 51
1, 223107, Note_on_c, 0, 54, 55
1, 223138, Note_off_c, 0, 54, 66
1, 223268, Note_on_c, 0, 51, 44
1, 223268, Note_on_c, 0, 70, 66
1, 223289, Control_c, 0, 64, 76
1, 223292, Note_on_c, 0, 59, 36
1, 223293, Note_on_c, 0, 39, 43
1, 223304, Control_c, 0, 64, 58
1, 223319, Control_c, 0, 64, 35
1, 223334, Control_c, 0, 64, 41
1, 223341, Note_off_c, 0, 59, 0
1, 223341, Note_on_c, 0, 59, 4
1, 223349, Control_c, 0, 64, 53
1, 223364, Control_c, 0, 64, 62
1, 223379, Control_c, 0, 64, 69
1, 223394, Control_c, 0, 64, 81
1, 223405, Note_off_c, 0, 51, 33
1, 223409, Control_c, 0, 64, 119
1, 223415, Note_on_c, 0, 49, 42
1, 223424, Control_c, 0, 64, 127
1, 223438, Note_off_c, 0, 59, 38
1, 223463, Note_off_c, 0, 70, 54
1, 223530, Note_on_c, 0, 66, 57
1, 223542, Note_on_c, 0, 75, 74
1, 223543, Note_on_c, 0, 51, 38
1, 223554, Note_off_c, 0, 39, 40
1, 223581, Note_off_c, 0, 51, 46
1, 223593, Note_off_c, 0, 66, 59
1, 223606, Note_off_c, 0, 75, 62
1, 223647, Note_on_c, 0, 51, 50
1, 223674, Note_off_c, 0, 49, 38
1, 223678, Note_off_c, 0, 51, 54
1, 223808, Note_on_c, 0, 65, 64
1, 223839, Note_off_c, 0, 65, 65
1, 223847, Note_on_c, 0, 80, 59
1, 223999, Note_on_c, 0, 56, 43
1, 224040, Poly_aftertouch_c, 0, 75, 127
1, 224048, Note_off_c, 0, 56, 61
1, 224076, Note_off_c, 0, 80, 63
1, 224082, Note_on_c, 0, 73, 56
1, 224103, Note_on_c, 0, 61, 48
1, 224139, Poly_aftertouch_c, 0, 75, 0
1, 224152, Note_off_c, 0, 73, 64
1, 224160, Note_off_c, 0, 61, 54
1, 224203, Note_on_c, 0, 56, 48
1, 224232, Control_c, 0, 67, 29
1, 224234, Note_off_c, 0, 56, 62
1, 224255, Control_c, 0, 67, 61
1, 224269, Control_c, 0, 67, 86
1, 224284, Control_c, 0, 67, 110
1, 224299, Control_c, 0, 67, 127
1, 224402, Control_c, 0, 64, 113
1, 224417, Control_c, 0, 64, 111
1, 224432, Control_c, 0, 64, 110
1, 224447, Control_c, 0, 64, 99
1, 224448, Note_on_c, 0, 39, 44
1, 224462, Control_c, 0, 64, 81
1, 224475, Note_on_c, 0, 56, 67
1, 224476, Control_c, 0, 64, 63
1, 224491, Control_c, 0, 64, 28
1, 224506, Control_c, 0, 64, 0
1, 224550, Control_c, 0, 64, 17
1, 224565, Control_c, 0, 64, 47
1, 224580, Control_c, 0, 64, 59
1, 224595, Control_c, 0, 64, 64
1, 224610, Control_c, 0, 64, 66
1, 224625, Control_c, 0, 64, 70
1, 224640, Control_c, 0, 64, 74
1, 224651, Note_on_c, 0, 49, 42
1, 224654, Control_c, 0, 64, 78
1, 224669, Control_c, 0, 64, 80
1, 224684, Control_c, 0, 64, 82
1, 224690, Note_off_c, 0, 56, 63
1, 224773, Control_c, 0, 64, 81
1, 224777, Note_on_c, 0, 51, 46
1, 224810, Note_off_c, 0, 51, 49
1, 224817, Control_c, 0, 64, 81
1, 224895, Note_on_c, 0, 51, 51
1, 224914, Note_off_c, 0, 49, 38
1, 224926, Note_off_c, 0, 39, 41
1, 224941, Note_off_c, 0, 51, 60
1, 224952, Note_on_c, 0, 78, 62
1, 224973, Note_on_c, 0, 66, 46
1, 224996, Note_off_c, 0, 78, 65
1, 225008, Note_off_c, 0, 66, 55
1, 225009, Note_on_c, 0, 75, 67
1, 225018, Control_c, 0, 64, 80
1, 225031, Note_on_c, 0, 65, 52
1, 225093, Control_c, 0, 64, 80
1, 225126, Note_off_c, 0, 65, 57
1, 225128, Note_off_c, 0, 75, 61
1, 225179, Note_on_c, 0, 56, 41
1, 225286, Control_c, 0, 64, 79
1, 225292, Note_off_c, 0, 56, 56
1, 225337, Note_on_c, 0, 61, 42
1, 225389, Control_c, 0, 64, 79
1, 225426, Note_off_c, 0, 61, 61
1, 225471, Note_on_c, 0, 56, 41
1, 225478, Control_c, 0, 64, 78
1, 225507, Control_c, 0, 64, 78
1, 225522, Control_c, 0, 64, 77
1, 225527, Note_off_c, 0, 56, 62
1, 225537, Control_c, 0, 64, 77
1, 225552, Control_c, 0, 64, 76
1, 225567, Control_c, 0, 64, 75
1, 225582, Control_c, 0, 64, 73
1, 225596, Control_c, 0, 64, 72
1, 225611, Control_c, 0, 64, 72
1, 225626, Control_c, 0, 64, 71
1, 225626, Note_on_c, 0, 59, 36
1, 225683, Control_c, 0, 64, 70
1, 225689, Note_on_c, 0, 58, 49
1, 225698, Control_c, 0, 64, 68
1, 225713, Control_c, 0, 64, 64
1, 225716, Note_on_c, 0, 51, 29
1, 225728, Control_c, 0, 64, 60
1, 225739, Note_off_c, 0, 59, 55
1, 225750, Control_c, 0, 64, 54
1, 225765, Control_c, 0, 64, 49
1, 225780, Control_c, 0, 64, 48
1, 225796, Control_c, 0, 64, 49
1, 225811, Control_c, 0, 64, 51
1, 225826, Control_c, 0, 64, 54
1, 225840, Control_c, 0, 64, 57
1, 225855, Control_c, 0, 64, 59
1, 225870, Control_c, 0, 64, 60
1, 225885, Control_c, 0, 64, 62
1, 225894, Note_on_c, 0, 44, 28
1, 225896, Note_off_c, 0, 51, 38
1, 225899, Control_c, 0, 64, 63
1, 225914, Control_c, 0, 64, 64
1, 225929, Control_c, 0, 64, 65
1, 225944, Control_c, 0, 64, 67
1, 225959, Control_c, 0, 64, 69
1, 225973, Control_c, 0, 64, 71
1, 225988, Control_c, 0, 64, 73
1, 226003, Control_c, 0, 64, 75
1, 226018, Control_c, 0, 64, 77
1, 226033, Control_c, 0, 64, 78
1, 226047, Control_c, 0, 64, 79
1, 226062, Control_c, 0, 64, 80
1, 226077, Control_c, 0, 64, 80
1, 226091, Control_c, 0, 64, 81
1, 226099, Note_on_c, 0, 51, 35
1, 226105, Note_off_c, 0, 44, 33
1, 226105, Note_off_c, 0, 58, 37
1, 226106, Control_c, 0, 64, 82
1, 226121, Control_c, 0, 64, 83
1, 226136, Control_c, 0, 64, 83
1, 226181, Control_c, 0, 64, 84
1, 226211, Control_c, 0, 64, 84
1, 226217, Note_off_c, 0, 51, 31
1, 226225, Control_c, 0, 64, 85
1, 226240, Control_c, 0, 64, 85
1, 226255, Control_c, 0, 64, 86
1, 226270, Control_c, 0, 64, 86
1, 226282, Note_on_c, 0, 44, 21
1, 226284, Control_c, 0, 64, 87
1, 226384, Note_off_c, 0, 44, 54
1, 226418, Control_c, 0, 64, 87
1, 226529, Control_c, 0, 64, 87
1, 226559, Control_c, 0, 64, 86
1, 226641, Note_on_c, 0, 63, 42
1, 226646, Note_on_c, 0, 27, 58
1, 226649, Control_c, 0, 64, 87
1, 226693, Control_c, 0, 64, 87
1, 226708, Control_c, 0, 64, 88
1, 226722, Control_c, 0, 64, 90
1, 226734, Note_off_c, 0, 27, 62
1, 226737, Control_c, 0, 64, 92
1, 226752, Control_c, 0, 64, 94
1, 226767, Control_c, 0, 64, 95
1, 226782, Control_c, 0, 64, 97
1, 226796, Control_c, 0, 64, 101
1, 226811, Control_c, 0, 64, 105
1, 226826, Control_c, 0, 64, 110
1, 226841, Control_c, 0, 64, 116
1, 226856, Control_c, 0, 64, 127
1, 226995, Note_on_c, 0, 61, 28
1, 227004, Note_off_c, 0, 63, 34
1, 227078, Note_off_c, 0, 61, 45
1, 227119, Note_on_c, 0, 51, 71
1, 227132, Note_on_c, 0, 54, 52
1, 227137, Note_on_c, 0, 63, 47
1, 227193, Note_off_c, 0, 63, 53
1, 227204, Note_off_c, 0, 54, 55
1, 227309, Note_on_c, 0, 63, 44
1, 227436, Note_off_c, 0, 63, 56
1, 227447, Note_on_c, 0, 56, 76
1, 227461, Note_on_c, 0, 59, 61
1, 227624, Note_on_c, 0, 66, 33
1, 227666, Note_off_c, 0, 66, 53
1, 227686, Note_on_c, 0, 71, 60
1, 227691, Note_off_c, 0, 51, 62
1, 227692, Note_off_c, 0, 56, 62
1, 227736, Note_off_c, 0, 59, 63
1, 227759, Note_off_c, 0, 71, 62
1, 227770, Note_on_c, 0, 77, 59
1, 227829, Note_on_c, 0, 71, 54
1, 227833, Note_off_c, 0, 77, 60
1, 227873, Note_off_c, 0, 71, 64
1, 227915, Note_on_c, 0, 66, 55
1, 227917, Note_on_c, 0, 61, 78
1, 227950, Note_on_c, 0, 65, 40
1, 227992, Note_off_c, 0, 65, 50
1, 228005, Note_off_c, 0, 66, 57
1, 228097, Note_on_c, 0, 58, 85
1, 228100, Note_on_c, 0, 63, 55
1, 228114, Note_on_c, 0, 65, 42
1, 228130, Control_c, 0, 64, 113
1, 228145, Control_c, 0, 64, 84
1, 228146, Note_off_c, 0, 61, 58
1, 228160, Control_c, 0, 64, 69
1, 228175, Control_c, 0, 64, 60
1, 228190, Control_c, 0, 64, 54
1, 228205, Control_c, 0, 64, 57
1, 228220, Note_off_c, 0, 63, 56
1, 228220, Control_c, 0, 64, 60
1, 228235, Control_c, 0, 64, 62
1, 228249, Note_on_c, 0, 61, 51
1, 228249, Control_c, 0, 64, 64
1, 228264, Control_c, 0, 64, 66
1, 228279, Control_c, 0, 64, 69
1, 228294, Control_c, 0, 64, 74
1, 228309, Control_c, 0, 64, 81
1, 228324, Control_c, 0, 64, 91
1, 228339, Control_c, 0, 64, 103
1, 228354, Control_c, 0, 64, 127
1, 228360, Note_off_c, 0, 61, 57
1, 228421, Note_off_c, 0, 65, 58
1, 228431, Note_on_c, 0, 63, 14
1, 228473, Note_off_c, 0, 63, 42
1, 228570, Note_on_c, 0, 63, 53
1, 228691, Note_off_c, 0, 63, 58
1, 228822, Note_off_c, 0, 58, 64
1, 228867, Note_on_c, 0, 66, 40
1, 228880, Control_c, 0, 67, 127
1, 228894, Control_c, 0, 67, 115
1, 228909, Control_c, 0, 67, 103
1, 228924, Control_c, 0, 67, 91
1, 228935, Note_off_c, 0, 66, 53
1, 228939, Control_c, 0, 67, 76
1, 228953, Note_on_c, 0, 71, 55
1, 228954, Control_c, 0, 67, 55
1, 228968, Control_c, 0, 67, 33
1, 228984, Control_c, 0, 67, 12
1, 228999, Control_c, 0, 67, 0
1, 229032, Note_on_c, 0, 77, 57
1, 229039, Note_off_c, 0, 71, 59
1, 229135, Note_on_c, 0, 71, 39
1, 229152, Note_off_c, 0, 77, 51
1, 229200, Note_on_c, 0, 66, 48
1, 229239, Note_off_c, 0, 66, 63
1, 229341, Note_on_c, 0, 39, 65
1, 229344, Note_on_c, 0, 51, 65
1, 229352, Note_on_c, 0, 75, 66
1, 229370, Control_c, 0, 64, 98
1, 229384, Control_c, 0, 64, 83
1, 229397, Note_on_c, 0, 63, 21
1, 229399, Control_c, 0, 64, 81
1, 229413, Control_c, 0, 64, 85
1, 229428, Control_c, 0, 64, 95
1, 229434, Note_off_c, 0, 39, 62
1, 229443, Control_c, 0, 64, 127
1, 229469, Note_off_c, 0, 51, 64
1, 229525, Note_on_c, 0, 73, 64
1, 229540, Note_off_c, 0, 75, 55
1, 229543, Note_off_c, 0, 63, 39
1, 229658, Note_on_c, 0, 54, 72
1, 229660, Note_on_c, 0, 63, 89
1, 229664, Note_on_c, 0, 75, 61
1, 229670, Note_off_c, 0, 71, 38
1, 229689, Note_off_c, 0, 73, 63
1, 229722, Note_off_c, 0, 75, 54
1, 229743, Note_off_c, 0, 54, 64
1, 229788, Note_off_c, 0, 63, 63
1, 229820, Note_on_c, 0, 75, 79
1, 229955, Note_on_c, 0, 59, 78
1, 229955, Note_on_c, 0, 68, 96
1, 230002, Note_off_c, 0, 75, 61
1, 230129, Note_on_c, 0, 78, 67
1, 230202, Note_off_c, 0, 78, 63
1, 230215, Note_on_c, 0, 83, 67
1, 230245, Note_off_c, 0, 59, 63
1, 230286, Note_off_c, 0, 68, 62
1, 230292, Note_off_c, 0, 83, 62
1, 230300, Note_on_c, 0, 89, 75
1, 230375, Note_on_c, 0, 83, 68
1, 230390, Note_off_c, 0, 89, 62
1, 230416, Note_on_c, 0, 65, 80
1, 230421, Note_on_c, 0, 73, 93
1, 230434, Note_off_c, 0, 83, 65
1, 230455, Note_on_c, 0, 78, 73
1, 230469, Note_off_c, 0, 65, 64
1, 230470, Note_off_c, 0, 73, 64
1, 230631, Note_on_c, 0, 70, 84
1, 230648, Note_on_c, 0, 58, 70
1, 230655, Note_on_c, 0, 61, 64
1, 230658, Note_off_c, 0, 78, 33
1, 230659, Note_on_c, 0, 75, 63
1, 230660, Note_on_c, 0, 63, 60
1, 230719, Control_c, 0, 64, 108
1, 230734, Control_c, 0, 64, 84
1, 230749, Control_c, 0, 64, 70
1, 230763, Control_c, 0, 64, 58
1, 230778, Control_c, 0, 64, 15
1, 230793, Control_c, 0, 64, 0
1, 230837, Note_on_c, 0, 73, 57
1, 230852, Note_off_c, 0, 75, 56
1, 230897, Control_c, 0, 64, 28
1, 230911, Control_c, 0, 64, 43
1, 230926, Control_c, 0, 64, 51
1, 230941, Control_c, 0, 64, 56
1, 230956, Control_c, 0, 64, 61
1, 230971, Control_c, 0, 64, 64
1, 230993, Control_c, 0, 64, 67
1, 230996, Note_off_c, 0, 73, 60
1, 231001, Note_on_c, 0, 75, 54
1, 231008, Control_c, 0, 64, 70
1, 231023, Control_c, 0, 64, 75
1, 231037, Control_c, 0, 64, 80
1, 231052, Control_c, 0, 64, 86
1, 231058, Note_off_c, 0, 75, 51
1, 231067, Control_c, 0, 64, 91
1, 231082, Control_c, 0, 64, 97
1, 231097, Control_c, 0, 64, 104
1, 231111, Control_c, 0, 64, 111
1, 231126, Control_c, 0, 64, 115
1, 231156, Control_c, 0, 64, 116
1, 231180, Note_on_c, 0, 75, 58
1, 231260, Control_c, 0, 67, 10
1, 231275, Control_c, 0, 67, 19
1, 231289, Control_c, 0, 67, 30
1, 231304, Control_c, 0, 67, 40
1, 231319, Control_c, 0, 67, 48
1, 231334, Control_c, 0, 67, 58
1, 231347, Note_off_c, 0, 75, 62
1, 231349, Control_c, 0, 67, 67
1, 231363, Control_c, 0, 67, 77
1, 231379, Control_c, 0, 67, 85
1, 231394, Control_c, 0, 64, 117
1, 231394, Control_c, 0, 67, 95
1, 231409, Control_c, 0, 64, 119
1, 231409, Control_c, 0, 67, 103
1, 231424, Control_c, 0, 64, 123
1, 231424, Control_c, 0, 67, 111
1, 231439, Control_c, 0, 64, 127
1, 231439, Control_c, 0, 67, 119
1, 231453, Control_c, 0, 67, 127
1, 231481, Note_on_c, 0, 78, 53
1, 231528, Note_off_c, 0, 70, 60
1, 231546, Note_off_c, 0, 78, 59
1, 231575, Note_on_c, 0, 83, 59
1, 231613, Note_off_c, 0, 63, 53
1, 231660, Note_off_c, 0, 83, 63
1, 231660, Note_on_c, 0, 89, 64
1, 231684, Note_off_c, 0, 61, 53
1, 231698, Note_off_c, 0, 58, 59
1, 231755, Note_on_c, 0, 83, 58
1, 231759, Note_off_c, 0, 89, 61
1, 231803, Note_off_c, 0, 83, 63
1, 231821, Note_on_c, 0, 78, 73
1, 231846, Note_off_c, 0, 78, 66
1, 231915, Note_on_c, 0, 73, 73
1, 232029, Note_on_c, 0, 39, 45
1, 232038, Control_c, 0, 64, 110
1, 232053, Control_c, 0, 64, 102
1, 232061, Note_on_c, 0, 51, 40
1, 232068, Control_c, 0, 64, 97
1, 232080, Note_on_c, 0, 68, 61
1, 232083, Control_c, 0, 64, 93
1, 232098, Control_c, 0, 64, 90
1, 232104, Note_off_c, 0, 73, 53
1, 232112, Control_c, 0, 64, 86
1, 232127, Control_c, 0, 64, 84
1, 232142, Control_c, 0, 64, 81
1, 232157, Control_c, 0, 64, 78
1, 232172, Control_c, 0, 64, 75
1, 232187, Control_c, 0, 64, 73
1, 232202, Control_c, 0, 64, 70
1, 232217, Control_c, 0, 64, 69
1, 232229, Note_on_c, 0, 49, 55
1, 232232, Control_c, 0, 64, 68
1, 232233, Note_off_c, 0, 51, 37
1, 232247, Control_c, 0, 64, 67
1, 232259, Note_off_c, 0, 39, 55
1, 232262, Control_c, 0, 64, 66
1, 232276, Control_c, 0, 64, 65
1, 232291, Control_c, 0, 64, 64
1, 232301, Note_off_c, 0, 49, 47
1, 232306, Control_c, 0, 64, 63
1, 232321, Control_c, 0, 64, 62
1, 232334, Note_on_c, 0, 51, 64
1, 232335, Control_c, 0, 64, 61
1, 232350, Control_c, 0, 64, 60
1, 232365, Control_c, 0, 64, 59
1, 232369, Note_on_c, 0, 73, 73
1, 232378, Note_off_c, 0, 51, 61
1, 232380, Control_c, 0, 64, 57
1, 232383, Note_on_c, 0, 39, 29
1, 232395, Control_c, 0, 64, 54
1, 232410, Control_c, 0, 64, 51
1, 232425, Control_c, 0, 64, 48
1, 232426, Note_off_c, 0, 39, 47
1, 232440, Control_c, 0, 64, 45
1, 232455, Control_c, 0, 64, 42
1, 232470, Control_c, 0, 64, 39
1, 232491, Control_c, 0, 64, 36
1, 232494, Note_on_c, 0, 51, 55
1, 232495, Note_on_c, 0, 39, 39
1, 232506, Control_c, 0, 64, 34
1, 232521, Control_c, 0, 64, 33
1, 232536, Control_c, 0, 64, 33
1, 232551, Control_c, 0, 64, 32
1, 232558, Note_off_c, 0, 51, 53
1, 232566, Control_c, 0, 64, 32
1, 232608, Note_on_c, 0, 78, 79
1, 232617, Note_on_c, 0, 49, 55
1, 232632, Note_off_c, 0, 39, 37
1, 232673, Note_off_c, 0, 49, 56
1, 232714, Control_c, 0, 64, 32
1, 232721, Note_on_c, 0, 75, 18
1, 232724, Note_on_c, 0, 51, 54
1, 232728, Control_c, 0, 64, 33
1, 232743, Control_c, 0, 64, 33
1, 232749, Note_on_c, 0, 39, 34
1, 232751, Note_off_c, 0, 51, 60
1, 232767, Note_off_c, 0, 73, 25
1, 232780, Note_off_c, 0, 68, 56
1, 232789, Note_off_c, 0, 39, 49
1, 232848, Note_on_c, 0, 51, 53
1, 232855, Note_off_c, 0, 75, 40
1, 232858, Note_on_c, 0, 71, 71
1, 232873, Note_on_c, 0, 39, 40
1, 232885, Note_off_c, 0, 51, 64
1, 232891, Control_c, 0, 64, 34
1, 232910, Note_off_c, 0, 71, 61
1, 232915, Note_on_c, 0, 73, 72
1, 232965, Note_on_c, 0, 49, 57
1, 232965, Note_on_c, 0, 71, 73
1, 233004, Note_off_c, 0, 78, 63
1, 233004, Note_off_c, 0, 39, 45
1, 233018, Note_off_c, 0, 73, 54
1, 233026, Note_off_c, 0, 49, 54
1, 233108, Note_on_c, 0, 51, 57
1, 233111, Note_on_c, 0, 64, 71
1, 233123, Note_off_c, 0, 71, 61
1, 233123, Note_on_c, 0, 39, 46
1, 233144, Note_off_c, 0, 51, 65
1, 233159, Note_off_c, 0, 39, 60
1, 233234, Note_on_c, 0, 51, 60
1, 233254, Note_on_c, 0, 39, 47
1, 233269, Control_c, 0, 64, 33
1, 233278, Note_off_c, 0, 51, 59
1, 233295, Note_off_c, 0, 39, 62
1, 233329, Control_c, 0, 64, 33
1, 233381, Note_on_c, 0, 69, 66
1, 233392, Note_on_c, 0, 49, 47
1, 233410, Note_off_c, 0, 64, 61
1, 233435, Note_off_c, 0, 49, 60
1, 233524, Note_on_c, 0, 51, 41
1, 233555, Note_off_c, 0, 51, 50
1, 233560, Poly_aftertouch_c, 0, 39, 0
1, 233633, Note_on_c, 0, 51, 55
1, 233636, Note_on_c, 0, 75, 58
1, 233654, Note_on_c, 0, 39, 27
1, 233666, Note_off_c, 0, 51, 64
1, 233696, Note_off_c, 0, 39, 44
1, 233752, Note_on_c, 0, 51, 49
1, 233764, Note_on_c, 0, 39, 32
1, 233788, Note_off_c, 0, 51, 54
1, 233836, Note_off_c, 0, 39, 41
1, 233861, Note_off_c, 0, 69, 64
1, 233863, Control_c, 0, 64, 33
1, 233877, Control_c, 0, 64, 34
1, 233889, Note_on_c, 0, 68, 57
1, 233892, Control_c, 0, 64, 37
1, 233904, Note_on_c, 0, 49, 39
1, 233907, Control_c, 0, 64, 42
1, 233922, Note_off_c, 0, 68, 61
1, 233922, Control_c, 0, 64, 47
1, 233937, Control_c, 0, 64, 50
1, 233952, Control_c, 0, 64, 52
1, 233958, Note_on_c, 0, 70, 56
1, 233967, Control_c, 0, 64, 55
1, 233988, Control_c, 0, 64, 58
1, 234003, Control_c, 0, 64, 59
1, 234016, Note_off_c, 0, 70, 58
1, 234016, Note_off_c, 0, 49, 62
1, 234018, Control_c, 0, 64, 61
1, 234025, Note_on_c, 0, 68, 57
1, 234033, Control_c, 0, 64, 62
1, 234034, Note_on_c, 0, 51, 49
1, 234048, Control_c, 0, 64, 63
1, 234062, Control_c, 0, 64, 65
1, 234077, Control_c, 0, 64, 66
1, 234087, Note_off_c, 0, 51, 60
1, 234092, Control_c, 0, 64, 67
1, 234102, Note_off_c, 0, 75, 53
1, 234107, Control_c, 0, 64, 69
1, 234122, Note_off_c, 0, 68, 60
1, 234122, Control_c, 0, 64, 69
1, 234226, Control_c, 0, 64, 69
1, 234241, Control_c, 0, 64, 68
1, 234254, Note_on_c, 0, 49, 42
1, 234255, Control_c, 0, 64, 68
1, 234259, Note_on_c, 0, 75, 49
1, 234270, Control_c, 0, 64, 67
1, 234285, Control_c, 0, 64, 67
1, 234300, Control_c, 0, 64, 66
1, 234344, Control_c, 0, 64, 66
1, 234369, Poly_aftertouch_c, 0, 63, 127
1, 234373, Control_c, 0, 64, 65
1, 234388, Control_c, 0, 64, 65
1, 234418, Control_c, 0, 64, 64
1, 234447, Control_c, 0, 64, 64
1, 234462, Control_c, 0, 64, 63
1, 234477, Control_c, 0, 64, 63
1, 234481, Note_on_c, 0, 54, 61
1, 234489, Note_on_c, 0, 73, 54
1, 234492, Control_c, 0, 64, 62
1, 234507, Control_c, 0, 64, 62
1, 234521, Control_c, 0, 64, 61
1, 234536, Control_c, 0, 64, 61
1, 234538, Poly_aftertouch_c, 0, 63, 0
1, 234551, Control_c, 0, 64, 60
1, 234557, Note_off_c, 0, 75, 57
1, 234566, Control_c, 0, 64, 60
1, 234596, Control_c, 0, 64, 59
1, 234641, Control_c, 0, 64, 59
1, 234685, Control_c, 0, 64, 58
1, 234693, Note_on_c, 0, 75, 58
1, 234702, Note_on_c, 0, 59, 58
1, 234707, Note_on_c, 0, 63, 32
1, 234742, Note_off_c, 0, 73, 60
1, 234856, Control_c, 0, 64, 58
1, 234879, Note_on_c, 0, 52, 73
1, 234911, Note_on_c, 0, 73, 65
1, 234915, Control_c, 0, 64, 57
1, 234921, Note_off_c, 0, 49, 63
1, 234945, Control_c, 0, 64, 57
1, 234962, Note_off_c, 0, 63, 41
1, 234964, Note_off_c, 0, 75, 57
1, 234989, Control_c, 0, 64, 56
1, 235004, Control_c, 0, 64, 56
1, 235049, Control_c, 0, 64, 55
1, 235053, Note_off_c, 0, 59, 35
1, 235067, Note_on_c, 0, 46, 64
1, 235078, Control_c, 0, 64, 55
1, 235093, Note_on_c, 0, 75, 61
1, 235103, Note_on_c, 0, 63, 40
1, 235108, Control_c, 0, 64, 54
1, 235117, Note_off_c, 0, 52, 65
1, 235123, Control_c, 0, 64, 54
1, 235130, Note_off_c, 0, 54, 58
1, 235153, Control_c, 0, 64, 53
1, 235156, Note_off_c, 0, 73, 60
1, 235197, Control_c, 0, 64, 53
1, 235251, Note_on_c, 0, 51, 73
1, 235275, Note_on_c, 0, 73, 63
1, 235317, Note_off_c, 0, 63, 37
1, 235329, Note_off_c, 0, 75, 58
1, 235428, Note_off_c, 0, 46, 54
1, 235447, Note_on_c, 0, 56, 57
1, 235478, Note_on_c, 0, 75, 55
1, 235490, Note_on_c, 0, 63, 30
1, 235509, Note_off_c, 0, 73, 60
1, 235632, Note_on_c, 0, 49, 54
1, 235637, Note_off_c, 0, 56, 60
1, 235657, Note_on_c, 0, 73, 49
1, 235678, Note_off_c, 0, 75, 56
1, 235694, Note_off_c, 0, 51, 55
1, 235699, Note_off_c, 0, 63, 34
1, 235825, Note_on_c, 0, 42, 46
1, 235857, Note_on_c, 0, 75, 43
1, 235859, Note_off_c, 0, 49, 63
1, 235861, Note_off_c, 0, 73, 57
1, 235866, Note_on_c, 0, 63, 12
1, 236041, Note_on_c, 0, 47, 46
1, 236048, Note_off_c, 0, 75, 56
1, 236049, Note_on_c, 0, 73, 37
1, 236098, Note_off_c, 0, 63, 37
1, 236123, Control_c, 0, 64, 53
1, 236225, Note_off_c, 0, 42, 36
1, 236283, Note_on_c, 0, 52, 38
1, 236285, Note_on_c, 0, 75, 42
1, 236306, Note_off_c, 0, 73, 37
1, 236337, Note_on_c, 0, 63, 10
1, 236461, Note_off_c, 0, 47, 29
1, 236512, Note_off_c, 0, 75, 54
1, 236517, Note_on_c, 0, 45, 34
1, 236537, Note_on_c, 0, 73, 32
1, 236562, Control_c, 0, 64, 54
1, 236576, Control_c, 0, 64, 56
1, 236591, Control_c, 0, 64, 58
1, 236601, Note_off_c, 0, 73, 46
1, 236606, Control_c, 0, 64, 60
1, 236621, Control_c, 0, 64, 62
1, 236636, Control_c, 0, 64, 63
1, 236650, Control_c, 0, 64, 64
1, 236661, Note_off_c, 0, 52, 35
1, 236665, Control_c, 0, 64, 66
1, 236680, Control_c, 0, 64, 68
1, 236695, Control_c, 0, 64, 71
1, 236710, Control_c, 0, 64, 74
1, 236721, Note_off_c, 0, 63, 39
1, 236724, Control_c, 0, 64, 76
1, 236739, Control_c, 0, 64, 76
1, 236769, Control_c, 0, 64, 76
1, 236843, Note_on_c, 0, 52, 34
1, 236850, Note_on_c, 0, 63, 38
1, 236852, Note_on_c, 0, 39, 43
1, 236858, Control_c, 0, 64, 74
1, 236873, Control_c, 0, 64, 71
1, 236888, Control_c, 0, 64, 66
1, 236901, Control_c, 0, 64, 62
1, 236916, Control_c, 0, 64, 59
1, 236930, Control_c, 0, 64, 57
1, 236935, Note_off_c, 0, 45, 44
1, 236945, Control_c, 0, 64, 58
1, 236954, Note_off_c, 0, 63, 57
1, 236960, Control_c, 0, 64, 59
1, 236984, Control_c, 0, 64, 60
1, 236997, Note_on_c, 0, 61, 40
1, 236998, Control_c, 0, 64, 62
1, 237013, Control_c, 0, 64, 63
1, 237028, Control_c, 0, 64, 64
1, 237043, Control_c, 0, 64, 65
1, 237058, Control_c, 0, 64, 66
1, 237072, Control_c, 0, 64, 67
1, 237087, Control_c, 0, 64, 69
1, 237097, Note_off_c, 0, 61, 58
1, 237102, Note_on_c, 0, 63, 53
1, 237102, Control_c, 0, 64, 71
1, 237117, Control_c, 0, 64, 73
1, 237118, Note_off_c, 0, 52, 52
1, 237132, Control_c, 0, 64, 76
1, 237146, Control_c, 0, 64, 77
1, 237161, Control_c, 0, 64, 78
1, 237176, Control_c, 0, 64, 78
1, 237191, Control_c, 0, 64, 79
1, 237220, Control_c, 0, 64, 78
1, 237232, Note_on_c, 0, 66, 51
1, 237235, Control_c, 0, 64, 78
1, 237265, Control_c, 0, 64, 77
1, 237279, Control_c, 0, 64, 77
1, 237294, Control_c, 0, 64, 76
1, 237296, Note_off_c, 0, 63, 53
1, 237309, Control_c, 0, 64, 75
1, 237311, Note_off_c, 0, 66, 53
1, 237368, Control_c, 0, 64, 76
1, 237383, Note_off_c, 0, 39, 54
1, 237383, Control_c, 0, 64, 75
1, 237384, Note_on_c, 0, 51, 36
1, 237385, Note_on_c, 0, 40, 45
1, 237398, Note_on_c, 0, 71, 47
1, 237398, Control_c, 0, 64, 73
1, 237413, Control_c, 0, 64, 67
1, 237419, Note_on_c, 0, 68, 42
1, 237428, Control_c, 0, 64, 63
1, 237443, Control_c, 0, 64, 59
1, 237458, Control_c, 0, 64, 58
1, 237472, Control_c, 0, 64, 58
1, 237487, Control_c, 0, 64, 60
1, 237502, Control_c, 0, 64, 62
1, 237517, Control_c, 0, 64, 64
1, 237532, Control_c, 0, 64, 66
1, 237546, Control_c, 0, 64, 68
1, 237561, Control_c, 0, 64, 71
1, 237576, Control_c, 0, 64, 75
1, 237590, Control_c, 0, 64, 80
1, 237605, Control_c, 0, 64, 85
1, 237606, Note_off_c, 0, 68, 62
1, 237606, Note_off_c, 0, 71, 59
1, 237620, Control_c, 0, 64, 89
1, 237635, Control_c, 0, 64, 91
1, 237650, Control_c, 0, 64, 91
1, 237761, Control_c, 0, 64, 91
1, 237821, Control_c, 0, 64, 90
1, 237836, Control_c, 0, 64, 90
1, 237876, Note_on_c, 0, 77, 53
1, 237887, Note_on_c, 0, 73, 40
1, 237906, Note_off_c, 0, 51, 55
1, 237910, Control_c, 0, 64, 89
1, 237910, Control_c, 0, 67, 124
1, 237914, Note_off_c, 0, 73, 55
1, 237925, Control_c, 0, 64, 89
1, 237925, Control_c, 0, 67, 108
1, 237940, Control_c, 0, 67, 90
1, 237955, Control_c, 0, 67, 73
1, 237969, Control_c, 0, 67, 53
1, 237982, Note_on_c, 0, 52, 44
1, 237984, Control_c, 0, 67, 36
1, 237999, Control_c, 0, 64, 89
1, 237999, Control_c, 0, 67, 20
1, 238007, Note_on_c, 0, 39, 43
1, 238014, Control_c, 0, 67, 0
1, 238028, Control_c, 0, 64, 87
1, 238035, Note_on_c, 0, 75, 65
1, 238043, Control_c, 0, 64, 79
1, 238053, Note_off_c, 0, 40, 40
1, 238058, Control_c, 0, 64, 69
1, 238064, Note_off_c, 0, 77, 61
1, 238073, Control_c, 0, 64, 61
1, 238088, Control_c, 0, 64, 58
1, 238102, Control_c, 0, 64, 59
1, 238117, Control_c, 0, 64, 61
1, 238132, Control_c, 0, 64, 63
1, 238146, Control_c, 0, 64, 66
1, 238150, Note_on_c, 0, 73, 74
1, 238153, Note_off_c, 0, 75, 62
1, 238161, Control_c, 0, 64, 71
1, 238176, Control_c, 0, 64, 77
1, 238191, Control_c, 0, 64, 87
1, 238206, Control_c, 0, 64, 108
1, 238221, Control_c, 0, 64, 127
1, 238263, Note_on_c, 0, 75, 80
1, 238270, Note_off_c, 0, 73, 58
1, 238310, Note_off_c, 0, 52, 55
1, 238330, Note_off_c, 0, 75, 56
1, 238370, Note_on_c, 0, 75, 47
1, 238381, Note_on_c, 0, 78, 70
1, 238426, Note_off_c, 0, 75, 60
1, 238447, Note_off_c, 0, 78, 60
1, 238540, Control_c, 0, 64, 118
1, 238554, Control_c, 0, 64, 89
1, 238563, Note_on_c, 0, 80, 53
1, 238570, Note_on_c, 0, 40, 42
1, 238570, Control_c, 0, 64, 71
1, 238581, Note_on_c, 0, 83, 67
1, 238585, Control_c, 0, 64, 59
1, 238591, Note_on_c, 0, 51, 23
1, 238599, Control_c, 0, 64, 38
1, 238607, Note_off_c, 0, 39, 36
1, 238614, Control_c, 0, 64, 29
1, 238629, Control_c, 0, 64, 31
1, 238644, Control_c, 0, 64, 39
1, 238659, Control_c, 0, 64, 48
1, 238674, Control_c, 0, 64, 55
1, 238689, Control_c, 0, 64, 59
1, 238704, Control_c, 0, 64, 62
1, 238718, Control_c, 0, 64, 63
1, 238733, Control_c, 0, 64, 65
1, 238748, Control_c, 0, 64, 68
1, 238748, Control_c, 0, 67, 29
1, 238756, Note_off_c, 0, 83, 63
1, 238760, Note_off_c, 0, 80, 63
1, 238763, Control_c, 0, 64, 71
1, 238763, Control_c, 0, 67, 55
1, 238778, Control_c, 0, 64, 75
1, 238778, Control_c, 0, 67, 78
1, 238792, Control_c, 0, 64, 78
1, 238792, Control_c, 0, 67, 99
1, 238807, Control_c, 0, 64, 80
1, 238807, Control_c, 0, 67, 122
1, 238822, Control_c, 0, 64, 81
1, 238822, Control_c, 0, 67, 127
1, 238851, Control_c, 0, 64, 81
1, 238881, Control_c, 0, 64, 82
1, 238896, Control_c, 0, 64, 83
1, 238911, Control_c, 0, 64, 83
1, 238976, Note_off_c, 0, 40, 43
1, 238984, Control_c, 0, 64, 84
1, 239038, Note_on_c, 0, 85, 50
1, 239040, Note_on_c, 0, 89, 52
1, 239060, Note_off_c, 0, 85, 62
1, 239060, Note_off_c, 0, 89, 59
1, 239073, Control_c, 0, 64, 83
1, 239092, Note_off_c, 0, 51, 26
1, 239103, Control_c, 0, 64, 82
1, 239118, Control_c, 0, 64, 82
1, 239133, Control_c, 0, 64, 81
1, 239148, Control_c, 0, 64, 80
1, 239162, Control_c, 0, 64, 80
1, 239177, Control_c, 0, 64, 78
1, 239192, Control_c, 0, 64, 77
1, 239207, Control_c, 0, 64, 76
1, 239229, Control_c, 0, 64, 75
1, 239243, Control_c, 0, 64, 74
1, 239258, Control_c, 0, 64, 72
1, 239273, Control_c, 0, 64, 71
1, 239288, Control_c, 0, 64, 68
1, 239291, Note_on_c, 0, 39, 39
1, 239293, Note_on_c, 0, 52, 34
1, 239303, Control_c, 0, 64, 64
1, 239318, Control_c, 0, 64, 61
1, 239332, Control_c, 0, 64, 56
1, 239347, Control_c, 0, 64, 52
1, 239362, Control_c, 0, 64, 50
1, 239392, Control_c, 0, 64, 51
1, 239407, Control_c, 0, 64, 53
1, 239422, Control_c, 0, 64, 55
1, 239437, Control_c, 0, 64, 58
1, 239452, Control_c, 0, 64, 60
1, 239467, Control_c, 0, 64, 62
1, 239468, Note_on_c, 0, 61, 36
1, 239482, Control_c, 0, 64, 63
1, 239496, Control_c, 0, 64, 64
1, 239511, Control_c, 0, 64, 65
1, 239526, Control_c, 0, 64, 66
1, 239541, Control_c, 0, 64, 67
1, 239556, Control_c, 0, 64, 68
1, 239571, Control_c, 0, 64, 70
1, 239586, Control_c, 0, 64, 71
1, 239600, Control_c, 0, 64, 73
1, 239615, Control_c, 0, 64, 73
1, 239619, Note_off_c, 0, 52, 43
1, 239627, Note_on_c, 0, 63, 37
1, 239630, Control_c, 0, 64, 74
1, 239645, Control_c, 0, 64, 75
1, 239657, Note_on_c, 0, 66, 49
1, 239660, Control_c, 0, 64, 76
1, 239666, Note_off_c, 0, 61, 33
1, 239689, Control_c, 0, 64, 76
1, 239745, Note_off_c, 0, 63, 37
1, 239748, Control_c, 0, 64, 76
1, 239789, Note_off_c, 0, 66, 33
1, 239807, Control_c, 0, 64, 75
1, 239822, Control_c, 0, 64, 73
1, 239837, Control_c, 0, 64, 67
1, 239840, Note_off_c, 0, 39, 42
1, 239852, Control_c, 0, 64, 63
1, 239862, Note_on_c, 0, 68, 44
1, 239863, Note_on_c, 0, 40, 34
1, 239866, Control_c, 0, 64, 62
1, 239877, Note_on_c, 0, 71, 37
1, 239881, Control_c, 0, 64, 63
1, 239884, Note_on_c, 0, 51, 33
1, 239896, Control_c, 0, 64, 64
1, 239904, Note_off_c, 0, 68, 62
1, 239908, Note_off_c, 0, 71, 59
1, 239911, Control_c, 0, 64, 66
1, 239926, Control_c, 0, 64, 68
1, 239941, Control_c, 0, 64, 70
1, 239956, Control_c, 0, 64, 71
1, 239978, Control_c, 0, 64, 73
1, 239992, Control_c, 0, 64, 73
1, 240022, Control_c, 0, 64, 73
1, 240052, Control_c, 0, 64, 72
1, 240066, Control_c, 0, 64, 71
1, 240081, Control_c, 0, 64, 70
1, 240083, Note_on_c, 0, 77, 50
1, 240096, Control_c, 0, 64, 68
1, 240105, Note_on_c, 0, 73, 50
1, 240111, Control_c, 0, 64, 66
1, 240126, Control_c, 0, 64, 64
1, 240140, Control_c, 0, 64, 63
1, 240201, Control_c, 0, 64, 64
1, 240215, Control_c, 0, 64, 64
1, 240230, Control_c, 0, 64, 65
1, 240245, Control_c, 0, 64, 66
1, 240260, Control_c, 0, 64, 67
1, 240275, Control_c, 0, 64, 69
1, 240289, Control_c, 0, 64, 70
1, 240304, Control_c, 0, 64, 71
1, 240319, Control_c, 0, 64, 73
1, 240334, Control_c, 0, 64, 74
1, 240345, Note_off_c, 0, 40, 43
1, 240349, Control_c, 0, 64, 76
1, 240364, Control_c, 0, 64, 76
1, 240379, Control_c, 0, 64, 77
1, 240394, Control_c, 0, 64, 77
1, 240401, Note_off_c, 0, 73, 38
1, 240409, Control_c, 0, 64, 78
1, 240423, Control_c, 0, 64, 79
1, 240438, Control_c, 0, 64, 79
1, 240472, Note_off_c, 0, 51, 39
1, 240512, Control_c, 0, 64, 79
1, 240578, Note_on_c, 0, 52, 35
1, 240586, Control_c, 0, 64, 78
1, 240588, Note_on_c, 0, 39, 38
1, 240601, Control_c, 0, 64, 76
1, 240615, Control_c, 0, 64, 70
1, 240630, Control_c, 0, 64, 63
1, 240645, Control_c, 0, 64, 58
1, 240660, Control_c, 0, 64, 54
1, 240675, Control_c, 0, 64, 53
1, 240689, Control_c, 0, 64, 54
1, 240703, Note_off_c, 0, 77, 60
1, 240704, Control_c, 0, 64, 55
1, 240727, Control_c, 0, 64, 58
1, 240742, Control_c, 0, 64, 60
1, 240757, Control_c, 0, 64, 62
1, 240771, Control_c, 0, 64, 63
1, 240773, Note_on_c, 0, 73, 48
1, 240786, Control_c, 0, 64, 65
1, 240801, Control_c, 0, 64, 66
1, 240815, Control_c, 0, 64, 67
1, 240830, Control_c, 0, 64, 68
1, 240845, Control_c, 0, 64, 70
1, 240860, Control_c, 0, 64, 72
1, 240875, Control_c, 0, 64, 74
1, 240889, Control_c, 0, 64, 75
1, 240904, Control_c, 0, 64, 76
1, 240934, Note_off_c, 0, 52, 44
1, 240934, Control_c, 0, 64, 76
1, 240954, Note_off_c, 0, 73, 39
1, 240956, Note_on_c, 0, 75, 39
1, 240965, Control_c, 0, 64, 77
1, 240969, Note_on_c, 0, 78, 49
1, 240980, Control_c, 0, 64, 77
1, 241022, Note_off_c, 0, 75, 54
1, 241140, Note_off_c, 0, 78, 30
1, 241185, Note_off_c, 0, 39, 41
1, 241202, Control_c, 0, 64, 75
1, 241216, Note_on_c, 0, 40, 34
1, 241216, Control_c, 0, 64, 71
1, 241218, Note_on_c, 0, 51, 46
1, 241228, Note_on_c, 0, 80, 14
1, 241228, Note_on_c, 0, 83, 51
1, 241231, Control_c, 0, 64, 64
1, 241246, Control_c, 0, 64, 60
1, 241261, Control_c, 0, 64, 59
1, 241276, Control_c, 0, 64, 60
1, 241291, Control_c, 0, 64, 62
1, 241306, Control_c, 0, 64, 64
1, 241309, Note_off_c, 0, 80, 60
1, 241320, Control_c, 0, 64, 66
1, 241321, Note_off_c, 0, 83, 64
1, 241335, Control_c, 0, 64, 69
1, 241350, Control_c, 0, 64, 73
1, 241365, Control_c, 0, 64, 78
1, 241380, Control_c, 0, 64, 85
1, 241394, Control_c, 0, 64, 94
1, 241409, Control_c, 0, 64, 110
1, 241424, Control_c, 0, 64, 127
1, 241509, Note_on_c, 0, 89, 54
1, 241535, Control_c, 0, 67, 113
1, 241550, Control_c, 0, 67, 98
1, 241559, Note_on_c, 0, 85, 34
1, 241565, Control_c, 0, 67, 82
1, 241580, Control_c, 0, 67, 65
1, 241594, Control_c, 0, 67, 45
1, 241609, Control_c, 0, 67, 23
1, 241624, Control_c, 0, 67, 0
1, 241778, Note_off_c, 0, 40, 44
1, 241868, Note_off_c, 0, 85, 55
1, 241883, Note_off_c, 0, 89, 32
1, 241937, Note_off_c, 0, 51, 57
1, 242038, Note_on_c, 0, 52, 107
1, 242040, Note_on_c, 0, 39, 96
1, 242129, Control_c, 0, 64, 91
1, 242143, Control_c, 0, 64, 74
1, 242158, Control_c, 0, 64, 64
1, 242173, Control_c, 0, 64, 58
1, 242187, Control_c, 0, 64, 56
1, 242202, Control_c, 0, 64, 56
1, 242239, Control_c, 0, 64, 57
1, 242260, Note_on_c, 0, 87, 74
1, 242260, Note_on_c, 0, 94, 100
1, 242275, Note_off_c, 0, 87, 69
1, 242284, Control_c, 0, 64, 56
1, 242293, Note_on_c, 0, 92, 50
1, 242294, Note_off_c, 0, 92, 127
1, 242294, Note_on_c, 0, 86, 52
1, 242297, Note_off_c, 0, 94, 65
1, 242299, Control_c, 0, 64, 56
1, 242313, Note_off_c, 0, 86, 42
1, 242314, Control_c, 0, 64, 54
1, 242329, Control_c, 0, 64, 52
1, 242340, Note_on_c, 0, 94, 76
1, 242341, Note_on_c, 0, 96, 84
1, 242343, Note_on_c, 0, 86, 75
1, 242343, Note_on_c, 0, 95, 86
1, 242344, Control_c, 0, 64, 48
1, 242356, Note_on_c, 0, 88, 53
1, 242359, Control_c, 0, 64, 38
1, 242365, Note_off_c, 0, 94, 67
1, 242366, Note_off_c, 0, 86, 70
1, 242368, Note_off_c, 0, 95, 64
1, 242373, Note_off_c, 0, 96, 65
1, 242374, Control_c, 0, 64, 0
1, 242377, Note_off_c, 0, 88, 61
1, 242401, Note_on_c, 0, 97, 67
1, 242422, Note_on_c, 0, 96, 79
1, 242433, Note_on_c, 0, 86, 69
1, 242434, Note_on_c, 0, 95, 67
1, 242487, Note_on_c, 0, 94, 53
1, 242499, Note_off_c, 0, 95, 61
1, 242507, Note_off_c, 0, 94, 60
1, 242512, Note_on_c, 0, 98, 75
1, 242538, Note_off_c, 0, 97, 63
1, 242555, Note_off_c, 0, 86, 41
1, 242563, Note_off_c, 0, 96, 0
1, 242582, Control_c, 0, 64, 18
1, 242587, Note_off_c, 0, 98, 58
1, 242597, Control_c, 0, 64, 43
1, 242612, Control_c, 0, 64, 55
1, 242619, Poly_aftertouch_c, 0, 96, 0
1, 242627, Control_c, 0, 64, 63
1, 242641, Control_c, 0, 64, 67
1, 242656, Control_c, 0, 64, 72
1, 242671, Control_c, 0, 64, 79
1, 242685, Control_c, 0, 64, 90
1, 242700, Control_c, 0, 64, 105
1, 242715, Control_c, 0, 64, 127
1, 242729, Note_off_c, 0, 52, 60
1, 242767, Note_on_c, 0, 45, 33
1, 242808, Note_on_c, 0, 51, 94
1, 242808, Poly_aftertouch_c, 0, 94, 127
1, 242812, Note_on_c, 0, 40, 71
1, 242824, Note_off_c, 0, 45, 43
1, 242833, Control_c, 0, 64, 99
1, 242848, Control_c, 0, 64, 82
1, 242852, Note_off_c, 0, 39, 59
1, 242863, Control_c, 0, 64, 69
1, 242878, Control_c, 0, 64, 58
1, 242893, Control_c, 0, 64, 39
1, 242908, Control_c, 0, 64, 30
1, 242951, Poly_aftertouch_c, 0, 94, 0
1, 243018, Control_c, 0, 64, 32
1, 243033, Control_c, 0, 64, 35
1, 243048, Control_c, 0, 64, 39
1, 243063, Control_c, 0, 64, 44
1, 243078, Control_c, 0, 64, 49
1, 243092, Control_c, 0, 64, 53
1, 243107, Control_c, 0, 64, 57
1, 243122, Control_c, 0, 64, 59
1, 243137, Control_c, 0, 64, 60
1, 243152, Control_c, 0, 64, 62
1, 243167, Control_c, 0, 64, 63
1, 243182, Control_c, 0, 64, 65
1, 243197, Control_c, 0, 64, 69
1, 243211, Control_c, 0, 64, 75
1, 243226, Control_c, 0, 64, 82
1, 243241, Control_c, 0, 64, 92
1, 243256, Control_c, 0, 64, 107
1, 243271, Control_c, 0, 64, 127
1, 243705, Note_on_c, 0, 52, 84
1, 243721, Note_on_c, 0, 39, 74
1, 243733, Note_off_c, 0, 51, 64
1, 243758, Note_off_c, 0, 40, 39
1, 243886, Control_c, 0, 64, 110
1, 243896, Note_on_c, 0, 87, 91
1, 243901, Note_on_c, 0, 80, 68
1, 243901, Control_c, 0, 64, 86
1, 243915, Control_c, 0, 64, 72
1, 243916, Note_off_c, 0, 80, 66
1, 243930, Control_c, 0, 64, 59
1, 243941, Note_on_c, 0, 79, 35
1, 243945, Control_c, 0, 64, 31
1, 243960, Control_c, 0, 64, 0
1, 243964, Note_off_c, 0, 87, 0
1, 243966, Note_off_c, 0, 79, 0
1, 243966, Note_on_c, 0, 79, 57
1, 243972, Note_on_c, 0, 88, 92
1, 243975, Note_on_c, 0, 87, 56
1, 244009, Note_off_c, 0, 79, 67
1, 244026, Note_off_c, 0, 88, 58
1, 244035, Note_off_c, 0, 87, 41
1, 244049, Note_on_c, 0, 89, 89
1, 244062, Note_on_c, 0, 88, 65
1, 244063, Note_on_c, 0, 78, 85
1, 244085, Note_off_c, 0, 78, 70
1, 244088, Note_off_c, 0, 88, 59
1, 244094, Note_on_c, 0, 77, 59
1, 244095, Note_on_c, 0, 87, 74
1, 244119, Note_on_c, 0, 90, 91
1, 244123, Note_on_c, 0, 76, 27
1, 244135, Note_off_c, 0, 89, 57
1, 244136, Note_off_c, 0, 87, 64
1, 244160, Note_off_c, 0, 76, 35
1, 244166, Note_off_c, 0, 77, 64
1, 244169, Note_off_c, 0, 90, 65
1, 244198, Control_c, 0, 64, 23
1, 244213, Control_c, 0, 64, 39
1, 244228, Control_c, 0, 64, 48
1, 244243, Control_c, 0, 64, 53
1, 244258, Control_c, 0, 64, 56
1, 244272, Control_c, 0, 64, 58
1, 244287, Control_c, 0, 64, 60
1, 244302, Control_c, 0, 64, 61
1, 244317, Control_c, 0, 64, 62
1, 244379, Note_off_c, 0, 52, 61
1, 244478, Note_on_c, 0, 51, 83
1, 244480, Note_on_c, 0, 40, 62
1, 244520, Note_off_c, 0, 39, 59
1, 244546, Control_c, 0, 64, 61
1, 244561, Control_c, 0, 64, 60
1, 244576, Control_c, 0, 64, 59
1, 244591, Control_c, 0, 64, 57
1, 244606, Control_c, 0, 64, 55
1, 244620, Control_c, 0, 64, 54
1, 244635, Control_c, 0, 64, 53
1, 244650, Control_c, 0, 64, 52
1, 244664, Control_c, 0, 64, 51
1, 244679, Control_c, 0, 64, 50
1, 244709, Control_c, 0, 64, 49
1, 244753, Control_c, 0, 64, 49
1, 244857, Control_c, 0, 64, 49
1, 244872, Control_c, 0, 64, 51
1, 244887, Control_c, 0, 64, 52
1, 244902, Control_c, 0, 64, 55
1, 244917, Control_c, 0, 64, 57
1, 244931, Control_c, 0, 64, 58
1, 244946, Control_c, 0, 64, 60
1, 244961, Control_c, 0, 64, 61
1, 244976, Control_c, 0, 64, 62
1, 244991, Control_c, 0, 64, 63
1, 245006, Control_c, 0, 64, 63
1, 245021, Control_c, 0, 64, 64
1, 245036, Control_c, 0, 64, 65
1, 245051, Control_c, 0, 64, 67
1, 245066, Control_c, 0, 64, 68
1, 245080, Control_c, 0, 64, 70
1, 245095, Control_c, 0, 64, 72
1, 245110, Control_c, 0, 64, 74
1, 245125, Control_c, 0, 64, 75
1, 245325, Control_c, 0, 64, 75
1, 245393, Note_off_c, 0, 51, 56
1, 245395, Note_on_c, 0, 52, 56
1, 245397, Note_off_c, 0, 40, 57
1, 245413, Control_c, 0, 64, 74
1, 245415, Note_on_c, 0, 39, 47
1, 245443, Control_c, 0, 64, 74
1, 245458, Control_c, 0, 64, 73
1, 245487, Control_c, 0, 64, 72
1, 245502, Control_c, 0, 64, 72
1, 245517, Control_c, 0, 64, 70
1, 245532, Control_c, 0, 64, 68
1, 245547, Control_c, 0, 64, 66
1, 245561, Control_c, 0, 64, 64
1, 245573, Note_on_c, 0, 82, 70
1, 245576, Control_c, 0, 64, 60
1, 245590, Note_on_c, 0, 75, 41
1, 245591, Control_c, 0, 64, 56
1, 245605, Control_c, 0, 64, 52
1, 245617, Note_off_c, 0, 75, 36
1, 245620, Control_c, 0, 64, 50
1, 245635, Control_c, 0, 64, 49
1, 245640, Note_on_c, 0, 74, 61
1, 245650, Control_c, 0, 64, 48
1, 245651, Note_on_c, 0, 83, 78
1, 245665, Control_c, 0, 64, 46
1, 245672, Note_off_c, 0, 74, 66
1, 245678, Note_off_c, 0, 82, 61
1, 245680, Control_c, 0, 64, 42
1, 245682, Note_off_c, 0, 83, 59
1, 245695, Control_c, 0, 64, 36
1, 245710, Control_c, 0, 64, 32
1, 245715, Note_on_c, 0, 84, 85
1, 245722, Note_on_c, 0, 73, 85
1, 245725, Control_c, 0, 64, 29
1, 245739, Control_c, 0, 64, 27
1, 245745, Note_off_c, 0, 73, 68
1, 245755, Note_on_c, 0, 83, 14
1, 245755, Control_c, 0, 64, 26
1, 245760, Note_off_c, 0, 84, 60
1, 245770, Control_c, 0, 64, 25
1, 245784, Control_c, 0, 64, 24
1, 245796, Note_on_c, 0, 72, 77
1, 245798, Note_on_c, 0, 85, 84
1, 245801, Note_off_c, 0, 83, 28
1, 245817, Note_off_c, 0, 85, 73
1, 245826, Note_off_c, 0, 72, 61
1, 245874, Control_c, 0, 64, 29
1, 245889, Control_c, 0, 64, 37
1, 245903, Control_c, 0, 64, 44
1, 245918, Control_c, 0, 64, 49
1, 245933, Control_c, 0, 64, 53
1, 245948, Control_c, 0, 64, 55
1, 245970, Control_c, 0, 64, 58
1, 245984, Control_c, 0, 64, 60
1, 245999, Control_c, 0, 64, 62
1, 246014, Control_c, 0, 64, 63
1, 246029, Control_c, 0, 64, 64
1, 246044, Control_c, 0, 64, 64
1, 246058, Control_c, 0, 64, 65
1, 246062, Note_off_c, 0, 52, 52
1, 246088, Control_c, 0, 64, 64
1, 246103, Control_c, 0, 64, 64
1, 246118, Control_c, 0, 64, 63
1, 246133, Control_c, 0, 64, 61
1, 246148, Control_c, 0, 64, 59
1, 246163, Control_c, 0, 64, 57
1, 246178, Control_c, 0, 64, 55
1, 246192, Control_c, 0, 64, 53
1, 246207, Control_c, 0, 64, 51
1, 246210, Note_on_c, 0, 40, 50
1, 246216, Note_on_c, 0, 51, 48
1, 246222, Control_c, 0, 64, 49
1, 246236, Control_c, 0, 64, 48
1, 246238, Note_off_c, 0, 39, 52
1, 246251, Control_c, 0, 64, 46
1, 246251, Control_c, 0, 67, 35
1, 246266, Control_c, 0, 64, 45
1, 246266, Control_c, 0, 67, 72
1, 246281, Control_c, 0, 64, 44
1, 246281, Control_c, 0, 67, 109
1, 246296, Control_c, 0, 64, 43
1, 246296, Control_c, 0, 67, 127
1, 246310, Control_c, 0, 64, 42
1, 246325, Control_c, 0, 64, 41
1, 246340, Control_c, 0, 64, 40
1, 246355, Control_c, 0, 64, 39
1, 246370, Control_c, 0, 64, 38
1, 246384, Control_c, 0, 64, 37
1, 246399, Control_c, 0, 64, 36
1, 246412, Note_on_c, 0, 68, 66
1, 246414, Control_c, 0, 64, 35
1, 246416, Note_on_c, 0, 75, 62
1, 246429, Control_c, 0, 64, 35
1, 246439, Note_off_c, 0, 68, 65
1, 246443, Control_c, 0, 64, 34
1, 246452, Note_off_c, 0, 75, 59
1, 246458, Control_c, 0, 64, 34
1, 246473, Control_c, 0, 64, 33
1, 246477, Note_on_c, 0, 67, 64
1, 246486, Note_on_c, 0, 76, 70
1, 246503, Control_c, 0, 64, 33
1, 246505, Note_off_c, 0, 67, 66
1, 246517, Control_c, 0, 64, 32
1, 246527, Note_off_c, 0, 76, 52
1, 246532, Control_c, 0, 64, 32
1, 246549, Note_on_c, 0, 77, 81
1, 246559, Note_on_c, 0, 66, 82
1, 246584, Note_off_c, 0, 66, 68
1, 246591, Poly_aftertouch_c, 0, 76, 0
1, 246593, Note_off_c, 0, 77, 60
1, 246622, Note_on_c, 0, 78, 86
1, 246630, Note_on_c, 0, 65, 70
1, 246654, Note_off_c, 0, 78, 66
1, 246667, Note_off_c, 0, 65, 55
1, 246778, Control_c, 0, 64, 32
1, 246778, Control_c, 0, 67, 117
1, 246793, Control_c, 0, 64, 33
1, 246793, Control_c, 0, 67, 102
1, 246807, Control_c, 0, 64, 33
1, 246807, Control_c, 0, 67, 80
1, 246822, Control_c, 0, 64, 34
1, 246822, Control_c, 0, 67, 61
1, 246837, Control_c, 0, 67, 45
1, 246852, Control_c, 0, 64, 35
1, 246852, Control_c, 0, 67, 29
1, 246866, Control_c, 0, 67, 14
1, 246881, Control_c, 0, 64, 36
1, 246881, Control_c, 0, 67, 0
1, 246896, Control_c, 0, 64, 36
1, 246911, Control_c, 0, 64, 37
1, 246941, Control_c, 0, 64, 38
1, 246956, Control_c, 0, 64, 38
1, 246971, Control_c, 0, 64, 39
1, 247000, Control_c, 0, 64, 39
1, 247015, Control_c, 0, 64, 40
1, 247030, Control_c, 0, 64, 40
1, 247059, Control_c, 0, 64, 41
1, 247074, Control_c, 0, 64, 41
1, 247089, Control_c, 0, 64, 42
1, 247119, Control_c, 0, 64, 42
1, 247133, Control_c, 0, 64, 43
1, 247163, Control_c, 0, 64, 43
1, 247170, Note_off_c, 0, 51, 58
1, 247178, Control_c, 0, 64, 44
1, 247192, Note_on_c, 0, 52, 47
1, 247193, Control_c, 0, 64, 44
1, 247197, Note_off_c, 0, 40, 36
1, 247202, Note_on_c, 0, 39, 39
1, 247207, Control_c, 0, 64, 45
1, 247222, Control_c, 0, 64, 45
1, 247237, Control_c, 0, 64, 46
1, 247252, Control_c, 0, 64, 46
1, 247266, Control_c, 0, 64, 47
1, 247281, Control_c, 0, 64, 47
1, 247296, Control_c, 0, 64, 48
1, 247311, Control_c, 0, 64, 48
1, 247325, Control_c, 0, 64, 49
1, 247340, Control_c, 0, 64, 49
1, 247356, Control_c, 0, 64, 50
1, 247386, Control_c, 0, 64, 51
1, 247400, Control_c, 0, 64, 51
1, 247415, Control_c, 0, 64, 52
1, 247430, Control_c, 0, 64, 53
1, 247445, Control_c, 0, 64, 54
1, 247467, Control_c, 0, 64, 54
1, 247481, Control_c, 0, 64, 56
1, 247496, Control_c, 0, 64, 57
1, 247511, Control_c, 0, 64, 58
1, 247526, Control_c, 0, 64, 58
1, 247541, Control_c, 0, 64, 60
1, 247555, Control_c, 0, 64, 61
1, 247570, Control_c, 0, 64, 63
1, 247585, Control_c, 0, 64, 63
1, 247600, Control_c, 0, 64, 64
1, 247615, Control_c, 0, 64, 65
1, 247629, Control_c, 0, 64, 67
1, 247644, Control_c, 0, 64, 69
1, 247659, Control_c, 0, 64, 73
1, 247674, Control_c, 0, 64, 77
1, 247689, Control_c, 0, 64, 81
1, 247704, Control_c, 0, 64, 86
1, 247719, Control_c, 0, 64, 92
1, 247734, Control_c, 0, 64, 99
1, 247749, Control_c, 0, 64, 112
1, 247763, Control_c, 0, 64, 127
1, 248050, Note_off_c, 0, 52, 55
1, 248306, Note_on_c, 0, 51, 100
1, 248309, Note_on_c, 0, 40, 76
1, 248393, Note_on_c, 0, 83, 89
1, 248394, Note_off_c, 0, 39, 37
1, 248412, Note_on_c, 0, 94, 79
1, 248419, Note_on_c, 0, 84, 55
1, 248423, Control_c, 0, 64, 99
1, 248436, Note_on_c, 0, 92, 63
1, 248437, Note_off_c, 0, 84, 64
1, 248438, Control_c, 0, 64, 70
1, 248439, Note_off_c, 0, 83, 64
1, 248452, Control_c, 0, 64, 46
1, 248453, Note_off_c, 0, 92, 64
1, 248466, Note_on_c, 0, 96, 96
1, 248467, Control_c, 0, 64, 0
1, 248491, Note_on_c, 0, 95, 56
1, 248497, Control_c, 0, 64, 48
1, 248510, Note_on_c, 0, 93, 82
1, 248512, Control_c, 0, 64, 66
1, 248515, Note_off_c, 0, 95, 53
1, 248525, Note_on_c, 0, 85, 94
1, 248527, Control_c, 0, 64, 83
1, 248529, Note_on_c, 0, 92, 85
1, 248541, Note_off_c, 0, 96, 67
1, 248542, Control_c, 0, 64, 127
1, 248550, Note_off_c, 0, 94, 60
1, 248569, Note_off_c, 0, 85, 68
1, 248596, Note_on_c, 0, 98, 112
1, 248598, Note_off_c, 0, 92, 49
1, 248616, Note_off_c, 0, 93, 66
1, 248637, Note_on_c, 0, 91, 53
1, 248682, Note_off_c, 0, 98, 65
1, 248700, Note_on_c, 0, 87, 98
1, 248700, Note_on_c, 0, 93, 15
1, 248728, Note_off_c, 0, 91, 64
1, 248744, Note_off_c, 0, 87, 67
1, 248748, Note_off_c, 0, 93, 28
1, 248774, Note_on_c, 0, 100, 105
1, 248779, Poly_aftertouch_c, 0, 44, 127
1, 248784, Note_on_c, 0, 91, 60
1, 248795, Note_on_c, 0, 92, 61
1, 248816, Note_on_c, 0, 89, 80
1, 248819, Note_off_c, 0, 92, 50
1, 248835, Note_off_c, 0, 100, 64
1, 248866, Note_off_c, 0, 91, 55
1, 248903, Note_off_c, 0, 89, 59
1, 248966, Poly_aftertouch_c, 0, 44, 0
1, 249009, Control_c, 0, 64, 112
1, 249024, Control_c, 0, 64, 95
1, 249039, Control_c, 0, 64, 86
1, 249054, Control_c, 0, 64, 80
1, 249068, Control_c, 0, 64, 75
1, 249083, Control_c, 0, 64, 72
1, 249098, Control_c, 0, 64, 69
1, 249113, Note_on_c, 0, 52, 81
1, 249113, Control_c, 0, 64, 67
1, 249118, Note_on_c, 0, 39, 75
1, 249123, Note_off_c, 0, 40, 61
1, 249127, Control_c, 0, 64, 66
1, 249130, Note_off_c, 0, 51, 63
1, 249142, Control_c, 0, 64, 63
1, 249157, Control_c, 0, 64, 59
1, 249172, Control_c, 0, 64, 54
1, 249187, Control_c, 0, 64, 45
1, 249202, Control_c, 0, 64, 28
1, 249216, Control_c, 0, 64, 0
1, 249513, Control_c, 0, 64, 23
1, 249527, Control_c, 0, 64, 42
1, 249542, Control_c, 0, 64, 53
1, 249557, Control_c, 0, 64, 60
1, 249572, Control_c, 0, 64, 65
1, 249587, Control_c, 0, 64, 69
1, 249601, Control_c, 0, 64, 76
1, 249616, Control_c, 0, 64, 91
1, 249631, Control_c, 0, 64, 118
1, 249645, Control_c, 0, 64, 127
1, 249965, Note_off_c, 0, 52, 59
1, 250112, Note_on_c, 0, 51, 95
1, 250114, Note_on_c, 0, 40, 65
1, 250188, Note_off_c, 0, 39, 37
1, 250217, Note_on_c, 0, 77, 84
1, 250232, Control_c, 0, 64, 83
1, 250247, Control_c, 0, 64, 65
1, 250256, Note_on_c, 0, 88, 63
1, 250258, Note_on_c, 0, 87, 34
1, 250261, Note_off_c, 0, 77, 66
1, 250261, Control_c, 0, 64, 39
1, 250276, Control_c, 0, 64, 17
1, 250291, Control_c, 0, 64, 34
1, 250294, Note_on_c, 0, 90, 89
1, 250306, Control_c, 0, 64, 53
1, 250321, Control_c, 0, 64, 62
1, 250336, Control_c, 0, 64, 70
1, 250350, Control_c, 0, 64, 95
1, 250365, Control_c, 0, 64, 127
1, 250366, Note_off_c, 0, 88, 60
1, 250376, Note_on_c, 0, 79, 65
1, 250377, Note_on_c, 0, 85, 72
1, 250382, Note_off_c, 0, 90, 65
1, 250391, Note_on_c, 0, 86, 75
1, 250392, Note_off_c, 0, 79, 66
1, 250399, Poly_aftertouch_c, 0, 39, 127
1, 250419, Note_off_c, 0, 87, 60
1, 250421, Note_off_c, 0, 85, 62
1, 250466, Note_on_c, 0, 92, 79
1, 250470, Note_on_c, 0, 94, 76
1, 250476, Poly_aftertouch_c, 0, 39, 0
1, 250483, Note_off_c, 0, 94, 43
1, 250507, Note_on_c, 0, 81, 40
1, 250523, Note_on_c, 0, 83, 49
1, 250523, Note_off_c, 0, 92, 65
1, 250533, Note_on_c, 0, 85, 29
1, 250554, Note_off_c, 0, 81, 66
1, 250560, Note_off_c, 0, 86, 60
1, 250564, Note_off_c, 0, 83, 65
1, 250573, Note_off_c, 0, 85, 31
1, 250591, Note_on_c, 0, 94, 84
1, 250659, Note_off_c, 0, 94, 65
1, 250664, Note_on_c, 0, 86, 71
1, 250684, Control_c, 0, 64, 88
1, 250699, Control_c, 0, 64, 72
1, 250706, Poly_aftertouch_c, 0, 92, 0
1, 250713, Control_c, 0, 64, 63
1, 250728, Control_c, 0, 64, 50
1, 250733, Note_off_c, 0, 86, 56
1, 250743, Control_c, 0, 64, 43
1, 250758, Control_c, 0, 64, 42
1, 250773, Control_c, 0, 64, 38
1, 250787, Control_c, 0, 64, 33
1, 250802, Control_c, 0, 64, 24
1, 250817, Control_c, 0, 64, 0
1, 250847, Control_c, 0, 67, 19
1, 250861, Control_c, 0, 67, 37
1, 250876, Control_c, 0, 67, 54
1, 250891, Control_c, 0, 67, 69
1, 250905, Control_c, 0, 67, 82
1, 250920, Control_c, 0, 67, 95
1, 250935, Control_c, 0, 67, 110
1, 250950, Control_c, 0, 67, 122
1, 250965, Control_c, 0, 67, 127
1, 250995, Note_off_c, 0, 40, 55
1, 251006, Note_on_c, 0, 39, 43
1, 251018, Note_on_c, 0, 52, 42
1, 251065, Note_off_c, 0, 51, 35
1, 251299, Control_c, 0, 64, 32
1, 251314, Control_c, 0, 64, 44
1, 251329, Control_c, 0, 64, 50
1, 251344, Control_c, 0, 64, 54
1, 251359, Control_c, 0, 64, 57
1, 251374, Control_c, 0, 64, 59
1, 251389, Control_c, 0, 64, 62
1, 251403, Control_c, 0, 64, 63
1, 251418, Control_c, 0, 64, 65
1, 251433, Control_c, 0, 64, 66
1, 251448, Control_c, 0, 64, 67
1, 251463, Control_c, 0, 64, 69
1, 251478, Control_c, 0, 64, 71
1, 251493, Control_c, 0, 64, 73
1, 251508, Control_c, 0, 64, 75
1, 251522, Control_c, 0, 64, 76
1, 251537, Control_c, 0, 64, 77
1, 251728, Note_off_c, 0, 52, 45
1, 251833, Control_c, 0, 64, 76
1, 252018, Control_c, 0, 64, 76
1, 252062, Control_c, 0, 64, 75
1, 252092, Control_c, 0, 64, 75
1, 252107, Control_c, 0, 64, 74
1, 252122, Control_c, 0, 64, 74
1, 252124, Note_on_c, 0, 51, 35
1, 252125, Note_on_c, 0, 40, 36
1, 252152, Control_c, 0, 64, 73
1, 252182, Control_c, 0, 64, 73
1, 252212, Control_c, 0, 64, 72
1, 252222, Note_on_c, 0, 71, 64
1, 252226, Control_c, 0, 64, 70
1, 252241, Control_c, 0, 64, 66
1, 252251, Note_off_c, 0, 71, 63
1, 252256, Control_c, 0, 64, 61
1, 252263, Note_off_c, 0, 39, 24
1, 252271, Control_c, 0, 64, 56
1, 252280, Note_on_c, 0, 82, 53
1, 252286, Control_c, 0, 64, 52
1, 252296, Note_on_c, 0, 84, 73
1, 252300, Control_c, 0, 64, 50
1, 252304, Note_on_c, 0, 81, 55
1, 252306, Note_off_c, 0, 82, 54
1, 252330, Control_c, 0, 64, 51
1, 252343, Note_off_c, 0, 84, 64
1, 252344, Note_on_c, 0, 73, 69
1, 252345, Control_c, 0, 64, 53
1, 252360, Control_c, 0, 64, 57
1, 252361, Note_on_c, 0, 80, 55
1, 252364, Note_off_c, 0, 73, 61
1, 252375, Control_c, 0, 64, 61
1, 252388, Note_off_c, 0, 80, 63
1, 252390, Control_c, 0, 64, 63
1, 252402, Note_on_c, 0, 86, 91
1, 252405, Control_c, 0, 64, 65
1, 252419, Control_c, 0, 64, 68
1, 252434, Control_c, 0, 64, 72
1, 252449, Control_c, 0, 64, 77
1, 252449, Note_on_c, 0, 79, 80
1, 252463, Note_off_c, 0, 86, 63
1, 252464, Control_c, 0, 64, 85
1, 252478, Control_c, 0, 64, 96
1, 252493, Control_c, 0, 64, 110
1, 252500, Note_off_c, 0, 81, 26
1, 252508, Control_c, 0, 64, 127
1, 252510, Note_off_c, 0, 79, 64
1, 252513, Note_on_c, 0, 75, 72
1, 252538, Control_c, 0, 64, 109
1, 252539, Note_off_c, 0, 75, 69
1, 252552, Control_c, 0, 64, 94
1, 252565, Note_on_c, 0, 78, 78
1, 252567, Control_c, 0, 64, 79
1, 252579, Note_on_c, 0, 88, 83
1, 252580, Note_off_c, 0, 78, 67
1, 252582, Control_c, 0, 64, 67
1, 252597, Control_c, 0, 64, 48
1, 252612, Control_c, 0, 64, 0
1, 252627, Note_off_c, 0, 88, 59
1, 252655, Note_on_c, 0, 77, 54
1, 252679, Note_off_c, 0, 77, 38
1, 253045, Note_off_c, 0, 40, 44
1, 253051, Note_on_c, 0, 52, 42
1, 253058, Note_on_c, 0, 39, 39
1, 253063, Note_off_c, 0, 51, 40
1, 253435, Control_c, 0, 64, 30
1, 253457, Control_c, 0, 64, 44
1, 253472, Control_c, 0, 64, 52
1, 253487, Control_c, 0, 64, 56
1, 253501, Control_c, 0, 64, 59
1, 253516, Control_c, 0, 64, 61
1, 253531, Control_c, 0, 64, 64
1, 253546, Control_c, 0, 64, 66
1, 253561, Control_c, 0, 64, 68
1, 253575, Control_c, 0, 64, 71
1, 253590, Control_c, 0, 64, 74
1, 253605, Control_c, 0, 64, 76
1, 253620, Control_c, 0, 64, 78
1, 253723, Control_c, 0, 64, 77
1, 253738, Control_c, 0, 64, 77
1, 253784, Control_c, 0, 64, 76
1, 253829, Note_off_c, 0, 52, 37
1, 253872, Control_c, 0, 64, 76
1, 253902, Control_c, 0, 64, 75
1, 253931, Control_c, 0, 64, 75
1, 253961, Control_c, 0, 64, 74
1, 253976, Control_c, 0, 64, 74
1, 253991, Control_c, 0, 64, 73
1, 254006, Control_c, 0, 64, 73
1, 254020, Control_c, 0, 64, 72
1, 254035, Control_c, 0, 64, 72
1, 254065, Control_c, 0, 64, 71
1, 254080, Control_c, 0, 64, 71
1, 254095, Control_c, 0, 64, 70
1, 254125, Note_on_c, 0, 40, 36
1, 254129, Note_on_c, 0, 51, 34
1, 254138, Control_c, 0, 64, 70
1, 254168, Control_c, 0, 64, 69
1, 254205, Control_c, 0, 64, 69
1, 254220, Control_c, 0, 64, 68
1, 254249, Note_off_c, 0, 39, 35
1, 254250, Control_c, 0, 64, 68
1, 254265, Control_c, 0, 64, 67
1, 254265, Note_on_c, 0, 65, 55
1, 254279, Control_c, 0, 64, 67
1, 254301, Note_off_c, 0, 65, 60
1, 254330, Note_on_c, 0, 76, 56
1, 254351, Note_on_c, 0, 78, 77
1, 254353, Control_c, 0, 64, 67
1, 254383, Control_c, 0, 64, 68
1, 254384, Note_off_c, 0, 76, 56
1, 254396, Note_on_c, 0, 75, 62
1, 254397, Control_c, 0, 64, 68
1, 254412, Control_c, 0, 64, 69
1, 254426, Note_off_c, 0, 78, 64
1, 254427, Control_c, 0, 64, 70
1, 254434, Note_on_c, 0, 74, 74
1, 254442, Control_c, 0, 64, 71
1, 254457, Control_c, 0, 64, 72
1, 254462, Note_off_c, 0, 75, 61
1, 254471, Control_c, 0, 64, 73
1, 254486, Control_c, 0, 64, 74
1, 254491, Note_off_c, 0, 74, 64
1, 254494, Note_on_c, 0, 80, 76
1, 254501, Control_c, 0, 64, 74
1, 254555, Note_on_c, 0, 73, 66
1, 254560, Note_on_c, 0, 69, 64
1, 254565, Note_off_c, 0, 80, 64
1, 254606, Control_c, 0, 64, 74
1, 254620, Control_c, 0, 64, 73
1, 254635, Control_c, 0, 64, 72
1, 254637, Note_off_c, 0, 69, 42
1, 254640, Note_on_c, 0, 72, 60
1, 254650, Control_c, 0, 64, 71
1, 254665, Control_c, 0, 64, 68
1, 254669, Note_off_c, 0, 73, 39
1, 254672, Note_off_c, 0, 72, 67
1, 254680, Control_c, 0, 64, 66
1, 254694, Control_c, 0, 64, 63
1, 254706, Note_on_c, 0, 82, 62
1, 254709, Control_c, 0, 64, 61
1, 254724, Control_c, 0, 64, 58
1, 254739, Control_c, 0, 64, 56
1, 254754, Control_c, 0, 64, 54
1, 254769, Control_c, 0, 64, 53
1, 254784, Control_c, 0, 64, 51
1, 254798, Control_c, 0, 64, 49
1, 254813, Control_c, 0, 64, 48
1, 254819, Note_on_c, 0, 74, 56
1, 254828, Control_c, 0, 64, 46
1, 254831, Note_off_c, 0, 82, 59
1, 254843, Control_c, 0, 64, 45
1, 254858, Note_off_c, 0, 74, 62
1, 254858, Control_c, 0, 64, 43
1, 254873, Control_c, 0, 64, 42
1, 254888, Control_c, 0, 64, 41
1, 254903, Control_c, 0, 64, 40
1, 254918, Control_c, 0, 64, 40
1, 255028, Control_c, 0, 64, 40
1, 255043, Control_c, 0, 64, 41
1, 255058, Control_c, 0, 64, 42
1, 255073, Control_c, 0, 64, 43
1, 255088, Control_c, 0, 64, 43
1, 255102, Control_c, 0, 64, 44
1, 255117, Control_c, 0, 64, 46
1, 255132, Control_c, 0, 64, 48
1, 255147, Control_c, 0, 64, 50
1, 255162, Control_c, 0, 64, 53
1, 255177, Control_c, 0, 64, 56
1, 255192, Control_c, 0, 64, 58
1, 255207, Control_c, 0, 64, 60
1, 255221, Control_c, 0, 64, 62
1, 255236, Control_c, 0, 64, 63
1, 255251, Control_c, 0, 64, 64
1, 255265, Control_c, 0, 64, 65
1, 255280, Control_c, 0, 64, 66
1, 255295, Control_c, 0, 64, 66
1, 255400, Control_c, 0, 64, 66
1, 255520, Note_off_c, 0, 51, 41
1, 255532, Note_on_c, 0, 52, 35
1, 255581, Note_on_c, 0, 38, 29
1, 255607, Control_c, 0, 64, 65
1, 255622, Control_c, 0, 64, 65
1, 255636, Control_c, 0, 64, 64
1, 255651, Control_c, 0, 64, 63
1, 255666, Control_c, 0, 64, 62
1, 255668, Note_off_c, 0, 40, 42
1, 255681, Control_c, 0, 64, 61
1, 255703, Control_c, 0, 64, 60
1, 255718, Control_c, 0, 64, 60
1, 255733, Control_c, 0, 64, 59
1, 255748, Control_c, 0, 64, 59
1, 255763, Control_c, 0, 64, 58
1, 255777, Control_c, 0, 64, 57
1, 255792, Control_c, 0, 64, 57
1, 255807, Control_c, 0, 64, 56
1, 255822, Control_c, 0, 64, 56
1, 255851, Control_c, 0, 64, 55
1, 255881, Control_c, 0, 64, 55
1, 255973, Note_on_c, 0, 59, 48
1, 256033, Note_on_c, 0, 58, 57
1, 256035, Note_off_c, 0, 59, 54
1, 256059, Control_c, 0, 64, 55
1, 256074, Control_c, 0, 64, 56
1, 256088, Control_c, 0, 64, 56
1, 256103, Control_c, 0, 64, 57
1, 256118, Control_c, 0, 64, 59
1, 256133, Control_c, 0, 64, 60
1, 256149, Control_c, 0, 64, 61
1, 256164, Control_c, 0, 64, 62
1, 256179, Control_c, 0, 64, 63
1, 256193, Control_c, 0, 64, 64
1, 256208, Control_c, 0, 64, 64
1, 256223, Control_c, 0, 64, 66
1, 256238, Control_c, 0, 64, 67
1, 256253, Control_c, 0, 64, 68
1, 256267, Control_c, 0, 64, 69
1, 256282, Control_c, 0, 64, 70
1, 256297, Control_c, 0, 64, 71
1, 256312, Control_c, 0, 64, 72
1, 256326, Control_c, 0, 64, 74
1, 256341, Control_c, 0, 64, 75
1, 256356, Control_c, 0, 64, 76
1, 256356, Control_c, 0, 67, 125
1, 256363, Note_off_c, 0, 52, 42
1, 256371, Control_c, 0, 64, 78
1, 256371, Control_c, 0, 67, 117
1, 256386, Control_c, 0, 64, 80
1, 256386, Control_c, 0, 67, 106
1, 256400, Control_c, 0, 64, 83
1, 256400, Control_c, 0, 67, 95
1, 256415, Control_c, 0, 64, 84
1, 256415, Control_c, 0, 67, 83
1, 256430, Control_c, 0, 64, 85
1, 256430, Control_c, 0, 67, 70
1, 256453, Control_c, 0, 64, 86
1, 256453, Control_c, 0, 67, 54
1, 256468, Control_c, 0, 64, 87
1, 256468, Control_c, 0, 67, 37
1, 256482, Control_c, 0, 64, 87
1, 256482, Control_c, 0, 67, 19
1, 256497, Control_c, 0, 67, 0
1, 256556, Control_c, 0, 64, 87
1, 256586, Control_c, 0, 64, 86
1, 256597, Note_on_c, 0, 40, 47
1, 256607, Note_on_c, 0, 51, 59
1, 256615, Control_c, 0, 64, 86
1, 256674, Control_c, 0, 64, 85
1, 256689, Control_c, 0, 64, 80
1, 256704, Control_c, 0, 64, 72
1, 256718, Control_c, 0, 64, 66
1, 256733, Control_c, 0, 64, 63
1, 256748, Control_c, 0, 64, 64
1, 256763, Control_c, 0, 64, 64
1, 256778, Control_c, 0, 64, 65
1, 256793, Control_c, 0, 64, 67
1, 256808, Control_c, 0, 64, 70
1, 256822, Control_c, 0, 64, 73
1, 256837, Control_c, 0, 64, 77
1, 256852, Control_c, 0, 64, 81
1, 256867, Control_c, 0, 64, 85
1, 256882, Control_c, 0, 64, 90
1, 256897, Control_c, 0, 64, 95
1, 256911, Control_c, 0, 64, 102
1, 256926, Control_c, 0, 64, 113
1, 256932, Note_off_c, 0, 38, 11
1, 256942, Control_c, 0, 64, 127
1, 257565, Note_off_c, 0, 51, 35
1, 257693, Note_on_c, 0, 52, 63
1, 257694, Note_on_c, 0, 38, 67
1, 257773, Note_off_c, 0, 40, 47
1, 257825, Control_c, 0, 64, 106
1, 257839, Control_c, 0, 64, 96
1, 257854, Control_c, 0, 64, 90
1, 257869, Control_c, 0, 64, 86
1, 257883, Control_c, 0, 64, 83
1, 257898, Control_c, 0, 64, 80
1, 257912, Control_c, 0, 64, 77
1, 257927, Control_c, 0, 64, 75
1, 257949, Control_c, 0, 64, 73
1, 257964, Control_c, 0, 64, 71
1, 257979, Control_c, 0, 64, 70
1, 257986, Note_off_c, 0, 58, 33
1, 257994, Control_c, 0, 64, 69
1, 258009, Control_c, 0, 64, 68
1, 258024, Control_c, 0, 64, 67
1, 258039, Control_c, 0, 64, 67
1, 258048, Note_on_c, 0, 59, 78
1, 258053, Control_c, 0, 64, 65
1, 258068, Control_c, 0, 64, 64
1, 258083, Control_c, 0, 64, 60
1, 258098, Control_c, 0, 64, 51
1, 258112, Note_on_c, 0, 58, 91
1, 258113, Control_c, 0, 64, 23
1, 258127, Control_c, 0, 64, 0
1, 258131, Note_off_c, 0, 59, 64
1, 258231, Control_c, 0, 64, 9
1, 258245, Control_c, 0, 64, 42
1, 258260, Control_c, 0, 64, 53
1, 258275, Control_c, 0, 64, 59
1, 258289, Control_c, 0, 64, 62
1, 258304, Control_c, 0, 64, 66
1, 258319, Control_c, 0, 64, 72
1, 258334, Control_c, 0, 64, 82
1, 258349, Control_c, 0, 64, 100
1, 258364, Control_c, 0, 64, 127
1, 258414, Note_off_c, 0, 52, 60
1, 258617, Note_on_c, 0, 40, 70
1, 258622, Note_on_c, 0, 51, 88
1, 258658, Note_off_c, 0, 38, 60
1, 258699, Control_c, 0, 64, 87
1, 258714, Control_c, 0, 64, 70
1, 258729, Control_c, 0, 64, 63
1, 258743, Control_c, 0, 64, 63
1, 258758, Control_c, 0, 64, 66
1, 258773, Control_c, 0, 64, 70
1, 258787, Control_c, 0, 64, 77
1, 258802, Control_c, 0, 64, 88
1, 258817, Control_c, 0, 64, 107
1, 258832, Control_c, 0, 64, 127
1, 258877, Note_off_c, 0, 58, 59
1, 259077, Note_off_c, 0, 51, 57
1, 259490, Note_off_c, 0, 40, 62
1, 259772, Note_on_c, 0, 27, 85
1, 259777, Note_on_c, 0, 52, 92
1, 259796, Note_on_c, 0, 40, 46
1, 259803, Note_on_c, 0, 45, 64
1, 259863, Control_c, 0, 64, 85
1, 259878, Control_c, 0, 64, 67
1, 259892, Control_c, 0, 64, 52
1, 259907, Control_c, 0, 64, 41
1, 259922, Control_c, 0, 64, 48
1, 259936, Control_c, 0, 64, 56
1, 259951, Control_c, 0, 64, 62
1, 259966, Control_c, 0, 64, 66
1, 259981, Control_c, 0, 64, 72
1, 259983, Note_off_c, 0, 45, 57
1, 259996, Control_c, 0, 64, 84
1, 260010, Control_c, 0, 64, 119
1, 260025, Control_c, 0, 64, 127
1, 260268, Note_off_c, 0, 52, 62
1, 260629, Note_on_c, 0, 62, 68
1, 260698, Note_on_c, 0, 61, 83
1, 260709, Note_off_c, 0, 62, 58
1, 260766, Note_off_c, 0, 27, 59
1, 260831, Note_off_c, 0, 40, 43
1, 261216, Note_on_c, 0, 56, 72
1, 261304, Note_on_c, 0, 55, 72
1, 261309, Note_off_c, 0, 56, 60
1, 261350, Note_off_c, 0, 61, 29
1, 261540, Note_on_c, 0, 60, 74
1, 261615, Note_off_c, 0, 55, 61
1, 261622, Note_on_c, 0, 59, 95
1, 261687, Note_off_c, 0, 60, 61
1, 261824, Note_on_c, 0, 54, 86
1, 261881, Note_off_c, 0, 54, 65
1, 261917, Note_on_c, 0, 53, 91
1, 261950, Note_off_c, 0, 59, 62
1, 262024, Note_on_c, 0, 57, 90
1, 262136, Note_on_c, 0, 56, 93
1, 262159, Note_off_c, 0, 57, 63
1, 262206, Note_off_c, 0, 53, 61
1, 262241, Note_on_c, 0, 55, 96
1, 262253, Note_off_c, 0, 56, 65
1, 262301, Control_c, 0, 64, 101
1, 262316, Control_c, 0, 64, 71
1, 262322, Note_on_c, 0, 54, 96
1, 262330, Control_c, 0, 64, 52
1, 262345, Control_c, 0, 64, 0
1, 262349, Note_off_c, 0, 55, 63
1, 262391, Control_c, 0, 64, 34
1, 262405, Control_c, 0, 64, 60
1, 262413, Note_on_c, 0, 52, 98
1, 262420, Control_c, 0, 64, 73
1, 262442, Control_c, 0, 64, 127
1, 262462, Note_off_c, 0, 52, 67
1, 262511, Note_on_c, 0, 51, 88
1, 262516, Control_c, 0, 64, 92
1, 262532, Control_c, 0, 64, 66
1, 262547, Control_c, 0, 64, 44
1, 262561, Control_c, 0, 64, 12
1, 262567, Note_off_c, 0, 51, 65
1, 262576, Control_c, 0, 64, 44
1, 262591, Control_c, 0, 64, 61
1, 262606, Control_c, 0, 64, 73
1, 262621, Control_c, 0, 64, 127
1, 262624, Note_on_c, 0, 50, 89
1, 262625, Note_on_c, 0, 53, 94
1, 262658, Note_off_c, 0, 54, 59
1, 262674, Note_off_c, 0, 50, 63
1, 262680, Control_c, 0, 64, 85
1, 262695, Control_c, 0, 64, 63
1, 262710, Control_c, 0, 64, 15
1, 262710, Note_on_c, 0, 52, 88
1, 262720, Note_off_c, 0, 53, 64
1, 262725, Control_c, 0, 64, 0
1, 262740, Control_c, 0, 64, 38
1, 262754, Control_c, 0, 64, 63
1, 262769, Control_c, 0, 64, 80
1, 262784, Control_c, 0, 64, 127
1, 262794, Note_on_c, 0, 51, 102
1, 262798, Note_on_c, 0, 49, 100
1, 262817, Note_off_c, 0, 52, 67
1, 262829, Control_c, 0, 64, 94
1, 262843, Control_c, 0, 64, 64
1, 262850, Note_off_c, 0, 49, 64
1, 262858, Control_c, 0, 64, 0
1, 262903, Control_c, 0, 64, 56
1, 262917, Control_c, 0, 64, 78
1, 262918, Note_on_c, 0, 48, 100
1, 262932, Control_c, 0, 64, 127
1, 262981, Note_off_c, 0, 48, 65
1, 262991, Control_c, 0, 64, 77
1, 263006, Control_c, 0, 64, 50
1, 263015, Note_on_c, 0, 50, 96
1, 263021, Control_c, 0, 64, 0
1, 263038, Note_off_c, 0, 51, 62
1, 263065, Control_c, 0, 64, 57
1, 263070, Note_on_c, 0, 55, 13
1, 263071, Note_off_c, 0, 55, 127
1, 263080, Control_c, 0, 64, 74
1, 263091, Note_on_c, 0, 47, 105
1, 263095, Control_c, 0, 64, 127
1, 263112, Note_on_c, 0, 49, 92
1, 263123, Note_off_c, 0, 47, 68
1, 263123, Note_off_c, 0, 50, 66
1, 263171, Note_off_c, 0, 49, 65
1, 263221, Control_c, 0, 64, 101
1, 263227, Note_on_c, 0, 47, 88
1, 263235, Control_c, 0, 64, 76
1, 263250, Control_c, 0, 64, 59
1, 263265, Control_c, 0, 64, 0
1, 263270, Note_off_c, 0, 47, 60
1, 263323, Note_on_c, 0, 46, 96
1, 263352, Note_on_c, 0, 49, 44
1, 263377, Note_off_c, 0, 49, 38
1, 263521, Note_on_c, 0, 40, 65
1, 263525, Note_off_c, 0, 46, 61
1, 263552, Note_off_c, 0, 40, 64
1, 263578, Note_on_c, 0, 39, 95
1, 263728, Note_on_c, 0, 47, 100
1, 263736, Note_off_c, 0, 39, 63
1, 263755, Note_off_c, 0, 47, 68
1, 263799, Note_on_c, 0, 46, 108
1, 263814, Control_c, 0, 64, 21
1, 263818, Note_on_c, 0, 45, 82
1, 263829, Control_c, 0, 64, 66
1, 263844, Control_c, 0, 64, 96
1, 263858, Control_c, 0, 64, 127
1, 263885, Note_off_c, 0, 45, 43
1, 263960, Note_on_c, 0, 40, 99
1, 263970, Control_c, 0, 64, 103
1, 263984, Control_c, 0, 64, 60
1, 263998, Note_off_c, 0, 40, 63
1, 263999, Control_c, 0, 64, 0
1, 264037, Note_off_c, 0, 46, 58
1, 264048, Note_on_c, 0, 39, 110
1, 264073, Control_c, 0, 64, 54
1, 264088, Note_off_c, 0, 39, 65
1, 264088, Control_c, 0, 64, 83
1, 264103, Control_c, 0, 64, 127
1, 264178, Control_c, 0, 64, 113
1, 264193, Control_c, 0, 64, 61
1, 264200, Note_on_c, 0, 35, 115
1, 264206, Note_on_c, 0, 33, 88
1, 264207, Control_c, 0, 64, 0
1, 264228, Note_on_c, 0, 34, 58
1, 264229, Note_off_c, 0, 34, 127
1, 264230, Note_off_c, 0, 33, 38
1, 264285, Note_off_c, 0, 35, 63
1, 264361, Note_on_c, 0, 40, 116
1, 264364, Note_on_c, 0, 28, 97
1, 264367, Note_on_c, 0, 34, 106
1, 264380, Note_on_c, 0, 33, 81
1, 264385, Control_c, 0, 64, 70
1, 264388, Note_on_c, 0, 29, 65
1, 264400, Control_c, 0, 64, 127
1, 264408, Note_off_c, 0, 40, 65
1, 264418, Note_off_c, 0, 33, 63
1, 264420, Note_off_c, 0, 28, 63
1, 264424, Note_off_c, 0, 29, 53
1, 264433, Note_off_c, 0, 34, 59
1, 264463, Poly_aftertouch_c, 0, 37, 127
1, 264474, Control_c, 0, 64, 121
1, 264489, Control_c, 0, 64, 65
1, 264497, Poly_aftertouch_c, 0, 37, 0
1, 264504, Control_c, 0, 64, 0
1, 264588, Note_on_c, 0, 39, 114
1, 264591, Note_on_c, 0, 27, 104
1, 264603, Note_on_c, 0, 38, 78
1, 264607, Control_c, 0, 64, 64
1, 264621, Control_c, 0, 64, 127
1, 264623, Note_off_c, 0, 38, 66
1, 264647, Note_off_c, 0, 27, 65
1, 264647, Note_off_c, 0, 39, 47
1, 264777, Control_c, 0, 64, 67
1, 264792, Control_c, 0, 64, 0
1, 268204, Control_c, 0, 67, 29
1, 268218, Control_c, 0, 67, 56
1, 268233, Control_c, 0, 67, 79
1, 268248, Control_c, 0, 67, 102
1, 268263, Control_c, 0, 67, 123
1, 268278, Control_c, 0, 67, 127
1, 268436, Note_on_c, 0, 86, 63
1, 268480, Note_off_c, 0, 86, 64
1, 268517, Note_on_c, 0, 84, 58
1, 268548, Note_off_c, 0, 84, 65
1, 268600, Note_on_c, 0, 83, 68
1, 268602, Note_on_c, 0, 67, 42
1, 268669, Control_c, 0, 64, 35
1, 268683, Control_c, 0, 64, 45
1, 268695, Note_on_c, 0, 73, 44
1, 268698, Control_c, 0, 64, 49
1, 268713, Control_c, 0, 64, 53
1, 268728, Control_c, 0, 64, 56
1, 268740, Note_off_c, 0, 67, 44
1, 268743, Control_c, 0, 64, 57
1, 268752, Note_off_c, 0, 73, 56
1, 268758, Control_c, 0, 64, 58
1, 268770, Note_on_c, 0, 71, 48
1, 268770, Poly_aftertouch_c, 0, 78, 0
1, 268801, Note_on_c, 0, 87, 53
1, 268802, Control_c, 0, 64, 58
1, 268815, Note_off_c, 0, 83, 0
1, 268817, Control_c, 0, 64, 56
1, 268828, Note_off_c, 0, 71, 61
1, 268832, Control_c, 0, 64, 53
1, 268846, Control_c, 0, 64, 45
1, 268852, Poly_aftertouch_c, 0, 83, 127
1, 268861, Control_c, 0, 64, 29
1, 268865, Note_on_c, 0, 77, 60
1, 268873, Note_off_c, 0, 87, 64
1, 268876, Control_c, 0, 64, 0
1, 268877, Note_on_c, 0, 82, 68
1, 268887, Note_off_c, 0, 77, 63
1, 268887, Poly_aftertouch_c, 0, 83, 0
1, 268910, Note_off_c, 0, 82, 59
1, 268961, Note_on_c, 0, 86, 67
1, 269008, Note_off_c, 0, 86, 64
1, 269026, Note_on_c, 0, 84, 72
1, 269069, Note_off_c, 0, 84, 65
1, 269113, Note_on_c, 0, 83, 85
1, 269134, Note_on_c, 0, 67, 36
1, 269143, Control_c, 0, 64, 32
1, 269158, Control_c, 0, 64, 43
1, 269181, Control_c, 0, 64, 50
1, 269192, Note_off_c, 0, 67, 47
1, 269196, Control_c, 0, 64, 53
1, 269210, Control_c, 0, 64, 55
1, 269214, Note_on_c, 0, 73, 49
1, 269225, Control_c, 0, 64, 58
1, 269229, Note_on_c, 0, 78, 42
1, 269240, Control_c, 0, 64, 59
1, 269255, Control_c, 0, 64, 61
1, 269256, Note_off_c, 0, 78, 56
1, 269265, Note_off_c, 0, 73, 57
1, 269270, Control_c, 0, 64, 62
1, 269284, Control_c, 0, 64, 63
1, 269302, Note_on_c, 0, 71, 51
1, 269318, Note_on_c, 0, 87, 49
1, 269340, Note_off_c, 0, 71, 64
1, 269344, Control_c, 0, 64, 62
1, 269358, Control_c, 0, 64, 62
1, 269373, Control_c, 0, 64, 59
1, 269381, Note_on_c, 0, 77, 67
1, 269386, Note_on_c, 0, 82, 76
1, 269387, Note_off_c, 0, 83, 58
1, 269387, Note_off_c, 0, 87, 63
1, 269388, Control_c, 0, 64, 50
1, 269402, Control_c, 0, 64, 23
1, 269411, Note_off_c, 0, 77, 65
1, 269417, Control_c, 0, 64, 0
1, 269439, Note_off_c, 0, 82, 57
1, 269471, Note_on_c, 0, 86, 69
1, 269524, Note_off_c, 0, 86, 65
1, 269539, Note_on_c, 0, 84, 74
1, 269590, Note_off_c, 0, 84, 63
1, 269619, Note_on_c, 0, 83, 89
1, 269637, Note_on_c, 0, 67, 49
1, 269655, Control_c, 0, 64, 37
1, 269669, Control_c, 0, 64, 53
1, 269684, Control_c, 0, 64, 54
1, 269699, Control_c, 0, 64, 56
1, 269704, Note_off_c, 0, 83, 58
1, 269715, Control_c, 0, 64, 58
1, 269716, Note_on_c, 0, 78, 73
1, 269727, Note_on_c, 0, 73, 49
1, 269730, Control_c, 0, 64, 62
1, 269745, Control_c, 0, 64, 64
1, 269748, Note_off_c, 0, 67, 41
1, 269760, Control_c, 0, 64, 66
1, 269774, Control_c, 0, 64, 66
1, 269776, Note_off_c, 0, 78, 58
1, 269789, Note_off_c, 0, 73, 56
1, 269795, Note_on_c, 0, 71, 63
1, 269797, Note_on_c, 0, 87, 80
1, 269818, Control_c, 0, 64, 66
1, 269833, Control_c, 0, 64, 65
1, 269843, Note_off_c, 0, 71, 61
1, 269848, Control_c, 0, 64, 64
1, 269864, Control_c, 0, 64, 60
1, 269870, Note_off_c, 0, 87, 65
1, 269874, Note_on_c, 0, 82, 78
1, 269879, Control_c, 0, 64, 53
1, 269884, Note_on_c, 0, 77, 67
1, 269893, Control_c, 0, 64, 42
1, 269894, Note_off_c, 0, 82, 70
1, 269908, Control_c, 0, 64, 23
1, 269927, Note_off_c, 0, 77, 60
1, 269930, Control_c, 0, 64, 0
1, 269967, Note_on_c, 0, 91, 76
1, 269971, Note_on_c, 0, 75, 61
1, 270010, Note_off_c, 0, 75, 58
1, 270019, Note_off_c, 0, 91, 62
1, 270045, Note_on_c, 0, 86, 60
1, 270055, Note_on_c, 0, 81, 55
1, 270079, Note_off_c, 0, 81, 62
1, 270087, Note_off_c, 0, 86, 61
1, 270093, Control_c, 0, 64, 34
1, 270108, Control_c, 0, 64, 52
1, 270113, Note_on_c, 0, 95, 78
1, 270122, Note_on_c, 0, 79, 56
1, 270123, Control_c, 0, 64, 58
1, 270138, Control_c, 0, 64, 62
1, 270143, Note_off_c, 0, 79, 41
1, 270153, Control_c, 0, 64, 64
1, 270168, Control_c, 0, 64, 66
1, 270182, Control_c, 0, 64, 67
1, 270189, Note_off_c, 0, 95, 45
1, 270197, Control_c, 0, 64, 67
1, 270213, Note_on_c, 0, 91, 62
1, 270226, Control_c, 0, 64, 67
1, 270256, Control_c, 0, 64, 66
1, 270268, Note_off_c, 0, 91, 59
1, 270271, Control_c, 0, 64, 66
1, 270278, Note_on_c, 0, 86, 68
1, 270286, Control_c, 0, 64, 64
1, 270300, Control_c, 0, 64, 60
1, 270315, Control_c, 0, 64, 53
1, 270316, Note_off_c, 0, 86, 62
1, 270330, Control_c, 0, 64, 46
1, 270345, Control_c, 0, 64, 40
1, 270360, Control_c, 0, 64, 34
1, 270363, Note_on_c, 0, 79, 47
1, 270374, Control_c, 0, 64, 33
1, 270404, Control_c, 0, 64, 38
1, 270406, Note_off_c, 0, 79, 62
1, 270418, Control_c, 0, 64, 44
1, 270433, Control_c, 0, 64, 50
1, 270443, Note_on_c, 0, 86, 63
1, 270448, Control_c, 0, 64, 54
1, 270463, Control_c, 0, 64, 56
1, 270478, Control_c, 0, 64, 58
1, 270493, Control_c, 0, 64, 60
1, 270502, Note_off_c, 0, 86, 54
1, 270508, Control_c, 0, 64, 61
1, 270523, Note_on_c, 0, 84, 51
1, 270523, Control_c, 0, 64, 62
1, 270538, Control_c, 0, 64, 62
1, 270553, Control_c, 0, 64, 63
1, 270568, Control_c, 0, 64, 64
1, 270576, Note_off_c, 0, 84, 57
1, 270583, Control_c, 0, 64, 64
1, 270593, Note_on_c, 0, 67, 33
1, 270597, Control_c, 0, 64, 65
1, 270612, Control_c, 0, 64, 66
1, 270622, Note_on_c, 0, 83, 49
1, 270627, Control_c, 0, 64, 68
1, 270642, Control_c, 0, 64, 69
1, 270651, Note_on_c, 0, 73, 37
1, 270657, Control_c, 0, 64, 71
1, 270679, Control_c, 0, 64, 72
1, 270694, Control_c, 0, 64, 73
1, 270721, Note_on_c, 0, 78, 47
1, 270722, Note_off_c, 0, 73, 53
1, 270745, Note_off_c, 0, 78, 57
1, 270750, Note_on_c, 0, 71, 47
1, 270753, Control_c, 0, 64, 73
1, 270768, Control_c, 0, 64, 72
1, 270783, Control_c, 0, 64, 71
1, 270797, Control_c, 0, 64, 71
1, 270812, Control_c, 0, 64, 70
1, 270813, Note_on_c, 0, 87, 42
1, 270827, Control_c, 0, 64, 69
1, 270842, Control_c, 0, 64, 68
1, 270845, Note_off_c, 0, 67, 26
1, 270851, Note_off_c, 0, 71, 58
1, 270855, Note_on_c, 0, 77, 51
1, 270857, Control_c, 0, 64, 66
1, 270864, Note_off_c, 0, 87, 62
1, 270871, Control_c, 0, 64, 65
1, 270873, Note_off_c, 0, 83, 18
1, 270877, Note_off_c, 0, 77, 60
1, 270880, Note_on_c, 0, 82, 53
1, 270886, Control_c, 0, 64, 63
1, 270901, Control_c, 0, 64, 60
1, 270904, Note_off_c, 0, 82, 55
1, 270916, Control_c, 0, 64, 57
1, 270931, Control_c, 0, 64, 55
1, 270946, Control_c, 0, 64, 52
1, 270961, Note_on_c, 0, 86, 59
1, 270961, Control_c, 0, 64, 51
1, 270975, Control_c, 0, 64, 50
1, 271011, Note_off_c, 0, 86, 59
1, 271020, Control_c, 0, 64, 51
1, 271035, Control_c, 0, 64, 52
1, 271048, Note_on_c, 0, 84, 48
1, 271049, Control_c, 0, 64, 54
1, 271064, Control_c, 0, 64, 57
1, 271079, Control_c, 0, 64, 59
1, 271094, Control_c, 0, 64, 61
1, 271101, Note_on_c, 0, 67, 37
1, 271104, Note_off_c, 0, 84, 59
1, 271109, Control_c, 0, 64, 63
1, 271123, Control_c, 0, 64, 64
1, 271127, Note_on_c, 0, 83, 58
1, 271138, Control_c, 0, 64, 65
1, 271153, Control_c, 0, 64, 65
1, 271168, Control_c, 0, 64, 66
1, 271178, Note_off_c, 0, 67, 45
1, 271183, Control_c, 0, 64, 67
1, 271194, Note_on_c, 0, 73, 39
1, 271197, Control_c, 0, 64, 67
1, 271227, Note_off_c, 0, 83, 59
1, 271232, Note_on_c, 0, 78, 41
1, 271238, Note_off_c, 0, 73, 58
1, 271258, Note_off_c, 0, 78, 57
1, 271272, Note_on_c, 0, 71, 47
1, 271286, Control_c, 0, 64, 67
1, 271305, Note_on_c, 0, 87, 49
1, 271332, Control_c, 0, 64, 66
1, 271336, Note_off_c, 0, 71, 61
1, 271346, Control_c, 0, 64, 66
1, 271360, Control_c, 0, 64, 65
1, 271372, Note_off_c, 0, 87, 57
1, 271375, Control_c, 0, 64, 64
1, 271384, Note_on_c, 0, 77, 40
1, 271389, Note_on_c, 0, 82, 56
1, 271390, Control_c, 0, 64, 63
1, 271405, Control_c, 0, 64, 60
1, 271409, Note_off_c, 0, 77, 36
1, 271417, Note_off_c, 0, 82, 57
1, 271427, Control_c, 0, 64, 56
1, 271442, Control_c, 0, 64, 52
1, 271457, Control_c, 0, 64, 48
1, 271471, Note_on_c, 0, 86, 61
1, 271471, Control_c, 0, 64, 45
1, 271486, Control_c, 0, 64, 41
1, 271501, Control_c, 0, 64, 35
1, 271515, Note_off_c, 0, 86, 64
1, 271516, Control_c, 0, 64, 32
1, 271551, Note_on_c, 0, 84, 51
1, 271575, Control_c, 0, 64, 36
1, 271590, Note_off_c, 0, 84, 64
1, 271590, Control_c, 0, 64, 46
1, 271605, Control_c, 0, 64, 53
1, 271620, Control_c, 0, 64, 56
1, 271631, Note_on_c, 0, 67, 32
1, 271632, Note_on_c, 0, 83, 69
1, 271635, Control_c, 0, 64, 58
1, 271649, Control_c, 0, 64, 59
1, 271664, Control_c, 0, 64, 61
1, 271679, Control_c, 0, 64, 62
1, 271692, Note_off_c, 0, 67, 41
1, 271694, Control_c, 0, 64, 63
1, 271698, Note_off_c, 0, 83, 61
1, 271705, Note_on_c, 0, 73, 42
1, 271709, Control_c, 0, 64, 63
1, 271724, Control_c, 0, 64, 64
1, 271751, Note_off_c, 0, 73, 60
1, 271753, Control_c, 0, 64, 64
1, 271757, Note_on_c, 0, 78, 25
1, 271768, Control_c, 0, 64, 65
1, 271792, Note_off_c, 0, 78, 46
1, 271796, Note_on_c, 0, 71, 46
1, 271797, Control_c, 0, 64, 65
1, 271809, Note_on_c, 0, 87, 58
1, 271842, Control_c, 0, 64, 65
1, 271844, Note_off_c, 0, 71, 62
1, 271857, Control_c, 0, 64, 63
1, 271871, Control_c, 0, 64, 60
1, 271873, Note_off_c, 0, 87, 61
1, 271876, Note_on_c, 0, 82, 68
1, 271877, Note_on_c, 0, 77, 56
1, 271886, Control_c, 0, 64, 55
1, 271901, Control_c, 0, 64, 49
1, 271906, Note_off_c, 0, 82, 68
1, 271916, Control_c, 0, 64, 45
1, 271918, Note_off_c, 0, 77, 61
1, 271931, Control_c, 0, 64, 41
1, 271945, Control_c, 0, 64, 38
1, 271955, Note_on_c, 0, 75, 53
1, 271960, Control_c, 0, 64, 36
1, 271961, Note_on_c, 0, 91, 67
1, 271975, Control_c, 0, 64, 36
1, 271989, Control_c, 0, 64, 35
1, 271998, Note_off_c, 0, 75, 61
1, 272016, Note_off_c, 0, 91, 63
1, 272052, Note_on_c, 0, 81, 45
1, 272052, Note_on_c, 0, 86, 56
1, 272076, Note_off_c, 0, 81, 58
1, 272094, Note_off_c, 0, 86, 62
1, 272121, Note_on_c, 0, 79, 64
1, 272121, Note_on_c, 0, 95, 80
1, 272138, Note_off_c, 0, 79, 67
1, 272154, Control_c, 0, 64, 35
1, 272191, Control_c, 0, 64, 34
1, 272195, Note_off_c, 0, 95, 49
1, 272219, Note_on_c, 0, 91, 68
1, 272296, Note_on_c, 0, 86, 69
1, 272302, Note_off_c, 0, 91, 63
1, 272368, Note_on_c, 0, 79, 67
1, 272368, Note_off_c, 0, 86, 61
1, 272403, Note_off_c, 0, 79, 57
1, 272427, Control_c, 0, 67, 120
1, 272441, Note_on_c, 0, 91, 75
1, 272442, Control_c, 0, 67, 90
1, 272457, Control_c, 0, 67, 60
1, 272472, Control_c, 0, 67, 31
1, 272487, Control_c, 0, 67, 0
1, 272510, Note_on_c, 0, 95, 94
1, 272517, Control_c, 0, 64, 38
1, 272520, Note_off_c, 0, 91, 65
1, 272532, Control_c, 0, 64, 44
1, 272547, Control_c, 0, 64, 52
1, 272562, Control_c, 0, 64, 57
1, 272576, Control_c, 0, 64, 60
1, 272578, Note_on_c, 0, 60, 50
1, 272591, Control_c, 0, 64, 62
1, 272592, Note_on_c, 0, 91, 88
1, 272606, Control_c, 0, 64, 64
1, 272615, Note_off_c, 0, 95, 63
1, 272620, Control_c, 0, 64, 66
1, 272635, Control_c, 0, 64, 68
1, 272637, Note_off_c, 0, 60, 62
1, 272650, Control_c, 0, 64, 70
1, 272656, Note_off_c, 0, 91, 64
1, 272662, Note_on_c, 0, 66, 52
1, 272665, Control_c, 0, 64, 73
1, 272671, Note_on_c, 0, 79, 77
1, 272680, Control_c, 0, 64, 75
1, 272694, Control_c, 0, 64, 77
1, 272710, Note_off_c, 0, 66, 61
1, 272723, Note_off_c, 0, 79, 63
1, 272724, Control_c, 0, 64, 78
1, 272739, Control_c, 0, 64, 80
1, 272746, Note_on_c, 0, 83, 81
1, 272754, Control_c, 0, 64, 85
1, 272760, Note_on_c, 0, 71, 63
1, 272768, Control_c, 0, 64, 93
1, 272773, Note_off_c, 0, 83, 66
1, 272783, Control_c, 0, 64, 102
1, 272794, Note_off_c, 0, 71, 63
1, 272798, Control_c, 0, 64, 113
1, 272812, Control_c, 0, 64, 115
1, 272833, Note_on_c, 0, 75, 69
1, 272857, Control_c, 0, 64, 121
1, 272860, Note_off_c, 0, 75, 63
1, 272872, Control_c, 0, 64, 127
1, 272927, Note_on_c, 0, 83, 84
1, 272991, Note_on_c, 0, 91, 87
1, 272996, Note_off_c, 0, 83, 64
1, 273064, Note_off_c, 0, 91, 55
1, 273065, Note_on_c, 0, 60, 49
1, 273068, Note_on_c, 0, 95, 96
1, 273111, Note_off_c, 0, 60, 64
1, 273132, Note_on_c, 0, 66, 59
1, 273148, Note_on_c, 0, 91, 89
1, 273167, Note_off_c, 0, 66, 64
1, 273170, Note_off_c, 0, 95, 63
1, 273204, Note_off_c, 0, 91, 64
1, 273219, Note_on_c, 0, 71, 59
1, 273222, Note_on_c, 0, 83, 72
1, 273252, Note_off_c, 0, 71, 64
1, 273254, Note_off_c, 0, 83, 61
1, 273270, Note_on_c, 0, 75, 77
1, 273294, Note_off_c, 0, 75, 68
1, 273298, Note_on_c, 0, 91, 76
1, 273299, Note_on_c, 0, 93, 64
1, 273319, Note_off_c, 0, 93, 66
1, 273352, Note_off_c, 0, 91, 48
1, 273353, Note_on_c, 0, 83, 80
1, 273369, Control_c, 0, 64, 119
1, 273384, Control_c, 0, 64, 94
1, 273399, Control_c, 0, 64, 79
1, 273406, Note_off_c, 0, 83, 62
1, 273414, Control_c, 0, 64, 69
1, 273423, Note_on_c, 0, 79, 74
1, 273429, Control_c, 0, 64, 60
1, 273443, Control_c, 0, 64, 36
1, 273458, Control_c, 0, 64, 0
1, 273464, Note_off_c, 0, 79, 65
1, 273480, Note_on_c, 0, 82, 81
1, 273496, Note_on_c, 0, 60, 63
1, 273507, Note_off_c, 0, 82, 60
1, 273531, Note_on_c, 0, 81, 77
1, 273544, Note_off_c, 0, 60, 63
1, 273553, Note_on_c, 0, 67, 59
1, 273568, Note_off_c, 0, 81, 67
1, 273569, Note_on_c, 0, 82, 80
1, 273588, Note_off_c, 0, 67, 64
1, 273591, Control_c, 0, 64, 36
1, 273607, Control_c, 0, 64, 48
1, 273622, Control_c, 0, 64, 53
1, 273636, Control_c, 0, 64, 55
1, 273647, Note_on_c, 0, 72, 49
1, 273651, Control_c, 0, 64, 55
1, 273674, Control_c, 0, 64, 54
1, 273688, Control_c, 0, 64, 50
1, 273692, Note_off_c, 0, 82, 64
1, 273701, Note_off_c, 0, 72, 62
1, 273703, Control_c, 0, 64, 42
1, 273719, Control_c, 0, 64, 30
1, 273719, Control_c, 0, 67, 16
1, 273734, Control_c, 0, 64, 9
1, 273734, Control_c, 0, 67, 77
1, 273744, Note_on_c, 0, 76, 74
1, 273748, Control_c, 0, 64, 0
1, 273748, Control_c, 0, 67, 127
1, 273752, Note_on_c, 0, 79, 65
1, 273772, Note_off_c, 0, 76, 68
1, 273784, Note_off_c, 0, 79, 62
1, 273823, Control_c, 0, 64, 23
1, 273833, Note_on_c, 0, 90, 61
1, 273837, Control_c, 0, 64, 38
1, 273852, Control_c, 0, 64, 48
1, 273867, Control_c, 0, 64, 53
1, 273882, Control_c, 0, 64, 55
1, 273892, Note_off_c, 0, 90, 61
1, 273897, Control_c, 0, 64, 57
1, 273911, Note_on_c, 0, 94, 60
1, 273912, Control_c, 0, 64, 60
1, 273927, Control_c, 0, 64, 62
1, 273941, Control_c, 0, 64, 64
1, 273956, Control_c, 0, 64, 65
1, 273971, Note_off_c, 0, 94, 63
1, 273971, Control_c, 0, 64, 66
1, 273983, Note_on_c, 0, 60, 37
1, 273986, Control_c, 0, 64, 67
1, 273992, Note_on_c, 0, 90, 52
1, 274001, Control_c, 0, 64, 68
1, 274015, Control_c, 0, 64, 68
1, 274030, Control_c, 0, 64, 69
1, 274032, Note_off_c, 0, 90, 64
1, 274037, Note_off_c, 0, 60, 47
1, 274045, Control_c, 0, 64, 69
1, 274075, Note_on_c, 0, 78, 59
1, 274080, Note_on_c, 0, 65, 37
1, 274089, Control_c, 0, 64, 70
1, 274104, Control_c, 0, 64, 71
1, 274119, Control_c, 0, 64, 72
1, 274131, Note_off_c, 0, 78, 58
1, 274134, Control_c, 0, 64, 73
1, 274148, Control_c, 0, 64, 74
1, 274159, Note_on_c, 0, 82, 57
1, 274163, Control_c, 0, 64, 76
1, 274173, Note_on_c, 0, 70, 45
1, 274178, Control_c, 0, 64, 77
1, 274179, Note_off_c, 0, 82, 62
1, 274193, Control_c, 0, 64, 79
1, 274240, Note_off_c, 0, 70, 52
1, 274243, Note_on_c, 0, 73, 62
1, 274267, Control_c, 0, 64, 78
1, 274268, Note_off_c, 0, 65, 24
1, 274278, Note_off_c, 0, 73, 61
1, 274297, Control_c, 0, 64, 78
1, 274338, Note_on_c, 0, 82, 55
1, 274356, Control_c, 0, 64, 77
1, 274386, Control_c, 0, 64, 77
1, 274397, Note_off_c, 0, 82, 51
1, 274401, Control_c, 0, 64, 76
1, 274440, Note_on_c, 0, 90, 52
1, 274466, Control_c, 0, 64, 76
1, 274487, Note_off_c, 0, 90, 60
1, 274496, Note_on_c, 0, 60, 22
1, 274504, Note_on_c, 0, 94, 67
1, 274542, Note_off_c, 0, 60, 47
1, 274583, Note_on_c, 0, 90, 60
1, 274585, Note_off_c, 0, 94, 61
1, 274592, Note_on_c, 0, 65, 34
1, 274601, Control_c, 0, 64, 76
1, 274645, Control_c, 0, 64, 77
1, 274654, Note_on_c, 0, 70, 50
1, 274657, Note_off_c, 0, 90, 64
1, 274659, Note_off_c, 0, 65, 49
1, 274675, Note_on_c, 0, 82, 64
1, 274675, Control_c, 0, 64, 77
1, 274697, Note_off_c, 0, 70, 61
1, 274707, Note_off_c, 0, 82, 65
1, 274753, Note_on_c, 0, 73, 9
1, 274754, Note_on_c, 0, 90, 69
1, 274779, Control_c, 0, 64, 77
1, 274800, Note_off_c, 0, 73, 39
1, 274824, Control_c, 0, 64, 76
1, 274831, Note_on_c, 0, 82, 66
1, 274838, Control_c, 0, 64, 76
1, 274853, Control_c, 0, 64, 74
1, 274868, Control_c, 0, 64, 71
1, 274883, Control_c, 0, 64, 66
1, 274885, Note_off_c, 0, 82, 61
1, 274894, Note_on_c, 0, 78, 59
1, 274897, Control_c, 0, 64, 60
1, 274905, Note_off_c, 0, 90, 29
1, 274912, Control_c, 0, 64, 54
1, 274917, Note_off_c, 0, 78, 63
1, 274927, Control_c, 0, 64, 46
1, 274942, Control_c, 0, 64, 37
1, 274957, Note_on_c, 0, 61, 31
1, 274957, Control_c, 0, 64, 32
1, 274961, Note_on_c, 0, 81, 68
1, 274971, Control_c, 0, 64, 29
1, 274986, Control_c, 0, 64, 28
1, 274989, Note_off_c, 0, 81, 66
1, 274993, Note_off_c, 0, 61, 52
1, 275001, Control_c, 0, 64, 26
1, 275014, Note_on_c, 0, 66, 47
1, 275015, Control_c, 0, 64, 25
1, 275030, Control_c, 0, 64, 25
1, 275045, Control_c, 0, 64, 24
1, 275060, Note_on_c, 0, 81, 64
1, 275060, Note_off_c, 0, 66, 61
1, 275104, Note_on_c, 0, 69, 37
1, 275109, Note_off_c, 0, 81, 63
1, 275133, Note_off_c, 0, 69, 50
1, 275137, Note_on_c, 0, 77, 48
1, 275177, Note_off_c, 0, 77, 58
1, 275202, Note_on_c, 0, 72, 52
1, 275207, Note_on_c, 0, 88, 64
1, 275223, Note_off_c, 0, 72, 62
1, 275256, Note_off_c, 0, 88, 55
1, 275289, Control_c, 0, 64, 24
1, 275298, Note_on_c, 0, 86, 66
1, 275319, Control_c, 0, 64, 23
1, 275349, Control_c, 0, 64, 23
1, 275355, Note_off_c, 0, 86, 59
1, 275387, Note_on_c, 0, 84, 51
1, 275409, Note_off_c, 0, 84, 54
1, 275423, Control_c, 0, 64, 24
1, 275438, Control_c, 0, 64, 30
1, 275445, Note_on_c, 0, 67, 51
1, 275452, Note_on_c, 0, 83, 82
1, 275453, Control_c, 0, 64, 38
1, 275468, Control_c, 0, 64, 47
1, 275483, Control_c, 0, 64, 52
1, 275498, Control_c, 0, 64, 56
1, 275512, Control_c, 0, 64, 60
1, 275527, Control_c, 0, 64, 62
1, 275542, Control_c, 0, 64, 64
1, 275548, Note_off_c, 0, 67, 52
1, 275556, Note_on_c, 0, 73, 44
1, 275557, Control_c, 0, 64, 65
1, 275572, Control_c, 0, 64, 66
1, 275574, Note_on_c, 0, 78, 43
1, 275586, Control_c, 0, 64, 68
1, 275596, Note_off_c, 0, 73, 62
1, 275600, Note_off_c, 0, 78, 47
1, 275601, Control_c, 0, 64, 70
1, 275616, Control_c, 0, 64, 71
1, 275631, Control_c, 0, 64, 72
1, 275635, Note_on_c, 0, 71, 45
1, 275660, Control_c, 0, 64, 70
1, 275675, Control_c, 0, 64, 67
1, 275678, Note_off_c, 0, 71, 65
1, 275686, Note_on_c, 0, 87, 36
1, 275690, Control_c, 0, 64, 60
1, 275705, Control_c, 0, 64, 48
1, 275715, Note_off_c, 0, 83, 60
1, 275719, Control_c, 0, 64, 30
1, 275726, Note_on_c, 0, 82, 71
1, 275727, Note_off_c, 0, 87, 58
1, 275732, Note_on_c, 0, 77, 50
1, 275734, Control_c, 0, 64, 0
1, 275752, Note_off_c, 0, 77, 58
1, 275769, Note_off_c, 0, 82, 62
1, 275809, Note_on_c, 0, 86, 69
1, 275862, Note_off_c, 0, 86, 63
1, 275881, Note_on_c, 0, 84, 66
1, 275922, Note_off_c, 0, 84, 62
1, 275964, Note_on_c, 0, 83, 85
1, 275979, Control_c, 0, 64, 32
1, 275981, Note_on_c, 0, 67, 46
1, 275993, Control_c, 0, 64, 46
1, 276008, Control_c, 0, 64, 52
1, 276023, Control_c, 0, 64, 55
1, 276037, Control_c, 0, 64, 58
1, 276043, Note_off_c, 0, 67, 53
1, 276052, Control_c, 0, 64, 60
1, 276064, Note_on_c, 0, 73, 44
1, 276067, Control_c, 0, 64, 61
1, 276082, Note_on_c, 0, 78, 46
1, 276082, Control_c, 0, 64, 62
1, 276097, Control_c, 0, 64, 63
1, 276105, Note_off_c, 0, 73, 59
1, 276106, Note_off_c, 0, 78, 51
1, 276113, Control_c, 0, 64, 63
1, 276128, Control_c, 0, 64, 64
1, 276135, Note_on_c, 0, 71, 53
1, 276142, Control_c, 0, 64, 65
1, 276157, Control_c, 0, 64, 65
1, 276166, Note_on_c, 0, 87, 45
1, 276183, Note_off_c, 0, 71, 63
1, 276187, Control_c, 0, 64, 63
1, 276202, Control_c, 0, 64, 53
1, 276216, Control_c, 0, 64, 15
1, 276231, Control_c, 0, 64, 0
1, 276232, Note_on_c, 0, 77, 62
1, 276235, Note_on_c, 0, 82, 78
1, 276236, Note_off_c, 0, 83, 62
1, 276240, Note_off_c, 0, 87, 58
1, 276260, Note_off_c, 0, 77, 64
1, 276282, Note_off_c, 0, 82, 60
1, 276336, Note_on_c, 0, 86, 63
1, 276379, Note_off_c, 0, 86, 65
1, 276395, Note_on_c, 0, 84, 66
1, 276438, Note_off_c, 0, 84, 66
1, 276469, Note_on_c, 0, 83, 89
1, 276482, Note_on_c, 0, 67, 49
1, 276483, Control_c, 0, 64, 47
1, 276498, Control_c, 0, 64, 54
1, 276513, Control_c, 0, 64, 55
1, 276528, Control_c, 0, 64, 58
1, 276542, Note_off_c, 0, 67, 52
1, 276542, Control_c, 0, 64, 61
1, 276557, Control_c, 0, 64, 64
1, 276568, Note_off_c, 0, 83, 60
1, 276572, Control_c, 0, 64, 66
1, 276578, Note_on_c, 0, 73, 47
1, 276586, Note_on_c, 0, 78, 57
1, 276587, Control_c, 0, 64, 68
1, 276602, Control_c, 0, 64, 69
1, 276616, Control_c, 0, 64, 70
1, 276629, Note_off_c, 0, 78, 62
1, 276636, Note_off_c, 0, 73, 56
1, 276646, Control_c, 0, 64, 69
1, 276654, Note_on_c, 0, 71, 58
1, 276662, Note_on_c, 0, 87, 77
1, 276668, Control_c, 0, 64, 63
1, 276683, Control_c, 0, 64, 39
1, 276698, Control_c, 0, 64, 0
1, 276705, Note_off_c, 0, 71, 63
1, 276735, Note_off_c, 0, 87, 61
1, 276742, Note_on_c, 0, 82, 81
1, 276744, Note_on_c, 0, 77, 70
1, 276762, Note_off_c, 0, 82, 70
1, 276795, Note_off_c, 0, 77, 57
1, 276823, Note_on_c, 0, 91, 73
1, 276835, Note_on_c, 0, 75, 59
1, 276875, Note_off_c, 0, 75, 62
1, 276880, Note_off_c, 0, 91, 64
1, 276891, Note_on_c, 0, 86, 67
1, 276907, Note_on_c, 0, 81, 54
1, 276929, Note_off_c, 0, 81, 56
1, 276943, Note_off_c, 0, 86, 62
1, 276970, Note_on_c, 0, 79, 58
1, 276974, Note_on_c, 0, 95, 85
1, 276980, Control_c, 0, 64, 40
1, 276995, Control_c, 0, 64, 52
1, 277007, Note_off_c, 0, 79, 64
1, 277010, Control_c, 0, 64, 58
1, 277025, Control_c, 0, 64, 62
1, 277039, Note_off_c, 0, 95, 63
1, 277039, Control_c, 0, 64, 64
1, 277042, Note_on_c, 0, 91, 68
1, 277054, Control_c, 0, 64, 65
1, 277069, Control_c, 0, 64, 66
1, 277084, Control_c, 0, 64, 67
1, 277099, Control_c, 0, 64, 68
1, 277105, Note_off_c, 0, 91, 63
1, 277113, Control_c, 0, 64, 69
1, 277125, Note_on_c, 0, 86, 52
1, 277128, Control_c, 0, 64, 71
1, 277143, Control_c, 0, 64, 73
1, 277146, Note_off_c, 0, 86, 58
1, 277158, Control_c, 0, 64, 77
1, 277173, Control_c, 0, 64, 81
1, 277188, Control_c, 0, 64, 82
1, 277203, Control_c, 0, 64, 79
1, 277209, Note_on_c, 0, 79, 79
1, 277218, Control_c, 0, 64, 70
1, 277222, Note_off_c, 0, 79, 70
1, 277232, Control_c, 0, 64, 57
1, 277247, Control_c, 0, 64, 0
1, 277306, Note_on_c, 0, 72, 54
1, 277314, Note_on_c, 0, 74, 42
1, 277338, Note_off_c, 0, 72, 60
1, 277339, Note_off_c, 0, 74, 56
1, 277387, Note_on_c, 0, 71, 46
1, 277423, Note_off_c, 0, 71, 56
1, 277453, Note_on_c, 0, 70, 55
1, 277477, Note_off_c, 0, 70, 54
1, 277480, Note_on_c, 0, 69, 63
1, 277491, Control_c, 0, 64, 35
1, 277495, Note_on_c, 0, 55, 35
1, 277506, Control_c, 0, 64, 49
1, 277510, Note_off_c, 0, 69, 62
1, 277521, Control_c, 0, 64, 56
1, 277536, Note_on_c, 0, 61, 49
1, 277536, Control_c, 0, 64, 60
1, 277547, Note_on_c, 0, 66, 61
1, 277551, Control_c, 0, 64, 63
1, 277565, Control_c, 0, 64, 65
1, 277577, Note_off_c, 0, 61, 61
1, 277580, Control_c, 0, 64, 66
1, 277582, Note_off_c, 0, 66, 60
1, 277595, Control_c, 0, 64, 67
1, 277610, Control_c, 0, 64, 68
1, 277615, Note_off_c, 0, 55, 58
1, 277623, Note_on_c, 0, 59, 49
1, 277625, Note_on_c, 0, 75, 39
1, 277625, Control_c, 0, 64, 69
1, 277639, Control_c, 0, 64, 69
1, 277660, Note_off_c, 0, 75, 49
1, 277672, Note_off_c, 0, 59, 61
1, 277684, Note_on_c, 0, 66, 73
1, 277695, Note_on_c, 0, 65, 64
1, 277728, Note_off_c, 0, 65, 64
1, 277729, Control_c, 0, 64, 68
1, 277730, Note_off_c, 0, 66, 61
1, 277744, Control_c, 0, 64, 65
1, 277759, Control_c, 0, 64, 57
1, 277774, Control_c, 0, 64, 32
1, 277788, Control_c, 0, 64, 0
1, 277793, Note_on_c, 0, 74, 62
1, 277872, Note_off_c, 0, 74, 64
1, 277876, Note_on_c, 0, 72, 68
1, 277927, Note_on_c, 0, 55, 51
1, 277934, Note_off_c, 0, 72, 64
1, 277938, Note_on_c, 0, 71, 75
1, 277996, Control_c, 0, 64, 19
1, 278011, Control_c, 0, 64, 43
1, 278020, Note_on_c, 0, 61, 49
1, 278026, Control_c, 0, 64, 52
1, 278041, Control_c, 0, 64, 58
1, 278044, Note_off_c, 0, 55, 59
1, 278055, Control_c, 0, 64, 62
1, 278061, Note_off_c, 0, 61, 62
1, 278070, Control_c, 0, 64, 64
1, 278085, Control_c, 0, 64, 65
1, 278085, Note_on_c, 0, 59, 53
1, 278100, Control_c, 0, 64, 67
1, 278115, Control_c, 0, 64, 68
1, 278130, Control_c, 0, 64, 69
1, 278136, Note_on_c, 0, 75, 44
1, 278136, Note_off_c, 0, 59, 62
1, 278145, Control_c, 0, 64, 70
1, 278182, Control_c, 0, 64, 69
1, 278192, Note_on_c, 0, 65, 55
1, 278196, Control_c, 0, 64, 68
1, 278200, Note_off_c, 0, 75, 60
1, 278205, Note_on_c, 0, 70, 62
1, 278211, Control_c, 0, 64, 66
1, 278222, Note_off_c, 0, 65, 63
1, 278226, Control_c, 0, 64, 61
1, 278233, Note_off_c, 0, 71, 31
1, 278240, Note_off_c, 0, 70, 59
1, 278240, Control_c, 0, 64, 48
1, 278255, Control_c, 0, 64, 17
1, 278270, Control_c, 0, 64, 0
1, 278280, Note_on_c, 0, 74, 65
1, 278339, Note_off_c, 0, 74, 63
1, 278354, Note_on_c, 0, 72, 64
1, 278389, Note_on_c, 0, 55, 40
1, 278416, Note_off_c, 0, 72, 64
1, 278428, Note_on_c, 0, 71, 75
1, 278450, Note_off_c, 0, 55, 59
1, 278466, Note_on_c, 0, 61, 48
1, 278478, Control_c, 0, 64, 26
1, 278493, Control_c, 0, 64, 38
1, 278498, Note_off_c, 0, 71, 62
1, 278509, Control_c, 0, 64, 41
1, 278511, Note_off_c, 0, 61, 62
1, 278520, Note_on_c, 0, 66, 67
1, 278523, Control_c, 0, 64, 42
1, 278545, Note_on_c, 0, 59, 55
1, 278553, Control_c, 0, 64, 42
1, 278568, Control_c, 0, 64, 40
1, 278570, Note_off_c, 0, 66, 59
1, 278583, Control_c, 0, 64, 36
1, 278586, Note_off_c, 0, 59, 63
1, 278592, Note_on_c, 0, 75, 67
1, 278598, Control_c, 0, 64, 32
1, 278612, Control_c, 0, 64, 29
1, 278627, Control_c, 0, 64, 26
1, 278642, Control_c, 0, 64, 23
1, 278646, Note_on_c, 0, 65, 47
1, 278656, Control_c, 0, 64, 20
1, 278664, Note_on_c, 0, 70, 75
1, 278671, Control_c, 0, 64, 18
1, 278680, Note_off_c, 0, 75, 59
1, 278684, Note_off_c, 0, 65, 62
1, 278686, Control_c, 0, 64, 17
1, 278697, Note_off_c, 0, 70, 67
1, 278701, Control_c, 0, 64, 15
1, 278716, Control_c, 0, 64, 11
1, 278721, Note_on_c, 0, 63, 57
1, 278730, Control_c, 0, 64, 0
1, 278749, Note_on_c, 0, 79, 49
1, 278755, Note_on_c, 0, 81, 49
1, 278756, Note_off_c, 0, 63, 63
1, 278775, Note_off_c, 0, 79, 65
1, 278777, Note_off_c, 0, 81, 62
1, 278797, Note_on_c, 0, 69, 54
1, 278802, Note_on_c, 0, 74, 71
1, 278817, Note_off_c, 0, 69, 60
1, 278829, Note_off_c, 0, 74, 68
1, 278869, Note_on_c, 0, 67, 68
1, 278879, Note_on_c, 0, 83, 84
1, 278927, Note_off_c, 0, 67, 61
1, 278962, Note_on_c, 0, 73, 56
1, 278974, Note_on_c, 0, 78, 77
1, 278980, Note_off_c, 0, 83, 62
1, 279012, Note_off_c, 0, 73, 60
1, 279036, Note_on_c, 0, 71, 62
1, 279050, Note_off_c, 0, 78, 58
1, 279051, Note_on_c, 0, 87, 85
1, 279074, Note_off_c, 0, 71, 62
1, 279108, Control_c, 0, 67, 103
1, 279120, Note_on_c, 0, 77, 66
1, 279123, Control_c, 0, 67, 60
1, 279129, Note_on_c, 0, 82, 84
1, 279137, Control_c, 0, 67, 17
1, 279143, Note_off_c, 0, 87, 64
1, 279152, Control_c, 0, 67, 0
1, 279166, Note_off_c, 0, 77, 59
1, 279184, Note_off_c, 0, 82, 66
1, 279205, Note_on_c, 0, 75, 65
1, 279205, Note_on_c, 0, 91, 77
1, 279233, Note_off_c, 0, 91, 65
1, 279245, Note_off_c, 0, 75, 61
1, 279274, Note_on_c, 0, 86, 74
1, 279282, Note_on_c, 0, 81, 67
1, 279297, Note_off_c, 0, 86, 70
1, 279310, Note_off_c, 0, 81, 69
1, 279355, Note_on_c, 0, 79, 76
1, 279356, Note_on_c, 0, 95, 87
1, 279411, Note_off_c, 0, 79, 60
1, 279435, Note_on_c, 0, 85, 65
1, 279440, Note_on_c, 0, 90, 68
1, 279440, Note_off_c, 0, 95, 65
1, 279480, Note_off_c, 0, 85, 59
1, 279504, Note_off_c, 0, 90, 62
1, 279511, Note_on_c, 0, 83, 61
1, 279521, Note_on_c, 0, 99, 79
1, 279549, Note_off_c, 0, 83, 63
1, 279586, Note_on_c, 0, 94, 81
1, 279594, Note_on_c, 0, 89, 66
1, 279596, Note_off_c, 0, 99, 62
1, 279626, Note_off_c, 0, 89, 65
1, 279634, Note_off_c, 0, 94, 64
1, 279679, Note_on_c, 0, 87, 50
1, 279699, Note_on_c, 0, 103, 68
1, 279701, Note_off_c, 0, 87, 61
1, 279733, Note_off_c, 0, 103, 65
1, 279752, Note_on_c, 0, 93, 69
1, 279762, Note_on_c, 0, 98, 69
1, 279779, Note_off_c, 0, 93, 69
1, 279797, Note_off_c, 0, 98, 66
1, 279834, Note_on_c, 0, 91, 75
1, 279836, Note_on_c, 0, 107, 93
1, 279848, Note_off_c, 0, 91, 67
1, 279885, Note_off_c, 0, 107, 65
1, 279927, Note_on_c, 0, 98, 66
1, 279963, Note_off_c, 0, 98, 67
1, 279999, Note_on_c, 0, 91, 56
1, 280039, Note_off_c, 0, 91, 63
1, 280067, Note_on_c, 0, 85, 72
1, 280091, Note_off_c, 0, 85, 71
1, 280144, Note_on_c, 0, 95, 66
1, 280205, Note_off_c, 0, 95, 60
1, 280216, Note_on_c, 0, 86, 68
1, 280273, Note_off_c, 0, 86, 66
1, 280282, Note_on_c, 0, 79, 85
1, 280325, Note_off_c, 0, 79, 64
1, 280371, Note_on_c, 0, 73, 64
1, 280388, Note_off_c, 0, 73, 63
1, 280452, Note_on_c, 0, 83, 59
1, 280491, Note_off_c, 0, 83, 61
1, 280513, Note_on_c, 0, 74, 71
1, 280554, Note_off_c, 0, 74, 63
1, 280589, Note_on_c, 0, 67, 58
1, 280625, Note_off_c, 0, 67, 63
1, 280654, Note_on_c, 0, 61, 69
1, 280682, Note_off_c, 0, 61, 67
1, 280747, Note_on_c, 0, 71, 64
1, 280791, Note_off_c, 0, 71, 63
1, 280830, Note_on_c, 0, 62, 52
1, 280870, Note_off_c, 0, 62, 64
1, 280917, Note_on_c, 0, 55, 58
1, 280949, Note_off_c, 0, 55, 65
1, 281141, Note_on_c, 0, 55, 99
1, 281185, Note_off_c, 0, 55, 62
1, 281236, Note_on_c, 0, 53, 92
1, 281238, Note_on_c, 0, 52, 88
1, 281262, Note_off_c, 0, 52, 71
1, 281262, Note_off_c, 0, 53, 68
1, 281310, Control_c, 0, 64, 9
1, 281317, Note_on_c, 0, 52, 103
1, 281338, Note_on_c, 0, 50, 58
1, 281339, Note_off_c, 0, 50, 127
1, 281339, Control_c, 0, 64, 11
1, 281354, Control_c, 0, 64, 12
1, 281384, Control_c, 0, 64, 13
1, 281398, Note_on_c, 0, 65, 77
1, 281428, Control_c, 0, 64, 15
1, 281458, Control_c, 0, 64, 16
1, 281469, Note_on_c, 0, 66, 60
1, 281484, Note_off_c, 0, 65, 55
1, 281497, Note_on_c, 0, 68, 80
1, 281517, Control_c, 0, 64, 17
1, 281519, Note_off_c, 0, 66, 61
1, 281531, Control_c, 0, 64, 16
1, 281546, Control_c, 0, 64, 0
1, 281549, Note_off_c, 0, 68, 64
1, 281579, Note_on_c, 0, 39, 72
1, 281582, Note_off_c, 0, 52, 63
1, 281582, Note_on_c, 0, 69, 95
1, 281615, Note_off_c, 0, 39, 66
1, 281659, Note_on_c, 0, 72, 83
1, 281665, Note_on_c, 0, 70, 82
1, 281668, Note_off_c, 0, 69, 61
1, 281670, Note_on_c, 0, 43, 79
1, 281701, Note_off_c, 0, 43, 68
1, 281719, Note_off_c, 0, 72, 62
1, 281741, Note_off_c, 0, 70, 61
1, 281750, Note_on_c, 0, 41, 89
1, 281793, Note_off_c, 0, 41, 64
1, 281827, Note_on_c, 0, 40, 94
1, 281844, Control_c, 0, 64, 51
1, 281856, Note_off_c, 0, 40, 66
1, 281859, Control_c, 0, 64, 55
1, 281874, Control_c, 0, 64, 58
1, 281889, Control_c, 0, 64, 62
1, 281910, Control_c, 0, 64, 66
1, 281925, Control_c, 0, 64, 71
1, 281933, Note_on_c, 0, 65, 76
1, 281940, Control_c, 0, 64, 83
1, 281953, Note_on_c, 0, 64, 60
1, 281954, Control_c, 0, 64, 98
1, 281969, Control_c, 0, 64, 127
1, 281973, Note_off_c, 0, 64, 63
1, 281999, Note_on_c, 0, 66, 56
1, 281999, Note_off_c, 0, 65, 60
1, 282023, Note_on_c, 0, 68, 87
1, 282038, Note_off_c, 0, 66, 63
1, 282073, Note_on_c, 0, 51, 96
1, 282073, Note_off_c, 0, 68, 64
1, 282074, Control_c, 0, 64, 87
1, 282088, Control_c, 0, 64, 67
1, 282101, Note_off_c, 0, 51, 62
1, 282103, Control_c, 0, 64, 49
1, 282103, Note_on_c, 0, 69, 94
1, 282118, Control_c, 0, 64, 0
1, 282155, Note_on_c, 0, 55, 89
1, 282181, Note_on_c, 0, 70, 79
1, 282181, Note_on_c, 0, 72, 75
1, 282181, Note_off_c, 0, 69, 65
1, 282203, Note_off_c, 0, 55, 65
1, 282212, Note_off_c, 0, 72, 61
1, 282226, Note_off_c, 0, 70, 56
1, 282245, Note_on_c, 0, 53, 92
1, 282267, Note_off_c, 0, 53, 70
1, 282324, Note_on_c, 0, 52, 100
1, 282359, Note_off_c, 0, 52, 70
1, 282428, Note_on_c, 0, 65, 68
1, 282458, Control_c, 0, 64, 9
1, 282459, Note_on_c, 0, 66, 53
1, 282463, Note_off_c, 0, 65, 61
1, 282473, Control_c, 0, 64, 12
1, 282488, Control_c, 0, 64, 15
1, 282490, Note_on_c, 0, 39, 89
1, 282497, Note_on_c, 0, 68, 76
1, 282501, Note_off_c, 0, 66, 64
1, 282503, Control_c, 0, 64, 16
1, 282515, Note_off_c, 0, 39, 71
1, 282533, Control_c, 0, 64, 17
1, 282562, Note_off_c, 0, 68, 62
1, 282563, Control_c, 0, 64, 17
1, 282577, Control_c, 0, 64, 18
1, 282589, Note_on_c, 0, 69, 76
1, 282592, Control_c, 0, 64, 19
1, 282607, Control_c, 0, 64, 20
1, 282621, Note_off_c, 0, 69, 56
1, 282622, Control_c, 0, 64, 21
1, 282637, Control_c, 0, 64, 21
1, 282655, Note_on_c, 0, 50, 112
1, 282656, Note_on_c, 0, 72, 91
1, 282657, Note_on_c, 0, 70, 92
1, 282659, Control_c, 0, 64, 23
1, 282674, Control_c, 0, 64, 23
1, 282682, Note_off_c, 0, 50, 68
1, 282689, Control_c, 0, 64, 24
1, 282703, Control_c, 0, 64, 24
1, 282718, Control_c, 0, 64, 25
1, 282733, Control_c, 0, 64, 27
1, 282748, Control_c, 0, 64, 28
1, 282756, Note_off_c, 0, 70, 63
1, 282758, Note_on_c, 0, 69, 88
1, 282761, Note_off_c, 0, 72, 64
1, 282763, Control_c, 0, 64, 31
1, 282777, Control_c, 0, 64, 34
1, 282792, Control_c, 0, 64, 37
1, 282800, Note_off_c, 0, 69, 63
1, 282807, Control_c, 0, 64, 38
1, 282822, Control_c, 0, 64, 39
1, 282837, Note_on_c, 0, 72, 91
1, 282837, Control_c, 0, 64, 39
1, 282839, Note_on_c, 0, 70, 89
1, 282844, Note_on_c, 0, 37, 87
1, 282870, Note_off_c, 0, 37, 67
1, 282921, Note_on_c, 0, 69, 80
1, 282926, Note_off_c, 0, 70, 62
1, 282934, Note_off_c, 0, 72, 62
1, 282956, Control_c, 0, 64, 38
1, 282971, Control_c, 0, 64, 37
1, 282974, Note_off_c, 0, 69, 61
1, 282985, Control_c, 0, 64, 35
1, 283000, Control_c, 0, 64, 28
1, 283007, Note_on_c, 0, 72, 73
1, 283011, Note_on_c, 0, 70, 74
1, 283015, Control_c, 0, 64, 0
1, 283026, Note_on_c, 0, 48, 64
1, 283057, Note_off_c, 0, 48, 64
1, 283086, Note_off_c, 0, 72, 63
1, 283087, Note_off_c, 0, 70, 62
1, 283089, Control_c, 0, 67, 21
1, 283090, Note_on_c, 0, 69, 76
1, 283103, Control_c, 0, 67, 63
1, 283118, Control_c, 0, 67, 103
1, 283133, Control_c, 0, 67, 127
1, 283142, Note_off_c, 0, 69, 57
1, 283181, Note_on_c, 0, 70, 48
1, 283217, Note_on_c, 0, 71, 58
1, 283258, Note_off_c, 0, 70, 63
1, 283264, Note_off_c, 0, 71, 60
1, 283295, Note_on_c, 0, 69, 53
1, 283342, Note_off_c, 0, 69, 64
1, 283474, Note_on_c, 0, 34, 27
1, 283497, Control_c, 0, 64, 25
1, 283512, Control_c, 0, 64, 44
1, 283526, Control_c, 0, 64, 51
1, 283541, Control_c, 0, 64, 56
1, 283556, Control_c, 0, 64, 61
1, 283571, Control_c, 0, 64, 64
1, 283586, Control_c, 0, 64, 67
1, 283600, Control_c, 0, 64, 72
1, 283605, Note_on_c, 0, 89, 53
1, 283615, Control_c, 0, 64, 79
1, 283630, Control_c, 0, 64, 87
1, 283645, Control_c, 0, 64, 97
1, 283660, Control_c, 0, 64, 107
1, 283674, Control_c, 0, 64, 114
1, 283677, Note_off_c, 0, 34, 38
1, 283680, Note_off_c, 0, 89, 63
1, 283689, Control_c, 0, 64, 116
1, 283700, Note_on_c, 0, 93, 57
1, 283719, Control_c, 0, 64, 114
1, 283734, Control_c, 0, 64, 112
1, 283749, Control_c, 0, 64, 110
1, 283764, Control_c, 0, 64, 108
1, 283765, Note_off_c, 0, 93, 60
1, 283779, Control_c, 0, 64, 106
1, 283779, Note_on_c, 0, 89, 64
1, 283794, Control_c, 0, 64, 104
1, 283808, Control_c, 0, 64, 102
1, 283820, Note_off_c, 0, 89, 60
1, 283823, Control_c, 0, 64, 102
1, 283838, Control_c, 0, 64, 101
1, 283878, Note_on_c, 0, 77, 62
1, 283895, Note_on_c, 0, 70, 48
1, 283897, Control_c, 0, 64, 101
1, 283912, Control_c, 0, 64, 100
1, 283926, Control_c, 0, 64, 99
1, 283931, Note_off_c, 0, 70, 51
1, 283931, Note_off_c, 0, 77, 52
1, 283941, Control_c, 0, 64, 98
1, 283971, Control_c, 0, 64, 97
1, 283999, Note_on_c, 0, 74, 47
1, 284023, Note_off_c, 0, 74, 56
1, 284045, Control_c, 0, 64, 98
1, 284060, Control_c, 0, 64, 98
1, 284074, Control_c, 0, 64, 99
1, 284089, Control_c, 0, 64, 99
1, 284108, Note_on_c, 0, 70, 12
1, 284120, Control_c, 0, 64, 100
1, 284160, Note_off_c, 0, 70, 39
1, 284172, Control_c, 0, 64, 100
1, 284184, Note_on_c, 0, 58, 47
1, 284195, Note_on_c, 0, 81, 46
1, 284217, Control_c, 0, 64, 101
1, 284231, Control_c, 0, 64, 103
1, 284235, Note_on_c, 0, 62, 50
1, 284246, Control_c, 0, 64, 104
1, 284247, Note_off_c, 0, 81, 59
1, 284254, Note_on_c, 0, 89, 66
1, 284261, Control_c, 0, 64, 108
1, 284276, Control_c, 0, 64, 112
1, 284281, Note_off_c, 0, 62, 58
1, 284291, Control_c, 0, 64, 121
1, 284305, Control_c, 0, 64, 127
1, 284315, Note_off_c, 0, 89, 63
1, 284338, Note_on_c, 0, 93, 70
1, 284374, Note_off_c, 0, 58, 59
1, 284393, Note_off_c, 0, 93, 64
1, 284400, Note_on_c, 0, 62, 36
1, 284408, Note_on_c, 0, 89, 68
1, 284427, Note_off_c, 0, 62, 54
1, 284465, Note_off_c, 0, 89, 62
1, 284485, Note_on_c, 0, 81, 62
1, 284524, Note_off_c, 0, 81, 60
1, 284525, Poly_aftertouch_c, 0, 70, 0
1, 284547, Note_on_c, 0, 89, 72
1, 284553, Note_on_c, 0, 74, 54
1, 284554, Poly_aftertouch_c, 0, 70, 0
1, 284572, Note_off_c, 0, 74, 59
1, 284589, Note_off_c, 0, 89, 56
1, 284626, Note_on_c, 0, 81, 74
1, 284661, Note_on_c, 0, 70, 41
1, 284682, Note_off_c, 0, 81, 64
1, 284683, Note_on_c, 0, 77, 69
1, 284688, Note_off_c, 0, 70, 55
1, 284699, Note_off_c, 0, 77, 65
1, 284728, Note_on_c, 0, 62, 42
1, 284758, Note_off_c, 0, 62, 54
1, 284768, Note_on_c, 0, 80, 86
1, 284779, Note_on_c, 0, 70, 60
1, 284846, Note_on_c, 0, 62, 62
1, 284852, Note_off_c, 0, 70, 58
1, 284857, Note_on_c, 0, 89, 75
1, 284867, Note_off_c, 0, 80, 61
1, 284868, Control_c, 0, 64, 93
1, 284883, Control_c, 0, 64, 66
1, 284907, Control_c, 0, 64, 0
1, 284922, Note_off_c, 0, 62, 62
1, 284932, Note_on_c, 0, 58, 60
1, 284944, Note_on_c, 0, 92, 88
1, 284956, Note_off_c, 0, 89, 63
1, 284995, Control_c, 0, 64, 47
1, 285010, Control_c, 0, 64, 62
1, 285025, Note_on_c, 0, 89, 72
1, 285025, Control_c, 0, 64, 69
1, 285035, Note_on_c, 0, 61, 68
1, 285040, Control_c, 0, 64, 78
1, 285041, Note_off_c, 0, 92, 65
1, 285042, Note_off_c, 0, 58, 63
1, 285055, Control_c, 0, 64, 96
1, 285069, Control_c, 0, 64, 127
1, 285080, Note_off_c, 0, 61, 61
1, 285096, Note_off_c, 0, 89, 62
1, 285120, Note_on_c, 0, 70, 66
1, 285132, Note_on_c, 0, 77, 72
1, 285183, Note_off_c, 0, 77, 62
1, 285204, Note_on_c, 0, 80, 82
1, 285204, Note_off_c, 0, 70, 58
1, 285213, Note_on_c, 0, 73, 56
1, 285240, Note_off_c, 0, 73, 65
1, 285244, Note_off_c, 0, 80, 61
1, 285283, Note_on_c, 0, 70, 69
1, 285329, Note_off_c, 0, 70, 58
1, 285350, Note_on_c, 0, 80, 72
1, 285379, Note_on_c, 0, 58, 51
1, 285412, Note_on_c, 0, 61, 59
1, 285430, Note_on_c, 0, 89, 76
1, 285445, Note_off_c, 0, 80, 62
1, 285449, Poly_aftertouch_c, 0, 82, 0
1, 285481, Note_off_c, 0, 61, 60
1, 285505, Note_on_c, 0, 92, 96
1, 285521, Note_off_c, 0, 89, 60
1, 285564, Note_off_c, 0, 58, 57
1, 285566, Note_on_c, 0, 89, 49
1, 285585, Note_on_c, 0, 61, 43
1, 285602, Note_off_c, 0, 92, 65
1, 285616, Note_off_c, 0, 61, 57
1, 285668, Note_on_c, 0, 80, 71
1, 285675, Note_off_c, 0, 89, 52
1, 285711, Note_off_c, 0, 80, 61
1, 285730, Poly_aftertouch_c, 0, 70, 127
1, 285746, Note_on_c, 0, 89, 77
1, 285749, Note_on_c, 0, 73, 64
1, 285760, Poly_aftertouch_c, 0, 70, 0
1, 285778, Note_off_c, 0, 73, 68
1, 285794, Note_off_c, 0, 89, 60
1, 285819, Note_on_c, 0, 80, 76
1, 285874, Note_on_c, 0, 70, 29
1, 285881, Note_off_c, 0, 80, 63
1, 285889, Note_on_c, 0, 77, 74
1, 285910, Note_off_c, 0, 70, 46
1, 285916, Note_on_c, 0, 61, 46
1, 285924, Note_off_c, 0, 77, 60
1, 285952, Note_off_c, 0, 61, 61
1, 285967, Control_c, 0, 64, 94
1, 285982, Control_c, 0, 64, 77
1, 285986, Note_on_c, 0, 79, 71
1, 285996, Control_c, 0, 64, 64
1, 285998, Note_on_c, 0, 70, 58
1, 286011, Control_c, 0, 64, 30
1, 286026, Control_c, 0, 64, 0
1, 286037, Note_off_c, 0, 70, 61
1, 286053, Note_off_c, 0, 79, 62
1, 286062, Note_on_c, 0, 61, 45
1, 286069, Note_on_c, 0, 88, 64
1, 286117, Note_off_c, 0, 61, 54
1, 286133, Note_off_c, 0, 88, 63
1, 286142, Note_on_c, 0, 58, 43
1, 286144, Control_c, 0, 64, 18
1, 286149, Note_on_c, 0, 91, 65
1, 286159, Control_c, 0, 64, 43
1, 286174, Control_c, 0, 64, 54
1, 286189, Control_c, 0, 64, 61
1, 286203, Control_c, 0, 64, 64
1, 286214, Note_on_c, 0, 60, 52
1, 286218, Note_off_c, 0, 91, 56
1, 286218, Control_c, 0, 64, 67
1, 286221, Note_off_c, 0, 58, 49
1, 286233, Control_c, 0, 64, 69
1, 286239, Note_on_c, 0, 88, 59
1, 286248, Control_c, 0, 64, 72
1, 286256, Note_off_c, 0, 60, 64
1, 286263, Control_c, 0, 64, 76
1, 286277, Control_c, 0, 64, 80
1, 286279, Note_off_c, 0, 88, 64
1, 286292, Control_c, 0, 64, 83
1, 286307, Control_c, 0, 64, 86
1, 286313, Note_on_c, 0, 69, 54
1, 286323, Note_on_c, 0, 76, 58
1, 286351, Control_c, 0, 64, 85
1, 286353, Note_off_c, 0, 69, 60
1, 286366, Control_c, 0, 64, 85
1, 286370, Note_off_c, 0, 76, 58
1, 286381, Control_c, 0, 64, 84
1, 286401, Note_on_c, 0, 72, 57
1, 286403, Control_c, 0, 64, 83
1, 286406, Note_on_c, 0, 79, 61
1, 286427, Note_off_c, 0, 79, 65
1, 286435, Note_off_c, 0, 72, 67
1, 286472, Note_on_c, 0, 69, 61
1, 286492, Control_c, 0, 64, 82
1, 286508, Control_c, 0, 64, 75
1, 286523, Control_c, 0, 64, 64
1, 286538, Control_c, 0, 64, 49
1, 286552, Control_c, 0, 64, 0
1, 286572, Note_on_c, 0, 57, 45
1, 286582, Control_c, 0, 64, 17
1, 286597, Control_c, 0, 64, 36
1, 286598, Note_on_c, 0, 79, 58
1, 286612, Control_c, 0, 64, 49
1, 286626, Control_c, 0, 64, 57
1, 286641, Control_c, 0, 64, 62
1, 286656, Control_c, 0, 64, 64
1, 286671, Control_c, 0, 64, 67
1, 286677, Note_on_c, 0, 60, 44
1, 286682, Note_on_c, 0, 88, 56
1, 286682, Note_off_c, 0, 79, 55
1, 286686, Control_c, 0, 64, 70
1, 286700, Control_c, 0, 64, 74
1, 286715, Control_c, 0, 64, 78
1, 286719, Note_off_c, 0, 69, 37
1, 286730, Control_c, 0, 64, 81
1, 286732, Note_off_c, 0, 60, 58
1, 286745, Control_c, 0, 64, 84
1, 286760, Control_c, 0, 64, 87
1, 286766, Note_off_c, 0, 88, 62
1, 286775, Control_c, 0, 64, 90
1, 286775, Note_on_c, 0, 91, 62
1, 286789, Control_c, 0, 64, 92
1, 286804, Control_c, 0, 64, 94
1, 286819, Control_c, 0, 64, 95
1, 286834, Control_c, 0, 64, 96
1, 286848, Note_on_c, 0, 88, 49
1, 286848, Note_off_c, 0, 91, 55
1, 286849, Control_c, 0, 64, 97
1, 286852, Note_off_c, 0, 57, 53
1, 286864, Note_on_c, 0, 60, 34
1, 286864, Control_c, 0, 64, 99
1, 286879, Control_c, 0, 64, 100
1, 286893, Control_c, 0, 64, 103
1, 286894, Note_off_c, 0, 60, 46
1, 286899, Note_off_c, 0, 88, 61
1, 286908, Control_c, 0, 64, 106
1, 286923, Control_c, 0, 64, 108
1, 286925, Note_on_c, 0, 69, 55
1, 286930, Note_on_c, 0, 79, 67
1, 286938, Control_c, 0, 64, 108
1, 286967, Note_off_c, 0, 69, 57
1, 286977, Note_off_c, 0, 79, 60
1, 287006, Note_on_c, 0, 88, 76
1, 287023, Note_on_c, 0, 72, 38
1, 287052, Note_off_c, 0, 72, 55
1, 287079, Note_on_c, 0, 79, 83
1, 287083, Note_off_c, 0, 88, 61
1, 287086, Note_on_c, 0, 69, 64
1, 287115, Control_c, 0, 64, 108
1, 287130, Control_c, 0, 64, 107
1, 287134, Note_off_c, 0, 69, 52
1, 287147, Note_off_c, 0, 79, 65
1, 287152, Control_c, 0, 64, 107
1, 287156, Note_on_c, 0, 76, 77
1, 287167, Control_c, 0, 64, 106
1, 287169, Note_on_c, 0, 60, 66
1, 287182, Control_c, 0, 64, 104
1, 287197, Control_c, 0, 64, 103
1, 287212, Control_c, 0, 64, 101
1, 287222, Note_off_c, 0, 60, 60
1, 287226, Control_c, 0, 64, 99
1, 287237, Note_on_c, 0, 78, 86
1, 287238, Note_off_c, 0, 76, 60
1, 287241, Control_c, 0, 64, 97
1, 287256, Control_c, 0, 64, 94
1, 287257, Note_on_c, 0, 69, 74
1, 287270, Control_c, 0, 64, 92
1, 287285, Control_c, 0, 64, 90
1, 287297, Note_off_c, 0, 69, 64
1, 287302, Control_c, 0, 64, 87
1, 287305, Note_on_c, 0, 75, 88
1, 287314, Note_off_c, 0, 78, 63
1, 287317, Control_c, 0, 64, 82
1, 287318, Note_on_c, 0, 60, 66
1, 287331, Control_c, 0, 64, 72
1, 287346, Control_c, 0, 64, 62
1, 287361, Control_c, 0, 64, 32
1, 287373, Note_off_c, 0, 60, 56
1, 287375, Control_c, 0, 64, 0
1, 287385, Note_on_c, 0, 78, 84
1, 287391, Note_off_c, 0, 75, 63
1, 287405, Control_c, 0, 64, 25
1, 287420, Control_c, 0, 64, 46
1, 287435, Control_c, 0, 64, 57
1, 287449, Control_c, 0, 64, 62
1, 287455, Note_off_c, 0, 78, 66
1, 287458, Note_on_c, 0, 69, 21
1, 287464, Control_c, 0, 64, 65
1, 287470, Note_on_c, 0, 57, 68
1, 287473, Note_on_c, 0, 59, 71
1, 287479, Control_c, 0, 64, 67
1, 287483, Note_on_c, 0, 75, 95
1, 287486, Note_off_c, 0, 69, 66
1, 287494, Control_c, 0, 64, 66
1, 287500, Note_off_c, 0, 59, 66
1, 287501, Note_off_c, 0, 57, 66
1, 287509, Control_c, 0, 64, 65
1, 287523, Control_c, 0, 64, 64
1, 287538, Control_c, 0, 64, 63
1, 287547, Note_off_c, 0, 75, 63
1, 287553, Control_c, 0, 64, 61
1, 287567, Control_c, 0, 64, 58
1, 287571, Note_on_c, 0, 87, 85
1, 287582, Control_c, 0, 64, 54
1, 287597, Control_c, 0, 64, 49
1, 287612, Control_c, 0, 64, 43
1, 287627, Control_c, 0, 64, 39
1, 287642, Control_c, 0, 64, 38
1, 287654, Note_on_c, 0, 90, 75
1, 287654, Note_off_c, 0, 87, 60
1, 287672, Control_c, 0, 64, 39
1, 287687, Control_c, 0, 64, 43
1, 287702, Control_c, 0, 64, 50
1, 287716, Control_c, 0, 64, 57
1, 287722, Note_on_c, 0, 72, 78
1, 287723, Note_on_c, 0, 68, 78
1, 287731, Control_c, 0, 64, 61
1, 287743, Note_off_c, 0, 72, 71
1, 287744, Note_off_c, 0, 68, 69
1, 287746, Control_c, 0, 64, 63
1, 287748, Note_on_c, 0, 87, 83
1, 287761, Control_c, 0, 64, 64
1, 287762, Note_off_c, 0, 90, 64
1, 287775, Control_c, 0, 64, 65
1, 287790, Control_c, 0, 64, 65
1, 287805, Control_c, 0, 64, 66
1, 287806, Note_off_c, 0, 87, 65
1, 287820, Control_c, 0, 64, 66
1, 287830, Note_on_c, 0, 75, 79
1, 287879, Control_c, 0, 64, 66
1, 287898, Note_off_c, 0, 75, 62
1, 287901, Control_c, 0, 64, 64
1, 287904, Note_on_c, 0, 78, 78
1, 287916, Control_c, 0, 64, 59
1, 287931, Control_c, 0, 64, 51
1, 287946, Control_c, 0, 64, 47
1, 287961, Control_c, 0, 64, 45
1, 287972, Note_off_c, 0, 78, 64
1, 287976, Note_on_c, 0, 69, 95
1, 287985, Note_on_c, 0, 59, 81
1, 287985, Note_on_c, 0, 75, 89
1, 287989, Note_on_c, 0, 57, 74
1, 287990, Control_c, 0, 64, 48
1, 288001, Note_off_c, 0, 69, 67
1, 288005, Control_c, 0, 64, 53
1, 288008, Note_off_c, 0, 59, 71
1, 288014, Note_off_c, 0, 57, 67
1, 288020, Control_c, 0, 64, 57
1, 288035, Control_c, 0, 64, 60
1, 288035, Note_off_c, 0, 75, 64
1, 288049, Control_c, 0, 64, 62
1, 288064, Control_c, 0, 64, 64
1, 288077, Note_on_c, 0, 87, 80
1, 288079, Control_c, 0, 64, 65
1, 288095, Control_c, 0, 64, 67
1, 288110, Control_c, 0, 64, 68
1, 288125, Control_c, 0, 64, 70
1, 288140, Control_c, 0, 64, 73
1, 288151, Note_on_c, 0, 90, 84
1, 288154, Control_c, 0, 64, 76
1, 288162, Note_off_c, 0, 87, 63
1, 288169, Control_c, 0, 64, 80
1, 288184, Control_c, 0, 64, 82
1, 288198, Control_c, 0, 64, 81
1, 288213, Control_c, 0, 64, 74
1, 288220, Note_off_c, 0, 90, 62
1, 288228, Note_on_c, 0, 72, 92
1, 288228, Control_c, 0, 64, 64
1, 288232, Note_on_c, 0, 68, 87
1, 288243, Control_c, 0, 64, 52
1, 288248, Note_on_c, 0, 87, 96
1, 288248, Note_off_c, 0, 72, 70
1, 288253, Note_off_c, 0, 68, 71
1, 288258, Control_c, 0, 64, 39
1, 288272, Control_c, 0, 64, 42
1, 288287, Control_c, 0, 64, 47
1, 288302, Control_c, 0, 64, 52
1, 288310, Note_off_c, 0, 87, 66
1, 288316, Control_c, 0, 64, 56
1, 288331, Control_c, 0, 64, 60
1, 288342, Note_on_c, 0, 75, 89
1, 288346, Control_c, 0, 64, 62
1, 288361, Control_c, 0, 64, 64
1, 288376, Control_c, 0, 64, 65
1, 288390, Control_c, 0, 64, 66
1, 288420, Control_c, 0, 64, 64
1, 288421, Note_off_c, 0, 75, 59
1, 288428, Note_on_c, 0, 78, 77
1, 288435, Control_c, 0, 64, 61
1, 288450, Control_c, 0, 64, 54
1, 288465, Control_c, 0, 64, 53
1, 288480, Control_c, 0, 64, 56
1, 288495, Note_off_c, 0, 78, 62
1, 288495, Control_c, 0, 64, 59
1, 288502, Note_on_c, 0, 58, 79
1, 288509, Note_on_c, 0, 68, 80
1, 288509, Control_c, 0, 64, 62
1, 288513, Note_on_c, 0, 57, 65
1, 288515, Note_on_c, 0, 75, 95
1, 288524, Control_c, 0, 64, 63
1, 288536, Note_off_c, 0, 58, 59
1, 288539, Control_c, 0, 64, 65
1, 288540, Note_off_c, 0, 57, 64
1, 288542, Note_off_c, 0, 68, 65
1, 288554, Control_c, 0, 64, 66
1, 288569, Control_c, 0, 64, 68
1, 288575, Note_off_c, 0, 75, 64
1, 288584, Control_c, 0, 64, 67
1, 288598, Control_c, 0, 64, 64
1, 288613, Control_c, 0, 64, 59
1, 288615, Note_on_c, 0, 69, 86
1, 288623, Note_on_c, 0, 78, 86
1, 288628, Control_c, 0, 64, 50
1, 288650, Control_c, 0, 64, 43
1, 288653, Note_off_c, 0, 78, 70
1, 288664, Note_off_c, 0, 69, 61
1, 288665, Control_c, 0, 64, 38
1, 288679, Control_c, 0, 64, 36
1, 288694, Control_c, 0, 64, 36
1, 288714, Note_on_c, 0, 71, 86
1, 288741, Note_off_c, 0, 71, 63
1, 288745, Note_on_c, 0, 86, 70
1, 288789, Note_on_c, 0, 72, 68
1, 288801, Note_off_c, 0, 86, 61
1, 288814, Note_off_c, 0, 72, 68
1, 288870, Note_on_c, 0, 68, 93
1, 288892, Note_on_c, 0, 75, 76
1, 288902, Note_off_c, 0, 68, 65
1, 288939, Note_off_c, 0, 75, 47
1, 288963, Note_on_c, 0, 78, 85
1, 288966, Note_on_c, 0, 69, 91
1, 288986, Note_off_c, 0, 69, 67
1, 288992, Control_c, 0, 64, 36
1, 289002, Note_off_c, 0, 78, 63
1, 289047, Note_on_c, 0, 71, 99
1, 289055, Note_on_c, 0, 87, 89
1, 289078, Note_off_c, 0, 71, 67
1, 289100, Note_off_c, 0, 87, 63
1, 289138, Note_on_c, 0, 72, 78
1, 289164, Note_off_c, 0, 72, 67
1, 289183, Note_on_c, 0, 87, 44
1, 289207, Note_off_c, 0, 87, 56
1, 289225, Note_on_c, 0, 68, 88
1, 289225, Note_on_c, 0, 75, 76
1, 289246, Note_off_c, 0, 68, 71
1, 289260, Note_off_c, 0, 75, 62
1, 289299, Note_on_c, 0, 78, 78
1, 289308, Note_on_c, 0, 69, 84
1, 289323, Note_off_c, 0, 78, 69
1, 289337, Note_off_c, 0, 69, 64
1, 289399, Note_on_c, 0, 71, 90
1, 289403, Note_on_c, 0, 87, 82
1, 289420, Note_off_c, 0, 71, 67
1, 289422, Note_off_c, 0, 87, 71
1, 289445, Note_on_c, 0, 88, 34
1, 289458, Note_on_c, 0, 72, 83
1, 289470, Note_off_c, 0, 88, 39
1, 289474, Control_c, 0, 64, 34
1, 289488, Note_on_c, 0, 90, 42
1, 289489, Note_off_c, 0, 90, 127
1, 289489, Control_c, 0, 64, 27
1, 289499, Note_off_c, 0, 72, 65
1, 289503, Control_c, 0, 64, 12
1, 289518, Control_c, 0, 64, 0
1, 289576, Note_on_c, 0, 75, 82
1, 289603, Note_off_c, 0, 75, 60
1, 289673, Note_on_c, 0, 72, 62
1, 289702, Note_off_c, 0, 72, 67
1, 289747, Note_on_c, 0, 68, 66
1, 289775, Note_off_c, 0, 68, 63
1, 289833, Note_on_c, 0, 71, 65
1, 289863, Note_off_c, 0, 71, 65
1, 289908, Note_on_c, 0, 74, 71
1, 289933, Note_off_c, 0, 74, 67
1, 289988, Note_on_c, 0, 78, 82
1, 290024, Note_off_c, 0, 78, 65
1, 290068, Note_on_c, 0, 81, 83
1, 290087, Note_off_c, 0, 81, 71
1, 290125, Control_c, 0, 67, 124
1, 290147, Control_c, 0, 67, 95
1, 290157, Note_on_c, 0, 77, 91
1, 290162, Control_c, 0, 67, 65
1, 290176, Control_c, 0, 67, 33
1, 290185, Note_off_c, 0, 77, 63
1, 290191, Control_c, 0, 67, 0
1, 290241, Note_on_c, 0, 73, 85
1, 290260, Note_off_c, 0, 73, 72
1, 290315, Note_on_c, 0, 76, 82
1, 290355, Note_off_c, 0, 76, 64
1, 290390, Note_on_c, 0, 79, 88
1, 290424, Note_off_c, 0, 79, 67
1, 290475, Note_on_c, 0, 83, 90
1, 290507, Note_off_c, 0, 83, 68
1, 290554, Note_on_c, 0, 86, 96
1, 290584, Note_off_c, 0, 86, 68
1, 290635, Note_on_c, 0, 82, 94
1, 290660, Note_off_c, 0, 82, 66
1, 290724, Note_on_c, 0, 78, 95
1, 290746, Note_off_c, 0, 78, 67
1, 290793, Note_on_c, 0, 81, 82
1, 290825, Note_off_c, 0, 81, 64
1, 290870, Note_on_c, 0, 84, 82
1, 290905, Note_off_c, 0, 84, 65
1, 290959, Note_on_c, 0, 88, 84
1, 290993, Note_off_c, 0, 88, 66
1, 291039, Note_on_c, 0, 91, 83
1, 291061, Note_off_c, 0, 91, 70
1, 291115, Note_on_c, 0, 87, 65
1, 291150, Note_off_c, 0, 87, 61
1, 291177, Control_c, 0, 67, 8
1, 291192, Control_c, 0, 67, 49
1, 291195, Note_on_c, 0, 83, 71
1, 291207, Control_c, 0, 67, 92
1, 291219, Note_off_c, 0, 83, 68
1, 291222, Control_c, 0, 67, 127
1, 291291, Note_on_c, 0, 86, 65
1, 291326, Note_off_c, 0, 86, 62
1, 291401, Note_on_c, 0, 89, 59
1, 291436, Note_off_c, 0, 89, 63
1, 291476, Note_on_c, 0, 93, 57
1, 291498, Note_off_c, 0, 93, 62
1, 291595, Note_on_c, 0, 48, 59
1, 291605, Note_on_c, 0, 96, 73
1, 291626, Note_off_c, 0, 48, 64
1, 291684, Note_off_c, 0, 96, 54
1, 291716, Note_on_c, 0, 100, 64
1, 291775, Note_off_c, 0, 100, 61
1, 291783, Note_on_c, 0, 64, 58
1, 291788, Note_on_c, 0, 55, 50
1, 291794, Note_on_c, 0, 96, 64
1, 291803, Note_off_c, 0, 64, 62
1, 291813, Note_off_c, 0, 55, 57
1, 291840, Note_off_c, 0, 96, 59
1, 291874, Note_on_c, 0, 84, 63
1, 291911, Note_off_c, 0, 84, 59
1, 291958, Note_on_c, 0, 88, 67
1, 291961, Note_on_c, 0, 64, 52
1, 291963, Note_on_c, 0, 55, 58
1, 291985, Note_off_c, 0, 64, 59
1, 291986, Note_off_c, 0, 55, 59
1, 292085, Note_off_c, 0, 88, 0
1, 292085, Note_on_c, 0, 88, 3
1, 292131, Note_on_c, 0, 48, 64
1, 292152, Note_off_c, 0, 48, 61
1, 292219, Note_off_c, 0, 88, 52
1, 292236, Note_on_c, 0, 96, 64
1, 292286, Note_on_c, 0, 64, 68
1, 292295, Note_on_c, 0, 55, 48
1, 292295, Note_on_c, 0, 100, 76
1, 292295, Note_off_c, 0, 96, 65
1, 292313, Note_off_c, 0, 64, 64
1, 292321, Note_off_c, 0, 55, 56
1, 292387, Note_off_c, 0, 100, 63
1, 292403, Note_on_c, 0, 96, 61
1, 292461, Note_off_c, 0, 96, 64
1, 292463, Note_on_c, 0, 55, 45
1, 292470, Note_on_c, 0, 64, 52
1, 292482, Control_c, 0, 64, 37
1, 292490, Note_on_c, 0, 88, 62
1, 292497, Control_c, 0, 64, 53
1, 292510, Note_off_c, 0, 64, 62
1, 292510, Note_off_c, 0, 55, 63
1, 292511, Control_c, 0, 64, 59
1, 292526, Control_c, 0, 64, 62
1, 292541, Control_c, 0, 64, 64
1, 292546, Note_off_c, 0, 88, 58
1, 292554, Note_on_c, 0, 96, 69
1, 292556, Control_c, 0, 64, 67
1, 292570, Control_c, 0, 64, 68
1, 292585, Control_c, 0, 64, 70
1, 292600, Control_c, 0, 64, 70
1, 292611, Note_off_c, 0, 96, 58
1, 292626, Note_on_c, 0, 48, 60
1, 292644, Note_on_c, 0, 88, 61
1, 292653, Note_off_c, 0, 48, 63
1, 292659, Control_c, 0, 64, 70
1, 292661, Note_off_c, 0, 88, 65
1, 292695, Note_on_c, 0, 84, 68
1, 292733, Control_c, 0, 64, 69
1, 292748, Control_c, 0, 64, 66
1, 292750, Note_off_c, 0, 84, 61
1, 292763, Control_c, 0, 64, 61
1, 292778, Control_c, 0, 64, 53
1, 292781, Note_on_c, 0, 48, 71
1, 292793, Note_on_c, 0, 87, 70
1, 292793, Control_c, 0, 64, 48
1, 292799, Note_on_c, 0, 81, 62
1, 292808, Control_c, 0, 64, 43
1, 292817, Note_off_c, 0, 48, 64
1, 292823, Control_c, 0, 64, 39
1, 292837, Control_c, 0, 64, 37
1, 292838, Note_off_c, 0, 81, 63
1, 292852, Control_c, 0, 64, 36
1, 292867, Control_c, 0, 64, 35
1, 292876, Note_on_c, 0, 84, 68
1, 292878, Note_off_c, 0, 87, 59
1, 292882, Control_c, 0, 64, 34
1, 292912, Control_c, 0, 64, 33
1, 292944, Note_on_c, 0, 81, 60
1, 292948, Note_on_c, 0, 53, 58
1, 292954, Note_off_c, 0, 84, 61
1, 292955, Note_on_c, 0, 63, 59
1, 292957, Control_c, 0, 64, 33
1, 292975, Note_off_c, 0, 81, 67
1, 292975, Note_off_c, 0, 63, 62
1, 292980, Note_off_c, 0, 53, 64
1, 293005, Note_on_c, 0, 72, 69
1, 293052, Note_off_c, 0, 72, 58
1, 293107, Note_on_c, 0, 63, 55
1, 293109, Note_on_c, 0, 53, 56
1, 293109, Note_on_c, 0, 75, 61
1, 293135, Note_off_c, 0, 63, 62
1, 293147, Note_off_c, 0, 53, 64
1, 293166, Note_off_c, 0, 75, 56
1, 293233, Note_on_c, 0, 75, 36
1, 293280, Note_on_c, 0, 48, 80
1, 293304, Note_off_c, 0, 75, 63
1, 293306, Control_c, 0, 64, 32
1, 293306, Note_off_c, 0, 48, 66
1, 293321, Control_c, 0, 64, 23
1, 293335, Control_c, 0, 64, 0
1, 293361, Note_on_c, 0, 81, 63
1, 293420, Note_off_c, 0, 81, 63
1, 293427, Note_on_c, 0, 84, 71
1, 293438, Note_on_c, 0, 63, 62
1, 293456, Note_off_c, 0, 63, 66
1, 293473, Note_on_c, 0, 53, 5
1, 293474, Note_off_c, 0, 53, 127
1, 293488, Note_off_c, 0, 84, 56
1, 293515, Note_on_c, 0, 81, 66
1, 293579, Note_off_c, 0, 81, 64
1, 293592, Note_on_c, 0, 63, 55
1, 293611, Note_on_c, 0, 53, 57
1, 293614, Note_on_c, 0, 72, 61
1, 293616, Control_c, 0, 64, 33
1, 293631, Control_c, 0, 64, 51
1, 293646, Control_c, 0, 64, 58
1, 293649, Note_off_c, 0, 72, 62
1, 293660, Control_c, 0, 64, 61
1, 293662, Note_off_c, 0, 63, 62
1, 293675, Note_on_c, 0, 81, 70
1, 293675, Control_c, 0, 64, 63
1, 293691, Control_c, 0, 64, 65
1, 293697, Note_off_c, 0, 53, 62
1, 293706, Control_c, 0, 64, 67
1, 293721, Control_c, 0, 64, 70
1, 293736, Control_c, 0, 64, 73
1, 293738, Note_off_c, 0, 81, 58
1, 293740, Note_on_c, 0, 72, 77
1, 293751, Control_c, 0, 64, 75
1, 293765, Control_c, 0, 64, 75
1, 293772, Note_on_c, 0, 48, 31
1, 293774, Note_off_c, 0, 72, 63
1, 293780, Control_c, 0, 64, 75
1, 293809, Note_off_c, 0, 48, 42
1, 293812, Note_on_c, 0, 69, 73
1, 293839, Control_c, 0, 64, 74
1, 293845, Note_off_c, 0, 69, 64
1, 293854, Control_c, 0, 64, 69
1, 293869, Control_c, 0, 64, 59
1, 293891, Control_c, 0, 64, 0
1, 293892, Note_on_c, 0, 48, 83
1, 293896, Note_on_c, 0, 68, 81
1, 293916, Note_off_c, 0, 48, 67
1, 293946, Note_off_c, 0, 68, 60
1, 293962, Note_on_c, 0, 64, 77
1, 293992, Note_off_c, 0, 64, 64
1, 294055, Note_on_c, 0, 68, 71
1, 294073, Note_on_c, 0, 54, 32
1, 294083, Note_off_c, 0, 68, 65
1, 294084, Note_on_c, 0, 62, 21
1, 294106, Note_off_c, 0, 54, 34
1, 294126, Note_on_c, 0, 80, 62
1, 294126, Note_off_c, 0, 62, 31
1, 294191, Note_off_c, 0, 80, 42
1, 294198, Note_on_c, 0, 76, 65
1, 294200, Note_on_c, 0, 62, 70
1, 294203, Note_on_c, 0, 54, 57
1, 294226, Note_off_c, 0, 54, 61
1, 294230, Note_off_c, 0, 62, 66
1, 294358, Note_on_c, 0, 48, 88
1, 294381, Note_off_c, 0, 48, 71
1, 294403, Note_off_c, 0, 76, 64
1, 294433, Note_on_c, 0, 68, 71
1, 294467, Note_off_c, 0, 68, 60
1, 294515, Note_on_c, 0, 64, 63
1, 294523, Note_on_c, 0, 54, 63
1, 294527, Note_on_c, 0, 62, 57
1, 294534, Note_off_c, 0, 64, 64
1, 294546, Note_off_c, 0, 54, 62
1, 294552, Note_off_c, 0, 62, 60
1, 294589, Note_on_c, 0, 68, 70
1, 294659, Note_off_c, 0, 68, 52
1, 294667, Note_on_c, 0, 62, 51
1, 294668, Note_on_c, 0, 54, 57
1, 294668, Note_on_c, 0, 76, 67
1, 294696, Note_off_c, 0, 62, 64
1, 294704, Note_off_c, 0, 54, 65
1, 294729, Note_off_c, 0, 76, 63
1, 294735, Note_on_c, 0, 68, 61
1, 294744, Control_c, 0, 67, 80
1, 294759, Control_c, 0, 67, 9
1, 294774, Control_c, 0, 67, 0
1, 294802, Note_on_c, 0, 76, 68
1, 294808, Note_on_c, 0, 48, 69
1, 294815, Note_off_c, 0, 68, 58
1, 294837, Note_off_c, 0, 48, 65
1, 294867, Note_on_c, 0, 80, 75
1, 294871, Note_off_c, 0, 76, 64
1, 294950, Note_on_c, 0, 54, 64
1, 294951, Note_on_c, 0, 77, 69
1, 294960, Note_on_c, 0, 61, 50
1, 294975, Note_off_c, 0, 80, 63
1, 294985, Note_off_c, 0, 61, 56
1, 295043, Note_off_c, 0, 54, 31
1, 295047, Note_off_c, 0, 77, 65
1, 295115, Note_on_c, 0, 61, 67
1, 295121, Note_on_c, 0, 53, 70
1, 295154, Note_off_c, 0, 61, 59
1, 295156, Note_off_c, 0, 53, 64
1, 295259, Note_on_c, 0, 88, 89
1, 295273, Note_on_c, 0, 48, 71
1, 295300, Note_off_c, 0, 48, 65
1, 295340, Note_on_c, 0, 92, 86
1, 295374, Note_off_c, 0, 88, 65
1, 295389, Control_c, 0, 64, 44
1, 295404, Control_c, 0, 64, 58
1, 295404, Note_on_c, 0, 89, 93
1, 295419, Control_c, 0, 64, 64
1, 295426, Note_off_c, 0, 92, 67
1, 295427, Note_on_c, 0, 54, 56
1, 295432, Note_on_c, 0, 62, 50
1, 295434, Control_c, 0, 64, 72
1, 295436, Note_off_c, 0, 89, 69
1, 295449, Control_c, 0, 64, 93
1, 295452, Note_off_c, 0, 54, 60
1, 295456, Note_off_c, 0, 62, 57
1, 295463, Control_c, 0, 64, 127
1, 295567, Control_c, 0, 64, 85
1, 295577, Note_on_c, 0, 54, 60
1, 295577, Note_on_c, 0, 62, 59
1, 295581, Control_c, 0, 64, 67
1, 295596, Control_c, 0, 64, 56
1, 295606, Note_off_c, 0, 62, 63
1, 295611, Control_c, 0, 64, 43
1, 295611, Control_c, 0, 67, 46
1, 295622, Note_off_c, 0, 54, 60
1, 295626, Control_c, 0, 64, 17
1, 295626, Control_c, 0, 67, 95
1, 295641, Control_c, 0, 64, 0
1, 295641, Control_c, 0, 67, 127
1, 295673, Poly_aftertouch_c, 0, 82, 127
1, 295703, Poly_aftertouch_c, 0, 82, 0
1, 295715, Note_on_c, 0, 78, 55
1, 295730, Note_on_c, 0, 48, 66
1, 295758, Note_on_c, 0, 76, 64
1, 295759, Note_off_c, 0, 48, 65
1, 295788, Note_off_c, 0, 78, 54
1, 295830, Note_on_c, 0, 80, 65
1, 295836, Note_off_c, 0, 76, 62
1, 295910, Note_on_c, 0, 61, 55
1, 295926, Note_off_c, 0, 80, 64
1, 295927, Note_on_c, 0, 77, 63
1, 295929, Note_on_c, 0, 53, 39
1, 295949, Note_off_c, 0, 61, 60
1, 295961, Note_off_c, 0, 53, 54
1, 296011, Control_c, 0, 64, 18
1, 296026, Control_c, 0, 64, 43
1, 296041, Control_c, 0, 64, 54
1, 296055, Control_c, 0, 64, 58
1, 296069, Control_c, 0, 64, 61
1, 296085, Control_c, 0, 64, 63
1, 296100, Control_c, 0, 64, 64
1, 296102, Note_off_c, 0, 77, 64
1, 296115, Control_c, 0, 64, 66
1, 296138, Control_c, 0, 64, 68
1, 296145, Note_on_c, 0, 53, 43
1, 296152, Control_c, 0, 64, 71
1, 296164, Note_on_c, 0, 61, 35
1, 296167, Control_c, 0, 64, 75
1, 296182, Note_off_c, 0, 53, 64
1, 296182, Control_c, 0, 64, 79
1, 296197, Control_c, 0, 64, 82
1, 296211, Control_c, 0, 64, 84
1, 296226, Control_c, 0, 64, 85
1, 296318, Note_off_c, 0, 61, 36
1, 296374, Control_c, 0, 64, 85
1, 296388, Note_on_c, 0, 53, 67
1, 296403, Control_c, 0, 64, 84
1, 296411, Note_on_c, 0, 96, 65
1, 296418, Control_c, 0, 64, 80
1, 296423, Note_off_c, 0, 53, 66
1, 296433, Control_c, 0, 64, 70
1, 296448, Control_c, 0, 64, 57
1, 296463, Control_c, 0, 64, 0
1, 296474, Note_off_c, 0, 96, 65
1, 296486, Note_on_c, 0, 100, 73
1, 296528, Note_off_c, 0, 100, 51
1, 296563, Note_on_c, 0, 96, 68
1, 296564, Note_on_c, 0, 69, 67
1, 296567, Note_on_c, 0, 60, 59
1, 296591, Note_off_c, 0, 69, 68
1, 296597, Note_off_c, 0, 60, 65
1, 296598, Note_off_c, 0, 96, 65
1, 296627, Note_on_c, 0, 84, 67
1, 296684, Note_off_c, 0, 84, 57
1, 296716, Note_on_c, 0, 88, 67
1, 296723, Note_on_c, 0, 60, 63
1, 296729, Note_on_c, 0, 69, 60
1, 296749, Note_off_c, 0, 60, 64
1, 296749, Note_off_c, 0, 69, 61
1, 296783, Note_off_c, 0, 88, 0
1, 296820, Poly_aftertouch_c, 0, 88, 127
1, 296832, Note_on_c, 0, 88, 10
1, 296892, Note_on_c, 0, 53, 64
1, 296915, Note_off_c, 0, 53, 40
1, 296969, Note_off_c, 0, 88, 58
1, 296974, Note_on_c, 0, 96, 69
1, 297023, Note_on_c, 0, 61, 71
1, 297032, Note_on_c, 0, 69, 69
1, 297032, Note_off_c, 0, 96, 64
1, 297038, Note_on_c, 0, 100, 72
1, 297057, Note_off_c, 0, 69, 65
1, 297059, Note_off_c, 0, 61, 60
1, 297109, Note_off_c, 0, 100, 62
1, 297130, Note_on_c, 0, 96, 63
1, 297195, Note_off_c, 0, 96, 63
1, 297198, Control_c, 0, 64, 23
1, 297213, Control_c, 0, 64, 49
1, 297217, Note_on_c, 0, 69, 65
1, 297222, Note_on_c, 0, 60, 59
1, 297224, Note_on_c, 0, 88, 63
1, 297227, Control_c, 0, 64, 57
1, 297242, Control_c, 0, 64, 61
1, 297257, Control_c, 0, 64, 64
1, 297272, Control_c, 0, 64, 66
1, 297273, Note_on_c, 0, 96, 70
1, 297276, Note_off_c, 0, 88, 60
1, 297282, Note_off_c, 0, 69, 62
1, 297287, Control_c, 0, 64, 70
1, 297301, Control_c, 0, 64, 77
1, 297302, Note_off_c, 0, 60, 64
1, 297316, Control_c, 0, 64, 83
1, 297327, Note_off_c, 0, 96, 58
1, 297331, Control_c, 0, 64, 88
1, 297346, Control_c, 0, 64, 91
1, 297357, Note_on_c, 0, 88, 77
1, 297361, Control_c, 0, 64, 92
1, 297371, Note_on_c, 0, 53, 72
1, 297375, Control_c, 0, 64, 93
1, 297384, Note_off_c, 0, 88, 66
1, 297390, Control_c, 0, 64, 96
1, 297398, Note_off_c, 0, 53, 68
1, 297405, Control_c, 0, 64, 99
1, 297420, Control_c, 0, 64, 99
1, 297424, Note_on_c, 0, 84, 76
1, 297449, Control_c, 0, 64, 98
1, 297464, Control_c, 0, 64, 91
1, 297479, Control_c, 0, 64, 74
1, 297494, Control_c, 0, 64, 59
1, 297499, Note_off_c, 0, 84, 53
1, 297507, Note_on_c, 0, 53, 69
1, 297509, Control_c, 0, 64, 0
1, 297510, Note_on_c, 0, 87, 72
1, 297519, Note_on_c, 0, 80, 73
1, 297539, Note_off_c, 0, 53, 64
1, 297580, Note_off_c, 0, 80, 64
1, 297587, Note_off_c, 0, 87, 61
1, 297604, Note_on_c, 0, 84, 75
1, 297663, Note_on_c, 0, 60, 61
1, 297664, Note_on_c, 0, 80, 72
1, 297667, Note_on_c, 0, 68, 71
1, 297682, Note_off_c, 0, 84, 62
1, 297697, Note_off_c, 0, 68, 66
1, 297698, Note_off_c, 0, 60, 63
1, 297722, Note_off_c, 0, 80, 63
1, 297738, Note_on_c, 0, 72, 66
1, 297790, Note_off_c, 0, 72, 60
1, 297816, Note_on_c, 0, 60, 61
1, 297817, Note_on_c, 0, 68, 71
1, 297819, Note_on_c, 0, 75, 76
1, 297846, Note_off_c, 0, 68, 65
1, 297846, Note_off_c, 0, 60, 66
1, 297861, Note_off_c, 0, 75, 59
1, 297930, Note_on_c, 0, 75, 42
1, 297971, Note_on_c, 0, 53, 83
1, 298009, Note_off_c, 0, 53, 60
1, 298010, Note_off_c, 0, 75, 60
1, 298053, Note_on_c, 0, 80, 66
1, 298104, Note_off_c, 0, 80, 59
1, 298119, Note_on_c, 0, 84, 69
1, 298127, Note_on_c, 0, 68, 77
1, 298129, Note_on_c, 0, 60, 66
1, 298149, Note_off_c, 0, 68, 61
1, 298161, Note_off_c, 0, 60, 63
1, 298182, Note_off_c, 0, 84, 62
1, 298191, Note_on_c, 0, 80, 68
1, 298265, Note_off_c, 0, 80, 63
1, 298287, Note_on_c, 0, 68, 67
1, 298293, Note_on_c, 0, 60, 55
1, 298296, Note_on_c, 0, 72, 61
1, 298329, Note_off_c, 0, 72, 66
1, 298347, Control_c, 0, 64, 35
1, 298351, Note_off_c, 0, 68, 63
1, 298362, Control_c, 0, 64, 51
1, 298370, Note_on_c, 0, 80, 65
1, 298384, Control_c, 0, 64, 60
1, 298399, Control_c, 0, 64, 65
1, 298414, Control_c, 0, 64, 69
1, 298429, Control_c, 0, 64, 75
1, 298440, Note_off_c, 0, 80, 56
1, 298444, Control_c, 0, 64, 80
1, 298451, Note_on_c, 0, 53, 63
1, 298453, Note_on_c, 0, 72, 66
1, 298458, Control_c, 0, 64, 85
1, 298473, Control_c, 0, 64, 90
1, 298475, Note_off_c, 0, 60, 64
1, 298489, Control_c, 0, 64, 94
1, 298504, Control_c, 0, 64, 97
1, 298505, Note_off_c, 0, 53, 63
1, 298516, Note_on_c, 0, 68, 73
1, 298516, Note_off_c, 0, 72, 64
1, 298519, Control_c, 0, 64, 97
1, 298541, Poly_aftertouch_c, 0, 56, 0
1, 298544, Note_off_c, 0, 68, 68
1, 298563, Control_c, 0, 64, 95
1, 298578, Control_c, 0, 64, 86
1, 298593, Control_c, 0, 64, 70
1, 298595, Note_on_c, 0, 71, 78
1, 298603, Note_on_c, 0, 46, 75
1, 298607, Control_c, 0, 64, 44
1, 298622, Control_c, 0, 64, 0
1, 298635, Note_off_c, 0, 46, 63
1, 298665, Note_on_c, 0, 67, 78
1, 298666, Note_off_c, 0, 71, 60
1, 298701, Note_off_c, 0, 67, 64
1, 298747, Note_on_c, 0, 62, 60
1, 298754, Note_on_c, 0, 71, 66
1, 298768, Note_on_c, 0, 53, 28
1, 298779, Note_off_c, 0, 62, 65
1, 298782, Note_off_c, 0, 71, 67
1, 298805, Note_off_c, 0, 53, 45
1, 298814, Note_on_c, 0, 83, 80
1, 298897, Note_on_c, 0, 79, 64
1, 298907, Note_on_c, 0, 62, 24
1, 298913, Note_on_c, 0, 53, 49
1, 298913, Note_off_c, 0, 83, 54
1, 298945, Note_off_c, 0, 53, 60
1, 298945, Note_off_c, 0, 62, 40
1, 299047, Note_on_c, 0, 46, 69
1, 299077, Note_off_c, 0, 46, 65
1, 299085, Note_off_c, 0, 79, 64
1, 299107, Note_on_c, 0, 71, 69
1, 299188, Note_off_c, 0, 71, 59
1, 299190, Note_on_c, 0, 53, 61
1, 299194, Note_on_c, 0, 62, 59
1, 299194, Note_on_c, 0, 67, 70
1, 299224, Note_off_c, 0, 62, 64
1, 299229, Note_off_c, 0, 67, 62
1, 299237, Note_off_c, 0, 53, 59
1, 299260, Note_on_c, 0, 71, 62
1, 299304, Note_off_c, 0, 71, 65
1, 299333, Note_on_c, 0, 79, 74
1, 299339, Note_on_c, 0, 62, 36
1, 299345, Note_on_c, 0, 53, 54
1, 299368, Note_off_c, 0, 62, 51
1, 299380, Note_off_c, 0, 53, 64
1, 299393, Note_off_c, 0, 79, 64
1, 299405, Note_on_c, 0, 71, 69
1, 299464, Note_on_c, 0, 47, 71
1, 299468, Note_off_c, 0, 71, 59
1, 299470, Note_on_c, 0, 79, 84
1, 299491, Note_off_c, 0, 47, 65
1, 299532, Note_on_c, 0, 83, 87
1, 299536, Note_off_c, 0, 79, 66
1, 299607, Note_on_c, 0, 61, 69
1, 299613, Note_on_c, 0, 80, 86
1, 299623, Note_off_c, 0, 83, 60
1, 299625, Note_on_c, 0, 53, 54
1, 299647, Note_off_c, 0, 61, 60
1, 299685, Note_off_c, 0, 53, 53
1, 299712, Control_c, 0, 67, 105
1, 299727, Control_c, 0, 67, 61
1, 299742, Control_c, 0, 67, 0
1, 299758, Note_on_c, 0, 61, 74
1, 299774, Note_on_c, 0, 53, 70
1, 299783, Note_off_c, 0, 61, 67
1, 299786, Control_c, 0, 64, 39
1, 299801, Control_c, 0, 64, 50
1, 299804, Note_off_c, 0, 53, 65
1, 299809, Note_off_c, 0, 80, 60
1, 299816, Control_c, 0, 64, 56
1, 299825, Note_on_c, 0, 79, 87
1, 299830, Control_c, 0, 64, 60
1, 299845, Control_c, 0, 64, 62
1, 299860, Control_c, 0, 64, 64
1, 299882, Control_c, 0, 64, 66
1, 299897, Control_c, 0, 64, 66
1, 299898, Note_off_c, 0, 79, 60
1, 299911, Control_c, 0, 64, 58
1, 299915, Note_on_c, 0, 83, 90
1, 299923, Note_on_c, 0, 46, 70
1, 299926, Control_c, 0, 64, 40
1, 299941, Control_c, 0, 64, 28
1, 299956, Control_c, 0, 64, 18
1, 299959, Note_off_c, 0, 46, 66
1, 299971, Control_c, 0, 64, 0
1, 300005, Note_on_c, 0, 95, 93
1, 300016, Control_c, 0, 64, 28
1, 300030, Control_c, 0, 64, 49
1, 300045, Control_c, 0, 64, 60
1, 300060, Control_c, 0, 64, 66
1, 300068, Note_on_c, 0, 92, 97
1, 300069, Note_on_c, 0, 62, 60
1, 300075, Control_c, 0, 64, 73
1, 300078, Note_on_c, 0, 53, 49
1, 300082, Note_off_c, 0, 83, 64
1, 300082, Note_off_c, 0, 95, 67
1, 300090, Control_c, 0, 64, 95
1, 300093, Note_off_c, 0, 92, 68
1, 300102, Note_off_c, 0, 62, 66
1, 300105, Control_c, 0, 64, 127
1, 300117, Note_off_c, 0, 53, 61
1, 300224, Control_c, 0, 64, 116
1, 300239, Control_c, 0, 64, 85
1, 300239, Control_c, 0, 67, 15
1, 300242, Note_on_c, 0, 53, 49
1, 300253, Control_c, 0, 64, 71
1, 300253, Control_c, 0, 67, 69
1, 300266, Note_off_c, 0, 53, 58
1, 300268, Control_c, 0, 64, 62
1, 300268, Control_c, 0, 67, 112
1, 300283, Control_c, 0, 64, 46
1, 300283, Control_c, 0, 67, 127
1, 300298, Control_c, 0, 64, 38
1, 300313, Control_c, 0, 64, 37
1, 300314, Note_on_c, 0, 67, 53
1, 300327, Control_c, 0, 64, 36
1, 300336, Note_off_c, 0, 67, 62
1, 300342, Control_c, 0, 64, 35
1, 300357, Control_c, 0, 64, 34
1, 300372, Control_c, 0, 64, 32
1, 300380, Note_on_c, 0, 71, 66
1, 300387, Control_c, 0, 64, 28
1, 300391, Note_on_c, 0, 47, 29
1, 300401, Control_c, 0, 64, 23
1, 300416, Control_c, 0, 64, 16
1, 300419, Note_off_c, 0, 47, 51
1, 300431, Control_c, 0, 64, 0
1, 300474, Note_on_c, 0, 83, 68
1, 300556, Note_on_c, 0, 61, 52
1, 300574, Note_on_c, 0, 53, 44
1, 300588, Note_on_c, 0, 80, 62
1, 300602, Note_off_c, 0, 83, 58
1, 300612, Note_off_c, 0, 61, 53
1, 300636, Note_off_c, 0, 53, 57
1, 300660, Control_c, 0, 64, 39
1, 300675, Control_c, 0, 64, 53
1, 300688, Note_off_c, 0, 71, 59
1, 300689, Control_c, 0, 64, 61
1, 300704, Control_c, 0, 64, 65
1, 300719, Control_c, 0, 64, 68
1, 300734, Control_c, 0, 64, 72
1, 300749, Control_c, 0, 64, 78
1, 300764, Control_c, 0, 64, 85
1, 300771, Note_off_c, 0, 80, 64
1, 300779, Control_c, 0, 64, 94
1, 300782, Note_on_c, 0, 53, 50
1, 300794, Control_c, 0, 64, 108
1, 300808, Control_c, 0, 64, 127
1, 300811, Note_on_c, 0, 61, 43
1, 300823, Control_c, 0, 67, 123
1, 300824, Note_off_c, 0, 53, 62
1, 300838, Control_c, 0, 67, 117
1, 300849, Note_off_c, 0, 61, 60
1, 300852, Control_c, 0, 67, 110
1, 300867, Control_c, 0, 67, 100
1, 300883, Control_c, 0, 67, 90
1, 300898, Control_c, 0, 67, 78
1, 300913, Control_c, 0, 67, 61
1, 300928, Control_c, 0, 67, 48
1, 300943, Control_c, 0, 67, 35
1, 300957, Control_c, 0, 67, 21
1, 300972, Control_c, 0, 67, 0
1, 301042, Note_on_c, 0, 71, 77
1, 301048, Note_on_c, 0, 60, 63
1, 301056, Note_on_c, 0, 64, 66
1, 301059, Note_on_c, 0, 96, 66
1, 301061, Control_c, 0, 64, 118
1, 301075, Control_c, 0, 64, 93
1, 301090, Control_c, 0, 64, 73
1, 301105, Control_c, 0, 64, 59
1, 301120, Control_c, 0, 64, 32
1, 301134, Note_off_c, 0, 96, 66
1, 301134, Note_on_c, 0, 100, 74
1, 301135, Control_c, 0, 64, 31
1, 301149, Control_c, 0, 64, 43
1, 301164, Control_c, 0, 64, 53
1, 301179, Control_c, 0, 64, 57
1, 301193, Control_c, 0, 64, 60
1, 301199, Note_off_c, 0, 71, 63
1, 301204, Note_on_c, 0, 66, 85
1, 301208, Control_c, 0, 64, 63
1, 301209, Note_on_c, 0, 96, 75
1, 301223, Control_c, 0, 64, 65
1, 301225, Note_off_c, 0, 100, 61
1, 301238, Control_c, 0, 64, 66
1, 301253, Control_c, 0, 64, 67
1, 301271, Note_off_c, 0, 96, 65
1, 301284, Note_on_c, 0, 84, 71
1, 301298, Control_c, 0, 64, 66
1, 301327, Note_off_c, 0, 84, 58
1, 301327, Control_c, 0, 64, 65
1, 301342, Control_c, 0, 64, 65
1, 301352, Note_on_c, 0, 70, 99
1, 301357, Control_c, 0, 64, 64
1, 301361, Note_on_c, 0, 88, 70
1, 301379, Control_c, 0, 64, 62
1, 301384, Note_off_c, 0, 66, 63
1, 301394, Control_c, 0, 64, 59
1, 301408, Control_c, 0, 64, 57
1, 301423, Control_c, 0, 64, 56
1, 301438, Control_c, 0, 64, 56
1, 301444, Note_off_c, 0, 88, 0
1, 301468, Control_c, 0, 64, 54
1, 301480, Poly_aftertouch_c, 0, 88, 127
1, 301482, Control_c, 0, 64, 53
1, 301512, Note_on_c, 0, 65, 87
1, 301512, Control_c, 0, 64, 53
1, 301521, Note_off_c, 0, 70, 65
1, 301542, Control_c, 0, 64, 52
1, 301597, Note_on_c, 0, 96, 75
1, 301628, Poly_aftertouch_c, 0, 88, 0
1, 301667, Note_on_c, 0, 100, 82
1, 301675, Note_on_c, 0, 69, 87
1, 301675, Note_off_c, 0, 96, 65
1, 301676, Control_c, 0, 64, 52
1, 301691, Control_c, 0, 64, 51
1, 301697, Note_off_c, 0, 65, 59
1, 301721, Control_c, 0, 64, 50
1, 301736, Control_c, 0, 64, 47
1, 301743, Note_off_c, 0, 100, 61
1, 301747, Note_on_c, 0, 96, 76
1, 301751, Control_c, 0, 64, 44
1, 301766, Control_c, 0, 64, 41
1, 301780, Control_c, 0, 64, 41
1, 301808, Note_off_c, 0, 69, 61
1, 301819, Note_on_c, 0, 66, 86
1, 301825, Control_c, 0, 64, 43
1, 301826, Note_off_c, 0, 96, 63
1, 301829, Note_on_c, 0, 88, 73
1, 301840, Control_c, 0, 64, 48
1, 301854, Control_c, 0, 64, 56
1, 301869, Control_c, 0, 64, 62
1, 301884, Control_c, 0, 64, 67
1, 301888, Note_off_c, 0, 88, 65
1, 301893, Note_on_c, 0, 96, 62
1, 301898, Control_c, 0, 64, 76
1, 301909, Note_off_c, 0, 64, 60
1, 301913, Control_c, 0, 64, 94
1, 301928, Control_c, 0, 64, 127
1, 301938, Note_off_c, 0, 96, 59
1, 301949, Note_on_c, 0, 68, 80
1, 301953, Note_off_c, 0, 66, 61
1, 301971, Note_off_c, 0, 60, 48
1, 301972, Note_off_c, 0, 68, 69
1, 301973, Note_on_c, 0, 88, 71
1, 301999, Note_off_c, 0, 88, 67
1, 302002, Control_c, 0, 64, 92
1, 302002, Control_c, 0, 67, 36
1, 302016, Control_c, 0, 64, 71
1, 302016, Control_c, 0, 67, 102
1, 302023, Note_on_c, 0, 84, 70
1, 302031, Control_c, 0, 64, 60
1, 302031, Control_c, 0, 67, 127
1, 302046, Control_c, 0, 64, 50
1, 302061, Control_c, 0, 64, 44
1, 302076, Control_c, 0, 64, 35
1, 302090, Control_c, 0, 64, 29
1, 302093, Note_off_c, 0, 84, 59
1, 302105, Control_c, 0, 64, 27
1, 302111, Note_on_c, 0, 64, 47
1, 302128, Control_c, 0, 64, 27
1, 302140, Note_on_c, 0, 53, 53
1, 302155, Note_on_c, 0, 81, 57
1, 302159, Note_on_c, 0, 87, 41
1, 302167, Note_on_c, 0, 57, 47
1, 302202, Note_off_c, 0, 81, 64
1, 302202, Note_off_c, 0, 87, 49
1, 302228, Note_on_c, 0, 84, 62
1, 302260, Note_off_c, 0, 64, 63
1, 302281, Note_on_c, 0, 81, 65
1, 302286, Note_on_c, 0, 59, 58
1, 302294, Note_off_c, 0, 84, 63
1, 302320, Note_off_c, 0, 81, 65
1, 302382, Note_on_c, 0, 69, 58
1, 302420, Note_off_c, 0, 69, 63
1, 302436, Note_off_c, 0, 59, 63
1, 302454, Note_on_c, 0, 63, 57
1, 302458, Note_on_c, 0, 72, 63
1, 302502, Note_off_c, 0, 72, 64
1, 302566, Note_on_c, 0, 72, 31
1, 302603, Control_c, 0, 64, 26
1, 302619, Note_off_c, 0, 63, 48
1, 302624, Note_on_c, 0, 58, 53
1, 302685, Note_off_c, 0, 72, 45
1, 302717, Note_on_c, 0, 81, 48
1, 302758, Note_off_c, 0, 81, 66
1, 302772, Note_on_c, 0, 62, 48
1, 302773, Note_on_c, 0, 84, 58
1, 302777, Note_off_c, 0, 58, 59
1, 302809, Control_c, 0, 64, 26
1, 302815, Note_off_c, 0, 84, 60
1, 302824, Control_c, 0, 64, 24
1, 302839, Control_c, 0, 64, 22
1, 302842, Note_on_c, 0, 81, 61
1, 302854, Control_c, 0, 64, 20
1, 302876, Control_c, 0, 64, 18
1, 302891, Control_c, 0, 64, 17
1, 302902, Note_off_c, 0, 81, 59
1, 302930, Note_off_c, 0, 62, 63
1, 302936, Note_on_c, 0, 72, 59
1, 302950, Control_c, 0, 64, 24
1, 302953, Note_on_c, 0, 59, 48
1, 302965, Control_c, 0, 64, 38
1, 302972, Note_off_c, 0, 72, 65
1, 302980, Control_c, 0, 64, 51
1, 302994, Control_c, 0, 64, 56
1, 303008, Note_on_c, 0, 81, 53
1, 303009, Control_c, 0, 64, 60
1, 303024, Control_c, 0, 64, 63
1, 303039, Control_c, 0, 64, 67
1, 303044, Note_off_c, 0, 81, 62
1, 303050, Note_off_c, 0, 57, 62
1, 303053, Control_c, 0, 64, 72
1, 303053, Control_c, 0, 67, 110
1, 303056, Note_off_c, 0, 53, 58
1, 303068, Control_c, 0, 64, 80
1, 303068, Control_c, 0, 67, 88
1, 303069, Note_off_c, 0, 59, 63
1, 303072, Note_on_c, 0, 72, 62
1, 303076, Note_on_c, 0, 61, 56
1, 303083, Control_c, 0, 64, 90
1, 303083, Control_c, 0, 67, 63
1, 303098, Note_off_c, 0, 61, 61
1, 303098, Control_c, 0, 64, 104
1, 303098, Control_c, 0, 67, 42
1, 303113, Control_c, 0, 64, 127
1, 303113, Control_c, 0, 67, 21
1, 303128, Control_c, 0, 67, 0
1, 303133, Note_off_c, 0, 72, 62
1, 303140, Note_on_c, 0, 69, 59
1, 303164, Note_off_c, 0, 69, 64
1, 303256, Note_on_c, 0, 60, 69
1, 303258, Note_on_c, 0, 71, 81
1, 303268, Note_on_c, 0, 64, 73
1, 303278, Note_on_c, 0, 96, 81
1, 303292, Control_c, 0, 64, 110
1, 303307, Control_c, 0, 64, 75
1, 303322, Control_c, 0, 64, 60
1, 303336, Note_off_c, 0, 96, 66
1, 303336, Control_c, 0, 64, 30
1, 303351, Control_c, 0, 64, 0
1, 303353, Note_on_c, 0, 100, 75
1, 303380, Note_off_c, 0, 71, 62
1, 303400, Note_on_c, 0, 66, 87
1, 303405, Note_off_c, 0, 100, 57
1, 303414, Note_on_c, 0, 96, 74
1, 303428, Note_on_c, 0, 95, 79
1, 303477, Note_off_c, 0, 96, 61
1, 303483, Note_on_c, 0, 84, 76
1, 303499, Note_on_c, 0, 86, 61
1, 303527, Note_off_c, 0, 95, 25
1, 303535, Note_off_c, 0, 86, 44
1, 303549, Note_on_c, 0, 70, 101
1, 303557, Note_on_c, 0, 88, 87
1, 303577, Note_off_c, 0, 66, 62
1, 303582, Note_off_c, 0, 84, 64
1, 303699, Control_c, 0, 64, 30
1, 303712, Note_on_c, 0, 67, 82
1, 303714, Control_c, 0, 64, 48
1, 303729, Control_c, 0, 64, 60
1, 303736, Note_off_c, 0, 70, 62
1, 303743, Control_c, 0, 64, 65
1, 303758, Note_off_c, 0, 88, 65
1, 303758, Control_c, 0, 64, 70
1, 303773, Note_on_c, 0, 96, 84
1, 303773, Control_c, 0, 64, 80
1, 303788, Control_c, 0, 64, 97
1, 303803, Control_c, 0, 64, 127
1, 303810, Note_off_c, 0, 64, 60
1, 303837, Note_on_c, 0, 68, 79
1, 303837, Note_off_c, 0, 96, 62
1, 303838, Note_off_c, 0, 67, 61
1, 303843, Note_on_c, 0, 88, 86
1, 303860, Note_off_c, 0, 68, 69
1, 303862, Control_c, 0, 64, 91
1, 303876, Control_c, 0, 64, 68
1, 303877, Note_off_c, 0, 88, 63
1, 303880, Note_off_c, 0, 60, 41
1, 303891, Control_c, 0, 64, 52
1, 303891, Control_c, 0, 67, 25
1, 303906, Note_on_c, 0, 84, 80
1, 303906, Control_c, 0, 64, 32
1, 303906, Control_c, 0, 67, 88
1, 303921, Control_c, 0, 64, 0
1, 303921, Control_c, 0, 67, 127
1, 303938, Note_off_c, 0, 84, 60
1, 303983, Note_on_c, 0, 81, 78
1, 303993, Note_on_c, 0, 64, 60
1, 304010, Note_on_c, 0, 53, 47
1, 304019, Note_on_c, 0, 57, 46
1, 304037, Note_off_c, 0, 81, 64
1, 304053, Note_on_c, 0, 84, 62
1, 304105, Note_off_c, 0, 64, 61
1, 304110, Note_on_c, 0, 81, 71
1, 304114, Note_off_c, 0, 84, 53
1, 304131, Note_on_c, 0, 59, 59
1, 304174, Note_off_c, 0, 81, 64
1, 304207, Note_on_c, 0, 69, 64
1, 304293, Note_off_c, 0, 59, 60
1, 304299, Note_on_c, 0, 72, 60
1, 304301, Note_on_c, 0, 63, 48
1, 304325, Note_off_c, 0, 69, 49
1, 304458, Note_on_c, 0, 60, 55
1, 304459, Note_off_c, 0, 63, 59
1, 304561, Note_off_c, 0, 72, 60
1, 304568, Control_c, 0, 64, 42
1, 304569, Note_on_c, 0, 81, 66
1, 304582, Control_c, 0, 64, 54
1, 304597, Control_c, 0, 64, 60
1, 304612, Control_c, 0, 64, 64
1, 304627, Control_c, 0, 64, 67
1, 304639, Note_on_c, 0, 61, 58
1, 304642, Control_c, 0, 64, 72
1, 304643, Note_off_c, 0, 60, 63
1, 304645, Note_off_c, 0, 57, 61
1, 304648, Note_off_c, 0, 81, 60
1, 304657, Control_c, 0, 64, 78
1, 304662, Note_off_c, 0, 53, 41
1, 304672, Control_c, 0, 64, 82
1, 304672, Control_c, 0, 67, 109
1, 304674, Note_off_c, 0, 61, 65
1, 304687, Control_c, 0, 64, 86
1, 304687, Control_c, 0, 67, 88
1, 304690, Note_on_c, 0, 72, 53
1, 304701, Control_c, 0, 64, 90
1, 304701, Control_c, 0, 67, 69
1, 304716, Control_c, 0, 64, 95
1, 304716, Control_c, 0, 67, 53
1, 304718, Note_off_c, 0, 72, 65
1, 304731, Control_c, 0, 64, 104
1, 304731, Control_c, 0, 67, 38
1, 304746, Control_c, 0, 64, 127
1, 304746, Control_c, 0, 67, 23
1, 304758, Note_on_c, 0, 69, 57
1, 304761, Control_c, 0, 67, 8
1, 304775, Control_c, 0, 67, 0
1, 304779, Note_off_c, 0, 69, 59
1, 304824, Note_on_c, 0, 60, 62
1, 304849, Control_c, 0, 64, 82
1, 304865, Control_c, 0, 64, 59
1, 304875, Note_on_c, 0, 67, 68
1, 304880, Control_c, 0, 64, 0
1, 304900, Note_off_c, 0, 60, 65
1, 304919, Note_off_c, 0, 67, 65
1, 304924, Control_c, 0, 64, 36
1, 304925, Note_on_c, 0, 76, 94
1, 304931, Note_on_c, 0, 84, 100
1, 304939, Control_c, 0, 64, 61
1, 304949, Note_off_c, 0, 76, 68
1, 304954, Control_c, 0, 64, 71
1, 304969, Control_c, 0, 64, 87
1, 304984, Control_c, 0, 64, 127
1, 305020, Note_on_c, 0, 88, 86
1, 305027, Note_off_c, 0, 84, 64
1, 305098, Note_on_c, 0, 84, 76
1, 305104, Note_off_c, 0, 88, 59
1, 305167, Note_off_c, 0, 84, 63
1, 305185, Note_on_c, 0, 72, 75
1, 305237, Note_off_c, 0, 72, 65
1, 305251, Note_on_c, 0, 76, 97
1, 305254, Note_on_c, 0, 78, 85
1, 305293, Note_off_c, 0, 76, 69
1, 305335, Note_on_c, 0, 82, 73
1, 305337, Note_off_c, 0, 78, 64
1, 305374, Note_off_c, 0, 82, 64
1, 305414, Note_on_c, 0, 78, 82
1, 305476, Note_off_c, 0, 78, 65
1, 305502, Note_on_c, 0, 66, 72
1, 305524, Control_c, 0, 64, 86
1, 305539, Control_c, 0, 64, 62
1, 305554, Control_c, 0, 64, 21
1, 305555, Note_on_c, 0, 70, 93
1, 305560, Note_on_c, 0, 84, 101
1, 305569, Note_off_c, 0, 66, 62
1, 305569, Control_c, 0, 64, 24
1, 305584, Control_c, 0, 64, 51
1, 305588, Note_off_c, 0, 70, 65
1, 305598, Control_c, 0, 64, 60
1, 305613, Control_c, 0, 64, 67
1, 305628, Control_c, 0, 64, 82
1, 305642, Control_c, 0, 64, 127
1, 305651, Note_on_c, 0, 88, 87
1, 305656, Note_off_c, 0, 84, 64
1, 305727, Note_on_c, 0, 84, 80
1, 305750, Note_off_c, 0, 88, 63
1, 305801, Note_off_c, 0, 84, 64
1, 305818, Note_on_c, 0, 72, 78
1, 305885, Note_off_c, 0, 72, 66
1, 305890, Note_on_c, 0, 76, 98
1, 305897, Note_on_c, 0, 78, 91
1, 305923, Note_off_c, 0, 76, 68
1, 305981, Note_on_c, 0, 82, 73
1, 305981, Note_off_c, 0, 78, 64
1, 306024, Note_off_c, 0, 82, 64
1, 306066, Note_on_c, 0, 78, 78
1, 306115, Note_off_c, 0, 78, 65
1, 306127, Note_on_c, 0, 84, 99
1, 306139, Note_on_c, 0, 66, 68
1, 306154, Control_c, 0, 64, 107
1, 306169, Control_c, 0, 64, 69
1, 306181, Note_off_c, 0, 84, 58
1, 306184, Control_c, 0, 64, 41
1, 306199, Control_c, 0, 64, 0
1, 306203, Note_on_c, 0, 88, 93
1, 306209, Note_on_c, 0, 70, 79
1, 306228, Control_c, 0, 64, 34
1, 306243, Control_c, 0, 64, 55
1, 306258, Control_c, 0, 64, 64
1, 306259, Note_off_c, 0, 66, 58
1, 306273, Control_c, 0, 64, 73
1, 306287, Note_on_c, 0, 84, 82
1, 306288, Control_c, 0, 64, 96
1, 306288, Note_off_c, 0, 88, 60
1, 306294, Note_on_c, 0, 85, 73
1, 306302, Control_c, 0, 64, 127
1, 306319, Note_off_c, 0, 85, 70
1, 306339, Note_off_c, 0, 84, 66
1, 306354, Note_on_c, 0, 72, 83
1, 306365, Note_off_c, 0, 70, 63
1, 306408, Note_off_c, 0, 72, 66
1, 306424, Note_on_c, 0, 76, 94
1, 306432, Note_on_c, 0, 78, 85
1, 306461, Note_off_c, 0, 76, 67
1, 306520, Note_on_c, 0, 82, 80
1, 306529, Note_off_c, 0, 78, 58
1, 306542, Note_off_c, 0, 82, 70
1, 306561, Note_on_c, 0, 84, 97
1, 306583, Poly_aftertouch_c, 0, 78, 0
1, 306589, Note_on_c, 0, 78, 53
1, 306618, Note_off_c, 0, 78, 59
1, 306648, Note_on_c, 0, 88, 91
1, 306651, Note_off_c, 0, 84, 61
1, 306666, Control_c, 0, 64, 78
1, 306669, Note_on_c, 0, 66, 73
1, 306678, Note_on_c, 0, 68, 37
1, 306681, Control_c, 0, 64, 57
1, 306695, Control_c, 0, 64, 0
1, 306702, Note_off_c, 0, 88, 55
1, 306710, Note_off_c, 0, 68, 33
1, 306725, Control_c, 0, 64, 40
1, 306740, Control_c, 0, 64, 56
1, 306743, Note_on_c, 0, 84, 89
1, 306746, Note_on_c, 0, 70, 77
1, 306748, Note_off_c, 0, 66, 62
1, 306755, Control_c, 0, 64, 65
1, 306769, Control_c, 0, 64, 76
1, 306784, Control_c, 0, 64, 104
1, 306788, Note_off_c, 0, 84, 65
1, 306799, Control_c, 0, 64, 127
1, 306803, Note_on_c, 0, 72, 81
1, 306830, Note_off_c, 0, 70, 62
1, 306866, Note_off_c, 0, 72, 65
1, 306884, Note_on_c, 0, 76, 82
1, 306885, Note_on_c, 0, 78, 82
1, 306901, Note_on_c, 0, 74, 48
1, 306914, Note_off_c, 0, 76, 65
1, 306923, Note_off_c, 0, 74, 60
1, 306937, Note_off_c, 0, 78, 61
1, 306969, Note_on_c, 0, 82, 88
1, 306988, Note_off_c, 0, 82, 73
1, 307023, Note_on_c, 0, 84, 99
1, 307050, Note_on_c, 0, 78, 51
1, 307074, Note_off_c, 0, 84, 66
1, 307075, Note_off_c, 0, 78, 52
1, 307110, Note_on_c, 0, 88, 94
1, 307110, Control_c, 0, 64, 92
1, 307120, Note_on_c, 0, 66, 73
1, 307125, Control_c, 0, 64, 63
1, 307140, Control_c, 0, 64, 0
1, 307205, Note_on_c, 0, 84, 79
1, 307205, Note_off_c, 0, 66, 61
1, 307212, Note_off_c, 0, 88, 62
1, 307214, Control_c, 0, 64, 40
1, 307216, Note_on_c, 0, 70, 63
1, 307229, Control_c, 0, 64, 59
1, 307243, Control_c, 0, 64, 67
1, 307258, Control_c, 0, 64, 76
1, 307262, Note_off_c, 0, 84, 65
1, 307274, Control_c, 0, 64, 90
1, 307289, Control_c, 0, 64, 121
1, 307290, Note_on_c, 0, 72, 74
1, 307298, Note_off_c, 0, 70, 60
1, 307304, Control_c, 0, 64, 127
1, 307353, Note_off_c, 0, 72, 63
1, 307373, Note_on_c, 0, 78, 64
1, 307386, Note_on_c, 0, 76, 71
1, 307415, Note_off_c, 0, 76, 67
1, 307444, Note_off_c, 0, 78, 0
1, 307462, Poly_aftertouch_c, 0, 78, 0
1, 307464, Note_on_c, 0, 82, 72
1, 307489, Note_off_c, 0, 82, 69
1, 307543, Note_on_c, 0, 78, 65
1, 307551, Note_on_c, 0, 84, 78
1, 307577, Note_off_c, 0, 78, 66
1, 307622, Control_c, 0, 64, 107
1, 307629, Note_on_c, 0, 66, 58
1, 307629, Note_off_c, 0, 84, 63
1, 307632, Note_on_c, 0, 88, 78
1, 307637, Control_c, 0, 64, 71
1, 307652, Control_c, 0, 64, 55
1, 307666, Control_c, 0, 64, 30
1, 307681, Control_c, 0, 64, 37
1, 307683, Note_off_c, 0, 66, 58
1, 307696, Control_c, 0, 64, 49
1, 307701, Note_on_c, 0, 70, 62
1, 307710, Control_c, 0, 64, 57
1, 307716, Note_on_c, 0, 84, 76
1, 307716, Note_off_c, 0, 88, 61
1, 307725, Control_c, 0, 64, 63
1, 307740, Note_off_c, 0, 70, 65
1, 307740, Control_c, 0, 64, 69
1, 307755, Control_c, 0, 64, 79
1, 307770, Control_c, 0, 64, 108
1, 307776, Note_off_c, 0, 84, 59
1, 307784, Control_c, 0, 64, 127
1, 307795, Note_on_c, 0, 78, 66
1, 307799, Note_on_c, 0, 72, 61
1, 307818, Note_off_c, 0, 72, 66
1, 307864, Note_on_c, 0, 76, 76
1, 307867, Note_off_c, 0, 78, 40
1, 307871, Note_on_c, 0, 82, 74
1, 307894, Note_off_c, 0, 76, 67
1, 307897, Note_off_c, 0, 82, 69
1, 307944, Note_on_c, 0, 78, 64
1, 307968, Note_off_c, 0, 78, 65
1, 308028, Note_on_c, 0, 66, 62
1, 308038, Note_on_c, 0, 76, 73
1, 308097, Note_off_c, 0, 76, 65
1, 308100, Note_on_c, 0, 70, 63
1, 308117, Note_on_c, 0, 84, 82
1, 308153, Note_off_c, 0, 70, 56
1, 308183, Note_on_c, 0, 88, 95
1, 308193, Note_off_c, 0, 84, 62
1, 308256, Note_off_c, 0, 66, 50
1, 308269, Note_on_c, 0, 70, 60
1, 308272, Note_on_c, 0, 84, 77
1, 308297, Note_off_c, 0, 88, 61
1, 308300, Note_off_c, 0, 70, 66
1, 308337, Note_off_c, 0, 84, 62
1, 308346, Note_on_c, 0, 76, 66
1, 308366, Note_on_c, 0, 78, 65
1, 308378, Note_off_c, 0, 76, 66
1, 308410, Note_off_c, 0, 78, 65
1, 308410, Note_on_c, 0, 84, 84
1, 308482, Note_on_c, 0, 76, 74
1, 308486, Note_off_c, 0, 84, 63
1, 308542, Note_off_c, 0, 76, 64
1, 308577, Note_on_c, 0, 72, 52
1, 308593, Note_on_c, 0, 70, 5
1, 308598, Note_off_c, 0, 72, 60
1, 308648, Note_off_c, 0, 70, 48
1, 308651, Note_on_c, 0, 78, 70
1, 308654, Note_on_c, 0, 76, 78
1, 308681, Note_off_c, 0, 78, 65
1, 308712, Control_c, 0, 64, 107
1, 308713, Note_off_c, 0, 76, 62
1, 308725, Note_on_c, 0, 84, 80
1, 308727, Control_c, 0, 64, 72
1, 308741, Note_on_c, 0, 70, 61
1, 308741, Control_c, 0, 64, 45
1, 308756, Control_c, 0, 64, 0
1, 308783, Note_off_c, 0, 84, 64
1, 308792, Note_off_c, 0, 70, 58
1, 308795, Note_on_c, 0, 88, 85
1, 308829, Note_on_c, 0, 66, 52
1, 308830, Control_c, 0, 64, 32
1, 308845, Control_c, 0, 64, 58
1, 308869, Control_c, 0, 64, 66
1, 308884, Control_c, 0, 64, 73
1, 308899, Control_c, 0, 64, 87
1, 308899, Note_off_c, 0, 66, 62
1, 308900, Note_on_c, 0, 84, 76
1, 308908, Note_off_c, 0, 88, 58
1, 308911, Note_on_c, 0, 70, 62
1, 308914, Control_c, 0, 64, 114
1, 308928, Control_c, 0, 64, 127
1, 308941, Note_off_c, 0, 70, 69
1, 308950, Note_off_c, 0, 84, 64
1, 308991, Note_on_c, 0, 72, 65
1, 308999, Note_on_c, 0, 78, 63
1, 309019, Note_off_c, 0, 72, 67
1, 309052, Note_on_c, 0, 76, 80
1, 309060, Note_on_c, 0, 82, 84
1, 309069, Note_off_c, 0, 78, 65
1, 309080, Note_off_c, 0, 82, 73
1, 309085, Note_off_c, 0, 76, 63
1, 309151, Note_on_c, 0, 78, 71
1, 309166, Note_off_c, 0, 78, 67
1, 309226, Note_on_c, 0, 66, 68
1, 309236, Note_on_c, 0, 76, 84
1, 309307, Note_off_c, 0, 76, 64
1, 309310, Note_on_c, 0, 84, 82
1, 309324, Note_on_c, 0, 69, 51
1, 309359, Note_off_c, 0, 69, 63
1, 309379, Note_on_c, 0, 88, 92
1, 309389, Note_off_c, 0, 84, 65
1, 309459, Note_on_c, 0, 84, 83
1, 309461, Note_on_c, 0, 70, 62
1, 309462, Note_off_c, 0, 66, 51
1, 309490, Note_off_c, 0, 88, 62
1, 309501, Note_off_c, 0, 70, 64
1, 309532, Note_off_c, 0, 84, 62
1, 309543, Note_on_c, 0, 76, 71
1, 309561, Note_on_c, 0, 78, 60
1, 309584, Note_off_c, 0, 76, 63
1, 309618, Note_on_c, 0, 84, 86
1, 309629, Note_off_c, 0, 78, 65
1, 309632, Note_on_c, 0, 82, 45
1, 309658, Note_off_c, 0, 82, 39
1, 309699, Note_on_c, 0, 76, 73
1, 309700, Note_off_c, 0, 84, 46
1, 309756, Note_off_c, 0, 76, 62
1, 309778, Note_on_c, 0, 72, 50
1, 309802, Note_off_c, 0, 72, 60
1, 309810, Control_c, 0, 67, 43
1, 309812, Note_on_c, 0, 70, 5
1, 309825, Control_c, 0, 64, 101
1, 309825, Control_c, 0, 67, 95
1, 309840, Control_c, 0, 64, 90
1, 309840, Control_c, 0, 67, 127
1, 309844, Note_on_c, 0, 78, 77
1, 309853, Note_on_c, 0, 76, 81
1, 309855, Control_c, 0, 64, 81
1, 309864, Note_off_c, 0, 70, 49
1, 309869, Control_c, 0, 64, 71
1, 309871, Note_off_c, 0, 78, 68
1, 309879, Note_off_c, 0, 76, 67
1, 309884, Control_c, 0, 64, 65
1, 309899, Control_c, 0, 64, 61
1, 309913, Control_c, 0, 64, 57
1, 309928, Control_c, 0, 64, 51
1, 309943, Control_c, 0, 64, 42
1, 309950, Note_on_c, 0, 76, 74
1, 309951, Note_on_c, 0, 78, 57
1, 309958, Control_c, 0, 64, 17
1, 309973, Control_c, 0, 64, 0
1, 309988, Note_off_c, 0, 78, 62
1, 310006, Note_off_c, 0, 76, 60
1, 310017, Note_on_c, 0, 84, 60
1, 310021, Note_on_c, 0, 70, 53
1, 310061, Control_c, 0, 64, 21
1, 310073, Note_off_c, 0, 70, 57
1, 310076, Control_c, 0, 64, 41
1, 310083, Note_off_c, 0, 84, 61
1, 310091, Control_c, 0, 64, 52
1, 310106, Control_c, 0, 64, 59
1, 310112, Note_on_c, 0, 66, 48
1, 310121, Control_c, 0, 64, 62
1, 310121, Note_on_c, 0, 88, 33
1, 310136, Control_c, 0, 64, 64
1, 310148, Note_on_c, 0, 86, 22
1, 310151, Control_c, 0, 64, 65
1, 310166, Control_c, 0, 64, 66
1, 310167, Note_off_c, 0, 88, 46
1, 310172, Note_off_c, 0, 66, 60
1, 310175, Note_off_c, 0, 86, 33
1, 310197, Note_on_c, 0, 84, 56
1, 310207, Note_on_c, 0, 70, 34
1, 310236, Note_off_c, 0, 84, 61
1, 310237, Note_off_c, 0, 70, 52
1, 310273, Note_on_c, 0, 76, 61
1, 310284, Note_on_c, 0, 78, 52
1, 310284, Control_c, 0, 64, 66
1, 310312, Note_off_c, 0, 76, 64
1, 310328, Control_c, 0, 64, 67
1, 310347, Note_on_c, 0, 84, 64
1, 310362, Note_off_c, 0, 78, 64
1, 310362, Note_on_c, 0, 82, 58
1, 310365, Control_c, 0, 64, 67
1, 310383, Note_off_c, 0, 82, 61
1, 310410, Control_c, 0, 64, 68
1, 310432, Note_off_c, 0, 84, 57
1, 310440, Control_c, 0, 64, 69
1, 310448, Note_on_c, 0, 76, 62
1, 310455, Control_c, 0, 64, 70
1, 310470, Control_c, 0, 64, 71
1, 310485, Control_c, 0, 64, 73
1, 310500, Control_c, 0, 64, 74
1, 310503, Note_off_c, 0, 76, 56
1, 310514, Control_c, 0, 64, 74
1, 310516, Note_on_c, 0, 70, 49
1, 310534, Note_on_c, 0, 72, 55
1, 310553, Note_off_c, 0, 72, 61
1, 310559, Control_c, 0, 64, 74
1, 310565, Note_off_c, 0, 70, 59
1, 310574, Control_c, 0, 64, 73
1, 310589, Control_c, 0, 64, 70
1, 310604, Control_c, 0, 64, 66
1, 310618, Control_c, 0, 64, 61
1, 310625, Note_on_c, 0, 78, 65
1, 310633, Control_c, 0, 64, 57
1, 310634, Note_on_c, 0, 76, 65
1, 310648, Control_c, 0, 64, 54
1, 310663, Control_c, 0, 64, 51
1, 310664, Note_off_c, 0, 78, 60
1, 310676, Note_off_c, 0, 76, 60
1, 310678, Control_c, 0, 64, 49
1, 310692, Control_c, 0, 64, 48
1, 310707, Control_c, 0, 64, 47
1, 310722, Control_c, 0, 64, 46
1, 310726, Note_on_c, 0, 86, 72
1, 310736, Control_c, 0, 64, 44
1, 310741, Note_on_c, 0, 70, 40
1, 310751, Control_c, 0, 64, 41
1, 310766, Control_c, 0, 64, 38
1, 310769, Note_off_c, 0, 70, 59
1, 310772, Note_off_c, 0, 86, 56
1, 310781, Control_c, 0, 64, 34
1, 310783, Note_on_c, 0, 66, 45
1, 310796, Control_c, 0, 64, 28
1, 310810, Control_c, 0, 64, 18
1, 310816, Note_off_c, 0, 66, 63
1, 310825, Control_c, 0, 64, 0
1, 310834, Note_on_c, 0, 84, 58
1, 310869, Note_off_c, 0, 84, 60
1, 310932, Note_on_c, 0, 83, 69
1, 310944, Control_c, 0, 64, 16
1, 310956, Note_on_c, 0, 67, 41
1, 310959, Control_c, 0, 64, 34
1, 310974, Control_c, 0, 64, 47
1, 310988, Control_c, 0, 64, 55
1, 311003, Control_c, 0, 64, 58
1, 311018, Control_c, 0, 64, 61
1, 311033, Control_c, 0, 64, 63
1, 311047, Control_c, 0, 64, 65
1, 311054, Note_on_c, 0, 73, 44
1, 311062, Control_c, 0, 64, 67
1, 311073, Note_on_c, 0, 78, 39
1, 311077, Control_c, 0, 64, 70
1, 311091, Control_c, 0, 64, 73
1, 311111, Note_off_c, 0, 73, 57
1, 311114, Control_c, 0, 64, 76
1, 311117, Note_off_c, 0, 78, 53
1, 311129, Control_c, 0, 64, 77
1, 311143, Control_c, 0, 64, 77
1, 311158, Control_c, 0, 64, 77
1, 311165, Note_on_c, 0, 71, 45
1, 311173, Control_c, 0, 64, 76
1, 311181, Note_on_c, 0, 87, 45
1, 311188, Control_c, 0, 64, 75
1, 311203, Control_c, 0, 64, 73
1, 311217, Control_c, 0, 64, 69
1, 311232, Control_c, 0, 64, 64
1, 311233, Note_off_c, 0, 67, 26
1, 311236, Note_off_c, 0, 71, 56
1, 311247, Control_c, 0, 64, 59
1, 311262, Note_off_c, 0, 87, 58
1, 311263, Note_on_c, 0, 77, 50
1, 311263, Control_c, 0, 64, 52
1, 311264, Note_off_c, 0, 83, 57
1, 311266, Note_on_c, 0, 82, 61
1, 311278, Control_c, 0, 64, 41
1, 311293, Note_off_c, 0, 77, 60
1, 311293, Control_c, 0, 64, 11
1, 311301, Note_off_c, 0, 82, 62
1, 311307, Control_c, 0, 64, 0
1, 311348, Note_on_c, 0, 86, 64
1, 311387, Note_off_c, 0, 86, 61
1, 311418, Note_on_c, 0, 84, 66
1, 311449, Note_off_c, 0, 84, 63
1, 311501, Note_on_c, 0, 83, 85
1, 311514, Note_on_c, 0, 67, 42
1, 311529, Control_c, 0, 64, 13
1, 311544, Control_c, 0, 64, 46
1, 311558, Control_c, 0, 64, 57
1, 311573, Control_c, 0, 64, 63
1, 311588, Control_c, 0, 64, 66
1, 311593, Note_on_c, 0, 73, 48
1, 311603, Control_c, 0, 64, 69
1, 311618, Control_c, 0, 64, 73
1, 311632, Control_c, 0, 64, 77
1, 311636, Note_off_c, 0, 73, 61
1, 311644, Note_off_c, 0, 67, 28
1, 311647, Control_c, 0, 64, 80
1, 311662, Control_c, 0, 64, 82
1, 311677, Note_on_c, 0, 71, 52
1, 311677, Control_c, 0, 64, 83
1, 311707, Control_c, 0, 64, 82
1, 311722, Control_c, 0, 64, 80
1, 311726, Note_on_c, 0, 87, 50
1, 311733, Note_off_c, 0, 71, 62
1, 311737, Control_c, 0, 64, 75
1, 311751, Control_c, 0, 64, 67
1, 311766, Control_c, 0, 64, 54
1, 311768, Note_on_c, 0, 77, 67
1, 311777, Note_off_c, 0, 83, 59
1, 311778, Note_on_c, 0, 82, 75
1, 311781, Control_c, 0, 64, 23
1, 311785, Note_off_c, 0, 87, 58
1, 311793, Note_off_c, 0, 77, 63
1, 311796, Control_c, 0, 64, 0
1, 311826, Note_off_c, 0, 82, 58
1, 311874, Note_on_c, 0, 86, 70
1, 311930, Note_off_c, 0, 86, 63
1, 311943, Note_on_c, 0, 84, 74
1, 311985, Note_off_c, 0, 84, 65
1, 312027, Note_on_c, 0, 83, 92
1, 312039, Note_on_c, 0, 67, 42
1, 312040, Control_c, 0, 64, 50
1, 312056, Control_c, 0, 64, 62
1, 312071, Control_c, 0, 64, 67
1, 312085, Control_c, 0, 64, 71
1, 312100, Control_c, 0, 64, 77
1, 312109, Note_on_c, 0, 73, 55
1, 312115, Control_c, 0, 64, 85
1, 312118, Note_off_c, 0, 83, 61
1, 312123, Note_on_c, 0, 78, 67
1, 312130, Control_c, 0, 64, 92
1, 312140, Note_off_c, 0, 67, 33
1, 312145, Control_c, 0, 64, 97
1, 312160, Control_c, 0, 64, 99
1, 312171, Note_off_c, 0, 73, 55
1, 312178, Note_off_c, 0, 78, 55
1, 312189, Control_c, 0, 64, 98
1, 312201, Note_on_c, 0, 71, 54
1, 312204, Control_c, 0, 64, 97
1, 312205, Note_on_c, 0, 87, 76
1, 312219, Control_c, 0, 64, 94
1, 312234, Control_c, 0, 64, 85
1, 312240, Note_off_c, 0, 71, 65
1, 312249, Control_c, 0, 64, 71
1, 312263, Control_c, 0, 64, 59
1, 312277, Note_on_c, 0, 77, 71
1, 312278, Control_c, 0, 64, 30
1, 312279, Note_on_c, 0, 82, 90
1, 312290, Note_off_c, 0, 87, 64
1, 312293, Control_c, 0, 64, 0
1, 312301, Note_off_c, 0, 82, 68
1, 312317, Note_off_c, 0, 77, 62
1, 312361, Note_on_c, 0, 91, 83
1, 312370, Note_on_c, 0, 75, 61
1, 312401, Note_off_c, 0, 75, 66
1, 312441, Note_on_c, 0, 86, 78
1, 312442, Note_off_c, 0, 91, 64
1, 312454, Note_on_c, 0, 81, 65
1, 312478, Note_off_c, 0, 81, 65
1, 312479, Note_off_c, 0, 86, 64
1, 312485, Control_c, 0, 64, 16
1, 312500, Control_c, 0, 64, 49
1, 312506, Note_on_c, 0, 79, 93
1, 312515, Control_c, 0, 64, 59
1, 312517, Note_on_c, 0, 95, 95
1, 312521, Note_off_c, 0, 79, 78
1, 312530, Control_c, 0, 64, 64
1, 312544, Control_c, 0, 64, 69
1, 312559, Control_c, 0, 64, 75
1, 312574, Control_c, 0, 64, 85
1, 312589, Control_c, 0, 64, 94
1, 312609, Note_on_c, 0, 91, 80
1, 312611, Control_c, 0, 64, 100
1, 312626, Note_off_c, 0, 95, 63
1, 312626, Control_c, 0, 64, 105
1, 312641, Control_c, 0, 64, 110
1, 312655, Control_c, 0, 64, 111
1, 312670, Control_c, 0, 64, 111
1, 312685, Control_c, 0, 64, 107
1, 312688, Note_on_c, 0, 86, 76
1, 312693, Note_off_c, 0, 91, 64
1, 312700, Control_c, 0, 64, 96
1, 312714, Control_c, 0, 64, 79
1, 312729, Control_c, 0, 64, 64
1, 312744, Note_off_c, 0, 86, 63
1, 312744, Control_c, 0, 64, 44
1, 312759, Control_c, 0, 64, 0
1, 312774, Note_on_c, 0, 79, 60
1, 312810, Note_off_c, 0, 79, 62
1, 312862, Note_on_c, 0, 86, 58
1, 312901, Note_off_c, 0, 86, 63
1, 312926, Note_on_c, 0, 84, 51
1, 312964, Note_off_c, 0, 84, 65
1, 313021, Note_on_c, 0, 83, 61
1, 313029, Note_on_c, 0, 67, 28
1, 313057, Control_c, 0, 64, 16
1, 313072, Control_c, 0, 64, 37
1, 313086, Control_c, 0, 64, 48
1, 313095, Note_on_c, 0, 73, 40
1, 313101, Control_c, 0, 64, 52
1, 313116, Control_c, 0, 64, 55
1, 313124, Note_on_c, 0, 78, 40
1, 313130, Control_c, 0, 64, 58
1, 313145, Control_c, 0, 64, 59
1, 313150, Note_off_c, 0, 78, 56
1, 313163, Note_off_c, 0, 73, 51
1, 313175, Control_c, 0, 64, 59
1, 313182, Note_on_c, 0, 71, 45
1, 313190, Control_c, 0, 64, 58
1, 313204, Control_c, 0, 64, 56
1, 313219, Control_c, 0, 64, 54
1, 313224, Note_on_c, 0, 87, 26
1, 313234, Control_c, 0, 64, 52
1, 313248, Note_off_c, 0, 71, 52
1, 313249, Control_c, 0, 64, 51
1, 313255, Note_off_c, 0, 67, 28
1, 313263, Note_off_c, 0, 87, 54
1, 313264, Control_c, 0, 64, 50
1, 313271, Note_on_c, 0, 77, 57
1, 313272, Note_off_c, 0, 83, 27
1, 313278, Control_c, 0, 64, 48
1, 313281, Note_on_c, 0, 82, 56
1, 313293, Control_c, 0, 64, 47
1, 313306, Note_off_c, 0, 77, 60
1, 313308, Control_c, 0, 64, 45
1, 313311, Note_off_c, 0, 82, 55
1, 313322, Control_c, 0, 64, 42
1, 313337, Control_c, 0, 64, 40
1, 313359, Control_c, 0, 64, 38
1, 313369, Note_on_c, 0, 86, 58
1, 313374, Control_c, 0, 64, 37
1, 313389, Control_c, 0, 64, 35
1, 313403, Control_c, 0, 64, 34
1, 313418, Control_c, 0, 64, 34
1, 313433, Note_off_c, 0, 86, 59
1, 313448, Note_on_c, 0, 84, 54
1, 313492, Control_c, 0, 64, 35
1, 313507, Control_c, 0, 64, 38
1, 313515, Note_off_c, 0, 84, 61
1, 313522, Control_c, 0, 64, 41
1, 313534, Note_on_c, 0, 67, 36
1, 313537, Control_c, 0, 64, 46
1, 313549, Note_on_c, 0, 83, 55
1, 313552, Control_c, 0, 64, 49
1, 313567, Control_c, 0, 64, 51
1, 313582, Control_c, 0, 64, 54
1, 313597, Control_c, 0, 64, 56
1, 313611, Control_c, 0, 64, 58
1, 313621, Note_on_c, 0, 73, 36
1, 313626, Control_c, 0, 64, 59
1, 313641, Control_c, 0, 64, 60
1, 313653, Note_on_c, 0, 78, 24
1, 313656, Control_c, 0, 64, 61
1, 313671, Control_c, 0, 64, 62
1, 313676, Note_off_c, 0, 73, 57
1, 313677, Note_off_c, 0, 78, 46
1, 313708, Note_on_c, 0, 71, 43
1, 313710, Note_on_c, 0, 87, 54
1, 313716, Control_c, 0, 64, 61
1, 313731, Control_c, 0, 64, 61
1, 313746, Control_c, 0, 64, 60
1, 313760, Control_c, 0, 64, 60
1, 313775, Control_c, 0, 64, 58
1, 313790, Control_c, 0, 64, 57
1, 313796, Note_on_c, 0, 77, 50
1, 313799, Note_off_c, 0, 87, 64
1, 313805, Control_c, 0, 64, 56
1, 313807, Note_on_c, 0, 82, 60
1, 313811, Note_off_c, 0, 71, 54
1, 313813, Note_off_c, 0, 83, 16
1, 313820, Control_c, 0, 64, 55
1, 313831, Note_off_c, 0, 77, 61
1, 313834, Control_c, 0, 64, 53
1, 313843, Note_off_c, 0, 67, 39
1, 313843, Note_off_c, 0, 82, 56
1, 313849, Control_c, 0, 64, 51
1, 313864, Control_c, 0, 64, 48
1, 313879, Control_c, 0, 64, 45
1, 313892, Note_on_c, 0, 86, 51
1, 313894, Control_c, 0, 64, 42
1, 313908, Control_c, 0, 64, 39
1, 313923, Control_c, 0, 64, 37
1, 313938, Control_c, 0, 64, 36
1, 313940, Note_off_c, 0, 86, 60
1, 313952, Control_c, 0, 64, 36
1, 313974, Note_on_c, 0, 84, 52
1, 313982, Control_c, 0, 64, 36
1, 313997, Control_c, 0, 64, 40
1, 314012, Control_c, 0, 64, 46
1, 314026, Control_c, 0, 64, 53
1, 314038, Note_on_c, 0, 67, 34
1, 314040, Note_off_c, 0, 84, 64
1, 314041, Control_c, 0, 64, 57
1, 314056, Control_c, 0, 64, 60
1, 314059, Note_on_c, 0, 83, 66
1, 314071, Control_c, 0, 64, 62
1, 314086, Control_c, 0, 64, 64
1, 314108, Control_c, 0, 64, 66
1, 314123, Control_c, 0, 64, 68
1, 314138, Control_c, 0, 64, 70
1, 314150, Note_on_c, 0, 73, 33
1, 314151, Note_off_c, 0, 83, 60
1, 314152, Control_c, 0, 64, 72
1, 314182, Control_c, 0, 64, 72
1, 314183, Note_on_c, 0, 78, 52
1, 314191, Note_off_c, 0, 67, 34
1, 314192, Note_off_c, 0, 73, 48
1, 314219, Note_off_c, 0, 78, 59
1, 314226, Note_on_c, 0, 71, 49
1, 314239, Note_on_c, 0, 87, 60
1, 314241, Control_c, 0, 64, 72
1, 314256, Control_c, 0, 64, 71
1, 314271, Control_c, 0, 64, 70
1, 314278, Note_off_c, 0, 71, 59
1, 314286, Control_c, 0, 64, 69
1, 314300, Control_c, 0, 64, 66
1, 314304, Note_off_c, 0, 87, 63
1, 314315, Control_c, 0, 64, 64
1, 314317, Note_on_c, 0, 82, 65
1, 314330, Control_c, 0, 64, 62
1, 314345, Note_off_c, 0, 82, 68
1, 314345, Control_c, 0, 64, 60
1, 314348, Note_on_c, 0, 77, 20
1, 314360, Control_c, 0, 64, 59
1, 314366, Note_off_c, 0, 77, 50
1, 314375, Control_c, 0, 64, 58
1, 314390, Control_c, 0, 64, 57
1, 314390, Note_on_c, 0, 75, 49
1, 314399, Note_on_c, 0, 91, 66
1, 314405, Control_c, 0, 64, 56
1, 314419, Control_c, 0, 64, 55
1, 314422, Note_off_c, 0, 75, 61
1, 314434, Control_c, 0, 64, 53
1, 314449, Control_c, 0, 64, 53
1, 314453, Note_off_c, 0, 91, 63
1, 314464, Control_c, 0, 64, 52
1, 314479, Note_on_c, 0, 81, 48
1, 314479, Control_c, 0, 64, 51
1, 314494, Control_c, 0, 64, 51
1, 314504, Note_on_c, 0, 86, 41
1, 314509, Control_c, 0, 64, 50
1, 314510, Note_off_c, 0, 81, 54
1, 314524, Control_c, 0, 64, 49
1, 314533, Note_off_c, 0, 86, 53
1, 314539, Control_c, 0, 64, 48
1, 314554, Control_c, 0, 64, 47
1, 314569, Control_c, 0, 64, 46
1, 314574, Note_on_c, 0, 79, 48
1, 314576, Note_on_c, 0, 95, 51
1, 314583, Control_c, 0, 64, 45
1, 314598, Control_c, 0, 64, 45
1, 314607, Note_off_c, 0, 79, 63
1, 314613, Control_c, 0, 64, 44
1, 314628, Control_c, 0, 64, 43
1, 314641, Note_off_c, 0, 95, 51
1, 314643, Control_c, 0, 64, 43
1, 314656, Note_on_c, 0, 91, 58
1, 314657, Control_c, 0, 64, 42
1, 314687, Control_c, 0, 64, 42
1, 314728, Note_off_c, 0, 91, 62
1, 314737, Note_on_c, 0, 86, 62
1, 314802, Note_off_c, 0, 86, 57
1, 314820, Control_c, 0, 67, 98
1, 314835, Control_c, 0, 67, 56
1, 314857, Control_c, 0, 67, 14
1, 314872, Control_c, 0, 67, 0
1, 314890, Note_on_c, 0, 91, 72
1, 314960, Note_on_c, 0, 95, 82
1, 314961, Control_c, 0, 64, 43
1, 314962, Note_off_c, 0, 91, 64
1, 314976, Control_c, 0, 64, 44
1, 314990, Control_c, 0, 64, 48
1, 315005, Control_c, 0, 64, 54
1, 315020, Control_c, 0, 64, 59
1, 315035, Control_c, 0, 64, 63
1, 315037, Note_on_c, 0, 91, 80
1, 315045, Note_on_c, 0, 60, 51
1, 315048, Note_off_c, 0, 95, 58
1, 315049, Control_c, 0, 64, 66
1, 315064, Control_c, 0, 64, 71
1, 315079, Control_c, 0, 64, 84
1, 315094, Control_c, 0, 64, 127
1, 315110, Note_off_c, 0, 91, 64
1, 315129, Note_off_c, 0, 60, 63
1, 315135, Note_on_c, 0, 66, 58
1, 315138, Note_on_c, 0, 79, 66
1, 315181, Note_off_c, 0, 66, 58
1, 315206, Note_off_c, 0, 79, 64
1, 315208, Note_on_c, 0, 83, 76
1, 315233, Note_on_c, 0, 71, 59
1, 315234, Note_off_c, 0, 83, 68
1, 315263, Note_off_c, 0, 71, 66
1, 315300, Note_on_c, 0, 75, 81
1, 315320, Note_off_c, 0, 75, 71
1, 315391, Note_on_c, 0, 83, 84
1, 315422, Poly_aftertouch_c, 0, 93, 0
1, 315462, Note_on_c, 0, 91, 88
1, 315471, Note_off_c, 0, 83, 64
1, 315532, Note_off_c, 0, 91, 61
1, 315537, Note_on_c, 0, 95, 94
1, 315561, Note_on_c, 0, 60, 39
1, 315606, Note_off_c, 0, 60, 60
1, 315621, Note_on_c, 0, 66, 59
1, 315623, Note_on_c, 0, 91, 90
1, 315649, Note_off_c, 0, 95, 64
1, 315656, Note_off_c, 0, 66, 63
1, 315692, Note_off_c, 0, 91, 64
1, 315700, Note_on_c, 0, 83, 78
1, 315749, Note_off_c, 0, 83, 63
1, 315776, Note_on_c, 0, 91, 90
1, 315781, Note_on_c, 0, 75, 64
1, 315799, Note_off_c, 0, 75, 61
1, 315806, Poly_aftertouch_c, 0, 71, 0
1, 315829, Control_c, 0, 64, 108
1, 315844, Control_c, 0, 64, 86
1, 315847, Note_on_c, 0, 83, 83
1, 315853, Note_off_c, 0, 91, 61
1, 315859, Control_c, 0, 64, 72
1, 315873, Control_c, 0, 64, 61
1, 315888, Control_c, 0, 64, 32
1, 315903, Control_c, 0, 64, 0
1, 315904, Note_off_c, 0, 83, 64
1, 315916, Note_on_c, 0, 79, 77
1, 315974, Note_off_c, 0, 79, 64
1, 315977, Note_on_c, 0, 82, 85
1, 315996, Note_on_c, 0, 60, 63
1, 316026, Note_on_c, 0, 81, 83
1, 316026, Note_off_c, 0, 82, 64
1, 316064, Note_on_c, 0, 82, 74
1, 316066, Note_on_c, 0, 67, 58
1, 316070, Note_off_c, 0, 60, 61
1, 316081, Note_off_c, 0, 81, 65
1, 316096, Control_c, 0, 64, 40
1, 316101, Note_off_c, 0, 67, 64
1, 316111, Control_c, 0, 64, 56
1, 316126, Control_c, 0, 64, 60
1, 316141, Control_c, 0, 64, 62
1, 316151, Note_on_c, 0, 72, 59
1, 316155, Control_c, 0, 64, 63
1, 316170, Control_c, 0, 64, 63
1, 316196, Note_off_c, 0, 82, 64
1, 316200, Control_c, 0, 64, 62
1, 316213, Note_off_c, 0, 72, 59
1, 316215, Control_c, 0, 64, 61
1, 316229, Control_c, 0, 64, 58
1, 316244, Control_c, 0, 64, 53
1, 316247, Note_on_c, 0, 79, 65
1, 316259, Note_on_c, 0, 76, 51
1, 316259, Control_c, 0, 64, 45
1, 316274, Control_c, 0, 64, 31
1, 316275, Note_off_c, 0, 79, 68
1, 316283, Note_off_c, 0, 76, 55
1, 316289, Control_c, 0, 64, 0
1, 316303, Control_c, 0, 67, 22
1, 316318, Control_c, 0, 67, 92
1, 316326, Note_on_c, 0, 90, 64
1, 316333, Control_c, 0, 67, 127
1, 316385, Control_c, 0, 64, 17
1, 316392, Note_off_c, 0, 90, 61
1, 316400, Control_c, 0, 64, 37
1, 316405, Note_on_c, 0, 94, 63
1, 316415, Control_c, 0, 64, 48
1, 316429, Control_c, 0, 64, 54
1, 316444, Control_c, 0, 64, 57
1, 316459, Control_c, 0, 64, 60
1, 316467, Note_off_c, 0, 94, 60
1, 316472, Note_on_c, 0, 60, 38
1, 316474, Control_c, 0, 64, 62
1, 316485, Note_on_c, 0, 90, 52
1, 316489, Control_c, 0, 64, 64
1, 316503, Control_c, 0, 64, 66
1, 316518, Control_c, 0, 64, 69
1, 316533, Control_c, 0, 64, 72
1, 316534, Note_off_c, 0, 90, 63
1, 316548, Control_c, 0, 64, 76
1, 316549, Note_off_c, 0, 60, 61
1, 316563, Control_c, 0, 64, 78
1, 316578, Control_c, 0, 64, 79
1, 316587, Note_on_c, 0, 78, 49
1, 316597, Note_on_c, 0, 65, 37
1, 316638, Note_off_c, 0, 78, 40
1, 316666, Note_on_c, 0, 82, 58
1, 316667, Control_c, 0, 64, 79
1, 316672, Note_on_c, 0, 70, 48
1, 316710, Note_off_c, 0, 82, 61
1, 316762, Note_on_c, 0, 73, 51
1, 316762, Note_off_c, 0, 70, 39
1, 316785, Control_c, 0, 64, 78
1, 316790, Note_off_c, 0, 73, 56
1, 316810, Note_off_c, 0, 65, 34
1, 316815, Control_c, 0, 64, 78
1, 316857, Note_on_c, 0, 82, 50
1, 316860, Control_c, 0, 64, 77
1, 316890, Control_c, 0, 64, 77
1, 316897, Note_off_c, 0, 82, 53
1, 316959, Note_on_c, 0, 90, 47
1, 316991, Note_off_c, 0, 90, 52
1, 316993, Note_on_c, 0, 60, 39
1, 317015, Note_on_c, 0, 94, 58
1, 317046, Note_off_c, 0, 60, 61
1, 317086, Note_on_c, 0, 90, 61
1, 317086, Note_off_c, 0, 94, 61
1, 317087, Note_on_c, 0, 65, 48
1, 317119, Control_c, 0, 64, 77
1, 317148, Control_c, 0, 64, 78
1, 317162, Note_off_c, 0, 90, 59
1, 317177, Control_c, 0, 64, 78
1, 317180, Note_on_c, 0, 70, 52
1, 317181, Note_on_c, 0, 82, 58
1, 317188, Note_off_c, 0, 65, 51
1, 317205, Note_off_c, 0, 82, 58
1, 317207, Control_c, 0, 64, 79
1, 317222, Control_c, 0, 64, 80
1, 317231, Note_off_c, 0, 70, 58
1, 317237, Control_c, 0, 64, 80
1, 317245, Note_on_c, 0, 73, 60
1, 317251, Control_c, 0, 64, 81
1, 317263, Note_on_c, 0, 90, 71
1, 317295, Note_off_c, 0, 73, 53
1, 317329, Note_on_c, 0, 82, 64
1, 317341, Control_c, 0, 64, 81
1, 317358, Note_off_c, 0, 90, 44
1, 317370, Control_c, 0, 64, 80
1, 317394, Note_on_c, 0, 78, 71
1, 317400, Control_c, 0, 64, 79
1, 317400, Note_off_c, 0, 82, 63
1, 317415, Control_c, 0, 64, 74
1, 317430, Control_c, 0, 64, 67
1, 317431, Note_off_c, 0, 78, 59
1, 317445, Control_c, 0, 64, 59
1, 317459, Control_c, 0, 64, 51
1, 317470, Note_on_c, 0, 81, 67
1, 317473, Note_on_c, 0, 61, 36
1, 317474, Control_c, 0, 64, 46
1, 317489, Control_c, 0, 64, 43
1, 317498, Note_off_c, 0, 81, 66
1, 317503, Control_c, 0, 64, 40
1, 317517, Note_off_c, 0, 61, 61
1, 317518, Control_c, 0, 64, 37
1, 317533, Control_c, 0, 64, 34
1, 317535, Note_on_c, 0, 66, 52
1, 317548, Control_c, 0, 64, 33
1, 317566, Note_on_c, 0, 81, 66
1, 317588, Note_off_c, 0, 66, 58
1, 317624, Note_off_c, 0, 81, 61
1, 317627, Note_on_c, 0, 69, 47
1, 317646, Note_on_c, 0, 77, 57
1, 317654, Note_off_c, 0, 69, 60
1, 317690, Note_off_c, 0, 77, 61
1, 317711, Note_on_c, 0, 72, 56
1, 317714, Note_on_c, 0, 88, 62
1, 317743, Note_off_c, 0, 72, 65
1, 317761, Note_off_c, 0, 88, 59
1, 317803, Note_on_c, 0, 86, 73
1, 317867, Note_off_c, 0, 86, 63
1, 317889, Note_on_c, 0, 84, 63
1, 317951, Note_on_c, 0, 71, 92
1, 317957, Note_on_c, 0, 83, 82
1, 317961, Note_off_c, 0, 84, 62
1, 318008, Note_off_c, 0, 71, 60
1, 318041, Note_on_c, 0, 73, 74
1, 318055, Note_on_c, 0, 78, 63
1, 318071, Note_off_c, 0, 83, 53
1, 318088, Note_off_c, 0, 78, 66
1, 318102, Note_off_c, 0, 73, 65
1, 318108, Note_on_c, 0, 87, 74
1, 318114, Note_on_c, 0, 71, 73
1, 318171, Note_off_c, 0, 87, 63
1, 318187, Note_on_c, 0, 70, 76
1, 318189, Note_on_c, 0, 82, 77
1, 318193, Note_off_c, 0, 71, 62
1, 318238, Control_c, 0, 64, 32
1, 318246, Note_off_c, 0, 82, 64
1, 318252, Note_off_c, 0, 70, 60
1, 318253, Control_c, 0, 64, 26
1, 318267, Control_c, 0, 64, 11
1, 318272, Note_on_c, 0, 74, 71
1, 318280, Note_on_c, 0, 91, 70
1, 318282, Control_c, 0, 64, 0
1, 318301, Note_off_c, 0, 74, 66
1, 318330, Note_off_c, 0, 91, 56
1, 318351, Note_on_c, 0, 72, 83
1, 318353, Note_on_c, 0, 86, 81
1, 318371, Note_off_c, 0, 72, 72
1, 318429, Note_on_c, 0, 71, 86
1, 318431, Note_on_c, 0, 83, 84
1, 318438, Note_on_c, 0, 72, 71
1, 318444, Note_off_c, 0, 86, 61
1, 318468, Note_off_c, 0, 72, 56
1, 318474, Note_off_c, 0, 71, 57
1, 318512, Note_on_c, 0, 73, 75
1, 318525, Note_on_c, 0, 78, 64
1, 318536, Note_off_c, 0, 83, 53
1, 318558, Note_off_c, 0, 78, 67
1, 318572, Note_off_c, 0, 73, 64
1, 318575, Note_on_c, 0, 71, 79
1, 318584, Note_on_c, 0, 87, 73
1, 318662, Note_off_c, 0, 87, 62
1, 318666, Note_on_c, 0, 82, 80
1, 318670, Note_off_c, 0, 71, 63
1, 318670, Note_on_c, 0, 70, 77
1, 318718, Note_off_c, 0, 82, 64
1, 318731, Note_on_c, 0, 74, 69
1, 318732, Note_off_c, 0, 70, 63
1, 318746, Note_on_c, 0, 91, 72
1, 318804, Note_off_c, 0, 74, 62
1, 318808, Note_on_c, 0, 72, 78
1, 318818, Note_off_c, 0, 91, 62
1, 318819, Note_on_c, 0, 86, 78
1, 318834, Note_off_c, 0, 72, 66
1, 318889, Note_on_c, 0, 71, 90
1, 318892, Note_on_c, 0, 83, 89
1, 318903, Note_off_c, 0, 86, 60
1, 318906, Note_off_c, 0, 71, 74
1, 318969, Note_off_c, 0, 83, 61
1, 318971, Note_on_c, 0, 78, 73
1, 319041, Note_on_c, 0, 58, 103
1, 319044, Note_on_c, 0, 87, 87
1, 319064, Note_off_c, 0, 58, 66
1, 319071, Note_off_c, 0, 78, 62
1, 319134, Note_off_c, 0, 87, 64
1, 319135, Note_on_c, 0, 82, 74
1, 319158, Note_off_c, 0, 82, 69
1, 319198, Note_on_c, 0, 69, 103
1, 319201, Note_on_c, 0, 91, 96
1, 319240, Note_off_c, 0, 69, 66
1, 319289, Note_on_c, 0, 86, 72
1, 319293, Note_off_c, 0, 91, 65
1, 319358, Note_off_c, 0, 86, 65
1, 319377, Note_on_c, 0, 55, 82
1, 319380, Note_on_c, 0, 95, 95
1, 319425, Control_c, 0, 64, 37
1, 319427, Note_on_c, 0, 93, 17
1, 319428, Note_off_c, 0, 93, 127
1, 319440, Control_c, 0, 64, 58
1, 319448, Note_on_c, 0, 62, 71
1, 319454, Control_c, 0, 64, 64
1, 319465, Note_off_c, 0, 55, 62
1, 319468, Note_on_c, 0, 91, 73
1, 319469, Control_c, 0, 64, 68
1, 319484, Control_c, 0, 64, 70
1, 319491, Note_off_c, 0, 95, 60
1, 319499, Note_off_c, 0, 62, 61
1, 319499, Control_c, 0, 64, 73
1, 319514, Control_c, 0, 64, 73
1, 319516, Note_on_c, 0, 67, 78
1, 319529, Control_c, 0, 64, 71
1, 319529, Note_on_c, 0, 86, 77
1, 319544, Control_c, 0, 64, 65
1, 319553, Note_off_c, 0, 67, 64
1, 319556, Note_off_c, 0, 91, 64
1, 319559, Control_c, 0, 64, 37
1, 319573, Control_c, 0, 64, 0
1, 319602, Note_off_c, 0, 86, 62
1, 319606, Note_on_c, 0, 79, 72
1, 319613, Note_on_c, 0, 71, 88
1, 319634, Note_off_c, 0, 79, 67
1, 319656, Note_off_c, 0, 71, 58
1, 319694, Note_on_c, 0, 74, 64
1, 319723, Note_off_c, 0, 74, 64
1, 319776, Note_on_c, 0, 72, 66
1, 319794, Note_off_c, 0, 72, 67
1, 319860, Note_on_c, 0, 71, 72
1, 319864, Note_on_c, 0, 83, 70
1, 319889, Note_off_c, 0, 71, 62
1, 319922, Note_on_c, 0, 73, 69
1, 319958, Note_on_c, 0, 78, 45
1, 319967, Note_off_c, 0, 73, 59
1, 319983, Note_off_c, 0, 78, 52
1, 320008, Note_off_c, 0, 83, 58
1, 320009, Note_on_c, 0, 71, 60
1, 320032, Note_on_c, 0, 87, 57
1, 320079, Note_off_c, 0, 71, 63
1, 320083, Note_on_c, 0, 70, 65
1, 320108, Note_off_c, 0, 87, 63
1, 320110, Note_on_c, 0, 82, 59
1, 320130, Note_off_c, 0, 70, 63
1, 320145, Note_off_c, 0, 82, 65
1, 320187, Note_on_c, 0, 74, 69
1, 320191, Note_on_c, 0, 91, 71
1, 320214, Note_off_c, 0, 74, 66
1, 320250, Note_off_c, 0, 91, 57
1, 320268, Note_on_c, 0, 72, 74
1, 320269, Note_on_c, 0, 86, 72
1, 320290, Note_off_c, 0, 72, 70
1, 320340, Note_off_c, 0, 86, 61
1, 320346, Note_on_c, 0, 83, 76
1, 320348, Note_on_c, 0, 71, 81
1, 320386, Note_off_c, 0, 71, 50
1, 320416, Note_on_c, 0, 73, 78
1, 320442, Note_on_c, 0, 78, 53
1, 320453, Note_off_c, 0, 83, 55
1, 320458, Note_off_c, 0, 73, 62
1, 320462, Note_off_c, 0, 78, 60
1, 320503, Note_on_c, 0, 71, 67
1, 320515, Note_on_c, 0, 87, 53
1, 320571, Note_off_c, 0, 71, 62
1, 320579, Note_on_c, 0, 82, 63
1, 320581, Note_off_c, 0, 87, 58
1, 320583, Note_on_c, 0, 70, 64
1, 320623, Note_off_c, 0, 82, 64
1, 320624, Note_off_c, 0, 70, 59
1, 320659, Note_on_c, 0, 74, 53
1, 320678, Note_off_c, 0, 74, 61
1, 320684, Note_on_c, 0, 91, 42
1, 320710, Note_off_c, 0, 91, 55
1, 320722, Note_on_c, 0, 86, 69
1, 320725, Note_on_c, 0, 72, 68
1, 320751, Note_off_c, 0, 72, 68
1, 320799, Note_off_c, 0, 86, 64
1, 320800, Note_on_c, 0, 83, 68
1, 320805, Note_on_c, 0, 71, 68
1, 320822, Note_off_c, 0, 71, 41
1, 320865, Note_off_c, 0, 83, 58
1, 320893, Note_on_c, 0, 78, 51
1, 320945, Note_off_c, 0, 78, 59
1, 320967, Note_on_c, 0, 87, 65
1, 320968, Note_on_c, 0, 58, 69
1, 320986, Note_off_c, 0, 58, 64
1, 321029, Note_off_c, 0, 87, 62
1, 321050, Note_on_c, 0, 82, 66
1, 321077, Note_off_c, 0, 82, 67
1, 321121, Note_on_c, 0, 68, 67
1, 321136, Note_on_c, 0, 91, 69
1, 321145, Note_off_c, 0, 68, 63
1, 321183, Note_off_c, 0, 91, 61
1, 321220, Note_on_c, 0, 86, 57
1, 321296, Note_off_c, 0, 86, 56
1, 321306, Note_on_c, 0, 55, 44
1, 321324, Note_on_c, 0, 94, 51
1, 321353, Control_c, 0, 64, 32
1, 321368, Control_c, 0, 64, 42
1, 321383, Control_c, 0, 64, 48
1, 321398, Control_c, 0, 64, 54
1, 321404, Note_off_c, 0, 94, 62
1, 321413, Control_c, 0, 64, 59
1, 321421, Note_on_c, 0, 91, 53
1, 321427, Control_c, 0, 64, 61
1, 321442, Control_c, 0, 64, 62
1, 321493, Note_off_c, 0, 91, 60
1, 321496, Note_on_c, 0, 86, 59
1, 321501, Control_c, 0, 64, 61
1, 321513, Note_off_c, 0, 55, 60
1, 321516, Control_c, 0, 64, 61
1, 321530, Control_c, 0, 64, 60
1, 321543, Note_off_c, 0, 86, 61
1, 321544, Control_c, 0, 64, 59
1, 321559, Control_c, 0, 64, 58
1, 321574, Control_c, 0, 64, 56
1, 321593, Note_on_c, 0, 79, 61
1, 321597, Control_c, 0, 64, 55
1, 321612, Control_c, 0, 64, 53
1, 321626, Control_c, 0, 64, 51
1, 321642, Control_c, 0, 64, 48
1, 321645, Note_off_c, 0, 79, 54
1, 321657, Control_c, 0, 64, 43
1, 321669, Note_on_c, 0, 82, 52
1, 321672, Control_c, 0, 64, 30
1, 321687, Control_c, 0, 64, 0
1, 321688, Note_off_c, 0, 82, 62
1, 321751, Note_on_c, 0, 82, 68
1, 321780, Note_off_c, 0, 82, 63
1, 321823, Note_on_c, 0, 83, 65
1, 321835, Note_on_c, 0, 51, 46
1, 321859, Note_off_c, 0, 83, 65
1, 321885, Note_off_c, 0, 51, 61
1, 321899, Note_on_c, 0, 57, 52
1, 321899, Note_on_c, 0, 82, 81
1, 321931, Note_off_c, 0, 82, 66
1, 321931, Note_off_c, 0, 57, 65
1, 321973, Note_on_c, 0, 65, 64
1, 321988, Note_on_c, 0, 82, 74
1, 322004, Note_off_c, 0, 65, 65
1, 322032, Note_off_c, 0, 82, 65
1, 322063, Note_on_c, 0, 94, 91
1, 322082, Note_on_c, 0, 75, 58
1, 322102, Note_off_c, 0, 75, 41
1, 322125, Note_off_c, 0, 94, 63
1, 322215, Note_on_c, 0, 82, 7
1, 322265, Note_off_c, 0, 82, 65
1, 322320, Note_on_c, 0, 51, 58
1, 322326, Note_on_c, 0, 83, 76
1, 322371, Note_off_c, 0, 83, 65
1, 322381, Note_off_c, 0, 51, 60
1, 322406, Note_on_c, 0, 59, 52
1, 322417, Note_on_c, 0, 82, 58
1, 322440, Note_off_c, 0, 59, 65
1, 322449, Note_off_c, 0, 82, 67
1, 322483, Note_on_c, 0, 94, 88
1, 322508, Note_on_c, 0, 69, 38
1, 322537, Note_off_c, 0, 69, 49
1, 322548, Note_off_c, 0, 94, 64
1, 322567, Note_on_c, 0, 83, 80
1, 322572, Note_on_c, 0, 75, 79
1, 322587, Note_off_c, 0, 75, 65
1, 322610, Note_off_c, 0, 83, 64
1, 322650, Note_on_c, 0, 94, 86
1, 322713, Note_on_c, 0, 84, 68
1, 322739, Note_off_c, 0, 84, 68
1, 322749, Note_off_c, 0, 94, 60
1, 322798, Note_on_c, 0, 86, 68
1, 322802, Note_on_c, 0, 58, 53
1, 322855, Note_off_c, 0, 58, 59
1, 322858, Note_off_c, 0, 86, 63
1, 322863, Note_on_c, 0, 65, 55
1, 322897, Note_off_c, 0, 65, 64
1, 322906, Note_on_c, 0, 82, 43
1, 322931, Note_off_c, 0, 82, 36
1, 322957, Note_on_c, 0, 74, 52
1, 322960, Note_on_c, 0, 82, 67
1, 322978, Note_off_c, 0, 74, 62
1, 322999, Note_off_c, 0, 82, 66
1, 323043, Note_on_c, 0, 80, 73
1, 323046, Note_on_c, 0, 95, 89
1, 323069, Note_off_c, 0, 80, 67
1, 323105, Note_off_c, 0, 95, 65
1, 323135, Note_on_c, 0, 82, 67
1, 323150, Note_off_c, 0, 82, 67
1, 323208, Note_on_c, 0, 82, 75
1, 323231, Note_off_c, 0, 82, 70
1, 323299, Note_on_c, 0, 83, 72
1, 323300, Note_on_c, 0, 51, 52
1, 323341, Note_off_c, 0, 83, 67
1, 323348, Note_off_c, 0, 51, 61
1, 323374, Note_on_c, 0, 57, 56
1, 323377, Note_on_c, 0, 82, 84
1, 323406, Note_off_c, 0, 57, 65
1, 323411, Note_off_c, 0, 82, 66
1, 323460, Note_on_c, 0, 65, 51
1, 323464, Note_on_c, 0, 82, 72
1, 323485, Note_off_c, 0, 65, 62
1, 323505, Note_off_c, 0, 82, 65
1, 323544, Note_on_c, 0, 94, 99
1, 323559, Note_on_c, 0, 75, 56
1, 323580, Note_off_c, 0, 75, 40
1, 323607, Note_off_c, 0, 94, 64
1, 323625, Note_on_c, 0, 82, 82
1, 323650, Note_off_c, 0, 82, 67
1, 323716, Note_on_c, 0, 82, 78
1, 323739, Note_off_c, 0, 82, 71
1, 323809, Note_on_c, 0, 83, 65
1, 323812, Note_on_c, 0, 51, 51
1, 323846, Note_off_c, 0, 83, 65
1, 323854, Note_off_c, 0, 51, 65
1, 323877, Note_on_c, 0, 59, 53
1, 323893, Note_on_c, 0, 82, 73
1, 323909, Note_off_c, 0, 59, 65
1, 323917, Note_off_c, 0, 82, 69
1, 323961, Note_on_c, 0, 94, 94
1, 323963, Note_on_c, 0, 69, 66
1, 323992, Note_off_c, 0, 69, 66
1, 324035, Note_off_c, 0, 94, 64
1, 324039, Note_on_c, 0, 75, 86
1, 324051, Note_on_c, 0, 83, 79
1, 324060, Note_off_c, 0, 75, 70
1, 324085, Note_off_c, 0, 83, 60
1, 324098, Note_on_c, 0, 87, 18
1, 324123, Note_off_c, 0, 87, 48
1, 324133, Note_on_c, 0, 94, 90
1, 324193, Note_on_c, 0, 84, 66
1, 324220, Note_off_c, 0, 84, 68
1, 324232, Note_off_c, 0, 94, 61
1, 324279, Note_on_c, 0, 58, 59
1, 324284, Note_on_c, 0, 86, 72
1, 324317, Note_off_c, 0, 58, 65
1, 324346, Note_off_c, 0, 86, 63
1, 324355, Note_on_c, 0, 65, 60
1, 324374, Note_on_c, 0, 82, 79
1, 324387, Note_off_c, 0, 65, 64
1, 324412, Note_off_c, 0, 82, 62
1, 324428, Note_on_c, 0, 74, 65
1, 324461, Note_off_c, 0, 74, 63
1, 324539, Note_on_c, 0, 95, 90
1, 324608, Note_off_c, 0, 95, 65
1, 324641, Note_on_c, 0, 71, 65
1, 324659, Note_on_c, 0, 82, 62
1, 324669, Note_off_c, 0, 71, 67
1, 324677, Note_off_c, 0, 82, 64
1, 324721, Note_on_c, 0, 71, 84
1, 324726, Note_on_c, 0, 82, 73
1, 324751, Note_off_c, 0, 82, 68
1, 324763, Note_off_c, 0, 71, 54
1, 324769, Control_c, 0, 67, 105
1, 324784, Control_c, 0, 67, 56
1, 324795, Note_on_c, 0, 68, 79
1, 324796, Note_on_c, 0, 72, 85
1, 324799, Control_c, 0, 67, 0
1, 324799, Note_on_c, 0, 64, 74
1, 324814, Note_on_c, 0, 82, 89
1, 324832, Note_off_c, 0, 72, 64
1, 324847, Note_off_c, 0, 68, 60
1, 324872, Note_off_c, 0, 82, 66
1, 324880, Note_on_c, 0, 83, 79
1, 324894, Note_on_c, 0, 71, 75
1, 324917, Note_off_c, 0, 71, 70
1, 324920, Note_off_c, 0, 83, 64
1, 324963, Note_on_c, 0, 84, 82
1, 324966, Note_on_c, 0, 71, 79
1, 324987, Note_off_c, 0, 71, 70
1, 325020, Note_off_c, 0, 84, 65
1, 325050, Note_on_c, 0, 95, 91
1, 325067, Note_off_c, 0, 95, 74
1, 325169, Note_on_c, 0, 71, 61
1, 325177, Note_on_c, 0, 82, 81
1, 325192, Note_off_c, 0, 71, 64
1, 325216, Note_off_c, 0, 82, 66
1, 325258, Note_on_c, 0, 83, 77
1, 325270, Note_on_c, 0, 71, 67
1, 325312, Note_off_c, 0, 71, 62
1, 325324, Note_off_c, 0, 83, 62
1, 325336, Note_on_c, 0, 84, 89
1, 325363, Note_off_c, 0, 84, 64
1, 325371, Note_on_c, 0, 74, 51
1, 325383, Note_on_c, 0, 72, 51
1, 325394, Note_off_c, 0, 74, 57
1, 325404, Note_off_c, 0, 72, 59
1, 325421, Note_on_c, 0, 95, 100
1, 325437, Note_on_c, 0, 71, 75
1, 325439, Note_off_c, 0, 95, 72
1, 325497, Note_off_c, 0, 71, 61
1, 325517, Note_on_c, 0, 82, 81
1, 325519, Note_on_c, 0, 73, 83
1, 325534, Note_off_c, 0, 64, 59
1, 325550, Note_off_c, 0, 82, 66
1, 325559, Note_off_c, 0, 73, 63
1, 325582, Note_on_c, 0, 83, 81
1, 325618, Note_on_c, 0, 72, 71
1, 325644, Note_off_c, 0, 83, 64
1, 325660, Note_on_c, 0, 84, 79
1, 325677, Note_off_c, 0, 72, 65
1, 325679, Note_off_c, 0, 84, 72
1, 325686, Note_on_c, 0, 74, 73
1, 325728, Note_on_c, 0, 95, 70
1, 325730, Note_off_c, 0, 74, 58
1, 325738, Note_on_c, 0, 93, 60
1, 325743, Note_off_c, 0, 95, 66
1, 325756, Note_off_c, 0, 93, 66
1, 325756, Note_on_c, 0, 75, 90
1, 325774, Note_off_c, 0, 75, 69
1, 325803, Note_on_c, 0, 82, 85
1, 325833, Note_on_c, 0, 75, 90
1, 325842, Note_on_c, 0, 81, 38
1, 325857, Note_off_c, 0, 75, 67
1, 325860, Note_off_c, 0, 82, 66
1, 325870, Note_off_c, 0, 81, 37
1, 325897, Note_on_c, 0, 83, 82
1, 325917, Note_on_c, 0, 71, 76
1, 325970, Note_off_c, 0, 83, 64
1, 325978, Note_on_c, 0, 93, 91
1, 325996, Note_on_c, 0, 66, 70
1, 325996, Note_off_c, 0, 71, 63
1, 326024, Note_off_c, 0, 66, 62
1, 326030, Note_off_c, 0, 93, 67
1, 326057, Note_on_c, 0, 59, 81
1, 326065, Note_on_c, 0, 96, 106
1, 326104, Control_c, 0, 64, 17
1, 326115, Note_off_c, 0, 59, 62
1, 326119, Control_c, 0, 64, 41
1, 326134, Control_c, 0, 64, 50
1, 326145, Note_on_c, 0, 71, 72
1, 326149, Control_c, 0, 64, 56
1, 326156, Note_on_c, 0, 93, 86
1, 326156, Note_off_c, 0, 96, 52
1, 326163, Control_c, 0, 64, 61
1, 326168, Note_off_c, 0, 71, 69
1, 326178, Control_c, 0, 64, 65
1, 326193, Control_c, 0, 64, 70
1, 326208, Control_c, 0, 64, 76
1, 326222, Note_on_c, 0, 71, 87
1, 326222, Control_c, 0, 64, 84
1, 326229, Note_off_c, 0, 93, 64
1, 326236, Note_on_c, 0, 83, 90
1, 326237, Control_c, 0, 64, 92
1, 326245, Note_off_c, 0, 71, 66
1, 326252, Control_c, 0, 64, 96
1, 326267, Control_c, 0, 64, 90
1, 326281, Note_off_c, 0, 83, 65
1, 326282, Control_c, 0, 64, 78
1, 326296, Control_c, 0, 64, 66
1, 326304, Note_on_c, 0, 72, 91
1, 326305, Note_on_c, 0, 64, 82
1, 326311, Control_c, 0, 64, 55
1, 326316, Note_on_c, 0, 68, 73
1, 326326, Control_c, 0, 64, 36
1, 326333, Note_on_c, 0, 82, 86
1, 326341, Note_off_c, 0, 68, 65
1, 326341, Control_c, 0, 64, 30
1, 326347, Note_off_c, 0, 72, 66
1, 326397, Note_on_c, 0, 83, 78
1, 326403, Note_on_c, 0, 71, 85
1, 326408, Note_off_c, 0, 82, 57
1, 326421, Note_off_c, 0, 71, 71
1, 326450, Note_off_c, 0, 83, 66
1, 326471, Note_on_c, 0, 71, 92
1, 326492, Note_on_c, 0, 84, 82
1, 326503, Note_off_c, 0, 71, 65
1, 326543, Note_off_c, 0, 84, 66
1, 326563, Note_on_c, 0, 95, 95
1, 326585, Note_off_c, 0, 95, 65
1, 326669, Note_on_c, 0, 71, 65
1, 326680, Note_on_c, 0, 82, 86
1, 326685, Note_off_c, 0, 71, 66
1, 326719, Note_off_c, 0, 82, 66
1, 326750, Note_on_c, 0, 71, 78
1, 326766, Note_on_c, 0, 83, 87
1, 326779, Note_off_c, 0, 64, 49
1, 326814, Note_off_c, 0, 71, 58
1, 326846, Note_on_c, 0, 72, 80
1, 326851, Note_off_c, 0, 83, 65
1, 326853, Note_on_c, 0, 84, 91
1, 326886, Note_off_c, 0, 72, 63
1, 326886, Note_off_c, 0, 84, 66
1, 326930, Note_on_c, 0, 71, 82
1, 326936, Note_on_c, 0, 95, 97
1, 326960, Note_off_c, 0, 95, 62
1, 327008, Note_on_c, 0, 93, 23
1, 327009, Note_off_c, 0, 93, 127
1, 327014, Note_on_c, 0, 73, 89
1, 327021, Note_off_c, 0, 71, 62
1, 327037, Note_on_c, 0, 82, 74
1, 327057, Note_off_c, 0, 73, 63
1, 327076, Control_c, 0, 64, 31
1, 327103, Note_off_c, 0, 82, 64
1, 327106, Control_c, 0, 64, 31
1, 327107, Note_on_c, 0, 83, 77
1, 327115, Note_on_c, 0, 72, 69
1, 327169, Note_off_c, 0, 83, 65
1, 327178, Note_off_c, 0, 72, 65
1, 327181, Note_on_c, 0, 74, 77
1, 327181, Note_on_c, 0, 84, 88
1, 327214, Note_off_c, 0, 74, 66
1, 327216, Note_off_c, 0, 84, 68
1, 327240, Control_c, 0, 64, 18
1, 327254, Control_c, 0, 64, 0
1, 327275, Note_on_c, 0, 95, 98
1, 327324, Note_on_c, 0, 75, 86
1, 327358, Note_on_c, 0, 83, 92
1, 327386, Note_off_c, 0, 75, 59
1, 327388, Control_c, 0, 64, 28
1, 327402, Control_c, 0, 64, 53
1, 327417, Control_c, 0, 64, 64
1, 327419, Note_off_c, 0, 95, 61
1, 327432, Control_c, 0, 64, 73
1, 327447, Control_c, 0, 64, 93
1, 327461, Control_c, 0, 64, 127
1, 327491, Note_on_c, 0, 69, 57
1, 327505, Note_off_c, 0, 83, 62
1, 327521, Note_on_c, 0, 90, 53
1, 327562, Note_off_c, 0, 69, 62
1, 327591, Note_on_c, 0, 66, 53
1, 327599, Note_off_c, 0, 90, 62
1, 327608, Note_on_c, 0, 94, 68
1, 327633, Note_off_c, 0, 66, 60
1, 327670, Note_off_c, 0, 94, 63
1, 327677, Note_on_c, 0, 59, 59
1, 327688, Note_on_c, 0, 90, 56
1, 327715, Note_off_c, 0, 59, 64
1, 327733, Note_off_c, 0, 90, 64
1, 327750, Control_c, 0, 67, 13
1, 327765, Note_on_c, 0, 71, 57
1, 327765, Control_c, 0, 67, 23
1, 327774, Note_on_c, 0, 78, 61
1, 327780, Control_c, 0, 67, 32
1, 327794, Control_c, 0, 67, 39
1, 327809, Control_c, 0, 67, 44
1, 327824, Control_c, 0, 67, 51
1, 327839, Control_c, 0, 67, 64
1, 327840, Note_off_c, 0, 71, 50
1, 327850, Note_off_c, 0, 78, 62
1, 327854, Control_c, 0, 67, 82
1, 327857, Note_on_c, 0, 82, 65
1, 327860, Note_on_c, 0, 75, 53
1, 327868, Control_c, 0, 67, 103
1, 327881, Note_off_c, 0, 75, 59
1, 327883, Control_c, 0, 67, 127
1, 327888, Note_off_c, 0, 82, 68
1, 327957, Note_on_c, 0, 71, 55
1, 328018, Note_on_c, 0, 59, 52
1, 328029, Note_on_c, 0, 82, 57
1, 328047, Control_c, 0, 64, 101
1, 328048, Note_off_c, 0, 71, 31
1, 328062, Control_c, 0, 64, 78
1, 328076, Control_c, 0, 64, 65
1, 328091, Control_c, 0, 64, 54
1, 328101, Note_on_c, 0, 90, 64
1, 328106, Control_c, 0, 64, 54
1, 328111, Note_on_c, 0, 63, 45
1, 328121, Control_c, 0, 64, 59
1, 328129, Note_off_c, 0, 82, 53
1, 328136, Control_c, 0, 64, 62
1, 328150, Control_c, 0, 64, 65
1, 328161, Note_off_c, 0, 63, 58
1, 328165, Control_c, 0, 64, 68
1, 328180, Control_c, 0, 64, 73
1, 328194, Note_off_c, 0, 90, 63
1, 328194, Note_on_c, 0, 94, 77
1, 328195, Control_c, 0, 64, 84
1, 328209, Control_c, 0, 64, 119
1, 328224, Control_c, 0, 64, 127
1, 328230, Note_off_c, 0, 59, 61
1, 328258, Note_on_c, 0, 63, 40
1, 328266, Note_on_c, 0, 90, 45
1, 328275, Note_off_c, 0, 94, 63
1, 328288, Note_off_c, 0, 63, 53
1, 328335, Note_on_c, 0, 71, 44
1, 328341, Note_off_c, 0, 90, 60
1, 328344, Note_on_c, 0, 82, 55
1, 328388, Note_off_c, 0, 71, 50
1, 328388, Note_off_c, 0, 82, 60
1, 328420, Note_on_c, 0, 75, 46
1, 328444, Note_off_c, 0, 75, 55
1, 328456, Note_on_c, 0, 90, 60
1, 328493, Note_off_c, 0, 90, 60
1, 328519, Note_on_c, 0, 71, 46
1, 328522, Note_on_c, 0, 82, 50
1, 328558, Note_off_c, 0, 71, 58
1, 328588, Note_on_c, 0, 78, 73
1, 328599, Note_off_c, 0, 82, 63
1, 328600, Note_on_c, 0, 63, 47
1, 328615, Note_off_c, 0, 78, 67
1, 328633, Note_off_c, 0, 63, 59
1, 328687, Note_on_c, 0, 71, 41
1, 328689, Note_on_c, 0, 81, 73
1, 328734, Note_off_c, 0, 71, 60
1, 328741, Note_on_c, 0, 63, 43
1, 328776, Note_on_c, 0, 90, 75
1, 328780, Control_c, 0, 64, 99
1, 328788, Note_off_c, 0, 63, 49
1, 328795, Control_c, 0, 64, 77
1, 328809, Control_c, 0, 64, 61
1, 328825, Control_c, 0, 64, 24
1, 328840, Control_c, 0, 64, 16
1, 328842, Note_on_c, 0, 59, 55
1, 328847, Note_on_c, 0, 93, 89
1, 328855, Control_c, 0, 64, 31
1, 328870, Control_c, 0, 64, 45
1, 328871, Note_off_c, 0, 90, 63
1, 328885, Control_c, 0, 64, 56
1, 328898, Note_off_c, 0, 81, 66
1, 328900, Control_c, 0, 64, 61
1, 328914, Control_c, 0, 64, 64
1, 328916, Note_on_c, 0, 62, 57
1, 328929, Control_c, 0, 64, 69
1, 328939, Note_on_c, 0, 90, 70
1, 328940, Note_off_c, 0, 93, 64
1, 328944, Control_c, 0, 64, 80
1, 328948, Note_off_c, 0, 59, 60
1, 328954, Note_off_c, 0, 62, 67
1, 328959, Control_c, 0, 64, 127
1, 328984, Note_off_c, 0, 90, 65
1, 329002, Note_on_c, 0, 71, 68
1, 329016, Note_on_c, 0, 78, 67
1, 329070, Note_off_c, 0, 78, 64
1, 329071, Note_off_c, 0, 71, 48
1, 329092, Note_on_c, 0, 74, 77
1, 329095, Note_on_c, 0, 81, 73
1, 329121, Note_off_c, 0, 81, 69
1, 329136, Note_off_c, 0, 74, 61
1, 329178, Note_on_c, 0, 71, 72
1, 329255, Note_on_c, 0, 81, 71
1, 329284, Note_on_c, 0, 59, 53
1, 329332, Note_on_c, 0, 62, 54
1, 329337, Note_on_c, 0, 90, 78
1, 329421, Note_off_c, 0, 62, 62
1, 329426, Note_off_c, 0, 71, 57
1, 329429, Note_on_c, 0, 93, 93
1, 329455, Note_off_c, 0, 81, 57
1, 329459, Note_off_c, 0, 90, 64
1, 329521, Note_off_c, 0, 59, 59
1, 329524, Note_on_c, 0, 90, 72
1, 329544, Note_off_c, 0, 93, 63
1, 329545, Note_on_c, 0, 62, 27
1, 329578, Note_off_c, 0, 62, 48
1, 329594, Note_off_c, 0, 90, 63
1, 329604, Note_on_c, 0, 71, 51
1, 329610, Note_on_c, 0, 81, 55
1, 329647, Note_off_c, 0, 71, 54
1, 329648, Note_off_c, 0, 81, 66
1, 329677, Note_on_c, 0, 74, 50
1, 329685, Note_on_c, 0, 90, 66
1, 329698, Note_off_c, 0, 74, 58
1, 329747, Note_off_c, 0, 90, 51
1, 329764, Note_on_c, 0, 81, 60
1, 329813, Note_off_c, 0, 81, 59
1, 329822, Note_on_c, 0, 78, 70
1, 329849, Control_c, 0, 64, 107
1, 329854, Note_off_c, 0, 78, 65
1, 329863, Control_c, 0, 64, 95
1, 329878, Control_c, 0, 64, 84
1, 329893, Control_c, 0, 64, 68
1, 329908, Control_c, 0, 64, 50
1, 329913, Note_on_c, 0, 71, 41
1, 329923, Control_c, 0, 64, 0
1, 329927, Note_on_c, 0, 80, 64
1, 329952, Note_off_c, 0, 71, 57
1, 329977, Note_on_c, 0, 62, 43
1, 329986, Note_off_c, 0, 80, 62
1, 330013, Note_on_c, 0, 89, 52
1, 330019, Note_off_c, 0, 62, 64
1, 330026, Control_c, 0, 64, 34
1, 330041, Control_c, 0, 64, 49
1, 330054, Note_on_c, 0, 59, 46
1, 330055, Control_c, 0, 64, 58
1, 330068, Note_off_c, 0, 89, 60
1, 330070, Control_c, 0, 64, 63
1, 330083, Note_on_c, 0, 92, 61
1, 330085, Control_c, 0, 64, 65
1, 330100, Control_c, 0, 64, 66
1, 330115, Control_c, 0, 64, 67
1, 330129, Control_c, 0, 64, 69
1, 330138, Note_off_c, 0, 59, 63
1, 330139, Note_off_c, 0, 92, 64
1, 330144, Control_c, 0, 64, 70
1, 330159, Control_c, 0, 64, 71
1, 330166, Note_on_c, 0, 61, 39
1, 330168, Note_on_c, 0, 89, 52
1, 330194, Note_off_c, 0, 61, 57
1, 330205, Note_off_c, 0, 89, 65
1, 330255, Note_on_c, 0, 77, 57
1, 330256, Note_on_c, 0, 70, 28
1, 330305, Note_off_c, 0, 70, 46
1, 330307, Note_off_c, 0, 77, 58
1, 330330, Note_on_c, 0, 73, 49
1, 330353, Note_on_c, 0, 80, 57
1, 330364, Note_off_c, 0, 73, 65
1, 330381, Control_c, 0, 64, 71
1, 330387, Note_off_c, 0, 80, 64
1, 330411, Control_c, 0, 64, 70
1, 330413, Note_on_c, 0, 70, 58
1, 330458, Note_off_c, 0, 70, 58
1, 330501, Control_c, 0, 64, 70
1, 330516, Note_on_c, 0, 80, 52
1, 330516, Control_c, 0, 64, 67
1, 330531, Note_on_c, 0, 58, 40
1, 330531, Control_c, 0, 64, 63
1, 330546, Control_c, 0, 64, 57
1, 330561, Control_c, 0, 64, 56
1, 330583, Control_c, 0, 64, 57
1, 330586, Note_on_c, 0, 61, 49
1, 330598, Control_c, 0, 64, 59
1, 330609, Note_off_c, 0, 80, 51
1, 330613, Control_c, 0, 64, 61
1, 330615, Note_on_c, 0, 89, 59
1, 330628, Control_c, 0, 64, 62
1, 330642, Control_c, 0, 64, 64
1, 330657, Control_c, 0, 64, 65
1, 330672, Control_c, 0, 64, 67
1, 330677, Note_off_c, 0, 61, 59
1, 330686, Control_c, 0, 64, 68
1, 330701, Note_off_c, 0, 89, 59
1, 330701, Control_c, 0, 64, 70
1, 330705, Note_on_c, 0, 92, 61
1, 330716, Control_c, 0, 64, 71
1, 330731, Control_c, 0, 64, 74
1, 330746, Control_c, 0, 64, 76
1, 330761, Control_c, 0, 64, 78
1, 330776, Note_off_c, 0, 92, 62
1, 330776, Control_c, 0, 64, 78
1, 330777, Note_off_c, 0, 58, 57
1, 330787, Note_on_c, 0, 89, 43
1, 330805, Control_c, 0, 64, 78
1, 330835, Control_c, 0, 64, 77
1, 330850, Note_off_c, 0, 89, 55
1, 330862, Note_on_c, 0, 80, 52
1, 330865, Control_c, 0, 64, 77
1, 330879, Control_c, 0, 64, 76
1, 330901, Note_off_c, 0, 80, 60
1, 330909, Control_c, 0, 64, 76
1, 330937, Note_on_c, 0, 73, 54
1, 330939, Control_c, 0, 64, 75
1, 330952, Note_on_c, 0, 89, 21
1, 330952, Poly_aftertouch_c, 0, 70, 0
1, 330956, Note_off_c, 0, 73, 63
1, 330968, Note_on_c, 0, 88, 46
1, 330968, Control_c, 0, 64, 75
1, 330990, Note_off_c, 0, 89, 46
1, 330993, Note_off_c, 0, 88, 55
1, 331012, Control_c, 0, 64, 74
1, 331044, Note_on_c, 0, 70, 33
1, 331057, Control_c, 0, 64, 74
1, 331077, Note_off_c, 0, 70, 49
1, 331087, Note_on_c, 0, 77, 61
1, 331101, Control_c, 0, 64, 73
1, 331103, Note_on_c, 0, 61, 48
1, 331116, Control_c, 0, 64, 73
1, 331131, Note_off_c, 0, 77, 54
1, 331131, Control_c, 0, 64, 72
1, 331145, Note_off_c, 0, 61, 62
1, 331145, Control_c, 0, 64, 72
1, 331175, Note_on_c, 0, 70, 54
1, 331181, Note_on_c, 0, 79, 66
1, 331232, Note_off_c, 0, 70, 61
1, 331236, Control_c, 0, 64, 71
1, 331250, Note_on_c, 0, 61, 53
1, 331259, Note_off_c, 0, 79, 62
1, 331276, Note_on_c, 0, 76, 66
1, 331280, Control_c, 0, 64, 71
1, 331295, Control_c, 0, 64, 70
1, 331309, Control_c, 0, 64, 70
1, 331317, Note_off_c, 0, 61, 50
1, 331328, Note_off_c, 0, 76, 62
1, 331332, Control_c, 0, 64, 69
1, 331347, Control_c, 0, 64, 68
1, 331351, Note_on_c, 0, 79, 60
1, 331362, Control_c, 0, 64, 67
1, 331377, Control_c, 0, 64, 65
1, 331377, Control_c, 0, 67, 114
1, 331390, Note_off_c, 0, 79, 65
1, 331391, Control_c, 0, 64, 64
1, 331391, Control_c, 0, 67, 97
1, 331398, Note_on_c, 0, 70, 62
1, 331406, Control_c, 0, 64, 63
1, 331406, Control_c, 0, 67, 80
1, 331421, Control_c, 0, 64, 61
1, 331421, Control_c, 0, 67, 65
1, 331425, Note_off_c, 0, 70, 67
1, 331431, Note_on_c, 0, 58, 21
1, 331435, Control_c, 0, 64, 60
1, 331435, Control_c, 0, 67, 52
1, 331440, Note_on_c, 0, 76, 62
1, 331450, Control_c, 0, 64, 58
1, 331450, Control_c, 0, 67, 39
1, 331465, Note_off_c, 0, 76, 63
1, 331465, Control_c, 0, 64, 57
1, 331465, Control_c, 0, 67, 32
1, 331470, Note_off_c, 0, 58, 30
1, 331480, Control_c, 0, 64, 55
1, 331480, Control_c, 0, 67, 26
1, 331495, Control_c, 0, 64, 54
1, 331495, Control_c, 0, 67, 21
1, 331509, Control_c, 0, 64, 54
1, 331509, Control_c, 0, 67, 15
1, 331521, Note_on_c, 0, 88, 70
1, 331524, Control_c, 0, 64, 51
1, 331524, Control_c, 0, 67, 8
1, 331539, Control_c, 0, 64, 42
1, 331539, Control_c, 0, 67, 0
1, 331554, Control_c, 0, 64, 24
1, 331569, Control_c, 0, 64, 0
1, 331593, Note_off_c, 0, 88, 63
1, 331601, Note_on_c, 0, 91, 71
1, 331628, Control_c, 0, 64, 21
1, 331643, Control_c, 0, 64, 36
1, 331658, Control_c, 0, 64, 47
1, 331673, Control_c, 0, 64, 52
1, 331677, Note_on_c, 0, 73, 66
1, 331682, Note_on_c, 0, 69, 69
1, 331684, Note_off_c, 0, 91, 62
1, 331688, Control_c, 0, 64, 55
1, 331694, Note_on_c, 0, 88, 64
1, 331694, Note_off_c, 0, 73, 66
1, 331702, Control_c, 0, 64, 56
1, 331709, Note_off_c, 0, 69, 67
1, 331717, Control_c, 0, 64, 56
1, 331742, Note_off_c, 0, 88, 62
1, 331790, Note_on_c, 0, 76, 61
1, 331791, Control_c, 0, 64, 55
1, 331806, Control_c, 0, 64, 52
1, 331821, Control_c, 0, 64, 48
1, 331831, Note_off_c, 0, 76, 63
1, 331835, Control_c, 0, 64, 44
1, 331850, Control_c, 0, 64, 41
1, 331852, Note_on_c, 0, 79, 63
1, 331865, Control_c, 0, 64, 41
1, 331895, Control_c, 0, 64, 41
1, 331909, Control_c, 0, 64, 43
1, 331918, Note_off_c, 0, 79, 63
1, 331924, Control_c, 0, 64, 48
1, 331934, Note_on_c, 0, 76, 67
1, 331939, Control_c, 0, 64, 53
1, 331941, Note_on_c, 0, 70, 66
1, 331944, Note_on_c, 0, 60, 62
1, 331954, Control_c, 0, 64, 56
1, 331959, Note_off_c, 0, 70, 65
1, 331964, Note_off_c, 0, 60, 61
1, 331969, Control_c, 0, 64, 57
1, 331984, Control_c, 0, 64, 57
1, 331991, Note_off_c, 0, 76, 58
1, 332037, Note_on_c, 0, 88, 67
1, 332081, Control_c, 0, 64, 57
1, 332096, Control_c, 0, 64, 56
1, 332111, Control_c, 0, 64, 56
1, 332120, Note_off_c, 0, 88, 65
1, 332120, Note_on_c, 0, 91, 69
1, 332126, Control_c, 0, 64, 55
1, 332140, Control_c, 0, 64, 55
1, 332200, Note_off_c, 0, 91, 58
1, 332201, Note_on_c, 0, 69, 72
1, 332202, Note_on_c, 0, 73, 64
1, 332203, Note_on_c, 0, 88, 71
1, 332220, Note_off_c, 0, 73, 64
1, 332225, Note_off_c, 0, 69, 69
1, 332261, Note_off_c, 0, 88, 65
1, 332311, Note_on_c, 0, 76, 57
1, 332350, Note_off_c, 0, 76, 63
1, 332362, Control_c, 0, 64, 53
1, 332377, Control_c, 0, 64, 48
1, 332385, Note_on_c, 0, 79, 59
1, 332392, Control_c, 0, 64, 45
1, 332421, Control_c, 0, 64, 47
1, 332430, Note_off_c, 0, 79, 66
1, 332436, Control_c, 0, 64, 51
1, 332444, Note_on_c, 0, 58, 73
1, 332451, Control_c, 0, 64, 54
1, 332455, Note_on_c, 0, 69, 81
1, 332457, Note_on_c, 0, 60, 63
1, 332466, Control_c, 0, 64, 57
1, 332468, Note_on_c, 0, 76, 88
1, 332472, Note_off_c, 0, 58, 69
1, 332480, Note_off_c, 0, 60, 64
1, 332481, Control_c, 0, 64, 59
1, 332484, Note_off_c, 0, 69, 63
1, 332496, Control_c, 0, 64, 61
1, 332511, Control_c, 0, 64, 61
1, 332517, Note_off_c, 0, 76, 63
1, 332525, Control_c, 0, 64, 61
1, 332540, Control_c, 0, 64, 59
1, 332555, Control_c, 0, 64, 56
1, 332557, Note_on_c, 0, 70, 81
1, 332557, Note_on_c, 0, 79, 83
1, 332570, Control_c, 0, 64, 52
1, 332580, Note_off_c, 0, 70, 65
1, 332585, Control_c, 0, 64, 47
1, 332597, Note_off_c, 0, 79, 66
1, 332599, Control_c, 0, 64, 43
1, 332614, Control_c, 0, 64, 41
1, 332648, Note_on_c, 0, 72, 71
1, 332667, Note_on_c, 0, 86, 49
1, 332693, Note_on_c, 0, 88, 32
1, 332702, Note_off_c, 0, 86, 57
1, 332713, Note_off_c, 0, 72, 60
1, 332720, Note_off_c, 0, 88, 58
1, 332736, Note_on_c, 0, 73, 77
1, 332746, Note_on_c, 0, 91, 42
1, 332768, Note_off_c, 0, 73, 66
1, 332771, Note_off_c, 0, 91, 36
1, 332833, Note_on_c, 0, 69, 79
1, 332840, Note_on_c, 0, 76, 72
1, 332863, Note_off_c, 0, 69, 64
1, 332879, Note_off_c, 0, 76, 64
1, 332896, Note_on_c, 0, 79, 82
1, 332915, Note_on_c, 0, 70, 81
1, 332936, Note_off_c, 0, 79, 66
1, 332948, Note_off_c, 0, 70, 62
1, 332988, Note_on_c, 0, 72, 96
1, 332992, Note_on_c, 0, 88, 92
1, 333035, Note_off_c, 0, 72, 59
1, 333047, Note_off_c, 0, 88, 63
1, 333085, Note_on_c, 0, 91, 75
1, 333090, Note_on_c, 0, 73, 81
1, 333105, Note_off_c, 0, 91, 64
1, 333126, Note_off_c, 0, 73, 64
1, 333169, Note_on_c, 0, 76, 75
1, 333169, Note_on_c, 0, 69, 76
1, 333199, Control_c, 0, 64, 41
1, 333214, Control_c, 0, 64, 36
1, 333225, Note_off_c, 0, 76, 62
1, 333229, Control_c, 0, 64, 23
1, 333237, Note_on_c, 0, 79, 79
1, 333244, Control_c, 0, 64, 0
1, 333246, Note_on_c, 0, 70, 81
1, 333247, Note_off_c, 0, 69, 63
1, 333259, Note_off_c, 0, 79, 70
1, 333304, Note_off_c, 0, 70, 62
1, 333328, Note_on_c, 0, 87, 90
1, 333331, Note_on_c, 0, 72, 88
1, 333365, Note_off_c, 0, 72, 66
1, 333378, Note_off_c, 0, 87, 65
1, 333409, Note_on_c, 0, 73, 86
1, 333416, Note_on_c, 0, 85, 90
1, 333430, Note_off_c, 0, 73, 70
1, 333447, Note_off_c, 0, 85, 68
1, 333501, Note_on_c, 0, 74, 98
1, 333503, Note_on_c, 0, 68, 87
1, 333517, Note_on_c, 0, 73, 62
1, 333525, Control_c, 0, 64, 17
1, 333528, Note_off_c, 0, 68, 61
1, 333528, Note_off_c, 0, 74, 65
1, 333537, Note_off_c, 0, 73, 38
1, 333540, Control_c, 0, 64, 60
1, 333554, Control_c, 0, 64, 68
1, 333577, Control_c, 0, 64, 74
1, 333592, Control_c, 0, 64, 79
1, 333593, Note_on_c, 0, 84, 94
1, 333599, Note_on_c, 0, 79, 74
1, 333606, Control_c, 0, 64, 80
1, 333621, Control_c, 0, 64, 77
1, 333622, Note_on_c, 0, 86, 48
1, 333623, Note_off_c, 0, 86, 127
1, 333623, Note_off_c, 0, 79, 66
1, 333628, Note_off_c, 0, 84, 67
1, 333637, Control_c, 0, 64, 69
1, 333652, Control_c, 0, 64, 55
1, 333667, Control_c, 0, 64, 0
1, 333673, Note_on_c, 0, 78, 110
1, 333680, Note_on_c, 0, 72, 87
1, 333700, Note_off_c, 0, 78, 67
1, 333700, Note_off_c, 0, 72, 72
1, 333737, Note_on_c, 0, 83, 80
1, 333738, Note_on_c, 0, 88, 89
1, 333774, Note_off_c, 0, 83, 63
1, 333783, Note_off_c, 0, 88, 64
1, 333833, Note_on_c, 0, 87, 83
1, 333905, Note_off_c, 0, 87, 45
1, 333911, Note_on_c, 0, 85, 89
1, 333945, Note_off_c, 0, 85, 66
1, 333992, Note_on_c, 0, 74, 93
1, 334003, Note_on_c, 0, 68, 77
1, 334013, Note_off_c, 0, 74, 69
1, 334022, Control_c, 0, 64, 54
1, 334025, Note_off_c, 0, 68, 69
1, 334037, Control_c, 0, 64, 59
1, 334052, Control_c, 0, 64, 61
1, 334067, Control_c, 0, 64, 62
1, 334071, Note_on_c, 0, 84, 98
1, 334074, Note_on_c, 0, 79, 80
1, 334082, Control_c, 0, 64, 63
1, 334094, Note_off_c, 0, 79, 71
1, 334105, Note_off_c, 0, 84, 66
1, 334111, Control_c, 0, 64, 61
1, 334126, Control_c, 0, 64, 57
1, 334141, Control_c, 0, 64, 33
1, 334155, Note_on_c, 0, 78, 105
1, 334156, Control_c, 0, 64, 0
1, 334162, Note_on_c, 0, 72, 83
1, 334175, Note_off_c, 0, 72, 71
1, 334180, Note_off_c, 0, 78, 67
1, 334230, Note_on_c, 0, 88, 88
1, 334234, Note_on_c, 0, 83, 77
1, 334257, Note_off_c, 0, 83, 69
1, 334276, Note_off_c, 0, 88, 64
1, 334339, Note_on_c, 0, 87, 75
1, 334389, Note_off_c, 0, 87, 58
1, 334430, Note_on_c, 0, 84, 51
1, 334451, Note_off_c, 0, 84, 39
1, 334484, Note_on_c, 0, 74, 67
1, 334485, Note_on_c, 0, 68, 64
1, 334514, Note_off_c, 0, 74, 65
1, 334517, Note_off_c, 0, 68, 64
1, 334560, Note_on_c, 0, 84, 81
1, 334570, Note_on_c, 0, 79, 64
1, 334597, Note_off_c, 0, 79, 66
1, 334599, Note_off_c, 0, 84, 65
1, 334629, Note_on_c, 0, 78, 91
1, 334646, Note_on_c, 0, 72, 50
1, 334658, Note_off_c, 0, 78, 61
1, 334671, Note_off_c, 0, 72, 37
1, 334702, Note_on_c, 0, 88, 93
1, 334709, Note_on_c, 0, 83, 70
1, 334735, Note_off_c, 0, 83, 69
1, 334745, Note_off_c, 0, 88, 65
1, 334784, Note_on_c, 0, 82, 97
1, 334785, Note_on_c, 0, 76, 91
1, 334797, Note_off_c, 0, 76, 74
1, 334799, Note_off_c, 0, 82, 75
1, 334851, Note_on_c, 0, 87, 89
1, 334851, Note_on_c, 0, 92, 92
1, 334878, Note_off_c, 0, 92, 64
1, 334889, Note_off_c, 0, 87, 64
1, 334942, Note_on_c, 0, 96, 95
1, 335022, Note_off_c, 0, 96, 53
1, 335029, Note_on_c, 0, 92, 76
1, 335103, Note_on_c, 0, 87, 76
1, 335111, Note_off_c, 0, 92, 64
1, 335136, Note_off_c, 0, 87, 64
1, 335149, Control_c, 0, 67, 19
1, 335163, Note_on_c, 0, 80, 78
1, 335164, Control_c, 0, 67, 73
1, 335178, Control_c, 0, 67, 127
1, 335184, Note_off_c, 0, 80, 71
1, 335245, Note_on_c, 0, 87, 70
1, 335318, Note_off_c, 0, 87, 61
1, 335322, Note_on_c, 0, 85, 61
1, 335342, Control_c, 0, 64, 21
1, 335357, Control_c, 0, 64, 38
1, 335357, Note_off_c, 0, 85, 62
1, 335372, Control_c, 0, 64, 45
1, 335387, Control_c, 0, 64, 52
1, 335402, Control_c, 0, 64, 58
1, 335404, Note_on_c, 0, 74, 63
1, 335416, Control_c, 0, 64, 62
1, 335431, Control_c, 0, 64, 64
1, 335438, Note_off_c, 0, 74, 63
1, 335446, Control_c, 0, 64, 65
1, 335475, Control_c, 0, 64, 64
1, 335478, Note_on_c, 0, 84, 69
1, 335493, Note_on_c, 0, 79, 44
1, 335505, Control_c, 0, 64, 64
1, 335506, Note_off_c, 0, 84, 63
1, 335518, Note_off_c, 0, 79, 54
1, 335520, Control_c, 0, 64, 63
1, 335535, Control_c, 0, 64, 63
1, 335560, Note_on_c, 0, 78, 67
1, 335564, Control_c, 0, 64, 62
1, 335573, Note_on_c, 0, 72, 48
1, 335579, Control_c, 0, 64, 61
1, 335590, Note_off_c, 0, 78, 67
1, 335594, Control_c, 0, 64, 61
1, 335601, Note_off_c, 0, 72, 65
1, 335609, Control_c, 0, 64, 60
1, 335623, Control_c, 0, 64, 59
1, 335634, Note_on_c, 0, 88, 68
1, 335637, Note_on_c, 0, 83, 56
1, 335638, Control_c, 0, 64, 58
1, 335653, Control_c, 0, 64, 57
1, 335667, Control_c, 0, 64, 55
1, 335671, Note_off_c, 0, 83, 55
1, 335674, Note_off_c, 0, 88, 59
1, 335682, Control_c, 0, 64, 53
1, 335697, Control_c, 0, 64, 51
1, 335712, Control_c, 0, 64, 50
1, 335724, Note_on_c, 0, 87, 64
1, 335727, Control_c, 0, 64, 49
1, 335770, Note_off_c, 0, 87, 57
1, 335787, Control_c, 0, 64, 50
1, 335801, Control_c, 0, 64, 52
1, 335803, Note_on_c, 0, 85, 57
1, 335823, Control_c, 0, 64, 54
1, 335830, Note_off_c, 0, 85, 65
1, 335838, Control_c, 0, 64, 57
1, 335853, Control_c, 0, 64, 59
1, 335867, Control_c, 0, 64, 60
1, 335879, Note_on_c, 0, 74, 58
1, 335882, Control_c, 0, 64, 62
1, 335883, Note_on_c, 0, 68, 54
1, 335897, Control_c, 0, 64, 63
1, 335912, Control_c, 0, 64, 64
1, 335913, Note_off_c, 0, 74, 65
1, 335919, Note_off_c, 0, 68, 60
1, 335927, Control_c, 0, 64, 64
1, 335942, Control_c, 0, 64, 65
1, 335974, Note_on_c, 0, 79, 52
1, 335977, Note_on_c, 0, 84, 61
1, 336005, Note_off_c, 0, 79, 66
1, 336011, Note_off_c, 0, 84, 62
1, 336044, Note_on_c, 0, 72, 53
1, 336046, Control_c, 0, 64, 64
1, 336051, Note_on_c, 0, 78, 53
1, 336071, Note_off_c, 0, 78, 61
1, 336076, Note_off_c, 0, 72, 66
1, 336091, Control_c, 0, 64, 64
1, 336129, Note_on_c, 0, 83, 54
1, 336130, Note_on_c, 0, 88, 67
1, 336135, Control_c, 0, 64, 63
1, 336167, Note_off_c, 0, 88, 56
1, 336171, Note_off_c, 0, 83, 59
1, 336195, Control_c, 0, 64, 63
1, 336210, Note_on_c, 0, 87, 64
1, 336210, Control_c, 0, 64, 60
1, 336225, Control_c, 0, 64, 53
1, 336240, Control_c, 0, 64, 50
1, 336269, Control_c, 0, 64, 50
1, 336276, Note_off_c, 0, 87, 63
1, 336284, Control_c, 0, 64, 52
1, 336294, Note_on_c, 0, 85, 39
1, 336298, Control_c, 0, 64, 54
1, 336313, Control_c, 0, 64, 57
1, 336320, Note_off_c, 0, 85, 54
1, 336328, Control_c, 0, 64, 60
1, 336343, Control_c, 0, 64, 61
1, 336348, Note_on_c, 0, 68, 52
1, 336350, Note_on_c, 0, 74, 55
1, 336358, Control_c, 0, 64, 63
1, 336372, Control_c, 0, 64, 64
1, 336383, Note_off_c, 0, 74, 64
1, 336387, Control_c, 0, 64, 64
1, 336389, Note_off_c, 0, 68, 62
1, 336402, Control_c, 0, 64, 65
1, 336417, Control_c, 0, 64, 67
1, 336432, Control_c, 0, 64, 68
1, 336435, Note_on_c, 0, 79, 54
1, 336439, Note_on_c, 0, 84, 65
1, 336446, Control_c, 0, 64, 70
1, 336457, Note_off_c, 0, 79, 64
1, 336461, Control_c, 0, 64, 71
1, 336467, Note_off_c, 0, 84, 67
1, 336476, Control_c, 0, 64, 72
1, 336502, Note_on_c, 0, 78, 70
1, 336519, Note_on_c, 0, 72, 48
1, 336534, Note_off_c, 0, 78, 63
1, 336542, Note_off_c, 0, 72, 58
1, 336572, Control_c, 0, 64, 71
1, 336588, Note_on_c, 0, 88, 79
1, 336599, Note_on_c, 0, 83, 47
1, 336617, Control_c, 0, 64, 71
1, 336624, Note_off_c, 0, 83, 56
1, 336626, Note_off_c, 0, 88, 62
1, 336646, Control_c, 0, 64, 70
1, 336654, Note_on_c, 0, 76, 58
1, 336654, Note_on_c, 0, 82, 71
1, 336661, Control_c, 0, 64, 69
1, 336675, Note_off_c, 0, 76, 62
1, 336676, Control_c, 0, 64, 69
1, 336678, Note_off_c, 0, 82, 69
1, 336690, Control_c, 0, 64, 67
1, 336705, Control_c, 0, 64, 65
1, 336720, Control_c, 0, 64, 64
1, 336729, Note_on_c, 0, 87, 71
1, 336735, Note_on_c, 0, 92, 69
1, 336735, Control_c, 0, 64, 64
1, 336750, Control_c, 0, 64, 63
1, 336764, Control_c, 0, 64, 61
1, 336772, Note_off_c, 0, 92, 59
1, 336779, Control_c, 0, 64, 58
1, 336786, Note_off_c, 0, 87, 64
1, 336794, Control_c, 0, 64, 57
1, 336809, Control_c, 0, 64, 55
1, 336815, Note_on_c, 0, 96, 76
1, 336825, Control_c, 0, 64, 53
1, 336840, Control_c, 0, 64, 52
1, 336855, Control_c, 0, 64, 50
1, 336869, Control_c, 0, 64, 49
1, 336882, Note_off_c, 0, 96, 47
1, 336884, Control_c, 0, 64, 47
1, 336899, Control_c, 0, 64, 45
1, 336910, Note_on_c, 0, 92, 60
1, 336914, Control_c, 0, 64, 44
1, 336928, Control_c, 0, 64, 43
1, 336943, Control_c, 0, 64, 42
1, 336958, Control_c, 0, 64, 41
1, 336973, Control_c, 0, 64, 40
1, 336976, Note_on_c, 0, 87, 58
1, 336976, Note_off_c, 0, 92, 60
1, 336988, Control_c, 0, 64, 39
1, 337003, Control_c, 0, 64, 38
1, 337018, Control_c, 0, 64, 37
1, 337033, Control_c, 0, 64, 36
1, 337045, Note_off_c, 0, 87, 47
1, 337048, Control_c, 0, 64, 34
1, 337055, Note_on_c, 0, 80, 70
1, 337062, Control_c, 0, 64, 32
1, 337077, Control_c, 0, 64, 30
1, 337080, Note_off_c, 0, 80, 69
1, 337092, Control_c, 0, 64, 27
1, 337107, Control_c, 0, 64, 24
1, 337121, Control_c, 0, 64, 24
1, 337136, Control_c, 0, 64, 23
1, 337136, Control_c, 0, 67, 126
1, 337138, Note_on_c, 0, 92, 76
1, 337151, Control_c, 0, 67, 105
1, 337166, Control_c, 0, 67, 78
1, 337181, Control_c, 0, 67, 43
1, 337195, Control_c, 0, 64, 24
1, 337195, Control_c, 0, 67, 13
1, 337197, Note_on_c, 0, 96, 84
1, 337207, Note_off_c, 0, 92, 65
1, 337210, Control_c, 0, 64, 28
1, 337210, Control_c, 0, 67, 0
1, 337225, Control_c, 0, 64, 35
1, 337239, Control_c, 0, 64, 47
1, 337254, Control_c, 0, 64, 55
1, 337269, Control_c, 0, 64, 59
1, 337278, Note_off_c, 0, 96, 65
1, 337280, Note_on_c, 0, 92, 91
1, 337284, Control_c, 0, 64, 62
1, 337299, Control_c, 0, 64, 64
1, 337307, Note_on_c, 0, 61, 46
1, 337321, Control_c, 0, 64, 68
1, 337336, Control_c, 0, 64, 76
1, 337351, Control_c, 0, 64, 97
1, 337352, Note_off_c, 0, 92, 66
1, 337361, Note_on_c, 0, 67, 53
1, 337366, Control_c, 0, 64, 127
1, 337373, Note_off_c, 0, 61, 55
1, 337391, Note_on_c, 0, 80, 80
1, 337419, Note_off_c, 0, 67, 59
1, 337440, Note_off_c, 0, 80, 66
1, 337454, Note_on_c, 0, 84, 77
1, 337460, Note_on_c, 0, 72, 55
1, 337479, Note_off_c, 0, 84, 68
1, 337557, Note_off_c, 0, 72, 59
1, 337566, Note_on_c, 0, 76, 44
1, 337578, Note_on_c, 0, 74, 11
1, 337592, Note_off_c, 0, 76, 52
1, 337632, Note_off_c, 0, 74, 27
1, 337635, Note_on_c, 0, 84, 84
1, 337700, Poly_aftertouch_c, 0, 95, 0
1, 337708, Poly_aftertouch_c, 0, 72, 127
1, 337710, Note_on_c, 0, 92, 88
1, 337750, Note_off_c, 0, 84, 59
1, 337755, Poly_aftertouch_c, 0, 72, 0
1, 337789, Note_on_c, 0, 96, 95
1, 337806, Note_off_c, 0, 92, 66
1, 337823, Note_on_c, 0, 61, 44
1, 337878, Note_on_c, 0, 92, 92
1, 337891, Note_on_c, 0, 67, 51
1, 337902, Note_off_c, 0, 96, 64
1, 337929, Note_off_c, 0, 61, 55
1, 337929, Note_off_c, 0, 67, 64
1, 337957, Note_on_c, 0, 84, 75
1, 337958, Note_off_c, 0, 92, 66
1, 337968, Note_on_c, 0, 72, 51
1, 338004, Note_off_c, 0, 84, 65
1, 338012, Note_off_c, 0, 72, 59
1, 338046, Note_on_c, 0, 92, 85
1, 338047, Note_on_c, 0, 76, 65
1, 338071, Note_off_c, 0, 76, 65
1, 338131, Note_on_c, 0, 84, 68
1, 338136, Note_off_c, 0, 92, 64
1, 338174, Control_c, 0, 64, 104
1, 338183, Note_off_c, 0, 84, 62
1, 338185, Note_on_c, 0, 80, 75
1, 338189, Control_c, 0, 64, 81
1, 338204, Control_c, 0, 64, 68
1, 338209, Note_off_c, 0, 80, 71
1, 338218, Control_c, 0, 64, 53
1, 338233, Control_c, 0, 64, 0
1, 338250, Note_on_c, 0, 83, 80
1, 338271, Note_on_c, 0, 61, 54
1, 338291, Note_on_c, 0, 82, 77
1, 338305, Note_off_c, 0, 83, 0
1, 338335, Note_on_c, 0, 68, 57
1, 338341, Poly_aftertouch_c, 0, 83, 127
1, 338344, Note_off_c, 0, 82, 65
1, 338354, Note_off_c, 0, 61, 55
1, 338390, Note_off_c, 0, 68, 56
1, 338407, Note_on_c, 0, 73, 55
1, 338441, Control_c, 0, 67, 42
1, 338446, Note_off_c, 0, 73, 65
1, 338456, Control_c, 0, 67, 83
1, 338463, Poly_aftertouch_c, 0, 83, 0
1, 338471, Control_c, 0, 67, 127
1, 338499, Note_on_c, 0, 80, 76
1, 338517, Note_on_c, 0, 77, 56
1, 338536, Note_off_c, 0, 77, 62
1, 338538, Note_off_c, 0, 80, 64
1, 338604, Note_on_c, 0, 91, 63
1, 338652, Note_off_c, 0, 91, 62
1, 338663, Control_c, 0, 64, 21
1, 338678, Control_c, 0, 64, 31
1, 338688, Note_on_c, 0, 95, 39
1, 338693, Control_c, 0, 64, 38
1, 338708, Control_c, 0, 64, 43
1, 338723, Control_c, 0, 64, 46
1, 338738, Control_c, 0, 64, 49
1, 338748, Note_off_c, 0, 95, 35
1, 338753, Control_c, 0, 64, 51
1, 338765, Note_on_c, 0, 61, 38
1, 338767, Control_c, 0, 64, 54
1, 338781, Note_on_c, 0, 91, 39
1, 338782, Control_c, 0, 64, 56
1, 338797, Control_c, 0, 64, 58
1, 338817, Note_off_c, 0, 91, 53
1, 338819, Control_c, 0, 64, 60
1, 338834, Control_c, 0, 64, 61
1, 338848, Control_c, 0, 64, 62
1, 338863, Control_c, 0, 64, 63
1, 338878, Control_c, 0, 64, 63
1, 338888, Note_on_c, 0, 66, 38
1, 338893, Control_c, 0, 64, 64
1, 338902, Note_on_c, 0, 79, 32
1, 338908, Control_c, 0, 64, 64
1, 338936, Note_off_c, 0, 79, 52
1, 338937, Note_off_c, 0, 61, 35
1, 338937, Control_c, 0, 64, 65
1, 338967, Control_c, 0, 64, 65
1, 338970, Note_on_c, 0, 83, 46
1, 338978, Note_on_c, 0, 71, 29
1, 339004, Note_off_c, 0, 83, 65
1, 339041, Control_c, 0, 64, 66
1, 339069, Note_on_c, 0, 74, 43
1, 339071, Control_c, 0, 64, 66
1, 339086, Note_off_c, 0, 71, 54
1, 339101, Note_off_c, 0, 74, 50
1, 339115, Control_c, 0, 64, 67
1, 339122, Note_off_c, 0, 66, 36
1, 339154, Note_on_c, 0, 83, 49
1, 339174, Control_c, 0, 64, 66
1, 339215, Note_off_c, 0, 83, 56
1, 339230, Note_on_c, 0, 91, 58
1, 339284, Note_off_c, 0, 91, 60
1, 339294, Control_c, 0, 64, 66
1, 339307, Note_on_c, 0, 95, 67
1, 339308, Note_on_c, 0, 61, 39
1, 339369, Control_c, 0, 64, 66
1, 339376, Note_off_c, 0, 61, 54
1, 339385, Note_on_c, 0, 66, 48
1, 339386, Note_off_c, 0, 95, 63
1, 339402, Note_on_c, 0, 91, 55
1, 339443, Control_c, 0, 64, 67
1, 339444, Note_off_c, 0, 91, 63
1, 339483, Note_on_c, 0, 71, 47
1, 339483, Note_on_c, 0, 83, 52
1, 339516, Note_off_c, 0, 83, 64
1, 339525, Note_off_c, 0, 66, 34
1, 339528, Note_off_c, 0, 71, 60
1, 339549, Note_on_c, 0, 91, 66
1, 339566, Note_on_c, 0, 74, 41
1, 339598, Control_c, 0, 64, 66
1, 339599, Note_off_c, 0, 74, 55
1, 339601, Note_off_c, 0, 91, 63
1, 339643, Note_on_c, 0, 83, 61
1, 339672, Control_c, 0, 64, 66
1, 339680, Note_off_c, 0, 83, 63
1, 339702, Control_c, 0, 64, 65
1, 339709, Note_on_c, 0, 79, 60
1, 339716, Control_c, 0, 64, 64
1, 339731, Control_c, 0, 64, 63
1, 339745, Note_off_c, 0, 79, 64
1, 339746, Control_c, 0, 64, 60
1, 339761, Control_c, 0, 64, 57
1, 339776, Control_c, 0, 64, 53
1, 339777, Note_on_c, 0, 82, 73
1, 339790, Control_c, 0, 64, 51
1, 339795, Note_on_c, 0, 62, 41
1, 339805, Control_c, 0, 64, 49
1, 339811, Note_off_c, 0, 82, 60
1, 339820, Control_c, 0, 64, 47
1, 339835, Control_c, 0, 64, 47
1, 339850, Control_c, 0, 64, 46
1, 339862, Note_off_c, 0, 62, 57
1, 339879, Control_c, 0, 64, 45
1, 339881, Note_on_c, 0, 82, 59
1, 339885, Note_on_c, 0, 67, 47
1, 339939, Note_off_c, 0, 67, 55
1, 339948, Note_on_c, 0, 78, 60
1, 339951, Note_off_c, 0, 82, 61
1, 339957, Note_on_c, 0, 70, 47
1, 340006, Note_off_c, 0, 70, 59
1, 340007, Note_off_c, 0, 78, 56
1, 340050, Note_on_c, 0, 88, 60
1, 340057, Note_on_c, 0, 73, 32
1, 340058, Control_c, 0, 64, 45
1, 340085, Note_off_c, 0, 73, 49
1, 340088, Control_c, 0, 64, 44
1, 340118, Control_c, 0, 64, 44
1, 340122, Note_off_c, 0, 88, 62
1, 340132, Control_c, 0, 64, 43
1, 340136, Note_on_c, 0, 86, 60
1, 340147, Control_c, 0, 64, 43
1, 340175, Note_off_c, 0, 86, 59
1, 340192, Control_c, 0, 64, 42
1, 340216, Note_on_c, 0, 84, 64
1, 340247, Note_off_c, 0, 84, 65
1, 340283, Note_on_c, 0, 67, 37
1, 340295, Control_c, 0, 64, 43
1, 340301, Note_on_c, 0, 83, 77
1, 340318, Control_c, 0, 64, 44
1, 340332, Control_c, 0, 64, 46
1, 340347, Control_c, 0, 64, 49
1, 340362, Control_c, 0, 64, 52
1, 340377, Control_c, 0, 64, 55
1, 340383, Note_on_c, 0, 73, 41
1, 340392, Control_c, 0, 64, 57
1, 340407, Control_c, 0, 64, 60
1, 340416, Note_on_c, 0, 78, 52
1, 340421, Control_c, 0, 64, 62
1, 340436, Note_off_c, 0, 73, 58
1, 340436, Control_c, 0, 64, 63
1, 340446, Note_off_c, 0, 78, 61
1, 340451, Control_c, 0, 64, 64
1, 340466, Control_c, 0, 64, 65
1, 340481, Control_c, 0, 64, 67
1, 340484, Note_on_c, 0, 71, 42
1, 340495, Control_c, 0, 64, 68
1, 340510, Control_c, 0, 64, 69
1, 340520, Note_on_c, 0, 87, 35
1, 340525, Control_c, 0, 64, 69
1, 340553, Note_off_c, 0, 67, 39
1, 340553, Note_off_c, 0, 71, 55
1, 340554, Control_c, 0, 64, 68
1, 340569, Control_c, 0, 64, 66
1, 340572, Note_off_c, 0, 83, 60
1, 340582, Note_off_c, 0, 87, 44
1, 340583, Note_on_c, 0, 82, 67
1, 340584, Control_c, 0, 64, 63
1, 340587, Note_on_c, 0, 77, 39
1, 340599, Control_c, 0, 64, 58
1, 340613, Control_c, 0, 64, 55
1, 340614, Note_off_c, 0, 77, 54
1, 340622, Note_off_c, 0, 82, 63
1, 340628, Control_c, 0, 64, 52
1, 340643, Control_c, 0, 64, 49
1, 340658, Control_c, 0, 64, 47
1, 340673, Control_c, 0, 64, 45
1, 340679, Note_on_c, 0, 86, 59
1, 340687, Control_c, 0, 64, 44
1, 340723, Note_off_c, 0, 86, 63
1, 340760, Note_on_c, 0, 84, 62
1, 340792, Control_c, 0, 64, 45
1, 340806, Note_off_c, 0, 84, 62
1, 340806, Control_c, 0, 64, 47
1, 340822, Control_c, 0, 64, 49
1, 340836, Control_c, 0, 64, 53
1, 340842, Note_on_c, 0, 67, 44
1, 340845, Note_on_c, 0, 83, 77
1, 340851, Control_c, 0, 64, 56
1, 340866, Control_c, 0, 64, 58
1, 340881, Control_c, 0, 64, 60
1, 340896, Control_c, 0, 64, 61
1, 340911, Control_c, 0, 64, 63
1, 340923, Note_on_c, 0, 73, 42
1, 340926, Control_c, 0, 64, 64
1, 340941, Control_c, 0, 64, 65
1, 340952, Note_on_c, 0, 78, 41
1, 340955, Control_c, 0, 64, 66
1, 340964, Note_off_c, 0, 73, 60
1, 340970, Control_c, 0, 64, 68
1, 340976, Note_off_c, 0, 78, 53
1, 340985, Control_c, 0, 64, 69
1, 341000, Control_c, 0, 64, 70
1, 341013, Note_on_c, 0, 71, 47
1, 341015, Control_c, 0, 64, 71
1, 341030, Control_c, 0, 64, 71
1, 341051, Note_on_c, 0, 87, 37
1, 341069, Note_off_c, 0, 67, 32
1, 341087, Note_off_c, 0, 83, 58
1, 341092, Note_off_c, 0, 71, 61
1, 341096, Control_c, 0, 64, 70
1, 341111, Control_c, 0, 64, 68
1, 341119, Note_off_c, 0, 87, 65
1, 341119, Note_on_c, 0, 82, 70
1, 341125, Control_c, 0, 64, 64
1, 341135, Note_on_c, 0, 77, 29
1, 341140, Control_c, 0, 64, 58
1, 341149, Note_off_c, 0, 82, 65
1, 341155, Control_c, 0, 64, 52
1, 341159, Note_off_c, 0, 77, 35
1, 341170, Control_c, 0, 64, 46
1, 341185, Control_c, 0, 64, 39
1, 341200, Control_c, 0, 64, 33
1, 341206, Note_on_c, 0, 86, 67
1, 341215, Control_c, 0, 64, 30
1, 341230, Control_c, 0, 64, 27
1, 341244, Control_c, 0, 64, 26
1, 341258, Note_off_c, 0, 86, 64
1, 341280, Note_on_c, 0, 84, 71
1, 341303, Control_c, 0, 64, 27
1, 341318, Control_c, 0, 64, 31
1, 341333, Control_c, 0, 64, 39
1, 341340, Note_off_c, 0, 84, 64
1, 341348, Control_c, 0, 64, 49
1, 341362, Control_c, 0, 64, 55
1, 341367, Note_on_c, 0, 83, 87
1, 341377, Control_c, 0, 64, 57
1, 341380, Note_on_c, 0, 67, 43
1, 341392, Control_c, 0, 64, 60
1, 341407, Control_c, 0, 64, 61
1, 341422, Control_c, 0, 64, 63
1, 341436, Control_c, 0, 64, 64
1, 341451, Control_c, 0, 64, 65
1, 341456, Note_off_c, 0, 83, 60
1, 341466, Control_c, 0, 64, 65
1, 341469, Note_on_c, 0, 73, 44
1, 341469, Note_on_c, 0, 78, 69
1, 341481, Control_c, 0, 64, 66
1, 341494, Note_off_c, 0, 67, 56
1, 341495, Control_c, 0, 64, 66
1, 341510, Control_c, 0, 64, 67
1, 341512, Note_off_c, 0, 73, 62
1, 341525, Control_c, 0, 64, 68
1, 341533, Note_off_c, 0, 78, 58
1, 341536, Note_on_c, 0, 87, 77
1, 341540, Control_c, 0, 64, 69
1, 341543, Note_on_c, 0, 71, 53
1, 341570, Control_c, 0, 64, 69
1, 341584, Control_c, 0, 64, 67
1, 341587, Note_off_c, 0, 71, 63
1, 341599, Control_c, 0, 64, 65
1, 341609, Note_on_c, 0, 82, 84
1, 341615, Control_c, 0, 64, 60
1, 341617, Note_off_c, 0, 87, 64
1, 341627, Note_on_c, 0, 77, 65
1, 341630, Control_c, 0, 64, 54
1, 341645, Note_off_c, 0, 82, 66
1, 341645, Control_c, 0, 64, 52
1, 341659, Control_c, 0, 64, 50
1, 341669, Note_off_c, 0, 77, 60
1, 341674, Control_c, 0, 64, 47
1, 341689, Control_c, 0, 64, 46
1, 341691, Note_on_c, 0, 91, 85
1, 341703, Note_on_c, 0, 75, 63
1, 341704, Control_c, 0, 64, 45
1, 341719, Control_c, 0, 64, 43
1, 341733, Control_c, 0, 64, 42
1, 341748, Note_off_c, 0, 75, 59
1, 341749, Control_c, 0, 64, 41
1, 341764, Note_off_c, 0, 91, 64
1, 341764, Control_c, 0, 64, 41
1, 341772, Note_on_c, 0, 86, 80
1, 341786, Note_on_c, 0, 81, 69
1, 341821, Note_off_c, 0, 81, 67
1, 341838, Note_off_c, 0, 86, 63
1, 341846, Control_c, 0, 64, 42
1, 341856, Note_on_c, 0, 95, 94
1, 341861, Note_on_c, 0, 79, 77
1, 341861, Control_c, 0, 64, 46
1, 341875, Control_c, 0, 64, 51
1, 341883, Note_off_c, 0, 79, 67
1, 341890, Control_c, 0, 64, 55
1, 341905, Control_c, 0, 64, 58
1, 341919, Control_c, 0, 64, 61
1, 341931, Note_on_c, 0, 91, 70
1, 341934, Control_c, 0, 64, 62
1, 341949, Control_c, 0, 64, 64
1, 341951, Note_off_c, 0, 95, 63
1, 341964, Control_c, 0, 64, 65
1, 341979, Control_c, 0, 64, 67
1, 341993, Control_c, 0, 64, 70
1, 341999, Note_on_c, 0, 86, 75
1, 341999, Note_off_c, 0, 91, 63
1, 342008, Control_c, 0, 64, 73
1, 342023, Note_off_c, 0, 86, 70
1, 342023, Control_c, 0, 64, 77
1, 342038, Control_c, 0, 64, 81
1, 342053, Control_c, 0, 64, 84
1, 342067, Control_c, 0, 64, 86
1, 342073, Note_on_c, 0, 79, 72
1, 342082, Control_c, 0, 64, 87
1, 342088, Note_off_c, 0, 79, 43
1, 342097, Control_c, 0, 64, 85
1, 342112, Control_c, 0, 64, 80
1, 342127, Control_c, 0, 64, 71
1, 342142, Control_c, 0, 64, 61
1, 342148, Note_on_c, 0, 74, 75
1, 342157, Control_c, 0, 64, 45
1, 342172, Control_c, 0, 64, 0
1, 342205, Note_off_c, 0, 74, 62
1, 342232, Note_on_c, 0, 72, 69
1, 342281, Note_off_c, 0, 72, 60
1, 342320, Note_on_c, 0, 71, 75
1, 342322, Note_on_c, 0, 55, 46
1, 342391, Note_on_c, 0, 61, 55
1, 342409, Control_c, 0, 64, 23
1, 342424, Note_on_c, 0, 66, 47
1, 342424, Control_c, 0, 64, 39
1, 342431, Note_off_c, 0, 55, 56
1, 342439, Control_c, 0, 64, 47
1, 342452, Note_off_c, 0, 66, 57
1, 342454, Control_c, 0, 64, 51
1, 342464, Note_off_c, 0, 61, 54
1, 342469, Control_c, 0, 64, 52
1, 342481, Note_on_c, 0, 59, 54
1, 342483, Control_c, 0, 64, 54
1, 342486, Note_on_c, 0, 75, 52
1, 342497, Control_c, 0, 64, 54
1, 342512, Control_c, 0, 64, 55
1, 342537, Note_off_c, 0, 59, 59
1, 342541, Control_c, 0, 64, 54
1, 342564, Control_c, 0, 64, 54
1, 342576, Note_on_c, 0, 65, 56
1, 342579, Control_c, 0, 64, 53
1, 342583, Note_off_c, 0, 75, 62
1, 342591, Note_off_c, 0, 71, 51
1, 342592, Note_on_c, 0, 70, 62
1, 342594, Control_c, 0, 64, 51
1, 342606, Note_off_c, 0, 65, 64
1, 342609, Control_c, 0, 64, 50
1, 342623, Control_c, 0, 64, 47
1, 342628, Note_off_c, 0, 70, 58
1, 342638, Control_c, 0, 64, 43
1, 342653, Control_c, 0, 64, 39
1, 342665, Note_on_c, 0, 74, 58
1, 342668, Control_c, 0, 64, 34
1, 342683, Control_c, 0, 64, 30
1, 342697, Control_c, 0, 64, 28
1, 342712, Control_c, 0, 64, 26
1, 342726, Note_off_c, 0, 74, 62
1, 342727, Control_c, 0, 64, 26
1, 342751, Note_on_c, 0, 72, 57
1, 342801, Control_c, 0, 64, 29
1, 342816, Control_c, 0, 64, 36
1, 342818, Note_off_c, 0, 72, 61
1, 342830, Control_c, 0, 64, 43
1, 342834, Note_on_c, 0, 55, 36
1, 342843, Note_on_c, 0, 71, 58
1, 342845, Control_c, 0, 64, 48
1, 342860, Control_c, 0, 64, 51
1, 342875, Control_c, 0, 64, 52
1, 342890, Control_c, 0, 64, 54
1, 342905, Control_c, 0, 64, 55
1, 342920, Control_c, 0, 64, 57
1, 342925, Note_on_c, 0, 61, 34
1, 342934, Control_c, 0, 64, 59
1, 342949, Control_c, 0, 64, 60
1, 342953, Note_on_c, 0, 66, 39
1, 342964, Control_c, 0, 64, 61
1, 342975, Note_off_c, 0, 61, 49
1, 342979, Control_c, 0, 64, 62
1, 342982, Note_off_c, 0, 66, 56
1, 342991, Note_on_c, 0, 59, 47
1, 342994, Control_c, 0, 64, 62
1, 343015, Note_on_c, 0, 75, 51
1, 343083, Note_off_c, 0, 59, 59
1, 343088, Note_off_c, 0, 75, 56
1, 343097, Note_on_c, 0, 65, 48
1, 343097, Control_c, 0, 64, 62
1, 343121, Note_on_c, 0, 70, 58
1, 343127, Control_c, 0, 64, 61
1, 343139, Note_off_c, 0, 71, 39
1, 343141, Control_c, 0, 64, 61
1, 343149, Note_off_c, 0, 65, 59
1, 343156, Control_c, 0, 64, 60
1, 343162, Note_off_c, 0, 70, 60
1, 343171, Control_c, 0, 64, 59
1, 343186, Control_c, 0, 64, 58
1, 343190, Note_on_c, 0, 74, 55
1, 343192, Note_off_c, 0, 55, 15
1, 343202, Control_c, 0, 64, 57
1, 343217, Control_c, 0, 64, 56
1, 343231, Control_c, 0, 64, 54
1, 343246, Control_c, 0, 64, 52
1, 343261, Control_c, 0, 64, 50
1, 343270, Note_off_c, 0, 74, 59
1, 343276, Control_c, 0, 64, 49
1, 343280, Note_on_c, 0, 72, 55
1, 343291, Control_c, 0, 64, 48
1, 343313, Control_c, 0, 64, 47
1, 343328, Control_c, 0, 64, 46
1, 343366, Note_off_c, 0, 72, 65
1, 343382, Note_on_c, 0, 71, 60
1, 343389, Note_on_c, 0, 55, 34
1, 343461, Control_c, 0, 64, 47
1, 343462, Note_off_c, 0, 71, 61
1, 343471, Note_on_c, 0, 61, 43
1, 343480, Note_on_c, 0, 66, 54
1, 343486, Note_off_c, 0, 55, 53
1, 343491, Control_c, 0, 64, 48
1, 343520, Control_c, 0, 64, 48
1, 343522, Note_off_c, 0, 61, 57
1, 343534, Note_on_c, 0, 59, 55
1, 343540, Note_off_c, 0, 66, 57
1, 343546, Note_on_c, 0, 75, 60
1, 343594, Note_off_c, 0, 59, 60
1, 343620, Note_off_c, 0, 75, 62
1, 343626, Note_on_c, 0, 65, 46
1, 343626, Note_on_c, 0, 70, 66
1, 343660, Note_off_c, 0, 70, 67
1, 343670, Note_off_c, 0, 65, 63
1, 343683, Control_c, 0, 64, 48
1, 343690, Note_on_c, 0, 63, 65
1, 343694, Note_on_c, 0, 79, 72
1, 343713, Control_c, 0, 64, 47
1, 343733, Note_off_c, 0, 79, 66
1, 343737, Note_off_c, 0, 63, 54
1, 343757, Control_c, 0, 64, 47
1, 343764, Note_on_c, 0, 74, 68
1, 343769, Note_on_c, 0, 69, 69
1, 343796, Note_off_c, 0, 69, 68
1, 343799, Note_off_c, 0, 74, 62
1, 343802, Control_c, 0, 67, 122
1, 343817, Control_c, 0, 67, 110
1, 343831, Control_c, 0, 67, 97
1, 343846, Control_c, 0, 67, 82
1, 343849, Note_on_c, 0, 83, 75
1, 343851, Note_on_c, 0, 67, 64
1, 343861, Control_c, 0, 67, 66
1, 343876, Control_c, 0, 67, 50
1, 343890, Control_c, 0, 67, 33
1, 343905, Control_c, 0, 67, 18
1, 343920, Control_c, 0, 67, 0
1, 343930, Note_on_c, 0, 78, 75
1, 343936, Note_off_c, 0, 67, 61
1, 343945, Note_on_c, 0, 72, 57
1, 343945, Note_off_c, 0, 83, 61
1, 343964, Control_c, 0, 64, 44
1, 343979, Note_off_c, 0, 72, 65
1, 343979, Control_c, 0, 64, 39
1, 343993, Control_c, 0, 64, 33
1, 343994, Note_on_c, 0, 70, 69
1, 344009, Control_c, 0, 64, 26
1, 344011, Note_on_c, 0, 87, 87
1, 344021, Note_off_c, 0, 78, 58
1, 344024, Control_c, 0, 64, 11
1, 344039, Control_c, 0, 64, 0
1, 344048, Note_off_c, 0, 70, 62
1, 344082, Note_on_c, 0, 77, 75
1, 344097, Note_on_c, 0, 82, 87
1, 344117, Note_off_c, 0, 87, 62
1, 344137, Note_off_c, 0, 82, 67
1, 344144, Note_off_c, 0, 77, 62
1, 344169, Note_on_c, 0, 75, 74
1, 344181, Note_on_c, 0, 91, 77
1, 344222, Note_off_c, 0, 75, 61
1, 344226, Note_off_c, 0, 91, 64
1, 344245, Note_on_c, 0, 81, 73
1, 344246, Note_on_c, 0, 86, 69
1, 344267, Note_off_c, 0, 81, 71
1, 344270, Note_off_c, 0, 86, 68
1, 344320, Note_on_c, 0, 95, 99
1, 344324, Note_on_c, 0, 79, 84
1, 344389, Note_off_c, 0, 79, 63
1, 344402, Note_on_c, 0, 85, 78
1, 344405, Note_on_c, 0, 90, 85
1, 344428, Note_off_c, 0, 95, 64
1, 344470, Note_off_c, 0, 85, 65
1, 344475, Note_on_c, 0, 83, 78
1, 344475, Note_off_c, 0, 90, 64
1, 344487, Note_on_c, 0, 99, 96
1, 344534, Note_off_c, 0, 83, 63
1, 344562, Note_on_c, 0, 94, 99
1, 344565, Note_on_c, 0, 89, 80
1, 344583, Note_off_c, 0, 99, 65
1, 344595, Note_off_c, 0, 94, 67
1, 344614, Note_off_c, 0, 89, 62
1, 344649, Note_on_c, 0, 103, 86
1, 344654, Note_on_c, 0, 87, 45
1, 344661, Note_on_c, 0, 101, 71
1, 344681, Note_off_c, 0, 87, 56
1, 344694, Note_off_c, 0, 101, 36
1, 344717, Note_on_c, 0, 98, 86
1, 344717, Note_off_c, 0, 103, 65
1, 344722, Note_on_c, 0, 93, 61
1, 344739, Note_off_c, 0, 93, 64
1, 344741, Note_off_c, 0, 98, 69
1, 344774, Note_on_c, 0, 91, 80
1, 344780, Note_on_c, 0, 107, 117
1, 344794, Note_off_c, 0, 91, 71
1, 344824, Control_c, 0, 64, 58
1, 344839, Control_c, 0, 64, 65
1, 344854, Control_c, 0, 64, 72
1, 344869, Control_c, 0, 64, 87
1, 344875, Note_on_c, 0, 98, 86
1, 344883, Control_c, 0, 64, 127
1, 344884, Note_off_c, 0, 107, 64
1, 344929, Note_off_c, 0, 98, 66
1, 344956, Note_on_c, 0, 91, 76
1, 345004, Note_off_c, 0, 91, 59
1, 345021, Note_on_c, 0, 85, 85
1, 345041, Note_off_c, 0, 85, 73
1, 345109, Note_on_c, 0, 95, 75
1, 345170, Note_on_c, 0, 86, 83
1, 345180, Note_off_c, 0, 95, 60
1, 345239, Note_on_c, 0, 79, 101
1, 345242, Note_off_c, 0, 86, 67
1, 345282, Note_off_c, 0, 79, 67
1, 345340, Note_on_c, 0, 73, 71
1, 345357, Note_off_c, 0, 73, 66
1, 345403, Note_on_c, 0, 83, 75
1, 345460, Note_off_c, 0, 83, 64
1, 345477, Note_on_c, 0, 74, 78
1, 345525, Note_off_c, 0, 74, 62
1, 345531, Note_on_c, 0, 67, 82
1, 345590, Note_off_c, 0, 67, 60
1, 345615, Note_on_c, 0, 61, 104
1, 345644, Note_off_c, 0, 61, 61
1, 345701, Note_on_c, 0, 71, 93
1, 345737, Control_c, 0, 64, 105
1, 345745, Poly_aftertouch_c, 0, 62, 0
1, 345752, Control_c, 0, 64, 81
1, 345766, Control_c, 0, 64, 67
1, 345779, Note_on_c, 0, 62, 68
1, 345781, Control_c, 0, 64, 52
1, 345795, Note_off_c, 0, 71, 54
1, 345796, Control_c, 0, 64, 16
1, 345811, Control_c, 0, 64, 0
1, 345820, Note_on_c, 0, 69, 13
1, 345850, Note_off_c, 0, 69, 42
1, 345868, Note_on_c, 0, 55, 97
1, 345883, Note_off_c, 0, 62, 65
1, 345972, Note_off_c, 0, 55, 63
1, 346135, Note_on_c, 0, 52, 98
1, 346166, Control_c, 0, 64, 9
1, 346166, Note_off_c, 0, 52, 67
1, 346181, Control_c, 0, 64, 11
1, 346196, Control_c, 0, 64, 12
1, 346211, Control_c, 0, 64, 15
1, 346218, Note_on_c, 0, 50, 98
1, 346225, Control_c, 0, 64, 17
1, 346240, Control_c, 0, 64, 18
1, 346252, Note_off_c, 0, 50, 67
1, 346255, Control_c, 0, 64, 20
1, 346270, Control_c, 0, 64, 22
1, 346285, Control_c, 0, 64, 23
1, 346306, Control_c, 0, 64, 24
1, 346319, Note_on_c, 0, 49, 98
1, 346321, Control_c, 0, 64, 24
1, 346336, Control_c, 0, 64, 25
1, 346351, Control_c, 0, 64, 26
1, 346366, Control_c, 0, 64, 27
1, 346381, Control_c, 0, 64, 28
1, 346396, Control_c, 0, 64, 29
1, 346411, Control_c, 0, 64, 29
1, 346424, Note_on_c, 0, 62, 62
1, 346426, Control_c, 0, 64, 30
1, 346439, Note_on_c, 0, 60, 51
1, 346462, Note_off_c, 0, 60, 38
1, 346470, Note_on_c, 0, 63, 58
1, 346494, Note_off_c, 0, 62, 59
1, 346504, Note_on_c, 0, 65, 74
1, 346515, Control_c, 0, 64, 30
1, 346540, Note_off_c, 0, 63, 63
1, 346553, Note_off_c, 0, 49, 62
1, 346574, Control_c, 0, 64, 30
1, 346586, Note_on_c, 0, 64, 84
1, 346589, Note_on_c, 0, 36, 78
1, 346591, Note_off_c, 0, 65, 65
1, 346604, Control_c, 0, 64, 20
1, 346619, Control_c, 0, 64, 0
1, 346622, Note_off_c, 0, 36, 66
1, 346654, Note_off_c, 0, 64, 54
1, 346673, Note_on_c, 0, 40, 90
1, 346677, Note_on_c, 0, 66, 79
1, 346684, Note_on_c, 0, 68, 69
1, 346712, Note_off_c, 0, 40, 64
1, 346726, Note_off_c, 0, 68, 56
1, 346735, Note_off_c, 0, 66, 60
1, 346755, Note_on_c, 0, 38, 80
1, 346785, Note_off_c, 0, 38, 67
1, 346836, Note_on_c, 0, 37, 93
1, 346855, Control_c, 0, 64, 48
1, 346861, Note_off_c, 0, 37, 67
1, 346870, Control_c, 0, 64, 57
1, 346872, Note_on_c, 0, 36, 47
1, 346873, Note_off_c, 0, 36, 127
1, 346877, Note_on_c, 0, 35, 40
1, 346878, Note_off_c, 0, 35, 127
1, 346885, Control_c, 0, 64, 61
1, 346900, Control_c, 0, 64, 67
1, 346915, Control_c, 0, 64, 73
1, 346926, Note_on_c, 0, 62, 79
1, 346929, Control_c, 0, 64, 86
1, 346944, Control_c, 0, 64, 108
1, 346959, Control_c, 0, 64, 127
1, 346960, Note_on_c, 0, 63, 61
1, 346962, Note_off_c, 0, 62, 60
1, 346999, Note_on_c, 0, 65, 73
1, 347001, Note_off_c, 0, 63, 58
1, 347075, Note_on_c, 0, 48, 95
1, 347085, Note_off_c, 0, 65, 63
1, 347085, Control_c, 0, 64, 96
1, 347087, Note_on_c, 0, 64, 89
1, 347100, Control_c, 0, 64, 69
1, 347107, Note_off_c, 0, 48, 63
1, 347115, Control_c, 0, 64, 48
1, 347129, Control_c, 0, 64, 0
1, 347142, Note_on_c, 0, 50, 2
1, 347143, Note_off_c, 0, 50, 127
1, 347159, Note_off_c, 0, 64, 48
1, 347162, Note_on_c, 0, 52, 89
1, 347172, Note_on_c, 0, 66, 84
1, 347176, Note_on_c, 0, 68, 80
1, 347206, Note_off_c, 0, 52, 65
1, 347233, Note_off_c, 0, 68, 61
1, 347242, Note_off_c, 0, 66, 52
1, 347243, Note_on_c, 0, 50, 94
1, 347272, Note_off_c, 0, 50, 68
1, 347317, Note_on_c, 0, 49, 102
1, 347351, Note_off_c, 0, 49, 67
1, 347410, Note_on_c, 0, 62, 75
1, 347412, Control_c, 0, 64, 11
1, 347427, Control_c, 0, 64, 17
1, 347442, Control_c, 0, 64, 21
1, 347448, Note_off_c, 0, 62, 61
1, 347457, Control_c, 0, 64, 22
1, 347469, Note_on_c, 0, 65, 67
1, 347484, Note_on_c, 0, 35, 88
1, 347510, Note_off_c, 0, 35, 67
1, 347550, Note_on_c, 0, 64, 73
1, 347552, Note_off_c, 0, 65, 63
1, 347610, Note_off_c, 0, 64, 64
1, 347619, Control_c, 0, 64, 23
1, 347636, Note_on_c, 0, 66, 96
1, 347636, Note_on_c, 0, 68, 94
1, 347642, Note_on_c, 0, 47, 107
1, 347669, Note_off_c, 0, 47, 68
1, 347740, Note_on_c, 0, 64, 80
1, 347745, Note_off_c, 0, 66, 61
1, 347753, Note_off_c, 0, 68, 60
1, 347819, Note_off_c, 0, 64, 53
1, 347826, Note_on_c, 0, 66, 91
1, 347827, Note_on_c, 0, 34, 95
1, 347828, Note_on_c, 0, 68, 87
1, 347868, Note_off_c, 0, 34, 59
1, 347937, Note_on_c, 0, 64, 73
1, 347937, Control_c, 0, 64, 23
1, 347938, Note_off_c, 0, 66, 61
1, 347939, Note_off_c, 0, 68, 60
1, 347967, Control_c, 0, 64, 24
1, 347982, Control_c, 0, 64, 25
1, 347984, Note_off_c, 0, 64, 56
1, 347997, Control_c, 0, 64, 26
1, 348012, Note_on_c, 0, 46, 96
1, 348013, Control_c, 0, 64, 26
1, 348014, Note_on_c, 0, 66, 81
1, 348020, Note_on_c, 0, 68, 70
1, 348068, Note_off_c, 0, 46, 61
1, 348111, Note_off_c, 0, 68, 58
1, 348116, Note_off_c, 0, 66, 60
1, 348125, Note_on_c, 0, 64, 57
1, 348174, Note_off_c, 0, 64, 56
1, 348223, Note_on_c, 0, 66, 60
1, 348223, Note_on_c, 0, 32, 57
1, 348229, Note_on_c, 0, 68, 61
1, 348294, Note_off_c, 0, 66, 61
1, 348295, Note_off_c, 0, 68, 57
1, 348334, Note_on_c, 0, 65, 59
1, 348380, Note_off_c, 0, 65, 61
1, 348412, Note_off_c, 0, 32, 23
1, 348596, Note_on_c, 0, 31, 42
1, 348641, Control_c, 0, 64, 25
1, 348656, Control_c, 0, 64, 25
1, 348715, Control_c, 0, 67, 13
1, 348730, Control_c, 0, 64, 30
1, 348730, Control_c, 0, 67, 38
1, 348745, Control_c, 0, 64, 38
1, 348745, Control_c, 0, 67, 72
1, 348759, Control_c, 0, 64, 45
1, 348759, Control_c, 0, 67, 105
1, 348774, Control_c, 0, 64, 50
1, 348774, Control_c, 0, 67, 127
1, 348789, Control_c, 0, 64, 53
1, 348805, Control_c, 0, 64, 57
1, 348820, Control_c, 0, 64, 59
1, 348835, Control_c, 0, 64, 62
1, 348849, Control_c, 0, 64, 64
1, 348864, Control_c, 0, 64, 66
1, 348879, Control_c, 0, 64, 68
1, 348894, Control_c, 0, 64, 71
1, 348896, Note_on_c, 0, 90, 33
1, 348909, Control_c, 0, 64, 74
1, 348923, Control_c, 0, 64, 77
1, 348938, Control_c, 0, 64, 81
1, 348951, Note_off_c, 0, 31, 61
1, 348953, Control_c, 0, 64, 83
1, 348968, Control_c, 0, 64, 84
1, 348983, Control_c, 0, 64, 85
1, 348998, Control_c, 0, 64, 87
1, 349013, Control_c, 0, 64, 88
1, 349027, Note_off_c, 0, 90, 51
1, 349028, Control_c, 0, 64, 90
1, 349043, Control_c, 0, 64, 90
1, 349046, Note_on_c, 0, 93, 50
1, 349057, Control_c, 0, 64, 91
1, 349072, Control_c, 0, 64, 91
1, 349087, Control_c, 0, 64, 92
1, 349117, Control_c, 0, 64, 92
1, 349131, Control_c, 0, 64, 93
1, 349177, Note_on_c, 0, 90, 54
1, 349190, Control_c, 0, 64, 93
1, 349192, Note_off_c, 0, 93, 37
1, 349205, Control_c, 0, 64, 94
1, 349220, Control_c, 0, 64, 94
1, 349236, Control_c, 0, 64, 95
1, 349250, Control_c, 0, 64, 95
1, 349257, Note_off_c, 0, 90, 63
1, 349265, Control_c, 0, 64, 97
1, 349280, Control_c, 0, 64, 98
1, 349285, Note_on_c, 0, 71, 48
1, 349302, Control_c, 0, 64, 99
1, 349309, Note_on_c, 0, 79, 52
1, 349317, Control_c, 0, 64, 101
1, 349332, Control_c, 0, 64, 102
1, 349347, Control_c, 0, 64, 103
1, 349362, Control_c, 0, 64, 104
1, 349368, Note_off_c, 0, 71, 44
1, 349376, Control_c, 0, 64, 105
1, 349391, Control_c, 0, 64, 105
1, 349394, Note_on_c, 0, 75, 48
1, 349396, Note_on_c, 0, 83, 45
1, 349406, Control_c, 0, 64, 106
1, 349421, Note_off_c, 0, 75, 60
1, 349421, Control_c, 0, 64, 107
1, 349436, Control_c, 0, 64, 108
1, 349450, Control_c, 0, 64, 108
1, 349465, Control_c, 0, 64, 109
1, 349480, Control_c, 0, 64, 110
1, 349496, Note_on_c, 0, 71, 50
1, 349498, Note_off_c, 0, 79, 33
1, 349535, Note_off_c, 0, 83, 57
1, 349539, Control_c, 0, 64, 110
1, 349558, Note_off_c, 0, 71, 44
1, 349571, Note_on_c, 0, 61, 58
1, 349588, Note_on_c, 0, 90, 52
1, 349614, Control_c, 0, 64, 111
1, 349654, Note_off_c, 0, 90, 61
1, 349658, Note_on_c, 0, 93, 69
1, 349659, Control_c, 0, 64, 111
1, 349668, Note_on_c, 0, 64, 41
1, 349673, Control_c, 0, 64, 112
1, 349688, Control_c, 0, 64, 114
1, 349703, Control_c, 0, 64, 121
1, 349709, Note_off_c, 0, 61, 36
1, 349709, Note_off_c, 0, 64, 62
1, 349718, Control_c, 0, 64, 127
1, 349724, Note_on_c, 0, 90, 58
1, 349730, Note_off_c, 0, 93, 49
1, 349739, Note_on_c, 0, 71, 49
1, 349785, Note_on_c, 0, 79, 59
1, 349827, Note_off_c, 0, 90, 60
1, 349834, Note_off_c, 0, 71, 61
1, 349849, Note_on_c, 0, 75, 46
1, 349849, Note_off_c, 0, 79, 63
1, 349856, Note_on_c, 0, 83, 64
1, 349886, Note_off_c, 0, 75, 46
1, 349923, Note_off_c, 0, 83, 62
1, 349928, Note_on_c, 0, 71, 52
1, 349966, Note_off_c, 0, 71, 63
1, 350012, Note_on_c, 0, 61, 52
1, 350038, Note_on_c, 0, 83, 57
1, 350114, Note_on_c, 0, 64, 43
1, 350128, Note_on_c, 0, 90, 51
1, 350143, Note_off_c, 0, 83, 55
1, 350178, Note_off_c, 0, 61, 31
1, 350250, Note_off_c, 0, 90, 58
1, 350303, Note_on_c, 0, 93, 47
1, 350316, Note_off_c, 0, 64, 36
1, 350383, Note_off_c, 0, 93, 60
1, 350400, Note_on_c, 0, 90, 46
1, 350402, Note_on_c, 0, 71, 44
1, 350468, Note_off_c, 0, 71, 52
1, 350495, Note_on_c, 0, 75, 51
1, 350523, Note_on_c, 0, 83, 39
1, 350550, Note_off_c, 0, 83, 54
1, 350555, Note_off_c, 0, 90, 36
1, 350560, Note_off_c, 0, 75, 53
1, 350569, Note_on_c, 0, 79, 58
1, 350576, Note_on_c, 0, 71, 47
1, 350602, Note_off_c, 0, 79, 65
1, 350619, Note_off_c, 0, 71, 57
1, 350625, Note_on_c, 0, 83, 68
1, 350665, Note_off_c, 0, 83, 55
1, 350670, Note_on_c, 0, 90, 59
1, 350693, Poly_aftertouch_c, 0, 64, 127
1, 350708, Note_off_c, 0, 90, 60
1, 350718, Note_on_c, 0, 61, 43
1, 350736, Note_on_c, 0, 93, 71
1, 350758, Note_off_c, 0, 61, 57
1, 350819, Poly_aftertouch_c, 0, 64, 0
1, 350819, Note_on_c, 0, 90, 45
1, 350824, Note_on_c, 0, 71, 52
1, 350829, Note_off_c, 0, 93, 51
1, 350861, Note_off_c, 0, 71, 64
1, 350863, Note_on_c, 0, 83, 60
1, 350869, Note_off_c, 0, 90, 57
1, 350891, Note_on_c, 0, 84, 14
1, 350894, Note_on_c, 0, 75, 48
1, 350897, Note_off_c, 0, 83, 66
1, 350909, Note_on_c, 0, 79, 71
1, 350925, Note_off_c, 0, 75, 52
1, 350930, Note_off_c, 0, 84, 38
1, 350939, Note_on_c, 0, 71, 66
1, 350960, Note_off_c, 0, 79, 63
1, 350987, Note_on_c, 0, 83, 51
1, 350991, Note_off_c, 0, 71, 56
1, 351003, Note_on_c, 0, 90, 71
1, 351008, Note_off_c, 0, 83, 59
1, 351010, Note_on_c, 0, 64, 45
1, 351034, Note_off_c, 0, 64, 60
1, 351046, Note_off_c, 0, 90, 61
1, 351060, Note_on_c, 0, 61, 57
1, 351070, Note_on_c, 0, 93, 78
1, 351124, Note_on_c, 0, 64, 49
1, 351126, Note_off_c, 0, 61, 59
1, 351144, Note_on_c, 0, 90, 64
1, 351149, Note_on_c, 0, 71, 67
1, 351164, Note_off_c, 0, 64, 56
1, 351173, Note_off_c, 0, 93, 55
1, 351195, Note_on_c, 0, 83, 63
1, 351202, Note_on_c, 0, 84, 60
1, 351219, Note_off_c, 0, 71, 61
1, 351219, Note_off_c, 0, 84, 65
1, 351219, Note_off_c, 0, 90, 63
1, 351249, Note_off_c, 0, 83, 65
1, 351262, Note_on_c, 0, 75, 37
1, 351262, Note_on_c, 0, 79, 67
1, 351285, Note_on_c, 0, 71, 53
1, 351290, Note_off_c, 0, 75, 54
1, 351302, Note_off_c, 0, 79, 62
1, 351311, Note_on_c, 0, 83, 54
1, 351330, Note_off_c, 0, 71, 57
1, 351350, Note_on_c, 0, 90, 66
1, 351350, Note_on_c, 0, 64, 48
1, 351356, Note_off_c, 0, 83, 60
1, 351384, Note_off_c, 0, 64, 64
1, 351408, Note_off_c, 0, 90, 48
1, 351427, Note_on_c, 0, 61, 35
1, 351429, Note_on_c, 0, 93, 69
1, 351454, Note_off_c, 0, 61, 54
1, 351483, Note_off_c, 0, 93, 55
1, 351493, Note_on_c, 0, 90, 48
1, 351504, Note_on_c, 0, 71, 61
1, 351534, Note_on_c, 0, 83, 70
1, 351549, Note_off_c, 0, 71, 61
1, 351553, Note_off_c, 0, 90, 61
1, 351602, Note_off_c, 0, 83, 63
1, 351603, Note_on_c, 0, 75, 41
1, 351626, Note_on_c, 0, 79, 55
1, 351629, Note_off_c, 0, 75, 50
1, 351643, Note_on_c, 0, 71, 50
1, 351669, Note_off_c, 0, 79, 63
1, 351684, Note_off_c, 0, 71, 57
1, 351690, Note_on_c, 0, 83, 40
1, 351705, Note_on_c, 0, 64, 34
1, 351720, Note_off_c, 0, 83, 55
1, 351731, Note_on_c, 0, 90, 59
1, 351746, Note_off_c, 0, 64, 53
1, 351773, Note_on_c, 0, 61, 43
1, 351788, Note_off_c, 0, 90, 57
1, 351812, Note_on_c, 0, 93, 59
1, 351821, Note_off_c, 0, 61, 51
1, 351857, Note_off_c, 0, 93, 49
1, 351895, Note_on_c, 0, 90, 49
1, 351895, Note_on_c, 0, 71, 54
1, 351938, Note_off_c, 0, 71, 58
1, 351966, Note_on_c, 0, 83, 57
1, 351973, Note_off_c, 0, 90, 52
1, 351977, Note_on_c, 0, 75, 51
1, 352024, Note_off_c, 0, 83, 64
1, 352027, Note_off_c, 0, 75, 62
1, 352046, Note_on_c, 0, 71, 57
1, 352066, Note_on_c, 0, 79, 45
1, 352105, Note_off_c, 0, 79, 63
1, 352134, Note_off_c, 0, 71, 55
1, 352137, Note_on_c, 0, 83, 51
1, 352142, Note_on_c, 0, 64, 41
1, 352185, Note_off_c, 0, 83, 59
1, 352205, Note_on_c, 0, 90, 52
1, 352283, Note_off_c, 0, 64, 32
1, 352372, Control_c, 0, 64, 116
1, 352387, Control_c, 0, 64, 107
1, 352401, Control_c, 0, 64, 99
1, 352416, Note_off_c, 0, 90, 60
1, 352416, Control_c, 0, 64, 87
1, 352420, Note_on_c, 0, 61, 43
1, 352430, Note_on_c, 0, 93, 56
1, 352431, Control_c, 0, 64, 72
1, 352446, Control_c, 0, 64, 62
1, 352461, Control_c, 0, 64, 38
1, 352475, Control_c, 0, 64, 0
1, 352520, Control_c, 0, 64, 22
1, 352535, Control_c, 0, 64, 40
1, 352549, Control_c, 0, 64, 51
1, 352564, Control_c, 0, 64, 57
1, 352566, Note_off_c, 0, 93, 59
1, 352569, Note_on_c, 0, 64, 39
1, 352579, Control_c, 0, 64, 60
1, 352593, Control_c, 0, 64, 63
1, 352606, Note_off_c, 0, 61, 50
1, 352608, Control_c, 0, 64, 67
1, 352623, Control_c, 0, 64, 72
1, 352629, Note_on_c, 0, 67, 50
1, 352638, Control_c, 0, 64, 81
1, 352653, Control_c, 0, 64, 95
1, 352667, Control_c, 0, 64, 127
1, 352679, Note_off_c, 0, 64, 38
1, 352691, Note_on_c, 0, 71, 53
1, 352721, Note_off_c, 0, 67, 59
1, 352729, Note_off_c, 0, 71, 65
1, 352745, Note_on_c, 0, 75, 43
1, 352771, Note_on_c, 0, 79, 54
1, 352781, Note_off_c, 0, 75, 59
1, 352818, Note_off_c, 0, 79, 61
1, 352828, Note_on_c, 0, 83, 45
1, 352852, Note_off_c, 0, 83, 59
1, 352856, Note_on_c, 0, 87, 49
1, 352890, Note_on_c, 0, 90, 37
1, 352894, Note_off_c, 0, 87, 65
1, 352896, Note_on_c, 0, 93, 45
1, 352917, Note_off_c, 0, 90, 47
1, 352918, Note_off_c, 0, 93, 61
1, 352942, Note_on_c, 0, 79, 47
1, 352966, Note_off_c, 0, 79, 58
1, 353000, Note_on_c, 0, 83, 17
1, 353034, Note_off_c, 0, 83, 46
1, 353044, Note_on_c, 0, 87, 53
1, 353093, Note_off_c, 0, 87, 58
1, 353124, Note_on_c, 0, 90, 50
1, 353141, Note_on_c, 0, 91, 47
1, 353154, Note_off_c, 0, 90, 64
1, 353192, Note_on_c, 0, 95, 48
1, 353231, Note_off_c, 0, 91, 50
1, 353251, Note_on_c, 0, 99, 49
1, 353341, Note_on_c, 0, 102, 31
1, 353387, Note_on_c, 0, 103, 40
1, 353411, Note_off_c, 0, 99, 54
1, 353530, Note_off_c, 0, 95, 40
1, 353535, Control_c, 0, 64, 123
1, 353550, Control_c, 0, 64, 108
1, 353565, Control_c, 0, 64, 103
1, 353580, Control_c, 0, 64, 100
1, 353595, Control_c, 0, 64, 97
1, 353610, Control_c, 0, 64, 95
1, 353625, Control_c, 0, 64, 92
1, 353639, Control_c, 0, 64, 89
1, 353640, Note_off_c, 0, 102, 31
1, 353654, Control_c, 0, 64, 85
1, 353662, Note_on_c, 0, 107, 46
1, 353669, Control_c, 0, 64, 81
1, 353681, Note_on_c, 0, 91, 33
1, 353682, Note_on_c, 0, 98, 45
1, 353684, Control_c, 0, 64, 77
1, 353699, Control_c, 0, 64, 73
1, 353714, Control_c, 0, 64, 68
1, 353722, Note_off_c, 0, 98, 56
1, 353729, Control_c, 0, 64, 65
1, 353732, Note_off_c, 0, 91, 44
1, 353744, Control_c, 0, 64, 63
1, 353744, Note_off_c, 0, 107, 54
1, 353758, Control_c, 0, 64, 60
1, 353773, Note_off_c, 0, 103, 42
1, 353773, Control_c, 0, 64, 56
1, 353795, Control_c, 0, 64, 53
1, 353810, Control_c, 0, 64, 50
1, 353825, Control_c, 0, 64, 48
1, 353840, Control_c, 0, 64, 46
1, 353854, Control_c, 0, 64, 44
1, 353869, Control_c, 0, 64, 43
1, 354181, Control_c, 0, 64, 44
1, 354239, Control_c, 0, 64, 44
1, 354328, Control_c, 0, 64, 45
1, 354343, Control_c, 0, 64, 45
1, 354373, Control_c, 0, 64, 46
1, 354389, Control_c, 0, 64, 46
1, 354404, Control_c, 0, 64, 47
1, 354418, Control_c, 0, 64, 47
1, 354433, Control_c, 0, 64, 48
1, 354448, Control_c, 0, 64, 48
1, 354462, Control_c, 0, 64, 49
1, 354477, Control_c, 0, 64, 49
1, 354492, Control_c, 0, 64, 50
1, 354573, Control_c, 0, 64, 50
1, 354617, Control_c, 0, 64, 51
1, 354662, Control_c, 0, 64, 51
1, 354736, Control_c, 0, 64, 52
1, 354795, Control_c, 0, 64, 52
1, 354840, Control_c, 0, 64, 53
1, 354884, Control_c, 0, 64, 53
1, 354914, Control_c, 0, 64, 54
1, 354973, Control_c, 0, 64, 54
1, 355017, Control_c, 0, 64, 55
1, 355091, Control_c, 0, 64, 55
1, 355225, Control_c, 0, 64, 56
1, 355306, Control_c, 0, 64, 56
1, 355365, Control_c, 0, 64, 57
1, 355395, Control_c, 0, 64, 57
1, 355425, Control_c, 0, 64, 58
1, 355632, Control_c, 0, 64, 58
1, 355647, Control_c, 0, 64, 59
1, 355662, Control_c, 0, 64, 59
1, 355677, Control_c, 0, 64, 60
1, 355691, Control_c, 0, 64, 60
1, 355706, Control_c, 0, 64, 61
1, 355721, Control_c, 0, 64, 61
1, 355736, Control_c, 0, 64, 62
1, 355751, Control_c, 0, 64, 62
1, 355765, Control_c, 0, 64, 63
1, 355780, Control_c, 0, 64, 63
1, 355795, Control_c, 0, 64, 64
1, 355809, Control_c, 0, 64, 64
1, 355824, Control_c, 0, 64, 65
1, 355839, Control_c, 0, 64, 65
1, 355869, Control_c, 0, 64, 66
1, 355884, Control_c, 0, 64, 66
1, 355899, Control_c, 0, 64, 67
1, 355914, Control_c, 0, 64, 67
1, 355929, Control_c, 0, 64, 68
1, 355943, Control_c, 0, 64, 69
1, 355958, Control_c, 0, 64, 70
1, 355973, Control_c, 0, 64, 71
1, 355988, Control_c, 0, 64, 72
1, 356003, Control_c, 0, 64, 73
1, 356018, Control_c, 0, 64, 74
1, 356040, Control_c, 0, 64, 75
1, 356055, Control_c, 0, 64, 77
1, 356070, Control_c, 0, 64, 78
1, 356085, Control_c, 0, 64, 81
1, 356100, Control_c, 0, 64, 86
1, 356114, Control_c, 0, 64, 94
1, 356129, Control_c, 0, 64, 127
1, 357303, Note_on_c, 0, 55, 40
1, 357305, Note_on_c, 0, 47, 37
1, 357442, Control_c, 0, 67, 118
1, 357456, Control_c, 0, 67, 93
1, 357471, Control_c, 0, 67, 63
1, 357486, Control_c, 0, 67, 39
1, 357501, Control_c, 0, 67, 16
1, 357516, Control_c, 0, 67, 0
1, 358364, Note_on_c, 0, 70, 54
1, 358369, Note_on_c, 0, 63, 47
1, 358751, Note_off_c, 0, 47, 30
1, 358879, Note_off_c, 0, 55, 55
1, 359276, Note_on_c, 0, 62, 49
1, 359285, Note_on_c, 0, 54, 46
1, 359872, Note_off_c, 0, 62, 35
1, 360185, Note_on_c, 0, 56, 52
1, 360205, Note_on_c, 0, 48, 44
1, 360244, Control_c, 0, 64, 104
1, 360259, Control_c, 0, 64, 91
1, 360274, Note_off_c, 0, 63, 32
1, 360274, Control_c, 0, 64, 84
1, 360288, Control_c, 0, 64, 79
1, 360303, Control_c, 0, 64, 75
1, 360318, Control_c, 0, 64, 72
1, 360333, Control_c, 0, 64, 70
1, 360348, Control_c, 0, 64, 68
1, 360362, Control_c, 0, 64, 68
1, 360377, Control_c, 0, 64, 67
1, 360392, Control_c, 0, 64, 67
1, 360407, Control_c, 0, 64, 66
1, 360422, Control_c, 0, 64, 65
1, 360431, Note_off_c, 0, 54, 58
1, 360436, Control_c, 0, 64, 64
1, 360451, Control_c, 0, 64, 63
1, 360467, Control_c, 0, 64, 62
1, 360481, Control_c, 0, 64, 62
1, 360496, Control_c, 0, 64, 61
1, 360511, Control_c, 0, 64, 60
1, 360534, Control_c, 0, 64, 59
1, 360549, Control_c, 0, 64, 58
1, 360563, Control_c, 0, 64, 56
1, 360578, Control_c, 0, 64, 53
1, 360593, Control_c, 0, 64, 49
1, 360607, Control_c, 0, 64, 44
1, 360622, Control_c, 0, 64, 39
1, 360637, Control_c, 0, 64, 37
1, 360652, Control_c, 0, 64, 36
1, 360726, Control_c, 0, 64, 38
1, 360730, Note_off_c, 0, 70, 37
1, 360741, Control_c, 0, 64, 40
1, 360755, Control_c, 0, 64, 44
1, 360770, Control_c, 0, 64, 48
1, 360786, Control_c, 0, 64, 52
1, 360801, Control_c, 0, 64, 55
1, 360816, Control_c, 0, 64, 57
1, 360831, Control_c, 0, 64, 59
1, 360846, Control_c, 0, 64, 61
1, 360860, Control_c, 0, 64, 62
1, 360875, Control_c, 0, 64, 63
1, 360890, Control_c, 0, 64, 64
1, 360904, Control_c, 0, 64, 66
1, 360919, Control_c, 0, 64, 68
1, 360934, Control_c, 0, 64, 70
1, 360949, Control_c, 0, 64, 73
1, 360964, Control_c, 0, 64, 77
1, 360978, Control_c, 0, 64, 81
1, 360993, Control_c, 0, 64, 87
1, 361008, Control_c, 0, 64, 92
1, 361011, Note_on_c, 0, 69, 55
1, 361022, Note_on_c, 0, 64, 45
1, 361023, Control_c, 0, 64, 97
1, 361038, Control_c, 0, 64, 104
1, 361053, Control_c, 0, 64, 114
1, 361068, Control_c, 0, 64, 127
1, 361313, Note_off_c, 0, 48, 34
1, 361330, Note_off_c, 0, 56, 54
1, 361813, Note_on_c, 0, 53, 38
1, 361826, Note_on_c, 0, 61, 44
1, 362024, Control_c, 0, 67, 12
1, 362046, Control_c, 0, 67, 38
1, 362060, Control_c, 0, 67, 65
1, 362075, Control_c, 0, 67, 95
1, 362090, Control_c, 0, 67, 119
1, 362105, Control_c, 0, 67, 127
1, 362117, Note_off_c, 0, 61, 36
1, 362311, Note_off_c, 0, 53, 41
1, 362324, Note_off_c, 0, 64, 18
1, 362681, Note_off_c, 0, 69, 32
1, 362698, Control_c, 0, 64, 121
1, 362713, Control_c, 0, 64, 108
1, 362728, Control_c, 0, 64, 101
1, 362740, Note_on_c, 0, 55, 41
1, 362743, Control_c, 0, 64, 94
1, 362745, Note_on_c, 0, 47, 39
1, 362758, Control_c, 0, 64, 88
1, 362780, Control_c, 0, 64, 83
1, 362795, Control_c, 0, 64, 79
1, 362810, Control_c, 0, 64, 76
1, 362825, Control_c, 0, 64, 72
1, 362839, Control_c, 0, 64, 68
1, 362854, Control_c, 0, 64, 63
1, 362869, Control_c, 0, 64, 57
1, 362883, Control_c, 0, 64, 54
1, 362898, Control_c, 0, 64, 53
1, 362913, Control_c, 0, 64, 51
1, 362928, Control_c, 0, 64, 50
1, 362943, Control_c, 0, 64, 48
1, 362958, Control_c, 0, 64, 47
1, 362972, Control_c, 0, 64, 47
1, 363047, Control_c, 0, 64, 47
1, 363062, Control_c, 0, 64, 48
1, 363076, Control_c, 0, 64, 48
1, 363091, Control_c, 0, 64, 49
1, 363106, Control_c, 0, 64, 50
1, 363121, Control_c, 0, 64, 52
1, 363136, Control_c, 0, 64, 54
1, 363150, Control_c, 0, 64, 56
1, 363165, Control_c, 0, 64, 57
1, 363181, Control_c, 0, 64, 59
1, 363196, Control_c, 0, 64, 60
1, 363211, Control_c, 0, 64, 61
1, 363226, Control_c, 0, 64, 62
1, 363241, Control_c, 0, 64, 63
1, 363255, Control_c, 0, 64, 64
1, 363270, Control_c, 0, 64, 64
1, 363285, Control_c, 0, 64, 65
1, 363299, Control_c, 0, 64, 67
1, 363314, Control_c, 0, 64, 68
1, 363329, Control_c, 0, 64, 71
1, 363344, Control_c, 0, 64, 73
1, 363359, Control_c, 0, 64, 76
1, 363373, Control_c, 0, 64, 78
1, 363388, Control_c, 0, 64, 81
1, 363403, Control_c, 0, 64, 83
1, 363418, Control_c, 0, 64, 85
1, 363433, Control_c, 0, 64, 86
1, 363447, Control_c, 0, 64, 87
1, 363461, Control_c, 0, 64, 87
1, 363476, Control_c, 0, 64, 88
1, 363491, Control_c, 0, 64, 89
1, 363506, Control_c, 0, 64, 90
1, 363602, Control_c, 0, 64, 90
1, 363625, Note_on_c, 0, 70, 47
1, 363636, Note_on_c, 0, 63, 36
1, 363646, Control_c, 0, 64, 91
1, 363661, Control_c, 0, 64, 92
1, 363676, Control_c, 0, 64, 92
1, 363691, Control_c, 0, 64, 93
1, 363706, Control_c, 0, 64, 93
1, 363825, Control_c, 0, 64, 94
1, 363899, Control_c, 0, 64, 94
1, 363928, Control_c, 0, 64, 95
1, 363943, Control_c, 0, 64, 95
1, 364022, Note_off_c, 0, 47, 33
1, 364051, Note_off_c, 0, 55, 40
1, 364469, Note_on_c, 0, 54, 36
1, 364471, Note_on_c, 0, 62, 40
1, 364737, Control_c, 0, 64, 96
1, 364812, Control_c, 0, 64, 96
1, 364901, Control_c, 0, 64, 97
1, 364974, Control_c, 0, 64, 97
1, 365004, Control_c, 0, 64, 98
1, 365141, Note_off_c, 0, 62, 40
1, 365277, Control_c, 0, 64, 97
1, 365292, Control_c, 0, 64, 97
1, 365307, Control_c, 0, 64, 96
1, 365322, Control_c, 0, 64, 95
1, 365337, Control_c, 0, 64, 94
1, 365351, Control_c, 0, 64, 92
1, 365359, Note_on_c, 0, 48, 37
1, 365366, Note_on_c, 0, 56, 40
1, 365366, Control_c, 0, 64, 89
1, 365381, Control_c, 0, 64, 86
1, 365396, Control_c, 0, 64, 82
1, 365411, Control_c, 0, 64, 78
1, 365426, Control_c, 0, 64, 74
1, 365441, Control_c, 0, 64, 71
1, 365456, Control_c, 0, 64, 68
1, 365470, Control_c, 0, 64, 66
1, 365482, Note_off_c, 0, 63, 28
1, 365485, Control_c, 0, 64, 65
1, 365500, Control_c, 0, 64, 64
1, 365515, Control_c, 0, 64, 64
1, 365530, Control_c, 0, 64, 63
1, 365544, Control_c, 0, 64, 63
1, 365559, Control_c, 0, 64, 62
1, 365575, Control_c, 0, 64, 62
1, 365590, Control_c, 0, 64, 61
1, 365602, Note_off_c, 0, 54, 42
1, 365605, Control_c, 0, 64, 61
1, 365619, Control_c, 0, 64, 60
1, 365634, Control_c, 0, 64, 60
1, 365649, Control_c, 0, 64, 59
1, 365664, Control_c, 0, 64, 58
1, 365679, Control_c, 0, 64, 57
1, 365693, Control_c, 0, 64, 56
1, 365707, Control_c, 0, 64, 55
1, 365722, Control_c, 0, 64, 54
1, 365737, Control_c, 0, 64, 53
1, 365752, Control_c, 0, 64, 52
1, 365774, Control_c, 0, 64, 51
1, 365789, Control_c, 0, 64, 50
1, 365804, Control_c, 0, 64, 49
1, 365853, Note_off_c, 0, 70, 30
1, 365893, Control_c, 0, 64, 50
1, 365907, Control_c, 0, 64, 50
1, 365922, Control_c, 0, 64, 52
1, 365937, Control_c, 0, 64, 54
1, 365952, Control_c, 0, 64, 55
1, 365967, Control_c, 0, 64, 57
1, 365981, Control_c, 0, 64, 59
1, 365996, Control_c, 0, 64, 60
1, 366011, Control_c, 0, 64, 61
1, 366026, Control_c, 0, 64, 62
1, 366041, Control_c, 0, 64, 63
1, 366055, Control_c, 0, 64, 64
1, 366070, Control_c, 0, 64, 65
1, 366085, Control_c, 0, 64, 65
1, 366099, Control_c, 0, 64, 66
1, 366114, Control_c, 0, 64, 67
1, 366129, Control_c, 0, 64, 68
1, 366144, Control_c, 0, 64, 69
1, 366159, Control_c, 0, 64, 70
1, 366174, Control_c, 0, 64, 71
1, 366189, Control_c, 0, 64, 72
1, 366204, Control_c, 0, 64, 74
1, 366213, Note_on_c, 0, 69, 43
1, 366219, Control_c, 0, 64, 75
1, 366228, Note_on_c, 0, 64, 41
1, 366234, Control_c, 0, 64, 76
1, 366248, Control_c, 0, 64, 78
1, 366263, Control_c, 0, 64, 81
1, 366278, Control_c, 0, 64, 83
1, 366292, Control_c, 0, 64, 85
1, 366307, Control_c, 0, 64, 87
1, 366322, Control_c, 0, 64, 90
1, 366337, Control_c, 0, 64, 94
1, 366352, Control_c, 0, 64, 98
1, 366368, Control_c, 0, 64, 103
1, 366383, Control_c, 0, 64, 108
1, 366397, Control_c, 0, 64, 115
1, 366412, Control_c, 0, 64, 123
1, 366427, Control_c, 0, 64, 127
1, 366576, Note_off_c, 0, 48, 39
1, 366611, Note_off_c, 0, 56, 35
1, 367069, Note_on_c, 0, 61, 41
1, 367074, Note_on_c, 0, 53, 41
1, 367253, Note_off_c, 0, 64, 33
1, 367326, Note_off_c, 0, 69, 48
1, 367411, Note_off_c, 0, 61, 62
1, 367686, Note_off_c, 0, 53, 42
1, 368065, Control_c, 0, 64, 111
1, 368080, Control_c, 0, 64, 101
1, 368095, Control_c, 0, 64, 95
1, 368106, Note_on_c, 0, 47, 44
1, 368110, Control_c, 0, 64, 90
1, 368124, Control_c, 0, 64, 87
1, 368139, Control_c, 0, 64, 84
1, 368154, Control_c, 0, 64, 83
1, 368168, Control_c, 0, 64, 82
1, 368183, Control_c, 0, 64, 80
1, 368198, Control_c, 0, 64, 77
1, 368213, Control_c, 0, 64, 71
1, 368228, Control_c, 0, 64, 65
1, 368243, Control_c, 0, 64, 60
1, 368258, Control_c, 0, 64, 56
1, 368272, Control_c, 0, 64, 57
1, 368287, Control_c, 0, 64, 57
1, 368302, Control_c, 0, 64, 58
1, 368317, Control_c, 0, 64, 59
1, 368332, Control_c, 0, 64, 60
1, 368347, Control_c, 0, 64, 62
1, 368362, Control_c, 0, 64, 64
1, 368376, Control_c, 0, 64, 65
1, 368391, Control_c, 0, 64, 67
1, 368406, Control_c, 0, 64, 69
1, 368421, Control_c, 0, 64, 72
1, 368436, Control_c, 0, 64, 76
1, 368436, Control_c, 0, 67, 120
1, 368450, Control_c, 0, 64, 81
1, 368450, Control_c, 0, 67, 103
1, 368465, Control_c, 0, 64, 87
1, 368465, Control_c, 0, 67, 83
1, 368480, Control_c, 0, 64, 95
1, 368480, Control_c, 0, 67, 66
1, 368494, Control_c, 0, 64, 110
1, 368494, Control_c, 0, 67, 50
1, 368509, Control_c, 0, 64, 127
1, 368509, Control_c, 0, 67, 34
1, 368524, Control_c, 0, 67, 19
1, 368539, Control_c, 0, 67, 0
1, 368713, Note_on_c, 0, 71, 65
1, 369171, Note_on_c, 0, 55, 35
1, 369525, Note_off_c, 0, 55, 41
1, 369540, Note_off_c, 0, 47, 36
1, 370103, Note_on_c, 0, 63, 40
1, 370571, Note_on_c, 0, 72, 60
1, 370742, Note_on_c, 0, 74, 81
1, 370866, Note_off_c, 0, 72, 55
1, 370893, Note_off_c, 0, 71, 29
1, 371003, Note_on_c, 0, 70, 46
1, 371030, Control_c, 0, 64, 115
1, 371045, Control_c, 0, 64, 100
1, 371060, Control_c, 0, 64, 89
1, 371061, Note_on_c, 0, 75, 82
1, 371075, Control_c, 0, 64, 82
1, 371089, Control_c, 0, 64, 77
1, 371104, Control_c, 0, 64, 73
1, 371119, Control_c, 0, 64, 70
1, 371134, Control_c, 0, 64, 68
1, 371149, Control_c, 0, 64, 65
1, 371164, Control_c, 0, 64, 62
1, 371170, Note_off_c, 0, 63, 32
1, 371179, Control_c, 0, 64, 60
1, 371183, Note_off_c, 0, 74, 61
1, 371194, Control_c, 0, 64, 58
1, 371209, Control_c, 0, 64, 55
1, 371224, Control_c, 0, 64, 51
1, 371238, Control_c, 0, 64, 45
1, 371253, Control_c, 0, 64, 39
1, 371268, Control_c, 0, 64, 32
1, 371283, Control_c, 0, 64, 27
1, 371283, Control_c, 0, 67, 13
1, 371298, Control_c, 0, 64, 25
1, 371298, Control_c, 0, 67, 18
1, 371313, Control_c, 0, 64, 24
1, 371313, Control_c, 0, 67, 21
1, 371328, Control_c, 0, 67, 24
1, 371342, Control_c, 0, 67, 27
1, 371357, Control_c, 0, 64, 24
1, 371357, Control_c, 0, 67, 30
1, 371372, Control_c, 0, 64, 27
1, 371372, Control_c, 0, 67, 35
1, 371386, Control_c, 0, 64, 32
1, 371386, Control_c, 0, 67, 41
1, 371401, Control_c, 0, 64, 39
1, 371401, Control_c, 0, 67, 46
1, 371416, Control_c, 0, 64, 47
1, 371416, Control_c, 0, 67, 52
1, 371431, Control_c, 0, 64, 52
1, 371431, Control_c, 0, 67, 58
1, 371446, Control_c, 0, 64, 56
1, 371446, Control_c, 0, 67, 65
1, 371460, Control_c, 0, 64, 58
1, 371460, Control_c, 0, 67, 72
1, 371475, Control_c, 0, 64, 61
1, 371475, Control_c, 0, 67, 83
1, 371490, Control_c, 0, 64, 62
1, 371490, Control_c, 0, 67, 92
1, 371505, Control_c, 0, 64, 63
1, 371505, Control_c, 0, 67, 102
1, 371519, Control_c, 0, 64, 65
1, 371519, Control_c, 0, 67, 110
1, 371534, Control_c, 0, 64, 67
1, 371534, Control_c, 0, 67, 117
1, 371549, Control_c, 0, 64, 69
1, 371549, Control_c, 0, 67, 125
1, 371564, Control_c, 0, 64, 71
1, 371564, Control_c, 0, 67, 127
1, 371579, Control_c, 0, 64, 73
1, 371593, Note_on_c, 0, 74, 54
1, 371593, Control_c, 0, 64, 75
1, 371608, Control_c, 0, 64, 77
1, 371623, Control_c, 0, 64, 78
1, 371638, Control_c, 0, 64, 79
1, 371763, Note_on_c, 0, 72, 64
1, 371764, Control_c, 0, 64, 78
1, 371766, Note_off_c, 0, 70, 32
1, 371808, Control_c, 0, 64, 78
1, 371823, Control_c, 0, 64, 77
1, 371838, Control_c, 0, 64, 77
1, 371841, Note_off_c, 0, 74, 53
1, 371853, Control_c, 0, 64, 76
1, 371867, Control_c, 0, 64, 75
1, 371882, Control_c, 0, 64, 75
1, 371897, Control_c, 0, 64, 74
1, 371912, Control_c, 0, 64, 73
1, 371927, Control_c, 0, 64, 72
1, 371942, Control_c, 0, 64, 71
1, 371957, Control_c, 0, 64, 69
1, 371967, Note_on_c, 0, 71, 50
1, 371972, Note_on_c, 0, 62, 34
1, 371972, Control_c, 0, 64, 67
1, 371987, Control_c, 0, 64, 65
1, 371990, Note_off_c, 0, 75, 18
1, 372002, Control_c, 0, 64, 63
1, 372016, Control_c, 0, 64, 62
1, 372031, Control_c, 0, 64, 60
1, 372046, Control_c, 0, 64, 59
1, 372052, Note_off_c, 0, 72, 61
1, 372061, Control_c, 0, 64, 59
1, 372076, Control_c, 0, 64, 57
1, 372091, Control_c, 0, 64, 57
1, 372106, Control_c, 0, 64, 56
1, 372121, Control_c, 0, 64, 55
1, 372136, Control_c, 0, 64, 54
1, 372150, Control_c, 0, 64, 54
1, 372165, Control_c, 0, 64, 53
1, 372180, Control_c, 0, 64, 52
1, 372195, Control_c, 0, 64, 52
1, 372209, Control_c, 0, 64, 51
1, 372224, Control_c, 0, 64, 51
1, 372239, Control_c, 0, 64, 50
1, 372254, Control_c, 0, 64, 50
1, 372269, Control_c, 0, 64, 49
1, 372298, Control_c, 0, 64, 49
1, 372342, Control_c, 0, 64, 48
1, 372435, Note_on_c, 0, 70, 44
1, 372514, Control_c, 0, 64, 48
1, 372531, Note_off_c, 0, 71, 56
1, 372721, Control_c, 0, 64, 49
1, 372735, Control_c, 0, 64, 49
1, 372750, Control_c, 0, 64, 50
1, 372766, Control_c, 0, 64, 51
1, 372781, Control_c, 0, 64, 52
1, 372796, Control_c, 0, 64, 53
1, 372811, Control_c, 0, 64, 55
1, 372826, Control_c, 0, 64, 58
1, 372840, Control_c, 0, 64, 59
1, 372855, Control_c, 0, 64, 60
1, 372870, Control_c, 0, 64, 62
1, 372885, Control_c, 0, 64, 63
1, 372900, Control_c, 0, 64, 64
1, 372914, Control_c, 0, 64, 65
1, 372929, Control_c, 0, 64, 67
1, 372936, Note_on_c, 0, 54, 35
1, 372944, Control_c, 0, 64, 70
1, 372958, Control_c, 0, 64, 73
1, 372962, Note_off_c, 0, 70, 36
1, 372973, Control_c, 0, 64, 78
1, 372988, Control_c, 0, 64, 85
1, 373003, Control_c, 0, 64, 93
1, 373018, Control_c, 0, 64, 109
1, 373018, Control_c, 0, 67, 121
1, 373033, Control_c, 0, 64, 127
1, 373033, Control_c, 0, 67, 108
1, 373048, Control_c, 0, 67, 94
1, 373063, Control_c, 0, 67, 80
1, 373078, Control_c, 0, 67, 65
1, 373093, Control_c, 0, 67, 53
1, 373108, Control_c, 0, 67, 42
1, 373122, Control_c, 0, 67, 33
1, 373137, Control_c, 0, 67, 25
1, 373138, Note_off_c, 0, 62, 36
1, 373152, Control_c, 0, 67, 18
1, 373153, Note_on_c, 0, 70, 64
1, 373166, Control_c, 0, 67, 9
1, 373181, Control_c, 0, 67, 0
1, 373185, Note_off_c, 0, 54, 54
1, 373301, Note_off_c, 0, 70, 59
1, 373361, Note_on_c, 0, 70, 71
1, 373532, Note_on_c, 0, 73, 88
1, 373661, Note_off_c, 0, 70, 61
1, 373802, Note_on_c, 0, 77, 80
1, 373834, Note_on_c, 0, 69, 49
1, 373836, Note_on_c, 0, 48, 43
1, 373841, Control_c, 0, 64, 97
1, 373856, Control_c, 0, 64, 81
1, 373871, Control_c, 0, 64, 72
1, 373886, Control_c, 0, 64, 65
1, 373886, Note_off_c, 0, 73, 62
1, 373900, Control_c, 0, 64, 60
1, 373915, Control_c, 0, 64, 57
1, 373930, Control_c, 0, 64, 55
1, 373944, Control_c, 0, 64, 54
1, 373959, Control_c, 0, 64, 52
1, 373974, Control_c, 0, 64, 49
1, 373988, Control_c, 0, 64, 46
1, 374003, Control_c, 0, 64, 41
1, 374026, Control_c, 0, 64, 34
1, 374041, Control_c, 0, 64, 25
1, 374055, Control_c, 0, 64, 17
1, 374070, Control_c, 0, 64, 11
1, 374085, Control_c, 0, 64, 0
1, 374203, Control_c, 0, 64, 11
1, 374207, Note_on_c, 0, 76, 77
1, 374218, Control_c, 0, 64, 27
1, 374233, Control_c, 0, 64, 40
1, 374248, Control_c, 0, 64, 52
1, 374262, Control_c, 0, 64, 57
1, 374277, Control_c, 0, 64, 61
1, 374291, Note_off_c, 0, 77, 58
1, 374292, Control_c, 0, 64, 63
1, 374307, Control_c, 0, 64, 65
1, 374321, Control_c, 0, 64, 70
1, 374336, Control_c, 0, 64, 77
1, 374351, Control_c, 0, 64, 89
1, 374367, Control_c, 0, 64, 113
1, 374382, Control_c, 0, 64, 127
1, 374402, Note_off_c, 0, 76, 59
1, 374423, Note_off_c, 0, 69, 61
1, 374622, Note_on_c, 0, 76, 67
1, 374647, Note_on_c, 0, 56, 39
1, 374649, Control_c, 0, 64, 99
1, 374655, Note_on_c, 0, 68, 48
1, 374664, Control_c, 0, 64, 86
1, 374678, Control_c, 0, 64, 75
1, 374693, Control_c, 0, 64, 68
1, 374708, Control_c, 0, 64, 62
1, 374723, Control_c, 0, 64, 54
1, 374737, Control_c, 0, 64, 48
1, 374759, Control_c, 0, 64, 47
1, 374774, Control_c, 0, 64, 46
1, 374833, Control_c, 0, 64, 47
1, 374848, Control_c, 0, 64, 49
1, 374863, Control_c, 0, 64, 52
1, 374878, Control_c, 0, 64, 56
1, 374893, Control_c, 0, 64, 58
1, 374908, Control_c, 0, 64, 61
1, 374923, Control_c, 0, 64, 62
1, 374937, Control_c, 0, 64, 63
1, 374952, Control_c, 0, 64, 64
1, 374967, Control_c, 0, 64, 66
1, 374975, Note_off_c, 0, 48, 24
1, 374982, Control_c, 0, 64, 67
1, 374997, Control_c, 0, 64, 69
1, 375011, Control_c, 0, 64, 71
1, 375026, Control_c, 0, 64, 73
1, 375041, Control_c, 0, 64, 75
1, 375056, Control_c, 0, 64, 76
1, 375071, Control_c, 0, 64, 77
1, 375100, Control_c, 0, 64, 77
1, 375115, Control_c, 0, 64, 78
1, 375129, Control_c, 0, 64, 79
1, 375144, Control_c, 0, 64, 79
1, 375323, Control_c, 0, 64, 79
1, 375338, Control_c, 0, 64, 78
1, 375352, Control_c, 0, 64, 78
1, 375367, Control_c, 0, 64, 77
1, 375456, Control_c, 0, 64, 76
1, 375471, Control_c, 0, 64, 73
1, 375486, Control_c, 0, 64, 68
1, 375507, Note_on_c, 0, 64, 28
1, 375508, Control_c, 0, 64, 64
1, 375523, Control_c, 0, 64, 62
1, 375538, Control_c, 0, 64, 62
1, 375553, Control_c, 0, 64, 63
1, 375567, Control_c, 0, 64, 64
1, 375582, Control_c, 0, 64, 65
1, 375597, Control_c, 0, 64, 67
1, 375612, Control_c, 0, 64, 70
1, 375627, Control_c, 0, 64, 74
1, 375641, Control_c, 0, 64, 78
1, 375656, Control_c, 0, 64, 83
1, 375671, Control_c, 0, 64, 89
1, 375686, Control_c, 0, 64, 95
1, 375701, Control_c, 0, 64, 105
1, 375716, Control_c, 0, 64, 127
1, 375734, Note_off_c, 0, 68, 34
1, 375839, Note_off_c, 0, 56, 35
1, 375888, Note_off_c, 0, 64, 41
1, 375895, Note_on_c, 0, 79, 58
1, 375983, Note_off_c, 0, 76, 58
1, 376148, Note_on_c, 0, 76, 75
1, 376394, Note_on_c, 0, 75, 80
1, 376396, Note_on_c, 0, 69, 49
1, 376483, Note_off_c, 0, 79, 41
1, 376500, Note_off_c, 0, 69, 63
1, 376516, Note_off_c, 0, 76, 54
1, 376693, Note_on_c, 0, 74, 84
1, 376762, Note_off_c, 0, 75, 61
1, 376903, Note_on_c, 0, 72, 87
1, 376909, Note_off_c, 0, 74, 59
1, 377124, Control_c, 0, 64, 106
1, 377138, Control_c, 0, 64, 92
1, 377153, Note_on_c, 0, 71, 79
1, 377153, Control_c, 0, 64, 82
1, 377156, Note_on_c, 0, 61, 49
1, 377168, Control_c, 0, 64, 76
1, 377183, Control_c, 0, 64, 72
1, 377198, Control_c, 0, 64, 68
1, 377203, Note_off_c, 0, 72, 63
1, 377212, Control_c, 0, 64, 66
1, 377227, Control_c, 0, 64, 64
1, 377242, Control_c, 0, 64, 63
1, 377257, Control_c, 0, 64, 62
1, 377272, Control_c, 0, 64, 61
1, 377287, Control_c, 0, 64, 60
1, 377302, Control_c, 0, 64, 59
1, 377317, Control_c, 0, 64, 58
1, 377331, Control_c, 0, 64, 57
1, 377346, Control_c, 0, 64, 56
1, 377361, Control_c, 0, 64, 54
1, 377376, Control_c, 0, 64, 52
1, 377391, Control_c, 0, 64, 50
1, 377405, Control_c, 0, 64, 49
1, 377420, Control_c, 0, 64, 47
1, 377435, Control_c, 0, 64, 45
1, 377450, Control_c, 0, 64, 43
1, 377465, Control_c, 0, 64, 41
1, 377479, Control_c, 0, 64, 39
1, 377494, Control_c, 0, 64, 38
1, 377509, Control_c, 0, 64, 38
1, 377538, Control_c, 0, 64, 37
1, 377599, Control_c, 0, 64, 37
1, 377650, Note_on_c, 0, 70, 61
1, 377731, Note_off_c, 0, 71, 56
1, 377858, Control_c, 0, 64, 38
1, 377873, Control_c, 0, 64, 39
1, 377888, Control_c, 0, 64, 41
1, 377902, Control_c, 0, 64, 43
1, 377917, Control_c, 0, 64, 46
1, 377932, Control_c, 0, 64, 50
1, 377947, Control_c, 0, 64, 53
1, 377961, Control_c, 0, 64, 56
1, 377976, Control_c, 0, 64, 58
1, 377991, Control_c, 0, 64, 60
1, 378006, Control_c, 0, 64, 61
1, 378021, Control_c, 0, 64, 62
1, 378035, Control_c, 0, 64, 64
1, 378050, Control_c, 0, 64, 64
1, 378065, Control_c, 0, 64, 65
1, 378080, Control_c, 0, 64, 66
1, 378095, Control_c, 0, 64, 68
1, 378109, Control_c, 0, 64, 69
1, 378124, Control_c, 0, 64, 71
1, 378129, Note_on_c, 0, 53, 45
1, 378139, Control_c, 0, 64, 73
1, 378154, Control_c, 0, 64, 76
1, 378169, Control_c, 0, 64, 80
1, 378184, Control_c, 0, 64, 84
1, 378199, Control_c, 0, 64, 89
1, 378214, Control_c, 0, 64, 95
1, 378228, Control_c, 0, 64, 107
1, 378243, Control_c, 0, 64, 127
1, 378320, Note_on_c, 0, 65, 57
1, 378360, Note_off_c, 0, 61, 34
1, 378440, Note_off_c, 0, 65, 59
1, 378494, Note_off_c, 0, 70, 28
1, 378533, Note_on_c, 0, 65, 76
1, 378692, Note_on_c, 0, 70, 77
1, 378694, Note_on_c, 0, 68, 63
1, 378714, Note_off_c, 0, 53, 56
1, 378718, Note_off_c, 0, 65, 62
1, 378753, Note_off_c, 0, 68, 61
1, 378753, Note_off_c, 0, 70, 64
1, 378959, Note_on_c, 0, 62, 45
1, 378961, Note_on_c, 0, 52, 47
1, 378982, Note_on_c, 0, 80, 79
1, 379007, Control_c, 0, 64, 101
1, 379022, Control_c, 0, 64, 86
1, 379037, Control_c, 0, 64, 77
1, 379051, Control_c, 0, 64, 70
1, 379066, Control_c, 0, 64, 64
1, 379081, Control_c, 0, 64, 60
1, 379096, Control_c, 0, 64, 58
1, 379111, Control_c, 0, 64, 56
1, 379125, Control_c, 0, 64, 55
1, 379140, Control_c, 0, 64, 53
1, 379156, Control_c, 0, 64, 49
1, 379171, Control_c, 0, 64, 44
1, 379186, Control_c, 0, 64, 39
1, 379200, Control_c, 0, 64, 35
1, 379215, Control_c, 0, 64, 31
1, 379230, Control_c, 0, 64, 24
1, 379252, Control_c, 0, 64, 0
1, 379370, Control_c, 0, 67, 12
1, 379385, Control_c, 0, 67, 20
1, 379400, Control_c, 0, 67, 29
1, 379415, Control_c, 0, 67, 39
1, 379430, Control_c, 0, 67, 50
1, 379445, Control_c, 0, 67, 60
1, 379445, Note_on_c, 0, 79, 63
1, 379460, Control_c, 0, 67, 73
1, 379474, Control_c, 0, 67, 85
1, 379489, Control_c, 0, 67, 99
1, 379504, Control_c, 0, 67, 117
1, 379519, Control_c, 0, 67, 127
1, 379527, Note_off_c, 0, 80, 59
1, 379593, Control_c, 0, 64, 22
1, 379607, Control_c, 0, 64, 38
1, 379622, Control_c, 0, 64, 48
1, 379637, Control_c, 0, 64, 54
1, 379652, Control_c, 0, 64, 59
1, 379667, Control_c, 0, 64, 62
1, 379681, Control_c, 0, 64, 64
1, 379696, Control_c, 0, 64, 65
1, 379711, Control_c, 0, 64, 66
1, 379726, Control_c, 0, 64, 68
1, 379741, Control_c, 0, 64, 70
1, 379755, Control_c, 0, 64, 72
1, 379760, Note_off_c, 0, 79, 58
1, 379770, Control_c, 0, 64, 74
1, 379785, Control_c, 0, 64, 75
1, 379829, Control_c, 0, 64, 74
1, 379844, Control_c, 0, 64, 74
1, 379859, Control_c, 0, 64, 73
1, 379874, Control_c, 0, 64, 73
1, 379889, Control_c, 0, 64, 72
1, 379909, Note_on_c, 0, 61, 35
1, 379918, Control_c, 0, 64, 72
1, 379921, Note_on_c, 0, 79, 60
1, 379949, Control_c, 0, 64, 71
1, 379964, Control_c, 0, 64, 70
1, 379978, Control_c, 0, 64, 69
1, 380001, Control_c, 0, 64, 66
1, 380016, Control_c, 0, 64, 62
1, 380030, Control_c, 0, 64, 58
1, 380035, Note_off_c, 0, 62, 54
1, 380045, Control_c, 0, 64, 52
1, 380060, Control_c, 0, 64, 45
1, 380075, Control_c, 0, 64, 43
1, 380111, Note_off_c, 0, 52, 37
1, 380119, Control_c, 0, 64, 45
1, 380134, Control_c, 0, 64, 48
1, 380149, Control_c, 0, 64, 51
1, 380164, Control_c, 0, 64, 53
1, 380178, Control_c, 0, 64, 56
1, 380193, Control_c, 0, 64, 58
1, 380208, Control_c, 0, 64, 59
1, 380223, Control_c, 0, 64, 60
1, 380238, Control_c, 0, 64, 60
1, 380253, Control_c, 0, 64, 61
1, 380268, Control_c, 0, 64, 61
1, 380416, Control_c, 0, 64, 62
1, 380445, Control_c, 0, 64, 62
1, 380460, Control_c, 0, 64, 63
1, 380475, Control_c, 0, 64, 63
1, 380490, Control_c, 0, 64, 64
1, 380504, Control_c, 0, 64, 64
1, 380519, Control_c, 0, 64, 65
1, 380534, Control_c, 0, 64, 65
1, 380548, Control_c, 0, 64, 66
1, 380563, Control_c, 0, 64, 66
1, 380578, Control_c, 0, 64, 67
1, 380608, Control_c, 0, 64, 67
1, 380622, Control_c, 0, 64, 68
1, 380637, Control_c, 0, 64, 68
1, 380652, Control_c, 0, 64, 69
1, 380667, Control_c, 0, 64, 69
1, 380682, Control_c, 0, 64, 70
1, 380712, Control_c, 0, 64, 70
1, 380780, Control_c, 0, 64, 71
1, 380795, Control_c, 0, 64, 71
1, 380801, Note_on_c, 0, 70, 34
1, 380809, Control_c, 0, 64, 72
1, 380824, Control_c, 0, 64, 73
1, 380839, Control_c, 0, 64, 73
1, 380853, Control_c, 0, 64, 74
1, 380868, Control_c, 0, 64, 75
1, 380883, Control_c, 0, 64, 76
1, 380898, Control_c, 0, 64, 76
1, 380913, Control_c, 0, 64, 77
1, 380927, Control_c, 0, 64, 78
1, 380942, Control_c, 0, 64, 78
1, 380957, Control_c, 0, 64, 79
1, 381016, Control_c, 0, 64, 79
1, 381031, Control_c, 0, 64, 80
1, 381046, Control_c, 0, 64, 80
1, 381061, Control_c, 0, 64, 81
1, 381075, Control_c, 0, 64, 81
1, 381120, Control_c, 0, 64, 82
1, 381149, Note_off_c, 0, 61, 40
1, 381150, Control_c, 0, 64, 82
1, 381179, Control_c, 0, 64, 83
1, 381194, Control_c, 0, 64, 83
1, 381209, Control_c, 0, 64, 84
1, 381209, Control_c, 0, 67, 122
1, 381224, Control_c, 0, 64, 85
1, 381224, Control_c, 0, 67, 111
1, 381239, Control_c, 0, 64, 85
1, 381239, Control_c, 0, 67, 98
1, 381240, Note_on_c, 0, 84, 46
1, 381250, Note_off_c, 0, 70, 41
1, 381253, Control_c, 0, 64, 86
1, 381253, Control_c, 0, 67, 87
1, 381268, Control_c, 0, 64, 87
1, 381268, Control_c, 0, 67, 77
1, 381273, Note_off_c, 0, 79, 56
1, 381283, Control_c, 0, 67, 66
1, 381298, Control_c, 0, 67, 55
1, 381313, Control_c, 0, 67, 44
1, 381327, Control_c, 0, 67, 35
1, 381342, Control_c, 0, 67, 24
1, 381357, Control_c, 0, 67, 17
1, 381371, Control_c, 0, 67, 9
1, 381386, Control_c, 0, 67, 0
1, 381401, Control_c, 0, 64, 86
1, 381431, Note_on_c, 0, 83, 62
1, 381431, Control_c, 0, 64, 86
1, 381460, Control_c, 0, 64, 85
1, 381475, Control_c, 0, 64, 85
1, 381477, Note_off_c, 0, 84, 56
1, 381490, Control_c, 0, 64, 84
1, 381513, Control_c, 0, 64, 83
1, 381621, Note_on_c, 0, 79, 51
1, 381621, Note_on_c, 0, 86, 77
1, 381647, Control_c, 0, 64, 83
1, 381662, Control_c, 0, 64, 82
1, 381691, Control_c, 0, 64, 82
1, 381706, Control_c, 0, 64, 81
1, 381717, Note_off_c, 0, 83, 59
1, 381721, Control_c, 0, 64, 81
1, 381736, Control_c, 0, 64, 80
1, 381750, Control_c, 0, 64, 80
1, 381765, Control_c, 0, 64, 79
1, 381784, Note_on_c, 0, 85, 90
1, 381834, Note_off_c, 0, 86, 60
1, 381839, Control_c, 0, 64, 79
1, 381983, Note_on_c, 0, 88, 85
1, 381988, Control_c, 0, 64, 78
1, 382017, Control_c, 0, 64, 77
1, 382027, Note_off_c, 0, 85, 65
1, 382032, Control_c, 0, 64, 76
1, 382047, Control_c, 0, 64, 74
1, 382062, Control_c, 0, 64, 73
1, 382076, Control_c, 0, 64, 72
1, 382091, Control_c, 0, 64, 71
1, 382136, Control_c, 0, 64, 71
1, 382150, Control_c, 0, 64, 70
1, 382165, Control_c, 0, 64, 70
1, 382209, Control_c, 0, 64, 69
1, 382247, Control_c, 0, 64, 69
1, 382306, Control_c, 0, 64, 68
1, 382333, Note_on_c, 0, 83, 83
1, 382336, Control_c, 0, 64, 68
1, 382336, Note_on_c, 0, 75, 55
1, 382351, Control_c, 0, 64, 67
1, 382358, Poly_aftertouch_c, 0, 87, 0
1, 382381, Control_c, 0, 64, 66
1, 382387, Note_off_c, 0, 79, 36
1, 382396, Control_c, 0, 64, 66
1, 382425, Control_c, 0, 64, 65
1, 382455, Control_c, 0, 64, 65
1, 382485, Control_c, 0, 64, 64
1, 382514, Control_c, 0, 64, 64
1, 382537, Note_off_c, 0, 88, 25
1, 382559, Control_c, 0, 64, 63
1, 382573, Control_c, 0, 64, 63
1, 382603, Control_c, 0, 64, 62
1, 382617, Control_c, 0, 64, 62
1, 382647, Control_c, 0, 64, 61
1, 382691, Note_on_c, 0, 82, 87
1, 382706, Control_c, 0, 64, 62
1, 382721, Control_c, 0, 64, 63
1, 382724, Note_off_c, 0, 83, 65
1, 382736, Control_c, 0, 64, 64
1, 382751, Control_c, 0, 64, 66
1, 382766, Control_c, 0, 64, 67
1, 382781, Control_c, 0, 64, 70
1, 382795, Control_c, 0, 64, 75
1, 382810, Control_c, 0, 64, 81
1, 382825, Control_c, 0, 64, 89
1, 382840, Control_c, 0, 64, 99
1, 382855, Control_c, 0, 64, 111
1, 382870, Control_c, 0, 64, 127
1, 383075, Note_on_c, 0, 85, 87
1, 383094, Note_on_c, 0, 69, 50
1, 383174, Control_c, 0, 64, 99
1, 383189, Control_c, 0, 64, 79
1, 383204, Control_c, 0, 64, 67
1, 383206, Note_off_c, 0, 75, 57
1, 383219, Control_c, 0, 64, 59
1, 383234, Control_c, 0, 64, 52
1, 383236, Note_off_c, 0, 82, 53
1, 383248, Control_c, 0, 64, 49
1, 383263, Control_c, 0, 64, 48
1, 383293, Control_c, 0, 64, 50
1, 383308, Control_c, 0, 64, 53
1, 383322, Control_c, 0, 64, 57
1, 383337, Control_c, 0, 64, 60
1, 383352, Control_c, 0, 64, 63
1, 383367, Control_c, 0, 64, 65
1, 383382, Control_c, 0, 64, 67
1, 383396, Control_c, 0, 64, 70
1, 383411, Control_c, 0, 64, 75
1, 383426, Control_c, 0, 64, 80
1, 383440, Control_c, 0, 64, 85
1, 383455, Control_c, 0, 64, 90
1, 383470, Control_c, 0, 64, 95
1, 383485, Control_c, 0, 64, 101
1, 383500, Control_c, 0, 64, 105
1, 383515, Control_c, 0, 64, 106
1, 383548, Note_off_c, 0, 69, 62
1, 383633, Control_c, 0, 64, 107
1, 383648, Control_c, 0, 64, 109
1, 383663, Control_c, 0, 64, 114
1, 383678, Control_c, 0, 64, 127
1, 383836, Note_on_c, 0, 66, 58
1, 384186, Note_on_c, 0, 84, 81
1, 384371, Note_on_c, 0, 83, 95
1, 384420, Note_off_c, 0, 85, 60
1, 384426, Note_off_c, 0, 84, 61
1, 384626, Note_on_c, 0, 60, 41
1, 384659, Note_on_c, 0, 86, 84
1, 384670, Control_c, 0, 64, 108
1, 384685, Control_c, 0, 64, 91
1, 384700, Control_c, 0, 64, 75
1, 384715, Control_c, 0, 64, 64
1, 384730, Control_c, 0, 64, 54
1, 384746, Control_c, 0, 64, 49
1, 384775, Control_c, 0, 64, 49
1, 384790, Control_c, 0, 64, 51
1, 384805, Control_c, 0, 64, 54
1, 384820, Control_c, 0, 64, 57
1, 384835, Control_c, 0, 64, 61
1, 384849, Control_c, 0, 64, 63
1, 384864, Control_c, 0, 64, 65
1, 384879, Control_c, 0, 64, 68
1, 384894, Control_c, 0, 64, 71
1, 384902, Note_on_c, 0, 85, 86
1, 384909, Control_c, 0, 64, 76
1, 384924, Control_c, 0, 64, 83
1, 384939, Control_c, 0, 64, 89
1, 384954, Control_c, 0, 64, 94
1, 384955, Note_off_c, 0, 83, 55
1, 384968, Control_c, 0, 64, 101
1, 384983, Control_c, 0, 64, 114
1, 384995, Note_off_c, 0, 86, 56
1, 384998, Control_c, 0, 64, 127
1, 385153, Note_on_c, 0, 87, 76
1, 385231, Note_off_c, 0, 85, 61
1, 385234, Control_c, 0, 64, 115
1, 385257, Control_c, 0, 64, 107
1, 385272, Control_c, 0, 64, 100
1, 385287, Control_c, 0, 64, 95
1, 385301, Control_c, 0, 64, 90
1, 385316, Control_c, 0, 64, 86
1, 385331, Control_c, 0, 64, 83
1, 385346, Control_c, 0, 64, 81
1, 385361, Control_c, 0, 64, 79
1, 385375, Control_c, 0, 64, 77
1, 385390, Control_c, 0, 64, 75
1, 385405, Control_c, 0, 64, 72
1, 385408, Note_on_c, 0, 59, 36
1, 385419, Control_c, 0, 64, 70
1, 385434, Control_c, 0, 64, 68
1, 385449, Control_c, 0, 64, 66
1, 385464, Control_c, 0, 64, 64
1, 385470, Note_on_c, 0, 81, 68
1, 385479, Control_c, 0, 64, 63
1, 385493, Control_c, 0, 64, 61
1, 385508, Control_c, 0, 64, 59
1, 385520, Note_off_c, 0, 60, 36
1, 385523, Control_c, 0, 64, 56
1, 385539, Control_c, 0, 64, 53
1, 385554, Control_c, 0, 64, 51
1, 385569, Control_c, 0, 64, 50
1, 385584, Control_c, 0, 64, 50
1, 385586, Note_off_c, 0, 87, 58
1, 385628, Control_c, 0, 64, 51
1, 385642, Control_c, 0, 64, 52
1, 385657, Control_c, 0, 64, 54
1, 385672, Control_c, 0, 64, 57
1, 385687, Control_c, 0, 64, 59
1, 385702, Control_c, 0, 64, 61
1, 385717, Control_c, 0, 64, 62
1, 385732, Control_c, 0, 64, 63
1, 385747, Control_c, 0, 64, 64
1, 385761, Control_c, 0, 64, 66
1, 385776, Control_c, 0, 64, 68
1, 385791, Control_c, 0, 64, 70
1, 385791, Control_c, 0, 67, 14
1, 385792, Note_on_c, 0, 80, 50
1, 385806, Control_c, 0, 64, 72
1, 385806, Control_c, 0, 67, 23
1, 385821, Control_c, 0, 64, 75
1, 385821, Control_c, 0, 67, 32
1, 385835, Control_c, 0, 64, 77
1, 385835, Control_c, 0, 67, 41
1, 385850, Control_c, 0, 64, 81
1, 385850, Control_c, 0, 67, 53
1, 385865, Control_c, 0, 64, 85
1, 385865, Control_c, 0, 67, 65
1, 385874, Note_off_c, 0, 80, 57
1, 385880, Control_c, 0, 64, 90
1, 385880, Control_c, 0, 67, 77
1, 385895, Control_c, 0, 64, 94
1, 385895, Control_c, 0, 67, 87
1, 385909, Control_c, 0, 64, 97
1, 385909, Control_c, 0, 67, 97
1, 385924, Control_c, 0, 64, 98
1, 385924, Control_c, 0, 67, 105
1, 385939, Control_c, 0, 67, 112
1, 385954, Control_c, 0, 67, 117
1, 385969, Control_c, 0, 67, 120
1, 385984, Control_c, 0, 67, 123
1, 386006, Control_c, 0, 67, 126
1, 386021, Control_c, 0, 67, 127
1, 386110, Control_c, 0, 64, 97
1, 386118, Note_on_c, 0, 80, 51
1, 386124, Control_c, 0, 64, 95
1, 386139, Control_c, 0, 64, 93
1, 386154, Control_c, 0, 64, 87
1, 386164, Note_on_c, 0, 85, 65
1, 386166, Note_off_c, 0, 80, 49
1, 386169, Control_c, 0, 64, 80
1, 386184, Control_c, 0, 64, 73
1, 386191, Note_on_c, 0, 62, 34
1, 386198, Control_c, 0, 64, 67
1, 386213, Control_c, 0, 64, 64
1, 386228, Control_c, 0, 64, 62
1, 386254, Note_off_c, 0, 66, 48
1, 386272, Control_c, 0, 64, 62
1, 386377, Control_c, 0, 64, 62
1, 386392, Control_c, 0, 64, 63
1, 386407, Control_c, 0, 64, 63
1, 386421, Control_c, 0, 64, 64
1, 386436, Control_c, 0, 64, 64
1, 386451, Control_c, 0, 64, 65
1, 386465, Control_c, 0, 64, 66
1, 386480, Control_c, 0, 64, 67
1, 386495, Control_c, 0, 64, 68
1, 386510, Control_c, 0, 64, 70
1, 386525, Control_c, 0, 64, 71
1, 386539, Control_c, 0, 64, 73
1, 386554, Control_c, 0, 64, 74
1, 386569, Control_c, 0, 64, 75
1, 386575, Note_on_c, 0, 84, 45
1, 386584, Control_c, 0, 64, 76
1, 386585, Note_off_c, 0, 85, 27
1, 386599, Control_c, 0, 64, 77
1, 386614, Control_c, 0, 64, 79
1, 386616, Note_off_c, 0, 81, 58
1, 386629, Control_c, 0, 64, 80
1, 386644, Control_c, 0, 64, 81
1, 386658, Control_c, 0, 64, 82
1, 386701, Control_c, 0, 64, 83
1, 386738, Control_c, 0, 64, 83
1, 386768, Control_c, 0, 64, 84
1, 386783, Control_c, 0, 64, 84
1, 386916, Control_c, 0, 64, 84
1, 386960, Control_c, 0, 64, 83
1, 386978, Note_on_c, 0, 75, 38
1, 386990, Control_c, 0, 64, 83
1, 387004, Control_c, 0, 64, 82
1, 387019, Control_c, 0, 64, 81
1, 387031, Note_on_c, 0, 65, 38
1, 387034, Control_c, 0, 64, 80
1, 387037, Note_on_c, 0, 81, 50
1, 387049, Control_c, 0, 64, 77
1, 387064, Control_c, 0, 64, 74
1, 387079, Control_c, 0, 64, 69
1, 387094, Control_c, 0, 64, 65
1, 387109, Control_c, 0, 64, 63
1, 387124, Control_c, 0, 64, 62
1, 387157, Note_off_c, 0, 84, 31
1, 387213, Control_c, 0, 64, 63
1, 387273, Control_c, 0, 64, 63
1, 387376, Control_c, 0, 64, 64
1, 387405, Control_c, 0, 64, 64
1, 387436, Control_c, 0, 64, 65
1, 387451, Control_c, 0, 64, 66
1, 387466, Control_c, 0, 64, 66
1, 387487, Control_c, 0, 64, 67
1, 387502, Control_c, 0, 64, 67
1, 387517, Control_c, 0, 64, 68
1, 387532, Control_c, 0, 64, 69
1, 387541, Note_on_c, 0, 80, 34
1, 387547, Control_c, 0, 64, 71
1, 387562, Control_c, 0, 64, 72
1, 387577, Control_c, 0, 64, 73
1, 387592, Control_c, 0, 64, 75
1, 387607, Control_c, 0, 64, 75
1, 387608, Note_off_c, 0, 81, 29
1, 387621, Control_c, 0, 64, 76
1, 387666, Control_c, 0, 64, 76
1, 387725, Control_c, 0, 64, 77
1, 387740, Control_c, 0, 64, 77
1, 387755, Control_c, 0, 64, 78
1, 387769, Control_c, 0, 64, 78
1, 387784, Control_c, 0, 64, 79
1, 387799, Control_c, 0, 64, 79
1, 387813, Control_c, 0, 64, 80
1, 387827, Note_off_c, 0, 80, 32
1, 387843, Control_c, 0, 64, 80
1, 387858, Control_c, 0, 64, 81
1, 387873, Control_c, 0, 64, 81
1, 387887, Control_c, 0, 64, 82
1, 387902, Control_c, 0, 64, 83
1, 387917, Control_c, 0, 64, 84
1, 387932, Control_c, 0, 64, 84
1, 387948, Control_c, 0, 64, 85
1, 387978, Control_c, 0, 64, 85
1, 387979, Note_off_c, 0, 75, 40
1, 387992, Control_c, 0, 64, 86
1, 388007, Control_c, 0, 64, 86
1, 388022, Control_c, 0, 64, 87
1, 388037, Control_c, 0, 64, 87
1, 388096, Control_c, 0, 64, 88
1, 388110, Note_on_c, 0, 68, 34
1, 388110, Control_c, 0, 64, 88
1, 388125, Control_c, 0, 64, 89
1, 388140, Control_c, 0, 64, 90
1, 388155, Control_c, 0, 64, 91
1, 388170, Control_c, 0, 64, 92
1, 388185, Control_c, 0, 64, 93
1, 388200, Control_c, 0, 64, 94
1, 388215, Control_c, 0, 64, 95
1, 388230, Control_c, 0, 64, 96
1, 388251, Control_c, 0, 64, 98
1, 388253, Note_on_c, 0, 78, 40
1, 388266, Control_c, 0, 64, 100
1, 388281, Note_off_c, 0, 68, 42
1, 388281, Control_c, 0, 64, 102
1, 388296, Control_c, 0, 64, 104
1, 388310, Control_c, 0, 64, 107
1, 388325, Control_c, 0, 64, 109
1, 388340, Control_c, 0, 64, 113
1, 388355, Control_c, 0, 64, 119
1, 388370, Note_off_c, 0, 65, 27
1, 388370, Control_c, 0, 64, 127
1, 388382, Note_on_c, 0, 73, 40
1, 388421, Note_off_c, 0, 62, 39
1, 388450, Note_off_c, 0, 78, 35
1, 388471, Note_off_c, 0, 59, 35
1, 388488, Note_on_c, 0, 77, 54
1, 388556, Note_off_c, 0, 73, 35
1, 388617, Note_on_c, 0, 67, 46
1, 388753, Note_on_c, 0, 72, 59
1, 388775, Note_off_c, 0, 67, 34
1, 389000, Poly_aftertouch_c, 0, 76, 127
1, 389020, Note_on_c, 0, 46, 34
1, 389023, Note_on_c, 0, 34, 35
1, 389028, Note_on_c, 0, 71, 59
1, 389045, Control_c, 0, 64, 111
1, 389060, Control_c, 0, 64, 92
1, 389074, Control_c, 0, 64, 75
1, 389089, Control_c, 0, 64, 62
1, 389104, Control_c, 0, 64, 38
1, 389119, Control_c, 0, 64, 0
1, 389133, Note_off_c, 0, 72, 58
1, 389222, Control_c, 0, 64, 27
1, 389237, Control_c, 0, 64, 43
1, 389252, Control_c, 0, 64, 53
1, 389256, Note_off_c, 0, 77, 24
1, 389267, Control_c, 0, 64, 57
1, 389282, Control_c, 0, 64, 60
1, 389297, Control_c, 0, 64, 62
1, 389312, Control_c, 0, 64, 65
1, 389327, Control_c, 0, 64, 69
1, 389341, Control_c, 0, 64, 75
1, 389356, Control_c, 0, 64, 86
1, 389371, Control_c, 0, 64, 104
1, 389385, Control_c, 0, 64, 127
1, 389389, Note_off_c, 0, 34, 41
1, 389470, Note_off_c, 0, 46, 41
1, 389640, Poly_aftertouch_c, 0, 76, 0
1, 389677, Poly_aftertouch_c, 0, 76, 127
1, 389842, Note_on_c, 0, 55, 38
1, 390702, Note_on_c, 0, 63, 36
1, 391066, Poly_aftertouch_c, 0, 77, 127
1, 391127, Note_on_c, 0, 72, 55
1, 391236, Poly_aftertouch_c, 0, 76, 0
1, 391300, Note_on_c, 0, 74, 75
1, 391347, Poly_aftertouch_c, 0, 77, 0
1, 391409, Note_off_c, 0, 72, 61
1, 391423, Note_off_c, 0, 71, 40
1, 391590, Note_on_c, 0, 70, 44
1, 391592, Note_on_c, 0, 75, 86
1, 391676, Note_off_c, 0, 74, 58
1, 391804, Note_off_c, 0, 70, 35
1, 391949, Note_off_c, 0, 63, 52
1, 392061, Note_off_c, 0, 55, 41
1, 392176, Note_on_c, 0, 74, 67
1, 392336, Note_on_c, 0, 72, 83
1, 392370, Note_off_c, 0, 75, 61
1, 392400, Note_off_c, 0, 74, 63
1, 392445, Note_off_c, 0, 72, 61
1, 392576, Note_on_c, 0, 35, 36
1, 392578, Note_on_c, 0, 71, 74
1, 392603, Control_c, 0, 64, 98
1, 392615, Note_on_c, 0, 62, 45
1, 392618, Control_c, 0, 64, 83
1, 392632, Control_c, 0, 64, 70
1, 392647, Control_c, 0, 64, 59
1, 392662, Control_c, 0, 64, 17
1, 392677, Control_c, 0, 64, 0
1, 392804, Control_c, 0, 64, 29
1, 392819, Control_c, 0, 64, 42
1, 392834, Control_c, 0, 64, 51
1, 392849, Control_c, 0, 64, 57
1, 392863, Control_c, 0, 64, 60
1, 392878, Control_c, 0, 64, 61
1, 392893, Control_c, 0, 64, 63
1, 392907, Control_c, 0, 64, 63
1, 392981, Control_c, 0, 64, 63
1, 393010, Note_off_c, 0, 35, 39
1, 393130, Control_c, 0, 64, 63
1, 393174, Control_c, 0, 64, 64
1, 393204, Control_c, 0, 64, 64
1, 393234, Control_c, 0, 64, 65
1, 393278, Note_on_c, 0, 70, 48
1, 393342, Note_off_c, 0, 71, 57
1, 393367, Control_c, 0, 64, 64
1, 393390, Note_on_c, 0, 51, 38
1, 393411, Control_c, 0, 64, 64
1, 393440, Control_c, 0, 64, 63
1, 393470, Control_c, 0, 64, 63
1, 393503, Note_off_c, 0, 51, 46
1, 393507, Control_c, 0, 64, 62
1, 393522, Control_c, 0, 64, 62
1, 393528, Note_on_c, 0, 55, 37
1, 393553, Control_c, 0, 64, 61
1, 393583, Control_c, 0, 64, 61
1, 393598, Control_c, 0, 64, 60
1, 393627, Control_c, 0, 64, 60
1, 393642, Control_c, 0, 64, 59
1, 393672, Control_c, 0, 64, 59
1, 393701, Control_c, 0, 64, 58
1, 393717, Note_off_c, 0, 55, 35
1, 393724, Note_on_c, 0, 54, 35
1, 393923, Control_c, 0, 64, 59
1, 393983, Control_c, 0, 64, 59
1, 394027, Control_c, 0, 64, 60
1, 394056, Control_c, 0, 64, 60
1, 394086, Control_c, 0, 64, 61
1, 394116, Control_c, 0, 64, 61
1, 394145, Control_c, 0, 64, 62
1, 394175, Control_c, 0, 64, 62
1, 394227, Control_c, 0, 64, 63
1, 394271, Control_c, 0, 64, 63
1, 394286, Control_c, 0, 64, 64
1, 394332, Control_c, 0, 64, 64
1, 394361, Control_c, 0, 64, 65
1, 394376, Control_c, 0, 64, 65
1, 394391, Control_c, 0, 64, 66
1, 394406, Control_c, 0, 64, 67
1, 394421, Control_c, 0, 64, 68
1, 394435, Control_c, 0, 64, 70
1, 394450, Control_c, 0, 64, 73
1, 394465, Control_c, 0, 64, 76
1, 394480, Control_c, 0, 64, 82
1, 394495, Control_c, 0, 64, 88
1, 394499, Note_off_c, 0, 70, 40
1, 394509, Control_c, 0, 64, 99
1, 394513, Note_off_c, 0, 62, 39
1, 394524, Control_c, 0, 64, 127
1, 394568, Control_c, 0, 67, 125
1, 394583, Control_c, 0, 67, 106
1, 394598, Control_c, 0, 67, 86
1, 394613, Control_c, 0, 67, 61
1, 394627, Control_c, 0, 67, 34
1, 394642, Note_off_c, 0, 54, 43
1, 394642, Control_c, 0, 67, 0
1, 395052, Note_on_c, 0, 59, 76
1, 395076, Note_on_c, 0, 34, 40
1, 395154, Control_c, 0, 64, 111
1, 395169, Control_c, 0, 64, 75
1, 395184, Control_c, 0, 64, 62
1, 395199, Control_c, 0, 64, 45
1, 395214, Control_c, 0, 64, 40
1, 395229, Control_c, 0, 64, 42
1, 395244, Control_c, 0, 64, 46
1, 395258, Control_c, 0, 64, 52
1, 395273, Control_c, 0, 64, 59
1, 395288, Control_c, 0, 64, 63
1, 395302, Control_c, 0, 64, 66
1, 395317, Control_c, 0, 64, 70
1, 395332, Control_c, 0, 64, 77
1, 395347, Control_c, 0, 64, 87
1, 395362, Control_c, 0, 64, 110
1, 395376, Control_c, 0, 64, 127
1, 395591, Note_off_c, 0, 34, 40
1, 395775, Note_on_c, 0, 67, 41
1, 395789, Note_on_c, 0, 60, 41
1, 395892, Note_off_c, 0, 60, 56
1, 395974, Note_off_c, 0, 67, 36
1, 396022, Note_off_c, 0, 59, 33
1, 396555, Note_on_c, 0, 67, 33
1, 396555, Note_on_c, 0, 75, 40
1, 396710, Note_off_c, 0, 75, 61
1, 396821, Note_off_c, 0, 67, 40
1, 396925, Note_on_c, 0, 60, 61
1, 397091, Note_on_c, 0, 62, 83
1, 397168, Note_off_c, 0, 60, 59
1, 397358, Note_on_c, 0, 63, 85
1, 397369, Note_on_c, 0, 82, 74
1, 397375, Note_on_c, 0, 75, 59
1, 397422, Note_off_c, 0, 62, 61
1, 397561, Note_off_c, 0, 75, 55
1, 397582, Note_off_c, 0, 82, 62
1, 397595, Poly_aftertouch_c, 0, 80, 127
1, 397621, Poly_aftertouch_c, 0, 80, 0
1, 397757, Note_on_c, 0, 62, 83
1, 397906, Note_off_c, 0, 63, 52
1, 397909, Note_on_c, 0, 60, 84
1, 397941, Note_off_c, 0, 62, 64
1, 397976, Note_off_c, 0, 60, 65
1, 398147, Control_c, 0, 64, 86
1, 398152, Note_on_c, 0, 59, 84
1, 398162, Control_c, 0, 64, 62
1, 398164, Note_on_c, 0, 35, 61
1, 398177, Control_c, 0, 64, 0
1, 398237, Control_c, 0, 64, 34
1, 398251, Control_c, 0, 64, 56
1, 398266, Control_c, 0, 64, 66
1, 398281, Control_c, 0, 64, 78
1, 398295, Control_c, 0, 64, 127
1, 398308, Note_off_c, 0, 59, 66
1, 398329, Note_off_c, 0, 35, 61
1, 398512, Note_on_c, 0, 66, 50
1, 398529, Note_on_c, 0, 74, 55
1, 398556, Note_on_c, 0, 58, 84
1, 398558, Note_off_c, 0, 66, 61
1, 398790, Note_off_c, 0, 74, 56
1, 398887, Note_off_c, 0, 58, 60
1, 399026, Note_on_c, 0, 60, 46
1, 399032, Note_on_c, 0, 68, 48
1, 399219, Note_off_c, 0, 68, 54
1, 399227, Note_on_c, 0, 58, 88
1, 399270, Note_on_c, 0, 59, 38
1, 399295, Note_off_c, 0, 59, 56
1, 399319, Note_off_c, 0, 60, 29
1, 399335, Note_off_c, 0, 58, 58
1, 399415, Note_on_c, 0, 58, 98
1, 399522, Note_off_c, 0, 58, 64
1, 399587, Note_on_c, 0, 61, 95
1, 399608, Note_off_c, 0, 61, 68
1, 399830, Note_on_c, 0, 32, 65
1, 399840, Note_on_c, 0, 57, 91
1, 399882, Control_c, 0, 64, 78
1, 399897, Control_c, 0, 64, 57
1, 399912, Control_c, 0, 64, 0
1, 400002, Control_c, 0, 64, 12
1, 400017, Control_c, 0, 64, 44
1, 400032, Control_c, 0, 64, 53
1, 400046, Control_c, 0, 64, 57
1, 400061, Control_c, 0, 64, 61
1, 400076, Control_c, 0, 64, 63
1, 400091, Control_c, 0, 64, 66
1, 400106, Control_c, 0, 64, 69
1, 400120, Control_c, 0, 64, 74
1, 400135, Control_c, 0, 64, 80
1, 400150, Control_c, 0, 64, 88
1, 400165, Control_c, 0, 64, 99
1, 400180, Control_c, 0, 64, 123
1, 400195, Control_c, 0, 64, 127
1, 400227, Note_off_c, 0, 32, 59
1, 400436, Note_off_c, 0, 57, 52
1, 400526, Note_on_c, 0, 65, 64
1, 400579, Note_on_c, 0, 70, 75
1, 400630, Note_on_c, 0, 53, 68
1, 400632, Control_c, 0, 64, 114
1, 400636, Note_on_c, 0, 69, 80
1, 400646, Control_c, 0, 64, 98
1, 400661, Control_c, 0, 64, 88
1, 400676, Control_c, 0, 64, 82
1, 400690, Control_c, 0, 64, 80
1, 400705, Control_c, 0, 64, 79
1, 400717, Note_off_c, 0, 70, 56
1, 400737, Control_c, 0, 64, 78
1, 400751, Control_c, 0, 64, 78
1, 400766, Control_c, 0, 64, 76
1, 400781, Control_c, 0, 64, 75
1, 400795, Control_c, 0, 64, 73
1, 400810, Control_c, 0, 64, 71
1, 400825, Control_c, 0, 64, 70
1, 400840, Control_c, 0, 64, 69
1, 400855, Control_c, 0, 64, 68
1, 400869, Control_c, 0, 64, 68
1, 400884, Control_c, 0, 64, 67
1, 400913, Control_c, 0, 64, 67
1, 400928, Control_c, 0, 64, 66
1, 400943, Control_c, 0, 64, 66
1, 400958, Control_c, 0, 64, 65
1, 400980, Control_c, 0, 64, 65
1, 400994, Control_c, 0, 64, 64
1, 401009, Control_c, 0, 64, 64
1, 401039, Control_c, 0, 64, 63
1, 401054, Control_c, 0, 64, 63
1, 401068, Control_c, 0, 64, 62
1, 401083, Control_c, 0, 64, 62
1, 401217, Control_c, 0, 64, 62
1, 401232, Control_c, 0, 64, 63
1, 401247, Control_c, 0, 64, 64
1, 401262, Control_c, 0, 64, 65
1, 401276, Control_c, 0, 64, 67
1, 401291, Control_c, 0, 64, 69
1, 401306, Control_c, 0, 64, 72
1, 401320, Control_c, 0, 64, 76
1, 401335, Control_c, 0, 64, 79
1, 401350, Control_c, 0, 64, 82
1, 401365, Control_c, 0, 64, 86
1, 401380, Control_c, 0, 64, 92
1, 401387, Note_on_c, 0, 61, 72
1, 401394, Control_c, 0, 64, 101
1, 401409, Control_c, 0, 64, 127
1, 401434, Note_off_c, 0, 65, 60
1, 401463, Note_off_c, 0, 69, 64
1, 401745, Note_on_c, 0, 70, 75
1, 401890, Note_on_c, 0, 72, 86
1, 401965, Note_off_c, 0, 70, 59
1, 402153, Note_on_c, 0, 68, 77
1, 402169, Note_on_c, 0, 73, 85
1, 402308, Note_off_c, 0, 68, 59
1, 402338, Note_off_c, 0, 72, 46
1, 402430, Note_on_c, 0, 72, 87
1, 402466, Note_off_c, 0, 61, 59
1, 402508, Note_off_c, 0, 53, 63
1, 402656, Note_on_c, 0, 70, 80
1, 402715, Note_off_c, 0, 73, 48
1, 402755, Note_off_c, 0, 72, 56
1, 402821, Note_off_c, 0, 70, 62
1, 402919, Note_on_c, 0, 33, 45
1, 402932, Note_on_c, 0, 69, 73
1, 402950, Note_on_c, 0, 60, 51
1, 402952, Control_c, 0, 64, 92
1, 402967, Control_c, 0, 64, 72
1, 402982, Control_c, 0, 64, 60
1, 402997, Control_c, 0, 64, 26
1, 403012, Control_c, 0, 64, 0
1, 403027, Control_c, 0, 67, 19
1, 403041, Control_c, 0, 67, 57
1, 403056, Control_c, 0, 67, 87
1, 403071, Control_c, 0, 64, 21
1, 403071, Control_c, 0, 67, 115
1, 403085, Control_c, 0, 64, 39
1, 403085, Control_c, 0, 67, 127
1, 403100, Control_c, 0, 64, 50
1, 403116, Control_c, 0, 64, 56
1, 403131, Control_c, 0, 64, 59
1, 403146, Control_c, 0, 64, 61
1, 403161, Control_c, 0, 64, 64
1, 403176, Control_c, 0, 64, 66
1, 403190, Control_c, 0, 64, 69
1, 403212, Control_c, 0, 64, 72
1, 403227, Control_c, 0, 64, 76
1, 403242, Control_c, 0, 64, 78
1, 403257, Control_c, 0, 64, 80
1, 403263, Note_off_c, 0, 33, 39
1, 403316, Control_c, 0, 64, 80
1, 403376, Control_c, 0, 64, 80
1, 403405, Note_on_c, 0, 68, 63
1, 403464, Control_c, 0, 64, 79
1, 403479, Control_c, 0, 64, 79
1, 403499, Note_on_c, 0, 66, 39
1, 403508, Control_c, 0, 64, 78
1, 403523, Control_c, 0, 64, 78
1, 403538, Control_c, 0, 64, 77
1, 403548, Note_on_c, 0, 49, 52
1, 403553, Control_c, 0, 64, 77
1, 403568, Control_c, 0, 64, 76
1, 403583, Control_c, 0, 64, 76
1, 403590, Note_off_c, 0, 69, 39
1, 403597, Control_c, 0, 64, 75
1, 403612, Control_c, 0, 64, 75
1, 403627, Control_c, 0, 64, 74
1, 403642, Control_c, 0, 64, 74
1, 403654, Note_on_c, 0, 53, 61
1, 403657, Control_c, 0, 64, 73
1, 403671, Control_c, 0, 64, 72
1, 403674, Note_off_c, 0, 49, 51
1, 403686, Control_c, 0, 64, 71
1, 403701, Control_c, 0, 64, 70
1, 403713, Note_off_c, 0, 66, 20
1, 403715, Control_c, 0, 64, 69
1, 403730, Control_c, 0, 64, 68
1, 403745, Control_c, 0, 64, 67
1, 403760, Control_c, 0, 64, 66
1, 403775, Control_c, 0, 64, 66
1, 403790, Control_c, 0, 64, 65
1, 403805, Control_c, 0, 64, 64
1, 403820, Control_c, 0, 64, 64
1, 403835, Control_c, 0, 64, 63
1, 403846, Note_off_c, 0, 53, 52
1, 403850, Note_on_c, 0, 52, 44
1, 403850, Control_c, 0, 64, 63
1, 403864, Control_c, 0, 64, 62
1, 403879, Control_c, 0, 64, 61
1, 403894, Control_c, 0, 64, 60
1, 403909, Control_c, 0, 64, 60
1, 403939, Control_c, 0, 64, 59
1, 403954, Control_c, 0, 64, 58
1, 403976, Control_c, 0, 64, 58
1, 403991, Control_c, 0, 64, 57
1, 404006, Control_c, 0, 64, 57
1, 404124, Control_c, 0, 64, 57
1, 404154, Control_c, 0, 64, 58
1, 404169, Control_c, 0, 64, 59
1, 404183, Control_c, 0, 64, 59
1, 404198, Control_c, 0, 64, 60
1, 404213, Control_c, 0, 64, 61
1, 404228, Control_c, 0, 64, 62
1, 404243, Control_c, 0, 64, 63
1, 404258, Control_c, 0, 64, 63
1, 404273, Control_c, 0, 64, 64
1, 404287, Control_c, 0, 64, 65
1, 404302, Control_c, 0, 64, 66
1, 404317, Control_c, 0, 64, 67
1, 404331, Control_c, 0, 64, 68
1, 404346, Control_c, 0, 64, 69
1, 404361, Control_c, 0, 64, 69
1, 404376, Control_c, 0, 64, 70
1, 404391, Control_c, 0, 64, 71
1, 404405, Control_c, 0, 64, 72
1, 404420, Control_c, 0, 64, 73
1, 404435, Control_c, 0, 64, 74
1, 404465, Control_c, 0, 64, 74
1, 404509, Control_c, 0, 64, 75
1, 404524, Control_c, 0, 64, 75
1, 404583, Control_c, 0, 64, 76
1, 404712, Note_off_c, 0, 60, 18
1, 404725, Control_c, 0, 64, 76
1, 404769, Control_c, 0, 64, 77
1, 404981, Note_on_c, 0, 69, 45
1, 404983, Note_on_c, 0, 60, 31
1, 405099, Note_off_c, 0, 68, 24
1, 405303, Control_c, 0, 64, 76
1, 405347, Control_c, 0, 64, 76
1, 405355, Note_on_c, 0, 68, 48
1, 405376, Control_c, 0, 64, 75
1, 405391, Control_c, 0, 64, 75
1, 405406, Control_c, 0, 64, 74
1, 405420, Control_c, 0, 64, 73
1, 405431, Note_off_c, 0, 69, 36
1, 405435, Control_c, 0, 64, 73
1, 405437, Note_on_c, 0, 49, 36
1, 405450, Control_c, 0, 64, 72
1, 405472, Control_c, 0, 64, 71
1, 405485, Note_off_c, 0, 52, 37
1, 405487, Control_c, 0, 64, 69
1, 405502, Control_c, 0, 64, 68
1, 405518, Control_c, 0, 64, 67
1, 405533, Control_c, 0, 64, 66
1, 405547, Control_c, 0, 64, 66
1, 405561, Note_on_c, 0, 53, 35
1, 405562, Control_c, 0, 64, 65
1, 405577, Control_c, 0, 64, 65
1, 405598, Note_off_c, 0, 49, 33
1, 405606, Control_c, 0, 64, 64
1, 405621, Control_c, 0, 64, 64
1, 405651, Control_c, 0, 64, 63
1, 405680, Control_c, 0, 64, 63
1, 405701, Note_off_c, 0, 53, 37
1, 405710, Control_c, 0, 64, 62
1, 405732, Note_on_c, 0, 52, 34
1, 405754, Control_c, 0, 64, 62
1, 405772, Note_off_c, 0, 60, 30
1, 405784, Control_c, 0, 64, 61
1, 405814, Control_c, 0, 64, 61
1, 405844, Control_c, 0, 64, 60
1, 405858, Control_c, 0, 64, 60
1, 405888, Control_c, 0, 64, 59
1, 405890, Note_off_c, 0, 68, 34
1, 405918, Control_c, 0, 64, 58
1, 405932, Control_c, 0, 64, 58
1, 405947, Control_c, 0, 64, 57
1, 405948, Note_off_c, 0, 52, 38
1, 405962, Control_c, 0, 64, 56
1, 405977, Control_c, 0, 64, 56
1, 406006, Control_c, 0, 64, 55
1, 406021, Control_c, 0, 64, 55
1, 406036, Control_c, 0, 64, 54
1, 406065, Control_c, 0, 64, 54
1, 406312, Control_c, 0, 64, 54
1, 406357, Control_c, 0, 64, 55
1, 406401, Control_c, 0, 64, 55
1, 406489, Control_c, 0, 64, 56
1, 406622, Control_c, 0, 64, 56
1, 406696, Control_c, 0, 64, 57
1, 406741, Control_c, 0, 64, 57
1, 406753, Note_on_c, 0, 68, 37
1, 406756, Control_c, 0, 64, 58
1, 406766, Note_on_c, 0, 34, 28
1, 406769, Note_on_c, 0, 60, 31
1, 406771, Note_on_c, 0, 46, 23
1, 406786, Control_c, 0, 64, 58
1, 406801, Control_c, 0, 64, 59
1, 406815, Control_c, 0, 64, 60
1, 406830, Control_c, 0, 64, 61
1, 406845, Control_c, 0, 64, 62
1, 406860, Control_c, 0, 64, 62
1, 406875, Control_c, 0, 64, 63
1, 406889, Control_c, 0, 64, 64
1, 406904, Control_c, 0, 64, 65
1, 406919, Control_c, 0, 64, 66
1, 406933, Control_c, 0, 64, 67
1, 406948, Control_c, 0, 64, 68
1, 406971, Control_c, 0, 64, 69
1, 406985, Control_c, 0, 64, 71
1, 407000, Control_c, 0, 64, 72
1, 407015, Control_c, 0, 64, 73
1, 407030, Control_c, 0, 64, 73
1, 407045, Control_c, 0, 64, 74
1, 407063, Note_off_c, 0, 34, 42
1, 407089, Control_c, 0, 64, 74
1, 407135, Note_off_c, 0, 46, 39
1, 407164, Control_c, 0, 64, 74
1, 407283, Control_c, 0, 64, 73
1, 407400, Note_on_c, 0, 67, 29
1, 407416, Control_c, 0, 64, 73
1, 407427, Note_off_c, 0, 68, 32
1, 407475, Control_c, 0, 64, 72
1, 407489, Note_off_c, 0, 60, 27
1, 407501, Note_on_c, 0, 49, 32
1, 407541, Note_off_c, 0, 67, 58
1, 407696, Control_c, 0, 64, 72
1, 407822, Control_c, 0, 64, 71
1, 407828, Note_on_c, 0, 53, 37
1, 407941, Control_c, 0, 64, 71
1, 407948, Note_off_c, 0, 49, 22
1, 408000, Control_c, 0, 64, 70
1, 408059, Control_c, 0, 64, 70
1, 408089, Control_c, 0, 64, 69
1, 408119, Control_c, 0, 64, 69
1, 408148, Control_c, 0, 64, 68
1, 408163, Control_c, 0, 64, 68
1, 408193, Control_c, 0, 64, 67
1, 408237, Control_c, 0, 64, 67
1, 408255, Note_off_c, 0, 53, 41
1, 408267, Control_c, 0, 64, 66
1, 408270, Note_on_c, 0, 52, 38
1, 408282, Control_c, 0, 64, 66
1, 408297, Control_c, 0, 64, 65
1, 408312, Control_c, 0, 64, 65
1, 408341, Control_c, 0, 64, 64
1, 408356, Control_c, 0, 64, 64
1, 408371, Control_c, 0, 64, 63
1, 408385, Control_c, 0, 64, 63
1, 408400, Control_c, 0, 64, 62
1, 408430, Control_c, 0, 64, 62
1, 408445, Control_c, 0, 64, 61
1, 408467, Control_c, 0, 64, 61
1, 408497, Control_c, 0, 64, 60
1, 408527, Control_c, 0, 64, 60
1, 408541, Control_c, 0, 64, 59
1, 408571, Control_c, 0, 64, 59
1, 408586, Control_c, 0, 64, 58
1, 408600, Control_c, 0, 64, 58
1, 408615, Control_c, 0, 64, 57
1, 408632, Note_off_c, 0, 52, 41
1, 408645, Control_c, 0, 64, 57
1, 408689, Control_c, 0, 64, 56
1, 408750, Control_c, 0, 64, 56
1, 408808, Control_c, 0, 64, 55
1, 409015, Control_c, 0, 64, 56
1, 409320, Control_c, 0, 64, 56
1, 409573, Control_c, 0, 64, 57
1, 409602, Control_c, 0, 64, 57
1, 409631, Control_c, 0, 64, 58
1, 409646, Control_c, 0, 64, 59
1, 409661, Control_c, 0, 64, 59
1, 409676, Control_c, 0, 64, 60
1, 409691, Control_c, 0, 64, 61
1, 409705, Control_c, 0, 64, 62
1, 409720, Control_c, 0, 64, 62
1, 409735, Control_c, 0, 64, 63
1, 409750, Control_c, 0, 64, 64
1, 409765, Control_c, 0, 64, 64
1, 409779, Control_c, 0, 64, 65
1, 409794, Control_c, 0, 64, 66
1, 409809, Control_c, 0, 64, 66
1, 409823, Control_c, 0, 64, 67
1, 409838, Control_c, 0, 64, 68
1, 409853, Control_c, 0, 64, 69
1, 409868, Control_c, 0, 64, 70
1, 409884, Control_c, 0, 64, 71
1, 409898, Control_c, 0, 64, 72
1, 409913, Control_c, 0, 64, 73
1, 409928, Note_on_c, 0, 55, 45
1, 409928, Control_c, 0, 64, 74
1, 409935, Note_on_c, 0, 35, 31
1, 409951, Control_c, 0, 64, 75
1, 409966, Control_c, 0, 64, 76
1, 409978, Note_on_c, 0, 47, 18
1, 409980, Control_c, 0, 64, 77
1, 409995, Control_c, 0, 64, 78
1, 410010, Control_c, 0, 64, 79
1, 410025, Control_c, 0, 64, 81
1, 410039, Control_c, 0, 64, 82
1, 410054, Control_c, 0, 64, 84
1, 410069, Control_c, 0, 64, 85
1, 410084, Control_c, 0, 64, 87
1, 410099, Control_c, 0, 64, 89
1, 410113, Control_c, 0, 64, 91
1, 410128, Control_c, 0, 64, 93
1, 410143, Control_c, 0, 64, 96
1, 410157, Control_c, 0, 64, 100
1, 410172, Control_c, 0, 64, 106
1, 410187, Control_c, 0, 64, 111
1, 410202, Control_c, 0, 64, 117
1, 410217, Control_c, 0, 64, 127
1, 410280, Note_off_c, 0, 55, 48
1, 410518, Note_off_c, 0, 47, 36
1, 410807, Note_off_c, 0, 35, 39
1, 410821, Note_on_c, 0, 63, 40
1, 410824, Note_on_c, 0, 70, 38
1, 411615, Note_on_c, 0, 54, 35
1, 411629, Note_on_c, 0, 62, 36
1, 411904, Note_off_c, 0, 63, 26
1, 412172, Note_off_c, 0, 62, 38
1, 412315, Control_c, 0, 64, 121
1, 412330, Control_c, 0, 64, 118
1, 412345, Control_c, 0, 64, 115
1, 412360, Control_c, 0, 64, 112
1, 412374, Control_c, 0, 64, 110
1, 412389, Control_c, 0, 64, 106
1, 412404, Control_c, 0, 64, 103
1, 412419, Control_c, 0, 64, 101
1, 412433, Control_c, 0, 64, 99
1, 412448, Control_c, 0, 64, 97
1, 412452, Note_on_c, 0, 56, 42
1, 412459, Note_on_c, 0, 48, 41
1, 412463, Control_c, 0, 64, 94
1, 412478, Control_c, 0, 64, 92
1, 412493, Control_c, 0, 64, 89
1, 412507, Control_c, 0, 64, 86
1, 412522, Control_c, 0, 64, 84
1, 412537, Control_c, 0, 64, 81
1, 412552, Control_c, 0, 64, 79
1, 412567, Control_c, 0, 64, 77
1, 412581, Control_c, 0, 64, 74
1, 412596, Control_c, 0, 64, 72
1, 412611, Control_c, 0, 64, 71
1, 412625, Control_c, 0, 64, 69
1, 412640, Control_c, 0, 64, 69
1, 412655, Control_c, 0, 64, 68
1, 412670, Control_c, 0, 64, 67
1, 412685, Control_c, 0, 64, 67
1, 412691, Note_off_c, 0, 70, 37
1, 412700, Note_off_c, 0, 54, 42
1, 412701, Control_c, 0, 64, 66
1, 412716, Control_c, 0, 64, 66
1, 412730, Control_c, 0, 64, 65
1, 412760, Control_c, 0, 64, 65
1, 412775, Control_c, 0, 64, 64
1, 412804, Control_c, 0, 64, 64
1, 412819, Control_c, 0, 64, 63
1, 412834, Control_c, 0, 64, 63
1, 412849, Control_c, 0, 64, 62
1, 412864, Control_c, 0, 64, 60
1, 412879, Control_c, 0, 64, 59
1, 412894, Control_c, 0, 64, 57
1, 412909, Control_c, 0, 64, 56
1, 412923, Control_c, 0, 64, 55
1, 413004, Control_c, 0, 64, 56
1, 413034, Control_c, 0, 64, 57
1, 413049, Control_c, 0, 64, 58
1, 413064, Control_c, 0, 64, 59
1, 413078, Control_c, 0, 64, 60
1, 413093, Control_c, 0, 64, 61
1, 413108, Control_c, 0, 64, 62
1, 413123, Control_c, 0, 64, 63
1, 413138, Control_c, 0, 64, 64
1, 413153, Control_c, 0, 64, 65
1, 413168, Control_c, 0, 64, 66
1, 413183, Control_c, 0, 64, 67
1, 413197, Control_c, 0, 64, 69
1, 413212, Control_c, 0, 64, 71
1, 413227, Control_c, 0, 64, 73
1, 413242, Control_c, 0, 64, 75
1, 413256, Control_c, 0, 64, 78
1, 413258, Note_on_c, 0, 69, 41
1, 413266, Note_on_c, 0, 64, 37
1, 413271, Control_c, 0, 64, 81
1, 413286, Control_c, 0, 64, 83
1, 413301, Control_c, 0, 64, 86
1, 413316, Control_c, 0, 64, 90
1, 413330, Control_c, 0, 64, 95
1, 413345, Control_c, 0, 64, 101
1, 413360, Control_c, 0, 64, 111
1, 413374, Control_c, 0, 64, 127
1, 413493, Note_off_c, 0, 48, 35
1, 413603, Note_off_c, 0, 56, 51
1, 414059, Note_on_c, 0, 53, 39
1, 414079, Note_on_c, 0, 61, 37
1, 414089, Note_off_c, 0, 69, 55
1, 414220, Note_off_c, 0, 64, 39
1, 414326, Note_off_c, 0, 61, 35
1, 414502, Note_off_c, 0, 53, 41
1, 414886, Note_on_c, 0, 67, 67
1, 414888, Control_c, 0, 64, 117
1, 414889, Note_on_c, 0, 55, 31
1, 414894, Note_on_c, 0, 47, 35
1, 414903, Control_c, 0, 64, 116
1, 414906, Note_on_c, 0, 59, 43
1, 414947, Control_c, 0, 64, 115
1, 414962, Control_c, 0, 64, 109
1, 414977, Control_c, 0, 64, 91
1, 414992, Control_c, 0, 64, 72
1, 415007, Control_c, 0, 64, 56
1, 415021, Control_c, 0, 64, 20
1, 415036, Control_c, 0, 64, 0
1, 415066, Control_c, 0, 64, 23
1, 415081, Control_c, 0, 64, 42
1, 415097, Control_c, 0, 64, 57
1, 415111, Control_c, 0, 64, 63
1, 415126, Control_c, 0, 64, 67
1, 415141, Control_c, 0, 64, 74
1, 415156, Control_c, 0, 64, 85
1, 415171, Control_c, 0, 64, 107
1, 415186, Control_c, 0, 64, 127
1, 415220, Note_off_c, 0, 47, 38
1, 415223, Note_off_c, 0, 59, 62
1, 415272, Note_off_c, 0, 55, 43
1, 415299, Note_off_c, 0, 67, 62
1, 415719, Note_on_c, 0, 70, 28
1, 415726, Note_on_c, 0, 63, 31
1, 415734, Note_on_c, 0, 82, 44
1, 415746, Note_on_c, 0, 75, 38
1, 415850, Note_off_c, 0, 82, 57
1, 415873, Note_off_c, 0, 75, 36
1, 415966, Note_off_c, 0, 70, 41
1, 416071, Note_off_c, 0, 63, 55
1, 416492, Note_on_c, 0, 66, 67
1, 416500, Note_on_c, 0, 54, 40
1, 416506, Note_on_c, 0, 62, 43
1, 416515, Note_on_c, 0, 74, 54
1, 416791, Note_off_c, 0, 54, 40
1, 416828, Note_off_c, 0, 74, 54
1, 417016, Note_off_c, 0, 62, 20
1, 417022, Note_off_c, 0, 66, 62
1, 417297, Note_on_c, 0, 68, 73
1, 417304, Note_on_c, 0, 48, 35
1, 417311, Control_c, 0, 64, 123
1, 417317, Note_on_c, 0, 56, 30
1, 417326, Control_c, 0, 64, 106
1, 417329, Note_on_c, 0, 60, 51
1, 417341, Control_c, 0, 64, 96
1, 417356, Control_c, 0, 64, 82
1, 417371, Control_c, 0, 64, 68
1, 417386, Control_c, 0, 64, 57
1, 417401, Control_c, 0, 64, 34
1, 417416, Control_c, 0, 64, 21
1, 417431, Control_c, 0, 64, 21
1, 417453, Control_c, 0, 64, 30
1, 417468, Control_c, 0, 64, 42
1, 417483, Control_c, 0, 64, 54
1, 417499, Control_c, 0, 64, 60
1, 417514, Control_c, 0, 64, 64
1, 417528, Control_c, 0, 64, 67
1, 417543, Control_c, 0, 64, 72
1, 417558, Control_c, 0, 64, 80
1, 417573, Control_c, 0, 64, 95
1, 417580, Note_off_c, 0, 48, 40
1, 417588, Control_c, 0, 64, 127
1, 417612, Note_off_c, 0, 60, 37
1, 417675, Note_off_c, 0, 56, 42
1, 417710, Note_off_c, 0, 68, 59
1, 418129, Note_on_c, 0, 81, 42
1, 418137, Note_on_c, 0, 64, 39
1, 418146, Note_on_c, 0, 69, 34
1, 418149, Note_on_c, 0, 76, 30
1, 418247, Note_off_c, 0, 76, 52
1, 418343, Note_off_c, 0, 69, 39
1, 418400, Note_off_c, 0, 81, 47
1, 418444, Note_off_c, 0, 64, 33
1, 418966, Note_on_c, 0, 53, 38
1, 418968, Note_on_c, 0, 65, 45
1, 418989, Note_on_c, 0, 61, 36
1, 419019, Note_on_c, 0, 73, 39
1, 419061, Note_off_c, 0, 61, 52
1, 419171, Note_off_c, 0, 53, 39
1, 419224, Note_off_c, 0, 65, 57
1, 419238, Note_off_c, 0, 73, 61
1, 419407, Note_on_c, 0, 35, 61
1, 419425, Control_c, 0, 64, 103
1, 419439, Control_c, 0, 64, 70
1, 419449, Note_on_c, 0, 47, 65
1, 419454, Control_c, 0, 64, 47
1, 419469, Control_c, 0, 64, 0
1, 419483, Control_c, 0, 64, 13
1, 419498, Control_c, 0, 64, 42
1, 419502, Note_on_c, 0, 55, 57
1, 419513, Control_c, 0, 64, 59
1, 419517, Note_off_c, 0, 35, 61
1, 419528, Control_c, 0, 64, 67
1, 419534, Note_off_c, 0, 55, 65
1, 419538, Note_on_c, 0, 59, 55
1, 419543, Control_c, 0, 64, 78
1, 419557, Note_off_c, 0, 47, 63
1, 419557, Control_c, 0, 64, 127
1, 419562, Note_on_c, 0, 67, 63
1, 419565, Note_off_c, 0, 59, 64
1, 419592, Note_off_c, 0, 67, 66
1, 419646, Control_c, 0, 67, 120
1, 419661, Control_c, 0, 67, 97
1, 419676, Control_c, 0, 67, 69
1, 419688, Note_on_c, 0, 67, 18
1, 419698, Control_c, 0, 67, 44
1, 419713, Control_c, 0, 67, 18
1, 419714, Note_off_c, 0, 67, 0
1, 419728, Control_c, 0, 67, 0
1, 419745, Note_on_c, 0, 79, 93
1, 419746, Note_on_c, 0, 67, 26
1, 419756, Note_on_c, 0, 71, 68
1, 419765, Note_on_c, 0, 59, 59
1, 419929, Note_off_c, 0, 71, 57
1, 420334, Note_off_c, 0, 67, 42
1, 420561, Note_on_c, 0, 70, 34
1, 420572, Note_on_c, 0, 63, 30
1, 420572, Note_on_c, 0, 82, 38
1, 420588, Note_on_c, 0, 75, 16
1, 420630, Note_off_c, 0, 79, 53
1, 420729, Note_off_c, 0, 70, 44
1, 420802, Note_off_c, 0, 82, 58
1, 420828, Note_off_c, 0, 75, 37
1, 420873, Note_off_c, 0, 59, 28
1, 420907, Control_c, 0, 67, 17
1, 420922, Control_c, 0, 67, 31
1, 420936, Control_c, 0, 67, 46
1, 420951, Control_c, 0, 67, 61
1, 420966, Control_c, 0, 67, 77
1, 420981, Control_c, 0, 67, 97
1, 420996, Control_c, 0, 67, 116
1, 421011, Control_c, 0, 67, 127
1, 421031, Note_off_c, 0, 63, 41
1, 421344, Control_c, 0, 64, 101
1, 421351, Note_on_c, 0, 78, 77
1, 421359, Control_c, 0, 64, 91
1, 421360, Note_on_c, 0, 54, 34
1, 421364, Note_on_c, 0, 66, 44
1, 421374, Control_c, 0, 64, 88
1, 421381, Note_on_c, 0, 62, 30
1, 421383, Note_on_c, 0, 74, 46
1, 421389, Control_c, 0, 64, 83
1, 421404, Control_c, 0, 64, 73
1, 421419, Control_c, 0, 64, 62
1, 421434, Control_c, 0, 64, 34
1, 421449, Control_c, 0, 64, 0
1, 421494, Control_c, 0, 64, 12
1, 421508, Control_c, 0, 64, 34
1, 421523, Control_c, 0, 64, 52
1, 421538, Control_c, 0, 64, 59
1, 421553, Control_c, 0, 64, 62
1, 421568, Control_c, 0, 64, 65
1, 421583, Control_c, 0, 64, 69
1, 421598, Control_c, 0, 64, 75
1, 421613, Control_c, 0, 64, 86
1, 421628, Control_c, 0, 64, 113
1, 421642, Control_c, 0, 64, 127
1, 421729, Note_off_c, 0, 78, 60
1, 421749, Note_off_c, 0, 74, 55
1, 421761, Note_off_c, 0, 54, 44
1, 421896, Note_off_c, 0, 62, 34
1, 421980, Note_off_c, 0, 66, 50
1, 422326, Note_on_c, 0, 48, 29
1, 422349, Note_on_c, 0, 68, 31
1, 422357, Note_on_c, 0, 60, 17
1, 422370, Note_on_c, 0, 56, 13
1, 422504, Note_off_c, 0, 60, 40
1, 422550, Note_off_c, 0, 48, 41
1, 422551, Note_off_c, 0, 68, 37
1, 422602, Note_off_c, 0, 56, 40
1, 423250, Note_on_c, 0, 81, 55
1, 423258, Note_on_c, 0, 69, 33
1, 423263, Note_on_c, 0, 64, 23
1, 423414, Note_off_c, 0, 69, 39
1, 423491, Note_off_c, 0, 81, 37
1, 423492, Note_off_c, 0, 64, 41
1, 423688, Note_on_c, 0, 78, 57
1, 423717, Note_on_c, 0, 66, 33
1, 423926, Note_off_c, 0, 66, 40
1, 423992, Note_off_c, 0, 78, 25
1, 424140, Control_c, 0, 64, 113
1, 424154, Control_c, 0, 64, 101
1, 424169, Control_c, 0, 64, 94
1, 424191, Control_c, 0, 64, 92
1, 424206, Control_c, 0, 64, 91
1, 424215, Note_on_c, 0, 77, 48
1, 424218, Note_on_c, 0, 61, 31
1, 424221, Control_c, 0, 64, 90
1, 424230, Note_on_c, 0, 53, 33
1, 424236, Control_c, 0, 64, 79
1, 424240, Note_on_c, 0, 73, 36
1, 424251, Control_c, 0, 64, 68
1, 424265, Poly_aftertouch_c, 0, 65, 127
1, 424266, Control_c, 0, 64, 60
1, 424280, Control_c, 0, 64, 48
1, 424295, Control_c, 0, 64, 45
1, 424325, Control_c, 0, 64, 46
1, 424340, Control_c, 0, 64, 48
1, 424354, Control_c, 0, 64, 52
1, 424369, Control_c, 0, 64, 56
1, 424384, Control_c, 0, 64, 60
1, 424399, Control_c, 0, 64, 63
1, 424414, Control_c, 0, 64, 65
1, 424428, Control_c, 0, 64, 67
1, 424443, Control_c, 0, 64, 71
1, 424458, Control_c, 0, 64, 76
1, 424473, Control_c, 0, 64, 84
1, 424487, Control_c, 0, 64, 97
1, 424494, Note_off_c, 0, 61, 55
1, 424502, Control_c, 0, 64, 127
1, 424620, Note_off_c, 0, 53, 41
1, 424809, Note_off_c, 0, 73, 41
1, 424889, Note_on_c, 0, 35, 36
1, 424971, Poly_aftertouch_c, 0, 65, 0
1, 424973, Note_off_c, 0, 35, 48
1, 424987, Note_on_c, 0, 47, 39
1, 425036, Note_off_c, 0, 47, 58
1, 425173, Note_on_c, 0, 73, 50
1, 425203, Note_on_c, 0, 55, 61
1, 425241, Poly_aftertouch_c, 0, 64, 127
1, 425326, Control_c, 0, 67, 125
1, 425341, Control_c, 0, 67, 117
1, 425356, Control_c, 0, 67, 109
1, 425371, Control_c, 0, 67, 102
1, 425378, Poly_aftertouch_c, 0, 64, 0
1, 425385, Control_c, 0, 67, 93
1, 425400, Control_c, 0, 67, 83
1, 425415, Control_c, 0, 67, 75
1, 425420, Note_off_c, 0, 77, 55
1, 425429, Control_c, 0, 67, 66
1, 425444, Control_c, 0, 67, 56
1, 425459, Control_c, 0, 67, 47
1, 425475, Control_c, 0, 67, 38
1, 425490, Control_c, 0, 67, 28
1, 425505, Control_c, 0, 67, 19
1, 425520, Control_c, 0, 67, 12
1, 425534, Control_c, 0, 67, 0
1, 425610, Note_on_c, 0, 79, 44
1, 425627, Note_on_c, 0, 70, 47
1, 425700, Note_off_c, 0, 73, 51
1, 425838, Control_c, 0, 64, 121
1, 425853, Control_c, 0, 64, 110
1, 425868, Control_c, 0, 64, 108
1, 425913, Note_on_c, 0, 54, 64
1, 425926, Control_c, 0, 64, 108
1, 425929, Note_on_c, 0, 69, 36
1, 425948, Note_on_c, 0, 75, 51
1, 425956, Control_c, 0, 64, 107
1, 425971, Control_c, 0, 64, 107
1, 425986, Control_c, 0, 64, 103
1, 426001, Control_c, 0, 64, 89
1, 426016, Control_c, 0, 64, 74
1, 426019, Note_off_c, 0, 70, 37
1, 426030, Control_c, 0, 64, 64
1, 426045, Control_c, 0, 64, 57
1, 426057, Note_off_c, 0, 55, 56
1, 426060, Control_c, 0, 64, 53
1, 426075, Control_c, 0, 64, 54
1, 426082, Note_off_c, 0, 79, 42
1, 426090, Control_c, 0, 64, 55
1, 426105, Control_c, 0, 64, 57
1, 426120, Control_c, 0, 64, 59
1, 426134, Control_c, 0, 64, 62
1, 426149, Control_c, 0, 64, 64
1, 426164, Control_c, 0, 64, 66
1, 426179, Control_c, 0, 64, 69
1, 426194, Control_c, 0, 64, 72
1, 426208, Control_c, 0, 64, 77
1, 426223, Control_c, 0, 64, 83
1, 426238, Control_c, 0, 64, 92
1, 426252, Control_c, 0, 64, 107
1, 426267, Control_c, 0, 64, 127
1, 426411, Note_off_c, 0, 69, 34
1, 426528, Note_off_c, 0, 75, 62
1, 426705, Note_on_c, 0, 56, 75
1, 426749, Control_c, 0, 64, 111
1, 426764, Control_c, 0, 64, 85
1, 426779, Control_c, 0, 64, 71
1, 426794, Control_c, 0, 64, 63
1, 426802, Note_off_c, 0, 54, 64
1, 426808, Control_c, 0, 64, 59
1, 426823, Control_c, 0, 64, 60
1, 426838, Control_c, 0, 64, 62
1, 426853, Control_c, 0, 64, 65
1, 426868, Control_c, 0, 64, 67
1, 426882, Control_c, 0, 64, 71
1, 426897, Control_c, 0, 64, 76
1, 426912, Control_c, 0, 64, 82
1, 426922, Note_on_c, 0, 66, 52
1, 426927, Control_c, 0, 64, 89
1, 426928, Note_on_c, 0, 60, 43
1, 426942, Control_c, 0, 64, 98
1, 426956, Control_c, 0, 64, 108
1, 426971, Control_c, 0, 64, 127
1, 426992, Note_off_c, 0, 60, 61
1, 427014, Note_off_c, 0, 66, 62
1, 427163, Note_on_c, 0, 77, 67
1, 427191, Note_on_c, 0, 71, 62
1, 427491, Note_on_c, 0, 53, 77
1, 427519, Note_on_c, 0, 74, 60
1, 427526, Note_on_c, 0, 68, 51
1, 427566, Note_off_c, 0, 56, 62
1, 427572, Control_c, 0, 64, 94
1, 427586, Control_c, 0, 64, 69
1, 427601, Control_c, 0, 64, 57
1, 427616, Control_c, 0, 64, 40
1, 427625, Note_off_c, 0, 71, 52
1, 427631, Control_c, 0, 64, 38
1, 427646, Control_c, 0, 64, 42
1, 427652, Note_off_c, 0, 77, 38
1, 427661, Control_c, 0, 64, 50
1, 427676, Control_c, 0, 64, 59
1, 427691, Control_c, 0, 64, 62
1, 427705, Control_c, 0, 64, 65
1, 427720, Control_c, 0, 64, 68
1, 427735, Control_c, 0, 64, 73
1, 427750, Control_c, 0, 64, 82
1, 427765, Control_c, 0, 64, 110
1, 427779, Control_c, 0, 64, 127
1, 427812, Note_off_c, 0, 74, 59
1, 427821, Note_off_c, 0, 68, 56
1, 428353, Note_off_c, 0, 53, 63
1, 428565, Note_on_c, 0, 36, 54
1, 428568, Note_on_c, 0, 56, 82
1, 428621, Poly_aftertouch_c, 0, 48, 0
1, 428663, Control_c, 0, 64, 83
1, 428686, Control_c, 0, 64, 66
1, 428700, Control_c, 0, 64, 52
1, 428715, Control_c, 0, 64, 45
1, 428730, Control_c, 0, 64, 49
1, 428745, Control_c, 0, 64, 56
1, 428759, Control_c, 0, 64, 61
1, 428774, Control_c, 0, 64, 65
1, 428789, Control_c, 0, 64, 70
1, 428804, Control_c, 0, 64, 81
1, 428819, Control_c, 0, 64, 108
1, 428833, Control_c, 0, 64, 127
1, 428957, Note_off_c, 0, 56, 62
1, 429050, Note_off_c, 0, 36, 39
1, 429455, Note_on_c, 0, 76, 64
1, 429521, Note_on_c, 0, 77, 80
1, 429524, Note_off_c, 0, 76, 65
1, 429587, Note_on_c, 0, 78, 82
1, 429608, Note_off_c, 0, 77, 63
1, 429643, Note_on_c, 0, 82, 90
1, 429643, Note_on_c, 0, 80, 87
1, 429647, Note_on_c, 0, 71, 73
1, 429655, Note_on_c, 0, 64, 62
1, 429674, Note_off_c, 0, 78, 64
1, 429869, Note_on_c, 0, 78, 79
1, 429870, Note_off_c, 0, 71, 53
1, 430028, Note_off_c, 0, 64, 51
1, 430052, Note_on_c, 0, 77, 78
1, 430230, Note_on_c, 0, 76, 85
1, 430314, Note_off_c, 0, 76, 58
1, 430404, Note_on_c, 0, 55, 51
1, 430406, Note_on_c, 0, 63, 54
1, 430415, Note_on_c, 0, 76, 82
1, 430434, Note_off_c, 0, 77, 60
1, 430437, Note_off_c, 0, 78, 58
1, 430438, Note_off_c, 0, 80, 55
1, 430442, Note_off_c, 0, 82, 55
1, 430581, Note_on_c, 0, 75, 79
1, 430618, Note_off_c, 0, 76, 62
1, 430635, Note_off_c, 0, 63, 57
1, 430754, Note_on_c, 0, 74, 80
1, 430809, Note_off_c, 0, 75, 60
1, 430824, Note_off_c, 0, 55, 61
1, 430922, Note_on_c, 0, 73, 77
1, 430997, Note_off_c, 0, 74, 58
1, 431142, Note_on_c, 0, 72, 77
1, 431146, Note_on_c, 0, 57, 52
1, 431149, Note_on_c, 0, 49, 46
1, 431167, Control_c, 0, 64, 88
1, 431182, Control_c, 0, 64, 70
1, 431197, Control_c, 0, 64, 61
1, 431201, Note_off_c, 0, 73, 60
1, 431212, Control_c, 0, 64, 50
1, 431226, Control_c, 0, 64, 47
1, 431256, Control_c, 0, 64, 48
1, 431271, Control_c, 0, 64, 51
1, 431286, Control_c, 0, 64, 54
1, 431301, Control_c, 0, 64, 58
1, 431316, Control_c, 0, 64, 62
1, 431331, Control_c, 0, 64, 64
1, 431345, Control_c, 0, 64, 66
1, 431360, Control_c, 0, 64, 69
1, 431375, Control_c, 0, 64, 73
1, 431390, Control_c, 0, 64, 79
1, 431405, Control_c, 0, 64, 87
1, 431419, Control_c, 0, 64, 94
1, 431434, Control_c, 0, 64, 100
1, 431449, Control_c, 0, 64, 104
1, 431464, Control_c, 0, 64, 113
1, 431479, Control_c, 0, 64, 127
1, 431533, Note_off_c, 0, 72, 62
1, 431578, Note_off_c, 0, 49, 35
1, 431596, Note_off_c, 0, 57, 54
1, 431780, Note_on_c, 0, 75, 65
1, 431827, Note_off_c, 0, 75, 59
1, 431839, Note_on_c, 0, 76, 83
1, 431896, Note_on_c, 0, 77, 79
1, 431901, Note_off_c, 0, 76, 64
1, 431936, Note_on_c, 0, 79, 91
1, 431938, Note_on_c, 0, 80, 92
1, 431942, Note_on_c, 0, 65, 73
1, 431944, Note_on_c, 0, 70, 84
1, 431959, Note_off_c, 0, 77, 64
1, 432067, Note_off_c, 0, 70, 29
1, 432145, Note_on_c, 0, 77, 83
1, 432231, Note_off_c, 0, 79, 58
1, 432264, Note_off_c, 0, 80, 54
1, 432278, Note_off_c, 0, 65, 56
1, 432323, Note_on_c, 0, 76, 87
1, 432374, Note_off_c, 0, 77, 58
1, 432495, Note_on_c, 0, 75, 90
1, 432602, Note_off_c, 0, 75, 61
1, 432657, Note_on_c, 0, 62, 79
1, 432671, Note_on_c, 0, 54, 72
1, 432671, Note_on_c, 0, 75, 91
1, 432705, Note_off_c, 0, 76, 64
1, 432825, Note_off_c, 0, 62, 42
1, 432861, Note_on_c, 0, 74, 98
1, 432909, Note_off_c, 0, 75, 59
1, 432926, Note_off_c, 0, 54, 58
1, 433000, Note_on_c, 0, 73, 97
1, 433028, Note_off_c, 0, 74, 65
1, 433127, Note_on_c, 0, 48, 90
1, 433134, Note_on_c, 0, 36, 82
1, 433154, Control_c, 0, 64, 95
1, 433176, Control_c, 0, 64, 64
1, 433191, Control_c, 0, 64, 26
1, 433200, Note_on_c, 0, 72, 100
1, 433206, Control_c, 0, 64, 0
1, 433220, Control_c, 0, 64, 31
1, 433235, Control_c, 0, 64, 52
1, 433238, Note_off_c, 0, 73, 62
1, 433240, Note_off_c, 0, 36, 62
1, 433250, Control_c, 0, 64, 63
1, 433265, Control_c, 0, 64, 74
1, 433280, Control_c, 0, 64, 105
1, 433286, Note_off_c, 0, 48, 62
1, 433295, Control_c, 0, 64, 127
1, 433395, Note_on_c, 0, 56, 94
1, 433426, Note_on_c, 0, 71, 107
1, 433454, Note_off_c, 0, 72, 63
1, 433602, Note_off_c, 0, 71, 56
1, 433864, Note_on_c, 0, 79, 89
1, 433935, Note_on_c, 0, 81, 92
1, 433952, Note_off_c, 0, 79, 63
1, 433963, Note_off_c, 0, 56, 59
1, 434024, Note_on_c, 0, 83, 85
1, 434050, Note_on_c, 0, 84, 89
1, 434060, Note_off_c, 0, 81, 65
1, 434090, Note_off_c, 0, 83, 67
1, 434097, Note_off_c, 0, 84, 67
1, 434141, Note_on_c, 0, 64, 85
1, 434142, Note_on_c, 0, 71, 93
1, 434146, Note_on_c, 0, 84, 101
1, 434150, Note_on_c, 0, 86, 103
1, 434383, Note_on_c, 0, 83, 94
1, 434419, Note_off_c, 0, 84, 56
1, 434420, Note_off_c, 0, 86, 58
1, 434553, Note_on_c, 0, 82, 100
1, 434592, Note_off_c, 0, 83, 56
1, 434630, Note_off_c, 0, 71, 57
1, 434684, Note_off_c, 0, 64, 59
1, 434699, Note_on_c, 0, 81, 98
1, 434812, Note_off_c, 0, 81, 64
1, 434860, Note_on_c, 0, 55, 73
1, 434866, Note_on_c, 0, 63, 77
1, 434900, Note_on_c, 0, 81, 105
1, 434940, Note_off_c, 0, 82, 59
1, 435061, Note_on_c, 0, 80, 94
1, 435098, Note_off_c, 0, 63, 59
1, 435104, Note_off_c, 0, 81, 63
1, 435206, Note_off_c, 0, 55, 61
1, 435218, Note_on_c, 0, 79, 96
1, 435261, Note_off_c, 0, 80, 63
1, 435370, Note_on_c, 0, 78, 97
1, 435403, Note_off_c, 0, 79, 63
1, 435592, Note_on_c, 0, 77, 99
1, 435599, Note_on_c, 0, 57, 74
1, 435600, Note_on_c, 0, 49, 75
1, 435638, Note_off_c, 0, 78, 61
1, 435645, Control_c, 0, 64, 97
1, 435659, Control_c, 0, 64, 70
1, 435674, Control_c, 0, 64, 52
1, 435689, Control_c, 0, 64, 30
1, 435704, Control_c, 0, 64, 32
1, 435719, Control_c, 0, 64, 39
1, 435733, Control_c, 0, 64, 52
1, 435748, Control_c, 0, 64, 60
1, 435763, Control_c, 0, 64, 65
1, 435778, Control_c, 0, 64, 71
1, 435793, Control_c, 0, 64, 82
1, 435808, Control_c, 0, 64, 110
1, 435823, Control_c, 0, 64, 127
1, 435963, Note_off_c, 0, 77, 62
1, 436031, Note_on_c, 0, 79, 97
1, 436121, Note_off_c, 0, 49, 61
1, 436140, Note_on_c, 0, 81, 89
1, 436163, Note_off_c, 0, 79, 65
1, 436167, Note_off_c, 0, 57, 64
1, 436213, Note_on_c, 0, 82, 79
1, 436240, Note_off_c, 0, 81, 65
1, 436271, Note_on_c, 0, 83, 91
1, 436274, Note_off_c, 0, 82, 66
1, 436328, Note_off_c, 0, 83, 0
1, 436336, Note_on_c, 0, 85, 110
1, 436342, Note_on_c, 0, 65, 79
1, 436349, Note_on_c, 0, 84, 94
1, 436363, Poly_aftertouch_c, 0, 83, 0
1, 436371, Note_on_c, 0, 69, 72
1, 436386, Note_on_c, 0, 64, 28
1, 436401, Note_off_c, 0, 69, 61
1, 436416, Note_off_c, 0, 64, 53
1, 436467, Note_off_c, 0, 65, 58
1, 436525, Note_on_c, 0, 83, 97
1, 436553, Note_off_c, 0, 84, 64
1, 436557, Note_off_c, 0, 85, 62
1, 436651, Note_on_c, 0, 82, 96
1, 436672, Note_off_c, 0, 83, 65
1, 436776, Note_on_c, 0, 81, 97
1, 436865, Note_off_c, 0, 81, 66
1, 436901, Note_on_c, 0, 62, 97
1, 436908, Note_on_c, 0, 54, 99
1, 436942, Note_off_c, 0, 62, 63
1, 436949, Note_off_c, 0, 54, 60
1, 436994, Note_on_c, 0, 81, 99
1, 437029, Note_off_c, 0, 82, 64
1, 437122, Note_on_c, 0, 80, 95
1, 437152, Note_off_c, 0, 81, 67
1, 437231, Note_on_c, 0, 79, 95
1, 437266, Note_off_c, 0, 80, 64
1, 437276, Control_c, 0, 64, 87
1, 437291, Control_c, 0, 64, 62
1, 437305, Control_c, 0, 64, 0
1, 437333, Note_on_c, 0, 78, 98
1, 437335, Note_on_c, 0, 48, 90
1, 437340, Note_on_c, 0, 36, 68
1, 437350, Control_c, 0, 64, 43
1, 437352, Note_off_c, 0, 79, 66
1, 437364, Control_c, 0, 64, 63
1, 437370, Note_off_c, 0, 36, 64
1, 437378, Note_off_c, 0, 78, 66
1, 437379, Control_c, 0, 64, 75
1, 437388, Note_off_c, 0, 48, 65
1, 437394, Control_c, 0, 64, 127
1, 437501, Note_on_c, 0, 61, 80
1, 437501, Note_on_c, 0, 56, 95
1, 437505, Note_on_c, 0, 68, 79
1, 437517, Note_on_c, 0, 66, 59
1, 437523, Note_off_c, 0, 61, 69
1, 437534, Note_off_c, 0, 68, 63
1, 437536, Note_off_c, 0, 66, 62
1, 437556, Note_off_c, 0, 56, 54
1, 437611, Note_on_c, 0, 56, 35
1, 437731, Note_on_c, 0, 83, 102
1, 437731, Note_on_c, 0, 76, 79
1, 437733, Note_on_c, 0, 59, 85
1, 437736, Note_on_c, 0, 71, 88
1, 437738, Note_on_c, 0, 64, 84
1, 437743, Control_c, 0, 64, 117
1, 437758, Control_c, 0, 64, 84
1, 437773, Control_c, 0, 64, 74
1, 437787, Control_c, 0, 64, 73
1, 437802, Control_c, 0, 64, 76
1, 437809, Note_off_c, 0, 76, 63
1, 437817, Control_c, 0, 64, 83
1, 437823, Note_off_c, 0, 56, 34
1, 437832, Control_c, 0, 64, 106
1, 437847, Control_c, 0, 64, 127
1, 437883, Note_on_c, 0, 81, 21
1, 437891, Note_off_c, 0, 64, 61
1, 437901, Note_off_c, 0, 83, 59
1, 437944, Note_off_c, 0, 71, 58
1, 437950, Note_off_c, 0, 81, 39
1, 438011, Note_on_c, 0, 55, 87
1, 438017, Note_on_c, 0, 63, 87
1, 438021, Note_on_c, 0, 75, 100
1, 438021, Note_off_c, 0, 59, 63
1, 438027, Note_on_c, 0, 67, 86
1, 438055, Control_c, 0, 64, 106
1, 438069, Control_c, 0, 64, 75
1, 438084, Control_c, 0, 64, 56
1, 438099, Control_c, 0, 64, 0
1, 438247, Control_c, 0, 64, 41
1, 438263, Control_c, 0, 64, 48
1, 438277, Control_c, 0, 64, 53
1, 438292, Control_c, 0, 64, 60
1, 438307, Control_c, 0, 64, 65
1, 438322, Control_c, 0, 64, 72
1, 438337, Control_c, 0, 64, 87
1, 438351, Control_c, 0, 64, 127
1, 438430, Note_off_c, 0, 55, 61
1, 438571, Note_off_c, 0, 63, 56
1, 438660, Note_off_c, 0, 67, 61
1, 438729, Note_on_c, 0, 49, 61
1, 438729, Note_on_c, 0, 57, 52
1, 438729, Control_c, 0, 64, 114
1, 438733, Note_on_c, 0, 69, 69
1, 438738, Note_on_c, 0, 61, 59
1, 438744, Control_c, 0, 64, 76
1, 438751, Note_off_c, 0, 75, 57
1, 438759, Control_c, 0, 64, 62
1, 438774, Control_c, 0, 64, 61
1, 438789, Control_c, 0, 64, 63
1, 438803, Control_c, 0, 64, 65
1, 438818, Control_c, 0, 64, 69
1, 438819, Note_off_c, 0, 57, 64
1, 438825, Note_off_c, 0, 49, 64
1, 438833, Control_c, 0, 64, 77
1, 438845, Note_off_c, 0, 61, 62
1, 438848, Control_c, 0, 64, 93
1, 438854, Note_off_c, 0, 69, 61
1, 438863, Control_c, 0, 64, 127
1, 438955, Note_on_c, 0, 82, 68
1, 438966, Control_c, 0, 64, 92
1, 438967, Note_on_c, 0, 65, 56
1, 438974, Note_on_c, 0, 77, 57
1, 438977, Note_on_c, 0, 70, 57
1, 438979, Note_on_c, 0, 58, 57
1, 438981, Control_c, 0, 64, 68
1, 438996, Control_c, 0, 64, 52
1, 439010, Control_c, 0, 64, 45
1, 439025, Control_c, 0, 64, 52
1, 439040, Control_c, 0, 64, 57
1, 439044, Note_off_c, 0, 70, 60
1, 439056, Control_c, 0, 64, 62
1, 439071, Control_c, 0, 64, 65
1, 439078, Note_off_c, 0, 82, 61
1, 439084, Poly_aftertouch_c, 0, 80, 127
1, 439086, Control_c, 0, 64, 68
1, 439086, Control_c, 0, 67, 13
1, 439100, Control_c, 0, 64, 71
1, 439100, Control_c, 0, 67, 27
1, 439115, Control_c, 0, 64, 74
1, 439115, Control_c, 0, 67, 43
1, 439130, Control_c, 0, 64, 76
1, 439130, Control_c, 0, 67, 56
1, 439145, Control_c, 0, 67, 70
1, 439164, Poly_aftertouch_c, 0, 80, 0
1, 439167, Control_c, 0, 64, 75
1, 439167, Control_c, 0, 67, 84
1, 439182, Control_c, 0, 64, 75
1, 439182, Control_c, 0, 67, 99
1, 439197, Control_c, 0, 64, 74
1, 439197, Control_c, 0, 67, 114
1, 439212, Control_c, 0, 64, 73
1, 439212, Control_c, 0, 67, 127
1, 439227, Control_c, 0, 64, 69
1, 439229, Note_on_c, 0, 66, 51
1, 439239, Note_on_c, 0, 74, 53
1, 439241, Control_c, 0, 64, 62
1, 439242, Note_on_c, 0, 62, 44
1, 439243, Note_on_c, 0, 54, 45
1, 439243, Note_off_c, 0, 58, 54
1, 439248, Note_off_c, 0, 65, 38
1, 439256, Control_c, 0, 64, 50
1, 439267, Note_off_c, 0, 77, 39
1, 439271, Control_c, 0, 64, 29
1, 439286, Control_c, 0, 64, 0
1, 439345, Control_c, 0, 64, 23
1, 439360, Control_c, 0, 64, 40
1, 439375, Control_c, 0, 64, 51
1, 439389, Control_c, 0, 64, 57
1, 439404, Control_c, 0, 64, 60
1, 439419, Control_c, 0, 64, 62
1, 439433, Control_c, 0, 64, 64
1, 439448, Control_c, 0, 64, 65
1, 439463, Note_off_c, 0, 62, 58
1, 439463, Control_c, 0, 64, 67
1, 439478, Control_c, 0, 64, 70
1, 439493, Control_c, 0, 64, 73
1, 439507, Note_off_c, 0, 74, 45
1, 439507, Control_c, 0, 64, 76
1, 439522, Control_c, 0, 64, 77
1, 439555, Note_off_c, 0, 54, 64
1, 439595, Note_off_c, 0, 66, 56
1, 439597, Control_c, 0, 64, 77
1, 439611, Control_c, 0, 64, 76
1, 439626, Control_c, 0, 64, 76
1, 439641, Control_c, 0, 64, 75
1, 439656, Control_c, 0, 64, 74
1, 439671, Control_c, 0, 64, 73
1, 439686, Control_c, 0, 64, 72
1, 439701, Control_c, 0, 64, 72
1, 439730, Control_c, 0, 64, 71
1, 439759, Control_c, 0, 64, 71
1, 439774, Control_c, 0, 64, 69
1, 439789, Control_c, 0, 64, 68
1, 439804, Control_c, 0, 64, 67
1, 439819, Control_c, 0, 64, 66
1, 439833, Control_c, 0, 64, 66
1, 439848, Control_c, 0, 64, 65
1, 439863, Control_c, 0, 64, 65
1, 439878, Control_c, 0, 64, 64
1, 439881, Note_on_c, 0, 44, 45
1, 439893, Control_c, 0, 64, 63
1, 439916, Control_c, 0, 64, 61
1, 439930, Control_c, 0, 64, 60
1, 439945, Control_c, 0, 64, 59
1, 439960, Control_c, 0, 64, 58
1, 439975, Control_c, 0, 64, 58
1, 439990, Control_c, 0, 64, 57
1, 440004, Control_c, 0, 64, 56
1, 440019, Control_c, 0, 64, 54
1, 440034, Control_c, 0, 64, 52
1, 440049, Control_c, 0, 64, 50
1, 440063, Control_c, 0, 64, 48
1, 440078, Control_c, 0, 64, 47
1, 440152, Control_c, 0, 64, 48
1, 440167, Control_c, 0, 64, 49
1, 440181, Control_c, 0, 64, 51
1, 440196, Control_c, 0, 64, 53
1, 440211, Control_c, 0, 64, 55
1, 440226, Control_c, 0, 64, 58
1, 440241, Control_c, 0, 64, 60
1, 440255, Control_c, 0, 64, 62
1, 440267, Note_on_c, 0, 53, 28
1, 440270, Note_on_c, 0, 62, 20
1, 440270, Control_c, 0, 64, 63
1, 440285, Control_c, 0, 64, 64
1, 440300, Control_c, 0, 64, 65
1, 440315, Control_c, 0, 64, 66
1, 440330, Control_c, 0, 64, 67
1, 440345, Control_c, 0, 64, 69
1, 440360, Control_c, 0, 64, 71
1, 440374, Control_c, 0, 64, 72
1, 440389, Control_c, 0, 64, 73
1, 440404, Control_c, 0, 64, 75
1, 440419, Control_c, 0, 64, 75
1, 440434, Control_c, 0, 64, 76
1, 440448, Control_c, 0, 64, 76
1, 440472, Note_off_c, 0, 53, 41
1, 440478, Control_c, 0, 64, 77
1, 440493, Control_c, 0, 64, 78
1, 440508, Control_c, 0, 64, 78
1, 440567, Control_c, 0, 64, 79
1, 440583, Note_on_c, 0, 59, 44
1, 440595, Note_on_c, 0, 68, 44
1, 440768, Control_c, 0, 64, 78
1, 440798, Control_c, 0, 64, 78
1, 440828, Note_off_c, 0, 68, 58
1, 440828, Control_c, 0, 64, 77
1, 440842, Control_c, 0, 64, 77
1, 440857, Note_on_c, 0, 64, 51
1, 440857, Control_c, 0, 64, 76
1, 440863, Note_on_c, 0, 43, 60
1, 440874, Note_on_c, 0, 58, 35
1, 440901, Control_c, 0, 64, 76
1, 440975, Note_off_c, 0, 62, 34
1, 441009, Note_off_c, 0, 59, 24
1, 441036, Note_off_c, 0, 64, 51
1, 441044, Note_off_c, 0, 44, 58
1, 441049, Control_c, 0, 64, 75
1, 441093, Control_c, 0, 64, 75
1, 441114, Note_off_c, 0, 58, 54
1, 441123, Control_c, 0, 64, 74
1, 441138, Control_c, 0, 64, 74
1, 441153, Control_c, 0, 64, 73
1, 441167, Control_c, 0, 64, 72
1, 441182, Control_c, 0, 64, 71
1, 441192, Note_on_c, 0, 45, 62
1, 441197, Control_c, 0, 64, 71
1, 441212, Control_c, 0, 64, 70
1, 441227, Control_c, 0, 64, 69
1, 441242, Control_c, 0, 64, 68
1, 441257, Control_c, 0, 64, 66
1, 441271, Control_c, 0, 64, 65
1, 441286, Control_c, 0, 64, 65
1, 441316, Control_c, 0, 64, 64
1, 441320, Note_off_c, 0, 43, 61
1, 441331, Control_c, 0, 64, 64
1, 441345, Control_c, 0, 64, 61
1, 441360, Control_c, 0, 64, 53
1, 441375, Control_c, 0, 64, 43
1, 441390, Control_c, 0, 64, 39
1, 441412, Control_c, 0, 64, 39
1, 441442, Control_c, 0, 64, 39
1, 441457, Control_c, 0, 64, 41
1, 441472, Control_c, 0, 64, 46
1, 441477, Note_on_c, 0, 55, 39
1, 441487, Control_c, 0, 64, 52
1, 441502, Control_c, 0, 64, 56
1, 441513, Note_on_c, 0, 49, 23
1, 441516, Control_c, 0, 64, 59
1, 441531, Control_c, 0, 64, 61
1, 441546, Control_c, 0, 64, 62
1, 441561, Control_c, 0, 64, 64
1, 441576, Control_c, 0, 64, 65
1, 441591, Control_c, 0, 64, 67
1, 441606, Control_c, 0, 64, 69
1, 441612, Note_off_c, 0, 49, 60
1, 441621, Control_c, 0, 64, 71
1, 441635, Control_c, 0, 64, 73
1, 441635, Note_off_c, 0, 55, 62
1, 441739, Control_c, 0, 64, 72
1, 441798, Control_c, 0, 64, 72
1, 441813, Control_c, 0, 64, 71
1, 441857, Control_c, 0, 64, 71
1, 441885, Note_on_c, 0, 66, 46
1, 441887, Control_c, 0, 64, 70
1, 441913, Note_on_c, 0, 60, 39
1, 441916, Control_c, 0, 64, 70
1, 441975, Control_c, 0, 64, 69
1, 442139, Control_c, 0, 64, 70
1, 442339, Note_off_c, 0, 60, 22
1, 442339, Control_c, 0, 64, 69
1, 442354, Note_on_c, 0, 42, 41
1, 442364, Note_on_c, 0, 57, 12
1, 442380, Note_on_c, 0, 63, 40
1, 442384, Control_c, 0, 64, 69
1, 442399, Control_c, 0, 64, 66
1, 442414, Control_c, 0, 64, 60
1, 442427, Note_off_c, 0, 66, 36
1, 442428, Control_c, 0, 64, 52
1, 442443, Control_c, 0, 64, 47
1, 442458, Control_c, 0, 64, 46
1, 442473, Control_c, 0, 64, 46
1, 442488, Control_c, 0, 64, 49
1, 442503, Control_c, 0, 64, 53
1, 442518, Control_c, 0, 64, 57
1, 442520, Note_off_c, 0, 45, 55
1, 442532, Control_c, 0, 64, 60
1, 442547, Control_c, 0, 64, 62
1, 442562, Control_c, 0, 64, 64
1, 442577, Control_c, 0, 64, 65
1, 442592, Control_c, 0, 64, 67
1, 442606, Control_c, 0, 64, 68
1, 442621, Control_c, 0, 64, 71
1, 442626, Note_off_c, 0, 63, 58
1, 442636, Control_c, 0, 64, 74
1, 442641, Note_off_c, 0, 57, 42
1, 442650, Control_c, 0, 64, 78
1, 442665, Control_c, 0, 64, 81
1, 442680, Control_c, 0, 64, 82
1, 442695, Control_c, 0, 64, 82
1, 442710, Control_c, 0, 64, 84
1, 442724, Control_c, 0, 64, 86
1, 442739, Control_c, 0, 64, 91
1, 442754, Control_c, 0, 64, 96
1, 442769, Control_c, 0, 64, 99
1, 442784, Control_c, 0, 64, 101
1, 442798, Control_c, 0, 64, 102
1, 442813, Control_c, 0, 64, 103
1, 442828, Control_c, 0, 64, 105
1, 442842, Control_c, 0, 64, 107
1, 442857, Control_c, 0, 64, 108
1, 442923, Control_c, 0, 64, 107
1, 442938, Control_c, 0, 64, 106
1, 442953, Control_c, 0, 64, 104
1, 442968, Control_c, 0, 64, 102
1, 442981, Note_on_c, 0, 72, 71
1, 442983, Control_c, 0, 64, 99
1, 442989, Note_on_c, 0, 52, 35
1, 442992, Note_on_c, 0, 40, 44
1, 442998, Control_c, 0, 64, 95
1, 443007, Note_on_c, 0, 64, 48
1, 443013, Note_on_c, 0, 60, 47
1, 443013, Control_c, 0, 64, 92
1, 443028, Control_c, 0, 64, 90
1, 443043, Control_c, 0, 64, 88
1, 443059, Control_c, 0, 64, 83
1, 443060, Note_off_c, 0, 42, 55
1, 443073, Control_c, 0, 64, 73
1, 443088, Control_c, 0, 64, 63
1, 443103, Control_c, 0, 64, 41
1, 443118, Control_c, 0, 64, 0
1, 443192, Control_c, 0, 64, 30
1, 443207, Control_c, 0, 64, 47
1, 443221, Control_c, 0, 64, 57
1, 443236, Control_c, 0, 64, 62
1, 443251, Control_c, 0, 64, 65
1, 443266, Control_c, 0, 64, 68
1, 443281, Control_c, 0, 64, 72
1, 443296, Control_c, 0, 64, 78
1, 443311, Control_c, 0, 64, 83
1, 443326, Control_c, 0, 64, 89
1, 443338, Note_off_c, 0, 40, 57
1, 443341, Control_c, 0, 64, 94
1, 443355, Control_c, 0, 64, 101
1, 443370, Control_c, 0, 64, 110
1, 443376, Note_off_c, 0, 60, 48
1, 443380, Note_off_c, 0, 64, 56
1, 443385, Control_c, 0, 64, 127
1, 443426, Note_off_c, 0, 52, 44
1, 443456, Note_off_c, 0, 72, 61
1, 443900, Note_on_c, 0, 75, 36
1, 443922, Note_on_c, 0, 63, 33
1, 443934, Note_on_c, 0, 56, 29
1, 443937, Note_on_c, 0, 68, 26
1, 444089, Note_off_c, 0, 75, 54
1, 444090, Note_off_c, 0, 63, 43
1, 444339, Note_off_c, 0, 56, 41
1, 444425, Note_off_c, 0, 68, 33
1, 444742, Note_on_c, 0, 71, 78
1, 444750, Note_on_c, 0, 47, 38
1, 444751, Note_on_c, 0, 59, 52
1, 444765, Note_on_c, 0, 67, 52
1, 444769, Note_on_c, 0, 55, 32
1, 444839, Control_c, 0, 64, 95
1, 444853, Control_c, 0, 64, 75
1, 444868, Control_c, 0, 64, 62
1, 444883, Control_c, 0, 64, 40
1, 444898, Control_c, 0, 64, 16
1, 444913, Control_c, 0, 64, 21
1, 444927, Control_c, 0, 64, 35
1, 444942, Control_c, 0, 64, 49
1, 444957, Control_c, 0, 64, 57
1, 444972, Control_c, 0, 64, 61
1, 444987, Control_c, 0, 64, 65
1, 445001, Control_c, 0, 64, 69
1, 445016, Control_c, 0, 64, 75
1, 445031, Control_c, 0, 64, 84
1, 445046, Control_c, 0, 64, 93
1, 445061, Control_c, 0, 64, 103
1, 445075, Control_c, 0, 64, 113
1, 445090, Control_c, 0, 64, 127
1, 445153, Note_off_c, 0, 71, 54
1, 445202, Note_off_c, 0, 67, 59
1, 445225, Note_off_c, 0, 47, 54
1, 445325, Note_off_c, 0, 55, 35
1, 445357, Note_off_c, 0, 59, 59
1, 445710, Note_on_c, 0, 61, 41
1, 445724, Note_on_c, 0, 41, 38
1, 445728, Note_on_c, 0, 49, 28
1, 445746, Note_on_c, 0, 53, 27
1, 445760, Note_off_c, 0, 61, 60
1, 445770, Note_off_c, 0, 41, 61
1, 445770, Note_off_c, 0, 49, 61
1, 445783, Note_off_c, 0, 53, 49
1, 446661, Note_on_c, 0, 74, 44
1, 446680, Note_on_c, 0, 62, 32
1, 446685, Note_on_c, 0, 57, 38
1, 446760, Note_off_c, 0, 62, 58
1, 446770, Note_off_c, 0, 74, 59
1, 446841, Note_off_c, 0, 57, 57
1, 446934, Poly_aftertouch_c, 0, 55, 0
1, 447043, Note_on_c, 0, 71, 76
1, 447073, Note_on_c, 0, 59, 45
1, 447089, Poly_aftertouch_c, 0, 66, 127
1, 447136, Poly_aftertouch_c, 0, 66, 0
1, 447265, Note_off_c, 0, 59, 60
1, 447573, Note_on_c, 0, 70, 79
1, 447583, Note_on_c, 0, 46, 43
1, 447590, Note_on_c, 0, 66, 56
1, 447602, Note_on_c, 0, 54, 34
1, 447612, Note_on_c, 0, 58, 50
1, 447700, Control_c, 0, 64, 88
1, 447714, Control_c, 0, 64, 72
1, 447718, Note_off_c, 0, 71, 54
1, 447729, Control_c, 0, 64, 62
1, 447744, Control_c, 0, 64, 47
1, 447759, Control_c, 0, 64, 37
1, 447774, Control_c, 0, 64, 38
1, 447788, Control_c, 0, 64, 44
1, 447803, Control_c, 0, 64, 50
1, 447818, Control_c, 0, 64, 56
1, 447833, Control_c, 0, 64, 60
1, 447849, Control_c, 0, 64, 62
1, 447863, Control_c, 0, 64, 65
1, 447878, Control_c, 0, 64, 70
1, 447893, Control_c, 0, 64, 76
1, 447908, Control_c, 0, 64, 84
1, 447923, Control_c, 0, 64, 93
1, 447937, Control_c, 0, 64, 106
1, 447952, Control_c, 0, 64, 127
1, 448041, Control_c, 0, 67, 119
1, 448056, Control_c, 0, 67, 95
1, 448071, Control_c, 0, 67, 72
1, 448086, Control_c, 0, 67, 47
1, 448101, Control_c, 0, 67, 20
1, 448116, Control_c, 0, 67, 0
1, 448180, Note_off_c, 0, 46, 60
1, 448273, Note_off_c, 0, 70, 60
1, 448289, Note_off_c, 0, 54, 45
1, 448333, Note_off_c, 0, 66, 62
1, 448435, Note_off_c, 0, 58, 62
1, 448715, Note_on_c, 0, 60, 81
1, 448730, Note_on_c, 0, 40, 47
1, 448790, Control_c, 0, 64, 82
1, 448805, Control_c, 0, 64, 61
1, 448820, Control_c, 0, 64, 17
1, 448834, Control_c, 0, 64, 0
1, 448879, Control_c, 0, 64, 22
1, 448901, Control_c, 0, 64, 48
1, 448916, Control_c, 0, 64, 59
1, 448931, Control_c, 0, 64, 64
1, 448946, Control_c, 0, 64, 69
1, 448961, Control_c, 0, 64, 78
1, 448975, Control_c, 0, 64, 98
1, 448990, Control_c, 0, 64, 127
1, 449201, Note_off_c, 0, 40, 33
1, 449224, Note_off_c, 0, 60, 60
1, 449675, Note_on_c, 0, 80, 73
1, 449755, Note_on_c, 0, 81, 83
1, 449756, Note_off_c, 0, 80, 64
1, 449811, Note_on_c, 0, 82, 88
1, 449828, Note_off_c, 0, 81, 63
1, 449879, Note_on_c, 0, 86, 91
1, 449885, Note_on_c, 0, 84, 90
1, 449890, Note_on_c, 0, 75, 78
1, 449891, Note_on_c, 0, 68, 69
1, 449905, Note_off_c, 0, 82, 63
1, 450080, Note_on_c, 0, 82, 86
1, 450146, Note_off_c, 0, 75, 52
1, 450215, Note_off_c, 0, 86, 55
1, 450268, Note_off_c, 0, 84, 48
1, 450271, Note_on_c, 0, 81, 80
1, 450366, Note_off_c, 0, 82, 63
1, 450413, Note_off_c, 0, 68, 35
1, 450462, Note_on_c, 0, 80, 82
1, 450560, Note_off_c, 0, 80, 62
1, 450637, Note_on_c, 0, 80, 86
1, 450642, Note_on_c, 0, 59, 52
1, 450644, Note_on_c, 0, 67, 54
1, 450681, Note_off_c, 0, 81, 62
1, 450809, Note_on_c, 0, 79, 88
1, 450870, Note_off_c, 0, 80, 62
1, 450919, Note_off_c, 0, 59, 61
1, 450996, Note_on_c, 0, 78, 88
1, 451165, Note_on_c, 0, 77, 85
1, 451180, Note_off_c, 0, 79, 47
1, 451244, Note_off_c, 0, 67, 34
1, 451317, Note_off_c, 0, 78, 50
1, 451392, Note_on_c, 0, 76, 86
1, 451403, Note_on_c, 0, 53, 51
1, 451404, Note_on_c, 0, 61, 47
1, 451429, Control_c, 0, 64, 104
1, 451443, Control_c, 0, 64, 96
1, 451458, Control_c, 0, 64, 88
1, 451460, Note_off_c, 0, 77, 59
1, 451473, Control_c, 0, 64, 77
1, 451487, Control_c, 0, 64, 66
1, 451502, Control_c, 0, 64, 57
1, 451517, Control_c, 0, 64, 46
1, 451532, Control_c, 0, 64, 43
1, 451577, Control_c, 0, 64, 45
1, 451592, Control_c, 0, 64, 48
1, 451607, Control_c, 0, 64, 54
1, 451622, Control_c, 0, 64, 58
1, 451636, Control_c, 0, 64, 61
1, 451651, Control_c, 0, 64, 62
1, 451666, Control_c, 0, 64, 64
1, 451680, Control_c, 0, 64, 66
1, 451695, Control_c, 0, 64, 69
1, 451710, Control_c, 0, 64, 72
1, 451725, Control_c, 0, 64, 75
1, 451740, Control_c, 0, 64, 77
1, 451754, Control_c, 0, 64, 81
1, 451769, Control_c, 0, 64, 86
1, 451784, Control_c, 0, 64, 94
1, 451799, Control_c, 0, 64, 109
1, 451814, Control_c, 0, 64, 127
1, 451908, Note_off_c, 0, 53, 37
1, 451932, Note_off_c, 0, 76, 63
1, 451943, Note_on_c, 0, 78, 64
1, 452010, Note_off_c, 0, 61, 59
1, 452018, Note_off_c, 0, 78, 65
1, 452035, Note_on_c, 0, 79, 82
1, 452081, Note_off_c, 0, 79, 64
1, 452097, Note_on_c, 0, 80, 85
1, 452144, Note_off_c, 0, 80, 65
1, 452169, Note_on_c, 0, 79, 76
1, 452176, Note_on_c, 0, 81, 57
1, 452191, Note_off_c, 0, 79, 66
1, 452213, Note_on_c, 0, 69, 94
1, 452213, Note_on_c, 0, 84, 106
1, 452214, Note_on_c, 0, 74, 97
1, 452214, Note_on_c, 0, 83, 103
1, 452227, Note_off_c, 0, 81, 67
1, 452452, Note_on_c, 0, 81, 96
1, 452477, Note_off_c, 0, 83, 58
1, 452488, Note_off_c, 0, 84, 58
1, 452613, Note_on_c, 0, 80, 94
1, 452615, Note_off_c, 0, 74, 52
1, 452661, Note_off_c, 0, 81, 65
1, 452714, Note_off_c, 0, 69, 58
1, 452761, Note_on_c, 0, 79, 100
1, 452864, Note_off_c, 0, 79, 63
1, 452876, Note_on_c, 0, 66, 92
1, 452887, Note_on_c, 0, 58, 81
1, 452963, Note_on_c, 0, 79, 99
1, 452975, Note_off_c, 0, 66, 33
1, 452985, Note_off_c, 0, 58, 59
1, 453013, Note_off_c, 0, 80, 62
1, 453121, Note_on_c, 0, 78, 99
1, 453160, Note_off_c, 0, 79, 64
1, 453234, Note_on_c, 0, 77, 101
1, 453285, Note_off_c, 0, 78, 56
1, 453342, Note_on_c, 0, 76, 100
1, 453385, Note_off_c, 0, 77, 67
1, 453392, Control_c, 0, 64, 89
1, 453406, Note_on_c, 0, 40, 29
1, 453407, Control_c, 0, 64, 64
1, 453422, Control_c, 0, 64, 31
1, 453437, Control_c, 0, 64, 0
1, 453444, Note_on_c, 0, 28, 93
1, 453449, Note_off_c, 0, 40, 46
1, 453452, Control_c, 0, 64, 42
1, 453455, Note_off_c, 0, 76, 64
1, 453467, Control_c, 0, 64, 61
1, 453482, Control_c, 0, 64, 70
1, 453497, Control_c, 0, 64, 101
1, 453511, Control_c, 0, 64, 127
1, 453542, Note_on_c, 0, 40, 81
1, 453556, Note_off_c, 0, 28, 63
1, 453583, Note_off_c, 0, 40, 62
1, 453616, Note_on_c, 0, 60, 80
1, 453657, Note_on_c, 0, 64, 65
1, 453672, Note_off_c, 0, 60, 64
1, 453698, Note_off_c, 0, 64, 63
1, 453705, Note_on_c, 0, 72, 65
1, 453734, Note_off_c, 0, 72, 66
1, 453778, Note_on_c, 0, 72, 87
1, 453816, Note_off_c, 0, 72, 56
1, 453844, Note_on_c, 0, 60, 93
1, 453845, Note_on_c, 0, 52, 87
1, 453846, Note_on_c, 0, 76, 103
1, 453847, Note_on_c, 0, 84, 105
1, 453880, Note_on_c, 0, 83, 38
1, 453881, Note_off_c, 0, 83, 127
1, 454076, Note_off_c, 0, 84, 59
1, 454146, Note_off_c, 0, 76, 52
1, 454561, Note_on_c, 0, 75, 64
1, 454573, Note_on_c, 0, 63, 48
1, 454573, Note_on_c, 0, 71, 54
1, 454576, Note_on_c, 0, 68, 49
1, 454687, Note_off_c, 0, 52, 57
1, 454701, Note_off_c, 0, 63, 59
1, 454722, Note_off_c, 0, 75, 61
1, 454779, Note_off_c, 0, 60, 58
1, 454954, Note_off_c, 0, 68, 34
1, 455024, Note_off_c, 0, 71, 65
1, 455275, Note_on_c, 0, 83, 100
1, 455276, Note_on_c, 0, 55, 51
1, 455279, Note_on_c, 0, 64, 53
1, 455282, Note_on_c, 0, 71, 88
1, 455282, Note_on_c, 0, 67, 50
1, 455297, Note_on_c, 0, 59, 42
1, 455524, Note_off_c, 0, 67, 33
1, 455652, Note_off_c, 0, 64, 31
1, 455706, Note_off_c, 0, 55, 37
1, 455730, Note_off_c, 0, 59, 58
1, 456142, Note_on_c, 0, 57, 59
1, 456144, Note_on_c, 0, 49, 61
1, 456144, Control_c, 0, 64, 123
1, 456147, Note_on_c, 0, 61, 58
1, 456150, Note_on_c, 0, 53, 56
1, 456158, Control_c, 0, 64, 75
1, 456173, Control_c, 0, 64, 57
1, 456188, Control_c, 0, 64, 42
1, 456203, Control_c, 0, 64, 46
1, 456218, Control_c, 0, 64, 52
1, 456233, Control_c, 0, 64, 59
1, 456242, Note_off_c, 0, 71, 61
1, 456248, Control_c, 0, 64, 65
1, 456263, Note_off_c, 0, 83, 55
1, 456263, Control_c, 0, 64, 76
1, 456278, Control_c, 0, 64, 127
1, 456329, Note_on_c, 0, 83, 78
1, 456338, Note_on_c, 0, 71, 71
1, 456362, Note_off_c, 0, 71, 69
1, 456364, Note_off_c, 0, 83, 60
1, 456371, Note_off_c, 0, 53, 60
1, 456373, Note_off_c, 0, 49, 61
1, 456374, Note_off_c, 0, 57, 62
1, 456440, Note_off_c, 0, 61, 60
1, 456493, Note_on_c, 0, 83, 91
1, 456496, Note_on_c, 0, 71, 83
1, 456516, Note_off_c, 0, 71, 69
1, 456521, Note_off_c, 0, 83, 61
1, 456600, Note_on_c, 0, 71, 96
1, 456600, Note_on_c, 0, 83, 94
1, 456635, Note_off_c, 0, 83, 60
1, 456636, Note_off_c, 0, 71, 59
1, 456695, Note_on_c, 0, 83, 104
1, 456698, Note_on_c, 0, 71, 95
1, 456732, Note_off_c, 0, 71, 64
1, 456735, Note_off_c, 0, 83, 68
1, 456784, Note_on_c, 0, 69, 85
1, 456789, Note_on_c, 0, 62, 79
1, 456790, Note_on_c, 0, 74, 87
1, 456800, Note_on_c, 0, 65, 72
1, 456879, Note_off_c, 0, 74, 61
1, 457029, Note_off_c, 0, 69, 50
1, 457098, Note_on_c, 0, 83, 80
1, 457101, Note_on_c, 0, 71, 68
1, 457111, Note_off_c, 0, 62, 49
1, 457139, Note_off_c, 0, 83, 60
1, 457141, Note_off_c, 0, 71, 64
1, 457162, Note_off_c, 0, 65, 61
1, 457223, Note_on_c, 0, 71, 80
1, 457227, Note_on_c, 0, 83, 94
1, 457248, Note_off_c, 0, 71, 59
1, 457262, Note_off_c, 0, 83, 65
1, 457334, Note_on_c, 0, 86, 97
1, 457336, Note_on_c, 0, 74, 88
1, 457373, Note_off_c, 0, 86, 66
1, 457373, Note_off_c, 0, 74, 64
1, 457453, Note_on_c, 0, 54, 89
1, 457453, Note_on_c, 0, 66, 92
1, 457461, Note_on_c, 0, 82, 95
1, 457462, Note_on_c, 0, 61, 78
1, 457464, Note_on_c, 0, 70, 94
1, 457475, Note_on_c, 0, 58, 71
1, 457494, Control_c, 0, 64, 79
1, 457509, Control_c, 0, 64, 58
1, 457524, Control_c, 0, 64, 0
1, 457568, Control_c, 0, 64, 48
1, 457583, Control_c, 0, 64, 63
1, 457597, Control_c, 0, 64, 75
1, 457612, Control_c, 0, 64, 127
1, 457619, Note_off_c, 0, 66, 60
1, 457647, Note_off_c, 0, 82, 61
1, 457688, Note_off_c, 0, 54, 60
1, 457728, Note_off_c, 0, 70, 56
1, 457770, Note_off_c, 0, 61, 60
1, 457801, Note_off_c, 0, 58, 64
1, 458218, Note_on_c, 0, 72, 97
1, 458219, Note_on_c, 0, 28, 94
1, 458220, Note_on_c, 0, 60, 101
1, 458220, Note_on_c, 0, 64, 90
1, 458222, Note_on_c, 0, 40, 104
1, 458228, Note_on_c, 0, 67, 85
1, 458264, Note_on_c, 0, 70, 37
1, 458272, Control_c, 0, 64, 80
1, 458278, Note_on_c, 0, 34, 8
1, 458287, Control_c, 0, 64, 60
1, 458290, Note_off_c, 0, 70, 53
1, 458301, Control_c, 0, 64, 0
1, 458329, Note_off_c, 0, 34, 38
1, 458331, Control_c, 0, 64, 29
1, 458346, Control_c, 0, 64, 50
1, 458360, Control_c, 0, 64, 63
1, 458375, Control_c, 0, 64, 74
1, 458390, Control_c, 0, 64, 111
1, 458405, Control_c, 0, 64, 127
1, 458459, Note_off_c, 0, 28, 60
1, 458501, Note_off_c, 0, 60, 54
1, 458511, Note_off_c, 0, 40, 61
1, 458532, Note_off_c, 0, 72, 54
1, 458609, Note_off_c, 0, 64, 50
1, 458627, Note_off_c, 0, 67, 35
1, 458766, Note_on_c, 0, 59, 101
1, 458769, Note_on_c, 0, 47, 96
1, 458808, Note_on_c, 0, 48, 36
1, 458809, Note_off_c, 0, 48, 127
1, 458884, Poly_aftertouch_c, 0, 54, 0
1, 459092, Note_on_c, 0, 87, 90
1, 459099, Note_on_c, 0, 75, 87
1, 459100, Note_on_c, 0, 80, 82
1, 459107, Note_on_c, 0, 83, 72
1, 459211, Note_off_c, 0, 75, 60
1, 459262, Note_off_c, 0, 87, 61
1, 459317, Poly_aftertouch_c, 0, 85, 0
1, 459321, Note_off_c, 0, 83, 53
1, 459357, Note_off_c, 0, 59, 48
1, 459360, Note_off_c, 0, 47, 51
1, 459421, Note_off_c, 0, 80, 63
1, 459509, Note_on_c, 0, 60, 94
1, 459512, Note_on_c, 0, 48, 89
1, 459592, Note_off_c, 0, 48, 63
1, 459596, Note_off_c, 0, 60, 62
1, 459666, Note_on_c, 0, 62, 105
1, 459667, Note_on_c, 0, 50, 97
1, 459730, Note_on_c, 0, 51, 42
1, 459754, Note_off_c, 0, 50, 59
1, 459761, Note_off_c, 0, 62, 62
1, 459764, Note_off_c, 0, 51, 57
1, 459771, Note_on_c, 0, 57, 47
1, 459807, Note_off_c, 0, 57, 65
1, 459850, Note_on_c, 0, 51, 101
1, 459851, Note_on_c, 0, 63, 105
1, 459859, Note_on_c, 0, 79, 94
1, 459861, Note_on_c, 0, 67, 92
1, 459861, Note_on_c, 0, 71, 90
1, 459871, Note_on_c, 0, 76, 77
1, 459888, Control_c, 0, 64, 80
1, 459903, Control_c, 0, 64, 58
1, 459918, Control_c, 0, 64, 0
1, 459962, Control_c, 0, 64, 30
1, 459977, Control_c, 0, 64, 58
1, 459992, Control_c, 0, 64, 73
1, 460007, Control_c, 0, 64, 112
1, 460022, Control_c, 0, 64, 127
1, 460148, Note_off_c, 0, 79, 49
1, 460228, Note_off_c, 0, 67, 48
1, 460239, Note_off_c, 0, 51, 63
1, 460249, Note_off_c, 0, 63, 60
1, 460264, Poly_aftertouch_c, 0, 54, 127
1, 460278, Note_on_c, 0, 57, 41
1, 460282, Poly_aftertouch_c, 0, 75, 127
1, 460292, Note_off_c, 0, 76, 52
1, 460320, Note_on_c, 0, 62, 82
1, 460320, Note_off_c, 0, 57, 60
1, 460320, Note_on_c, 0, 50, 82
1, 460347, Poly_aftertouch_c, 0, 54, 0
1, 460365, Poly_aftertouch_c, 0, 75, 0
1, 460380, Note_off_c, 0, 71, 59
1, 460391, Note_off_c, 0, 62, 61
1, 460411, Note_off_c, 0, 50, 63
1, 460472, Note_on_c, 0, 60, 96
1, 460475, Note_on_c, 0, 48, 96
1, 460553, Note_off_c, 0, 60, 62
1, 460567, Note_off_c, 0, 48, 63
1, 460631, Note_on_c, 0, 59, 102
1, 460634, Note_on_c, 0, 47, 103
1, 460638, Note_on_c, 0, 61, 94
1, 460638, Note_on_c, 0, 73, 96
1, 460644, Note_on_c, 0, 65, 81
1, 460655, Note_on_c, 0, 69, 73
1, 460667, Control_c, 0, 64, 87
1, 460682, Control_c, 0, 64, 64
1, 460696, Control_c, 0, 64, 0
1, 460741, Control_c, 0, 64, 26
1, 460756, Control_c, 0, 64, 58
1, 460770, Control_c, 0, 64, 72
1, 460785, Control_c, 0, 64, 107
1, 460800, Control_c, 0, 64, 127
1, 460840, Note_off_c, 0, 73, 63
1, 460907, Note_off_c, 0, 61, 60
1, 460919, Note_off_c, 0, 69, 56
1, 460993, Note_off_c, 0, 47, 57
1, 461009, Note_off_c, 0, 59, 57
1, 461029, Note_off_c, 0, 65, 52
1, 461080, Poly_aftertouch_c, 0, 49, 127
1, 461086, Note_on_c, 0, 58, 102
1, 461098, Note_on_c, 0, 46, 90
1, 461144, Poly_aftertouch_c, 0, 49, 0
1, 461193, Note_off_c, 0, 46, 63
1, 461280, Note_off_c, 0, 58, 63
1, 461429, Note_on_c, 0, 86, 103
1, 461430, Note_on_c, 0, 77, 94
1, 461432, Note_on_c, 0, 74, 91
1, 461436, Note_on_c, 0, 81, 83
1, 461439, Note_on_c, 0, 69, 91
1, 461441, Note_on_c, 0, 62, 82
1, 461441, Note_on_c, 0, 65, 80
1, 461516, Note_off_c, 0, 69, 60
1, 461543, Note_off_c, 0, 65, 62
1, 461551, Note_off_c, 0, 62, 64
1, 461679, Note_on_c, 0, 58, 106
1, 461684, Note_on_c, 0, 46, 91
1, 461727, Note_off_c, 0, 86, 54
1, 461733, Note_off_c, 0, 74, 48
1, 461783, Note_off_c, 0, 58, 60
1, 461795, Note_off_c, 0, 46, 60
1, 461834, Note_off_c, 0, 81, 46
1, 461896, Note_on_c, 0, 58, 110
1, 461900, Note_on_c, 0, 46, 96
1, 461907, Note_off_c, 0, 77, 59
1, 461985, Note_off_c, 0, 58, 61
1, 461987, Note_off_c, 0, 46, 61
1, 462091, Note_on_c, 0, 61, 105
1, 462095, Note_on_c, 0, 49, 97
1, 462116, Note_on_c, 0, 51, 67
1, 462150, Note_off_c, 0, 51, 38
1, 462187, Note_off_c, 0, 61, 60
1, 462195, Note_off_c, 0, 49, 59
1, 462339, Note_on_c, 0, 57, 101
1, 462340, Note_on_c, 0, 78, 99
1, 462341, Note_on_c, 0, 69, 94
1, 462342, Note_on_c, 0, 45, 97
1, 462342, Note_on_c, 0, 54, 97
1, 462343, Note_on_c, 0, 66, 94
1, 462350, Note_on_c, 0, 73, 80
1, 462351, Note_on_c, 0, 49, 79
1, 462384, Note_on_c, 0, 47, 46
1, 462393, Control_c, 0, 64, 85
1, 462408, Control_c, 0, 64, 59
1, 462423, Control_c, 0, 64, 0
1, 462424, Note_off_c, 0, 47, 45
1, 462482, Control_c, 0, 64, 52
1, 462497, Control_c, 0, 64, 70
1, 462512, Control_c, 0, 64, 127
1, 462559, Poly_aftertouch_c, 0, 75, 127
1, 462635, Note_off_c, 0, 78, 61
1, 462654, Note_off_c, 0, 45, 51
1, 462671, Note_off_c, 0, 66, 59
1, 462716, Poly_aftertouch_c, 0, 75, 0
1, 462731, Note_off_c, 0, 57, 51
1, 462809, Note_off_c, 0, 69, 59
1, 462812, Note_off_c, 0, 54, 55
1, 462816, Note_off_c, 0, 73, 62
1, 462975, Note_off_c, 0, 49, 58
1, 463063, Note_on_c, 0, 56, 112
1, 463068, Note_on_c, 0, 44, 100
1, 463101, Note_on_c, 0, 46, 43
1, 463102, Note_off_c, 0, 46, 127
1, 463133, Note_on_c, 0, 43, 14
1, 463146, Note_off_c, 0, 56, 60
1, 463158, Note_off_c, 0, 44, 63
1, 463176, Note_off_c, 0, 43, 41
1, 463259, Note_on_c, 0, 42, 98
1, 463259, Note_on_c, 0, 51, 98
1, 463277, Note_on_c, 0, 53, 71
1, 463282, Note_on_c, 0, 52, 63
1, 463298, Note_off_c, 0, 51, 65
1, 463298, Note_on_c, 0, 44, 30
1, 463299, Note_off_c, 0, 44, 127
1, 463299, Note_off_c, 0, 53, 64
1, 463304, Note_off_c, 0, 52, 64
1, 463310, Note_on_c, 0, 41, 23
1, 463311, Note_off_c, 0, 42, 62
1, 463353, Note_off_c, 0, 41, 54
1, 463361, Poly_aftertouch_c, 0, 40, 127
1, 463397, Poly_aftertouch_c, 0, 40, 0
1, 463406, Note_on_c, 0, 59, 97
1, 463411, Note_on_c, 0, 55, 104
1, 463411, Note_on_c, 0, 65, 102
1, 463412, Note_on_c, 0, 53, 91
1, 463415, Note_on_c, 0, 40, 69
1, 463417, Note_on_c, 0, 35, 84
1, 463423, Note_on_c, 0, 28, 86
1, 463439, Note_on_c, 0, 36, 51
1, 463454, Control_c, 0, 64, 81
1, 463469, Control_c, 0, 64, 58
1, 463474, Note_off_c, 0, 36, 55
1, 463484, Control_c, 0, 64, 0
1, 463528, Control_c, 0, 64, 34
1, 463542, Control_c, 0, 64, 64
1, 463557, Control_c, 0, 64, 86
1, 463572, Control_c, 0, 64, 127
1, 463621, Note_off_c, 0, 53, 60
1, 463635, Note_off_c, 0, 55, 58
1, 463652, Note_off_c, 0, 59, 62
1, 463672, Note_off_c, 0, 65, 58
1, 463876, Note_off_c, 0, 28, 60
1, 463887, Poly_aftertouch_c, 0, 73, 0
1, 463889, Note_on_c, 0, 65, 103
1, 463889, Note_on_c, 0, 77, 105
1, 463899, Note_off_c, 0, 35, 60
1, 463920, Note_off_c, 0, 40, 65
1, 463924, Poly_aftertouch_c, 0, 73, 127
1, 463963, Poly_aftertouch_c, 0, 73, 0
1, 464028, Note_off_c, 0, 65, 56
1, 464159, Note_off_c, 0, 77, 60
1, 464264, Note_on_c, 0, 63, 71
1, 464269, Note_on_c, 0, 71, 74
1, 464278, Note_on_c, 0, 75, 75
1, 464285, Note_on_c, 0, 77, 107
1, 464286, Note_on_c, 0, 68, 68
1, 464287, Note_on_c, 0, 89, 116
1, 464391, Note_off_c, 0, 75, 60
1, 464484, Note_off_c, 0, 63, 62
1, 464588, Note_off_c, 0, 89, 57
1, 464588, Poly_aftertouch_c, 0, 66, 127
1, 464607, Note_off_c, 0, 77, 60
1, 464619, Note_off_c, 0, 68, 64
1, 464633, Poly_aftertouch_c, 0, 66, 0
1, 464653, Note_off_c, 0, 71, 60
1, 464678, Note_on_c, 0, 76, 108
1, 464678, Note_on_c, 0, 88, 104
1, 464739, Poly_aftertouch_c, 0, 67, 0
1, 464932, Note_on_c, 0, 85, 19
1, 464955, Note_off_c, 0, 88, 59
1, 465018, Note_off_c, 0, 85, 35
1, 465049, Note_on_c, 0, 64, 80
1, 465052, Note_on_c, 0, 67, 84
1, 465053, Note_on_c, 0, 55, 78
1, 465058, Note_on_c, 0, 59, 67
1, 465078, Note_off_c, 0, 76, 59
1, 465228, Note_off_c, 0, 67, 54
1, 465331, Note_off_c, 0, 55, 37
1, 465392, Note_off_c, 0, 64, 51
1, 465456, Note_off_c, 0, 59, 60
1, 465941, Note_on_c, 0, 49, 71
1, 465948, Note_on_c, 0, 37, 66
1, 465948, Note_on_c, 0, 45, 67
1, 465951, Note_on_c, 0, 41, 64
1, 465952, Control_c, 0, 64, 113
1, 465956, Note_on_c, 0, 61, 67
1, 465957, Note_on_c, 0, 57, 59
1, 465965, Note_on_c, 0, 53, 58
1, 465966, Control_c, 0, 64, 73
1, 465981, Control_c, 0, 64, 59
1, 465996, Control_c, 0, 64, 53
1, 466010, Control_c, 0, 64, 58
1, 466025, Control_c, 0, 64, 63
1, 466040, Control_c, 0, 64, 70
1, 466045, Note_off_c, 0, 53, 62
1, 466055, Control_c, 0, 64, 90
1, 466070, Note_off_c, 0, 41, 62
1, 466070, Control_c, 0, 64, 127
1, 466074, Note_off_c, 0, 37, 61
1, 466079, Note_off_c, 0, 45, 60
1, 466082, Note_off_c, 0, 61, 62
1, 466112, Note_off_c, 0, 57, 59
1, 466132, Note_off_c, 0, 49, 62
1, 466415, Note_on_c, 0, 88, 92
1, 466417, Note_on_c, 0, 64, 90
1, 466417, Note_on_c, 0, 76, 88
1, 466455, Note_off_c, 0, 64, 66
1, 466458, Note_off_c, 0, 76, 64
1, 466470, Note_off_c, 0, 88, 64
1, 466627, Note_on_c, 0, 76, 93
1, 466627, Note_on_c, 0, 88, 100
1, 466629, Note_on_c, 0, 64, 103
1, 466665, Note_off_c, 0, 64, 69
1, 466665, Note_off_c, 0, 76, 66
1, 466669, Note_off_c, 0, 88, 67
1, 466723, Poly_aftertouch_c, 0, 65, 0
1, 466773, Note_on_c, 0, 88, 99
1, 466778, Note_on_c, 0, 76, 99
1, 466779, Note_on_c, 0, 64, 102
1, 466812, Note_off_c, 0, 88, 69
1, 466815, Note_off_c, 0, 76, 63
1, 466818, Note_off_c, 0, 64, 66
1, 466905, Note_on_c, 0, 88, 106
1, 466905, Note_on_c, 0, 64, 106
1, 466907, Note_on_c, 0, 76, 108
1, 466943, Note_off_c, 0, 64, 66
1, 466943, Note_off_c, 0, 88, 70
1, 466946, Note_off_c, 0, 76, 64
1, 467113, Note_on_c, 0, 69, 101
1, 467114, Note_on_c, 0, 50, 83
1, 467114, Note_on_c, 0, 57, 79
1, 467116, Note_on_c, 0, 65, 97
1, 467117, Note_on_c, 0, 74, 97
1, 467120, Note_on_c, 0, 62, 82
1, 467151, Note_on_c, 0, 76, 47
1, 467152, Note_off_c, 0, 76, 127
1, 467153, Note_off_c, 0, 65, 62
1, 467170, Note_off_c, 0, 69, 64
1, 467181, Note_off_c, 0, 57, 64
1, 467193, Note_off_c, 0, 74, 65
1, 467195, Note_off_c, 0, 50, 64
1, 467211, Note_off_c, 0, 62, 62
1, 467307, Note_on_c, 0, 64, 92
1, 467310, Note_on_c, 0, 88, 106
1, 467315, Note_on_c, 0, 76, 103
1, 467331, Note_off_c, 0, 64, 68
1, 467348, Note_off_c, 0, 76, 63
1, 467350, Note_off_c, 0, 88, 69
1, 467435, Note_on_c, 0, 64, 99
1, 467455, Note_on_c, 0, 88, 102
1, 467457, Note_on_c, 0, 76, 107
1, 467495, Note_off_c, 0, 76, 68
1, 467495, Control_c, 0, 64, 85
1, 467504, Note_off_c, 0, 88, 65
1, 467510, Control_c, 0, 64, 64
1, 467525, Control_c, 0, 64, 55
1, 467539, Note_on_c, 0, 67, 92
1, 467539, Control_c, 0, 64, 62
1, 467554, Control_c, 0, 64, 69
1, 467569, Control_c, 0, 64, 87
1, 467576, Note_off_c, 0, 64, 66
1, 467581, Note_off_c, 0, 67, 68
1, 467583, Control_c, 0, 64, 127
1, 467590, Note_on_c, 0, 79, 104
1, 467590, Note_on_c, 0, 91, 115
1, 467700, Note_on_c, 0, 51, 108
1, 467706, Note_on_c, 0, 42, 94
1, 467712, Note_on_c, 0, 46, 76
1, 467713, Note_off_c, 0, 91, 63
1, 467722, Note_off_c, 0, 79, 63
1, 467728, Note_off_c, 0, 42, 67
1, 467733, Note_off_c, 0, 51, 64
1, 467739, Note_off_c, 0, 46, 68
1, 467843, Poly_aftertouch_c, 0, 42, 127
1, 467845, Note_on_c, 0, 75, 110
1, 467847, Note_on_c, 0, 87, 109
1, 467853, Note_on_c, 0, 63, 101
1, 467857, Note_on_c, 0, 54, 93
1, 467865, Note_on_c, 0, 58, 77
1, 467865, Poly_aftertouch_c, 0, 42, 0
1, 467881, Note_off_c, 0, 87, 69
1, 467884, Note_off_c, 0, 75, 64
1, 467896, Note_on_c, 0, 85, 16
1, 467930, Note_off_c, 0, 85, 54
1, 468249, Note_off_c, 0, 58, 54
1, 468469, Note_off_c, 0, 63, 59
1, 468550, Note_off_c, 0, 54, 60
1, 468640, Note_on_c, 0, 72, 94
1, 468643, Note_on_c, 0, 52, 79
1, 468644, Note_on_c, 0, 64, 88
1, 468645, Note_on_c, 0, 60, 78
1, 468651, Note_on_c, 0, 67, 83
1, 468651, Control_c, 0, 64, 82
1, 468652, Note_on_c, 0, 55, 75
1, 468666, Control_c, 0, 64, 27
1, 468681, Control_c, 0, 64, 0
1, 468797, Note_off_c, 0, 67, 62
1, 468799, Control_c, 0, 64, 66
1, 468807, Note_off_c, 0, 64, 64
1, 468814, Control_c, 0, 64, 127
1, 468824, Note_off_c, 0, 55, 62
1, 468838, Note_off_c, 0, 52, 64
1, 468839, Note_off_c, 0, 72, 66
1, 468860, Note_off_c, 0, 60, 66
1, 469020, Note_on_c, 0, 66, 105
1, 469020, Note_on_c, 0, 78, 110
1, 469022, Note_on_c, 0, 90, 105
1, 469052, Note_off_c, 0, 66, 66
1, 469057, Note_off_c, 0, 90, 67
1, 469076, Note_on_c, 0, 80, 10
1, 469077, Note_off_c, 0, 80, 127
1, 469084, Note_off_c, 0, 78, 59
1, 469409, Note_on_c, 0, 47, 111
1, 469412, Note_on_c, 0, 51, 93
1, 469418, Note_on_c, 0, 39, 88
1, 469419, Note_on_c, 0, 59, 81
1, 469423, Note_on_c, 0, 56, 77
1, 469424, Note_on_c, 0, 44, 82
1, 469466, Note_off_c, 0, 39, 59
1, 469467, Note_off_c, 0, 44, 61
1, 469467, Note_off_c, 0, 51, 66
1, 469474, Note_off_c, 0, 47, 64
1, 469540, Note_off_c, 0, 56, 65
1, 469573, Note_off_c, 0, 59, 63
1, 469819, Note_on_c, 0, 67, 98
1, 469835, Note_on_c, 0, 79, 105
1, 469839, Note_on_c, 0, 91, 109
1, 469914, Note_off_c, 0, 79, 53
1, 469934, Note_off_c, 0, 91, 63
1, 469981, Note_on_c, 0, 69, 88
1, 469982, Note_off_c, 0, 67, 62
1, 470002, Note_on_c, 0, 81, 105
1, 470002, Note_on_c, 0, 93, 107
1, 470004, Note_off_c, 0, 69, 69
1, 470014, Control_c, 0, 64, 105
1, 470029, Control_c, 0, 64, 72
1, 470044, Control_c, 0, 64, 65
1, 470058, Control_c, 0, 64, 73
1, 470073, Control_c, 0, 64, 96
1, 470079, Note_on_c, 0, 55, 84
1, 470088, Control_c, 0, 64, 127
1, 470126, Note_on_c, 0, 58, 83
1, 470136, Note_off_c, 0, 81, 64
1, 470138, Note_off_c, 0, 93, 64
1, 470149, Note_off_c, 0, 55, 63
1, 470157, Note_on_c, 0, 62, 77
1, 470175, Note_on_c, 0, 86, 31
1, 470212, Note_off_c, 0, 86, 0
1, 470215, Note_off_c, 0, 58, 60
1, 470220, Note_on_c, 0, 86, 90
1, 470225, Note_on_c, 0, 82, 110
1, 470228, Note_on_c, 0, 94, 110
1, 470233, Note_on_c, 0, 70, 111
1, 470324, Poly_aftertouch_c, 0, 58, 0
1, 470499, Note_off_c, 0, 94, 52
1, 470516, Note_off_c, 0, 82, 60
1, 470542, Note_off_c, 0, 70, 58
1, 470590, Note_off_c, 0, 86, 64
1, 470591, Note_off_c, 0, 62, 61
1, 470627, Note_on_c, 0, 93, 105
1, 470628, Note_on_c, 0, 81, 108
1, 470631, Poly_aftertouch_c, 0, 86, 0
1, 470634, Note_on_c, 0, 69, 102
1, 470637, Note_on_c, 0, 86, 86
1, 470664, Note_on_c, 0, 59, 49
1, 470686, Note_off_c, 0, 59, 59
1, 470696, Note_off_c, 0, 69, 58
1, 470726, Note_off_c, 0, 93, 63
1, 470735, Note_off_c, 0, 81, 62
1, 470770, Note_off_c, 0, 86, 63
1, 470777, Note_on_c, 0, 67, 84
1, 470797, Note_off_c, 0, 67, 70
1, 470799, Note_on_c, 0, 79, 109
1, 470800, Note_on_c, 0, 86, 72
1, 470801, Note_on_c, 0, 91, 109
1, 470827, Note_off_c, 0, 86, 66
1, 470838, Control_c, 0, 64, 100
1, 470853, Control_c, 0, 64, 81
1, 470868, Control_c, 0, 64, 78
1, 470882, Control_c, 0, 64, 86
1, 470887, Note_on_c, 0, 49, 75
1, 470897, Control_c, 0, 64, 107
1, 470912, Control_c, 0, 64, 127
1, 470922, Note_off_c, 0, 91, 61
1, 470925, Note_off_c, 0, 79, 60
1, 470934, Note_on_c, 0, 53, 63
1, 470943, Note_on_c, 0, 86, 43
1, 470953, Note_on_c, 0, 52, 33
1, 470960, Note_on_c, 0, 57, 64
1, 470961, Note_off_c, 0, 49, 62
1, 470965, Note_off_c, 0, 86, 60
1, 470986, Note_off_c, 0, 52, 54
1, 471006, Note_off_c, 0, 53, 64
1, 471015, Note_on_c, 0, 78, 122
1, 471015, Note_on_c, 0, 90, 107
1, 471021, Note_on_c, 0, 66, 101
1, 471028, Note_on_c, 0, 87, 74
1, 471072, Note_on_c, 0, 54, 31
1, 471310, Note_off_c, 0, 87, 24
1, 471387, Note_off_c, 0, 90, 62
1, 471434, Note_off_c, 0, 78, 56
1, 471442, Note_on_c, 0, 85, 36
1, 471461, Note_off_c, 0, 66, 52
1, 471493, Note_on_c, 0, 77, 107
1, 471494, Note_on_c, 0, 65, 86
1, 471494, Note_on_c, 0, 89, 108
1, 471516, Poly_aftertouch_c, 0, 86, 0
1, 471519, Note_off_c, 0, 54, 0
1, 471528, Note_off_c, 0, 85, 61
1, 471557, Poly_aftertouch_c, 0, 54, 127
1, 471611, Note_off_c, 0, 89, 62
1, 471696, Note_off_c, 0, 77, 58
1, 471751, Poly_aftertouch_c, 0, 54, 0
1, 471795, Note_off_c, 0, 65, 59
1, 471849, Note_off_c, 0, 57, 40
1, 471916, Note_on_c, 0, 50, 81
1, 471916, Note_on_c, 0, 62, 82
1, 471916, Note_on_c, 0, 68, 70
1, 471922, Note_on_c, 0, 65, 74
1, 471924, Note_on_c, 0, 74, 79
1, 471924, Note_on_c, 0, 53, 73
1, 471924, Note_on_c, 0, 57, 70
1, 471928, Control_c, 0, 64, 104
1, 471932, Note_off_c, 0, 68, 63
1, 471942, Note_on_c, 0, 69, 76
1, 471943, Control_c, 0, 64, 84
1, 471958, Control_c, 0, 64, 83
1, 471973, Control_c, 0, 64, 90
1, 471988, Control_c, 0, 64, 107
1, 471992, Note_off_c, 0, 65, 64
1, 472002, Control_c, 0, 64, 127
1, 472037, Note_off_c, 0, 69, 65
1, 472041, Note_off_c, 0, 50, 62
1, 472046, Note_off_c, 0, 53, 63
1, 472056, Note_off_c, 0, 57, 64
1, 472068, Note_off_c, 0, 74, 63
1, 472083, Note_off_c, 0, 62, 63
1, 472166, Note_on_c, 0, 77, 103
1, 472166, Note_on_c, 0, 89, 106
1, 472167, Note_on_c, 0, 65, 98
1, 472198, Note_off_c, 0, 65, 63
1, 472199, Note_off_c, 0, 77, 66
1, 472202, Note_off_c, 0, 89, 66
1, 472293, Note_on_c, 0, 89, 100
1, 472294, Note_on_c, 0, 77, 103
1, 472294, Note_on_c, 0, 65, 102
1, 472317, Note_off_c, 0, 65, 68
1, 472323, Note_off_c, 0, 89, 69
1, 472325, Note_off_c, 0, 77, 64
1, 472394, Note_on_c, 0, 89, 104
1, 472395, Note_on_c, 0, 77, 104
1, 472398, Note_on_c, 0, 65, 88
1, 472413, Note_off_c, 0, 65, 75
1, 472426, Note_off_c, 0, 77, 66
1, 472434, Note_off_c, 0, 89, 66
1, 472485, Note_on_c, 0, 68, 104
1, 472516, Note_off_c, 0, 68, 66
1, 472517, Note_on_c, 0, 80, 103
1, 472521, Note_on_c, 0, 92, 119
1, 472550, Note_on_c, 0, 82, 50
1, 472558, Note_on_c, 0, 87, 37
1, 472571, Note_off_c, 0, 82, 60
1, 472641, Note_on_c, 0, 42, 101
1, 472643, Note_on_c, 0, 44, 90
1, 472644, Note_on_c, 0, 32, 93
1, 472662, Note_on_c, 0, 30, 60
1, 472663, Note_off_c, 0, 30, 127
1, 472664, Note_off_c, 0, 42, 70
1, 472666, Note_off_c, 0, 87, 0
1, 472676, Note_off_c, 0, 32, 64
1, 472692, Note_off_c, 0, 44, 64
1, 472697, Poly_aftertouch_c, 0, 30, 0
1, 472698, Note_off_c, 0, 92, 64
1, 472699, Note_off_c, 0, 80, 64
1, 472702, Poly_aftertouch_c, 0, 87, 127
1, 472705, Note_on_c, 0, 31, 5
1, 472732, Poly_aftertouch_c, 0, 87, 0
1, 472754, Note_off_c, 0, 31, 54
1, 472788, Note_on_c, 0, 76, 116
1, 472790, Note_on_c, 0, 88, 104
1, 472801, Note_on_c, 0, 64, 111
1, 472803, Note_on_c, 0, 52, 97
1, 472810, Note_on_c, 0, 56, 80
1, 472810, Note_on_c, 0, 87, 80
1, 472811, Note_on_c, 0, 54, 80
1, 472818, Note_on_c, 0, 82, 52
1, 472821, Note_on_c, 0, 53, 72
1, 472823, Note_off_c, 0, 87, 70
1, 472825, Note_off_c, 0, 88, 70
1, 472834, Note_off_c, 0, 76, 62
1, 472836, Note_off_c, 0, 82, 61
1, 473009, Note_off_c, 0, 52, 60
1, 473010, Note_off_c, 0, 64, 63
1, 473021, Note_off_c, 0, 56, 65
1, 473027, Note_off_c, 0, 54, 65
1, 473063, Note_on_c, 0, 57, 34
1, 473063, Note_off_c, 0, 53, 47
1, 473067, Note_on_c, 0, 55, 42
1, 473102, Note_off_c, 0, 57, 53
1, 473111, Note_off_c, 0, 55, 63
1, 473567, Note_on_c, 0, 53, 94
1, 473573, Note_on_c, 0, 41, 92
1, 473575, Note_on_c, 0, 29, 86
1, 473653, Note_off_c, 0, 41, 62
1, 473675, Note_off_c, 0, 29, 62
1, 473680, Note_off_c, 0, 53, 62
1, 473802, Note_on_c, 0, 49, 101
1, 473811, Note_on_c, 0, 37, 99
1, 473817, Note_on_c, 0, 25, 88
1, 473844, Note_off_c, 0, 25, 67
1, 473848, Note_on_c, 0, 27, 38
1, 473849, Note_off_c, 0, 27, 127
1, 473849, Note_off_c, 0, 37, 62
1, 473855, Note_off_c, 0, 49, 60
1, 473896, Poly_aftertouch_c, 0, 27, 0
1, 473963, Note_on_c, 0, 39, 94
1, 473964, Note_on_c, 0, 51, 101
1, 473973, Note_on_c, 0, 27, 85
1, 473982, Note_on_c, 0, 49, 63
1, 473990, Note_off_c, 0, 39, 67
1, 473996, Note_off_c, 0, 49, 71
1, 473998, Note_off_c, 0, 51, 68
1, 473999, Note_off_c, 0, 27, 64
1, 474039, Control_c, 0, 64, 83
1, 474049, Note_on_c, 0, 48, 112
1, 474054, Control_c, 0, 64, 55
1, 474056, Note_on_c, 0, 36, 101
1, 474058, Note_on_c, 0, 24, 95
1, 474069, Control_c, 0, 64, 0
1, 474077, Note_on_c, 0, 25, 67
1, 474084, Control_c, 0, 64, 17
1, 474098, Control_c, 0, 64, 52
1, 474107, Note_on_c, 0, 27, 3
1, 474113, Control_c, 0, 64, 67
1, 474128, Control_c, 0, 64, 95
1, 474142, Note_off_c, 0, 27, 46
1, 474143, Control_c, 0, 64, 127
1, 474144, Poly_aftertouch_c, 0, 30, 127
1, 474194, Note_off_c, 0, 25, 30
1, 474223, Note_off_c, 0, 36, 60
1, 474226, Note_off_c, 0, 48, 61
1, 474237, Note_off_c, 0, 24, 60
1, 474275, Poly_aftertouch_c, 0, 30, 0
1, 474330, Note_on_c, 0, 47, 105
1, 474339, Note_on_c, 0, 35, 109
1, 474351, Note_on_c, 0, 23, 109
1, 474372, Note_on_c, 0, 24, 58
1, 474374, Control_c, 0, 64, 72
1, 474375, Note_on_c, 0, 25, 57
1, 474389, Control_c, 0, 64, 0
1, 474416, Note_off_c, 0, 24, 0
1, 474431, Poly_aftertouch_c, 0, 28, 127
1, 474434, Note_on_c, 0, 28, 3
1, 474448, Control_c, 0, 64, 30
1, 474449, Note_off_c, 0, 25, 0
1, 474449, Note_on_c, 0, 25, 11
1, 474452, Poly_aftertouch_c, 0, 24, 127
1, 474462, Control_c, 0, 64, 68
1, 474472, Note_off_c, 0, 23, 63
1, 474477, Control_c, 0, 64, 100
1, 474491, Note_off_c, 0, 25, 61
1, 474492, Control_c, 0, 64, 127
1, 474495, Note_off_c, 0, 28, 41
1, 474497, Note_off_c, 0, 35, 66
1, 474498, Poly_aftertouch_c, 0, 24, 0
1, 474512, Poly_aftertouch_c, 0, 29, 0
1, 474594, Note_off_c, 0, 47, 59
1, 474873, Note_on_c, 0, 82, 111
1, 474873, Note_on_c, 0, 75, 100
1, 474874, Note_on_c, 0, 99, 113
1, 474876, Note_on_c, 0, 106, 118
1, 474882, Note_on_c, 0, 104, 104
1, 474883, Note_off_c, 0, 104, 127
1, 474892, Note_on_c, 0, 98, 70
1, 474907, Note_off_c, 0, 98, 69
1, 474922, Note_off_c, 0, 106, 62
1, 474930, Note_off_c, 0, 99, 41
1, 474954, Note_on_c, 0, 104, 34
1, 474989, Note_off_c, 0, 104, 34
1, 475026, Note_off_c, 0, 82, 62
1, 475042, Note_off_c, 0, 75, 59
1, 475052, Note_on_c, 0, 99, 26
1, 475104, Note_off_c, 0, 99, 48
1, 475200, Note_on_c, 0, 90, 117
1, 475204, Note_on_c, 0, 98, 113
1, 475209, Note_on_c, 0, 74, 115
1, 475212, Note_on_c, 0, 66, 106
1, 475236, Note_off_c, 0, 90, 67
1, 475237, Note_off_c, 0, 98, 66
1, 475332, Poly_aftertouch_c, 0, 65, 0
1, 475633, Poly_aftertouch_c, 0, 68, 127
1, 475854, Poly_aftertouch_c, 0, 68, 0
1, 475857, Note_off_c, 0, 66, 57
1, 475893, Note_off_c, 0, 74, 56
1, 475940, Note_on_c, 0, 92, 97
1, 475942, Note_on_c, 0, 84, 97
1, 475947, Note_on_c, 0, 68, 94
1, 475958, Note_on_c, 0, 60, 79
1, 475981, Note_off_c, 0, 84, 65
1, 475981, Note_off_c, 0, 92, 67
1, 475990, Note_off_c, 0, 68, 58
1, 475993, Note_off_c, 0, 60, 64
1, 475999, Note_on_c, 0, 69, 15
1, 476046, Note_off_c, 0, 69, 49
1, 476116, Note_on_c, 0, 81, 94
1, 476116, Note_on_c, 0, 53, 101
1, 476116, Note_on_c, 0, 76, 93
1, 476132, Note_on_c, 0, 59, 74
1, 476138, Note_on_c, 0, 77, 60
1, 476139, Note_off_c, 0, 77, 127
1, 476150, Note_off_c, 0, 59, 66
1, 476154, Note_off_c, 0, 53, 67
1, 476172, Note_off_c, 0, 76, 63
1, 476172, Note_off_c, 0, 81, 60
1, 476268, Note_on_c, 0, 65, 94
1, 476273, Note_on_c, 0, 49, 71
1, 476274, Note_off_c, 0, 49, 127
1, 476277, Note_on_c, 0, 73, 95
1, 476280, Note_on_c, 0, 41, 57
1, 476284, Note_on_c, 0, 40, 72
1, 476288, Note_on_c, 0, 48, 62
1, 476293, Note_off_c, 0, 73, 75
1, 476307, Note_off_c, 0, 48, 64
1, 476309, Note_off_c, 0, 65, 64
1, 476312, Note_off_c, 0, 41, 65
1, 476317, Note_off_c, 0, 40, 64
1, 476419, Control_c, 0, 64, 94
1, 476420, Note_on_c, 0, 43, 106
1, 476423, Note_on_c, 0, 59, 107
1, 476427, Note_on_c, 0, 35, 97
1, 476433, Note_on_c, 0, 67, 93
1, 476434, Control_c, 0, 64, 62
1, 476449, Control_c, 0, 64, 0
1, 476491, Note_off_c, 0, 35, 62
1, 476493, Control_c, 0, 64, 28
1, 476504, Note_off_c, 0, 43, 65
1, 476508, Control_c, 0, 64, 62
1, 476523, Control_c, 0, 64, 76
1, 476538, Control_c, 0, 64, 127
1, 476566, Note_off_c, 0, 59, 61
1, 476616, Note_off_c, 0, 67, 64
1, 476770, Note_on_c, 0, 70, 103
1, 476771, Note_on_c, 0, 63, 101
1, 476772, Note_on_c, 0, 94, 120
1, 476773, Note_on_c, 0, 87, 111
1, 476791, Note_on_c, 0, 92, 69
1, 476792, Note_off_c, 0, 92, 127
1, 476814, Note_off_c, 0, 87, 0
1, 476825, Note_on_c, 0, 95, 14
1, 476826, Note_off_c, 0, 95, 127
1, 476851, Poly_aftertouch_c, 0, 87, 127
1, 476951, Poly_aftertouch_c, 0, 87, 0
1, 476981, Note_off_c, 0, 94, 59
1, 476986, Note_off_c, 0, 63, 59
1, 477004, Note_off_c, 0, 70, 57
1, 477067, Note_on_c, 0, 94, 111
1, 477069, Note_on_c, 0, 87, 116
1, 477072, Note_on_c, 0, 70, 105
1, 477081, Note_on_c, 0, 63, 88
1, 477082, Note_on_c, 0, 92, 74
1, 477083, Note_off_c, 0, 92, 127
1, 477087, Note_on_c, 0, 95, 73
1, 477088, Note_off_c, 0, 95, 127
1, 477116, Note_off_c, 0, 94, 67
1, 477130, Note_off_c, 0, 87, 46
1, 477288, Note_off_c, 0, 70, 59
1, 477318, Note_off_c, 0, 63, 60
1, 477408, Note_on_c, 0, 78, 115
1, 477408, Note_on_c, 0, 86, 98
1, 477418, Note_on_c, 0, 62, 103
1, 477420, Note_on_c, 0, 54, 100
1, 477443, Control_c, 0, 64, 105
1, 477458, Control_c, 0, 64, 72
1, 477472, Control_c, 0, 64, 56
1, 477487, Control_c, 0, 64, 48
1, 477502, Control_c, 0, 64, 61
1, 477517, Control_c, 0, 64, 70
1, 477532, Control_c, 0, 64, 97
1, 477546, Control_c, 0, 64, 127
1, 477803, Note_off_c, 0, 86, 60
1, 477827, Note_off_c, 0, 78, 58
1, 477846, Note_off_c, 0, 54, 60
1, 477850, Note_off_c, 0, 62, 58
1, 477914, Note_on_c, 0, 72, 100
1, 477914, Note_on_c, 0, 80, 105
1, 477925, Note_on_c, 0, 56, 95
1, 477937, Note_on_c, 0, 48, 73
1, 477944, Note_off_c, 0, 72, 67
1, 477953, Note_off_c, 0, 80, 60
1, 477967, Note_off_c, 0, 56, 66
1, 477969, Note_off_c, 0, 48, 66
1, 478080, Control_c, 0, 64, 106
1, 478083, Note_on_c, 0, 64, 106
1, 478097, Note_on_c, 0, 52, 101
1, 478098, Note_on_c, 0, 69, 94
1, 478099, Note_on_c, 0, 71, 91
1, 478103, Control_c, 0, 64, 72
1, 478104, Note_on_c, 0, 57, 80
1, 478118, Note_off_c, 0, 71, 73
1, 478118, Control_c, 0, 64, 63
1, 478125, Note_on_c, 0, 55, 61
1, 478133, Control_c, 0, 64, 64
1, 478136, Note_on_c, 0, 65, 11
1, 478137, Note_off_c, 0, 65, 127
1, 478137, Note_off_c, 0, 64, 64
1, 478147, Control_c, 0, 64, 70
1, 478150, Note_off_c, 0, 69, 63
1, 478151, Note_off_c, 0, 55, 38
1, 478153, Note_off_c, 0, 57, 54
1, 478156, Note_off_c, 0, 52, 61
1, 478162, Control_c, 0, 64, 83
1, 478177, Control_c, 0, 64, 127
1, 478196, Note_on_c, 0, 65, 80
1, 478212, Note_on_c, 0, 53, 82
1, 478217, Note_on_c, 0, 60, 74
1, 478226, Note_on_c, 0, 47, 52
1, 478235, Note_off_c, 0, 53, 67
1, 478236, Note_on_c, 0, 48, 51
1, 478243, Note_off_c, 0, 60, 69
1, 478248, Note_off_c, 0, 65, 64
1, 478251, Note_off_c, 0, 47, 57
1, 478262, Note_off_c, 0, 48, 57
1, 478304, Note_on_c, 0, 63, 99
1, 478310, Note_on_c, 0, 51, 104
1, 478313, Note_on_c, 0, 43, 84
1, 478317, Note_on_c, 0, 55, 85
1, 478333, Note_off_c, 0, 51, 68
1, 478337, Note_off_c, 0, 43, 66
1, 478337, Note_off_c, 0, 55, 71
1, 478348, Note_off_c, 0, 63, 61
1, 478400, Control_c, 0, 64, 71
1, 478415, Control_c, 0, 64, 0
1, 478418, Note_on_c, 0, 47, 86
1, 478420, Note_on_c, 0, 55, 84
1, 478422, Note_on_c, 0, 43, 91
1, 478433, Note_on_c, 0, 45, 69
1, 478434, Note_off_c, 0, 45, 127
1, 478435, Note_on_c, 0, 35, 72
1, 478436, Note_on_c, 0, 36, 77
1, 478439, Note_off_c, 0, 47, 70
1, 478449, Note_on_c, 0, 42, 60
1, 478460, Note_off_c, 0, 55, 63
1, 478474, Control_c, 0, 64, 51
1, 478478, Note_off_c, 0, 36, 52
1, 478478, Note_off_c, 0, 42, 57
1, 478488, Control_c, 0, 64, 73
1, 478497, Note_off_c, 0, 35, 46
1, 478503, Control_c, 0, 64, 127
1, 478526, Note_off_c, 0, 43, 62
1, 478552, Note_on_c, 0, 70, 106
1, 478553, Note_on_c, 0, 63, 113
1, 478586, Note_off_c, 0, 63, 61
1, 478608, Control_c, 0, 64, 100
1, 478617, Note_off_c, 0, 70, 60
1, 478623, Control_c, 0, 64, 67
1, 478637, Control_c, 0, 64, 0
1, 478682, Note_on_c, 0, 54, 91
1, 478682, Note_on_c, 0, 60, 96
1, 478699, Note_on_c, 0, 52, 70
1, 478709, Note_off_c, 0, 54, 62
1, 478718, Note_off_c, 0, 60, 64
1, 478721, Note_on_c, 0, 53, 45
1, 478734, Note_off_c, 0, 52, 64
1, 478750, Note_off_c, 0, 53, 56
1, 478804, Note_on_c, 0, 56, 99
1, 478812, Note_on_c, 0, 48, 82
1, 478860, Note_off_c, 0, 56, 66
1, 478884, Note_off_c, 0, 48, 64
1, 478941, Note_on_c, 0, 52, 105
1, 478944, Note_on_c, 0, 57, 103
1, 478969, Control_c, 0, 64, 58
1, 478984, Control_c, 0, 64, 105
1, 479000, Control_c, 0, 64, 127
1, 479065, Note_on_c, 0, 49, 96
1, 479070, Note_on_c, 0, 41, 90
1, 479085, Note_off_c, 0, 57, 57
1, 479102, Note_off_c, 0, 49, 66
1, 479116, Note_off_c, 0, 52, 60
1, 479123, Note_off_c, 0, 41, 64
1, 479210, Note_on_c, 0, 43, 104
1, 479222, Control_c, 0, 64, 102
1, 479223, Note_on_c, 0, 35, 88
1, 479237, Control_c, 0, 64, 70
1, 479252, Control_c, 0, 64, 38
1, 479266, Control_c, 0, 64, 0
1, 479296, Note_off_c, 0, 35, 59
1, 479313, Note_off_c, 0, 43, 62
1, 479339, Note_on_c, 0, 51, 122
1, 479346, Note_on_c, 0, 58, 101
1, 479489, Control_c, 0, 64, 76
1, 479495, Note_on_c, 0, 42, 104
1, 479495, Note_on_c, 0, 50, 96
1, 479496, Note_off_c, 0, 51, 59
1, 479504, Control_c, 0, 64, 127
1, 479511, Note_off_c, 0, 58, 62
1, 479539, Note_off_c, 0, 50, 63
1, 479586, Note_off_c, 0, 42, 64
1, 479652, Note_on_c, 0, 44, 102
1, 479660, Note_on_c, 0, 36, 87
1, 479705, Note_off_c, 0, 44, 64
1, 479732, Note_off_c, 0, 36, 63
1, 479778, Control_c, 0, 64, 83
1, 479781, Poly_aftertouch_c, 0, 39, 0
1, 479794, Control_c, 0, 64, 53
1, 479807, Note_on_c, 0, 45, 116
1, 479809, Note_on_c, 0, 40, 108
1, 479809, Control_c, 0, 64, 0
1, 479832, Note_on_c, 0, 42, 55
1, 479833, Note_off_c, 0, 42, 127
1, 479874, Poly_aftertouch_c, 0, 42, 0
1, 479880, Note_on_c, 0, 29, 17
1, 479886, Note_on_c, 0, 43, 45
1, 479928, Note_off_c, 0, 29, 48
1, 479966, Note_on_c, 0, 37, 116
1, 479967, Note_on_c, 0, 29, 105
1, 479968, Poly_aftertouch_c, 0, 28, 0
1, 479970, Note_on_c, 0, 28, 88
1, 480011, Note_off_c, 0, 45, 58
1, 480012, Note_off_c, 0, 37, 58
1, 480013, Note_off_c, 0, 40, 59
1, 480038, Note_off_c, 0, 43, 47
1, 480045, Control_c, 0, 64, 62
1, 480055, Note_off_c, 0, 28, 64
1, 480060, Control_c, 0, 64, 127
1, 480062, Note_off_c, 0, 29, 61
1, 480164, Control_c, 0, 64, 102
1, 480179, Control_c, 0, 64, 58
1, 480193, Control_c, 0, 64, 0
1, 480256, Note_on_c, 0, 34, 106
1, 480261, Note_on_c, 0, 22, 97
1, 480283, Note_on_c, 0, 25, 60
1, 480290, Note_on_c, 0, 23, 45
1, 480312, Control_c, 0, 64, 36
1, 480327, Control_c, 0, 64, 127
1, 480343, Note_on_c, 0, 24, 12
1, 480530, Note_off_c, 0, 22, 55
1, 480563, Note_off_c, 0, 23, 34
1, 480572, Note_off_c, 0, 24, 15
1, 480636, Note_off_c, 0, 25, 39
1, 480668, Note_off_c, 0, 34, 57
1, 481004, Note_on_c, 0, 46, 86
1, 481020, Note_on_c, 0, 64, 102
1, 481020, Note_on_c, 0, 72, 98
1, 481029, Note_on_c, 0, 57, 101
1, 481036, Note_on_c, 0, 52, 77
1, 481077, Note_on_c, 0, 50, 41
1, 481133, Note_off_c, 0, 64, 63
1, 481135, Note_off_c, 0, 57, 66
1, 481137, Note_off_c, 0, 72, 63
1, 481175, Note_off_c, 0, 50, 63
1, 481198, Note_on_c, 0, 56, 105
1, 481198, Note_on_c, 0, 68, 105
1, 481212, Note_off_c, 0, 52, 37
1, 481218, Note_on_c, 0, 70, 65
1, 481219, Note_off_c, 0, 70, 127
1, 481231, Note_on_c, 0, 69, 53
1, 481255, Note_off_c, 0, 69, 59
1, 481263, Note_off_c, 0, 68, 45
1, 481297, Note_off_c, 0, 46, 57
1, 481391, Note_off_c, 0, 56, 61
1, 481828, Note_on_c, 0, 76, 120
1, 481938, Note_off_c, 0, 76, 65
1, 481990, Note_on_c, 0, 77, 110
1, 482012, Note_on_c, 0, 83, 67
1, 482029, Note_on_c, 0, 81, 37
1, 482030, Note_off_c, 0, 81, 127
1, 482030, Note_off_c, 0, 83, 68
1, 482057, Poly_aftertouch_c, 0, 81, 0
1, 482080, Note_on_c, 0, 61, 107
1, 482083, Note_on_c, 0, 49, 99
1, 482098, Note_on_c, 0, 51, 74
1, 482113, Note_off_c, 0, 61, 67
1, 482116, Note_off_c, 0, 51, 66
1, 482120, Note_off_c, 0, 49, 66
1, 482139, Note_on_c, 0, 78, 101
1, 482158, Note_off_c, 0, 77, 61
1, 482195, Note_on_c, 0, 65, 100
1, 482203, Note_on_c, 0, 53, 73
1, 482208, Note_off_c, 0, 78, 65
1, 482214, Note_on_c, 0, 56, 65
1, 482227, Note_off_c, 0, 53, 66
1, 482229, Note_off_c, 0, 65, 64
1, 482239, Note_off_c, 0, 56, 68
1, 482272, Note_on_c, 0, 80, 115
1, 482272, Note_on_c, 0, 82, 110
1, 482283, Note_on_c, 0, 64, 104
1, 482286, Note_on_c, 0, 52, 102
1, 482306, Note_on_c, 0, 54, 41
1, 482307, Note_on_c, 0, 81, 45
1, 482329, Note_off_c, 0, 81, 60
1, 482457, Note_off_c, 0, 80, 50
1, 482475, Note_on_c, 0, 79, 101
1, 482490, Note_off_c, 0, 82, 65
1, 482492, Note_off_c, 0, 64, 51
1, 482570, Note_on_c, 0, 78, 95
1, 482596, Note_off_c, 0, 79, 67
1, 482601, Note_off_c, 0, 52, 59
1, 482614, Note_off_c, 0, 54, 50
1, 482648, Note_off_c, 0, 78, 70
1, 482662, Note_on_c, 0, 77, 100
1, 482713, Note_off_c, 0, 77, 66
1, 482764, Note_on_c, 0, 34, 109
1, 482770, Note_on_c, 0, 22, 98
1, 482784, Note_on_c, 0, 32, 75
1, 482790, Note_on_c, 0, 25, 60
1, 482810, Note_on_c, 0, 27, 32
1, 482811, Note_off_c, 0, 27, 127
1, 482811, Note_on_c, 0, 23, 50
1, 482817, Control_c, 0, 64, 73
1, 482829, Note_off_c, 0, 32, 45
1, 482832, Control_c, 0, 64, 0
1, 482852, Poly_aftertouch_c, 0, 27, 0
1, 482921, Control_c, 0, 64, 49
1, 482936, Control_c, 0, 64, 66
1, 482951, Control_c, 0, 64, 86
1, 482966, Control_c, 0, 64, 127
1, 483034, Note_off_c, 0, 22, 57
1, 483052, Note_off_c, 0, 23, 36
1, 483122, Note_off_c, 0, 34, 61
1, 483126, Note_off_c, 0, 25, 37
1, 483549, Note_on_c, 0, 46, 45
1, 483595, Note_on_c, 0, 64, 51
1, 483609, Note_on_c, 0, 72, 68
1, 483622, Note_on_c, 0, 52, 39
1, 483633, Note_on_c, 0, 57, 71
1, 483670, Note_off_c, 0, 57, 65
1, 483670, Note_off_c, 0, 64, 61
1, 483702, Note_off_c, 0, 72, 64
1, 483761, Note_on_c, 0, 69, 105
1, 483768, Note_on_c, 0, 57, 82
1, 483797, Note_off_c, 0, 57, 66
1, 483803, Note_off_c, 0, 69, 66
1, 483845, Note_off_c, 0, 52, 0
1, 483861, Note_on_c, 0, 52, 35
1, 483861, Note_on_c, 0, 69, 103
1, 483863, Note_on_c, 0, 57, 86
1, 483891, Note_off_c, 0, 57, 66
1, 483895, Note_off_c, 0, 69, 68
1, 483908, Note_off_c, 0, 46, 0
1, 483913, Note_off_c, 0, 52, 66
1, 483941, Poly_aftertouch_c, 0, 46, 0
1, 483947, Note_on_c, 0, 68, 117
1, 483949, Note_on_c, 0, 56, 98
1, 483979, Note_off_c, 0, 68, 69
1, 483987, Note_off_c, 0, 56, 67
1, 484009, Note_on_c, 0, 57, 8
1, 484057, Note_off_c, 0, 57, 49
1, 484467, Note_on_c, 0, 76, 106
1, 484553, Note_off_c, 0, 76, 66
1, 484617, Note_on_c, 0, 77, 107
1, 484644, Note_on_c, 0, 83, 65
1, 484645, Note_off_c, 0, 83, 127
1, 484700, Note_on_c, 0, 61, 109
1, 484704, Note_on_c, 0, 49, 98
1, 484707, Note_off_c, 0, 77, 64
1, 484732, Note_off_c, 0, 61, 68
1, 484733, Note_off_c, 0, 49, 64
1, 484752, Note_on_c, 0, 78, 113
1, 484790, Note_on_c, 0, 80, 56
1, 484808, Note_on_c, 0, 65, 95
1, 484810, Note_off_c, 0, 78, 64
1, 484819, Note_off_c, 0, 80, 64
1, 484822, Note_on_c, 0, 53, 68
1, 484838, Note_on_c, 0, 56, 55
1, 484841, Note_off_c, 0, 65, 64
1, 484850, Note_off_c, 0, 53, 64
1, 484857, Note_on_c, 0, 54, 22
1, 484859, Note_off_c, 0, 56, 64
1, 484885, Note_on_c, 0, 80, 115
1, 484888, Note_on_c, 0, 82, 106
1, 484893, Note_off_c, 0, 54, 53
1, 484899, Note_on_c, 0, 64, 107
1, 484905, Note_on_c, 0, 52, 95
1, 484916, Note_on_c, 0, 53, 81
1, 484975, Poly_aftertouch_c, 0, 81, 127
1, 484978, Poly_aftertouch_c, 0, 54, 127
1, 485002, Poly_aftertouch_c, 0, 81, 0
1, 485037, Note_off_c, 0, 53, 22
1, 485068, Note_off_c, 0, 64, 50
1, 485085, Note_on_c, 0, 79, 97
1, 485105, Note_off_c, 0, 80, 53
1, 485133, Note_off_c, 0, 82, 61
1, 485161, Note_off_c, 0, 52, 63
1, 485167, Poly_aftertouch_c, 0, 54, 0
1, 485178, Note_on_c, 0, 78, 95
1, 485195, Note_off_c, 0, 79, 66
1, 485252, Note_off_c, 0, 78, 67
1, 485258, Note_on_c, 0, 77, 98
1, 485302, Note_off_c, 0, 77, 67
1, 485330, Note_on_c, 0, 34, 109
1, 485336, Note_on_c, 0, 22, 101
1, 485386, Note_on_c, 0, 32, 17
1, 485389, Control_c, 0, 64, 72
1, 485404, Control_c, 0, 64, 0
1, 485431, Note_off_c, 0, 32, 45
1, 485479, Control_c, 0, 64, 22
1, 485494, Control_c, 0, 64, 52
1, 485508, Control_c, 0, 64, 62
1, 485523, Control_c, 0, 64, 69
1, 485538, Control_c, 0, 64, 84
1, 485553, Control_c, 0, 64, 127
1, 485767, Note_off_c, 0, 22, 58
1, 485881, Note_off_c, 0, 34, 58
1, 486190, Note_on_c, 0, 46, 70
1, 486204, Note_on_c, 0, 68, 96
1, 486204, Note_on_c, 0, 72, 90
1, 486217, Note_on_c, 0, 60, 79
1, 486228, Note_on_c, 0, 56, 74
1, 486245, Note_on_c, 0, 62, 46
1, 486246, Note_off_c, 0, 62, 127
1, 486380, Note_off_c, 0, 68, 60
1, 486390, Note_off_c, 0, 56, 63
1, 486398, Note_off_c, 0, 72, 64
1, 486434, Note_on_c, 0, 67, 103
1, 486435, Note_on_c, 0, 55, 71
1, 486871, Note_off_c, 0, 60, 35
1, 487061, Note_off_c, 0, 67, 52
1, 487267, Note_on_c, 0, 71, 70
1, 487428, Note_on_c, 0, 72, 95
1, 487496, Note_off_c, 0, 46, 63
1, 487499, Note_on_c, 0, 49, 71
1, 487559, Note_on_c, 0, 73, 95
1, 487574, Note_off_c, 0, 55, 60
1, 487616, Note_off_c, 0, 71, 33
1, 487617, Note_on_c, 0, 53, 83
1, 487705, Note_off_c, 0, 72, 33
1, 487715, Note_off_c, 0, 49, 60
1, 487724, Control_c, 0, 64, 107
1, 487739, Control_c, 0, 64, 90
1, 487754, Control_c, 0, 64, 82
1, 487770, Control_c, 0, 64, 76
1, 487785, Control_c, 0, 64, 71
1, 487789, Note_on_c, 0, 76, 77
1, 487790, Note_on_c, 0, 75, 67
1, 487798, Note_on_c, 0, 52, 65
1, 487800, Control_c, 0, 64, 66
1, 487815, Control_c, 0, 64, 63
1, 487837, Control_c, 0, 64, 59
1, 487839, Note_off_c, 0, 73, 62
1, 487851, Control_c, 0, 64, 58
1, 487866, Control_c, 0, 64, 58
1, 487874, Note_off_c, 0, 53, 62
1, 487896, Control_c, 0, 64, 57
1, 487911, Control_c, 0, 64, 57
1, 487926, Control_c, 0, 64, 56
1, 487956, Control_c, 0, 64, 55
1, 487970, Control_c, 0, 64, 54
1, 487985, Control_c, 0, 64, 53
1, 488000, Control_c, 0, 64, 52
1, 488015, Control_c, 0, 64, 51
1, 488029, Control_c, 0, 64, 50
1, 488044, Control_c, 0, 64, 50
1, 488103, Control_c, 0, 64, 51
1, 488118, Control_c, 0, 64, 52
1, 488133, Control_c, 0, 64, 53
1, 488148, Control_c, 0, 64, 54
1, 488162, Control_c, 0, 64, 55
1, 488177, Control_c, 0, 64, 56
1, 488179, Note_on_c, 0, 74, 48
1, 488192, Control_c, 0, 64, 58
1, 488207, Control_c, 0, 64, 59
1, 488222, Control_c, 0, 64, 61
1, 488236, Control_c, 0, 64, 62
1, 488251, Control_c, 0, 64, 63
1, 488266, Control_c, 0, 64, 64
1, 488281, Control_c, 0, 64, 66
1, 488296, Control_c, 0, 64, 68
1, 488300, Note_off_c, 0, 52, 59
1, 488310, Control_c, 0, 64, 73
1, 488325, Control_c, 0, 64, 80
1, 488326, Note_on_c, 0, 73, 49
1, 488340, Control_c, 0, 64, 93
1, 488355, Control_c, 0, 64, 127
1, 488404, Note_off_c, 0, 74, 35
1, 488417, Note_on_c, 0, 72, 56
1, 488486, Note_off_c, 0, 75, 48
1, 488496, Note_off_c, 0, 73, 36
1, 488500, Note_off_c, 0, 72, 59
1, 488562, Control_c, 0, 64, 108
1, 488567, Note_off_c, 0, 76, 53
1, 488585, Control_c, 0, 64, 82
1, 488600, Control_c, 0, 64, 68
1, 488606, Note_on_c, 0, 34, 43
1, 488615, Control_c, 0, 64, 56
1, 488630, Control_c, 0, 64, 0
1, 488793, Control_c, 0, 64, 17
1, 488808, Control_c, 0, 64, 46
1, 488823, Control_c, 0, 64, 56
1, 488838, Control_c, 0, 64, 63
1, 488852, Control_c, 0, 64, 69
1, 488867, Control_c, 0, 64, 78
1, 488882, Control_c, 0, 64, 94
1, 488897, Control_c, 0, 64, 127
1, 488948, Note_off_c, 0, 34, 43
1, 489759, Note_on_c, 0, 46, 39
1, 489774, Note_on_c, 0, 56, 50
1, 489866, Note_off_c, 0, 56, 55
1, 490030, Note_on_c, 0, 56, 43
1, 490158, Note_off_c, 0, 56, 60
1, 490312, Note_on_c, 0, 55, 38
1, 490424, Control_c, 0, 64, 107
1, 490439, Control_c, 0, 64, 97
1, 490454, Control_c, 0, 64, 92
1, 490469, Control_c, 0, 64, 88
1, 490484, Control_c, 0, 64, 85
1, 490498, Control_c, 0, 64, 82
1, 490513, Control_c, 0, 64, 80
1, 490528, Control_c, 0, 64, 79
1, 490542, Control_c, 0, 64, 77
1, 490557, Control_c, 0, 64, 76
1, 490572, Control_c, 0, 64, 75
1, 490587, Control_c, 0, 64, 73
1, 490602, Control_c, 0, 64, 72
1, 490617, Control_c, 0, 64, 71
1, 490631, Control_c, 0, 64, 70
1, 490646, Control_c, 0, 64, 69
1, 490661, Control_c, 0, 64, 68
1, 490676, Control_c, 0, 64, 67
1, 490691, Control_c, 0, 64, 67
1, 490735, Control_c, 0, 64, 67
1, 490764, Control_c, 0, 64, 68
1, 490779, Control_c, 0, 64, 68
1, 490794, Control_c, 0, 64, 70
1, 490795, Note_on_c, 0, 59, 50
1, 490809, Control_c, 0, 64, 71
1, 490831, Control_c, 0, 64, 72
1, 490846, Control_c, 0, 64, 74
1, 490861, Control_c, 0, 64, 76
1, 490876, Control_c, 0, 64, 78
1, 490891, Control_c, 0, 64, 80
1, 490905, Control_c, 0, 64, 81
1, 491033, Note_on_c, 0, 60, 71
1, 491128, Control_c, 0, 64, 82
1, 491145, Note_on_c, 0, 49, 48
1, 491167, Note_off_c, 0, 59, 32
1, 491206, Note_on_c, 0, 61, 77
1, 491220, Note_off_c, 0, 46, 45
1, 491232, Control_c, 0, 64, 81
1, 491262, Control_c, 0, 64, 81
1, 491291, Control_c, 0, 64, 80
1, 491317, Note_off_c, 0, 55, 30
1, 491321, Note_on_c, 0, 53, 55
1, 491321, Control_c, 0, 64, 80
1, 491330, Poly_aftertouch_c, 0, 54, 127
1, 491336, Control_c, 0, 64, 79
1, 491351, Control_c, 0, 64, 79
1, 491352, Poly_aftertouch_c, 0, 54, 0
1, 491366, Control_c, 0, 64, 78
1, 491395, Control_c, 0, 64, 77
1, 491410, Control_c, 0, 64, 77
1, 491425, Control_c, 0, 64, 76
1, 491440, Control_c, 0, 64, 76
1, 491454, Control_c, 0, 64, 75
1, 491469, Control_c, 0, 64, 75
1, 491484, Control_c, 0, 64, 74
1, 491494, Note_off_c, 0, 49, 33
1, 491499, Control_c, 0, 64, 73
1, 491514, Control_c, 0, 64, 72
1, 491528, Control_c, 0, 64, 72
1, 491543, Control_c, 0, 64, 71
1, 491558, Control_c, 0, 64, 70
1, 491578, Note_on_c, 0, 52, 42
1, 491580, Control_c, 0, 64, 69
1, 491595, Control_c, 0, 64, 68
1, 491595, Control_c, 0, 67, 15
1, 491601, Note_on_c, 0, 63, 58
1, 491610, Control_c, 0, 64, 67
1, 491610, Control_c, 0, 67, 25
1, 491625, Control_c, 0, 64, 66
1, 491625, Control_c, 0, 67, 35
1, 491640, Control_c, 0, 64, 64
1, 491640, Control_c, 0, 67, 45
1, 491654, Control_c, 0, 64, 63
1, 491654, Control_c, 0, 67, 54
1, 491669, Control_c, 0, 64, 61
1, 491669, Control_c, 0, 67, 63
1, 491680, Note_off_c, 0, 53, 54
1, 491684, Control_c, 0, 64, 60
1, 491684, Control_c, 0, 67, 73
1, 491699, Control_c, 0, 64, 59
1, 491699, Control_c, 0, 67, 83
1, 491714, Control_c, 0, 64, 58
1, 491714, Control_c, 0, 67, 93
1, 491728, Control_c, 0, 64, 57
1, 491728, Control_c, 0, 67, 105
1, 491736, Note_off_c, 0, 61, 62
1, 491743, Control_c, 0, 64, 55
1, 491743, Control_c, 0, 67, 115
1, 491758, Control_c, 0, 64, 54
1, 491758, Control_c, 0, 67, 125
1, 491774, Control_c, 0, 64, 52
1, 491774, Control_c, 0, 67, 127
1, 491789, Control_c, 0, 64, 51
1, 491803, Control_c, 0, 64, 50
1, 491813, Note_off_c, 0, 60, 28
1, 491818, Control_c, 0, 64, 48
1, 491833, Control_c, 0, 64, 47
1, 491848, Control_c, 0, 64, 47
1, 491863, Control_c, 0, 64, 46
1, 491877, Control_c, 0, 64, 45
1, 491892, Control_c, 0, 64, 45
1, 491907, Control_c, 0, 64, 44
1, 491922, Control_c, 0, 64, 44
1, 491966, Control_c, 0, 64, 43
1, 492176, Note_on_c, 0, 62, 48
1, 492261, Note_off_c, 0, 63, 57
1, 492529, Note_on_c, 0, 61, 46
1, 492566, Control_c, 0, 64, 44
1, 492616, Note_off_c, 0, 62, 55
1, 492760, Control_c, 0, 64, 44
1, 492973, Note_on_c, 0, 63, 11
1, 493033, Note_on_c, 0, 60, 40
1, 493137, Control_c, 0, 64, 45
1, 493150, Note_off_c, 0, 63, 40
1, 493151, Control_c, 0, 64, 46
1, 493164, Note_off_c, 0, 61, 37
1, 493166, Control_c, 0, 64, 48
1, 493181, Control_c, 0, 64, 51
1, 493196, Control_c, 0, 64, 54
1, 493211, Control_c, 0, 64, 56
1, 493226, Control_c, 0, 64, 58
1, 493241, Control_c, 0, 64, 60
1, 493256, Control_c, 0, 64, 61
1, 493271, Control_c, 0, 64, 63
1, 493286, Control_c, 0, 64, 64
1, 493300, Control_c, 0, 64, 65
1, 493315, Control_c, 0, 64, 67
1, 493330, Control_c, 0, 64, 69
1, 493344, Control_c, 0, 64, 73
1, 493359, Control_c, 0, 64, 76
1, 493375, Control_c, 0, 64, 80
1, 493390, Control_c, 0, 64, 83
1, 493405, Control_c, 0, 64, 87
1, 493420, Control_c, 0, 64, 90
1, 493435, Control_c, 0, 64, 91
1, 493449, Control_c, 0, 64, 92
1, 493479, Control_c, 0, 64, 93
1, 493494, Control_c, 0, 64, 94
1, 493500, Note_off_c, 0, 52, 32
1, 493509, Control_c, 0, 64, 96
1, 493523, Control_c, 0, 64, 99
1, 493538, Control_c, 0, 64, 100
1, 493553, Control_c, 0, 64, 101
1, 493567, Control_c, 0, 64, 102
1, 493582, Control_c, 0, 64, 103
1, 493597, Control_c, 0, 64, 104
1, 493612, Control_c, 0, 64, 105
1, 493627, Control_c, 0, 64, 105
1, 493715, Control_c, 0, 64, 104
1, 493730, Control_c, 0, 64, 104
1, 493745, Control_c, 0, 64, 103
1, 493760, Control_c, 0, 64, 102
1, 493774, Control_c, 0, 64, 102
1, 493789, Control_c, 0, 64, 101
1, 493804, Control_c, 0, 64, 101
1, 493826, Control_c, 0, 64, 100
1, 493841, Control_c, 0, 64, 99
1, 493855, Control_c, 0, 64, 97
1, 493867, Note_off_c, 0, 60, 38
1, 493870, Control_c, 0, 64, 96
1, 493885, Control_c, 0, 64, 95
1, 493900, Control_c, 0, 64, 94
1, 493915, Control_c, 0, 64, 93
1, 493929, Control_c, 0, 64, 92
1, 493944, Control_c, 0, 64, 92
1, 493974, Control_c, 0, 64, 91
1, 493989, Control_c, 0, 64, 91
1, 494004, Control_c, 0, 64, 89
1, 494019, Control_c, 0, 64, 88
1, 494034, Control_c, 0, 64, 87
1, 494048, Control_c, 0, 64, 86
1, 494063, Control_c, 0, 64, 85
1, 494078, Control_c, 0, 64, 83
1, 494093, Control_c, 0, 64, 82
1, 494103, Note_on_c, 0, 35, 29
1, 494108, Control_c, 0, 64, 81
1, 494111, Note_on_c, 0, 47, 29
1, 494122, Control_c, 0, 64, 81
1, 494152, Control_c, 0, 64, 80
1, 494168, Control_c, 0, 64, 77
1, 494183, Control_c, 0, 64, 73
1, 494198, Control_c, 0, 64, 69
1, 494213, Control_c, 0, 64, 66
1, 494227, Control_c, 0, 64, 63
1, 494242, Control_c, 0, 64, 60
1, 494257, Control_c, 0, 64, 59
1, 494271, Control_c, 0, 64, 59
1, 494301, Control_c, 0, 64, 60
1, 494316, Control_c, 0, 64, 60
1, 494331, Control_c, 0, 64, 61
1, 494345, Control_c, 0, 64, 62
1, 494360, Control_c, 0, 64, 63
1, 494375, Control_c, 0, 64, 64
1, 494389, Control_c, 0, 64, 64
1, 494404, Control_c, 0, 64, 65
1, 494419, Control_c, 0, 64, 67
1, 494434, Control_c, 0, 64, 68
1, 494449, Control_c, 0, 64, 70
1, 494463, Control_c, 0, 64, 71
1, 494478, Control_c, 0, 64, 73
1, 494493, Control_c, 0, 64, 75
1, 494508, Control_c, 0, 64, 77
1, 494523, Control_c, 0, 64, 80
1, 494538, Control_c, 0, 64, 84
1, 494552, Control_c, 0, 64, 88
1, 494575, Control_c, 0, 64, 92
1, 494590, Control_c, 0, 64, 95
1, 494604, Control_c, 0, 64, 99
1, 494619, Control_c, 0, 64, 105
1, 494634, Control_c, 0, 64, 114
1, 494649, Control_c, 0, 64, 127
1, 494851, Note_on_c, 0, 71, 56
1, 494937, Note_off_c, 0, 47, 36
1, 494997, Note_off_c, 0, 35, 37
1, 495395, Note_on_c, 0, 55, 32
1, 495541, Note_off_c, 0, 55, 35
1, 496314, Note_on_c, 0, 63, 34
1, 496756, Note_on_c, 0, 72, 46
1, 496944, Note_on_c, 0, 74, 67
1, 496998, Note_off_c, 0, 71, 52
1, 497062, Note_off_c, 0, 72, 55
1, 497147, Control_c, 0, 64, 115
1, 497162, Control_c, 0, 64, 110
1, 497177, Control_c, 0, 64, 106
1, 497191, Control_c, 0, 64, 102
1, 497197, Note_on_c, 0, 70, 42
1, 497206, Control_c, 0, 64, 99
1, 497218, Note_on_c, 0, 75, 74
1, 497221, Control_c, 0, 64, 97
1, 497236, Control_c, 0, 64, 95
1, 497251, Control_c, 0, 64, 93
1, 497265, Control_c, 0, 64, 91
1, 497280, Control_c, 0, 64, 88
1, 497295, Control_c, 0, 64, 85
1, 497310, Control_c, 0, 64, 82
1, 497325, Control_c, 0, 64, 80
1, 497340, Control_c, 0, 64, 78
1, 497355, Control_c, 0, 64, 75
1, 497363, Note_off_c, 0, 74, 59
1, 497370, Control_c, 0, 64, 73
1, 497385, Control_c, 0, 64, 71
1, 497388, Note_off_c, 0, 63, 32
1, 497400, Control_c, 0, 64, 68
1, 497414, Control_c, 0, 64, 66
1, 497429, Control_c, 0, 64, 65
1, 497444, Control_c, 0, 64, 64
1, 497459, Control_c, 0, 64, 64
1, 497474, Control_c, 0, 64, 63
1, 497489, Control_c, 0, 64, 62
1, 497504, Control_c, 0, 64, 61
1, 497518, Control_c, 0, 64, 61
1, 497533, Control_c, 0, 64, 60
1, 497548, Control_c, 0, 64, 60
1, 497570, Control_c, 0, 64, 59
1, 497600, Control_c, 0, 64, 59
1, 497688, Control_c, 0, 64, 59
1, 497718, Control_c, 0, 64, 60
1, 497733, Control_c, 0, 64, 61
1, 497736, Note_on_c, 0, 74, 48
1, 497748, Control_c, 0, 64, 62
1, 497763, Control_c, 0, 64, 63
1, 497778, Control_c, 0, 64, 63
1, 497793, Control_c, 0, 64, 64
1, 497808, Control_c, 0, 64, 65
1, 497822, Control_c, 0, 64, 67
1, 497837, Control_c, 0, 64, 68
1, 497852, Control_c, 0, 64, 70
1, 497867, Control_c, 0, 64, 73
1, 497882, Control_c, 0, 64, 76
1, 497896, Control_c, 0, 64, 80
1, 497911, Control_c, 0, 64, 83
1, 497926, Control_c, 0, 64, 85
1, 497929, Note_on_c, 0, 72, 55
1, 497941, Control_c, 0, 64, 87
1, 497954, Note_off_c, 0, 70, 41
1, 498044, Control_c, 0, 64, 86
1, 498059, Control_c, 0, 64, 86
1, 498088, Control_c, 0, 64, 85
1, 498096, Note_off_c, 0, 74, 49
1, 498103, Control_c, 0, 64, 85
1, 498118, Control_c, 0, 64, 84
1, 498133, Control_c, 0, 64, 83
1, 498138, Note_off_c, 0, 75, 31
1, 498139, Note_on_c, 0, 62, 38
1, 498144, Note_on_c, 0, 71, 53
1, 498148, Control_c, 0, 64, 82
1, 498164, Control_c, 0, 64, 80
1, 498179, Control_c, 0, 64, 78
1, 498193, Control_c, 0, 64, 76
1, 498208, Control_c, 0, 64, 73
1, 498210, Note_off_c, 0, 72, 64
1, 498223, Control_c, 0, 64, 71
1, 498237, Control_c, 0, 64, 69
1, 498252, Control_c, 0, 64, 67
1, 498267, Control_c, 0, 64, 65
1, 498282, Control_c, 0, 64, 64
1, 498297, Control_c, 0, 64, 63
1, 498319, Control_c, 0, 64, 62
1, 498364, Control_c, 0, 64, 62
1, 498393, Control_c, 0, 64, 61
1, 498408, Control_c, 0, 64, 61
1, 498423, Control_c, 0, 64, 60
1, 498452, Control_c, 0, 64, 60
1, 498467, Control_c, 0, 64, 59
1, 498482, Control_c, 0, 64, 59
1, 498511, Control_c, 0, 64, 58
1, 498526, Control_c, 0, 64, 58
1, 498571, Control_c, 0, 64, 57
1, 498615, Control_c, 0, 64, 57
1, 498642, Note_on_c, 0, 66, 32
1, 498650, Note_on_c, 0, 70, 44
1, 498705, Control_c, 0, 64, 56
1, 498774, Note_off_c, 0, 71, 33
1, 499016, Control_c, 0, 64, 57
1, 499046, Control_c, 0, 64, 57
1, 499068, Control_c, 0, 64, 58
1, 499083, Control_c, 0, 64, 59
1, 499098, Control_c, 0, 64, 59
1, 499113, Control_c, 0, 64, 60
1, 499128, Control_c, 0, 64, 61
1, 499128, Note_on_c, 0, 54, 32
1, 499142, Control_c, 0, 64, 62
1, 499157, Control_c, 0, 64, 63
1, 499172, Control_c, 0, 64, 63
1, 499187, Control_c, 0, 64, 64
1, 499202, Control_c, 0, 64, 64
1, 499216, Control_c, 0, 64, 65
1, 499231, Control_c, 0, 64, 66
1, 499246, Control_c, 0, 64, 67
1, 499260, Control_c, 0, 64, 68
1, 499275, Control_c, 0, 64, 69
1, 499290, Control_c, 0, 64, 70
1, 499305, Control_c, 0, 64, 71
1, 499320, Control_c, 0, 64, 73
1, 499334, Control_c, 0, 64, 76
1, 499349, Control_c, 0, 64, 78
1, 499364, Control_c, 0, 64, 80
1, 499379, Control_c, 0, 64, 82
1, 499394, Control_c, 0, 64, 84
1, 499408, Control_c, 0, 64, 86
1, 499423, Control_c, 0, 64, 89
1, 499438, Control_c, 0, 64, 92
1, 499453, Control_c, 0, 64, 95
1, 499468, Control_c, 0, 64, 99
1, 499483, Control_c, 0, 64, 104
1, 499498, Control_c, 0, 64, 111
1, 499513, Control_c, 0, 64, 127
1, 499568, Note_on_c, 0, 67, 40
1, 499582, Note_off_c, 0, 62, 34
1, 499592, Note_off_c, 0, 66, 41
1, 499782, Note_on_c, 0, 68, 66
1, 499785, Note_off_c, 0, 54, 41
1, 499827, Note_off_c, 0, 70, 64
1, 499859, Note_off_c, 0, 68, 62
1, 499965, Note_off_c, 0, 67, 61
1, 500056, Note_on_c, 0, 48, 42
1, 500068, Note_on_c, 0, 77, 71
1, 500082, Control_c, 0, 64, 123
1, 500097, Control_c, 0, 64, 112
1, 500110, Note_on_c, 0, 69, 42
1, 500112, Control_c, 0, 64, 102
1, 500127, Control_c, 0, 64, 81
1, 500142, Control_c, 0, 64, 66
1, 500157, Control_c, 0, 64, 46
1, 500171, Control_c, 0, 64, 0
1, 500231, Control_c, 0, 64, 28
1, 500246, Control_c, 0, 64, 47
1, 500261, Control_c, 0, 64, 57
1, 500276, Control_c, 0, 64, 63
1, 500290, Control_c, 0, 64, 68
1, 500305, Control_c, 0, 64, 76
1, 500320, Control_c, 0, 64, 88
1, 500335, Control_c, 0, 64, 107
1, 500350, Control_c, 0, 64, 127
1, 500368, Note_off_c, 0, 69, 63
1, 500490, Note_on_c, 0, 76, 73
1, 500517, Note_on_c, 0, 68, 60
1, 500586, Note_off_c, 0, 68, 52
1, 500586, Note_off_c, 0, 77, 63
1, 500676, Note_on_c, 0, 66, 63
1, 500719, Note_off_c, 0, 76, 61
1, 500847, Control_c, 0, 64, 113
1, 500862, Control_c, 0, 64, 101
1, 500870, Note_on_c, 0, 56, 35
1, 500877, Control_c, 0, 64, 95
1, 500890, Note_off_c, 0, 66, 57
1, 500892, Control_c, 0, 64, 92
1, 500907, Control_c, 0, 64, 86
1, 500921, Control_c, 0, 64, 77
1, 500929, Note_on_c, 0, 76, 58
1, 500936, Control_c, 0, 64, 67
1, 500947, Note_on_c, 0, 65, 38
1, 500951, Control_c, 0, 64, 55
1, 500966, Control_c, 0, 64, 28
1, 500980, Control_c, 0, 64, 22
1, 500995, Control_c, 0, 64, 21
1, 501025, Control_c, 0, 64, 24
1, 501039, Control_c, 0, 64, 30
1, 501054, Control_c, 0, 64, 40
1, 501069, Control_c, 0, 64, 48
1, 501084, Control_c, 0, 64, 53
1, 501099, Control_c, 0, 64, 55
1, 501113, Control_c, 0, 64, 58
1, 501128, Control_c, 0, 64, 61
1, 501143, Control_c, 0, 64, 63
1, 501158, Control_c, 0, 64, 65
1, 501173, Control_c, 0, 64, 66
1, 501188, Control_c, 0, 64, 68
1, 501203, Control_c, 0, 64, 69
1, 501212, Note_off_c, 0, 65, 49
1, 501218, Control_c, 0, 64, 71
1, 501232, Control_c, 0, 64, 72
1, 501247, Control_c, 0, 64, 74
1, 501262, Control_c, 0, 64, 75
1, 501277, Control_c, 0, 64, 76
1, 501292, Control_c, 0, 64, 76
1, 501313, Control_c, 0, 64, 77
1, 501328, Control_c, 0, 64, 79
1, 501388, Note_on_c, 0, 64, 43
1, 501433, Control_c, 0, 64, 78
1, 501448, Note_off_c, 0, 64, 58
1, 501537, Control_c, 0, 64, 78
1, 501567, Control_c, 0, 64, 77
1, 501611, Control_c, 0, 64, 77
1, 501625, Note_off_c, 0, 48, 30
1, 501641, Control_c, 0, 64, 76
1, 501670, Control_c, 0, 64, 76
1, 501685, Control_c, 0, 64, 75
1, 501700, Control_c, 0, 64, 75
1, 501715, Control_c, 0, 64, 74
1, 501729, Control_c, 0, 64, 73
1, 501744, Control_c, 0, 64, 72
1, 501759, Control_c, 0, 64, 72
1, 501811, Note_on_c, 0, 64, 32
1, 501818, Control_c, 0, 64, 71
1, 501833, Control_c, 0, 64, 69
1, 501848, Control_c, 0, 64, 65
1, 501862, Control_c, 0, 64, 62
1, 501877, Control_c, 0, 64, 57
1, 501892, Control_c, 0, 64, 52
1, 501907, Control_c, 0, 64, 51
1, 501922, Control_c, 0, 64, 52
1, 501936, Control_c, 0, 64, 54
1, 501951, Control_c, 0, 64, 55
1, 501966, Control_c, 0, 64, 57
1, 501981, Control_c, 0, 64, 60
1, 501996, Control_c, 0, 64, 61
1, 502011, Control_c, 0, 64, 63
1, 502026, Control_c, 0, 64, 63
1, 502041, Control_c, 0, 64, 64
1, 502062, Control_c, 0, 64, 66
1, 502077, Control_c, 0, 64, 68
1, 502092, Control_c, 0, 64, 71
1, 502107, Control_c, 0, 64, 73
1, 502122, Control_c, 0, 64, 75
1, 502136, Control_c, 0, 64, 76
1, 502151, Control_c, 0, 64, 77
1, 502167, Control_c, 0, 64, 77
1, 502182, Control_c, 0, 64, 78
1, 502197, Control_c, 0, 64, 79
1, 502207, Note_on_c, 0, 79, 53
1, 502212, Control_c, 0, 64, 80
1, 502227, Control_c, 0, 64, 81
1, 502241, Control_c, 0, 64, 82
1, 502256, Control_c, 0, 64, 83
1, 502271, Control_c, 0, 64, 84
1, 502292, Note_off_c, 0, 56, 41
1, 502306, Note_off_c, 0, 76, 56
1, 502412, Note_off_c, 0, 64, 41
1, 502440, Note_on_c, 0, 76, 66
1, 502493, Control_c, 0, 64, 85
1, 502684, Note_on_c, 0, 69, 41
1, 502721, Note_on_c, 0, 75, 75
1, 502759, Control_c, 0, 64, 85
1, 502774, Control_c, 0, 64, 86
1, 502789, Control_c, 0, 64, 86
1, 502811, Control_c, 0, 64, 87
1, 502826, Control_c, 0, 64, 87
1, 502841, Control_c, 0, 64, 88
1, 502856, Control_c, 0, 64, 88
1, 502871, Control_c, 0, 64, 89
1, 502900, Control_c, 0, 64, 89
1, 502911, Note_off_c, 0, 69, 35
1, 502915, Control_c, 0, 64, 90
1, 502930, Control_c, 0, 64, 90
1, 502945, Control_c, 0, 64, 91
1, 502961, Control_c, 0, 64, 92
1, 502976, Control_c, 0, 64, 92
1, 503003, Note_on_c, 0, 74, 71
1, 503112, Note_off_c, 0, 75, 53
1, 503136, Note_off_c, 0, 76, 48
1, 503242, Control_c, 0, 64, 92
1, 503275, Note_off_c, 0, 79, 54
1, 503282, Note_on_c, 0, 72, 72
1, 503296, Note_off_c, 0, 74, 62
1, 503301, Control_c, 0, 64, 91
1, 503346, Control_c, 0, 64, 91
1, 503405, Control_c, 0, 64, 90
1, 503420, Control_c, 0, 64, 90
1, 503434, Control_c, 0, 64, 89
1, 503449, Control_c, 0, 64, 88
1, 503464, Control_c, 0, 64, 87
1, 503479, Control_c, 0, 64, 87
1, 503493, Control_c, 0, 64, 86
1, 503507, Control_c, 0, 64, 86
1, 503519, Note_on_c, 0, 71, 64
1, 503522, Control_c, 0, 64, 82
1, 503537, Note_on_c, 0, 61, 35
1, 503537, Control_c, 0, 64, 73
1, 503553, Note_off_c, 0, 72, 49
1, 503560, Control_c, 0, 64, 64
1, 503575, Control_c, 0, 64, 48
1, 503589, Control_c, 0, 64, 30
1, 503604, Control_c, 0, 64, 28
1, 503619, Control_c, 0, 64, 29
1, 503633, Control_c, 0, 64, 37
1, 503648, Control_c, 0, 64, 46
1, 503663, Control_c, 0, 64, 53
1, 503678, Control_c, 0, 64, 57
1, 503693, Control_c, 0, 64, 59
1, 503707, Control_c, 0, 64, 61
1, 503722, Control_c, 0, 64, 63
1, 503737, Control_c, 0, 64, 65
1, 503753, Control_c, 0, 64, 68
1, 503768, Control_c, 0, 64, 70
1, 503783, Control_c, 0, 64, 73
1, 503798, Control_c, 0, 64, 74
1, 503812, Control_c, 0, 64, 75
1, 503945, Control_c, 0, 64, 74
1, 503951, Note_on_c, 0, 70, 56
1, 503969, Note_on_c, 0, 64, 37
1, 504037, Note_off_c, 0, 71, 36
1, 504157, Note_on_c, 0, 65, 60
1, 504165, Note_off_c, 0, 64, 56
1, 504197, Control_c, 0, 64, 75
1, 504212, Control_c, 0, 64, 75
1, 504227, Control_c, 0, 64, 76
1, 504242, Control_c, 0, 64, 76
1, 504256, Control_c, 0, 64, 78
1, 504271, Control_c, 0, 64, 79
1, 504286, Control_c, 0, 64, 81
1, 504309, Control_c, 0, 64, 83
1, 504315, Note_on_c, 0, 53, 59
1, 504324, Control_c, 0, 64, 86
1, 504338, Control_c, 0, 64, 89
1, 504347, Note_on_c, 0, 66, 72
1, 504353, Control_c, 0, 64, 92
1, 504368, Control_c, 0, 64, 97
1, 504382, Note_off_c, 0, 61, 57
1, 504382, Note_off_c, 0, 65, 62
1, 504383, Control_c, 0, 64, 104
1, 504398, Control_c, 0, 64, 115
1, 504412, Control_c, 0, 64, 127
1, 504478, Note_off_c, 0, 66, 63
1, 504492, Note_on_c, 0, 65, 83
1, 504494, Note_off_c, 0, 70, 64
1, 504647, Note_on_c, 0, 68, 85
1, 504714, Note_off_c, 0, 53, 60
1, 504783, Note_on_c, 0, 70, 94
1, 504813, Note_off_c, 0, 65, 62
1, 504822, Note_off_c, 0, 68, 62
1, 504843, Note_off_c, 0, 70, 68
1, 505007, Note_on_c, 0, 52, 49
1, 505010, Note_on_c, 0, 62, 42
1, 505063, Note_on_c, 0, 80, 85
1, 505072, Control_c, 0, 64, 93
1, 505087, Control_c, 0, 64, 80
1, 505102, Control_c, 0, 64, 72
1, 505117, Control_c, 0, 64, 66
1, 505132, Control_c, 0, 64, 61
1, 505147, Control_c, 0, 64, 53
1, 505161, Control_c, 0, 64, 44
1, 505176, Control_c, 0, 64, 33
1, 505191, Control_c, 0, 64, 0
1, 505439, Note_on_c, 0, 79, 77
1, 505488, Control_c, 0, 64, 23
1, 505502, Control_c, 0, 64, 36
1, 505517, Control_c, 0, 64, 47
1, 505532, Control_c, 0, 64, 53
1, 505547, Control_c, 0, 64, 58
1, 505551, Note_off_c, 0, 80, 52
1, 505562, Control_c, 0, 64, 61
1, 505576, Control_c, 0, 64, 64
1, 505591, Control_c, 0, 64, 66
1, 505606, Control_c, 0, 64, 69
1, 505621, Control_c, 0, 64, 73
1, 505636, Control_c, 0, 64, 76
1, 505650, Control_c, 0, 64, 78
1, 505665, Control_c, 0, 64, 79
1, 505680, Control_c, 0, 64, 79
1, 505783, Control_c, 0, 64, 79
1, 505784, Note_off_c, 0, 79, 56
1, 505805, Control_c, 0, 64, 78
1, 505820, Control_c, 0, 64, 78
1, 505825, Poly_aftertouch_c, 0, 83, 127
1, 505835, Control_c, 0, 64, 77
1, 505850, Control_c, 0, 64, 77
1, 505880, Control_c, 0, 64, 76
1, 505885, Note_on_c, 0, 61, 31
1, 505909, Control_c, 0, 64, 76
1, 505917, Note_on_c, 0, 79, 64
1, 505924, Control_c, 0, 64, 74
1, 505939, Control_c, 0, 64, 69
1, 505954, Control_c, 0, 64, 63
1, 505969, Control_c, 0, 64, 57
1, 505983, Control_c, 0, 64, 52
1, 505998, Control_c, 0, 64, 49
1, 506005, Note_off_c, 0, 62, 57
1, 506027, Control_c, 0, 64, 50
1, 506033, Note_off_c, 0, 52, 57
1, 506042, Control_c, 0, 64, 52
1, 506043, Poly_aftertouch_c, 0, 83, 0
1, 506057, Control_c, 0, 64, 54
1, 506072, Control_c, 0, 64, 57
1, 506087, Control_c, 0, 64, 60
1, 506101, Control_c, 0, 64, 62
1, 506116, Control_c, 0, 64, 63
1, 506131, Control_c, 0, 64, 64
1, 506147, Control_c, 0, 64, 65
1, 506162, Control_c, 0, 64, 68
1, 506177, Control_c, 0, 64, 71
1, 506192, Control_c, 0, 64, 75
1, 506206, Control_c, 0, 64, 78
1, 506221, Control_c, 0, 64, 81
1, 506236, Control_c, 0, 64, 81
1, 506266, Control_c, 0, 64, 81
1, 506280, Control_c, 0, 64, 80
1, 506310, Control_c, 0, 64, 80
1, 506324, Control_c, 0, 64, 79
1, 506339, Control_c, 0, 64, 78
1, 506354, Control_c, 0, 64, 78
1, 506399, Control_c, 0, 64, 77
1, 506458, Control_c, 0, 64, 77
1, 506554, Control_c, 0, 64, 77
1, 506724, Note_on_c, 0, 67, 33
1, 506747, Control_c, 0, 64, 78
1, 506771, Note_on_c, 0, 70, 44
1, 506836, Control_c, 0, 64, 78
1, 506895, Control_c, 0, 64, 79
1, 506925, Control_c, 0, 64, 79
1, 506939, Control_c, 0, 64, 80
1, 506955, Control_c, 0, 64, 80
1, 506959, Note_off_c, 0, 79, 61
1, 506985, Control_c, 0, 64, 81
1, 507000, Control_c, 0, 64, 81
1, 507015, Control_c, 0, 64, 82
1, 507029, Control_c, 0, 64, 82
1, 507044, Control_c, 0, 64, 83
1, 507059, Control_c, 0, 64, 84
1, 507074, Control_c, 0, 64, 84
1, 507089, Control_c, 0, 64, 85
1, 507103, Control_c, 0, 64, 86
1, 507118, Control_c, 0, 64, 86
1, 507147, Control_c, 0, 64, 87
1, 507162, Control_c, 0, 64, 88
1, 507177, Control_c, 0, 64, 88
1, 507192, Control_c, 0, 64, 89
1, 507246, Note_off_c, 0, 67, 32
1, 507251, Control_c, 0, 64, 89
1, 507266, Control_c, 0, 64, 90
1, 507270, Note_on_c, 0, 84, 49
1, 507273, Note_on_c, 0, 76, 38
1, 507281, Control_c, 0, 64, 91
1, 507303, Control_c, 0, 64, 93
1, 507318, Control_c, 0, 64, 94
1, 507319, Note_off_c, 0, 61, 41
1, 507333, Control_c, 0, 64, 95
1, 507347, Control_c, 0, 64, 95
1, 507367, Note_off_c, 0, 70, 58
1, 507422, Control_c, 0, 64, 96
1, 507436, Control_c, 0, 64, 96
1, 507466, Control_c, 0, 64, 97
1, 507481, Control_c, 0, 64, 97
1, 507510, Control_c, 0, 64, 98
1, 507522, Note_on_c, 0, 83, 54
1, 507525, Control_c, 0, 64, 98
1, 507540, Control_c, 0, 64, 99
1, 507555, Control_c, 0, 64, 100
1, 507564, Note_off_c, 0, 84, 59
1, 507570, Control_c, 0, 64, 101
1, 507585, Control_c, 0, 64, 103
1, 507595, Note_off_c, 0, 76, 42
1, 507600, Control_c, 0, 64, 105
1, 507615, Control_c, 0, 64, 107
1, 507629, Control_c, 0, 64, 108
1, 507644, Control_c, 0, 64, 109
1, 507674, Control_c, 0, 64, 110
1, 507678, Note_on_c, 0, 79, 43
1, 507688, Control_c, 0, 64, 110
1, 507703, Control_c, 0, 64, 111
1, 507709, Note_on_c, 0, 86, 75
1, 507718, Control_c, 0, 64, 112
1, 507733, Control_c, 0, 64, 113
1, 507738, Note_on_c, 0, 76, 32
1, 507749, Control_c, 0, 64, 114
1, 507764, Control_c, 0, 64, 116
1, 507769, Note_off_c, 0, 83, 62
1, 507778, Control_c, 0, 64, 117
1, 507802, Note_off_c, 0, 79, 49
1, 507866, Note_on_c, 0, 85, 89
1, 507896, Control_c, 0, 64, 118
1, 507911, Control_c, 0, 64, 119
1, 507919, Note_off_c, 0, 86, 63
1, 507926, Control_c, 0, 64, 127
1, 508048, Note_on_c, 0, 88, 88
1, 508098, Note_off_c, 0, 85, 65
1, 508334, Control_c, 0, 64, 119
1, 508349, Control_c, 0, 64, 118
1, 508399, Note_on_c, 0, 83, 77
1, 508408, Control_c, 0, 64, 107
1, 508417, Note_on_c, 0, 75, 44
1, 508423, Control_c, 0, 64, 91
1, 508438, Control_c, 0, 64, 77
1, 508452, Control_c, 0, 64, 68
1, 508467, Control_c, 0, 64, 61
1, 508482, Control_c, 0, 64, 50
1, 508497, Control_c, 0, 64, 47
1, 508512, Control_c, 0, 64, 51
1, 508527, Control_c, 0, 64, 56
1, 508542, Control_c, 0, 64, 60
1, 508548, Note_off_c, 0, 88, 56
1, 508557, Control_c, 0, 64, 63
1, 508572, Control_c, 0, 64, 65
1, 508587, Control_c, 0, 64, 68
1, 508601, Control_c, 0, 64, 72
1, 508610, Note_off_c, 0, 83, 61
1, 508616, Control_c, 0, 64, 77
1, 508631, Control_c, 0, 64, 83
1, 508646, Control_c, 0, 64, 88
1, 508661, Control_c, 0, 64, 91
1, 508676, Control_c, 0, 64, 92
1, 508735, Control_c, 0, 64, 92
1, 508780, Control_c, 0, 64, 93
1, 508801, Control_c, 0, 64, 93
1, 508813, Note_on_c, 0, 82, 69
1, 508816, Control_c, 0, 64, 94
1, 508831, Control_c, 0, 64, 95
1, 508834, Note_on_c, 0, 78, 50
1, 508845, Note_off_c, 0, 76, 42
1, 508846, Control_c, 0, 64, 97
1, 508861, Control_c, 0, 64, 99
1, 508876, Control_c, 0, 64, 102
1, 508891, Control_c, 0, 64, 104
1, 508906, Control_c, 0, 64, 105
1, 508920, Control_c, 0, 64, 106
1, 508965, Control_c, 0, 64, 106
1, 508980, Control_c, 0, 64, 105
1, 508984, Note_off_c, 0, 78, 61
1, 508989, Note_on_c, 0, 77, 54
1, 508994, Control_c, 0, 64, 104
1, 509024, Control_c, 0, 64, 103
1, 509039, Control_c, 0, 64, 102
1, 509054, Control_c, 0, 64, 101
1, 509059, Note_off_c, 0, 75, 27
1, 509068, Control_c, 0, 64, 100
1, 509083, Control_c, 0, 64, 99
1, 509098, Control_c, 0, 64, 97
1, 509113, Control_c, 0, 64, 95
1, 509127, Control_c, 0, 64, 94
1, 509142, Control_c, 0, 64, 93
1, 509156, Note_off_c, 0, 77, 51
1, 509157, Control_c, 0, 64, 92
1, 509167, Note_on_c, 0, 69, 33
1, 509172, Control_c, 0, 64, 91
1, 509187, Control_c, 0, 64, 88
1, 509195, Note_on_c, 0, 80, 48
1, 509201, Control_c, 0, 64, 81
1, 509216, Control_c, 0, 64, 73
1, 509231, Control_c, 0, 64, 65
1, 509235, Note_on_c, 0, 84, 53
1, 509245, Control_c, 0, 64, 58
1, 509260, Control_c, 0, 64, 53
1, 509275, Control_c, 0, 64, 54
1, 509290, Control_c, 0, 64, 56
1, 509305, Control_c, 0, 64, 59
1, 509320, Control_c, 0, 64, 61
1, 509335, Control_c, 0, 64, 63
1, 509350, Control_c, 0, 64, 64
1, 509361, Note_off_c, 0, 82, 61
1, 509363, Note_on_c, 0, 79, 53
1, 509365, Control_c, 0, 64, 65
1, 509379, Note_off_c, 0, 80, 51
1, 509380, Control_c, 0, 64, 66
1, 509395, Control_c, 0, 64, 68
1, 509410, Control_c, 0, 64, 70
1, 509424, Control_c, 0, 64, 73
1, 509439, Control_c, 0, 64, 78
1, 509454, Control_c, 0, 64, 81
1, 509469, Control_c, 0, 64, 83
1, 509481, Note_off_c, 0, 69, 42
1, 509484, Control_c, 0, 64, 85
1, 509561, Note_on_c, 0, 81, 44
1, 509597, Note_off_c, 0, 79, 31
1, 509788, Control_c, 0, 64, 84
1, 509817, Control_c, 0, 64, 84
1, 509832, Control_c, 0, 64, 83
1, 509876, Control_c, 0, 64, 83
1, 509891, Control_c, 0, 64, 82
1, 509906, Control_c, 0, 64, 77
1, 509919, Note_on_c, 0, 76, 39
1, 509921, Control_c, 0, 64, 71
1, 509923, Note_on_c, 0, 66, 29
1, 509936, Control_c, 0, 64, 65
1, 509950, Control_c, 0, 64, 62
1, 509980, Control_c, 0, 64, 63
1, 509995, Control_c, 0, 64, 65
1, 510010, Control_c, 0, 64, 67
1, 510024, Control_c, 0, 64, 70
1, 510039, Control_c, 0, 64, 73
1, 510054, Control_c, 0, 64, 78
1, 510068, Control_c, 0, 64, 85
1, 510083, Control_c, 0, 64, 94
1, 510098, Control_c, 0, 64, 106
1, 510113, Control_c, 0, 64, 127
1, 510121, Note_off_c, 0, 76, 62
1, 510126, Note_off_c, 0, 84, 59
1, 510269, Note_on_c, 0, 84, 63
1, 510348, Note_on_c, 0, 75, 22
1, 510434, Note_on_c, 0, 83, 81
1, 510474, Note_off_c, 0, 84, 63
1, 510706, Note_on_c, 0, 60, 35
1, 510734, Note_on_c, 0, 86, 69
1, 510743, Control_c, 0, 64, 107
1, 510758, Control_c, 0, 64, 85
1, 510772, Control_c, 0, 64, 71
1, 510787, Control_c, 0, 64, 63
1, 510802, Control_c, 0, 64, 53
1, 510817, Control_c, 0, 64, 50
1, 510832, Control_c, 0, 64, 54
1, 510837, Note_off_c, 0, 83, 61
1, 510846, Control_c, 0, 64, 58
1, 510861, Control_c, 0, 64, 62
1, 510870, Poly_aftertouch_c, 0, 85, 0
1, 510876, Control_c, 0, 64, 64
1, 510891, Control_c, 0, 64, 67
1, 510906, Control_c, 0, 64, 70
1, 510921, Control_c, 0, 64, 78
1, 510936, Control_c, 0, 64, 87
1, 510951, Control_c, 0, 64, 97
1, 510966, Control_c, 0, 64, 107
1, 510968, Note_on_c, 0, 85, 85
1, 510981, Control_c, 0, 64, 127
1, 511012, Note_off_c, 0, 86, 64
1, 511204, Note_on_c, 0, 87, 89
1, 511263, Note_off_c, 0, 81, 38
1, 511319, Note_off_c, 0, 87, 64
1, 511331, Note_off_c, 0, 85, 60
1, 511408, Note_on_c, 0, 59, 42
1, 511474, Note_on_c, 0, 81, 76
1, 511520, Note_off_c, 0, 60, 42
1, 511521, Control_c, 0, 64, 87
1, 511536, Control_c, 0, 64, 69
1, 511551, Control_c, 0, 64, 54
1, 511566, Control_c, 0, 64, 15
1, 511581, Control_c, 0, 64, 0
1, 511610, Control_c, 0, 64, 24
1, 511625, Control_c, 0, 64, 38
1, 511639, Control_c, 0, 64, 49
1, 511654, Control_c, 0, 64, 54
1, 511669, Control_c, 0, 64, 58
1, 511684, Control_c, 0, 64, 61
1, 511699, Control_c, 0, 64, 63
1, 511714, Control_c, 0, 64, 65
1, 511729, Control_c, 0, 64, 68
1, 511745, Control_c, 0, 64, 71
1, 511760, Control_c, 0, 64, 75
1, 511775, Control_c, 0, 64, 79
1, 511797, Control_c, 0, 64, 83
1, 511812, Control_c, 0, 64, 85
1, 511827, Control_c, 0, 64, 86
1, 511833, Note_on_c, 0, 80, 59
1, 511836, Note_on_c, 0, 76, 49
1, 511842, Control_c, 0, 64, 86
1, 511857, Note_off_c, 0, 75, 41
1, 511931, Control_c, 0, 64, 86
1, 511960, Control_c, 0, 64, 85
1, 511975, Control_c, 0, 64, 85
1, 511977, Note_off_c, 0, 76, 60
1, 512001, Note_on_c, 0, 74, 55
1, 512011, Note_off_c, 0, 81, 60
1, 512024, Note_off_c, 0, 80, 57
1, 512039, Note_off_c, 0, 74, 64
1, 512049, Control_c, 0, 64, 84
1, 512079, Control_c, 0, 64, 84
1, 512182, Note_on_c, 0, 80, 53
1, 512197, Control_c, 0, 64, 83
1, 512211, Control_c, 0, 64, 81
1, 512226, Control_c, 0, 64, 75
1, 512232, Note_on_c, 0, 62, 40
1, 512241, Control_c, 0, 64, 69
1, 512256, Control_c, 0, 64, 65
1, 512271, Control_c, 0, 64, 64
1, 512286, Control_c, 0, 64, 65
1, 512295, Note_on_c, 0, 78, 54
1, 512301, Control_c, 0, 64, 66
1, 512312, Note_on_c, 0, 85, 53
1, 512316, Control_c, 0, 64, 68
1, 512331, Control_c, 0, 64, 71
1, 512345, Control_c, 0, 64, 73
1, 512360, Control_c, 0, 64, 76
1, 512375, Control_c, 0, 64, 78
1, 512390, Control_c, 0, 64, 81
1, 512405, Control_c, 0, 64, 83
1, 512419, Control_c, 0, 64, 86
1, 512434, Control_c, 0, 64, 91
1, 512437, Note_on_c, 0, 77, 73
1, 512449, Control_c, 0, 64, 99
1, 512463, Control_c, 0, 64, 113
1, 512478, Control_c, 0, 64, 127
1, 512538, Note_off_c, 0, 85, 55
1, 512548, Note_off_c, 0, 66, 36
1, 512559, Note_off_c, 0, 78, 34
1, 512593, Note_off_c, 0, 80, 44
1, 512596, Note_on_c, 0, 84, 78
1, 512745, Note_on_c, 0, 80, 91
1, 512824, Note_off_c, 0, 77, 60
1, 512831, Note_off_c, 0, 84, 53
1, 512973, Note_on_c, 0, 65, 47
1, 513011, Note_on_c, 0, 81, 77
1, 513020, Control_c, 0, 64, 118
1, 513031, Note_on_c, 0, 76, 50
1, 513035, Control_c, 0, 64, 106
1, 513049, Control_c, 0, 64, 99
1, 513064, Control_c, 0, 64, 94
1, 513079, Control_c, 0, 64, 89
1, 513094, Control_c, 0, 64, 82
1, 513109, Control_c, 0, 64, 72
1, 513124, Control_c, 0, 64, 62
1, 513138, Note_off_c, 0, 80, 62
1, 513138, Control_c, 0, 64, 42
1, 513153, Control_c, 0, 64, 0
1, 513257, Control_c, 0, 64, 26
1, 513272, Control_c, 0, 64, 39
1, 513293, Control_c, 0, 64, 48
1, 513308, Control_c, 0, 64, 52
1, 513323, Control_c, 0, 64, 55
1, 513339, Control_c, 0, 64, 57
1, 513354, Control_c, 0, 64, 59
1, 513369, Control_c, 0, 64, 61
1, 513384, Control_c, 0, 64, 62
1, 513398, Control_c, 0, 64, 62
1, 513413, Control_c, 0, 64, 63
1, 513428, Control_c, 0, 64, 64
1, 513443, Control_c, 0, 64, 65
1, 513458, Control_c, 0, 64, 65
1, 513472, Control_c, 0, 64, 66
1, 513485, Note_on_c, 0, 80, 48
1, 513487, Control_c, 0, 64, 66
1, 513502, Control_c, 0, 64, 67
1, 513532, Control_c, 0, 64, 67
1, 513547, Control_c, 0, 64, 68
1, 513591, Control_c, 0, 64, 68
1, 513636, Control_c, 0, 64, 69
1, 513665, Control_c, 0, 64, 70
1, 513680, Control_c, 0, 64, 71
1, 513690, Note_on_c, 0, 75, 52
1, 513695, Control_c, 0, 64, 72
1, 513709, Control_c, 0, 64, 73
1, 513724, Control_c, 0, 64, 74
1, 513739, Control_c, 0, 64, 75
1, 513754, Control_c, 0, 64, 75
1, 513820, Note_off_c, 0, 76, 58
1, 513916, Control_c, 0, 64, 75
1, 513961, Control_c, 0, 64, 74
1, 513990, Control_c, 0, 64, 74
1, 513994, Note_on_c, 0, 68, 33
1, 514005, Control_c, 0, 64, 73
1, 514024, Note_on_c, 0, 74, 52
1, 514042, Control_c, 0, 64, 73
1, 514054, Note_off_c, 0, 80, 61
1, 514071, Control_c, 0, 64, 72
1, 514086, Control_c, 0, 64, 72
1, 514091, Note_off_c, 0, 75, 37
1, 514131, Control_c, 0, 64, 72
1, 514161, Control_c, 0, 64, 73
1, 514176, Control_c, 0, 64, 73
1, 514191, Control_c, 0, 64, 74
1, 514197, Note_off_c, 0, 81, 57
1, 514201, Note_on_c, 0, 78, 53
1, 514206, Control_c, 0, 64, 75
1, 514220, Control_c, 0, 64, 76
1, 514235, Control_c, 0, 64, 78
1, 514242, Note_off_c, 0, 68, 39
1, 514250, Control_c, 0, 64, 80
1, 514265, Control_c, 0, 64, 84
1, 514280, Control_c, 0, 64, 89
1, 514295, Control_c, 0, 64, 92
1, 514310, Control_c, 0, 64, 95
1, 514316, Note_off_c, 0, 74, 49
1, 514325, Control_c, 0, 64, 98
1, 514339, Control_c, 0, 64, 100
1, 514341, Note_off_c, 0, 65, 35
1, 514343, Note_on_c, 0, 73, 52
1, 514354, Control_c, 0, 64, 103
1, 514369, Control_c, 0, 64, 105
1, 514376, Note_off_c, 0, 59, 50
1, 514384, Control_c, 0, 64, 107
1, 514399, Control_c, 0, 64, 109
1, 514413, Note_off_c, 0, 62, 42
1, 514413, Control_c, 0, 64, 111
1, 514428, Control_c, 0, 64, 113
1, 514443, Control_c, 0, 64, 115
1, 514455, Note_on_c, 0, 77, 52
1, 514458, Control_c, 0, 64, 118
1, 514473, Control_c, 0, 64, 123
1, 514487, Control_c, 0, 64, 127
1, 514503, Note_off_c, 0, 78, 25
1, 514525, Note_off_c, 0, 73, 34
1, 514620, Note_on_c, 0, 67, 31
1, 514733, Note_off_c, 0, 67, 36
1, 514760, Note_on_c, 0, 72, 49
1, 515058, Control_c, 0, 64, 114
1, 515063, Note_on_c, 0, 71, 46
1, 515072, Note_on_c, 0, 34, 45
1, 515073, Control_c, 0, 64, 107
1, 515088, Control_c, 0, 64, 102
1, 515103, Control_c, 0, 64, 100
1, 515118, Control_c, 0, 64, 100
1, 515133, Control_c, 0, 64, 99
1, 515148, Control_c, 0, 64, 93
1, 515154, Poly_aftertouch_c, 0, 46, 127
1, 515161, Note_off_c, 0, 72, 32
1, 515162, Control_c, 0, 64, 84
1, 515177, Control_c, 0, 64, 73
1, 515192, Control_c, 0, 64, 64
1, 515207, Control_c, 0, 64, 49
1, 515222, Control_c, 0, 64, 35
1, 515236, Control_c, 0, 64, 34
1, 515251, Control_c, 0, 64, 35
1, 515266, Control_c, 0, 64, 40
1, 515281, Control_c, 0, 64, 47
1, 515296, Control_c, 0, 64, 54
1, 515310, Control_c, 0, 64, 58
1, 515325, Control_c, 0, 64, 61
1, 515340, Control_c, 0, 64, 64
1, 515354, Control_c, 0, 64, 67
1, 515369, Control_c, 0, 64, 72
1, 515384, Control_c, 0, 64, 79
1, 515399, Control_c, 0, 64, 87
1, 515414, Control_c, 0, 64, 96
1, 515428, Control_c, 0, 64, 107
1, 515443, Control_c, 0, 64, 127
1, 515452, Note_off_c, 0, 34, 50
1, 515541, Poly_aftertouch_c, 0, 46, 0
1, 515955, Note_on_c, 0, 55, 38
1, 516756, Note_on_c, 0, 63, 41
1, 517136, Note_on_c, 0, 72, 58
1, 517243, Note_off_c, 0, 77, 33
1, 517312, Note_on_c, 0, 74, 76
1, 517422, Note_off_c, 0, 71, 38
1, 517446, Note_off_c, 0, 72, 56
1, 517626, Note_on_c, 0, 75, 81
1, 517632, Note_on_c, 0, 70, 46
1, 517720, Note_off_c, 0, 74, 61
1, 517859, Note_off_c, 0, 70, 38
1, 517980, Note_off_c, 0, 63, 52
1, 518079, Note_off_c, 0, 55, 40
1, 518203, Note_on_c, 0, 74, 71
1, 518358, Note_on_c, 0, 72, 82
1, 518382, Note_off_c, 0, 75, 63
1, 518424, Note_off_c, 0, 74, 62
1, 518456, Note_off_c, 0, 72, 63
1, 518582, Note_on_c, 0, 35, 40
1, 518593, Control_c, 0, 64, 107
1, 518602, Note_on_c, 0, 71, 75
1, 518608, Control_c, 0, 64, 74
1, 518623, Control_c, 0, 64, 54
1, 518638, Control_c, 0, 64, 0
1, 518658, Note_on_c, 0, 62, 34
1, 518698, Control_c, 0, 64, 52
1, 518713, Control_c, 0, 64, 64
1, 518728, Control_c, 0, 64, 70
1, 518737, Note_off_c, 0, 62, 64
1, 518742, Control_c, 0, 64, 80
1, 518757, Control_c, 0, 64, 100
1, 518758, Note_off_c, 0, 35, 55
1, 518772, Control_c, 0, 64, 127
1, 518773, Note_off_c, 0, 71, 65
1, 519053, Note_on_c, 0, 94, 69
1, 519067, Note_on_c, 0, 70, 78
1, 519112, Note_off_c, 0, 94, 62
1, 519473, Note_on_c, 0, 86, 44
1, 519480, Note_on_c, 0, 78, 42
1, 519500, Note_off_c, 0, 86, 55
1, 519711, Note_off_c, 0, 78, 31
1, 519756, Note_on_c, 0, 80, 33
1, 519763, Note_on_c, 0, 72, 43
1, 519784, Note_off_c, 0, 80, 50
1, 519894, Note_off_c, 0, 72, 33
1, 520060, Note_on_c, 0, 81, 44
1, 520087, Note_on_c, 0, 76, 43
1, 520135, Note_off_c, 0, 70, 63
1, 520150, Note_off_c, 0, 81, 47
1, 520510, Note_on_c, 0, 65, 32
1, 520526, Note_on_c, 0, 73, 29
1, 520556, Note_off_c, 0, 76, 8
1, 520587, Note_off_c, 0, 73, 42
1, 520917, Note_off_c, 0, 65, 37
1, 521255, Note_on_c, 0, 34, 40
1, 521258, Note_on_c, 0, 59, 68
1, 521315, Control_c, 0, 64, 102
1, 521330, Control_c, 0, 64, 81
1, 521345, Note_on_c, 0, 67, 16
1, 521345, Control_c, 0, 64, 64
1, 521360, Control_c, 0, 64, 43
1, 521375, Control_c, 0, 64, 0
1, 521434, Control_c, 0, 64, 21
1, 521449, Control_c, 0, 64, 42
1, 521464, Control_c, 0, 64, 52
1, 521478, Control_c, 0, 64, 57
1, 521493, Control_c, 0, 64, 62
1, 521508, Control_c, 0, 64, 65
1, 521530, Control_c, 0, 64, 68
1, 521545, Control_c, 0, 64, 73
1, 521559, Control_c, 0, 64, 79
1, 521571, Note_off_c, 0, 34, 50
1, 521574, Control_c, 0, 64, 87
1, 521589, Control_c, 0, 64, 95
1, 521604, Control_c, 0, 64, 104
1, 521619, Control_c, 0, 64, 115
1, 521634, Control_c, 0, 64, 127
1, 521939, Note_on_c, 0, 48, 38
1, 522101, Note_off_c, 0, 48, 51
1, 522149, Note_on_c, 0, 55, 38
1, 522239, Note_off_c, 0, 55, 60
1, 522283, Note_on_c, 0, 63, 48
1, 522314, Note_off_c, 0, 63, 64
1, 522405, Note_on_c, 0, 60, 76
1, 522418, Note_on_c, 0, 63, 45
1, 522516, Control_c, 0, 67, 117
1, 522531, Control_c, 0, 67, 97
1, 522539, Note_on_c, 0, 70, 55
1, 522546, Control_c, 0, 67, 66
1, 522552, Note_off_c, 0, 67, 48
1, 522561, Control_c, 0, 67, 35
1, 522575, Control_c, 0, 67, 0
1, 522600, Note_on_c, 0, 62, 80
1, 522639, Note_off_c, 0, 70, 62
1, 522642, Note_on_c, 0, 75, 57
1, 522674, Note_off_c, 0, 59, 14
1, 522674, Note_off_c, 0, 75, 64
1, 522675, Note_off_c, 0, 63, 19
1, 522703, Note_off_c, 0, 60, 59
1, 522808, Note_on_c, 0, 82, 53
1, 522863, Note_on_c, 0, 63, 90
1, 522961, Note_off_c, 0, 62, 52
1, 523106, Note_off_c, 0, 82, 43
1, 523420, Note_on_c, 0, 62, 86
1, 523480, Note_off_c, 0, 63, 58
1, 523756, Note_on_c, 0, 63, 90
1, 523881, Control_c, 0, 64, 107
1, 523896, Control_c, 0, 64, 99
1, 523911, Control_c, 0, 64, 95
1, 523926, Control_c, 0, 64, 92
1, 523929, Note_off_c, 0, 62, 56
1, 523941, Control_c, 0, 64, 90
1, 523955, Control_c, 0, 64, 89
1, 523970, Control_c, 0, 64, 89
1, 523985, Control_c, 0, 64, 88
1, 523999, Control_c, 0, 64, 86
1, 524014, Control_c, 0, 64, 84
1, 524029, Control_c, 0, 64, 81
1, 524044, Control_c, 0, 64, 79
1, 524059, Control_c, 0, 64, 76
1, 524073, Control_c, 0, 64, 73
1, 524088, Control_c, 0, 64, 71
1, 524103, Control_c, 0, 64, 69
1, 524118, Control_c, 0, 64, 68
1, 524133, Control_c, 0, 64, 67
1, 524147, Control_c, 0, 64, 66
1, 524162, Control_c, 0, 64, 65
1, 524177, Control_c, 0, 64, 65
1, 524177, Control_c, 0, 67, 21
1, 524192, Control_c, 0, 67, 40
1, 524207, Control_c, 0, 64, 64
1, 524207, Control_c, 0, 67, 56
1, 524221, Control_c, 0, 67, 72
1, 524236, Control_c, 0, 64, 64
1, 524236, Control_c, 0, 67, 88
1, 524251, Control_c, 0, 67, 101
1, 524266, Control_c, 0, 64, 63
1, 524266, Control_c, 0, 67, 114
1, 524281, Control_c, 0, 67, 125
1, 524296, Control_c, 0, 64, 63
1, 524296, Control_c, 0, 67, 127
1, 524326, Control_c, 0, 64, 62
1, 524341, Control_c, 0, 64, 62
1, 524370, Control_c, 0, 64, 61
1, 524399, Control_c, 0, 64, 61
1, 524414, Control_c, 0, 64, 60
1, 524429, Control_c, 0, 64, 60
1, 524458, Control_c, 0, 64, 59
1, 524472, Control_c, 0, 64, 59
1, 524525, Control_c, 0, 64, 58
1, 524570, Control_c, 0, 64, 58
1, 524703, Control_c, 0, 64, 57
1, 524782, Note_on_c, 0, 62, 53
1, 524940, Control_c, 0, 64, 57
1, 524996, Note_on_c, 0, 60, 66
1, 525029, Control_c, 0, 64, 56
1, 525035, Note_off_c, 0, 63, 52
1, 525087, Note_off_c, 0, 62, 57
1, 525162, Control_c, 0, 64, 56
1, 525221, Control_c, 0, 64, 55
1, 525271, Note_on_c, 0, 23, 34
1, 525292, Note_on_c, 0, 59, 73
1, 525318, Control_c, 0, 64, 55
1, 525333, Control_c, 0, 64, 52
1, 525348, Control_c, 0, 64, 48
1, 525363, Control_c, 0, 64, 40
1, 525378, Control_c, 0, 64, 32
1, 525388, Note_off_c, 0, 60, 61
1, 525393, Control_c, 0, 64, 27
1, 525408, Control_c, 0, 64, 27
1, 525438, Control_c, 0, 64, 31
1, 525452, Control_c, 0, 64, 43
1, 525467, Control_c, 0, 64, 52
1, 525482, Control_c, 0, 64, 57
1, 525497, Control_c, 0, 64, 61
1, 525512, Control_c, 0, 64, 63
1, 525526, Control_c, 0, 64, 67
1, 525541, Control_c, 0, 64, 73
1, 525556, Control_c, 0, 64, 85
1, 525571, Control_c, 0, 64, 106
1, 525586, Control_c, 0, 64, 127
1, 525607, Note_off_c, 0, 59, 63
1, 525642, Note_off_c, 0, 23, 40
1, 525953, Note_on_c, 0, 73, 49
1, 526100, Note_off_c, 0, 73, 63
1, 526139, Note_on_c, 0, 74, 50
1, 526295, Note_on_c, 0, 58, 74
1, 526316, Note_off_c, 0, 74, 47
1, 526329, Note_on_c, 0, 75, 29
1, 526341, Note_on_c, 0, 82, 58
1, 526360, Note_off_c, 0, 75, 49
1, 526495, Note_off_c, 0, 82, 58
1, 527065, Note_on_c, 0, 74, 37
1, 527084, Note_on_c, 0, 66, 24
1, 527283, Note_off_c, 0, 74, 35
1, 527662, Note_off_c, 0, 66, 31
1, 527787, Note_on_c, 0, 60, 32
1, 527799, Note_on_c, 0, 68, 33
1, 527954, Note_off_c, 0, 60, 37
1, 528121, Note_off_c, 0, 68, 35
1, 528728, Note_on_c, 0, 76, 35
1, 528740, Note_off_c, 0, 58, 54
1, 528743, Note_on_c, 0, 81, 32
1, 528887, Note_off_c, 0, 76, 34
1, 528925, Note_on_c, 0, 58, 45
1, 528999, Note_off_c, 0, 81, 42
1, 529036, Note_off_c, 0, 58, 52
1, 529174, Note_on_c, 0, 58, 47
1, 529336, Note_on_c, 0, 61, 41
1, 529383, Note_off_c, 0, 58, 33
1, 529403, Control_c, 0, 64, 116
1, 529418, Control_c, 0, 64, 110
1, 529433, Control_c, 0, 64, 107
1, 529447, Control_c, 0, 64, 103
1, 529462, Control_c, 0, 64, 100
1, 529477, Control_c, 0, 64, 97
1, 529492, Control_c, 0, 64, 95
1, 529507, Control_c, 0, 64, 94
1, 529521, Control_c, 0, 64, 92
1, 529536, Control_c, 0, 64, 90
1, 529551, Control_c, 0, 64, 87
1, 529558, Note_on_c, 0, 57, 45
1, 529566, Control_c, 0, 64, 85
1, 529581, Control_c, 0, 64, 83
1, 529596, Control_c, 0, 64, 83
1, 529610, Control_c, 0, 64, 82
1, 529620, Note_on_c, 0, 73, 32
1, 529622, Note_on_c, 0, 65, 27
1, 529624, Note_off_c, 0, 61, 29
1, 529625, Control_c, 0, 64, 80
1, 529640, Control_c, 0, 64, 77
1, 529655, Control_c, 0, 64, 74
1, 529670, Control_c, 0, 64, 69
1, 529684, Control_c, 0, 64, 62
1, 529699, Control_c, 0, 64, 47
1, 529714, Control_c, 0, 64, 31
1, 529729, Control_c, 0, 64, 30
1, 529796, Control_c, 0, 64, 33
1, 529811, Control_c, 0, 64, 41
1, 529825, Control_c, 0, 64, 50
1, 529840, Control_c, 0, 64, 56
1, 529855, Control_c, 0, 64, 60
1, 529870, Control_c, 0, 64, 62
1, 529885, Control_c, 0, 64, 64
1, 529899, Control_c, 0, 64, 66
1, 529914, Control_c, 0, 64, 68
1, 529929, Control_c, 0, 64, 73
1, 529944, Control_c, 0, 64, 80
1, 529959, Control_c, 0, 64, 88
1, 529969, Note_off_c, 0, 73, 42
1, 529973, Control_c, 0, 64, 98
1, 529986, Note_off_c, 0, 57, 60
1, 529988, Control_c, 0, 64, 113
1, 530003, Control_c, 0, 64, 127
1, 530086, Note_off_c, 0, 65, 40
1, 530566, Note_on_c, 0, 67, 33
1, 530577, Note_on_c, 0, 59, 29
1, 530592, Note_on_c, 0, 23, 28
1, 530744, Note_off_c, 0, 59, 42
1, 530767, Note_off_c, 0, 23, 41
1, 530809, Note_off_c, 0, 67, 42
1, 531491, Note_on_c, 0, 54, 62
1, 531497, Note_on_c, 0, 82, 49
1, 531724, Note_off_c, 0, 82, 61
1, 532366, Note_on_c, 0, 74, 37
1, 532373, Note_on_c, 0, 66, 27
1, 532596, Note_off_c, 0, 74, 37
1, 532881, Note_off_c, 0, 66, 33
1, 533126, Note_on_c, 0, 68, 34
1, 533131, Note_on_c, 0, 60, 24
1, 533161, Note_off_c, 0, 54, 54
1, 533239, Note_off_c, 0, 60, 45
1, 533298, Note_off_c, 0, 68, 40
1, 533370, Note_on_c, 0, 54, 39
1, 533675, Note_on_c, 0, 57, 39
1, 533797, Note_off_c, 0, 54, 41
1, 533851, Control_c, 0, 64, 118
1, 533865, Control_c, 0, 64, 109
1, 533880, Control_c, 0, 64, 102
1, 533895, Control_c, 0, 64, 95
1, 533910, Control_c, 0, 64, 89
1, 533924, Control_c, 0, 64, 84
1, 533939, Control_c, 0, 64, 82
1, 533952, Note_on_c, 0, 53, 37
1, 533954, Control_c, 0, 64, 82
1, 533984, Control_c, 0, 64, 81
1, 533999, Control_c, 0, 64, 80
1, 534005, Note_on_c, 0, 76, 29
1, 534014, Control_c, 0, 64, 75
1, 534029, Control_c, 0, 64, 68
1, 534035, Note_on_c, 0, 81, 28
1, 534044, Control_c, 0, 64, 60
1, 534049, Note_off_c, 0, 57, 41
1, 534058, Control_c, 0, 64, 49
1, 534073, Control_c, 0, 64, 43
1, 534088, Control_c, 0, 64, 44
1, 534103, Control_c, 0, 64, 47
1, 534118, Control_c, 0, 64, 53
1, 534133, Control_c, 0, 64, 57
1, 534148, Control_c, 0, 64, 60
1, 534163, Control_c, 0, 64, 62
1, 534178, Control_c, 0, 64, 64
1, 534193, Control_c, 0, 64, 66
1, 534208, Control_c, 0, 64, 69
1, 534223, Control_c, 0, 64, 74
1, 534237, Control_c, 0, 64, 79
1, 534260, Control_c, 0, 64, 84
1, 534275, Control_c, 0, 64, 89
1, 534289, Control_c, 0, 64, 94
1, 534304, Control_c, 0, 64, 99
1, 534319, Control_c, 0, 64, 103
1, 534334, Control_c, 0, 64, 108
1, 534349, Control_c, 0, 64, 114
1, 534363, Control_c, 0, 64, 127
1, 534383, Note_off_c, 0, 81, 37
1, 534821, Note_on_c, 0, 73, 23
1, 534845, Note_on_c, 0, 65, 21
1, 534989, Note_off_c, 0, 76, 36
1, 535041, Note_off_c, 0, 73, 43
1, 535070, Note_off_c, 0, 53, 49
1, 535191, Note_off_c, 0, 65, 39
1, 535731, Note_on_c, 0, 67, 22
1, 535731, Note_on_c, 0, 23, 33
1, 535743, Note_on_c, 0, 59, 10
1, 535766, Note_on_c, 0, 35, 18
1, 535930, Note_off_c, 0, 59, 40
1, 536010, Note_off_c, 0, 23, 35
1, 536020, Note_off_c, 0, 35, 32
1, 536080, Note_off_c, 0, 67, 51
1, 536709, Note_on_c, 0, 49, 50
1, 536721, Note_on_c, 0, 75, 39
1, 536726, Note_on_c, 0, 82, 43
1, 536964, Note_off_c, 0, 75, 31
1, 537024, Note_off_c, 0, 82, 31
1, 537500, Note_on_c, 0, 74, 30
1, 537517, Note_on_c, 0, 66, 27
1, 537723, Note_off_c, 0, 66, 40
1, 538306, Note_on_c, 0, 81, 40
1, 538311, Note_on_c, 0, 76, 24
1, 538429, Note_off_c, 0, 74, 31
1, 538566, Note_off_c, 0, 76, 29
1, 538721, Note_on_c, 0, 48, 36
1, 538731, Note_off_c, 0, 81, 40
1, 539066, Note_off_c, 0, 49, 37
1, 539078, Control_c, 0, 64, 118
1, 539093, Control_c, 0, 64, 114
1, 539107, Control_c, 0, 64, 112
1, 539122, Control_c, 0, 64, 111
1, 539137, Control_c, 0, 64, 110
1, 539194, Note_on_c, 0, 65, 33
1, 539200, Note_on_c, 0, 73, 20
1, 539329, Control_c, 0, 64, 111
1, 539358, Control_c, 0, 64, 111
1, 539388, Control_c, 0, 64, 112
1, 539403, Control_c, 0, 64, 113
1, 539418, Control_c, 0, 64, 113
1, 539433, Control_c, 0, 64, 114
1, 539448, Control_c, 0, 64, 115
1, 539463, Control_c, 0, 64, 116
1, 539499, Control_c, 0, 64, 117
1, 539529, Control_c, 0, 64, 119
1, 539543, Control_c, 0, 64, 121
1, 539549, Note_off_c, 0, 73, 40
1, 539558, Control_c, 0, 64, 127
1, 539759, Note_on_c, 0, 49, 49
1, 539809, Note_off_c, 0, 65, 37
1, 539959, Note_on_c, 0, 51, 71
1, 540064, Note_off_c, 0, 48, 53
1, 540143, Note_off_c, 0, 49, 52
1, 540263, Control_c, 0, 64, 117
1, 540278, Control_c, 0, 64, 106
1, 540293, Control_c, 0, 64, 99
1, 540300, Note_on_c, 0, 67, 52
1, 540305, Note_on_c, 0, 52, 51
1, 540307, Control_c, 0, 64, 93
1, 540309, Note_on_c, 0, 59, 37
1, 540322, Control_c, 0, 64, 89
1, 540337, Control_c, 0, 64, 85
1, 540352, Control_c, 0, 64, 81
1, 540367, Control_c, 0, 64, 77
1, 540381, Control_c, 0, 64, 73
1, 540396, Control_c, 0, 64, 69
1, 540411, Control_c, 0, 64, 65
1, 540426, Control_c, 0, 64, 61
1, 540427, Note_off_c, 0, 51, 58
1, 540441, Control_c, 0, 64, 58
1, 540455, Control_c, 0, 64, 56
1, 540485, Control_c, 0, 64, 55
1, 540515, Control_c, 0, 64, 54
1, 540530, Control_c, 0, 64, 54
1, 540560, Control_c, 0, 64, 53
1, 540590, Control_c, 0, 64, 53
1, 540649, Control_c, 0, 64, 52
1, 540702, Note_on_c, 0, 51, 36
1, 540753, Control_c, 0, 64, 53
1, 540794, Note_off_c, 0, 52, 52
1, 540960, Control_c, 0, 64, 53
1, 541012, Control_c, 0, 64, 54
1, 541027, Control_c, 0, 64, 54
1, 541029, Note_on_c, 0, 49, 34
1, 541042, Control_c, 0, 64, 55
1, 541057, Control_c, 0, 64, 56
1, 541071, Control_c, 0, 64, 57
1, 541086, Control_c, 0, 64, 58
1, 541101, Control_c, 0, 64, 58
1, 541116, Control_c, 0, 64, 59
1, 541130, Control_c, 0, 64, 60
1, 541145, Note_off_c, 0, 51, 34
1, 541145, Control_c, 0, 64, 61
1, 541160, Control_c, 0, 64, 62
1, 541175, Control_c, 0, 64, 63
1, 541190, Control_c, 0, 64, 64
1, 541204, Control_c, 0, 64, 65
1, 541219, Control_c, 0, 64, 67
1, 541234, Control_c, 0, 64, 68
1, 541248, Control_c, 0, 64, 70
1, 541263, Control_c, 0, 64, 72
1, 541278, Control_c, 0, 64, 74
1, 541294, Control_c, 0, 64, 77
1, 541309, Control_c, 0, 64, 79
1, 541324, Control_c, 0, 64, 81
1, 541338, Control_c, 0, 64, 82
1, 541383, Control_c, 0, 64, 81
1, 541398, Control_c, 0, 64, 81
1, 541412, Control_c, 0, 64, 80
1, 541427, Control_c, 0, 64, 79
1, 541442, Control_c, 0, 64, 78
1, 541457, Control_c, 0, 64, 77
1, 541472, Control_c, 0, 64, 76
1, 541479, Note_on_c, 0, 70, 39
1, 541481, Note_on_c, 0, 48, 38
1, 541487, Control_c, 0, 64, 75
1, 541488, Note_off_c, 0, 67, 26
1, 541499, Note_on_c, 0, 63, 24
1, 541517, Control_c, 0, 64, 75
1, 541532, Control_c, 0, 64, 74
1, 541546, Control_c, 0, 64, 73
1, 541561, Control_c, 0, 64, 71
1, 541576, Control_c, 0, 64, 67
1, 541591, Control_c, 0, 64, 63
1, 541606, Control_c, 0, 64, 60
1, 541620, Control_c, 0, 64, 57
1, 541635, Control_c, 0, 64, 54
1, 541650, Control_c, 0, 64, 51
1, 541652, Note_off_c, 0, 59, 6
1, 541657, Note_off_c, 0, 49, 35
1, 541665, Control_c, 0, 64, 51
1, 541694, Control_c, 0, 64, 51
1, 541709, Control_c, 0, 64, 53
1, 541724, Control_c, 0, 64, 54
1, 541746, Control_c, 0, 64, 56
1, 541761, Control_c, 0, 64, 58
1, 541776, Control_c, 0, 64, 60
1, 541791, Control_c, 0, 64, 61
1, 541806, Control_c, 0, 64, 63
1, 541820, Control_c, 0, 64, 64
1, 541835, Control_c, 0, 64, 65
1, 541850, Control_c, 0, 64, 66
1, 541865, Control_c, 0, 64, 67
1, 541879, Control_c, 0, 64, 69
1, 541894, Control_c, 0, 64, 71
1, 541909, Control_c, 0, 64, 73
1, 541924, Control_c, 0, 64, 77
1, 541939, Control_c, 0, 64, 81
1, 541953, Control_c, 0, 64, 84
1, 541968, Control_c, 0, 64, 87
1, 541983, Control_c, 0, 64, 91
1, 541998, Control_c, 0, 64, 95
1, 542013, Control_c, 0, 64, 99
1, 542027, Control_c, 0, 64, 107
1, 542042, Control_c, 0, 64, 116
1, 542057, Control_c, 0, 64, 127
1, 542262, Poly_aftertouch_c, 0, 67, 127
1, 542390, Note_off_c, 0, 48, 34
1, 542653, Note_on_c, 0, 47, 36
1, 542673, Control_c, 0, 64, 118
1, 542682, Note_on_c, 0, 35, 33
1, 542688, Control_c, 0, 64, 101
1, 542702, Control_c, 0, 64, 86
1, 542717, Control_c, 0, 64, 74
1, 542732, Control_c, 0, 64, 66
1, 542747, Control_c, 0, 64, 60
1, 542762, Control_c, 0, 64, 55
1, 542764, Poly_aftertouch_c, 0, 67, 0
1, 542790, Note_off_c, 0, 70, 58
1, 542791, Control_c, 0, 64, 57
1, 542806, Control_c, 0, 64, 59
1, 542821, Control_c, 0, 64, 61
1, 542836, Control_c, 0, 64, 62
1, 542850, Control_c, 0, 64, 64
1, 542865, Control_c, 0, 64, 65
1, 542880, Control_c, 0, 64, 67
1, 542896, Control_c, 0, 64, 69
1, 542911, Control_c, 0, 64, 71
1, 542926, Control_c, 0, 64, 74
1, 542940, Control_c, 0, 64, 79
1, 542955, Control_c, 0, 64, 86
1, 542970, Control_c, 0, 64, 92
1, 542985, Control_c, 0, 64, 99
1, 542999, Control_c, 0, 64, 108
1, 543014, Control_c, 0, 64, 127
1, 543410, Note_on_c, 0, 62, 42
1, 543412, Note_on_c, 0, 54, 35
1, 543588, Note_off_c, 0, 54, 46
1, 543617, Note_off_c, 0, 63, 34
1, 544158, Note_on_c, 0, 70, 34
1, 544182, Note_on_c, 0, 63, 42
1, 544417, Note_off_c, 0, 62, 41
1, 544594, Note_off_c, 0, 47, 36
1, 544605, Note_off_c, 0, 35, 38
1, 544977, Note_on_c, 0, 32, 44
1, 544978, Control_c, 0, 64, 115
1, 544993, Control_c, 0, 64, 108
1, 544996, Note_on_c, 0, 44, 44
1, 545008, Control_c, 0, 64, 101
1, 545023, Control_c, 0, 64, 91
1, 545037, Control_c, 0, 64, 81
1, 545052, Control_c, 0, 64, 72
1, 545067, Control_c, 0, 64, 66
1, 545082, Control_c, 0, 64, 62
1, 545097, Control_c, 0, 64, 59
1, 545127, Control_c, 0, 64, 59
1, 545141, Control_c, 0, 64, 61
1, 545156, Control_c, 0, 64, 62
1, 545171, Control_c, 0, 64, 64
1, 545186, Control_c, 0, 64, 66
1, 545201, Control_c, 0, 64, 69
1, 545216, Control_c, 0, 64, 72
1, 545230, Control_c, 0, 64, 75
1, 545245, Control_c, 0, 64, 79
1, 545260, Control_c, 0, 64, 84
1, 545275, Control_c, 0, 64, 91
1, 545282, Note_off_c, 0, 70, 37
1, 545290, Control_c, 0, 64, 101
1, 545305, Control_c, 0, 64, 119
1, 545320, Control_c, 0, 64, 127
1, 545499, Note_off_c, 0, 63, 35
1, 545739, Note_on_c, 0, 62, 34
1, 545750, Note_on_c, 0, 54, 33
1, 545918, Note_off_c, 0, 54, 42
1, 546331, Note_off_c, 0, 62, 31
1, 546454, Note_on_c, 0, 70, 41
1, 546489, Note_on_c, 0, 63, 34
1, 546721, Note_off_c, 0, 32, 43
1, 546892, Note_off_c, 0, 44, 38
1, 547180, Control_c, 0, 64, 121
1, 547195, Control_c, 0, 64, 116
1, 547210, Control_c, 0, 64, 113
1, 547225, Control_c, 0, 64, 111
1, 547239, Control_c, 0, 64, 107
1, 547254, Control_c, 0, 64, 102
1, 547269, Control_c, 0, 64, 98
1, 547284, Control_c, 0, 64, 94
1, 547299, Control_c, 0, 64, 92
1, 547306, Note_on_c, 0, 35, 36
1, 547311, Note_on_c, 0, 47, 31
1, 547313, Control_c, 0, 64, 90
1, 547328, Control_c, 0, 64, 89
1, 547343, Control_c, 0, 64, 87
1, 547357, Control_c, 0, 64, 84
1, 547372, Control_c, 0, 64, 78
1, 547387, Control_c, 0, 64, 71
1, 547402, Control_c, 0, 64, 64
1, 547417, Control_c, 0, 64, 56
1, 547431, Control_c, 0, 64, 47
1, 547446, Control_c, 0, 64, 46
1, 547461, Control_c, 0, 64, 47
1, 547476, Control_c, 0, 64, 50
1, 547491, Control_c, 0, 64, 54
1, 547505, Control_c, 0, 64, 58
1, 547520, Control_c, 0, 64, 61
1, 547535, Control_c, 0, 64, 63
1, 547550, Control_c, 0, 64, 64
1, 547565, Control_c, 0, 64, 65
1, 547580, Control_c, 0, 64, 67
1, 547595, Control_c, 0, 64, 70
1, 547610, Control_c, 0, 64, 75
1, 547625, Control_c, 0, 64, 81
1, 547629, Note_off_c, 0, 70, 37
1, 547639, Control_c, 0, 64, 88
1, 547654, Control_c, 0, 64, 95
1, 547668, Control_c, 0, 64, 104
1, 547684, Control_c, 0, 64, 116
1, 547699, Control_c, 0, 64, 127
1, 547943, Note_off_c, 0, 63, 30
1, 548158, Note_on_c, 0, 62, 32
1, 548178, Note_on_c, 0, 54, 31
1, 548359, Note_off_c, 0, 54, 43
1, 548724, Note_off_c, 0, 62, 12
1, 549014, Note_on_c, 0, 70, 29
1, 549026, Note_on_c, 0, 63, 28
1, 549292, Note_off_c, 0, 47, 38
1, 549517, Note_off_c, 0, 35, 36
1, 550056, Control_c, 0, 64, 123
1, 550071, Control_c, 0, 64, 119
1, 550087, Control_c, 0, 64, 117
1, 550102, Control_c, 0, 64, 116
1, 550117, Control_c, 0, 64, 114
1, 550127, Note_on_c, 0, 31, 31
1, 550128, Note_on_c, 0, 43, 24
1, 550131, Control_c, 0, 64, 111
1, 550146, Control_c, 0, 64, 108
1, 550161, Control_c, 0, 64, 103
1, 550176, Control_c, 0, 64, 98
1, 550190, Control_c, 0, 64, 96
1, 550250, Control_c, 0, 64, 97
1, 550279, Control_c, 0, 64, 97
1, 550294, Control_c, 0, 64, 98
1, 550313, Note_off_c, 0, 63, 6
1, 550324, Control_c, 0, 64, 98
1, 550338, Control_c, 0, 64, 99
1, 550353, Control_c, 0, 64, 99
1, 550368, Control_c, 0, 64, 100
1, 550382, Control_c, 0, 64, 100
1, 550397, Control_c, 0, 64, 101
1, 550412, Control_c, 0, 64, 102
1, 550427, Control_c, 0, 64, 103
1, 550442, Control_c, 0, 64, 103
1, 550447, Note_off_c, 0, 70, 39
1, 550456, Control_c, 0, 64, 104
1, 550471, Control_c, 0, 64, 105
1, 550486, Control_c, 0, 64, 106
1, 550501, Control_c, 0, 64, 107
1, 550531, Control_c, 0, 64, 108
1, 550546, Control_c, 0, 64, 108
1, 550561, Control_c, 0, 64, 110
1, 550575, Control_c, 0, 64, 110
1, 550590, Control_c, 0, 64, 111
1, 550605, Control_c, 0, 64, 111
1, 550620, Control_c, 0, 64, 112
1, 550635, Control_c, 0, 64, 113
1, 550664, Control_c, 0, 64, 113
1, 550679, Control_c, 0, 64, 114
1, 550694, Control_c, 0, 64, 116
1, 550709, Control_c, 0, 64, 117
1, 550775, Control_c, 0, 64, 118
1, 551187, Note_on_c, 0, 62, 33
1, 551228, Note_on_c, 0, 54, 27
1, 551413, Control_c, 0, 64, 119
1, 551425, Note_off_c, 0, 54, 40
1, 551443, Control_c, 0, 64, 121
1, 551479, Control_c, 0, 64, 123
1, 551494, Control_c, 0, 64, 127
1, 551537, Note_off_c, 0, 62, 36
1, 552615, Note_on_c, 0, 70, 30
1, 552622, Note_on_c, 0, 63, 28
1, 553109, Note_off_c, 0, 43, 36
1, 553365, Note_off_c, 0, 31, 37
1, 554906, Note_on_c, 0, 23, 35
1, 554930, Note_on_c, 0, 35, 26
1, 555045, Note_off_c, 0, 63, 29
1, 555154, Note_off_c, 0, 70, 37
1, 557345, Note_on_c, 0, 62, 31
1, 557349, Note_on_c, 0, 54, 36
1, 557598, Note_off_c, 0, 54, 34
1, 561344, Note_off_c, 0, 62, 0
1, 561381, Poly_aftertouch_c, 0, 62, 127
1, 561703, Control_c, 0, 67, 124
1, 561718, Control_c, 0, 67, 118
1, 561733, Control_c, 0, 67, 113
1, 561748, Control_c, 0, 67, 109
1, 561762, Control_c, 0, 67, 105
1, 561777, Control_c, 0, 67, 100
1, 561792, Control_c, 0, 67, 97
1, 561806, Control_c, 0, 67, 92
1, 561821, Control_c, 0, 67, 88
1, 561836, Control_c, 0, 67, 85
1, 561851, Control_c, 0, 67, 81
1, 561866, Control_c, 0, 67, 78
1, 561880, Control_c, 0, 67, 74
1, 561895, Control_c, 0, 67, 70
1, 561910, Control_c, 0, 67, 66
1, 561925, Control_c, 0, 67, 63
1, 561940, Control_c, 0, 67, 59
1, 561962, Control_c, 0, 67, 55
1, 561977, Control_c, 0, 67, 51
1, 561992, Control_c, 0, 67, 46
1, 562007, Control_c, 0, 67, 41
1, 562021, Control_c, 0, 67, 36
1, 562036, Control_c, 0, 67, 31
1, 562051, Control_c, 0, 67, 27
1, 562067, Control_c, 0, 67, 23
1, 562082, Control_c, 0, 67, 18
1, 562097, Control_c, 0, 67, 14
1, 562111, Control_c, 0, 67, 10
1, 562126, Control_c, 0, 67, 0
1, 562673, Control_c, 0, 64, 123
1, 562688, Control_c, 0, 64, 119
1, 562710, Control_c, 0, 64, 117
1, 562725, Control_c, 0, 64, 116
1, 562740, Control_c, 0, 64, 113
1, 562755, Control_c, 0, 64, 111
1, 562770, Control_c, 0, 64, 108
1, 562784, Control_c, 0, 64, 107
1, 562799, Control_c, 0, 64, 105
1, 562814, Control_c, 0, 64, 104
1, 562829, Control_c, 0, 64, 103
1, 562843, Control_c, 0, 64, 102
1, 562874, Control_c, 0, 64, 101
1, 562889, Control_c, 0, 64, 100
1, 562904, Control_c, 0, 64, 100
1, 562919, Control_c, 0, 64, 99
1, 562933, Control_c, 0, 64, 98
1, 562948, Control_c, 0, 64, 97
1, 562963, Control_c, 0, 64, 96
1, 562978, Control_c, 0, 64, 95
1, 562993, Control_c, 0, 64, 95
1, 563007, Control_c, 0, 64, 94
1, 563022, Control_c, 0, 64, 94
1, 563037, Control_c, 0, 64, 93
1, 563052, Control_c, 0, 64, 92
1, 563066, Control_c, 0, 64, 90
1, 563081, Control_c, 0, 64, 89
1, 563096, Control_c, 0, 64, 88
1, 563155, Control_c, 0, 64, 88
1, 563170, Control_c, 0, 64, 87
1, 563185, Control_c, 0, 64, 87
1, 563200, Control_c, 0, 64, 86
1, 563230, Control_c, 0, 64, 86
1, 563244, Control_c, 0, 64, 85
1, 563274, Control_c, 0, 64, 84
1, 563289, Control_c, 0, 64, 84
1, 563304, Control_c, 0, 64, 83
1, 563306, Poly_aftertouch_c, 0, 62, 0
1, 563319, Control_c, 0, 64, 83
1, 563333, Control_c, 0, 64, 82
1, 563348, Control_c, 0, 64, 81
1, 563363, Control_c, 0, 64, 81
1, 563393, Control_c, 0, 64, 80
1, 563422, Control_c, 0, 64, 80
1, 563437, Control_c, 0, 64, 79
1, 563474, Control_c, 0, 64, 79
1, 563489, Control_c, 0, 64, 78
1, 563504, Control_c, 0, 64, 78
1, 563533, Control_c, 0, 64, 77
1, 563548, Control_c, 0, 64, 77
1, 563578, Control_c, 0, 64, 76
1, 563607, Control_c, 0, 64, 76
1, 563622, Control_c, 0, 64, 75
1, 563637, Control_c, 0, 64, 75
1, 563653, Control_c, 0, 64, 74
1, 563668, Control_c, 0, 64, 73
1, 563682, Control_c, 0, 64, 72
1, 563697, Control_c, 0, 64, 71
1, 563712, Control_c, 0, 64, 70
1, 563727, Control_c, 0, 64, 70
1, 563742, Control_c, 0, 64, 69
1, 563801, Control_c, 0, 64, 69
1, 563845, Control_c, 0, 64, 68
1, 563904, Control_c, 0, 64, 68
1, 563934, Control_c, 0, 64, 67
1, 563963, Control_c, 0, 64, 67
1, 564023, Control_c, 0, 64, 66
1, 564044, Note_off_c, 0, 23, 33
1, 564057, Note_off_c, 0, 35, 7
1, 564067, Control_c, 0, 64, 66
1, 564127, Control_c, 0, 64, 65
1, 564186, Control_c, 0, 64, 65
1, 564282, Control_c, 0, 64, 64
1, 564401, Control_c, 0, 64, 64
1, 564505, Control_c, 0, 64, 63
1, 564579, Control_c, 0, 64, 63
1, 564653, Control_c, 0, 64, 62
1, 564772, Control_c, 0, 64, 62
1, 564891, Control_c, 0, 64, 61
1, 564973, Control_c, 0, 64, 61
1, 565091, Control_c, 0, 64, 60
1, 565194, Control_c, 0, 64, 60
1, 566077, Control_c, 0, 64, 60
1, 566166, Control_c, 0, 64, 61
1, 566558, Control_c, 0, 64, 60
1, 566985, Note_on_c, 0, 63, 68
1, 567018, Note_off_c, 0, 63, 63
1, 567076, Note_on_c, 0, 66, 78
1, 567093, Control_c, 0, 64, 60
1, 567133, Note_off_c, 0, 66, 60
1, 567137, Control_c, 0, 64, 59
1, 567167, Control_c, 0, 64, 59
1, 567173, Note_on_c, 0, 70, 79
1, 567203, Note_off_c, 0, 70, 70
1, 567203, Control_c, 0, 64, 57
1, 567218, Control_c, 0, 64, 55
1, 567233, Control_c, 0, 64, 48
1, 567248, Control_c, 0, 64, 17
1, 567263, Control_c, 0, 64, 0
1, 567281, Note_on_c, 0, 74, 97
1, 567455, Control_c, 0, 64, 23
1, 567470, Control_c, 0, 64, 39
1, 567485, Control_c, 0, 64, 52
1, 567499, Control_c, 0, 64, 58
1, 567503, Note_off_c, 0, 74, 64
1, 567514, Control_c, 0, 64, 62
1, 567529, Control_c, 0, 64, 64
1, 567544, Control_c, 0, 64, 67
1, 567559, Control_c, 0, 64, 71
1, 567573, Control_c, 0, 64, 75
1, 567588, Control_c, 0, 64, 72
1, 567603, Control_c, 0, 64, 65
1, 567618, Control_c, 0, 64, 55
1, 567633, Note_on_c, 0, 77, 104
1, 567633, Control_c, 0, 64, 41
1, 567649, Control_c, 0, 64, 41
1, 567664, Control_c, 0, 64, 49
1, 567678, Control_c, 0, 64, 59
1, 567687, Note_off_c, 0, 77, 65
1, 567693, Control_c, 0, 64, 63
1, 567708, Control_c, 0, 64, 65
1, 567722, Control_c, 0, 64, 67
1, 567737, Control_c, 0, 64, 72
1, 567752, Control_c, 0, 64, 77
1, 567767, Control_c, 0, 64, 81
1, 567782, Control_c, 0, 64, 83
1, 567796, Control_c, 0, 64, 84
1, 567811, Control_c, 0, 64, 82
1, 567826, Control_c, 0, 64, 75
1, 567841, Control_c, 0, 64, 65
1, 567856, Control_c, 0, 64, 52
1, 567860, Note_on_c, 0, 78, 93
1, 567871, Control_c, 0, 64, 25
1, 567886, Control_c, 0, 64, 0
1, 567914, Note_off_c, 0, 78, 65
1, 567969, Note_on_c, 0, 75, 90
1, 568000, Note_off_c, 0, 75, 66
1, 568070, Note_on_c, 0, 70, 87
1, 568107, Note_off_c, 0, 70, 64
1, 568178, Note_on_c, 0, 74, 88
1, 568224, Note_off_c, 0, 74, 63
1, 568277, Note_on_c, 0, 69, 84
1, 568315, Note_off_c, 0, 69, 66
1, 568382, Note_on_c, 0, 66, 69
1, 568413, Note_off_c, 0, 66, 64
1, 568484, Note_on_c, 0, 63, 64
1, 568688, Note_off_c, 0, 63, 61
1, 568733, Note_on_c, 0, 70, 68
1, 568783, Note_off_c, 0, 70, 61
1, 568840, Note_on_c, 0, 71, 70
1, 568872, Note_off_c, 0, 71, 63
1, 568932, Note_on_c, 0, 73, 75
1, 568960, Note_off_c, 0, 73, 63
1, 569032, Note_on_c, 0, 75, 89
1, 569068, Note_off_c, 0, 75, 66
1, 569143, Note_on_c, 0, 65, 67
1, 569184, Note_off_c, 0, 65, 61
1, 569235, Note_on_c, 0, 70, 85
1, 569278, Note_off_c, 0, 70, 61
1, 569340, Note_on_c, 0, 78, 91
1, 569606, Note_on_c, 0, 68, 66
1, 569628, Note_off_c, 0, 78, 59
1, 569665, Note_off_c, 0, 68, 57
1, 569704, Note_on_c, 0, 77, 75
1, 569752, Note_off_c, 0, 77, 56
1, 569798, Note_on_c, 0, 71, 73
1, 569834, Note_off_c, 0, 71, 60
1, 569904, Note_on_c, 0, 73, 85
1, 569957, Note_off_c, 0, 73, 63
1, 569998, Note_on_c, 0, 63, 78
1, 570056, Note_off_c, 0, 63, 61
1, 570106, Note_on_c, 0, 68, 88
1, 570145, Note_off_c, 0, 68, 61
1, 570221, Note_on_c, 0, 77, 93
1, 570467, Note_on_c, 0, 66, 82
1, 570484, Note_off_c, 0, 77, 61
1, 570519, Note_off_c, 0, 66, 62
1, 570569, Note_on_c, 0, 75, 93
1, 570637, Note_off_c, 0, 75, 58
1, 570675, Note_on_c, 0, 70, 85
1, 570724, Note_off_c, 0, 70, 62
1, 570777, Note_on_c, 0, 71, 98
1, 570876, Note_off_c, 0, 71, 59
1, 570885, Note_on_c, 0, 61, 73
1, 570951, Note_off_c, 0, 61, 61
1, 570990, Note_on_c, 0, 66, 76
1, 571030, Note_off_c, 0, 66, 60
1, 571084, Note_on_c, 0, 75, 79
1, 571133, Note_off_c, 0, 75, 54
1, 571183, Note_on_c, 0, 65, 76
1, 571234, Note_off_c, 0, 65, 62
1, 571275, Note_on_c, 0, 73, 82
1, 571309, Note_off_c, 0, 73, 65
1, 571369, Note_on_c, 0, 70, 96
1, 571427, Note_off_c, 0, 70, 66
1, 571471, Note_on_c, 0, 59, 77
1, 571525, Note_off_c, 0, 59, 64
1, 571569, Note_on_c, 0, 65, 94
1, 571630, Note_off_c, 0, 65, 59
1, 571670, Note_on_c, 0, 73, 78
1, 571779, Note_on_c, 0, 63, 68
1, 571801, Note_off_c, 0, 73, 61
1, 571814, Note_off_c, 0, 63, 61
1, 571874, Note_on_c, 0, 71, 69
1, 571912, Note_off_c, 0, 71, 66
1, 571967, Note_on_c, 0, 70, 71
1, 572020, Note_off_c, 0, 70, 63
1, 572060, Note_on_c, 0, 46, 67
1, 572065, Note_on_c, 0, 65, 80
1, 572098, Note_off_c, 0, 46, 63
1, 572104, Note_off_c, 0, 65, 62
1, 572164, Note_on_c, 0, 49, 75
1, 572167, Note_on_c, 0, 61, 76
1, 572192, Note_off_c, 0, 61, 68
1, 572198, Note_off_c, 0, 49, 67
1, 572251, Note_on_c, 0, 53, 75
1, 572261, Note_on_c, 0, 58, 82
1, 572283, Note_off_c, 0, 53, 67
1, 572286, Note_off_c, 0, 58, 68
1, 572360, Note_on_c, 0, 57, 94
1, 572492, Note_on_c, 0, 73, 70
1, 572587, Note_off_c, 0, 73, 57
1, 572596, Note_on_c, 0, 75, 74
1, 572625, Note_off_c, 0, 57, 65
1, 572642, Note_off_c, 0, 75, 59
1, 572685, Note_on_c, 0, 60, 98
1, 572691, Note_on_c, 0, 73, 88
1, 572759, Note_off_c, 0, 73, 59
1, 572807, Note_on_c, 0, 77, 72
1, 572867, Note_off_c, 0, 60, 60
1, 572900, Note_off_c, 0, 77, 57
1, 572905, Note_on_c, 0, 61, 90
1, 572911, Note_on_c, 0, 73, 75
1, 572933, Note_off_c, 0, 73, 70
1, 572944, Note_off_c, 0, 61, 61
1, 573010, Note_on_c, 0, 58, 87
1, 573062, Note_off_c, 0, 58, 63
1, 573105, Note_on_c, 0, 53, 86
1, 573150, Note_off_c, 0, 53, 64
1, 573214, Note_on_c, 0, 57, 88
1, 573269, Note_off_c, 0, 57, 64
1, 573310, Note_on_c, 0, 52, 81
1, 573319, Note_on_c, 0, 72, 61
1, 573354, Note_off_c, 0, 52, 60
1, 573359, Note_off_c, 0, 72, 60
1, 573403, Note_on_c, 0, 49, 68
1, 573418, Note_on_c, 0, 73, 62
1, 573438, Note_off_c, 0, 49, 63
1, 573473, Note_off_c, 0, 73, 58
1, 573502, Note_on_c, 0, 46, 65
1, 573508, Note_on_c, 0, 72, 66
1, 573590, Note_off_c, 0, 72, 61
1, 573620, Note_on_c, 0, 75, 64
1, 573725, Note_off_c, 0, 75, 60
1, 573728, Note_on_c, 0, 52, 70
1, 573728, Note_on_c, 0, 72, 59
1, 573744, Note_off_c, 0, 46, 57
1, 573758, Note_off_c, 0, 72, 66
1, 573770, Note_off_c, 0, 52, 64
1, 573830, Note_on_c, 0, 53, 79
1, 573862, Note_off_c, 0, 53, 66
1, 573930, Note_on_c, 0, 54, 77
1, 573970, Note_off_c, 0, 54, 61
1, 574038, Note_on_c, 0, 56, 76
1, 574071, Note_off_c, 0, 56, 66
1, 574131, Note_on_c, 0, 46, 62
1, 574136, Note_on_c, 0, 71, 66
1, 574167, Note_off_c, 0, 46, 62
1, 574195, Note_off_c, 0, 71, 58
1, 574229, Note_on_c, 0, 78, 68
1, 574233, Note_on_c, 0, 51, 77
1, 574266, Note_off_c, 0, 51, 62
1, 574314, Note_off_c, 0, 78, 46
1, 574325, Note_on_c, 0, 70, 64
1, 574331, Note_on_c, 0, 59, 75
1, 574363, Note_off_c, 0, 70, 59
1, 574432, Note_on_c, 0, 75, 63
1, 574524, Note_off_c, 0, 75, 57
1, 574542, Note_off_c, 0, 59, 62
1, 574544, Note_on_c, 0, 68, 47
1, 574559, Note_on_c, 0, 49, 55
1, 574613, Note_off_c, 0, 49, 61
1, 574655, Note_on_c, 0, 58, 74
1, 574695, Note_off_c, 0, 58, 64
1, 574758, Note_on_c, 0, 53, 75
1, 574791, Note_off_c, 0, 53, 66
1, 574861, Note_on_c, 0, 54, 86
1, 574905, Note_off_c, 0, 54, 64
1, 574916, Note_off_c, 0, 68, 55
1, 574947, Note_on_c, 0, 70, 69
1, 574958, Note_on_c, 0, 44, 64
1, 575000, Note_off_c, 0, 44, 63
1, 575035, Note_off_c, 0, 70, 63
1, 575049, Note_on_c, 0, 77, 72
1, 575068, Note_on_c, 0, 49, 75
1, 575098, Note_off_c, 0, 49, 69
1, 575156, Note_on_c, 0, 68, 76
1, 575160, Note_on_c, 0, 58, 93
1, 575163, Note_off_c, 0, 77, 57
1, 575244, Note_off_c, 0, 68, 51
1, 575286, Note_on_c, 0, 73, 64
1, 575406, Note_off_c, 0, 58, 64
1, 575412, Note_on_c, 0, 47, 63
1, 575416, Note_on_c, 0, 66, 68
1, 575439, Note_off_c, 0, 73, 57
1, 575515, Note_on_c, 0, 56, 91
1, 575555, Note_off_c, 0, 56, 62
1, 575587, Note_off_c, 0, 47, 57
1, 575618, Note_on_c, 0, 51, 79
1, 575668, Note_off_c, 0, 51, 63
1, 575717, Note_on_c, 0, 53, 100
1, 575782, Note_off_c, 0, 53, 63
1, 575814, Note_on_c, 0, 42, 71
1, 575833, Note_on_c, 0, 75, 61
1, 575878, Note_off_c, 0, 66, 36
1, 575895, Note_off_c, 0, 42, 61
1, 575923, Note_on_c, 0, 47, 60
1, 575925, Note_off_c, 0, 75, 59
1, 575934, Note_on_c, 0, 68, 71
1, 575985, Note_off_c, 0, 47, 58
1, 576031, Note_on_c, 0, 56, 69
1, 576031, Note_on_c, 0, 75, 75
1, 576037, Note_off_c, 0, 68, 54
1, 576063, Note_off_c, 0, 56, 66
1, 576101, Note_off_c, 0, 75, 61
1, 576122, Note_on_c, 0, 71, 77
1, 576126, Note_on_c, 0, 46, 78
1, 576158, Note_off_c, 0, 46, 64
1, 576225, Note_on_c, 0, 65, 82
1, 576229, Note_on_c, 0, 54, 92
1, 576253, Note_off_c, 0, 71, 58
1, 576274, Note_off_c, 0, 54, 66
1, 576337, Note_on_c, 0, 51, 103
1, 576384, Note_off_c, 0, 51, 64
1, 576408, Note_off_c, 0, 65, 61
1, 576442, Note_on_c, 0, 41, 86
1, 576483, Note_off_c, 0, 41, 64
1, 576551, Note_on_c, 0, 46, 87
1, 576605, Note_off_c, 0, 46, 63
1, 576651, Note_on_c, 0, 58, 94
1, 576659, Note_on_c, 0, 54, 84
1, 576686, Note_off_c, 0, 54, 68
1, 576692, Note_off_c, 0, 58, 67
1, 576755, Note_on_c, 0, 60, 99
1, 576759, Note_on_c, 0, 44, 82
1, 576796, Note_off_c, 0, 44, 62
1, 576803, Note_off_c, 0, 60, 67
1, 576848, Note_on_c, 0, 62, 97
1, 576852, Note_on_c, 0, 53, 85
1, 576893, Note_off_c, 0, 53, 64
1, 576894, Note_off_c, 0, 62, 66
1, 576963, Note_on_c, 0, 63, 92
1, 576966, Note_on_c, 0, 51, 96
1, 576966, Control_c, 0, 64, 55
1, 576981, Control_c, 0, 64, 73
1, 576990, Note_off_c, 0, 63, 63
1, 576996, Control_c, 0, 64, 92
1, 577011, Control_c, 0, 64, 127
1, 577082, Note_on_c, 0, 46, 84
1, 577085, Control_c, 0, 64, 112
1, 577088, Note_on_c, 0, 75, 93
1, 577091, Note_off_c, 0, 51, 64
1, 577100, Control_c, 0, 64, 80
1, 577115, Control_c, 0, 64, 66
1, 577129, Control_c, 0, 64, 53
1, 577135, Note_off_c, 0, 46, 63
1, 577138, Note_off_c, 0, 75, 64
1, 577144, Control_c, 0, 64, 32
1, 577159, Control_c, 0, 64, 32
1, 577187, Note_on_c, 0, 78, 88
1, 577189, Note_on_c, 0, 42, 75
1, 577228, Note_off_c, 0, 42, 65
1, 577249, Note_off_c, 0, 78, 63
1, 577282, Note_on_c, 0, 82, 90
1, 577292, Note_on_c, 0, 39, 66
1, 577323, Note_off_c, 0, 82, 65
1, 577323, Control_c, 0, 64, 25
1, 577326, Note_off_c, 0, 39, 64
1, 577338, Control_c, 0, 64, 0
1, 577395, Note_on_c, 0, 86, 98
1, 577502, Note_on_c, 0, 66, 67
1, 577505, Note_on_c, 0, 58, 52
1, 577543, Note_off_c, 0, 58, 59
1, 577545, Control_c, 0, 64, 28
1, 577549, Note_off_c, 0, 66, 56
1, 577560, Control_c, 0, 64, 43
1, 577575, Control_c, 0, 64, 54
1, 577589, Control_c, 0, 64, 62
1, 577600, Note_on_c, 0, 68, 74
1, 577604, Control_c, 0, 64, 68
1, 577605, Note_on_c, 0, 62, 73
1, 577619, Control_c, 0, 64, 74
1, 577633, Note_off_c, 0, 68, 64
1, 577633, Note_off_c, 0, 86, 65
1, 577634, Control_c, 0, 64, 77
1, 577649, Control_c, 0, 64, 72
1, 577651, Note_off_c, 0, 62, 58
1, 577663, Control_c, 0, 64, 62
1, 577686, Control_c, 0, 64, 47
1, 577701, Control_c, 0, 64, 29
1, 577705, Note_on_c, 0, 89, 110
1, 577715, Note_on_c, 0, 66, 82
1, 577716, Control_c, 0, 64, 29
1, 577717, Note_on_c, 0, 58, 66
1, 577731, Control_c, 0, 64, 39
1, 577745, Control_c, 0, 64, 51
1, 577756, Note_off_c, 0, 58, 59
1, 577760, Control_c, 0, 64, 57
1, 577770, Note_off_c, 0, 66, 62
1, 577775, Control_c, 0, 64, 60
1, 577789, Control_c, 0, 64, 62
1, 577804, Control_c, 0, 64, 64
1, 577819, Control_c, 0, 64, 66
1, 577824, Note_on_c, 0, 70, 75
1, 577827, Note_on_c, 0, 63, 74
1, 577834, Control_c, 0, 64, 69
1, 577849, Control_c, 0, 64, 76
1, 577857, Note_off_c, 0, 70, 62
1, 577862, Note_off_c, 0, 89, 63
1, 577863, Control_c, 0, 64, 90
1, 577865, Note_off_c, 0, 63, 60
1, 577878, Control_c, 0, 64, 127
1, 577908, Control_c, 0, 64, 99
1, 577923, Control_c, 0, 64, 71
1, 577928, Note_on_c, 0, 66, 84
1, 577933, Note_on_c, 0, 90, 100
1, 577937, Note_on_c, 0, 58, 65
1, 577937, Control_c, 0, 64, 58
1, 577948, Note_off_c, 0, 66, 72
1, 577952, Control_c, 0, 64, 39
1, 577957, Note_off_c, 0, 58, 39
1, 577967, Control_c, 0, 64, 32
1, 577990, Note_off_c, 0, 90, 64
1, 578012, Control_c, 0, 64, 33
1, 578027, Control_c, 0, 64, 34
1, 578039, Note_on_c, 0, 87, 93
1, 578042, Control_c, 0, 64, 35
1, 578057, Control_c, 0, 64, 36
1, 578072, Control_c, 0, 64, 37
1, 578086, Control_c, 0, 64, 38
1, 578095, Note_off_c, 0, 87, 66
1, 578101, Control_c, 0, 64, 38
1, 578116, Control_c, 0, 64, 39
1, 578131, Control_c, 0, 64, 39
1, 578134, Note_on_c, 0, 82, 93
1, 578146, Control_c, 0, 64, 40
1, 578161, Control_c, 0, 64, 40
1, 578172, Note_off_c, 0, 82, 65
1, 578176, Control_c, 0, 64, 41
1, 578238, Note_on_c, 0, 86, 98
1, 578287, Note_off_c, 0, 86, 65
1, 578333, Note_on_c, 0, 57, 56
1, 578335, Note_on_c, 0, 81, 95
1, 578339, Control_c, 0, 64, 41
1, 578350, Note_on_c, 0, 65, 39
1, 578372, Note_off_c, 0, 57, 62
1, 578378, Note_off_c, 0, 65, 51
1, 578391, Note_off_c, 0, 81, 62
1, 578442, Note_on_c, 0, 78, 87
1, 578450, Note_on_c, 0, 61, 51
1, 578450, Note_on_c, 0, 66, 57
1, 578482, Note_off_c, 0, 66, 66
1, 578490, Note_off_c, 0, 61, 63
1, 578493, Note_off_c, 0, 78, 65
1, 578531, Note_on_c, 0, 75, 86
1, 578538, Note_on_c, 0, 57, 67
1, 578548, Note_on_c, 0, 65, 43
1, 578571, Note_off_c, 0, 57, 65
1, 578575, Note_off_c, 0, 65, 54
1, 578583, Control_c, 0, 64, 40
1, 578598, Control_c, 0, 64, 38
1, 578612, Control_c, 0, 64, 32
1, 578627, Control_c, 0, 64, 0
1, 578632, Note_on_c, 0, 69, 90
1, 578639, Note_on_c, 0, 65, 82
1, 578663, Note_off_c, 0, 69, 66
1, 578671, Note_off_c, 0, 65, 62
1, 578694, Note_off_c, 0, 75, 58
1, 578724, Poly_aftertouch_c, 0, 85, 127
1, 578743, Note_on_c, 0, 66, 62
1, 578743, Note_on_c, 0, 82, 78
1, 578746, Note_on_c, 0, 61, 65
1, 578763, Note_off_c, 0, 66, 43
1, 578766, Note_off_c, 0, 61, 62
1, 578776, Poly_aftertouch_c, 0, 85, 0
1, 578805, Note_off_c, 0, 82, 64
1, 578850, Note_on_c, 0, 83, 85
1, 578890, Note_off_c, 0, 83, 65
1, 578949, Note_on_c, 0, 85, 83
1, 578996, Note_off_c, 0, 85, 65
1, 579049, Note_on_c, 0, 87, 92
1, 579051, Note_on_c, 0, 68, 66
1, 579058, Control_c, 0, 64, 47
1, 579073, Control_c, 0, 64, 61
1, 579087, Note_off_c, 0, 68, 60
1, 579088, Control_c, 0, 64, 70
1, 579102, Control_c, 0, 64, 81
1, 579115, Control_c, 0, 64, 108
1, 579130, Control_c, 0, 64, 127
1, 579139, Note_on_c, 0, 77, 66
1, 579151, Note_on_c, 0, 54, 54
1, 579220, Note_off_c, 0, 87, 58
1, 579240, Note_off_c, 0, 77, 53
1, 579255, Note_off_c, 0, 54, 52
1, 579258, Note_on_c, 0, 82, 69
1, 579268, Note_on_c, 0, 61, 56
1, 579315, Note_off_c, 0, 82, 64
1, 579329, Note_off_c, 0, 61, 52
1, 579359, Note_on_c, 0, 90, 88
1, 579362, Note_on_c, 0, 53, 62
1, 579389, Note_off_c, 0, 90, 63
1, 579434, Control_c, 0, 64, 80
1, 579437, Note_off_c, 0, 53, 61
1, 579449, Control_c, 0, 64, 63
1, 579464, Control_c, 0, 64, 41
1, 579467, Note_on_c, 0, 73, 92
1, 579478, Control_c, 0, 64, 45
1, 579479, Note_on_c, 0, 58, 63
1, 579493, Control_c, 0, 64, 57
1, 579508, Control_c, 0, 64, 64
1, 579523, Control_c, 0, 64, 70
1, 579538, Control_c, 0, 64, 87
1, 579552, Control_c, 0, 64, 127
1, 579560, Note_off_c, 0, 58, 61
1, 579563, Note_off_c, 0, 73, 64
1, 579571, Note_on_c, 0, 51, 68
1, 579581, Note_on_c, 0, 80, 82
1, 579593, Note_off_c, 0, 51, 63
1, 579612, Note_off_c, 0, 80, 61
1, 579681, Note_on_c, 0, 89, 96
1, 579743, Note_off_c, 0, 89, 56
1, 579780, Note_on_c, 0, 83, 74
1, 579846, Note_off_c, 0, 83, 64
1, 579880, Control_c, 0, 64, 83
1, 579887, Note_on_c, 0, 66, 84
1, 579895, Control_c, 0, 64, 62
1, 579899, Note_on_c, 0, 85, 103
1, 579910, Control_c, 0, 64, 0
1, 579961, Control_c, 0, 64, 38
1, 579963, Note_off_c, 0, 66, 62
1, 579976, Control_c, 0, 64, 59
1, 579991, Control_c, 0, 64, 67
1, 579996, Note_on_c, 0, 53, 62
1, 580006, Control_c, 0, 64, 76
1, 580007, Note_on_c, 0, 75, 70
1, 580021, Control_c, 0, 64, 96
1, 580036, Control_c, 0, 64, 127
1, 580072, Note_off_c, 0, 85, 59
1, 580081, Note_off_c, 0, 75, 59
1, 580083, Note_off_c, 0, 53, 61
1, 580106, Note_on_c, 0, 59, 61
1, 580111, Note_on_c, 0, 80, 79
1, 580147, Note_off_c, 0, 80, 62
1, 580182, Note_off_c, 0, 59, 62
1, 580203, Note_on_c, 0, 51, 62
1, 580212, Note_on_c, 0, 89, 88
1, 580233, Note_off_c, 0, 89, 69
1, 580293, Note_off_c, 0, 51, 58
1, 580302, Control_c, 0, 64, 108
1, 580317, Control_c, 0, 64, 71
1, 580322, Note_on_c, 0, 71, 96
1, 580329, Note_on_c, 0, 56, 63
1, 580331, Control_c, 0, 64, 44
1, 580346, Control_c, 0, 64, 0
1, 580391, Control_c, 0, 64, 46
1, 580396, Note_off_c, 0, 71, 57
1, 580406, Control_c, 0, 64, 63
1, 580420, Control_c, 0, 64, 73
1, 580425, Note_on_c, 0, 49, 63
1, 580430, Note_on_c, 0, 78, 82
1, 580436, Control_c, 0, 64, 93
1, 580444, Note_off_c, 0, 56, 61
1, 580451, Control_c, 0, 64, 127
1, 580457, Note_off_c, 0, 49, 65
1, 580492, Note_off_c, 0, 78, 63
1, 580550, Note_on_c, 0, 87, 67
1, 580598, Note_off_c, 0, 87, 52
1, 580637, Note_on_c, 0, 82, 68
1, 580707, Note_off_c, 0, 82, 63
1, 580725, Control_c, 0, 64, 97
1, 580740, Control_c, 0, 64, 68
1, 580752, Note_on_c, 0, 83, 102
1, 580754, Note_on_c, 0, 65, 86
1, 580755, Control_c, 0, 64, 44
1, 580769, Control_c, 0, 64, 0
1, 580799, Control_c, 0, 64, 27
1, 580814, Control_c, 0, 64, 48
1, 580823, Note_off_c, 0, 65, 56
1, 580829, Control_c, 0, 64, 58
1, 580843, Note_off_c, 0, 83, 59
1, 580844, Control_c, 0, 64, 63
1, 580856, Note_on_c, 0, 73, 88
1, 580859, Control_c, 0, 64, 69
1, 580860, Note_on_c, 0, 58, 78
1, 580874, Control_c, 0, 64, 82
1, 580888, Control_c, 0, 64, 127
1, 580925, Note_off_c, 0, 58, 62
1, 580952, Note_on_c, 0, 78, 102
1, 580954, Note_on_c, 0, 51, 83
1, 580963, Note_off_c, 0, 73, 58
1, 581009, Note_off_c, 0, 78, 64
1, 581039, Note_off_c, 0, 51, 63
1, 581051, Note_on_c, 0, 87, 81
1, 581053, Note_on_c, 0, 58, 79
1, 581073, Note_off_c, 0, 87, 70
1, 581076, Note_off_c, 0, 58, 69
1, 581153, Note_on_c, 0, 77, 97
1, 581154, Note_on_c, 0, 70, 86
1, 581154, Control_c, 0, 64, 100
1, 581159, Note_on_c, 0, 54, 100
1, 581169, Control_c, 0, 64, 66
1, 581175, Note_off_c, 0, 70, 70
1, 581184, Control_c, 0, 64, 0
1, 581259, Control_c, 0, 64, 37
1, 581264, Note_on_c, 0, 85, 85
1, 581265, Note_on_c, 0, 47, 67
1, 581270, Note_off_c, 0, 54, 59
1, 581274, Control_c, 0, 64, 58
1, 581275, Note_off_c, 0, 77, 60
1, 581289, Control_c, 0, 64, 66
1, 581303, Control_c, 0, 64, 75
1, 581318, Control_c, 0, 64, 95
1, 581333, Control_c, 0, 64, 127
1, 581369, Note_on_c, 0, 82, 70
1, 581383, Note_off_c, 0, 85, 65
1, 581458, Note_on_c, 0, 71, 68
1, 581485, Note_off_c, 0, 71, 66
1, 581498, Note_off_c, 0, 82, 62
1, 581504, Note_on_c, 0, 77, 20
1, 581543, Note_off_c, 0, 77, 0
1, 581544, Note_off_c, 0, 47, 63
1, 581557, Note_on_c, 0, 69, 73
1, 581557, Note_on_c, 0, 77, 66
1, 581578, Note_off_c, 0, 69, 65
1, 581592, Control_c, 0, 64, 89
1, 581607, Control_c, 0, 64, 60
1, 581622, Control_c, 0, 64, 0
1, 581633, Note_off_c, 0, 77, 64
1, 581666, Note_on_c, 0, 41, 94
1, 581666, Note_on_c, 0, 85, 86
1, 581707, Note_off_c, 0, 41, 66
1, 581765, Note_on_c, 0, 43, 94
1, 581767, Note_on_c, 0, 75, 95
1, 581808, Note_off_c, 0, 43, 64
1, 581813, Note_off_c, 0, 85, 63
1, 581824, Note_off_c, 0, 75, 61
1, 581855, Note_on_c, 0, 45, 96
1, 581863, Note_on_c, 0, 83, 88
1, 581896, Note_off_c, 0, 45, 63
1, 581939, Note_off_c, 0, 83, 66
1, 581965, Note_on_c, 0, 82, 98
1, 581967, Note_on_c, 0, 58, 105
1, 581970, Note_on_c, 0, 46, 90
1, 581977, Control_c, 0, 64, 41
1, 581990, Note_off_c, 0, 46, 69
1, 581991, Note_off_c, 0, 58, 68
1, 581992, Control_c, 0, 64, 75
1, 582007, Control_c, 0, 64, 105
1, 582023, Control_c, 0, 64, 127
1, 582052, Control_c, 0, 64, 87
1, 582060, Note_off_c, 0, 82, 65
1, 582067, Control_c, 0, 64, 60
1, 582080, Note_on_c, 0, 58, 93
1, 582082, Control_c, 0, 64, 0
1, 582084, Note_on_c, 0, 77, 90
1, 582121, Note_off_c, 0, 58, 65
1, 582137, Note_off_c, 0, 77, 63
1, 582181, Note_on_c, 0, 61, 85
1, 582191, Note_on_c, 0, 73, 87
1, 582209, Note_off_c, 0, 73, 73
1, 582215, Note_on_c, 0, 75, 36
1, 582216, Note_off_c, 0, 75, 127
1, 582216, Note_off_c, 0, 61, 64
1, 582276, Note_on_c, 0, 65, 100
1, 582282, Note_on_c, 0, 70, 83
1, 582301, Note_off_c, 0, 70, 73
1, 582310, Note_off_c, 0, 65, 66
1, 582312, Control_c, 0, 64, 59
1, 582326, Control_c, 0, 64, 65
1, 582341, Control_c, 0, 64, 64
1, 582356, Control_c, 0, 64, 61
1, 582371, Control_c, 0, 64, 60
1, 582380, Note_on_c, 0, 69, 112
1, 582385, Control_c, 0, 64, 61
1, 582415, Control_c, 0, 64, 60
1, 582445, Control_c, 0, 64, 55
1, 582459, Control_c, 0, 64, 29
1, 582474, Control_c, 0, 64, 0
1, 582508, Note_on_c, 0, 77, 81
1, 582515, Note_on_c, 0, 85, 85
1, 582520, Note_off_c, 0, 69, 64
1, 582599, Note_on_c, 0, 87, 80
1, 582602, Note_on_c, 0, 82, 79
1, 582615, Note_off_c, 0, 85, 65
1, 582627, Note_off_c, 0, 77, 62
1, 582674, Note_off_c, 0, 87, 64
1, 582676, Note_off_c, 0, 82, 64
1, 582703, Note_on_c, 0, 72, 105
1, 582708, Note_on_c, 0, 77, 86
1, 582708, Note_on_c, 0, 85, 95
1, 582756, Control_c, 0, 64, 66
1, 582771, Control_c, 0, 64, 102
1, 582785, Control_c, 0, 64, 127
1, 582826, Note_on_c, 0, 82, 93
1, 582830, Note_on_c, 0, 89, 88
1, 582834, Note_off_c, 0, 85, 63
1, 582844, Note_off_c, 0, 72, 58
1, 582847, Note_off_c, 0, 77, 60
1, 582927, Control_c, 0, 64, 92
1, 582928, Note_on_c, 0, 73, 103
1, 582936, Note_on_c, 0, 85, 94
1, 582942, Note_on_c, 0, 77, 75
1, 582942, Control_c, 0, 64, 68
1, 582944, Note_off_c, 0, 89, 64
1, 582948, Note_off_c, 0, 82, 65
1, 582954, Note_on_c, 0, 65, 58
1, 582955, Note_off_c, 0, 77, 70
1, 582957, Control_c, 0, 64, 56
1, 582962, Note_on_c, 0, 87, 44
1, 582967, Note_off_c, 0, 73, 66
1, 582972, Control_c, 0, 64, 48
1, 582975, Note_off_c, 0, 65, 61
1, 582976, Note_off_c, 0, 85, 67
1, 582987, Control_c, 0, 64, 45
1, 582988, Note_off_c, 0, 87, 36
1, 583001, Control_c, 0, 64, 45
1, 583016, Control_c, 0, 64, 47
1, 583031, Control_c, 0, 64, 49
1, 583034, Note_on_c, 0, 70, 94
1, 583046, Control_c, 0, 64, 49
1, 583097, Note_off_c, 0, 70, 61
1, 583120, Control_c, 0, 64, 48
1, 583129, Note_on_c, 0, 65, 79
1, 583135, Control_c, 0, 64, 48
1, 583149, Control_c, 0, 64, 47
1, 583175, Note_off_c, 0, 65, 64
1, 583224, Note_on_c, 0, 69, 94
1, 583268, Control_c, 0, 64, 46
1, 583282, Control_c, 0, 64, 45
1, 583290, Note_off_c, 0, 69, 56
1, 583297, Control_c, 0, 64, 40
1, 583312, Control_c, 0, 64, 21
1, 583324, Note_on_c, 0, 52, 66
1, 583327, Note_on_c, 0, 64, 74
1, 583327, Note_on_c, 0, 48, 69
1, 583327, Control_c, 0, 64, 0
1, 583345, Note_on_c, 0, 65, 52
1, 583369, Note_off_c, 0, 65, 39
1, 583369, Note_off_c, 0, 52, 62
1, 583371, Note_off_c, 0, 48, 58
1, 583377, Note_off_c, 0, 64, 64
1, 583422, Note_on_c, 0, 61, 79
1, 583425, Note_on_c, 0, 49, 70
1, 583427, Note_on_c, 0, 53, 70
1, 583475, Note_off_c, 0, 61, 63
1, 583481, Note_off_c, 0, 53, 61
1, 583490, Note_off_c, 0, 49, 64
1, 583520, Note_on_c, 0, 52, 73
1, 583523, Note_on_c, 0, 58, 87
1, 583574, Note_off_c, 0, 52, 65
1, 583621, Note_on_c, 0, 51, 88
1, 583625, Note_on_c, 0, 55, 82
1, 583681, Note_off_c, 0, 55, 58
1, 583704, Note_off_c, 0, 51, 64
1, 583736, Note_on_c, 0, 48, 60
1, 583738, Note_on_c, 0, 52, 74
1, 583749, Note_on_c, 0, 64, 73
1, 583759, Note_off_c, 0, 58, 57
1, 583759, Note_off_c, 0, 48, 62
1, 583766, Note_off_c, 0, 52, 69
1, 583788, Note_off_c, 0, 64, 63
1, 583851, Note_on_c, 0, 65, 84
1, 583887, Note_off_c, 0, 65, 63
1, 583949, Note_on_c, 0, 67, 85
1, 583971, Note_off_c, 0, 67, 68
1, 584045, Note_on_c, 0, 68, 89
1, 584093, Note_off_c, 0, 68, 62
1, 584142, Note_on_c, 0, 58, 73
1, 584150, Note_on_c, 0, 83, 79
1, 584188, Note_off_c, 0, 58, 57
1, 584224, Note_off_c, 0, 83, 59
1, 584240, Note_on_c, 0, 63, 72
1, 584250, Note_on_c, 0, 90, 78
1, 584266, Note_off_c, 0, 63, 67
1, 584313, Note_off_c, 0, 90, 64
1, 584336, Note_on_c, 0, 71, 100
1, 584357, Note_on_c, 0, 82, 72
1, 584436, Note_off_c, 0, 82, 64
1, 584454, Control_c, 0, 64, 34
1, 584461, Note_on_c, 0, 92, 102
1, 584469, Control_c, 0, 64, 59
1, 584480, Note_off_c, 0, 92, 71
1, 584484, Control_c, 0, 64, 68
1, 584499, Control_c, 0, 64, 87
1, 584514, Control_c, 0, 64, 127
1, 584530, Note_off_c, 0, 71, 62
1, 584543, Poly_aftertouch_c, 0, 66, 127
1, 584570, Note_on_c, 0, 61, 67
1, 584579, Poly_aftertouch_c, 0, 66, 0
1, 584669, Note_on_c, 0, 70, 89
1, 584697, Note_on_c, 0, 51, 59
1, 584715, Note_off_c, 0, 70, 63
1, 584722, Note_off_c, 0, 51, 61
1, 584765, Note_on_c, 0, 65, 78
1, 584779, Note_off_c, 0, 61, 59
1, 584810, Control_c, 0, 64, 86
1, 584812, Note_off_c, 0, 65, 65
1, 584825, Control_c, 0, 64, 60
1, 584840, Control_c, 0, 64, 0
1, 584868, Note_on_c, 0, 66, 92
1, 584910, Note_off_c, 0, 66, 63
1, 584972, Note_on_c, 0, 82, 80
1, 584975, Note_on_c, 0, 56, 63
1, 585019, Note_off_c, 0, 56, 62
1, 585021, Note_off_c, 0, 82, 64
1, 585074, Note_on_c, 0, 89, 92
1, 585074, Note_on_c, 0, 61, 66
1, 585109, Note_off_c, 0, 61, 64
1, 585148, Note_off_c, 0, 89, 63
1, 585178, Note_on_c, 0, 70, 99
1, 585187, Note_on_c, 0, 80, 83
1, 585274, Note_off_c, 0, 80, 63
1, 585291, Note_on_c, 0, 90, 109
1, 585292, Control_c, 0, 64, 47
1, 585307, Control_c, 0, 64, 58
1, 585314, Note_off_c, 0, 90, 69
1, 585322, Control_c, 0, 64, 64
1, 585337, Control_c, 0, 64, 77
1, 585351, Control_c, 0, 64, 127
1, 585399, Note_on_c, 0, 59, 69
1, 585404, Note_off_c, 0, 70, 61
1, 585508, Note_on_c, 0, 68, 84
1, 585518, Note_on_c, 0, 49, 85
1, 585542, Note_off_c, 0, 49, 70
1, 585578, Note_off_c, 0, 68, 59
1, 585592, Note_off_c, 0, 59, 59
1, 585616, Note_on_c, 0, 63, 74
1, 585667, Note_off_c, 0, 63, 63
1, 585677, Control_c, 0, 64, 71
1, 585692, Control_c, 0, 64, 0
1, 585716, Note_on_c, 0, 65, 89
1, 585762, Note_off_c, 0, 65, 61
1, 585768, Note_on_c, 0, 78, 8
1, 585806, Note_off_c, 0, 78, 29
1, 585812, Note_on_c, 0, 54, 67
1, 585822, Note_on_c, 0, 80, 79
1, 585864, Note_off_c, 0, 54, 59
1, 585872, Note_off_c, 0, 80, 63
1, 585924, Note_on_c, 0, 87, 94
1, 585927, Note_on_c, 0, 59, 70
1, 585979, Note_off_c, 0, 59, 61
1, 586018, Note_on_c, 0, 78, 74
1, 586025, Note_off_c, 0, 87, 60
1, 586033, Note_on_c, 0, 68, 68
1, 586078, Note_off_c, 0, 68, 60
1, 586087, Note_off_c, 0, 78, 63
1, 586115, Note_on_c, 0, 89, 95
1, 586123, Note_on_c, 0, 58, 76
1, 586136, Note_off_c, 0, 89, 67
1, 586145, Control_c, 0, 64, 34
1, 586160, Control_c, 0, 64, 30
1, 586174, Control_c, 0, 64, 27
1, 586189, Control_c, 0, 64, 21
1, 586204, Control_c, 0, 64, 19
1, 586215, Note_on_c, 0, 66, 84
1, 586219, Control_c, 0, 64, 18
1, 586233, Control_c, 0, 64, 0
1, 586305, Note_off_c, 0, 66, 62
1, 586323, Control_c, 0, 64, 21
1, 586337, Control_c, 0, 64, 52
1, 586340, Note_on_c, 0, 63, 90
1, 586341, Note_on_c, 0, 47, 108
1, 586352, Note_off_c, 0, 58, 63
1, 586352, Control_c, 0, 64, 65
1, 586367, Control_c, 0, 64, 76
1, 586370, Note_off_c, 0, 47, 64
1, 586382, Control_c, 0, 64, 104
1, 586397, Note_off_c, 0, 63, 64
1, 586397, Control_c, 0, 64, 127
1, 586447, Note_on_c, 0, 53, 86
1, 586527, Note_off_c, 0, 53, 63
1, 586552, Note_on_c, 0, 58, 84
1, 586560, Control_c, 0, 64, 86
1, 586574, Control_c, 0, 64, 68
1, 586589, Control_c, 0, 64, 51
1, 586604, Note_off_c, 0, 58, 64
1, 586604, Control_c, 0, 64, 0
1, 586648, Note_on_c, 0, 34, 90
1, 586654, Note_on_c, 0, 66, 87
1, 586682, Note_off_c, 0, 34, 68
1, 586695, Note_off_c, 0, 66, 63
1, 586758, Note_on_c, 0, 56, 74
1, 586763, Note_on_c, 0, 36, 90
1, 586791, Note_off_c, 0, 56, 67
1, 586810, Note_off_c, 0, 36, 63
1, 586853, Note_on_c, 0, 65, 90
1, 586859, Note_on_c, 0, 38, 81
1, 586894, Note_off_c, 0, 38, 64
1, 586896, Note_off_c, 0, 65, 66
1, 586923, Control_c, 0, 64, 30
1, 586938, Control_c, 0, 64, 46
1, 586953, Control_c, 0, 64, 57
1, 586955, Note_on_c, 0, 39, 103
1, 586960, Note_on_c, 0, 63, 106
1, 586968, Control_c, 0, 64, 61
1, 586983, Control_c, 0, 64, 61
1, 586994, Note_off_c, 0, 39, 61
1, 586997, Control_c, 0, 64, 55
1, 587001, Note_off_c, 0, 63, 62
1, 587012, Control_c, 0, 64, 42
1, 587027, Control_c, 0, 64, 29
1, 587042, Control_c, 0, 64, 13
1, 587056, Control_c, 0, 64, 0
1, 587095, Note_on_c, 0, 63, 68
1, 587153, Note_off_c, 0, 63, 64
1, 587196, Note_on_c, 0, 65, 64
1, 587263, Note_off_c, 0, 65, 62
1, 587284, Note_on_c, 0, 63, 58
1, 587334, Note_off_c, 0, 63, 55
1, 587368, Control_c, 0, 67, 22
1, 587383, Control_c, 0, 67, 100
1, 587387, Note_on_c, 0, 66, 53
1, 587397, Control_c, 0, 67, 127
1, 587450, Note_off_c, 0, 66, 55
1, 587491, Note_on_c, 0, 63, 41
1, 587494, Note_on_c, 0, 69, 48
1, 587545, Note_off_c, 0, 69, 60
1, 587601, Note_on_c, 0, 70, 48
1, 587692, Note_on_c, 0, 69, 44
1, 587706, Note_off_c, 0, 70, 38
1, 587750, Note_off_c, 0, 69, 60
1, 587757, Note_off_c, 0, 63, 48
1, 587804, Note_on_c, 0, 72, 44
1, 587883, Note_on_c, 0, 63, 39
1, 587893, Note_off_c, 0, 72, 49
1, 587896, Note_on_c, 0, 69, 42
1, 587941, Note_off_c, 0, 69, 61
1, 587953, Note_off_c, 0, 63, 58
1, 587998, Note_on_c, 0, 65, 44
1, 588068, Note_off_c, 0, 65, 57
1, 588096, Note_on_c, 0, 63, 46
1, 588096, Note_on_c, 0, 69, 44
1, 588157, Note_off_c, 0, 63, 57
1, 588159, Note_off_c, 0, 69, 59
1, 588197, Note_on_c, 0, 70, 55
1, 588210, Note_on_c, 0, 66, 48
1, 588280, Note_off_c, 0, 66, 50
1, 588293, Note_off_c, 0, 70, 55
1, 588300, Note_on_c, 0, 63, 42
1, 588304, Note_on_c, 0, 69, 47
1, 588359, Note_off_c, 0, 69, 57
1, 588362, Note_off_c, 0, 63, 56
1, 588394, Note_on_c, 0, 72, 60
1, 588408, Note_on_c, 0, 65, 41
1, 588424, Note_off_c, 0, 72, 67
1, 588466, Note_off_c, 0, 65, 57
1, 588490, Note_on_c, 0, 72, 65
1, 588491, Note_on_c, 0, 63, 49
1, 588535, Note_off_c, 0, 72, 53
1, 588555, Note_off_c, 0, 63, 53
1, 588603, Note_on_c, 0, 69, 50
1, 588610, Note_on_c, 0, 66, 45
1, 588668, Note_off_c, 0, 66, 51
1, 588681, Note_off_c, 0, 69, 63
1, 588695, Note_on_c, 0, 63, 41
1, 588698, Note_on_c, 0, 70, 53
1, 588733, Note_off_c, 0, 63, 51
1, 588753, Note_off_c, 0, 70, 55
1, 588802, Note_on_c, 0, 72, 43
1, 588865, Note_off_c, 0, 72, 58
1, 588892, Note_on_c, 0, 70, 46
1, 588909, Note_on_c, 0, 65, 39
1, 588945, Note_off_c, 0, 70, 65
1, 588982, Note_off_c, 0, 65, 60
1, 589026, Note_on_c, 0, 66, 37
1, 589094, Note_off_c, 0, 66, 49
1, 589121, Note_on_c, 0, 65, 46
1, 589122, Note_on_c, 0, 73, 53
1, 589166, Note_off_c, 0, 65, 60
1, 589196, Note_off_c, 0, 73, 63
1, 589214, Note_on_c, 0, 72, 59
1, 589231, Note_on_c, 0, 68, 45
1, 589301, Note_off_c, 0, 68, 51
1, 589306, Note_off_c, 0, 72, 65
1, 589323, Note_on_c, 0, 73, 62
1, 589415, Poly_aftertouch_c, 0, 65, 0
1, 589419, Note_off_c, 0, 73, 63
1, 589427, Note_on_c, 0, 70, 65
1, 589518, Note_on_c, 0, 65, 49
1, 589526, Note_off_c, 0, 70, 59
1, 589536, Note_on_c, 0, 73, 60
1, 589588, Note_off_c, 0, 73, 55
1, 589598, Note_off_c, 0, 65, 62
1, 589618, Note_on_c, 0, 66, 55
1, 589714, Note_off_c, 0, 66, 62
1, 589717, Note_on_c, 0, 73, 63
1, 589734, Note_on_c, 0, 65, 61
1, 589770, Control_c, 0, 67, 124
1, 589785, Control_c, 0, 67, 105
1, 589787, Note_off_c, 0, 65, 57
1, 589799, Control_c, 0, 67, 89
1, 589814, Control_c, 0, 67, 70
1, 589819, Note_on_c, 0, 72, 72
1, 589822, Note_on_c, 0, 68, 65
1, 589829, Control_c, 0, 67, 53
1, 589843, Control_c, 0, 67, 35
1, 589858, Control_c, 0, 67, 16
1, 589866, Note_off_c, 0, 73, 37
1, 589873, Control_c, 0, 67, 0
1, 589913, Note_on_c, 0, 73, 72
1, 589916, Note_off_c, 0, 72, 65
1, 589918, Note_off_c, 0, 68, 56
1, 589927, Note_on_c, 0, 65, 54
1, 589978, Note_off_c, 0, 73, 65
1, 589995, Note_off_c, 0, 65, 59
1, 590019, Note_on_c, 0, 70, 79
1, 590028, Note_on_c, 0, 66, 57
1, 590050, Note_off_c, 0, 70, 63
1, 590079, Note_off_c, 0, 66, 54
1, 590123, Note_on_c, 0, 65, 61
1, 590131, Note_on_c, 0, 70, 66
1, 590158, Note_off_c, 0, 70, 68
1, 590166, Note_off_c, 0, 65, 63
1, 590208, Note_on_c, 0, 72, 77
1, 590217, Note_on_c, 0, 68, 62
1, 590258, Note_off_c, 0, 68, 57
1, 590305, Note_on_c, 0, 70, 84
1, 590317, Note_on_c, 0, 65, 45
1, 590319, Control_c, 0, 64, 30
1, 590332, Note_off_c, 0, 72, 62
1, 590333, Control_c, 0, 64, 45
1, 590347, Control_c, 0, 64, 53
1, 590362, Control_c, 0, 64, 56
1, 590377, Control_c, 0, 64, 59
1, 590392, Control_c, 0, 64, 61
1, 590400, Note_on_c, 0, 73, 85
1, 590405, Note_off_c, 0, 70, 65
1, 590413, Control_c, 0, 64, 64
1, 590428, Control_c, 0, 64, 65
1, 590439, Note_off_c, 0, 73, 66
1, 590443, Control_c, 0, 64, 67
1, 590472, Control_c, 0, 64, 65
1, 590487, Control_c, 0, 64, 61
1, 590496, Note_off_c, 0, 65, 60
1, 590502, Control_c, 0, 64, 54
1, 590511, Note_on_c, 0, 82, 88
1, 590517, Control_c, 0, 64, 46
1, 590518, Note_on_c, 0, 72, 75
1, 590526, Note_on_c, 0, 66, 58
1, 590532, Control_c, 0, 64, 40
1, 590547, Control_c, 0, 64, 32
1, 590561, Control_c, 0, 64, 29
1, 590576, Control_c, 0, 64, 28
1, 590600, Note_off_c, 0, 66, 61
1, 590606, Control_c, 0, 64, 30
1, 590610, Note_on_c, 0, 77, 96
1, 590621, Control_c, 0, 64, 39
1, 590622, Note_off_c, 0, 82, 64
1, 590628, Note_on_c, 0, 68, 64
1, 590636, Control_c, 0, 64, 52
1, 590651, Control_c, 0, 64, 57
1, 590664, Note_off_c, 0, 72, 58
1, 590665, Control_c, 0, 64, 58
1, 590680, Control_c, 0, 64, 60
1, 590695, Control_c, 0, 64, 61
1, 590696, Note_off_c, 0, 68, 53
1, 590710, Control_c, 0, 64, 61
1, 590718, Note_on_c, 0, 80, 77
1, 590723, Note_off_c, 0, 77, 62
1, 590730, Note_on_c, 0, 66, 55
1, 590739, Control_c, 0, 64, 61
1, 590754, Control_c, 0, 64, 60
1, 590769, Control_c, 0, 64, 58
1, 590776, Note_off_c, 0, 66, 59
1, 590784, Control_c, 0, 64, 56
1, 590798, Control_c, 0, 64, 54
1, 590812, Note_on_c, 0, 75, 69
1, 590812, Note_off_c, 0, 80, 64
1, 590813, Note_on_c, 0, 70, 50
1, 590815, Control_c, 0, 64, 52
1, 590830, Control_c, 0, 64, 50
1, 590838, Note_off_c, 0, 70, 58
1, 590844, Control_c, 0, 64, 49
1, 590859, Control_c, 0, 64, 48
1, 590874, Control_c, 0, 64, 47
1, 590879, Poly_aftertouch_c, 0, 60, 127
1, 590888, Control_c, 0, 64, 46
1, 590901, Note_off_c, 0, 75, 61
1, 590902, Note_on_c, 0, 78, 75
1, 590903, Control_c, 0, 64, 45
1, 590906, Note_on_c, 0, 65, 56
1, 590916, Note_on_c, 0, 70, 75
1, 590918, Control_c, 0, 64, 44
1, 590933, Control_c, 0, 64, 43
1, 590948, Control_c, 0, 64, 43
1, 590969, Note_off_c, 0, 70, 62
1, 591013, Note_on_c, 0, 72, 81
1, 591122, Note_on_c, 0, 70, 85
1, 591125, Note_off_c, 0, 72, 63
1, 591126, Control_c, 0, 64, 43
1, 591141, Control_c, 0, 64, 44
1, 591178, Control_c, 0, 64, 44
1, 591193, Control_c, 0, 64, 45
1, 591208, Control_c, 0, 64, 46
1, 591216, Note_on_c, 0, 73, 78
1, 591220, Note_off_c, 0, 70, 61
1, 591223, Control_c, 0, 64, 48
1, 591237, Control_c, 0, 64, 50
1, 591241, Note_off_c, 0, 78, 63
1, 591252, Control_c, 0, 64, 52
1, 591267, Control_c, 0, 64, 54
1, 591282, Control_c, 0, 64, 55
1, 591295, Note_on_c, 0, 63, 60
1, 591296, Control_c, 0, 64, 57
1, 591304, Note_off_c, 0, 65, 60
1, 591311, Control_c, 0, 64, 59
1, 591316, Note_on_c, 0, 78, 80
1, 591321, Note_off_c, 0, 73, 65
1, 591325, Note_on_c, 0, 68, 67
1, 591326, Control_c, 0, 64, 60
1, 591341, Control_c, 0, 64, 61
1, 591370, Control_c, 0, 64, 61
1, 591388, Note_off_c, 0, 63, 59
1, 591396, Note_off_c, 0, 68, 62
1, 591400, Control_c, 0, 64, 61
1, 591414, Note_on_c, 0, 73, 93
1, 591415, Control_c, 0, 64, 58
1, 591420, Note_on_c, 0, 65, 66
1, 591423, Note_off_c, 0, 78, 63
1, 591430, Control_c, 0, 64, 51
1, 591444, Control_c, 0, 64, 42
1, 591454, Poly_aftertouch_c, 0, 60, 0
1, 591459, Control_c, 0, 64, 36
1, 591474, Control_c, 0, 64, 31
1, 591489, Control_c, 0, 64, 27
1, 591491, Note_off_c, 0, 65, 62
1, 591503, Note_on_c, 0, 63, 62
1, 591503, Control_c, 0, 64, 26
1, 591507, Note_off_c, 0, 73, 64
1, 591510, Note_on_c, 0, 77, 85
1, 591518, Control_c, 0, 64, 25
1, 591571, Note_off_c, 0, 63, 63
1, 591596, Note_off_c, 0, 77, 63
1, 591612, Note_on_c, 0, 72, 67
1, 591614, Note_on_c, 0, 66, 57
1, 591654, Note_off_c, 0, 66, 62
1, 591667, Control_c, 0, 64, 26
1, 591682, Control_c, 0, 64, 26
1, 591697, Control_c, 0, 64, 27
1, 591706, Note_off_c, 0, 72, 65
1, 591708, Note_on_c, 0, 75, 80
1, 591711, Note_on_c, 0, 61, 44
1, 591712, Control_c, 0, 64, 27
1, 591727, Control_c, 0, 64, 28
1, 591732, Note_on_c, 0, 66, 74
1, 591742, Control_c, 0, 64, 28
1, 591772, Control_c, 0, 64, 29
1, 591775, Note_off_c, 0, 66, 59
1, 591786, Control_c, 0, 64, 29
1, 591816, Control_c, 0, 64, 30
1, 591823, Note_on_c, 0, 68, 87
1, 591831, Control_c, 0, 64, 30
1, 591860, Control_c, 0, 64, 31
1, 591875, Control_c, 0, 64, 32
1, 591890, Control_c, 0, 64, 33
1, 591905, Control_c, 0, 64, 35
1, 591921, Note_on_c, 0, 66, 79
1, 591926, Note_off_c, 0, 68, 60
1, 591927, Control_c, 0, 64, 36
1, 591942, Control_c, 0, 64, 37
1, 591957, Control_c, 0, 64, 37
1, 591971, Control_c, 0, 64, 38
1, 591986, Control_c, 0, 64, 38
1, 592012, Note_off_c, 0, 66, 61
1, 592031, Note_on_c, 0, 70, 72
1, 592031, Control_c, 0, 64, 39
1, 592054, Note_off_c, 0, 75, 59
1, 592060, Control_c, 0, 64, 39
1, 592075, Control_c, 0, 64, 41
1, 592090, Control_c, 0, 64, 43
1, 592105, Control_c, 0, 64, 46
1, 592115, Note_on_c, 0, 60, 62
1, 592119, Control_c, 0, 64, 48
1, 592123, Note_off_c, 0, 61, 62
1, 592134, Control_c, 0, 64, 51
1, 592138, Note_off_c, 0, 70, 63
1, 592139, Note_on_c, 0, 75, 85
1, 592141, Note_on_c, 0, 65, 45
1, 592149, Control_c, 0, 64, 53
1, 592164, Control_c, 0, 64, 55
1, 592179, Control_c, 0, 64, 56
1, 592193, Control_c, 0, 64, 57
1, 592199, Note_off_c, 0, 60, 62
1, 592208, Control_c, 0, 64, 58
1, 592233, Note_on_c, 0, 61, 61
1, 592234, Note_on_c, 0, 70, 90
1, 592236, Note_off_c, 0, 75, 64
1, 592267, Control_c, 0, 64, 57
1, 592278, Note_off_c, 0, 65, 59
1, 592282, Control_c, 0, 64, 55
1, 592297, Control_c, 0, 64, 53
1, 592311, Control_c, 0, 64, 49
1, 592325, Note_off_c, 0, 61, 62
1, 592326, Control_c, 0, 64, 47
1, 592328, Note_on_c, 0, 60, 62
1, 592329, Note_on_c, 0, 73, 77
1, 592341, Control_c, 0, 64, 44
1, 592356, Control_c, 0, 64, 43
1, 592371, Control_c, 0, 64, 42
1, 592377, Note_off_c, 0, 60, 63
1, 592386, Control_c, 0, 64, 41
1, 592414, Note_off_c, 0, 70, 28
1, 592429, Note_on_c, 0, 63, 58
1, 592432, Note_on_c, 0, 68, 70
1, 592434, Note_off_c, 0, 73, 57
1, 592466, Note_off_c, 0, 63, 61
1, 592522, Note_on_c, 0, 58, 53
1, 592526, Note_on_c, 0, 72, 75
1, 592535, Note_off_c, 0, 68, 61
1, 592539, Note_on_c, 0, 63, 75
1, 592584, Note_off_c, 0, 63, 59
1, 592609, Control_c, 0, 64, 41
1, 592631, Note_on_c, 0, 65, 85
1, 592723, Note_off_c, 0, 65, 62
1, 592731, Note_on_c, 0, 63, 75
1, 592735, Control_c, 0, 64, 40
1, 592815, Note_off_c, 0, 63, 55
1, 592834, Note_on_c, 0, 66, 65
1, 592854, Control_c, 0, 64, 41
1, 592857, Note_off_c, 0, 72, 60
1, 592928, Note_on_c, 0, 56, 52
1, 592928, Note_off_c, 0, 66, 64
1, 592932, Note_off_c, 0, 58, 59
1, 592937, Note_on_c, 0, 72, 69
1, 592950, Note_on_c, 0, 61, 54
1, 592998, Note_off_c, 0, 61, 54
1, 592999, Note_off_c, 0, 56, 56
1, 593002, Control_c, 0, 64, 40
1, 593016, Control_c, 0, 64, 40
1, 593022, Note_off_c, 0, 72, 61
1, 593031, Control_c, 0, 64, 38
1, 593043, Note_on_c, 0, 66, 70
1, 593045, Note_on_c, 0, 58, 50
1, 593046, Control_c, 0, 64, 36
1, 593060, Control_c, 0, 64, 30
1, 593075, Control_c, 0, 64, 16
1, 593090, Control_c, 0, 64, 0
1, 593102, Note_off_c, 0, 58, 56
1, 593134, Note_on_c, 0, 56, 50
1, 593146, Note_off_c, 0, 66, 56
1, 593148, Note_on_c, 0, 70, 61
1, 593180, Note_off_c, 0, 56, 61
1, 593233, Note_off_c, 0, 70, 63
1, 593241, Note_on_c, 0, 60, 44
1, 593263, Note_on_c, 0, 65, 53
1, 593285, Note_off_c, 0, 60, 52
1, 593321, Note_on_c, 0, 54, 50
1, 593325, Note_off_c, 0, 65, 55
1, 593343, Control_c, 0, 64, 31
1, 593358, Control_c, 0, 64, 44
1, 593361, Note_on_c, 0, 60, 25
1, 593372, Control_c, 0, 64, 51
1, 593373, Note_on_c, 0, 68, 58
1, 593387, Control_c, 0, 64, 54
1, 593410, Control_c, 0, 64, 56
1, 593425, Control_c, 0, 64, 58
1, 593426, Note_off_c, 0, 60, 59
1, 593439, Control_c, 0, 64, 60
1, 593454, Control_c, 0, 64, 62
1, 593463, Note_off_c, 0, 54, 65
1, 593468, Note_on_c, 0, 61, 63
1, 593469, Control_c, 0, 64, 64
1, 593474, Note_off_c, 0, 68, 55
1, 593483, Control_c, 0, 64, 65
1, 593498, Control_c, 0, 64, 65
1, 593513, Control_c, 0, 64, 63
1, 593528, Control_c, 0, 64, 58
1, 593530, Note_off_c, 0, 61, 48
1, 593539, Note_on_c, 0, 53, 86
1, 593543, Note_on_c, 0, 60, 69
1, 593543, Control_c, 0, 64, 51
1, 593558, Control_c, 0, 64, 46
1, 593572, Control_c, 0, 64, 40
1, 593574, Note_off_c, 0, 60, 65
1, 593577, Note_off_c, 0, 53, 61
1, 593587, Control_c, 0, 64, 35
1, 593602, Control_c, 0, 64, 34
1, 593632, Note_on_c, 0, 56, 98
1, 593655, Note_on_c, 0, 63, 68
1, 593674, Note_off_c, 0, 56, 67
1, 593682, Note_off_c, 0, 63, 67
1, 593691, Control_c, 0, 64, 34
1, 593706, Control_c, 0, 64, 32
1, 593721, Control_c, 0, 64, 25
1, 593732, Note_on_c, 0, 60, 107
1, 593736, Control_c, 0, 64, 12
1, 593751, Control_c, 0, 64, 0
1, 593762, Note_off_c, 0, 60, 68
1, 593835, Note_on_c, 0, 64, 110
1, 593930, Note_on_c, 0, 71, 76
1, 593948, Note_on_c, 0, 74, 80
1, 593963, Note_off_c, 0, 71, 62
1, 593998, Note_off_c, 0, 74, 63
1, 594044, Note_on_c, 0, 79, 82
1, 594046, Note_on_c, 0, 76, 86
1, 594075, Note_off_c, 0, 64, 67
1, 594088, Note_off_c, 0, 76, 65
1, 594102, Note_off_c, 0, 79, 65
1, 594146, Note_on_c, 0, 67, 117
1, 594146, Note_on_c, 0, 74, 99
1, 594236, Note_off_c, 0, 74, 62
1, 594261, Control_c, 0, 64, 27
1, 594264, Note_on_c, 0, 77, 60
1, 594276, Control_c, 0, 64, 48
1, 594285, Note_off_c, 0, 67, 63
1, 594288, Note_on_c, 0, 80, 70
1, 594291, Control_c, 0, 64, 56
1, 594305, Control_c, 0, 64, 60
1, 594320, Control_c, 0, 64, 62
1, 594335, Note_off_c, 0, 77, 57
1, 594335, Control_c, 0, 64, 62
1, 594350, Control_c, 0, 64, 60
1, 594365, Control_c, 0, 64, 56
1, 594368, Note_on_c, 0, 68, 100
1, 594372, Note_on_c, 0, 75, 84
1, 594380, Control_c, 0, 64, 51
1, 594395, Control_c, 0, 64, 46
1, 594402, Note_off_c, 0, 68, 66
1, 594410, Control_c, 0, 64, 43
1, 594415, Note_off_c, 0, 80, 61
1, 594425, Control_c, 0, 64, 42
1, 594431, Note_off_c, 0, 75, 61
1, 594469, Control_c, 0, 64, 41
1, 594475, Note_on_c, 0, 65, 91
1, 594484, Control_c, 0, 64, 39
1, 594499, Control_c, 0, 64, 36
1, 594513, Control_c, 0, 64, 33
1, 594516, Note_off_c, 0, 65, 64
1, 594528, Control_c, 0, 64, 32
1, 594543, Control_c, 0, 64, 31
1, 594573, Note_on_c, 0, 60, 84
1, 594587, Control_c, 0, 64, 31
1, 594601, Note_off_c, 0, 60, 67
1, 594669, Note_on_c, 0, 64, 91
1, 594705, Control_c, 0, 64, 30
1, 594719, Note_off_c, 0, 64, 64
1, 594759, Note_on_c, 0, 71, 87
1, 594762, Note_on_c, 0, 59, 82
1, 594796, Note_off_c, 0, 59, 64
1, 594798, Note_off_c, 0, 71, 66
1, 594861, Note_on_c, 0, 56, 84
1, 594863, Note_on_c, 0, 72, 82
1, 594867, Note_on_c, 0, 76, 74
1, 594892, Note_off_c, 0, 56, 68
1, 594905, Note_off_c, 0, 72, 65
1, 594913, Note_off_c, 0, 76, 64
1, 594949, Note_on_c, 0, 53, 87
1, 594965, Note_on_c, 0, 71, 96
1, 595001, Note_off_c, 0, 71, 67
1, 595056, Control_c, 0, 64, 28
1, 595066, Note_on_c, 0, 73, 100
1, 595069, Note_on_c, 0, 77, 90
1, 595071, Control_c, 0, 64, 0
1, 595083, Note_off_c, 0, 73, 72
1, 595100, Note_off_c, 0, 77, 63
1, 595118, Note_off_c, 0, 53, 63
1, 595166, Note_on_c, 0, 60, 77
1, 595177, Note_on_c, 0, 72, 72
1, 595185, Note_on_c, 0, 69, 50
1, 595193, Note_off_c, 0, 72, 69
1, 595198, Note_off_c, 0, 60, 68
1, 595209, Note_off_c, 0, 69, 57
1, 595270, Note_on_c, 0, 61, 81
1, 595293, Note_off_c, 0, 61, 66
1, 595307, Control_c, 0, 67, 52
1, 595322, Control_c, 0, 67, 116
1, 595337, Control_c, 0, 67, 127
1, 595357, Note_on_c, 0, 63, 70
1, 595385, Note_off_c, 0, 63, 66
1, 595468, Note_on_c, 0, 55, 52
1, 595569, Note_on_c, 0, 65, 53
1, 595597, Note_off_c, 0, 65, 61
1, 595648, Note_on_c, 0, 60, 60
1, 595686, Note_off_c, 0, 60, 66
1, 595765, Note_on_c, 0, 68, 63
1, 595867, Note_on_c, 0, 73, 49
1, 595905, Note_off_c, 0, 68, 49
1, 595915, Note_off_c, 0, 73, 62
1, 595935, Note_off_c, 0, 55, 59
1, 595951, Note_on_c, 0, 51, 55
1, 595963, Note_on_c, 0, 67, 66
1, 596041, Control_c, 0, 64, 37
1, 596056, Control_c, 0, 64, 48
1, 596071, Control_c, 0, 64, 54
1, 596077, Note_off_c, 0, 67, 41
1, 596085, Control_c, 0, 64, 58
1, 596098, Note_on_c, 0, 73, 47
1, 596100, Control_c, 0, 64, 60
1, 596115, Control_c, 0, 64, 62
1, 596130, Control_c, 0, 64, 64
1, 596145, Control_c, 0, 64, 65
1, 596160, Control_c, 0, 64, 67
1, 596174, Control_c, 0, 64, 69
1, 596186, Note_on_c, 0, 82, 69
1, 596189, Control_c, 0, 64, 68
1, 596202, Note_off_c, 0, 73, 65
1, 596204, Control_c, 0, 64, 65
1, 596214, Note_off_c, 0, 82, 68
1, 596219, Control_c, 0, 64, 58
1, 596234, Control_c, 0, 64, 31
1, 596249, Control_c, 0, 64, 0
1, 596286, Note_on_c, 0, 53, 63
1, 596335, Note_off_c, 0, 51, 56
1, 596410, Note_on_c, 0, 63, 46
1, 596449, Note_off_c, 0, 63, 63
1, 596493, Note_on_c, 0, 58, 61
1, 596530, Note_off_c, 0, 58, 62
1, 596600, Note_on_c, 0, 67, 65
1, 596708, Note_on_c, 0, 72, 50
1, 596715, Note_off_c, 0, 67, 61
1, 596759, Note_off_c, 0, 72, 63
1, 596776, Note_on_c, 0, 49, 50
1, 596782, Note_on_c, 0, 65, 64
1, 596790, Control_c, 0, 64, 27
1, 596805, Control_c, 0, 64, 48
1, 596820, Control_c, 0, 64, 57
1, 596835, Control_c, 0, 64, 62
1, 596849, Control_c, 0, 64, 64
1, 596858, Note_off_c, 0, 65, 54
1, 596864, Control_c, 0, 64, 65
1, 596879, Control_c, 0, 64, 68
1, 596894, Control_c, 0, 64, 71
1, 596897, Note_on_c, 0, 72, 50
1, 596908, Control_c, 0, 64, 77
1, 596923, Control_c, 0, 64, 84
1, 596938, Control_c, 0, 64, 91
1, 596953, Control_c, 0, 64, 97
1, 596968, Control_c, 0, 64, 98
1, 596974, Note_off_c, 0, 49, 57
1, 596996, Note_on_c, 0, 80, 60
1, 596997, Control_c, 0, 64, 97
1, 597012, Control_c, 0, 64, 96
1, 597027, Control_c, 0, 64, 91
1, 597030, Note_off_c, 0, 80, 66
1, 597034, Note_off_c, 0, 72, 64
1, 597042, Control_c, 0, 64, 78
1, 597057, Control_c, 0, 64, 64
1, 597060, Note_off_c, 0, 53, 60
1, 597066, Note_on_c, 0, 51, 75
1, 597072, Control_c, 0, 64, 30
1, 597087, Control_c, 0, 64, 0
1, 597182, Note_on_c, 0, 61, 52
1, 597209, Note_off_c, 0, 61, 60
1, 597266, Note_on_c, 0, 56, 55
1, 597359, Note_on_c, 0, 72, 71
1, 597383, Note_off_c, 0, 72, 68
1, 597452, Note_on_c, 0, 65, 89
1, 597528, Note_on_c, 0, 55, 52
1, 597534, Note_off_c, 0, 51, 60
1, 597534, Note_off_c, 0, 65, 59
1, 597546, Note_off_c, 0, 56, 56
1, 597560, Note_on_c, 0, 63, 56
1, 597629, Note_off_c, 0, 55, 62
1, 597653, Note_on_c, 0, 49, 54
1, 597739, Note_on_c, 0, 60, 66
1, 597771, Note_off_c, 0, 60, 65
1, 597853, Note_on_c, 0, 55, 83
1, 597872, Note_off_c, 0, 63, 62
1, 597957, Note_on_c, 0, 71, 62
1, 598027, Note_off_c, 0, 71, 61
1, 598085, Note_on_c, 0, 63, 46
1, 598139, Note_off_c, 0, 63, 60
1, 598165, Note_on_c, 0, 61, 64
1, 598173, Note_on_c, 0, 53, 63
1, 598184, Note_off_c, 0, 55, 56
1, 598198, Note_off_c, 0, 61, 66
1, 598213, Control_c, 0, 67, 113
1, 598228, Control_c, 0, 67, 63
1, 598236, Note_off_c, 0, 49, 39
1, 598243, Control_c, 0, 67, 0
1, 598285, Note_on_c, 0, 60, 75
1, 598291, Note_off_c, 0, 53, 44
1, 598308, Note_off_c, 0, 60, 69
1, 598369, Note_on_c, 0, 72, 80
1, 598371, Note_on_c, 0, 55, 83
1, 598371, Note_on_c, 0, 71, 84
1, 598398, Note_off_c, 0, 55, 68
1, 598400, Note_off_c, 0, 71, 60
1, 598403, Note_off_c, 0, 72, 66
1, 598467, Note_on_c, 0, 75, 94
1, 598470, Note_on_c, 0, 51, 81
1, 598500, Note_off_c, 0, 51, 66
1, 598507, Note_off_c, 0, 75, 67
1, 598561, Note_on_c, 0, 79, 95
1, 598568, Note_on_c, 0, 48, 73
1, 598588, Note_off_c, 0, 48, 64
1, 598602, Note_off_c, 0, 79, 67
1, 598667, Note_on_c, 0, 83, 103
1, 598754, Control_c, 0, 64, 21
1, 598769, Control_c, 0, 64, 31
1, 598773, Note_on_c, 0, 60, 83
1, 598784, Control_c, 0, 64, 35
1, 598800, Control_c, 0, 64, 36
1, 598801, Note_off_c, 0, 60, 65
1, 598830, Control_c, 0, 64, 36
1, 598866, Note_on_c, 0, 63, 94
1, 598876, Note_off_c, 0, 83, 63
1, 598903, Note_off_c, 0, 63, 66
1, 598919, Control_c, 0, 64, 32
1, 598933, Control_c, 0, 64, 0
1, 598956, Note_on_c, 0, 86, 105
1, 598965, Note_on_c, 0, 67, 98
1, 598991, Note_off_c, 0, 67, 68
1, 599070, Note_on_c, 0, 71, 108
1, 599089, Note_off_c, 0, 86, 63
1, 599111, Control_c, 0, 64, 32
1, 599114, Note_on_c, 0, 69, 30
1, 599115, Note_off_c, 0, 69, 127
1, 599126, Control_c, 0, 64, 48
1, 599140, Control_c, 0, 64, 54
1, 599155, Control_c, 0, 64, 58
1, 599170, Control_c, 0, 64, 62
1, 599171, Note_on_c, 0, 87, 88
1, 599185, Control_c, 0, 64, 66
1, 599200, Control_c, 0, 64, 71
1, 599215, Control_c, 0, 64, 80
1, 599230, Control_c, 0, 64, 92
1, 599245, Control_c, 0, 64, 113
1, 599252, Note_off_c, 0, 71, 63
1, 599259, Control_c, 0, 64, 127
1, 599263, Note_on_c, 0, 84, 90
1, 599281, Note_off_c, 0, 87, 60
1, 599289, Control_c, 0, 64, 102
1, 599303, Control_c, 0, 64, 70
1, 599318, Control_c, 0, 64, 46
1, 599333, Control_c, 0, 64, 0
1, 599334, Note_off_c, 0, 84, 63
1, 599358, Note_on_c, 0, 79, 88
1, 599360, Note_on_c, 0, 74, 119
1, 599415, Control_c, 0, 64, 36
1, 599422, Note_off_c, 0, 79, 67
1, 599430, Control_c, 0, 64, 56
1, 599445, Control_c, 0, 64, 63
1, 599459, Control_c, 0, 64, 66
1, 599474, Control_c, 0, 64, 71
1, 599482, Note_off_c, 0, 74, 62
1, 599486, Note_on_c, 0, 83, 101
1, 599489, Control_c, 0, 64, 82
1, 599503, Control_c, 0, 64, 99
1, 599518, Control_c, 0, 64, 127
1, 599563, Control_c, 0, 64, 99
1, 599573, Note_on_c, 0, 75, 101
1, 599577, Control_c, 0, 64, 68
1, 599588, Note_off_c, 0, 83, 59
1, 599591, Note_on_c, 0, 78, 92
1, 599592, Control_c, 0, 64, 43
1, 599608, Note_off_c, 0, 75, 66
1, 599608, Control_c, 0, 64, 0
1, 599654, Note_off_c, 0, 78, 68
1, 599683, Note_on_c, 0, 72, 89
1, 599691, Note_on_c, 0, 75, 91
1, 599717, Note_off_c, 0, 72, 65
1, 599743, Note_off_c, 0, 75, 62
1, 599777, Note_on_c, 0, 67, 91
1, 599783, Note_on_c, 0, 72, 85
1, 599806, Note_off_c, 0, 67, 64
1, 599880, Note_on_c, 0, 71, 94
1, 599922, Note_off_c, 0, 72, 63
1, 599925, Note_off_c, 0, 71, 63
1, 599972, Note_on_c, 0, 66, 81
1, 599984, Note_on_c, 0, 78, 91
1, 600020, Note_off_c, 0, 66, 63
1, 600031, Note_off_c, 0, 78, 65
1, 600079, Note_on_c, 0, 79, 88
1, 600079, Note_on_c, 0, 63, 80
1, 600114, Note_off_c, 0, 63, 64
1, 600128, Note_off_c, 0, 79, 67
1, 600176, Note_on_c, 0, 80, 88
1, 600184, Note_on_c, 0, 60, 75
1, 600216, Note_off_c, 0, 60, 64
1, 600222, Note_off_c, 0, 80, 64
1, 600285, Note_on_c, 0, 82, 85
1, 600347, Note_off_c, 0, 82, 60
1, 600378, Note_on_c, 0, 72, 75
1, 600389, Note_on_c, 0, 61, 59
1, 600422, Note_off_c, 0, 72, 62
1, 600434, Note_off_c, 0, 61, 59
1, 600482, Note_on_c, 0, 77, 79
1, 600488, Note_on_c, 0, 68, 62
1, 600508, Note_off_c, 0, 77, 64
1, 600530, Note_off_c, 0, 68, 63
1, 600578, Note_on_c, 0, 60, 55
1, 600588, Note_on_c, 0, 85, 71
1, 600677, Note_off_c, 0, 60, 63
1, 600697, Note_on_c, 0, 65, 62
1, 600732, Note_off_c, 0, 65, 60
1, 600783, Note_on_c, 0, 58, 50
1, 600802, Note_on_c, 0, 75, 73
1, 600807, Note_off_c, 0, 85, 41
1, 600842, Note_off_c, 0, 75, 59
1, 600917, Note_on_c, 0, 84, 83
1, 600953, Note_off_c, 0, 84, 66
1, 601003, Note_on_c, 0, 79, 93
1, 601038, Note_off_c, 0, 79, 67
1, 601114, Note_on_c, 0, 80, 88
1, 601167, Note_off_c, 0, 80, 64
1, 601192, Note_on_c, 0, 60, 59
1, 601200, Note_off_c, 0, 58, 52
1, 601212, Note_on_c, 0, 70, 77
1, 601255, Note_off_c, 0, 60, 56
1, 601280, Note_off_c, 0, 70, 62
1, 601308, Note_on_c, 0, 67, 50
1, 601314, Note_on_c, 0, 75, 81
1, 601337, Note_off_c, 0, 75, 67
1, 601352, Note_off_c, 0, 67, 62
1, 601399, Note_on_c, 0, 58, 55
1, 601414, Note_on_c, 0, 84, 83
1, 601500, Note_off_c, 0, 58, 64
1, 601512, Note_on_c, 0, 63, 66
1, 601551, Note_off_c, 0, 63, 61
1, 601580, Note_off_c, 0, 84, 49
1, 601615, Note_on_c, 0, 56, 55
1, 601618, Note_on_c, 0, 73, 69
1, 601666, Note_off_c, 0, 73, 61
1, 601726, Note_on_c, 0, 82, 70
1, 601772, Note_off_c, 0, 82, 62
1, 601826, Note_on_c, 0, 77, 71
1, 601859, Note_off_c, 0, 77, 63
1, 601934, Note_on_c, 0, 79, 72
1, 601962, Note_off_c, 0, 79, 67
1, 602022, Note_on_c, 0, 68, 68
1, 602041, Note_on_c, 0, 65, 46
1, 602070, Note_off_c, 0, 68, 60
1, 602086, Note_off_c, 0, 65, 58
1, 602117, Note_on_c, 0, 58, 49
1, 602137, Note_on_c, 0, 73, 61
1, 602166, Note_off_c, 0, 73, 67
1, 602217, Note_on_c, 0, 82, 67
1, 602239, Note_on_c, 0, 65, 44
1, 602259, Note_off_c, 0, 82, 65
1, 602270, Note_off_c, 0, 58, 36
1, 602271, Note_off_c, 0, 65, 58
1, 602302, Note_off_c, 0, 56, 59
1, 602315, Note_on_c, 0, 61, 54
1, 602330, Note_on_c, 0, 72, 61
1, 602358, Note_off_c, 0, 61, 60
1, 602371, Note_off_c, 0, 72, 64
1, 602423, Note_on_c, 0, 55, 46
1, 602436, Note_on_c, 0, 80, 68
1, 602464, Note_off_c, 0, 80, 68
1, 602527, Note_on_c, 0, 77, 85
1, 602542, Control_c, 0, 64, 33
1, 602557, Control_c, 0, 64, 45
1, 602572, Control_c, 0, 64, 49
1, 602585, Note_off_c, 0, 77, 64
1, 602587, Control_c, 0, 64, 50
1, 602601, Control_c, 0, 64, 52
1, 602607, Note_off_c, 0, 55, 65
1, 602616, Control_c, 0, 64, 52
1, 602623, Note_on_c, 0, 67, 62
1, 602631, Control_c, 0, 64, 53
1, 602646, Control_c, 0, 64, 53
1, 602661, Control_c, 0, 64, 54
1, 602663, Note_off_c, 0, 67, 59
1, 602712, Note_on_c, 0, 72, 79
1, 602720, Control_c, 0, 64, 53
1, 602735, Control_c, 0, 64, 50
1, 602745, Note_off_c, 0, 72, 64
1, 602750, Control_c, 0, 64, 47
1, 602765, Control_c, 0, 64, 42
1, 602780, Control_c, 0, 64, 39
1, 602795, Control_c, 0, 64, 36
1, 602810, Control_c, 0, 64, 33
1, 602817, Note_on_c, 0, 80, 81
1, 602823, Note_on_c, 0, 44, 79
1, 602825, Control_c, 0, 64, 30
1, 602840, Control_c, 0, 64, 29
1, 602855, Control_c, 0, 64, 29
1, 602858, Note_off_c, 0, 44, 65
1, 602884, Note_off_c, 0, 80, 55
1, 602899, Control_c, 0, 64, 28
1, 602906, Note_on_c, 0, 70, 89
1, 602914, Control_c, 0, 64, 28
1, 602918, Note_on_c, 0, 58, 92
1, 602929, Control_c, 0, 64, 27
1, 602943, Control_c, 0, 64, 26
1, 602948, Note_off_c, 0, 70, 66
1, 602958, Control_c, 0, 64, 26
1, 602963, Note_off_c, 0, 58, 65
1, 602973, Control_c, 0, 64, 25
1, 602988, Control_c, 0, 64, 24
1, 603003, Control_c, 0, 64, 22
1, 603013, Note_on_c, 0, 77, 87
1, 603015, Note_on_c, 0, 79, 85
1, 603016, Note_on_c, 0, 48, 87
1, 603018, Control_c, 0, 64, 18
1, 603032, Control_c, 0, 64, 9
1, 603045, Note_off_c, 0, 48, 68
1, 603047, Control_c, 0, 64, 0
1, 603048, Note_off_c, 0, 79, 68
1, 603053, Note_off_c, 0, 77, 65
1, 603109, Note_on_c, 0, 77, 94
1, 603114, Note_on_c, 0, 61, 92
1, 603168, Note_off_c, 0, 77, 64
1, 603177, Note_off_c, 0, 61, 56
1, 603220, Note_on_c, 0, 49, 71
1, 603226, Note_on_c, 0, 72, 76
1, 603263, Note_off_c, 0, 72, 64
1, 603281, Note_off_c, 0, 49, 64
1, 603314, Note_on_c, 0, 53, 68
1, 603317, Note_on_c, 0, 68, 82
1, 603350, Note_off_c, 0, 53, 65
1, 603361, Note_off_c, 0, 68, 57
1, 603415, Note_on_c, 0, 65, 62
1, 603415, Note_on_c, 0, 56, 63
1, 603444, Note_off_c, 0, 56, 64
1, 603451, Note_off_c, 0, 65, 63
1, 603484, Control_c, 0, 67, 14
1, 603499, Control_c, 0, 67, 46
1, 603513, Control_c, 0, 67, 80
1, 603514, Note_on_c, 0, 60, 72
1, 603528, Control_c, 0, 67, 127
1, 603625, Note_on_c, 0, 69, 44
1, 603681, Note_off_c, 0, 69, 59
1, 603724, Note_on_c, 0, 68, 53
1, 603769, Note_off_c, 0, 68, 61
1, 603777, Note_off_c, 0, 60, 65
1, 603820, Note_on_c, 0, 64, 77
1, 603826, Note_on_c, 0, 69, 62
1, 603948, Note_on_c, 0, 65, 46
1, 603959, Note_off_c, 0, 69, 62
1, 603972, Note_off_c, 0, 65, 56
1, 603984, Note_off_c, 0, 64, 63
1, 604026, Note_on_c, 0, 68, 74
1, 604038, Note_on_c, 0, 65, 74
1, 604068, Note_off_c, 0, 65, 64
1, 604136, Note_on_c, 0, 61, 64
1, 604164, Note_off_c, 0, 61, 65
1, 604217, Note_on_c, 0, 56, 72
1, 604248, Note_off_c, 0, 56, 65
1, 604321, Note_on_c, 0, 60, 84
1, 604352, Note_off_c, 0, 60, 65
1, 604395, Note_off_c, 0, 68, 61
1, 604412, Note_on_c, 0, 69, 58
1, 604426, Note_on_c, 0, 57, 69
1, 604455, Note_off_c, 0, 57, 64
1, 604482, Note_off_c, 0, 69, 59
1, 604514, Note_on_c, 0, 53, 62
1, 604516, Note_on_c, 0, 68, 57
1, 604554, Note_off_c, 0, 53, 62
1, 604588, Note_off_c, 0, 68, 59
1, 604607, Note_on_c, 0, 69, 63
1, 604622, Note_on_c, 0, 49, 39
1, 604670, Note_off_c, 0, 69, 63
1, 604708, Note_on_c, 0, 65, 78
1, 604767, Note_off_c, 0, 49, 57
1, 604801, Note_off_c, 0, 65, 56
1, 604804, Note_on_c, 0, 68, 60
1, 604812, Note_on_c, 0, 48, 52
1, 604818, Note_on_c, 0, 72, 56
1, 604865, Note_off_c, 0, 48, 58
1, 604887, Note_off_c, 0, 72, 64
1, 604906, Note_on_c, 0, 73, 65
1, 604917, Note_on_c, 0, 53, 67
1, 604955, Note_off_c, 0, 53, 63
1, 604974, Note_off_c, 0, 73, 58
1, 604996, Note_off_c, 0, 68, 61
1, 605001, Note_on_c, 0, 56, 68
1, 605005, Note_on_c, 0, 72, 63
1, 605032, Note_off_c, 0, 56, 65
1, 605049, Note_off_c, 0, 72, 64
1, 605099, Note_on_c, 0, 76, 76
1, 605100, Note_on_c, 0, 61, 80
1, 605177, Note_off_c, 0, 76, 59
1, 605195, Note_on_c, 0, 72, 56
1, 605210, Note_on_c, 0, 69, 53
1, 605314, Note_off_c, 0, 69, 63
1, 605331, Note_on_c, 0, 68, 65
1, 605364, Note_off_c, 0, 61, 61
1, 605380, Note_off_c, 0, 68, 60
1, 605429, Note_on_c, 0, 64, 94
1, 605434, Note_off_c, 0, 72, 55
1, 605435, Note_on_c, 0, 69, 75
1, 605517, Note_off_c, 0, 69, 60
1, 605527, Note_on_c, 0, 65, 70
1, 605555, Note_off_c, 0, 65, 64
1, 605579, Note_off_c, 0, 64, 60
1, 605622, Note_on_c, 0, 65, 80
1, 605627, Note_on_c, 0, 72, 74
1, 605634, Note_on_c, 0, 68, 68
1, 605668, Note_off_c, 0, 65, 63
1, 605703, Note_off_c, 0, 72, 63
1, 605709, Note_on_c, 0, 73, 71
1, 605740, Note_on_c, 0, 60, 64
1, 605759, Note_off_c, 0, 60, 64
1, 605781, Note_off_c, 0, 73, 64
1, 605811, Note_on_c, 0, 72, 75
1, 605817, Note_off_c, 0, 68, 59
1, 605824, Note_on_c, 0, 57, 70
1, 605848, Note_off_c, 0, 57, 64
1, 605869, Note_off_c, 0, 72, 64
1, 605908, Note_on_c, 0, 76, 88
1, 605921, Note_on_c, 0, 61, 77
1, 605946, Note_off_c, 0, 61, 66
1, 605998, Note_off_c, 0, 76, 62
1, 606009, Note_on_c, 0, 72, 53
1, 606017, Note_on_c, 0, 69, 62
1, 606026, Note_on_c, 0, 56, 40
1, 606027, Note_off_c, 0, 56, 127
1, 606098, Note_off_c, 0, 69, 63
1, 606108, Note_on_c, 0, 68, 72
1, 606125, Note_on_c, 0, 53, 55
1, 606166, Note_off_c, 0, 68, 51
1, 606168, Note_off_c, 0, 53, 58
1, 606217, Note_off_c, 0, 72, 58
1, 606221, Note_on_c, 0, 69, 60
1, 606234, Note_on_c, 0, 48, 36
1, 606301, Note_off_c, 0, 69, 61
1, 606341, Note_off_c, 0, 48, 61
1, 606347, Note_on_c, 0, 65, 47
1, 606386, Note_off_c, 0, 65, 60
1, 606433, Note_on_c, 0, 47, 53
1, 606444, Note_on_c, 0, 72, 41
1, 606449, Note_on_c, 0, 68, 33
1, 606459, Note_off_c, 0, 47, 56
1, 606506, Note_off_c, 0, 72, 62
1, 606530, Note_on_c, 0, 53, 64
1, 606533, Note_on_c, 0, 73, 48
1, 606570, Note_off_c, 0, 53, 61
1, 606578, Note_off_c, 0, 73, 62
1, 606617, Note_on_c, 0, 56, 60
1, 606629, Note_off_c, 0, 68, 55
1, 606634, Note_on_c, 0, 72, 54
1, 606656, Note_off_c, 0, 56, 62
1, 606695, Note_off_c, 0, 72, 54
1, 606733, Note_on_c, 0, 76, 58
1, 606745, Note_on_c, 0, 60, 55
1, 606816, Note_off_c, 0, 76, 55
1, 606834, Note_on_c, 0, 72, 44
1, 606839, Note_on_c, 0, 69, 53
1, 606927, Note_off_c, 0, 69, 62
1, 606955, Note_on_c, 0, 68, 51
1, 606995, Note_off_c, 0, 60, 64
1, 606998, Note_off_c, 0, 68, 59
1, 607044, Note_on_c, 0, 64, 67
1, 607052, Note_on_c, 0, 69, 54
1, 607058, Note_off_c, 0, 72, 56
1, 607138, Note_off_c, 0, 69, 61
1, 607164, Note_on_c, 0, 65, 49
1, 607190, Note_off_c, 0, 64, 64
1, 607195, Note_off_c, 0, 65, 64
1, 607258, Note_on_c, 0, 68, 50
1, 607259, Note_on_c, 0, 65, 64
1, 607263, Note_on_c, 0, 72, 57
1, 607290, Note_off_c, 0, 65, 64
1, 607342, Note_off_c, 0, 72, 63
1, 607350, Note_on_c, 0, 73, 63
1, 607353, Note_on_c, 0, 61, 60
1, 607393, Note_off_c, 0, 61, 60
1, 607412, Note_off_c, 0, 68, 22
1, 607414, Note_off_c, 0, 73, 63
1, 607421, Control_c, 0, 67, 123
1, 607436, Control_c, 0, 67, 113
1, 607451, Control_c, 0, 67, 100
1, 607452, Note_on_c, 0, 56, 46
1, 607462, Note_on_c, 0, 72, 61
1, 607465, Control_c, 0, 67, 83
1, 607480, Control_c, 0, 67, 45
1, 607489, Note_off_c, 0, 56, 63
1, 607495, Control_c, 0, 67, 0
1, 607523, Note_off_c, 0, 72, 60
1, 607550, Note_on_c, 0, 76, 54
1, 607562, Note_on_c, 0, 60, 58
1, 607572, Note_off_c, 0, 76, 59
1, 607598, Note_off_c, 0, 60, 63
1, 607640, Note_on_c, 0, 68, 93
1, 607654, Note_on_c, 0, 56, 62
1, 607689, Note_on_c, 0, 78, 34
1, 607690, Note_off_c, 0, 68, 63
1, 607693, Note_off_c, 0, 56, 64
1, 607719, Note_off_c, 0, 78, 47
1, 607740, Note_on_c, 0, 71, 91
1, 607749, Note_on_c, 0, 53, 63
1, 607778, Note_off_c, 0, 53, 66
1, 607797, Note_off_c, 0, 71, 62
1, 607828, Note_on_c, 0, 47, 72
1, 607835, Note_on_c, 0, 75, 90
1, 607855, Note_off_c, 0, 47, 65
1, 607881, Note_off_c, 0, 75, 65
1, 607937, Note_on_c, 0, 79, 100
1, 608035, Note_on_c, 0, 52, 88
1, 608075, Note_off_c, 0, 52, 64
1, 608136, Note_on_c, 0, 56, 97
1, 608166, Note_off_c, 0, 56, 67
1, 608176, Note_off_c, 0, 79, 62
1, 608226, Note_on_c, 0, 82, 96
1, 608229, Note_on_c, 0, 59, 105
1, 608260, Note_off_c, 0, 59, 69
1, 608261, Note_on_c, 0, 83, 52
1, 608285, Note_off_c, 0, 83, 38
1, 608336, Note_on_c, 0, 63, 103
1, 608391, Note_on_c, 0, 64, 29
1, 608399, Note_off_c, 0, 82, 62
1, 608414, Control_c, 0, 64, 18
1, 608427, Note_off_c, 0, 64, 35
1, 608429, Control_c, 0, 64, 43
1, 608444, Control_c, 0, 64, 51
1, 608451, Note_on_c, 0, 83, 89
1, 608459, Control_c, 0, 64, 56
1, 608474, Control_c, 0, 64, 60
1, 608489, Control_c, 0, 64, 63
1, 608503, Control_c, 0, 64, 66
1, 608518, Control_c, 0, 64, 73
1, 608528, Note_off_c, 0, 83, 65
1, 608533, Control_c, 0, 64, 85
1, 608533, Note_on_c, 0, 80, 86
1, 608535, Note_off_c, 0, 63, 64
1, 608548, Control_c, 0, 64, 127
1, 608578, Control_c, 0, 64, 98
1, 608582, Note_off_c, 0, 80, 66
1, 608592, Control_c, 0, 64, 66
1, 608607, Control_c, 0, 64, 17
1, 608622, Control_c, 0, 64, 0
1, 608634, Note_on_c, 0, 67, 114
1, 608635, Note_on_c, 0, 75, 95
1, 608673, Note_off_c, 0, 75, 66
1, 608681, Control_c, 0, 64, 52
1, 608696, Control_c, 0, 64, 62
1, 608710, Control_c, 0, 64, 65
1, 608725, Control_c, 0, 64, 68
1, 608740, Control_c, 0, 64, 77
1, 608746, Note_on_c, 0, 79, 95
1, 608749, Note_off_c, 0, 67, 66
1, 608755, Control_c, 0, 64, 99
1, 608769, Control_c, 0, 64, 127
1, 608811, Note_off_c, 0, 79, 62
1, 608843, Control_c, 0, 64, 79
1, 608846, Note_on_c, 0, 68, 89
1, 608848, Note_on_c, 0, 74, 93
1, 608858, Control_c, 0, 64, 58
1, 608873, Control_c, 0, 64, 0
1, 608882, Note_off_c, 0, 68, 65
1, 608911, Note_off_c, 0, 74, 63
1, 608939, Note_on_c, 0, 71, 87
1, 608950, Note_on_c, 0, 64, 82
1, 608971, Note_off_c, 0, 64, 71
1, 608986, Note_off_c, 0, 71, 64
1, 609031, Note_on_c, 0, 68, 84
1, 609040, Note_on_c, 0, 59, 82
1, 609062, Note_off_c, 0, 59, 71
1, 609146, Note_on_c, 0, 63, 84
1, 609171, Note_off_c, 0, 68, 61
1, 609198, Note_off_c, 0, 63, 62
1, 609238, Note_on_c, 0, 59, 74
1, 609256, Note_on_c, 0, 72, 72
1, 609286, Note_off_c, 0, 59, 62
1, 609317, Note_off_c, 0, 72, 61
1, 609334, Note_on_c, 0, 56, 68
1, 609349, Note_on_c, 0, 71, 67
1, 609369, Note_off_c, 0, 56, 64
1, 609392, Note_off_c, 0, 71, 61
1, 609441, Note_on_c, 0, 72, 57
1, 609442, Note_on_c, 0, 52, 44
1, 609519, Control_c, 0, 64, 38
1, 609524, Note_off_c, 0, 72, 60
1, 609530, Note_on_c, 0, 68, 67
1, 609533, Control_c, 0, 64, 55
1, 609548, Control_c, 0, 64, 62
1, 609559, Note_off_c, 0, 68, 65
1, 609563, Control_c, 0, 64, 66
1, 609578, Control_c, 0, 64, 71
1, 609591, Note_off_c, 0, 52, 59
1, 609592, Control_c, 0, 64, 78
1, 609607, Control_c, 0, 64, 88
1, 609622, Note_on_c, 0, 64, 15
1, 609622, Control_c, 0, 64, 98
1, 609637, Control_c, 0, 64, 107
1, 609652, Control_c, 0, 64, 107
1, 609660, Note_on_c, 0, 71, 50
1, 609663, Note_on_c, 0, 80, 59
1, 609666, Note_off_c, 0, 64, 41
1, 609666, Control_c, 0, 64, 108
1, 609681, Control_c, 0, 64, 110
1, 609696, Control_c, 0, 64, 114
1, 609706, Note_on_c, 0, 54, 24
1, 609711, Control_c, 0, 64, 121
1, 609726, Control_c, 0, 64, 108
1, 609741, Control_c, 0, 64, 86
1, 609747, Note_off_c, 0, 54, 50
1, 609749, Note_off_c, 0, 80, 62
1, 609754, Note_on_c, 0, 82, 77
1, 609755, Note_on_c, 0, 52, 49
1, 609755, Note_on_c, 0, 63, 54
1, 609755, Control_c, 0, 64, 69
1, 609770, Control_c, 0, 64, 56
1, 609785, Note_on_c, 0, 53, 21
1, 609785, Control_c, 0, 64, 47
1, 609800, Control_c, 0, 64, 54
1, 609807, Note_off_c, 0, 63, 62
1, 609815, Control_c, 0, 64, 59
1, 609822, Note_off_c, 0, 52, 65
1, 609826, Note_off_c, 0, 53, 54
1, 609830, Control_c, 0, 64, 62
1, 609845, Control_c, 0, 64, 65
1, 609852, Note_off_c, 0, 82, 63
1, 609857, Note_on_c, 0, 80, 74
1, 609860, Control_c, 0, 64, 71
1, 609875, Control_c, 0, 64, 80
1, 609893, Note_on_c, 0, 64, 41
1, 609897, Control_c, 0, 64, 101
1, 609912, Control_c, 0, 64, 127
1, 609927, Note_off_c, 0, 64, 56
1, 609956, Control_c, 0, 64, 103
1, 609958, Note_on_c, 0, 83, 75
1, 609966, Note_off_c, 0, 80, 63
1, 609971, Control_c, 0, 64, 74
1, 609977, Note_on_c, 0, 51, 72
1, 609982, Note_off_c, 0, 83, 69
1, 609987, Control_c, 0, 64, 60
1, 609990, Note_on_c, 0, 60, 36
1, 610002, Control_c, 0, 64, 49
1, 610011, Note_off_c, 0, 71, 60
1, 610016, Control_c, 0, 64, 58
1, 610031, Control_c, 0, 64, 63
1, 610046, Control_c, 0, 64, 66
1, 610061, Control_c, 0, 64, 70
1, 610069, Note_on_c, 0, 72, 68
1, 610071, Note_on_c, 0, 80, 70
1, 610076, Control_c, 0, 64, 80
1, 610089, Note_off_c, 0, 51, 61
1, 610090, Control_c, 0, 64, 100
1, 610105, Control_c, 0, 64, 127
1, 610140, Note_on_c, 0, 57, 30
1, 610164, Note_on_c, 0, 52, 77
1, 610165, Note_on_c, 0, 71, 81
1, 610166, Note_off_c, 0, 72, 64
1, 610230, Note_off_c, 0, 80, 61
1, 610238, Note_off_c, 0, 57, 54
1, 610238, Note_off_c, 0, 60, 64
1, 610250, Note_off_c, 0, 71, 61
1, 610268, Note_on_c, 0, 72, 75
1, 610275, Note_off_c, 0, 52, 66
1, 610349, Note_off_c, 0, 72, 64
1, 610357, Control_c, 0, 64, 100
1, 610372, Control_c, 0, 64, 71
1, 610375, Note_on_c, 0, 48, 84
1, 610377, Note_on_c, 0, 68, 66
1, 610387, Control_c, 0, 64, 34
1, 610402, Control_c, 0, 64, 0
1, 610405, Note_off_c, 0, 68, 68
1, 610416, Control_c, 0, 64, 16
1, 610431, Control_c, 0, 64, 42
1, 610446, Control_c, 0, 64, 57
1, 610461, Control_c, 0, 64, 64
1, 610476, Control_c, 0, 64, 71
1, 610485, Note_off_c, 0, 48, 64
1, 610490, Control_c, 0, 64, 83
1, 610492, Note_on_c, 0, 80, 63
1, 610501, Note_on_c, 0, 71, 56
1, 610505, Control_c, 0, 64, 118
1, 610520, Control_c, 0, 64, 127
1, 610564, Control_c, 0, 64, 92
1, 610579, Control_c, 0, 64, 65
1, 610582, Note_on_c, 0, 51, 73
1, 610587, Note_off_c, 0, 80, 63
1, 610594, Note_on_c, 0, 82, 78
1, 610594, Control_c, 0, 64, 0
1, 610614, Note_on_c, 0, 49, 31
1, 610615, Note_off_c, 0, 49, 127
1, 610623, Control_c, 0, 64, 9
1, 610646, Control_c, 0, 64, 42
1, 610661, Control_c, 0, 64, 61
1, 610676, Control_c, 0, 64, 69
1, 610690, Control_c, 0, 64, 82
1, 610693, Note_off_c, 0, 82, 63
1, 610696, Note_on_c, 0, 80, 79
1, 610696, Note_off_c, 0, 51, 64
1, 610705, Control_c, 0, 64, 116
1, 610720, Control_c, 0, 64, 127
1, 610730, Note_on_c, 0, 64, 67
1, 610777, Note_off_c, 0, 71, 0
1, 610784, Note_off_c, 0, 64, 59
1, 610790, Note_on_c, 0, 83, 79
1, 610796, Note_off_c, 0, 80, 64
1, 610812, Note_on_c, 0, 63, 53
1, 610812, Note_off_c, 0, 83, 71
1, 610815, Poly_aftertouch_c, 0, 71, 127
1, 610832, Note_off_c, 0, 63, 61
1, 610858, Poly_aftertouch_c, 0, 71, 0
1, 610894, Note_on_c, 0, 72, 67
1, 610894, Note_on_c, 0, 80, 79
1, 610984, Note_on_c, 0, 60, 42
1, 610999, Note_on_c, 0, 52, 77
1, 610999, Note_off_c, 0, 72, 63
1, 611004, Note_on_c, 0, 71, 74
1, 611076, Note_off_c, 0, 80, 61
1, 611084, Note_off_c, 0, 71, 57
1, 611106, Note_on_c, 0, 72, 75
1, 611146, Note_off_c, 0, 52, 65
1, 611165, Control_c, 0, 64, 77
1, 611180, Control_c, 0, 64, 59
1, 611195, Control_c, 0, 64, 0
1, 611196, Note_off_c, 0, 72, 64
1, 611207, Note_on_c, 0, 51, 94
1, 611210, Note_on_c, 0, 68, 72
1, 611225, Control_c, 0, 64, 39
1, 611239, Control_c, 0, 64, 55
1, 611246, Note_off_c, 0, 68, 63
1, 611254, Control_c, 0, 64, 63
1, 611269, Control_c, 0, 64, 71
1, 611284, Control_c, 0, 64, 87
1, 611299, Control_c, 0, 64, 127
1, 611311, Note_on_c, 0, 80, 76
1, 611324, Note_on_c, 0, 71, 62
1, 611341, Note_off_c, 0, 51, 64
1, 611416, Note_on_c, 0, 52, 91
1, 611418, Note_off_c, 0, 80, 60
1, 611423, Control_c, 0, 64, 77
1, 611426, Note_on_c, 0, 82, 92
1, 611437, Control_c, 0, 64, 58
1, 611452, Control_c, 0, 64, 21
1, 611466, Note_on_c, 0, 54, 35
1, 611467, Control_c, 0, 64, 38
1, 611478, Note_off_c, 0, 60, 55
1, 611482, Control_c, 0, 64, 56
1, 611497, Control_c, 0, 64, 65
1, 611500, Note_off_c, 0, 54, 53
1, 611511, Control_c, 0, 64, 77
1, 611517, Note_on_c, 0, 80, 86
1, 611526, Control_c, 0, 64, 127
1, 611533, Note_off_c, 0, 82, 64
1, 611547, Note_off_c, 0, 52, 64
1, 611613, Note_on_c, 0, 83, 95
1, 611617, Note_on_c, 0, 48, 91
1, 611628, Note_off_c, 0, 80, 65
1, 611631, Control_c, 0, 64, 75
1, 611642, Note_off_c, 0, 83, 70
1, 611646, Control_c, 0, 64, 58
1, 611659, Note_off_c, 0, 48, 64
1, 611660, Control_c, 0, 64, 44
1, 611670, Note_off_c, 0, 71, 63
1, 611675, Control_c, 0, 64, 55
1, 611690, Control_c, 0, 64, 62
1, 611705, Control_c, 0, 64, 67
1, 611711, Note_on_c, 0, 72, 76
1, 611718, Note_on_c, 0, 80, 85
1, 611719, Note_on_c, 0, 64, 85
1, 611720, Control_c, 0, 64, 77
1, 611735, Control_c, 0, 64, 105
1, 611750, Control_c, 0, 64, 127
1, 611755, Note_off_c, 0, 64, 63
1, 611809, Control_c, 0, 64, 99
1, 611815, Note_on_c, 0, 51, 95
1, 611819, Note_on_c, 0, 63, 99
1, 611824, Note_on_c, 0, 71, 83
1, 611824, Control_c, 0, 64, 65
1, 611827, Note_off_c, 0, 72, 62
1, 611839, Control_c, 0, 64, 0
1, 611858, Note_off_c, 0, 80, 64
1, 611872, Note_on_c, 0, 54, 4
1, 611873, Note_off_c, 0, 54, 127
1, 611883, Note_off_c, 0, 71, 63
1, 611911, Note_off_c, 0, 63, 65
1, 611913, Control_c, 0, 64, 45
1, 611922, Note_on_c, 0, 72, 80
1, 611927, Control_c, 0, 64, 62
1, 611935, Note_on_c, 0, 64, 68
1, 611942, Control_c, 0, 64, 71
1, 611957, Control_c, 0, 64, 90
1, 611972, Control_c, 0, 64, 127
1, 612016, Note_off_c, 0, 72, 63
1, 612029, Note_on_c, 0, 68, 80
1, 612039, Note_off_c, 0, 64, 63
1, 612042, Note_on_c, 0, 60, 78
1, 612077, Note_off_c, 0, 68, 61
1, 612132, Note_off_c, 0, 51, 61
1, 612138, Note_on_c, 0, 80, 86
1, 612141, Note_on_c, 0, 71, 71
1, 612152, Note_on_c, 0, 63, 71
1, 612177, Note_off_c, 0, 60, 63
1, 612180, Note_off_c, 0, 63, 66
1, 612201, Control_c, 0, 64, 70
1, 612216, Control_c, 0, 64, 0
1, 612236, Note_off_c, 0, 80, 61
1, 612239, Note_on_c, 0, 52, 97
1, 612241, Note_on_c, 0, 82, 92
1, 612305, Control_c, 0, 64, 34
1, 612320, Control_c, 0, 64, 63
1, 612334, Control_c, 0, 64, 80
1, 612343, Note_on_c, 0, 80, 83
1, 612343, Note_off_c, 0, 82, 64
1, 612349, Control_c, 0, 64, 127
1, 612371, Note_off_c, 0, 71, 55
1, 612441, Note_off_c, 0, 80, 60
1, 612450, Note_on_c, 0, 83, 85
1, 612469, Control_c, 0, 64, 94
1, 612483, Note_off_c, 0, 83, 66
1, 612483, Control_c, 0, 64, 74
1, 612498, Control_c, 0, 64, 60
1, 612513, Control_c, 0, 64, 0
1, 612527, Note_on_c, 0, 60, 66
1, 612548, Note_on_c, 0, 68, 76
1, 612617, Note_off_c, 0, 68, 62
1, 612633, Note_off_c, 0, 60, 59
1, 612646, Note_on_c, 0, 59, 60
1, 612653, Note_on_c, 0, 71, 74
1, 612699, Note_off_c, 0, 71, 61
1, 612752, Note_on_c, 0, 60, 64
1, 612800, Note_off_c, 0, 52, 65
1, 612844, Note_off_c, 0, 60, 55
1, 612863, Note_on_c, 0, 56, 70
1, 612866, Note_on_c, 0, 71, 89
1, 612869, Control_c, 0, 64, 58
1, 612870, Note_on_c, 0, 52, 63
1, 612887, Note_off_c, 0, 59, 63
1, 612891, Control_c, 0, 64, 81
1, 612906, Control_c, 0, 64, 127
1, 612906, Note_on_c, 0, 51, 36
1, 612945, Note_off_c, 0, 51, 31
1, 612963, Note_off_c, 0, 52, 65
1, 612965, Control_c, 0, 64, 84
1, 612974, Note_on_c, 0, 75, 88
1, 612980, Note_on_c, 0, 59, 71
1, 612980, Control_c, 0, 64, 59
1, 612991, Note_off_c, 0, 71, 63
1, 612995, Control_c, 0, 64, 0
1, 613026, Note_off_c, 0, 75, 64
1, 613073, Note_on_c, 0, 51, 73
1, 613105, Note_on_c, 0, 58, 74
1, 613106, Note_off_c, 0, 59, 63
1, 613192, Note_on_c, 0, 75, 84
1, 613195, Note_on_c, 0, 59, 80
1, 613198, Note_off_c, 0, 56, 64
1, 613201, Note_off_c, 0, 51, 62
1, 613237, Note_off_c, 0, 58, 65
1, 613261, Note_off_c, 0, 75, 63
1, 613274, Note_off_c, 0, 59, 41
1, 613277, Note_on_c, 0, 56, 90
1, 613279, Note_on_c, 0, 52, 86
1, 613292, Control_c, 0, 64, 30
1, 613297, Note_on_c, 0, 79, 77
1, 613306, Control_c, 0, 64, 65
1, 613310, Note_on_c, 0, 77, 78
1, 613321, Control_c, 0, 64, 77
1, 613336, Control_c, 0, 64, 127
1, 613345, Note_off_c, 0, 77, 43
1, 613377, Note_off_c, 0, 79, 62
1, 613389, Note_on_c, 0, 60, 82
1, 613486, Note_off_c, 0, 60, 62
1, 613494, Note_on_c, 0, 59, 79
1, 613501, Note_on_c, 0, 79, 85
1, 613523, Note_off_c, 0, 52, 63
1, 613529, Note_on_c, 0, 83, 57
1, 613536, Note_off_c, 0, 56, 62
1, 613549, Note_off_c, 0, 83, 61
1, 613559, Control_c, 0, 64, 74
1, 613562, Note_off_c, 0, 59, 63
1, 613574, Control_c, 0, 64, 37
1, 613588, Note_on_c, 0, 60, 73
1, 613589, Control_c, 0, 64, 0
1, 613594, Note_on_c, 0, 82, 94
1, 613605, Note_off_c, 0, 79, 64
1, 613672, Note_off_c, 0, 60, 64
1, 613694, Note_on_c, 0, 48, 85
1, 613703, Note_on_c, 0, 56, 77
1, 613735, Note_off_c, 0, 48, 62
1, 613738, Note_off_c, 0, 56, 68
1, 613744, Control_c, 0, 64, 49
1, 613759, Control_c, 0, 64, 73
1, 613768, Note_off_c, 0, 82, 65
1, 613774, Control_c, 0, 64, 94
1, 613789, Control_c, 0, 64, 127
1, 613809, Note_on_c, 0, 64, 74
1, 613809, Note_on_c, 0, 83, 96
1, 613863, Control_c, 0, 64, 90
1, 613869, Note_off_c, 0, 83, 61
1, 613878, Control_c, 0, 64, 59
1, 613880, Note_off_c, 0, 64, 63
1, 613893, Control_c, 0, 64, 0
1, 613902, Note_on_c, 0, 63, 60
1, 613903, Note_on_c, 0, 80, 95
1, 613934, Note_off_c, 0, 63, 49
1, 613950, Note_off_c, 0, 80, 66
1, 614001, Note_on_c, 0, 75, 92
1, 614027, Note_off_c, 0, 75, 66
1, 614089, Note_on_c, 0, 51, 69
1, 614096, Note_on_c, 0, 59, 59
1, 614096, Note_on_c, 0, 79, 98
1, 614116, Control_c, 0, 64, 58
1, 614130, Control_c, 0, 64, 66
1, 614145, Control_c, 0, 64, 68
1, 614155, Note_off_c, 0, 79, 62
1, 614160, Control_c, 0, 64, 69
1, 614161, Note_off_c, 0, 59, 63
1, 614166, Note_off_c, 0, 51, 64
1, 614175, Control_c, 0, 64, 69
1, 614198, Note_on_c, 0, 62, 63
1, 614198, Note_on_c, 0, 74, 92
1, 614269, Note_off_c, 0, 74, 64
1, 614284, Note_off_c, 0, 62, 39
1, 614292, Note_on_c, 0, 71, 86
1, 614293, Control_c, 0, 64, 69
1, 614298, Note_on_c, 0, 63, 57
1, 614308, Control_c, 0, 64, 67
1, 614320, Note_off_c, 0, 63, 59
1, 614322, Control_c, 0, 64, 64
1, 614337, Control_c, 0, 64, 60
1, 614352, Control_c, 0, 64, 56
1, 614367, Control_c, 0, 64, 55
1, 614382, Note_off_c, 0, 71, 59
1, 614389, Note_on_c, 0, 68, 86
1, 614391, Note_on_c, 0, 64, 78
1, 614404, Control_c, 0, 64, 54
1, 614425, Note_off_c, 0, 68, 64
1, 614434, Control_c, 0, 64, 54
1, 614437, Note_off_c, 0, 64, 65
1, 614448, Control_c, 0, 64, 53
1, 614463, Control_c, 0, 64, 52
1, 614478, Control_c, 0, 64, 50
1, 614488, Note_on_c, 0, 67, 81
1, 614493, Control_c, 0, 64, 50
1, 614508, Control_c, 0, 64, 49
1, 614523, Control_c, 0, 64, 48
1, 614537, Control_c, 0, 64, 44
1, 614550, Note_off_c, 0, 67, 59
1, 614552, Control_c, 0, 64, 33
1, 614567, Control_c, 0, 64, 0
1, 614579, Note_on_c, 0, 68, 77
1, 614580, Note_on_c, 0, 95, 95
1, 614640, Note_off_c, 0, 95, 64
1, 614679, Note_on_c, 0, 92, 95
1, 614727, Note_off_c, 0, 92, 66
1, 614782, Note_on_c, 0, 87, 94
1, 614823, Note_off_c, 0, 87, 65
1, 614886, Note_on_c, 0, 91, 97
1, 614948, Note_off_c, 0, 91, 58
1, 614969, Note_off_c, 0, 68, 60
1, 614975, Note_on_c, 0, 71, 75
1, 614982, Note_on_c, 0, 86, 92
1, 615029, Note_off_c, 0, 71, 63
1, 615076, Note_on_c, 0, 83, 93
1, 615077, Note_off_c, 0, 86, 64
1, 615085, Note_on_c, 0, 74, 72
1, 615085, Control_c, 0, 64, 12
1, 615100, Control_c, 0, 64, 43
1, 615115, Control_c, 0, 64, 54
1, 615138, Note_off_c, 0, 74, 56
1, 615138, Control_c, 0, 64, 57
1, 615139, Note_off_c, 0, 83, 63
1, 615169, Note_on_c, 0, 75, 88
1, 615169, Note_on_c, 0, 80, 86
1, 615182, Control_c, 0, 64, 57
1, 615187, Note_off_c, 0, 80, 73
1, 615197, Control_c, 0, 64, 54
1, 615211, Control_c, 0, 64, 51
1, 615226, Control_c, 0, 64, 46
1, 615228, Note_off_c, 0, 75, 57
1, 615241, Control_c, 0, 64, 40
1, 615256, Control_c, 0, 64, 34
1, 615264, Note_on_c, 0, 76, 86
1, 615271, Control_c, 0, 64, 26
1, 615285, Control_c, 0, 64, 19
1, 615300, Control_c, 0, 64, 12
1, 615315, Control_c, 0, 64, 0
1, 615334, Note_off_c, 0, 76, 65
1, 615367, Note_on_c, 0, 79, 75
1, 615377, Note_on_c, 0, 71, 80
1, 615414, Note_off_c, 0, 79, 66
1, 615434, Control_c, 0, 67, 11
1, 615436, Note_off_c, 0, 71, 59
1, 615449, Control_c, 0, 67, 62
1, 615464, Control_c, 0, 67, 122
1, 615467, Note_on_c, 0, 68, 71
1, 615478, Control_c, 0, 67, 127
1, 615503, Note_off_c, 0, 68, 66
1, 615573, Note_on_c, 0, 63, 66
1, 615591, Note_off_c, 0, 63, 65
1, 615670, Note_on_c, 0, 67, 73
1, 615703, Note_off_c, 0, 67, 61
1, 615759, Note_on_c, 0, 51, 64
1, 615765, Note_on_c, 0, 62, 74
1, 615788, Note_off_c, 0, 51, 66
1, 615795, Note_off_c, 0, 62, 64
1, 615862, Note_on_c, 0, 52, 67
1, 615866, Note_on_c, 0, 59, 72
1, 615889, Note_off_c, 0, 52, 67
1, 615908, Note_off_c, 0, 59, 66
1, 615971, Note_on_c, 0, 56, 65
1, 616001, Note_off_c, 0, 56, 66
1, 616082, Note_on_c, 0, 71, 72
1, 616123, Note_off_c, 0, 71, 63
1, 616184, Note_on_c, 0, 53, 51
1, 616185, Note_on_c, 0, 68, 60
1, 616213, Note_off_c, 0, 53, 65
1, 616218, Note_off_c, 0, 68, 64
1, 616275, Note_on_c, 0, 48, 55
1, 616293, Note_on_c, 0, 63, 68
1, 616297, Note_off_c, 0, 48, 59
1, 616318, Note_off_c, 0, 63, 63
1, 616391, Note_on_c, 0, 67, 71
1, 616418, Note_off_c, 0, 67, 66
1, 616486, Note_on_c, 0, 62, 71
1, 616515, Note_off_c, 0, 62, 66
1, 616579, Note_on_c, 0, 39, 60
1, 616583, Note_on_c, 0, 59, 73
1, 616612, Note_off_c, 0, 39, 64
1, 616612, Note_off_c, 0, 59, 66
1, 616686, Note_on_c, 0, 56, 66
1, 616695, Note_on_c, 0, 41, 69
1, 616697, Note_on_c, 0, 40, 69
1, 616713, Note_off_c, 0, 56, 64
1, 616719, Note_off_c, 0, 41, 61
1, 616721, Note_off_c, 0, 40, 61
1, 616785, Note_on_c, 0, 71, 73
1, 616827, Note_off_c, 0, 71, 62
1, 616886, Note_on_c, 0, 68, 62
1, 616950, Note_off_c, 0, 68, 56
1, 616977, Note_on_c, 0, 41, 71
1, 616980, Note_on_c, 0, 63, 67
1, 617005, Note_off_c, 0, 41, 66
1, 617016, Note_off_c, 0, 63, 65
1, 617069, Note_on_c, 0, 36, 91
1, 617070, Note_on_c, 0, 59, 77
1, 617089, Note_off_c, 0, 36, 67
1, 617124, Note_off_c, 0, 59, 63
1, 617175, Note_on_c, 0, 66, 62
1, 617258, Note_off_c, 0, 66, 60
1, 617282, Note_on_c, 0, 61, 61
1, 617390, Note_on_c, 0, 74, 86
1, 617401, Note_off_c, 0, 61, 56
1, 617409, Note_on_c, 0, 58, 70
1, 617409, Note_off_c, 0, 74, 71
1, 617473, Control_c, 0, 67, 83
1, 617476, Note_off_c, 0, 58, 63
1, 617484, Note_on_c, 0, 75, 90
1, 617488, Control_c, 0, 67, 18
1, 617492, Note_on_c, 0, 55, 65
1, 617503, Control_c, 0, 67, 0
1, 617517, Note_off_c, 0, 55, 66
1, 617518, Note_off_c, 0, 75, 57
1, 617586, Note_on_c, 0, 70, 72
1, 617650, Note_off_c, 0, 70, 62
1, 617664, Note_on_c, 0, 76, 106
1, 617675, Note_on_c, 0, 67, 77
1, 617694, Note_off_c, 0, 76, 67
1, 617726, Note_off_c, 0, 67, 65
1, 617768, Note_on_c, 0, 71, 82
1, 617775, Note_on_c, 0, 62, 69
1, 617789, Note_off_c, 0, 71, 70
1, 617819, Note_off_c, 0, 62, 59
1, 617872, Note_on_c, 0, 66, 74
1, 617948, Note_off_c, 0, 66, 58
1, 617957, Note_on_c, 0, 50, 95
1, 617974, Note_on_c, 0, 61, 74
1, 617978, Note_off_c, 0, 50, 73
1, 618036, Note_off_c, 0, 61, 64
1, 618065, Note_on_c, 0, 51, 103
1, 618072, Note_on_c, 0, 58, 82
1, 618105, Note_off_c, 0, 51, 62
1, 618135, Note_off_c, 0, 58, 64
1, 618182, Note_on_c, 0, 55, 72
1, 618212, Note_off_c, 0, 55, 67
1, 618266, Note_on_c, 0, 52, 97
1, 618271, Note_on_c, 0, 70, 91
1, 618301, Note_off_c, 0, 52, 66
1, 618343, Note_off_c, 0, 70, 59
1, 618371, Note_on_c, 0, 47, 80
1, 618379, Note_on_c, 0, 67, 68
1, 618390, Note_off_c, 0, 47, 66
1, 618408, Note_off_c, 0, 67, 68
1, 618462, Note_on_c, 0, 62, 58
1, 618504, Control_c, 0, 64, 41
1, 618519, Control_c, 0, 64, 65
1, 618534, Control_c, 0, 64, 77
1, 618549, Control_c, 0, 64, 127
1, 618574, Note_on_c, 0, 66, 65
1, 618580, Note_off_c, 0, 62, 54
1, 618584, Note_on_c, 0, 46, 79
1, 618586, Note_on_c, 0, 34, 77
1, 618611, Note_off_c, 0, 46, 67
1, 618617, Note_off_c, 0, 34, 63
1, 618662, Note_off_c, 0, 66, 59
1, 618671, Note_on_c, 0, 61, 68
1, 618692, Note_on_c, 0, 49, 90
1, 618694, Note_on_c, 0, 37, 80
1, 618724, Note_off_c, 0, 37, 67
1, 618724, Note_off_c, 0, 49, 65
1, 618749, Note_on_c, 0, 58, 86
1, 618770, Note_off_c, 0, 61, 62
1, 618773, Note_off_c, 0, 58, 70
1, 618797, Note_on_c, 0, 53, 99
1, 618802, Note_on_c, 0, 41, 81
1, 618826, Note_off_c, 0, 53, 65
1, 618834, Note_off_c, 0, 41, 65
1, 618896, Poly_aftertouch_c, 0, 43, 127
1, 618897, Control_c, 0, 64, 73
1, 618903, Note_on_c, 0, 59, 100
1, 618905, Note_on_c, 0, 57, 87
1, 618907, Note_on_c, 0, 45, 88
1, 618912, Control_c, 0, 64, 28
1, 618913, Poly_aftertouch_c, 0, 43, 0
1, 618913, Note_on_c, 0, 47, 83
1, 618926, Control_c, 0, 64, 0
1, 618971, Control_c, 0, 64, 54
1, 618986, Control_c, 0, 64, 74
1, 619000, Control_c, 0, 64, 127
1, 619009, Note_on_c, 0, 71, 77
1, 619011, Note_on_c, 0, 76, 72
1, 619045, Note_off_c, 0, 59, 63
1, 619056, Note_off_c, 0, 57, 62
1, 619065, Note_off_c, 0, 45, 60
1, 619066, Note_off_c, 0, 47, 57
1, 619071, Note_on_c, 0, 49, 5
1, 619098, Note_on_c, 0, 77, 90
1, 619100, Note_off_c, 0, 76, 63
1, 619104, Note_on_c, 0, 65, 78
1, 619112, Note_off_c, 0, 71, 63
1, 619121, Note_off_c, 0, 49, 35
1, 619174, Note_off_c, 0, 65, 60
1, 619177, Note_off_c, 0, 77, 62
1, 619189, Note_on_c, 0, 60, 103
1, 619193, Note_on_c, 0, 48, 101
1, 619193, Control_c, 0, 64, 96
1, 619208, Control_c, 0, 64, 62
1, 619223, Control_c, 0, 64, 0
1, 619282, Control_c, 0, 64, 46
1, 619297, Control_c, 0, 64, 66
1, 619309, Note_on_c, 0, 78, 84
1, 619312, Note_on_c, 0, 66, 79
1, 619312, Control_c, 0, 64, 91
1, 619312, Note_off_c, 0, 48, 62
1, 619314, Note_off_c, 0, 60, 65
1, 619327, Control_c, 0, 64, 127
1, 619338, Note_on_c, 0, 65, 63
1, 619355, Note_off_c, 0, 78, 62
1, 619359, Note_off_c, 0, 65, 63
1, 619360, Note_off_c, 0, 66, 61
1, 619411, Note_on_c, 0, 73, 83
1, 619412, Note_on_c, 0, 70, 79
1, 619420, Note_on_c, 0, 61, 103
1, 619429, Note_on_c, 0, 49, 84
1, 619449, Note_on_c, 0, 51, 47
1, 619450, Note_off_c, 0, 61, 61
1, 619451, Note_off_c, 0, 49, 69
1, 619461, Note_off_c, 0, 70, 59
1, 619476, Note_off_c, 0, 51, 59
1, 619516, Note_off_c, 0, 73, 61
1, 619524, Note_on_c, 0, 58, 98
1, 619533, Note_on_c, 0, 46, 83
1, 619557, Note_off_c, 0, 46, 69
1, 619557, Note_off_c, 0, 58, 63
1, 619634, Note_on_c, 0, 53, 100
1, 619640, Note_on_c, 0, 41, 86
1, 619661, Control_c, 0, 64, 94
1, 619664, Note_off_c, 0, 41, 67
1, 619674, Note_off_c, 0, 53, 63
1, 619676, Control_c, 0, 64, 56
1, 619691, Control_c, 0, 64, 0
1, 619737, Note_on_c, 0, 57, 100
1, 619739, Note_on_c, 0, 45, 93
1, 619749, Note_on_c, 0, 55, 77
1, 619797, Note_on_c, 0, 46, 20
1, 619810, Control_c, 0, 64, 52
1, 619824, Control_c, 0, 64, 74
1, 619839, Control_c, 0, 64, 127
1, 619840, Note_on_c, 0, 72, 79
1, 619844, Note_on_c, 0, 77, 71
1, 619846, Note_off_c, 0, 46, 38
1, 619861, Note_off_c, 0, 55, 21
1, 619914, Note_off_c, 0, 57, 62
1, 619935, Note_on_c, 0, 78, 88
1, 619939, Note_on_c, 0, 66, 82
1, 619946, Note_off_c, 0, 45, 60
1, 619947, Note_off_c, 0, 77, 60
1, 619950, Note_off_c, 0, 72, 59
1, 620003, Note_off_c, 0, 66, 61
1, 620037, Note_on_c, 0, 52, 112
1, 620040, Note_on_c, 0, 40, 94
1, 620046, Control_c, 0, 64, 79
1, 620051, Note_off_c, 0, 78, 62
1, 620060, Control_c, 0, 64, 0
1, 620135, Control_c, 0, 64, 66
1, 620139, Note_on_c, 0, 80, 89
1, 620143, Note_on_c, 0, 75, 88
1, 620150, Control_c, 0, 64, 127
1, 620159, Note_on_c, 0, 78, 59
1, 620192, Note_off_c, 0, 78, 46
1, 620201, Note_off_c, 0, 52, 61
1, 620207, Note_off_c, 0, 40, 61
1, 620226, Note_on_c, 0, 68, 80
1, 620231, Note_on_c, 0, 81, 94
1, 620244, Poly_aftertouch_c, 0, 42, 127
1, 620262, Note_off_c, 0, 75, 59
1, 620277, Note_off_c, 0, 68, 64
1, 620278, Poly_aftertouch_c, 0, 42, 0
1, 620296, Note_off_c, 0, 80, 53
1, 620306, Note_off_c, 0, 81, 65
1, 620313, Control_c, 0, 64, 71
1, 620321, Note_on_c, 0, 49, 116
1, 620328, Control_c, 0, 64, 0
1, 620329, Note_on_c, 0, 37, 96
1, 620336, Note_on_c, 0, 39, 83
1, 620410, Control_c, 0, 64, 56
1, 620425, Control_c, 0, 64, 127
1, 620430, Note_on_c, 0, 78, 97
1, 620431, Note_on_c, 0, 83, 87
1, 620462, Note_on_c, 0, 82, 52
1, 620477, Note_off_c, 0, 83, 42
1, 620491, Note_off_c, 0, 82, 64
1, 620502, Note_off_c, 0, 49, 59
1, 620519, Note_off_c, 0, 37, 59
1, 620527, Note_off_c, 0, 78, 65
1, 620528, Note_on_c, 0, 84, 89
1, 620540, Note_on_c, 0, 83, 65
1, 620545, Note_off_c, 0, 39, 15
1, 620557, Note_off_c, 0, 83, 40
1, 620568, Note_off_c, 0, 84, 66
1, 620573, Control_c, 0, 64, 86
1, 620588, Control_c, 0, 64, 37
1, 620603, Control_c, 0, 64, 0
1, 620627, Note_on_c, 0, 46, 119
1, 620635, Note_on_c, 0, 34, 92
1, 620652, Note_on_c, 0, 37, 58
1, 620653, Note_off_c, 0, 37, 127
1, 620677, Control_c, 0, 64, 51
1, 620691, Control_c, 0, 64, 127
1, 620703, Note_off_c, 0, 34, 64
1, 620728, Note_on_c, 0, 82, 106
1, 620729, Note_on_c, 0, 87, 98
1, 620732, Note_off_c, 0, 46, 60
1, 620764, Poly_aftertouch_c, 0, 35, 0
1, 620792, Note_off_c, 0, 87, 62
1, 620805, Note_off_c, 0, 82, 60
1, 620839, Note_on_c, 0, 75, 106
1, 620839, Note_on_c, 0, 88, 103
1, 620862, Note_on_c, 0, 82, 41
1, 620868, Note_off_c, 0, 88, 70
1, 620871, Note_on_c, 0, 87, 44
1, 620886, Note_off_c, 0, 82, 59
1, 620890, Note_off_c, 0, 75, 66
1, 620896, Note_off_c, 0, 87, 55
1, 621062, Control_c, 0, 64, 69
1, 621077, Control_c, 0, 64, 0
1, 621169, Note_on_c, 0, 45, 125
1, 621175, Note_on_c, 0, 33, 114
1, 621178, Note_on_c, 0, 21, 99
1, 621194, Note_on_c, 0, 22, 74
1, 621199, Note_on_c, 0, 27, 65
1, 621204, Control_c, 0, 64, 66
1, 621219, Control_c, 0, 64, 127
1, 621256, Note_off_c, 0, 27, 62
1, 621271, Note_off_c, 0, 45, 64
1, 621319, Note_off_c, 0, 21, 61
1, 621323, Note_off_c, 0, 22, 37
1, 621332, Note_off_c, 0, 33, 67
1, 621691, Note_on_c, 0, 101, 114
1, 621700, Note_on_c, 0, 77, 122
1, 621726, Note_on_c, 0, 70, 59
1, 621727, Note_off_c, 0, 77, 65
1, 621730, Note_on_c, 0, 76, 45
1, 621731, Note_off_c, 0, 76, 127
1, 621747, Note_off_c, 0, 70, 64
1, 621804, Note_on_c, 0, 96, 95
1, 621805, Note_on_c, 0, 72, 85
1, 621822, Note_off_c, 0, 101, 62
1, 621890, Note_off_c, 0, 72, 63
1, 621894, Note_off_c, 0, 96, 64
1, 621902, Note_on_c, 0, 93, 85
1, 621906, Note_on_c, 0, 69, 53
1, 621929, Note_off_c, 0, 69, 58
1, 621938, Note_off_c, 0, 93, 68
1, 621975, Note_on_c, 0, 75, 117
1, 621975, Note_on_c, 0, 93, 66
1, 621975, Note_on_c, 0, 99, 108
1, 622003, Note_on_c, 0, 97, 64
1, 622003, Note_off_c, 0, 93, 67
1, 622012, Note_on_c, 0, 95, 41
1, 622017, Note_off_c, 0, 75, 57
1, 622021, Note_on_c, 0, 66, 31
1, 622022, Note_off_c, 0, 66, 127
1, 622049, Note_off_c, 0, 99, 63
1, 622055, Note_off_c, 0, 95, 0
1, 622065, Note_on_c, 0, 95, 63
1, 622067, Note_off_c, 0, 97, 37
1, 622068, Note_on_c, 0, 71, 77
1, 622088, Poly_aftertouch_c, 0, 100, 0
1, 622161, Note_on_c, 0, 92, 89
1, 622176, Note_on_c, 0, 68, 83
1, 622186, Note_off_c, 0, 71, 62
1, 622195, Note_off_c, 0, 95, 65
1, 622222, Note_on_c, 0, 64, 70
1, 622237, Note_off_c, 0, 68, 61
1, 622239, Note_on_c, 0, 88, 84
1, 622252, Note_off_c, 0, 64, 67
1, 622252, Note_off_c, 0, 92, 66
1, 622277, Note_off_c, 0, 88, 66
1, 622317, Note_on_c, 0, 65, 115
1, 622324, Note_on_c, 0, 89, 116
1, 622353, Note_off_c, 0, 65, 67
1, 622359, Note_on_c, 0, 59, 34
1, 622360, Note_off_c, 0, 59, 127
1, 622391, Poly_aftertouch_c, 0, 59, 0
1, 622420, Note_on_c, 0, 60, 91
1, 622424, Note_on_c, 0, 84, 91
1, 622430, Note_off_c, 0, 89, 60
1, 622485, Note_off_c, 0, 84, 65
1, 622496, Note_off_c, 0, 60, 62
1, 622516, Note_on_c, 0, 57, 70
1, 622520, Note_on_c, 0, 81, 78
1, 622545, Note_off_c, 0, 81, 68
1, 622546, Note_off_c, 0, 57, 66
1, 622588, Note_on_c, 0, 87, 100
1, 622591, Note_on_c, 0, 61, 94
1, 622593, Note_on_c, 0, 62, 112
1, 622616, Note_on_c, 0, 81, 40
1, 622617, Note_off_c, 0, 81, 127
1, 622617, Note_off_c, 0, 62, 75
1, 622648, Note_on_c, 0, 79, 5
1, 622649, Note_off_c, 0, 79, 127
1, 622651, Note_off_c, 0, 61, 58
1, 622675, Note_off_c, 0, 87, 57
1, 622690, Note_on_c, 0, 59, 74
1, 622697, Poly_aftertouch_c, 0, 63, 0
1, 622698, Note_on_c, 0, 83, 74
1, 622699, Poly_aftertouch_c, 0, 88, 0
1, 622702, Poly_aftertouch_c, 0, 84, 0
1, 622795, Note_on_c, 0, 80, 88
1, 622796, Note_on_c, 0, 56, 78
1, 622805, Note_off_c, 0, 59, 62
1, 622828, Note_off_c, 0, 83, 64
1, 622845, Note_on_c, 0, 52, 77
1, 622862, Note_off_c, 0, 56, 64
1, 622865, Note_on_c, 0, 76, 88
1, 622876, Note_off_c, 0, 80, 65
1, 622886, Note_off_c, 0, 52, 65
1, 622905, Note_off_c, 0, 76, 64
1, 622947, Note_on_c, 0, 53, 88
1, 622947, Note_on_c, 0, 55, 85
1, 622950, Note_on_c, 0, 77, 105
1, 622970, Note_off_c, 0, 55, 70
1, 622986, Note_off_c, 0, 53, 65
1, 623011, Note_on_c, 0, 45, 3
1, 623015, Note_off_c, 0, 77, 0
1, 623028, Note_off_c, 0, 45, 0
1, 623044, Note_on_c, 0, 48, 89
1, 623046, Poly_aftertouch_c, 0, 45, 0
1, 623049, Note_on_c, 0, 72, 85
1, 623054, Poly_aftertouch_c, 0, 77, 0
1, 623110, Note_off_c, 0, 48, 57
1, 623117, Note_off_c, 0, 72, 63
1, 623127, Note_on_c, 0, 45, 79
1, 623137, Note_on_c, 0, 69, 91
1, 623156, Note_off_c, 0, 45, 68
1, 623176, Note_off_c, 0, 69, 66
1, 623204, Control_c, 0, 64, 96
1, 623211, Note_on_c, 0, 51, 97
1, 623217, Note_on_c, 0, 75, 100
1, 623219, Control_c, 0, 64, 67
1, 623233, Control_c, 0, 64, 53
1, 623248, Control_c, 0, 64, 60
1, 623263, Control_c, 0, 64, 66
1, 623268, Note_off_c, 0, 51, 64
1, 623275, Note_on_c, 0, 76, 17
1, 623278, Control_c, 0, 64, 75
1, 623280, Note_off_c, 0, 75, 60
1, 623292, Control_c, 0, 64, 118
1, 623297, Note_on_c, 0, 47, 86
1, 623298, Note_on_c, 0, 71, 72
1, 623307, Control_c, 0, 64, 127
1, 623316, Note_off_c, 0, 76, 40
1, 623348, Poly_aftertouch_c, 0, 73, 0
1, 623399, Note_on_c, 0, 44, 82
1, 623407, Note_on_c, 0, 68, 86
1, 623415, Note_off_c, 0, 47, 61
1, 623442, Note_off_c, 0, 71, 63
1, 623483, Note_on_c, 0, 40, 72
1, 623483, Note_on_c, 0, 64, 86
1, 623487, Note_off_c, 0, 44, 63
1, 623500, Note_off_c, 0, 68, 61
1, 623517, Note_off_c, 0, 40, 67
1, 623523, Note_off_c, 0, 64, 67
1, 623552, Control_c, 0, 64, 107
1, 623568, Control_c, 0, 64, 67
1, 623569, Note_on_c, 0, 41, 91
1, 623574, Note_on_c, 0, 65, 102
1, 623583, Control_c, 0, 64, 0
1, 623612, Control_c, 0, 64, 37
1, 623614, Note_off_c, 0, 41, 64
1, 623627, Control_c, 0, 64, 61
1, 623642, Control_c, 0, 64, 74
1, 623657, Control_c, 0, 64, 127
1, 623666, Note_on_c, 0, 36, 83
1, 623670, Note_on_c, 0, 60, 92
1, 623675, Note_off_c, 0, 65, 62
1, 623733, Note_off_c, 0, 36, 61
1, 623751, Note_off_c, 0, 60, 63
1, 623754, Note_on_c, 0, 33, 76
1, 623766, Note_on_c, 0, 57, 89
1, 623787, Note_off_c, 0, 33, 64
1, 623819, Control_c, 0, 64, 109
1, 623834, Control_c, 0, 64, 68
1, 623841, Note_on_c, 0, 39, 88
1, 623843, Note_on_c, 0, 63, 87
1, 623849, Control_c, 0, 64, 0
1, 623852, Note_off_c, 0, 57, 64
1, 623885, Note_off_c, 0, 39, 59
1, 623908, Control_c, 0, 64, 49
1, 623923, Note_on_c, 0, 35, 74
1, 623923, Control_c, 0, 64, 69
1, 623932, Note_on_c, 0, 59, 79
1, 623932, Note_off_c, 0, 63, 62
1, 623938, Control_c, 0, 64, 92
1, 623953, Control_c, 0, 64, 127
1, 624019, Note_on_c, 0, 56, 88
1, 624030, Note_off_c, 0, 35, 32
1, 624034, Note_on_c, 0, 32, 70
1, 624046, Note_off_c, 0, 59, 62
1, 624066, Note_off_c, 0, 32, 64
1, 624097, Note_on_c, 0, 28, 76
1, 624114, Note_on_c, 0, 52, 81
1, 624121, Note_off_c, 0, 56, 63
1, 624138, Note_off_c, 0, 28, 65
1, 624177, Note_off_c, 0, 52, 65
1, 624197, Control_c, 0, 64, 102
1, 624212, Note_on_c, 0, 29, 102
1, 624212, Control_c, 0, 64, 66
1, 624227, Control_c, 0, 64, 0
1, 624315, Control_c, 0, 66, 127
1, 624409, Note_on_c, 0, 52, 69
1, 624441, Note_off_c, 0, 52, 67
1, 624499, Note_on_c, 0, 53, 77
1, 624529, Note_off_c, 0, 53, 65
1, 624589, Note_on_c, 0, 55, 78
1, 624615, Note_off_c, 0, 55, 68
1, 624684, Note_on_c, 0, 57, 88
1, 624733, Note_off_c, 0, 57, 63
1, 624784, Note_on_c, 0, 52, 72
1, 624836, Note_off_c, 0, 52, 63
1, 624907, Note_on_c, 0, 47, 61
1, 624946, Note_off_c, 0, 47, 64
1, 624998, Note_on_c, 0, 60, 91
1, 625207, Note_off_c, 0, 60, 52
1, 625220, Note_on_c, 0, 50, 70
1, 625251, Note_off_c, 0, 50, 66
1, 625305, Note_on_c, 0, 59, 82
1, 625350, Note_off_c, 0, 59, 62
1, 625413, Note_on_c, 0, 53, 62
1, 625433, Note_off_c, 0, 53, 61
1, 625501, Note_on_c, 0, 55, 77
1, 625556, Note_off_c, 0, 55, 59
1, 625581, Note_on_c, 0, 50, 60
1, 625626, Note_off_c, 0, 50, 63
1, 625692, Note_on_c, 0, 45, 60
1, 625744, Note_off_c, 0, 45, 62
1, 625783, Note_off_c, 0, 29, 64
1, 625784, Control_c, 0, 64, 42
1, 625790, Note_on_c, 0, 59, 81
1, 625799, Control_c, 0, 64, 61
1, 625814, Control_c, 0, 64, 67
1, 625814, Note_off_c, 0, 59, 71
1, 625829, Control_c, 0, 64, 73
1, 625843, Control_c, 0, 64, 87
1, 625858, Control_c, 0, 64, 103
1, 625873, Control_c, 0, 64, 119
1, 625887, Control_c, 0, 64, 127
1, 625917, Control_c, 0, 64, 111
1, 625932, Control_c, 0, 64, 100
1, 625947, Control_c, 0, 64, 91
1, 625963, Control_c, 0, 64, 82
1, 625978, Control_c, 0, 64, 74
1, 625992, Control_c, 0, 64, 66
1, 626007, Control_c, 0, 64, 57
1, 626022, Control_c, 0, 64, 32
1, 626031, Note_on_c, 0, 52, 50
1, 626034, Note_on_c, 0, 62, 61
1, 626037, Control_c, 0, 64, 0
1, 626057, Note_off_c, 0, 52, 57
1, 626064, Note_off_c, 0, 62, 66
1, 626114, Note_on_c, 0, 57, 47
1, 626118, Note_on_c, 0, 64, 73
1, 626142, Note_off_c, 0, 57, 58
1, 626142, Note_off_c, 0, 64, 67
1, 626210, Note_on_c, 0, 65, 76
1, 626235, Note_off_c, 0, 65, 68
1, 626305, Note_on_c, 0, 67, 72
1, 626334, Note_off_c, 0, 67, 64
1, 626393, Note_on_c, 0, 52, 58
1, 626412, Note_on_c, 0, 62, 58
1, 626419, Note_off_c, 0, 52, 62
1, 626443, Note_off_c, 0, 62, 64
1, 626497, Note_on_c, 0, 53, 70
1, 626499, Note_on_c, 0, 57, 61
1, 626516, Note_off_c, 0, 53, 63
1, 626530, Note_off_c, 0, 57, 66
1, 626594, Note_on_c, 0, 71, 82
1, 626681, Note_on_c, 0, 55, 92
1, 626725, Note_off_c, 0, 55, 64
1, 626785, Note_off_c, 0, 71, 49
1, 626786, Note_on_c, 0, 60, 68
1, 626788, Note_on_c, 0, 50, 63
1, 626810, Note_off_c, 0, 50, 60
1, 626819, Note_off_c, 0, 60, 63
1, 626897, Note_on_c, 0, 69, 67
1, 626934, Note_off_c, 0, 69, 58
1, 626978, Note_on_c, 0, 64, 73
1, 627006, Note_off_c, 0, 64, 66
1, 627078, Note_on_c, 0, 65, 78
1, 627130, Note_off_c, 0, 65, 61
1, 627183, Note_on_c, 0, 50, 65
1, 627188, Note_on_c, 0, 60, 67
1, 627215, Note_off_c, 0, 50, 64
1, 627221, Note_off_c, 0, 60, 66
1, 627278, Note_on_c, 0, 55, 66
1, 627279, Note_on_c, 0, 52, 72
1, 627307, Note_off_c, 0, 52, 67
1, 627312, Note_off_c, 0, 55, 63
1, 627378, Note_on_c, 0, 69, 88
1, 627471, Note_on_c, 0, 53, 93
1, 627517, Note_off_c, 0, 53, 64
1, 627539, Note_off_c, 0, 69, 59
1, 627572, Note_on_c, 0, 48, 73
1, 627577, Note_on_c, 0, 67, 66
1, 627602, Note_off_c, 0, 48, 65
1, 627613, Note_off_c, 0, 67, 61
1, 627666, Note_on_c, 0, 69, 78
1, 627705, Note_off_c, 0, 69, 63
1, 627753, Note_on_c, 0, 71, 84
1, 627781, Note_off_c, 0, 71, 65
1, 627844, Note_on_c, 0, 72, 100
1, 627950, Note_on_c, 0, 57, 73
1, 627951, Note_on_c, 0, 67, 77
1, 627951, Note_off_c, 0, 72, 62
1, 627980, Note_off_c, 0, 57, 65
1, 628005, Note_off_c, 0, 67, 63
1, 628049, Note_on_c, 0, 62, 65
1, 628060, Note_on_c, 0, 59, 78
1, 628081, Note_off_c, 0, 62, 64
1, 628082, Note_off_c, 0, 59, 69
1, 628155, Note_on_c, 0, 76, 103
1, 628253, Note_on_c, 0, 60, 87
1, 628285, Note_on_c, 0, 54, 44
1, 628289, Note_off_c, 0, 60, 66
1, 628318, Note_off_c, 0, 54, 35
1, 628347, Note_on_c, 0, 55, 86
1, 628349, Note_off_c, 0, 76, 53
1, 628351, Note_on_c, 0, 65, 72
1, 628372, Note_off_c, 0, 55, 70
1, 628379, Note_off_c, 0, 65, 68
1, 628434, Note_on_c, 0, 74, 96
1, 628535, Note_on_c, 0, 69, 83
1, 628541, Note_off_c, 0, 74, 61
1, 628557, Note_off_c, 0, 69, 70
1, 628628, Note_on_c, 0, 71, 101
1, 628726, Note_on_c, 0, 65, 77
1, 628733, Note_off_c, 0, 71, 59
1, 628740, Note_on_c, 0, 55, 76
1, 628767, Note_off_c, 0, 55, 67
1, 628796, Note_off_c, 0, 65, 60
1, 628808, Note_on_c, 0, 60, 74
1, 628828, Note_on_c, 0, 57, 90
1, 628839, Note_off_c, 0, 60, 66
1, 628848, Note_off_c, 0, 57, 72
1, 628899, Note_on_c, 0, 74, 97
1, 629005, Note_on_c, 0, 59, 88
1, 629073, Note_off_c, 0, 74, 62
1, 629095, Note_on_c, 0, 53, 83
1, 629097, Note_on_c, 0, 76, 94
1, 629102, Note_off_c, 0, 59, 63
1, 629105, Control_c, 0, 64, 28
1, 629120, Control_c, 0, 64, 40
1, 629135, Control_c, 0, 64, 47
1, 629137, Note_off_c, 0, 53, 65
1, 629146, Note_off_c, 0, 76, 66
1, 629151, Control_c, 0, 64, 50
1, 629194, Note_on_c, 0, 77, 88
1, 629195, Note_on_c, 0, 72, 79
1, 629196, Control_c, 0, 64, 48
1, 629210, Control_c, 0, 64, 48
1, 629247, Note_off_c, 0, 77, 61
1, 629255, Control_c, 0, 64, 47
1, 629270, Control_c, 0, 64, 44
1, 629277, Note_on_c, 0, 79, 90
1, 629284, Control_c, 0, 64, 0
1, 629284, Control_c, 0, 66, 0
1, 629296, Note_off_c, 0, 72, 61
1, 629334, Note_off_c, 0, 79, 67
1, 629381, Note_on_c, 0, 40, 35
1, 629381, Control_c, 0, 66, 127
1, 629382, Note_on_c, 0, 28, 90
1, 629385, Note_on_c, 0, 81, 99
1, 629410, Control_c, 0, 64, 19
1, 629418, Note_off_c, 0, 40, 54
1, 629425, Control_c, 0, 64, 54
1, 629431, Note_off_c, 0, 28, 61
1, 629440, Control_c, 0, 64, 63
1, 629455, Control_c, 0, 64, 67
1, 629470, Control_c, 0, 64, 72
1, 629484, Control_c, 0, 64, 77
1, 629499, Control_c, 0, 64, 80
1, 629501, Note_on_c, 0, 71, 63
1, 629514, Control_c, 0, 64, 80
1, 629528, Control_c, 0, 64, 81
1, 629543, Control_c, 0, 64, 82
1, 629549, Note_off_c, 0, 81, 50
1, 629554, Note_off_c, 0, 71, 53
1, 629558, Control_c, 0, 64, 85
1, 629573, Control_c, 0, 64, 89
1, 629588, Control_c, 0, 64, 91
1, 629593, Note_on_c, 0, 50, 75
1, 629596, Note_on_c, 0, 76, 61
1, 629602, Control_c, 0, 64, 91
1, 629617, Control_c, 0, 64, 92
1, 629627, Note_off_c, 0, 76, 66
1, 629632, Control_c, 0, 64, 93
1, 629647, Control_c, 0, 64, 95
1, 629662, Control_c, 0, 64, 97
1, 629677, Control_c, 0, 64, 97
1, 629692, Control_c, 0, 64, 98
1, 629706, Note_on_c, 0, 84, 73
1, 629707, Control_c, 0, 64, 99
1, 629722, Control_c, 0, 64, 99
1, 629736, Control_c, 0, 64, 101
1, 629751, Control_c, 0, 64, 102
1, 629766, Control_c, 0, 64, 102
1, 629781, Control_c, 0, 64, 103
1, 629796, Control_c, 0, 64, 104
1, 629801, Note_on_c, 0, 53, 88
1, 629810, Control_c, 0, 64, 107
1, 629825, Control_c, 0, 64, 113
1, 629840, Control_c, 0, 64, 127
1, 629898, Note_on_c, 0, 74, 67
1, 629943, Note_off_c, 0, 84, 54
1, 629982, Note_on_c, 0, 57, 99
1, 629991, Note_on_c, 0, 83, 75
1, 630022, Note_off_c, 0, 53, 62
1, 630026, Note_off_c, 0, 74, 29
1, 630080, Note_on_c, 0, 77, 74
1, 630088, Note_off_c, 0, 83, 60
1, 630149, Note_off_c, 0, 77, 63
1, 630182, Note_on_c, 0, 60, 100
1, 630188, Note_off_c, 0, 57, 0
1, 630208, Note_on_c, 0, 79, 78
1, 630211, Poly_aftertouch_c, 0, 57, 0
1, 630233, Control_c, 0, 64, 94
1, 630248, Control_c, 0, 64, 68
1, 630263, Control_c, 0, 64, 30
1, 630278, Control_c, 0, 64, 0
1, 630299, Note_on_c, 0, 69, 72
1, 630337, Control_c, 0, 64, 39
1, 630351, Control_c, 0, 64, 60
1, 630361, Note_off_c, 0, 79, 60
1, 630366, Control_c, 0, 64, 67
1, 630378, Note_off_c, 0, 69, 63
1, 630380, Note_on_c, 0, 74, 74
1, 630381, Control_c, 0, 64, 74
1, 630396, Control_c, 0, 64, 84
1, 630411, Control_c, 0, 64, 94
1, 630425, Control_c, 0, 64, 98
1, 630437, Note_off_c, 0, 74, 65
1, 630440, Control_c, 0, 64, 101
1, 630455, Control_c, 0, 64, 106
1, 630470, Control_c, 0, 64, 113
1, 630475, Note_on_c, 0, 83, 98
1, 630485, Control_c, 0, 64, 127
1, 630535, Poly_aftertouch_c, 0, 53, 127
1, 630550, Note_off_c, 0, 50, 62
1, 630571, Poly_aftertouch_c, 0, 53, 0
1, 630678, Note_on_c, 0, 72, 77
1, 630778, Note_on_c, 0, 64, 96
1, 630786, Note_on_c, 0, 81, 75
1, 630792, Note_off_c, 0, 72, 57
1, 630810, Note_off_c, 0, 83, 63
1, 630829, Note_off_c, 0, 60, 50
1, 630904, Note_on_c, 0, 76, 71
1, 630905, Note_off_c, 0, 81, 63
1, 630968, Note_off_c, 0, 76, 62
1, 630968, Control_c, 0, 64, 110
1, 630982, Control_c, 0, 64, 89
1, 630997, Control_c, 0, 64, 76
1, 631012, Control_c, 0, 64, 67
1, 631016, Note_on_c, 0, 77, 82
1, 631027, Control_c, 0, 64, 61
1, 631042, Control_c, 0, 64, 59
1, 631056, Control_c, 0, 64, 62
1, 631071, Control_c, 0, 64, 66
1, 631086, Control_c, 0, 64, 70
1, 631101, Control_c, 0, 64, 78
1, 631114, Note_on_c, 0, 67, 73
1, 631116, Control_c, 0, 64, 92
1, 631130, Control_c, 0, 64, 112
1, 631145, Control_c, 0, 64, 127
1, 631195, Note_on_c, 0, 65, 86
1, 631198, Note_off_c, 0, 64, 60
1, 631199, Note_off_c, 0, 67, 60
1, 631205, Note_on_c, 0, 72, 76
1, 631214, Note_off_c, 0, 77, 60
1, 631257, Note_off_c, 0, 72, 64
1, 631298, Note_on_c, 0, 81, 82
1, 631322, Control_c, 0, 64, 116
1, 631337, Control_c, 0, 64, 111
1, 631338, Note_on_c, 0, 53, 21
1, 631352, Control_c, 0, 64, 107
1, 631367, Control_c, 0, 64, 105
1, 631381, Note_on_c, 0, 61, 96
1, 631382, Control_c, 0, 64, 103
1, 631385, Note_on_c, 0, 71, 78
1, 631388, Note_off_c, 0, 81, 60
1, 631397, Control_c, 0, 64, 100
1, 631405, Note_off_c, 0, 65, 62
1, 631412, Control_c, 0, 64, 97
1, 631427, Control_c, 0, 64, 93
1, 631442, Control_c, 0, 64, 91
1, 631444, Note_off_c, 0, 53, 38
1, 631448, Note_off_c, 0, 71, 61
1, 631456, Control_c, 0, 64, 90
1, 631468, Note_on_c, 0, 79, 78
1, 631486, Control_c, 0, 64, 90
1, 631530, Control_c, 0, 64, 89
1, 631543, Note_on_c, 0, 76, 86
1, 631545, Control_c, 0, 64, 88
1, 631549, Note_on_c, 0, 56, 89
1, 631553, Note_off_c, 0, 79, 49
1, 631561, Control_c, 0, 64, 86
1, 631576, Control_c, 0, 64, 84
1, 631589, Note_off_c, 0, 61, 61
1, 631591, Control_c, 0, 64, 83
1, 631612, Control_c, 0, 64, 82
1, 631627, Control_c, 0, 64, 79
1, 631642, Control_c, 0, 64, 77
1, 631648, Note_on_c, 0, 65, 77
1, 631657, Control_c, 0, 64, 75
1, 631672, Control_c, 0, 64, 74
1, 631686, Control_c, 0, 64, 72
1, 631698, Note_off_c, 0, 76, 59
1, 631701, Control_c, 0, 64, 69
1, 631704, Note_off_c, 0, 65, 65
1, 631716, Control_c, 0, 64, 63
1, 631728, Note_on_c, 0, 71, 78
1, 631731, Control_c, 0, 64, 50
1, 631734, Note_on_c, 0, 60, 90
1, 631746, Control_c, 0, 64, 11
1, 631758, Note_off_c, 0, 56, 63
1, 631761, Control_c, 0, 64, 0
1, 631801, Note_off_c, 0, 71, 61
1, 631805, Note_on_c, 0, 79, 74
1, 631914, Note_on_c, 0, 57, 87
1, 631916, Note_on_c, 0, 72, 70
1, 631956, Note_off_c, 0, 60, 60
1, 631971, Note_off_c, 0, 72, 54
1, 632011, Note_on_c, 0, 77, 64
1, 632062, Note_off_c, 0, 79, 57
1, 632097, Note_on_c, 0, 67, 67
1, 632099, Note_on_c, 0, 53, 84
1, 632172, Note_off_c, 0, 67, 59
1, 632187, Note_on_c, 0, 76, 68
1, 632235, Note_off_c, 0, 77, 27
1, 632257, Note_off_c, 0, 76, 64
1, 632262, Note_off_c, 0, 57, 55
1, 632286, Note_on_c, 0, 69, 69
1, 632292, Note_on_c, 0, 50, 69
1, 632311, Note_off_c, 0, 53, 60
1, 632370, Note_off_c, 0, 69, 63
1, 632376, Note_on_c, 0, 74, 57
1, 632403, Note_off_c, 0, 74, 64
1, 632473, Note_on_c, 0, 52, 62
1, 632487, Note_off_c, 0, 50, 59
1, 632550, Note_off_c, 0, 52, 62
1, 632567, Note_on_c, 0, 57, 47
1, 632610, Note_off_c, 0, 57, 61
1, 632640, Note_on_c, 0, 48, 55
1, 632645, Note_on_c, 0, 91, 70
1, 632717, Control_c, 0, 64, 32
1, 632732, Control_c, 0, 64, 51
1, 632734, Note_on_c, 0, 59, 45
1, 632746, Control_c, 0, 64, 58
1, 632761, Control_c, 0, 64, 62
1, 632776, Control_c, 0, 64, 67
1, 632791, Control_c, 0, 64, 74
1, 632806, Control_c, 0, 64, 86
1, 632820, Control_c, 0, 64, 107
1, 632828, Note_on_c, 0, 88, 96
1, 632835, Control_c, 0, 64, 127
1, 632842, Note_off_c, 0, 48, 56
1, 632886, Note_off_c, 0, 59, 61
1, 632904, Note_on_c, 0, 50, 51
1, 632937, Note_off_c, 0, 50, 64
1, 632986, Note_on_c, 0, 45, 59
1, 632998, Note_on_c, 0, 84, 97
1, 633054, Note_off_c, 0, 45, 57
1, 633056, Note_off_c, 0, 88, 59
1, 633063, Note_off_c, 0, 91, 61
1, 633090, Note_on_c, 0, 57, 61
1, 633172, Note_off_c, 0, 84, 59
1, 633176, Note_off_c, 0, 57, 59
1, 633178, Note_on_c, 0, 53, 67
1, 633183, Control_c, 0, 64, 117
1, 633184, Note_on_c, 0, 80, 97
1, 633198, Control_c, 0, 64, 72
1, 633213, Control_c, 0, 64, 53
1, 633228, Control_c, 0, 64, 0
1, 633257, Control_c, 0, 64, 39
1, 633272, Control_c, 0, 64, 57
1, 633282, Note_on_c, 0, 59, 60
1, 633287, Control_c, 0, 64, 67
1, 633302, Control_c, 0, 64, 80
1, 633307, Note_off_c, 0, 53, 50
1, 633317, Control_c, 0, 64, 127
1, 633364, Note_on_c, 0, 50, 68
1, 633382, Note_off_c, 0, 59, 60
1, 633391, Note_off_c, 0, 80, 63
1, 633455, Note_on_c, 0, 60, 95
1, 633650, Note_off_c, 0, 50, 62
1, 633660, Note_off_c, 0, 60, 59
1, 633664, Note_on_c, 0, 52, 66
1, 633731, Control_c, 0, 64, 99
1, 633735, Note_on_c, 0, 77, 108
1, 633746, Control_c, 0, 64, 69
1, 633752, Note_on_c, 0, 47, 71
1, 633761, Control_c, 0, 64, 28
1, 633776, Control_c, 0, 64, 0
1, 633800, Note_off_c, 0, 52, 63
1, 633805, Control_c, 0, 64, 40
1, 633806, Note_off_c, 0, 47, 63
1, 633820, Control_c, 0, 64, 58
1, 633835, Control_c, 0, 64, 66
1, 633852, Note_on_c, 0, 59, 68
1, 633857, Control_c, 0, 64, 75
1, 633872, Control_c, 0, 64, 89
1, 633887, Control_c, 0, 64, 103
1, 633901, Control_c, 0, 64, 106
1, 633916, Control_c, 0, 64, 101
1, 633926, Note_on_c, 0, 56, 85
1, 633928, Note_off_c, 0, 59, 61
1, 633931, Control_c, 0, 64, 96
1, 633947, Control_c, 0, 64, 92
1, 633962, Control_c, 0, 64, 89
1, 633977, Control_c, 0, 64, 85
1, 633982, Note_off_c, 0, 56, 60
1, 633992, Control_c, 0, 64, 80
1, 634006, Note_on_c, 0, 60, 83
1, 634006, Control_c, 0, 64, 73
1, 634021, Control_c, 0, 64, 67
1, 634036, Control_c, 0, 64, 59
1, 634044, Poly_aftertouch_c, 0, 57, 0
1, 634051, Control_c, 0, 64, 48
1, 634066, Control_c, 0, 64, 35
1, 634080, Control_c, 0, 64, 17
1, 634092, Note_on_c, 0, 76, 100
1, 634092, Note_off_c, 0, 60, 65
1, 634095, Control_c, 0, 64, 0
1, 634097, Note_on_c, 0, 52, 73
1, 634115, Note_off_c, 0, 77, 45
1, 634188, Note_on_c, 0, 62, 85
1, 634273, Note_on_c, 0, 81, 103
1, 634273, Control_c, 0, 64, 37
1, 634288, Control_c, 0, 64, 57
1, 634300, Note_off_c, 0, 76, 65
1, 634303, Control_c, 0, 64, 64
1, 634305, Note_off_c, 0, 52, 62
1, 634318, Control_c, 0, 64, 68
1, 634332, Control_c, 0, 64, 72
1, 634343, Note_off_c, 0, 62, 62
1, 634347, Note_on_c, 0, 53, 66
1, 634347, Control_c, 0, 64, 77
1, 634362, Control_c, 0, 64, 85
1, 634377, Control_c, 0, 64, 91
1, 634392, Control_c, 0, 64, 95
1, 634397, Note_off_c, 0, 53, 60
1, 634406, Control_c, 0, 64, 100
1, 634419, Note_on_c, 0, 48, 72
1, 634419, Note_on_c, 0, 84, 98
1, 634421, Control_c, 0, 64, 109
1, 634436, Note_off_c, 0, 81, 66
1, 634436, Control_c, 0, 64, 127
1, 634482, Note_off_c, 0, 48, 62
1, 634499, Note_on_c, 0, 59, 75
1, 634521, Note_off_c, 0, 84, 59
1, 634560, Note_off_c, 0, 59, 58
1, 634583, Note_on_c, 0, 80, 97
1, 634595, Note_on_c, 0, 57, 81
1, 634621, Control_c, 0, 64, 106
1, 634636, Control_c, 0, 64, 88
1, 634648, Note_off_c, 0, 57, 64
1, 634651, Control_c, 0, 64, 72
1, 634666, Control_c, 0, 64, 58
1, 634670, Note_on_c, 0, 62, 78
1, 634680, Control_c, 0, 64, 0
1, 634734, Note_off_c, 0, 62, 63
1, 634756, Note_on_c, 0, 84, 95
1, 634761, Note_on_c, 0, 53, 84
1, 634834, Note_on_c, 0, 63, 94
1, 634875, Note_off_c, 0, 84, 62
1, 634935, Note_on_c, 0, 88, 100
1, 635038, Note_on_c, 0, 59, 75
1, 635054, Note_off_c, 0, 53, 63
1, 635057, Note_off_c, 0, 63, 57
1, 635113, Note_off_c, 0, 88, 66
1, 635123, Note_on_c, 0, 92, 107
1, 635138, Note_on_c, 0, 51, 76
1, 635141, Control_c, 0, 64, 60
1, 635151, Note_on_c, 0, 90, 42
1, 635153, Note_off_c, 0, 92, 69
1, 635155, Control_c, 0, 64, 127
1, 635161, Note_off_c, 0, 80, 67
1, 635175, Note_off_c, 0, 90, 57
1, 635201, Note_off_c, 0, 51, 64
1, 635231, Note_on_c, 0, 65, 81
1, 635254, Note_off_c, 0, 65, 70
1, 635267, Note_off_c, 0, 59, 65
1, 635415, Note_on_c, 0, 76, 112
1, 635415, Control_c, 0, 64, 97
1, 635427, Note_on_c, 0, 28, 93
1, 635429, Control_c, 0, 64, 59
1, 635431, Note_on_c, 0, 40, 89
1, 635444, Control_c, 0, 64, 0
1, 635474, Control_c, 0, 64, 17
1, 635489, Control_c, 0, 64, 59
1, 635503, Control_c, 0, 64, 74
1, 635517, Note_off_c, 0, 28, 62
1, 635518, Control_c, 0, 64, 127
1, 635530, Note_off_c, 0, 40, 62
1, 635609, Note_on_c, 0, 81, 78
1, 635621, Note_off_c, 0, 76, 55
1, 635724, Note_off_c, 0, 81, 62
1, 635747, Note_on_c, 0, 65, 95
1, 635748, Note_on_c, 0, 53, 99
1, 635751, Note_on_c, 0, 72, 69
1, 635868, Note_off_c, 0, 65, 61
1, 635868, Note_on_c, 0, 83, 84
1, 635897, Note_off_c, 0, 53, 63
1, 635980, Note_on_c, 0, 62, 102
1, 635981, Note_on_c, 0, 50, 96
1, 635986, Note_off_c, 0, 83, 51
1, 636004, Note_off_c, 0, 72, 57
1, 636024, Note_off_c, 0, 62, 66
1, 636050, Note_off_c, 0, 50, 62
1, 636062, Note_on_c, 0, 74, 82
1, 636101, Poly_aftertouch_c, 0, 51, 0
1, 636151, Note_on_c, 0, 59, 96
1, 636153, Note_on_c, 0, 47, 97
1, 636159, Note_on_c, 0, 69, 75
1, 636187, Note_off_c, 0, 59, 68
1, 636205, Note_off_c, 0, 47, 61
1, 636208, Note_on_c, 0, 79, 88
1, 636211, Note_off_c, 0, 74, 63
1, 636222, Note_off_c, 0, 69, 64
1, 636288, Note_off_c, 0, 79, 59
1, 636302, Note_on_c, 0, 55, 106
1, 636302, Note_on_c, 0, 77, 92
1, 636305, Note_on_c, 0, 43, 99
1, 636325, Control_c, 0, 64, 83
1, 636341, Control_c, 0, 64, 58
1, 636356, Control_c, 0, 64, 0
1, 636366, Note_off_c, 0, 77, 62
1, 636378, Note_on_c, 0, 83, 91
1, 636415, Control_c, 0, 64, 48
1, 636430, Control_c, 0, 64, 65
1, 636445, Control_c, 0, 64, 78
1, 636450, Note_off_c, 0, 83, 59
1, 636460, Control_c, 0, 64, 127
1, 636466, Note_on_c, 0, 74, 80
1, 636543, Note_on_c, 0, 84, 105
1, 636733, Note_off_c, 0, 74, 56
1, 636747, Note_off_c, 0, 55, 57
1, 636755, Note_on_c, 0, 76, 77
1, 636771, Note_off_c, 0, 43, 60
1, 636787, Note_off_c, 0, 84, 57
1, 636846, Note_on_c, 0, 71, 78
1, 636847, Note_on_c, 0, 52, 100
1, 636852, Note_on_c, 0, 40, 96
1, 636882, Control_c, 0, 64, 76
1, 636897, Control_c, 0, 64, 52
1, 636912, Control_c, 0, 64, 0
1, 636934, Note_off_c, 0, 71, 60
1, 636940, Note_off_c, 0, 76, 64
1, 636947, Note_on_c, 0, 81, 84
1, 636956, Control_c, 0, 64, 36
1, 636971, Control_c, 0, 64, 63
1, 636986, Control_c, 0, 64, 77
1, 637001, Control_c, 0, 64, 127
1, 637001, Note_off_c, 0, 40, 64
1, 637028, Poly_aftertouch_c, 0, 46, 127
1, 637037, Note_off_c, 0, 52, 64
1, 637042, Note_on_c, 0, 79, 84
1, 637049, Note_off_c, 0, 81, 65
1, 637074, Poly_aftertouch_c, 0, 46, 0
1, 637125, Note_off_c, 0, 79, 61
1, 637131, Note_on_c, 0, 84, 85
1, 637213, Note_off_c, 0, 84, 60
1, 637236, Note_on_c, 0, 76, 73
1, 637262, Note_on_c, 0, 72, 96
1, 637267, Note_on_c, 0, 60, 82
1, 637329, Note_off_c, 0, 72, 62
1, 637344, Note_on_c, 0, 86, 81
1, 637352, Note_off_c, 0, 60, 62
1, 637359, Note_off_c, 0, 76, 63
1, 637427, Note_on_c, 0, 83, 90
1, 637442, Note_on_c, 0, 69, 101
1, 637445, Note_on_c, 0, 57, 96
1, 637464, Note_off_c, 0, 86, 59
1, 637483, Note_off_c, 0, 69, 68
1, 637497, Note_off_c, 0, 57, 64
1, 637528, Note_off_c, 0, 83, 58
1, 637532, Note_on_c, 0, 72, 84
1, 637594, Note_off_c, 0, 72, 67
1, 637605, Note_on_c, 0, 65, 105
1, 637608, Note_on_c, 0, 53, 102
1, 637609, Note_on_c, 0, 81, 89
1, 637651, Note_off_c, 0, 65, 64
1, 637678, Note_off_c, 0, 53, 61
1, 637695, Note_on_c, 0, 84, 89
1, 637713, Note_off_c, 0, 81, 65
1, 637770, Note_on_c, 0, 62, 99
1, 637773, Note_on_c, 0, 50, 98
1, 637776, Note_off_c, 0, 84, 61
1, 637781, Note_on_c, 0, 77, 102
1, 637794, Control_c, 0, 64, 77
1, 637809, Control_c, 0, 64, 43
1, 637824, Control_c, 0, 64, 0
1, 637849, Note_off_c, 0, 77, 63
1, 637871, Note_on_c, 0, 88, 96
1, 637883, Control_c, 0, 64, 61
1, 637898, Control_c, 0, 64, 88
1, 637913, Control_c, 0, 64, 127
1, 637953, Note_on_c, 0, 84, 103
1, 637977, Note_off_c, 0, 88, 64
1, 638050, Note_on_c, 0, 74, 79
1, 638054, Note_on_c, 0, 72, 84
1, 638080, Note_off_c, 0, 62, 55
1, 638092, Note_off_c, 0, 72, 61
1, 638111, Note_off_c, 0, 50, 59
1, 638136, Control_c, 0, 66, 0
1, 638143, Poly_aftertouch_c, 0, 56, 127
1, 638174, Poly_aftertouch_c, 0, 56, 0
1, 638187, Note_on_c, 0, 82, 82
1, 638218, Note_off_c, 0, 74, 63
1, 638238, Note_on_c, 0, 58, 85
1, 638240, Note_on_c, 0, 46, 82
1, 638253, Note_off_c, 0, 84, 61
1, 638253, Note_on_c, 0, 88, 86
1, 638257, Note_off_c, 0, 82, 65
1, 638298, Note_off_c, 0, 88, 65
1, 638307, Note_on_c, 0, 81, 82
1, 638321, Note_on_c, 0, 83, 62
1, 638327, Note_on_c, 0, 84, 69
1, 638331, Note_off_c, 0, 46, 64
1, 638333, Note_off_c, 0, 81, 67
1, 638351, Note_off_c, 0, 83, 65
1, 638366, Note_off_c, 0, 58, 62
1, 638378, Note_on_c, 0, 91, 70
1, 638379, Note_off_c, 0, 84, 60
1, 638393, Note_off_c, 0, 91, 67
1, 638399, Note_on_c, 0, 89, 70
1, 638416, Note_off_c, 0, 89, 67
1, 638426, Note_on_c, 0, 75, 90
1, 638429, Note_on_c, 0, 88, 64
1, 638457, Note_off_c, 0, 88, 47
1, 638464, Note_off_c, 0, 75, 65
1, 638484, Note_on_c, 0, 85, 69
1, 638485, Note_on_c, 0, 86, 77
1, 638493, Note_on_c, 0, 88, 49
1, 638500, Note_on_c, 0, 66, 44
1, 638521, Note_off_c, 0, 88, 66
1, 638526, Note_off_c, 0, 66, 55
1, 638527, Note_off_c, 0, 85, 63
1, 638527, Note_off_c, 0, 86, 63
1, 638543, Control_c, 0, 64, 117
1, 638558, Control_c, 0, 64, 61
1, 638572, Control_c, 0, 64, 0
1, 638579, Note_on_c, 0, 77, 108
1, 638581, Note_on_c, 0, 64, 96
1, 638581, Note_on_c, 0, 76, 107
1, 638581, Note_on_c, 0, 65, 111
1, 638618, Note_off_c, 0, 76, 69
1, 638629, Note_off_c, 0, 77, 70
1, 638661, Control_c, 0, 64, 45
1, 638676, Control_c, 0, 64, 71
1, 638691, Control_c, 0, 64, 127
1, 638728, Note_on_c, 0, 87, 100
1, 638736, Note_on_c, 0, 98, 86
1, 638739, Note_on_c, 0, 100, 89
1, 638757, Note_off_c, 0, 65, 52
1, 638757, Note_off_c, 0, 64, 50
1, 638760, Note_off_c, 0, 98, 70
1, 638760, Note_off_c, 0, 100, 71
1, 638770, Note_off_c, 0, 87, 65
1, 638831, Note_on_c, 0, 94, 101
1, 638876, Note_off_c, 0, 94, 64
1, 638921, Note_on_c, 0, 99, 103
1, 638957, Note_off_c, 0, 99, 64
1, 638972, Note_on_c, 0, 98, 41
1, 638974, Control_c, 0, 64, 95
1, 638989, Control_c, 0, 64, 65
1, 639003, Note_off_c, 0, 98, 39
1, 639004, Control_c, 0, 64, 47
1, 639007, Note_on_c, 0, 95, 108
1, 639018, Control_c, 0, 64, 51
1, 639033, Control_c, 0, 64, 60
1, 639048, Control_c, 0, 64, 65
1, 639062, Control_c, 0, 64, 74
1, 639077, Control_c, 0, 64, 99
1, 639093, Note_off_c, 0, 95, 63
1, 639099, Note_on_c, 0, 98, 98
1, 639099, Control_c, 0, 64, 127
1, 639105, Note_on_c, 0, 89, 89
1, 639109, Note_on_c, 0, 83, 90
1, 639123, Note_off_c, 0, 89, 71
1, 639138, Note_off_c, 0, 98, 67
1, 639149, Note_off_c, 0, 83, 64
1, 639198, Note_on_c, 0, 84, 90
1, 639237, Note_on_c, 0, 86, 20
1, 639238, Note_off_c, 0, 86, 127
1, 639254, Note_off_c, 0, 84, 57
1, 639284, Poly_aftertouch_c, 0, 86, 0
1, 639287, Note_on_c, 0, 83, 86
1, 639351, Control_c, 0, 64, 71
1, 639366, Control_c, 0, 64, 55
1, 639373, Note_on_c, 0, 86, 102
1, 639381, Poly_aftertouch_c, 0, 87, 0
1, 639381, Control_c, 0, 64, 48
1, 639391, Note_off_c, 0, 83, 59
1, 639395, Control_c, 0, 64, 59
1, 639410, Control_c, 0, 64, 64
1, 639425, Control_c, 0, 64, 70
1, 639435, Note_off_c, 0, 86, 64
1, 639440, Control_c, 0, 64, 94
1, 639455, Control_c, 0, 64, 127
1, 639463, Note_on_c, 0, 83, 72
1, 639464, Note_on_c, 0, 88, 77
1, 639476, Note_on_c, 0, 75, 76
1, 639498, Note_off_c, 0, 83, 68
1, 639511, Note_off_c, 0, 88, 61
1, 639522, Note_off_c, 0, 75, 51
1, 639566, Note_on_c, 0, 82, 84
1, 639648, Note_on_c, 0, 87, 83
1, 639657, Note_off_c, 0, 82, 63
1, 639689, Note_off_c, 0, 87, 64
1, 639693, Control_c, 0, 64, 81
1, 639708, Control_c, 0, 64, 69
1, 639723, Control_c, 0, 64, 70
1, 639723, Note_on_c, 0, 83, 92
1, 639737, Control_c, 0, 64, 76
1, 639752, Control_c, 0, 64, 87
1, 639767, Control_c, 0, 64, 114
1, 639781, Control_c, 0, 64, 127
1, 639814, Note_off_c, 0, 83, 68
1, 639818, Note_on_c, 0, 71, 90
1, 639820, Note_on_c, 0, 86, 85
1, 639824, Note_on_c, 0, 77, 72
1, 639853, Note_off_c, 0, 86, 65
1, 639859, Note_off_c, 0, 77, 68
1, 639870, Note_off_c, 0, 71, 62
1, 639919, Note_on_c, 0, 72, 91
1, 639961, Note_off_c, 0, 72, 65
1, 640009, Note_on_c, 0, 71, 93
1, 640099, Control_c, 0, 64, 79
1, 640100, Note_on_c, 0, 74, 102
1, 640114, Control_c, 0, 64, 60
1, 640129, Control_c, 0, 64, 17
1, 640144, Control_c, 0, 64, 28
1, 640158, Control_c, 0, 64, 50
1, 640167, Note_off_c, 0, 74, 53
1, 640173, Control_c, 0, 64, 59
1, 640176, Note_off_c, 0, 71, 0
1, 640188, Note_on_c, 0, 71, 57
1, 640188, Control_c, 0, 64, 66
1, 640199, Note_on_c, 0, 76, 69
1, 640203, Control_c, 0, 64, 77
1, 640205, Note_on_c, 0, 63, 73
1, 640217, Control_c, 0, 64, 113
1, 640232, Control_c, 0, 64, 127
1, 640250, Note_off_c, 0, 71, 66
1, 640291, Note_off_c, 0, 76, 58
1, 640304, Note_on_c, 0, 70, 79
1, 640335, Note_off_c, 0, 63, 59
1, 640389, Note_on_c, 0, 75, 82
1, 640410, Note_off_c, 0, 70, 61
1, 640429, Note_off_c, 0, 75, 66
1, 640456, Control_c, 0, 64, 83
1, 640465, Note_on_c, 0, 71, 98
1, 640471, Control_c, 0, 64, 59
1, 640486, Control_c, 0, 64, 24
1, 640501, Control_c, 0, 64, 40
1, 640515, Control_c, 0, 64, 54
1, 640530, Control_c, 0, 64, 61
1, 640545, Control_c, 0, 64, 68
1, 640557, Note_off_c, 0, 71, 68
1, 640560, Control_c, 0, 64, 81
1, 640573, Note_on_c, 0, 74, 91
1, 640575, Control_c, 0, 64, 127
1, 640576, Note_on_c, 0, 59, 87
1, 640587, Note_on_c, 0, 65, 77
1, 640617, Note_off_c, 0, 65, 64
1, 640630, Note_off_c, 0, 74, 64
1, 640635, Note_off_c, 0, 59, 63
1, 640676, Note_on_c, 0, 60, 93
1, 640765, Note_off_c, 0, 60, 37
1, 640766, Note_on_c, 0, 59, 92
1, 640849, Control_c, 0, 64, 91
1, 640861, Note_on_c, 0, 62, 104
1, 640864, Control_c, 0, 64, 64
1, 640879, Control_c, 0, 64, 0
1, 640923, Control_c, 0, 64, 11
1, 640936, Note_off_c, 0, 59, 0
1, 640938, Control_c, 0, 64, 57
1, 640945, Note_off_c, 0, 62, 60
1, 640951, Note_on_c, 0, 59, 55
1, 640953, Control_c, 0, 64, 68
1, 640958, Note_on_c, 0, 64, 73
1, 640960, Note_on_c, 0, 51, 80
1, 640967, Control_c, 0, 64, 80
1, 640982, Control_c, 0, 64, 113
1, 640997, Control_c, 0, 64, 127
1, 641031, Note_off_c, 0, 59, 66
1, 641059, Note_on_c, 0, 58, 82
1, 641070, Note_off_c, 0, 64, 57
1, 641086, Note_off_c, 0, 51, 63
1, 641146, Control_c, 0, 64, 93
1, 641147, Note_on_c, 0, 63, 82
1, 641160, Note_off_c, 0, 58, 63
1, 641161, Control_c, 0, 64, 60
1, 641165, Note_on_c, 0, 52, 62
1, 641176, Control_c, 0, 64, 0
1, 641187, Note_off_c, 0, 52, 61
1, 641194, Note_off_c, 0, 63, 67
1, 641235, Note_on_c, 0, 59, 97
1, 641235, Control_c, 0, 64, 48
1, 641250, Control_c, 0, 64, 67
1, 641264, Control_c, 0, 64, 82
1, 641279, Control_c, 0, 64, 127
1, 641309, Control_c, 0, 64, 85
1, 641324, Control_c, 0, 64, 55
1, 641339, Note_on_c, 0, 52, 90
1, 641345, Note_on_c, 0, 40, 86
1, 641345, Note_on_c, 0, 62, 79
1, 641346, Control_c, 0, 64, 0
1, 641358, Note_off_c, 0, 59, 61
1, 641367, Note_off_c, 0, 52, 69
1, 641371, Note_off_c, 0, 40, 67
1, 641403, Note_off_c, 0, 62, 64
1, 641450, Note_on_c, 0, 53, 91
1, 641457, Note_on_c, 0, 41, 71
1, 641474, Note_off_c, 0, 53, 70
1, 641481, Note_off_c, 0, 41, 60
1, 641535, Note_on_c, 0, 55, 91
1, 641538, Note_on_c, 0, 43, 78
1, 641563, Note_off_c, 0, 43, 65
1, 641568, Note_off_c, 0, 55, 64
1, 641612, Control_c, 0, 64, 37
1, 641627, Control_c, 0, 64, 107
1, 641634, Note_on_c, 0, 57, 99
1, 641637, Note_on_c, 0, 45, 92
1, 641637, Note_on_c, 0, 62, 97
1, 641641, Note_on_c, 0, 69, 95
1, 641642, Note_on_c, 0, 59, 91
1, 641642, Control_c, 0, 64, 127
1, 641644, Note_on_c, 0, 64, 88
1, 641660, Note_off_c, 0, 45, 71
1, 641662, Note_off_c, 0, 57, 65
1, 641673, Note_on_c, 0, 60, 51
1, 641674, Note_off_c, 0, 60, 127
1, 641716, Note_off_c, 0, 59, 58
1, 641717, Control_c, 0, 64, 91
1, 641721, Poly_aftertouch_c, 0, 66, 127
1, 641731, Control_c, 0, 64, 62
1, 641746, Control_c, 0, 64, 0
1, 641747, Note_on_c, 0, 35, 85
1, 641747, Note_on_c, 0, 47, 87
1, 641770, Note_off_c, 0, 47, 70
1, 641773, Poly_aftertouch_c, 0, 66, 0
1, 641776, Note_off_c, 0, 35, 64
1, 641837, Note_on_c, 0, 50, 92
1, 641849, Note_on_c, 0, 38, 62
1, 641850, Note_off_c, 0, 38, 127
1, 641860, Note_off_c, 0, 50, 70
1, 641940, Control_c, 0, 64, 54
1, 641949, Note_on_c, 0, 60, 112
1, 641949, Note_on_c, 0, 48, 104
1, 641954, Control_c, 0, 64, 127
1, 641977, Note_off_c, 0, 60, 66
1, 641981, Note_off_c, 0, 48, 59
1, 641985, Note_on_c, 0, 50, 36
1, 641986, Note_off_c, 0, 50, 127
1, 642004, Note_on_c, 0, 56, 13
1, 642016, Note_on_c, 0, 66, 11
1, 642024, Note_off_c, 0, 62, 50
1, 642063, Note_off_c, 0, 56, 42
1, 642180, Note_on_c, 0, 50, 95
1, 642184, Control_c, 0, 64, 112
1, 642187, Note_on_c, 0, 38, 77
1, 642199, Control_c, 0, 64, 61
1, 642204, Note_off_c, 0, 50, 68
1, 642206, Note_off_c, 0, 38, 62
1, 642214, Control_c, 0, 64, 0
1, 642273, Control_c, 0, 64, 30
1, 642280, Note_on_c, 0, 59, 98
1, 642287, Control_c, 0, 64, 77
1, 642290, Note_on_c, 0, 47, 70
1, 642294, Note_off_c, 0, 64, 60
1, 642302, Control_c, 0, 64, 127
1, 642308, Note_off_c, 0, 59, 64
1, 642308, Note_off_c, 0, 66, 28
1, 642310, Note_off_c, 0, 47, 64
1, 642310, Note_off_c, 0, 69, 57
1, 642334, Note_on_c, 0, 48, 14
1, 642376, Control_c, 0, 64, 99
1, 642378, Note_off_c, 0, 48, 39
1, 642379, Note_on_c, 0, 53, 102
1, 642384, Note_on_c, 0, 41, 90
1, 642391, Control_c, 0, 64, 53
1, 642405, Control_c, 0, 64, 0
1, 642411, Note_off_c, 0, 41, 69
1, 642415, Note_off_c, 0, 53, 66
1, 642477, Note_on_c, 0, 55, 100
1, 642480, Note_on_c, 0, 64, 96
1, 642480, Note_on_c, 0, 71, 103
1, 642483, Note_on_c, 0, 65, 88
1, 642484, Note_on_c, 0, 43, 80
1, 642487, Note_on_c, 0, 60, 96
1, 642495, Control_c, 0, 64, 72
1, 642501, Note_on_c, 0, 45, 60
1, 642506, Note_off_c, 0, 55, 66
1, 642510, Control_c, 0, 64, 127
1, 642512, Note_off_c, 0, 43, 66
1, 642513, Note_on_c, 0, 51, 36
1, 642527, Note_off_c, 0, 45, 61
1, 642538, Note_on_c, 0, 68, 18
1, 642545, Note_off_c, 0, 51, 54
1, 642569, Control_c, 0, 64, 74
1, 642582, Note_off_c, 0, 68, 39
1, 642584, Control_c, 0, 64, 0
1, 642587, Note_on_c, 0, 45, 97
1, 642598, Note_on_c, 0, 33, 75
1, 642614, Note_off_c, 0, 45, 68
1, 642622, Note_off_c, 0, 33, 61
1, 642624, Note_on_c, 0, 35, 38
1, 642625, Note_off_c, 0, 35, 127
1, 642682, Note_on_c, 0, 50, 95
1, 642689, Note_on_c, 0, 38, 66
1, 642703, Note_off_c, 0, 50, 70
1, 642714, Note_off_c, 0, 38, 59
1, 642763, Control_c, 0, 64, 66
1, 642777, Control_c, 0, 64, 127
1, 642784, Note_on_c, 0, 59, 110
1, 642784, Note_on_c, 0, 47, 97
1, 642808, Note_off_c, 0, 59, 67
1, 642811, Note_off_c, 0, 47, 65
1, 643020, Note_on_c, 0, 48, 101
1, 643030, Note_on_c, 0, 36, 65
1, 643034, Note_off_c, 0, 60, 22
1, 643036, Control_c, 0, 64, 69
1, 643043, Note_off_c, 0, 48, 69
1, 643051, Control_c, 0, 64, 0
1, 643054, Note_off_c, 0, 36, 59
1, 643086, Note_off_c, 0, 64, 58
1, 643099, Note_off_c, 0, 65, 60
1, 643122, Note_on_c, 0, 57, 112
1, 643125, Control_c, 0, 64, 81
1, 643127, Note_on_c, 0, 45, 83
1, 643127, Note_off_c, 0, 71, 55
1, 643140, Control_c, 0, 64, 127
1, 643154, Note_off_c, 0, 57, 68
1, 643155, Note_off_c, 0, 45, 68
1, 643170, Note_on_c, 0, 49, 17
1, 643171, Note_off_c, 0, 49, 127
1, 643209, Poly_aftertouch_c, 0, 49, 0
1, 643214, Note_on_c, 0, 52, 90
1, 643224, Note_on_c, 0, 40, 80
1, 643228, Control_c, 0, 64, 64
1, 643243, Control_c, 0, 64, 0
1, 643249, Note_on_c, 0, 41, 46
1, 643252, Note_off_c, 0, 52, 68
1, 643253, Note_off_c, 0, 40, 65
1, 643290, Note_off_c, 0, 41, 55
1, 643320, Note_on_c, 0, 53, 102
1, 643320, Note_on_c, 0, 67, 98
1, 643320, Note_on_c, 0, 72, 101
1, 643321, Note_on_c, 0, 62, 96
1, 643326, Note_on_c, 0, 69, 87
1, 643332, Control_c, 0, 64, 74
1, 643338, Note_on_c, 0, 43, 59
1, 643344, Note_on_c, 0, 41, 46
1, 643347, Note_off_c, 0, 53, 66
1, 643347, Control_c, 0, 64, 127
1, 643364, Note_off_c, 0, 43, 59
1, 643376, Note_off_c, 0, 41, 54
1, 643422, Control_c, 0, 64, 73
1, 643428, Note_on_c, 0, 43, 102
1, 643430, Poly_aftertouch_c, 0, 44, 0
1, 643431, Poly_aftertouch_c, 0, 71, 0
1, 643436, Note_on_c, 0, 31, 76
1, 643436, Control_c, 0, 64, 0
1, 643455, Note_off_c, 0, 43, 66
1, 643459, Note_on_c, 0, 34, 47
1, 643460, Note_off_c, 0, 34, 127
1, 643467, Note_on_c, 0, 37, 31
1, 643468, Note_off_c, 0, 37, 127
1, 643472, Note_off_c, 0, 31, 65
1, 643477, Note_on_c, 0, 33, 23
1, 643511, Poly_aftertouch_c, 0, 37, 0
1, 643529, Note_off_c, 0, 33, 49
1, 643531, Note_on_c, 0, 50, 98
1, 643550, Note_on_c, 0, 36, 50
1, 643551, Note_off_c, 0, 36, 127
1, 643552, Note_on_c, 0, 38, 58
1, 643557, Note_off_c, 0, 50, 68
1, 643588, Note_off_c, 0, 38, 54
1, 643636, Control_c, 0, 64, 127
1, 643643, Note_on_c, 0, 57, 108
1, 643648, Note_on_c, 0, 45, 77
1, 643652, Note_on_c, 0, 47, 87
1, 643669, Note_off_c, 0, 57, 67
1, 643675, Note_off_c, 0, 45, 67
1, 643675, Note_off_c, 0, 47, 69
1, 643875, Note_on_c, 0, 50, 101
1, 643879, Note_on_c, 0, 38, 93
1, 643905, Note_off_c, 0, 38, 67
1, 643908, Note_off_c, 0, 50, 67
1, 644001, Note_off_c, 0, 62, 60
1, 644006, Note_on_c, 0, 55, 106
1, 644009, Note_off_c, 0, 67, 59
1, 644012, Note_on_c, 0, 43, 85
1, 644028, Note_on_c, 0, 45, 69
1, 644036, Note_off_c, 0, 55, 70
1, 644042, Note_off_c, 0, 43, 68
1, 644043, Note_off_c, 0, 69, 64
1, 644050, Note_off_c, 0, 45, 63
1, 644056, Note_off_c, 0, 72, 58
1, 644122, Note_on_c, 0, 47, 92
1, 644125, Note_on_c, 0, 45, 82
1, 644139, Note_on_c, 0, 35, 66
1, 644157, Note_off_c, 0, 47, 65
1, 644165, Note_off_c, 0, 45, 64
1, 644172, Note_off_c, 0, 35, 61
1, 644184, Control_c, 0, 64, 101
1, 644198, Control_c, 0, 64, 58
1, 644213, Control_c, 0, 64, 0
1, 644219, Note_on_c, 0, 69, 92
1, 644222, Note_on_c, 0, 62, 96
1, 644225, Note_on_c, 0, 74, 98
1, 644231, Note_on_c, 0, 40, 91
1, 644235, Note_on_c, 0, 35, 87
1, 644236, Note_on_c, 0, 28, 90
1, 644242, Note_off_c, 0, 62, 69
1, 644244, Poly_aftertouch_c, 0, 36, 0
1, 644259, Note_off_c, 0, 69, 68
1, 644273, Control_c, 0, 64, 34
1, 644277, Note_off_c, 0, 74, 69
1, 644288, Control_c, 0, 64, 66
1, 644303, Control_c, 0, 64, 85
1, 644318, Control_c, 0, 64, 127
1, 644367, Note_on_c, 0, 88, 99
1, 644373, Note_on_c, 0, 76, 81
1, 644373, Note_off_c, 0, 28, 62
1, 644373, Note_on_c, 0, 74, 71
1, 644375, Note_off_c, 0, 35, 60
1, 644389, Note_off_c, 0, 40, 63
1, 644395, Note_off_c, 0, 88, 64
1, 644395, Note_off_c, 0, 76, 71
1, 644403, Note_off_c, 0, 74, 66
1, 644468, Note_on_c, 0, 89, 96
1, 644471, Note_on_c, 0, 77, 86
1, 644491, Note_off_c, 0, 77, 66
1, 644500, Note_off_c, 0, 89, 62
1, 644502, Note_on_c, 0, 79, 45
1, 644503, Note_off_c, 0, 79, 127
1, 644553, Note_on_c, 0, 91, 91
1, 644556, Note_on_c, 0, 79, 78
1, 644563, Control_c, 0, 64, 88
1, 644578, Control_c, 0, 64, 51
1, 644579, Note_off_c, 0, 91, 64
1, 644579, Note_off_c, 0, 79, 70
1, 644593, Control_c, 0, 64, 0
1, 644629, Note_on_c, 0, 53, 86
1, 644633, Note_on_c, 0, 59, 78
1, 644637, Control_c, 0, 64, 22
1, 644638, Note_on_c, 0, 65, 71
1, 644639, Note_on_c, 0, 93, 103
1, 644641, Note_on_c, 0, 81, 103
1, 644645, Note_on_c, 0, 64, 62
1, 644652, Control_c, 0, 64, 72
1, 644655, Note_off_c, 0, 65, 66
1, 644657, Note_off_c, 0, 53, 69
1, 644657, Note_off_c, 0, 59, 69
1, 644665, Note_off_c, 0, 64, 64
1, 644667, Control_c, 0, 64, 127
1, 644684, Note_off_c, 0, 93, 59
1, 644697, Note_off_c, 0, 81, 67
1, 644745, Note_on_c, 0, 83, 89
1, 644829, Note_off_c, 0, 83, 57
1, 644838, Note_on_c, 0, 88, 78
1, 644866, Note_off_c, 0, 88, 66
1, 644930, Note_on_c, 0, 96, 108
1, 644932, Note_on_c, 0, 84, 108
1, 644954, Note_on_c, 0, 95, 46
1, 644955, Note_off_c, 0, 95, 127
1, 645017, Note_on_c, 0, 28, 93
1, 645046, Note_off_c, 0, 28, 64
1, 645055, Note_off_c, 0, 96, 63
1, 645079, Note_off_c, 0, 84, 60
1, 645149, Note_on_c, 0, 86, 80
1, 645171, Note_off_c, 0, 86, 71
1, 645217, Note_on_c, 0, 95, 106
1, 645225, Note_on_c, 0, 83, 77
1, 645240, Note_off_c, 0, 83, 70
1, 645249, Note_on_c, 0, 84, 52
1, 645270, Note_off_c, 0, 84, 61
1, 645302, Note_off_c, 0, 95, 47
1, 645319, Note_on_c, 0, 89, 86
1, 645349, Note_off_c, 0, 89, 63
1, 645392, Note_on_c, 0, 62, 85
1, 645393, Note_on_c, 0, 55, 88
1, 645401, Note_on_c, 0, 65, 68
1, 645406, Note_on_c, 0, 79, 108
1, 645406, Note_on_c, 0, 91, 111
1, 645407, Note_on_c, 0, 67, 55
1, 645408, Note_off_c, 0, 67, 127
1, 645413, Note_off_c, 0, 62, 72
1, 645425, Note_off_c, 0, 65, 63
1, 645431, Note_off_c, 0, 55, 67
1, 645440, Note_on_c, 0, 89, 63
1, 645453, Note_off_c, 0, 79, 65
1, 645464, Note_off_c, 0, 91, 64
1, 645491, Note_off_c, 0, 89, 62
1, 645516, Note_on_c, 0, 81, 81
1, 645586, Note_off_c, 0, 81, 63
1, 645597, Note_on_c, 0, 86, 73
1, 645624, Note_off_c, 0, 86, 68
1, 645684, Note_on_c, 0, 95, 106
1, 645687, Note_on_c, 0, 83, 106
1, 645724, Note_on_c, 0, 94, 49
1, 645751, Note_off_c, 0, 94, 37
1, 645780, Note_on_c, 0, 28, 90
1, 645802, Note_off_c, 0, 95, 64
1, 645808, Note_off_c, 0, 28, 62
1, 645842, Note_off_c, 0, 83, 58
1, 645915, Note_on_c, 0, 84, 75
1, 645938, Note_off_c, 0, 84, 71
1, 645979, Note_on_c, 0, 93, 100
1, 645981, Note_on_c, 0, 81, 90
1, 646001, Note_off_c, 0, 81, 70
1, 646009, Note_on_c, 0, 91, 39
1, 646010, Note_off_c, 0, 91, 127
1, 646062, Note_off_c, 0, 93, 64
1, 646086, Note_on_c, 0, 88, 77
1, 646108, Note_off_c, 0, 88, 72
1, 646140, Note_on_c, 0, 65, 91
1, 646146, Note_on_c, 0, 57, 84
1, 646146, Note_on_c, 0, 67, 85
1, 646148, Note_on_c, 0, 60, 84
1, 646152, Note_on_c, 0, 69, 83
1, 646161, Note_on_c, 0, 77, 102
1, 646161, Note_on_c, 0, 89, 106
1, 646170, Note_off_c, 0, 67, 68
1, 646173, Note_off_c, 0, 65, 67
1, 646173, Note_off_c, 0, 69, 71
1, 646192, Note_on_c, 0, 88, 57
1, 646192, Note_off_c, 0, 60, 67
1, 646207, Note_off_c, 0, 77, 68
1, 646216, Note_off_c, 0, 89, 64
1, 646221, Note_off_c, 0, 57, 68
1, 646243, Note_off_c, 0, 88, 64
1, 646270, Note_on_c, 0, 79, 72
1, 646327, Note_off_c, 0, 79, 63
1, 646345, Note_on_c, 0, 84, 77
1, 646370, Note_off_c, 0, 84, 67
1, 646428, Note_on_c, 0, 93, 111
1, 646430, Note_on_c, 0, 81, 108
1, 646525, Note_on_c, 0, 40, 116
1, 646531, Note_on_c, 0, 28, 96
1, 646552, Note_on_c, 0, 29, 66
1, 646553, Note_off_c, 0, 29, 127
1, 646558, Note_off_c, 0, 28, 69
1, 646589, Note_off_c, 0, 93, 62
1, 646593, Note_off_c, 0, 40, 62
1, 646613, Note_off_c, 0, 81, 62
1, 646659, Note_on_c, 0, 86, 95
1, 646710, Note_off_c, 0, 86, 66
1, 646724, Poly_aftertouch_c, 0, 35, 0
1, 646763, Poly_aftertouch_c, 0, 35, 0
1, 646766, Note_on_c, 0, 79, 106
1, 646766, Note_on_c, 0, 91, 108
1, 646813, Note_off_c, 0, 79, 66
1, 646813, Note_off_c, 0, 91, 66
1, 646898, Note_on_c, 0, 81, 75
1, 646901, Note_on_c, 0, 83, 79
1, 646941, Note_off_c, 0, 83, 60
1, 646943, Note_off_c, 0, 81, 63
1, 646984, Note_on_c, 0, 59, 85
1, 646987, Note_on_c, 0, 71, 106
1, 646988, Note_on_c, 0, 67, 94
1, 646988, Note_on_c, 0, 76, 117
1, 646988, Note_on_c, 0, 88, 107
1, 646990, Note_on_c, 0, 65, 66
1, 647003, Note_on_c, 0, 61, 62
1, 647006, Note_off_c, 0, 59, 70
1, 647010, Note_on_c, 0, 64, 51
1, 647010, Note_on_c, 0, 82, 66
1, 647020, Note_off_c, 0, 71, 69
1, 647024, Note_off_c, 0, 61, 63
1, 647027, Note_off_c, 0, 82, 65
1, 647029, Note_off_c, 0, 88, 71
1, 647030, Note_off_c, 0, 76, 67
1, 647035, Note_off_c, 0, 67, 67
1, 647036, Note_off_c, 0, 64, 36
1, 647040, Note_off_c, 0, 65, 63
1, 647143, Note_on_c, 0, 76, 93
1, 647147, Note_on_c, 0, 89, 91
1, 647149, Note_on_c, 0, 88, 83
1, 647181, Note_off_c, 0, 76, 64
1, 647184, Note_off_c, 0, 89, 65
1, 647199, Note_off_c, 0, 88, 61
1, 647234, Note_on_c, 0, 71, 97
1, 647236, Note_on_c, 0, 83, 100
1, 647280, Note_off_c, 0, 83, 67
1, 647292, Note_off_c, 0, 71, 62
1, 647336, Note_on_c, 0, 87, 101
1, 647343, Note_on_c, 0, 75, 99
1, 647364, Control_c, 0, 64, 78
1, 647373, Note_off_c, 0, 75, 65
1, 647379, Control_c, 0, 64, 40
1, 647388, Note_off_c, 0, 87, 68
1, 647394, Control_c, 0, 64, 0
1, 647430, Note_on_c, 0, 65, 91
1, 647430, Note_on_c, 0, 77, 96
1, 647461, Note_off_c, 0, 65, 64
1, 647472, Note_off_c, 0, 77, 67
1, 647532, Note_on_c, 0, 82, 95
1, 647535, Note_on_c, 0, 70, 96
1, 647565, Note_off_c, 0, 70, 67
1, 647569, Note_off_c, 0, 82, 65
1, 647587, Control_c, 0, 64, 57
1, 647602, Control_c, 0, 64, 127
1, 647628, Note_on_c, 0, 64, 95
1, 647629, Note_on_c, 0, 76, 108
1, 647664, Note_on_c, 0, 81, 23
1, 647665, Note_off_c, 0, 81, 127
1, 647687, Note_off_c, 0, 64, 65
1, 647700, Note_off_c, 0, 76, 60
1, 647705, Control_c, 0, 64, 109
1, 647718, Note_on_c, 0, 71, 89
1, 647720, Control_c, 0, 64, 65
1, 647725, Note_on_c, 0, 59, 84
1, 647735, Control_c, 0, 64, 0
1, 647748, Note_off_c, 0, 59, 70
1, 647765, Note_off_c, 0, 71, 64
1, 647810, Note_on_c, 0, 63, 101
1, 647811, Note_on_c, 0, 75, 96
1, 647848, Note_off_c, 0, 63, 66
1, 647881, Note_off_c, 0, 75, 60
1, 647902, Note_on_c, 0, 53, 88
1, 647906, Note_on_c, 0, 65, 81
1, 647947, Note_off_c, 0, 53, 64
1, 647947, Note_off_c, 0, 65, 64
1, 647995, Note_on_c, 0, 58, 88
1, 647997, Note_on_c, 0, 70, 92
1, 648024, Note_off_c, 0, 58, 65
1, 648024, Note_off_c, 0, 70, 66
1, 648084, Control_c, 0, 64, 61
1, 648088, Note_on_c, 0, 52, 99
1, 648093, Note_on_c, 0, 64, 107
1, 648099, Control_c, 0, 64, 127
1, 648119, Note_on_c, 0, 53, 53
1, 648149, Note_off_c, 0, 53, 37
1, 648169, Note_off_c, 0, 64, 62
1, 648182, Note_on_c, 0, 47, 87
1, 648185, Note_off_c, 0, 52, 36
1, 648185, Note_on_c, 0, 59, 89
1, 648218, Control_c, 0, 64, 79
1, 648224, Note_off_c, 0, 47, 63
1, 648230, Note_off_c, 0, 59, 67
1, 648232, Control_c, 0, 64, 59
1, 648247, Control_c, 0, 64, 0
1, 648280, Note_on_c, 0, 51, 103
1, 648283, Note_on_c, 0, 63, 95
1, 648322, Note_on_c, 0, 61, 32
1, 648323, Note_off_c, 0, 61, 127
1, 648328, Note_off_c, 0, 51, 66
1, 648370, Note_on_c, 0, 53, 89
1, 648385, Note_on_c, 0, 42, 53
1, 648388, Note_off_c, 0, 63, 61
1, 648389, Note_on_c, 0, 41, 79
1, 648396, Control_c, 0, 64, 13
1, 648411, Control_c, 0, 64, 23
1, 648426, Control_c, 0, 64, 34
1, 648439, Note_off_c, 0, 42, 59
1, 648441, Control_c, 0, 64, 43
1, 648452, Note_on_c, 0, 46, 84
1, 648454, Note_off_c, 0, 53, 51
1, 648456, Control_c, 0, 64, 50
1, 648463, Note_on_c, 0, 58, 92
1, 648468, Note_off_c, 0, 41, 61
1, 648470, Control_c, 0, 64, 58
1, 648485, Control_c, 0, 64, 63
1, 648495, Note_off_c, 0, 46, 63
1, 648500, Control_c, 0, 64, 68
1, 648502, Note_on_c, 0, 57, 47
1, 648515, Control_c, 0, 64, 75
1, 648525, Note_off_c, 0, 58, 63
1, 648529, Note_off_c, 0, 57, 57
1, 648529, Control_c, 0, 64, 90
1, 648544, Control_c, 0, 64, 127
1, 648564, Note_on_c, 0, 52, 99
1, 648565, Note_on_c, 0, 43, 104
1, 648569, Note_on_c, 0, 36, 90
1, 648582, Note_on_c, 0, 53, 77
1, 648600, Note_off_c, 0, 53, 68
1, 648603, Control_c, 0, 64, 112
1, 648606, Note_on_c, 0, 38, 29
1, 648618, Control_c, 0, 64, 84
1, 648633, Control_c, 0, 64, 68
1, 648645, Note_off_c, 0, 38, 52
1, 648647, Control_c, 0, 64, 52
1, 648662, Control_c, 0, 64, 0
1, 648665, Poly_aftertouch_c, 0, 45, 0
1, 648701, Note_on_c, 0, 64, 76
1, 648813, Note_on_c, 0, 59, 73
1, 648896, Note_off_c, 0, 64, 56
1, 648916, Note_off_c, 0, 52, 53
1, 648928, Note_on_c, 0, 63, 77
1, 648936, Control_c, 0, 64, 37
1, 648951, Control_c, 0, 64, 52
1, 648962, Note_off_c, 0, 59, 62
1, 648966, Control_c, 0, 64, 58
1, 648981, Control_c, 0, 64, 61
1, 648996, Control_c, 0, 64, 64
1, 649011, Control_c, 0, 64, 66
1, 649017, Note_off_c, 0, 43, 61
1, 649026, Control_c, 0, 64, 68
1, 649029, Note_on_c, 0, 53, 87
1, 649041, Control_c, 0, 64, 71
1, 649055, Control_c, 0, 64, 76
1, 649065, Poly_aftertouch_c, 0, 64, 127
1, 649070, Control_c, 0, 64, 81
1, 649085, Control_c, 0, 64, 86
1, 649094, Note_on_c, 0, 43, 84
1, 649100, Control_c, 0, 64, 89
1, 649113, Note_on_c, 0, 58, 92
1, 649115, Control_c, 0, 64, 91
1, 649130, Control_c, 0, 64, 93
1, 649139, Note_off_c, 0, 63, 59
1, 649145, Control_c, 0, 64, 96
1, 649160, Poly_aftertouch_c, 0, 64, 0
1, 649160, Control_c, 0, 64, 98
1, 649175, Control_c, 0, 64, 98
1, 649182, Note_on_c, 0, 45, 87
1, 649188, Note_off_c, 0, 43, 63
1, 649220, Control_c, 0, 64, 99
1, 649234, Control_c, 0, 64, 100
1, 649249, Control_c, 0, 64, 101
1, 649267, Note_on_c, 0, 43, 86
1, 649277, Note_off_c, 0, 45, 63
1, 649278, Control_c, 0, 64, 95
1, 649293, Control_c, 0, 64, 80
1, 649308, Control_c, 0, 64, 59
1, 649323, Control_c, 0, 64, 0
1, 649351, Note_on_c, 0, 46, 92
1, 649384, Note_off_c, 0, 43, 63
1, 649439, Note_on_c, 0, 43, 61
1, 649451, Note_off_c, 0, 46, 64
1, 649460, Note_on_c, 0, 64, 78
1, 649473, Note_off_c, 0, 58, 60
1, 649580, Note_on_c, 0, 59, 76
1, 649622, Note_off_c, 0, 64, 58
1, 649643, Note_off_c, 0, 53, 58
1, 649685, Note_on_c, 0, 63, 73
1, 649735, Note_off_c, 0, 59, 60
1, 649776, Note_on_c, 0, 53, 82
1, 649795, Note_off_c, 0, 43, 61
1, 649847, Note_on_c, 0, 58, 89
1, 649866, Note_on_c, 0, 43, 68
1, 649875, Poly_aftertouch_c, 0, 64, 127
1, 649885, Note_off_c, 0, 63, 58
1, 649899, Note_off_c, 0, 53, 58
1, 649910, Poly_aftertouch_c, 0, 64, 0
1, 649955, Note_on_c, 0, 45, 82
1, 649971, Note_off_c, 0, 43, 62
1, 650051, Note_on_c, 0, 43, 81
1, 650081, Note_off_c, 0, 45, 63
1, 650132, Note_off_c, 0, 58, 63
1, 650145, Note_on_c, 0, 46, 85
1, 650162, Note_off_c, 0, 43, 63
1, 650230, Note_on_c, 0, 64, 87
1, 650230, Note_on_c, 0, 43, 68
1, 650245, Note_off_c, 0, 46, 63
1, 650329, Note_on_c, 0, 59, 85
1, 650351, Note_off_c, 0, 64, 62
1, 650425, Note_on_c, 0, 63, 93
1, 650434, Control_c, 0, 64, 18
1, 650441, Note_off_c, 0, 59, 62
1, 650448, Control_c, 0, 64, 23
1, 650463, Control_c, 0, 64, 24
1, 650478, Control_c, 0, 64, 25
1, 650507, Control_c, 0, 64, 26
1, 650510, Note_on_c, 0, 53, 89
1, 650529, Note_off_c, 0, 43, 62
1, 650582, Control_c, 0, 64, 25
1, 650586, Note_off_c, 0, 63, 62
1, 650609, Note_on_c, 0, 58, 81
1, 650612, Note_on_c, 0, 42, 86
1, 650656, Control_c, 0, 64, 24
1, 650663, Note_off_c, 0, 53, 57
1, 650671, Control_c, 0, 64, 23
1, 650686, Control_c, 0, 64, 21
1, 650710, Note_on_c, 0, 43, 86
1, 650732, Note_off_c, 0, 42, 59
1, 650746, Control_c, 0, 64, 21
1, 650761, Control_c, 0, 64, 20
1, 650790, Control_c, 0, 64, 19
1, 650806, Note_on_c, 0, 42, 90
1, 650833, Note_off_c, 0, 43, 62
1, 650923, Control_c, 0, 64, 18
1, 650940, Note_on_c, 0, 45, 74
1, 650956, Note_off_c, 0, 42, 62
1, 650983, Control_c, 0, 64, 17
1, 650997, Control_c, 0, 64, 17
1, 651012, Control_c, 0, 64, 16
1, 651027, Control_c, 0, 64, 15
1, 651038, Note_off_c, 0, 45, 59
1, 651059, Note_on_c, 0, 42, 66
1, 651065, Note_on_c, 0, 64, 65
1, 651077, Note_off_c, 0, 58, 61
1, 651138, Control_c, 0, 64, 16
1, 651153, Control_c, 0, 64, 21
1, 651168, Control_c, 0, 64, 26
1, 651180, Note_on_c, 0, 58, 75
1, 651183, Control_c, 0, 64, 32
1, 651197, Control_c, 0, 64, 37
1, 651212, Control_c, 0, 64, 42
1, 651213, Note_off_c, 0, 64, 62
1, 651227, Control_c, 0, 64, 46
1, 651241, Control_c, 0, 64, 49
1, 651256, Control_c, 0, 64, 51
1, 651271, Note_on_c, 0, 63, 68
1, 651271, Control_c, 0, 64, 52
1, 651296, Note_off_c, 0, 58, 57
1, 651351, Note_on_c, 0, 52, 68
1, 651351, Note_off_c, 0, 42, 63
1, 651434, Note_on_c, 0, 42, 66
1, 651452, Note_off_c, 0, 63, 51
1, 651452, Note_on_c, 0, 58, 63
1, 651465, Note_off_c, 0, 52, 49
1, 651524, Note_off_c, 0, 42, 63
1, 651524, Control_c, 0, 64, 50
1, 651533, Note_on_c, 0, 43, 66
1, 651539, Control_c, 0, 64, 49
1, 651554, Control_c, 0, 64, 48
1, 651569, Control_c, 0, 64, 46
1, 651584, Control_c, 0, 64, 44
1, 651598, Control_c, 0, 64, 41
1, 651612, Note_off_c, 0, 43, 63
1, 651613, Control_c, 0, 64, 37
1, 651620, Note_on_c, 0, 42, 71
1, 651628, Control_c, 0, 64, 34
1, 651643, Control_c, 0, 64, 31
1, 651658, Control_c, 0, 64, 27
1, 651673, Control_c, 0, 64, 25
1, 651687, Control_c, 0, 64, 24
1, 651702, Control_c, 0, 64, 23
1, 651710, Note_off_c, 0, 42, 61
1, 651725, Note_on_c, 0, 45, 62
1, 651791, Note_off_c, 0, 45, 54
1, 651807, Control_c, 0, 64, 24
1, 651811, Note_off_c, 0, 58, 62
1, 651827, Note_on_c, 0, 64, 57
1, 651828, Control_c, 0, 64, 25
1, 651840, Note_on_c, 0, 42, 52
1, 651843, Control_c, 0, 64, 27
1, 651858, Control_c, 0, 64, 29
1, 651873, Control_c, 0, 64, 31
1, 651888, Control_c, 0, 64, 34
1, 651902, Control_c, 0, 64, 38
1, 651917, Control_c, 0, 64, 41
1, 651932, Control_c, 0, 64, 44
1, 651947, Control_c, 0, 64, 47
1, 651950, Note_on_c, 0, 58, 57
1, 651962, Control_c, 0, 64, 50
1, 651965, Note_off_c, 0, 64, 55
1, 651977, Control_c, 0, 64, 52
1, 651992, Control_c, 0, 64, 53
1, 652007, Control_c, 0, 64, 54
1, 652036, Control_c, 0, 64, 54
1, 652040, Note_off_c, 0, 58, 57
1, 652046, Note_on_c, 0, 63, 50
1, 652110, Note_off_c, 0, 42, 58
1, 652125, Control_c, 0, 64, 54
1, 652146, Note_on_c, 0, 52, 51
1, 652154, Control_c, 0, 64, 53
1, 652184, Control_c, 0, 64, 53
1, 652199, Control_c, 0, 64, 52
1, 652222, Note_off_c, 0, 63, 33
1, 652236, Note_on_c, 0, 42, 53
1, 652243, Control_c, 0, 64, 52
1, 652251, Note_on_c, 0, 58, 47
1, 652258, Control_c, 0, 64, 51
1, 652275, Note_off_c, 0, 52, 35
1, 652302, Control_c, 0, 64, 51
1, 652320, Note_off_c, 0, 42, 58
1, 652350, Note_on_c, 0, 43, 39
1, 652362, Control_c, 0, 64, 50
1, 652412, Note_off_c, 0, 43, 58
1, 652447, Note_on_c, 0, 42, 52
1, 652515, Note_off_c, 0, 42, 57
1, 652577, Note_on_c, 0, 45, 33
1, 652618, Note_off_c, 0, 45, 59
1, 652637, Control_c, 0, 64, 50
1, 652670, Note_on_c, 0, 42, 34
1, 652671, Note_off_c, 0, 58, 60
1, 652689, Note_on_c, 0, 64, 43
1, 652815, Control_c, 0, 64, 50
1, 652821, Note_on_c, 0, 58, 38
1, 652844, Control_c, 0, 64, 51
1, 652859, Control_c, 0, 64, 52
1, 652874, Control_c, 0, 64, 53
1, 652889, Control_c, 0, 64, 54
1, 652903, Control_c, 0, 64, 56
1, 652904, Note_off_c, 0, 58, 55
1, 652918, Control_c, 0, 64, 57
1, 652924, Note_off_c, 0, 64, 28
1, 652928, Note_on_c, 0, 63, 33
1, 652933, Control_c, 0, 64, 59
1, 652948, Control_c, 0, 64, 60
1, 652963, Control_c, 0, 64, 61
1, 652977, Control_c, 0, 64, 62
1, 652985, Note_off_c, 0, 42, 52
1, 652992, Control_c, 0, 64, 63
1, 653007, Control_c, 0, 64, 63
1, 653044, Note_on_c, 0, 52, 39
1, 653056, Note_off_c, 0, 63, 29
1, 653095, Control_c, 0, 64, 63
1, 653118, Note_on_c, 0, 42, 36
1, 653126, Control_c, 0, 64, 62
1, 653130, Note_off_c, 0, 52, 53
1, 653141, Control_c, 0, 64, 62
1, 653165, Note_on_c, 0, 57, 43
1, 653171, Control_c, 0, 64, 61
1, 653185, Control_c, 0, 64, 61
1, 653200, Control_c, 0, 64, 60
1, 653215, Control_c, 0, 64, 59
1, 653230, Control_c, 0, 64, 59
1, 653245, Control_c, 0, 64, 58
1, 653259, Control_c, 0, 64, 57
1, 653274, Control_c, 0, 64, 57
1, 653287, Note_on_c, 0, 44, 47
1, 653289, Note_off_c, 0, 42, 46
1, 653289, Control_c, 0, 64, 56
1, 653304, Control_c, 0, 64, 55
1, 653326, Control_c, 0, 64, 54
1, 653341, Control_c, 0, 64, 53
1, 653356, Control_c, 0, 64, 52
1, 653371, Control_c, 0, 64, 50
1, 653382, Note_off_c, 0, 57, 58
1, 653386, Control_c, 0, 64, 47
1, 653400, Control_c, 0, 64, 44
1, 653415, Control_c, 0, 64, 41
1, 653430, Control_c, 0, 64, 39
1, 653433, Note_on_c, 0, 42, 35
1, 653445, Control_c, 0, 64, 36
1, 653460, Control_c, 0, 64, 32
1, 653467, Note_off_c, 0, 36, 39
1, 653474, Control_c, 0, 64, 26
1, 653489, Control_c, 0, 64, 19
1, 653504, Control_c, 0, 64, 9
1, 653518, Control_c, 0, 64, 0
1, 653564, Note_off_c, 0, 44, 32
1, 653658, Note_on_c, 0, 47, 29
1, 653661, Note_on_c, 0, 40, 40
1, 653708, Note_off_c, 0, 42, 36
1, 653712, Control_c, 0, 66, 127
1, 653823, Note_off_c, 0, 47, 54
1, 653830, Control_c, 0, 64, 9
1, 653845, Control_c, 0, 64, 36
1, 653852, Note_off_c, 0, 40, 39
1, 653860, Control_c, 0, 64, 49
1, 653874, Control_c, 0, 64, 55
1, 653889, Control_c, 0, 64, 56
1, 653904, Control_c, 0, 64, 57
1, 653912, Note_on_c, 0, 68, 44
1, 653920, Control_c, 0, 64, 58
1, 653964, Control_c, 0, 64, 57
1, 653970, Note_off_c, 0, 68, 57
1, 653979, Control_c, 0, 64, 57
1, 653994, Control_c, 0, 64, 56
1, 654008, Control_c, 0, 64, 55
1, 654013, Note_on_c, 0, 70, 40
1, 654019, Note_on_c, 0, 64, 44
1, 654023, Control_c, 0, 64, 54
1, 654038, Control_c, 0, 64, 52
1, 654053, Control_c, 0, 64, 50
1, 654076, Control_c, 0, 64, 48
1, 654090, Control_c, 0, 64, 46
1, 654103, Note_off_c, 0, 70, 53
1, 654105, Control_c, 0, 64, 43
1, 654113, Note_on_c, 0, 68, 48
1, 654120, Control_c, 0, 64, 40
1, 654135, Control_c, 0, 64, 36
1, 654149, Control_c, 0, 64, 31
1, 654160, Note_off_c, 0, 64, 51
1, 654164, Control_c, 0, 64, 26
1, 654177, Note_off_c, 0, 68, 59
1, 654179, Control_c, 0, 64, 17
1, 654189, Note_on_c, 0, 63, 47
1, 654194, Control_c, 0, 64, 0
1, 654208, Note_on_c, 0, 71, 55
1, 654284, Note_off_c, 0, 71, 58
1, 654299, Note_on_c, 0, 68, 50
1, 654342, Note_off_c, 0, 68, 56
1, 654403, Note_on_c, 0, 64, 40
1, 654413, Note_off_c, 0, 63, 36
1, 654488, Note_on_c, 0, 68, 41
1, 654551, Note_off_c, 0, 64, 51
1, 654560, Note_off_c, 0, 68, 56
1, 654573, Note_on_c, 0, 61, 39
1, 654588, Note_on_c, 0, 69, 48
1, 654653, Control_c, 0, 64, 30
1, 654667, Control_c, 0, 64, 44
1, 654681, Note_off_c, 0, 69, 47
1, 654682, Note_on_c, 0, 68, 54
1, 654682, Control_c, 0, 64, 53
1, 654697, Control_c, 0, 64, 59
1, 654713, Control_c, 0, 64, 62
1, 654728, Control_c, 0, 64, 63
1, 654739, Note_off_c, 0, 61, 48
1, 654743, Control_c, 0, 64, 64
1, 654753, Note_off_c, 0, 68, 56
1, 654756, Control_c, 0, 64, 65
1, 654764, Note_on_c, 0, 64, 42
1, 654770, Control_c, 0, 64, 65
1, 654771, Note_on_c, 0, 71, 53
1, 654785, Control_c, 0, 64, 66
1, 654792, Note_off_c, 0, 71, 62
1, 654800, Control_c, 0, 64, 65
1, 654821, Note_off_c, 0, 64, 59
1, 654823, Control_c, 0, 64, 65
1, 654838, Control_c, 0, 64, 64
1, 654852, Control_c, 0, 64, 62
1, 654860, Note_on_c, 0, 71, 69
1, 654867, Control_c, 0, 64, 59
1, 654882, Control_c, 0, 64, 55
1, 654893, Note_off_c, 0, 71, 60
1, 654897, Control_c, 0, 64, 50
1, 654912, Control_c, 0, 64, 44
1, 654926, Control_c, 0, 64, 38
1, 654941, Control_c, 0, 64, 32
1, 654953, Note_on_c, 0, 68, 53
1, 654956, Control_c, 0, 64, 25
1, 654970, Control_c, 0, 64, 13
1, 654976, Note_off_c, 0, 68, 57
1, 654985, Control_c, 0, 64, 0
1, 655041, Note_on_c, 0, 68, 59
1, 655088, Note_off_c, 0, 68, 57
1, 655140, Note_on_c, 0, 69, 50
1, 655143, Note_on_c, 0, 64, 41
1, 655196, Note_off_c, 0, 69, 54
1, 655218, Note_on_c, 0, 68, 55
1, 655301, Note_off_c, 0, 68, 55
1, 655316, Note_on_c, 0, 61, 36
1, 655319, Note_on_c, 0, 71, 54
1, 655396, Note_off_c, 0, 71, 59
1, 655416, Note_on_c, 0, 69, 50
1, 655483, Note_off_c, 0, 64, 16
1, 655524, Note_on_c, 0, 63, 43
1, 655530, Note_off_c, 0, 69, 37
1, 655602, Note_on_c, 0, 73, 53
1, 655635, Note_off_c, 0, 61, 27
1, 655703, Note_on_c, 0, 59, 41
1, 655715, Note_off_c, 0, 63, 36
1, 655716, Note_on_c, 0, 66, 45
1, 655764, Note_off_c, 0, 66, 59
1, 655800, Note_on_c, 0, 69, 48
1, 655824, Control_c, 0, 64, 29
1, 655839, Control_c, 0, 64, 41
1, 655854, Control_c, 0, 64, 48
1, 655868, Control_c, 0, 64, 53
1, 655874, Note_on_c, 0, 61, 55
1, 655883, Control_c, 0, 64, 57
1, 655886, Note_on_c, 0, 63, 46
1, 655898, Control_c, 0, 64, 60
1, 655900, Note_off_c, 0, 59, 60
1, 655906, Note_off_c, 0, 61, 65
1, 655912, Control_c, 0, 64, 62
1, 655927, Control_c, 0, 64, 64
1, 655940, Note_off_c, 0, 63, 52
1, 655942, Control_c, 0, 64, 65
1, 655957, Control_c, 0, 64, 66
1, 655972, Control_c, 0, 64, 66
1, 655975, Note_on_c, 0, 66, 49
1, 655986, Control_c, 0, 64, 67
1, 656016, Control_c, 0, 64, 67
1, 656025, Note_off_c, 0, 69, 42
1, 656028, Note_off_c, 0, 73, 13
1, 656070, Note_off_c, 0, 66, 59
1, 656092, Note_on_c, 0, 64, 54
1, 656105, Control_c, 0, 64, 67
1, 656135, Control_c, 0, 64, 66
1, 656136, Note_on_c, 0, 40, 32
1, 656162, Note_off_c, 0, 64, 48
1, 656165, Control_c, 0, 64, 66
1, 656177, Note_off_c, 0, 40, 51
1, 656179, Control_c, 0, 64, 65
1, 656194, Control_c, 0, 64, 65
1, 656206, Note_on_c, 0, 68, 55
1, 656209, Control_c, 0, 64, 64
1, 656268, Control_c, 0, 64, 64
1, 656290, Note_off_c, 0, 68, 59
1, 656308, Note_on_c, 0, 70, 55
1, 656321, Control_c, 0, 64, 63
1, 656325, Note_on_c, 0, 64, 53
1, 656350, Control_c, 0, 64, 63
1, 656395, Control_c, 0, 64, 62
1, 656410, Control_c, 0, 64, 62
1, 656412, Note_on_c, 0, 68, 63
1, 656421, Note_off_c, 0, 70, 53
1, 656425, Control_c, 0, 64, 61
1, 656439, Control_c, 0, 64, 61
1, 656454, Control_c, 0, 64, 60
1, 656469, Control_c, 0, 64, 60
1, 656509, Note_off_c, 0, 68, 58
1, 656514, Control_c, 0, 64, 59
1, 656516, Note_on_c, 0, 63, 67
1, 656517, Note_on_c, 0, 71, 59
1, 656550, Note_off_c, 0, 64, 62
1, 656573, Control_c, 0, 64, 59
1, 656603, Control_c, 0, 64, 58
1, 656603, Note_on_c, 0, 68, 57
1, 656615, Note_off_c, 0, 71, 57
1, 656632, Control_c, 0, 64, 58
1, 656696, Note_off_c, 0, 68, 62
1, 656705, Note_on_c, 0, 64, 73
1, 656721, Control_c, 0, 64, 57
1, 656750, Control_c, 0, 64, 57
1, 656791, Note_on_c, 0, 68, 67
1, 656809, Control_c, 0, 64, 56
1, 656829, Note_off_c, 0, 63, 58
1, 656854, Control_c, 0, 64, 56
1, 656869, Control_c, 0, 64, 55
1, 656876, Note_on_c, 0, 69, 72
1, 656878, Note_off_c, 0, 68, 62
1, 656879, Note_on_c, 0, 61, 71
1, 656884, Control_c, 0, 64, 55
1, 656898, Control_c, 0, 64, 54
1, 656913, Control_c, 0, 64, 54
1, 656917, Note_off_c, 0, 64, 59
1, 656928, Control_c, 0, 64, 53
1, 656943, Control_c, 0, 64, 51
1, 656958, Control_c, 0, 64, 48
1, 656965, Note_on_c, 0, 68, 73
1, 656973, Control_c, 0, 64, 45
1, 656988, Control_c, 0, 64, 43
1, 656993, Note_off_c, 0, 69, 57
1, 657001, Control_c, 0, 64, 40
1, 657016, Control_c, 0, 64, 37
1, 657031, Control_c, 0, 64, 31
1, 657046, Control_c, 0, 64, 26
1, 657068, Note_on_c, 0, 71, 69
1, 657068, Note_off_c, 0, 68, 62
1, 657068, Control_c, 0, 64, 23
1, 657069, Note_on_c, 0, 64, 61
1, 657083, Control_c, 0, 64, 21
1, 657093, Note_off_c, 0, 71, 68
1, 657098, Control_c, 0, 64, 17
1, 657103, Note_off_c, 0, 61, 57
1, 657113, Control_c, 0, 64, 13
1, 657128, Control_c, 0, 64, 0
1, 657146, Note_on_c, 0, 71, 81
1, 657184, Note_off_c, 0, 64, 52
1, 657210, Note_off_c, 0, 71, 55
1, 657231, Note_on_c, 0, 68, 72
1, 657259, Note_off_c, 0, 68, 64
1, 657321, Note_on_c, 0, 68, 62
1, 657379, Note_off_c, 0, 68, 60
1, 657409, Note_on_c, 0, 69, 61
1, 657418, Note_on_c, 0, 64, 46
1, 657480, Note_off_c, 0, 69, 59
1, 657503, Note_on_c, 0, 68, 64
1, 657587, Note_off_c, 0, 68, 56
1, 657597, Note_on_c, 0, 61, 43
1, 657602, Note_on_c, 0, 71, 58
1, 657603, Note_off_c, 0, 64, 37
1, 657669, Note_off_c, 0, 71, 62
1, 657698, Note_on_c, 0, 69, 46
1, 657784, Note_on_c, 0, 63, 47
1, 657840, Note_off_c, 0, 61, 47
1, 657846, Note_off_c, 0, 69, 37
1, 657873, Note_on_c, 0, 73, 56
1, 657893, Note_off_c, 0, 63, 59
1, 657988, Note_on_c, 0, 66, 48
1, 658054, Note_off_c, 0, 66, 51
1, 658085, Note_on_c, 0, 69, 48
1, 658180, Note_on_c, 0, 61, 44
1, 658181, Note_on_c, 0, 63, 50
1, 658212, Note_off_c, 0, 73, 18
1, 658261, Note_on_c, 0, 66, 51
1, 658321, Note_off_c, 0, 69, 31
1, 658359, Note_on_c, 0, 57, 65
1, 658403, Note_off_c, 0, 61, 61
1, 658434, Note_off_c, 0, 63, 33
1, 658440, Note_on_c, 0, 71, 56
1, 658503, Note_off_c, 0, 66, 55
1, 658535, Note_on_c, 0, 64, 58
1, 658544, Note_on_c, 0, 59, 71
1, 658561, Note_off_c, 0, 57, 65
1, 658610, Note_off_c, 0, 71, 63
1, 658611, Note_off_c, 0, 64, 64
1, 658623, Note_on_c, 0, 68, 58
1, 658723, Note_on_c, 0, 56, 72
1, 658738, Note_on_c, 0, 61, 63
1, 658744, Note_off_c, 0, 68, 53
1, 658763, Note_off_c, 0, 59, 63
1, 658824, Note_on_c, 0, 64, 50
1, 658830, Note_off_c, 0, 61, 50
1, 658896, Note_on_c, 0, 69, 61
1, 658901, Note_on_c, 0, 57, 76
1, 658902, Note_off_c, 0, 64, 57
1, 658947, Note_off_c, 0, 56, 61
1, 658994, Note_on_c, 0, 66, 60
1, 658994, Note_off_c, 0, 69, 58
1, 659090, Note_on_c, 0, 54, 65
1, 659095, Note_off_c, 0, 57, 55
1, 659100, Control_c, 0, 64, 25
1, 659115, Control_c, 0, 64, 39
1, 659122, Note_on_c, 0, 63, 50
1, 659129, Control_c, 0, 64, 50
1, 659132, Note_off_c, 0, 66, 55
1, 659144, Control_c, 0, 64, 57
1, 659159, Control_c, 0, 64, 60
1, 659174, Control_c, 0, 64, 61
1, 659175, Note_off_c, 0, 54, 65
1, 659185, Note_on_c, 0, 59, 67
1, 659189, Control_c, 0, 64, 63
1, 659203, Control_c, 0, 64, 64
1, 659215, Note_off_c, 0, 59, 67
1, 659218, Control_c, 0, 64, 66
1, 659233, Control_c, 0, 64, 68
1, 659249, Control_c, 0, 64, 71
1, 659264, Control_c, 0, 64, 72
1, 659265, Note_off_c, 0, 63, 59
1, 659278, Control_c, 0, 64, 67
1, 659293, Control_c, 0, 64, 60
1, 659316, Control_c, 0, 64, 43
1, 659331, Control_c, 0, 64, 21
1, 659345, Control_c, 0, 64, 24
1, 659349, Note_on_c, 0, 56, 47
1, 659360, Control_c, 0, 64, 38
1, 659361, Note_on_c, 0, 47, 49
1, 659364, Note_on_c, 0, 40, 50
1, 659375, Control_c, 0, 64, 52
1, 659386, Note_off_c, 0, 56, 66
1, 659387, Note_on_c, 0, 64, 63
1, 659390, Control_c, 0, 64, 59
1, 659405, Control_c, 0, 64, 63
1, 659410, Note_off_c, 0, 47, 64
1, 659415, Note_off_c, 0, 40, 64
1, 659419, Control_c, 0, 64, 65
1, 659434, Control_c, 0, 64, 67
1, 659449, Control_c, 0, 64, 69
1, 659464, Note_off_c, 0, 64, 63
1, 659464, Control_c, 0, 64, 70
1, 659483, Note_on_c, 0, 71, 69
1, 659509, Control_c, 0, 64, 70
1, 659528, Note_off_c, 0, 71, 57
1, 659539, Control_c, 0, 64, 69
1, 659553, Control_c, 0, 64, 68
1, 659568, Control_c, 0, 64, 66
1, 659572, Note_on_c, 0, 73, 77
1, 659583, Control_c, 0, 64, 62
1, 659598, Control_c, 0, 64, 54
1, 659613, Control_c, 0, 64, 39
1, 659627, Control_c, 0, 64, 0
1, 659641, Note_off_c, 0, 73, 64
1, 659650, Note_on_c, 0, 63, 48
1, 659659, Note_on_c, 0, 71, 75
1, 659677, Note_off_c, 0, 63, 57
1, 659679, Note_on_c, 0, 64, 46
1, 659702, Note_off_c, 0, 64, 59
1, 659709, Note_off_c, 0, 71, 60
1, 659751, Note_on_c, 0, 66, 68
1, 659754, Note_on_c, 0, 74, 71
1, 659787, Note_off_c, 0, 66, 58
1, 659805, Note_off_c, 0, 74, 60
1, 659835, Note_on_c, 0, 71, 66
1, 659859, Note_on_c, 0, 64, 44
1, 659879, Note_off_c, 0, 71, 55
1, 659885, Note_off_c, 0, 64, 60
1, 659942, Note_on_c, 0, 68, 59
1, 659979, Note_off_c, 0, 68, 64
1, 660013, Note_on_c, 0, 64, 52
1, 660019, Note_on_c, 0, 71, 65
1, 660036, Note_off_c, 0, 64, 57
1, 660066, Note_off_c, 0, 71, 58
1, 660131, Note_on_c, 0, 73, 68
1, 660180, Note_off_c, 0, 73, 58
1, 660206, Note_on_c, 0, 64, 51
1, 660219, Note_on_c, 0, 71, 74
1, 660249, Note_off_c, 0, 71, 64
1, 660252, Note_off_c, 0, 64, 63
1, 660319, Note_on_c, 0, 66, 66
1, 660320, Note_on_c, 0, 74, 82
1, 660347, Note_off_c, 0, 74, 64
1, 660359, Note_off_c, 0, 66, 58
1, 660402, Note_on_c, 0, 63, 59
1, 660417, Note_on_c, 0, 74, 79
1, 660423, Note_off_c, 0, 63, 59
1, 660434, Note_on_c, 0, 64, 56
1, 660443, Note_off_c, 0, 74, 64
1, 660461, Note_off_c, 0, 64, 64
1, 660505, Note_on_c, 0, 68, 77
1, 660512, Note_on_c, 0, 71, 82
1, 660529, Note_off_c, 0, 68, 68
1, 660534, Note_off_c, 0, 71, 68
1, 660595, Note_on_c, 0, 71, 81
1, 660599, Note_on_c, 0, 68, 75
1, 660633, Note_off_c, 0, 68, 62
1, 660634, Note_off_c, 0, 71, 59
1, 660687, Control_c, 0, 64, 27
1, 660690, Note_on_c, 0, 73, 79
1, 660702, Note_on_c, 0, 64, 53
1, 660702, Control_c, 0, 64, 42
1, 660717, Control_c, 0, 64, 53
1, 660723, Note_off_c, 0, 64, 60
1, 660732, Control_c, 0, 64, 60
1, 660746, Control_c, 0, 64, 64
1, 660761, Note_off_c, 0, 73, 64
1, 660761, Control_c, 0, 64, 67
1, 660765, Note_on_c, 0, 64, 58
1, 660767, Note_on_c, 0, 71, 78
1, 660775, Control_c, 0, 64, 72
1, 660786, Note_off_c, 0, 64, 59
1, 660790, Control_c, 0, 64, 78
1, 660804, Note_off_c, 0, 71, 67
1, 660812, Control_c, 0, 64, 87
1, 660827, Control_c, 0, 64, 93
1, 660842, Control_c, 0, 64, 89
1, 660857, Control_c, 0, 64, 76
1, 660872, Control_c, 0, 64, 66
1, 660887, Control_c, 0, 64, 56
1, 660890, Note_on_c, 0, 57, 57
1, 660893, Note_on_c, 0, 74, 76
1, 660901, Control_c, 0, 64, 45
1, 660902, Note_on_c, 0, 52, 55
1, 660908, Note_on_c, 0, 66, 65
1, 660916, Control_c, 0, 64, 50
1, 660931, Control_c, 0, 64, 57
1, 660932, Note_off_c, 0, 57, 62
1, 660946, Control_c, 0, 64, 62
1, 660947, Note_off_c, 0, 66, 60
1, 660961, Control_c, 0, 64, 64
1, 660970, Note_off_c, 0, 52, 65
1, 660976, Control_c, 0, 64, 67
1, 660990, Control_c, 0, 64, 70
1, 660994, Note_on_c, 0, 64, 67
1, 660994, Note_on_c, 0, 73, 79
1, 661005, Control_c, 0, 64, 73
1, 661008, Note_off_c, 0, 74, 59
1, 661020, Control_c, 0, 64, 75
1, 661025, Note_off_c, 0, 64, 65
1, 661064, Control_c, 0, 64, 75
1, 661079, Note_off_c, 0, 73, 64
1, 661081, Note_on_c, 0, 68, 84
1, 661116, Note_off_c, 0, 68, 61
1, 661140, Control_c, 0, 64, 74
1, 661154, Control_c, 0, 64, 74
1, 661164, Note_on_c, 0, 66, 78
1, 661169, Control_c, 0, 64, 73
1, 661184, Control_c, 0, 64, 72
1, 661186, Note_on_c, 0, 76, 88
1, 661199, Control_c, 0, 64, 70
1, 661201, Note_on_c, 0, 60, 35
1, 661212, Note_off_c, 0, 66, 59
1, 661213, Control_c, 0, 64, 67
1, 661228, Control_c, 0, 64, 59
1, 661234, Note_off_c, 0, 60, 47
1, 661243, Control_c, 0, 64, 39
1, 661258, Control_c, 0, 64, 0
1, 661278, Note_on_c, 0, 69, 92
1, 661280, Note_off_c, 0, 76, 64
1, 661325, Note_off_c, 0, 69, 65
1, 661354, Note_on_c, 0, 69, 75
1, 661362, Note_on_c, 0, 73, 87
1, 661391, Note_off_c, 0, 69, 65
1, 661428, Note_off_c, 0, 73, 62
1, 661429, Poly_aftertouch_c, 0, 60, 0
1, 661453, Note_on_c, 0, 66, 76
1, 661460, Note_on_c, 0, 63, 77
1, 661503, Note_off_c, 0, 66, 62
1, 661519, Note_off_c, 0, 63, 61
1, 661557, Note_on_c, 0, 66, 71
1, 661557, Note_on_c, 0, 69, 88
1, 661579, Note_off_c, 0, 66, 67
1, 661662, Note_on_c, 0, 59, 72
1, 661664, Note_on_c, 0, 52, 72
1, 661724, Note_off_c, 0, 69, 55
1, 661724, Control_c, 0, 64, 39
1, 661739, Control_c, 0, 64, 55
1, 661754, Control_c, 0, 64, 63
1, 661757, Note_on_c, 0, 75, 87
1, 661767, Note_off_c, 0, 52, 63
1, 661769, Control_c, 0, 64, 67
1, 661784, Control_c, 0, 64, 71
1, 661789, Note_on_c, 0, 63, 75
1, 661789, Note_off_c, 0, 59, 64
1, 661798, Control_c, 0, 64, 76
1, 661813, Control_c, 0, 64, 80
1, 661828, Control_c, 0, 64, 82
1, 661837, Note_off_c, 0, 63, 60
1, 661843, Control_c, 0, 64, 83
1, 661858, Note_on_c, 0, 68, 83
1, 661872, Control_c, 0, 64, 82
1, 661887, Control_c, 0, 64, 80
1, 661903, Control_c, 0, 64, 77
1, 661911, Note_off_c, 0, 68, 65
1, 661912, Note_off_c, 0, 75, 55
1, 661918, Control_c, 0, 64, 73
1, 661933, Control_c, 0, 64, 67
1, 661947, Note_on_c, 0, 71, 82
1, 661947, Control_c, 0, 64, 61
1, 661962, Control_c, 0, 64, 53
1, 661977, Control_c, 0, 64, 39
1, 661992, Control_c, 0, 64, 0
1, 662047, Note_on_c, 0, 64, 77
1, 662049, Note_on_c, 0, 61, 76
1, 662059, Note_off_c, 0, 71, 60
1, 662059, Poly_aftertouch_c, 0, 73, 0
1, 662100, Note_off_c, 0, 64, 61
1, 662111, Note_off_c, 0, 61, 54
1, 662136, Note_on_c, 0, 64, 62
1, 662136, Note_on_c, 0, 68, 75
1, 662200, Note_off_c, 0, 64, 62
1, 662222, Note_off_c, 0, 68, 61
1, 662230, Note_on_c, 0, 73, 73
1, 662234, Note_on_c, 0, 57, 67
1, 662240, Note_on_c, 0, 52, 59
1, 662320, Note_on_c, 0, 69, 75
1, 662322, Note_off_c, 0, 73, 62
1, 662335, Note_on_c, 0, 59, 76
1, 662340, Control_c, 0, 64, 12
1, 662354, Control_c, 0, 64, 38
1, 662362, Note_off_c, 0, 57, 52
1, 662369, Control_c, 0, 64, 46
1, 662384, Control_c, 0, 64, 49
1, 662392, Note_off_c, 0, 59, 64
1, 662399, Control_c, 0, 64, 49
1, 662414, Control_c, 0, 64, 50
1, 662423, Note_off_c, 0, 69, 62
1, 662427, Note_on_c, 0, 66, 75
1, 662431, Note_on_c, 0, 61, 79
1, 662448, Note_off_c, 0, 52, 45
1, 662455, Note_off_c, 0, 61, 68
1, 662485, Note_off_c, 0, 66, 64
1, 662488, Control_c, 0, 64, 49
1, 662500, Note_on_c, 0, 63, 64
1, 662503, Control_c, 0, 64, 49
1, 662517, Control_c, 0, 64, 48
1, 662532, Control_c, 0, 64, 47
1, 662544, Note_off_c, 0, 63, 62
1, 662547, Control_c, 0, 64, 45
1, 662562, Control_c, 0, 64, 43
1, 662577, Control_c, 0, 64, 42
1, 662592, Control_c, 0, 64, 41
1, 662607, Control_c, 0, 64, 40
1, 662607, Note_on_c, 0, 59, 74
1, 662614, Note_on_c, 0, 52, 68
1, 662614, Note_on_c, 0, 64, 78
1, 662622, Control_c, 0, 64, 38
1, 662636, Control_c, 0, 64, 36
1, 662651, Control_c, 0, 64, 34
1, 662666, Control_c, 0, 64, 32
1, 662681, Control_c, 0, 64, 31
1, 662690, Note_on_c, 0, 76, 87
1, 662694, Note_on_c, 0, 68, 69
1, 662696, Control_c, 0, 64, 29
1, 662706, Note_off_c, 0, 64, 61
1, 662711, Control_c, 0, 64, 27
1, 662723, Note_off_c, 0, 68, 66
1, 662726, Control_c, 0, 64, 24
1, 662741, Control_c, 0, 64, 21
1, 662756, Control_c, 0, 64, 18
1, 662770, Control_c, 0, 64, 17
1, 662783, Note_on_c, 0, 69, 64
1, 662783, Note_on_c, 0, 78, 87
1, 662785, Control_c, 0, 64, 17
1, 662789, Note_off_c, 0, 76, 63
1, 662801, Note_off_c, 0, 69, 65
1, 662830, Note_off_c, 0, 59, 58
1, 662867, Note_on_c, 0, 68, 75
1, 662867, Note_off_c, 0, 78, 56
1, 662869, Note_on_c, 0, 64, 68
1, 662875, Note_on_c, 0, 76, 77
1, 662900, Note_off_c, 0, 64, 62
1, 662908, Note_off_c, 0, 68, 61
1, 662933, Control_c, 0, 64, 17
1, 662944, Note_off_c, 0, 76, 64
1, 662948, Control_c, 0, 64, 19
1, 662963, Control_c, 0, 64, 20
1, 662977, Control_c, 0, 64, 21
1, 662980, Note_on_c, 0, 71, 68
1, 662986, Note_on_c, 0, 80, 80
1, 662988, Note_on_c, 0, 63, 64
1, 662993, Control_c, 0, 64, 21
1, 663008, Control_c, 0, 64, 22
1, 663038, Control_c, 0, 64, 23
1, 663039, Note_off_c, 0, 63, 62
1, 663040, Note_off_c, 0, 71, 64
1, 663068, Note_off_c, 0, 80, 61
1, 663080, Note_on_c, 0, 68, 75
1, 663090, Control_c, 0, 64, 23
1, 663090, Note_on_c, 0, 76, 65
1, 663093, Note_on_c, 0, 64, 68
1, 663129, Note_off_c, 0, 64, 63
1, 663145, Note_off_c, 0, 68, 60
1, 663182, Note_off_c, 0, 76, 60
1, 663188, Note_on_c, 0, 61, 66
1, 663223, Control_c, 0, 64, 24
1, 663225, Note_off_c, 0, 61, 61
1, 663238, Control_c, 0, 64, 24
1, 663252, Control_c, 0, 64, 25
1, 663260, Note_on_c, 0, 68, 72
1, 663262, Note_on_c, 0, 76, 74
1, 663267, Control_c, 0, 64, 26
1, 663268, Note_on_c, 0, 64, 62
1, 663282, Control_c, 0, 64, 26
1, 663295, Note_off_c, 0, 64, 65
1, 663304, Note_off_c, 0, 68, 60
1, 663308, Note_off_c, 0, 76, 61
1, 663312, Control_c, 0, 64, 27
1, 663341, Note_on_c, 0, 78, 91
1, 663430, Note_on_c, 0, 68, 78
1, 663433, Note_on_c, 0, 76, 83
1, 663435, Note_on_c, 0, 64, 56
1, 663445, Note_off_c, 0, 78, 64
1, 663459, Note_off_c, 0, 68, 60
1, 663466, Note_off_c, 0, 64, 66
1, 663492, Note_off_c, 0, 76, 63
1, 663532, Note_on_c, 0, 63, 73
1, 663532, Note_on_c, 0, 80, 77
1, 663534, Note_on_c, 0, 71, 74
1, 663555, Note_off_c, 0, 80, 70
1, 663565, Note_off_c, 0, 63, 61
1, 663568, Note_off_c, 0, 71, 65
1, 663614, Note_on_c, 0, 71, 75
1, 663617, Note_on_c, 0, 80, 83
1, 663621, Note_on_c, 0, 64, 67
1, 663650, Note_off_c, 0, 64, 67
1, 663659, Note_off_c, 0, 71, 64
1, 663671, Note_off_c, 0, 80, 63
1, 663713, Note_on_c, 0, 61, 73
1, 663718, Note_on_c, 0, 68, 82
1, 663721, Note_on_c, 0, 76, 85
1, 663738, Note_off_c, 0, 61, 67
1, 663750, Note_off_c, 0, 68, 61
1, 663753, Note_off_c, 0, 76, 62
1, 663802, Note_on_c, 0, 61, 77
1, 663813, Note_on_c, 0, 76, 86
1, 663820, Note_on_c, 0, 68, 78
1, 663845, Note_off_c, 0, 68, 68
1, 663854, Note_off_c, 0, 76, 64
1, 663858, Note_off_c, 0, 61, 45
1, 663904, Note_on_c, 0, 78, 88
1, 663911, Note_on_c, 0, 64, 56
1, 663932, Note_off_c, 0, 64, 60
1, 663978, Note_on_c, 0, 68, 86
1, 663982, Note_on_c, 0, 76, 79
1, 663993, Note_off_c, 0, 78, 61
1, 664002, Note_on_c, 0, 64, 55
1, 664026, Note_off_c, 0, 64, 59
1, 664026, Note_off_c, 0, 68, 57
1, 664032, Note_off_c, 0, 76, 63
1, 664064, Note_on_c, 0, 71, 81
1, 664070, Note_on_c, 0, 80, 79
1, 664082, Note_on_c, 0, 63, 71
1, 664114, Note_off_c, 0, 71, 62
1, 664135, Note_off_c, 0, 52, 44
1, 664140, Note_off_c, 0, 63, 62
1, 664162, Note_on_c, 0, 69, 77
1, 664165, Note_on_c, 0, 78, 78
1, 664166, Note_on_c, 0, 64, 69
1, 664168, Note_off_c, 0, 80, 63
1, 664211, Note_off_c, 0, 64, 62
1, 664255, Note_on_c, 0, 52, 68
1, 664260, Note_on_c, 0, 61, 76
1, 664288, Note_off_c, 0, 78, 62
1, 664309, Note_off_c, 0, 69, 60
1, 664317, Note_off_c, 0, 52, 65
1, 664330, Note_off_c, 0, 61, 56
1, 664346, Note_on_c, 0, 63, 76
1, 664348, Note_on_c, 0, 81, 82
1, 664351, Note_on_c, 0, 73, 78
1, 664369, Note_off_c, 0, 63, 69
1, 664401, Note_off_c, 0, 81, 63
1, 664433, Note_on_c, 0, 66, 80
1, 664442, Note_on_c, 0, 75, 91
1, 664452, Note_off_c, 0, 73, 64
1, 664492, Note_off_c, 0, 66, 61
1, 664527, Note_on_c, 0, 61, 76
1, 664532, Note_on_c, 0, 78, 91
1, 664563, Note_off_c, 0, 75, 48
1, 664622, Note_on_c, 0, 63, 78
1, 664622, Note_off_c, 0, 61, 62
1, 664622, Note_on_c, 0, 54, 73
1, 664626, Note_on_c, 0, 71, 88
1, 664634, Note_off_c, 0, 78, 59
1, 664675, Note_off_c, 0, 63, 63
1, 664703, Note_on_c, 0, 57, 71
1, 664708, Note_on_c, 0, 75, 85
1, 664715, Note_off_c, 0, 54, 64
1, 664718, Note_on_c, 0, 66, 81
1, 664727, Note_off_c, 0, 57, 67
1, 664748, Note_off_c, 0, 71, 57
1, 664766, Note_off_c, 0, 66, 62
1, 664798, Note_on_c, 0, 47, 81
1, 664806, Note_off_c, 0, 75, 55
1, 664869, Note_off_c, 0, 47, 43
1, 664891, Note_on_c, 0, 51, 84
1, 664892, Note_on_c, 0, 71, 83
1, 664896, Note_on_c, 0, 80, 83
1, 664935, Note_off_c, 0, 80, 62
1, 664938, Note_off_c, 0, 51, 65
1, 664991, Note_on_c, 0, 64, 77
1, 664993, Note_on_c, 0, 73, 88
1, 665011, Note_off_c, 0, 71, 62
1, 665022, Note_on_c, 0, 68, 63
1, 665051, Note_off_c, 0, 73, 53
1, 665063, Note_off_c, 0, 68, 58
1, 665072, Note_on_c, 0, 59, 81
1, 665072, Note_off_c, 0, 64, 56
1, 665076, Control_c, 0, 64, 26
1, 665087, Note_on_c, 0, 76, 91
1, 665091, Control_c, 0, 64, 0
1, 665163, Note_off_c, 0, 59, 60
1, 665167, Note_off_c, 0, 76, 54
1, 665182, Note_on_c, 0, 52, 76
1, 665191, Note_on_c, 0, 69, 94
1, 665191, Note_on_c, 0, 61, 78
1, 665260, Note_off_c, 0, 61, 57
1, 665268, Control_c, 0, 64, 15
1, 665283, Control_c, 0, 64, 35
1, 665299, Note_on_c, 0, 56, 77
1, 665302, Note_off_c, 0, 52, 65
1, 665303, Note_on_c, 0, 64, 76
1, 665304, Note_on_c, 0, 73, 90
1, 665305, Control_c, 0, 64, 49
1, 665309, Note_off_c, 0, 69, 65
1, 665320, Control_c, 0, 64, 57
1, 665325, Note_off_c, 0, 56, 69
1, 665330, Note_off_c, 0, 64, 64
1, 665334, Control_c, 0, 64, 61
1, 665349, Control_c, 0, 64, 63
1, 665364, Control_c, 0, 64, 63
1, 665379, Control_c, 0, 64, 64
1, 665383, Note_off_c, 0, 73, 62
1, 665394, Control_c, 0, 64, 65
1, 665414, Note_on_c, 0, 69, 75
1, 665422, Note_on_c, 0, 45, 69
1, 665424, Note_on_c, 0, 78, 86
1, 665424, Control_c, 0, 64, 62
1, 665439, Control_c, 0, 64, 43
1, 665453, Control_c, 0, 64, 0
1, 665514, Note_off_c, 0, 78, 58
1, 665546, Note_on_c, 0, 66, 73
1, 665546, Note_on_c, 0, 75, 76
1, 665548, Note_on_c, 0, 47, 69
1, 665553, Note_off_c, 0, 69, 64
1, 665558, Note_off_c, 0, 45, 58
1, 665568, Note_off_c, 0, 75, 69
1, 665571, Control_c, 0, 64, 39
1, 665573, Note_off_c, 0, 66, 68
1, 665573, Note_off_c, 0, 47, 64
1, 665586, Control_c, 0, 64, 51
1, 665601, Control_c, 0, 64, 59
1, 665616, Control_c, 0, 64, 62
1, 665631, Control_c, 0, 64, 64
1, 665645, Control_c, 0, 64, 65
1, 665660, Control_c, 0, 64, 66
1, 665705, Control_c, 0, 64, 65
1, 665719, Control_c, 0, 64, 64
1, 665734, Control_c, 0, 64, 59
1, 665734, Control_c, 0, 66, 0
1, 665749, Control_c, 0, 64, 33
1, 665750, Note_on_c, 0, 36, 53
1, 665753, Note_on_c, 0, 52, 63
1, 665758, Note_on_c, 0, 43, 51
1, 665764, Control_c, 0, 64, 0
1, 665838, Control_c, 0, 66, 127
1, 665948, Note_off_c, 0, 36, 61
1, 665979, Note_off_c, 0, 52, 65
1, 665989, Note_off_c, 0, 43, 59
1, 666523, Note_on_c, 0, 76, 70
1, 666559, Note_off_c, 0, 76, 66
1, 666624, Note_on_c, 0, 79, 67
1, 666678, Note_off_c, 0, 79, 42
1, 666691, Note_on_c, 0, 83, 75
1, 666715, Note_off_c, 0, 83, 70
1, 666812, Note_on_c, 0, 59, 45
1, 666839, Note_on_c, 0, 87, 58
1, 666907, Control_c, 0, 64, 35
1, 666922, Control_c, 0, 64, 49
1, 666937, Control_c, 0, 64, 59
1, 666952, Control_c, 0, 64, 64
1, 666967, Control_c, 0, 64, 67
1, 666970, Note_on_c, 0, 63, 53
1, 666981, Control_c, 0, 64, 70
1, 666985, Note_off_c, 0, 87, 64
1, 666996, Control_c, 0, 64, 75
1, 667011, Control_c, 0, 64, 81
1, 667025, Control_c, 0, 64, 87
1, 667040, Control_c, 0, 64, 91
1, 667055, Control_c, 0, 64, 93
1, 667070, Control_c, 0, 64, 94
1, 667071, Note_on_c, 0, 66, 55
1, 667085, Control_c, 0, 64, 95
1, 667099, Control_c, 0, 64, 96
1, 667114, Control_c, 0, 64, 98
1, 667129, Control_c, 0, 64, 102
1, 667144, Control_c, 0, 64, 105
1, 667159, Control_c, 0, 64, 109
1, 667168, Note_on_c, 0, 90, 69
1, 667174, Control_c, 0, 64, 113
1, 667189, Control_c, 0, 64, 118
1, 667198, Note_off_c, 0, 90, 64
1, 667203, Control_c, 0, 64, 121
1, 667218, Control_c, 0, 64, 127
1, 667276, Note_on_c, 0, 70, 55
1, 667336, Note_off_c, 0, 70, 49
1, 667395, Note_off_c, 0, 66, 61
1, 667397, Note_off_c, 0, 63, 58
1, 667402, Note_off_c, 0, 59, 37
1, 667419, Note_on_c, 0, 71, 75
1, 667425, Note_on_c, 0, 103, 107
1, 667425, Control_c, 0, 64, 109
1, 667427, Note_on_c, 0, 91, 103
1, 667433, Note_off_c, 0, 71, 69
1, 667440, Control_c, 0, 64, 87
1, 667449, Note_on_c, 0, 102, 66
1, 667455, Control_c, 0, 64, 70
1, 667466, Note_off_c, 0, 91, 64
1, 667469, Note_off_c, 0, 102, 41
1, 667470, Control_c, 0, 64, 56
1, 667479, Note_off_c, 0, 103, 66
1, 667484, Control_c, 0, 64, 38
1, 667500, Control_c, 0, 64, 33
1, 667564, Note_on_c, 0, 100, 77
1, 667567, Control_c, 0, 64, 34
1, 667582, Control_c, 0, 64, 35
1, 667596, Control_c, 0, 64, 35
1, 667611, Control_c, 0, 64, 36
1, 667619, Note_off_c, 0, 100, 62
1, 667626, Control_c, 0, 64, 36
1, 667669, Note_on_c, 0, 96, 58
1, 667670, Control_c, 0, 64, 37
1, 667701, Note_off_c, 0, 96, 67
1, 667731, Note_on_c, 0, 82, 46
1, 667759, Note_on_c, 0, 83, 61
1, 667777, Note_off_c, 0, 82, 62
1, 667779, Note_on_c, 0, 84, 83
1, 667785, Note_off_c, 0, 83, 67
1, 667797, Note_on_c, 0, 87, 101
1, 667797, Note_off_c, 0, 84, 73
1, 667798, Note_on_c, 0, 99, 106
1, 667832, Note_on_c, 0, 97, 41
1, 667832, Note_off_c, 0, 87, 66
1, 667836, Note_off_c, 0, 99, 66
1, 667867, Note_off_c, 0, 97, 47
1, 667890, Note_on_c, 0, 95, 81
1, 667892, Control_c, 0, 64, 37
1, 667907, Control_c, 0, 64, 38
1, 667952, Control_c, 0, 64, 38
1, 667967, Note_off_c, 0, 95, 63
1, 667996, Note_on_c, 0, 90, 65
1, 668011, Control_c, 0, 64, 39
1, 668024, Note_off_c, 0, 90, 68
1, 668026, Control_c, 0, 64, 39
1, 668044, Note_on_c, 0, 76, 62
1, 668055, Control_c, 0, 64, 40
1, 668070, Control_c, 0, 64, 40
1, 668080, Note_off_c, 0, 76, 66
1, 668085, Note_on_c, 0, 77, 75
1, 668100, Control_c, 0, 64, 41
1, 668109, Note_on_c, 0, 78, 97
1, 668112, Note_off_c, 0, 77, 68
1, 668125, Note_off_c, 0, 78, 73
1, 668129, Note_on_c, 0, 84, 97
1, 668131, Note_on_c, 0, 96, 106
1, 668167, Note_off_c, 0, 96, 64
1, 668170, Note_off_c, 0, 84, 64
1, 668173, Control_c, 0, 64, 41
1, 668188, Control_c, 0, 64, 42
1, 668203, Control_c, 0, 64, 43
1, 668229, Note_on_c, 0, 92, 82
1, 668232, Control_c, 0, 64, 43
1, 668304, Note_off_c, 0, 92, 63
1, 668348, Note_on_c, 0, 87, 60
1, 668360, Control_c, 0, 64, 44
1, 668367, Note_off_c, 0, 87, 65
1, 668375, Control_c, 0, 64, 44
1, 668390, Control_c, 0, 64, 45
1, 668399, Note_on_c, 0, 71, 56
1, 668405, Control_c, 0, 64, 46
1, 668419, Note_off_c, 0, 71, 63
1, 668419, Control_c, 0, 64, 46
1, 668422, Note_on_c, 0, 72, 68
1, 668434, Control_c, 0, 64, 47
1, 668449, Control_c, 0, 64, 48
1, 668454, Note_off_c, 0, 72, 66
1, 668457, Note_on_c, 0, 73, 85
1, 668464, Note_on_c, 0, 81, 100
1, 668467, Note_on_c, 0, 93, 102
1, 668477, Note_off_c, 0, 73, 70
1, 668503, Note_off_c, 0, 81, 68
1, 668503, Note_off_c, 0, 93, 67
1, 668523, Control_c, 0, 64, 48
1, 668578, Note_on_c, 0, 89, 72
1, 668582, Control_c, 0, 64, 49
1, 668638, Note_off_c, 0, 89, 59
1, 668664, Note_on_c, 0, 84, 59
1, 668689, Note_off_c, 0, 84, 65
1, 668700, Control_c, 0, 64, 49
1, 668715, Control_c, 0, 64, 50
1, 668730, Control_c, 0, 64, 51
1, 668733, Note_on_c, 0, 66, 41
1, 668744, Note_on_c, 0, 68, 58
1, 668745, Control_c, 0, 64, 51
1, 668759, Control_c, 0, 64, 52
1, 668774, Control_c, 0, 64, 53
1, 668780, Note_off_c, 0, 68, 64
1, 668783, Note_off_c, 0, 66, 64
1, 668800, Note_on_c, 0, 69, 67
1, 668810, Note_on_c, 0, 75, 94
1, 668813, Note_on_c, 0, 87, 93
1, 668817, Note_off_c, 0, 69, 65
1, 668831, Note_off_c, 0, 75, 68
1, 668849, Note_off_c, 0, 87, 64
1, 668863, Control_c, 0, 64, 52
1, 668878, Control_c, 0, 64, 52
1, 668893, Control_c, 0, 64, 51
1, 668903, Note_on_c, 0, 84, 76
1, 668923, Control_c, 0, 64, 51
1, 668965, Note_off_c, 0, 84, 62
1, 668967, Control_c, 0, 64, 50
1, 669016, Note_on_c, 0, 78, 68
1, 669042, Note_off_c, 0, 78, 66
1, 669249, Note_on_c, 0, 62, 46
1, 669253, Note_on_c, 0, 83, 70
1, 669259, Note_on_c, 0, 71, 63
1, 669264, Note_on_c, 0, 63, 39
1, 669276, Note_off_c, 0, 62, 54
1, 669288, Note_off_c, 0, 63, 53
1, 669290, Note_off_c, 0, 71, 64
1, 669299, Note_on_c, 0, 64, 39
1, 669325, Note_off_c, 0, 83, 62
1, 669326, Note_off_c, 0, 64, 57
1, 669355, Note_on_c, 0, 79, 67
1, 669416, Note_off_c, 0, 79, 57
1, 669434, Note_on_c, 0, 76, 64
1, 669478, Note_off_c, 0, 76, 61
1, 669523, Note_on_c, 0, 59, 47
1, 669536, Note_on_c, 0, 72, 64
1, 669558, Note_off_c, 0, 59, 59
1, 669566, Note_off_c, 0, 72, 67
1, 669627, Note_on_c, 0, 60, 54
1, 669635, Note_on_c, 0, 76, 60
1, 669648, Note_off_c, 0, 60, 62
1, 669684, Note_off_c, 0, 76, 58
1, 669686, Control_c, 0, 66, 0
1, 669746, Control_c, 0, 64, 50
1, 669749, Note_on_c, 0, 77, 57
1, 669760, Control_c, 0, 64, 48
1, 669775, Control_c, 0, 64, 46
1, 669797, Control_c, 0, 64, 43
1, 669812, Control_c, 0, 64, 42
1, 669827, Control_c, 0, 64, 41
1, 669842, Control_c, 0, 64, 42
1, 669845, Note_off_c, 0, 77, 50
1, 669856, Control_c, 0, 64, 46
1, 669856, Control_c, 0, 67, 42
1, 669871, Control_c, 0, 64, 54
1, 669871, Control_c, 0, 67, 121
1, 669886, Note_on_c, 0, 79, 54
1, 669886, Control_c, 0, 64, 61
1, 669886, Control_c, 0, 67, 127
1, 669902, Control_c, 0, 64, 63
1, 669911, Note_on_c, 0, 48, 37
1, 669916, Control_c, 0, 64, 66
1, 669931, Control_c, 0, 64, 69
1, 669946, Control_c, 0, 64, 74
1, 669961, Control_c, 0, 64, 81
1, 669976, Control_c, 0, 64, 89
1, 669991, Control_c, 0, 64, 100
1, 670005, Note_off_c, 0, 48, 39
1, 670006, Control_c, 0, 64, 127
1, 670028, Note_off_c, 0, 79, 56
1, 670032, Note_on_c, 0, 57, 45
1, 670089, Note_on_c, 0, 81, 57
1, 670143, Note_on_c, 0, 64, 36
1, 670152, Note_on_c, 0, 65, 40
1, 670167, Note_off_c, 0, 57, 57
1, 670169, Poly_aftertouch_c, 0, 76, 127
1, 670184, Note_off_c, 0, 81, 61
1, 670200, Poly_aftertouch_c, 0, 76, 0
1, 670217, Note_on_c, 0, 71, 46
1, 670241, Note_off_c, 0, 64, 58
1, 670253, Note_off_c, 0, 71, 65
1, 670253, Note_off_c, 0, 65, 57
1, 670313, Note_on_c, 0, 81, 44
1, 670336, Note_off_c, 0, 81, 58
1, 670413, Note_on_c, 0, 84, 60
1, 670435, Note_off_c, 0, 84, 53
1, 670485, Note_on_c, 0, 96, 70
1, 670509, Note_on_c, 0, 91, 61
1, 670519, Note_on_c, 0, 74, 41
1, 670552, Note_on_c, 0, 62, 34
1, 670554, Note_off_c, 0, 96, 65
1, 670555, Note_on_c, 0, 69, 44
1, 670569, Note_off_c, 0, 74, 64
1, 670577, Note_off_c, 0, 91, 64
1, 670588, Note_off_c, 0, 69, 65
1, 670608, Note_on_c, 0, 84, 48
1, 670612, Note_off_c, 0, 62, 63
1, 670629, Note_off_c, 0, 84, 58
1, 670700, Note_on_c, 0, 83, 75
1, 670725, Note_on_c, 0, 77, 63
1, 670791, Note_off_c, 0, 77, 62
1, 670798, Note_on_c, 0, 48, 53
1, 670806, Note_off_c, 0, 83, 53
1, 670814, Control_c, 0, 64, 95
1, 670816, Note_on_c, 0, 72, 57
1, 670829, Control_c, 0, 64, 67
1, 670844, Control_c, 0, 64, 52
1, 670852, Note_on_c, 0, 55, 53
1, 670867, Note_off_c, 0, 48, 60
1, 670873, Control_c, 0, 64, 59
1, 670874, Note_off_c, 0, 72, 52
1, 670888, Control_c, 0, 64, 65
1, 670903, Control_c, 0, 64, 72
1, 670906, Note_on_c, 0, 79, 81
1, 670918, Control_c, 0, 64, 89
1, 670924, Note_on_c, 0, 74, 61
1, 670933, Control_c, 0, 64, 127
1, 670947, Note_off_c, 0, 55, 60
1, 670965, Note_on_c, 0, 64, 27
1, 670971, Note_on_c, 0, 62, 43
1, 671001, Note_off_c, 0, 74, 58
1, 671013, Note_off_c, 0, 79, 63
1, 671016, Note_off_c, 0, 62, 57
1, 671026, Note_off_c, 0, 64, 59
1, 671033, Note_on_c, 0, 69, 52
1, 671068, Note_off_c, 0, 69, 65
1, 671115, Note_on_c, 0, 79, 55
1, 671135, Note_off_c, 0, 79, 64
1, 671204, Note_on_c, 0, 83, 69
1, 671256, Note_off_c, 0, 83, 62
1, 671275, Note_on_c, 0, 72, 44
1, 671276, Note_on_c, 0, 60, 43
1, 671278, Note_on_c, 0, 95, 85
1, 671292, Note_on_c, 0, 67, 46
1, 671304, Note_on_c, 0, 89, 64
1, 671355, Note_off_c, 0, 95, 65
1, 671356, Note_off_c, 0, 72, 63
1, 671369, Note_off_c, 0, 67, 62
1, 671379, Note_off_c, 0, 89, 64
1, 671387, Note_on_c, 0, 83, 65
1, 671405, Note_off_c, 0, 60, 64
1, 671415, Note_off_c, 0, 83, 67
1, 671485, Note_on_c, 0, 81, 84
1, 671500, Note_on_c, 0, 76, 70
1, 671564, Note_off_c, 0, 76, 60
1, 671568, Note_off_c, 0, 81, 62
1, 671594, Note_on_c, 0, 71, 64
1, 671605, Note_on_c, 0, 48, 52
1, 671632, Note_on_c, 0, 53, 56
1, 671633, Note_off_c, 0, 71, 60
1, 671636, Control_c, 0, 64, 85
1, 671651, Control_c, 0, 64, 65
1, 671666, Control_c, 0, 64, 37
1, 671672, Note_on_c, 0, 77, 87
1, 671681, Control_c, 0, 64, 40
1, 671682, Note_on_c, 0, 72, 77
1, 671696, Control_c, 0, 64, 52
1, 671697, Note_on_c, 0, 60, 43
1, 671705, Note_on_c, 0, 62, 39
1, 671711, Control_c, 0, 64, 62
1, 671725, Control_c, 0, 64, 68
1, 671740, Control_c, 0, 64, 78
1, 671741, Note_off_c, 0, 48, 61
1, 671755, Control_c, 0, 64, 106
1, 671761, Note_off_c, 0, 72, 58
1, 671764, Note_off_c, 0, 53, 63
1, 671765, Note_off_c, 0, 77, 61
1, 671770, Control_c, 0, 64, 127
1, 671789, Note_on_c, 0, 67, 52
1, 671806, Note_off_c, 0, 60, 62
1, 671810, Note_off_c, 0, 62, 61
1, 671824, Note_off_c, 0, 67, 65
1, 671865, Note_on_c, 0, 77, 70
1, 671872, Note_on_c, 0, 72, 30
1, 671888, Note_off_c, 0, 77, 69
1, 671902, Note_off_c, 0, 72, 54
1, 671960, Note_on_c, 0, 81, 70
1, 672005, Note_off_c, 0, 81, 56
1, 672019, Note_on_c, 0, 65, 42
1, 672024, Note_on_c, 0, 59, 51
1, 672027, Note_on_c, 0, 71, 54
1, 672040, Note_on_c, 0, 93, 80
1, 672048, Note_on_c, 0, 88, 75
1, 672098, Note_off_c, 0, 93, 67
1, 672102, Note_off_c, 0, 71, 60
1, 672117, Note_off_c, 0, 65, 62
1, 672117, Note_off_c, 0, 88, 64
1, 672127, Note_on_c, 0, 81, 68
1, 672141, Note_off_c, 0, 59, 62
1, 672155, Note_off_c, 0, 81, 68
1, 672162, Control_c, 0, 67, 88
1, 672177, Control_c, 0, 67, 24
1, 672192, Control_c, 0, 67, 0
1, 672232, Note_on_c, 0, 79, 68
1, 672235, Note_on_c, 0, 74, 69
1, 672279, Note_off_c, 0, 79, 62
1, 672279, Note_off_c, 0, 74, 60
1, 672323, Note_on_c, 0, 67, 53
1, 672326, Control_c, 0, 64, 94
1, 672341, Control_c, 0, 64, 67
1, 672344, Note_on_c, 0, 69, 42
1, 672356, Control_c, 0, 64, 41
1, 672369, Note_on_c, 0, 52, 61
1, 672369, Note_off_c, 0, 67, 64
1, 672371, Control_c, 0, 64, 0
1, 672374, Note_off_c, 0, 69, 50
1, 672385, Control_c, 0, 64, 32
1, 672387, Note_on_c, 0, 59, 47
1, 672393, Note_on_c, 0, 64, 63
1, 672394, Note_off_c, 0, 52, 65
1, 672395, Note_on_c, 0, 76, 63
1, 672400, Control_c, 0, 64, 53
1, 672414, Note_off_c, 0, 59, 53
1, 672415, Control_c, 0, 64, 64
1, 672422, Note_off_c, 0, 64, 65
1, 672422, Note_off_c, 0, 76, 65
1, 672430, Control_c, 0, 64, 71
1, 672444, Control_c, 0, 64, 82
1, 672459, Control_c, 0, 64, 103
1, 672474, Control_c, 0, 64, 127
1, 672485, Note_on_c, 0, 83, 78
1, 672492, Note_on_c, 0, 64, 63
1, 672539, Note_off_c, 0, 83, 61
1, 672550, Note_on_c, 0, 65, 72
1, 672557, Note_off_c, 0, 64, 61
1, 672564, Note_on_c, 0, 84, 87
1, 672587, Note_off_c, 0, 65, 62
1, 672642, Note_off_c, 0, 84, 59
1, 672644, Note_on_c, 0, 86, 89
1, 672649, Note_on_c, 0, 67, 75
1, 672667, Control_c, 0, 64, 93
1, 672678, Note_off_c, 0, 67, 63
1, 672680, Note_off_c, 0, 86, 63
1, 672682, Control_c, 0, 64, 63
1, 672697, Control_c, 0, 64, 0
1, 672733, Note_on_c, 0, 88, 95
1, 672734, Note_on_c, 0, 83, 97
1, 672742, Note_on_c, 0, 64, 67
1, 672747, Note_on_c, 0, 69, 78
1, 672756, Control_c, 0, 64, 47
1, 672771, Control_c, 0, 64, 68
1, 672792, Note_off_c, 0, 64, 56
1, 672793, Control_c, 0, 64, 90
1, 672808, Control_c, 0, 64, 127
1, 672828, Note_off_c, 0, 69, 58
1, 672831, Note_off_c, 0, 83, 61
1, 672837, Note_on_c, 0, 77, 72
1, 672840, Note_off_c, 0, 88, 64
1, 672876, Note_on_c, 0, 74, 31
1, 672891, Note_off_c, 0, 77, 62
1, 672908, Note_on_c, 0, 64, 60
1, 672909, Note_off_c, 0, 74, 43
1, 672921, Note_on_c, 0, 88, 62
1, 672938, Note_off_c, 0, 64, 64
1, 672944, Poly_aftertouch_c, 0, 69, 127
1, 672947, Note_off_c, 0, 88, 66
1, 672974, Poly_aftertouch_c, 0, 69, 0
1, 673010, Note_on_c, 0, 91, 72
1, 673065, Note_on_c, 0, 60, 3
1, 673076, Note_off_c, 0, 91, 63
1, 673095, Note_on_c, 0, 96, 91
1, 673101, Note_on_c, 0, 103, 103
1, 673103, Note_off_c, 0, 60, 33
1, 673103, Note_on_c, 0, 48, 61
1, 673126, Note_on_c, 0, 53, 40
1, 673135, Note_off_c, 0, 48, 63
1, 673157, Note_off_c, 0, 53, 53
1, 673157, Note_off_c, 0, 103, 66
1, 673178, Note_off_c, 0, 96, 66
1, 673180, Note_on_c, 0, 91, 80
1, 673204, Note_off_c, 0, 91, 69
1, 673282, Note_on_c, 0, 69, 71
1, 673285, Note_on_c, 0, 64, 62
1, 673286, Note_on_c, 0, 84, 90
1, 673286, Note_on_c, 0, 89, 93
1, 673314, Note_off_c, 0, 69, 66
1, 673359, Note_off_c, 0, 64, 60
1, 673377, Note_off_c, 0, 89, 62
1, 673378, Note_on_c, 0, 79, 70
1, 673389, Note_off_c, 0, 84, 62
1, 673416, Note_off_c, 0, 79, 64
1, 673445, Control_c, 0, 64, 109
1, 673460, Control_c, 0, 64, 69
1, 673462, Note_on_c, 0, 81, 97
1, 673462, Note_on_c, 0, 86, 98
1, 673465, Note_on_c, 0, 62, 71
1, 673466, Note_on_c, 0, 67, 68
1, 673475, Control_c, 0, 64, 30
1, 673490, Control_c, 0, 64, 0
1, 673505, Control_c, 0, 64, 23
1, 673520, Control_c, 0, 64, 55
1, 673541, Control_c, 0, 64, 65
1, 673547, Note_off_c, 0, 62, 60
1, 673549, Note_off_c, 0, 67, 59
1, 673556, Control_c, 0, 64, 75
1, 673571, Control_c, 0, 64, 99
1, 673577, Note_off_c, 0, 81, 61
1, 673580, Note_on_c, 0, 76, 74
1, 673582, Note_off_c, 0, 86, 62
1, 673586, Control_c, 0, 64, 127
1, 673642, Note_off_c, 0, 76, 63
1, 673663, Note_on_c, 0, 62, 59
1, 673668, Note_on_c, 0, 86, 74
1, 673675, Note_on_c, 0, 81, 42
1, 673692, Note_off_c, 0, 86, 69
1, 673698, Note_off_c, 0, 62, 64
1, 673703, Note_off_c, 0, 81, 56
1, 673773, Note_on_c, 0, 59, 58
1, 673779, Note_on_c, 0, 89, 63
1, 673807, Note_off_c, 0, 59, 64
1, 673815, Note_off_c, 0, 89, 64
1, 673842, Note_on_c, 0, 95, 93
1, 673844, Note_on_c, 0, 101, 103
1, 673846, Note_on_c, 0, 47, 69
1, 673851, Note_on_c, 0, 52, 63
1, 673875, Note_off_c, 0, 47, 63
1, 673888, Note_off_c, 0, 52, 65
1, 673911, Note_off_c, 0, 101, 66
1, 673920, Note_on_c, 0, 59, 25
1, 673931, Note_on_c, 0, 89, 78
1, 673931, Note_off_c, 0, 95, 66
1, 673952, Note_off_c, 0, 59, 51
1, 673955, Note_off_c, 0, 89, 69
1, 674026, Note_on_c, 0, 67, 71
1, 674029, Note_on_c, 0, 88, 94
1, 674032, Note_on_c, 0, 83, 98
1, 674032, Note_on_c, 0, 62, 66
1, 674122, Note_off_c, 0, 62, 60
1, 674131, Note_on_c, 0, 77, 68
1, 674131, Note_off_c, 0, 67, 61
1, 674131, Note_off_c, 0, 88, 64
1, 674137, Note_off_c, 0, 83, 63
1, 674161, Note_off_c, 0, 77, 66
1, 674194, Control_c, 0, 64, 77
1, 674209, Control_c, 0, 64, 51
1, 674210, Note_on_c, 0, 84, 100
1, 674211, Note_on_c, 0, 79, 99
1, 674212, Note_on_c, 0, 60, 76
1, 674213, Note_on_c, 0, 65, 80
1, 674225, Control_c, 0, 64, 0
1, 674239, Control_c, 0, 64, 11
1, 674254, Control_c, 0, 64, 48
1, 674269, Control_c, 0, 64, 64
1, 674286, Note_off_c, 0, 65, 53
1, 674291, Control_c, 0, 64, 73
1, 674292, Note_off_c, 0, 60, 58
1, 674306, Control_c, 0, 64, 98
1, 674316, Note_off_c, 0, 84, 61
1, 674321, Control_c, 0, 64, 127
1, 674322, Note_off_c, 0, 79, 64
1, 674329, Note_on_c, 0, 74, 69
1, 674384, Note_off_c, 0, 74, 62
1, 674401, Note_on_c, 0, 60, 78
1, 674402, Note_on_c, 0, 84, 93
1, 674406, Note_on_c, 0, 79, 56
1, 674425, Note_off_c, 0, 79, 63
1, 674431, Note_off_c, 0, 60, 66
1, 674432, Note_off_c, 0, 84, 64
1, 674497, Note_on_c, 0, 88, 83
1, 674522, Note_on_c, 0, 57, 53
1, 674560, Note_off_c, 0, 57, 64
1, 674562, Note_off_c, 0, 88, 65
1, 674580, Note_on_c, 0, 100, 105
1, 674581, Note_on_c, 0, 50, 75
1, 674583, Note_on_c, 0, 45, 72
1, 674584, Note_on_c, 0, 93, 95
1, 674612, Note_off_c, 0, 45, 64
1, 674612, Note_off_c, 0, 50, 65
1, 674651, Note_off_c, 0, 100, 66
1, 674664, Note_on_c, 0, 88, 80
1, 674669, Note_off_c, 0, 93, 67
1, 674692, Note_off_c, 0, 88, 65
1, 674693, Poly_aftertouch_c, 0, 57, 127
1, 674730, Poly_aftertouch_c, 0, 57, 0
1, 674762, Note_on_c, 0, 65, 75
1, 674766, Note_on_c, 0, 81, 96
1, 674769, Note_on_c, 0, 86, 85
1, 674771, Note_on_c, 0, 60, 66
1, 674831, Note_off_c, 0, 60, 61
1, 674834, Note_off_c, 0, 65, 56
1, 674840, Note_off_c, 0, 86, 56
1, 674849, Note_on_c, 0, 74, 77
1, 674850, Note_off_c, 0, 81, 64
1, 674914, Control_c, 0, 64, 97
1, 674929, Note_on_c, 0, 59, 79
1, 674929, Control_c, 0, 64, 64
1, 674932, Note_on_c, 0, 64, 69
1, 674937, Note_off_c, 0, 74, 51
1, 674943, Note_on_c, 0, 83, 93
1, 674944, Control_c, 0, 64, 30
1, 674946, Note_on_c, 0, 76, 86
1, 674949, Note_off_c, 0, 64, 66
1, 674956, Note_off_c, 0, 59, 68
1, 674959, Control_c, 0, 64, 26
1, 674974, Control_c, 0, 64, 48
1, 674988, Control_c, 0, 64, 58
1, 675003, Control_c, 0, 64, 68
1, 675018, Control_c, 0, 64, 85
1, 675037, Note_off_c, 0, 83, 66
1, 675040, Control_c, 0, 64, 127
1, 675046, Note_on_c, 0, 52, 88
1, 675074, Note_off_c, 0, 76, 64
1, 675126, Note_on_c, 0, 53, 92
1, 675164, Note_off_c, 0, 52, 63
1, 675206, Note_on_c, 0, 55, 95
1, 675232, Note_off_c, 0, 53, 64
1, 675277, Control_c, 0, 64, 108
1, 675292, Control_c, 0, 64, 95
1, 675306, Control_c, 0, 64, 73
1, 675321, Control_c, 0, 64, 46
1, 675330, Note_on_c, 0, 57, 90
1, 675333, Note_on_c, 0, 48, 76
1, 675336, Control_c, 0, 64, 0
1, 675353, Note_off_c, 0, 55, 64
1, 675416, Note_on_c, 0, 63, 65
1, 675455, Control_c, 0, 64, 11
1, 675469, Control_c, 0, 64, 44
1, 675478, Note_off_c, 0, 63, 63
1, 675485, Control_c, 0, 64, 52
1, 675500, Control_c, 0, 64, 55
1, 675508, Note_on_c, 0, 65, 66
1, 675515, Control_c, 0, 64, 59
1, 675529, Note_on_c, 0, 60, 94
1, 675529, Control_c, 0, 64, 63
1, 675544, Control_c, 0, 64, 65
1, 675559, Control_c, 0, 64, 65
1, 675574, Control_c, 0, 64, 60
1, 675589, Control_c, 0, 64, 51
1, 675604, Control_c, 0, 64, 44
1, 675610, Note_on_c, 0, 69, 74
1, 675619, Control_c, 0, 64, 45
1, 675633, Control_c, 0, 64, 50
1, 675637, Note_off_c, 0, 65, 56
1, 675648, Control_c, 0, 64, 56
1, 675663, Control_c, 0, 64, 60
1, 675678, Control_c, 0, 64, 64
1, 675687, Note_off_c, 0, 69, 65
1, 675693, Control_c, 0, 64, 69
1, 675695, Note_on_c, 0, 77, 83
1, 675698, Note_on_c, 0, 75, 65
1, 675708, Control_c, 0, 64, 76
1, 675719, Note_off_c, 0, 75, 62
1, 675721, Control_c, 0, 64, 85
1, 675721, Note_off_c, 0, 77, 62
1, 675735, Control_c, 0, 64, 88
1, 675750, Control_c, 0, 64, 86
1, 675759, Note_off_c, 0, 60, 63
1, 675765, Control_c, 0, 64, 84
1, 675788, Control_c, 0, 64, 84
1, 675798, Note_on_c, 0, 81, 86
1, 675832, Control_c, 0, 64, 83
1, 675847, Control_c, 0, 64, 82
1, 675861, Control_c, 0, 64, 80
1, 675876, Note_off_c, 0, 81, 65
1, 675876, Control_c, 0, 64, 77
1, 675887, Note_on_c, 0, 59, 90
1, 675891, Control_c, 0, 64, 73
1, 675905, Note_on_c, 0, 84, 64
1, 675906, Control_c, 0, 64, 70
1, 675921, Control_c, 0, 64, 67
1, 675935, Control_c, 0, 64, 66
1, 675943, Note_off_c, 0, 57, 63
1, 675950, Control_c, 0, 64, 64
1, 675965, Control_c, 0, 64, 61
1, 675979, Note_off_c, 0, 48, 35
1, 675980, Control_c, 0, 64, 58
1, 675991, Note_off_c, 0, 84, 63
1, 675994, Note_on_c, 0, 75, 67
1, 675995, Control_c, 0, 64, 56
1, 676000, Note_on_c, 0, 87, 66
1, 676009, Control_c, 0, 64, 54
1, 676024, Control_c, 0, 64, 53
1, 676039, Control_c, 0, 64, 52
1, 676054, Control_c, 0, 64, 51
1, 676069, Control_c, 0, 64, 51
1, 676106, Note_on_c, 0, 55, 75
1, 676124, Note_off_c, 0, 75, 62
1, 676128, Control_c, 0, 64, 50
1, 676133, Note_on_c, 0, 48, 50
1, 676165, Note_off_c, 0, 59, 58
1, 676173, Note_off_c, 0, 87, 57
1, 676217, Control_c, 0, 64, 50
1, 676218, Note_on_c, 0, 76, 56
1, 676223, Note_on_c, 0, 88, 64
1, 676232, Control_c, 0, 64, 49
1, 676247, Control_c, 0, 64, 48
1, 676261, Control_c, 0, 64, 47
1, 676275, Note_off_c, 0, 76, 60
1, 676277, Control_c, 0, 64, 46
1, 676292, Control_c, 0, 64, 44
1, 676301, Note_on_c, 0, 84, 64
1, 676307, Note_off_c, 0, 88, 62
1, 676307, Control_c, 0, 64, 41
1, 676307, Control_c, 0, 67, 23
1, 676320, Poly_aftertouch_c, 0, 86, 127
1, 676322, Control_c, 0, 64, 36
1, 676322, Control_c, 0, 67, 59
1, 676337, Control_c, 0, 64, 27
1, 676337, Control_c, 0, 67, 103
1, 676346, Poly_aftertouch_c, 0, 86, 0
1, 676351, Control_c, 0, 64, 15
1, 676351, Control_c, 0, 67, 127
1, 676366, Control_c, 0, 64, 0
1, 676397, Note_off_c, 0, 84, 62
1, 676408, Note_on_c, 0, 79, 63
1, 676480, Note_off_c, 0, 79, 62
1, 676501, Note_on_c, 0, 83, 57
1, 676510, Note_on_c, 0, 71, 45
1, 676567, Note_off_c, 0, 71, 58
1, 676607, Note_off_c, 0, 55, 64
1, 676610, Note_on_c, 0, 52, 59
1, 676610, Note_off_c, 0, 83, 58
1, 676628, Note_on_c, 0, 78, 55
1, 676698, Note_on_c, 0, 75, 57
1, 676710, Note_off_c, 0, 78, 64
1, 676713, Note_on_c, 0, 53, 64
1, 676723, Note_off_c, 0, 48, 54
1, 676733, Note_off_c, 0, 75, 65
1, 676750, Note_on_c, 0, 72, 37
1, 676775, Note_off_c, 0, 52, 51
1, 676778, Note_off_c, 0, 72, 53
1, 676806, Note_on_c, 0, 55, 63
1, 676869, Note_off_c, 0, 53, 37
1, 676909, Note_on_c, 0, 57, 53
1, 676918, Note_off_c, 0, 55, 59
1, 676936, Note_on_c, 0, 47, 38
1, 677015, Note_on_c, 0, 63, 49
1, 677061, Note_off_c, 0, 63, 63
1, 677119, Note_on_c, 0, 65, 47
1, 677146, Note_on_c, 0, 60, 73
1, 677219, Control_c, 0, 64, 17
1, 677234, Control_c, 0, 64, 31
1, 677248, Control_c, 0, 64, 44
1, 677263, Control_c, 0, 64, 50
1, 677283, Note_on_c, 0, 69, 33
1, 677285, Control_c, 0, 64, 55
1, 677300, Control_c, 0, 64, 59
1, 677303, Note_on_c, 0, 71, 33
1, 677303, Note_off_c, 0, 65, 36
1, 677315, Control_c, 0, 64, 63
1, 677330, Control_c, 0, 64, 65
1, 677342, Note_off_c, 0, 69, 64
1, 677344, Control_c, 0, 64, 67
1, 677349, Note_on_c, 0, 75, 46
1, 677355, Note_off_c, 0, 71, 42
1, 677356, Note_on_c, 0, 77, 59
1, 677359, Control_c, 0, 64, 69
1, 677371, Note_off_c, 0, 75, 57
1, 677374, Control_c, 0, 64, 72
1, 677383, Note_off_c, 0, 77, 63
1, 677387, Note_off_c, 0, 60, 64
1, 677389, Control_c, 0, 64, 73
1, 677455, Note_on_c, 0, 81, 61
1, 677463, Control_c, 0, 64, 73
1, 677493, Control_c, 0, 64, 72
1, 677507, Control_c, 0, 64, 72
1, 677529, Note_off_c, 0, 81, 63
1, 677569, Note_on_c, 0, 84, 56
1, 677571, Note_on_c, 0, 59, 56
1, 677596, Control_c, 0, 64, 71
1, 677611, Control_c, 0, 64, 69
1, 677626, Control_c, 0, 64, 66
1, 677641, Control_c, 0, 64, 64
1, 677655, Control_c, 0, 64, 64
1, 677670, Control_c, 0, 64, 63
1, 677676, Note_off_c, 0, 57, 60
1, 677687, Note_off_c, 0, 47, 53
1, 677697, Note_off_c, 0, 84, 56
1, 677710, Note_on_c, 0, 87, 46
1, 677714, Control_c, 0, 64, 63
1, 677729, Control_c, 0, 64, 62
1, 677744, Control_c, 0, 64, 62
1, 677756, Note_on_c, 0, 75, 8
1, 677759, Control_c, 0, 64, 61
1, 677774, Control_c, 0, 64, 60
1, 677789, Control_c, 0, 64, 59
1, 677804, Control_c, 0, 64, 58
1, 677818, Control_c, 0, 64, 57
1, 677833, Control_c, 0, 64, 56
1, 677848, Control_c, 0, 64, 56
1, 677863, Control_c, 0, 64, 55
1, 677878, Control_c, 0, 64, 55
1, 677888, Note_on_c, 0, 48, 37
1, 677891, Note_off_c, 0, 75, 25
1, 677893, Control_c, 0, 64, 54
1, 677902, Note_on_c, 0, 55, 41
1, 677908, Control_c, 0, 64, 53
1, 677923, Control_c, 0, 64, 52
1, 677938, Control_c, 0, 64, 51
1, 677953, Control_c, 0, 64, 51
1, 677954, Note_off_c, 0, 87, 37
1, 677963, Note_off_c, 0, 59, 57
1, 677982, Control_c, 0, 64, 50
1, 678012, Control_c, 0, 64, 51
1, 678024, Note_on_c, 0, 88, 40
1, 678028, Note_on_c, 0, 76, 30
1, 678034, Control_c, 0, 64, 52
1, 678049, Control_c, 0, 64, 53
1, 678064, Control_c, 0, 64, 55
1, 678078, Control_c, 0, 64, 56
1, 678093, Control_c, 0, 64, 57
1, 678108, Control_c, 0, 64, 58
1, 678123, Note_off_c, 0, 88, 40
1, 678123, Control_c, 0, 64, 60
1, 678132, Note_off_c, 0, 76, 40
1, 678137, Control_c, 0, 64, 61
1, 678148, Note_on_c, 0, 84, 51
1, 678152, Control_c, 0, 64, 63
1, 678167, Control_c, 0, 64, 64
1, 678182, Control_c, 0, 64, 65
1, 678197, Control_c, 0, 64, 67
1, 678212, Control_c, 0, 64, 68
1, 678227, Control_c, 0, 64, 70
1, 678242, Note_off_c, 0, 84, 60
1, 678242, Control_c, 0, 64, 73
1, 678254, Note_on_c, 0, 79, 56
1, 678256, Control_c, 0, 64, 76
1, 678271, Control_c, 0, 64, 78
1, 678285, Note_off_c, 0, 55, 63
1, 678286, Control_c, 0, 64, 79
1, 678325, Note_off_c, 0, 79, 60
1, 678345, Note_off_c, 0, 48, 51
1, 678373, Note_on_c, 0, 83, 57
1, 678400, Note_on_c, 0, 71, 33
1, 678404, Control_c, 0, 64, 78
1, 678434, Control_c, 0, 64, 78
1, 678438, Note_off_c, 0, 71, 51
1, 678463, Control_c, 0, 64, 77
1, 678478, Control_c, 0, 64, 76
1, 678484, Note_on_c, 0, 47, 53
1, 678493, Control_c, 0, 64, 76
1, 678495, Note_on_c, 0, 78, 52
1, 678506, Note_off_c, 0, 83, 35
1, 678508, Control_c, 0, 64, 75
1, 678522, Control_c, 0, 64, 74
1, 678537, Control_c, 0, 64, 74
1, 678552, Control_c, 0, 64, 73
1, 678567, Control_c, 0, 64, 72
1, 678582, Note_off_c, 0, 47, 56
1, 678582, Control_c, 0, 64, 71
1, 678591, Note_off_c, 0, 78, 60
1, 678595, Note_on_c, 0, 48, 49
1, 678596, Control_c, 0, 64, 69
1, 678603, Note_on_c, 0, 75, 45
1, 678611, Control_c, 0, 64, 68
1, 678626, Control_c, 0, 64, 67
1, 678641, Control_c, 0, 64, 67
1, 678656, Control_c, 0, 64, 66
1, 678660, Note_off_c, 0, 75, 58
1, 678672, Control_c, 0, 64, 65
1, 678674, Note_off_c, 0, 48, 61
1, 678687, Control_c, 0, 64, 65
1, 678689, Note_on_c, 0, 72, 49
1, 678710, Note_on_c, 0, 50, 43
1, 678716, Control_c, 0, 64, 64
1, 678723, Note_off_c, 0, 72, 65
1, 678746, Control_c, 0, 64, 64
1, 678760, Control_c, 0, 64, 63
1, 678783, Control_c, 0, 64, 63
1, 678798, Control_c, 0, 64, 62
1, 678813, Control_c, 0, 64, 62
1, 678827, Control_c, 0, 64, 61
1, 678842, Control_c, 0, 64, 60
1, 678857, Control_c, 0, 64, 59
1, 678867, Note_on_c, 0, 52, 44
1, 678872, Control_c, 0, 64, 58
1, 678886, Control_c, 0, 64, 57
1, 678901, Control_c, 0, 64, 55
1, 678916, Control_c, 0, 64, 53
1, 678931, Control_c, 0, 64, 52
1, 678946, Control_c, 0, 64, 51
1, 678948, Note_off_c, 0, 50, 54
1, 679005, Control_c, 0, 64, 52
1, 679020, Control_c, 0, 64, 54
1, 679025, Note_on_c, 0, 79, 38
1, 679035, Control_c, 0, 64, 57
1, 679050, Control_c, 0, 64, 59
1, 679064, Control_c, 0, 64, 60
1, 679079, Control_c, 0, 64, 62
1, 679094, Control_c, 0, 64, 63
1, 679102, Note_off_c, 0, 79, 51
1, 679109, Control_c, 0, 64, 64
1, 679115, Note_on_c, 0, 83, 39
1, 679124, Control_c, 0, 64, 65
1, 679139, Control_c, 0, 64, 66
1, 679153, Control_c, 0, 64, 68
1, 679168, Control_c, 0, 64, 69
1, 679183, Control_c, 0, 64, 70
1, 679198, Control_c, 0, 64, 72
1, 679213, Control_c, 0, 64, 73
1, 679214, Note_on_c, 0, 87, 35
1, 679227, Control_c, 0, 64, 74
1, 679242, Control_c, 0, 64, 74
1, 679261, Note_off_c, 0, 83, 31
1, 679294, Note_on_c, 0, 55, 46
1, 679320, Note_on_c, 0, 90, 30
1, 679331, Control_c, 0, 64, 75
1, 679345, Control_c, 0, 64, 75
1, 679360, Control_c, 0, 64, 76
1, 679375, Control_c, 0, 64, 76
1, 679376, Note_off_c, 0, 87, 36
1, 679388, Note_off_c, 0, 52, 65
1, 679390, Control_c, 0, 64, 77
1, 679395, Note_on_c, 0, 91, 34
1, 679405, Control_c, 0, 64, 78
1, 679419, Control_c, 0, 64, 79
1, 679434, Control_c, 0, 64, 80
1, 679449, Control_c, 0, 64, 80
1, 679451, Note_off_c, 0, 90, 0
1, 679480, Control_c, 0, 64, 81
1, 679489, Poly_aftertouch_c, 0, 90, 127
1, 679494, Note_off_c, 0, 91, 37
1, 679494, Control_c, 0, 64, 81
1, 679499, Note_on_c, 0, 88, 43
1, 679509, Control_c, 0, 64, 82
1, 679532, Note_off_c, 0, 88, 57
1, 679556, Poly_aftertouch_c, 0, 90, 0
1, 679592, Note_on_c, 0, 83, 48
1, 679665, Control_c, 0, 64, 81
1, 679697, Note_on_c, 0, 59, 59
1, 679716, Note_on_c, 0, 87, 52
1, 679729, Note_on_c, 0, 51, 51
1, 679754, Control_c, 0, 64, 81
1, 679758, Note_off_c, 0, 83, 30
1, 679769, Control_c, 0, 64, 77
1, 679783, Control_c, 0, 64, 72
1, 679798, Control_c, 0, 64, 67
1, 679813, Control_c, 0, 64, 63
1, 679816, Note_on_c, 0, 82, 46
1, 679828, Control_c, 0, 64, 63
1, 679834, Note_off_c, 0, 55, 60
1, 679843, Control_c, 0, 64, 63
1, 679848, Note_off_c, 0, 87, 57
1, 679857, Control_c, 0, 64, 65
1, 679872, Control_c, 0, 64, 66
1, 679887, Control_c, 0, 64, 68
1, 679902, Control_c, 0, 64, 70
1, 679917, Control_c, 0, 64, 73
1, 679917, Note_on_c, 0, 79, 57
1, 679929, Note_off_c, 0, 82, 61
1, 679932, Control_c, 0, 64, 76
1, 679947, Control_c, 0, 64, 80
1, 679962, Control_c, 0, 64, 82
1, 679968, Note_off_c, 0, 79, 62
1, 679976, Control_c, 0, 64, 86
1, 679991, Control_c, 0, 64, 90
1, 680000, Note_on_c, 0, 76, 57
1, 680006, Control_c, 0, 64, 94
1, 680021, Control_c, 0, 64, 95
1, 680050, Control_c, 0, 64, 92
1, 680065, Control_c, 0, 64, 86
1, 680080, Control_c, 0, 64, 78
1, 680094, Note_on_c, 0, 63, 88
1, 680094, Control_c, 0, 64, 74
1, 680096, Note_on_c, 0, 75, 72
1, 680097, Note_off_c, 0, 76, 56
1, 680109, Control_c, 0, 64, 74
1, 680124, Control_c, 0, 64, 76
1, 680128, Note_on_c, 0, 54, 52
1, 680139, Control_c, 0, 64, 78
1, 680140, Note_off_c, 0, 75, 55
1, 680150, Note_off_c, 0, 59, 62
1, 680154, Control_c, 0, 64, 82
1, 680168, Control_c, 0, 64, 86
1, 680183, Control_c, 0, 64, 90
1, 680198, Control_c, 0, 64, 95
1, 680213, Control_c, 0, 64, 99
1, 680227, Control_c, 0, 64, 104
1, 680242, Control_c, 0, 64, 108
1, 680254, Note_on_c, 0, 86, 56
1, 680257, Control_c, 0, 64, 109
1, 680297, Note_off_c, 0, 51, 47
1, 680307, Note_off_c, 0, 63, 53
1, 680307, Note_off_c, 0, 86, 59
1, 680325, Control_c, 0, 64, 111
1, 680340, Control_c, 0, 64, 113
1, 680340, Note_on_c, 0, 89, 66
1, 680342, Note_off_c, 0, 54, 34
1, 680355, Control_c, 0, 64, 115
1, 680368, Note_on_c, 0, 50, 67
1, 680370, Control_c, 0, 64, 114
1, 680385, Control_c, 0, 64, 104
1, 680399, Control_c, 0, 64, 90
1, 680406, Note_off_c, 0, 89, 58
1, 680414, Control_c, 0, 64, 76
1, 680429, Control_c, 0, 64, 69
1, 680431, Note_on_c, 0, 93, 61
1, 680444, Control_c, 0, 64, 68
1, 680459, Control_c, 0, 64, 69
1, 680461, Note_on_c, 0, 58, 69
1, 680473, Control_c, 0, 64, 72
1, 680488, Control_c, 0, 64, 76
1, 680503, Control_c, 0, 64, 82
1, 680505, Note_on_c, 0, 55, 22
1, 680518, Control_c, 0, 64, 87
1, 680528, Note_off_c, 0, 50, 59
1, 680532, Control_c, 0, 64, 91
1, 680541, Note_off_c, 0, 93, 59
1, 680546, Note_on_c, 0, 96, 52
1, 680547, Control_c, 0, 64, 95
1, 680562, Control_c, 0, 64, 99
1, 680577, Control_c, 0, 64, 101
1, 680612, Note_on_c, 0, 66, 85
1, 680636, Control_c, 0, 64, 102
1, 680651, Control_c, 0, 64, 102
1, 680680, Control_c, 0, 64, 103
1, 680695, Control_c, 0, 64, 104
1, 680710, Control_c, 0, 64, 104
1, 680722, Note_off_c, 0, 55, 31
1, 680725, Control_c, 0, 64, 106
1, 680740, Control_c, 0, 64, 109
1, 680755, Control_c, 0, 64, 114
1, 680762, Note_off_c, 0, 96, 59
1, 680770, Control_c, 0, 64, 127
1, 680795, Note_on_c, 0, 97, 59
1, 680883, Note_on_c, 0, 94, 65
1, 680900, Note_off_c, 0, 97, 62
1, 680906, Note_off_c, 0, 66, 56
1, 680915, Note_off_c, 0, 58, 60
1, 680945, Note_off_c, 0, 94, 62
1, 680956, Note_on_c, 0, 89, 60
1, 680960, Note_on_c, 0, 53, 52
1, 680996, Note_off_c, 0, 89, 62
1, 681035, Note_on_c, 0, 61, 55
1, 681044, Note_on_c, 0, 95, 57
1, 681055, Note_off_c, 0, 53, 63
1, 681064, Note_off_c, 0, 61, 63
1, 681105, Note_off_c, 0, 95, 50
1, 681141, Note_on_c, 0, 89, 41
1, 681178, Control_c, 0, 64, 89
1, 681178, Note_on_c, 0, 49, 59
1, 681193, Control_c, 0, 64, 68
1, 681208, Control_c, 0, 64, 50
1, 681222, Control_c, 0, 64, 28
1, 681235, Note_on_c, 0, 85, 66
1, 681237, Control_c, 0, 64, 43
1, 681239, Note_off_c, 0, 89, 60
1, 681252, Control_c, 0, 64, 55
1, 681255, Note_on_c, 0, 57, 73
1, 681267, Control_c, 0, 64, 61
1, 681282, Control_c, 0, 64, 66
1, 681290, Note_off_c, 0, 49, 63
1, 681296, Control_c, 0, 64, 73
1, 681301, Note_off_c, 0, 85, 60
1, 681306, Note_on_c, 0, 82, 64
1, 681311, Control_c, 0, 64, 85
1, 681326, Control_c, 0, 64, 105
1, 681331, Note_off_c, 0, 57, 64
1, 681340, Control_c, 0, 64, 127
1, 681401, Note_on_c, 0, 67, 88
1, 681410, Note_off_c, 0, 82, 57
1, 681433, Note_on_c, 0, 81, 64
1, 681513, Poly_aftertouch_c, 0, 59, 0
1, 681515, Note_off_c, 0, 81, 62
1, 681536, Note_on_c, 0, 85, 62
1, 681610, Note_off_c, 0, 67, 60
1, 681615, Note_on_c, 0, 87, 67
1, 681618, Note_off_c, 0, 85, 64
1, 681642, Note_off_c, 0, 87, 68
1, 681676, Note_on_c, 0, 88, 63
1, 681735, Note_on_c, 0, 60, 41
1, 681777, Note_on_c, 0, 64, 87
1, 681782, Note_on_c, 0, 52, 72
1, 681782, Note_off_c, 0, 88, 59
1, 681794, Note_on_c, 0, 90, 54
1, 681807, Control_c, 0, 64, 113
1, 681822, Control_c, 0, 64, 74
1, 681837, Control_c, 0, 64, 59
1, 681852, Control_c, 0, 64, 21
1, 681867, Control_c, 0, 64, 0
1, 681870, Note_off_c, 0, 90, 63
1, 681881, Note_on_c, 0, 91, 61
1, 681897, Control_c, 0, 64, 25
1, 681912, Control_c, 0, 64, 50
1, 681926, Control_c, 0, 64, 58
1, 681939, Note_off_c, 0, 91, 49
1, 681941, Control_c, 0, 64, 61
1, 681956, Control_c, 0, 64, 63
1, 681962, Note_off_c, 0, 60, 57
1, 681971, Control_c, 0, 64, 66
1, 681977, Note_on_c, 0, 88, 56
1, 681986, Control_c, 0, 64, 70
1, 682001, Control_c, 0, 64, 77
1, 682016, Control_c, 0, 64, 85
1, 682030, Control_c, 0, 64, 92
1, 682045, Control_c, 0, 64, 96
1, 682051, Note_off_c, 0, 88, 64
1, 682060, Control_c, 0, 64, 96
1, 682063, Note_on_c, 0, 83, 57
1, 682121, Note_off_c, 0, 83, 62
1, 682145, Note_on_c, 0, 59, 52
1, 682147, Note_off_c, 0, 64, 56
1, 682149, Control_c, 0, 64, 96
1, 682153, Note_on_c, 0, 55, 43
1, 682157, Note_on_c, 0, 79, 60
1, 682163, Control_c, 0, 64, 95
1, 682180, Note_off_c, 0, 59, 65
1, 682188, Note_off_c, 0, 55, 64
1, 682193, Control_c, 0, 64, 95
1, 682200, Note_off_c, 0, 79, 63
1, 682208, Control_c, 0, 64, 94
1, 682215, Note_off_c, 0, 52, 36
1, 682223, Control_c, 0, 64, 94
1, 682237, Control_c, 0, 64, 93
1, 682252, Control_c, 0, 64, 93
1, 682262, Note_on_c, 0, 82, 47
1, 682267, Control_c, 0, 64, 92
1, 682282, Control_c, 0, 64, 92
1, 682326, Control_c, 0, 64, 91
1, 682330, Note_off_c, 0, 82, 37
1, 682332, Note_on_c, 0, 83, 59
1, 682340, Note_on_c, 0, 48, 34
1, 682341, Control_c, 0, 64, 91
1, 682356, Control_c, 0, 64, 90
1, 682370, Control_c, 0, 64, 89
1, 682385, Control_c, 0, 64, 87
1, 682388, Note_off_c, 0, 83, 52
1, 682400, Control_c, 0, 64, 86
1, 682415, Control_c, 0, 64, 85
1, 682448, Note_on_c, 0, 56, 55
1, 682449, Note_on_c, 0, 85, 45
1, 682475, Control_c, 0, 64, 86
1, 682504, Control_c, 0, 64, 81
1, 682522, Note_off_c, 0, 85, 57
1, 682526, Control_c, 0, 64, 71
1, 682528, Note_on_c, 0, 63, 60
1, 682536, Poly_aftertouch_c, 0, 50, 127
1, 682541, Control_c, 0, 64, 60
1, 682556, Control_c, 0, 64, 46
1, 682570, Note_on_c, 0, 86, 24
1, 682570, Control_c, 0, 64, 42
1, 682585, Control_c, 0, 64, 45
1, 682600, Control_c, 0, 64, 51
1, 682615, Control_c, 0, 64, 57
1, 682630, Control_c, 0, 64, 61
1, 682632, Note_on_c, 0, 87, 49
1, 682645, Control_c, 0, 64, 64
1, 682654, Note_off_c, 0, 86, 53
1, 682659, Control_c, 0, 64, 65
1, 682675, Control_c, 0, 64, 67
1, 682690, Control_c, 0, 64, 70
1, 682696, Note_off_c, 0, 87, 60
1, 682705, Control_c, 0, 64, 73
1, 682717, Note_on_c, 0, 84, 58
1, 682719, Control_c, 0, 64, 77
1, 682734, Note_off_c, 0, 56, 55
1, 682734, Control_c, 0, 64, 80
1, 682735, Note_off_c, 0, 48, 41
1, 682749, Control_c, 0, 64, 84
1, 682751, Poly_aftertouch_c, 0, 50, 0
1, 682753, Note_off_c, 0, 84, 65
1, 682764, Control_c, 0, 64, 85
1, 682779, Control_c, 0, 64, 85
1, 682797, Note_on_c, 0, 80, 64
1, 682836, Note_off_c, 0, 80, 58
1, 682853, Control_c, 0, 64, 86
1, 682868, Control_c, 0, 64, 86
1, 682883, Control_c, 0, 64, 87
1, 682908, Note_on_c, 0, 58, 41
1, 682910, Note_on_c, 0, 78, 59
1, 682913, Control_c, 0, 64, 86
1, 682923, Note_on_c, 0, 51, 51
1, 682927, Control_c, 0, 64, 81
1, 682942, Control_c, 0, 64, 74
1, 682957, Control_c, 0, 64, 66
1, 682972, Control_c, 0, 64, 63
1, 682987, Control_c, 0, 64, 63
1, 682996, Note_on_c, 0, 79, 62
1, 683001, Control_c, 0, 64, 65
1, 683016, Control_c, 0, 64, 67
1, 683031, Control_c, 0, 64, 69
1, 683035, Note_off_c, 0, 78, 35
1, 683046, Control_c, 0, 64, 72
1, 683055, Note_off_c, 0, 51, 59
1, 683061, Control_c, 0, 64, 74
1, 683075, Control_c, 0, 64, 76
1, 683086, Note_off_c, 0, 79, 55
1, 683090, Note_on_c, 0, 75, 55
1, 683090, Control_c, 0, 64, 77
1, 683093, Note_off_c, 0, 63, 52
1, 683095, Note_off_c, 0, 58, 59
1, 683185, Note_off_c, 0, 75, 54
1, 683187, Note_on_c, 0, 70, 58
1, 683193, Control_c, 0, 64, 76
1, 683220, Note_off_c, 0, 70, 59
1, 683253, Control_c, 0, 64, 76
1, 683290, Control_c, 0, 64, 75
1, 683305, Control_c, 0, 64, 75
1, 683319, Control_c, 0, 64, 74
1, 683333, Note_on_c, 0, 55, 32
1, 683381, Note_on_c, 0, 71, 65
1, 683408, Control_c, 0, 64, 71
1, 683423, Control_c, 0, 64, 64
1, 683438, Control_c, 0, 64, 53
1, 683453, Control_c, 0, 64, 29
1, 683469, Control_c, 0, 64, 0
1, 683471, Poly_aftertouch_c, 0, 67, 127
1, 683513, Control_c, 0, 64, 25
1, 683528, Control_c, 0, 64, 44
1, 683540, Note_on_c, 0, 59, 29
1, 683542, Control_c, 0, 64, 56
1, 683557, Control_c, 0, 64, 61
1, 683563, Note_off_c, 0, 55, 53
1, 683572, Control_c, 0, 64, 64
1, 683587, Control_c, 0, 64, 67
1, 683601, Note_off_c, 0, 59, 63
1, 683602, Control_c, 0, 64, 73
1, 683616, Control_c, 0, 64, 80
1, 683631, Control_c, 0, 64, 91
1, 683638, Note_on_c, 0, 62, 45
1, 683644, Poly_aftertouch_c, 0, 67, 0
1, 683646, Control_c, 0, 64, 107
1, 683661, Control_c, 0, 64, 127
1, 683666, Note_off_c, 0, 62, 56
1, 683733, Note_on_c, 0, 66, 52
1, 683775, Note_off_c, 0, 66, 61
1, 683803, Note_on_c, 0, 74, 80
1, 683843, Note_on_c, 0, 70, 6
1, 683859, Note_off_c, 0, 71, 61
1, 683869, Control_c, 0, 67, 110
1, 683884, Control_c, 0, 67, 87
1, 683891, Note_off_c, 0, 70, 37
1, 683898, Control_c, 0, 67, 61
1, 683901, Note_on_c, 0, 71, 48
1, 683913, Control_c, 0, 67, 31
1, 683928, Control_c, 0, 67, 0
1, 683983, Note_off_c, 0, 71, 52
1, 683989, Note_on_c, 0, 66, 60
1, 684063, Note_on_c, 0, 62, 59
1, 684064, Note_off_c, 0, 66, 61
1, 684093, Note_off_c, 0, 62, 65
1, 684159, Note_on_c, 0, 65, 53
1, 684159, Note_on_c, 0, 78, 90
1, 684172, Control_c, 0, 64, 103
1, 684187, Control_c, 0, 64, 74
1, 684202, Note_on_c, 0, 70, 40
1, 684202, Control_c, 0, 64, 60
1, 684207, Note_off_c, 0, 74, 63
1, 684216, Control_c, 0, 64, 52
1, 684231, Control_c, 0, 64, 60
1, 684246, Control_c, 0, 64, 65
1, 684248, Note_on_c, 0, 61, 60
1, 684261, Control_c, 0, 64, 73
1, 684277, Control_c, 0, 64, 91
1, 684286, Note_off_c, 0, 70, 64
1, 684292, Control_c, 0, 64, 127
1, 684293, Note_off_c, 0, 65, 33
1, 684310, Note_off_c, 0, 78, 63
1, 684312, Note_on_c, 0, 57, 63
1, 684397, Note_on_c, 0, 54, 59
1, 684481, Note_off_c, 0, 57, 60
1, 684499, Note_on_c, 0, 53, 65
1, 684500, Note_on_c, 0, 82, 95
1, 684504, Note_off_c, 0, 54, 63
1, 684525, Note_on_c, 0, 73, 58
1, 684528, Control_c, 0, 64, 91
1, 684531, Note_off_c, 0, 61, 15
1, 684543, Control_c, 0, 64, 65
1, 684558, Control_c, 0, 64, 32
1, 684573, Control_c, 0, 64, 15
1, 684588, Control_c, 0, 64, 34
1, 684603, Control_c, 0, 64, 54
1, 684618, Control_c, 0, 64, 64
1, 684633, Control_c, 0, 64, 72
1, 684636, Note_on_c, 0, 58, 54
1, 684647, Control_c, 0, 64, 90
1, 684662, Control_c, 0, 64, 127
1, 684706, Note_on_c, 0, 61, 49
1, 684720, Note_off_c, 0, 53, 59
1, 684752, Note_off_c, 0, 61, 61
1, 684755, Note_off_c, 0, 58, 60
1, 684803, Note_on_c, 0, 65, 47
1, 684852, Note_off_c, 0, 65, 56
1, 684956, Note_on_c, 0, 68, 49
1, 684974, Note_on_c, 0, 77, 53
1, 684981, Note_on_c, 0, 85, 89
1, 685039, Control_c, 0, 64, 108
1, 685050, Note_off_c, 0, 68, 62
1, 685054, Control_c, 0, 64, 72
1, 685070, Control_c, 0, 64, 42
1, 685085, Control_c, 0, 64, 0
1, 685101, Note_on_c, 0, 69, 53
1, 685114, Control_c, 0, 64, 36
1, 685129, Control_c, 0, 64, 56
1, 685144, Control_c, 0, 64, 64
1, 685159, Control_c, 0, 64, 75
1, 685174, Control_c, 0, 64, 107
1, 685183, Note_off_c, 0, 69, 64
1, 685187, Note_on_c, 0, 65, 57
1, 685188, Control_c, 0, 64, 127
1, 685215, Note_off_c, 0, 73, 62
1, 685252, Note_on_c, 0, 61, 61
1, 685254, Note_off_c, 0, 65, 62
1, 685284, Note_off_c, 0, 61, 64
1, 685321, Note_off_c, 0, 82, 0
1, 685321, Note_on_c, 0, 80, 89
1, 685333, Note_on_c, 0, 82, 52
1, 685353, Note_on_c, 0, 64, 55
1, 685360, Note_off_c, 0, 85, 66
1, 685377, Note_off_c, 0, 82, 65
1, 685395, Note_off_c, 0, 64, 47
1, 685441, Note_on_c, 0, 59, 43
1, 685445, Note_on_c, 0, 60, 30
1, 685459, Note_on_c, 0, 56, 61
1, 685464, Note_off_c, 0, 77, 61
1, 685498, Note_off_c, 0, 60, 51
1, 685504, Note_on_c, 0, 68, 75
1, 685506, Note_off_c, 0, 59, 54
1, 685531, Note_on_c, 0, 53, 65
1, 685536, Note_off_c, 0, 56, 62
1, 685536, Note_off_c, 0, 68, 68
1, 685555, Note_off_c, 0, 80, 51
1, 685563, Note_on_c, 0, 76, 78
1, 685602, Note_off_c, 0, 53, 61
1, 685614, Note_on_c, 0, 52, 60
1, 685737, Note_on_c, 0, 86, 90
1, 685774, Control_c, 0, 64, 83
1, 685789, Control_c, 0, 64, 64
1, 685804, Control_c, 0, 64, 21
1, 685819, Control_c, 0, 64, 0
1, 685849, Control_c, 0, 64, 26
1, 685864, Control_c, 0, 64, 51
1, 685879, Control_c, 0, 64, 61
1, 685894, Control_c, 0, 64, 66
1, 685909, Control_c, 0, 64, 72
1, 685916, Note_on_c, 0, 58, 49
1, 685924, Control_c, 0, 64, 80
1, 685935, Note_off_c, 0, 52, 64
1, 685938, Control_c, 0, 64, 88
1, 685948, Note_off_c, 0, 86, 59
1, 685953, Control_c, 0, 64, 94
1, 685968, Control_c, 0, 64, 96
1, 685971, Note_off_c, 0, 58, 63
1, 685983, Control_c, 0, 64, 95
1, 685998, Control_c, 0, 64, 95
1, 685998, Note_on_c, 0, 59, 54
1, 686042, Control_c, 0, 64, 94
1, 686057, Control_c, 0, 64, 93
1, 686072, Control_c, 0, 64, 90
1, 686081, Note_off_c, 0, 59, 55
1, 686086, Control_c, 0, 64, 87
1, 686086, Control_c, 0, 67, 10
1, 686090, Note_on_c, 0, 61, 57
1, 686101, Control_c, 0, 64, 86
1, 686101, Control_c, 0, 67, 36
1, 686116, Control_c, 0, 64, 84
1, 686116, Control_c, 0, 67, 60
1, 686123, Note_on_c, 0, 79, 58
1, 686131, Control_c, 0, 64, 81
1, 686131, Control_c, 0, 67, 82
1, 686135, Note_on_c, 0, 83, 81
1, 686145, Control_c, 0, 64, 78
1, 686145, Control_c, 0, 67, 102
1, 686155, Note_off_c, 0, 61, 61
1, 686160, Note_on_c, 0, 63, 61
1, 686160, Control_c, 0, 64, 76
1, 686160, Control_c, 0, 67, 122
1, 686163, Note_on_c, 0, 71, 45
1, 686175, Control_c, 0, 64, 75
1, 686175, Control_c, 0, 67, 127
1, 686183, Note_off_c, 0, 76, 51
1, 686190, Control_c, 0, 64, 75
1, 686196, Note_off_c, 0, 79, 61
1, 686204, Control_c, 0, 64, 74
1, 686218, Control_c, 0, 64, 73
1, 686225, Note_off_c, 0, 63, 63
1, 686233, Control_c, 0, 64, 72
1, 686248, Control_c, 0, 64, 71
1, 686270, Control_c, 0, 64, 70
1, 686283, Note_on_c, 0, 64, 43
1, 686285, Control_c, 0, 64, 69
1, 686299, Note_off_c, 0, 71, 59
1, 686299, Control_c, 0, 64, 69
1, 686314, Control_c, 0, 64, 68
1, 686329, Control_c, 0, 64, 67
1, 686344, Control_c, 0, 64, 66
1, 686348, Note_off_c, 0, 64, 65
1, 686352, Note_on_c, 0, 66, 62
1, 686359, Control_c, 0, 64, 65
1, 686374, Control_c, 0, 64, 64
1, 686389, Control_c, 0, 64, 64
1, 686403, Control_c, 0, 64, 63
1, 686418, Control_c, 0, 64, 63
1, 686430, Note_off_c, 0, 66, 61
1, 686433, Control_c, 0, 64, 62
1, 686442, Note_on_c, 0, 68, 63
1, 686463, Control_c, 0, 64, 62
1, 686492, Control_c, 0, 64, 61
1, 686522, Control_c, 0, 64, 61
1, 686523, Note_on_c, 0, 78, 73
1, 686525, Note_off_c, 0, 68, 61
1, 686536, Control_c, 0, 64, 60
1, 686551, Control_c, 0, 64, 60
1, 686553, Note_on_c, 0, 70, 44
1, 686558, Note_on_c, 0, 74, 43
1, 686566, Control_c, 0, 64, 59
1, 686581, Control_c, 0, 64, 59
1, 686585, Note_off_c, 0, 70, 64
1, 686596, Control_c, 0, 64, 58
1, 686598, Note_off_c, 0, 83, 57
1, 686610, Control_c, 0, 64, 58
1, 686625, Control_c, 0, 64, 57
1, 686640, Control_c, 0, 64, 56
1, 686642, Note_on_c, 0, 71, 56
1, 686671, Control_c, 0, 64, 56
1, 686686, Control_c, 0, 64, 55
1, 686690, Note_off_c, 0, 71, 60
1, 686715, Control_c, 0, 64, 54
1, 686725, Note_off_c, 0, 74, 60
1, 686732, Note_on_c, 0, 66, 47
1, 686745, Control_c, 0, 64, 53
1, 686759, Control_c, 0, 64, 53
1, 686774, Control_c, 0, 64, 52
1, 686779, Note_off_c, 0, 66, 59
1, 686789, Control_c, 0, 64, 51
1, 686803, Note_on_c, 0, 62, 41
1, 686804, Control_c, 0, 64, 50
1, 686819, Control_c, 0, 64, 50
1, 686833, Control_c, 0, 64, 49
1, 686848, Control_c, 0, 64, 48
1, 686857, Note_off_c, 0, 62, 61
1, 686863, Control_c, 0, 64, 47
1, 686878, Control_c, 0, 64, 45
1, 686893, Control_c, 0, 64, 44
1, 686900, Note_on_c, 0, 82, 60
1, 686904, Note_on_c, 0, 63, 42
1, 686907, Control_c, 0, 64, 43
1, 686922, Control_c, 0, 64, 43
1, 686925, Note_off_c, 0, 78, 60
1, 686931, Note_on_c, 0, 72, 32
1, 686937, Control_c, 0, 64, 41
1, 686943, Note_off_c, 0, 63, 61
1, 686952, Control_c, 0, 64, 40
1, 686967, Control_c, 0, 64, 39
1, 686982, Control_c, 0, 64, 39
1, 686996, Note_on_c, 0, 64, 43
1, 686997, Control_c, 0, 64, 38
1, 687019, Control_c, 0, 64, 37
1, 687034, Control_c, 0, 64, 36
1, 687044, Note_off_c, 0, 64, 54
1, 687048, Control_c, 0, 64, 35
1, 687063, Control_c, 0, 64, 34
1, 687078, Control_c, 0, 64, 34
1, 687081, Note_off_c, 0, 72, 40
1, 687093, Control_c, 0, 64, 33
1, 687108, Control_c, 0, 64, 32
1, 687110, Note_on_c, 0, 66, 37
1, 687122, Control_c, 0, 64, 31
1, 687137, Control_c, 0, 64, 30
1, 687152, Control_c, 0, 64, 30
1, 687161, Note_off_c, 0, 66, 62
1, 687167, Control_c, 0, 64, 29
1, 687181, Control_c, 0, 64, 28
1, 687194, Note_on_c, 0, 67, 45
1, 687196, Control_c, 0, 64, 28
1, 687211, Control_c, 0, 64, 27
1, 687226, Control_c, 0, 64, 26
1, 687241, Control_c, 0, 64, 25
1, 687251, Note_off_c, 0, 67, 58
1, 687256, Control_c, 0, 64, 24
1, 687271, Control_c, 0, 64, 23
1, 687279, Note_on_c, 0, 77, 52
1, 687286, Control_c, 0, 64, 23
1, 687288, Note_on_c, 0, 68, 48
1, 687295, Note_on_c, 0, 73, 39
1, 687301, Control_c, 0, 64, 22
1, 687315, Control_c, 0, 64, 21
1, 687325, Note_off_c, 0, 68, 64
1, 687329, Note_off_c, 0, 82, 56
1, 687330, Control_c, 0, 64, 20
1, 687359, Control_c, 0, 64, 19
1, 687384, Note_on_c, 0, 69, 44
1, 687406, Note_off_c, 0, 73, 55
1, 687442, Note_off_c, 0, 69, 60
1, 687483, Note_on_c, 0, 65, 41
1, 687542, Note_off_c, 0, 65, 58
1, 687579, Note_on_c, 0, 61, 44
1, 687644, Note_off_c, 0, 61, 53
1, 687671, Note_on_c, 0, 70, 29
1, 687682, Note_on_c, 0, 74, 41
1, 687683, Note_off_c, 0, 77, 55
1, 687705, Note_on_c, 0, 62, 25
1, 687761, Note_off_c, 0, 62, 49
1, 687792, Note_on_c, 0, 63, 37
1, 687798, Note_off_c, 0, 74, 59
1, 687855, Note_off_c, 0, 63, 54
1, 687915, Note_off_c, 0, 70, 54
1, 687925, Note_on_c, 0, 64, 36
1, 687983, Note_off_c, 0, 64, 56
1, 688029, Note_on_c, 0, 65, 30
1, 688075, Note_off_c, 0, 65, 46
1, 688236, Note_on_c, 0, 66, 44
1, 688246, Note_on_c, 0, 71, 54
1, 688287, Control_c, 0, 64, 20
1, 688302, Control_c, 0, 64, 21
1, 688314, Note_off_c, 0, 66, 59
1, 688326, Note_on_c, 0, 51, 57
1, 688330, Note_on_c, 0, 67, 58
1, 688332, Control_c, 0, 64, 21
1, 688365, Note_off_c, 0, 51, 63
1, 688408, Note_off_c, 0, 67, 62
1, 688420, Note_on_c, 0, 55, 61
1, 688426, Note_on_c, 0, 63, 49
1, 688448, Note_off_c, 0, 55, 66
1, 688466, Note_off_c, 0, 71, 58
1, 688520, Note_on_c, 0, 59, 68
1, 688543, Note_off_c, 0, 59, 64
1, 688623, Note_on_c, 0, 62, 74
1, 688625, Note_off_c, 0, 63, 55
1, 688707, Note_on_c, 0, 71, 47
1, 688792, Note_off_c, 0, 71, 56
1, 688826, Note_on_c, 0, 70, 50
1, 688857, Control_c, 0, 64, 22
1, 688857, Note_off_c, 0, 62, 64
1, 688874, Note_off_c, 0, 70, 61
1, 688922, Note_on_c, 0, 66, 86
1, 688930, Note_on_c, 0, 71, 66
1, 688930, Control_c, 0, 64, 23
1, 688960, Control_c, 0, 64, 23
1, 689036, Note_on_c, 0, 67, 67
1, 689049, Control_c, 0, 64, 24
1, 689065, Note_off_c, 0, 67, 67
1, 689065, Control_c, 0, 67, 110
1, 689065, Note_off_c, 0, 71, 57
1, 689080, Control_c, 0, 67, 94
1, 689095, Control_c, 0, 67, 78
1, 689100, Note_off_c, 0, 66, 61
1, 689109, Control_c, 0, 67, 59
1, 689124, Control_c, 0, 67, 42
1, 689134, Note_on_c, 0, 67, 76
1, 689138, Note_on_c, 0, 70, 75
1, 689139, Control_c, 0, 64, 24
1, 689139, Control_c, 0, 67, 23
1, 689153, Control_c, 0, 67, 0
1, 689161, Note_off_c, 0, 67, 65
1, 689240, Note_on_c, 0, 63, 73
1, 689271, Note_off_c, 0, 63, 70
1, 689295, Control_c, 0, 64, 25
1, 689337, Note_on_c, 0, 58, 78
1, 689360, Note_off_c, 0, 58, 67
1, 689442, Note_on_c, 0, 62, 81
1, 689471, Note_off_c, 0, 62, 66
1, 689473, Control_c, 0, 64, 25
1, 689508, Note_off_c, 0, 70, 60
1, 689521, Note_on_c, 0, 71, 66
1, 689533, Note_on_c, 0, 59, 79
1, 689570, Note_off_c, 0, 59, 59
1, 689597, Note_off_c, 0, 71, 59
1, 689629, Note_on_c, 0, 70, 58
1, 689632, Note_on_c, 0, 55, 69
1, 689662, Note_off_c, 0, 55, 64
1, 689695, Note_off_c, 0, 70, 60
1, 689709, Note_on_c, 0, 51, 65
1, 689721, Note_on_c, 0, 71, 60
1, 689763, Note_off_c, 0, 71, 65
1, 689814, Note_on_c, 0, 67, 78
1, 689850, Note_off_c, 0, 51, 63
1, 689900, Note_off_c, 0, 67, 55
1, 689908, Note_on_c, 0, 50, 60
1, 689910, Note_on_c, 0, 74, 62
1, 689913, Note_on_c, 0, 70, 60
1, 689946, Note_off_c, 0, 50, 62
1, 689995, Note_off_c, 0, 74, 63
1, 690013, Note_on_c, 0, 55, 70
1, 690015, Note_on_c, 0, 75, 66
1, 690049, Note_off_c, 0, 55, 66
1, 690091, Note_off_c, 0, 75, 60
1, 690097, Note_off_c, 0, 70, 63
1, 690108, Note_on_c, 0, 74, 71
1, 690111, Note_on_c, 0, 58, 80
1, 690139, Note_off_c, 0, 58, 65
1, 690192, Note_off_c, 0, 74, 48
1, 690195, Note_on_c, 0, 78, 83
1, 690201, Note_on_c, 0, 62, 91
1, 690272, Note_off_c, 0, 78, 59
1, 690317, Note_on_c, 0, 74, 45
1, 690318, Note_on_c, 0, 71, 60
1, 690371, Note_off_c, 0, 62, 63
1, 690395, Note_off_c, 0, 71, 63
1, 690396, Note_on_c, 0, 70, 76
1, 690446, Note_off_c, 0, 70, 61
1, 690473, Note_on_c, 0, 65, 97
1, 690495, Note_on_c, 0, 71, 77
1, 690518, Control_c, 0, 64, 26
1, 690536, Note_off_c, 0, 74, 34
1, 690595, Note_off_c, 0, 71, 62
1, 690603, Note_on_c, 0, 67, 65
1, 690621, Control_c, 0, 64, 26
1, 690656, Note_off_c, 0, 65, 60
1, 690669, Note_off_c, 0, 67, 61
1, 690687, Note_on_c, 0, 66, 86
1, 690693, Note_on_c, 0, 74, 72
1, 690697, Note_on_c, 0, 70, 65
1, 690711, Control_c, 0, 64, 27
1, 690733, Note_off_c, 0, 66, 60
1, 690785, Note_off_c, 0, 74, 63
1, 690788, Note_on_c, 0, 75, 77
1, 690797, Note_on_c, 0, 63, 78
1, 690841, Note_off_c, 0, 63, 59
1, 690877, Note_off_c, 0, 75, 62
1, 690882, Control_c, 0, 64, 27
1, 690885, Note_on_c, 0, 58, 75
1, 690886, Note_on_c, 0, 74, 76
1, 690895, Note_off_c, 0, 70, 57
1, 690911, Note_off_c, 0, 58, 66
1, 690978, Note_on_c, 0, 78, 87
1, 690994, Note_on_c, 0, 62, 74
1, 690994, Note_off_c, 0, 74, 55
1, 691023, Note_off_c, 0, 62, 65
1, 691078, Note_on_c, 0, 58, 67
1, 691078, Note_on_c, 0, 74, 55
1, 691082, Note_off_c, 0, 78, 60
1, 691087, Note_on_c, 0, 71, 68
1, 691153, Note_off_c, 0, 58, 54
1, 691161, Note_off_c, 0, 71, 63
1, 691175, Note_on_c, 0, 70, 68
1, 691182, Note_on_c, 0, 54, 63
1, 691235, Note_off_c, 0, 70, 57
1, 691245, Note_off_c, 0, 54, 64
1, 691258, Note_on_c, 0, 50, 58
1, 691268, Note_on_c, 0, 71, 64
1, 691314, Note_off_c, 0, 74, 62
1, 691316, Note_off_c, 0, 71, 63
1, 691340, Note_off_c, 0, 50, 63
1, 691359, Note_on_c, 0, 66, 83
1, 691389, Note_off_c, 0, 66, 66
1, 691450, Note_on_c, 0, 69, 93
1, 691548, Note_off_c, 0, 69, 57
1, 691552, Note_on_c, 0, 73, 93
1, 691581, Note_off_c, 0, 73, 68
1, 691640, Note_on_c, 0, 77, 92
1, 691655, Note_on_c, 0, 79, 73
1, 691671, Note_off_c, 0, 79, 45
1, 691686, Note_off_c, 0, 77, 67
1, 691739, Note_on_c, 0, 80, 102
1, 691830, Note_on_c, 0, 53, 91
1, 691853, Control_c, 0, 64, 28
1, 691868, Note_off_c, 0, 53, 63
1, 691927, Note_on_c, 0, 57, 90
1, 691934, Note_on_c, 0, 59, 77
1, 691951, Note_off_c, 0, 59, 67
1, 691957, Note_off_c, 0, 57, 68
1, 691963, Note_off_c, 0, 80, 62
1, 692022, Note_on_c, 0, 83, 106
1, 692025, Note_on_c, 0, 60, 99
1, 692050, Note_off_c, 0, 60, 69
1, 692135, Note_on_c, 0, 64, 109
1, 692180, Note_off_c, 0, 83, 62
1, 692237, Control_c, 0, 64, 33
1, 692254, Note_on_c, 0, 84, 99
1, 692260, Control_c, 0, 64, 41
1, 692275, Control_c, 0, 64, 49
1, 692290, Control_c, 0, 64, 53
1, 692305, Control_c, 0, 64, 57
1, 692320, Control_c, 0, 64, 60
1, 692334, Control_c, 0, 64, 63
1, 692342, Note_off_c, 0, 64, 62
1, 692349, Control_c, 0, 64, 65
1, 692352, Note_on_c, 0, 81, 93
1, 692363, Note_off_c, 0, 84, 67
1, 692364, Control_c, 0, 64, 67
1, 692378, Control_c, 0, 64, 71
1, 692393, Control_c, 0, 64, 76
1, 692408, Control_c, 0, 64, 84
1, 692413, Note_off_c, 0, 81, 64
1, 692423, Control_c, 0, 64, 90
1, 692438, Control_c, 0, 64, 91
1, 692449, Note_on_c, 0, 76, 89
1, 692452, Control_c, 0, 64, 89
1, 692454, Note_on_c, 0, 68, 102
1, 692467, Control_c, 0, 64, 82
1, 692470, Note_on_c, 0, 69, 85
1, 692482, Control_c, 0, 64, 70
1, 692484, Note_off_c, 0, 69, 70
1, 692497, Control_c, 0, 64, 55
1, 692504, Note_off_c, 0, 76, 66
1, 692512, Control_c, 0, 64, 0
1, 692562, Note_on_c, 0, 80, 91
1, 692619, Note_off_c, 0, 68, 58
1, 692649, Note_on_c, 0, 75, 93
1, 692661, Note_on_c, 0, 69, 86
1, 692681, Note_off_c, 0, 80, 63
1, 692713, Note_off_c, 0, 69, 61
1, 692744, Note_on_c, 0, 72, 85
1, 692756, Note_on_c, 0, 65, 82
1, 692768, Note_off_c, 0, 75, 59
1, 692788, Note_off_c, 0, 65, 65
1, 692833, Note_on_c, 0, 69, 81
1, 692845, Note_on_c, 0, 61, 83
1, 692845, Note_off_c, 0, 72, 62
1, 692882, Note_off_c, 0, 61, 61
1, 692946, Note_on_c, 0, 64, 89
1, 693006, Note_off_c, 0, 64, 64
1, 693028, Note_off_c, 0, 69, 55
1, 693043, Note_on_c, 0, 73, 78
1, 693046, Note_on_c, 0, 60, 81
1, 693090, Note_off_c, 0, 60, 61
1, 693105, Note_off_c, 0, 73, 65
1, 693146, Note_on_c, 0, 57, 82
1, 693151, Note_on_c, 0, 72, 65
1, 693189, Note_off_c, 0, 57, 62
1, 693211, Note_off_c, 0, 72, 63
1, 693235, Note_on_c, 0, 73, 73
1, 693242, Note_on_c, 0, 53, 71
1, 693316, Note_off_c, 0, 73, 51
1, 693336, Control_c, 0, 64, 23
1, 693345, Note_on_c, 0, 69, 66
1, 693350, Control_c, 0, 64, 51
1, 693365, Control_c, 0, 64, 62
1, 693370, Note_off_c, 0, 69, 67
1, 693380, Control_c, 0, 64, 68
1, 693395, Control_c, 0, 64, 78
1, 693409, Control_c, 0, 64, 100
1, 693412, Note_off_c, 0, 53, 59
1, 693424, Control_c, 0, 64, 127
1, 693471, Note_on_c, 0, 81, 76
1, 693482, Note_on_c, 0, 72, 57
1, 693569, Note_on_c, 0, 53, 42
1, 693574, Note_on_c, 0, 64, 54
1, 693574, Note_off_c, 0, 81, 62
1, 693576, Note_on_c, 0, 83, 74
1, 693613, Note_off_c, 0, 64, 62
1, 693652, Note_off_c, 0, 53, 59
1, 693658, Note_off_c, 0, 83, 61
1, 693670, Note_on_c, 0, 81, 69
1, 693774, Note_off_c, 0, 81, 64
1, 693776, Note_on_c, 0, 52, 59
1, 693778, Note_on_c, 0, 61, 51
1, 693779, Note_on_c, 0, 84, 71
1, 693787, Control_c, 0, 64, 97
1, 693795, Note_off_c, 0, 72, 64
1, 693802, Control_c, 0, 64, 70
1, 693817, Control_c, 0, 64, 60
1, 693832, Control_c, 0, 64, 61
1, 693847, Control_c, 0, 64, 65
1, 693862, Note_off_c, 0, 84, 62
1, 693862, Control_c, 0, 64, 70
1, 693876, Note_off_c, 0, 52, 59
1, 693877, Control_c, 0, 64, 82
1, 693888, Note_on_c, 0, 73, 76
1, 693892, Control_c, 0, 64, 127
1, 693917, Note_off_c, 0, 73, 65
1, 693978, Note_on_c, 0, 53, 81
1, 693997, Note_on_c, 0, 72, 78
1, 694013, Note_off_c, 0, 61, 55
1, 694055, Control_c, 0, 64, 113
1, 694070, Control_c, 0, 64, 79
1, 694070, Note_off_c, 0, 72, 63
1, 694076, Note_on_c, 0, 73, 75
1, 694085, Control_c, 0, 64, 69
1, 694099, Control_c, 0, 64, 70
1, 694100, Note_off_c, 0, 53, 64
1, 694114, Control_c, 0, 64, 77
1, 694129, Control_c, 0, 64, 93
1, 694144, Control_c, 0, 64, 127
1, 694164, Note_off_c, 0, 73, 60
1, 694183, Note_on_c, 0, 69, 54
1, 694194, Note_on_c, 0, 49, 88
1, 694204, Note_off_c, 0, 69, 59
1, 694218, Control_c, 0, 64, 114
1, 694232, Control_c, 0, 64, 73
1, 694247, Control_c, 0, 64, 58
1, 694262, Control_c, 0, 64, 53
1, 694277, Control_c, 0, 64, 59
1, 694288, Note_on_c, 0, 72, 65
1, 694292, Control_c, 0, 64, 64
1, 694294, Note_on_c, 0, 81, 64
1, 694300, Note_off_c, 0, 49, 60
1, 694306, Control_c, 0, 64, 71
1, 694321, Control_c, 0, 64, 86
1, 694336, Control_c, 0, 64, 127
1, 694380, Control_c, 0, 64, 118
1, 694392, Note_on_c, 0, 52, 77
1, 694395, Control_c, 0, 64, 78
1, 694398, Note_off_c, 0, 81, 65
1, 694404, Note_on_c, 0, 83, 75
1, 694410, Control_c, 0, 64, 64
1, 694425, Control_c, 0, 64, 63
1, 694431, Note_off_c, 0, 52, 64
1, 694440, Control_c, 0, 64, 67
1, 694455, Control_c, 0, 64, 75
1, 694470, Control_c, 0, 64, 91
1, 694479, Note_off_c, 0, 83, 60
1, 694485, Control_c, 0, 64, 127
1, 694494, Note_on_c, 0, 81, 54
1, 694503, Note_on_c, 0, 65, 61
1, 694557, Note_off_c, 0, 65, 57
1, 694583, Note_off_c, 0, 81, 61
1, 694583, Note_on_c, 0, 64, 61
1, 694594, Note_on_c, 0, 84, 72
1, 694604, Note_off_c, 0, 72, 63
1, 694613, Note_off_c, 0, 64, 64
1, 694651, Note_off_c, 0, 84, 62
1, 694713, Note_on_c, 0, 73, 61
1, 694746, Note_off_c, 0, 73, 65
1, 694829, Note_on_c, 0, 41, 79
1, 694832, Note_on_c, 0, 53, 78
1, 694840, Note_on_c, 0, 72, 64
1, 694848, Control_c, 0, 64, 94
1, 694863, Control_c, 0, 64, 71
1, 694878, Control_c, 0, 64, 60
1, 694893, Control_c, 0, 64, 54
1, 694908, Control_c, 0, 64, 61
1, 694921, Note_off_c, 0, 72, 62
1, 694922, Control_c, 0, 64, 65
1, 694932, Note_on_c, 0, 73, 67
1, 694937, Control_c, 0, 64, 73
1, 694952, Control_c, 0, 64, 89
1, 694962, Note_off_c, 0, 53, 60
1, 694967, Control_c, 0, 64, 127
1, 695007, Note_off_c, 0, 41, 60
1, 695047, Note_off_c, 0, 73, 50
1, 695060, Note_on_c, 0, 69, 53
1, 695090, Note_off_c, 0, 69, 65
1, 695099, Note_on_c, 0, 40, 89
1, 695099, Note_on_c, 0, 52, 85
1, 695177, Note_off_c, 0, 52, 63
1, 695197, Note_off_c, 0, 40, 63
1, 695207, Note_on_c, 0, 81, 80
1, 695215, Note_on_c, 0, 72, 56
1, 695322, Note_on_c, 0, 41, 74
1, 695323, Note_off_c, 0, 81, 62
1, 695325, Note_on_c, 0, 83, 75
1, 695326, Note_on_c, 0, 53, 76
1, 695327, Note_on_c, 0, 55, 78
1, 695336, Note_on_c, 0, 43, 75
1, 695353, Note_off_c, 0, 55, 68
1, 695362, Note_off_c, 0, 43, 53
1, 695364, Note_off_c, 0, 53, 64
1, 695388, Note_off_c, 0, 41, 61
1, 695415, Note_off_c, 0, 83, 62
1, 695420, Note_on_c, 0, 81, 77
1, 695501, Note_on_c, 0, 49, 93
1, 695501, Note_off_c, 0, 72, 64
1, 695509, Note_on_c, 0, 37, 85
1, 695510, Note_off_c, 0, 81, 62
1, 695522, Note_on_c, 0, 84, 70
1, 695523, Control_c, 0, 64, 81
1, 695533, Note_on_c, 0, 83, 73
1, 695538, Control_c, 0, 64, 60
1, 695552, Control_c, 0, 64, 0
1, 695582, Control_c, 0, 64, 20
1, 695597, Note_off_c, 0, 37, 60
1, 695597, Control_c, 0, 64, 54
1, 695601, Note_off_c, 0, 49, 60
1, 695605, Note_on_c, 0, 73, 87
1, 695608, Note_off_c, 0, 84, 61
1, 695611, Control_c, 0, 64, 66
1, 695612, Note_on_c, 0, 81, 65
1, 695626, Control_c, 0, 64, 82
1, 695635, Note_off_c, 0, 83, 25
1, 695641, Note_off_c, 0, 81, 69
1, 695641, Control_c, 0, 64, 127
1, 695651, Note_off_c, 0, 73, 67
1, 695684, Note_on_c, 0, 52, 96
1, 695689, Note_on_c, 0, 40, 92
1, 695716, Note_on_c, 0, 72, 94
1, 695720, Note_off_c, 0, 40, 67
1, 695731, Note_off_c, 0, 52, 67
1, 695813, Note_on_c, 0, 73, 95
1, 695818, Note_off_c, 0, 72, 66
1, 695849, Note_off_c, 0, 73, 68
1, 695897, Note_on_c, 0, 61, 91
1, 695898, Note_on_c, 0, 69, 101
1, 695966, Note_off_c, 0, 61, 56
1, 695979, Note_off_c, 0, 69, 60
1, 695983, Note_on_c, 0, 65, 70
1, 696007, Note_on_c, 0, 72, 82
1, 696009, Note_on_c, 0, 81, 79
1, 696011, Note_on_c, 0, 79, 82
1, 696015, Note_off_c, 0, 65, 66
1, 696130, Note_on_c, 0, 53, 101
1, 696132, Note_on_c, 0, 41, 93
1, 696137, Note_off_c, 0, 79, 63
1, 696138, Control_c, 0, 64, 79
1, 696139, Note_on_c, 0, 83, 88
1, 696147, Note_off_c, 0, 81, 64
1, 696152, Control_c, 0, 64, 46
1, 696167, Control_c, 0, 64, 0
1, 696199, Note_off_c, 0, 72, 61
1, 696211, Control_c, 0, 64, 35
1, 696226, Control_c, 0, 64, 61
1, 696241, Note_on_c, 0, 81, 89
1, 696241, Control_c, 0, 64, 78
1, 696257, Control_c, 0, 64, 127
1, 696285, Note_off_c, 0, 41, 62
1, 696285, Note_off_c, 0, 83, 51
1, 696302, Note_off_c, 0, 81, 64
1, 696318, Note_off_c, 0, 53, 64
1, 696359, Note_on_c, 0, 84, 96
1, 696396, Note_off_c, 0, 84, 67
1, 696458, Note_on_c, 0, 61, 84
1, 696459, Note_on_c, 0, 81, 92
1, 696466, Note_on_c, 0, 69, 74
1, 696491, Note_off_c, 0, 69, 69
1, 696494, Note_on_c, 0, 71, 45
1, 696499, Note_off_c, 0, 81, 67
1, 696517, Note_off_c, 0, 61, 60
1, 696518, Note_off_c, 0, 71, 58
1, 696565, Note_on_c, 0, 60, 80
1, 696571, Note_on_c, 0, 84, 103
1, 696574, Note_on_c, 0, 72, 92
1, 696594, Note_off_c, 0, 72, 69
1, 696607, Note_off_c, 0, 84, 70
1, 696673, Note_off_c, 0, 60, 55
1, 696679, Note_on_c, 0, 61, 81
1, 696736, Note_off_c, 0, 61, 60
1, 696768, Control_c, 0, 64, 74
1, 696783, Control_c, 0, 64, 37
1, 696789, Note_on_c, 0, 52, 64
1, 696789, Note_on_c, 0, 57, 66
1, 696795, Note_on_c, 0, 72, 94
1, 696796, Note_on_c, 0, 84, 101
1, 696798, Control_c, 0, 64, 0
1, 696829, Note_off_c, 0, 72, 64
1, 696836, Note_off_c, 0, 84, 68
1, 696842, Control_c, 0, 64, 32
1, 696857, Control_c, 0, 64, 62
1, 696872, Control_c, 0, 64, 77
1, 696887, Control_c, 0, 64, 127
1, 696902, Note_off_c, 0, 57, 54
1, 696903, Note_on_c, 0, 88, 106
1, 696904, Note_on_c, 0, 76, 97
1, 696905, Note_on_c, 0, 60, 77
1, 696931, Note_off_c, 0, 76, 65
1, 696938, Note_off_c, 0, 88, 71
1, 696965, Note_off_c, 0, 60, 62
1, 696997, Note_off_c, 0, 52, 47
1, 697004, Note_on_c, 0, 59, 74
1, 697084, Note_off_c, 0, 59, 59
1, 697099, Note_on_c, 0, 60, 72
1, 697117, Note_on_c, 0, 88, 100
1, 697117, Note_on_c, 0, 76, 98
1, 697144, Note_off_c, 0, 76, 65
1, 697148, Note_off_c, 0, 88, 69
1, 697154, Control_c, 0, 64, 78
1, 697168, Note_off_c, 0, 60, 64
1, 697169, Control_c, 0, 64, 35
1, 697184, Control_c, 0, 64, 0
1, 697195, Note_on_c, 0, 53, 76
1, 697215, Note_on_c, 0, 92, 116
1, 697218, Note_on_c, 0, 80, 87
1, 697222, Note_on_c, 0, 57, 71
1, 697228, Control_c, 0, 64, 46
1, 697239, Note_off_c, 0, 80, 69
1, 697243, Control_c, 0, 64, 70
1, 697251, Note_off_c, 0, 92, 65
1, 697257, Control_c, 0, 64, 115
1, 697272, Control_c, 0, 64, 127
1, 697298, Note_off_c, 0, 53, 64
1, 697333, Note_on_c, 0, 61, 83
1, 697346, Note_off_c, 0, 57, 63
1, 697414, Note_on_c, 0, 60, 83
1, 697425, Note_on_c, 0, 92, 101
1, 697428, Note_on_c, 0, 80, 88
1, 697428, Note_off_c, 0, 61, 33
1, 697436, Note_off_c, 0, 60, 70
1, 697451, Note_off_c, 0, 80, 66
1, 697462, Note_off_c, 0, 92, 65
1, 697519, Note_on_c, 0, 61, 54
1, 697531, Note_on_c, 0, 95, 115
1, 697533, Note_on_c, 0, 83, 105
1, 697558, Note_off_c, 0, 61, 62
1, 697561, Control_c, 0, 64, 79
1, 697575, Control_c, 0, 64, 49
1, 697590, Control_c, 0, 64, 0
1, 697635, Control_c, 0, 64, 45
1, 697642, Note_off_c, 0, 83, 58
1, 697643, Note_on_c, 0, 49, 75
1, 697644, Note_on_c, 0, 57, 84
1, 697649, Control_c, 0, 64, 68
1, 697663, Note_on_c, 0, 88, 47
1, 697664, Control_c, 0, 64, 110
1, 697679, Note_off_c, 0, 49, 63
1, 697679, Control_c, 0, 64, 127
1, 697681, Note_off_c, 0, 95, 65
1, 697698, Note_off_c, 0, 88, 67
1, 697712, Note_off_c, 0, 57, 63
1, 697724, Poly_aftertouch_c, 0, 56, 127
1, 697748, Poly_aftertouch_c, 0, 56, 0
1, 697762, Note_on_c, 0, 84, 105
1, 697762, Note_on_c, 0, 96, 107
1, 697773, Note_on_c, 0, 67, 82
1, 697824, Note_off_c, 0, 96, 64
1, 697828, Note_off_c, 0, 67, 61
1, 697849, Note_off_c, 0, 84, 61
1, 697898, Note_on_c, 0, 93, 108
1, 697903, Note_on_c, 0, 64, 77
1, 697910, Note_on_c, 0, 65, 84
1, 697940, Note_off_c, 0, 65, 59
1, 697946, Note_off_c, 0, 64, 64
1, 697959, Note_off_c, 0, 93, 67
1, 698003, Note_on_c, 0, 65, 84
1, 698021, Note_on_c, 0, 88, 107
1, 698040, Note_off_c, 0, 65, 60
1, 698092, Note_off_c, 0, 88, 60
1, 698154, Control_c, 0, 64, 116
1, 698169, Note_on_c, 0, 48, 96
1, 698169, Control_c, 0, 64, 68
1, 698171, Note_on_c, 0, 52, 93
1, 698172, Note_on_c, 0, 40, 91
1, 698178, Note_on_c, 0, 92, 107
1, 698178, Note_on_c, 0, 80, 99
1, 698184, Control_c, 0, 64, 27
1, 698190, Note_off_c, 0, 48, 71
1, 698194, Note_off_c, 0, 40, 67
1, 698199, Control_c, 0, 64, 0
1, 698201, Note_off_c, 0, 52, 65
1, 698214, Control_c, 0, 64, 43
1, 698228, Control_c, 0, 64, 61
1, 698244, Note_off_c, 0, 92, 64
1, 698250, Control_c, 0, 64, 72
1, 698265, Control_c, 0, 64, 116
1, 698279, Control_c, 0, 64, 127
1, 698294, Note_on_c, 0, 90, 27
1, 698326, Note_off_c, 0, 90, 45
1, 698332, Note_on_c, 0, 87, 80
1, 698337, Note_on_c, 0, 63, 80
1, 698341, Note_off_c, 0, 80, 62
1, 698357, Poly_aftertouch_c, 0, 40, 0
1, 698362, Note_off_c, 0, 63, 68
1, 698417, Note_on_c, 0, 84, 84
1, 698425, Note_on_c, 0, 64, 92
1, 698462, Note_off_c, 0, 64, 69
1, 698470, Note_off_c, 0, 87, 63
1, 698509, Note_on_c, 0, 81, 86
1, 698512, Note_off_c, 0, 84, 66
1, 698521, Note_on_c, 0, 65, 87
1, 698534, Note_off_c, 0, 81, 67
1, 698565, Note_off_c, 0, 65, 65
1, 698616, Note_on_c, 0, 68, 103
1, 698658, Note_off_c, 0, 68, 64
1, 698706, Note_on_c, 0, 69, 100
1, 698710, Control_c, 0, 64, 81
1, 698725, Control_c, 0, 64, 59
1, 698732, Note_on_c, 0, 59, 67
1, 698732, Note_on_c, 0, 60, 65
1, 698740, Control_c, 0, 64, 0
1, 698777, Note_off_c, 0, 59, 53
1, 698788, Note_off_c, 0, 60, 40
1, 698811, Note_on_c, 0, 57, 78
1, 698861, Note_off_c, 0, 57, 64
1, 698908, Note_on_c, 0, 52, 88
1, 698947, Note_off_c, 0, 52, 66
1, 699004, Note_on_c, 0, 56, 90
1, 699073, Note_off_c, 0, 69, 62
1, 699106, Note_on_c, 0, 51, 74
1, 699111, Note_on_c, 0, 72, 66
1, 699130, Note_off_c, 0, 56, 60
1, 699155, Note_off_c, 0, 72, 62
1, 699200, Note_on_c, 0, 48, 60
1, 699209, Note_on_c, 0, 75, 80
1, 699211, Note_off_c, 0, 51, 62
1, 699260, Note_off_c, 0, 48, 61
1, 699260, Note_off_c, 0, 75, 53
1, 699272, Note_on_c, 0, 45, 62
1, 699295, Note_off_c, 0, 45, 59
1, 699299, Note_on_c, 0, 76, 82
1, 699370, Note_off_c, 0, 76, 66
1, 699415, Note_on_c, 0, 77, 82
1, 699478, Note_off_c, 0, 77, 61
1, 699516, Note_on_c, 0, 84, 80
1, 699517, Note_on_c, 0, 96, 98
1, 699523, Note_on_c, 0, 80, 83
1, 699544, Note_off_c, 0, 84, 63
1, 699546, Note_off_c, 0, 80, 66
1, 699564, Note_off_c, 0, 96, 67
1, 699627, Note_on_c, 0, 93, 87
1, 699689, Note_off_c, 0, 93, 65
1, 699728, Note_on_c, 0, 88, 74
1, 699758, Note_off_c, 0, 88, 71
1, 699836, Note_on_c, 0, 80, 84
1, 699837, Note_on_c, 0, 92, 94
1, 699859, Note_off_c, 0, 92, 64
1, 699862, Note_off_c, 0, 80, 64
1, 699921, Note_on_c, 0, 76, 76
1, 699937, Note_on_c, 0, 87, 83
1, 699948, Note_off_c, 0, 76, 69
1, 699988, Note_off_c, 0, 87, 62
1, 700034, Note_on_c, 0, 77, 77
1, 700036, Note_on_c, 0, 84, 76
1, 700048, Note_off_c, 0, 77, 68
1, 700098, Note_off_c, 0, 84, 62
1, 700123, Note_on_c, 0, 81, 70
1, 700150, Note_off_c, 0, 81, 69
1, 700212, Note_on_c, 0, 84, 99
1, 700219, Note_on_c, 0, 72, 89
1, 700249, Note_off_c, 0, 72, 65
1, 700263, Note_off_c, 0, 84, 63
1, 700314, Note_on_c, 0, 66, 74
1, 700315, Note_on_c, 0, 81, 82
1, 700339, Note_off_c, 0, 66, 69
1, 700363, Note_off_c, 0, 81, 64
1, 700400, Note_on_c, 0, 61, 84
1, 700402, Note_on_c, 0, 76, 93
1, 700421, Note_off_c, 0, 61, 70
1, 700425, Note_off_c, 0, 76, 70
1, 700501, Note_on_c, 0, 68, 99
1, 700503, Note_on_c, 0, 80, 103
1, 700538, Note_off_c, 0, 68, 67
1, 700542, Note_off_c, 0, 80, 66
1, 700607, Note_on_c, 0, 75, 87
1, 700655, Note_off_c, 0, 75, 65
1, 700694, Note_on_c, 0, 52, 84
1, 700702, Note_on_c, 0, 72, 83
1, 700717, Note_off_c, 0, 52, 70
1, 700762, Note_off_c, 0, 72, 63
1, 700791, Note_on_c, 0, 69, 74
1, 700795, Note_on_c, 0, 53, 87
1, 700817, Note_off_c, 0, 69, 65
1, 700819, Note_off_c, 0, 53, 69
1, 700879, Note_on_c, 0, 72, 97
1, 700885, Note_on_c, 0, 60, 91
1, 700914, Note_off_c, 0, 60, 67
1, 700921, Note_off_c, 0, 72, 66
1, 700987, Note_on_c, 0, 69, 84
1, 701026, Note_off_c, 0, 69, 64
1, 701066, Note_on_c, 0, 42, 69
1, 701085, Note_on_c, 0, 64, 74
1, 701095, Note_off_c, 0, 42, 65
1, 701120, Note_off_c, 0, 64, 66
1, 701161, Note_on_c, 0, 60, 77
1, 701172, Note_on_c, 0, 37, 73
1, 701185, Note_off_c, 0, 60, 69
1, 701200, Note_off_c, 0, 37, 65
1, 701314, Note_on_c, 0, 91, 102
1, 701319, Note_on_c, 0, 79, 98
1, 701347, Note_off_c, 0, 79, 64
1, 701405, Note_off_c, 0, 91, 50
1, 701429, Note_on_c, 0, 86, 76
1, 701517, Note_on_c, 0, 83, 80
1, 701523, Note_off_c, 0, 86, 63
1, 701527, Note_on_c, 0, 75, 90
1, 701544, Note_off_c, 0, 75, 72
1, 701572, Note_off_c, 0, 83, 65
1, 701606, Note_on_c, 0, 76, 106
1, 701608, Note_on_c, 0, 80, 74
1, 701621, Note_off_c, 0, 76, 76
1, 701621, Note_off_c, 0, 80, 68
1, 701694, Note_on_c, 0, 83, 98
1, 701708, Note_on_c, 0, 71, 80
1, 701731, Note_off_c, 0, 71, 68
1, 701749, Note_off_c, 0, 83, 62
1, 701796, Note_on_c, 0, 65, 89
1, 701799, Note_on_c, 0, 80, 87
1, 701832, Note_off_c, 0, 65, 63
1, 701883, Note_on_c, 0, 60, 90
1, 701883, Note_off_c, 0, 80, 64
1, 701892, Note_on_c, 0, 75, 78
1, 701901, Note_off_c, 0, 60, 73
1, 701913, Note_off_c, 0, 75, 70
1, 701960, Note_on_c, 0, 79, 104
1, 701974, Note_on_c, 0, 67, 77
1, 702006, Note_off_c, 0, 67, 70
1, 702024, Note_off_c, 0, 79, 58
1, 702062, Note_on_c, 0, 51, 94
1, 702063, Note_on_c, 0, 75, 82
1, 702089, Note_off_c, 0, 51, 65
1, 702112, Note_off_c, 0, 75, 61
1, 702129, Note_on_c, 0, 74, 54
1, 702155, Note_on_c, 0, 52, 98
1, 702164, Note_on_c, 0, 71, 80
1, 702172, Note_off_c, 0, 74, 61
1, 702189, Note_off_c, 0, 52, 66
1, 702226, Note_off_c, 0, 71, 63
1, 702241, Note_on_c, 0, 68, 85
1, 702271, Note_off_c, 0, 68, 64
1, 702327, Note_on_c, 0, 40, 95
1, 702327, Note_on_c, 0, 71, 100
1, 702329, Note_on_c, 0, 41, 91
1, 702356, Note_off_c, 0, 41, 68
1, 702360, Note_off_c, 0, 40, 67
1, 702435, Note_on_c, 0, 35, 71
1, 702438, Note_off_c, 0, 71, 59
1, 702440, Note_on_c, 0, 68, 81
1, 702445, Note_on_c, 0, 36, 65
1, 702469, Note_off_c, 0, 35, 63
1, 702476, Note_off_c, 0, 36, 62
1, 702532, Note_off_c, 0, 68, 59
1, 702535, Note_on_c, 0, 63, 80
1, 702588, Note_off_c, 0, 63, 62
1, 702615, Note_on_c, 0, 47, 91
1, 702617, Note_on_c, 0, 35, 81
1, 702617, Control_c, 0, 64, 66
1, 702617, Note_on_c, 0, 67, 98
1, 702632, Control_c, 0, 64, 95
1, 702640, Note_off_c, 0, 47, 68
1, 702644, Note_off_c, 0, 35, 64
1, 702647, Control_c, 0, 64, 127
1, 702752, Note_on_c, 0, 50, 91
1, 702768, Note_on_c, 0, 62, 75
1, 702773, Note_on_c, 0, 38, 53
1, 702773, Note_off_c, 0, 67, 60
1, 702776, Note_off_c, 0, 50, 68
1, 702786, Note_on_c, 0, 36, 33
1, 702806, Note_off_c, 0, 38, 52
1, 702828, Note_off_c, 0, 36, 50
1, 702843, Note_on_c, 0, 59, 86
1, 702856, Note_off_c, 0, 62, 63
1, 702862, Note_on_c, 0, 54, 99
1, 702867, Note_on_c, 0, 42, 85
1, 702870, Note_off_c, 0, 59, 66
1, 702885, Note_off_c, 0, 54, 69
1, 702893, Note_off_c, 0, 42, 66
1, 702950, Control_c, 0, 64, 68
1, 702959, Note_on_c, 0, 58, 105
1, 702962, Note_on_c, 0, 46, 97
1, 702965, Control_c, 0, 64, 28
1, 702980, Control_c, 0, 64, 0
1, 702995, Control_c, 0, 64, 16
1, 703010, Control_c, 0, 64, 57
1, 703025, Control_c, 0, 64, 72
1, 703040, Control_c, 0, 64, 127
1, 703063, Note_on_c, 0, 77, 82
1, 703084, Note_on_c, 0, 72, 71
1, 703096, Note_off_c, 0, 77, 61
1, 703121, Note_off_c, 0, 58, 62
1, 703127, Note_off_c, 0, 46, 62
1, 703150, Note_off_c, 0, 72, 60
1, 703160, Note_on_c, 0, 78, 96
1, 703162, Note_on_c, 0, 66, 87
1, 703232, Control_c, 0, 64, 94
1, 703242, Note_on_c, 0, 61, 107
1, 703246, Note_on_c, 0, 49, 99
1, 703247, Control_c, 0, 64, 61
1, 703261, Control_c, 0, 64, 0
1, 703266, Note_off_c, 0, 66, 61
1, 703275, Note_off_c, 0, 78, 61
1, 703300, Note_on_c, 0, 48, 12
1, 703306, Control_c, 0, 64, 59
1, 703321, Control_c, 0, 64, 96
1, 703335, Control_c, 0, 64, 127
1, 703346, Note_off_c, 0, 48, 29
1, 703347, Note_on_c, 0, 79, 91
1, 703350, Note_on_c, 0, 67, 96
1, 703382, Note_off_c, 0, 49, 60
1, 703390, Note_off_c, 0, 61, 58
1, 703403, Note_off_c, 0, 67, 64
1, 703422, Note_on_c, 0, 77, 28
1, 703451, Note_on_c, 0, 74, 81
1, 703454, Note_on_c, 0, 62, 94
1, 703454, Note_on_c, 0, 71, 79
1, 703455, Note_off_c, 0, 77, 56
1, 703458, Note_off_c, 0, 79, 62
1, 703460, Note_on_c, 0, 50, 78
1, 703493, Note_off_c, 0, 62, 61
1, 703497, Note_off_c, 0, 50, 68
1, 703509, Note_off_c, 0, 71, 67
1, 703523, Note_off_c, 0, 74, 67
1, 703581, Note_on_c, 0, 60, 89
1, 703582, Note_on_c, 0, 59, 83
1, 703589, Note_on_c, 0, 47, 72
1, 703597, Note_on_c, 0, 48, 58
1, 703600, Note_off_c, 0, 60, 73
1, 703603, Note_off_c, 0, 59, 72
1, 703610, Note_off_c, 0, 47, 62
1, 703621, Note_off_c, 0, 48, 60
1, 703683, Note_on_c, 0, 54, 98
1, 703687, Note_on_c, 0, 42, 92
1, 703699, Control_c, 0, 64, 85
1, 703714, Control_c, 0, 64, 50
1, 703717, Note_off_c, 0, 42, 66
1, 703725, Note_off_c, 0, 54, 63
1, 703729, Control_c, 0, 64, 0
1, 703803, Control_c, 0, 64, 56
1, 703808, Note_on_c, 0, 46, 79
1, 703809, Note_on_c, 0, 58, 83
1, 703812, Note_on_c, 0, 56, 79
1, 703818, Control_c, 0, 64, 87
1, 703833, Control_c, 0, 64, 127
1, 703857, Note_on_c, 0, 45, 27
1, 703863, Note_off_c, 0, 58, 64
1, 703870, Note_off_c, 0, 46, 63
1, 703875, Note_off_c, 0, 56, 62
1, 703899, Note_off_c, 0, 45, 43
1, 703918, Note_on_c, 0, 69, 75
1, 703926, Note_on_c, 0, 78, 64
1, 703929, Note_on_c, 0, 79, 74
1, 703961, Note_off_c, 0, 79, 62
1, 703961, Note_off_c, 0, 78, 66
1, 703968, Note_off_c, 0, 69, 61
1, 703982, Note_on_c, 0, 64, 83
1, 704021, Note_on_c, 0, 74, 83
1, 704024, Note_on_c, 0, 81, 81
1, 704026, Note_off_c, 0, 64, 61
1, 704045, Note_off_c, 0, 81, 71
1, 704076, Note_off_c, 0, 74, 64
1, 704104, Note_on_c, 0, 65, 81
1, 704110, Note_on_c, 0, 53, 84
1, 704119, Note_on_c, 0, 61, 64
1, 704123, Note_on_c, 0, 70, 99
1, 704125, Note_off_c, 0, 65, 71
1, 704128, Note_on_c, 0, 82, 86
1, 704138, Note_off_c, 0, 61, 63
1, 704141, Note_off_c, 0, 53, 65
1, 704150, Note_off_c, 0, 82, 68
1, 704153, Note_on_c, 0, 80, 58
1, 704169, Note_off_c, 0, 70, 67
1, 704183, Note_off_c, 0, 80, 65
1, 704219, Note_on_c, 0, 73, 90
1, 704220, Note_on_c, 0, 77, 88
1, 704304, Note_off_c, 0, 77, 65
1, 704310, Note_off_c, 0, 73, 62
1, 704316, Control_c, 0, 64, 67
1, 704322, Note_on_c, 0, 53, 114
1, 704325, Note_on_c, 0, 41, 103
1, 704331, Control_c, 0, 64, 0
1, 704363, Note_off_c, 0, 41, 68
1, 704367, Note_on_c, 0, 42, 39
1, 704375, Control_c, 0, 64, 49
1, 704390, Control_c, 0, 64, 72
1, 704393, Note_off_c, 0, 53, 62
1, 704405, Control_c, 0, 64, 127
1, 704415, Note_off_c, 0, 42, 33
1, 704423, Note_on_c, 0, 72, 93
1, 704425, Note_on_c, 0, 83, 93
1, 704460, Note_off_c, 0, 72, 67
1, 704463, Note_off_c, 0, 83, 66
1, 704484, Note_on_c, 0, 67, 91
1, 704517, Note_off_c, 0, 67, 61
1, 704522, Note_on_c, 0, 84, 99
1, 704539, Note_on_c, 0, 76, 81
1, 704540, Note_on_c, 0, 77, 83
1, 704563, Note_off_c, 0, 84, 67
1, 704573, Note_off_c, 0, 76, 63
1, 704587, Note_off_c, 0, 77, 61
1, 704602, Note_on_c, 0, 68, 98
1, 704614, Note_on_c, 0, 65, 73
1, 704617, Note_on_c, 0, 56, 80
1, 704637, Note_on_c, 0, 73, 99
1, 704639, Note_off_c, 0, 68, 67
1, 704642, Note_on_c, 0, 85, 97
1, 704642, Note_off_c, 0, 65, 66
1, 704649, Note_on_c, 0, 58, 16
1, 704676, Note_off_c, 0, 56, 65
1, 704680, Note_off_c, 0, 85, 65
1, 704688, Note_off_c, 0, 73, 64
1, 704689, Note_off_c, 0, 58, 49
1, 704730, Note_on_c, 0, 76, 84
1, 704737, Note_on_c, 0, 80, 96
1, 704783, Note_off_c, 0, 76, 62
1, 704789, Note_on_c, 0, 81, 31
1, 704805, Control_c, 0, 64, 78
1, 704808, Note_off_c, 0, 80, 65
1, 704819, Note_off_c, 0, 81, 53
1, 704819, Control_c, 0, 64, 37
1, 704822, Note_on_c, 0, 50, 126
1, 704826, Note_on_c, 0, 38, 102
1, 704834, Control_c, 0, 64, 0
1, 704839, Note_on_c, 0, 39, 85
1, 704839, Note_on_c, 0, 44, 78
1, 704864, Control_c, 0, 64, 55
1, 704874, Note_off_c, 0, 44, 64
1, 704875, Note_off_c, 0, 38, 65
1, 704878, Note_off_c, 0, 39, 64
1, 704879, Control_c, 0, 64, 75
1, 704894, Control_c, 0, 64, 127
1, 704900, Note_off_c, 0, 50, 63
1, 704927, Note_on_c, 0, 76, 98
1, 704929, Note_on_c, 0, 87, 95
1, 704966, Note_off_c, 0, 76, 65
1, 704967, Note_off_c, 0, 87, 66
1, 705014, Note_on_c, 0, 65, 93
1, 705035, Note_on_c, 0, 71, 73
1, 705039, Note_on_c, 0, 81, 94
1, 705046, Note_on_c, 0, 89, 84
1, 705055, Note_on_c, 0, 88, 67
1, 705061, Note_off_c, 0, 71, 67
1, 705066, Note_off_c, 0, 89, 70
1, 705071, Note_off_c, 0, 88, 66
1, 705087, Note_off_c, 0, 65, 56
1, 705088, Note_off_c, 0, 81, 67
1, 705126, Note_on_c, 0, 68, 90
1, 705127, Note_on_c, 0, 60, 90
1, 705127, Note_on_c, 0, 72, 85
1, 705141, Note_on_c, 0, 77, 112
1, 705141, Note_on_c, 0, 89, 100
1, 705147, Note_off_c, 0, 72, 71
1, 705150, Note_off_c, 0, 68, 66
1, 705174, Note_off_c, 0, 60, 68
1, 705185, Note_off_c, 0, 89, 59
1, 705207, Note_on_c, 0, 88, 15
1, 705228, Poly_aftertouch_c, 0, 63, 0
1, 705239, Note_on_c, 0, 80, 94
1, 705240, Note_on_c, 0, 84, 84
1, 705256, Note_off_c, 0, 88, 33
1, 705259, Note_off_c, 0, 77, 60
1, 705344, Note_off_c, 0, 84, 62
1, 705350, Note_on_c, 0, 47, 111
1, 705354, Note_on_c, 0, 35, 109
1, 705361, Control_c, 0, 64, 79
1, 705365, Note_off_c, 0, 80, 63
1, 705368, Note_on_c, 0, 36, 79
1, 705371, Note_on_c, 0, 37, 76
1, 705371, Note_on_c, 0, 41, 71
1, 705376, Control_c, 0, 64, 19
1, 705391, Control_c, 0, 64, 0
1, 705405, Control_c, 0, 64, 36
1, 705417, Note_off_c, 0, 35, 64
1, 705420, Control_c, 0, 64, 64
1, 705435, Control_c, 0, 64, 84
1, 705441, Note_off_c, 0, 36, 63
1, 705449, Control_c, 0, 64, 127
1, 705453, Note_off_c, 0, 41, 64
1, 705462, Note_off_c, 0, 47, 66
1, 705469, Note_off_c, 0, 37, 56
1, 705501, Note_on_c, 0, 80, 109
1, 705505, Note_on_c, 0, 91, 112
1, 705562, Note_off_c, 0, 91, 64
1, 705595, Note_off_c, 0, 80, 61
1, 705600, Note_on_c, 0, 68, 67
1, 705604, Note_on_c, 0, 69, 95
1, 705604, Note_on_c, 0, 76, 95
1, 705613, Note_on_c, 0, 74, 61
1, 705614, Note_off_c, 0, 74, 127
1, 705620, Note_off_c, 0, 68, 44
1, 705633, Poly_aftertouch_c, 0, 74, 0
1, 705642, Note_off_c, 0, 76, 66
1, 705660, Note_on_c, 0, 92, 103
1, 705662, Note_on_c, 0, 85, 105
1, 705750, Note_off_c, 0, 92, 65
1, 705779, Note_off_c, 0, 85, 60
1, 705816, Note_on_c, 0, 65, 95
1, 705829, Note_on_c, 0, 77, 126
1, 705835, Note_on_c, 0, 81, 120
1, 705836, Note_on_c, 0, 93, 111
1, 705847, Note_on_c, 0, 72, 62
1, 705860, Note_on_c, 0, 70, 55
1, 705861, Note_off_c, 0, 70, 127
1, 705869, Note_on_c, 0, 73, 40
1, 705882, Note_on_c, 0, 68, 11
1, 705883, Note_off_c, 0, 68, 127
1, 705886, Note_on_c, 0, 90, 23
1, 705901, Note_off_c, 0, 73, 33
1, 705919, Note_off_c, 0, 90, 34
1, 705923, Note_off_c, 0, 93, 60
1, 705954, Note_off_c, 0, 81, 61
1, 706011, Note_on_c, 0, 84, 116
1, 706012, Note_on_c, 0, 88, 108
1, 706048, Note_off_c, 0, 77, 58
1, 706083, Note_off_c, 0, 88, 66
1, 706093, Note_off_c, 0, 84, 66
1, 706112, Note_off_c, 0, 72, 62
1, 706123, Note_off_c, 0, 65, 61
1, 706134, Note_on_c, 0, 67, 44
1, 706143, Note_off_c, 0, 69, 57
1, 706161, Note_off_c, 0, 67, 54
1, 706391, Control_c, 0, 64, 59
1, 706398, Note_on_c, 0, 44, 108
1, 706398, Note_on_c, 0, 46, 117
1, 706400, Note_on_c, 0, 34, 114
1, 706405, Note_on_c, 0, 22, 97
1, 706406, Control_c, 0, 64, 0
1, 706423, Note_on_c, 0, 45, 58
1, 706424, Note_off_c, 0, 45, 127
1, 706424, Note_on_c, 0, 25, 60
1, 706427, Note_on_c, 0, 23, 63
1, 706436, Control_c, 0, 64, 12
1, 706438, Note_on_c, 0, 21, 54
1, 706451, Control_c, 0, 64, 57
1, 706466, Control_c, 0, 64, 74
1, 706488, Control_c, 0, 64, 111
1, 706489, Note_off_c, 0, 21, 46
1, 706503, Control_c, 0, 64, 127
1, 706524, Poly_aftertouch_c, 0, 43, 0
1, 706526, Note_off_c, 0, 44, 59
1, 706550, Poly_aftertouch_c, 0, 29, 127
1, 706559, Note_off_c, 0, 46, 53
1, 706590, Note_off_c, 0, 23, 55
1, 706597, Note_off_c, 0, 22, 61
1, 706622, Note_off_c, 0, 34, 64
1, 706626, Note_off_c, 0, 25, 52
1, 706627, Poly_aftertouch_c, 0, 29, 0
1, 706633, Note_on_c, 0, 35, 27
1, 706681, Note_off_c, 0, 35, 47
1, 706733, Note_on_c, 0, 83, 113
1, 706734, Note_on_c, 0, 84, 126
1, 706737, Note_on_c, 0, 89, 108
1, 706742, Note_on_c, 0, 94, 89
1, 706743, Note_off_c, 0, 94, 127
1, 706749, Note_on_c, 0, 95, 87
1, 706752, Note_on_c, 0, 88, 67
1, 706756, Note_on_c, 0, 93, 70
1, 706760, Note_on_c, 0, 92, 69
1, 706767, Note_off_c, 0, 88, 69
1, 706865, Note_on_c, 0, 80, 108
1, 706866, Note_on_c, 0, 78, 108
1, 706867, Note_on_c, 0, 75, 99
1, 706883, Note_on_c, 0, 71, 66
1, 706883, Note_off_c, 0, 84, 56
1, 706884, Note_off_c, 0, 83, 56
1, 706890, Note_on_c, 0, 79, 65
1, 706891, Note_off_c, 0, 79, 127
1, 706891, Note_on_c, 0, 73, 60
1, 706895, Note_off_c, 0, 95, 62
1, 706902, Note_off_c, 0, 93, 63
1, 706904, Note_on_c, 0, 72, 56
1, 706910, Note_off_c, 0, 78, 65
1, 706910, Note_off_c, 0, 92, 45
1, 706911, Note_off_c, 0, 80, 67
1, 706911, Note_off_c, 0, 89, 58
1, 706912, Note_off_c, 0, 73, 61
1, 706916, Note_on_c, 0, 77, 59
1, 706926, Note_off_c, 0, 72, 60
1, 706934, Note_off_c, 0, 77, 61
1, 706939, Note_off_c, 0, 75, 56
1, 706943, Note_off_c, 0, 71, 65
1, 706976, Note_on_c, 0, 93, 102
1, 706976, Note_on_c, 0, 87, 102
1, 706978, Note_on_c, 0, 81, 94
1, 706978, Note_off_c, 0, 87, 0
1, 706979, Note_on_c, 0, 83, 120
1, 706982, Note_on_c, 0, 92, 92
1, 706985, Note_on_c, 0, 86, 102
1, 706985, Note_on_c, 0, 90, 90
1, 706988, Note_on_c, 0, 79, 75
1, 707011, Note_on_c, 0, 91, 40
1, 707015, Poly_aftertouch_c, 0, 87, 127
1, 707019, Note_off_c, 0, 92, 68
1, 707032, Note_off_c, 0, 79, 0
1, 707032, Note_on_c, 0, 79, 41
1, 707056, Note_off_c, 0, 83, 50
1, 707069, Note_off_c, 0, 93, 69
1, 707082, Note_off_c, 0, 79, 0
1, 707082, Note_on_c, 0, 79, 39
1, 707085, Note_off_c, 0, 91, 66
1, 707088, Note_on_c, 0, 71, 118
1, 707092, Note_on_c, 0, 69, 107
1, 707095, Note_on_c, 0, 63, 97
1, 707096, Note_on_c, 0, 59, 90
1, 707097, Note_on_c, 0, 61, 85
1, 707097, Note_on_c, 0, 72, 88
1, 707100, Note_off_c, 0, 86, 66
1, 707100, Note_off_c, 0, 90, 63
1, 707102, Note_on_c, 0, 60, 81
1, 707104, Poly_aftertouch_c, 0, 87, 0
1, 707106, Note_off_c, 0, 81, 66
1, 707109, Note_off_c, 0, 79, 57
1, 707139, Note_on_c, 0, 66, 15
1, 707140, Note_off_c, 0, 66, 127
1, 707140, Note_off_c, 0, 72, 0
1, 707140, Note_on_c, 0, 72, 56
1, 707186, Poly_aftertouch_c, 0, 66, 0
1, 707188, Note_off_c, 0, 72, 0
1, 707188, Note_on_c, 0, 72, 42
1, 707197, Note_on_c, 0, 82, 100
1, 707200, Note_on_c, 0, 80, 88
1, 707201, Note_on_c, 0, 70, 111
1, 707208, Note_on_c, 0, 75, 88
1, 707212, Note_off_c, 0, 72, 21
1, 707230, Note_on_c, 0, 73, 80
1, 707244, Note_on_c, 0, 79, 45
1, 707255, Note_on_c, 0, 78, 54
1, 707259, Note_off_c, 0, 73, 50
1, 707324, Note_off_c, 0, 59, 51
1, 707401, Note_off_c, 0, 60, 55
1, 707410, Note_on_c, 0, 81, 42
1, 707417, Note_off_c, 0, 82, 60
1, 707435, Note_off_c, 0, 61, 55
1, 707436, Note_off_c, 0, 63, 58
1, 707447, Note_off_c, 0, 69, 44
1, 707452, Note_off_c, 0, 71, 41
1, 707484, Note_off_c, 0, 70, 55
1, 707508, Note_off_c, 0, 81, 56
1, 707563, Poly_aftertouch_c, 0, 71, 127
1, 707590, Note_off_c, 0, 79, 58
1, 707593, Note_off_c, 0, 80, 61
1, 707602, Poly_aftertouch_c, 0, 71, 0
1, 707620, Note_off_c, 0, 75, 61
1, 707623, Note_off_c, 0, 78, 44
1, 707652, Note_on_c, 0, 75, 102
1, 707655, Note_on_c, 0, 69, 103
1, 707656, Note_on_c, 0, 71, 106
1, 707661, Note_on_c, 0, 83, 98
1, 707667, Note_on_c, 0, 81, 80
1, 707673, Note_on_c, 0, 80, 70
1, 707706, Note_on_c, 0, 79, 28
1, 707776, Note_on_c, 0, 58, 102
1, 707778, Note_on_c, 0, 70, 105
1, 707780, Note_on_c, 0, 66, 97
1, 707783, Note_off_c, 0, 83, 60
1, 707786, Note_off_c, 0, 81, 63
1, 707797, Note_on_c, 0, 60, 73
1, 707798, Note_on_c, 0, 62, 68
1, 707804, Note_off_c, 0, 80, 63
1, 707807, Note_on_c, 0, 63, 60
1, 707815, Note_off_c, 0, 70, 59
1, 707815, Note_off_c, 0, 79, 38
1, 707820, Note_off_c, 0, 71, 63
1, 707828, Note_off_c, 0, 69, 59
1, 707829, Note_off_c, 0, 75, 61
1, 707848, Note_off_c, 0, 66, 66
1, 707852, Note_on_c, 0, 57, 43
1, 707854, Note_off_c, 0, 63, 59
1, 707861, Note_off_c, 0, 62, 64
1, 707866, Note_off_c, 0, 60, 65
1, 707869, Note_off_c, 0, 58, 66
1, 707876, Note_off_c, 0, 57, 59
1, 707880, Note_on_c, 0, 75, 126
1, 707883, Note_on_c, 0, 69, 113
1, 707883, Note_on_c, 0, 71, 111
1, 707890, Note_on_c, 0, 81, 97
1, 707891, Note_on_c, 0, 83, 96
1, 707900, Note_on_c, 0, 80, 71
1, 707909, Note_on_c, 0, 79, 59
1, 707915, Note_on_c, 0, 76, 46
1, 707936, Note_off_c, 0, 76, 58
1, 707943, Note_off_c, 0, 83, 65
1, 707971, Note_off_c, 0, 81, 68
1, 707986, Note_off_c, 0, 79, 36
1, 707996, Note_off_c, 0, 71, 59
1, 707998, Note_off_c, 0, 80, 66
1, 708003, Note_on_c, 0, 59, 113
1, 708004, Note_on_c, 0, 57, 104
1, 708005, Note_on_c, 0, 47, 93
1, 708005, Note_on_c, 0, 51, 101
1, 708007, Note_on_c, 0, 48, 87
1, 708007, Note_on_c, 0, 49, 90
1, 708018, Note_off_c, 0, 69, 68
1, 708021, Note_off_c, 0, 51, 63
1, 708022, Note_off_c, 0, 75, 59
1, 708025, Note_on_c, 0, 52, 79
1, 708034, Note_on_c, 0, 50, 50
1, 708035, Note_off_c, 0, 50, 127
1, 708049, Note_on_c, 0, 53, 43
1, 708061, Poly_aftertouch_c, 0, 50, 0
1, 708087, Note_off_c, 0, 53, 47
1, 708121, Note_on_c, 0, 58, 113
1, 708123, Note_on_c, 0, 63, 105
1, 708123, Note_on_c, 0, 68, 92
1, 708126, Note_on_c, 0, 61, 105
1, 708127, Note_on_c, 0, 70, 92
1, 708128, Note_on_c, 0, 60, 101
1, 708138, Note_on_c, 0, 66, 58
1, 708139, Note_on_c, 0, 51, 24
1, 708150, Note_on_c, 0, 67, 74
1, 708161, Note_on_c, 0, 62, 42
1, 708162, Note_off_c, 0, 62, 127
1, 708167, Note_off_c, 0, 49, 65
1, 708173, Note_off_c, 0, 59, 65
1, 708175, Note_off_c, 0, 57, 58
1, 708177, Note_off_c, 0, 60, 37
1, 708180, Note_off_c, 0, 47, 63
1, 708180, Note_on_c, 0, 53, 20
1, 708181, Note_off_c, 0, 61, 58
1, 708183, Note_on_c, 0, 50, 58
1, 708203, Note_off_c, 0, 51, 41
1, 708221, Note_off_c, 0, 48, 62
1, 708234, Note_on_c, 0, 69, 37
1, 708246, Note_off_c, 0, 58, 69
1, 708258, Note_off_c, 0, 50, 65
1, 708272, Note_off_c, 0, 53, 60
1, 708275, Note_off_c, 0, 52, 65
1, 708309, Note_off_c, 0, 70, 63
1, 708325, Note_off_c, 0, 63, 62
1, 708326, Note_off_c, 0, 66, 60
1, 708349, Note_off_c, 0, 68, 64
1, 708357, Note_off_c, 0, 67, 62
1, 708377, Note_off_c, 0, 69, 53
1, 708490, Note_on_c, 0, 81, 120
1, 708490, Note_on_c, 0, 83, 114
1, 708493, Note_on_c, 0, 93, 115
1, 708496, Note_on_c, 0, 92, 100
1, 708499, Note_on_c, 0, 95, 105
1, 708511, Note_on_c, 0, 89, 66
1, 708518, Note_on_c, 0, 91, 61
1, 708519, Note_off_c, 0, 91, 127
1, 708519, Note_on_c, 0, 88, 60
1, 708661, Note_on_c, 0, 82, 114
1, 708669, Note_on_c, 0, 70, 96
1, 708670, Note_on_c, 0, 73, 113
1, 708672, Note_off_c, 0, 89, 33
1, 708682, Note_off_c, 0, 73, 77
1, 708684, Note_on_c, 0, 75, 68
1, 708685, Note_off_c, 0, 75, 127
1, 708689, Note_on_c, 0, 78, 61
1, 708695, Note_on_c, 0, 74, 67
1, 708698, Note_on_c, 0, 72, 59
1, 708699, Note_off_c, 0, 95, 61
1, 708709, Note_off_c, 0, 93, 57
1, 708731, Note_off_c, 0, 88, 0
1, 708754, Note_off_c, 0, 92, 60
1, 708768, Note_off_c, 0, 82, 65
1, 708771, Note_off_c, 0, 83, 55
1, 708772, Note_off_c, 0, 81, 42
1, 708773, Note_off_c, 0, 78, 33
1, 708784, Poly_aftertouch_c, 0, 88, 0
1, 708787, Poly_aftertouch_c, 0, 73, 127
1, 708806, Note_off_c, 0, 74, 62
1, 708808, Note_off_c, 0, 72, 64
1, 708809, Note_on_c, 0, 83, 113
1, 708811, Note_on_c, 0, 81, 102
1, 708813, Note_off_c, 0, 70, 59
1, 708814, Note_on_c, 0, 95, 103
1, 708814, Poly_aftertouch_c, 0, 88, 0
1, 708816, Note_on_c, 0, 93, 97
1, 708818, Note_on_c, 0, 94, 78
1, 708818, Poly_aftertouch_c, 0, 73, 0
1, 708821, Note_on_c, 0, 92, 89
1, 708831, Note_off_c, 0, 94, 63
1, 708833, Note_on_c, 0, 88, 32
1, 708834, Note_off_c, 0, 88, 127
1, 708846, Note_on_c, 0, 84, 34
1, 708872, Note_off_c, 0, 84, 57
1, 708886, Note_off_c, 0, 95, 67
1, 708902, Note_off_c, 0, 93, 66
1, 708919, Note_on_c, 0, 71, 113
1, 708921, Note_on_c, 0, 69, 103
1, 708922, Note_off_c, 0, 83, 63
1, 708922, Note_off_c, 0, 92, 63
1, 708931, Note_on_c, 0, 57, 100
1, 708931, Note_on_c, 0, 59, 89
1, 708933, Note_off_c, 0, 81, 66
1, 708939, Note_on_c, 0, 61, 73
1, 708949, Note_on_c, 0, 60, 57
1, 708969, Note_on_c, 0, 65, 11
1, 708988, Note_off_c, 0, 57, 66
1, 709006, Note_off_c, 0, 69, 55
1, 709010, Note_off_c, 0, 71, 57
1, 709014, Note_off_c, 0, 59, 63
1, 709036, Note_on_c, 0, 82, 95
1, 709036, Note_off_c, 0, 60, 26
1, 709037, Note_on_c, 0, 70, 107
1, 709037, Note_off_c, 0, 65, 59
1, 709044, Note_off_c, 0, 61, 59
1, 709058, Note_on_c, 0, 80, 62
1, 709080, Note_off_c, 0, 70, 67
1, 709112, Note_off_c, 0, 80, 0
1, 709113, Note_off_c, 0, 82, 67
1, 709127, Note_on_c, 0, 70, 102
1, 709139, Note_on_c, 0, 58, 92
1, 709146, Note_on_c, 0, 61, 73
1, 709149, Poly_aftertouch_c, 0, 80, 127
1, 709158, Note_off_c, 0, 58, 73
1, 709161, Note_off_c, 0, 70, 68
1, 709170, Note_on_c, 0, 76, 45
1, 709181, Note_off_c, 0, 61, 59
1, 709182, Poly_aftertouch_c, 0, 80, 0
1, 709210, Note_on_c, 0, 83, 93
1, 709212, Note_on_c, 0, 71, 103
1, 709217, Note_on_c, 0, 69, 98
1, 709230, Note_off_c, 0, 76, 65
1, 709231, Note_on_c, 0, 81, 61
1, 709241, Note_on_c, 0, 72, 56
1, 709250, Note_off_c, 0, 81, 63
1, 709253, Note_off_c, 0, 83, 64
1, 709264, Note_off_c, 0, 72, 40
1, 709280, Note_off_c, 0, 71, 62
1, 709283, Note_off_c, 0, 69, 65
1, 709298, Note_on_c, 0, 57, 98
1, 709298, Note_on_c, 0, 59, 98
1, 709304, Note_on_c, 0, 45, 90
1, 709312, Note_on_c, 0, 46, 81
1, 709340, Note_off_c, 0, 59, 64
1, 709348, Note_off_c, 0, 57, 65
1, 709356, Note_off_c, 0, 46, 55
1, 709361, Note_off_c, 0, 45, 58
1, 709385, Note_on_c, 0, 70, 93
1, 709386, Note_on_c, 0, 58, 106
1, 709395, Poly_aftertouch_c, 0, 55, 0
1, 709417, Poly_aftertouch_c, 0, 55, 0
1, 709435, Note_off_c, 0, 58, 68
1, 709450, Note_on_c, 0, 68, 9
1, 709462, Note_off_c, 0, 70, 65
1, 709487, Note_on_c, 0, 58, 111
1, 709492, Note_on_c, 0, 46, 96
1, 709501, Note_on_c, 0, 49, 79
1, 709529, Note_off_c, 0, 49, 68
1, 709538, Note_off_c, 0, 58, 68
1, 709539, Note_off_c, 0, 68, 58
1, 709550, Note_on_c, 0, 48, 32
1, 709564, Note_on_c, 0, 64, 40
1, 709572, Note_off_c, 0, 46, 63
1, 709581, Note_off_c, 0, 48, 50
1, 709587, Note_on_c, 0, 57, 110
1, 709589, Note_on_c, 0, 69, 87
1, 709590, Note_on_c, 0, 59, 102
1, 709596, Note_on_c, 0, 71, 82
1, 709601, Poly_aftertouch_c, 0, 47, 0
1, 709602, Note_on_c, 0, 68, 57
1, 709614, Note_off_c, 0, 64, 62
1, 709618, Note_off_c, 0, 71, 67
1, 709633, Note_on_c, 0, 67, 39
1, 709647, Note_off_c, 0, 69, 64
1, 709660, Note_off_c, 0, 67, 55
1, 709663, Note_off_c, 0, 59, 57
1, 709676, Note_on_c, 0, 47, 111
1, 709677, Note_off_c, 0, 68, 62
1, 709679, Note_on_c, 0, 45, 106
1, 709686, Note_on_c, 0, 35, 85
1, 709689, Note_off_c, 0, 57, 66
1, 709695, Note_on_c, 0, 33, 84
1, 709698, Note_on_c, 0, 36, 74
1, 709699, Note_on_c, 0, 37, 68
1, 709731, Note_on_c, 0, 41, 35
1, 709739, Note_off_c, 0, 33, 60
1, 709778, Note_off_c, 0, 45, 59
1, 709778, Note_off_c, 0, 47, 61
1, 709793, Note_off_c, 0, 35, 60
1, 709795, Note_on_c, 0, 46, 116
1, 709798, Note_off_c, 0, 36, 61
1, 709801, Note_on_c, 0, 58, 89
1, 709802, Note_on_c, 0, 56, 90
1, 709813, Note_off_c, 0, 41, 63
1, 709821, Note_off_c, 0, 37, 59
1, 709826, Note_on_c, 0, 54, 48
1, 709855, Note_off_c, 0, 46, 67
1, 709909, Note_off_c, 0, 58, 62
1, 709915, Note_on_c, 0, 46, 124
1, 709920, Note_on_c, 0, 34, 95
1, 709927, Note_off_c, 0, 56, 53
1, 709930, Note_on_c, 0, 37, 74
1, 709940, Note_off_c, 0, 54, 0
1, 709942, Note_off_c, 0, 46, 68
1, 709948, Note_off_c, 0, 34, 66
1, 709964, Note_off_c, 0, 37, 62
1, 709977, Poly_aftertouch_c, 0, 54, 127
1, 709993, Note_on_c, 0, 52, 63
1, 709993, Poly_aftertouch_c, 0, 35, 127
1, 710016, Note_on_c, 0, 47, 106
1, 710018, Note_on_c, 0, 45, 114
1, 710019, Note_on_c, 0, 54, 21
1, 710027, Note_on_c, 0, 59, 72
1, 710033, Note_on_c, 0, 58, 78
1, 710037, Note_on_c, 0, 56, 73
1, 710037, Poly_aftertouch_c, 0, 35, 0
1, 710037, Note_on_c, 0, 57, 72
1, 710057, Note_on_c, 0, 55, 17
1, 710113, Note_off_c, 0, 55, 47
1, 710133, Poly_aftertouch_c, 0, 48, 0
1, 710150, Note_off_c, 0, 52, 32
1, 710153, Note_off_c, 0, 59, 60
1, 710162, Note_off_c, 0, 58, 34
1, 710165, Note_off_c, 0, 57, 61
1, 710171, Poly_aftertouch_c, 0, 34, 127
1, 710183, Note_off_c, 0, 56, 55
1, 710187, Note_on_c, 0, 34, 22
1, 710194, Note_on_c, 0, 22, 95
1, 710194, Note_off_c, 0, 54, 60
1, 710198, Poly_aftertouch_c, 0, 25, 0
1, 710204, Note_on_c, 0, 25, 68
1, 710207, Note_off_c, 0, 47, 55
1, 710231, Control_c, 0, 64, 79
1, 710236, Note_on_c, 0, 24, 52
1, 710243, Note_off_c, 0, 45, 62
1, 710246, Control_c, 0, 64, 49
1, 710258, Note_on_c, 0, 23, 25
1, 710261, Control_c, 0, 64, 0
1, 710313, Note_off_c, 0, 23, 48
1, 710350, Control_c, 0, 66, 127
1, 710369, Poly_aftertouch_c, 0, 42, 127
1, 710410, Poly_aftertouch_c, 0, 42, 0
1, 710448, Note_on_c, 0, 39, 89
1, 710487, Note_on_c, 0, 46, 28
1, 710488, Note_off_c, 0, 46, 127
1, 710499, Note_off_c, 0, 39, 64
1, 710533, Note_off_c, 0, 22, 61
1, 710546, Note_off_c, 0, 34, 55
1, 710553, Note_off_c, 0, 24, 35
1, 710566, Note_on_c, 0, 42, 93
1, 710580, Note_off_c, 0, 25, 41
1, 710609, Note_off_c, 0, 42, 62
1, 710660, Note_on_c, 0, 46, 93
1, 710693, Note_off_c, 0, 46, 66
1, 710761, Note_on_c, 0, 50, 105
1, 710873, Note_on_c, 0, 75, 90
1, 710996, Note_on_c, 0, 78, 87
1, 711010, Control_c, 0, 64, 22
1, 711012, Note_off_c, 0, 75, 57
1, 711024, Control_c, 0, 64, 49
1, 711039, Control_c, 0, 64, 64
1, 711054, Control_c, 0, 64, 86
1, 711059, Note_off_c, 0, 78, 65
1, 711069, Control_c, 0, 64, 127
1, 711073, Note_on_c, 0, 53, 84
1, 711080, Note_off_c, 0, 50, 63
1, 711099, Note_off_c, 0, 53, 69
1, 711100, Note_on_c, 0, 82, 92
1, 711157, Note_off_c, 0, 82, 66
1, 711173, Control_c, 0, 66, 0
1, 711206, Note_on_c, 0, 69, 112
1, 711216, Note_on_c, 0, 86, 102
1, 711224, Note_off_c, 0, 69, 68
1, 711288, Note_off_c, 0, 86, 64
1, 711341, Note_on_c, 0, 72, 87
1, 711345, Note_on_c, 0, 54, 92
1, 711401, Note_off_c, 0, 54, 65
1, 711433, Note_on_c, 0, 75, 89
1, 711438, Note_off_c, 0, 72, 63
1, 711448, Note_on_c, 0, 51, 95
1, 711477, Note_off_c, 0, 75, 60
1, 711501, Note_off_c, 0, 51, 65
1, 711537, Note_on_c, 0, 89, 104
1, 711539, Note_on_c, 0, 78, 95
1, 711549, Note_on_c, 0, 46, 96
1, 711584, Note_off_c, 0, 78, 64
1, 711591, Note_off_c, 0, 46, 66
1, 711618, Note_off_c, 0, 89, 60
1, 711618, Control_c, 0, 64, 78
1, 711633, Control_c, 0, 64, 50
1, 711647, Control_c, 0, 64, 0
1, 711650, Note_on_c, 0, 83, 86
1, 711653, Note_on_c, 0, 50, 96
1, 711656, Note_on_c, 0, 48, 95
1, 711672, Note_on_c, 0, 84, 49
1, 711673, Note_off_c, 0, 84, 127
1, 711693, Control_c, 0, 64, 48
1, 711708, Note_off_c, 0, 83, 65
1, 711708, Control_c, 0, 64, 75
1, 711709, Note_off_c, 0, 48, 59
1, 711730, Control_c, 0, 64, 127
1, 711769, Note_on_c, 0, 47, 91
1, 711772, Note_on_c, 0, 90, 95
1, 711783, Note_on_c, 0, 83, 71
1, 711783, Note_on_c, 0, 84, 59
1, 711811, Note_off_c, 0, 83, 66
1, 711814, Note_off_c, 0, 84, 67
1, 711815, Note_on_c, 0, 91, 39
1, 711824, Note_off_c, 0, 90, 64
1, 711834, Note_off_c, 0, 50, 61
1, 711843, Note_off_c, 0, 91, 36
1, 711857, Note_on_c, 0, 51, 97
1, 711864, Note_off_c, 0, 47, 64
1, 711873, Note_on_c, 0, 87, 94
1, 711892, Note_on_c, 0, 83, 65
1, 711900, Note_off_c, 0, 51, 66
1, 711908, Note_off_c, 0, 83, 66
1, 711927, Note_on_c, 0, 54, 101
1, 711934, Note_off_c, 0, 87, 66
1, 711981, Note_on_c, 0, 82, 96
1, 711990, Note_on_c, 0, 75, 80
1, 712001, Note_off_c, 0, 54, 60
1, 712011, Note_on_c, 0, 42, 81
1, 712013, Note_off_c, 0, 75, 69
1, 712041, Note_off_c, 0, 82, 60
1, 712046, Note_off_c, 0, 42, 67
1, 712070, Control_c, 0, 64, 81
1, 712074, Note_on_c, 0, 75, 107
1, 712079, Note_on_c, 0, 57, 124
1, 712082, Note_on_c, 0, 86, 101
1, 712085, Control_c, 0, 64, 65
1, 712105, Note_on_c, 0, 46, 50
1, 712106, Note_off_c, 0, 46, 127
1, 712111, Note_on_c, 0, 49, 47
1, 712115, Control_c, 0, 64, 73
1, 712118, Note_off_c, 0, 75, 65
1, 712118, Note_off_c, 0, 57, 70
1, 712121, Note_off_c, 0, 86, 65
1, 712130, Control_c, 0, 64, 90
1, 712137, Poly_aftertouch_c, 0, 46, 0
1, 712139, Note_off_c, 0, 49, 50
1, 712145, Control_c, 0, 64, 127
1, 712207, Note_on_c, 0, 77, 97
1, 712213, Note_on_c, 0, 81, 77
1, 712237, Note_off_c, 0, 81, 70
1, 712274, Note_off_c, 0, 77, 64
1, 712324, Note_on_c, 0, 39, 93
1, 712324, Note_on_c, 0, 70, 110
1, 712327, Note_on_c, 0, 78, 101
1, 712343, Note_on_c, 0, 73, 68
1, 712344, Note_off_c, 0, 73, 127
1, 712374, Note_off_c, 0, 39, 62
1, 712389, Note_off_c, 0, 70, 59
1, 712393, Note_off_c, 0, 78, 61
1, 712478, Note_on_c, 0, 66, 112
1, 712481, Note_on_c, 0, 58, 112
1, 712482, Note_on_c, 0, 75, 111
1, 712484, Note_on_c, 0, 46, 103
1, 712489, Note_on_c, 0, 65, 96
1, 712495, Note_on_c, 0, 64, 97
1, 712497, Note_on_c, 0, 49, 76
1, 712497, Note_off_c, 0, 75, 72
1, 712500, Note_on_c, 0, 59, 75
1, 712507, Note_on_c, 0, 73, 53
1, 712508, Note_off_c, 0, 66, 67
1, 712512, Note_off_c, 0, 64, 76
1, 712516, Note_off_c, 0, 58, 70
1, 712519, Note_off_c, 0, 59, 67
1, 712522, Note_on_c, 0, 48, 44
1, 712522, Note_off_c, 0, 65, 57
1, 712532, Note_off_c, 0, 46, 61
1, 712532, Note_off_c, 0, 73, 65
1, 712542, Note_off_c, 0, 49, 64
1, 712549, Note_off_c, 0, 48, 57
1, 712554, Note_on_c, 0, 54, 7
1, 712591, Note_off_c, 0, 54, 49
1, 712596, Poly_aftertouch_c, 0, 47, 0
1, 712669, Note_on_c, 0, 52, 38
1, 712726, Note_off_c, 0, 52, 44
1, 712775, Control_c, 0, 64, 79
1, 712788, Note_on_c, 0, 59, 94
1, 712790, Control_c, 0, 64, 0
1, 712791, Note_on_c, 0, 47, 106
1, 712794, Note_on_c, 0, 34, 118
1, 712800, Poly_aftertouch_c, 0, 25, 0
1, 712802, Note_on_c, 0, 22, 96
1, 712803, Note_on_c, 0, 25, 96
1, 712805, Note_on_c, 0, 52, 70
1, 712810, Note_on_c, 0, 51, 80
1, 712819, Control_c, 0, 64, 17
1, 712824, Note_on_c, 0, 24, 62
1, 712827, Note_on_c, 0, 56, 55
1, 712829, Note_on_c, 0, 27, 50
1, 712829, Note_on_c, 0, 35, 55
1, 712831, Note_on_c, 0, 30, 51
1, 712833, Note_on_c, 0, 29, 49
1, 712833, Note_on_c, 0, 57, 34
1, 712834, Control_c, 0, 64, 57
1, 712837, Note_on_c, 0, 54, 49
1, 712849, Control_c, 0, 64, 72
1, 712860, Note_on_c, 0, 23, 7
1, 712864, Control_c, 0, 64, 99
1, 712869, Note_off_c, 0, 30, 55
1, 712869, Note_off_c, 0, 47, 63
1, 712869, Note_off_c, 0, 57, 50
1, 712878, Control_c, 0, 64, 127
1, 712881, Note_off_c, 0, 35, 55
1, 712884, Note_off_c, 0, 51, 63
1, 712888, Note_off_c, 0, 27, 42
1, 712898, Poly_aftertouch_c, 0, 36, 127
1, 712899, Note_off_c, 0, 52, 65
1, 712920, Note_off_c, 0, 23, 25
1, 712922, Note_off_c, 0, 59, 66
1, 712928, Note_off_c, 0, 56, 64
1, 712932, Note_off_c, 0, 54, 46
1, 712934, Poly_aftertouch_c, 0, 36, 0
1, 713048, Note_off_c, 0, 22, 61
1, 713065, Note_off_c, 0, 34, 60
1, 713069, Note_on_c, 0, 87, 91
1, 713071, Note_off_c, 0, 25, 58
1, 713082, Note_off_c, 0, 29, 40
1, 713083, Note_on_c, 0, 90, 69
1, 713084, Note_off_c, 0, 24, 33
1, 713089, Note_on_c, 0, 88, 67
1, 713107, Note_off_c, 0, 90, 64
1, 713112, Note_off_c, 0, 87, 59
1, 713113, Note_off_c, 0, 88, 66
1, 713158, Note_on_c, 0, 90, 92
1, 713207, Note_off_c, 0, 90, 65
1, 713263, Note_on_c, 0, 90, 92
1, 713304, Note_off_c, 0, 90, 64
1, 713349, Note_on_c, 0, 92, 101
1, 713369, Note_on_c, 0, 90, 36
1, 713396, Note_off_c, 0, 90, 45
1, 713417, Note_on_c, 0, 75, 90
1, 713438, Note_on_c, 0, 82, 80
1, 713462, Note_off_c, 0, 75, 59
1, 713465, Note_off_c, 0, 92, 61
1, 713510, Note_off_c, 0, 82, 63
1, 713520, Note_on_c, 0, 87, 91
1, 713528, Note_on_c, 0, 78, 56
1, 713529, Note_off_c, 0, 78, 127
1, 713534, Note_on_c, 0, 77, 81
1, 713559, Note_off_c, 0, 87, 67
1, 713570, Note_off_c, 0, 77, 61
1, 713612, Note_on_c, 0, 95, 105
1, 713613, Note_on_c, 0, 78, 91
1, 713667, Note_off_c, 0, 78, 65
1, 713716, Note_on_c, 0, 80, 71
1, 713743, Note_off_c, 0, 80, 64
1, 713790, Note_on_c, 0, 70, 76
1, 713797, Note_on_c, 0, 85, 91
1, 713797, Note_off_c, 0, 95, 0
1, 713826, Poly_aftertouch_c, 0, 95, 0
1, 713836, Note_off_c, 0, 70, 59
1, 713854, Note_off_c, 0, 85, 64
1, 713882, Note_on_c, 0, 75, 80
1, 713884, Note_on_c, 0, 94, 94
1, 713938, Note_off_c, 0, 75, 63
1, 713985, Note_off_c, 0, 94, 63
1, 713986, Note_on_c, 0, 89, 80
1, 714014, Note_off_c, 0, 89, 66
1, 714077, Note_on_c, 0, 90, 103
1, 714169, Note_on_c, 0, 73, 73
1, 714171, Note_on_c, 0, 80, 84
1, 714190, Note_off_c, 0, 90, 60
1, 714239, Note_off_c, 0, 80, 63
1, 714262, Note_on_c, 0, 82, 84
1, 714268, Note_on_c, 0, 85, 93
1, 714300, Note_off_c, 0, 82, 61
1, 714307, Note_off_c, 0, 85, 64
1, 714340, Note_off_c, 0, 73, 44
1, 714350, Note_on_c, 0, 77, 79
1, 714353, Note_on_c, 0, 94, 106
1, 714392, Note_off_c, 0, 77, 64
1, 714442, Note_on_c, 0, 78, 105
1, 714468, Note_on_c, 0, 75, 57
1, 714469, Note_off_c, 0, 75, 127
1, 714480, Note_off_c, 0, 78, 67
1, 714483, Note_off_c, 0, 94, 63
1, 714539, Note_on_c, 0, 83, 79
1, 714550, Note_on_c, 0, 68, 67
1, 714599, Note_off_c, 0, 68, 57
1, 714617, Note_off_c, 0, 83, 63
1, 714630, Note_on_c, 0, 73, 75
1, 714632, Note_on_c, 0, 92, 79
1, 714711, Note_on_c, 0, 87, 86
1, 714718, Note_off_c, 0, 92, 65
1, 714728, Note_on_c, 0, 82, 70
1, 714749, Note_off_c, 0, 82, 66
1, 714751, Note_off_c, 0, 87, 62
1, 714801, Note_on_c, 0, 89, 103
1, 714873, Note_off_c, 0, 73, 45
1, 714898, Note_on_c, 0, 78, 76
1, 714900, Note_on_c, 0, 71, 59
1, 714910, Note_off_c, 0, 89, 60
1, 714941, Note_off_c, 0, 78, 62
1, 714982, Note_on_c, 0, 80, 75
1, 714983, Note_on_c, 0, 83, 74
1, 715015, Note_off_c, 0, 80, 61
1, 715024, Note_off_c, 0, 83, 62
1, 715028, Note_off_c, 0, 71, 59
1, 715060, Note_on_c, 0, 92, 95
1, 715065, Note_on_c, 0, 75, 68
1, 715135, Note_off_c, 0, 92, 63
1, 715144, Note_on_c, 0, 77, 71
1, 715147, Note_on_c, 0, 82, 91
1, 715159, Note_off_c, 0, 75, 56
1, 715177, Note_off_c, 0, 77, 64
1, 715193, Note_off_c, 0, 82, 64
1, 715210, Note_on_c, 0, 66, 77
1, 715218, Note_on_c, 0, 90, 95
1, 715273, Note_off_c, 0, 90, 64
1, 715282, Note_off_c, 0, 66, 61
1, 715296, Note_on_c, 0, 70, 89
1, 715314, Note_on_c, 0, 87, 97
1, 715335, Note_off_c, 0, 70, 66
1, 715386, Note_on_c, 0, 80, 79
1, 715403, Note_on_c, 0, 77, 76
1, 715418, Note_off_c, 0, 80, 59
1, 715419, Note_off_c, 0, 87, 62
1, 715481, Note_on_c, 0, 78, 91
1, 715490, Note_on_c, 0, 82, 94
1, 715493, Note_on_c, 0, 79, 33
1, 715499, Note_off_c, 0, 77, 61
1, 715502, Poly_aftertouch_c, 0, 81, 0
1, 715523, Note_off_c, 0, 79, 49
1, 715538, Note_off_c, 0, 78, 63
1, 715538, Note_off_c, 0, 82, 67
1, 715577, Note_on_c, 0, 70, 57
1, 715578, Note_off_c, 0, 70, 127
1, 715585, Note_on_c, 0, 90, 98
1, 715589, Note_on_c, 0, 71, 71
1, 715615, Note_off_c, 0, 71, 69
1, 715669, Note_on_c, 0, 80, 88
1, 715679, Note_on_c, 0, 71, 77
1, 715699, Note_off_c, 0, 71, 71
1, 715699, Note_off_c, 0, 90, 62
1, 715708, Note_off_c, 0, 80, 66
1, 715752, Note_on_c, 0, 89, 93
1, 715761, Note_on_c, 0, 71, 87
1, 715798, Note_off_c, 0, 89, 67
1, 715805, Note_off_c, 0, 71, 63
1, 715845, Note_on_c, 0, 88, 105
1, 715850, Note_on_c, 0, 73, 103
1, 715854, Poly_aftertouch_c, 0, 72, 0
1, 715881, Note_off_c, 0, 88, 68
1, 715884, Note_off_c, 0, 73, 67
1, 715931, Note_on_c, 0, 75, 109
1, 715955, Note_off_c, 0, 75, 69
1, 716021, Note_on_c, 0, 76, 105
1, 716116, Note_on_c, 0, 78, 95
1, 716123, Note_off_c, 0, 76, 65
1, 716176, Note_off_c, 0, 78, 65
1, 716201, Control_c, 0, 64, 121
1, 716224, Control_c, 0, 64, 76
1, 716226, Poly_aftertouch_c, 0, 34, 0
1, 716228, Note_on_c, 0, 80, 107
1, 716229, Note_on_c, 0, 34, 90
1, 716233, Note_on_c, 0, 32, 92
1, 716234, Note_on_c, 0, 22, 104
1, 716239, Control_c, 0, 64, 65
1, 716247, Note_on_c, 0, 81, 87
1, 716250, Note_off_c, 0, 34, 62
1, 716253, Note_off_c, 0, 32, 68
1, 716253, Control_c, 0, 64, 67
1, 716261, Note_on_c, 0, 33, 67
1, 716268, Note_on_c, 0, 73, 52
1, 716269, Note_off_c, 0, 73, 127
1, 716269, Control_c, 0, 64, 77
1, 716275, Note_off_c, 0, 22, 63
1, 716276, Note_on_c, 0, 21, 28
1, 716283, Control_c, 0, 64, 117
1, 716286, Note_off_c, 0, 81, 43
1, 716293, Note_off_c, 0, 33, 61
1, 716298, Control_c, 0, 64, 127
1, 716327, Note_off_c, 0, 21, 47
1, 716328, Note_on_c, 0, 32, 17
1, 716349, Note_off_c, 0, 32, 63
1, 716358, Note_on_c, 0, 70, 89
1, 716402, Note_off_c, 0, 80, 61
1, 716408, Note_off_c, 0, 70, 65
1, 716413, Note_on_c, 0, 63, 81
1, 716437, Note_off_c, 0, 63, 70
1, 716450, Note_on_c, 0, 75, 93
1, 716486, Note_off_c, 0, 75, 68
1, 716495, Note_on_c, 0, 65, 72
1, 716497, Note_on_c, 0, 64, 72
1, 716524, Note_off_c, 0, 64, 64
1, 716526, Note_off_c, 0, 65, 63
1, 716544, Note_on_c, 0, 83, 110
1, 716550, Control_c, 0, 64, 82
1, 716560, Note_on_c, 0, 66, 97
1, 716565, Control_c, 0, 64, 72
1, 716580, Control_c, 0, 64, 71
1, 716595, Control_c, 0, 64, 78
1, 716610, Control_c, 0, 64, 96
1, 716625, Control_c, 0, 64, 127
1, 716629, Note_off_c, 0, 66, 49
1, 716636, Note_on_c, 0, 68, 107
1, 716671, Note_off_c, 0, 68, 64
1, 716708, Note_off_c, 0, 83, 54
1, 716717, Note_on_c, 0, 73, 97
1, 716727, Note_on_c, 0, 58, 81
1, 716776, Note_off_c, 0, 58, 63
1, 716794, Note_off_c, 0, 73, 58
1, 716805, Note_on_c, 0, 82, 95
1, 716818, Note_on_c, 0, 64, 77
1, 716849, Note_off_c, 0, 64, 65
1, 716888, Note_on_c, 0, 77, 84
1, 716891, Note_on_c, 0, 72, 74
1, 716901, Note_off_c, 0, 82, 64
1, 716916, Note_off_c, 0, 72, 66
1, 716921, Note_on_c, 0, 71, 25
1, 716929, Note_off_c, 0, 77, 65
1, 716955, Note_off_c, 0, 71, 51
1, 716991, Note_on_c, 0, 78, 104
1, 717081, Note_on_c, 0, 68, 84
1, 717097, Note_on_c, 0, 61, 87
1, 717116, Note_off_c, 0, 78, 61
1, 717149, Note_off_c, 0, 68, 63
1, 717167, Note_on_c, 0, 73, 96
1, 717177, Note_on_c, 0, 70, 88
1, 717198, Note_off_c, 0, 73, 68
1, 717215, Note_off_c, 0, 61, 57
1, 717222, Note_off_c, 0, 70, 60
1, 717252, Note_on_c, 0, 65, 73
1, 717258, Note_on_c, 0, 82, 98
1, 717282, Poly_aftertouch_c, 0, 71, 0
1, 717302, Note_off_c, 0, 65, 64
1, 717347, Note_on_c, 0, 66, 102
1, 717380, Note_off_c, 0, 66, 68
1, 717415, Note_off_c, 0, 82, 58
1, 717430, Note_on_c, 0, 71, 92
1, 717461, Note_on_c, 0, 56, 63
1, 717514, Note_off_c, 0, 56, 61
1, 717517, Note_off_c, 0, 71, 58
1, 717534, Note_on_c, 0, 80, 85
1, 717556, Note_on_c, 0, 61, 32
1, 717577, Note_on_c, 0, 60, 43
1, 717598, Note_on_c, 0, 75, 87
1, 717606, Note_off_c, 0, 60, 52
1, 717618, Note_off_c, 0, 80, 63
1, 717631, Note_on_c, 0, 70, 56
1, 717639, Note_off_c, 0, 75, 65
1, 717650, Note_off_c, 0, 70, 66
1, 717692, Note_on_c, 0, 77, 107
1, 717791, Note_off_c, 0, 61, 37
1, 717794, Note_on_c, 0, 59, 58
1, 717806, Note_on_c, 0, 66, 67
1, 717835, Note_off_c, 0, 77, 50
1, 717863, Note_off_c, 0, 66, 62
1, 717881, Note_on_c, 0, 71, 70
1, 717890, Note_on_c, 0, 68, 72
1, 717922, Note_off_c, 0, 71, 63
1, 717932, Note_off_c, 0, 59, 61
1, 717936, Note_off_c, 0, 68, 57
1, 717949, Note_on_c, 0, 80, 95
1, 717964, Note_on_c, 0, 63, 74
1, 718012, Note_off_c, 0, 80, 62
1, 718032, Note_off_c, 0, 63, 61
1, 718045, Note_on_c, 0, 70, 86
1, 718058, Note_on_c, 0, 65, 65
1, 718086, Note_off_c, 0, 65, 67
1, 718089, Note_off_c, 0, 70, 65
1, 718125, Note_on_c, 0, 78, 95
1, 718132, Note_on_c, 0, 54, 65
1, 718201, Note_off_c, 0, 54, 63
1, 718209, Note_on_c, 0, 59, 72
1, 718218, Note_on_c, 0, 75, 88
1, 718237, Note_off_c, 0, 78, 60
1, 718302, Note_on_c, 0, 68, 85
1, 718310, Note_on_c, 0, 65, 80
1, 718323, Note_off_c, 0, 68, 70
1, 718331, Note_off_c, 0, 75, 56
1, 718339, Note_off_c, 0, 59, 48
1, 718399, Note_on_c, 0, 70, 84
1, 718402, Note_on_c, 0, 66, 75
1, 718407, Note_off_c, 0, 65, 61
1, 718429, Note_off_c, 0, 66, 67
1, 718478, Note_on_c, 0, 78, 98
1, 718485, Note_on_c, 0, 53, 76
1, 718495, Note_off_c, 0, 70, 61
1, 718576, Note_on_c, 0, 69, 84
1, 718578, Note_on_c, 0, 54, 79
1, 718593, Note_off_c, 0, 53, 59
1, 718594, Note_off_c, 0, 78, 62
1, 718620, Note_off_c, 0, 69, 65
1, 718669, Note_on_c, 0, 77, 95
1, 718672, Note_on_c, 0, 56, 78
1, 718677, Control_c, 0, 64, 117
1, 718686, Note_off_c, 0, 54, 60
1, 718692, Control_c, 0, 64, 74
1, 718707, Control_c, 0, 64, 65
1, 718710, Note_off_c, 0, 77, 62
1, 718721, Control_c, 0, 64, 66
1, 718736, Control_c, 0, 64, 72
1, 718749, Note_off_c, 0, 56, 54
1, 718751, Control_c, 0, 64, 86
1, 718760, Note_on_c, 0, 76, 97
1, 718761, Note_on_c, 0, 58, 86
1, 718766, Control_c, 0, 64, 127
1, 718820, Note_off_c, 0, 58, 63
1, 718856, Note_on_c, 0, 71, 90
1, 718859, Note_on_c, 0, 59, 78
1, 718870, Note_off_c, 0, 76, 64
1, 718936, Note_off_c, 0, 59, 57
1, 718948, Note_on_c, 0, 68, 96
1, 718948, Note_off_c, 0, 71, 62
1, 718954, Note_on_c, 0, 61, 72
1, 719038, Note_on_c, 0, 63, 80
1, 719043, Note_on_c, 0, 65, 93
1, 719055, Note_off_c, 0, 68, 61
1, 719063, Note_off_c, 0, 63, 69
1, 719102, Note_off_c, 0, 61, 35
1, 719106, Note_off_c, 0, 65, 59
1, 719106, Control_c, 0, 64, 103
1, 719121, Control_c, 0, 64, 61
1, 719136, Control_c, 0, 64, 0
1, 719145, Note_on_c, 0, 46, 85
1, 719149, Note_on_c, 0, 34, 82
1, 719240, Note_on_c, 0, 64, 68
1, 719246, Note_on_c, 0, 71, 75
1, 719253, Note_on_c, 0, 68, 76
1, 719321, Control_c, 0, 64, 42
1, 719336, Control_c, 0, 64, 77
1, 719351, Control_c, 0, 64, 127
1, 719352, Note_off_c, 0, 64, 63
1, 719356, Note_on_c, 0, 63, 73
1, 719398, Note_off_c, 0, 34, 62
1, 719413, Note_off_c, 0, 63, 61
1, 719427, Note_off_c, 0, 46, 62
1, 719440, Note_on_c, 0, 64, 70
1, 719480, Note_off_c, 0, 71, 59
1, 719504, Note_off_c, 0, 68, 61
1, 719515, Note_on_c, 0, 60, 81
1, 719515, Control_c, 0, 64, 90
1, 719529, Note_off_c, 0, 64, 64
1, 719530, Control_c, 0, 64, 54
1, 719544, Control_c, 0, 64, 0
1, 719559, Control_c, 0, 64, 56
1, 719574, Control_c, 0, 64, 87
1, 719589, Control_c, 0, 64, 127
1, 719590, Note_on_c, 0, 63, 84
1, 719595, Note_on_c, 0, 70, 85
1, 719603, Note_on_c, 0, 66, 79
1, 719615, Note_on_c, 0, 59, 69
1, 719616, Note_off_c, 0, 60, 64
1, 719648, Control_c, 0, 64, 119
1, 719663, Control_c, 0, 64, 97
1, 719678, Control_c, 0, 64, 127
1, 719678, Note_off_c, 0, 59, 60
1, 719699, Note_on_c, 0, 58, 81
1, 719754, Note_off_c, 0, 66, 62
1, 719760, Note_off_c, 0, 63, 59
1, 719772, Note_off_c, 0, 58, 64
1, 719777, Note_on_c, 0, 59, 83
1, 719826, Control_c, 0, 64, 80
1, 719841, Control_c, 0, 64, 61
1, 719842, Note_off_c, 0, 70, 59
1, 719848, Note_off_c, 0, 59, 60
1, 719851, Note_on_c, 0, 55, 84
1, 719855, Control_c, 0, 64, 63
1, 719870, Control_c, 0, 64, 83
1, 719885, Control_c, 0, 64, 127
1, 719949, Note_on_c, 0, 58, 77
1, 719950, Note_on_c, 0, 71, 90
1, 719954, Note_on_c, 0, 68, 79
1, 719967, Control_c, 0, 64, 73
1, 719969, Note_on_c, 0, 64, 64
1, 719978, Note_off_c, 0, 55, 59
1, 719982, Control_c, 0, 64, 61
1, 719996, Control_c, 0, 64, 59
1, 720011, Control_c, 0, 64, 62
1, 720026, Control_c, 0, 64, 70
1, 720041, Control_c, 0, 64, 97
1, 720053, Note_on_c, 0, 63, 81
1, 720053, Note_off_c, 0, 64, 64
1, 720056, Control_c, 0, 64, 127
1, 720102, Note_off_c, 0, 63, 62
1, 720114, Control_c, 0, 64, 71
1, 720129, Control_c, 0, 64, 35
1, 720134, Note_on_c, 0, 64, 74
1, 720144, Control_c, 0, 64, 29
1, 720159, Control_c, 0, 64, 64
1, 720174, Control_c, 0, 64, 99
1, 720185, Note_off_c, 0, 71, 51
1, 720188, Control_c, 0, 64, 127
1, 720217, Note_off_c, 0, 68, 59
1, 720224, Note_on_c, 0, 60, 79
1, 720234, Control_c, 0, 64, 94
1, 720236, Note_off_c, 0, 64, 63
1, 720249, Control_c, 0, 64, 63
1, 720264, Control_c, 0, 64, 42
1, 720279, Control_c, 0, 64, 63
1, 720293, Control_c, 0, 64, 79
1, 720304, Note_on_c, 0, 63, 89
1, 720308, Control_c, 0, 64, 127
1, 720310, Note_on_c, 0, 70, 89
1, 720320, Note_on_c, 0, 66, 80
1, 720322, Note_off_c, 0, 60, 66
1, 720331, Note_off_c, 0, 58, 59
1, 720335, Note_on_c, 0, 59, 79
1, 720367, Control_c, 0, 64, 71
1, 720382, Control_c, 0, 64, 32
1, 720385, Note_off_c, 0, 59, 55
1, 720397, Control_c, 0, 64, 0
1, 720415, Note_on_c, 0, 58, 87
1, 720441, Control_c, 0, 64, 57
1, 720456, Control_c, 0, 64, 80
1, 720471, Control_c, 0, 64, 127
1, 720486, Note_off_c, 0, 58, 62
1, 720492, Note_on_c, 0, 59, 86
1, 720516, Control_c, 0, 64, 93
1, 720531, Control_c, 0, 64, 60
1, 720543, Note_off_c, 0, 59, 44
1, 720546, Control_c, 0, 64, 0
1, 720570, Note_on_c, 0, 55, 91
1, 720593, Note_off_c, 0, 70, 60
1, 720605, Control_c, 0, 64, 68
1, 720610, Note_off_c, 0, 66, 35
1, 720619, Control_c, 0, 64, 127
1, 720633, Note_off_c, 0, 63, 48
1, 720638, Note_off_c, 0, 55, 61
1, 720649, Control_c, 0, 64, 78
1, 720652, Note_on_c, 0, 66, 68
1, 720656, Note_on_c, 0, 69, 91
1, 720662, Note_on_c, 0, 62, 77
1, 720664, Control_c, 0, 64, 0
1, 720671, Note_on_c, 0, 58, 71
1, 720703, Note_on_c, 0, 65, 58
1, 720732, Note_off_c, 0, 66, 60
1, 720760, Note_off_c, 0, 62, 62
1, 720760, Note_on_c, 0, 61, 84
1, 720790, Control_c, 0, 64, 43
1, 720805, Control_c, 0, 64, 66
1, 720819, Control_c, 0, 64, 65
1, 720834, Control_c, 0, 64, 12
1, 720843, Note_on_c, 0, 62, 83
1, 720849, Control_c, 0, 64, 0
1, 720871, Note_off_c, 0, 69, 61
1, 720883, Note_off_c, 0, 61, 40
1, 720920, Note_off_c, 0, 65, 36
1, 720923, Control_c, 0, 64, 34
1, 720928, Note_on_c, 0, 59, 84
1, 720937, Control_c, 0, 64, 67
1, 720944, Note_off_c, 0, 62, 63
1, 720952, Control_c, 0, 64, 82
1, 720967, Control_c, 0, 64, 80
1, 720982, Control_c, 0, 64, 61
1, 720997, Control_c, 0, 64, 0
1, 721008, Note_on_c, 0, 61, 84
1, 721009, Note_on_c, 0, 68, 85
1, 721011, Note_off_c, 0, 58, 63
1, 721021, Note_on_c, 0, 57, 72
1, 721023, Note_on_c, 0, 63, 75
1, 721029, Note_off_c, 0, 59, 65
1, 721083, Note_off_c, 0, 57, 61
1, 721102, Control_c, 0, 64, 44
1, 721103, Note_on_c, 0, 56, 86
1, 721116, Control_c, 0, 64, 56
1, 721146, Control_c, 0, 64, 53
1, 721157, Note_off_c, 0, 56, 67
1, 721161, Control_c, 0, 64, 46
1, 721176, Control_c, 0, 64, 40
1, 721183, Note_on_c, 0, 57, 83
1, 721190, Control_c, 0, 64, 39
1, 721234, Control_c, 0, 64, 40
1, 721239, Note_off_c, 0, 63, 58
1, 721248, Note_off_c, 0, 57, 59
1, 721249, Control_c, 0, 64, 42
1, 721257, Note_on_c, 0, 53, 97
1, 721264, Control_c, 0, 64, 43
1, 721265, Note_off_c, 0, 68, 58
1, 721302, Note_off_c, 0, 61, 55
1, 721334, Note_on_c, 0, 67, 86
1, 721339, Control_c, 0, 64, 43
1, 721339, Note_on_c, 0, 60, 82
1, 721345, Note_on_c, 0, 64, 79
1, 721346, Note_on_c, 0, 56, 86
1, 721347, Note_off_c, 0, 53, 62
1, 721354, Control_c, 0, 64, 44
1, 721368, Control_c, 0, 64, 45
1, 721383, Control_c, 0, 64, 46
1, 721386, Note_off_c, 0, 67, 63
1, 721398, Control_c, 0, 64, 47
1, 721413, Control_c, 0, 64, 47
1, 721413, Note_off_c, 0, 64, 61
1, 721437, Note_on_c, 0, 58, 87
1, 721443, Note_off_c, 0, 60, 62
1, 721505, Note_on_c, 0, 55, 75
1, 721515, Note_off_c, 0, 56, 65
1, 721516, Note_on_c, 0, 66, 87
1, 721520, Note_on_c, 0, 59, 78
1, 721529, Note_on_c, 0, 63, 70
1, 721553, Control_c, 0, 64, 47
1, 721555, Note_off_c, 0, 55, 63
1, 721559, Note_off_c, 0, 58, 55
1, 721568, Control_c, 0, 64, 46
1, 721583, Control_c, 0, 64, 45
1, 721598, Control_c, 0, 64, 43
1, 721603, Note_on_c, 0, 52, 98
1, 721613, Control_c, 0, 64, 41
1, 721619, Note_off_c, 0, 66, 61
1, 721619, Note_off_c, 0, 63, 62
1, 721628, Control_c, 0, 64, 38
1, 721629, Note_off_c, 0, 59, 63
1, 721639, Note_off_c, 0, 52, 68
1, 721642, Control_c, 0, 64, 33
1, 721657, Control_c, 0, 64, 30
1, 721672, Control_c, 0, 64, 28
1, 721687, Note_on_c, 0, 65, 91
1, 721687, Control_c, 0, 64, 27
1, 721696, Note_on_c, 0, 54, 88
1, 721701, Note_on_c, 0, 58, 78
1, 721709, Note_on_c, 0, 61, 61
1, 721716, Control_c, 0, 64, 27
1, 721731, Control_c, 0, 64, 25
1, 721742, Note_off_c, 0, 65, 59
1, 721746, Control_c, 0, 64, 18
1, 721748, Note_off_c, 0, 61, 64
1, 721760, Control_c, 0, 64, 0
1, 721767, Note_off_c, 0, 58, 60
1, 721783, Note_on_c, 0, 57, 37
1, 721790, Note_on_c, 0, 56, 84
1, 721813, Note_off_c, 0, 57, 57
1, 721833, Note_off_c, 0, 56, 64
1, 721857, Note_off_c, 0, 54, 63
1, 721878, Note_on_c, 0, 53, 73
1, 721878, Note_on_c, 0, 57, 87
1, 721880, Note_on_c, 0, 64, 86
1, 721887, Note_on_c, 0, 60, 76
1, 721925, Control_c, 0, 64, 46
1, 721938, Note_off_c, 0, 53, 63
1, 721939, Control_c, 0, 64, 51
1, 721954, Control_c, 0, 64, 49
1, 721969, Control_c, 0, 64, 41
1, 721971, Note_off_c, 0, 57, 63
1, 721983, Note_on_c, 0, 51, 97
1, 721983, Control_c, 0, 64, 0
1, 722015, Note_off_c, 0, 51, 63
1, 722043, Note_off_c, 0, 64, 57
1, 722100, Note_on_c, 0, 52, 85
1, 722106, Note_on_c, 0, 40, 74
1, 722127, Note_off_c, 0, 52, 68
1, 722133, Note_off_c, 0, 40, 66
1, 722153, Note_off_c, 0, 60, 65
1, 722207, Note_on_c, 0, 59, 76
1, 722209, Note_on_c, 0, 56, 89
1, 722215, Note_on_c, 0, 64, 78
1, 722216, Note_on_c, 0, 51, 88
1, 722222, Note_on_c, 0, 39, 82
1, 722243, Control_c, 0, 64, 43
1, 722245, Note_off_c, 0, 51, 67
1, 722254, Note_off_c, 0, 39, 67
1, 722258, Control_c, 0, 64, 68
1, 722287, Control_c, 0, 64, 46
1, 722302, Control_c, 0, 64, 0
1, 722316, Note_on_c, 0, 52, 86
1, 722321, Note_on_c, 0, 40, 71
1, 722339, Note_off_c, 0, 52, 72
1, 722348, Note_off_c, 0, 40, 66
1, 722421, Control_c, 0, 64, 17
1, 722421, Note_on_c, 0, 48, 95
1, 722433, Note_on_c, 0, 36, 72
1, 722436, Control_c, 0, 64, 65
1, 722448, Note_off_c, 0, 48, 67
1, 722451, Control_c, 0, 64, 72
1, 722456, Note_off_c, 0, 36, 60
1, 722465, Control_c, 0, 64, 81
1, 722480, Control_c, 0, 64, 92
1, 722495, Control_c, 0, 64, 110
1, 722510, Control_c, 0, 64, 127
1, 722518, Note_on_c, 0, 51, 96
1, 722525, Control_c, 0, 64, 88
1, 722526, Note_on_c, 0, 42, 67
1, 722539, Control_c, 0, 64, 61
1, 722546, Note_off_c, 0, 51, 65
1, 722550, Note_off_c, 0, 42, 59
1, 722554, Control_c, 0, 64, 0
1, 722563, Note_on_c, 0, 52, 26
1, 722564, Note_off_c, 0, 52, 127
1, 722626, Note_on_c, 0, 45, 89
1, 722629, Control_c, 0, 64, 54
1, 722629, Note_on_c, 0, 33, 82
1, 722644, Control_c, 0, 64, 76
1, 722650, Note_off_c, 0, 45, 71
1, 722654, Note_off_c, 0, 33, 65
1, 722659, Control_c, 0, 64, 127
1, 722722, Note_on_c, 0, 48, 97
1, 722733, Control_c, 0, 64, 73
1, 722737, Note_on_c, 0, 36, 63
1, 722744, Note_off_c, 0, 48, 70
1, 722748, Control_c, 0, 64, 0
1, 722763, Note_off_c, 0, 36, 58
1, 722803, Note_off_c, 0, 64, 56
1, 722821, Control_c, 0, 64, 11
1, 722826, Note_on_c, 0, 41, 104
1, 722831, Note_off_c, 0, 59, 57
1, 722832, Note_on_c, 0, 29, 83
1, 722836, Control_c, 0, 64, 62
1, 722851, Control_c, 0, 64, 74
1, 722859, Note_off_c, 0, 29, 64
1, 722865, Note_off_c, 0, 41, 65
1, 722866, Control_c, 0, 64, 99
1, 722880, Control_c, 0, 64, 127
1, 722901, Note_off_c, 0, 56, 62
1, 722910, Control_c, 0, 64, 90
1, 722925, Control_c, 0, 64, 66
1, 722933, Note_on_c, 0, 32, 62
1, 722933, Note_on_c, 0, 44, 94
1, 722940, Control_c, 0, 64, 48
1, 722955, Poly_aftertouch_c, 0, 31, 0
1, 722956, Note_on_c, 0, 34, 63
1, 722962, Control_c, 0, 64, 47
1, 722977, Control_c, 0, 64, 59
1, 722978, Note_off_c, 0, 44, 62
1, 722982, Note_off_c, 0, 32, 62
1, 722989, Note_off_c, 0, 34, 56
1, 722992, Control_c, 0, 64, 64
1, 723006, Control_c, 0, 64, 70
1, 723021, Control_c, 0, 64, 87
1, 723036, Control_c, 0, 64, 127
1, 723062, Note_on_c, 0, 40, 93
1, 723068, Note_on_c, 0, 28, 86
1, 723095, Control_c, 0, 64, 94
1, 723097, Note_on_c, 0, 34, 24
1, 723097, Note_off_c, 0, 28, 65
1, 723098, Note_on_c, 0, 29, 42
1, 723104, Note_off_c, 0, 40, 65
1, 723110, Control_c, 0, 64, 59
1, 723125, Control_c, 0, 64, 0
1, 723137, Note_off_c, 0, 29, 51
1, 723141, Note_off_c, 0, 34, 53
1, 723166, Note_on_c, 0, 52, 103
1, 723168, Note_on_c, 0, 60, 99
1, 723169, Note_on_c, 0, 56, 103
1, 723169, Control_c, 0, 64, 53
1, 723172, Note_on_c, 0, 39, 97
1, 723175, Note_on_c, 0, 27, 92
1, 723184, Control_c, 0, 64, 85
1, 723196, Note_on_c, 0, 30, 45
1, 723199, Control_c, 0, 64, 127
1, 723200, Note_on_c, 0, 55, 57
1, 723219, Note_off_c, 0, 39, 60
1, 723225, Note_off_c, 0, 55, 61
1, 723233, Note_off_c, 0, 27, 58
1, 723238, Note_off_c, 0, 30, 55
1, 723282, Poly_aftertouch_c, 0, 34, 127
1, 723319, Poly_aftertouch_c, 0, 34, 0
1, 723321, Note_on_c, 0, 40, 101
1, 723321, Note_on_c, 0, 28, 92
1, 723354, Poly_aftertouch_c, 0, 34, 0
1, 723365, Note_off_c, 0, 40, 65
1, 723387, Note_off_c, 0, 28, 61
1, 723410, Poly_aftertouch_c, 0, 34, 0
1, 723439, Poly_aftertouch_c, 0, 30, 0
1, 723446, Note_off_c, 0, 52, 56
1, 723470, Note_off_c, 0, 60, 59
1, 723488, Note_on_c, 0, 24, 99
1, 723488, Note_on_c, 0, 36, 95
1, 723494, Note_on_c, 0, 35, 80
1, 723516, Note_off_c, 0, 24, 67
1, 723518, Note_off_c, 0, 35, 59
1, 723534, Note_off_c, 0, 36, 64
1, 723535, Note_off_c, 0, 56, 60
1, 723563, Poly_aftertouch_c, 0, 25, 127
1, 723615, Poly_aftertouch_c, 0, 25, 0
1, 723669, Note_on_c, 0, 39, 103
1, 723670, Note_on_c, 0, 33, 89
1, 723670, Note_on_c, 0, 52, 104
1, 723671, Note_on_c, 0, 57, 105
1, 723672, Note_on_c, 0, 27, 99
1, 723672, Note_on_c, 0, 53, 115
1, 723672, Note_on_c, 0, 63, 104
1, 723676, Note_on_c, 0, 56, 64
1, 723711, Control_c, 0, 64, 65
1, 723726, Control_c, 0, 64, 0
1, 723785, Control_c, 0, 64, 33
1, 723800, Control_c, 0, 64, 67
1, 723815, Control_c, 0, 64, 127
1, 723919, Note_off_c, 0, 27, 60
1, 723924, Note_off_c, 0, 39, 56
1, 723932, Note_off_c, 0, 63, 60
1, 723959, Note_off_c, 0, 52, 57
1, 723974, Note_off_c, 0, 53, 46
1, 724007, Note_off_c, 0, 56, 38
1, 724077, Note_off_c, 0, 33, 61
1, 724089, Note_off_c, 0, 57, 59
1, 724856, Note_on_c, 0, 88, 100
1, 724919, Note_off_c, 0, 88, 63
1, 724956, Note_on_c, 0, 83, 90
1, 724963, Note_on_c, 0, 81, 72
1, 724987, Note_off_c, 0, 81, 70
1, 724987, Note_off_c, 0, 83, 59
1, 725031, Note_on_c, 0, 87, 98
1, 725083, Note_on_c, 0, 80, 95
1, 725094, Note_off_c, 0, 87, 62
1, 725132, Note_off_c, 0, 80, 63
1, 725160, Note_on_c, 0, 86, 105
1, 725194, Note_off_c, 0, 86, 66
1, 725217, Note_on_c, 0, 81, 104
1, 725248, Note_off_c, 0, 81, 67
1, 725282, Note_on_c, 0, 82, 106
1, 725322, Note_off_c, 0, 82, 64
1, 725330, Note_on_c, 0, 77, 110
1, 725353, Note_off_c, 0, 77, 64
1, 725389, Note_on_c, 0, 81, 113
1, 725427, Note_off_c, 0, 81, 67
1, 725444, Note_on_c, 0, 74, 108
1, 725470, Note_off_c, 0, 74, 64
1, 725503, Note_on_c, 0, 80, 102
1, 725538, Note_on_c, 0, 75, 107
1, 725565, Note_off_c, 0, 75, 60
1, 725613, Note_on_c, 0, 76, 111
1, 725639, Note_off_c, 0, 76, 70
1, 725641, Note_off_c, 0, 80, 61
1, 725690, Note_on_c, 0, 77, 87
1, 725748, Note_on_c, 0, 78, 72
1, 725771, Note_on_c, 0, 80, 67
1, 725774, Note_off_c, 0, 77, 61
1, 725804, Note_off_c, 0, 78, 64
1, 725818, Note_on_c, 0, 83, 72
1, 725846, Note_off_c, 0, 80, 57
1, 725879, Note_on_c, 0, 77, 80
1, 725935, Note_off_c, 0, 83, 59
1, 725968, Note_off_c, 0, 77, 61
1, 725969, Note_on_c, 0, 72, 70
1, 726005, Note_off_c, 0, 72, 61
1, 726065, Note_on_c, 0, 71, 94
1, 726106, Note_on_c, 0, 72, 75
1, 726132, Note_off_c, 0, 71, 61
1, 726180, Note_on_c, 0, 73, 71
1, 726213, Note_off_c, 0, 72, 59
1, 726221, Note_on_c, 0, 75, 61
1, 726250, Note_off_c, 0, 73, 64
1, 726266, Note_on_c, 0, 76, 71
1, 726305, Note_off_c, 0, 75, 48
1, 726330, Note_on_c, 0, 71, 56
1, 726350, Note_off_c, 0, 76, 57
1, 726367, Note_off_c, 0, 71, 62
1, 726383, Note_on_c, 0, 65, 65
1, 726402, Note_on_c, 0, 67, 29
1, 726414, Note_off_c, 0, 65, 65
1, 726436, Note_off_c, 0, 67, 44
1, 726443, Note_on_c, 0, 64, 94
1, 726488, Note_on_c, 0, 65, 73
1, 726519, Note_off_c, 0, 64, 59
1, 726546, Note_on_c, 0, 66, 81
1, 726571, Note_off_c, 0, 65, 62
1, 726578, Note_on_c, 0, 68, 68
1, 726609, Note_on_c, 0, 71, 79
1, 726624, Note_off_c, 0, 66, 58
1, 726657, Note_on_c, 0, 65, 75
1, 726706, Note_off_c, 0, 68, 60
1, 726725, Note_on_c, 0, 60, 83
1, 726731, Note_off_c, 0, 71, 62
1, 726754, Note_off_c, 0, 65, 62
1, 726779, Note_on_c, 0, 59, 99
1, 726780, Note_off_c, 0, 60, 66
1, 726853, Note_on_c, 0, 60, 78
1, 726880, Note_off_c, 0, 59, 68
1, 726904, Note_on_c, 0, 61, 74
1, 726921, Note_off_c, 0, 61, 41
1, 726940, Note_on_c, 0, 62, 70
1, 726957, Note_off_c, 0, 60, 64
1, 726979, Note_on_c, 0, 64, 77
1, 726986, Note_off_c, 0, 62, 61
1, 727033, Note_on_c, 0, 59, 69
1, 727068, Note_on_c, 0, 53, 83
1, 727072, Note_off_c, 0, 64, 61
1, 727089, Note_off_c, 0, 59, 62
1, 727113, Note_off_c, 0, 53, 65
1, 727119, Note_on_c, 0, 52, 111
1, 727191, Note_on_c, 0, 53, 73
1, 727223, Note_on_c, 0, 54, 82
1, 727232, Note_off_c, 0, 53, 63
1, 727258, Note_on_c, 0, 56, 67
1, 727274, Note_on_c, 0, 59, 71
1, 727275, Note_off_c, 0, 54, 58
1, 727278, Note_off_c, 0, 52, 62
1, 727297, Note_on_c, 0, 58, 48
1, 727307, Note_on_c, 0, 54, 64
1, 727336, Note_off_c, 0, 58, 63
1, 727352, Note_on_c, 0, 53, 81
1, 727357, Note_off_c, 0, 54, 64
1, 727366, Note_off_c, 0, 56, 63
1, 727373, Note_off_c, 0, 59, 60
1, 727374, Note_on_c, 0, 48, 84
1, 727415, Note_off_c, 0, 53, 63
1, 727430, Note_off_c, 0, 48, 64
1, 727455, Note_on_c, 0, 47, 108
1, 727521, Note_on_c, 0, 48, 69
1, 727544, Note_on_c, 0, 49, 85
1, 727554, Note_off_c, 0, 48, 64
1, 727578, Note_on_c, 0, 51, 53
1, 727578, Note_off_c, 0, 47, 62
1, 727595, Note_off_c, 0, 49, 66
1, 727615, Note_on_c, 0, 52, 66
1, 727651, Note_on_c, 0, 47, 65
1, 727664, Note_off_c, 0, 51, 62
1, 727685, Note_off_c, 0, 52, 63
1, 727687, Note_off_c, 0, 47, 63
1, 727691, Note_on_c, 0, 41, 71
1, 727691, Note_on_c, 0, 43, 63
1, 727725, Note_on_c, 0, 40, 104
1, 727727, Note_off_c, 0, 41, 66
1, 727755, Note_off_c, 0, 43, 0
1, 727756, Note_off_c, 0, 40, 65
1, 727792, Poly_aftertouch_c, 0, 43, 127
1, 727802, Note_on_c, 0, 48, 68
1, 727804, Note_on_c, 0, 47, 69
1, 727805, Poly_aftertouch_c, 0, 43, 0
1, 727830, Note_off_c, 0, 48, 66
1, 727882, Note_on_c, 0, 35, 72
1, 727892, Note_on_c, 0, 41, 69
1, 727922, Note_off_c, 0, 41, 66
1, 727926, Note_on_c, 0, 45, 40
1, 727926, Note_off_c, 0, 47, 59
1, 727962, Note_off_c, 0, 45, 49
1, 727969, Note_on_c, 0, 28, 77
1, 727971, Note_off_c, 0, 35, 60
1, 728042, Note_off_c, 0, 28, 59
1, 728136, Note_on_c, 0, 63, 115
1, 728141, Note_on_c, 0, 27, 93
1, 728141, Note_on_c, 0, 39, 95
1, 728174, Note_on_c, 0, 70, 46
1, 728175, Note_on_c, 0, 26, 49
1, 728181, Control_c, 0, 64, 93
1, 728204, Control_c, 0, 64, 64
1, 728216, Note_off_c, 0, 26, 53
1, 728219, Control_c, 0, 64, 0
1, 728227, Poly_aftertouch_c, 0, 37, 127
1, 728263, Poly_aftertouch_c, 0, 37, 0
1, 728353, Control_c, 0, 64, 58
1, 728368, Control_c, 0, 64, 76
1, 728382, Control_c, 0, 64, 127
1, 728532, Note_off_c, 0, 27, 58
1, 728600, Note_off_c, 0, 63, 52
1, 728656, Note_off_c, 0, 70, 40
1, 728662, Note_on_c, 0, 66, 88
1, 728672, Note_on_c, 0, 62, 83
1, 728703, Note_on_c, 0, 68, 40
1, 728710, Note_off_c, 0, 39, 58
1, 728767, Note_off_c, 0, 68, 0
1, 728806, Poly_aftertouch_c, 0, 68, 127
1, 728862, Note_off_c, 0, 62, 59
1, 728877, Note_off_c, 0, 66, 59
1, 728882, Poly_aftertouch_c, 0, 68, 0
1, 729080, Note_on_c, 0, 70, 93
1, 729084, Note_on_c, 0, 61, 99
1, 729085, Note_on_c, 0, 65, 84
1, 729098, Note_on_c, 0, 71, 80
1, 729104, Note_on_c, 0, 67, 64
1, 729127, Note_off_c, 0, 67, 40
1, 729146, Note_on_c, 0, 73, 11
1, 729333, Note_off_c, 0, 71, 44
1, 729339, Note_off_c, 0, 73, 41
1, 729346, Note_off_c, 0, 70, 46
1, 729372, Note_off_c, 0, 61, 58
1, 729380, Note_off_c, 0, 65, 58
1, 729451, Note_on_c, 0, 60, 103
1, 729452, Note_on_c, 0, 74, 102
1, 729453, Note_on_c, 0, 64, 96
1, 729453, Note_on_c, 0, 69, 102
1, 729486, Control_c, 0, 64, 75
1, 729501, Control_c, 0, 64, 62
1, 729515, Control_c, 0, 64, 55
1, 729530, Control_c, 0, 64, 60
1, 729545, Control_c, 0, 64, 64
1, 729560, Control_c, 0, 64, 71
1, 729575, Control_c, 0, 64, 94
1, 729590, Control_c, 0, 64, 127
1, 729678, Note_off_c, 0, 64, 57
1, 729704, Note_off_c, 0, 74, 54
1, 729724, Note_off_c, 0, 69, 58
1, 729745, Note_off_c, 0, 60, 59
1, 729805, Note_on_c, 0, 59, 82
1, 729813, Note_on_c, 0, 63, 83
1, 729819, Note_on_c, 0, 68, 104
1, 729820, Note_on_c, 0, 77, 106
1, 729823, Note_on_c, 0, 73, 98
1, 729834, Control_c, 0, 64, 97
1, 729849, Control_c, 0, 64, 68
1, 729864, Control_c, 0, 64, 39
1, 729874, Note_on_c, 0, 67, 11
1, 729879, Control_c, 0, 64, 20
1, 729894, Control_c, 0, 64, 43
1, 729909, Control_c, 0, 64, 57
1, 729918, Note_off_c, 0, 67, 33
1, 729924, Control_c, 0, 64, 66
1, 729939, Control_c, 0, 64, 80
1, 729953, Control_c, 0, 64, 127
1, 730050, Note_off_c, 0, 68, 52
1, 730056, Note_off_c, 0, 77, 54
1, 730062, Note_off_c, 0, 73, 61
1, 730079, Note_off_c, 0, 63, 62
1, 730088, Note_off_c, 0, 59, 63
1, 730152, Note_on_c, 0, 76, 103
1, 730153, Note_on_c, 0, 72, 100
1, 730154, Note_on_c, 0, 67, 94
1, 730158, Note_on_c, 0, 62, 95
1, 730161, Note_on_c, 0, 58, 97
1, 730175, Control_c, 0, 64, 123
1, 730190, Control_c, 0, 64, 74
1, 730205, Control_c, 0, 64, 54
1, 730219, Control_c, 0, 64, 0
1, 730249, Control_c, 0, 64, 36
1, 730263, Control_c, 0, 64, 60
1, 730278, Control_c, 0, 64, 74
1, 730293, Control_c, 0, 64, 127
1, 730336, Note_off_c, 0, 76, 58
1, 730379, Note_off_c, 0, 72, 54
1, 730395, Note_off_c, 0, 67, 59
1, 730464, Note_off_c, 0, 58, 59
1, 730466, Note_off_c, 0, 62, 60
1, 730521, Note_on_c, 0, 56, 92
1, 730524, Note_on_c, 0, 78, 99
1, 730525, Note_on_c, 0, 71, 103
1, 730526, Note_on_c, 0, 66, 95
1, 730530, Note_on_c, 0, 61, 91
1, 730567, Control_c, 0, 64, 95
1, 730577, Note_on_c, 0, 57, 68
1, 730582, Control_c, 0, 64, 66
1, 730597, Control_c, 0, 64, 0
1, 730609, Note_off_c, 0, 56, 56
1, 730657, Control_c, 0, 64, 47
1, 730672, Control_c, 0, 64, 63
1, 730687, Control_c, 0, 64, 75
1, 730701, Control_c, 0, 64, 127
1, 730815, Note_off_c, 0, 78, 58
1, 730833, Note_off_c, 0, 71, 47
1, 730851, Note_off_c, 0, 66, 57
1, 730857, Note_off_c, 0, 61, 56
1, 730862, Note_off_c, 0, 57, 62
1, 730925, Note_on_c, 0, 75, 104
1, 730928, Note_on_c, 0, 70, 97
1, 730929, Note_on_c, 0, 60, 89
1, 730930, Note_on_c, 0, 65, 92
1, 730931, Note_on_c, 0, 56, 89
1, 730953, Control_c, 0, 64, 97
1, 730967, Control_c, 0, 64, 69
1, 730982, Control_c, 0, 64, 42
1, 730997, Control_c, 0, 64, 18
1, 731012, Control_c, 0, 64, 43
1, 731027, Control_c, 0, 64, 58
1, 731031, Note_off_c, 0, 75, 61
1, 731033, Note_off_c, 0, 70, 62
1, 731042, Control_c, 0, 64, 65
1, 731056, Control_c, 0, 64, 74
1, 731071, Control_c, 0, 64, 127
1, 731137, Note_off_c, 0, 65, 52
1, 731167, Note_off_c, 0, 60, 58
1, 731179, Note_off_c, 0, 56, 62
1, 731230, Note_on_c, 0, 70, 93
1, 731231, Note_on_c, 0, 69, 97
1, 731235, Note_on_c, 0, 59, 93
1, 731236, Note_on_c, 0, 64, 88
1, 731237, Note_on_c, 0, 55, 95
1, 731257, Control_c, 0, 64, 110
1, 731272, Control_c, 0, 64, 71
1, 731287, Control_c, 0, 64, 52
1, 731301, Control_c, 0, 64, 26
1, 731316, Control_c, 0, 64, 45
1, 731331, Control_c, 0, 64, 58
1, 731346, Control_c, 0, 64, 66
1, 731361, Control_c, 0, 64, 79
1, 731375, Control_c, 0, 64, 127
1, 731390, Note_off_c, 0, 55, 56
1, 731404, Note_off_c, 0, 64, 41
1, 731453, Note_off_c, 0, 69, 60
1, 731461, Note_off_c, 0, 70, 61
1, 731470, Note_off_c, 0, 59, 61
1, 731529, Note_on_c, 0, 74, 107
1, 731530, Note_on_c, 0, 54, 102
1, 731530, Note_on_c, 0, 72, 110
1, 731533, Note_on_c, 0, 67, 99
1, 731538, Note_on_c, 0, 58, 86
1, 731539, Note_on_c, 0, 63, 77
1, 731554, Note_on_c, 0, 64, 65
1, 731569, Note_on_c, 0, 62, 51
1, 731569, Control_c, 0, 64, 82
1, 731584, Control_c, 0, 64, 63
1, 731594, Note_off_c, 0, 62, 57
1, 731599, Control_c, 0, 64, 30
1, 731614, Control_c, 0, 64, 0
1, 731629, Control_c, 0, 64, 43
1, 731641, Note_off_c, 0, 64, 26
1, 731644, Control_c, 0, 64, 58
1, 731650, Note_off_c, 0, 63, 27
1, 731659, Control_c, 0, 64, 65
1, 731673, Control_c, 0, 64, 74
1, 731688, Control_c, 0, 64, 105
1, 731703, Control_c, 0, 64, 127
1, 731778, Note_off_c, 0, 72, 57
1, 731781, Note_off_c, 0, 54, 54
1, 731781, Note_off_c, 0, 67, 56
1, 731801, Note_off_c, 0, 58, 57
1, 731802, Note_off_c, 0, 74, 58
1, 731870, Note_on_c, 0, 53, 92
1, 731870, Note_on_c, 0, 57, 97
1, 731870, Note_on_c, 0, 69, 114
1, 731872, Note_on_c, 0, 67, 105
1, 731873, Note_on_c, 0, 61, 97
1, 731910, Control_c, 0, 64, 75
1, 731924, Control_c, 0, 64, 51
1, 731947, Control_c, 0, 64, 0
1, 731992, Control_c, 0, 64, 46
1, 732006, Control_c, 0, 64, 66
1, 732017, Note_off_c, 0, 69, 63
1, 732021, Control_c, 0, 64, 86
1, 732036, Control_c, 0, 64, 127
1, 732069, Note_off_c, 0, 57, 62
1, 732161, Note_off_c, 0, 67, 57
1, 732170, Note_off_c, 0, 61, 60
1, 732172, Note_off_c, 0, 53, 60
1, 732234, Note_on_c, 0, 65, 108
1, 732234, Note_on_c, 0, 66, 116
1, 732240, Note_on_c, 0, 52, 94
1, 732240, Note_on_c, 0, 60, 100
1, 732242, Note_on_c, 0, 56, 87
1, 732266, Note_on_c, 0, 54, 59
1, 732279, Note_off_c, 0, 60, 67
1, 732282, Note_on_c, 0, 68, 6
1, 732288, Note_off_c, 0, 54, 62
1, 732292, Note_off_c, 0, 56, 67
1, 732322, Note_off_c, 0, 52, 63
1, 732329, Note_off_c, 0, 68, 49
1, 732335, Note_off_c, 0, 65, 51
1, 732419, Note_off_c, 0, 66, 56
1, 732761, Note_on_c, 0, 63, 107
1, 732763, Note_on_c, 0, 75, 104
1, 732770, Note_on_c, 0, 39, 103
1, 732771, Note_on_c, 0, 27, 100
1, 732780, Note_on_c, 0, 73, 78
1, 732794, Note_off_c, 0, 73, 69
1, 732800, Note_on_c, 0, 37, 47
1, 732803, Note_on_c, 0, 26, 53
1, 732815, Control_c, 0, 64, 78
1, 732829, Control_c, 0, 64, 55
1, 732833, Note_off_c, 0, 37, 53
1, 732837, Note_off_c, 0, 26, 53
1, 732844, Control_c, 0, 64, 0
1, 732873, Control_c, 0, 64, 43
1, 732888, Control_c, 0, 64, 63
1, 732903, Control_c, 0, 64, 80
1, 732918, Control_c, 0, 64, 127
1, 733058, Note_off_c, 0, 27, 62
1, 733094, Note_off_c, 0, 63, 55
1, 733103, Note_off_c, 0, 75, 58
1, 733105, Note_off_c, 0, 39, 61
1, 733227, Note_on_c, 0, 66, 104
1, 733228, Note_on_c, 0, 78, 107
1, 733230, Note_on_c, 0, 74, 90
1, 733259, Note_on_c, 0, 50, 83
1, 733264, Note_on_c, 0, 62, 86
1, 733273, Note_on_c, 0, 54, 72
1, 733357, Note_off_c, 0, 50, 61
1, 733375, Note_off_c, 0, 62, 61
1, 733380, Note_off_c, 0, 66, 58
1, 733402, Note_off_c, 0, 54, 63
1, 733406, Note_off_c, 0, 74, 58
1, 733421, Note_off_c, 0, 78, 60
1, 733495, Note_on_c, 0, 61, 93
1, 733501, Note_on_c, 0, 70, 118
1, 733507, Note_on_c, 0, 77, 93
1, 733507, Note_on_c, 0, 82, 102
1, 733510, Note_on_c, 0, 49, 66
1, 733510, Note_on_c, 0, 58, 70
1, 733511, Note_on_c, 0, 76, 93
1, 733519, Note_on_c, 0, 80, 73
1, 733534, Note_off_c, 0, 80, 64
1, 733536, Note_off_c, 0, 61, 62
1, 733538, Note_on_c, 0, 51, 27
1, 733543, Note_off_c, 0, 49, 64
1, 733552, Note_off_c, 0, 58, 61
1, 733588, Note_off_c, 0, 51, 38
1, 733589, Note_on_c, 0, 80, 29
1, 733609, Note_on_c, 0, 52, 78
1, 733612, Note_on_c, 0, 48, 75
1, 733635, Note_on_c, 0, 49, 49
1, 733640, Note_off_c, 0, 80, 39
1, 733652, Note_off_c, 0, 76, 53
1, 733656, Note_off_c, 0, 70, 60
1, 733656, Note_off_c, 0, 77, 54
1, 733658, Note_on_c, 0, 57, 87
1, 733668, Note_off_c, 0, 49, 66
1, 733674, Note_off_c, 0, 48, 62
1, 733689, Note_off_c, 0, 52, 65
1, 733689, Note_off_c, 0, 82, 62
1, 733708, Note_off_c, 0, 57, 66
1, 733750, Note_on_c, 0, 81, 118
1, 733751, Note_on_c, 0, 74, 107
1, 733752, Note_on_c, 0, 64, 92
1, 733754, Note_on_c, 0, 76, 104
1, 733757, Note_on_c, 0, 86, 103
1, 733769, Note_on_c, 0, 84, 75
1, 733770, Note_off_c, 0, 64, 73
1, 733793, Note_on_c, 0, 85, 33
1, 733794, Note_off_c, 0, 85, 127
1, 733874, Note_off_c, 0, 74, 66
1, 733875, Note_off_c, 0, 76, 60
1, 733885, Note_on_c, 0, 47, 82
1, 733890, Control_c, 0, 64, 88
1, 733905, Control_c, 0, 64, 64
1, 733918, Note_off_c, 0, 81, 67
1, 733919, Control_c, 0, 64, 35
1, 733923, Note_on_c, 0, 85, 32
1, 733930, Note_on_c, 0, 51, 73
1, 733934, Control_c, 0, 64, 45
1, 733939, Note_off_c, 0, 86, 51
1, 733949, Control_c, 0, 64, 60
1, 733957, Note_off_c, 0, 85, 60
1, 733964, Control_c, 0, 64, 72
1, 733965, Note_off_c, 0, 84, 0
1, 733972, Note_on_c, 0, 73, 92
1, 733978, Note_on_c, 0, 56, 86
1, 733979, Control_c, 0, 64, 127
1, 733981, Note_off_c, 0, 47, 61
1, 734009, Note_off_c, 0, 51, 64
1, 734014, Note_off_c, 0, 56, 61
1, 734023, Note_off_c, 0, 73, 66
1, 734030, Poly_aftertouch_c, 0, 84, 0
1, 734041, Note_on_c, 0, 79, 69
1, 734069, Note_on_c, 0, 85, 66
1, 734075, Note_off_c, 0, 79, 67
1, 734087, Note_on_c, 0, 84, 66
1, 734087, Note_off_c, 0, 85, 47
1, 734103, Note_off_c, 0, 84, 65
1, 734127, Note_on_c, 0, 68, 115
1, 734130, Note_on_c, 0, 89, 115
1, 734139, Note_on_c, 0, 69, 93
1, 734144, Note_on_c, 0, 70, 77
1, 734152, Note_off_c, 0, 69, 72
1, 734158, Note_off_c, 0, 68, 67
1, 734160, Note_off_c, 0, 70, 64
1, 734167, Note_on_c, 0, 91, 29
1, 734168, Note_off_c, 0, 91, 127
1, 734222, Note_off_c, 0, 89, 0
1, 734244, Poly_aftertouch_c, 0, 89, 0
1, 734474, Note_on_c, 0, 58, 105
1, 734481, Note_on_c, 0, 46, 94
1, 734484, Note_on_c, 0, 60, 101
1, 734485, Note_on_c, 0, 62, 126
1, 734486, Note_on_c, 0, 72, 96
1, 734496, Note_on_c, 0, 49, 66
1, 734497, Note_off_c, 0, 49, 127
1, 734499, Note_on_c, 0, 71, 81
1, 734500, Note_on_c, 0, 69, 83
1, 734501, Note_off_c, 0, 69, 127
1, 734509, Note_off_c, 0, 58, 67
1, 734523, Note_on_c, 0, 70, 36
1, 734524, Note_off_c, 0, 70, 127
1, 734524, Note_off_c, 0, 46, 58
1, 734532, Note_off_c, 0, 71, 0
1, 734544, Note_on_c, 0, 71, 44
1, 734560, Note_off_c, 0, 72, 64
1, 734581, Note_off_c, 0, 62, 58
1, 734594, Note_on_c, 0, 69, 18
1, 734598, Note_off_c, 0, 71, 65
1, 734628, Note_off_c, 0, 60, 62
1, 734628, Note_off_c, 0, 69, 49
1, 734659, Note_on_c, 0, 44, 99
1, 734663, Note_on_c, 0, 46, 83
1, 734668, Control_c, 0, 64, 118
1, 734670, Note_on_c, 0, 45, 92
1, 734679, Note_on_c, 0, 47, 81
1, 734682, Control_c, 0, 64, 65
1, 734696, Note_off_c, 0, 47, 63
1, 734697, Control_c, 0, 64, 0
1, 734712, Control_c, 0, 64, 23
1, 734727, Control_c, 0, 64, 59
1, 734741, Control_c, 0, 64, 75
1, 734756, Control_c, 0, 64, 127
1, 734776, Note_off_c, 0, 45, 61
1, 734792, Note_off_c, 0, 44, 64
1, 734797, Note_off_c, 0, 46, 59
1, 734887, Note_on_c, 0, 78, 112
1, 734893, Note_on_c, 0, 90, 110
1, 734899, Note_on_c, 0, 80, 78
1, 734905, Note_on_c, 0, 75, 115
1, 734911, Note_on_c, 0, 63, 91
1, 734916, Note_off_c, 0, 80, 65
1, 734917, Note_on_c, 0, 91, 70
1, 734922, Note_on_c, 0, 87, 52
1, 734923, Note_off_c, 0, 87, 127
1, 734923, Note_on_c, 0, 66, 73
1, 734923, Note_on_c, 0, 85, 49
1, 734926, Note_on_c, 0, 88, 37
1, 734927, Note_off_c, 0, 88, 127
1, 734929, Note_off_c, 0, 63, 72
1, 734933, Note_off_c, 0, 91, 65
1, 734946, Note_on_c, 0, 68, 45
1, 734947, Note_off_c, 0, 68, 127
1, 734952, Note_off_c, 0, 85, 60
1, 734985, Note_off_c, 0, 75, 59
1, 735002, Note_off_c, 0, 66, 57
1, 735021, Note_on_c, 0, 89, 27
1, 735056, Poly_aftertouch_c, 0, 88, 0
1, 735146, Note_off_c, 0, 89, 35
1, 735180, Note_off_c, 0, 78, 60
1, 735185, Note_off_c, 0, 90, 57
1, 735271, Note_on_c, 0, 87, 111
1, 735271, Note_on_c, 0, 77, 115
1, 735274, Note_on_c, 0, 82, 105
1, 735278, Note_on_c, 0, 49, 96
1, 735282, Note_on_c, 0, 88, 84
1, 735283, Control_c, 0, 64, 81
1, 735283, Note_on_c, 0, 56, 96
1, 735286, Note_on_c, 0, 46, 91
1, 735287, Note_on_c, 0, 89, 78
1, 735288, Note_on_c, 0, 83, 72
1, 735289, Note_on_c, 0, 44, 86
1, 735289, Note_on_c, 0, 58, 97
1, 735298, Control_c, 0, 64, 59
1, 735313, Control_c, 0, 64, 31
1, 735323, Note_off_c, 0, 83, 0
1, 735323, Note_on_c, 0, 83, 51
1, 735328, Control_c, 0, 64, 55
1, 735342, Control_c, 0, 64, 68
1, 735346, Note_off_c, 0, 89, 62
1, 735357, Control_c, 0, 64, 127
1, 735397, Note_off_c, 0, 58, 53
1, 735414, Note_off_c, 0, 88, 38
1, 735414, Note_off_c, 0, 56, 61
1, 735423, Note_off_c, 0, 44, 57
1, 735441, Note_off_c, 0, 46, 61
1, 735452, Note_off_c, 0, 83, 65
1, 735453, Note_off_c, 0, 82, 62
1, 735456, Note_off_c, 0, 49, 61
1, 735471, Note_off_c, 0, 87, 61
1, 735475, Note_off_c, 0, 77, 59
1, 735538, Note_on_c, 0, 52, 108
1, 735546, Note_on_c, 0, 43, 92
1, 735565, Control_c, 0, 64, 97
1, 735580, Control_c, 0, 64, 62
1, 735595, Control_c, 0, 64, 0
1, 735603, Note_off_c, 0, 43, 60
1, 735610, Control_c, 0, 64, 47
1, 735625, Control_c, 0, 64, 71
1, 735633, Note_off_c, 0, 52, 62
1, 735639, Control_c, 0, 64, 127
1, 735647, Note_on_c, 0, 70, 114
1, 735650, Note_on_c, 0, 82, 103
1, 735655, Note_on_c, 0, 76, 83
1, 735667, Note_on_c, 0, 80, 69
1, 735669, Note_on_c, 0, 60, 98
1, 735710, Note_off_c, 0, 60, 68
1, 735748, Note_on_c, 0, 81, 45
1, 735770, Note_off_c, 0, 76, 62
1, 735777, Poly_aftertouch_c, 0, 59, 0
1, 735786, Note_off_c, 0, 81, 49
1, 735790, Note_off_c, 0, 70, 55
1, 735796, Note_off_c, 0, 80, 60
1, 735829, Note_off_c, 0, 82, 62
1, 735906, Note_on_c, 0, 51, 122
1, 735914, Note_on_c, 0, 42, 103
1, 735936, Note_off_c, 0, 42, 71
1, 735939, Note_on_c, 0, 44, 54
1, 735940, Note_off_c, 0, 44, 127
1, 735943, Note_off_c, 0, 51, 68
1, 736013, Note_on_c, 0, 79, 113
1, 736019, Note_on_c, 0, 74, 111
1, 736020, Note_on_c, 0, 86, 107
1, 736046, Note_on_c, 0, 63, 102
1, 736071, Note_on_c, 0, 56, 49
1, 736082, Note_off_c, 0, 63, 60
1, 736099, Note_off_c, 0, 56, 59
1, 736156, Note_off_c, 0, 79, 64
1, 736163, Note_off_c, 0, 86, 59
1, 736215, Note_off_c, 0, 74, 56
1, 736257, Note_on_c, 0, 51, 103
1, 736258, Note_on_c, 0, 49, 101
1, 736271, Note_on_c, 0, 40, 75
1, 736276, Note_on_c, 0, 42, 60
1, 736282, Note_on_c, 0, 41, 65
1, 736284, Note_off_c, 0, 49, 60
1, 736292, Note_off_c, 0, 51, 66
1, 736297, Note_off_c, 0, 42, 65
1, 736300, Note_off_c, 0, 40, 66
1, 736303, Note_off_c, 0, 41, 62
1, 736329, Control_c, 0, 64, 95
1, 736336, Note_on_c, 0, 73, 11
1, 736344, Control_c, 0, 64, 74
1, 736359, Control_c, 0, 64, 67
1, 736374, Control_c, 0, 64, 70
1, 736383, Note_off_c, 0, 73, 0
1, 736388, Control_c, 0, 64, 77
1, 736391, Note_on_c, 0, 73, 90
1, 736392, Note_on_c, 0, 69, 113
1, 736395, Note_on_c, 0, 81, 108
1, 736403, Control_c, 0, 64, 92
1, 736418, Note_on_c, 0, 66, 91
1, 736418, Control_c, 0, 64, 127
1, 736419, Note_on_c, 0, 56, 88
1, 736420, Note_on_c, 0, 78, 60
1, 736452, Note_off_c, 0, 66, 62
1, 736482, Note_off_c, 0, 56, 65
1, 736588, Control_c, 0, 64, 74
1, 736602, Note_off_c, 0, 81, 59
1, 736603, Control_c, 0, 64, 55
1, 736618, Control_c, 0, 64, 44
1, 736633, Control_c, 0, 64, 60
1, 736648, Control_c, 0, 64, 72
1, 736654, Note_off_c, 0, 78, 39
1, 736662, Control_c, 0, 64, 127
1, 736664, Note_on_c, 0, 52, 117
1, 736664, Note_off_c, 0, 69, 60
1, 736671, Note_on_c, 0, 40, 105
1, 736683, Note_off_c, 0, 73, 62
1, 736684, Note_on_c, 0, 42, 75
1, 736690, Note_on_c, 0, 41, 66
1, 736695, Note_on_c, 0, 47, 55
1, 736714, Note_off_c, 0, 42, 51
1, 736714, Note_off_c, 0, 41, 60
1, 736718, Note_off_c, 0, 40, 61
1, 736720, Note_off_c, 0, 47, 60
1, 736739, Note_off_c, 0, 52, 62
1, 736839, Note_on_c, 0, 66, 118
1, 736840, Note_on_c, 0, 78, 103
1, 736843, Note_on_c, 0, 71, 97
1, 736850, Note_on_c, 0, 62, 111
1, 736851, Note_on_c, 0, 60, 115
1, 736863, Note_off_c, 0, 60, 79
1, 736871, Note_off_c, 0, 62, 76
1, 736872, Note_on_c, 0, 75, 48
1, 736954, Note_off_c, 0, 75, 0
1, 736992, Poly_aftertouch_c, 0, 75, 127
1, 737013, Note_off_c, 0, 71, 58
1, 737021, Poly_aftertouch_c, 0, 75, 0
1, 737029, Note_off_c, 0, 78, 58
1, 737258, Note_off_c, 0, 66, 48
1, 737525, Note_on_c, 0, 63, 117
1, 737530, Control_c, 0, 64, 73
1, 737531, Note_on_c, 0, 73, 98
1, 737534, Note_on_c, 0, 39, 119
1, 737538, Note_on_c, 0, 70, 105
1, 737540, Note_on_c, 0, 27, 94
1, 737544, Control_c, 0, 64, 0
1, 737545, Note_on_c, 0, 30, 79
1, 737549, Note_on_c, 0, 34, 71
1, 737549, Note_on_c, 0, 75, 53
1, 737550, Note_off_c, 0, 75, 127
1, 737550, Note_off_c, 0, 70, 44
1, 737551, Note_on_c, 0, 74, 73
1, 737553, Note_on_c, 0, 32, 72
1, 737554, Note_off_c, 0, 32, 127
1, 737555, Note_on_c, 0, 31, 73
1, 737556, Note_off_c, 0, 31, 127
1, 737562, Note_on_c, 0, 33, 59
1, 737563, Note_off_c, 0, 33, 127
1, 737564, Note_on_c, 0, 40, 72
1, 737567, Note_on_c, 0, 62, 44
1, 737570, Note_on_c, 0, 29, 44
1, 737589, Control_c, 0, 64, 52
1, 737596, Note_off_c, 0, 62, 54
1, 737597, Note_on_c, 0, 70, 61
1, 737603, Control_c, 0, 64, 83
1, 737618, Control_c, 0, 64, 127
1, 737628, Note_off_c, 0, 29, 39
1, 737638, Note_off_c, 0, 40, 55
1, 737690, Note_off_c, 0, 74, 54
1, 737692, Note_off_c, 0, 34, 51
1, 737698, Note_off_c, 0, 70, 56
1, 737702, Note_off_c, 0, 63, 58
1, 737704, Note_off_c, 0, 73, 60
1, 737710, Poly_aftertouch_c, 0, 31, 0
1, 737710, Poly_aftertouch_c, 0, 32, 0
1, 737711, Note_off_c, 0, 27, 64
1, 737720, Note_off_c, 0, 39, 57
1, 737733, Note_off_c, 0, 30, 54
1, 737782, Control_c, 0, 64, 64
1, 737797, Control_c, 0, 64, 0
1, 737811, Note_on_c, 0, 34, 111
1, 737856, Note_off_c, 0, 34, 63
1, 737988, Note_on_c, 0, 35, 113
1, 737998, Note_on_c, 0, 33, 82
1, 737999, Note_off_c, 0, 33, 127
1, 738007, Note_off_c, 0, 35, 72
1, 738278, Note_on_c, 0, 46, 69
1, 738318, Note_off_c, 0, 46, 65
1, 738437, Note_on_c, 0, 47, 78
1, 738443, Note_on_c, 0, 36, 57
1, 738461, Note_off_c, 0, 47, 66
1, 738475, Note_off_c, 0, 36, 63
1, 738595, Note_on_c, 0, 31, 60
1, 738626, Note_off_c, 0, 31, 58
1, 738747, Note_on_c, 0, 48, 68
1, 738782, Note_off_c, 0, 48, 63
1, 738918, Note_on_c, 0, 34, 64
1, 738923, Note_on_c, 0, 43, 70
1, 738948, Note_off_c, 0, 34, 63
1, 738952, Note_off_c, 0, 43, 64
1, 739069, Note_on_c, 0, 35, 65
1, 739101, Note_off_c, 0, 35, 62
1, 739211, Note_on_c, 0, 46, 72
1, 739235, Note_off_c, 0, 46, 67
1, 739366, Note_on_c, 0, 36, 62
1, 739370, Note_on_c, 0, 47, 77
1, 739400, Note_off_c, 0, 36, 64
1, 739400, Note_off_c, 0, 47, 64
1, 739524, Note_on_c, 0, 31, 58
1, 739555, Note_off_c, 0, 31, 56
1, 739650, Note_on_c, 0, 48, 71
1, 739681, Note_off_c, 0, 48, 64
1, 739795, Note_on_c, 0, 34, 79
1, 739799, Note_on_c, 0, 43, 85
1, 739822, Note_off_c, 0, 34, 65
1, 739823, Note_off_c, 0, 43, 66
1, 739925, Note_on_c, 0, 35, 66
1, 739958, Note_off_c, 0, 35, 63
1, 740065, Note_on_c, 0, 51, 79
1, 740095, Note_off_c, 0, 51, 69
1, 740217, Note_on_c, 0, 52, 90
1, 740220, Note_on_c, 0, 36, 59
1, 740241, Note_off_c, 0, 52, 67
1, 740252, Note_off_c, 0, 36, 63
1, 740352, Note_on_c, 0, 31, 53
1, 740386, Note_off_c, 0, 31, 54
1, 740473, Note_on_c, 0, 53, 82
1, 740500, Note_off_c, 0, 53, 66
1, 740612, Note_on_c, 0, 34, 79
1, 740616, Note_on_c, 0, 48, 89
1, 740642, Note_off_c, 0, 34, 67
1, 740646, Note_off_c, 0, 48, 65
1, 740737, Note_on_c, 0, 35, 66
1, 740768, Note_off_c, 0, 35, 62
1, 740860, Note_on_c, 0, 51, 84
1, 740890, Note_off_c, 0, 51, 68
1, 741001, Note_on_c, 0, 52, 92
1, 741014, Note_on_c, 0, 36, 60
1, 741032, Note_off_c, 0, 52, 67
1, 741046, Note_off_c, 0, 36, 63
1, 741131, Note_on_c, 0, 31, 64
1, 741162, Note_off_c, 0, 31, 61
1, 741246, Note_on_c, 0, 53, 81
1, 741272, Note_off_c, 0, 53, 68
1, 741376, Note_on_c, 0, 48, 85
1, 741377, Note_on_c, 0, 39, 80
1, 741402, Note_off_c, 0, 48, 67
1, 741416, Note_off_c, 0, 39, 60
1, 741510, Note_on_c, 0, 40, 77
1, 741534, Note_off_c, 0, 40, 66
1, 741627, Note_on_c, 0, 56, 85
1, 741684, Note_off_c, 0, 56, 65
1, 741755, Note_on_c, 0, 41, 89
1, 741762, Note_on_c, 0, 57, 99
1, 741792, Note_off_c, 0, 41, 65
1, 741801, Note_off_c, 0, 57, 63
1, 741881, Note_on_c, 0, 36, 77
1, 741906, Note_off_c, 0, 36, 65
1, 741995, Note_on_c, 0, 58, 90
1, 742045, Note_off_c, 0, 58, 65
1, 742110, Note_on_c, 0, 39, 95
1, 742114, Note_on_c, 0, 53, 97
1, 742148, Note_on_c, 0, 59, 42
1, 742149, Note_off_c, 0, 59, 127
1, 742150, Note_off_c, 0, 39, 63
1, 742155, Note_off_c, 0, 53, 66
1, 742235, Note_on_c, 0, 40, 81
1, 742262, Note_off_c, 0, 40, 66
1, 742357, Note_on_c, 0, 56, 87
1, 742372, Note_on_c, 0, 55, 31
1, 742373, Note_off_c, 0, 55, 127
1, 742409, Note_off_c, 0, 56, 65
1, 742478, Note_on_c, 0, 41, 97
1, 742485, Note_on_c, 0, 57, 97
1, 742523, Note_off_c, 0, 41, 65
1, 742527, Note_off_c, 0, 57, 65
1, 742599, Note_on_c, 0, 36, 85
1, 742632, Note_off_c, 0, 36, 64
1, 742710, Note_on_c, 0, 58, 91
1, 742764, Note_off_c, 0, 58, 65
1, 742828, Note_on_c, 0, 39, 101
1, 742832, Note_on_c, 0, 53, 97
1, 742860, Note_off_c, 0, 39, 65
1, 742873, Note_on_c, 0, 59, 30
1, 742879, Note_off_c, 0, 53, 65
1, 742890, Note_off_c, 0, 59, 44
1, 742947, Note_on_c, 0, 40, 87
1, 742975, Note_off_c, 0, 40, 68
1, 743055, Note_on_c, 0, 61, 86
1, 743061, Note_on_c, 0, 56, 80
1, 743105, Note_off_c, 0, 56, 64
1, 743111, Note_off_c, 0, 61, 64
1, 743166, Note_on_c, 0, 57, 90
1, 743177, Note_on_c, 0, 62, 82
1, 743183, Note_on_c, 0, 41, 87
1, 743215, Note_off_c, 0, 41, 68
1, 743217, Note_off_c, 0, 57, 63
1, 743222, Note_off_c, 0, 62, 52
1, 743288, Note_on_c, 0, 36, 87
1, 743332, Note_off_c, 0, 36, 60
1, 743390, Note_on_c, 0, 58, 92
1, 743391, Note_on_c, 0, 63, 85
1, 743425, Note_off_c, 0, 63, 57
1, 743433, Note_off_c, 0, 58, 58
1, 743496, Note_on_c, 0, 39, 98
1, 743503, Note_on_c, 0, 58, 98
1, 743504, Note_on_c, 0, 53, 87
1, 743525, Note_off_c, 0, 39, 64
1, 743556, Note_off_c, 0, 58, 61
1, 743608, Note_on_c, 0, 40, 84
1, 743642, Note_off_c, 0, 53, 54
1, 743665, Note_off_c, 0, 40, 61
1, 743719, Note_on_c, 0, 61, 86
1, 743722, Note_on_c, 0, 56, 90
1, 743776, Note_off_c, 0, 56, 64
1, 743785, Note_off_c, 0, 61, 62
1, 743834, Note_on_c, 0, 41, 94
1, 743835, Note_on_c, 0, 57, 89
1, 743842, Note_on_c, 0, 62, 83
1, 743882, Note_off_c, 0, 41, 64
1, 743886, Note_off_c, 0, 57, 59
1, 743887, Note_off_c, 0, 62, 50
1, 743955, Note_on_c, 0, 36, 88
1, 743989, Note_off_c, 0, 36, 64
1, 744051, Note_on_c, 0, 58, 86
1, 744054, Note_on_c, 0, 63, 89
1, 744073, Note_on_c, 0, 53, 49
1, 744077, Note_off_c, 0, 58, 65
1, 744100, Note_off_c, 0, 63, 59
1, 744102, Note_off_c, 0, 53, 37
1, 744157, Note_on_c, 0, 45, 94
1, 744159, Note_on_c, 0, 58, 91
1, 744165, Note_on_c, 0, 53, 70
1, 744169, Note_on_c, 0, 47, 71
1, 744182, Note_off_c, 0, 45, 70
1, 744194, Note_off_c, 0, 47, 38
1, 744195, Note_off_c, 0, 53, 62
1, 744222, Note_off_c, 0, 58, 65
1, 744261, Note_on_c, 0, 46, 88
1, 744283, Note_on_c, 0, 47, 51
1, 744292, Note_off_c, 0, 46, 65
1, 744310, Note_off_c, 0, 47, 56
1, 744342, Note_on_c, 0, 65, 85
1, 744357, Note_on_c, 0, 60, 75
1, 744379, Note_off_c, 0, 65, 64
1, 744399, Note_off_c, 0, 60, 63
1, 744446, Note_on_c, 0, 54, 96
1, 744447, Note_on_c, 0, 47, 81
1, 744450, Note_on_c, 0, 66, 92
1, 744481, Note_off_c, 0, 47, 64
1, 744503, Note_off_c, 0, 54, 62
1, 744538, Note_off_c, 0, 66, 58
1, 744554, Note_on_c, 0, 41, 97
1, 744589, Note_off_c, 0, 41, 65
1, 744646, Note_on_c, 0, 55, 83
1, 744646, Note_on_c, 0, 67, 82
1, 744676, Note_on_c, 0, 59, 13
1, 744712, Note_off_c, 0, 59, 45
1, 744719, Note_off_c, 0, 55, 52
1, 744729, Note_off_c, 0, 67, 56
1, 744743, Note_on_c, 0, 45, 102
1, 744752, Note_on_c, 0, 62, 73
1, 744775, Note_off_c, 0, 45, 66
1, 744838, Note_off_c, 0, 62, 59
1, 744846, Note_on_c, 0, 46, 98
1, 744888, Note_off_c, 0, 46, 65
1, 744943, Note_on_c, 0, 65, 86
1, 744947, Note_on_c, 0, 60, 86
1, 744974, Note_off_c, 0, 65, 64
1, 744992, Note_off_c, 0, 60, 63
1, 745044, Note_on_c, 0, 47, 95
1, 745059, Note_on_c, 0, 54, 93
1, 745060, Note_on_c, 0, 66, 90
1, 745085, Note_off_c, 0, 47, 64
1, 745122, Note_off_c, 0, 54, 63
1, 745150, Note_off_c, 0, 66, 56
1, 745151, Note_on_c, 0, 41, 98
1, 745186, Note_off_c, 0, 41, 64
1, 745237, Note_on_c, 0, 55, 92
1, 745241, Note_on_c, 0, 67, 89
1, 745295, Note_off_c, 0, 55, 61
1, 745305, Note_off_c, 0, 67, 57
1, 745328, Note_on_c, 0, 50, 118
1, 745344, Note_on_c, 0, 62, 73
1, 745359, Note_off_c, 0, 50, 68
1, 745394, Note_off_c, 0, 62, 63
1, 745441, Note_on_c, 0, 51, 100
1, 745479, Note_off_c, 0, 51, 67
1, 745526, Note_on_c, 0, 63, 97
1, 745539, Note_on_c, 0, 69, 84
1, 745559, Note_off_c, 0, 69, 71
1, 745571, Note_off_c, 0, 63, 64
1, 745627, Note_on_c, 0, 52, 90
1, 745628, Note_on_c, 0, 58, 108
1, 745631, Note_on_c, 0, 68, 95
1, 745657, Note_on_c, 0, 69, 57
1, 745670, Note_off_c, 0, 52, 66
1, 745692, Note_off_c, 0, 69, 46
1, 745717, Note_off_c, 0, 58, 62
1, 745730, Note_on_c, 0, 46, 99
1, 745734, Note_off_c, 0, 68, 56
1, 745773, Note_off_c, 0, 46, 64
1, 745818, Note_on_c, 0, 57, 98
1, 745819, Note_on_c, 0, 69, 91
1, 745903, Note_on_c, 0, 50, 106
1, 745907, Note_on_c, 0, 61, 67
1, 745922, Note_off_c, 0, 57, 61
1, 745923, Note_off_c, 0, 69, 57
1, 745926, Note_on_c, 0, 64, 66
1, 745936, Note_off_c, 0, 50, 68
1, 745964, Note_off_c, 0, 61, 62
1, 745970, Note_off_c, 0, 64, 61
1, 746012, Note_on_c, 0, 51, 106
1, 746059, Note_off_c, 0, 51, 63
1, 746086, Note_on_c, 0, 62, 96
1, 746086, Note_on_c, 0, 63, 67
1, 746087, Note_off_c, 0, 63, 127
1, 746087, Note_on_c, 0, 69, 89
1, 746094, Note_on_c, 0, 67, 71
1, 746104, Note_off_c, 0, 69, 74
1, 746120, Note_off_c, 0, 62, 64
1, 746120, Note_off_c, 0, 67, 69
1, 746182, Note_on_c, 0, 58, 112
1, 746184, Note_on_c, 0, 68, 106
1, 746193, Note_on_c, 0, 52, 87
1, 746247, Note_off_c, 0, 52, 65
1, 746264, Note_off_c, 0, 58, 62
1, 746273, Note_off_c, 0, 68, 58
1, 746281, Note_on_c, 0, 46, 74
1, 746331, Note_off_c, 0, 46, 64
1, 746358, Note_on_c, 0, 69, 101
1, 746360, Note_on_c, 0, 57, 98
1, 746426, Control_c, 0, 64, 65
1, 746441, Control_c, 0, 64, 127
1, 746443, Note_on_c, 0, 45, 103
1, 746452, Note_on_c, 0, 61, 78
1, 746456, Note_on_c, 0, 33, 76
1, 746462, Poly_aftertouch_c, 0, 67, 127
1, 746469, Note_off_c, 0, 45, 66
1, 746470, Note_off_c, 0, 57, 60
1, 746476, Note_on_c, 0, 64, 61
1, 746481, Note_off_c, 0, 33, 61
1, 746489, Note_off_c, 0, 69, 55
1, 746498, Poly_aftertouch_c, 0, 67, 0
1, 746530, Poly_aftertouch_c, 0, 34, 127
1, 746530, Control_c, 0, 64, 113
1, 746533, Note_on_c, 0, 34, 31
1, 746536, Note_on_c, 0, 46, 100
1, 746545, Control_c, 0, 64, 64
1, 746556, Note_off_c, 0, 61, 62
1, 746560, Note_off_c, 0, 64, 63
1, 746560, Control_c, 0, 64, 0
1, 746575, Note_off_c, 0, 46, 60
1, 746581, Note_on_c, 0, 37, 26
1, 746583, Note_off_c, 0, 34, 62
1, 746607, Note_on_c, 0, 59, 106
1, 746617, Note_on_c, 0, 60, 80
1, 746623, Note_off_c, 0, 37, 52
1, 746680, Note_on_c, 0, 47, 95
1, 746682, Note_off_c, 0, 60, 33
1, 746683, Note_off_c, 0, 59, 64
1, 746692, Note_on_c, 0, 35, 68
1, 746697, Note_on_c, 0, 37, 64
1, 746705, Note_on_c, 0, 67, 86
1, 746705, Note_off_c, 0, 47, 68
1, 746710, Note_on_c, 0, 68, 77
1, 746724, Control_c, 0, 64, 62
1, 746724, Note_off_c, 0, 35, 62
1, 746725, Note_off_c, 0, 67, 72
1, 746728, Note_off_c, 0, 37, 63
1, 746733, Note_off_c, 0, 68, 67
1, 746736, Note_on_c, 0, 71, 46
1, 746739, Control_c, 0, 64, 127
1, 746760, Note_off_c, 0, 71, 58
1, 746782, Note_on_c, 0, 71, 95
1, 746787, Note_on_c, 0, 42, 103
1, 746789, Note_on_c, 0, 72, 87
1, 746793, Note_on_c, 0, 30, 85
1, 746810, Note_off_c, 0, 72, 67
1, 746813, Note_on_c, 0, 32, 49
1, 746824, Note_off_c, 0, 30, 66
1, 746835, Note_off_c, 0, 42, 61
1, 746846, Note_off_c, 0, 71, 57
1, 746846, Note_off_c, 0, 32, 57
1, 746871, Note_on_c, 0, 80, 88
1, 746871, Control_c, 0, 64, 95
1, 746872, Note_on_c, 0, 78, 77
1, 746873, Note_on_c, 0, 79, 92
1, 746886, Control_c, 0, 64, 62
1, 746887, Note_off_c, 0, 78, 69
1, 746893, Note_off_c, 0, 79, 71
1, 746901, Control_c, 0, 64, 0
1, 746902, Note_off_c, 0, 80, 57
1, 746945, Note_on_c, 0, 45, 96
1, 746959, Note_on_c, 0, 33, 70
1, 746959, Note_on_c, 0, 81, 97
1, 746973, Note_off_c, 0, 45, 68
1, 746989, Note_off_c, 0, 33, 61
1, 747001, Note_off_c, 0, 81, 68
1, 747040, Note_on_c, 0, 92, 119
1, 747046, Note_on_c, 0, 46, 103
1, 747048, Note_on_c, 0, 34, 73
1, 747049, Note_on_c, 0, 93, 92
1, 747050, Note_on_c, 0, 95, 99
1, 747069, Note_on_c, 0, 37, 60
1, 747070, Note_off_c, 0, 37, 127
1, 747070, Note_off_c, 0, 95, 68
1, 747075, Note_off_c, 0, 93, 67
1, 747077, Note_on_c, 0, 90, 33
1, 747078, Note_off_c, 0, 90, 127
1, 747080, Note_off_c, 0, 92, 69
1, 747100, Note_off_c, 0, 34, 56
1, 747105, Note_off_c, 0, 46, 55
1, 747161, Note_on_c, 0, 47, 88
1, 747177, Note_on_c, 0, 35, 60
1, 747191, Note_off_c, 0, 47, 66
1, 747206, Note_off_c, 0, 35, 62
1, 747219, Control_c, 0, 64, 63
1, 747228, Note_on_c, 0, 107, 112
1, 747230, Note_on_c, 0, 106, 125
1, 747234, Control_c, 0, 64, 127
1, 747259, Poly_aftertouch_c, 0, 108, 127
1, 747293, Note_on_c, 0, 42, 91
1, 747294, Note_on_c, 0, 32, 73
1, 747316, Note_on_c, 0, 98, 88
1, 747317, Note_off_c, 0, 106, 64
1, 747326, Poly_aftertouch_c, 0, 108, 0
1, 747327, Note_off_c, 0, 107, 57
1, 747334, Note_on_c, 0, 100, 53
1, 747341, Note_off_c, 0, 32, 61
1, 747342, Note_off_c, 0, 42, 59
1, 747358, Note_off_c, 0, 98, 66
1, 747358, Note_off_c, 0, 100, 41
1, 747376, Poly_aftertouch_c, 0, 31, 127
1, 747416, Note_on_c, 0, 96, 122
1, 747416, Poly_aftertouch_c, 0, 31, 0
1, 747418, Note_on_c, 0, 95, 110
1, 747426, Note_on_c, 0, 98, 82
1, 747427, Note_on_c, 0, 93, 96
1, 747428, Control_c, 0, 64, 92
1, 747442, Control_c, 0, 64, 66
1, 747449, Note_on_c, 0, 45, 85
1, 747451, Note_on_c, 0, 94, 28
1, 747452, Note_off_c, 0, 94, 127
1, 747456, Note_on_c, 0, 92, 33
1, 747457, Note_off_c, 0, 92, 127
1, 747457, Note_on_c, 0, 33, 64
1, 747457, Control_c, 0, 64, 22
1, 747472, Control_c, 0, 64, 0
1, 747475, Note_off_c, 0, 98, 0
1, 747475, Note_on_c, 0, 98, 15
1, 747478, Note_off_c, 0, 45, 68
1, 747482, Note_off_c, 0, 96, 66
1, 747484, Note_off_c, 0, 95, 63
1, 747487, Note_off_c, 0, 33, 56
1, 747497, Note_on_c, 0, 88, 103
1, 747499, Note_off_c, 0, 93, 69
1, 747526, Note_off_c, 0, 88, 67
1, 747526, Note_off_c, 0, 98, 36
1, 747557, Note_on_c, 0, 46, 74
1, 747559, Note_on_c, 0, 34, 73
1, 747584, Note_off_c, 0, 46, 66
1, 747584, Note_off_c, 0, 34, 64
1, 747586, Note_on_c, 0, 82, 83
1, 747592, Note_on_c, 0, 83, 69
1, 747595, Note_on_c, 0, 79, 74
1, 747607, Note_on_c, 0, 81, 65
1, 747628, Note_off_c, 0, 83, 43
1, 747637, Note_off_c, 0, 79, 65
1, 747640, Note_off_c, 0, 81, 67
1, 747641, Note_on_c, 0, 47, 74
1, 747647, Note_on_c, 0, 35, 61
1, 747648, Note_off_c, 0, 82, 64
1, 747672, Note_on_c, 0, 74, 88
1, 747677, Note_off_c, 0, 47, 63
1, 747683, Note_off_c, 0, 35, 57
1, 747683, Note_off_c, 0, 74, 73
1, 747726, Note_on_c, 0, 42, 84
1, 747732, Note_on_c, 0, 30, 78
1, 747746, Note_on_c, 0, 68, 76
1, 747747, Note_on_c, 0, 32, 54
1, 747749, Note_on_c, 0, 66, 72
1, 747753, Note_off_c, 0, 42, 68
1, 747761, Note_off_c, 0, 30, 65
1, 747778, Note_on_c, 0, 64, 30
1, 747778, Note_on_c, 0, 67, 42
1, 747785, Note_off_c, 0, 32, 54
1, 747803, Note_off_c, 0, 66, 61
1, 747804, Note_off_c, 0, 67, 59
1, 747806, Note_off_c, 0, 68, 62
1, 747809, Note_off_c, 0, 64, 51
1, 747829, Note_on_c, 0, 59, 90
1, 747832, Note_on_c, 0, 45, 71
1, 747851, Note_off_c, 0, 59, 63
1, 747862, Note_off_c, 0, 45, 63
1, 747909, Note_on_c, 0, 46, 94
1, 747912, Note_on_c, 0, 34, 78
1, 747914, Note_on_c, 0, 70, 98
1, 747921, Note_on_c, 0, 72, 88
1, 747922, Note_on_c, 0, 71, 87
1, 747928, Note_on_c, 0, 37, 32
1, 747929, Note_on_c, 0, 68, 62
1, 747934, Note_off_c, 0, 46, 68
1, 747943, Note_off_c, 0, 72, 68
1, 747945, Note_off_c, 0, 34, 67
1, 747948, Note_off_c, 0, 68, 63
1, 747949, Note_off_c, 0, 71, 61
1, 747967, Note_off_c, 0, 70, 64
1, 747971, Note_off_c, 0, 37, 44
1, 747998, Note_on_c, 0, 47, 84
1, 748003, Note_on_c, 0, 67, 81
1, 748021, Note_off_c, 0, 47, 66
1, 748025, Note_off_c, 0, 67, 69
1, 748079, Note_on_c, 0, 82, 115
1, 748084, Note_on_c, 0, 42, 93
1, 748085, Note_on_c, 0, 80, 95
1, 748092, Note_on_c, 0, 30, 77
1, 748093, Note_on_c, 0, 32, 71
1, 748110, Note_off_c, 0, 42, 68
1, 748116, Note_off_c, 0, 80, 43
1, 748116, Note_off_c, 0, 82, 68
1, 748117, Note_off_c, 0, 30, 64
1, 748121, Note_off_c, 0, 32, 60
1, 748173, Note_on_c, 0, 45, 86
1, 748173, Note_on_c, 0, 76, 78
1, 748176, Note_on_c, 0, 77, 75
1, 748197, Note_off_c, 0, 45, 69
1, 748197, Note_off_c, 0, 76, 70
1, 748202, Note_off_c, 0, 77, 69
1, 748253, Note_on_c, 0, 92, 120
1, 748256, Note_on_c, 0, 46, 92
1, 748257, Note_on_c, 0, 34, 82
1, 748259, Note_on_c, 0, 94, 97
1, 748264, Note_on_c, 0, 93, 94
1, 748277, Note_on_c, 0, 90, 58
1, 748278, Note_off_c, 0, 90, 127
1, 748280, Note_off_c, 0, 46, 70
1, 748304, Note_off_c, 0, 34, 56
1, 748306, Note_off_c, 0, 93, 0
1, 748322, Note_on_c, 0, 88, 89
1, 748331, Note_on_c, 0, 47, 92
1, 748345, Poly_aftertouch_c, 0, 93, 0
1, 748347, Note_on_c, 0, 35, 55
1, 748350, Note_off_c, 0, 88, 66
1, 748351, Note_on_c, 0, 36, 63
1, 748353, Note_on_c, 0, 37, 36
1, 748353, Note_off_c, 0, 92, 62
1, 748358, Note_off_c, 0, 47, 67
1, 748358, Note_off_c, 0, 94, 30
1, 748378, Note_off_c, 0, 36, 58
1, 748380, Note_off_c, 0, 35, 61
1, 748392, Note_off_c, 0, 37, 47
1, 748421, Control_c, 0, 64, 127
1, 748438, Note_on_c, 0, 42, 89
1, 748441, Note_on_c, 0, 30, 89
1, 748445, Poly_aftertouch_c, 0, 99, 0
1, 748450, Note_on_c, 0, 99, 126
1, 748451, Note_off_c, 0, 99, 127
1, 748454, Note_on_c, 0, 105, 77
1, 748455, Note_off_c, 0, 105, 127
1, 748459, Note_on_c, 0, 32, 54
1, 748470, Poly_aftertouch_c, 0, 105, 0
1, 748471, Poly_aftertouch_c, 0, 106, 127
1, 748474, Poly_aftertouch_c, 0, 104, 127
1, 748474, Poly_aftertouch_c, 0, 107, 127
1, 748474, Poly_aftertouch_c, 0, 108, 127
1, 748475, Note_off_c, 0, 42, 62
1, 748479, Note_off_c, 0, 30, 63
1, 748491, Note_off_c, 0, 32, 56
1, 748500, Note_on_c, 0, 99, 59
1, 748501, Note_off_c, 0, 99, 127
1, 748522, Note_on_c, 0, 45, 90
1, 748527, Poly_aftertouch_c, 0, 108, 0
1, 748528, Poly_aftertouch_c, 0, 106, 0
1, 748532, Note_on_c, 0, 33, 66
1, 748533, Note_on_c, 0, 98, 80
1, 748538, Poly_aftertouch_c, 0, 107, 0
1, 748545, Poly_aftertouch_c, 0, 104, 0
1, 748553, Note_off_c, 0, 45, 66
1, 748557, Note_off_c, 0, 98, 70
1, 748559, Note_on_c, 0, 34, 30
1, 748560, Note_on_c, 0, 35, 30
1, 748565, Note_off_c, 0, 33, 61
1, 748601, Note_off_c, 0, 35, 49
1, 748620, Note_off_c, 0, 34, 39
1, 748620, Note_on_c, 0, 46, 94
1, 748621, Note_on_c, 0, 94, 126
1, 748621, Note_on_c, 0, 96, 119
1, 748622, Note_on_c, 0, 37, 90
1, 748623, Note_on_c, 0, 95, 126
1, 748638, Note_on_c, 0, 93, 86
1, 748641, Note_off_c, 0, 46, 71
1, 748644, Note_on_c, 0, 97, 73
1, 748645, Note_off_c, 0, 97, 127
1, 748655, Note_on_c, 0, 47, 42
1, 748656, Note_off_c, 0, 37, 55
1, 748682, Note_off_c, 0, 47, 0
1, 748695, Note_off_c, 0, 96, 63
1, 748697, Note_on_c, 0, 47, 59
1, 748698, Note_off_c, 0, 95, 60
1, 748703, Note_on_c, 0, 86, 105
1, 748705, Note_off_c, 0, 93, 67
1, 748709, Note_on_c, 0, 92, 64
1, 748709, Note_on_c, 0, 36, 61
1, 748709, Note_off_c, 0, 94, 31
1, 748725, Note_off_c, 0, 86, 65
1, 748727, Note_off_c, 0, 47, 64
1, 748728, Note_on_c, 0, 88, 50
1, 748729, Note_off_c, 0, 88, 127
1, 748731, Note_off_c, 0, 92, 64
1, 748733, Note_on_c, 0, 37, 14
1, 748734, Note_off_c, 0, 37, 127
1, 748737, Note_off_c, 0, 36, 57
1, 748782, Poly_aftertouch_c, 0, 35, 127
1, 748784, Note_on_c, 0, 42, 98
1, 748786, Poly_aftertouch_c, 0, 38, 127
1, 748791, Control_c, 0, 64, 104
1, 748792, Note_on_c, 0, 30, 83
1, 748798, Note_on_c, 0, 75, 102
1, 748800, Note_on_c, 0, 32, 72
1, 748802, Note_on_c, 0, 76, 95
1, 748804, Note_on_c, 0, 78, 78
1, 748805, Note_off_c, 0, 78, 127
1, 748805, Note_on_c, 0, 74, 89
1, 748806, Control_c, 0, 64, 65
1, 748811, Note_on_c, 0, 77, 76
1, 748813, Poly_aftertouch_c, 0, 38, 0
1, 748814, Note_on_c, 0, 37, 48
1, 748815, Note_off_c, 0, 37, 127
1, 748816, Poly_aftertouch_c, 0, 35, 0
1, 748817, Note_off_c, 0, 42, 63
1, 748821, Control_c, 0, 64, 0
1, 748824, Note_off_c, 0, 30, 62
1, 748826, Note_off_c, 0, 74, 71
1, 748826, Note_off_c, 0, 77, 71
1, 748831, Note_off_c, 0, 32, 54
1, 748834, Note_on_c, 0, 73, 26
1, 748835, Note_off_c, 0, 73, 127
1, 748842, Note_off_c, 0, 76, 59
1, 748871, Note_on_c, 0, 45, 93
1, 748877, Note_on_c, 0, 67, 104
1, 748883, Note_off_c, 0, 75, 59
1, 748893, Poly_aftertouch_c, 0, 36, 0
1, 748901, Note_off_c, 0, 45, 69
1, 748905, Note_off_c, 0, 67, 69
1, 748909, Note_on_c, 0, 33, 23
1, 748954, Note_off_c, 0, 33, 45
1, 748961, Note_on_c, 0, 34, 60
1, 748963, Note_on_c, 0, 46, 92
1, 748972, Note_on_c, 0, 37, 77
1, 748975, Note_on_c, 0, 68, 94
1, 748979, Note_on_c, 0, 64, 85
1, 748981, Note_on_c, 0, 66, 80
1, 748984, Note_off_c, 0, 46, 69
1, 748987, Note_on_c, 0, 47, 67
1, 748989, Note_off_c, 0, 34, 62
1, 748990, Note_on_c, 0, 67, 77
1, 748992, Note_on_c, 0, 65, 65
1, 748999, Note_off_c, 0, 64, 70
1, 749004, Note_off_c, 0, 37, 61
1, 749009, Note_off_c, 0, 47, 63
1, 749010, Note_off_c, 0, 68, 65
1, 749012, Note_off_c, 0, 65, 61
1, 749016, Note_off_c, 0, 67, 62
1, 749031, Note_off_c, 0, 66, 64
1, 749053, Note_on_c, 0, 35, 44
1, 749068, Note_on_c, 0, 47, 49
1, 749068, Poly_aftertouch_c, 0, 67, 0
1, 749085, Note_off_c, 0, 35, 55
1, 749088, Note_on_c, 0, 37, 23
1, 749101, Note_off_c, 0, 47, 33
1, 749110, Poly_aftertouch_c, 0, 36, 0
1, 749136, Note_on_c, 0, 42, 101
1, 749140, Note_on_c, 0, 32, 88
1, 749140, Note_on_c, 0, 75, 113
1, 749145, Note_on_c, 0, 78, 94
1, 749147, Note_off_c, 0, 37, 0
1, 749165, Note_on_c, 0, 79, 70
1, 749175, Note_on_c, 0, 77, 73
1, 749177, Note_on_c, 0, 30, 43
1, 749178, Note_off_c, 0, 30, 127
1, 749180, Note_off_c, 0, 75, 57
1, 749183, Note_off_c, 0, 32, 64
1, 749183, Note_off_c, 0, 42, 59
1, 749186, Note_on_c, 0, 43, 36
1, 749201, Poly_aftertouch_c, 0, 37, 0
1, 749202, Note_on_c, 0, 76, 33
1, 749204, Note_off_c, 0, 77, 0
1, 749217, Note_on_c, 0, 81, 71
1, 749221, Note_off_c, 0, 43, 48
1, 749228, Note_on_c, 0, 74, 84
1, 749234, Note_on_c, 0, 45, 86
1, 749237, Poly_aftertouch_c, 0, 77, 0
1, 749240, Note_off_c, 0, 79, 64
1, 749241, Note_off_c, 0, 81, 71
1, 749249, Note_off_c, 0, 78, 58
1, 749255, Note_off_c, 0, 74, 66
1, 749261, Note_off_c, 0, 45, 67
1, 749264, Note_off_c, 0, 76, 50
1, 749321, Note_on_c, 0, 85, 103
1, 749325, Note_on_c, 0, 87, 98
1, 749327, Note_on_c, 0, 37, 74
1, 749338, Note_on_c, 0, 46, 60
1, 749339, Note_off_c, 0, 46, 127
1, 749339, Note_on_c, 0, 88, 63
1, 749342, Note_on_c, 0, 89, 62
1, 749346, Note_on_c, 0, 47, 64
1, 749351, Note_on_c, 0, 48, 55
1, 749352, Note_off_c, 0, 85, 67
1, 749359, Note_off_c, 0, 87, 0
1, 749370, Note_off_c, 0, 37, 61
1, 749370, Note_off_c, 0, 47, 60
1, 749373, Note_off_c, 0, 88, 0
1, 749378, Note_on_c, 0, 86, 29
1, 749379, Note_off_c, 0, 86, 127
1, 749379, Poly_aftertouch_c, 0, 87, 0
1, 749380, Note_off_c, 0, 48, 39
1, 749386, Note_off_c, 0, 89, 0
1, 749397, Poly_aftertouch_c, 0, 88, 0
1, 749401, Note_on_c, 0, 47, 81
1, 749401, Note_on_c, 0, 86, 13
1, 749407, Note_on_c, 0, 37, 61
1, 749408, Poly_aftertouch_c, 0, 89, 0
1, 749412, Note_on_c, 0, 91, 41
1, 749414, Note_on_c, 0, 36, 50
1, 749429, Note_off_c, 0, 86, 56
1, 749432, Note_off_c, 0, 47, 66
1, 749433, Note_on_c, 0, 35, 27
1, 749440, Note_off_c, 0, 91, 39
1, 749446, Note_off_c, 0, 36, 61
1, 749450, Note_off_c, 0, 37, 63
1, 749475, Note_off_c, 0, 35, 43
1, 749495, Control_c, 0, 64, 68
1, 749501, Note_on_c, 0, 42, 95
1, 749505, Note_on_c, 0, 30, 86
1, 749506, Note_on_c, 0, 106, 126
1, 749507, Note_on_c, 0, 108, 126
1, 749510, Control_c, 0, 64, 127
1, 749512, Note_on_c, 0, 107, 109
1, 749515, Note_on_c, 0, 32, 80
1, 749517, Note_off_c, 0, 107, 0
1, 749523, Poly_aftertouch_c, 0, 107, 0
1, 749534, Note_off_c, 0, 42, 62
1, 749540, Note_off_c, 0, 30, 66
1, 749542, Note_off_c, 0, 32, 58
1, 749549, Note_off_c, 0, 106, 67
1, 749576, Note_on_c, 0, 105, 71
1, 749578, Note_on_c, 0, 107, 37
1, 749592, Note_off_c, 0, 107, 42
1, 749599, Note_off_c, 0, 108, 65
1, 749606, Note_on_c, 0, 32, 83
1, 749607, Note_on_c, 0, 44, 93
1, 749627, Note_off_c, 0, 105, 66
1, 749630, Note_off_c, 0, 44, 69
1, 749634, Note_off_c, 0, 32, 65
1, 749637, Note_on_c, 0, 100, 59
1, 749647, Note_on_c, 0, 34, 33
1, 749657, Note_off_c, 0, 100, 63
1, 749692, Poly_aftertouch_c, 0, 45, 127
1, 749693, Note_off_c, 0, 34, 52
1, 749714, Note_on_c, 0, 94, 105
1, 749715, Note_on_c, 0, 98, 113
1, 749719, Note_on_c, 0, 48, 96
1, 749720, Note_on_c, 0, 96, 101
1, 749720, Poly_aftertouch_c, 0, 95, 0
1, 749723, Note_on_c, 0, 95, 89
1, 749731, Poly_aftertouch_c, 0, 45, 0
1, 749732, Note_on_c, 0, 36, 68
1, 749739, Note_off_c, 0, 48, 71
1, 749741, Note_off_c, 0, 95, 74
1, 749752, Note_on_c, 0, 47, 33
1, 749753, Note_off_c, 0, 47, 127
1, 749753, Note_off_c, 0, 94, 68
1, 749758, Note_off_c, 0, 36, 59
1, 749771, Note_on_c, 0, 37, 5
1, 749788, Note_on_c, 0, 93, 84
1, 749797, Note_on_c, 0, 92, 73
1, 749801, Note_off_c, 0, 96, 59
1, 749803, Note_on_c, 0, 91, 89
1, 749803, Note_off_c, 0, 98, 65
1, 749806, Poly_aftertouch_c, 0, 97, 0
1, 749807, Poly_aftertouch_c, 0, 39, 0
1, 749813, Note_on_c, 0, 88, 101
1, 749818, Note_on_c, 0, 39, 53
1, 749821, Note_off_c, 0, 92, 55
1, 749821, Note_on_c, 0, 51, 100
1, 749822, Note_off_c, 0, 91, 70
1, 749829, Note_off_c, 0, 37, 49
1, 749830, Note_off_c, 0, 93, 66
1, 749850, Note_off_c, 0, 51, 65
1, 749851, Note_off_c, 0, 88, 67
1, 749860, Note_off_c, 0, 39, 61
1, 749928, Note_on_c, 0, 54, 106
1, 749929, Note_on_c, 0, 88, 114
1, 749930, Note_on_c, 0, 42, 89
1, 749931, Note_on_c, 0, 83, 126
1, 749931, Note_on_c, 0, 86, 115
1, 749931, Poly_aftertouch_c, 0, 84, 0
1, 749937, Note_on_c, 0, 84, 96
1, 749938, Note_on_c, 0, 44, 83
1, 749940, Note_on_c, 0, 85, 78
1, 749941, Note_off_c, 0, 85, 127
1, 749949, Note_off_c, 0, 84, 0
1, 749958, Note_off_c, 0, 42, 68
1, 749964, Note_off_c, 0, 44, 65
1, 749965, Note_off_c, 0, 54, 64
1, 749971, Note_on_c, 0, 84, 45
1, 749985, Note_off_c, 0, 88, 71
1, 750001, Note_off_c, 0, 84, 66
1, 750017, Note_off_c, 0, 86, 69
1, 750027, Note_on_c, 0, 81, 68
1, 750039, Note_on_c, 0, 58, 108
1, 750041, Note_on_c, 0, 46, 97
1, 750044, Note_on_c, 0, 77, 85
1, 750055, Note_on_c, 0, 79, 73
1, 750057, Note_on_c, 0, 49, 71
1, 750069, Note_off_c, 0, 83, 63
1, 750071, Note_off_c, 0, 79, 66
1, 750078, Note_off_c, 0, 58, 65
1, 750081, Note_off_c, 0, 77, 67
1, 750084, Note_off_c, 0, 46, 64
1, 750084, Note_off_c, 0, 49, 68
1, 750084, Note_off_c, 0, 81, 63
1, 750156, Control_c, 0, 64, 76
1, 750170, Control_c, 0, 64, 0
1, 750195, Note_on_c, 0, 63, 115
1, 750196, Note_on_c, 0, 62, 116
1, 750196, Note_on_c, 0, 66, 104
1, 750198, Note_on_c, 0, 68, 102
1, 750200, Control_c, 0, 64, 33
1, 750201, Note_on_c, 0, 50, 92
1, 750201, Note_on_c, 0, 70, 76
1, 750206, Note_on_c, 0, 52, 96
1, 750206, Note_on_c, 0, 64, 82
1, 750206, Note_on_c, 0, 69, 87
1, 750211, Note_on_c, 0, 58, 84
1, 750212, Note_off_c, 0, 68, 72
1, 750213, Note_on_c, 0, 65, 68
1, 750215, Control_c, 0, 64, 57
1, 750216, Note_off_c, 0, 70, 67
1, 750225, Note_on_c, 0, 54, 58
1, 750226, Note_off_c, 0, 54, 127
1, 750226, Note_off_c, 0, 50, 70
1, 750229, Note_off_c, 0, 63, 68
1, 750230, Note_off_c, 0, 69, 63
1, 750230, Note_off_c, 0, 64, 66
1, 750230, Control_c, 0, 64, 71
1, 750233, Note_off_c, 0, 52, 68
1, 750233, Note_off_c, 0, 58, 71
1, 750239, Note_off_c, 0, 62, 69
1, 750239, Note_off_c, 0, 65, 67
1, 750245, Control_c, 0, 64, 95
1, 750260, Note_off_c, 0, 66, 61
1, 750260, Control_c, 0, 64, 127
1, 750280, Note_on_c, 0, 68, 34
1, 750316, Note_off_c, 0, 68, 47
1, 750430, Note_on_c, 0, 90, 109
1, 750432, Note_on_c, 0, 102, 103
1, 750447, Note_on_c, 0, 81, 107
1, 750447, Note_on_c, 0, 99, 81
1, 750461, Note_on_c, 0, 69, 77
1, 750462, Note_off_c, 0, 99, 69
1, 750468, Control_c, 0, 64, 92
1, 750471, Note_off_c, 0, 90, 67
1, 750480, Note_off_c, 0, 81, 69
1, 750482, Note_off_c, 0, 69, 71
1, 750483, Note_off_c, 0, 102, 65
1, 750483, Control_c, 0, 64, 57
1, 750484, Note_on_c, 0, 70, 44
1, 750486, Note_off_c, 0, 70, 53
1, 750492, Note_on_c, 0, 71, 35
1, 750497, Control_c, 0, 64, 0
1, 750519, Note_off_c, 0, 71, 35
1, 750554, Note_on_c, 0, 82, 103
1, 750558, Note_on_c, 0, 99, 80
1, 750559, Note_on_c, 0, 70, 88
1, 750568, Note_on_c, 0, 100, 77
1, 750571, Note_on_c, 0, 73, 78
1, 750572, Note_on_c, 0, 90, 69
1, 750580, Note_on_c, 0, 101, 62
1, 750586, Note_off_c, 0, 90, 67
1, 750590, Note_off_c, 0, 70, 62
1, 750590, Note_off_c, 0, 82, 65
1, 750596, Note_off_c, 0, 73, 69
1, 750600, Note_off_c, 0, 101, 63
1, 750635, Note_off_c, 0, 100, 49
1, 750645, Note_on_c, 0, 94, 82
1, 750650, Note_off_c, 0, 99, 60
1, 750676, Note_on_c, 0, 95, 71
1, 750693, Note_off_c, 0, 95, 66
1, 750716, Note_off_c, 0, 94, 60
1, 750731, Note_on_c, 0, 83, 86
1, 750739, Note_on_c, 0, 98, 98
1, 750749, Note_on_c, 0, 86, 76
1, 750749, Note_on_c, 0, 88, 71
1, 750750, Note_off_c, 0, 83, 72
1, 750752, Note_on_c, 0, 71, 54
1, 750773, Note_off_c, 0, 71, 58
1, 750773, Note_off_c, 0, 86, 70
1, 750773, Note_off_c, 0, 88, 69
1, 750794, Note_off_c, 0, 98, 67
1, 750816, Control_c, 0, 64, 63
1, 750831, Control_c, 0, 64, 65
1, 750836, Note_on_c, 0, 78, 94
1, 750844, Note_on_c, 0, 93, 94
1, 750844, Note_on_c, 0, 66, 84
1, 750845, Control_c, 0, 64, 39
1, 750857, Note_off_c, 0, 78, 69
1, 750860, Control_c, 0, 64, 0
1, 750865, Note_off_c, 0, 66, 70
1, 750868, Note_on_c, 0, 68, 40
1, 750869, Note_off_c, 0, 68, 127
1, 750920, Note_on_c, 0, 90, 90
1, 750926, Note_off_c, 0, 93, 66
1, 751004, Note_on_c, 0, 87, 91
1, 751011, Note_off_c, 0, 90, 61
1, 751017, Note_on_c, 0, 69, 98
1, 751025, Note_off_c, 0, 87, 66
1, 751042, Note_on_c, 0, 57, 51
1, 751043, Note_off_c, 0, 69, 69
1, 751067, Note_off_c, 0, 57, 36
1, 751097, Control_c, 0, 64, 63
1, 751105, Note_on_c, 0, 90, 93
1, 751108, Note_on_c, 0, 78, 93
1, 751111, Note_on_c, 0, 58, 87
1, 751111, Note_on_c, 0, 70, 89
1, 751112, Control_c, 0, 64, 28
1, 751127, Control_c, 0, 64, 0
1, 751130, Note_off_c, 0, 70, 70
1, 751136, Note_off_c, 0, 78, 64
1, 751143, Note_off_c, 0, 58, 57
1, 751163, Note_off_c, 0, 90, 63
1, 751193, Note_on_c, 0, 87, 76
1, 751275, Note_on_c, 0, 71, 84
1, 751280, Note_on_c, 0, 82, 89
1, 751284, Note_off_c, 0, 87, 65
1, 751285, Note_on_c, 0, 59, 73
1, 751294, Note_off_c, 0, 71, 71
1, 751312, Note_off_c, 0, 59, 68
1, 751326, Note_off_c, 0, 82, 64
1, 751360, Note_on_c, 0, 74, 87
1, 751364, Control_c, 0, 64, 19
1, 751366, Note_on_c, 0, 86, 93
1, 751375, Note_on_c, 0, 66, 96
1, 751379, Control_c, 0, 64, 61
1, 751381, Note_on_c, 0, 54, 82
1, 751393, Control_c, 0, 64, 59
1, 751394, Note_off_c, 0, 66, 71
1, 751400, Note_off_c, 0, 54, 69
1, 751401, Note_on_c, 0, 56, 48
1, 751402, Note_off_c, 0, 56, 127
1, 751406, Note_off_c, 0, 74, 64
1, 751416, Control_c, 0, 64, 0
1, 751455, Note_off_c, 0, 86, 47
1, 751476, Note_on_c, 0, 81, 77
1, 751555, Note_on_c, 0, 78, 86
1, 751559, Note_on_c, 0, 57, 92
1, 751561, Note_off_c, 0, 81, 67
1, 751581, Note_on_c, 0, 45, 55
1, 751586, Note_off_c, 0, 57, 69
1, 751608, Note_off_c, 0, 45, 36
1, 751626, Note_off_c, 0, 78, 65
1, 751631, Note_on_c, 0, 75, 102
1, 751638, Control_c, 0, 64, 30
1, 751651, Note_on_c, 0, 58, 95
1, 751653, Note_off_c, 0, 75, 69
1, 751653, Control_c, 0, 64, 68
1, 751654, Note_on_c, 0, 46, 87
1, 751667, Control_c, 0, 64, 61
1, 751680, Note_off_c, 0, 58, 60
1, 751682, Control_c, 0, 64, 0
1, 751703, Note_off_c, 0, 46, 47
1, 751737, Note_on_c, 0, 78, 85
1, 751759, Note_on_c, 0, 66, 63
1, 751790, Note_off_c, 0, 66, 64
1, 751799, Note_off_c, 0, 78, 63
1, 751824, Note_on_c, 0, 59, 71
1, 751828, Note_on_c, 0, 75, 73
1, 751843, Note_on_c, 0, 47, 49
1, 751852, Note_off_c, 0, 59, 68
1, 751872, Note_off_c, 0, 47, 35
1, 751905, Note_off_c, 0, 75, 61
1, 751911, Note_on_c, 0, 70, 86
1, 751914, Note_on_c, 0, 54, 97
1, 751920, Control_c, 0, 64, 57
1, 751923, Note_on_c, 0, 42, 83
1, 751933, Note_on_c, 0, 44, 62
1, 751934, Note_off_c, 0, 44, 127
1, 751934, Control_c, 0, 64, 71
1, 751935, Note_off_c, 0, 54, 73
1, 751945, Note_off_c, 0, 42, 66
1, 751949, Control_c, 0, 64, 69
1, 751964, Control_c, 0, 64, 52
1, 751979, Control_c, 0, 64, 0
1, 751996, Note_off_c, 0, 70, 62
1, 752000, Note_on_c, 0, 74, 78
1, 752012, Note_on_c, 0, 62, 53
1, 752048, Note_off_c, 0, 62, 63
1, 752090, Note_off_c, 0, 74, 53
1, 752098, Note_on_c, 0, 45, 81
1, 752101, Note_on_c, 0, 47, 87
1, 752103, Note_on_c, 0, 69, 74
1, 752117, Note_on_c, 0, 33, 55
1, 752119, Note_on_c, 0, 35, 47
1, 752122, Note_off_c, 0, 47, 67
1, 752127, Note_off_c, 0, 45, 68
1, 752149, Note_off_c, 0, 33, 55
1, 752161, Note_off_c, 0, 35, 52
1, 752199, Note_on_c, 0, 66, 90
1, 752209, Note_on_c, 0, 46, 106
1, 752209, Control_c, 0, 64, 30
1, 752215, Note_on_c, 0, 34, 90
1, 752219, Note_off_c, 0, 69, 62
1, 752224, Control_c, 0, 64, 54
1, 752239, Control_c, 0, 64, 50
1, 752254, Control_c, 0, 64, 48
1, 752254, Note_off_c, 0, 46, 63
1, 752257, Note_on_c, 0, 37, 23
1, 752269, Control_c, 0, 64, 44
1, 752276, Note_off_c, 0, 66, 60
1, 752283, Control_c, 0, 64, 37
1, 752286, Note_on_c, 0, 63, 87
1, 752288, Note_off_c, 0, 34, 58
1, 752298, Note_off_c, 0, 37, 54
1, 752298, Control_c, 0, 64, 34
1, 752325, Note_off_c, 0, 63, 62
1, 752343, Control_c, 0, 64, 34
1, 752372, Control_c, 0, 64, 32
1, 752387, Control_c, 0, 64, 0
1, 752410, Note_on_c, 0, 66, 89
1, 752412, Note_on_c, 0, 47, 96
1, 752415, Note_on_c, 0, 54, 96
1, 752417, Note_on_c, 0, 35, 84
1, 752443, Note_off_c, 0, 47, 64
1, 752447, Note_off_c, 0, 35, 62
1, 752459, Note_off_c, 0, 54, 65
1, 752468, Note_off_c, 0, 66, 65
1, 752536, Note_on_c, 0, 63, 98
1, 752540, Note_on_c, 0, 42, 114
1, 752547, Note_on_c, 0, 32, 84
1, 752553, Note_on_c, 0, 31, 82
1, 752568, Note_off_c, 0, 42, 65
1, 752574, Note_off_c, 0, 32, 64
1, 752583, Note_off_c, 0, 31, 67
1, 752660, Note_on_c, 0, 58, 76
1, 752673, Note_off_c, 0, 63, 58
1, 752701, Note_on_c, 0, 57, 51
1, 752748, Note_off_c, 0, 57, 59
1, 752755, Note_off_c, 0, 58, 54
1, 752786, Note_on_c, 0, 62, 74
1, 752811, Note_on_c, 0, 33, 87
1, 752820, Note_on_c, 0, 21, 66
1, 752827, Note_on_c, 0, 52, 24
1, 752831, Note_on_c, 0, 23, 52
1, 752839, Note_off_c, 0, 33, 67
1, 752859, Note_off_c, 0, 21, 52
1, 752865, Note_off_c, 0, 52, 42
1, 752870, Note_off_c, 0, 23, 49
1, 752912, Note_off_c, 0, 62, 61
1, 752927, Note_on_c, 0, 57, 80
1, 752933, Note_on_c, 0, 35, 89
1, 752936, Note_on_c, 0, 23, 83
1, 752960, Note_off_c, 0, 35, 68
1, 752969, Note_off_c, 0, 23, 62
1, 753014, Note_on_c, 0, 54, 100
1, 753029, Note_on_c, 0, 38, 91
1, 753034, Note_on_c, 0, 26, 76
1, 753047, Note_off_c, 0, 57, 62
1, 753055, Note_on_c, 0, 28, 53
1, 753061, Note_off_c, 0, 38, 63
1, 753064, Note_on_c, 0, 27, 39
1, 753067, Note_off_c, 0, 26, 64
1, 753086, Note_off_c, 0, 54, 63
1, 753090, Note_off_c, 0, 28, 54
1, 753106, Note_off_c, 0, 27, 50
1, 753110, Note_on_c, 0, 51, 122
1, 753121, Control_c, 0, 64, 47
1, 753136, Control_c, 0, 64, 90
1, 753136, Note_on_c, 0, 39, 96
1, 753149, Note_on_c, 0, 27, 65
1, 753151, Control_c, 0, 64, 127
1, 753154, Note_off_c, 0, 51, 64
1, 753177, Note_off_c, 0, 27, 62
1, 753178, Note_off_c, 0, 39, 55
1, 753184, Note_on_c, 0, 30, 36
1, 753243, Note_on_c, 0, 40, 65
1, 753329, Note_off_c, 0, 40, 63
1, 753330, Note_on_c, 0, 35, 68
1, 753350, Note_off_c, 0, 30, 21
1, 753387, Control_c, 0, 64, 89
1, 753389, Note_off_c, 0, 35, 60
1, 753402, Control_c, 0, 64, 50
1, 753412, Note_on_c, 0, 27, 75
1, 753417, Control_c, 0, 64, 0
1, 753423, Note_on_c, 0, 39, 76
1, 753443, Note_off_c, 0, 27, 64
1, 753446, Control_c, 0, 64, 24
1, 753448, Note_off_c, 0, 39, 66
1, 753461, Control_c, 0, 64, 66
1, 753476, Control_c, 0, 64, 127
1, 753547, Note_on_c, 0, 52, 88
1, 753548, Note_on_c, 0, 50, 82
1, 753550, Note_on_c, 0, 45, 64
1, 753571, Note_off_c, 0, 52, 70
1, 753574, Note_off_c, 0, 45, 61
1, 753574, Note_off_c, 0, 50, 66
1, 753649, Note_on_c, 0, 46, 79
1, 753652, Note_on_c, 0, 49, 84
1, 753685, Note_on_c, 0, 45, 49
1, 753685, Note_off_c, 0, 49, 70
1, 753688, Note_off_c, 0, 46, 66
1, 753722, Note_off_c, 0, 45, 49
1, 753794, Note_on_c, 0, 40, 68
1, 753849, Note_off_c, 0, 40, 57
1, 753878, Note_on_c, 0, 36, 55
1, 753917, Note_off_c, 0, 36, 63
1, 753951, Poly_aftertouch_c, 0, 35, 127
1, 753959, Note_on_c, 0, 39, 82
1, 753965, Note_on_c, 0, 27, 73
1, 753983, Note_off_c, 0, 39, 71
1, 753992, Poly_aftertouch_c, 0, 35, 0
1, 754003, Note_off_c, 0, 27, 57
1, 754071, Note_on_c, 0, 50, 107
1, 754077, Note_on_c, 0, 45, 84
1, 754099, Note_off_c, 0, 45, 63
1, 754104, Note_off_c, 0, 50, 68
1, 754175, Note_on_c, 0, 51, 118
1, 754187, Note_on_c, 0, 46, 71
1, 754194, Note_off_c, 0, 51, 69
1, 754209, Note_on_c, 0, 45, 44
1, 754210, Note_on_c, 0, 49, 37
1, 754221, Note_off_c, 0, 46, 65
1, 754224, Note_on_c, 0, 44, 21
1, 754227, Note_off_c, 0, 45, 65
1, 754240, Note_off_c, 0, 49, 55
1, 754264, Note_off_c, 0, 44, 42
1, 754352, Note_on_c, 0, 40, 54
1, 754385, Note_off_c, 0, 40, 64
1, 754391, Note_on_c, 0, 35, 66
1, 754442, Note_off_c, 0, 35, 63
1, 754476, Note_on_c, 0, 27, 75
1, 754485, Note_on_c, 0, 39, 75
1, 754501, Note_off_c, 0, 27, 65
1, 754513, Note_off_c, 0, 39, 67
1, 754610, Note_on_c, 0, 50, 114
1, 754618, Note_on_c, 0, 45, 84
1, 754638, Note_off_c, 0, 45, 66
1, 754638, Note_off_c, 0, 50, 70
1, 754703, Note_on_c, 0, 51, 119
1, 754719, Note_on_c, 0, 46, 79
1, 754730, Note_off_c, 0, 51, 70
1, 754741, Note_on_c, 0, 45, 29
1, 754743, Note_off_c, 0, 46, 68
1, 754759, Note_off_c, 0, 45, 68
1, 754867, Note_on_c, 0, 35, 73
1, 754913, Note_off_c, 0, 35, 62
1, 754955, Note_on_c, 0, 39, 90
1, 754956, Note_on_c, 0, 27, 79
1, 754983, Note_off_c, 0, 39, 66
1, 754984, Note_off_c, 0, 27, 62
1, 755083, Note_on_c, 0, 50, 113
1, 755091, Note_on_c, 0, 47, 83
1, 755113, Note_off_c, 0, 47, 67
1, 755122, Note_off_c, 0, 50, 66
1, 755218, Note_on_c, 0, 51, 116
1, 755235, Note_on_c, 0, 46, 76
1, 755243, Note_off_c, 0, 51, 72
1, 755255, Note_on_c, 0, 44, 44
1, 755265, Note_off_c, 0, 46, 65
1, 755285, Note_off_c, 0, 44, 57
1, 755428, Note_on_c, 0, 35, 35
1, 755441, Control_c, 0, 64, 88
1, 755456, Control_c, 0, 64, 54
1, 755471, Control_c, 0, 64, 0
1, 755502, Note_on_c, 0, 64, 97
1, 755505, Note_on_c, 0, 52, 98
1, 755512, Note_on_c, 0, 27, 62
1, 755525, Note_on_c, 0, 39, 57
1, 755560, Control_c, 0, 64, 30
1, 755562, Note_off_c, 0, 27, 63
1, 755571, Note_off_c, 0, 35, 52
1, 755575, Control_c, 0, 64, 73
1, 755577, Note_off_c, 0, 39, 64
1, 755589, Control_c, 0, 64, 127
1, 755646, Note_off_c, 0, 52, 62
1, 755684, Note_off_c, 0, 64, 57
1, 755720, Note_on_c, 0, 49, 72
1, 755754, Note_off_c, 0, 49, 64
1, 755774, Note_on_c, 0, 50, 44
1, 755804, Note_off_c, 0, 50, 53
1, 755833, Note_on_c, 0, 51, 82
1, 755833, Note_on_c, 0, 67, 101
1, 755834, Note_on_c, 0, 55, 95
1, 755843, Note_on_c, 0, 46, 69
1, 755861, Note_off_c, 0, 51, 67
1, 755881, Note_off_c, 0, 46, 65
1, 755941, Note_off_c, 0, 55, 61
1, 755980, Note_off_c, 0, 67, 61
1, 756016, Note_on_c, 0, 35, 63
1, 756081, Note_on_c, 0, 59, 108
1, 756082, Note_on_c, 0, 71, 104
1, 756091, Note_on_c, 0, 39, 65
1, 756096, Note_off_c, 0, 35, 60
1, 756105, Note_on_c, 0, 27, 31
1, 756123, Note_off_c, 0, 39, 63
1, 756135, Note_off_c, 0, 27, 56
1, 756156, Note_off_c, 0, 59, 57
1, 756185, Note_off_c, 0, 71, 62
1, 756199, Poly_aftertouch_c, 0, 70, 0
1, 756221, Note_on_c, 0, 50, 83
1, 756237, Note_on_c, 0, 45, 40
1, 756266, Note_off_c, 0, 50, 64
1, 756272, Note_off_c, 0, 45, 51
1, 756298, Note_on_c, 0, 51, 100
1, 756305, Note_on_c, 0, 63, 109
1, 756305, Note_on_c, 0, 75, 124
1, 756315, Note_on_c, 0, 46, 70
1, 756333, Note_off_c, 0, 51, 63
1, 756348, Note_off_c, 0, 46, 65
1, 756396, Note_off_c, 0, 63, 60
1, 756430, Note_off_c, 0, 75, 56
1, 756458, Note_on_c, 0, 35, 71
1, 756486, Note_off_c, 0, 35, 65
1, 756519, Note_on_c, 0, 66, 118
1, 756524, Note_on_c, 0, 78, 116
1, 756526, Note_on_c, 0, 39, 90
1, 756531, Note_on_c, 0, 27, 78
1, 756553, Note_on_c, 0, 77, 47
1, 756554, Note_off_c, 0, 77, 127
1, 756554, Note_off_c, 0, 39, 65
1, 756558, Note_off_c, 0, 27, 65
1, 756585, Poly_aftertouch_c, 0, 77, 0
1, 756622, Poly_aftertouch_c, 0, 77, 127
1, 756643, Note_off_c, 0, 66, 58
1, 756649, Poly_aftertouch_c, 0, 77, 0
1, 756671, Note_off_c, 0, 78, 62
1, 756687, Note_on_c, 0, 50, 115
1, 756695, Note_on_c, 0, 45, 85
1, 756704, Note_on_c, 0, 74, 41
1, 756719, Note_on_c, 0, 48, 37
1, 756720, Note_off_c, 0, 48, 127
1, 756722, Note_off_c, 0, 45, 64
1, 756730, Note_off_c, 0, 74, 58
1, 756754, Note_off_c, 0, 50, 55
1, 756791, Control_c, 0, 64, 77
1, 756805, Control_c, 0, 64, 51
1, 756813, Note_on_c, 0, 67, 106
1, 756814, Note_on_c, 0, 79, 110
1, 756815, Note_on_c, 0, 51, 110
1, 756820, Control_c, 0, 64, 0
1, 756825, Note_on_c, 0, 69, 71
1, 756826, Note_off_c, 0, 69, 127
1, 756832, Note_on_c, 0, 75, 74
1, 756835, Control_c, 0, 64, 34
1, 756836, Note_on_c, 0, 78, 70
1, 756837, Note_off_c, 0, 78, 127
1, 756847, Note_off_c, 0, 75, 67
1, 756850, Control_c, 0, 64, 61
1, 756858, Note_on_c, 0, 44, 38
1, 756864, Control_c, 0, 64, 76
1, 756870, Note_on_c, 0, 46, 63
1, 756879, Control_c, 0, 64, 127
1, 756901, Note_off_c, 0, 51, 60
1, 756927, Note_off_c, 0, 46, 62
1, 756945, Note_off_c, 0, 44, 55
1, 756972, Note_off_c, 0, 79, 62
1, 756975, Note_off_c, 0, 67, 58
1, 757063, Note_on_c, 0, 34, 64
1, 757107, Note_on_c, 0, 76, 109
1, 757108, Note_on_c, 0, 64, 100
1, 757133, Note_on_c, 0, 27, 60
1, 757141, Note_off_c, 0, 34, 62
1, 757142, Note_on_c, 0, 39, 60
1, 757143, Note_off_c, 0, 64, 67
1, 757146, Note_on_c, 0, 75, 43
1, 757152, Note_off_c, 0, 76, 66
1, 757172, Note_off_c, 0, 39, 60
1, 757172, Note_off_c, 0, 75, 40
1, 757179, Note_off_c, 0, 27, 49
1, 757263, Note_on_c, 0, 50, 83
1, 757317, Note_off_c, 0, 50, 57
1, 757334, Note_on_c, 0, 46, 83
1, 757335, Note_on_c, 0, 71, 105
1, 757336, Note_on_c, 0, 59, 108
1, 757336, Note_on_c, 0, 51, 90
1, 757358, Note_off_c, 0, 51, 69
1, 757369, Note_off_c, 0, 59, 67
1, 757370, Note_on_c, 0, 70, 51
1, 757385, Note_off_c, 0, 71, 61
1, 757390, Note_off_c, 0, 46, 63
1, 757394, Note_off_c, 0, 70, 60
1, 757489, Note_on_c, 0, 35, 69
1, 757532, Note_off_c, 0, 35, 61
1, 757557, Note_on_c, 0, 39, 91
1, 757559, Note_on_c, 0, 75, 109
1, 757561, Note_on_c, 0, 63, 109
1, 757566, Note_on_c, 0, 27, 64
1, 757582, Note_off_c, 0, 39, 67
1, 757594, Note_off_c, 0, 63, 60
1, 757595, Note_off_c, 0, 27, 64
1, 757596, Note_on_c, 0, 76, 43
1, 757597, Note_off_c, 0, 76, 127
1, 757597, Note_off_c, 0, 75, 66
1, 757687, Note_on_c, 0, 50, 82
1, 757733, Note_off_c, 0, 50, 57
1, 757756, Note_on_c, 0, 51, 93
1, 757770, Note_on_c, 0, 58, 107
1, 757771, Note_on_c, 0, 47, 62
1, 757772, Note_on_c, 0, 70, 106
1, 757779, Note_on_c, 0, 52, 56
1, 757790, Note_off_c, 0, 51, 61
1, 757801, Note_off_c, 0, 47, 64
1, 757805, Note_off_c, 0, 52, 59
1, 757816, Note_off_c, 0, 58, 55
1, 757821, Note_off_c, 0, 70, 66
1, 757854, Poly_aftertouch_c, 0, 68, 127
1, 757880, Poly_aftertouch_c, 0, 68, 0
1, 757888, Note_on_c, 0, 38, 59
1, 757917, Note_off_c, 0, 38, 55
1, 757923, Note_on_c, 0, 62, 21
1, 757952, Note_off_c, 0, 62, 0
1, 757956, Control_c, 0, 64, 99
1, 757971, Control_c, 0, 64, 65
1, 757974, Note_on_c, 0, 67, 97
1, 757975, Note_on_c, 0, 55, 94
1, 757985, Control_c, 0, 64, 0
1, 757989, Poly_aftertouch_c, 0, 62, 127
1, 757990, Note_on_c, 0, 62, 10
1, 757994, Note_on_c, 0, 39, 82
1, 758007, Note_on_c, 0, 27, 60
1, 758022, Note_off_c, 0, 39, 63
1, 758041, Note_off_c, 0, 27, 55
1, 758044, Control_c, 0, 64, 55
1, 758051, Note_off_c, 0, 62, 37
1, 758059, Control_c, 0, 64, 68
1, 758074, Control_c, 0, 64, 91
1, 758089, Control_c, 0, 64, 127
1, 758093, Note_on_c, 0, 66, 32
1, 758099, Note_on_c, 0, 39, 75
1, 758111, Note_on_c, 0, 27, 71
1, 758114, Note_off_c, 0, 67, 62
1, 758130, Note_off_c, 0, 55, 61
1, 758132, Note_off_c, 0, 39, 63
1, 758144, Note_off_c, 0, 66, 59
1, 758156, Note_off_c, 0, 27, 60
1, 758221, Note_on_c, 0, 42, 87
1, 758226, Note_on_c, 0, 30, 70
1, 758247, Note_off_c, 0, 42, 66
1, 758258, Note_off_c, 0, 30, 63
1, 758303, Control_c, 0, 64, 99
1, 758318, Control_c, 0, 64, 70
1, 758327, Note_on_c, 0, 63, 99
1, 758328, Note_on_c, 0, 51, 100
1, 758333, Control_c, 0, 64, 59
1, 758335, Note_on_c, 0, 34, 68
1, 758335, Note_on_c, 0, 46, 80
1, 758348, Control_c, 0, 64, 62
1, 758360, Note_off_c, 0, 46, 67
1, 758362, Note_off_c, 0, 51, 61
1, 758363, Control_c, 0, 64, 70
1, 758366, Note_off_c, 0, 34, 64
1, 758373, Note_off_c, 0, 63, 61
1, 758378, Control_c, 0, 64, 86
1, 758392, Control_c, 0, 64, 127
1, 758458, Note_on_c, 0, 66, 95
1, 758461, Note_on_c, 0, 54, 86
1, 758468, Note_on_c, 0, 50, 65
1, 758480, Note_off_c, 0, 66, 67
1, 758484, Note_on_c, 0, 48, 40
1, 758484, Note_off_c, 0, 54, 70
1, 758493, Note_off_c, 0, 50, 64
1, 758502, Note_on_c, 0, 38, 9
1, 758511, Note_off_c, 0, 48, 55
1, 758555, Note_off_c, 0, 38, 48
1, 758574, Note_on_c, 0, 51, 88
1, 758574, Note_on_c, 0, 58, 101
1, 758576, Note_on_c, 0, 70, 99
1, 758586, Note_on_c, 0, 39, 53
1, 758596, Note_off_c, 0, 51, 69
1, 758611, Note_off_c, 0, 70, 67
1, 758616, Note_off_c, 0, 58, 65
1, 758624, Note_off_c, 0, 39, 50
1, 758686, Note_on_c, 0, 62, 93
1, 758686, Note_on_c, 0, 74, 103
1, 758688, Note_on_c, 0, 54, 81
1, 758692, Note_on_c, 0, 42, 53
1, 758707, Note_on_c, 0, 73, 60
1, 758708, Note_off_c, 0, 73, 127
1, 758710, Note_off_c, 0, 54, 72
1, 758712, Note_off_c, 0, 62, 64
1, 758712, Note_off_c, 0, 74, 63
1, 758717, Note_off_c, 0, 42, 59
1, 758776, Note_on_c, 0, 56, 88
1, 758776, Note_on_c, 0, 46, 78
1, 758785, Note_on_c, 0, 65, 105
1, 758785, Note_on_c, 0, 77, 100
1, 758798, Note_off_c, 0, 56, 71
1, 758813, Note_off_c, 0, 46, 63
1, 758815, Note_on_c, 0, 75, 43
1, 758815, Note_off_c, 0, 65, 68
1, 758819, Note_off_c, 0, 77, 63
1, 758839, Note_off_c, 0, 75, 58
1, 758880, Note_on_c, 0, 66, 103
1, 758880, Note_on_c, 0, 78, 98
1, 758881, Note_on_c, 0, 62, 81
1, 758881, Poly_aftertouch_c, 0, 49, 0
1, 758907, Note_on_c, 0, 64, 54
1, 758908, Note_off_c, 0, 64, 127
1, 758908, Note_off_c, 0, 62, 69
1, 758915, Note_on_c, 0, 56, 11
1, 758925, Note_off_c, 0, 66, 65
1, 758925, Note_off_c, 0, 78, 61
1, 758946, Note_off_c, 0, 56, 53
1, 758982, Note_on_c, 0, 70, 101
1, 758984, Note_on_c, 0, 82, 110
1, 758996, Note_on_c, 0, 63, 85
1, 759018, Note_off_c, 0, 63, 69
1, 759020, Note_off_c, 0, 70, 69
1, 759021, Note_off_c, 0, 82, 64
1, 759077, Note_on_c, 0, 46, 82
1, 759081, Note_on_c, 0, 58, 75
1, 759083, Note_on_c, 0, 74, 101
1, 759088, Note_on_c, 0, 86, 98
1, 759101, Note_on_c, 0, 85, 76
1, 759101, Note_off_c, 0, 46, 70
1, 759105, Note_off_c, 0, 58, 69
1, 759113, Note_on_c, 0, 84, 52
1, 759114, Note_off_c, 0, 84, 127
1, 759118, Note_off_c, 0, 85, 68
1, 759119, Note_off_c, 0, 74, 70
1, 759124, Note_off_c, 0, 86, 64
1, 759173, Note_on_c, 0, 64, 83
1, 759183, Note_on_c, 0, 85, 93
1, 759187, Note_on_c, 0, 75, 83
1, 759188, Note_on_c, 0, 52, 55
1, 759194, Note_on_c, 0, 74, 88
1, 759195, Note_on_c, 0, 87, 73
1, 759195, Note_off_c, 0, 64, 71
1, 759200, Note_off_c, 0, 85, 71
1, 759212, Note_off_c, 0, 52, 59
1, 759214, Note_off_c, 0, 75, 64
1, 759216, Note_off_c, 0, 74, 69
1, 759217, Note_off_c, 0, 87, 69
1, 759247, Poly_aftertouch_c, 0, 54, 127
1, 759259, Control_c, 0, 64, 102
1, 759270, Note_on_c, 0, 57, 95
1, 759273, Note_on_c, 0, 78, 105
1, 759274, Poly_aftertouch_c, 0, 54, 0
1, 759274, Control_c, 0, 64, 127
1, 759277, Note_on_c, 0, 90, 96
1, 759292, Note_on_c, 0, 89, 70
1, 759293, Note_off_c, 0, 89, 127
1, 759295, Note_on_c, 0, 45, 50
1, 759296, Note_off_c, 0, 57, 67
1, 759299, Note_off_c, 0, 90, 67
1, 759306, Note_off_c, 0, 78, 67
1, 759313, Note_on_c, 0, 52, 17
1, 759314, Note_off_c, 0, 52, 127
1, 759323, Note_off_c, 0, 45, 58
1, 759351, Poly_aftertouch_c, 0, 52, 0
1, 759373, Note_on_c, 0, 56, 83
1, 759375, Note_on_c, 0, 82, 100
1, 759375, Note_on_c, 0, 94, 116
1, 759380, Note_on_c, 0, 44, 69
1, 759390, Note_on_c, 0, 92, 81
1, 759401, Note_off_c, 0, 44, 63
1, 759401, Note_off_c, 0, 56, 68
1, 759404, Note_off_c, 0, 82, 69
1, 759413, Note_off_c, 0, 94, 65
1, 759415, Note_off_c, 0, 92, 68
1, 759460, Note_on_c, 0, 50, 96
1, 759468, Note_on_c, 0, 88, 100
1, 759473, Note_on_c, 0, 44, 62
1, 759478, Note_on_c, 0, 39, 58
1, 759479, Note_off_c, 0, 39, 127
1, 759482, Note_on_c, 0, 40, 56
1, 759482, Note_off_c, 0, 50, 69
1, 759484, Note_on_c, 0, 100, 83
1, 759491, Note_on_c, 0, 98, 72
1, 759497, Note_off_c, 0, 88, 70
1, 759500, Note_on_c, 0, 99, 56
1, 759501, Note_off_c, 0, 100, 66
1, 759504, Note_off_c, 0, 44, 65
1, 759505, Note_on_c, 0, 41, 25
1, 759506, Note_off_c, 0, 98, 69
1, 759512, Note_off_c, 0, 40, 55
1, 759524, Note_off_c, 0, 99, 37
1, 759545, Note_off_c, 0, 41, 52
1, 759567, Note_on_c, 0, 99, 113
1, 759568, Note_on_c, 0, 88, 97
1, 759573, Note_on_c, 0, 37, 89
1, 759575, Poly_aftertouch_c, 0, 38, 0
1, 759576, Note_on_c, 0, 48, 78
1, 759578, Note_on_c, 0, 89, 82
1, 759580, Note_on_c, 0, 42, 71
1, 759582, Note_off_c, 0, 88, 78
1, 759583, Note_on_c, 0, 96, 64
1, 759583, Note_on_c, 0, 100, 61
1, 759584, Note_on_c, 0, 39, 68
1, 759591, Note_off_c, 0, 89, 71
1, 759594, Note_off_c, 0, 48, 41
1, 759599, Note_off_c, 0, 37, 65
1, 759603, Note_off_c, 0, 100, 40
1, 759604, Note_off_c, 0, 99, 65
1, 759606, Note_off_c, 0, 96, 68
1, 759610, Note_off_c, 0, 42, 64
1, 759612, Note_off_c, 0, 39, 59
1, 759614, Note_on_c, 0, 90, 10
1, 759615, Note_off_c, 0, 90, 127
1, 759662, Note_on_c, 0, 92, 111
1, 759665, Note_on_c, 0, 34, 97
1, 759665, Note_on_c, 0, 44, 101
1, 759665, Note_on_c, 0, 102, 117
1, 759666, Note_on_c, 0, 90, 72
1, 759667, Note_on_c, 0, 99, 98
1, 759671, Note_on_c, 0, 103, 95
1, 759675, Note_on_c, 0, 32, 78
1, 759676, Note_on_c, 0, 37, 53
1, 759677, Note_off_c, 0, 37, 127
1, 759679, Note_on_c, 0, 101, 73
1, 759682, Control_c, 0, 64, 68
1, 759689, Note_off_c, 0, 44, 69
1, 759689, Note_off_c, 0, 90, 67
1, 759691, Note_off_c, 0, 103, 71
1, 759697, Note_off_c, 0, 101, 68
1, 759697, Control_c, 0, 64, 0
1, 759700, Note_on_c, 0, 38, 46
1, 759700, Note_off_c, 0, 34, 61
1, 759701, Note_off_c, 0, 92, 67
1, 759706, Note_off_c, 0, 32, 64
1, 759706, Note_off_c, 0, 99, 65
1, 759709, Note_on_c, 0, 91, 30
1, 759710, Note_off_c, 0, 91, 127
1, 759716, Note_on_c, 0, 100, 31
1, 759718, Note_off_c, 0, 102, 66
1, 759733, Note_off_c, 0, 38, 33
1, 759753, Note_off_c, 0, 100, 31
1, 759774, Note_on_c, 0, 106, 126
1, 759776, Note_on_c, 0, 108, 117
1, 759778, Poly_aftertouch_c, 0, 107, 0
1, 759780, Note_on_c, 0, 107, 108
1, 759780, Note_on_c, 0, 39, 104
1, 759782, Note_on_c, 0, 98, 108
1, 759786, Control_c, 0, 64, 63
1, 759790, Note_on_c, 0, 30, 89
1, 759795, Note_on_c, 0, 28, 91
1, 759795, Note_on_c, 0, 40, 91
1, 759797, Note_on_c, 0, 34, 77
1, 759798, Note_on_c, 0, 29, 78
1, 759801, Control_c, 0, 64, 127
1, 759804, Poly_aftertouch_c, 0, 99, 127
1, 759826, Note_off_c, 0, 34, 54
1, 759855, Note_off_c, 0, 107, 60
1, 759861, Note_off_c, 0, 98, 63
1, 759872, Note_off_c, 0, 40, 62
1, 759883, Note_off_c, 0, 108, 59
1, 759885, Poly_aftertouch_c, 0, 99, 0
1, 759888, Note_off_c, 0, 28, 59
1, 759892, Poly_aftertouch_c, 0, 35, 127
1, 759900, Note_off_c, 0, 29, 54
1, 759902, Note_off_c, 0, 39, 59
1, 759911, Note_off_c, 0, 30, 60
1, 759920, Note_off_c, 0, 106, 41
1, 759941, Poly_aftertouch_c, 0, 35, 0
1, 759997, Poly_aftertouch_c, 0, 31, 0
1, 760186, Control_c, 0, 64, 70
1, 760201, Control_c, 0, 64, 26
1, 760216, Control_c, 0, 64, 0
1, 760408, Note_on_c, 0, 47, 58
1, 760414, Note_on_c, 0, 45, 70
1, 760422, Note_on_c, 0, 71, 115
1, 760423, Note_on_c, 0, 69, 102
1, 760424, Note_on_c, 0, 57, 103
1, 760425, Note_on_c, 0, 59, 115
1, 760427, Note_on_c, 0, 80, 107
1, 760429, Note_on_c, 0, 75, 89
1, 760430, Note_on_c, 0, 81, 95
1, 760430, Control_c, 0, 64, 40
1, 760436, Note_on_c, 0, 83, 94
1, 760445, Control_c, 0, 64, 127
1, 760453, Note_off_c, 0, 83, 74
1, 760464, Note_off_c, 0, 80, 69
1, 760470, Note_off_c, 0, 81, 63
1, 760471, Note_on_c, 0, 78, 50
1, 760525, Note_off_c, 0, 71, 53
1, 760529, Note_off_c, 0, 45, 56
1, 760532, Note_off_c, 0, 78, 64
1, 760535, Note_off_c, 0, 59, 63
1, 760549, Note_off_c, 0, 69, 61
1, 760551, Note_on_c, 0, 48, 25
1, 760555, Note_off_c, 0, 57, 69
1, 760556, Note_on_c, 0, 73, 46
1, 760558, Note_off_c, 0, 75, 59
1, 760569, Note_off_c, 0, 47, 61
1, 760580, Note_off_c, 0, 73, 60
1, 760591, Note_off_c, 0, 48, 63
1, 761039, Control_c, 0, 64, 95
1, 761054, Control_c, 0, 64, 61
1, 761068, Control_c, 0, 64, 0
1, 761291, Note_on_c, 0, 66, 121
1, 761299, Note_on_c, 0, 54, 118
1, 761305, Note_on_c, 0, 42, 93
1, 761314, Control_c, 0, 64, 41
1, 761317, Note_on_c, 0, 44, 74
1, 761322, Note_off_c, 0, 66, 72
1, 761328, Note_off_c, 0, 54, 67
1, 761328, Control_c, 0, 64, 127
1, 761330, Note_off_c, 0, 42, 70
1, 761338, Note_off_c, 0, 44, 62
1, 761458, Note_on_c, 0, 51, 111
1, 761465, Note_on_c, 0, 63, 100
1, 761468, Note_on_c, 0, 39, 79
1, 761468, Note_on_c, 0, 66, 95
1, 761469, Note_on_c, 0, 42, 84
1, 761473, Note_on_c, 0, 64, 86
1, 761487, Note_off_c, 0, 66, 73
1, 761488, Note_off_c, 0, 42, 45
1, 761491, Control_c, 0, 64, 85
1, 761494, Note_off_c, 0, 51, 67
1, 761495, Note_off_c, 0, 64, 68
1, 761497, Note_off_c, 0, 39, 66
1, 761506, Control_c, 0, 64, 51
1, 761512, Note_off_c, 0, 63, 63
1, 761521, Control_c, 0, 64, 0
1, 761555, Poly_aftertouch_c, 0, 44, 0
1, 761574, Note_on_c, 0, 58, 113
1, 761582, Note_on_c, 0, 46, 93
1, 761583, Note_on_c, 0, 34, 87
1, 761598, Note_on_c, 0, 44, 54
1, 761610, Note_off_c, 0, 34, 66
1, 761616, Note_off_c, 0, 58, 66
1, 761619, Note_off_c, 0, 46, 62
1, 761626, Note_off_c, 0, 44, 33
1, 761689, Poly_aftertouch_c, 0, 37, 0
1, 761701, Note_on_c, 0, 50, 99
1, 761703, Note_on_c, 0, 62, 101
1, 761706, Note_on_c, 0, 38, 84
1, 761714, Control_c, 0, 64, 28
1, 761727, Note_on_c, 0, 48, 36
1, 761728, Note_off_c, 0, 48, 127
1, 761728, Control_c, 0, 64, 127
1, 761729, Note_off_c, 0, 50, 67
1, 761732, Note_on_c, 0, 39, 44
1, 761736, Note_off_c, 0, 38, 67
1, 761750, Note_off_c, 0, 62, 72
1, 761770, Note_off_c, 0, 39, 55
1, 761781, Note_on_c, 0, 40, 1
1, 761811, Note_on_c, 0, 45, 94
1, 761817, Note_on_c, 0, 57, 99
1, 761821, Note_on_c, 0, 59, 91
1, 761822, Note_on_c, 0, 33, 72
1, 761828, Note_off_c, 0, 40, 48
1, 761831, Control_c, 0, 64, 101
1, 761837, Note_on_c, 0, 34, 48
1, 761837, Note_off_c, 0, 45, 66
1, 761838, Note_off_c, 0, 59, 73
1, 761846, Note_off_c, 0, 33, 62
1, 761846, Control_c, 0, 64, 61
1, 761854, Note_off_c, 0, 57, 68
1, 761861, Control_c, 0, 64, 0
1, 761870, Note_off_c, 0, 34, 56
1, 761909, Note_on_c, 0, 53, 113
1, 761911, Note_on_c, 0, 42, 103
1, 761924, Note_on_c, 0, 30, 71
1, 761934, Note_off_c, 0, 42, 70
1, 761936, Note_on_c, 0, 33, 52
1, 761937, Note_off_c, 0, 53, 68
1, 761948, Note_on_c, 0, 32, 32
1, 761956, Note_off_c, 0, 30, 62
1, 761973, Note_off_c, 0, 33, 52
1, 761992, Note_off_c, 0, 32, 31
1, 762007, Note_on_c, 0, 46, 123
1, 762010, Note_on_c, 0, 39, 117
1, 762015, Note_on_c, 0, 27, 83
1, 762017, Control_c, 0, 64, 55
1, 762019, Note_on_c, 0, 52, 80
1, 762020, Note_on_c, 0, 51, 73
1, 762027, Note_on_c, 0, 30, 72
1, 762028, Note_on_c, 0, 49, 67
1, 762029, Note_off_c, 0, 49, 127
1, 762031, Control_c, 0, 64, 127
1, 762041, Note_off_c, 0, 27, 66
1, 762042, Note_on_c, 0, 29, 54
1, 762062, Note_off_c, 0, 46, 63
1, 762064, Note_off_c, 0, 52, 62
1, 762067, Note_off_c, 0, 39, 63
1, 762070, Note_off_c, 0, 51, 40
1, 762081, Note_off_c, 0, 29, 46
1, 762091, Note_on_c, 0, 48, 8
1, 762092, Note_off_c, 0, 48, 55
1, 762099, Note_off_c, 0, 30, 39
1, 762105, Control_c, 0, 64, 88
1, 762120, Control_c, 0, 64, 53
1, 762135, Control_c, 0, 64, 0
1, 762473, Note_on_c, 0, 46, 110
1, 762475, Control_c, 0, 64, 17
1, 762476, Note_on_c, 0, 39, 119
1, 762476, Note_on_c, 0, 51, 115
1, 762483, Note_on_c, 0, 27, 94
1, 762490, Control_c, 0, 64, 127
1, 762500, Note_on_c, 0, 49, 43
1, 762501, Note_off_c, 0, 49, 127
1, 762508, Note_on_c, 0, 30, 51
1, 762509, Note_off_c, 0, 30, 127
1, 762509, Note_off_c, 0, 27, 66
1, 762511, Note_off_c, 0, 46, 64
1, 762517, Note_off_c, 0, 39, 63
1, 762528, Note_off_c, 0, 51, 61
1, 762529, Poly_aftertouch_c, 0, 49, 0
1, 762565, Poly_aftertouch_c, 0, 29, 127
1, 762582, Poly_aftertouch_c, 0, 47, 0
1, 762609, Poly_aftertouch_c, 0, 29, 0
1, 762629, Poly_aftertouch_c, 0, 27, 127
1, 762672, Poly_aftertouch_c, 0, 27, 0
1, 762678, Control_c, 0, 64, 84
1, 762693, Control_c, 0, 64, 33
1, 762707, Control_c, 0, 64, 0
1, 762782, End_track
0, 0, End_of_file
