0, 0, Header, 0, 1, 384
1, 0, Start_track
1, 0, Title_t, "Etude No. 4 Fanfares--N. Huang  "
1, 0, Text_t, "2008 e-Piano Junior Competition recital round"
1, 0, Text_t, "recorded July 2008"
1, 0, Text_t, "http://www.piano-e-competition.com/"
1, 0, Text_t, "File processed for distribution by software from Zenph Studios, Inc., http://www.zenph.com"
1, 0, Instrument_name_t, "Yamaha Disklavier Pro Mark IV concert grand piano, model DCFIIISM4PRO"
1, 0, Sequencer_specific, 39, 67, 113, 0, 1, 0, 1, 0, 69, 116, 117, 100, 101, 32, 78, 111, 46, 32, 52, 32, 32, 32, 32, 32, 78, 97, 110, 115, 111, 110, 103, 32, 72, 117, 97, 110, 103, 32, 32, 32
1, 0, Sequencer_specific, 6, 67, 113, 0, 0, 0, 69
1, 0, System_exclusive, 21, 67, 113, 126, 21, 0, 2, 2, 0, 3, 14, 1, 4, 1, 13, 13, 10, 11, 9, 2, 7, 247
1, 0, Sequencer_specific, 5, 67, 123, 12, 2, 1
1, 0, Tempo, 512820
1, 0, Time_signature, 4, 2, 24, 8
1, 0, System_exclusive, 5, 126, 127, 9, 1, 247
1, 1, System_exclusive, 8, 67, 16, 76, 0, 0, 126, 0, 247
1, 2, System_exclusive, 8, 67, 16, 76, 8, 9, 7, 1, 247
1, 3, Control_c, 0, 0, 0
1, 3, Control_c, 1, 0, 0
1, 3, Control_c, 2, 0, 0
1, 3, Control_c, 3, 0, 0
1, 3, Control_c, 4, 0, 0
1, 3, Control_c, 5, 0, 0
1, 3, Control_c, 6, 0, 0
1, 3, Control_c, 7, 0, 0
1, 3, Control_c, 8, 0, 0
1, 3, Control_c, 9, 0, 127
1, 3, Control_c, 10, 0, 0
1, 3, Control_c, 11, 0, 0
1, 3, Control_c, 12, 0, 0
1, 3, Control_c, 13, 0, 0
1, 3, Control_c, 14, 0, 0
1, 3, Control_c, 15, 0, 0
1, 4, Control_c, 0, 32, 0
1, 4, Control_c, 1, 32, 0
1, 4, Control_c, 2, 32, 0
1, 4, Control_c, 3, 32, 0
1, 4, Control_c, 4, 32, 0
1, 4, Control_c, 5, 32, 0
1, 4, Control_c, 6, 32, 0
1, 4, Control_c, 7, 32, 0
1, 4, Control_c, 8, 32, 0
1, 4, Control_c, 9, 32, 0
1, 4, Control_c, 10, 32, 0
1, 4, Control_c, 11, 32, 0
1, 4, Control_c, 12, 32, 0
1, 4, Control_c, 13, 32, 0
1, 4, Control_c, 14, 32, 0
1, 4, Control_c, 15, 32, 0
1, 5, Program_c, 0, 0
1, 5, Program_c, 1, 0
1, 5, Program_c, 2, 0
1, 5, Program_c, 3, 0
1, 5, Program_c, 4, 0
1, 5, Program_c, 5, 0
1, 5, Program_c, 6, 0
1, 5, Program_c, 7, 0
1, 5, Program_c, 8, 0
1, 5, Program_c, 9, 0
1, 5, Program_c, 10, 0
1, 5, Program_c, 11, 0
1, 5, Program_c, 12, 0
1, 5, Program_c, 13, 0
1, 5, Program_c, 14, 0
1, 5, Program_c, 15, 0
1, 6, Control_c, 0, 7, 100
1, 6, Control_c, 1, 7, 100
1, 6, Control_c, 2, 7, 100
1, 6, Control_c, 3, 7, 100
1, 6, Control_c, 4, 7, 100
1, 6, Control_c, 5, 7, 100
1, 6, Control_c, 6, 7, 100
1, 6, Control_c, 7, 7, 100
1, 6, Control_c, 8, 7, 100
1, 6, Control_c, 9, 7, 100
1, 6, Control_c, 10, 7, 100
1, 6, Control_c, 11, 7, 100
1, 6, Control_c, 12, 7, 100
1, 6, Control_c, 13, 7, 100
1, 6, Control_c, 14, 7, 100
1, 6, Control_c, 15, 7, 100
1, 117, Control_c, 0, 64, 2
1, 117, Control_c, 0, 67, 15
1, 229, Control_c, 0, 64, 5
1, 229, Control_c, 0, 67, 31
1, 341, Control_c, 0, 64, 7
1, 341, Control_c, 0, 67, 46
1, 452, Control_c, 0, 64, 10
1, 452, Control_c, 0, 67, 63
1, 564, Control_c, 0, 64, 12
1, 564, Control_c, 0, 67, 77
1, 676, Control_c, 0, 64, 15
1, 676, Control_c, 0, 67, 94
1, 787, Control_c, 0, 64, 17
1, 787, Control_c, 0, 67, 108
1, 899, Control_c, 0, 64, 20
1, 899, Control_c, 0, 67, 127
1, 1130, Note_on_c, 0, 48, 62
1, 1137, Control_c, 0, 64, 18
1, 1166, Control_c, 0, 64, 17
1, 1178, Note_off_c, 0, 48, 56
1, 1181, Control_c, 0, 64, 13
1, 1196, Control_c, 0, 64, 0
1, 1237, Note_on_c, 0, 50, 40
1, 1284, Note_off_c, 0, 50, 48
1, 1313, Note_on_c, 0, 52, 50
1, 1355, Note_off_c, 0, 52, 65
1, 1403, Note_on_c, 0, 53, 57
1, 1444, Note_off_c, 0, 53, 58
1, 1487, Note_on_c, 0, 54, 55
1, 1519, Note_off_c, 0, 54, 63
1, 1581, Note_on_c, 0, 56, 62
1, 1619, Note_off_c, 0, 56, 62
1, 1679, Note_on_c, 0, 58, 58
1, 1715, Note_off_c, 0, 58, 65
1, 1788, Note_on_c, 0, 59, 38
1, 1830, Note_off_c, 0, 59, 59
1, 1864, Note_on_c, 0, 76, 73
1, 1874, Note_on_c, 0, 67, 54
1, 1884, Note_on_c, 0, 48, 51
1, 1946, Note_off_c, 0, 48, 60
1, 1990, Note_on_c, 0, 50, 47
1, 2045, Note_off_c, 0, 50, 57
1, 2079, Note_on_c, 0, 52, 54
1, 2122, Note_off_c, 0, 52, 64
1, 2166, Note_on_c, 0, 72, 64
1, 2167, Note_on_c, 0, 53, 54
1, 2167, Note_off_c, 0, 67, 57
1, 2167, Note_on_c, 0, 69, 52
1, 2190, Note_off_c, 0, 76, 59
1, 2255, Note_off_c, 0, 53, 56
1, 2281, Note_on_c, 0, 54, 45
1, 2357, Note_on_c, 0, 73, 66
1, 2360, Note_off_c, 0, 69, 65
1, 2361, Note_off_c, 0, 54, 51
1, 2367, Note_on_c, 0, 65, 50
1, 2382, Note_on_c, 0, 56, 48
1, 2388, Note_off_c, 0, 72, 63
1, 2431, Note_off_c, 0, 56, 58
1, 2471, Note_on_c, 0, 58, 55
1, 2511, Note_off_c, 0, 58, 65
1, 2567, Note_on_c, 0, 59, 42
1, 2617, Note_off_c, 0, 59, 50
1, 2653, Note_off_c, 0, 65, 54
1, 2655, Note_on_c, 0, 75, 64
1, 2668, Note_on_c, 0, 68, 47
1, 2689, Note_on_c, 0, 48, 38
1, 2758, Note_off_c, 0, 48, 40
1, 2758, Note_off_c, 0, 73, 30
1, 2799, Note_on_c, 0, 50, 43
1, 2812, Control_c, 0, 64, 13
1, 2827, Control_c, 0, 64, 31
1, 2842, Control_c, 0, 64, 44
1, 2851, Note_off_c, 0, 50, 58
1, 2856, Control_c, 0, 64, 54
1, 2871, Control_c, 0, 64, 60
1, 2885, Note_on_c, 0, 52, 51
1, 2886, Control_c, 0, 64, 64
1, 2901, Control_c, 0, 64, 67
1, 2908, Note_off_c, 0, 75, 64
1, 2915, Control_c, 0, 64, 69
1, 2924, Note_off_c, 0, 52, 66
1, 2930, Control_c, 0, 64, 72
1, 2945, Control_c, 0, 64, 73
1, 2960, Control_c, 0, 64, 74
1, 2964, Note_on_c, 0, 53, 56
1, 2975, Control_c, 0, 64, 74
1, 2982, Note_off_c, 0, 68, 64
1, 3020, Control_c, 0, 64, 74
1, 3035, Control_c, 0, 64, 73
1, 3054, Note_off_c, 0, 53, 53
1, 3056, Control_c, 0, 64, 72
1, 3064, Note_on_c, 0, 54, 63
1, 3071, Control_c, 0, 64, 69
1, 3086, Control_c, 0, 64, 63
1, 3101, Control_c, 0, 64, 48
1, 3116, Control_c, 0, 64, 0
1, 3139, Note_on_c, 0, 76, 85
1, 3145, Note_on_c, 0, 71, 74
1, 3146, Note_off_c, 0, 54, 53
1, 3162, Note_on_c, 0, 56, 59
1, 3228, Note_off_c, 0, 56, 58
1, 3263, Note_on_c, 0, 58, 58
1, 3306, Note_off_c, 0, 58, 61
1, 3363, Note_on_c, 0, 59, 48
1, 3440, Note_off_c, 0, 71, 58
1, 3441, Note_on_c, 0, 77, 78
1, 3441, Note_off_c, 0, 59, 59
1, 3446, Note_off_c, 0, 76, 61
1, 3453, Note_on_c, 0, 69, 59
1, 3473, Note_on_c, 0, 48, 61
1, 3545, Note_off_c, 0, 48, 57
1, 3577, Note_on_c, 0, 50, 41
1, 3624, Note_off_c, 0, 50, 50
1, 3655, Note_on_c, 0, 52, 50
1, 3691, Note_off_c, 0, 52, 66
1, 3723, Note_off_c, 0, 69, 64
1, 3729, Note_off_c, 0, 77, 60
1, 3730, Note_on_c, 0, 74, 65
1, 3733, Note_on_c, 0, 70, 55
1, 3734, Note_on_c, 0, 53, 53
1, 3778, Note_off_c, 0, 53, 55
1, 3833, Note_on_c, 0, 54, 52
1, 3860, Note_off_c, 0, 70, 56
1, 3872, Note_off_c, 0, 54, 59
1, 3913, Note_off_c, 0, 74, 60
1, 3923, Note_on_c, 0, 72, 62
1, 3932, Note_on_c, 0, 56, 49
1, 3949, Note_on_c, 0, 63, 30
1, 3976, Note_off_c, 0, 56, 59
1, 4027, Note_on_c, 0, 58, 52
1, 4062, Note_off_c, 0, 58, 65
1, 4107, Note_on_c, 0, 59, 52
1, 4120, Note_off_c, 0, 63, 44
1, 4146, Note_off_c, 0, 59, 62
1, 4152, Note_off_c, 0, 72, 64
1, 4177, Control_c, 0, 67, 122
1, 4192, Control_c, 0, 67, 110
1, 4197, Note_on_c, 0, 48, 63
1, 4207, Control_c, 0, 67, 97
1, 4222, Control_c, 0, 67, 83
1, 4237, Control_c, 0, 67, 67
1, 4251, Control_c, 0, 67, 50
1, 4261, Note_off_c, 0, 48, 58
1, 4266, Control_c, 0, 67, 32
1, 4281, Control_c, 0, 67, 23
1, 4282, Note_on_c, 0, 50, 53
1, 4295, Control_c, 0, 67, 20
1, 4310, Control_c, 0, 67, 18
1, 4325, Control_c, 0, 67, 17
1, 4332, Note_off_c, 0, 50, 57
1, 4340, Control_c, 0, 67, 17
1, 4370, Note_on_c, 0, 52, 53
1, 4413, Note_off_c, 0, 52, 67
1, 4444, Note_on_c, 0, 80, 84
1, 4454, Note_on_c, 0, 73, 69
1, 4456, Note_on_c, 0, 53, 64
1, 4516, Note_off_c, 0, 53, 51
1, 4540, Note_on_c, 0, 54, 60
1, 4570, Control_c, 0, 67, 17
1, 4584, Control_c, 0, 67, 18
1, 4598, Note_off_c, 0, 54, 55
1, 4631, Note_on_c, 0, 75, 73
1, 4638, Note_on_c, 0, 72, 63
1, 4638, Note_on_c, 0, 56, 61
1, 4641, Note_off_c, 0, 73, 56
1, 4684, Note_off_c, 0, 80, 51
1, 4692, Note_off_c, 0, 56, 58
1, 4741, Note_on_c, 0, 58, 55
1, 4789, Note_off_c, 0, 58, 60
1, 4862, Note_on_c, 0, 59, 41
1, 4915, Note_off_c, 0, 75, 63
1, 4924, Note_off_c, 0, 72, 59
1, 4924, Note_off_c, 0, 59, 57
1, 4936, Note_on_c, 0, 81, 75
1, 4947, Note_on_c, 0, 77, 64
1, 4972, Note_on_c, 0, 48, 44
1, 5040, Note_off_c, 0, 48, 59
1, 5060, Note_on_c, 0, 50, 44
1, 5130, Note_off_c, 0, 50, 58
1, 5161, Note_on_c, 0, 52, 41
1, 5192, Control_c, 0, 67, 17
1, 5193, Note_off_c, 0, 52, 62
1, 5195, Note_off_c, 0, 77, 36
1, 5237, Note_on_c, 0, 53, 50
1, 5240, Note_on_c, 0, 74, 61
1, 5241, Note_on_c, 0, 70, 51
1, 5257, Note_off_c, 0, 81, 52
1, 5300, Note_off_c, 0, 70, 0
1, 5300, Note_on_c, 0, 70, 15
1, 5316, Note_off_c, 0, 53, 52
1, 5346, Note_on_c, 0, 54, 47
1, 5348, Control_c, 0, 67, 17
1, 5378, Control_c, 0, 67, 16
1, 5380, Note_off_c, 0, 54, 59
1, 5401, Note_off_c, 0, 74, 65
1, 5426, Note_on_c, 0, 56, 60
1, 5463, Note_off_c, 0, 70, 60
1, 5464, Note_off_c, 0, 56, 61
1, 5512, Note_on_c, 0, 58, 64
1, 5549, Note_off_c, 0, 58, 63
1, 5607, Note_on_c, 0, 59, 50
1, 5630, Control_c, 0, 67, 16
1, 5645, Control_c, 0, 67, 15
1, 5674, Control_c, 0, 67, 14
1, 5685, Note_off_c, 0, 59, 59
1, 5689, Control_c, 0, 64, 55
1, 5689, Control_c, 0, 67, 12
1, 5693, Note_on_c, 0, 75, 83
1, 5704, Note_on_c, 0, 68, 66
1, 5704, Control_c, 0, 64, 66
1, 5704, Control_c, 0, 67, 0
1, 5718, Note_on_c, 0, 48, 61
1, 5719, Control_c, 0, 64, 71
1, 5734, Control_c, 0, 64, 77
1, 5748, Control_c, 0, 64, 81
1, 5763, Control_c, 0, 64, 82
1, 5778, Control_c, 0, 64, 83
1, 5793, Control_c, 0, 64, 83
1, 5808, Control_c, 0, 64, 84
1, 5822, Note_on_c, 0, 50, 53
1, 5835, Note_off_c, 0, 48, 34
1, 5857, Note_off_c, 0, 75, 62
1, 5869, Note_off_c, 0, 68, 59
1, 5881, Control_c, 0, 64, 84
1, 5902, Note_off_c, 0, 50, 59
1, 5918, Note_on_c, 0, 52, 63
1, 5926, Control_c, 0, 64, 84
1, 5941, Control_c, 0, 64, 83
1, 5956, Control_c, 0, 64, 81
1, 5971, Note_off_c, 0, 52, 62
1, 5971, Control_c, 0, 64, 77
1, 5986, Note_on_c, 0, 72, 82
1, 5986, Control_c, 0, 64, 71
1, 5995, Note_on_c, 0, 69, 78
1, 6001, Control_c, 0, 64, 61
1, 6007, Note_on_c, 0, 53, 64
1, 6015, Control_c, 0, 64, 0
1, 6052, Control_c, 0, 64, 28
1, 6067, Control_c, 0, 64, 57
1, 6081, Control_c, 0, 64, 62
1, 6090, Note_off_c, 0, 72, 63
1, 6094, Note_off_c, 0, 53, 64
1, 6106, Note_on_c, 0, 54, 58
1, 6111, Control_c, 0, 64, 60
1, 6126, Control_c, 0, 64, 52
1, 6141, Control_c, 0, 64, 32
1, 6156, Control_c, 0, 64, 0
1, 6161, Note_off_c, 0, 54, 50
1, 6178, Note_on_c, 0, 71, 82
1, 6182, Note_off_c, 0, 69, 65
1, 6186, Note_on_c, 0, 64, 67
1, 6194, Note_on_c, 0, 56, 57
1, 6215, Control_c, 0, 67, 9
1, 6230, Control_c, 0, 67, 12
1, 6237, Note_off_c, 0, 56, 60
1, 6245, Control_c, 0, 67, 14
1, 6260, Control_c, 0, 67, 17
1, 6274, Control_c, 0, 67, 19
1, 6289, Control_c, 0, 67, 22
1, 6296, Note_on_c, 0, 58, 53
1, 6304, Control_c, 0, 67, 25
1, 6319, Control_c, 0, 67, 28
1, 6334, Control_c, 0, 67, 32
1, 6343, Note_off_c, 0, 58, 60
1, 6348, Control_c, 0, 67, 35
1, 6363, Control_c, 0, 67, 39
1, 6379, Control_c, 0, 67, 42
1, 6394, Control_c, 0, 67, 45
1, 6400, Note_on_c, 0, 59, 48
1, 6409, Control_c, 0, 67, 47
1, 6424, Control_c, 0, 67, 49
1, 6439, Control_c, 0, 67, 52
1, 6453, Control_c, 0, 67, 54
1, 6456, Note_off_c, 0, 59, 56
1, 6468, Control_c, 0, 67, 56
1, 6481, Note_on_c, 0, 68, 68
1, 6483, Control_c, 0, 67, 59
1, 6488, Note_on_c, 0, 63, 60
1, 6489, Note_off_c, 0, 71, 50
1, 6493, Note_off_c, 0, 64, 60
1, 6497, Control_c, 0, 67, 60
1, 6512, Control_c, 0, 67, 61
1, 6513, Note_on_c, 0, 48, 52
1, 6527, Control_c, 0, 67, 62
1, 6542, Control_c, 0, 67, 63
1, 6557, Control_c, 0, 67, 63
1, 6587, Note_off_c, 0, 48, 56
1, 6595, Note_off_c, 0, 63, 0
1, 6595, Note_on_c, 0, 63, 7
1, 6603, Note_on_c, 0, 50, 38
1, 6653, Note_off_c, 0, 50, 44
1, 6675, Control_c, 0, 67, 64
1, 6689, Control_c, 0, 67, 64
1, 6692, Note_on_c, 0, 52, 48
1, 6726, Note_off_c, 0, 52, 65
1, 6764, Note_on_c, 0, 53, 59
1, 6802, Control_c, 0, 67, 65
1, 6806, Note_off_c, 0, 53, 64
1, 6831, Control_c, 0, 67, 65
1, 6846, Control_c, 0, 67, 67
1, 6859, Note_on_c, 0, 54, 50
1, 6861, Control_c, 0, 67, 70
1, 6876, Control_c, 0, 67, 73
1, 6885, Note_off_c, 0, 54, 59
1, 6891, Control_c, 0, 67, 75
1, 6905, Control_c, 0, 67, 78
1, 6920, Control_c, 0, 67, 81
1, 6935, Control_c, 0, 67, 84
1, 6938, Note_on_c, 0, 56, 64
1, 6950, Control_c, 0, 67, 88
1, 6965, Control_c, 0, 67, 92
1, 6975, Note_off_c, 0, 56, 63
1, 6979, Control_c, 0, 67, 97
1, 6994, Control_c, 0, 67, 100
1, 7009, Control_c, 0, 67, 101
1, 7041, Note_on_c, 0, 58, 50
1, 7053, Control_c, 0, 67, 101
1, 7083, Control_c, 0, 67, 102
1, 7088, Note_off_c, 0, 58, 61
1, 7112, Control_c, 0, 67, 101
1, 7127, Control_c, 0, 67, 101
1, 7148, Note_on_c, 0, 59, 48
1, 7178, Note_off_c, 0, 59, 56
1, 7229, Note_on_c, 0, 48, 56
1, 7232, Control_c, 0, 67, 100
1, 7247, Control_c, 0, 67, 100
1, 7282, Note_off_c, 0, 48, 60
1, 7333, Note_on_c, 0, 50, 27
1, 7351, Control_c, 0, 67, 100
1, 7372, Note_off_c, 0, 50, 48
1, 7381, Control_c, 0, 67, 101
1, 7417, Note_on_c, 0, 52, 38
1, 7445, Note_off_c, 0, 52, 58
1, 7494, Note_on_c, 0, 53, 51
1, 7509, Note_off_c, 0, 68, 51
1, 7527, Note_off_c, 0, 53, 51
1, 7574, Note_off_c, 0, 63, 43
1, 7579, Note_on_c, 0, 54, 54
1, 7593, Control_c, 0, 67, 100
1, 7604, Note_off_c, 0, 54, 62
1, 7608, Control_c, 0, 67, 99
1, 7623, Control_c, 0, 67, 98
1, 7638, Control_c, 0, 67, 97
1, 7652, Control_c, 0, 67, 97
1, 7667, Control_c, 0, 67, 96
1, 7668, Note_on_c, 0, 56, 58
1, 7682, Control_c, 0, 67, 95
1, 7697, Control_c, 0, 67, 93
1, 7702, Note_off_c, 0, 56, 64
1, 7712, Control_c, 0, 67, 92
1, 7726, Control_c, 0, 67, 91
1, 7741, Control_c, 0, 67, 90
1, 7756, Control_c, 0, 67, 88
1, 7771, Note_on_c, 0, 58, 43
1, 7771, Control_c, 0, 67, 87
1, 7786, Control_c, 0, 67, 83
1, 7795, Note_off_c, 0, 58, 59
1, 7801, Control_c, 0, 67, 75
1, 7816, Control_c, 0, 67, 64
1, 7831, Control_c, 0, 67, 50
1, 7845, Control_c, 0, 67, 35
1, 7858, Note_on_c, 0, 59, 42
1, 7860, Control_c, 0, 67, 20
1, 7875, Control_c, 0, 67, 0
1, 7884, Note_off_c, 0, 59, 56
1, 7922, Note_on_c, 0, 60, 63
1, 7974, Note_off_c, 0, 60, 52
1, 8008, Note_on_c, 0, 62, 54
1, 8075, Note_off_c, 0, 62, 41
1, 8104, Note_on_c, 0, 64, 54
1, 8132, Note_off_c, 0, 64, 58
1, 8177, Note_on_c, 0, 57, 80
1, 8184, Note_on_c, 0, 50, 68
1, 8194, Note_on_c, 0, 65, 64
1, 8242, Note_off_c, 0, 65, 54
1, 8302, Note_on_c, 0, 66, 61
1, 8334, Note_off_c, 0, 50, 58
1, 8338, Note_off_c, 0, 57, 57
1, 8342, Note_off_c, 0, 66, 66
1, 8357, Note_on_c, 0, 48, 63
1, 8360, Note_on_c, 0, 53, 70
1, 8384, Note_on_c, 0, 68, 68
1, 8424, Note_off_c, 0, 68, 59
1, 8481, Note_on_c, 0, 70, 62
1, 8512, Note_off_c, 0, 70, 67
1, 8576, Note_on_c, 0, 71, 54
1, 8591, Note_off_c, 0, 48, 59
1, 8614, Note_off_c, 0, 71, 62
1, 8656, Note_off_c, 0, 53, 57
1, 8659, Note_on_c, 0, 60, 64
1, 8660, Note_on_c, 0, 52, 60
1, 8670, Note_on_c, 0, 45, 52
1, 8728, Note_off_c, 0, 60, 41
1, 8753, Note_on_c, 0, 62, 58
1, 8812, Note_off_c, 0, 62, 46
1, 8860, Note_on_c, 0, 64, 46
1, 8883, Note_off_c, 0, 64, 59
1, 8889, Note_off_c, 0, 45, 52
1, 8918, Note_off_c, 0, 52, 62
1, 8934, Note_on_c, 0, 49, 50
1, 8940, Note_on_c, 0, 46, 51
1, 8944, Note_on_c, 0, 65, 61
1, 8979, Note_off_c, 0, 65, 63
1, 9030, Note_on_c, 0, 66, 55
1, 9068, Note_off_c, 0, 66, 68
1, 9116, Note_on_c, 0, 68, 69
1, 9125, Note_off_c, 0, 49, 60
1, 9133, Note_off_c, 0, 46, 55
1, 9146, Note_off_c, 0, 68, 66
1, 9212, Note_on_c, 0, 70, 62
1, 9239, Note_off_c, 0, 70, 66
1, 9309, Note_on_c, 0, 71, 46
1, 9339, Note_off_c, 0, 71, 56
1, 9380, Note_on_c, 0, 60, 64
1, 9384, Note_on_c, 0, 55, 85
1, 9387, Control_c, 0, 64, 10
1, 9388, Note_on_c, 0, 51, 67
1, 9402, Control_c, 0, 64, 47
1, 9417, Control_c, 0, 64, 58
1, 9432, Control_c, 0, 64, 63
1, 9446, Control_c, 0, 64, 65
1, 9461, Control_c, 0, 64, 68
1, 9468, Note_off_c, 0, 60, 57
1, 9476, Note_on_c, 0, 62, 56
1, 9476, Control_c, 0, 64, 70
1, 9491, Control_c, 0, 64, 72
1, 9506, Control_c, 0, 64, 73
1, 9521, Control_c, 0, 64, 73
1, 9524, Note_off_c, 0, 55, 59
1, 9575, Note_off_c, 0, 62, 38
1, 9585, Note_on_c, 0, 64, 53
1, 9610, Control_c, 0, 64, 73
1, 9613, Note_off_c, 0, 64, 55
1, 9625, Control_c, 0, 64, 71
1, 9634, Note_off_c, 0, 51, 59
1, 9640, Control_c, 0, 64, 67
1, 9655, Control_c, 0, 64, 59
1, 9660, Note_on_c, 0, 56, 73
1, 9667, Note_on_c, 0, 65, 68
1, 9669, Note_on_c, 0, 48, 62
1, 9670, Control_c, 0, 64, 46
1, 9685, Control_c, 0, 64, 28
1, 9700, Control_c, 0, 64, 0
1, 9705, Note_off_c, 0, 65, 61
1, 9729, Control_c, 0, 64, 13
1, 9744, Control_c, 0, 64, 18
1, 9761, Note_on_c, 0, 66, 63
1, 9774, Control_c, 0, 64, 20
1, 9810, Note_off_c, 0, 66, 65
1, 9810, Control_c, 0, 64, 21
1, 9825, Control_c, 0, 64, 23
1, 9834, Note_off_c, 0, 56, 56
1, 9840, Control_c, 0, 64, 24
1, 9840, Note_off_c, 0, 48, 62
1, 9849, Note_on_c, 0, 52, 70
1, 9855, Note_on_c, 0, 68, 64
1, 9855, Control_c, 0, 64, 25
1, 9856, Note_on_c, 0, 49, 59
1, 9870, Control_c, 0, 64, 27
1, 9887, Note_off_c, 0, 68, 66
1, 9929, Control_c, 0, 64, 28
1, 9949, Note_on_c, 0, 70, 64
1, 9974, Control_c, 0, 64, 29
1, 9974, Note_off_c, 0, 70, 66
1, 9988, Control_c, 0, 64, 29
1, 10003, Control_c, 0, 64, 31
1, 10018, Control_c, 0, 64, 32
1, 10033, Control_c, 0, 64, 33
1, 10045, Note_on_c, 0, 71, 54
1, 10075, Note_off_c, 0, 71, 62
1, 10087, Note_off_c, 0, 52, 51
1, 10088, Note_off_c, 0, 49, 38
1, 10092, Control_c, 0, 64, 32
1, 10107, Control_c, 0, 64, 31
1, 10132, Note_on_c, 0, 53, 56
1, 10136, Note_on_c, 0, 60, 53
1, 10143, Note_on_c, 0, 44, 46
1, 10183, Note_off_c, 0, 60, 56
1, 10222, Note_on_c, 0, 62, 45
1, 10254, Control_c, 0, 64, 32
1, 10269, Control_c, 0, 64, 32
1, 10273, Note_off_c, 0, 62, 43
1, 10314, Control_c, 0, 64, 33
1, 10317, Note_on_c, 0, 64, 44
1, 10343, Note_off_c, 0, 64, 57
1, 10347, Note_off_c, 0, 44, 50
1, 10359, Control_c, 0, 64, 34
1, 10418, Note_on_c, 0, 65, 41
1, 10421, Note_off_c, 0, 53, 50
1, 10445, Note_off_c, 0, 65, 52
1, 10499, Note_on_c, 0, 66, 53
1, 10508, Control_c, 0, 64, 33
1, 10522, Note_off_c, 0, 66, 66
1, 10523, Control_c, 0, 64, 25
1, 10544, Control_c, 0, 64, 0
1, 10591, Note_on_c, 0, 68, 61
1, 10598, Note_on_c, 0, 51, 73
1, 10609, Note_on_c, 0, 47, 65
1, 10615, Note_off_c, 0, 68, 64
1, 10633, Control_c, 0, 64, 20
1, 10648, Control_c, 0, 64, 56
1, 10663, Control_c, 0, 64, 62
1, 10678, Control_c, 0, 64, 64
1, 10688, Note_on_c, 0, 70, 62
1, 10692, Control_c, 0, 64, 66
1, 10707, Control_c, 0, 64, 68
1, 10722, Control_c, 0, 64, 71
1, 10732, Note_off_c, 0, 70, 64
1, 10737, Control_c, 0, 64, 74
1, 10752, Control_c, 0, 64, 76
1, 10767, Control_c, 0, 64, 77
1, 10782, Control_c, 0, 64, 79
1, 10792, Note_on_c, 0, 71, 54
1, 10796, Control_c, 0, 64, 80
1, 10830, Note_off_c, 0, 51, 62
1, 10840, Note_off_c, 0, 71, 57
1, 10841, Control_c, 0, 64, 79
1, 10856, Control_c, 0, 64, 75
1, 10870, Control_c, 0, 64, 68
1, 10871, Note_on_c, 0, 57, 80
1, 10877, Note_on_c, 0, 52, 74
1, 10877, Note_off_c, 0, 47, 37
1, 10882, Note_on_c, 0, 60, 62
1, 10885, Control_c, 0, 64, 55
1, 10900, Control_c, 0, 64, 30
1, 10915, Control_c, 0, 64, 46
1, 10930, Control_c, 0, 64, 60
1, 10944, Control_c, 0, 64, 65
1, 10959, Control_c, 0, 64, 69
1, 10974, Control_c, 0, 64, 73
1, 10977, Note_on_c, 0, 62, 64
1, 10979, Note_off_c, 0, 60, 57
1, 10988, Control_c, 0, 64, 75
1, 10998, Note_off_c, 0, 57, 56
1, 11003, Control_c, 0, 64, 77
1, 11018, Control_c, 0, 64, 78
1, 11033, Control_c, 0, 64, 79
1, 11048, Control_c, 0, 64, 80
1, 11062, Control_c, 0, 64, 81
1, 11077, Control_c, 0, 64, 82
1, 11080, Note_off_c, 0, 62, 56
1, 11083, Note_on_c, 0, 64, 61
1, 11113, Note_off_c, 0, 64, 65
1, 11122, Control_c, 0, 64, 81
1, 11135, Note_off_c, 0, 52, 65
1, 11137, Control_c, 0, 64, 78
1, 11147, Note_on_c, 0, 58, 86
1, 11152, Control_c, 0, 64, 74
1, 11154, Note_on_c, 0, 49, 78
1, 11160, Note_on_c, 0, 65, 76
1, 11167, Control_c, 0, 64, 68
1, 11182, Control_c, 0, 64, 62
1, 11197, Control_c, 0, 64, 51
1, 11212, Control_c, 0, 64, 51
1, 11214, Note_off_c, 0, 65, 56
1, 11227, Control_c, 0, 64, 52
1, 11241, Control_c, 0, 64, 52
1, 11259, Note_on_c, 0, 66, 63
1, 11271, Control_c, 0, 64, 51
1, 11273, Note_off_c, 0, 58, 62
1, 11293, Control_c, 0, 64, 50
1, 11308, Note_off_c, 0, 66, 65
1, 11308, Control_c, 0, 64, 48
1, 11320, Note_off_c, 0, 49, 62
1, 11323, Control_c, 0, 64, 45
1, 11338, Control_c, 0, 64, 39
1, 11342, Note_on_c, 0, 60, 84
1, 11348, Note_on_c, 0, 53, 72
1, 11348, Note_on_c, 0, 68, 76
1, 11353, Control_c, 0, 64, 33
1, 11367, Control_c, 0, 64, 25
1, 11382, Control_c, 0, 64, 0
1, 11386, Note_off_c, 0, 68, 63
1, 11439, Note_on_c, 0, 70, 65
1, 11471, Note_off_c, 0, 70, 66
1, 11545, Note_off_c, 0, 60, 57
1, 11558, Note_on_c, 0, 71, 48
1, 11581, Note_off_c, 0, 71, 59
1, 11599, Note_off_c, 0, 53, 65
1, 11621, Note_on_c, 0, 60, 81
1, 11676, Note_off_c, 0, 60, 57
1, 11706, Note_on_c, 0, 62, 64
1, 11802, Note_on_c, 0, 64, 62
1, 11804, Note_off_c, 0, 62, 34
1, 11834, Note_off_c, 0, 64, 65
1, 11879, Note_on_c, 0, 61, 79
1, 11885, Note_on_c, 0, 58, 70
1, 11886, Note_on_c, 0, 65, 70
1, 11928, Note_off_c, 0, 65, 60
1, 11988, Note_on_c, 0, 66, 56
1, 11995, Note_off_c, 0, 61, 61
1, 12037, Note_off_c, 0, 66, 67
1, 12064, Note_on_c, 0, 59, 75
1, 12070, Note_on_c, 0, 51, 64
1, 12075, Note_on_c, 0, 68, 68
1, 12080, Note_off_c, 0, 58, 49
1, 12109, Note_off_c, 0, 68, 61
1, 12175, Note_on_c, 0, 70, 60
1, 12212, Note_off_c, 0, 70, 64
1, 12272, Note_on_c, 0, 71, 49
1, 12298, Note_off_c, 0, 71, 56
1, 12330, Note_off_c, 0, 59, 58
1, 12332, Note_off_c, 0, 51, 56
1, 12351, Note_on_c, 0, 56, 61
1, 12353, Note_on_c, 0, 60, 60
1, 12372, Note_on_c, 0, 53, 40
1, 12398, Control_c, 0, 67, 9
1, 12407, Note_off_c, 0, 60, 47
1, 12412, Control_c, 0, 67, 12
1, 12427, Control_c, 0, 67, 16
1, 12442, Control_c, 0, 67, 21
1, 12445, Note_on_c, 0, 62, 47
1, 12457, Control_c, 0, 67, 27
1, 12472, Control_c, 0, 67, 34
1, 12487, Control_c, 0, 67, 40
1, 12502, Control_c, 0, 67, 45
1, 12510, Note_off_c, 0, 62, 37
1, 12516, Control_c, 0, 67, 49
1, 12531, Control_c, 0, 67, 51
1, 12536, Note_on_c, 0, 64, 52
1, 12546, Control_c, 0, 67, 54
1, 12561, Note_off_c, 0, 64, 61
1, 12561, Control_c, 0, 67, 57
1, 12576, Control_c, 0, 67, 60
1, 12590, Control_c, 0, 67, 64
1, 12604, Note_off_c, 0, 53, 44
1, 12604, Note_off_c, 0, 56, 59
1, 12605, Control_c, 0, 67, 68
1, 12620, Control_c, 0, 67, 71
1, 12621, Note_on_c, 0, 65, 60
1, 12627, Note_on_c, 0, 57, 46
1, 12628, Note_on_c, 0, 50, 44
1, 12634, Control_c, 0, 67, 73
1, 12649, Control_c, 0, 67, 74
1, 12657, Note_off_c, 0, 65, 64
1, 12664, Control_c, 0, 67, 75
1, 12681, Note_off_c, 0, 50, 56
1, 12694, Control_c, 0, 67, 76
1, 12708, Control_c, 0, 67, 76
1, 12710, Note_on_c, 0, 66, 55
1, 12745, Note_off_c, 0, 57, 61
1, 12752, Note_off_c, 0, 66, 66
1, 12791, Control_c, 0, 67, 77
1, 12794, Note_on_c, 0, 49, 54
1, 12800, Note_on_c, 0, 68, 66
1, 12803, Note_on_c, 0, 52, 55
1, 12806, Control_c, 0, 67, 77
1, 12833, Note_off_c, 0, 68, 63
1, 12880, Control_c, 0, 67, 78
1, 12899, Note_on_c, 0, 70, 55
1, 12929, Note_off_c, 0, 52, 0
1, 12931, Note_off_c, 0, 70, 66
1, 12954, Control_c, 0, 67, 78
1, 12967, Poly_aftertouch_c, 0, 52, 127
1, 12975, Note_off_c, 0, 49, 60
1, 12984, Control_c, 0, 67, 79
1, 12999, Control_c, 0, 67, 79
1, 13005, Note_on_c, 0, 71, 33
1, 13013, Control_c, 0, 67, 82
1, 13028, Control_c, 0, 67, 87
1, 13033, Note_off_c, 0, 71, 42
1, 13043, Control_c, 0, 67, 91
1, 13056, Poly_aftertouch_c, 0, 52, 0
1, 13057, Control_c, 0, 67, 96
1, 13072, Control_c, 0, 67, 100
1, 13080, Note_on_c, 0, 60, 59
1, 13086, Note_on_c, 0, 51, 40
1, 13087, Control_c, 0, 67, 103
1, 13093, Note_on_c, 0, 43, 42
1, 13102, Control_c, 0, 67, 106
1, 13117, Control_c, 0, 67, 110
1, 13126, Note_off_c, 0, 60, 55
1, 13131, Control_c, 0, 67, 113
1, 13146, Control_c, 0, 67, 116
1, 13161, Control_c, 0, 67, 119
1, 13176, Note_on_c, 0, 62, 48
1, 13176, Control_c, 0, 67, 121
1, 13190, Control_c, 0, 67, 122
1, 13205, Control_c, 0, 67, 123
1, 13220, Control_c, 0, 67, 123
1, 13235, Note_off_c, 0, 62, 39
1, 13265, Note_on_c, 0, 64, 52
1, 13289, Note_off_c, 0, 64, 62
1, 13295, Control_c, 0, 67, 124
1, 13330, Note_off_c, 0, 43, 45
1, 13339, Note_off_c, 0, 51, 54
1, 13350, Note_on_c, 0, 65, 56
1, 13369, Control_c, 0, 67, 124
1, 13381, Note_off_c, 0, 65, 62
1, 13413, Control_c, 0, 67, 125
1, 13438, Note_on_c, 0, 66, 52
1, 13473, Control_c, 0, 67, 125
1, 13482, Note_off_c, 0, 66, 59
1, 13503, Control_c, 0, 67, 127
1, 13518, Control_c, 0, 67, 127
1, 13518, Note_on_c, 0, 68, 62
1, 13563, Note_off_c, 0, 68, 60
1, 13614, Note_on_c, 0, 70, 60
1, 13641, Note_off_c, 0, 70, 66
1, 13703, Note_on_c, 0, 71, 62
1, 13733, Control_c, 0, 67, 127
1, 13747, Note_off_c, 0, 71, 61
1, 13748, Control_c, 0, 67, 125
1, 13763, Control_c, 0, 67, 123
1, 13778, Control_c, 0, 67, 120
1, 13789, Note_on_c, 0, 60, 51
1, 13793, Control_c, 0, 67, 118
1, 13807, Control_c, 0, 67, 114
1, 13822, Control_c, 0, 67, 108
1, 13837, Control_c, 0, 67, 99
1, 13847, Note_off_c, 0, 60, 58
1, 13852, Control_c, 0, 67, 89
1, 13867, Control_c, 0, 67, 75
1, 13876, Note_on_c, 0, 62, 53
1, 13881, Control_c, 0, 67, 61
1, 13896, Control_c, 0, 67, 46
1, 13911, Control_c, 0, 67, 31
1, 13926, Control_c, 0, 67, 16
1, 13933, Note_off_c, 0, 62, 55
1, 13941, Control_c, 0, 67, 0
1, 13957, Note_on_c, 0, 64, 52
1, 13994, Note_off_c, 0, 64, 65
1, 14042, Note_on_c, 0, 65, 56
1, 14117, Note_off_c, 0, 65, 60
1, 14121, Note_on_c, 0, 66, 63
1, 14216, Note_on_c, 0, 68, 66
1, 14217, Note_on_c, 0, 83, 91
1, 14219, Note_off_c, 0, 66, 61
1, 14231, Note_on_c, 0, 76, 71
1, 14252, Control_c, 0, 64, 56
1, 14267, Control_c, 0, 64, 63
1, 14288, Control_c, 0, 64, 66
1, 14303, Control_c, 0, 64, 69
1, 14308, Note_off_c, 0, 68, 53
1, 14318, Control_c, 0, 64, 73
1, 14333, Control_c, 0, 64, 76
1, 14335, Note_on_c, 0, 70, 63
1, 14345, Note_off_c, 0, 76, 53
1, 14348, Control_c, 0, 64, 78
1, 14364, Control_c, 0, 64, 79
1, 14393, Control_c, 0, 64, 80
1, 14402, Note_off_c, 0, 70, 59
1, 14423, Control_c, 0, 64, 80
1, 14457, Note_on_c, 0, 71, 47
1, 14511, Control_c, 0, 64, 78
1, 14517, Note_off_c, 0, 83, 59
1, 14526, Note_on_c, 0, 88, 88
1, 14526, Control_c, 0, 64, 73
1, 14534, Note_off_c, 0, 71, 61
1, 14541, Control_c, 0, 64, 63
1, 14544, Note_on_c, 0, 79, 70
1, 14556, Control_c, 0, 64, 18
1, 14565, Note_on_c, 0, 60, 60
1, 14571, Control_c, 0, 64, 0
1, 14654, Note_off_c, 0, 60, 51
1, 14693, Note_on_c, 0, 62, 42
1, 14750, Note_off_c, 0, 62, 53
1, 14764, Note_on_c, 0, 64, 52
1, 14803, Note_off_c, 0, 64, 65
1, 14817, Note_on_c, 0, 85, 73
1, 14821, Note_off_c, 0, 79, 63
1, 14831, Note_on_c, 0, 80, 58
1, 14831, Note_off_c, 0, 88, 57
1, 14848, Note_on_c, 0, 65, 52
1, 14911, Note_off_c, 0, 65, 46
1, 14949, Note_on_c, 0, 66, 40
1, 14958, Note_off_c, 0, 85, 61
1, 15003, Note_on_c, 0, 84, 62
1, 15011, Note_off_c, 0, 80, 61
1, 15014, Note_off_c, 0, 66, 46
1, 15019, Note_on_c, 0, 75, 46
1, 15045, Note_on_c, 0, 68, 45
1, 15098, Note_off_c, 0, 68, 53
1, 15137, Note_on_c, 0, 70, 46
1, 15164, Note_off_c, 0, 70, 59
1, 15215, Note_on_c, 0, 71, 46
1, 15246, Note_off_c, 0, 71, 53
1, 15304, Note_on_c, 0, 60, 60
1, 15310, Note_off_c, 0, 84, 58
1, 15375, Note_off_c, 0, 75, 60
1, 15394, Note_on_c, 0, 62, 59
1, 15394, Note_off_c, 0, 60, 52
1, 15462, Note_off_c, 0, 62, 52
1, 15486, Note_on_c, 0, 64, 56
1, 15533, Note_off_c, 0, 64, 61
1, 15568, Note_on_c, 0, 84, 84
1, 15575, Note_on_c, 0, 65, 60
1, 15579, Note_on_c, 0, 81, 68
1, 15645, Note_off_c, 0, 65, 53
1, 15660, Note_on_c, 0, 66, 59
1, 15747, Note_on_c, 0, 85, 79
1, 15755, Note_off_c, 0, 66, 53
1, 15761, Note_on_c, 0, 77, 65
1, 15763, Note_on_c, 0, 68, 61
1, 15763, Note_off_c, 0, 81, 63
1, 15787, Note_off_c, 0, 84, 63
1, 15829, Note_off_c, 0, 68, 56
1, 15866, Note_on_c, 0, 70, 59
1, 15903, Note_off_c, 0, 70, 62
1, 15954, Note_on_c, 0, 71, 54
1, 16038, Note_off_c, 0, 71, 55
1, 16066, Note_on_c, 0, 87, 69
1, 16075, Note_on_c, 0, 60, 46
1, 16086, Note_on_c, 0, 80, 48
1, 16087, Note_off_c, 0, 77, 54
1, 16124, Note_off_c, 0, 85, 60
1, 16162, Note_off_c, 0, 60, 54
1, 16183, Note_on_c, 0, 62, 40
1, 16237, Note_off_c, 0, 62, 43
1, 16273, Note_on_c, 0, 64, 40
1, 16304, Note_off_c, 0, 64, 58
1, 16320, Note_off_c, 0, 87, 60
1, 16353, Note_on_c, 0, 86, 62
1, 16360, Note_on_c, 0, 65, 43
1, 16384, Note_on_c, 0, 82, 44
1, 16426, Note_off_c, 0, 65, 37
1, 16460, Note_on_c, 0, 66, 51
1, 16507, Note_off_c, 0, 66, 50
1, 16559, Note_on_c, 0, 68, 55
1, 16562, Note_off_c, 0, 80, 22
1, 16604, Note_off_c, 0, 68, 56
1, 16609, Note_off_c, 0, 82, 64
1, 16609, Control_c, 0, 64, 33
1, 16624, Control_c, 0, 64, 55
1, 16639, Control_c, 0, 64, 62
1, 16644, Note_off_c, 0, 86, 65
1, 16649, Note_on_c, 0, 70, 62
1, 16654, Control_c, 0, 64, 66
1, 16669, Control_c, 0, 64, 68
1, 16683, Control_c, 0, 64, 71
1, 16688, Note_off_c, 0, 70, 59
1, 16698, Control_c, 0, 64, 73
1, 16713, Control_c, 0, 64, 74
1, 16728, Control_c, 0, 64, 74
1, 16735, Note_on_c, 0, 71, 62
1, 16774, Control_c, 0, 64, 74
1, 16788, Control_c, 0, 64, 72
1, 16803, Control_c, 0, 64, 69
1, 16818, Control_c, 0, 64, 63
1, 16823, Note_off_c, 0, 71, 57
1, 16832, Control_c, 0, 64, 44
1, 16836, Note_on_c, 0, 89, 92
1, 16846, Note_on_c, 0, 81, 81
1, 16847, Control_c, 0, 64, 0
1, 16851, Note_on_c, 0, 60, 60
1, 16906, Control_c, 0, 64, 40
1, 16921, Control_c, 0, 64, 60
1, 16936, Control_c, 0, 64, 64
1, 16940, Note_off_c, 0, 60, 51
1, 16943, Note_on_c, 0, 62, 54
1, 16951, Control_c, 0, 64, 67
1, 16964, Note_off_c, 0, 81, 60
1, 16966, Control_c, 0, 64, 69
1, 16980, Control_c, 0, 64, 71
1, 16995, Control_c, 0, 64, 74
1, 17010, Control_c, 0, 64, 76
1, 17025, Control_c, 0, 64, 77
1, 17027, Note_on_c, 0, 64, 65
1, 17039, Note_off_c, 0, 62, 51
1, 17039, Control_c, 0, 64, 78
1, 17054, Control_c, 0, 64, 79
1, 17069, Control_c, 0, 64, 80
1, 17084, Control_c, 0, 64, 81
1, 17091, Note_off_c, 0, 64, 62
1, 17124, Note_on_c, 0, 65, 71
1, 17128, Control_c, 0, 64, 78
1, 17133, Note_on_c, 0, 87, 94
1, 17135, Note_on_c, 0, 80, 97
1, 17143, Control_c, 0, 64, 72
1, 17147, Note_off_c, 0, 89, 66
1, 17158, Control_c, 0, 64, 63
1, 17173, Control_c, 0, 64, 0
1, 17203, Control_c, 0, 64, 31
1, 17218, Note_off_c, 0, 65, 64
1, 17218, Control_c, 0, 64, 59
1, 17218, Note_on_c, 0, 66, 70
1, 17232, Control_c, 0, 64, 64
1, 17242, Note_off_c, 0, 80, 62
1, 17247, Control_c, 0, 64, 65
1, 17283, Note_off_c, 0, 87, 62
1, 17284, Control_c, 0, 64, 64
1, 17299, Control_c, 0, 64, 63
1, 17309, Note_off_c, 0, 66, 60
1, 17313, Control_c, 0, 64, 57
1, 17317, Note_on_c, 0, 88, 91
1, 17320, Note_on_c, 0, 83, 79
1, 17322, Note_on_c, 0, 68, 70
1, 17328, Control_c, 0, 64, 46
1, 17343, Control_c, 0, 64, 32
1, 17357, Note_on_c, 0, 87, 22
1, 17358, Control_c, 0, 64, 0
1, 17397, Note_off_c, 0, 87, 30
1, 17402, Control_c, 0, 64, 37
1, 17413, Note_off_c, 0, 68, 57
1, 17417, Control_c, 0, 64, 58
1, 17432, Control_c, 0, 64, 64
1, 17438, Note_on_c, 0, 70, 60
1, 17447, Control_c, 0, 64, 66
1, 17462, Control_c, 0, 64, 69
1, 17477, Control_c, 0, 64, 70
1, 17489, Note_off_c, 0, 70, 57
1, 17492, Control_c, 0, 64, 72
1, 17506, Control_c, 0, 64, 72
1, 17534, Note_on_c, 0, 71, 55
1, 17543, Note_off_c, 0, 83, 61
1, 17581, Control_c, 0, 64, 71
1, 17596, Control_c, 0, 64, 69
1, 17608, Note_off_c, 0, 71, 58
1, 17611, Control_c, 0, 64, 63
1, 17624, Note_on_c, 0, 91, 88
1, 17626, Control_c, 0, 64, 53
1, 17629, Note_on_c, 0, 87, 81
1, 17632, Note_on_c, 0, 82, 79
1, 17641, Control_c, 0, 64, 38
1, 17646, Note_on_c, 0, 60, 60
1, 17655, Control_c, 0, 64, 23
1, 17662, Note_off_c, 0, 88, 60
1, 17670, Control_c, 0, 64, 10
1, 17685, Control_c, 0, 64, 0
1, 17710, Note_off_c, 0, 60, 52
1, 17736, Note_on_c, 0, 62, 50
1, 17758, Note_off_c, 0, 82, 57
1, 17808, Note_off_c, 0, 62, 55
1, 17834, Note_on_c, 0, 64, 48
1, 17847, Control_c, 0, 64, 10
1, 17868, Note_off_c, 0, 64, 63
1, 17877, Control_c, 0, 64, 13
1, 17905, Note_off_c, 0, 91, 58
1, 17914, Note_on_c, 0, 85, 62
1, 17915, Note_on_c, 0, 80, 55
1, 17917, Note_on_c, 0, 65, 45
1, 17972, Note_off_c, 0, 65, 45
1, 17981, Control_c, 0, 64, 15
1, 17996, Control_c, 0, 64, 17
1, 18001, Note_on_c, 0, 66, 55
1, 18011, Control_c, 0, 64, 18
1, 18033, Control_c, 0, 64, 20
1, 18034, Note_off_c, 0, 66, 63
1, 18048, Note_off_c, 0, 87, 36
1, 18048, Control_c, 0, 64, 21
1, 18080, Note_off_c, 0, 85, 63
1, 18092, Note_on_c, 0, 68, 67
1, 18107, Control_c, 0, 64, 18
1, 18122, Control_c, 0, 64, 17
1, 18125, Note_off_c, 0, 68, 63
1, 18136, Control_c, 0, 64, 13
1, 18151, Control_c, 0, 64, 0
1, 18158, Note_off_c, 0, 80, 64
1, 18198, Note_on_c, 0, 70, 56
1, 18234, Note_off_c, 0, 70, 63
1, 18294, Note_on_c, 0, 71, 46
1, 18330, Note_off_c, 0, 71, 54
1, 18377, Note_on_c, 0, 81, 67
1, 18382, Note_on_c, 0, 77, 59
1, 18398, Note_on_c, 0, 60, 52
1, 18419, Control_c, 0, 64, 52
1, 18434, Control_c, 0, 64, 62
1, 18449, Control_c, 0, 64, 65
1, 18464, Note_off_c, 0, 60, 53
1, 18464, Control_c, 0, 64, 69
1, 18478, Control_c, 0, 64, 73
1, 18490, Note_on_c, 0, 62, 47
1, 18493, Control_c, 0, 64, 76
1, 18508, Control_c, 0, 64, 78
1, 18523, Control_c, 0, 64, 79
1, 18535, Note_off_c, 0, 81, 56
1, 18538, Control_c, 0, 64, 79
1, 18549, Note_off_c, 0, 62, 57
1, 18567, Control_c, 0, 64, 80
1, 18574, Note_on_c, 0, 64, 56
1, 18596, Control_c, 0, 64, 81
1, 18611, Control_c, 0, 64, 82
1, 18614, Note_off_c, 0, 64, 61
1, 18626, Control_c, 0, 64, 82
1, 18659, Note_on_c, 0, 86, 76
1, 18660, Note_on_c, 0, 65, 64
1, 18662, Note_off_c, 0, 77, 58
1, 18663, Note_on_c, 0, 82, 77
1, 18670, Control_c, 0, 64, 80
1, 18685, Control_c, 0, 64, 75
1, 18700, Control_c, 0, 64, 67
1, 18714, Control_c, 0, 64, 61
1, 18729, Control_c, 0, 64, 62
1, 18738, Note_off_c, 0, 65, 55
1, 18742, Note_on_c, 0, 66, 72
1, 18743, Note_off_c, 0, 86, 62
1, 18744, Control_c, 0, 64, 66
1, 18759, Control_c, 0, 64, 71
1, 18781, Control_c, 0, 64, 77
1, 18796, Control_c, 0, 64, 82
1, 18807, Note_off_c, 0, 82, 63
1, 18809, Note_off_c, 0, 66, 60
1, 18810, Control_c, 0, 64, 83
1, 18840, Note_on_c, 0, 87, 90
1, 18840, Control_c, 0, 64, 82
1, 18844, Note_on_c, 0, 78, 90
1, 18845, Note_on_c, 0, 68, 70
1, 18850, Note_on_c, 0, 84, 77
1, 18855, Control_c, 0, 64, 78
1, 18870, Control_c, 0, 64, 71
1, 18884, Control_c, 0, 64, 61
1, 18899, Control_c, 0, 64, 51
1, 18914, Control_c, 0, 64, 61
1, 18923, Note_off_c, 0, 68, 55
1, 18929, Control_c, 0, 64, 67
1, 18944, Control_c, 0, 64, 73
1, 18959, Control_c, 0, 64, 79
1, 18961, Note_on_c, 0, 70, 65
1, 18973, Control_c, 0, 64, 82
1, 18988, Control_c, 0, 64, 84
1, 19002, Note_off_c, 0, 70, 56
1, 19003, Control_c, 0, 64, 85
1, 19014, Note_off_c, 0, 78, 62
1, 19018, Control_c, 0, 64, 87
1, 19033, Control_c, 0, 64, 90
1, 19042, Note_off_c, 0, 87, 59
1, 19048, Control_c, 0, 64, 94
1, 19063, Control_c, 0, 64, 96
1, 19077, Note_on_c, 0, 71, 48
1, 19078, Note_off_c, 0, 84, 60
1, 19092, Control_c, 0, 64, 95
1, 19107, Control_c, 0, 64, 92
1, 19115, Note_off_c, 0, 71, 63
1, 19122, Control_c, 0, 64, 84
1, 19128, Note_on_c, 0, 88, 92
1, 19134, Note_on_c, 0, 81, 85
1, 19136, Control_c, 0, 64, 73
1, 19137, Note_on_c, 0, 79, 86
1, 19152, Control_c, 0, 64, 64
1, 19153, Note_on_c, 0, 60, 66
1, 19167, Control_c, 0, 64, 63
1, 19182, Control_c, 0, 64, 67
1, 19197, Control_c, 0, 64, 73
1, 19212, Control_c, 0, 64, 78
1, 19226, Control_c, 0, 64, 80
1, 19236, Note_off_c, 0, 60, 54
1, 19241, Note_on_c, 0, 62, 61
1, 19241, Control_c, 0, 64, 81
1, 19259, Note_off_c, 0, 81, 59
1, 19260, Note_off_c, 0, 79, 57
1, 19286, Control_c, 0, 64, 81
1, 19300, Control_c, 0, 64, 83
1, 19315, Control_c, 0, 64, 85
1, 19324, Note_on_c, 0, 64, 62
1, 19327, Note_off_c, 0, 62, 52
1, 19330, Control_c, 0, 64, 88
1, 19345, Control_c, 0, 64, 91
1, 19360, Control_c, 0, 64, 92
1, 19376, Note_off_c, 0, 64, 60
1, 19403, Note_on_c, 0, 86, 93
1, 19404, Control_c, 0, 64, 89
1, 19412, Note_on_c, 0, 80, 89
1, 19413, Note_on_c, 0, 82, 88
1, 19417, Note_on_c, 0, 65, 69
1, 19418, Control_c, 0, 64, 78
1, 19428, Note_off_c, 0, 88, 60
1, 19433, Control_c, 0, 64, 64
1, 19448, Control_c, 0, 64, 0
1, 19475, Note_off_c, 0, 65, 55
1, 19477, Control_c, 0, 64, 47
1, 19488, Note_off_c, 0, 80, 60
1, 19492, Control_c, 0, 64, 66
1, 19496, Note_off_c, 0, 86, 63
1, 19497, Note_on_c, 0, 66, 66
1, 19507, Control_c, 0, 64, 75
1, 19509, Note_off_c, 0, 82, 62
1, 19529, Control_c, 0, 64, 81
1, 19559, Control_c, 0, 64, 79
1, 19562, Note_off_c, 0, 66, 55
1, 19573, Control_c, 0, 64, 73
1, 19587, Note_on_c, 0, 90, 93
1, 19588, Control_c, 0, 64, 58
1, 19594, Note_on_c, 0, 68, 67
1, 19595, Note_on_c, 0, 78, 87
1, 19597, Note_on_c, 0, 87, 80
1, 19599, Note_on_c, 0, 83, 71
1, 19603, Control_c, 0, 64, 0
1, 19647, Control_c, 0, 64, 13
1, 19656, Note_off_c, 0, 68, 57
1, 19662, Control_c, 0, 64, 63
1, 19677, Control_c, 0, 64, 68
1, 19692, Control_c, 0, 64, 70
1, 19704, Note_on_c, 0, 70, 57
1, 19707, Control_c, 0, 64, 70
1, 19745, Note_off_c, 0, 70, 60
1, 19781, Control_c, 0, 64, 70
1, 19788, Note_off_c, 0, 78, 57
1, 19799, Note_on_c, 0, 71, 49
1, 19811, Control_c, 0, 64, 69
1, 19825, Control_c, 0, 64, 68
1, 19827, Note_off_c, 0, 90, 60
1, 19840, Control_c, 0, 64, 65
1, 19855, Control_c, 0, 64, 59
1, 19859, Note_off_c, 0, 83, 54
1, 19865, Note_off_c, 0, 87, 60
1, 19870, Note_off_c, 0, 71, 58
1, 19870, Control_c, 0, 64, 37
1, 19885, Control_c, 0, 64, 0
1, 19900, Note_on_c, 0, 89, 74
1, 19909, Note_on_c, 0, 81, 68
1, 19909, Note_on_c, 0, 86, 62
1, 19916, Note_on_c, 0, 60, 46
1, 19945, Control_c, 0, 67, 11
1, 19960, Control_c, 0, 67, 14
1, 19969, Note_off_c, 0, 60, 56
1, 19975, Control_c, 0, 67, 18
1, 19990, Control_c, 0, 67, 23
1, 19998, Note_on_c, 0, 62, 41
1, 20004, Control_c, 0, 67, 30
1, 20019, Control_c, 0, 67, 38
1, 20034, Control_c, 0, 67, 49
1, 20048, Control_c, 0, 67, 58
1, 20052, Note_off_c, 0, 62, 45
1, 20063, Control_c, 0, 67, 66
1, 20070, Note_on_c, 0, 64, 46
1, 20078, Control_c, 0, 67, 73
1, 20093, Control_c, 0, 67, 79
1, 20108, Control_c, 0, 67, 85
1, 20114, Note_off_c, 0, 64, 61
1, 20122, Control_c, 0, 67, 92
1, 20137, Control_c, 0, 67, 102
1, 20152, Control_c, 0, 67, 110
1, 20157, Note_on_c, 0, 65, 48
1, 20166, Control_c, 0, 67, 117
1, 20181, Control_c, 0, 67, 122
1, 20196, Control_c, 0, 67, 126
1, 20212, Control_c, 0, 67, 127
1, 20224, Note_off_c, 0, 65, 41
1, 20233, Note_off_c, 0, 89, 63
1, 20248, Note_on_c, 0, 66, 45
1, 20282, Note_off_c, 0, 66, 57
1, 20298, Note_off_c, 0, 81, 55
1, 20300, Note_off_c, 0, 86, 43
1, 20338, Note_on_c, 0, 68, 54
1, 20379, Note_off_c, 0, 68, 56
1, 20435, Note_on_c, 0, 70, 54
1, 20474, Note_off_c, 0, 70, 62
1, 20538, Note_on_c, 0, 71, 39
1, 20565, Note_off_c, 0, 71, 50
1, 20623, Note_on_c, 0, 72, 58
1, 20667, Note_off_c, 0, 72, 61
1, 20715, Note_on_c, 0, 74, 45
1, 20773, Note_off_c, 0, 74, 48
1, 20798, Control_c, 0, 67, 127
1, 20798, Note_on_c, 0, 76, 48
1, 20813, Control_c, 0, 67, 124
1, 20819, Note_off_c, 0, 76, 59
1, 20828, Control_c, 0, 67, 121
1, 20842, Control_c, 0, 67, 113
1, 20857, Control_c, 0, 67, 103
1, 20872, Control_c, 0, 67, 93
1, 20884, Note_on_c, 0, 77, 52
1, 20887, Control_c, 0, 67, 86
1, 20902, Control_c, 0, 67, 82
1, 20907, Note_off_c, 0, 77, 57
1, 20917, Control_c, 0, 67, 80
1, 20932, Control_c, 0, 67, 77
1, 20946, Control_c, 0, 67, 74
1, 20959, Note_on_c, 0, 78, 61
1, 20960, Control_c, 0, 67, 70
1, 20975, Control_c, 0, 67, 65
1, 20986, Note_off_c, 0, 78, 68
1, 20989, Control_c, 0, 67, 59
1, 21004, Control_c, 0, 67, 52
1, 21027, Control_c, 0, 67, 43
1, 21042, Control_c, 0, 67, 32
1, 21051, Note_on_c, 0, 80, 71
1, 21057, Control_c, 0, 67, 23
1, 21071, Control_c, 0, 67, 14
1, 21081, Note_off_c, 0, 80, 65
1, 21086, Control_c, 0, 67, 0
1, 21152, Note_on_c, 0, 82, 62
1, 21177, Note_off_c, 0, 82, 66
1, 21239, Note_on_c, 0, 83, 56
1, 21278, Note_off_c, 0, 83, 59
1, 21327, Note_on_c, 0, 72, 68
1, 21333, Note_on_c, 0, 64, 86
1, 21343, Note_on_c, 0, 57, 68
1, 21427, Control_c, 0, 64, 13
1, 21428, Note_off_c, 0, 72, 58
1, 21431, Note_on_c, 0, 74, 58
1, 21442, Control_c, 0, 64, 38
1, 21457, Control_c, 0, 64, 46
1, 21471, Control_c, 0, 64, 51
1, 21486, Control_c, 0, 64, 53
1, 21501, Control_c, 0, 64, 54
1, 21530, Control_c, 0, 64, 53
1, 21536, Note_on_c, 0, 76, 57
1, 21536, Note_off_c, 0, 74, 35
1, 21546, Control_c, 0, 64, 48
1, 21561, Control_c, 0, 64, 35
1, 21565, Note_off_c, 0, 76, 63
1, 21576, Control_c, 0, 64, 0
1, 21612, Note_on_c, 0, 61, 70
1, 21614, Note_off_c, 0, 64, 62
1, 21616, Note_on_c, 0, 58, 67
1, 21625, Note_on_c, 0, 77, 66
1, 21670, Note_off_c, 0, 77, 57
1, 21722, Note_on_c, 0, 78, 58
1, 21735, Note_off_c, 0, 57, 27
1, 21773, Note_off_c, 0, 78, 56
1, 21779, Note_off_c, 0, 58, 58
1, 21784, Note_off_c, 0, 61, 61
1, 21805, Note_on_c, 0, 65, 83
1, 21817, Note_on_c, 0, 80, 63
1, 21819, Note_on_c, 0, 60, 58
1, 21850, Note_off_c, 0, 80, 64
1, 21906, Note_on_c, 0, 82, 69
1, 21954, Note_off_c, 0, 82, 64
1, 22008, Note_off_c, 0, 65, 63
1, 22011, Note_on_c, 0, 83, 58
1, 22050, Note_off_c, 0, 83, 60
1, 22080, Note_off_c, 0, 60, 59
1, 22089, Note_on_c, 0, 67, 74
1, 22094, Note_on_c, 0, 72, 63
1, 22097, Note_on_c, 0, 63, 57
1, 22166, Note_off_c, 0, 72, 47
1, 22182, Note_on_c, 0, 74, 56
1, 22264, Control_c, 0, 64, 43
1, 22274, Note_off_c, 0, 74, 51
1, 22276, Note_on_c, 0, 76, 62
1, 22279, Control_c, 0, 64, 58
1, 22294, Control_c, 0, 64, 63
1, 22306, Note_off_c, 0, 76, 67
1, 22309, Control_c, 0, 64, 65
1, 22324, Control_c, 0, 64, 68
1, 22339, Control_c, 0, 64, 70
1, 22352, Note_off_c, 0, 63, 62
1, 22354, Control_c, 0, 64, 73
1, 22363, Note_on_c, 0, 77, 67
1, 22369, Control_c, 0, 64, 75
1, 22373, Note_off_c, 0, 67, 62
1, 22384, Control_c, 0, 64, 76
1, 22402, Note_off_c, 0, 77, 56
1, 22458, Control_c, 0, 64, 75
1, 22459, Note_on_c, 0, 78, 57
1, 22473, Control_c, 0, 64, 72
1, 22488, Control_c, 0, 64, 67
1, 22497, Note_off_c, 0, 78, 48
1, 22503, Control_c, 0, 64, 59
1, 22524, Control_c, 0, 64, 0
1, 22538, Note_on_c, 0, 72, 89
1, 22547, Note_on_c, 0, 65, 74
1, 22553, Note_on_c, 0, 80, 56
1, 22574, Note_off_c, 0, 80, 60
1, 22639, Note_on_c, 0, 82, 66
1, 22698, Note_off_c, 0, 82, 62
1, 22734, Note_on_c, 0, 83, 60
1, 22743, Note_off_c, 0, 72, 62
1, 22786, Note_off_c, 0, 83, 49
1, 22789, Note_off_c, 0, 65, 48
1, 22806, Note_on_c, 0, 69, 70
1, 22808, Note_on_c, 0, 64, 62
1, 22815, Note_on_c, 0, 72, 74
1, 22890, Note_off_c, 0, 72, 55
1, 22909, Note_on_c, 0, 74, 62
1, 22998, Note_off_c, 0, 74, 56
1, 23000, Note_on_c, 0, 76, 59
1, 23024, Note_off_c, 0, 76, 64
1, 23034, Note_off_c, 0, 64, 56
1, 23041, Note_off_c, 0, 69, 61
1, 23077, Note_on_c, 0, 60, 57
1, 23078, Note_on_c, 0, 68, 61
1, 23080, Note_on_c, 0, 77, 66
1, 23119, Note_off_c, 0, 77, 56
1, 23176, Note_on_c, 0, 78, 58
1, 23208, Note_off_c, 0, 78, 63
1, 23219, Note_off_c, 0, 60, 54
1, 23258, Note_on_c, 0, 71, 66
1, 23269, Note_on_c, 0, 80, 64
1, 23272, Note_off_c, 0, 68, 34
1, 23274, Note_on_c, 0, 63, 54
1, 23290, Note_off_c, 0, 80, 64
1, 23370, Note_on_c, 0, 82, 59
1, 23394, Note_off_c, 0, 82, 66
1, 23454, Note_off_c, 0, 71, 52
1, 23466, Note_on_c, 0, 83, 44
1, 23476, Note_off_c, 0, 63, 61
1, 23489, Note_off_c, 0, 83, 54
1, 23536, Note_on_c, 0, 72, 70
1, 23575, Note_off_c, 0, 72, 57
1, 23625, Note_on_c, 0, 74, 56
1, 23669, Note_off_c, 0, 74, 55
1, 23718, Note_on_c, 0, 76, 53
1, 23737, Note_off_c, 0, 76, 64
1, 23792, Note_on_c, 0, 77, 72
1, 23797, Note_on_c, 0, 74, 79
1, 23804, Note_on_c, 0, 69, 65
1, 23834, Note_off_c, 0, 77, 56
1, 23837, Control_c, 0, 64, 43
1, 23852, Control_c, 0, 64, 54
1, 23866, Control_c, 0, 64, 57
1, 23881, Control_c, 0, 64, 58
1, 23890, Note_on_c, 0, 78, 58
1, 23911, Control_c, 0, 64, 55
1, 23925, Control_c, 0, 64, 40
1, 23927, Note_off_c, 0, 78, 63
1, 23940, Note_off_c, 0, 74, 62
1, 23942, Control_c, 0, 64, 0
1, 23978, Note_on_c, 0, 71, 75
1, 23981, Note_on_c, 0, 80, 61
1, 23985, Note_off_c, 0, 69, 63
1, 23988, Note_on_c, 0, 65, 65
1, 24024, Note_off_c, 0, 80, 64
1, 24038, Control_c, 0, 64, 28
1, 24053, Control_c, 0, 64, 60
1, 24068, Control_c, 0, 64, 64
1, 24068, Control_c, 0, 67, 8
1, 24083, Control_c, 0, 64, 65
1, 24083, Control_c, 0, 67, 12
1, 24087, Note_on_c, 0, 82, 60
1, 24097, Control_c, 0, 64, 68
1, 24097, Control_c, 0, 67, 14
1, 24111, Note_off_c, 0, 82, 66
1, 24112, Control_c, 0, 64, 71
1, 24112, Control_c, 0, 67, 16
1, 24127, Control_c, 0, 64, 75
1, 24127, Control_c, 0, 67, 17
1, 24142, Control_c, 0, 64, 78
1, 24157, Note_off_c, 0, 71, 59
1, 24157, Control_c, 0, 64, 79
1, 24157, Control_c, 0, 67, 18
1, 24166, Note_off_c, 0, 65, 62
1, 24179, Note_on_c, 0, 83, 59
1, 24201, Control_c, 0, 64, 79
1, 24215, Control_c, 0, 64, 77
1, 24215, Control_c, 0, 67, 18
1, 24219, Note_off_c, 0, 83, 57
1, 24230, Control_c, 0, 64, 72
1, 24245, Control_c, 0, 64, 62
1, 24260, Control_c, 0, 64, 0
1, 24265, Note_on_c, 0, 72, 64
1, 24267, Note_on_c, 0, 69, 83
1, 24275, Control_c, 0, 67, 19
1, 24296, Note_on_c, 0, 63, 51
1, 24304, Control_c, 0, 67, 19
1, 24319, Control_c, 0, 64, 55
1, 24319, Control_c, 0, 67, 20
1, 24334, Control_c, 0, 64, 64
1, 24334, Control_c, 0, 67, 22
1, 24348, Control_c, 0, 64, 66
1, 24348, Control_c, 0, 67, 23
1, 24357, Note_on_c, 0, 74, 56
1, 24357, Note_off_c, 0, 72, 60
1, 24363, Control_c, 0, 64, 67
1, 24363, Control_c, 0, 67, 25
1, 24378, Control_c, 0, 64, 68
1, 24378, Control_c, 0, 67, 26
1, 24393, Control_c, 0, 64, 71
1, 24393, Control_c, 0, 67, 26
1, 24408, Note_off_c, 0, 69, 63
1, 24408, Control_c, 0, 64, 72
1, 24423, Control_c, 0, 64, 74
1, 24458, Note_on_c, 0, 76, 61
1, 24467, Control_c, 0, 64, 73
1, 24467, Control_c, 0, 67, 27
1, 24482, Control_c, 0, 64, 71
1, 24482, Control_c, 0, 67, 27
1, 24483, Note_off_c, 0, 76, 62
1, 24497, Control_c, 0, 64, 65
1, 24497, Control_c, 0, 67, 29
1, 24497, Note_off_c, 0, 74, 35
1, 24512, Control_c, 0, 64, 44
1, 24512, Control_c, 0, 67, 32
1, 24527, Control_c, 0, 64, 0
1, 24527, Control_c, 0, 67, 33
1, 24537, Note_on_c, 0, 77, 72
1, 24540, Note_off_c, 0, 63, 52
1, 24541, Note_on_c, 0, 70, 73
1, 24541, Control_c, 0, 67, 34
1, 24556, Control_c, 0, 67, 36
1, 24557, Note_on_c, 0, 61, 60
1, 24571, Control_c, 0, 67, 37
1, 24583, Note_off_c, 0, 77, 56
1, 24586, Control_c, 0, 67, 39
1, 24601, Control_c, 0, 67, 41
1, 24629, Note_on_c, 0, 78, 60
1, 24630, Control_c, 0, 67, 41
1, 24637, Note_off_c, 0, 61, 62
1, 24645, Control_c, 0, 67, 41
1, 24660, Control_c, 0, 67, 40
1, 24675, Control_c, 0, 67, 40
1, 24689, Control_c, 0, 67, 39
1, 24704, Control_c, 0, 67, 39
1, 24706, Note_off_c, 0, 70, 59
1, 24709, Note_on_c, 0, 65, 69
1, 24715, Note_on_c, 0, 59, 61
1, 24715, Note_on_c, 0, 80, 67
1, 24719, Control_c, 0, 67, 38
1, 24735, Control_c, 0, 67, 38
1, 24741, Note_off_c, 0, 78, 29
1, 24750, Control_c, 0, 67, 37
1, 24768, Note_off_c, 0, 80, 57
1, 24787, Control_c, 0, 67, 36
1, 24801, Control_c, 0, 67, 35
1, 24816, Note_on_c, 0, 82, 66
1, 24816, Control_c, 0, 67, 35
1, 24831, Control_c, 0, 67, 34
1, 24846, Control_c, 0, 67, 34
1, 24861, Control_c, 0, 67, 33
1, 24874, Note_off_c, 0, 82, 64
1, 24879, Note_off_c, 0, 65, 64
1, 24891, Control_c, 0, 67, 33
1, 24916, Note_on_c, 0, 83, 60
1, 24920, Control_c, 0, 67, 32
1, 24935, Control_c, 0, 67, 32
1, 24964, Control_c, 0, 67, 31
1, 24966, Note_off_c, 0, 83, 58
1, 24974, Note_off_c, 0, 59, 57
1, 24979, Control_c, 0, 67, 31
1, 24992, Note_on_c, 0, 63, 69
1, 25001, Note_on_c, 0, 55, 56
1, 25003, Note_on_c, 0, 72, 62
1, 25024, Control_c, 0, 67, 30
1, 25038, Control_c, 0, 67, 30
1, 25053, Control_c, 0, 67, 29
1, 25059, Note_off_c, 0, 72, 49
1, 25068, Control_c, 0, 67, 28
1, 25083, Control_c, 0, 67, 27
1, 25090, Note_on_c, 0, 74, 60
1, 25098, Control_c, 0, 67, 25
1, 25112, Control_c, 0, 67, 25
1, 25142, Control_c, 0, 64, 36
1, 25157, Control_c, 0, 64, 58
1, 25157, Control_c, 0, 67, 25
1, 25170, Note_off_c, 0, 74, 40
1, 25171, Control_c, 0, 64, 62
1, 25183, Note_on_c, 0, 76, 59
1, 25186, Control_c, 0, 64, 64
1, 25201, Control_c, 0, 64, 66
1, 25206, Note_off_c, 0, 55, 60
1, 25209, Note_off_c, 0, 76, 64
1, 25216, Control_c, 0, 64, 69
1, 25216, Control_c, 0, 67, 26
1, 25231, Control_c, 0, 64, 71
1, 25237, Note_off_c, 0, 63, 65
1, 25245, Control_c, 0, 64, 74
1, 25245, Control_c, 0, 67, 26
1, 25260, Control_c, 0, 64, 76
1, 25265, Note_on_c, 0, 77, 67
1, 25275, Control_c, 0, 64, 77
1, 25275, Control_c, 0, 67, 27
1, 25290, Control_c, 0, 64, 78
1, 25298, Note_off_c, 0, 77, 54
1, 25305, Control_c, 0, 64, 80
1, 25305, Control_c, 0, 67, 27
1, 25320, Control_c, 0, 64, 81
1, 25335, Control_c, 0, 64, 81
1, 25335, Control_c, 0, 67, 27
1, 25359, Note_on_c, 0, 78, 57
1, 25379, Control_c, 0, 64, 81
1, 25394, Control_c, 0, 64, 77
1, 25405, Note_off_c, 0, 78, 46
1, 25409, Control_c, 0, 64, 70
1, 25424, Control_c, 0, 64, 50
1, 25424, Note_on_c, 0, 71, 88
1, 25434, Note_on_c, 0, 63, 79
1, 25439, Control_c, 0, 64, 0
1, 25439, Note_on_c, 0, 80, 63
1, 25472, Note_off_c, 0, 80, 65
1, 25483, Control_c, 0, 64, 54
1, 25498, Control_c, 0, 64, 63
1, 25519, Control_c, 0, 64, 66
1, 25519, Control_c, 0, 67, 27
1, 25531, Note_on_c, 0, 82, 69
1, 25534, Control_c, 0, 64, 67
1, 25550, Control_c, 0, 64, 68
1, 25550, Control_c, 0, 67, 28
1, 25564, Note_off_c, 0, 82, 66
1, 25565, Control_c, 0, 64, 70
1, 25580, Control_c, 0, 64, 71
1, 25594, Control_c, 0, 64, 73
1, 25594, Control_c, 0, 67, 27
1, 25609, Control_c, 0, 64, 74
1, 25624, Control_c, 0, 64, 76
1, 25624, Control_c, 0, 67, 28
1, 25632, Note_on_c, 0, 83, 61
1, 25639, Control_c, 0, 64, 76
1, 25674, Note_off_c, 0, 83, 56
1, 25677, Note_off_c, 0, 63, 61
1, 25683, Control_c, 0, 64, 75
1, 25697, Note_off_c, 0, 71, 50
1, 25698, Control_c, 0, 64, 71
1, 25712, Note_on_c, 0, 72, 71
1, 25713, Control_c, 0, 64, 62
1, 25717, Note_on_c, 0, 68, 83
1, 25723, Note_on_c, 0, 65, 72
1, 25728, Control_c, 0, 64, 0
1, 25743, Control_c, 0, 67, 27
1, 25787, Control_c, 0, 64, 53
1, 25787, Control_c, 0, 67, 28
1, 25791, Note_off_c, 0, 72, 63
1, 25797, Note_on_c, 0, 74, 60
1, 25802, Control_c, 0, 64, 64
1, 25817, Control_c, 0, 64, 66
1, 25832, Control_c, 0, 64, 68
1, 25847, Control_c, 0, 64, 71
1, 25861, Control_c, 0, 64, 76
1, 25876, Control_c, 0, 64, 79
1, 25891, Control_c, 0, 64, 81
1, 25897, Note_on_c, 0, 76, 67
1, 25906, Control_c, 0, 64, 81
1, 25919, Note_off_c, 0, 74, 28
1, 25921, Control_c, 0, 67, 28
1, 25931, Note_off_c, 0, 76, 64
1, 25950, Control_c, 0, 64, 80
1, 25965, Control_c, 0, 64, 75
1, 25980, Control_c, 0, 64, 65
1, 25985, Note_on_c, 0, 77, 77
1, 25991, Note_on_c, 0, 69, 82
1, 25994, Control_c, 0, 64, 0
1, 25998, Note_off_c, 0, 65, 61
1, 26001, Note_on_c, 0, 62, 66
1, 26022, Note_off_c, 0, 68, 55
1, 26039, Control_c, 0, 64, 59
1, 26054, Control_c, 0, 64, 66
1, 26068, Control_c, 0, 64, 71
1, 26068, Control_c, 0, 67, 29
1, 26077, Note_off_c, 0, 77, 36
1, 26078, Note_off_c, 0, 62, 59
1, 26079, Note_on_c, 0, 78, 64
1, 26083, Control_c, 0, 64, 75
1, 26098, Control_c, 0, 64, 79
1, 26098, Control_c, 0, 67, 28
1, 26113, Note_off_c, 0, 69, 64
1, 26113, Control_c, 0, 64, 79
1, 26128, Control_c, 0, 67, 28
1, 26139, Note_off_c, 0, 78, 45
1, 26142, Control_c, 0, 64, 77
1, 26157, Control_c, 0, 64, 69
1, 26157, Control_c, 0, 67, 27
1, 26159, Note_on_c, 0, 64, 79
1, 26160, Note_on_c, 0, 80, 74
1, 26168, Note_on_c, 0, 61, 70
1, 26172, Control_c, 0, 64, 44
1, 26187, Control_c, 0, 64, 0
1, 26202, Note_off_c, 0, 80, 59
1, 26217, Control_c, 0, 64, 60
1, 26232, Control_c, 0, 64, 67
1, 26247, Control_c, 0, 64, 71
1, 26250, Note_on_c, 0, 82, 70
1, 26269, Control_c, 0, 64, 75
1, 26284, Control_c, 0, 64, 77
1, 26284, Control_c, 0, 67, 27
1, 26299, Control_c, 0, 64, 77
1, 26311, Note_off_c, 0, 82, 63
1, 26314, Control_c, 0, 64, 78
1, 26315, Note_off_c, 0, 64, 58
1, 26328, Control_c, 0, 64, 78
1, 26328, Control_c, 0, 67, 27
1, 26364, Note_on_c, 0, 83, 59
1, 26396, Note_off_c, 0, 61, 61
1, 26402, Note_off_c, 0, 83, 60
1, 26404, Control_c, 0, 64, 75
1, 26404, Control_c, 0, 67, 27
1, 26418, Control_c, 0, 64, 66
1, 26433, Control_c, 0, 64, 0
1, 26445, Note_on_c, 0, 63, 78
1, 26448, Control_c, 0, 67, 27
1, 26453, Note_on_c, 0, 57, 70
1, 26453, Note_on_c, 0, 72, 67
1, 26507, Control_c, 0, 64, 34
1, 26522, Control_c, 0, 64, 59
1, 26522, Control_c, 0, 67, 28
1, 26534, Note_off_c, 0, 72, 59
1, 26537, Control_c, 0, 64, 63
1, 26547, Note_on_c, 0, 74, 54
1, 26552, Control_c, 0, 64, 64
1, 26566, Control_c, 0, 64, 65
1, 26581, Control_c, 0, 64, 67
1, 26596, Control_c, 0, 64, 70
1, 26596, Control_c, 0, 67, 28
1, 26602, Note_off_c, 0, 63, 56
1, 26610, Control_c, 0, 64, 71
1, 26625, Control_c, 0, 64, 72
1, 26638, Note_on_c, 0, 76, 62
1, 26646, Note_off_c, 0, 74, 32
1, 26655, Control_c, 0, 64, 70
1, 26670, Note_off_c, 0, 76, 65
1, 26670, Control_c, 0, 64, 66
1, 26670, Control_c, 0, 67, 29
1, 26685, Control_c, 0, 64, 57
1, 26700, Control_c, 0, 64, 28
1, 26701, Note_off_c, 0, 57, 59
1, 26715, Control_c, 0, 64, 13
1, 26721, Note_on_c, 0, 77, 74
1, 26730, Note_on_c, 0, 68, 81
1, 26730, Control_c, 0, 64, 17
1, 26740, Note_on_c, 0, 62, 59
1, 26745, Control_c, 0, 64, 20
1, 26748, Note_on_c, 0, 60, 43
1, 26760, Control_c, 0, 64, 18
1, 26768, Note_off_c, 0, 77, 57
1, 26774, Control_c, 0, 67, 29
1, 26789, Control_c, 0, 64, 15
1, 26804, Control_c, 0, 64, 10
1, 26804, Control_c, 0, 67, 30
1, 26810, Note_on_c, 0, 78, 62
1, 26819, Control_c, 0, 64, 0
1, 26834, Control_c, 0, 67, 30
1, 26840, Note_off_c, 0, 78, 67
1, 26846, Note_off_c, 0, 60, 49
1, 26849, Control_c, 0, 67, 31
1, 26879, Control_c, 0, 67, 32
1, 26887, Note_on_c, 0, 65, 68
1, 26893, Note_on_c, 0, 80, 70
1, 26893, Control_c, 0, 67, 32
1, 26899, Note_on_c, 0, 59, 66
1, 26902, Note_off_c, 0, 68, 33
1, 26908, Control_c, 0, 67, 33
1, 26923, Control_c, 0, 67, 33
1, 26923, Note_off_c, 0, 80, 64
1, 26937, Control_c, 0, 67, 34
1, 26952, Control_c, 0, 67, 34
1, 26982, Control_c, 0, 67, 35
1, 26995, Note_on_c, 0, 82, 58
1, 26997, Control_c, 0, 67, 35
1, 27029, Note_off_c, 0, 82, 66
1, 27034, Control_c, 0, 67, 36
1, 27049, Control_c, 0, 67, 36
1, 27050, Note_off_c, 0, 65, 60
1, 27087, Note_on_c, 0, 83, 55
1, 27093, Control_c, 0, 67, 37
1, 27119, Note_off_c, 0, 83, 64
1, 27138, Note_off_c, 0, 62, 16
1, 27138, Control_c, 0, 67, 37
1, 27141, Note_off_c, 0, 59, 59
1, 27153, Control_c, 0, 67, 38
1, 27164, Note_on_c, 0, 66, 63
1, 27168, Control_c, 0, 67, 39
1, 27178, Note_on_c, 0, 72, 64
1, 27179, Note_on_c, 0, 64, 50
1, 27183, Control_c, 0, 67, 40
1, 27198, Control_c, 0, 67, 40
1, 27213, Control_c, 0, 67, 41
1, 27232, Note_off_c, 0, 72, 50
1, 27242, Control_c, 0, 67, 41
1, 27257, Control_c, 0, 67, 42
1, 27269, Note_on_c, 0, 74, 53
1, 27316, Control_c, 0, 67, 41
1, 27325, Note_off_c, 0, 74, 51
1, 27331, Control_c, 0, 67, 41
1, 27366, Note_on_c, 0, 76, 47
1, 27389, Note_off_c, 0, 76, 60
1, 27418, Note_off_c, 0, 64, 58
1, 27429, Note_off_c, 0, 66, 39
1, 27435, Control_c, 0, 67, 41
1, 27442, Note_on_c, 0, 61, 43
1, 27451, Note_on_c, 0, 77, 61
1, 27460, Note_on_c, 0, 58, 34
1, 27485, Note_off_c, 0, 77, 56
1, 27538, Control_c, 0, 67, 41
1, 27540, Note_on_c, 0, 78, 59
1, 27567, Control_c, 0, 67, 40
1, 27568, Note_off_c, 0, 61, 56
1, 27579, Note_off_c, 0, 78, 62
1, 27582, Control_c, 0, 67, 39
1, 27597, Control_c, 0, 67, 38
1, 27612, Note_off_c, 0, 58, 53
1, 27612, Control_c, 0, 67, 37
1, 27623, Note_on_c, 0, 80, 72
1, 27627, Control_c, 0, 67, 36
1, 27642, Control_c, 0, 67, 35
1, 27656, Note_off_c, 0, 80, 61
1, 27657, Control_c, 0, 67, 34
1, 27672, Control_c, 0, 67, 33
1, 27702, Control_c, 0, 67, 33
1, 27716, Control_c, 0, 67, 32
1, 27721, Note_on_c, 0, 82, 67
1, 27746, Control_c, 0, 67, 32
1, 27749, Note_off_c, 0, 82, 68
1, 27767, Control_c, 0, 67, 30
1, 27782, Control_c, 0, 67, 29
1, 27797, Control_c, 0, 67, 27
1, 27812, Note_on_c, 0, 83, 62
1, 27812, Control_c, 0, 67, 24
1, 27827, Control_c, 0, 67, 17
1, 27840, Note_off_c, 0, 83, 62
1, 27842, Control_c, 0, 67, 10
1, 27857, Control_c, 0, 67, 0
1, 27893, Note_on_c, 0, 48, 54
1, 27961, Note_off_c, 0, 48, 54
1, 27990, Note_on_c, 0, 50, 53
1, 28050, Note_off_c, 0, 50, 54
1, 28080, Control_c, 0, 64, 18
1, 28082, Note_on_c, 0, 52, 53
1, 28095, Control_c, 0, 64, 23
1, 28110, Control_c, 0, 64, 18
1, 28125, Control_c, 0, 64, 0
1, 28126, Note_off_c, 0, 52, 64
1, 28166, Note_on_c, 0, 53, 64
1, 28166, Note_on_c, 0, 68, 89
1, 28170, Note_on_c, 0, 61, 80
1, 28213, Control_c, 0, 64, 39
1, 28228, Control_c, 0, 64, 62
1, 28243, Control_c, 0, 64, 65
1, 28256, Note_off_c, 0, 61, 60
1, 28256, Note_off_c, 0, 53, 62
1, 28258, Control_c, 0, 64, 66
1, 28265, Note_on_c, 0, 54, 60
1, 28272, Control_c, 0, 64, 68
1, 28287, Control_c, 0, 64, 71
1, 28317, Control_c, 0, 64, 68
1, 28332, Control_c, 0, 64, 61
1, 28345, Note_on_c, 0, 71, 87
1, 28346, Control_c, 0, 64, 0
1, 28348, Note_on_c, 0, 64, 77
1, 28353, Note_on_c, 0, 63, 78
1, 28359, Note_on_c, 0, 56, 69
1, 28372, Note_off_c, 0, 54, 53
1, 28390, Control_c, 0, 64, 56
1, 28393, Note_off_c, 0, 68, 27
1, 28405, Control_c, 0, 64, 66
1, 28419, Note_off_c, 0, 63, 62
1, 28420, Control_c, 0, 64, 71
1, 28427, Note_off_c, 0, 64, 62
1, 28435, Control_c, 0, 64, 74
1, 28450, Note_off_c, 0, 71, 57
1, 28450, Control_c, 0, 64, 75
1, 28453, Note_off_c, 0, 56, 56
1, 28484, Note_on_c, 0, 58, 60
1, 28532, Control_c, 0, 64, 76
1, 28551, Note_off_c, 0, 58, 60
1, 28599, Note_on_c, 0, 59, 51
1, 28606, Control_c, 0, 64, 75
1, 28621, Control_c, 0, 64, 74
1, 28636, Control_c, 0, 64, 72
1, 28651, Control_c, 0, 64, 66
1, 28665, Control_c, 0, 64, 47
1, 28675, Note_on_c, 0, 76, 97
1, 28680, Control_c, 0, 64, 0
1, 28682, Note_on_c, 0, 69, 81
1, 28682, Note_off_c, 0, 59, 60
1, 28682, Note_on_c, 0, 65, 83
1, 28709, Note_on_c, 0, 48, 58
1, 28787, Note_off_c, 0, 48, 60
1, 28807, Note_on_c, 0, 50, 48
1, 28875, Note_off_c, 0, 69, 64
1, 28899, Note_off_c, 0, 50, 60
1, 28909, Note_on_c, 0, 52, 59
1, 28945, Note_off_c, 0, 52, 65
1, 28956, Note_on_c, 0, 74, 80
1, 28964, Note_on_c, 0, 70, 74
1, 28970, Note_off_c, 0, 65, 61
1, 28975, Note_off_c, 0, 76, 59
1, 28978, Note_on_c, 0, 53, 65
1, 29027, Note_off_c, 0, 53, 58
1, 29073, Note_on_c, 0, 54, 64
1, 29106, Note_off_c, 0, 54, 62
1, 29150, Note_on_c, 0, 56, 74
1, 29168, Note_off_c, 0, 70, 62
1, 29184, Note_off_c, 0, 74, 65
1, 29193, Note_off_c, 0, 56, 56
1, 29251, Note_on_c, 0, 58, 68
1, 29301, Note_off_c, 0, 58, 59
1, 29362, Note_on_c, 0, 59, 52
1, 29413, Note_off_c, 0, 59, 58
1, 29429, Note_on_c, 0, 79, 89
1, 29434, Note_on_c, 0, 68, 89
1, 29439, Note_on_c, 0, 75, 80
1, 29443, Control_c, 0, 64, 40
1, 29458, Control_c, 0, 64, 63
1, 29466, Note_on_c, 0, 48, 61
1, 29473, Control_c, 0, 64, 66
1, 29487, Control_c, 0, 64, 67
1, 29502, Control_c, 0, 64, 68
1, 29517, Control_c, 0, 64, 69
1, 29533, Control_c, 0, 64, 69
1, 29546, Note_off_c, 0, 48, 56
1, 29548, Control_c, 0, 64, 70
1, 29560, Note_on_c, 0, 50, 51
1, 29562, Control_c, 0, 64, 71
1, 29570, Note_off_c, 0, 75, 63
1, 29572, Note_off_c, 0, 68, 61
1, 29577, Control_c, 0, 64, 72
1, 29592, Control_c, 0, 64, 73
1, 29607, Control_c, 0, 64, 74
1, 29651, Control_c, 0, 64, 73
1, 29657, Note_on_c, 0, 52, 54
1, 29661, Note_off_c, 0, 50, 38
1, 29666, Control_c, 0, 64, 68
1, 29672, Note_off_c, 0, 79, 50
1, 29681, Control_c, 0, 64, 54
1, 29688, Note_off_c, 0, 52, 64
1, 29696, Control_c, 0, 64, 0
1, 29716, Note_on_c, 0, 74, 79
1, 29717, Note_on_c, 0, 69, 78
1, 29721, Note_on_c, 0, 72, 72
1, 29730, Note_on_c, 0, 53, 69
1, 29740, Control_c, 0, 64, 59
1, 29755, Control_c, 0, 64, 66
1, 29757, Note_off_c, 0, 69, 62
1, 29770, Control_c, 0, 64, 70
1, 29785, Control_c, 0, 64, 72
1, 29800, Control_c, 0, 64, 72
1, 29800, Note_off_c, 0, 53, 54
1, 29805, Note_off_c, 0, 72, 63
1, 29807, Note_off_c, 0, 74, 64
1, 29823, Note_on_c, 0, 54, 60
1, 29829, Control_c, 0, 64, 72
1, 29844, Control_c, 0, 64, 70
1, 29859, Control_c, 0, 64, 66
1, 29869, Note_off_c, 0, 54, 57
1, 29874, Control_c, 0, 64, 59
1, 29888, Note_on_c, 0, 75, 89
1, 29889, Control_c, 0, 64, 32
1, 29892, Note_on_c, 0, 71, 72
1, 29899, Note_on_c, 0, 64, 70
1, 29903, Control_c, 0, 64, 0
1, 29912, Note_on_c, 0, 56, 62
1, 29976, Note_off_c, 0, 56, 58
1, 30025, Note_on_c, 0, 58, 53
1, 30029, Note_off_c, 0, 64, 57
1, 30050, Note_off_c, 0, 71, 57
1, 30063, Note_off_c, 0, 58, 64
1, 30121, Note_on_c, 0, 59, 39
1, 30170, Note_off_c, 0, 59, 47
1, 30206, Note_on_c, 0, 68, 65
1, 30211, Note_on_c, 0, 63, 53
1, 30237, Note_on_c, 0, 48, 52
1, 30245, Note_off_c, 0, 75, 45
1, 30287, Note_off_c, 0, 63, 0
1, 30287, Note_on_c, 0, 63, 10
1, 30290, Note_off_c, 0, 48, 56
1, 30327, Note_on_c, 0, 50, 42
1, 30378, Note_off_c, 0, 50, 56
1, 30416, Note_on_c, 0, 52, 40
1, 30420, Note_off_c, 0, 63, 56
1, 30445, Note_off_c, 0, 52, 58
1, 30494, Note_on_c, 0, 53, 46
1, 30506, Note_off_c, 0, 68, 64
1, 30523, Note_off_c, 0, 53, 53
1, 30564, Note_on_c, 0, 54, 57
1, 30605, Note_off_c, 0, 54, 61
1, 30638, Note_on_c, 0, 77, 84
1, 30650, Note_on_c, 0, 73, 68
1, 30669, Note_on_c, 0, 56, 53
1, 30721, Note_off_c, 0, 56, 57
1, 30776, Note_on_c, 0, 58, 51
1, 30806, Note_off_c, 0, 58, 63
1, 30849, Note_on_c, 0, 59, 49
1, 30930, Note_off_c, 0, 59, 56
1, 30935, Note_off_c, 0, 73, 47
1, 30942, Note_on_c, 0, 79, 88
1, 30955, Note_on_c, 0, 71, 69
1, 30957, Note_on_c, 0, 76, 68
1, 30969, Note_on_c, 0, 48, 61
1, 30972, Control_c, 0, 64, 51
1, 30972, Note_off_c, 0, 77, 38
1, 30986, Control_c, 0, 64, 62
1, 31001, Control_c, 0, 64, 66
1, 31016, Control_c, 0, 64, 69
1, 31031, Control_c, 0, 64, 72
1, 31046, Control_c, 0, 64, 75
1, 31046, Note_off_c, 0, 48, 54
1, 31050, Note_on_c, 0, 50, 57
1, 31060, Control_c, 0, 64, 77
1, 31067, Note_off_c, 0, 71, 53
1, 31075, Control_c, 0, 64, 77
1, 31090, Control_c, 0, 64, 78
1, 31105, Control_c, 0, 64, 79
1, 31119, Control_c, 0, 64, 80
1, 31135, Note_off_c, 0, 79, 56
1, 31136, Control_c, 0, 64, 81
1, 31138, Note_off_c, 0, 50, 53
1, 31143, Note_off_c, 0, 76, 62
1, 31147, Note_on_c, 0, 52, 61
1, 31150, Control_c, 0, 64, 82
1, 31195, Note_off_c, 0, 52, 62
1, 31209, Control_c, 0, 64, 79
1, 31224, Control_c, 0, 64, 73
1, 31231, Note_on_c, 0, 81, 91
1, 31236, Note_on_c, 0, 53, 68
1, 31239, Control_c, 0, 64, 62
1, 31241, Note_on_c, 0, 70, 79
1, 31246, Note_on_c, 0, 74, 66
1, 31254, Control_c, 0, 64, 10
1, 31269, Control_c, 0, 64, 36
1, 31283, Control_c, 0, 64, 60
1, 31298, Control_c, 0, 64, 66
1, 31303, Note_off_c, 0, 74, 53
1, 31305, Note_off_c, 0, 53, 58
1, 31313, Control_c, 0, 64, 71
1, 31317, Note_on_c, 0, 54, 68
1, 31324, Note_off_c, 0, 70, 51
1, 31328, Control_c, 0, 64, 77
1, 31343, Control_c, 0, 64, 80
1, 31368, Note_off_c, 0, 54, 55
1, 31372, Control_c, 0, 64, 78
1, 31377, Note_off_c, 0, 81, 60
1, 31387, Control_c, 0, 64, 71
1, 31401, Control_c, 0, 64, 50
1, 31405, Note_on_c, 0, 56, 68
1, 31405, Note_on_c, 0, 78, 93
1, 31413, Note_on_c, 0, 75, 82
1, 31416, Note_on_c, 0, 71, 79
1, 31416, Control_c, 0, 64, 0
1, 31461, Note_off_c, 0, 71, 51
1, 31461, Control_c, 0, 64, 61
1, 31470, Note_off_c, 0, 56, 57
1, 31475, Control_c, 0, 64, 69
1, 31490, Control_c, 0, 64, 74
1, 31511, Note_on_c, 0, 58, 66
1, 31513, Control_c, 0, 64, 78
1, 31528, Control_c, 0, 64, 79
1, 31540, Note_off_c, 0, 75, 62
1, 31542, Control_c, 0, 64, 79
1, 31553, Note_off_c, 0, 78, 63
1, 31557, Control_c, 0, 64, 80
1, 31568, Note_off_c, 0, 58, 60
1, 31572, Control_c, 0, 64, 80
1, 31587, Control_c, 0, 64, 81
1, 31628, Note_on_c, 0, 59, 44
1, 31646, Control_c, 0, 64, 80
1, 31661, Control_c, 0, 64, 77
1, 31676, Control_c, 0, 64, 66
1, 31681, Note_off_c, 0, 59, 57
1, 31690, Control_c, 0, 64, 0
1, 31705, Note_on_c, 0, 84, 94
1, 31712, Note_on_c, 0, 76, 86
1, 31712, Note_on_c, 0, 77, 82
1, 31715, Note_on_c, 0, 81, 81
1, 31730, Note_on_c, 0, 48, 60
1, 31750, Control_c, 0, 64, 59
1, 31764, Control_c, 0, 64, 65
1, 31779, Control_c, 0, 64, 67
1, 31794, Control_c, 0, 64, 68
1, 31803, Note_off_c, 0, 48, 51
1, 31809, Control_c, 0, 64, 68
1, 31815, Note_on_c, 0, 50, 51
1, 31824, Control_c, 0, 64, 69
1, 31831, Note_off_c, 0, 76, 55
1, 31839, Control_c, 0, 64, 69
1, 31854, Control_c, 0, 64, 70
1, 31869, Control_c, 0, 64, 71
1, 31872, Note_off_c, 0, 81, 36
1, 31883, Control_c, 0, 64, 72
1, 31898, Control_c, 0, 64, 72
1, 31899, Note_off_c, 0, 50, 51
1, 31899, Note_on_c, 0, 52, 57
1, 31928, Control_c, 0, 64, 71
1, 31934, Note_off_c, 0, 84, 59
1, 31941, Note_off_c, 0, 52, 66
1, 31943, Control_c, 0, 64, 67
1, 31958, Control_c, 0, 64, 49
1, 31973, Control_c, 0, 64, 0
1, 31982, Note_on_c, 0, 53, 57
1, 31993, Note_on_c, 0, 73, 66
1, 31993, Note_on_c, 0, 80, 73
1, 31998, Note_off_c, 0, 77, 57
1, 32026, Note_off_c, 0, 53, 57
1, 32072, Note_on_c, 0, 54, 54
1, 32107, Note_off_c, 0, 54, 63
1, 32164, Note_off_c, 0, 80, 63
1, 32165, Note_on_c, 0, 56, 51
1, 32195, Note_off_c, 0, 73, 59
1, 32199, Note_off_c, 0, 56, 56
1, 32258, Note_on_c, 0, 58, 60
1, 32296, Note_off_c, 0, 58, 65
1, 32346, Note_on_c, 0, 59, 53
1, 32393, Note_off_c, 0, 59, 56
1, 32447, Note_on_c, 0, 75, 69
1, 32448, Note_on_c, 0, 68, 62
1, 32463, Note_on_c, 0, 48, 50
1, 32497, Control_c, 0, 64, 51
1, 32512, Control_c, 0, 64, 63
1, 32527, Control_c, 0, 64, 66
1, 32539, Note_off_c, 0, 48, 57
1, 32542, Control_c, 0, 64, 69
1, 32548, Note_on_c, 0, 50, 45
1, 32556, Control_c, 0, 64, 73
1, 32571, Control_c, 0, 64, 76
1, 32586, Control_c, 0, 64, 79
1, 32601, Control_c, 0, 64, 80
1, 32616, Control_c, 0, 64, 81
1, 32618, Note_off_c, 0, 50, 52
1, 32629, Note_off_c, 0, 68, 62
1, 32630, Control_c, 0, 64, 81
1, 32645, Note_off_c, 0, 75, 49
1, 32647, Note_on_c, 0, 52, 56
1, 32660, Control_c, 0, 64, 82
1, 32691, Note_off_c, 0, 52, 64
1, 32719, Control_c, 0, 64, 81
1, 32727, Note_on_c, 0, 72, 74
1, 32727, Note_on_c, 0, 69, 70
1, 32729, Note_on_c, 0, 64, 65
1, 32735, Control_c, 0, 64, 77
1, 32736, Note_on_c, 0, 53, 66
1, 32750, Control_c, 0, 64, 69
1, 32761, Note_off_c, 0, 64, 65
1, 32765, Control_c, 0, 64, 58
1, 32779, Control_c, 0, 64, 53
1, 32787, Note_off_c, 0, 69, 64
1, 32794, Control_c, 0, 64, 62
1, 32797, Note_off_c, 0, 72, 63
1, 32809, Control_c, 0, 64, 67
1, 32815, Note_off_c, 0, 53, 64
1, 32823, Note_on_c, 0, 54, 62
1, 32824, Control_c, 0, 64, 74
1, 32839, Control_c, 0, 64, 77
1, 32868, Control_c, 0, 64, 75
1, 32883, Control_c, 0, 64, 69
1, 32897, Note_on_c, 0, 71, 85
1, 32898, Note_on_c, 0, 76, 83
1, 32898, Control_c, 0, 64, 56
1, 32900, Note_off_c, 0, 54, 48
1, 32903, Note_on_c, 0, 73, 78
1, 32910, Note_on_c, 0, 56, 69
1, 32913, Control_c, 0, 64, 35
1, 32927, Control_c, 0, 64, 58
1, 32943, Control_c, 0, 64, 65
1, 32958, Control_c, 0, 64, 71
1, 32973, Control_c, 0, 64, 76
1, 32987, Control_c, 0, 64, 79
1, 32994, Note_off_c, 0, 56, 57
1, 33010, Control_c, 0, 64, 79
1, 33022, Note_on_c, 0, 58, 69
1, 33025, Control_c, 0, 64, 80
1, 33040, Control_c, 0, 64, 80
1, 33055, Control_c, 0, 64, 82
1, 33069, Control_c, 0, 64, 86
1, 33083, Note_off_c, 0, 58, 63
1, 33084, Control_c, 0, 64, 88
1, 33095, Note_off_c, 0, 71, 59
1, 33099, Control_c, 0, 64, 89
1, 33104, Note_off_c, 0, 73, 59
1, 33110, Note_off_c, 0, 76, 63
1, 33118, Note_on_c, 0, 59, 64
1, 33128, Control_c, 0, 64, 88
1, 33143, Control_c, 0, 64, 83
1, 33158, Control_c, 0, 64, 76
1, 33173, Control_c, 0, 64, 67
1, 33180, Note_off_c, 0, 59, 58
1, 33187, Control_c, 0, 64, 63
1, 33197, Note_on_c, 0, 81, 97
1, 33201, Note_on_c, 0, 74, 84
1, 33202, Note_on_c, 0, 69, 89
1, 33202, Control_c, 0, 64, 67
1, 33204, Note_on_c, 0, 77, 79
1, 33214, Note_on_c, 0, 48, 73
1, 33217, Control_c, 0, 64, 74
1, 33229, Note_off_c, 0, 69, 65
1, 33232, Control_c, 0, 64, 80
1, 33247, Control_c, 0, 64, 83
1, 33258, Note_off_c, 0, 74, 63
1, 33261, Control_c, 0, 64, 83
1, 33266, Note_off_c, 0, 77, 63
1, 33291, Control_c, 0, 64, 84
1, 33301, Note_on_c, 0, 50, 63
1, 33302, Note_off_c, 0, 81, 58
1, 33306, Control_c, 0, 64, 84
1, 33321, Control_c, 0, 64, 86
1, 33335, Note_off_c, 0, 48, 50
1, 33335, Control_c, 0, 64, 90
1, 33350, Control_c, 0, 64, 93
1, 33365, Control_c, 0, 64, 94
1, 33381, Note_on_c, 0, 52, 66
1, 33410, Control_c, 0, 64, 89
1, 33419, Note_off_c, 0, 50, 55
1, 33425, Control_c, 0, 64, 80
1, 33440, Control_c, 0, 64, 67
1, 33448, Note_off_c, 0, 52, 65
1, 33454, Control_c, 0, 64, 38
1, 33469, Control_c, 0, 64, 52
1, 33470, Note_on_c, 0, 82, 88
1, 33478, Note_on_c, 0, 74, 79
1, 33479, Note_on_c, 0, 53, 69
1, 33481, Note_on_c, 0, 81, 82
1, 33484, Control_c, 0, 64, 67
1, 33498, Control_c, 0, 64, 76
1, 33512, Note_off_c, 0, 74, 61
1, 33513, Control_c, 0, 64, 84
1, 33524, Note_off_c, 0, 81, 60
1, 33529, Control_c, 0, 64, 86
1, 33540, Note_off_c, 0, 82, 63
1, 33559, Note_off_c, 0, 53, 63
1, 33576, Note_on_c, 0, 54, 57
1, 33603, Control_c, 0, 64, 83
1, 33618, Control_c, 0, 64, 77
1, 33633, Control_c, 0, 64, 63
1, 33642, Note_off_c, 0, 54, 53
1, 33648, Control_c, 0, 64, 0
1, 33657, Note_on_c, 0, 76, 94
1, 33660, Note_on_c, 0, 71, 88
1, 33666, Note_on_c, 0, 75, 78
1, 33669, Note_on_c, 0, 56, 59
1, 33707, Control_c, 0, 64, 62
1, 33721, Control_c, 0, 64, 66
1, 33736, Control_c, 0, 64, 67
1, 33741, Note_off_c, 0, 56, 52
1, 33759, Control_c, 0, 64, 67
1, 33786, Note_on_c, 0, 58, 51
1, 33786, Note_off_c, 0, 71, 57
1, 33789, Control_c, 0, 64, 67
1, 33803, Control_c, 0, 64, 68
1, 33806, Note_off_c, 0, 76, 56
1, 33830, Note_off_c, 0, 58, 63
1, 33833, Control_c, 0, 64, 68
1, 33877, Note_off_c, 0, 75, 62
1, 33878, Control_c, 0, 64, 68
1, 33888, Note_on_c, 0, 59, 45
1, 33892, Control_c, 0, 64, 66
1, 33907, Control_c, 0, 64, 62
1, 33922, Control_c, 0, 64, 46
1, 33936, Control_c, 0, 64, 0
1, 33942, Note_off_c, 0, 59, 57
1, 33967, Note_on_c, 0, 77, 84
1, 33976, Note_on_c, 0, 68, 73
1, 33987, Note_on_c, 0, 75, 62
1, 33999, Note_on_c, 0, 48, 55
1, 34040, Control_c, 0, 64, 53
1, 34052, Note_off_c, 0, 48, 60
1, 34055, Control_c, 0, 64, 62
1, 34070, Control_c, 0, 64, 64
1, 34084, Note_on_c, 0, 50, 39
1, 34114, Control_c, 0, 64, 63
1, 34122, Note_off_c, 0, 68, 54
1, 34128, Control_c, 0, 64, 57
1, 34143, Control_c, 0, 64, 0
1, 34148, Note_off_c, 0, 75, 30
1, 34158, Note_off_c, 0, 50, 49
1, 34164, Note_on_c, 0, 52, 49
1, 34210, Note_off_c, 0, 52, 63
1, 34218, Control_c, 0, 64, 53
1, 34233, Control_c, 0, 64, 66
1, 34248, Control_c, 0, 64, 68
1, 34249, Note_on_c, 0, 74, 68
1, 34252, Note_on_c, 0, 69, 62
1, 34257, Note_on_c, 0, 53, 60
1, 34262, Note_on_c, 0, 72, 50
1, 34277, Control_c, 0, 64, 66
1, 34290, Note_off_c, 0, 77, 38
1, 34292, Control_c, 0, 64, 60
1, 34307, Control_c, 0, 64, 0
1, 34307, Control_c, 0, 67, 9
1, 34322, Control_c, 0, 67, 13
1, 34328, Note_off_c, 0, 69, 63
1, 34337, Control_c, 0, 67, 18
1, 34340, Note_off_c, 0, 53, 61
1, 34349, Note_off_c, 0, 74, 64
1, 34352, Control_c, 0, 67, 23
1, 34354, Note_on_c, 0, 54, 50
1, 34355, Note_off_c, 0, 72, 64
1, 34367, Control_c, 0, 67, 28
1, 34382, Control_c, 0, 64, 13
1, 34382, Control_c, 0, 67, 32
1, 34397, Control_c, 0, 64, 62
1, 34397, Control_c, 0, 67, 36
1, 34412, Control_c, 0, 64, 67
1, 34412, Control_c, 0, 67, 40
1, 34416, Note_off_c, 0, 54, 49
1, 34426, Control_c, 0, 64, 69
1, 34426, Control_c, 0, 67, 46
1, 34441, Control_c, 0, 64, 71
1, 34441, Control_c, 0, 67, 53
1, 34444, Note_on_c, 0, 73, 60
1, 34448, Note_on_c, 0, 56, 53
1, 34454, Note_on_c, 0, 70, 54
1, 34456, Control_c, 0, 67, 61
1, 34462, Note_on_c, 0, 65, 39
1, 34471, Control_c, 0, 67, 69
1, 34486, Control_c, 0, 67, 76
1, 34507, Control_c, 0, 67, 79
1, 34522, Note_off_c, 0, 56, 44
1, 34522, Control_c, 0, 67, 81
1, 34537, Control_c, 0, 64, 70
1, 34537, Control_c, 0, 67, 86
1, 34552, Control_c, 0, 67, 96
1, 34567, Control_c, 0, 67, 108
1, 34569, Note_on_c, 0, 58, 45
1, 34581, Control_c, 0, 67, 117
1, 34596, Control_c, 0, 64, 70
1, 34596, Control_c, 0, 67, 125
1, 34608, Note_off_c, 0, 73, 51
1, 34611, Control_c, 0, 67, 127
1, 34619, Note_off_c, 0, 58, 60
1, 34634, Note_off_c, 0, 70, 60
1, 34641, Control_c, 0, 64, 69
1, 34656, Control_c, 0, 64, 68
1, 34671, Control_c, 0, 64, 65
1, 34676, Note_on_c, 0, 59, 46
1, 34686, Control_c, 0, 64, 59
1, 34700, Note_off_c, 0, 65, 61
1, 34700, Control_c, 0, 64, 38
1, 34715, Control_c, 0, 64, 0
1, 34721, Note_off_c, 0, 59, 58
1, 34766, Note_on_c, 0, 64, 59
1, 34779, Note_on_c, 0, 48, 53
1, 34808, Note_off_c, 0, 64, 59
1, 34838, Note_off_c, 0, 48, 59
1, 34847, Note_on_c, 0, 66, 65
1, 34884, Note_off_c, 0, 66, 62
1, 34928, Poly_aftertouch_c, 0, 50, 127
1, 34941, Note_on_c, 0, 60, 59
1, 34962, Poly_aftertouch_c, 0, 50, 0
1, 34967, Note_on_c, 0, 52, 36
1, 34980, Note_off_c, 0, 60, 62
1, 34999, Note_off_c, 0, 52, 47
1, 35024, Note_on_c, 0, 69, 67
1, 35040, Note_on_c, 0, 53, 39
1, 35058, Note_off_c, 0, 69, 60
1, 35073, Note_off_c, 0, 53, 52
1, 35111, Note_on_c, 0, 62, 51
1, 35148, Note_off_c, 0, 62, 58
1, 35150, Note_on_c, 0, 54, 18
1, 35189, Note_off_c, 0, 54, 50
1, 35197, Note_on_c, 0, 72, 73
1, 35225, Note_on_c, 0, 56, 39
1, 35287, Note_off_c, 0, 56, 57
1, 35337, Note_on_c, 0, 58, 40
1, 35367, Note_off_c, 0, 58, 59
1, 35371, Note_off_c, 0, 72, 59
1, 35405, Note_on_c, 0, 67, 62
1, 35420, Note_on_c, 0, 59, 48
1, 35445, Note_off_c, 0, 67, 57
1, 35457, Note_off_c, 0, 59, 55
1, 35491, Note_on_c, 0, 68, 62
1, 35515, Note_on_c, 0, 48, 53
1, 35570, Note_off_c, 0, 48, 58
1, 35598, Note_on_c, 0, 50, 48
1, 35651, Note_off_c, 0, 50, 57
1, 35684, Note_on_c, 0, 52, 52
1, 35721, Note_off_c, 0, 52, 67
1, 35765, Note_on_c, 0, 53, 55
1, 35821, Note_off_c, 0, 53, 55
1, 35845, Note_on_c, 0, 54, 57
1, 35885, Note_off_c, 0, 68, 57
1, 35889, Note_off_c, 0, 54, 59
1, 35941, Note_on_c, 0, 56, 59
1, 35946, Note_on_c, 0, 64, 66
1, 35980, Note_off_c, 0, 64, 63
1, 35987, Note_off_c, 0, 56, 57
1, 36033, Note_on_c, 0, 62, 67
1, 36042, Note_on_c, 0, 58, 54
1, 36075, Note_off_c, 0, 62, 59
1, 36077, Note_off_c, 0, 58, 64
1, 36126, Note_on_c, 0, 67, 65
1, 36128, Note_on_c, 0, 59, 52
1, 36163, Note_off_c, 0, 67, 57
1, 36170, Note_off_c, 0, 59, 60
1, 36210, Note_on_c, 0, 64, 66
1, 36236, Note_on_c, 0, 48, 56
1, 36251, Note_off_c, 0, 64, 60
1, 36302, Note_on_c, 0, 70, 68
1, 36302, Note_off_c, 0, 48, 55
1, 36310, Note_on_c, 0, 50, 45
1, 36381, Note_off_c, 0, 50, 52
1, 36386, Note_on_c, 0, 52, 53
1, 36434, Note_off_c, 0, 52, 64
1, 36480, Note_on_c, 0, 53, 56
1, 36498, Note_on_c, 0, 69, 66
1, 36504, Note_off_c, 0, 70, 61
1, 36532, Note_off_c, 0, 53, 53
1, 36547, Note_off_c, 0, 69, 64
1, 36558, Note_on_c, 0, 54, 59
1, 36581, Note_on_c, 0, 62, 65
1, 36600, Note_off_c, 0, 54, 60
1, 36616, Note_off_c, 0, 62, 61
1, 36665, Note_on_c, 0, 56, 46
1, 36671, Note_on_c, 0, 72, 67
1, 36702, Note_off_c, 0, 56, 57
1, 36720, Note_off_c, 0, 72, 57
1, 36760, Note_on_c, 0, 58, 52
1, 36765, Note_on_c, 0, 66, 71
1, 36796, Note_off_c, 0, 58, 64
1, 36851, Note_on_c, 0, 59, 52
1, 36921, Note_off_c, 0, 59, 55
1, 36932, Control_c, 0, 64, 26
1, 36946, Control_c, 0, 64, 53
1, 36961, Control_c, 0, 64, 60
1, 36965, Note_on_c, 0, 48, 59
1, 36976, Control_c, 0, 64, 62
1, 36991, Control_c, 0, 64, 64
1, 37006, Control_c, 0, 64, 65
1, 37020, Control_c, 0, 64, 67
1, 37035, Note_off_c, 0, 48, 52
1, 37035, Control_c, 0, 64, 69
1, 37047, Note_on_c, 0, 50, 57
1, 37050, Control_c, 0, 64, 71
1, 37065, Control_c, 0, 64, 73
1, 37080, Control_c, 0, 64, 74
1, 37112, Note_off_c, 0, 66, 64
1, 37135, Note_on_c, 0, 52, 64
1, 37146, Note_off_c, 0, 50, 57
1, 37154, Control_c, 0, 64, 74
1, 37169, Control_c, 0, 64, 71
1, 37178, Note_off_c, 0, 52, 65
1, 37184, Control_c, 0, 64, 67
1, 37199, Control_c, 0, 64, 56
1, 37210, Note_on_c, 0, 73, 75
1, 37214, Control_c, 0, 64, 0
1, 37223, Note_on_c, 0, 53, 63
1, 37267, Note_off_c, 0, 53, 58
1, 37268, Note_off_c, 0, 73, 47
1, 37296, Note_on_c, 0, 54, 62
1, 37296, Note_on_c, 0, 70, 72
1, 37330, Note_off_c, 0, 70, 64
1, 37339, Note_off_c, 0, 54, 61
1, 37381, Note_on_c, 0, 76, 76
1, 37391, Note_on_c, 0, 56, 56
1, 37434, Note_off_c, 0, 56, 58
1, 37455, Note_off_c, 0, 76, 63
1, 37459, Note_on_c, 0, 74, 76
1, 37478, Note_on_c, 0, 58, 61
1, 37523, Note_off_c, 0, 58, 63
1, 37524, Note_off_c, 0, 74, 63
1, 37555, Note_on_c, 0, 67, 74
1, 37580, Note_on_c, 0, 59, 55
1, 37599, Note_off_c, 0, 67, 62
1, 37628, Note_off_c, 0, 59, 57
1, 37643, Note_on_c, 0, 76, 79
1, 37675, Note_on_c, 0, 48, 61
1, 37675, Note_on_c, 0, 68, 76
1, 37740, Control_c, 0, 64, 50
1, 37744, Note_off_c, 0, 76, 62
1, 37755, Control_c, 0, 64, 62
1, 37759, Note_off_c, 0, 48, 54
1, 37765, Note_on_c, 0, 50, 52
1, 37769, Control_c, 0, 64, 66
1, 37784, Control_c, 0, 64, 68
1, 37799, Control_c, 0, 64, 71
1, 37807, Note_off_c, 0, 68, 63
1, 37814, Control_c, 0, 64, 73
1, 37829, Control_c, 0, 64, 74
1, 37836, Note_off_c, 0, 50, 58
1, 37847, Note_on_c, 0, 52, 57
1, 37858, Control_c, 0, 64, 73
1, 37873, Note_on_c, 0, 60, 69
1, 37873, Control_c, 0, 64, 69
1, 37878, Note_off_c, 0, 52, 61
1, 37888, Control_c, 0, 64, 55
1, 37902, Control_c, 0, 64, 0
1, 37907, Note_off_c, 0, 60, 58
1, 37929, Note_on_c, 0, 53, 61
1, 37941, Note_on_c, 0, 69, 80
1, 37985, Note_off_c, 0, 53, 54
1, 38030, Note_on_c, 0, 54, 52
1, 38082, Note_off_c, 0, 54, 54
1, 38110, Note_on_c, 0, 56, 52
1, 38153, Note_off_c, 0, 56, 60
1, 38206, Note_on_c, 0, 58, 52
1, 38236, Note_off_c, 0, 58, 63
1, 38309, Note_on_c, 0, 59, 52
1, 38334, Note_off_c, 0, 69, 56
1, 38356, Note_off_c, 0, 59, 58
1, 38402, Note_on_c, 0, 64, 72
1, 38414, Note_on_c, 0, 48, 59
1, 38433, Note_off_c, 0, 64, 64
1, 38471, Note_off_c, 0, 48, 58
1, 38495, Note_on_c, 0, 70, 69
1, 38505, Note_on_c, 0, 50, 50
1, 38534, Note_off_c, 0, 70, 60
1, 38556, Note_off_c, 0, 50, 57
1, 38575, Note_on_c, 0, 60, 69
1, 38589, Note_on_c, 0, 52, 43
1, 38619, Note_off_c, 0, 60, 57
1, 38620, Note_off_c, 0, 52, 60
1, 38662, Note_on_c, 0, 61, 71
1, 38666, Note_on_c, 0, 53, 52
1, 38696, Control_c, 0, 64, 61
1, 38711, Control_c, 0, 64, 66
1, 38725, Control_c, 0, 64, 68
1, 38740, Control_c, 0, 64, 71
1, 38755, Control_c, 0, 64, 75
1, 38757, Note_off_c, 0, 53, 61
1, 38770, Note_on_c, 0, 54, 54
1, 38770, Control_c, 0, 64, 76
1, 38780, Note_off_c, 0, 61, 62
1, 38785, Control_c, 0, 64, 77
1, 38859, Control_c, 0, 64, 75
1, 38871, Note_on_c, 0, 64, 76
1, 38874, Control_c, 0, 64, 72
1, 38877, Note_off_c, 0, 54, 52
1, 38877, Note_on_c, 0, 56, 59
1, 38889, Control_c, 0, 64, 67
1, 38904, Control_c, 0, 64, 51
1, 38913, Note_off_c, 0, 64, 61
1, 38918, Control_c, 0, 64, 0
1, 38941, Note_off_c, 0, 56, 54
1, 38960, Note_on_c, 0, 74, 70
1, 38987, Note_on_c, 0, 58, 59
1, 39029, Note_off_c, 0, 74, 61
1, 39039, Note_off_c, 0, 58, 60
1, 39056, Note_on_c, 0, 67, 73
1, 39084, Note_off_c, 0, 67, 64
1, 39089, Note_on_c, 0, 59, 65
1, 39149, Note_off_c, 0, 59, 57
1, 39162, Note_on_c, 0, 68, 79
1, 39199, Note_on_c, 0, 48, 66
1, 39200, Note_on_c, 0, 70, 70
1, 39202, Note_off_c, 0, 68, 64
1, 39258, Note_on_c, 0, 78, 88
1, 39279, Note_off_c, 0, 48, 55
1, 39290, Note_off_c, 0, 70, 59
1, 39302, Note_on_c, 0, 50, 52
1, 39312, Control_c, 0, 64, 57
1, 39327, Control_c, 0, 64, 66
1, 39341, Control_c, 0, 64, 70
1, 39356, Control_c, 0, 64, 74
1, 39371, Control_c, 0, 64, 77
1, 39373, Note_off_c, 0, 50, 59
1, 39386, Control_c, 0, 64, 78
1, 39389, Note_on_c, 0, 52, 65
1, 39401, Control_c, 0, 64, 80
1, 39416, Control_c, 0, 64, 81
1, 39441, Note_off_c, 0, 52, 63
1, 39445, Control_c, 0, 64, 81
1, 39460, Control_c, 0, 64, 81
1, 39477, Note_on_c, 0, 73, 77
1, 39479, Note_on_c, 0, 53, 70
1, 39479, Note_off_c, 0, 78, 62
1, 39490, Control_c, 0, 64, 80
1, 39504, Control_c, 0, 64, 78
1, 39519, Control_c, 0, 64, 72
1, 39534, Control_c, 0, 64, 60
1, 39542, Note_off_c, 0, 53, 49
1, 39548, Control_c, 0, 64, 0
1, 39552, Note_off_c, 0, 73, 58
1, 39559, Note_on_c, 0, 70, 83
1, 39563, Note_on_c, 0, 54, 70
1, 39613, Note_off_c, 0, 54, 57
1, 39623, Note_off_c, 0, 70, 57
1, 39636, Note_on_c, 0, 76, 71
1, 39656, Note_on_c, 0, 56, 66
1, 39716, Note_off_c, 0, 56, 57
1, 39716, Note_off_c, 0, 76, 60
1, 39723, Note_on_c, 0, 74, 73
1, 39756, Note_off_c, 0, 74, 64
1, 39765, Note_on_c, 0, 58, 71
1, 39816, Note_off_c, 0, 58, 59
1, 39819, Note_on_c, 0, 75, 76
1, 39858, Note_off_c, 0, 75, 63
1, 39866, Note_on_c, 0, 59, 63
1, 39899, Note_on_c, 0, 68, 72
1, 39903, Note_off_c, 0, 59, 61
1, 39931, Note_off_c, 0, 68, 63
1, 39944, Note_on_c, 0, 48, 65
1, 39969, Note_on_c, 0, 66, 80
1, 39993, Note_off_c, 0, 66, 72
1, 40017, Note_off_c, 0, 48, 58
1, 40032, Note_on_c, 0, 50, 48
1, 40075, Control_c, 0, 67, 126
1, 40079, Note_on_c, 0, 80, 87
1, 40087, Note_off_c, 0, 50, 59
1, 40090, Control_c, 0, 67, 118
1, 40093, Note_on_c, 0, 52, 58
1, 40098, Note_on_c, 0, 72, 79
1, 40105, Control_c, 0, 64, 37
1, 40105, Control_c, 0, 67, 112
1, 40116, Note_off_c, 0, 80, 64
1, 40120, Control_c, 0, 64, 63
1, 40120, Control_c, 0, 67, 109
1, 40126, Note_off_c, 0, 72, 64
1, 40134, Note_off_c, 0, 52, 66
1, 40135, Control_c, 0, 64, 66
1, 40135, Control_c, 0, 67, 108
1, 40150, Control_c, 0, 64, 68
1, 40150, Control_c, 0, 67, 106
1, 40165, Control_c, 0, 64, 69
1, 40165, Control_c, 0, 67, 104
1, 40168, Note_on_c, 0, 53, 64
1, 40179, Control_c, 0, 64, 70
1, 40179, Control_c, 0, 67, 102
1, 40194, Control_c, 0, 64, 71
1, 40194, Control_c, 0, 67, 98
1, 40209, Control_c, 0, 67, 94
1, 40224, Control_c, 0, 67, 90
1, 40238, Control_c, 0, 67, 85
1, 40248, Note_off_c, 0, 53, 50
1, 40253, Control_c, 0, 64, 70
1, 40253, Control_c, 0, 67, 78
1, 40268, Control_c, 0, 64, 70
1, 40268, Control_c, 0, 67, 73
1, 40281, Note_on_c, 0, 54, 46
1, 40283, Control_c, 0, 64, 68
1, 40283, Control_c, 0, 67, 67
1, 40289, Note_on_c, 0, 62, 75
1, 40297, Control_c, 0, 64, 65
1, 40297, Control_c, 0, 67, 62
1, 40312, Control_c, 0, 64, 58
1, 40312, Control_c, 0, 67, 57
1, 40327, Control_c, 0, 64, 37
1, 40327, Control_c, 0, 67, 52
1, 40342, Control_c, 0, 64, 0
1, 40342, Control_c, 0, 67, 48
1, 40355, Note_off_c, 0, 62, 57
1, 40357, Control_c, 0, 67, 44
1, 40370, Note_off_c, 0, 54, 41
1, 40371, Control_c, 0, 67, 42
1, 40374, Note_on_c, 0, 64, 64
1, 40377, Note_on_c, 0, 56, 47
1, 40386, Control_c, 0, 67, 41
1, 40401, Control_c, 0, 67, 41
1, 40431, Control_c, 0, 67, 40
1, 40439, Note_off_c, 0, 56, 56
1, 40445, Control_c, 0, 67, 40
1, 40460, Control_c, 0, 67, 38
1, 40472, Note_on_c, 0, 58, 51
1, 40475, Control_c, 0, 67, 36
1, 40497, Control_c, 0, 67, 34
1, 40512, Control_c, 0, 67, 33
1, 40527, Control_c, 0, 67, 32
1, 40532, Note_off_c, 0, 58, 57
1, 40542, Control_c, 0, 67, 32
1, 40557, Control_c, 0, 67, 31
1, 40570, Note_on_c, 0, 59, 43
1, 40571, Control_c, 0, 67, 31
1, 40586, Control_c, 0, 67, 29
1, 40601, Control_c, 0, 67, 27
1, 40616, Control_c, 0, 67, 25
1, 40631, Control_c, 0, 67, 24
1, 40642, Note_off_c, 0, 64, 61
1, 40645, Control_c, 0, 67, 22
1, 40660, Control_c, 0, 67, 22
1, 40661, Note_off_c, 0, 59, 58
1, 40675, Control_c, 0, 67, 21
1, 40686, Note_on_c, 0, 60, 50
1, 40689, Control_c, 0, 67, 20
1, 40704, Control_c, 0, 67, 19
1, 40720, Control_c, 0, 67, 17
1, 40733, Note_off_c, 0, 60, 59
1, 40735, Control_c, 0, 67, 15
1, 40750, Control_c, 0, 67, 13
1, 40765, Control_c, 0, 67, 11
1, 40767, Note_on_c, 0, 62, 51
1, 40780, Control_c, 0, 67, 9
1, 40794, Control_c, 0, 67, 0
1, 40814, Note_off_c, 0, 62, 48
1, 40866, Note_on_c, 0, 64, 46
1, 40892, Note_off_c, 0, 64, 61
1, 40943, Note_on_c, 0, 56, 72
1, 40951, Note_on_c, 0, 65, 69
1, 40981, Note_off_c, 0, 56, 60
1, 40984, Note_off_c, 0, 65, 63
1, 41035, Note_on_c, 0, 51, 66
1, 41036, Note_on_c, 0, 66, 66
1, 41066, Note_off_c, 0, 66, 68
1, 41092, Note_off_c, 0, 51, 61
1, 41124, Note_on_c, 0, 59, 79
1, 41126, Note_on_c, 0, 68, 75
1, 41154, Note_off_c, 0, 68, 66
1, 41178, Note_off_c, 0, 59, 63
1, 41203, Note_on_c, 0, 55, 74
1, 41223, Note_on_c, 0, 70, 70
1, 41255, Note_off_c, 0, 70, 69
1, 41266, Note_off_c, 0, 55, 60
1, 41308, Note_on_c, 0, 50, 72
1, 41337, Note_on_c, 0, 71, 36
1, 41366, Note_off_c, 0, 71, 52
1, 41367, Note_off_c, 0, 50, 61
1, 41398, Note_on_c, 0, 57, 90
1, 41401, Note_on_c, 0, 60, 75
1, 41494, Note_off_c, 0, 60, 52
1, 41505, Note_on_c, 0, 62, 65
1, 41545, Note_off_c, 0, 57, 60
1, 41593, Note_off_c, 0, 62, 37
1, 41604, Note_on_c, 0, 49, 69
1, 41611, Note_on_c, 0, 64, 62
1, 41643, Note_off_c, 0, 64, 65
1, 41654, Note_off_c, 0, 49, 60
1, 41688, Note_on_c, 0, 65, 75
1, 41694, Note_on_c, 0, 50, 78
1, 41697, Note_on_c, 0, 44, 78
1, 41738, Note_off_c, 0, 65, 59
1, 41789, Note_on_c, 0, 66, 63
1, 41828, Note_off_c, 0, 66, 65
1, 41880, Note_on_c, 0, 68, 64
1, 41905, Note_off_c, 0, 68, 63
1, 41921, Note_off_c, 0, 44, 56
1, 41992, Note_on_c, 0, 70, 57
1, 42022, Note_off_c, 0, 70, 65
1, 42083, Note_off_c, 0, 50, 58
1, 42089, Note_on_c, 0, 71, 47
1, 42112, Note_off_c, 0, 71, 59
1, 42165, Note_on_c, 0, 51, 68
1, 42169, Note_on_c, 0, 60, 68
1, 42227, Note_off_c, 0, 51, 60
1, 42253, Note_off_c, 0, 60, 52
1, 42260, Note_on_c, 0, 62, 67
1, 42264, Note_on_c, 0, 59, 67
1, 42306, Note_off_c, 0, 59, 61
1, 42346, Note_on_c, 0, 49, 61
1, 42360, Note_on_c, 0, 64, 64
1, 42362, Note_off_c, 0, 62, 33
1, 42375, Note_off_c, 0, 49, 64
1, 42389, Note_off_c, 0, 64, 66
1, 42436, Note_on_c, 0, 48, 70
1, 42436, Note_on_c, 0, 56, 72
1, 42443, Note_on_c, 0, 65, 75
1, 42455, Control_c, 0, 64, 15
1, 42470, Control_c, 0, 64, 54
1, 42485, Control_c, 0, 64, 62
1, 42493, Note_off_c, 0, 56, 56
1, 42500, Control_c, 0, 64, 64
1, 42517, Note_off_c, 0, 48, 63
1, 42526, Note_off_c, 0, 65, 44
1, 42529, Control_c, 0, 64, 63
1, 42537, Note_on_c, 0, 66, 59
1, 42540, Note_on_c, 0, 45, 64
1, 42558, Control_c, 0, 64, 63
1, 42588, Note_off_c, 0, 66, 55
1, 42588, Control_c, 0, 64, 62
1, 42609, Note_off_c, 0, 45, 64
1, 42618, Control_c, 0, 64, 61
1, 42633, Control_c, 0, 64, 60
1, 42636, Note_on_c, 0, 68, 54
1, 42648, Control_c, 0, 64, 55
1, 42660, Note_off_c, 0, 68, 60
1, 42663, Control_c, 0, 64, 44
1, 42678, Control_c, 0, 64, 0
1, 42726, Note_on_c, 0, 70, 64
1, 42748, Note_on_c, 0, 55, 73
1, 42764, Note_off_c, 0, 70, 67
1, 42796, Note_off_c, 0, 55, 63
1, 42823, Note_on_c, 0, 71, 64
1, 42833, Note_on_c, 0, 53, 69
1, 42863, Note_off_c, 0, 53, 68
1, 42868, Note_off_c, 0, 71, 61
1, 42915, Note_on_c, 0, 60, 70
1, 42928, Note_on_c, 0, 57, 73
1, 42940, Note_on_c, 0, 51, 73
1, 42958, Note_off_c, 0, 57, 64
1, 42997, Note_off_c, 0, 60, 57
1, 43000, Note_on_c, 0, 62, 68
1, 43012, Note_off_c, 0, 51, 62
1, 43017, Note_on_c, 0, 54, 69
1, 43021, Note_on_c, 0, 47, 64
1, 43093, Note_off_c, 0, 62, 55
1, 43105, Note_on_c, 0, 64, 52
1, 43139, Note_off_c, 0, 47, 59
1, 43146, Note_off_c, 0, 64, 58
1, 43170, Note_off_c, 0, 54, 61
1, 43197, Note_on_c, 0, 65, 59
1, 43235, Note_off_c, 0, 65, 63
1, 43286, Note_on_c, 0, 66, 58
1, 43316, Note_off_c, 0, 66, 68
1, 43371, Note_on_c, 0, 68, 69
1, 43386, Note_on_c, 0, 62, 81
1, 43399, Note_off_c, 0, 68, 68
1, 43444, Note_off_c, 0, 62, 61
1, 43459, Note_on_c, 0, 70, 71
1, 43476, Note_on_c, 0, 55, 62
1, 43494, Note_off_c, 0, 70, 66
1, 43544, Note_off_c, 0, 55, 59
1, 43559, Note_on_c, 0, 71, 66
1, 43566, Note_on_c, 0, 53, 69
1, 43609, Note_off_c, 0, 71, 56
1, 43613, Note_off_c, 0, 53, 67
1, 43646, Note_on_c, 0, 60, 73
1, 43655, Note_on_c, 0, 57, 73
1, 43688, Note_off_c, 0, 57, 64
1, 43721, Note_on_c, 0, 47, 75
1, 43726, Note_off_c, 0, 60, 57
1, 43738, Note_on_c, 0, 62, 63
1, 43798, Note_off_c, 0, 62, 47
1, 43810, Note_on_c, 0, 58, 86
1, 43837, Note_on_c, 0, 64, 61
1, 43870, Note_off_c, 0, 64, 65
1, 43921, Note_on_c, 0, 65, 68
1, 43962, Note_off_c, 0, 65, 60
1, 43978, Note_off_c, 0, 58, 61
1, 44002, Note_off_c, 0, 47, 54
1, 44007, Note_on_c, 0, 51, 67
1, 44015, Note_on_c, 0, 66, 65
1, 44055, Note_off_c, 0, 66, 67
1, 44062, Note_off_c, 0, 51, 55
1, 44106, Note_on_c, 0, 68, 68
1, 44107, Note_on_c, 0, 53, 80
1, 44111, Note_on_c, 0, 47, 72
1, 44132, Note_off_c, 0, 68, 63
1, 44204, Note_on_c, 0, 70, 62
1, 44242, Note_off_c, 0, 70, 67
1, 44300, Note_on_c, 0, 71, 62
1, 44339, Note_off_c, 0, 71, 59
1, 44393, Note_on_c, 0, 60, 64
1, 44455, Note_off_c, 0, 60, 56
1, 44459, Note_off_c, 0, 53, 51
1, 44471, Note_off_c, 0, 47, 56
1, 44475, Note_on_c, 0, 62, 59
1, 44568, Note_off_c, 0, 62, 51
1, 44575, Note_on_c, 0, 64, 50
1, 44597, Note_off_c, 0, 64, 61
1, 44618, Note_on_c, 0, 56, 59
1, 44647, Note_on_c, 0, 65, 61
1, 44662, Note_off_c, 0, 56, 58
1, 44680, Note_off_c, 0, 65, 65
1, 44692, Note_on_c, 0, 48, 57
1, 44735, Note_on_c, 0, 66, 58
1, 44745, Note_off_c, 0, 48, 62
1, 44746, Note_on_c, 0, 51, 61
1, 44764, Note_off_c, 0, 66, 67
1, 44791, Note_on_c, 0, 59, 74
1, 44808, Note_on_c, 0, 68, 72
1, 44826, Note_off_c, 0, 51, 52
1, 44838, Note_off_c, 0, 68, 64
1, 44904, Note_on_c, 0, 70, 69
1, 44935, Note_off_c, 0, 70, 65
1, 44962, Note_off_c, 0, 59, 60
1, 45010, Note_on_c, 0, 71, 66
1, 45011, Note_on_c, 0, 53, 57
1, 45038, Note_off_c, 0, 71, 61
1, 45050, Note_off_c, 0, 53, 65
1, 45098, Note_on_c, 0, 60, 64
1, 45101, Note_on_c, 0, 45, 58
1, 45154, Note_off_c, 0, 60, 50
1, 45161, Note_off_c, 0, 45, 49
1, 45180, Note_on_c, 0, 62, 62
1, 45190, Note_on_c, 0, 56, 61
1, 45229, Note_off_c, 0, 62, 52
1, 45253, Note_off_c, 0, 56, 55
1, 45278, Note_on_c, 0, 64, 48
1, 45283, Note_on_c, 0, 49, 59
1, 45300, Note_off_c, 0, 64, 62
1, 45345, Control_c, 0, 64, 60
1, 45354, Note_on_c, 0, 65, 66
1, 45360, Control_c, 0, 64, 66
1, 45363, Note_off_c, 0, 49, 60
1, 45365, Note_on_c, 0, 47, 74
1, 45375, Control_c, 0, 64, 69
1, 45390, Control_c, 0, 64, 71
1, 45390, Note_off_c, 0, 65, 60
1, 45405, Control_c, 0, 64, 72
1, 45420, Control_c, 0, 64, 74
1, 45430, Note_off_c, 0, 47, 62
1, 45434, Control_c, 0, 64, 74
1, 45451, Note_on_c, 0, 66, 60
1, 45464, Control_c, 0, 64, 75
1, 45478, Control_c, 0, 64, 74
1, 45485, Note_off_c, 0, 66, 67
1, 45493, Control_c, 0, 64, 74
1, 45509, Control_c, 0, 64, 72
1, 45524, Control_c, 0, 64, 67
1, 45537, Note_on_c, 0, 68, 68
1, 45539, Control_c, 0, 64, 53
1, 45554, Control_c, 0, 64, 0
1, 45563, Note_on_c, 0, 60, 72
1, 45566, Note_on_c, 0, 53, 70
1, 45566, Note_off_c, 0, 68, 68
1, 45599, Note_off_c, 0, 60, 60
1, 45611, Note_off_c, 0, 53, 65
1, 45625, Note_on_c, 0, 70, 74
1, 45647, Note_off_c, 0, 70, 68
1, 45661, Note_on_c, 0, 52, 66
1, 45695, Note_off_c, 0, 52, 67
1, 45708, Note_on_c, 0, 71, 76
1, 45735, Note_on_c, 0, 62, 65
1, 45761, Note_off_c, 0, 71, 62
1, 45767, Note_off_c, 0, 62, 65
1, 45821, Note_on_c, 0, 60, 71
1, 45823, Note_on_c, 0, 54, 63
1, 45863, Note_off_c, 0, 54, 56
1, 45891, Note_off_c, 0, 60, 49
1, 45909, Note_on_c, 0, 47, 58
1, 45922, Note_on_c, 0, 62, 57
1, 45949, Note_off_c, 0, 47, 59
1, 45966, Note_off_c, 0, 62, 56
1, 45996, Note_on_c, 0, 49, 57
1, 46019, Note_on_c, 0, 64, 49
1, 46041, Note_off_c, 0, 64, 61
1, 46049, Note_off_c, 0, 49, 60
1, 46050, Control_c, 0, 67, 9
1, 46064, Control_c, 0, 67, 16
1, 46079, Note_on_c, 0, 56, 56
1, 46079, Control_c, 0, 67, 27
1, 46094, Note_on_c, 0, 65, 65
1, 46094, Control_c, 0, 67, 42
1, 46101, Note_off_c, 0, 56, 60
1, 46109, Control_c, 0, 67, 57
1, 46123, Control_c, 0, 67, 74
1, 46130, Note_off_c, 0, 65, 62
1, 46138, Control_c, 0, 67, 87
1, 46153, Control_c, 0, 67, 97
1, 46167, Note_on_c, 0, 51, 56
1, 46168, Control_c, 0, 67, 108
1, 46174, Note_on_c, 0, 58, 68
1, 46182, Note_on_c, 0, 66, 61
1, 46183, Control_c, 0, 67, 118
1, 46198, Control_c, 0, 64, 45
1, 46198, Control_c, 0, 67, 127
1, 46209, Note_off_c, 0, 51, 60
1, 46213, Control_c, 0, 64, 63
1, 46213, Control_c, 0, 67, 127
1, 46228, Control_c, 0, 64, 66
1, 46231, Note_off_c, 0, 58, 60
1, 46242, Control_c, 0, 64, 68
1, 46257, Control_c, 0, 64, 69
1, 46272, Control_c, 0, 64, 70
1, 46273, Note_on_c, 0, 68, 57
1, 46275, Note_off_c, 0, 66, 35
1, 46287, Control_c, 0, 64, 71
1, 46301, Note_off_c, 0, 68, 60
1, 46317, Control_c, 0, 64, 70
1, 46332, Control_c, 0, 64, 69
1, 46347, Control_c, 0, 64, 67
1, 46354, Note_on_c, 0, 62, 72
1, 46362, Control_c, 0, 64, 63
1, 46364, Note_on_c, 0, 70, 67
1, 46366, Note_on_c, 0, 55, 62
1, 46377, Control_c, 0, 64, 47
1, 46382, Note_off_c, 0, 62, 65
1, 46392, Control_c, 0, 64, 0
1, 46393, Note_off_c, 0, 70, 65
1, 46407, Note_off_c, 0, 55, 65
1, 46454, Note_on_c, 0, 71, 67
1, 46460, Note_on_c, 0, 50, 58
1, 46467, Note_on_c, 0, 54, 47
1, 46496, Note_off_c, 0, 50, 64
1, 46499, Note_off_c, 0, 71, 57
1, 46502, Note_off_c, 0, 54, 51
1, 46559, Note_on_c, 0, 60, 64
1, 46582, Note_on_c, 0, 45, 64
1, 46618, Note_off_c, 0, 45, 63
1, 46636, Note_off_c, 0, 60, 58
1, 46648, Note_on_c, 0, 53, 62
1, 46652, Note_on_c, 0, 62, 52
1, 46677, Note_off_c, 0, 53, 68
1, 46747, Note_on_c, 0, 64, 56
1, 46748, Note_off_c, 0, 62, 50
1, 46770, Note_on_c, 0, 56, 63
1, 46779, Note_on_c, 0, 49, 52
1, 46782, Note_off_c, 0, 64, 62
1, 46846, Note_on_c, 0, 65, 53
1, 46916, Note_off_c, 0, 65, 43
1, 46917, Note_off_c, 0, 56, 49
1, 46919, Note_off_c, 0, 49, 57
1, 46966, Note_on_c, 0, 66, 45
1, 47009, Note_off_c, 0, 66, 53
1, 47039, Note_on_c, 0, 68, 53
1, 47125, Note_off_c, 0, 68, 54
1, 47143, Note_on_c, 0, 70, 47
1, 47165, Note_off_c, 0, 70, 62
1, 47241, Note_on_c, 0, 71, 45
1, 47265, Note_off_c, 0, 71, 61
1, 47331, Note_on_c, 0, 60, 51
1, 47340, Control_c, 0, 67, 121
1, 47355, Control_c, 0, 67, 106
1, 47370, Control_c, 0, 67, 89
1, 47380, Note_off_c, 0, 60, 56
1, 47384, Control_c, 0, 67, 69
1, 47399, Control_c, 0, 67, 49
1, 47414, Control_c, 0, 67, 31
1, 47420, Note_on_c, 0, 62, 48
1, 47429, Control_c, 0, 67, 16
1, 47444, Control_c, 0, 67, 0
1, 47477, Note_off_c, 0, 62, 54
1, 47522, Note_on_c, 0, 64, 19
1, 47555, Note_off_c, 0, 64, 47
1, 47617, Note_on_c, 0, 65, 31
1, 47693, Note_off_c, 0, 65, 40
1, 47697, Note_on_c, 0, 66, 55
1, 47787, Note_on_c, 0, 85, 101
1, 47790, Note_off_c, 0, 66, 48
1, 47793, Note_on_c, 0, 76, 96
1, 47795, Note_on_c, 0, 83, 85
1, 47799, Note_on_c, 0, 68, 68
1, 47843, Control_c, 0, 64, 66
1, 47855, Note_off_c, 0, 76, 54
1, 47858, Control_c, 0, 64, 85
1, 47873, Control_c, 0, 64, 99
1, 47888, Control_c, 0, 64, 106
1, 47895, Note_off_c, 0, 68, 47
1, 47917, Note_on_c, 0, 70, 61
1, 47918, Control_c, 0, 64, 107
1, 47933, Control_c, 0, 64, 107
1, 47981, Note_off_c, 0, 70, 58
1, 48000, Control_c, 0, 64, 108
1, 48030, Control_c, 0, 64, 109
1, 48045, Control_c, 0, 64, 110
1, 48048, Note_on_c, 0, 71, 48
1, 48059, Control_c, 0, 64, 112
1, 48067, Note_off_c, 0, 85, 63
1, 48069, Note_off_c, 0, 83, 56
1, 48104, Control_c, 0, 64, 109
1, 48116, Note_on_c, 0, 87, 109
1, 48118, Control_c, 0, 64, 98
1, 48120, Note_on_c, 0, 79, 95
1, 48121, Note_off_c, 0, 71, 61
1, 48124, Note_on_c, 0, 80, 86
1, 48133, Control_c, 0, 64, 84
1, 48145, Note_on_c, 0, 60, 80
1, 48148, Control_c, 0, 64, 68
1, 48163, Control_c, 0, 64, 59
1, 48177, Control_c, 0, 64, 64
1, 48192, Control_c, 0, 64, 70
1, 48196, Note_off_c, 0, 79, 59
1, 48207, Control_c, 0, 64, 78
1, 48222, Control_c, 0, 64, 85
1, 48237, Control_c, 0, 64, 86
1, 48250, Note_off_c, 0, 60, 52
1, 48252, Control_c, 0, 64, 87
1, 48252, Note_on_c, 0, 62, 60
1, 48252, Note_off_c, 0, 80, 59
1, 48267, Control_c, 0, 64, 87
1, 48282, Control_c, 0, 64, 88
1, 48297, Control_c, 0, 64, 88
1, 48311, Control_c, 0, 64, 89
1, 48347, Note_on_c, 0, 64, 60
1, 48378, Note_off_c, 0, 62, 36
1, 48381, Note_off_c, 0, 87, 58
1, 48388, Note_off_c, 0, 64, 62
1, 48410, Note_on_c, 0, 85, 82
1, 48415, Note_on_c, 0, 80, 87
1, 48417, Note_on_c, 0, 84, 79
1, 48431, Note_on_c, 0, 65, 76
1, 48446, Note_off_c, 0, 84, 63
1, 48460, Note_off_c, 0, 85, 65
1, 48461, Note_off_c, 0, 80, 62
1, 48489, Control_c, 0, 64, 90
1, 48501, Note_off_c, 0, 65, 50
1, 48503, Control_c, 0, 64, 91
1, 48518, Control_c, 0, 64, 91
1, 48523, Note_on_c, 0, 66, 69
1, 48563, Control_c, 0, 64, 89
1, 48577, Control_c, 0, 64, 82
1, 48592, Control_c, 0, 64, 68
1, 48599, Note_on_c, 0, 89, 101
1, 48601, Note_on_c, 0, 77, 103
1, 48607, Control_c, 0, 64, 0
1, 48608, Note_on_c, 0, 84, 75
1, 48610, Note_on_c, 0, 68, 72
1, 48611, Note_on_c, 0, 87, 80
1, 48614, Note_off_c, 0, 66, 47
1, 48651, Control_c, 0, 64, 50
1, 48666, Control_c, 0, 64, 65
1, 48681, Control_c, 0, 64, 70
1, 48697, Control_c, 0, 64, 74
1, 48707, Note_off_c, 0, 68, 56
1, 48712, Control_c, 0, 64, 77
1, 48734, Control_c, 0, 64, 78
1, 48737, Note_on_c, 0, 70, 67
1, 48749, Control_c, 0, 64, 78
1, 48779, Control_c, 0, 64, 79
1, 48794, Note_off_c, 0, 84, 51
1, 48794, Control_c, 0, 64, 79
1, 48797, Note_off_c, 0, 70, 61
1, 48808, Control_c, 0, 64, 80
1, 48823, Control_c, 0, 64, 82
1, 48826, Note_off_c, 0, 77, 45
1, 48838, Note_on_c, 0, 71, 58
1, 48838, Control_c, 0, 64, 84
1, 48844, Note_off_c, 0, 89, 62
1, 48853, Control_c, 0, 64, 85
1, 48868, Control_c, 0, 64, 87
1, 48893, Note_off_c, 0, 87, 62
1, 48927, Control_c, 0, 64, 83
1, 48929, Note_on_c, 0, 91, 103
1, 48929, Note_off_c, 0, 71, 59
1, 48930, Note_on_c, 0, 79, 107
1, 48933, Note_on_c, 0, 83, 97
1, 48937, Note_on_c, 0, 88, 82
1, 48941, Control_c, 0, 64, 72
1, 48955, Note_on_c, 0, 60, 80
1, 48956, Control_c, 0, 64, 0
1, 49015, Control_c, 0, 64, 56
1, 49030, Control_c, 0, 64, 69
1, 49045, Control_c, 0, 64, 75
1, 49060, Control_c, 0, 64, 79
1, 49065, Note_off_c, 0, 60, 51
1, 49067, Note_on_c, 0, 62, 59
1, 49118, Note_off_c, 0, 88, 32
1, 49155, Note_off_c, 0, 62, 58
1, 49168, Note_off_c, 0, 83, 56
1, 49171, Note_on_c, 0, 64, 59
1, 49219, Note_off_c, 0, 64, 60
1, 49223, Control_c, 0, 64, 80
1, 49262, Note_on_c, 0, 65, 58
1, 49282, Control_c, 0, 64, 80
1, 49297, Control_c, 0, 64, 81
1, 49312, Control_c, 0, 64, 81
1, 49319, Note_off_c, 0, 65, 45
1, 49326, Control_c, 0, 64, 83
1, 49338, Note_off_c, 0, 79, 21
1, 49341, Control_c, 0, 64, 85
1, 49342, Note_on_c, 0, 66, 62
1, 49356, Control_c, 0, 64, 86
1, 49370, Note_off_c, 0, 91, 56
1, 49371, Control_c, 0, 64, 86
1, 49405, Note_off_c, 0, 66, 59
1, 49416, Control_c, 0, 64, 84
1, 49431, Control_c, 0, 64, 78
1, 49440, Note_on_c, 0, 89, 106
1, 49443, Note_on_c, 0, 83, 100
1, 49445, Control_c, 0, 64, 66
1, 49446, Note_on_c, 0, 85, 91
1, 49450, Note_on_c, 0, 68, 69
1, 49460, Control_c, 0, 64, 0
1, 49513, Control_c, 0, 64, 36
1, 49526, Note_off_c, 0, 68, 59
1, 49528, Control_c, 0, 64, 63
1, 49543, Control_c, 0, 64, 68
1, 49557, Control_c, 0, 64, 72
1, 49569, Note_on_c, 0, 70, 56
1, 49572, Control_c, 0, 64, 75
1, 49587, Control_c, 0, 64, 76
1, 49602, Note_off_c, 0, 70, 56
1, 49602, Control_c, 0, 64, 76
1, 49617, Control_c, 0, 64, 77
1, 49632, Control_c, 0, 64, 78
1, 49647, Control_c, 0, 64, 80
1, 49662, Control_c, 0, 64, 82
1, 49674, Note_off_c, 0, 83, 52
1, 49677, Control_c, 0, 64, 84
1, 49691, Control_c, 0, 64, 84
1, 49696, Note_on_c, 0, 71, 41
1, 49704, Note_off_c, 0, 85, 58
1, 49721, Control_c, 0, 64, 83
1, 49726, Note_off_c, 0, 89, 61
1, 49736, Control_c, 0, 64, 77
1, 49744, Note_off_c, 0, 71, 46
1, 49751, Control_c, 0, 64, 66
1, 49765, Control_c, 0, 64, 0
1, 49769, Note_on_c, 0, 93, 101
1, 49769, Note_on_c, 0, 81, 102
1, 49769, Note_on_c, 0, 89, 73
1, 49772, Note_on_c, 0, 88, 86
1, 49787, Note_on_c, 0, 60, 67
1, 49795, Control_c, 0, 64, 49
1, 49810, Control_c, 0, 64, 64
1, 49824, Note_off_c, 0, 81, 53
1, 49825, Control_c, 0, 64, 70
1, 49839, Control_c, 0, 64, 75
1, 49854, Control_c, 0, 64, 79
1, 49862, Note_off_c, 0, 89, 46
1, 49869, Control_c, 0, 64, 80
1, 49873, Note_off_c, 0, 60, 54
1, 49888, Note_on_c, 0, 62, 54
1, 49891, Note_off_c, 0, 88, 59
1, 49898, Control_c, 0, 64, 81
1, 49913, Control_c, 0, 64, 82
1, 49919, Note_off_c, 0, 93, 57
1, 49928, Control_c, 0, 64, 84
1, 49943, Control_c, 0, 64, 86
1, 49957, Control_c, 0, 64, 89
1, 49972, Control_c, 0, 64, 91
1, 49987, Control_c, 0, 64, 91
1, 49996, Note_on_c, 0, 64, 58
1, 50020, Note_off_c, 0, 62, 36
1, 50055, Note_off_c, 0, 64, 62
1, 50075, Note_on_c, 0, 92, 96
1, 50076, Note_on_c, 0, 86, 102
1, 50076, Note_on_c, 0, 94, 93
1, 50085, Note_on_c, 0, 65, 75
1, 50140, Note_off_c, 0, 86, 59
1, 50169, Note_off_c, 0, 65, 59
1, 50171, Note_on_c, 0, 66, 73
1, 50179, Control_c, 0, 64, 92
1, 50190, Note_off_c, 0, 94, 62
1, 50194, Note_off_c, 0, 92, 65
1, 50246, Control_c, 0, 64, 90
1, 50261, Control_c, 0, 64, 82
1, 50263, Note_on_c, 0, 96, 104
1, 50266, Note_on_c, 0, 87, 108
1, 50267, Note_on_c, 0, 91, 97
1, 50271, Note_on_c, 0, 68, 78
1, 50271, Note_off_c, 0, 66, 48
1, 50275, Control_c, 0, 64, 67
1, 50290, Control_c, 0, 64, 0
1, 50336, Control_c, 0, 64, 62
1, 50350, Control_c, 0, 64, 67
1, 50365, Control_c, 0, 64, 70
1, 50380, Control_c, 0, 64, 72
1, 50388, Note_off_c, 0, 91, 55
1, 50390, Note_off_c, 0, 68, 61
1, 50395, Control_c, 0, 64, 73
1, 50400, Note_on_c, 0, 70, 67
1, 50409, Note_off_c, 0, 96, 59
1, 50410, Control_c, 0, 64, 74
1, 50425, Control_c, 0, 64, 76
1, 50440, Control_c, 0, 64, 78
1, 50454, Control_c, 0, 64, 81
1, 50463, Note_off_c, 0, 87, 64
1, 50465, Note_off_c, 0, 70, 61
1, 50469, Control_c, 0, 64, 83
1, 50484, Control_c, 0, 64, 85
1, 50498, Control_c, 0, 64, 87
1, 50508, Note_on_c, 0, 71, 57
1, 50513, Control_c, 0, 64, 89
1, 50528, Control_c, 0, 64, 90
1, 50573, Control_c, 0, 64, 85
1, 50576, Note_off_c, 0, 71, 57
1, 50587, Control_c, 0, 64, 75
1, 50589, Note_on_c, 0, 93, 104
1, 50589, Note_on_c, 0, 84, 108
1, 50590, Note_on_c, 0, 86, 95
1, 50592, Note_on_c, 0, 89, 89
1, 50602, Control_c, 0, 64, 57
1, 50617, Control_c, 0, 64, 0
1, 50618, Note_on_c, 0, 60, 69
1, 50661, Control_c, 0, 64, 61
1, 50676, Control_c, 0, 64, 69
1, 50691, Control_c, 0, 64, 75
1, 50705, Control_c, 0, 64, 81
1, 50708, Note_off_c, 0, 89, 59
1, 50720, Control_c, 0, 64, 82
1, 50722, Note_on_c, 0, 62, 58
1, 50750, Note_off_c, 0, 60, 43
1, 50812, Note_on_c, 0, 64, 62
1, 50823, Note_off_c, 0, 86, 62
1, 50850, Note_off_c, 0, 62, 53
1, 50866, Note_off_c, 0, 64, 59
1, 50871, Note_off_c, 0, 93, 60
1, 50899, Note_on_c, 0, 65, 70
1, 50986, Note_off_c, 0, 65, 57
1, 50991, Note_on_c, 0, 66, 65
1, 50994, Control_c, 0, 64, 82
1, 51009, Control_c, 0, 64, 83
1, 51011, Note_off_c, 0, 84, 59
1, 51024, Control_c, 0, 64, 84
1, 51069, Control_c, 0, 64, 81
1, 51084, Control_c, 0, 64, 72
1, 51084, Note_off_c, 0, 66, 54
1, 51099, Control_c, 0, 64, 29
1, 51105, Note_on_c, 0, 68, 69
1, 51106, Note_on_c, 0, 95, 100
1, 51108, Note_on_c, 0, 87, 92
1, 51109, Note_on_c, 0, 83, 90
1, 51110, Note_on_c, 0, 88, 86
1, 51114, Control_c, 0, 64, 0
1, 51143, Note_on_c, 0, 89, 38
1, 51144, Note_off_c, 0, 89, 127
1, 51149, Note_off_c, 0, 83, 60
1, 51158, Control_c, 0, 64, 47
1, 51173, Control_c, 0, 64, 64
1, 51188, Control_c, 0, 64, 67
1, 51194, Note_off_c, 0, 88, 62
1, 51194, Note_off_c, 0, 95, 64
1, 51200, Note_off_c, 0, 87, 63
1, 51203, Note_off_c, 0, 68, 56
1, 51203, Control_c, 0, 64, 70
1, 51218, Control_c, 0, 64, 71
1, 51233, Control_c, 0, 64, 73
1, 51239, Note_on_c, 0, 70, 49
1, 51248, Control_c, 0, 64, 75
1, 51263, Control_c, 0, 64, 77
1, 51277, Control_c, 0, 64, 79
1, 51286, Note_off_c, 0, 70, 59
1, 51292, Control_c, 0, 64, 81
1, 51307, Control_c, 0, 64, 83
1, 51321, Control_c, 0, 64, 86
1, 51336, Control_c, 0, 64, 88
1, 51346, Note_on_c, 0, 71, 43
1, 51351, Control_c, 0, 64, 89
1, 51381, Control_c, 0, 64, 87
1, 51395, Control_c, 0, 64, 78
1, 51410, Control_c, 0, 64, 64
1, 51418, Note_off_c, 0, 71, 54
1, 51420, Note_on_c, 0, 96, 109
1, 51425, Control_c, 0, 64, 0
1, 51427, Note_on_c, 0, 88, 99
1, 51428, Note_on_c, 0, 91, 85
1, 51429, Note_on_c, 0, 95, 81
1, 51440, Note_on_c, 0, 60, 68
1, 51454, Control_c, 0, 64, 52
1, 51456, Note_off_c, 0, 95, 61
1, 51469, Control_c, 0, 64, 65
1, 51471, Note_off_c, 0, 91, 53
1, 51484, Control_c, 0, 64, 71
1, 51499, Control_c, 0, 64, 75
1, 51514, Control_c, 0, 64, 77
1, 51521, Note_off_c, 0, 96, 50
1, 51534, Note_on_c, 0, 62, 67
1, 51537, Note_off_c, 0, 60, 54
1, 51543, Control_c, 0, 64, 78
1, 51558, Control_c, 0, 64, 78
1, 51573, Control_c, 0, 64, 79
1, 51575, Note_off_c, 0, 88, 58
1, 51588, Control_c, 0, 64, 82
1, 51602, Control_c, 0, 64, 85
1, 51617, Control_c, 0, 64, 88
1, 51632, Control_c, 0, 64, 89
1, 51635, Poly_aftertouch_c, 0, 96, 0
1, 51642, Note_on_c, 0, 64, 63
1, 51662, Control_c, 0, 64, 88
1, 51675, Note_off_c, 0, 62, 54
1, 51677, Control_c, 0, 64, 82
1, 51692, Control_c, 0, 64, 74
1, 51701, Note_on_c, 0, 93, 98
1, 51702, Note_off_c, 0, 64, 62
1, 51704, Note_on_c, 0, 87, 103
1, 51707, Control_c, 0, 64, 66
1, 51726, Note_on_c, 0, 89, 70
1, 51728, Control_c, 0, 64, 65
1, 51737, Note_on_c, 0, 65, 73
1, 51743, Control_c, 0, 64, 71
1, 51748, Note_off_c, 0, 89, 63
1, 51758, Control_c, 0, 64, 79
1, 51773, Control_c, 0, 64, 86
1, 51788, Control_c, 0, 64, 88
1, 51811, Note_off_c, 0, 65, 50
1, 51812, Note_off_c, 0, 87, 62
1, 51826, Note_on_c, 0, 66, 72
1, 51832, Control_c, 0, 64, 88
1, 51847, Control_c, 0, 64, 85
1, 51862, Control_c, 0, 64, 76
1, 51877, Control_c, 0, 64, 54
1, 51885, Note_on_c, 0, 85, 108
1, 51885, Note_on_c, 0, 96, 103
1, 51889, Note_on_c, 0, 89, 85
1, 51889, Note_off_c, 0, 93, 57
1, 51892, Control_c, 0, 64, 0
1, 51909, Note_on_c, 0, 68, 77
1, 51911, Note_off_c, 0, 66, 57
1, 51922, Control_c, 0, 64, 49
1, 51937, Control_c, 0, 64, 67
1, 51951, Control_c, 0, 64, 73
1, 51966, Control_c, 0, 64, 79
1, 51970, Note_off_c, 0, 96, 58
1, 51979, Note_off_c, 0, 89, 61
1, 51981, Control_c, 0, 64, 79
1, 52023, Note_off_c, 0, 68, 59
1, 52025, Note_on_c, 0, 70, 64
1, 52047, Note_off_c, 0, 85, 63
1, 52055, Control_c, 0, 64, 80
1, 52070, Control_c, 0, 64, 80
1, 52085, Control_c, 0, 64, 81
1, 52095, Note_off_c, 0, 70, 57
1, 52100, Control_c, 0, 64, 81
1, 52115, Control_c, 0, 64, 82
1, 52130, Control_c, 0, 64, 82
1, 52136, Note_on_c, 0, 71, 54
1, 52174, Control_c, 0, 64, 80
1, 52181, Note_off_c, 0, 71, 59
1, 52189, Control_c, 0, 64, 72
1, 52193, Note_on_c, 0, 93, 107
1, 52194, Note_on_c, 0, 81, 110
1, 52197, Note_on_c, 0, 86, 79
1, 52197, Note_on_c, 0, 90, 81
1, 52204, Control_c, 0, 64, 33
1, 52218, Control_c, 0, 64, 0
1, 52219, Note_on_c, 0, 60, 68
1, 52249, Note_off_c, 0, 86, 58
1, 52263, Control_c, 0, 64, 30
1, 52277, Control_c, 0, 64, 64
1, 52292, Control_c, 0, 64, 69
1, 52307, Control_c, 0, 64, 73
1, 52310, Note_on_c, 0, 62, 59
1, 52322, Control_c, 0, 64, 74
1, 52333, Note_off_c, 0, 60, 38
1, 52337, Control_c, 0, 64, 75
1, 52351, Control_c, 0, 64, 76
1, 52366, Control_c, 0, 64, 79
1, 52377, Note_off_c, 0, 93, 57
1, 52380, Note_off_c, 0, 81, 62
1, 52381, Control_c, 0, 64, 81
1, 52396, Control_c, 0, 64, 83
1, 52412, Note_on_c, 0, 64, 61
1, 52412, Control_c, 0, 64, 85
1, 52422, Note_off_c, 0, 90, 61
1, 52426, Control_c, 0, 64, 86
1, 52431, Note_off_c, 0, 62, 46
1, 52462, Note_off_c, 0, 64, 57
1, 52478, Control_c, 0, 64, 85
1, 52480, Note_on_c, 0, 87, 96
1, 52481, Note_on_c, 0, 84, 84
1, 52488, Note_on_c, 0, 80, 89
1, 52493, Control_c, 0, 64, 81
1, 52503, Note_on_c, 0, 65, 70
1, 52508, Control_c, 0, 64, 73
1, 52523, Control_c, 0, 64, 56
1, 52538, Control_c, 0, 64, 0
1, 52589, Note_off_c, 0, 65, 57
1, 52598, Note_on_c, 0, 66, 61
1, 52676, Note_off_c, 0, 66, 61
1, 52683, Note_on_c, 0, 68, 65
1, 52752, Note_off_c, 0, 68, 59
1, 52783, Note_on_c, 0, 70, 59
1, 52804, Note_off_c, 0, 84, 58
1, 52820, Control_c, 0, 64, 26
1, 52835, Control_c, 0, 64, 59
1, 52836, Note_off_c, 0, 70, 57
1, 52849, Control_c, 0, 64, 63
1, 52864, Control_c, 0, 64, 64
1, 52879, Control_c, 0, 64, 66
1, 52887, Note_off_c, 0, 80, 61
1, 52890, Note_on_c, 0, 71, 49
1, 52893, Control_c, 0, 64, 67
1, 52899, Note_off_c, 0, 87, 55
1, 52908, Control_c, 0, 64, 66
1, 52923, Control_c, 0, 64, 58
1, 52938, Control_c, 0, 64, 0
1, 52965, Note_off_c, 0, 71, 56
1, 52977, Note_on_c, 0, 88, 91
1, 52986, Note_on_c, 0, 79, 78
1, 52991, Note_on_c, 0, 83, 70
1, 53009, Note_on_c, 0, 60, 58
1, 53042, Control_c, 0, 64, 62
1, 53057, Control_c, 0, 64, 69
1, 53072, Control_c, 0, 64, 74
1, 53082, Note_off_c, 0, 60, 51
1, 53087, Control_c, 0, 64, 78
1, 53101, Control_c, 0, 64, 81
1, 53116, Control_c, 0, 64, 83
1, 53123, Note_on_c, 0, 62, 51
1, 53131, Control_c, 0, 64, 84
1, 53135, Note_off_c, 0, 83, 31
1, 53138, Note_off_c, 0, 88, 55
1, 53146, Control_c, 0, 64, 86
1, 53154, Note_off_c, 0, 79, 58
1, 53161, Control_c, 0, 64, 88
1, 53175, Control_c, 0, 64, 89
1, 53203, Note_off_c, 0, 62, 55
1, 53233, Note_on_c, 0, 64, 49
1, 53257, Control_c, 0, 64, 86
1, 53269, Note_off_c, 0, 64, 63
1, 53272, Control_c, 0, 64, 79
1, 53281, Note_on_c, 0, 84, 95
1, 53287, Control_c, 0, 64, 67
1, 53288, Note_on_c, 0, 76, 86
1, 53295, Note_on_c, 0, 81, 75
1, 53301, Control_c, 0, 64, 0
1, 53302, Note_on_c, 0, 65, 65
1, 53346, Control_c, 0, 64, 58
1, 53361, Control_c, 0, 64, 66
1, 53373, Note_off_c, 0, 76, 65
1, 53375, Control_c, 0, 64, 73
1, 53384, Note_on_c, 0, 66, 71
1, 53387, Note_off_c, 0, 65, 59
1, 53387, Note_off_c, 0, 84, 61
1, 53390, Control_c, 0, 64, 81
1, 53395, Note_off_c, 0, 81, 55
1, 53405, Control_c, 0, 64, 86
1, 53449, Control_c, 0, 64, 85
1, 53464, Control_c, 0, 64, 79
1, 53465, Note_on_c, 0, 83, 97
1, 53467, Note_off_c, 0, 66, 63
1, 53468, Note_on_c, 0, 68, 76
1, 53479, Note_on_c, 0, 76, 86
1, 53479, Control_c, 0, 64, 69
1, 53483, Note_on_c, 0, 75, 82
1, 53494, Control_c, 0, 64, 41
1, 53510, Control_c, 0, 64, 28
1, 53522, Note_off_c, 0, 75, 0
1, 53524, Control_c, 0, 64, 56
1, 53539, Control_c, 0, 64, 65
1, 53554, Control_c, 0, 64, 70
1, 53558, Note_on_c, 0, 75, 5
1, 53569, Note_off_c, 0, 68, 54
1, 53569, Control_c, 0, 64, 75
1, 53584, Control_c, 0, 64, 78
1, 53587, Note_on_c, 0, 70, 70
1, 53598, Note_off_c, 0, 76, 58
1, 53598, Control_c, 0, 64, 79
1, 53613, Control_c, 0, 64, 79
1, 53628, Control_c, 0, 64, 81
1, 53643, Control_c, 0, 64, 83
1, 53644, Note_off_c, 0, 75, 37
1, 53653, Note_off_c, 0, 70, 60
1, 53658, Control_c, 0, 64, 86
1, 53670, Note_off_c, 0, 83, 56
1, 53672, Control_c, 0, 64, 88
1, 53687, Control_c, 0, 64, 88
1, 53692, Note_on_c, 0, 71, 64
1, 53717, Control_c, 0, 64, 87
1, 53731, Control_c, 0, 64, 83
1, 53746, Control_c, 0, 64, 74
1, 53752, Note_off_c, 0, 71, 60
1, 53761, Control_c, 0, 64, 59
1, 53766, Note_on_c, 0, 81, 107
1, 53772, Note_on_c, 0, 74, 92
1, 53772, Note_on_c, 0, 77, 84
1, 53776, Control_c, 0, 64, 0
1, 53795, Note_on_c, 0, 60, 68
1, 53820, Control_c, 0, 64, 37
1, 53835, Control_c, 0, 64, 64
1, 53850, Control_c, 0, 64, 68
1, 53851, Note_off_c, 0, 77, 0
1, 53852, Note_off_c, 0, 74, 61
1, 53865, Control_c, 0, 64, 72
1, 53865, Note_on_c, 0, 77, 30
1, 53880, Control_c, 0, 64, 76
1, 53892, Note_on_c, 0, 62, 58
1, 53895, Control_c, 0, 64, 78
1, 53910, Control_c, 0, 64, 79
1, 53913, Note_off_c, 0, 60, 43
1, 53924, Control_c, 0, 64, 81
1, 53939, Control_c, 0, 64, 84
1, 53944, Note_off_c, 0, 81, 57
1, 53954, Control_c, 0, 64, 88
1, 53976, Note_off_c, 0, 77, 58
1, 53976, Control_c, 0, 64, 91
1, 53987, Note_on_c, 0, 64, 58
1, 53991, Control_c, 0, 64, 92
1, 54013, Note_off_c, 0, 62, 55
1, 54020, Control_c, 0, 64, 91
1, 54028, Note_off_c, 0, 64, 60
1, 54035, Control_c, 0, 64, 87
1, 54050, Control_c, 0, 64, 77
1, 54062, Note_on_c, 0, 73, 97
1, 54065, Control_c, 0, 64, 54
1, 54067, Note_on_c, 0, 80, 86
1, 54067, Note_on_c, 0, 84, 88
1, 54074, Note_on_c, 0, 65, 72
1, 54080, Control_c, 0, 64, 0
1, 54124, Control_c, 0, 64, 61
1, 54139, Control_c, 0, 64, 70
1, 54142, Note_off_c, 0, 65, 0
1, 54154, Control_c, 0, 64, 78
1, 54155, Note_off_c, 0, 84, 60
1, 54163, Note_off_c, 0, 73, 57
1, 54169, Control_c, 0, 64, 84
1, 54179, Poly_aftertouch_c, 0, 65, 127
1, 54184, Control_c, 0, 64, 85
1, 54184, Note_on_c, 0, 65, 18
1, 54199, Note_off_c, 0, 80, 62
1, 54213, Control_c, 0, 64, 83
1, 54219, Note_off_c, 0, 65, 57
1, 54228, Control_c, 0, 64, 77
1, 54243, Control_c, 0, 64, 66
1, 54243, Note_on_c, 0, 82, 89
1, 54249, Note_on_c, 0, 77, 81
1, 54252, Note_on_c, 0, 74, 80
1, 54256, Note_on_c, 0, 68, 64
1, 54257, Control_c, 0, 64, 0
1, 54318, Control_c, 0, 64, 59
1, 54321, Note_off_c, 0, 68, 58
1, 54333, Control_c, 0, 64, 67
1, 54347, Control_c, 0, 64, 71
1, 54362, Control_c, 0, 64, 74
1, 54372, Note_on_c, 0, 70, 66
1, 54377, Control_c, 0, 64, 75
1, 54392, Control_c, 0, 64, 76
1, 54404, Note_off_c, 0, 74, 40
1, 54407, Control_c, 0, 64, 76
1, 54410, Note_off_c, 0, 70, 59
1, 54421, Control_c, 0, 64, 77
1, 54436, Control_c, 0, 64, 79
1, 54451, Control_c, 0, 64, 81
1, 54473, Note_on_c, 0, 71, 44
1, 54473, Note_off_c, 0, 82, 60
1, 54510, Control_c, 0, 64, 78
1, 54525, Control_c, 0, 64, 69
1, 54528, Note_off_c, 0, 71, 58
1, 54540, Control_c, 0, 64, 0
1, 54544, Note_on_c, 0, 81, 85
1, 54551, Note_off_c, 0, 77, 0
1, 54552, Note_on_c, 0, 76, 71
1, 54556, Note_on_c, 0, 79, 63
1, 54585, Note_on_c, 0, 60, 51
1, 54608, Note_off_c, 0, 76, 54
1, 54611, Poly_aftertouch_c, 0, 77, 0
1, 54614, Control_c, 0, 64, 63
1, 54628, Control_c, 0, 64, 69
1, 54643, Control_c, 0, 64, 76
1, 54658, Control_c, 0, 64, 80
1, 54672, Control_c, 0, 64, 81
1, 54675, Note_on_c, 0, 62, 48
1, 54687, Control_c, 0, 64, 82
1, 54694, Note_off_c, 0, 81, 57
1, 54700, Poly_aftertouch_c, 0, 77, 127
1, 54702, Control_c, 0, 64, 84
1, 54722, Note_off_c, 0, 60, 38
1, 54724, Control_c, 0, 64, 87
1, 54733, Note_off_c, 0, 79, 60
1, 54739, Control_c, 0, 64, 90
1, 54748, Poly_aftertouch_c, 0, 77, 0
1, 54753, Control_c, 0, 64, 91
1, 54762, Note_off_c, 0, 62, 54
1, 54779, Note_on_c, 0, 64, 49
1, 54798, Control_c, 0, 64, 88
1, 54810, Note_off_c, 0, 64, 60
1, 54813, Control_c, 0, 64, 81
1, 54828, Control_c, 0, 64, 68
1, 54835, Note_on_c, 0, 82, 77
1, 54843, Control_c, 0, 64, 0
1, 54844, Note_on_c, 0, 78, 72
1, 54853, Note_on_c, 0, 73, 57
1, 54857, Note_on_c, 0, 65, 56
1, 54858, Control_c, 0, 64, 34
1, 54872, Control_c, 0, 64, 63
1, 54887, Control_c, 0, 64, 71
1, 54902, Control_c, 0, 64, 82
1, 54917, Control_c, 0, 64, 92
1, 54932, Note_off_c, 0, 82, 60
1, 54932, Control_c, 0, 64, 94
1, 54941, Note_off_c, 0, 65, 62
1, 54941, Note_off_c, 0, 73, 52
1, 54946, Control_c, 0, 64, 94
1, 54955, Note_on_c, 0, 66, 53
1, 54956, Note_off_c, 0, 78, 60
1, 54961, Control_c, 0, 64, 91
1, 54976, Control_c, 0, 64, 83
1, 54991, Control_c, 0, 64, 69
1, 55006, Control_c, 0, 64, 34
1, 55015, Note_on_c, 0, 79, 73
1, 55020, Control_c, 0, 64, 29
1, 55028, Note_on_c, 0, 75, 55
1, 55035, Note_off_c, 0, 66, 57
1, 55035, Control_c, 0, 64, 60
1, 55042, Note_on_c, 0, 72, 42
1, 55050, Control_c, 0, 64, 68
1, 55054, Note_on_c, 0, 68, 49
1, 55064, Control_c, 0, 64, 74
1, 55079, Control_c, 0, 64, 78
1, 55108, Note_off_c, 0, 72, 0
1, 55108, Note_on_c, 0, 72, 3
1, 55117, Note_off_c, 0, 68, 60
1, 55125, Control_c, 0, 64, 76
1, 55140, Note_off_c, 0, 72, 54
1, 55140, Control_c, 0, 64, 74
1, 55155, Note_on_c, 0, 70, 52
1, 55155, Control_c, 0, 64, 70
1, 55169, Control_c, 0, 64, 63
1, 55184, Control_c, 0, 64, 24
1, 55193, Note_off_c, 0, 70, 63
1, 55199, Control_c, 0, 64, 0
1, 55214, Note_off_c, 0, 79, 60
1, 55214, Control_c, 0, 64, 53
1, 55229, Control_c, 0, 64, 65
1, 55233, Note_off_c, 0, 75, 64
1, 55235, Note_on_c, 0, 71, 50
1, 55243, Control_c, 0, 64, 70
1, 55258, Control_c, 0, 64, 75
1, 55269, Note_off_c, 0, 71, 54
1, 55273, Control_c, 0, 64, 79
1, 55323, Note_on_c, 0, 77, 66
1, 55332, Note_on_c, 0, 68, 51
1, 55332, Control_c, 0, 64, 78
1, 55336, Note_on_c, 0, 60, 53
1, 55337, Note_on_c, 0, 73, 54
1, 55347, Control_c, 0, 64, 75
1, 55362, Control_c, 0, 64, 70
1, 55376, Control_c, 0, 64, 63
1, 55377, Note_off_c, 0, 77, 0
1, 55377, Note_on_c, 0, 77, 30
1, 55391, Control_c, 0, 64, 48
1, 55406, Control_c, 0, 64, 0
1, 55433, Note_off_c, 0, 60, 38
1, 55436, Control_c, 0, 67, 11
1, 55438, Note_on_c, 0, 62, 38
1, 55451, Control_c, 0, 67, 17
1, 55473, Control_c, 0, 67, 23
1, 55488, Control_c, 0, 67, 30
1, 55499, Note_off_c, 0, 62, 56
1, 55502, Control_c, 0, 67, 39
1, 55505, Note_off_c, 0, 68, 38
1, 55516, Note_on_c, 0, 64, 44
1, 55517, Control_c, 0, 67, 50
1, 55532, Control_c, 0, 67, 63
1, 55547, Control_c, 0, 67, 73
1, 55554, Note_off_c, 0, 64, 58
1, 55562, Control_c, 0, 67, 80
1, 55576, Control_c, 0, 67, 86
1, 55591, Control_c, 0, 67, 92
1, 55606, Control_c, 0, 67, 96
1, 55611, Note_on_c, 0, 65, 37
1, 55621, Control_c, 0, 67, 101
1, 55636, Control_c, 0, 67, 107
1, 55650, Control_c, 0, 67, 112
1, 55655, Note_off_c, 0, 65, 44
1, 55659, Note_off_c, 0, 73, 40
1, 55665, Control_c, 0, 67, 116
1, 55680, Control_c, 0, 67, 119
1, 55694, Note_on_c, 0, 66, 50
1, 55695, Control_c, 0, 67, 122
1, 55710, Control_c, 0, 67, 126
1, 55725, Control_c, 0, 67, 127
1, 55734, Note_off_c, 0, 66, 53
1, 55786, Note_on_c, 0, 68, 50
1, 55834, Note_off_c, 0, 77, 39
1, 55836, Note_off_c, 0, 68, 50
1, 55882, Note_on_c, 0, 70, 50
1, 55928, Note_off_c, 0, 70, 58
1, 55981, Note_on_c, 0, 71, 44
1, 56010, Note_off_c, 0, 71, 56
1, 56074, Note_on_c, 0, 72, 35
1, 56105, Note_off_c, 0, 72, 53
1, 56154, Note_on_c, 0, 74, 39
1, 56203, Note_off_c, 0, 74, 42
1, 56255, Note_on_c, 0, 76, 40
1, 56275, Note_off_c, 0, 76, 51
1, 56342, Note_on_c, 0, 77, 43
1, 56366, Note_off_c, 0, 77, 53
1, 56429, Note_on_c, 0, 78, 46
1, 56467, Note_off_c, 0, 78, 48
1, 56509, Note_on_c, 0, 80, 53
1, 56541, Note_off_c, 0, 80, 50
1, 56594, Note_on_c, 0, 82, 56
1, 56629, Note_off_c, 0, 82, 63
1, 56689, Note_on_c, 0, 83, 49
1, 56724, Note_off_c, 0, 83, 53
1, 56789, Note_on_c, 0, 72, 49
1, 56813, Note_on_c, 0, 30, 32
1, 56817, Note_off_c, 0, 72, 54
1, 56885, Note_on_c, 0, 74, 44
1, 56946, Note_off_c, 0, 74, 37
1, 57014, Note_on_c, 0, 76, 16
1, 57031, Note_off_c, 0, 76, 48
1, 57071, Note_off_c, 0, 30, 41
1, 57084, Note_on_c, 0, 35, 32
1, 57086, Note_on_c, 0, 77, 36
1, 57110, Note_off_c, 0, 77, 48
1, 57175, Note_on_c, 0, 78, 53
1, 57209, Note_off_c, 0, 78, 57
1, 57234, Note_off_c, 0, 35, 56
1, 57266, Note_on_c, 0, 80, 55
1, 57280, Note_on_c, 0, 38, 30
1, 57290, Note_off_c, 0, 80, 60
1, 57359, Note_on_c, 0, 82, 54
1, 57379, Note_off_c, 0, 82, 63
1, 57451, Note_on_c, 0, 83, 49
1, 57485, Note_off_c, 0, 83, 57
1, 57534, Note_off_c, 0, 38, 38
1, 57542, Note_on_c, 0, 72, 54
1, 57558, Note_on_c, 0, 40, 38
1, 57561, Note_on_c, 0, 33, 37
1, 57580, Note_off_c, 0, 72, 55
1, 57639, Note_on_c, 0, 74, 45
1, 57681, Note_off_c, 0, 74, 47
1, 57742, Note_on_c, 0, 76, 41
1, 57768, Note_off_c, 0, 76, 57
1, 57785, Note_off_c, 0, 33, 44
1, 57796, Note_off_c, 0, 40, 42
1, 57834, Note_on_c, 0, 77, 46
1, 57856, Note_off_c, 0, 77, 52
1, 57918, Note_on_c, 0, 78, 58
1, 57951, Note_off_c, 0, 78, 66
1, 58007, Note_on_c, 0, 80, 62
1, 58017, Note_on_c, 0, 41, 51
1, 58027, Note_off_c, 0, 80, 62
1, 58103, Note_on_c, 0, 82, 63
1, 58131, Note_off_c, 0, 82, 67
1, 58196, Note_on_c, 0, 83, 54
1, 58227, Note_off_c, 0, 83, 55
1, 58280, Note_off_c, 0, 41, 46
1, 58286, Note_on_c, 0, 39, 47
1, 58294, Note_on_c, 0, 72, 55
1, 58327, Note_off_c, 0, 72, 58
1, 58382, Note_on_c, 0, 74, 48
1, 58424, Note_off_c, 0, 74, 48
1, 58482, Note_on_c, 0, 76, 50
1, 58508, Note_off_c, 0, 76, 56
1, 58527, Note_off_c, 0, 39, 60
1, 58564, Note_on_c, 0, 32, 46
1, 58585, Note_on_c, 0, 77, 50
1, 58611, Note_off_c, 0, 77, 55
1, 58665, Note_on_c, 0, 78, 56
1, 58697, Note_off_c, 0, 78, 59
1, 58734, Note_off_c, 0, 32, 53
1, 58754, Note_on_c, 0, 80, 58
1, 58760, Note_on_c, 0, 35, 41
1, 58777, Note_off_c, 0, 80, 61
1, 58850, Note_on_c, 0, 82, 60
1, 58879, Note_off_c, 0, 82, 64
1, 58950, Note_on_c, 0, 83, 44
1, 58977, Note_off_c, 0, 83, 52
1, 59017, Note_off_c, 0, 35, 46
1, 59034, Note_on_c, 0, 72, 54
1, 59036, Note_on_c, 0, 30, 42
1, 59066, Note_off_c, 0, 72, 56
1, 59129, Note_on_c, 0, 74, 48
1, 59177, Note_off_c, 0, 74, 44
1, 59195, Note_off_c, 0, 30, 57
1, 59232, Note_on_c, 0, 76, 48
1, 59254, Note_off_c, 0, 76, 60
1, 59314, Note_on_c, 0, 77, 57
1, 59342, Note_off_c, 0, 77, 53
1, 59400, Note_on_c, 0, 78, 52
1, 59441, Note_off_c, 0, 78, 49
1, 59468, Note_on_c, 0, 38, 54
1, 59483, Note_on_c, 0, 80, 58
1, 59526, Note_off_c, 0, 80, 60
1, 59579, Note_on_c, 0, 82, 58
1, 59624, Note_off_c, 0, 82, 58
1, 59674, Note_on_c, 0, 83, 50
1, 59708, Note_off_c, 0, 83, 56
1, 59755, Note_on_c, 0, 42, 62
1, 59769, Note_on_c, 0, 72, 53
1, 59772, Note_off_c, 0, 38, 51
1, 59807, Note_off_c, 0, 72, 54
1, 59860, Note_on_c, 0, 74, 53
1, 59899, Note_off_c, 0, 74, 56
1, 59961, Note_on_c, 0, 76, 58
1, 59983, Note_off_c, 0, 76, 63
1, 60033, Note_on_c, 0, 47, 69
1, 60048, Note_off_c, 0, 42, 59
1, 60054, Note_on_c, 0, 77, 58
1, 60083, Note_off_c, 0, 77, 54
1, 60140, Note_on_c, 0, 78, 57
1, 60167, Note_off_c, 0, 78, 60
1, 60217, Note_on_c, 0, 53, 75
1, 60223, Note_off_c, 0, 47, 63
1, 60232, Note_on_c, 0, 80, 52
1, 60252, Note_off_c, 0, 80, 62
1, 60327, Note_on_c, 0, 82, 58
1, 60349, Note_off_c, 0, 82, 66
1, 60424, Note_on_c, 0, 83, 44
1, 60450, Note_off_c, 0, 83, 53
1, 60509, Note_on_c, 0, 45, 59
1, 60511, Note_on_c, 0, 72, 57
1, 60521, Note_off_c, 0, 53, 53
1, 60557, Note_off_c, 0, 72, 56
1, 60609, Note_on_c, 0, 74, 47
1, 60657, Note_off_c, 0, 74, 46
1, 60718, Note_on_c, 0, 76, 43
1, 60739, Note_off_c, 0, 76, 54
1, 60766, Note_off_c, 0, 45, 64
1, 60801, Note_on_c, 0, 56, 54
1, 60807, Note_on_c, 0, 77, 46
1, 60837, Note_off_c, 0, 77, 51
1, 60903, Note_on_c, 0, 78, 47
1, 60953, Note_off_c, 0, 78, 42
1, 60962, Note_off_c, 0, 56, 57
1, 60978, Note_on_c, 0, 80, 54
1, 60984, Note_on_c, 0, 50, 53
1, 61002, Note_off_c, 0, 80, 60
1, 61076, Note_on_c, 0, 82, 53
1, 61098, Note_off_c, 0, 82, 64
1, 61173, Note_on_c, 0, 83, 48
1, 61204, Note_off_c, 0, 83, 53
1, 61240, Note_off_c, 0, 50, 54
1, 61261, Note_on_c, 0, 53, 51
1, 61261, Note_on_c, 0, 72, 57
1, 61274, Note_on_c, 0, 44, 44
1, 61299, Note_off_c, 0, 72, 53
1, 61351, Note_on_c, 0, 74, 52
1, 61387, Note_off_c, 0, 74, 55
1, 61447, Note_on_c, 0, 76, 40
1, 61468, Note_off_c, 0, 44, 53
1, 61478, Note_off_c, 0, 76, 50
1, 61511, Note_off_c, 0, 53, 50
1, 61529, Note_on_c, 0, 77, 58
1, 61553, Note_off_c, 0, 77, 57
1, 61612, Note_on_c, 0, 78, 55
1, 61655, Note_off_c, 0, 78, 54
1, 61702, Note_on_c, 0, 47, 65
1, 61702, Note_on_c, 0, 80, 55
1, 61724, Note_off_c, 0, 80, 60
1, 61775, Control_c, 0, 64, 24
1, 61784, Note_on_c, 0, 82, 65
1, 61790, Control_c, 0, 64, 42
1, 61805, Control_c, 0, 64, 49
1, 61812, Note_off_c, 0, 82, 65
1, 61819, Control_c, 0, 64, 54
1, 61834, Control_c, 0, 64, 57
1, 61849, Control_c, 0, 64, 56
1, 61863, Control_c, 0, 64, 51
1, 61875, Note_on_c, 0, 83, 63
1, 61878, Control_c, 0, 64, 38
1, 61893, Control_c, 0, 64, 0
1, 61923, Control_c, 0, 64, 15
1, 61926, Note_off_c, 0, 83, 57
1, 61934, Note_off_c, 0, 47, 57
1, 61937, Control_c, 0, 64, 49
1, 61952, Control_c, 0, 64, 60
1, 61956, Note_on_c, 0, 57, 69
1, 61958, Note_on_c, 0, 72, 69
1, 61967, Control_c, 0, 64, 64
1, 61982, Control_c, 0, 64, 67
1, 61987, Note_off_c, 0, 57, 65
1, 61997, Control_c, 0, 64, 70
1, 62012, Control_c, 0, 64, 76
1, 62027, Control_c, 0, 64, 79
1, 62035, Note_off_c, 0, 72, 60
1, 62042, Control_c, 0, 64, 81
1, 62046, Note_on_c, 0, 74, 61
1, 62101, Control_c, 0, 64, 79
1, 62116, Control_c, 0, 64, 74
1, 62130, Control_c, 0, 64, 66
1, 62132, Note_off_c, 0, 74, 34
1, 62143, Note_on_c, 0, 76, 54
1, 62146, Control_c, 0, 64, 55
1, 62146, Note_on_c, 0, 50, 67
1, 62161, Control_c, 0, 64, 60
1, 62161, Note_off_c, 0, 76, 62
1, 62176, Control_c, 0, 64, 66
1, 62176, Note_off_c, 0, 50, 66
1, 62190, Control_c, 0, 64, 70
1, 62196, Note_on_c, 0, 77, 76
1, 62210, Note_on_c, 0, 44, 77
1, 62212, Control_c, 0, 64, 78
1, 62227, Control_c, 0, 64, 85
1, 62242, Control_c, 0, 64, 88
1, 62243, Note_off_c, 0, 44, 66
1, 62257, Control_c, 0, 64, 88
1, 62279, Note_off_c, 0, 77, 38
1, 62290, Note_on_c, 0, 78, 66
1, 62302, Control_c, 0, 64, 86
1, 62317, Control_c, 0, 64, 80
1, 62332, Control_c, 0, 64, 69
1, 62347, Control_c, 0, 64, 0
1, 62368, Note_on_c, 0, 65, 88
1, 62370, Note_on_c, 0, 80, 70
1, 62397, Note_off_c, 0, 78, 44
1, 62414, Note_off_c, 0, 80, 56
1, 62418, Note_off_c, 0, 65, 65
1, 62421, Control_c, 0, 64, 55
1, 62435, Control_c, 0, 64, 65
1, 62450, Control_c, 0, 64, 68
1, 62456, Note_on_c, 0, 82, 70
1, 62465, Control_c, 0, 64, 69
1, 62480, Control_c, 0, 64, 72
1, 62495, Control_c, 0, 64, 76
1, 62510, Control_c, 0, 64, 80
1, 62510, Note_off_c, 0, 82, 58
1, 62524, Control_c, 0, 64, 82
1, 62539, Control_c, 0, 64, 83
1, 62548, Note_on_c, 0, 83, 64
1, 62593, Note_off_c, 0, 83, 55
1, 62599, Control_c, 0, 64, 83
1, 62614, Control_c, 0, 64, 82
1, 62629, Control_c, 0, 64, 78
1, 62634, Note_on_c, 0, 72, 65
1, 62643, Control_c, 0, 64, 72
1, 62650, Note_on_c, 0, 54, 75
1, 62658, Control_c, 0, 64, 60
1, 62673, Control_c, 0, 64, 0
1, 62712, Note_off_c, 0, 72, 61
1, 62721, Note_on_c, 0, 74, 58
1, 62811, Note_off_c, 0, 74, 35
1, 62820, Control_c, 0, 64, 57
1, 62825, Note_on_c, 0, 76, 46
1, 62835, Control_c, 0, 64, 64
1, 62848, Note_off_c, 0, 76, 57
1, 62850, Control_c, 0, 64, 67
1, 62865, Control_c, 0, 64, 72
1, 62875, Note_off_c, 0, 54, 55
1, 62879, Control_c, 0, 64, 75
1, 62894, Control_c, 0, 64, 76
1, 62900, Note_on_c, 0, 77, 64
1, 62905, Note_on_c, 0, 50, 52
1, 62927, Note_off_c, 0, 77, 56
1, 62940, Note_off_c, 0, 50, 65
1, 63004, Note_on_c, 0, 78, 52
1, 63006, Control_c, 0, 64, 76
1, 63020, Control_c, 0, 64, 73
1, 63035, Control_c, 0, 64, 69
1, 63050, Control_c, 0, 64, 62
1, 63065, Control_c, 0, 64, 0
1, 63079, Note_off_c, 0, 78, 36
1, 63091, Note_on_c, 0, 80, 52
1, 63097, Note_on_c, 0, 47, 57
1, 63115, Note_on_c, 0, 41, 39
1, 63150, Note_off_c, 0, 80, 39
1, 63181, Note_off_c, 0, 47, 61
1, 63189, Note_on_c, 0, 82, 48
1, 63255, Note_off_c, 0, 82, 56
1, 63269, Note_off_c, 0, 41, 46
1, 63285, Note_on_c, 0, 83, 48
1, 63303, Note_on_c, 0, 45, 55
1, 63320, Note_off_c, 0, 83, 56
1, 63342, Note_off_c, 0, 45, 60
1, 63376, Note_on_c, 0, 72, 55
1, 63393, Note_on_c, 0, 39, 38
1, 63421, Note_off_c, 0, 72, 56
1, 63463, Note_on_c, 0, 74, 51
1, 63541, Note_off_c, 0, 74, 36
1, 63565, Note_on_c, 0, 76, 48
1, 63587, Note_off_c, 0, 76, 59
1, 63610, Note_off_c, 0, 39, 17
1, 63646, Note_on_c, 0, 48, 43
1, 63651, Note_on_c, 0, 44, 35
1, 63651, Note_on_c, 0, 77, 57
1, 63677, Note_off_c, 0, 77, 56
1, 63747, Note_on_c, 0, 78, 59
1, 63782, Note_off_c, 0, 78, 63
1, 63827, Note_off_c, 0, 48, 45
1, 63833, Note_off_c, 0, 44, 54
1, 63842, Note_on_c, 0, 80, 60
1, 63864, Note_off_c, 0, 80, 62
1, 63866, Note_on_c, 0, 38, 43
1, 63940, Note_on_c, 0, 82, 51
1, 63976, Note_off_c, 0, 82, 60
1, 64042, Note_on_c, 0, 83, 45
1, 64066, Note_off_c, 0, 83, 56
1, 64131, Note_on_c, 0, 43, 44
1, 64135, Note_on_c, 0, 72, 52
1, 64140, Note_on_c, 0, 39, 45
1, 64153, Note_off_c, 0, 38, 43
1, 64173, Note_off_c, 0, 72, 54
1, 64220, Note_on_c, 0, 74, 51
1, 64257, Note_off_c, 0, 74, 55
1, 64320, Note_on_c, 0, 76, 45
1, 64342, Note_off_c, 0, 76, 60
1, 64371, Note_off_c, 0, 39, 54
1, 64408, Note_on_c, 0, 77, 55
1, 64409, Note_off_c, 0, 43, 43
1, 64420, Note_on_c, 0, 32, 45
1, 64432, Note_off_c, 0, 77, 57
1, 64515, Note_on_c, 0, 78, 46
1, 64536, Note_off_c, 0, 78, 61
1, 64588, Note_off_c, 0, 32, 36
1, 64596, Note_on_c, 0, 80, 53
1, 64605, Note_on_c, 0, 41, 51
1, 64613, Note_on_c, 0, 35, 42
1, 64617, Note_off_c, 0, 80, 62
1, 64672, Note_off_c, 0, 41, 61
1, 64697, Note_on_c, 0, 82, 54
1, 64702, Note_off_c, 0, 35, 57
1, 64721, Note_off_c, 0, 82, 62
1, 64790, Note_on_c, 0, 83, 48
1, 64834, Note_off_c, 0, 83, 60
1, 64878, Note_on_c, 0, 33, 48
1, 64879, Note_on_c, 0, 72, 57
1, 64921, Note_off_c, 0, 72, 58
1, 64980, Note_on_c, 0, 74, 42
1, 65019, Note_off_c, 0, 74, 49
1, 65070, Note_on_c, 0, 76, 43
1, 65092, Note_off_c, 0, 76, 57
1, 65118, Note_off_c, 0, 33, 46
1, 65155, Note_on_c, 0, 77, 54
1, 65156, Note_on_c, 0, 24, 43
1, 65157, Note_on_c, 0, 32, 32
1, 65180, Note_off_c, 0, 77, 56
1, 65252, Note_on_c, 0, 78, 51
1, 65280, Note_off_c, 0, 78, 57
1, 65344, Note_on_c, 0, 80, 45
1, 65376, Note_off_c, 0, 80, 52
1, 65431, Note_on_c, 0, 82, 52
1, 65451, Note_off_c, 0, 82, 62
1, 65529, Note_on_c, 0, 83, 52
1, 65550, Note_off_c, 0, 83, 60
1, 65572, Note_off_c, 0, 24, 42
1, 65601, Note_off_c, 0, 32, 56
1, 65625, Note_on_c, 0, 84, 61
1, 65665, Note_off_c, 0, 84, 60
1, 65720, Note_on_c, 0, 86, 43
1, 65758, Note_off_c, 0, 86, 47
1, 65806, Note_on_c, 0, 88, 45
1, 65829, Note_off_c, 0, 88, 50
1, 65896, Note_on_c, 0, 89, 47
1, 65923, Note_off_c, 0, 89, 53
1, 65986, Control_c, 0, 67, 119
1, 65991, Note_on_c, 0, 90, 51
1, 66001, Control_c, 0, 67, 90
1, 66016, Note_off_c, 0, 90, 62
1, 66016, Control_c, 0, 67, 53
1, 66030, Control_c, 0, 67, 12
1, 66045, Control_c, 0, 67, 0
1, 66071, Note_on_c, 0, 92, 69
1, 66075, Control_c, 0, 64, 13
1, 66090, Control_c, 0, 64, 26
1, 66102, Note_off_c, 0, 92, 63
1, 66104, Control_c, 0, 64, 32
1, 66119, Control_c, 0, 64, 36
1, 66134, Control_c, 0, 64, 38
1, 66149, Control_c, 0, 64, 40
1, 66164, Note_on_c, 0, 94, 71
1, 66164, Control_c, 0, 64, 41
1, 66179, Control_c, 0, 64, 42
1, 66188, Note_off_c, 0, 94, 67
1, 66194, Control_c, 0, 64, 44
1, 66209, Control_c, 0, 64, 45
1, 66223, Control_c, 0, 64, 46
1, 66238, Control_c, 0, 64, 47
1, 66262, Note_on_c, 0, 95, 65
1, 66315, Note_off_c, 0, 95, 65
1, 66328, Control_c, 0, 64, 48
1, 66343, Note_on_c, 0, 84, 86
1, 66343, Control_c, 0, 64, 48
1, 66350, Note_on_c, 0, 72, 100
1, 66353, Note_on_c, 0, 76, 94
1, 66358, Control_c, 0, 64, 50
1, 66373, Control_c, 0, 64, 51
1, 66400, Note_off_c, 0, 76, 65
1, 66402, Control_c, 0, 64, 50
1, 66417, Control_c, 0, 64, 50
1, 66426, Note_off_c, 0, 72, 58
1, 66428, Note_on_c, 0, 86, 83
1, 66432, Note_on_c, 0, 74, 88
1, 66433, Note_off_c, 0, 84, 63
1, 66438, Note_on_c, 0, 67, 69
1, 66461, Control_c, 0, 64, 50
1, 66476, Control_c, 0, 64, 50
1, 66513, Note_off_c, 0, 74, 63
1, 66517, Note_off_c, 0, 67, 62
1, 66518, Note_on_c, 0, 72, 90
1, 66525, Note_on_c, 0, 88, 78
1, 66528, Note_on_c, 0, 76, 86
1, 66535, Control_c, 0, 64, 49
1, 66550, Control_c, 0, 64, 49
1, 66558, Note_off_c, 0, 88, 64
1, 66561, Note_off_c, 0, 72, 64
1, 66564, Note_off_c, 0, 76, 69
1, 66565, Control_c, 0, 64, 47
1, 66568, Note_off_c, 0, 86, 25
1, 66580, Control_c, 0, 64, 45
1, 66595, Control_c, 0, 64, 43
1, 66602, Note_on_c, 0, 74, 98
1, 66609, Note_on_c, 0, 69, 96
1, 66609, Control_c, 0, 64, 42
1, 66611, Note_on_c, 0, 89, 73
1, 66624, Control_c, 0, 64, 40
1, 66634, Note_on_c, 0, 88, 28
1, 66635, Note_off_c, 0, 88, 127
1, 66639, Control_c, 0, 64, 40
1, 66668, Control_c, 0, 64, 41
1, 66680, Note_off_c, 0, 89, 55
1, 66683, Control_c, 0, 64, 43
1, 66706, Control_c, 0, 64, 44
1, 66721, Control_c, 0, 64, 45
1, 66722, Note_on_c, 0, 90, 62
1, 66735, Control_c, 0, 64, 43
1, 66750, Control_c, 0, 64, 32
1, 66754, Note_off_c, 0, 90, 64
1, 66760, Note_off_c, 0, 69, 64
1, 66765, Control_c, 0, 64, 0
1, 66783, Note_off_c, 0, 74, 63
1, 66795, Note_on_c, 0, 76, 107
1, 66801, Note_on_c, 0, 71, 96
1, 66801, Note_on_c, 0, 92, 82
1, 66829, Note_on_c, 0, 74, 6
1, 66844, Note_off_c, 0, 92, 64
1, 66883, Control_c, 0, 64, 50
1, 66885, Note_off_c, 0, 74, 25
1, 66890, Note_on_c, 0, 94, 76
1, 66898, Note_off_c, 0, 71, 59
1, 66898, Control_c, 0, 64, 58
1, 66913, Control_c, 0, 64, 59
1, 66927, Control_c, 0, 64, 62
1, 66939, Note_off_c, 0, 94, 66
1, 66942, Control_c, 0, 64, 64
1, 66957, Control_c, 0, 64, 66
1, 66972, Control_c, 0, 64, 69
1, 66983, Note_on_c, 0, 95, 77
1, 66987, Control_c, 0, 64, 73
1, 67002, Control_c, 0, 64, 75
1, 67017, Control_c, 0, 64, 75
1, 67029, Note_off_c, 0, 76, 61
1, 67032, Control_c, 0, 64, 75
1, 67040, Note_off_c, 0, 95, 65
1, 67046, Control_c, 0, 64, 73
1, 67061, Control_c, 0, 64, 68
1, 67076, Control_c, 0, 64, 10
1, 67079, Note_on_c, 0, 75, 102
1, 67079, Note_on_c, 0, 84, 86
1, 67082, Note_on_c, 0, 68, 103
1, 67091, Control_c, 0, 64, 0
1, 67175, Note_on_c, 0, 86, 71
1, 67178, Note_off_c, 0, 84, 61
1, 67181, Control_c, 0, 64, 51
1, 67195, Control_c, 0, 64, 59
1, 67210, Control_c, 0, 64, 62
1, 67225, Control_c, 0, 64, 65
1, 67240, Control_c, 0, 64, 67
1, 67255, Control_c, 0, 64, 70
1, 67270, Control_c, 0, 64, 74
1, 67270, Note_on_c, 0, 88, 68
1, 67282, Note_off_c, 0, 86, 31
1, 67284, Control_c, 0, 64, 77
1, 67298, Note_off_c, 0, 88, 65
1, 67299, Control_c, 0, 64, 79
1, 67314, Control_c, 0, 64, 80
1, 67329, Control_c, 0, 64, 80
1, 67336, Note_off_c, 0, 68, 47
1, 67345, Note_on_c, 0, 89, 82
1, 67358, Control_c, 0, 64, 81
1, 67373, Control_c, 0, 64, 81
1, 67388, Note_off_c, 0, 75, 57
1, 67388, Control_c, 0, 64, 82
1, 67414, Note_off_c, 0, 89, 56
1, 67432, Control_c, 0, 64, 82
1, 67458, Note_on_c, 0, 90, 63
1, 67470, Control_c, 0, 64, 83
1, 67489, Note_off_c, 0, 90, 66
1, 67532, Note_on_c, 0, 73, 95
1, 67532, Note_on_c, 0, 77, 87
1, 67533, Note_on_c, 0, 92, 82
1, 67550, Note_off_c, 0, 77, 69
1, 67558, Control_c, 0, 64, 82
1, 67573, Note_off_c, 0, 73, 65
1, 67573, Control_c, 0, 64, 80
1, 67576, Note_off_c, 0, 92, 63
1, 67588, Control_c, 0, 64, 77
1, 67602, Control_c, 0, 64, 71
1, 67611, Note_on_c, 0, 94, 78
1, 67617, Control_c, 0, 64, 64
1, 67626, Note_on_c, 0, 75, 92
1, 67632, Control_c, 0, 64, 42
1, 67646, Note_on_c, 0, 68, 47
1, 67647, Control_c, 0, 64, 0
1, 67652, Note_off_c, 0, 94, 68
1, 67667, Note_off_c, 0, 68, 61
1, 67670, Note_off_c, 0, 75, 61
1, 67701, Note_on_c, 0, 95, 87
1, 67702, Note_on_c, 0, 73, 93
1, 67711, Poly_aftertouch_c, 0, 65, 127
1, 67734, Poly_aftertouch_c, 0, 65, 0
1, 67752, Note_off_c, 0, 73, 64
1, 67756, Note_off_c, 0, 95, 64
1, 67793, Note_on_c, 0, 84, 92
1, 67798, Note_on_c, 0, 68, 82
1, 67798, Note_on_c, 0, 75, 106
1, 67854, Control_c, 0, 64, 15
1, 67870, Control_c, 0, 64, 59
1, 67885, Control_c, 0, 64, 65
1, 67896, Note_on_c, 0, 86, 75
1, 67899, Control_c, 0, 64, 68
1, 67908, Note_off_c, 0, 84, 59
1, 67914, Control_c, 0, 64, 71
1, 67929, Control_c, 0, 64, 75
1, 67944, Control_c, 0, 64, 78
1, 67959, Control_c, 0, 64, 79
1, 67974, Control_c, 0, 64, 80
1, 67988, Control_c, 0, 64, 81
1, 67995, Note_off_c, 0, 68, 58
1, 68003, Control_c, 0, 64, 83
1, 68012, Note_off_c, 0, 75, 59
1, 68014, Note_on_c, 0, 88, 68
1, 68018, Control_c, 0, 64, 84
1, 68021, Note_off_c, 0, 86, 29
1, 68056, Note_off_c, 0, 88, 62
1, 68063, Control_c, 0, 64, 83
1, 68078, Control_c, 0, 64, 78
1, 68092, Control_c, 0, 64, 68
1, 68096, Note_on_c, 0, 74, 98
1, 68097, Note_on_c, 0, 70, 97
1, 68103, Note_on_c, 0, 89, 81
1, 68107, Control_c, 0, 64, 51
1, 68122, Control_c, 0, 64, 46
1, 68137, Control_c, 0, 64, 63
1, 68152, Control_c, 0, 64, 67
1, 68166, Control_c, 0, 64, 72
1, 68181, Control_c, 0, 64, 76
1, 68203, Control_c, 0, 64, 77
1, 68212, Note_off_c, 0, 89, 37
1, 68214, Note_on_c, 0, 90, 67
1, 68215, Note_off_c, 0, 74, 61
1, 68218, Control_c, 0, 64, 78
1, 68233, Control_c, 0, 64, 80
1, 68248, Control_c, 0, 64, 81
1, 68254, Note_off_c, 0, 70, 58
1, 68265, Note_off_c, 0, 90, 62
1, 68292, Control_c, 0, 64, 80
1, 68301, Note_on_c, 0, 72, 112
1, 68301, Note_on_c, 0, 92, 81
1, 68307, Note_on_c, 0, 65, 100
1, 68307, Control_c, 0, 64, 74
1, 68314, Note_on_c, 0, 71, 73
1, 68315, Note_off_c, 0, 71, 127
1, 68322, Control_c, 0, 64, 57
1, 68332, Note_off_c, 0, 92, 62
1, 68337, Control_c, 0, 64, 0
1, 68391, Note_on_c, 0, 94, 79
1, 68436, Note_off_c, 0, 94, 66
1, 68503, Note_on_c, 0, 95, 57
1, 68544, Control_c, 0, 64, 55
1, 68552, Note_off_c, 0, 95, 66
1, 68559, Control_c, 0, 64, 65
1, 68570, Note_on_c, 0, 84, 91
1, 68573, Control_c, 0, 64, 70
1, 68588, Control_c, 0, 64, 77
1, 68603, Control_c, 0, 64, 82
1, 68606, Note_off_c, 0, 65, 60
1, 68618, Control_c, 0, 64, 84
1, 68632, Control_c, 0, 64, 84
1, 68644, Note_off_c, 0, 72, 58
1, 68659, Note_on_c, 0, 86, 78
1, 68662, Control_c, 0, 64, 85
1, 68665, Note_off_c, 0, 84, 63
1, 68722, Control_c, 0, 64, 85
1, 68729, Note_off_c, 0, 86, 55
1, 68752, Control_c, 0, 64, 86
1, 68767, Note_on_c, 0, 88, 68
1, 68782, Control_c, 0, 64, 86
1, 68793, Note_off_c, 0, 88, 66
1, 68811, Control_c, 0, 64, 86
1, 68837, Note_on_c, 0, 74, 78
1, 68839, Note_on_c, 0, 82, 87
1, 68841, Note_on_c, 0, 89, 88
1, 68841, Control_c, 0, 64, 84
1, 68856, Control_c, 0, 64, 81
1, 68871, Control_c, 0, 64, 75
1, 68881, Note_off_c, 0, 82, 64
1, 68885, Control_c, 0, 64, 66
1, 68889, Note_off_c, 0, 89, 64
1, 68891, Note_off_c, 0, 74, 65
1, 68900, Control_c, 0, 64, 0
1, 68918, Note_on_c, 0, 90, 77
1, 68924, Note_on_c, 0, 72, 73
1, 68930, Note_on_c, 0, 77, 77
1, 68963, Note_off_c, 0, 72, 63
1, 68963, Note_off_c, 0, 90, 63
1, 68966, Note_off_c, 0, 77, 62
1, 69017, Note_on_c, 0, 92, 82
1, 69018, Note_on_c, 0, 70, 79
1, 69025, Note_on_c, 0, 74, 76
1, 69039, Note_off_c, 0, 92, 69
1, 69060, Note_off_c, 0, 70, 58
1, 69098, Note_on_c, 0, 94, 75
1, 69102, Note_on_c, 0, 79, 105
1, 69103, Note_on_c, 0, 75, 92
1, 69118, Note_off_c, 0, 74, 0
1, 69118, Note_on_c, 0, 74, 24
1, 69129, Control_c, 0, 64, 61
1, 69134, Note_off_c, 0, 74, 63
1, 69142, Note_off_c, 0, 94, 67
1, 69144, Control_c, 0, 64, 67
1, 69159, Control_c, 0, 64, 70
1, 69160, Note_off_c, 0, 75, 64
1, 69173, Control_c, 0, 64, 73
1, 69188, Control_c, 0, 64, 77
1, 69191, Note_on_c, 0, 95, 90
1, 69203, Control_c, 0, 64, 78
1, 69218, Control_c, 0, 64, 79
1, 69230, Note_off_c, 0, 79, 51
1, 69247, Note_off_c, 0, 95, 63
1, 69277, Control_c, 0, 64, 79
1, 69285, Note_on_c, 0, 84, 83
1, 69292, Control_c, 0, 64, 80
1, 69307, Control_c, 0, 64, 82
1, 69321, Control_c, 0, 64, 83
1, 69336, Control_c, 0, 64, 84
1, 69375, Note_off_c, 0, 84, 56
1, 69377, Note_on_c, 0, 77, 110
1, 69378, Note_on_c, 0, 70, 100
1, 69380, Note_on_c, 0, 86, 81
1, 69380, Control_c, 0, 64, 83
1, 69395, Control_c, 0, 64, 79
1, 69410, Control_c, 0, 64, 68
1, 69425, Control_c, 0, 64, 0
1, 69445, Note_off_c, 0, 86, 55
1, 69488, Note_on_c, 0, 88, 73
1, 69515, Control_c, 0, 64, 57
1, 69527, Note_off_c, 0, 88, 62
1, 69530, Control_c, 0, 64, 65
1, 69544, Control_c, 0, 64, 68
1, 69559, Control_c, 0, 64, 70
1, 69565, Note_off_c, 0, 70, 55
1, 69574, Control_c, 0, 64, 72
1, 69583, Note_on_c, 0, 89, 79
1, 69589, Control_c, 0, 64, 75
1, 69604, Control_c, 0, 64, 76
1, 69619, Control_c, 0, 64, 77
1, 69634, Control_c, 0, 64, 78
1, 69649, Control_c, 0, 64, 78
1, 69663, Control_c, 0, 64, 79
1, 69674, Note_off_c, 0, 89, 39
1, 69678, Note_off_c, 0, 77, 28
1, 69678, Control_c, 0, 64, 79
1, 69683, Note_on_c, 0, 90, 66
1, 69700, Control_c, 0, 64, 80
1, 69715, Control_c, 0, 64, 81
1, 69725, Note_off_c, 0, 90, 64
1, 69730, Control_c, 0, 64, 82
1, 69769, Note_on_c, 0, 80, 93
1, 69772, Note_on_c, 0, 76, 81
1, 69777, Note_on_c, 0, 92, 86
1, 69801, Note_off_c, 0, 92, 66
1, 69804, Control_c, 0, 64, 81
1, 69813, Note_off_c, 0, 80, 66
1, 69819, Control_c, 0, 64, 77
1, 69834, Control_c, 0, 64, 71
1, 69839, Note_off_c, 0, 76, 64
1, 69843, Note_on_c, 0, 78, 86
1, 69848, Control_c, 0, 64, 60
1, 69863, Control_c, 0, 64, 0
1, 69865, Note_on_c, 0, 94, 81
1, 69870, Note_on_c, 0, 71, 45
1, 69903, Note_off_c, 0, 94, 63
1, 69914, Note_off_c, 0, 78, 60
1, 69923, Note_off_c, 0, 71, 42
1, 69937, Note_on_c, 0, 76, 76
1, 69940, Note_on_c, 0, 80, 86
1, 69952, Note_on_c, 0, 95, 86
1, 69977, Note_off_c, 0, 76, 66
1, 69986, Note_off_c, 0, 80, 63
1, 69996, Note_off_c, 0, 95, 66
1, 70027, Note_on_c, 0, 77, 103
1, 70036, Note_on_c, 0, 84, 89
1, 70085, Control_c, 0, 64, 52
1, 70100, Control_c, 0, 64, 74
1, 70115, Control_c, 0, 64, 83
1, 70129, Note_on_c, 0, 86, 81
1, 70130, Control_c, 0, 64, 89
1, 70132, Note_off_c, 0, 84, 57
1, 70144, Control_c, 0, 64, 90
1, 70159, Control_c, 0, 64, 92
1, 70174, Control_c, 0, 64, 96
1, 70189, Control_c, 0, 64, 101
1, 70203, Control_c, 0, 64, 109
1, 70218, Control_c, 0, 64, 122
1, 70233, Control_c, 0, 64, 127
1, 70244, Note_on_c, 0, 88, 69
1, 70273, Note_off_c, 0, 88, 65
1, 70280, Note_off_c, 0, 86, 35
1, 70293, Control_c, 0, 64, 113
1, 70305, Note_on_c, 0, 80, 110
1, 70305, Note_off_c, 0, 77, 0
1, 70308, Control_c, 0, 64, 91
1, 70310, Note_on_c, 0, 73, 91
1, 70321, Note_on_c, 0, 89, 89
1, 70323, Control_c, 0, 64, 67
1, 70330, Note_on_c, 0, 77, 25
1, 70338, Control_c, 0, 64, 0
1, 70349, Note_off_c, 0, 77, 35
1, 70378, Note_off_c, 0, 89, 61
1, 70397, Control_c, 0, 64, 60
1, 70412, Control_c, 0, 64, 75
1, 70421, Note_on_c, 0, 90, 79
1, 70427, Control_c, 0, 64, 93
1, 70449, Control_c, 0, 64, 104
1, 70478, Note_off_c, 0, 90, 65
1, 70512, Note_on_c, 0, 92, 80
1, 70538, Note_off_c, 0, 92, 64
1, 70568, Note_off_c, 0, 73, 55
1, 70605, Note_on_c, 0, 94, 73
1, 70628, Note_off_c, 0, 94, 69
1, 70657, Note_off_c, 0, 80, 42
1, 70692, Note_on_c, 0, 95, 76
1, 70742, Note_off_c, 0, 95, 66
1, 70780, Note_on_c, 0, 84, 81
1, 70835, Note_on_c, 0, 81, 83
1, 70840, Note_on_c, 0, 77, 74
1, 70859, Note_on_c, 0, 86, 80
1, 70860, Note_off_c, 0, 81, 63
1, 70868, Note_off_c, 0, 84, 62
1, 70888, Note_off_c, 0, 77, 60
1, 70908, Control_c, 0, 64, 103
1, 70923, Control_c, 0, 64, 100
1, 70930, Note_on_c, 0, 79, 94
1, 70935, Note_off_c, 0, 86, 0
1, 70936, Note_on_c, 0, 72, 78
1, 70938, Control_c, 0, 64, 94
1, 70953, Control_c, 0, 64, 83
1, 70954, Note_on_c, 0, 86, 38
1, 70955, Note_on_c, 0, 88, 81
1, 70967, Note_off_c, 0, 79, 65
1, 70967, Control_c, 0, 64, 66
1, 70977, Note_off_c, 0, 72, 61
1, 70981, Note_off_c, 0, 86, 51
1, 70982, Control_c, 0, 64, 0
1, 70987, Note_off_c, 0, 88, 60
1, 71023, Note_on_c, 0, 77, 98
1, 71026, Note_on_c, 0, 69, 83
1, 71032, Note_on_c, 0, 89, 91
1, 71072, Control_c, 0, 64, 53
1, 71087, Control_c, 0, 64, 63
1, 71088, Note_off_c, 0, 77, 56
1, 71102, Control_c, 0, 64, 65
1, 71115, Note_on_c, 0, 74, 86
1, 71116, Control_c, 0, 64, 66
1, 71120, Note_on_c, 0, 90, 80
1, 71120, Note_off_c, 0, 69, 65
1, 71121, Note_off_c, 0, 89, 43
1, 71130, Control_c, 0, 64, 69
1, 71145, Control_c, 0, 64, 72
1, 71160, Control_c, 0, 64, 77
1, 71167, Note_off_c, 0, 74, 67
1, 71172, Note_off_c, 0, 90, 65
1, 71175, Control_c, 0, 64, 80
1, 71197, Control_c, 0, 64, 82
1, 71212, Control_c, 0, 64, 82
1, 71223, Note_on_c, 0, 92, 75
1, 71254, Note_off_c, 0, 92, 63
1, 71286, Control_c, 0, 64, 81
1, 71301, Control_c, 0, 64, 74
1, 71307, Note_on_c, 0, 94, 88
1, 71313, Note_on_c, 0, 66, 98
1, 71315, Note_on_c, 0, 73, 101
1, 71316, Control_c, 0, 64, 63
1, 71330, Control_c, 0, 64, 0
1, 71345, Control_c, 0, 64, 40
1, 71353, Note_off_c, 0, 94, 68
1, 71360, Control_c, 0, 64, 63
1, 71363, Note_off_c, 0, 73, 62
1, 71375, Note_off_c, 0, 66, 64
1, 71375, Control_c, 0, 64, 69
1, 71390, Control_c, 0, 64, 76
1, 71400, Note_on_c, 0, 95, 84
1, 71405, Control_c, 0, 64, 81
1, 71419, Control_c, 0, 64, 82
1, 71434, Control_c, 0, 64, 83
1, 71449, Control_c, 0, 64, 84
1, 71464, Control_c, 0, 64, 84
1, 71470, Note_off_c, 0, 95, 63
1, 71479, Control_c, 0, 64, 86
1, 71494, Control_c, 0, 64, 89
1, 71496, Note_on_c, 0, 84, 84
1, 71509, Control_c, 0, 64, 93
1, 71523, Control_c, 0, 64, 96
1, 71538, Control_c, 0, 64, 97
1, 71567, Control_c, 0, 64, 96
1, 71579, Note_on_c, 0, 70, 108
1, 71582, Note_on_c, 0, 86, 88
1, 71582, Control_c, 0, 64, 85
1, 71586, Note_on_c, 0, 62, 93
1, 71590, Note_off_c, 0, 84, 61
1, 71597, Control_c, 0, 64, 64
1, 71612, Control_c, 0, 64, 0
1, 71676, Note_on_c, 0, 88, 80
1, 71701, Note_off_c, 0, 86, 61
1, 71701, Control_c, 0, 64, 60
1, 71715, Control_c, 0, 64, 63
1, 71716, Note_off_c, 0, 88, 62
1, 71730, Control_c, 0, 64, 66
1, 71745, Control_c, 0, 64, 70
1, 71759, Control_c, 0, 64, 76
1, 71765, Note_on_c, 0, 89, 80
1, 71774, Control_c, 0, 64, 83
1, 71778, Note_off_c, 0, 70, 55
1, 71789, Control_c, 0, 64, 86
1, 71794, Note_off_c, 0, 62, 61
1, 71804, Control_c, 0, 64, 86
1, 71819, Control_c, 0, 64, 87
1, 71834, Control_c, 0, 64, 87
1, 71849, Control_c, 0, 64, 88
1, 71860, Note_on_c, 0, 90, 68
1, 71860, Note_off_c, 0, 89, 63
1, 71864, Control_c, 0, 64, 88
1, 71880, Control_c, 0, 64, 89
1, 71895, Control_c, 0, 64, 89
1, 71910, Control_c, 0, 64, 90
1, 71925, Control_c, 0, 64, 91
1, 71944, Note_off_c, 0, 90, 48
1, 71947, Control_c, 0, 64, 92
1, 71961, Note_on_c, 0, 92, 66
1, 71962, Control_c, 0, 64, 93
1, 71977, Control_c, 0, 64, 93
1, 71992, Control_c, 0, 64, 94
1, 71992, Note_off_c, 0, 92, 60
1, 72007, Control_c, 0, 64, 94
1, 72021, Control_c, 0, 64, 95
1, 72036, Control_c, 0, 64, 96
1, 72051, Control_c, 0, 64, 97
1, 72058, Note_on_c, 0, 94, 59
1, 72066, Control_c, 0, 64, 98
1, 72080, Control_c, 0, 64, 100
1, 72089, Note_off_c, 0, 94, 68
1, 72095, Control_c, 0, 64, 102
1, 72110, Control_c, 0, 64, 106
1, 72125, Control_c, 0, 64, 110
1, 72140, Control_c, 0, 64, 112
1, 72162, Note_on_c, 0, 95, 29
1, 72183, Note_off_c, 0, 95, 47
1, 72184, Control_c, 0, 64, 107
1, 72198, Control_c, 0, 64, 97
1, 72213, Control_c, 0, 64, 85
1, 72221, Note_on_c, 0, 36, 59
1, 72228, Control_c, 0, 64, 70
1, 72243, Control_c, 0, 64, 0
1, 72284, Note_off_c, 0, 36, 58
1, 72287, Control_c, 0, 67, 9
1, 72302, Control_c, 0, 67, 24
1, 72317, Control_c, 0, 67, 47
1, 72321, Note_on_c, 0, 38, 45
1, 72332, Control_c, 0, 67, 62
1, 72346, Control_c, 0, 67, 68
1, 72364, Note_off_c, 0, 38, 58
1, 72391, Control_c, 0, 67, 68
1, 72394, Note_on_c, 0, 40, 49
1, 72406, Control_c, 0, 67, 71
1, 72421, Control_c, 0, 67, 77
1, 72433, Note_off_c, 0, 40, 64
1, 72436, Control_c, 0, 67, 84
1, 72451, Control_c, 0, 67, 89
1, 72465, Control_c, 0, 67, 90
1, 72473, Note_on_c, 0, 41, 64
1, 72480, Control_c, 0, 67, 90
1, 72495, Control_c, 0, 67, 93
1, 72510, Control_c, 0, 67, 101
1, 72525, Control_c, 0, 67, 111
1, 72539, Control_c, 0, 67, 120
1, 72544, Note_off_c, 0, 41, 58
1, 72554, Control_c, 0, 67, 125
1, 72569, Control_c, 0, 67, 127
1, 72581, Note_on_c, 0, 42, 38
1, 72640, Note_off_c, 0, 42, 49
1, 72661, Note_on_c, 0, 44, 50
1, 72675, Note_on_c, 0, 60, 68
1, 72716, Note_off_c, 0, 44, 60
1, 72726, Note_off_c, 0, 60, 53
1, 72763, Note_on_c, 0, 46, 42
1, 72780, Note_on_c, 0, 62, 61
1, 72791, Note_off_c, 0, 46, 56
1, 72814, Note_off_c, 0, 62, 62
1, 72845, Note_on_c, 0, 47, 46
1, 72856, Note_on_c, 0, 55, 57
1, 72901, Note_off_c, 0, 47, 48
1, 72904, Note_off_c, 0, 55, 56
1, 72944, Note_on_c, 0, 56, 57
1, 72949, Note_on_c, 0, 63, 63
1, 72958, Note_on_c, 0, 36, 48
1, 73014, Note_off_c, 0, 36, 57
1, 73020, Note_off_c, 0, 56, 51
1, 73081, Note_on_c, 0, 38, 20
1, 73122, Note_off_c, 0, 38, 49
1, 73132, Note_off_c, 0, 63, 57
1, 73137, Note_on_c, 0, 40, 45
1, 73143, Note_on_c, 0, 57, 48
1, 73144, Note_on_c, 0, 61, 55
1, 73169, Note_off_c, 0, 40, 59
1, 73229, Note_on_c, 0, 41, 38
1, 73327, Note_off_c, 0, 41, 53
1, 73330, Note_off_c, 0, 57, 43
1, 73330, Note_off_c, 0, 61, 58
1, 73338, Note_on_c, 0, 51, 45
1, 73340, Note_on_c, 0, 59, 57
1, 73361, Note_on_c, 0, 42, 32
1, 73423, Note_off_c, 0, 42, 44
1, 73463, Note_on_c, 0, 44, 40
1, 73490, Note_off_c, 0, 59, 62
1, 73502, Note_off_c, 0, 44, 61
1, 73524, Note_off_c, 0, 51, 60
1, 73539, Note_on_c, 0, 46, 49
1, 73568, Note_off_c, 0, 46, 61
1, 73616, Note_on_c, 0, 47, 53
1, 73684, Note_off_c, 0, 47, 61
1, 73714, Note_on_c, 0, 64, 61
1, 73724, Note_on_c, 0, 36, 60
1, 73787, Note_on_c, 0, 66, 77
1, 73791, Note_off_c, 0, 64, 62
1, 73797, Note_off_c, 0, 36, 58
1, 73821, Note_on_c, 0, 38, 47
1, 73861, Note_off_c, 0, 66, 59
1, 73881, Note_on_c, 0, 56, 69
1, 73884, Note_off_c, 0, 38, 54
1, 73903, Note_on_c, 0, 40, 48
1, 73915, Note_off_c, 0, 56, 65
1, 73939, Note_off_c, 0, 40, 64
1, 73977, Control_c, 0, 67, 126
1, 73980, Note_on_c, 0, 60, 66
1, 73983, Note_on_c, 0, 41, 51
1, 73992, Note_on_c, 0, 57, 50
1, 74007, Control_c, 0, 67, 126
1, 74022, Control_c, 0, 67, 125
1, 74047, Note_off_c, 0, 41, 42
1, 74096, Control_c, 0, 67, 125
1, 74101, Note_on_c, 0, 42, 43
1, 74111, Control_c, 0, 67, 124
1, 74113, Note_off_c, 0, 57, 48
1, 74126, Control_c, 0, 67, 124
1, 74141, Control_c, 0, 67, 123
1, 74156, Control_c, 0, 67, 123
1, 74157, Note_off_c, 0, 42, 53
1, 74170, Control_c, 0, 67, 122
1, 74180, Note_off_c, 0, 60, 55
1, 74192, Control_c, 0, 67, 121
1, 74199, Note_on_c, 0, 59, 61
1, 74207, Control_c, 0, 67, 120
1, 74211, Note_on_c, 0, 44, 40
1, 74212, Note_on_c, 0, 52, 43
1, 74222, Control_c, 0, 67, 120
1, 74237, Control_c, 0, 67, 119
1, 74251, Note_off_c, 0, 52, 62
1, 74251, Control_c, 0, 67, 118
1, 74268, Note_off_c, 0, 44, 58
1, 74282, Control_c, 0, 67, 118
1, 74312, Control_c, 0, 67, 117
1, 74321, Note_on_c, 0, 46, 36
1, 74353, Note_off_c, 0, 46, 57
1, 74400, Note_on_c, 0, 55, 51
1, 74403, Note_on_c, 0, 50, 44
1, 74408, Note_on_c, 0, 47, 38
1, 74427, Note_off_c, 0, 59, 45
1, 74430, Control_c, 0, 67, 118
1, 74479, Note_off_c, 0, 47, 49
1, 74505, Control_c, 0, 67, 117
1, 74520, Control_c, 0, 67, 116
1, 74523, Note_on_c, 0, 36, 51
1, 74534, Control_c, 0, 67, 116
1, 74549, Control_c, 0, 67, 114
1, 74549, Note_off_c, 0, 50, 37
1, 74564, Control_c, 0, 67, 110
1, 74579, Control_c, 0, 67, 103
1, 74586, Note_off_c, 0, 36, 58
1, 74593, Control_c, 0, 67, 97
1, 74594, Note_off_c, 0, 55, 62
1, 74608, Control_c, 0, 67, 91
1, 74621, Note_on_c, 0, 38, 49
1, 74623, Control_c, 0, 67, 84
1, 74638, Control_c, 0, 67, 77
1, 74653, Control_c, 0, 67, 70
1, 74667, Control_c, 0, 67, 63
1, 74682, Control_c, 0, 67, 57
1, 74693, Note_off_c, 0, 38, 56
1, 74697, Control_c, 0, 67, 51
1, 74712, Control_c, 0, 67, 46
1, 74713, Note_on_c, 0, 40, 48
1, 74727, Control_c, 0, 67, 41
1, 74741, Control_c, 0, 67, 36
1, 74751, Note_off_c, 0, 40, 64
1, 74756, Control_c, 0, 67, 32
1, 74771, Control_c, 0, 67, 27
1, 74785, Control_c, 0, 67, 22
1, 74789, Note_on_c, 0, 41, 64
1, 74793, Note_on_c, 0, 57, 69
1, 74800, Control_c, 0, 67, 18
1, 74815, Control_c, 0, 67, 15
1, 74830, Control_c, 0, 67, 12
1, 74845, Control_c, 0, 67, 10
1, 74846, Note_off_c, 0, 41, 56
1, 74850, Note_off_c, 0, 57, 53
1, 74859, Control_c, 0, 67, 8
1, 74869, Note_on_c, 0, 42, 60
1, 74874, Control_c, 0, 67, 0
1, 74877, Note_on_c, 0, 62, 73
1, 74915, Note_off_c, 0, 62, 57
1, 74916, Note_off_c, 0, 42, 61
1, 74958, Note_on_c, 0, 60, 74
1, 74966, Note_on_c, 0, 44, 61
1, 75024, Note_off_c, 0, 44, 59
1, 75038, Note_off_c, 0, 60, 39
1, 75050, Note_on_c, 0, 65, 71
1, 75051, Note_on_c, 0, 62, 66
1, 75073, Note_on_c, 0, 46, 59
1, 75105, Control_c, 0, 67, 8
1, 75111, Note_off_c, 0, 46, 64
1, 75120, Control_c, 0, 67, 8
1, 75126, Note_off_c, 0, 62, 59
1, 75135, Control_c, 0, 67, 9
1, 75150, Control_c, 0, 67, 10
1, 75164, Control_c, 0, 67, 11
1, 75172, Note_on_c, 0, 47, 54
1, 75179, Control_c, 0, 67, 12
1, 75194, Control_c, 0, 67, 12
1, 75209, Control_c, 0, 67, 13
1, 75238, Control_c, 0, 67, 14
1, 75253, Control_c, 0, 67, 14
1, 75256, Note_off_c, 0, 47, 59
1, 75259, Note_on_c, 0, 64, 69
1, 75265, Note_on_c, 0, 58, 63
1, 75268, Control_c, 0, 67, 15
1, 75283, Control_c, 0, 67, 15
1, 75285, Note_on_c, 0, 36, 44
1, 75298, Control_c, 0, 67, 17
1, 75312, Control_c, 0, 67, 17
1, 75319, Note_off_c, 0, 65, 55
1, 75327, Control_c, 0, 67, 18
1, 75342, Control_c, 0, 67, 17
1, 75346, Note_off_c, 0, 36, 59
1, 75357, Control_c, 0, 67, 17
1, 75360, Note_on_c, 0, 38, 45
1, 75387, Control_c, 0, 67, 16
1, 75402, Control_c, 0, 67, 16
1, 75416, Control_c, 0, 67, 15
1, 75429, Note_off_c, 0, 38, 51
1, 75431, Control_c, 0, 67, 14
1, 75446, Note_on_c, 0, 40, 55
1, 75446, Control_c, 0, 67, 14
1, 75453, Note_off_c, 0, 64, 65
1, 75461, Control_c, 0, 67, 13
1, 75487, Note_off_c, 0, 58, 65
1, 75488, Note_off_c, 0, 40, 63
1, 75505, Control_c, 0, 67, 13
1, 75527, Note_on_c, 0, 41, 62
1, 75535, Control_c, 0, 67, 12
1, 75550, Note_on_c, 0, 61, 71
1, 75584, Note_off_c, 0, 61, 60
1, 75587, Note_off_c, 0, 41, 51
1, 75617, Note_on_c, 0, 42, 57
1, 75634, Note_on_c, 0, 58, 74
1, 75664, Note_off_c, 0, 42, 60
1, 75667, Note_off_c, 0, 58, 66
1, 75668, Control_c, 0, 67, 13
1, 75690, Control_c, 0, 67, 13
1, 75719, Note_on_c, 0, 64, 76
1, 75720, Control_c, 0, 67, 14
1, 75726, Note_on_c, 0, 44, 52
1, 75735, Control_c, 0, 67, 14
1, 75764, Control_c, 0, 67, 15
1, 75775, Note_off_c, 0, 44, 59
1, 75779, Control_c, 0, 67, 15
1, 75794, Control_c, 0, 67, 16
1, 75809, Control_c, 0, 67, 16
1, 75812, Note_on_c, 0, 62, 75
1, 75816, Note_on_c, 0, 46, 60
1, 75819, Note_on_c, 0, 53, 62
1, 75819, Note_off_c, 0, 64, 56
1, 75838, Control_c, 0, 67, 17
1, 75853, Control_c, 0, 67, 18
1, 75861, Note_off_c, 0, 46, 63
1, 75869, Control_c, 0, 67, 19
1, 75884, Control_c, 0, 67, 20
1, 75899, Control_c, 0, 67, 22
1, 75913, Control_c, 0, 67, 24
1, 75920, Note_on_c, 0, 47, 56
1, 75928, Control_c, 0, 67, 27
1, 75943, Control_c, 0, 67, 30
1, 75958, Control_c, 0, 67, 35
1, 75973, Control_c, 0, 67, 41
1, 75987, Control_c, 0, 67, 47
1, 76002, Control_c, 0, 67, 53
1, 76011, Note_off_c, 0, 47, 62
1, 76017, Control_c, 0, 67, 60
1, 76020, Note_off_c, 0, 62, 62
1, 76031, Note_on_c, 0, 36, 56
1, 76032, Control_c, 0, 67, 66
1, 76046, Control_c, 0, 67, 72
1, 76061, Control_c, 0, 67, 75
1, 76076, Control_c, 0, 67, 76
1, 76081, Note_off_c, 0, 53, 60
1, 76091, Control_c, 0, 67, 76
1, 76102, Note_on_c, 0, 60, 72
1, 76105, Note_off_c, 0, 36, 56
1, 76108, Note_on_c, 0, 54, 57
1, 76120, Control_c, 0, 67, 75
1, 76132, Note_on_c, 0, 38, 39
1, 76135, Control_c, 0, 67, 75
1, 76150, Control_c, 0, 67, 74
1, 76165, Control_c, 0, 67, 74
1, 76180, Control_c, 0, 67, 73
1, 76188, Note_off_c, 0, 38, 57
1, 76195, Control_c, 0, 67, 73
1, 76210, Control_c, 0, 67, 72
1, 76218, Note_on_c, 0, 40, 41
1, 76239, Control_c, 0, 67, 71
1, 76250, Note_off_c, 0, 40, 57
1, 76269, Control_c, 0, 67, 70
1, 76284, Control_c, 0, 67, 70
1, 76293, Note_on_c, 0, 41, 56
1, 76299, Control_c, 0, 67, 69
1, 76328, Control_c, 0, 67, 68
1, 76343, Control_c, 0, 67, 67
1, 76357, Control_c, 0, 67, 66
1, 76366, Note_off_c, 0, 41, 56
1, 76372, Control_c, 0, 67, 66
1, 76387, Control_c, 0, 67, 65
1, 76392, Note_on_c, 0, 42, 48
1, 76402, Control_c, 0, 67, 64
1, 76409, Note_off_c, 0, 54, 60
1, 76417, Control_c, 0, 67, 62
1, 76439, Control_c, 0, 67, 60
1, 76442, Note_off_c, 0, 60, 61
1, 76454, Control_c, 0, 67, 55
1, 76456, Note_off_c, 0, 42, 56
1, 76469, Control_c, 0, 67, 50
1, 76484, Control_c, 0, 67, 44
1, 76499, Control_c, 0, 67, 38
1, 76501, Note_on_c, 0, 44, 51
1, 76511, Note_on_c, 0, 52, 74
1, 76513, Control_c, 0, 67, 34
1, 76528, Control_c, 0, 67, 31
1, 76543, Control_c, 0, 67, 28
1, 76549, Note_off_c, 0, 44, 60
1, 76553, Note_off_c, 0, 52, 66
1, 76558, Control_c, 0, 67, 24
1, 76572, Control_c, 0, 67, 22
1, 76587, Control_c, 0, 67, 19
1, 76591, Note_on_c, 0, 50, 70
1, 76597, Note_on_c, 0, 46, 56
1, 76602, Control_c, 0, 67, 16
1, 76617, Control_c, 0, 67, 12
1, 76631, Control_c, 0, 67, 0
1, 76639, Note_off_c, 0, 46, 63
1, 76639, Note_off_c, 0, 50, 58
1, 76671, Note_on_c, 0, 55, 69
1, 76692, Note_on_c, 0, 47, 63
1, 76699, Note_off_c, 0, 55, 67
1, 76747, Note_off_c, 0, 47, 61
1, 76768, Note_on_c, 0, 56, 71
1, 76794, Note_on_c, 0, 36, 56
1, 76812, Note_off_c, 0, 56, 53
1, 76841, Note_on_c, 0, 54, 67
1, 76865, Note_off_c, 0, 36, 59
1, 76895, Note_off_c, 0, 54, 60
1, 76898, Note_on_c, 0, 38, 42
1, 76943, Note_on_c, 0, 60, 72
1, 76952, Note_off_c, 0, 38, 56
1, 76966, Note_on_c, 0, 40, 51
1, 76988, Note_off_c, 0, 60, 54
1, 77002, Note_off_c, 0, 40, 64
1, 77032, Note_on_c, 0, 57, 72
1, 77044, Note_on_c, 0, 41, 59
1, 77125, Note_off_c, 0, 41, 60
1, 77135, Note_on_c, 0, 42, 61
1, 77223, Note_on_c, 0, 59, 75
1, 77224, Note_on_c, 0, 64, 76
1, 77237, Note_on_c, 0, 44, 63
1, 77248, Note_off_c, 0, 57, 52
1, 77264, Note_off_c, 0, 42, 38
1, 77334, Note_off_c, 0, 44, 59
1, 77338, Note_off_c, 0, 64, 62
1, 77347, Note_on_c, 0, 46, 67
1, 77408, Note_off_c, 0, 46, 61
1, 77419, Note_on_c, 0, 63, 78
1, 77430, Note_off_c, 0, 59, 60
1, 77446, Note_on_c, 0, 47, 65
1, 77480, Note_off_c, 0, 63, 63
1, 77496, Note_off_c, 0, 47, 62
1, 77511, Note_on_c, 0, 56, 80
1, 77544, Note_on_c, 0, 36, 70
1, 77584, Note_on_c, 0, 66, 80
1, 77584, Note_off_c, 0, 56, 60
1, 77625, Note_off_c, 0, 36, 59
1, 77637, Note_on_c, 0, 38, 57
1, 77655, Note_off_c, 0, 66, 66
1, 77678, Note_on_c, 0, 55, 75
1, 77683, Note_on_c, 0, 60, 77
1, 77711, Note_on_c, 0, 40, 64
1, 77718, Note_off_c, 0, 38, 57
1, 77744, Note_off_c, 0, 55, 58
1, 77773, Note_off_c, 0, 40, 62
1, 77797, Note_off_c, 0, 60, 64
1, 77806, Note_on_c, 0, 41, 67
1, 77870, Note_on_c, 0, 69, 89
1, 77878, Note_on_c, 0, 62, 82
1, 77888, Note_off_c, 0, 41, 61
1, 77899, Note_on_c, 0, 42, 59
1, 77997, Note_off_c, 0, 42, 56
1, 77997, Note_off_c, 0, 69, 61
1, 78004, Note_on_c, 0, 44, 57
1, 78066, Note_off_c, 0, 44, 58
1, 78078, Note_on_c, 0, 66, 84
1, 78080, Note_on_c, 0, 61, 82
1, 78082, Note_off_c, 0, 62, 61
1, 78102, Note_on_c, 0, 46, 58
1, 78145, Note_off_c, 0, 46, 64
1, 78174, Control_c, 0, 67, 8
1, 78189, Control_c, 0, 67, 10
1, 78190, Note_on_c, 0, 47, 64
1, 78203, Control_c, 0, 67, 12
1, 78218, Control_c, 0, 67, 12
1, 78233, Control_c, 0, 67, 12
1, 78243, Note_off_c, 0, 47, 60
1, 78255, Note_off_c, 0, 61, 59
1, 78264, Control_c, 0, 67, 11
1, 78278, Note_on_c, 0, 36, 62
1, 78278, Control_c, 0, 67, 10
1, 78293, Control_c, 0, 67, 10
1, 78308, Control_c, 0, 67, 9
1, 78338, Control_c, 0, 67, 8
1, 78346, Note_off_c, 0, 66, 62
1, 78356, Note_off_c, 0, 36, 56
1, 78371, Note_on_c, 0, 65, 75
1, 78380, Note_on_c, 0, 58, 65
1, 78381, Note_on_c, 0, 38, 46
1, 78412, Control_c, 0, 67, 9
1, 78427, Control_c, 0, 67, 9
1, 78441, Control_c, 0, 67, 10
1, 78450, Note_off_c, 0, 38, 56
1, 78456, Control_c, 0, 67, 10
1, 78469, Note_on_c, 0, 40, 53
1, 78471, Control_c, 0, 67, 11
1, 78486, Control_c, 0, 67, 11
1, 78501, Control_c, 0, 64, 62
1, 78501, Control_c, 0, 67, 12
1, 78509, Note_off_c, 0, 58, 62
1, 78515, Control_c, 0, 64, 68
1, 78515, Control_c, 0, 67, 12
1, 78516, Note_off_c, 0, 40, 62
1, 78530, Control_c, 0, 64, 74
1, 78530, Control_c, 0, 67, 13
1, 78545, Control_c, 0, 64, 81
1, 78545, Control_c, 0, 67, 14
1, 78559, Note_on_c, 0, 41, 60
1, 78559, Control_c, 0, 64, 85
1, 78559, Control_c, 0, 67, 15
1, 78574, Control_c, 0, 64, 86
1, 78574, Control_c, 0, 67, 18
1, 78589, Control_c, 0, 64, 87
1, 78589, Control_c, 0, 67, 20
1, 78604, Control_c, 0, 64, 88
1, 78604, Control_c, 0, 67, 21
1, 78620, Control_c, 0, 64, 89
1, 78620, Control_c, 0, 67, 24
1, 78634, Control_c, 0, 64, 90
1, 78634, Control_c, 0, 67, 28
1, 78649, Control_c, 0, 64, 90
1, 78649, Control_c, 0, 67, 32
1, 78650, Note_off_c, 0, 65, 65
1, 78657, Note_off_c, 0, 41, 60
1, 78664, Control_c, 0, 67, 36
1, 78683, Note_on_c, 0, 42, 49
1, 78687, Control_c, 0, 67, 40
1, 78702, Control_c, 0, 67, 44
1, 78716, Control_c, 0, 64, 90
1, 78716, Control_c, 0, 67, 48
1, 78731, Control_c, 0, 67, 53
1, 78746, Control_c, 0, 64, 88
1, 78746, Control_c, 0, 67, 60
1, 78760, Control_c, 0, 64, 84
1, 78760, Control_c, 0, 67, 67
1, 78771, Note_off_c, 0, 42, 56
1, 78774, Note_on_c, 0, 77, 75
1, 78775, Control_c, 0, 64, 77
1, 78775, Control_c, 0, 67, 74
1, 78782, Note_on_c, 0, 44, 52
1, 78785, Note_on_c, 0, 73, 69
1, 78790, Control_c, 0, 64, 66
1, 78790, Control_c, 0, 67, 80
1, 78805, Control_c, 0, 64, 0
1, 78805, Control_c, 0, 67, 83
1, 78806, Note_off_c, 0, 77, 47
1, 78812, Note_off_c, 0, 73, 60
1, 78820, Control_c, 0, 67, 85
1, 78833, Note_off_c, 0, 44, 60
1, 78834, Control_c, 0, 67, 87
1, 78849, Control_c, 0, 67, 88
1, 78869, Note_on_c, 0, 68, 72
1, 78871, Note_on_c, 0, 75, 69
1, 78878, Note_on_c, 0, 46, 50
1, 78879, Control_c, 0, 67, 88
1, 78894, Control_c, 0, 67, 89
1, 78902, Note_off_c, 0, 68, 59
1, 78908, Control_c, 0, 67, 91
1, 78916, Note_off_c, 0, 46, 62
1, 78923, Control_c, 0, 67, 92
1, 78953, Control_c, 0, 67, 92
1, 78955, Note_on_c, 0, 65, 62
1, 78958, Note_on_c, 0, 73, 71
1, 78961, Note_off_c, 0, 75, 62
1, 78967, Control_c, 0, 67, 93
1, 78974, Note_on_c, 0, 47, 56
1, 78982, Control_c, 0, 67, 94
1, 78990, Note_off_c, 0, 65, 63
1, 78997, Control_c, 0, 67, 97
1, 79012, Control_c, 0, 67, 102
1, 79025, Note_off_c, 0, 47, 61
1, 79027, Control_c, 0, 67, 104
1, 79042, Control_c, 0, 67, 106
1, 79057, Control_c, 0, 67, 107
1, 79059, Note_on_c, 0, 68, 64
1, 79061, Note_on_c, 0, 75, 67
1, 79064, Note_off_c, 0, 73, 28
1, 79072, Control_c, 0, 67, 109
1, 79073, Note_on_c, 0, 36, 51
1, 79087, Control_c, 0, 67, 113
1, 79102, Control_c, 0, 64, 58
1, 79102, Control_c, 0, 67, 116
1, 79117, Control_c, 0, 64, 66
1, 79117, Control_c, 0, 67, 117
1, 79131, Control_c, 0, 64, 69
1, 79131, Control_c, 0, 67, 118
1, 79137, Note_off_c, 0, 36, 54
1, 79146, Control_c, 0, 64, 73
1, 79149, Note_off_c, 0, 75, 60
1, 79158, Note_off_c, 0, 68, 63
1, 79161, Control_c, 0, 64, 76
1, 79176, Control_c, 0, 64, 78
1, 79188, Note_on_c, 0, 38, 41
1, 79191, Control_c, 0, 64, 79
1, 79235, Control_c, 0, 67, 117
1, 79238, Note_off_c, 0, 38, 56
1, 79250, Note_on_c, 0, 72, 79
1, 79261, Note_on_c, 0, 67, 60
1, 79263, Note_on_c, 0, 40, 45
1, 79295, Control_c, 0, 64, 78
1, 79307, Note_off_c, 0, 40, 48
1, 79324, Control_c, 0, 64, 78
1, 79339, Control_c, 0, 64, 77
1, 79354, Control_c, 0, 64, 77
1, 79355, Note_on_c, 0, 41, 53
1, 79358, Note_off_c, 0, 67, 62
1, 79359, Note_off_c, 0, 72, 62
1, 79382, Control_c, 0, 64, 76
1, 79397, Control_c, 0, 64, 76
1, 79412, Control_c, 0, 64, 75
1, 79435, Control_c, 0, 64, 75
1, 79450, Control_c, 0, 64, 74
1, 79459, Note_on_c, 0, 69, 69
1, 79463, Note_on_c, 0, 62, 61
1, 79465, Control_c, 0, 64, 72
1, 79465, Note_off_c, 0, 41, 59
1, 79480, Control_c, 0, 64, 68
1, 79492, Note_on_c, 0, 42, 44
1, 79495, Control_c, 0, 64, 61
1, 79495, Control_c, 0, 67, 117
1, 79510, Control_c, 0, 64, 29
1, 79525, Control_c, 0, 64, 0
1, 79583, Control_c, 0, 67, 116
1, 79592, Note_off_c, 0, 42, 58
1, 79607, Note_on_c, 0, 44, 45
1, 79652, Note_off_c, 0, 69, 60
1, 79659, Note_on_c, 0, 67, 60
1, 79663, Note_off_c, 0, 62, 57
1, 79677, Note_on_c, 0, 63, 45
1, 79677, Note_off_c, 0, 44, 58
1, 79724, Note_on_c, 0, 46, 29
1, 79756, Note_off_c, 0, 46, 47
1, 79778, Note_on_c, 0, 47, 56
1, 79805, Control_c, 0, 67, 115
1, 79820, Control_c, 0, 67, 115
1, 79835, Control_c, 0, 67, 113
1, 79850, Control_c, 0, 67, 112
1, 79866, Control_c, 0, 67, 110
1, 79871, Note_off_c, 0, 47, 37
1, 79880, Control_c, 0, 67, 108
1, 79895, Control_c, 0, 64, 20
1, 79895, Control_c, 0, 67, 106
1, 79906, Note_on_c, 0, 36, 52
1, 79910, Control_c, 0, 64, 44
1, 79910, Control_c, 0, 67, 104
1, 79925, Control_c, 0, 64, 48
1, 79925, Control_c, 0, 67, 103
1, 79940, Control_c, 0, 64, 48
1, 79940, Control_c, 0, 67, 102
1, 79954, Control_c, 0, 67, 101
1, 79969, Control_c, 0, 64, 48
1, 79984, Control_c, 0, 64, 47
1, 79987, Note_off_c, 0, 36, 58
1, 79988, Note_off_c, 0, 67, 54
1, 79998, Control_c, 0, 64, 46
1, 80003, Note_on_c, 0, 38, 51
1, 80013, Control_c, 0, 64, 45
1, 80028, Control_c, 0, 64, 43
1, 80028, Control_c, 0, 67, 101
1, 80043, Control_c, 0, 64, 42
1, 80058, Note_off_c, 0, 63, 60
1, 80058, Control_c, 0, 67, 102
1, 80073, Control_c, 0, 64, 42
1, 80088, Control_c, 0, 64, 40
1, 80097, Note_on_c, 0, 40, 57
1, 80100, Note_off_c, 0, 38, 54
1, 80103, Control_c, 0, 64, 39
1, 80118, Control_c, 0, 64, 38
1, 80133, Control_c, 0, 64, 36
1, 80147, Note_off_c, 0, 40, 62
1, 80147, Control_c, 0, 64, 36
1, 80162, Control_c, 0, 64, 34
1, 80182, Note_on_c, 0, 72, 72
1, 80184, Control_c, 0, 64, 32
1, 80184, Control_c, 0, 67, 101
1, 80186, Note_on_c, 0, 68, 73
1, 80196, Note_on_c, 0, 41, 64
1, 80199, Control_c, 0, 64, 31
1, 80199, Control_c, 0, 67, 100
1, 80213, Note_off_c, 0, 68, 67
1, 80213, Control_c, 0, 64, 29
1, 80213, Control_c, 0, 67, 100
1, 80222, Note_off_c, 0, 72, 64
1, 80228, Control_c, 0, 64, 28
1, 80228, Control_c, 0, 67, 98
1, 80243, Control_c, 0, 64, 25
1, 80243, Control_c, 0, 67, 93
1, 80258, Note_off_c, 0, 41, 52
1, 80258, Control_c, 0, 64, 24
1, 80258, Control_c, 0, 67, 86
1, 80271, Note_on_c, 0, 70, 69
1, 80272, Note_on_c, 0, 63, 82
1, 80273, Control_c, 0, 67, 78
1, 80285, Note_on_c, 0, 42, 61
1, 80288, Control_c, 0, 67, 69
1, 80303, Control_c, 0, 67, 58
1, 80317, Control_c, 0, 67, 49
1, 80320, Note_off_c, 0, 63, 59
1, 80332, Control_c, 0, 67, 40
1, 80336, Note_off_c, 0, 42, 57
1, 80347, Control_c, 0, 64, 21
1, 80347, Control_c, 0, 67, 33
1, 80351, Note_on_c, 0, 60, 74
1, 80359, Note_on_c, 0, 68, 77
1, 80362, Control_c, 0, 64, 0
1, 80362, Control_c, 0, 67, 27
1, 80372, Note_on_c, 0, 44, 63
1, 80375, Note_off_c, 0, 60, 69
1, 80377, Control_c, 0, 67, 21
1, 80389, Note_off_c, 0, 68, 65
1, 80392, Control_c, 0, 67, 16
1, 80406, Control_c, 0, 67, 11
1, 80409, Note_off_c, 0, 70, 23
1, 80421, Control_c, 0, 67, 0
1, 80439, Note_off_c, 0, 44, 53
1, 80457, Note_on_c, 0, 74, 91
1, 80462, Note_on_c, 0, 46, 67
1, 80465, Note_on_c, 0, 65, 75
1, 80466, Control_c, 0, 64, 59
1, 80481, Control_c, 0, 64, 65
1, 80491, Note_off_c, 0, 65, 63
1, 80495, Control_c, 0, 64, 69
1, 80510, Control_c, 0, 64, 75
1, 80518, Note_off_c, 0, 46, 59
1, 80525, Control_c, 0, 64, 81
1, 80539, Control_c, 0, 64, 87
1, 80554, Control_c, 0, 64, 90
1, 80565, Note_on_c, 0, 47, 62
1, 80569, Control_c, 0, 64, 90
1, 80574, Note_off_c, 0, 74, 64
1, 80599, Control_c, 0, 64, 90
1, 80613, Control_c, 0, 64, 86
1, 80628, Control_c, 0, 64, 80
1, 80630, Note_off_c, 0, 47, 60
1, 80643, Control_c, 0, 64, 72
1, 80652, Note_on_c, 0, 76, 94
1, 80657, Note_on_c, 0, 69, 89
1, 80659, Control_c, 0, 64, 67
1, 80662, Note_on_c, 0, 36, 61
1, 80674, Control_c, 0, 64, 68
1, 80689, Control_c, 0, 64, 73
1, 80703, Control_c, 0, 64, 80
1, 80718, Control_c, 0, 64, 84
1, 80732, Note_off_c, 0, 69, 58
1, 80733, Control_c, 0, 64, 88
1, 80748, Control_c, 0, 64, 89
1, 80759, Note_off_c, 0, 76, 66
1, 80774, Note_on_c, 0, 38, 53
1, 80777, Control_c, 0, 64, 89
1, 80791, Note_off_c, 0, 36, 36
1, 80792, Control_c, 0, 64, 85
1, 80807, Control_c, 0, 64, 78
1, 80822, Control_c, 0, 64, 70
1, 80836, Note_on_c, 0, 79, 97
1, 80836, Control_c, 0, 64, 66
1, 80844, Note_on_c, 0, 72, 86
1, 80846, Note_on_c, 0, 40, 59
1, 80851, Control_c, 0, 64, 67
1, 80860, Note_off_c, 0, 38, 58
1, 80866, Control_c, 0, 64, 73
1, 80881, Control_c, 0, 64, 78
1, 80895, Control_c, 0, 64, 80
1, 80902, Note_off_c, 0, 40, 61
1, 80910, Control_c, 0, 64, 81
1, 80920, Note_off_c, 0, 72, 33
1, 80932, Control_c, 0, 64, 82
1, 80952, Note_on_c, 0, 41, 62
1, 80955, Note_off_c, 0, 79, 63
1, 80961, Control_c, 0, 64, 81
1, 80976, Control_c, 0, 64, 76
1, 80991, Control_c, 0, 64, 65
1, 81006, Control_c, 0, 64, 0
1, 81027, Note_off_c, 0, 41, 53
1, 81036, Note_on_c, 0, 82, 97
1, 81041, Note_on_c, 0, 42, 67
1, 81043, Note_on_c, 0, 75, 89
1, 81051, Control_c, 0, 64, 64
1, 81066, Control_c, 0, 64, 69
1, 81081, Control_c, 0, 64, 72
1, 81095, Control_c, 0, 64, 72
1, 81100, Note_off_c, 0, 75, 57
1, 81140, Control_c, 0, 64, 72
1, 81140, Note_off_c, 0, 42, 57
1, 81145, Note_off_c, 0, 82, 61
1, 81150, Note_on_c, 0, 44, 58
1, 81154, Control_c, 0, 64, 69
1, 81169, Control_c, 0, 64, 64
1, 81184, Control_c, 0, 64, 53
1, 81199, Control_c, 0, 64, 35
1, 81214, Control_c, 0, 64, 28
1, 81216, Note_off_c, 0, 44, 60
1, 81227, Note_on_c, 0, 46, 67
1, 81228, Control_c, 0, 64, 23
1, 81230, Note_on_c, 0, 86, 94
1, 81239, Note_on_c, 0, 77, 74
1, 81243, Control_c, 0, 64, 0
1, 81262, Note_off_c, 0, 77, 67
1, 81276, Note_off_c, 0, 86, 62
1, 81277, Note_off_c, 0, 46, 61
1, 81307, Note_on_c, 0, 47, 76
1, 81315, Note_on_c, 0, 79, 84
1, 81319, Note_on_c, 0, 83, 78
1, 81369, Note_off_c, 0, 79, 59
1, 81378, Note_off_c, 0, 47, 63
1, 81404, Note_on_c, 0, 81, 90
1, 81405, Note_on_c, 0, 74, 81
1, 81417, Note_on_c, 0, 36, 74
1, 81422, Note_off_c, 0, 83, 62
1, 81453, Note_off_c, 0, 74, 63
1, 81453, Note_off_c, 0, 81, 63
1, 81490, Note_on_c, 0, 86, 95
1, 81495, Note_on_c, 0, 79, 96
1, 81515, Note_on_c, 0, 38, 59
1, 81518, Note_off_c, 0, 36, 55
1, 81555, Control_c, 0, 64, 36
1, 81570, Control_c, 0, 64, 66
1, 81583, Note_off_c, 0, 86, 63
1, 81584, Control_c, 0, 64, 73
1, 81599, Control_c, 0, 64, 81
1, 81603, Note_on_c, 0, 40, 67
1, 81603, Note_off_c, 0, 79, 66
1, 81614, Control_c, 0, 64, 86
1, 81629, Note_off_c, 0, 38, 48
1, 81629, Control_c, 0, 64, 87
1, 81658, Control_c, 0, 64, 85
1, 81680, Control_c, 0, 64, 77
1, 81683, Note_off_c, 0, 40, 63
1, 81695, Control_c, 0, 64, 64
1, 81701, Note_on_c, 0, 80, 97
1, 81707, Note_on_c, 0, 73, 90
1, 81710, Control_c, 0, 64, 0
1, 81721, Note_on_c, 0, 41, 62
1, 81739, Control_c, 0, 64, 36
1, 81754, Control_c, 0, 64, 65
1, 81769, Control_c, 0, 64, 72
1, 81784, Control_c, 0, 64, 79
1, 81799, Control_c, 0, 64, 83
1, 81808, Note_off_c, 0, 41, 59
1, 81814, Note_on_c, 0, 42, 62
1, 81814, Control_c, 0, 64, 83
1, 81903, Note_off_c, 0, 73, 60
1, 81913, Note_off_c, 0, 42, 58
1, 81915, Note_on_c, 0, 44, 61
1, 81932, Control_c, 0, 64, 82
1, 81947, Control_c, 0, 64, 74
1, 81962, Control_c, 0, 64, 31
1, 81966, Note_off_c, 0, 80, 57
1, 81977, Control_c, 0, 64, 0
1, 81991, Note_off_c, 0, 44, 59
1, 81999, Note_on_c, 0, 75, 79
1, 82005, Note_on_c, 0, 68, 68
1, 82005, Note_on_c, 0, 46, 56
1, 82061, Note_off_c, 0, 46, 59
1, 82095, Control_c, 0, 67, 8
1, 82110, Control_c, 0, 67, 17
1, 82111, Note_on_c, 0, 47, 49
1, 82124, Control_c, 0, 64, 64
1, 82124, Control_c, 0, 67, 26
1, 82134, Note_off_c, 0, 68, 61
1, 82139, Control_c, 0, 64, 71
1, 82139, Control_c, 0, 67, 34
1, 82154, Control_c, 0, 64, 78
1, 82154, Control_c, 0, 67, 44
1, 82169, Control_c, 0, 64, 83
1, 82169, Control_c, 0, 67, 54
1, 82180, Note_off_c, 0, 47, 51
1, 82183, Control_c, 0, 64, 85
1, 82183, Control_c, 0, 67, 66
1, 82198, Control_c, 0, 64, 85
1, 82198, Control_c, 0, 67, 76
1, 82213, Control_c, 0, 64, 86
1, 82213, Control_c, 0, 67, 87
1, 82222, Note_off_c, 0, 75, 66
1, 82228, Note_on_c, 0, 36, 49
1, 82228, Control_c, 0, 67, 95
1, 82243, Control_c, 0, 64, 86
1, 82243, Control_c, 0, 67, 102
1, 82259, Control_c, 0, 67, 107
1, 82273, Control_c, 0, 67, 110
1, 82288, Control_c, 0, 67, 111
1, 82303, Control_c, 0, 67, 112
1, 82333, Control_c, 0, 64, 87
1, 82333, Control_c, 0, 67, 112
1, 82358, Note_off_c, 0, 36, 33
1, 82369, Note_on_c, 0, 38, 38
1, 82393, Control_c, 0, 67, 113
1, 82428, Note_off_c, 0, 38, 54
1, 82430, Control_c, 0, 64, 86
1, 82445, Control_c, 0, 64, 84
1, 82446, Note_on_c, 0, 40, 49
1, 82460, Control_c, 0, 64, 79
1, 82467, Note_on_c, 0, 98, 75
1, 82475, Control_c, 0, 64, 71
1, 82478, Note_off_c, 0, 40, 59
1, 82482, Note_on_c, 0, 94, 54
1, 82489, Control_c, 0, 64, 40
1, 82501, Note_off_c, 0, 94, 61
1, 82504, Control_c, 0, 64, 0
1, 82510, Note_off_c, 0, 98, 54
1, 82527, Note_on_c, 0, 41, 35
1, 82563, Note_on_c, 0, 89, 64
1, 82565, Note_on_c, 0, 96, 67
1, 82565, Note_off_c, 0, 41, 47
1, 82589, Note_off_c, 0, 89, 64
1, 82598, Note_off_c, 0, 96, 57
1, 82616, Note_on_c, 0, 42, 49
1, 82622, Control_c, 0, 67, 113
1, 82664, Note_on_c, 0, 94, 72
1, 82677, Note_off_c, 0, 42, 56
1, 82696, Note_on_c, 0, 86, 37
1, 82713, Note_off_c, 0, 94, 45
1, 82719, Note_on_c, 0, 44, 22
1, 82728, Note_off_c, 0, 86, 52
1, 82741, Note_on_c, 0, 91, 59
1, 82744, Note_on_c, 0, 98, 64
1, 82753, Note_off_c, 0, 44, 44
1, 82785, Note_on_c, 0, 46, 41
1, 82786, Control_c, 0, 67, 113
1, 82800, Control_c, 0, 67, 112
1, 82821, Note_off_c, 0, 46, 56
1, 82871, Note_on_c, 0, 47, 44
1, 82874, Control_c, 0, 67, 112
1, 82889, Control_c, 0, 67, 111
1, 82899, Note_off_c, 0, 98, 36
1, 82904, Control_c, 0, 67, 111
1, 82918, Note_off_c, 0, 47, 48
1, 82918, Control_c, 0, 67, 110
1, 82933, Control_c, 0, 67, 110
1, 82948, Control_c, 0, 67, 109
1, 82963, Control_c, 0, 67, 108
1, 82976, Note_on_c, 0, 36, 39
1, 82978, Control_c, 0, 67, 106
1, 82992, Control_c, 0, 64, 52
1, 82992, Control_c, 0, 67, 105
1, 83007, Control_c, 0, 64, 61
1, 83007, Control_c, 0, 67, 104
1, 83009, Note_off_c, 0, 91, 29
1, 83022, Control_c, 0, 64, 65
1, 83022, Control_c, 0, 67, 103
1, 83037, Note_on_c, 0, 93, 61
1, 83037, Control_c, 0, 64, 69
1, 83037, Control_c, 0, 67, 100
1, 83053, Control_c, 0, 64, 75
1, 83053, Control_c, 0, 67, 96
1, 83058, Note_on_c, 0, 86, 45
1, 83068, Control_c, 0, 64, 79
1, 83068, Control_c, 0, 67, 87
1, 83083, Control_c, 0, 64, 81
1, 83083, Control_c, 0, 67, 70
1, 83085, Note_off_c, 0, 36, 36
1, 83090, Note_on_c, 0, 38, 43
1, 83097, Control_c, 0, 64, 81
1, 83097, Control_c, 0, 67, 47
1, 83105, Note_off_c, 0, 86, 47
1, 83108, Note_off_c, 0, 93, 61
1, 83112, Control_c, 0, 64, 82
1, 83112, Control_c, 0, 67, 25
1, 83127, Control_c, 0, 64, 82
1, 83127, Control_c, 0, 67, 0
1, 83142, Control_c, 0, 64, 83
1, 83150, Note_off_c, 0, 38, 54
1, 83157, Control_c, 0, 64, 83
1, 83165, Note_on_c, 0, 40, 53
1, 83179, Control_c, 0, 64, 84
1, 83229, Note_off_c, 0, 40, 61
1, 83238, Control_c, 0, 64, 84
1, 83272, Note_on_c, 0, 41, 61
1, 83373, Note_off_c, 0, 41, 55
1, 83379, Note_on_c, 0, 42, 59
1, 83401, Control_c, 0, 64, 84
1, 83416, Control_c, 0, 64, 83
1, 83430, Control_c, 0, 64, 80
1, 83438, Note_on_c, 0, 71, 93
1, 83444, Note_on_c, 0, 64, 84
1, 83445, Control_c, 0, 64, 76
1, 83460, Control_c, 0, 64, 68
1, 83471, Note_on_c, 0, 44, 65
1, 83473, Note_off_c, 0, 42, 60
1, 83475, Control_c, 0, 64, 52
1, 83476, Note_off_c, 0, 64, 60
1, 83490, Control_c, 0, 64, 0
1, 83501, Note_off_c, 0, 71, 53
1, 83523, Note_on_c, 0, 66, 87
1, 83543, Note_on_c, 0, 68, 56
1, 83545, Note_off_c, 0, 44, 59
1, 83563, Note_off_c, 0, 68, 60
1, 83564, Note_on_c, 0, 46, 72
1, 83608, Note_off_c, 0, 66, 65
1, 83610, Note_on_c, 0, 71, 85
1, 83617, Note_on_c, 0, 64, 73
1, 83623, Note_off_c, 0, 46, 62
1, 83635, Note_off_c, 0, 71, 60
1, 83642, Note_off_c, 0, 64, 66
1, 83659, Note_on_c, 0, 47, 71
1, 83704, Note_off_c, 0, 47, 64
1, 83707, Note_on_c, 0, 75, 105
1, 83710, Note_on_c, 0, 67, 91
1, 83711, Note_on_c, 0, 68, 85
1, 83731, Note_off_c, 0, 67, 67
1, 83732, Note_on_c, 0, 36, 74
1, 83756, Control_c, 0, 64, 43
1, 83771, Control_c, 0, 64, 64
1, 83786, Control_c, 0, 64, 69
1, 83801, Control_c, 0, 64, 75
1, 83815, Control_c, 0, 64, 80
1, 83830, Control_c, 0, 64, 83
1, 83835, Note_on_c, 0, 38, 60
1, 83835, Note_off_c, 0, 36, 56
1, 83838, Note_off_c, 0, 68, 59
1, 83846, Control_c, 0, 64, 84
1, 83861, Control_c, 0, 64, 85
1, 83876, Control_c, 0, 64, 86
1, 83891, Control_c, 0, 64, 86
1, 83906, Control_c, 0, 64, 87
1, 83922, Note_off_c, 0, 75, 62
1, 83924, Note_on_c, 0, 40, 69
1, 83927, Control_c, 0, 64, 88
1, 83942, Control_c, 0, 64, 88
1, 83966, Note_off_c, 0, 38, 56
1, 83987, Control_c, 0, 64, 89
1, 83993, Note_off_c, 0, 40, 62
1, 84016, Note_on_c, 0, 41, 77
1, 84032, Control_c, 0, 64, 88
1, 84061, Control_c, 0, 67, 10
1, 84064, Note_off_c, 0, 41, 63
1, 84076, Control_c, 0, 64, 88
1, 84076, Control_c, 0, 67, 15
1, 84091, Control_c, 0, 64, 86
1, 84091, Control_c, 0, 67, 19
1, 84106, Control_c, 0, 64, 82
1, 84106, Control_c, 0, 67, 22
1, 84112, Note_on_c, 0, 42, 63
1, 84121, Control_c, 0, 64, 73
1, 84121, Control_c, 0, 67, 26
1, 84135, Control_c, 0, 64, 60
1, 84135, Control_c, 0, 67, 30
1, 84150, Control_c, 0, 64, 0
1, 84150, Control_c, 0, 67, 35
1, 84157, Note_on_c, 0, 96, 74
1, 84165, Control_c, 0, 67, 41
1, 84169, Note_on_c, 0, 92, 72
1, 84179, Control_c, 0, 67, 48
1, 84182, Note_off_c, 0, 42, 59
1, 84194, Control_c, 0, 67, 53
1, 84196, Note_on_c, 0, 44, 57
1, 84196, Note_off_c, 0, 96, 60
1, 84202, Note_off_c, 0, 92, 58
1, 84209, Control_c, 0, 67, 58
1, 84224, Control_c, 0, 67, 61
1, 84239, Control_c, 0, 67, 64
1, 84245, Note_off_c, 0, 44, 60
1, 84253, Control_c, 0, 67, 66
1, 84255, Note_on_c, 0, 87, 63
1, 84257, Note_on_c, 0, 94, 73
1, 84268, Control_c, 0, 67, 68
1, 84282, Note_on_c, 0, 46, 54
1, 84283, Control_c, 0, 67, 69
1, 84295, Note_off_c, 0, 87, 58
1, 84298, Control_c, 0, 67, 70
1, 84306, Note_off_c, 0, 94, 52
1, 84313, Control_c, 0, 67, 70
1, 84316, Note_off_c, 0, 46, 64
1, 84327, Control_c, 0, 67, 71
1, 84342, Note_on_c, 0, 99, 73
1, 84368, Note_on_c, 0, 47, 47
1, 84374, Note_off_c, 0, 99, 70
1, 84374, Note_on_c, 0, 92, 30
1, 84395, Note_off_c, 0, 92, 49
1, 84401, Control_c, 0, 67, 71
1, 84403, Note_off_c, 0, 47, 58
1, 84416, Control_c, 0, 67, 70
1, 84431, Control_c, 0, 67, 69
1, 84434, Note_on_c, 0, 96, 70
1, 84446, Control_c, 0, 67, 68
1, 84447, Note_on_c, 0, 93, 63
1, 84453, Note_on_c, 0, 36, 51
1, 84456, Note_on_c, 0, 89, 53
1, 84461, Control_c, 0, 64, 36
1, 84461, Control_c, 0, 67, 68
1, 84476, Control_c, 0, 64, 63
1, 84476, Control_c, 0, 67, 67
1, 84483, Note_off_c, 0, 89, 65
1, 84484, Note_off_c, 0, 96, 64
1, 84491, Control_c, 0, 64, 68
1, 84499, Note_off_c, 0, 93, 62
1, 84506, Control_c, 0, 64, 73
1, 84506, Control_c, 0, 67, 67
1, 84520, Control_c, 0, 64, 79
1, 84520, Control_c, 0, 67, 66
1, 84535, Control_c, 0, 64, 82
1, 84535, Control_c, 0, 67, 66
1, 84550, Control_c, 0, 64, 82
1, 84550, Control_c, 0, 67, 65
1, 84556, Note_on_c, 0, 38, 43
1, 84560, Note_off_c, 0, 36, 36
1, 84579, Control_c, 0, 64, 83
1, 84579, Control_c, 0, 67, 64
1, 84609, Control_c, 0, 67, 64
1, 84624, Control_c, 0, 64, 83
1, 84624, Control_c, 0, 67, 63
1, 84640, Control_c, 0, 67, 62
1, 84644, Note_on_c, 0, 40, 55
1, 84655, Control_c, 0, 67, 61
1, 84676, Control_c, 0, 67, 60
1, 84691, Note_off_c, 0, 38, 31
1, 84691, Control_c, 0, 67, 58
1, 84706, Control_c, 0, 64, 83
1, 84706, Control_c, 0, 67, 57
1, 84718, Note_off_c, 0, 40, 61
1, 84721, Control_c, 0, 67, 54
1, 84736, Control_c, 0, 64, 82
1, 84736, Control_c, 0, 67, 48
1, 84742, Note_on_c, 0, 71, 78
1, 84746, Note_on_c, 0, 67, 70
1, 84749, Note_on_c, 0, 41, 70
1, 84750, Control_c, 0, 64, 81
1, 84750, Control_c, 0, 67, 37
1, 84762, Note_off_c, 0, 67, 66
1, 84765, Control_c, 0, 64, 79
1, 84765, Control_c, 0, 67, 21
1, 84780, Control_c, 0, 64, 75
1, 84780, Control_c, 0, 67, 0
1, 84789, Note_off_c, 0, 71, 59
1, 84795, Control_c, 0, 64, 70
1, 84810, Control_c, 0, 64, 62
1, 84825, Control_c, 0, 64, 37
1, 84827, Note_on_c, 0, 62, 87
1, 84828, Note_on_c, 0, 69, 86
1, 84832, Note_on_c, 0, 42, 66
1, 84833, Note_off_c, 0, 41, 56
1, 84839, Control_c, 0, 64, 0
1, 84849, Note_off_c, 0, 62, 68
1, 84860, Note_off_c, 0, 69, 64
1, 84911, Note_on_c, 0, 65, 86
1, 84912, Note_on_c, 0, 60, 85
1, 84915, Note_on_c, 0, 44, 69
1, 84920, Note_off_c, 0, 42, 60
1, 84931, Note_off_c, 0, 65, 73
1, 84943, Note_off_c, 0, 60, 66
1, 85009, Note_on_c, 0, 62, 98
1, 85011, Note_on_c, 0, 55, 91
1, 85014, Note_off_c, 0, 44, 57
1, 85016, Note_on_c, 0, 46, 74
1, 85086, Note_off_c, 0, 46, 63
1, 85126, Note_on_c, 0, 47, 63
1, 85128, Note_off_c, 0, 55, 62
1, 85133, Note_off_c, 0, 62, 62
1, 85190, Note_off_c, 0, 47, 60
1, 85207, Note_on_c, 0, 60, 96
1, 85209, Note_on_c, 0, 53, 92
1, 85221, Note_on_c, 0, 36, 67
1, 85314, Note_off_c, 0, 36, 57
1, 85316, Note_off_c, 0, 53, 63
1, 85325, Note_off_c, 0, 60, 60
1, 85326, Note_on_c, 0, 38, 53
1, 85403, Note_on_c, 0, 59, 94
1, 85406, Note_on_c, 0, 52, 98
1, 85412, Note_on_c, 0, 40, 64
1, 85442, Note_off_c, 0, 38, 48
1, 85485, Note_off_c, 0, 40, 62
1, 85525, Note_off_c, 0, 52, 62
1, 85529, Note_on_c, 0, 41, 60
1, 85530, Note_off_c, 0, 59, 62
1, 85600, Note_on_c, 0, 57, 93
1, 85603, Note_on_c, 0, 50, 92
1, 85614, Note_off_c, 0, 41, 64
1, 85618, Note_on_c, 0, 42, 62
1, 85716, Note_on_c, 0, 44, 61
1, 85722, Note_off_c, 0, 42, 56
1, 85747, Note_off_c, 0, 57, 56
1, 85791, Note_on_c, 0, 55, 76
1, 85796, Note_off_c, 0, 44, 61
1, 85802, Note_on_c, 0, 51, 76
1, 85805, Note_on_c, 0, 46, 75
1, 85811, Note_off_c, 0, 50, 60
1, 85863, Note_off_c, 0, 46, 61
1, 85886, Note_on_c, 0, 47, 77
1, 85889, Note_off_c, 0, 55, 63
1, 85889, Note_on_c, 0, 53, 80
1, 85903, Note_off_c, 0, 51, 64
1, 85950, Note_off_c, 0, 47, 64
1, 85969, Note_on_c, 0, 58, 89
1, 85978, Note_on_c, 0, 51, 78
1, 85984, Note_on_c, 0, 36, 77
1, 85987, Note_off_c, 0, 53, 64
1, 86020, Note_off_c, 0, 51, 62
1, 86023, Note_off_c, 0, 58, 64
1, 86054, Note_on_c, 0, 55, 92
1, 86055, Note_on_c, 0, 47, 93
1, 86086, Note_on_c, 0, 38, 59
1, 86088, Note_off_c, 0, 36, 55
1, 86151, Control_c, 0, 64, 24
1, 86173, Control_c, 0, 64, 0
1, 86176, Note_off_c, 0, 38, 59
1, 86179, Note_on_c, 0, 40, 58
1, 86221, Note_off_c, 0, 40, 64
1, 86268, Note_on_c, 0, 41, 57
1, 86305, Note_off_c, 0, 41, 62
1, 86343, Note_off_c, 0, 47, 58
1, 86359, Note_on_c, 0, 42, 42
1, 86387, Note_off_c, 0, 42, 51
1, 86394, Note_off_c, 0, 55, 53
1, 86419, Note_on_c, 0, 44, 65
1, 86461, Note_off_c, 0, 44, 64
1, 86517, Note_on_c, 0, 46, 60
1, 86557, Note_off_c, 0, 46, 63
1, 86610, Note_on_c, 0, 47, 60
1, 86635, Note_off_c, 0, 47, 62
1, 86703, Note_on_c, 0, 48, 63
1, 86708, Control_c, 0, 67, 8
1, 86722, Control_c, 0, 67, 12
1, 86737, Control_c, 0, 67, 18
1, 86752, Control_c, 0, 67, 24
1, 86761, Note_off_c, 0, 48, 46
1, 86766, Control_c, 0, 67, 31
1, 86781, Control_c, 0, 67, 38
1, 86796, Control_c, 0, 67, 44
1, 86801, Note_on_c, 0, 50, 42
1, 86811, Control_c, 0, 67, 51
1, 86826, Control_c, 0, 67, 59
1, 86840, Control_c, 0, 67, 67
1, 86853, Note_off_c, 0, 50, 48
1, 86855, Control_c, 0, 67, 76
1, 86870, Control_c, 0, 67, 86
1, 86885, Control_c, 0, 67, 97
1, 86896, Note_on_c, 0, 52, 36
1, 86899, Control_c, 0, 67, 109
1, 86922, Control_c, 0, 67, 123
1, 86933, Note_off_c, 0, 52, 59
1, 86937, Control_c, 0, 67, 127
1, 86972, Note_on_c, 0, 53, 50
1, 87016, Note_off_c, 0, 53, 48
1, 87060, Note_on_c, 0, 54, 53
1, 87096, Note_off_c, 0, 54, 62
1, 87149, Note_on_c, 0, 56, 56
1, 87191, Note_off_c, 0, 56, 60
1, 87248, Note_on_c, 0, 58, 52
1, 87286, Note_off_c, 0, 58, 66
1, 87341, Note_on_c, 0, 59, 51
1, 87368, Note_off_c, 0, 59, 55
1, 87433, Note_on_c, 0, 88, 58
1, 87447, Note_on_c, 0, 60, 51
1, 87457, Note_on_c, 0, 84, 37
1, 87461, Note_off_c, 0, 88, 52
1, 87487, Note_off_c, 0, 84, 48
1, 87505, Note_off_c, 0, 60, 49
1, 87525, Note_on_c, 0, 86, 49
1, 87536, Note_on_c, 0, 62, 40
1, 87569, Note_off_c, 0, 86, 44
1, 87585, Note_off_c, 0, 62, 43
1, 87605, Note_on_c, 0, 84, 49
1, 87624, Note_on_c, 0, 64, 41
1, 87653, Note_off_c, 0, 84, 61
1, 87653, Note_off_c, 0, 64, 59
1, 87701, Note_on_c, 0, 86, 58
1, 87727, Note_on_c, 0, 79, 45
1, 87728, Note_on_c, 0, 65, 34
1, 87773, Note_off_c, 0, 65, 47
1, 87810, Note_on_c, 0, 66, 48
1, 87874, Note_off_c, 0, 66, 42
1, 87875, Note_off_c, 0, 79, 51
1, 87895, Note_on_c, 0, 88, 63
1, 87901, Note_off_c, 0, 86, 57
1, 87907, Note_on_c, 0, 68, 47
1, 87910, Note_on_c, 0, 83, 48
1, 87975, Note_off_c, 0, 68, 50
1, 88002, Note_off_c, 0, 88, 61
1, 88020, Note_on_c, 0, 70, 40
1, 88021, Note_off_c, 0, 83, 57
1, 88046, Note_off_c, 0, 70, 57
1, 88102, Note_on_c, 0, 91, 63
1, 88107, Note_on_c, 0, 71, 48
1, 88108, Note_on_c, 0, 86, 56
1, 88128, Note_off_c, 0, 86, 61
1, 88136, Note_off_c, 0, 91, 56
1, 88137, Note_off_c, 0, 71, 55
1, 88187, Note_on_c, 0, 88, 75
1, 88198, Note_on_c, 0, 60, 48
1, 88268, Note_on_c, 0, 86, 64
1, 88270, Note_off_c, 0, 60, 53
1, 88273, Note_off_c, 0, 88, 54
1, 88276, Note_on_c, 0, 79, 50
1, 88297, Note_off_c, 0, 79, 59
1, 88311, Note_on_c, 0, 62, 22
1, 88317, Note_off_c, 0, 86, 61
1, 88359, Note_on_c, 0, 91, 72
1, 88369, Note_off_c, 0, 62, 44
1, 88371, Note_on_c, 0, 84, 54
1, 88381, Note_on_c, 0, 64, 41
1, 88402, Note_off_c, 0, 84, 50
1, 88408, Note_off_c, 0, 64, 59
1, 88463, Note_on_c, 0, 65, 47
1, 88491, Note_on_c, 0, 84, 12
1, 88524, Note_off_c, 0, 65, 42
1, 88557, Note_off_c, 0, 91, 31
1, 88571, Note_on_c, 0, 86, 63
1, 88575, Note_on_c, 0, 66, 40
1, 88575, Note_off_c, 0, 84, 41
1, 88579, Note_on_c, 0, 81, 53
1, 88652, Note_off_c, 0, 81, 54
1, 88691, Note_off_c, 0, 86, 63
1, 88692, Note_on_c, 0, 68, 38
1, 88697, Note_off_c, 0, 66, 27
1, 88768, Note_on_c, 0, 91, 69
1, 88772, Note_on_c, 0, 86, 59
1, 88786, Note_off_c, 0, 68, 44
1, 88800, Note_off_c, 0, 91, 58
1, 88804, Note_on_c, 0, 70, 46
1, 88804, Note_off_c, 0, 86, 65
1, 88828, Note_off_c, 0, 70, 58
1, 88858, Note_on_c, 0, 80, 69
1, 88876, Note_on_c, 0, 88, 43
1, 88882, Note_off_c, 0, 80, 70
1, 88889, Note_on_c, 0, 71, 51
1, 88902, Note_off_c, 0, 88, 35
1, 88919, Note_off_c, 0, 71, 57
1, 88953, Note_on_c, 0, 91, 78
1, 88981, Note_on_c, 0, 60, 46
1, 88995, Note_off_c, 0, 91, 59
1, 89042, Note_on_c, 0, 93, 79
1, 89049, Note_off_c, 0, 60, 56
1, 89060, Note_on_c, 0, 90, 53
1, 89076, Note_on_c, 0, 62, 44
1, 89083, Note_off_c, 0, 90, 59
1, 89134, Note_off_c, 0, 62, 55
1, 89158, Note_on_c, 0, 64, 43
1, 89203, Note_off_c, 0, 64, 56
1, 89268, Note_on_c, 0, 65, 44
1, 89275, Note_on_c, 0, 88, 75
1, 89287, Note_on_c, 0, 81, 60
1, 89310, Note_off_c, 0, 93, 45
1, 89367, Note_off_c, 0, 65, 41
1, 89372, Note_on_c, 0, 66, 56
1, 89379, Note_off_c, 0, 88, 61
1, 89419, Note_off_c, 0, 81, 61
1, 89423, Note_off_c, 0, 66, 57
1, 89481, Note_on_c, 0, 68, 51
1, 89486, Note_on_c, 0, 83, 72
1, 89519, Note_off_c, 0, 68, 58
1, 89519, Note_off_c, 0, 83, 59
1, 89570, Note_on_c, 0, 70, 61
1, 89571, Note_on_c, 0, 86, 70
1, 89585, Note_on_c, 0, 77, 59
1, 89594, Note_off_c, 0, 86, 69
1, 89606, Note_off_c, 0, 70, 63
1, 89618, Note_off_c, 0, 77, 58
1, 89662, Note_on_c, 0, 87, 67
1, 89676, Note_on_c, 0, 80, 65
1, 89679, Note_on_c, 0, 71, 44
1, 89689, Note_off_c, 0, 87, 65
1, 89704, Note_off_c, 0, 80, 68
1, 89706, Note_off_c, 0, 71, 54
1, 89756, Note_on_c, 0, 81, 76
1, 89759, Note_on_c, 0, 60, 53
1, 89767, Note_on_c, 0, 77, 54
1, 89822, Control_c, 0, 67, 125
1, 89832, Note_off_c, 0, 60, 50
1, 89837, Control_c, 0, 67, 120
1, 89844, Note_off_c, 0, 77, 32
1, 89851, Control_c, 0, 67, 114
1, 89856, Note_on_c, 0, 62, 43
1, 89865, Control_c, 0, 67, 108
1, 89880, Control_c, 0, 67, 104
1, 89895, Control_c, 0, 67, 102
1, 89917, Control_c, 0, 67, 102
1, 89925, Note_off_c, 0, 62, 54
1, 89943, Note_on_c, 0, 64, 46
1, 89947, Control_c, 0, 67, 101
1, 89949, Note_off_c, 0, 81, 61
1, 89957, Note_on_c, 0, 83, 74
1, 89962, Control_c, 0, 67, 101
1, 89977, Note_on_c, 0, 76, 50
1, 89977, Control_c, 0, 67, 100
1, 89985, Note_off_c, 0, 64, 62
1, 90006, Control_c, 0, 67, 100
1, 90021, Control_c, 0, 67, 101
1, 90045, Note_on_c, 0, 65, 32
1, 90051, Control_c, 0, 67, 100
1, 90053, Note_off_c, 0, 83, 58
1, 90056, Note_off_c, 0, 76, 55
1, 90110, Note_off_c, 0, 65, 44
1, 90134, Note_on_c, 0, 66, 63
1, 90147, Note_on_c, 0, 82, 74
1, 90149, Note_on_c, 0, 78, 75
1, 90174, Note_off_c, 0, 66, 62
1, 90174, Note_off_c, 0, 78, 66
1, 90229, Control_c, 0, 67, 101
1, 90238, Note_on_c, 0, 73, 67
1, 90241, Note_on_c, 0, 68, 52
1, 90244, Note_on_c, 0, 80, 66
1, 90244, Note_off_c, 0, 82, 34
1, 90259, Note_off_c, 0, 73, 64
1, 90276, Note_off_c, 0, 68, 53
1, 90283, Note_off_c, 0, 80, 54
1, 90324, Note_on_c, 0, 78, 75
1, 90336, Note_on_c, 0, 70, 54
1, 90348, Control_c, 0, 67, 100
1, 90365, Note_off_c, 0, 70, 60
1, 90371, Note_off_c, 0, 78, 58
1, 90378, Control_c, 0, 67, 100
1, 90407, Control_c, 0, 67, 99
1, 90416, Note_on_c, 0, 80, 78
1, 90422, Control_c, 0, 67, 99
1, 90427, Note_on_c, 0, 73, 53
1, 90431, Note_on_c, 0, 71, 52
1, 90437, Control_c, 0, 67, 98
1, 90452, Control_c, 0, 67, 97
1, 90467, Control_c, 0, 67, 93
1, 90474, Note_off_c, 0, 71, 60
1, 90482, Control_c, 0, 67, 87
1, 90496, Control_c, 0, 67, 81
1, 90511, Note_off_c, 0, 73, 59
1, 90511, Control_c, 0, 67, 73
1, 90512, Note_on_c, 0, 60, 61
1, 90526, Control_c, 0, 67, 65
1, 90540, Control_c, 0, 67, 58
1, 90548, Note_off_c, 0, 80, 63
1, 90555, Control_c, 0, 67, 51
1, 90570, Control_c, 0, 67, 45
1, 90585, Control_c, 0, 67, 40
1, 90600, Control_c, 0, 67, 36
1, 90612, Note_on_c, 0, 62, 56
1, 90614, Control_c, 0, 67, 33
1, 90618, Note_on_c, 0, 82, 87
1, 90629, Control_c, 0, 67, 31
1, 90631, Note_on_c, 0, 77, 66
1, 90635, Note_off_c, 0, 60, 38
1, 90644, Control_c, 0, 67, 31
1, 90667, Control_c, 0, 67, 30
1, 90722, Note_off_c, 0, 62, 55
1, 90723, Note_on_c, 0, 64, 52
1, 90736, Note_off_c, 0, 77, 55
1, 90747, Note_off_c, 0, 82, 62
1, 90774, Note_off_c, 0, 64, 61
1, 90785, Control_c, 0, 67, 31
1, 90800, Control_c, 0, 67, 31
1, 90804, Note_on_c, 0, 86, 72
1, 90805, Note_on_c, 0, 81, 76
1, 90814, Control_c, 0, 67, 32
1, 90822, Note_on_c, 0, 65, 68
1, 90828, Note_off_c, 0, 81, 65
1, 90829, Control_c, 0, 67, 33
1, 90844, Control_c, 0, 67, 33
1, 90852, Note_off_c, 0, 86, 59
1, 90859, Control_c, 0, 67, 34
1, 90868, Note_off_c, 0, 65, 59
1, 90874, Control_c, 0, 67, 35
1, 90888, Note_on_c, 0, 75, 75
1, 90888, Control_c, 0, 67, 35
1, 90891, Note_on_c, 0, 82, 80
1, 90900, Note_on_c, 0, 66, 63
1, 90918, Control_c, 0, 67, 36
1, 90929, Note_off_c, 0, 75, 63
1, 90933, Control_c, 0, 67, 36
1, 90937, Note_off_c, 0, 82, 57
1, 90956, Note_off_c, 0, 66, 57
1, 90974, Note_on_c, 0, 85, 87
1, 90987, Note_on_c, 0, 68, 68
1, 91007, Control_c, 0, 67, 36
1, 91010, Note_off_c, 0, 85, 64
1, 91022, Control_c, 0, 67, 35
1, 91040, Note_off_c, 0, 68, 59
1, 91070, Note_on_c, 0, 87, 87
1, 91077, Note_on_c, 0, 79, 73
1, 91080, Note_on_c, 0, 70, 65
1, 91105, Note_off_c, 0, 79, 62
1, 91123, Note_off_c, 0, 70, 62
1, 91165, Note_on_c, 0, 79, 48
1, 91174, Note_on_c, 0, 71, 59
1, 91194, Note_off_c, 0, 87, 60
1, 91196, Note_off_c, 0, 79, 58
1, 91230, Control_c, 0, 67, 34
1, 91248, Note_off_c, 0, 71, 59
1, 91260, Control_c, 0, 67, 34
1, 91263, Note_on_c, 0, 84, 85
1, 91269, Note_on_c, 0, 77, 79
1, 91274, Note_on_c, 0, 60, 61
1, 91275, Control_c, 0, 67, 33
1, 91290, Control_c, 0, 67, 33
1, 91304, Control_c, 0, 67, 32
1, 91334, Control_c, 0, 67, 32
1, 91365, Note_off_c, 0, 77, 59
1, 91368, Note_on_c, 0, 62, 48
1, 91374, Note_off_c, 0, 60, 50
1, 91415, Note_off_c, 0, 84, 64
1, 91455, Note_off_c, 0, 62, 55
1, 91466, Note_on_c, 0, 64, 48
1, 91466, Note_on_c, 0, 85, 74
1, 91469, Note_on_c, 0, 81, 70
1, 91475, Control_c, 0, 67, 32
1, 91493, Note_off_c, 0, 85, 63
1, 91499, Note_off_c, 0, 81, 63
1, 91502, Note_off_c, 0, 64, 62
1, 91505, Control_c, 0, 67, 33
1, 91534, Control_c, 0, 67, 34
1, 91543, Note_on_c, 0, 65, 54
1, 91554, Note_on_c, 0, 83, 79
1, 91563, Control_c, 0, 67, 34
1, 91582, Note_off_c, 0, 83, 59
1, 91585, Note_off_c, 0, 65, 51
1, 91630, Note_on_c, 0, 66, 55
1, 91638, Note_on_c, 0, 86, 77
1, 91639, Note_on_c, 0, 81, 72
1, 91664, Note_off_c, 0, 81, 65
1, 91678, Note_off_c, 0, 66, 54
1, 91683, Note_off_c, 0, 86, 59
1, 91728, Note_on_c, 0, 88, 75
1, 91730, Note_on_c, 0, 68, 51
1, 91733, Note_on_c, 0, 83, 70
1, 91779, Note_off_c, 0, 68, 52
1, 91817, Note_off_c, 0, 88, 55
1, 91833, Note_on_c, 0, 70, 46
1, 91875, Control_c, 0, 67, 35
1, 91884, Note_off_c, 0, 70, 57
1, 91931, Note_on_c, 0, 85, 71
1, 91942, Note_on_c, 0, 71, 49
1, 91943, Note_on_c, 0, 77, 64
1, 91947, Note_off_c, 0, 83, 52
1, 91949, Control_c, 0, 64, 54
1, 91949, Control_c, 0, 67, 34
1, 91964, Control_c, 0, 64, 65
1, 91979, Control_c, 0, 64, 69
1, 91979, Control_c, 0, 67, 34
1, 91994, Control_c, 0, 64, 74
1, 91994, Control_c, 0, 67, 33
1, 92009, Control_c, 0, 64, 79
1, 92009, Control_c, 0, 67, 33
1, 92009, Note_off_c, 0, 71, 54
1, 92023, Control_c, 0, 64, 81
1, 92023, Control_c, 0, 67, 32
1, 92038, Control_c, 0, 64, 81
1, 92038, Control_c, 0, 67, 32
1, 92047, Note_off_c, 0, 85, 61
1, 92048, Note_on_c, 0, 60, 59
1, 92053, Control_c, 0, 64, 82
1, 92053, Control_c, 0, 67, 31
1, 92058, Note_off_c, 0, 77, 61
1, 92068, Control_c, 0, 67, 31
1, 92113, Control_c, 0, 64, 81
1, 92113, Control_c, 0, 67, 30
1, 92128, Control_c, 0, 64, 79
1, 92128, Control_c, 0, 67, 30
1, 92128, Note_on_c, 0, 78, 77
1, 92130, Note_on_c, 0, 62, 48
1, 92143, Control_c, 0, 64, 74
1, 92143, Control_c, 0, 67, 29
1, 92165, Note_off_c, 0, 60, 37
1, 92165, Control_c, 0, 64, 66
1, 92165, Control_c, 0, 67, 28
1, 92166, Note_off_c, 0, 78, 64
1, 92180, Control_c, 0, 64, 0
1, 92180, Control_c, 0, 67, 23
1, 92194, Control_c, 0, 67, 18
1, 92195, Note_off_c, 0, 62, 55
1, 92209, Control_c, 0, 67, 15
1, 92220, Note_on_c, 0, 64, 50
1, 92224, Note_on_c, 0, 79, 68
1, 92224, Control_c, 0, 67, 12
1, 92229, Note_on_c, 0, 84, 72
1, 92239, Control_c, 0, 67, 10
1, 92250, Note_off_c, 0, 79, 67
1, 92253, Note_off_c, 0, 84, 68
1, 92254, Control_c, 0, 67, 0
1, 92261, Note_off_c, 0, 64, 63
1, 92298, Note_on_c, 0, 82, 63
1, 92310, Note_on_c, 0, 86, 72
1, 92315, Note_on_c, 0, 65, 50
1, 92325, Note_off_c, 0, 82, 66
1, 92351, Note_off_c, 0, 65, 55
1, 92378, Note_off_c, 0, 86, 52
1, 92405, Note_on_c, 0, 81, 70
1, 92407, Note_on_c, 0, 66, 53
1, 92414, Note_on_c, 0, 74, 58
1, 92457, Note_off_c, 0, 66, 48
1, 92498, Note_off_c, 0, 81, 60
1, 92500, Note_on_c, 0, 68, 47
1, 92506, Control_c, 0, 64, 44
1, 92515, Note_off_c, 0, 74, 62
1, 92520, Control_c, 0, 64, 60
1, 92535, Control_c, 0, 64, 64
1, 92544, Note_off_c, 0, 68, 56
1, 92550, Control_c, 0, 64, 67
1, 92565, Control_c, 0, 64, 70
1, 92580, Control_c, 0, 64, 74
1, 92591, Note_on_c, 0, 86, 74
1, 92592, Note_on_c, 0, 70, 47
1, 92594, Control_c, 0, 64, 77
1, 92601, Note_on_c, 0, 79, 62
1, 92609, Control_c, 0, 64, 78
1, 92620, Note_off_c, 0, 70, 57
1, 92620, Note_off_c, 0, 79, 62
1, 92621, Note_off_c, 0, 86, 59
1, 92624, Control_c, 0, 64, 79
1, 92640, Control_c, 0, 64, 80
1, 92655, Control_c, 0, 64, 81
1, 92670, Control_c, 0, 64, 82
1, 92686, Note_on_c, 0, 71, 54
1, 92706, Note_off_c, 0, 71, 59
1, 92729, Control_c, 0, 64, 80
1, 92743, Control_c, 0, 64, 77
1, 92758, Control_c, 0, 64, 69
1, 92773, Control_c, 0, 64, 53
1, 92788, Control_c, 0, 64, 0
1, 92791, Note_on_c, 0, 68, 78
1, 92794, Note_on_c, 0, 72, 70
1, 92827, Note_off_c, 0, 72, 60
1, 92831, Note_off_c, 0, 68, 64
1, 92858, Note_on_c, 0, 66, 67
1, 92879, Note_on_c, 0, 74, 66
1, 92920, Note_off_c, 0, 66, 61
1, 92930, Note_off_c, 0, 74, 56
1, 92968, Note_on_c, 0, 68, 57
1, 92973, Note_on_c, 0, 64, 45
1, 92996, Note_on_c, 0, 76, 58
1, 92998, Note_off_c, 0, 64, 60
1, 93014, Note_off_c, 0, 76, 67
1, 93022, Note_off_c, 0, 68, 61
1, 93059, Note_on_c, 0, 61, 73
1, 93069, Note_on_c, 0, 77, 75
1, 93111, Note_off_c, 0, 77, 59
1, 93168, Note_on_c, 0, 78, 61
1, 93198, Note_off_c, 0, 78, 67
1, 93214, Note_off_c, 0, 61, 58
1, 93241, Note_on_c, 0, 71, 83
1, 93250, Note_on_c, 0, 80, 74
1, 93251, Note_on_c, 0, 63, 65
1, 93279, Note_off_c, 0, 80, 64
1, 93358, Note_on_c, 0, 82, 63
1, 93386, Note_off_c, 0, 82, 68
1, 93421, Note_off_c, 0, 71, 58
1, 93426, Note_off_c, 0, 63, 36
1, 93448, Note_on_c, 0, 83, 60
1, 93463, Note_on_c, 0, 67, 73
1, 93484, Note_off_c, 0, 83, 60
1, 93511, Note_off_c, 0, 67, 60
1, 93529, Note_on_c, 0, 72, 69
1, 93549, Note_on_c, 0, 69, 65
1, 93554, Note_on_c, 0, 65, 52
1, 93582, Note_off_c, 0, 69, 63
1, 93601, Note_off_c, 0, 72, 58
1, 93606, Note_off_c, 0, 65, 51
1, 93618, Note_on_c, 0, 74, 65
1, 93627, Note_on_c, 0, 66, 71
1, 93692, Note_off_c, 0, 66, 64
1, 93719, Note_on_c, 0, 68, 90
1, 93723, Note_on_c, 0, 76, 68
1, 93728, Note_on_c, 0, 59, 64
1, 93735, Note_off_c, 0, 74, 30
1, 93754, Note_off_c, 0, 76, 64
1, 93767, Note_off_c, 0, 59, 59
1, 93813, Note_on_c, 0, 77, 70
1, 93869, Control_c, 0, 64, 47
1, 93871, Note_off_c, 0, 68, 62
1, 93884, Control_c, 0, 64, 64
1, 93898, Control_c, 0, 64, 68
1, 93901, Note_on_c, 0, 63, 78
1, 93904, Note_on_c, 0, 58, 76
1, 93913, Control_c, 0, 64, 72
1, 93919, Note_on_c, 0, 78, 72
1, 93928, Control_c, 0, 64, 76
1, 93934, Note_off_c, 0, 63, 64
1, 93935, Note_off_c, 0, 77, 28
1, 93943, Control_c, 0, 64, 78
1, 93957, Note_off_c, 0, 58, 62
1, 93957, Control_c, 0, 64, 79
1, 94002, Control_c, 0, 64, 79
1, 94024, Note_on_c, 0, 80, 61
1, 94046, Control_c, 0, 64, 79
1, 94047, Note_off_c, 0, 80, 59
1, 94061, Control_c, 0, 64, 77
1, 94063, Note_off_c, 0, 78, 36
1, 94075, Control_c, 0, 64, 73
1, 94086, Note_on_c, 0, 55, 87
1, 94090, Control_c, 0, 64, 66
1, 94092, Note_on_c, 0, 51, 74
1, 94102, Note_on_c, 0, 82, 74
1, 94105, Control_c, 0, 64, 42
1, 94120, Control_c, 0, 64, 0
1, 94131, Note_off_c, 0, 55, 64
1, 94131, Note_off_c, 0, 51, 60
1, 94137, Note_off_c, 0, 82, 66
1, 94181, Note_on_c, 0, 53, 82
1, 94189, Note_on_c, 0, 50, 69
1, 94194, Note_on_c, 0, 83, 71
1, 94213, Note_off_c, 0, 53, 67
1, 94215, Note_off_c, 0, 50, 66
1, 94249, Note_off_c, 0, 83, 59
1, 94268, Note_on_c, 0, 48, 85
1, 94273, Note_on_c, 0, 72, 76
1, 94282, Note_on_c, 0, 55, 69
1, 94321, Note_off_c, 0, 48, 60
1, 94356, Note_on_c, 0, 74, 76
1, 94362, Note_off_c, 0, 72, 62
1, 94367, Note_on_c, 0, 58, 90
1, 94381, Note_on_c, 0, 53, 72
1, 94420, Note_off_c, 0, 55, 64
1, 94480, Note_on_c, 0, 76, 66
1, 94498, Note_off_c, 0, 58, 61
1, 94502, Note_off_c, 0, 74, 47
1, 94510, Note_off_c, 0, 53, 49
1, 94524, Note_off_c, 0, 76, 66
1, 94557, Note_on_c, 0, 59, 84
1, 94558, Control_c, 0, 64, 57
1, 94560, Note_on_c, 0, 50, 80
1, 94569, Note_on_c, 0, 77, 82
1, 94573, Control_c, 0, 64, 67
1, 94587, Control_c, 0, 64, 73
1, 94597, Note_off_c, 0, 50, 65
1, 94602, Control_c, 0, 64, 79
1, 94605, Note_off_c, 0, 59, 64
1, 94617, Control_c, 0, 64, 81
1, 94647, Control_c, 0, 64, 82
1, 94662, Control_c, 0, 64, 82
1, 94679, Note_off_c, 0, 77, 41
1, 94685, Note_on_c, 0, 78, 66
1, 94720, Note_off_c, 0, 78, 62
1, 94721, Control_c, 0, 64, 81
1, 94736, Control_c, 0, 64, 77
1, 94751, Control_c, 0, 64, 70
1, 94752, Note_on_c, 0, 65, 80
1, 94758, Note_on_c, 0, 61, 80
1, 94761, Note_on_c, 0, 80, 80
1, 94766, Control_c, 0, 64, 54
1, 94774, Note_off_c, 0, 65, 72
1, 94780, Control_c, 0, 64, 0
1, 94793, Note_off_c, 0, 61, 64
1, 94802, Note_off_c, 0, 80, 63
1, 94843, Note_on_c, 0, 63, 85
1, 94848, Note_on_c, 0, 56, 76
1, 94852, Note_on_c, 0, 82, 80
1, 94887, Note_off_c, 0, 82, 66
1, 94888, Note_off_c, 0, 63, 63
1, 94891, Note_off_c, 0, 56, 54
1, 94921, Note_on_c, 0, 61, 82
1, 94936, Note_on_c, 0, 53, 70
1, 94948, Note_on_c, 0, 83, 72
1, 94951, Note_off_c, 0, 61, 64
1, 94963, Note_off_c, 0, 53, 67
1, 94996, Note_off_c, 0, 83, 59
1, 95018, Note_on_c, 0, 58, 96
1, 95023, Note_on_c, 0, 72, 87
1, 95033, Note_on_c, 0, 52, 76
1, 95122, Note_on_c, 0, 74, 74
1, 95130, Note_off_c, 0, 72, 61
1, 95146, Note_off_c, 0, 52, 62
1, 95189, Control_c, 0, 64, 56
1, 95200, Note_off_c, 0, 58, 42
1, 95203, Note_on_c, 0, 56, 82
1, 95204, Control_c, 0, 64, 67
1, 95211, Note_on_c, 0, 49, 74
1, 95219, Control_c, 0, 64, 73
1, 95231, Note_on_c, 0, 76, 77
1, 95234, Control_c, 0, 64, 76
1, 95243, Note_off_c, 0, 49, 65
1, 95249, Control_c, 0, 64, 77
1, 95251, Note_off_c, 0, 56, 63
1, 95264, Control_c, 0, 64, 77
1, 95270, Note_off_c, 0, 74, 26
1, 95271, Note_off_c, 0, 76, 66
1, 95293, Control_c, 0, 64, 78
1, 95308, Control_c, 0, 64, 78
1, 95327, Note_on_c, 0, 77, 74
1, 95352, Control_c, 0, 64, 77
1, 95367, Control_c, 0, 64, 74
1, 95382, Control_c, 0, 64, 68
1, 95383, Note_off_c, 0, 77, 57
1, 95397, Control_c, 0, 64, 47
1, 95399, Note_on_c, 0, 62, 100
1, 95411, Control_c, 0, 64, 0
1, 95414, Note_on_c, 0, 78, 74
1, 95448, Note_off_c, 0, 78, 63
1, 95475, Note_off_c, 0, 62, 60
1, 95487, Note_on_c, 0, 64, 85
1, 95490, Note_on_c, 0, 59, 72
1, 95503, Note_on_c, 0, 80, 72
1, 95527, Note_off_c, 0, 80, 69
1, 95562, Note_off_c, 0, 64, 61
1, 95577, Note_on_c, 0, 62, 85
1, 95579, Note_off_c, 0, 59, 63
1, 95580, Note_on_c, 0, 67, 83
1, 95589, Note_on_c, 0, 82, 75
1, 95618, Note_off_c, 0, 82, 63
1, 95619, Note_off_c, 0, 67, 63
1, 95660, Note_on_c, 0, 65, 87
1, 95663, Note_off_c, 0, 62, 58
1, 95673, Note_on_c, 0, 59, 69
1, 95678, Note_on_c, 0, 83, 75
1, 95720, Note_off_c, 0, 83, 62
1, 95764, Note_on_c, 0, 72, 79
1, 95840, Note_off_c, 0, 59, 63
1, 95861, Note_on_c, 0, 68, 96
1, 95863, Note_off_c, 0, 72, 60
1, 95864, Note_on_c, 0, 74, 77
1, 95866, Note_on_c, 0, 62, 70
1, 95872, Control_c, 0, 64, 52
1, 95887, Control_c, 0, 64, 65
1, 95893, Note_off_c, 0, 65, 62
1, 95908, Control_c, 0, 64, 67
1, 95923, Control_c, 0, 64, 69
1, 95938, Control_c, 0, 64, 71
1, 95949, Note_off_c, 0, 62, 58
1, 95953, Control_c, 0, 64, 74
1, 95967, Control_c, 0, 64, 75
1, 95981, Note_off_c, 0, 74, 33
1, 95982, Note_on_c, 0, 76, 68
1, 95994, Note_off_c, 0, 68, 63
1, 96021, Note_off_c, 0, 76, 64
1, 96027, Control_c, 0, 64, 74
1, 96042, Control_c, 0, 64, 71
1, 96057, Control_c, 0, 64, 64
1, 96065, Note_on_c, 0, 71, 94
1, 96072, Control_c, 0, 64, 0
1, 96074, Note_on_c, 0, 77, 83
1, 96118, Note_off_c, 0, 71, 63
1, 96130, Note_off_c, 0, 77, 57
1, 96154, Note_on_c, 0, 69, 83
1, 96158, Note_on_c, 0, 78, 73
1, 96167, Note_on_c, 0, 63, 68
1, 96204, Note_off_c, 0, 78, 63
1, 96219, Note_off_c, 0, 69, 63
1, 96238, Note_off_c, 0, 63, 63
1, 96244, Note_on_c, 0, 80, 78
1, 96250, Note_on_c, 0, 72, 80
1, 96273, Note_off_c, 0, 80, 64
1, 96293, Note_off_c, 0, 72, 60
1, 96327, Note_on_c, 0, 67, 91
1, 96329, Note_on_c, 0, 61, 89
1, 96336, Note_on_c, 0, 82, 75
1, 96374, Note_off_c, 0, 82, 66
1, 96437, Note_on_c, 0, 83, 65
1, 96494, Note_off_c, 0, 83, 56
1, 96503, Note_off_c, 0, 61, 49
1, 96514, Note_on_c, 0, 69, 96
1, 96518, Note_on_c, 0, 63, 83
1, 96519, Note_on_c, 0, 72, 88
1, 96519, Note_off_c, 0, 67, 59
1, 96584, Note_off_c, 0, 72, 63
1, 96614, Note_on_c, 0, 74, 85
1, 96625, Note_off_c, 0, 63, 62
1, 96646, Note_off_c, 0, 69, 62
1, 96693, Note_off_c, 0, 74, 63
1, 96706, Note_on_c, 0, 64, 78
1, 96706, Note_on_c, 0, 79, 89
1, 96709, Note_on_c, 0, 72, 85
1, 96751, Note_off_c, 0, 72, 66
1, 96773, Note_off_c, 0, 64, 64
1, 96793, Note_on_c, 0, 74, 81
1, 96793, Note_on_c, 0, 77, 81
1, 96799, Note_off_c, 0, 79, 60
1, 96804, Note_on_c, 0, 65, 77
1, 96856, Note_off_c, 0, 74, 62
1, 96873, Note_on_c, 0, 81, 87
1, 96878, Note_off_c, 0, 77, 49
1, 96886, Note_on_c, 0, 66, 75
1, 96890, Note_off_c, 0, 65, 39
1, 96908, Note_off_c, 0, 81, 63
1, 96969, Note_on_c, 0, 84, 98
1, 96975, Note_on_c, 0, 75, 91
1, 96976, Note_on_c, 0, 68, 85
1, 96976, Note_on_c, 0, 79, 86
1, 97002, Note_off_c, 0, 66, 60
1, 97003, Note_on_c, 0, 78, 43
1, 97004, Note_off_c, 0, 78, 127
1, 97042, Control_c, 0, 64, 45
1, 97056, Control_c, 0, 64, 59
1, 97071, Control_c, 0, 64, 61
1, 97073, Note_off_c, 0, 84, 62
1, 97076, Note_on_c, 0, 70, 83
1, 97079, Note_off_c, 0, 68, 61
1, 97085, Note_off_c, 0, 79, 61
1, 97095, Note_off_c, 0, 75, 61
1, 97100, Control_c, 0, 64, 60
1, 97115, Control_c, 0, 64, 57
1, 97130, Control_c, 0, 64, 50
1, 97144, Note_off_c, 0, 70, 62
1, 97145, Control_c, 0, 64, 37
1, 97156, Note_on_c, 0, 76, 86
1, 97157, Note_on_c, 0, 80, 87
1, 97158, Note_on_c, 0, 74, 83
1, 97160, Control_c, 0, 64, 15
1, 97170, Note_on_c, 0, 71, 80
1, 97174, Control_c, 0, 64, 0
1, 97239, Note_off_c, 0, 71, 59
1, 97273, Note_on_c, 0, 60, 76
1, 97279, Note_off_c, 0, 74, 59
1, 97279, Note_off_c, 0, 76, 62
1, 97295, Note_off_c, 0, 80, 63
1, 97343, Note_on_c, 0, 82, 83
1, 97344, Note_on_c, 0, 77, 80
1, 97362, Note_on_c, 0, 62, 67
1, 97380, Note_off_c, 0, 77, 62
1, 97380, Note_off_c, 0, 60, 51
1, 97388, Note_off_c, 0, 82, 64
1, 97432, Note_on_c, 0, 81, 89
1, 97435, Note_on_c, 0, 72, 82
1, 97443, Note_on_c, 0, 64, 70
1, 97445, Note_off_c, 0, 62, 58
1, 97467, Note_off_c, 0, 72, 64
1, 97483, Note_off_c, 0, 81, 52
1, 97493, Note_off_c, 0, 64, 61
1, 97514, Note_on_c, 0, 83, 88
1, 97516, Note_on_c, 0, 75, 87
1, 97526, Note_on_c, 0, 65, 68
1, 97553, Note_off_c, 0, 83, 63
1, 97559, Note_off_c, 0, 75, 67
1, 97570, Note_off_c, 0, 65, 59
1, 97604, Note_on_c, 0, 66, 71
1, 97604, Note_on_c, 0, 76, 100
1, 97604, Note_on_c, 0, 82, 98
1, 97624, Note_on_c, 0, 81, 81
1, 97677, Note_off_c, 0, 82, 43
1, 97682, Note_off_c, 0, 81, 59
1, 97688, Note_on_c, 0, 68, 73
1, 97690, Note_off_c, 0, 66, 63
1, 97776, Control_c, 0, 64, 76
1, 97778, Note_on_c, 0, 70, 75
1, 97783, Note_off_c, 0, 68, 63
1, 97785, Note_on_c, 0, 80, 94
1, 97785, Note_on_c, 0, 86, 96
1, 97791, Control_c, 0, 64, 114
1, 97805, Control_c, 0, 64, 127
1, 97810, Note_off_c, 0, 76, 66
1, 97839, Note_off_c, 0, 70, 62
1, 97840, Note_off_c, 0, 86, 62
1, 97843, Note_off_c, 0, 80, 63
1, 97875, Note_on_c, 0, 71, 74
1, 97914, Note_off_c, 0, 71, 59
1, 97923, Control_c, 0, 64, 117
1, 97938, Control_c, 0, 64, 103
1, 97938, Control_c, 0, 67, 11
1, 97953, Control_c, 0, 64, 91
1, 97953, Control_c, 0, 67, 19
1, 97968, Control_c, 0, 64, 79
1, 97968, Control_c, 0, 67, 28
1, 97970, Note_on_c, 0, 72, 78
1, 97982, Note_on_c, 0, 63, 57
1, 97983, Control_c, 0, 64, 60
1, 97983, Control_c, 0, 67, 39
1, 97997, Control_c, 0, 64, 0
1, 97997, Control_c, 0, 67, 48
1, 98012, Control_c, 0, 67, 56
1, 98018, Note_off_c, 0, 63, 66
1, 98027, Control_c, 0, 67, 62
1, 98037, Note_off_c, 0, 72, 58
1, 98042, Control_c, 0, 67, 68
1, 98052, Note_on_c, 0, 68, 58
1, 98057, Control_c, 0, 67, 73
1, 98060, Note_on_c, 0, 74, 63
1, 98072, Control_c, 0, 67, 76
1, 98087, Control_c, 0, 67, 79
1, 98102, Control_c, 0, 67, 81
1, 98110, Note_off_c, 0, 74, 56
1, 98112, Note_off_c, 0, 68, 62
1, 98117, Control_c, 0, 67, 82
1, 98131, Control_c, 0, 67, 83
1, 98135, Note_on_c, 0, 67, 54
1, 98154, Control_c, 0, 67, 85
1, 98164, Note_on_c, 0, 76, 59
1, 98169, Control_c, 0, 67, 88
1, 98184, Control_c, 0, 67, 92
1, 98185, Note_off_c, 0, 76, 61
1, 98199, Control_c, 0, 67, 94
1, 98213, Control_c, 0, 67, 95
1, 98229, Control_c, 0, 67, 96
1, 98252, Note_on_c, 0, 77, 59
1, 98254, Note_off_c, 0, 67, 52
1, 98259, Control_c, 0, 67, 96
1, 98265, Note_on_c, 0, 70, 49
1, 98270, Note_on_c, 0, 61, 36
1, 98275, Note_off_c, 0, 77, 58
1, 98338, Note_on_c, 0, 78, 59
1, 98358, Note_off_c, 0, 78, 66
1, 98362, Control_c, 0, 67, 97
1, 98370, Note_off_c, 0, 70, 53
1, 98392, Control_c, 0, 67, 97
1, 98393, Note_off_c, 0, 61, 49
1, 98425, Note_on_c, 0, 80, 67
1, 98436, Control_c, 0, 67, 98
1, 98441, Note_on_c, 0, 65, 39
1, 98446, Note_on_c, 0, 71, 49
1, 98451, Control_c, 0, 67, 99
1, 98453, Note_off_c, 0, 80, 65
1, 98466, Control_c, 0, 67, 101
1, 98481, Control_c, 0, 67, 102
1, 98496, Control_c, 0, 67, 105
1, 98510, Control_c, 0, 67, 107
1, 98525, Control_c, 0, 67, 110
1, 98538, Note_on_c, 0, 82, 54
1, 98540, Control_c, 0, 67, 113
1, 98552, Note_off_c, 0, 71, 60
1, 98555, Control_c, 0, 67, 116
1, 98557, Note_off_c, 0, 82, 64
1, 98566, Note_off_c, 0, 65, 34
1, 98570, Control_c, 0, 67, 119
1, 98584, Control_c, 0, 67, 123
1, 98599, Control_c, 0, 67, 127
1, 98617, Note_on_c, 0, 83, 58
1, 98620, Note_on_c, 0, 67, 39
1, 98640, Note_off_c, 0, 83, 58
1, 98650, Note_off_c, 0, 67, 47
1, 98698, Note_on_c, 0, 66, 68
1, 98707, Note_on_c, 0, 72, 60
1, 98731, Note_off_c, 0, 66, 64
1, 98743, Note_off_c, 0, 72, 60
1, 98778, Note_on_c, 0, 65, 60
1, 98787, Note_on_c, 0, 74, 63
1, 98809, Note_off_c, 0, 65, 64
1, 98866, Note_off_c, 0, 74, 37
1, 98878, Note_on_c, 0, 76, 60
1, 98884, Note_on_c, 0, 58, 64
1, 98912, Note_off_c, 0, 76, 61
1, 98936, Note_off_c, 0, 58, 59
1, 98966, Note_on_c, 0, 77, 67
1, 99015, Note_off_c, 0, 77, 53
1, 99038, Control_c, 0, 64, 60
1, 99052, Control_c, 0, 64, 67
1, 99060, Note_on_c, 0, 63, 65
1, 99061, Note_on_c, 0, 78, 63
1, 99067, Control_c, 0, 64, 71
1, 99067, Note_on_c, 0, 56, 62
1, 99082, Control_c, 0, 64, 76
1, 99093, Note_off_c, 0, 63, 64
1, 99097, Control_c, 0, 64, 79
1, 99112, Control_c, 0, 64, 80
1, 99118, Note_off_c, 0, 56, 56
1, 99126, Control_c, 0, 64, 81
1, 99141, Control_c, 0, 64, 82
1, 99151, Note_on_c, 0, 80, 60
1, 99156, Control_c, 0, 64, 83
1, 99172, Note_off_c, 0, 78, 37
1, 99175, Note_off_c, 0, 80, 59
1, 99215, Control_c, 0, 64, 81
1, 99230, Control_c, 0, 64, 76
1, 99231, Note_on_c, 0, 56, 76
1, 99237, Note_on_c, 0, 82, 73
1, 99245, Control_c, 0, 64, 68
1, 99249, Note_off_c, 0, 56, 59
1, 99259, Control_c, 0, 64, 36
1, 99261, Note_on_c, 0, 55, 61
1, 99264, Note_off_c, 0, 82, 67
1, 99274, Control_c, 0, 64, 0
1, 99288, Note_off_c, 0, 55, 65
1, 99328, Note_on_c, 0, 56, 69
1, 99333, Note_on_c, 0, 83, 60
1, 99354, Note_off_c, 0, 56, 66
1, 99366, Note_on_c, 0, 49, 5
1, 99366, Note_off_c, 0, 83, 60
1, 99408, Note_on_c, 0, 72, 65
1, 99410, Note_on_c, 0, 54, 79
1, 99414, Note_off_c, 0, 49, 27
1, 99458, Note_off_c, 0, 54, 58
1, 99480, Note_off_c, 0, 72, 61
1, 99493, Note_on_c, 0, 53, 65
1, 99494, Note_on_c, 0, 74, 56
1, 99499, Note_on_c, 0, 47, 61
1, 99577, Note_off_c, 0, 53, 63
1, 99583, Note_off_c, 0, 74, 50
1, 99590, Note_on_c, 0, 76, 59
1, 99608, Note_off_c, 0, 47, 58
1, 99619, Note_off_c, 0, 76, 60
1, 99688, Note_on_c, 0, 77, 69
1, 99694, Note_on_c, 0, 49, 59
1, 99717, Note_on_c, 0, 46, 36
1, 99725, Note_off_c, 0, 77, 57
1, 99727, Note_off_c, 0, 49, 63
1, 99749, Note_off_c, 0, 46, 47
1, 99770, Note_on_c, 0, 78, 64
1, 99780, Note_on_c, 0, 45, 69
1, 99802, Note_off_c, 0, 78, 64
1, 99829, Note_off_c, 0, 45, 63
1, 99865, Note_on_c, 0, 80, 62
1, 99866, Note_on_c, 0, 50, 54
1, 99882, Note_off_c, 0, 80, 64
1, 99906, Note_off_c, 0, 50, 65
1, 99942, Note_on_c, 0, 43, 59
1, 99961, Note_on_c, 0, 82, 63
1, 99984, Note_off_c, 0, 82, 66
1, 99995, Note_off_c, 0, 43, 57
1, 100050, Note_on_c, 0, 83, 58
1, 100081, Note_off_c, 0, 83, 62
1, 100129, Note_on_c, 0, 72, 63
1, 100133, Note_on_c, 0, 41, 54
1, 100137, Note_on_c, 0, 44, 46
1, 100175, Note_off_c, 0, 44, 62
1, 100176, Note_off_c, 0, 72, 59
1, 100182, Note_off_c, 0, 41, 59
1, 100217, Note_on_c, 0, 74, 58
1, 100224, Note_on_c, 0, 47, 60
1, 100254, Note_off_c, 0, 47, 65
1, 100273, Note_off_c, 0, 74, 50
1, 100276, Note_on_c, 0, 46, 66
1, 100304, Note_off_c, 0, 46, 64
1, 100311, Note_on_c, 0, 76, 56
1, 100328, Note_off_c, 0, 76, 66
1, 100383, Note_on_c, 0, 45, 51
1, 100385, Note_on_c, 0, 39, 48
1, 100387, Note_on_c, 0, 77, 67
1, 100417, Note_off_c, 0, 45, 57
1, 100421, Note_off_c, 0, 39, 59
1, 100427, Note_off_c, 0, 77, 60
1, 100472, Note_on_c, 0, 78, 67
1, 100476, Note_on_c, 0, 38, 63
1, 100498, Note_off_c, 0, 78, 68
1, 100522, Note_off_c, 0, 38, 61
1, 100559, Note_on_c, 0, 47, 77
1, 100559, Note_on_c, 0, 80, 70
1, 100575, Note_on_c, 0, 41, 60
1, 100575, Note_off_c, 0, 80, 68
1, 100603, Note_off_c, 0, 47, 64
1, 100611, Note_off_c, 0, 41, 64
1, 100659, Note_on_c, 0, 40, 53
1, 100665, Note_on_c, 0, 82, 55
1, 100683, Note_off_c, 0, 82, 63
1, 100692, Note_off_c, 0, 40, 65
1, 100758, Note_on_c, 0, 83, 44
1, 100781, Note_off_c, 0, 83, 51
1, 100832, Note_on_c, 0, 72, 66
1, 100853, Note_on_c, 0, 39, 58
1, 100865, Note_off_c, 0, 72, 63
1, 100886, Note_off_c, 0, 39, 63
1, 100915, Note_on_c, 0, 74, 58
1, 100931, Note_on_c, 0, 35, 49
1, 100954, Note_off_c, 0, 74, 52
1, 100978, Note_off_c, 0, 35, 60
1, 101017, Note_on_c, 0, 76, 43
1, 101038, Note_off_c, 0, 76, 53
1, 101083, Note_on_c, 0, 32, 8
1, 101085, Note_on_c, 0, 77, 69
1, 101092, Note_on_c, 0, 38, 39
1, 101118, Note_off_c, 0, 77, 61
1, 101121, Note_off_c, 0, 32, 41
1, 101124, Note_off_c, 0, 38, 48
1, 101158, Note_on_c, 0, 36, 54
1, 101181, Note_on_c, 0, 78, 63
1, 101187, Note_off_c, 0, 36, 62
1, 101205, Note_off_c, 0, 78, 66
1, 101267, Note_on_c, 0, 29, 62
1, 101268, Note_on_c, 0, 80, 61
1, 101273, Note_on_c, 0, 35, 52
1, 101284, Note_off_c, 0, 80, 65
1, 101309, Note_off_c, 0, 35, 60
1, 101309, Note_off_c, 0, 29, 62
1, 101365, Note_on_c, 0, 82, 56
1, 101386, Note_off_c, 0, 82, 60
1, 101390, Note_on_c, 0, 28, 43
1, 101428, Note_off_c, 0, 28, 61
1, 101457, Note_on_c, 0, 83, 48
1, 101463, Note_on_c, 0, 26, 40
1, 101480, Note_off_c, 0, 83, 51
1, 101498, Note_off_c, 0, 26, 56
1, 101539, Note_on_c, 0, 84, 67
1, 101549, Note_on_c, 0, 27, 53
1, 101553, Note_on_c, 0, 33, 34
1, 101568, Note_off_c, 0, 84, 66
1, 101592, Note_off_c, 0, 33, 45
1, 101594, Note_off_c, 0, 27, 61
1, 101610, Note_on_c, 0, 26, 50
1, 101621, Note_on_c, 0, 86, 60
1, 101652, Note_off_c, 0, 86, 57
1, 101692, Note_off_c, 0, 26, 52
1, 101716, Note_on_c, 0, 88, 49
1, 101739, Note_off_c, 0, 88, 52
1, 101747, Note_on_c, 0, 25, 32
1, 101770, Note_off_c, 0, 25, 53
1, 101797, Note_on_c, 0, 89, 62
1, 101801, Note_on_c, 0, 23, 50
1, 101821, Note_off_c, 0, 89, 61
1, 101860, Note_off_c, 0, 23, 50
1, 101879, Note_on_c, 0, 90, 61
1, 101910, Note_on_c, 0, 24, 51
1, 101916, Note_off_c, 0, 90, 67
1, 101949, Note_off_c, 0, 24, 61
1, 101970, Note_on_c, 0, 92, 69
1, 101991, Note_on_c, 0, 29, 56
1, 101997, Note_off_c, 0, 92, 64
1, 102025, Note_off_c, 0, 29, 60
1, 102066, Note_on_c, 0, 94, 67
1, 102087, Note_on_c, 0, 28, 41
1, 102091, Note_off_c, 0, 94, 69
1, 102123, Note_off_c, 0, 28, 56
1, 102156, Note_on_c, 0, 95, 71
1, 102157, Note_on_c, 0, 30, 30
1, 102182, Note_off_c, 0, 95, 67
1, 102200, Note_off_c, 0, 30, 37
1, 102250, Note_on_c, 0, 96, 76
1, 102257, Note_on_c, 0, 24, 63
1, 102303, Note_off_c, 0, 24, 59
1, 102304, Note_off_c, 0, 96, 58
1, 102333, Note_on_c, 0, 98, 75
1, 102358, Note_on_c, 0, 23, 61
1, 102388, Note_off_c, 0, 98, 59
1, 102401, Note_off_c, 0, 23, 62
1, 102436, Note_on_c, 0, 100, 62
1, 102454, Note_off_c, 0, 100, 65
1, 102534, Note_on_c, 0, 101, 54
1, 102564, Note_off_c, 0, 101, 53
1, 102588, Poly_aftertouch_c, 0, 23, 0
1, 102597, Note_on_c, 0, 21, 48
1, 102618, Note_on_c, 0, 27, 33
1, 102628, Note_on_c, 0, 102, 48
1, 102647, Control_c, 0, 64, 32
1, 102662, Control_c, 0, 64, 58
1, 102663, Note_off_c, 0, 102, 62
1, 102665, Note_off_c, 0, 21, 53
1, 102677, Control_c, 0, 64, 64
1, 102692, Note_off_c, 0, 27, 40
1, 102692, Control_c, 0, 64, 66
1, 102707, Control_c, 0, 64, 69
1, 102708, Note_on_c, 0, 104, 55
1, 102721, Control_c, 0, 64, 73
1, 102736, Control_c, 0, 64, 77
1, 102751, Control_c, 0, 64, 81
1, 102766, Control_c, 0, 64, 82
1, 102795, Control_c, 0, 64, 83
1, 102796, Note_on_c, 0, 106, 56
1, 102817, Note_off_c, 0, 104, 39
1, 102825, Control_c, 0, 64, 83
1, 102854, Control_c, 0, 64, 84
1, 102869, Note_off_c, 0, 106, 40
1, 102893, Note_on_c, 0, 107, 54
1, 102957, Note_off_c, 0, 107, 59
1, 102999, Note_on_c, 0, 96, 55
1, 103012, Note_on_c, 0, 36, 38
1, 103068, Note_off_c, 0, 96, 45
1, 103092, Note_off_c, 0, 36, 40
1, 103102, Note_on_c, 0, 98, 50
1, 103185, Poly_aftertouch_c, 0, 38, 127
1, 103186, Note_on_c, 0, 40, 47
1, 103189, Note_on_c, 0, 100, 58
1, 103192, Note_off_c, 0, 98, 42
1, 103214, Poly_aftertouch_c, 0, 38, 0
1, 103219, Note_off_c, 0, 100, 62
1, 103221, Note_off_c, 0, 40, 60
1, 103257, Note_on_c, 0, 41, 55
1, 103284, Note_on_c, 0, 101, 63
1, 103305, Note_off_c, 0, 41, 56
1, 103317, Note_off_c, 0, 101, 63
1, 103373, Note_on_c, 0, 42, 46
1, 103379, Note_on_c, 0, 102, 49
1, 103428, Note_off_c, 0, 42, 45
1, 103449, Note_off_c, 0, 102, 46
1, 103470, Note_on_c, 0, 104, 53
1, 103490, Note_off_c, 0, 104, 61
1, 103494, Note_on_c, 0, 44, 36
1, 103533, Note_off_c, 0, 44, 49
1, 103555, Note_on_c, 0, 106, 67
1, 103579, Note_on_c, 0, 46, 44
1, 103580, Note_off_c, 0, 106, 67
1, 103620, Note_off_c, 0, 46, 55
1, 103646, Note_on_c, 0, 107, 58
1, 103665, Note_off_c, 0, 107, 63
1, 103674, Note_on_c, 0, 47, 50
1, 103704, Note_off_c, 0, 47, 54
1, 103785, Note_on_c, 0, 84, 56
1, 103792, Note_on_c, 0, 48, 51
1, 103823, Note_off_c, 0, 84, 49
1, 103887, Note_on_c, 0, 86, 42
1, 103907, Note_on_c, 0, 50, 33
1, 103922, Note_off_c, 0, 48, 30
1, 103955, Note_off_c, 0, 86, 36
1, 103956, Note_off_c, 0, 50, 43
1, 103968, Note_on_c, 0, 88, 55
1, 103988, Note_on_c, 0, 52, 30
1, 103990, Note_off_c, 0, 88, 61
1, 104025, Note_off_c, 0, 52, 55
1, 104057, Note_on_c, 0, 89, 62
1, 104065, Note_on_c, 0, 53, 50
1, 104086, Note_off_c, 0, 89, 60
1, 104108, Note_off_c, 0, 53, 46
1, 104152, Note_on_c, 0, 90, 62
1, 104171, Note_on_c, 0, 54, 39
1, 104187, Note_off_c, 0, 90, 64
1, 104223, Note_off_c, 0, 54, 41
1, 104242, Note_on_c, 0, 92, 61
1, 104263, Note_off_c, 0, 92, 59
1, 104266, Note_on_c, 0, 56, 37
1, 104313, Note_off_c, 0, 56, 45
1, 104333, Note_on_c, 0, 94, 66
1, 104353, Note_on_c, 0, 58, 44
1, 104358, Note_off_c, 0, 94, 70
1, 104400, Note_off_c, 0, 58, 45
1, 104430, Note_on_c, 0, 95, 44
1, 104448, Note_on_c, 0, 59, 54
1, 104456, Note_off_c, 0, 95, 35
1, 104482, Note_off_c, 0, 59, 56
1, 104545, Control_c, 0, 64, 83
1, 104560, Control_c, 0, 64, 81
1, 104567, Note_on_c, 0, 72, 65
1, 104571, Note_on_c, 0, 60, 51
1, 104574, Control_c, 0, 64, 77
1, 104589, Control_c, 0, 64, 68
1, 104604, Control_c, 0, 64, 43
1, 104611, Note_off_c, 0, 72, 54
1, 104619, Note_off_c, 0, 60, 44
1, 104620, Control_c, 0, 64, 0
1, 104664, Note_on_c, 0, 74, 52
1, 104670, Note_on_c, 0, 62, 18
1, 104740, Note_off_c, 0, 62, 38
1, 104743, Note_on_c, 0, 76, 64
1, 104745, Note_on_c, 0, 64, 43
1, 104788, Note_off_c, 0, 64, 62
1, 104791, Note_off_c, 0, 74, 37
1, 104823, Note_on_c, 0, 77, 68
1, 104841, Note_off_c, 0, 76, 61
1, 104844, Note_on_c, 0, 65, 56
1, 104848, Note_off_c, 0, 77, 67
1, 104893, Note_off_c, 0, 65, 59
1, 104921, Note_on_c, 0, 75, 70
1, 104923, Note_on_c, 0, 82, 66
1, 104927, Note_on_c, 0, 66, 62
1, 104963, Note_off_c, 0, 75, 60
1, 104978, Note_off_c, 0, 66, 56
1, 104999, Note_on_c, 0, 77, 67
1, 105004, Note_off_c, 0, 82, 61
1, 105024, Note_on_c, 0, 72, 58
1, 105032, Note_on_c, 0, 68, 54
1, 105047, Note_off_c, 0, 77, 60
1, 105080, Note_off_c, 0, 68, 59
1, 105110, Note_on_c, 0, 73, 66
1, 105110, Note_off_c, 0, 72, 64
1, 105131, Note_on_c, 0, 70, 52
1, 105167, Note_off_c, 0, 70, 64
1, 105190, Note_on_c, 0, 80, 72
1, 105197, Note_on_c, 0, 75, 67
1, 105213, Note_off_c, 0, 73, 52
1, 105219, Note_on_c, 0, 71, 48
1, 105265, Note_off_c, 0, 71, 56
1, 105294, Control_c, 0, 64, 48
1, 105301, Note_on_c, 0, 60, 58
1, 105305, Note_off_c, 0, 75, 59
1, 105309, Control_c, 0, 64, 62
1, 105309, Control_c, 0, 67, 125
1, 105323, Control_c, 0, 64, 64
1, 105323, Control_c, 0, 67, 117
1, 105324, Note_off_c, 0, 80, 61
1, 105338, Control_c, 0, 64, 65
1, 105338, Control_c, 0, 67, 109
1, 105353, Control_c, 0, 67, 103
1, 105368, Control_c, 0, 67, 99
1, 105382, Note_off_c, 0, 60, 51
1, 105383, Control_c, 0, 64, 64
1, 105383, Control_c, 0, 67, 99
1, 105389, Note_on_c, 0, 77, 74
1, 105396, Note_on_c, 0, 62, 47
1, 105397, Control_c, 0, 64, 62
1, 105413, Control_c, 0, 64, 56
1, 105413, Control_c, 0, 67, 99
1, 105428, Control_c, 0, 64, 39
1, 105428, Control_c, 0, 67, 100
1, 105442, Note_off_c, 0, 77, 57
1, 105443, Control_c, 0, 64, 0
1, 105443, Control_c, 0, 67, 102
1, 105458, Control_c, 0, 67, 103
1, 105467, Note_off_c, 0, 62, 56
1, 105479, Note_on_c, 0, 73, 63
1, 105482, Note_on_c, 0, 80, 73
1, 105482, Note_on_c, 0, 64, 53
1, 105487, Control_c, 0, 67, 103
1, 105522, Note_off_c, 0, 64, 65
1, 105532, Control_c, 0, 67, 104
1, 105533, Note_off_c, 0, 73, 53
1, 105546, Control_c, 0, 67, 105
1, 105561, Control_c, 0, 67, 105
1, 105570, Note_on_c, 0, 82, 71
1, 105576, Note_on_c, 0, 65, 50
1, 105588, Note_off_c, 0, 80, 29
1, 105644, Note_off_c, 0, 65, 45
1, 105657, Control_c, 0, 67, 106
1, 105670, Note_on_c, 0, 66, 58
1, 105671, Control_c, 0, 67, 106
1, 105675, Note_off_c, 0, 82, 56
1, 105676, Note_on_c, 0, 75, 65
1, 105716, Control_c, 0, 67, 106
1, 105748, Note_off_c, 0, 66, 52
1, 105790, Note_on_c, 0, 68, 39
1, 105841, Note_off_c, 0, 68, 43
1, 105852, Note_off_c, 0, 75, 62
1, 105867, Note_on_c, 0, 79, 69
1, 105894, Note_on_c, 0, 74, 24
1, 105894, Control_c, 0, 67, 105
1, 105903, Note_on_c, 0, 70, 26
1, 105905, Note_off_c, 0, 79, 55
1, 105930, Note_off_c, 0, 74, 32
1, 105930, Note_off_c, 0, 70, 48
1, 105938, Control_c, 0, 67, 105
1, 105953, Note_on_c, 0, 76, 75
1, 105953, Control_c, 0, 67, 104
1, 105968, Control_c, 0, 67, 104
1, 105976, Note_on_c, 0, 71, 48
1, 105980, Note_off_c, 0, 76, 65
1, 105983, Control_c, 0, 67, 103
1, 105998, Control_c, 0, 67, 102
1, 106003, Note_off_c, 0, 71, 54
1, 106012, Control_c, 0, 67, 101
1, 106027, Control_c, 0, 67, 101
1, 106042, Control_c, 0, 67, 100
1, 106047, Note_on_c, 0, 75, 68
1, 106052, Note_on_c, 0, 60, 58
1, 106053, Note_on_c, 0, 82, 66
1, 106057, Control_c, 0, 67, 99
1, 106072, Note_off_c, 0, 75, 69
1, 106076, Note_off_c, 0, 82, 67
1, 106086, Control_c, 0, 67, 98
1, 106101, Control_c, 0, 67, 97
1, 106116, Control_c, 0, 67, 93
1, 106126, Note_off_c, 0, 60, 55
1, 106131, Note_on_c, 0, 82, 64
1, 106132, Note_off_c, 0, 82, 127
1, 106132, Control_c, 0, 67, 89
1, 106145, Control_c, 0, 67, 83
1, 106147, Note_on_c, 0, 81, 68
1, 106154, Note_on_c, 0, 62, 44
1, 106160, Control_c, 0, 67, 76
1, 106173, Note_off_c, 0, 81, 67
1, 106175, Control_c, 0, 67, 68
1, 106190, Control_c, 0, 67, 63
1, 106206, Control_c, 0, 67, 60
1, 106210, Note_off_c, 0, 62, 56
1, 106219, Note_on_c, 0, 64, 50
1, 106220, Note_on_c, 0, 86, 78
1, 106221, Control_c, 0, 67, 56
1, 106229, Note_on_c, 0, 79, 66
1, 106235, Control_c, 0, 67, 52
1, 106250, Control_c, 0, 67, 47
1, 106257, Note_off_c, 0, 64, 63
1, 106260, Note_off_c, 0, 79, 62
1, 106265, Control_c, 0, 67, 41
1, 106279, Control_c, 0, 67, 33
1, 106280, Note_off_c, 0, 86, 60
1, 106294, Control_c, 0, 67, 28
1, 106306, Note_on_c, 0, 65, 51
1, 106309, Control_c, 0, 67, 22
1, 106322, Note_on_c, 0, 85, 63
1, 106324, Note_on_c, 0, 82, 59
1, 106324, Control_c, 0, 67, 15
1, 106339, Control_c, 0, 67, 8
1, 106344, Note_off_c, 0, 82, 65
1, 106348, Note_off_c, 0, 85, 68
1, 106354, Control_c, 0, 67, 0
1, 106368, Note_off_c, 0, 65, 41
1, 106418, Note_on_c, 0, 88, 82
1, 106421, Control_c, 0, 64, 61
1, 106421, Note_on_c, 0, 66, 45
1, 106424, Note_on_c, 0, 81, 68
1, 106436, Control_c, 0, 64, 67
1, 106449, Note_off_c, 0, 81, 58
1, 106450, Control_c, 0, 64, 70
1, 106457, Note_off_c, 0, 88, 61
1, 106465, Control_c, 0, 64, 74
1, 106480, Control_c, 0, 64, 76
1, 106494, Control_c, 0, 64, 78
1, 106509, Control_c, 0, 64, 79
1, 106526, Note_off_c, 0, 66, 39
1, 106530, Note_on_c, 0, 68, 48
1, 106583, Control_c, 0, 64, 80
1, 106643, Note_on_c, 0, 70, 52
1, 106663, Note_off_c, 0, 68, 39
1, 106692, Note_off_c, 0, 70, 60
1, 106700, Note_on_c, 0, 86, 98
1, 106701, Note_on_c, 0, 79, 94
1, 106716, Control_c, 0, 64, 78
1, 106717, Note_on_c, 0, 71, 71
1, 106723, Note_off_c, 0, 86, 63
1, 106728, Note_off_c, 0, 79, 63
1, 106731, Control_c, 0, 64, 73
1, 106746, Control_c, 0, 64, 64
1, 106761, Control_c, 0, 64, 0
1, 106770, Note_off_c, 0, 71, 59
1, 106797, Note_on_c, 0, 81, 102
1, 106799, Note_on_c, 0, 74, 93
1, 106808, Note_on_c, 0, 60, 77
1, 106830, Note_off_c, 0, 74, 68
1, 106880, Control_c, 0, 64, 49
1, 106882, Note_on_c, 0, 79, 93
1, 106891, Note_off_c, 0, 81, 58
1, 106894, Control_c, 0, 64, 59
1, 106909, Control_c, 0, 64, 62
1, 106910, Note_on_c, 0, 62, 63
1, 106920, Note_off_c, 0, 60, 50
1, 106924, Control_c, 0, 64, 64
1, 106938, Note_off_c, 0, 79, 60
1, 106939, Control_c, 0, 64, 65
1, 106954, Control_c, 0, 64, 66
1, 106968, Control_c, 0, 64, 67
1, 106981, Note_on_c, 0, 64, 70
1, 106983, Control_c, 0, 64, 69
1, 106988, Note_on_c, 0, 81, 107
1, 106989, Note_on_c, 0, 73, 101
1, 106998, Control_c, 0, 64, 70
1, 107014, Control_c, 0, 64, 72
1, 107017, Note_off_c, 0, 62, 57
1, 107029, Control_c, 0, 64, 73
1, 107044, Control_c, 0, 64, 74
1, 107056, Note_off_c, 0, 64, 62
1, 107058, Control_c, 0, 64, 75
1, 107085, Note_on_c, 0, 65, 74
1, 107085, Note_off_c, 0, 73, 59
1, 107088, Note_off_c, 0, 81, 61
1, 107116, Control_c, 0, 64, 74
1, 107139, Control_c, 0, 64, 72
1, 107154, Control_c, 0, 64, 64
1, 107169, Control_c, 0, 64, 0
1, 107184, Note_on_c, 0, 66, 80
1, 107193, Note_on_c, 0, 74, 89
1, 107206, Note_off_c, 0, 65, 41
1, 107240, Note_off_c, 0, 74, 66
1, 107271, Note_on_c, 0, 83, 88
1, 107277, Note_on_c, 0, 68, 78
1, 107277, Note_on_c, 0, 76, 83
1, 107277, Note_off_c, 0, 66, 61
1, 107360, Note_off_c, 0, 76, 41
1, 107364, Note_on_c, 0, 73, 87
1, 107364, Note_on_c, 0, 78, 86
1, 107366, Note_off_c, 0, 83, 60
1, 107381, Note_off_c, 0, 68, 55
1, 107385, Note_on_c, 0, 70, 77
1, 107408, Note_off_c, 0, 73, 64
1, 107411, Note_off_c, 0, 78, 63
1, 107447, Note_off_c, 0, 70, 62
1, 107450, Control_c, 0, 64, 62
1, 107450, Control_c, 0, 67, 15
1, 107453, Note_on_c, 0, 75, 102
1, 107454, Note_on_c, 0, 81, 96
1, 107465, Control_c, 0, 64, 104
1, 107465, Control_c, 0, 67, 32
1, 107475, Note_on_c, 0, 71, 74
1, 107479, Control_c, 0, 64, 127
1, 107479, Control_c, 0, 67, 52
1, 107494, Note_off_c, 0, 81, 60
1, 107494, Control_c, 0, 67, 75
1, 107506, Note_off_c, 0, 75, 63
1, 107509, Control_c, 0, 67, 96
1, 107524, Control_c, 0, 67, 117
1, 107529, Note_off_c, 0, 71, 59
1, 107539, Control_c, 0, 67, 127
1, 107569, Control_c, 0, 64, 127
1, 107575, Note_on_c, 0, 60, 61
1, 107583, Control_c, 0, 64, 122
1, 107584, Note_on_c, 0, 74, 47
1, 107598, Control_c, 0, 64, 116
1, 107613, Control_c, 0, 64, 108
1, 107628, Control_c, 0, 64, 100
1, 107642, Control_c, 0, 64, 92
1, 107657, Control_c, 0, 64, 84
1, 107672, Control_c, 0, 64, 78
1, 107682, Note_off_c, 0, 60, 53
1, 107685, Note_on_c, 0, 62, 47
1, 107687, Control_c, 0, 64, 70
1, 107690, Note_on_c, 0, 70, 63
1, 107691, Note_on_c, 0, 77, 63
1, 107692, Note_off_c, 0, 74, 41
1, 107702, Control_c, 0, 64, 60
1, 107716, Control_c, 0, 64, 21
1, 107731, Control_c, 0, 64, 0
1, 107739, Note_off_c, 0, 62, 48
1, 107749, Note_off_c, 0, 70, 58
1, 107759, Note_on_c, 0, 64, 37
1, 107759, Note_off_c, 0, 77, 60
1, 107784, Note_on_c, 0, 72, 66
1, 107787, Note_off_c, 0, 64, 58
1, 107848, Note_on_c, 0, 65, 46
1, 107869, Note_on_c, 0, 74, 59
1, 107874, Note_off_c, 0, 72, 60
1, 107889, Note_on_c, 0, 80, 58
1, 107906, Note_off_c, 0, 74, 67
1, 107909, Note_off_c, 0, 65, 47
1, 107955, Note_on_c, 0, 66, 51
1, 107961, Note_off_c, 0, 80, 62
1, 107975, Note_on_c, 0, 72, 74
1, 108007, Control_c, 0, 67, 119
1, 108015, Note_off_c, 0, 66, 45
1, 108022, Control_c, 0, 67, 107
1, 108022, Note_off_c, 0, 72, 59
1, 108037, Control_c, 0, 67, 94
1, 108052, Control_c, 0, 67, 81
1, 108057, Note_on_c, 0, 75, 82
1, 108059, Note_on_c, 0, 68, 46
1, 108066, Control_c, 0, 67, 67
1, 108081, Control_c, 0, 67, 54
1, 108096, Control_c, 0, 67, 40
1, 108111, Control_c, 0, 67, 29
1, 108114, Note_off_c, 0, 75, 64
1, 108126, Control_c, 0, 67, 21
1, 108132, Note_off_c, 0, 68, 44
1, 108136, Note_on_c, 0, 72, 80
1, 108137, Note_on_c, 0, 79, 82
1, 108140, Control_c, 0, 67, 15
1, 108155, Control_c, 0, 67, 11
1, 108168, Note_off_c, 0, 72, 62
1, 108170, Control_c, 0, 67, 8
1, 108178, Note_on_c, 0, 70, 47
1, 108185, Control_c, 0, 67, 0
1, 108216, Note_off_c, 0, 79, 39
1, 108220, Note_off_c, 0, 70, 63
1, 108222, Note_on_c, 0, 78, 82
1, 108227, Note_on_c, 0, 75, 84
1, 108257, Note_off_c, 0, 78, 65
1, 108261, Note_on_c, 0, 71, 64
1, 108269, Note_off_c, 0, 75, 66
1, 108311, Note_off_c, 0, 71, 60
1, 108320, Note_on_c, 0, 76, 89
1, 108321, Note_on_c, 0, 82, 85
1, 108340, Note_on_c, 0, 60, 69
1, 108345, Note_off_c, 0, 82, 56
1, 108356, Note_off_c, 0, 76, 69
1, 108377, Control_c, 0, 64, 23
1, 108392, Control_c, 0, 64, 24
1, 108400, Note_on_c, 0, 84, 92
1, 108408, Note_on_c, 0, 78, 91
1, 108421, Control_c, 0, 64, 23
1, 108427, Note_on_c, 0, 62, 65
1, 108436, Control_c, 0, 64, 15
1, 108442, Note_off_c, 0, 84, 67
1, 108445, Note_off_c, 0, 78, 65
1, 108451, Note_off_c, 0, 60, 53
1, 108451, Control_c, 0, 64, 0
1, 108481, Control_c, 0, 64, 13
1, 108493, Note_on_c, 0, 80, 103
1, 108494, Note_on_c, 0, 74, 99
1, 108496, Control_c, 0, 64, 40
1, 108499, Note_on_c, 0, 64, 76
1, 108511, Control_c, 0, 64, 62
1, 108526, Control_c, 0, 64, 69
1, 108531, Note_off_c, 0, 62, 60
1, 108535, Note_off_c, 0, 74, 61
1, 108540, Control_c, 0, 64, 78
1, 108555, Control_c, 0, 64, 89
1, 108561, Note_off_c, 0, 64, 63
1, 108570, Control_c, 0, 64, 93
1, 108581, Note_on_c, 0, 65, 76
1, 108585, Control_c, 0, 64, 94
1, 108591, Note_off_c, 0, 80, 64
1, 108658, Note_off_c, 0, 65, 55
1, 108676, Note_on_c, 0, 66, 67
1, 108771, Note_on_c, 0, 68, 67
1, 108773, Note_off_c, 0, 66, 58
1, 108851, Note_off_c, 0, 68, 57
1, 108856, Note_on_c, 0, 70, 66
1, 108922, Note_off_c, 0, 70, 60
1, 108958, Note_on_c, 0, 67, 62
1, 108964, Note_on_c, 0, 71, 86
1, 108978, Note_off_c, 0, 67, 62
1, 108978, Control_c, 0, 64, 93
1, 108993, Control_c, 0, 64, 88
1, 109006, Note_off_c, 0, 71, 61
1, 109008, Control_c, 0, 64, 81
1, 109023, Control_c, 0, 64, 71
1, 109037, Control_c, 0, 64, 38
1, 109044, Note_on_c, 0, 72, 86
1, 109047, Note_on_c, 0, 68, 92
1, 109052, Control_c, 0, 64, 0
1, 109053, Note_on_c, 0, 63, 61
1, 109058, Note_on_c, 0, 62, 80
1, 109085, Note_off_c, 0, 63, 47
1, 109088, Note_off_c, 0, 68, 62
1, 109119, Note_off_c, 0, 62, 57
1, 109137, Note_off_c, 0, 72, 47
1, 109138, Note_on_c, 0, 74, 82
1, 109143, Note_on_c, 0, 58, 55
1, 109147, Note_on_c, 0, 65, 70
1, 109170, Note_on_c, 0, 64, 24
1, 109171, Note_off_c, 0, 64, 127
1, 109203, Note_off_c, 0, 74, 61
1, 109227, Note_on_c, 0, 68, 85
1, 109230, Note_on_c, 0, 61, 75
1, 109232, Note_off_c, 0, 58, 47
1, 109234, Note_off_c, 0, 65, 66
1, 109240, Note_on_c, 0, 76, 85
1, 109253, Note_on_c, 0, 74, 17
1, 109256, Note_on_c, 0, 63, 39
1, 109283, Note_off_c, 0, 76, 65
1, 109285, Note_off_c, 0, 63, 47
1, 109287, Note_off_c, 0, 74, 42
1, 109317, Note_off_c, 0, 61, 61
1, 109325, Note_off_c, 0, 68, 56
1, 109340, Note_on_c, 0, 77, 78
1, 109398, Note_off_c, 0, 77, 59
1, 109433, Note_on_c, 0, 59, 88
1, 109433, Note_on_c, 0, 78, 80
1, 109466, Note_off_c, 0, 78, 61
1, 109509, Note_off_c, 0, 59, 59
1, 109519, Note_on_c, 0, 80, 83
1, 109522, Note_on_c, 0, 64, 76
1, 109528, Note_on_c, 0, 57, 59
1, 109556, Note_off_c, 0, 80, 64
1, 109566, Note_off_c, 0, 57, 63
1, 109578, Note_off_c, 0, 64, 64
1, 109607, Note_on_c, 0, 67, 79
1, 109611, Note_on_c, 0, 82, 75
1, 109626, Note_on_c, 0, 62, 53
1, 109641, Note_off_c, 0, 67, 64
1, 109650, Note_off_c, 0, 82, 66
1, 109656, Note_off_c, 0, 62, 54
1, 109685, Note_on_c, 0, 56, 58
1, 109694, Note_on_c, 0, 63, 72
1, 109703, Note_on_c, 0, 83, 79
1, 109724, Note_off_c, 0, 56, 61
1, 109732, Note_off_c, 0, 63, 62
1, 109754, Note_off_c, 0, 83, 58
1, 109789, Note_on_c, 0, 72, 78
1, 109792, Note_on_c, 0, 65, 57
1, 109825, Note_off_c, 0, 65, 66
1, 109842, Note_off_c, 0, 72, 62
1, 109875, Note_on_c, 0, 59, 56
1, 109877, Note_on_c, 0, 74, 72
1, 109881, Note_on_c, 0, 66, 57
1, 109906, Note_off_c, 0, 66, 64
1, 109912, Note_off_c, 0, 59, 60
1, 109963, Note_on_c, 0, 67, 61
1, 109966, Note_on_c, 0, 76, 73
1, 109991, Note_off_c, 0, 74, 31
1, 109995, Note_off_c, 0, 67, 65
1, 110013, Note_off_c, 0, 76, 61
1, 110058, Note_on_c, 0, 77, 70
1, 110095, Note_off_c, 0, 77, 54
1, 110145, Note_on_c, 0, 81, 76
1, 110150, Note_on_c, 0, 74, 70
1, 110157, Note_on_c, 0, 54, 60
1, 110179, Note_off_c, 0, 74, 63
1, 110191, Note_off_c, 0, 81, 56
1, 110211, Note_off_c, 0, 54, 54
1, 110244, Note_on_c, 0, 71, 67
1, 110262, Note_on_c, 0, 76, 41
1, 110265, Note_on_c, 0, 56, 42
1, 110278, Note_off_c, 0, 71, 57
1, 110287, Note_off_c, 0, 76, 46
1, 110296, Note_off_c, 0, 56, 59
1, 110313, Control_c, 0, 67, 8
1, 110326, Note_on_c, 0, 74, 68
1, 110328, Control_c, 0, 67, 8
1, 110333, Note_on_c, 0, 58, 50
1, 110342, Control_c, 0, 67, 9
1, 110357, Control_c, 0, 67, 10
1, 110362, Note_off_c, 0, 58, 63
1, 110372, Control_c, 0, 67, 11
1, 110387, Control_c, 0, 67, 13
1, 110402, Control_c, 0, 67, 14
1, 110406, Note_off_c, 0, 74, 36
1, 110416, Note_on_c, 0, 81, 63
1, 110416, Control_c, 0, 67, 16
1, 110418, Note_on_c, 0, 75, 53
1, 110421, Note_on_c, 0, 59, 50
1, 110431, Control_c, 0, 67, 18
1, 110439, Note_off_c, 0, 75, 62
1, 110446, Control_c, 0, 67, 21
1, 110460, Control_c, 0, 67, 23
1, 110467, Note_off_c, 0, 59, 57
1, 110475, Control_c, 0, 67, 27
1, 110490, Control_c, 0, 67, 32
1, 110502, Note_on_c, 0, 78, 65
1, 110502, Note_off_c, 0, 81, 53
1, 110505, Control_c, 0, 67, 37
1, 110520, Control_c, 0, 64, 29
1, 110520, Control_c, 0, 67, 44
1, 110525, Note_on_c, 0, 74, 39
1, 110527, Note_on_c, 0, 48, 53
1, 110535, Control_c, 0, 64, 64
1, 110535, Control_c, 0, 67, 50
1, 110550, Control_c, 0, 64, 68
1, 110550, Control_c, 0, 67, 57
1, 110565, Control_c, 0, 64, 72
1, 110565, Control_c, 0, 67, 62
1, 110580, Control_c, 0, 64, 74
1, 110580, Control_c, 0, 67, 68
1, 110583, Note_off_c, 0, 78, 60
1, 110594, Control_c, 0, 64, 75
1, 110594, Control_c, 0, 67, 72
1, 110609, Control_c, 0, 67, 73
1, 110619, Note_off_c, 0, 74, 38
1, 110624, Control_c, 0, 67, 74
1, 110628, Note_on_c, 0, 50, 42
1, 110637, Note_off_c, 0, 48, 35
1, 110639, Control_c, 0, 67, 74
1, 110653, Control_c, 0, 64, 74
1, 110668, Control_c, 0, 64, 70
1, 110668, Control_c, 0, 67, 75
1, 110683, Control_c, 0, 64, 63
1, 110687, Note_off_c, 0, 50, 56
1, 110698, Control_c, 0, 64, 21
1, 110702, Note_on_c, 0, 69, 74
1, 110704, Note_on_c, 0, 52, 53
1, 110709, Note_on_c, 0, 76, 64
1, 110713, Control_c, 0, 64, 0
1, 110733, Note_off_c, 0, 69, 61
1, 110738, Note_off_c, 0, 76, 64
1, 110741, Note_off_c, 0, 52, 66
1, 110787, Note_on_c, 0, 53, 61
1, 110797, Note_on_c, 0, 67, 67
1, 110815, Control_c, 0, 67, 75
1, 110816, Note_on_c, 0, 71, 40
1, 110824, Note_off_c, 0, 67, 66
1, 110850, Note_off_c, 0, 71, 49
1, 110851, Note_off_c, 0, 53, 52
1, 110860, Control_c, 0, 67, 76
1, 110886, Note_on_c, 0, 69, 78
1, 110892, Note_on_c, 0, 54, 51
1, 110897, Control_c, 0, 67, 76
1, 110926, Control_c, 0, 67, 77
1, 110941, Control_c, 0, 67, 79
1, 110946, Note_off_c, 0, 69, 48
1, 110956, Control_c, 0, 67, 80
1, 110963, Note_off_c, 0, 54, 52
1, 110971, Control_c, 0, 67, 81
1, 110975, Note_on_c, 0, 76, 62
1, 110978, Note_on_c, 0, 71, 63
1, 110982, Note_on_c, 0, 56, 56
1, 111020, Note_off_c, 0, 76, 50
1, 111036, Note_off_c, 0, 56, 56
1, 111058, Note_on_c, 0, 66, 73
1, 111090, Control_c, 0, 64, 61
1, 111092, Note_on_c, 0, 58, 54
1, 111103, Note_off_c, 0, 71, 48
1, 111105, Control_c, 0, 64, 66
1, 111120, Control_c, 0, 64, 69
1, 111135, Control_c, 0, 64, 71
1, 111146, Note_off_c, 0, 58, 58
1, 111150, Control_c, 0, 64, 72
1, 111164, Control_c, 0, 64, 72
1, 111164, Control_c, 0, 67, 80
1, 111179, Note_off_c, 0, 66, 62
1, 111179, Control_c, 0, 67, 80
1, 111205, Note_on_c, 0, 59, 52
1, 111209, Control_c, 0, 64, 72
1, 111209, Control_c, 0, 67, 79
1, 111224, Control_c, 0, 64, 71
1, 111238, Control_c, 0, 64, 70
1, 111238, Control_c, 0, 67, 79
1, 111253, Control_c, 0, 64, 67
1, 111256, Note_off_c, 0, 59, 56
1, 111263, Note_on_c, 0, 72, 71
1, 111268, Note_on_c, 0, 65, 68
1, 111268, Control_c, 0, 64, 63
1, 111268, Control_c, 0, 67, 78
1, 111283, Control_c, 0, 64, 52
1, 111298, Control_c, 0, 64, 41
1, 111298, Control_c, 0, 67, 77
1, 111299, Note_off_c, 0, 65, 62
1, 111303, Note_off_c, 0, 72, 52
1, 111312, Note_on_c, 0, 48, 53
1, 111313, Control_c, 0, 64, 29
1, 111313, Control_c, 0, 67, 77
1, 111328, Control_c, 0, 64, 0
1, 111343, Control_c, 0, 67, 76
1, 111352, Note_on_c, 0, 67, 75
1, 111368, Note_off_c, 0, 48, 61
1, 111387, Control_c, 0, 67, 76
1, 111393, Note_on_c, 0, 50, 43
1, 111395, Note_off_c, 0, 67, 58
1, 111402, Control_c, 0, 67, 75
1, 111417, Control_c, 0, 67, 75
1, 111431, Control_c, 0, 67, 74
1, 111447, Note_on_c, 0, 68, 71
1, 111447, Note_off_c, 0, 50, 56
1, 111448, Note_on_c, 0, 74, 64
1, 111456, Note_on_c, 0, 52, 58
1, 111461, Control_c, 0, 67, 74
1, 111475, Control_c, 0, 67, 73
1, 111479, Note_off_c, 0, 74, 62
1, 111486, Note_off_c, 0, 68, 59
1, 111496, Note_off_c, 0, 52, 65
1, 111505, Control_c, 0, 67, 73
1, 111520, Control_c, 0, 67, 72
1, 111535, Control_c, 0, 67, 70
1, 111540, Note_on_c, 0, 67, 66
1, 111545, Note_on_c, 0, 71, 59
1, 111549, Control_c, 0, 67, 69
1, 111560, Note_on_c, 0, 53, 54
1, 111565, Control_c, 0, 67, 67
1, 111580, Control_c, 0, 67, 63
1, 111583, Note_off_c, 0, 67, 52
1, 111584, Note_off_c, 0, 71, 57
1, 111595, Control_c, 0, 67, 59
1, 111609, Control_c, 0, 67, 53
1, 111617, Note_off_c, 0, 53, 53
1, 111632, Note_on_c, 0, 68, 75
1, 111632, Control_c, 0, 67, 45
1, 111637, Note_on_c, 0, 62, 63
1, 111640, Note_on_c, 0, 54, 63
1, 111647, Control_c, 0, 67, 33
1, 111659, Note_off_c, 0, 62, 59
1, 111662, Control_c, 0, 67, 20
1, 111663, Note_off_c, 0, 68, 65
1, 111677, Control_c, 0, 67, 8
1, 111691, Control_c, 0, 67, 0
1, 111719, Note_off_c, 0, 54, 60
1, 111727, Note_on_c, 0, 64, 70
1, 111729, Note_on_c, 0, 56, 62
1, 111754, Note_off_c, 0, 64, 68
1, 111787, Note_off_c, 0, 56, 58
1, 111804, Note_on_c, 0, 67, 86
1, 111811, Note_on_c, 0, 61, 78
1, 111828, Note_on_c, 0, 58, 63
1, 111835, Note_off_c, 0, 61, 69
1, 111835, Note_off_c, 0, 67, 61
1, 111872, Note_off_c, 0, 58, 60
1, 111929, Note_on_c, 0, 59, 56
1, 111977, Note_off_c, 0, 59, 59
1, 111987, Note_on_c, 0, 74, 77
1, 111999, Note_on_c, 0, 69, 85
1, 112005, Note_on_c, 0, 63, 99
1, 112021, Note_on_c, 0, 48, 76
1, 112068, Note_off_c, 0, 74, 63
1, 112077, Control_c, 0, 64, 73
1, 112092, Control_c, 0, 64, 93
1, 112106, Control_c, 0, 64, 115
1, 112120, Note_off_c, 0, 63, 63
1, 112121, Control_c, 0, 64, 127
1, 112124, Note_on_c, 0, 50, 63
1, 112124, Note_off_c, 0, 48, 55
1, 112159, Note_off_c, 0, 69, 63
1, 112166, Control_c, 0, 64, 105
1, 112180, Control_c, 0, 64, 84
1, 112195, Note_on_c, 0, 61, 93
1, 112195, Control_c, 0, 64, 58
1, 112198, Note_on_c, 0, 68, 89
1, 112198, Note_on_c, 0, 71, 90
1, 112210, Control_c, 0, 64, 0
1, 112215, Note_on_c, 0, 52, 67
1, 112228, Note_off_c, 0, 50, 56
1, 112238, Note_off_c, 0, 61, 60
1, 112255, Control_c, 0, 64, 57
1, 112270, Control_c, 0, 64, 72
1, 112274, Note_off_c, 0, 52, 63
1, 112285, Control_c, 0, 64, 83
1, 112294, Note_off_c, 0, 68, 62
1, 112294, Note_off_c, 0, 71, 58
1, 112299, Control_c, 0, 64, 96
1, 112308, Note_on_c, 0, 53, 67
1, 112314, Control_c, 0, 64, 106
1, 112329, Control_c, 0, 64, 121
1, 112344, Control_c, 0, 64, 127
1, 112359, Control_c, 0, 67, 8
1, 112380, Control_c, 0, 67, 14
1, 112395, Control_c, 0, 67, 26
1, 112401, Note_off_c, 0, 53, 60
1, 112410, Control_c, 0, 67, 42
1, 112413, Note_on_c, 0, 54, 58
1, 112425, Control_c, 0, 67, 60
1, 112440, Control_c, 0, 67, 76
1, 112455, Control_c, 0, 67, 89
1, 112469, Control_c, 0, 64, 123
1, 112469, Control_c, 0, 67, 96
1, 112484, Control_c, 0, 64, 114
1, 112484, Control_c, 0, 67, 100
1, 112497, Note_off_c, 0, 54, 57
1, 112499, Control_c, 0, 64, 105
1, 112499, Control_c, 0, 67, 103
1, 112504, Note_on_c, 0, 56, 54
1, 112514, Control_c, 0, 64, 96
1, 112514, Control_c, 0, 67, 104
1, 112518, Note_on_c, 0, 88, 79
1, 112519, Note_on_c, 0, 95, 79
1, 112529, Control_c, 0, 64, 82
1, 112542, Note_off_c, 0, 88, 63
1, 112544, Control_c, 0, 64, 67
1, 112551, Note_off_c, 0, 56, 57
1, 112559, Control_c, 0, 64, 0
1, 112574, Control_c, 0, 67, 105
1, 112594, Note_on_c, 0, 58, 56
1, 112598, Note_off_c, 0, 95, 39
1, 112613, Note_on_c, 0, 85, 66
1, 112613, Note_on_c, 0, 90, 63
1, 112630, Note_off_c, 0, 58, 65
1, 112645, Note_off_c, 0, 85, 62
1, 112648, Control_c, 0, 67, 106
1, 112653, Note_off_c, 0, 90, 55
1, 112663, Control_c, 0, 67, 106
1, 112678, Control_c, 0, 67, 107
1, 112680, Note_on_c, 0, 59, 55
1, 112693, Control_c, 0, 67, 108
1, 112696, Note_on_c, 0, 88, 69
1, 112701, Note_off_c, 0, 59, 60
1, 112705, Note_on_c, 0, 95, 65
1, 112708, Control_c, 0, 67, 109
1, 112722, Control_c, 0, 67, 109
1, 112733, Note_off_c, 0, 95, 64
1, 112767, Control_c, 0, 67, 108
1, 112782, Note_off_c, 0, 88, 33
1, 112782, Control_c, 0, 67, 107
1, 112791, Note_on_c, 0, 92, 73
1, 112797, Control_c, 0, 67, 106
1, 112806, Note_on_c, 0, 60, 46
1, 112810, Note_on_c, 0, 91, 55
1, 112811, Control_c, 0, 67, 106
1, 112823, Note_on_c, 0, 87, 29
1, 112841, Control_c, 0, 64, 60
1, 112855, Control_c, 0, 64, 70
1, 112870, Control_c, 0, 64, 77
1, 112873, Note_off_c, 0, 60, 51
1, 112884, Note_off_c, 0, 91, 54
1, 112885, Control_c, 0, 64, 83
1, 112886, Note_off_c, 0, 92, 62
1, 112899, Note_off_c, 0, 87, 51
1, 112900, Control_c, 0, 64, 84
1, 112906, Note_on_c, 0, 62, 44
1, 112915, Control_c, 0, 64, 85
1, 112929, Control_c, 0, 64, 86
1, 112944, Control_c, 0, 64, 86
1, 112944, Control_c, 0, 67, 105
1, 112959, Control_c, 0, 64, 87
1, 112959, Control_c, 0, 67, 105
1, 112974, Control_c, 0, 67, 104
1, 112989, Control_c, 0, 67, 103
1, 112997, Note_on_c, 0, 64, 42
1, 113009, Note_off_c, 0, 62, 36
1, 113018, Control_c, 0, 67, 103
1, 113048, Control_c, 0, 67, 102
1, 113054, Note_off_c, 0, 64, 58
1, 113078, Control_c, 0, 64, 85
1, 113092, Control_c, 0, 64, 81
1, 113094, Note_on_c, 0, 80, 72
1, 113099, Note_on_c, 0, 73, 69
1, 113103, Note_on_c, 0, 65, 67
1, 113107, Control_c, 0, 64, 74
1, 113109, Note_off_c, 0, 80, 69
1, 113116, Note_off_c, 0, 73, 67
1, 113129, Control_c, 0, 64, 65
1, 113144, Control_c, 0, 64, 0
1, 113179, Note_off_c, 0, 65, 47
1, 113185, Note_on_c, 0, 83, 74
1, 113189, Control_c, 0, 67, 102
1, 113194, Note_on_c, 0, 75, 62
1, 113203, Note_on_c, 0, 66, 60
1, 113212, Note_off_c, 0, 75, 64
1, 113215, Note_off_c, 0, 83, 56
1, 113218, Control_c, 0, 67, 101
1, 113233, Control_c, 0, 67, 99
1, 113248, Control_c, 0, 67, 97
1, 113262, Control_c, 0, 67, 95
1, 113276, Note_on_c, 0, 84, 77
1, 113277, Control_c, 0, 67, 92
1, 113280, Note_on_c, 0, 78, 74
1, 113286, Note_off_c, 0, 66, 58
1, 113292, Control_c, 0, 67, 88
1, 113296, Note_on_c, 0, 68, 57
1, 113307, Control_c, 0, 67, 82
1, 113308, Note_off_c, 0, 78, 61
1, 113310, Note_off_c, 0, 84, 63
1, 113322, Control_c, 0, 67, 73
1, 113337, Control_c, 0, 67, 62
1, 113352, Control_c, 0, 67, 47
1, 113365, Note_off_c, 0, 68, 61
1, 113367, Control_c, 0, 64, 50
1, 113367, Control_c, 0, 67, 28
1, 113374, Note_on_c, 0, 81, 70
1, 113376, Note_on_c, 0, 74, 66
1, 113376, Note_on_c, 0, 77, 64
1, 113381, Note_on_c, 0, 70, 56
1, 113382, Control_c, 0, 64, 63
1, 113382, Control_c, 0, 67, 11
1, 113397, Control_c, 0, 64, 68
1, 113397, Control_c, 0, 67, 0
1, 113412, Control_c, 0, 64, 72
1, 113415, Note_off_c, 0, 77, 0
1, 113426, Control_c, 0, 64, 76
1, 113441, Control_c, 0, 64, 78
1, 113447, Note_off_c, 0, 74, 63
1, 113451, Note_off_c, 0, 70, 57
1, 113452, Poly_aftertouch_c, 0, 77, 127
1, 113456, Control_c, 0, 64, 78
1, 113459, Note_on_c, 0, 77, 24
1, 113473, Note_on_c, 0, 71, 61
1, 113479, Note_off_c, 0, 81, 54
1, 113502, Note_off_c, 0, 71, 65
1, 113502, Note_off_c, 0, 77, 59
1, 113560, Control_c, 0, 64, 78
1, 113575, Control_c, 0, 64, 76
1, 113590, Note_on_c, 0, 71, 59
1, 113590, Control_c, 0, 64, 72
1, 113601, Note_on_c, 0, 72, 66
1, 113605, Control_c, 0, 64, 65
1, 113619, Control_c, 0, 64, 42
1, 113634, Control_c, 0, 64, 0
1, 113635, Note_off_c, 0, 72, 49
1, 113671, Note_on_c, 0, 65, 73
1, 113671, Note_on_c, 0, 58, 70
1, 113680, Note_on_c, 0, 74, 62
1, 113680, Note_off_c, 0, 71, 58
1, 113714, Note_off_c, 0, 65, 59
1, 113718, Note_off_c, 0, 58, 54
1, 113763, Note_on_c, 0, 53, 68
1, 113769, Note_on_c, 0, 76, 79
1, 113786, Note_on_c, 0, 60, 52
1, 113794, Note_off_c, 0, 53, 67
1, 113795, Note_off_c, 0, 74, 61
1, 113806, Note_off_c, 0, 76, 67
1, 113808, Note_off_c, 0, 60, 58
1, 113854, Note_on_c, 0, 77, 88
1, 113856, Note_on_c, 0, 62, 86
1, 113874, Note_on_c, 0, 58, 73
1, 113933, Note_off_c, 0, 58, 61
1, 113944, Note_off_c, 0, 77, 0
1, 113958, Note_on_c, 0, 78, 80
1, 113964, Note_off_c, 0, 62, 62
1, 113964, Poly_aftertouch_c, 0, 77, 0
1, 113970, Note_on_c, 0, 56, 73
1, 113977, Note_on_c, 0, 63, 77
1, 113983, Note_off_c, 0, 78, 66
1, 114021, Note_off_c, 0, 56, 51
1, 114023, Note_off_c, 0, 63, 63
1, 114046, Note_on_c, 0, 61, 80
1, 114051, Note_on_c, 0, 80, 81
1, 114089, Note_off_c, 0, 80, 64
1, 114122, Note_off_c, 0, 61, 58
1, 114130, Note_on_c, 0, 56, 70
1, 114130, Note_on_c, 0, 63, 80
1, 114149, Note_on_c, 0, 82, 77
1, 114162, Note_off_c, 0, 63, 66
1, 114169, Note_off_c, 0, 56, 61
1, 114178, Note_off_c, 0, 82, 64
1, 114231, Note_on_c, 0, 61, 79
1, 114233, Note_on_c, 0, 83, 83
1, 114234, Note_on_c, 0, 65, 87
1, 114254, Note_off_c, 0, 61, 69
1, 114267, Note_off_c, 0, 65, 66
1, 114288, Note_off_c, 0, 83, 58
1, 114327, Note_on_c, 0, 72, 77
1, 114413, Note_off_c, 0, 72, 64
1, 114417, Note_on_c, 0, 70, 97
1, 114419, Note_on_c, 0, 74, 79
1, 114422, Note_on_c, 0, 60, 78
1, 114428, Note_on_c, 0, 67, 77
1, 114455, Note_off_c, 0, 70, 64
1, 114519, Note_off_c, 0, 60, 47
1, 114524, Note_on_c, 0, 76, 69
1, 114535, Note_off_c, 0, 74, 56
1, 114562, Note_off_c, 0, 76, 63
1, 114605, Note_on_c, 0, 69, 99
1, 114607, Note_on_c, 0, 63, 84
1, 114608, Note_on_c, 0, 77, 86
1, 114633, Note_off_c, 0, 67, 58
1, 114656, Note_off_c, 0, 69, 64
1, 114678, Note_off_c, 0, 77, 53
1, 114714, Note_off_c, 0, 63, 60
1, 114716, Note_on_c, 0, 78, 69
1, 114761, Note_off_c, 0, 78, 65
1, 114800, Note_on_c, 0, 70, 106
1, 114805, Note_on_c, 0, 80, 81
1, 114807, Note_on_c, 0, 62, 83
1, 114831, Note_off_c, 0, 70, 66
1, 114835, Control_c, 0, 64, 82
1, 114850, Note_off_c, 0, 62, 56
1, 114850, Control_c, 0, 64, 120
1, 114856, Note_off_c, 0, 80, 63
1, 114865, Control_c, 0, 64, 127
1, 114896, Note_on_c, 0, 82, 72
1, 114935, Note_off_c, 0, 82, 65
1, 114998, Note_on_c, 0, 83, 64
1, 115057, Note_off_c, 0, 83, 59
1, 115084, Note_on_c, 0, 72, 73
1, 115132, Control_c, 0, 64, 120
1, 115144, Note_on_c, 0, 58, 61
1, 115147, Control_c, 0, 64, 110
1, 115149, Note_on_c, 0, 51, 60
1, 115162, Control_c, 0, 64, 101
1, 115167, Note_off_c, 0, 72, 63
1, 115168, Note_on_c, 0, 74, 69
1, 115177, Control_c, 0, 64, 92
1, 115179, Note_off_c, 0, 58, 63
1, 115192, Control_c, 0, 64, 83
1, 115192, Control_c, 0, 67, 8
1, 115193, Note_off_c, 0, 51, 58
1, 115206, Control_c, 0, 64, 70
1, 115206, Control_c, 0, 67, 10
1, 115221, Control_c, 0, 64, 46
1, 115221, Control_c, 0, 67, 13
1, 115236, Control_c, 0, 64, 0
1, 115236, Control_c, 0, 67, 15
1, 115251, Control_c, 0, 67, 17
1, 115260, Note_off_c, 0, 74, 38
1, 115266, Control_c, 0, 67, 21
1, 115267, Note_on_c, 0, 44, 61
1, 115273, Note_on_c, 0, 76, 52
1, 115280, Control_c, 0, 67, 27
1, 115293, Note_off_c, 0, 76, 64
1, 115295, Control_c, 0, 67, 32
1, 115306, Note_off_c, 0, 44, 63
1, 115310, Control_c, 0, 67, 37
1, 115324, Control_c, 0, 67, 41
1, 115339, Control_c, 0, 67, 46
1, 115348, Note_on_c, 0, 77, 67
1, 115350, Note_on_c, 0, 49, 61
1, 115352, Note_on_c, 0, 56, 61
1, 115354, Control_c, 0, 67, 50
1, 115376, Control_c, 0, 67, 54
1, 115391, Note_off_c, 0, 56, 64
1, 115391, Control_c, 0, 67, 61
1, 115403, Note_off_c, 0, 49, 60
1, 115406, Control_c, 0, 67, 67
1, 115408, Note_off_c, 0, 77, 54
1, 115421, Control_c, 0, 67, 72
1, 115435, Control_c, 0, 67, 77
1, 115445, Note_on_c, 0, 78, 55
1, 115450, Control_c, 0, 67, 81
1, 115457, Note_on_c, 0, 42, 62
1, 115465, Control_c, 0, 67, 83
1, 115474, Note_off_c, 0, 78, 58
1, 115480, Control_c, 0, 67, 86
1, 115491, Note_off_c, 0, 42, 64
1, 115495, Control_c, 0, 67, 90
1, 115510, Control_c, 0, 67, 94
1, 115524, Control_c, 0, 67, 98
1, 115529, Note_on_c, 0, 80, 64
1, 115539, Control_c, 0, 67, 102
1, 115547, Note_on_c, 0, 49, 59
1, 115547, Note_off_c, 0, 80, 64
1, 115554, Control_c, 0, 67, 105
1, 115569, Control_c, 0, 67, 106
1, 115584, Control_c, 0, 67, 107
1, 115590, Note_off_c, 0, 49, 64
1, 115622, Note_on_c, 0, 82, 66
1, 115629, Note_on_c, 0, 42, 51
1, 115644, Note_off_c, 0, 82, 67
1, 115657, Control_c, 0, 67, 106
1, 115672, Note_off_c, 0, 42, 64
1, 115687, Control_c, 0, 67, 106
1, 115695, Note_on_c, 0, 35, 28
1, 115702, Control_c, 0, 67, 105
1, 115709, Note_on_c, 0, 83, 63
1, 115719, Note_on_c, 0, 47, 65
1, 115723, Note_on_c, 0, 40, 32
1, 115737, Note_off_c, 0, 35, 41
1, 115753, Note_off_c, 0, 83, 59
1, 115758, Note_off_c, 0, 47, 67
1, 115763, Note_off_c, 0, 40, 45
1, 115811, Note_on_c, 0, 72, 59
1, 115851, Control_c, 0, 67, 106
1, 115856, Note_off_c, 0, 72, 57
1, 115880, Control_c, 0, 67, 106
1, 115889, Note_on_c, 0, 45, 54
1, 115902, Note_on_c, 0, 49, 57
1, 115910, Note_on_c, 0, 74, 54
1, 115920, Note_off_c, 0, 45, 65
1, 115942, Note_off_c, 0, 49, 62
1, 115954, Note_off_c, 0, 74, 53
1, 115954, Control_c, 0, 67, 105
1, 115969, Control_c, 0, 67, 105
1, 115984, Control_c, 0, 67, 104
1, 116000, Note_on_c, 0, 76, 56
1, 116014, Control_c, 0, 67, 104
1, 116028, Note_off_c, 0, 76, 60
1, 116029, Control_c, 0, 67, 103
1, 116058, Control_c, 0, 67, 103
1, 116088, Note_on_c, 0, 53, 55
1, 116090, Note_on_c, 0, 77, 66
1, 116095, Note_on_c, 0, 43, 48
1, 116103, Control_c, 0, 67, 102
1, 116105, Note_on_c, 0, 50, 37
1, 116122, Note_off_c, 0, 53, 60
1, 116140, Control_c, 0, 67, 101
1, 116143, Note_off_c, 0, 77, 57
1, 116154, Control_c, 0, 67, 101
1, 116169, Control_c, 0, 67, 100
1, 116182, Note_off_c, 0, 43, 35
1, 116184, Control_c, 0, 67, 100
1, 116197, Note_on_c, 0, 78, 57
1, 116199, Control_c, 0, 67, 99
1, 116214, Control_c, 0, 67, 98
1, 116228, Control_c, 0, 67, 97
1, 116243, Control_c, 0, 67, 96
1, 116258, Control_c, 0, 67, 95
1, 116263, Note_off_c, 0, 50, 49
1, 116273, Control_c, 0, 67, 95
1, 116279, Note_off_c, 0, 78, 35
1, 116285, Note_on_c, 0, 48, 50
1, 116288, Control_c, 0, 67, 94
1, 116291, Note_on_c, 0, 52, 46
1, 116296, Note_on_c, 0, 80, 47
1, 116303, Control_c, 0, 67, 93
1, 116318, Control_c, 0, 67, 91
1, 116327, Note_off_c, 0, 80, 53
1, 116333, Control_c, 0, 67, 89
1, 116347, Control_c, 0, 67, 86
1, 116362, Control_c, 0, 67, 83
1, 116377, Control_c, 0, 67, 81
1, 116391, Control_c, 0, 67, 77
1, 116392, Note_on_c, 0, 82, 50
1, 116406, Control_c, 0, 67, 73
1, 116413, Note_off_c, 0, 82, 60
1, 116421, Control_c, 0, 67, 70
1, 116436, Control_c, 0, 64, 45
1, 116436, Control_c, 0, 67, 66
1, 116451, Control_c, 0, 64, 59
1, 116451, Control_c, 0, 67, 61
1, 116466, Control_c, 0, 64, 64
1, 116466, Control_c, 0, 67, 55
1, 116469, Note_off_c, 0, 52, 58
1, 116473, Note_off_c, 0, 48, 35
1, 116479, Note_on_c, 0, 83, 57
1, 116480, Control_c, 0, 64, 66
1, 116480, Control_c, 0, 67, 46
1, 116495, Control_c, 0, 67, 32
1, 116510, Control_c, 0, 67, 13
1, 116513, Note_off_c, 0, 83, 63
1, 116525, Control_c, 0, 64, 65
1, 116525, Control_c, 0, 67, 0
1, 116539, Control_c, 0, 64, 63
1, 116554, Control_c, 0, 64, 59
1, 116568, Note_on_c, 0, 84, 81
1, 116569, Control_c, 0, 64, 55
1, 116584, Control_c, 0, 64, 57
1, 116600, Control_c, 0, 64, 53
1, 116615, Control_c, 0, 64, 18
1, 116630, Control_c, 0, 64, 0
1, 116637, Note_off_c, 0, 84, 54
1, 116658, Note_on_c, 0, 86, 71
1, 116728, Note_off_c, 0, 86, 53
1, 116770, Note_on_c, 0, 88, 65
1, 116800, Note_off_c, 0, 88, 64
1, 116839, Note_on_c, 0, 77, 98
1, 116839, Note_on_c, 0, 70, 96
1, 116848, Note_on_c, 0, 89, 90
1, 116875, Note_off_c, 0, 77, 65
1, 116881, Note_off_c, 0, 70, 64
1, 116939, Note_on_c, 0, 63, 89
1, 116955, Note_on_c, 0, 90, 76
1, 116960, Note_off_c, 0, 89, 56
1, 117003, Note_off_c, 0, 90, 64
1, 117024, Note_off_c, 0, 63, 63
1, 117033, Note_on_c, 0, 70, 79
1, 117045, Note_on_c, 0, 92, 83
1, 117078, Note_off_c, 0, 92, 62
1, 117101, Note_off_c, 0, 70, 63
1, 117135, Note_on_c, 0, 73, 113
1, 117140, Note_on_c, 0, 94, 85
1, 117144, Note_on_c, 0, 66, 98
1, 117179, Note_off_c, 0, 94, 66
1, 117185, Control_c, 0, 64, 61
1, 117200, Control_c, 0, 64, 67
1, 117215, Control_c, 0, 64, 73
1, 117229, Control_c, 0, 64, 78
1, 117233, Note_on_c, 0, 95, 82
1, 117244, Control_c, 0, 64, 82
1, 117259, Control_c, 0, 64, 84
1, 117274, Control_c, 0, 64, 84
1, 117296, Note_off_c, 0, 95, 61
1, 117340, Note_on_c, 0, 84, 74
1, 117449, Note_on_c, 0, 86, 65
1, 117454, Note_off_c, 0, 84, 57
1, 117469, Note_off_c, 0, 73, 56
1, 117486, Note_off_c, 0, 66, 59
1, 117522, Note_on_c, 0, 69, 75
1, 117526, Control_c, 0, 64, 82
1, 117529, Note_on_c, 0, 76, 91
1, 117541, Control_c, 0, 64, 78
1, 117543, Note_on_c, 0, 88, 80
1, 117556, Control_c, 0, 64, 70
1, 117567, Note_off_c, 0, 86, 62
1, 117570, Note_off_c, 0, 69, 67
1, 117571, Control_c, 0, 64, 57
1, 117573, Note_off_c, 0, 76, 67
1, 117581, Note_off_c, 0, 88, 63
1, 117586, Control_c, 0, 64, 0
1, 117632, Note_on_c, 0, 89, 85
1, 117635, Note_on_c, 0, 62, 94
1, 117707, Note_on_c, 0, 69, 81
1, 117708, Note_off_c, 0, 89, 48
1, 117712, Note_off_c, 0, 62, 60
1, 117725, Note_on_c, 0, 90, 76
1, 117776, Note_off_c, 0, 90, 64
1, 117781, Note_off_c, 0, 69, 64
1, 117807, Note_on_c, 0, 65, 77
1, 117810, Note_on_c, 0, 72, 88
1, 117819, Note_on_c, 0, 92, 81
1, 117849, Note_off_c, 0, 92, 63
1, 117851, Note_off_c, 0, 65, 64
1, 117857, Note_off_c, 0, 72, 66
1, 117908, Note_on_c, 0, 62, 96
1, 117909, Note_on_c, 0, 94, 85
1, 117910, Note_on_c, 0, 68, 100
1, 117933, Control_c, 0, 64, 42
1, 117948, Control_c, 0, 64, 62
1, 117951, Note_off_c, 0, 94, 66
1, 117963, Control_c, 0, 64, 66
1, 117978, Control_c, 0, 64, 70
1, 117993, Control_c, 0, 64, 75
1, 118002, Note_on_c, 0, 95, 80
1, 118008, Control_c, 0, 64, 78
1, 118023, Control_c, 0, 64, 80
1, 118038, Control_c, 0, 64, 80
1, 118076, Note_off_c, 0, 95, 64
1, 118103, Note_on_c, 0, 84, 77
1, 118160, Note_off_c, 0, 62, 51
1, 118170, Control_c, 0, 64, 81
1, 118187, Note_off_c, 0, 84, 55
1, 118190, Note_on_c, 0, 86, 81
1, 118193, Note_on_c, 0, 67, 79
1, 118194, Note_on_c, 0, 74, 82
1, 118214, Note_off_c, 0, 68, 59
1, 118232, Note_off_c, 0, 67, 62
1, 118234, Note_off_c, 0, 74, 63
1, 118246, Control_c, 0, 64, 80
1, 118260, Control_c, 0, 64, 79
1, 118275, Control_c, 0, 64, 76
1, 118290, Control_c, 0, 64, 71
1, 118294, Note_on_c, 0, 60, 90
1, 118295, Note_on_c, 0, 88, 79
1, 118304, Control_c, 0, 64, 62
1, 118319, Control_c, 0, 64, 0
1, 118335, Note_off_c, 0, 88, 63
1, 118344, Note_off_c, 0, 86, 23
1, 118388, Note_on_c, 0, 67, 83
1, 118390, Note_off_c, 0, 60, 61
1, 118392, Note_on_c, 0, 89, 85
1, 118462, Note_off_c, 0, 89, 56
1, 118464, Note_off_c, 0, 67, 63
1, 118488, Note_on_c, 0, 90, 75
1, 118493, Note_on_c, 0, 71, 86
1, 118499, Note_on_c, 0, 64, 72
1, 118531, Note_off_c, 0, 90, 63
1, 118545, Note_off_c, 0, 71, 61
1, 118579, Note_on_c, 0, 92, 80
1, 118586, Note_on_c, 0, 69, 74
1, 118607, Note_off_c, 0, 92, 64
1, 118626, Note_off_c, 0, 64, 61
1, 118654, Note_off_c, 0, 69, 65
1, 118671, Note_on_c, 0, 94, 75
1, 118681, Note_on_c, 0, 62, 65
1, 118697, Note_off_c, 0, 94, 68
1, 118701, Note_off_c, 0, 62, 63
1, 118767, Note_on_c, 0, 95, 78
1, 118772, Note_on_c, 0, 59, 78
1, 118772, Note_on_c, 0, 66, 85
1, 118813, Note_off_c, 0, 59, 59
1, 118817, Note_off_c, 0, 95, 63
1, 118836, Note_off_c, 0, 66, 64
1, 118852, Note_on_c, 0, 84, 81
1, 118880, Note_on_c, 0, 63, 74
1, 118889, Note_on_c, 0, 68, 82
1, 118935, Note_off_c, 0, 63, 63
1, 118948, Note_on_c, 0, 86, 77
1, 118953, Note_off_c, 0, 68, 57
1, 118953, Note_off_c, 0, 84, 61
1, 118967, Note_on_c, 0, 59, 57
1, 118971, Note_on_c, 0, 66, 78
1, 118997, Note_off_c, 0, 59, 49
1, 119054, Note_on_c, 0, 88, 73
1, 119058, Note_on_c, 0, 68, 73
1, 119060, Note_off_c, 0, 66, 65
1, 119069, Note_on_c, 0, 64, 64
1, 119077, Note_off_c, 0, 86, 56
1, 119096, Note_off_c, 0, 88, 63
1, 119102, Note_off_c, 0, 68, 59
1, 119124, Note_off_c, 0, 64, 58
1, 119150, Note_on_c, 0, 89, 85
1, 119156, Note_on_c, 0, 61, 70
1, 119162, Note_on_c, 0, 67, 77
1, 119221, Note_off_c, 0, 89, 62
1, 119233, Note_off_c, 0, 61, 58
1, 119263, Note_on_c, 0, 90, 63
1, 119292, Note_off_c, 0, 90, 66
1, 119301, Note_off_c, 0, 67, 52
1, 119341, Note_on_c, 0, 92, 88
1, 119345, Note_on_c, 0, 68, 70
1, 119348, Note_on_c, 0, 86, 73
1, 119386, Note_off_c, 0, 86, 61
1, 119397, Note_off_c, 0, 92, 66
1, 119405, Note_off_c, 0, 68, 59
1, 119441, Note_on_c, 0, 91, 70
1, 119442, Note_on_c, 0, 70, 73
1, 119448, Note_on_c, 0, 87, 65
1, 119481, Note_off_c, 0, 91, 57
1, 119500, Note_off_c, 0, 70, 61
1, 119510, Note_off_c, 0, 87, 55
1, 119516, Note_on_c, 0, 89, 76
1, 119537, Note_on_c, 0, 71, 69
1, 119549, Note_off_c, 0, 89, 66
1, 119594, Note_off_c, 0, 71, 59
1, 119622, Note_on_c, 0, 88, 76
1, 119624, Note_on_c, 0, 82, 73
1, 119636, Note_on_c, 0, 60, 64
1, 119722, Note_on_c, 0, 90, 72
1, 119725, Note_off_c, 0, 82, 57
1, 119729, Note_off_c, 0, 60, 54
1, 119737, Note_on_c, 0, 81, 58
1, 119749, Note_off_c, 0, 88, 27
1, 119752, Note_on_c, 0, 62, 45
1, 119818, Note_off_c, 0, 62, 52
1, 119834, Note_on_c, 0, 64, 46
1, 119882, Note_off_c, 0, 64, 58
1, 119883, Control_c, 0, 64, 30
1, 119898, Control_c, 0, 64, 42
1, 119913, Control_c, 0, 64, 49
1, 119928, Control_c, 0, 64, 52
1, 119936, Note_on_c, 0, 65, 51
1, 119943, Control_c, 0, 64, 55
1, 119954, Note_off_c, 0, 90, 59
1, 119957, Control_c, 0, 64, 56
1, 119972, Control_c, 0, 64, 56
1, 119975, Note_off_c, 0, 81, 59
1, 119987, Control_c, 0, 64, 55
1, 120002, Control_c, 0, 64, 54
1, 120017, Control_c, 0, 64, 50
1, 120029, Note_off_c, 0, 65, 55
1, 120032, Control_c, 0, 64, 45
1, 120034, Note_on_c, 0, 66, 65
1, 120037, Note_on_c, 0, 87, 74
1, 120046, Control_c, 0, 64, 39
1, 120047, Note_on_c, 0, 83, 61
1, 120061, Control_c, 0, 64, 32
1, 120065, Note_off_c, 0, 83, 63
1, 120066, Note_off_c, 0, 87, 60
1, 120076, Control_c, 0, 64, 23
1, 120090, Note_off_c, 0, 66, 54
1, 120091, Control_c, 0, 64, 0
1, 120127, Note_on_c, 0, 82, 79
1, 120128, Note_on_c, 0, 68, 66
1, 120130, Note_on_c, 0, 86, 75
1, 120168, Note_off_c, 0, 86, 54
1, 120174, Note_off_c, 0, 82, 62
1, 120198, Note_off_c, 0, 68, 57
1, 120216, Note_on_c, 0, 77, 75
1, 120221, Note_on_c, 0, 84, 72
1, 120235, Note_on_c, 0, 70, 65
1, 120253, Note_off_c, 0, 77, 57
1, 120279, Note_off_c, 0, 70, 61
1, 120289, Note_off_c, 0, 84, 51
1, 120304, Note_on_c, 0, 89, 80
1, 120330, Note_on_c, 0, 71, 64
1, 120370, Note_off_c, 0, 89, 62
1, 120383, Note_off_c, 0, 71, 57
1, 120402, Note_on_c, 0, 84, 78
1, 120408, Note_on_c, 0, 77, 70
1, 120425, Note_on_c, 0, 60, 61
1, 120434, Note_off_c, 0, 77, 60
1, 120484, Note_off_c, 0, 84, 60
1, 120492, Note_on_c, 0, 89, 68
1, 120502, Note_off_c, 0, 60, 54
1, 120506, Note_on_c, 0, 82, 58
1, 120524, Note_on_c, 0, 62, 50
1, 120571, Note_off_c, 0, 82, 41
1, 120592, Note_off_c, 0, 89, 34
1, 120593, Note_on_c, 0, 81, 67
1, 120597, Note_off_c, 0, 62, 53
1, 120602, Note_on_c, 0, 64, 54
1, 120606, Note_on_c, 0, 85, 58
1, 120649, Note_off_c, 0, 85, 62
1, 120651, Note_off_c, 0, 64, 62
1, 120682, Note_off_c, 0, 81, 54
1, 120683, Note_on_c, 0, 83, 62
1, 120710, Note_on_c, 0, 65, 39
1, 120716, Note_off_c, 0, 83, 58
1, 120773, Note_on_c, 0, 89, 69
1, 120782, Note_on_c, 0, 85, 53
1, 120792, Note_off_c, 0, 65, 34
1, 120812, Note_on_c, 0, 66, 45
1, 120817, Note_off_c, 0, 85, 64
1, 120828, Note_off_c, 0, 89, 53
1, 120840, Control_c, 0, 67, 13
1, 120855, Control_c, 0, 67, 18
1, 120869, Control_c, 0, 67, 24
1, 120876, Note_on_c, 0, 87, 65
1, 120884, Control_c, 0, 67, 31
1, 120886, Note_on_c, 0, 80, 56
1, 120888, Note_off_c, 0, 66, 50
1, 120899, Control_c, 0, 67, 38
1, 120914, Control_c, 0, 67, 44
1, 120916, Note_on_c, 0, 68, 47
1, 120929, Control_c, 0, 67, 49
1, 120943, Control_c, 0, 67, 53
1, 120954, Note_off_c, 0, 80, 45
1, 120958, Control_c, 0, 67, 57
1, 120973, Control_c, 0, 67, 61
1, 120978, Note_off_c, 0, 68, 45
1, 120988, Control_c, 0, 67, 66
1, 121003, Control_c, 0, 67, 71
1, 121017, Control_c, 0, 67, 75
1, 121029, Note_on_c, 0, 70, 34
1, 121032, Control_c, 0, 67, 80
1, 121047, Control_c, 0, 67, 84
1, 121056, Note_off_c, 0, 70, 54
1, 121061, Control_c, 0, 67, 88
1, 121074, Note_off_c, 0, 87, 60
1, 121076, Control_c, 0, 67, 92
1, 121091, Control_c, 0, 67, 95
1, 121104, Note_on_c, 0, 79, 60
1, 121106, Control_c, 0, 67, 99
1, 121116, Note_on_c, 0, 71, 45
1, 121121, Control_c, 0, 67, 104
1, 121134, Note_off_c, 0, 79, 56
1, 121136, Control_c, 0, 67, 108
1, 121150, Control_c, 0, 67, 112
1, 121156, Note_off_c, 0, 71, 51
1, 121165, Control_c, 0, 67, 116
1, 121180, Control_c, 0, 67, 120
1, 121192, Note_on_c, 0, 84, 64
1, 121193, Note_on_c, 0, 91, 70
1, 121195, Control_c, 0, 67, 123
1, 121209, Control_c, 0, 67, 125
1, 121220, Note_on_c, 0, 60, 48
1, 121224, Control_c, 0, 67, 127
1, 121246, Note_off_c, 0, 84, 48
1, 121246, Note_off_c, 0, 91, 47
1, 121271, Note_off_c, 0, 60, 56
1, 121290, Note_on_c, 0, 79, 56
1, 121301, Note_on_c, 0, 86, 50
1, 121315, Note_on_c, 0, 62, 32
1, 121329, Note_off_c, 0, 79, 54
1, 121342, Note_off_c, 0, 86, 54
1, 121370, Note_on_c, 0, 84, 66
1, 121374, Note_off_c, 0, 62, 44
1, 121382, Note_on_c, 0, 64, 48
1, 121403, Note_off_c, 0, 84, 61
1, 121421, Note_off_c, 0, 64, 64
1, 121461, Note_on_c, 0, 86, 62
1, 121468, Note_on_c, 0, 91, 66
1, 121481, Note_on_c, 0, 65, 54
1, 121481, Note_off_c, 0, 86, 61
1, 121534, Note_off_c, 0, 91, 37
1, 121543, Note_off_c, 0, 65, 48
1, 121559, Note_on_c, 0, 88, 67
1, 121567, Note_on_c, 0, 81, 63
1, 121567, Note_on_c, 0, 66, 60
1, 121598, Note_off_c, 0, 81, 55
1, 121611, Note_off_c, 0, 88, 54
1, 121619, Note_off_c, 0, 66, 53
1, 121646, Note_on_c, 0, 83, 74
1, 121660, Note_on_c, 0, 68, 59
1, 121709, Note_off_c, 0, 68, 59
1, 121737, Note_off_c, 0, 83, 59
1, 121749, Note_on_c, 0, 78, 71
1, 121749, Note_on_c, 0, 85, 65
1, 121758, Note_on_c, 0, 70, 63
1, 121792, Note_off_c, 0, 85, 50
1, 121799, Note_off_c, 0, 70, 59
1, 121803, Note_off_c, 0, 78, 54
1, 121832, Note_on_c, 0, 83, 66
1, 121838, Note_on_c, 0, 88, 68
1, 121858, Note_off_c, 0, 83, 65
1, 121867, Note_off_c, 0, 88, 64
1, 121870, Note_on_c, 0, 71, 43
1, 121904, Note_off_c, 0, 71, 52
1, 121947, Note_on_c, 0, 91, 76
1, 121949, Note_on_c, 0, 82, 75
1, 121956, Note_on_c, 0, 87, 65
1, 121966, Note_on_c, 0, 60, 54
1, 121973, Control_c, 0, 64, 53
1, 121974, Note_off_c, 0, 82, 50
1, 121988, Control_c, 0, 64, 63
1, 122003, Control_c, 0, 64, 68
1, 122017, Control_c, 0, 64, 73
1, 122022, Note_off_c, 0, 91, 58
1, 122032, Control_c, 0, 64, 77
1, 122047, Control_c, 0, 64, 78
1, 122057, Poly_aftertouch_c, 0, 82, 0
1, 122062, Control_c, 0, 64, 79
1, 122062, Control_c, 0, 67, 120
1, 122074, Note_off_c, 0, 87, 58
1, 122077, Note_on_c, 0, 62, 50
1, 122077, Control_c, 0, 64, 81
1, 122077, Control_c, 0, 67, 112
1, 122092, Control_c, 0, 64, 82
1, 122092, Control_c, 0, 67, 103
1, 122093, Note_off_c, 0, 60, 33
1, 122114, Control_c, 0, 67, 94
1, 122129, Control_c, 0, 64, 82
1, 122129, Control_c, 0, 67, 86
1, 122144, Control_c, 0, 67, 81
1, 122159, Control_c, 0, 67, 73
1, 122172, Note_on_c, 0, 64, 53
1, 122173, Control_c, 0, 67, 65
1, 122174, Note_off_c, 0, 62, 42
1, 122189, Control_c, 0, 67, 54
1, 122204, Control_c, 0, 67, 40
1, 122217, Note_off_c, 0, 64, 62
1, 122219, Control_c, 0, 67, 26
1, 122234, Control_c, 0, 64, 82
1, 122234, Control_c, 0, 67, 12
1, 122248, Control_c, 0, 64, 80
1, 122248, Control_c, 0, 67, 0
1, 122263, Control_c, 0, 64, 78
1, 122268, Note_on_c, 0, 65, 70
1, 122278, Control_c, 0, 64, 75
1, 122290, Note_on_c, 0, 75, 84
1, 122291, Note_on_c, 0, 70, 84
1, 122293, Control_c, 0, 64, 70
1, 122308, Control_c, 0, 64, 64
1, 122322, Note_off_c, 0, 65, 61
1, 122322, Control_c, 0, 64, 49
1, 122333, Note_off_c, 0, 70, 57
1, 122337, Control_c, 0, 64, 0
1, 122345, Note_off_c, 0, 75, 59
1, 122366, Note_on_c, 0, 74, 61
1, 122372, Note_on_c, 0, 54, 72
1, 122381, Note_on_c, 0, 72, 82
1, 122420, Note_off_c, 0, 74, 63
1, 122454, Note_off_c, 0, 54, 54
1, 122467, Note_on_c, 0, 78, 70
1, 122479, Note_on_c, 0, 56, 67
1, 122481, Note_off_c, 0, 78, 67
1, 122482, Note_off_c, 0, 72, 62
1, 122495, Note_on_c, 0, 77, 60
1, 122512, Note_on_c, 0, 71, 37
1, 122512, Note_off_c, 0, 77, 61
1, 122543, Note_off_c, 0, 71, 34
1, 122555, Note_off_c, 0, 56, 54
1, 122578, Note_on_c, 0, 58, 71
1, 122578, Note_on_c, 0, 72, 82
1, 122582, Note_on_c, 0, 65, 82
1, 122617, Note_off_c, 0, 65, 57
1, 122640, Note_off_c, 0, 58, 64
1, 122663, Note_on_c, 0, 74, 82
1, 122679, Note_on_c, 0, 59, 69
1, 122694, Note_off_c, 0, 72, 64
1, 122735, Note_off_c, 0, 59, 61
1, 122751, Note_on_c, 0, 76, 79
1, 122753, Note_on_c, 0, 70, 84
1, 122754, Note_off_c, 0, 74, 63
1, 122768, Note_on_c, 0, 48, 72
1, 122844, Note_on_c, 0, 67, 78
1, 122846, Note_on_c, 0, 74, 80
1, 122847, Note_off_c, 0, 70, 62
1, 122851, Note_off_c, 0, 76, 58
1, 122855, Note_off_c, 0, 48, 59
1, 122879, Note_on_c, 0, 50, 56
1, 122918, Note_off_c, 0, 67, 50
1, 122941, Note_on_c, 0, 72, 79
1, 122952, Note_off_c, 0, 74, 63
1, 122953, Note_off_c, 0, 50, 60
1, 122958, Note_on_c, 0, 52, 62
1, 122989, Note_off_c, 0, 72, 66
1, 123001, Note_off_c, 0, 52, 66
1, 123040, Note_on_c, 0, 79, 81
1, 123056, Note_on_c, 0, 53, 57
1, 123137, Note_on_c, 0, 74, 80
1, 123138, Note_off_c, 0, 53, 58
1, 123139, Note_off_c, 0, 79, 55
1, 123141, Note_on_c, 0, 69, 78
1, 123159, Note_on_c, 0, 54, 47
1, 123205, Control_c, 0, 64, 18
1, 123219, Control_c, 0, 64, 49
1, 123234, Control_c, 0, 64, 59
1, 123240, Note_off_c, 0, 54, 58
1, 123248, Note_on_c, 0, 56, 53
1, 123248, Note_off_c, 0, 69, 61
1, 123249, Control_c, 0, 64, 64
1, 123262, Note_off_c, 0, 74, 59
1, 123263, Control_c, 0, 64, 66
1, 123278, Control_c, 0, 64, 69
1, 123278, Control_c, 0, 67, 10
1, 123293, Control_c, 0, 64, 71
1, 123293, Control_c, 0, 67, 14
1, 123308, Control_c, 0, 64, 73
1, 123308, Control_c, 0, 67, 18
1, 123314, Note_off_c, 0, 56, 52
1, 123323, Control_c, 0, 64, 74
1, 123323, Control_c, 0, 67, 23
1, 123338, Control_c, 0, 64, 75
1, 123338, Control_c, 0, 67, 27
1, 123353, Control_c, 0, 67, 30
1, 123368, Control_c, 0, 67, 32
1, 123372, Note_on_c, 0, 58, 45
1, 123382, Control_c, 0, 67, 32
1, 123397, Control_c, 0, 67, 33
1, 123427, Note_off_c, 0, 58, 61
1, 123427, Control_c, 0, 67, 33
1, 123442, Control_c, 0, 64, 73
1, 123456, Control_c, 0, 64, 71
1, 123457, Note_on_c, 0, 67, 80
1, 123471, Note_on_c, 0, 59, 55
1, 123471, Control_c, 0, 64, 67
1, 123486, Note_off_c, 0, 67, 64
1, 123486, Control_c, 0, 64, 64
1, 123501, Control_c, 0, 64, 61
1, 123516, Control_c, 0, 64, 56
1, 123516, Control_c, 0, 67, 34
1, 123521, Note_off_c, 0, 59, 57
1, 123530, Control_c, 0, 64, 33
1, 123545, Control_c, 0, 64, 0
1, 123545, Control_c, 0, 67, 34
1, 123553, Note_on_c, 0, 65, 75
1, 123560, Control_c, 0, 67, 34
1, 123564, Note_on_c, 0, 72, 65
1, 123567, Note_on_c, 0, 48, 63
1, 123589, Control_c, 0, 67, 33
1, 123590, Note_off_c, 0, 65, 63
1, 123627, Control_c, 0, 67, 33
1, 123652, Note_on_c, 0, 77, 69
1, 123655, Note_off_c, 0, 72, 61
1, 123657, Note_off_c, 0, 48, 55
1, 123665, Note_on_c, 0, 70, 62
1, 123676, Note_on_c, 0, 50, 51
1, 123701, Control_c, 0, 67, 32
1, 123716, Note_off_c, 0, 77, 58
1, 123739, Note_off_c, 0, 50, 57
1, 123755, Note_on_c, 0, 52, 54
1, 123757, Note_on_c, 0, 72, 72
1, 123758, Note_off_c, 0, 70, 62
1, 123791, Control_c, 0, 67, 32
1, 123800, Note_off_c, 0, 52, 65
1, 123821, Control_c, 0, 67, 31
1, 123830, Note_off_c, 0, 72, 63
1, 123835, Control_c, 0, 67, 31
1, 123852, Note_on_c, 0, 75, 70
1, 123855, Note_on_c, 0, 53, 59
1, 123863, Note_on_c, 0, 69, 61
1, 123865, Control_c, 0, 67, 30
1, 123879, Control_c, 0, 67, 30
1, 123901, Note_off_c, 0, 69, 61
1, 123904, Note_off_c, 0, 75, 53
1, 123928, Note_off_c, 0, 53, 57
1, 123940, Note_on_c, 0, 74, 74
1, 123946, Note_on_c, 0, 54, 57
1, 123968, Control_c, 0, 67, 29
1, 123983, Control_c, 0, 67, 29
1, 123998, Control_c, 0, 67, 28
1, 124024, Note_on_c, 0, 76, 77
1, 124027, Note_off_c, 0, 54, 55
1, 124027, Control_c, 0, 67, 28
1, 124036, Note_on_c, 0, 71, 67
1, 124042, Control_c, 0, 67, 27
1, 124043, Note_on_c, 0, 56, 58
1, 124047, Note_off_c, 0, 74, 61
1, 124057, Control_c, 0, 67, 27
1, 124072, Control_c, 0, 67, 26
1, 124086, Control_c, 0, 67, 26
1, 124093, Note_off_c, 0, 56, 57
1, 124096, Note_off_c, 0, 76, 55
1, 124101, Control_c, 0, 67, 25
1, 124127, Note_on_c, 0, 66, 70
1, 124131, Note_off_c, 0, 71, 56
1, 124137, Note_on_c, 0, 73, 63
1, 124143, Note_on_c, 0, 58, 60
1, 124146, Control_c, 0, 67, 25
1, 124170, Note_off_c, 0, 66, 59
1, 124172, Note_off_c, 0, 73, 60
1, 124175, Control_c, 0, 67, 24
1, 124179, Note_off_c, 0, 58, 65
1, 124220, Note_on_c, 0, 78, 72
1, 124232, Note_on_c, 0, 59, 58
1, 124262, Note_off_c, 0, 78, 50
1, 124279, Control_c, 0, 67, 24
1, 124284, Note_off_c, 0, 59, 57
1, 124306, Note_on_c, 0, 75, 73
1, 124310, Control_c, 0, 67, 23
1, 124314, Note_on_c, 0, 67, 60
1, 124321, Note_on_c, 0, 68, 64
1, 124325, Control_c, 0, 67, 22
1, 124335, Note_on_c, 0, 48, 55
1, 124339, Control_c, 0, 67, 21
1, 124361, Control_c, 0, 64, 60
1, 124361, Control_c, 0, 67, 19
1, 124376, Control_c, 0, 64, 66
1, 124376, Control_c, 0, 67, 14
1, 124391, Control_c, 0, 64, 67
1, 124391, Control_c, 0, 67, 9
1, 124401, Note_off_c, 0, 67, 60
1, 124406, Control_c, 0, 67, 0
1, 124408, Note_off_c, 0, 75, 60
1, 124423, Note_off_c, 0, 48, 56
1, 124426, Note_off_c, 0, 68, 63
1, 124442, Note_on_c, 0, 50, 54
1, 124537, Note_off_c, 0, 50, 52
1, 124539, Control_c, 0, 64, 67
1, 124547, Note_on_c, 0, 52, 55
1, 124554, Control_c, 0, 64, 66
1, 124569, Control_c, 0, 64, 65
1, 124584, Control_c, 0, 64, 61
1, 124599, Control_c, 0, 64, 46
1, 124605, Note_off_c, 0, 52, 62
1, 124614, Control_c, 0, 64, 0
1, 124640, Note_on_c, 0, 68, 95
1, 124642, Note_on_c, 0, 53, 71
1, 124643, Note_on_c, 0, 61, 89
1, 124688, Note_off_c, 0, 61, 60
1, 124706, Note_off_c, 0, 68, 60
1, 124733, Note_off_c, 0, 53, 39
1, 124736, Note_on_c, 0, 63, 86
1, 124744, Note_on_c, 0, 54, 69
1, 124779, Note_off_c, 0, 63, 67
1, 124826, Note_on_c, 0, 64, 99
1, 124827, Note_on_c, 0, 71, 95
1, 124832, Note_on_c, 0, 56, 75
1, 124851, Control_c, 0, 64, 24
1, 124861, Note_off_c, 0, 64, 67
1, 124866, Control_c, 0, 64, 63
1, 124868, Note_off_c, 0, 54, 53
1, 124881, Control_c, 0, 64, 65
1, 124902, Note_off_c, 0, 71, 44
1, 124920, Note_on_c, 0, 63, 77
1, 124921, Note_on_c, 0, 66, 75
1, 124925, Control_c, 0, 64, 64
1, 124932, Note_on_c, 0, 58, 76
1, 124932, Note_off_c, 0, 56, 63
1, 124951, Note_off_c, 0, 66, 67
1, 124959, Note_off_c, 0, 63, 63
1, 124970, Control_c, 0, 64, 63
1, 124984, Control_c, 0, 64, 62
1, 124999, Control_c, 0, 64, 60
1, 125005, Note_off_c, 0, 58, 64
1, 125014, Control_c, 0, 64, 54
1, 125028, Control_c, 0, 64, 42
1, 125040, Note_on_c, 0, 59, 69
1, 125043, Control_c, 0, 64, 0
1, 125064, Note_off_c, 0, 59, 66
1, 125141, Note_on_c, 0, 55, 94
1, 125146, Note_on_c, 0, 51, 84
1, 125147, Note_on_c, 0, 60, 90
1, 125190, Note_off_c, 0, 55, 65
1, 125206, Note_off_c, 0, 60, 60
1, 125219, Note_off_c, 0, 51, 58
1, 125237, Note_on_c, 0, 62, 78
1, 125259, Note_on_c, 0, 47, 73
1, 125305, Note_off_c, 0, 62, 53
1, 125353, Note_on_c, 0, 64, 69
1, 125359, Note_on_c, 0, 57, 61
1, 125367, Note_off_c, 0, 47, 46
1, 125384, Note_off_c, 0, 57, 63
1, 125390, Note_off_c, 0, 64, 64
1, 125437, Note_on_c, 0, 65, 88
1, 125439, Note_on_c, 0, 53, 101
1, 125442, Note_on_c, 0, 46, 94
1, 125505, Note_off_c, 0, 65, 61
1, 125506, Note_off_c, 0, 53, 61
1, 125511, Note_off_c, 0, 46, 49
1, 125550, Note_on_c, 0, 50, 75
1, 125552, Note_on_c, 0, 66, 68
1, 125595, Note_off_c, 0, 66, 65
1, 125614, Note_off_c, 0, 50, 63
1, 125653, Note_on_c, 0, 48, 78
1, 125654, Note_on_c, 0, 68, 71
1, 125693, Note_off_c, 0, 68, 64
1, 125714, Note_off_c, 0, 48, 64
1, 125729, Note_on_c, 0, 52, 89
1, 125734, Note_on_c, 0, 59, 87
1, 125741, Note_on_c, 0, 70, 81
1, 125770, Note_off_c, 0, 70, 65
1, 125776, Note_off_c, 0, 59, 64
1, 125776, Note_off_c, 0, 52, 66
1, 125827, Note_on_c, 0, 45, 80
1, 125837, Note_on_c, 0, 71, 75
1, 125901, Note_off_c, 0, 71, 59
1, 125922, Note_off_c, 0, 45, 58
1, 125930, Note_on_c, 0, 53, 80
1, 125934, Note_on_c, 0, 60, 85
1, 125975, Note_off_c, 0, 53, 67
1, 126019, Note_on_c, 0, 50, 102
1, 126024, Note_on_c, 0, 43, 89
1, 126027, Note_on_c, 0, 62, 83
1, 126028, Note_off_c, 0, 60, 60
1, 126080, Control_c, 0, 64, 49
1, 126095, Control_c, 0, 64, 76
1, 126110, Control_c, 0, 64, 95
1, 126116, Note_off_c, 0, 43, 60
1, 126125, Control_c, 0, 64, 105
1, 126127, Note_on_c, 0, 64, 77
1, 126128, Note_off_c, 0, 50, 58
1, 126140, Control_c, 0, 64, 105
1, 126147, Note_off_c, 0, 62, 55
1, 126155, Control_c, 0, 64, 106
1, 126172, Note_off_c, 0, 64, 61
1, 126215, Control_c, 0, 67, 11
1, 126220, Note_on_c, 0, 65, 72
1, 126229, Control_c, 0, 67, 17
1, 126244, Control_c, 0, 67, 23
1, 126259, Control_c, 0, 67, 28
1, 126274, Control_c, 0, 67, 33
1, 126284, Note_off_c, 0, 65, 57
1, 126289, Control_c, 0, 67, 39
1, 126304, Control_c, 0, 67, 47
1, 126319, Control_c, 0, 67, 53
1, 126331, Note_on_c, 0, 66, 60
1, 126334, Control_c, 0, 64, 105
1, 126334, Control_c, 0, 67, 58
1, 126349, Control_c, 0, 67, 61
1, 126363, Control_c, 0, 64, 103
1, 126363, Control_c, 0, 67, 65
1, 126370, Note_off_c, 0, 66, 63
1, 126378, Control_c, 0, 64, 100
1, 126378, Control_c, 0, 67, 67
1, 126393, Control_c, 0, 64, 94
1, 126393, Control_c, 0, 67, 71
1, 126407, Control_c, 0, 64, 85
1, 126407, Control_c, 0, 67, 74
1, 126419, Note_on_c, 0, 65, 72
1, 126422, Control_c, 0, 64, 75
1, 126422, Control_c, 0, 67, 79
1, 126423, Note_on_c, 0, 68, 71
1, 126426, Note_on_c, 0, 61, 68
1, 126437, Control_c, 0, 64, 63
1, 126437, Control_c, 0, 67, 84
1, 126452, Control_c, 0, 64, 0
1, 126452, Control_c, 0, 67, 88
1, 126453, Note_off_c, 0, 68, 64
1, 126461, Note_off_c, 0, 65, 61
1, 126467, Control_c, 0, 67, 92
1, 126481, Control_c, 0, 67, 94
1, 126486, Note_off_c, 0, 61, 52
1, 126496, Control_c, 0, 67, 97
1, 126511, Control_c, 0, 67, 99
1, 126519, Note_on_c, 0, 70, 68
1, 126520, Note_on_c, 0, 63, 66
1, 126526, Control_c, 0, 67, 103
1, 126527, Note_on_c, 0, 56, 47
1, 126541, Control_c, 0, 67, 108
1, 126545, Note_off_c, 0, 70, 69
1, 126555, Control_c, 0, 67, 112
1, 126563, Note_off_c, 0, 56, 55
1, 126570, Control_c, 0, 67, 115
1, 126585, Note_off_c, 0, 63, 63
1, 126585, Control_c, 0, 67, 119
1, 126607, Control_c, 0, 67, 124
1, 126622, Control_c, 0, 67, 127
1, 126623, Note_on_c, 0, 71, 67
1, 126632, Note_on_c, 0, 65, 57
1, 126636, Note_on_c, 0, 61, 51
1, 126654, Note_off_c, 0, 71, 60
1, 126657, Note_off_c, 0, 65, 66
1, 126677, Note_off_c, 0, 61, 63
1, 126699, Note_on_c, 0, 56, 53
1, 126710, Note_on_c, 0, 63, 63
1, 126718, Note_on_c, 0, 72, 73
1, 126739, Note_off_c, 0, 63, 66
1, 126741, Note_off_c, 0, 56, 62
1, 126803, Note_on_c, 0, 62, 57
1, 126803, Note_off_c, 0, 72, 56
1, 126828, Note_on_c, 0, 74, 54
1, 126831, Note_on_c, 0, 58, 52
1, 126831, Note_off_c, 0, 62, 59
1, 126864, Note_off_c, 0, 58, 61
1, 126874, Note_off_c, 0, 74, 56
1, 126906, Note_on_c, 0, 53, 42
1, 126915, Note_on_c, 0, 60, 50
1, 126924, Note_on_c, 0, 76, 55
1, 126945, Note_off_c, 0, 60, 59
1, 126945, Note_off_c, 0, 53, 52
1, 126948, Note_off_c, 0, 76, 60
1, 126993, Note_on_c, 0, 62, 46
1, 127012, Note_on_c, 0, 77, 57
1, 127023, Control_c, 0, 64, 61
1, 127025, Note_off_c, 0, 62, 58
1, 127037, Control_c, 0, 64, 68
1, 127050, Note_off_c, 0, 77, 53
1, 127052, Control_c, 0, 64, 75
1, 127067, Control_c, 0, 64, 82
1, 127082, Control_c, 0, 64, 84
1, 127097, Control_c, 0, 64, 85
1, 127106, Note_on_c, 0, 78, 58
1, 127112, Control_c, 0, 64, 86
1, 127127, Control_c, 0, 64, 87
1, 127141, Control_c, 0, 64, 87
1, 127152, Note_off_c, 0, 78, 52
1, 127199, Note_on_c, 0, 80, 57
1, 127233, Note_off_c, 0, 80, 57
1, 127245, Control_c, 0, 64, 86
1, 127260, Control_c, 0, 64, 84
1, 127275, Control_c, 0, 64, 81
1, 127286, Note_on_c, 0, 82, 64
1, 127287, Note_on_c, 0, 75, 52
1, 127287, Note_on_c, 0, 79, 53
1, 127290, Control_c, 0, 64, 77
1, 127304, Control_c, 0, 64, 71
1, 127309, Note_off_c, 0, 82, 66
1, 127319, Control_c, 0, 64, 64
1, 127321, Note_off_c, 0, 79, 51
1, 127334, Control_c, 0, 64, 48
1, 127345, Note_off_c, 0, 75, 42
1, 127356, Control_c, 0, 64, 0
1, 127385, Note_on_c, 0, 83, 60
1, 127395, Note_on_c, 0, 77, 54
1, 127403, Note_on_c, 0, 70, 40
1, 127404, Note_off_c, 0, 83, 59
1, 127431, Note_off_c, 0, 70, 54
1, 127431, Note_off_c, 0, 77, 50
1, 127468, Note_on_c, 0, 79, 57
1, 127480, Note_on_c, 0, 84, 64
1, 127499, Note_on_c, 0, 75, 44
1, 127500, Note_off_c, 0, 79, 61
1, 127533, Note_off_c, 0, 75, 60
1, 127544, Note_off_c, 0, 84, 51
1, 127563, Note_on_c, 0, 70, 41
1, 127568, Note_on_c, 0, 77, 53
1, 127581, Note_on_c, 0, 86, 42
1, 127589, Note_off_c, 0, 77, 60
1, 127591, Note_off_c, 0, 70, 57
1, 127666, Note_on_c, 0, 88, 59
1, 127673, Note_off_c, 0, 86, 28
1, 127674, Note_on_c, 0, 76, 50
1, 127688, Note_on_c, 0, 72, 43
1, 127691, Note_off_c, 0, 88, 60
1, 127698, Note_off_c, 0, 76, 59
1, 127714, Note_off_c, 0, 72, 55
1, 127761, Note_on_c, 0, 67, 33
1, 127761, Note_on_c, 0, 74, 53
1, 127765, Note_on_c, 0, 89, 52
1, 127795, Note_off_c, 0, 89, 53
1, 127806, Note_off_c, 0, 74, 61
1, 127809, Note_off_c, 0, 67, 43
1, 127850, Note_on_c, 0, 76, 47
1, 127858, Note_on_c, 0, 90, 50
1, 127860, Note_on_c, 0, 72, 41
1, 127875, Control_c, 0, 64, 29
1, 127890, Control_c, 0, 64, 62
1, 127905, Control_c, 0, 64, 67
1, 127914, Note_off_c, 0, 90, 49
1, 127920, Control_c, 0, 64, 71
1, 127922, Note_off_c, 0, 72, 50
1, 127934, Control_c, 0, 64, 74
1, 127946, Note_on_c, 0, 92, 58
1, 127949, Control_c, 0, 64, 77
1, 127953, Note_off_c, 0, 76, 52
1, 127964, Control_c, 0, 64, 77
1, 127984, Note_off_c, 0, 92, 59
1, 128009, Control_c, 0, 64, 78
1, 128048, Note_on_c, 0, 94, 58
1, 128072, Note_off_c, 0, 94, 65
1, 128134, Note_on_c, 0, 83, 55
1, 128135, Control_c, 0, 64, 77
1, 128137, Note_on_c, 0, 79, 63
1, 128141, Note_on_c, 0, 95, 65
1, 128150, Control_c, 0, 64, 74
1, 128152, Note_off_c, 0, 83, 60
1, 128164, Note_off_c, 0, 79, 58
1, 128165, Control_c, 0, 64, 70
1, 128174, Note_off_c, 0, 95, 62
1, 128179, Control_c, 0, 64, 64
1, 128194, Control_c, 0, 64, 46
1, 128209, Control_c, 0, 64, 15
1, 128224, Control_c, 0, 64, 0
1, 128232, Note_on_c, 0, 81, 66
1, 128236, Note_on_c, 0, 84, 62
1, 128243, Note_on_c, 0, 74, 50
1, 128258, Note_off_c, 0, 81, 67
1, 128273, Note_off_c, 0, 74, 60
1, 128295, Note_off_c, 0, 84, 51
1, 128327, Note_on_c, 0, 79, 57
1, 128344, Note_on_c, 0, 86, 49
1, 128359, Note_off_c, 0, 79, 54
1, 128426, Note_off_c, 0, 86, 32
1, 128429, Note_on_c, 0, 81, 59
1, 128436, Note_on_c, 0, 88, 56
1, 128451, Note_on_c, 0, 73, 35
1, 128465, Note_off_c, 0, 88, 60
1, 128476, Control_c, 0, 64, 41
1, 128483, Note_off_c, 0, 73, 53
1, 128491, Control_c, 0, 64, 61
1, 128494, Note_off_c, 0, 81, 49
1, 128506, Control_c, 0, 64, 66
1, 128521, Control_c, 0, 64, 69
1, 128524, Note_on_c, 0, 89, 58
1, 128535, Control_c, 0, 64, 73
1, 128550, Control_c, 0, 64, 77
1, 128565, Control_c, 0, 64, 79
1, 128569, Note_off_c, 0, 89, 55
1, 128581, Control_c, 0, 64, 80
1, 128595, Control_c, 0, 64, 81
1, 128635, Note_on_c, 0, 90, 53
1, 128655, Control_c, 0, 64, 80
1, 128670, Control_c, 0, 64, 80
1, 128684, Control_c, 0, 64, 78
1, 128688, Note_off_c, 0, 90, 39
1, 128699, Control_c, 0, 64, 74
1, 128714, Control_c, 0, 64, 69
1, 128718, Note_on_c, 0, 92, 61
1, 128721, Note_on_c, 0, 83, 62
1, 128729, Control_c, 0, 64, 63
1, 128730, Note_on_c, 0, 87, 53
1, 128744, Control_c, 0, 64, 47
1, 128750, Note_off_c, 0, 92, 64
1, 128751, Note_off_c, 0, 87, 59
1, 128758, Control_c, 0, 64, 39
1, 128773, Control_c, 0, 64, 40
1, 128784, Note_off_c, 0, 83, 55
1, 128788, Control_c, 0, 64, 38
1, 128802, Control_c, 0, 64, 35
1, 128808, Note_on_c, 0, 94, 65
1, 128814, Note_on_c, 0, 85, 51
1, 128817, Control_c, 0, 64, 33
1, 128832, Control_c, 0, 64, 32
1, 128836, Note_off_c, 0, 94, 67
1, 128838, Note_on_c, 0, 78, 23
1, 128855, Control_c, 0, 64, 32
1, 128870, Control_c, 0, 64, 29
1, 128870, Note_off_c, 0, 85, 56
1, 128873, Note_off_c, 0, 78, 47
1, 128884, Control_c, 0, 64, 28
1, 128912, Note_on_c, 0, 87, 31
1, 128912, Note_on_c, 0, 95, 61
1, 128933, Note_off_c, 0, 87, 50
1, 128942, Note_on_c, 0, 83, 34
1, 128953, Note_off_c, 0, 95, 61
1, 128958, Control_c, 0, 64, 27
1, 128973, Control_c, 0, 64, 26
1, 128976, Note_off_c, 0, 83, 49
1, 128988, Control_c, 0, 64, 21
1, 129002, Control_c, 0, 64, 17
1, 129006, Note_on_c, 0, 84, 54
1, 129025, Note_on_c, 0, 80, 49
1, 129047, Control_c, 0, 64, 20
1, 129062, Control_c, 0, 64, 21
1, 129076, Control_c, 0, 64, 24
1, 129091, Control_c, 0, 64, 27
1, 129094, Note_off_c, 0, 84, 42
1, 129106, Control_c, 0, 64, 29
1, 129117, Note_on_c, 0, 86, 55
1, 129121, Control_c, 0, 64, 29
1, 129134, Note_off_c, 0, 80, 59
1, 129136, Control_c, 0, 64, 31
1, 129151, Control_c, 0, 64, 32
1, 129165, Control_c, 0, 64, 33
1, 129171, Note_off_c, 0, 86, 53
1, 129180, Control_c, 0, 64, 34
1, 129210, Control_c, 0, 67, 123
1, 129220, Note_on_c, 0, 88, 62
1, 129225, Control_c, 0, 67, 105
1, 129240, Control_c, 0, 64, 33
1, 129240, Control_c, 0, 67, 75
1, 129255, Control_c, 0, 67, 39
1, 129256, Note_off_c, 0, 88, 61
1, 129270, Control_c, 0, 67, 0
1, 129284, Control_c, 0, 64, 40
1, 129299, Control_c, 0, 64, 54
1, 129314, Control_c, 0, 64, 62
1, 129319, Note_on_c, 0, 86, 106
1, 129320, Note_on_c, 0, 89, 70
1, 129321, Note_on_c, 0, 82, 94
1, 129329, Control_c, 0, 64, 66
1, 129344, Control_c, 0, 64, 71
1, 129358, Control_c, 0, 64, 76
1, 129374, Control_c, 0, 64, 79
1, 129424, Note_off_c, 0, 86, 62
1, 129428, Note_off_c, 0, 89, 39
1, 129439, Note_off_c, 0, 82, 59
1, 129443, Note_on_c, 0, 90, 70
1, 129473, Note_off_c, 0, 90, 66
1, 129502, Note_on_c, 0, 84, 100
1, 129513, Note_on_c, 0, 77, 77
1, 129520, Note_on_c, 0, 92, 82
1, 129522, Control_c, 0, 64, 79
1, 129543, Note_off_c, 0, 84, 67
1, 129553, Note_off_c, 0, 77, 58
1, 129559, Note_off_c, 0, 92, 62
1, 129580, Control_c, 0, 64, 80
1, 129603, Control_c, 0, 64, 81
1, 129618, Control_c, 0, 64, 81
1, 129626, Note_on_c, 0, 94, 79
1, 129632, Control_c, 0, 64, 82
1, 129645, Note_off_c, 0, 94, 72
1, 129677, Control_c, 0, 64, 81
1, 129692, Control_c, 0, 64, 78
1, 129706, Control_c, 0, 64, 71
1, 129710, Note_on_c, 0, 95, 86
1, 129714, Note_on_c, 0, 74, 86
1, 129717, Note_on_c, 0, 80, 91
1, 129721, Control_c, 0, 64, 62
1, 129736, Control_c, 0, 64, 35
1, 129751, Control_c, 0, 64, 46
1, 129763, Note_off_c, 0, 95, 67
1, 129766, Control_c, 0, 64, 56
1, 129780, Control_c, 0, 64, 59
1, 129795, Control_c, 0, 64, 61
1, 129802, Note_on_c, 0, 84, 77
1, 129810, Control_c, 0, 64, 61
1, 129854, Control_c, 0, 64, 60
1, 129863, Note_off_c, 0, 80, 61
1, 129869, Control_c, 0, 64, 59
1, 129872, Note_off_c, 0, 74, 62
1, 129884, Control_c, 0, 64, 58
1, 129895, Note_on_c, 0, 83, 107
1, 129899, Note_on_c, 0, 79, 82
1, 129899, Control_c, 0, 64, 57
1, 129907, Note_on_c, 0, 86, 80
1, 129913, Note_off_c, 0, 84, 61
1, 129941, Note_on_c, 0, 81, 31
1, 129942, Note_off_c, 0, 81, 127
1, 129944, Control_c, 0, 64, 57
1, 129973, Control_c, 0, 64, 56
1, 129980, Note_off_c, 0, 86, 55
1, 129988, Control_c, 0, 64, 56
1, 130003, Control_c, 0, 64, 55
1, 130018, Control_c, 0, 64, 53
1, 130026, Note_on_c, 0, 88, 68
1, 130032, Control_c, 0, 64, 50
1, 130039, Note_off_c, 0, 79, 61
1, 130047, Control_c, 0, 64, 45
1, 130060, Note_off_c, 0, 83, 59
1, 130060, Note_off_c, 0, 88, 62
1, 130062, Control_c, 0, 64, 41
1, 130077, Control_c, 0, 64, 44
1, 130092, Control_c, 0, 64, 54
1, 130099, Note_on_c, 0, 80, 100
1, 130106, Control_c, 0, 64, 63
1, 130107, Note_on_c, 0, 73, 86
1, 130107, Note_on_c, 0, 89, 89
1, 130121, Control_c, 0, 64, 68
1, 130136, Control_c, 0, 64, 74
1, 130150, Control_c, 0, 64, 79
1, 130165, Control_c, 0, 64, 81
1, 130175, Note_off_c, 0, 89, 58
1, 130182, Control_c, 0, 64, 81
1, 130209, Note_on_c, 0, 90, 75
1, 130211, Control_c, 0, 64, 82
1, 130226, Control_c, 0, 64, 82
1, 130241, Note_off_c, 0, 80, 60
1, 130242, Note_off_c, 0, 90, 64
1, 130262, Note_off_c, 0, 73, 60
1, 130301, Note_on_c, 0, 92, 76
1, 130337, Note_off_c, 0, 92, 60
1, 130413, Note_on_c, 0, 94, 68
1, 130439, Note_off_c, 0, 94, 70
1, 130484, Control_c, 0, 64, 81
1, 130499, Control_c, 0, 64, 77
1, 130500, Note_on_c, 0, 95, 73
1, 130507, Note_on_c, 0, 80, 112
1, 130514, Control_c, 0, 64, 66
1, 130516, Note_on_c, 0, 76, 80
1, 130528, Control_c, 0, 64, 41
1, 130543, Control_c, 0, 64, 38
1, 130546, Note_off_c, 0, 95, 66
1, 130558, Control_c, 0, 64, 59
1, 130572, Control_c, 0, 64, 66
1, 130579, Note_on_c, 0, 84, 76
1, 130587, Control_c, 0, 64, 70
1, 130602, Control_c, 0, 64, 75
1, 130610, Note_off_c, 0, 76, 61
1, 130617, Control_c, 0, 64, 77
1, 130651, Note_off_c, 0, 80, 61
1, 130683, Note_off_c, 0, 84, 64
1, 130689, Note_on_c, 0, 86, 79
1, 130696, Note_on_c, 0, 78, 92
1, 130698, Note_on_c, 0, 71, 82
1, 130766, Control_c, 0, 64, 77
1, 130799, Note_on_c, 0, 88, 72
1, 130820, Note_off_c, 0, 86, 43
1, 130839, Note_off_c, 0, 78, 62
1, 130844, Note_off_c, 0, 88, 62
1, 130853, Note_off_c, 0, 71, 58
1, 130854, Control_c, 0, 64, 77
1, 130869, Control_c, 0, 64, 72
1, 130884, Note_on_c, 0, 80, 106
1, 130884, Control_c, 0, 64, 57
1, 130888, Note_on_c, 0, 74, 73
1, 130894, Note_on_c, 0, 89, 89
1, 130899, Control_c, 0, 64, 0
1, 130914, Control_c, 0, 64, 34
1, 130922, Note_on_c, 0, 70, 45
1, 130928, Control_c, 0, 64, 59
1, 130943, Control_c, 0, 64, 66
1, 130948, Note_off_c, 0, 70, 53
1, 130958, Control_c, 0, 64, 70
1, 130974, Control_c, 0, 64, 74
1, 130976, Note_off_c, 0, 89, 55
1, 130989, Control_c, 0, 64, 77
1, 131003, Note_off_c, 0, 74, 61
1, 131003, Note_off_c, 0, 80, 62
1, 131014, Note_on_c, 0, 90, 74
1, 131048, Note_off_c, 0, 90, 64
1, 131071, Note_on_c, 0, 78, 94
1, 131073, Note_on_c, 0, 71, 84
1, 131103, Note_on_c, 0, 92, 86
1, 131115, Control_c, 0, 64, 77
1, 131142, Note_off_c, 0, 92, 62
1, 131175, Control_c, 0, 64, 78
1, 131190, Control_c, 0, 64, 80
1, 131204, Control_c, 0, 64, 81
1, 131207, Note_on_c, 0, 94, 76
1, 131213, Note_off_c, 0, 78, 54
1, 131219, Control_c, 0, 64, 81
1, 131228, Note_off_c, 0, 94, 72
1, 131249, Control_c, 0, 64, 81
1, 131262, Note_off_c, 0, 71, 52
1, 131264, Control_c, 0, 64, 75
1, 131278, Control_c, 0, 64, 63
1, 131283, Note_on_c, 0, 77, 112
1, 131288, Note_on_c, 0, 95, 86
1, 131290, Note_on_c, 0, 73, 81
1, 131293, Control_c, 0, 64, 0
1, 131300, Note_on_c, 0, 79, 64
1, 131301, Note_off_c, 0, 79, 127
1, 131323, Control_c, 0, 64, 17
1, 131336, Note_off_c, 0, 95, 64
1, 131338, Control_c, 0, 64, 60
1, 131352, Control_c, 0, 64, 66
1, 131367, Control_c, 0, 64, 69
1, 131377, Note_on_c, 0, 84, 75
1, 131382, Control_c, 0, 64, 72
1, 131396, Control_c, 0, 64, 74
1, 131411, Control_c, 0, 64, 76
1, 131426, Control_c, 0, 64, 76
1, 131441, Control_c, 0, 64, 77
1, 131458, Note_off_c, 0, 73, 55
1, 131477, Note_off_c, 0, 84, 61
1, 131481, Note_on_c, 0, 86, 70
1, 131489, Note_off_c, 0, 77, 52
1, 131545, Control_c, 0, 64, 77
1, 131586, Note_on_c, 0, 88, 67
1, 131592, Note_off_c, 0, 86, 53
1, 131618, Note_off_c, 0, 88, 58
1, 131634, Control_c, 0, 64, 78
1, 131663, Note_on_c, 0, 89, 83
1, 131663, Control_c, 0, 64, 78
1, 131678, Control_c, 0, 64, 79
1, 131693, Control_c, 0, 64, 80
1, 131720, Note_off_c, 0, 89, 61
1, 131752, Control_c, 0, 64, 77
1, 131763, Note_on_c, 0, 73, 106
1, 131768, Note_on_c, 0, 69, 92
1, 131768, Control_c, 0, 64, 68
1, 131768, Note_on_c, 0, 90, 83
1, 131782, Control_c, 0, 64, 0
1, 131816, Note_off_c, 0, 90, 65
1, 131826, Control_c, 0, 64, 44
1, 131848, Control_c, 0, 64, 64
1, 131863, Control_c, 0, 64, 71
1, 131872, Note_on_c, 0, 92, 79
1, 131878, Control_c, 0, 64, 77
1, 131893, Control_c, 0, 64, 81
1, 131908, Control_c, 0, 64, 81
1, 131916, Note_off_c, 0, 92, 61
1, 131923, Control_c, 0, 64, 82
1, 131974, Note_on_c, 0, 94, 76
1, 131985, Note_off_c, 0, 73, 59
1, 131997, Control_c, 0, 64, 82
1, 131997, Note_off_c, 0, 69, 61
1, 132018, Note_off_c, 0, 94, 67
1, 132056, Control_c, 0, 64, 79
1, 132071, Control_c, 0, 64, 71
1, 132072, Note_on_c, 0, 95, 74
1, 132077, Note_on_c, 0, 71, 113
1, 132086, Control_c, 0, 64, 54
1, 132091, Note_on_c, 0, 62, 79
1, 132097, Note_on_c, 0, 64, 72
1, 132100, Control_c, 0, 64, 0
1, 132115, Control_c, 0, 64, 48
1, 132122, Note_on_c, 0, 69, 29
1, 132123, Note_off_c, 0, 69, 127
1, 132130, Control_c, 0, 64, 65
1, 132145, Control_c, 0, 64, 71
1, 132147, Note_off_c, 0, 95, 64
1, 132160, Control_c, 0, 64, 77
1, 132173, Note_on_c, 0, 84, 74
1, 132174, Control_c, 0, 64, 80
1, 132179, Note_off_c, 0, 64, 59
1, 132184, Note_off_c, 0, 62, 55
1, 132189, Control_c, 0, 64, 81
1, 132218, Control_c, 0, 64, 81
1, 132260, Note_off_c, 0, 71, 54
1, 132263, Control_c, 0, 64, 82
1, 132278, Control_c, 0, 64, 82
1, 132280, Note_on_c, 0, 86, 72
1, 132284, Note_off_c, 0, 84, 63
1, 132292, Control_c, 0, 64, 84
1, 132307, Control_c, 0, 64, 84
1, 132337, Control_c, 0, 64, 84
1, 132352, Control_c, 0, 64, 80
1, 132362, Note_on_c, 0, 69, 115
1, 132367, Control_c, 0, 64, 71
1, 132369, Note_on_c, 0, 61, 93
1, 132373, Note_on_c, 0, 88, 77
1, 132382, Control_c, 0, 64, 55
1, 132395, Note_off_c, 0, 86, 53
1, 132397, Control_c, 0, 64, 0
1, 132406, Note_on_c, 0, 67, 33
1, 132407, Note_off_c, 0, 67, 127
1, 132412, Control_c, 0, 64, 48
1, 132415, Note_off_c, 0, 88, 63
1, 132426, Control_c, 0, 64, 65
1, 132441, Control_c, 0, 64, 71
1, 132456, Control_c, 0, 64, 75
1, 132458, Note_off_c, 0, 61, 61
1, 132467, Note_on_c, 0, 89, 84
1, 132471, Control_c, 0, 64, 78
1, 132486, Control_c, 0, 64, 78
1, 132500, Control_c, 0, 64, 79
1, 132515, Control_c, 0, 64, 80
1, 132530, Control_c, 0, 64, 82
1, 132544, Control_c, 0, 64, 83
1, 132550, Note_off_c, 0, 69, 56
1, 132559, Control_c, 0, 64, 84
1, 132576, Control_c, 0, 64, 85
1, 132585, Note_on_c, 0, 90, 53
1, 132599, Note_off_c, 0, 89, 0
1, 132616, Note_off_c, 0, 90, 39
1, 132627, Control_c, 0, 64, 80
1, 132642, Control_c, 0, 64, 70
1, 132656, Poly_aftertouch_c, 0, 89, 0
1, 132656, Control_c, 0, 64, 32
1, 132667, Note_on_c, 0, 92, 89
1, 132668, Note_on_c, 0, 71, 106
1, 132671, Control_c, 0, 64, 0
1, 132672, Note_on_c, 0, 64, 85
1, 132674, Note_on_c, 0, 63, 89
1, 132701, Control_c, 0, 64, 62
1, 132713, Note_off_c, 0, 92, 66
1, 132716, Control_c, 0, 64, 71
1, 132726, Note_on_c, 0, 69, 5
1, 132727, Note_off_c, 0, 69, 127
1, 132731, Control_c, 0, 64, 76
1, 132746, Control_c, 0, 64, 79
1, 132767, Note_on_c, 0, 94, 81
1, 132775, Control_c, 0, 64, 80
1, 132790, Control_c, 0, 64, 80
1, 132791, Note_off_c, 0, 94, 66
1, 132805, Control_c, 0, 64, 81
1, 132820, Control_c, 0, 64, 83
1, 132835, Control_c, 0, 64, 85
1, 132844, Note_off_c, 0, 71, 50
1, 132849, Control_c, 0, 64, 87
1, 132861, Note_on_c, 0, 95, 74
1, 132864, Control_c, 0, 64, 87
1, 132877, Note_off_c, 0, 63, 31
1, 132893, Note_off_c, 0, 64, 61
1, 132909, Control_c, 0, 64, 83
1, 132916, Note_off_c, 0, 95, 66
1, 132923, Control_c, 0, 64, 73
1, 132938, Control_c, 0, 64, 0
1, 132951, Note_on_c, 0, 69, 112
1, 132954, Note_on_c, 0, 66, 98
1, 132954, Note_on_c, 0, 84, 87
1, 132958, Note_on_c, 0, 62, 89
1, 132977, Note_on_c, 0, 67, 60
1, 132984, Note_off_c, 0, 67, 50
1, 132997, Control_c, 0, 64, 63
1, 133012, Control_c, 0, 64, 72
1, 133027, Control_c, 0, 64, 77
1, 133041, Control_c, 0, 64, 80
1, 133052, Note_on_c, 0, 86, 72
1, 133054, Note_off_c, 0, 84, 58
1, 133056, Control_c, 0, 64, 81
1, 133069, Note_off_c, 0, 66, 64
1, 133071, Control_c, 0, 64, 83
1, 133074, Note_off_c, 0, 62, 58
1, 133086, Control_c, 0, 64, 85
1, 133101, Control_c, 0, 64, 86
1, 133103, Note_off_c, 0, 69, 60
1, 133115, Control_c, 0, 64, 87
1, 133148, Note_on_c, 0, 88, 67
1, 133161, Note_off_c, 0, 86, 56
1, 133187, Note_off_c, 0, 88, 56
1, 133240, Note_on_c, 0, 89, 66
1, 133264, Control_c, 0, 64, 86
1, 133279, Control_c, 0, 64, 84
1, 133289, Note_off_c, 0, 89, 54
1, 133294, Control_c, 0, 64, 82
1, 133309, Control_c, 0, 64, 78
1, 133323, Control_c, 0, 64, 73
1, 133331, Note_on_c, 0, 70, 57
1, 133335, Note_on_c, 0, 75, 58
1, 133338, Note_on_c, 0, 90, 59
1, 133338, Control_c, 0, 64, 65
1, 133360, Control_c, 0, 64, 48
1, 133376, Control_c, 0, 64, 0
1, 133392, Note_off_c, 0, 90, 53
1, 133437, Note_off_c, 0, 70, 0
1, 133437, Note_on_c, 0, 70, 8
1, 133437, Note_on_c, 0, 92, 57
1, 133477, Note_off_c, 0, 92, 58
1, 133485, Note_off_c, 0, 70, 55
1, 133504, Note_off_c, 0, 75, 47
1, 133525, Note_on_c, 0, 94, 64
1, 133526, Note_on_c, 0, 74, 52
1, 133534, Note_on_c, 0, 79, 54
1, 133553, Note_off_c, 0, 94, 68
1, 133610, Note_on_c, 0, 95, 67
1, 133611, Note_off_c, 0, 74, 58
1, 133644, Note_off_c, 0, 95, 62
1, 133646, Note_off_c, 0, 79, 47
1, 133699, Note_on_c, 0, 84, 67
1, 133714, Note_on_c, 0, 67, 50
1, 133717, Note_on_c, 0, 76, 54
1, 133744, Note_off_c, 0, 76, 60
1, 133756, Note_off_c, 0, 84, 55
1, 133756, Note_off_c, 0, 67, 61
1, 133792, Note_on_c, 0, 86, 64
1, 133836, Note_off_c, 0, 86, 57
1, 133885, Note_on_c, 0, 88, 72
1, 133913, Note_off_c, 0, 88, 66
1, 133971, Note_on_c, 0, 89, 99
1, 133983, Note_on_c, 0, 85, 90
1, 133984, Note_on_c, 0, 65, 76
1, 133998, Control_c, 0, 64, 62
1, 134012, Control_c, 0, 64, 67
1, 134028, Control_c, 0, 64, 69
1, 134043, Control_c, 0, 64, 72
1, 134058, Control_c, 0, 64, 74
1, 134059, Note_off_c, 0, 89, 64
1, 134072, Control_c, 0, 64, 76
1, 134081, Note_off_c, 0, 85, 62
1, 134095, Control_c, 0, 64, 76
1, 134100, Note_on_c, 0, 66, 66
1, 134110, Control_c, 0, 64, 77
1, 134128, Note_off_c, 0, 65, 36
1, 134176, Note_on_c, 0, 87, 98
1, 134177, Note_on_c, 0, 80, 101
1, 134188, Note_on_c, 0, 68, 72
1, 134201, Note_off_c, 0, 66, 57
1, 134259, Control_c, 0, 64, 77
1, 134274, Control_c, 0, 64, 78
1, 134278, Note_off_c, 0, 87, 59
1, 134285, Note_off_c, 0, 80, 63
1, 134289, Control_c, 0, 64, 80
1, 134299, Note_on_c, 0, 70, 69
1, 134303, Control_c, 0, 64, 80
1, 134310, Note_off_c, 0, 68, 54
1, 134333, Control_c, 0, 64, 80
1, 134348, Control_c, 0, 64, 74
1, 134361, Note_off_c, 0, 70, 61
1, 134363, Control_c, 0, 64, 65
1, 134364, Note_on_c, 0, 77, 101
1, 134364, Note_on_c, 0, 85, 100
1, 134377, Control_c, 0, 64, 42
1, 134381, Note_on_c, 0, 71, 73
1, 134387, Note_on_c, 0, 82, 61
1, 134392, Control_c, 0, 64, 53
1, 134407, Control_c, 0, 64, 64
1, 134412, Note_off_c, 0, 82, 53
1, 134421, Control_c, 0, 64, 69
1, 134436, Control_c, 0, 64, 76
1, 134445, Note_off_c, 0, 71, 61
1, 134451, Control_c, 0, 64, 80
1, 134466, Control_c, 0, 64, 80
1, 134469, Note_off_c, 0, 77, 60
1, 134474, Note_on_c, 0, 60, 77
1, 134495, Control_c, 0, 64, 78
1, 134496, Note_off_c, 0, 85, 63
1, 134510, Control_c, 0, 64, 71
1, 134525, Control_c, 0, 64, 55
1, 134540, Control_c, 0, 64, 0
1, 134547, Note_on_c, 0, 89, 104
1, 134549, Note_on_c, 0, 81, 122
1, 134554, Note_on_c, 0, 82, 99
1, 134555, Control_c, 0, 64, 13
1, 134566, Note_on_c, 0, 62, 69
1, 134570, Control_c, 0, 64, 64
1, 134585, Control_c, 0, 64, 72
1, 134600, Control_c, 0, 64, 80
1, 134602, Note_off_c, 0, 60, 52
1, 134605, Note_off_c, 0, 81, 57
1, 134614, Control_c, 0, 64, 86
1, 134621, Note_off_c, 0, 89, 63
1, 134629, Control_c, 0, 64, 89
1, 134637, Note_off_c, 0, 82, 65
1, 134644, Control_c, 0, 64, 92
1, 134659, Control_c, 0, 64, 94
1, 134674, Note_on_c, 0, 64, 69
1, 134674, Control_c, 0, 64, 96
1, 134688, Control_c, 0, 64, 97
1, 134697, Note_off_c, 0, 62, 50
1, 134703, Control_c, 0, 64, 98
1, 134718, Control_c, 0, 64, 99
1, 134738, Note_off_c, 0, 64, 63
1, 134747, Control_c, 0, 64, 99
1, 134790, Note_on_c, 0, 65, 62
1, 134874, Control_c, 0, 64, 97
1, 134889, Control_c, 0, 64, 90
1, 134901, Note_on_c, 0, 83, 111
1, 134903, Control_c, 0, 64, 82
1, 134907, Note_on_c, 0, 76, 105
1, 134913, Note_on_c, 0, 66, 77
1, 134918, Control_c, 0, 64, 76
1, 134919, Note_off_c, 0, 65, 66
1, 134933, Control_c, 0, 64, 75
1, 134937, Note_off_c, 0, 76, 64
1, 134962, Control_c, 0, 64, 77
1, 134978, Control_c, 0, 64, 80
1, 134981, Note_off_c, 0, 83, 52
1, 134993, Control_c, 0, 64, 81
1, 135008, Control_c, 0, 64, 82
1, 135026, Note_on_c, 0, 68, 69
1, 135037, Control_c, 0, 64, 83
1, 135048, Note_off_c, 0, 66, 48
1, 135090, Note_on_c, 0, 87, 103
1, 135091, Note_on_c, 0, 78, 109
1, 135095, Note_on_c, 0, 80, 93
1, 135112, Control_c, 0, 64, 83
1, 135118, Note_on_c, 0, 70, 77
1, 135119, Note_off_c, 0, 68, 63
1, 135160, Note_off_c, 0, 78, 61
1, 135172, Note_off_c, 0, 87, 63
1, 135175, Note_off_c, 0, 80, 63
1, 135189, Note_off_c, 0, 70, 59
1, 135200, Control_c, 0, 64, 84
1, 135210, Note_on_c, 0, 71, 75
1, 135272, Note_off_c, 0, 71, 59
1, 135304, Note_on_c, 0, 60, 80
1, 135304, Control_c, 0, 64, 79
1, 135318, Control_c, 0, 64, 69
1, 135333, Control_c, 0, 64, 0
1, 135381, Note_on_c, 0, 83, 110
1, 135386, Note_on_c, 0, 79, 101
1, 135388, Note_on_c, 0, 77, 95
1, 135404, Note_on_c, 0, 62, 68
1, 135408, Control_c, 0, 64, 62
1, 135422, Control_c, 0, 64, 67
1, 135437, Control_c, 0, 64, 70
1, 135440, Note_off_c, 0, 60, 38
1, 135452, Control_c, 0, 64, 72
1, 135467, Control_c, 0, 64, 73
1, 135471, Note_off_c, 0, 83, 59
1, 135482, Control_c, 0, 64, 75
1, 135482, Note_off_c, 0, 79, 61
1, 135492, Note_off_c, 0, 77, 25
1, 135497, Control_c, 0, 64, 77
1, 135507, Note_on_c, 0, 64, 66
1, 135511, Control_c, 0, 64, 79
1, 135526, Control_c, 0, 64, 82
1, 135540, Note_off_c, 0, 62, 46
1, 135541, Control_c, 0, 64, 85
1, 135556, Control_c, 0, 64, 86
1, 135570, Control_c, 0, 64, 86
1, 135597, Note_off_c, 0, 64, 62
1, 135607, Control_c, 0, 64, 84
1, 135622, Control_c, 0, 64, 77
1, 135627, Note_on_c, 0, 65, 81
1, 135634, Note_on_c, 0, 75, 108
1, 135634, Note_on_c, 0, 84, 99
1, 135637, Control_c, 0, 64, 66
1, 135639, Note_on_c, 0, 80, 90
1, 135652, Control_c, 0, 64, 47
1, 135667, Control_c, 0, 64, 56
1, 135682, Control_c, 0, 64, 66
1, 135697, Control_c, 0, 64, 71
1, 135712, Control_c, 0, 64, 77
1, 135726, Control_c, 0, 64, 79
1, 135726, Note_on_c, 0, 66, 74
1, 135730, Note_off_c, 0, 65, 59
1, 135734, Note_off_c, 0, 84, 60
1, 135741, Control_c, 0, 64, 80
1, 135744, Note_off_c, 0, 75, 55
1, 135765, Note_off_c, 0, 80, 60
1, 135771, Control_c, 0, 64, 80
1, 135786, Control_c, 0, 64, 82
1, 135801, Control_c, 0, 64, 83
1, 135816, Control_c, 0, 64, 84
1, 135831, Control_c, 0, 64, 85
1, 135837, Note_on_c, 0, 68, 66
1, 135846, Control_c, 0, 64, 85
1, 135849, Note_off_c, 0, 66, 52
1, 135875, Control_c, 0, 64, 83
1, 135890, Control_c, 0, 64, 77
1, 135905, Control_c, 0, 64, 66
1, 135920, Control_c, 0, 64, 36
1, 135932, Note_on_c, 0, 81, 113
1, 135935, Control_c, 0, 64, 47
1, 135936, Note_on_c, 0, 77, 99
1, 135937, Note_on_c, 0, 74, 102
1, 135938, Note_on_c, 0, 70, 72
1, 135941, Note_off_c, 0, 68, 62
1, 135949, Control_c, 0, 64, 62
1, 135964, Control_c, 0, 64, 69
1, 135979, Control_c, 0, 64, 74
1, 135993, Control_c, 0, 64, 79
1, 135999, Note_off_c, 0, 70, 62
1, 136008, Control_c, 0, 64, 81
1, 136016, Note_on_c, 0, 71, 73
1, 136023, Control_c, 0, 64, 82
1, 136038, Control_c, 0, 64, 83
1, 136053, Control_c, 0, 64, 84
1, 136058, Note_off_c, 0, 74, 59
1, 136067, Control_c, 0, 64, 88
1, 136073, Note_off_c, 0, 81, 58
1, 136078, Note_off_c, 0, 77, 58
1, 136078, Note_off_c, 0, 71, 59
1, 136082, Control_c, 0, 64, 94
1, 136097, Control_c, 0, 64, 104
1, 136110, Note_on_c, 0, 60, 77
1, 136112, Control_c, 0, 64, 127
1, 136201, Note_on_c, 0, 62, 71
1, 136209, Note_on_c, 0, 79, 107
1, 136212, Note_on_c, 0, 71, 105
1, 136215, Note_on_c, 0, 78, 91
1, 136215, Control_c, 0, 64, 103
1, 136230, Control_c, 0, 64, 79
1, 136242, Note_off_c, 0, 60, 56
1, 136245, Control_c, 0, 64, 25
1, 136260, Control_c, 0, 64, 0
1, 136274, Control_c, 0, 64, 57
1, 136289, Control_c, 0, 64, 73
1, 136299, Note_on_c, 0, 64, 70
1, 136304, Note_off_c, 0, 71, 52
1, 136304, Control_c, 0, 64, 89
1, 136319, Control_c, 0, 64, 113
1, 136341, Control_c, 0, 64, 127
1, 136348, Note_off_c, 0, 79, 58
1, 136350, Note_off_c, 0, 62, 58
1, 136360, Note_off_c, 0, 78, 62
1, 136379, Note_off_c, 0, 64, 63
1, 136400, Control_c, 0, 64, 125
1, 136400, Note_on_c, 0, 65, 85
1, 136404, Note_on_c, 0, 81, 105
1, 136405, Note_on_c, 0, 70, 110
1, 136407, Note_on_c, 0, 74, 97
1, 136415, Control_c, 0, 64, 94
1, 136430, Control_c, 0, 64, 67
1, 136445, Control_c, 0, 64, 0
1, 136461, Note_off_c, 0, 65, 63
1, 136485, Note_on_c, 0, 66, 71
1, 136489, Control_c, 0, 64, 56
1, 136504, Control_c, 0, 64, 76
1, 136507, Note_off_c, 0, 70, 52
1, 136518, Control_c, 0, 64, 89
1, 136528, Note_off_c, 0, 74, 58
1, 136533, Control_c, 0, 64, 101
1, 136548, Control_c, 0, 64, 103
1, 136564, Control_c, 0, 64, 104
1, 136570, Note_on_c, 0, 68, 71
1, 136610, Note_off_c, 0, 66, 64
1, 136648, Note_on_c, 0, 70, 74
1, 136648, Note_off_c, 0, 68, 61
1, 136662, Note_off_c, 0, 81, 51
1, 136667, Note_on_c, 0, 79, 85
1, 136683, Note_on_c, 0, 75, 79
1, 136688, Note_on_c, 0, 73, 72
1, 136716, Note_off_c, 0, 70, 59
1, 136742, Control_c, 0, 64, 104
1, 136743, Note_on_c, 0, 71, 67
1, 136770, Note_off_c, 0, 73, 49
1, 136771, Control_c, 0, 64, 105
1, 136776, Note_off_c, 0, 75, 60
1, 136808, Note_off_c, 0, 71, 60
1, 136812, Note_off_c, 0, 79, 57
1, 136815, Control_c, 0, 64, 104
1, 136830, Control_c, 0, 64, 100
1, 136845, Control_c, 0, 64, 88
1, 136851, Note_on_c, 0, 67, 91
1, 136852, Note_on_c, 0, 68, 100
1, 136860, Control_c, 0, 64, 71
1, 136866, Note_on_c, 0, 72, 92
1, 136875, Control_c, 0, 64, 0
1, 136934, Control_c, 0, 64, 37
1, 136949, Control_c, 0, 64, 63
1, 136964, Control_c, 0, 64, 66
1, 136965, Note_on_c, 0, 74, 75
1, 136967, Note_off_c, 0, 72, 61
1, 136978, Control_c, 0, 64, 69
1, 136993, Control_c, 0, 64, 71
1, 137008, Control_c, 0, 64, 73
1, 137021, Note_off_c, 0, 67, 54
1, 137023, Control_c, 0, 64, 75
1, 137038, Control_c, 0, 64, 75
1, 137053, Control_c, 0, 64, 76
1, 137068, Control_c, 0, 64, 77
1, 137071, Note_on_c, 0, 76, 72
1, 137089, Note_off_c, 0, 74, 49
1, 137089, Control_c, 0, 64, 79
1, 137104, Control_c, 0, 64, 80
1, 137107, Note_off_c, 0, 68, 61
1, 137113, Note_off_c, 0, 76, 65
1, 137134, Control_c, 0, 64, 80
1, 137145, Note_on_c, 0, 61, 100
1, 137148, Control_c, 0, 64, 75
1, 137156, Note_on_c, 0, 77, 90
1, 137163, Control_c, 0, 64, 63
1, 137178, Control_c, 0, 64, 0
1, 137245, Note_off_c, 0, 77, 46
1, 137253, Control_c, 0, 64, 57
1, 137268, Control_c, 0, 64, 65
1, 137270, Note_on_c, 0, 78, 68
1, 137282, Control_c, 0, 64, 67
1, 137297, Control_c, 0, 64, 68
1, 137310, Note_off_c, 0, 78, 65
1, 137312, Control_c, 0, 64, 69
1, 137327, Control_c, 0, 64, 69
1, 137341, Control_c, 0, 64, 71
1, 137356, Control_c, 0, 64, 73
1, 137366, Note_on_c, 0, 80, 73
1, 137372, Control_c, 0, 64, 76
1, 137387, Control_c, 0, 64, 78
1, 137399, Note_off_c, 0, 80, 64
1, 137402, Control_c, 0, 64, 78
1, 137409, Note_off_c, 0, 61, 58
1, 137432, Control_c, 0, 64, 75
1, 137446, Control_c, 0, 64, 65
1, 137453, Note_on_c, 0, 67, 116
1, 137456, Note_on_c, 0, 82, 86
1, 137461, Control_c, 0, 64, 0
1, 137462, Note_on_c, 0, 63, 76
1, 137467, Note_on_c, 0, 62, 80
1, 137488, Note_off_c, 0, 82, 68
1, 137520, Control_c, 0, 64, 30
1, 137535, Control_c, 0, 64, 64
1, 137550, Control_c, 0, 64, 68
1, 137564, Control_c, 0, 64, 71
1, 137568, Note_on_c, 0, 83, 57
1, 137579, Control_c, 0, 64, 73
1, 137594, Control_c, 0, 64, 75
1, 137609, Control_c, 0, 64, 76
1, 137610, Note_off_c, 0, 83, 58
1, 137617, Note_off_c, 0, 62, 54
1, 137624, Control_c, 0, 64, 77
1, 137638, Control_c, 0, 64, 78
1, 137645, Note_off_c, 0, 67, 56
1, 137653, Control_c, 0, 64, 80
1, 137658, Note_on_c, 0, 72, 77
1, 137668, Control_c, 0, 64, 82
1, 137683, Control_c, 0, 64, 84
1, 137690, Note_off_c, 0, 63, 64
1, 137712, Control_c, 0, 64, 83
1, 137727, Control_c, 0, 64, 79
1, 137734, Note_on_c, 0, 65, 107
1, 137741, Note_on_c, 0, 58, 99
1, 137742, Control_c, 0, 64, 68
1, 137756, Note_on_c, 0, 74, 77
1, 137756, Note_off_c, 0, 72, 57
1, 137756, Control_c, 0, 64, 0
1, 137817, Control_c, 0, 64, 61
1, 137839, Control_c, 0, 64, 67
1, 137854, Control_c, 0, 64, 71
1, 137858, Note_off_c, 0, 65, 57
1, 137869, Control_c, 0, 64, 75
1, 137879, Note_off_c, 0, 74, 34
1, 137879, Note_on_c, 0, 76, 68
1, 137884, Control_c, 0, 64, 78
1, 137899, Control_c, 0, 64, 80
1, 137913, Control_c, 0, 64, 82
1, 137928, Note_off_c, 0, 76, 65
1, 137928, Control_c, 0, 64, 85
1, 137943, Control_c, 0, 64, 87
1, 137957, Note_off_c, 0, 58, 58
1, 137958, Control_c, 0, 64, 89
1, 137971, Note_on_c, 0, 77, 76
1, 137972, Control_c, 0, 64, 90
1, 138002, Control_c, 0, 64, 88
1, 138017, Control_c, 0, 64, 80
1, 138032, Control_c, 0, 64, 67
1, 138041, Note_on_c, 0, 66, 117
1, 138043, Note_off_c, 0, 77, 51
1, 138046, Note_on_c, 0, 63, 85
1, 138046, Control_c, 0, 64, 0
1, 138068, Note_on_c, 0, 78, 73
1, 138091, Control_c, 0, 64, 62
1, 138106, Control_c, 0, 64, 69
1, 138120, Control_c, 0, 64, 73
1, 138132, Note_off_c, 0, 78, 62
1, 138135, Control_c, 0, 64, 77
1, 138150, Note_off_c, 0, 63, 61
1, 138150, Control_c, 0, 64, 79
1, 138163, Note_on_c, 0, 80, 75
1, 138166, Control_c, 0, 64, 79
1, 138181, Control_c, 0, 64, 80
1, 138195, Control_c, 0, 64, 81
1, 138210, Control_c, 0, 64, 83
1, 138221, Note_off_c, 0, 66, 57
1, 138225, Control_c, 0, 64, 87
1, 138231, Note_off_c, 0, 80, 53
1, 138240, Control_c, 0, 64, 91
1, 138255, Control_c, 0, 64, 94
1, 138269, Control_c, 0, 64, 96
1, 138273, Note_on_c, 0, 82, 58
1, 138299, Note_off_c, 0, 82, 66
1, 138299, Control_c, 0, 64, 95
1, 138314, Control_c, 0, 64, 93
1, 138326, Note_on_c, 0, 68, 103
1, 138329, Control_c, 0, 64, 83
1, 138332, Note_on_c, 0, 59, 84
1, 138333, Note_on_c, 0, 64, 85
1, 138338, Note_on_c, 0, 61, 78
1, 138344, Control_c, 0, 64, 65
1, 138346, Note_on_c, 0, 83, 76
1, 138359, Control_c, 0, 64, 0
1, 138421, Note_off_c, 0, 83, 58
1, 138433, Control_c, 0, 64, 62
1, 138439, Note_on_c, 0, 72, 74
1, 138448, Control_c, 0, 64, 70
1, 138462, Control_c, 0, 64, 76
1, 138477, Control_c, 0, 64, 78
1, 138484, Note_off_c, 0, 68, 56
1, 138493, Note_off_c, 0, 64, 57
1, 138507, Control_c, 0, 64, 79
1, 138522, Control_c, 0, 64, 79
1, 138528, Note_off_c, 0, 72, 64
1, 138530, Note_on_c, 0, 74, 69
1, 138534, Note_off_c, 0, 61, 54
1, 138536, Control_c, 0, 64, 80
1, 138537, Note_off_c, 0, 59, 56
1, 138566, Control_c, 0, 64, 80
1, 138618, Control_c, 0, 64, 81
1, 138621, Note_on_c, 0, 76, 72
1, 138669, Note_off_c, 0, 76, 65
1, 138678, Note_off_c, 0, 74, 40
1, 138701, Note_on_c, 0, 77, 73
1, 138707, Control_c, 0, 64, 81
1, 138721, Control_c, 0, 64, 82
1, 138735, Note_off_c, 0, 77, 58
1, 138736, Control_c, 0, 64, 82
1, 138751, Control_c, 0, 64, 84
1, 138766, Control_c, 0, 64, 86
1, 138772, Note_on_c, 0, 78, 70
1, 138781, Control_c, 0, 64, 88
1, 138795, Control_c, 0, 64, 89
1, 138806, Note_off_c, 0, 78, 61
1, 138840, Control_c, 0, 64, 89
1, 138855, Note_on_c, 0, 80, 104
1, 138855, Control_c, 0, 64, 81
1, 138858, Note_on_c, 0, 72, 98
1, 138859, Note_on_c, 0, 56, 85
1, 138865, Note_on_c, 0, 77, 80
1, 138868, Note_on_c, 0, 73, 81
1, 138869, Control_c, 0, 64, 67
1, 138884, Control_c, 0, 64, 0
1, 138928, Control_c, 0, 64, 27
1, 138943, Control_c, 0, 64, 65
1, 138946, Note_off_c, 0, 72, 58
1, 138957, Note_off_c, 0, 56, 59
1, 138958, Control_c, 0, 64, 71
1, 138962, Note_on_c, 0, 58, 71
1, 138974, Control_c, 0, 64, 77
1, 138989, Control_c, 0, 64, 80
1, 139004, Note_off_c, 0, 77, 52
1, 139004, Control_c, 0, 64, 81
1, 139027, Note_off_c, 0, 58, 63
1, 139063, Control_c, 0, 64, 83
1, 139070, Note_on_c, 0, 59, 61
1, 139078, Note_off_c, 0, 80, 58
1, 139078, Control_c, 0, 64, 86
1, 139086, Note_off_c, 0, 73, 61
1, 139092, Control_c, 0, 64, 90
1, 139107, Control_c, 0, 64, 93
1, 139122, Control_c, 0, 64, 93
1, 139134, Note_off_c, 0, 59, 60
1, 139137, Control_c, 0, 64, 92
1, 139149, Note_on_c, 0, 68, 103
1, 139151, Note_on_c, 0, 75, 105
1, 139152, Control_c, 0, 64, 86
1, 139163, Note_on_c, 0, 48, 84
1, 139166, Control_c, 0, 64, 73
1, 139181, Control_c, 0, 64, 38
1, 139196, Control_c, 0, 64, 0
1, 139226, Control_c, 0, 64, 55
1, 139241, Control_c, 0, 64, 68
1, 139256, Control_c, 0, 64, 74
1, 139261, Note_on_c, 0, 50, 72
1, 139271, Control_c, 0, 64, 80
1, 139285, Control_c, 0, 64, 82
1, 139292, Note_off_c, 0, 48, 60
1, 139300, Control_c, 0, 64, 83
1, 139315, Control_c, 0, 64, 85
1, 139336, Control_c, 0, 64, 88
1, 139345, Note_off_c, 0, 68, 58
1, 139351, Control_c, 0, 64, 91
1, 139363, Note_off_c, 0, 50, 59
1, 139364, Note_on_c, 0, 52, 67
1, 139366, Control_c, 0, 64, 92
1, 139384, Note_off_c, 0, 75, 60
1, 139411, Control_c, 0, 64, 85
1, 139426, Control_c, 0, 64, 71
1, 139428, Note_off_c, 0, 52, 64
1, 139438, Note_on_c, 0, 80, 105
1, 139439, Note_on_c, 0, 70, 106
1, 139441, Control_c, 0, 64, 0
1, 139444, Note_on_c, 0, 73, 88
1, 139445, Note_on_c, 0, 53, 76
1, 139500, Control_c, 0, 64, 63
1, 139515, Control_c, 0, 64, 69
1, 139526, Note_off_c, 0, 53, 55
1, 139530, Control_c, 0, 64, 72
1, 139536, Note_on_c, 0, 54, 68
1, 139544, Control_c, 0, 64, 74
1, 139565, Note_off_c, 0, 80, 62
1, 139574, Control_c, 0, 64, 74
1, 139589, Control_c, 0, 64, 76
1, 139604, Control_c, 0, 64, 79
1, 139618, Control_c, 0, 64, 82
1, 139625, Note_off_c, 0, 70, 55
1, 139633, Control_c, 0, 64, 84
1, 139645, Note_off_c, 0, 54, 60
1, 139648, Control_c, 0, 64, 84
1, 139649, Note_on_c, 0, 56, 65
1, 139675, Note_off_c, 0, 73, 59
1, 139692, Control_c, 0, 64, 79
1, 139707, Control_c, 0, 64, 66
1, 139722, Note_on_c, 0, 69, 108
1, 139722, Note_on_c, 0, 77, 107
1, 139722, Control_c, 0, 64, 0
1, 139724, Note_on_c, 0, 74, 96
1, 139727, Note_off_c, 0, 56, 64
1, 139737, Note_on_c, 0, 58, 76
1, 139782, Control_c, 0, 64, 51
1, 139786, Note_off_c, 0, 77, 61
1, 139793, Note_off_c, 0, 69, 53
1, 139797, Control_c, 0, 64, 68
1, 139809, Note_off_c, 0, 58, 64
1, 139812, Control_c, 0, 64, 74
1, 139821, Note_off_c, 0, 74, 64
1, 139827, Control_c, 0, 64, 77
1, 139831, Note_on_c, 0, 59, 72
1, 139841, Control_c, 0, 64, 78
1, 139897, Note_off_c, 0, 59, 62
1, 139926, Note_on_c, 0, 48, 76
1, 140010, Note_on_c, 0, 50, 70
1, 140043, Note_off_c, 0, 48, 52
1, 140114, Note_on_c, 0, 52, 69
1, 140173, Note_off_c, 0, 50, 37
1, 140174, Control_c, 0, 64, 79
1, 140198, Note_off_c, 0, 52, 64
1, 140219, Control_c, 0, 64, 78
1, 140231, Note_on_c, 0, 53, 73
1, 140233, Control_c, 0, 64, 72
1, 140234, Note_on_c, 0, 72, 108
1, 140237, Note_on_c, 0, 64, 101
1, 140239, Note_on_c, 0, 69, 93
1, 140248, Control_c, 0, 64, 57
1, 140263, Control_c, 0, 64, 0
1, 140322, Control_c, 0, 64, 63
1, 140328, Note_on_c, 0, 54, 72
1, 140329, Note_off_c, 0, 53, 64
1, 140337, Control_c, 0, 64, 69
1, 140352, Control_c, 0, 64, 74
1, 140366, Control_c, 0, 64, 77
1, 140381, Control_c, 0, 64, 78
1, 140394, Note_off_c, 0, 72, 56
1, 140395, Note_off_c, 0, 64, 55
1, 140407, Note_off_c, 0, 69, 59
1, 140411, Control_c, 0, 64, 79
1, 140424, Note_on_c, 0, 56, 68
1, 140424, Note_off_c, 0, 54, 59
1, 140426, Control_c, 0, 64, 80
1, 140440, Control_c, 0, 64, 81
1, 140455, Control_c, 0, 64, 83
1, 140470, Control_c, 0, 64, 83
1, 140485, Control_c, 0, 64, 83
1, 140500, Control_c, 0, 64, 79
1, 140504, Note_off_c, 0, 56, 61
1, 140513, Note_on_c, 0, 58, 74
1, 140514, Control_c, 0, 64, 70
1, 140527, Note_on_c, 0, 67, 99
1, 140529, Control_c, 0, 64, 48
1, 140532, Note_on_c, 0, 62, 90
1, 140534, Note_on_c, 0, 65, 86
1, 140544, Control_c, 0, 64, 0
1, 140560, Control_c, 0, 64, 48
1, 140571, Note_off_c, 0, 58, 65
1, 140575, Control_c, 0, 64, 64
1, 140589, Control_c, 0, 64, 70
1, 140598, Note_on_c, 0, 59, 70
1, 140604, Control_c, 0, 64, 76
1, 140619, Control_c, 0, 64, 81
1, 140634, Control_c, 0, 64, 82
1, 140638, Note_off_c, 0, 62, 58
1, 140638, Note_off_c, 0, 65, 49
1, 140651, Note_off_c, 0, 67, 59
1, 140678, Note_off_c, 0, 59, 60
1, 140678, Control_c, 0, 64, 81
1, 140693, Control_c, 0, 64, 73
1, 140708, Control_c, 0, 64, 52
1, 140710, Note_on_c, 0, 71, 104
1, 140712, Note_on_c, 0, 64, 110
1, 140716, Note_on_c, 0, 67, 97
1, 140717, Note_on_c, 0, 48, 78
1, 140723, Control_c, 0, 64, 0
1, 140749, Note_on_c, 0, 69, 22
1, 140750, Note_off_c, 0, 69, 127
1, 140782, Control_c, 0, 64, 62
1, 140797, Control_c, 0, 64, 69
1, 140812, Control_c, 0, 64, 74
1, 140827, Note_on_c, 0, 50, 59
1, 140827, Note_off_c, 0, 71, 53
1, 140827, Control_c, 0, 64, 78
1, 140850, Control_c, 0, 64, 80
1, 140864, Control_c, 0, 64, 80
1, 140884, Note_off_c, 0, 48, 37
1, 140909, Control_c, 0, 64, 81
1, 140933, Note_on_c, 0, 52, 64
1, 140934, Note_off_c, 0, 67, 50
1, 140938, Control_c, 0, 64, 82
1, 140952, Note_off_c, 0, 64, 58
1, 140953, Control_c, 0, 64, 84
1, 140968, Control_c, 0, 64, 87
1, 140976, Note_off_c, 0, 50, 34
1, 140982, Control_c, 0, 64, 89
1, 140997, Control_c, 0, 64, 89
1, 141017, Note_off_c, 0, 52, 65
1, 141027, Control_c, 0, 64, 88
1, 141037, Note_on_c, 0, 70, 103
1, 141038, Note_on_c, 0, 62, 107
1, 141040, Note_on_c, 0, 68, 97
1, 141042, Control_c, 0, 64, 79
1, 141044, Note_on_c, 0, 53, 79
1, 141056, Control_c, 0, 64, 65
1, 141071, Control_c, 0, 64, 0
1, 141110, Note_off_c, 0, 53, 59
1, 141116, Control_c, 0, 64, 60
1, 141126, Note_on_c, 0, 54, 68
1, 141131, Control_c, 0, 64, 71
1, 141146, Control_c, 0, 64, 78
1, 141157, Note_off_c, 0, 62, 50
1, 141161, Control_c, 0, 64, 82
1, 141176, Note_off_c, 0, 70, 51
1, 141215, Note_off_c, 0, 68, 56
1, 141232, Note_on_c, 0, 56, 64
1, 141284, Note_off_c, 0, 54, 58
1, 141294, Control_c, 0, 64, 83
1, 141304, Note_off_c, 0, 56, 64
1, 141309, Note_on_c, 0, 62, 5
1, 141316, Note_on_c, 0, 58, 78
1, 141373, Note_off_c, 0, 58, 63
1, 141393, Note_off_c, 0, 62, 51
1, 141413, Control_c, 0, 64, 84
1, 141420, Note_on_c, 0, 59, 68
1, 141428, Control_c, 0, 64, 85
1, 141443, Control_c, 0, 64, 85
1, 141458, Control_c, 0, 64, 86
1, 141466, Note_off_c, 0, 59, 59
1, 141502, Control_c, 0, 64, 84
1, 141514, Note_on_c, 0, 53, 93
1, 141515, Note_on_c, 0, 56, 98
1, 141517, Note_on_c, 0, 51, 83
1, 141517, Control_c, 0, 64, 72
1, 141525, Note_on_c, 0, 60, 94
1, 141532, Control_c, 0, 64, 0
1, 141628, Control_c, 0, 64, 61
1, 141641, Note_on_c, 0, 62, 69
1, 141643, Control_c, 0, 64, 67
1, 141644, Note_off_c, 0, 60, 57
1, 141658, Control_c, 0, 64, 71
1, 141673, Control_c, 0, 64, 74
1, 141687, Control_c, 0, 64, 75
1, 141692, Note_off_c, 0, 53, 56
1, 141702, Control_c, 0, 64, 77
1, 141714, Note_off_c, 0, 62, 51
1, 141717, Control_c, 0, 64, 79
1, 141731, Control_c, 0, 64, 81
1, 141746, Control_c, 0, 64, 84
1, 141758, Note_on_c, 0, 64, 63
1, 141760, Note_off_c, 0, 51, 27
1, 141761, Control_c, 0, 64, 86
1, 141776, Control_c, 0, 64, 88
1, 141790, Note_off_c, 0, 64, 66
1, 141820, Control_c, 0, 64, 85
1, 141825, Note_on_c, 0, 57, 111
1, 141831, Note_on_c, 0, 65, 90
1, 141835, Note_on_c, 0, 50, 90
1, 141835, Control_c, 0, 64, 76
1, 141845, Note_off_c, 0, 56, 64
1, 141850, Control_c, 0, 64, 55
1, 141865, Control_c, 0, 64, 0
1, 141890, Note_off_c, 0, 65, 61
1, 141909, Control_c, 0, 64, 55
1, 141924, Control_c, 0, 64, 68
1, 141939, Control_c, 0, 64, 73
1, 141953, Note_on_c, 0, 66, 65
1, 141954, Control_c, 0, 64, 77
1, 141968, Control_c, 0, 64, 77
1, 142013, Control_c, 0, 64, 78
1, 142015, Note_off_c, 0, 66, 63
1, 142028, Control_c, 0, 64, 80
1, 142033, Note_off_c, 0, 50, 50
1, 142043, Control_c, 0, 64, 83
1, 142044, Note_off_c, 0, 57, 56
1, 142048, Note_on_c, 0, 68, 67
1, 142058, Control_c, 0, 64, 85
1, 142073, Control_c, 0, 64, 86
1, 142087, Control_c, 0, 64, 87
1, 142089, Note_off_c, 0, 68, 62
1, 142102, Control_c, 0, 64, 86
1, 142117, Control_c, 0, 64, 84
1, 142131, Control_c, 0, 64, 76
1, 142133, Note_on_c, 0, 55, 114
1, 142137, Note_on_c, 0, 70, 85
1, 142139, Note_on_c, 0, 51, 90
1, 142142, Note_on_c, 0, 48, 87
1, 142146, Control_c, 0, 64, 57
1, 142162, Control_c, 0, 64, 0
1, 142190, Note_off_c, 0, 70, 64
1, 142207, Control_c, 0, 64, 50
1, 142222, Control_c, 0, 64, 68
1, 142235, Note_off_c, 0, 55, 56
1, 142236, Control_c, 0, 64, 75
1, 142246, Note_off_c, 0, 51, 60
1, 142251, Note_on_c, 0, 71, 68
1, 142251, Control_c, 0, 64, 81
1, 142261, Note_off_c, 0, 48, 63
1, 142266, Control_c, 0, 64, 82
1, 142281, Control_c, 0, 64, 83
1, 142298, Note_off_c, 0, 71, 60
1, 142362, Control_c, 0, 64, 83
1, 142364, Note_on_c, 0, 60, 70
1, 142377, Control_c, 0, 64, 84
1, 142392, Control_c, 0, 64, 85
1, 142407, Control_c, 0, 64, 85
1, 142441, Note_off_c, 0, 60, 57
1, 142451, Control_c, 0, 64, 83
1, 142466, Control_c, 0, 64, 74
1, 142469, Note_on_c, 0, 62, 67
1, 142472, Note_on_c, 0, 50, 108
1, 142480, Note_on_c, 0, 43, 93
1, 142481, Control_c, 0, 64, 0
1, 142505, Note_on_c, 0, 48, 44
1, 142506, Note_off_c, 0, 48, 127
1, 142569, Control_c, 0, 64, 29
1, 142583, Note_off_c, 0, 62, 35
1, 142584, Control_c, 0, 64, 63
1, 142586, Note_on_c, 0, 64, 57
1, 142599, Control_c, 0, 64, 66
1, 142614, Control_c, 0, 64, 68
1, 142628, Control_c, 0, 64, 72
1, 142629, Note_off_c, 0, 64, 64
1, 142643, Control_c, 0, 64, 76
1, 142658, Control_c, 0, 64, 81
1, 142673, Control_c, 0, 64, 83
1, 142688, Note_on_c, 0, 65, 69
1, 142717, Control_c, 0, 64, 83
1, 142741, Note_off_c, 0, 50, 52
1, 142748, Note_off_c, 0, 65, 50
1, 142773, Note_off_c, 0, 43, 51
1, 142791, Control_c, 0, 64, 84
1, 142794, Note_on_c, 0, 66, 63
1, 142806, Control_c, 0, 64, 85
1, 142815, Note_off_c, 0, 66, 67
1, 142821, Control_c, 0, 64, 86
1, 142836, Control_c, 0, 64, 86
1, 142866, Control_c, 0, 64, 86
1, 142877, Note_on_c, 0, 68, 85
1, 142881, Control_c, 0, 64, 80
1, 142884, Note_on_c, 0, 53, 110
1, 142887, Note_on_c, 0, 46, 97
1, 142887, Note_on_c, 0, 49, 101
1, 142896, Control_c, 0, 64, 65
1, 142910, Control_c, 0, 64, 0
1, 142916, Note_off_c, 0, 68, 61
1, 142985, Note_on_c, 0, 70, 69
1, 142985, Control_c, 0, 64, 58
1, 143000, Control_c, 0, 64, 68
1, 143013, Control_c, 0, 64, 72
1, 143024, Note_off_c, 0, 70, 61
1, 143028, Control_c, 0, 64, 74
1, 143043, Control_c, 0, 64, 75
1, 143057, Control_c, 0, 64, 75
1, 143080, Control_c, 0, 64, 76
1, 143080, Note_off_c, 0, 49, 52
1, 143095, Control_c, 0, 64, 78
1, 143109, Note_off_c, 0, 53, 56
1, 143110, Control_c, 0, 64, 80
1, 143110, Note_on_c, 0, 71, 45
1, 143125, Control_c, 0, 64, 82
1, 143139, Control_c, 0, 64, 84
1, 143140, Note_off_c, 0, 46, 60
1, 143154, Control_c, 0, 64, 84
1, 143183, Control_c, 0, 64, 84
1, 143197, Note_on_c, 0, 52, 107
1, 143198, Control_c, 0, 64, 77
1, 143204, Note_off_c, 0, 71, 52
1, 143206, Note_on_c, 0, 48, 99
1, 143208, Note_on_c, 0, 41, 94
1, 143208, Note_on_c, 0, 60, 89
1, 143213, Control_c, 0, 64, 63
1, 143228, Control_c, 0, 64, 0
1, 143276, Note_off_c, 0, 48, 59
1, 143287, Control_c, 0, 64, 52
1, 143302, Control_c, 0, 64, 66
1, 143303, Note_off_c, 0, 41, 65
1, 143316, Note_on_c, 0, 62, 72
1, 143317, Control_c, 0, 64, 70
1, 143331, Control_c, 0, 64, 73
1, 143337, Note_off_c, 0, 60, 27
1, 143346, Control_c, 0, 64, 76
1, 143361, Control_c, 0, 64, 78
1, 143375, Control_c, 0, 64, 79
1, 143381, Note_off_c, 0, 52, 58
1, 143390, Control_c, 0, 64, 81
1, 143405, Control_c, 0, 64, 82
1, 143415, Note_off_c, 0, 62, 42
1, 143420, Control_c, 0, 64, 84
1, 143426, Note_on_c, 0, 64, 60
1, 143435, Control_c, 0, 64, 88
1, 143450, Control_c, 0, 64, 89
1, 143462, Note_off_c, 0, 64, 65
1, 143495, Control_c, 0, 64, 86
1, 143498, Note_on_c, 0, 46, 100
1, 143503, Note_on_c, 0, 43, 92
1, 143503, Note_on_c, 0, 65, 91
1, 143507, Note_on_c, 0, 38, 79
1, 143509, Control_c, 0, 64, 76
1, 143524, Control_c, 0, 64, 0
1, 143567, Note_off_c, 0, 65, 60
1, 143583, Control_c, 0, 64, 39
1, 143598, Control_c, 0, 64, 65
1, 143613, Control_c, 0, 64, 70
1, 143619, Note_on_c, 0, 66, 72
1, 143619, Note_off_c, 0, 38, 58
1, 143624, Note_off_c, 0, 46, 61
1, 143628, Control_c, 0, 64, 74
1, 143632, Note_off_c, 0, 43, 59
1, 143643, Control_c, 0, 64, 76
1, 143657, Control_c, 0, 64, 77
1, 143660, Note_off_c, 0, 66, 65
1, 143672, Control_c, 0, 64, 78
1, 143687, Control_c, 0, 64, 79
1, 143701, Control_c, 0, 64, 80
1, 143704, Note_on_c, 0, 68, 75
1, 143716, Control_c, 0, 64, 81
1, 143731, Control_c, 0, 64, 82
1, 143745, Note_off_c, 0, 68, 61
1, 143747, Control_c, 0, 64, 82
1, 143778, Control_c, 0, 64, 83
1, 143793, Control_c, 0, 64, 83
1, 143807, Control_c, 0, 64, 84
1, 143811, Note_on_c, 0, 70, 70
1, 143838, Note_off_c, 0, 70, 66
1, 143874, Control_c, 0, 64, 82
1, 143888, Control_c, 0, 64, 73
1, 143903, Control_c, 0, 64, 29
1, 143906, Note_on_c, 0, 71, 79
1, 143907, Note_on_c, 0, 42, 100
1, 143909, Note_on_c, 0, 39, 88
1, 143918, Control_c, 0, 64, 0
1, 143950, Note_off_c, 0, 71, 59
1, 143978, Control_c, 0, 64, 41
1, 143979, Note_on_c, 0, 60, 73
1, 143993, Control_c, 0, 64, 67
1, 144007, Control_c, 0, 64, 74
1, 144022, Control_c, 0, 64, 77
1, 144037, Control_c, 0, 64, 79
1, 144048, Note_off_c, 0, 39, 52
1, 144052, Control_c, 0, 64, 79
1, 144061, Note_off_c, 0, 42, 61
1, 144067, Control_c, 0, 64, 80
1, 144081, Control_c, 0, 64, 81
1, 144086, Note_off_c, 0, 60, 57
1, 144090, Note_on_c, 0, 62, 64
1, 144111, Control_c, 0, 64, 82
1, 144125, Control_c, 0, 64, 82
1, 144140, Control_c, 0, 64, 83
1, 144170, Control_c, 0, 64, 83
1, 144185, Control_c, 0, 64, 84
1, 144192, Note_off_c, 0, 62, 48
1, 144195, Note_on_c, 0, 64, 62
1, 144199, Control_c, 0, 64, 86
1, 144214, Control_c, 0, 64, 87
1, 144229, Note_off_c, 0, 64, 65
1, 144259, Control_c, 0, 64, 86
1, 144273, Control_c, 0, 64, 78
1, 144283, Note_on_c, 0, 46, 110
1, 144286, Note_on_c, 0, 44, 96
1, 144286, Note_on_c, 0, 65, 83
1, 144288, Control_c, 0, 64, 57
1, 144291, Note_on_c, 0, 37, 82
1, 144303, Control_c, 0, 64, 0
1, 144352, Note_off_c, 0, 65, 56
1, 144362, Control_c, 0, 64, 37
1, 144377, Control_c, 0, 64, 66
1, 144392, Control_c, 0, 64, 72
1, 144407, Note_on_c, 0, 66, 67
1, 144407, Control_c, 0, 64, 76
1, 144422, Control_c, 0, 64, 78
1, 144431, Note_off_c, 0, 44, 62
1, 144437, Control_c, 0, 64, 80
1, 144445, Note_off_c, 0, 37, 62
1, 144452, Control_c, 0, 64, 81
1, 144461, Note_off_c, 0, 46, 52
1, 144466, Note_off_c, 0, 66, 64
1, 144466, Control_c, 0, 64, 83
1, 144481, Control_c, 0, 64, 83
1, 144493, Note_on_c, 0, 68, 66
1, 144496, Control_c, 0, 64, 84
1, 144525, Control_c, 0, 64, 84
1, 144528, Note_off_c, 0, 68, 64
1, 144571, Control_c, 0, 64, 85
1, 144593, Control_c, 0, 64, 85
1, 144597, Note_on_c, 0, 70, 72
1, 144608, Control_c, 0, 64, 86
1, 144623, Control_c, 0, 64, 88
1, 144624, Note_off_c, 0, 70, 67
1, 144637, Control_c, 0, 64, 88
1, 144667, Control_c, 0, 64, 88
1, 144682, Control_c, 0, 64, 83
1, 144693, Note_on_c, 0, 71, 77
1, 144697, Control_c, 0, 64, 70
1, 144700, Note_on_c, 0, 47, 106
1, 144701, Note_on_c, 0, 42, 102
1, 144704, Note_on_c, 0, 35, 92
1, 144711, Control_c, 0, 64, 0
1, 144742, Note_off_c, 0, 71, 60
1, 144776, Note_on_c, 0, 60, 74
1, 144785, Control_c, 0, 64, 50
1, 144800, Control_c, 0, 64, 66
1, 144815, Control_c, 0, 64, 72
1, 144830, Control_c, 0, 64, 76
1, 144845, Control_c, 0, 64, 77
1, 144860, Control_c, 0, 64, 77
1, 144867, Note_off_c, 0, 60, 56
1, 144875, Control_c, 0, 64, 78
1, 144878, Note_on_c, 0, 62, 61
1, 144890, Control_c, 0, 64, 79
1, 144904, Control_c, 0, 64, 80
1, 144919, Control_c, 0, 64, 81
1, 144930, Note_off_c, 0, 62, 49
1, 144934, Control_c, 0, 64, 81
1, 144941, Note_off_c, 0, 42, 42
1, 144963, Control_c, 0, 64, 82
1, 144967, Note_off_c, 0, 35, 37
1, 144973, Note_on_c, 0, 64, 54
1, 144997, Note_off_c, 0, 64, 61
1, 145021, Note_off_c, 0, 47, 50
1, 145037, Control_c, 0, 64, 82
1, 145052, Note_on_c, 0, 65, 69
1, 145052, Control_c, 0, 64, 83
1, 145067, Control_c, 0, 64, 84
1, 145082, Control_c, 0, 64, 85
1, 145096, Control_c, 0, 64, 86
1, 145107, Note_off_c, 0, 65, 54
1, 145155, Control_c, 0, 64, 82
1, 145158, Note_on_c, 0, 45, 112
1, 145166, Note_on_c, 0, 38, 96
1, 145167, Note_on_c, 0, 36, 96
1, 145167, Note_on_c, 0, 66, 74
1, 145170, Control_c, 0, 64, 71
1, 145185, Control_c, 0, 64, 0
1, 145199, Note_off_c, 0, 66, 67
1, 145257, Note_on_c, 0, 68, 65
1, 145259, Control_c, 0, 64, 61
1, 145274, Control_c, 0, 64, 72
1, 145289, Control_c, 0, 64, 80
1, 145289, Note_off_c, 0, 68, 65
1, 145304, Control_c, 0, 64, 83
1, 145328, Note_off_c, 0, 38, 60
1, 145334, Note_off_c, 0, 45, 58
1, 145338, Note_off_c, 0, 36, 61
1, 145357, Control_c, 0, 64, 83
1, 145366, Note_on_c, 0, 70, 69
1, 145372, Control_c, 0, 64, 84
1, 145391, Note_off_c, 0, 70, 68
1, 145455, Note_on_c, 0, 71, 70
1, 145514, Note_off_c, 0, 71, 61
1, 145520, Control_c, 0, 64, 84
1, 145549, Control_c, 0, 64, 85
1, 145564, Note_on_c, 0, 60, 79
1, 145593, Control_c, 0, 64, 84
1, 145608, Control_c, 0, 64, 80
1, 145611, Note_on_c, 0, 34, 101
1, 145611, Note_on_c, 0, 41, 105
1, 145611, Note_on_c, 0, 43, 105
1, 145623, Control_c, 0, 64, 68
1, 145638, Control_c, 0, 64, 0
1, 145659, Note_on_c, 0, 62, 75
1, 145664, Note_off_c, 0, 60, 50
1, 145727, Control_c, 0, 64, 66
1, 145730, Note_off_c, 0, 62, 57
1, 145742, Control_c, 0, 64, 75
1, 145757, Control_c, 0, 64, 81
1, 145771, Control_c, 0, 64, 83
1, 145781, Note_on_c, 0, 64, 67
1, 145801, Control_c, 0, 64, 83
1, 145809, Note_off_c, 0, 41, 49
1, 145818, Note_off_c, 0, 43, 59
1, 145818, Note_off_c, 0, 64, 63
1, 145832, Note_off_c, 0, 34, 51
1, 145867, Note_on_c, 0, 65, 74
1, 145928, Note_off_c, 0, 65, 50
1, 145969, Note_on_c, 0, 66, 63
1, 146003, Note_off_c, 0, 66, 67
1, 146061, Note_on_c, 0, 68, 66
1, 146090, Control_c, 0, 64, 84
1, 146112, Note_off_c, 0, 68, 60
1, 146119, Control_c, 0, 64, 84
1, 146134, Control_c, 0, 64, 85
1, 146150, Control_c, 0, 64, 85
1, 146173, Note_on_c, 0, 70, 73
1, 146195, Control_c, 0, 64, 85
1, 146196, Note_off_c, 0, 70, 68
1, 146209, Control_c, 0, 64, 79
1, 146213, Note_on_c, 0, 42, 112
1, 146219, Note_on_c, 0, 31, 100
1, 146222, Note_on_c, 0, 38, 93
1, 146224, Control_c, 0, 64, 65
1, 146230, Note_on_c, 0, 37, 53
1, 146231, Note_off_c, 0, 37, 127
1, 146239, Control_c, 0, 64, 0
1, 146251, Note_on_c, 0, 71, 77
1, 146324, Note_off_c, 0, 71, 59
1, 146355, Note_on_c, 0, 60, 73
1, 146357, Control_c, 0, 64, 58
1, 146372, Control_c, 0, 64, 72
1, 146387, Control_c, 0, 64, 80
1, 146390, Note_off_c, 0, 38, 59
1, 146401, Control_c, 0, 64, 84
1, 146413, Note_off_c, 0, 60, 47
1, 146419, Note_off_c, 0, 42, 57
1, 146436, Note_off_c, 0, 31, 54
1, 146449, Note_on_c, 0, 62, 68
1, 146485, Note_off_c, 0, 62, 57
1, 146559, Note_on_c, 0, 64, 51
1, 146581, Note_off_c, 0, 64, 56
1, 146631, Note_on_c, 0, 65, 73
1, 146639, Control_c, 0, 64, 84
1, 146673, Note_off_c, 0, 65, 58
1, 146731, Note_on_c, 0, 66, 66
1, 146742, Control_c, 0, 64, 85
1, 146757, Note_off_c, 0, 66, 67
1, 146801, Control_c, 0, 64, 85
1, 146823, Control_c, 0, 64, 86
1, 146838, Control_c, 0, 64, 88
1, 146839, Note_on_c, 0, 68, 70
1, 146853, Control_c, 0, 64, 89
1, 146865, Note_off_c, 0, 68, 65
1, 146868, Control_c, 0, 64, 90
1, 146919, Note_on_c, 0, 40, 109
1, 146923, Note_on_c, 0, 28, 98
1, 146923, Note_on_c, 0, 34, 96
1, 146926, Note_on_c, 0, 70, 81
1, 146926, Control_c, 0, 64, 86
1, 146941, Control_c, 0, 64, 75
1, 146947, Note_off_c, 0, 70, 72
1, 146957, Control_c, 0, 64, 40
1, 146972, Control_c, 0, 64, 0
1, 147021, Note_on_c, 0, 71, 77
1, 147075, Note_off_c, 0, 71, 58
1, 147091, Control_c, 0, 64, 32
1, 147105, Control_c, 0, 64, 68
1, 147112, Note_on_c, 0, 60, 69
1, 147120, Control_c, 0, 64, 71
1, 147130, Note_off_c, 0, 40, 55
1, 147135, Control_c, 0, 64, 73
1, 147149, Note_off_c, 0, 28, 57
1, 147149, Control_c, 0, 64, 73
1, 147157, Note_off_c, 0, 60, 52
1, 147164, Control_c, 0, 64, 75
1, 147179, Control_c, 0, 64, 77
1, 147191, Note_off_c, 0, 34, 52
1, 147194, Control_c, 0, 64, 78
1, 147199, Note_on_c, 0, 62, 65
1, 147209, Control_c, 0, 64, 79
1, 147224, Control_c, 0, 64, 80
1, 147239, Control_c, 0, 64, 81
1, 147243, Note_off_c, 0, 62, 54
1, 147254, Control_c, 0, 64, 82
1, 147269, Control_c, 0, 64, 83
1, 147283, Control_c, 0, 64, 84
1, 147298, Control_c, 0, 64, 85
1, 147300, Note_on_c, 0, 64, 58
1, 147313, Control_c, 0, 64, 85
1, 147323, Note_off_c, 0, 64, 65
1, 147328, Control_c, 0, 64, 86
1, 147343, Control_c, 0, 64, 86
1, 147357, Control_c, 0, 64, 87
1, 147386, Note_on_c, 0, 65, 68
1, 147387, Control_c, 0, 64, 87
1, 147440, Note_off_c, 0, 65, 53
1, 147446, Control_c, 0, 64, 88
1, 147489, Note_on_c, 0, 66, 61
1, 147522, Note_off_c, 0, 66, 68
1, 147536, Control_c, 0, 64, 88
1, 147550, Control_c, 0, 64, 89
1, 147573, Control_c, 0, 64, 90
1, 147587, Control_c, 0, 64, 93
1, 147600, Note_on_c, 0, 68, 65
1, 147602, Control_c, 0, 64, 96
1, 147617, Control_c, 0, 64, 100
1, 147629, Note_off_c, 0, 68, 68
1, 147632, Control_c, 0, 64, 102
1, 147665, Note_on_c, 0, 37, 113
1, 147668, Note_on_c, 0, 27, 104
1, 147676, Control_c, 0, 64, 101
1, 147677, Note_on_c, 0, 70, 89
1, 147691, Control_c, 0, 64, 94
1, 147706, Control_c, 0, 64, 79
1, 147713, Note_off_c, 0, 70, 66
1, 147721, Control_c, 0, 64, 36
1, 147736, Control_c, 0, 64, 0
1, 147772, Note_on_c, 0, 71, 79
1, 147826, Control_c, 0, 64, 51
1, 147829, Note_off_c, 0, 71, 60
1, 147841, Control_c, 0, 64, 67
1, 147855, Control_c, 0, 64, 68
1, 147862, Note_on_c, 0, 60, 75
1, 147870, Control_c, 0, 64, 70
1, 147885, Control_c, 0, 64, 72
1, 147900, Control_c, 0, 64, 76
1, 147915, Control_c, 0, 64, 79
1, 147921, Note_off_c, 0, 60, 46
1, 147929, Control_c, 0, 64, 81
1, 147940, Note_off_c, 0, 27, 53
1, 147944, Control_c, 0, 64, 81
1, 147950, Note_on_c, 0, 62, 67
1, 147970, Note_off_c, 0, 37, 51
1, 147973, Control_c, 0, 64, 82
1, 147995, Note_off_c, 0, 62, 52
1, 148003, Control_c, 0, 64, 82
1, 148018, Control_c, 0, 64, 83
1, 148033, Control_c, 0, 64, 83
1, 148047, Note_on_c, 0, 64, 60
1, 148062, Control_c, 0, 64, 84
1, 148067, Note_off_c, 0, 64, 65
1, 148092, Control_c, 0, 64, 84
1, 148128, Note_on_c, 0, 65, 73
1, 148164, Note_off_c, 0, 65, 62
1, 148219, Note_on_c, 0, 66, 69
1, 148243, Note_off_c, 0, 66, 68
1, 148255, Control_c, 0, 64, 85
1, 148322, Note_on_c, 0, 68, 73
1, 148336, Control_c, 0, 64, 85
1, 148353, Note_off_c, 0, 68, 65
1, 148366, Control_c, 0, 64, 86
1, 148380, Control_c, 0, 64, 86
1, 148395, Control_c, 0, 64, 87
1, 148410, Control_c, 0, 64, 89
1, 148420, Note_on_c, 0, 70, 75
1, 148425, Control_c, 0, 64, 92
1, 148440, Control_c, 0, 64, 94
1, 148443, Note_off_c, 0, 70, 67
1, 148455, Control_c, 0, 64, 95
1, 148470, Control_c, 0, 64, 96
1, 148492, Note_on_c, 0, 36, 117
1, 148494, Note_on_c, 0, 30, 106
1, 148494, Note_on_c, 0, 24, 102
1, 148496, Note_on_c, 0, 71, 83
1, 148499, Control_c, 0, 64, 95
1, 148514, Control_c, 0, 64, 92
1, 148529, Control_c, 0, 64, 81
1, 148544, Control_c, 0, 64, 59
1, 148557, Note_off_c, 0, 71, 58
1, 148559, Control_c, 0, 64, 0
1, 148586, Note_on_c, 0, 60, 85
1, 148635, Note_off_c, 0, 60, 59
1, 148664, Control_c, 0, 64, 53
1, 148673, Note_on_c, 0, 62, 74
1, 148678, Control_c, 0, 64, 79
1, 148693, Control_c, 0, 64, 86
1, 148708, Control_c, 0, 64, 87
1, 148722, Control_c, 0, 64, 88
1, 148726, Note_off_c, 0, 62, 55
1, 148737, Control_c, 0, 64, 89
1, 148752, Control_c, 0, 64, 90
1, 148755, Note_off_c, 0, 36, 59
1, 148767, Control_c, 0, 64, 91
1, 148771, Note_on_c, 0, 64, 51
1, 148780, Note_off_c, 0, 30, 46
1, 148792, Note_off_c, 0, 64, 58
1, 148796, Control_c, 0, 64, 91
1, 148800, Note_off_c, 0, 24, 57
1, 148826, Control_c, 0, 64, 92
1, 148854, Note_on_c, 0, 65, 57
1, 148856, Control_c, 0, 64, 92
1, 148874, Note_off_c, 0, 65, 63
1, 148885, Control_c, 0, 64, 93
1, 148941, Note_on_c, 0, 66, 60
1, 148974, Note_off_c, 0, 66, 67
1, 148974, Control_c, 0, 64, 93
1, 149016, Note_on_c, 0, 68, 72
1, 149047, Note_off_c, 0, 68, 65
1, 149115, Control_c, 0, 64, 94
1, 149125, Note_on_c, 0, 70, 71
1, 149158, Note_off_c, 0, 70, 63
1, 149214, Note_on_c, 0, 71, 70
1, 149218, Control_c, 0, 64, 94
1, 149271, Note_off_c, 0, 71, 60
1, 149278, Control_c, 0, 64, 95
1, 149293, Control_c, 0, 64, 95
1, 149303, Note_on_c, 0, 60, 77
1, 149307, Control_c, 0, 64, 97
1, 149322, Control_c, 0, 64, 100
1, 149337, Control_c, 0, 64, 105
1, 149352, Control_c, 0, 64, 114
1, 149367, Control_c, 0, 64, 127
1, 149389, Note_on_c, 0, 62, 83
1, 149396, Note_off_c, 0, 60, 60
1, 149413, Note_on_c, 0, 32, 115
1, 149417, Note_on_c, 0, 23, 102
1, 149427, Control_c, 0, 64, 121
1, 149427, Note_on_c, 0, 29, 70
1, 149442, Control_c, 0, 64, 105
1, 149444, Note_on_c, 0, 22, 52
1, 149457, Control_c, 0, 64, 82
1, 149471, Control_c, 0, 64, 0
1, 149480, Note_off_c, 0, 22, 57
1, 149483, Note_on_c, 0, 64, 73
1, 149498, Note_off_c, 0, 62, 60
1, 149522, Note_off_c, 0, 64, 64
1, 149576, Note_on_c, 0, 65, 81
1, 149590, Control_c, 0, 64, 65
1, 149605, Control_c, 0, 64, 78
1, 149619, Control_c, 0, 64, 83
1, 149627, Note_off_c, 0, 29, 52
1, 149634, Control_c, 0, 64, 87
1, 149641, Note_off_c, 0, 23, 61
1, 149649, Control_c, 0, 64, 91
1, 149664, Control_c, 0, 64, 97
1, 149675, Note_off_c, 0, 32, 60
1, 149679, Control_c, 0, 64, 105
1, 149693, Control_c, 0, 64, 117
1, 149706, Note_off_c, 0, 65, 56
1, 149708, Control_c, 0, 64, 127
1, 149710, Note_on_c, 0, 66, 65
1, 149808, Note_on_c, 0, 68, 63
1, 149851, Note_off_c, 0, 68, 62
1, 149904, Note_off_c, 0, 66, 37
1, 149921, Note_on_c, 0, 70, 61
1, 149948, Note_off_c, 0, 70, 65
1, 150020, Note_on_c, 0, 71, 45
1, 150043, Note_off_c, 0, 71, 59
1, 150056, Control_c, 0, 64, 112
1, 150071, Control_c, 0, 64, 101
1, 150085, Control_c, 0, 64, 90
1, 150094, Note_on_c, 0, 60, 84
1, 150098, Note_on_c, 0, 48, 71
1, 150100, Control_c, 0, 64, 77
1, 150115, Control_c, 0, 64, 63
1, 150130, Control_c, 0, 64, 0
1, 150151, Note_off_c, 0, 60, 59
1, 150154, Note_off_c, 0, 48, 55
1, 150198, Note_on_c, 0, 62, 62
1, 150211, Note_on_c, 0, 50, 44
1, 150235, Control_c, 0, 67, 8
1, 150244, Note_off_c, 0, 62, 53
1, 150249, Control_c, 0, 67, 9
1, 150258, Note_off_c, 0, 50, 59
1, 150285, Note_on_c, 0, 52, 51
1, 150291, Note_on_c, 0, 64, 58
1, 150320, Note_off_c, 0, 64, 66
1, 150322, Note_off_c, 0, 52, 66
1, 150339, Control_c, 0, 67, 8
1, 150361, Note_on_c, 0, 53, 59
1, 150366, Note_on_c, 0, 65, 77
1, 150401, Note_off_c, 0, 53, 60
1, 150413, Note_off_c, 0, 65, 61
1, 150442, Control_c, 0, 67, 8
1, 150452, Note_on_c, 0, 54, 56
1, 150458, Note_on_c, 0, 66, 69
1, 150485, Note_off_c, 0, 66, 69
1, 150490, Note_off_c, 0, 54, 60
1, 150536, Note_on_c, 0, 56, 68
1, 150536, Note_on_c, 0, 68, 85
1, 150580, Note_off_c, 0, 68, 63
1, 150590, Note_off_c, 0, 56, 58
1, 150637, Note_on_c, 0, 58, 69
1, 150640, Note_on_c, 0, 70, 79
1, 150642, Control_c, 0, 67, 0
1, 150663, Note_off_c, 0, 70, 70
1, 150664, Note_off_c, 0, 58, 67
1, 150728, Note_on_c, 0, 71, 70
1, 150753, Note_off_c, 0, 71, 68
1, 150816, Note_on_c, 0, 36, 82
1, 150893, Control_c, 0, 67, 8
1, 150908, Note_on_c, 0, 50, 66
1, 150923, Control_c, 0, 67, 9
1, 150929, Note_on_c, 0, 38, 58
1, 150931, Note_off_c, 0, 36, 56
1, 150947, Note_off_c, 0, 50, 61
1, 150954, Control_c, 0, 67, 10
1, 150969, Control_c, 0, 67, 10
1, 150998, Control_c, 0, 67, 11
1, 151003, Note_on_c, 0, 52, 72
1, 151012, Note_on_c, 0, 40, 64
1, 151013, Control_c, 0, 67, 11
1, 151028, Control_c, 0, 67, 12
1, 151032, Note_off_c, 0, 38, 56
1, 151032, Note_off_c, 0, 52, 68
1, 151043, Control_c, 0, 67, 11
1, 151058, Control_c, 0, 67, 10
1, 151061, Note_off_c, 0, 40, 63
1, 151072, Control_c, 0, 67, 8
1, 151077, Note_on_c, 0, 53, 91
1, 151084, Note_on_c, 0, 41, 78
1, 151087, Control_c, 0, 67, 0
1, 151135, Note_off_c, 0, 53, 62
1, 151136, Note_off_c, 0, 41, 63
1, 151167, Note_on_c, 0, 54, 80
1, 151174, Note_on_c, 0, 42, 67
1, 151203, Note_off_c, 0, 54, 65
1, 151210, Note_off_c, 0, 42, 63
1, 151247, Note_on_c, 0, 56, 99
1, 151251, Note_on_c, 0, 44, 92
1, 151296, Note_off_c, 0, 56, 64
1, 151318, Note_off_c, 0, 44, 64
1, 151349, Note_on_c, 0, 58, 79
1, 151355, Note_on_c, 0, 46, 87
1, 151388, Note_off_c, 0, 46, 66
1, 151396, Note_off_c, 0, 58, 67
1, 151460, Note_on_c, 0, 59, 82
1, 151492, Note_off_c, 0, 59, 63
1, 151551, Note_on_c, 0, 24, 105
1, 151653, Note_on_c, 0, 26, 67
1, 151661, Note_on_c, 0, 38, 72
1, 151682, Note_off_c, 0, 24, 60
1, 151714, Note_off_c, 0, 38, 57
1, 151755, Note_on_c, 0, 28, 67
1, 151770, Note_on_c, 0, 40, 69
1, 151785, Note_off_c, 0, 26, 62
1, 151802, Note_off_c, 0, 40, 65
1, 151804, Note_off_c, 0, 28, 61
1, 151826, Note_on_c, 0, 29, 89
1, 151829, Note_on_c, 0, 41, 103
1, 151877, Note_off_c, 0, 29, 64
1, 151895, Note_off_c, 0, 41, 62
1, 151924, Note_on_c, 0, 30, 69
1, 151929, Note_on_c, 0, 42, 81
1, 151955, Note_off_c, 0, 30, 66
1, 151962, Note_off_c, 0, 42, 67
1, 152005, Note_on_c, 0, 32, 97
1, 152008, Note_on_c, 0, 44, 96
1, 152092, Note_off_c, 0, 32, 56
1, 152096, Note_off_c, 0, 44, 0
1, 152105, Note_on_c, 0, 46, 67
1, 152110, Note_on_c, 0, 34, 82
1, 152127, Poly_aftertouch_c, 0, 44, 0
1, 152161, Note_off_c, 0, 46, 65
1, 152190, Note_off_c, 0, 34, 60
1, 152215, Note_on_c, 0, 35, 67
1, 152217, Note_on_c, 0, 47, 82
1, 152235, Note_off_c, 0, 47, 68
1, 152258, Note_off_c, 0, 35, 65
1, 152295, Note_on_c, 0, 24, 111
1, 152403, Note_on_c, 0, 26, 72
1, 152459, Note_off_c, 0, 24, 59
1, 152495, Note_on_c, 0, 28, 73
1, 152534, Note_off_c, 0, 26, 61
1, 152546, Note_off_c, 0, 28, 61
1, 152575, Note_on_c, 0, 29, 94
1, 152634, Note_off_c, 0, 29, 62
1, 152669, Note_on_c, 0, 30, 77
1, 152699, Note_off_c, 0, 30, 66
1, 152757, Note_on_c, 0, 33, 90
1, 152779, Note_on_c, 0, 32, 39
1, 152792, Control_c, 0, 67, 12
1, 152815, Control_c, 0, 67, 32
1, 152825, Note_off_c, 0, 32, 31
1, 152830, Control_c, 0, 67, 59
1, 152840, Note_off_c, 0, 33, 59
1, 152844, Control_c, 0, 67, 88
1, 152859, Control_c, 0, 67, 115
1, 152861, Note_on_c, 0, 34, 72
1, 152874, Control_c, 0, 67, 127
1, 152941, Note_off_c, 0, 34, 63
1, 152994, Note_on_c, 0, 35, 42
1, 153032, Note_off_c, 0, 35, 61
1, 153093, Note_on_c, 0, 84, 66
1, 153094, Note_on_c, 0, 80, 62
1, 153106, Note_on_c, 0, 24, 42
1, 153117, Note_off_c, 0, 80, 62
1, 153122, Note_off_c, 0, 84, 64
1, 153162, Note_off_c, 0, 24, 56
1, 153183, Note_on_c, 0, 82, 65
1, 153221, Note_on_c, 0, 75, 11
1, 153242, Note_off_c, 0, 75, 41
1, 153249, Note_off_c, 0, 82, 59
1, 153267, Note_on_c, 0, 28, 42
1, 153269, Note_on_c, 0, 84, 56
1, 153281, Note_on_c, 0, 80, 25
1, 153306, Note_off_c, 0, 28, 60
1, 153347, Note_off_c, 0, 84, 34
1, 153350, Note_off_c, 0, 80, 36
1, 153357, Note_on_c, 0, 29, 41
1, 153362, Note_on_c, 0, 82, 57
1, 153373, Note_on_c, 0, 75, 36
1, 153393, Control_c, 0, 64, 50
1, 153408, Control_c, 0, 64, 62
1, 153412, Note_off_c, 0, 29, 44
1, 153423, Control_c, 0, 64, 66
1, 153438, Control_c, 0, 64, 70
1, 153453, Control_c, 0, 64, 74
1, 153457, Note_on_c, 0, 30, 42
1, 153467, Control_c, 0, 64, 77
1, 153472, Note_off_c, 0, 82, 62
1, 153482, Control_c, 0, 64, 77
1, 153488, Note_off_c, 0, 75, 54
1, 153509, Note_off_c, 0, 30, 44
1, 153511, Control_c, 0, 64, 77
1, 153526, Control_c, 0, 64, 75
1, 153541, Control_c, 0, 64, 72
1, 153549, Note_on_c, 0, 32, 52
1, 153553, Note_on_c, 0, 83, 72
1, 153564, Control_c, 0, 64, 68
1, 153572, Note_on_c, 0, 87, 55
1, 153579, Control_c, 0, 64, 57
1, 153591, Note_off_c, 0, 87, 56
1, 153593, Control_c, 0, 64, 0
1, 153598, Note_off_c, 0, 83, 59
1, 153602, Note_off_c, 0, 32, 58
1, 153654, Note_on_c, 0, 85, 68
1, 153655, Note_on_c, 0, 78, 72
1, 153660, Note_on_c, 0, 34, 45
1, 153684, Note_off_c, 0, 78, 62
1, 153704, Note_off_c, 0, 34, 62
1, 153717, Note_off_c, 0, 85, 43
1, 153735, Note_on_c, 0, 83, 51
1, 153740, Note_on_c, 0, 75, 55
1, 153749, Note_on_c, 0, 35, 57
1, 153755, Note_off_c, 0, 83, 59
1, 153776, Note_off_c, 0, 35, 61
1, 153781, Note_off_c, 0, 75, 64
1, 153845, Note_on_c, 0, 81, 75
1, 153852, Note_on_c, 0, 36, 54
1, 153856, Note_on_c, 0, 74, 54
1, 153863, Note_on_c, 0, 78, 48
1, 153889, Control_c, 0, 64, 42
1, 153904, Control_c, 0, 64, 63
1, 153913, Note_off_c, 0, 74, 0
1, 153919, Control_c, 0, 64, 68
1, 153926, Note_off_c, 0, 36, 53
1, 153926, Note_off_c, 0, 78, 0
1, 153934, Control_c, 0, 64, 72
1, 153935, Note_on_c, 0, 74, 31
1, 153947, Note_on_c, 0, 78, 27
1, 153949, Note_on_c, 0, 38, 46
1, 153949, Control_c, 0, 64, 78
1, 153964, Control_c, 0, 64, 81
1, 153979, Control_c, 0, 64, 82
1, 153993, Control_c, 0, 64, 83
1, 154008, Control_c, 0, 64, 85
1, 154016, Note_off_c, 0, 81, 53
1, 154023, Control_c, 0, 64, 86
1, 154038, Control_c, 0, 64, 87
1, 154040, Note_on_c, 0, 40, 47
1, 154050, Note_off_c, 0, 78, 58
1, 154068, Note_off_c, 0, 38, 34
1, 154078, Note_off_c, 0, 74, 65
1, 154096, Note_off_c, 0, 40, 59
1, 154111, Control_c, 0, 64, 87
1, 154126, Control_c, 0, 64, 84
1, 154137, Note_on_c, 0, 41, 65
1, 154140, Note_on_c, 0, 77, 68
1, 154142, Control_c, 0, 64, 78
1, 154157, Control_c, 0, 64, 71
1, 154172, Control_c, 0, 64, 58
1, 154187, Control_c, 0, 64, 0
1, 154187, Note_off_c, 0, 77, 50
1, 154205, Note_off_c, 0, 41, 48
1, 154226, Note_on_c, 0, 75, 77
1, 154239, Note_on_c, 0, 68, 70
1, 154241, Note_on_c, 0, 42, 49
1, 154277, Note_off_c, 0, 68, 56
1, 154303, Note_off_c, 0, 42, 56
1, 154316, Note_off_c, 0, 75, 61
1, 154321, Note_on_c, 0, 65, 74
1, 154323, Note_on_c, 0, 73, 77
1, 154347, Note_off_c, 0, 65, 71
1, 154359, Note_on_c, 0, 44, 39
1, 154362, Note_off_c, 0, 73, 54
1, 154405, Note_off_c, 0, 44, 58
1, 154418, Note_on_c, 0, 68, 72
1, 154420, Note_on_c, 0, 75, 79
1, 154435, Note_on_c, 0, 46, 55
1, 154458, Note_off_c, 0, 68, 58
1, 154464, Note_off_c, 0, 75, 57
1, 154476, Note_off_c, 0, 46, 64
1, 154507, Note_on_c, 0, 73, 77
1, 154511, Note_on_c, 0, 47, 66
1, 154542, Note_off_c, 0, 47, 65
1, 154548, Note_off_c, 0, 73, 61
1, 154599, Note_on_c, 0, 75, 71
1, 154602, Note_on_c, 0, 68, 65
1, 154617, Note_on_c, 0, 48, 54
1, 154645, Note_off_c, 0, 75, 55
1, 154652, Note_off_c, 0, 68, 64
1, 154689, Note_on_c, 0, 78, 76
1, 154691, Note_on_c, 0, 69, 71
1, 154695, Note_off_c, 0, 48, 57
1, 154698, Control_c, 0, 64, 51
1, 154699, Note_on_c, 0, 71, 54
1, 154713, Control_c, 0, 64, 61
1, 154724, Note_on_c, 0, 50, 42
1, 154728, Control_c, 0, 64, 65
1, 154742, Control_c, 0, 64, 70
1, 154757, Control_c, 0, 64, 75
1, 154768, Note_off_c, 0, 69, 61
1, 154772, Control_c, 0, 64, 80
1, 154787, Control_c, 0, 64, 82
1, 154790, Note_off_c, 0, 50, 48
1, 154799, Note_off_c, 0, 71, 60
1, 154804, Note_on_c, 0, 52, 42
1, 154811, Note_off_c, 0, 78, 54
1, 154831, Control_c, 0, 64, 80
1, 154846, Control_c, 0, 64, 75
1, 154847, Note_off_c, 0, 52, 53
1, 154861, Control_c, 0, 64, 64
1, 154876, Control_c, 0, 64, 0
1, 154885, Note_on_c, 0, 77, 75
1, 154898, Note_on_c, 0, 53, 46
1, 154903, Note_on_c, 0, 68, 58
1, 154904, Note_on_c, 0, 72, 58
1, 154906, Control_c, 0, 64, 57
1, 154921, Control_c, 0, 64, 66
1, 154936, Control_c, 0, 64, 70
1, 154951, Control_c, 0, 64, 75
1, 154965, Control_c, 0, 64, 80
1, 154980, Control_c, 0, 64, 81
1, 154991, Note_off_c, 0, 72, 61
1, 154996, Note_on_c, 0, 54, 55
1, 154998, Note_off_c, 0, 53, 47
1, 155001, Note_off_c, 0, 77, 59
1, 155021, Note_off_c, 0, 68, 63
1, 155038, Control_c, 0, 64, 81
1, 155061, Control_c, 0, 64, 78
1, 155075, Note_off_c, 0, 54, 47
1, 155076, Control_c, 0, 64, 73
1, 155090, Note_on_c, 0, 74, 69
1, 155090, Control_c, 0, 64, 64
1, 155094, Note_on_c, 0, 56, 54
1, 155099, Note_on_c, 0, 70, 63
1, 155105, Control_c, 0, 64, 0
1, 155131, Note_off_c, 0, 70, 62
1, 155153, Note_off_c, 0, 56, 54
1, 155173, Note_on_c, 0, 65, 63
1, 155174, Note_on_c, 0, 72, 77
1, 155176, Note_off_c, 0, 74, 37
1, 155201, Note_off_c, 0, 65, 65
1, 155203, Note_on_c, 0, 58, 51
1, 155244, Note_off_c, 0, 58, 65
1, 155266, Note_on_c, 0, 70, 65
1, 155275, Note_on_c, 0, 74, 68
1, 155276, Note_off_c, 0, 72, 58
1, 155288, Note_on_c, 0, 59, 61
1, 155315, Note_off_c, 0, 70, 57
1, 155320, Note_off_c, 0, 59, 63
1, 155338, Note_off_c, 0, 74, 61
1, 155359, Note_on_c, 0, 75, 65
1, 155375, Note_on_c, 0, 66, 50
1, 155397, Note_on_c, 0, 60, 52
1, 155445, Control_c, 0, 64, 18
1, 155460, Control_c, 0, 64, 65
1, 155475, Control_c, 0, 64, 71
1, 155479, Note_off_c, 0, 60, 54
1, 155490, Control_c, 0, 64, 78
1, 155491, Note_on_c, 0, 62, 52
1, 155493, Note_off_c, 0, 66, 58
1, 155505, Control_c, 0, 64, 81
1, 155520, Control_c, 0, 64, 82
1, 155535, Control_c, 0, 64, 82
1, 155552, Note_off_c, 0, 75, 61
1, 155581, Note_off_c, 0, 62, 43
1, 155585, Note_on_c, 0, 64, 49
1, 155634, Note_off_c, 0, 64, 60
1, 155668, Control_c, 0, 64, 82
1, 155682, Control_c, 0, 64, 79
1, 155684, Note_on_c, 0, 65, 57
1, 155697, Control_c, 0, 64, 74
1, 155712, Control_c, 0, 64, 67
1, 155727, Control_c, 0, 64, 39
1, 155737, Note_off_c, 0, 65, 50
1, 155743, Control_c, 0, 64, 0
1, 155752, Note_on_c, 0, 88, 81
1, 155759, Note_on_c, 0, 84, 68
1, 155779, Note_on_c, 0, 66, 57
1, 155791, Note_off_c, 0, 84, 62
1, 155814, Note_off_c, 0, 88, 58
1, 155849, Note_off_c, 0, 66, 48
1, 155853, Note_on_c, 0, 86, 64
1, 155864, Note_on_c, 0, 79, 50
1, 155886, Note_on_c, 0, 68, 49
1, 155893, Note_off_c, 0, 86, 56
1, 155895, Note_off_c, 0, 79, 55
1, 155935, Note_off_c, 0, 68, 52
1, 155937, Note_on_c, 0, 88, 68
1, 155946, Note_on_c, 0, 84, 52
1, 155973, Note_on_c, 0, 70, 46
1, 155979, Note_off_c, 0, 84, 52
1, 155996, Note_off_c, 0, 88, 56
1, 156026, Note_off_c, 0, 70, 60
1, 156038, Note_on_c, 0, 86, 57
1, 156052, Note_on_c, 0, 79, 39
1, 156062, Note_on_c, 0, 71, 47
1, 156076, Control_c, 0, 64, 18
1, 156091, Control_c, 0, 64, 62
1, 156101, Note_off_c, 0, 71, 63
1, 156105, Control_c, 0, 64, 69
1, 156120, Control_c, 0, 64, 74
1, 156135, Control_c, 0, 64, 78
1, 156150, Control_c, 0, 64, 81
1, 156160, Note_on_c, 0, 72, 52
1, 156165, Control_c, 0, 64, 82
1, 156179, Control_c, 0, 64, 84
1, 156194, Control_c, 0, 64, 85
1, 156196, Note_off_c, 0, 86, 58
1, 156209, Control_c, 0, 64, 86
1, 156213, Note_off_c, 0, 72, 57
1, 156252, Note_on_c, 0, 74, 61
1, 156265, Note_off_c, 0, 79, 56
1, 156268, Control_c, 0, 64, 83
1, 156271, Note_off_c, 0, 74, 67
1, 156283, Control_c, 0, 64, 79
1, 156298, Control_c, 0, 64, 71
1, 156313, Control_c, 0, 64, 54
1, 156327, Control_c, 0, 64, 0
1, 156342, Note_on_c, 0, 70, 63
1, 156342, Note_on_c, 0, 76, 63
1, 156344, Note_on_c, 0, 73, 72
1, 156365, Note_off_c, 0, 76, 59
1, 156373, Note_off_c, 0, 70, 65
1, 156381, Note_off_c, 0, 73, 60
1, 156417, Note_on_c, 0, 77, 53
1, 156437, Note_on_c, 0, 71, 66
1, 156485, Note_off_c, 0, 77, 57
1, 156503, Note_off_c, 0, 71, 56
1, 156521, Note_on_c, 0, 65, 51
1, 156527, Note_on_c, 0, 78, 66
1, 156530, Note_on_c, 0, 72, 61
1, 156560, Note_off_c, 0, 78, 68
1, 156574, Note_off_c, 0, 65, 60
1, 156578, Note_off_c, 0, 72, 62
1, 156616, Note_on_c, 0, 69, 75
1, 156624, Note_on_c, 0, 80, 70
1, 156639, Note_off_c, 0, 69, 71
1, 156651, Note_off_c, 0, 80, 65
1, 156709, Note_on_c, 0, 82, 75
1, 156713, Note_on_c, 0, 67, 68
1, 156727, Note_on_c, 0, 63, 66
1, 156730, Note_off_c, 0, 82, 70
1, 156742, Note_off_c, 0, 67, 65
1, 156767, Note_off_c, 0, 63, 60
1, 156798, Note_on_c, 0, 83, 71
1, 156818, Note_on_c, 0, 65, 47
1, 156822, Note_off_c, 0, 83, 64
1, 156838, Note_on_c, 0, 58, 54
1, 156842, Note_off_c, 0, 65, 58
1, 156861, Note_off_c, 0, 58, 63
1, 156888, Note_on_c, 0, 84, 80
1, 156905, Note_on_c, 0, 64, 67
1, 156942, Note_off_c, 0, 64, 62
1, 156947, Note_off_c, 0, 84, 58
1, 156974, Note_on_c, 0, 55, 60
1, 156981, Note_on_c, 0, 86, 71
1, 157036, Note_off_c, 0, 86, 51
1, 157037, Note_off_c, 0, 55, 59
1, 157070, Note_on_c, 0, 63, 61
1, 157077, Note_on_c, 0, 88, 68
1, 157079, Note_on_c, 0, 60, 42
1, 157091, Note_off_c, 0, 63, 65
1, 157102, Note_off_c, 0, 88, 67
1, 157106, Note_off_c, 0, 60, 55
1, 157156, Note_on_c, 0, 62, 79
1, 157159, Note_on_c, 0, 89, 80
1, 157160, Note_on_c, 0, 56, 72
1, 157204, Note_off_c, 0, 62, 58
1, 157207, Note_off_c, 0, 89, 61
1, 157241, Note_off_c, 0, 56, 54
1, 157251, Note_on_c, 0, 90, 69
1, 157257, Note_on_c, 0, 60, 62
1, 157276, Note_off_c, 0, 90, 68
1, 157350, Note_on_c, 0, 92, 76
1, 157354, Note_off_c, 0, 60, 57
1, 157356, Note_on_c, 0, 53, 69
1, 157386, Note_off_c, 0, 92, 60
1, 157421, Note_off_c, 0, 53, 63
1, 157442, Note_on_c, 0, 57, 55
1, 157445, Note_on_c, 0, 61, 71
1, 157450, Note_on_c, 0, 94, 76
1, 157471, Note_off_c, 0, 94, 72
1, 157482, Note_off_c, 0, 61, 57
1, 157506, Note_off_c, 0, 57, 53
1, 157520, Note_on_c, 0, 52, 68
1, 157535, Note_on_c, 0, 95, 77
1, 157571, Note_off_c, 0, 95, 62
1, 157602, Note_off_c, 0, 52, 64
1, 157612, Note_on_c, 0, 61, 63
1, 157627, Note_on_c, 0, 96, 83
1, 157640, Note_on_c, 0, 57, 35
1, 157657, Note_off_c, 0, 61, 58
1, 157672, Note_off_c, 0, 57, 53
1, 157699, Note_on_c, 0, 55, 57
1, 157702, Note_off_c, 0, 96, 46
1, 157714, Note_on_c, 0, 98, 77
1, 157717, Note_on_c, 0, 62, 60
1, 157722, Control_c, 0, 64, 62
1, 157737, Control_c, 0, 64, 67
1, 157750, Note_off_c, 0, 62, 62
1, 157752, Control_c, 0, 64, 72
1, 157766, Control_c, 0, 64, 77
1, 157770, Note_off_c, 0, 55, 62
1, 157781, Control_c, 0, 64, 83
1, 157796, Control_c, 0, 64, 86
1, 157811, Control_c, 0, 64, 89
1, 157815, Note_on_c, 0, 100, 70
1, 157821, Note_off_c, 0, 98, 0
1, 157825, Control_c, 0, 64, 90
1, 157846, Poly_aftertouch_c, 0, 98, 0
1, 157853, Note_off_c, 0, 100, 63
1, 157855, Control_c, 0, 64, 90
1, 157870, Control_c, 0, 64, 86
1, 157884, Control_c, 0, 64, 77
1, 157899, Control_c, 0, 64, 69
1, 157913, Note_on_c, 0, 48, 58
1, 157913, Note_on_c, 0, 101, 79
1, 157914, Control_c, 0, 64, 66
1, 157929, Control_c, 0, 64, 70
1, 157944, Control_c, 0, 64, 75
1, 157945, Note_off_c, 0, 48, 57
1, 157958, Control_c, 0, 64, 80
1, 157973, Control_c, 0, 64, 83
1, 157988, Control_c, 0, 64, 84
1, 157997, Note_off_c, 0, 101, 38
1, 158009, Note_on_c, 0, 102, 61
1, 158084, Control_c, 0, 64, 83
1, 158091, Note_on_c, 0, 56, 77
1, 158099, Note_on_c, 0, 104, 75
1, 158099, Control_c, 0, 64, 82
1, 158101, Note_on_c, 0, 52, 62
1, 158114, Control_c, 0, 64, 78
1, 158119, Note_off_c, 0, 56, 64
1, 158130, Control_c, 0, 64, 72
1, 158131, Note_off_c, 0, 52, 68
1, 158140, Note_off_c, 0, 104, 63
1, 158143, Note_off_c, 0, 102, 36
1, 158145, Control_c, 0, 64, 63
1, 158160, Control_c, 0, 64, 0
1, 158187, Note_on_c, 0, 106, 82
1, 158191, Note_on_c, 0, 54, 72
1, 158192, Note_on_c, 0, 45, 77
1, 158217, Note_off_c, 0, 54, 65
1, 158222, Note_off_c, 0, 45, 66
1, 158226, Note_off_c, 0, 106, 65
1, 158283, Note_on_c, 0, 52, 73
1, 158283, Note_on_c, 0, 107, 76
1, 158308, Note_on_c, 0, 44, 39
1, 158310, Note_off_c, 0, 52, 69
1, 158323, Note_off_c, 0, 107, 61
1, 158342, Note_off_c, 0, 44, 48
1, 158388, Note_on_c, 0, 108, 73
1, 158398, Note_on_c, 0, 54, 62
1, 158399, Note_on_c, 0, 48, 55
1, 158459, Note_off_c, 0, 108, 57
1, 158767, Note_off_c, 0, 54, 50
1, 158773, Note_off_c, 0, 48, 41
1, 158792, Note_on_c, 0, 45, 44
1, 158792, Note_on_c, 0, 53, 48
1, 159219, Control_c, 0, 64, 13
1, 159234, Control_c, 0, 64, 36
1, 159249, Control_c, 0, 64, 47
1, 159264, Control_c, 0, 64, 55
1, 159279, Control_c, 0, 64, 60
1, 159293, Control_c, 0, 64, 63
1, 159308, Control_c, 0, 64, 66
1, 159323, Control_c, 0, 64, 69
1, 159338, Control_c, 0, 64, 72
1, 159353, Control_c, 0, 64, 76
1, 159368, Control_c, 0, 64, 79
1, 159383, Control_c, 0, 64, 80
1, 159398, Control_c, 0, 64, 81
1, 159412, Control_c, 0, 64, 81
1, 159427, Control_c, 0, 64, 82
1, 159456, Control_c, 0, 64, 82
1, 159501, Control_c, 0, 64, 83
1, 159681, Note_off_c, 0, 45, 40
1, 159716, Control_c, 0, 64, 82
1, 159718, Note_on_c, 0, 48, 49
1, 159725, Note_off_c, 0, 53, 40
1, 159728, Note_on_c, 0, 43, 46
1, 159732, Control_c, 0, 64, 80
1, 159747, Control_c, 0, 64, 77
1, 159761, Control_c, 0, 64, 72
1, 159776, Control_c, 0, 64, 64
1, 159791, Control_c, 0, 64, 10
1, 159806, Control_c, 0, 64, 0
1, 160280, Control_c, 0, 64, 30
1, 160302, Control_c, 0, 64, 38
1, 160317, Control_c, 0, 64, 43
1, 160332, Control_c, 0, 64, 47
1, 160347, Control_c, 0, 64, 51
1, 160361, Control_c, 0, 64, 53
1, 160376, Control_c, 0, 64, 56
1, 160391, Control_c, 0, 64, 57
1, 160406, Control_c, 0, 64, 59
1, 160421, Control_c, 0, 64, 60
1, 160435, Control_c, 0, 64, 60
1, 160450, Control_c, 0, 64, 61
1, 160465, Control_c, 0, 64, 61
1, 160480, Control_c, 0, 64, 62
1, 160510, Control_c, 0, 64, 62
1, 160540, Control_c, 0, 64, 63
1, 160555, Control_c, 0, 64, 63
1, 160584, Control_c, 0, 64, 64
1, 160599, Control_c, 0, 64, 65
1, 160614, Control_c, 0, 64, 65
1, 160629, Control_c, 0, 64, 66
1, 160644, Control_c, 0, 64, 67
1, 160659, Control_c, 0, 64, 69
1, 160674, Control_c, 0, 64, 70
1, 160689, Control_c, 0, 64, 71
1, 160703, Control_c, 0, 64, 72
1, 160718, Control_c, 0, 64, 74
1, 160733, Control_c, 0, 64, 76
1, 160748, Control_c, 0, 64, 79
1, 160763, Control_c, 0, 64, 81
1, 160777, Control_c, 0, 64, 83
1, 160792, Control_c, 0, 64, 85
1, 160807, Control_c, 0, 64, 87
1, 160822, Control_c, 0, 64, 89
1, 160837, Control_c, 0, 64, 92
1, 160851, Control_c, 0, 64, 95
1, 160866, Control_c, 0, 64, 97
1, 160881, Control_c, 0, 64, 99
1, 160895, Control_c, 0, 64, 101
1, 160910, Control_c, 0, 64, 104
1, 160925, Control_c, 0, 64, 106
1, 160940, Control_c, 0, 64, 108
1, 160955, Control_c, 0, 64, 109
1, 160969, Control_c, 0, 64, 110
1, 160984, Control_c, 0, 64, 112
1, 160999, Control_c, 0, 64, 113
1, 161007, Note_off_c, 0, 43, 33
1, 161013, Control_c, 0, 64, 114
1, 161028, Control_c, 0, 64, 116
1, 161050, Control_c, 0, 64, 117
1, 161065, Control_c, 0, 64, 118
1, 161080, Control_c, 0, 64, 119
1, 161095, Control_c, 0, 64, 120
1, 161109, Control_c, 0, 64, 121
1, 161124, Control_c, 0, 64, 123
1, 161139, Control_c, 0, 64, 125
1, 161154, Control_c, 0, 64, 127
1, 161165, Note_off_c, 0, 48, 36
1, 161947, Note_on_c, 0, 46, 30
1, 161952, Note_on_c, 0, 38, 25
1, 161962, Control_c, 0, 64, 126
1, 161977, Control_c, 0, 64, 119
1, 161992, Control_c, 0, 64, 114
1, 162006, Control_c, 0, 64, 109
1, 162021, Control_c, 0, 64, 105
1, 162036, Control_c, 0, 64, 100
1, 162051, Control_c, 0, 64, 95
1, 162066, Control_c, 0, 64, 88
1, 162081, Control_c, 0, 64, 81
1, 162096, Control_c, 0, 64, 72
1, 162110, Control_c, 0, 64, 63
1, 162126, Control_c, 0, 64, 0
1, 164469, Note_off_c, 0, 38, 29
1, 164478, Note_off_c, 0, 46, 34
1, 164478, End_track
0, 0, End_of_file
