0, 0, Header, 0, 1, 384
1, 0, Start_track
1, 0, Title_t, "Rhaps. Espagnole--Nansong Huang    "
1, 0, Text_t, "2008 e-Piano Junior Competition virtual audition round"
1, 0, Text_t, "recorded January and February 2008"
1, 0, Text_t, "http://www.piano-e-competition.com/"
1, 0, Text_t, "File processed for distribution by software from Zenph Studios, Inc., http://www.zenph.com"
1, 0, Instrument_name_t, "Yamaha Disklavier Pro Mark IV concert grand piano, model DCFIIISM4PRO"
1, 0, Sequencer_specific, 39, 67, 113, 0, 1, 0, 1, 0, 82, 104, 97, 112, 115, 46, 32, 69, 115, 112, 97, 103, 110, 111, 108, 101, 78, 97, 110, 115, 111, 110, 103, 32, 72, 117, 97, 110, 103, 32, 32, 32
1, 0, Sequencer_specific, 6, 67, 113, 0, 0, 0, 69
1, 0, System_exclusive, 21, 67, 113, 126, 21, 0, 2, 2, 0, 13, 12, 15, 4, 7, 9, 7, 3, 9, 1, 14, 5, 247
1, 0, Sequencer_specific, 5, 67, 123, 12, 2, 1
1, 0, Tempo, 512820
1, 0, Time_signature, 4, 2, 24, 8
1, 0, System_exclusive, 5, 126, 127, 9, 1, 247
1, 1, System_exclusive, 8, 67, 16, 76, 0, 0, 126, 0, 247
1, 2, System_exclusive, 8, 67, 16, 76, 8, 9, 7, 1, 247
1, 3, Control_c, 0, 0, 0
1, 3, Control_c, 1, 0, 0
1, 3, Control_c, 2, 0, 0
1, 3, Control_c, 3, 0, 0
1, 3, Control_c, 4, 0, 0
1, 3, Control_c, 5, 0, 0
1, 3, Control_c, 6, 0, 0
1, 3, Control_c, 7, 0, 0
1, 3, Control_c, 8, 0, 0
1, 3, Control_c, 9, 0, 127
1, 3, Control_c, 10, 0, 0
1, 3, Control_c, 11, 0, 0
1, 3, Control_c, 12, 0, 0
1, 3, Control_c, 13, 0, 0
1, 3, Control_c, 14, 0, 0
1, 3, Control_c, 15, 0, 0
1, 4, Control_c, 0, 32, 0
1, 4, Control_c, 1, 32, 0
1, 4, Control_c, 2, 32, 0
1, 4, Control_c, 3, 32, 0
1, 4, Control_c, 4, 32, 0
1, 4, Control_c, 5, 32, 0
1, 4, Control_c, 6, 32, 0
1, 4, Control_c, 7, 32, 0
1, 4, Control_c, 8, 32, 0
1, 4, Control_c, 9, 32, 0
1, 4, Control_c, 10, 32, 0
1, 4, Control_c, 11, 32, 0
1, 4, Control_c, 12, 32, 0
1, 4, Control_c, 13, 32, 0
1, 4, Control_c, 14, 32, 0
1, 4, Control_c, 15, 32, 0
1, 5, Program_c, 0, 0
1, 5, Program_c, 1, 0
1, 5, Program_c, 2, 0
1, 5, Program_c, 3, 0
1, 5, Program_c, 4, 0
1, 5, Program_c, 5, 0
1, 5, Program_c, 6, 0
1, 5, Program_c, 7, 0
1, 5, Program_c, 8, 0
1, 5, Program_c, 9, 0
1, 5, Program_c, 10, 0
1, 5, Program_c, 11, 0
1, 5, Program_c, 12, 0
1, 5, Program_c, 13, 0
1, 5, Program_c, 14, 0
1, 5, Program_c, 15, 0
1, 6, Control_c, 0, 7, 100
1, 117, Control_c, 0, 64, 15
1, 229, Control_c, 0, 64, 31
1, 341, Control_c, 0, 64, 46
1, 452, Control_c, 0, 64, 63
1, 564, Control_c, 0, 64, 77
1, 676, Control_c, 0, 64, 94
1, 787, Control_c, 0, 64, 108
1, 899, Control_c, 0, 64, 127
1, 899, Control_c, 1, 7, 100
1, 899, Control_c, 2, 7, 100
1, 899, Control_c, 3, 7, 100
1, 899, Control_c, 4, 7, 100
1, 899, Control_c, 5, 7, 100
1, 899, Control_c, 6, 7, 100
1, 899, Control_c, 7, 7, 100
1, 899, Control_c, 8, 7, 100
1, 899, Control_c, 9, 7, 100
1, 899, Control_c, 10, 7, 100
1, 899, Control_c, 11, 7, 100
1, 899, Control_c, 12, 7, 100
1, 899, Control_c, 13, 7, 100
1, 899, Control_c, 14, 7, 100
1, 899, Control_c, 15, 7, 100
1, 1128, Note_on_c, 0, 69, 96
1, 1128, Note_on_c, 0, 81, 103
1, 1129, Note_on_c, 0, 64, 89
1, 1129, Note_on_c, 0, 73, 89
1, 1130, Note_on_c, 0, 61, 85
1, 1132, Note_on_c, 0, 76, 85
1, 1134, Note_on_c, 0, 54, 79
1, 1159, Note_off_c, 0, 69, 64
1, 1162, Note_off_c, 0, 64, 63
1, 1167, Note_off_c, 0, 81, 67
1, 1174, Note_off_c, 0, 54, 62
1, 1174, Note_off_c, 0, 76, 66
1, 1176, Note_off_c, 0, 73, 65
1, 1180, Note_off_c, 0, 61, 62
1, 2072, Note_on_c, 0, 30, 74
1, 2074, Note_on_c, 0, 57, 86
1, 2077, Note_on_c, 0, 49, 85
1, 2080, Note_on_c, 0, 52, 81
1, 2115, Control_c, 0, 64, 97
1, 2130, Control_c, 0, 64, 75
1, 2145, Control_c, 0, 64, 20
1, 2158, Control_c, 0, 64, 0
1, 2232, Control_c, 0, 64, 33
1, 2247, Control_c, 0, 64, 48
1, 2262, Control_c, 0, 64, 56
1, 2277, Control_c, 0, 64, 63
1, 2292, Control_c, 0, 64, 66
1, 2307, Control_c, 0, 64, 69
1, 2322, Control_c, 0, 64, 75
1, 2326, Note_off_c, 0, 30, 60
1, 2337, Control_c, 0, 64, 81
1, 2351, Control_c, 0, 64, 85
1, 2364, Note_on_c, 0, 33, 45
1, 2366, Control_c, 0, 64, 87
1, 2381, Control_c, 0, 64, 89
1, 2396, Control_c, 0, 64, 91
1, 2401, Note_off_c, 0, 33, 56
1, 2410, Control_c, 0, 64, 93
1, 2432, Control_c, 0, 64, 95
1, 2438, Note_on_c, 0, 30, 54
1, 2447, Control_c, 0, 64, 96
1, 2462, Control_c, 0, 64, 98
1, 2477, Control_c, 0, 64, 99
1, 2483, Note_off_c, 0, 30, 60
1, 2492, Control_c, 0, 64, 99
1, 2502, Note_on_c, 0, 33, 56
1, 2507, Control_c, 0, 64, 100
1, 2522, Control_c, 0, 64, 102
1, 2536, Control_c, 0, 64, 104
1, 2543, Note_off_c, 0, 33, 62
1, 2551, Control_c, 0, 64, 107
1, 2566, Control_c, 0, 64, 111
1, 2569, Note_on_c, 0, 30, 64
1, 2581, Control_c, 0, 64, 117
1, 2596, Control_c, 0, 64, 127
1, 2603, Note_off_c, 0, 30, 63
1, 2628, Note_on_c, 0, 33, 59
1, 2672, Note_off_c, 0, 33, 60
1, 2689, Note_on_c, 0, 30, 63
1, 2694, Note_off_c, 0, 57, 57
1, 2731, Note_off_c, 0, 30, 56
1, 2760, Note_on_c, 0, 33, 61
1, 2801, Note_off_c, 0, 33, 60
1, 2828, Note_on_c, 0, 30, 66
1, 2864, Note_off_c, 0, 30, 62
1, 2874, Note_off_c, 0, 52, 28
1, 2887, Note_on_c, 0, 33, 66
1, 2909, Note_off_c, 0, 49, 39
1, 2927, Note_off_c, 0, 33, 62
1, 2942, Note_on_c, 0, 30, 71
1, 2987, Note_off_c, 0, 30, 61
1, 2999, Note_on_c, 0, 33, 72
1, 3049, Note_off_c, 0, 33, 59
1, 3061, Note_on_c, 0, 30, 75
1, 3112, Note_off_c, 0, 30, 62
1, 3133, Note_on_c, 0, 33, 71
1, 3174, Note_off_c, 0, 33, 62
1, 3192, Note_on_c, 0, 30, 71
1, 3236, Note_off_c, 0, 30, 55
1, 3262, Note_on_c, 0, 33, 74
1, 3317, Note_off_c, 0, 33, 60
1, 3332, Note_on_c, 0, 30, 62
1, 3344, Control_c, 0, 64, 124
1, 3359, Control_c, 0, 64, 93
1, 3371, Note_on_c, 0, 59, 89
1, 3374, Note_on_c, 0, 51, 89
1, 3374, Control_c, 0, 64, 76
1, 3377, Note_off_c, 0, 30, 56
1, 3378, Note_on_c, 0, 54, 81
1, 3389, Control_c, 0, 64, 51
1, 3397, Note_on_c, 0, 33, 71
1, 3404, Control_c, 0, 64, 0
1, 3438, Note_off_c, 0, 33, 60
1, 3448, Control_c, 0, 64, 61
1, 3463, Control_c, 0, 64, 68
1, 3470, Note_on_c, 0, 30, 59
1, 3478, Control_c, 0, 64, 74
1, 3493, Control_c, 0, 64, 82
1, 3507, Control_c, 0, 64, 88
1, 3509, Note_off_c, 0, 30, 63
1, 3522, Control_c, 0, 64, 91
1, 3523, Note_on_c, 0, 33, 71
1, 3532, Note_off_c, 0, 59, 61
1, 3537, Control_c, 0, 64, 95
1, 3553, Control_c, 0, 64, 100
1, 3559, Note_off_c, 0, 33, 65
1, 3568, Control_c, 0, 64, 108
1, 3583, Control_c, 0, 64, 127
1, 3587, Note_on_c, 0, 30, 73
1, 3626, Note_off_c, 0, 30, 61
1, 3647, Note_on_c, 0, 33, 73
1, 3652, Note_off_c, 0, 51, 60
1, 3676, Note_off_c, 0, 33, 66
1, 3693, Note_on_c, 0, 30, 74
1, 3724, Note_off_c, 0, 30, 64
1, 3752, Note_off_c, 0, 54, 60
1, 3756, Note_on_c, 0, 33, 66
1, 3782, Note_on_c, 0, 30, 84
1, 3785, Note_on_c, 0, 57, 91
1, 3786, Note_on_c, 0, 52, 84
1, 3787, Note_on_c, 0, 49, 91
1, 3788, Note_off_c, 0, 33, 64
1, 3804, Control_c, 0, 64, 107
1, 3815, Note_off_c, 0, 30, 64
1, 3819, Control_c, 0, 64, 85
1, 3834, Control_c, 0, 64, 68
1, 3849, Control_c, 0, 64, 0
1, 4108, Control_c, 0, 64, 30
1, 4123, Control_c, 0, 64, 52
1, 4137, Control_c, 0, 64, 60
1, 4152, Control_c, 0, 64, 64
1, 4167, Control_c, 0, 64, 66
1, 4182, Control_c, 0, 64, 68
1, 4197, Control_c, 0, 64, 72
1, 4212, Control_c, 0, 64, 77
1, 4227, Control_c, 0, 64, 82
1, 4242, Control_c, 0, 64, 86
1, 4256, Control_c, 0, 64, 91
1, 4271, Control_c, 0, 64, 96
1, 4286, Control_c, 0, 64, 101
1, 4301, Control_c, 0, 64, 107
1, 4316, Control_c, 0, 64, 122
1, 4330, Control_c, 0, 64, 127
1, 4364, Note_off_c, 0, 57, 51
1, 4386, Note_off_c, 0, 52, 54
1, 4406, Note_off_c, 0, 49, 38
1, 4884, Note_on_c, 0, 56, 58
1, 4890, Note_on_c, 0, 48, 53
1, 4896, Note_on_c, 0, 51, 49
1, 4936, Note_off_c, 0, 48, 57
1, 4937, Note_off_c, 0, 51, 60
1, 4940, Note_off_c, 0, 56, 57
1, 5049, Note_on_c, 0, 51, 49
1, 5052, Note_on_c, 0, 48, 45
1, 5054, Note_on_c, 0, 56, 58
1, 5064, Note_on_c, 0, 32, 42
1, 5079, Note_on_c, 0, 30, 31
1, 5093, Control_c, 0, 64, 116
1, 5108, Control_c, 0, 64, 101
1, 5123, Control_c, 0, 64, 87
1, 5137, Control_c, 0, 64, 76
1, 5154, Control_c, 0, 64, 64
1, 5169, Control_c, 0, 64, 0
1, 5242, Control_c, 0, 64, 49
1, 5257, Control_c, 0, 64, 60
1, 5272, Control_c, 0, 64, 64
1, 5287, Control_c, 0, 64, 66
1, 5301, Control_c, 0, 64, 70
1, 5316, Control_c, 0, 64, 75
1, 5323, Note_off_c, 0, 30, 41
1, 5331, Control_c, 0, 64, 81
1, 5346, Control_c, 0, 64, 85
1, 5350, Note_off_c, 0, 32, 37
1, 5356, Note_on_c, 0, 39, 35
1, 5361, Control_c, 0, 64, 87
1, 5375, Control_c, 0, 64, 89
1, 5390, Control_c, 0, 64, 91
1, 5391, Note_off_c, 0, 39, 56
1, 5405, Control_c, 0, 64, 93
1, 5412, Note_on_c, 0, 32, 25
1, 5420, Control_c, 0, 64, 95
1, 5434, Note_on_c, 0, 30, 37
1, 5442, Control_c, 0, 64, 97
1, 5457, Control_c, 0, 64, 98
1, 5472, Control_c, 0, 64, 99
1, 5485, Note_off_c, 0, 32, 54
1, 5487, Control_c, 0, 64, 100
1, 5495, Note_off_c, 0, 30, 45
1, 5502, Control_c, 0, 64, 101
1, 5504, Note_on_c, 0, 39, 46
1, 5516, Control_c, 0, 64, 101
1, 5531, Control_c, 0, 64, 102
1, 5546, Control_c, 0, 64, 103
1, 5550, Note_off_c, 0, 39, 59
1, 5560, Control_c, 0, 64, 103
1, 5574, Note_on_c, 0, 30, 38
1, 5575, Control_c, 0, 64, 104
1, 5584, Note_on_c, 0, 32, 50
1, 5590, Control_c, 0, 64, 105
1, 5605, Control_c, 0, 64, 106
1, 5620, Control_c, 0, 64, 107
1, 5624, Note_off_c, 0, 32, 60
1, 5634, Note_off_c, 0, 30, 52
1, 5634, Control_c, 0, 64, 108
1, 5649, Control_c, 0, 64, 109
1, 5662, Note_on_c, 0, 39, 49
1, 5664, Control_c, 0, 64, 110
1, 5679, Control_c, 0, 64, 111
1, 5693, Note_off_c, 0, 39, 59
1, 5694, Control_c, 0, 64, 112
1, 5709, Control_c, 0, 64, 114
1, 5719, Note_on_c, 0, 32, 55
1, 5721, Note_on_c, 0, 30, 38
1, 5723, Control_c, 0, 64, 115
1, 5738, Control_c, 0, 64, 116
1, 5753, Control_c, 0, 64, 118
1, 5758, Note_off_c, 0, 32, 62
1, 5765, Note_off_c, 0, 30, 59
1, 5768, Control_c, 0, 64, 119
1, 5771, Note_off_c, 0, 48, 33
1, 5783, Control_c, 0, 64, 120
1, 5784, Note_on_c, 0, 39, 60
1, 5798, Control_c, 0, 64, 122
1, 5812, Control_c, 0, 64, 124
1, 5823, Note_off_c, 0, 39, 61
1, 5827, Control_c, 0, 64, 126
1, 5842, Control_c, 0, 64, 127
1, 5848, Note_on_c, 0, 32, 60
1, 5852, Note_on_c, 0, 30, 54
1, 5884, Note_off_c, 0, 32, 63
1, 5892, Note_off_c, 0, 30, 63
1, 5910, Note_on_c, 0, 39, 68
1, 5918, Note_off_c, 0, 56, 38
1, 5952, Note_off_c, 0, 39, 63
1, 5967, Note_on_c, 0, 32, 64
1, 5977, Note_on_c, 0, 30, 59
1, 6007, Note_off_c, 0, 32, 61
1, 6015, Note_off_c, 0, 30, 62
1, 6024, Note_off_c, 0, 51, 42
1, 6027, Note_on_c, 0, 39, 67
1, 6075, Note_off_c, 0, 39, 62
1, 6088, Note_on_c, 0, 32, 68
1, 6090, Note_on_c, 0, 30, 62
1, 6134, Note_off_c, 0, 32, 61
1, 6140, Note_off_c, 0, 30, 60
1, 6161, Note_on_c, 0, 39, 64
1, 6206, Note_off_c, 0, 39, 64
1, 6225, Note_on_c, 0, 32, 69
1, 6239, Note_on_c, 0, 30, 54
1, 6263, Note_off_c, 0, 32, 61
1, 6273, Note_off_c, 0, 30, 62
1, 6287, Note_on_c, 0, 39, 69
1, 6334, Note_off_c, 0, 39, 63
1, 6345, Note_on_c, 0, 32, 66
1, 6369, Note_on_c, 0, 30, 49
1, 6379, Note_off_c, 0, 32, 63
1, 6405, Note_off_c, 0, 30, 53
1, 6416, Note_on_c, 0, 39, 68
1, 6447, Note_off_c, 0, 39, 65
1, 6452, Note_on_c, 0, 32, 66
1, 6490, Note_off_c, 0, 32, 64
1, 6507, Note_on_c, 0, 30, 20
1, 6519, Note_on_c, 0, 39, 67
1, 6555, Note_off_c, 0, 39, 63
1, 6576, Note_on_c, 0, 32, 59
1, 6608, Note_off_c, 0, 32, 62
1, 6623, Note_off_c, 0, 30, 25
1, 6650, Note_on_c, 0, 39, 60
1, 6689, Note_off_c, 0, 39, 61
1, 6710, Control_c, 0, 64, 102
1, 6724, Note_on_c, 0, 29, 62
1, 6725, Control_c, 0, 64, 86
1, 6740, Control_c, 0, 64, 69
1, 6755, Control_c, 0, 64, 0
1, 6799, Note_on_c, 0, 30, 48
1, 6819, Note_off_c, 0, 29, 61
1, 6823, Note_on_c, 0, 32, 66
1, 6829, Control_c, 0, 64, 60
1, 6844, Control_c, 0, 64, 66
1, 6859, Control_c, 0, 64, 72
1, 6862, Note_off_c, 0, 30, 61
1, 6874, Control_c, 0, 64, 80
1, 6879, Note_on_c, 0, 36, 65
1, 6889, Control_c, 0, 64, 89
1, 6903, Control_c, 0, 64, 96
1, 6918, Control_c, 0, 64, 103
1, 6941, Control_c, 0, 64, 112
1, 6954, Note_on_c, 0, 39, 77
1, 6955, Control_c, 0, 64, 127
1, 6957, Note_off_c, 0, 36, 63
1, 6958, Note_off_c, 0, 32, 35
1, 6984, Note_off_c, 0, 39, 65
1, 7014, Note_on_c, 0, 42, 65
1, 7073, Note_on_c, 0, 44, 73
1, 7088, Note_off_c, 0, 42, 62
1, 7097, Note_on_c, 0, 48, 55
1, 7124, Note_on_c, 0, 51, 78
1, 7158, Note_on_c, 0, 54, 73
1, 7159, Note_off_c, 0, 44, 61
1, 7171, Note_off_c, 0, 48, 61
1, 7207, Note_off_c, 0, 51, 62
1, 7234, Note_on_c, 0, 56, 61
1, 7237, Note_off_c, 0, 54, 63
1, 7274, Note_off_c, 0, 56, 0
1, 7274, Note_on_c, 0, 56, 18
1, 7283, Note_on_c, 0, 55, 22
1, 7289, Note_on_c, 0, 60, 71
1, 7318, Note_on_c, 0, 63, 81
1, 7323, Note_off_c, 0, 56, 49
1, 7329, Note_off_c, 0, 55, 54
1, 7357, Note_on_c, 0, 66, 93
1, 7376, Note_off_c, 0, 60, 55
1, 7404, Note_off_c, 0, 63, 62
1, 7435, Note_off_c, 0, 66, 62
1, 7475, Note_on_c, 0, 54, 71
1, 7533, Control_c, 0, 64, 88
1, 7536, Note_on_c, 0, 61, 77
1, 7549, Control_c, 0, 64, 15
1, 7550, Note_off_c, 0, 54, 63
1, 7559, Note_on_c, 0, 64, 74
1, 7564, Control_c, 0, 64, 0
1, 7588, Note_on_c, 0, 73, 102
1, 7588, Note_on_c, 0, 76, 82
1, 7588, Note_on_c, 0, 85, 100
1, 7594, Note_on_c, 0, 69, 92
1, 7594, Note_on_c, 0, 81, 90
1, 7609, Control_c, 0, 64, 68
1, 7623, Control_c, 0, 64, 127
1, 7624, Note_off_c, 0, 73, 69
1, 7629, Note_off_c, 0, 85, 69
1, 7630, Note_off_c, 0, 76, 67
1, 7632, Note_off_c, 0, 69, 65
1, 7634, Note_off_c, 0, 64, 65
1, 7639, Note_off_c, 0, 81, 65
1, 7658, Note_off_c, 0, 61, 63
1, 8385, Note_on_c, 0, 61, 101
1, 8391, Note_on_c, 0, 52, 90
1, 8391, Note_on_c, 0, 57, 83
1, 8397, Note_on_c, 0, 30, 81
1, 8401, Control_c, 0, 64, 99
1, 8416, Control_c, 0, 64, 69
1, 8439, Control_c, 0, 64, 0
1, 8527, Control_c, 0, 64, 62
1, 8542, Control_c, 0, 64, 67
1, 8557, Control_c, 0, 64, 70
1, 8572, Control_c, 0, 64, 76
1, 8586, Control_c, 0, 64, 82
1, 8601, Control_c, 0, 64, 87
1, 8604, Note_off_c, 0, 30, 54
1, 8616, Control_c, 0, 64, 92
1, 8631, Control_c, 0, 64, 96
1, 8646, Control_c, 0, 64, 100
1, 8650, Note_on_c, 0, 33, 53
1, 8661, Control_c, 0, 64, 104
1, 8676, Control_c, 0, 64, 109
1, 8689, Note_off_c, 0, 33, 63
1, 8691, Control_c, 0, 64, 115
1, 8705, Control_c, 0, 64, 127
1, 8724, Note_on_c, 0, 30, 51
1, 8761, Note_off_c, 0, 30, 59
1, 8782, Note_on_c, 0, 33, 52
1, 8816, Note_off_c, 0, 33, 61
1, 8847, Note_on_c, 0, 30, 57
1, 8881, Note_off_c, 0, 30, 64
1, 8897, Note_on_c, 0, 33, 64
1, 8942, Note_off_c, 0, 33, 63
1, 8960, Note_on_c, 0, 30, 67
1, 9016, Note_off_c, 0, 30, 59
1, 9032, Note_on_c, 0, 33, 67
1, 9032, Note_off_c, 0, 52, 49
1, 9071, Note_off_c, 0, 33, 63
1, 9099, Note_on_c, 0, 30, 63
1, 9133, Note_off_c, 0, 30, 64
1, 9165, Note_on_c, 0, 33, 63
1, 9181, Note_off_c, 0, 57, 40
1, 9206, Note_off_c, 0, 33, 61
1, 9234, Note_on_c, 0, 30, 68
1, 9276, Note_off_c, 0, 30, 61
1, 9291, Note_on_c, 0, 33, 68
1, 9327, Note_off_c, 0, 61, 57
1, 9339, Note_off_c, 0, 33, 61
1, 9360, Note_on_c, 0, 30, 72
1, 9411, Note_off_c, 0, 30, 59
1, 9425, Note_on_c, 0, 33, 75
1, 9470, Note_off_c, 0, 33, 62
1, 9492, Note_on_c, 0, 30, 66
1, 9542, Note_off_c, 0, 30, 61
1, 9552, Note_on_c, 0, 33, 75
1, 9596, Note_on_c, 0, 63, 97
1, 9598, Note_on_c, 0, 54, 99
1, 9602, Control_c, 0, 64, 94
1, 9603, Note_on_c, 0, 59, 87
1, 9608, Note_off_c, 0, 33, 60
1, 9617, Control_c, 0, 64, 74
1, 9632, Control_c, 0, 64, 30
1, 9634, Note_on_c, 0, 30, 58
1, 9647, Control_c, 0, 64, 0
1, 9673, Note_off_c, 0, 30, 62
1, 9676, Control_c, 0, 64, 45
1, 9691, Control_c, 0, 64, 66
1, 9692, Note_on_c, 0, 33, 69
1, 9706, Control_c, 0, 64, 78
1, 9720, Control_c, 0, 64, 92
1, 9728, Note_off_c, 0, 33, 64
1, 9735, Control_c, 0, 64, 105
1, 9750, Control_c, 0, 64, 111
1, 9753, Note_on_c, 0, 30, 69
1, 9765, Control_c, 0, 64, 115
1, 9780, Control_c, 0, 64, 121
1, 9795, Control_c, 0, 64, 127
1, 9796, Note_off_c, 0, 30, 62
1, 9807, Note_on_c, 0, 33, 73
1, 9813, Note_off_c, 0, 59, 61
1, 9843, Note_off_c, 0, 54, 61
1, 9847, Note_off_c, 0, 63, 56
1, 9864, Note_off_c, 0, 33, 59
1, 9878, Note_on_c, 0, 30, 62
1, 9921, Note_off_c, 0, 30, 62
1, 9928, Note_on_c, 0, 33, 68
1, 9967, Note_off_c, 0, 33, 62
1, 10012, Note_on_c, 0, 30, 92
1, 10025, Control_c, 0, 64, 113
1, 10026, Note_on_c, 0, 61, 102
1, 10028, Note_on_c, 0, 52, 92
1, 10033, Note_on_c, 0, 57, 86
1, 10040, Control_c, 0, 64, 89
1, 10050, Note_off_c, 0, 30, 62
1, 10055, Control_c, 0, 64, 71
1, 10070, Control_c, 0, 64, 0
1, 10218, Control_c, 0, 64, 49
1, 10233, Control_c, 0, 64, 61
1, 10248, Control_c, 0, 64, 64
1, 10263, Control_c, 0, 64, 66
1, 10277, Control_c, 0, 64, 69
1, 10292, Control_c, 0, 64, 73
1, 10307, Control_c, 0, 64, 80
1, 10322, Control_c, 0, 64, 86
1, 10337, Control_c, 0, 64, 91
1, 10351, Control_c, 0, 64, 96
1, 10366, Control_c, 0, 64, 103
1, 10381, Control_c, 0, 64, 110
1, 10397, Control_c, 0, 64, 126
1, 10400, Note_off_c, 0, 57, 61
1, 10412, Control_c, 0, 64, 127
1, 10430, Note_off_c, 0, 61, 60
1, 10588, Note_off_c, 0, 52, 57
1, 11063, Note_on_c, 0, 60, 50
1, 11071, Note_on_c, 0, 51, 49
1, 11094, Note_on_c, 0, 56, 38
1, 11125, Note_off_c, 0, 51, 58
1, 11136, Note_off_c, 0, 56, 59
1, 11140, Note_off_c, 0, 60, 58
1, 11249, Control_c, 0, 64, 115
1, 11250, Note_on_c, 0, 56, 44
1, 11258, Note_on_c, 0, 51, 36
1, 11262, Note_on_c, 0, 60, 60
1, 11264, Control_c, 0, 64, 96
1, 11271, Note_on_c, 0, 32, 34
1, 11273, Note_on_c, 0, 30, 37
1, 11279, Control_c, 0, 64, 81
1, 11293, Control_c, 0, 64, 66
1, 11308, Control_c, 0, 64, 0
1, 11367, Control_c, 0, 64, 59
1, 11382, Control_c, 0, 64, 66
1, 11397, Control_c, 0, 64, 71
1, 11412, Control_c, 0, 64, 81
1, 11434, Control_c, 0, 64, 88
1, 11449, Control_c, 0, 64, 93
1, 11464, Control_c, 0, 64, 96
1, 11473, Note_off_c, 0, 30, 44
1, 11479, Control_c, 0, 64, 98
1, 11494, Note_off_c, 0, 32, 39
1, 11494, Control_c, 0, 64, 101
1, 11500, Note_on_c, 0, 39, 43
1, 11508, Control_c, 0, 64, 104
1, 11523, Control_c, 0, 64, 108
1, 11538, Control_c, 0, 64, 112
1, 11541, Note_off_c, 0, 39, 60
1, 11554, Control_c, 0, 64, 115
1, 11564, Note_on_c, 0, 30, 49
1, 11569, Control_c, 0, 64, 119
1, 11584, Control_c, 0, 64, 124
1, 11592, Note_on_c, 0, 32, 24
1, 11598, Control_c, 0, 64, 127
1, 11613, Note_off_c, 0, 60, 55
1, 11631, Note_off_c, 0, 30, 52
1, 11638, Note_on_c, 0, 39, 56
1, 11647, Note_off_c, 0, 32, 52
1, 11658, Note_off_c, 0, 51, 45
1, 11664, Note_off_c, 0, 56, 59
1, 11682, Note_off_c, 0, 39, 61
1, 11690, Note_on_c, 0, 30, 45
1, 11718, Note_on_c, 0, 32, 41
1, 11755, Note_off_c, 0, 32, 59
1, 11783, Note_on_c, 0, 39, 52
1, 11804, Note_off_c, 0, 30, 0
1, 11820, Note_off_c, 0, 39, 63
1, 11822, Note_on_c, 0, 30, 35
1, 11841, Note_on_c, 0, 32, 61
1, 11877, Note_off_c, 0, 32, 62
1, 11896, Note_off_c, 0, 30, 57
1, 11904, Note_on_c, 0, 39, 65
1, 11949, Note_off_c, 0, 39, 59
1, 11965, Note_on_c, 0, 32, 62
1, 11969, Note_on_c, 0, 30, 55
1, 12005, Note_off_c, 0, 32, 60
1, 12013, Note_off_c, 0, 30, 60
1, 12035, Note_on_c, 0, 39, 66
1, 12073, Note_off_c, 0, 39, 63
1, 12092, Note_on_c, 0, 32, 59
1, 12099, Note_on_c, 0, 30, 64
1, 12131, Note_off_c, 0, 32, 57
1, 12132, Note_off_c, 0, 30, 63
1, 12151, Note_on_c, 0, 39, 69
1, 12210, Note_off_c, 0, 39, 60
1, 12215, Note_on_c, 0, 30, 63
1, 12222, Note_on_c, 0, 32, 66
1, 12255, Note_off_c, 0, 32, 63
1, 12265, Note_off_c, 0, 30, 60
1, 12287, Note_on_c, 0, 39, 70
1, 12332, Note_off_c, 0, 39, 62
1, 12344, Note_on_c, 0, 32, 57
1, 12357, Note_on_c, 0, 30, 57
1, 12377, Note_off_c, 0, 32, 64
1, 12391, Note_off_c, 0, 30, 63
1, 12407, Note_on_c, 0, 39, 71
1, 12440, Note_off_c, 0, 39, 64
1, 12455, Note_on_c, 0, 32, 62
1, 12473, Note_on_c, 0, 30, 60
1, 12501, Note_off_c, 0, 32, 60
1, 12509, Note_off_c, 0, 30, 63
1, 12527, Note_on_c, 0, 39, 63
1, 12567, Note_off_c, 0, 39, 63
1, 12593, Note_on_c, 0, 32, 59
1, 12602, Note_on_c, 0, 30, 54
1, 12622, Note_off_c, 0, 32, 65
1, 12640, Note_on_c, 0, 39, 69
1, 12671, Note_off_c, 0, 39, 65
1, 12680, Note_on_c, 0, 32, 63
1, 12716, Note_off_c, 0, 30, 27
1, 12736, Note_off_c, 0, 32, 60
1, 12746, Note_on_c, 0, 39, 63
1, 12796, Note_off_c, 0, 39, 61
1, 12806, Control_c, 0, 64, 126
1, 12820, Control_c, 0, 64, 94
1, 12835, Note_on_c, 0, 29, 69
1, 12835, Control_c, 0, 64, 75
1, 12850, Control_c, 0, 64, 24
1, 12864, Control_c, 0, 64, 0
1, 12909, Note_on_c, 0, 30, 64
1, 12909, Control_c, 0, 64, 34
1, 12931, Note_off_c, 0, 29, 64
1, 12931, Control_c, 0, 64, 63
1, 12943, Note_on_c, 0, 32, 64
1, 12946, Control_c, 0, 64, 68
1, 12961, Control_c, 0, 64, 76
1, 12976, Control_c, 0, 64, 87
1, 12991, Note_on_c, 0, 36, 75
1, 12991, Note_off_c, 0, 30, 61
1, 12991, Control_c, 0, 64, 98
1, 13005, Control_c, 0, 64, 108
1, 13020, Control_c, 0, 64, 122
1, 13027, Note_off_c, 0, 32, 56
1, 13035, Control_c, 0, 64, 127
1, 13050, Note_on_c, 0, 39, 79
1, 13057, Note_off_c, 0, 36, 64
1, 13077, Note_off_c, 0, 39, 66
1, 13110, Note_on_c, 0, 42, 70
1, 13163, Note_on_c, 0, 44, 74
1, 13171, Note_off_c, 0, 42, 62
1, 13194, Note_on_c, 0, 48, 60
1, 13226, Note_on_c, 0, 51, 77
1, 13252, Note_off_c, 0, 44, 60
1, 13261, Note_on_c, 0, 54, 71
1, 13270, Note_off_c, 0, 48, 60
1, 13309, Note_off_c, 0, 51, 61
1, 13322, Note_on_c, 0, 56, 73
1, 13338, Note_off_c, 0, 54, 63
1, 13381, Note_on_c, 0, 60, 75
1, 13430, Note_off_c, 0, 56, 59
1, 13440, Note_on_c, 0, 63, 86
1, 13469, Note_off_c, 0, 60, 62
1, 13489, Note_on_c, 0, 66, 96
1, 13509, Note_off_c, 0, 63, 62
1, 13527, Note_off_c, 0, 66, 67
1, 13681, Control_c, 0, 64, 82
1, 13695, Control_c, 0, 64, 0
1, 13723, Note_on_c, 0, 88, 99
1, 13724, Note_on_c, 0, 76, 96
1, 13724, Note_on_c, 0, 81, 92
1, 13726, Note_on_c, 0, 85, 94
1, 13729, Note_on_c, 0, 73, 107
1, 13734, Note_on_c, 0, 61, 83
1, 13735, Note_on_c, 0, 69, 68
1, 13736, Note_on_c, 0, 64, 79
1, 13752, Note_off_c, 0, 76, 68
1, 13755, Control_c, 0, 64, 75
1, 13760, Note_off_c, 0, 88, 69
1, 13763, Note_off_c, 0, 81, 67
1, 13763, Note_off_c, 0, 73, 69
1, 13769, Control_c, 0, 64, 127
1, 13773, Note_off_c, 0, 69, 64
1, 13776, Note_off_c, 0, 85, 66
1, 13786, Note_off_c, 0, 61, 62
1, 13791, Note_off_c, 0, 64, 64
1, 14499, Note_on_c, 0, 52, 99
1, 14500, Note_on_c, 0, 64, 95
1, 14502, Note_on_c, 0, 57, 92
1, 14504, Note_on_c, 0, 42, 97
1, 14505, Note_on_c, 0, 61, 87
1, 14511, Note_on_c, 0, 30, 90
1, 14533, Control_c, 0, 64, 90
1, 14548, Control_c, 0, 64, 64
1, 14562, Control_c, 0, 64, 0
1, 14651, Control_c, 0, 64, 58
1, 14666, Control_c, 0, 64, 69
1, 14681, Control_c, 0, 64, 79
1, 14696, Control_c, 0, 64, 99
1, 14710, Control_c, 0, 64, 127
1, 14905, Note_off_c, 0, 52, 54
1, 15009, Note_off_c, 0, 30, 52
1, 15068, Note_off_c, 0, 42, 55
1, 15080, Note_off_c, 0, 57, 55
1, 15173, Note_off_c, 0, 64, 53
1, 15187, Note_off_c, 0, 61, 60
1, 15873, Note_on_c, 0, 88, 102
1, 15875, Note_on_c, 0, 76, 100
1, 15877, Note_on_c, 0, 81, 95
1, 15880, Note_on_c, 0, 85, 87
1, 15885, Note_on_c, 0, 73, 91
1, 15888, Note_on_c, 0, 61, 77
1, 15894, Note_on_c, 0, 69, 67
1, 15898, Note_on_c, 0, 64, 65
1, 15971, Note_off_c, 0, 64, 58
1, 15975, Note_off_c, 0, 81, 61
1, 15977, Note_off_c, 0, 61, 60
1, 15984, Note_off_c, 0, 76, 60
1, 15993, Note_off_c, 0, 73, 58
1, 16015, Note_off_c, 0, 88, 64
1, 16033, Note_off_c, 0, 85, 48
1, 16076, Control_c, 0, 64, 90
1, 16090, Control_c, 0, 64, 0
1, 16121, Note_on_c, 0, 89, 98
1, 16123, Note_on_c, 0, 77, 104
1, 16124, Note_on_c, 0, 73, 101
1, 16125, Note_on_c, 0, 81, 102
1, 16126, Note_on_c, 0, 85, 93
1, 16130, Note_off_c, 0, 69, 0
1, 16130, Note_on_c, 0, 69, 5
1, 16132, Note_on_c, 0, 61, 88
1, 16132, Note_on_c, 0, 65, 81
1, 16135, Control_c, 0, 64, 68
1, 16149, Control_c, 0, 64, 127
1, 16156, Note_off_c, 0, 77, 67
1, 16161, Note_off_c, 0, 73, 67
1, 16164, Note_off_c, 0, 89, 67
1, 16169, Note_off_c, 0, 81, 64
1, 16182, Note_off_c, 0, 85, 65
1, 16186, Note_off_c, 0, 61, 62
1, 16189, Note_off_c, 0, 65, 63
1, 16191, Note_off_c, 0, 69, 59
1, 16917, Note_on_c, 0, 53, 102
1, 16918, Note_on_c, 0, 65, 94
1, 16919, Note_on_c, 0, 57, 92
1, 16921, Note_on_c, 0, 41, 97
1, 16923, Note_on_c, 0, 29, 101
1, 16924, Note_on_c, 0, 61, 91
1, 16943, Control_c, 0, 64, 119
1, 16958, Control_c, 0, 64, 81
1, 16972, Control_c, 0, 64, 0
1, 17061, Control_c, 0, 64, 38
1, 17076, Control_c, 0, 64, 74
1, 17091, Control_c, 0, 64, 100
1, 17106, Control_c, 0, 64, 127
1, 17401, Note_off_c, 0, 29, 54
1, 17474, Note_off_c, 0, 61, 57
1, 17477, Note_off_c, 0, 57, 59
1, 17480, Note_off_c, 0, 65, 56
1, 17492, Note_off_c, 0, 41, 61
1, 17518, Note_on_c, 0, 33, 78
1, 17614, Note_on_c, 0, 37, 71
1, 17614, Note_off_c, 0, 33, 60
1, 17634, Note_off_c, 0, 53, 41
1, 17658, Note_off_c, 0, 37, 62
1, 17667, Note_on_c, 0, 41, 76
1, 17700, Note_off_c, 0, 41, 66
1, 17738, Note_on_c, 0, 57, 79
1, 17763, Note_on_c, 0, 45, 78
1, 17791, Note_off_c, 0, 57, 61
1, 17806, Note_on_c, 0, 61, 81
1, 17829, Note_off_c, 0, 61, 71
1, 17829, Note_on_c, 0, 49, 70
1, 17829, Note_off_c, 0, 45, 62
1, 17861, Note_off_c, 0, 49, 67
1, 17876, Note_on_c, 0, 53, 77
1, 17894, Note_on_c, 0, 65, 93
1, 17907, Note_off_c, 0, 53, 64
1, 17945, Note_off_c, 0, 65, 66
1, 17951, Note_on_c, 0, 69, 82
1, 17975, Note_on_c, 0, 57, 75
1, 18007, Note_off_c, 0, 69, 63
1, 18011, Note_on_c, 0, 73, 80
1, 18025, Note_off_c, 0, 57, 64
1, 18029, Note_on_c, 0, 61, 73
1, 18048, Note_off_c, 0, 73, 67
1, 18054, Note_off_c, 0, 61, 67
1, 18079, Note_on_c, 0, 65, 79
1, 18094, Note_on_c, 0, 77, 90
1, 18108, Note_off_c, 0, 65, 64
1, 18146, Note_off_c, 0, 77, 61
1, 18149, Note_on_c, 0, 81, 96
1, 18187, Note_on_c, 0, 69, 69
1, 18217, Note_on_c, 0, 85, 82
1, 18222, Note_off_c, 0, 81, 63
1, 18226, Note_on_c, 0, 73, 79
1, 18235, Note_off_c, 0, 69, 63
1, 18272, Note_off_c, 0, 73, 61
1, 18302, Note_off_c, 0, 85, 61
1, 18396, Control_c, 0, 64, 96
1, 18410, Control_c, 0, 64, 47
1, 18425, Control_c, 0, 64, 0
1, 18439, Note_on_c, 0, 77, 106
1, 18439, Note_on_c, 0, 81, 112
1, 18439, Note_on_c, 0, 89, 100
1, 18443, Note_on_c, 0, 69, 75
1, 18443, Note_on_c, 0, 74, 95
1, 18443, Note_on_c, 0, 86, 91
1, 18445, Note_on_c, 0, 62, 83
1, 18449, Note_on_c, 0, 65, 85
1, 18468, Note_off_c, 0, 77, 70
1, 18470, Control_c, 0, 64, 69
1, 18477, Note_off_c, 0, 81, 67
1, 18477, Note_off_c, 0, 89, 68
1, 18479, Note_off_c, 0, 74, 68
1, 18480, Note_off_c, 0, 86, 60
1, 18484, Control_c, 0, 64, 127
1, 18489, Note_off_c, 0, 62, 64
1, 18495, Note_off_c, 0, 69, 65
1, 18504, Note_off_c, 0, 65, 64
1, 19213, Note_on_c, 0, 53, 102
1, 19215, Note_on_c, 0, 57, 92
1, 19216, Note_on_c, 0, 65, 98
1, 19219, Note_on_c, 0, 41, 102
1, 19221, Note_on_c, 0, 62, 84
1, 19224, Note_on_c, 0, 29, 91
1, 19248, Control_c, 0, 64, 91
1, 19263, Control_c, 0, 64, 64
1, 19278, Control_c, 0, 64, 0
1, 19352, Control_c, 0, 64, 37
1, 19367, Control_c, 0, 64, 67
1, 19380, Control_c, 0, 64, 80
1, 19395, Control_c, 0, 64, 108
1, 19410, Control_c, 0, 64, 127
1, 19606, Note_off_c, 0, 53, 57
1, 19738, Note_off_c, 0, 29, 57
1, 19800, Note_off_c, 0, 41, 54
1, 19838, Note_off_c, 0, 57, 51
1, 19932, Note_off_c, 0, 65, 51
1, 19940, Note_off_c, 0, 62, 52
1, 20622, Note_on_c, 0, 77, 102
1, 20622, Note_on_c, 0, 89, 100
1, 20624, Note_on_c, 0, 81, 102
1, 20631, Note_on_c, 0, 86, 81
1, 20633, Note_on_c, 0, 74, 89
1, 20634, Note_on_c, 0, 62, 73
1, 20634, Note_on_c, 0, 69, 75
1, 20645, Note_on_c, 0, 65, 71
1, 20735, Note_off_c, 0, 62, 52
1, 20735, Note_off_c, 0, 81, 57
1, 20738, Note_off_c, 0, 65, 61
1, 20767, Note_off_c, 0, 74, 50
1, 20786, Note_off_c, 0, 69, 57
1, 20814, Note_off_c, 0, 86, 35
1, 20821, Note_off_c, 0, 89, 52
1, 20846, Note_off_c, 0, 77, 56
1, 20878, Control_c, 0, 64, 102
1, 20893, Control_c, 0, 64, 52
1, 20908, Control_c, 0, 64, 0
1, 20922, Note_on_c, 0, 74, 97
1, 20922, Note_on_c, 0, 77, 106
1, 20923, Note_on_c, 0, 62, 84
1, 20923, Note_on_c, 0, 89, 105
1, 20924, Note_on_c, 0, 70, 95
1, 20926, Note_on_c, 0, 82, 96
1, 20926, Note_on_c, 0, 86, 96
1, 20926, Note_on_c, 0, 65, 83
1, 20938, Control_c, 0, 64, 58
1, 20950, Note_off_c, 0, 77, 69
1, 20952, Control_c, 0, 64, 86
1, 20961, Note_off_c, 0, 74, 66
1, 20965, Note_off_c, 0, 89, 67
1, 20967, Control_c, 0, 64, 127
1, 20969, Note_off_c, 0, 86, 63
1, 20976, Note_off_c, 0, 82, 66
1, 20987, Note_off_c, 0, 62, 60
1, 21004, Note_off_c, 0, 65, 60
1, 21015, Note_off_c, 0, 70, 57
1, 21936, Note_on_c, 0, 53, 99
1, 21936, Note_on_c, 0, 58, 95
1, 21937, Note_on_c, 0, 65, 97
1, 21939, Note_on_c, 0, 41, 102
1, 21939, Note_on_c, 0, 62, 83
1, 21942, Note_on_c, 0, 29, 96
1, 21991, Control_c, 0, 64, 88
1, 22006, Control_c, 0, 64, 54
1, 22021, Control_c, 0, 64, 0
1, 22095, Control_c, 0, 64, 65
1, 22109, Control_c, 0, 64, 85
1, 22124, Control_c, 0, 64, 127
1, 22493, Note_off_c, 0, 29, 50
1, 22932, Note_off_c, 0, 41, 59
1, 22956, Note_on_c, 0, 34, 92
1, 23210, Note_on_c, 0, 38, 83
1, 23373, Note_on_c, 0, 41, 77
1, 23381, Note_off_c, 0, 38, 61
1, 23452, Note_off_c, 0, 41, 63
1, 23456, Note_off_c, 0, 34, 54
1, 23482, Note_on_c, 0, 46, 76
1, 23499, Note_off_c, 0, 53, 50
1, 23508, Note_off_c, 0, 58, 58
1, 23515, Note_off_c, 0, 46, 66
1, 23528, Note_off_c, 0, 62, 36
1, 23595, Note_on_c, 0, 50, 87
1, 23657, Note_off_c, 0, 65, 55
1, 23660, Note_off_c, 0, 50, 62
1, 23700, Note_on_c, 0, 53, 71
1, 23766, Note_on_c, 0, 58, 75
1, 23770, Note_off_c, 0, 53, 56
1, 23814, Control_c, 0, 64, 95
1, 23820, Note_on_c, 0, 62, 73
1, 23821, Note_off_c, 0, 58, 64
1, 23829, Control_c, 0, 64, 68
1, 23844, Control_c, 0, 64, 0
1, 23876, Note_on_c, 0, 65, 82
1, 23880, Note_off_c, 0, 62, 65
1, 23889, Control_c, 0, 64, 67
1, 23894, Note_on_c, 0, 50, 62
1, 23904, Control_c, 0, 64, 85
1, 23918, Control_c, 0, 64, 127
1, 23922, Note_off_c, 0, 65, 66
1, 23933, Note_on_c, 0, 53, 55
1, 23987, Note_off_c, 0, 50, 57
1, 23990, Note_on_c, 0, 58, 73
1, 24000, Note_off_c, 0, 53, 60
1, 24039, Note_off_c, 0, 58, 62
1, 24057, Note_on_c, 0, 62, 71
1, 24096, Note_on_c, 0, 65, 78
1, 24102, Note_off_c, 0, 62, 59
1, 24160, Note_on_c, 0, 70, 79
1, 24163, Note_off_c, 0, 65, 62
1, 24203, Note_on_c, 0, 74, 68
1, 24214, Note_off_c, 0, 70, 64
1, 24249, Note_on_c, 0, 77, 90
1, 24249, Note_off_c, 0, 74, 67
1, 24288, Note_off_c, 0, 77, 67
1, 24293, Note_on_c, 0, 62, 64
1, 24340, Note_on_c, 0, 65, 66
1, 24405, Note_on_c, 0, 70, 77
1, 24410, Note_off_c, 0, 62, 51
1, 24435, Note_off_c, 0, 65, 64
1, 24470, Note_on_c, 0, 74, 75
1, 24471, Note_off_c, 0, 70, 62
1, 24527, Note_off_c, 0, 74, 64
1, 24537, Note_on_c, 0, 77, 69
1, 24595, Note_off_c, 0, 77, 50
1, 24597, Note_on_c, 0, 82, 76
1, 24646, Note_off_c, 0, 82, 66
1, 24652, Note_on_c, 0, 86, 72
1, 24694, Note_off_c, 0, 86, 67
1, 24702, Note_on_c, 0, 89, 86
1, 24759, Note_off_c, 0, 89, 67
1, 24779, Note_on_c, 0, 74, 52
1, 24846, Note_on_c, 0, 77, 65
1, 24957, Note_on_c, 0, 82, 74
1, 25058, Note_on_c, 0, 86, 92
1, 25136, Note_on_c, 0, 89, 72
1, 25173, Note_off_c, 0, 86, 59
1, 25176, Note_off_c, 0, 74, 45
1, 25200, Note_off_c, 0, 89, 64
1, 25203, Note_on_c, 0, 94, 74
1, 25215, Note_off_c, 0, 77, 59
1, 25230, Note_off_c, 0, 82, 56
1, 25245, Note_on_c, 0, 101, 84
1, 25256, Note_off_c, 0, 94, 64
1, 25281, Note_on_c, 0, 98, 79
1, 25313, Note_off_c, 0, 101, 61
1, 25324, Note_on_c, 0, 74, 57
1, 25337, Note_on_c, 0, 77, 69
1, 25346, Note_off_c, 0, 98, 65
1, 25351, Note_on_c, 0, 94, 78
1, 25387, Note_off_c, 0, 94, 62
1, 25391, Note_on_c, 0, 82, 73
1, 25428, Note_on_c, 0, 86, 87
1, 25452, Note_on_c, 0, 89, 81
1, 25482, Note_off_c, 0, 77, 50
1, 25486, Note_off_c, 0, 74, 25
1, 25513, Note_off_c, 0, 86, 60
1, 25515, Note_off_c, 0, 89, 65
1, 25516, Note_on_c, 0, 94, 80
1, 25547, Note_on_c, 0, 101, 81
1, 25567, Note_off_c, 0, 94, 64
1, 25588, Note_on_c, 0, 98, 80
1, 25606, Note_off_c, 0, 82, 36
1, 25621, Note_off_c, 0, 101, 63
1, 25631, Note_on_c, 0, 74, 62
1, 25635, Note_on_c, 0, 77, 61
1, 25663, Note_off_c, 0, 98, 66
1, 25667, Note_on_c, 0, 94, 79
1, 25696, Note_on_c, 0, 82, 77
1, 25708, Note_off_c, 0, 94, 62
1, 25730, Note_on_c, 0, 86, 90
1, 25752, Note_on_c, 0, 89, 77
1, 25790, Note_off_c, 0, 74, 37
1, 25813, Note_off_c, 0, 86, 61
1, 25815, Note_off_c, 0, 89, 65
1, 25817, Note_on_c, 0, 94, 81
1, 25849, Note_on_c, 0, 101, 79
1, 25851, Note_off_c, 0, 77, 30
1, 25868, Note_off_c, 0, 94, 64
1, 25882, Note_off_c, 0, 82, 55
1, 25888, Note_on_c, 0, 98, 85
1, 25922, Note_off_c, 0, 101, 62
1, 25942, Note_on_c, 0, 74, 52
1, 25951, Note_on_c, 0, 77, 68
1, 25955, Note_off_c, 0, 98, 65
1, 25960, Note_on_c, 0, 94, 79
1, 25999, Note_on_c, 0, 82, 68
1, 26003, Note_off_c, 0, 94, 63
1, 26041, Note_on_c, 0, 86, 90
1, 26062, Note_on_c, 0, 89, 78
1, 26124, Note_on_c, 0, 94, 77
1, 26124, Note_off_c, 0, 89, 65
1, 26136, Note_off_c, 0, 86, 59
1, 26136, Note_off_c, 0, 74, 38
1, 26139, Note_off_c, 0, 82, 54
1, 26151, Note_off_c, 0, 77, 46
1, 26172, Note_on_c, 0, 101, 82
1, 26186, Note_off_c, 0, 94, 65
1, 26223, Note_on_c, 0, 98, 78
1, 26248, Note_off_c, 0, 101, 63
1, 26297, Note_on_c, 0, 94, 74
1, 26298, Note_off_c, 0, 98, 65
1, 26360, Note_off_c, 0, 94, 63
1, 26406, Note_on_c, 0, 74, 37
1, 26426, Note_on_c, 0, 77, 53
1, 26483, Control_c, 0, 64, 84
1, 26498, Control_c, 0, 64, 49
1, 26513, Control_c, 0, 64, 0
1, 26515, Note_on_c, 0, 81, 64
1, 26572, Control_c, 0, 64, 64
1, 26575, Note_on_c, 0, 86, 60
1, 26587, Control_c, 0, 64, 75
1, 26601, Control_c, 0, 64, 90
1, 26616, Control_c, 0, 64, 106
1, 26624, Note_on_c, 0, 89, 62
1, 26631, Control_c, 0, 64, 116
1, 26646, Control_c, 0, 64, 127
1, 26655, Note_off_c, 0, 86, 55
1, 26668, Note_off_c, 0, 89, 62
1, 26679, Note_off_c, 0, 77, 38
1, 26683, Note_off_c, 0, 74, 41
1, 26694, Note_on_c, 0, 93, 57
1, 26743, Note_off_c, 0, 93, 57
1, 26746, Note_on_c, 0, 101, 76
1, 26786, Note_off_c, 0, 81, 34
1, 26798, Note_off_c, 0, 101, 61
1, 26803, Note_on_c, 0, 98, 58
1, 26820, Note_on_c, 0, 74, 37
1, 26838, Note_off_c, 0, 98, 64
1, 26843, Note_on_c, 0, 77, 49
1, 26902, Note_on_c, 0, 82, 60
1, 26929, Note_off_c, 0, 77, 57
1, 26935, Note_on_c, 0, 86, 65
1, 26943, Note_off_c, 0, 74, 41
1, 26981, Note_on_c, 0, 89, 61
1, 26995, Note_off_c, 0, 82, 58
1, 27004, Note_off_c, 0, 86, 59
1, 27026, Note_off_c, 0, 89, 60
1, 27044, Note_on_c, 0, 94, 66
1, 27082, Note_off_c, 0, 94, 59
1, 27098, Note_on_c, 0, 101, 66
1, 27129, Note_on_c, 0, 98, 73
1, 27150, Note_on_c, 0, 77, 58
1, 27153, Note_on_c, 0, 74, 44
1, 27154, Note_off_c, 0, 101, 54
1, 27180, Note_off_c, 0, 98, 61
1, 27197, Note_off_c, 0, 74, 60
1, 27207, Note_off_c, 0, 77, 59
1, 27213, Note_on_c, 0, 81, 71
1, 27234, Note_on_c, 0, 86, 70
1, 27239, Note_on_c, 0, 89, 70
1, 27295, Note_off_c, 0, 89, 63
1, 27304, Note_off_c, 0, 86, 58
1, 27309, Note_on_c, 0, 93, 70
1, 27347, Note_off_c, 0, 93, 57
1, 27352, Note_on_c, 0, 101, 75
1, 27399, Note_off_c, 0, 81, 40
1, 27403, Note_on_c, 0, 98, 71
1, 27406, Note_off_c, 0, 101, 60
1, 27414, Note_on_c, 0, 74, 45
1, 27414, Note_on_c, 0, 77, 60
1, 27436, Note_off_c, 0, 98, 63
1, 27475, Note_on_c, 0, 82, 67
1, 27481, Note_off_c, 0, 77, 60
1, 27502, Note_on_c, 0, 86, 73
1, 27514, Note_on_c, 0, 89, 69
1, 27517, Note_off_c, 0, 74, 34
1, 27554, Note_off_c, 0, 82, 59
1, 27571, Note_off_c, 0, 86, 60
1, 27573, Note_off_c, 0, 89, 63
1, 27580, Note_on_c, 0, 94, 75
1, 27627, Note_on_c, 0, 101, 75
1, 27631, Note_off_c, 0, 94, 65
1, 27655, Note_on_c, 0, 98, 77
1, 27658, Note_on_c, 0, 74, 56
1, 27672, Note_on_c, 0, 77, 63
1, 27686, Note_off_c, 0, 101, 61
1, 27708, Note_off_c, 0, 98, 65
1, 27722, Note_on_c, 0, 81, 78
1, 27737, Note_on_c, 0, 89, 82
1, 27740, Note_off_c, 0, 77, 56
1, 27744, Note_on_c, 0, 86, 79
1, 27752, Note_off_c, 0, 74, 39
1, 27791, Note_off_c, 0, 89, 64
1, 27812, Note_on_c, 0, 93, 78
1, 27819, Note_off_c, 0, 81, 54
1, 27821, Note_off_c, 0, 86, 59
1, 27844, Note_on_c, 0, 101, 87
1, 27855, Note_off_c, 0, 93, 62
1, 27898, Note_on_c, 0, 74, 61
1, 27913, Note_on_c, 0, 77, 64
1, 27913, Note_on_c, 0, 98, 76
1, 27930, Note_off_c, 0, 101, 57
1, 27959, Note_off_c, 0, 98, 64
1, 27964, Note_on_c, 0, 82, 77
1, 27985, Note_on_c, 0, 86, 82
1, 27999, Note_on_c, 0, 89, 78
1, 28024, Note_off_c, 0, 74, 32
1, 28037, Note_off_c, 0, 77, 33
1, 28057, Note_off_c, 0, 82, 61
1, 28059, Note_off_c, 0, 86, 61
1, 28066, Note_on_c, 0, 94, 83
1, 28070, Note_off_c, 0, 89, 65
1, 28118, Note_on_c, 0, 101, 84
1, 28121, Note_off_c, 0, 94, 64
1, 28146, Note_on_c, 0, 74, 60
1, 28154, Note_on_c, 0, 98, 77
1, 28160, Note_on_c, 0, 77, 66
1, 28197, Note_off_c, 0, 101, 59
1, 28205, Note_on_c, 0, 81, 76
1, 28205, Note_off_c, 0, 98, 64
1, 28217, Note_off_c, 0, 74, 62
1, 28231, Note_on_c, 0, 86, 81
1, 28242, Note_on_c, 0, 89, 81
1, 28247, Note_off_c, 0, 77, 54
1, 28305, Note_off_c, 0, 89, 65
1, 28309, Note_off_c, 0, 86, 61
1, 28315, Note_on_c, 0, 93, 82
1, 28351, Note_off_c, 0, 81, 45
1, 28364, Note_on_c, 0, 101, 84
1, 28375, Note_off_c, 0, 93, 63
1, 28436, Note_on_c, 0, 98, 80
1, 28438, Note_off_c, 0, 101, 64
1, 28454, Note_on_c, 0, 74, 53
1, 28470, Note_off_c, 0, 98, 65
1, 28470, Note_on_c, 0, 77, 61
1, 28538, Note_on_c, 0, 82, 75
1, 28545, Control_c, 0, 64, 96
1, 28560, Control_c, 0, 64, 64
1, 28575, Control_c, 0, 64, 0
1, 28619, Control_c, 0, 64, 36
1, 28625, Note_on_c, 0, 86, 90
1, 28634, Control_c, 0, 64, 74
1, 28656, Control_c, 0, 64, 127
1, 28747, Note_on_c, 0, 89, 74
1, 28762, Note_off_c, 0, 86, 60
1, 28777, Note_off_c, 0, 82, 59
1, 28813, Note_off_c, 0, 89, 63
1, 28818, Note_on_c, 0, 94, 72
1, 28824, Note_off_c, 0, 77, 55
1, 28848, Note_off_c, 0, 74, 53
1, 28864, Note_off_c, 0, 94, 62
1, 28882, Note_on_c, 0, 101, 87
1, 28944, Note_on_c, 0, 98, 79
1, 28965, Note_off_c, 0, 101, 62
1, 29013, Note_on_c, 0, 94, 79
1, 29020, Note_off_c, 0, 98, 65
1, 29064, Note_on_c, 0, 89, 73
1, 29064, Note_off_c, 0, 94, 65
1, 29091, Note_off_c, 0, 89, 68
1, 29163, Note_on_c, 0, 86, 73
1, 29224, Note_off_c, 0, 86, 63
1, 29227, Note_on_c, 0, 82, 79
1, 29271, Note_off_c, 0, 82, 66
1, 29301, Note_on_c, 0, 77, 69
1, 29355, Note_off_c, 0, 77, 62
1, 29359, Note_on_c, 0, 82, 69
1, 29403, Note_off_c, 0, 82, 56
1, 29421, Note_on_c, 0, 89, 82
1, 29490, Note_on_c, 0, 86, 79
1, 29506, Note_off_c, 0, 89, 62
1, 29558, Note_on_c, 0, 82, 79
1, 29564, Note_off_c, 0, 86, 64
1, 29609, Note_off_c, 0, 82, 63
1, 29621, Note_on_c, 0, 77, 72
1, 29648, Note_off_c, 0, 77, 66
1, 29714, Note_on_c, 0, 74, 77
1, 29769, Note_off_c, 0, 74, 61
1, 29783, Note_on_c, 0, 70, 82
1, 29830, Note_off_c, 0, 70, 64
1, 29857, Note_on_c, 0, 65, 76
1, 29919, Note_off_c, 0, 65, 63
1, 29925, Note_on_c, 0, 70, 71
1, 29969, Note_off_c, 0, 70, 60
1, 29978, Note_on_c, 0, 77, 76
1, 30047, Note_on_c, 0, 74, 77
1, 30068, Note_off_c, 0, 77, 59
1, 30127, Note_on_c, 0, 70, 85
1, 30132, Note_off_c, 0, 74, 65
1, 30193, Note_off_c, 0, 70, 61
1, 30199, Note_on_c, 0, 65, 74
1, 30233, Note_off_c, 0, 65, 67
1, 30301, Note_on_c, 0, 62, 77
1, 30366, Note_off_c, 0, 62, 57
1, 30375, Note_on_c, 0, 58, 79
1, 30425, Note_off_c, 0, 58, 64
1, 30453, Note_on_c, 0, 53, 78
1, 30525, Note_on_c, 0, 58, 78
1, 30525, Note_off_c, 0, 53, 60
1, 30587, Note_off_c, 0, 58, 59
1, 30599, Note_on_c, 0, 65, 81
1, 30678, Note_on_c, 0, 62, 82
1, 30703, Note_off_c, 0, 65, 60
1, 30784, Note_on_c, 0, 58, 83
1, 30795, Note_off_c, 0, 62, 60
1, 30863, Note_off_c, 0, 58, 61
1, 30873, Note_on_c, 0, 53, 80
1, 30927, Note_off_c, 0, 53, 61
1, 30992, Control_c, 0, 64, 111
1, 31000, Note_on_c, 0, 50, 84
1, 31007, Control_c, 0, 64, 93
1, 31022, Control_c, 0, 64, 79
1, 31037, Control_c, 0, 64, 67
1, 31052, Control_c, 0, 64, 49
1, 31053, Note_off_c, 0, 50, 64
1, 31066, Control_c, 0, 64, 36
1, 31181, Note_on_c, 0, 46, 81
1, 31214, Control_c, 0, 64, 37
1, 31225, Note_off_c, 0, 46, 62
1, 31244, Control_c, 0, 64, 38
1, 31259, Control_c, 0, 64, 38
1, 31273, Control_c, 0, 64, 39
1, 31288, Control_c, 0, 64, 40
1, 31332, Control_c, 0, 64, 41
1, 31347, Control_c, 0, 64, 41
1, 31376, Note_on_c, 0, 41, 88
1, 31391, Control_c, 0, 64, 42
1, 31416, Note_off_c, 0, 41, 64
1, 31450, Control_c, 0, 64, 42
1, 31465, Control_c, 0, 64, 43
1, 31495, Control_c, 0, 64, 44
1, 31511, Control_c, 0, 64, 45
1, 31526, Control_c, 0, 64, 45
1, 31540, Control_c, 0, 64, 46
1, 31616, Note_on_c, 0, 38, 98
1, 31671, Note_off_c, 0, 38, 65
1, 31696, Control_c, 0, 64, 46
1, 31800, Control_c, 0, 64, 47
1, 31844, Control_c, 0, 64, 47
1, 31949, Note_on_c, 0, 34, 97
1, 31995, Note_off_c, 0, 34, 62
1, 32514, Note_on_c, 0, 33, 101
1, 32533, Control_c, 0, 64, 46
1, 32548, Control_c, 0, 64, 45
1, 32563, Control_c, 0, 64, 43
1, 32578, Control_c, 0, 64, 41
1, 32593, Control_c, 0, 64, 36
1, 32608, Control_c, 0, 64, 28
1, 32623, Control_c, 0, 64, 0
1, 32726, Control_c, 0, 64, 52
1, 32741, Control_c, 0, 64, 63
1, 32756, Control_c, 0, 64, 66
1, 32770, Control_c, 0, 64, 69
1, 32785, Control_c, 0, 64, 72
1, 32800, Control_c, 0, 64, 78
1, 32814, Control_c, 0, 64, 82
1, 32829, Control_c, 0, 64, 85
1, 32844, Control_c, 0, 64, 88
1, 32859, Control_c, 0, 64, 96
1, 32874, Control_c, 0, 64, 106
1, 32888, Control_c, 0, 64, 127
1, 33559, Note_on_c, 0, 37, 90
1, 33580, Note_off_c, 0, 33, 45
1, 33782, Note_on_c, 0, 42, 84
1, 33796, Note_off_c, 0, 37, 60
1, 33864, Note_off_c, 0, 42, 63
1, 33914, Note_on_c, 0, 45, 77
1, 33949, Note_off_c, 0, 45, 63
1, 34012, Note_on_c, 0, 49, 80
1, 34030, Note_off_c, 0, 49, 66
1, 34033, Note_on_c, 0, 48, 66
1, 34063, Note_off_c, 0, 48, 64
1, 34122, Note_on_c, 0, 54, 76
1, 34188, Note_on_c, 0, 57, 72
1, 34197, Note_off_c, 0, 54, 61
1, 34235, Note_on_c, 0, 61, 78
1, 34240, Note_off_c, 0, 57, 63
1, 34268, Control_c, 0, 64, 115
1, 34283, Control_c, 0, 64, 81
1, 34298, Control_c, 0, 64, 15
1, 34299, Note_on_c, 0, 66, 85
1, 34313, Control_c, 0, 64, 0
1, 34330, Note_off_c, 0, 61, 62
1, 34334, Note_on_c, 0, 49, 69
1, 34358, Control_c, 0, 64, 64
1, 34373, Control_c, 0, 64, 71
1, 34374, Note_off_c, 0, 66, 64
1, 34387, Control_c, 0, 64, 80
1, 34402, Control_c, 0, 64, 90
1, 34402, Note_on_c, 0, 54, 68
1, 34417, Control_c, 0, 64, 98
1, 34420, Note_off_c, 0, 49, 53
1, 34432, Control_c, 0, 64, 107
1, 34447, Control_c, 0, 64, 127
1, 34456, Note_on_c, 0, 57, 76
1, 34477, Note_off_c, 0, 54, 61
1, 34505, Note_off_c, 0, 57, 62
1, 34516, Note_on_c, 0, 61, 77
1, 34560, Note_off_c, 0, 61, 61
1, 34569, Note_on_c, 0, 66, 79
1, 34614, Note_on_c, 0, 69, 72
1, 34623, Note_off_c, 0, 66, 63
1, 34647, Note_on_c, 0, 73, 78
1, 34677, Note_off_c, 0, 69, 56
1, 34697, Note_on_c, 0, 78, 84
1, 34725, Note_off_c, 0, 73, 66
1, 34732, Note_on_c, 0, 61, 75
1, 34746, Note_off_c, 0, 78, 65
1, 34784, Note_on_c, 0, 66, 75
1, 34818, Note_on_c, 0, 69, 74
1, 34832, Note_off_c, 0, 61, 51
1, 34852, Note_off_c, 0, 66, 64
1, 34873, Note_off_c, 0, 69, 63
1, 34876, Note_on_c, 0, 73, 80
1, 34924, Note_on_c, 0, 78, 79
1, 34925, Note_off_c, 0, 73, 63
1, 34974, Note_on_c, 0, 81, 86
1, 34987, Note_off_c, 0, 78, 62
1, 34998, Note_on_c, 0, 85, 81
1, 35036, Note_off_c, 0, 81, 58
1, 35049, Note_on_c, 0, 90, 88
1, 35091, Note_off_c, 0, 85, 64
1, 35111, Note_off_c, 0, 90, 66
1, 35138, Note_on_c, 0, 73, 72
1, 35205, Note_on_c, 0, 78, 73
1, 35282, Note_on_c, 0, 81, 82
1, 35404, Note_on_c, 0, 85, 101
1, 35493, Note_off_c, 0, 73, 59
1, 35499, Note_on_c, 0, 90, 73
1, 35551, Note_off_c, 0, 85, 59
1, 35565, Note_off_c, 0, 90, 64
1, 35574, Note_on_c, 0, 93, 68
1, 35599, Note_off_c, 0, 78, 55
1, 35604, Note_off_c, 0, 81, 34
1, 35610, Note_on_c, 0, 102, 83
1, 35627, Note_off_c, 0, 93, 63
1, 35653, Note_on_c, 0, 73, 68
1, 35669, Note_on_c, 0, 97, 78
1, 35695, Note_off_c, 0, 102, 62
1, 35702, Note_on_c, 0, 78, 75
1, 35726, Note_on_c, 0, 93, 70
1, 35729, Note_on_c, 0, 81, 77
1, 35735, Note_off_c, 0, 97, 64
1, 35750, Note_off_c, 0, 73, 57
1, 35765, Note_off_c, 0, 93, 62
1, 35770, Note_on_c, 0, 85, 95
1, 35813, Note_on_c, 0, 90, 81
1, 35859, Note_off_c, 0, 85, 62
1, 35867, Note_off_c, 0, 90, 65
1, 35869, Note_on_c, 0, 93, 77
1, 35874, Note_off_c, 0, 78, 57
1, 35915, Note_on_c, 0, 102, 84
1, 35920, Note_off_c, 0, 81, 0
1, 35930, Note_off_c, 0, 93, 60
1, 35954, Poly_aftertouch_c, 0, 81, 0
1, 35955, Note_on_c, 0, 73, 63
1, 35964, Note_on_c, 0, 97, 79
1, 35991, Note_on_c, 0, 78, 69
1, 35991, Note_off_c, 0, 102, 61
1, 36020, Note_on_c, 0, 93, 73
1, 36031, Note_off_c, 0, 97, 64
1, 36036, Note_on_c, 0, 81, 75
1, 36062, Note_on_c, 0, 85, 97
1, 36065, Note_off_c, 0, 93, 56
1, 36090, Note_on_c, 0, 90, 84
1, 36103, Note_off_c, 0, 73, 30
1, 36151, Note_off_c, 0, 85, 63
1, 36159, Note_off_c, 0, 90, 65
1, 36163, Note_on_c, 0, 93, 81
1, 36184, Note_off_c, 0, 78, 57
1, 36212, Note_on_c, 0, 102, 83
1, 36226, Note_off_c, 0, 93, 62
1, 36239, Note_off_c, 0, 81, 34
1, 36255, Note_on_c, 0, 97, 79
1, 36257, Note_on_c, 0, 73, 68
1, 36288, Note_off_c, 0, 102, 63
1, 36301, Note_on_c, 0, 78, 65
1, 36326, Note_on_c, 0, 93, 75
1, 36337, Note_off_c, 0, 97, 64
1, 36344, Note_on_c, 0, 81, 67
1, 36388, Note_off_c, 0, 73, 0
1, 36392, Note_on_c, 0, 85, 95
1, 36401, Note_off_c, 0, 93, 61
1, 36426, Poly_aftertouch_c, 0, 73, 127
1, 36435, Note_on_c, 0, 90, 80
1, 36467, Poly_aftertouch_c, 0, 73, 0
1, 36477, Note_off_c, 0, 78, 57
1, 36477, Note_off_c, 0, 85, 62
1, 36503, Note_off_c, 0, 90, 65
1, 36506, Note_on_c, 0, 93, 77
1, 36564, Note_off_c, 0, 81, 46
1, 36570, Note_on_c, 0, 102, 82
1, 36586, Note_off_c, 0, 93, 61
1, 36630, Note_on_c, 0, 97, 78
1, 36651, Note_off_c, 0, 102, 64
1, 36711, Note_on_c, 0, 93, 69
1, 36729, Note_off_c, 0, 97, 62
1, 36731, Note_on_c, 0, 73, 54
1, 36770, Note_off_c, 0, 93, 59
1, 36789, Note_on_c, 0, 77, 55
1, 36841, Control_c, 0, 64, 111
1, 36855, Control_c, 0, 64, 84
1, 36862, Note_on_c, 0, 81, 72
1, 36877, Control_c, 0, 64, 66
1, 36892, Control_c, 0, 64, 0
1, 36922, Control_c, 0, 64, 42
1, 36924, Note_on_c, 0, 85, 84
1, 36936, Control_c, 0, 64, 65
1, 36951, Control_c, 0, 64, 74
1, 36966, Control_c, 0, 64, 95
1, 36981, Control_c, 0, 64, 127
1, 37026, Note_off_c, 0, 85, 58
1, 37061, Note_on_c, 0, 89, 67
1, 37070, Note_off_c, 0, 73, 39
1, 37085, Note_off_c, 0, 77, 50
1, 37120, Note_off_c, 0, 89, 64
1, 37124, Note_on_c, 0, 93, 71
1, 37142, Note_off_c, 0, 81, 33
1, 37168, Note_on_c, 0, 101, 74
1, 37193, Note_off_c, 0, 93, 50
1, 37204, Note_on_c, 0, 73, 60
1, 37224, Note_off_c, 0, 101, 64
1, 37236, Note_on_c, 0, 97, 67
1, 37238, Note_on_c, 0, 78, 69
1, 37288, Note_on_c, 0, 81, 77
1, 37302, Note_off_c, 0, 73, 56
1, 37314, Note_off_c, 0, 97, 57
1, 37320, Note_on_c, 0, 85, 91
1, 37377, Note_on_c, 0, 90, 81
1, 37417, Note_off_c, 0, 85, 60
1, 37424, Note_off_c, 0, 78, 33
1, 37436, Note_on_c, 0, 93, 67
1, 37443, Note_off_c, 0, 90, 63
1, 37480, Note_on_c, 0, 102, 84
1, 37485, Note_off_c, 0, 81, 51
1, 37514, Note_on_c, 0, 73, 65
1, 37515, Note_off_c, 0, 93, 62
1, 37516, Note_on_c, 0, 97, 76
1, 37528, Note_on_c, 0, 77, 66
1, 37570, Note_on_c, 0, 81, 79
1, 37573, Note_off_c, 0, 102, 63
1, 37591, Note_on_c, 0, 85, 93
1, 37598, Note_off_c, 0, 97, 62
1, 37616, Note_on_c, 0, 89, 83
1, 37686, Note_on_c, 0, 93, 82
1, 37687, Note_off_c, 0, 89, 65
1, 37688, Note_off_c, 0, 77, 60
1, 37693, Note_off_c, 0, 85, 63
1, 37694, Note_off_c, 0, 73, 34
1, 37726, Note_on_c, 0, 101, 86
1, 37764, Note_on_c, 0, 73, 73
1, 37766, Note_off_c, 0, 81, 40
1, 37783, Note_on_c, 0, 97, 79
1, 37786, Note_on_c, 0, 78, 73
1, 37786, Note_off_c, 0, 93, 63
1, 37788, Note_off_c, 0, 101, 64
1, 37836, Note_on_c, 0, 81, 80
1, 37843, Note_on_c, 0, 85, 98
1, 37853, Note_off_c, 0, 97, 62
1, 37862, Note_on_c, 0, 90, 84
1, 37896, Note_off_c, 0, 73, 52
1, 37926, Note_on_c, 0, 93, 81
1, 37926, Note_off_c, 0, 78, 58
1, 37928, Note_off_c, 0, 90, 65
1, 37932, Note_off_c, 0, 85, 63
1, 37958, Note_on_c, 0, 102, 86
1, 37988, Note_off_c, 0, 81, 63
1, 37996, Note_on_c, 0, 73, 75
1, 38003, Note_on_c, 0, 77, 69
1, 38009, Note_on_c, 0, 97, 73
1, 38012, Note_off_c, 0, 93, 63
1, 38049, Note_off_c, 0, 102, 64
1, 38057, Note_on_c, 0, 81, 74
1, 38065, Note_on_c, 0, 85, 95
1, 38077, Note_off_c, 0, 97, 64
1, 38083, Note_on_c, 0, 89, 86
1, 38107, Note_off_c, 0, 73, 60
1, 38142, Note_off_c, 0, 77, 60
1, 38145, Note_off_c, 0, 89, 66
1, 38148, Note_off_c, 0, 85, 63
1, 38152, Note_on_c, 0, 93, 82
1, 38176, Note_on_c, 0, 101, 85
1, 38207, Note_off_c, 0, 81, 51
1, 38218, Note_on_c, 0, 73, 73
1, 38238, Note_off_c, 0, 101, 64
1, 38245, Note_on_c, 0, 97, 80
1, 38246, Note_on_c, 0, 78, 75
1, 38249, Note_off_c, 0, 93, 62
1, 38299, Note_on_c, 0, 81, 79
1, 38313, Note_off_c, 0, 97, 61
1, 38313, Note_on_c, 0, 85, 96
1, 38337, Note_on_c, 0, 90, 85
1, 38403, Note_off_c, 0, 85, 63
1, 38404, Note_on_c, 0, 93, 79
1, 38404, Note_off_c, 0, 90, 66
1, 38409, Note_off_c, 0, 73, 34
1, 38415, Note_off_c, 0, 78, 56
1, 38448, Note_on_c, 0, 102, 84
1, 38448, Note_off_c, 0, 81, 51
1, 38471, Note_on_c, 0, 73, 67
1, 38486, Note_on_c, 0, 77, 71
1, 38489, Note_on_c, 0, 97, 78
1, 38496, Note_off_c, 0, 93, 59
1, 38532, Note_off_c, 0, 102, 64
1, 38533, Note_on_c, 0, 81, 72
1, 38543, Note_off_c, 0, 73, 61
1, 38553, Note_on_c, 0, 85, 95
1, 38568, Note_off_c, 0, 97, 62
1, 38588, Note_on_c, 0, 89, 82
1, 38617, Note_off_c, 0, 77, 56
1, 38642, Note_off_c, 0, 85, 63
1, 38650, Note_on_c, 0, 93, 83
1, 38651, Note_off_c, 0, 89, 65
1, 38708, Note_on_c, 0, 101, 85
1, 38738, Note_off_c, 0, 81, 31
1, 38743, Note_off_c, 0, 93, 58
1, 38759, Note_on_c, 0, 73, 67
1, 38764, Note_off_c, 0, 101, 64
1, 38768, Note_on_c, 0, 97, 71
1, 38815, Note_off_c, 0, 97, 61
1, 38823, Note_on_c, 0, 78, 69
1, 38876, Note_on_c, 0, 81, 79
1, 38879, Control_c, 0, 64, 78
1, 38894, Control_c, 0, 64, 0
1, 38936, Note_on_c, 0, 85, 102
1, 38938, Control_c, 0, 64, 47
1, 38953, Control_c, 0, 64, 89
1, 38968, Control_c, 0, 64, 127
1, 39007, Poly_aftertouch_c, 0, 97, 127
1, 39026, Note_off_c, 0, 81, 63
1, 39053, Note_on_c, 0, 90, 78
1, 39056, Poly_aftertouch_c, 0, 97, 0
1, 39064, Note_off_c, 0, 73, 62
1, 39067, Note_off_c, 0, 78, 62
1, 39108, Note_on_c, 0, 93, 72
1, 39110, Note_off_c, 0, 85, 56
1, 39112, Note_off_c, 0, 90, 64
1, 39165, Note_on_c, 0, 102, 92
1, 39185, Note_off_c, 0, 93, 62
1, 39221, Note_on_c, 0, 97, 84
1, 39266, Note_off_c, 0, 102, 64
1, 39267, Note_on_c, 0, 93, 72
1, 39285, Poly_aftertouch_c, 0, 99, 0
1, 39300, Note_on_c, 0, 90, 82
1, 39312, Note_off_c, 0, 97, 60
1, 39330, Note_on_c, 0, 85, 68
1, 39331, Note_off_c, 0, 93, 66
1, 39345, Note_off_c, 0, 90, 65
1, 39379, Note_off_c, 0, 85, 60
1, 39390, Note_on_c, 0, 81, 73
1, 39440, Note_off_c, 0, 81, 65
1, 39442, Note_on_c, 0, 78, 78
1, 39491, Note_on_c, 0, 81, 73
1, 39508, Note_off_c, 0, 78, 63
1, 39573, Note_on_c, 0, 90, 96
1, 39592, Note_on_c, 0, 78, 57
1, 39613, Note_off_c, 0, 81, 59
1, 39640, Note_off_c, 0, 78, 57
1, 39642, Note_on_c, 0, 85, 84
1, 39649, Note_off_c, 0, 90, 63
1, 39709, Note_on_c, 0, 81, 80
1, 39738, Note_off_c, 0, 85, 60
1, 39762, Note_on_c, 0, 78, 75
1, 39788, Note_off_c, 0, 81, 64
1, 39790, Note_on_c, 0, 75, 38
1, 39833, Note_off_c, 0, 75, 61
1, 39839, Note_on_c, 0, 73, 66
1, 39858, Note_off_c, 0, 78, 62
1, 39908, Note_on_c, 0, 69, 64
1, 39918, Note_off_c, 0, 73, 62
1, 39955, Note_off_c, 0, 69, 59
1, 39967, Note_on_c, 0, 66, 82
1, 40025, Note_on_c, 0, 69, 77
1, 40027, Note_off_c, 0, 66, 65
1, 40081, Note_on_c, 0, 78, 93
1, 40099, Note_off_c, 0, 69, 62
1, 40151, Note_on_c, 0, 73, 85
1, 40200, Note_off_c, 0, 78, 62
1, 40206, Note_on_c, 0, 69, 75
1, 40245, Note_on_c, 0, 66, 79
1, 40252, Note_off_c, 0, 73, 57
1, 40276, Note_off_c, 0, 69, 64
1, 40295, Note_off_c, 0, 66, 64
1, 40299, Note_on_c, 0, 61, 73
1, 40362, Note_on_c, 0, 57, 72
1, 40362, Note_off_c, 0, 61, 61
1, 40441, Note_off_c, 0, 57, 63
1, 40447, Note_on_c, 0, 54, 78
1, 40513, Note_on_c, 0, 57, 66
1, 40531, Note_off_c, 0, 54, 61
1, 40585, Note_on_c, 0, 66, 101
1, 40689, Note_off_c, 0, 57, 61
1, 40692, Note_on_c, 0, 61, 80
1, 40692, Note_off_c, 0, 66, 64
1, 40795, Note_on_c, 0, 57, 80
1, 40830, Note_off_c, 0, 61, 58
1, 40860, Note_on_c, 0, 54, 82
1, 40890, Note_off_c, 0, 57, 62
1, 40939, Note_on_c, 0, 49, 79
1, 40957, Note_off_c, 0, 54, 60
1, 40962, Control_c, 0, 64, 98
1, 40977, Control_c, 0, 64, 83
1, 40992, Control_c, 0, 64, 70
1, 40994, Note_off_c, 0, 49, 62
1, 41007, Control_c, 0, 64, 46
1, 41022, Control_c, 0, 64, 0
1, 41095, Note_on_c, 0, 45, 87
1, 41133, Note_off_c, 0, 45, 62
1, 41292, Note_on_c, 0, 42, 91
1, 41326, Note_off_c, 0, 42, 64
1, 41551, Note_on_c, 0, 37, 103
1, 41591, Note_off_c, 0, 37, 62
1, 41878, Note_on_c, 0, 33, 102
1, 41915, Note_off_c, 0, 33, 66
1, 42468, Note_on_c, 0, 36, 104
1, 42470, Note_on_c, 0, 24, 99
1, 42637, Control_c, 0, 64, 28
1, 42651, Control_c, 0, 64, 65
1, 42666, Control_c, 0, 64, 74
1, 42681, Control_c, 0, 64, 90
1, 42697, Control_c, 0, 64, 127
1, 42969, Note_off_c, 0, 24, 53
1, 43265, Note_off_c, 0, 36, 61
1, 43524, Note_on_c, 0, 39, 94
1, 43722, Note_on_c, 0, 42, 87
1, 43747, Note_off_c, 0, 39, 59
1, 43816, Note_on_c, 0, 45, 87
1, 43867, Note_off_c, 0, 42, 56
1, 43911, Note_on_c, 0, 48, 93
1, 43936, Note_off_c, 0, 45, 58
1, 43971, Note_off_c, 0, 48, 64
1, 43989, Note_on_c, 0, 51, 73
1, 44057, Note_off_c, 0, 51, 64
1, 44066, Note_on_c, 0, 57, 69
1, 44111, Note_on_c, 0, 63, 74
1, 44135, Control_c, 0, 64, 120
1, 44139, Note_off_c, 0, 57, 61
1, 44150, Control_c, 0, 64, 83
1, 44165, Control_c, 0, 64, 63
1, 44174, Note_on_c, 0, 66, 81
1, 44180, Control_c, 0, 64, 0
1, 44191, Note_on_c, 0, 48, 71
1, 44207, Note_off_c, 0, 63, 65
1, 44210, Control_c, 0, 64, 56
1, 44224, Control_c, 0, 64, 68
1, 44224, Note_off_c, 0, 66, 66
1, 44239, Control_c, 0, 64, 84
1, 44254, Control_c, 0, 64, 107
1, 44259, Note_on_c, 0, 54, 65
1, 44269, Control_c, 0, 64, 127
1, 44271, Note_off_c, 0, 48, 58
1, 44295, Note_on_c, 0, 57, 75
1, 44328, Note_off_c, 0, 54, 61
1, 44332, Note_off_c, 0, 57, 62
1, 44356, Note_on_c, 0, 60, 78
1, 44397, Note_on_c, 0, 63, 75
1, 44406, Note_off_c, 0, 60, 59
1, 44445, Note_on_c, 0, 69, 79
1, 44445, Note_off_c, 0, 63, 64
1, 44493, Note_on_c, 0, 75, 76
1, 44513, Note_off_c, 0, 69, 62
1, 44541, Note_on_c, 0, 78, 87
1, 44573, Note_on_c, 0, 60, 72
1, 44575, Note_off_c, 0, 75, 65
1, 44591, Note_off_c, 0, 78, 65
1, 44635, Note_on_c, 0, 66, 73
1, 44654, Note_off_c, 0, 60, 59
1, 44665, Note_on_c, 0, 69, 74
1, 44707, Note_off_c, 0, 66, 64
1, 44711, Note_off_c, 0, 69, 59
1, 44723, Note_on_c, 0, 72, 88
1, 44768, Note_on_c, 0, 75, 79
1, 44779, Note_off_c, 0, 72, 63
1, 44822, Note_on_c, 0, 81, 77
1, 44830, Note_off_c, 0, 75, 62
1, 44872, Note_on_c, 0, 87, 76
1, 44907, Note_off_c, 0, 81, 63
1, 44925, Note_on_c, 0, 90, 86
1, 44971, Note_on_c, 0, 72, 75
1, 44976, Note_off_c, 0, 87, 65
1, 45027, Note_off_c, 0, 90, 63
1, 45043, Note_on_c, 0, 78, 74
1, 45134, Note_on_c, 0, 81, 82
1, 45218, Control_c, 0, 64, 96
1, 45233, Control_c, 0, 64, 75
1, 45248, Control_c, 0, 64, 0
1, 45249, Note_on_c, 0, 84, 97
1, 45307, Control_c, 0, 64, 63
1, 45322, Control_c, 0, 64, 72
1, 45337, Control_c, 0, 64, 85
1, 45340, Note_off_c, 0, 81, 64
1, 45345, Note_off_c, 0, 78, 61
1, 45351, Control_c, 0, 64, 107
1, 45360, Note_on_c, 0, 87, 67
1, 45366, Control_c, 0, 64, 127
1, 45390, Note_off_c, 0, 84, 58
1, 45422, Note_off_c, 0, 72, 50
1, 45436, Note_on_c, 0, 93, 71
1, 45438, Note_off_c, 0, 87, 65
1, 45495, Note_on_c, 0, 102, 81
1, 45521, Note_off_c, 0, 93, 61
1, 45548, Note_on_c, 0, 99, 72
1, 45562, Note_on_c, 0, 72, 68
1, 45585, Note_off_c, 0, 102, 63
1, 45595, Note_on_c, 0, 75, 72
1, 45604, Note_on_c, 0, 93, 71
1, 45619, Note_off_c, 0, 99, 64
1, 45621, Note_on_c, 0, 78, 72
1, 45660, Note_off_c, 0, 93, 62
1, 45665, Note_on_c, 0, 81, 106
1, 45709, Note_on_c, 0, 87, 77
1, 45757, Note_off_c, 0, 72, 57
1, 45763, Note_off_c, 0, 87, 67
1, 45778, Note_on_c, 0, 93, 70
1, 45796, Note_off_c, 0, 75, 52
1, 45803, Note_off_c, 0, 81, 56
1, 45805, Note_off_c, 0, 78, 49
1, 45823, Note_on_c, 0, 102, 80
1, 45840, Note_off_c, 0, 93, 63
1, 45854, Note_on_c, 0, 99, 82
1, 45884, Note_on_c, 0, 72, 72
1, 45904, Note_off_c, 0, 102, 63
1, 45918, Note_on_c, 0, 75, 72
1, 45935, Note_on_c, 0, 93, 73
1, 45942, Note_off_c, 0, 99, 65
1, 45949, Note_on_c, 0, 78, 70
1, 45983, Note_off_c, 0, 93, 57
1, 45985, Note_on_c, 0, 81, 104
1, 46016, Note_on_c, 0, 87, 79
1, 46079, Note_off_c, 0, 87, 68
1, 46084, Note_on_c, 0, 93, 73
1, 46090, Note_off_c, 0, 72, 55
1, 46108, Note_off_c, 0, 81, 58
1, 46135, Note_off_c, 0, 75, 54
1, 46141, Note_on_c, 0, 102, 84
1, 46151, Note_off_c, 0, 78, 55
1, 46159, Note_off_c, 0, 93, 59
1, 46183, Note_on_c, 0, 99, 80
1, 46205, Note_on_c, 0, 72, 67
1, 46232, Note_off_c, 0, 102, 63
1, 46240, Note_on_c, 0, 75, 68
1, 46260, Note_on_c, 0, 93, 71
1, 46266, Note_off_c, 0, 99, 64
1, 46271, Note_on_c, 0, 78, 65
1, 46308, Note_off_c, 0, 93, 58
1, 46320, Note_on_c, 0, 81, 96
1, 46368, Note_on_c, 0, 87, 69
1, 46434, Note_off_c, 0, 87, 66
1, 46441, Note_on_c, 0, 93, 62
1, 46457, Note_off_c, 0, 81, 55
1, 46466, Note_off_c, 0, 72, 44
1, 46479, Note_off_c, 0, 75, 52
1, 46513, Note_on_c, 0, 102, 78
1, 46517, Note_off_c, 0, 93, 62
1, 46558, Note_off_c, 0, 78, 29
1, 46574, Note_on_c, 0, 99, 65
1, 46624, Note_off_c, 0, 102, 63
1, 46654, Note_on_c, 0, 93, 62
1, 46657, Note_off_c, 0, 99, 64
1, 46731, Note_off_c, 0, 93, 51
1, 46806, Note_on_c, 0, 71, 68
1, 46835, Control_c, 0, 64, 96
1, 46849, Control_c, 0, 64, 73
1, 46864, Control_c, 0, 64, 0
1, 46909, Control_c, 0, 64, 18
1, 46923, Control_c, 0, 64, 62
1, 46938, Control_c, 0, 64, 69
1, 46953, Control_c, 0, 64, 75
1, 46967, Note_on_c, 0, 75, 46
1, 46967, Control_c, 0, 64, 84
1, 46982, Control_c, 0, 64, 90
1, 46995, Note_on_c, 0, 78, 49
1, 46997, Control_c, 0, 64, 94
1, 47012, Control_c, 0, 64, 99
1, 47027, Control_c, 0, 64, 105
1, 47041, Control_c, 0, 64, 114
1, 47056, Control_c, 0, 64, 127
1, 47059, Note_on_c, 0, 81, 57
1, 47092, Note_on_c, 0, 87, 54
1, 47112, Note_off_c, 0, 71, 51
1, 47157, Note_off_c, 0, 87, 57
1, 47164, Note_off_c, 0, 78, 23
1, 47170, Note_on_c, 0, 93, 50
1, 47188, Note_off_c, 0, 75, 34
1, 47228, Note_on_c, 0, 99, 62
1, 47229, Note_off_c, 0, 93, 55
1, 47281, Note_on_c, 0, 102, 65
1, 47305, Note_off_c, 0, 99, 57
1, 47347, Note_off_c, 0, 81, 42
1, 47349, Note_on_c, 0, 72, 73
1, 47375, Control_c, 0, 64, 111
1, 47390, Control_c, 0, 64, 93
1, 47405, Control_c, 0, 64, 78
1, 47417, Note_on_c, 0, 75, 49
1, 47420, Control_c, 0, 64, 66
1, 47435, Control_c, 0, 64, 55
1, 47449, Control_c, 0, 64, 62
1, 47462, Note_on_c, 0, 78, 50
1, 47464, Control_c, 0, 64, 66
1, 47479, Control_c, 0, 64, 72
1, 47494, Control_c, 0, 64, 79
1, 47509, Control_c, 0, 64, 86
1, 47517, Note_off_c, 0, 102, 37
1, 47524, Control_c, 0, 64, 88
1, 47529, Note_off_c, 0, 72, 54
1, 47536, Note_on_c, 0, 81, 59
1, 47539, Control_c, 0, 64, 89
1, 47554, Control_c, 0, 64, 91
1, 47569, Control_c, 0, 64, 93
1, 47584, Control_c, 0, 64, 95
1, 47598, Control_c, 0, 64, 97
1, 47612, Note_on_c, 0, 87, 52
1, 47613, Control_c, 0, 64, 98
1, 47628, Control_c, 0, 64, 99
1, 47643, Note_off_c, 0, 75, 26
1, 47643, Control_c, 0, 64, 100
1, 47658, Control_c, 0, 64, 100
1, 47672, Note_off_c, 0, 87, 57
1, 47672, Control_c, 0, 64, 101
1, 47688, Note_on_c, 0, 93, 49
1, 47689, Note_off_c, 0, 78, 19
1, 47702, Control_c, 0, 64, 101
1, 47703, Note_off_c, 0, 81, 27
1, 47729, Note_on_c, 0, 99, 60
1, 47757, Note_off_c, 0, 93, 58
1, 47790, Note_on_c, 0, 102, 67
1, 47820, Control_c, 0, 64, 101
1, 47823, Note_on_c, 0, 71, 61
1, 47835, Control_c, 0, 64, 96
1, 47837, Note_off_c, 0, 99, 47
1, 47850, Control_c, 0, 64, 88
1, 47864, Control_c, 0, 64, 78
1, 47879, Control_c, 0, 64, 69
1, 47894, Control_c, 0, 64, 64
1, 47897, Note_on_c, 0, 75, 46
1, 47909, Control_c, 0, 64, 65
1, 47916, Note_on_c, 0, 78, 59
1, 47924, Control_c, 0, 64, 70
1, 47939, Control_c, 0, 64, 77
1, 47954, Control_c, 0, 64, 86
1, 47967, Note_off_c, 0, 102, 49
1, 47968, Control_c, 0, 64, 92
1, 47972, Note_on_c, 0, 81, 63
1, 47983, Control_c, 0, 64, 94
1, 47998, Control_c, 0, 64, 96
1, 48013, Control_c, 0, 64, 97
1, 48028, Control_c, 0, 64, 99
1, 48038, Note_on_c, 0, 87, 50
1, 48043, Control_c, 0, 64, 99
1, 48049, Note_off_c, 0, 71, 37
1, 48057, Control_c, 0, 64, 100
1, 48072, Control_c, 0, 64, 100
1, 48087, Control_c, 0, 64, 101
1, 48101, Note_on_c, 0, 93, 59
1, 48101, Note_off_c, 0, 87, 59
1, 48152, Note_on_c, 0, 99, 60
1, 48159, Note_off_c, 0, 78, 17
1, 48164, Note_off_c, 0, 75, 41
1, 48183, Note_off_c, 0, 93, 60
1, 48203, Note_on_c, 0, 72, 72
1, 48204, Note_on_c, 0, 102, 66
1, 48213, Control_c, 0, 64, 100
1, 48214, Note_off_c, 0, 81, 43
1, 48228, Control_c, 0, 64, 93
1, 48243, Control_c, 0, 64, 81
1, 48255, Note_on_c, 0, 75, 62
1, 48258, Control_c, 0, 64, 70
1, 48272, Control_c, 0, 64, 62
1, 48277, Note_on_c, 0, 78, 64
1, 48281, Note_off_c, 0, 72, 61
1, 48285, Note_off_c, 0, 99, 36
1, 48287, Control_c, 0, 64, 63
1, 48302, Control_c, 0, 64, 66
1, 48315, Note_off_c, 0, 102, 60
1, 48317, Control_c, 0, 64, 72
1, 48323, Note_on_c, 0, 81, 65
1, 48332, Control_c, 0, 64, 81
1, 48338, Note_off_c, 0, 75, 53
1, 48347, Control_c, 0, 64, 88
1, 48362, Control_c, 0, 64, 90
1, 48371, Note_off_c, 0, 78, 47
1, 48382, Note_on_c, 0, 87, 57
1, 48392, Control_c, 0, 64, 91
1, 48407, Control_c, 0, 64, 91
1, 48421, Control_c, 0, 64, 92
1, 48427, Note_off_c, 0, 87, 59
1, 48433, Note_on_c, 0, 93, 58
1, 48436, Control_c, 0, 64, 93
1, 48451, Control_c, 0, 64, 94
1, 48466, Control_c, 0, 64, 96
1, 48478, Note_on_c, 0, 99, 67
1, 48481, Control_c, 0, 64, 98
1, 48511, Note_off_c, 0, 81, 26
1, 48514, Note_off_c, 0, 93, 60
1, 48525, Control_c, 0, 64, 97
1, 48526, Note_on_c, 0, 102, 74
1, 48539, Control_c, 0, 64, 89
1, 48554, Control_c, 0, 64, 79
1, 48559, Note_on_c, 0, 71, 75
1, 48568, Note_off_c, 0, 99, 59
1, 48569, Control_c, 0, 64, 68
1, 48584, Control_c, 0, 64, 61
1, 48599, Control_c, 0, 64, 64
1, 48613, Control_c, 0, 64, 68
1, 48621, Note_on_c, 0, 75, 65
1, 48628, Control_c, 0, 64, 75
1, 48633, Note_off_c, 0, 102, 57
1, 48643, Control_c, 0, 64, 85
1, 48656, Note_on_c, 0, 78, 63
1, 48658, Control_c, 0, 64, 91
1, 48673, Control_c, 0, 64, 92
1, 48687, Control_c, 0, 64, 92
1, 48699, Note_on_c, 0, 81, 69
1, 48702, Control_c, 0, 64, 93
1, 48708, Note_off_c, 0, 71, 55
1, 48717, Note_on_c, 0, 87, 58
1, 48717, Control_c, 0, 64, 93
1, 48727, Note_off_c, 0, 78, 58
1, 48732, Control_c, 0, 64, 94
1, 48746, Control_c, 0, 64, 94
1, 48759, Note_off_c, 0, 87, 60
1, 48760, Note_on_c, 0, 93, 62
1, 48761, Control_c, 0, 64, 95
1, 48776, Control_c, 0, 64, 96
1, 48791, Control_c, 0, 64, 98
1, 48803, Note_on_c, 0, 99, 74
1, 48806, Control_c, 0, 64, 98
1, 48824, Note_off_c, 0, 75, 42
1, 48832, Note_off_c, 0, 93, 60
1, 48836, Control_c, 0, 64, 96
1, 48842, Note_on_c, 0, 102, 71
1, 48851, Control_c, 0, 64, 87
1, 48853, Note_off_c, 0, 81, 59
1, 48873, Control_c, 0, 64, 75
1, 48882, Note_on_c, 0, 72, 87
1, 48887, Control_c, 0, 64, 65
1, 48902, Control_c, 0, 64, 60
1, 48913, Note_off_c, 0, 99, 53
1, 48917, Control_c, 0, 64, 65
1, 48932, Control_c, 0, 64, 71
1, 48937, Note_on_c, 0, 75, 62
1, 48946, Control_c, 0, 64, 81
1, 48954, Note_off_c, 0, 102, 56
1, 48958, Note_off_c, 0, 72, 64
1, 48961, Control_c, 0, 64, 91
1, 48973, Note_on_c, 0, 78, 74
1, 48976, Control_c, 0, 64, 96
1, 48991, Control_c, 0, 64, 97
1, 49006, Control_c, 0, 64, 98
1, 49021, Control_c, 0, 64, 98
1, 49023, Note_on_c, 0, 81, 67
1, 49026, Note_off_c, 0, 75, 58
1, 49034, Note_on_c, 0, 87, 64
1, 49036, Control_c, 0, 64, 99
1, 49045, Note_off_c, 0, 78, 58
1, 49050, Control_c, 0, 64, 99
1, 49065, Control_c, 0, 64, 101
1, 49075, Note_on_c, 0, 93, 65
1, 49080, Control_c, 0, 64, 103
1, 49089, Note_off_c, 0, 87, 64
1, 49096, Control_c, 0, 64, 106
1, 49111, Control_c, 0, 64, 108
1, 49112, Note_on_c, 0, 99, 75
1, 49140, Control_c, 0, 64, 106
1, 49149, Note_off_c, 0, 93, 62
1, 49154, Note_on_c, 0, 102, 79
1, 49155, Control_c, 0, 64, 95
1, 49157, Note_off_c, 0, 81, 60
1, 49170, Control_c, 0, 64, 81
1, 49185, Control_c, 0, 64, 67
1, 49193, Note_off_c, 0, 99, 62
1, 49196, Note_on_c, 0, 71, 81
1, 49200, Control_c, 0, 64, 35
1, 49214, Control_c, 0, 64, 49
1, 49229, Control_c, 0, 64, 65
1, 49244, Control_c, 0, 64, 72
1, 49259, Control_c, 0, 64, 82
1, 49265, Note_off_c, 0, 102, 59
1, 49274, Control_c, 0, 64, 93
1, 49286, Note_on_c, 0, 75, 67
1, 49289, Control_c, 0, 64, 97
1, 49304, Control_c, 0, 64, 97
1, 49310, Note_off_c, 0, 71, 63
1, 49318, Control_c, 0, 64, 98
1, 49319, Note_on_c, 0, 78, 71
1, 49333, Control_c, 0, 64, 100
1, 49348, Control_c, 0, 64, 101
1, 49349, Note_on_c, 0, 87, 63
1, 49358, Note_off_c, 0, 75, 60
1, 49362, Control_c, 0, 64, 104
1, 49376, Note_on_c, 0, 81, 71
1, 49377, Control_c, 0, 64, 106
1, 49387, Note_off_c, 0, 78, 59
1, 49392, Control_c, 0, 64, 109
1, 49394, Note_on_c, 0, 93, 66
1, 49395, Note_off_c, 0, 87, 65
1, 49407, Control_c, 0, 64, 111
1, 49422, Control_c, 0, 64, 113
1, 49424, Note_on_c, 0, 99, 76
1, 49436, Control_c, 0, 64, 118
1, 49451, Control_c, 0, 64, 127
1, 49464, Note_on_c, 0, 102, 80
1, 49469, Note_off_c, 0, 93, 59
1, 49474, Note_off_c, 0, 81, 64
1, 49496, Control_c, 0, 64, 116
1, 49506, Note_on_c, 0, 72, 98
1, 49507, Note_off_c, 0, 99, 60
1, 49510, Control_c, 0, 64, 96
1, 49525, Control_c, 0, 64, 77
1, 49540, Control_c, 0, 64, 64
1, 49554, Control_c, 0, 64, 60
1, 49569, Control_c, 0, 64, 66
1, 49584, Control_c, 0, 64, 74
1, 49587, Note_off_c, 0, 102, 59
1, 49592, Note_on_c, 0, 75, 69
1, 49599, Control_c, 0, 64, 89
1, 49622, Control_c, 0, 64, 111
1, 49629, Note_on_c, 0, 78, 74
1, 49634, Note_off_c, 0, 72, 62
1, 49636, Control_c, 0, 64, 127
1, 49666, Note_off_c, 0, 75, 63
1, 49685, Note_on_c, 0, 87, 68
1, 49694, Note_on_c, 0, 81, 74
1, 49694, Note_off_c, 0, 78, 60
1, 49733, Note_on_c, 0, 93, 73
1, 49736, Note_off_c, 0, 87, 65
1, 49773, Note_on_c, 0, 99, 75
1, 49799, Note_off_c, 0, 93, 62
1, 49814, Note_on_c, 0, 102, 79
1, 49835, Note_off_c, 0, 81, 59
1, 49846, Note_off_c, 0, 99, 64
1, 49889, Control_c, 0, 64, 94
1, 49898, Note_on_c, 0, 72, 101
1, 49904, Control_c, 0, 64, 72
1, 49909, Note_off_c, 0, 102, 61
1, 49919, Control_c, 0, 64, 0
1, 49978, Control_c, 0, 64, 59
1, 49992, Control_c, 0, 64, 68
1, 50007, Control_c, 0, 64, 75
1, 50022, Note_on_c, 0, 76, 69
1, 50022, Control_c, 0, 64, 87
1, 50030, Note_off_c, 0, 72, 63
1, 50037, Control_c, 0, 64, 98
1, 50052, Control_c, 0, 64, 102
1, 50067, Control_c, 0, 64, 105
1, 50082, Control_c, 0, 64, 111
1, 50087, Note_on_c, 0, 79, 70
1, 50097, Control_c, 0, 64, 119
1, 50104, Note_off_c, 0, 76, 61
1, 50111, Control_c, 0, 64, 127
1, 50142, Note_on_c, 0, 88, 70
1, 50151, Note_on_c, 0, 82, 73
1, 50155, Note_off_c, 0, 79, 62
1, 50191, Note_on_c, 0, 94, 74
1, 50191, Note_off_c, 0, 88, 64
1, 50238, Note_on_c, 0, 100, 68
1, 50258, Note_off_c, 0, 94, 65
1, 50281, Note_on_c, 0, 103, 91
1, 50291, Note_off_c, 0, 100, 66
1, 50293, Note_off_c, 0, 82, 58
1, 50318, Control_c, 0, 64, 95
1, 50333, Control_c, 0, 64, 68
1, 50348, Control_c, 0, 64, 0
1, 50349, Note_on_c, 0, 73, 100
1, 50360, Note_off_c, 0, 103, 54
1, 50385, Control_c, 0, 64, 52
1, 50400, Control_c, 0, 64, 67
1, 50415, Control_c, 0, 64, 75
1, 50430, Control_c, 0, 64, 92
1, 50437, Note_on_c, 0, 76, 71
1, 50445, Control_c, 0, 64, 105
1, 50459, Control_c, 0, 64, 108
1, 50461, Note_off_c, 0, 73, 62
1, 50474, Control_c, 0, 64, 111
1, 50481, Note_on_c, 0, 79, 62
1, 50489, Control_c, 0, 64, 115
1, 50504, Control_c, 0, 64, 127
1, 50511, Note_on_c, 0, 88, 70
1, 50523, Note_off_c, 0, 76, 62
1, 50529, Note_on_c, 0, 82, 63
1, 50560, Note_on_c, 0, 94, 73
1, 50560, Note_off_c, 0, 88, 65
1, 50599, Note_on_c, 0, 100, 70
1, 50618, Note_off_c, 0, 94, 66
1, 50623, Note_off_c, 0, 82, 58
1, 50643, Note_on_c, 0, 103, 91
1, 50651, Note_off_c, 0, 79, 28
1, 50655, Note_off_c, 0, 100, 64
1, 50687, Note_on_c, 0, 72, 100
1, 50697, Control_c, 0, 64, 90
1, 50712, Control_c, 0, 64, 67
1, 50723, Note_off_c, 0, 103, 56
1, 50727, Control_c, 0, 64, 0
1, 50734, Note_on_c, 0, 76, 62
1, 50756, Control_c, 0, 64, 62
1, 50771, Control_c, 0, 64, 71
1, 50779, Note_off_c, 0, 72, 63
1, 50786, Control_c, 0, 64, 82
1, 50790, Note_on_c, 0, 79, 76
1, 50801, Control_c, 0, 64, 96
1, 50815, Control_c, 0, 64, 103
1, 50819, Note_off_c, 0, 76, 65
1, 50830, Control_c, 0, 64, 104
1, 50845, Note_on_c, 0, 82, 62
1, 50845, Control_c, 0, 64, 105
1, 50848, Note_on_c, 0, 88, 70
1, 50860, Control_c, 0, 64, 107
1, 50875, Control_c, 0, 64, 110
1, 50885, Note_off_c, 0, 79, 51
1, 50889, Control_c, 0, 64, 114
1, 50899, Note_on_c, 0, 94, 71
1, 50902, Note_off_c, 0, 88, 65
1, 50904, Control_c, 0, 64, 118
1, 50919, Control_c, 0, 64, 122
1, 50930, Note_on_c, 0, 100, 77
1, 50933, Control_c, 0, 64, 126
1, 50949, Note_off_c, 0, 82, 58
1, 50953, Note_off_c, 0, 94, 66
1, 50963, Control_c, 0, 64, 127
1, 50973, Note_on_c, 0, 103, 90
1, 50980, Note_off_c, 0, 100, 67
1, 51009, Note_on_c, 0, 73, 98
1, 51026, Note_off_c, 0, 103, 63
1, 51063, Note_on_c, 0, 76, 65
1, 51110, Note_off_c, 0, 73, 61
1, 51117, Note_on_c, 0, 79, 66
1, 51145, Note_off_c, 0, 76, 64
1, 51159, Note_on_c, 0, 82, 62
1, 51166, Note_on_c, 0, 88, 69
1, 51209, Note_on_c, 0, 94, 72
1, 51212, Note_off_c, 0, 88, 62
1, 51237, Note_on_c, 0, 100, 80
1, 51238, Note_off_c, 0, 82, 59
1, 51265, Note_off_c, 0, 94, 66
1, 51266, Control_c, 0, 64, 103
1, 51281, Control_c, 0, 64, 82
1, 51283, Note_on_c, 0, 103, 88
1, 51292, Note_off_c, 0, 100, 64
1, 51296, Control_c, 0, 64, 65
1, 51311, Note_on_c, 0, 72, 89
1, 51311, Control_c, 0, 64, 0
1, 51326, Control_c, 0, 64, 55
1, 51340, Control_c, 0, 64, 68
1, 51355, Control_c, 0, 64, 77
1, 51358, Note_off_c, 0, 103, 65
1, 51365, Note_off_c, 0, 79, 18
1, 51370, Note_on_c, 0, 76, 68
1, 51370, Control_c, 0, 64, 93
1, 51385, Control_c, 0, 64, 110
1, 51400, Note_off_c, 0, 72, 61
1, 51400, Control_c, 0, 64, 119
1, 51414, Control_c, 0, 64, 127
1, 51419, Note_on_c, 0, 79, 50
1, 51446, Note_off_c, 0, 76, 61
1, 51458, Note_on_c, 0, 88, 71
1, 51472, Note_on_c, 0, 82, 60
1, 51490, Note_off_c, 0, 79, 62
1, 51505, Note_on_c, 0, 94, 76
1, 51509, Note_off_c, 0, 88, 63
1, 51541, Note_on_c, 0, 100, 73
1, 51549, Note_off_c, 0, 82, 59
1, 51563, Note_off_c, 0, 94, 66
1, 51587, Note_on_c, 0, 103, 85
1, 51599, Note_off_c, 0, 100, 59
1, 51617, Note_on_c, 0, 73, 94
1, 51623, Control_c, 0, 64, 94
1, 51638, Control_c, 0, 64, 72
1, 51641, Note_off_c, 0, 103, 65
1, 51653, Control_c, 0, 64, 0
1, 51673, Note_on_c, 0, 76, 69
1, 51682, Control_c, 0, 64, 12
1, 51697, Control_c, 0, 64, 64
1, 51710, Note_off_c, 0, 73, 61
1, 51712, Control_c, 0, 64, 71
1, 51715, Note_on_c, 0, 79, 67
1, 51727, Control_c, 0, 64, 84
1, 51742, Control_c, 0, 64, 95
1, 51749, Note_on_c, 0, 82, 61
1, 51756, Note_off_c, 0, 76, 62
1, 51756, Control_c, 0, 64, 100
1, 51771, Control_c, 0, 64, 101
1, 51772, Note_on_c, 0, 88, 65
1, 51786, Control_c, 0, 64, 102
1, 51798, Note_off_c, 0, 79, 51
1, 51801, Control_c, 0, 64, 105
1, 51808, Note_on_c, 0, 94, 74
1, 51810, Note_off_c, 0, 88, 59
1, 51816, Control_c, 0, 64, 107
1, 51817, Poly_aftertouch_c, 0, 73, 127
1, 51830, Control_c, 0, 64, 111
1, 51839, Note_off_c, 0, 82, 59
1, 51845, Control_c, 0, 64, 114
1, 51855, Note_on_c, 0, 100, 78
1, 51867, Control_c, 0, 64, 116
1, 51876, Poly_aftertouch_c, 0, 73, 0
1, 51879, Note_off_c, 0, 94, 65
1, 51882, Control_c, 0, 64, 121
1, 51897, Control_c, 0, 64, 127
1, 51900, Note_on_c, 0, 103, 88
1, 51916, Note_off_c, 0, 100, 65
1, 51939, Note_on_c, 0, 73, 91
1, 51942, Control_c, 0, 64, 114
1, 51956, Control_c, 0, 64, 94
1, 51959, Note_off_c, 0, 103, 64
1, 51971, Control_c, 0, 64, 77
1, 51986, Control_c, 0, 64, 64
1, 51994, Note_on_c, 0, 76, 56
1, 52001, Control_c, 0, 64, 62
1, 52016, Control_c, 0, 64, 68
1, 52031, Control_c, 0, 64, 80
1, 52031, Note_off_c, 0, 73, 62
1, 52034, Note_on_c, 0, 79, 72
1, 52045, Control_c, 0, 64, 93
1, 52060, Control_c, 0, 64, 103
1, 52075, Control_c, 0, 64, 106
1, 52083, Note_off_c, 0, 76, 57
1, 52087, Note_on_c, 0, 82, 50
1, 52089, Control_c, 0, 64, 109
1, 52103, Note_on_c, 0, 88, 63
1, 52104, Control_c, 0, 64, 111
1, 52119, Control_c, 0, 64, 113
1, 52134, Control_c, 0, 64, 116
1, 52145, Note_off_c, 0, 82, 57
1, 52149, Control_c, 0, 64, 121
1, 52154, Note_off_c, 0, 88, 62
1, 52157, Note_on_c, 0, 94, 69
1, 52163, Control_c, 0, 64, 127
1, 52215, Note_on_c, 0, 100, 61
1, 52221, Note_off_c, 0, 79, 26
1, 52234, Note_off_c, 0, 94, 64
1, 52272, Note_on_c, 0, 103, 70
1, 52285, Note_off_c, 0, 100, 62
1, 52298, Control_c, 0, 64, 112
1, 52312, Control_c, 0, 64, 87
1, 52327, Control_c, 0, 64, 65
1, 52328, Note_on_c, 0, 72, 81
1, 52341, Control_c, 0, 64, 0
1, 52350, Note_off_c, 0, 103, 59
1, 52371, Control_c, 0, 64, 42
1, 52386, Control_c, 0, 64, 65
1, 52401, Control_c, 0, 64, 71
1, 52416, Note_on_c, 0, 76, 59
1, 52416, Control_c, 0, 64, 82
1, 52425, Note_off_c, 0, 72, 59
1, 52431, Control_c, 0, 64, 91
1, 52446, Control_c, 0, 64, 95
1, 52449, Note_on_c, 0, 79, 54
1, 52460, Control_c, 0, 64, 97
1, 52475, Control_c, 0, 64, 99
1, 52490, Control_c, 0, 64, 103
1, 52496, Note_off_c, 0, 76, 57
1, 52504, Control_c, 0, 64, 107
1, 52505, Note_on_c, 0, 82, 49
1, 52519, Control_c, 0, 64, 111
1, 52526, Note_off_c, 0, 79, 52
1, 52532, Note_on_c, 0, 88, 61
1, 52534, Control_c, 0, 64, 114
1, 52549, Control_c, 0, 64, 116
1, 52564, Control_c, 0, 64, 117
1, 52570, Note_off_c, 0, 88, 63
1, 52570, Note_off_c, 0, 82, 55
1, 52581, Note_on_c, 0, 94, 67
1, 52593, Control_c, 0, 64, 117
1, 52644, Note_on_c, 0, 100, 59
1, 52645, Note_off_c, 0, 94, 65
1, 52708, Note_on_c, 0, 103, 80
1, 52711, Note_off_c, 0, 100, 65
1, 52719, Control_c, 0, 64, 113
1, 52734, Control_c, 0, 64, 96
1, 52735, Note_on_c, 0, 72, 70
1, 52749, Control_c, 0, 64, 81
1, 52764, Control_c, 0, 64, 69
1, 52778, Note_on_c, 0, 76, 56
1, 52778, Control_c, 0, 64, 63
1, 52785, Note_off_c, 0, 103, 60
1, 52793, Control_c, 0, 64, 65
1, 52804, Note_off_c, 0, 72, 60
1, 52808, Control_c, 0, 64, 71
1, 52813, Note_on_c, 0, 79, 49
1, 52823, Control_c, 0, 64, 83
1, 52837, Control_c, 0, 64, 92
1, 52852, Control_c, 0, 64, 95
1, 52863, Note_off_c, 0, 76, 56
1, 52867, Control_c, 0, 64, 96
1, 52869, Note_on_c, 0, 82, 48
1, 52882, Control_c, 0, 64, 97
1, 52887, Note_off_c, 0, 79, 51
1, 52897, Control_c, 0, 64, 97
1, 52923, Note_on_c, 0, 88, 57
1, 52926, Control_c, 0, 64, 98
1, 52937, Note_off_c, 0, 82, 50
1, 52941, Control_c, 0, 64, 99
1, 52955, Note_off_c, 0, 88, 65
1, 52956, Control_c, 0, 64, 100
1, 52961, Note_on_c, 0, 94, 64
1, 52971, Control_c, 0, 64, 101
1, 53006, Note_on_c, 0, 100, 66
1, 53015, Note_off_c, 0, 94, 64
1, 53015, Control_c, 0, 64, 101
1, 53030, Control_c, 0, 64, 90
1, 53045, Control_c, 0, 64, 76
1, 53060, Control_c, 0, 64, 61
1, 53069, Note_on_c, 0, 103, 73
1, 53074, Note_on_c, 0, 71, 55
1, 53076, Control_c, 0, 64, 0
1, 53082, Note_off_c, 0, 100, 58
1, 53106, Control_c, 0, 64, 55
1, 53116, Note_on_c, 0, 76, 51
1, 53121, Control_c, 0, 64, 66
1, 53127, Note_off_c, 0, 103, 60
1, 53135, Control_c, 0, 64, 72
1, 53148, Note_on_c, 0, 79, 43
1, 53150, Control_c, 0, 64, 81
1, 53165, Control_c, 0, 64, 88
1, 53176, Note_on_c, 0, 83, 56
1, 53180, Control_c, 0, 64, 89
1, 53188, Note_off_c, 0, 71, 36
1, 53195, Control_c, 0, 64, 90
1, 53209, Control_c, 0, 64, 90
1, 53223, Note_off_c, 0, 79, 34
1, 53224, Control_c, 0, 64, 91
1, 53228, Note_off_c, 0, 76, 35
1, 53239, Control_c, 0, 64, 92
1, 53242, Note_on_c, 0, 88, 51
1, 53254, Control_c, 0, 64, 93
1, 53268, Note_off_c, 0, 88, 58
1, 53268, Control_c, 0, 64, 94
1, 53275, Note_off_c, 0, 83, 37
1, 53282, Note_on_c, 0, 95, 57
1, 53283, Control_c, 0, 64, 95
1, 53298, Control_c, 0, 64, 95
1, 53313, Control_c, 0, 64, 96
1, 53318, Note_on_c, 0, 100, 67
1, 53328, Control_c, 0, 64, 96
1, 53337, Note_off_c, 0, 95, 59
1, 53365, Control_c, 0, 64, 97
1, 53371, Note_on_c, 0, 71, 59
1, 53371, Note_on_c, 0, 103, 73
1, 53385, Note_off_c, 0, 100, 60
1, 53395, Control_c, 0, 64, 98
1, 53409, Control_c, 0, 64, 98
1, 53423, Note_off_c, 0, 103, 64
1, 53424, Control_c, 0, 64, 99
1, 53428, Note_off_c, 0, 71, 58
1, 53433, Note_on_c, 0, 76, 52
1, 53439, Control_c, 0, 64, 99
1, 53453, Control_c, 0, 64, 100
1, 53468, Control_c, 0, 64, 100
1, 53477, Note_on_c, 0, 79, 37
1, 53492, Note_on_c, 0, 83, 51
1, 53498, Control_c, 0, 64, 101
1, 53506, Note_off_c, 0, 76, 48
1, 53513, Control_c, 0, 64, 101
1, 53521, Note_off_c, 0, 79, 45
1, 53526, Note_on_c, 0, 88, 53
1, 53528, Control_c, 0, 64, 102
1, 53542, Note_off_c, 0, 83, 57
1, 53553, Note_off_c, 0, 88, 58
1, 53561, Note_on_c, 0, 95, 64
1, 53573, Control_c, 0, 64, 96
1, 53587, Control_c, 0, 64, 83
1, 53602, Control_c, 0, 64, 69
1, 53611, Note_on_c, 0, 100, 65
1, 53617, Control_c, 0, 64, 0
1, 53621, Note_off_c, 0, 95, 61
1, 53638, Note_on_c, 0, 103, 77
1, 53641, Note_on_c, 0, 70, 65
1, 53647, Control_c, 0, 64, 56
1, 53661, Control_c, 0, 64, 66
1, 53665, Note_off_c, 0, 100, 62
1, 53676, Control_c, 0, 64, 74
1, 53691, Control_c, 0, 64, 85
1, 53698, Note_off_c, 0, 103, 63
1, 53704, Note_on_c, 0, 76, 56
1, 53704, Note_off_c, 0, 70, 53
1, 53706, Control_c, 0, 64, 93
1, 53721, Control_c, 0, 64, 96
1, 53735, Control_c, 0, 64, 96
1, 53736, Note_on_c, 0, 79, 57
1, 53750, Control_c, 0, 64, 98
1, 53765, Control_c, 0, 64, 99
1, 53769, Note_on_c, 0, 84, 57
1, 53780, Control_c, 0, 64, 100
1, 53795, Control_c, 0, 64, 100
1, 53797, Note_off_c, 0, 79, 51
1, 53802, Note_on_c, 0, 88, 52
1, 53806, Note_off_c, 0, 84, 54
1, 53809, Control_c, 0, 64, 101
1, 53833, Note_off_c, 0, 88, 64
1, 53839, Control_c, 0, 64, 101
1, 53850, Note_on_c, 0, 96, 64
1, 53853, Note_off_c, 0, 76, 32
1, 53868, Control_c, 0, 64, 102
1, 53884, Note_on_c, 0, 100, 62
1, 53884, Control_c, 0, 64, 102
1, 53894, Note_off_c, 0, 96, 62
1, 53914, Control_c, 0, 64, 100
1, 53915, Note_on_c, 0, 70, 64
1, 53927, Note_on_c, 0, 103, 75
1, 53929, Control_c, 0, 64, 89
1, 53942, Note_off_c, 0, 100, 59
1, 53944, Control_c, 0, 64, 76
1, 53958, Control_c, 0, 64, 66
1, 53973, Control_c, 0, 64, 64
1, 53975, Note_off_c, 0, 70, 58
1, 53977, Note_off_c, 0, 103, 65
1, 53981, Note_on_c, 0, 76, 50
1, 53988, Control_c, 0, 64, 68
1, 54003, Control_c, 0, 64, 75
1, 54007, Note_on_c, 0, 79, 50
1, 54018, Control_c, 0, 64, 89
1, 54032, Control_c, 0, 64, 99
1, 54043, Note_on_c, 0, 84, 61
1, 54047, Control_c, 0, 64, 103
1, 54062, Control_c, 0, 64, 105
1, 54064, Note_off_c, 0, 76, 45
1, 54071, Note_on_c, 0, 88, 59
1, 54076, Control_c, 0, 64, 107
1, 54078, Note_off_c, 0, 84, 62
1, 54079, Note_off_c, 0, 79, 51
1, 54091, Control_c, 0, 64, 109
1, 54112, Note_off_c, 0, 88, 67
1, 54114, Control_c, 0, 64, 110
1, 54129, Control_c, 0, 64, 112
1, 54138, Note_on_c, 0, 96, 58
1, 54144, Control_c, 0, 64, 114
1, 54158, Control_c, 0, 64, 115
1, 54167, Note_on_c, 0, 100, 63
1, 54169, Note_off_c, 0, 96, 64
1, 54173, Control_c, 0, 64, 114
1, 54188, Control_c, 0, 64, 101
1, 54202, Note_on_c, 0, 69, 56
1, 54203, Control_c, 0, 64, 80
1, 54218, Note_on_c, 0, 103, 66
1, 54218, Control_c, 0, 64, 31
1, 54228, Note_off_c, 0, 100, 62
1, 54232, Control_c, 0, 64, 0
1, 54249, Note_off_c, 0, 69, 44
1, 54262, Control_c, 0, 64, 63
1, 54274, Note_off_c, 0, 103, 62
1, 54277, Control_c, 0, 64, 71
1, 54285, Note_on_c, 0, 76, 46
1, 54292, Control_c, 0, 64, 84
1, 54299, Note_on_c, 0, 79, 48
1, 54307, Control_c, 0, 64, 99
1, 54322, Control_c, 0, 64, 120
1, 54337, Control_c, 0, 64, 127
1, 54366, Note_on_c, 0, 85, 58
1, 54395, Note_off_c, 0, 85, 64
1, 54398, Note_off_c, 0, 79, 45
1, 54398, Note_on_c, 0, 88, 59
1, 54431, Note_off_c, 0, 76, 37
1, 54431, Note_off_c, 0, 88, 64
1, 54440, Control_c, 0, 67, 9
1, 54455, Control_c, 0, 67, 9
1, 54457, Note_on_c, 0, 97, 55
1, 54485, Control_c, 0, 67, 10
1, 54493, Note_on_c, 0, 100, 63
1, 54500, Control_c, 0, 67, 11
1, 54505, Note_off_c, 0, 97, 58
1, 54514, Control_c, 0, 67, 14
1, 54529, Control_c, 0, 67, 18
1, 54535, Note_on_c, 0, 69, 58
1, 54544, Control_c, 0, 67, 21
1, 54555, Note_on_c, 0, 103, 69
1, 54559, Control_c, 0, 67, 23
1, 54559, Note_off_c, 0, 100, 60
1, 54591, Note_off_c, 0, 69, 60
1, 54603, Control_c, 0, 67, 23
1, 54618, Control_c, 0, 67, 25
1, 54625, Note_off_c, 0, 103, 55
1, 54633, Control_c, 0, 67, 27
1, 54646, Note_on_c, 0, 76, 49
1, 54648, Control_c, 0, 67, 31
1, 54663, Control_c, 0, 67, 35
1, 54676, Note_on_c, 0, 79, 31
1, 54678, Control_c, 0, 67, 40
1, 54693, Control_c, 0, 67, 46
1, 54708, Control_c, 0, 67, 52
1, 54723, Control_c, 0, 67, 57
1, 54734, Note_on_c, 0, 85, 62
1, 54738, Note_off_c, 0, 79, 40
1, 54738, Control_c, 0, 67, 60
1, 54753, Control_c, 0, 67, 62
1, 54768, Control_c, 0, 67, 64
1, 54774, Note_off_c, 0, 85, 60
1, 54780, Note_on_c, 0, 88, 55
1, 54782, Control_c, 0, 67, 67
1, 54797, Control_c, 0, 67, 69
1, 54812, Control_c, 0, 67, 72
1, 54824, Note_off_c, 0, 88, 61
1, 54826, Control_c, 0, 67, 75
1, 54841, Control_c, 0, 67, 77
1, 54851, Note_off_c, 0, 76, 33
1, 54852, Note_on_c, 0, 97, 58
1, 54863, Control_c, 0, 67, 80
1, 54878, Control_c, 0, 67, 82
1, 54893, Control_c, 0, 67, 84
1, 54898, Note_on_c, 0, 100, 60
1, 54907, Note_off_c, 0, 97, 53
1, 54908, Control_c, 0, 67, 87
1, 54923, Control_c, 0, 67, 90
1, 54938, Control_c, 0, 67, 92
1, 54953, Control_c, 0, 67, 95
1, 54965, Note_off_c, 0, 100, 63
1, 54968, Control_c, 0, 67, 99
1, 54968, Note_on_c, 0, 103, 71
1, 54982, Control_c, 0, 67, 104
1, 54997, Control_c, 0, 67, 111
1, 55012, Control_c, 0, 67, 121
1, 55026, Control_c, 0, 64, 97
1, 55026, Control_c, 0, 67, 127
1, 55039, Note_on_c, 0, 68, 57
1, 55040, Note_off_c, 0, 103, 58
1, 55041, Control_c, 0, 64, 76
1, 55056, Control_c, 0, 64, 41
1, 55071, Control_c, 0, 64, 0
1, 55086, Control_c, 0, 64, 18
1, 55100, Control_c, 0, 64, 61
1, 55115, Control_c, 0, 64, 68
1, 55123, Note_off_c, 0, 68, 52
1, 55130, Control_c, 0, 64, 80
1, 55145, Control_c, 0, 64, 96
1, 55160, Control_c, 0, 64, 112
1, 55174, Control_c, 0, 64, 119
1, 55189, Control_c, 0, 64, 127
1, 55203, Note_on_c, 0, 76, 45
1, 55305, Note_on_c, 0, 80, 51
1, 55354, Note_on_c, 0, 85, 51
1, 55355, Note_off_c, 0, 80, 55
1, 55382, Note_on_c, 0, 88, 51
1, 55385, Note_off_c, 0, 85, 56
1, 55420, Note_off_c, 0, 88, 62
1, 55439, Note_on_c, 0, 92, 51
1, 55448, Note_off_c, 0, 76, 19
1, 55488, Note_off_c, 0, 92, 64
1, 55492, Note_on_c, 0, 97, 62
1, 55522, Note_off_c, 0, 97, 67
1, 55589, Note_on_c, 0, 104, 71
1, 55601, Note_on_c, 0, 68, 54
1, 55638, Note_off_c, 0, 68, 64
1, 55652, Note_off_c, 0, 104, 44
1, 55692, Note_on_c, 0, 76, 52
1, 55769, Note_on_c, 0, 80, 55
1, 55808, Note_on_c, 0, 85, 50
1, 55814, Note_off_c, 0, 80, 54
1, 55842, Note_on_c, 0, 88, 36
1, 55845, Note_off_c, 0, 85, 60
1, 55871, Note_off_c, 0, 88, 52
1, 55883, Note_on_c, 0, 92, 58
1, 55889, Note_off_c, 0, 76, 0
1, 55922, Note_off_c, 0, 92, 64
1, 55926, Poly_aftertouch_c, 0, 76, 127
1, 55937, Note_on_c, 0, 97, 62
1, 55957, Poly_aftertouch_c, 0, 76, 0
1, 55965, Note_off_c, 0, 97, 68
1, 55994, Note_on_c, 0, 68, 53
1, 56005, Note_on_c, 0, 104, 76
1, 56029, Note_off_c, 0, 68, 65
1, 56069, Note_on_c, 0, 76, 51
1, 56079, Note_off_c, 0, 104, 63
1, 56151, Note_on_c, 0, 80, 53
1, 56184, Note_on_c, 0, 85, 56
1, 56202, Note_off_c, 0, 80, 54
1, 56215, Note_on_c, 0, 88, 49
1, 56218, Note_off_c, 0, 85, 65
1, 56243, Note_off_c, 0, 88, 59
1, 56264, Note_on_c, 0, 92, 56
1, 56297, Note_off_c, 0, 76, 18
1, 56301, Note_off_c, 0, 92, 66
1, 56305, Note_on_c, 0, 97, 70
1, 56333, Note_off_c, 0, 97, 68
1, 56369, Note_on_c, 0, 68, 54
1, 56391, Note_on_c, 0, 104, 75
1, 56397, Note_off_c, 0, 68, 64
1, 56435, Note_on_c, 0, 76, 55
1, 56457, Note_off_c, 0, 104, 62
1, 56509, Note_on_c, 0, 80, 58
1, 56546, Note_on_c, 0, 85, 55
1, 56548, Note_off_c, 0, 80, 57
1, 56564, Note_on_c, 0, 88, 59
1, 56566, Note_off_c, 0, 85, 63
1, 56597, Note_off_c, 0, 88, 65
1, 56615, Note_on_c, 0, 92, 61
1, 56652, Note_off_c, 0, 92, 64
1, 56658, Note_on_c, 0, 97, 75
1, 56676, Note_off_c, 0, 76, 21
1, 56685, Note_off_c, 0, 97, 67
1, 56707, Note_on_c, 0, 68, 54
1, 56733, Note_on_c, 0, 104, 76
1, 56737, Note_off_c, 0, 68, 66
1, 56782, Note_on_c, 0, 76, 55
1, 56793, Note_off_c, 0, 104, 62
1, 56843, Note_on_c, 0, 80, 59
1, 56883, Note_on_c, 0, 85, 52
1, 56890, Note_off_c, 0, 80, 54
1, 56894, Note_on_c, 0, 88, 59
1, 56906, Note_off_c, 0, 85, 63
1, 56929, Note_off_c, 0, 88, 65
1, 56939, Note_off_c, 0, 76, 0
1, 56944, Note_on_c, 0, 92, 59
1, 56976, Poly_aftertouch_c, 0, 76, 127
1, 56984, Note_off_c, 0, 92, 63
1, 56993, Note_on_c, 0, 97, 73
1, 57014, Poly_aftertouch_c, 0, 76, 0
1, 57023, Note_off_c, 0, 97, 65
1, 57049, Note_on_c, 0, 68, 53
1, 57071, Note_on_c, 0, 104, 79
1, 57084, Note_off_c, 0, 68, 64
1, 57138, Note_on_c, 0, 76, 53
1, 57144, Note_off_c, 0, 104, 63
1, 57208, Note_on_c, 0, 80, 58
1, 57256, Note_on_c, 0, 85, 53
1, 57260, Note_off_c, 0, 80, 52
1, 57262, Note_on_c, 0, 88, 60
1, 57279, Note_off_c, 0, 85, 61
1, 57303, Note_off_c, 0, 88, 60
1, 57308, Note_off_c, 0, 76, 0
1, 57331, Note_on_c, 0, 92, 56
1, 57345, Poly_aftertouch_c, 0, 76, 127
1, 57367, Note_off_c, 0, 92, 65
1, 57385, Note_on_c, 0, 97, 62
1, 57393, Poly_aftertouch_c, 0, 76, 0
1, 57415, Note_off_c, 0, 97, 67
1, 57451, Note_on_c, 0, 68, 55
1, 57459, Note_on_c, 0, 104, 78
1, 57498, Note_off_c, 0, 68, 60
1, 57540, Note_off_c, 0, 104, 62
1, 57572, Note_on_c, 0, 76, 51
1, 57647, Note_on_c, 0, 80, 51
1, 57677, Note_on_c, 0, 85, 59
1, 57686, Note_off_c, 0, 76, 52
1, 57701, Note_off_c, 0, 80, 52
1, 57713, Note_off_c, 0, 85, 63
1, 57719, Note_on_c, 0, 88, 52
1, 57753, Note_off_c, 0, 88, 64
1, 57778, Note_on_c, 0, 92, 54
1, 57823, Note_off_c, 0, 92, 65
1, 57833, Note_on_c, 0, 97, 62
1, 57872, Note_off_c, 0, 97, 66
1, 57926, Note_on_c, 0, 104, 77
1, 57948, Note_on_c, 0, 68, 49
1, 58002, Note_off_c, 0, 68, 59
1, 58012, Note_off_c, 0, 104, 62
1, 58057, Note_on_c, 0, 76, 52
1, 58138, Note_on_c, 0, 80, 56
1, 58193, Note_on_c, 0, 85, 56
1, 58249, Note_off_c, 0, 85, 57
1, 58251, Note_on_c, 0, 88, 56
1, 58294, Note_off_c, 0, 88, 58
1, 58304, Note_off_c, 0, 80, 23
1, 58323, Note_on_c, 0, 92, 61
1, 58394, Note_off_c, 0, 92, 61
1, 58409, Note_on_c, 0, 97, 62
1, 58415, Note_off_c, 0, 76, 37
1, 58455, Note_off_c, 0, 97, 59
1, 58488, Note_on_c, 0, 104, 80
1, 58557, Note_off_c, 0, 104, 54
1, 58581, Note_on_c, 0, 97, 64
1, 58664, Note_on_c, 0, 92, 69
1, 58685, Note_off_c, 0, 97, 63
1, 58725, Note_off_c, 0, 92, 61
1, 58726, Note_on_c, 0, 88, 67
1, 58760, Note_off_c, 0, 88, 62
1, 58840, Note_on_c, 0, 85, 66
1, 58914, Note_off_c, 0, 85, 62
1, 58917, Note_on_c, 0, 80, 72
1, 58947, Note_off_c, 0, 80, 64
1, 58989, Note_on_c, 0, 76, 63
1, 59031, Note_off_c, 0, 76, 57
1, 59063, Note_on_c, 0, 80, 59
1, 59116, Note_off_c, 0, 80, 54
1, 59132, Note_on_c, 0, 85, 72
1, 59186, Note_off_c, 0, 85, 64
1, 59219, Note_on_c, 0, 92, 85
1, 59295, Note_off_c, 0, 92, 61
1, 59315, Note_on_c, 0, 85, 70
1, 59412, Note_on_c, 0, 80, 73
1, 59424, Note_off_c, 0, 85, 63
1, 59480, Note_off_c, 0, 80, 62
1, 59492, Note_on_c, 0, 76, 55
1, 59531, Note_off_c, 0, 76, 62
1, 59614, Note_on_c, 0, 73, 55
1, 59690, Note_on_c, 0, 68, 67
1, 59695, Note_off_c, 0, 73, 63
1, 59727, Note_off_c, 0, 68, 58
1, 59775, Note_on_c, 0, 64, 58
1, 59832, Note_off_c, 0, 64, 57
1, 59858, Note_on_c, 0, 68, 58
1, 59935, Note_on_c, 0, 73, 69
1, 59937, Note_off_c, 0, 68, 57
1, 60001, Note_off_c, 0, 73, 63
1, 60038, Note_on_c, 0, 80, 83
1, 60131, Note_off_c, 0, 80, 59
1, 60159, Note_on_c, 0, 73, 66
1, 60271, Note_on_c, 0, 68, 71
1, 60283, Note_off_c, 0, 73, 61
1, 60362, Note_off_c, 0, 68, 60
1, 60373, Note_on_c, 0, 64, 62
1, 60415, Note_off_c, 0, 64, 59
1, 60524, Note_on_c, 0, 61, 71
1, 60536, Control_c, 0, 64, 107
1, 60551, Control_c, 0, 64, 96
1, 60564, Control_c, 0, 64, 86
1, 60575, Note_off_c, 0, 61, 59
1, 60579, Control_c, 0, 64, 77
1, 60594, Control_c, 0, 64, 68
1, 60609, Control_c, 0, 64, 60
1, 60624, Control_c, 0, 64, 57
1, 60712, Control_c, 0, 64, 56
1, 60718, Note_on_c, 0, 56, 65
1, 60727, Control_c, 0, 64, 55
1, 60742, Control_c, 0, 64, 54
1, 60755, Note_off_c, 0, 56, 60
1, 60757, Control_c, 0, 64, 54
1, 60816, Control_c, 0, 64, 53
1, 60831, Control_c, 0, 64, 53
1, 60853, Control_c, 0, 64, 52
1, 60868, Control_c, 0, 64, 51
1, 60883, Control_c, 0, 64, 50
1, 60897, Control_c, 0, 64, 48
1, 60912, Control_c, 0, 64, 43
1, 60927, Control_c, 0, 64, 36
1, 60940, Note_on_c, 0, 52, 61
1, 60942, Control_c, 0, 64, 24
1, 60957, Control_c, 0, 64, 0
1, 60982, Note_off_c, 0, 52, 60
1, 61215, Note_on_c, 0, 49, 57
1, 61258, Note_off_c, 0, 49, 62
1, 61582, Note_on_c, 0, 44, 55
1, 61639, Note_off_c, 0, 44, 59
1, 62244, Note_on_c, 0, 40, 39
1, 62294, Note_off_c, 0, 40, 59
1, 63345, Note_on_c, 0, 37, 54
1, 63380, Note_off_c, 0, 37, 63
1, 64065, Note_on_c, 0, 37, 58
1, 64931, Note_on_c, 0, 39, 51
1, 64940, Note_off_c, 0, 37, 53
1, 65117, Control_c, 0, 67, 126
1, 65132, Control_c, 0, 67, 121
1, 65147, Control_c, 0, 67, 116
1, 65161, Control_c, 0, 67, 110
1, 65176, Control_c, 0, 67, 104
1, 65191, Control_c, 0, 67, 98
1, 65206, Control_c, 0, 67, 92
1, 65221, Control_c, 0, 67, 87
1, 65235, Control_c, 0, 67, 83
1, 65250, Control_c, 0, 67, 79
1, 65253, Note_on_c, 0, 36, 40
1, 65265, Control_c, 0, 67, 76
1, 65273, Note_off_c, 0, 39, 47
1, 65279, Control_c, 0, 67, 74
1, 65294, Control_c, 0, 67, 72
1, 65309, Control_c, 0, 67, 69
1, 65324, Control_c, 0, 67, 65
1, 65347, Control_c, 0, 67, 59
1, 65361, Control_c, 0, 67, 51
1, 65376, Control_c, 0, 67, 40
1, 65391, Control_c, 0, 67, 26
1, 65406, Control_c, 0, 67, 8
1, 65420, Control_c, 0, 67, 0
1, 65717, Control_c, 0, 64, 30
1, 65732, Control_c, 0, 64, 42
1, 65747, Control_c, 0, 64, 45
1, 65776, Control_c, 0, 64, 46
1, 65791, Control_c, 0, 64, 49
1, 65806, Control_c, 0, 64, 50
1, 65896, Control_c, 0, 64, 50
1, 65910, Control_c, 0, 64, 49
1, 65925, Control_c, 0, 64, 48
1, 65940, Control_c, 0, 64, 48
1, 65955, Control_c, 0, 64, 47
1, 65970, Control_c, 0, 64, 47
1, 65984, Control_c, 0, 64, 46
1, 66014, Control_c, 0, 64, 45
1, 66125, Control_c, 0, 64, 45
1, 66170, Control_c, 0, 64, 45
1, 66184, Control_c, 0, 64, 47
1, 66199, Control_c, 0, 64, 48
1, 66361, Note_off_c, 0, 36, 50
1, 66362, Control_c, 0, 64, 47
1, 66425, Note_on_c, 0, 32, 61
1, 66450, Control_c, 0, 64, 47
1, 66525, Control_c, 0, 64, 46
1, 66539, Control_c, 0, 64, 46
1, 66555, Control_c, 0, 64, 45
1, 66674, Control_c, 0, 64, 45
1, 66763, Control_c, 0, 64, 44
1, 66817, Note_on_c, 0, 34, 55
1, 66819, Note_off_c, 0, 32, 57
1, 66859, Control_c, 0, 64, 44
1, 66874, Control_c, 0, 64, 43
1, 66885, Note_off_c, 0, 34, 61
1, 66889, Control_c, 0, 64, 42
1, 66891, Note_on_c, 0, 36, 68
1, 66904, Control_c, 0, 64, 41
1, 66933, Note_off_c, 0, 36, 64
1, 66934, Control_c, 0, 64, 41
1, 66944, Note_on_c, 0, 37, 74
1, 66963, Control_c, 0, 64, 40
1, 66975, Note_off_c, 0, 37, 66
1, 67022, Control_c, 0, 64, 39
1, 67200, Control_c, 0, 64, 40
1, 67548, Note_on_c, 0, 37, 69
1, 67651, Control_c, 0, 64, 39
1, 67696, Control_c, 0, 64, 38
1, 67711, Control_c, 0, 64, 38
1, 67726, Control_c, 0, 64, 37
1, 67741, Control_c, 0, 64, 33
1, 67755, Control_c, 0, 64, 28
1, 67770, Control_c, 0, 64, 22
1, 67785, Control_c, 0, 64, 0
1, 68229, Control_c, 0, 64, 42
1, 68244, Control_c, 0, 64, 60
1, 68259, Control_c, 0, 64, 63
1, 68274, Control_c, 0, 64, 65
1, 68289, Control_c, 0, 64, 66
1, 68304, Control_c, 0, 64, 68
1, 68319, Control_c, 0, 64, 71
1, 68341, Control_c, 0, 64, 74
1, 68356, Control_c, 0, 64, 76
1, 68371, Control_c, 0, 64, 77
1, 68385, Note_on_c, 0, 40, 55
1, 68385, Control_c, 0, 64, 78
1, 68388, Note_off_c, 0, 37, 50
1, 68400, Control_c, 0, 64, 81
1, 68415, Control_c, 0, 64, 83
1, 68429, Control_c, 0, 64, 85
1, 68444, Control_c, 0, 64, 87
1, 68459, Control_c, 0, 64, 89
1, 68474, Control_c, 0, 64, 91
1, 68483, Note_off_c, 0, 40, 58
1, 68489, Control_c, 0, 64, 93
1, 68504, Control_c, 0, 64, 95
1, 68519, Control_c, 0, 64, 96
1, 68534, Control_c, 0, 64, 97
1, 68549, Control_c, 0, 64, 98
1, 68563, Control_c, 0, 64, 98
1, 68593, Control_c, 0, 64, 99
1, 68638, Note_on_c, 0, 40, 53
1, 68667, Control_c, 0, 64, 98
1, 68682, Control_c, 0, 64, 95
1, 68697, Control_c, 0, 64, 90
1, 68701, Note_off_c, 0, 40, 55
1, 68711, Control_c, 0, 64, 84
1, 68726, Control_c, 0, 64, 78
1, 68730, Note_on_c, 0, 39, 52
1, 68741, Control_c, 0, 64, 72
1, 68755, Control_c, 0, 64, 65
1, 68770, Control_c, 0, 64, 48
1, 68785, Control_c, 0, 64, 0
1, 69446, Control_c, 0, 64, 15
1, 69460, Control_c, 0, 64, 28
1, 69475, Control_c, 0, 64, 42
1, 69490, Control_c, 0, 64, 56
1, 69504, Control_c, 0, 64, 62
1, 69519, Control_c, 0, 64, 65
1, 69534, Control_c, 0, 64, 68
1, 69550, Control_c, 0, 64, 71
1, 69565, Control_c, 0, 64, 75
1, 69579, Control_c, 0, 64, 78
1, 69594, Control_c, 0, 64, 81
1, 69609, Control_c, 0, 64, 84
1, 69619, Note_off_c, 0, 39, 0
1, 69624, Control_c, 0, 64, 87
1, 69639, Control_c, 0, 64, 89
1, 69653, Control_c, 0, 64, 90
1, 69665, Poly_aftertouch_c, 0, 39, 0
1, 69668, Control_c, 0, 64, 91
1, 69712, Control_c, 0, 64, 91
1, 69727, Control_c, 0, 64, 92
1, 69757, Control_c, 0, 64, 92
1, 69833, Note_on_c, 0, 35, 74
1, 69839, Control_c, 0, 64, 92
1, 69854, Control_c, 0, 64, 90
1, 69869, Control_c, 0, 64, 87
1, 69884, Control_c, 0, 64, 82
1, 69899, Control_c, 0, 64, 75
1, 69914, Control_c, 0, 64, 69
1, 69929, Control_c, 0, 64, 62
1, 69944, Control_c, 0, 64, 38
1, 69958, Control_c, 0, 64, 28
1, 70076, Control_c, 0, 64, 30
1, 70091, Control_c, 0, 64, 31
1, 70106, Control_c, 0, 64, 33
1, 70121, Control_c, 0, 64, 34
1, 70135, Control_c, 0, 64, 35
1, 70180, Control_c, 0, 64, 36
1, 70239, Control_c, 0, 64, 37
1, 70324, Note_off_c, 0, 35, 54
1, 70331, Note_on_c, 0, 40, 78
1, 70343, Control_c, 0, 64, 38
1, 70370, Note_off_c, 0, 40, 64
1, 70373, Control_c, 0, 64, 39
1, 70692, Control_c, 0, 64, 40
1, 70722, Control_c, 0, 64, 41
1, 70766, Control_c, 0, 64, 41
1, 70796, Control_c, 0, 64, 42
1, 70826, Control_c, 0, 64, 42
1, 70870, Control_c, 0, 64, 43
1, 70965, Note_on_c, 0, 40, 69
1, 71003, Control_c, 0, 64, 44
1, 71091, Control_c, 0, 64, 44
1, 71121, Control_c, 0, 64, 45
1, 71150, Control_c, 0, 64, 45
1, 71165, Control_c, 0, 64, 46
1, 71180, Control_c, 0, 64, 48
1, 71195, Control_c, 0, 64, 49
1, 71210, Control_c, 0, 64, 49
1, 71365, Control_c, 0, 64, 50
1, 71455, Control_c, 0, 64, 50
1, 71470, Control_c, 0, 64, 51
1, 71485, Control_c, 0, 64, 51
1, 71500, Control_c, 0, 64, 52
1, 71515, Control_c, 0, 64, 53
1, 71529, Control_c, 0, 64, 53
1, 71544, Control_c, 0, 64, 54
1, 71559, Control_c, 0, 64, 55
1, 71574, Control_c, 0, 64, 56
1, 71588, Control_c, 0, 64, 57
1, 71603, Control_c, 0, 64, 58
1, 71769, Note_on_c, 0, 42, 58
1, 71810, Note_off_c, 0, 40, 63
1, 71810, Control_c, 0, 64, 58
1, 71869, Control_c, 0, 64, 59
1, 71929, Control_c, 0, 64, 59
1, 72062, Control_c, 0, 64, 60
1, 72102, Note_on_c, 0, 39, 61
1, 72186, Note_off_c, 0, 42, 39
1, 72308, Control_c, 0, 64, 60
1, 72322, Control_c, 0, 64, 62
1, 72337, Control_c, 0, 64, 63
1, 72352, Control_c, 0, 64, 65
1, 72367, Control_c, 0, 64, 67
1, 72382, Control_c, 0, 64, 69
1, 72397, Control_c, 0, 64, 73
1, 72411, Control_c, 0, 64, 77
1, 72426, Control_c, 0, 64, 80
1, 72441, Control_c, 0, 64, 82
1, 72456, Control_c, 0, 64, 85
1, 72470, Control_c, 0, 64, 88
1, 72485, Control_c, 0, 64, 91
1, 72500, Control_c, 0, 64, 95
1, 72515, Control_c, 0, 64, 98
1, 72529, Control_c, 0, 64, 101
1, 72545, Control_c, 0, 64, 104
1, 72560, Control_c, 0, 64, 106
1, 72570, Note_off_c, 0, 39, 47
1, 72575, Control_c, 0, 64, 109
1, 72590, Control_c, 0, 64, 114
1, 72604, Control_c, 0, 64, 121
1, 72619, Control_c, 0, 64, 127
1, 73098, Note_on_c, 0, 40, 52
1, 73160, Control_c, 0, 64, 115
1, 73175, Control_c, 0, 64, 104
1, 73190, Control_c, 0, 64, 95
1, 73205, Control_c, 0, 64, 88
1, 73220, Control_c, 0, 64, 83
1, 73235, Control_c, 0, 64, 78
1, 73249, Control_c, 0, 64, 73
1, 73264, Control_c, 0, 64, 67
1, 73279, Control_c, 0, 64, 63
1, 73294, Control_c, 0, 64, 59
1, 73309, Control_c, 0, 64, 58
1, 73368, Control_c, 0, 64, 58
1, 73383, Control_c, 0, 64, 57
1, 73398, Control_c, 0, 64, 57
1, 73457, Control_c, 0, 64, 56
1, 73501, Control_c, 0, 64, 56
1, 73525, Note_off_c, 0, 40, 56
1, 73534, Note_on_c, 0, 39, 56
1, 73592, Note_off_c, 0, 39, 62
1, 73601, Note_on_c, 0, 37, 56
1, 73642, Control_c, 0, 64, 55
1, 73849, Note_off_c, 0, 37, 55
1, 73849, Note_on_c, 0, 36, 53
1, 73850, Control_c, 0, 64, 56
1, 73880, Control_c, 0, 64, 56
1, 73909, Control_c, 0, 64, 57
1, 74153, Note_on_c, 0, 37, 50
1, 74175, Note_off_c, 0, 36, 50
1, 74206, Control_c, 0, 64, 58
1, 74236, Control_c, 0, 64, 58
1, 74250, Control_c, 0, 64, 59
1, 74280, Control_c, 0, 64, 59
1, 74309, Control_c, 0, 64, 60
1, 74361, Control_c, 0, 64, 60
1, 74791, Control_c, 0, 64, 61
1, 74933, Note_on_c, 0, 39, 47
1, 74933, Note_off_c, 0, 37, 56
1, 74969, Control_c, 0, 64, 61
1, 75200, Note_off_c, 0, 39, 53
1, 75212, Note_on_c, 0, 36, 42
1, 75302, Control_c, 0, 64, 61
1, 75317, Control_c, 0, 64, 59
1, 75331, Control_c, 0, 64, 57
1, 75346, Control_c, 0, 64, 52
1, 75361, Control_c, 0, 64, 42
1, 75376, Control_c, 0, 64, 0
1, 75703, Control_c, 0, 64, 41
1, 75718, Control_c, 0, 64, 51
1, 75733, Control_c, 0, 64, 57
1, 75747, Control_c, 0, 64, 61
1, 75762, Control_c, 0, 64, 64
1, 75767, Note_on_c, 0, 44, 42
1, 75777, Control_c, 0, 64, 65
1, 75780, Note_on_c, 0, 56, 44
1, 75792, Control_c, 0, 64, 67
1, 75807, Control_c, 0, 64, 69
1, 75828, Control_c, 0, 64, 71
1, 75843, Control_c, 0, 64, 74
1, 75858, Control_c, 0, 64, 78
1, 75873, Control_c, 0, 64, 80
1, 75888, Control_c, 0, 64, 83
1, 75902, Control_c, 0, 64, 86
1, 75917, Control_c, 0, 64, 88
1, 75932, Control_c, 0, 64, 89
1, 75947, Control_c, 0, 64, 90
1, 75962, Control_c, 0, 64, 91
1, 75977, Control_c, 0, 64, 92
1, 76006, Control_c, 0, 64, 92
1, 76021, Control_c, 0, 64, 93
1, 76080, Control_c, 0, 64, 93
1, 76261, Note_off_c, 0, 36, 41
1, 76304, Control_c, 0, 64, 93
1, 76319, Control_c, 0, 64, 92
1, 76334, Control_c, 0, 64, 90
1, 76349, Control_c, 0, 64, 88
1, 76363, Control_c, 0, 64, 86
1, 76378, Control_c, 0, 64, 82
1, 76393, Control_c, 0, 64, 79
1, 76408, Control_c, 0, 64, 76
1, 76422, Control_c, 0, 64, 73
1, 76437, Control_c, 0, 64, 69
1, 76452, Control_c, 0, 64, 66
1, 76467, Control_c, 0, 64, 63
1, 76481, Note_on_c, 0, 32, 63
1, 76482, Control_c, 0, 64, 60
1, 76496, Control_c, 0, 64, 58
1, 76511, Control_c, 0, 64, 56
1, 76526, Control_c, 0, 64, 55
1, 76541, Control_c, 0, 64, 54
1, 76556, Control_c, 0, 64, 53
1, 76608, Control_c, 0, 64, 52
1, 76637, Control_c, 0, 64, 51
1, 76652, Control_c, 0, 64, 51
1, 76667, Control_c, 0, 64, 50
1, 76682, Control_c, 0, 64, 49
1, 76696, Control_c, 0, 64, 48
1, 76711, Control_c, 0, 64, 47
1, 76721, Note_on_c, 0, 37, 76
1, 76726, Control_c, 0, 64, 45
1, 76740, Note_off_c, 0, 32, 62
1, 76741, Control_c, 0, 64, 42
1, 76742, Note_off_c, 0, 56, 54
1, 76753, Note_off_c, 0, 37, 66
1, 76756, Control_c, 0, 64, 39
1, 76770, Note_off_c, 0, 44, 46
1, 76770, Control_c, 0, 64, 37
1, 76785, Control_c, 0, 64, 34
1, 76800, Control_c, 0, 64, 33
1, 76815, Control_c, 0, 64, 32
1, 76844, Control_c, 0, 64, 31
1, 76874, Control_c, 0, 64, 30
1, 76993, Control_c, 0, 64, 28
1, 77022, Control_c, 0, 64, 27
1, 77053, Control_c, 0, 64, 26
1, 77083, Control_c, 0, 64, 24
1, 77288, Note_on_c, 0, 56, 60
1, 77294, Note_on_c, 0, 49, 57
1, 77298, Note_on_c, 0, 44, 52
1, 77321, Note_on_c, 0, 37, 62
1, 77342, Control_c, 0, 64, 22
1, 77534, Control_c, 0, 64, 24
1, 77563, Control_c, 0, 64, 26
1, 77578, Control_c, 0, 64, 27
1, 77593, Control_c, 0, 64, 28
1, 77608, Control_c, 0, 64, 31
1, 77623, Control_c, 0, 64, 33
1, 77637, Control_c, 0, 64, 36
1, 77652, Control_c, 0, 64, 38
1, 77667, Control_c, 0, 64, 39
1, 77682, Control_c, 0, 64, 41
1, 77697, Control_c, 0, 64, 41
1, 77712, Control_c, 0, 64, 42
1, 77727, Control_c, 0, 64, 42
1, 77742, Control_c, 0, 64, 44
1, 77757, Control_c, 0, 64, 45
1, 77771, Control_c, 0, 64, 46
1, 77786, Control_c, 0, 64, 46
1, 77801, Control_c, 0, 64, 47
1, 77816, Control_c, 0, 64, 47
1, 77831, Control_c, 0, 64, 48
1, 77846, Control_c, 0, 64, 48
1, 77861, Control_c, 0, 64, 49
1, 77876, Control_c, 0, 64, 49
1, 77891, Control_c, 0, 64, 50
1, 77906, Control_c, 0, 64, 50
1, 77921, Control_c, 0, 64, 51
1, 77935, Control_c, 0, 64, 51
1, 77950, Control_c, 0, 64, 52
1, 77980, Control_c, 0, 64, 53
1, 78009, Control_c, 0, 64, 53
1, 78054, Control_c, 0, 64, 54
1, 78076, Note_off_c, 0, 37, 59
1, 78081, Note_on_c, 0, 39, 50
1, 78135, Control_c, 0, 64, 54
1, 78323, Note_off_c, 0, 39, 61
1, 78330, Note_on_c, 0, 36, 53
1, 78339, Note_off_c, 0, 44, 38
1, 78381, Note_off_c, 0, 49, 45
1, 78392, Note_off_c, 0, 56, 27
1, 78505, Control_c, 0, 64, 55
1, 78839, Note_on_c, 0, 56, 48
1, 78846, Note_on_c, 0, 51, 44
1, 78848, Note_on_c, 0, 44, 34
1, 78898, Control_c, 0, 64, 55
1, 78913, Control_c, 0, 64, 56
1, 78928, Control_c, 0, 64, 57
1, 78943, Control_c, 0, 64, 59
1, 78958, Control_c, 0, 64, 61
1, 78973, Control_c, 0, 64, 63
1, 78988, Control_c, 0, 64, 65
1, 79003, Control_c, 0, 64, 67
1, 79017, Control_c, 0, 64, 70
1, 79032, Control_c, 0, 64, 74
1, 79047, Control_c, 0, 64, 79
1, 79062, Control_c, 0, 64, 81
1, 79077, Control_c, 0, 64, 84
1, 79091, Control_c, 0, 64, 86
1, 79106, Control_c, 0, 64, 88
1, 79121, Control_c, 0, 64, 91
1, 79136, Control_c, 0, 64, 93
1, 79150, Control_c, 0, 64, 95
1, 79165, Control_c, 0, 64, 97
1, 79180, Control_c, 0, 64, 98
1, 79195, Control_c, 0, 64, 99
1, 79210, Control_c, 0, 64, 99
1, 79254, Control_c, 0, 64, 100
1, 79328, Control_c, 0, 64, 99
1, 79342, Control_c, 0, 64, 98
1, 79349, Note_off_c, 0, 36, 63
1, 79357, Control_c, 0, 64, 95
1, 79372, Control_c, 0, 64, 89
1, 79387, Control_c, 0, 64, 83
1, 79402, Control_c, 0, 64, 77
1, 79417, Control_c, 0, 64, 70
1, 79432, Control_c, 0, 64, 63
1, 79447, Control_c, 0, 64, 49
1, 79462, Control_c, 0, 64, 44
1, 79575, Note_on_c, 0, 32, 66
1, 79707, Control_c, 0, 64, 45
1, 79721, Control_c, 0, 64, 46
1, 79736, Control_c, 0, 64, 46
1, 79751, Control_c, 0, 64, 47
1, 79831, Note_on_c, 0, 37, 78
1, 79852, Note_off_c, 0, 51, 53
1, 79855, Note_off_c, 0, 32, 62
1, 79864, Note_off_c, 0, 37, 67
1, 79865, Note_off_c, 0, 56, 35
1, 79869, Note_off_c, 0, 44, 47
1, 79959, Control_c, 0, 64, 47
1, 79988, Control_c, 0, 64, 48
1, 80314, Note_on_c, 0, 56, 65
1, 80317, Note_on_c, 0, 52, 55
1, 80321, Note_on_c, 0, 44, 51
1, 80343, Note_on_c, 0, 37, 63
1, 80485, Control_c, 0, 64, 48
1, 80500, Control_c, 0, 64, 49
1, 80515, Control_c, 0, 64, 50
1, 80530, Control_c, 0, 64, 51
1, 80544, Control_c, 0, 64, 52
1, 80559, Control_c, 0, 64, 53
1, 80574, Control_c, 0, 64, 55
1, 80588, Control_c, 0, 64, 57
1, 80603, Control_c, 0, 64, 60
1, 80618, Control_c, 0, 64, 62
1, 80633, Control_c, 0, 64, 63
1, 80648, Control_c, 0, 64, 64
1, 80663, Control_c, 0, 64, 66
1, 80678, Control_c, 0, 64, 67
1, 80693, Control_c, 0, 64, 68
1, 80707, Control_c, 0, 64, 69
1, 80722, Control_c, 0, 64, 70
1, 80737, Control_c, 0, 64, 71
1, 80796, Control_c, 0, 64, 70
1, 80811, Control_c, 0, 64, 70
1, 80826, Control_c, 0, 64, 69
1, 80841, Control_c, 0, 64, 68
1, 80856, Control_c, 0, 64, 67
1, 80870, Control_c, 0, 64, 66
1, 80885, Control_c, 0, 64, 65
1, 80900, Control_c, 0, 64, 65
1, 80914, Control_c, 0, 64, 64
1, 80944, Control_c, 0, 64, 64
1, 80974, Control_c, 0, 64, 63
1, 80988, Control_c, 0, 64, 63
1, 81034, Control_c, 0, 64, 62
1, 81036, Note_off_c, 0, 37, 62
1, 81050, Note_on_c, 0, 36, 56
1, 81071, Control_c, 0, 64, 62
1, 81086, Control_c, 0, 64, 61
1, 81101, Control_c, 0, 64, 61
1, 81145, Control_c, 0, 64, 60
1, 81166, Note_off_c, 0, 36, 61
1, 81170, Note_on_c, 0, 37, 61
1, 81234, Control_c, 0, 64, 60
1, 81301, Note_off_c, 0, 52, 54
1, 81315, Note_on_c, 0, 39, 63
1, 81319, Note_off_c, 0, 44, 31
1, 81323, Control_c, 0, 64, 60
1, 81343, Note_off_c, 0, 37, 59
1, 81352, Control_c, 0, 64, 61
1, 81367, Control_c, 0, 64, 62
1, 81382, Control_c, 0, 64, 63
1, 81397, Control_c, 0, 64, 64
1, 81411, Control_c, 0, 64, 66
1, 81426, Control_c, 0, 64, 68
1, 81441, Control_c, 0, 64, 71
1, 81456, Control_c, 0, 64, 74
1, 81471, Control_c, 0, 64, 76
1, 81486, Note_off_c, 0, 56, 33
1, 81486, Control_c, 0, 64, 77
1, 81501, Control_c, 0, 64, 78
1, 81516, Control_c, 0, 64, 79
1, 81693, Control_c, 0, 64, 78
1, 81708, Control_c, 0, 64, 77
1, 81723, Control_c, 0, 64, 76
1, 81737, Control_c, 0, 64, 75
1, 81752, Control_c, 0, 64, 73
1, 81767, Control_c, 0, 64, 69
1, 81782, Control_c, 0, 64, 66
1, 81797, Control_c, 0, 64, 64
1, 81817, Note_on_c, 0, 54, 53
1, 81818, Note_on_c, 0, 59, 61
1, 81819, Control_c, 0, 64, 63
1, 81823, Note_on_c, 0, 47, 49
1, 81834, Control_c, 0, 64, 62
1, 81849, Control_c, 0, 64, 62
1, 81864, Control_c, 0, 64, 61
1, 81879, Control_c, 0, 64, 60
1, 81894, Control_c, 0, 64, 59
1, 81909, Control_c, 0, 64, 59
1, 81924, Control_c, 0, 64, 58
1, 81939, Control_c, 0, 64, 57
1, 81968, Control_c, 0, 64, 57
1, 81998, Control_c, 0, 64, 56
1, 82131, Control_c, 0, 64, 57
1, 82240, Note_off_c, 0, 39, 62
1, 82279, Control_c, 0, 64, 57
1, 82368, Control_c, 0, 64, 58
1, 82457, Control_c, 0, 64, 58
1, 82492, Note_on_c, 0, 35, 70
1, 82731, Note_off_c, 0, 47, 45
1, 82732, Control_c, 0, 64, 58
1, 82742, Note_on_c, 0, 40, 80
1, 82753, Note_off_c, 0, 35, 62
1, 82762, Note_off_c, 0, 59, 52
1, 82762, Control_c, 0, 64, 57
1, 82776, Note_off_c, 0, 40, 64
1, 82776, Control_c, 0, 64, 57
1, 82782, Note_off_c, 0, 54, 36
1, 82791, Control_c, 0, 64, 56
1, 82806, Control_c, 0, 64, 56
1, 82821, Control_c, 0, 64, 55
1, 82865, Control_c, 0, 64, 55
1, 83242, Note_on_c, 0, 59, 65
1, 83244, Note_on_c, 0, 56, 63
1, 83250, Note_on_c, 0, 47, 51
1, 83251, Note_on_c, 0, 40, 76
1, 83361, Control_c, 0, 64, 54
1, 83405, Control_c, 0, 64, 55
1, 83435, Control_c, 0, 64, 55
1, 83465, Control_c, 0, 64, 56
1, 83480, Control_c, 0, 64, 56
1, 83495, Control_c, 0, 64, 57
1, 83569, Control_c, 0, 64, 57
1, 83613, Control_c, 0, 64, 58
1, 83926, Note_on_c, 0, 42, 64
1, 83936, Note_off_c, 0, 40, 62
1, 84079, Control_c, 0, 64, 57
1, 84109, Control_c, 0, 64, 57
1, 84180, Note_on_c, 0, 39, 69
1, 84191, Note_off_c, 0, 42, 59
1, 84198, Control_c, 0, 64, 57
1, 84202, Note_off_c, 0, 47, 45
1, 84213, Control_c, 0, 64, 59
1, 84228, Control_c, 0, 64, 63
1, 84243, Control_c, 0, 64, 65
1, 84258, Control_c, 0, 64, 70
1, 84273, Control_c, 0, 64, 75
1, 84288, Control_c, 0, 64, 79
1, 84294, Note_off_c, 0, 56, 35
1, 84303, Control_c, 0, 64, 82
1, 84318, Control_c, 0, 64, 86
1, 84332, Control_c, 0, 64, 92
1, 84347, Control_c, 0, 64, 99
1, 84352, Note_off_c, 0, 59, 59
1, 84362, Control_c, 0, 64, 108
1, 84377, Control_c, 0, 64, 117
1, 84392, Control_c, 0, 64, 127
1, 84496, Note_off_c, 0, 39, 60
1, 84609, Note_on_c, 0, 60, 69
1, 84611, Note_on_c, 0, 57, 58
1, 84617, Note_on_c, 0, 48, 58
1, 84777, Control_c, 0, 64, 124
1, 84787, Note_on_c, 0, 40, 18
1, 84792, Control_c, 0, 64, 115
1, 84814, Control_c, 0, 64, 111
1, 84825, Note_on_c, 0, 39, 76
1, 84829, Control_c, 0, 64, 106
1, 84843, Note_off_c, 0, 40, 47
1, 84843, Control_c, 0, 64, 102
1, 84858, Control_c, 0, 64, 99
1, 84873, Control_c, 0, 64, 94
1, 84887, Control_c, 0, 64, 90
1, 84902, Control_c, 0, 64, 86
1, 84917, Control_c, 0, 64, 82
1, 84932, Control_c, 0, 64, 79
1, 84947, Control_c, 0, 64, 76
1, 84961, Control_c, 0, 64, 72
1, 84976, Control_c, 0, 64, 68
1, 84991, Control_c, 0, 64, 65
1, 85006, Control_c, 0, 64, 63
1, 85021, Control_c, 0, 64, 61
1, 85037, Control_c, 0, 64, 60
1, 85051, Control_c, 0, 64, 59
1, 85066, Control_c, 0, 64, 57
1, 85081, Control_c, 0, 64, 54
1, 85096, Control_c, 0, 64, 50
1, 85106, Note_on_c, 0, 40, 70
1, 85110, Control_c, 0, 64, 44
1, 85125, Control_c, 0, 64, 36
1, 85140, Control_c, 0, 64, 27
1, 85155, Control_c, 0, 64, 18
1, 85170, Control_c, 0, 64, 0
1, 85202, Note_off_c, 0, 39, 35
1, 85311, Note_off_c, 0, 48, 53
1, 85317, Control_c, 0, 64, 22
1, 85332, Control_c, 0, 64, 48
1, 85347, Control_c, 0, 64, 60
1, 85362, Control_c, 0, 64, 64
1, 85376, Control_c, 0, 64, 67
1, 85385, Note_off_c, 0, 57, 25
1, 85391, Control_c, 0, 64, 70
1, 85406, Control_c, 0, 64, 74
1, 85418, Note_off_c, 0, 60, 54
1, 85421, Control_c, 0, 64, 80
1, 85435, Control_c, 0, 64, 83
1, 85450, Control_c, 0, 64, 85
1, 85465, Control_c, 0, 64, 87
1, 85480, Control_c, 0, 64, 89
1, 85495, Control_c, 0, 64, 90
1, 85510, Control_c, 0, 64, 91
1, 85518, Note_on_c, 0, 37, 65
1, 85525, Control_c, 0, 64, 92
1, 85536, Note_off_c, 0, 40, 57
1, 85540, Control_c, 0, 64, 92
1, 85562, Control_c, 0, 64, 93
1, 85695, Control_c, 0, 64, 92
1, 85710, Control_c, 0, 64, 92
1, 85725, Control_c, 0, 64, 91
1, 85739, Control_c, 0, 64, 90
1, 85754, Control_c, 0, 64, 88
1, 85769, Control_c, 0, 64, 86
1, 85784, Control_c, 0, 64, 85
1, 85799, Control_c, 0, 64, 83
1, 85814, Control_c, 0, 64, 81
1, 85820, Note_off_c, 0, 37, 62
1, 85829, Control_c, 0, 64, 78
1, 85832, Note_on_c, 0, 39, 57
1, 85844, Control_c, 0, 64, 75
1, 85859, Control_c, 0, 64, 69
1, 85874, Control_c, 0, 64, 64
1, 85888, Control_c, 0, 64, 57
1, 85891, Note_on_c, 0, 61, 69
1, 85892, Note_on_c, 0, 49, 59
1, 85894, Note_on_c, 0, 57, 62
1, 85903, Note_off_c, 0, 39, 60
1, 85903, Control_c, 0, 64, 51
1, 85915, Note_on_c, 0, 37, 55
1, 85918, Control_c, 0, 64, 46
1, 85933, Control_c, 0, 64, 39
1, 85948, Control_c, 0, 64, 32
1, 85963, Control_c, 0, 64, 18
1, 85978, Control_c, 0, 64, 0
1, 86052, Control_c, 0, 64, 32
1, 86067, Control_c, 0, 64, 51
1, 86082, Control_c, 0, 64, 61
1, 86097, Control_c, 0, 64, 65
1, 86112, Control_c, 0, 64, 68
1, 86125, Note_off_c, 0, 57, 57
1, 86126, Control_c, 0, 64, 72
1, 86141, Control_c, 0, 64, 78
1, 86156, Control_c, 0, 64, 83
1, 86171, Control_c, 0, 64, 84
1, 86186, Control_c, 0, 64, 86
1, 86200, Control_c, 0, 64, 87
1, 86215, Control_c, 0, 64, 89
1, 86230, Control_c, 0, 64, 90
1, 86259, Control_c, 0, 64, 90
1, 86321, Note_off_c, 0, 61, 59
1, 86328, Note_on_c, 0, 57, 64
1, 86335, Note_on_c, 0, 54, 52
1, 86345, Note_off_c, 0, 49, 54
1, 86401, Control_c, 0, 64, 90
1, 86415, Control_c, 0, 64, 89
1, 86430, Control_c, 0, 64, 87
1, 86445, Control_c, 0, 64, 85
1, 86459, Control_c, 0, 64, 82
1, 86474, Control_c, 0, 64, 79
1, 86489, Control_c, 0, 64, 75
1, 86504, Control_c, 0, 64, 69
1, 86519, Control_c, 0, 64, 64
1, 86528, Note_on_c, 0, 36, 51
1, 86531, Note_off_c, 0, 37, 57
1, 86533, Control_c, 0, 64, 57
1, 86548, Control_c, 0, 64, 51
1, 86563, Control_c, 0, 64, 45
1, 86577, Control_c, 0, 64, 41
1, 86592, Control_c, 0, 64, 33
1, 86607, Control_c, 0, 64, 12
1, 86623, Control_c, 0, 64, 0
1, 86735, Note_off_c, 0, 36, 58
1, 86742, Control_c, 0, 64, 41
1, 86747, Note_on_c, 0, 37, 56
1, 86756, Control_c, 0, 64, 62
1, 86771, Control_c, 0, 64, 66
1, 86786, Control_c, 0, 64, 72
1, 86795, Note_off_c, 0, 57, 51
1, 86801, Control_c, 0, 64, 80
1, 86816, Control_c, 0, 64, 88
1, 86830, Control_c, 0, 64, 92
1, 86845, Control_c, 0, 64, 95
1, 86860, Control_c, 0, 64, 99
1, 86869, Note_off_c, 0, 54, 58
1, 86875, Control_c, 0, 64, 102
1, 86890, Control_c, 0, 64, 105
1, 86905, Control_c, 0, 64, 108
1, 86920, Control_c, 0, 64, 109
1, 86935, Control_c, 0, 64, 110
1, 87075, Note_on_c, 0, 52, 65
1, 87075, Control_c, 0, 64, 106
1, 87075, Note_on_c, 0, 56, 62
1, 87090, Control_c, 0, 64, 97
1, 87105, Note_off_c, 0, 56, 67
1, 87105, Control_c, 0, 64, 86
1, 87111, Note_off_c, 0, 52, 61
1, 87120, Control_c, 0, 64, 75
1, 87135, Control_c, 0, 64, 65
1, 87149, Control_c, 0, 64, 54
1, 87164, Control_c, 0, 64, 61
1, 87171, Note_on_c, 0, 56, 69
1, 87179, Control_c, 0, 64, 65
1, 87180, Note_on_c, 0, 52, 60
1, 87194, Control_c, 0, 64, 69
1, 87208, Control_c, 0, 64, 73
1, 87223, Control_c, 0, 64, 78
1, 87238, Control_c, 0, 64, 81
1, 87253, Control_c, 0, 64, 84
1, 87268, Control_c, 0, 64, 86
1, 87282, Control_c, 0, 64, 88
1, 87294, Note_off_c, 0, 52, 54
1, 87297, Control_c, 0, 64, 91
1, 87312, Control_c, 0, 64, 93
1, 87327, Control_c, 0, 64, 95
1, 87342, Control_c, 0, 64, 97
1, 87356, Control_c, 0, 64, 98
1, 87371, Control_c, 0, 64, 98
1, 87385, Note_off_c, 0, 56, 53
1, 87386, Control_c, 0, 64, 99
1, 87400, Control_c, 0, 64, 99
1, 87472, Note_on_c, 0, 55, 69
1, 87476, Control_c, 0, 64, 99
1, 87480, Note_on_c, 0, 51, 57
1, 87491, Control_c, 0, 64, 97
1, 87505, Control_c, 0, 64, 92
1, 87520, Control_c, 0, 64, 86
1, 87522, Note_off_c, 0, 55, 54
1, 87535, Control_c, 0, 64, 80
1, 87550, Control_c, 0, 64, 72
1, 87554, Note_off_c, 0, 51, 38
1, 87565, Control_c, 0, 64, 65
1, 87579, Control_c, 0, 64, 59
1, 87585, Note_on_c, 0, 56, 63
1, 87588, Note_on_c, 0, 52, 58
1, 87594, Control_c, 0, 64, 57
1, 87623, Control_c, 0, 64, 56
1, 87638, Control_c, 0, 64, 55
1, 87653, Control_c, 0, 64, 52
1, 87668, Control_c, 0, 64, 50
1, 87683, Control_c, 0, 64, 49
1, 87805, Note_off_c, 0, 56, 61
1, 87823, Control_c, 0, 64, 47
1, 87838, Control_c, 0, 64, 42
1, 87853, Control_c, 0, 64, 30
1, 87868, Control_c, 0, 64, 27
1, 87874, Note_on_c, 0, 57, 65
1, 87883, Control_c, 0, 64, 32
1, 87886, Note_on_c, 0, 54, 56
1, 87890, Note_off_c, 0, 52, 60
1, 87898, Control_c, 0, 64, 45
1, 87913, Control_c, 0, 64, 54
1, 87920, Note_off_c, 0, 54, 63
1, 87927, Control_c, 0, 64, 55
1, 87930, Note_off_c, 0, 57, 60
1, 87957, Control_c, 0, 64, 54
1, 87972, Control_c, 0, 64, 54
1, 87973, Note_off_c, 0, 37, 62
1, 87978, Note_on_c, 0, 56, 71
1, 87979, Note_on_c, 0, 52, 62
1, 87987, Control_c, 0, 64, 53
1, 88002, Control_c, 0, 64, 52
1, 88011, Note_off_c, 0, 52, 65
1, 88017, Control_c, 0, 64, 52
1, 88018, Note_off_c, 0, 56, 62
1, 88031, Control_c, 0, 64, 51
1, 88046, Control_c, 0, 64, 50
1, 88061, Control_c, 0, 64, 50
1, 88314, Control_c, 0, 64, 50
1, 88316, Note_on_c, 0, 60, 64
1, 88386, Note_on_c, 0, 56, 65
1, 88398, Note_on_c, 0, 52, 49
1, 88402, Control_c, 0, 64, 51
1, 88405, Note_off_c, 0, 60, 58
1, 88410, Note_on_c, 0, 61, 64
1, 88417, Control_c, 0, 64, 51
1, 88521, Control_c, 0, 64, 52
1, 88536, Control_c, 0, 64, 53
1, 88558, Control_c, 0, 64, 53
1, 88573, Control_c, 0, 64, 54
1, 88587, Control_c, 0, 64, 54
1, 88617, Control_c, 0, 64, 55
1, 88705, Note_off_c, 0, 61, 57
1, 88720, Note_on_c, 0, 60, 59
1, 88823, Note_off_c, 0, 60, 61
1, 88836, Note_on_c, 0, 61, 65
1, 88928, Control_c, 0, 64, 55
1, 89001, Note_off_c, 0, 56, 37
1, 89033, Control_c, 0, 64, 56
1, 89059, Note_off_c, 0, 52, 58
1, 89078, Control_c, 0, 64, 56
1, 89106, Note_off_c, 0, 61, 60
1, 89121, Note_on_c, 0, 63, 61
1, 89123, Note_on_c, 0, 57, 60
1, 89127, Note_on_c, 0, 54, 61
1, 89138, Control_c, 0, 64, 57
1, 89152, Control_c, 0, 64, 58
1, 89156, Note_off_c, 0, 57, 65
1, 89156, Note_off_c, 0, 54, 65
1, 89167, Control_c, 0, 64, 59
1, 89182, Control_c, 0, 64, 60
1, 89185, Note_off_c, 0, 63, 61
1, 89211, Note_on_c, 0, 60, 68
1, 89221, Note_on_c, 0, 54, 67
1, 89224, Note_on_c, 0, 51, 60
1, 89239, Note_off_c, 0, 60, 66
1, 89251, Note_off_c, 0, 54, 61
1, 89254, Note_off_c, 0, 51, 65
1, 89256, Control_c, 0, 64, 59
1, 89352, Control_c, 0, 64, 59
1, 89382, Control_c, 0, 64, 58
1, 89411, Control_c, 0, 64, 57
1, 89426, Control_c, 0, 64, 56
1, 89441, Control_c, 0, 64, 56
1, 89471, Control_c, 0, 64, 55
1, 89500, Control_c, 0, 64, 55
1, 89526, Note_on_c, 0, 44, 58
1, 89530, Control_c, 0, 64, 54
1, 89545, Control_c, 0, 64, 53
1, 89558, Note_off_c, 0, 44, 63
1, 89559, Control_c, 0, 64, 52
1, 89574, Control_c, 0, 64, 51
1, 89589, Control_c, 0, 64, 50
1, 89603, Control_c, 0, 64, 49
1, 89613, Note_on_c, 0, 68, 84
1, 89618, Control_c, 0, 64, 48
1, 89623, Note_on_c, 0, 56, 68
1, 89633, Control_c, 0, 64, 48
1, 89635, Note_on_c, 0, 45, 62
1, 89642, Note_on_c, 0, 44, 59
1, 89648, Control_c, 0, 64, 46
1, 89663, Control_c, 0, 64, 46
1, 89677, Control_c, 0, 64, 45
1, 89678, Note_off_c, 0, 45, 57
1, 89722, Control_c, 0, 64, 45
1, 89874, Note_off_c, 0, 44, 58
1, 89900, Control_c, 0, 64, 46
1, 89905, Note_on_c, 0, 43, 54
1, 89915, Control_c, 0, 64, 53
1, 89930, Control_c, 0, 64, 60
1, 89945, Control_c, 0, 64, 64
1, 89959, Note_off_c, 0, 68, 61
1, 89960, Control_c, 0, 64, 69
1, 89974, Control_c, 0, 64, 77
1, 89981, Note_off_c, 0, 43, 62
1, 89989, Control_c, 0, 64, 89
1, 89999, Note_on_c, 0, 44, 69
1, 90004, Control_c, 0, 64, 104
1, 90005, Note_off_c, 0, 56, 62
1, 90018, Control_c, 0, 64, 127
1, 90283, Note_off_c, 0, 44, 54
1, 90287, Note_on_c, 0, 60, 63
1, 90288, Note_on_c, 0, 54, 66
1, 90291, Note_on_c, 0, 32, 62
1, 90291, Note_on_c, 0, 51, 60
1, 90307, Control_c, 0, 64, 108
1, 90318, Note_off_c, 0, 60, 65
1, 90319, Note_off_c, 0, 54, 65
1, 90320, Note_off_c, 0, 51, 65
1, 90322, Control_c, 0, 64, 91
1, 90337, Control_c, 0, 64, 76
1, 90351, Control_c, 0, 64, 51
1, 90366, Control_c, 0, 64, 0
1, 90377, Note_on_c, 0, 61, 82
1, 90384, Note_on_c, 0, 56, 79
1, 90386, Note_on_c, 0, 52, 80
1, 90389, Note_on_c, 0, 37, 75
1, 90394, Note_off_c, 0, 32, 63
1, 90411, Note_off_c, 0, 52, 66
1, 90416, Note_off_c, 0, 56, 63
1, 90419, Note_off_c, 0, 61, 59
1, 90422, Note_off_c, 0, 37, 65
1, 90710, Note_on_c, 0, 60, 71
1, 90804, Note_off_c, 0, 60, 57
1, 90813, Note_on_c, 0, 61, 74
1, 90814, Note_on_c, 0, 56, 74
1, 90820, Note_on_c, 0, 52, 65
1, 91120, Note_on_c, 0, 60, 56
1, 91127, Note_off_c, 0, 61, 57
1, 91207, Note_off_c, 0, 60, 59
1, 91226, Note_on_c, 0, 61, 72
1, 91262, Note_off_c, 0, 56, 33
1, 91465, Note_off_c, 0, 61, 60
1, 91498, Note_on_c, 0, 61, 52
1, 91499, Note_off_c, 0, 52, 0
1, 91499, Note_on_c, 0, 52, 22
1, 91500, Note_on_c, 0, 64, 68
1, 91505, Note_on_c, 0, 56, 65
1, 91530, Note_off_c, 0, 56, 67
1, 91555, Note_off_c, 0, 52, 62
1, 91555, Note_off_c, 0, 64, 60
1, 91558, Note_off_c, 0, 61, 64
1, 91599, Note_on_c, 0, 63, 81
1, 91615, Note_on_c, 0, 57, 80
1, 91621, Note_on_c, 0, 54, 68
1, 91626, Note_off_c, 0, 63, 66
1, 91647, Note_off_c, 0, 57, 62
1, 91652, Note_off_c, 0, 54, 67
1, 91914, Note_on_c, 0, 47, 59
1, 91955, Note_off_c, 0, 47, 61
1, 92009, Note_on_c, 0, 71, 89
1, 92014, Note_on_c, 0, 59, 77
1, 92023, Note_on_c, 0, 49, 65
1, 92045, Note_on_c, 0, 47, 46
1, 92063, Note_off_c, 0, 49, 58
1, 92327, Note_off_c, 0, 47, 58
1, 92337, Note_on_c, 0, 46, 59
1, 92373, Note_off_c, 0, 71, 62
1, 92376, Control_c, 0, 64, 31
1, 92391, Control_c, 0, 64, 55
1, 92406, Control_c, 0, 64, 64
1, 92418, Note_off_c, 0, 46, 62
1, 92420, Control_c, 0, 64, 68
1, 92426, Note_off_c, 0, 59, 63
1, 92433, Note_on_c, 0, 47, 75
1, 92435, Control_c, 0, 64, 75
1, 92450, Control_c, 0, 64, 83
1, 92465, Control_c, 0, 64, 88
1, 92480, Control_c, 0, 64, 90
1, 92494, Control_c, 0, 64, 92
1, 92509, Control_c, 0, 64, 93
1, 92524, Control_c, 0, 64, 94
1, 92539, Control_c, 0, 64, 95
1, 92554, Control_c, 0, 64, 96
1, 92569, Control_c, 0, 64, 97
1, 92584, Control_c, 0, 64, 97
1, 92628, Control_c, 0, 64, 98
1, 92681, Note_off_c, 0, 47, 56
1, 92702, Control_c, 0, 64, 97
1, 92705, Note_on_c, 0, 63, 72
1, 92706, Note_on_c, 0, 35, 64
1, 92717, Control_c, 0, 64, 92
1, 92721, Note_on_c, 0, 54, 51
1, 92732, Control_c, 0, 64, 85
1, 92738, Note_off_c, 0, 63, 62
1, 92746, Control_c, 0, 64, 75
1, 92748, Note_off_c, 0, 54, 55
1, 92762, Control_c, 0, 64, 65
1, 92777, Control_c, 0, 64, 0
1, 92792, Note_on_c, 0, 64, 88
1, 92797, Note_on_c, 0, 56, 84
1, 92801, Note_on_c, 0, 40, 76
1, 92802, Note_off_c, 0, 35, 63
1, 92803, Note_on_c, 0, 59, 72
1, 92823, Note_off_c, 0, 56, 66
1, 92827, Note_off_c, 0, 64, 63
1, 92829, Note_off_c, 0, 59, 68
1, 92834, Note_off_c, 0, 40, 65
1, 93097, Note_on_c, 0, 63, 75
1, 93188, Note_on_c, 0, 66, 85
1, 93192, Note_on_c, 0, 59, 80
1, 93197, Note_on_c, 0, 56, 75
1, 93210, Note_on_c, 0, 64, 76
1, 93225, Note_off_c, 0, 66, 62
1, 93253, Note_off_c, 0, 63, 36
1, 93472, Note_off_c, 0, 64, 63
1, 93483, Note_on_c, 0, 63, 68
1, 93605, Note_on_c, 0, 64, 71
1, 93652, Note_off_c, 0, 63, 29
1, 93746, Note_off_c, 0, 59, 33
1, 93828, Note_off_c, 0, 56, 56
1, 93870, Note_off_c, 0, 64, 59
1, 93889, Note_on_c, 0, 66, 73
1, 93901, Note_on_c, 0, 60, 68
1, 93906, Note_on_c, 0, 57, 68
1, 93937, Note_off_c, 0, 57, 66
1, 93953, Note_off_c, 0, 60, 59
1, 93967, Note_off_c, 0, 66, 61
1, 93994, Note_on_c, 0, 63, 77
1, 94006, Note_on_c, 0, 57, 79
1, 94015, Note_on_c, 0, 54, 70
1, 94020, Note_off_c, 0, 63, 68
1, 94034, Note_off_c, 0, 57, 64
1, 94046, Note_off_c, 0, 54, 65
1, 94265, Note_on_c, 0, 61, 66
1, 94298, Note_off_c, 0, 61, 64
1, 94358, Note_on_c, 0, 64, 66
1, 94372, Note_on_c, 0, 57, 62
1, 94380, Note_on_c, 0, 63, 73
1, 94387, Note_on_c, 0, 54, 56
1, 94393, Note_on_c, 0, 47, 46
1, 94413, Note_off_c, 0, 64, 63
1, 94525, Control_c, 0, 64, 45
1, 94548, Control_c, 0, 64, 59
1, 94563, Control_c, 0, 64, 63
1, 94578, Control_c, 0, 64, 66
1, 94592, Control_c, 0, 64, 69
1, 94607, Control_c, 0, 64, 74
1, 94623, Control_c, 0, 64, 77
1, 94637, Control_c, 0, 64, 79
1, 94652, Control_c, 0, 64, 79
1, 94658, Note_off_c, 0, 54, 38
1, 94667, Control_c, 0, 64, 80
1, 94667, Note_on_c, 0, 61, 78
1, 94673, Note_off_c, 0, 63, 64
1, 94707, Note_off_c, 0, 57, 36
1, 94727, Control_c, 0, 64, 78
1, 94741, Control_c, 0, 64, 73
1, 94756, Control_c, 0, 64, 66
1, 94771, Control_c, 0, 64, 38
1, 94773, Note_on_c, 0, 63, 82
1, 94784, Note_on_c, 0, 48, 50
1, 94786, Control_c, 0, 64, 0
1, 94788, Note_on_c, 0, 54, 58
1, 94789, Note_on_c, 0, 57, 65
1, 94809, Note_off_c, 0, 61, 56
1, 94830, Control_c, 0, 64, 35
1, 94845, Control_c, 0, 64, 62
1, 94860, Control_c, 0, 64, 65
1, 94874, Control_c, 0, 64, 68
1, 94889, Control_c, 0, 64, 72
1, 94904, Control_c, 0, 64, 76
1, 94919, Note_off_c, 0, 47, 23
1, 94919, Control_c, 0, 64, 78
1, 94934, Control_c, 0, 64, 80
1, 94948, Control_c, 0, 64, 82
1, 94963, Control_c, 0, 64, 83
1, 94974, Note_off_c, 0, 57, 60
1, 94978, Control_c, 0, 64, 84
1, 94993, Control_c, 0, 64, 84
1, 95008, Control_c, 0, 64, 85
1, 95019, Note_on_c, 0, 64, 74
1, 95022, Note_off_c, 0, 54, 51
1, 95022, Control_c, 0, 64, 85
1, 95043, Note_off_c, 0, 63, 52
1, 95052, Control_c, 0, 64, 86
1, 95097, Control_c, 0, 64, 85
1, 95111, Control_c, 0, 64, 82
1, 95113, Note_off_c, 0, 64, 60
1, 95126, Control_c, 0, 64, 76
1, 95132, Note_off_c, 0, 48, 57
1, 95141, Control_c, 0, 64, 66
1, 95142, Note_on_c, 0, 63, 75
1, 95150, Note_on_c, 0, 54, 54
1, 95152, Note_on_c, 0, 49, 54
1, 95155, Note_on_c, 0, 56, 66
1, 95156, Control_c, 0, 64, 34
1, 95171, Control_c, 0, 64, 0
1, 95186, Control_c, 0, 64, 22
1, 95201, Control_c, 0, 64, 55
1, 95215, Control_c, 0, 64, 64
1, 95230, Control_c, 0, 64, 67
1, 95245, Control_c, 0, 64, 71
1, 95259, Control_c, 0, 64, 74
1, 95274, Control_c, 0, 64, 76
1, 95296, Control_c, 0, 64, 77
1, 95311, Control_c, 0, 64, 78
1, 95326, Control_c, 0, 64, 79
1, 95341, Control_c, 0, 64, 80
1, 95356, Control_c, 0, 64, 81
1, 95371, Control_c, 0, 64, 82
1, 95383, Note_off_c, 0, 63, 60
1, 95385, Control_c, 0, 64, 83
1, 95400, Control_c, 0, 64, 83
1, 95406, Note_off_c, 0, 54, 61
1, 95411, Note_on_c, 0, 60, 71
1, 95412, Note_off_c, 0, 56, 63
1, 95416, Control_c, 0, 64, 84
1, 95421, Note_on_c, 0, 51, 59
1, 95459, Note_off_c, 0, 60, 59
1, 95460, Control_c, 0, 64, 82
1, 95469, Note_off_c, 0, 49, 33
1, 95475, Control_c, 0, 64, 79
1, 95489, Note_on_c, 0, 63, 66
1, 95490, Control_c, 0, 64, 73
1, 95505, Control_c, 0, 64, 66
1, 95520, Control_c, 0, 64, 44
1, 95535, Control_c, 0, 64, 0
1, 95535, Note_on_c, 0, 61, 73
1, 95544, Note_on_c, 0, 55, 55
1, 95544, Note_on_c, 0, 46, 49
1, 95553, Note_off_c, 0, 63, 62
1, 95563, Note_on_c, 0, 52, 48
1, 95578, Note_off_c, 0, 51, 38
1, 95579, Control_c, 0, 64, 31
1, 95594, Control_c, 0, 64, 35
1, 95638, Control_c, 0, 64, 36
1, 95653, Control_c, 0, 64, 38
1, 95668, Control_c, 0, 64, 41
1, 95682, Control_c, 0, 64, 42
1, 95697, Control_c, 0, 64, 42
1, 95712, Control_c, 0, 64, 43
1, 95796, Note_off_c, 0, 52, 54
1, 95798, Note_off_c, 0, 55, 59
1, 95800, Note_on_c, 0, 60, 63
1, 95809, Note_off_c, 0, 61, 60
1, 95831, Control_c, 0, 64, 44
1, 95890, Control_c, 0, 64, 44
1, 95909, Note_off_c, 0, 46, 58
1, 95915, Note_off_c, 0, 60, 58
1, 95925, Note_on_c, 0, 61, 67
1, 95927, Note_on_c, 0, 55, 45
1, 95934, Note_on_c, 0, 45, 46
1, 95946, Note_on_c, 0, 52, 40
1, 96133, Note_off_c, 0, 52, 41
1, 96146, Note_off_c, 0, 55, 52
1, 96178, Note_off_c, 0, 61, 61
1, 96193, Note_on_c, 0, 63, 59
1, 96339, Note_off_c, 0, 45, 53
1, 96342, Note_on_c, 0, 55, 44
1, 96343, Note_on_c, 0, 61, 59
1, 96354, Note_on_c, 0, 52, 39
1, 96380, Note_on_c, 0, 44, 39
1, 96388, Note_off_c, 0, 63, 37
1, 96521, Control_c, 0, 64, 45
1, 96524, Note_off_c, 0, 55, 51
1, 96551, Control_c, 0, 64, 45
1, 96612, Note_on_c, 0, 58, 60
1, 96615, Note_off_c, 0, 61, 53
1, 96620, Note_off_c, 0, 44, 40
1, 96626, Note_off_c, 0, 52, 41
1, 96632, Note_on_c, 0, 49, 47
1, 96659, Note_off_c, 0, 58, 57
1, 96692, Note_off_c, 0, 49, 53
1, 96724, Note_on_c, 0, 60, 66
1, 96739, Note_on_c, 0, 51, 53
1, 96739, Note_on_c, 0, 56, 44
1, 96754, Note_off_c, 0, 60, 65
1, 96766, Note_off_c, 0, 56, 56
1, 96773, Note_off_c, 0, 51, 64
1, 96854, Control_c, 0, 64, 45
1, 96869, Control_c, 0, 64, 44
1, 96884, Control_c, 0, 64, 44
1, 96913, Control_c, 0, 64, 43
1, 97002, Note_on_c, 0, 54, 44
1, 97010, Note_on_c, 0, 60, 48
1, 97013, Note_on_c, 0, 63, 48
1, 97037, Note_off_c, 0, 60, 56
1, 97039, Note_off_c, 0, 63, 60
1, 97049, Note_off_c, 0, 54, 57
1, 97112, Note_on_c, 0, 66, 74
1, 97113, Note_on_c, 0, 63, 64
1, 97132, Note_on_c, 0, 57, 48
1, 97142, Note_off_c, 0, 63, 66
1, 97144, Note_off_c, 0, 66, 65
1, 97173, Note_off_c, 0, 57, 58
1, 97370, Note_on_c, 0, 69, 61
1, 97380, Note_on_c, 0, 66, 60
1, 97400, Note_off_c, 0, 69, 65
1, 97409, Note_off_c, 0, 66, 67
1, 97481, Note_on_c, 0, 68, 74
1, 97494, Note_on_c, 0, 64, 46
1, 97505, Note_on_c, 0, 61, 32
1, 97514, Note_off_c, 0, 68, 62
1, 97518, Note_off_c, 0, 64, 57
1, 97522, Control_c, 0, 64, 44
1, 97544, Note_off_c, 0, 61, 48
1, 97574, Control_c, 0, 64, 44
1, 97737, Note_on_c, 0, 72, 73
1, 97745, Note_on_c, 0, 63, 53
1, 97748, Note_on_c, 0, 66, 62
1, 97767, Note_off_c, 0, 72, 66
1, 97769, Note_off_c, 0, 63, 60
1, 97776, Note_off_c, 0, 66, 67
1, 97849, Note_on_c, 0, 73, 74
1, 97850, Note_on_c, 0, 68, 73
1, 97857, Note_on_c, 0, 61, 77
1, 97861, Note_on_c, 0, 64, 48
1, 97865, Note_on_c, 0, 49, 66
1, 97875, Note_off_c, 0, 68, 68
1, 97884, Note_off_c, 0, 64, 58
1, 97889, Note_off_c, 0, 73, 62
1, 98092, Control_c, 0, 64, 45
1, 98107, Note_on_c, 0, 75, 71
1, 98110, Note_on_c, 0, 69, 56
1, 98116, Note_on_c, 0, 66, 60
1, 98122, Control_c, 0, 64, 45
1, 98137, Note_off_c, 0, 69, 64
1, 98138, Note_off_c, 0, 66, 63
1, 98149, Note_off_c, 0, 75, 57
1, 98218, Note_on_c, 0, 76, 72
1, 98222, Note_on_c, 0, 73, 68
1, 98223, Note_on_c, 0, 68, 71
1, 98245, Note_off_c, 0, 76, 66
1, 98250, Note_off_c, 0, 68, 68
1, 98250, Note_off_c, 0, 73, 67
1, 98370, Note_off_c, 0, 61, 57
1, 98425, Control_c, 0, 64, 46
1, 98494, Note_on_c, 0, 78, 78
1, 98501, Note_on_c, 0, 63, 64
1, 98503, Note_on_c, 0, 69, 63
1, 98510, Note_on_c, 0, 51, 56
1, 98512, Note_on_c, 0, 72, 61
1, 98524, Note_off_c, 0, 69, 64
1, 98525, Note_off_c, 0, 78, 61
1, 98531, Note_off_c, 0, 63, 66
1, 98533, Note_off_c, 0, 72, 61
1, 98536, Note_off_c, 0, 49, 40
1, 98550, Note_off_c, 0, 51, 63
1, 98588, Control_c, 0, 64, 46
1, 98603, Control_c, 0, 64, 47
1, 98611, Note_on_c, 0, 80, 80
1, 98613, Note_on_c, 0, 68, 79
1, 98614, Note_on_c, 0, 75, 72
1, 98619, Control_c, 0, 64, 48
1, 98626, Note_on_c, 0, 48, 74
1, 98631, Note_on_c, 0, 60, 62
1, 98633, Control_c, 0, 64, 49
1, 98653, Note_off_c, 0, 60, 61
1, 98660, Note_off_c, 0, 48, 62
1, 98730, Note_off_c, 0, 68, 0
1, 98730, Note_on_c, 0, 68, 11
1, 98737, Control_c, 0, 64, 48
1, 98873, Note_off_c, 0, 80, 56
1, 98888, Note_on_c, 0, 57, 70
1, 98893, Note_on_c, 0, 45, 65
1, 98895, Note_off_c, 0, 75, 56
1, 98915, Note_off_c, 0, 57, 66
1, 98925, Note_off_c, 0, 45, 64
1, 98933, Note_off_c, 0, 68, 52
1, 98993, Note_on_c, 0, 44, 84
1, 98996, Note_on_c, 0, 56, 79
1, 99022, Note_off_c, 0, 56, 68
1, 99034, Note_off_c, 0, 44, 59
1, 99040, Control_c, 0, 64, 48
1, 99282, Note_on_c, 0, 42, 60
1, 99285, Note_on_c, 0, 54, 54
1, 99291, Note_on_c, 0, 68, 68
1, 99292, Note_on_c, 0, 56, 61
1, 99309, Note_off_c, 0, 54, 61
1, 99310, Note_off_c, 0, 42, 64
1, 99317, Note_off_c, 0, 68, 66
1, 99319, Note_off_c, 0, 56, 65
1, 99381, Note_on_c, 0, 68, 80
1, 99384, Note_on_c, 0, 56, 79
1, 99386, Note_on_c, 0, 40, 69
1, 99388, Note_on_c, 0, 52, 70
1, 99416, Note_off_c, 0, 40, 65
1, 99418, Note_off_c, 0, 52, 65
1, 99424, Note_off_c, 0, 56, 64
1, 99434, Note_off_c, 0, 68, 60
1, 99575, Control_c, 0, 64, 48
1, 99674, Note_on_c, 0, 56, 66
1, 99675, Note_on_c, 0, 39, 62
1, 99678, Note_on_c, 0, 51, 52
1, 99680, Note_on_c, 0, 68, 54
1, 99693, Control_c, 0, 64, 48
1, 99700, Note_off_c, 0, 56, 67
1, 99705, Note_off_c, 0, 51, 57
1, 99706, Note_off_c, 0, 68, 63
1, 99708, Note_off_c, 0, 39, 64
1, 99709, Note_on_c, 0, 66, 7
1, 99744, Note_off_c, 0, 66, 44
1, 99763, Note_on_c, 0, 56, 77
1, 99768, Note_on_c, 0, 49, 74
1, 99768, Note_on_c, 0, 68, 83
1, 99771, Note_on_c, 0, 37, 74
1, 99782, Note_on_c, 0, 64, 69
1, 99783, Note_on_c, 0, 61, 72
1, 99794, Note_off_c, 0, 56, 67
1, 99803, Note_off_c, 0, 49, 67
1, 99806, Note_off_c, 0, 37, 64
1, 99809, Note_off_c, 0, 64, 67
1, 99811, Note_off_c, 0, 61, 68
1, 99828, Note_off_c, 0, 68, 65
1, 99893, Control_c, 0, 64, 48
1, 99908, Control_c, 0, 64, 49
1, 100033, Note_on_c, 0, 72, 67
1, 100039, Note_on_c, 0, 63, 48
1, 100044, Note_on_c, 0, 66, 59
1, 100061, Note_off_c, 0, 72, 66
1, 100064, Note_off_c, 0, 63, 55
1, 100069, Note_off_c, 0, 66, 65
1, 100086, Control_c, 0, 64, 48
1, 100100, Control_c, 0, 64, 48
1, 100125, Note_on_c, 0, 73, 84
1, 100131, Note_on_c, 0, 68, 76
1, 100134, Note_on_c, 0, 64, 63
1, 100141, Note_on_c, 0, 61, 73
1, 100152, Note_on_c, 0, 49, 58
1, 100153, Note_off_c, 0, 64, 65
1, 100161, Note_off_c, 0, 68, 65
1, 100171, Note_off_c, 0, 73, 61
1, 100249, Control_c, 0, 64, 48
1, 100293, Control_c, 0, 64, 49
1, 100338, Control_c, 0, 64, 49
1, 100406, Note_on_c, 0, 75, 68
1, 100416, Note_on_c, 0, 66, 57
1, 100440, Note_off_c, 0, 66, 60
1, 100441, Note_off_c, 0, 75, 60
1, 100513, Note_on_c, 0, 76, 73
1, 100527, Note_on_c, 0, 68, 70
1, 100537, Note_on_c, 0, 73, 53
1, 100546, Note_off_c, 0, 76, 69
1, 100555, Note_off_c, 0, 68, 66
1, 100560, Note_off_c, 0, 73, 59
1, 100688, Note_off_c, 0, 49, 62
1, 100709, Note_off_c, 0, 61, 62
1, 100801, Note_on_c, 0, 64, 71
1, 100808, Note_on_c, 0, 80, 81
1, 100811, Note_on_c, 0, 70, 81
1, 100814, Note_on_c, 0, 73, 73
1, 100819, Note_on_c, 0, 52, 35
1, 100828, Note_off_c, 0, 64, 68
1, 100831, Note_off_c, 0, 80, 67
1, 100832, Note_off_c, 0, 70, 69
1, 100834, Control_c, 0, 64, 50
1, 100838, Note_off_c, 0, 73, 68
1, 100859, Note_off_c, 0, 52, 45
1, 100864, Control_c, 0, 64, 49
1, 100915, Note_on_c, 0, 51, 79
1, 100916, Note_on_c, 0, 63, 73
1, 100918, Note_on_c, 0, 83, 92
1, 100920, Note_on_c, 0, 71, 93
1, 100922, Note_on_c, 0, 78, 82
1, 100946, Note_off_c, 0, 63, 63
1, 100952, Note_off_c, 0, 51, 55
1, 101101, Control_c, 0, 64, 50
1, 101198, Note_on_c, 0, 49, 68
1, 101201, Note_on_c, 0, 61, 64
1, 101217, Note_off_c, 0, 83, 59
1, 101230, Note_off_c, 0, 49, 65
1, 101230, Note_off_c, 0, 61, 65
1, 101246, Note_off_c, 0, 78, 58
1, 101271, Note_off_c, 0, 71, 59
1, 101309, Note_on_c, 0, 47, 81
1, 101310, Note_on_c, 0, 59, 78
1, 101335, Note_off_c, 0, 59, 69
1, 101343, Note_off_c, 0, 47, 61
1, 101611, Note_on_c, 0, 57, 65
1, 101618, Note_on_c, 0, 45, 56
1, 101621, Note_on_c, 0, 71, 74
1, 101622, Note_on_c, 0, 59, 69
1, 101637, Note_off_c, 0, 57, 62
1, 101645, Note_off_c, 0, 45, 55
1, 101647, Note_off_c, 0, 59, 69
1, 101647, Note_off_c, 0, 71, 67
1, 101701, Control_c, 0, 64, 49
1, 101714, Note_on_c, 0, 59, 81
1, 101714, Note_on_c, 0, 71, 79
1, 101717, Note_on_c, 0, 56, 70
1, 101718, Note_on_c, 0, 44, 76
1, 101744, Note_off_c, 0, 56, 67
1, 101747, Note_off_c, 0, 44, 63
1, 101753, Note_off_c, 0, 59, 60
1, 101758, Note_off_c, 0, 71, 59
1, 101850, Control_c, 0, 64, 50
1, 102003, Note_on_c, 0, 54, 51
1, 102004, Note_on_c, 0, 42, 56
1, 102006, Note_on_c, 0, 71, 64
1, 102012, Note_on_c, 0, 59, 61
1, 102013, Control_c, 0, 64, 49
1, 102039, Note_off_c, 0, 54, 61
1, 102042, Note_on_c, 0, 63, 41
1, 102043, Note_off_c, 0, 42, 64
1, 102045, Note_on_c, 0, 69, 16
1, 102047, Note_off_c, 0, 71, 65
1, 102049, Note_off_c, 0, 59, 65
1, 102051, Control_c, 0, 64, 49
1, 102072, Note_off_c, 0, 63, 49
1, 102086, Note_off_c, 0, 69, 38
1, 102114, Note_on_c, 0, 40, 76
1, 102114, Note_on_c, 0, 52, 77
1, 102114, Note_on_c, 0, 59, 72
1, 102114, Note_on_c, 0, 71, 85
1, 102120, Note_on_c, 0, 64, 69
1, 102120, Note_on_c, 0, 68, 75
1, 102135, Note_off_c, 0, 59, 64
1, 102141, Note_off_c, 0, 52, 65
1, 102143, Note_off_c, 0, 40, 64
1, 102148, Note_off_c, 0, 64, 68
1, 102151, Note_off_c, 0, 68, 67
1, 102154, Control_c, 0, 64, 49
1, 102156, Note_off_c, 0, 71, 65
1, 102257, Control_c, 0, 64, 50
1, 102398, Note_on_c, 0, 69, 55
1, 102398, Note_on_c, 0, 75, 70
1, 102406, Control_c, 0, 64, 49
1, 102425, Note_off_c, 0, 75, 66
1, 102427, Note_off_c, 0, 69, 64
1, 102506, Note_on_c, 0, 68, 74
1, 102508, Note_on_c, 0, 52, 70
1, 102509, Note_on_c, 0, 64, 75
1, 102510, Note_on_c, 0, 71, 55
1, 102510, Note_on_c, 0, 76, 54
1, 102522, Note_on_c, 0, 77, 46
1, 102532, Note_off_c, 0, 71, 61
1, 102533, Note_off_c, 0, 68, 69
1, 102537, Note_off_c, 0, 76, 66
1, 102548, Note_off_c, 0, 77, 56
1, 102644, Control_c, 0, 64, 50
1, 102793, Note_on_c, 0, 78, 69
1, 102799, Control_c, 0, 64, 49
1, 102803, Note_on_c, 0, 69, 55
1, 102812, Note_on_c, 0, 72, 39
1, 102820, Note_off_c, 0, 78, 68
1, 102826, Note_off_c, 0, 69, 60
1, 102829, Control_c, 0, 64, 49
1, 102847, Note_off_c, 0, 72, 47
1, 102894, Note_on_c, 0, 80, 81
1, 102898, Note_on_c, 0, 71, 75
1, 102914, Note_on_c, 0, 76, 48
1, 102921, Note_off_c, 0, 71, 69
1, 102930, Note_off_c, 0, 80, 54
1, 102936, Note_off_c, 0, 76, 58
1, 102974, Note_off_c, 0, 64, 56
1, 102978, Control_c, 0, 64, 48
1, 103096, Control_c, 0, 64, 48
1, 103111, Control_c, 0, 64, 47
1, 103163, Note_on_c, 0, 54, 57
1, 103167, Note_on_c, 0, 72, 85
1, 103168, Note_on_c, 0, 66, 60
1, 103170, Note_on_c, 0, 81, 83
1, 103175, Note_on_c, 0, 76, 63
1, 103182, Note_off_c, 0, 52, 28
1, 103185, Control_c, 0, 64, 50
1, 103193, Note_off_c, 0, 72, 68
1, 103193, Note_off_c, 0, 76, 65
1, 103193, Note_off_c, 0, 81, 69
1, 103197, Note_off_c, 0, 66, 67
1, 103199, Control_c, 0, 64, 57
1, 103214, Control_c, 0, 64, 63
1, 103228, Note_off_c, 0, 54, 55
1, 103229, Control_c, 0, 64, 67
1, 103244, Control_c, 0, 64, 72
1, 103259, Control_c, 0, 64, 80
1, 103271, Note_on_c, 0, 71, 91
1, 103273, Note_on_c, 0, 78, 84
1, 103273, Note_on_c, 0, 83, 86
1, 103273, Control_c, 0, 64, 87
1, 103284, Note_on_c, 0, 52, 67
1, 103284, Note_on_c, 0, 64, 67
1, 103288, Control_c, 0, 64, 91
1, 103294, Note_off_c, 0, 71, 66
1, 103303, Control_c, 0, 64, 95
1, 103308, Note_off_c, 0, 83, 63
1, 103318, Control_c, 0, 64, 99
1, 103328, Note_off_c, 0, 78, 60
1, 103333, Control_c, 0, 64, 103
1, 103341, Note_off_c, 0, 64, 57
1, 103348, Control_c, 0, 64, 106
1, 103363, Note_off_c, 0, 52, 54
1, 103363, Control_c, 0, 64, 109
1, 103377, Control_c, 0, 64, 112
1, 103392, Control_c, 0, 64, 116
1, 103408, Control_c, 0, 64, 126
1, 103422, Control_c, 0, 64, 127
1, 103603, Note_on_c, 0, 63, 81
1, 103606, Note_on_c, 0, 51, 76
1, 103687, Note_off_c, 0, 63, 60
1, 103696, Note_off_c, 0, 51, 61
1, 103726, Control_c, 0, 64, 101
1, 103741, Control_c, 0, 64, 86
1, 103750, Note_on_c, 0, 84, 86
1, 103751, Note_on_c, 0, 72, 96
1, 103753, Note_on_c, 0, 81, 85
1, 103755, Note_on_c, 0, 78, 78
1, 103756, Control_c, 0, 64, 72
1, 103771, Control_c, 0, 64, 52
1, 103780, Note_on_c, 0, 51, 55
1, 103782, Note_on_c, 0, 63, 65
1, 103786, Control_c, 0, 64, 0
1, 103816, Control_c, 0, 64, 53
1, 103830, Control_c, 0, 64, 65
1, 103845, Control_c, 0, 64, 71
1, 103860, Control_c, 0, 64, 78
1, 103874, Control_c, 0, 64, 85
1, 103889, Control_c, 0, 64, 90
1, 103891, Note_off_c, 0, 63, 59
1, 103904, Control_c, 0, 64, 93
1, 103919, Control_c, 0, 64, 96
1, 103923, Note_off_c, 0, 51, 56
1, 103934, Control_c, 0, 64, 99
1, 103948, Control_c, 0, 64, 102
1, 103963, Control_c, 0, 64, 106
1, 103978, Control_c, 0, 64, 109
1, 103992, Control_c, 0, 64, 112
1, 104007, Control_c, 0, 64, 115
1, 104021, Control_c, 0, 64, 119
1, 104036, Control_c, 0, 64, 124
1, 104040, Note_on_c, 0, 61, 83
1, 104046, Note_on_c, 0, 49, 72
1, 104051, Control_c, 0, 64, 127
1, 104076, Note_off_c, 0, 49, 64
1, 104078, Note_off_c, 0, 61, 57
1, 104107, Note_off_c, 0, 81, 58
1, 104152, Note_on_c, 0, 63, 91
1, 104152, Note_off_c, 0, 78, 56
1, 104155, Note_on_c, 0, 51, 85
1, 104167, Note_off_c, 0, 84, 58
1, 104188, Note_off_c, 0, 72, 50
1, 104235, Note_off_c, 0, 63, 60
1, 104238, Note_off_c, 0, 51, 58
1, 104439, Note_on_c, 0, 84, 73
1, 104442, Note_on_c, 0, 72, 80
1, 104443, Note_on_c, 0, 52, 58
1, 104447, Note_on_c, 0, 64, 59
1, 104454, Note_on_c, 0, 78, 67
1, 104455, Note_on_c, 0, 81, 71
1, 104465, Note_off_c, 0, 84, 66
1, 104471, Note_off_c, 0, 72, 68
1, 104474, Note_off_c, 0, 52, 62
1, 104475, Note_off_c, 0, 64, 65
1, 104491, Note_off_c, 0, 78, 60
1, 104496, Note_off_c, 0, 81, 61
1, 104549, Control_c, 0, 64, 113
1, 104564, Control_c, 0, 64, 90
1, 104567, Note_on_c, 0, 85, 85
1, 104572, Note_on_c, 0, 73, 81
1, 104573, Note_on_c, 0, 63, 69
1, 104576, Note_on_c, 0, 51, 66
1, 104578, Control_c, 0, 64, 73
1, 104581, Note_on_c, 0, 81, 69
1, 104585, Note_on_c, 0, 78, 67
1, 104593, Control_c, 0, 64, 46
1, 104608, Control_c, 0, 64, 0
1, 104623, Control_c, 0, 64, 38
1, 104638, Control_c, 0, 64, 63
1, 104652, Control_c, 0, 64, 71
1, 104655, Note_off_c, 0, 73, 58
1, 104667, Note_off_c, 0, 63, 51
1, 104667, Control_c, 0, 64, 82
1, 104682, Control_c, 0, 64, 93
1, 104696, Control_c, 0, 64, 99
1, 104703, Note_off_c, 0, 78, 59
1, 104711, Control_c, 0, 64, 101
1, 104713, Note_off_c, 0, 51, 54
1, 104715, Note_off_c, 0, 81, 60
1, 104726, Control_c, 0, 64, 103
1, 104736, Note_off_c, 0, 85, 61
1, 104741, Control_c, 0, 64, 105
1, 104756, Control_c, 0, 64, 107
1, 104770, Control_c, 0, 64, 109
1, 104785, Control_c, 0, 64, 111
1, 104800, Control_c, 0, 64, 113
1, 104814, Control_c, 0, 64, 114
1, 104829, Control_c, 0, 64, 115
1, 104844, Control_c, 0, 64, 116
1, 104859, Control_c, 0, 64, 117
1, 104874, Control_c, 0, 64, 121
1, 104877, Note_on_c, 0, 87, 79
1, 104879, Note_on_c, 0, 75, 76
1, 104889, Control_c, 0, 64, 127
1, 104892, Note_on_c, 0, 49, 59
1, 104895, Note_on_c, 0, 61, 58
1, 104913, Note_off_c, 0, 75, 57
1, 104922, Note_off_c, 0, 87, 58
1, 104928, Note_off_c, 0, 61, 63
1, 104935, Note_off_c, 0, 49, 58
1, 104963, Control_c, 0, 64, 117
1, 104978, Control_c, 0, 64, 95
1, 104984, Note_on_c, 0, 88, 89
1, 104991, Note_on_c, 0, 76, 77
1, 104993, Control_c, 0, 64, 79
1, 104999, Note_on_c, 0, 61, 66
1, 105002, Note_on_c, 0, 81, 76
1, 105008, Note_on_c, 0, 49, 63
1, 105008, Control_c, 0, 64, 66
1, 105031, Control_c, 0, 64, 53
1, 105046, Control_c, 0, 64, 62
1, 105061, Control_c, 0, 64, 68
1, 105075, Control_c, 0, 64, 78
1, 105077, Note_off_c, 0, 76, 47
1, 105089, Note_off_c, 0, 61, 50
1, 105090, Control_c, 0, 64, 94
1, 105105, Control_c, 0, 64, 110
1, 105114, Note_off_c, 0, 88, 61
1, 105120, Control_c, 0, 64, 120
1, 105134, Control_c, 0, 64, 127
1, 105144, Note_off_c, 0, 81, 62
1, 105166, Note_off_c, 0, 49, 35
1, 105296, Note_on_c, 0, 48, 61
1, 105304, Note_on_c, 0, 75, 74
1, 105306, Note_on_c, 0, 60, 64
1, 105308, Note_on_c, 0, 87, 73
1, 105327, Note_off_c, 0, 48, 63
1, 105329, Note_off_c, 0, 75, 68
1, 105332, Note_off_c, 0, 87, 70
1, 105335, Note_off_c, 0, 60, 65
1, 105357, Control_c, 0, 64, 105
1, 105372, Control_c, 0, 64, 83
1, 105387, Control_c, 0, 64, 64
1, 105401, Control_c, 0, 64, 0
1, 105412, Note_on_c, 0, 88, 92
1, 105413, Note_on_c, 0, 76, 80
1, 105416, Note_on_c, 0, 81, 85
1, 105422, Note_on_c, 0, 61, 77
1, 105425, Note_on_c, 0, 49, 70
1, 105431, Control_c, 0, 64, 58
1, 105437, Note_off_c, 0, 76, 67
1, 105438, Note_off_c, 0, 81, 70
1, 105445, Control_c, 0, 64, 70
1, 105460, Control_c, 0, 64, 85
1, 105467, Note_off_c, 0, 88, 65
1, 105475, Control_c, 0, 64, 114
1, 105491, Control_c, 0, 64, 127
1, 105568, Note_off_c, 0, 61, 36
1, 105598, Note_off_c, 0, 49, 51
1, 105704, Note_on_c, 0, 90, 81
1, 105706, Note_on_c, 0, 78, 84
1, 105716, Note_on_c, 0, 87, 65
1, 105718, Note_on_c, 0, 48, 62
1, 105721, Note_on_c, 0, 60, 71
1, 105728, Note_off_c, 0, 78, 67
1, 105729, Note_off_c, 0, 90, 64
1, 105741, Note_off_c, 0, 87, 69
1, 105747, Note_off_c, 0, 60, 68
1, 105750, Note_off_c, 0, 48, 64
1, 105780, Control_c, 0, 64, 95
1, 105795, Control_c, 0, 64, 75
1, 105810, Control_c, 0, 64, 47
1, 105825, Note_on_c, 0, 76, 89
1, 105825, Note_on_c, 0, 88, 92
1, 105825, Control_c, 0, 64, 0
1, 105831, Note_on_c, 0, 85, 77
1, 105833, Note_on_c, 0, 61, 82
1, 105834, Note_on_c, 0, 80, 79
1, 105836, Note_on_c, 0, 49, 77
1, 105840, Control_c, 0, 64, 49
1, 105848, Note_off_c, 0, 76, 66
1, 105855, Control_c, 0, 64, 66
1, 105869, Control_c, 0, 64, 76
1, 105884, Control_c, 0, 64, 97
1, 105887, Note_off_c, 0, 85, 61
1, 105890, Note_off_c, 0, 80, 64
1, 105897, Note_off_c, 0, 88, 63
1, 105899, Control_c, 0, 64, 127
1, 105926, Note_off_c, 0, 61, 59
1, 105950, Note_off_c, 0, 49, 60
1, 106145, Note_on_c, 0, 57, 77
1, 106145, Note_on_c, 0, 78, 85
1, 106145, Note_on_c, 0, 90, 81
1, 106147, Note_on_c, 0, 45, 73
1, 106153, Note_on_c, 0, 87, 66
1, 106172, Note_off_c, 0, 57, 66
1, 106174, Note_off_c, 0, 78, 62
1, 106179, Note_off_c, 0, 45, 64
1, 106182, Note_off_c, 0, 87, 67
1, 106188, Note_off_c, 0, 90, 63
1, 106210, Control_c, 0, 64, 104
1, 106224, Control_c, 0, 64, 78
1, 106239, Control_c, 0, 64, 57
1, 106254, Note_on_c, 0, 92, 96
1, 106254, Note_on_c, 0, 80, 97
1, 106254, Control_c, 0, 64, 0
1, 106258, Note_on_c, 0, 87, 59
1, 106259, Note_on_c, 0, 56, 85
1, 106261, Note_on_c, 0, 44, 85
1, 106267, Note_on_c, 0, 88, 78
1, 106269, Control_c, 0, 64, 52
1, 106284, Control_c, 0, 64, 66
1, 106299, Control_c, 0, 64, 77
1, 106314, Control_c, 0, 64, 101
1, 106329, Control_c, 0, 64, 127
1, 106379, Note_off_c, 0, 88, 59
1, 106394, Note_off_c, 0, 87, 38
1, 106411, Note_off_c, 0, 92, 60
1, 106463, Note_off_c, 0, 80, 58
1, 106483, Note_off_c, 0, 44, 58
1, 106493, Note_off_c, 0, 56, 60
1, 106612, Note_on_c, 0, 57, 81
1, 106612, Note_on_c, 0, 90, 89
1, 106612, Note_on_c, 0, 45, 81
1, 106612, Note_on_c, 0, 78, 94
1, 106627, Note_on_c, 0, 87, 65
1, 106642, Note_off_c, 0, 57, 61
1, 106653, Note_off_c, 0, 45, 60
1, 106653, Note_off_c, 0, 78, 64
1, 106668, Note_off_c, 0, 90, 64
1, 106680, Note_off_c, 0, 87, 45
1, 106692, Control_c, 0, 64, 95
1, 106707, Control_c, 0, 64, 74
1, 106722, Control_c, 0, 64, 0
1, 106746, Note_on_c, 0, 80, 98
1, 106746, Note_on_c, 0, 92, 92
1, 106749, Note_on_c, 0, 88, 85
1, 106749, Note_on_c, 0, 44, 88
1, 106751, Note_on_c, 0, 56, 90
1, 106766, Control_c, 0, 64, 57
1, 106781, Control_c, 0, 64, 70
1, 106796, Control_c, 0, 64, 83
1, 106811, Control_c, 0, 64, 104
1, 106825, Control_c, 0, 64, 127
1, 106889, Note_off_c, 0, 88, 59
1, 106913, Note_off_c, 0, 56, 58
1, 106924, Note_off_c, 0, 92, 62
1, 106965, Note_off_c, 0, 80, 58
1, 106972, Note_off_c, 0, 44, 50
1, 107160, Note_on_c, 0, 93, 93
1, 107161, Note_on_c, 0, 81, 104
1, 107166, Note_on_c, 0, 90, 82
1, 107177, Note_on_c, 0, 42, 79
1, 107181, Note_on_c, 0, 54, 74
1, 107209, Note_off_c, 0, 54, 67
1, 107247, Note_off_c, 0, 42, 61
1, 107333, Note_off_c, 0, 81, 58
1, 107338, Note_off_c, 0, 93, 57
1, 107386, Note_off_c, 0, 90, 57
1, 107429, Note_on_c, 0, 37, 75
1, 107430, Note_on_c, 0, 49, 78
1, 107500, Control_c, 0, 64, 106
1, 107515, Control_c, 0, 64, 78
1, 107520, Note_on_c, 0, 92, 86
1, 107524, Note_on_c, 0, 80, 83
1, 107524, Note_on_c, 0, 88, 78
1, 107530, Control_c, 0, 64, 0
1, 107619, Control_c, 0, 64, 58
1, 107634, Control_c, 0, 64, 67
1, 107648, Control_c, 0, 64, 75
1, 107663, Control_c, 0, 64, 88
1, 107678, Control_c, 0, 64, 99
1, 107683, Note_off_c, 0, 37, 33
1, 107693, Control_c, 0, 64, 107
1, 107708, Control_c, 0, 64, 116
1, 107722, Control_c, 0, 64, 127
1, 107812, Note_off_c, 0, 49, 56
1, 107914, Note_off_c, 0, 92, 53
1, 107972, Note_off_c, 0, 80, 62
1, 108049, Note_off_c, 0, 88, 64
1, 108082, Note_on_c, 0, 90, 82
1, 108091, Note_on_c, 0, 78, 74
1, 108102, Note_on_c, 0, 87, 62
1, 108248, Note_off_c, 0, 87, 54
1, 108327, Note_off_c, 0, 90, 57
1, 108344, Note_on_c, 0, 61, 86
1, 108350, Note_on_c, 0, 56, 76
1, 108355, Note_on_c, 0, 52, 68
1, 108382, Control_c, 0, 64, 117
1, 108397, Control_c, 0, 64, 93
1, 108412, Control_c, 0, 64, 76
1, 108421, Note_off_c, 0, 78, 59
1, 108427, Control_c, 0, 64, 64
1, 108442, Control_c, 0, 64, 51
1, 108457, Control_c, 0, 64, 59
1, 108471, Control_c, 0, 64, 65
1, 108485, Control_c, 0, 64, 69
1, 108500, Control_c, 0, 64, 76
1, 108515, Control_c, 0, 64, 87
1, 108530, Control_c, 0, 64, 91
1, 108544, Control_c, 0, 64, 93
1, 108559, Control_c, 0, 64, 94
1, 108568, Note_on_c, 0, 88, 73
1, 108573, Note_on_c, 0, 76, 60
1, 108574, Control_c, 0, 64, 96
1, 108585, Note_on_c, 0, 85, 51
1, 108588, Control_c, 0, 64, 97
1, 108603, Control_c, 0, 64, 101
1, 108616, Note_off_c, 0, 76, 59
1, 108618, Control_c, 0, 64, 105
1, 108625, Note_off_c, 0, 85, 61
1, 108633, Control_c, 0, 64, 109
1, 108648, Control_c, 0, 64, 113
1, 108663, Control_c, 0, 64, 117
1, 108678, Control_c, 0, 64, 127
1, 108773, Note_on_c, 0, 87, 71
1, 108787, Note_on_c, 0, 75, 59
1, 108789, Note_on_c, 0, 83, 60
1, 108827, Note_off_c, 0, 75, 58
1, 108833, Note_off_c, 0, 83, 63
1, 108928, Note_off_c, 0, 56, 31
1, 108939, Note_off_c, 0, 88, 42
1, 108952, Note_on_c, 0, 64, 92
1, 108961, Note_off_c, 0, 52, 52
1, 108965, Note_on_c, 0, 73, 75
1, 108971, Note_on_c, 0, 85, 61
1, 108973, Note_on_c, 0, 81, 76
1, 108990, Note_off_c, 0, 87, 57
1, 108992, Note_off_c, 0, 61, 61
1, 109008, Note_off_c, 0, 85, 62
1, 109039, Note_off_c, 0, 81, 64
1, 109141, Note_off_c, 0, 73, 53
1, 109161, Note_on_c, 0, 54, 67
1, 109181, Note_off_c, 0, 64, 59
1, 109208, Note_on_c, 0, 57, 57
1, 109287, Note_on_c, 0, 85, 80
1, 109289, Note_on_c, 0, 73, 74
1, 109292, Note_on_c, 0, 81, 78
1, 109294, Control_c, 0, 64, 112
1, 109298, Note_on_c, 0, 64, 83
1, 109309, Control_c, 0, 64, 89
1, 109324, Control_c, 0, 64, 73
1, 109339, Control_c, 0, 64, 54
1, 109354, Control_c, 0, 64, 0
1, 109368, Control_c, 0, 64, 42
1, 109383, Control_c, 0, 64, 61
1, 109398, Control_c, 0, 64, 67
1, 109402, Note_off_c, 0, 81, 64
1, 109412, Control_c, 0, 64, 74
1, 109427, Control_c, 0, 64, 83
1, 109442, Control_c, 0, 64, 91
1, 109449, Note_off_c, 0, 85, 59
1, 109457, Control_c, 0, 64, 95
1, 109472, Control_c, 0, 64, 97
1, 109486, Control_c, 0, 64, 99
1, 109501, Control_c, 0, 64, 101
1, 109524, Control_c, 0, 64, 103
1, 109538, Control_c, 0, 64, 106
1, 109553, Control_c, 0, 64, 109
1, 109568, Note_off_c, 0, 73, 61
1, 109568, Control_c, 0, 64, 111
1, 109583, Control_c, 0, 64, 113
1, 109598, Control_c, 0, 64, 114
1, 109613, Control_c, 0, 64, 115
1, 109627, Control_c, 0, 64, 117
1, 109642, Control_c, 0, 64, 118
1, 109657, Control_c, 0, 64, 120
1, 109672, Control_c, 0, 64, 122
1, 109687, Control_c, 0, 64, 124
1, 109692, Note_on_c, 0, 83, 70
1, 109695, Note_on_c, 0, 80, 61
1, 109703, Note_on_c, 0, 71, 56
1, 109706, Note_off_c, 0, 64, 61
1, 109716, Control_c, 0, 64, 126
1, 109731, Control_c, 0, 64, 127
1, 109891, Note_on_c, 0, 63, 82
1, 109910, Control_c, 0, 64, 116
1, 109924, Control_c, 0, 64, 102
1, 109939, Control_c, 0, 64, 88
1, 109946, Note_off_c, 0, 83, 36
1, 109954, Control_c, 0, 64, 75
1, 109959, Note_off_c, 0, 80, 53
1, 109968, Control_c, 0, 64, 62
1, 109980, Note_off_c, 0, 71, 59
1, 109983, Control_c, 0, 64, 26
1, 109998, Control_c, 0, 64, 45
1, 110013, Control_c, 0, 64, 63
1, 110028, Control_c, 0, 64, 68
1, 110043, Control_c, 0, 64, 76
1, 110058, Control_c, 0, 64, 88
1, 110073, Control_c, 0, 64, 97
1, 110087, Note_on_c, 0, 81, 79
1, 110087, Control_c, 0, 64, 100
1, 110099, Note_on_c, 0, 78, 64
1, 110100, Note_on_c, 0, 69, 62
1, 110102, Control_c, 0, 64, 103
1, 110117, Control_c, 0, 64, 107
1, 110132, Control_c, 0, 64, 112
1, 110147, Control_c, 0, 64, 120
1, 110150, Note_off_c, 0, 69, 58
1, 110154, Note_off_c, 0, 63, 57
1, 110161, Control_c, 0, 64, 127
1, 110166, Note_off_c, 0, 81, 63
1, 110183, Note_on_c, 0, 61, 73
1, 110233, Note_off_c, 0, 78, 63
1, 110280, Note_off_c, 0, 54, 37
1, 110281, Note_off_c, 0, 61, 56
1, 110290, Note_on_c, 0, 76, 62
1, 110293, Note_on_c, 0, 80, 82
1, 110294, Note_on_c, 0, 68, 81
1, 110302, Note_on_c, 0, 63, 77
1, 110329, Note_off_c, 0, 63, 64
1, 110341, Note_off_c, 0, 57, 49
1, 110396, Note_off_c, 0, 68, 62
1, 110403, Note_off_c, 0, 76, 63
1, 110405, Note_off_c, 0, 80, 62
1, 110504, Note_on_c, 0, 78, 91
1, 110511, Note_on_c, 0, 66, 83
1, 110519, Note_on_c, 0, 75, 67
1, 110549, Note_off_c, 0, 66, 62
1, 110591, Note_off_c, 0, 75, 62
1, 110597, Note_off_c, 0, 78, 61
1, 110624, Note_on_c, 0, 49, 86
1, 110627, Note_on_c, 0, 37, 82
1, 110684, Note_off_c, 0, 49, 59
1, 110698, Note_off_c, 0, 37, 55
1, 110794, Note_on_c, 0, 35, 84
1, 110795, Note_on_c, 0, 47, 90
1, 110806, Control_c, 0, 64, 96
1, 110821, Control_c, 0, 64, 69
1, 110836, Control_c, 0, 64, 0
1, 110864, Note_on_c, 0, 93, 93
1, 110869, Note_on_c, 0, 81, 98
1, 110874, Note_on_c, 0, 90, 81
1, 110910, Control_c, 0, 64, 63
1, 110925, Control_c, 0, 64, 76
1, 110940, Control_c, 0, 64, 97
1, 110955, Control_c, 0, 64, 127
1, 110959, Note_off_c, 0, 35, 59
1, 111019, Note_off_c, 0, 47, 57
1, 111081, Note_off_c, 0, 81, 61
1, 111091, Note_off_c, 0, 93, 56
1, 111209, Note_off_c, 0, 90, 53
1, 111290, Note_on_c, 0, 92, 89
1, 111296, Note_on_c, 0, 80, 79
1, 111298, Note_on_c, 0, 88, 71
1, 111455, Note_off_c, 0, 88, 58
1, 111498, Note_on_c, 0, 63, 93
1, 111505, Note_on_c, 0, 57, 78
1, 111506, Note_on_c, 0, 54, 80
1, 111506, Note_off_c, 0, 92, 60
1, 111555, Control_c, 0, 64, 124
1, 111569, Note_off_c, 0, 80, 59
1, 111570, Control_c, 0, 64, 90
1, 111585, Control_c, 0, 64, 69
1, 111600, Control_c, 0, 64, 0
1, 111629, Control_c, 0, 64, 24
1, 111644, Control_c, 0, 64, 65
1, 111659, Control_c, 0, 64, 74
1, 111674, Control_c, 0, 64, 90
1, 111688, Control_c, 0, 64, 116
1, 111700, Note_on_c, 0, 90, 76
1, 111703, Control_c, 0, 64, 127
1, 111706, Note_on_c, 0, 78, 69
1, 111721, Note_on_c, 0, 87, 53
1, 111766, Note_off_c, 0, 87, 62
1, 111789, Note_off_c, 0, 90, 63
1, 111803, Note_off_c, 0, 78, 62
1, 111889, Note_on_c, 0, 88, 79
1, 111900, Note_on_c, 0, 76, 72
1, 111912, Note_on_c, 0, 85, 53
1, 111932, Note_off_c, 0, 54, 56
1, 111932, Note_off_c, 0, 76, 63
1, 111950, Note_off_c, 0, 85, 60
1, 112067, Note_off_c, 0, 88, 64
1, 112076, Note_on_c, 0, 66, 100
1, 112081, Note_on_c, 0, 87, 76
1, 112086, Note_on_c, 0, 75, 81
1, 112088, Note_on_c, 0, 83, 69
1, 112136, Note_off_c, 0, 83, 62
1, 112138, Note_off_c, 0, 87, 64
1, 112148, Note_off_c, 0, 63, 42
1, 112238, Note_off_c, 0, 57, 56
1, 112245, Note_off_c, 0, 75, 60
1, 112265, Note_on_c, 0, 56, 68
1, 112285, Note_off_c, 0, 66, 59
1, 112339, Note_on_c, 0, 59, 60
1, 112413, Note_on_c, 0, 66, 96
1, 112423, Control_c, 0, 64, 100
1, 112430, Note_on_c, 0, 85, 89
1, 112431, Note_on_c, 0, 73, 85
1, 112437, Control_c, 0, 64, 76
1, 112439, Note_on_c, 0, 81, 80
1, 112452, Control_c, 0, 64, 0
1, 112519, Control_c, 0, 64, 60
1, 112534, Control_c, 0, 64, 71
1, 112549, Control_c, 0, 64, 85
1, 112563, Control_c, 0, 64, 106
1, 112578, Control_c, 0, 64, 127
1, 112588, Note_off_c, 0, 81, 63
1, 112641, Note_off_c, 0, 85, 61
1, 112702, Note_off_c, 0, 73, 64
1, 112821, Note_on_c, 0, 83, 72
1, 112827, Note_on_c, 0, 80, 60
1, 112827, Note_off_c, 0, 66, 61
1, 112827, Note_on_c, 0, 71, 60
1, 112987, Note_on_c, 0, 64, 85
1, 113009, Control_c, 0, 64, 84
1, 113024, Control_c, 0, 64, 62
1, 113039, Control_c, 0, 64, 0
1, 113059, Note_off_c, 0, 71, 56
1, 113068, Note_off_c, 0, 59, 60
1, 113083, Control_c, 0, 64, 64
1, 113087, Note_off_c, 0, 83, 63
1, 113094, Note_off_c, 0, 80, 38
1, 113098, Control_c, 0, 64, 73
1, 113112, Control_c, 0, 64, 89
1, 113127, Control_c, 0, 64, 103
1, 113142, Control_c, 0, 64, 111
1, 113157, Control_c, 0, 64, 119
1, 113172, Control_c, 0, 64, 127
1, 113180, Note_on_c, 0, 83, 76
1, 113182, Note_on_c, 0, 71, 66
1, 113188, Note_on_c, 0, 80, 62
1, 113247, Note_off_c, 0, 64, 62
1, 113260, Note_off_c, 0, 83, 64
1, 113275, Note_on_c, 0, 63, 81
1, 113277, Note_off_c, 0, 80, 63
1, 113281, Note_off_c, 0, 71, 64
1, 113351, Note_on_c, 0, 81, 90
1, 113353, Note_off_c, 0, 63, 61
1, 113359, Note_on_c, 0, 69, 79
1, 113365, Note_on_c, 0, 78, 76
1, 113369, Note_on_c, 0, 64, 81
1, 113393, Note_off_c, 0, 64, 68
1, 113416, Note_off_c, 0, 69, 60
1, 113418, Note_off_c, 0, 56, 54
1, 113449, Note_off_c, 0, 81, 63
1, 113498, Note_off_c, 0, 78, 63
1, 113560, Note_on_c, 0, 80, 95
1, 113565, Note_on_c, 0, 68, 90
1, 113567, Note_on_c, 0, 76, 72
1, 113614, Note_off_c, 0, 68, 64
1, 113617, Note_off_c, 0, 76, 60
1, 113657, Note_off_c, 0, 80, 60
1, 113675, Note_on_c, 0, 47, 90
1, 113676, Note_on_c, 0, 35, 83
1, 113732, Note_off_c, 0, 35, 61
1, 113733, Note_off_c, 0, 47, 62
1, 113858, Note_on_c, 0, 44, 97
1, 113860, Note_on_c, 0, 32, 86
1, 113891, Control_c, 0, 64, 82
1, 113906, Control_c, 0, 64, 0
1, 113926, Note_on_c, 0, 83, 100
1, 113926, Note_on_c, 0, 95, 104
1, 113930, Note_on_c, 0, 92, 88
1, 113965, Control_c, 0, 64, 59
1, 113980, Control_c, 0, 64, 81
1, 113987, Note_off_c, 0, 32, 60
1, 113995, Control_c, 0, 64, 127
1, 114028, Note_off_c, 0, 44, 58
1, 114216, Note_off_c, 0, 95, 50
1, 114236, Note_off_c, 0, 92, 54
1, 114264, Note_off_c, 0, 83, 61
1, 114369, Note_on_c, 0, 93, 95
1, 114372, Note_on_c, 0, 81, 104
1, 114375, Note_on_c, 0, 90, 90
1, 114588, Note_on_c, 0, 64, 91
1, 114592, Note_on_c, 0, 59, 79
1, 114595, Note_on_c, 0, 56, 84
1, 114624, Control_c, 0, 64, 82
1, 114630, Note_off_c, 0, 93, 59
1, 114635, Note_off_c, 0, 81, 60
1, 114638, Control_c, 0, 64, 0
1, 114697, Control_c, 0, 64, 58
1, 114712, Control_c, 0, 64, 72
1, 114726, Note_off_c, 0, 90, 59
1, 114727, Control_c, 0, 64, 84
1, 114742, Control_c, 0, 64, 100
1, 114764, Control_c, 0, 64, 115
1, 114779, Control_c, 0, 64, 127
1, 114802, Note_on_c, 0, 92, 89
1, 114806, Note_on_c, 0, 80, 87
1, 114807, Note_on_c, 0, 88, 70
1, 114914, Note_off_c, 0, 88, 64
1, 114917, Note_off_c, 0, 80, 65
1, 114917, Note_off_c, 0, 92, 63
1, 115003, Note_on_c, 0, 90, 93
1, 115010, Note_on_c, 0, 78, 87
1, 115023, Note_on_c, 0, 87, 72
1, 115034, Note_off_c, 0, 56, 38
1, 115102, Note_off_c, 0, 87, 64
1, 115108, Note_off_c, 0, 90, 62
1, 115117, Note_off_c, 0, 78, 63
1, 115189, Note_on_c, 0, 68, 100
1, 115203, Note_on_c, 0, 88, 91
1, 115207, Note_on_c, 0, 76, 93
1, 115212, Note_on_c, 0, 85, 82
1, 115355, Note_off_c, 0, 68, 59
1, 115366, Note_off_c, 0, 59, 55
1, 115435, Note_off_c, 0, 85, 55
1, 115445, Note_off_c, 0, 76, 56
1, 115450, Note_off_c, 0, 88, 64
1, 115474, Note_off_c, 0, 64, 38
1, 115477, Note_on_c, 0, 61, 71
1, 115478, Note_on_c, 0, 68, 101
1, 115486, Note_on_c, 0, 57, 77
1, 115543, Control_c, 0, 64, 91
1, 115557, Control_c, 0, 64, 69
1, 115559, Note_on_c, 0, 88, 88
1, 115563, Note_on_c, 0, 76, 84
1, 115572, Note_on_c, 0, 85, 71
1, 115572, Control_c, 0, 64, 0
1, 115632, Control_c, 0, 64, 51
1, 115647, Control_c, 0, 64, 64
1, 115661, Control_c, 0, 64, 68
1, 115676, Control_c, 0, 64, 74
1, 115691, Control_c, 0, 64, 83
1, 115705, Control_c, 0, 64, 95
1, 115720, Control_c, 0, 64, 104
1, 115728, Note_off_c, 0, 85, 54
1, 115729, Note_off_c, 0, 76, 58
1, 115735, Control_c, 0, 64, 119
1, 115750, Control_c, 0, 64, 127
1, 115924, Note_on_c, 0, 83, 73
1, 115924, Note_on_c, 0, 75, 76
1, 115924, Note_on_c, 0, 87, 79
1, 115949, Note_off_c, 0, 88, 61
1, 115958, Note_off_c, 0, 68, 57
1, 116041, Note_off_c, 0, 87, 63
1, 116055, Note_off_c, 0, 83, 63
1, 116118, Note_on_c, 0, 66, 94
1, 116136, Control_c, 0, 64, 113
1, 116151, Note_off_c, 0, 75, 61
1, 116151, Control_c, 0, 64, 86
1, 116166, Control_c, 0, 64, 67
1, 116181, Control_c, 0, 64, 0
1, 116196, Control_c, 0, 64, 34
1, 116210, Control_c, 0, 64, 63
1, 116225, Control_c, 0, 64, 70
1, 116240, Control_c, 0, 64, 81
1, 116262, Control_c, 0, 64, 96
1, 116277, Control_c, 0, 64, 109
1, 116292, Control_c, 0, 64, 124
1, 116307, Control_c, 0, 64, 127
1, 116308, Note_on_c, 0, 85, 78
1, 116311, Note_on_c, 0, 81, 75
1, 116315, Note_on_c, 0, 73, 71
1, 116398, Note_off_c, 0, 81, 61
1, 116404, Note_off_c, 0, 66, 61
1, 116408, Note_off_c, 0, 85, 63
1, 116422, Note_on_c, 0, 65, 68
1, 116432, Note_off_c, 0, 73, 63
1, 116521, Note_off_c, 0, 65, 63
1, 116526, Note_on_c, 0, 66, 77
1, 116529, Note_on_c, 0, 83, 77
1, 116529, Control_c, 0, 64, 102
1, 116536, Note_on_c, 0, 71, 68
1, 116538, Note_on_c, 0, 80, 66
1, 116544, Control_c, 0, 64, 77
1, 116559, Control_c, 0, 64, 0
1, 116603, Control_c, 0, 64, 64
1, 116618, Control_c, 0, 64, 73
1, 116628, Note_off_c, 0, 83, 65
1, 116632, Note_off_c, 0, 80, 64
1, 116633, Control_c, 0, 64, 91
1, 116643, Note_off_c, 0, 71, 63
1, 116648, Control_c, 0, 64, 127
1, 116717, Note_on_c, 0, 81, 86
1, 116726, Note_on_c, 0, 69, 71
1, 116743, Note_on_c, 0, 78, 59
1, 116765, Note_off_c, 0, 66, 59
1, 116769, Note_off_c, 0, 69, 58
1, 116812, Note_off_c, 0, 78, 60
1, 116827, Note_off_c, 0, 57, 41
1, 116846, Note_off_c, 0, 61, 57
1, 116905, Note_on_c, 0, 80, 79
1, 116910, Note_on_c, 0, 68, 79
1, 116912, Note_on_c, 0, 76, 69
1, 116947, Note_off_c, 0, 81, 50
1, 116993, Note_off_c, 0, 68, 59
1, 117028, Note_off_c, 0, 76, 63
1, 117130, Note_on_c, 0, 66, 80
1, 117134, Note_on_c, 0, 78, 74
1, 117136, Note_on_c, 0, 75, 72
1, 117166, Note_off_c, 0, 80, 60
1, 117221, Note_off_c, 0, 78, 62
1, 117230, Note_off_c, 0, 75, 59
1, 117233, Note_off_c, 0, 66, 56
1, 117343, Note_on_c, 0, 45, 56
1, 117354, Note_on_c, 0, 33, 44
1, 117397, Control_c, 0, 64, 96
1, 117403, Note_on_c, 0, 76, 73
1, 117411, Control_c, 0, 64, 75
1, 117416, Note_on_c, 0, 73, 64
1, 117417, Note_on_c, 0, 64, 65
1, 117426, Control_c, 0, 64, 40
1, 117441, Control_c, 0, 64, 0
1, 117471, Control_c, 0, 64, 59
1, 117485, Control_c, 0, 64, 68
1, 117500, Control_c, 0, 64, 80
1, 117504, Note_off_c, 0, 64, 64
1, 117515, Control_c, 0, 64, 97
1, 117530, Control_c, 0, 64, 115
1, 117542, Note_off_c, 0, 73, 62
1, 117545, Control_c, 0, 64, 127
1, 117626, Note_on_c, 0, 63, 78
1, 117626, Note_on_c, 0, 75, 79
1, 117630, Note_on_c, 0, 72, 80
1, 117672, Note_off_c, 0, 76, 56
1, 117686, Note_off_c, 0, 33, 51
1, 117710, Note_off_c, 0, 63, 60
1, 117716, Note_off_c, 0, 75, 62
1, 117717, Note_off_c, 0, 72, 62
1, 117814, Note_on_c, 0, 76, 82
1, 117823, Note_on_c, 0, 64, 80
1, 117823, Note_on_c, 0, 73, 81
1, 117826, Note_off_c, 0, 45, 60
1, 117854, Note_off_c, 0, 64, 59
1, 117877, Note_off_c, 0, 76, 62
1, 117906, Note_off_c, 0, 73, 64
1, 118009, Note_on_c, 0, 42, 70
1, 118011, Note_on_c, 0, 66, 95
1, 118011, Note_on_c, 0, 78, 87
1, 118015, Note_on_c, 0, 30, 62
1, 118019, Note_on_c, 0, 75, 74
1, 118100, Note_off_c, 0, 75, 62
1, 118127, Note_off_c, 0, 78, 59
1, 118146, Note_off_c, 0, 66, 62
1, 118154, Note_off_c, 0, 30, 51
1, 118174, Note_off_c, 0, 42, 59
1, 118269, Note_on_c, 0, 31, 64
1, 118270, Note_on_c, 0, 43, 68
1, 118279, Control_c, 0, 64, 118
1, 118294, Control_c, 0, 64, 81
1, 118308, Control_c, 0, 64, 31
1, 118310, Note_on_c, 0, 76, 83
1, 118312, Note_on_c, 0, 64, 82
1, 118314, Note_on_c, 0, 73, 78
1, 118323, Control_c, 0, 64, 0
1, 118382, Control_c, 0, 64, 60
1, 118397, Note_off_c, 0, 43, 63
1, 118397, Control_c, 0, 64, 73
1, 118412, Control_c, 0, 64, 86
1, 118426, Control_c, 0, 64, 100
1, 118441, Control_c, 0, 64, 121
1, 118456, Control_c, 0, 64, 127
1, 118479, Note_off_c, 0, 73, 60
1, 118550, Note_off_c, 0, 64, 58
1, 118569, Note_on_c, 0, 44, 87
1, 118576, Note_on_c, 0, 32, 65
1, 118595, Note_off_c, 0, 76, 60
1, 118659, Note_off_c, 0, 31, 33
1, 118678, Note_off_c, 0, 44, 55
1, 118692, Note_off_c, 0, 32, 58
1, 118776, Control_c, 0, 64, 103
1, 118777, Note_on_c, 0, 75, 82
1, 118781, Note_on_c, 0, 45, 73
1, 118781, Note_on_c, 0, 63, 80
1, 118783, Note_on_c, 0, 72, 78
1, 118784, Note_on_c, 0, 33, 63
1, 118791, Control_c, 0, 64, 69
1, 118805, Control_c, 0, 64, 0
1, 118863, Note_off_c, 0, 33, 62
1, 118881, Note_off_c, 0, 45, 62
1, 118890, Poly_aftertouch_c, 0, 69, 127
1, 118894, Control_c, 0, 64, 63
1, 118909, Control_c, 0, 64, 71
1, 118923, Control_c, 0, 64, 81
1, 118938, Control_c, 0, 64, 91
1, 118953, Control_c, 0, 64, 100
1, 118968, Control_c, 0, 64, 120
1, 118982, Control_c, 0, 64, 127
1, 118991, Note_on_c, 0, 32, 73
1, 118994, Note_on_c, 0, 44, 76
1, 119035, Note_off_c, 0, 32, 62
1, 119046, Note_off_c, 0, 44, 59
1, 119194, Note_off_c, 0, 75, 61
1, 119207, Note_off_c, 0, 72, 56
1, 119221, Note_on_c, 0, 48, 76
1, 119222, Note_on_c, 0, 36, 70
1, 119235, Control_c, 0, 64, 101
1, 119255, Poly_aftertouch_c, 0, 69, 0
1, 119257, Control_c, 0, 64, 79
1, 119272, Control_c, 0, 64, 63
1, 119287, Control_c, 0, 64, 34
1, 119301, Control_c, 0, 64, 63
1, 119313, Note_off_c, 0, 63, 59
1, 119316, Control_c, 0, 64, 70
1, 119331, Control_c, 0, 64, 83
1, 119341, Note_off_c, 0, 48, 63
1, 119346, Control_c, 0, 64, 103
1, 119361, Control_c, 0, 64, 126
1, 119376, Control_c, 0, 64, 127
1, 119425, Note_off_c, 0, 36, 55
1, 119501, Poly_aftertouch_c, 0, 43, 127
1, 119540, Control_c, 0, 64, 110
1, 119554, Control_c, 0, 64, 92
1, 119555, Note_on_c, 0, 51, 51
1, 119558, Note_on_c, 0, 39, 45
1, 119564, Note_on_c, 0, 56, 82
1, 119569, Control_c, 0, 64, 76
1, 119584, Control_c, 0, 64, 60
1, 119598, Control_c, 0, 64, 0
1, 119628, Control_c, 0, 64, 56
1, 119643, Control_c, 0, 64, 67
1, 119652, Note_off_c, 0, 51, 56
1, 119658, Control_c, 0, 64, 76
1, 119672, Control_c, 0, 64, 90
1, 119687, Control_c, 0, 64, 106
1, 119702, Control_c, 0, 64, 112
1, 119717, Control_c, 0, 64, 117
1, 119732, Control_c, 0, 64, 120
1, 119746, Control_c, 0, 64, 126
1, 119761, Control_c, 0, 64, 127
1, 119852, Note_off_c, 0, 39, 32
1, 119893, Note_on_c, 0, 49, 42
1, 119897, Note_on_c, 0, 37, 41
1, 119954, Control_c, 0, 64, 126
1, 119969, Control_c, 0, 64, 105
1, 119984, Control_c, 0, 64, 85
1, 120005, Control_c, 0, 64, 67
1, 120011, Poly_aftertouch_c, 0, 43, 0
1, 120020, Control_c, 0, 64, 0
1, 120021, Note_on_c, 0, 64, 67
1, 120058, Note_off_c, 0, 56, 50
1, 120079, Control_c, 0, 64, 42
1, 120094, Control_c, 0, 64, 67
1, 120109, Control_c, 0, 64, 75
1, 120124, Control_c, 0, 64, 89
1, 120139, Control_c, 0, 64, 101
1, 120152, Note_off_c, 0, 37, 40
1, 120154, Control_c, 0, 64, 108
1, 120169, Control_c, 0, 64, 115
1, 120184, Control_c, 0, 64, 127
1, 120252, Note_off_c, 0, 49, 43
1, 120547, Note_on_c, 0, 63, 69
1, 120571, Note_off_c, 0, 64, 61
1, 120793, Note_on_c, 0, 73, 65
1, 120798, Note_on_c, 0, 64, 60
1, 120803, Note_on_c, 0, 68, 60
1, 120828, Control_c, 0, 64, 103
1, 120843, Control_c, 0, 64, 87
1, 120858, Control_c, 0, 64, 71
1, 120873, Control_c, 0, 64, 0
1, 120972, Note_on_c, 0, 61, 67
1, 120989, Note_off_c, 0, 63, 60
1, 120992, Control_c, 0, 64, 51
1, 121007, Control_c, 0, 64, 63
1, 121022, Control_c, 0, 64, 67
1, 121037, Control_c, 0, 64, 73
1, 121051, Control_c, 0, 64, 81
1, 121066, Control_c, 0, 64, 89
1, 121081, Control_c, 0, 64, 93
1, 121096, Control_c, 0, 64, 97
1, 121111, Control_c, 0, 64, 103
1, 121126, Control_c, 0, 64, 111
1, 121141, Control_c, 0, 64, 127
1, 121161, Note_on_c, 0, 60, 68
1, 121188, Note_off_c, 0, 61, 48
1, 121191, Note_off_c, 0, 64, 37
1, 121323, Note_on_c, 0, 76, 69
1, 121336, Note_off_c, 0, 60, 59
1, 121343, Note_on_c, 0, 59, 64
1, 121350, Note_off_c, 0, 73, 55
1, 121379, Note_off_c, 0, 68, 34
1, 121424, Note_off_c, 0, 59, 56
1, 121502, Note_on_c, 0, 64, 52
1, 121507, Note_off_c, 0, 76, 56
1, 121526, Note_on_c, 0, 66, 69
1, 121572, Note_off_c, 0, 64, 59
1, 121577, Note_on_c, 0, 73, 67
1, 121577, Control_c, 0, 64, 107
1, 121592, Control_c, 0, 64, 83
1, 121607, Control_c, 0, 64, 67
1, 121622, Control_c, 0, 64, 30
1, 121637, Control_c, 0, 64, 49
1, 121645, Note_off_c, 0, 66, 55
1, 121649, Note_on_c, 0, 76, 73
1, 121651, Control_c, 0, 64, 63
1, 121653, Note_on_c, 0, 57, 67
1, 121655, Note_on_c, 0, 61, 67
1, 121666, Control_c, 0, 64, 68
1, 121681, Note_off_c, 0, 73, 54
1, 121681, Control_c, 0, 64, 75
1, 121695, Control_c, 0, 64, 87
1, 121710, Control_c, 0, 64, 96
1, 121725, Control_c, 0, 64, 99
1, 121740, Control_c, 0, 64, 100
1, 121755, Control_c, 0, 64, 102
1, 121771, Control_c, 0, 64, 103
1, 121786, Control_c, 0, 64, 107
1, 121800, Control_c, 0, 64, 111
1, 121815, Control_c, 0, 64, 117
1, 121830, Control_c, 0, 64, 127
1, 121908, Note_off_c, 0, 61, 33
1, 121942, Note_off_c, 0, 76, 64
1, 121954, Note_off_c, 0, 57, 0
1, 121984, Note_on_c, 0, 59, 61
1, 121990, Note_on_c, 0, 56, 66
1, 122005, Poly_aftertouch_c, 0, 57, 0
1, 122023, Note_off_c, 0, 59, 62
1, 122083, Note_off_c, 0, 56, 62
1, 122125, Note_on_c, 0, 63, 71
1, 122131, Note_on_c, 0, 75, 73
1, 122142, Control_c, 0, 64, 96
1, 122157, Control_c, 0, 64, 77
1, 122172, Control_c, 0, 64, 60
1, 122187, Control_c, 0, 64, 30
1, 122201, Control_c, 0, 64, 57
1, 122216, Control_c, 0, 64, 66
1, 122231, Control_c, 0, 64, 73
1, 122253, Control_c, 0, 64, 86
1, 122264, Note_off_c, 0, 75, 56
1, 122268, Control_c, 0, 64, 98
1, 122282, Control_c, 0, 64, 104
1, 122297, Control_c, 0, 64, 107
1, 122312, Control_c, 0, 64, 109
1, 122323, Note_off_c, 0, 63, 32
1, 122327, Control_c, 0, 64, 111
1, 122327, Note_on_c, 0, 57, 68
1, 122334, Note_on_c, 0, 54, 64
1, 122342, Control_c, 0, 64, 116
1, 122357, Control_c, 0, 64, 127
1, 122399, Note_on_c, 0, 61, 59
1, 122399, Note_on_c, 0, 73, 76
1, 122431, Note_off_c, 0, 61, 64
1, 122438, Note_off_c, 0, 73, 63
1, 122486, Note_on_c, 0, 53, 73
1, 122488, Note_on_c, 0, 56, 68
1, 122495, Note_on_c, 0, 75, 83
1, 122497, Note_off_c, 0, 57, 50
1, 122497, Note_on_c, 0, 63, 81
1, 122500, Note_off_c, 0, 54, 51
1, 122538, Note_off_c, 0, 75, 61
1, 122566, Note_off_c, 0, 63, 59
1, 122573, Note_off_c, 0, 53, 54
1, 122616, Note_off_c, 0, 56, 51
1, 122726, Note_on_c, 0, 57, 86
1, 122734, Note_on_c, 0, 54, 76
1, 122781, Note_off_c, 0, 54, 61
1, 122789, Note_off_c, 0, 57, 61
1, 123010, Note_on_c, 0, 47, 77
1, 123011, Note_on_c, 0, 35, 78
1, 123045, Control_c, 0, 64, 119
1, 123060, Control_c, 0, 64, 86
1, 123075, Control_c, 0, 64, 62
1, 123077, Note_on_c, 0, 66, 97
1, 123086, Note_on_c, 0, 63, 81
1, 123090, Control_c, 0, 64, 0
1, 123149, Control_c, 0, 64, 36
1, 123164, Control_c, 0, 64, 69
1, 123179, Control_c, 0, 64, 85
1, 123192, Note_off_c, 0, 35, 60
1, 123194, Control_c, 0, 64, 127
1, 123218, Note_off_c, 0, 47, 59
1, 123445, Note_off_c, 0, 63, 36
1, 123500, Note_off_c, 0, 66, 51
1, 123542, Note_on_c, 0, 64, 81
1, 123548, Note_on_c, 0, 61, 74
1, 123724, Note_on_c, 0, 66, 81
1, 123724, Note_on_c, 0, 75, 82
1, 123726, Note_on_c, 0, 69, 72
1, 123765, Control_c, 0, 64, 96
1, 123779, Note_off_c, 0, 64, 59
1, 123779, Control_c, 0, 64, 72
1, 123794, Control_c, 0, 64, 0
1, 123806, Note_off_c, 0, 61, 60
1, 123853, Control_c, 0, 64, 34
1, 123868, Control_c, 0, 64, 64
1, 123883, Control_c, 0, 64, 73
1, 123898, Control_c, 0, 64, 84
1, 123910, Note_on_c, 0, 63, 75
1, 123913, Control_c, 0, 64, 96
1, 123913, Note_on_c, 0, 59, 76
1, 123928, Control_c, 0, 64, 103
1, 123943, Control_c, 0, 64, 109
1, 123958, Control_c, 0, 64, 120
1, 123972, Control_c, 0, 64, 127
1, 124026, Note_off_c, 0, 75, 62
1, 124026, Note_off_c, 0, 69, 62
1, 124038, Note_off_c, 0, 66, 62
1, 124098, Note_on_c, 0, 61, 71
1, 124106, Note_on_c, 0, 57, 72
1, 124133, Note_off_c, 0, 63, 37
1, 124152, Note_off_c, 0, 59, 50
1, 124192, Note_off_c, 0, 61, 60
1, 124276, Note_on_c, 0, 59, 69
1, 124277, Note_on_c, 0, 63, 84
1, 124280, Note_on_c, 0, 78, 86
1, 124288, Note_off_c, 0, 57, 44
1, 124330, Note_off_c, 0, 59, 55
1, 124426, Note_off_c, 0, 78, 57
1, 124462, Note_on_c, 0, 66, 65
1, 124468, Note_on_c, 0, 68, 65
1, 124535, Note_on_c, 0, 71, 70
1, 124553, Note_off_c, 0, 63, 59
1, 124555, Note_off_c, 0, 66, 56
1, 124573, Control_c, 0, 64, 96
1, 124581, Note_off_c, 0, 68, 62
1, 124588, Control_c, 0, 64, 74
1, 124602, Control_c, 0, 64, 42
1, 124605, Note_on_c, 0, 61, 73
1, 124608, Note_on_c, 0, 57, 74
1, 124610, Note_on_c, 0, 78, 99
1, 124617, Control_c, 0, 64, 0
1, 124632, Control_c, 0, 64, 33
1, 124647, Control_c, 0, 64, 62
1, 124662, Control_c, 0, 64, 69
1, 124676, Control_c, 0, 64, 80
1, 124691, Control_c, 0, 64, 99
1, 124706, Control_c, 0, 64, 114
1, 124721, Control_c, 0, 64, 127
1, 124727, Note_off_c, 0, 57, 52
1, 124820, Note_off_c, 0, 78, 55
1, 124834, Note_off_c, 0, 61, 36
1, 124914, Note_on_c, 0, 59, 67
1, 124926, Note_on_c, 0, 56, 64
1, 124958, Poly_aftertouch_c, 0, 57, 0
1, 125033, Control_c, 0, 64, 105
1, 125048, Note_off_c, 0, 56, 51
1, 125048, Control_c, 0, 64, 81
1, 125053, Note_on_c, 0, 76, 82
1, 125055, Note_on_c, 0, 64, 70
1, 125063, Control_c, 0, 64, 61
1, 125078, Control_c, 0, 64, 0
1, 125092, Control_c, 0, 64, 15
1, 125107, Control_c, 0, 64, 63
1, 125122, Control_c, 0, 64, 71
1, 125136, Control_c, 0, 64, 84
1, 125151, Control_c, 0, 64, 101
1, 125166, Control_c, 0, 64, 113
1, 125181, Control_c, 0, 64, 116
1, 125185, Note_off_c, 0, 64, 60
1, 125191, Note_off_c, 0, 76, 61
1, 125196, Control_c, 0, 64, 118
1, 125210, Control_c, 0, 64, 120
1, 125225, Control_c, 0, 64, 127
1, 125241, Note_on_c, 0, 55, 72
1, 125256, Note_on_c, 0, 58, 71
1, 125301, Note_off_c, 0, 55, 63
1, 125316, Note_off_c, 0, 59, 39
1, 125323, Note_on_c, 0, 63, 57
1, 125329, Note_on_c, 0, 75, 72
1, 125364, Note_off_c, 0, 63, 63
1, 125378, Note_off_c, 0, 75, 63
1, 125409, Note_on_c, 0, 59, 75
1, 125415, Note_on_c, 0, 76, 91
1, 125419, Note_on_c, 0, 56, 82
1, 125419, Note_on_c, 0, 64, 84
1, 125436, Note_off_c, 0, 58, 63
1, 125463, Note_off_c, 0, 76, 64
1, 125474, Note_off_c, 0, 56, 63
1, 125481, Note_off_c, 0, 71, 47
1, 125489, Note_off_c, 0, 64, 60
1, 125642, Note_on_c, 0, 64, 89
1, 125654, Note_off_c, 0, 59, 61
1, 125710, Note_off_c, 0, 64, 65
1, 125919, Note_on_c, 0, 32, 83
1, 125922, Note_on_c, 0, 44, 88
1, 125931, Control_c, 0, 64, 106
1, 125946, Control_c, 0, 64, 78
1, 125960, Control_c, 0, 64, 0
1, 125976, Note_on_c, 0, 68, 100
1, 125979, Note_on_c, 0, 59, 93
1, 125990, Note_on_c, 0, 64, 81
1, 126056, Control_c, 0, 64, 49
1, 126071, Control_c, 0, 64, 79
1, 126086, Control_c, 0, 64, 127
1, 126100, Note_off_c, 0, 32, 62
1, 126137, Note_off_c, 0, 44, 60
1, 126165, Note_off_c, 0, 64, 60
1, 126318, Note_off_c, 0, 68, 51
1, 126426, Note_on_c, 0, 63, 90
1, 126426, Note_on_c, 0, 66, 98
1, 126449, Note_off_c, 0, 59, 62
1, 126607, Note_off_c, 0, 63, 61
1, 126607, Note_off_c, 0, 66, 61
1, 126624, Note_on_c, 0, 76, 86
1, 126628, Note_on_c, 0, 71, 77
1, 126629, Note_on_c, 0, 68, 84
1, 126709, Control_c, 0, 64, 95
1, 126724, Control_c, 0, 64, 76
1, 126746, Control_c, 0, 64, 59
1, 126761, Control_c, 0, 64, 0
1, 126805, Control_c, 0, 64, 53
1, 126820, Control_c, 0, 64, 65
1, 126822, Note_on_c, 0, 64, 80
1, 126827, Note_on_c, 0, 61, 77
1, 126835, Control_c, 0, 64, 70
1, 126849, Control_c, 0, 64, 78
1, 126864, Control_c, 0, 64, 87
1, 126879, Control_c, 0, 64, 93
1, 126894, Control_c, 0, 64, 95
1, 126909, Control_c, 0, 64, 97
1, 126924, Control_c, 0, 64, 99
1, 126939, Control_c, 0, 64, 102
1, 126953, Control_c, 0, 64, 105
1, 126968, Control_c, 0, 64, 109
1, 126983, Control_c, 0, 64, 113
1, 126998, Control_c, 0, 64, 117
1, 126999, Note_on_c, 0, 59, 77
1, 127007, Note_on_c, 0, 63, 77
1, 127013, Control_c, 0, 64, 127
1, 127030, Note_off_c, 0, 64, 61
1, 127049, Note_off_c, 0, 61, 45
1, 127102, Note_off_c, 0, 63, 61
1, 127114, Note_off_c, 0, 68, 35
1, 127191, Note_on_c, 0, 80, 96
1, 127207, Note_on_c, 0, 64, 83
1, 127215, Note_on_c, 0, 61, 72
1, 127246, Note_off_c, 0, 59, 61
1, 127287, Note_off_c, 0, 64, 60
1, 127319, Note_off_c, 0, 61, 61
1, 127365, Note_off_c, 0, 80, 54
1, 127389, Note_off_c, 0, 71, 55
1, 127469, Note_off_c, 0, 76, 55
1, 127495, Note_on_c, 0, 73, 67
1, 127506, Note_on_c, 0, 80, 92
1, 127508, Note_on_c, 0, 68, 82
1, 127513, Note_on_c, 0, 63, 83
1, 127518, Note_on_c, 0, 59, 77
1, 127524, Control_c, 0, 64, 115
1, 127538, Control_c, 0, 64, 89
1, 127553, Control_c, 0, 64, 70
1, 127568, Control_c, 0, 64, 0
1, 127612, Control_c, 0, 64, 59
1, 127627, Control_c, 0, 64, 68
1, 127642, Control_c, 0, 64, 76
1, 127657, Control_c, 0, 64, 90
1, 127672, Control_c, 0, 64, 103
1, 127687, Control_c, 0, 64, 114
1, 127702, Control_c, 0, 64, 127
1, 127703, Note_off_c, 0, 68, 60
1, 127731, Note_off_c, 0, 80, 55
1, 127830, Note_on_c, 0, 61, 70
1, 127838, Note_on_c, 0, 57, 60
1, 127845, Note_off_c, 0, 59, 54
1, 127856, Note_off_c, 0, 63, 61
1, 127936, Note_off_c, 0, 61, 60
1, 128006, Note_off_c, 0, 73, 39
1, 128019, Note_on_c, 0, 78, 76
1, 128024, Note_on_c, 0, 66, 71
1, 128027, Control_c, 0, 64, 121
1, 128042, Control_c, 0, 64, 90
1, 128056, Control_c, 0, 64, 70
1, 128071, Control_c, 0, 64, 0
1, 128116, Control_c, 0, 64, 55
1, 128129, Note_off_c, 0, 57, 36
1, 128131, Control_c, 0, 64, 67
1, 128146, Control_c, 0, 64, 76
1, 128155, Note_off_c, 0, 66, 53
1, 128161, Control_c, 0, 64, 89
1, 128175, Note_off_c, 0, 78, 51
1, 128176, Control_c, 0, 64, 103
1, 128191, Control_c, 0, 64, 107
1, 128206, Control_c, 0, 64, 111
1, 128221, Control_c, 0, 64, 117
1, 128241, Note_on_c, 0, 60, 68
1, 128243, Control_c, 0, 64, 127
1, 128249, Note_on_c, 0, 56, 60
1, 128397, Note_off_c, 0, 56, 61
1, 128428, Note_on_c, 0, 61, 67
1, 128432, Note_off_c, 0, 60, 60
1, 128438, Note_on_c, 0, 57, 59
1, 128483, Note_off_c, 0, 57, 57
1, 128606, Note_off_c, 0, 61, 59
1, 128608, Note_on_c, 0, 56, 63
1, 128617, Note_on_c, 0, 59, 72
1, 128660, Note_off_c, 0, 56, 56
1, 128787, Note_off_c, 0, 59, 61
1, 128800, Note_on_c, 0, 57, 70
1, 128810, Note_on_c, 0, 54, 67
1, 128821, Control_c, 0, 64, 118
1, 128836, Control_c, 0, 64, 94
1, 128851, Control_c, 0, 64, 78
1, 128866, Control_c, 0, 64, 61
1, 128880, Control_c, 0, 64, 39
1, 128895, Control_c, 0, 64, 58
1, 128910, Control_c, 0, 64, 65
1, 128925, Control_c, 0, 64, 72
1, 128940, Control_c, 0, 64, 84
1, 128943, Note_off_c, 0, 57, 62
1, 128956, Control_c, 0, 64, 98
1, 128971, Control_c, 0, 64, 110
1, 128992, Control_c, 0, 64, 120
1, 129007, Control_c, 0, 64, 127
1, 129013, Note_on_c, 0, 61, 74
1, 129043, Note_off_c, 0, 54, 53
1, 129191, Note_off_c, 0, 61, 61
1, 129208, Note_on_c, 0, 60, 67
1, 129212, Note_on_c, 0, 64, 71
1, 129220, Note_on_c, 0, 54, 61
1, 129221, Note_on_c, 0, 45, 66
1, 129230, Control_c, 0, 64, 96
1, 129239, Note_on_c, 0, 33, 49
1, 129244, Control_c, 0, 64, 76
1, 129259, Control_c, 0, 64, 39
1, 129274, Control_c, 0, 64, 0
1, 129318, Control_c, 0, 64, 62
1, 129330, Note_off_c, 0, 64, 61
1, 129333, Control_c, 0, 64, 69
1, 129348, Control_c, 0, 64, 76
1, 129363, Control_c, 0, 64, 86
1, 129378, Control_c, 0, 64, 94
1, 129392, Control_c, 0, 64, 98
1, 129404, Note_off_c, 0, 33, 58
1, 129407, Control_c, 0, 64, 102
1, 129417, Note_on_c, 0, 63, 84
1, 129422, Control_c, 0, 64, 105
1, 129434, Note_off_c, 0, 45, 58
1, 129437, Control_c, 0, 64, 109
1, 129450, Note_off_c, 0, 54, 59
1, 129451, Control_c, 0, 64, 114
1, 129463, Note_off_c, 0, 60, 52
1, 129466, Control_c, 0, 64, 124
1, 129481, Control_c, 0, 64, 127
1, 129579, Note_off_c, 0, 63, 58
1, 129603, Note_on_c, 0, 60, 64
1, 129608, Note_on_c, 0, 66, 88
1, 129612, Note_on_c, 0, 54, 72
1, 129615, Control_c, 0, 64, 97
1, 129623, Note_on_c, 0, 44, 68
1, 129629, Control_c, 0, 64, 81
1, 129633, Note_on_c, 0, 32, 55
1, 129644, Control_c, 0, 64, 66
1, 129659, Control_c, 0, 64, 0
1, 129689, Control_c, 0, 64, 54
1, 129703, Control_c, 0, 64, 65
1, 129718, Control_c, 0, 64, 71
1, 129741, Control_c, 0, 64, 82
1, 129756, Control_c, 0, 64, 92
1, 129771, Control_c, 0, 64, 97
1, 129786, Control_c, 0, 64, 99
1, 129797, Note_on_c, 0, 64, 78
1, 129801, Control_c, 0, 64, 99
1, 129815, Note_off_c, 0, 66, 32
1, 129822, Note_off_c, 0, 60, 59
1, 129825, Note_off_c, 0, 44, 37
1, 129830, Control_c, 0, 64, 100
1, 129836, Note_off_c, 0, 54, 25
1, 129860, Control_c, 0, 64, 100
1, 129863, Note_off_c, 0, 64, 63
1, 129875, Control_c, 0, 64, 101
1, 129890, Control_c, 0, 64, 101
1, 129905, Control_c, 0, 64, 102
1, 129919, Control_c, 0, 64, 103
1, 129934, Control_c, 0, 64, 103
1, 129949, Control_c, 0, 64, 104
1, 129978, Control_c, 0, 64, 101
1, 129993, Control_c, 0, 64, 91
1, 130008, Control_c, 0, 64, 79
1, 130012, Note_on_c, 0, 63, 74
1, 130015, Note_on_c, 0, 44, 60
1, 130023, Control_c, 0, 64, 65
1, 130024, Note_on_c, 0, 52, 55
1, 130025, Note_on_c, 0, 56, 56
1, 130027, Note_on_c, 0, 37, 46
1, 130038, Control_c, 0, 64, 0
1, 130042, Note_off_c, 0, 32, 37
1, 130082, Control_c, 0, 64, 57
1, 130097, Control_c, 0, 64, 66
1, 130108, Note_off_c, 0, 37, 57
1, 130112, Control_c, 0, 64, 72
1, 130127, Control_c, 0, 64, 79
1, 130141, Control_c, 0, 64, 86
1, 130156, Control_c, 0, 64, 88
1, 130171, Control_c, 0, 64, 90
1, 130185, Control_c, 0, 64, 90
1, 130191, Note_off_c, 0, 44, 58
1, 130198, Note_on_c, 0, 61, 76
1, 130199, Control_c, 0, 64, 91
1, 130214, Control_c, 0, 64, 91
1, 130229, Control_c, 0, 64, 92
1, 130244, Control_c, 0, 64, 93
1, 130254, Note_off_c, 0, 52, 34
1, 130258, Control_c, 0, 64, 93
1, 130265, Note_off_c, 0, 63, 34
1, 130292, Note_off_c, 0, 56, 40
1, 130303, Control_c, 0, 64, 94
1, 130339, Note_off_c, 0, 61, 61
1, 130376, Note_on_c, 0, 60, 82
1, 130436, Control_c, 0, 64, 93
1, 130450, Control_c, 0, 64, 90
1, 130465, Control_c, 0, 64, 85
1, 130488, Control_c, 0, 64, 78
1, 130503, Control_c, 0, 64, 71
1, 130518, Control_c, 0, 64, 62
1, 130532, Control_c, 0, 64, 35
1, 130547, Control_c, 0, 64, 30
1, 130560, Note_off_c, 0, 60, 0
1, 130580, Note_on_c, 0, 61, 88
1, 130587, Note_on_c, 0, 49, 69
1, 130598, Poly_aftertouch_c, 0, 60, 127
1, 130622, Control_c, 0, 64, 28
1, 130667, Control_c, 0, 64, 27
1, 130681, Poly_aftertouch_c, 0, 60, 0
1, 130681, Control_c, 0, 64, 15
1, 130696, Control_c, 0, 64, 0
1, 130727, Note_off_c, 0, 61, 62
1, 130741, Control_c, 0, 64, 61
1, 130755, Control_c, 0, 64, 73
1, 130763, Note_on_c, 0, 64, 95
1, 130770, Control_c, 0, 64, 100
1, 130780, Note_on_c, 0, 52, 79
1, 130785, Control_c, 0, 64, 127
1, 130799, Note_off_c, 0, 64, 64
1, 130804, Note_off_c, 0, 49, 60
1, 130815, Note_off_c, 0, 52, 63
1, 130963, Control_c, 0, 64, 108
1, 130978, Control_c, 0, 64, 96
1, 130993, Control_c, 0, 64, 85
1, 131007, Control_c, 0, 64, 75
1, 131022, Control_c, 0, 64, 63
1, 131037, Control_c, 0, 64, 0
1, 131041, Note_on_c, 0, 68, 77
1, 131042, Note_on_c, 0, 56, 72
1, 131065, Note_off_c, 0, 56, 68
1, 131065, Note_off_c, 0, 68, 70
1, 131130, Note_on_c, 0, 49, 76
1, 131131, Note_on_c, 0, 61, 101
1, 131131, Note_on_c, 0, 73, 95
1, 131133, Note_on_c, 0, 44, 70
1, 131134, Note_on_c, 0, 68, 87
1, 131139, Note_on_c, 0, 37, 63
1, 131144, Note_on_c, 0, 64, 72
1, 131149, Note_on_c, 0, 40, 53
1, 131151, Note_off_c, 0, 61, 68
1, 131156, Note_off_c, 0, 73, 63
1, 131162, Note_off_c, 0, 49, 62
1, 131168, Note_off_c, 0, 68, 61
1, 131170, Note_off_c, 0, 64, 69
1, 131176, Note_off_c, 0, 44, 59
1, 131183, Note_off_c, 0, 37, 61
1, 131183, Note_off_c, 0, 40, 64
1, 131534, Control_c, 0, 64, 26
1, 131549, Control_c, 0, 64, 65
1, 131553, Note_on_c, 0, 61, 95
1, 131555, Note_on_c, 0, 73, 95
1, 131556, Note_on_c, 0, 64, 82
1, 131558, Note_on_c, 0, 57, 84
1, 131559, Note_on_c, 0, 45, 76
1, 131559, Note_on_c, 0, 69, 78
1, 131562, Note_on_c, 0, 49, 72
1, 131563, Control_c, 0, 64, 81
1, 131565, Note_on_c, 0, 52, 76
1, 131578, Control_c, 0, 64, 111
1, 131582, Note_off_c, 0, 57, 68
1, 131593, Control_c, 0, 64, 127
1, 131595, Note_off_c, 0, 52, 65
1, 131604, Note_off_c, 0, 45, 60
1, 131620, Note_off_c, 0, 49, 63
1, 131904, Control_c, 0, 64, 107
1, 131919, Control_c, 0, 64, 90
1, 131923, Note_off_c, 0, 64, 59
1, 131926, Note_off_c, 0, 61, 59
1, 131933, Note_on_c, 0, 42, 80
1, 131934, Control_c, 0, 64, 75
1, 131936, Note_on_c, 0, 30, 81
1, 131939, Note_off_c, 0, 69, 60
1, 131942, Note_off_c, 0, 73, 60
1, 131948, Control_c, 0, 64, 59
1, 131962, Note_off_c, 0, 42, 66
1, 131963, Control_c, 0, 64, 0
1, 131979, Note_off_c, 0, 30, 61
1, 132123, Note_on_c, 0, 75, 84
1, 132126, Note_on_c, 0, 63, 81
1, 132127, Note_on_c, 0, 66, 87
1, 132149, Note_off_c, 0, 63, 69
1, 132149, Note_off_c, 0, 75, 58
1, 132155, Note_off_c, 0, 66, 67
1, 132327, Control_c, 0, 64, 38
1, 132342, Control_c, 0, 64, 69
1, 132357, Control_c, 0, 64, 92
1, 132365, Note_on_c, 0, 73, 91
1, 132367, Note_on_c, 0, 61, 87
1, 132367, Note_on_c, 0, 64, 77
1, 132371, Note_on_c, 0, 44, 75
1, 132372, Control_c, 0, 64, 127
1, 132375, Note_on_c, 0, 32, 67
1, 132406, Note_off_c, 0, 32, 63
1, 132418, Note_off_c, 0, 44, 57
1, 132463, Poly_aftertouch_c, 0, 68, 0
1, 132480, Note_off_c, 0, 64, 55
1, 132512, Note_off_c, 0, 61, 59
1, 132521, Note_off_c, 0, 73, 61
1, 132663, Note_on_c, 0, 72, 84
1, 132668, Note_on_c, 0, 60, 69
1, 132675, Note_on_c, 0, 63, 61
1, 132683, Control_c, 0, 64, 99
1, 132686, Note_off_c, 0, 72, 70
1, 132696, Note_off_c, 0, 60, 63
1, 132697, Note_off_c, 0, 63, 60
1, 132698, Control_c, 0, 64, 81
1, 132713, Control_c, 0, 64, 66
1, 132735, Control_c, 0, 64, 0
1, 132751, Note_on_c, 0, 72, 98
1, 132752, Note_on_c, 0, 60, 84
1, 132756, Note_on_c, 0, 63, 85
1, 132765, Note_on_c, 0, 44, 66
1, 132768, Note_on_c, 0, 56, 66
1, 132775, Note_off_c, 0, 60, 69
1, 132775, Note_off_c, 0, 72, 65
1, 132778, Note_off_c, 0, 63, 70
1, 132796, Note_off_c, 0, 56, 66
1, 132823, Note_off_c, 0, 44, 53
1, 133035, Note_on_c, 0, 70, 71
1, 133036, Note_on_c, 0, 58, 65
1, 133043, Note_on_c, 0, 61, 65
1, 133046, Note_on_c, 0, 56, 66
1, 133052, Note_on_c, 0, 44, 56
1, 133061, Note_off_c, 0, 70, 67
1, 133062, Note_off_c, 0, 58, 65
1, 133064, Note_off_c, 0, 61, 64
1, 133073, Note_off_c, 0, 56, 66
1, 133087, Note_off_c, 0, 44, 59
1, 133121, Note_on_c, 0, 72, 101
1, 133123, Note_on_c, 0, 60, 86
1, 133124, Note_on_c, 0, 44, 57
1, 133124, Note_on_c, 0, 63, 91
1, 133128, Note_on_c, 0, 56, 71
1, 133142, Note_off_c, 0, 60, 71
1, 133142, Note_off_c, 0, 72, 66
1, 133150, Note_off_c, 0, 63, 67
1, 133152, Note_on_c, 0, 70, 14
1, 133153, Note_off_c, 0, 70, 127
1, 133153, Note_off_c, 0, 56, 67
1, 133178, Note_off_c, 0, 44, 60
1, 133269, Control_c, 0, 64, 12
1, 133283, Control_c, 0, 64, 24
1, 133298, Control_c, 0, 64, 27
1, 133313, Control_c, 0, 64, 28
1, 133371, Note_on_c, 0, 56, 72
1, 133372, Control_c, 0, 64, 24
1, 133375, Note_on_c, 0, 68, 70
1, 133387, Control_c, 0, 64, 0
1, 133398, Note_off_c, 0, 56, 67
1, 133401, Note_off_c, 0, 68, 67
1, 133459, Note_on_c, 0, 49, 77
1, 133459, Note_on_c, 0, 73, 99
1, 133461, Note_on_c, 0, 37, 70
1, 133461, Note_on_c, 0, 61, 103
1, 133462, Note_on_c, 0, 68, 88
1, 133467, Note_on_c, 0, 44, 68
1, 133479, Note_on_c, 0, 64, 76
1, 133483, Note_on_c, 0, 40, 52
1, 133487, Note_off_c, 0, 61, 69
1, 133487, Note_off_c, 0, 73, 65
1, 133497, Note_off_c, 0, 49, 63
1, 133497, Note_off_c, 0, 68, 63
1, 133502, Note_off_c, 0, 64, 70
1, 133507, Note_off_c, 0, 44, 63
1, 133516, Note_off_c, 0, 40, 63
1, 133517, Note_off_c, 0, 37, 60
1, 133839, Control_c, 0, 64, 47
1, 133854, Control_c, 0, 64, 66
1, 133869, Control_c, 0, 64, 81
1, 133879, Note_on_c, 0, 57, 82
1, 133879, Note_on_c, 0, 61, 93
1, 133879, Note_on_c, 0, 73, 95
1, 133880, Note_on_c, 0, 64, 86
1, 133881, Note_on_c, 0, 45, 78
1, 133884, Note_on_c, 0, 69, 81
1, 133884, Note_on_c, 0, 49, 75
1, 133884, Control_c, 0, 64, 112
1, 133887, Note_on_c, 0, 52, 75
1, 133899, Control_c, 0, 64, 127
1, 133902, Note_off_c, 0, 57, 67
1, 133917, Note_off_c, 0, 52, 65
1, 133928, Note_off_c, 0, 45, 60
1, 133942, Note_off_c, 0, 49, 62
1, 134215, Note_off_c, 0, 64, 58
1, 134215, Note_off_c, 0, 61, 58
1, 134246, Note_off_c, 0, 69, 58
1, 134247, Control_c, 0, 64, 113
1, 134254, Note_on_c, 0, 42, 81
1, 134257, Note_on_c, 0, 30, 79
1, 134260, Note_off_c, 0, 73, 61
1, 134262, Control_c, 0, 64, 91
1, 134276, Control_c, 0, 64, 78
1, 134285, Note_off_c, 0, 42, 63
1, 134291, Control_c, 0, 64, 64
1, 134292, Note_off_c, 0, 30, 61
1, 134306, Control_c, 0, 64, 0
1, 134435, Note_on_c, 0, 76, 85
1, 134441, Note_on_c, 0, 64, 74
1, 134441, Note_on_c, 0, 68, 76
1, 134462, Note_off_c, 0, 76, 60
1, 134465, Note_off_c, 0, 68, 70
1, 134467, Note_off_c, 0, 64, 69
1, 134647, Control_c, 0, 64, 45
1, 134662, Control_c, 0, 64, 66
1, 134677, Control_c, 0, 64, 76
1, 134684, Note_on_c, 0, 76, 87
1, 134692, Note_on_c, 0, 68, 81
1, 134692, Note_on_c, 0, 64, 76
1, 134692, Control_c, 0, 64, 90
1, 134693, Note_on_c, 0, 35, 55
1, 134693, Note_on_c, 0, 47, 55
1, 134707, Control_c, 0, 64, 107
1, 134722, Control_c, 0, 64, 127
1, 134726, Note_off_c, 0, 35, 56
1, 134728, Note_off_c, 0, 47, 61
1, 134799, Note_off_c, 0, 76, 59
1, 134807, Note_off_c, 0, 64, 31
1, 134842, Note_off_c, 0, 68, 61
1, 135024, Note_on_c, 0, 75, 77
1, 135029, Note_on_c, 0, 63, 74
1, 135030, Note_on_c, 0, 66, 77
1, 135041, Control_c, 0, 64, 98
1, 135048, Note_off_c, 0, 75, 65
1, 135052, Note_off_c, 0, 63, 65
1, 135055, Note_off_c, 0, 66, 68
1, 135055, Control_c, 0, 64, 80
1, 135070, Control_c, 0, 64, 65
1, 135085, Control_c, 0, 64, 0
1, 135102, Note_on_c, 0, 63, 90
1, 135103, Note_on_c, 0, 75, 90
1, 135106, Note_on_c, 0, 59, 72
1, 135107, Note_on_c, 0, 47, 66
1, 135107, Note_on_c, 0, 66, 88
1, 135133, Note_off_c, 0, 63, 63
1, 135133, Note_off_c, 0, 66, 67
1, 135136, Note_off_c, 0, 75, 59
1, 135140, Note_off_c, 0, 59, 60
1, 135162, Note_off_c, 0, 47, 58
1, 135392, Note_on_c, 0, 59, 68
1, 135392, Note_on_c, 0, 73, 70
1, 135395, Note_on_c, 0, 47, 65
1, 135395, Note_on_c, 0, 61, 61
1, 135411, Note_on_c, 0, 64, 37
1, 135417, Note_off_c, 0, 61, 63
1, 135419, Note_off_c, 0, 73, 67
1, 135419, Note_off_c, 0, 59, 67
1, 135424, Note_on_c, 0, 65, 36
1, 135436, Note_off_c, 0, 47, 61
1, 135441, Note_off_c, 0, 64, 50
1, 135459, Note_off_c, 0, 65, 33
1, 135478, Note_on_c, 0, 75, 92
1, 135481, Note_on_c, 0, 63, 91
1, 135484, Note_on_c, 0, 59, 70
1, 135492, Note_on_c, 0, 66, 80
1, 135494, Note_on_c, 0, 47, 66
1, 135507, Note_off_c, 0, 59, 70
1, 135512, Note_off_c, 0, 63, 61
1, 135516, Note_off_c, 0, 66, 68
1, 135521, Note_off_c, 0, 75, 62
1, 135531, Note_off_c, 0, 47, 62
1, 135745, Note_on_c, 0, 59, 65
1, 135747, Note_on_c, 0, 71, 65
1, 135764, Note_off_c, 0, 59, 63
1, 135767, Note_off_c, 0, 71, 66
1, 135827, Note_on_c, 0, 52, 76
1, 135828, Note_on_c, 0, 76, 99
1, 135830, Note_on_c, 0, 40, 70
1, 135831, Note_on_c, 0, 64, 98
1, 135831, Note_on_c, 0, 47, 67
1, 135833, Note_on_c, 0, 44, 70
1, 135836, Note_on_c, 0, 68, 91
1, 135841, Note_on_c, 0, 71, 62
1, 135847, Note_off_c, 0, 64, 73
1, 135852, Note_off_c, 0, 76, 61
1, 135855, Note_off_c, 0, 52, 65
1, 135857, Note_off_c, 0, 68, 69
1, 135860, Note_off_c, 0, 71, 65
1, 135861, Note_off_c, 0, 47, 64
1, 135866, Note_off_c, 0, 40, 63
1, 135869, Note_off_c, 0, 44, 62
1, 136042, Control_c, 0, 64, 12
1, 136056, Control_c, 0, 64, 22
1, 136071, Control_c, 0, 64, 27
1, 136086, Control_c, 0, 64, 28
1, 136116, Control_c, 0, 64, 22
1, 136130, Control_c, 0, 64, 12
1, 136146, Control_c, 0, 64, 0
1, 136161, Control_c, 0, 64, 15
1, 136176, Control_c, 0, 64, 55
1, 136191, Control_c, 0, 64, 69
1, 136206, Control_c, 0, 64, 85
1, 136216, Note_on_c, 0, 61, 84
1, 136218, Note_on_c, 0, 76, 94
1, 136220, Control_c, 0, 64, 127
1, 136223, Note_on_c, 0, 56, 74
1, 136224, Note_on_c, 0, 64, 91
1, 136224, Note_on_c, 0, 68, 92
1, 136227, Note_on_c, 0, 73, 84
1, 136228, Note_on_c, 0, 49, 67
1, 136228, Note_on_c, 0, 52, 63
1, 136236, Note_off_c, 0, 61, 70
1, 136256, Note_off_c, 0, 56, 64
1, 136263, Note_off_c, 0, 52, 62
1, 136264, Note_off_c, 0, 49, 63
1, 136269, Note_off_c, 0, 64, 63
1, 136316, Note_off_c, 0, 76, 59
1, 136411, Note_off_c, 0, 68, 54
1, 136501, Note_off_c, 0, 73, 61
1, 136568, Control_c, 0, 64, 121
1, 136582, Note_on_c, 0, 46, 86
1, 136583, Note_on_c, 0, 34, 85
1, 136583, Control_c, 0, 64, 96
1, 136598, Control_c, 0, 64, 81
1, 136612, Note_off_c, 0, 46, 63
1, 136613, Control_c, 0, 64, 67
1, 136620, Note_off_c, 0, 34, 59
1, 136627, Control_c, 0, 64, 0
1, 136757, Note_on_c, 0, 78, 81
1, 136760, Note_on_c, 0, 73, 78
1, 136761, Note_on_c, 0, 66, 83
1, 136782, Note_off_c, 0, 78, 61
1, 136784, Note_off_c, 0, 66, 70
1, 136790, Note_off_c, 0, 73, 66
1, 136909, Control_c, 0, 64, 18
1, 136924, Control_c, 0, 64, 59
1, 136939, Control_c, 0, 64, 67
1, 136954, Control_c, 0, 64, 80
1, 136969, Control_c, 0, 64, 99
1, 136984, Note_on_c, 0, 76, 67
1, 136984, Control_c, 0, 64, 127
1, 136987, Note_on_c, 0, 68, 71
1, 136990, Note_on_c, 0, 64, 64
1, 136999, Note_on_c, 0, 35, 39
1, 137004, Note_on_c, 0, 47, 36
1, 137016, Note_off_c, 0, 76, 61
1, 137022, Note_off_c, 0, 64, 66
1, 137043, Note_off_c, 0, 35, 48
1, 137051, Note_off_c, 0, 47, 46
1, 137052, Note_off_c, 0, 68, 59
1, 137258, Control_c, 0, 64, 109
1, 137272, Note_on_c, 0, 75, 72
1, 137273, Control_c, 0, 64, 91
1, 137277, Note_on_c, 0, 63, 64
1, 137279, Note_on_c, 0, 66, 70
1, 137288, Control_c, 0, 64, 76
1, 137296, Note_off_c, 0, 75, 68
1, 137297, Note_off_c, 0, 63, 61
1, 137297, Note_off_c, 0, 66, 65
1, 137302, Control_c, 0, 64, 61
1, 137317, Control_c, 0, 64, 0
1, 137352, Note_on_c, 0, 75, 92
1, 137354, Note_on_c, 0, 63, 85
1, 137359, Note_on_c, 0, 66, 82
1, 137363, Note_on_c, 0, 48, 63
1, 137369, Note_on_c, 0, 36, 53
1, 137378, Note_off_c, 0, 63, 67
1, 137381, Note_off_c, 0, 66, 70
1, 137390, Note_off_c, 0, 75, 56
1, 137395, Note_off_c, 0, 48, 64
1, 137399, Note_off_c, 0, 36, 54
1, 137547, Note_on_c, 0, 44, 76
1, 137548, Note_on_c, 0, 56, 62
1, 137571, Note_off_c, 0, 56, 64
1, 137583, Note_off_c, 0, 44, 62
1, 137613, Note_on_c, 0, 61, 74
1, 137613, Note_on_c, 0, 64, 74
1, 137613, Note_on_c, 0, 73, 72
1, 137638, Note_off_c, 0, 61, 66
1, 137638, Note_off_c, 0, 64, 69
1, 137652, Note_off_c, 0, 73, 62
1, 137707, Note_on_c, 0, 75, 91
1, 137709, Note_on_c, 0, 44, 75
1, 137714, Note_on_c, 0, 63, 82
1, 137714, Note_on_c, 0, 66, 87
1, 137720, Note_on_c, 0, 32, 58
1, 137733, Note_off_c, 0, 44, 65
1, 137735, Note_off_c, 0, 66, 72
1, 137736, Note_off_c, 0, 63, 68
1, 137749, Note_off_c, 0, 75, 57
1, 137750, Note_off_c, 0, 32, 57
1, 137903, Note_on_c, 0, 44, 69
1, 137907, Note_on_c, 0, 56, 59
1, 137929, Note_off_c, 0, 56, 60
1, 137941, Note_off_c, 0, 44, 62
1, 137987, Note_on_c, 0, 64, 68
1, 137989, Note_on_c, 0, 76, 66
1, 137990, Note_on_c, 0, 68, 74
1, 138004, Note_off_c, 0, 76, 66
1, 138014, Note_off_c, 0, 64, 68
1, 138014, Note_off_c, 0, 68, 68
1, 138021, Control_c, 0, 64, 41
1, 138036, Control_c, 0, 64, 66
1, 138050, Control_c, 0, 64, 82
1, 138065, Control_c, 0, 64, 116
1, 138080, Control_c, 0, 64, 127
1, 138082, Note_on_c, 0, 75, 85
1, 138084, Note_on_c, 0, 49, 63
1, 138087, Note_on_c, 0, 37, 62
1, 138087, Note_on_c, 0, 66, 90
1, 138089, Note_on_c, 0, 63, 78
1, 138114, Note_off_c, 0, 49, 65
1, 138119, Note_off_c, 0, 37, 63
1, 138177, Note_off_c, 0, 75, 56
1, 138194, Note_off_c, 0, 63, 26
1, 138220, Note_off_c, 0, 66, 62
1, 138269, Note_on_c, 0, 44, 77
1, 138272, Note_on_c, 0, 56, 65
1, 138293, Note_off_c, 0, 56, 65
1, 138313, Note_off_c, 0, 44, 59
1, 138361, Control_c, 0, 64, 94
1, 138367, Note_on_c, 0, 61, 75
1, 138370, Note_on_c, 0, 64, 69
1, 138374, Note_on_c, 0, 73, 67
1, 138376, Control_c, 0, 64, 78
1, 138385, Note_off_c, 0, 61, 66
1, 138391, Control_c, 0, 64, 64
1, 138391, Note_off_c, 0, 73, 65
1, 138395, Note_off_c, 0, 64, 65
1, 138406, Control_c, 0, 64, 0
1, 138445, Note_on_c, 0, 45, 78
1, 138449, Note_on_c, 0, 33, 66
1, 138451, Note_on_c, 0, 73, 80
1, 138453, Note_on_c, 0, 64, 78
1, 138454, Note_on_c, 0, 61, 70
1, 138472, Note_off_c, 0, 45, 65
1, 138477, Note_off_c, 0, 33, 58
1, 138477, Note_off_c, 0, 64, 69
1, 138480, Note_off_c, 0, 61, 66
1, 138480, Note_off_c, 0, 73, 63
1, 138624, Note_on_c, 0, 45, 70
1, 138628, Note_on_c, 0, 57, 68
1, 138654, Note_off_c, 0, 57, 62
1, 138662, Note_off_c, 0, 45, 64
1, 138701, Note_on_c, 0, 63, 85
1, 138704, Note_on_c, 0, 60, 74
1, 138707, Note_on_c, 0, 72, 74
1, 138732, Note_off_c, 0, 72, 66
1, 138733, Note_off_c, 0, 63, 69
1, 138739, Note_off_c, 0, 60, 67
1, 138793, Note_on_c, 0, 42, 79
1, 138800, Note_on_c, 0, 30, 66
1, 138801, Note_on_c, 0, 61, 84
1, 138802, Note_on_c, 0, 73, 81
1, 138803, Note_on_c, 0, 64, 85
1, 138819, Note_off_c, 0, 42, 65
1, 138821, Note_off_c, 0, 61, 70
1, 138826, Note_off_c, 0, 73, 61
1, 138828, Note_off_c, 0, 64, 69
1, 138829, Note_off_c, 0, 30, 58
1, 138972, Note_on_c, 0, 42, 77
1, 138973, Note_on_c, 0, 54, 72
1, 138999, Note_off_c, 0, 54, 66
1, 139018, Note_off_c, 0, 42, 61
1, 139049, Note_on_c, 0, 63, 81
1, 139049, Note_on_c, 0, 75, 79
1, 139056, Note_on_c, 0, 66, 82
1, 139069, Note_off_c, 0, 75, 70
1, 139071, Note_off_c, 0, 63, 70
1, 139080, Note_off_c, 0, 66, 70
1, 139096, Control_c, 0, 64, 46
1, 139111, Control_c, 0, 64, 67
1, 139126, Control_c, 0, 64, 83
1, 139140, Control_c, 0, 64, 115
1, 139148, Note_on_c, 0, 73, 92
1, 139154, Note_on_c, 0, 44, 70
1, 139154, Note_on_c, 0, 32, 67
1, 139154, Note_on_c, 0, 61, 83
1, 139154, Note_on_c, 0, 64, 84
1, 139155, Control_c, 0, 64, 127
1, 139182, Note_off_c, 0, 44, 64
1, 139183, Note_off_c, 0, 61, 59
1, 139187, Note_off_c, 0, 32, 63
1, 139213, Note_off_c, 0, 64, 60
1, 139243, Note_off_c, 0, 73, 61
1, 139340, Note_on_c, 0, 57, 74
1, 139342, Note_on_c, 0, 45, 74
1, 139368, Note_off_c, 0, 57, 66
1, 139377, Note_off_c, 0, 45, 64
1, 139411, Note_on_c, 0, 72, 87
1, 139418, Note_on_c, 0, 60, 69
1, 139419, Note_on_c, 0, 63, 73
1, 139433, Note_off_c, 0, 72, 70
1, 139446, Note_off_c, 0, 63, 66
1, 139447, Note_off_c, 0, 60, 63
1, 139500, Note_on_c, 0, 72, 96
1, 139501, Note_on_c, 0, 63, 89
1, 139502, Note_on_c, 0, 60, 89
1, 139503, Note_on_c, 0, 56, 83
1, 139506, Note_on_c, 0, 44, 85
1, 139526, Note_off_c, 0, 56, 71
1, 139527, Note_off_c, 0, 60, 67
1, 139532, Note_off_c, 0, 72, 65
1, 139536, Note_off_c, 0, 63, 60
1, 139537, Note_off_c, 0, 44, 63
1, 139680, Note_on_c, 0, 75, 91
1, 139682, Control_c, 0, 64, 103
1, 139683, Note_on_c, 0, 63, 88
1, 139697, Control_c, 0, 64, 87
1, 139698, Note_on_c, 0, 42, 66
1, 139700, Note_off_c, 0, 63, 73
1, 139702, Note_off_c, 0, 75, 64
1, 139703, Note_on_c, 0, 54, 65
1, 139712, Control_c, 0, 64, 74
1, 139721, Note_off_c, 0, 42, 59
1, 139725, Note_off_c, 0, 54, 60
1, 139727, Control_c, 0, 64, 60
1, 139742, Control_c, 0, 64, 0
1, 139865, Note_on_c, 0, 80, 93
1, 139868, Note_on_c, 0, 68, 91
1, 139873, Note_on_c, 0, 52, 70
1, 139875, Note_on_c, 0, 40, 75
1, 139887, Note_off_c, 0, 68, 73
1, 139888, Note_off_c, 0, 80, 66
1, 139900, Note_off_c, 0, 40, 65
1, 139903, Note_off_c, 0, 52, 65
1, 140053, Note_on_c, 0, 84, 93
1, 140058, Note_on_c, 0, 72, 94
1, 140078, Note_on_c, 0, 51, 65
1, 140081, Note_on_c, 0, 39, 57
1, 140089, Note_off_c, 0, 72, 64
1, 140108, Note_off_c, 0, 51, 64
1, 140114, Note_off_c, 0, 84, 60
1, 140130, Note_off_c, 0, 39, 58
1, 140253, Control_c, 0, 64, 69
1, 140268, Control_c, 0, 64, 127
1, 140275, Note_on_c, 0, 85, 95
1, 140277, Note_on_c, 0, 49, 82
1, 140280, Note_on_c, 0, 73, 93
1, 140290, Note_on_c, 0, 37, 63
1, 140302, Note_off_c, 0, 49, 69
1, 140306, Note_off_c, 0, 85, 64
1, 140320, Note_off_c, 0, 73, 64
1, 140321, Note_off_c, 0, 37, 62
1, 140442, Note_on_c, 0, 73, 78
1, 140445, Control_c, 0, 64, 109
1, 140446, Note_on_c, 0, 52, 72
1, 140447, Note_on_c, 0, 64, 71
1, 140451, Note_on_c, 0, 68, 73
1, 140453, Note_on_c, 0, 56, 61
1, 140454, Note_on_c, 0, 61, 58
1, 140460, Control_c, 0, 64, 83
1, 140463, Note_off_c, 0, 64, 65
1, 140468, Note_off_c, 0, 73, 64
1, 140475, Control_c, 0, 64, 55
1, 140477, Note_off_c, 0, 52, 66
1, 140477, Note_off_c, 0, 68, 69
1, 140478, Note_off_c, 0, 56, 65
1, 140480, Note_off_c, 0, 61, 56
1, 140490, Control_c, 0, 64, 0
1, 140609, Control_c, 0, 64, 71
1, 140624, Control_c, 0, 64, 127
1, 140625, Note_on_c, 0, 45, 88
1, 140626, Note_on_c, 0, 85, 102
1, 140628, Note_on_c, 0, 73, 100
1, 140630, Note_on_c, 0, 33, 77
1, 140650, Note_off_c, 0, 45, 67
1, 140653, Note_off_c, 0, 33, 61
1, 140657, Note_off_c, 0, 85, 67
1, 140660, Note_off_c, 0, 73, 68
1, 140794, Note_on_c, 0, 73, 81
1, 140799, Note_on_c, 0, 52, 66
1, 140799, Note_on_c, 0, 61, 59
1, 140802, Note_on_c, 0, 64, 73
1, 140807, Note_on_c, 0, 69, 61
1, 140815, Note_off_c, 0, 73, 69
1, 140821, Note_off_c, 0, 61, 60
1, 140821, Note_off_c, 0, 64, 65
1, 140827, Note_off_c, 0, 69, 63
1, 140833, Note_off_c, 0, 52, 64
1, 140878, Note_on_c, 0, 64, 82
1, 140883, Note_on_c, 0, 73, 81
1, 140884, Note_on_c, 0, 69, 80
1, 140901, Note_off_c, 0, 64, 67
1, 140903, Note_off_c, 0, 73, 72
1, 140909, Note_off_c, 0, 69, 69
1, 140946, Note_on_c, 0, 42, 80
1, 140952, Note_on_c, 0, 73, 99
1, 140954, Note_on_c, 0, 30, 66
1, 140955, Note_on_c, 0, 64, 78
1, 140980, Note_off_c, 0, 64, 75
1, 140981, Note_on_c, 0, 69, 46
1, 140985, Note_off_c, 0, 42, 66
1, 140992, Note_off_c, 0, 30, 55
1, 140999, Note_off_c, 0, 69, 63
1, 141002, Note_off_c, 0, 73, 68
1, 141134, Note_on_c, 0, 87, 98
1, 141135, Note_on_c, 0, 75, 100
1, 141145, Note_on_c, 0, 57, 59
1, 141152, Note_on_c, 0, 63, 80
1, 141154, Note_on_c, 0, 78, 67
1, 141169, Note_on_c, 0, 54, 70
1, 141172, Note_on_c, 0, 85, 40
1, 141175, Note_off_c, 0, 63, 69
1, 141175, Note_off_c, 0, 75, 62
1, 141175, Note_off_c, 0, 87, 63
1, 141183, Note_off_c, 0, 57, 63
1, 141193, Note_off_c, 0, 78, 58
1, 141202, Note_off_c, 0, 85, 50
1, 141209, Note_off_c, 0, 54, 63
1, 141342, Control_c, 0, 64, 85
1, 141357, Control_c, 0, 64, 0
1, 141382, Note_on_c, 0, 76, 87
1, 141382, Note_on_c, 0, 85, 94
1, 141384, Note_on_c, 0, 73, 97
1, 141385, Note_on_c, 0, 44, 86
1, 141386, Note_on_c, 0, 32, 81
1, 141402, Control_c, 0, 64, 64
1, 141414, Note_off_c, 0, 32, 64
1, 141417, Control_c, 0, 64, 83
1, 141419, Note_off_c, 0, 44, 62
1, 141431, Control_c, 0, 64, 127
1, 141465, Note_off_c, 0, 76, 58
1, 141497, Note_off_c, 0, 73, 61
1, 141512, Note_off_c, 0, 85, 62
1, 141567, Note_on_c, 0, 56, 67
1, 141574, Note_on_c, 0, 44, 53
1, 141592, Note_off_c, 0, 44, 63
1, 141593, Note_off_c, 0, 56, 66
1, 141627, Note_on_c, 0, 84, 87
1, 141631, Note_on_c, 0, 72, 86
1, 141635, Note_on_c, 0, 75, 74
1, 141647, Note_off_c, 0, 84, 72
1, 141653, Note_off_c, 0, 72, 71
1, 141658, Note_off_c, 0, 75, 69
1, 141704, Note_on_c, 0, 84, 95
1, 141706, Note_on_c, 0, 72, 96
1, 141708, Note_on_c, 0, 75, 92
1, 141731, Note_on_c, 0, 56, 64
1, 141732, Note_off_c, 0, 72, 71
1, 141733, Note_on_c, 0, 66, 76
1, 141735, Note_on_c, 0, 63, 70
1, 141745, Note_off_c, 0, 84, 62
1, 141746, Note_off_c, 0, 75, 61
1, 141762, Note_off_c, 0, 66, 67
1, 141763, Note_off_c, 0, 63, 65
1, 141768, Note_off_c, 0, 56, 61
1, 141882, Note_on_c, 0, 56, 66
1, 141886, Note_on_c, 0, 63, 59
1, 141886, Note_on_c, 0, 66, 64
1, 141894, Note_on_c, 0, 82, 75
1, 141894, Note_on_c, 0, 70, 80
1, 141898, Control_c, 0, 64, 96
1, 141903, Note_off_c, 0, 66, 67
1, 141908, Note_on_c, 0, 73, 59
1, 141913, Control_c, 0, 64, 77
1, 141915, Note_off_c, 0, 63, 66
1, 141917, Note_off_c, 0, 82, 70
1, 141918, Note_off_c, 0, 70, 70
1, 141918, Note_off_c, 0, 56, 58
1, 141928, Note_off_c, 0, 73, 61
1, 141928, Control_c, 0, 64, 46
1, 141943, Control_c, 0, 64, 0
1, 141960, Note_on_c, 0, 66, 78
1, 141969, Note_on_c, 0, 56, 60
1, 141969, Note_on_c, 0, 63, 70
1, 141986, Note_off_c, 0, 66, 68
1, 141997, Note_off_c, 0, 63, 66
1, 142009, Note_off_c, 0, 56, 62
1, 142041, Note_on_c, 0, 72, 92
1, 142043, Note_on_c, 0, 84, 89
1, 142045, Note_on_c, 0, 75, 84
1, 142051, Note_on_c, 0, 56, 64
1, 142051, Note_on_c, 0, 66, 80
1, 142058, Note_on_c, 0, 63, 63
1, 142061, Note_off_c, 0, 72, 72
1, 142061, Note_off_c, 0, 84, 72
1, 142064, Note_off_c, 0, 75, 72
1, 142073, Note_off_c, 0, 66, 68
1, 142084, Note_off_c, 0, 63, 66
1, 142089, Note_off_c, 0, 56, 64
1, 142213, Note_on_c, 0, 80, 85
1, 142215, Note_on_c, 0, 68, 83
1, 142225, Note_on_c, 0, 66, 52
1, 142227, Note_on_c, 0, 72, 67
1, 142228, Note_on_c, 0, 56, 71
1, 142233, Note_on_c, 0, 63, 43
1, 142237, Note_off_c, 0, 68, 70
1, 142247, Note_off_c, 0, 72, 63
1, 142251, Note_off_c, 0, 66, 59
1, 142262, Note_off_c, 0, 63, 51
1, 142267, Note_off_c, 0, 80, 64
1, 142270, Note_off_c, 0, 56, 63
1, 142358, Control_c, 0, 64, 66
1, 142373, Control_c, 0, 64, 127
1, 142395, Note_on_c, 0, 85, 96
1, 142396, Note_on_c, 0, 73, 96
1, 142402, Note_on_c, 0, 49, 74
1, 142421, Note_on_c, 0, 37, 44
1, 142424, Note_off_c, 0, 85, 62
1, 142427, Note_off_c, 0, 49, 65
1, 142428, Note_off_c, 0, 73, 61
1, 142468, Note_off_c, 0, 37, 50
1, 142544, Control_c, 0, 64, 89
1, 142559, Control_c, 0, 64, 64
1, 142573, Note_on_c, 0, 73, 79
1, 142573, Control_c, 0, 64, 0
1, 142579, Note_on_c, 0, 68, 75
1, 142585, Note_on_c, 0, 64, 55
1, 142586, Note_on_c, 0, 52, 58
1, 142591, Note_on_c, 0, 56, 46
1, 142594, Note_on_c, 0, 61, 38
1, 142605, Note_off_c, 0, 68, 69
1, 142605, Note_off_c, 0, 73, 65
1, 142606, Note_off_c, 0, 64, 61
1, 142617, Note_off_c, 0, 56, 55
1, 142618, Note_off_c, 0, 52, 64
1, 142629, Note_off_c, 0, 61, 51
1, 142737, Control_c, 0, 64, 127
1, 142752, Note_on_c, 0, 85, 100
1, 142754, Note_on_c, 0, 45, 85
1, 142754, Note_on_c, 0, 73, 97
1, 142757, Note_on_c, 0, 33, 76
1, 142779, Note_off_c, 0, 45, 67
1, 142781, Note_off_c, 0, 33, 60
1, 142785, Note_off_c, 0, 85, 68
1, 142786, Note_off_c, 0, 73, 69
1, 142919, Note_on_c, 0, 52, 77
1, 142920, Note_on_c, 0, 73, 81
1, 142924, Note_on_c, 0, 64, 75
1, 142928, Note_on_c, 0, 61, 55
1, 142929, Note_on_c, 0, 69, 66
1, 142939, Note_off_c, 0, 73, 71
1, 142949, Note_off_c, 0, 64, 69
1, 142953, Note_off_c, 0, 52, 63
1, 142954, Note_off_c, 0, 69, 64
1, 142955, Note_off_c, 0, 61, 57
1, 143007, Note_on_c, 0, 69, 82
1, 143009, Note_on_c, 0, 64, 78
1, 143012, Note_on_c, 0, 73, 80
1, 143012, Poly_aftertouch_c, 0, 57, 0
1, 143026, Note_off_c, 0, 69, 71
1, 143032, Note_off_c, 0, 64, 68
1, 143033, Note_off_c, 0, 73, 69
1, 143068, Note_on_c, 0, 42, 78
1, 143076, Note_on_c, 0, 73, 103
1, 143078, Note_on_c, 0, 64, 88
1, 143080, Note_on_c, 0, 30, 59
1, 143095, Note_off_c, 0, 42, 64
1, 143098, Note_off_c, 0, 64, 72
1, 143105, Note_on_c, 0, 69, 40
1, 143113, Note_off_c, 0, 30, 53
1, 143121, Note_off_c, 0, 73, 67
1, 143137, Note_off_c, 0, 69, 49
1, 143290, Note_on_c, 0, 88, 98
1, 143293, Note_on_c, 0, 76, 94
1, 143296, Note_on_c, 0, 80, 95
1, 143304, Note_on_c, 0, 57, 47
1, 143310, Note_on_c, 0, 54, 74
1, 143313, Note_on_c, 0, 64, 65
1, 143316, Note_on_c, 0, 61, 73
1, 143324, Note_off_c, 0, 76, 60
1, 143335, Note_off_c, 0, 64, 65
1, 143336, Note_off_c, 0, 57, 59
1, 143347, Note_off_c, 0, 61, 60
1, 143372, Note_off_c, 0, 54, 62
1, 143391, Note_off_c, 0, 88, 50
1, 143414, Note_off_c, 0, 80, 61
1, 143545, Control_c, 0, 64, 80
1, 143560, Control_c, 0, 64, 0
1, 143575, Note_on_c, 0, 88, 106
1, 143579, Note_on_c, 0, 47, 86
1, 143579, Note_on_c, 0, 76, 99
1, 143581, Note_on_c, 0, 35, 86
1, 143581, Note_on_c, 0, 80, 92
1, 143589, Control_c, 0, 64, 54
1, 143604, Control_c, 0, 64, 71
1, 143608, Note_off_c, 0, 35, 63
1, 143609, Note_off_c, 0, 47, 64
1, 143619, Control_c, 0, 64, 94
1, 143634, Control_c, 0, 64, 127
1, 143675, Note_off_c, 0, 76, 62
1, 143682, Note_off_c, 0, 88, 63
1, 143718, Note_off_c, 0, 80, 63
1, 143764, Note_on_c, 0, 59, 72
1, 143766, Note_on_c, 0, 47, 67
1, 143790, Note_off_c, 0, 59, 68
1, 143798, Note_off_c, 0, 47, 63
1, 143838, Note_on_c, 0, 87, 82
1, 143840, Note_on_c, 0, 78, 77
1, 143842, Note_on_c, 0, 75, 69
1, 143857, Note_off_c, 0, 87, 71
1, 143861, Note_off_c, 0, 78, 68
1, 143867, Note_off_c, 0, 75, 66
1, 143908, Note_on_c, 0, 87, 82
1, 143912, Note_on_c, 0, 78, 88
1, 143915, Note_on_c, 0, 75, 86
1, 143925, Note_on_c, 0, 59, 66
1, 143932, Note_on_c, 0, 66, 74
1, 143932, Note_on_c, 0, 69, 66
1, 143936, Note_off_c, 0, 75, 68
1, 143950, Note_off_c, 0, 78, 64
1, 143951, Note_off_c, 0, 87, 67
1, 143968, Note_off_c, 0, 66, 66
1, 143969, Note_off_c, 0, 69, 65
1, 143976, Note_off_c, 0, 59, 62
1, 144089, Note_on_c, 0, 59, 64
1, 144091, Note_on_c, 0, 66, 73
1, 144094, Note_on_c, 0, 69, 58
1, 144100, Control_c, 0, 64, 93
1, 144104, Note_on_c, 0, 85, 78
1, 144106, Note_on_c, 0, 73, 73
1, 144113, Note_on_c, 0, 76, 56
1, 144114, Note_off_c, 0, 59, 64
1, 144114, Control_c, 0, 64, 74
1, 144115, Note_off_c, 0, 69, 63
1, 144116, Note_off_c, 0, 66, 68
1, 144120, Note_off_c, 0, 73, 68
1, 144129, Control_c, 0, 64, 0
1, 144131, Note_off_c, 0, 76, 62
1, 144131, Note_off_c, 0, 85, 63
1, 144177, Note_on_c, 0, 69, 73
1, 144181, Note_on_c, 0, 66, 81
1, 144191, Note_on_c, 0, 59, 58
1, 144205, Note_off_c, 0, 69, 66
1, 144206, Note_off_c, 0, 66, 69
1, 144220, Note_off_c, 0, 59, 65
1, 144251, Note_on_c, 0, 75, 87
1, 144251, Note_on_c, 0, 87, 88
1, 144256, Note_on_c, 0, 69, 76
1, 144256, Note_on_c, 0, 78, 78
1, 144258, Note_on_c, 0, 66, 84
1, 144269, Note_off_c, 0, 75, 72
1, 144270, Note_off_c, 0, 87, 69
1, 144272, Note_on_c, 0, 59, 62
1, 144276, Note_off_c, 0, 78, 68
1, 144286, Note_off_c, 0, 66, 64
1, 144287, Note_off_c, 0, 69, 67
1, 144300, Note_off_c, 0, 59, 67
1, 144416, Note_on_c, 0, 59, 60
1, 144416, Note_on_c, 0, 66, 66
1, 144421, Note_on_c, 0, 83, 87
1, 144428, Note_on_c, 0, 71, 73
1, 144428, Note_on_c, 0, 75, 76
1, 144444, Note_off_c, 0, 66, 66
1, 144446, Note_off_c, 0, 83, 64
1, 144450, Note_off_c, 0, 59, 65
1, 144450, Note_off_c, 0, 75, 70
1, 144454, Note_off_c, 0, 71, 65
1, 144560, Control_c, 0, 64, 66
1, 144575, Control_c, 0, 64, 127
1, 144580, Note_on_c, 0, 88, 97
1, 144585, Note_on_c, 0, 76, 91
1, 144587, Note_on_c, 0, 52, 86
1, 144590, Note_on_c, 0, 40, 79
1, 144591, Note_on_c, 0, 80, 89
1, 144606, Note_off_c, 0, 76, 69
1, 144610, Note_off_c, 0, 52, 69
1, 144611, Note_off_c, 0, 88, 67
1, 144614, Note_off_c, 0, 80, 67
1, 144618, Note_off_c, 0, 40, 65
1, 144745, Control_c, 0, 64, 89
1, 144755, Note_on_c, 0, 56, 71
1, 144756, Note_on_c, 0, 68, 83
1, 144756, Note_on_c, 0, 76, 75
1, 144760, Control_c, 0, 64, 65
1, 144762, Note_on_c, 0, 64, 61
1, 144767, Note_on_c, 0, 71, 57
1, 144774, Note_on_c, 0, 59, 41
1, 144775, Control_c, 0, 64, 0
1, 144777, Note_off_c, 0, 68, 71
1, 144785, Note_off_c, 0, 64, 60
1, 144787, Note_off_c, 0, 56, 65
1, 144787, Note_off_c, 0, 71, 63
1, 144803, Note_off_c, 0, 59, 51
1, 144805, Note_off_c, 0, 76, 62
1, 144923, Control_c, 0, 64, 49
1, 144925, Note_on_c, 0, 88, 95
1, 144925, Note_on_c, 0, 49, 89
1, 144926, Note_on_c, 0, 76, 95
1, 144931, Note_on_c, 0, 80, 90
1, 144937, Note_on_c, 0, 37, 68
1, 144939, Control_c, 0, 64, 127
1, 144953, Note_off_c, 0, 49, 64
1, 144955, Note_off_c, 0, 76, 64
1, 144961, Note_off_c, 0, 88, 64
1, 144963, Note_off_c, 0, 37, 67
1, 144968, Note_off_c, 0, 80, 63
1, 145097, Note_on_c, 0, 76, 70
1, 145099, Note_on_c, 0, 68, 73
1, 145100, Note_on_c, 0, 73, 73
1, 145113, Note_on_c, 0, 61, 47
1, 145119, Note_off_c, 0, 76, 70
1, 145125, Note_off_c, 0, 68, 68
1, 145125, Note_off_c, 0, 73, 68
1, 145134, Note_on_c, 0, 57, 39
1, 145142, Note_off_c, 0, 61, 54
1, 145164, Note_off_c, 0, 57, 46
1, 145176, Note_on_c, 0, 76, 89
1, 145180, Note_on_c, 0, 73, 81
1, 145181, Note_on_c, 0, 68, 80
1, 145197, Note_off_c, 0, 76, 66
1, 145198, Note_off_c, 0, 73, 73
1, 145208, Note_off_c, 0, 68, 67
1, 145250, Note_on_c, 0, 73, 91
1, 145253, Note_on_c, 0, 68, 85
1, 145253, Note_on_c, 0, 76, 90
1, 145261, Note_on_c, 0, 46, 82
1, 145273, Note_off_c, 0, 68, 71
1, 145278, Note_on_c, 0, 34, 54
1, 145285, Note_off_c, 0, 73, 66
1, 145289, Note_off_c, 0, 46, 68
1, 145292, Note_off_c, 0, 76, 66
1, 145313, Note_off_c, 0, 34, 51
1, 145435, Note_on_c, 0, 78, 99
1, 145436, Note_on_c, 0, 90, 95
1, 145444, Note_on_c, 0, 85, 81
1, 145459, Note_on_c, 0, 64, 75
1, 145461, Note_on_c, 0, 54, 73
1, 145463, Note_on_c, 0, 61, 69
1, 145477, Note_off_c, 0, 85, 67
1, 145485, Note_off_c, 0, 64, 69
1, 145492, Note_off_c, 0, 61, 66
1, 145494, Note_off_c, 0, 90, 62
1, 145514, Note_off_c, 0, 78, 56
1, 145519, Note_off_c, 0, 54, 62
1, 145702, Control_c, 0, 64, 89
1, 145717, Control_c, 0, 64, 66
1, 145733, Control_c, 0, 64, 0
1, 145735, Note_on_c, 0, 35, 70
1, 145735, Note_on_c, 0, 47, 61
1, 145744, Note_on_c, 0, 88, 98
1, 145748, Note_on_c, 0, 76, 90
1, 145751, Note_on_c, 0, 80, 90
1, 145768, Note_off_c, 0, 35, 62
1, 145777, Control_c, 0, 64, 62
1, 145778, Note_off_c, 0, 47, 61
1, 145792, Control_c, 0, 64, 71
1, 145807, Control_c, 0, 64, 83
1, 145822, Control_c, 0, 64, 98
1, 145837, Control_c, 0, 64, 110
1, 145852, Control_c, 0, 64, 115
1, 145866, Control_c, 0, 64, 120
1, 145881, Control_c, 0, 64, 127
1, 145894, Note_off_c, 0, 76, 61
1, 145898, Note_off_c, 0, 88, 62
1, 145924, Note_off_c, 0, 80, 63
1, 145946, Note_on_c, 0, 60, 68
1, 145948, Note_on_c, 0, 48, 67
1, 145975, Note_off_c, 0, 60, 67
1, 145978, Note_off_c, 0, 48, 64
1, 146016, Note_on_c, 0, 87, 81
1, 146018, Note_on_c, 0, 78, 83
1, 146023, Note_on_c, 0, 75, 69
1, 146037, Note_off_c, 0, 87, 72
1, 146038, Note_off_c, 0, 78, 71
1, 146040, Note_off_c, 0, 75, 67
1, 146057, Control_c, 0, 64, 104
1, 146072, Control_c, 0, 64, 81
1, 146087, Control_c, 0, 64, 63
1, 146089, Note_on_c, 0, 87, 97
1, 146091, Note_on_c, 0, 78, 87
1, 146094, Note_on_c, 0, 75, 85
1, 146100, Note_on_c, 0, 66, 76
1, 146101, Control_c, 0, 64, 30
1, 146102, Note_on_c, 0, 59, 64
1, 146102, Note_on_c, 0, 69, 68
1, 146116, Control_c, 0, 64, 63
1, 146131, Control_c, 0, 64, 72
1, 146132, Note_off_c, 0, 69, 64
1, 146133, Note_off_c, 0, 66, 65
1, 146146, Control_c, 0, 64, 88
1, 146160, Note_off_c, 0, 59, 60
1, 146161, Control_c, 0, 64, 115
1, 146175, Control_c, 0, 64, 127
1, 146179, Note_off_c, 0, 75, 61
1, 146180, Note_off_c, 0, 78, 62
1, 146182, Note_off_c, 0, 87, 65
1, 146230, Poly_aftertouch_c, 0, 85, 0
1, 146266, Note_on_c, 0, 66, 76
1, 146270, Note_on_c, 0, 59, 70
1, 146270, Note_on_c, 0, 69, 67
1, 146289, Note_off_c, 0, 66, 70
1, 146294, Note_on_c, 0, 85, 84
1, 146296, Note_off_c, 0, 59, 67
1, 146297, Note_on_c, 0, 73, 79
1, 146297, Note_off_c, 0, 69, 66
1, 146302, Note_on_c, 0, 76, 72
1, 146327, Note_off_c, 0, 76, 68
1, 146330, Note_off_c, 0, 73, 59
1, 146349, Note_on_c, 0, 69, 75
1, 146353, Note_on_c, 0, 66, 87
1, 146357, Note_off_c, 0, 85, 63
1, 146368, Note_on_c, 0, 59, 53
1, 146375, Note_off_c, 0, 66, 70
1, 146377, Note_off_c, 0, 69, 66
1, 146393, Note_off_c, 0, 59, 61
1, 146437, Note_on_c, 0, 69, 69
1, 146439, Note_on_c, 0, 87, 97
1, 146443, Note_on_c, 0, 75, 96
1, 146447, Note_on_c, 0, 66, 77
1, 146447, Note_on_c, 0, 78, 84
1, 146458, Note_off_c, 0, 69, 72
1, 146459, Note_on_c, 0, 59, 62
1, 146472, Note_off_c, 0, 66, 67
1, 146481, Note_off_c, 0, 59, 70
1, 146497, Note_on_c, 0, 85, 25
1, 146529, Note_off_c, 0, 78, 60
1, 146557, Note_off_c, 0, 75, 60
1, 146565, Note_off_c, 0, 85, 41
1, 146566, Note_off_c, 0, 87, 62
1, 146613, Control_c, 0, 64, 118
1, 146628, Control_c, 0, 64, 86
1, 146643, Control_c, 0, 64, 60
1, 146658, Note_on_c, 0, 47, 73
1, 146658, Control_c, 0, 64, 0
1, 146661, Note_on_c, 0, 88, 98
1, 146666, Note_on_c, 0, 76, 94
1, 146667, Note_on_c, 0, 35, 68
1, 146669, Note_on_c, 0, 80, 89
1, 146687, Control_c, 0, 64, 44
1, 146702, Control_c, 0, 64, 66
1, 146717, Control_c, 0, 64, 76
1, 146732, Control_c, 0, 64, 95
1, 146747, Control_c, 0, 64, 112
1, 146762, Control_c, 0, 64, 127
1, 146765, Note_off_c, 0, 35, 59
1, 146773, Note_off_c, 0, 76, 62
1, 146774, Note_off_c, 0, 88, 63
1, 146789, Note_off_c, 0, 47, 60
1, 146799, Note_off_c, 0, 80, 64
1, 146877, Note_on_c, 0, 48, 78
1, 146878, Note_on_c, 0, 36, 78
1, 146880, Note_on_c, 0, 87, 101
1, 146881, Note_on_c, 0, 75, 99
1, 146884, Note_on_c, 0, 78, 96
1, 146917, Note_off_c, 0, 48, 61
1, 146930, Note_off_c, 0, 36, 60
1, 146982, Note_off_c, 0, 87, 63
1, 146984, Note_off_c, 0, 75, 59
1, 147001, Note_off_c, 0, 78, 60
1, 147060, Note_on_c, 0, 49, 81
1, 147064, Note_on_c, 0, 37, 69
1, 147092, Note_off_c, 0, 49, 60
1, 147092, Note_off_c, 0, 37, 64
1, 147149, Note_on_c, 0, 73, 83
1, 147149, Note_on_c, 0, 85, 86
1, 147153, Note_on_c, 0, 76, 73
1, 147154, Control_c, 0, 64, 110
1, 147169, Control_c, 0, 64, 86
1, 147170, Note_off_c, 0, 73, 72
1, 147170, Note_off_c, 0, 85, 72
1, 147178, Note_off_c, 0, 76, 67
1, 147184, Control_c, 0, 64, 65
1, 147199, Control_c, 0, 64, 0
1, 147206, Note_on_c, 0, 57, 85
1, 147209, Note_on_c, 0, 45, 88
1, 147211, Note_on_c, 0, 85, 95
1, 147215, Note_on_c, 0, 76, 87
1, 147219, Note_on_c, 0, 73, 87
1, 147228, Note_off_c, 0, 57, 70
1, 147238, Note_off_c, 0, 73, 72
1, 147241, Note_off_c, 0, 45, 65
1, 147241, Note_off_c, 0, 76, 66
1, 147257, Note_off_c, 0, 85, 64
1, 147408, Note_on_c, 0, 87, 95
1, 147409, Note_on_c, 0, 75, 89
1, 147417, Note_on_c, 0, 42, 83
1, 147417, Note_on_c, 0, 54, 82
1, 147417, Note_on_c, 0, 78, 83
1, 147426, Note_off_c, 0, 75, 73
1, 147435, Note_off_c, 0, 78, 70
1, 147439, Note_off_c, 0, 87, 56
1, 147444, Note_off_c, 0, 54, 65
1, 147450, Note_off_c, 0, 42, 63
1, 147623, Note_on_c, 0, 73, 101
1, 147623, Note_on_c, 0, 56, 85
1, 147624, Note_on_c, 0, 85, 94
1, 147625, Note_on_c, 0, 44, 86
1, 147630, Note_on_c, 0, 76, 81
1, 147644, Note_off_c, 0, 56, 71
1, 147650, Note_off_c, 0, 76, 72
1, 147653, Note_off_c, 0, 73, 63
1, 147662, Note_off_c, 0, 44, 57
1, 147668, Note_off_c, 0, 85, 59
1, 147866, Note_on_c, 0, 84, 97
1, 147868, Note_on_c, 0, 72, 104
1, 147872, Note_on_c, 0, 44, 79
1, 147872, Note_on_c, 0, 75, 87
1, 147873, Note_on_c, 0, 32, 76
1, 147887, Note_off_c, 0, 72, 73
1, 147897, Note_off_c, 0, 75, 60
1, 147899, Note_off_c, 0, 32, 65
1, 147906, Note_off_c, 0, 44, 61
1, 147912, Note_off_c, 0, 84, 63
1, 147921, Note_on_c, 0, 82, 10
1, 147922, Note_off_c, 0, 82, 127
1, 148131, Note_on_c, 0, 85, 101
1, 148136, Note_on_c, 0, 76, 87
1, 148137, Note_on_c, 0, 73, 94
1, 148141, Control_c, 0, 64, 77
1, 148144, Note_on_c, 0, 49, 94
1, 148150, Note_on_c, 0, 37, 82
1, 148156, Control_c, 0, 64, 127
1, 148160, Note_off_c, 0, 76, 68
1, 148171, Note_off_c, 0, 73, 63
1, 148172, Note_off_c, 0, 85, 68
1, 148177, Note_off_c, 0, 37, 65
1, 148185, Note_off_c, 0, 49, 62
1, 148383, Note_on_c, 0, 52, 54
1, 148383, Note_on_c, 0, 56, 70
1, 148396, Note_on_c, 0, 68, 75
1, 148410, Note_on_c, 0, 64, 59
1, 148414, Note_off_c, 0, 56, 67
1, 148420, Note_off_c, 0, 52, 58
1, 148421, Note_off_c, 0, 68, 69
1, 148422, Note_on_c, 0, 61, 26
1, 148431, Note_off_c, 0, 64, 63
1, 148467, Note_off_c, 0, 61, 46
1, 148483, Note_on_c, 0, 56, 71
1, 148489, Note_on_c, 0, 68, 83
1, 148495, Note_on_c, 0, 64, 77
1, 148499, Poly_aftertouch_c, 0, 65, 0
1, 148507, Note_off_c, 0, 68, 74
1, 148510, Note_off_c, 0, 56, 66
1, 148517, Note_off_c, 0, 64, 69
1, 148532, Control_c, 0, 64, 115
1, 148547, Control_c, 0, 64, 81
1, 148552, Note_on_c, 0, 61, 73
1, 148562, Note_on_c, 0, 73, 97
1, 148562, Control_c, 0, 64, 0
1, 148571, Note_on_c, 0, 68, 87
1, 148572, Note_on_c, 0, 56, 65
1, 148576, Note_on_c, 0, 64, 81
1, 148607, Control_c, 0, 64, 36
1, 148608, Note_off_c, 0, 56, 60
1, 148622, Control_c, 0, 64, 69
1, 148622, Note_off_c, 0, 64, 54
1, 148636, Control_c, 0, 64, 94
1, 148651, Control_c, 0, 64, 127
1, 148662, Note_off_c, 0, 61, 36
1, 148689, Note_off_c, 0, 68, 57
1, 148780, Note_off_c, 0, 73, 57
1, 148785, Note_on_c, 0, 64, 69
1, 148785, Note_on_c, 0, 68, 83
1, 148786, Note_on_c, 0, 61, 76
1, 148789, Note_on_c, 0, 56, 55
1, 148802, Note_on_c, 0, 52, 50
1, 148843, Control_c, 0, 64, 112
1, 148858, Control_c, 0, 64, 83
1, 148873, Control_c, 0, 64, 57
1, 148888, Control_c, 0, 64, 0
1, 148903, Note_off_c, 0, 61, 50
1, 148918, Control_c, 0, 64, 63
1, 148927, Note_off_c, 0, 68, 60
1, 148933, Note_off_c, 0, 56, 53
1, 148934, Note_off_c, 0, 64, 62
1, 148934, Control_c, 0, 64, 77
1, 148949, Control_c, 0, 64, 104
1, 148964, Control_c, 0, 64, 127
1, 149008, Control_c, 0, 67, 9
1, 149013, Note_on_c, 0, 73, 79
1, 149020, Note_on_c, 0, 68, 76
1, 149023, Control_c, 0, 67, 10
1, 149028, Note_on_c, 0, 61, 57
1, 149031, Note_on_c, 0, 56, 50
1, 149036, Note_on_c, 0, 64, 53
1, 149038, Control_c, 0, 67, 11
1, 149052, Control_c, 0, 67, 12
1, 149057, Note_off_c, 0, 64, 65
1, 149063, Note_off_c, 0, 61, 60
1, 149074, Note_off_c, 0, 56, 59
1, 149082, Control_c, 0, 67, 12
1, 149090, Note_off_c, 0, 68, 60
1, 149112, Control_c, 0, 67, 13
1, 149120, Note_off_c, 0, 73, 61
1, 149126, Control_c, 0, 67, 13
1, 149141, Control_c, 0, 67, 14
1, 149156, Control_c, 0, 67, 14
1, 149179, Note_off_c, 0, 52, 35
1, 149186, Control_c, 0, 67, 15
1, 149271, Note_on_c, 0, 76, 73
1, 149276, Note_on_c, 0, 68, 67
1, 149285, Note_on_c, 0, 61, 19
1, 149288, Note_on_c, 0, 64, 51
1, 149293, Note_on_c, 0, 73, 58
1, 149297, Control_c, 0, 67, 14
1, 149316, Note_off_c, 0, 68, 59
1, 149333, Note_off_c, 0, 61, 53
1, 149337, Note_off_c, 0, 64, 59
1, 149341, Control_c, 0, 67, 15
1, 149363, Note_off_c, 0, 76, 54
1, 149370, Control_c, 0, 67, 15
1, 149385, Control_c, 0, 67, 16
1, 149400, Control_c, 0, 67, 19
1, 149415, Control_c, 0, 67, 24
1, 149430, Note_off_c, 0, 73, 36
1, 149430, Control_c, 0, 67, 34
1, 149445, Control_c, 0, 67, 42
1, 149459, Control_c, 0, 67, 50
1, 149474, Control_c, 0, 67, 60
1, 149489, Control_c, 0, 67, 71
1, 149504, Control_c, 0, 67, 86
1, 149519, Control_c, 0, 67, 102
1, 149534, Control_c, 0, 67, 121
1, 149549, Control_c, 0, 67, 127
1, 149593, Control_c, 0, 64, 94
1, 149608, Control_c, 0, 64, 74
1, 149623, Control_c, 0, 64, 0
1, 149627, Note_on_c, 0, 68, 44
1, 149629, Note_on_c, 0, 64, 38
1, 149667, Control_c, 0, 64, 42
1, 149682, Control_c, 0, 64, 64
1, 149697, Control_c, 0, 64, 70
1, 149712, Control_c, 0, 64, 80
1, 149728, Control_c, 0, 64, 94
1, 149742, Control_c, 0, 64, 106
1, 149757, Control_c, 0, 64, 114
1, 149772, Control_c, 0, 64, 127
1, 149808, Note_on_c, 0, 80, 64
1, 149819, Note_on_c, 0, 73, 47
1, 149823, Note_on_c, 0, 76, 46
1, 149877, Note_off_c, 0, 73, 52
1, 149904, Note_off_c, 0, 76, 55
1, 149906, Note_off_c, 0, 64, 43
1, 149912, Note_off_c, 0, 80, 59
1, 149976, Note_off_c, 0, 68, 36
1, 150012, Note_on_c, 0, 73, 47
1, 150012, Note_on_c, 0, 79, 61
1, 150036, Note_on_c, 0, 76, 37
1, 150048, Note_off_c, 0, 73, 55
1, 150068, Note_off_c, 0, 76, 52
1, 150091, Note_off_c, 0, 79, 62
1, 150166, Note_on_c, 0, 80, 71
1, 150168, Note_on_c, 0, 76, 48
1, 150180, Note_on_c, 0, 73, 43
1, 150212, Note_off_c, 0, 73, 57
1, 150218, Note_off_c, 0, 76, 60
1, 150234, Note_off_c, 0, 80, 62
1, 150300, Note_on_c, 0, 81, 76
1, 150303, Note_on_c, 0, 73, 56
1, 150311, Note_on_c, 0, 76, 63
1, 150319, Note_on_c, 0, 80, 34
1, 150330, Note_off_c, 0, 73, 64
1, 150342, Note_off_c, 0, 76, 66
1, 150346, Note_off_c, 0, 81, 64
1, 150351, Note_off_c, 0, 80, 48
1, 150411, Note_on_c, 0, 82, 78
1, 150421, Note_on_c, 0, 73, 58
1, 150422, Note_on_c, 0, 76, 57
1, 150443, Note_off_c, 0, 73, 65
1, 150451, Note_off_c, 0, 82, 62
1, 150452, Note_off_c, 0, 76, 67
1, 150514, Note_on_c, 0, 83, 80
1, 150518, Note_on_c, 0, 73, 67
1, 150526, Note_on_c, 0, 76, 59
1, 150543, Note_off_c, 0, 76, 64
1, 150545, Note_off_c, 0, 73, 67
1, 150547, Note_off_c, 0, 83, 62
1, 150622, Note_on_c, 0, 84, 88
1, 150624, Note_on_c, 0, 76, 65
1, 150632, Note_on_c, 0, 80, 77
1, 150653, Note_off_c, 0, 76, 67
1, 150656, Note_off_c, 0, 80, 69
1, 150661, Note_off_c, 0, 84, 61
1, 150714, Note_on_c, 0, 64, 53
1, 150721, Note_on_c, 0, 73, 59
1, 150723, Note_on_c, 0, 68, 51
1, 150739, Note_on_c, 0, 85, 87
1, 150745, Note_on_c, 0, 76, 62
1, 150746, Note_on_c, 0, 80, 60
1, 150759, Note_off_c, 0, 73, 58
1, 150773, Note_off_c, 0, 76, 67
1, 150780, Note_off_c, 0, 64, 60
1, 150783, Note_off_c, 0, 68, 60
1, 150810, Control_c, 0, 64, 97
1, 150822, Note_off_c, 0, 80, 62
1, 150824, Control_c, 0, 64, 72
1, 150839, Control_c, 0, 64, 0
1, 150854, Note_off_c, 0, 85, 60
1, 150854, Control_c, 0, 67, 126
1, 150869, Control_c, 0, 64, 38
1, 150869, Control_c, 0, 67, 115
1, 150884, Control_c, 0, 64, 65
1, 150884, Control_c, 0, 67, 103
1, 150892, Note_on_c, 0, 73, 64
1, 150893, Note_on_c, 0, 66, 62
1, 150898, Control_c, 0, 64, 74
1, 150898, Control_c, 0, 67, 88
1, 150902, Note_on_c, 0, 63, 50
1, 150913, Control_c, 0, 64, 91
1, 150913, Control_c, 0, 67, 72
1, 150928, Control_c, 0, 64, 127
1, 150928, Control_c, 0, 67, 57
1, 150938, Note_off_c, 0, 66, 60
1, 150938, Note_off_c, 0, 63, 63
1, 150941, Note_off_c, 0, 73, 55
1, 150943, Control_c, 0, 67, 40
1, 150958, Control_c, 0, 67, 27
1, 150972, Control_c, 0, 67, 16
1, 150987, Control_c, 0, 67, 0
1, 151021, Note_on_c, 0, 63, 61
1, 151021, Note_on_c, 0, 72, 65
1, 151037, Note_on_c, 0, 66, 49
1, 151057, Note_off_c, 0, 72, 62
1, 151063, Note_off_c, 0, 63, 56
1, 151069, Note_off_c, 0, 66, 61
1, 151096, Note_on_c, 0, 93, 83
1, 151104, Note_on_c, 0, 81, 79
1, 151179, Note_on_c, 0, 63, 59
1, 151185, Note_on_c, 0, 66, 55
1, 151203, Note_on_c, 0, 71, 42
1, 151221, Note_off_c, 0, 63, 59
1, 151221, Note_off_c, 0, 66, 62
1, 151231, Note_off_c, 0, 71, 54
1, 151304, Note_on_c, 0, 63, 63
1, 151308, Note_on_c, 0, 66, 61
1, 151316, Note_on_c, 0, 72, 59
1, 151340, Note_off_c, 0, 72, 58
1, 151344, Note_off_c, 0, 63, 60
1, 151353, Note_off_c, 0, 66, 60
1, 151385, Note_off_c, 0, 81, 61
1, 151391, Note_off_c, 0, 93, 51
1, 151434, Note_on_c, 0, 63, 58
1, 151455, Note_on_c, 0, 66, 61
1, 151455, Note_on_c, 0, 73, 53
1, 151485, Note_off_c, 0, 63, 59
1, 151486, Note_off_c, 0, 73, 66
1, 151487, Note_off_c, 0, 66, 63
1, 151519, Note_on_c, 0, 92, 83
1, 151525, Note_on_c, 0, 80, 72
1, 151562, Note_off_c, 0, 80, 59
1, 151578, Note_off_c, 0, 92, 62
1, 151590, Note_on_c, 0, 66, 60
1, 151590, Note_on_c, 0, 72, 70
1, 151591, Note_on_c, 0, 63, 58
1, 151619, Note_off_c, 0, 72, 67
1, 151623, Note_off_c, 0, 63, 63
1, 151628, Note_off_c, 0, 66, 63
1, 151698, Note_on_c, 0, 71, 71
1, 151698, Note_on_c, 0, 63, 69
1, 151710, Note_on_c, 0, 66, 63
1, 151725, Note_off_c, 0, 71, 68
1, 151731, Note_off_c, 0, 63, 62
1, 151740, Note_off_c, 0, 66, 66
1, 151808, Note_on_c, 0, 63, 58
1, 151817, Note_on_c, 0, 66, 63
1, 151835, Note_off_c, 0, 63, 63
1, 151836, Note_on_c, 0, 69, 23
1, 151849, Note_off_c, 0, 66, 65
1, 151875, Note_off_c, 0, 69, 41
1, 151895, Poly_aftertouch_c, 0, 71, 0
1, 151917, Note_on_c, 0, 63, 53
1, 151920, Note_on_c, 0, 68, 61
1, 151933, Note_on_c, 0, 72, 73
1, 151935, Note_on_c, 0, 80, 67
1, 151959, Note_off_c, 0, 68, 62
1, 151969, Note_off_c, 0, 63, 57
1, 151984, Poly_aftertouch_c, 0, 66, 127
1, 152026, Poly_aftertouch_c, 0, 66, 0
1, 152026, Note_off_c, 0, 72, 47
1, 152059, Note_on_c, 0, 64, 55
1, 152065, Note_off_c, 0, 80, 53
1, 152065, Note_on_c, 0, 68, 57
1, 152076, Control_c, 0, 64, 101
1, 152091, Control_c, 0, 64, 78
1, 152106, Control_c, 0, 64, 43
1, 152122, Control_c, 0, 64, 0
1, 152151, Control_c, 0, 64, 60
1, 152166, Control_c, 0, 64, 69
1, 152181, Control_c, 0, 64, 82
1, 152203, Control_c, 0, 64, 104
1, 152213, Note_on_c, 0, 80, 65
1, 152218, Control_c, 0, 64, 127
1, 152227, Note_on_c, 0, 76, 55
1, 152243, Note_on_c, 0, 73, 42
1, 152249, Note_off_c, 0, 64, 50
1, 152285, Note_off_c, 0, 73, 47
1, 152301, Note_off_c, 0, 68, 43
1, 152306, Note_off_c, 0, 80, 61
1, 152309, Note_off_c, 0, 76, 60
1, 152387, Note_on_c, 0, 73, 50
1, 152387, Note_on_c, 0, 79, 65
1, 152395, Note_on_c, 0, 76, 50
1, 152423, Note_off_c, 0, 73, 61
1, 152437, Note_off_c, 0, 76, 61
1, 152447, Note_off_c, 0, 79, 63
1, 152511, Note_on_c, 0, 80, 71
1, 152515, Note_on_c, 0, 73, 54
1, 152524, Note_on_c, 0, 76, 59
1, 152544, Note_off_c, 0, 73, 61
1, 152552, Note_off_c, 0, 76, 68
1, 152568, Note_off_c, 0, 80, 64
1, 152628, Note_on_c, 0, 81, 81
1, 152629, Note_on_c, 0, 76, 64
1, 152632, Note_on_c, 0, 73, 60
1, 152659, Note_off_c, 0, 73, 66
1, 152661, Note_off_c, 0, 76, 66
1, 152667, Note_off_c, 0, 81, 65
1, 152729, Note_on_c, 0, 82, 81
1, 152735, Note_on_c, 0, 73, 70
1, 152740, Note_on_c, 0, 76, 62
1, 152762, Note_off_c, 0, 73, 67
1, 152767, Note_off_c, 0, 76, 67
1, 152770, Note_off_c, 0, 82, 60
1, 152825, Note_on_c, 0, 73, 75
1, 152831, Note_on_c, 0, 76, 67
1, 152831, Note_on_c, 0, 83, 74
1, 152849, Note_off_c, 0, 73, 69
1, 152854, Note_off_c, 0, 76, 69
1, 152855, Note_off_c, 0, 83, 72
1, 152929, Note_on_c, 0, 76, 76
1, 152930, Note_on_c, 0, 84, 88
1, 152948, Note_on_c, 0, 80, 73
1, 152962, Note_off_c, 0, 84, 66
1, 152962, Note_off_c, 0, 76, 68
1, 152972, Note_off_c, 0, 80, 68
1, 153017, Note_on_c, 0, 64, 62
1, 153024, Note_on_c, 0, 73, 64
1, 153031, Note_on_c, 0, 68, 55
1, 153031, Note_on_c, 0, 76, 84
1, 153033, Note_on_c, 0, 80, 79
1, 153036, Note_on_c, 0, 85, 89
1, 153054, Note_off_c, 0, 76, 69
1, 153060, Note_off_c, 0, 73, 60
1, 153069, Note_off_c, 0, 64, 61
1, 153070, Note_off_c, 0, 68, 64
1, 153086, Control_c, 0, 64, 93
1, 153090, Note_off_c, 0, 80, 59
1, 153100, Control_c, 0, 64, 68
1, 153111, Note_off_c, 0, 85, 63
1, 153115, Control_c, 0, 64, 0
1, 153159, Control_c, 0, 64, 59
1, 153162, Note_on_c, 0, 63, 63
1, 153164, Note_on_c, 0, 73, 66
1, 153172, Note_on_c, 0, 66, 57
1, 153174, Control_c, 0, 64, 72
1, 153189, Control_c, 0, 64, 93
1, 153193, Note_off_c, 0, 73, 65
1, 153200, Note_off_c, 0, 63, 61
1, 153204, Control_c, 0, 64, 127
1, 153206, Note_off_c, 0, 66, 65
1, 153275, Note_on_c, 0, 72, 65
1, 153293, Note_on_c, 0, 63, 54
1, 153303, Note_on_c, 0, 66, 46
1, 153306, Note_off_c, 0, 72, 66
1, 153326, Note_off_c, 0, 63, 63
1, 153337, Note_off_c, 0, 66, 54
1, 153346, Note_on_c, 0, 93, 83
1, 153353, Note_on_c, 0, 81, 88
1, 153423, Note_on_c, 0, 66, 64
1, 153425, Note_on_c, 0, 63, 57
1, 153446, Note_on_c, 0, 71, 44
1, 153466, Note_off_c, 0, 63, 59
1, 153473, Note_off_c, 0, 71, 55
1, 153478, Note_off_c, 0, 66, 63
1, 153546, Note_on_c, 0, 63, 67
1, 153554, Note_on_c, 0, 72, 66
1, 153560, Note_on_c, 0, 66, 64
1, 153571, Note_off_c, 0, 93, 61
1, 153576, Note_off_c, 0, 72, 64
1, 153585, Note_off_c, 0, 63, 57
1, 153597, Note_off_c, 0, 81, 59
1, 153598, Note_off_c, 0, 66, 63
1, 153668, Note_on_c, 0, 63, 66
1, 153668, Note_on_c, 0, 73, 64
1, 153685, Note_on_c, 0, 66, 58
1, 153707, Note_off_c, 0, 73, 65
1, 153716, Note_off_c, 0, 63, 60
1, 153729, Note_off_c, 0, 66, 63
1, 153748, Note_on_c, 0, 90, 87
1, 153758, Note_on_c, 0, 78, 75
1, 153785, Note_off_c, 0, 78, 67
1, 153796, Note_off_c, 0, 90, 64
1, 153809, Note_on_c, 0, 63, 62
1, 153817, Note_on_c, 0, 75, 71
1, 153825, Note_on_c, 0, 66, 61
1, 153839, Note_off_c, 0, 75, 69
1, 153857, Note_off_c, 0, 66, 65
1, 153860, Note_off_c, 0, 63, 54
1, 153926, Note_on_c, 0, 73, 72
1, 153929, Note_on_c, 0, 69, 61
1, 153936, Note_on_c, 0, 66, 67
1, 153955, Note_off_c, 0, 73, 62
1, 153958, Note_off_c, 0, 69, 65
1, 153966, Note_off_c, 0, 66, 66
1, 154023, Note_on_c, 0, 72, 77
1, 154027, Note_on_c, 0, 69, 60
1, 154051, Note_off_c, 0, 72, 66
1, 154053, Note_on_c, 0, 66, 53
1, 154057, Note_off_c, 0, 69, 62
1, 154076, Note_off_c, 0, 66, 61
1, 154147, Note_on_c, 0, 69, 53
1, 154150, Note_on_c, 0, 71, 61
1, 154151, Note_on_c, 0, 66, 62
1, 154152, Note_on_c, 0, 83, 78
1, 154165, Note_on_c, 0, 75, 55
1, 154179, Note_on_c, 0, 78, 49
1, 154184, Note_off_c, 0, 71, 65
1, 154190, Note_off_c, 0, 69, 60
1, 154196, Note_off_c, 0, 66, 61
1, 154208, Note_off_c, 0, 75, 56
1, 154235, Control_c, 0, 64, 119
1, 154249, Note_off_c, 0, 78, 44
1, 154249, Control_c, 0, 64, 91
1, 154264, Control_c, 0, 64, 66
1, 154276, Note_on_c, 0, 71, 61
1, 154279, Control_c, 0, 64, 0
1, 154283, Note_on_c, 0, 68, 61
1, 154300, Note_off_c, 0, 83, 62
1, 154353, Control_c, 0, 64, 45
1, 154367, Control_c, 0, 64, 66
1, 154382, Control_c, 0, 64, 76
1, 154397, Control_c, 0, 64, 87
1, 154412, Control_c, 0, 64, 97
1, 154424, Note_on_c, 0, 83, 69
1, 154427, Control_c, 0, 64, 106
1, 154434, Note_on_c, 0, 76, 58
1, 154449, Control_c, 0, 64, 127
1, 154455, Note_on_c, 0, 80, 51
1, 154479, Note_off_c, 0, 76, 62
1, 154479, Note_off_c, 0, 80, 59
1, 154487, Note_off_c, 0, 83, 66
1, 154488, Note_off_c, 0, 71, 59
1, 154530, Note_off_c, 0, 68, 56
1, 154568, Note_on_c, 0, 82, 71
1, 154571, Note_on_c, 0, 76, 56
1, 154576, Note_on_c, 0, 80, 51
1, 154608, Note_off_c, 0, 80, 65
1, 154609, Note_off_c, 0, 76, 64
1, 154610, Note_off_c, 0, 82, 64
1, 154687, Note_on_c, 0, 83, 78
1, 154690, Note_on_c, 0, 76, 68
1, 154700, Note_on_c, 0, 80, 55
1, 154721, Note_off_c, 0, 76, 60
1, 154727, Note_off_c, 0, 80, 66
1, 154732, Note_off_c, 0, 83, 67
1, 154806, Note_on_c, 0, 84, 80
1, 154811, Note_on_c, 0, 76, 72
1, 154811, Note_on_c, 0, 80, 65
1, 154833, Note_off_c, 0, 84, 65
1, 154836, Note_off_c, 0, 76, 69
1, 154837, Note_off_c, 0, 80, 68
1, 154908, Note_on_c, 0, 80, 74
1, 154911, Note_on_c, 0, 76, 67
1, 154913, Note_on_c, 0, 85, 82
1, 154934, Note_off_c, 0, 80, 68
1, 154935, Note_off_c, 0, 85, 69
1, 154937, Note_off_c, 0, 76, 67
1, 155005, Note_on_c, 0, 76, 73
1, 155006, Note_on_c, 0, 86, 82
1, 155009, Note_on_c, 0, 80, 73
1, 155030, Note_off_c, 0, 76, 68
1, 155034, Note_off_c, 0, 80, 68
1, 155042, Note_off_c, 0, 86, 62
1, 155105, Note_on_c, 0, 80, 74
1, 155106, Note_on_c, 0, 87, 91
1, 155114, Note_on_c, 0, 83, 77
1, 155128, Note_off_c, 0, 80, 69
1, 155131, Note_off_c, 0, 87, 63
1, 155137, Note_off_c, 0, 83, 70
1, 155206, Note_on_c, 0, 83, 72
1, 155207, Note_on_c, 0, 80, 94
1, 155209, Note_on_c, 0, 88, 97
1, 155217, Note_on_c, 0, 76, 73
1, 155218, Note_on_c, 0, 68, 68
1, 155223, Note_on_c, 0, 71, 61
1, 155228, Control_c, 0, 64, 84
1, 155234, Note_off_c, 0, 83, 70
1, 155239, Note_off_c, 0, 80, 61
1, 155243, Control_c, 0, 64, 56
1, 155251, Note_off_c, 0, 76, 63
1, 155255, Note_off_c, 0, 88, 67
1, 155257, Control_c, 0, 64, 0
1, 155261, Note_off_c, 0, 68, 60
1, 155266, Note_off_c, 0, 71, 62
1, 155302, Control_c, 0, 64, 47
1, 155318, Control_c, 0, 64, 67
1, 155327, Note_on_c, 0, 76, 76
1, 155333, Note_on_c, 0, 69, 66
1, 155333, Control_c, 0, 64, 84
1, 155339, Note_on_c, 0, 66, 69
1, 155347, Control_c, 0, 64, 119
1, 155354, Note_off_c, 0, 76, 65
1, 155362, Control_c, 0, 64, 127
1, 155369, Note_off_c, 0, 66, 66
1, 155385, Note_off_c, 0, 69, 59
1, 155445, Note_on_c, 0, 66, 76
1, 155447, Note_on_c, 0, 69, 59
1, 155450, Note_on_c, 0, 75, 72
1, 155487, Note_off_c, 0, 75, 59
1, 155507, Note_off_c, 0, 69, 61
1, 155507, Note_off_c, 0, 66, 62
1, 155543, Note_on_c, 0, 96, 90
1, 155545, Note_on_c, 0, 84, 93
1, 155611, Note_on_c, 0, 66, 71
1, 155615, Note_on_c, 0, 69, 63
1, 155619, Note_on_c, 0, 74, 56
1, 155646, Note_off_c, 0, 74, 65
1, 155651, Note_off_c, 0, 66, 58
1, 155651, Note_off_c, 0, 69, 58
1, 155722, Note_on_c, 0, 75, 81
1, 155728, Note_on_c, 0, 66, 80
1, 155737, Note_on_c, 0, 69, 65
1, 155757, Note_off_c, 0, 66, 59
1, 155758, Note_off_c, 0, 75, 60
1, 155764, Note_off_c, 0, 69, 64
1, 155776, Note_off_c, 0, 96, 63
1, 155782, Note_off_c, 0, 84, 61
1, 155838, Note_on_c, 0, 69, 64
1, 155841, Note_on_c, 0, 76, 77
1, 155845, Note_on_c, 0, 66, 78
1, 155868, Note_off_c, 0, 76, 64
1, 155870, Note_on_c, 0, 95, 97
1, 155874, Note_on_c, 0, 83, 92
1, 155875, Note_off_c, 0, 66, 65
1, 155890, Note_off_c, 0, 69, 60
1, 155892, Note_off_c, 0, 83, 75
1, 155905, Note_off_c, 0, 95, 65
1, 155969, Note_on_c, 0, 66, 82
1, 155970, Note_on_c, 0, 75, 82
1, 155991, Note_off_c, 0, 75, 69
1, 155994, Note_on_c, 0, 69, 51
1, 156003, Note_off_c, 0, 66, 52
1, 156016, Note_off_c, 0, 69, 64
1, 156066, Note_on_c, 0, 73, 79
1, 156078, Note_on_c, 0, 66, 62
1, 156085, Note_on_c, 0, 69, 63
1, 156102, Note_off_c, 0, 73, 62
1, 156107, Note_off_c, 0, 66, 67
1, 156114, Note_off_c, 0, 69, 65
1, 156167, Note_on_c, 0, 66, 65
1, 156168, Note_on_c, 0, 72, 78
1, 156178, Note_on_c, 0, 69, 64
1, 156195, Note_off_c, 0, 72, 67
1, 156199, Note_off_c, 0, 66, 64
1, 156210, Note_off_c, 0, 69, 61
1, 156249, Note_on_c, 0, 83, 86
1, 156250, Note_on_c, 0, 75, 77
1, 156272, Note_on_c, 0, 66, 70
1, 156282, Note_on_c, 0, 71, 63
1, 156287, Note_on_c, 0, 69, 43
1, 156312, Note_off_c, 0, 69, 57
1, 156314, Note_off_c, 0, 71, 66
1, 156315, Note_off_c, 0, 75, 60
1, 156326, Note_off_c, 0, 66, 61
1, 156349, Note_off_c, 0, 83, 64
1, 156393, Note_on_c, 0, 71, 74
1, 156394, Note_on_c, 0, 68, 77
1, 156422, Control_c, 0, 64, 96
1, 156436, Control_c, 0, 64, 69
1, 156451, Control_c, 0, 64, 0
1, 156510, Control_c, 0, 64, 62
1, 156525, Control_c, 0, 64, 73
1, 156526, Note_on_c, 0, 83, 81
1, 156536, Note_on_c, 0, 80, 63
1, 156537, Note_on_c, 0, 76, 62
1, 156540, Control_c, 0, 64, 92
1, 156555, Control_c, 0, 64, 127
1, 156566, Note_off_c, 0, 80, 65
1, 156567, Note_off_c, 0, 76, 66
1, 156578, Note_off_c, 0, 83, 66
1, 156634, Note_off_c, 0, 71, 58
1, 156655, Note_on_c, 0, 82, 76
1, 156663, Note_on_c, 0, 80, 63
1, 156664, Note_on_c, 0, 76, 57
1, 156665, Note_off_c, 0, 68, 56
1, 156697, Note_off_c, 0, 80, 67
1, 156699, Note_off_c, 0, 76, 67
1, 156701, Note_off_c, 0, 82, 63
1, 156772, Note_on_c, 0, 83, 85
1, 156775, Note_on_c, 0, 76, 74
1, 156798, Note_on_c, 0, 80, 39
1, 156806, Note_off_c, 0, 76, 64
1, 156816, Note_off_c, 0, 83, 67
1, 156828, Note_off_c, 0, 80, 52
1, 156883, Note_on_c, 0, 84, 85
1, 156886, Note_on_c, 0, 76, 77
1, 156888, Note_on_c, 0, 80, 75
1, 156912, Note_off_c, 0, 76, 68
1, 156913, Note_off_c, 0, 80, 69
1, 156923, Note_off_c, 0, 84, 63
1, 156990, Note_on_c, 0, 80, 73
1, 156992, Note_on_c, 0, 76, 70
1, 156994, Note_on_c, 0, 85, 79
1, 157015, Note_off_c, 0, 80, 69
1, 157017, Note_off_c, 0, 85, 68
1, 157019, Note_off_c, 0, 76, 67
1, 157085, Note_on_c, 0, 86, 90
1, 157087, Note_on_c, 0, 76, 70
1, 157096, Note_on_c, 0, 80, 66
1, 157113, Note_off_c, 0, 76, 69
1, 157119, Note_off_c, 0, 80, 66
1, 157124, Note_off_c, 0, 86, 66
1, 157186, Note_on_c, 0, 80, 80
1, 157186, Note_on_c, 0, 87, 89
1, 157195, Note_on_c, 0, 83, 80
1, 157215, Note_off_c, 0, 80, 61
1, 157219, Note_off_c, 0, 83, 71
1, 157230, Note_off_c, 0, 87, 62
1, 157283, Note_on_c, 0, 88, 91
1, 157284, Note_on_c, 0, 59, 59
1, 157290, Note_on_c, 0, 83, 71
1, 157293, Note_on_c, 0, 80, 78
1, 157323, Note_off_c, 0, 83, 68
1, 157324, Note_off_c, 0, 80, 59
1, 157341, Note_off_c, 0, 88, 66
1, 157361, Note_off_c, 0, 59, 61
1, 157415, Note_on_c, 0, 60, 91
1, 157422, Control_c, 0, 64, 100
1, 157428, Note_on_c, 0, 88, 88
1, 157433, Note_on_c, 0, 78, 86
1, 157444, Control_c, 0, 64, 79
1, 157445, Note_on_c, 0, 81, 86
1, 157459, Control_c, 0, 64, 63
1, 157464, Note_off_c, 0, 78, 65
1, 157469, Note_off_c, 0, 81, 70
1, 157474, Control_c, 0, 64, 49
1, 157484, Note_off_c, 0, 88, 67
1, 157489, Control_c, 0, 64, 62
1, 157504, Control_c, 0, 64, 67
1, 157518, Control_c, 0, 64, 79
1, 157533, Control_c, 0, 64, 98
1, 157548, Control_c, 0, 64, 127
1, 157550, Note_on_c, 0, 87, 81
1, 157553, Note_on_c, 0, 78, 75
1, 157557, Note_on_c, 0, 81, 75
1, 157579, Note_off_c, 0, 78, 67
1, 157582, Note_off_c, 0, 87, 55
1, 157585, Note_off_c, 0, 81, 67
1, 157645, Note_on_c, 0, 86, 91
1, 157648, Note_on_c, 0, 78, 74
1, 157654, Note_on_c, 0, 81, 78
1, 157682, Note_off_c, 0, 78, 61
1, 157684, Note_off_c, 0, 81, 67
1, 157695, Note_off_c, 0, 60, 59
1, 157703, Note_off_c, 0, 86, 60
1, 157754, Note_on_c, 0, 78, 82
1, 157755, Note_on_c, 0, 85, 86
1, 157756, Note_on_c, 0, 63, 96
1, 157757, Note_on_c, 0, 81, 87
1, 157782, Note_off_c, 0, 81, 70
1, 157793, Note_off_c, 0, 85, 57
1, 157799, Note_off_c, 0, 78, 61
1, 157870, Note_on_c, 0, 84, 84
1, 157875, Note_on_c, 0, 75, 84
1, 157892, Note_on_c, 0, 78, 66
1, 157897, Note_off_c, 0, 75, 66
1, 157912, Note_off_c, 0, 84, 62
1, 157919, Note_off_c, 0, 78, 66
1, 157973, Note_off_c, 0, 63, 61
1, 157983, Note_on_c, 0, 83, 89
1, 157988, Note_on_c, 0, 75, 81
1, 157988, Note_on_c, 0, 78, 78
1, 158012, Note_off_c, 0, 75, 67
1, 158018, Note_off_c, 0, 78, 63
1, 158041, Note_off_c, 0, 83, 64
1, 158070, Note_on_c, 0, 66, 109
1, 158082, Control_c, 0, 64, 108
1, 158089, Note_on_c, 0, 82, 83
1, 158090, Note_on_c, 0, 75, 83
1, 158097, Note_on_c, 0, 78, 77
1, 158097, Control_c, 0, 64, 94
1, 158112, Control_c, 0, 64, 90
1, 158121, Note_off_c, 0, 78, 69
1, 158127, Control_c, 0, 64, 90
1, 158136, Note_off_c, 0, 82, 66
1, 158138, Note_off_c, 0, 75, 63
1, 158141, Control_c, 0, 64, 94
1, 158156, Control_c, 0, 64, 104
1, 158171, Control_c, 0, 64, 127
1, 158217, Note_on_c, 0, 81, 98
1, 158221, Note_off_c, 0, 66, 61
1, 158223, Note_on_c, 0, 72, 87
1, 158232, Note_on_c, 0, 75, 70
1, 158250, Note_off_c, 0, 72, 66
1, 158255, Note_off_c, 0, 75, 70
1, 158271, Note_off_c, 0, 81, 62
1, 158340, Note_on_c, 0, 68, 93
1, 158345, Note_on_c, 0, 72, 95
1, 158345, Note_on_c, 0, 80, 90
1, 158352, Note_on_c, 0, 75, 75
1, 158393, Note_off_c, 0, 75, 51
1, 158394, Note_off_c, 0, 72, 63
1, 158407, Note_off_c, 0, 68, 60
1, 158419, Note_off_c, 0, 80, 63
1, 158474, Control_c, 0, 64, 109
1, 158489, Control_c, 0, 64, 75
1, 158490, Note_on_c, 0, 69, 95
1, 158490, Note_on_c, 0, 79, 95
1, 158496, Note_on_c, 0, 72, 92
1, 158499, Note_on_c, 0, 75, 75
1, 158504, Control_c, 0, 64, 0
1, 158554, Note_off_c, 0, 72, 59
1, 158564, Note_off_c, 0, 75, 62
1, 158564, Control_c, 0, 64, 65
1, 158579, Control_c, 0, 64, 84
1, 158594, Control_c, 0, 64, 127
1, 158620, Note_off_c, 0, 69, 60
1, 158638, Note_on_c, 0, 75, 66
1, 158643, Note_off_c, 0, 79, 61
1, 158644, Note_on_c, 0, 78, 73
1, 158649, Note_on_c, 0, 72, 71
1, 158667, Note_off_c, 0, 75, 64
1, 158679, Note_off_c, 0, 72, 66
1, 158684, Note_off_c, 0, 78, 59
1, 158761, Note_on_c, 0, 77, 79
1, 158763, Note_on_c, 0, 72, 79
1, 158773, Note_on_c, 0, 69, 61
1, 158791, Note_off_c, 0, 72, 66
1, 158793, Note_off_c, 0, 69, 63
1, 158810, Note_off_c, 0, 77, 63
1, 158876, Note_on_c, 0, 72, 72
1, 158876, Note_on_c, 0, 76, 78
1, 158878, Note_on_c, 0, 69, 59
1, 158906, Note_off_c, 0, 72, 63
1, 158910, Note_off_c, 0, 69, 65
1, 158926, Note_off_c, 0, 76, 61
1, 158995, Note_on_c, 0, 69, 63
1, 158998, Note_on_c, 0, 75, 74
1, 159013, Note_on_c, 0, 72, 61
1, 159029, Note_off_c, 0, 69, 64
1, 159034, Note_off_c, 0, 75, 60
1, 159039, Note_off_c, 0, 72, 65
1, 159132, Note_on_c, 0, 74, 67
1, 159139, Note_on_c, 0, 66, 68
1, 159146, Note_on_c, 0, 69, 51
1, 159172, Note_off_c, 0, 66, 64
1, 159187, Note_off_c, 0, 74, 57
1, 159193, Note_off_c, 0, 69, 59
1, 159273, Note_on_c, 0, 73, 69
1, 159279, Note_on_c, 0, 66, 58
1, 159291, Note_on_c, 0, 69, 54
1, 159311, Note_off_c, 0, 66, 65
1, 159326, Note_off_c, 0, 69, 63
1, 159348, Note_off_c, 0, 73, 60
1, 159420, Note_on_c, 0, 72, 80
1, 159425, Note_on_c, 0, 69, 53
1, 159441, Note_on_c, 0, 66, 42
1, 159463, Note_off_c, 0, 69, 60
1, 159475, Note_off_c, 0, 72, 63
1, 159481, Note_off_c, 0, 66, 58
1, 159633, Note_on_c, 0, 48, 46
1, 159649, Note_on_c, 0, 57, 35
1, 159654, Control_c, 0, 64, 119
1, 159669, Note_on_c, 0, 69, 65
1, 159669, Control_c, 0, 64, 90
1, 159692, Control_c, 0, 64, 71
1, 159702, Note_on_c, 0, 63, 38
1, 159707, Control_c, 0, 64, 56
1, 159711, Note_on_c, 0, 66, 44
1, 159721, Control_c, 0, 64, 60
1, 159736, Control_c, 0, 64, 65
1, 159749, Note_off_c, 0, 48, 59
1, 159751, Control_c, 0, 64, 72
1, 159757, Note_off_c, 0, 63, 52
1, 159766, Control_c, 0, 64, 83
1, 159781, Control_c, 0, 64, 100
1, 159795, Control_c, 0, 64, 119
1, 159810, Control_c, 0, 64, 127
1, 159812, Note_off_c, 0, 69, 38
1, 159822, Note_off_c, 0, 57, 37
1, 159943, Control_c, 0, 64, 100
1, 159947, Note_on_c, 0, 69, 55
1, 159948, Note_on_c, 0, 57, 37
1, 159949, Note_on_c, 0, 49, 44
1, 159958, Control_c, 0, 64, 81
1, 159961, Note_on_c, 0, 64, 48
1, 159964, Note_off_c, 0, 66, 34
1, 159973, Control_c, 0, 64, 67
1, 159988, Control_c, 0, 64, 61
1, 160003, Control_c, 0, 64, 65
1, 160010, Note_off_c, 0, 49, 56
1, 160018, Control_c, 0, 64, 71
1, 160032, Control_c, 0, 64, 80
1, 160045, Note_off_c, 0, 64, 59
1, 160047, Control_c, 0, 64, 93
1, 160062, Control_c, 0, 64, 105
1, 160077, Control_c, 0, 64, 111
1, 160092, Control_c, 0, 64, 117
1, 160107, Control_c, 0, 64, 127
1, 160125, Note_off_c, 0, 69, 52
1, 160134, Note_on_c, 0, 49, 48
1, 160137, Note_off_c, 0, 57, 40
1, 160140, Note_on_c, 0, 68, 63
1, 160158, Note_on_c, 0, 64, 46
1, 160176, Note_off_c, 0, 68, 63
1, 160180, Note_off_c, 0, 49, 58
1, 160185, Note_on_c, 0, 56, 11
1, 160188, Note_off_c, 0, 64, 63
1, 160212, Note_off_c, 0, 56, 0
1, 160230, Poly_aftertouch_c, 0, 56, 0
1, 160272, Note_on_c, 0, 64, 57
1, 160274, Note_on_c, 0, 67, 61
1, 160278, Note_on_c, 0, 49, 57
1, 160291, Note_on_c, 0, 55, 40
1, 160306, Note_off_c, 0, 67, 64
1, 160315, Note_off_c, 0, 49, 62
1, 160316, Note_off_c, 0, 64, 61
1, 160324, Note_off_c, 0, 55, 52
1, 160391, Note_on_c, 0, 49, 61
1, 160392, Note_on_c, 0, 68, 64
1, 160396, Note_on_c, 0, 64, 64
1, 160419, Note_off_c, 0, 68, 68
1, 160432, Note_on_c, 0, 56, 32
1, 160440, Note_off_c, 0, 64, 63
1, 160442, Note_off_c, 0, 49, 59
1, 160468, Note_off_c, 0, 56, 45
1, 160518, Note_on_c, 0, 69, 67
1, 160519, Note_on_c, 0, 64, 65
1, 160524, Note_on_c, 0, 49, 56
1, 160525, Note_on_c, 0, 57, 49
1, 160550, Note_off_c, 0, 69, 65
1, 160554, Note_off_c, 0, 57, 55
1, 160554, Note_off_c, 0, 64, 63
1, 160560, Note_off_c, 0, 49, 61
1, 160629, Note_on_c, 0, 70, 81
1, 160635, Note_on_c, 0, 57, 55
1, 160637, Note_on_c, 0, 64, 63
1, 160644, Note_on_c, 0, 49, 47
1, 160663, Note_off_c, 0, 64, 68
1, 160663, Note_off_c, 0, 70, 61
1, 160668, Note_off_c, 0, 57, 59
1, 160679, Note_off_c, 0, 49, 57
1, 160728, Note_on_c, 0, 49, 60
1, 160739, Note_on_c, 0, 71, 76
1, 160746, Note_on_c, 0, 64, 68
1, 160754, Note_on_c, 0, 59, 52
1, 160761, Note_off_c, 0, 49, 65
1, 160772, Note_off_c, 0, 71, 64
1, 160775, Note_off_c, 0, 64, 67
1, 160784, Note_off_c, 0, 59, 64
1, 160850, Note_on_c, 0, 72, 86
1, 160852, Note_on_c, 0, 64, 66
1, 160859, Note_on_c, 0, 68, 66
1, 160874, Note_on_c, 0, 56, 55
1, 160879, Note_on_c, 0, 60, 51
1, 160888, Note_off_c, 0, 64, 57
1, 160891, Note_off_c, 0, 72, 61
1, 160897, Note_off_c, 0, 68, 61
1, 160907, Note_off_c, 0, 60, 54
1, 160916, Note_off_c, 0, 56, 62
1, 160969, Poly_aftertouch_c, 0, 53, 0
1, 160984, Note_on_c, 0, 73, 72
1, 160993, Note_on_c, 0, 61, 64
1, 160995, Note_on_c, 0, 68, 69
1, 160998, Note_on_c, 0, 64, 48
1, 161012, Note_on_c, 0, 56, 46
1, 161019, Note_off_c, 0, 64, 60
1, 161050, Note_off_c, 0, 56, 59
1, 161051, Note_off_c, 0, 73, 62
1, 161057, Poly_aftertouch_c, 0, 52, 0
1, 161057, Note_off_c, 0, 68, 61
1, 161060, Note_off_c, 0, 61, 60
1, 161107, Control_c, 0, 64, 90
1, 161122, Control_c, 0, 64, 71
1, 161137, Control_c, 0, 64, 42
1, 161146, Note_on_c, 0, 73, 79
1, 161150, Note_on_c, 0, 61, 63
1, 161151, Control_c, 0, 64, 37
1, 161152, Note_on_c, 0, 66, 69
1, 161154, Note_on_c, 0, 51, 60
1, 161156, Note_on_c, 0, 63, 60
1, 161166, Control_c, 0, 64, 57
1, 161170, Note_on_c, 0, 57, 40
1, 161189, Control_c, 0, 64, 65
1, 161194, Note_off_c, 0, 63, 63
1, 161194, Note_off_c, 0, 66, 64
1, 161204, Control_c, 0, 64, 71
1, 161210, Note_off_c, 0, 61, 57
1, 161217, Note_off_c, 0, 73, 60
1, 161218, Control_c, 0, 64, 84
1, 161219, Note_off_c, 0, 57, 54
1, 161231, Note_off_c, 0, 51, 51
1, 161233, Control_c, 0, 64, 94
1, 161248, Control_c, 0, 64, 101
1, 161263, Control_c, 0, 64, 105
1, 161277, Note_on_c, 0, 63, 71
1, 161278, Control_c, 0, 64, 112
1, 161283, Note_on_c, 0, 60, 63
1, 161289, Note_on_c, 0, 53, 54
1, 161289, Note_on_c, 0, 69, 62
1, 161290, Note_on_c, 0, 72, 66
1, 161292, Control_c, 0, 64, 127
1, 161305, Note_on_c, 0, 57, 14
1, 161309, Note_off_c, 0, 63, 60
1, 161313, Note_off_c, 0, 60, 64
1, 161320, Note_off_c, 0, 72, 66
1, 161329, Note_off_c, 0, 53, 61
1, 161343, Note_off_c, 0, 57, 41
1, 161345, Note_off_c, 0, 69, 63
1, 161366, Control_c, 0, 64, 118
1, 161381, Control_c, 0, 64, 88
1, 161396, Control_c, 0, 64, 65
1, 161410, Control_c, 0, 64, 0
1, 161413, Note_on_c, 0, 59, 48
1, 161413, Note_on_c, 0, 71, 66
1, 161416, Note_on_c, 0, 57, 50
1, 161419, Note_on_c, 0, 54, 48
1, 161422, Note_on_c, 0, 63, 57
1, 161441, Note_off_c, 0, 59, 63
1, 161445, Note_off_c, 0, 63, 59
1, 161454, Note_off_c, 0, 54, 63
1, 161459, Note_off_c, 0, 57, 62
1, 161470, Control_c, 0, 64, 59
1, 161484, Note_off_c, 0, 71, 60
1, 161484, Control_c, 0, 64, 70
1, 161488, Poly_aftertouch_c, 0, 69, 0
1, 161499, Control_c, 0, 64, 83
1, 161510, Note_on_c, 0, 72, 89
1, 161514, Note_on_c, 0, 63, 73
1, 161514, Control_c, 0, 64, 112
1, 161519, Note_on_c, 0, 60, 61
1, 161527, Note_on_c, 0, 59, 57
1, 161529, Control_c, 0, 64, 127
1, 161539, Note_off_c, 0, 63, 69
1, 161552, Note_on_c, 0, 54, 22
1, 161553, Note_off_c, 0, 60, 64
1, 161555, Note_off_c, 0, 59, 64
1, 161576, Note_off_c, 0, 72, 63
1, 161595, Note_off_c, 0, 54, 54
1, 161735, Note_on_c, 0, 69, 67
1, 161740, Note_on_c, 0, 81, 78
1, 161742, Note_on_c, 0, 72, 77
1, 161748, Note_on_c, 0, 75, 61
1, 161748, Note_on_c, 0, 83, 69
1, 161752, Note_on_c, 0, 60, 41
1, 161767, Note_off_c, 0, 83, 61
1, 161770, Note_off_c, 0, 72, 66
1, 161773, Note_off_c, 0, 75, 65
1, 161774, Note_off_c, 0, 69, 57
1, 161782, Note_off_c, 0, 60, 56
1, 161791, Note_off_c, 0, 81, 63
1, 161864, Note_on_c, 0, 60, 58
1, 161873, Note_on_c, 0, 80, 78
1, 161874, Note_on_c, 0, 68, 70
1, 161875, Note_on_c, 0, 63, 58
1, 161875, Note_on_c, 0, 75, 66
1, 161886, Note_on_c, 0, 72, 54
1, 161902, Note_off_c, 0, 60, 61
1, 161902, Note_off_c, 0, 75, 66
1, 161905, Note_off_c, 0, 68, 65
1, 161905, Note_off_c, 0, 80, 60
1, 161908, Note_off_c, 0, 63, 63
1, 161914, Note_off_c, 0, 72, 58
1, 161988, Note_on_c, 0, 63, 65
1, 161989, Note_on_c, 0, 79, 87
1, 161996, Note_on_c, 0, 72, 76
1, 161997, Note_on_c, 0, 75, 73
1, 161998, Note_on_c, 0, 67, 50
1, 162000, Note_on_c, 0, 60, 58
1, 162020, Note_off_c, 0, 75, 68
1, 162021, Note_off_c, 0, 67, 62
1, 162023, Note_off_c, 0, 63, 62
1, 162026, Note_off_c, 0, 72, 67
1, 162030, Note_off_c, 0, 60, 63
1, 162030, Note_off_c, 0, 79, 60
1, 162095, Note_on_c, 0, 78, 81
1, 162095, Note_on_c, 0, 60, 58
1, 162099, Note_on_c, 0, 66, 55
1, 162103, Note_on_c, 0, 75, 62
1, 162104, Note_on_c, 0, 72, 69
1, 162107, Note_on_c, 0, 63, 35
1, 162121, Note_off_c, 0, 75, 65
1, 162123, Note_off_c, 0, 66, 61
1, 162125, Note_off_c, 0, 78, 57
1, 162125, Note_off_c, 0, 60, 67
1, 162130, Note_off_c, 0, 72, 68
1, 162134, Note_off_c, 0, 63, 57
1, 162194, Note_on_c, 0, 69, 83
1, 162223, Note_on_c, 0, 57, 51
1, 162247, Note_off_c, 0, 69, 63
1, 162251, Note_off_c, 0, 57, 53
1, 162367, Control_c, 0, 64, 107
1, 162371, Note_on_c, 0, 69, 79
1, 162380, Note_on_c, 0, 57, 50
1, 162381, Control_c, 0, 64, 84
1, 162396, Control_c, 0, 64, 65
1, 162411, Control_c, 0, 64, 0
1, 162443, Note_off_c, 0, 69, 59
1, 162455, Control_c, 0, 64, 61
1, 162470, Control_c, 0, 64, 69
1, 162477, Note_off_c, 0, 57, 55
1, 162485, Control_c, 0, 64, 77
1, 162500, Note_on_c, 0, 68, 75
1, 162501, Control_c, 0, 64, 90
1, 162516, Control_c, 0, 64, 99
1, 162516, Note_on_c, 0, 49, 48
1, 162516, Note_on_c, 0, 64, 57
1, 162522, Note_on_c, 0, 56, 48
1, 162529, Note_off_c, 0, 68, 64
1, 162530, Control_c, 0, 64, 104
1, 162545, Control_c, 0, 64, 111
1, 162548, Note_off_c, 0, 56, 57
1, 162548, Note_off_c, 0, 64, 66
1, 162550, Note_off_c, 0, 49, 57
1, 162560, Control_c, 0, 64, 124
1, 162574, Control_c, 0, 64, 127
1, 162609, Note_on_c, 0, 67, 77
1, 162620, Note_on_c, 0, 64, 67
1, 162629, Note_on_c, 0, 49, 61
1, 162631, Note_on_c, 0, 55, 48
1, 162634, Control_c, 0, 64, 116
1, 162636, Note_off_c, 0, 67, 66
1, 162647, Note_off_c, 0, 64, 69
1, 162649, Control_c, 0, 64, 91
1, 162659, Note_off_c, 0, 55, 54
1, 162660, Note_off_c, 0, 49, 65
1, 162663, Control_c, 0, 64, 72
1, 162686, Control_c, 0, 64, 0
1, 162727, Note_on_c, 0, 68, 81
1, 162730, Note_on_c, 0, 49, 69
1, 162730, Note_on_c, 0, 64, 73
1, 162730, Control_c, 0, 64, 49
1, 162745, Control_c, 0, 64, 65
1, 162752, Note_off_c, 0, 68, 64
1, 162757, Note_off_c, 0, 64, 67
1, 162760, Note_on_c, 0, 56, 42
1, 162760, Control_c, 0, 64, 73
1, 162769, Note_off_c, 0, 49, 61
1, 162775, Control_c, 0, 64, 83
1, 162789, Control_c, 0, 64, 93
1, 162790, Note_off_c, 0, 56, 47
1, 162804, Control_c, 0, 64, 98
1, 162819, Control_c, 0, 64, 100
1, 162834, Control_c, 0, 64, 101
1, 162836, Note_on_c, 0, 69, 82
1, 162838, Note_on_c, 0, 49, 67
1, 162839, Note_on_c, 0, 64, 72
1, 162849, Note_on_c, 0, 57, 56
1, 162849, Control_c, 0, 64, 104
1, 162861, Note_off_c, 0, 69, 66
1, 162863, Control_c, 0, 64, 108
1, 162864, Note_off_c, 0, 64, 68
1, 162877, Note_off_c, 0, 57, 61
1, 162878, Note_off_c, 0, 49, 59
1, 162878, Control_c, 0, 64, 114
1, 162893, Control_c, 0, 64, 122
1, 162908, Control_c, 0, 64, 127
1, 162943, Note_on_c, 0, 58, 67
1, 162944, Note_on_c, 0, 70, 81
1, 162947, Note_on_c, 0, 64, 74
1, 162961, Note_on_c, 0, 49, 49
1, 162968, Note_off_c, 0, 70, 67
1, 162973, Note_off_c, 0, 64, 67
1, 162976, Note_off_c, 0, 58, 63
1, 162989, Note_off_c, 0, 49, 60
1, 163047, Note_on_c, 0, 49, 64
1, 163048, Note_on_c, 0, 71, 84
1, 163050, Note_on_c, 0, 64, 72
1, 163052, Note_on_c, 0, 59, 62
1, 163072, Note_off_c, 0, 71, 67
1, 163073, Note_off_c, 0, 49, 66
1, 163076, Note_off_c, 0, 64, 67
1, 163083, Note_off_c, 0, 59, 66
1, 163151, Note_on_c, 0, 72, 96
1, 163159, Note_on_c, 0, 64, 75
1, 163161, Note_on_c, 0, 60, 67
1, 163162, Note_on_c, 0, 68, 67
1, 163165, Note_on_c, 0, 52, 57
1, 163168, Note_on_c, 0, 56, 62
1, 163186, Note_off_c, 0, 64, 68
1, 163189, Note_off_c, 0, 72, 60
1, 163189, Note_off_c, 0, 60, 66
1, 163191, Note_off_c, 0, 68, 64
1, 163201, Note_off_c, 0, 52, 63
1, 163218, Note_off_c, 0, 56, 58
1, 163261, Note_on_c, 0, 73, 82
1, 163270, Note_on_c, 0, 64, 65
1, 163271, Note_on_c, 0, 68, 76
1, 163272, Note_on_c, 0, 61, 71
1, 163274, Note_on_c, 0, 52, 65
1, 163291, Note_on_c, 0, 56, 29
1, 163292, Note_off_c, 0, 64, 69
1, 163305, Note_off_c, 0, 52, 67
1, 163312, Note_off_c, 0, 68, 58
1, 163315, Note_off_c, 0, 73, 64
1, 163326, Note_off_c, 0, 61, 60
1, 163333, Note_off_c, 0, 56, 49
1, 163353, Control_c, 0, 64, 98
1, 163368, Control_c, 0, 64, 77
1, 163383, Control_c, 0, 64, 50
1, 163394, Note_on_c, 0, 73, 81
1, 163397, Note_on_c, 0, 63, 79
1, 163397, Note_on_c, 0, 61, 62
1, 163397, Control_c, 0, 64, 0
1, 163402, Note_on_c, 0, 66, 76
1, 163405, Note_on_c, 0, 57, 55
1, 163412, Note_on_c, 0, 51, 58
1, 163431, Note_off_c, 0, 63, 65
1, 163434, Control_c, 0, 64, 59
1, 163440, Note_off_c, 0, 66, 67
1, 163440, Note_off_c, 0, 61, 58
1, 163449, Control_c, 0, 64, 68
1, 163454, Note_off_c, 0, 57, 59
1, 163457, Note_off_c, 0, 73, 63
1, 163464, Control_c, 0, 64, 76
1, 163465, Note_off_c, 0, 51, 58
1, 163478, Control_c, 0, 64, 89
1, 163493, Control_c, 0, 64, 100
1, 163508, Note_on_c, 0, 72, 89
1, 163508, Note_on_c, 0, 60, 70
1, 163508, Control_c, 0, 64, 107
1, 163511, Note_on_c, 0, 63, 83
1, 163517, Note_on_c, 0, 53, 63
1, 163522, Note_on_c, 0, 69, 70
1, 163523, Control_c, 0, 64, 113
1, 163534, Note_off_c, 0, 60, 68
1, 163538, Control_c, 0, 64, 121
1, 163541, Note_off_c, 0, 63, 61
1, 163543, Note_off_c, 0, 72, 60
1, 163548, Note_on_c, 0, 57, 12
1, 163553, Note_off_c, 0, 53, 63
1, 163553, Control_c, 0, 64, 127
1, 163563, Note_off_c, 0, 69, 62
1, 163577, Note_off_c, 0, 57, 0
1, 163607, Note_on_c, 0, 57, 25
1, 163612, Control_c, 0, 64, 108
1, 163615, Note_on_c, 0, 71, 86
1, 163617, Note_on_c, 0, 59, 64
1, 163619, Note_on_c, 0, 63, 81
1, 163623, Note_on_c, 0, 54, 60
1, 163627, Control_c, 0, 64, 86
1, 163627, Note_on_c, 0, 69, 62
1, 163642, Control_c, 0, 64, 64
1, 163643, Note_off_c, 0, 59, 63
1, 163643, Note_off_c, 0, 63, 66
1, 163654, Note_off_c, 0, 69, 69
1, 163657, Control_c, 0, 64, 0
1, 163657, Note_off_c, 0, 54, 64
1, 163666, Note_off_c, 0, 57, 64
1, 163670, Note_off_c, 0, 71, 64
1, 163716, Control_c, 0, 64, 39
1, 163717, Note_on_c, 0, 72, 99
1, 163722, Note_on_c, 0, 63, 89
1, 163723, Note_on_c, 0, 60, 74
1, 163730, Control_c, 0, 64, 68
1, 163731, Note_on_c, 0, 54, 55
1, 163745, Control_c, 0, 64, 80
1, 163756, Note_off_c, 0, 54, 60
1, 163757, Note_off_c, 0, 63, 62
1, 163760, Control_c, 0, 64, 100
1, 163764, Note_off_c, 0, 60, 56
1, 163773, Note_off_c, 0, 72, 65
1, 163775, Control_c, 0, 64, 127
1, 163914, Note_on_c, 0, 81, 100
1, 163920, Note_on_c, 0, 72, 82
1, 163925, Note_on_c, 0, 60, 62
1, 163926, Note_on_c, 0, 69, 63
1, 163927, Note_on_c, 0, 75, 65
1, 163946, Note_off_c, 0, 72, 66
1, 163950, Note_on_c, 0, 63, 38
1, 163951, Note_off_c, 0, 75, 66
1, 163952, Note_off_c, 0, 60, 62
1, 163952, Note_off_c, 0, 81, 64
1, 163957, Note_off_c, 0, 69, 65
1, 163981, Note_off_c, 0, 63, 54
1, 164029, Note_on_c, 0, 72, 79
1, 164032, Note_on_c, 0, 80, 85
1, 164033, Note_on_c, 0, 75, 68
1, 164042, Note_on_c, 0, 60, 62
1, 164048, Note_on_c, 0, 68, 67
1, 164057, Note_off_c, 0, 75, 69
1, 164058, Note_off_c, 0, 80, 64
1, 164059, Note_off_c, 0, 72, 66
1, 164060, Note_on_c, 0, 63, 58
1, 164078, Note_off_c, 0, 68, 67
1, 164080, Note_off_c, 0, 60, 61
1, 164087, Note_off_c, 0, 63, 65
1, 164133, Note_on_c, 0, 79, 93
1, 164141, Note_on_c, 0, 75, 73
1, 164143, Note_on_c, 0, 72, 82
1, 164147, Note_on_c, 0, 67, 61
1, 164152, Note_on_c, 0, 63, 60
1, 164154, Note_on_c, 0, 60, 63
1, 164163, Note_off_c, 0, 75, 68
1, 164165, Note_off_c, 0, 72, 69
1, 164178, Note_off_c, 0, 79, 62
1, 164184, Note_off_c, 0, 67, 66
1, 164187, Note_off_c, 0, 60, 67
1, 164191, Note_off_c, 0, 63, 65
1, 164249, Note_on_c, 0, 75, 76
1, 164253, Note_on_c, 0, 78, 78
1, 164256, Note_on_c, 0, 72, 79
1, 164264, Note_on_c, 0, 63, 48
1, 164264, Note_on_c, 0, 66, 60
1, 164274, Note_off_c, 0, 75, 66
1, 164277, Note_on_c, 0, 60, 51
1, 164277, Note_off_c, 0, 78, 69
1, 164281, Note_off_c, 0, 72, 67
1, 164291, Note_off_c, 0, 63, 58
1, 164292, Note_off_c, 0, 66, 67
1, 164304, Note_off_c, 0, 60, 56
1, 164353, Note_on_c, 0, 69, 79
1, 164380, Note_on_c, 0, 57, 69
1, 164398, Note_off_c, 0, 69, 62
1, 164415, Note_off_c, 0, 57, 60
1, 164509, Control_c, 0, 64, 110
1, 164524, Control_c, 0, 64, 84
1, 164538, Note_on_c, 0, 60, 58
1, 164539, Control_c, 0, 64, 63
1, 164548, Note_on_c, 0, 72, 83
1, 164553, Control_c, 0, 64, 0
1, 164598, Control_c, 0, 64, 62
1, 164613, Control_c, 0, 64, 70
1, 164615, Note_off_c, 0, 72, 62
1, 164627, Control_c, 0, 64, 81
1, 164642, Control_c, 0, 64, 95
1, 164644, Note_off_c, 0, 60, 33
1, 164657, Control_c, 0, 64, 104
1, 164671, Control_c, 0, 64, 108
1, 164675, Note_on_c, 0, 59, 64
1, 164678, Note_on_c, 0, 71, 69
1, 164680, Note_on_c, 0, 52, 56
1, 164681, Note_on_c, 0, 68, 68
1, 164686, Control_c, 0, 64, 112
1, 164701, Control_c, 0, 64, 127
1, 164705, Note_off_c, 0, 59, 67
1, 164710, Note_off_c, 0, 71, 66
1, 164710, Note_off_c, 0, 68, 67
1, 164723, Note_off_c, 0, 52, 62
1, 164788, Note_on_c, 0, 68, 72
1, 164788, Note_on_c, 0, 70, 78
1, 164790, Note_on_c, 0, 58, 72
1, 164801, Note_on_c, 0, 52, 62
1, 164813, Note_off_c, 0, 70, 69
1, 164818, Note_off_c, 0, 58, 66
1, 164818, Note_off_c, 0, 68, 66
1, 164833, Note_off_c, 0, 52, 63
1, 164835, Control_c, 0, 64, 94
1, 164850, Control_c, 0, 64, 73
1, 164865, Control_c, 0, 64, 0
1, 164897, Note_on_c, 0, 71, 75
1, 164900, Note_on_c, 0, 68, 67
1, 164910, Note_on_c, 0, 52, 63
1, 164910, Control_c, 0, 64, 59
1, 164912, Note_on_c, 0, 59, 49
1, 164931, Note_off_c, 0, 71, 68
1, 164932, Control_c, 0, 64, 69
1, 164936, Note_off_c, 0, 68, 66
1, 164945, Note_off_c, 0, 59, 59
1, 164947, Control_c, 0, 64, 81
1, 164949, Note_off_c, 0, 52, 64
1, 164962, Control_c, 0, 64, 97
1, 164976, Control_c, 0, 64, 116
1, 164991, Control_c, 0, 64, 127
1, 165008, Note_on_c, 0, 72, 97
1, 165017, Note_on_c, 0, 68, 74
1, 165018, Note_on_c, 0, 52, 73
1, 165031, Note_on_c, 0, 60, 61
1, 165040, Note_off_c, 0, 68, 68
1, 165049, Note_off_c, 0, 72, 65
1, 165061, Note_off_c, 0, 52, 53
1, 165063, Note_off_c, 0, 60, 65
1, 165121, Note_on_c, 0, 73, 78
1, 165129, Note_on_c, 0, 68, 79
1, 165130, Note_on_c, 0, 61, 71
1, 165133, Note_on_c, 0, 52, 60
1, 165151, Note_off_c, 0, 73, 63
1, 165156, Note_off_c, 0, 68, 68
1, 165160, Note_off_c, 0, 61, 64
1, 165173, Note_off_c, 0, 52, 60
1, 165223, Note_on_c, 0, 52, 73
1, 165225, Note_on_c, 0, 74, 86
1, 165228, Note_on_c, 0, 62, 69
1, 165229, Note_on_c, 0, 68, 74
1, 165249, Note_off_c, 0, 68, 73
1, 165254, Note_off_c, 0, 62, 65
1, 165256, Note_off_c, 0, 74, 63
1, 165260, Note_off_c, 0, 52, 63
1, 165330, Note_on_c, 0, 75, 89
1, 165341, Note_on_c, 0, 63, 75
1, 165344, Note_on_c, 0, 56, 66
1, 165344, Note_on_c, 0, 68, 77
1, 165347, Note_on_c, 0, 71, 67
1, 165351, Note_on_c, 0, 59, 57
1, 165368, Note_off_c, 0, 68, 67
1, 165368, Note_off_c, 0, 63, 67
1, 165377, Note_off_c, 0, 71, 67
1, 165381, Note_off_c, 0, 75, 62
1, 165384, Note_off_c, 0, 59, 63
1, 165401, Note_off_c, 0, 56, 60
1, 165446, Note_on_c, 0, 76, 83
1, 165447, Note_on_c, 0, 68, 85
1, 165451, Note_on_c, 0, 71, 76
1, 165455, Note_on_c, 0, 64, 70
1, 165456, Note_on_c, 0, 59, 60
1, 165466, Control_c, 0, 64, 98
1, 165473, Note_on_c, 0, 56, 23
1, 165473, Note_off_c, 0, 68, 69
1, 165478, Note_off_c, 0, 71, 67
1, 165481, Control_c, 0, 64, 74
1, 165483, Note_off_c, 0, 64, 68
1, 165488, Note_off_c, 0, 76, 63
1, 165488, Note_off_c, 0, 59, 65
1, 165495, Note_off_c, 0, 56, 51
1, 165496, Control_c, 0, 64, 0
1, 165540, Control_c, 0, 64, 46
1, 165551, Note_on_c, 0, 64, 76
1, 165555, Note_on_c, 0, 54, 73
1, 165555, Note_on_c, 0, 76, 79
1, 165555, Control_c, 0, 64, 66
1, 165559, Note_on_c, 0, 66, 85
1, 165563, Note_on_c, 0, 69, 73
1, 165570, Control_c, 0, 64, 76
1, 165579, Note_off_c, 0, 64, 68
1, 165580, Note_on_c, 0, 60, 41
1, 165580, Note_off_c, 0, 66, 70
1, 165584, Control_c, 0, 64, 91
1, 165586, Note_off_c, 0, 69, 66
1, 165586, Note_off_c, 0, 76, 62
1, 165599, Control_c, 0, 64, 107
1, 165603, Note_off_c, 0, 54, 60
1, 165610, Note_off_c, 0, 60, 55
1, 165614, Control_c, 0, 64, 117
1, 165629, Control_c, 0, 64, 127
1, 165634, Poly_aftertouch_c, 0, 73, 127
1, 165657, Note_on_c, 0, 75, 87
1, 165658, Note_on_c, 0, 66, 87
1, 165663, Note_on_c, 0, 63, 78
1, 165669, Note_on_c, 0, 72, 80
1, 165680, Poly_aftertouch_c, 0, 73, 0
1, 165696, Note_on_c, 0, 56, 50
1, 165698, Note_on_c, 0, 60, 48
1, 165700, Note_off_c, 0, 66, 65
1, 165700, Note_off_c, 0, 63, 62
1, 165703, Note_off_c, 0, 72, 68
1, 165714, Note_off_c, 0, 75, 65
1, 165723, Note_off_c, 0, 56, 56
1, 165724, Note_off_c, 0, 60, 55
1, 165756, Control_c, 0, 64, 99
1, 165771, Control_c, 0, 64, 73
1, 165776, Note_on_c, 0, 74, 85
1, 165777, Note_on_c, 0, 62, 76
1, 165777, Note_on_c, 0, 72, 89
1, 165779, Note_on_c, 0, 66, 93
1, 165786, Control_c, 0, 64, 0
1, 165791, Note_on_c, 0, 57, 57
1, 165801, Note_off_c, 0, 62, 67
1, 165802, Note_on_c, 0, 60, 53
1, 165804, Note_off_c, 0, 66, 66
1, 165818, Note_off_c, 0, 74, 64
1, 165827, Note_off_c, 0, 57, 64
1, 165827, Note_off_c, 0, 60, 58
1, 165829, Note_off_c, 0, 72, 65
1, 165860, Control_c, 0, 64, 64
1, 165874, Control_c, 0, 64, 89
1, 165878, Note_on_c, 0, 75, 98
1, 165879, Note_on_c, 0, 63, 87
1, 165880, Note_on_c, 0, 66, 99
1, 165889, Control_c, 0, 64, 127
1, 165890, Note_on_c, 0, 72, 73
1, 165902, Note_off_c, 0, 66, 67
1, 165904, Note_on_c, 0, 57, 51
1, 165918, Note_off_c, 0, 72, 67
1, 165926, Note_off_c, 0, 63, 60
1, 165929, Note_off_c, 0, 57, 54
1, 165934, Note_off_c, 0, 75, 67
1, 166065, Note_on_c, 0, 75, 89
1, 166069, Note_on_c, 0, 84, 81
1, 166075, Note_on_c, 0, 72, 81
1, 166077, Note_on_c, 0, 78, 71
1, 166081, Note_on_c, 0, 63, 59
1, 166082, Note_on_c, 0, 86, 59
1, 166086, Note_off_c, 0, 75, 69
1, 166090, Note_on_c, 0, 66, 50
1, 166103, Note_off_c, 0, 86, 63
1, 166104, Note_off_c, 0, 72, 66
1, 166104, Note_off_c, 0, 78, 67
1, 166104, Note_off_c, 0, 84, 60
1, 166113, Note_off_c, 0, 66, 66
1, 166114, Note_off_c, 0, 63, 62
1, 166196, Note_on_c, 0, 83, 87
1, 166198, Note_on_c, 0, 63, 70
1, 166198, Note_on_c, 0, 71, 69
1, 166202, Note_on_c, 0, 75, 77
1, 166205, Note_on_c, 0, 66, 46
1, 166207, Note_on_c, 0, 78, 68
1, 166221, Note_off_c, 0, 75, 70
1, 166227, Note_off_c, 0, 63, 63
1, 166228, Note_off_c, 0, 71, 66
1, 166232, Note_off_c, 0, 83, 63
1, 166233, Note_off_c, 0, 78, 67
1, 166237, Note_off_c, 0, 66, 66
1, 166299, Note_on_c, 0, 82, 88
1, 166303, Note_on_c, 0, 75, 77
1, 166304, Note_on_c, 0, 70, 75
1, 166308, Note_on_c, 0, 78, 65
1, 166314, Note_on_c, 0, 63, 66
1, 166324, Note_on_c, 0, 66, 52
1, 166325, Note_off_c, 0, 75, 65
1, 166334, Note_off_c, 0, 70, 63
1, 166334, Note_off_c, 0, 78, 67
1, 166343, Note_off_c, 0, 82, 64
1, 166351, Note_off_c, 0, 66, 58
1, 166357, Note_off_c, 0, 63, 61
1, 166397, Note_on_c, 0, 81, 100
1, 166406, Note_on_c, 0, 75, 75
1, 166406, Note_on_c, 0, 78, 66
1, 166406, Note_on_c, 0, 69, 64
1, 166427, Note_on_c, 0, 66, 67
1, 166433, Note_off_c, 0, 75, 72
1, 166439, Note_off_c, 0, 78, 66
1, 166442, Note_off_c, 0, 81, 61
1, 166449, Note_off_c, 0, 69, 60
1, 166486, Note_off_c, 0, 66, 55
1, 166510, Note_on_c, 0, 72, 95
1, 166516, Note_on_c, 0, 60, 68
1, 166555, Note_off_c, 0, 60, 59
1, 166557, Note_off_c, 0, 72, 66
1, 166653, Control_c, 0, 64, 89
1, 166668, Control_c, 0, 64, 66
1, 166674, Note_on_c, 0, 72, 87
1, 166679, Note_on_c, 0, 60, 61
1, 166683, Control_c, 0, 64, 0
1, 166713, Control_c, 0, 64, 41
1, 166728, Control_c, 0, 64, 65
1, 166736, Note_off_c, 0, 72, 64
1, 166741, Note_off_c, 0, 60, 55
1, 166743, Control_c, 0, 64, 75
1, 166757, Control_c, 0, 64, 90
1, 166772, Control_c, 0, 64, 108
1, 166787, Control_c, 0, 64, 122
1, 166802, Control_c, 0, 64, 127
1, 166802, Note_on_c, 0, 59, 66
1, 166804, Note_on_c, 0, 68, 75
1, 166809, Note_on_c, 0, 71, 68
1, 166811, Note_on_c, 0, 52, 56
1, 166829, Note_off_c, 0, 59, 68
1, 166834, Note_off_c, 0, 68, 65
1, 166838, Note_off_c, 0, 71, 67
1, 166852, Note_off_c, 0, 52, 61
1, 166910, Note_on_c, 0, 58, 74
1, 166910, Note_on_c, 0, 70, 77
1, 166919, Note_on_c, 0, 68, 69
1, 166919, Control_c, 0, 64, 105
1, 166921, Note_on_c, 0, 52, 60
1, 166934, Control_c, 0, 64, 82
1, 166936, Note_off_c, 0, 70, 69
1, 166940, Note_off_c, 0, 58, 63
1, 166942, Note_off_c, 0, 68, 71
1, 166948, Control_c, 0, 64, 64
1, 166951, Note_off_c, 0, 52, 62
1, 166963, Control_c, 0, 64, 0
1, 166978, Control_c, 0, 64, 24
1, 166993, Control_c, 0, 64, 64
1, 167008, Control_c, 0, 64, 73
1, 167010, Note_on_c, 0, 52, 70
1, 167020, Note_on_c, 0, 71, 74
1, 167021, Note_on_c, 0, 59, 59
1, 167022, Note_on_c, 0, 68, 74
1, 167023, Control_c, 0, 64, 87
1, 167038, Control_c, 0, 64, 107
1, 167047, Note_off_c, 0, 71, 69
1, 167048, Note_off_c, 0, 68, 67
1, 167051, Note_off_c, 0, 59, 66
1, 167053, Note_off_c, 0, 52, 56
1, 167053, Control_c, 0, 64, 127
1, 167116, Note_on_c, 0, 72, 96
1, 167124, Note_on_c, 0, 52, 66
1, 167124, Note_on_c, 0, 68, 72
1, 167126, Note_on_c, 0, 60, 70
1, 167150, Note_off_c, 0, 68, 65
1, 167155, Note_off_c, 0, 72, 67
1, 167157, Note_off_c, 0, 52, 60
1, 167160, Note_off_c, 0, 60, 62
1, 167238, Note_on_c, 0, 61, 73
1, 167238, Note_on_c, 0, 73, 81
1, 167242, Note_on_c, 0, 52, 59
1, 167242, Note_on_c, 0, 68, 86
1, 167267, Note_off_c, 0, 68, 64
1, 167273, Note_off_c, 0, 73, 60
1, 167283, Note_off_c, 0, 52, 60
1, 167287, Note_off_c, 0, 61, 56
1, 167331, Note_on_c, 0, 52, 67
1, 167340, Note_on_c, 0, 74, 80
1, 167341, Note_on_c, 0, 62, 72
1, 167343, Note_on_c, 0, 68, 83
1, 167365, Note_off_c, 0, 68, 68
1, 167371, Note_off_c, 0, 62, 64
1, 167377, Note_off_c, 0, 74, 64
1, 167379, Note_off_c, 0, 52, 58
1, 167440, Note_on_c, 0, 75, 93
1, 167447, Note_on_c, 0, 68, 88
1, 167456, Note_on_c, 0, 59, 62
1, 167456, Note_on_c, 0, 63, 69
1, 167458, Note_on_c, 0, 71, 64
1, 167458, Note_on_c, 0, 56, 64
1, 167472, Note_off_c, 0, 68, 65
1, 167486, Note_off_c, 0, 63, 65
1, 167488, Note_off_c, 0, 71, 66
1, 167488, Note_off_c, 0, 75, 62
1, 167497, Note_off_c, 0, 56, 62
1, 167497, Note_off_c, 0, 59, 57
1, 167549, Note_on_c, 0, 59, 57
1, 167549, Note_on_c, 0, 71, 78
1, 167550, Note_on_c, 0, 68, 90
1, 167552, Note_on_c, 0, 64, 76
1, 167553, Note_on_c, 0, 76, 83
1, 167571, Note_on_c, 0, 56, 40
1, 167574, Note_off_c, 0, 68, 68
1, 167578, Note_off_c, 0, 71, 69
1, 167579, Note_off_c, 0, 64, 67
1, 167579, Control_c, 0, 64, 88
1, 167580, Note_on_c, 0, 75, 24
1, 167583, Note_off_c, 0, 76, 64
1, 167593, Note_off_c, 0, 59, 63
1, 167594, Control_c, 0, 64, 64
1, 167596, Note_off_c, 0, 56, 54
1, 167601, Note_off_c, 0, 75, 34
1, 167609, Control_c, 0, 64, 0
1, 167639, Control_c, 0, 64, 55
1, 167653, Control_c, 0, 64, 67
1, 167655, Note_on_c, 0, 76, 88
1, 167656, Note_on_c, 0, 54, 75
1, 167657, Note_on_c, 0, 66, 92
1, 167660, Note_on_c, 0, 64, 77
1, 167662, Note_on_c, 0, 69, 79
1, 167668, Control_c, 0, 64, 78
1, 167679, Note_off_c, 0, 66, 68
1, 167683, Control_c, 0, 64, 94
1, 167686, Note_off_c, 0, 64, 67
1, 167687, Note_on_c, 0, 60, 41
1, 167687, Note_off_c, 0, 69, 69
1, 167687, Note_off_c, 0, 76, 60
1, 167697, Control_c, 0, 64, 111
1, 167704, Note_off_c, 0, 54, 57
1, 167712, Control_c, 0, 64, 121
1, 167716, Note_off_c, 0, 60, 52
1, 167727, Control_c, 0, 64, 127
1, 167756, Note_on_c, 0, 75, 71
1, 167756, Note_on_c, 0, 66, 98
1, 167765, Note_on_c, 0, 63, 79
1, 167765, Note_on_c, 0, 72, 85
1, 167786, Note_on_c, 0, 56, 47
1, 167789, Note_on_c, 0, 60, 55
1, 167794, Note_off_c, 0, 72, 66
1, 167795, Note_off_c, 0, 63, 61
1, 167797, Note_off_c, 0, 66, 66
1, 167806, Note_off_c, 0, 75, 64
1, 167813, Note_off_c, 0, 56, 61
1, 167813, Note_off_c, 0, 60, 61
1, 167860, Control_c, 0, 64, 107
1, 167867, Note_on_c, 0, 74, 86
1, 167869, Note_on_c, 0, 62, 78
1, 167870, Note_on_c, 0, 66, 96
1, 167875, Control_c, 0, 64, 79
1, 167877, Note_on_c, 0, 72, 86
1, 167878, Note_on_c, 0, 60, 67
1, 167878, Note_on_c, 0, 57, 69
1, 167890, Control_c, 0, 64, 0
1, 167894, Note_off_c, 0, 62, 66
1, 167899, Note_off_c, 0, 66, 60
1, 167908, Note_off_c, 0, 60, 65
1, 167911, Note_off_c, 0, 74, 64
1, 167928, Note_off_c, 0, 57, 58
1, 167937, Note_off_c, 0, 72, 64
1, 167971, Control_c, 0, 64, 63
1, 167980, Note_on_c, 0, 63, 93
1, 167980, Note_on_c, 0, 75, 97
1, 167986, Note_on_c, 0, 66, 102
1, 167986, Control_c, 0, 64, 97
1, 167988, Note_on_c, 0, 72, 75
1, 167996, Note_on_c, 0, 57, 55
1, 168001, Control_c, 0, 64, 127
1, 168005, Note_off_c, 0, 66, 71
1, 168015, Note_off_c, 0, 72, 67
1, 168024, Note_off_c, 0, 57, 64
1, 168025, Note_off_c, 0, 63, 63
1, 168036, Note_off_c, 0, 75, 69
1, 168167, Note_on_c, 0, 84, 91
1, 168168, Note_on_c, 0, 75, 92
1, 168176, Note_on_c, 0, 72, 82
1, 168178, Note_on_c, 0, 66, 64
1, 168179, Note_on_c, 0, 63, 60
1, 168182, Note_on_c, 0, 78, 72
1, 168194, Note_off_c, 0, 75, 63
1, 168199, Note_off_c, 0, 72, 69
1, 168204, Note_off_c, 0, 66, 65
1, 168210, Note_off_c, 0, 63, 60
1, 168210, Note_off_c, 0, 78, 66
1, 168210, Note_off_c, 0, 84, 62
1, 168294, Note_on_c, 0, 71, 76
1, 168298, Note_on_c, 0, 63, 67
1, 168303, Note_on_c, 0, 83, 82
1, 168304, Note_on_c, 0, 75, 82
1, 168315, Note_on_c, 0, 78, 68
1, 168318, Note_on_c, 0, 66, 43
1, 168325, Note_off_c, 0, 75, 67
1, 168329, Note_off_c, 0, 63, 62
1, 168332, Note_off_c, 0, 71, 60
1, 168334, Note_off_c, 0, 83, 67
1, 168341, Note_off_c, 0, 78, 66
1, 168344, Note_off_c, 0, 66, 59
1, 168404, Note_on_c, 0, 82, 82
1, 168406, Note_on_c, 0, 70, 73
1, 168411, Note_on_c, 0, 75, 77
1, 168412, Note_on_c, 0, 78, 71
1, 168417, Note_on_c, 0, 63, 63
1, 168430, Note_off_c, 0, 75, 70
1, 168435, Note_on_c, 0, 66, 49
1, 168439, Note_off_c, 0, 78, 66
1, 168440, Note_off_c, 0, 70, 63
1, 168450, Note_off_c, 0, 82, 66
1, 168458, Note_off_c, 0, 66, 59
1, 168470, Note_off_c, 0, 63, 51
1, 168506, Note_on_c, 0, 69, 67
1, 168507, Note_on_c, 0, 81, 102
1, 168513, Note_on_c, 0, 78, 65
1, 168515, Note_on_c, 0, 75, 70
1, 168516, Note_on_c, 0, 63, 40
1, 168534, Note_off_c, 0, 69, 66
1, 168537, Note_off_c, 0, 75, 67
1, 168539, Note_off_c, 0, 78, 66
1, 168541, Note_off_c, 0, 81, 63
1, 168545, Note_off_c, 0, 63, 55
1, 168618, Note_on_c, 0, 75, 82
1, 168624, Note_on_c, 0, 78, 81
1, 168626, Note_on_c, 0, 57, 66
1, 168626, Note_on_c, 0, 72, 89
1, 168636, Note_on_c, 0, 66, 72
1, 168637, Note_on_c, 0, 63, 48
1, 168647, Note_off_c, 0, 72, 70
1, 168657, Note_off_c, 0, 57, 65
1, 168661, Note_off_c, 0, 75, 63
1, 168665, Note_off_c, 0, 66, 68
1, 168674, Note_off_c, 0, 78, 60
1, 168675, Note_off_c, 0, 63, 65
1, 168780, Note_on_c, 0, 74, 80
1, 168782, Note_on_c, 0, 78, 83
1, 168784, Note_on_c, 0, 71, 74
1, 168799, Note_on_c, 0, 61, 43
1, 168802, Note_on_c, 0, 56, 53
1, 168810, Note_off_c, 0, 71, 70
1, 168810, Note_off_c, 0, 78, 59
1, 168825, Note_off_c, 0, 74, 61
1, 168833, Note_off_c, 0, 56, 56
1, 168838, Note_on_c, 0, 62, 22
1, 168840, Note_on_c, 0, 65, 10
1, 168845, Note_off_c, 0, 61, 44
1, 168886, Note_off_c, 0, 62, 0
1, 168895, Note_off_c, 0, 65, 0
1, 168895, Note_on_c, 0, 65, 31
1, 168898, Note_on_c, 0, 77, 85
1, 168901, Note_on_c, 0, 68, 94
1, 168902, Note_on_c, 0, 62, 41
1, 168904, Note_on_c, 0, 74, 77
1, 168910, Note_on_c, 0, 58, 65
1, 168925, Note_off_c, 0, 68, 65
1, 168925, Note_off_c, 0, 77, 62
1, 168940, Note_off_c, 0, 62, 61
1, 168941, Note_off_c, 0, 65, 64
1, 168944, Note_off_c, 0, 58, 63
1, 168951, Note_off_c, 0, 74, 65
1, 168999, Note_on_c, 0, 74, 71
1, 169002, Note_on_c, 0, 76, 85
1, 169004, Note_on_c, 0, 68, 90
1, 169004, Control_c, 0, 64, 86
1, 169011, Note_on_c, 0, 64, 78
1, 169018, Control_c, 0, 64, 0
1, 169019, Note_on_c, 0, 59, 60
1, 169019, Note_on_c, 0, 62, 69
1, 169020, Note_off_c, 0, 68, 70
1, 169035, Note_off_c, 0, 64, 69
1, 169044, Note_off_c, 0, 74, 63
1, 169044, Note_off_c, 0, 76, 64
1, 169047, Note_off_c, 0, 62, 65
1, 169051, Note_off_c, 0, 59, 66
1, 169092, Control_c, 0, 64, 75
1, 169094, Note_on_c, 0, 77, 94
1, 169096, Note_on_c, 0, 68, 107
1, 169100, Note_on_c, 0, 65, 89
1, 169102, Note_on_c, 0, 59, 76
1, 169107, Control_c, 0, 64, 127
1, 169111, Note_on_c, 0, 62, 58
1, 169131, Note_off_c, 0, 68, 66
1, 169133, Note_off_c, 0, 62, 60
1, 169134, Note_off_c, 0, 59, 65
1, 169137, Note_off_c, 0, 77, 66
1, 169146, Note_off_c, 0, 65, 65
1, 169267, Note_on_c, 0, 86, 91
1, 169275, Note_on_c, 0, 77, 79
1, 169278, Note_on_c, 0, 80, 76
1, 169285, Note_on_c, 0, 65, 68
1, 169288, Note_on_c, 0, 74, 63
1, 169291, Note_off_c, 0, 86, 61
1, 169298, Note_off_c, 0, 77, 67
1, 169299, Note_on_c, 0, 68, 54
1, 169303, Note_off_c, 0, 80, 69
1, 169307, Note_off_c, 0, 74, 64
1, 169323, Note_off_c, 0, 65, 60
1, 169323, Note_off_c, 0, 68, 66
1, 169381, Note_on_c, 0, 77, 73
1, 169385, Note_on_c, 0, 85, 86
1, 169385, Note_on_c, 0, 68, 58
1, 169387, Note_on_c, 0, 80, 74
1, 169391, Note_on_c, 0, 73, 71
1, 169401, Note_on_c, 0, 65, 64
1, 169410, Note_off_c, 0, 80, 69
1, 169421, Note_off_c, 0, 85, 60
1, 169424, Note_off_c, 0, 77, 66
1, 169430, Note_off_c, 0, 68, 60
1, 169430, Note_off_c, 0, 73, 62
1, 169432, Note_off_c, 0, 65, 71
1, 169496, Note_on_c, 0, 84, 90
1, 169497, Note_on_c, 0, 80, 85
1, 169502, Note_on_c, 0, 72, 75
1, 169504, Note_on_c, 0, 77, 78
1, 169524, Note_off_c, 0, 84, 62
1, 169524, Note_off_c, 0, 77, 70
1, 169527, Note_on_c, 0, 65, 49
1, 169534, Note_off_c, 0, 80, 57
1, 169537, Note_off_c, 0, 72, 60
1, 169542, Note_on_c, 0, 68, 28
1, 169550, Note_off_c, 0, 65, 58
1, 169589, Note_off_c, 0, 68, 48
1, 169593, Note_on_c, 0, 80, 78
1, 169595, Note_on_c, 0, 77, 73
1, 169597, Note_on_c, 0, 83, 84
1, 169600, Note_on_c, 0, 71, 65
1, 169621, Note_off_c, 0, 83, 69
1, 169622, Note_off_c, 0, 77, 64
1, 169627, Note_off_c, 0, 80, 64
1, 169629, Note_off_c, 0, 71, 67
1, 169637, Note_on_c, 0, 65, 43
1, 169661, Note_off_c, 0, 65, 59
1, 169726, Note_on_c, 0, 80, 91
1, 169730, Note_on_c, 0, 74, 74
1, 169732, Note_on_c, 0, 76, 74
1, 169747, Note_on_c, 0, 59, 50
1, 169756, Note_on_c, 0, 68, 48
1, 169756, Note_off_c, 0, 74, 68
1, 169759, Note_off_c, 0, 76, 64
1, 169786, Note_off_c, 0, 68, 54
1, 169790, Note_off_c, 0, 59, 63
1, 169793, Note_off_c, 0, 80, 63
1, 169804, Poly_aftertouch_c, 0, 64, 127
1, 169820, Poly_aftertouch_c, 0, 60, 127
1, 169843, Poly_aftertouch_c, 0, 60, 0
1, 169862, Poly_aftertouch_c, 0, 64, 0
1, 169877, Note_on_c, 0, 80, 83
1, 169878, Note_on_c, 0, 64, 38
1, 169878, Note_on_c, 0, 68, 75
1, 169878, Note_on_c, 0, 76, 75
1, 169882, Note_on_c, 0, 73, 78
1, 169888, Note_on_c, 0, 58, 67
1, 169904, Note_off_c, 0, 76, 67
1, 169908, Note_off_c, 0, 64, 65
1, 169913, Note_off_c, 0, 73, 61
1, 169922, Note_off_c, 0, 68, 61
1, 169923, Note_off_c, 0, 58, 64
1, 169923, Note_off_c, 0, 80, 62
1, 169999, Note_on_c, 0, 70, 91
1, 169999, Note_on_c, 0, 76, 83
1, 169999, Note_on_c, 0, 79, 78
1, 170000, Note_on_c, 0, 67, 79
1, 170005, Note_on_c, 0, 60, 66
1, 170007, Note_on_c, 0, 64, 58
1, 170024, Note_off_c, 0, 79, 67
1, 170031, Note_off_c, 0, 67, 61
1, 170033, Note_off_c, 0, 70, 60
1, 170042, Note_off_c, 0, 76, 65
1, 170042, Note_off_c, 0, 60, 58
1, 170046, Note_off_c, 0, 64, 63
1, 170093, Control_c, 0, 64, 88
1, 170093, Note_on_c, 0, 66, 85
1, 170094, Note_on_c, 0, 78, 82
1, 170098, Note_on_c, 0, 76, 81
1, 170099, Note_on_c, 0, 70, 91
1, 170105, Note_on_c, 0, 64, 63
1, 170108, Control_c, 0, 64, 44
1, 170120, Note_on_c, 0, 61, 61
1, 170120, Note_off_c, 0, 70, 67
1, 170123, Control_c, 0, 64, 0
1, 170127, Note_off_c, 0, 76, 67
1, 170138, Note_off_c, 0, 64, 67
1, 170143, Note_off_c, 0, 78, 63
1, 170146, Note_off_c, 0, 66, 65
1, 170150, Note_off_c, 0, 61, 65
1, 170189, Control_c, 0, 64, 77
1, 170194, Note_on_c, 0, 67, 96
1, 170195, Note_on_c, 0, 79, 99
1, 170200, Note_on_c, 0, 70, 106
1, 170203, Note_on_c, 0, 61, 83
1, 170204, Control_c, 0, 64, 127
1, 170220, Note_off_c, 0, 70, 68
1, 170229, Note_off_c, 0, 61, 64
1, 170231, Note_off_c, 0, 79, 65
1, 170235, Note_off_c, 0, 67, 66
1, 170358, Note_on_c, 0, 88, 94
1, 170363, Note_on_c, 0, 79, 86
1, 170364, Note_on_c, 0, 76, 82
1, 170368, Note_on_c, 0, 82, 72
1, 170372, Note_on_c, 0, 67, 64
1, 170381, Note_off_c, 0, 79, 69
1, 170388, Note_on_c, 0, 70, 50
1, 170388, Note_off_c, 0, 76, 66
1, 170391, Note_off_c, 0, 82, 70
1, 170395, Note_off_c, 0, 67, 66
1, 170395, Note_off_c, 0, 88, 61
1, 170406, Note_off_c, 0, 70, 65
1, 170475, Note_on_c, 0, 87, 89
1, 170478, Note_on_c, 0, 79, 78
1, 170479, Note_on_c, 0, 70, 57
1, 170481, Note_on_c, 0, 82, 64
1, 170484, Note_on_c, 0, 75, 66
1, 170487, Note_on_c, 0, 67, 64
1, 170502, Note_off_c, 0, 79, 67
1, 170506, Note_off_c, 0, 82, 68
1, 170507, Note_off_c, 0, 70, 65
1, 170511, Note_off_c, 0, 87, 59
1, 170513, Note_off_c, 0, 75, 65
1, 170520, Note_off_c, 0, 67, 63
1, 170576, Note_on_c, 0, 86, 93
1, 170579, Note_on_c, 0, 82, 76
1, 170579, Note_on_c, 0, 79, 81
1, 170582, Note_on_c, 0, 74, 71
1, 170598, Note_on_c, 0, 67, 54
1, 170603, Note_off_c, 0, 79, 68
1, 170606, Note_off_c, 0, 82, 62
1, 170611, Note_off_c, 0, 86, 62
1, 170612, Note_off_c, 0, 74, 61
1, 170615, Note_on_c, 0, 70, 47
1, 170625, Note_off_c, 0, 67, 59
1, 170678, Note_on_c, 0, 82, 84
1, 170680, Note_on_c, 0, 85, 87
1, 170683, Note_on_c, 0, 79, 76
1, 170694, Note_on_c, 0, 73, 69
1, 170701, Note_off_c, 0, 70, 30
1, 170704, Note_off_c, 0, 85, 63
1, 170707, Note_off_c, 0, 79, 67
1, 170709, Note_off_c, 0, 82, 62
1, 170721, Note_off_c, 0, 73, 69
1, 170791, Note_on_c, 0, 82, 97
1, 170794, Note_on_c, 0, 79, 70
1, 170798, Note_on_c, 0, 76, 76
1, 170815, Note_on_c, 0, 70, 74
1, 170818, Note_off_c, 0, 76, 66
1, 170826, Note_on_c, 0, 67, 63
1, 170826, Note_on_c, 0, 61, 60
1, 170826, Note_off_c, 0, 79, 64
1, 170843, Note_off_c, 0, 82, 62
1, 170857, Note_off_c, 0, 70, 53
1, 170862, Note_off_c, 0, 61, 62
1, 170883, Note_off_c, 0, 67, 59
1, 170948, Note_on_c, 0, 81, 105
1, 170955, Note_on_c, 0, 75, 87
1, 170963, Note_on_c, 0, 78, 73
1, 170968, Note_on_c, 0, 69, 78
1, 170970, Note_on_c, 0, 66, 72
1, 170975, Note_on_c, 0, 60, 65
1, 170978, Note_off_c, 0, 75, 64
1, 170987, Note_off_c, 0, 78, 67
1, 170987, Note_off_c, 0, 81, 66
1, 171003, Note_off_c, 0, 66, 66
1, 171004, Note_off_c, 0, 69, 59
1, 171011, Note_off_c, 0, 60, 60
1, 171071, Note_on_c, 0, 80, 88
1, 171074, Note_on_c, 0, 72, 94
1, 171074, Note_on_c, 0, 78, 75
1, 171088, Note_on_c, 0, 68, 79
1, 171091, Note_on_c, 0, 62, 67
1, 171095, Note_on_c, 0, 66, 69
1, 171098, Note_off_c, 0, 72, 67
1, 171098, Note_off_c, 0, 78, 66
1, 171109, Note_off_c, 0, 80, 60
1, 171122, Note_off_c, 0, 62, 63
1, 171122, Note_off_c, 0, 66, 65
1, 171126, Note_off_c, 0, 68, 61
1, 171178, Note_on_c, 0, 72, 105
1, 171178, Note_on_c, 0, 78, 87
1, 171178, Note_on_c, 0, 79, 90
1, 171188, Note_on_c, 0, 66, 82
1, 171188, Note_on_c, 0, 67, 83
1, 171189, Control_c, 0, 64, 86
1, 171190, Note_on_c, 0, 63, 79
1, 171202, Note_off_c, 0, 72, 66
1, 171202, Note_off_c, 0, 79, 65
1, 171203, Note_off_c, 0, 78, 63
1, 171204, Control_c, 0, 64, 0
1, 171210, Note_off_c, 0, 67, 70
1, 171214, Note_off_c, 0, 66, 64
1, 171227, Note_off_c, 0, 63, 63
1, 171271, Note_on_c, 0, 63, 78
1, 171272, Note_on_c, 0, 80, 98
1, 171274, Note_on_c, 0, 72, 103
1, 171274, Note_on_c, 0, 78, 101
1, 171274, Note_on_c, 0, 68, 87
1, 171278, Control_c, 0, 64, 73
1, 171290, Note_on_c, 0, 66, 70
1, 171291, Note_off_c, 0, 72, 73
1, 171294, Control_c, 0, 64, 127
1, 171309, Note_off_c, 0, 63, 61
1, 171312, Note_off_c, 0, 66, 66
1, 171312, Note_off_c, 0, 78, 66
1, 171315, Note_off_c, 0, 80, 66
1, 171324, Note_off_c, 0, 68, 64
1, 171445, Note_on_c, 0, 90, 101
1, 171449, Note_on_c, 0, 81, 100
1, 171450, Note_on_c, 0, 84, 87
1, 171451, Note_on_c, 0, 78, 79
1, 171459, Note_on_c, 0, 69, 66
1, 171461, Note_on_c, 0, 72, 66
1, 171469, Note_off_c, 0, 81, 67
1, 171469, Note_off_c, 0, 84, 71
1, 171473, Note_off_c, 0, 90, 60
1, 171478, Note_off_c, 0, 78, 66
1, 171488, Note_off_c, 0, 72, 69
1, 171491, Note_off_c, 0, 69, 65
1, 171565, Note_on_c, 0, 89, 97
1, 171567, Note_on_c, 0, 77, 72
1, 171567, Note_on_c, 0, 81, 95
1, 171568, Note_on_c, 0, 69, 70
1, 171569, Note_on_c, 0, 72, 73
1, 171572, Note_on_c, 0, 84, 83
1, 171589, Note_off_c, 0, 84, 72
1, 171592, Note_off_c, 0, 77, 66
1, 171592, Note_off_c, 0, 81, 65
1, 171598, Note_off_c, 0, 69, 64
1, 171601, Note_off_c, 0, 89, 62
1, 171601, Note_off_c, 0, 72, 64
1, 171674, Note_on_c, 0, 72, 73
1, 171675, Note_on_c, 0, 76, 72
1, 171675, Note_on_c, 0, 88, 102
1, 171676, Note_on_c, 0, 84, 79
1, 171678, Note_on_c, 0, 69, 70
1, 171679, Note_on_c, 0, 81, 101
1, 171700, Note_off_c, 0, 81, 68
1, 171703, Note_off_c, 0, 76, 65
1, 171706, Note_off_c, 0, 69, 66
1, 171709, Note_off_c, 0, 88, 64
1, 171709, Note_off_c, 0, 72, 58
1, 171710, Note_off_c, 0, 84, 65
1, 171778, Note_on_c, 0, 87, 94
1, 171779, Note_on_c, 0, 75, 73
1, 171787, Note_on_c, 0, 84, 78
1, 171789, Note_on_c, 0, 81, 81
1, 171791, Note_on_c, 0, 72, 55
1, 171801, Note_on_c, 0, 69, 44
1, 171804, Note_off_c, 0, 81, 69
1, 171807, Note_off_c, 0, 84, 71
1, 171813, Note_off_c, 0, 87, 63
1, 171815, Note_off_c, 0, 72, 63
1, 171820, Note_off_c, 0, 69, 61
1, 171836, Note_off_c, 0, 75, 63
1, 171887, Note_on_c, 0, 72, 79
1, 171890, Note_on_c, 0, 69, 68
1, 171905, Note_on_c, 0, 84, 79
1, 171911, Note_on_c, 0, 75, 84
1, 171915, Note_on_c, 0, 83, 69
1, 171930, Note_off_c, 0, 75, 70
1, 171932, Note_off_c, 0, 72, 63
1, 171935, Note_off_c, 0, 83, 61
1, 171936, Note_off_c, 0, 69, 61
1, 171937, Note_off_c, 0, 84, 64
1, 171941, Note_on_c, 0, 78, 23
1, 171947, Note_on_c, 0, 77, 43
1, 171974, Note_off_c, 0, 77, 53
1, 171980, Note_off_c, 0, 78, 53
1, 172013, Control_c, 0, 64, 114
1, 172028, Control_c, 0, 64, 82
1, 172043, Control_c, 0, 64, 54
1, 172057, Control_c, 0, 64, 0
1, 172059, Note_on_c, 0, 69, 79
1, 172060, Note_on_c, 0, 66, 84
1, 172060, Note_on_c, 0, 81, 104
1, 172063, Note_on_c, 0, 75, 95
1, 172064, Note_on_c, 0, 60, 72
1, 172066, Note_on_c, 0, 78, 77
1, 172072, Control_c, 0, 64, 33
1, 172087, Control_c, 0, 64, 66
1, 172096, Note_off_c, 0, 69, 58
1, 172098, Note_off_c, 0, 78, 61
1, 172102, Control_c, 0, 64, 78
1, 172105, Note_off_c, 0, 75, 65
1, 172108, Note_off_c, 0, 81, 64
1, 172111, Note_off_c, 0, 66, 63
1, 172117, Note_off_c, 0, 60, 56
1, 172117, Control_c, 0, 64, 100
1, 172132, Control_c, 0, 64, 127
1, 172205, Note_on_c, 0, 62, 66
1, 172207, Note_on_c, 0, 72, 94
1, 172210, Note_on_c, 0, 80, 84
1, 172211, Note_on_c, 0, 66, 77
1, 172211, Note_on_c, 0, 78, 78
1, 172215, Note_on_c, 0, 68, 68
1, 172232, Note_off_c, 0, 72, 66
1, 172236, Note_off_c, 0, 62, 65
1, 172236, Note_off_c, 0, 78, 68
1, 172239, Note_off_c, 0, 80, 60
1, 172245, Note_off_c, 0, 66, 64
1, 172246, Note_off_c, 0, 68, 67
1, 172317, Note_on_c, 0, 63, 79
1, 172317, Note_on_c, 0, 67, 81
1, 172317, Note_on_c, 0, 78, 86
1, 172318, Note_on_c, 0, 72, 98
1, 172319, Note_on_c, 0, 79, 90
1, 172325, Note_on_c, 0, 66, 67
1, 172340, Control_c, 0, 64, 91
1, 172341, Note_off_c, 0, 67, 67
1, 172342, Note_off_c, 0, 79, 67
1, 172344, Note_off_c, 0, 72, 64
1, 172350, Note_off_c, 0, 78, 59
1, 172355, Control_c, 0, 64, 65
1, 172356, Note_off_c, 0, 66, 66
1, 172369, Note_off_c, 0, 63, 64
1, 172369, Control_c, 0, 64, 0
1, 172399, Control_c, 0, 64, 53
1, 172421, Control_c, 0, 64, 72
1, 172424, Note_on_c, 0, 80, 98
1, 172424, Note_on_c, 0, 72, 103
1, 172426, Note_on_c, 0, 63, 76
1, 172426, Note_on_c, 0, 68, 92
1, 172428, Note_on_c, 0, 78, 93
1, 172435, Note_on_c, 0, 66, 69
1, 172436, Control_c, 0, 64, 97
1, 172441, Note_off_c, 0, 72, 73
1, 172451, Control_c, 0, 64, 127
1, 172460, Note_off_c, 0, 66, 68
1, 172466, Note_off_c, 0, 63, 64
1, 172466, Note_off_c, 0, 78, 64
1, 172466, Note_off_c, 0, 80, 67
1, 172487, Note_off_c, 0, 68, 61
1, 172618, Note_on_c, 0, 90, 109
1, 172621, Note_on_c, 0, 81, 98
1, 172624, Note_on_c, 0, 84, 91
1, 172630, Note_on_c, 0, 78, 82
1, 172636, Note_on_c, 0, 69, 79
1, 172643, Note_off_c, 0, 84, 72
1, 172645, Note_off_c, 0, 81, 67
1, 172651, Note_on_c, 0, 72, 51
1, 172652, Note_off_c, 0, 90, 66
1, 172674, Note_off_c, 0, 78, 62
1, 172683, Note_off_c, 0, 72, 65
1, 172687, Note_off_c, 0, 69, 61
1, 172767, Note_on_c, 0, 72, 67
1, 172767, Note_on_c, 0, 89, 102
1, 172771, Note_on_c, 0, 81, 101
1, 172772, Note_on_c, 0, 77, 73
1, 172775, Note_on_c, 0, 84, 86
1, 172784, Note_on_c, 0, 69, 60
1, 172792, Note_off_c, 0, 81, 70
1, 172793, Note_off_c, 0, 84, 72
1, 172800, Note_off_c, 0, 77, 66
1, 172800, Note_off_c, 0, 89, 62
1, 172803, Note_off_c, 0, 72, 62
1, 172809, Note_off_c, 0, 69, 65
1, 172871, Note_on_c, 0, 69, 65
1, 172879, Note_on_c, 0, 84, 79
1, 172879, Note_on_c, 0, 88, 96
1, 172880, Note_on_c, 0, 76, 73
1, 172880, Note_on_c, 0, 81, 99
1, 172886, Note_on_c, 0, 72, 73
1, 172904, Note_off_c, 0, 81, 68
1, 172905, Note_off_c, 0, 76, 68
1, 172909, Note_off_c, 0, 84, 66
1, 172909, Note_off_c, 0, 88, 62
1, 172919, Note_off_c, 0, 69, 58
1, 172921, Note_off_c, 0, 72, 60
1, 172983, Note_on_c, 0, 87, 87
1, 172984, Note_on_c, 0, 81, 90
1, 172986, Note_on_c, 0, 84, 80
1, 172987, Note_on_c, 0, 75, 72
1, 172992, Note_on_c, 0, 72, 56
1, 173005, Note_off_c, 0, 81, 69
1, 173005, Note_off_c, 0, 87, 65
1, 173009, Note_off_c, 0, 84, 69
1, 173021, Note_off_c, 0, 72, 65
1, 173037, Note_off_c, 0, 75, 62
1, 173044, Poly_aftertouch_c, 0, 69, 127
1, 173078, Poly_aftertouch_c, 0, 69, 0
1, 173095, Note_on_c, 0, 69, 40
1, 173097, Note_on_c, 0, 72, 74
1, 173098, Note_on_c, 0, 84, 79
1, 173110, Note_on_c, 0, 75, 78
1, 173122, Note_on_c, 0, 78, 69
1, 173125, Note_off_c, 0, 72, 66
1, 173133, Note_off_c, 0, 75, 65
1, 173137, Note_off_c, 0, 69, 64
1, 173152, Note_off_c, 0, 78, 65
1, 173156, Note_off_c, 0, 84, 62
1, 173259, Control_c, 0, 64, 96
1, 173274, Control_c, 0, 64, 71
1, 173274, Note_on_c, 0, 71, 60
1, 173274, Note_on_c, 0, 83, 81
1, 173282, Note_on_c, 0, 75, 72
1, 173288, Note_on_c, 0, 78, 65
1, 173289, Control_c, 0, 64, 0
1, 173291, Note_on_c, 0, 66, 54
1, 173307, Note_off_c, 0, 75, 65
1, 173315, Note_off_c, 0, 78, 65
1, 173318, Control_c, 0, 64, 55
1, 173324, Note_off_c, 0, 71, 52
1, 173329, Note_off_c, 0, 83, 67
1, 173332, Note_off_c, 0, 66, 61
1, 173333, Control_c, 0, 64, 69
1, 173348, Control_c, 0, 64, 86
1, 173362, Control_c, 0, 64, 127
1, 173393, Note_on_c, 0, 82, 74
1, 173394, Note_on_c, 0, 70, 67
1, 173394, Note_on_c, 0, 78, 67
1, 173396, Note_on_c, 0, 75, 64
1, 173400, Note_on_c, 0, 63, 56
1, 173420, Note_off_c, 0, 82, 64
1, 173422, Note_off_c, 0, 78, 67
1, 173425, Note_off_c, 0, 75, 67
1, 173428, Note_off_c, 0, 70, 63
1, 173444, Note_off_c, 0, 63, 61
1, 173506, Note_on_c, 0, 81, 85
1, 173508, Note_on_c, 0, 66, 72
1, 173510, Note_on_c, 0, 75, 65
1, 173513, Note_on_c, 0, 72, 73
1, 173525, Note_on_c, 0, 69, 44
1, 173532, Note_off_c, 0, 81, 67
1, 173533, Note_off_c, 0, 75, 65
1, 173543, Note_off_c, 0, 72, 66
1, 173545, Note_off_c, 0, 66, 56
1, 173554, Note_off_c, 0, 69, 54
1, 173607, Note_on_c, 0, 63, 67
1, 173608, Note_on_c, 0, 75, 69
1, 173609, Note_on_c, 0, 68, 69
1, 173610, Note_on_c, 0, 80, 83
1, 173611, Note_on_c, 0, 72, 78
1, 173635, Note_off_c, 0, 80, 65
1, 173636, Note_off_c, 0, 75, 64
1, 173637, Note_off_c, 0, 72, 66
1, 173650, Note_off_c, 0, 68, 57
1, 173654, Note_off_c, 0, 63, 56
1, 173709, Note_on_c, 0, 75, 80
1, 173712, Note_on_c, 0, 72, 72
1, 173713, Note_on_c, 0, 79, 77
1, 173715, Note_on_c, 0, 60, 66
1, 173719, Note_on_c, 0, 67, 66
1, 173736, Note_off_c, 0, 75, 63
1, 173736, Note_off_c, 0, 79, 66
1, 173741, Note_off_c, 0, 72, 66
1, 173751, Note_off_c, 0, 67, 62
1, 173754, Note_off_c, 0, 60, 54
1, 173801, Note_on_c, 0, 63, 51
1, 173809, Note_on_c, 0, 66, 74
1, 173815, Note_on_c, 0, 78, 81
1, 173816, Note_on_c, 0, 72, 84
1, 173817, Note_on_c, 0, 69, 79
1, 173837, Note_off_c, 0, 72, 71
1, 173840, Note_off_c, 0, 78, 64
1, 173841, Note_off_c, 0, 69, 69
1, 173878, Note_off_c, 0, 66, 58
1, 173887, Note_off_c, 0, 63, 58
1, 173906, Note_on_c, 0, 60, 71
1, 173915, Note_on_c, 0, 69, 89
1, 173915, Note_on_c, 0, 72, 90
1, 173916, Note_on_c, 0, 77, 90
1, 173921, Note_on_c, 0, 65, 65
1, 173943, Note_off_c, 0, 69, 66
1, 173944, Note_off_c, 0, 60, 61
1, 173946, Note_off_c, 0, 65, 68
1, 173949, Note_off_c, 0, 72, 60
1, 173955, Note_off_c, 0, 77, 60
1, 174008, Note_on_c, 0, 76, 74
1, 174013, Note_on_c, 0, 72, 87
1, 174020, Note_on_c, 0, 57, 76
1, 174022, Note_on_c, 0, 69, 71
1, 174030, Note_on_c, 0, 64, 68
1, 174043, Note_off_c, 0, 69, 71
1, 174049, Note_off_c, 0, 72, 64
1, 174052, Note_off_c, 0, 76, 64
1, 174062, Note_off_c, 0, 64, 64
1, 174090, Note_off_c, 0, 57, 60
1, 174108, Note_on_c, 0, 63, 72
1, 174114, Note_on_c, 0, 75, 92
1, 174122, Note_on_c, 0, 60, 62
1, 174124, Note_on_c, 0, 66, 83
1, 174125, Note_on_c, 0, 69, 74
1, 174149, Note_off_c, 0, 66, 70
1, 174152, Note_off_c, 0, 69, 66
1, 174165, Note_off_c, 0, 75, 58
1, 174184, Note_off_c, 0, 63, 61
1, 174192, Note_on_c, 0, 62, 71
1, 174192, Note_off_c, 0, 60, 61
1, 174193, Note_on_c, 0, 57, 77
1, 174212, Note_on_c, 0, 74, 87
1, 174215, Note_on_c, 0, 69, 78
1, 174219, Note_on_c, 0, 66, 82
1, 174227, Note_off_c, 0, 62, 61
1, 174231, Note_off_c, 0, 57, 56
1, 174246, Note_off_c, 0, 69, 65
1, 174248, Note_off_c, 0, 66, 68
1, 174254, Note_off_c, 0, 74, 64
1, 174309, Note_on_c, 0, 61, 83
1, 174311, Note_on_c, 0, 66, 89
1, 174311, Note_on_c, 0, 73, 90
1, 174317, Note_on_c, 0, 54, 70
1, 174317, Note_on_c, 0, 69, 76
1, 174335, Note_off_c, 0, 66, 67
1, 174341, Note_off_c, 0, 69, 67
1, 174349, Note_off_c, 0, 73, 62
1, 174358, Note_off_c, 0, 61, 59
1, 174389, Note_off_c, 0, 54, 57
1, 174414, Note_on_c, 0, 72, 99
1, 174417, Note_on_c, 0, 63, 90
1, 174420, Note_on_c, 0, 57, 57
1, 174422, Note_on_c, 0, 60, 72
1, 174427, Note_on_c, 0, 66, 81
1, 174436, Note_off_c, 0, 63, 72
1, 174442, Note_off_c, 0, 60, 72
1, 174442, Note_off_c, 0, 72, 60
1, 174445, Note_off_c, 0, 57, 67
1, 174445, Note_off_c, 0, 66, 74
1, 174504, Note_on_c, 0, 54, 68
1, 174504, Note_on_c, 0, 71, 81
1, 174508, Note_on_c, 0, 63, 87
1, 174511, Note_on_c, 0, 66, 88
1, 174526, Note_on_c, 0, 59, 63
1, 174538, Note_off_c, 0, 63, 58
1, 174548, Note_off_c, 0, 59, 64
1, 174552, Note_off_c, 0, 66, 61
1, 174558, Note_off_c, 0, 54, 62
1, 174575, Note_off_c, 0, 71, 62
1, 174602, Poly_aftertouch_c, 0, 70, 0
1, 174606, Note_on_c, 0, 66, 79
1, 174608, Note_on_c, 0, 70, 61
1, 174609, Note_on_c, 0, 63, 79
1, 174612, Note_on_c, 0, 51, 81
1, 174616, Note_on_c, 0, 58, 74
1, 174632, Note_off_c, 0, 66, 70
1, 174635, Note_off_c, 0, 63, 66
1, 174641, Note_off_c, 0, 70, 68
1, 174647, Note_off_c, 0, 58, 63
1, 174678, Note_off_c, 0, 51, 61
1, 174714, Note_on_c, 0, 54, 74
1, 174716, Note_on_c, 0, 63, 72
1, 174719, Note_on_c, 0, 69, 82
1, 174720, Note_on_c, 0, 60, 80
1, 174722, Note_on_c, 0, 67, 83
1, 174724, Note_on_c, 0, 57, 69
1, 174742, Note_off_c, 0, 60, 70
1, 174742, Note_off_c, 0, 63, 65
1, 174746, Note_off_c, 0, 67, 66
1, 174749, Note_off_c, 0, 69, 63
1, 174751, Note_off_c, 0, 57, 66
1, 174760, Note_off_c, 0, 54, 61
1, 174803, Note_on_c, 0, 56, 80
1, 174811, Note_on_c, 0, 63, 82
1, 174812, Note_on_c, 0, 68, 88
1, 174813, Note_on_c, 0, 51, 69
1, 174815, Note_on_c, 0, 60, 80
1, 174846, Note_off_c, 0, 60, 64
1, 174846, Note_off_c, 0, 63, 60
1, 174848, Note_off_c, 0, 56, 63
1, 174856, Note_off_c, 0, 68, 57
1, 174858, Note_off_c, 0, 51, 63
1, 174907, Note_on_c, 0, 48, 79
1, 174907, Note_on_c, 0, 55, 75
1, 174907, Note_on_c, 0, 63, 85
1, 174909, Note_on_c, 0, 67, 84
1, 174914, Note_on_c, 0, 60, 72
1, 174930, Note_off_c, 0, 67, 68
1, 174937, Note_off_c, 0, 60, 70
1, 174942, Note_off_c, 0, 55, 63
1, 174947, Note_off_c, 0, 63, 60
1, 174954, Note_off_c, 0, 48, 60
1, 174994, Control_c, 0, 64, 120
1, 174998, Note_on_c, 0, 54, 80
1, 175003, Note_on_c, 0, 51, 76
1, 175008, Control_c, 0, 64, 84
1, 175016, Note_on_c, 0, 66, 89
1, 175018, Note_on_c, 0, 57, 85
1, 175018, Note_on_c, 0, 60, 84
1, 175023, Control_c, 0, 64, 57
1, 175035, Note_off_c, 0, 60, 73
1, 175038, Control_c, 0, 64, 0
1, 175041, Note_off_c, 0, 57, 69
1, 175043, Note_off_c, 0, 66, 64
1, 175050, Note_off_c, 0, 54, 63
1, 175068, Control_c, 0, 64, 35
1, 175068, Note_off_c, 0, 51, 59
1, 175082, Control_c, 0, 64, 69
1, 175097, Control_c, 0, 64, 85
1, 175102, Note_on_c, 0, 48, 71
1, 175104, Note_on_c, 0, 53, 74
1, 175110, Note_on_c, 0, 65, 100
1, 175111, Note_on_c, 0, 57, 88
1, 175112, Control_c, 0, 64, 127
1, 175113, Note_on_c, 0, 60, 85
1, 175131, Note_off_c, 0, 53, 66
1, 175135, Note_off_c, 0, 48, 65
1, 175137, Note_off_c, 0, 60, 68
1, 175138, Note_off_c, 0, 57, 59
1, 175149, Note_off_c, 0, 65, 64
1, 175207, Note_on_c, 0, 64, 76
1, 175214, Note_on_c, 0, 60, 80
1, 175217, Note_on_c, 0, 45, 77
1, 175217, Note_on_c, 0, 52, 74
1, 175218, Note_on_c, 0, 57, 76
1, 175238, Note_off_c, 0, 64, 66
1, 175243, Note_off_c, 0, 57, 68
1, 175244, Note_off_c, 0, 60, 65
1, 175248, Note_off_c, 0, 52, 64
1, 175258, Note_off_c, 0, 45, 52
1, 175312, Note_on_c, 0, 51, 74
1, 175314, Note_on_c, 0, 63, 95
1, 175315, Note_on_c, 0, 48, 69
1, 175317, Note_on_c, 0, 54, 94
1, 175321, Note_on_c, 0, 57, 80
1, 175343, Note_off_c, 0, 57, 68
1, 175351, Note_off_c, 0, 54, 61
1, 175359, Note_off_c, 0, 63, 62
1, 175390, Note_off_c, 0, 48, 57
1, 175392, Note_on_c, 0, 45, 72
1, 175396, Note_on_c, 0, 50, 75
1, 175398, Note_off_c, 0, 51, 60
1, 175425, Note_on_c, 0, 62, 89
1, 175429, Note_on_c, 0, 54, 81
1, 175430, Note_on_c, 0, 57, 84
1, 175435, Note_off_c, 0, 50, 66
1, 175450, Note_off_c, 0, 45, 61
1, 175454, Note_off_c, 0, 57, 65
1, 175455, Note_off_c, 0, 54, 64
1, 175468, Note_off_c, 0, 62, 60
1, 175488, Poly_aftertouch_c, 0, 46, 127
1, 175515, Note_on_c, 0, 49, 83
1, 175519, Note_on_c, 0, 61, 93
1, 175519, Poly_aftertouch_c, 0, 46, 0
1, 175523, Note_on_c, 0, 42, 65
1, 175526, Note_on_c, 0, 54, 76
1, 175536, Note_on_c, 0, 57, 61
1, 175548, Note_off_c, 0, 54, 69
1, 175564, Note_off_c, 0, 57, 65
1, 175567, Note_off_c, 0, 61, 61
1, 175572, Note_off_c, 0, 49, 60
1, 175592, Poly_aftertouch_c, 0, 58, 127
1, 175620, Note_on_c, 0, 45, 69
1, 175626, Note_on_c, 0, 48, 77
1, 175627, Note_on_c, 0, 60, 87
1, 175630, Note_on_c, 0, 51, 84
1, 175639, Poly_aftertouch_c, 0, 58, 0
1, 175640, Note_on_c, 0, 54, 75
1, 175643, Note_on_c, 0, 59, 51
1, 175646, Note_off_c, 0, 42, 59
1, 175649, Note_off_c, 0, 48, 68
1, 175654, Note_off_c, 0, 51, 67
1, 175658, Note_off_c, 0, 60, 57
1, 175664, Note_off_c, 0, 54, 68
1, 175667, Note_off_c, 0, 59, 58
1, 175670, Note_off_c, 0, 45, 61
1, 175721, Note_on_c, 0, 42, 79
1, 175721, Note_on_c, 0, 59, 90
1, 175724, Note_on_c, 0, 47, 75
1, 175730, Note_on_c, 0, 51, 83
1, 175733, Note_on_c, 0, 54, 82
1, 175751, Note_off_c, 0, 51, 68
1, 175751, Note_off_c, 0, 47, 65
1, 175757, Note_off_c, 0, 54, 67
1, 175772, Note_off_c, 0, 42, 62
1, 175784, Note_off_c, 0, 59, 62
1, 175787, Control_c, 0, 64, 98
1, 175801, Control_c, 0, 64, 86
1, 175816, Control_c, 0, 64, 83
1, 175828, Note_on_c, 0, 51, 86
1, 175831, Note_on_c, 0, 54, 75
1, 175833, Note_on_c, 0, 39, 78
1, 175838, Note_on_c, 0, 46, 77
1, 175846, Control_c, 0, 64, 87
1, 175860, Note_off_c, 0, 54, 66
1, 175861, Control_c, 0, 64, 93
1, 175869, Note_off_c, 0, 46, 65
1, 175869, Note_off_c, 0, 51, 64
1, 175870, Note_on_c, 0, 58, 6
1, 175876, Control_c, 0, 64, 101
1, 175890, Control_c, 0, 64, 110
1, 175905, Control_c, 0, 64, 120
1, 175908, Note_off_c, 0, 39, 60
1, 175918, Note_off_c, 0, 58, 56
1, 175920, Control_c, 0, 64, 127
1, 175934, Note_on_c, 0, 57, 94
1, 175938, Note_on_c, 0, 45, 89
1, 175942, Note_on_c, 0, 42, 72
1, 175944, Note_on_c, 0, 48, 80
1, 175948, Note_on_c, 0, 51, 75
1, 175970, Note_off_c, 0, 48, 67
1, 175973, Note_off_c, 0, 51, 68
1, 175986, Note_off_c, 0, 57, 63
1, 175990, Note_off_c, 0, 45, 60
1, 175994, Control_c, 0, 64, 112
1, 175997, Note_off_c, 0, 42, 58
1, 176009, Control_c, 0, 64, 92
1, 176024, Control_c, 0, 64, 71
1, 176038, Control_c, 0, 64, 0
1, 176073, Note_on_c, 0, 44, 87
1, 176076, Note_on_c, 0, 42, 79
1, 176076, Note_on_c, 0, 51, 91
1, 176077, Note_on_c, 0, 56, 85
1, 176079, Note_on_c, 0, 48, 79
1, 176099, Control_c, 0, 64, 59
1, 176113, Control_c, 0, 64, 70
1, 176117, Note_off_c, 0, 48, 59
1, 176128, Control_c, 0, 64, 82
1, 176135, Note_off_c, 0, 44, 61
1, 176142, Note_off_c, 0, 42, 61
1, 176143, Control_c, 0, 64, 97
1, 176148, Note_off_c, 0, 51, 62
1, 176165, Note_off_c, 0, 56, 62
1, 176165, Control_c, 0, 64, 105
1, 176180, Control_c, 0, 64, 107
1, 176195, Control_c, 0, 64, 107
1, 176210, Control_c, 0, 64, 108
1, 176225, Control_c, 0, 64, 110
1, 176240, Control_c, 0, 64, 114
1, 176247, Note_on_c, 0, 43, 89
1, 176248, Note_on_c, 0, 55, 97
1, 176255, Control_c, 0, 64, 119
1, 176269, Control_c, 0, 64, 127
1, 176299, Note_off_c, 0, 55, 65
1, 176299, Note_off_c, 0, 43, 62
1, 176358, Note_on_c, 0, 42, 93
1, 176361, Note_on_c, 0, 54, 94
1, 176400, Note_off_c, 0, 54, 65
1, 176413, Note_off_c, 0, 42, 63
1, 176464, Note_on_c, 0, 53, 98
1, 176469, Note_on_c, 0, 41, 93
1, 176507, Note_off_c, 0, 53, 65
1, 176518, Note_off_c, 0, 41, 64
1, 176576, Note_on_c, 0, 40, 94
1, 176577, Note_on_c, 0, 52, 96
1, 176615, Note_off_c, 0, 52, 65
1, 176643, Note_off_c, 0, 40, 61
1, 176690, Note_on_c, 0, 39, 87
1, 176701, Note_on_c, 0, 51, 97
1, 176737, Note_off_c, 0, 51, 66
1, 176792, Note_off_c, 0, 39, 51
1, 176817, Control_c, 0, 64, 121
1, 176831, Control_c, 0, 64, 80
1, 176846, Control_c, 0, 64, 0
1, 176866, Note_on_c, 0, 57, 121
1, 176871, Note_on_c, 0, 45, 94
1, 176896, Note_off_c, 0, 57, 72
1, 176914, Control_c, 0, 64, 66
1, 176929, Control_c, 0, 64, 93
1, 176943, Control_c, 0, 64, 127
1, 176966, Note_off_c, 0, 45, 60
1, 177431, Control_c, 0, 64, 90
1, 177446, Control_c, 0, 64, 66
1, 177460, Control_c, 0, 64, 0
1, 177516, Note_on_c, 0, 56, 80
1, 177528, Note_on_c, 0, 32, 71
1, 177528, Note_on_c, 0, 44, 71
1, 177542, Note_off_c, 0, 56, 67
1, 177556, Note_off_c, 0, 44, 64
1, 177558, Note_off_c, 0, 32, 65
1, 177608, Note_on_c, 0, 44, 79
1, 177608, Note_on_c, 0, 56, 80
1, 177635, Note_off_c, 0, 44, 67
1, 177635, Note_off_c, 0, 56, 65
1, 177636, Note_on_c, 0, 32, 38
1, 177679, Note_off_c, 0, 32, 48
1, 177691, Control_c, 0, 64, 63
1, 177702, Note_on_c, 0, 61, 95
1, 177706, Control_c, 0, 64, 127
1, 177709, Note_on_c, 0, 49, 96
1, 177712, Note_on_c, 0, 37, 92
1, 177732, Note_off_c, 0, 61, 65
1, 177741, Note_off_c, 0, 37, 66
1, 177747, Note_off_c, 0, 49, 59
1, 178019, Note_on_c, 0, 92, 102
1, 178023, Note_on_c, 0, 80, 105
1, 178034, Note_on_c, 0, 85, 80
1, 178034, Note_on_c, 0, 88, 77
1, 178058, Note_off_c, 0, 88, 70
1, 178067, Note_on_c, 0, 90, 21
1, 178076, Note_on_c, 0, 56, 77
1, 178076, Note_on_c, 0, 61, 80
1, 178077, Note_off_c, 0, 92, 63
1, 178081, Note_off_c, 0, 85, 55
1, 178083, Note_on_c, 0, 49, 62
1, 178085, Note_on_c, 0, 52, 67
1, 178101, Note_off_c, 0, 61, 66
1, 178101, Note_off_c, 0, 80, 62
1, 178108, Note_off_c, 0, 90, 31
1, 178109, Note_off_c, 0, 56, 64
1, 178115, Note_off_c, 0, 52, 64
1, 178116, Note_off_c, 0, 49, 63
1, 178171, Note_on_c, 0, 61, 71
1, 178178, Note_on_c, 0, 49, 73
1, 178186, Note_on_c, 0, 56, 67
1, 178191, Note_on_c, 0, 52, 56
1, 178207, Note_off_c, 0, 61, 62
1, 178216, Note_off_c, 0, 49, 62
1, 178216, Note_off_c, 0, 56, 64
1, 178223, Note_off_c, 0, 52, 63
1, 178342, Note_on_c, 0, 68, 78
1, 178346, Note_on_c, 0, 80, 76
1, 178354, Note_on_c, 0, 73, 69
1, 178363, Note_on_c, 0, 76, 48
1, 178365, Note_off_c, 0, 68, 70
1, 178381, Note_off_c, 0, 73, 67
1, 178385, Note_off_c, 0, 76, 62
1, 178392, Note_off_c, 0, 80, 61
1, 178426, Note_on_c, 0, 68, 84
1, 178432, Note_on_c, 0, 64, 69
1, 178433, Note_on_c, 0, 61, 64
1, 178435, Note_on_c, 0, 56, 61
1, 178444, Note_off_c, 0, 68, 73
1, 178455, Note_off_c, 0, 61, 70
1, 178461, Note_off_c, 0, 64, 66
1, 178463, Note_off_c, 0, 56, 65
1, 178510, Note_on_c, 0, 68, 92
1, 178522, Note_on_c, 0, 56, 80
1, 178526, Note_on_c, 0, 64, 55
1, 178528, Note_on_c, 0, 61, 68
1, 178528, Note_off_c, 0, 68, 74
1, 178552, Note_off_c, 0, 61, 68
1, 178552, Note_off_c, 0, 64, 57
1, 178566, Note_off_c, 0, 56, 65
1, 178648, Control_c, 0, 64, 88
1, 178663, Control_c, 0, 64, 64
1, 178678, Control_c, 0, 64, 0
1, 178683, Note_on_c, 0, 61, 89
1, 178696, Note_on_c, 0, 49, 70
1, 178709, Note_on_c, 0, 37, 49
1, 178721, Note_off_c, 0, 61, 59
1, 178722, Note_off_c, 0, 49, 66
1, 178743, Note_off_c, 0, 37, 55
1, 178774, Note_on_c, 0, 63, 88
1, 178776, Note_on_c, 0, 51, 78
1, 178782, Note_on_c, 0, 39, 72
1, 178799, Note_off_c, 0, 63, 67
1, 178800, Note_off_c, 0, 51, 68
1, 178810, Note_off_c, 0, 39, 64
1, 178840, Control_c, 0, 64, 68
1, 178855, Control_c, 0, 64, 127
1, 178858, Note_on_c, 0, 60, 98
1, 178861, Note_on_c, 0, 48, 96
1, 178862, Note_on_c, 0, 36, 94
1, 178893, Note_off_c, 0, 60, 68
1, 178894, Note_off_c, 0, 36, 65
1, 178898, Note_off_c, 0, 48, 62
1, 179060, Note_on_c, 0, 85, 47
1, 179089, Note_off_c, 0, 85, 66
1, 179119, Note_on_c, 0, 92, 101
1, 179121, Note_on_c, 0, 84, 84
1, 179122, Note_on_c, 0, 87, 94
1, 179123, Note_on_c, 0, 80, 101
1, 179155, Note_off_c, 0, 84, 66
1, 179167, Note_off_c, 0, 87, 68
1, 179178, Note_off_c, 0, 92, 64
1, 179186, Note_on_c, 0, 60, 80
1, 179191, Note_on_c, 0, 56, 70
1, 179191, Note_on_c, 0, 48, 68
1, 179193, Note_on_c, 0, 51, 66
1, 179197, Note_off_c, 0, 80, 62
1, 179216, Note_off_c, 0, 60, 65
1, 179218, Note_off_c, 0, 56, 66
1, 179226, Note_off_c, 0, 48, 62
1, 179226, Note_off_c, 0, 51, 65
1, 179281, Note_on_c, 0, 60, 76
1, 179287, Note_on_c, 0, 56, 69
1, 179290, Note_on_c, 0, 48, 68
1, 179313, Note_off_c, 0, 48, 67
1, 179323, Note_on_c, 0, 51, 40
1, 179327, Note_off_c, 0, 56, 63
1, 179340, Note_off_c, 0, 60, 55
1, 179355, Note_off_c, 0, 51, 55
1, 179450, Note_on_c, 0, 68, 77
1, 179450, Note_on_c, 0, 80, 82
1, 179459, Note_on_c, 0, 75, 69
1, 179471, Note_off_c, 0, 68, 71
1, 179474, Note_on_c, 0, 72, 53
1, 179480, Note_off_c, 0, 80, 62
1, 179485, Note_on_c, 0, 71, 23
1, 179492, Note_off_c, 0, 75, 65
1, 179500, Note_off_c, 0, 72, 57
1, 179516, Poly_aftertouch_c, 0, 78, 127
1, 179524, Note_off_c, 0, 71, 45
1, 179525, Note_on_c, 0, 68, 90
1, 179528, Note_on_c, 0, 60, 69
1, 179537, Note_on_c, 0, 56, 65
1, 179540, Note_off_c, 0, 68, 75
1, 179559, Poly_aftertouch_c, 0, 78, 0
1, 179560, Note_off_c, 0, 60, 65
1, 179561, Note_on_c, 0, 62, 24
1, 179563, Note_off_c, 0, 56, 68
1, 179599, Note_off_c, 0, 62, 42
1, 179602, Note_on_c, 0, 68, 93
1, 179607, Note_on_c, 0, 56, 83
1, 179611, Note_on_c, 0, 60, 67
1, 179611, Note_on_c, 0, 63, 58
1, 179620, Note_off_c, 0, 68, 73
1, 179635, Note_off_c, 0, 60, 68
1, 179641, Note_off_c, 0, 63, 66
1, 179660, Note_off_c, 0, 56, 64
1, 179752, Control_c, 0, 64, 106
1, 179767, Control_c, 0, 64, 74
1, 179782, Control_c, 0, 64, 0
1, 179787, Note_on_c, 0, 44, 75
1, 179787, Note_on_c, 0, 56, 88
1, 179796, Note_on_c, 0, 32, 61
1, 179811, Note_off_c, 0, 56, 68
1, 179812, Note_off_c, 0, 44, 64
1, 179825, Note_off_c, 0, 32, 58
1, 179861, Note_on_c, 0, 44, 83
1, 179870, Note_on_c, 0, 56, 81
1, 179888, Note_off_c, 0, 44, 66
1, 179892, Note_on_c, 0, 32, 30
1, 179909, Note_off_c, 0, 56, 64
1, 179940, Note_off_c, 0, 32, 31
1, 179952, Control_c, 0, 64, 85
1, 179960, Note_on_c, 0, 61, 110
1, 179963, Note_on_c, 0, 49, 105
1, 179964, Note_on_c, 0, 37, 98
1, 179967, Control_c, 0, 64, 127
1, 179988, Note_off_c, 0, 61, 70
1, 179993, Note_off_c, 0, 37, 63
1, 179999, Note_off_c, 0, 49, 59
1, 180232, Note_on_c, 0, 92, 101
1, 180234, Note_on_c, 0, 80, 99
1, 180237, Note_on_c, 0, 85, 88
1, 180243, Note_on_c, 0, 88, 79
1, 180264, Note_off_c, 0, 88, 70
1, 180277, Note_off_c, 0, 85, 61
1, 180277, Note_off_c, 0, 92, 65
1, 180287, Note_on_c, 0, 61, 87
1, 180291, Note_on_c, 0, 56, 79
1, 180296, Note_on_c, 0, 49, 73
1, 180296, Note_on_c, 0, 52, 71
1, 180298, Note_off_c, 0, 80, 63
1, 180312, Note_off_c, 0, 61, 69
1, 180318, Note_off_c, 0, 49, 69
1, 180319, Note_off_c, 0, 56, 68
1, 180326, Note_off_c, 0, 52, 63
1, 180381, Note_on_c, 0, 61, 84
1, 180383, Note_on_c, 0, 49, 77
1, 180386, Note_on_c, 0, 52, 65
1, 180386, Note_on_c, 0, 56, 71
1, 180403, Note_off_c, 0, 61, 64
1, 180412, Note_off_c, 0, 56, 64
1, 180418, Note_off_c, 0, 49, 63
1, 180418, Note_off_c, 0, 52, 62
1, 180544, Note_on_c, 0, 68, 80
1, 180544, Note_on_c, 0, 80, 79
1, 180553, Note_on_c, 0, 73, 72
1, 180562, Note_on_c, 0, 76, 53
1, 180564, Note_off_c, 0, 68, 72
1, 180583, Note_off_c, 0, 76, 62
1, 180586, Note_off_c, 0, 80, 57
1, 180593, Note_off_c, 0, 73, 62
1, 180616, Note_on_c, 0, 64, 74
1, 180616, Note_on_c, 0, 68, 82
1, 180619, Note_on_c, 0, 61, 68
1, 180619, Note_on_c, 0, 56, 69
1, 180634, Note_off_c, 0, 68, 74
1, 180643, Note_off_c, 0, 64, 68
1, 180644, Note_off_c, 0, 61, 68
1, 180660, Note_off_c, 0, 56, 63
1, 180693, Note_on_c, 0, 68, 99
1, 180704, Note_on_c, 0, 56, 79
1, 180708, Note_on_c, 0, 61, 79
1, 180714, Note_off_c, 0, 68, 72
1, 180719, Note_on_c, 0, 64, 54
1, 180726, Note_off_c, 0, 61, 71
1, 180734, Note_off_c, 0, 64, 67
1, 180753, Note_off_c, 0, 56, 65
1, 180849, Control_c, 0, 64, 115
1, 180864, Control_c, 0, 64, 81
1, 180880, Control_c, 0, 64, 0
1, 180889, Note_on_c, 0, 60, 83
1, 180904, Note_on_c, 0, 36, 47
1, 180905, Note_on_c, 0, 48, 41
1, 180915, Note_off_c, 0, 60, 66
1, 180938, Note_off_c, 0, 36, 35
1, 180938, Note_off_c, 0, 48, 50
1, 180954, Note_on_c, 0, 38, 3
1, 180955, Note_off_c, 0, 38, 127
1, 180976, Note_on_c, 0, 61, 90
1, 180977, Note_on_c, 0, 49, 84
1, 180988, Note_on_c, 0, 37, 70
1, 181001, Note_off_c, 0, 49, 70
1, 181006, Note_off_c, 0, 61, 62
1, 181015, Note_off_c, 0, 37, 59
1, 181055, Note_on_c, 0, 63, 105
1, 181057, Control_c, 0, 64, 127
1, 181066, Note_on_c, 0, 51, 102
1, 181071, Note_on_c, 0, 39, 89
1, 181083, Note_off_c, 0, 63, 70
1, 181099, Note_off_c, 0, 39, 67
1, 181105, Note_off_c, 0, 51, 63
1, 181312, Note_on_c, 0, 95, 104
1, 181313, Note_on_c, 0, 83, 103
1, 181313, Note_on_c, 0, 90, 100
1, 181316, Note_on_c, 0, 87, 92
1, 181347, Note_off_c, 0, 95, 64
1, 181355, Note_off_c, 0, 90, 65
1, 181364, Note_off_c, 0, 83, 68
1, 181365, Note_off_c, 0, 87, 65
1, 181370, Note_on_c, 0, 63, 92
1, 181373, Note_on_c, 0, 59, 77
1, 181375, Note_on_c, 0, 54, 74
1, 181380, Note_on_c, 0, 51, 72
1, 181391, Note_off_c, 0, 63, 70
1, 181408, Note_off_c, 0, 59, 65
1, 181410, Note_off_c, 0, 51, 68
1, 181422, Note_off_c, 0, 54, 61
1, 181470, Note_on_c, 0, 63, 86
1, 181486, Note_on_c, 0, 54, 55
1, 181486, Note_on_c, 0, 59, 59
1, 181489, Note_on_c, 0, 51, 62
1, 181495, Note_off_c, 0, 63, 64
1, 181509, Note_off_c, 0, 59, 70
1, 181515, Note_off_c, 0, 54, 65
1, 181518, Note_off_c, 0, 51, 65
1, 181623, Note_on_c, 0, 83, 94
1, 181631, Note_on_c, 0, 78, 74
1, 181632, Note_on_c, 0, 71, 66
1, 181632, Note_on_c, 0, 75, 70
1, 181649, Note_off_c, 0, 71, 66
1, 181650, Note_off_c, 0, 83, 58
1, 181656, Note_off_c, 0, 78, 66
1, 181656, Note_off_c, 0, 75, 69
1, 181692, Note_on_c, 0, 59, 76
1, 181692, Note_on_c, 0, 71, 81
1, 181693, Note_on_c, 0, 63, 73
1, 181695, Note_on_c, 0, 66, 77
1, 181711, Note_off_c, 0, 71, 72
1, 181720, Note_off_c, 0, 66, 68
1, 181723, Note_off_c, 0, 59, 60
1, 181724, Note_off_c, 0, 63, 64
1, 181769, Note_on_c, 0, 71, 85
1, 181772, Note_on_c, 0, 66, 89
1, 181775, Note_on_c, 0, 59, 77
1, 181778, Note_on_c, 0, 63, 78
1, 181791, Note_off_c, 0, 71, 71
1, 181796, Note_off_c, 0, 66, 70
1, 181802, Note_off_c, 0, 63, 65
1, 181832, Note_off_c, 0, 59, 64
1, 181939, Control_c, 0, 64, 103
1, 181954, Control_c, 0, 64, 75
1, 181969, Note_on_c, 0, 47, 72
1, 181969, Control_c, 0, 64, 0
1, 181969, Note_on_c, 0, 59, 78
1, 181970, Note_on_c, 0, 35, 71
1, 181995, Note_off_c, 0, 47, 65
1, 181995, Note_off_c, 0, 59, 67
1, 182002, Note_off_c, 0, 35, 64
1, 182046, Note_on_c, 0, 47, 78
1, 182058, Note_on_c, 0, 35, 67
1, 182061, Note_on_c, 0, 59, 87
1, 182073, Note_off_c, 0, 47, 66
1, 182085, Note_off_c, 0, 35, 58
1, 182094, Note_off_c, 0, 59, 65
1, 182132, Control_c, 0, 64, 77
1, 182150, Note_on_c, 0, 64, 111
1, 182154, Control_c, 0, 64, 127
1, 182157, Note_on_c, 0, 52, 99
1, 182159, Note_on_c, 0, 40, 91
1, 182178, Note_off_c, 0, 64, 72
1, 182180, Note_on_c, 0, 66, 52
1, 182184, Note_off_c, 0, 52, 64
1, 182187, Note_off_c, 0, 40, 67
1, 182208, Note_off_c, 0, 66, 65
1, 182417, Note_on_c, 0, 95, 104
1, 182418, Note_on_c, 0, 83, 102
1, 182421, Note_on_c, 0, 92, 101
1, 182422, Note_on_c, 0, 88, 95
1, 182443, Note_off_c, 0, 88, 70
1, 182450, Note_off_c, 0, 95, 68
1, 182464, Note_off_c, 0, 83, 63
1, 182464, Note_off_c, 0, 92, 65
1, 182478, Note_on_c, 0, 52, 77
1, 182478, Note_on_c, 0, 64, 82
1, 182479, Note_on_c, 0, 56, 78
1, 182482, Note_on_c, 0, 59, 75
1, 182506, Note_off_c, 0, 64, 65
1, 182507, Note_off_c, 0, 59, 69
1, 182512, Note_off_c, 0, 52, 57
1, 182514, Note_off_c, 0, 56, 63
1, 182574, Note_on_c, 0, 64, 82
1, 182574, Note_on_c, 0, 56, 74
1, 182575, Note_on_c, 0, 52, 78
1, 182590, Note_on_c, 0, 59, 56
1, 182599, Note_off_c, 0, 64, 59
1, 182605, Note_off_c, 0, 59, 69
1, 182615, Note_off_c, 0, 52, 61
1, 182616, Note_off_c, 0, 56, 65
1, 182731, Note_on_c, 0, 83, 94
1, 182735, Note_on_c, 0, 71, 84
1, 182735, Note_on_c, 0, 80, 87
1, 182753, Note_on_c, 0, 76, 49
1, 182757, Note_off_c, 0, 71, 71
1, 182760, Note_off_c, 0, 83, 59
1, 182772, Note_off_c, 0, 76, 61
1, 182777, Note_off_c, 0, 80, 68
1, 182813, Note_on_c, 0, 71, 84
1, 182813, Note_on_c, 0, 68, 81
1, 182821, Note_on_c, 0, 64, 64
1, 182825, Note_on_c, 0, 59, 68
1, 182830, Note_off_c, 0, 71, 73
1, 182837, Note_off_c, 0, 68, 69
1, 182846, Note_off_c, 0, 64, 65
1, 182874, Note_off_c, 0, 59, 0
1, 182887, Note_on_c, 0, 71, 85
1, 182908, Note_on_c, 0, 68, 69
1, 182910, Note_on_c, 0, 64, 72
1, 182917, Note_off_c, 0, 71, 71
1, 182919, Poly_aftertouch_c, 0, 59, 127
1, 182933, Note_off_c, 0, 64, 65
1, 182935, Note_off_c, 0, 68, 65
1, 182946, Poly_aftertouch_c, 0, 59, 0
1, 183072, Note_on_c, 0, 52, 87
1, 183080, Note_on_c, 0, 40, 68
1, 183081, Control_c, 0, 64, 108
1, 183082, Note_on_c, 0, 64, 85
1, 183096, Control_c, 0, 64, 78
1, 183098, Note_off_c, 0, 52, 67
1, 183111, Control_c, 0, 64, 0
1, 183111, Note_off_c, 0, 40, 54
1, 183114, Note_off_c, 0, 64, 64
1, 183164, Note_on_c, 0, 66, 96
1, 183167, Note_on_c, 0, 42, 86
1, 183167, Note_on_c, 0, 54, 84
1, 183188, Note_off_c, 0, 66, 69
1, 183190, Note_off_c, 0, 54, 70
1, 183194, Note_off_c, 0, 42, 68
1, 183244, Control_c, 0, 64, 79
1, 183251, Note_on_c, 0, 51, 101
1, 183255, Note_on_c, 0, 63, 116
1, 183256, Note_on_c, 0, 39, 97
1, 183259, Control_c, 0, 64, 127
1, 183281, Note_off_c, 0, 63, 70
1, 183284, Note_off_c, 0, 39, 67
1, 183295, Note_off_c, 0, 51, 64
1, 183503, Note_on_c, 0, 95, 104
1, 183506, Note_on_c, 0, 83, 105
1, 183506, Note_on_c, 0, 87, 106
1, 183509, Note_on_c, 0, 92, 101
1, 183536, Note_off_c, 0, 95, 67
1, 183544, Note_off_c, 0, 83, 65
1, 183549, Note_off_c, 0, 92, 66
1, 183549, Note_on_c, 0, 63, 83
1, 183549, Note_off_c, 0, 87, 65
1, 183555, Note_on_c, 0, 59, 71
1, 183555, Note_on_c, 0, 56, 74
1, 183559, Note_on_c, 0, 51, 64
1, 183571, Note_off_c, 0, 63, 70
1, 183582, Note_off_c, 0, 59, 67
1, 183589, Note_off_c, 0, 51, 63
1, 183592, Note_off_c, 0, 56, 62
1, 183630, Note_on_c, 0, 63, 91
1, 183644, Note_on_c, 0, 56, 70
1, 183651, Note_on_c, 0, 59, 65
1, 183653, Note_on_c, 0, 51, 74
1, 183680, Note_off_c, 0, 63, 63
1, 183681, Note_off_c, 0, 51, 62
1, 183684, Note_off_c, 0, 59, 63
1, 183686, Note_off_c, 0, 56, 64
1, 183804, Note_on_c, 0, 83, 92
1, 183814, Note_on_c, 0, 71, 63
1, 183814, Note_on_c, 0, 75, 73
1, 183814, Note_on_c, 0, 80, 76
1, 183826, Note_off_c, 0, 83, 69
1, 183831, Note_off_c, 0, 71, 65
1, 183838, Note_off_c, 0, 75, 69
1, 183847, Note_off_c, 0, 80, 65
1, 183872, Note_on_c, 0, 68, 79
1, 183874, Note_on_c, 0, 63, 71
1, 183875, Note_on_c, 0, 71, 79
1, 183876, Note_on_c, 0, 59, 68
1, 183896, Note_off_c, 0, 68, 69
1, 183898, Note_off_c, 0, 63, 65
1, 183901, Note_off_c, 0, 71, 67
1, 183913, Note_off_c, 0, 59, 63
1, 183948, Note_on_c, 0, 71, 77
1, 183955, Note_on_c, 0, 68, 74
1, 183963, Note_on_c, 0, 63, 70
1, 183968, Note_on_c, 0, 59, 62
1, 183972, Note_off_c, 0, 71, 70
1, 183980, Note_off_c, 0, 68, 67
1, 183992, Note_off_c, 0, 63, 65
1, 183996, Note_off_c, 0, 59, 66
1, 184118, Note_on_c, 0, 63, 81
1, 184127, Control_c, 0, 64, 84
1, 184132, Note_on_c, 0, 51, 56
1, 184141, Note_off_c, 0, 63, 68
1, 184142, Control_c, 0, 64, 15
1, 184157, Control_c, 0, 64, 0
1, 184164, Note_off_c, 0, 51, 57
1, 184199, Note_on_c, 0, 64, 90
1, 184212, Note_on_c, 0, 40, 29
1, 184219, Note_on_c, 0, 52, 55
1, 184227, Note_off_c, 0, 64, 66
1, 184243, Note_off_c, 0, 52, 57
1, 184243, Note_off_c, 0, 40, 53
1, 184288, Note_on_c, 0, 61, 116
1, 184290, Control_c, 0, 64, 115
1, 184301, Note_on_c, 0, 49, 100
1, 184303, Note_on_c, 0, 37, 90
1, 184305, Control_c, 0, 64, 127
1, 184315, Note_off_c, 0, 61, 71
1, 184336, Note_off_c, 0, 37, 64
1, 184343, Note_off_c, 0, 49, 61
1, 184553, Note_on_c, 0, 94, 105
1, 184554, Note_on_c, 0, 82, 101
1, 184560, Note_on_c, 0, 87, 87
1, 184568, Note_on_c, 0, 91, 73
1, 184578, Poly_aftertouch_c, 0, 54, 127
1, 184594, Note_off_c, 0, 91, 68
1, 184603, Note_off_c, 0, 94, 65
1, 184604, Note_off_c, 0, 87, 62
1, 184609, Note_on_c, 0, 63, 89
1, 184613, Note_on_c, 0, 55, 72
1, 184613, Note_on_c, 0, 58, 76
1, 184618, Poly_aftertouch_c, 0, 54, 0
1, 184619, Note_on_c, 0, 51, 66
1, 184624, Note_off_c, 0, 82, 66
1, 184631, Note_off_c, 0, 63, 69
1, 184640, Note_off_c, 0, 58, 68
1, 184647, Note_off_c, 0, 51, 66
1, 184647, Note_off_c, 0, 55, 64
1, 184699, Note_on_c, 0, 63, 91
1, 184702, Note_on_c, 0, 51, 81
1, 184705, Note_on_c, 0, 55, 64
1, 184708, Note_on_c, 0, 58, 75
1, 184730, Note_off_c, 0, 58, 70
1, 184737, Note_off_c, 0, 55, 64
1, 184743, Note_off_c, 0, 63, 59
1, 184744, Note_off_c, 0, 51, 60
1, 184773, Note_on_c, 0, 78, 36
1, 184807, Note_off_c, 0, 78, 58
1, 184855, Note_on_c, 0, 82, 86
1, 184862, Note_on_c, 0, 70, 80
1, 184869, Note_on_c, 0, 75, 70
1, 184885, Note_off_c, 0, 70, 68
1, 184896, Note_on_c, 0, 79, 32
1, 184899, Note_off_c, 0, 82, 65
1, 184914, Note_off_c, 0, 75, 62
1, 184920, Note_on_c, 0, 70, 90
1, 184928, Note_on_c, 0, 67, 66
1, 184929, Note_off_c, 0, 79, 45
1, 184932, Note_on_c, 0, 63, 61
1, 184935, Note_on_c, 0, 58, 59
1, 184941, Note_off_c, 0, 70, 72
1, 184952, Note_off_c, 0, 67, 67
1, 184955, Note_off_c, 0, 63, 69
1, 184959, Note_off_c, 0, 58, 70
1, 185007, Note_on_c, 0, 70, 78
1, 185012, Note_on_c, 0, 63, 69
1, 185013, Note_on_c, 0, 58, 87
1, 185026, Poly_aftertouch_c, 0, 68, 0
1, 185028, Note_off_c, 0, 70, 72
1, 185041, Note_off_c, 0, 63, 66
1, 185058, Note_off_c, 0, 58, 64
1, 185185, Note_on_c, 0, 61, 88
1, 185189, Note_on_c, 0, 37, 72
1, 185191, Note_on_c, 0, 49, 71
1, 185194, Control_c, 0, 64, 97
1, 185209, Control_c, 0, 64, 68
1, 185219, Note_off_c, 0, 49, 65
1, 185220, Note_off_c, 0, 37, 63
1, 185224, Control_c, 0, 64, 0
1, 185225, Note_off_c, 0, 61, 57
1, 185266, Note_on_c, 0, 63, 89
1, 185279, Note_on_c, 0, 51, 72
1, 185283, Note_on_c, 0, 39, 71
1, 185298, Note_off_c, 0, 63, 63
1, 185307, Note_off_c, 0, 51, 66
1, 185308, Note_off_c, 0, 39, 65
1, 185343, Control_c, 0, 64, 106
1, 185352, Note_on_c, 0, 59, 106
1, 185358, Control_c, 0, 64, 127
1, 185367, Note_on_c, 0, 35, 99
1, 185368, Note_on_c, 0, 47, 94
1, 185387, Note_off_c, 0, 59, 69
1, 185392, Note_off_c, 0, 47, 68
1, 185394, Note_off_c, 0, 35, 67
1, 185600, Note_on_c, 0, 92, 95
1, 185603, Note_on_c, 0, 83, 88
1, 185605, Note_on_c, 0, 80, 101
1, 185606, Note_on_c, 0, 87, 88
1, 185639, Note_off_c, 0, 83, 69
1, 185643, Note_off_c, 0, 87, 64
1, 185648, Note_off_c, 0, 92, 65
1, 185663, Note_on_c, 0, 63, 88
1, 185665, Note_off_c, 0, 80, 68
1, 185667, Note_on_c, 0, 56, 78
1, 185668, Note_on_c, 0, 59, 73
1, 185677, Note_on_c, 0, 51, 69
1, 185689, Note_off_c, 0, 63, 64
1, 185693, Note_off_c, 0, 59, 68
1, 185700, Note_off_c, 0, 56, 64
1, 185707, Note_off_c, 0, 51, 64
1, 185753, Note_on_c, 0, 63, 89
1, 185761, Note_on_c, 0, 51, 77
1, 185763, Note_on_c, 0, 56, 62
1, 185773, Note_on_c, 0, 59, 53
1, 185788, Note_off_c, 0, 56, 67
1, 185792, Note_off_c, 0, 59, 66
1, 185795, Note_off_c, 0, 51, 64
1, 185802, Note_off_c, 0, 63, 62
1, 185919, Note_on_c, 0, 80, 87
1, 185923, Note_on_c, 0, 68, 87
1, 185926, Note_on_c, 0, 75, 75
1, 185928, Note_on_c, 0, 71, 67
1, 185943, Note_off_c, 0, 68, 72
1, 185955, Note_off_c, 0, 71, 67
1, 185966, Note_off_c, 0, 80, 66
1, 185972, Note_off_c, 0, 75, 64
1, 185990, Note_on_c, 0, 68, 92
1, 186002, Note_on_c, 0, 63, 74
1, 186009, Note_on_c, 0, 56, 56
1, 186011, Note_off_c, 0, 68, 71
1, 186025, Note_off_c, 0, 63, 68
1, 186030, Note_on_c, 0, 59, 39
1, 186038, Note_off_c, 0, 56, 66
1, 186049, Note_off_c, 0, 59, 63
1, 186073, Poly_aftertouch_c, 0, 60, 127
1, 186085, Note_on_c, 0, 68, 90
1, 186086, Note_on_c, 0, 63, 75
1, 186087, Note_on_c, 0, 56, 77
1, 186095, Note_on_c, 0, 59, 77
1, 186096, Poly_aftertouch_c, 0, 60, 0
1, 186098, Note_off_c, 0, 68, 78
1, 186118, Note_off_c, 0, 63, 65
1, 186124, Note_off_c, 0, 59, 61
1, 186145, Note_off_c, 0, 56, 64
1, 186324, Note_on_c, 0, 68, 91
1, 186327, Note_on_c, 0, 56, 89
1, 186342, Note_on_c, 0, 44, 70
1, 186344, Note_on_c, 0, 32, 69
1, 186344, Note_off_c, 0, 56, 73
1, 186345, Note_off_c, 0, 68, 66
1, 186369, Note_off_c, 0, 44, 64
1, 186375, Note_off_c, 0, 32, 64
1, 186402, Control_c, 0, 64, 110
1, 186416, Control_c, 0, 64, 72
1, 186422, Note_on_c, 0, 32, 56
1, 186424, Note_on_c, 0, 44, 62
1, 186425, Note_on_c, 0, 56, 72
1, 186425, Note_on_c, 0, 68, 84
1, 186429, Note_on_c, 0, 58, 66
1, 186431, Control_c, 0, 64, 0
1, 186432, Note_on_c, 0, 70, 66
1, 186439, Note_off_c, 0, 56, 71
1, 186440, Note_off_c, 0, 68, 72
1, 186449, Note_off_c, 0, 58, 65
1, 186452, Note_off_c, 0, 44, 58
1, 186453, Note_off_c, 0, 70, 65
1, 186458, Note_off_c, 0, 32, 50
1, 186479, Note_on_c, 0, 46, 6
1, 186480, Note_off_c, 0, 46, 127
1, 186492, Control_c, 0, 64, 67
1, 186507, Note_on_c, 0, 73, 104
1, 186507, Control_c, 0, 64, 127
1, 186512, Note_on_c, 0, 61, 108
1, 186515, Note_on_c, 0, 49, 84
1, 186521, Note_on_c, 0, 37, 70
1, 186530, Note_off_c, 0, 61, 69
1, 186545, Note_on_c, 0, 70, 33
1, 186546, Note_off_c, 0, 70, 127
1, 186546, Note_off_c, 0, 73, 64
1, 186548, Note_on_c, 0, 74, 29
1, 186551, Note_off_c, 0, 49, 58
1, 186560, Note_off_c, 0, 37, 63
1, 186580, Poly_aftertouch_c, 0, 56, 0
1, 186585, Note_off_c, 0, 74, 47
1, 186706, Note_on_c, 0, 52, 60
1, 186724, Note_on_c, 0, 76, 77
1, 186724, Note_on_c, 0, 64, 76
1, 186738, Note_off_c, 0, 52, 64
1, 186745, Note_off_c, 0, 76, 71
1, 186747, Note_off_c, 0, 64, 68
1, 186777, Poly_aftertouch_c, 0, 40, 127
1, 186816, Poly_aftertouch_c, 0, 40, 0
1, 186849, Note_on_c, 0, 80, 77
1, 186849, Note_on_c, 0, 44, 53
1, 186849, Note_on_c, 0, 56, 55
1, 186850, Note_on_c, 0, 68, 76
1, 186872, Note_off_c, 0, 80, 69
1, 186873, Note_off_c, 0, 56, 59
1, 186873, Note_off_c, 0, 68, 67
1, 186879, Note_off_c, 0, 44, 58
1, 186949, Note_on_c, 0, 61, 78
1, 186952, Note_on_c, 0, 49, 67
1, 186952, Note_on_c, 0, 85, 86
1, 186958, Note_on_c, 0, 73, 78
1, 186971, Note_off_c, 0, 85, 73
1, 186971, Note_off_c, 0, 49, 72
1, 186977, Note_off_c, 0, 61, 66
1, 186978, Note_off_c, 0, 73, 69
1, 187045, Note_on_c, 0, 64, 77
1, 187049, Note_on_c, 0, 52, 61
1, 187052, Note_on_c, 0, 88, 86
1, 187056, Note_on_c, 0, 76, 84
1, 187068, Note_off_c, 0, 52, 65
1, 187069, Note_on_c, 0, 87, 55
1, 187069, Note_off_c, 0, 64, 67
1, 187071, Note_off_c, 0, 88, 72
1, 187077, Note_off_c, 0, 76, 72
1, 187093, Note_off_c, 0, 87, 62
1, 187139, Note_on_c, 0, 90, 96
1, 187142, Note_on_c, 0, 66, 90
1, 187144, Note_on_c, 0, 78, 92
1, 187147, Note_on_c, 0, 54, 77
1, 187161, Note_off_c, 0, 78, 74
1, 187162, Note_off_c, 0, 90, 63
1, 187164, Note_off_c, 0, 66, 68
1, 187174, Note_off_c, 0, 54, 67
1, 187227, Poly_aftertouch_c, 0, 87, 0
1, 187228, Note_on_c, 0, 79, 98
1, 187230, Note_on_c, 0, 91, 91
1, 187233, Note_on_c, 0, 67, 85
1, 187236, Note_on_c, 0, 55, 72
1, 187239, Note_on_c, 0, 87, 37
1, 187242, Note_on_c, 0, 90, 69
1, 187248, Note_on_c, 0, 88, 62
1, 187248, Note_off_c, 0, 79, 66
1, 187249, Note_off_c, 0, 91, 72
1, 187252, Note_off_c, 0, 67, 70
1, 187254, Note_off_c, 0, 55, 64
1, 187258, Note_off_c, 0, 90, 68
1, 187268, Note_off_c, 0, 87, 52
1, 187268, Note_off_c, 0, 88, 63
1, 187309, Note_on_c, 0, 80, 104
1, 187310, Note_on_c, 0, 92, 96
1, 187311, Note_on_c, 0, 85, 96
1, 187317, Note_on_c, 0, 61, 83
1, 187320, Note_on_c, 0, 56, 83
1, 187321, Note_on_c, 0, 68, 77
1, 187326, Note_off_c, 0, 80, 65
1, 187328, Note_off_c, 0, 92, 69
1, 187330, Note_on_c, 0, 64, 50
1, 187331, Note_on_c, 0, 88, 60
1, 187339, Note_off_c, 0, 85, 57
1, 187346, Note_off_c, 0, 61, 61
1, 187346, Note_off_c, 0, 68, 65
1, 187353, Note_off_c, 0, 88, 63
1, 187355, Note_off_c, 0, 64, 57
1, 187366, Note_off_c, 0, 56, 64
1, 187367, Note_on_c, 0, 55, 34
1, 187406, Note_off_c, 0, 55, 56
1, 187498, Note_on_c, 0, 61, 85
1, 187505, Note_on_c, 0, 49, 68
1, 187510, Note_on_c, 0, 72, 69
1, 187514, Note_on_c, 0, 37, 49
1, 187524, Note_off_c, 0, 61, 67
1, 187531, Note_off_c, 0, 72, 63
1, 187533, Note_off_c, 0, 49, 64
1, 187558, Note_off_c, 0, 37, 49
1, 187559, Control_c, 0, 64, 114
1, 187574, Control_c, 0, 64, 80
1, 187584, Note_on_c, 0, 39, 81
1, 187587, Note_on_c, 0, 75, 95
1, 187588, Note_on_c, 0, 51, 73
1, 187588, Control_c, 0, 64, 0
1, 187590, Note_on_c, 0, 63, 84
1, 187599, Poly_aftertouch_c, 0, 70, 0
1, 187603, Note_off_c, 0, 75, 73
1, 187611, Note_off_c, 0, 63, 69
1, 187615, Note_off_c, 0, 39, 65
1, 187615, Note_off_c, 0, 51, 68
1, 187663, Control_c, 0, 64, 77
1, 187674, Note_on_c, 0, 60, 110
1, 187674, Note_on_c, 0, 72, 108
1, 187677, Control_c, 0, 64, 127
1, 187678, Note_on_c, 0, 48, 88
1, 187680, Note_on_c, 0, 36, 86
1, 187705, Note_off_c, 0, 72, 69
1, 187708, Note_off_c, 0, 48, 64
1, 187708, Note_off_c, 0, 60, 64
1, 187713, Note_off_c, 0, 36, 63
1, 187881, Note_on_c, 0, 75, 74
1, 187886, Note_on_c, 0, 39, 42
1, 187896, Note_on_c, 0, 63, 60
1, 187899, Note_on_c, 0, 51, 19
1, 187902, Note_off_c, 0, 75, 69
1, 187914, Note_off_c, 0, 63, 63
1, 187931, Note_off_c, 0, 39, 52
1, 187943, Note_off_c, 0, 51, 53
1, 187992, Note_on_c, 0, 56, 75
1, 187994, Note_on_c, 0, 80, 80
1, 187996, Note_on_c, 0, 44, 62
1, 187997, Note_on_c, 0, 68, 76
1, 188016, Note_off_c, 0, 80, 71
1, 188020, Note_off_c, 0, 56, 67
1, 188021, Note_off_c, 0, 68, 68
1, 188027, Note_off_c, 0, 44, 64
1, 188110, Note_on_c, 0, 72, 93
1, 188113, Note_on_c, 0, 84, 80
1, 188132, Note_off_c, 0, 72, 71
1, 188133, Note_on_c, 0, 60, 33
1, 188134, Note_off_c, 0, 84, 69
1, 188135, Note_on_c, 0, 50, 31
1, 188172, Note_off_c, 0, 60, 49
1, 188179, Note_off_c, 0, 50, 47
1, 188214, Poly_aftertouch_c, 0, 48, 0
1, 188217, Note_on_c, 0, 87, 93
1, 188218, Note_on_c, 0, 75, 90
1, 188220, Note_on_c, 0, 63, 75
1, 188232, Note_on_c, 0, 51, 55
1, 188236, Note_off_c, 0, 87, 73
1, 188238, Note_off_c, 0, 75, 68
1, 188246, Note_off_c, 0, 63, 66
1, 188260, Note_off_c, 0, 51, 61
1, 188306, Note_on_c, 0, 90, 99
1, 188309, Note_on_c, 0, 78, 86
1, 188314, Note_on_c, 0, 66, 85
1, 188317, Note_on_c, 0, 54, 75
1, 188330, Note_off_c, 0, 78, 69
1, 188343, Note_off_c, 0, 66, 64
1, 188346, Note_off_c, 0, 90, 64
1, 188348, Note_off_c, 0, 54, 65
1, 188397, Note_on_c, 0, 79, 105
1, 188400, Note_on_c, 0, 91, 90
1, 188406, Note_on_c, 0, 67, 72
1, 188412, Note_on_c, 0, 90, 65
1, 188419, Note_off_c, 0, 91, 72
1, 188420, Note_off_c, 0, 79, 64
1, 188426, Note_on_c, 0, 55, 32
1, 188431, Note_off_c, 0, 90, 63
1, 188433, Note_off_c, 0, 67, 65
1, 188458, Note_off_c, 0, 55, 53
1, 188472, Note_on_c, 0, 92, 104
1, 188473, Note_on_c, 0, 80, 101
1, 188475, Note_on_c, 0, 68, 99
1, 188477, Note_on_c, 0, 84, 93
1, 188481, Note_on_c, 0, 56, 81
1, 188481, Note_on_c, 0, 87, 89
1, 188482, Note_on_c, 0, 63, 81
1, 188493, Note_off_c, 0, 68, 74
1, 188494, Note_off_c, 0, 84, 73
1, 188497, Note_on_c, 0, 60, 59
1, 188501, Note_off_c, 0, 87, 71
1, 188501, Note_off_c, 0, 92, 61
1, 188503, Note_off_c, 0, 63, 72
1, 188507, Note_off_c, 0, 80, 64
1, 188514, Note_on_c, 0, 90, 32
1, 188515, Note_off_c, 0, 90, 127
1, 188517, Note_off_c, 0, 60, 64
1, 188536, Note_off_c, 0, 56, 62
1, 188675, Note_on_c, 0, 68, 91
1, 188677, Note_on_c, 0, 44, 68
1, 188678, Note_on_c, 0, 56, 87
1, 188697, Note_off_c, 0, 68, 70
1, 188697, Note_on_c, 0, 32, 42
1, 188697, Note_off_c, 0, 56, 71
1, 188706, Note_off_c, 0, 44, 64
1, 188738, Control_c, 0, 64, 87
1, 188748, Note_off_c, 0, 32, 0
1, 188753, Control_c, 0, 64, 0
1, 188757, Note_on_c, 0, 44, 74
1, 188761, Note_on_c, 0, 56, 83
1, 188762, Note_on_c, 0, 32, 34
1, 188766, Note_on_c, 0, 68, 93
1, 188780, Note_off_c, 0, 56, 71
1, 188783, Note_off_c, 0, 44, 68
1, 188785, Note_off_c, 0, 68, 73
1, 188793, Note_off_c, 0, 32, 49
1, 188812, Control_c, 0, 64, 67
1, 188827, Control_c, 0, 64, 98
1, 188842, Control_c, 0, 64, 127
1, 188849, Note_on_c, 0, 73, 103
1, 188852, Note_on_c, 0, 61, 102
1, 188854, Note_on_c, 0, 49, 85
1, 188858, Note_on_c, 0, 37, 79
1, 188880, Note_off_c, 0, 61, 63
1, 188883, Note_off_c, 0, 73, 66
1, 188906, Note_off_c, 0, 37, 62
1, 188917, Note_off_c, 0, 49, 58
1, 189041, Note_on_c, 0, 64, 76
1, 189042, Note_on_c, 0, 76, 77
1, 189049, Note_on_c, 0, 52, 54
1, 189059, Note_on_c, 0, 40, 36
1, 189064, Note_off_c, 0, 76, 70
1, 189066, Note_off_c, 0, 64, 70
1, 189074, Note_off_c, 0, 52, 58
1, 189098, Note_off_c, 0, 40, 51
1, 189165, Note_on_c, 0, 80, 86
1, 189165, Note_on_c, 0, 56, 67
1, 189176, Note_on_c, 0, 68, 69
1, 189180, Note_on_c, 0, 44, 49
1, 189183, Note_off_c, 0, 80, 73
1, 189192, Note_off_c, 0, 56, 67
1, 189195, Note_off_c, 0, 68, 67
1, 189206, Note_off_c, 0, 44, 57
1, 189269, Note_on_c, 0, 85, 93
1, 189272, Note_on_c, 0, 73, 84
1, 189284, Note_on_c, 0, 61, 66
1, 189287, Note_off_c, 0, 85, 72
1, 189289, Note_off_c, 0, 73, 74
1, 189313, Note_off_c, 0, 61, 65
1, 189320, Note_on_c, 0, 49, 6
1, 189350, Note_off_c, 0, 49, 49
1, 189368, Note_on_c, 0, 88, 89
1, 189369, Note_on_c, 0, 76, 87
1, 189377, Note_on_c, 0, 64, 66
1, 189378, Note_on_c, 0, 87, 71
1, 189380, Note_on_c, 0, 52, 56
1, 189385, Note_off_c, 0, 88, 74
1, 189387, Note_off_c, 0, 76, 74
1, 189394, Note_off_c, 0, 87, 67
1, 189403, Note_off_c, 0, 64, 64
1, 189404, Note_off_c, 0, 52, 57
1, 189460, Note_on_c, 0, 90, 97
1, 189461, Note_on_c, 0, 78, 95
1, 189463, Note_on_c, 0, 66, 88
1, 189466, Note_on_c, 0, 54, 75
1, 189481, Note_off_c, 0, 90, 63
1, 189485, Note_off_c, 0, 78, 62
1, 189496, Note_off_c, 0, 66, 55
1, 189508, Note_off_c, 0, 54, 61
1, 189552, Note_on_c, 0, 79, 99
1, 189554, Note_on_c, 0, 67, 86
1, 189554, Note_on_c, 0, 91, 91
1, 189561, Note_on_c, 0, 55, 68
1, 189564, Note_on_c, 0, 88, 66
1, 189565, Note_on_c, 0, 90, 68
1, 189573, Note_off_c, 0, 91, 73
1, 189575, Note_off_c, 0, 67, 71
1, 189578, Note_off_c, 0, 79, 63
1, 189581, Note_off_c, 0, 55, 62
1, 189581, Note_off_c, 0, 88, 66
1, 189581, Note_off_c, 0, 90, 66
1, 189636, Note_on_c, 0, 80, 106
1, 189639, Note_on_c, 0, 92, 102
1, 189642, Note_on_c, 0, 88, 92
1, 189642, Note_on_c, 0, 68, 98
1, 189642, Note_on_c, 0, 85, 92
1, 189648, Note_on_c, 0, 61, 81
1, 189652, Note_on_c, 0, 56, 84
1, 189660, Note_off_c, 0, 88, 74
1, 189662, Note_off_c, 0, 68, 73
1, 189666, Note_off_c, 0, 92, 60
1, 189672, Note_off_c, 0, 80, 63
1, 189680, Note_off_c, 0, 61, 64
1, 189683, Note_off_c, 0, 85, 62
1, 189686, Note_on_c, 0, 64, 16
1, 189701, Note_on_c, 0, 90, 16
1, 189702, Note_off_c, 0, 90, 127
1, 189706, Note_off_c, 0, 56, 65
1, 189715, Note_off_c, 0, 64, 52
1, 189844, Note_on_c, 0, 60, 90
1, 189845, Note_on_c, 0, 48, 74
1, 189846, Note_on_c, 0, 36, 73
1, 189846, Note_on_c, 0, 72, 94
1, 189866, Note_off_c, 0, 72, 72
1, 189871, Note_off_c, 0, 60, 64
1, 189871, Note_off_c, 0, 48, 65
1, 189874, Note_off_c, 0, 36, 65
1, 189939, Note_on_c, 0, 49, 86
1, 189939, Control_c, 0, 64, 98
1, 189941, Note_on_c, 0, 61, 97
1, 189943, Note_on_c, 0, 73, 100
1, 189945, Note_on_c, 0, 37, 79
1, 189954, Control_c, 0, 64, 58
1, 189961, Note_off_c, 0, 73, 69
1, 189964, Note_off_c, 0, 49, 68
1, 189967, Note_off_c, 0, 37, 63
1, 189969, Control_c, 0, 64, 0
1, 189970, Note_off_c, 0, 61, 61
1, 190028, Control_c, 0, 64, 80
1, 190034, Note_on_c, 0, 75, 107
1, 190037, Note_on_c, 0, 63, 109
1, 190042, Control_c, 0, 64, 127
1, 190043, Note_on_c, 0, 51, 100
1, 190046, Note_on_c, 0, 39, 88
1, 190062, Note_on_c, 0, 73, 53
1, 190069, Note_off_c, 0, 63, 66
1, 190081, Note_off_c, 0, 75, 63
1, 190084, Note_off_c, 0, 39, 59
1, 190086, Note_off_c, 0, 51, 62
1, 190091, Note_off_c, 0, 73, 59
1, 190256, Note_on_c, 0, 66, 87
1, 190256, Note_on_c, 0, 78, 84
1, 190277, Note_off_c, 0, 66, 72
1, 190277, Note_on_c, 0, 42, 40
1, 190278, Note_off_c, 0, 78, 66
1, 190289, Note_on_c, 0, 54, 30
1, 190313, Note_off_c, 0, 42, 47
1, 190327, Note_off_c, 0, 54, 53
1, 190399, Note_on_c, 0, 83, 86
1, 190400, Note_on_c, 0, 71, 82
1, 190406, Note_on_c, 0, 59, 53
1, 190418, Note_on_c, 0, 47, 33
1, 190420, Note_off_c, 0, 83, 72
1, 190422, Note_off_c, 0, 71, 71
1, 190429, Note_off_c, 0, 59, 58
1, 190455, Note_off_c, 0, 47, 47
1, 190512, Note_on_c, 0, 87, 93
1, 190514, Note_on_c, 0, 75, 88
1, 190517, Note_on_c, 0, 63, 75
1, 190521, Note_on_c, 0, 51, 62
1, 190533, Note_off_c, 0, 87, 69
1, 190535, Note_off_c, 0, 75, 65
1, 190544, Note_off_c, 0, 51, 63
1, 190544, Note_off_c, 0, 63, 65
1, 190613, Note_on_c, 0, 90, 94
1, 190623, Note_on_c, 0, 78, 74
1, 190625, Note_on_c, 0, 66, 73
1, 190628, Note_off_c, 0, 90, 74
1, 190640, Note_on_c, 0, 54, 42
1, 190642, Note_off_c, 0, 78, 66
1, 190647, Note_off_c, 0, 66, 71
1, 190674, Note_off_c, 0, 54, 51
1, 190715, Note_on_c, 0, 81, 97
1, 190716, Note_on_c, 0, 57, 66
1, 190717, Note_on_c, 0, 93, 89
1, 190718, Note_on_c, 0, 69, 71
1, 190734, Note_off_c, 0, 81, 73
1, 190735, Note_on_c, 0, 92, 48
1, 190735, Note_off_c, 0, 93, 72
1, 190739, Note_off_c, 0, 57, 63
1, 190744, Note_off_c, 0, 69, 67
1, 190763, Note_off_c, 0, 92, 51
1, 190807, Note_on_c, 0, 94, 95
1, 190808, Note_on_c, 0, 82, 94
1, 190817, Note_on_c, 0, 70, 73
1, 190824, Note_on_c, 0, 58, 64
1, 190835, Note_off_c, 0, 94, 61
1, 190838, Note_off_c, 0, 82, 63
1, 190842, Note_off_c, 0, 70, 68
1, 190851, Note_off_c, 0, 58, 66
1, 190890, Note_on_c, 0, 83, 108
1, 190894, Note_on_c, 0, 90, 97
1, 190895, Note_on_c, 0, 87, 94
1, 190895, Note_on_c, 0, 95, 94
1, 190904, Note_on_c, 0, 63, 73
1, 190906, Note_on_c, 0, 59, 73
1, 190908, Note_off_c, 0, 95, 73
1, 190911, Note_on_c, 0, 71, 58
1, 190920, Note_off_c, 0, 83, 69
1, 190926, Note_off_c, 0, 90, 63
1, 190929, Note_on_c, 0, 94, 22
1, 190930, Note_off_c, 0, 94, 127
1, 190930, Note_off_c, 0, 71, 63
1, 190933, Note_off_c, 0, 87, 67
1, 190934, Note_off_c, 0, 63, 65
1, 190946, Note_off_c, 0, 59, 65
1, 190977, Poly_aftertouch_c, 0, 67, 127
1, 191001, Poly_aftertouch_c, 0, 67, 0
1, 191163, Note_on_c, 0, 35, 71
1, 191163, Note_on_c, 0, 59, 76
1, 191163, Note_on_c, 0, 69, 79
1, 191163, Note_on_c, 0, 71, 76
1, 191168, Note_on_c, 0, 57, 75
1, 191170, Note_on_c, 0, 47, 66
1, 191186, Note_off_c, 0, 59, 69
1, 191186, Note_off_c, 0, 69, 69
1, 191186, Note_off_c, 0, 71, 67
1, 191193, Note_off_c, 0, 57, 67
1, 191199, Note_off_c, 0, 35, 59
1, 191204, Note_off_c, 0, 47, 63
1, 191263, Note_on_c, 0, 71, 79
1, 191267, Note_on_c, 0, 59, 94
1, 191270, Note_on_c, 0, 47, 72
1, 191272, Note_on_c, 0, 35, 69
1, 191284, Note_off_c, 0, 59, 70
1, 191294, Note_off_c, 0, 35, 60
1, 191295, Note_off_c, 0, 47, 68
1, 191302, Note_off_c, 0, 71, 66
1, 191318, Control_c, 0, 64, 105
1, 191333, Control_c, 0, 64, 70
1, 191348, Control_c, 0, 64, 0
1, 191368, Note_on_c, 0, 76, 105
1, 191369, Note_on_c, 0, 64, 102
1, 191371, Note_on_c, 0, 52, 95
1, 191375, Note_on_c, 0, 40, 84
1, 191377, Control_c, 0, 64, 41
1, 191392, Control_c, 0, 64, 80
1, 191396, Note_off_c, 0, 52, 68
1, 191398, Note_off_c, 0, 64, 63
1, 191400, Note_off_c, 0, 76, 65
1, 191406, Note_off_c, 0, 40, 66
1, 191407, Control_c, 0, 64, 127
1, 191583, Note_on_c, 0, 68, 81
1, 191586, Note_on_c, 0, 80, 78
1, 191591, Note_on_c, 0, 44, 52
1, 191598, Note_on_c, 0, 56, 46
1, 191606, Note_off_c, 0, 68, 70
1, 191608, Note_off_c, 0, 80, 69
1, 191621, Note_off_c, 0, 44, 55
1, 191627, Note_off_c, 0, 56, 54
1, 191690, Note_on_c, 0, 83, 89
1, 191693, Note_on_c, 0, 71, 82
1, 191698, Note_on_c, 0, 45, 52
1, 191702, Note_on_c, 0, 57, 48
1, 191714, Note_off_c, 0, 71, 70
1, 191716, Note_off_c, 0, 83, 66
1, 191728, Note_off_c, 0, 57, 52
1, 191730, Note_off_c, 0, 45, 51
1, 191803, Note_on_c, 0, 52, 74
1, 191803, Note_on_c, 0, 64, 76
1, 191803, Note_on_c, 0, 76, 87
1, 191803, Note_on_c, 0, 88, 88
1, 191821, Note_off_c, 0, 76, 72
1, 191824, Note_off_c, 0, 88, 68
1, 191826, Note_off_c, 0, 64, 69
1, 191827, Note_off_c, 0, 52, 69
1, 191911, Note_on_c, 0, 92, 93
1, 191915, Note_on_c, 0, 80, 90
1, 191917, Note_on_c, 0, 56, 83
1, 191918, Note_on_c, 0, 68, 80
1, 191931, Note_off_c, 0, 92, 67
1, 191934, Note_off_c, 0, 80, 72
1, 191952, Note_off_c, 0, 68, 60
1, 191967, Note_off_c, 0, 56, 61
1, 192008, Note_on_c, 0, 93, 102
1, 192010, Note_on_c, 0, 81, 97
1, 192012, Note_on_c, 0, 57, 72
1, 192013, Note_on_c, 0, 69, 77
1, 192032, Note_off_c, 0, 81, 70
1, 192037, Note_off_c, 0, 69, 67
1, 192039, Note_off_c, 0, 57, 65
1, 192042, Note_on_c, 0, 92, 31
1, 192042, Note_off_c, 0, 93, 62
1, 192073, Note_off_c, 0, 92, 48
1, 192107, Note_on_c, 0, 94, 102
1, 192110, Note_on_c, 0, 82, 91
1, 192113, Note_on_c, 0, 70, 83
1, 192114, Note_on_c, 0, 58, 77
1, 192131, Note_off_c, 0, 82, 67
1, 192134, Note_off_c, 0, 70, 71
1, 192134, Note_off_c, 0, 94, 63
1, 192140, Note_off_c, 0, 58, 68
1, 192194, Note_on_c, 0, 83, 116
1, 192197, Note_on_c, 0, 92, 102
1, 192197, Note_on_c, 0, 95, 104
1, 192199, Note_on_c, 0, 88, 86
1, 192202, Note_on_c, 0, 71, 84
1, 192209, Note_on_c, 0, 68, 73
1, 192211, Note_on_c, 0, 59, 72
1, 192215, Note_off_c, 0, 95, 67
1, 192216, Note_off_c, 0, 88, 74
1, 192217, Note_off_c, 0, 71, 70
1, 192225, Note_on_c, 0, 64, 38
1, 192226, Note_off_c, 0, 83, 70
1, 192232, Note_off_c, 0, 68, 70
1, 192233, Note_off_c, 0, 92, 66
1, 192236, Note_on_c, 0, 58, 15
1, 192243, Note_off_c, 0, 64, 64
1, 192245, Note_off_c, 0, 59, 64
1, 192271, Note_off_c, 0, 58, 55
1, 192383, Note_on_c, 0, 52, 75
1, 192383, Note_on_c, 0, 76, 90
1, 192387, Note_on_c, 0, 64, 86
1, 192387, Note_on_c, 0, 40, 68
1, 192405, Note_off_c, 0, 76, 67
1, 192407, Note_off_c, 0, 52, 69
1, 192408, Note_off_c, 0, 64, 71
1, 192413, Note_off_c, 0, 40, 60
1, 192480, Note_on_c, 0, 54, 88
1, 192481, Note_on_c, 0, 78, 104
1, 192482, Note_on_c, 0, 42, 85
1, 192483, Note_on_c, 0, 66, 101
1, 192503, Note_off_c, 0, 54, 68
1, 192503, Note_off_c, 0, 78, 57
1, 192505, Note_off_c, 0, 66, 66
1, 192512, Control_c, 0, 64, 94
1, 192515, Note_off_c, 0, 42, 64
1, 192527, Control_c, 0, 64, 60
1, 192542, Control_c, 0, 64, 0
1, 192580, Note_on_c, 0, 51, 96
1, 192583, Note_on_c, 0, 75, 104
1, 192586, Control_c, 0, 64, 76
1, 192587, Note_on_c, 0, 39, 90
1, 192587, Note_on_c, 0, 63, 116
1, 192601, Control_c, 0, 64, 127
1, 192623, Note_off_c, 0, 39, 64
1, 192638, Note_off_c, 0, 51, 62
1, 192653, Note_off_c, 0, 63, 62
1, 192686, Note_off_c, 0, 75, 59
1, 192799, Note_on_c, 0, 78, 84
1, 192802, Note_on_c, 0, 66, 82
1, 192805, Note_on_c, 0, 42, 61
1, 192813, Note_on_c, 0, 54, 50
1, 192823, Note_off_c, 0, 78, 62
1, 192826, Note_off_c, 0, 66, 68
1, 192836, Note_off_c, 0, 42, 64
1, 192840, Note_off_c, 0, 54, 56
1, 192915, Note_on_c, 0, 81, 100
1, 192916, Note_on_c, 0, 69, 85
1, 192924, Note_on_c, 0, 45, 65
1, 192927, Note_on_c, 0, 57, 63
1, 192938, Note_off_c, 0, 69, 69
1, 192947, Note_off_c, 0, 57, 61
1, 192953, Note_off_c, 0, 81, 65
1, 192957, Note_off_c, 0, 45, 63
1, 193034, Note_on_c, 0, 72, 104
1, 193036, Note_on_c, 0, 84, 85
1, 193043, Note_on_c, 0, 60, 72
1, 193045, Note_on_c, 0, 48, 68
1, 193061, Note_on_c, 0, 83, 48
1, 193062, Note_off_c, 0, 83, 127
1, 193064, Note_off_c, 0, 84, 66
1, 193065, Note_off_c, 0, 72, 67
1, 193069, Note_off_c, 0, 60, 68
1, 193073, Note_off_c, 0, 48, 65
1, 193155, Note_on_c, 0, 87, 103
1, 193160, Note_on_c, 0, 75, 91
1, 193171, Note_on_c, 0, 63, 59
1, 193179, Note_on_c, 0, 51, 47
1, 193179, Note_off_c, 0, 75, 69
1, 193183, Note_off_c, 0, 87, 59
1, 193195, Note_off_c, 0, 63, 59
1, 193210, Note_off_c, 0, 51, 53
1, 193279, Note_on_c, 0, 90, 94
1, 193285, Note_on_c, 0, 78, 87
1, 193295, Note_on_c, 0, 66, 65
1, 193305, Note_off_c, 0, 78, 70
1, 193314, Note_off_c, 0, 90, 60
1, 193315, Note_on_c, 0, 54, 29
1, 193320, Note_off_c, 0, 66, 66
1, 193349, Note_off_c, 0, 54, 53
1, 193412, Note_on_c, 0, 81, 110
1, 193413, Note_on_c, 0, 93, 92
1, 193431, Note_on_c, 0, 55, 54
1, 193437, Note_on_c, 0, 69, 50
1, 193443, Note_on_c, 0, 67, 54
1, 193448, Note_off_c, 0, 81, 65
1, 193456, Note_off_c, 0, 55, 57
1, 193459, Note_off_c, 0, 69, 63
1, 193465, Note_off_c, 0, 67, 59
1, 193487, Note_off_c, 0, 93, 55
1, 193594, Note_on_c, 0, 90, 36
1, 193596, Note_on_c, 0, 96, 102
1, 193597, Note_on_c, 0, 84, 105
1, 193597, Note_on_c, 0, 87, 88
1, 193607, Note_on_c, 0, 72, 105
1, 193609, Note_on_c, 0, 60, 83
1, 193612, Note_on_c, 0, 63, 82
1, 193615, Note_on_c, 0, 66, 92
1, 193624, Note_off_c, 0, 84, 69
1, 193632, Note_off_c, 0, 96, 66
1, 193641, Note_on_c, 0, 95, 37
1, 193642, Note_off_c, 0, 95, 127
1, 193642, Note_off_c, 0, 72, 69
1, 193650, Note_off_c, 0, 87, 67
1, 193657, Note_off_c, 0, 90, 65
1, 193668, Note_off_c, 0, 60, 61
1, 193686, Note_off_c, 0, 66, 62
1, 193691, Note_off_c, 0, 63, 61
1, 194231, Note_on_c, 0, 51, 95
1, 194232, Note_on_c, 0, 63, 102
1, 194232, Note_on_c, 0, 75, 101
1, 194233, Note_on_c, 0, 39, 86
1, 194274, Note_off_c, 0, 63, 61
1, 194281, Note_off_c, 0, 75, 61
1, 194328, Note_off_c, 0, 51, 61
1, 194339, Note_off_c, 0, 39, 60
1, 194417, Note_on_c, 0, 76, 100
1, 194418, Note_on_c, 0, 52, 89
1, 194418, Note_on_c, 0, 64, 97
1, 194420, Note_on_c, 0, 40, 79
1, 194451, Note_off_c, 0, 76, 67
1, 194453, Note_off_c, 0, 64, 65
1, 194465, Note_off_c, 0, 52, 62
1, 194471, Note_off_c, 0, 40, 61
1, 194559, Note_on_c, 0, 73, 102
1, 194560, Note_on_c, 0, 61, 108
1, 194562, Note_on_c, 0, 49, 106
1, 194566, Note_on_c, 0, 37, 100
1, 194580, Control_c, 0, 64, 113
1, 194595, Control_c, 0, 64, 73
1, 194611, Control_c, 0, 64, 0
1, 194685, Control_c, 0, 64, 74
1, 194699, Control_c, 0, 64, 127
1, 194712, Note_on_c, 0, 70, 20
1, 194745, Note_off_c, 0, 61, 56
1, 194768, Note_off_c, 0, 37, 56
1, 194769, Note_off_c, 0, 73, 45
1, 194786, Note_off_c, 0, 70, 44
1, 194796, Note_off_c, 0, 49, 52
1, 195113, Note_on_c, 0, 76, 68
1, 195116, Note_on_c, 0, 64, 63
1, 195130, Note_on_c, 0, 40, 41
1, 195132, Note_on_c, 0, 52, 41
1, 195148, Note_off_c, 0, 64, 65
1, 195167, Note_off_c, 0, 40, 56
1, 195167, Note_off_c, 0, 76, 58
1, 195173, Note_off_c, 0, 52, 51
1, 195306, Note_on_c, 0, 67, 73
1, 195307, Note_on_c, 0, 79, 70
1, 195321, Note_on_c, 0, 43, 52
1, 195323, Note_on_c, 0, 55, 52
1, 195333, Note_off_c, 0, 67, 66
1, 195338, Note_off_c, 0, 79, 62
1, 195349, Note_off_c, 0, 43, 56
1, 195349, Note_off_c, 0, 55, 57
1, 195453, Note_on_c, 0, 82, 80
1, 195458, Note_on_c, 0, 70, 78
1, 195472, Note_on_c, 0, 46, 53
1, 195475, Note_on_c, 0, 58, 51
1, 195485, Note_off_c, 0, 70, 66
1, 195497, Note_off_c, 0, 82, 63
1, 195500, Note_off_c, 0, 58, 58
1, 195506, Note_off_c, 0, 46, 64
1, 195582, Note_on_c, 0, 85, 86
1, 195586, Note_on_c, 0, 73, 75
1, 195592, Note_on_c, 0, 61, 75
1, 195594, Note_on_c, 0, 49, 68
1, 195609, Note_off_c, 0, 73, 70
1, 195619, Note_off_c, 0, 85, 60
1, 195632, Note_off_c, 0, 49, 64
1, 195632, Note_off_c, 0, 61, 56
1, 195718, Note_on_c, 0, 88, 77
1, 195723, Note_on_c, 0, 76, 68
1, 195729, Note_on_c, 0, 64, 69
1, 195735, Note_on_c, 0, 52, 59
1, 195747, Note_off_c, 0, 88, 64
1, 195750, Note_off_c, 0, 76, 67
1, 195758, Note_off_c, 0, 64, 66
1, 195763, Note_off_c, 0, 52, 61
1, 195807, Poly_aftertouch_c, 0, 87, 0
1, 195851, Note_on_c, 0, 79, 69
1, 195854, Note_on_c, 0, 93, 66
1, 195854, Note_on_c, 0, 91, 64
1, 195855, Note_on_c, 0, 67, 68
1, 195858, Note_on_c, 0, 55, 65
1, 195858, Note_on_c, 0, 81, 70
1, 195876, Note_off_c, 0, 81, 66
1, 195877, Note_off_c, 0, 79, 66
1, 195878, Note_off_c, 0, 55, 64
1, 195881, Note_off_c, 0, 91, 67
1, 195881, Note_off_c, 0, 93, 65
1, 195881, Note_off_c, 0, 67, 67
1, 195953, Note_on_c, 0, 94, 97
1, 195958, Note_on_c, 0, 82, 82
1, 195968, Note_on_c, 0, 70, 83
1, 195973, Note_off_c, 0, 94, 67
1, 195976, Note_off_c, 0, 82, 73
1, 195977, Note_on_c, 0, 58, 65
1, 195990, Note_off_c, 0, 70, 70
1, 195997, Note_off_c, 0, 58, 64
1, 196054, Note_on_c, 0, 97, 91
1, 196057, Note_on_c, 0, 85, 87
1, 196067, Note_on_c, 0, 73, 78
1, 196069, Note_on_c, 0, 61, 77
1, 196074, Note_off_c, 0, 85, 73
1, 196075, Note_off_c, 0, 97, 68
1, 196091, Note_off_c, 0, 73, 66
1, 196095, Note_off_c, 0, 61, 65
1, 196154, Note_on_c, 0, 86, 95
1, 196158, Note_on_c, 0, 98, 85
1, 196175, Note_on_c, 0, 97, 54
1, 196176, Note_on_c, 0, 62, 45
1, 196181, Note_off_c, 0, 98, 68
1, 196182, Note_on_c, 0, 60, 43
1, 196182, Note_off_c, 0, 86, 63
1, 196190, Note_on_c, 0, 72, 35
1, 196199, Note_off_c, 0, 97, 59
1, 196203, Note_off_c, 0, 62, 53
1, 196211, Note_off_c, 0, 60, 52
1, 196221, Poly_aftertouch_c, 0, 74, 127
1, 196227, Note_off_c, 0, 72, 55
1, 196256, Note_on_c, 0, 99, 100
1, 196258, Note_on_c, 0, 87, 94
1, 196263, Note_on_c, 0, 75, 87
1, 196264, Note_on_c, 0, 63, 85
1, 196271, Poly_aftertouch_c, 0, 74, 0
1, 196278, Note_on_c, 0, 97, 49
1, 196279, Note_off_c, 0, 97, 127
1, 196287, Note_off_c, 0, 99, 63
1, 196289, Note_off_c, 0, 87, 64
1, 196294, Note_off_c, 0, 75, 57
1, 196300, Control_c, 0, 64, 93
1, 196309, Note_off_c, 0, 63, 61
1, 196315, Control_c, 0, 64, 62
1, 196329, Control_c, 0, 64, 0
1, 196358, Note_on_c, 0, 88, 104
1, 196358, Note_on_c, 0, 100, 107
1, 196359, Control_c, 0, 64, 63
1, 196364, Note_on_c, 0, 64, 83
1, 196367, Note_on_c, 0, 76, 84
1, 196382, Control_c, 0, 64, 85
1, 196385, Note_on_c, 0, 97, 57
1, 196386, Note_off_c, 0, 97, 127
1, 196397, Control_c, 0, 64, 127
1, 196399, Note_off_c, 0, 76, 65
1, 196403, Note_off_c, 0, 100, 68
1, 196406, Note_off_c, 0, 88, 65
1, 196418, Note_off_c, 0, 64, 60
1, 196537, Note_on_c, 0, 61, 74
1, 196537, Note_on_c, 0, 97, 79
1, 196546, Note_on_c, 0, 85, 79
1, 196552, Note_on_c, 0, 73, 53
1, 196560, Note_off_c, 0, 97, 70
1, 196566, Note_off_c, 0, 61, 63
1, 196568, Note_off_c, 0, 85, 70
1, 196575, Note_off_c, 0, 73, 59
1, 196647, Note_on_c, 0, 94, 86
1, 196656, Note_on_c, 0, 82, 73
1, 196662, Note_on_c, 0, 58, 65
1, 196664, Note_on_c, 0, 70, 51
1, 196671, Note_off_c, 0, 94, 67
1, 196679, Note_off_c, 0, 82, 69
1, 196689, Note_off_c, 0, 70, 57
1, 196695, Note_off_c, 0, 58, 64
1, 196762, Note_on_c, 0, 91, 80
1, 196763, Note_on_c, 0, 79, 87
1, 196772, Note_on_c, 0, 55, 72
1, 196783, Note_off_c, 0, 79, 70
1, 196784, Note_off_c, 0, 91, 70
1, 196789, Note_on_c, 0, 67, 37
1, 196794, Note_on_c, 0, 90, 31
1, 196798, Note_off_c, 0, 55, 65
1, 196801, Note_off_c, 0, 90, 43
1, 196821, Note_off_c, 0, 67, 49
1, 196874, Note_on_c, 0, 76, 89
1, 196876, Note_on_c, 0, 88, 81
1, 196887, Note_on_c, 0, 52, 71
1, 196887, Note_on_c, 0, 64, 61
1, 196894, Note_off_c, 0, 76, 68
1, 196895, Note_off_c, 0, 88, 72
1, 196902, Note_on_c, 0, 87, 41
1, 196906, Note_off_c, 0, 64, 61
1, 196915, Note_off_c, 0, 52, 65
1, 196934, Note_off_c, 0, 87, 36
1, 196980, Note_on_c, 0, 85, 95
1, 196984, Note_on_c, 0, 73, 91
1, 196986, Note_on_c, 0, 49, 77
1, 196990, Note_on_c, 0, 61, 60
1, 196998, Note_off_c, 0, 85, 73
1, 197002, Note_off_c, 0, 73, 70
1, 197010, Note_off_c, 0, 61, 61
1, 197014, Note_off_c, 0, 49, 67
1, 197082, Note_on_c, 0, 82, 75
1, 197087, Note_on_c, 0, 70, 91
1, 197090, Note_on_c, 0, 58, 72
1, 197092, Note_on_c, 0, 46, 78
1, 197105, Note_off_c, 0, 82, 68
1, 197106, Note_off_c, 0, 70, 70
1, 197113, Note_off_c, 0, 58, 67
1, 197132, Note_off_c, 0, 46, 65
1, 197164, Poly_aftertouch_c, 0, 80, 127
1, 197192, Poly_aftertouch_c, 0, 80, 0
1, 197195, Note_on_c, 0, 67, 92
1, 197197, Note_on_c, 0, 79, 84
1, 197200, Note_on_c, 0, 55, 68
1, 197206, Note_on_c, 0, 43, 64
1, 197216, Note_off_c, 0, 67, 70
1, 197216, Note_off_c, 0, 79, 69
1, 197225, Note_off_c, 0, 55, 69
1, 197238, Note_off_c, 0, 43, 63
1, 197264, Control_c, 0, 64, 109
1, 197278, Control_c, 0, 64, 78
1, 197293, Control_c, 0, 64, 0
1, 197313, Note_on_c, 0, 64, 84
1, 197317, Note_on_c, 0, 52, 62
1, 197319, Note_on_c, 0, 76, 61
1, 197326, Note_on_c, 0, 74, 65
1, 197333, Note_on_c, 0, 40, 43
1, 197338, Control_c, 0, 64, 58
1, 197339, Note_off_c, 0, 64, 68
1, 197344, Note_off_c, 0, 74, 66
1, 197347, Note_off_c, 0, 76, 68
1, 197348, Note_off_c, 0, 52, 65
1, 197352, Control_c, 0, 64, 70
1, 197367, Control_c, 0, 64, 85
1, 197368, Note_off_c, 0, 40, 51
1, 197382, Control_c, 0, 64, 110
1, 197397, Control_c, 0, 64, 127
1, 197467, Note_on_c, 0, 55, 65
1, 197471, Note_on_c, 0, 65, 62
1, 197475, Note_on_c, 0, 43, 45
1, 197478, Note_on_c, 0, 77, 47
1, 197479, Note_on_c, 0, 67, 58
1, 197493, Note_off_c, 0, 65, 63
1, 197498, Note_off_c, 0, 55, 64
1, 197500, Note_off_c, 0, 67, 61
1, 197501, Note_off_c, 0, 77, 56
1, 197507, Note_off_c, 0, 43, 49
1, 197510, Note_on_c, 0, 79, 4
1, 197511, Note_off_c, 0, 79, 127
1, 197580, Note_on_c, 0, 82, 86
1, 197583, Note_on_c, 0, 58, 81
1, 197584, Note_on_c, 0, 46, 75
1, 197584, Note_on_c, 0, 70, 81
1, 197598, Note_off_c, 0, 82, 73
1, 197606, Note_off_c, 0, 70, 70
1, 197609, Note_off_c, 0, 58, 68
1, 197616, Note_off_c, 0, 46, 66
1, 197625, Note_on_c, 0, 80, 5
1, 197675, Note_off_c, 0, 80, 29
1, 197690, Note_on_c, 0, 85, 86
1, 197694, Note_on_c, 0, 49, 73
1, 197696, Note_on_c, 0, 61, 75
1, 197698, Note_on_c, 0, 73, 78
1, 197711, Note_off_c, 0, 85, 68
1, 197720, Note_off_c, 0, 73, 69
1, 197722, Note_off_c, 0, 61, 67
1, 197726, Note_off_c, 0, 49, 63
1, 197801, Note_on_c, 0, 86, 78
1, 197804, Note_on_c, 0, 72, 88
1, 197805, Note_on_c, 0, 84, 82
1, 197807, Note_on_c, 0, 48, 65
1, 197809, Note_on_c, 0, 74, 71
1, 197822, Note_off_c, 0, 86, 71
1, 197823, Note_on_c, 0, 60, 49
1, 197824, Note_on_c, 0, 62, 36
1, 197825, Note_off_c, 0, 84, 71
1, 197827, Note_off_c, 0, 72, 71
1, 197832, Note_off_c, 0, 74, 68
1, 197837, Note_off_c, 0, 48, 64
1, 197851, Note_off_c, 0, 60, 53
1, 197854, Note_off_c, 0, 62, 50
1, 197891, Poly_aftertouch_c, 0, 50, 0
1, 197908, Note_on_c, 0, 59, 75
1, 197912, Note_on_c, 0, 71, 93
1, 197914, Note_on_c, 0, 83, 84
1, 197917, Note_on_c, 0, 47, 70
1, 197920, Poly_aftertouch_c, 0, 50, 0
1, 197932, Note_off_c, 0, 59, 70
1, 197934, Note_off_c, 0, 83, 73
1, 197936, Note_off_c, 0, 71, 67
1, 197947, Note_off_c, 0, 47, 65
1, 197951, Note_on_c, 0, 82, 20
1, 197952, Note_off_c, 0, 82, 127
1, 198012, Note_on_c, 0, 56, 65
1, 198012, Note_on_c, 0, 80, 95
1, 198015, Note_on_c, 0, 68, 95
1, 198017, Note_on_c, 0, 44, 67
1, 198033, Note_off_c, 0, 68, 72
1, 198033, Note_off_c, 0, 80, 69
1, 198039, Note_off_c, 0, 56, 66
1, 198045, Note_off_c, 0, 44, 64
1, 198054, Note_on_c, 0, 78, 13
1, 198055, Note_off_c, 0, 78, 127
1, 198087, Control_c, 0, 64, 95
1, 198096, Poly_aftertouch_c, 0, 78, 0
1, 198101, Control_c, 0, 64, 70
1, 198108, Note_on_c, 0, 53, 72
1, 198111, Note_on_c, 0, 65, 94
1, 198111, Note_on_c, 0, 77, 85
1, 198114, Note_on_c, 0, 41, 67
1, 198116, Control_c, 0, 64, 0
1, 198131, Note_off_c, 0, 77, 71
1, 198132, Note_off_c, 0, 65, 71
1, 198137, Note_off_c, 0, 41, 60
1, 198137, Note_off_c, 0, 53, 66
1, 198161, Control_c, 0, 64, 58
1, 198175, Control_c, 0, 64, 70
1, 198190, Control_c, 0, 64, 83
1, 198205, Control_c, 0, 64, 104
1, 198206, Note_on_c, 0, 78, 93
1, 198209, Note_on_c, 0, 54, 79
1, 198209, Note_on_c, 0, 66, 98
1, 198210, Note_on_c, 0, 42, 78
1, 198220, Control_c, 0, 64, 127
1, 198226, Note_off_c, 0, 66, 75
1, 198233, Note_off_c, 0, 54, 68
1, 198238, Note_off_c, 0, 42, 64
1, 198243, Note_off_c, 0, 78, 58
1, 198308, Note_on_c, 0, 45, 83
1, 198309, Note_on_c, 0, 69, 95
1, 198310, Note_on_c, 0, 57, 75
1, 198316, Note_on_c, 0, 81, 85
1, 198322, Note_on_c, 0, 79, 72
1, 198329, Note_off_c, 0, 69, 71
1, 198334, Note_off_c, 0, 45, 66
1, 198335, Note_off_c, 0, 57, 66
1, 198340, Note_off_c, 0, 79, 67
1, 198342, Note_off_c, 0, 81, 69
1, 198412, Note_on_c, 0, 48, 82
1, 198412, Note_on_c, 0, 72, 105
1, 198415, Note_on_c, 0, 60, 76
1, 198416, Note_on_c, 0, 84, 90
1, 198433, Note_off_c, 0, 84, 73
1, 198438, Note_off_c, 0, 60, 69
1, 198438, Note_off_c, 0, 48, 65
1, 198445, Note_off_c, 0, 72, 68
1, 198517, Note_on_c, 0, 51, 85
1, 198517, Note_on_c, 0, 75, 97
1, 198517, Note_on_c, 0, 87, 98
1, 198518, Note_on_c, 0, 63, 88
1, 198552, Note_off_c, 0, 87, 67
1, 198552, Note_off_c, 0, 75, 67
1, 198569, Note_off_c, 0, 63, 59
1, 198572, Note_off_c, 0, 51, 61
1, 198591, Control_c, 0, 64, 98
1, 198606, Control_c, 0, 64, 70
1, 198629, Control_c, 0, 64, 0
1, 198643, Note_on_c, 0, 88, 108
1, 198644, Note_on_c, 0, 76, 106
1, 198645, Note_on_c, 0, 52, 80
1, 198647, Note_on_c, 0, 64, 78
1, 198659, Control_c, 0, 64, 52
1, 198663, Note_on_c, 0, 87, 64
1, 198673, Control_c, 0, 64, 73
1, 198674, Note_off_c, 0, 64, 68
1, 198679, Note_on_c, 0, 82, 35
1, 198680, Note_off_c, 0, 82, 127
1, 198680, Note_off_c, 0, 76, 66
1, 198680, Note_off_c, 0, 87, 64
1, 198680, Note_off_c, 0, 88, 65
1, 198688, Note_off_c, 0, 52, 60
1, 198688, Control_c, 0, 64, 96
1, 198703, Control_c, 0, 64, 127
1, 198787, Note_on_c, 0, 85, 87
1, 198792, Note_on_c, 0, 49, 77
1, 198798, Note_on_c, 0, 73, 87
1, 198799, Note_on_c, 0, 61, 67
1, 198808, Note_off_c, 0, 85, 69
1, 198817, Note_off_c, 0, 73, 70
1, 198820, Note_off_c, 0, 49, 65
1, 198823, Note_off_c, 0, 61, 64
1, 198895, Note_on_c, 0, 82, 85
1, 198897, Note_on_c, 0, 58, 67
1, 198899, Note_on_c, 0, 70, 86
1, 198905, Note_on_c, 0, 46, 66
1, 198913, Note_off_c, 0, 82, 74
1, 198918, Note_off_c, 0, 70, 71
1, 198922, Note_off_c, 0, 58, 67
1, 198933, Note_off_c, 0, 46, 65
1, 198990, Note_on_c, 0, 55, 73
1, 198997, Note_on_c, 0, 43, 65
1, 198997, Note_on_c, 0, 79, 89
1, 198999, Note_on_c, 0, 67, 90
1, 199014, Control_c, 0, 64, 87
1, 199016, Note_off_c, 0, 55, 66
1, 199017, Note_off_c, 0, 79, 69
1, 199019, Note_off_c, 0, 67, 70
1, 199023, Note_off_c, 0, 43, 61
1, 199029, Control_c, 0, 64, 66
1, 199044, Control_c, 0, 64, 0
1, 199058, Control_c, 0, 64, 33
1, 199073, Control_c, 0, 64, 65
1, 199086, Note_on_c, 0, 56, 86
1, 199088, Control_c, 0, 64, 75
1, 199090, Note_on_c, 0, 44, 85
1, 199098, Note_on_c, 0, 78, 63
1, 199102, Note_on_c, 0, 68, 85
1, 199103, Control_c, 0, 64, 95
1, 199110, Note_on_c, 0, 80, 66
1, 199111, Note_off_c, 0, 80, 127
1, 199115, Note_off_c, 0, 56, 60
1, 199118, Control_c, 0, 64, 127
1, 199121, Note_off_c, 0, 68, 73
1, 199124, Note_off_c, 0, 44, 59
1, 199125, Note_off_c, 0, 78, 67
1, 199204, Note_on_c, 0, 59, 74
1, 199209, Note_on_c, 0, 71, 91
1, 199211, Note_on_c, 0, 83, 86
1, 199216, Note_on_c, 0, 47, 54
1, 199220, Poly_aftertouch_c, 0, 75, 0
1, 199227, Note_off_c, 0, 59, 70
1, 199231, Note_off_c, 0, 71, 69
1, 199233, Note_off_c, 0, 83, 72
1, 199243, Note_off_c, 0, 47, 55
1, 199246, Note_on_c, 0, 81, 36
1, 199247, Note_off_c, 0, 81, 127
1, 199306, Poly_aftertouch_c, 0, 45, 0
1, 199312, Note_on_c, 0, 62, 78
1, 199312, Note_on_c, 0, 74, 95
1, 199315, Note_on_c, 0, 50, 78
1, 199318, Note_on_c, 0, 86, 87
1, 199336, Note_off_c, 0, 62, 68
1, 199339, Note_off_c, 0, 86, 67
1, 199341, Note_off_c, 0, 50, 66
1, 199345, Note_off_c, 0, 74, 68
1, 199429, Note_on_c, 0, 53, 81
1, 199430, Note_on_c, 0, 77, 98
1, 199432, Note_on_c, 0, 65, 83
1, 199434, Note_on_c, 0, 89, 97
1, 199458, Note_off_c, 0, 65, 68
1, 199468, Note_off_c, 0, 77, 65
1, 199470, Note_off_c, 0, 53, 60
1, 199474, Note_off_c, 0, 89, 64
1, 199496, Control_c, 0, 64, 84
1, 199511, Control_c, 0, 64, 42
1, 199526, Control_c, 0, 64, 0
1, 199549, Note_on_c, 0, 90, 106
1, 199551, Note_on_c, 0, 78, 106
1, 199555, Note_on_c, 0, 54, 87
1, 199555, Control_c, 0, 64, 65
1, 199556, Note_on_c, 0, 66, 88
1, 199570, Control_c, 0, 64, 86
1, 199580, Note_off_c, 0, 66, 69
1, 199585, Control_c, 0, 64, 127
1, 199587, Note_off_c, 0, 90, 67
1, 199591, Note_off_c, 0, 78, 63
1, 199597, Note_off_c, 0, 54, 57
1, 199627, Poly_aftertouch_c, 0, 87, 127
1, 199656, Poly_aftertouch_c, 0, 87, 0
1, 199679, Note_on_c, 0, 63, 77
1, 199680, Note_on_c, 0, 87, 87
1, 199682, Note_on_c, 0, 51, 76
1, 199688, Note_on_c, 0, 75, 87
1, 199703, Note_off_c, 0, 63, 69
1, 199705, Note_off_c, 0, 87, 67
1, 199708, Note_off_c, 0, 75, 70
1, 199713, Note_off_c, 0, 51, 64
1, 199789, Note_on_c, 0, 84, 92
1, 199792, Note_on_c, 0, 60, 63
1, 199793, Note_on_c, 0, 48, 61
1, 199793, Note_on_c, 0, 72, 93
1, 199806, Note_off_c, 0, 84, 73
1, 199813, Note_off_c, 0, 60, 61
1, 199813, Note_off_c, 0, 72, 72
1, 199825, Note_off_c, 0, 48, 64
1, 199890, Note_on_c, 0, 69, 94
1, 199892, Note_on_c, 0, 57, 72
1, 199892, Note_on_c, 0, 81, 94
1, 199894, Note_on_c, 0, 45, 77
1, 199911, Note_off_c, 0, 81, 74
1, 199920, Note_off_c, 0, 69, 64
1, 199920, Note_off_c, 0, 57, 65
1, 199926, Note_off_c, 0, 45, 64
1, 199992, Note_on_c, 0, 58, 81
1, 199993, Note_on_c, 0, 82, 98
1, 199998, Note_on_c, 0, 70, 97
1, 200002, Note_on_c, 0, 46, 65
1, 200014, Note_off_c, 0, 58, 71
1, 200014, Note_off_c, 0, 82, 63
1, 200017, Note_off_c, 0, 70, 71
1, 200033, Note_off_c, 0, 46, 65
1, 200093, Note_on_c, 0, 85, 97
1, 200097, Note_on_c, 0, 73, 91
1, 200101, Note_on_c, 0, 61, 71
1, 200105, Note_on_c, 0, 49, 68
1, 200111, Note_off_c, 0, 85, 68
1, 200114, Note_off_c, 0, 73, 73
1, 200130, Note_off_c, 0, 61, 64
1, 200140, Note_off_c, 0, 49, 63
1, 200201, Note_on_c, 0, 64, 82
1, 200202, Note_on_c, 0, 88, 106
1, 200203, Note_on_c, 0, 52, 79
1, 200203, Note_on_c, 0, 76, 100
1, 200223, Note_off_c, 0, 64, 70
1, 200228, Note_off_c, 0, 52, 67
1, 200230, Note_off_c, 0, 88, 65
1, 200231, Note_off_c, 0, 76, 66
1, 200302, Note_on_c, 0, 78, 97
1, 200303, Note_on_c, 0, 66, 95
1, 200304, Note_on_c, 0, 90, 100
1, 200305, Note_on_c, 0, 54, 86
1, 200325, Note_off_c, 0, 78, 65
1, 200337, Note_off_c, 0, 66, 58
1, 200337, Note_off_c, 0, 90, 61
1, 200337, Note_off_c, 0, 54, 59
1, 200363, Control_c, 0, 64, 86
1, 200377, Control_c, 0, 64, 0
1, 200405, Note_on_c, 0, 79, 108
1, 200406, Note_on_c, 0, 91, 107
1, 200409, Note_on_c, 0, 55, 92
1, 200411, Note_on_c, 0, 67, 87
1, 200419, Note_on_c, 0, 89, 66
1, 200421, Control_c, 0, 64, 27
1, 200436, Control_c, 0, 64, 76
1, 200442, Note_off_c, 0, 89, 38
1, 200451, Control_c, 0, 64, 127
1, 200468, Note_off_c, 0, 67, 58
1, 200493, Note_off_c, 0, 91, 66
1, 200498, Note_off_c, 0, 79, 62
1, 200505, Note_off_c, 0, 55, 58
1, 200595, Note_on_c, 0, 88, 92
1, 200597, Note_on_c, 0, 76, 85
1, 200611, Note_on_c, 0, 64, 66
1, 200615, Note_on_c, 0, 52, 59
1, 200620, Note_off_c, 0, 76, 65
1, 200620, Note_off_c, 0, 88, 62
1, 200634, Note_off_c, 0, 64, 64
1, 200644, Note_off_c, 0, 52, 62
1, 200722, Note_on_c, 0, 85, 92
1, 200727, Note_on_c, 0, 73, 92
1, 200734, Note_on_c, 0, 49, 74
1, 200741, Note_off_c, 0, 85, 69
1, 200742, Note_on_c, 0, 61, 63
1, 200746, Note_off_c, 0, 73, 69
1, 200761, Note_off_c, 0, 49, 65
1, 200769, Note_off_c, 0, 61, 64
1, 200837, Note_on_c, 0, 82, 84
1, 200842, Note_on_c, 0, 70, 82
1, 200847, Note_on_c, 0, 58, 69
1, 200850, Note_on_c, 0, 46, 74
1, 200859, Note_off_c, 0, 82, 68
1, 200871, Note_off_c, 0, 70, 70
1, 200882, Note_off_c, 0, 58, 67
1, 200895, Note_off_c, 0, 46, 60
1, 200957, Note_on_c, 0, 45, 79
1, 200957, Note_on_c, 0, 69, 89
1, 200957, Note_on_c, 0, 81, 95
1, 200958, Note_on_c, 0, 57, 74
1, 200981, Note_off_c, 0, 69, 66
1, 200982, Note_off_c, 0, 81, 67
1, 200984, Note_off_c, 0, 57, 65
1, 200989, Note_off_c, 0, 45, 62
1, 201065, Note_on_c, 0, 85, 97
1, 201067, Note_on_c, 0, 55, 70
1, 201069, Note_on_c, 0, 43, 76
1, 201071, Note_on_c, 0, 73, 85
1, 201083, Note_off_c, 0, 85, 68
1, 201090, Note_off_c, 0, 73, 72
1, 201093, Note_off_c, 0, 55, 66
1, 201096, Note_off_c, 0, 43, 65
1, 201107, Note_on_c, 0, 75, 22
1, 201145, Note_off_c, 0, 75, 51
1, 201167, Note_on_c, 0, 52, 72
1, 201170, Note_on_c, 0, 40, 73
1, 201177, Note_on_c, 0, 76, 92
1, 201181, Note_on_c, 0, 88, 73
1, 201184, Note_on_c, 0, 89, 87
1, 201194, Note_off_c, 0, 52, 65
1, 201197, Note_off_c, 0, 40, 64
1, 201199, Note_off_c, 0, 76, 66
1, 201203, Note_off_c, 0, 88, 68
1, 201203, Note_off_c, 0, 89, 72
1, 201279, Note_on_c, 0, 37, 65
1, 201281, Note_on_c, 0, 49, 58
1, 201282, Note_on_c, 0, 90, 102
1, 201286, Note_on_c, 0, 78, 88
1, 201297, Note_off_c, 0, 90, 74
1, 201303, Note_off_c, 0, 78, 72
1, 201308, Note_off_c, 0, 49, 63
1, 201313, Note_off_c, 0, 37, 57
1, 201317, Note_on_c, 0, 39, 12
1, 201367, Note_off_c, 0, 39, 52
1, 201376, Note_on_c, 0, 45, 80
1, 201381, Note_on_c, 0, 33, 67
1, 201384, Note_on_c, 0, 91, 94
1, 201390, Note_on_c, 0, 79, 90
1, 201401, Note_off_c, 0, 45, 66
1, 201409, Note_off_c, 0, 33, 60
1, 201411, Note_off_c, 0, 79, 66
1, 201419, Note_off_c, 0, 91, 66
1, 201483, Control_c, 0, 64, 88
1, 201484, Note_on_c, 0, 37, 73
1, 201485, Note_on_c, 0, 49, 79
1, 201493, Note_on_c, 0, 76, 95
1, 201496, Note_on_c, 0, 88, 86
1, 201498, Control_c, 0, 64, 63
1, 201512, Note_off_c, 0, 49, 68
1, 201512, Control_c, 0, 64, 0
1, 201514, Note_off_c, 0, 88, 73
1, 201516, Note_on_c, 0, 87, 47
1, 201517, Note_off_c, 0, 76, 69
1, 201521, Note_off_c, 0, 37, 63
1, 201536, Note_off_c, 0, 87, 43
1, 201589, Note_on_c, 0, 35, 77
1, 201589, Note_on_c, 0, 47, 74
1, 201592, Note_on_c, 0, 90, 101
1, 201600, Note_on_c, 0, 78, 82
1, 201607, Note_off_c, 0, 90, 71
1, 201622, Note_on_c, 0, 87, 45
1, 201622, Note_off_c, 0, 47, 65
1, 201625, Note_off_c, 0, 35, 62
1, 201627, Note_off_c, 0, 78, 71
1, 201636, Note_off_c, 0, 87, 45
1, 201695, Note_on_c, 0, 45, 80
1, 201699, Note_on_c, 0, 91, 99
1, 201700, Note_on_c, 0, 79, 94
1, 201709, Note_on_c, 0, 33, 58
1, 201722, Note_off_c, 0, 45, 69
1, 201724, Note_off_c, 0, 79, 68
1, 201729, Note_off_c, 0, 91, 69
1, 201738, Note_off_c, 0, 33, 58
1, 201773, Control_c, 0, 64, 74
1, 201788, Note_on_c, 0, 44, 96
1, 201788, Control_c, 0, 64, 127
1, 201792, Note_on_c, 0, 92, 113
1, 201793, Note_on_c, 0, 80, 100
1, 201795, Note_on_c, 0, 32, 78
1, 201821, Note_off_c, 0, 92, 68
1, 201822, Note_off_c, 0, 32, 64
1, 201823, Note_off_c, 0, 80, 68
1, 201826, Note_off_c, 0, 44, 61
1, 201976, Note_on_c, 0, 63, 67
1, 201977, Note_on_c, 0, 75, 79
1, 201979, Note_on_c, 0, 72, 82
1, 201981, Note_on_c, 0, 68, 69
1, 201981, Note_on_c, 0, 80, 73
1, 201995, Note_off_c, 0, 75, 71
1, 202001, Note_on_c, 0, 60, 32
1, 202003, Note_off_c, 0, 63, 65
1, 202003, Note_off_c, 0, 80, 66
1, 202004, Note_off_c, 0, 72, 69
1, 202007, Note_off_c, 0, 68, 67
1, 202054, Note_off_c, 0, 60, 0
1, 202057, Note_on_c, 0, 68, 85
1, 202057, Note_on_c, 0, 63, 78
1, 202064, Note_on_c, 0, 60, 62
1, 202064, Note_on_c, 0, 72, 95
1, 202066, Note_on_c, 0, 75, 81
1, 202066, Note_on_c, 0, 80, 86
1, 202081, Note_off_c, 0, 75, 74
1, 202083, Note_off_c, 0, 80, 73
1, 202083, Note_off_c, 0, 68, 63
1, 202086, Note_off_c, 0, 72, 68
1, 202098, Note_off_c, 0, 63, 58
1, 202108, Note_off_c, 0, 60, 50
1, 202144, Note_on_c, 0, 63, 63
1, 202144, Note_on_c, 0, 68, 84
1, 202146, Note_on_c, 0, 80, 88
1, 202147, Note_on_c, 0, 75, 88
1, 202151, Note_on_c, 0, 72, 95
1, 202163, Poly_aftertouch_c, 0, 60, 127
1, 202165, Note_off_c, 0, 75, 71
1, 202169, Note_off_c, 0, 72, 74
1, 202171, Note_off_c, 0, 68, 66
1, 202177, Note_off_c, 0, 80, 61
1, 202186, Note_off_c, 0, 63, 60
1, 202191, Poly_aftertouch_c, 0, 60, 0
1, 202247, Control_c, 0, 64, 102
1, 202261, Control_c, 0, 64, 77
1, 202276, Control_c, 0, 64, 0
1, 202299, Note_on_c, 0, 61, 66
1, 202299, Note_on_c, 0, 81, 100
1, 202302, Note_on_c, 0, 69, 70
1, 202305, Note_on_c, 0, 73, 82
1, 202310, Note_on_c, 0, 64, 55
1, 202312, Note_on_c, 0, 76, 71
1, 202326, Note_off_c, 0, 73, 70
1, 202332, Note_off_c, 0, 69, 67
1, 202333, Note_off_c, 0, 81, 62
1, 202337, Note_off_c, 0, 76, 69
1, 202347, Note_off_c, 0, 64, 65
1, 202352, Note_off_c, 0, 61, 58
1, 202469, Note_on_c, 0, 80, 79
1, 202469, Note_on_c, 0, 75, 80
1, 202472, Note_on_c, 0, 60, 62
1, 202474, Note_on_c, 0, 72, 79
1, 202477, Note_on_c, 0, 63, 57
1, 202478, Note_on_c, 0, 68, 64
1, 202493, Note_off_c, 0, 80, 68
1, 202495, Note_off_c, 0, 75, 62
1, 202498, Note_off_c, 0, 72, 69
1, 202507, Note_off_c, 0, 68, 66
1, 202510, Note_off_c, 0, 60, 60
1, 202512, Note_off_c, 0, 63, 63
1, 202614, Note_on_c, 0, 81, 88
1, 202618, Note_on_c, 0, 73, 77
1, 202618, Note_on_c, 0, 76, 74
1, 202627, Note_on_c, 0, 61, 56
1, 202630, Note_on_c, 0, 69, 59
1, 202640, Note_off_c, 0, 73, 70
1, 202640, Note_off_c, 0, 76, 70
1, 202644, Note_off_c, 0, 81, 66
1, 202663, Note_off_c, 0, 69, 65
1, 202668, Note_off_c, 0, 61, 59
1, 202759, Control_c, 0, 64, 57
1, 202773, Control_c, 0, 64, 127
1, 202775, Note_on_c, 0, 80, 94
1, 202778, Note_on_c, 0, 71, 89
1, 202778, Note_on_c, 0, 75, 94
1, 202784, Note_on_c, 0, 68, 70
1, 202792, Note_on_c, 0, 59, 58
1, 202800, Note_on_c, 0, 63, 53
1, 202816, Note_off_c, 0, 68, 63
1, 202819, Note_off_c, 0, 75, 65
1, 202821, Note_off_c, 0, 71, 62
1, 202829, Note_off_c, 0, 59, 63
1, 202830, Note_off_c, 0, 63, 63
1, 202833, Note_off_c, 0, 80, 64
1, 202854, Poly_aftertouch_c, 0, 81, 127
1, 202888, Poly_aftertouch_c, 0, 81, 0
1, 202932, Note_on_c, 0, 73, 79
1, 202933, Note_on_c, 0, 69, 77
1, 202936, Note_on_c, 0, 78, 64
1, 202940, Note_on_c, 0, 66, 77
1, 202953, Note_off_c, 0, 73, 71
1, 202953, Note_off_c, 0, 78, 43
1, 202958, Note_off_c, 0, 69, 68
1, 202971, Note_on_c, 0, 61, 40
1, 202981, Note_off_c, 0, 66, 54
1, 203008, Note_on_c, 0, 65, 80
1, 203008, Note_off_c, 0, 61, 62
1, 203013, Note_on_c, 0, 73, 84
1, 203015, Note_on_c, 0, 77, 89
1, 203017, Note_on_c, 0, 69, 79
1, 203035, Note_off_c, 0, 73, 68
1, 203035, Note_off_c, 0, 77, 71
1, 203037, Note_off_c, 0, 69, 72
1, 203075, Note_off_c, 0, 65, 53
1, 203086, Poly_aftertouch_c, 0, 78, 127
1, 203087, Note_on_c, 0, 78, 54
1, 203091, Note_on_c, 0, 66, 75
1, 203095, Note_on_c, 0, 61, 68
1, 203095, Note_on_c, 0, 69, 83
1, 203095, Note_on_c, 0, 73, 86
1, 203097, Note_on_c, 0, 57, 60
1, 203123, Note_off_c, 0, 66, 68
1, 203125, Note_off_c, 0, 73, 71
1, 203126, Note_off_c, 0, 69, 70
1, 203130, Note_off_c, 0, 61, 65
1, 203133, Note_off_c, 0, 57, 65
1, 203145, Note_off_c, 0, 78, 64
1, 203196, Control_c, 0, 64, 114
1, 203211, Control_c, 0, 64, 85
1, 203225, Control_c, 0, 64, 63
1, 203241, Control_c, 0, 64, 0
1, 203256, Control_c, 0, 64, 61
1, 203262, Note_on_c, 0, 78, 79
1, 203264, Note_on_c, 0, 66, 77
1, 203270, Note_on_c, 0, 73, 64
1, 203271, Control_c, 0, 64, 71
1, 203282, Note_on_c, 0, 45, 66
1, 203285, Control_c, 0, 64, 87
1, 203286, Note_off_c, 0, 66, 70
1, 203295, Note_on_c, 0, 57, 39
1, 203297, Note_off_c, 0, 73, 67
1, 203300, Control_c, 0, 64, 127
1, 203312, Note_off_c, 0, 45, 62
1, 203315, Note_off_c, 0, 78, 62
1, 203327, Note_off_c, 0, 57, 46
1, 203336, Poly_aftertouch_c, 0, 69, 127
1, 203367, Poly_aftertouch_c, 0, 69, 0
1, 203420, Note_on_c, 0, 42, 75
1, 203423, Note_on_c, 0, 81, 82
1, 203425, Note_on_c, 0, 69, 67
1, 203427, Note_on_c, 0, 73, 71
1, 203430, Note_on_c, 0, 54, 50
1, 203431, Note_on_c, 0, 78, 61
1, 203440, Note_off_c, 0, 69, 67
1, 203447, Note_off_c, 0, 81, 66
1, 203454, Note_off_c, 0, 73, 68
1, 203454, Note_off_c, 0, 78, 65
1, 203455, Note_off_c, 0, 54, 57
1, 203457, Note_off_c, 0, 42, 62
1, 203562, Note_on_c, 0, 73, 81
1, 203562, Note_on_c, 0, 85, 84
1, 203563, Note_on_c, 0, 78, 73
1, 203565, Note_on_c, 0, 81, 72
1, 203571, Note_on_c, 0, 37, 75
1, 203579, Note_on_c, 0, 49, 63
1, 203587, Note_off_c, 0, 73, 67
1, 203602, Note_off_c, 0, 37, 63
1, 203602, Note_off_c, 0, 78, 58
1, 203602, Note_off_c, 0, 81, 64
1, 203607, Note_off_c, 0, 49, 63
1, 203609, Note_off_c, 0, 85, 54
1, 203698, Note_on_c, 0, 78, 107
1, 203700, Note_on_c, 0, 90, 99
1, 203703, Note_on_c, 0, 85, 96
1, 203703, Note_on_c, 0, 81, 94
1, 203705, Note_on_c, 0, 44, 91
1, 203712, Note_on_c, 0, 30, 70
1, 203719, Note_off_c, 0, 85, 73
1, 203721, Note_off_c, 0, 81, 74
1, 203723, Note_off_c, 0, 90, 62
1, 203727, Note_on_c, 0, 42, 46
1, 203727, Note_on_c, 0, 32, 47
1, 203730, Note_off_c, 0, 44, 65
1, 203736, Note_off_c, 0, 78, 63
1, 203741, Note_off_c, 0, 30, 57
1, 203756, Note_off_c, 0, 42, 57
1, 203764, Note_off_c, 0, 32, 51
1, 203881, Note_on_c, 0, 73, 68
1, 203882, Note_on_c, 0, 61, 66
1, 203885, Note_on_c, 0, 69, 61
1, 203885, Note_on_c, 0, 78, 66
1, 203887, Note_on_c, 0, 66, 71
1, 203897, Note_off_c, 0, 73, 69
1, 203898, Note_on_c, 0, 57, 48
1, 203903, Note_off_c, 0, 69, 63
1, 203906, Note_off_c, 0, 78, 59
1, 203909, Note_off_c, 0, 66, 66
1, 203913, Note_off_c, 0, 61, 64
1, 203925, Note_off_c, 0, 57, 56
1, 203956, Note_on_c, 0, 73, 84
1, 203958, Note_on_c, 0, 69, 84
1, 203959, Note_on_c, 0, 78, 87
1, 203965, Note_on_c, 0, 66, 88
1, 203968, Note_on_c, 0, 61, 74
1, 203974, Note_off_c, 0, 73, 72
1, 203977, Note_off_c, 0, 78, 71
1, 203978, Note_off_c, 0, 69, 72
1, 203983, Note_off_c, 0, 66, 74
1, 203984, Note_on_c, 0, 57, 54
1, 203996, Note_off_c, 0, 61, 62
1, 204019, Control_c, 0, 64, 124
1, 204033, Note_on_c, 0, 78, 84
1, 204034, Control_c, 0, 64, 106
1, 204037, Note_on_c, 0, 73, 93
1, 204041, Note_on_c, 0, 66, 86
1, 204044, Note_on_c, 0, 69, 82
1, 204049, Note_on_c, 0, 61, 62
1, 204050, Control_c, 0, 64, 96
1, 204057, Note_off_c, 0, 73, 68
1, 204062, Note_off_c, 0, 69, 73
1, 204064, Control_c, 0, 64, 85
1, 204071, Note_off_c, 0, 66, 58
1, 204077, Note_off_c, 0, 78, 64
1, 204079, Control_c, 0, 64, 72
1, 204085, Note_off_c, 0, 61, 60
1, 204089, Note_off_c, 0, 57, 60
1, 204094, Control_c, 0, 64, 0
1, 204190, Note_on_c, 0, 75, 82
1, 204192, Note_on_c, 0, 80, 77
1, 204197, Note_on_c, 0, 59, 53
1, 204197, Note_on_c, 0, 71, 71
1, 204201, Note_on_c, 0, 68, 68
1, 204209, Note_off_c, 0, 75, 71
1, 204210, Note_on_c, 0, 63, 48
1, 204217, Note_off_c, 0, 80, 66
1, 204222, Note_off_c, 0, 71, 65
1, 204227, Note_off_c, 0, 68, 68
1, 204241, Note_off_c, 0, 63, 61
1, 204242, Note_off_c, 0, 59, 58
1, 204343, Note_on_c, 0, 78, 83
1, 204347, Note_on_c, 0, 73, 75
1, 204351, Note_on_c, 0, 69, 65
1, 204359, Note_on_c, 0, 57, 57
1, 204361, Note_on_c, 0, 66, 63
1, 204365, Note_on_c, 0, 61, 46
1, 204367, Note_off_c, 0, 78, 65
1, 204370, Note_off_c, 0, 73, 69
1, 204370, Note_off_c, 0, 69, 64
1, 204389, Note_off_c, 0, 66, 67
1, 204397, Note_off_c, 0, 61, 59
1, 204403, Note_off_c, 0, 57, 57
1, 204500, Note_on_c, 0, 80, 78
1, 204501, Note_on_c, 0, 75, 72
1, 204505, Note_on_c, 0, 71, 69
1, 204510, Note_on_c, 0, 59, 49
1, 204511, Note_on_c, 0, 68, 61
1, 204525, Note_off_c, 0, 75, 67
1, 204525, Note_off_c, 0, 80, 65
1, 204526, Note_on_c, 0, 63, 42
1, 204534, Note_off_c, 0, 71, 68
1, 204541, Note_off_c, 0, 68, 65
1, 204557, Note_off_c, 0, 59, 60
1, 204563, Note_off_c, 0, 63, 57
1, 204635, Control_c, 0, 64, 64
1, 204650, Control_c, 0, 64, 127
1, 204654, Note_on_c, 0, 78, 98
1, 204659, Note_on_c, 0, 73, 91
1, 204664, Note_on_c, 0, 69, 79
1, 204666, Note_on_c, 0, 66, 74
1, 204671, Note_on_c, 0, 61, 55
1, 204686, Note_on_c, 0, 57, 45
1, 204689, Note_off_c, 0, 69, 66
1, 204694, Note_off_c, 0, 66, 68
1, 204707, Note_off_c, 0, 61, 60
1, 204713, Note_off_c, 0, 78, 59
1, 204716, Note_off_c, 0, 57, 51
1, 204725, Note_off_c, 0, 73, 63
1, 204812, Note_on_c, 0, 76, 80
1, 204814, Note_on_c, 0, 71, 77
1, 204816, Note_on_c, 0, 68, 79
1, 204830, Note_on_c, 0, 64, 65
1, 204837, Note_off_c, 0, 76, 67
1, 204840, Note_off_c, 0, 68, 69
1, 204841, Note_on_c, 0, 56, 47
1, 204841, Note_off_c, 0, 71, 68
1, 204851, Note_on_c, 0, 59, 48
1, 204858, Note_off_c, 0, 64, 67
1, 204880, Note_off_c, 0, 56, 49
1, 204897, Note_on_c, 0, 68, 81
1, 204897, Note_on_c, 0, 75, 82
1, 204901, Note_on_c, 0, 63, 77
1, 204904, Note_on_c, 0, 71, 65
1, 204907, Note_off_c, 0, 59, 57
1, 204917, Note_on_c, 0, 76, 48
1, 204921, Note_off_c, 0, 68, 69
1, 204928, Note_off_c, 0, 71, 71
1, 204929, Note_off_c, 0, 75, 60
1, 204936, Note_off_c, 0, 76, 63
1, 204965, Note_on_c, 0, 64, 62
1, 204966, Note_on_c, 0, 56, 74
1, 204970, Note_off_c, 0, 63, 64
1, 204973, Note_on_c, 0, 68, 89
1, 204982, Note_on_c, 0, 76, 78
1, 204989, Note_on_c, 0, 71, 67
1, 204993, Note_off_c, 0, 64, 67
1, 205006, Note_off_c, 0, 71, 67
1, 205008, Note_off_c, 0, 76, 66
1, 205020, Note_off_c, 0, 56, 65
1, 205026, Note_off_c, 0, 68, 62
1, 205031, Poly_aftertouch_c, 0, 59, 0
1, 205056, Poly_aftertouch_c, 0, 59, 0
1, 205095, Control_c, 0, 64, 87
1, 205110, Control_c, 0, 64, 65
1, 205125, Control_c, 0, 64, 0
1, 205137, Note_on_c, 0, 56, 71
1, 205146, Note_on_c, 0, 44, 65
1, 205150, Note_on_c, 0, 68, 72
1, 205153, Note_on_c, 0, 64, 49
1, 205154, Control_c, 0, 64, 64
1, 205163, Note_on_c, 0, 76, 41
1, 205163, Note_on_c, 0, 77, 42
1, 205166, Note_off_c, 0, 56, 66
1, 205169, Control_c, 0, 64, 76
1, 205177, Note_off_c, 0, 64, 58
1, 205178, Note_off_c, 0, 68, 68
1, 205184, Control_c, 0, 64, 98
1, 205190, Note_off_c, 0, 76, 51
1, 205191, Note_off_c, 0, 77, 53
1, 205197, Note_off_c, 0, 44, 60
1, 205199, Control_c, 0, 64, 127
1, 205291, Note_on_c, 0, 68, 93
1, 205291, Note_on_c, 0, 76, 66
1, 205300, Note_on_c, 0, 71, 75
1, 205300, Note_on_c, 0, 80, 74
1, 205311, Note_on_c, 0, 40, 73
1, 205313, Note_on_c, 0, 52, 68
1, 205321, Note_off_c, 0, 68, 62
1, 205324, Note_off_c, 0, 71, 68
1, 205330, Note_off_c, 0, 80, 64
1, 205333, Note_off_c, 0, 76, 62
1, 205342, Note_off_c, 0, 52, 65
1, 205352, Note_off_c, 0, 40, 62
1, 205451, Note_on_c, 0, 83, 89
1, 205455, Note_on_c, 0, 80, 85
1, 205458, Note_on_c, 0, 71, 64
1, 205461, Note_on_c, 0, 35, 77
1, 205465, Note_on_c, 0, 47, 67
1, 205481, Note_off_c, 0, 83, 62
1, 205485, Note_off_c, 0, 71, 66
1, 205494, Note_off_c, 0, 35, 61
1, 205496, Note_off_c, 0, 47, 64
1, 205497, Note_off_c, 0, 80, 64
1, 205593, Note_on_c, 0, 88, 100
1, 205593, Note_on_c, 0, 44, 98
1, 205596, Note_on_c, 0, 80, 98
1, 205599, Note_on_c, 0, 76, 95
1, 205599, Note_on_c, 0, 32, 87
1, 205614, Note_off_c, 0, 76, 75
1, 205616, Note_off_c, 0, 88, 63
1, 205621, Note_off_c, 0, 32, 66
1, 205630, Note_off_c, 0, 80, 66
1, 205631, Note_off_c, 0, 44, 63
1, 205760, Note_on_c, 0, 68, 85
1, 205763, Note_on_c, 0, 76, 77
1, 205769, Note_on_c, 0, 59, 69
1, 205771, Note_on_c, 0, 71, 63
1, 205776, Note_on_c, 0, 56, 55
1, 205776, Note_on_c, 0, 64, 60
1, 205780, Note_off_c, 0, 68, 71
1, 205789, Note_off_c, 0, 76, 68
1, 205801, Note_off_c, 0, 71, 66
1, 205804, Note_off_c, 0, 64, 64
1, 205805, Note_off_c, 0, 56, 54
1, 205811, Note_off_c, 0, 59, 52
1, 205848, Note_on_c, 0, 59, 57
1, 205848, Note_on_c, 0, 68, 79
1, 205848, Note_on_c, 0, 76, 80
1, 205858, Note_on_c, 0, 71, 73
1, 205864, Note_on_c, 0, 64, 72
1, 205869, Note_off_c, 0, 68, 72
1, 205870, Note_off_c, 0, 76, 70
1, 205873, Control_c, 0, 64, 112
1, 205879, Note_off_c, 0, 71, 71
1, 205881, Note_on_c, 0, 56, 58
1, 205888, Note_off_c, 0, 64, 70
1, 205888, Control_c, 0, 64, 96
1, 205903, Control_c, 0, 64, 83
1, 205909, Note_off_c, 0, 59, 0
1, 205918, Control_c, 0, 64, 69
1, 205924, Note_on_c, 0, 71, 87
1, 205925, Note_on_c, 0, 68, 90
1, 205927, Note_on_c, 0, 59, 53
1, 205929, Note_on_c, 0, 76, 83
1, 205931, Note_on_c, 0, 64, 79
1, 205932, Control_c, 0, 64, 38
1, 205947, Control_c, 0, 64, 0
1, 205951, Note_off_c, 0, 68, 67
1, 205955, Note_off_c, 0, 71, 63
1, 205960, Note_off_c, 0, 64, 66
1, 205966, Note_off_c, 0, 76, 60
1, 205977, Note_off_c, 0, 56, 61
1, 205989, Note_off_c, 0, 59, 54
1, 206072, Note_on_c, 0, 78, 83
1, 206079, Note_on_c, 0, 73, 77
1, 206080, Note_on_c, 0, 69, 72
1, 206081, Note_on_c, 0, 57, 62
1, 206085, Note_on_c, 0, 61, 64
1, 206087, Note_on_c, 0, 66, 67
1, 206100, Note_off_c, 0, 78, 61
1, 206108, Note_off_c, 0, 69, 66
1, 206121, Note_off_c, 0, 66, 66
1, 206130, Note_off_c, 0, 61, 59
1, 206132, Note_off_c, 0, 57, 57
1, 206137, Note_off_c, 0, 73, 65
1, 206233, Note_on_c, 0, 76, 70
1, 206236, Note_on_c, 0, 59, 60
1, 206237, Note_on_c, 0, 71, 77
1, 206238, Note_on_c, 0, 64, 65
1, 206242, Note_on_c, 0, 56, 65
1, 206245, Note_on_c, 0, 68, 68
1, 206266, Note_off_c, 0, 64, 67
1, 206269, Note_off_c, 0, 71, 67
1, 206272, Note_off_c, 0, 68, 67
1, 206273, Note_off_c, 0, 76, 58
1, 206275, Note_off_c, 0, 59, 60
1, 206279, Note_off_c, 0, 56, 61
1, 206384, Note_on_c, 0, 78, 78
1, 206397, Note_on_c, 0, 73, 67
1, 206400, Note_on_c, 0, 66, 62
1, 206402, Note_on_c, 0, 69, 54
1, 206403, Note_on_c, 0, 61, 53
1, 206409, Note_on_c, 0, 57, 47
1, 206419, Note_off_c, 0, 78, 55
1, 206424, Note_off_c, 0, 69, 58
1, 206430, Note_off_c, 0, 66, 66
1, 206442, Note_off_c, 0, 73, 62
1, 206448, Note_off_c, 0, 61, 57
1, 206453, Note_off_c, 0, 57, 56
1, 206534, Control_c, 0, 64, 75
1, 206542, Note_on_c, 0, 71, 79
1, 206546, Note_on_c, 0, 76, 84
1, 206547, Note_on_c, 0, 68, 84
1, 206548, Control_c, 0, 64, 127
1, 206553, Note_on_c, 0, 64, 71
1, 206555, Note_on_c, 0, 56, 71
1, 206558, Note_on_c, 0, 59, 58
1, 206576, Note_off_c, 0, 68, 62
1, 206580, Note_off_c, 0, 64, 68
1, 206581, Note_off_c, 0, 76, 61
1, 206585, Note_off_c, 0, 71, 62
1, 206589, Note_off_c, 0, 59, 65
1, 206594, Note_off_c, 0, 56, 55
1, 206681, Control_c, 0, 64, 101
1, 206696, Control_c, 0, 64, 75
1, 206706, Note_on_c, 0, 63, 71
1, 206710, Control_c, 0, 64, 0
1, 206713, Note_on_c, 0, 75, 75
1, 206722, Note_on_c, 0, 70, 67
1, 206726, Note_on_c, 0, 55, 43
1, 206727, Note_on_c, 0, 67, 58
1, 206752, Note_off_c, 0, 70, 65
1, 206756, Note_off_c, 0, 63, 60
1, 206759, Note_off_c, 0, 67, 65
1, 206763, Note_off_c, 0, 75, 59
1, 206771, Note_off_c, 0, 55, 57
1, 206783, Note_on_c, 0, 74, 65
1, 206797, Note_on_c, 0, 62, 62
1, 206824, Note_off_c, 0, 74, 64
1, 206865, Note_off_c, 0, 62, 62
1, 206865, Note_on_c, 0, 75, 92
1, 206866, Control_c, 0, 64, 108
1, 206867, Note_on_c, 0, 69, 89
1, 206871, Note_on_c, 0, 66, 90
1, 206873, Note_on_c, 0, 57, 67
1, 206873, Note_on_c, 0, 63, 82
1, 206881, Control_c, 0, 64, 127
1, 206895, Note_on_c, 0, 54, 61
1, 206897, Note_off_c, 0, 66, 64
1, 206898, Note_off_c, 0, 63, 67
1, 206900, Note_off_c, 0, 69, 63
1, 206907, Note_off_c, 0, 57, 64
1, 206910, Note_off_c, 0, 75, 62
1, 206923, Note_off_c, 0, 54, 65
1, 206970, Control_c, 0, 64, 112
1, 206985, Control_c, 0, 64, 87
1, 207000, Control_c, 0, 64, 67
1, 207015, Control_c, 0, 64, 0
1, 207040, Note_on_c, 0, 61, 69
1, 207047, Note_on_c, 0, 65, 64
1, 207047, Note_on_c, 0, 68, 62
1, 207073, Note_off_c, 0, 61, 59
1, 207077, Note_on_c, 0, 73, 67
1, 207078, Note_off_c, 0, 68, 66
1, 207083, Note_on_c, 0, 56, 16
1, 207083, Note_off_c, 0, 65, 59
1, 207109, Note_off_c, 0, 56, 50
1, 207110, Note_on_c, 0, 60, 75
1, 207137, Note_off_c, 0, 73, 65
1, 207169, Note_off_c, 0, 60, 49
1, 207176, Note_on_c, 0, 73, 91
1, 207178, Control_c, 0, 64, 51
1, 207181, Note_on_c, 0, 61, 84
1, 207182, Note_on_c, 0, 64, 86
1, 207184, Note_on_c, 0, 67, 81
1, 207191, Note_on_c, 0, 55, 67
1, 207192, Control_c, 0, 64, 127
1, 207194, Note_on_c, 0, 52, 65
1, 207204, Note_off_c, 0, 64, 70
1, 207213, Note_off_c, 0, 67, 64
1, 207220, Note_off_c, 0, 73, 64
1, 207227, Note_off_c, 0, 52, 60
1, 207228, Note_off_c, 0, 61, 62
1, 207229, Note_off_c, 0, 55, 65
1, 207297, Control_c, 0, 64, 113
1, 207312, Control_c, 0, 64, 81
1, 207327, Control_c, 0, 64, 0
1, 207331, Note_on_c, 0, 70, 63
1, 207332, Note_off_c, 0, 70, 127
1, 207342, Note_on_c, 0, 63, 65
1, 207342, Note_on_c, 0, 71, 72
1, 207343, Note_on_c, 0, 66, 77
1, 207356, Note_on_c, 0, 59, 60
1, 207365, Note_on_c, 0, 51, 42
1, 207369, Note_off_c, 0, 63, 66
1, 207372, Note_off_c, 0, 71, 65
1, 207384, Note_on_c, 0, 54, 27
1, 207385, Note_off_c, 0, 66, 60
1, 207389, Note_off_c, 0, 59, 63
1, 207408, Note_off_c, 0, 51, 56
1, 207414, Note_on_c, 0, 58, 75
1, 207418, Note_on_c, 0, 70, 75
1, 207424, Note_off_c, 0, 54, 50
1, 207450, Note_off_c, 0, 70, 67
1, 207463, Note_off_c, 0, 58, 63
1, 207484, Note_on_c, 0, 71, 92
1, 207489, Control_c, 0, 64, 74
1, 207490, Note_on_c, 0, 62, 93
1, 207494, Note_on_c, 0, 59, 78
1, 207494, Note_on_c, 0, 65, 85
1, 207496, Note_on_c, 0, 53, 74
1, 207500, Note_on_c, 0, 50, 69
1, 207504, Control_c, 0, 64, 98
1, 207512, Note_off_c, 0, 62, 67
1, 207518, Note_off_c, 0, 65, 71
1, 207519, Control_c, 0, 64, 127
1, 207524, Note_off_c, 0, 71, 66
1, 207524, Note_off_c, 0, 59, 63
1, 207533, Note_off_c, 0, 50, 65
1, 207539, Note_off_c, 0, 53, 59
1, 207652, Note_on_c, 0, 57, 73
1, 207654, Note_on_c, 0, 61, 82
1, 207656, Note_on_c, 0, 69, 68
1, 207657, Note_on_c, 0, 64, 75
1, 207660, Note_on_c, 0, 49, 57
1, 207670, Note_on_c, 0, 52, 45
1, 207674, Control_c, 0, 64, 100
1, 207675, Note_on_c, 0, 53, 40
1, 207676, Note_off_c, 0, 61, 69
1, 207679, Note_off_c, 0, 57, 67
1, 207681, Note_off_c, 0, 64, 70
1, 207685, Note_off_c, 0, 69, 67
1, 207689, Control_c, 0, 64, 83
1, 207692, Note_off_c, 0, 49, 64
1, 207694, Note_off_c, 0, 53, 60
1, 207700, Note_off_c, 0, 52, 59
1, 207704, Control_c, 0, 64, 68
1, 207719, Control_c, 0, 64, 0
1, 207733, Note_on_c, 0, 61, 83
1, 207736, Note_on_c, 0, 57, 75
1, 207737, Note_on_c, 0, 64, 79
1, 207739, Note_on_c, 0, 68, 80
1, 207743, Note_on_c, 0, 56, 73
1, 207748, Note_on_c, 0, 52, 56
1, 207751, Note_off_c, 0, 61, 73
1, 207751, Note_on_c, 0, 69, 62
1, 207758, Note_off_c, 0, 64, 71
1, 207762, Note_off_c, 0, 68, 68
1, 207763, Note_off_c, 0, 57, 65
1, 207766, Note_on_c, 0, 49, 53
1, 207769, Note_off_c, 0, 69, 68
1, 207769, Note_off_c, 0, 56, 70
1, 207780, Note_off_c, 0, 52, 65
1, 207811, Note_on_c, 0, 57, 87
1, 207816, Note_on_c, 0, 61, 88
1, 207817, Note_on_c, 0, 64, 86
1, 207817, Note_on_c, 0, 69, 90
1, 207832, Note_on_c, 0, 52, 56
1, 207834, Note_off_c, 0, 61, 71
1, 207837, Note_off_c, 0, 64, 72
1, 207854, Note_off_c, 0, 57, 61
1, 207857, Note_off_c, 0, 69, 60
1, 207858, Note_off_c, 0, 52, 58
1, 207858, Note_off_c, 0, 49, 59
1, 207966, Note_on_c, 0, 71, 74
1, 207971, Note_on_c, 0, 51, 70
1, 207972, Note_on_c, 0, 63, 67
1, 207972, Note_on_c, 0, 66, 79
1, 207977, Note_on_c, 0, 59, 63
1, 207996, Note_on_c, 0, 54, 41
1, 208000, Note_off_c, 0, 63, 66
1, 208004, Note_off_c, 0, 66, 65
1, 208007, Note_off_c, 0, 59, 67
1, 208018, Note_off_c, 0, 71, 60
1, 208034, Note_off_c, 0, 54, 52
1, 208043, Note_off_c, 0, 51, 60
1, 208120, Note_on_c, 0, 73, 81
1, 208121, Note_on_c, 0, 68, 82
1, 208124, Note_on_c, 0, 64, 73
1, 208131, Note_on_c, 0, 61, 67
1, 208137, Note_on_c, 0, 56, 55
1, 208138, Note_on_c, 0, 52, 54
1, 208147, Note_off_c, 0, 64, 68
1, 208160, Note_off_c, 0, 61, 65
1, 208160, Note_off_c, 0, 73, 50
1, 208173, Note_off_c, 0, 56, 63
1, 208175, Note_off_c, 0, 52, 62
1, 208187, Note_off_c, 0, 68, 59
1, 208281, Note_on_c, 0, 71, 67
1, 208284, Note_on_c, 0, 63, 76
1, 208286, Note_on_c, 0, 66, 83
1, 208292, Note_on_c, 0, 59, 65
1, 208300, Note_on_c, 0, 51, 57
1, 208310, Note_off_c, 0, 63, 68
1, 208312, Note_off_c, 0, 71, 66
1, 208321, Note_off_c, 0, 59, 65
1, 208333, Note_off_c, 0, 66, 63
1, 208339, Note_off_c, 0, 51, 64
1, 208394, Control_c, 0, 64, 37
1, 208409, Control_c, 0, 64, 69
1, 208424, Control_c, 0, 64, 96
1, 208438, Control_c, 0, 64, 127
1, 208442, Note_on_c, 0, 69, 91
1, 208442, Note_on_c, 0, 61, 98
1, 208451, Note_on_c, 0, 64, 81
1, 208452, Note_on_c, 0, 57, 78
1, 208454, Note_on_c, 0, 52, 68
1, 208457, Note_on_c, 0, 49, 67
1, 208504, Note_off_c, 0, 52, 56
1, 208509, Note_off_c, 0, 64, 60
1, 208511, Note_off_c, 0, 61, 53
1, 208519, Note_off_c, 0, 57, 59
1, 208523, Note_off_c, 0, 69, 60
1, 208528, Note_off_c, 0, 49, 61
1, 208609, Note_on_c, 0, 68, 79
1, 208612, Note_on_c, 0, 63, 73
1, 208615, Note_on_c, 0, 60, 67
1, 208616, Control_c, 0, 64, 88
1, 208618, Note_on_c, 0, 51, 62
1, 208620, Note_on_c, 0, 56, 68
1, 208630, Control_c, 0, 64, 68
1, 208632, Note_off_c, 0, 68, 69
1, 208637, Note_off_c, 0, 63, 68
1, 208640, Note_on_c, 0, 48, 38
1, 208644, Note_off_c, 0, 60, 65
1, 208645, Control_c, 0, 64, 0
1, 208649, Note_off_c, 0, 56, 67
1, 208660, Note_off_c, 0, 51, 59
1, 208673, Note_off_c, 0, 48, 49
1, 208705, Note_on_c, 0, 68, 84
1, 208705, Control_c, 0, 64, 63
1, 208705, Note_on_c, 0, 63, 74
1, 208709, Note_on_c, 0, 51, 57
1, 208709, Note_on_c, 0, 60, 69
1, 208711, Note_on_c, 0, 56, 75
1, 208720, Control_c, 0, 64, 72
1, 208727, Note_off_c, 0, 68, 70
1, 208729, Note_off_c, 0, 63, 66
1, 208731, Note_on_c, 0, 48, 40
1, 208735, Control_c, 0, 64, 83
1, 208737, Note_off_c, 0, 60, 68
1, 208738, Note_off_c, 0, 56, 66
1, 208749, Control_c, 0, 64, 94
1, 208764, Control_c, 0, 64, 104
1, 208779, Control_c, 0, 64, 127
1, 208782, Note_off_c, 0, 51, 0
1, 208785, Note_off_c, 0, 48, 0
1, 208785, Note_on_c, 0, 48, 33
1, 208787, Note_on_c, 0, 63, 80
1, 208790, Note_on_c, 0, 68, 93
1, 208795, Note_on_c, 0, 56, 77
1, 208800, Note_on_c, 0, 60, 57
1, 208804, Note_on_c, 0, 51, 26
1, 208818, Note_off_c, 0, 60, 63
1, 208818, Note_off_c, 0, 56, 67
1, 208821, Note_off_c, 0, 48, 61
1, 208824, Note_off_c, 0, 63, 61
1, 208842, Note_off_c, 0, 51, 52
1, 208842, Note_off_c, 0, 68, 64
1, 208946, Note_on_c, 0, 80, 78
1, 208958, Note_on_c, 0, 59, 64
1, 208963, Note_on_c, 0, 82, 74
1, 208970, Note_off_c, 0, 80, 68
1, 208976, Note_on_c, 0, 60, 51
1, 208978, Note_on_c, 0, 84, 75
1, 208982, Note_on_c, 0, 68, 45
1, 208989, Note_off_c, 0, 82, 64
1, 209004, Note_off_c, 0, 68, 38
1, 209020, Note_off_c, 0, 60, 43
1, 209023, Note_off_c, 0, 59, 52
1, 209032, Note_on_c, 0, 85, 74
1, 209043, Note_off_c, 0, 84, 64
1, 209045, Note_on_c, 0, 87, 68
1, 209053, Note_off_c, 0, 85, 71
1, 209060, Note_off_c, 0, 87, 67
1, 209089, Note_on_c, 0, 68, 75
1, 209107, Note_on_c, 0, 72, 83
1, 209120, Note_on_c, 0, 89, 86
1, 209131, Note_off_c, 0, 68, 61
1, 209139, Note_on_c, 0, 91, 86
1, 209143, Note_off_c, 0, 89, 65
1, 209155, Note_off_c, 0, 72, 62
1, 209166, Note_on_c, 0, 92, 81
1, 209188, Note_off_c, 0, 91, 65
1, 209204, Note_on_c, 0, 94, 71
1, 209209, Note_on_c, 0, 96, 86
1, 209220, Note_off_c, 0, 92, 66
1, 209229, Note_off_c, 0, 94, 68
1, 209229, Note_off_c, 0, 96, 72
1, 209239, Note_on_c, 0, 68, 81
1, 209250, Note_on_c, 0, 75, 70
1, 209279, Note_on_c, 0, 97, 87
1, 209305, Note_off_c, 0, 75, 61
1, 209310, Note_off_c, 0, 97, 62
1, 209313, Note_on_c, 0, 99, 55
1, 209323, Note_on_c, 0, 98, 76
1, 209340, Note_off_c, 0, 68, 53
1, 209348, Note_off_c, 0, 98, 69
1, 209350, Note_on_c, 0, 100, 64
1, 209355, Note_on_c, 0, 101, 81
1, 209356, Note_off_c, 0, 99, 48
1, 209375, Note_on_c, 0, 104, 104
1, 209377, Note_on_c, 0, 72, 78
1, 209378, Note_on_c, 0, 80, 105
1, 209382, Note_on_c, 0, 75, 90
1, 209392, Note_on_c, 0, 103, 80
1, 209397, Note_off_c, 0, 101, 66
1, 209398, Note_off_c, 0, 100, 67
1, 209405, Note_off_c, 0, 80, 71
1, 209405, Note_on_c, 0, 68, 38
1, 209407, Note_off_c, 0, 104, 66
1, 209416, Note_off_c, 0, 103, 70
1, 209425, Note_off_c, 0, 75, 62
1, 209432, Note_off_c, 0, 68, 57
1, 209432, Note_off_c, 0, 72, 64
1, 209487, Poly_aftertouch_c, 0, 70, 0
1, 209672, Note_on_c, 0, 60, 80
1, 209677, Note_on_c, 0, 63, 74
1, 209678, Note_on_c, 0, 68, 68
1, 209696, Note_off_c, 0, 60, 67
1, 209697, Note_off_c, 0, 68, 67
1, 209705, Note_off_c, 0, 63, 66
1, 209706, Control_c, 0, 64, 98
1, 209721, Control_c, 0, 64, 80
1, 209735, Control_c, 0, 64, 65
1, 209741, Poly_aftertouch_c, 0, 70, 0
1, 209750, Control_c, 0, 64, 0
1, 209753, Note_on_c, 0, 60, 84
1, 209755, Note_on_c, 0, 63, 80
1, 209757, Note_on_c, 0, 68, 83
1, 209770, Poly_aftertouch_c, 0, 70, 0
1, 209776, Note_off_c, 0, 68, 72
1, 209778, Note_off_c, 0, 63, 67
1, 209780, Note_off_c, 0, 60, 66
1, 209826, Note_on_c, 0, 56, 81
1, 209830, Note_on_c, 0, 44, 78
1, 209834, Note_on_c, 0, 60, 89
1, 209834, Note_on_c, 0, 68, 89
1, 209834, Note_on_c, 0, 63, 79
1, 209846, Note_off_c, 0, 56, 69
1, 209861, Note_off_c, 0, 63, 72
1, 209863, Note_off_c, 0, 60, 68
1, 209869, Note_off_c, 0, 44, 65
1, 209879, Note_off_c, 0, 68, 61
1, 210014, Note_on_c, 0, 69, 78
1, 210043, Note_off_c, 0, 69, 66
1, 210053, Note_on_c, 0, 62, 19
1, 210090, Note_off_c, 0, 62, 31
1, 210174, Note_on_c, 0, 60, 71
1, 210178, Note_on_c, 0, 68, 71
1, 210181, Note_on_c, 0, 63, 71
1, 210192, Note_on_c, 0, 44, 58
1, 210198, Note_on_c, 0, 32, 56
1, 210201, Note_off_c, 0, 60, 68
1, 210204, Note_off_c, 0, 68, 67
1, 210209, Note_off_c, 0, 63, 67
1, 210227, Note_off_c, 0, 44, 61
1, 210249, Note_off_c, 0, 32, 56
1, 210329, Note_on_c, 0, 61, 73
1, 210329, Note_on_c, 0, 69, 71
1, 210335, Note_on_c, 0, 64, 64
1, 210355, Note_off_c, 0, 61, 66
1, 210356, Note_off_c, 0, 69, 67
1, 210365, Note_off_c, 0, 64, 67
1, 210424, Control_c, 0, 64, 64
1, 210440, Control_c, 0, 64, 77
1, 210454, Control_c, 0, 64, 104
1, 210469, Control_c, 0, 64, 127
1, 210505, Note_on_c, 0, 68, 81
1, 210511, Note_on_c, 0, 59, 73
1, 210511, Note_on_c, 0, 63, 75
1, 210547, Note_off_c, 0, 59, 57
1, 210547, Note_off_c, 0, 63, 60
1, 210562, Note_off_c, 0, 68, 61
1, 210669, Control_c, 0, 64, 110
1, 210671, Note_on_c, 0, 66, 82
1, 210679, Note_on_c, 0, 57, 68
1, 210681, Note_on_c, 0, 61, 69
1, 210684, Control_c, 0, 64, 84
1, 210695, Note_off_c, 0, 66, 69
1, 210697, Note_off_c, 0, 57, 63
1, 210699, Control_c, 0, 64, 62
1, 210700, Note_off_c, 0, 61, 64
1, 210714, Control_c, 0, 64, 0
1, 210756, Note_on_c, 0, 61, 85
1, 210758, Control_c, 0, 64, 58
1, 210761, Note_on_c, 0, 65, 72
1, 210762, Note_on_c, 0, 57, 67
1, 210773, Control_c, 0, 64, 70
1, 210779, Note_off_c, 0, 61, 69
1, 210788, Note_off_c, 0, 57, 61
1, 210788, Control_c, 0, 64, 82
1, 210789, Note_off_c, 0, 65, 68
1, 210803, Control_c, 0, 64, 99
1, 210818, Control_c, 0, 64, 127
1, 210845, Note_on_c, 0, 66, 88
1, 210846, Note_on_c, 0, 61, 76
1, 210848, Note_on_c, 0, 57, 52
1, 210864, Note_off_c, 0, 61, 73
1, 210866, Poly_aftertouch_c, 0, 64, 0
1, 210874, Note_off_c, 0, 57, 54
1, 210889, Note_off_c, 0, 66, 67
1, 211011, Note_on_c, 0, 78, 57
1, 211015, Note_on_c, 0, 81, 93
1, 211021, Note_on_c, 0, 80, 60
1, 211030, Note_on_c, 0, 66, 69
1, 211030, Note_off_c, 0, 78, 62
1, 211033, Note_on_c, 0, 57, 39
1, 211059, Note_off_c, 0, 66, 66
1, 211065, Note_off_c, 0, 80, 47
1, 211066, Note_on_c, 0, 61, 7
1, 211079, Note_off_c, 0, 57, 46
1, 211082, Note_on_c, 0, 85, 86
1, 211086, Note_off_c, 0, 81, 62
1, 211087, Poly_aftertouch_c, 0, 55, 127
1, 211113, Note_off_c, 0, 85, 61
1, 211114, Note_off_c, 0, 61, 50
1, 211116, Poly_aftertouch_c, 0, 55, 0
1, 211143, Note_on_c, 0, 66, 71
1, 211159, Note_on_c, 0, 69, 75
1, 211161, Poly_aftertouch_c, 0, 83, 127
1, 211167, Note_off_c, 0, 66, 68
1, 211169, Note_on_c, 0, 87, 67
1, 211170, Note_off_c, 0, 87, 127
1, 211178, Poly_aftertouch_c, 0, 83, 0
1, 211198, Note_off_c, 0, 69, 60
1, 211199, Note_on_c, 0, 89, 72
1, 211213, Note_on_c, 0, 90, 63
1, 211252, Note_off_c, 0, 89, 61
1, 211262, Note_on_c, 0, 92, 66
1, 211270, Note_on_c, 0, 93, 73
1, 211273, Note_off_c, 0, 90, 65
1, 211286, Note_off_c, 0, 93, 68
1, 211289, Note_off_c, 0, 92, 67
1, 211308, Note_on_c, 0, 66, 89
1, 211319, Note_on_c, 0, 73, 74
1, 211331, Note_on_c, 0, 95, 87
1, 211374, Note_on_c, 0, 97, 77
1, 211379, Note_off_c, 0, 95, 64
1, 211382, Note_off_c, 0, 73, 63
1, 211399, Note_on_c, 0, 99, 88
1, 211426, Note_off_c, 0, 66, 62
1, 211427, Note_on_c, 0, 102, 92
1, 211434, Note_off_c, 0, 97, 65
1, 211441, Note_on_c, 0, 78, 100
1, 211442, Note_on_c, 0, 69, 67
1, 211442, Note_on_c, 0, 101, 77
1, 211444, Note_on_c, 0, 73, 82
1, 211455, Note_off_c, 0, 99, 66
1, 211465, Note_off_c, 0, 101, 67
1, 211470, Note_off_c, 0, 78, 68
1, 211471, Note_off_c, 0, 102, 65
1, 211494, Note_off_c, 0, 73, 64
1, 211499, Note_off_c, 0, 69, 63
1, 211755, Note_on_c, 0, 61, 80
1, 211756, Note_on_c, 0, 66, 80
1, 211760, Note_on_c, 0, 57, 69
1, 211760, Control_c, 0, 64, 113
1, 211774, Control_c, 0, 64, 94
1, 211778, Note_off_c, 0, 61, 69
1, 211781, Note_off_c, 0, 66, 68
1, 211785, Note_off_c, 0, 57, 64
1, 211789, Control_c, 0, 64, 80
1, 211804, Control_c, 0, 64, 66
1, 211819, Control_c, 0, 64, 0
1, 211832, Note_on_c, 0, 61, 81
1, 211833, Note_on_c, 0, 66, 87
1, 211836, Note_on_c, 0, 57, 81
1, 211856, Note_off_c, 0, 61, 69
1, 211858, Note_off_c, 0, 66, 70
1, 211859, Note_off_c, 0, 57, 66
1, 211912, Note_on_c, 0, 56, 86
1, 211912, Note_on_c, 0, 66, 97
1, 211916, Note_on_c, 0, 57, 79
1, 211916, Note_on_c, 0, 61, 94
1, 211921, Note_on_c, 0, 44, 69
1, 211933, Note_off_c, 0, 56, 71
1, 211933, Note_off_c, 0, 61, 72
1, 211946, Note_off_c, 0, 57, 64
1, 211952, Note_off_c, 0, 44, 63
1, 211954, Note_off_c, 0, 66, 62
1, 212094, Note_on_c, 0, 59, 76
1, 212097, Note_on_c, 0, 63, 74
1, 212113, Note_on_c, 0, 68, 62
1, 212127, Note_off_c, 0, 59, 67
1, 212132, Note_off_c, 0, 63, 66
1, 212142, Note_off_c, 0, 68, 66
1, 212260, Note_on_c, 0, 61, 76
1, 212261, Note_on_c, 0, 57, 68
1, 212261, Note_on_c, 0, 66, 77
1, 212270, Note_on_c, 0, 44, 62
1, 212274, Note_on_c, 0, 32, 56
1, 212287, Note_off_c, 0, 61, 67
1, 212291, Note_off_c, 0, 57, 65
1, 212293, Note_off_c, 0, 66, 64
1, 212306, Note_off_c, 0, 44, 60
1, 212327, Note_off_c, 0, 32, 53
1, 212422, Note_on_c, 0, 68, 71
1, 212422, Note_on_c, 0, 63, 68
1, 212425, Note_on_c, 0, 59, 65
1, 212451, Note_off_c, 0, 68, 65
1, 212452, Note_off_c, 0, 59, 68
1, 212452, Note_off_c, 0, 63, 65
1, 212538, Control_c, 0, 64, 46
1, 212553, Control_c, 0, 64, 67
1, 212568, Control_c, 0, 64, 81
1, 212582, Control_c, 0, 64, 114
1, 212589, Note_on_c, 0, 66, 90
1, 212597, Control_c, 0, 64, 127
1, 212600, Note_on_c, 0, 61, 73
1, 212601, Note_on_c, 0, 57, 64
1, 212638, Note_off_c, 0, 57, 63
1, 212678, Note_off_c, 0, 66, 61
1, 212684, Note_off_c, 0, 61, 59
1, 212759, Note_on_c, 0, 64, 81
1, 212766, Note_on_c, 0, 56, 72
1, 212767, Note_on_c, 0, 59, 69
1, 212774, Control_c, 0, 64, 111
1, 212789, Control_c, 0, 64, 84
1, 212791, Note_off_c, 0, 56, 67
1, 212794, Note_off_c, 0, 59, 69
1, 212804, Control_c, 0, 64, 0
1, 212808, Note_off_c, 0, 64, 60
1, 212859, Note_on_c, 0, 56, 73
1, 212862, Note_on_c, 0, 63, 82
1, 212869, Note_on_c, 0, 59, 65
1, 212882, Note_off_c, 0, 56, 67
1, 212887, Control_c, 0, 64, 64
1, 212896, Note_off_c, 0, 59, 68
1, 212902, Control_c, 0, 64, 75
1, 212908, Note_off_c, 0, 63, 60
1, 212917, Control_c, 0, 64, 98
1, 212932, Control_c, 0, 64, 127
1, 212935, Note_on_c, 0, 64, 84
1, 212936, Note_on_c, 0, 56, 88
1, 212943, Note_on_c, 0, 63, 52
1, 212953, Note_off_c, 0, 56, 74
1, 212972, Note_off_c, 0, 63, 51
1, 212986, Note_off_c, 0, 64, 66
1, 213108, Note_on_c, 0, 76, 65
1, 213113, Note_on_c, 0, 56, 72
1, 213127, Note_off_c, 0, 76, 67
1, 213132, Note_on_c, 0, 80, 79
1, 213133, Note_on_c, 0, 78, 67
1, 213161, Note_off_c, 0, 78, 65
1, 213192, Note_on_c, 0, 83, 87
1, 213197, Note_on_c, 0, 81, 56
1, 213197, Note_off_c, 0, 56, 56
1, 213199, Note_off_c, 0, 80, 65
1, 213211, Note_off_c, 0, 83, 75
1, 213221, Note_off_c, 0, 81, 57
1, 213265, Note_on_c, 0, 68, 74
1, 213267, Note_on_c, 0, 59, 56
1, 213277, Note_on_c, 0, 64, 23
1, 213281, Note_on_c, 0, 85, 78
1, 213295, Note_off_c, 0, 59, 66
1, 213301, Note_on_c, 0, 87, 76
1, 213304, Note_off_c, 0, 64, 54
1, 213304, Note_off_c, 0, 85, 69
1, 213313, Note_off_c, 0, 68, 61
1, 213330, Note_on_c, 0, 88, 83
1, 213373, Note_off_c, 0, 87, 56
1, 213381, Note_on_c, 0, 92, 74
1, 213384, Note_off_c, 0, 88, 67
1, 213386, Note_on_c, 0, 90, 68
1, 213408, Note_off_c, 0, 92, 68
1, 213409, Note_off_c, 0, 90, 67
1, 213432, Note_on_c, 0, 64, 59
1, 213444, Note_on_c, 0, 71, 60
1, 213449, Note_on_c, 0, 68, 56
1, 213458, Note_on_c, 0, 93, 84
1, 213482, Note_off_c, 0, 68, 64
1, 213501, Note_on_c, 0, 95, 83
1, 213505, Note_off_c, 0, 93, 65
1, 213533, Note_on_c, 0, 97, 74
1, 213554, Note_off_c, 0, 71, 0
1, 213560, Note_on_c, 0, 98, 77
1, 213565, Note_on_c, 0, 71, 58
1, 213569, Note_on_c, 0, 68, 79
1, 213571, Note_on_c, 0, 76, 92
1, 213571, Note_on_c, 0, 100, 103
1, 213573, Note_on_c, 0, 99, 98
1, 213583, Note_off_c, 0, 95, 66
1, 213584, Note_off_c, 0, 97, 66
1, 213590, Note_off_c, 0, 98, 68
1, 213610, Note_off_c, 0, 76, 67
1, 213612, Note_off_c, 0, 100, 68
1, 213616, Note_off_c, 0, 71, 65
1, 213617, Note_off_c, 0, 99, 58
1, 213639, Note_off_c, 0, 64, 64
1, 213640, Note_off_c, 0, 68, 64
1, 213947, Control_c, 0, 64, 116
1, 213962, Control_c, 0, 64, 95
1, 213976, Control_c, 0, 64, 80
1, 213978, Note_on_c, 0, 60, 66
1, 213979, Note_on_c, 0, 64, 64
1, 213981, Note_on_c, 0, 65, 62
1, 213991, Control_c, 0, 64, 66
1, 213999, Note_off_c, 0, 60, 61
1, 214002, Note_off_c, 0, 65, 64
1, 214006, Control_c, 0, 64, 0
1, 214009, Note_off_c, 0, 64, 64
1, 214059, Note_on_c, 0, 64, 75
1, 214061, Note_on_c, 0, 56, 71
1, 214064, Note_on_c, 0, 59, 68
1, 214079, Note_on_c, 0, 60, 32
1, 214082, Note_off_c, 0, 56, 65
1, 214086, Note_off_c, 0, 64, 67
1, 214092, Note_off_c, 0, 59, 68
1, 214112, Note_off_c, 0, 60, 46
1, 214133, Note_on_c, 0, 56, 94
1, 214138, Note_on_c, 0, 59, 78
1, 214138, Note_on_c, 0, 64, 84
1, 214139, Note_on_c, 0, 44, 85
1, 214148, Note_on_c, 0, 32, 69
1, 214166, Note_off_c, 0, 56, 60
1, 214166, Note_off_c, 0, 59, 68
1, 214167, Note_off_c, 0, 44, 65
1, 214181, Note_off_c, 0, 64, 63
1, 214190, Note_off_c, 0, 32, 63
1, 214330, Note_on_c, 0, 66, 83
1, 214336, Note_on_c, 0, 61, 68
1, 214339, Note_on_c, 0, 57, 67
1, 214371, Note_off_c, 0, 61, 67
1, 214373, Note_off_c, 0, 57, 63
1, 214373, Note_off_c, 0, 66, 54
1, 214549, Note_on_c, 0, 59, 65
1, 214553, Note_on_c, 0, 64, 70
1, 214555, Note_on_c, 0, 44, 61
1, 214558, Note_on_c, 0, 56, 64
1, 214567, Note_on_c, 0, 32, 44
1, 214579, Note_off_c, 0, 59, 67
1, 214585, Note_off_c, 0, 56, 69
1, 214588, Note_off_c, 0, 44, 64
1, 214599, Note_off_c, 0, 64, 61
1, 214610, Note_off_c, 0, 32, 57
1, 214762, Note_on_c, 0, 66, 78
1, 214767, Note_on_c, 0, 57, 67
1, 214771, Note_on_c, 0, 61, 62
1, 214795, Note_off_c, 0, 66, 60
1, 214796, Note_off_c, 0, 57, 64
1, 214802, Note_off_c, 0, 61, 66
1, 214977, Control_c, 0, 64, 22
1, 214991, Control_c, 0, 64, 57
1, 215006, Control_c, 0, 64, 66
1, 215021, Control_c, 0, 64, 73
1, 215026, Note_on_c, 0, 64, 62
1, 215031, Note_on_c, 0, 59, 45
1, 215033, Note_on_c, 0, 56, 58
1, 215036, Control_c, 0, 64, 85
1, 215051, Control_c, 0, 64, 97
1, 215057, Note_off_c, 0, 59, 56
1, 215066, Control_c, 0, 64, 105
1, 215078, Note_off_c, 0, 64, 61
1, 215081, Control_c, 0, 64, 115
1, 215102, Control_c, 0, 64, 127
1, 215108, Note_off_c, 0, 56, 56
1, 215351, Note_on_c, 0, 62, 66
1, 215362, Note_on_c, 0, 57, 45
1, 215364, Note_on_c, 0, 54, 52
1, 215370, Control_c, 0, 64, 114
1, 215385, Control_c, 0, 64, 100
1, 215392, Note_off_c, 0, 54, 62
1, 215394, Note_off_c, 0, 57, 58
1, 215400, Control_c, 0, 64, 88
1, 215415, Control_c, 0, 64, 78
1, 215415, Note_off_c, 0, 62, 58
1, 215430, Control_c, 0, 64, 69
1, 215445, Control_c, 0, 64, 52
1, 215459, Control_c, 0, 64, 0
1, 215485, Note_on_c, 0, 57, 53
1, 215490, Note_on_c, 0, 61, 65
1, 215494, Note_on_c, 0, 54, 42
1, 215540, Note_off_c, 0, 54, 59
1, 215555, Note_off_c, 0, 57, 53
1, 215588, Note_off_c, 0, 61, 54
1, 215637, Control_c, 0, 64, 40
1, 215652, Control_c, 0, 64, 58
1, 215667, Control_c, 0, 64, 64
1, 215681, Control_c, 0, 64, 66
1, 215696, Control_c, 0, 64, 70
1, 215711, Control_c, 0, 64, 75
1, 215713, Note_on_c, 0, 62, 60
1, 215719, Note_on_c, 0, 42, 16
1, 215721, Note_on_c, 0, 57, 47
1, 215722, Note_on_c, 0, 30, 28
1, 215725, Control_c, 0, 64, 82
1, 215735, Note_on_c, 0, 54, 44
1, 215740, Control_c, 0, 64, 87
1, 215755, Control_c, 0, 64, 91
1, 215770, Control_c, 0, 64, 96
1, 215785, Control_c, 0, 64, 102
1, 215794, Note_off_c, 0, 54, 56
1, 215799, Control_c, 0, 64, 111
1, 215814, Control_c, 0, 64, 126
1, 215829, Control_c, 0, 64, 127
1, 215859, Note_off_c, 0, 30, 36
1, 215871, Note_off_c, 0, 42, 36
1, 215895, Note_off_c, 0, 57, 31
1, 215938, Note_off_c, 0, 62, 32
1, 216490, Note_on_c, 0, 54, 41
1, 216492, Note_on_c, 0, 57, 36
1, 216502, Note_on_c, 0, 62, 36
1, 216563, Control_c, 0, 64, 103
1, 216578, Control_c, 0, 64, 86
1, 216601, Control_c, 0, 64, 67
1, 216607, Note_on_c, 0, 74, 44
1, 216616, Control_c, 0, 64, 0
1, 216630, Control_c, 0, 64, 22
1, 216645, Control_c, 0, 64, 59
1, 216660, Note_off_c, 0, 57, 35
1, 216660, Control_c, 0, 64, 67
1, 216672, Note_off_c, 0, 74, 63
1, 216674, Control_c, 0, 64, 76
1, 216679, Note_on_c, 0, 76, 55
1, 216689, Control_c, 0, 64, 89
1, 216704, Control_c, 0, 64, 101
1, 216719, Control_c, 0, 64, 106
1, 216725, Note_off_c, 0, 62, 34
1, 216731, Note_on_c, 0, 78, 63
1, 216734, Control_c, 0, 64, 109
1, 216743, Note_off_c, 0, 76, 58
1, 216748, Control_c, 0, 64, 112
1, 216763, Control_c, 0, 64, 116
1, 216778, Control_c, 0, 64, 126
1, 216792, Note_on_c, 0, 80, 73
1, 216793, Control_c, 0, 64, 127
1, 216795, Note_off_c, 0, 78, 63
1, 216814, Note_off_c, 0, 80, 69
1, 216831, Note_off_c, 0, 54, 37
1, 216856, Note_on_c, 0, 81, 84
1, 216867, Note_on_c, 0, 62, 50
1, 216872, Note_on_c, 0, 66, 60
1, 216875, Note_on_c, 0, 57, 49
1, 216900, Note_off_c, 0, 62, 63
1, 216904, Note_off_c, 0, 81, 65
1, 216906, Note_off_c, 0, 57, 62
1, 216911, Note_on_c, 0, 83, 75
1, 216943, Note_off_c, 0, 66, 62
1, 216966, Note_off_c, 0, 83, 67
1, 216971, Note_on_c, 0, 85, 79
1, 216998, Note_off_c, 0, 85, 67
1, 217045, Note_on_c, 0, 86, 74
1, 217090, Note_off_c, 0, 86, 63
1, 217098, Note_on_c, 0, 88, 78
1, 217112, Note_on_c, 0, 62, 49
1, 217114, Note_on_c, 0, 66, 54
1, 217118, Note_on_c, 0, 69, 53
1, 217136, Note_on_c, 0, 90, 72
1, 217148, Note_off_c, 0, 88, 64
1, 217175, Note_on_c, 0, 92, 76
1, 217188, Note_off_c, 0, 90, 65
1, 217192, Note_off_c, 0, 69, 47
1, 217195, Note_off_c, 0, 66, 51
1, 217198, Note_off_c, 0, 92, 70
1, 217242, Note_on_c, 0, 93, 77
1, 217289, Note_off_c, 0, 93, 64
1, 217294, Note_on_c, 0, 95, 78
1, 217349, Note_on_c, 0, 97, 73
1, 217369, Note_off_c, 0, 95, 60
1, 217389, Note_off_c, 0, 62, 54
1, 217401, Note_on_c, 0, 98, 79
1, 217411, Note_off_c, 0, 97, 66
1, 217425, Note_on_c, 0, 66, 56
1, 217428, Note_on_c, 0, 69, 43
1, 217435, Note_on_c, 0, 74, 45
1, 217456, Note_off_c, 0, 98, 64
1, 217492, Note_off_c, 0, 74, 54
1, 217567, Note_off_c, 0, 66, 37
1, 217594, Note_off_c, 0, 69, 33
1, 218410, Control_c, 0, 67, 8
1, 218425, Control_c, 0, 67, 10
1, 218440, Control_c, 0, 67, 12
1, 218455, Control_c, 0, 67, 15
1, 218470, Control_c, 0, 67, 19
1, 218485, Control_c, 0, 67, 22
1, 218500, Control_c, 0, 67, 26
1, 218515, Control_c, 0, 67, 31
1, 218530, Control_c, 0, 67, 38
1, 218544, Control_c, 0, 67, 46
1, 218559, Control_c, 0, 64, 107
1, 218559, Control_c, 0, 67, 56
1, 218573, Control_c, 0, 64, 93
1, 218573, Control_c, 0, 67, 65
1, 218586, Note_on_c, 0, 57, 38
1, 218588, Control_c, 0, 64, 79
1, 218588, Control_c, 0, 67, 74
1, 218603, Note_on_c, 0, 66, 34
1, 218603, Control_c, 0, 64, 63
1, 218603, Control_c, 0, 67, 84
1, 218604, Note_on_c, 0, 62, 24
1, 218617, Control_c, 0, 64, 0
1, 218617, Control_c, 0, 67, 94
1, 218632, Control_c, 0, 67, 104
1, 218647, Control_c, 0, 67, 112
1, 218652, Note_on_c, 0, 74, 44
1, 218662, Control_c, 0, 67, 118
1, 218677, Control_c, 0, 67, 123
1, 218691, Control_c, 0, 64, 53
1, 218691, Control_c, 0, 67, 127
1, 218706, Control_c, 0, 64, 64
1, 218721, Control_c, 0, 64, 71
1, 218736, Control_c, 0, 64, 81
1, 218740, Note_off_c, 0, 74, 55
1, 218746, Note_on_c, 0, 76, 52
1, 218750, Control_c, 0, 64, 95
1, 218765, Control_c, 0, 64, 104
1, 218771, Note_off_c, 0, 62, 38
1, 218780, Control_c, 0, 64, 109
1, 218789, Note_off_c, 0, 66, 43
1, 218795, Control_c, 0, 64, 116
1, 218810, Control_c, 0, 64, 127
1, 218817, Note_on_c, 0, 78, 61
1, 218823, Note_off_c, 0, 76, 57
1, 218890, Note_on_c, 0, 80, 69
1, 218890, Note_off_c, 0, 78, 62
1, 218912, Note_off_c, 0, 80, 66
1, 218921, Note_off_c, 0, 57, 37
1, 218931, Note_on_c, 0, 62, 32
1, 218931, Note_on_c, 0, 69, 57
1, 218941, Note_on_c, 0, 66, 46
1, 218953, Note_on_c, 0, 81, 78
1, 218964, Note_off_c, 0, 62, 46
1, 218968, Note_off_c, 0, 66, 58
1, 218974, Note_off_c, 0, 69, 62
1, 218997, Note_off_c, 0, 81, 62
1, 219012, Note_on_c, 0, 83, 71
1, 219056, Note_off_c, 0, 83, 65
1, 219074, Note_on_c, 0, 85, 72
1, 219096, Note_off_c, 0, 85, 68
1, 219150, Note_on_c, 0, 86, 65
1, 219180, Note_off_c, 0, 86, 65
1, 219180, Note_on_c, 0, 69, 44
1, 219181, Note_on_c, 0, 66, 51
1, 219201, Note_on_c, 0, 88, 67
1, 219206, Note_on_c, 0, 74, 43
1, 219209, Note_off_c, 0, 66, 57
1, 219211, Note_off_c, 0, 69, 50
1, 219240, Note_on_c, 0, 90, 72
1, 219251, Note_off_c, 0, 74, 62
1, 219253, Note_off_c, 0, 88, 65
1, 219282, Note_on_c, 0, 92, 72
1, 219290, Note_off_c, 0, 90, 66
1, 219305, Note_off_c, 0, 92, 68
1, 219373, Note_on_c, 0, 93, 44
1, 219399, Note_off_c, 0, 93, 55
1, 219405, Note_on_c, 0, 95, 77
1, 219461, Note_on_c, 0, 97, 68
1, 219478, Note_off_c, 0, 95, 55
1, 219511, Note_on_c, 0, 78, 50
1, 219513, Note_on_c, 0, 98, 77
1, 219529, Note_on_c, 0, 69, 34
1, 219534, Note_on_c, 0, 74, 25
1, 219534, Note_off_c, 0, 97, 63
1, 219571, Note_off_c, 0, 98, 64
1, 219581, Note_off_c, 0, 78, 49
1, 219602, Note_off_c, 0, 69, 40
1, 219667, Note_off_c, 0, 74, 27
1, 220567, Control_c, 0, 64, 109
1, 220582, Control_c, 0, 64, 96
1, 220596, Control_c, 0, 64, 82
1, 220611, Control_c, 0, 64, 68
1, 220626, Control_c, 0, 64, 0
1, 220630, Note_on_c, 0, 66, 37
1, 220631, Note_on_c, 0, 69, 22
1, 220649, Note_on_c, 0, 62, 25
1, 220673, Note_on_c, 0, 74, 39
1, 220715, Control_c, 0, 64, 41
1, 220730, Control_c, 0, 64, 61
1, 220745, Control_c, 0, 64, 66
1, 220759, Control_c, 0, 64, 72
1, 220774, Control_c, 0, 64, 81
1, 220789, Control_c, 0, 64, 91
1, 220804, Control_c, 0, 64, 95
1, 220820, Control_c, 0, 64, 96
1, 220835, Control_c, 0, 64, 98
1, 220837, Note_on_c, 0, 76, 50
1, 220837, Note_off_c, 0, 74, 50
1, 220843, Note_off_c, 0, 66, 45
1, 220850, Control_c, 0, 64, 99
1, 220864, Control_c, 0, 64, 101
1, 220879, Control_c, 0, 64, 103
1, 220894, Control_c, 0, 64, 104
1, 220897, Note_off_c, 0, 69, 33
1, 220904, Note_off_c, 0, 76, 39
1, 220909, Control_c, 0, 64, 106
1, 220913, Note_on_c, 0, 78, 62
1, 220924, Control_c, 0, 64, 107
1, 220938, Control_c, 0, 64, 108
1, 220953, Control_c, 0, 64, 109
1, 220968, Control_c, 0, 64, 111
1, 220983, Control_c, 0, 64, 114
1, 220997, Note_off_c, 0, 78, 59
1, 220998, Control_c, 0, 64, 116
1, 221001, Note_on_c, 0, 80, 67
1, 221013, Control_c, 0, 64, 119
1, 221025, Note_off_c, 0, 80, 68
1, 221028, Control_c, 0, 64, 127
1, 221032, Note_on_c, 0, 69, 27
1, 221043, Note_on_c, 0, 66, 49
1, 221052, Note_off_c, 0, 62, 36
1, 221061, Note_on_c, 0, 74, 23
1, 221078, Note_on_c, 0, 81, 72
1, 221096, Note_off_c, 0, 69, 60
1, 221103, Note_off_c, 0, 66, 60
1, 221138, Note_off_c, 0, 81, 50
1, 221162, Note_on_c, 0, 83, 65
1, 221199, Note_off_c, 0, 74, 38
1, 221226, Note_off_c, 0, 83, 58
1, 221248, Note_on_c, 0, 85, 66
1, 221288, Note_off_c, 0, 85, 62
1, 221345, Note_on_c, 0, 86, 63
1, 221432, Note_off_c, 0, 86, 58
1, 221436, Note_on_c, 0, 88, 62
1, 221524, Note_on_c, 0, 78, 36
1, 221526, Note_on_c, 0, 90, 65
1, 221533, Note_off_c, 0, 88, 54
1, 221537, Note_on_c, 0, 69, 34
1, 221577, Poly_aftertouch_c, 0, 74, 127
1, 221634, Note_on_c, 0, 92, 60
1, 221634, Note_off_c, 0, 90, 59
1, 221643, Poly_aftertouch_c, 0, 74, 0
1, 221666, Note_off_c, 0, 92, 66
1, 221673, Note_off_c, 0, 69, 36
1, 221737, Note_on_c, 0, 93, 52
1, 221748, Note_off_c, 0, 78, 41
1, 221844, Note_off_c, 0, 93, 64
1, 221852, Note_on_c, 0, 95, 64
1, 221955, Note_off_c, 0, 95, 58
1, 221959, Note_on_c, 0, 97, 57
1, 222110, Note_off_c, 0, 97, 60
1, 222112, Note_on_c, 0, 98, 75
1, 222113, Note_on_c, 0, 90, 75
1, 222119, Note_on_c, 0, 81, 70
1, 222136, Note_off_c, 0, 98, 69
1, 222137, Note_off_c, 0, 90, 68
1, 222140, Control_c, 0, 64, 116
1, 222142, Note_on_c, 0, 74, 50
1, 222144, Note_off_c, 0, 81, 66
1, 222155, Control_c, 0, 64, 100
1, 222165, Note_off_c, 0, 74, 64
1, 222169, Control_c, 0, 64, 89
1, 222184, Control_c, 0, 64, 78
1, 222199, Control_c, 0, 64, 65
1, 222213, Control_c, 0, 64, 31
1, 222228, Control_c, 0, 64, 0
1, 222326, Note_on_c, 0, 79, 69
1, 222356, Note_off_c, 0, 79, 64
1, 222380, Note_on_c, 0, 78, 67
1, 222411, Note_off_c, 0, 78, 66
1, 222448, Note_on_c, 0, 76, 61
1, 222508, Note_off_c, 0, 76, 48
1, 222514, Note_on_c, 0, 69, 46
1, 222518, Note_on_c, 0, 62, 37
1, 222520, Note_on_c, 0, 78, 68
1, 222546, Note_off_c, 0, 69, 61
1, 222554, Note_off_c, 0, 62, 55
1, 222573, Note_off_c, 0, 78, 59
1, 222620, Note_on_c, 0, 79, 69
1, 222681, Control_c, 0, 64, 20
1, 222683, Note_off_c, 0, 79, 60
1, 222696, Control_c, 0, 64, 64
1, 222706, Note_on_c, 0, 69, 62
1, 222707, Note_on_c, 0, 62, 51
1, 222710, Control_c, 0, 64, 75
1, 222712, Note_on_c, 0, 81, 82
1, 222725, Control_c, 0, 64, 100
1, 222740, Note_off_c, 0, 62, 64
1, 222740, Control_c, 0, 64, 127
1, 222743, Note_off_c, 0, 69, 62
1, 222778, Note_off_c, 0, 81, 64
1, 222790, Note_on_c, 0, 78, 69
1, 222869, Note_on_c, 0, 79, 67
1, 222870, Note_off_c, 0, 78, 65
1, 222906, Note_off_c, 0, 79, 62
1, 222939, Note_on_c, 0, 76, 71
1, 222977, Note_off_c, 0, 76, 62
1, 223016, Note_on_c, 0, 74, 52
1, 223037, Note_off_c, 0, 74, 60
1, 223178, Note_on_c, 0, 93, 69
1, 223199, Note_on_c, 0, 98, 82
1, 223205, Note_off_c, 0, 93, 67
1, 223207, Note_on_c, 0, 81, 83
1, 223215, Note_on_c, 0, 74, 67
1, 223216, Note_on_c, 0, 90, 89
1, 223218, Note_on_c, 0, 97, 39
1, 223226, Note_off_c, 0, 98, 68
1, 223229, Control_c, 0, 64, 100
1, 223231, Note_off_c, 0, 81, 69
1, 223235, Note_off_c, 0, 90, 70
1, 223244, Control_c, 0, 64, 83
1, 223248, Note_off_c, 0, 97, 55
1, 223258, Note_off_c, 0, 74, 64
1, 223258, Control_c, 0, 64, 68
1, 223273, Control_c, 0, 64, 18
1, 223279, Poly_aftertouch_c, 0, 95, 0
1, 223288, Control_c, 0, 64, 0
1, 223412, Note_on_c, 0, 78, 71
1, 223451, Note_off_c, 0, 78, 58
1, 223485, Note_on_c, 0, 76, 63
1, 223488, Control_c, 0, 67, 122
1, 223503, Control_c, 0, 67, 112
1, 223518, Control_c, 0, 67, 102
1, 223532, Note_off_c, 0, 76, 58
1, 223533, Control_c, 0, 67, 95
1, 223547, Control_c, 0, 67, 87
1, 223559, Note_on_c, 0, 78, 65
1, 223562, Control_c, 0, 67, 82
1, 223577, Note_on_c, 0, 62, 39
1, 223577, Control_c, 0, 67, 77
1, 223581, Note_on_c, 0, 69, 45
1, 223591, Control_c, 0, 67, 74
1, 223593, Note_off_c, 0, 78, 62
1, 223606, Control_c, 0, 67, 70
1, 223612, Note_off_c, 0, 62, 52
1, 223614, Note_off_c, 0, 69, 59
1, 223621, Control_c, 0, 67, 68
1, 223636, Control_c, 0, 67, 67
1, 223637, Note_on_c, 0, 79, 61
1, 223651, Control_c, 0, 67, 66
1, 223666, Control_c, 0, 67, 65
1, 223681, Control_c, 0, 67, 64
1, 223696, Control_c, 0, 67, 63
1, 223710, Note_off_c, 0, 79, 62
1, 223711, Control_c, 0, 67, 62
1, 223721, Note_on_c, 0, 81, 77
1, 223722, Note_on_c, 0, 62, 41
1, 223725, Note_on_c, 0, 69, 42
1, 223725, Control_c, 0, 67, 61
1, 223732, Note_on_c, 0, 73, 58
1, 223740, Control_c, 0, 64, 30
1, 223740, Control_c, 0, 67, 61
1, 223755, Control_c, 0, 64, 51
1, 223755, Control_c, 0, 67, 60
1, 223770, Control_c, 0, 64, 61
1, 223770, Control_c, 0, 67, 59
1, 223784, Control_c, 0, 64, 66
1, 223784, Control_c, 0, 67, 59
1, 223790, Note_off_c, 0, 73, 50
1, 223799, Control_c, 0, 64, 71
1, 223799, Control_c, 0, 67, 58
1, 223814, Control_c, 0, 64, 79
1, 223814, Control_c, 0, 67, 57
1, 223823, Note_off_c, 0, 81, 63
1, 223824, Note_on_c, 0, 80, 70
1, 223829, Control_c, 0, 64, 86
1, 223829, Control_c, 0, 67, 57
1, 223844, Control_c, 0, 64, 92
1, 223844, Control_c, 0, 67, 56
1, 223858, Control_c, 0, 64, 97
1, 223858, Control_c, 0, 67, 55
1, 223873, Control_c, 0, 64, 101
1, 223873, Control_c, 0, 67, 54
1, 223875, Note_off_c, 0, 62, 50
1, 223888, Control_c, 0, 64, 108
1, 223888, Control_c, 0, 67, 53
1, 223903, Control_c, 0, 64, 114
1, 223903, Control_c, 0, 67, 52
1, 223918, Control_c, 0, 64, 120
1, 223918, Control_c, 0, 67, 51
1, 223931, Note_on_c, 0, 81, 75
1, 223932, Control_c, 0, 64, 127
1, 223942, Note_off_c, 0, 69, 36
1, 223975, Note_off_c, 0, 80, 54
1, 224009, Note_off_c, 0, 81, 63
1, 224013, Note_on_c, 0, 83, 73
1, 224076, Note_off_c, 0, 83, 57
1, 224104, Note_on_c, 0, 81, 70
1, 224143, Note_off_c, 0, 81, 63
1, 224262, Note_on_c, 0, 71, 58
1, 224267, Control_c, 0, 64, 114
1, 224282, Control_c, 0, 64, 102
1, 224282, Control_c, 0, 67, 52
1, 224289, Note_on_c, 0, 69, 61
1, 224296, Control_c, 0, 64, 92
1, 224298, Note_off_c, 0, 71, 63
1, 224311, Control_c, 0, 64, 83
1, 224326, Control_c, 0, 64, 72
1, 224341, Control_c, 0, 64, 59
1, 224356, Control_c, 0, 64, 0
1, 224475, Note_on_c, 0, 81, 66
1, 224489, Control_c, 0, 67, 52
1, 224514, Note_off_c, 0, 81, 58
1, 224537, Note_on_c, 0, 83, 73
1, 224574, Note_off_c, 0, 83, 64
1, 224578, Control_c, 0, 67, 53
1, 224607, Note_off_c, 0, 69, 56
1, 224617, Note_on_c, 0, 85, 75
1, 224624, Note_on_c, 0, 62, 41
1, 224641, Note_off_c, 0, 85, 68
1, 224698, Note_on_c, 0, 86, 67
1, 224752, Note_off_c, 0, 86, 53
1, 224771, Control_c, 0, 67, 52
1, 224772, Note_on_c, 0, 88, 71
1, 224773, Note_on_c, 0, 85, 64
1, 224779, Note_off_c, 0, 62, 43
1, 224786, Note_on_c, 0, 71, 58
1, 224786, Control_c, 0, 67, 50
1, 224790, Note_on_c, 0, 69, 53
1, 224797, Note_off_c, 0, 88, 68
1, 224799, Note_off_c, 0, 85, 67
1, 224801, Control_c, 0, 67, 49
1, 224816, Control_c, 0, 67, 44
1, 224838, Control_c, 0, 67, 38
1, 224853, Control_c, 0, 67, 31
1, 224854, Note_off_c, 0, 71, 53
1, 224868, Control_c, 0, 67, 26
1, 224883, Control_c, 0, 67, 22
1, 224898, Control_c, 0, 67, 19
1, 224912, Control_c, 0, 67, 18
1, 224927, Control_c, 0, 67, 18
1, 224971, Note_on_c, 0, 90, 77
1, 224983, Note_on_c, 0, 86, 57
1, 225012, Note_off_c, 0, 86, 66
1, 225013, Note_off_c, 0, 90, 56
1, 225135, Control_c, 0, 67, 18
1, 225146, Note_on_c, 0, 91, 74
1, 225147, Note_on_c, 0, 88, 74
1, 225155, Note_off_c, 0, 69, 58
1, 225167, Note_on_c, 0, 62, 52
1, 225173, Note_off_c, 0, 88, 69
1, 225179, Control_c, 0, 67, 19
1, 225193, Note_off_c, 0, 91, 66
1, 225209, Control_c, 0, 67, 19
1, 225224, Control_c, 0, 67, 20
1, 225253, Control_c, 0, 67, 21
1, 225268, Control_c, 0, 67, 21
1, 225298, Control_c, 0, 67, 22
1, 225308, Note_on_c, 0, 71, 71
1, 225308, Note_on_c, 0, 95, 73
1, 225310, Note_on_c, 0, 91, 57
1, 225311, Control_c, 0, 67, 22
1, 225312, Note_on_c, 0, 69, 59
1, 225326, Control_c, 0, 67, 23
1, 225326, Note_on_c, 0, 97, 80
1, 225335, Note_off_c, 0, 91, 60
1, 225336, Note_off_c, 0, 95, 66
1, 225370, Control_c, 0, 67, 23
1, 225392, Note_on_c, 0, 95, 75
1, 225404, Note_off_c, 0, 97, 64
1, 225410, Note_off_c, 0, 62, 38
1, 225418, Note_off_c, 0, 95, 67
1, 225442, Note_off_c, 0, 71, 50
1, 225486, Note_on_c, 0, 93, 81
1, 225505, Note_on_c, 0, 90, 52
1, 225508, Note_off_c, 0, 93, 69
1, 225529, Note_off_c, 0, 90, 58
1, 225663, Note_off_c, 0, 69, 56
1, 225679, Note_on_c, 0, 62, 50
1, 225697, Note_on_c, 0, 91, 68
1, 225698, Note_on_c, 0, 88, 69
1, 225724, Note_off_c, 0, 88, 67
1, 225724, Note_off_c, 0, 91, 66
1, 225749, Control_c, 0, 67, 23
1, 225808, Control_c, 0, 67, 22
1, 225823, Control_c, 0, 67, 22
1, 225830, Note_off_c, 0, 62, 53
1, 225853, Control_c, 0, 67, 21
1, 225867, Control_c, 0, 67, 20
1, 225869, Note_on_c, 0, 90, 75
1, 225870, Note_on_c, 0, 69, 54
1, 225882, Control_c, 0, 67, 20
1, 225885, Note_on_c, 0, 71, 50
1, 225887, Note_on_c, 0, 86, 50
1, 225897, Control_c, 0, 67, 19
1, 225910, Note_off_c, 0, 86, 59
1, 225912, Control_c, 0, 67, 18
1, 225919, Note_off_c, 0, 90, 0
1, 225927, Control_c, 0, 67, 18
1, 225941, Control_c, 0, 67, 17
1, 225949, Note_on_c, 0, 91, 71
1, 225956, Control_c, 0, 67, 15
1, 225967, Poly_aftertouch_c, 0, 90, 0
1, 225971, Control_c, 0, 67, 9
1, 225981, Note_off_c, 0, 71, 38
1, 225985, Control_c, 0, 67, 0
1, 226005, Note_off_c, 0, 91, 61
1, 226037, Note_on_c, 0, 88, 63
1, 226047, Note_on_c, 0, 81, 56
1, 226070, Note_off_c, 0, 81, 60
1, 226089, Control_c, 0, 64, 33
1, 226104, Control_c, 0, 64, 65
1, 226113, Note_on_c, 0, 90, 57
1, 226118, Note_off_c, 0, 88, 62
1, 226119, Control_c, 0, 64, 77
1, 226134, Control_c, 0, 64, 96
1, 226149, Control_c, 0, 64, 127
1, 226150, Note_off_c, 0, 90, 62
1, 226188, Note_on_c, 0, 86, 68
1, 226189, Note_off_c, 0, 69, 62
1, 226194, Note_on_c, 0, 78, 57
1, 226208, Note_on_c, 0, 62, 55
1, 226214, Note_off_c, 0, 78, 61
1, 226218, Note_off_c, 0, 86, 66
1, 226231, Note_off_c, 0, 62, 60
1, 226297, Control_c, 0, 67, 10
1, 226311, Control_c, 0, 67, 14
1, 226334, Control_c, 0, 67, 18
1, 226349, Control_c, 0, 67, 24
1, 226362, Note_on_c, 0, 93, 64
1, 226364, Control_c, 0, 64, 97
1, 226364, Control_c, 0, 67, 30
1, 226368, Note_on_c, 0, 95, 63
1, 226373, Note_on_c, 0, 97, 71
1, 226375, Note_on_c, 0, 98, 85
1, 226378, Control_c, 0, 64, 81
1, 226378, Control_c, 0, 67, 37
1, 226382, Note_off_c, 0, 93, 63
1, 226387, Note_on_c, 0, 81, 89
1, 226389, Note_on_c, 0, 90, 91
1, 226390, Note_off_c, 0, 95, 60
1, 226390, Note_on_c, 0, 74, 71
1, 226393, Control_c, 0, 64, 63
1, 226393, Control_c, 0, 67, 41
1, 226400, Note_off_c, 0, 98, 67
1, 226403, Note_off_c, 0, 97, 68
1, 226408, Control_c, 0, 64, 0
1, 226408, Control_c, 0, 67, 46
1, 226410, Note_off_c, 0, 90, 70
1, 226411, Note_off_c, 0, 81, 71
1, 226423, Control_c, 0, 67, 48
1, 226431, Note_off_c, 0, 74, 64
1, 226468, Control_c, 0, 67, 46
1, 226483, Control_c, 0, 67, 45
1, 226498, Control_c, 0, 67, 44
1, 226513, Control_c, 0, 67, 43
1, 226527, Control_c, 0, 67, 42
1, 226542, Control_c, 0, 67, 40
1, 226557, Control_c, 0, 67, 38
1, 226572, Control_c, 0, 67, 35
1, 226587, Control_c, 0, 67, 30
1, 226591, Note_on_c, 0, 79, 41
1, 226601, Note_on_c, 0, 78, 77
1, 226602, Control_c, 0, 67, 26
1, 226616, Control_c, 0, 67, 22
1, 226617, Note_off_c, 0, 79, 53
1, 226631, Control_c, 0, 67, 17
1, 226645, Note_off_c, 0, 78, 62
1, 226646, Control_c, 0, 67, 12
1, 226660, Note_on_c, 0, 76, 64
1, 226661, Control_c, 0, 67, 0
1, 226735, Note_off_c, 0, 76, 55
1, 226737, Note_on_c, 0, 78, 70
1, 226746, Note_on_c, 0, 69, 58
1, 226748, Note_on_c, 0, 62, 46
1, 226797, Note_off_c, 0, 62, 57
1, 226798, Note_off_c, 0, 69, 60
1, 226811, Note_off_c, 0, 78, 48
1, 226823, Note_on_c, 0, 79, 74
1, 226883, Note_off_c, 0, 79, 62
1, 226901, Note_on_c, 0, 81, 90
1, 226914, Note_on_c, 0, 69, 73
1, 226919, Note_on_c, 0, 62, 65
1, 226927, Control_c, 0, 64, 65
1, 226942, Control_c, 0, 64, 81
1, 226951, Note_off_c, 0, 69, 60
1, 226951, Note_off_c, 0, 62, 63
1, 226957, Control_c, 0, 64, 116
1, 226971, Note_off_c, 0, 81, 64
1, 226972, Control_c, 0, 64, 127
1, 226981, Note_on_c, 0, 78, 73
1, 227035, Note_off_c, 0, 78, 56
1, 227065, Note_on_c, 0, 79, 68
1, 227102, Note_off_c, 0, 79, 64
1, 227138, Note_on_c, 0, 76, 68
1, 227175, Note_off_c, 0, 76, 64
1, 227205, Note_on_c, 0, 74, 64
1, 227230, Note_off_c, 0, 74, 66
1, 227369, Note_on_c, 0, 93, 76
1, 227383, Note_on_c, 0, 95, 49
1, 227386, Note_on_c, 0, 97, 72
1, 227393, Note_off_c, 0, 93, 69
1, 227398, Note_on_c, 0, 98, 80
1, 227398, Note_on_c, 0, 81, 87
1, 227404, Note_on_c, 0, 74, 70
1, 227407, Note_off_c, 0, 95, 58
1, 227409, Note_on_c, 0, 90, 89
1, 227413, Note_off_c, 0, 97, 69
1, 227420, Note_off_c, 0, 98, 71
1, 227421, Note_off_c, 0, 81, 70
1, 227424, Control_c, 0, 64, 104
1, 227429, Note_off_c, 0, 90, 67
1, 227439, Control_c, 0, 64, 88
1, 227452, Note_off_c, 0, 74, 66
1, 227454, Control_c, 0, 64, 75
1, 227469, Control_c, 0, 64, 63
1, 227484, Control_c, 0, 64, 0
1, 227610, Note_on_c, 0, 78, 21
1, 227627, Note_on_c, 0, 79, 25
1, 227638, Note_off_c, 0, 78, 44
1, 227663, Note_off_c, 0, 79, 43
1, 227664, Note_on_c, 0, 76, 60
1, 227715, Note_off_c, 0, 76, 58
1, 227718, Note_on_c, 0, 78, 75
1, 227735, Note_on_c, 0, 62, 49
1, 227739, Note_on_c, 0, 69, 49
1, 227770, Note_off_c, 0, 78, 63
1, 227772, Note_off_c, 0, 69, 61
1, 227777, Note_off_c, 0, 62, 60
1, 227799, Note_on_c, 0, 79, 68
1, 227883, Note_off_c, 0, 79, 63
1, 227887, Note_on_c, 0, 81, 80
1, 227890, Note_on_c, 0, 62, 53
1, 227896, Note_on_c, 0, 73, 61
1, 227899, Note_on_c, 0, 69, 44
1, 227921, Control_c, 0, 64, 26
1, 227936, Control_c, 0, 64, 56
1, 227950, Note_off_c, 0, 73, 53
1, 227951, Control_c, 0, 64, 65
1, 227965, Control_c, 0, 64, 70
1, 227980, Control_c, 0, 64, 80
1, 227987, Note_off_c, 0, 81, 64
1, 227991, Note_on_c, 0, 80, 71
1, 227995, Control_c, 0, 64, 89
1, 228011, Control_c, 0, 64, 95
1, 228025, Note_off_c, 0, 62, 55
1, 228026, Control_c, 0, 64, 101
1, 228041, Control_c, 0, 64, 109
1, 228055, Control_c, 0, 64, 126
1, 228070, Control_c, 0, 64, 127
1, 228093, Note_on_c, 0, 81, 76
1, 228113, Note_off_c, 0, 69, 35
1, 228143, Note_off_c, 0, 80, 53
1, 228176, Note_off_c, 0, 81, 62
1, 228180, Note_on_c, 0, 83, 72
1, 228256, Note_off_c, 0, 83, 62
1, 228277, Note_on_c, 0, 81, 69
1, 228307, Note_off_c, 0, 81, 67
1, 228499, Control_c, 0, 64, 110
1, 228509, Note_on_c, 0, 71, 53
1, 228514, Control_c, 0, 64, 100
1, 228529, Control_c, 0, 64, 91
1, 228544, Control_c, 0, 64, 82
1, 228552, Note_off_c, 0, 71, 62
1, 228559, Control_c, 0, 64, 72
1, 228561, Note_on_c, 0, 69, 52
1, 228581, Control_c, 0, 64, 56
1, 228596, Control_c, 0, 64, 0
1, 228718, Note_on_c, 0, 93, 61
1, 228766, Note_off_c, 0, 93, 57
1, 228806, Note_on_c, 0, 95, 62
1, 228874, Note_off_c, 0, 69, 57
1, 228879, Note_on_c, 0, 97, 73
1, 228883, Note_on_c, 0, 62, 51
1, 228886, Note_off_c, 0, 95, 51
1, 228962, Note_on_c, 0, 98, 73
1, 228988, Note_off_c, 0, 97, 62
1, 229020, Note_off_c, 0, 62, 51
1, 229031, Note_on_c, 0, 100, 84
1, 229037, Note_off_c, 0, 98, 62
1, 229038, Note_on_c, 0, 69, 41
1, 229040, Note_on_c, 0, 71, 58
1, 229043, Note_on_c, 0, 91, 68
1, 229079, Note_off_c, 0, 100, 63
1, 229088, Note_off_c, 0, 91, 64
1, 229119, Note_on_c, 0, 97, 79
1, 229184, Note_off_c, 0, 97, 62
1, 229193, Note_on_c, 0, 98, 73
1, 229194, Note_on_c, 0, 90, 76
1, 229225, Note_off_c, 0, 98, 61
1, 229245, Note_off_c, 0, 90, 61
1, 229265, Note_on_c, 0, 95, 74
1, 229320, Note_off_c, 0, 95, 64
1, 229333, Note_off_c, 0, 71, 56
1, 229348, Note_on_c, 0, 97, 73
1, 229355, Note_on_c, 0, 88, 73
1, 229357, Note_off_c, 0, 69, 60
1, 229365, Note_on_c, 0, 62, 55
1, 229380, Note_off_c, 0, 97, 67
1, 229392, Note_off_c, 0, 88, 61
1, 229440, Note_on_c, 0, 93, 76
1, 229499, Note_off_c, 0, 93, 61
1, 229506, Note_on_c, 0, 95, 81
1, 229512, Note_off_c, 0, 62, 49
1, 229517, Note_on_c, 0, 69, 58
1, 229518, Note_on_c, 0, 86, 61
1, 229520, Note_on_c, 0, 71, 67
1, 229539, Note_off_c, 0, 86, 66
1, 229556, Note_off_c, 0, 95, 60
1, 229580, Note_on_c, 0, 91, 79
1, 229638, Note_off_c, 0, 91, 66
1, 229649, Note_on_c, 0, 93, 77
1, 229663, Note_on_c, 0, 85, 76
1, 229700, Note_off_c, 0, 93, 61
1, 229714, Note_off_c, 0, 85, 64
1, 229747, Note_on_c, 0, 90, 72
1, 229800, Note_off_c, 0, 90, 63
1, 229801, Note_off_c, 0, 71, 59
1, 229821, Note_on_c, 0, 83, 74
1, 229821, Note_on_c, 0, 91, 69
1, 229825, Note_off_c, 0, 69, 59
1, 229830, Note_on_c, 0, 62, 55
1, 229869, Note_off_c, 0, 83, 61
1, 229869, Note_off_c, 0, 91, 63
1, 229885, Note_on_c, 0, 88, 71
1, 229944, Note_off_c, 0, 62, 52
1, 229961, Note_on_c, 0, 90, 73
1, 229967, Note_off_c, 0, 88, 57
1, 229984, Note_on_c, 0, 81, 58
1, 230002, Note_on_c, 0, 69, 41
1, 230002, Note_on_c, 0, 71, 44
1, 230014, Note_off_c, 0, 81, 64
1, 230014, Note_off_c, 0, 90, 63
1, 230036, Note_on_c, 0, 91, 80
1, 230051, Note_off_c, 0, 71, 45
1, 230111, Note_off_c, 0, 91, 65
1, 230127, Note_on_c, 0, 88, 60
1, 230137, Note_on_c, 0, 79, 64
1, 230167, Note_off_c, 0, 79, 65
1, 230212, Note_on_c, 0, 90, 74
1, 230212, Note_off_c, 0, 88, 63
1, 230304, Note_off_c, 0, 69, 41
1, 230315, Control_c, 0, 64, 38
1, 230316, Note_on_c, 0, 86, 62
1, 230317, Note_on_c, 0, 62, 35
1, 230323, Note_on_c, 0, 78, 49
1, 230323, Note_off_c, 0, 90, 64
1, 230330, Control_c, 0, 64, 60
1, 230344, Control_c, 0, 64, 67
1, 230356, Note_off_c, 0, 78, 56
1, 230359, Control_c, 0, 64, 76
1, 230374, Control_c, 0, 64, 93
1, 230376, Note_off_c, 0, 86, 63
1, 230389, Control_c, 0, 64, 111
1, 230405, Control_c, 0, 64, 127
1, 230588, Note_on_c, 0, 71, 55
1, 230609, Note_off_c, 0, 62, 40
1, 230630, Note_on_c, 0, 69, 45
1, 230631, Note_off_c, 0, 71, 62
1, 230642, Control_c, 0, 64, 112
1, 230656, Control_c, 0, 64, 100
1, 230671, Control_c, 0, 64, 88
1, 230686, Control_c, 0, 64, 80
1, 230701, Control_c, 0, 64, 71
1, 230716, Control_c, 0, 64, 60
1, 230719, Note_off_c, 0, 69, 57
1, 230731, Control_c, 0, 64, 0
1, 230749, Note_on_c, 0, 78, 66
1, 230762, Note_on_c, 0, 74, 39
1, 230782, Note_off_c, 0, 78, 64
1, 230793, Note_off_c, 0, 74, 50
1, 230826, Note_on_c, 0, 81, 74
1, 230866, Note_off_c, 0, 81, 54
1, 230894, Note_on_c, 0, 79, 69
1, 230905, Note_on_c, 0, 76, 55
1, 230909, Note_on_c, 0, 69, 48
1, 230911, Note_on_c, 0, 62, 49
1, 230934, Note_off_c, 0, 76, 65
1, 230948, Note_off_c, 0, 69, 60
1, 230954, Note_off_c, 0, 62, 60
1, 230958, Note_off_c, 0, 79, 55
1, 230972, Note_on_c, 0, 83, 72
1, 230998, Note_off_c, 0, 83, 69
1, 231047, Note_on_c, 0, 83, 85
1, 231051, Note_on_c, 0, 69, 46
1, 231054, Note_on_c, 0, 62, 52
1, 231061, Note_on_c, 0, 79, 76
1, 231085, Note_off_c, 0, 79, 67
1, 231121, Note_off_c, 0, 83, 59
1, 231127, Note_on_c, 0, 81, 84
1, 231136, Note_on_c, 0, 78, 76
1, 231164, Note_off_c, 0, 78, 64
1, 231175, Note_off_c, 0, 81, 62
1, 231181, Note_off_c, 0, 69, 35
1, 231214, Note_off_c, 0, 62, 34
1, 231228, Note_on_c, 0, 74, 64
1, 231237, Note_on_c, 0, 78, 62
1, 231264, Note_off_c, 0, 74, 65
1, 231268, Note_off_c, 0, 78, 67
1, 231300, Note_on_c, 0, 81, 77
1, 231334, Note_off_c, 0, 81, 58
1, 231372, Note_on_c, 0, 79, 72
1, 231374, Note_on_c, 0, 62, 41
1, 231377, Note_on_c, 0, 69, 39
1, 231381, Note_on_c, 0, 76, 53
1, 231407, Note_off_c, 0, 76, 65
1, 231413, Note_off_c, 0, 69, 52
1, 231414, Note_off_c, 0, 62, 60
1, 231429, Note_off_c, 0, 79, 62
1, 231434, Note_on_c, 0, 83, 78
1, 231459, Note_off_c, 0, 83, 69
1, 231509, Note_on_c, 0, 69, 51
1, 231515, Note_on_c, 0, 62, 55
1, 231518, Note_on_c, 0, 83, 83
1, 231534, Note_on_c, 0, 79, 68
1, 231557, Note_off_c, 0, 79, 65
1, 231600, Note_off_c, 0, 83, 58
1, 231609, Note_on_c, 0, 81, 80
1, 231615, Note_on_c, 0, 78, 74
1, 231641, Note_off_c, 0, 78, 68
1, 231687, Note_off_c, 0, 81, 51
1, 231703, Note_on_c, 0, 78, 75
1, 231706, Note_on_c, 0, 74, 58
1, 231729, Note_off_c, 0, 62, 37
1, 231729, Note_off_c, 0, 69, 45
1, 231740, Note_off_c, 0, 74, 66
1, 231745, Note_off_c, 0, 78, 62
1, 231777, Note_on_c, 0, 81, 85
1, 231807, Note_off_c, 0, 81, 60
1, 231848, Note_on_c, 0, 79, 77
1, 231849, Note_on_c, 0, 76, 66
1, 231857, Note_on_c, 0, 69, 51
1, 231869, Note_on_c, 0, 62, 49
1, 231879, Note_off_c, 0, 76, 66
1, 231896, Note_off_c, 0, 79, 62
1, 231911, Note_on_c, 0, 83, 83
1, 231920, Note_off_c, 0, 62, 58
1, 231926, Note_off_c, 0, 69, 57
1, 231932, Note_off_c, 0, 83, 72
1, 231947, Control_c, 0, 64, 36
1, 231962, Control_c, 0, 64, 58
1, 231976, Control_c, 0, 64, 66
1, 231986, Note_on_c, 0, 83, 94
1, 231992, Control_c, 0, 64, 73
1, 231998, Note_on_c, 0, 79, 81
1, 232007, Control_c, 0, 64, 85
1, 232009, Note_on_c, 0, 69, 50
1, 232012, Note_on_c, 0, 62, 66
1, 232020, Note_off_c, 0, 79, 67
1, 232021, Control_c, 0, 64, 97
1, 232035, Note_off_c, 0, 83, 68
1, 232036, Control_c, 0, 64, 104
1, 232051, Control_c, 0, 64, 111
1, 232066, Control_c, 0, 64, 124
1, 232074, Note_on_c, 0, 81, 92
1, 232081, Control_c, 0, 64, 127
1, 232083, Note_on_c, 0, 78, 78
1, 232108, Note_off_c, 0, 78, 64
1, 232150, Note_on_c, 0, 78, 86
1, 232175, Note_off_c, 0, 62, 52
1, 232185, Note_off_c, 0, 69, 57
1, 232214, Control_c, 0, 64, 111
1, 232224, Note_on_c, 0, 80, 87
1, 232229, Control_c, 0, 64, 93
1, 232230, Note_off_c, 0, 78, 62
1, 232233, Note_on_c, 0, 77, 81
1, 232238, Note_off_c, 0, 81, 64
1, 232244, Control_c, 0, 64, 76
1, 232256, Note_off_c, 0, 77, 68
1, 232259, Control_c, 0, 64, 55
1, 232263, Note_off_c, 0, 80, 66
1, 232273, Control_c, 0, 64, 0
1, 232303, Control_c, 0, 64, 60
1, 232307, Note_on_c, 0, 79, 85
1, 232321, Note_on_c, 0, 76, 78
1, 232325, Control_c, 0, 64, 71
1, 232338, Note_on_c, 0, 69, 57
1, 232340, Control_c, 0, 64, 84
1, 232341, Note_on_c, 0, 62, 55
1, 232343, Note_off_c, 0, 76, 71
1, 232351, Note_off_c, 0, 79, 65
1, 232355, Control_c, 0, 64, 99
1, 232370, Control_c, 0, 64, 106
1, 232385, Control_c, 0, 64, 108
1, 232400, Control_c, 0, 64, 109
1, 232401, Note_off_c, 0, 69, 56
1, 232444, Control_c, 0, 64, 109
1, 232459, Control_c, 0, 64, 110
1, 232459, Control_c, 0, 67, 8
1, 232473, Control_c, 0, 67, 10
1, 232488, Note_on_c, 0, 71, 69
1, 232488, Control_c, 0, 64, 111
1, 232488, Control_c, 0, 67, 11
1, 232502, Note_off_c, 0, 62, 50
1, 232503, Control_c, 0, 67, 12
1, 232510, Note_on_c, 0, 69, 69
1, 232518, Control_c, 0, 67, 13
1, 232533, Control_c, 0, 67, 14
1, 232537, Note_off_c, 0, 71, 59
1, 232547, Control_c, 0, 64, 110
1, 232547, Control_c, 0, 67, 14
1, 232562, Control_c, 0, 64, 107
1, 232562, Control_c, 0, 67, 15
1, 232577, Control_c, 0, 64, 99
1, 232592, Control_c, 0, 64, 91
1, 232592, Control_c, 0, 67, 15
1, 232606, Control_c, 0, 64, 81
1, 232606, Control_c, 0, 67, 16
1, 232620, Note_off_c, 0, 69, 55
1, 232621, Control_c, 0, 64, 71
1, 232621, Control_c, 0, 67, 16
1, 232636, Control_c, 0, 64, 54
1, 232636, Control_c, 0, 67, 17
1, 232639, Note_on_c, 0, 88, 72
1, 232651, Control_c, 0, 64, 0
1, 232651, Control_c, 0, 67, 17
1, 232655, Note_on_c, 0, 85, 45
1, 232666, Control_c, 0, 67, 18
1, 232680, Control_c, 0, 67, 18
1, 232681, Note_off_c, 0, 85, 52
1, 232695, Control_c, 0, 67, 19
1, 232701, Note_off_c, 0, 88, 65
1, 232709, Note_on_c, 0, 91, 65
1, 232710, Control_c, 0, 67, 20
1, 232725, Control_c, 0, 67, 22
1, 232740, Control_c, 0, 67, 24
1, 232755, Control_c, 0, 67, 27
1, 232770, Control_c, 0, 67, 30
1, 232773, Note_off_c, 0, 91, 64
1, 232784, Control_c, 0, 67, 34
1, 232787, Note_on_c, 0, 69, 54
1, 232790, Note_on_c, 0, 90, 66
1, 232791, Note_on_c, 0, 87, 59
1, 232800, Note_on_c, 0, 62, 49
1, 232800, Control_c, 0, 67, 37
1, 232812, Note_off_c, 0, 87, 64
1, 232815, Control_c, 0, 67, 42
1, 232818, Note_off_c, 0, 90, 65
1, 232829, Control_c, 0, 67, 46
1, 232834, Note_off_c, 0, 69, 59
1, 232843, Note_off_c, 0, 62, 60
1, 232844, Control_c, 0, 67, 51
1, 232859, Control_c, 0, 67, 56
1, 232864, Note_on_c, 0, 93, 73
1, 232874, Control_c, 0, 67, 63
1, 232889, Control_c, 0, 67, 71
1, 232892, Note_off_c, 0, 93, 65
1, 232904, Control_c, 0, 67, 81
1, 232919, Control_c, 0, 67, 93
1, 232933, Note_on_c, 0, 69, 56
1, 232933, Control_c, 0, 67, 105
1, 232936, Note_on_c, 0, 62, 58
1, 232939, Note_on_c, 0, 93, 75
1, 232943, Note_on_c, 0, 90, 81
1, 232948, Control_c, 0, 67, 115
1, 232963, Control_c, 0, 67, 123
1, 232976, Note_off_c, 0, 90, 62
1, 232978, Control_c, 0, 67, 127
1, 232988, Note_off_c, 0, 93, 54
1, 233020, Note_on_c, 0, 91, 86
1, 233030, Note_on_c, 0, 88, 59
1, 233054, Note_off_c, 0, 88, 65
1, 233083, Note_off_c, 0, 91, 65
1, 233117, Note_on_c, 0, 88, 76
1, 233124, Note_on_c, 0, 85, 54
1, 233145, Note_off_c, 0, 85, 61
1, 233155, Note_off_c, 0, 69, 41
1, 233157, Note_off_c, 0, 62, 37
1, 233158, Note_off_c, 0, 88, 62
1, 233188, Note_on_c, 0, 91, 63
1, 233253, Note_off_c, 0, 91, 65
1, 233258, Note_on_c, 0, 87, 63
1, 233258, Note_on_c, 0, 90, 72
1, 233270, Note_on_c, 0, 69, 54
1, 233276, Note_on_c, 0, 62, 51
1, 233277, Note_off_c, 0, 87, 67
1, 233290, Note_off_c, 0, 90, 63
1, 233322, Note_off_c, 0, 69, 57
1, 233328, Note_off_c, 0, 62, 57
1, 233345, Note_on_c, 0, 93, 72
1, 233371, Note_off_c, 0, 93, 65
1, 233417, Note_on_c, 0, 90, 83
1, 233419, Note_on_c, 0, 93, 74
1, 233432, Note_on_c, 0, 69, 52
1, 233436, Note_on_c, 0, 62, 53
1, 233459, Note_off_c, 0, 90, 64
1, 233459, Note_off_c, 0, 93, 57
1, 233500, Note_on_c, 0, 91, 77
1, 233506, Note_on_c, 0, 88, 76
1, 233531, Note_off_c, 0, 88, 68
1, 233537, Note_off_c, 0, 62, 35
1, 233540, Note_off_c, 0, 91, 63
1, 233548, Note_off_c, 0, 69, 28
1, 233586, Note_on_c, 0, 88, 74
1, 233601, Note_on_c, 0, 85, 52
1, 233622, Note_off_c, 0, 85, 61
1, 233648, Note_off_c, 0, 88, 64
1, 233658, Note_on_c, 0, 91, 68
1, 233720, Note_on_c, 0, 69, 54
1, 233729, Note_on_c, 0, 62, 52
1, 233729, Note_on_c, 0, 85, 53
1, 233732, Note_off_c, 0, 91, 63
1, 233734, Note_on_c, 0, 88, 67
1, 233771, Note_off_c, 0, 85, 65
1, 233771, Note_off_c, 0, 69, 58
1, 233777, Note_off_c, 0, 62, 57
1, 233784, Note_off_c, 0, 88, 57
1, 233822, Note_on_c, 0, 93, 71
1, 233898, Note_on_c, 0, 91, 72
1, 233900, Note_on_c, 0, 88, 68
1, 233910, Note_on_c, 0, 69, 48
1, 233911, Note_on_c, 0, 62, 48
1, 233916, Note_off_c, 0, 93, 49
1, 233950, Note_off_c, 0, 88, 48
1, 233978, Note_on_c, 0, 90, 74
1, 233980, Note_off_c, 0, 91, 65
1, 234000, Note_on_c, 0, 86, 40
1, 234001, Note_off_c, 0, 90, 70
1, 234027, Note_off_c, 0, 86, 51
1, 234036, Note_off_c, 0, 69, 27
1, 234060, Note_on_c, 0, 90, 79
1, 234075, Note_off_c, 0, 62, 24
1, 234078, Note_on_c, 0, 86, 57
1, 234100, Note_off_c, 0, 86, 58
1, 234126, Note_off_c, 0, 90, 57
1, 234154, Note_on_c, 0, 85, 60
1, 234154, Note_on_c, 0, 89, 67
1, 234190, Note_off_c, 0, 85, 61
1, 234251, Note_off_c, 0, 89, 53
1, 234251, Control_c, 0, 64, 43
1, 234266, Control_c, 0, 64, 61
1, 234269, Note_on_c, 0, 90, 52
1, 234276, Note_on_c, 0, 86, 61
1, 234279, Note_on_c, 0, 62, 46
1, 234281, Control_c, 0, 64, 66
1, 234286, Note_on_c, 0, 69, 44
1, 234297, Control_c, 0, 64, 72
1, 234312, Control_c, 0, 64, 79
1, 234313, Note_off_c, 0, 86, 64
1, 234326, Control_c, 0, 64, 87
1, 234331, Note_off_c, 0, 90, 61
1, 234341, Control_c, 0, 64, 92
1, 234343, Note_off_c, 0, 69, 53
1, 234356, Control_c, 0, 64, 98
1, 234370, Control_c, 0, 64, 105
1, 234385, Control_c, 0, 64, 112
1, 234401, Control_c, 0, 64, 127
1, 234469, Note_off_c, 0, 62, 36
1, 234588, Note_on_c, 0, 71, 48
1, 234610, Note_on_c, 0, 69, 58
1, 234628, Note_off_c, 0, 71, 49
1, 234675, Control_c, 0, 64, 121
1, 234690, Control_c, 0, 64, 112
1, 234705, Control_c, 0, 64, 105
1, 234720, Control_c, 0, 64, 97
1, 234735, Control_c, 0, 64, 89
1, 234749, Control_c, 0, 64, 81
1, 234764, Control_c, 0, 64, 70
1, 234779, Note_off_c, 0, 69, 33
1, 234779, Control_c, 0, 64, 57
1, 234780, Note_on_c, 0, 78, 61
1, 234785, Note_on_c, 0, 74, 43
1, 234794, Control_c, 0, 64, 0
1, 234812, Note_off_c, 0, 74, 62
1, 234817, Note_off_c, 0, 78, 59
1, 234840, Note_on_c, 0, 81, 76
1, 234886, Note_off_c, 0, 81, 52
1, 234910, Note_on_c, 0, 69, 51
1, 234917, Note_on_c, 0, 79, 74
1, 234928, Note_on_c, 0, 62, 44
1, 234928, Note_on_c, 0, 76, 63
1, 234960, Note_off_c, 0, 76, 63
1, 234962, Note_off_c, 0, 69, 58
1, 234965, Note_off_c, 0, 62, 60
1, 234971, Note_off_c, 0, 79, 52
1, 234998, Note_on_c, 0, 83, 76
1, 235021, Note_off_c, 0, 83, 71
1, 235072, Note_on_c, 0, 83, 85
1, 235073, Note_on_c, 0, 62, 49
1, 235074, Note_on_c, 0, 69, 53
1, 235084, Note_on_c, 0, 79, 79
1, 235107, Note_off_c, 0, 79, 67
1, 235152, Note_off_c, 0, 83, 65
1, 235157, Note_on_c, 0, 81, 81
1, 235163, Note_on_c, 0, 78, 80
1, 235201, Note_off_c, 0, 81, 62
1, 235203, Note_off_c, 0, 78, 61
1, 235228, Note_off_c, 0, 62, 34
1, 235233, Note_off_c, 0, 69, 36
1, 235256, Note_on_c, 0, 74, 63
1, 235259, Note_on_c, 0, 78, 60
1, 235288, Note_off_c, 0, 74, 66
1, 235297, Note_off_c, 0, 78, 65
1, 235329, Note_on_c, 0, 81, 79
1, 235382, Note_off_c, 0, 81, 55
1, 235401, Note_on_c, 0, 79, 72
1, 235408, Note_on_c, 0, 76, 54
1, 235414, Note_on_c, 0, 69, 43
1, 235417, Note_on_c, 0, 62, 41
1, 235438, Note_off_c, 0, 76, 66
1, 235458, Note_off_c, 0, 62, 58
1, 235460, Note_off_c, 0, 69, 58
1, 235461, Note_off_c, 0, 79, 62
1, 235473, Note_on_c, 0, 83, 72
1, 235497, Note_off_c, 0, 83, 69
1, 235541, Note_on_c, 0, 83, 88
1, 235557, Note_on_c, 0, 79, 75
1, 235562, Note_on_c, 0, 62, 51
1, 235564, Note_on_c, 0, 69, 50
1, 235582, Note_off_c, 0, 79, 65
1, 235626, Note_off_c, 0, 83, 63
1, 235627, Note_on_c, 0, 81, 82
1, 235631, Note_on_c, 0, 78, 76
1, 235658, Note_off_c, 0, 78, 66
1, 235683, Note_off_c, 0, 81, 63
1, 235722, Note_off_c, 0, 69, 36
1, 235730, Note_on_c, 0, 78, 74
1, 235730, Note_on_c, 0, 74, 56
1, 235734, Note_off_c, 0, 62, 38
1, 235762, Note_off_c, 0, 74, 66
1, 235771, Note_off_c, 0, 78, 62
1, 235800, Note_on_c, 0, 81, 81
1, 235849, Note_off_c, 0, 81, 47
1, 235859, Note_on_c, 0, 69, 50
1, 235867, Note_on_c, 0, 62, 46
1, 235870, Note_on_c, 0, 79, 75
1, 235873, Note_on_c, 0, 76, 59
1, 235902, Note_off_c, 0, 76, 67
1, 235917, Note_off_c, 0, 62, 57
1, 235918, Note_off_c, 0, 69, 58
1, 235925, Note_off_c, 0, 79, 63
1, 235937, Note_on_c, 0, 83, 79
1, 235958, Note_off_c, 0, 83, 73
1, 235988, Control_c, 0, 64, 41
1, 236003, Control_c, 0, 64, 63
1, 236005, Note_on_c, 0, 83, 85
1, 236017, Note_on_c, 0, 69, 62
1, 236018, Note_on_c, 0, 79, 78
1, 236018, Control_c, 0, 64, 69
1, 236019, Note_on_c, 0, 62, 61
1, 236033, Control_c, 0, 64, 77
1, 236040, Note_off_c, 0, 79, 67
1, 236047, Control_c, 0, 64, 87
1, 236049, Note_off_c, 0, 83, 67
1, 236069, Control_c, 0, 64, 93
1, 236084, Control_c, 0, 64, 97
1, 236099, Control_c, 0, 64, 100
1, 236101, Note_on_c, 0, 81, 90
1, 236113, Note_on_c, 0, 78, 72
1, 236114, Control_c, 0, 64, 103
1, 236129, Control_c, 0, 64, 105
1, 236138, Note_off_c, 0, 78, 64
1, 236144, Control_c, 0, 64, 108
1, 236159, Control_c, 0, 64, 111
1, 236159, Note_off_c, 0, 81, 0
1, 236171, Note_on_c, 0, 81, 76
1, 236173, Control_c, 0, 64, 113
1, 236188, Control_c, 0, 64, 114
1, 236198, Poly_aftertouch_c, 0, 78, 127
1, 236218, Control_c, 0, 64, 109
1, 236233, Control_c, 0, 64, 97
1, 236236, Note_off_c, 0, 62, 36
1, 236247, Control_c, 0, 64, 82
1, 236250, Poly_aftertouch_c, 0, 78, 0
1, 236253, Note_on_c, 0, 80, 84
1, 236254, Note_off_c, 0, 69, 39
1, 236255, Note_on_c, 0, 77, 83
1, 236262, Control_c, 0, 64, 63
1, 236266, Note_off_c, 0, 81, 66
1, 236277, Control_c, 0, 64, 0
1, 236281, Note_off_c, 0, 77, 67
1, 236281, Note_off_c, 0, 80, 64
1, 236321, Control_c, 0, 64, 59
1, 236336, Control_c, 0, 64, 68
1, 236338, Note_on_c, 0, 79, 87
1, 236346, Note_on_c, 0, 76, 74
1, 236351, Control_c, 0, 64, 77
1, 236359, Note_on_c, 0, 62, 52
1, 236365, Control_c, 0, 64, 88
1, 236369, Note_off_c, 0, 76, 70
1, 236370, Note_on_c, 0, 69, 51
1, 236377, Note_off_c, 0, 79, 65
1, 236380, Control_c, 0, 64, 92
1, 236395, Control_c, 0, 64, 94
1, 236410, Control_c, 0, 64, 97
1, 236421, Note_off_c, 0, 69, 56
1, 236425, Control_c, 0, 64, 100
1, 236439, Control_c, 0, 64, 103
1, 236454, Control_c, 0, 64, 105
1, 236469, Control_c, 0, 64, 107
1, 236484, Control_c, 0, 64, 109
1, 236499, Control_c, 0, 64, 109
1, 236509, Note_on_c, 0, 71, 69
1, 236514, Control_c, 0, 64, 110
1, 236528, Note_on_c, 0, 69, 70
1, 236534, Note_off_c, 0, 62, 0
1, 236553, Note_off_c, 0, 71, 60
1, 236597, Poly_aftertouch_c, 0, 62, 0
1, 236618, Control_c, 0, 64, 109
1, 236633, Control_c, 0, 64, 104
1, 236642, Note_off_c, 0, 69, 52
1, 236647, Control_c, 0, 64, 96
1, 236660, Note_on_c, 0, 88, 75
1, 236662, Control_c, 0, 64, 86
1, 236677, Control_c, 0, 64, 76
1, 236687, Note_on_c, 0, 85, 26
1, 236691, Control_c, 0, 64, 65
1, 236706, Control_c, 0, 64, 0
1, 236714, Note_off_c, 0, 85, 44
1, 236714, Note_off_c, 0, 88, 65
1, 236728, Note_on_c, 0, 91, 69
1, 236794, Note_off_c, 0, 91, 62
1, 236819, Note_on_c, 0, 69, 51
1, 236822, Note_on_c, 0, 87, 61
1, 236824, Note_on_c, 0, 62, 51
1, 236825, Note_on_c, 0, 90, 65
1, 236847, Note_off_c, 0, 87, 68
1, 236856, Note_off_c, 0, 90, 61
1, 236863, Note_off_c, 0, 69, 60
1, 236872, Note_off_c, 0, 62, 57
1, 236898, Note_on_c, 0, 93, 71
1, 236925, Note_off_c, 0, 93, 65
1, 236968, Note_on_c, 0, 93, 82
1, 236972, Note_on_c, 0, 69, 50
1, 236973, Note_on_c, 0, 62, 56
1, 236979, Note_on_c, 0, 90, 77
1, 237004, Note_off_c, 0, 90, 64
1, 237015, Note_off_c, 0, 93, 60
1, 237028, Note_off_c, 0, 69, 50
1, 237056, Note_on_c, 0, 91, 79
1, 237065, Note_on_c, 0, 88, 56
1, 237085, Note_off_c, 0, 88, 62
1, 237105, Note_off_c, 0, 91, 65
1, 237143, Note_off_c, 0, 62, 23
1, 237143, Note_on_c, 0, 88, 76
1, 237151, Note_on_c, 0, 85, 54
1, 237172, Note_off_c, 0, 85, 60
1, 237181, Note_off_c, 0, 88, 59
1, 237211, Note_on_c, 0, 91, 59
1, 237279, Note_off_c, 0, 91, 62
1, 237288, Note_on_c, 0, 90, 70
1, 237289, Note_on_c, 0, 87, 65
1, 237306, Note_on_c, 0, 69, 46
1, 237309, Note_on_c, 0, 62, 44
1, 237313, Note_off_c, 0, 87, 69
1, 237315, Note_off_c, 0, 90, 65
1, 237349, Note_off_c, 0, 69, 59
1, 237355, Note_off_c, 0, 62, 58
1, 237377, Note_on_c, 0, 93, 72
1, 237402, Note_off_c, 0, 93, 67
1, 237459, Note_on_c, 0, 93, 81
1, 237460, Note_on_c, 0, 62, 52
1, 237460, Note_on_c, 0, 90, 77
1, 237461, Note_on_c, 0, 69, 42
1, 237488, Note_off_c, 0, 90, 63
1, 237513, Note_off_c, 0, 93, 51
1, 237520, Note_off_c, 0, 69, 45
1, 237545, Note_on_c, 0, 91, 78
1, 237549, Note_on_c, 0, 88, 72
1, 237578, Note_off_c, 0, 62, 29
1, 237581, Note_off_c, 0, 88, 69
1, 237593, Note_off_c, 0, 91, 62
1, 237634, Note_on_c, 0, 88, 77
1, 237650, Note_on_c, 0, 85, 63
1, 237677, Note_off_c, 0, 85, 66
1, 237689, Note_off_c, 0, 88, 64
1, 237708, Note_on_c, 0, 91, 70
1, 237783, Note_off_c, 0, 91, 64
1, 237790, Note_on_c, 0, 88, 74
1, 237793, Note_on_c, 0, 85, 50
1, 237801, Note_on_c, 0, 69, 45
1, 237805, Note_on_c, 0, 62, 45
1, 237827, Note_off_c, 0, 85, 65
1, 237844, Note_off_c, 0, 69, 60
1, 237846, Note_off_c, 0, 88, 59
1, 237852, Note_off_c, 0, 62, 57
1, 237872, Note_on_c, 0, 93, 71
1, 237956, Note_on_c, 0, 88, 72
1, 237958, Note_on_c, 0, 91, 70
1, 237976, Note_on_c, 0, 62, 41
1, 237977, Note_on_c, 0, 69, 41
1, 237983, Note_off_c, 0, 93, 37
1, 238031, Note_off_c, 0, 69, 53
1, 238036, Note_off_c, 0, 91, 62
1, 238037, Note_off_c, 0, 62, 51
1, 238040, Note_off_c, 0, 88, 63
1, 238045, Note_on_c, 0, 90, 67
1, 238056, Note_on_c, 0, 86, 55
1, 238070, Note_off_c, 0, 90, 67
1, 238076, Note_off_c, 0, 86, 64
1, 238124, Note_on_c, 0, 90, 78
1, 238132, Note_on_c, 0, 86, 70
1, 238159, Note_off_c, 0, 86, 65
1, 238182, Note_off_c, 0, 90, 59
1, 238223, Note_on_c, 0, 89, 65
1, 238226, Note_on_c, 0, 85, 57
1, 238259, Note_off_c, 0, 85, 63
1, 238354, Note_on_c, 0, 86, 52
1, 238354, Note_on_c, 0, 90, 64
1, 238360, Note_on_c, 0, 62, 40
1, 238364, Note_on_c, 0, 69, 24
1, 238371, Note_off_c, 0, 89, 31
1, 238390, Control_c, 0, 64, 45
1, 238405, Control_c, 0, 64, 60
1, 238410, Note_off_c, 0, 86, 53
1, 238420, Control_c, 0, 64, 65
1, 238424, Note_off_c, 0, 69, 41
1, 238429, Note_off_c, 0, 62, 52
1, 238434, Control_c, 0, 64, 67
1, 238449, Control_c, 0, 64, 71
1, 238464, Control_c, 0, 64, 75
1, 238465, Note_off_c, 0, 90, 58
1, 238479, Control_c, 0, 64, 78
1, 238494, Control_c, 0, 64, 81
1, 238509, Control_c, 0, 64, 83
1, 238523, Control_c, 0, 64, 86
1, 238538, Control_c, 0, 64, 88
1, 238553, Control_c, 0, 64, 91
1, 238567, Control_c, 0, 64, 93
1, 238582, Control_c, 0, 64, 94
1, 238597, Control_c, 0, 64, 95
1, 238612, Control_c, 0, 64, 96
1, 238615, Note_on_c, 0, 69, 39
1, 238617, Note_on_c, 0, 62, 33
1, 238627, Control_c, 0, 64, 96
1, 238631, Note_on_c, 0, 66, 30
1, 238642, Control_c, 0, 64, 97
1, 238657, Control_c, 0, 64, 98
1, 238662, Note_off_c, 0, 69, 46
1, 238664, Note_off_c, 0, 62, 45
1, 238672, Control_c, 0, 64, 98
1, 238675, Note_off_c, 0, 66, 49
1, 238686, Control_c, 0, 64, 99
1, 238716, Control_c, 0, 64, 99
1, 238746, Control_c, 0, 64, 100
1, 238760, Control_c, 0, 64, 100
1, 238775, Control_c, 0, 67, 123
1, 238790, Control_c, 0, 64, 101
1, 238790, Control_c, 0, 67, 118
1, 238805, Control_c, 0, 67, 114
1, 238820, Control_c, 0, 64, 101
1, 238820, Control_c, 0, 67, 108
1, 238834, Control_c, 0, 64, 102
1, 238834, Control_c, 0, 67, 103
1, 238836, Note_on_c, 0, 66, 46
1, 238848, Note_on_c, 0, 69, 41
1, 238849, Control_c, 0, 67, 97
1, 238851, Note_on_c, 0, 62, 38
1, 238864, Control_c, 0, 64, 102
1, 238864, Control_c, 0, 67, 92
1, 238879, Control_c, 0, 64, 103
1, 238879, Control_c, 0, 67, 87
1, 238893, Control_c, 0, 67, 82
1, 238908, Note_off_c, 0, 62, 45
1, 238908, Control_c, 0, 67, 79
1, 238911, Note_off_c, 0, 69, 45
1, 238923, Control_c, 0, 64, 103
1, 238923, Control_c, 0, 67, 77
1, 238938, Control_c, 0, 67, 75
1, 238947, Note_off_c, 0, 66, 33
1, 238953, Control_c, 0, 67, 73
1, 238967, Control_c, 0, 67, 71
1, 238982, Control_c, 0, 64, 104
1, 238982, Control_c, 0, 67, 70
1, 238997, Control_c, 0, 67, 68
1, 239012, Control_c, 0, 67, 67
1, 239027, Control_c, 0, 67, 65
1, 239041, Control_c, 0, 67, 63
1, 239064, Control_c, 0, 67, 61
1, 239079, Control_c, 0, 67, 58
1, 239093, Control_c, 0, 67, 56
1, 239108, Control_c, 0, 67, 54
1, 239116, Note_on_c, 0, 66, 45
1, 239123, Control_c, 0, 67, 52
1, 239138, Control_c, 0, 67, 49
1, 239143, Note_on_c, 0, 69, 36
1, 239152, Note_on_c, 0, 62, 36
1, 239153, Control_c, 0, 64, 104
1, 239153, Control_c, 0, 67, 47
1, 239167, Control_c, 0, 67, 45
1, 239182, Control_c, 0, 67, 44
1, 239198, Control_c, 0, 67, 42
1, 239213, Control_c, 0, 67, 42
1, 239228, Control_c, 0, 67, 41
1, 239243, Control_c, 0, 67, 39
1, 239258, Control_c, 0, 67, 38
1, 239272, Control_c, 0, 67, 37
1, 239276, Note_off_c, 0, 69, 36
1, 239287, Control_c, 0, 67, 36
1, 239302, Control_c, 0, 67, 34
1, 239316, Control_c, 0, 67, 32
1, 239325, Note_off_c, 0, 62, 33
1, 239331, Control_c, 0, 67, 31
1, 239336, Note_off_c, 0, 66, 46
1, 239346, Control_c, 0, 67, 30
1, 239361, Control_c, 0, 67, 29
1, 239376, Control_c, 0, 67, 28
1, 239390, Control_c, 0, 67, 28
1, 239405, Control_c, 0, 67, 27
1, 239420, Control_c, 0, 67, 27
1, 239435, Control_c, 0, 67, 26
1, 239447, Note_on_c, 0, 69, 37
1, 239450, Control_c, 0, 67, 26
1, 239452, Note_on_c, 0, 62, 32
1, 239467, Note_on_c, 0, 66, 48
1, 239494, Control_c, 0, 64, 101
1, 239509, Control_c, 0, 64, 93
1, 239524, Control_c, 0, 64, 82
1, 239524, Note_on_c, 0, 78, 69
1, 239536, Note_on_c, 0, 74, 54
1, 239539, Control_c, 0, 64, 70
1, 239554, Control_c, 0, 64, 0
1, 239554, Control_c, 0, 67, 25
1, 239583, Control_c, 0, 64, 48
1, 239598, Control_c, 0, 64, 64
1, 239599, Note_off_c, 0, 62, 40
1, 239613, Control_c, 0, 64, 71
1, 239620, Note_off_c, 0, 69, 45
1, 239628, Control_c, 0, 64, 81
1, 239643, Control_c, 0, 64, 92
1, 239657, Control_c, 0, 64, 100
1, 239672, Control_c, 0, 64, 104
1, 239687, Control_c, 0, 64, 108
1, 239700, Note_off_c, 0, 78, 61
1, 239702, Control_c, 0, 64, 112
1, 239712, Note_off_c, 0, 66, 38
1, 239716, Control_c, 0, 64, 117
1, 239731, Control_c, 0, 64, 124
1, 239746, Control_c, 0, 64, 127
1, 239818, Note_on_c, 0, 76, 70
1, 239819, Note_on_c, 0, 79, 71
1, 239821, Note_off_c, 0, 74, 65
1, 239846, Note_off_c, 0, 76, 67
1, 239859, Note_off_c, 0, 79, 58
1, 239908, Note_on_c, 0, 81, 88
1, 239914, Note_on_c, 0, 78, 73
1, 239938, Note_off_c, 0, 78, 68
1, 239941, Note_off_c, 0, 81, 62
1, 240154, Control_c, 0, 64, 111
1, 240169, Control_c, 0, 64, 99
1, 240184, Control_c, 0, 64, 88
1, 240191, Note_on_c, 0, 86, 77
1, 240193, Note_on_c, 0, 62, 46
1, 240195, Note_on_c, 0, 83, 74
1, 240198, Note_on_c, 0, 69, 46
1, 240199, Control_c, 0, 64, 77
1, 240200, Note_on_c, 0, 66, 47
1, 240211, Note_off_c, 0, 83, 70
1, 240213, Control_c, 0, 64, 65
1, 240215, Note_off_c, 0, 86, 68
1, 240228, Control_c, 0, 64, 0
1, 240235, Note_off_c, 0, 66, 60
1, 240235, Note_off_c, 0, 69, 49
1, 240240, Note_off_c, 0, 62, 58
1, 240423, Note_on_c, 0, 83, 75
1, 240426, Note_on_c, 0, 86, 72
1, 240430, Note_on_c, 0, 69, 51
1, 240433, Note_on_c, 0, 66, 49
1, 240440, Note_on_c, 0, 62, 38
1, 240448, Note_off_c, 0, 83, 71
1, 240451, Note_off_c, 0, 86, 68
1, 240475, Note_off_c, 0, 69, 59
1, 240479, Note_off_c, 0, 62, 58
1, 240480, Note_off_c, 0, 66, 60
1, 240605, Note_on_c, 0, 66, 55
1, 240605, Note_on_c, 0, 86, 72
1, 240606, Note_on_c, 0, 62, 43
1, 240607, Note_on_c, 0, 69, 52
1, 240614, Note_on_c, 0, 83, 61
1, 240636, Note_off_c, 0, 86, 63
1, 240637, Note_off_c, 0, 83, 68
1, 240659, Note_off_c, 0, 69, 56
1, 240661, Note_off_c, 0, 66, 58
1, 240665, Note_off_c, 0, 62, 54
1, 240753, Note_on_c, 0, 85, 61
1, 240758, Note_on_c, 0, 81, 58
1, 240782, Note_off_c, 0, 85, 66
1, 240782, Note_off_c, 0, 81, 58
1, 240784, Note_on_c, 0, 86, 76
1, 240842, Note_on_c, 0, 85, 80
1, 240843, Note_on_c, 0, 81, 73
1, 240844, Control_c, 0, 67, 25
1, 240853, Note_on_c, 0, 69, 56
1, 240855, Note_off_c, 0, 86, 63
1, 240857, Note_on_c, 0, 66, 54
1, 240859, Control_c, 0, 64, 58
1, 240859, Control_c, 0, 67, 24
1, 240866, Note_on_c, 0, 62, 40
1, 240874, Control_c, 0, 64, 70
1, 240888, Control_c, 0, 64, 81
1, 240903, Control_c, 0, 64, 92
1, 240903, Control_c, 0, 67, 24
1, 240918, Control_c, 0, 64, 100
1, 240918, Control_c, 0, 67, 23
1, 240928, Note_off_c, 0, 85, 63
1, 240933, Control_c, 0, 64, 106
1, 240948, Control_c, 0, 64, 116
1, 240948, Control_c, 0, 67, 21
1, 240962, Control_c, 0, 64, 127
1, 240962, Control_c, 0, 67, 20
1, 240964, Note_off_c, 0, 81, 64
1, 240977, Control_c, 0, 67, 19
1, 240992, Control_c, 0, 67, 18
1, 241007, Control_c, 0, 67, 17
1, 241036, Control_c, 0, 67, 17
1, 241083, Note_on_c, 0, 79, 62
1, 241086, Note_on_c, 0, 83, 65
1, 241109, Note_off_c, 0, 79, 65
1, 241110, Note_off_c, 0, 69, 38
1, 241115, Note_off_c, 0, 83, 66
1, 241116, Note_off_c, 0, 66, 35
1, 241138, Note_off_c, 0, 62, 26
1, 241147, Note_on_c, 0, 81, 83
1, 241149, Note_on_c, 0, 78, 79
1, 241174, Note_off_c, 0, 81, 67
1, 241179, Note_off_c, 0, 78, 61
1, 241199, Control_c, 0, 67, 17
1, 241287, Control_c, 0, 64, 119
1, 241310, Control_c, 0, 64, 95
1, 241325, Control_c, 0, 64, 80
1, 241337, Note_on_c, 0, 86, 87
1, 241340, Control_c, 0, 64, 65
1, 241341, Note_on_c, 0, 83, 75
1, 241350, Note_on_c, 0, 66, 62
1, 241354, Note_on_c, 0, 69, 57
1, 241354, Control_c, 0, 64, 0
1, 241364, Note_off_c, 0, 83, 73
1, 241365, Note_on_c, 0, 62, 46
1, 241372, Note_off_c, 0, 86, 62
1, 241397, Note_off_c, 0, 69, 60
1, 241400, Note_off_c, 0, 66, 62
1, 241403, Note_off_c, 0, 62, 60
1, 241487, Control_c, 0, 67, 18
1, 241502, Control_c, 0, 67, 18
1, 241517, Control_c, 0, 67, 19
1, 241528, Note_on_c, 0, 86, 79
1, 241532, Control_c, 0, 67, 20
1, 241536, Note_on_c, 0, 69, 62
1, 241538, Note_on_c, 0, 83, 70
1, 241539, Note_on_c, 0, 66, 55
1, 241547, Control_c, 0, 67, 20
1, 241548, Note_on_c, 0, 62, 38
1, 241561, Control_c, 0, 67, 22
1, 241562, Note_off_c, 0, 83, 69
1, 241572, Note_off_c, 0, 86, 62
1, 241576, Control_c, 0, 67, 23
1, 241586, Note_off_c, 0, 69, 56
1, 241588, Note_off_c, 0, 62, 58
1, 241592, Note_off_c, 0, 66, 60
1, 241592, Control_c, 0, 67, 24
1, 241607, Control_c, 0, 67, 25
1, 241622, Control_c, 0, 67, 27
1, 241637, Control_c, 0, 67, 29
1, 241652, Control_c, 0, 67, 31
1, 241666, Control_c, 0, 67, 34
1, 241681, Control_c, 0, 67, 35
1, 241696, Control_c, 0, 67, 38
1, 241710, Control_c, 0, 67, 40
1, 241718, Note_on_c, 0, 86, 72
1, 241720, Note_on_c, 0, 83, 69
1, 241721, Note_on_c, 0, 69, 49
1, 241723, Note_on_c, 0, 66, 44
1, 241725, Control_c, 0, 67, 43
1, 241733, Note_on_c, 0, 62, 34
1, 241740, Control_c, 0, 67, 46
1, 241748, Note_off_c, 0, 83, 69
1, 241755, Control_c, 0, 67, 50
1, 241757, Note_off_c, 0, 86, 60
1, 241763, Note_off_c, 0, 66, 52
1, 241768, Note_off_c, 0, 69, 58
1, 241770, Control_c, 0, 67, 55
1, 241781, Note_off_c, 0, 62, 56
1, 241784, Control_c, 0, 67, 61
1, 241799, Control_c, 0, 67, 68
1, 241814, Control_c, 0, 67, 74
1, 241829, Control_c, 0, 67, 80
1, 241843, Control_c, 0, 67, 84
1, 241858, Control_c, 0, 67, 88
1, 241867, Note_on_c, 0, 85, 62
1, 241873, Control_c, 0, 67, 93
1, 241885, Note_on_c, 0, 81, 55
1, 241888, Control_c, 0, 67, 97
1, 241900, Note_off_c, 0, 85, 66
1, 241903, Control_c, 0, 67, 103
1, 241913, Note_off_c, 0, 81, 55
1, 241918, Control_c, 0, 67, 108
1, 241920, Note_on_c, 0, 86, 67
1, 241933, Control_c, 0, 67, 113
1, 241948, Control_c, 0, 67, 117
1, 241963, Control_c, 0, 67, 121
1, 241970, Note_on_c, 0, 85, 66
1, 241977, Control_c, 0, 64, 27
1, 241977, Control_c, 0, 67, 124
1, 241980, Note_off_c, 0, 86, 62
1, 241986, Note_on_c, 0, 81, 61
1, 241992, Control_c, 0, 64, 56
1, 241992, Control_c, 0, 67, 127
1, 242007, Note_on_c, 0, 67, 41
1, 242007, Control_c, 0, 64, 63
1, 242007, Note_on_c, 0, 64, 38
1, 242013, Note_on_c, 0, 62, 28
1, 242013, Note_on_c, 0, 69, 39
1, 242022, Control_c, 0, 64, 65
1, 242036, Control_c, 0, 64, 67
1, 242058, Control_c, 0, 64, 69
1, 242072, Note_off_c, 0, 85, 55
1, 242073, Control_c, 0, 64, 73
1, 242088, Control_c, 0, 64, 79
1, 242103, Control_c, 0, 64, 84
1, 242118, Control_c, 0, 64, 88
1, 242133, Control_c, 0, 64, 91
1, 242147, Control_c, 0, 64, 95
1, 242162, Control_c, 0, 64, 98
1, 242177, Control_c, 0, 64, 101
1, 242192, Control_c, 0, 64, 103
1, 242207, Control_c, 0, 64, 105
1, 242222, Control_c, 0, 64, 105
1, 242236, Control_c, 0, 64, 106
1, 242255, Note_off_c, 0, 81, 37
1, 242266, Control_c, 0, 64, 106
1, 242280, Note_off_c, 0, 64, 38
1, 242281, Note_off_c, 0, 62, 33
1, 242285, Note_off_c, 0, 69, 35
1, 242299, Note_off_c, 0, 67, 37
1, 242310, Control_c, 0, 64, 107
1, 242395, Note_on_c, 0, 83, 62
1, 242398, Note_on_c, 0, 79, 55
1, 242429, Note_off_c, 0, 79, 62
1, 242459, Control_c, 0, 64, 105
1, 242474, Control_c, 0, 64, 99
1, 242488, Note_off_c, 0, 83, 46
1, 242489, Control_c, 0, 64, 89
1, 242504, Control_c, 0, 64, 77
1, 242518, Note_on_c, 0, 79, 54
1, 242519, Control_c, 0, 64, 63
1, 242529, Note_on_c, 0, 76, 50
1, 242533, Control_c, 0, 64, 0
1, 242721, Note_on_c, 0, 69, 37
1, 242723, Note_on_c, 0, 62, 23
1, 242725, Note_on_c, 0, 64, 35
1, 242726, Control_c, 0, 64, 50
1, 242735, Note_on_c, 0, 67, 22
1, 242741, Control_c, 0, 64, 65
1, 242756, Control_c, 0, 64, 70
1, 242770, Control_c, 0, 64, 77
1, 242772, Note_off_c, 0, 62, 46
1, 242776, Note_off_c, 0, 69, 45
1, 242779, Note_off_c, 0, 64, 57
1, 242785, Note_off_c, 0, 67, 46
1, 242785, Control_c, 0, 64, 82
1, 242807, Control_c, 0, 64, 87
1, 242822, Control_c, 0, 64, 94
1, 242837, Control_c, 0, 64, 104
1, 242852, Control_c, 0, 64, 127
1, 242877, Note_off_c, 0, 76, 37
1, 242891, Note_off_c, 0, 79, 35
1, 242925, Note_on_c, 0, 62, 42
1, 242926, Note_on_c, 0, 64, 42
1, 242926, Note_on_c, 0, 69, 42
1, 242929, Note_on_c, 0, 67, 38
1, 242980, Note_off_c, 0, 69, 56
1, 242985, Control_c, 0, 67, 126
1, 242987, Note_off_c, 0, 62, 49
1, 242987, Note_off_c, 0, 67, 52
1, 242988, Note_off_c, 0, 64, 53
1, 243000, Control_c, 0, 67, 124
1, 243015, Control_c, 0, 67, 122
1, 243030, Control_c, 0, 67, 120
1, 243045, Control_c, 0, 67, 118
1, 243059, Control_c, 0, 67, 116
1, 243074, Control_c, 0, 67, 115
1, 243089, Control_c, 0, 67, 114
1, 243104, Control_c, 0, 67, 113
1, 243119, Control_c, 0, 67, 112
1, 243122, Note_on_c, 0, 62, 48
1, 243133, Control_c, 0, 67, 111
1, 243137, Note_on_c, 0, 64, 44
1, 243148, Note_on_c, 0, 67, 33
1, 243148, Control_c, 0, 67, 111
1, 243163, Control_c, 0, 67, 110
1, 243173, Note_on_c, 0, 69, 27
1, 243179, Control_c, 0, 67, 109
1, 243194, Control_c, 0, 67, 109
1, 243209, Control_c, 0, 67, 108
1, 243235, Note_off_c, 0, 69, 40
1, 243238, Control_c, 0, 67, 107
1, 243239, Note_off_c, 0, 67, 36
1, 243252, Note_off_c, 0, 64, 55
1, 243253, Control_c, 0, 67, 107
1, 243265, Note_off_c, 0, 62, 33
1, 243282, Control_c, 0, 67, 106
1, 243297, Control_c, 0, 67, 106
1, 243441, Note_on_c, 0, 62, 29
1, 243454, Note_on_c, 0, 69, 40
1, 243463, Note_on_c, 0, 67, 36
1, 243464, Note_on_c, 0, 64, 30
1, 243474, Control_c, 0, 64, 117
1, 243489, Control_c, 0, 64, 98
1, 243495, Note_on_c, 0, 73, 57
1, 243497, Note_on_c, 0, 76, 61
1, 243504, Control_c, 0, 64, 84
1, 243519, Control_c, 0, 64, 73
1, 243534, Control_c, 0, 64, 63
1, 243556, Control_c, 0, 64, 60
1, 243571, Control_c, 0, 64, 64
1, 243586, Control_c, 0, 64, 67
1, 243586, Control_c, 0, 67, 105
1, 243601, Control_c, 0, 64, 72
1, 243615, Control_c, 0, 64, 81
1, 243615, Control_c, 0, 67, 105
1, 243630, Control_c, 0, 64, 89
1, 243635, Note_off_c, 0, 73, 53
1, 243645, Control_c, 0, 64, 93
1, 243659, Note_off_c, 0, 62, 39
1, 243660, Control_c, 0, 64, 96
1, 243667, Note_off_c, 0, 69, 45
1, 243671, Note_off_c, 0, 76, 64
1, 243675, Control_c, 0, 64, 100
1, 243689, Control_c, 0, 64, 104
1, 243704, Control_c, 0, 64, 109
1, 243719, Control_c, 0, 64, 116
1, 243734, Control_c, 0, 64, 127
1, 243745, Note_off_c, 0, 67, 39
1, 243759, Note_off_c, 0, 64, 35
1, 243779, Note_on_c, 0, 78, 75
1, 243791, Note_on_c, 0, 74, 59
1, 243809, Note_off_c, 0, 78, 60
1, 243820, Note_off_c, 0, 74, 67
1, 243865, Note_on_c, 0, 76, 75
1, 243866, Note_on_c, 0, 79, 75
1, 243890, Note_off_c, 0, 76, 69
1, 243899, Note_off_c, 0, 79, 63
1, 244061, Control_c, 0, 67, 105
1, 244091, Control_c, 0, 64, 107
1, 244105, Control_c, 0, 64, 93
1, 244105, Control_c, 0, 67, 106
1, 244119, Note_on_c, 0, 85, 77
1, 244120, Control_c, 0, 64, 81
1, 244122, Note_on_c, 0, 81, 76
1, 244126, Note_on_c, 0, 62, 46
1, 244130, Note_on_c, 0, 69, 47
1, 244135, Control_c, 0, 64, 69
1, 244138, Note_on_c, 0, 64, 39
1, 244139, Note_off_c, 0, 81, 67
1, 244144, Note_on_c, 0, 67, 36
1, 244150, Note_off_c, 0, 85, 61
1, 244150, Control_c, 0, 64, 12
1, 244165, Note_off_c, 0, 69, 50
1, 244165, Control_c, 0, 64, 0
1, 244174, Note_off_c, 0, 62, 58
1, 244174, Note_off_c, 0, 64, 58
1, 244175, Note_off_c, 0, 67, 58
1, 244346, Note_on_c, 0, 85, 76
1, 244349, Note_on_c, 0, 81, 76
1, 244358, Note_on_c, 0, 62, 39
1, 244362, Note_on_c, 0, 69, 41
1, 244365, Note_on_c, 0, 64, 33
1, 244369, Note_on_c, 0, 67, 25
1, 244375, Note_off_c, 0, 81, 68
1, 244377, Note_off_c, 0, 85, 63
1, 244395, Note_off_c, 0, 69, 51
1, 244397, Note_off_c, 0, 62, 56
1, 244401, Note_off_c, 0, 64, 54
1, 244404, Note_off_c, 0, 67, 54
1, 244520, Note_on_c, 0, 85, 75
1, 244526, Note_on_c, 0, 64, 41
1, 244527, Note_on_c, 0, 67, 40
1, 244529, Note_on_c, 0, 62, 41
1, 244529, Note_on_c, 0, 69, 44
1, 244531, Note_on_c, 0, 81, 65
1, 244550, Note_off_c, 0, 81, 64
1, 244559, Note_off_c, 0, 85, 56
1, 244577, Note_off_c, 0, 67, 57
1, 244577, Note_off_c, 0, 69, 53
1, 244577, Note_off_c, 0, 62, 57
1, 244580, Note_off_c, 0, 64, 58
1, 244586, Control_c, 0, 67, 106
1, 244601, Control_c, 0, 67, 107
1, 244631, Control_c, 0, 67, 107
1, 244645, Control_c, 0, 67, 108
1, 244658, Note_on_c, 0, 83, 73
1, 244665, Note_on_c, 0, 79, 59
1, 244684, Note_off_c, 0, 83, 70
1, 244691, Note_off_c, 0, 79, 65
1, 244698, Note_on_c, 0, 85, 66
1, 244705, Control_c, 0, 64, 33
1, 244720, Control_c, 0, 64, 62
1, 244735, Control_c, 0, 64, 69
1, 244745, Note_on_c, 0, 83, 79
1, 244749, Control_c, 0, 64, 82
1, 244749, Control_c, 0, 67, 107
1, 244751, Note_on_c, 0, 79, 75
1, 244759, Note_off_c, 0, 85, 63
1, 244760, Note_on_c, 0, 62, 44
1, 244760, Note_on_c, 0, 67, 47
1, 244761, Note_on_c, 0, 69, 49
1, 244764, Control_c, 0, 64, 96
1, 244764, Control_c, 0, 67, 107
1, 244766, Note_on_c, 0, 64, 44
1, 244780, Control_c, 0, 64, 108
1, 244780, Control_c, 0, 67, 106
1, 244795, Control_c, 0, 64, 127
1, 244795, Control_c, 0, 67, 106
1, 244821, Note_off_c, 0, 83, 65
1, 244824, Control_c, 0, 67, 105
1, 244839, Control_c, 0, 67, 105
1, 244869, Note_off_c, 0, 64, 35
1, 244884, Control_c, 0, 67, 104
1, 244899, Note_off_c, 0, 67, 30
1, 244899, Note_off_c, 0, 79, 57
1, 244928, Control_c, 0, 67, 104
1, 244935, Note_off_c, 0, 62, 25
1, 244958, Control_c, 0, 67, 103
1, 244994, Note_on_c, 0, 81, 80
1, 245002, Control_c, 0, 67, 102
1, 245017, Control_c, 0, 67, 101
1, 245019, Note_on_c, 0, 78, 55
1, 245019, Note_off_c, 0, 81, 69
1, 245032, Control_c, 0, 67, 100
1, 245035, Note_off_c, 0, 69, 16
1, 245039, Note_off_c, 0, 78, 60
1, 245054, Control_c, 0, 67, 99
1, 245069, Control_c, 0, 67, 99
1, 245085, Note_on_c, 0, 76, 73
1, 245093, Note_on_c, 0, 79, 71
1, 245114, Note_off_c, 0, 76, 62
1, 245117, Note_off_c, 0, 79, 66
1, 245202, Control_c, 0, 67, 99
1, 245232, Control_c, 0, 64, 109
1, 245232, Control_c, 0, 67, 100
1, 245247, Control_c, 0, 64, 89
1, 245261, Control_c, 0, 64, 74
1, 245261, Control_c, 0, 67, 100
1, 245263, Note_on_c, 0, 85, 78
1, 245265, Note_on_c, 0, 62, 48
1, 245268, Note_on_c, 0, 69, 50
1, 245269, Note_on_c, 0, 81, 82
1, 245270, Note_on_c, 0, 64, 47
1, 245274, Note_on_c, 0, 67, 43
1, 245276, Control_c, 0, 64, 56
1, 245291, Control_c, 0, 64, 0
1, 245291, Control_c, 0, 67, 101
1, 245292, Note_off_c, 0, 81, 68
1, 245299, Note_off_c, 0, 85, 59
1, 245309, Note_off_c, 0, 69, 54
1, 245313, Note_off_c, 0, 67, 61
1, 245314, Note_off_c, 0, 62, 58
1, 245315, Note_off_c, 0, 64, 60
1, 245320, Control_c, 0, 67, 101
1, 245439, Control_c, 0, 67, 102
1, 245467, Note_on_c, 0, 81, 82
1, 245471, Note_on_c, 0, 69, 41
1, 245473, Note_on_c, 0, 67, 36
1, 245473, Note_on_c, 0, 85, 63
1, 245483, Note_on_c, 0, 62, 29
1, 245483, Note_on_c, 0, 64, 23
1, 245483, Control_c, 0, 67, 102
1, 245494, Note_off_c, 0, 81, 65
1, 245498, Control_c, 0, 67, 103
1, 245502, Note_off_c, 0, 85, 66
1, 245507, Note_off_c, 0, 69, 50
1, 245515, Note_off_c, 0, 67, 50
1, 245518, Note_off_c, 0, 62, 50
1, 245519, Note_off_c, 0, 64, 51
1, 245528, Control_c, 0, 67, 103
1, 245558, Control_c, 0, 67, 104
1, 245573, Control_c, 0, 67, 105
1, 245588, Control_c, 0, 67, 106
1, 245617, Control_c, 0, 67, 106
1, 245632, Control_c, 0, 67, 107
1, 245650, Note_on_c, 0, 81, 74
1, 245654, Note_on_c, 0, 85, 64
1, 245658, Note_on_c, 0, 67, 31
1, 245662, Note_on_c, 0, 69, 37
1, 245677, Note_on_c, 0, 62, 3
1, 245677, Note_off_c, 0, 81, 66
1, 245686, Note_off_c, 0, 85, 63
1, 245690, Poly_aftertouch_c, 0, 64, 127
1, 245699, Note_off_c, 0, 69, 49
1, 245700, Note_off_c, 0, 67, 49
1, 245716, Note_off_c, 0, 62, 40
1, 245719, Poly_aftertouch_c, 0, 64, 0
1, 245813, Note_on_c, 0, 83, 56
1, 245824, Note_on_c, 0, 79, 47
1, 245835, Note_off_c, 0, 83, 63
1, 245847, Note_off_c, 0, 79, 57
1, 245853, Note_on_c, 0, 85, 64
1, 245891, Control_c, 0, 64, 44
1, 245904, Note_on_c, 0, 83, 68
1, 245904, Note_off_c, 0, 85, 57
1, 245906, Control_c, 0, 64, 62
1, 245919, Note_on_c, 0, 79, 60
1, 245921, Control_c, 0, 64, 67
1, 245921, Control_c, 0, 67, 106
1, 245926, Note_on_c, 0, 66, 50
1, 245930, Note_on_c, 0, 69, 35
1, 245936, Control_c, 0, 64, 76
1, 245936, Note_on_c, 0, 62, 34
1, 245951, Control_c, 0, 64, 86
1, 245951, Control_c, 0, 67, 106
1, 245966, Control_c, 0, 64, 92
1, 245981, Control_c, 0, 64, 95
1, 245981, Control_c, 0, 67, 105
1, 245996, Control_c, 0, 64, 100
1, 246010, Control_c, 0, 64, 106
1, 246010, Control_c, 0, 67, 105
1, 246025, Control_c, 0, 64, 114
1, 246036, Note_off_c, 0, 83, 60
1, 246040, Control_c, 0, 64, 127
1, 246139, Note_off_c, 0, 79, 57
1, 246173, Note_off_c, 0, 66, 45
1, 246195, Note_off_c, 0, 62, 31
1, 246226, Note_off_c, 0, 69, 38
1, 246315, Note_on_c, 0, 81, 72
1, 246321, Note_on_c, 0, 78, 53
1, 246336, Control_c, 0, 67, 104
1, 246342, Note_off_c, 0, 78, 62
1, 246357, Note_off_c, 0, 81, 56
1, 246396, Control_c, 0, 64, 111
1, 246411, Control_c, 0, 64, 99
1, 246422, Note_on_c, 0, 78, 60
1, 246425, Control_c, 0, 64, 90
1, 246431, Note_on_c, 0, 74, 49
1, 246440, Control_c, 0, 64, 79
1, 246455, Control_c, 0, 64, 69
1, 246470, Control_c, 0, 64, 53
1, 246485, Control_c, 0, 64, 0
1, 246529, Control_c, 0, 67, 104
1, 246566, Control_c, 0, 64, 26
1, 246566, Control_c, 0, 67, 103
1, 246581, Control_c, 0, 64, 49
1, 246596, Control_c, 0, 64, 61
1, 246611, Control_c, 0, 64, 65
1, 246611, Control_c, 0, 67, 103
1, 246623, Note_on_c, 0, 62, 36
1, 246625, Control_c, 0, 64, 70
1, 246628, Note_on_c, 0, 69, 39
1, 246628, Note_on_c, 0, 66, 44
1, 246640, Control_c, 0, 64, 78
1, 246655, Control_c, 0, 64, 86
1, 246655, Control_c, 0, 67, 102
1, 246670, Control_c, 0, 64, 91
1, 246678, Note_off_c, 0, 66, 57
1, 246680, Note_off_c, 0, 74, 52
1, 246685, Note_off_c, 0, 62, 54
1, 246685, Control_c, 0, 64, 94
1, 246685, Control_c, 0, 67, 102
1, 246690, Note_off_c, 0, 69, 53
1, 246699, Control_c, 0, 64, 97
1, 246714, Note_off_c, 0, 78, 62
1, 246714, Control_c, 0, 64, 101
1, 246714, Control_c, 0, 67, 101
1, 246729, Control_c, 0, 64, 104
1, 246744, Control_c, 0, 64, 107
1, 246759, Control_c, 0, 64, 109
1, 246774, Control_c, 0, 64, 110
1, 246774, Control_c, 0, 67, 101
1, 246789, Control_c, 0, 64, 110
1, 246789, Control_c, 0, 67, 100
1, 246804, Control_c, 0, 64, 111
1, 246816, Note_on_c, 0, 69, 54
1, 246819, Control_c, 0, 67, 100
1, 246825, Note_on_c, 0, 62, 43
1, 246828, Note_on_c, 0, 66, 50
1, 246833, Control_c, 0, 64, 111
1, 246848, Control_c, 0, 64, 112
1, 246848, Control_c, 0, 67, 99
1, 246875, Note_off_c, 0, 62, 55
1, 246877, Note_off_c, 0, 66, 58
1, 246878, Control_c, 0, 64, 112
1, 246888, Note_off_c, 0, 69, 54
1, 246937, Control_c, 0, 67, 99
1, 246981, Control_c, 0, 64, 113
1, 247013, Note_on_c, 0, 69, 55
1, 247018, Note_on_c, 0, 66, 49
1, 247019, Note_on_c, 0, 62, 43
1, 247025, Control_c, 0, 64, 113
1, 247100, Note_off_c, 0, 62, 40
1, 247100, Note_off_c, 0, 69, 50
1, 247105, Note_off_c, 0, 66, 39
1, 247248, Note_on_c, 0, 66, 48
1, 247248, Note_on_c, 0, 69, 46
1, 247266, Note_on_c, 0, 62, 41
1, 247278, Control_c, 0, 64, 113
1, 247301, Control_c, 0, 64, 106
1, 247316, Control_c, 0, 64, 96
1, 247330, Control_c, 0, 64, 85
1, 247330, Control_c, 0, 67, 99
1, 247345, Control_c, 0, 64, 72
1, 247349, Note_on_c, 0, 78, 67
1, 247360, Control_c, 0, 64, 62
1, 247362, Note_on_c, 0, 74, 52
1, 247374, Control_c, 0, 64, 48
1, 247389, Control_c, 0, 64, 58
1, 247404, Control_c, 0, 64, 64
1, 247419, Control_c, 0, 64, 68
1, 247434, Control_c, 0, 64, 74
1, 247448, Control_c, 0, 64, 82
1, 247463, Control_c, 0, 64, 87
1, 247478, Control_c, 0, 64, 89
1, 247484, Note_off_c, 0, 78, 60
1, 247493, Control_c, 0, 64, 91
1, 247508, Control_c, 0, 64, 93
1, 247522, Control_c, 0, 64, 96
1, 247537, Control_c, 0, 64, 98
1, 247552, Control_c, 0, 64, 100
1, 247567, Control_c, 0, 64, 102
1, 247582, Control_c, 0, 64, 103
1, 247585, Note_off_c, 0, 74, 61
1, 247597, Control_c, 0, 64, 104
1, 247611, Control_c, 0, 64, 105
1, 247626, Control_c, 0, 64, 106
1, 247629, Note_on_c, 0, 79, 75
1, 247635, Note_on_c, 0, 76, 64
1, 247641, Control_c, 0, 64, 107
1, 247656, Control_c, 0, 64, 109
1, 247661, Note_off_c, 0, 76, 66
1, 247662, Note_off_c, 0, 79, 61
1, 247671, Control_c, 0, 64, 110
1, 247686, Control_c, 0, 64, 111
1, 247698, Note_off_c, 0, 62, 30
1, 247715, Control_c, 0, 64, 111
1, 247725, Note_on_c, 0, 77, 78
1, 247730, Control_c, 0, 64, 112
1, 247731, Note_on_c, 0, 80, 76
1, 247757, Note_off_c, 0, 80, 65
1, 247759, Note_off_c, 0, 77, 60
1, 247778, Note_off_c, 0, 69, 37
1, 247789, Control_c, 0, 64, 111
1, 247803, Note_off_c, 0, 66, 30
1, 247804, Control_c, 0, 64, 107
1, 247811, Note_on_c, 0, 81, 85
1, 247814, Note_on_c, 0, 78, 79
1, 247819, Control_c, 0, 64, 98
1, 247819, Control_c, 0, 67, 100
1, 247834, Control_c, 0, 64, 85
1, 247835, Note_off_c, 0, 78, 70
1, 247836, Note_off_c, 0, 81, 68
1, 247848, Control_c, 0, 64, 73
1, 247848, Control_c, 0, 67, 100
1, 247863, Control_c, 0, 64, 60
1, 247863, Control_c, 0, 67, 101
1, 247878, Control_c, 0, 64, 0
1, 247878, Control_c, 0, 67, 102
1, 247892, Control_c, 0, 67, 102
1, 247903, Note_on_c, 0, 86, 90
1, 247907, Note_on_c, 0, 83, 86
1, 247907, Control_c, 0, 67, 103
1, 247919, Note_on_c, 0, 69, 57
1, 247922, Control_c, 0, 67, 104
1, 247927, Note_on_c, 0, 66, 59
1, 247927, Note_off_c, 0, 83, 75
1, 247932, Note_on_c, 0, 62, 48
1, 247936, Note_off_c, 0, 86, 63
1, 247937, Control_c, 0, 67, 104
1, 247952, Control_c, 0, 67, 105
1, 247968, Control_c, 0, 67, 105
1, 247978, Note_off_c, 0, 66, 59
1, 247983, Control_c, 0, 67, 106
1, 247989, Note_off_c, 0, 62, 53
1, 247989, Note_off_c, 0, 69, 55
1, 247997, Control_c, 0, 67, 106
1, 248012, Control_c, 0, 67, 107
1, 248027, Control_c, 0, 67, 107
1, 248065, Control_c, 0, 67, 108
1, 248123, Control_c, 0, 67, 109
1, 248135, Note_on_c, 0, 69, 45
1, 248139, Note_on_c, 0, 62, 42
1, 248145, Note_on_c, 0, 66, 45
1, 248168, Control_c, 0, 67, 109
1, 248224, Note_off_c, 0, 69, 51
1, 248231, Note_off_c, 0, 62, 47
1, 248246, Note_off_c, 0, 66, 48
1, 248262, Note_on_c, 0, 86, 72
1, 248267, Note_on_c, 0, 83, 68
1, 248291, Note_off_c, 0, 86, 63
1, 248294, Note_off_c, 0, 83, 70
1, 248365, Note_on_c, 0, 66, 63
1, 248367, Note_on_c, 0, 83, 72
1, 248369, Note_on_c, 0, 69, 56
1, 248371, Note_on_c, 0, 86, 75
1, 248377, Note_on_c, 0, 62, 48
1, 248396, Note_off_c, 0, 86, 65
1, 248400, Note_off_c, 0, 83, 67
1, 248470, Note_on_c, 0, 86, 73
1, 248475, Note_on_c, 0, 83, 70
1, 248494, Note_off_c, 0, 86, 67
1, 248503, Note_off_c, 0, 83, 67
1, 248510, Note_off_c, 0, 69, 47
1, 248530, Note_off_c, 0, 62, 35
1, 248554, Note_on_c, 0, 85, 73
1, 248556, Note_off_c, 0, 66, 43
1, 248568, Control_c, 0, 67, 109
1, 248574, Note_on_c, 0, 81, 64
1, 248582, Note_off_c, 0, 85, 67
1, 248583, Control_c, 0, 67, 108
1, 248593, Note_off_c, 0, 81, 62
1, 248607, Note_on_c, 0, 86, 65
1, 248612, Control_c, 0, 64, 39
1, 248627, Control_c, 0, 64, 65
1, 248627, Control_c, 0, 67, 108
1, 248642, Control_c, 0, 64, 74
1, 248649, Note_on_c, 0, 85, 82
1, 248652, Note_on_c, 0, 81, 75
1, 248657, Control_c, 0, 64, 91
1, 248667, Note_on_c, 0, 62, 47
1, 248668, Note_on_c, 0, 66, 57
1, 248669, Note_on_c, 0, 69, 52
1, 248670, Note_off_c, 0, 86, 64
1, 248671, Control_c, 0, 64, 119
1, 248686, Control_c, 0, 64, 127
1, 248701, Control_c, 0, 67, 108
1, 248713, Note_off_c, 0, 85, 63
1, 248764, Note_off_c, 0, 81, 60
1, 248786, Note_off_c, 0, 66, 31
1, 248834, Note_off_c, 0, 69, 27
1, 248872, Control_c, 0, 67, 108
1, 248875, Note_off_c, 0, 62, 23
1, 248895, Note_on_c, 0, 79, 69
1, 248895, Note_on_c, 0, 83, 68
1, 248902, Control_c, 0, 67, 107
1, 248922, Note_off_c, 0, 79, 64
1, 248923, Note_off_c, 0, 83, 70
1, 248970, Note_on_c, 0, 81, 85
1, 248971, Note_on_c, 0, 78, 77
1, 248999, Note_off_c, 0, 81, 64
1, 249004, Note_off_c, 0, 78, 60
1, 249050, Control_c, 0, 67, 108
1, 249080, Control_c, 0, 67, 108
1, 249124, Control_c, 0, 64, 101
1, 249139, Control_c, 0, 64, 84
1, 249139, Control_c, 0, 67, 109
1, 249150, Note_on_c, 0, 86, 73
1, 249153, Note_on_c, 0, 83, 72
1, 249153, Control_c, 0, 64, 70
1, 249153, Control_c, 0, 67, 109
1, 249162, Note_on_c, 0, 66, 54
1, 249162, Note_on_c, 0, 69, 51
1, 249168, Control_c, 0, 64, 28
1, 249168, Control_c, 0, 67, 110
1, 249173, Note_on_c, 0, 62, 42
1, 249178, Note_off_c, 0, 83, 64
1, 249183, Control_c, 0, 64, 0
1, 249183, Control_c, 0, 67, 111
1, 249185, Note_off_c, 0, 86, 64
1, 249198, Control_c, 0, 67, 111
1, 249211, Note_off_c, 0, 66, 60
1, 249213, Control_c, 0, 67, 112
1, 249216, Note_off_c, 0, 69, 57
1, 249218, Note_off_c, 0, 62, 59
1, 249227, Control_c, 0, 67, 115
1, 249242, Control_c, 0, 67, 120
1, 249257, Control_c, 0, 67, 124
1, 249272, Control_c, 0, 67, 127
1, 249389, Note_on_c, 0, 69, 40
1, 249391, Note_on_c, 0, 66, 41
1, 249404, Note_on_c, 0, 62, 26
1, 249445, Note_off_c, 0, 69, 41
1, 249453, Note_off_c, 0, 66, 42
1, 249453, Note_off_c, 0, 62, 45
1, 249511, Note_on_c, 0, 86, 70
1, 249516, Note_on_c, 0, 83, 66
1, 249546, Note_off_c, 0, 86, 65
1, 249552, Note_off_c, 0, 83, 70
1, 249630, Note_on_c, 0, 83, 70
1, 249630, Note_on_c, 0, 86, 73
1, 249633, Note_on_c, 0, 66, 55
1, 249638, Note_on_c, 0, 69, 51
1, 249653, Note_on_c, 0, 62, 34
1, 249659, Note_off_c, 0, 86, 61
1, 249660, Note_off_c, 0, 83, 67
1, 249680, Note_off_c, 0, 66, 59
1, 249690, Note_off_c, 0, 69, 52
1, 249693, Note_off_c, 0, 62, 49
1, 249733, Note_on_c, 0, 86, 72
1, 249740, Note_on_c, 0, 83, 69
1, 249761, Note_off_c, 0, 86, 65
1, 249770, Note_off_c, 0, 83, 65
1, 249821, Note_on_c, 0, 85, 65
1, 249846, Note_on_c, 0, 81, 52
1, 249852, Note_off_c, 0, 85, 68
1, 249865, Note_on_c, 0, 86, 67
1, 249874, Note_off_c, 0, 81, 53
1, 249902, Control_c, 0, 64, 57
1, 249915, Note_on_c, 0, 85, 75
1, 249917, Control_c, 0, 64, 66
1, 249919, Note_on_c, 0, 81, 62
1, 249929, Note_on_c, 0, 64, 44
1, 249930, Note_on_c, 0, 69, 47
1, 249932, Control_c, 0, 64, 76
1, 249934, Note_on_c, 0, 67, 40
1, 249936, Note_off_c, 0, 86, 61
1, 249947, Control_c, 0, 64, 87
1, 249948, Note_on_c, 0, 62, 35
1, 249962, Control_c, 0, 64, 95
1, 249976, Control_c, 0, 64, 101
1, 249991, Control_c, 0, 64, 107
1, 250004, Note_off_c, 0, 85, 55
1, 250006, Control_c, 0, 64, 114
1, 250021, Control_c, 0, 64, 127
1, 250133, Note_off_c, 0, 81, 51
1, 250181, Note_off_c, 0, 64, 40
1, 250191, Note_off_c, 0, 69, 37
1, 250192, Note_off_c, 0, 67, 35
1, 250211, Note_off_c, 0, 62, 33
1, 250302, Note_on_c, 0, 83, 67
1, 250314, Note_on_c, 0, 79, 47
1, 250339, Note_off_c, 0, 79, 55
1, 250345, Note_off_c, 0, 83, 56
1, 250354, Control_c, 0, 64, 107
1, 250370, Control_c, 0, 64, 96
1, 250385, Control_c, 0, 64, 86
1, 250399, Control_c, 0, 64, 75
1, 250405, Note_on_c, 0, 76, 52
1, 250414, Note_on_c, 0, 79, 60
1, 250414, Control_c, 0, 64, 63
1, 250429, Control_c, 0, 64, 0
1, 250563, Control_c, 0, 64, 54
1, 250577, Control_c, 0, 64, 65
1, 250589, Note_on_c, 0, 69, 40
1, 250591, Note_on_c, 0, 62, 33
1, 250592, Control_c, 0, 64, 70
1, 250596, Note_on_c, 0, 64, 34
1, 250607, Control_c, 0, 64, 78
1, 250622, Control_c, 0, 64, 86
1, 250634, Poly_aftertouch_c, 0, 67, 127
1, 250634, Note_on_c, 0, 67, 3
1, 250637, Control_c, 0, 64, 90
1, 250644, Note_off_c, 0, 69, 44
1, 250651, Note_off_c, 0, 62, 52
1, 250651, Control_c, 0, 64, 92
1, 250652, Note_off_c, 0, 64, 55
1, 250666, Control_c, 0, 64, 94
1, 250673, Note_off_c, 0, 79, 49
1, 250673, Note_off_c, 0, 67, 50
1, 250680, Note_off_c, 0, 76, 38
1, 250681, Control_c, 0, 64, 98
1, 250696, Control_c, 0, 64, 102
1, 250711, Control_c, 0, 64, 107
1, 250725, Control_c, 0, 64, 113
1, 250740, Control_c, 0, 64, 124
1, 250755, Control_c, 0, 64, 127
1, 250774, Note_on_c, 0, 62, 52
1, 250778, Note_on_c, 0, 64, 49
1, 250780, Note_on_c, 0, 67, 43
1, 250788, Note_on_c, 0, 69, 41
1, 250835, Note_off_c, 0, 69, 54
1, 250836, Note_off_c, 0, 64, 50
1, 250839, Note_off_c, 0, 67, 54
1, 250860, Note_off_c, 0, 62, 53
1, 250974, Note_on_c, 0, 64, 44
1, 250974, Note_on_c, 0, 67, 45
1, 250975, Note_on_c, 0, 69, 46
1, 250986, Note_on_c, 0, 62, 48
1, 251052, Note_off_c, 0, 64, 53
1, 251053, Note_off_c, 0, 62, 43
1, 251053, Note_off_c, 0, 67, 51
1, 251056, Note_off_c, 0, 69, 50
1, 251227, Note_on_c, 0, 62, 32
1, 251228, Note_on_c, 0, 69, 34
1, 251241, Note_on_c, 0, 64, 32
1, 251242, Note_on_c, 0, 67, 31
1, 251253, Control_c, 0, 64, 117
1, 251267, Control_c, 0, 64, 98
1, 251282, Control_c, 0, 64, 84
1, 251297, Control_c, 0, 64, 72
1, 251312, Control_c, 0, 64, 64
1, 251314, Note_on_c, 0, 76, 69
1, 251332, Note_on_c, 0, 73, 60
1, 251341, Control_c, 0, 64, 67
1, 251356, Control_c, 0, 64, 73
1, 251371, Control_c, 0, 64, 82
1, 251386, Control_c, 0, 64, 92
1, 251401, Control_c, 0, 64, 99
1, 251415, Control_c, 0, 64, 104
1, 251430, Control_c, 0, 64, 112
1, 251445, Control_c, 0, 64, 127
1, 251480, Note_off_c, 0, 73, 47
1, 251481, Note_off_c, 0, 76, 63
1, 251576, Note_on_c, 0, 77, 67
1, 251582, Note_on_c, 0, 74, 61
1, 251604, Note_off_c, 0, 77, 66
1, 251609, Note_off_c, 0, 74, 67
1, 251656, Note_on_c, 0, 75, 70
1, 251656, Note_on_c, 0, 78, 70
1, 251677, Note_off_c, 0, 64, 42
1, 251684, Note_off_c, 0, 62, 38
1, 251686, Note_off_c, 0, 75, 64
1, 251687, Note_off_c, 0, 67, 42
1, 251697, Control_c, 0, 64, 116
1, 251700, Note_off_c, 0, 69, 41
1, 251704, Note_off_c, 0, 78, 43
1, 251712, Control_c, 0, 64, 98
1, 251725, Note_on_c, 0, 79, 77
1, 251727, Control_c, 0, 64, 83
1, 251731, Note_on_c, 0, 76, 73
1, 251741, Control_c, 0, 64, 70
1, 251749, Note_off_c, 0, 79, 67
1, 251754, Note_off_c, 0, 76, 69
1, 251756, Control_c, 0, 64, 44
1, 251771, Control_c, 0, 64, 0
1, 251823, Note_on_c, 0, 69, 48
1, 251826, Note_on_c, 0, 62, 40
1, 251831, Note_on_c, 0, 85, 81
1, 251832, Note_on_c, 0, 64, 33
1, 251833, Note_on_c, 0, 67, 35
1, 251839, Note_on_c, 0, 81, 76
1, 251853, Note_off_c, 0, 85, 69
1, 251857, Note_off_c, 0, 81, 65
1, 251881, Note_off_c, 0, 64, 53
1, 251881, Note_off_c, 0, 67, 52
1, 251882, Note_off_c, 0, 62, 54
1, 251886, Note_off_c, 0, 69, 54
1, 252061, Note_on_c, 0, 62, 36
1, 252067, Note_on_c, 0, 69, 37
1, 252073, Note_on_c, 0, 64, 29
1, 252074, Note_on_c, 0, 67, 26
1, 252136, Note_off_c, 0, 62, 46
1, 252148, Note_off_c, 0, 69, 43
1, 252150, Note_off_c, 0, 64, 40
1, 252150, Note_off_c, 0, 67, 39
1, 252180, Note_on_c, 0, 85, 73
1, 252181, Note_on_c, 0, 81, 76
1, 252205, Note_off_c, 0, 85, 68
1, 252206, Note_off_c, 0, 81, 68
1, 252272, Note_on_c, 0, 69, 53
1, 252274, Note_on_c, 0, 67, 50
1, 252278, Note_on_c, 0, 81, 72
1, 252278, Note_on_c, 0, 85, 77
1, 252280, Note_on_c, 0, 62, 49
1, 252288, Note_on_c, 0, 64, 38
1, 252309, Note_off_c, 0, 81, 67
1, 252309, Note_off_c, 0, 85, 64
1, 252347, Note_off_c, 0, 64, 48
1, 252383, Note_on_c, 0, 81, 66
1, 252405, Note_off_c, 0, 67, 34
1, 252408, Note_off_c, 0, 81, 54
1, 252414, Note_on_c, 0, 83, 35
1, 252414, Note_off_c, 0, 69, 32
1, 252417, Note_off_c, 0, 62, 30
1, 252454, Note_on_c, 0, 79, 64
1, 252478, Note_on_c, 0, 85, 52
1, 252481, Note_off_c, 0, 79, 65
1, 252482, Note_off_c, 0, 83, 68
1, 252519, Control_c, 0, 64, 49
1, 252533, Note_on_c, 0, 69, 63
1, 252542, Note_on_c, 0, 83, 65
1, 252542, Control_c, 0, 64, 65
1, 252545, Note_on_c, 0, 79, 74
1, 252554, Note_on_c, 0, 62, 48
1, 252554, Note_off_c, 0, 85, 65
1, 252555, Note_on_c, 0, 67, 47
1, 252557, Control_c, 0, 64, 73
1, 252571, Note_on_c, 0, 64, 45
1, 252571, Control_c, 0, 64, 84
1, 252586, Control_c, 0, 64, 96
1, 252601, Control_c, 0, 64, 102
1, 252615, Control_c, 0, 64, 108
1, 252616, Note_off_c, 0, 83, 63
1, 252630, Control_c, 0, 64, 122
1, 252645, Control_c, 0, 64, 127
1, 252670, Note_off_c, 0, 79, 59
1, 252735, Note_off_c, 0, 64, 29
1, 252759, Note_off_c, 0, 62, 36
1, 252760, Note_off_c, 0, 67, 33
1, 252774, Note_off_c, 0, 69, 33
1, 252800, Note_on_c, 0, 81, 69
1, 252806, Note_on_c, 0, 78, 59
1, 252819, Note_off_c, 0, 81, 64
1, 252825, Note_off_c, 0, 78, 62
1, 252875, Note_on_c, 0, 76, 64
1, 252884, Note_on_c, 0, 79, 61
1, 252898, Note_off_c, 0, 76, 65
1, 252906, Note_off_c, 0, 79, 65
1, 253016, Control_c, 0, 64, 111
1, 253031, Control_c, 0, 64, 95
1, 253046, Control_c, 0, 64, 84
1, 253060, Note_on_c, 0, 85, 76
1, 253061, Control_c, 0, 64, 73
1, 253064, Note_on_c, 0, 81, 79
1, 253072, Note_on_c, 0, 69, 43
1, 253075, Note_on_c, 0, 62, 39
1, 253075, Control_c, 0, 64, 61
1, 253077, Note_on_c, 0, 67, 37
1, 253090, Note_off_c, 0, 81, 68
1, 253090, Control_c, 0, 64, 0
1, 253093, Note_off_c, 0, 85, 59
1, 253114, Note_off_c, 0, 69, 48
1, 253118, Note_off_c, 0, 67, 59
1, 253123, Note_off_c, 0, 62, 55
1, 253332, Note_on_c, 0, 69, 31
1, 253334, Note_on_c, 0, 67, 31
1, 253338, Note_on_c, 0, 62, 27
1, 253339, Note_on_c, 0, 64, 27
1, 253387, Note_off_c, 0, 64, 46
1, 253390, Note_off_c, 0, 69, 41
1, 253391, Note_off_c, 0, 67, 44
1, 253392, Note_off_c, 0, 62, 42
1, 253448, Note_on_c, 0, 81, 73
1, 253451, Note_on_c, 0, 85, 62
1, 253475, Note_off_c, 0, 81, 68
1, 253479, Note_off_c, 0, 85, 67
1, 253548, Note_on_c, 0, 85, 69
1, 253549, Note_on_c, 0, 81, 74
1, 253549, Note_on_c, 0, 69, 53
1, 253552, Note_on_c, 0, 67, 43
1, 253564, Note_on_c, 0, 62, 38
1, 253578, Note_off_c, 0, 85, 66
1, 253586, Note_off_c, 0, 81, 62
1, 253594, Note_on_c, 0, 64, 3
1, 253619, Note_off_c, 0, 62, 48
1, 253627, Note_off_c, 0, 69, 47
1, 253632, Note_off_c, 0, 64, 45
1, 253653, Note_on_c, 0, 81, 67
1, 253654, Note_on_c, 0, 85, 65
1, 253687, Note_off_c, 0, 85, 63
1, 253692, Note_off_c, 0, 81, 61
1, 253704, Note_off_c, 0, 67, 24
1, 253726, Note_on_c, 0, 83, 73
1, 253746, Note_on_c, 0, 79, 65
1, 253767, Note_off_c, 0, 83, 66
1, 253773, Note_off_c, 0, 79, 66
1, 253786, Note_on_c, 0, 85, 68
1, 253831, Note_on_c, 0, 79, 69
1, 253834, Note_on_c, 0, 83, 69
1, 253836, Note_on_c, 0, 69, 51
1, 253840, Control_c, 0, 64, 56
1, 253850, Note_on_c, 0, 62, 35
1, 253851, Note_on_c, 0, 66, 40
1, 253854, Note_off_c, 0, 85, 61
1, 253855, Control_c, 0, 64, 66
1, 253869, Control_c, 0, 64, 73
1, 253884, Control_c, 0, 64, 84
1, 253899, Control_c, 0, 64, 98
1, 253914, Control_c, 0, 64, 111
1, 253929, Control_c, 0, 64, 127
1, 253994, Note_off_c, 0, 83, 38
1, 254076, Note_off_c, 0, 79, 52
1, 254187, Control_c, 0, 67, 126
1, 254202, Control_c, 0, 67, 122
1, 254217, Control_c, 0, 67, 119
1, 254232, Control_c, 0, 67, 116
1, 254247, Control_c, 0, 67, 114
1, 254262, Control_c, 0, 67, 112
1, 254277, Control_c, 0, 67, 110
1, 254290, Note_off_c, 0, 62, 36
1, 254292, Control_c, 0, 67, 109
1, 254306, Note_off_c, 0, 66, 43
1, 254307, Control_c, 0, 67, 108
1, 254318, Note_on_c, 0, 81, 69
1, 254318, Note_off_c, 0, 69, 34
1, 254321, Control_c, 0, 67, 107
1, 254334, Note_on_c, 0, 78, 50
1, 254336, Control_c, 0, 67, 107
1, 254351, Control_c, 0, 67, 106
1, 254356, Note_off_c, 0, 81, 61
1, 254357, Note_off_c, 0, 78, 59
1, 254381, Control_c, 0, 67, 105
1, 254396, Control_c, 0, 67, 105
1, 254411, Control_c, 0, 67, 104
1, 254426, Control_c, 0, 67, 104
1, 254431, Note_on_c, 0, 78, 61
1, 254441, Control_c, 0, 67, 103
1, 254444, Note_on_c, 0, 74, 37
1, 254471, Control_c, 0, 67, 103
1, 254559, Control_c, 0, 67, 102
1, 254589, Control_c, 0, 67, 102
1, 254604, Control_c, 0, 67, 101
1, 254618, Control_c, 0, 67, 98
1, 254630, Note_on_c, 0, 68, 73
1, 254633, Control_c, 0, 67, 95
1, 254648, Control_c, 0, 64, 114
1, 254648, Control_c, 0, 67, 88
1, 254658, Note_off_c, 0, 68, 66
1, 254663, Control_c, 0, 64, 95
1, 254663, Control_c, 0, 67, 77
1, 254673, Note_off_c, 0, 78, 55
1, 254678, Control_c, 0, 64, 81
1, 254678, Control_c, 0, 67, 62
1, 254680, Note_off_c, 0, 74, 38
1, 254692, Control_c, 0, 64, 68
1, 254692, Control_c, 0, 67, 43
1, 254707, Control_c, 0, 64, 0
1, 254707, Control_c, 0, 67, 24
1, 254718, Note_on_c, 0, 69, 64
1, 254722, Control_c, 0, 67, 0
1, 254753, Note_off_c, 0, 69, 64
1, 254801, Note_on_c, 0, 66, 65
1, 254808, Note_on_c, 0, 62, 53
1, 254835, Note_off_c, 0, 66, 66
1, 254855, Note_off_c, 0, 62, 57
1, 254879, Note_on_c, 0, 69, 61
1, 254918, Note_off_c, 0, 69, 65
1, 254954, Note_on_c, 0, 66, 44
1, 254962, Note_on_c, 0, 62, 29
1, 254983, Note_off_c, 0, 66, 56
1, 254990, Note_off_c, 0, 62, 47
1, 255020, Note_on_c, 0, 69, 68
1, 255049, Note_off_c, 0, 69, 67
1, 255089, Note_on_c, 0, 57, 70
1, 255126, Note_off_c, 0, 57, 59
1, 255229, Note_on_c, 0, 100, 70
1, 255249, Note_on_c, 0, 98, 73
1, 255258, Note_off_c, 0, 100, 66
1, 255313, Note_off_c, 0, 98, 63
1, 255317, Note_on_c, 0, 97, 79
1, 255344, Note_off_c, 0, 97, 68
1, 255391, Note_on_c, 0, 62, 53
1, 255392, Note_on_c, 0, 66, 56
1, 255392, Note_on_c, 0, 98, 78
1, 255412, Note_off_c, 0, 62, 60
1, 255415, Note_off_c, 0, 66, 60
1, 255481, Note_on_c, 0, 100, 86
1, 255514, Note_off_c, 0, 98, 65
1, 255526, Note_on_c, 0, 50, 79
1, 255538, Control_c, 0, 64, 68
1, 255550, Note_on_c, 0, 101, 85
1, 255553, Control_c, 0, 64, 127
1, 255560, Note_off_c, 0, 50, 68
1, 255615, Note_off_c, 0, 101, 66
1, 255618, Note_on_c, 0, 102, 85
1, 255619, Note_off_c, 0, 100, 51
1, 255678, Note_off_c, 0, 102, 62
1, 255694, Note_on_c, 0, 97, 79
1, 255761, Note_on_c, 0, 98, 79
1, 255766, Note_off_c, 0, 97, 64
1, 255789, Control_c, 0, 64, 100
1, 255797, Note_off_c, 0, 98, 64
1, 255804, Control_c, 0, 64, 83
1, 255817, Note_on_c, 0, 66, 69
1, 255819, Control_c, 0, 64, 67
1, 255823, Note_on_c, 0, 69, 40
1, 255824, Note_on_c, 0, 62, 41
1, 255830, Note_on_c, 0, 92, 79
1, 255833, Control_c, 0, 64, 0
1, 255848, Note_off_c, 0, 66, 66
1, 255851, Note_off_c, 0, 62, 52
1, 255852, Note_off_c, 0, 69, 49
1, 255880, Note_off_c, 0, 92, 62
1, 255915, Note_on_c, 0, 93, 59
1, 255944, Note_off_c, 0, 93, 65
1, 255952, Note_on_c, 0, 95, 7
1, 255972, Note_on_c, 0, 89, 66
1, 255973, Note_on_c, 0, 57, 50
1, 255996, Note_off_c, 0, 89, 68
1, 256008, Note_off_c, 0, 95, 26
1, 256019, Note_off_c, 0, 57, 57
1, 256047, Note_on_c, 0, 90, 71
1, 256086, Note_off_c, 0, 90, 59
1, 256120, Note_on_c, 0, 85, 65
1, 256170, Note_off_c, 0, 85, 46
1, 256193, Note_on_c, 0, 86, 55
1, 256217, Note_off_c, 0, 86, 62
1, 256262, Note_on_c, 0, 80, 71
1, 256268, Note_on_c, 0, 66, 62
1, 256288, Note_on_c, 0, 62, 44
1, 256296, Note_off_c, 0, 66, 62
1, 256302, Note_off_c, 0, 80, 63
1, 256315, Note_off_c, 0, 62, 49
1, 256356, Note_on_c, 0, 81, 71
1, 256384, Note_off_c, 0, 81, 67
1, 256421, Note_on_c, 0, 77, 66
1, 256428, Note_on_c, 0, 50, 56
1, 256453, Note_off_c, 0, 50, 58
1, 256470, Note_off_c, 0, 77, 53
1, 256483, Note_on_c, 0, 78, 78
1, 256533, Note_off_c, 0, 78, 64
1, 256569, Note_on_c, 0, 86, 72
1, 256579, Note_on_c, 0, 83, 58
1, 256601, Note_off_c, 0, 83, 66
1, 256615, Note_off_c, 0, 86, 62
1, 256629, Note_on_c, 0, 78, 76
1, 256670, Note_off_c, 0, 78, 58
1, 256697, Note_on_c, 0, 62, 54
1, 256697, Note_on_c, 0, 86, 79
1, 256706, Note_on_c, 0, 66, 57
1, 256733, Note_off_c, 0, 86, 62
1, 256733, Note_off_c, 0, 62, 62
1, 256735, Note_off_c, 0, 66, 61
1, 256765, Note_on_c, 0, 78, 73
1, 256802, Note_off_c, 0, 78, 55
1, 256831, Note_on_c, 0, 85, 79
1, 256832, Note_on_c, 0, 57, 49
1, 256870, Note_off_c, 0, 57, 49
1, 256889, Note_off_c, 0, 85, 64
1, 256905, Note_on_c, 0, 76, 69
1, 256951, Note_off_c, 0, 76, 63
1, 256971, Note_on_c, 0, 82, 68
1, 256975, Note_on_c, 0, 78, 58
1, 256997, Control_c, 0, 64, 37
1, 257005, Note_off_c, 0, 78, 66
1, 257011, Control_c, 0, 64, 62
1, 257023, Note_off_c, 0, 82, 59
1, 257034, Control_c, 0, 64, 68
1, 257037, Note_on_c, 0, 76, 66
1, 257049, Control_c, 0, 64, 74
1, 257064, Control_c, 0, 64, 82
1, 257068, Note_off_c, 0, 76, 64
1, 257079, Control_c, 0, 64, 87
1, 257093, Control_c, 0, 64, 89
1, 257106, Note_on_c, 0, 79, 68
1, 257106, Note_on_c, 0, 83, 69
1, 257108, Control_c, 0, 64, 92
1, 257121, Note_on_c, 0, 61, 34
1, 257123, Control_c, 0, 64, 96
1, 257125, Note_on_c, 0, 64, 46
1, 257135, Note_on_c, 0, 69, 43
1, 257137, Control_c, 0, 64, 99
1, 257144, Note_off_c, 0, 79, 58
1, 257150, Note_off_c, 0, 83, 65
1, 257152, Control_c, 0, 64, 102
1, 257158, Note_off_c, 0, 61, 50
1, 257163, Note_off_c, 0, 64, 64
1, 257167, Control_c, 0, 64, 104
1, 257182, Control_c, 0, 64, 106
1, 257197, Control_c, 0, 64, 108
1, 257211, Control_c, 0, 64, 109
1, 257226, Control_c, 0, 64, 110
1, 257232, Note_off_c, 0, 69, 61
1, 257271, Control_c, 0, 64, 104
1, 257276, Note_on_c, 0, 68, 81
1, 257285, Control_c, 0, 64, 90
1, 257300, Control_c, 0, 64, 74
1, 257302, Note_off_c, 0, 68, 65
1, 257315, Control_c, 0, 64, 0
1, 257343, Note_on_c, 0, 69, 80
1, 257402, Note_off_c, 0, 69, 61
1, 257428, Note_on_c, 0, 64, 68
1, 257431, Note_on_c, 0, 61, 63
1, 257472, Note_off_c, 0, 64, 62
1, 257473, Note_off_c, 0, 61, 59
1, 257511, Note_on_c, 0, 69, 62
1, 257545, Note_off_c, 0, 69, 64
1, 257579, Note_on_c, 0, 61, 60
1, 257591, Note_on_c, 0, 64, 53
1, 257616, Note_off_c, 0, 64, 63
1, 257618, Note_off_c, 0, 61, 62
1, 257651, Note_on_c, 0, 69, 62
1, 257685, Note_off_c, 0, 69, 64
1, 257722, Note_on_c, 0, 57, 72
1, 257758, Note_off_c, 0, 57, 58
1, 257871, Note_on_c, 0, 98, 58
1, 257900, Note_off_c, 0, 98, 67
1, 257903, Note_on_c, 0, 97, 72
1, 257928, Note_off_c, 0, 97, 69
1, 257964, Note_on_c, 0, 95, 72
1, 258018, Note_on_c, 0, 69, 39
1, 258019, Note_on_c, 0, 61, 65
1, 258033, Note_off_c, 0, 95, 58
1, 258036, Note_on_c, 0, 97, 73
1, 258046, Note_off_c, 0, 61, 65
1, 258048, Note_off_c, 0, 69, 35
1, 258088, Note_off_c, 0, 97, 58
1, 258109, Note_on_c, 0, 98, 79
1, 258168, Control_c, 0, 64, 70
1, 258183, Control_c, 0, 64, 127
1, 258185, Note_on_c, 0, 50, 59
1, 258188, Note_on_c, 0, 99, 87
1, 258215, Note_off_c, 0, 50, 63
1, 258215, Note_off_c, 0, 98, 65
1, 258247, Note_off_c, 0, 99, 66
1, 258265, Note_on_c, 0, 100, 85
1, 258327, Note_off_c, 0, 100, 66
1, 258353, Note_on_c, 0, 96, 79
1, 258406, Note_off_c, 0, 96, 62
1, 258421, Note_on_c, 0, 97, 78
1, 258468, Note_off_c, 0, 97, 64
1, 258477, Note_on_c, 0, 90, 70
1, 258489, Note_on_c, 0, 69, 71
1, 258489, Note_on_c, 0, 61, 68
1, 258495, Note_on_c, 0, 64, 60
1, 258503, Note_off_c, 0, 90, 69
1, 258526, Note_off_c, 0, 69, 63
1, 258531, Note_off_c, 0, 64, 65
1, 258531, Control_c, 0, 64, 98
1, 258533, Note_off_c, 0, 61, 56
1, 258546, Control_c, 0, 64, 79
1, 258561, Control_c, 0, 64, 58
1, 258574, Note_on_c, 0, 91, 70
1, 258576, Control_c, 0, 64, 0
1, 258611, Note_off_c, 0, 91, 63
1, 258629, Note_on_c, 0, 57, 60
1, 258641, Note_on_c, 0, 87, 62
1, 258665, Note_off_c, 0, 57, 62
1, 258667, Note_off_c, 0, 87, 68
1, 258705, Note_on_c, 0, 88, 74
1, 258751, Note_off_c, 0, 88, 65
1, 258787, Note_on_c, 0, 84, 76
1, 258822, Note_off_c, 0, 84, 64
1, 258853, Note_on_c, 0, 85, 76
1, 258902, Note_off_c, 0, 85, 62
1, 258916, Note_on_c, 0, 78, 70
1, 258936, Note_on_c, 0, 64, 41
1, 258939, Note_on_c, 0, 61, 55
1, 258943, Note_off_c, 0, 78, 68
1, 258963, Note_off_c, 0, 64, 52
1, 258968, Note_off_c, 0, 61, 65
1, 258996, Note_on_c, 0, 79, 74
1, 259035, Note_off_c, 0, 79, 63
1, 259070, Note_on_c, 0, 75, 71
1, 259074, Note_on_c, 0, 50, 64
1, 259103, Note_off_c, 0, 50, 64
1, 259106, Note_off_c, 0, 75, 64
1, 259133, Note_on_c, 0, 76, 76
1, 259178, Note_off_c, 0, 76, 59
1, 259207, Note_on_c, 0, 85, 73
1, 259208, Note_on_c, 0, 81, 78
1, 259247, Note_off_c, 0, 85, 55
1, 259280, Note_off_c, 0, 81, 61
1, 259300, Note_on_c, 0, 76, 64
1, 259332, Note_off_c, 0, 76, 63
1, 259357, Note_on_c, 0, 85, 69
1, 259359, Note_on_c, 0, 69, 54
1, 259364, Note_on_c, 0, 61, 48
1, 259364, Note_on_c, 0, 64, 46
1, 259388, Note_off_c, 0, 64, 59
1, 259392, Note_off_c, 0, 69, 60
1, 259394, Note_off_c, 0, 61, 58
1, 259419, Note_off_c, 0, 85, 62
1, 259430, Note_on_c, 0, 76, 67
1, 259462, Note_off_c, 0, 76, 66
1, 259499, Note_on_c, 0, 57, 52
1, 259503, Note_on_c, 0, 83, 72
1, 259531, Note_on_c, 0, 79, 37
1, 259541, Note_off_c, 0, 57, 58
1, 259560, Note_off_c, 0, 79, 47
1, 259560, Note_off_c, 0, 83, 65
1, 259575, Note_on_c, 0, 74, 58
1, 259615, Note_off_c, 0, 74, 64
1, 259640, Note_on_c, 0, 80, 74
1, 259669, Note_on_c, 0, 77, 31
1, 259675, Note_off_c, 0, 80, 59
1, 259702, Note_off_c, 0, 77, 46
1, 259724, Control_c, 0, 64, 18
1, 259726, Note_on_c, 0, 74, 42
1, 259739, Control_c, 0, 64, 58
1, 259753, Note_off_c, 0, 74, 53
1, 259754, Control_c, 0, 64, 66
1, 259769, Control_c, 0, 64, 73
1, 259776, Note_on_c, 0, 81, 79
1, 259781, Note_on_c, 0, 78, 66
1, 259784, Note_on_c, 0, 62, 49
1, 259784, Control_c, 0, 64, 82
1, 259798, Control_c, 0, 64, 90
1, 259801, Note_on_c, 0, 66, 52
1, 259803, Note_on_c, 0, 69, 42
1, 259806, Note_off_c, 0, 81, 61
1, 259813, Control_c, 0, 64, 97
1, 259818, Note_off_c, 0, 62, 63
1, 259818, Note_off_c, 0, 78, 60
1, 259828, Control_c, 0, 64, 107
1, 259841, Note_off_c, 0, 66, 62
1, 259843, Control_c, 0, 64, 127
1, 259915, Note_off_c, 0, 69, 62
1, 259949, Note_on_c, 0, 68, 82
1, 259962, Control_c, 0, 64, 99
1, 259977, Control_c, 0, 64, 78
1, 259981, Note_off_c, 0, 68, 57
1, 259992, Control_c, 0, 64, 44
1, 260001, Note_on_c, 0, 62, 17
1, 260007, Control_c, 0, 64, 0
1, 260021, Note_on_c, 0, 69, 78
1, 260042, Note_off_c, 0, 62, 41
1, 260081, Note_off_c, 0, 69, 60
1, 260104, Note_on_c, 0, 66, 74
1, 260113, Note_on_c, 0, 62, 64
1, 260143, Note_off_c, 0, 66, 65
1, 260164, Note_off_c, 0, 62, 58
1, 260187, Note_on_c, 0, 69, 62
1, 260221, Note_off_c, 0, 69, 64
1, 260260, Note_on_c, 0, 66, 51
1, 260263, Note_on_c, 0, 62, 54
1, 260285, Note_off_c, 0, 66, 59
1, 260308, Note_off_c, 0, 62, 60
1, 260336, Note_on_c, 0, 69, 55
1, 260365, Note_off_c, 0, 69, 65
1, 260400, Note_on_c, 0, 57, 80
1, 260459, Note_off_c, 0, 57, 58
1, 260533, Note_on_c, 0, 90, 70
1, 260558, Note_off_c, 0, 90, 67
1, 260578, Note_on_c, 0, 98, 74
1, 260628, Note_on_c, 0, 90, 65
1, 260636, Note_off_c, 0, 98, 65
1, 260653, Note_off_c, 0, 90, 67
1, 260679, Note_on_c, 0, 91, 71
1, 260689, Note_on_c, 0, 66, 71
1, 260709, Note_off_c, 0, 91, 65
1, 260710, Note_off_c, 0, 66, 67
1, 260737, Note_on_c, 0, 100, 80
1, 260794, Note_off_c, 0, 100, 66
1, 260802, Note_on_c, 0, 91, 59
1, 260835, Note_off_c, 0, 91, 66
1, 260840, Note_on_c, 0, 92, 75
1, 260844, Note_on_c, 0, 50, 67
1, 260864, Note_off_c, 0, 92, 69
1, 260873, Note_off_c, 0, 50, 66
1, 260883, Note_on_c, 0, 101, 81
1, 260934, Note_off_c, 0, 101, 63
1, 260936, Note_on_c, 0, 92, 65
1, 260969, Note_off_c, 0, 92, 66
1, 260992, Note_on_c, 0, 93, 74
1, 261023, Note_off_c, 0, 93, 62
1, 261042, Note_on_c, 0, 102, 83
1, 261091, Note_off_c, 0, 102, 63
1, 261097, Note_on_c, 0, 93, 68
1, 261123, Note_off_c, 0, 93, 66
1, 261154, Note_on_c, 0, 66, 74
1, 261156, Note_on_c, 0, 62, 59
1, 261157, Note_on_c, 0, 89, 83
1, 261192, Note_off_c, 0, 66, 59
1, 261192, Note_off_c, 0, 89, 62
1, 261195, Note_off_c, 0, 62, 61
1, 261206, Note_on_c, 0, 97, 58
1, 261249, Note_on_c, 0, 89, 62
1, 261264, Note_off_c, 0, 97, 65
1, 261283, Note_on_c, 0, 57, 67
1, 261286, Note_off_c, 0, 89, 67
1, 261307, Note_on_c, 0, 90, 72
1, 261321, Note_on_c, 0, 98, 76
1, 261333, Note_off_c, 0, 90, 67
1, 261342, Note_off_c, 0, 57, 54
1, 261385, Note_on_c, 0, 90, 74
1, 261392, Note_off_c, 0, 98, 65
1, 261434, Note_off_c, 0, 90, 64
1, 261451, Note_on_c, 0, 89, 74
1, 261479, Note_off_c, 0, 89, 64
1, 261502, Note_on_c, 0, 92, 72
1, 261562, Note_off_c, 0, 92, 64
1, 261567, Note_on_c, 0, 89, 69
1, 261595, Note_off_c, 0, 89, 66
1, 261622, Note_on_c, 0, 66, 60
1, 261625, Note_on_c, 0, 90, 78
1, 261630, Note_on_c, 0, 62, 49
1, 261644, Note_off_c, 0, 66, 62
1, 261654, Note_off_c, 0, 62, 57
1, 261658, Note_off_c, 0, 90, 67
1, 261673, Note_on_c, 0, 93, 65
1, 261717, Note_on_c, 0, 90, 73
1, 261723, Note_off_c, 0, 93, 63
1, 261748, Note_off_c, 0, 90, 66
1, 261758, Note_on_c, 0, 85, 77
1, 261767, Note_on_c, 0, 50, 64
1, 261795, Note_off_c, 0, 50, 64
1, 261795, Note_off_c, 0, 85, 60
1, 261822, Note_on_c, 0, 89, 78
1, 261868, Note_on_c, 0, 85, 68
1, 261869, Note_off_c, 0, 89, 66
1, 261930, Note_on_c, 0, 86, 71
1, 261932, Note_off_c, 0, 85, 39
1, 261956, Note_off_c, 0, 86, 68
1, 261982, Note_on_c, 0, 90, 71
1, 262040, Note_off_c, 0, 90, 64
1, 262041, Note_on_c, 0, 86, 70
1, 262071, Note_off_c, 0, 86, 64
1, 262082, Note_on_c, 0, 83, 76
1, 262087, Note_on_c, 0, 62, 43
1, 262097, Note_on_c, 0, 66, 54
1, 262115, Note_off_c, 0, 83, 67
1, 262130, Note_off_c, 0, 62, 55
1, 262130, Note_off_c, 0, 66, 62
1, 262152, Note_on_c, 0, 86, 75
1, 262209, Control_c, 0, 64, 55
1, 262214, Note_on_c, 0, 83, 82
1, 262214, Note_off_c, 0, 86, 63
1, 262224, Control_c, 0, 64, 64
1, 262239, Control_c, 0, 64, 69
1, 262253, Control_c, 0, 64, 75
1, 262272, Note_on_c, 0, 57, 47
1, 262275, Control_c, 0, 64, 81
1, 262286, Note_off_c, 0, 83, 61
1, 262290, Control_c, 0, 64, 85
1, 262299, Note_on_c, 0, 85, 74
1, 262305, Control_c, 0, 64, 88
1, 262308, Note_on_c, 0, 81, 70
1, 262320, Control_c, 0, 64, 91
1, 262334, Control_c, 0, 64, 94
1, 262350, Control_c, 0, 64, 97
1, 262359, Note_on_c, 0, 86, 78
1, 262365, Note_off_c, 0, 81, 61
1, 262365, Note_off_c, 0, 85, 65
1, 262365, Control_c, 0, 64, 99
1, 262372, Note_on_c, 0, 83, 84
1, 262380, Control_c, 0, 64, 100
1, 262395, Control_c, 0, 64, 101
1, 262410, Control_c, 0, 64, 102
1, 262424, Control_c, 0, 64, 102
1, 262439, Control_c, 0, 64, 103
1, 262446, Note_off_c, 0, 83, 68
1, 262447, Note_on_c, 0, 81, 83
1, 262450, Note_on_c, 0, 85, 84
1, 262451, Note_off_c, 0, 86, 64
1, 262454, Control_c, 0, 64, 103
1, 262469, Control_c, 0, 64, 104
1, 262470, Note_off_c, 0, 81, 68
1, 262471, Note_off_c, 0, 85, 72
1, 262483, Control_c, 0, 64, 104
1, 262498, Control_c, 0, 64, 105
1, 262513, Control_c, 0, 64, 106
1, 262525, Note_on_c, 0, 83, 91
1, 262528, Control_c, 0, 64, 107
1, 262531, Note_on_c, 0, 79, 79
1, 262543, Control_c, 0, 64, 107
1, 262555, Note_off_c, 0, 79, 66
1, 262558, Control_c, 0, 64, 109
1, 262573, Control_c, 0, 64, 111
1, 262588, Control_c, 0, 64, 114
1, 262597, Note_off_c, 0, 57, 41
1, 262599, Note_off_c, 0, 83, 40
1, 262602, Control_c, 0, 64, 120
1, 262606, Note_on_c, 0, 78, 88
1, 262608, Note_on_c, 0, 82, 78
1, 262617, Note_on_c, 0, 64, 51
1, 262617, Control_c, 0, 64, 127
1, 262623, Note_on_c, 0, 69, 65
1, 262626, Note_off_c, 0, 78, 71
1, 262632, Note_off_c, 0, 82, 65
1, 262638, Note_off_c, 0, 64, 61
1, 262680, Note_on_c, 0, 79, 85
1, 262681, Note_on_c, 0, 83, 96
1, 262704, Note_off_c, 0, 79, 70
1, 262716, Note_off_c, 0, 69, 63
1, 262717, Note_off_c, 0, 83, 70
1, 262756, Note_on_c, 0, 68, 83
1, 262793, Control_c, 0, 64, 110
1, 262803, Note_off_c, 0, 68, 60
1, 262808, Control_c, 0, 64, 92
1, 262823, Control_c, 0, 64, 77
1, 262827, Note_on_c, 0, 69, 80
1, 262838, Control_c, 0, 64, 62
1, 262853, Control_c, 0, 64, 0
1, 262884, Note_off_c, 0, 69, 62
1, 262909, Note_on_c, 0, 61, 64
1, 262909, Note_on_c, 0, 64, 63
1, 262944, Note_off_c, 0, 64, 66
1, 262952, Note_off_c, 0, 61, 59
1, 262987, Note_on_c, 0, 69, 66
1, 263028, Note_off_c, 0, 69, 65
1, 263072, Note_on_c, 0, 64, 50
1, 263078, Note_on_c, 0, 61, 43
1, 263097, Note_off_c, 0, 64, 61
1, 263106, Note_off_c, 0, 61, 57
1, 263133, Note_on_c, 0, 69, 63
1, 263167, Note_off_c, 0, 69, 65
1, 263206, Note_on_c, 0, 57, 63
1, 263238, Note_off_c, 0, 57, 61
1, 263349, Note_on_c, 0, 88, 56
1, 263371, Note_off_c, 0, 88, 60
1, 263392, Note_on_c, 0, 97, 73
1, 263438, Note_on_c, 0, 88, 74
1, 263442, Note_off_c, 0, 97, 60
1, 263482, Note_on_c, 0, 64, 47
1, 263487, Note_off_c, 0, 88, 65
1, 263489, Note_on_c, 0, 61, 55
1, 263506, Note_off_c, 0, 64, 56
1, 263508, Note_on_c, 0, 89, 74
1, 263515, Note_off_c, 0, 61, 62
1, 263520, Note_on_c, 0, 98, 67
1, 263532, Note_off_c, 0, 89, 69
1, 263579, Note_off_c, 0, 98, 57
1, 263584, Note_on_c, 0, 89, 70
1, 263614, Note_off_c, 0, 89, 68
1, 263628, Note_on_c, 0, 50, 65
1, 263631, Note_on_c, 0, 90, 77
1, 263661, Note_off_c, 0, 50, 65
1, 263661, Note_off_c, 0, 90, 68
1, 263693, Note_on_c, 0, 99, 78
1, 263737, Note_on_c, 0, 90, 64
1, 263754, Note_off_c, 0, 99, 64
1, 263771, Note_off_c, 0, 90, 67
1, 263787, Note_on_c, 0, 91, 79
1, 263825, Note_off_c, 0, 91, 64
1, 263852, Note_on_c, 0, 100, 83
1, 263892, Note_on_c, 0, 91, 69
1, 263896, Note_off_c, 0, 100, 66
1, 263928, Note_off_c, 0, 91, 65
1, 263950, Note_on_c, 0, 64, 62
1, 263951, Note_on_c, 0, 61, 64
1, 263971, Note_on_c, 0, 87, 74
1, 263989, Note_on_c, 0, 96, 79
1, 263995, Note_off_c, 0, 87, 71
1, 263996, Note_off_c, 0, 64, 54
1, 264045, Note_off_c, 0, 96, 64
1, 264049, Note_on_c, 0, 87, 76
1, 264077, Note_off_c, 0, 61, 32
1, 264084, Note_on_c, 0, 57, 66
1, 264091, Note_off_c, 0, 87, 66
1, 264118, Note_on_c, 0, 88, 69
1, 264146, Note_off_c, 0, 88, 68
1, 264147, Note_on_c, 0, 97, 77
1, 264203, Note_on_c, 0, 88, 76
1, 264212, Note_off_c, 0, 97, 64
1, 264257, Note_off_c, 0, 88, 65
1, 264269, Note_on_c, 0, 87, 68
1, 264296, Note_off_c, 0, 87, 68
1, 264301, Note_on_c, 0, 90, 72
1, 264360, Note_on_c, 0, 87, 73
1, 264376, Note_off_c, 0, 90, 64
1, 264377, Note_off_c, 0, 57, 32
1, 264405, Note_off_c, 0, 87, 65
1, 264424, Note_on_c, 0, 88, 72
1, 264427, Note_on_c, 0, 64, 46
1, 264429, Note_on_c, 0, 61, 59
1, 264450, Note_off_c, 0, 64, 57
1, 264450, Note_off_c, 0, 88, 66
1, 264457, Note_off_c, 0, 61, 65
1, 264478, Note_on_c, 0, 91, 52
1, 264529, Note_off_c, 0, 91, 65
1, 264531, Note_on_c, 0, 88, 75
1, 264577, Note_on_c, 0, 50, 62
1, 264580, Note_off_c, 0, 88, 66
1, 264597, Note_on_c, 0, 84, 68
1, 264609, Note_off_c, 0, 50, 65
1, 264626, Note_off_c, 0, 84, 67
1, 264658, Note_on_c, 0, 87, 75
1, 264692, Note_off_c, 0, 87, 65
1, 264702, Note_on_c, 0, 84, 59
1, 264740, Note_off_c, 0, 84, 65
1, 264762, Note_on_c, 0, 85, 75
1, 264801, Note_off_c, 0, 85, 63
1, 264814, Note_on_c, 0, 88, 65
1, 264867, Note_on_c, 0, 85, 64
1, 264867, Note_off_c, 0, 88, 66
1, 264915, Note_off_c, 0, 85, 62
1, 264929, Note_on_c, 0, 61, 47
1, 264929, Note_on_c, 0, 64, 47
1, 264931, Note_on_c, 0, 69, 48
1, 264932, Note_on_c, 0, 81, 73
1, 264953, Note_off_c, 0, 64, 57
1, 264960, Note_off_c, 0, 69, 55
1, 264962, Note_off_c, 0, 61, 61
1, 264971, Note_off_c, 0, 81, 61
1, 264996, Note_on_c, 0, 85, 68
1, 265053, Note_off_c, 0, 85, 63
1, 265065, Note_on_c, 0, 81, 76
1, 265118, Note_off_c, 0, 81, 61
1, 265136, Note_on_c, 0, 83, 77
1, 265137, Note_on_c, 0, 57, 52
1, 265154, Note_on_c, 0, 79, 59
1, 265184, Note_off_c, 0, 79, 62
1, 265201, Note_off_c, 0, 83, 66
1, 265209, Note_on_c, 0, 85, 71
1, 265221, Note_on_c, 0, 81, 79
1, 265270, Control_c, 0, 64, 52
1, 265279, Note_off_c, 0, 85, 62
1, 265285, Control_c, 0, 64, 64
1, 265288, Note_off_c, 0, 81, 64
1, 265294, Note_on_c, 0, 79, 72
1, 265300, Note_on_c, 0, 83, 62
1, 265300, Control_c, 0, 64, 70
1, 265315, Control_c, 0, 64, 77
1, 265319, Note_off_c, 0, 83, 66
1, 265330, Control_c, 0, 64, 85
1, 265332, Note_off_c, 0, 79, 63
1, 265345, Control_c, 0, 64, 92
1, 265360, Control_c, 0, 64, 100
1, 265375, Control_c, 0, 64, 109
1, 265375, Note_on_c, 0, 78, 84
1, 265380, Note_on_c, 0, 81, 90
1, 265390, Control_c, 0, 64, 127
1, 265427, Note_off_c, 0, 78, 50
1, 265440, Note_off_c, 0, 81, 55
1, 265446, Note_off_c, 0, 57, 43
1, 265453, Note_on_c, 0, 80, 84
1, 265456, Note_on_c, 0, 66, 73
1, 265459, Note_on_c, 0, 77, 76
1, 265467, Note_on_c, 0, 62, 58
1, 265480, Note_off_c, 0, 66, 68
1, 265488, Note_off_c, 0, 77, 63
1, 265497, Note_off_c, 0, 62, 63
1, 265508, Note_off_c, 0, 80, 65
1, 265524, Note_on_c, 0, 81, 96
1, 265528, Note_on_c, 0, 78, 81
1, 265549, Note_off_c, 0, 78, 73
1, 265557, Note_off_c, 0, 81, 63
1, 265610, Note_on_c, 0, 50, 70
1, 265637, Note_off_c, 0, 50, 63
1, 265657, Control_c, 0, 64, 111
1, 265672, Control_c, 0, 64, 91
1, 265687, Control_c, 0, 64, 74
1, 265701, Control_c, 0, 64, 0
1, 265782, Note_on_c, 0, 69, 60
1, 265783, Note_on_c, 0, 66, 64
1, 265783, Note_on_c, 0, 90, 71
1, 265788, Note_on_c, 0, 86, 51
1, 265804, Note_on_c, 0, 62, 33
1, 265810, Note_off_c, 0, 86, 59
1, 265813, Note_off_c, 0, 66, 64
1, 265814, Note_off_c, 0, 69, 65
1, 265816, Note_off_c, 0, 90, 64
1, 265834, Note_off_c, 0, 62, 49
1, 265839, Note_on_c, 0, 93, 69
1, 265887, Note_off_c, 0, 93, 48
1, 265907, Note_on_c, 0, 91, 75
1, 265916, Note_on_c, 0, 66, 58
1, 265923, Note_on_c, 0, 62, 44
1, 265923, Note_on_c, 0, 88, 57
1, 265932, Note_on_c, 0, 69, 34
1, 265949, Note_off_c, 0, 88, 66
1, 265951, Note_off_c, 0, 66, 65
1, 265954, Note_off_c, 0, 62, 61
1, 265959, Note_off_c, 0, 91, 63
1, 265961, Note_off_c, 0, 69, 49
1, 266004, Note_on_c, 0, 95, 63
1, 266030, Note_off_c, 0, 95, 61
1, 266074, Note_on_c, 0, 95, 88
1, 266076, Note_on_c, 0, 57, 63
1, 266082, Note_on_c, 0, 91, 73
1, 266108, Note_off_c, 0, 91, 67
1, 266134, Note_off_c, 0, 57, 55
1, 266140, Note_off_c, 0, 95, 62
1, 266157, Note_on_c, 0, 90, 78
1, 266157, Note_on_c, 0, 93, 74
1, 266186, Note_off_c, 0, 90, 64
1, 266203, Note_off_c, 0, 93, 58
1, 266233, Note_on_c, 0, 66, 67
1, 266242, Note_on_c, 0, 86, 67
1, 266244, Note_on_c, 0, 62, 42
1, 266247, Note_on_c, 0, 90, 56
1, 266253, Note_on_c, 0, 69, 25
1, 266269, Note_off_c, 0, 66, 65
1, 266270, Note_off_c, 0, 86, 67
1, 266276, Note_off_c, 0, 62, 55
1, 266280, Note_off_c, 0, 90, 65
1, 266282, Note_off_c, 0, 69, 46
1, 266305, Note_on_c, 0, 93, 76
1, 266340, Note_off_c, 0, 93, 52
1, 266378, Note_on_c, 0, 91, 72
1, 266384, Note_on_c, 0, 88, 57
1, 266386, Note_on_c, 0, 62, 51
1, 266404, Note_on_c, 0, 66, 34
1, 266415, Note_off_c, 0, 88, 67
1, 266417, Note_off_c, 0, 62, 64
1, 266434, Note_off_c, 0, 91, 63
1, 266440, Note_off_c, 0, 66, 53
1, 266447, Note_on_c, 0, 95, 75
1, 266472, Note_off_c, 0, 95, 67
1, 266517, Note_on_c, 0, 95, 94
1, 266525, Note_on_c, 0, 50, 76
1, 266529, Note_on_c, 0, 91, 82
1, 266548, Note_off_c, 0, 50, 67
1, 266558, Note_off_c, 0, 91, 67
1, 266587, Note_off_c, 0, 95, 56
1, 266607, Note_on_c, 0, 93, 73
1, 266609, Note_on_c, 0, 90, 82
1, 266648, Note_off_c, 0, 93, 56
1, 266658, Note_off_c, 0, 90, 65
1, 266688, Note_on_c, 0, 86, 81
1, 266689, Note_on_c, 0, 66, 77
1, 266692, Note_on_c, 0, 69, 70
1, 266700, Note_on_c, 0, 62, 57
1, 266729, Note_off_c, 0, 69, 61
1, 266735, Note_off_c, 0, 86, 65
1, 266742, Note_off_c, 0, 62, 58
1, 266742, Note_off_c, 0, 66, 62
1, 266759, Note_on_c, 0, 93, 73
1, 266820, Note_off_c, 0, 93, 61
1, 266825, Note_on_c, 0, 91, 83
1, 266830, Note_on_c, 0, 88, 61
1, 266844, Note_on_c, 0, 62, 52
1, 266844, Note_on_c, 0, 69, 64
1, 266848, Note_on_c, 0, 66, 72
1, 266856, Note_off_c, 0, 88, 66
1, 266878, Note_off_c, 0, 91, 66
1, 266885, Note_off_c, 0, 69, 61
1, 266888, Note_off_c, 0, 62, 59
1, 266892, Note_off_c, 0, 66, 58
1, 266902, Note_on_c, 0, 94, 94
1, 266940, Note_off_c, 0, 94, 61
1, 266979, Note_on_c, 0, 90, 92
1, 266981, Note_on_c, 0, 93, 91
1, 266982, Note_on_c, 0, 58, 77
1, 267005, Control_c, 0, 64, 83
1, 267008, Note_off_c, 0, 90, 66
1, 267018, Note_off_c, 0, 93, 66
1, 267020, Control_c, 0, 64, 127
1, 267068, Note_on_c, 0, 88, 86
1, 267075, Note_on_c, 0, 91, 80
1, 267077, Note_off_c, 0, 58, 57
1, 267097, Note_off_c, 0, 91, 71
1, 267119, Note_off_c, 0, 88, 0
1, 267138, Note_on_c, 0, 70, 80
1, 267138, Note_on_c, 0, 91, 91
1, 267140, Note_on_c, 0, 62, 64
1, 267157, Poly_aftertouch_c, 0, 88, 127
1, 267169, Poly_aftertouch_c, 0, 88, 0
1, 267175, Note_off_c, 0, 70, 60
1, 267188, Note_off_c, 0, 62, 52
1, 267217, Note_on_c, 0, 90, 94
1, 267217, Note_on_c, 0, 87, 91
1, 267218, Poly_aftertouch_c, 0, 67, 0
1, 267220, Note_off_c, 0, 91, 66
1, 267236, Note_off_c, 0, 87, 74
1, 267238, Note_off_c, 0, 90, 69
1, 267272, Note_on_c, 0, 70, 84
1, 267272, Note_on_c, 0, 91, 99
1, 267274, Note_on_c, 0, 88, 96
1, 267287, Note_on_c, 0, 62, 61
1, 267289, Note_off_c, 0, 70, 74
1, 267290, Note_off_c, 0, 88, 75
1, 267291, Note_off_c, 0, 91, 69
1, 267315, Note_off_c, 0, 62, 64
1, 267420, Note_on_c, 0, 50, 59
1, 267444, Note_off_c, 0, 50, 60
1, 267465, Control_c, 0, 64, 109
1, 267480, Control_c, 0, 64, 89
1, 267495, Control_c, 0, 64, 69
1, 267517, Control_c, 0, 64, 0
1, 267558, Note_on_c, 0, 76, 77
1, 267587, Note_on_c, 0, 70, 67
1, 267590, Note_on_c, 0, 61, 57
1, 267598, Note_on_c, 0, 67, 46
1, 267611, Note_off_c, 0, 76, 63
1, 267616, Note_off_c, 0, 70, 64
1, 267625, Note_on_c, 0, 79, 68
1, 267628, Note_off_c, 0, 61, 63
1, 267640, Note_off_c, 0, 67, 59
1, 267684, Note_off_c, 0, 79, 51
1, 267706, Note_on_c, 0, 78, 70
1, 267711, Note_on_c, 0, 75, 51
1, 267713, Note_on_c, 0, 61, 57
1, 267717, Note_on_c, 0, 70, 45
1, 267731, Note_off_c, 0, 78, 67
1, 267734, Note_off_c, 0, 75, 58
1, 267750, Note_off_c, 0, 70, 60
1, 267758, Note_off_c, 0, 61, 60
1, 267769, Control_c, 0, 67, 8
1, 267779, Note_on_c, 0, 81, 82
1, 267784, Control_c, 0, 67, 12
1, 267798, Control_c, 0, 67, 14
1, 267807, Note_off_c, 0, 81, 64
1, 267813, Control_c, 0, 64, 55
1, 267813, Control_c, 0, 67, 16
1, 267828, Control_c, 0, 64, 70
1, 267828, Control_c, 0, 67, 19
1, 267843, Control_c, 0, 64, 81
1, 267843, Control_c, 0, 67, 22
1, 267853, Note_on_c, 0, 81, 87
1, 267855, Note_on_c, 0, 78, 67
1, 267858, Control_c, 0, 64, 94
1, 267858, Control_c, 0, 67, 25
1, 267861, Note_on_c, 0, 58, 65
1, 267873, Control_c, 0, 64, 101
1, 267873, Control_c, 0, 67, 30
1, 267888, Control_c, 0, 64, 102
1, 267888, Control_c, 0, 67, 33
1, 267888, Note_off_c, 0, 78, 64
1, 267900, Note_off_c, 0, 81, 63
1, 267902, Control_c, 0, 67, 35
1, 267917, Control_c, 0, 64, 101
1, 267917, Control_c, 0, 67, 36
1, 267932, Control_c, 0, 64, 96
1, 267939, Note_on_c, 0, 79, 87
1, 267946, Note_on_c, 0, 76, 59
1, 267947, Note_off_c, 0, 58, 53
1, 267948, Control_c, 0, 64, 88
1, 267962, Control_c, 0, 64, 78
1, 267962, Control_c, 0, 67, 37
1, 267971, Note_off_c, 0, 76, 66
1, 267977, Control_c, 0, 64, 67
1, 267984, Note_off_c, 0, 79, 63
1, 267992, Control_c, 0, 64, 0
1, 267992, Control_c, 0, 67, 38
1, 268007, Control_c, 0, 67, 39
1, 268016, Note_on_c, 0, 70, 63
1, 268022, Control_c, 0, 67, 41
1, 268024, Note_on_c, 0, 76, 84
1, 268025, Note_on_c, 0, 61, 54
1, 268037, Note_on_c, 0, 73, 55
1, 268037, Control_c, 0, 67, 43
1, 268052, Control_c, 0, 67, 44
1, 268055, Note_off_c, 0, 70, 59
1, 268058, Note_off_c, 0, 73, 60
1, 268066, Control_c, 0, 67, 46
1, 268070, Note_off_c, 0, 61, 59
1, 268070, Note_off_c, 0, 76, 63
1, 268081, Control_c, 0, 67, 49
1, 268088, Note_on_c, 0, 79, 61
1, 268096, Control_c, 0, 67, 54
1, 268111, Control_c, 0, 67, 61
1, 268126, Control_c, 0, 67, 70
1, 268140, Control_c, 0, 67, 79
1, 268154, Note_off_c, 0, 79, 64
1, 268155, Control_c, 0, 67, 87
1, 268158, Note_on_c, 0, 78, 71
1, 268160, Note_on_c, 0, 61, 57
1, 268163, Note_on_c, 0, 75, 56
1, 268170, Control_c, 0, 67, 94
1, 268183, Note_off_c, 0, 75, 62
1, 268184, Note_off_c, 0, 78, 66
1, 268185, Control_c, 0, 67, 101
1, 268192, Note_off_c, 0, 61, 65
1, 268200, Control_c, 0, 67, 107
1, 268214, Control_c, 0, 67, 113
1, 268229, Control_c, 0, 67, 117
1, 268237, Note_on_c, 0, 81, 83
1, 268244, Control_c, 0, 67, 120
1, 268266, Control_c, 0, 67, 121
1, 268272, Note_off_c, 0, 81, 65
1, 268281, Control_c, 0, 67, 122
1, 268296, Control_c, 0, 64, 57
1, 268296, Control_c, 0, 67, 123
1, 268311, Control_c, 0, 64, 73
1, 268311, Control_c, 0, 67, 124
1, 268319, Note_on_c, 0, 81, 94
1, 268320, Note_on_c, 0, 50, 68
1, 268324, Note_on_c, 0, 78, 81
1, 268326, Control_c, 0, 64, 88
1, 268326, Control_c, 0, 67, 126
1, 268340, Control_c, 0, 64, 115
1, 268340, Control_c, 0, 67, 127
1, 268347, Note_off_c, 0, 50, 66
1, 268355, Control_c, 0, 64, 127
1, 268365, Note_off_c, 0, 78, 61
1, 268388, Note_off_c, 0, 81, 47
1, 268406, Note_on_c, 0, 79, 80
1, 268412, Note_on_c, 0, 76, 73
1, 268414, Control_c, 0, 64, 112
1, 268429, Control_c, 0, 64, 94
1, 268436, Note_off_c, 0, 76, 67
1, 268444, Control_c, 0, 64, 79
1, 268453, Note_off_c, 0, 79, 62
1, 268459, Control_c, 0, 64, 65
1, 268474, Control_c, 0, 64, 0
1, 268481, Note_on_c, 0, 76, 78
1, 268494, Note_on_c, 0, 73, 64
1, 268496, Note_on_c, 0, 64, 55
1, 268497, Note_on_c, 0, 61, 55
1, 268506, Note_on_c, 0, 69, 49
1, 268523, Note_off_c, 0, 73, 66
1, 268534, Note_off_c, 0, 64, 62
1, 268536, Note_off_c, 0, 61, 60
1, 268536, Note_off_c, 0, 69, 60
1, 268545, Note_off_c, 0, 76, 64
1, 268555, Note_on_c, 0, 79, 73
1, 268623, Note_off_c, 0, 79, 62
1, 268627, Note_on_c, 0, 73, 60
1, 268630, Note_on_c, 0, 76, 71
1, 268636, Note_on_c, 0, 61, 43
1, 268637, Note_on_c, 0, 69, 43
1, 268645, Note_on_c, 0, 64, 48
1, 268657, Note_off_c, 0, 73, 66
1, 268666, Note_off_c, 0, 76, 63
1, 268681, Note_off_c, 0, 61, 59
1, 268686, Note_off_c, 0, 64, 61
1, 268689, Note_off_c, 0, 69, 56
1, 268702, Note_on_c, 0, 81, 84
1, 268773, Note_on_c, 0, 76, 78
1, 268776, Note_on_c, 0, 57, 62
1, 268780, Note_on_c, 0, 79, 75
1, 268792, Note_off_c, 0, 81, 52
1, 268812, Note_off_c, 0, 76, 61
1, 268850, Note_off_c, 0, 79, 61
1, 268865, Note_on_c, 0, 78, 61
1, 268866, Note_on_c, 0, 74, 55
1, 268875, Control_c, 0, 64, 41
1, 268875, Control_c, 0, 67, 127
1, 268884, Note_off_c, 0, 78, 64
1, 268887, Note_off_c, 0, 74, 60
1, 268890, Control_c, 0, 64, 63
1, 268890, Control_c, 0, 67, 122
1, 268905, Control_c, 0, 64, 71
1, 268905, Control_c, 0, 67, 117
1, 268919, Control_c, 0, 64, 80
1, 268919, Control_c, 0, 67, 114
1, 268933, Note_on_c, 0, 78, 81
1, 268934, Control_c, 0, 64, 90
1, 268934, Control_c, 0, 67, 111
1, 268935, Note_on_c, 0, 74, 64
1, 268937, Note_on_c, 0, 66, 66
1, 268941, Note_on_c, 0, 69, 54
1, 268943, Note_on_c, 0, 62, 41
1, 268949, Control_c, 0, 64, 101
1, 268949, Control_c, 0, 67, 107
1, 268964, Control_c, 0, 64, 118
1, 268964, Control_c, 0, 67, 103
1, 268966, Note_off_c, 0, 74, 60
1, 268974, Note_off_c, 0, 66, 61
1, 268979, Control_c, 0, 64, 127
1, 268979, Control_c, 0, 67, 97
1, 268985, Note_off_c, 0, 62, 52
1, 268990, Note_off_c, 0, 69, 55
1, 268993, Control_c, 0, 67, 90
1, 269002, Note_off_c, 0, 78, 58
1, 269014, Note_on_c, 0, 73, 75
1, 269015, Note_on_c, 0, 77, 76
1, 269016, Control_c, 0, 67, 84
1, 269031, Control_c, 0, 67, 75
1, 269034, Note_off_c, 0, 57, 19
1, 269040, Note_off_c, 0, 77, 69
1, 269044, Note_off_c, 0, 73, 64
1, 269045, Control_c, 0, 67, 64
1, 269060, Control_c, 0, 67, 51
1, 269075, Control_c, 0, 67, 38
1, 269090, Control_c, 0, 67, 23
1, 269092, Note_on_c, 0, 78, 83
1, 269095, Note_on_c, 0, 62, 69
1, 269100, Note_on_c, 0, 74, 52
1, 269105, Control_c, 0, 67, 14
1, 269119, Control_c, 0, 67, 0
1, 269121, Note_off_c, 0, 74, 61
1, 269123, Note_off_c, 0, 78, 66
1, 269126, Note_off_c, 0, 62, 63
1, 269242, Note_on_c, 0, 50, 74
1, 269267, Note_off_c, 0, 50, 67
1, 269297, Control_c, 0, 67, 8
1, 269312, Control_c, 0, 67, 8
1, 269327, Control_c, 0, 64, 105
1, 269327, Control_c, 0, 67, 9
1, 269342, Control_c, 0, 64, 87
1, 269342, Control_c, 0, 67, 9
1, 269357, Control_c, 0, 64, 69
1, 269371, Control_c, 0, 64, 0
1, 269371, Control_c, 0, 67, 10
1, 269401, Control_c, 0, 67, 10
1, 269403, Note_on_c, 0, 90, 73
1, 269414, Note_on_c, 0, 69, 59
1, 269417, Note_on_c, 0, 66, 63
1, 269417, Note_on_c, 0, 86, 51
1, 269427, Note_on_c, 0, 62, 41
1, 269431, Control_c, 0, 67, 11
1, 269442, Note_off_c, 0, 86, 62
1, 269444, Note_off_c, 0, 90, 57
1, 269446, Note_off_c, 0, 69, 64
1, 269448, Note_off_c, 0, 66, 65
1, 269455, Note_off_c, 0, 62, 55
1, 269470, Note_on_c, 0, 93, 75
1, 269504, Control_c, 0, 67, 11
1, 269519, Control_c, 0, 67, 12
1, 269535, Note_off_c, 0, 93, 58
1, 269535, Control_c, 0, 67, 12
1, 269538, Note_on_c, 0, 91, 80
1, 269543, Note_on_c, 0, 69, 49
1, 269545, Note_on_c, 0, 62, 43
1, 269545, Note_on_c, 0, 66, 61
1, 269555, Note_on_c, 0, 88, 56
1, 269565, Control_c, 0, 67, 13
1, 269580, Note_off_c, 0, 62, 61
1, 269581, Note_off_c, 0, 69, 62
1, 269581, Note_off_c, 0, 88, 67
1, 269584, Note_off_c, 0, 66, 63
1, 269592, Note_off_c, 0, 91, 64
1, 269619, Note_on_c, 0, 95, 72
1, 269637, Note_off_c, 0, 95, 66
1, 269654, Control_c, 0, 67, 12
1, 269682, Note_on_c, 0, 95, 98
1, 269683, Control_c, 0, 64, 28
1, 269683, Control_c, 0, 67, 11
1, 269685, Note_on_c, 0, 57, 66
1, 269698, Control_c, 0, 64, 94
1, 269698, Control_c, 0, 67, 11
1, 269700, Note_on_c, 0, 91, 75
1, 269712, Control_c, 0, 64, 127
1, 269725, Note_off_c, 0, 91, 68
1, 269748, Note_off_c, 0, 95, 64
1, 269777, Note_on_c, 0, 93, 78
1, 269777, Note_off_c, 0, 57, 54
1, 269784, Note_on_c, 0, 90, 76
1, 269808, Note_off_c, 0, 90, 67
1, 269824, Control_c, 0, 64, 109
1, 269826, Note_off_c, 0, 93, 63
1, 269839, Control_c, 0, 64, 85
1, 269854, Control_c, 0, 64, 62
1, 269864, Note_on_c, 0, 69, 48
1, 269865, Note_on_c, 0, 86, 66
1, 269868, Control_c, 0, 64, 0
1, 269879, Note_on_c, 0, 90, 61
1, 269882, Note_on_c, 0, 62, 32
1, 269888, Note_on_c, 0, 66, 38
1, 269892, Note_off_c, 0, 69, 62
1, 269895, Note_off_c, 0, 86, 66
1, 269906, Note_off_c, 0, 90, 67
1, 269916, Note_off_c, 0, 62, 52
1, 269918, Note_off_c, 0, 66, 54
1, 269926, Note_on_c, 0, 93, 80
1, 269927, Control_c, 0, 67, 11
1, 269957, Control_c, 0, 67, 12
1, 269972, Control_c, 0, 67, 13
1, 269986, Control_c, 0, 67, 14
1, 269992, Note_off_c, 0, 93, 59
1, 269992, Note_on_c, 0, 91, 78
1, 269995, Note_on_c, 0, 88, 63
1, 269999, Note_on_c, 0, 62, 63
1, 270006, Note_on_c, 0, 66, 53
1, 270030, Note_off_c, 0, 88, 65
1, 270031, Note_off_c, 0, 66, 60
1, 270034, Note_off_c, 0, 62, 64
1, 270053, Note_off_c, 0, 91, 64
1, 270065, Note_on_c, 0, 95, 80
1, 270087, Note_off_c, 0, 95, 71
1, 270135, Control_c, 0, 67, 13
1, 270139, Note_on_c, 0, 95, 94
1, 270144, Note_on_c, 0, 91, 84
1, 270148, Note_on_c, 0, 50, 73
1, 270150, Control_c, 0, 64, 62
1, 270150, Control_c, 0, 67, 13
1, 270165, Control_c, 0, 64, 124
1, 270165, Control_c, 0, 67, 13
1, 270178, Note_off_c, 0, 50, 66
1, 270180, Control_c, 0, 64, 127
1, 270185, Note_off_c, 0, 91, 65
1, 270194, Control_c, 0, 67, 14
1, 270210, Note_off_c, 0, 95, 60
1, 270223, Note_on_c, 0, 93, 75
1, 270230, Note_on_c, 0, 90, 86
1, 270265, Note_off_c, 0, 93, 61
1, 270278, Note_off_c, 0, 90, 63
1, 270299, Control_c, 0, 64, 95
1, 270300, Note_on_c, 0, 86, 81
1, 270303, Note_on_c, 0, 66, 84
1, 270304, Note_on_c, 0, 69, 78
1, 270313, Note_on_c, 0, 62, 62
1, 270313, Control_c, 0, 64, 70
1, 270313, Control_c, 0, 67, 14
1, 270328, Control_c, 0, 64, 0
1, 270348, Note_off_c, 0, 69, 57
1, 270352, Note_off_c, 0, 86, 64
1, 270358, Note_off_c, 0, 62, 56
1, 270359, Note_off_c, 0, 66, 65
1, 270365, Note_on_c, 0, 93, 79
1, 270421, Note_on_c, 0, 88, 75
1, 270429, Note_on_c, 0, 91, 77
1, 270430, Note_off_c, 0, 93, 63
1, 270445, Note_on_c, 0, 69, 72
1, 270448, Control_c, 0, 67, 15
1, 270449, Note_on_c, 0, 62, 60
1, 270449, Note_on_c, 0, 66, 77
1, 270463, Note_off_c, 0, 88, 66
1, 270484, Note_off_c, 0, 69, 60
1, 270487, Note_off_c, 0, 62, 61
1, 270489, Note_off_c, 0, 91, 62
1, 270505, Note_on_c, 0, 94, 86
1, 270505, Note_off_c, 0, 66, 60
1, 270543, Note_off_c, 0, 94, 61
1, 270544, Control_c, 0, 67, 15
1, 270558, Control_c, 0, 67, 16
1, 270586, Note_on_c, 0, 93, 95
1, 270589, Note_on_c, 0, 90, 84
1, 270594, Note_on_c, 0, 58, 77
1, 270603, Control_c, 0, 67, 15
1, 270608, Note_off_c, 0, 90, 73
1, 270618, Control_c, 0, 64, 101
1, 270618, Control_c, 0, 67, 16
1, 270624, Note_off_c, 0, 93, 66
1, 270633, Control_c, 0, 64, 127
1, 270663, Control_c, 0, 67, 15
1, 270668, Note_on_c, 0, 88, 91
1, 270672, Note_on_c, 0, 91, 89
1, 270687, Note_off_c, 0, 58, 60
1, 270690, Note_off_c, 0, 91, 72
1, 270692, Control_c, 0, 67, 14
1, 270705, Note_off_c, 0, 88, 64
1, 270707, Control_c, 0, 67, 14
1, 270722, Control_c, 0, 67, 13
1, 270743, Note_on_c, 0, 91, 99
1, 270748, Note_on_c, 0, 70, 77
1, 270748, Note_on_c, 0, 88, 69
1, 270749, Note_on_c, 0, 62, 63
1, 270775, Note_off_c, 0, 88, 68
1, 270782, Note_off_c, 0, 70, 62
1, 270796, Control_c, 0, 67, 14
1, 270798, Poly_aftertouch_c, 0, 67, 127
1, 270800, Note_off_c, 0, 62, 54
1, 270821, Note_on_c, 0, 90, 92
1, 270823, Note_on_c, 0, 87, 86
1, 270823, Note_off_c, 0, 91, 67
1, 270841, Note_off_c, 0, 87, 75
1, 270842, Note_off_c, 0, 90, 70
1, 270855, Control_c, 0, 67, 14
1, 270869, Control_c, 0, 67, 16
1, 270871, Note_on_c, 0, 70, 93
1, 270874, Note_on_c, 0, 91, 101
1, 270876, Note_on_c, 0, 88, 85
1, 270879, Poly_aftertouch_c, 0, 67, 0
1, 270881, Note_on_c, 0, 62, 76
1, 270884, Control_c, 0, 67, 16
1, 270895, Note_off_c, 0, 88, 74
1, 270896, Note_off_c, 0, 70, 65
1, 270899, Control_c, 0, 67, 17
1, 270903, Note_off_c, 0, 91, 63
1, 270910, Note_off_c, 0, 62, 66
1, 270916, Poly_aftertouch_c, 0, 67, 127
1, 270943, Control_c, 0, 67, 16
1, 270951, Poly_aftertouch_c, 0, 64, 127
1, 270952, Poly_aftertouch_c, 0, 67, 0
1, 270958, Control_c, 0, 67, 15
1, 270979, Poly_aftertouch_c, 0, 64, 0
1, 271016, Note_on_c, 0, 50, 75
1, 271044, Note_off_c, 0, 50, 68
1, 271047, Control_c, 0, 67, 16
1, 271061, Control_c, 0, 67, 16
1, 271076, Control_c, 0, 67, 17
1, 271091, Control_c, 0, 64, 107
1, 271091, Control_c, 0, 67, 18
1, 271106, Control_c, 0, 64, 84
1, 271106, Control_c, 0, 67, 18
1, 271121, Control_c, 0, 64, 63
1, 271121, Control_c, 0, 67, 19
1, 271137, Control_c, 0, 64, 0
1, 271137, Control_c, 0, 67, 21
1, 271152, Control_c, 0, 67, 24
1, 271159, Note_on_c, 0, 76, 77
1, 271166, Control_c, 0, 67, 30
1, 271174, Note_on_c, 0, 70, 69
1, 271176, Note_on_c, 0, 61, 60
1, 271181, Control_c, 0, 67, 36
1, 271181, Note_on_c, 0, 67, 53
1, 271196, Control_c, 0, 67, 41
1, 271202, Note_off_c, 0, 70, 66
1, 271211, Note_off_c, 0, 76, 65
1, 271211, Control_c, 0, 67, 47
1, 271217, Note_off_c, 0, 61, 60
1, 271221, Note_on_c, 0, 79, 72
1, 271226, Control_c, 0, 67, 52
1, 271227, Note_off_c, 0, 67, 59
1, 271240, Control_c, 0, 67, 60
1, 271262, Control_c, 0, 67, 69
1, 271277, Control_c, 0, 67, 78
1, 271292, Control_c, 0, 67, 84
1, 271296, Note_off_c, 0, 79, 61
1, 271304, Note_on_c, 0, 75, 61
1, 271307, Note_on_c, 0, 78, 68
1, 271307, Control_c, 0, 67, 90
1, 271310, Note_on_c, 0, 70, 59
1, 271317, Note_on_c, 0, 61, 58
1, 271322, Control_c, 0, 67, 95
1, 271323, Note_off_c, 0, 75, 64
1, 271332, Note_off_c, 0, 78, 67
1, 271336, Control_c, 0, 67, 101
1, 271342, Note_off_c, 0, 70, 64
1, 271351, Control_c, 0, 67, 105
1, 271356, Note_off_c, 0, 61, 62
1, 271366, Control_c, 0, 67, 108
1, 271378, Note_on_c, 0, 81, 82
1, 271381, Control_c, 0, 67, 110
1, 271396, Control_c, 0, 67, 110
1, 271410, Note_off_c, 0, 81, 63
1, 271411, Control_c, 0, 67, 111
1, 271440, Control_c, 0, 64, 71
1, 271440, Control_c, 0, 67, 112
1, 271450, Note_on_c, 0, 81, 82
1, 271453, Note_on_c, 0, 78, 61
1, 271455, Control_c, 0, 64, 99
1, 271455, Control_c, 0, 67, 113
1, 271456, Note_on_c, 0, 58, 66
1, 271470, Control_c, 0, 64, 127
1, 271470, Control_c, 0, 67, 114
1, 271475, Poly_aftertouch_c, 0, 67, 0
1, 271485, Control_c, 0, 67, 114
1, 271493, Note_off_c, 0, 78, 65
1, 271494, Note_off_c, 0, 81, 64
1, 271499, Control_c, 0, 67, 115
1, 271512, Poly_aftertouch_c, 0, 67, 127
1, 271514, Control_c, 0, 67, 115
1, 271534, Note_on_c, 0, 79, 85
1, 271539, Note_off_c, 0, 58, 58
1, 271540, Note_on_c, 0, 76, 57
1, 271559, Control_c, 0, 64, 111
1, 271566, Note_off_c, 0, 76, 67
1, 271573, Control_c, 0, 64, 91
1, 271573, Control_c, 0, 67, 116
1, 271581, Note_off_c, 0, 79, 63
1, 271588, Control_c, 0, 64, 72
1, 271588, Control_c, 0, 67, 116
1, 271603, Control_c, 0, 64, 0
1, 271603, Control_c, 0, 67, 117
1, 271618, Control_c, 0, 67, 118
1, 271619, Note_on_c, 0, 76, 82
1, 271623, Note_on_c, 0, 70, 63
1, 271630, Note_on_c, 0, 61, 55
1, 271632, Note_on_c, 0, 73, 50
1, 271632, Control_c, 0, 67, 119
1, 271641, Poly_aftertouch_c, 0, 67, 0
1, 271647, Control_c, 0, 67, 119
1, 271655, Note_off_c, 0, 73, 59
1, 271661, Note_off_c, 0, 70, 59
1, 271662, Control_c, 0, 67, 120
1, 271667, Note_off_c, 0, 76, 62
1, 271670, Note_off_c, 0, 61, 61
1, 271677, Control_c, 0, 67, 122
1, 271685, Note_on_c, 0, 79, 65
1, 271691, Control_c, 0, 67, 124
1, 271706, Control_c, 0, 67, 126
1, 271721, Control_c, 0, 67, 127
1, 271748, Note_off_c, 0, 79, 64
1, 271751, Note_on_c, 0, 78, 73
1, 271754, Note_on_c, 0, 75, 62
1, 271756, Note_on_c, 0, 61, 61
1, 271772, Note_off_c, 0, 75, 65
1, 271781, Note_off_c, 0, 78, 64
1, 271787, Note_off_c, 0, 61, 66
1, 271828, Note_on_c, 0, 81, 87
1, 271858, Note_off_c, 0, 81, 66
1, 271884, Control_c, 0, 64, 60
1, 271899, Control_c, 0, 64, 69
1, 271901, Note_on_c, 0, 81, 94
1, 271909, Note_on_c, 0, 50, 60
1, 271914, Control_c, 0, 64, 79
1, 271917, Note_on_c, 0, 78, 74
1, 271930, Control_c, 0, 64, 88
1, 271933, Note_off_c, 0, 50, 60
1, 271942, Note_off_c, 0, 78, 68
1, 271945, Control_c, 0, 64, 91
1, 271982, Note_off_c, 0, 81, 42
1, 271989, Control_c, 0, 64, 91
1, 271992, Note_on_c, 0, 76, 74
1, 271992, Note_on_c, 0, 79, 79
1, 272011, Control_c, 0, 64, 87
1, 272023, Note_off_c, 0, 76, 69
1, 272026, Control_c, 0, 64, 80
1, 272040, Note_off_c, 0, 79, 57
1, 272041, Control_c, 0, 64, 69
1, 272056, Control_c, 0, 64, 0
1, 272076, Note_on_c, 0, 76, 81
1, 272085, Note_on_c, 0, 73, 60
1, 272094, Note_on_c, 0, 69, 64
1, 272100, Note_on_c, 0, 64, 56
1, 272103, Note_on_c, 0, 61, 54
1, 272109, Note_off_c, 0, 73, 66
1, 272129, Note_off_c, 0, 69, 61
1, 272135, Note_off_c, 0, 64, 62
1, 272139, Note_off_c, 0, 61, 62
1, 272141, Note_off_c, 0, 76, 62
1, 272152, Note_on_c, 0, 79, 74
1, 272204, Control_c, 0, 67, 124
1, 272218, Note_off_c, 0, 79, 59
1, 272219, Control_c, 0, 67, 115
1, 272225, Note_on_c, 0, 73, 65
1, 272228, Note_on_c, 0, 76, 68
1, 272233, Control_c, 0, 67, 103
1, 272234, Note_on_c, 0, 61, 55
1, 272237, Note_on_c, 0, 64, 50
1, 272248, Control_c, 0, 67, 86
1, 272249, Note_on_c, 0, 69, 46
1, 272251, Note_off_c, 0, 73, 67
1, 272263, Control_c, 0, 67, 64
1, 272266, Note_off_c, 0, 76, 60
1, 272278, Control_c, 0, 67, 40
1, 272284, Note_off_c, 0, 64, 58
1, 272290, Note_off_c, 0, 69, 60
1, 272292, Note_off_c, 0, 61, 54
1, 272293, Control_c, 0, 67, 18
1, 272296, Note_on_c, 0, 81, 83
1, 272307, Control_c, 0, 67, 0
1, 272371, Note_on_c, 0, 76, 73
1, 272372, Note_on_c, 0, 57, 65
1, 272372, Note_on_c, 0, 79, 75
1, 272386, Note_off_c, 0, 81, 54
1, 272404, Note_off_c, 0, 76, 61
1, 272445, Note_off_c, 0, 79, 63
1, 272448, Note_on_c, 0, 74, 69
1, 272455, Note_on_c, 0, 78, 65
1, 272455, Control_c, 0, 64, 63
1, 272470, Control_c, 0, 64, 76
1, 272472, Note_off_c, 0, 74, 68
1, 272478, Note_off_c, 0, 78, 65
1, 272484, Control_c, 0, 64, 84
1, 272499, Control_c, 0, 64, 87
1, 272514, Control_c, 0, 64, 91
1, 272523, Note_on_c, 0, 74, 75
1, 272526, Note_on_c, 0, 62, 52
1, 272526, Note_on_c, 0, 78, 83
1, 272529, Note_on_c, 0, 66, 68
1, 272529, Note_on_c, 0, 69, 65
1, 272529, Control_c, 0, 64, 100
1, 272544, Control_c, 0, 64, 127
1, 272569, Note_off_c, 0, 78, 50
1, 272570, Note_off_c, 0, 66, 57
1, 272571, Note_off_c, 0, 62, 57
1, 272576, Note_off_c, 0, 69, 54
1, 272603, Note_on_c, 0, 77, 78
1, 272609, Note_on_c, 0, 73, 72
1, 272610, Note_off_c, 0, 74, 59
1, 272646, Note_off_c, 0, 77, 61
1, 272663, Note_off_c, 0, 73, 60
1, 272674, Note_off_c, 0, 57, 55
1, 272687, Note_on_c, 0, 66, 85
1, 272688, Note_on_c, 0, 74, 66
1, 272692, Note_on_c, 0, 69, 59
1, 272696, Note_on_c, 0, 78, 82
1, 272697, Note_on_c, 0, 62, 69
1, 272709, Note_off_c, 0, 74, 68
1, 272717, Note_off_c, 0, 69, 55
1, 272728, Note_off_c, 0, 78, 64
1, 272729, Note_off_c, 0, 66, 63
1, 272733, Note_off_c, 0, 62, 61
1, 272871, Note_on_c, 0, 93, 80
1, 272890, Note_on_c, 0, 95, 66
1, 272910, Note_off_c, 0, 93, 60
1, 272917, Note_off_c, 0, 95, 64
1, 272921, Note_on_c, 0, 97, 79
1, 272928, Note_on_c, 0, 98, 93
1, 272937, Note_on_c, 0, 50, 89
1, 272940, Note_on_c, 0, 90, 96
1, 272952, Note_off_c, 0, 97, 66
1, 272955, Note_off_c, 0, 98, 66
1, 272961, Note_off_c, 0, 90, 66
1, 272980, Note_off_c, 0, 50, 65
1, 273116, Note_on_c, 0, 79, 66
1, 273130, Control_c, 0, 64, 87
1, 273134, Note_on_c, 0, 78, 83
1, 273137, Note_off_c, 0, 79, 66
1, 273144, Control_c, 0, 64, 63
1, 273159, Control_c, 0, 64, 0
1, 273179, Note_off_c, 0, 78, 65
1, 273195, Note_on_c, 0, 76, 71
1, 273265, Note_on_c, 0, 78, 82
1, 273268, Note_on_c, 0, 69, 78
1, 273269, Note_on_c, 0, 62, 72
1, 273275, Note_off_c, 0, 76, 60
1, 273305, Note_off_c, 0, 69, 61
1, 273306, Note_off_c, 0, 62, 58
1, 273346, Note_on_c, 0, 79, 80
1, 273348, Note_off_c, 0, 78, 62
1, 273403, Note_off_c, 0, 79, 0
1, 273408, Note_on_c, 0, 62, 95
1, 273411, Note_on_c, 0, 69, 95
1, 273424, Note_on_c, 0, 81, 98
1, 273435, Note_off_c, 0, 62, 64
1, 273437, Note_off_c, 0, 69, 61
1, 273440, Control_c, 0, 64, 96
1, 273448, Poly_aftertouch_c, 0, 79, 0
1, 273454, Control_c, 0, 64, 127
1, 273498, Note_off_c, 0, 81, 64
1, 273514, Note_on_c, 0, 78, 75
1, 273583, Note_on_c, 0, 79, 75
1, 273586, Note_off_c, 0, 78, 65
1, 273633, Note_off_c, 0, 79, 64
1, 273638, Note_on_c, 0, 76, 81
1, 273697, Note_off_c, 0, 76, 64
1, 273703, Note_on_c, 0, 74, 74
1, 273724, Note_off_c, 0, 74, 71
1, 273857, Note_on_c, 0, 93, 78
1, 273867, Note_on_c, 0, 95, 70
1, 273876, Note_on_c, 0, 50, 84
1, 273876, Note_on_c, 0, 97, 78
1, 273876, Note_on_c, 0, 98, 97
1, 273877, Note_off_c, 0, 93, 69
1, 273885, Note_off_c, 0, 95, 65
1, 273888, Note_on_c, 0, 90, 94
1, 273900, Note_off_c, 0, 97, 71
1, 273910, Note_off_c, 0, 98, 65
1, 273914, Note_off_c, 0, 90, 63
1, 273921, Note_off_c, 0, 50, 63
1, 274054, Note_on_c, 0, 78, 83
1, 274085, Control_c, 0, 64, 98
1, 274100, Control_c, 0, 64, 73
1, 274103, Note_off_c, 0, 78, 63
1, 274115, Control_c, 0, 64, 0
1, 274122, Note_on_c, 0, 76, 74
1, 274174, Note_off_c, 0, 76, 44
1, 274187, Note_on_c, 0, 69, 63
1, 274188, Note_on_c, 0, 62, 56
1, 274189, Note_on_c, 0, 78, 74
1, 274224, Note_off_c, 0, 69, 63
1, 274226, Note_off_c, 0, 62, 61
1, 274246, Note_off_c, 0, 78, 62
1, 274263, Note_on_c, 0, 79, 76
1, 274318, Note_on_c, 0, 69, 95
1, 274321, Note_on_c, 0, 62, 88
1, 274328, Note_on_c, 0, 81, 93
1, 274329, Note_on_c, 0, 73, 88
1, 274331, Control_c, 0, 64, 18
1, 274341, Note_off_c, 0, 79, 64
1, 274346, Control_c, 0, 64, 127
1, 274356, Note_off_c, 0, 62, 55
1, 274361, Note_off_c, 0, 69, 64
1, 274389, Note_off_c, 0, 73, 56
1, 274416, Note_on_c, 0, 80, 85
1, 274416, Note_off_c, 0, 81, 64
1, 274512, Note_on_c, 0, 81, 82
1, 274550, Note_off_c, 0, 80, 63
1, 274567, Note_on_c, 0, 83, 84
1, 274577, Note_off_c, 0, 81, 63
1, 274638, Note_off_c, 0, 83, 70
1, 274643, Note_on_c, 0, 81, 91
1, 274672, Note_off_c, 0, 81, 67
1, 274759, Note_on_c, 0, 71, 92
1, 274770, Note_on_c, 0, 69, 93
1, 274775, Control_c, 0, 64, 108
1, 274790, Control_c, 0, 64, 77
1, 274798, Note_off_c, 0, 71, 67
1, 274805, Control_c, 0, 64, 0
1, 274931, Note_on_c, 0, 93, 76
1, 274985, Note_off_c, 0, 93, 62
1, 274988, Note_on_c, 0, 95, 82
1, 275044, Note_off_c, 0, 69, 56
1, 275051, Note_off_c, 0, 95, 63
1, 275057, Note_on_c, 0, 62, 65
1, 275063, Note_on_c, 0, 97, 82
1, 275083, Note_off_c, 0, 97, 71
1, 275130, Note_on_c, 0, 98, 85
1, 275182, Note_off_c, 0, 98, 62
1, 275184, Note_on_c, 0, 97, 66
1, 275191, Note_on_c, 0, 100, 88
1, 275192, Note_on_c, 0, 71, 88
1, 275193, Note_on_c, 0, 69, 90
1, 275213, Note_off_c, 0, 62, 54
1, 275231, Note_off_c, 0, 71, 63
1, 275231, Note_off_c, 0, 97, 64
1, 275251, Note_on_c, 0, 102, 87
1, 275256, Note_off_c, 0, 100, 66
1, 275289, Note_off_c, 0, 102, 66
1, 275328, Note_on_c, 0, 95, 80
1, 275334, Note_on_c, 0, 98, 79
1, 275358, Note_off_c, 0, 95, 65
1, 275382, Note_off_c, 0, 98, 62
1, 275395, Note_on_c, 0, 100, 83
1, 275457, Note_off_c, 0, 69, 58
1, 275461, Note_on_c, 0, 62, 64
1, 275465, Note_off_c, 0, 100, 65
1, 275466, Note_on_c, 0, 93, 75
1, 275480, Note_on_c, 0, 98, 35
1, 275512, Note_off_c, 0, 93, 64
1, 275513, Note_off_c, 0, 98, 63
1, 275540, Note_on_c, 0, 100, 74
1, 275560, Note_on_c, 0, 98, 48
1, 275565, Note_off_c, 0, 100, 57
1, 275586, Note_off_c, 0, 98, 57
1, 275604, Note_on_c, 0, 95, 89
1, 275605, Note_on_c, 0, 91, 81
1, 275612, Note_on_c, 0, 69, 82
1, 275613, Note_on_c, 0, 71, 81
1, 275638, Note_off_c, 0, 91, 66
1, 275674, Note_off_c, 0, 95, 62
1, 275677, Note_on_c, 0, 97, 68
1, 275704, Note_off_c, 0, 97, 67
1, 275717, Note_off_c, 0, 62, 36
1, 275743, Note_on_c, 0, 90, 82
1, 275757, Note_on_c, 0, 93, 77
1, 275775, Note_off_c, 0, 90, 64
1, 275826, Note_on_c, 0, 95, 83
1, 275832, Note_off_c, 0, 93, 63
1, 275859, Note_off_c, 0, 71, 52
1, 275885, Note_off_c, 0, 95, 62
1, 275885, Note_off_c, 0, 69, 60
1, 275891, Note_on_c, 0, 91, 74
1, 275902, Note_on_c, 0, 88, 65
1, 275906, Note_on_c, 0, 62, 56
1, 275929, Note_off_c, 0, 88, 68
1, 275960, Note_off_c, 0, 91, 62
1, 275962, Note_on_c, 0, 93, 83
1, 276008, Note_off_c, 0, 93, 59
1, 276010, Note_off_c, 0, 62, 48
1, 276038, Note_on_c, 0, 90, 76
1, 276043, Note_on_c, 0, 69, 55
1, 276044, Note_on_c, 0, 86, 59
1, 276061, Note_on_c, 0, 71, 49
1, 276062, Note_off_c, 0, 86, 65
1, 276080, Control_c, 0, 67, 13
1, 276088, Note_off_c, 0, 90, 67
1, 276095, Control_c, 0, 67, 19
1, 276097, Note_on_c, 0, 91, 73
1, 276110, Control_c, 0, 67, 29
1, 276121, Note_off_c, 0, 71, 45
1, 276125, Control_c, 0, 67, 42
1, 276140, Control_c, 0, 67, 54
1, 276147, Note_off_c, 0, 91, 63
1, 276154, Control_c, 0, 67, 66
1, 276169, Control_c, 0, 67, 73
1, 276170, Note_on_c, 0, 88, 58
1, 276174, Note_on_c, 0, 81, 68
1, 276181, Note_on_c, 0, 89, 51
1, 276184, Control_c, 0, 67, 80
1, 276192, Note_off_c, 0, 81, 64
1, 276199, Control_c, 0, 67, 89
1, 276213, Control_c, 0, 67, 102
1, 276219, Note_off_c, 0, 89, 48
1, 276224, Note_off_c, 0, 88, 60
1, 276228, Control_c, 0, 67, 117
1, 276233, Note_on_c, 0, 90, 65
1, 276243, Control_c, 0, 67, 127
1, 276258, Control_c, 0, 64, 62
1, 276273, Control_c, 0, 64, 72
1, 276279, Note_off_c, 0, 90, 58
1, 276284, Note_off_c, 0, 69, 39
1, 276288, Control_c, 0, 64, 90
1, 276290, Note_on_c, 0, 86, 66
1, 276297, Note_on_c, 0, 62, 48
1, 276298, Note_on_c, 0, 78, 59
1, 276303, Control_c, 0, 64, 114
1, 276316, Note_off_c, 0, 78, 62
1, 276318, Control_c, 0, 64, 127
1, 276322, Note_off_c, 0, 86, 66
1, 276324, Note_off_c, 0, 62, 60
1, 276480, Control_c, 0, 64, 108
1, 276482, Note_on_c, 0, 93, 55
1, 276501, Note_on_c, 0, 95, 45
1, 276502, Control_c, 0, 64, 90
1, 276510, Note_off_c, 0, 93, 62
1, 276512, Note_on_c, 0, 97, 65
1, 276517, Control_c, 0, 64, 76
1, 276529, Note_off_c, 0, 95, 55
1, 276529, Note_on_c, 0, 98, 62
1, 276531, Note_off_c, 0, 97, 61
1, 276532, Control_c, 0, 64, 60
1, 276534, Note_on_c, 0, 50, 62
1, 276539, Note_on_c, 0, 90, 72
1, 276547, Control_c, 0, 64, 0
1, 276547, Note_off_c, 0, 98, 63
1, 276561, Note_off_c, 0, 90, 68
1, 276563, Note_off_c, 0, 50, 65
1, 276729, Note_on_c, 0, 79, 30
1, 276738, Note_on_c, 0, 78, 65
1, 276761, Note_off_c, 0, 79, 33
1, 276772, Note_off_c, 0, 78, 65
1, 276797, Note_on_c, 0, 76, 60
1, 276863, Note_on_c, 0, 69, 52
1, 276863, Note_off_c, 0, 76, 57
1, 276867, Note_on_c, 0, 62, 41
1, 276869, Note_on_c, 0, 78, 63
1, 276899, Note_off_c, 0, 62, 56
1, 276901, Note_off_c, 0, 69, 63
1, 276907, Note_off_c, 0, 78, 56
1, 276941, Note_on_c, 0, 79, 71
1, 276984, Note_off_c, 0, 79, 53
1, 277018, Note_on_c, 0, 81, 81
1, 277020, Note_on_c, 0, 69, 54
1, 277022, Control_c, 0, 64, 20
1, 277026, Note_on_c, 0, 62, 45
1, 277036, Control_c, 0, 64, 60
1, 277051, Control_c, 0, 64, 67
1, 277052, Note_off_c, 0, 69, 65
1, 277066, Control_c, 0, 64, 74
1, 277075, Note_off_c, 0, 62, 59
1, 277078, Note_off_c, 0, 81, 62
1, 277081, Control_c, 0, 64, 85
1, 277094, Note_on_c, 0, 78, 62
1, 277096, Control_c, 0, 64, 93
1, 277110, Control_c, 0, 64, 100
1, 277125, Control_c, 0, 64, 110
1, 277140, Control_c, 0, 64, 127
1, 277169, Note_off_c, 0, 78, 63
1, 277173, Note_on_c, 0, 79, 54
1, 277200, Note_off_c, 0, 79, 60
1, 277224, Note_on_c, 0, 76, 68
1, 277263, Note_off_c, 0, 76, 65
1, 277292, Note_on_c, 0, 74, 56
1, 277314, Note_off_c, 0, 74, 65
1, 277470, Note_on_c, 0, 93, 67
1, 277495, Note_off_c, 0, 93, 66
1, 277497, Note_on_c, 0, 98, 75
1, 277498, Note_on_c, 0, 50, 69
1, 277501, Note_on_c, 0, 97, 49
1, 277503, Control_c, 0, 64, 101
1, 277513, Note_on_c, 0, 90, 74
1, 277518, Control_c, 0, 64, 88
1, 277520, Note_off_c, 0, 98, 70
1, 277528, Note_off_c, 0, 97, 56
1, 277530, Note_off_c, 0, 50, 66
1, 277534, Control_c, 0, 64, 76
1, 277536, Note_off_c, 0, 90, 70
1, 277549, Control_c, 0, 64, 65
1, 277564, Control_c, 0, 64, 0
1, 277761, Note_on_c, 0, 76, 54
1, 277819, Note_off_c, 0, 76, 58
1, 277841, Note_on_c, 0, 78, 62
1, 277855, Note_on_c, 0, 62, 38
1, 277863, Note_on_c, 0, 69, 34
1, 277880, Note_off_c, 0, 78, 61
1, 277888, Note_off_c, 0, 62, 55
1, 277894, Note_off_c, 0, 69, 53
1, 277912, Note_on_c, 0, 79, 68
1, 277983, Note_on_c, 0, 62, 49
1, 277985, Note_off_c, 0, 79, 63
1, 277988, Note_on_c, 0, 69, 46
1, 277990, Note_on_c, 0, 81, 71
1, 278012, Note_on_c, 0, 73, 49
1, 278045, Control_c, 0, 64, 30
1, 278059, Control_c, 0, 64, 50
1, 278074, Note_off_c, 0, 73, 48
1, 278074, Control_c, 0, 64, 62
1, 278089, Control_c, 0, 64, 66
1, 278099, Note_off_c, 0, 81, 63
1, 278100, Note_on_c, 0, 80, 69
1, 278103, Control_c, 0, 64, 71
1, 278118, Control_c, 0, 64, 78
1, 278133, Control_c, 0, 64, 84
1, 278142, Note_off_c, 0, 62, 53
1, 278148, Control_c, 0, 64, 87
1, 278163, Control_c, 0, 64, 90
1, 278178, Control_c, 0, 64, 93
1, 278193, Control_c, 0, 64, 96
1, 278207, Control_c, 0, 64, 100
1, 278213, Note_on_c, 0, 81, 68
1, 278222, Control_c, 0, 64, 104
1, 278237, Control_c, 0, 64, 106
1, 278252, Control_c, 0, 64, 108
1, 278263, Note_off_c, 0, 69, 34
1, 278267, Control_c, 0, 64, 109
1, 278282, Control_c, 0, 64, 111
1, 278296, Control_c, 0, 64, 113
1, 278311, Control_c, 0, 64, 115
1, 278315, Note_off_c, 0, 80, 40
1, 278319, Note_off_c, 0, 81, 60
1, 278324, Note_on_c, 0, 83, 65
1, 278327, Control_c, 0, 64, 119
1, 278342, Control_c, 0, 64, 124
1, 278357, Control_c, 0, 64, 127
1, 278423, Note_off_c, 0, 83, 63
1, 278443, Note_on_c, 0, 81, 66
1, 278500, Note_off_c, 0, 81, 61
1, 278838, Control_c, 0, 64, 122
1, 278853, Control_c, 0, 64, 117
1, 278868, Control_c, 0, 64, 113
1, 278882, Control_c, 0, 64, 109
1, 278897, Control_c, 0, 64, 105
1, 278902, Note_on_c, 0, 71, 50
1, 278912, Control_c, 0, 64, 101
1, 278926, Control_c, 0, 64, 96
1, 278941, Control_c, 0, 64, 91
1, 278950, Note_off_c, 0, 71, 60
1, 278956, Control_c, 0, 64, 86
1, 278959, Note_on_c, 0, 69, 52
1, 278971, Control_c, 0, 64, 79
1, 278986, Control_c, 0, 64, 68
1, 279000, Control_c, 0, 64, 38
1, 279015, Control_c, 0, 64, 0
1, 279225, Note_on_c, 0, 93, 38
1, 279284, Note_off_c, 0, 93, 43
1, 279322, Note_on_c, 0, 95, 68
1, 279401, Note_on_c, 0, 62, 44
1, 279403, Note_off_c, 0, 69, 50
1, 279411, Note_on_c, 0, 97, 73
1, 279439, Note_off_c, 0, 95, 27
1, 279499, Note_off_c, 0, 97, 47
1, 279500, Note_on_c, 0, 98, 72
1, 279570, Note_on_c, 0, 100, 78
1, 279572, Note_on_c, 0, 91, 42
1, 279585, Note_on_c, 0, 71, 49
1, 279593, Note_on_c, 0, 69, 35
1, 279600, Note_off_c, 0, 62, 30
1, 279602, Note_off_c, 0, 91, 57
1, 279612, Note_off_c, 0, 100, 58
1, 279641, Note_off_c, 0, 98, 26
1, 279644, Note_on_c, 0, 97, 74
1, 279710, Note_off_c, 0, 97, 61
1, 279719, Note_on_c, 0, 90, 73
1, 279722, Note_on_c, 0, 98, 66
1, 279743, Note_off_c, 0, 98, 60
1, 279750, Note_off_c, 0, 90, 63
1, 279799, Note_on_c, 0, 95, 57
1, 279809, Note_on_c, 0, 94, 43
1, 279835, Note_off_c, 0, 95, 65
1, 279837, Note_off_c, 0, 94, 56
1, 279849, Note_off_c, 0, 71, 39
1, 279853, Note_on_c, 0, 97, 68
1, 279861, Note_on_c, 0, 88, 77
1, 279868, Note_on_c, 0, 62, 56
1, 279872, Note_off_c, 0, 69, 50
1, 279880, Note_off_c, 0, 97, 69
1, 279895, Note_off_c, 0, 88, 60
1, 279939, Note_on_c, 0, 93, 77
1, 280000, Note_off_c, 0, 93, 61
1, 280010, Note_on_c, 0, 95, 78
1, 280011, Note_on_c, 0, 69, 47
1, 280017, Note_on_c, 0, 86, 63
1, 280018, Note_on_c, 0, 71, 58
1, 280036, Note_off_c, 0, 86, 66
1, 280044, Note_off_c, 0, 62, 31
1, 280053, Note_off_c, 0, 95, 56
1, 280081, Note_on_c, 0, 91, 76
1, 280128, Note_off_c, 0, 91, 66
1, 280145, Note_on_c, 0, 93, 74
1, 280150, Note_on_c, 0, 85, 69
1, 280180, Note_off_c, 0, 85, 65
1, 280184, Note_off_c, 0, 93, 54
1, 280232, Note_on_c, 0, 90, 71
1, 280276, Note_off_c, 0, 90, 63
1, 280300, Note_off_c, 0, 71, 57
1, 280303, Note_off_c, 0, 69, 59
1, 280303, Note_on_c, 0, 91, 75
1, 280309, Note_on_c, 0, 83, 69
1, 280331, Note_on_c, 0, 62, 43
1, 280348, Note_off_c, 0, 83, 63
1, 280354, Note_off_c, 0, 91, 62
1, 280373, Note_on_c, 0, 88, 67
1, 280428, Note_off_c, 0, 62, 46
1, 280439, Note_on_c, 0, 90, 70
1, 280443, Note_on_c, 0, 81, 76
1, 280446, Note_off_c, 0, 88, 60
1, 280461, Note_on_c, 0, 71, 46
1, 280467, Note_on_c, 0, 69, 54
1, 280479, Note_off_c, 0, 81, 64
1, 280492, Note_off_c, 0, 71, 52
1, 280512, Note_off_c, 0, 90, 65
1, 280515, Note_on_c, 0, 91, 74
1, 280574, Note_off_c, 0, 91, 63
1, 280585, Note_on_c, 0, 88, 67
1, 280598, Note_on_c, 0, 79, 55
1, 280626, Note_off_c, 0, 79, 65
1, 280673, Note_off_c, 0, 88, 64
1, 280679, Note_on_c, 0, 90, 66
1, 280752, Control_c, 0, 64, 12
1, 280767, Control_c, 0, 64, 47
1, 280782, Note_on_c, 0, 78, 59
1, 280782, Control_c, 0, 64, 60
1, 280786, Note_off_c, 0, 90, 60
1, 280788, Note_on_c, 0, 86, 59
1, 280793, Note_on_c, 0, 62, 26
1, 280796, Control_c, 0, 64, 65
1, 280803, Note_off_c, 0, 69, 37
1, 280811, Control_c, 0, 64, 71
1, 280826, Control_c, 0, 64, 79
1, 280841, Control_c, 0, 64, 88
1, 280856, Control_c, 0, 64, 96
1, 280870, Control_c, 0, 64, 105
1, 280885, Control_c, 0, 64, 114
1, 280900, Control_c, 0, 64, 127
1, 280907, Note_off_c, 0, 86, 56
1, 280938, Note_off_c, 0, 78, 35
1, 281118, Note_on_c, 0, 71, 55
1, 281157, Note_off_c, 0, 71, 64
1, 281159, Control_c, 0, 67, 114
1, 281174, Control_c, 0, 67, 99
1, 281176, Note_on_c, 0, 69, 68
1, 281184, Note_on_c, 0, 66, 64
1, 281189, Control_c, 0, 67, 82
1, 281203, Note_off_c, 0, 69, 66
1, 281203, Control_c, 0, 67, 65
1, 281206, Note_off_c, 0, 62, 44
1, 281214, Note_off_c, 0, 66, 67
1, 281218, Control_c, 0, 67, 55
1, 281233, Control_c, 0, 67, 49
1, 281248, Control_c, 0, 67, 46
1, 281263, Control_c, 0, 67, 45
1, 281278, Control_c, 0, 67, 44
1, 281322, Control_c, 0, 67, 44
1, 281337, Control_c, 0, 67, 43
1, 281352, Control_c, 0, 67, 43
1, 281367, Control_c, 0, 67, 42
1, 281382, Control_c, 0, 67, 40
1, 281396, Control_c, 0, 67, 39
1, 281411, Control_c, 0, 67, 37
1, 281426, Control_c, 0, 67, 36
1, 281440, Control_c, 0, 67, 35
1, 281455, Control_c, 0, 67, 33
1, 281469, Control_c, 0, 67, 32
1, 281484, Control_c, 0, 67, 30
1, 281499, Control_c, 0, 67, 28
1, 281515, Control_c, 0, 67, 27
1, 281530, Control_c, 0, 64, 110
1, 281530, Control_c, 0, 67, 26
1, 281540, Note_on_c, 0, 61, 58
1, 281544, Control_c, 0, 64, 96
1, 281544, Control_c, 0, 67, 24
1, 281559, Control_c, 0, 64, 83
1, 281559, Control_c, 0, 67, 23
1, 281564, Note_off_c, 0, 61, 59
1, 281574, Control_c, 0, 64, 69
1, 281574, Control_c, 0, 67, 23
1, 281589, Control_c, 0, 64, 37
1, 281589, Control_c, 0, 67, 22
1, 281593, Note_on_c, 0, 62, 67
1, 281604, Control_c, 0, 64, 0
1, 281604, Control_c, 0, 67, 21
1, 281612, Note_off_c, 0, 62, 63
1, 281618, Control_c, 0, 67, 21
1, 281633, Control_c, 0, 67, 20
1, 281648, Note_on_c, 0, 61, 69
1, 281662, Control_c, 0, 67, 20
1, 281677, Control_c, 0, 67, 19
1, 281688, Note_off_c, 0, 61, 62
1, 281709, Note_on_c, 0, 62, 75
1, 281722, Control_c, 0, 67, 19
1, 281735, Note_off_c, 0, 62, 67
1, 281759, Control_c, 0, 67, 18
1, 281768, Note_on_c, 0, 61, 82
1, 281774, Control_c, 0, 67, 18
1, 281793, Note_off_c, 0, 61, 68
1, 281819, Control_c, 0, 67, 17
1, 281826, Note_on_c, 0, 62, 80
1, 281849, Note_off_c, 0, 62, 68
1, 281893, Note_on_c, 0, 54, 68
1, 281921, Note_off_c, 0, 54, 65
1, 281957, Note_on_c, 0, 55, 72
1, 281986, Note_off_c, 0, 55, 65
1, 281996, Control_c, 0, 67, 18
1, 282023, Note_on_c, 0, 56, 57
1, 282047, Note_off_c, 0, 56, 62
1, 282085, Note_on_c, 0, 57, 68
1, 282116, Note_off_c, 0, 57, 64
1, 282150, Note_on_c, 0, 58, 74
1, 282180, Note_off_c, 0, 58, 66
1, 282211, Note_on_c, 0, 59, 73
1, 282236, Note_off_c, 0, 59, 67
1, 282271, Note_on_c, 0, 61, 71
1, 282292, Control_c, 0, 67, 18
1, 282299, Note_off_c, 0, 61, 67
1, 282307, Control_c, 0, 67, 19
1, 282344, Note_on_c, 0, 59, 76
1, 282353, Control_c, 0, 67, 19
1, 282366, Note_off_c, 0, 59, 68
1, 282378, Note_on_c, 0, 56, 68
1, 282407, Note_off_c, 0, 56, 65
1, 282412, Control_c, 0, 67, 20
1, 282441, Control_c, 0, 64, 50
1, 282456, Control_c, 0, 64, 65
1, 282458, Note_on_c, 0, 57, 69
1, 282471, Control_c, 0, 64, 73
1, 282493, Control_c, 0, 64, 82
1, 282493, Control_c, 0, 67, 20
1, 282494, Note_off_c, 0, 57, 64
1, 282508, Control_c, 0, 64, 91
1, 282508, Control_c, 0, 67, 21
1, 282523, Control_c, 0, 64, 96
1, 282523, Control_c, 0, 67, 21
1, 282538, Control_c, 0, 64, 100
1, 282553, Control_c, 0, 64, 105
1, 282553, Control_c, 0, 67, 22
1, 282564, Note_on_c, 0, 55, 63
1, 282568, Control_c, 0, 64, 112
1, 282582, Control_c, 0, 64, 127
1, 282612, Control_c, 0, 67, 22
1, 282657, Note_off_c, 0, 55, 60
1, 282662, Note_on_c, 0, 61, 64
1, 282700, Control_c, 0, 67, 20
1, 282715, Control_c, 0, 67, 16
1, 282717, Note_on_c, 0, 93, 76
1, 282718, Note_off_c, 0, 61, 60
1, 282719, Note_on_c, 0, 81, 80
1, 282724, Note_on_c, 0, 88, 64
1, 282726, Note_on_c, 0, 64, 65
1, 282730, Control_c, 0, 67, 0
1, 282734, Note_on_c, 0, 85, 50
1, 282747, Note_off_c, 0, 81, 62
1, 282748, Note_off_c, 0, 88, 65
1, 282753, Note_off_c, 0, 64, 67
1, 282755, Note_off_c, 0, 93, 54
1, 282756, Note_off_c, 0, 85, 60
1, 282794, Note_on_c, 0, 67, 58
1, 282816, Note_off_c, 0, 67, 64
1, 282855, Note_on_c, 0, 93, 82
1, 282857, Note_on_c, 0, 81, 93
1, 282858, Note_on_c, 0, 88, 74
1, 282870, Note_on_c, 0, 73, 77
1, 282873, Note_on_c, 0, 85, 51
1, 282886, Note_off_c, 0, 81, 64
1, 282886, Note_off_c, 0, 88, 66
1, 282896, Note_off_c, 0, 85, 63
1, 282900, Note_off_c, 0, 93, 61
1, 282922, Note_off_c, 0, 73, 63
1, 282929, Note_on_c, 0, 76, 74
1, 282980, Note_on_c, 0, 81, 101
1, 282982, Note_on_c, 0, 73, 86
1, 282982, Note_on_c, 0, 93, 96
1, 282983, Note_off_c, 0, 76, 64
1, 282984, Note_on_c, 0, 85, 85
1, 282998, Note_off_c, 0, 81, 71
1, 283001, Note_off_c, 0, 93, 68
1, 283012, Note_off_c, 0, 85, 64
1, 283016, Note_off_c, 0, 73, 64
1, 283176, Control_c, 0, 64, 101
1, 283190, Control_c, 0, 64, 88
1, 283205, Control_c, 0, 64, 75
1, 283220, Control_c, 0, 64, 62
1, 283224, Note_on_c, 0, 60, 73
1, 283242, Control_c, 0, 64, 0
1, 283259, Note_off_c, 0, 60, 65
1, 283277, Note_on_c, 0, 61, 83
1, 283300, Note_off_c, 0, 61, 69
1, 283342, Note_on_c, 0, 60, 87
1, 283382, Note_off_c, 0, 60, 58
1, 283394, Note_on_c, 0, 61, 89
1, 283416, Note_off_c, 0, 61, 69
1, 283454, Note_on_c, 0, 60, 90
1, 283481, Note_off_c, 0, 60, 64
1, 283503, Note_on_c, 0, 61, 96
1, 283524, Note_off_c, 0, 61, 69
1, 283585, Note_on_c, 0, 52, 79
1, 283617, Note_off_c, 0, 52, 65
1, 283634, Note_on_c, 0, 54, 77
1, 283659, Note_off_c, 0, 54, 67
1, 283705, Note_on_c, 0, 55, 71
1, 283733, Note_off_c, 0, 55, 65
1, 283761, Note_on_c, 0, 57, 81
1, 283785, Note_off_c, 0, 57, 69
1, 283829, Note_on_c, 0, 58, 78
1, 283859, Note_off_c, 0, 58, 64
1, 283886, Note_on_c, 0, 59, 75
1, 283911, Note_off_c, 0, 59, 70
1, 283956, Note_on_c, 0, 61, 72
1, 284004, Note_off_c, 0, 61, 60
1, 284026, Note_on_c, 0, 59, 71
1, 284053, Note_off_c, 0, 59, 66
1, 284081, Note_on_c, 0, 56, 66
1, 284114, Note_off_c, 0, 56, 64
1, 284156, Note_on_c, 0, 57, 72
1, 284183, Note_off_c, 0, 57, 66
1, 284241, Note_on_c, 0, 54, 41
1, 284244, Control_c, 0, 64, 46
1, 284259, Control_c, 0, 64, 63
1, 284273, Control_c, 0, 64, 71
1, 284288, Control_c, 0, 64, 82
1, 284303, Control_c, 0, 64, 96
1, 284318, Control_c, 0, 64, 109
1, 284333, Control_c, 0, 64, 127
1, 284348, Note_off_c, 0, 54, 54
1, 284363, Note_on_c, 0, 57, 50
1, 284402, Note_off_c, 0, 57, 64
1, 284425, Note_on_c, 0, 93, 68
1, 284432, Note_on_c, 0, 81, 63
1, 284435, Note_on_c, 0, 62, 65
1, 284441, Note_on_c, 0, 86, 46
1, 284444, Note_on_c, 0, 90, 48
1, 284467, Note_off_c, 0, 81, 57
1, 284469, Note_off_c, 0, 62, 62
1, 284488, Note_off_c, 0, 86, 46
1, 284491, Note_off_c, 0, 90, 56
1, 284506, Note_off_c, 0, 93, 57
1, 284557, Note_on_c, 0, 66, 66
1, 284612, Note_off_c, 0, 66, 57
1, 284616, Note_on_c, 0, 93, 69
1, 284622, Note_on_c, 0, 86, 60
1, 284627, Note_on_c, 0, 81, 65
1, 284628, Note_on_c, 0, 69, 66
1, 284637, Note_on_c, 0, 90, 54
1, 284670, Note_off_c, 0, 69, 63
1, 284691, Note_off_c, 0, 93, 54
1, 284701, Note_off_c, 0, 81, 51
1, 284724, Note_on_c, 0, 74, 61
1, 284727, Note_off_c, 0, 90, 55
1, 284748, Note_off_c, 0, 86, 59
1, 284780, Note_off_c, 0, 74, 61
1, 284837, Note_on_c, 0, 78, 57
1, 284847, Note_on_c, 0, 93, 74
1, 284852, Note_on_c, 0, 90, 65
1, 284858, Note_on_c, 0, 81, 61
1, 284858, Note_on_c, 0, 86, 56
1, 284873, Note_off_c, 0, 93, 65
1, 284874, Note_off_c, 0, 78, 64
1, 284886, Note_off_c, 0, 81, 54
1, 284888, Note_off_c, 0, 86, 53
1, 284894, Note_off_c, 0, 90, 56
1, 285126, Note_on_c, 0, 73, 69
1, 285127, Note_on_c, 0, 65, 69
1, 285141, Control_c, 0, 64, 115
1, 285156, Control_c, 0, 64, 97
1, 285161, Note_off_c, 0, 65, 65
1, 285170, Control_c, 0, 64, 83
1, 285181, Note_on_c, 0, 74, 62
1, 285184, Note_off_c, 0, 73, 53
1, 285185, Control_c, 0, 64, 71
1, 285200, Control_c, 0, 64, 53
1, 285210, Note_on_c, 0, 67, 38
1, 285213, Control_c, 0, 64, 0
1, 285215, Note_off_c, 0, 74, 65
1, 285236, Note_off_c, 0, 67, 51
1, 285250, Note_on_c, 0, 65, 77
1, 285261, Note_on_c, 0, 73, 62
1, 285282, Note_off_c, 0, 65, 60
1, 285295, Note_off_c, 0, 73, 64
1, 285308, Note_on_c, 0, 74, 72
1, 285319, Note_on_c, 0, 66, 72
1, 285339, Note_off_c, 0, 74, 64
1, 285362, Note_on_c, 0, 65, 78
1, 285365, Note_on_c, 0, 73, 67
1, 285380, Note_off_c, 0, 66, 56
1, 285385, Note_off_c, 0, 73, 66
1, 285386, Note_off_c, 0, 65, 70
1, 285420, Note_on_c, 0, 74, 71
1, 285425, Note_on_c, 0, 66, 68
1, 285446, Note_off_c, 0, 74, 68
1, 285450, Note_off_c, 0, 66, 67
1, 285505, Note_on_c, 0, 62, 84
1, 285548, Note_on_c, 0, 66, 74
1, 285550, Note_off_c, 0, 62, 62
1, 285587, Note_off_c, 0, 66, 65
1, 285623, Note_on_c, 0, 64, 84
1, 285663, Note_off_c, 0, 64, 62
1, 285681, Note_on_c, 0, 67, 78
1, 285704, Note_off_c, 0, 67, 68
1, 285745, Note_on_c, 0, 65, 86
1, 285776, Note_off_c, 0, 65, 66
1, 285799, Note_on_c, 0, 68, 83
1, 285825, Note_off_c, 0, 68, 68
1, 285870, Note_on_c, 0, 67, 77
1, 285889, Control_c, 0, 64, 12
1, 285911, Note_off_c, 0, 67, 61
1, 285923, Note_on_c, 0, 71, 83
1, 285947, Note_off_c, 0, 71, 68
1, 285976, Note_on_c, 0, 66, 80
1, 286007, Control_c, 0, 64, 0
1, 286008, Note_off_c, 0, 66, 63
1, 286046, Note_on_c, 0, 69, 73
1, 286073, Note_off_c, 0, 69, 67
1, 286110, Control_c, 0, 64, 36
1, 286112, Note_on_c, 0, 64, 71
1, 286125, Control_c, 0, 64, 61
1, 286140, Control_c, 0, 64, 69
1, 286155, Control_c, 0, 64, 82
1, 286161, Note_off_c, 0, 64, 61
1, 286169, Control_c, 0, 64, 104
1, 286184, Control_c, 0, 64, 127
1, 286187, Note_on_c, 0, 67, 55
1, 286240, Note_off_c, 0, 67, 63
1, 286262, Note_on_c, 0, 70, 72
1, 286270, Note_on_c, 0, 73, 59
1, 286291, Note_off_c, 0, 73, 61
1, 286313, Note_off_c, 0, 70, 62
1, 286326, Note_on_c, 0, 69, 65
1, 286327, Note_on_c, 0, 81, 84
1, 286349, Poly_aftertouch_c, 0, 72, 127
1, 286351, Note_off_c, 0, 81, 69
1, 286390, Poly_aftertouch_c, 0, 72, 0
1, 286406, Note_on_c, 0, 64, 67
1, 286410, Note_off_c, 0, 69, 60
1, 286413, Note_on_c, 0, 79, 84
1, 286453, Note_off_c, 0, 64, 58
1, 286471, Note_off_c, 0, 79, 58
1, 286476, Note_on_c, 0, 85, 87
1, 286536, Note_off_c, 0, 85, 61
1, 286538, Note_on_c, 0, 93, 98
1, 286572, Note_off_c, 0, 93, 65
1, 286698, Note_on_c, 0, 63, 75
1, 286700, Note_on_c, 0, 72, 81
1, 286712, Control_c, 0, 64, 100
1, 286727, Control_c, 0, 64, 84
1, 286742, Control_c, 0, 64, 70
1, 286748, Note_off_c, 0, 72, 46
1, 286757, Control_c, 0, 64, 26
1, 286760, Note_off_c, 0, 63, 61
1, 286763, Note_on_c, 0, 73, 69
1, 286764, Note_on_c, 0, 64, 72
1, 286772, Control_c, 0, 64, 0
1, 286792, Note_off_c, 0, 64, 67
1, 286797, Note_off_c, 0, 73, 63
1, 286843, Note_on_c, 0, 63, 68
1, 286843, Note_on_c, 0, 72, 73
1, 286887, Note_off_c, 0, 72, 45
1, 286890, Note_on_c, 0, 73, 80
1, 286893, Note_on_c, 0, 64, 72
1, 286897, Note_off_c, 0, 63, 61
1, 286913, Note_off_c, 0, 73, 68
1, 286918, Note_off_c, 0, 64, 68
1, 286945, Note_on_c, 0, 63, 67
1, 286955, Poly_aftertouch_c, 0, 72, 0
1, 287003, Note_off_c, 0, 63, 63
1, 287008, Note_on_c, 0, 73, 80
1, 287009, Note_on_c, 0, 64, 71
1, 287040, Note_off_c, 0, 64, 68
1, 287040, Note_off_c, 0, 73, 64
1, 287082, Note_on_c, 0, 61, 71
1, 287128, Note_off_c, 0, 61, 57
1, 287156, Note_on_c, 0, 64, 78
1, 287179, Note_off_c, 0, 64, 69
1, 287231, Note_on_c, 0, 62, 71
1, 287269, Note_off_c, 0, 62, 60
1, 287285, Note_on_c, 0, 66, 83
1, 287312, Note_off_c, 0, 66, 69
1, 287359, Note_on_c, 0, 64, 80
1, 287394, Note_off_c, 0, 64, 61
1, 287419, Note_on_c, 0, 67, 79
1, 287443, Note_off_c, 0, 67, 69
1, 287503, Note_on_c, 0, 67, 75
1, 287550, Note_off_c, 0, 67, 61
1, 287585, Note_on_c, 0, 71, 76
1, 287611, Note_off_c, 0, 71, 68
1, 287663, Note_on_c, 0, 66, 69
1, 287698, Note_off_c, 0, 66, 64
1, 287736, Note_on_c, 0, 69, 74
1, 287769, Note_off_c, 0, 69, 63
1, 287839, Control_c, 0, 64, 53
1, 287844, Note_on_c, 0, 62, 55
1, 287854, Control_c, 0, 64, 64
1, 287869, Control_c, 0, 64, 69
1, 287883, Control_c, 0, 64, 75
1, 287889, Note_off_c, 0, 62, 56
1, 287898, Control_c, 0, 64, 82
1, 287913, Control_c, 0, 64, 87
1, 287928, Control_c, 0, 64, 90
1, 287929, Note_on_c, 0, 66, 71
1, 287943, Control_c, 0, 64, 93
1, 287958, Control_c, 0, 64, 98
1, 287973, Control_c, 0, 64, 104
1, 287988, Control_c, 0, 64, 111
1, 288003, Control_c, 0, 64, 120
1, 288016, Note_on_c, 0, 71, 49
1, 288018, Control_c, 0, 64, 127
1, 288019, Note_off_c, 0, 66, 64
1, 288038, Note_on_c, 0, 74, 60
1, 288083, Note_off_c, 0, 71, 54
1, 288116, Note_off_c, 0, 74, 65
1, 288128, Note_on_c, 0, 81, 74
1, 288155, Note_off_c, 0, 81, 67
1, 288157, Note_on_c, 0, 69, 45
1, 288238, Note_off_c, 0, 69, 55
1, 288262, Note_on_c, 0, 78, 69
1, 288269, Note_on_c, 0, 62, 52
1, 288325, Note_off_c, 0, 78, 58
1, 288335, Note_off_c, 0, 62, 52
1, 288396, Note_on_c, 0, 86, 65
1, 288496, Note_off_c, 0, 86, 58
1, 288601, Note_on_c, 0, 93, 80
1, 288608, Note_on_c, 0, 90, 70
1, 288654, Note_off_c, 0, 93, 62
1, 288664, Note_off_c, 0, 90, 60
1, 289269, Note_on_c, 0, 89, 94
1, 289279, Note_on_c, 0, 92, 87
1, 289373, Note_off_c, 0, 92, 65
1, 289466, Note_on_c, 0, 93, 89
1, 289470, Note_on_c, 0, 90, 88
1, 289480, Note_off_c, 0, 89, 64
1, 289534, Note_off_c, 0, 90, 61
1, 289545, Note_off_c, 0, 93, 63
1, 289585, Note_on_c, 0, 89, 87
1, 289586, Note_on_c, 0, 92, 88
1, 289642, Note_off_c, 0, 92, 65
1, 289644, Note_off_c, 0, 89, 64
1, 289686, Note_on_c, 0, 93, 87
1, 289692, Note_on_c, 0, 90, 86
1, 289728, Note_off_c, 0, 93, 65
1, 289730, Note_off_c, 0, 90, 64
1, 289791, Note_on_c, 0, 50, 86
1, 289795, Control_c, 0, 64, 102
1, 289809, Control_c, 0, 64, 70
1, 289824, Control_c, 0, 64, 0
1, 289854, Note_on_c, 0, 102, 100
1, 289854, Control_c, 0, 64, 39
1, 289858, Note_on_c, 0, 98, 87
1, 289869, Control_c, 0, 64, 71
1, 289884, Control_c, 0, 64, 105
1, 289899, Control_c, 0, 64, 127
1, 289903, Note_off_c, 0, 98, 64
1, 289931, Note_off_c, 0, 102, 64
1, 290042, Note_on_c, 0, 57, 64
1, 290042, Note_off_c, 0, 50, 56
1, 290149, Note_off_c, 0, 57, 62
1, 290188, Note_on_c, 0, 100, 96
1, 290191, Note_on_c, 0, 97, 88
1, 290194, Note_on_c, 0, 62, 59
1, 290235, Note_off_c, 0, 62, 59
1, 290315, Note_off_c, 0, 97, 64
1, 290323, Note_on_c, 0, 102, 91
1, 290335, Note_off_c, 0, 100, 65
1, 290336, Note_on_c, 0, 66, 66
1, 290381, Note_off_c, 0, 102, 65
1, 290413, Note_off_c, 0, 66, 64
1, 290426, Note_on_c, 0, 98, 85
1, 290432, Note_on_c, 0, 95, 84
1, 290435, Note_on_c, 0, 69, 68
1, 290465, Note_off_c, 0, 69, 65
1, 290484, Note_off_c, 0, 95, 64
1, 290512, Note_on_c, 0, 100, 91
1, 290520, Note_off_c, 0, 98, 0
1, 290525, Note_on_c, 0, 74, 61
1, 290546, Poly_aftertouch_c, 0, 98, 0
1, 290583, Note_off_c, 0, 100, 62
1, 290588, Note_off_c, 0, 74, 57
1, 290601, Note_on_c, 0, 93, 77
1, 290602, Note_on_c, 0, 97, 80
1, 290615, Note_on_c, 0, 78, 65
1, 290644, Note_off_c, 0, 78, 67
1, 290656, Note_off_c, 0, 93, 63
1, 290671, Note_off_c, 0, 97, 53
1, 290680, Note_on_c, 0, 98, 82
1, 290701, Note_on_c, 0, 74, 50
1, 290730, Note_off_c, 0, 74, 64
1, 290751, Note_off_c, 0, 98, 64
1, 290755, Note_on_c, 0, 95, 86
1, 290763, Note_on_c, 0, 91, 74
1, 290775, Note_on_c, 0, 69, 65
1, 290809, Note_off_c, 0, 91, 63
1, 290829, Note_off_c, 0, 69, 62
1, 290836, Note_on_c, 0, 97, 80
1, 290844, Note_on_c, 0, 66, 73
1, 290844, Note_off_c, 0, 95, 65
1, 290858, Note_off_c, 0, 97, 72
1, 290891, Note_off_c, 0, 66, 63
1, 290921, Note_on_c, 0, 93, 90
1, 290929, Note_on_c, 0, 90, 79
1, 290933, Note_on_c, 0, 62, 72
1, 290969, Note_off_c, 0, 62, 58
1, 290972, Note_off_c, 0, 90, 60
1, 290993, Note_on_c, 0, 95, 87
1, 290996, Control_c, 0, 64, 95
1, 290999, Note_off_c, 0, 93, 63
1, 291003, Note_on_c, 0, 57, 69
1, 291011, Control_c, 0, 64, 67
1, 291026, Control_c, 0, 64, 0
1, 291049, Note_off_c, 0, 57, 61
1, 291064, Note_off_c, 0, 95, 63
1, 291069, Note_on_c, 0, 88, 75
1, 291070, Note_on_c, 0, 91, 76
1, 291076, Note_on_c, 0, 50, 63
1, 291085, Control_c, 0, 64, 57
1, 291100, Control_c, 0, 64, 72
1, 291104, Note_off_c, 0, 88, 63
1, 291112, Note_off_c, 0, 50, 65
1, 291114, Note_off_c, 0, 91, 58
1, 291115, Control_c, 0, 64, 88
1, 291130, Control_c, 0, 64, 120
1, 291134, Note_on_c, 0, 57, 67
1, 291145, Note_on_c, 0, 93, 84
1, 291145, Control_c, 0, 64, 127
1, 291181, Note_off_c, 0, 57, 57
1, 291207, Note_off_c, 0, 93, 62
1, 291210, Note_on_c, 0, 61, 68
1, 291224, Note_on_c, 0, 87, 78
1, 291224, Note_on_c, 0, 90, 76
1, 291238, Note_off_c, 0, 61, 66
1, 291270, Note_off_c, 0, 90, 61
1, 291270, Note_off_c, 0, 87, 67
1, 291273, Note_on_c, 0, 67, 60
1, 291296, Note_on_c, 0, 93, 80
1, 291300, Note_off_c, 0, 67, 65
1, 291353, Note_off_c, 0, 93, 53
1, 291364, Note_on_c, 0, 91, 90
1, 291365, Note_on_c, 0, 69, 68
1, 291365, Note_on_c, 0, 88, 82
1, 291388, Note_off_c, 0, 88, 69
1, 291402, Note_off_c, 0, 91, 66
1, 291410, Note_off_c, 0, 69, 60
1, 291442, Note_on_c, 0, 73, 66
1, 291476, Note_off_c, 0, 73, 67
1, 291529, Note_on_c, 0, 79, 65
1, 291580, Note_off_c, 0, 79, 62
1, 291591, Note_on_c, 0, 73, 63
1, 291654, Note_off_c, 0, 73, 63
1, 291661, Note_on_c, 0, 90, 67
1, 291663, Note_on_c, 0, 87, 73
1, 291684, Note_on_c, 0, 69, 56
1, 291695, Note_off_c, 0, 90, 62
1, 291709, Note_off_c, 0, 69, 67
1, 291714, Note_off_c, 0, 87, 64
1, 291726, Note_on_c, 0, 91, 73
1, 291730, Control_c, 0, 64, 120
1, 291745, Control_c, 0, 64, 101
1, 291749, Note_on_c, 0, 88, 64
1, 291760, Control_c, 0, 64, 86
1, 291765, Note_on_c, 0, 67, 64
1, 291774, Note_off_c, 0, 91, 61
1, 291775, Control_c, 0, 64, 75
1, 291789, Control_c, 0, 64, 62
1, 291793, Note_off_c, 0, 88, 53
1, 291794, Note_off_c, 0, 67, 65
1, 291804, Control_c, 0, 64, 0
1, 291813, Note_on_c, 0, 87, 81
1, 291813, Note_on_c, 0, 90, 75
1, 291833, Note_on_c, 0, 61, 72
1, 291844, Note_off_c, 0, 87, 63
1, 291883, Note_on_c, 0, 91, 84
1, 291893, Note_off_c, 0, 61, 62
1, 291893, Note_on_c, 0, 88, 80
1, 291893, Control_c, 0, 64, 12
1, 291908, Note_off_c, 0, 90, 62
1, 291909, Control_c, 0, 64, 64
1, 291911, Note_on_c, 0, 57, 65
1, 291916, Note_off_c, 0, 91, 66
1, 291917, Note_off_c, 0, 88, 69
1, 291924, Control_c, 0, 64, 76
1, 291938, Control_c, 0, 64, 98
1, 291952, Control_c, 0, 64, 127
1, 291975, Note_on_c, 0, 50, 77
1, 291977, Note_on_c, 0, 100, 100
1, 291978, Note_off_c, 0, 57, 61
1, 291982, Note_on_c, 0, 97, 88
1, 292000, Note_off_c, 0, 97, 73
1, 292000, Note_off_c, 0, 100, 66
1, 292012, Note_off_c, 0, 50, 57
1, 292045, Note_on_c, 0, 57, 63
1, 292113, Note_off_c, 0, 57, 61
1, 292131, Note_on_c, 0, 98, 81
1, 292136, Note_on_c, 0, 61, 60
1, 292140, Note_on_c, 0, 95, 71
1, 292165, Note_off_c, 0, 61, 64
1, 292167, Note_off_c, 0, 95, 66
1, 292184, Note_on_c, 0, 67, 58
1, 292190, Control_c, 0, 64, 114
1, 292194, Note_on_c, 0, 100, 89
1, 292204, Control_c, 0, 64, 99
1, 292210, Note_off_c, 0, 98, 62
1, 292211, Note_off_c, 0, 67, 65
1, 292227, Control_c, 0, 64, 88
1, 292242, Control_c, 0, 64, 78
1, 292256, Control_c, 0, 64, 64
1, 292257, Note_off_c, 0, 100, 61
1, 292271, Control_c, 0, 64, 0
1, 292275, Note_on_c, 0, 93, 75
1, 292278, Note_on_c, 0, 97, 76
1, 292280, Note_on_c, 0, 69, 67
1, 292310, Note_off_c, 0, 97, 66
1, 292317, Note_off_c, 0, 69, 62
1, 292317, Note_off_c, 0, 93, 63
1, 292343, Note_on_c, 0, 73, 71
1, 292343, Note_on_c, 0, 98, 82
1, 292371, Note_off_c, 0, 73, 66
1, 292401, Note_off_c, 0, 98, 66
1, 292408, Note_on_c, 0, 95, 81
1, 292423, Note_on_c, 0, 91, 63
1, 292426, Note_on_c, 0, 79, 69
1, 292458, Note_off_c, 0, 91, 65
1, 292460, Note_off_c, 0, 79, 62
1, 292463, Control_c, 0, 64, 12
1, 292478, Control_c, 0, 64, 22
1, 292480, Note_on_c, 0, 97, 84
1, 292487, Note_on_c, 0, 73, 65
1, 292492, Note_off_c, 0, 95, 64
1, 292493, Control_c, 0, 64, 28
1, 292504, Note_off_c, 0, 97, 69
1, 292508, Control_c, 0, 64, 31
1, 292522, Control_c, 0, 64, 32
1, 292529, Note_off_c, 0, 73, 61
1, 292537, Control_c, 0, 64, 33
1, 292561, Note_on_c, 0, 69, 64
1, 292569, Note_on_c, 0, 93, 89
1, 292574, Note_on_c, 0, 90, 79
1, 292592, Note_off_c, 0, 69, 65
1, 292596, Note_off_c, 0, 90, 67
1, 292611, Control_c, 0, 64, 30
1, 292623, Note_off_c, 0, 93, 63
1, 292626, Control_c, 0, 64, 27
1, 292629, Note_on_c, 0, 95, 83
1, 292641, Control_c, 0, 64, 18
1, 292649, Note_on_c, 0, 67, 54
1, 292656, Control_c, 0, 64, 0
1, 292672, Note_off_c, 0, 67, 61
1, 292701, Note_off_c, 0, 95, 64
1, 292704, Note_on_c, 0, 91, 77
1, 292705, Note_on_c, 0, 88, 72
1, 292710, Note_on_c, 0, 61, 67
1, 292735, Note_off_c, 0, 88, 66
1, 292740, Note_off_c, 0, 61, 66
1, 292771, Note_on_c, 0, 57, 69
1, 292771, Note_off_c, 0, 91, 60
1, 292773, Note_on_c, 0, 93, 87
1, 292805, Note_off_c, 0, 57, 58
1, 292805, Control_c, 0, 64, 15
1, 292820, Control_c, 0, 64, 47
1, 292829, Note_off_c, 0, 93, 59
1, 292830, Note_on_c, 0, 50, 66
1, 292835, Control_c, 0, 64, 63
1, 292844, Note_on_c, 0, 86, 68
1, 292847, Note_on_c, 0, 90, 76
1, 292850, Control_c, 0, 64, 70
1, 292865, Control_c, 0, 64, 80
1, 292871, Note_off_c, 0, 86, 68
1, 292874, Note_off_c, 0, 50, 55
1, 292879, Control_c, 0, 64, 92
1, 292888, Note_off_c, 0, 90, 65
1, 292894, Control_c, 0, 64, 104
1, 292909, Control_c, 0, 64, 115
1, 292917, Note_on_c, 0, 91, 80
1, 292922, Note_on_c, 0, 59, 40
1, 292924, Control_c, 0, 64, 127
1, 292930, Note_on_c, 0, 57, 29
1, 292951, Note_off_c, 0, 59, 49
1, 292960, Note_off_c, 0, 57, 44
1, 292969, Note_off_c, 0, 91, 64
1, 292979, Note_on_c, 0, 88, 76
1, 292981, Note_on_c, 0, 62, 52
1, 292989, Note_on_c, 0, 85, 78
1, 293008, Note_off_c, 0, 62, 61
1, 293014, Note_off_c, 0, 88, 57
1, 293030, Note_off_c, 0, 85, 60
1, 293043, Note_on_c, 0, 91, 86
1, 293064, Note_on_c, 0, 66, 72
1, 293086, Note_off_c, 0, 91, 65
1, 293106, Note_off_c, 0, 66, 62
1, 293118, Note_on_c, 0, 69, 72
1, 293121, Note_on_c, 0, 86, 79
1, 293121, Note_on_c, 0, 90, 92
1, 293139, Control_c, 0, 67, 12
1, 293141, Note_off_c, 0, 86, 71
1, 293142, Note_off_c, 0, 69, 67
1, 293153, Control_c, 0, 67, 20
1, 293154, Note_off_c, 0, 90, 65
1, 293168, Control_c, 0, 67, 31
1, 293183, Control_c, 0, 67, 43
1, 293198, Note_on_c, 0, 74, 65
1, 293198, Control_c, 0, 67, 56
1, 293213, Control_c, 0, 67, 69
1, 293227, Control_c, 0, 67, 84
1, 293242, Control_c, 0, 67, 93
1, 293255, Note_off_c, 0, 74, 58
1, 293257, Control_c, 0, 67, 100
1, 293271, Control_c, 0, 67, 105
1, 293278, Note_on_c, 0, 78, 64
1, 293286, Control_c, 0, 67, 108
1, 293301, Control_c, 0, 67, 112
1, 293307, Note_off_c, 0, 78, 66
1, 293316, Control_c, 0, 67, 115
1, 293331, Control_c, 0, 67, 119
1, 293345, Control_c, 0, 67, 123
1, 293360, Note_on_c, 0, 74, 47
1, 293360, Control_c, 0, 64, 112
1, 293360, Control_c, 0, 67, 127
1, 293375, Control_c, 0, 64, 95
1, 293387, Note_off_c, 0, 74, 55
1, 293390, Control_c, 0, 64, 81
1, 293404, Control_c, 0, 64, 67
1, 293416, Note_on_c, 0, 92, 72
1, 293419, Note_on_c, 0, 89, 71
1, 293419, Control_c, 0, 64, 0
1, 293431, Note_on_c, 0, 69, 57
1, 293455, Note_off_c, 0, 89, 67
1, 293465, Note_off_c, 0, 69, 53
1, 293485, Note_off_c, 0, 92, 55
1, 293498, Note_on_c, 0, 93, 69
1, 293504, Note_on_c, 0, 90, 66
1, 293511, Note_on_c, 0, 66, 62
1, 293532, Note_off_c, 0, 66, 63
1, 293549, Note_off_c, 0, 93, 56
1, 293552, Note_off_c, 0, 90, 60
1, 293572, Note_on_c, 0, 89, 71
1, 293591, Note_on_c, 0, 92, 60
1, 293594, Note_on_c, 0, 62, 63
1, 293606, Note_off_c, 0, 89, 64
1, 293629, Note_off_c, 0, 62, 61
1, 293657, Note_on_c, 0, 93, 58
1, 293659, Note_off_c, 0, 92, 65
1, 293669, Note_on_c, 0, 90, 46
1, 293670, Note_off_c, 0, 90, 127
1, 293672, Note_on_c, 0, 57, 64
1, 293678, Note_off_c, 0, 93, 60
1, 293732, Note_off_c, 0, 57, 58
1, 293758, Note_on_c, 0, 102, 96
1, 293762, Note_on_c, 0, 50, 62
1, 293770, Note_on_c, 0, 98, 63
1, 293783, Note_off_c, 0, 102, 63
1, 293787, Note_off_c, 0, 98, 64
1, 293816, Note_off_c, 0, 50, 54
1, 293850, Note_on_c, 0, 57, 57
1, 293881, Note_off_c, 0, 57, 64
1, 293925, Note_on_c, 0, 62, 52
1, 293934, Note_on_c, 0, 100, 73
1, 293935, Note_on_c, 0, 97, 66
1, 293956, Note_off_c, 0, 62, 62
1, 293958, Note_off_c, 0, 97, 65
1, 293981, Note_off_c, 0, 100, 60
1, 293988, Note_on_c, 0, 102, 80
1, 294015, Note_on_c, 0, 66, 68
1, 294039, Note_off_c, 0, 102, 65
1, 294048, Note_off_c, 0, 66, 66
1, 294074, Note_on_c, 0, 95, 70
1, 294080, Note_on_c, 0, 69, 50
1, 294095, Note_on_c, 0, 98, 46
1, 294099, Note_off_c, 0, 95, 66
1, 294103, Note_off_c, 0, 69, 58
1, 294154, Note_on_c, 0, 74, 53
1, 294158, Poly_aftertouch_c, 0, 100, 127
1, 294169, Note_off_c, 0, 98, 41
1, 294197, Note_off_c, 0, 74, 56
1, 294200, Poly_aftertouch_c, 0, 100, 0
1, 294218, Note_on_c, 0, 93, 68
1, 294224, Note_on_c, 0, 78, 67
1, 294227, Note_on_c, 0, 97, 66
1, 294248, Note_off_c, 0, 93, 65
1, 294252, Note_off_c, 0, 78, 68
1, 294257, Note_off_c, 0, 97, 68
1, 294283, Note_on_c, 0, 98, 81
1, 294304, Note_on_c, 0, 74, 58
1, 294322, Note_off_c, 0, 74, 66
1, 294334, Note_off_c, 0, 98, 65
1, 294350, Note_on_c, 0, 95, 82
1, 294355, Note_on_c, 0, 91, 68
1, 294371, Note_on_c, 0, 69, 62
1, 294384, Note_off_c, 0, 91, 68
1, 294403, Note_off_c, 0, 69, 65
1, 294425, Note_off_c, 0, 95, 65
1, 294429, Note_on_c, 0, 97, 64
1, 294433, Note_on_c, 0, 66, 70
1, 294446, Note_off_c, 0, 97, 64
1, 294458, Note_off_c, 0, 66, 67
1, 294504, Note_on_c, 0, 93, 91
1, 294514, Note_on_c, 0, 62, 71
1, 294516, Note_on_c, 0, 90, 68
1, 294534, Note_off_c, 0, 90, 66
1, 294543, Note_off_c, 0, 62, 65
1, 294553, Note_off_c, 0, 93, 57
1, 294591, Note_on_c, 0, 57, 53
1, 294595, Note_on_c, 0, 95, 58
1, 294596, Note_on_c, 0, 93, 56
1, 294624, Note_off_c, 0, 57, 62
1, 294634, Note_off_c, 0, 93, 65
1, 294636, Note_off_c, 0, 95, 66
1, 294642, Note_on_c, 0, 50, 54
1, 294647, Note_on_c, 0, 91, 66
1, 294665, Note_on_c, 0, 88, 42
1, 294670, Note_off_c, 0, 50, 55
1, 294689, Note_off_c, 0, 88, 55
1, 294692, Note_off_c, 0, 91, 55
1, 294701, Note_on_c, 0, 57, 68
1, 294714, Note_on_c, 0, 93, 83
1, 294749, Note_off_c, 0, 57, 58
1, 294768, Note_off_c, 0, 93, 60
1, 294770, Control_c, 0, 64, 43
1, 294785, Note_on_c, 0, 90, 72
1, 294785, Control_c, 0, 64, 63
1, 294787, Note_on_c, 0, 61, 48
1, 294796, Note_on_c, 0, 87, 55
1, 294799, Control_c, 0, 64, 70
1, 294812, Note_off_c, 0, 61, 57
1, 294814, Control_c, 0, 64, 79
1, 294819, Note_off_c, 0, 87, 67
1, 294829, Control_c, 0, 64, 91
1, 294833, Note_on_c, 0, 67, 49
1, 294838, Note_off_c, 0, 90, 61
1, 294844, Control_c, 0, 64, 101
1, 294845, Note_on_c, 0, 93, 76
1, 294855, Note_off_c, 0, 67, 59
1, 294859, Control_c, 0, 64, 107
1, 294874, Control_c, 0, 64, 115
1, 294884, Note_off_c, 0, 93, 53
1, 294889, Control_c, 0, 64, 127
1, 294910, Note_on_c, 0, 91, 79
1, 294916, Note_on_c, 0, 88, 68
1, 294920, Note_on_c, 0, 69, 60
1, 294939, Note_off_c, 0, 91, 65
1, 294939, Note_off_c, 0, 88, 67
1, 294951, Note_off_c, 0, 69, 65
1, 294987, Note_on_c, 0, 73, 66
1, 295015, Note_off_c, 0, 73, 67
1, 295074, Note_on_c, 0, 79, 56
1, 295081, Control_c, 0, 64, 117
1, 295097, Control_c, 0, 64, 106
1, 295112, Control_c, 0, 64, 96
1, 295114, Note_off_c, 0, 79, 59
1, 295123, Note_on_c, 0, 73, 59
1, 295127, Control_c, 0, 64, 87
1, 295141, Control_c, 0, 64, 75
1, 295156, Control_c, 0, 64, 64
1, 295171, Control_c, 0, 64, 0
1, 295175, Note_off_c, 0, 73, 60
1, 295188, Note_on_c, 0, 87, 58
1, 295190, Note_on_c, 0, 90, 49
1, 295201, Note_on_c, 0, 69, 57
1, 295221, Note_off_c, 0, 90, 58
1, 295225, Note_off_c, 0, 87, 67
1, 295234, Note_off_c, 0, 69, 66
1, 295253, Note_on_c, 0, 91, 67
1, 295273, Note_on_c, 0, 88, 63
1, 295285, Note_off_c, 0, 91, 64
1, 295306, Note_off_c, 0, 88, 60
1, 295317, Note_on_c, 0, 67, 7
1, 295333, Note_on_c, 0, 87, 67
1, 295349, Note_on_c, 0, 90, 46
1, 295353, Note_on_c, 0, 61, 68
1, 295358, Note_off_c, 0, 67, 39
1, 295371, Note_off_c, 0, 87, 64
1, 295391, Note_off_c, 0, 61, 54
1, 295400, Note_on_c, 0, 91, 68
1, 295404, Note_on_c, 0, 88, 67
1, 295410, Note_off_c, 0, 90, 64
1, 295424, Note_off_c, 0, 91, 68
1, 295429, Note_off_c, 0, 88, 68
1, 295430, Note_on_c, 0, 57, 69
1, 295486, Note_on_c, 0, 100, 99
1, 295492, Note_off_c, 0, 57, 60
1, 295496, Note_on_c, 0, 50, 67
1, 295496, Note_on_c, 0, 97, 81
1, 295506, Note_off_c, 0, 100, 67
1, 295517, Note_off_c, 0, 97, 72
1, 295532, Note_off_c, 0, 50, 64
1, 295564, Note_on_c, 0, 57, 51
1, 295626, Note_off_c, 0, 57, 56
1, 295646, Note_on_c, 0, 98, 77
1, 295646, Note_on_c, 0, 61, 61
1, 295652, Note_on_c, 0, 95, 70
1, 295675, Note_off_c, 0, 61, 65
1, 295679, Note_off_c, 0, 95, 64
1, 295699, Note_on_c, 0, 67, 50
1, 295711, Note_on_c, 0, 100, 81
1, 295723, Note_off_c, 0, 67, 62
1, 295726, Note_off_c, 0, 98, 58
1, 295760, Note_off_c, 0, 100, 62
1, 295775, Note_on_c, 0, 93, 69
1, 295780, Note_on_c, 0, 69, 67
1, 295784, Note_on_c, 0, 97, 70
1, 295815, Note_off_c, 0, 97, 68
1, 295818, Note_off_c, 0, 93, 62
1, 295827, Note_off_c, 0, 69, 61
1, 295841, Note_on_c, 0, 98, 86
1, 295844, Note_on_c, 0, 73, 71
1, 295880, Note_off_c, 0, 73, 63
1, 295888, Note_off_c, 0, 98, 65
1, 295912, Note_on_c, 0, 95, 85
1, 295919, Note_on_c, 0, 91, 72
1, 295926, Note_on_c, 0, 79, 69
1, 295953, Note_off_c, 0, 91, 65
1, 295968, Note_off_c, 0, 79, 62
1, 295994, Note_off_c, 0, 95, 64
1, 295995, Note_on_c, 0, 97, 72
1, 295998, Note_on_c, 0, 73, 68
1, 296021, Note_off_c, 0, 97, 68
1, 296035, Note_off_c, 0, 73, 62
1, 296063, Note_on_c, 0, 93, 88
1, 296069, Note_on_c, 0, 69, 64
1, 296069, Note_on_c, 0, 90, 80
1, 296097, Note_off_c, 0, 90, 61
1, 296102, Note_off_c, 0, 69, 68
1, 296136, Note_off_c, 0, 93, 62
1, 296139, Note_on_c, 0, 95, 78
1, 296165, Note_on_c, 0, 67, 46
1, 296188, Note_off_c, 0, 67, 58
1, 296199, Note_off_c, 0, 95, 63
1, 296204, Note_on_c, 0, 88, 72
1, 296206, Note_on_c, 0, 91, 72
1, 296239, Note_off_c, 0, 88, 66
1, 296243, Note_on_c, 0, 60, 49
1, 296269, Note_off_c, 0, 60, 55
1, 296272, Note_off_c, 0, 91, 59
1, 296275, Note_on_c, 0, 93, 86
1, 296293, Note_on_c, 0, 57, 51
1, 296323, Note_off_c, 0, 57, 62
1, 296334, Note_off_c, 0, 93, 58
1, 296334, Note_on_c, 0, 50, 62
1, 296349, Note_on_c, 0, 90, 77
1, 296349, Note_on_c, 0, 86, 63
1, 296375, Note_off_c, 0, 86, 68
1, 296392, Note_off_c, 0, 50, 59
1, 296397, Note_off_c, 0, 90, 67
1, 296401, Note_on_c, 0, 57, 64
1, 296408, Note_on_c, 0, 91, 78
1, 296432, Note_off_c, 0, 57, 66
1, 296459, Note_off_c, 0, 91, 61
1, 296473, Note_on_c, 0, 62, 61
1, 296473, Note_on_c, 0, 85, 78
1, 296473, Note_on_c, 0, 88, 73
1, 296506, Note_off_c, 0, 62, 64
1, 296513, Note_off_c, 0, 85, 63
1, 296533, Note_off_c, 0, 88, 62
1, 296534, Note_on_c, 0, 90, 79
1, 296564, Note_on_c, 0, 66, 68
1, 296575, Note_off_c, 0, 90, 65
1, 296603, Note_off_c, 0, 66, 65
1, 296612, Note_on_c, 0, 83, 75
1, 296613, Note_on_c, 0, 69, 69
1, 296619, Note_on_c, 0, 86, 70
1, 296639, Note_off_c, 0, 69, 66
1, 296650, Note_off_c, 0, 83, 62
1, 296677, Note_off_c, 0, 86, 62
1, 296679, Note_on_c, 0, 88, 82
1, 296694, Note_on_c, 0, 74, 60
1, 296744, Note_off_c, 0, 88, 58
1, 296759, Note_off_c, 0, 74, 45
1, 296762, Note_on_c, 0, 81, 77
1, 296768, Note_on_c, 0, 85, 71
1, 296771, Note_on_c, 0, 78, 72
1, 296793, Note_off_c, 0, 81, 68
1, 296799, Note_off_c, 0, 78, 66
1, 296804, Note_off_c, 0, 85, 65
1, 296826, Note_on_c, 0, 86, 76
1, 296841, Note_on_c, 0, 74, 62
1, 296873, Note_off_c, 0, 74, 66
1, 296880, Note_off_c, 0, 86, 65
1, 296884, Note_on_c, 0, 83, 85
1, 296893, Note_on_c, 0, 79, 71
1, 296916, Note_on_c, 0, 69, 66
1, 296927, Note_off_c, 0, 79, 62
1, 296947, Note_off_c, 0, 69, 66
1, 296956, Note_on_c, 0, 85, 73
1, 296957, Note_off_c, 0, 83, 67
1, 296978, Note_off_c, 0, 85, 68
1, 296982, Note_on_c, 0, 66, 73
1, 297009, Note_off_c, 0, 66, 67
1, 297034, Note_on_c, 0, 81, 88
1, 297038, Note_on_c, 0, 78, 73
1, 297058, Note_on_c, 0, 62, 66
1, 297061, Note_off_c, 0, 78, 68
1, 297089, Note_off_c, 0, 62, 62
1, 297092, Note_off_c, 0, 81, 66
1, 297099, Note_on_c, 0, 83, 67
1, 297133, Note_on_c, 0, 57, 54
1, 297136, Note_off_c, 0, 83, 58
1, 297158, Note_on_c, 0, 79, 79
1, 297163, Note_on_c, 0, 50, 71
1, 297163, Note_on_c, 0, 76, 63
1, 297164, Note_off_c, 0, 57, 64
1, 297184, Note_off_c, 0, 76, 66
1, 297190, Note_off_c, 0, 79, 63
1, 297228, Note_off_c, 0, 50, 62
1, 297236, Note_on_c, 0, 57, 69
1, 297237, Note_on_c, 0, 88, 67
1, 297276, Note_off_c, 0, 57, 60
1, 297286, Note_off_c, 0, 88, 62
1, 297292, Note_on_c, 0, 86, 75
1, 297300, Note_on_c, 0, 83, 71
1, 297306, Note_on_c, 0, 61, 63
1, 297329, Note_off_c, 0, 83, 70
1, 297333, Note_off_c, 0, 61, 66
1, 297365, Note_on_c, 0, 88, 83
1, 297366, Note_on_c, 0, 67, 61
1, 297402, Note_off_c, 0, 86, 51
1, 297402, Note_off_c, 0, 67, 63
1, 297426, Note_off_c, 0, 88, 58
1, 297438, Note_on_c, 0, 85, 72
1, 297439, Note_on_c, 0, 81, 80
1, 297446, Control_c, 0, 64, 12
1, 297448, Note_on_c, 0, 69, 61
1, 297469, Control_c, 0, 64, 15
1, 297476, Note_off_c, 0, 85, 67
1, 297480, Note_off_c, 0, 81, 66
1, 297484, Control_c, 0, 64, 18
1, 297497, Note_off_c, 0, 69, 59
1, 297511, Note_on_c, 0, 86, 79
1, 297518, Note_on_c, 0, 73, 72
1, 297565, Note_off_c, 0, 86, 64
1, 297570, Note_on_c, 0, 83, 84
1, 297580, Note_off_c, 0, 73, 63
1, 297584, Note_on_c, 0, 79, 70
1, 297593, Note_on_c, 0, 69, 74
1, 297616, Note_off_c, 0, 79, 62
1, 297618, Control_c, 0, 64, 12
1, 297622, Note_off_c, 0, 69, 67
1, 297633, Control_c, 0, 64, 0
1, 297644, Note_off_c, 0, 83, 67
1, 297646, Note_on_c, 0, 85, 71
1, 297669, Note_off_c, 0, 85, 68
1, 297719, Note_on_c, 0, 81, 94
1, 297723, Note_on_c, 0, 67, 60
1, 297726, Note_on_c, 0, 78, 76
1, 297747, Note_off_c, 0, 78, 69
1, 297753, Note_off_c, 0, 67, 65
1, 297774, Note_off_c, 0, 81, 66
1, 297785, Note_on_c, 0, 83, 79
1, 297844, Note_off_c, 0, 83, 67
1, 297852, Note_on_c, 0, 79, 73
1, 297857, Note_on_c, 0, 61, 57
1, 297858, Note_on_c, 0, 76, 60
1, 297887, Note_off_c, 0, 76, 64
1, 297889, Note_off_c, 0, 61, 65
1, 297917, Note_off_c, 0, 79, 58
1, 297922, Note_on_c, 0, 81, 88
1, 297984, Note_off_c, 0, 81, 61
1, 297997, Note_on_c, 0, 78, 75
1, 297998, Note_on_c, 0, 50, 66
1, 297999, Note_on_c, 0, 74, 63
1, 298028, Note_off_c, 0, 74, 68
1, 298048, Note_on_c, 0, 57, 66
1, 298053, Note_off_c, 0, 50, 60
1, 298059, Note_off_c, 0, 78, 63
1, 298070, Note_on_c, 0, 79, 57
1, 298075, Note_off_c, 0, 57, 66
1, 298107, Note_off_c, 0, 79, 64
1, 298123, Note_on_c, 0, 62, 56
1, 298129, Note_on_c, 0, 73, 76
1, 298132, Note_on_c, 0, 76, 69
1, 298153, Note_off_c, 0, 62, 62
1, 298163, Note_off_c, 0, 73, 65
1, 298188, Note_off_c, 0, 76, 63
1, 298191, Note_on_c, 0, 78, 78
1, 298208, Note_on_c, 0, 66, 76
1, 298227, Note_off_c, 0, 78, 67
1, 298261, Note_off_c, 0, 66, 62
1, 298278, Note_on_c, 0, 71, 72
1, 298284, Note_on_c, 0, 74, 68
1, 298289, Note_on_c, 0, 69, 66
1, 298311, Note_off_c, 0, 71, 64
1, 298322, Note_off_c, 0, 69, 66
1, 298338, Note_off_c, 0, 74, 65
1, 298346, Note_on_c, 0, 76, 77
1, 298357, Note_on_c, 0, 66, 71
1, 298382, Note_off_c, 0, 66, 68
1, 298402, Note_off_c, 0, 76, 56
1, 298424, Note_on_c, 0, 69, 70
1, 298430, Note_on_c, 0, 73, 72
1, 298445, Note_on_c, 0, 62, 67
1, 298453, Note_off_c, 0, 69, 68
1, 298460, Note_off_c, 0, 73, 68
1, 298486, Note_off_c, 0, 62, 57
1, 298490, Note_on_c, 0, 74, 72
1, 298537, Note_off_c, 0, 74, 63
1, 298542, Note_on_c, 0, 71, 76
1, 298557, Note_on_c, 0, 67, 57
1, 298579, Note_off_c, 0, 67, 63
1, 298582, Note_on_c, 0, 57, 39
1, 298611, Note_off_c, 0, 57, 53
1, 298614, Note_on_c, 0, 73, 67
1, 298614, Note_off_c, 0, 71, 65
1, 298639, Note_off_c, 0, 73, 68
1, 298677, Note_on_c, 0, 62, 31
1, 298682, Note_on_c, 0, 69, 86
1, 298690, Note_on_c, 0, 66, 79
1, 298709, Note_off_c, 0, 62, 47
1, 298713, Note_off_c, 0, 66, 68
1, 298736, Note_off_c, 0, 69, 66
1, 298758, Note_on_c, 0, 71, 50
1, 298794, Note_off_c, 0, 71, 49
1, 298804, Note_on_c, 0, 67, 86
1, 298808, Note_on_c, 0, 64, 73
1, 298809, Note_on_c, 0, 50, 66
1, 298831, Note_off_c, 0, 64, 68
1, 298835, Note_off_c, 0, 67, 64
1, 298859, Note_off_c, 0, 50, 57
1, 298886, Note_on_c, 0, 57, 56
1, 298889, Note_on_c, 0, 76, 63
1, 298918, Note_off_c, 0, 57, 61
1, 298933, Note_on_c, 0, 61, 70
1, 298934, Note_off_c, 0, 76, 65
1, 298942, Note_on_c, 0, 74, 65
1, 298956, Note_on_c, 0, 71, 48
1, 298967, Note_off_c, 0, 61, 67
1, 298987, Note_off_c, 0, 71, 59
1, 299014, Note_on_c, 0, 64, 57
1, 299021, Note_on_c, 0, 76, 82
1, 299032, Note_off_c, 0, 74, 59
1, 299059, Note_off_c, 0, 64, 54
1, 299071, Note_off_c, 0, 76, 61
1, 299083, Note_on_c, 0, 67, 66
1, 299098, Note_on_c, 0, 69, 65
1, 299103, Note_on_c, 0, 73, 66
1, 299123, Note_off_c, 0, 67, 64
1, 299126, Note_off_c, 0, 69, 66
1, 299128, Note_off_c, 0, 73, 66
1, 299153, Note_on_c, 0, 74, 80
1, 299161, Note_on_c, 0, 64, 63
1, 299194, Note_off_c, 0, 64, 64
1, 299203, Note_off_c, 0, 74, 61
1, 299217, Note_on_c, 0, 71, 74
1, 299232, Note_on_c, 0, 67, 65
1, 299253, Note_off_c, 0, 67, 64
1, 299254, Note_on_c, 0, 61, 65
1, 299276, Note_off_c, 0, 71, 65
1, 299292, Note_on_c, 0, 73, 48
1, 299294, Note_off_c, 0, 61, 59
1, 299315, Note_off_c, 0, 73, 59
1, 299345, Note_on_c, 0, 69, 81
1, 299361, Note_on_c, 0, 66, 62
1, 299362, Note_on_c, 0, 57, 55
1, 299384, Note_off_c, 0, 66, 63
1, 299393, Note_off_c, 0, 69, 60
1, 299410, Note_off_c, 0, 57, 57
1, 299420, Note_on_c, 0, 71, 65
1, 299473, Note_off_c, 0, 71, 65
1, 299491, Note_on_c, 0, 61, 63
1, 299491, Note_on_c, 0, 64, 44
1, 299511, Note_on_c, 0, 67, 19
1, 299513, Note_on_c, 0, 69, 18
1, 299516, Note_off_c, 0, 64, 55
1, 299525, Note_off_c, 0, 61, 65
1, 299548, Note_on_c, 0, 71, 73
1, 299551, Note_off_c, 0, 67, 42
1, 299551, Note_off_c, 0, 69, 41
1, 299589, Note_off_c, 0, 71, 55
1, 299622, Note_on_c, 0, 69, 75
1, 299641, Note_on_c, 0, 66, 62
1, 299668, Note_off_c, 0, 66, 66
1, 299685, Note_off_c, 0, 69, 62
1, 299688, Note_on_c, 0, 71, 69
1, 299733, Note_off_c, 0, 71, 60
1, 299742, Note_on_c, 0, 68, 71
1, 299747, Note_on_c, 0, 65, 59
1, 299770, Note_on_c, 0, 62, 50
1, 299780, Note_off_c, 0, 65, 67
1, 299804, Note_off_c, 0, 68, 62
1, 299805, Note_off_c, 0, 62, 62
1, 299822, Note_on_c, 0, 71, 72
1, 299831, Note_on_c, 0, 57, 61
1, 299854, Note_off_c, 0, 71, 60
1, 299864, Note_off_c, 0, 57, 64
1, 299873, Note_on_c, 0, 69, 62
1, 299895, Note_on_c, 0, 66, 64
1, 299898, Note_on_c, 0, 62, 53
1, 299923, Note_off_c, 0, 66, 67
1, 299938, Note_off_c, 0, 62, 63
1, 299941, Note_on_c, 0, 71, 78
1, 299946, Note_off_c, 0, 69, 64
1, 299957, Note_on_c, 0, 57, 53
1, 299993, Note_off_c, 0, 57, 64
1, 299998, Note_off_c, 0, 71, 63
1, 300005, Note_on_c, 0, 50, 63
1, 300006, Note_on_c, 0, 67, 72
1, 300010, Note_on_c, 0, 64, 67
1, 300043, Note_off_c, 0, 50, 65
1, 300043, Note_off_c, 0, 64, 64
1, 300048, Note_off_c, 0, 67, 54
1, 300071, Note_on_c, 0, 57, 67
1, 300082, Note_on_c, 0, 71, 59
1, 300122, Note_off_c, 0, 71, 63
1, 300129, Note_off_c, 0, 57, 62
1, 300144, Note_on_c, 0, 69, 66
1, 300148, Note_on_c, 0, 61, 64
1, 300159, Note_on_c, 0, 66, 61
1, 300187, Note_off_c, 0, 66, 67
1, 300189, Note_off_c, 0, 61, 59
1, 300210, Note_on_c, 0, 71, 69
1, 300218, Note_off_c, 0, 69, 64
1, 300221, Note_on_c, 0, 57, 43
1, 300254, Note_off_c, 0, 57, 61
1, 300261, Note_off_c, 0, 71, 62
1, 300269, Note_on_c, 0, 64, 64
1, 300274, Note_on_c, 0, 67, 67
1, 300276, Note_on_c, 0, 61, 62
1, 300302, Note_off_c, 0, 64, 66
1, 300311, Note_off_c, 0, 61, 63
1, 300317, Note_off_c, 0, 67, 55
1, 300344, Note_on_c, 0, 57, 54
1, 300351, Note_on_c, 0, 71, 56
1, 300374, Note_off_c, 0, 71, 58
1, 300376, Note_off_c, 0, 57, 62
1, 300394, Note_on_c, 0, 50, 66
1, 300409, Note_on_c, 0, 69, 76
1, 300427, Note_on_c, 0, 66, 71
1, 300454, Note_off_c, 0, 66, 67
1, 300454, Note_off_c, 0, 50, 59
1, 300467, Note_on_c, 0, 57, 60
1, 300487, Note_on_c, 0, 71, 56
1, 300493, Note_off_c, 0, 69, 63
1, 300508, Note_off_c, 0, 57, 60
1, 300546, Note_on_c, 0, 62, 56
1, 300550, Note_off_c, 0, 71, 63
1, 300554, Note_on_c, 0, 65, 64
1, 300558, Note_on_c, 0, 68, 69
1, 300582, Note_off_c, 0, 62, 61
1, 300583, Note_off_c, 0, 65, 66
1, 300616, Note_off_c, 0, 68, 63
1, 300617, Note_on_c, 0, 57, 53
1, 300632, Note_on_c, 0, 71, 53
1, 300644, Note_off_c, 0, 57, 59
1, 300663, Note_off_c, 0, 71, 63
1, 300673, Note_on_c, 0, 62, 58
1, 300682, Note_on_c, 0, 69, 68
1, 300704, Note_on_c, 0, 66, 63
1, 300715, Note_off_c, 0, 62, 60
1, 300731, Note_on_c, 0, 57, 52
1, 300734, Note_off_c, 0, 66, 67
1, 300752, Note_on_c, 0, 71, 71
1, 300755, Note_off_c, 0, 69, 64
1, 300777, Note_off_c, 0, 57, 62
1, 300803, Note_on_c, 0, 50, 57
1, 300803, Note_off_c, 0, 71, 59
1, 300819, Note_on_c, 0, 64, 61
1, 300824, Note_on_c, 0, 67, 63
1, 300847, Note_off_c, 0, 50, 61
1, 300853, Note_off_c, 0, 64, 65
1, 300861, Note_off_c, 0, 67, 61
1, 300877, Note_on_c, 0, 57, 55
1, 300891, Note_on_c, 0, 71, 63
1, 300913, Note_off_c, 0, 57, 65
1, 300925, Control_c, 0, 67, 119
1, 300926, Note_off_c, 0, 71, 54
1, 300933, Note_on_c, 0, 61, 61
1, 300939, Control_c, 0, 67, 107
1, 300954, Control_c, 0, 67, 93
1, 300962, Note_on_c, 0, 69, 62
1, 300969, Control_c, 0, 67, 79
1, 300973, Note_on_c, 0, 66, 66
1, 300984, Control_c, 0, 67, 64
1, 300986, Note_off_c, 0, 61, 57
1, 300999, Control_c, 0, 67, 50
1, 301006, Note_off_c, 0, 66, 68
1, 301011, Note_on_c, 0, 57, 48
1, 301013, Control_c, 0, 67, 40
1, 301028, Control_c, 0, 67, 33
1, 301032, Note_on_c, 0, 71, 61
1, 301033, Note_off_c, 0, 69, 64
1, 301043, Control_c, 0, 67, 27
1, 301052, Note_off_c, 0, 57, 63
1, 301058, Control_c, 0, 67, 23
1, 301073, Control_c, 0, 67, 19
1, 301077, Note_off_c, 0, 71, 60
1, 301078, Note_on_c, 0, 61, 56
1, 301087, Control_c, 0, 67, 16
1, 301098, Note_on_c, 0, 64, 57
1, 301102, Control_c, 0, 67, 12
1, 301104, Note_on_c, 0, 67, 59
1, 301117, Control_c, 0, 67, 9
1, 301119, Note_off_c, 0, 61, 61
1, 301131, Control_c, 0, 67, 8
1, 301132, Note_off_c, 0, 64, 65
1, 301144, Note_off_c, 0, 67, 62
1, 301146, Control_c, 0, 67, 0
1, 301154, Note_on_c, 0, 57, 43
1, 301181, Note_on_c, 0, 71, 54
1, 301184, Note_off_c, 0, 57, 57
1, 301206, Control_c, 0, 64, 38
1, 301207, Note_off_c, 0, 71, 56
1, 301220, Note_on_c, 0, 50, 55
1, 301228, Control_c, 0, 64, 58
1, 301243, Control_c, 0, 64, 65
1, 301256, Note_on_c, 0, 69, 63
1, 301258, Control_c, 0, 64, 68
1, 301271, Note_off_c, 0, 50, 58
1, 301272, Control_c, 0, 64, 74
1, 301277, Note_on_c, 0, 66, 52
1, 301280, Note_on_c, 0, 57, 52
1, 301287, Control_c, 0, 64, 78
1, 301302, Control_c, 0, 64, 82
1, 301303, Note_off_c, 0, 66, 58
1, 301317, Control_c, 0, 64, 83
1, 301323, Note_on_c, 0, 71, 63
1, 301330, Note_off_c, 0, 57, 58
1, 301330, Note_off_c, 0, 69, 64
1, 301332, Control_c, 0, 64, 86
1, 301346, Control_c, 0, 64, 88
1, 301361, Control_c, 0, 64, 91
1, 301363, Note_on_c, 0, 62, 57
1, 301375, Note_off_c, 0, 71, 59
1, 301376, Control_c, 0, 64, 93
1, 301391, Control_c, 0, 64, 95
1, 301393, Note_on_c, 0, 65, 54
1, 301396, Note_on_c, 0, 68, 64
1, 301406, Control_c, 0, 64, 96
1, 301407, Note_off_c, 0, 62, 59
1, 301420, Note_off_c, 0, 65, 64
1, 301420, Control_c, 0, 64, 97
1, 301433, Note_on_c, 0, 57, 57
1, 301435, Control_c, 0, 64, 98
1, 301450, Control_c, 0, 64, 99
1, 301453, Note_off_c, 0, 68, 60
1, 301464, Note_off_c, 0, 57, 62
1, 301479, Control_c, 0, 64, 99
1, 301488, Note_on_c, 0, 71, 46
1, 301496, Control_c, 0, 64, 100
1, 301506, Note_on_c, 0, 62, 60
1, 301510, Control_c, 0, 64, 101
1, 301516, Note_off_c, 0, 71, 54
1, 301519, Note_on_c, 0, 69, 64
1, 301525, Control_c, 0, 64, 103
1, 301540, Note_on_c, 0, 66, 55
1, 301540, Control_c, 0, 64, 106
1, 301551, Note_off_c, 0, 62, 58
1, 301555, Control_c, 0, 64, 107
1, 301561, Note_off_c, 0, 66, 61
1, 301575, Note_off_c, 0, 69, 64
1, 301586, Note_on_c, 0, 71, 68
1, 301608, Note_off_c, 0, 71, 65
1, 301629, Control_c, 0, 64, 106
1, 301652, Note_on_c, 0, 66, 59
1, 301682, Note_on_c, 0, 69, 65
1, 301683, Note_on_c, 0, 74, 66
1, 301699, Note_off_c, 0, 66, 60
1, 301727, Note_off_c, 0, 69, 61
1, 301727, Note_on_c, 0, 67, 66
1, 301727, Note_off_c, 0, 74, 59
1, 301742, Note_on_c, 0, 76, 74
1, 301793, Note_off_c, 0, 67, 61
1, 301801, Note_off_c, 0, 76, 61
1, 301815, Note_on_c, 0, 65, 55
1, 301828, Note_on_c, 0, 73, 65
1, 301836, Note_on_c, 0, 69, 57
1, 301851, Control_c, 0, 64, 107
1, 301856, Note_off_c, 0, 73, 68
1, 301861, Note_off_c, 0, 69, 64
1, 301867, Note_off_c, 0, 65, 56
1, 301881, Note_on_c, 0, 76, 74
1, 301895, Note_on_c, 0, 67, 31
1, 301933, Note_off_c, 0, 67, 53
1, 301933, Note_off_c, 0, 76, 58
1, 301938, Note_on_c, 0, 66, 68
1, 301939, Note_on_c, 0, 69, 64
1, 301944, Note_on_c, 0, 74, 75
1, 301980, Note_off_c, 0, 69, 66
1, 301989, Note_off_c, 0, 66, 59
1, 302007, Control_c, 0, 64, 100
1, 302010, Note_on_c, 0, 76, 77
1, 302013, Note_off_c, 0, 74, 65
1, 302022, Control_c, 0, 64, 86
1, 302034, Note_off_c, 0, 76, 70
1, 302037, Control_c, 0, 64, 68
1, 302051, Control_c, 0, 64, 0
1, 302076, Note_on_c, 0, 69, 69
1, 302081, Control_c, 0, 64, 42
1, 302095, Note_on_c, 0, 74, 73
1, 302095, Control_c, 0, 64, 64
1, 302104, Note_on_c, 0, 78, 70
1, 302110, Control_c, 0, 64, 74
1, 302125, Control_c, 0, 64, 90
1, 302128, Note_off_c, 0, 69, 56
1, 302138, Note_off_c, 0, 74, 63
1, 302140, Control_c, 0, 64, 104
1, 302155, Control_c, 0, 64, 109
1, 302156, Note_on_c, 0, 71, 64
1, 302158, Note_off_c, 0, 78, 62
1, 302159, Note_on_c, 0, 79, 73
1, 302169, Control_c, 0, 64, 113
1, 302184, Control_c, 0, 64, 117
1, 302199, Control_c, 0, 64, 122
1, 302214, Control_c, 0, 64, 127
1, 302219, Note_off_c, 0, 71, 59
1, 302225, Note_off_c, 0, 79, 63
1, 302231, Note_on_c, 0, 77, 76
1, 302234, Note_on_c, 0, 74, 59
1, 302238, Note_on_c, 0, 68, 58
1, 302263, Note_off_c, 0, 74, 67
1, 302279, Note_off_c, 0, 77, 57
1, 302289, Note_on_c, 0, 79, 68
1, 302310, Note_off_c, 0, 68, 48
1, 302311, Note_on_c, 0, 71, 44
1, 302348, Note_off_c, 0, 79, 62
1, 302351, Note_on_c, 0, 74, 70
1, 302356, Note_off_c, 0, 71, 63
1, 302361, Note_on_c, 0, 78, 72
1, 302370, Note_on_c, 0, 69, 55
1, 302391, Note_off_c, 0, 74, 61
1, 302394, Note_off_c, 0, 69, 62
1, 302421, Note_on_c, 0, 79, 69
1, 302422, Control_c, 0, 67, 8
1, 302436, Note_off_c, 0, 78, 64
1, 302437, Control_c, 0, 67, 9
1, 302445, Note_off_c, 0, 79, 67
1, 302452, Control_c, 0, 64, 96
1, 302452, Control_c, 0, 67, 10
1, 302466, Control_c, 0, 64, 76
1, 302466, Control_c, 0, 67, 11
1, 302481, Control_c, 0, 64, 44
1, 302481, Control_c, 0, 67, 12
1, 302496, Control_c, 0, 64, 0
1, 302508, Note_on_c, 0, 81, 88
1, 302511, Control_c, 0, 67, 12
1, 302515, Note_on_c, 0, 74, 63
1, 302523, Note_on_c, 0, 78, 60
1, 302526, Control_c, 0, 64, 62
1, 302526, Control_c, 0, 67, 13
1, 302541, Control_c, 0, 64, 72
1, 302541, Control_c, 0, 67, 13
1, 302543, Note_off_c, 0, 78, 63
1, 302555, Control_c, 0, 64, 87
1, 302561, Note_off_c, 0, 74, 60
1, 302570, Control_c, 0, 64, 105
1, 302572, Note_off_c, 0, 81, 63
1, 302579, Note_on_c, 0, 83, 81
1, 302584, Note_on_c, 0, 73, 61
1, 302585, Control_c, 0, 64, 120
1, 302600, Control_c, 0, 64, 127
1, 302615, Control_c, 0, 67, 13
1, 302640, Note_off_c, 0, 83, 65
1, 302642, Note_off_c, 0, 73, 57
1, 302648, Note_on_c, 0, 80, 72
1, 302652, Note_on_c, 0, 71, 59
1, 302658, Note_on_c, 0, 77, 55
1, 302680, Note_off_c, 0, 77, 62
1, 302688, Note_off_c, 0, 71, 65
1, 302710, Note_off_c, 0, 80, 62
1, 302716, Note_on_c, 0, 74, 52
1, 302725, Note_on_c, 0, 83, 69
1, 302753, Note_off_c, 0, 74, 64
1, 302777, Note_on_c, 0, 71, 60
1, 302777, Note_off_c, 0, 83, 66
1, 302779, Note_on_c, 0, 80, 69
1, 302785, Note_on_c, 0, 77, 57
1, 302812, Note_off_c, 0, 71, 65
1, 302824, Note_off_c, 0, 77, 64
1, 302846, Note_off_c, 0, 80, 62
1, 302855, Note_on_c, 0, 74, 53
1, 302868, Note_on_c, 0, 83, 63
1, 302874, Control_c, 0, 64, 97
1, 302874, Control_c, 0, 67, 12
1, 302889, Control_c, 0, 64, 77
1, 302892, Note_off_c, 0, 83, 57
1, 302895, Note_off_c, 0, 74, 61
1, 302904, Control_c, 0, 64, 0
1, 302904, Control_c, 0, 67, 12
1, 302928, Note_on_c, 0, 81, 69
1, 302940, Note_on_c, 0, 62, 57
1, 302944, Note_on_c, 0, 78, 57
1, 302948, Control_c, 0, 64, 34
1, 302963, Control_c, 0, 64, 65
1, 302975, Note_off_c, 0, 78, 66
1, 302978, Control_c, 0, 64, 74
1, 302983, Note_off_c, 0, 62, 59
1, 302992, Control_c, 0, 64, 87
1, 302992, Control_c, 0, 67, 11
1, 302996, Note_on_c, 0, 83, 68
1, 303000, Note_off_c, 0, 81, 62
1, 303003, Note_on_c, 0, 69, 51
1, 303007, Control_c, 0, 64, 97
1, 303022, Control_c, 0, 64, 99
1, 303022, Control_c, 0, 67, 11
1, 303036, Control_c, 0, 64, 100
1, 303044, Note_off_c, 0, 69, 58
1, 303046, Note_off_c, 0, 83, 62
1, 303051, Control_c, 0, 64, 101
1, 303060, Note_on_c, 0, 77, 66
1, 303066, Note_on_c, 0, 80, 67
1, 303066, Control_c, 0, 64, 103
1, 303075, Note_on_c, 0, 74, 50
1, 303081, Control_c, 0, 64, 105
1, 303095, Note_off_c, 0, 77, 63
1, 303097, Control_c, 0, 64, 109
1, 303112, Control_c, 0, 64, 112
1, 303116, Note_off_c, 0, 74, 64
1, 303127, Control_c, 0, 64, 117
1, 303133, Note_off_c, 0, 80, 56
1, 303140, Note_on_c, 0, 69, 53
1, 303141, Control_c, 0, 64, 121
1, 303156, Control_c, 0, 64, 126
1, 303158, Note_on_c, 0, 83, 36
1, 303162, Note_off_c, 0, 69, 61
1, 303171, Control_c, 0, 64, 127
1, 303192, Note_off_c, 0, 83, 54
1, 303199, Note_on_c, 0, 81, 68
1, 303211, Note_on_c, 0, 78, 57
1, 303221, Note_on_c, 0, 74, 49
1, 303229, Note_off_c, 0, 78, 63
1, 303250, Note_on_c, 0, 83, 81
1, 303250, Note_off_c, 0, 81, 63
1, 303255, Note_off_c, 0, 74, 63
1, 303283, Note_off_c, 0, 83, 66
1, 303353, Note_on_c, 0, 81, 79
1, 303356, Note_on_c, 0, 86, 70
1, 303364, Note_on_c, 0, 78, 28
1, 303395, Note_off_c, 0, 81, 62
1, 303399, Note_on_c, 0, 79, 67
1, 303401, Note_off_c, 0, 78, 53
1, 303407, Note_off_c, 0, 86, 64
1, 303411, Note_on_c, 0, 88, 73
1, 303468, Note_off_c, 0, 79, 59
1, 303469, Note_off_c, 0, 88, 61
1, 303502, Note_on_c, 0, 77, 52
1, 303506, Note_on_c, 0, 85, 67
1, 303515, Note_on_c, 0, 81, 60
1, 303541, Note_off_c, 0, 81, 58
1, 303548, Note_off_c, 0, 85, 62
1, 303557, Note_on_c, 0, 88, 73
1, 303571, Note_on_c, 0, 79, 45
1, 303578, Note_off_c, 0, 77, 43
1, 303603, Note_off_c, 0, 88, 61
1, 303614, Note_off_c, 0, 79, 61
1, 303621, Note_on_c, 0, 81, 72
1, 303626, Note_on_c, 0, 86, 74
1, 303630, Note_on_c, 0, 78, 65
1, 303638, Control_c, 0, 67, 11
1, 303653, Control_c, 0, 67, 12
1, 303656, Note_off_c, 0, 81, 63
1, 303667, Control_c, 0, 67, 13
1, 303670, Note_off_c, 0, 78, 58
1, 303682, Control_c, 0, 67, 14
1, 303693, Note_on_c, 0, 88, 87
1, 303694, Note_off_c, 0, 86, 65
1, 303697, Control_c, 0, 64, 93
1, 303697, Control_c, 0, 67, 15
1, 303712, Control_c, 0, 64, 70
1, 303712, Control_c, 0, 67, 16
1, 303722, Note_off_c, 0, 88, 66
1, 303727, Control_c, 0, 64, 0
1, 303727, Control_c, 0, 67, 17
1, 303742, Control_c, 0, 67, 18
1, 303757, Control_c, 0, 67, 19
1, 303761, Note_on_c, 0, 81, 77
1, 303772, Control_c, 0, 64, 54
1, 303772, Control_c, 0, 67, 21
1, 303786, Note_on_c, 0, 90, 77
1, 303787, Control_c, 0, 64, 69
1, 303787, Control_c, 0, 67, 23
1, 303789, Note_on_c, 0, 86, 74
1, 303801, Control_c, 0, 64, 81
1, 303801, Control_c, 0, 67, 24
1, 303816, Control_c, 0, 64, 99
1, 303816, Control_c, 0, 67, 25
1, 303818, Note_off_c, 0, 81, 58
1, 303822, Note_off_c, 0, 86, 63
1, 303831, Control_c, 0, 64, 112
1, 303831, Control_c, 0, 67, 26
1, 303846, Note_off_c, 0, 90, 63
1, 303846, Control_c, 0, 64, 114
1, 303852, Note_on_c, 0, 83, 66
1, 303855, Note_on_c, 0, 91, 71
1, 303860, Control_c, 0, 64, 116
1, 303875, Control_c, 0, 64, 119
1, 303891, Control_c, 0, 64, 122
1, 303906, Note_off_c, 0, 83, 62
1, 303906, Control_c, 0, 64, 127
1, 303923, Note_off_c, 0, 91, 64
1, 303926, Note_on_c, 0, 86, 66
1, 303932, Note_on_c, 0, 80, 52
1, 303934, Note_on_c, 0, 89, 71
1, 303966, Note_off_c, 0, 86, 61
1, 303968, Note_off_c, 0, 89, 63
1, 303978, Control_c, 0, 67, 25
1, 303992, Note_on_c, 0, 91, 63
1, 303995, Note_on_c, 0, 83, 58
1, 304000, Note_off_c, 0, 80, 50
1, 304039, Note_off_c, 0, 91, 59
1, 304045, Note_off_c, 0, 83, 60
1, 304059, Note_on_c, 0, 90, 74
1, 304062, Note_on_c, 0, 86, 65
1, 304074, Note_on_c, 0, 81, 71
1, 304082, Control_c, 0, 67, 26
1, 304083, Note_off_c, 0, 86, 67
1, 304097, Control_c, 0, 67, 27
1, 304100, Note_off_c, 0, 81, 67
1, 304112, Control_c, 0, 67, 27
1, 304125, Note_on_c, 0, 91, 64
1, 304126, Control_c, 0, 67, 31
1, 304129, Note_off_c, 0, 90, 64
1, 304141, Control_c, 0, 67, 35
1, 304152, Note_off_c, 0, 91, 67
1, 304156, Control_c, 0, 67, 40
1, 304171, Control_c, 0, 64, 102
1, 304171, Control_c, 0, 67, 45
1, 304186, Control_c, 0, 64, 78
1, 304186, Control_c, 0, 67, 49
1, 304201, Control_c, 0, 64, 26
1, 304201, Control_c, 0, 67, 53
1, 304222, Control_c, 0, 64, 0
1, 304222, Control_c, 0, 67, 57
1, 304227, Note_on_c, 0, 93, 78
1, 304231, Note_on_c, 0, 86, 53
1, 304237, Control_c, 0, 67, 61
1, 304246, Note_on_c, 0, 90, 53
1, 304252, Control_c, 0, 64, 63
1, 304252, Control_c, 0, 67, 65
1, 304267, Note_off_c, 0, 90, 60
1, 304267, Control_c, 0, 64, 71
1, 304267, Control_c, 0, 67, 70
1, 304278, Note_off_c, 0, 86, 61
1, 304281, Control_c, 0, 64, 87
1, 304281, Control_c, 0, 67, 76
1, 304286, Note_off_c, 0, 93, 62
1, 304296, Control_c, 0, 64, 111
1, 304296, Control_c, 0, 67, 80
1, 304300, Note_on_c, 0, 95, 59
1, 304308, Note_on_c, 0, 85, 40
1, 304311, Control_c, 0, 64, 127
1, 304311, Control_c, 0, 67, 84
1, 304326, Control_c, 0, 67, 88
1, 304341, Note_off_c, 0, 85, 55
1, 304341, Control_c, 0, 67, 91
1, 304344, Note_off_c, 0, 95, 54
1, 304351, Note_on_c, 0, 83, 63
1, 304356, Control_c, 0, 67, 94
1, 304362, Note_on_c, 0, 89, 65
1, 304368, Note_on_c, 0, 92, 62
1, 304371, Control_c, 0, 67, 98
1, 304386, Control_c, 0, 67, 102
1, 304392, Note_off_c, 0, 89, 68
1, 304400, Note_off_c, 0, 83, 61
1, 304401, Control_c, 0, 67, 106
1, 304407, Note_off_c, 0, 92, 61
1, 304415, Control_c, 0, 67, 110
1, 304430, Control_c, 0, 67, 114
1, 304441, Note_on_c, 0, 86, 44
1, 304445, Control_c, 0, 67, 117
1, 304460, Control_c, 0, 67, 121
1, 304475, Control_c, 0, 67, 125
1, 304476, Note_off_c, 0, 86, 63
1, 304484, Note_on_c, 0, 89, 58
1, 304489, Control_c, 0, 67, 127
1, 304496, Note_on_c, 0, 92, 67
1, 304499, Note_on_c, 0, 83, 43
1, 304521, Note_off_c, 0, 89, 66
1, 304527, Note_off_c, 0, 83, 57
1, 304554, Note_off_c, 0, 92, 58
1, 304563, Note_on_c, 0, 86, 57
1, 304563, Control_c, 0, 64, 94
1, 304578, Control_c, 0, 64, 74
1, 304579, Note_on_c, 0, 95, 57
1, 304593, Control_c, 0, 64, 0
1, 304594, Note_off_c, 0, 86, 57
1, 304604, Note_off_c, 0, 95, 59
1, 304624, Note_on_c, 0, 93, 64
1, 304637, Control_c, 0, 64, 60
1, 304645, Note_on_c, 0, 74, 53
1, 304648, Note_on_c, 0, 90, 51
1, 304652, Control_c, 0, 64, 69
1, 304667, Control_c, 0, 64, 80
1, 304675, Note_off_c, 0, 90, 57
1, 304683, Control_c, 0, 64, 93
1, 304694, Note_off_c, 0, 74, 58
1, 304698, Control_c, 0, 64, 101
1, 304704, Note_on_c, 0, 95, 68
1, 304705, Note_off_c, 0, 93, 62
1, 304708, Note_on_c, 0, 81, 61
1, 304712, Control_c, 0, 64, 104
1, 304727, Control_c, 0, 64, 106
1, 304742, Control_c, 0, 64, 109
1, 304749, Note_off_c, 0, 95, 58
1, 304754, Note_off_c, 0, 81, 61
1, 304757, Control_c, 0, 64, 113
1, 304766, Note_on_c, 0, 89, 53
1, 304772, Control_c, 0, 64, 119
1, 304773, Note_on_c, 0, 92, 64
1, 304777, Note_on_c, 0, 86, 46
1, 304786, Control_c, 0, 64, 127
1, 304802, Note_off_c, 0, 89, 65
1, 304816, Note_off_c, 0, 86, 57
1, 304828, Note_off_c, 0, 92, 61
1, 304852, Note_on_c, 0, 81, 66
1, 304859, Note_on_c, 0, 95, 46
1, 304885, Note_off_c, 0, 95, 56
1, 304895, Note_off_c, 0, 81, 59
1, 304899, Note_on_c, 0, 93, 59
1, 304916, Note_on_c, 0, 86, 51
1, 304919, Note_on_c, 0, 90, 56
1, 304946, Note_off_c, 0, 90, 66
1, 304964, Note_off_c, 0, 86, 64
1, 304976, Note_on_c, 0, 95, 65
1, 304982, Note_off_c, 0, 93, 61
1, 305003, Note_on_c, 0, 81, 59
1, 305030, Note_off_c, 0, 81, 61
1, 305030, Note_off_c, 0, 95, 60
1, 305040, Note_on_c, 0, 89, 63
1, 305048, Note_on_c, 0, 92, 62
1, 305077, Note_on_c, 0, 74, 18
1, 305078, Note_off_c, 0, 89, 62
1, 305112, Note_off_c, 0, 92, 63
1, 305124, Note_on_c, 0, 81, 57
1, 305125, Note_off_c, 0, 74, 47
1, 305140, Note_on_c, 0, 95, 48
1, 305161, Note_off_c, 0, 81, 62
1, 305165, Note_off_c, 0, 95, 56
1, 305190, Note_on_c, 0, 86, 43
1, 305192, Note_on_c, 0, 93, 48
1, 305206, Note_on_c, 0, 90, 57
1, 305222, Note_off_c, 0, 86, 53
1, 305238, Note_off_c, 0, 90, 66
1, 305248, Note_on_c, 0, 81, 65
1, 305261, Note_on_c, 0, 95, 58
1, 305280, Note_off_c, 0, 93, 56
1, 305289, Note_off_c, 0, 81, 61
1, 305305, Note_off_c, 0, 95, 60
1, 305316, Note_on_c, 0, 86, 47
1, 305322, Note_on_c, 0, 89, 63
1, 305338, Note_on_c, 0, 92, 60
1, 305357, Note_off_c, 0, 89, 66
1, 305357, Note_off_c, 0, 86, 61
1, 305384, Note_on_c, 0, 81, 63
1, 305393, Note_off_c, 0, 92, 62
1, 305410, Note_on_c, 0, 95, 55
1, 305424, Note_off_c, 0, 81, 62
1, 305440, Note_off_c, 0, 95, 53
1, 305453, Note_on_c, 0, 74, 47
1, 305466, Note_on_c, 0, 93, 65
1, 305486, Note_on_c, 0, 90, 48
1, 305501, Note_off_c, 0, 74, 62
1, 305511, Note_off_c, 0, 90, 63
1, 305527, Note_on_c, 0, 81, 58
1, 305536, Note_on_c, 0, 95, 64
1, 305542, Note_off_c, 0, 93, 61
1, 305572, Note_off_c, 0, 81, 62
1, 305595, Note_off_c, 0, 95, 61
1, 305602, Note_on_c, 0, 86, 34
1, 305608, Note_on_c, 0, 89, 57
1, 305617, Note_on_c, 0, 92, 56
1, 305636, Note_off_c, 0, 86, 53
1, 305650, Note_off_c, 0, 89, 62
1, 305666, Note_on_c, 0, 81, 64
1, 305676, Note_off_c, 0, 92, 64
1, 305715, Note_off_c, 0, 81, 61
1, 305727, Note_on_c, 0, 95, 16
1, 305748, Note_on_c, 0, 86, 39
1, 305761, Note_on_c, 0, 93, 58
1, 305766, Note_off_c, 0, 95, 41
1, 305784, Note_on_c, 0, 90, 45
1, 305795, Note_off_c, 0, 86, 58
1, 305814, Note_on_c, 0, 81, 60
1, 305814, Note_off_c, 0, 90, 59
1, 305837, Note_off_c, 0, 93, 63
1, 305844, Note_on_c, 0, 95, 67
1, 305855, Note_off_c, 0, 81, 61
1, 305885, Note_off_c, 0, 95, 54
1, 305891, Note_on_c, 0, 74, 46
1, 305910, Note_on_c, 0, 89, 57
1, 305912, Note_on_c, 0, 92, 58
1, 305933, Note_off_c, 0, 74, 62
1, 305942, Note_off_c, 0, 89, 65
1, 305961, Note_on_c, 0, 81, 58
1, 305961, Note_off_c, 0, 92, 61
1, 305976, Note_on_c, 0, 95, 62
1, 306004, Note_off_c, 0, 81, 64
1, 306013, Note_off_c, 0, 95, 61
1, 306039, Note_on_c, 0, 93, 59
1, 306040, Note_on_c, 0, 86, 43
1, 306077, Note_off_c, 0, 86, 58
1, 306111, Note_on_c, 0, 81, 62
1, 306112, Note_on_c, 0, 95, 68
1, 306124, Note_off_c, 0, 93, 61
1, 306143, Poly_aftertouch_c, 0, 90, 0
1, 306158, Note_off_c, 0, 81, 61
1, 306164, Note_off_c, 0, 95, 60
1, 306177, Note_on_c, 0, 89, 59
1, 306182, Note_on_c, 0, 92, 66
1, 306185, Note_on_c, 0, 86, 41
1, 306210, Note_off_c, 0, 89, 66
1, 306246, Note_off_c, 0, 86, 54
1, 306250, Note_off_c, 0, 92, 63
1, 306267, Note_on_c, 0, 95, 59
1, 306283, Control_c, 0, 64, 98
1, 306288, Note_on_c, 0, 81, 57
1, 306298, Control_c, 0, 64, 78
1, 306313, Control_c, 0, 64, 52
1, 306314, Note_off_c, 0, 81, 58
1, 306319, Note_off_c, 0, 95, 62
1, 306328, Control_c, 0, 64, 0
1, 306330, Note_on_c, 0, 90, 58
1, 306335, Note_on_c, 0, 93, 59
1, 306357, Control_c, 0, 64, 38
1, 306372, Control_c, 0, 64, 64
1, 306376, Note_off_c, 0, 90, 57
1, 306380, Note_on_c, 0, 74, 21
1, 306387, Control_c, 0, 64, 72
1, 306395, Note_off_c, 0, 93, 61
1, 306401, Control_c, 0, 64, 85
1, 306413, Note_on_c, 0, 95, 62
1, 306416, Control_c, 0, 64, 110
1, 306431, Control_c, 0, 64, 127
1, 306434, Note_off_c, 0, 74, 49
1, 306443, Note_on_c, 0, 81, 41
1, 306472, Note_off_c, 0, 95, 61
1, 306493, Note_on_c, 0, 93, 58
1, 306498, Note_on_c, 0, 90, 55
1, 306534, Note_on_c, 0, 86, 48
1, 306537, Note_off_c, 0, 90, 60
1, 306538, Note_off_c, 0, 81, 52
1, 306560, Note_off_c, 0, 93, 63
1, 306579, Note_on_c, 0, 95, 59
1, 306586, Note_off_c, 0, 86, 57
1, 306625, Note_off_c, 0, 95, 61
1, 306648, Note_on_c, 0, 93, 62
1, 306658, Note_on_c, 0, 90, 54
1, 306701, Note_off_c, 0, 90, 60
1, 306719, Note_off_c, 0, 93, 63
1, 306725, Note_on_c, 0, 95, 63
1, 306784, Note_off_c, 0, 95, 61
1, 306806, Note_on_c, 0, 90, 57
1, 306807, Note_on_c, 0, 93, 63
1, 306854, Note_off_c, 0, 90, 55
1, 306872, Note_off_c, 0, 93, 63
1, 306883, Note_on_c, 0, 95, 66
1, 306943, Note_off_c, 0, 95, 63
1, 306957, Note_on_c, 0, 90, 54
1, 306967, Note_on_c, 0, 93, 60
1, 307012, Note_off_c, 0, 90, 61
1, 307026, Note_off_c, 0, 93, 63
1, 307031, Note_on_c, 0, 95, 59
1, 307095, Note_off_c, 0, 95, 61
1, 307117, Note_on_c, 0, 93, 56
1, 307126, Note_on_c, 0, 90, 57
1, 307215, Note_off_c, 0, 90, 47
1, 307221, Note_on_c, 0, 95, 62
1, 307288, Note_off_c, 0, 95, 58
1, 307322, Note_off_c, 0, 93, 0
1, 307334, Note_on_c, 0, 93, 45
1, 307352, Note_on_c, 0, 90, 54
1, 307427, Note_off_c, 0, 90, 40
1, 307450, Note_off_c, 0, 93, 43
1, 307485, Note_on_c, 0, 86, 53
1, 307485, Note_on_c, 0, 95, 52
1, 307517, Note_off_c, 0, 95, 55
1, 307522, Note_off_c, 0, 86, 61
1, 307566, Note_on_c, 0, 93, 52
1, 307581, Note_on_c, 0, 90, 42
1, 307615, Note_off_c, 0, 93, 59
1, 307619, Note_off_c, 0, 90, 61
1, 307667, Note_on_c, 0, 86, 32
1, 307674, Note_on_c, 0, 95, 24
1, 307700, Note_off_c, 0, 86, 48
1, 307715, Note_off_c, 0, 95, 42
1, 307733, Note_on_c, 0, 93, 37
1, 307745, Note_on_c, 0, 90, 32
1, 307772, Note_off_c, 0, 93, 48
1, 307778, Note_off_c, 0, 90, 53
1, 307783, Note_on_c, 0, 86, 48
1, 307801, Note_on_c, 0, 95, 42
1, 307814, Note_off_c, 0, 86, 61
1, 307831, Note_off_c, 0, 95, 53
1, 307863, Note_on_c, 0, 93, 45
1, 307873, Note_on_c, 0, 90, 40
1, 307891, Note_off_c, 0, 93, 54
1, 307904, Note_off_c, 0, 90, 51
1, 307909, Note_on_c, 0, 86, 56
1, 307911, Note_on_c, 0, 95, 53
1, 307934, Note_off_c, 0, 86, 65
1, 307936, Note_off_c, 0, 95, 59
1, 307972, Note_on_c, 0, 93, 58
1, 307983, Note_on_c, 0, 90, 58
1, 308015, Note_off_c, 0, 93, 61
1, 308018, Note_off_c, 0, 90, 62
1, 308031, Note_on_c, 0, 86, 58
1, 308037, Note_on_c, 0, 95, 55
1, 308054, Note_off_c, 0, 86, 65
1, 308056, Note_off_c, 0, 95, 61
1, 308100, Note_on_c, 0, 90, 51
1, 308101, Note_on_c, 0, 93, 53
1, 308131, Note_off_c, 0, 93, 59
1, 308136, Note_off_c, 0, 90, 64
1, 308151, Note_on_c, 0, 86, 61
1, 308151, Note_on_c, 0, 95, 64
1, 308175, Note_off_c, 0, 86, 67
1, 308178, Note_off_c, 0, 95, 67
1, 308216, Note_on_c, 0, 93, 63
1, 308221, Note_on_c, 0, 90, 60
1, 308258, Note_off_c, 0, 90, 62
1, 308260, Note_off_c, 0, 93, 60
1, 308265, Note_on_c, 0, 86, 60
1, 308265, Note_on_c, 0, 95, 69
1, 308292, Note_off_c, 0, 86, 67
1, 308296, Note_off_c, 0, 95, 65
1, 308341, Note_on_c, 0, 93, 65
1, 308346, Note_on_c, 0, 90, 62
1, 308376, Note_off_c, 0, 93, 64
1, 308377, Note_off_c, 0, 90, 65
1, 308387, Note_on_c, 0, 95, 73
1, 308393, Note_on_c, 0, 86, 57
1, 308415, Note_off_c, 0, 86, 65
1, 308422, Note_off_c, 0, 95, 63
1, 308469, Note_on_c, 0, 93, 66
1, 308474, Note_on_c, 0, 90, 55
1, 308506, Note_off_c, 0, 93, 62
1, 308511, Note_off_c, 0, 90, 64
1, 308511, Note_on_c, 0, 86, 61
1, 308517, Note_on_c, 0, 95, 71
1, 308538, Note_off_c, 0, 86, 66
1, 308544, Note_off_c, 0, 95, 68
1, 308586, Note_on_c, 0, 90, 61
1, 308589, Note_on_c, 0, 93, 65
1, 308623, Note_off_c, 0, 90, 61
1, 308624, Note_off_c, 0, 93, 63
1, 308642, Note_on_c, 0, 86, 62
1, 308645, Note_on_c, 0, 95, 63
1, 308669, Note_off_c, 0, 86, 66
1, 308679, Note_off_c, 0, 95, 64
1, 308713, Note_on_c, 0, 93, 67
1, 308721, Note_on_c, 0, 90, 61
1, 308753, Note_off_c, 0, 90, 65
1, 308756, Note_off_c, 0, 93, 61
1, 308780, Note_on_c, 0, 95, 69
1, 308780, Note_on_c, 0, 86, 62
1, 308807, Note_off_c, 0, 86, 66
1, 308812, Note_off_c, 0, 95, 61
1, 308842, Note_on_c, 0, 93, 63
1, 308846, Note_on_c, 0, 90, 50
1, 308884, Note_off_c, 0, 90, 62
1, 308885, Note_off_c, 0, 93, 60
1, 308908, Note_on_c, 0, 95, 71
1, 308909, Note_on_c, 0, 86, 59
1, 308940, Note_off_c, 0, 86, 65
1, 308945, Note_off_c, 0, 95, 59
1, 308979, Note_on_c, 0, 93, 58
1, 308983, Note_on_c, 0, 90, 46
1, 309021, Note_off_c, 0, 90, 61
1, 309022, Note_off_c, 0, 93, 59
1, 309045, Note_on_c, 0, 86, 56
1, 309047, Note_on_c, 0, 95, 67
1, 309075, Note_off_c, 0, 86, 64
1, 309080, Note_off_c, 0, 95, 62
1, 309120, Note_on_c, 0, 90, 39
1, 309122, Note_on_c, 0, 93, 51
1, 309158, Note_off_c, 0, 93, 54
1, 309162, Note_off_c, 0, 90, 59
1, 309183, Note_on_c, 0, 86, 53
1, 309183, Note_on_c, 0, 95, 62
1, 309215, Note_off_c, 0, 86, 59
1, 309220, Note_off_c, 0, 95, 62
1, 309260, Note_on_c, 0, 93, 43
1, 309263, Note_on_c, 0, 90, 55
1, 309307, Note_off_c, 0, 93, 58
1, 309307, Note_off_c, 0, 90, 54
1, 309332, Note_on_c, 0, 86, 53
1, 309337, Note_on_c, 0, 95, 51
1, 309363, Note_off_c, 0, 86, 58
1, 309369, Note_off_c, 0, 95, 54
1, 309415, Note_on_c, 0, 90, 54
1, 309416, Note_on_c, 0, 93, 44
1, 309471, Note_off_c, 0, 93, 57
1, 309473, Note_off_c, 0, 90, 55
1, 309496, Note_on_c, 0, 95, 47
1, 309498, Note_on_c, 0, 86, 44
1, 309534, Note_off_c, 0, 86, 53
1, 309543, Note_off_c, 0, 95, 60
1, 309590, Note_on_c, 0, 93, 43
1, 309591, Note_on_c, 0, 90, 53
1, 309644, Note_off_c, 0, 93, 55
1, 309653, Note_off_c, 0, 90, 53
1, 309668, Note_on_c, 0, 95, 52
1, 309680, Note_on_c, 0, 86, 31
1, 309713, Note_off_c, 0, 95, 57
1, 309713, Note_off_c, 0, 86, 53
1, 309749, Note_on_c, 0, 90, 42
1, 309753, Note_on_c, 0, 93, 42
1, 309813, Note_off_c, 0, 93, 52
1, 309818, Note_off_c, 0, 90, 56
1, 309843, Note_on_c, 0, 86, 40
1, 309850, Note_on_c, 0, 95, 46
1, 309891, Note_off_c, 0, 95, 56
1, 309894, Note_off_c, 0, 86, 50
1, 309948, Note_on_c, 0, 90, 45
1, 309948, Note_on_c, 0, 93, 46
1, 310014, Note_off_c, 0, 93, 52
1, 310019, Note_off_c, 0, 90, 52
1, 310070, Note_on_c, 0, 95, 46
1, 310073, Note_on_c, 0, 86, 40
1, 310138, Note_off_c, 0, 86, 43
1, 310145, Note_off_c, 0, 95, 51
1, 310197, Note_on_c, 0, 90, 47
1, 310200, Note_on_c, 0, 93, 45
1, 310249, Note_off_c, 0, 93, 45
1, 310255, Note_off_c, 0, 90, 47
1, 310378, Note_on_c, 0, 86, 45
1, 310387, Note_on_c, 0, 95, 40
1, 310419, Note_off_c, 0, 86, 47
1, 310431, Note_off_c, 0, 95, 48
1, 310658, Note_on_c, 0, 93, 53
1, 310670, Note_on_c, 0, 90, 50
1, 310758, Note_off_c, 0, 90, 34
1, 310816, Note_off_c, 0, 93, 35
1, 311629, Control_c, 0, 64, 108
1, 311640, Note_on_c, 0, 86, 46
1, 311644, Control_c, 0, 64, 92
1, 311659, Control_c, 0, 64, 79
1, 311673, Control_c, 0, 64, 66
1, 311688, Control_c, 0, 64, 45
1, 311710, Control_c, 0, 64, 41
1, 311725, Control_c, 0, 64, 55
1, 311737, Note_on_c, 0, 93, 44
1, 311740, Control_c, 0, 64, 62
1, 311755, Control_c, 0, 64, 65
1, 311767, Note_off_c, 0, 86, 35
1, 311769, Control_c, 0, 64, 67
1, 311784, Control_c, 0, 64, 72
1, 311793, Note_off_c, 0, 93, 52
1, 311799, Control_c, 0, 64, 79
1, 311814, Control_c, 0, 64, 90
1, 311829, Control_c, 0, 64, 95
1, 311844, Control_c, 0, 64, 97
1, 311858, Control_c, 0, 64, 101
1, 311872, Note_on_c, 0, 98, 45
1, 311874, Control_c, 0, 64, 106
1, 311889, Control_c, 0, 64, 114
1, 311904, Control_c, 0, 64, 127
1, 312046, Note_on_c, 0, 102, 58
1, 312092, Note_off_c, 0, 98, 42
1, 312199, Note_off_c, 0, 102, 57
1, 313668, Control_c, 0, 64, 122
1, 313683, Control_c, 0, 64, 114
1, 313698, Control_c, 0, 64, 110
1, 313713, Control_c, 0, 64, 105
1, 313728, Control_c, 0, 64, 101
1, 313743, Control_c, 0, 64, 98
1, 313758, Control_c, 0, 64, 95
1, 313773, Control_c, 0, 64, 92
1, 313787, Control_c, 0, 64, 88
1, 313802, Control_c, 0, 64, 82
1, 313817, Control_c, 0, 64, 76
1, 313832, Control_c, 0, 64, 68
1, 313846, Control_c, 0, 64, 59
1, 313861, Control_c, 0, 64, 50
1, 313891, Control_c, 0, 64, 49
1, 313920, Control_c, 0, 64, 48
1, 313943, Control_c, 0, 64, 44
1, 313957, Control_c, 0, 64, 34
1, 313972, Control_c, 0, 64, 0
1, 315299, Control_c, 0, 67, 126
1, 315314, Control_c, 0, 67, 123
1, 315329, Control_c, 0, 67, 121
1, 315344, Control_c, 0, 67, 118
1, 315358, Control_c, 0, 67, 115
1, 315373, Control_c, 0, 67, 113
1, 315388, Control_c, 0, 64, 41
1, 315388, Control_c, 0, 67, 110
1, 315403, Control_c, 0, 64, 60
1, 315403, Control_c, 0, 67, 108
1, 315417, Control_c, 0, 64, 63
1, 315417, Control_c, 0, 67, 106
1, 315432, Control_c, 0, 64, 64
1, 315432, Control_c, 0, 67, 103
1, 315454, Control_c, 0, 64, 66
1, 315454, Control_c, 0, 67, 101
1, 315469, Control_c, 0, 64, 68
1, 315469, Control_c, 0, 67, 98
1, 315484, Control_c, 0, 64, 72
1, 315484, Control_c, 0, 67, 96
1, 315499, Control_c, 0, 64, 74
1, 315499, Control_c, 0, 67, 93
1, 315513, Control_c, 0, 64, 76
1, 315513, Control_c, 0, 67, 92
1, 315528, Control_c, 0, 64, 77
1, 315528, Control_c, 0, 67, 90
1, 315543, Control_c, 0, 64, 78
1, 315543, Control_c, 0, 67, 88
1, 315558, Control_c, 0, 64, 80
1, 315558, Control_c, 0, 67, 88
1, 315573, Control_c, 0, 64, 82
1, 315573, Control_c, 0, 67, 87
1, 315588, Control_c, 0, 64, 84
1, 315588, Control_c, 0, 67, 86
1, 315603, Control_c, 0, 64, 86
1, 315603, Control_c, 0, 67, 85
1, 315617, Control_c, 0, 64, 89
1, 315617, Control_c, 0, 67, 85
1, 315632, Control_c, 0, 64, 91
1, 315632, Control_c, 0, 67, 84
1, 315647, Control_c, 0, 64, 93
1, 315647, Control_c, 0, 67, 84
1, 315662, Control_c, 0, 64, 96
1, 315662, Control_c, 0, 67, 83
1, 315677, Control_c, 0, 64, 99
1, 315677, Control_c, 0, 67, 83
1, 315691, Control_c, 0, 64, 103
1, 315706, Control_c, 0, 64, 107
1, 315706, Control_c, 0, 67, 82
1, 315721, Control_c, 0, 64, 111
1, 315721, Control_c, 0, 67, 82
1, 315736, Control_c, 0, 64, 115
1, 315736, Control_c, 0, 67, 81
1, 315751, Control_c, 0, 64, 122
1, 315765, Note_on_c, 0, 66, 65
1, 315765, Control_c, 0, 64, 127
1, 315765, Control_c, 0, 67, 81
1, 315795, Control_c, 0, 67, 80
1, 315929, Note_off_c, 0, 66, 58
1, 315944, Control_c, 0, 67, 80
1, 316062, Control_c, 0, 67, 79
1, 316092, Control_c, 0, 67, 79
1, 316107, Control_c, 0, 67, 77
1, 316122, Control_c, 0, 67, 76
1, 316136, Control_c, 0, 67, 75
1, 316151, Control_c, 0, 67, 74
1, 316181, Control_c, 0, 67, 74
1, 316201, Note_on_c, 0, 66, 67
1, 316336, Control_c, 0, 64, 126
1, 316351, Control_c, 0, 64, 110
1, 316366, Control_c, 0, 64, 102
1, 316381, Control_c, 0, 64, 96
1, 316389, Note_on_c, 0, 69, 60
1, 316396, Control_c, 0, 64, 90
1, 316411, Control_c, 0, 64, 83
1, 316426, Control_c, 0, 64, 75
1, 316440, Control_c, 0, 64, 67
1, 316450, Note_off_c, 0, 66, 35
1, 316455, Control_c, 0, 64, 57
1, 316470, Control_c, 0, 64, 43
1, 316485, Control_c, 0, 64, 42
1, 316544, Control_c, 0, 64, 41
1, 316603, Control_c, 0, 64, 44
1, 316618, Control_c, 0, 64, 49
1, 316632, Control_c, 0, 64, 55
1, 316647, Control_c, 0, 64, 61
1, 316664, Control_c, 0, 64, 64
1, 316679, Control_c, 0, 64, 67
1, 316694, Control_c, 0, 64, 69
1, 316709, Control_c, 0, 64, 73
1, 316724, Control_c, 0, 64, 78
1, 316738, Control_c, 0, 64, 83
1, 316753, Control_c, 0, 64, 87
1, 316768, Control_c, 0, 64, 89
1, 316783, Control_c, 0, 64, 92
1, 316798, Control_c, 0, 64, 94
1, 316812, Control_c, 0, 64, 97
1, 316827, Control_c, 0, 64, 99
1, 316842, Control_c, 0, 64, 101
1, 316856, Control_c, 0, 64, 103
1, 316871, Control_c, 0, 64, 104
1, 316885, Note_on_c, 0, 62, 44
1, 316886, Control_c, 0, 64, 104
1, 316901, Control_c, 0, 64, 105
1, 316905, Note_on_c, 0, 59, 36
1, 316916, Control_c, 0, 64, 106
1, 316916, Control_c, 0, 67, 73
1, 316931, Control_c, 0, 64, 107
1, 316953, Control_c, 0, 64, 108
1, 316968, Control_c, 0, 64, 110
1, 316983, Control_c, 0, 64, 112
1, 316985, Note_off_c, 0, 59, 39
1, 316997, Control_c, 0, 64, 115
1, 317012, Control_c, 0, 64, 126
1, 317016, Note_off_c, 0, 62, 36
1, 317027, Control_c, 0, 64, 127
1, 317160, Control_c, 0, 67, 74
1, 317189, Control_c, 0, 67, 74
1, 317207, Note_on_c, 0, 68, 63
1, 317219, Control_c, 0, 67, 75
1, 317220, Note_off_c, 0, 69, 58
1, 317234, Control_c, 0, 67, 75
1, 317236, Note_on_c, 0, 62, 39
1, 317247, Note_on_c, 0, 59, 35
1, 317249, Control_c, 0, 67, 76
1, 317308, Control_c, 0, 64, 119
1, 317308, Control_c, 0, 67, 76
1, 317323, Control_c, 0, 64, 107
1, 317338, Control_c, 0, 64, 100
1, 317353, Control_c, 0, 64, 93
1, 317368, Control_c, 0, 64, 87
1, 317368, Control_c, 0, 67, 77
1, 317382, Control_c, 0, 64, 81
1, 317397, Control_c, 0, 64, 74
1, 317397, Control_c, 0, 67, 77
1, 317412, Control_c, 0, 64, 67
1, 317425, Note_off_c, 0, 62, 39
1, 317427, Control_c, 0, 64, 61
1, 317429, Note_off_c, 0, 59, 38
1, 317442, Control_c, 0, 64, 54
1, 317442, Control_c, 0, 67, 78
1, 317457, Control_c, 0, 64, 53
1, 317532, Control_c, 0, 67, 78
1, 317546, Control_c, 0, 64, 53
1, 317576, Control_c, 0, 64, 54
1, 317605, Control_c, 0, 64, 54
1, 317776, Control_c, 0, 64, 55
1, 317850, Control_c, 0, 64, 55
1, 317998, Control_c, 0, 67, 79
1, 318012, Control_c, 0, 64, 56
1, 318190, Control_c, 0, 64, 56
1, 318263, Note_on_c, 0, 65, 50
1, 318324, Control_c, 0, 64, 57
1, 318354, Control_c, 0, 64, 57
1, 318369, Control_c, 0, 64, 58
1, 318399, Control_c, 0, 64, 58
1, 318407, Note_off_c, 0, 68, 29
1, 318414, Control_c, 0, 64, 59
1, 318414, Control_c, 0, 67, 78
1, 318435, Control_c, 0, 64, 60
1, 318450, Control_c, 0, 64, 61
1, 318465, Control_c, 0, 64, 62
1, 318465, Control_c, 0, 67, 78
1, 318480, Control_c, 0, 64, 63
1, 318495, Control_c, 0, 64, 64
1, 318495, Control_c, 0, 67, 77
1, 318509, Control_c, 0, 64, 66
1, 318524, Control_c, 0, 64, 68
1, 318539, Control_c, 0, 64, 69
1, 318554, Control_c, 0, 64, 71
1, 318554, Control_c, 0, 67, 77
1, 318569, Control_c, 0, 64, 74
1, 318569, Control_c, 0, 67, 76
1, 318584, Control_c, 0, 64, 79
1, 318599, Control_c, 0, 64, 85
1, 318614, Control_c, 0, 64, 87
1, 318614, Control_c, 0, 67, 76
1, 318629, Control_c, 0, 64, 89
1, 318643, Control_c, 0, 64, 93
1, 318658, Control_c, 0, 64, 96
1, 318673, Control_c, 0, 64, 100
1, 318688, Control_c, 0, 64, 103
1, 318688, Control_c, 0, 67, 75
1, 318703, Control_c, 0, 64, 106
1, 318717, Control_c, 0, 64, 109
1, 318732, Control_c, 0, 64, 111
1, 318747, Control_c, 0, 64, 113
1, 318761, Control_c, 0, 64, 114
1, 318776, Control_c, 0, 64, 116
1, 318776, Control_c, 0, 67, 75
1, 318781, Note_on_c, 0, 59, 45
1, 318782, Note_on_c, 0, 56, 45
1, 318791, Control_c, 0, 64, 116
1, 318797, Note_on_c, 0, 49, 36
1, 318806, Control_c, 0, 64, 117
1, 318821, Control_c, 0, 64, 118
1, 318835, Control_c, 0, 64, 119
1, 318865, Control_c, 0, 64, 119
1, 318886, Note_off_c, 0, 49, 48
1, 318901, Note_off_c, 0, 56, 37
1, 318921, Note_off_c, 0, 59, 35
1, 318924, Control_c, 0, 67, 74
1, 319013, Control_c, 0, 64, 119
1, 319026, Note_on_c, 0, 56, 48
1, 319028, Control_c, 0, 64, 118
1, 319030, Note_on_c, 0, 49, 42
1, 319030, Note_on_c, 0, 59, 54
1, 319042, Control_c, 0, 64, 116
1, 319058, Control_c, 0, 64, 114
1, 319073, Control_c, 0, 64, 111
1, 319088, Control_c, 0, 64, 108
1, 319102, Control_c, 0, 64, 104
1, 319117, Control_c, 0, 64, 100
1, 319132, Control_c, 0, 64, 95
1, 319147, Control_c, 0, 64, 90
1, 319162, Control_c, 0, 64, 86
1, 319162, Control_c, 0, 67, 74
1, 319177, Control_c, 0, 64, 83
1, 319198, Control_c, 0, 64, 78
1, 319213, Control_c, 0, 64, 73
1, 319228, Control_c, 0, 64, 67
1, 319237, Note_on_c, 0, 66, 76
1, 319243, Control_c, 0, 64, 62
1, 319258, Control_c, 0, 64, 56
1, 319272, Control_c, 0, 64, 53
1, 319284, Note_off_c, 0, 59, 51
1, 319287, Control_c, 0, 64, 53
1, 319288, Note_off_c, 0, 65, 60
1, 319324, Note_off_c, 0, 49, 34
1, 319347, Control_c, 0, 67, 73
1, 319356, Note_off_c, 0, 56, 40
1, 319451, Control_c, 0, 64, 53
1, 319540, Note_on_c, 0, 68, 72
1, 319583, Control_c, 0, 64, 54
1, 319642, Note_off_c, 0, 66, 57
1, 319688, Control_c, 0, 64, 53
1, 319688, Control_c, 0, 67, 74
1, 319702, Control_c, 0, 64, 51
1, 319702, Control_c, 0, 67, 75
1, 319717, Control_c, 0, 64, 47
1, 319717, Control_c, 0, 67, 76
1, 319732, Control_c, 0, 64, 32
1, 319732, Control_c, 0, 67, 77
1, 319747, Control_c, 0, 64, 0
1, 319747, Control_c, 0, 67, 78
1, 319762, Control_c, 0, 67, 79
1, 319777, Control_c, 0, 67, 79
1, 319791, Control_c, 0, 67, 80
1, 319963, Control_c, 0, 64, 40
1, 319970, Note_on_c, 0, 71, 69
1, 319978, Control_c, 0, 64, 54
1, 319993, Control_c, 0, 64, 59
1, 319993, Control_c, 0, 67, 79
1, 320008, Control_c, 0, 64, 61
1, 320022, Control_c, 0, 64, 62
1, 320022, Control_c, 0, 67, 79
1, 320027, Note_off_c, 0, 68, 53
1, 320037, Control_c, 0, 64, 63
1, 320052, Control_c, 0, 64, 64
1, 320067, Control_c, 0, 64, 65
1, 320067, Control_c, 0, 67, 78
1, 320082, Control_c, 0, 64, 66
1, 320096, Control_c, 0, 64, 67
1, 320111, Control_c, 0, 64, 68
1, 320126, Control_c, 0, 64, 70
1, 320126, Control_c, 0, 67, 78
1, 320140, Control_c, 0, 64, 72
1, 320155, Control_c, 0, 64, 76
1, 320170, Control_c, 0, 64, 79
1, 320185, Control_c, 0, 64, 81
1, 320200, Control_c, 0, 64, 83
1, 320214, Control_c, 0, 64, 86
1, 320214, Control_c, 0, 67, 77
1, 320229, Control_c, 0, 64, 89
1, 320244, Control_c, 0, 64, 93
1, 320259, Control_c, 0, 64, 97
1, 320274, Control_c, 0, 64, 101
1, 320289, Control_c, 0, 64, 108
1, 320289, Control_c, 0, 67, 77
1, 320304, Control_c, 0, 64, 118
1, 320319, Control_c, 0, 64, 127
1, 320495, Control_c, 0, 67, 76
1, 320602, Note_on_c, 0, 65, 62
1, 320611, Note_on_c, 0, 56, 50
1, 320613, Note_on_c, 0, 42, 44
1, 320614, Note_on_c, 0, 62, 44
1, 320666, Note_off_c, 0, 62, 51
1, 320670, Note_off_c, 0, 56, 55
1, 320692, Note_off_c, 0, 42, 55
1, 320695, Note_off_c, 0, 65, 59
1, 320844, Control_c, 0, 67, 77
1, 320859, Control_c, 0, 67, 78
1, 320874, Control_c, 0, 67, 79
1, 320889, Control_c, 0, 67, 80
1, 320892, Note_on_c, 0, 42, 44
1, 320897, Note_on_c, 0, 56, 46
1, 320897, Note_on_c, 0, 65, 60
1, 320904, Control_c, 0, 67, 82
1, 320906, Note_on_c, 0, 62, 46
1, 320918, Control_c, 0, 64, 108
1, 320918, Control_c, 0, 67, 84
1, 320933, Control_c, 0, 64, 96
1, 320933, Control_c, 0, 67, 89
1, 320946, Note_off_c, 0, 62, 51
1, 320948, Control_c, 0, 64, 87
1, 320948, Control_c, 0, 67, 97
1, 320951, Note_off_c, 0, 56, 56
1, 320957, Note_off_c, 0, 42, 52
1, 320963, Control_c, 0, 64, 78
1, 320963, Control_c, 0, 67, 107
1, 320977, Control_c, 0, 64, 68
1, 320977, Control_c, 0, 67, 118
1, 320980, Note_off_c, 0, 65, 53
1, 320992, Control_c, 0, 64, 54
1, 320992, Control_c, 0, 67, 127
1, 321007, Control_c, 0, 64, 0
1, 321502, Note_on_c, 0, 70, 55
1, 321528, Note_off_c, 0, 71, 39
1, 321871, Note_on_c, 0, 69, 44
1, 321920, Note_off_c, 0, 70, 59
1, 322037, Control_c, 0, 64, 12
1, 322051, Control_c, 0, 64, 15
1, 322066, Control_c, 0, 64, 20
1, 322081, Control_c, 0, 64, 30
1, 322096, Control_c, 0, 64, 42
1, 322110, Control_c, 0, 64, 50
1, 322125, Control_c, 0, 64, 57
1, 322140, Control_c, 0, 64, 62
1, 322155, Control_c, 0, 64, 64
1, 322170, Control_c, 0, 64, 66
1, 322192, Control_c, 0, 64, 70
1, 322207, Control_c, 0, 64, 74
1, 322222, Control_c, 0, 64, 79
1, 322237, Control_c, 0, 64, 82
1, 322253, Control_c, 0, 64, 84
1, 322268, Control_c, 0, 64, 87
1, 322282, Control_c, 0, 64, 90
1, 322297, Control_c, 0, 64, 95
1, 322312, Control_c, 0, 64, 99
1, 322326, Control_c, 0, 64, 104
1, 322341, Control_c, 0, 64, 109
1, 322356, Control_c, 0, 64, 115
1, 322371, Control_c, 0, 64, 124
1, 322386, Control_c, 0, 64, 127
1, 322598, Note_on_c, 0, 42, 35
1, 322613, Note_on_c, 0, 66, 52
1, 322634, Note_on_c, 0, 57, 24
1, 322637, Note_on_c, 0, 61, 27
1, 322724, Note_off_c, 0, 57, 39
1, 322728, Note_off_c, 0, 61, 38
1, 322736, Note_off_c, 0, 66, 54
1, 322744, Note_off_c, 0, 42, 35
1, 322898, Note_on_c, 0, 66, 55
1, 322911, Note_on_c, 0, 61, 42
1, 322912, Note_on_c, 0, 42, 36
1, 322914, Note_on_c, 0, 57, 37
1, 322972, Note_off_c, 0, 57, 42
1, 323030, Control_c, 0, 64, 114
1, 323045, Control_c, 0, 64, 107
1, 323061, Control_c, 0, 64, 102
1, 323076, Control_c, 0, 64, 97
1, 323076, Note_off_c, 0, 61, 38
1, 323091, Control_c, 0, 64, 90
1, 323102, Note_off_c, 0, 66, 29
1, 323105, Control_c, 0, 64, 85
1, 323107, Note_off_c, 0, 42, 42
1, 323120, Control_c, 0, 64, 80
1, 323135, Control_c, 0, 64, 73
1, 323149, Control_c, 0, 64, 66
1, 323164, Control_c, 0, 64, 57
1, 323179, Control_c, 0, 64, 48
1, 323194, Control_c, 0, 64, 47
1, 323282, Control_c, 0, 64, 51
1, 323297, Control_c, 0, 64, 57
1, 323312, Control_c, 0, 64, 62
1, 323327, Control_c, 0, 64, 65
1, 323342, Control_c, 0, 64, 67
1, 323356, Control_c, 0, 64, 70
1, 323371, Control_c, 0, 64, 75
1, 323386, Control_c, 0, 64, 81
1, 323402, Control_c, 0, 64, 85
1, 323417, Control_c, 0, 64, 86
1, 323431, Control_c, 0, 64, 87
1, 323446, Control_c, 0, 64, 88
1, 323461, Control_c, 0, 64, 90
1, 323475, Control_c, 0, 64, 93
1, 323490, Control_c, 0, 64, 97
1, 323505, Control_c, 0, 64, 100
1, 323520, Control_c, 0, 64, 103
1, 323535, Note_off_c, 0, 69, 38
1, 323535, Control_c, 0, 64, 106
1, 323550, Control_c, 0, 64, 109
1, 323565, Control_c, 0, 64, 112
1, 323580, Control_c, 0, 64, 115
1, 323595, Control_c, 0, 64, 119
1, 323610, Control_c, 0, 64, 126
1, 323624, Control_c, 0, 64, 127
1, 323697, Note_on_c, 0, 69, 63
1, 323869, Note_off_c, 0, 69, 59
1, 324102, Note_on_c, 0, 69, 66
1, 324136, Control_c, 0, 67, 126
1, 324151, Control_c, 0, 67, 117
1, 324166, Control_c, 0, 67, 108
1, 324180, Control_c, 0, 67, 99
1, 324195, Control_c, 0, 67, 92
1, 324210, Control_c, 0, 67, 84
1, 324224, Control_c, 0, 64, 126
1, 324224, Control_c, 0, 67, 75
1, 324239, Control_c, 0, 64, 114
1, 324239, Control_c, 0, 67, 68
1, 324254, Control_c, 0, 64, 108
1, 324254, Control_c, 0, 67, 62
1, 324269, Control_c, 0, 64, 102
1, 324269, Control_c, 0, 67, 57
1, 324284, Control_c, 0, 64, 96
1, 324284, Control_c, 0, 67, 54
1, 324298, Control_c, 0, 64, 91
1, 324298, Control_c, 0, 67, 50
1, 324313, Control_c, 0, 64, 86
1, 324313, Control_c, 0, 67, 46
1, 324328, Control_c, 0, 64, 81
1, 324328, Control_c, 0, 67, 43
1, 324341, Note_on_c, 0, 73, 67
1, 324343, Control_c, 0, 64, 76
1, 324343, Control_c, 0, 67, 40
1, 324358, Control_c, 0, 64, 70
1, 324358, Control_c, 0, 67, 36
1, 324373, Control_c, 0, 64, 66
1, 324373, Control_c, 0, 67, 33
1, 324377, Note_off_c, 0, 69, 54
1, 324388, Control_c, 0, 64, 64
1, 324388, Control_c, 0, 67, 28
1, 324403, Control_c, 0, 64, 63
1, 324403, Control_c, 0, 67, 24
1, 324417, Control_c, 0, 67, 19
1, 324439, Control_c, 0, 67, 14
1, 324454, Control_c, 0, 67, 10
1, 324469, Control_c, 0, 64, 62
1, 324469, Control_c, 0, 67, 0
1, 324484, Control_c, 0, 64, 61
1, 324499, Control_c, 0, 64, 60
1, 324513, Control_c, 0, 64, 58
1, 324528, Control_c, 0, 64, 57
1, 324543, Control_c, 0, 64, 56
1, 324587, Control_c, 0, 64, 57
1, 324602, Control_c, 0, 64, 59
1, 324617, Control_c, 0, 64, 61
1, 324632, Control_c, 0, 64, 64
1, 324647, Control_c, 0, 64, 66
1, 324662, Control_c, 0, 64, 69
1, 324677, Control_c, 0, 64, 73
1, 324692, Control_c, 0, 64, 81
1, 324707, Control_c, 0, 64, 86
1, 324722, Control_c, 0, 64, 90
1, 324736, Control_c, 0, 64, 93
1, 324746, Note_on_c, 0, 62, 42
1, 324751, Control_c, 0, 64, 97
1, 324753, Note_on_c, 0, 53, 41
1, 324761, Note_on_c, 0, 56, 36
1, 324766, Control_c, 0, 64, 100
1, 324781, Control_c, 0, 64, 105
1, 324796, Control_c, 0, 64, 110
1, 324811, Control_c, 0, 64, 114
1, 324824, Note_off_c, 0, 53, 51
1, 324826, Control_c, 0, 64, 117
1, 324837, Note_off_c, 0, 62, 49
1, 324841, Control_c, 0, 64, 121
1, 324850, Note_off_c, 0, 56, 38
1, 324855, Control_c, 0, 64, 126
1, 324870, Control_c, 0, 64, 127
1, 324983, Note_on_c, 0, 71, 69
1, 324988, Control_c, 0, 64, 126
1, 325001, Note_on_c, 0, 56, 37
1, 325002, Control_c, 0, 64, 119
1, 325005, Note_on_c, 0, 62, 34
1, 325007, Note_on_c, 0, 53, 31
1, 325017, Control_c, 0, 64, 113
1, 325032, Control_c, 0, 64, 107
1, 325046, Control_c, 0, 64, 103
1, 325061, Control_c, 0, 64, 98
1, 325076, Control_c, 0, 64, 94
1, 325085, Note_off_c, 0, 73, 31
1, 325091, Control_c, 0, 64, 90
1, 325106, Control_c, 0, 64, 86
1, 325121, Control_c, 0, 64, 83
1, 325136, Control_c, 0, 64, 79
1, 325151, Control_c, 0, 64, 74
1, 325173, Control_c, 0, 64, 69
1, 325183, Note_off_c, 0, 53, 46
1, 325188, Control_c, 0, 64, 64
1, 325202, Control_c, 0, 64, 61
1, 325212, Note_off_c, 0, 62, 39
1, 325286, Note_off_c, 0, 56, 34
1, 325648, Control_c, 0, 64, 62
1, 325677, Control_c, 0, 64, 62
1, 325707, Control_c, 0, 64, 63
1, 325722, Control_c, 0, 64, 63
1, 325751, Control_c, 0, 64, 64
1, 325766, Control_c, 0, 64, 64
1, 325781, Control_c, 0, 64, 65
1, 325795, Control_c, 0, 64, 65
1, 325810, Control_c, 0, 64, 66
1, 325825, Control_c, 0, 64, 66
1, 325840, Control_c, 0, 64, 67
1, 325911, Note_on_c, 0, 68, 51
1, 325949, Note_off_c, 0, 71, 55
1, 326025, Control_c, 0, 64, 67
1, 326069, Control_c, 0, 64, 68
1, 326084, Control_c, 0, 64, 69
1, 326099, Control_c, 0, 64, 70
1, 326114, Control_c, 0, 64, 73
1, 326129, Control_c, 0, 64, 76
1, 326143, Control_c, 0, 64, 81
1, 326158, Control_c, 0, 64, 85
1, 326173, Control_c, 0, 64, 87
1, 326188, Control_c, 0, 64, 89
1, 326203, Control_c, 0, 64, 91
1, 326218, Control_c, 0, 64, 93
1, 326233, Control_c, 0, 64, 95
1, 326248, Control_c, 0, 64, 98
1, 326263, Control_c, 0, 64, 100
1, 326278, Control_c, 0, 64, 101
1, 326293, Control_c, 0, 64, 103
1, 326307, Control_c, 0, 64, 104
1, 326322, Control_c, 0, 64, 105
1, 326337, Control_c, 0, 64, 106
1, 326352, Control_c, 0, 64, 106
1, 326367, Control_c, 0, 64, 107
1, 326382, Control_c, 0, 64, 108
1, 326385, Note_on_c, 0, 59, 40
1, 326391, Note_on_c, 0, 52, 37
1, 326397, Control_c, 0, 64, 108
1, 326405, Note_on_c, 0, 62, 21
1, 326412, Control_c, 0, 64, 109
1, 326427, Control_c, 0, 64, 109
1, 326441, Control_c, 0, 64, 110
1, 326455, Note_off_c, 0, 68, 57
1, 326456, Control_c, 0, 64, 110
1, 326476, Note_on_c, 0, 69, 55
1, 326516, Control_c, 0, 64, 111
1, 326569, Note_off_c, 0, 69, 63
1, 326580, Note_on_c, 0, 68, 62
1, 326588, Note_off_c, 0, 52, 36
1, 326627, Note_off_c, 0, 59, 42
1, 326651, Note_off_c, 0, 62, 33
1, 326657, Note_off_c, 0, 68, 62
1, 326683, Note_on_c, 0, 66, 65
1, 326746, Control_c, 0, 64, 110
1, 326760, Control_c, 0, 64, 107
1, 326775, Control_c, 0, 64, 102
1, 326775, Note_off_c, 0, 66, 56
1, 326780, Note_on_c, 0, 68, 68
1, 326790, Control_c, 0, 64, 94
1, 326796, Note_on_c, 0, 59, 37
1, 326796, Note_on_c, 0, 62, 43
1, 326805, Control_c, 0, 64, 86
1, 326815, Note_on_c, 0, 52, 37
1, 326820, Control_c, 0, 64, 77
1, 326834, Control_c, 0, 64, 68
1, 326849, Control_c, 0, 64, 59
1, 326864, Control_c, 0, 64, 53
1, 326879, Control_c, 0, 64, 55
1, 326893, Control_c, 0, 64, 61
1, 326908, Control_c, 0, 64, 64
1, 326923, Control_c, 0, 64, 65
1, 326938, Control_c, 0, 64, 67
1, 326952, Control_c, 0, 64, 70
1, 326967, Control_c, 0, 64, 73
1, 326982, Control_c, 0, 64, 77
1, 326997, Control_c, 0, 64, 80
1, 327006, Note_on_c, 0, 69, 72
1, 327012, Control_c, 0, 64, 82
1, 327053, Note_off_c, 0, 68, 57
1, 327087, Control_c, 0, 64, 81
1, 327102, Control_c, 0, 64, 79
1, 327116, Control_c, 0, 64, 76
1, 327131, Control_c, 0, 64, 73
1, 327146, Control_c, 0, 64, 70
1, 327161, Control_c, 0, 64, 67
1, 327176, Control_c, 0, 64, 66
1, 327191, Control_c, 0, 64, 65
1, 327220, Control_c, 0, 64, 65
1, 327235, Control_c, 0, 64, 64
1, 327249, Control_c, 0, 64, 64
1, 327279, Note_on_c, 0, 71, 65
1, 327279, Control_c, 0, 64, 63
1, 327345, Note_off_c, 0, 69, 52
1, 327468, Note_off_c, 0, 59, 52
1, 327527, Note_off_c, 0, 62, 35
1, 327540, Note_off_c, 0, 52, 52
1, 327723, Note_on_c, 0, 74, 65
1, 327869, Note_off_c, 0, 71, 37
1, 327998, Control_c, 0, 64, 64
1, 328028, Control_c, 0, 64, 64
1, 328043, Control_c, 0, 64, 65
1, 328058, Control_c, 0, 64, 67
1, 328072, Control_c, 0, 64, 71
1, 328087, Control_c, 0, 64, 76
1, 328102, Control_c, 0, 64, 83
1, 328117, Control_c, 0, 64, 88
1, 328132, Control_c, 0, 64, 89
1, 328147, Control_c, 0, 64, 91
1, 328161, Control_c, 0, 64, 92
1, 328184, Control_c, 0, 64, 95
1, 328198, Control_c, 0, 64, 98
1, 328213, Note_on_c, 0, 67, 54
1, 328213, Control_c, 0, 64, 102
1, 328218, Note_on_c, 0, 57, 51
1, 328224, Note_on_c, 0, 64, 52
1, 328228, Control_c, 0, 64, 106
1, 328243, Control_c, 0, 64, 110
1, 328258, Control_c, 0, 64, 115
1, 328272, Control_c, 0, 64, 120
1, 328287, Control_c, 0, 64, 127
1, 328306, Note_off_c, 0, 67, 52
1, 328316, Note_off_c, 0, 64, 57
1, 328329, Note_off_c, 0, 57, 37
1, 328451, Control_c, 0, 64, 112
1, 328465, Note_on_c, 0, 57, 51
1, 328465, Control_c, 0, 64, 102
1, 328468, Note_on_c, 0, 67, 52
1, 328474, Note_on_c, 0, 64, 43
1, 328480, Control_c, 0, 64, 92
1, 328495, Control_c, 0, 64, 84
1, 328510, Control_c, 0, 64, 75
1, 328525, Control_c, 0, 64, 65
1, 328540, Control_c, 0, 64, 22
1, 328544, Note_off_c, 0, 57, 56
1, 328554, Control_c, 0, 64, 0
1, 328574, Note_off_c, 0, 67, 52
1, 328582, Note_off_c, 0, 64, 50
1, 328703, Control_c, 0, 67, 8
1, 328718, Control_c, 0, 67, 10
1, 328733, Control_c, 0, 67, 14
1, 328748, Control_c, 0, 67, 20
1, 328762, Control_c, 0, 67, 30
1, 328777, Control_c, 0, 67, 38
1, 328792, Control_c, 0, 64, 26
1, 328792, Control_c, 0, 67, 45
1, 328807, Control_c, 0, 64, 41
1, 328807, Control_c, 0, 67, 52
1, 328821, Control_c, 0, 64, 54
1, 328821, Control_c, 0, 67, 58
1, 328836, Control_c, 0, 64, 62
1, 328836, Control_c, 0, 67, 63
1, 328851, Control_c, 0, 64, 65
1, 328851, Control_c, 0, 67, 67
1, 328866, Control_c, 0, 64, 69
1, 328866, Control_c, 0, 67, 71
1, 328881, Control_c, 0, 64, 74
1, 328881, Control_c, 0, 67, 73
1, 328895, Control_c, 0, 64, 81
1, 328895, Control_c, 0, 67, 75
1, 328910, Control_c, 0, 64, 87
1, 328910, Control_c, 0, 67, 77
1, 328924, Note_on_c, 0, 58, 45
1, 328925, Note_on_c, 0, 64, 44
1, 328926, Note_on_c, 0, 67, 37
1, 328933, Control_c, 0, 64, 90
1, 328933, Control_c, 0, 67, 78
1, 328947, Control_c, 0, 64, 94
1, 328947, Control_c, 0, 67, 80
1, 328962, Control_c, 0, 64, 98
1, 328962, Control_c, 0, 67, 83
1, 328977, Control_c, 0, 64, 101
1, 328977, Control_c, 0, 67, 86
1, 328992, Control_c, 0, 64, 105
1, 328992, Control_c, 0, 67, 89
1, 329007, Control_c, 0, 64, 107
1, 329007, Control_c, 0, 67, 92
1, 329021, Control_c, 0, 64, 109
1, 329021, Control_c, 0, 67, 95
1, 329036, Control_c, 0, 64, 111
1, 329036, Control_c, 0, 67, 97
1, 329051, Control_c, 0, 64, 112
1, 329051, Control_c, 0, 67, 99
1, 329056, Note_off_c, 0, 58, 36
1, 329063, Note_off_c, 0, 64, 36
1, 329066, Control_c, 0, 64, 112
1, 329066, Control_c, 0, 67, 101
1, 329077, Note_off_c, 0, 67, 34
1, 329081, Control_c, 0, 64, 113
1, 329081, Control_c, 0, 67, 104
1, 329095, Control_c, 0, 64, 114
1, 329095, Control_c, 0, 67, 107
1, 329110, Control_c, 0, 64, 114
1, 329110, Control_c, 0, 67, 110
1, 329125, Control_c, 0, 67, 114
1, 329140, Control_c, 0, 67, 117
1, 329154, Control_c, 0, 67, 121
1, 329169, Control_c, 0, 67, 125
1, 329184, Control_c, 0, 67, 127
1, 329300, Note_on_c, 0, 67, 27
1, 329304, Note_on_c, 0, 58, 25
1, 329309, Note_on_c, 0, 64, 41
1, 329333, Control_c, 0, 64, 111
1, 329347, Control_c, 0, 64, 106
1, 329362, Control_c, 0, 64, 100
1, 329367, Note_on_c, 0, 73, 55
1, 329377, Control_c, 0, 64, 91
1, 329391, Control_c, 0, 64, 82
1, 329406, Control_c, 0, 64, 72
1, 329419, Note_off_c, 0, 74, 58
1, 329420, Control_c, 0, 64, 63
1, 329435, Control_c, 0, 64, 42
1, 329451, Control_c, 0, 64, 43
1, 329466, Control_c, 0, 64, 51
1, 329481, Control_c, 0, 64, 61
1, 329496, Control_c, 0, 64, 65
1, 329511, Control_c, 0, 64, 68
1, 329525, Control_c, 0, 64, 71
1, 329540, Control_c, 0, 64, 77
1, 329555, Control_c, 0, 64, 84
1, 329569, Control_c, 0, 64, 89
1, 329584, Control_c, 0, 64, 92
1, 329599, Control_c, 0, 64, 94
1, 329614, Control_c, 0, 64, 96
1, 329629, Control_c, 0, 64, 97
1, 329643, Control_c, 0, 64, 97
1, 329666, Control_c, 0, 64, 98
1, 329681, Control_c, 0, 64, 98
1, 329839, Note_off_c, 0, 73, 63
1, 329859, Note_on_c, 0, 74, 52
1, 329873, Control_c, 0, 64, 96
1, 329888, Control_c, 0, 64, 93
1, 329903, Control_c, 0, 64, 89
1, 329917, Control_c, 0, 64, 85
1, 329927, Note_off_c, 0, 74, 64
1, 329932, Control_c, 0, 64, 80
1, 329942, Note_on_c, 0, 73, 63
1, 329947, Control_c, 0, 64, 75
1, 329962, Control_c, 0, 64, 69
1, 329977, Control_c, 0, 64, 64
1, 329992, Control_c, 0, 64, 60
1, 330004, Note_off_c, 0, 73, 62
1, 330007, Control_c, 0, 64, 59
1, 330022, Control_c, 0, 64, 59
1, 330027, Note_on_c, 0, 71, 55
1, 330051, Control_c, 0, 64, 58
1, 330066, Control_c, 0, 64, 58
1, 330096, Control_c, 0, 64, 57
1, 330111, Note_off_c, 0, 71, 64
1, 330138, Note_on_c, 0, 73, 55
1, 330304, Note_off_c, 0, 73, 64
1, 330344, Note_on_c, 0, 74, 56
1, 330444, Note_off_c, 0, 64, 57
1, 330445, Note_off_c, 0, 58, 43
1, 330446, Note_off_c, 0, 67, 46
1, 330475, Control_c, 0, 64, 57
1, 330556, Note_on_c, 0, 75, 61
1, 330564, Control_c, 0, 64, 56
1, 330579, Control_c, 0, 67, 125
1, 330586, Note_off_c, 0, 74, 51
1, 330593, Control_c, 0, 67, 116
1, 330608, Control_c, 0, 67, 106
1, 330623, Control_c, 0, 67, 95
1, 330638, Control_c, 0, 67, 84
1, 330653, Control_c, 0, 67, 73
1, 330667, Control_c, 0, 67, 62
1, 330682, Control_c, 0, 67, 53
1, 330697, Control_c, 0, 67, 44
1, 330711, Control_c, 0, 67, 38
1, 330726, Control_c, 0, 67, 33
1, 330741, Control_c, 0, 67, 29
1, 330756, Control_c, 0, 67, 25
1, 330771, Control_c, 0, 67, 23
1, 330785, Control_c, 0, 67, 20
1, 330800, Control_c, 0, 67, 18
1, 330815, Control_c, 0, 67, 15
1, 330830, Control_c, 0, 67, 13
1, 330845, Control_c, 0, 67, 10
1, 330860, Control_c, 0, 67, 8
1, 330874, Control_c, 0, 67, 0
1, 330911, Note_on_c, 0, 78, 67
1, 330946, Note_off_c, 0, 75, 50
1, 331038, Control_c, 0, 64, 57
1, 331323, Note_on_c, 0, 76, 63
1, 331337, Note_off_c, 0, 78, 59
1, 331517, Note_off_c, 0, 76, 61
1, 331518, Note_on_c, 0, 73, 68
1, 331701, Note_on_c, 0, 74, 65
1, 331714, Note_off_c, 0, 73, 61
1, 331921, Note_on_c, 0, 76, 69
1, 331966, Note_off_c, 0, 74, 57
1, 332208, Note_on_c, 0, 79, 72
1, 332254, Control_c, 0, 64, 56
1, 332312, Note_off_c, 0, 76, 56
1, 332328, Control_c, 0, 64, 56
1, 332387, Control_c, 0, 64, 55
1, 332595, Note_on_c, 0, 78, 77
1, 332636, Note_off_c, 0, 79, 61
1, 332868, Note_on_c, 0, 74, 74
1, 332884, Control_c, 0, 64, 55
1, 332929, Note_off_c, 0, 78, 54
1, 333002, Control_c, 0, 64, 54
1, 333092, Control_c, 0, 64, 54
1, 333181, Note_on_c, 0, 76, 73
1, 333225, Control_c, 0, 64, 53
1, 333250, Note_off_c, 0, 74, 55
1, 333500, Control_c, 0, 64, 53
1, 333545, Note_on_c, 0, 78, 72
1, 333618, Control_c, 0, 64, 52
1, 333650, Note_off_c, 0, 76, 56
1, 333736, Control_c, 0, 64, 52
1, 333781, Control_c, 0, 64, 51
1, 333840, Control_c, 0, 64, 51
1, 333929, Control_c, 0, 64, 50
1, 333974, Control_c, 0, 64, 50
1, 334018, Control_c, 0, 64, 49
1, 334122, Control_c, 0, 64, 49
1, 334150, Note_on_c, 0, 81, 83
1, 334204, Control_c, 0, 64, 48
1, 334248, Control_c, 0, 64, 48
1, 334293, Control_c, 0, 64, 47
1, 334353, Control_c, 0, 64, 47
1, 334371, Note_off_c, 0, 78, 30
1, 334382, Control_c, 0, 64, 46
1, 334456, Control_c, 0, 64, 46
1, 334545, Control_c, 0, 64, 45
1, 334678, Control_c, 0, 64, 45
1, 334737, Control_c, 0, 64, 44
1, 334782, Control_c, 0, 64, 44
1, 334922, Control_c, 0, 64, 43
1, 335211, Note_on_c, 0, 79, 52
1, 335308, Note_off_c, 0, 81, 37
1, 335663, Note_on_c, 0, 78, 59
1, 335665, Note_off_c, 0, 79, 56
1, 335929, Note_on_c, 0, 76, 54
1, 335957, Note_off_c, 0, 78, 56
1, 336145, Control_c, 0, 67, 8
1, 336175, Control_c, 0, 67, 8
1, 336190, Control_c, 0, 67, 9
1, 336204, Control_c, 0, 67, 9
1, 336219, Control_c, 0, 67, 10
1, 336234, Control_c, 0, 67, 11
1, 336249, Control_c, 0, 67, 12
1, 336264, Control_c, 0, 67, 12
1, 336278, Control_c, 0, 67, 13
1, 336293, Control_c, 0, 67, 15
1, 336308, Control_c, 0, 67, 18
1, 336323, Control_c, 0, 67, 21
1, 336338, Control_c, 0, 67, 26
1, 336353, Control_c, 0, 67, 30
1, 336368, Control_c, 0, 67, 35
1, 336383, Control_c, 0, 67, 40
1, 336404, Control_c, 0, 67, 45
1, 336419, Control_c, 0, 67, 50
1, 336434, Control_c, 0, 67, 56
1, 336449, Control_c, 0, 67, 63
1, 336453, Note_on_c, 0, 74, 38
1, 336463, Control_c, 0, 67, 70
1, 336478, Control_c, 0, 67, 76
1, 336493, Control_c, 0, 67, 83
1, 336496, Note_off_c, 0, 76, 53
1, 336508, Control_c, 0, 67, 89
1, 336523, Control_c, 0, 67, 96
1, 336538, Control_c, 0, 67, 103
1, 336553, Control_c, 0, 67, 111
1, 336568, Control_c, 0, 67, 118
1, 336582, Control_c, 0, 67, 126
1, 336597, Control_c, 0, 67, 127
1, 336808, Note_on_c, 0, 73, 46
1, 336888, Note_off_c, 0, 74, 41
1, 337465, Control_c, 0, 64, 44
1, 337584, Control_c, 0, 64, 44
1, 337643, Control_c, 0, 64, 45
1, 337671, Note_on_c, 0, 72, 44
1, 337725, Note_off_c, 0, 73, 32
1, 337762, Control_c, 0, 64, 46
1, 337776, Control_c, 0, 64, 47
1, 337791, Control_c, 0, 64, 52
1, 337806, Control_c, 0, 64, 59
1, 337821, Control_c, 0, 64, 64
1, 337835, Control_c, 0, 64, 66
1, 337850, Control_c, 0, 64, 69
1, 337865, Control_c, 0, 64, 73
1, 337880, Control_c, 0, 64, 79
1, 337895, Control_c, 0, 64, 85
1, 337917, Control_c, 0, 64, 89
1, 337932, Control_c, 0, 64, 93
1, 337947, Control_c, 0, 64, 97
1, 337961, Control_c, 0, 64, 101
1, 337976, Control_c, 0, 64, 109
1, 337988, Note_off_c, 0, 72, 36
1, 337991, Control_c, 0, 64, 117
1, 338006, Control_c, 0, 64, 127
1, 338548, Note_on_c, 0, 60, 32
1, 338680, Note_on_c, 0, 64, 43
1, 338738, Note_off_c, 0, 60, 33
1, 338812, Note_on_c, 0, 69, 38
1, 338927, Note_off_c, 0, 64, 34
1, 339060, Note_on_c, 0, 72, 65
1, 339106, Note_off_c, 0, 69, 53
1, 339464, Note_on_c, 0, 70, 65
1, 339473, Note_off_c, 0, 72, 53
1, 339492, Note_on_c, 0, 67, 40
1, 339595, Note_off_c, 0, 67, 56
1, 339602, Note_off_c, 0, 70, 53
1, 339700, Note_on_c, 0, 36, 37
1, 339727, Note_on_c, 0, 67, 57
1, 339739, Note_on_c, 0, 64, 50
1, 339799, Control_c, 0, 64, 104
1, 339814, Control_c, 0, 64, 93
1, 339830, Control_c, 0, 64, 86
1, 339845, Control_c, 0, 64, 81
1, 339860, Control_c, 0, 64, 77
1, 339875, Control_c, 0, 64, 76
1, 339885, Note_off_c, 0, 67, 56
1, 339890, Control_c, 0, 64, 76
1, 339904, Control_c, 0, 64, 78
1, 339917, Note_off_c, 0, 64, 55
1, 339919, Control_c, 0, 64, 80
1, 339920, Note_on_c, 0, 65, 60
1, 339923, Note_on_c, 0, 69, 55
1, 339934, Control_c, 0, 64, 82
1, 339948, Control_c, 0, 64, 85
1, 339963, Control_c, 0, 64, 88
1, 339978, Control_c, 0, 64, 90
1, 339993, Control_c, 0, 64, 93
1, 340002, Note_off_c, 0, 69, 62
1, 340008, Control_c, 0, 64, 95
1, 340022, Control_c, 0, 64, 97
1, 340037, Control_c, 0, 64, 99
1, 340052, Control_c, 0, 64, 100
1, 340067, Control_c, 0, 64, 101
1, 340082, Control_c, 0, 64, 102
1, 340083, Note_off_c, 0, 65, 35
1, 340093, Note_on_c, 0, 70, 73
1, 340097, Control_c, 0, 64, 102
1, 340104, Note_on_c, 0, 67, 49
1, 340112, Control_c, 0, 64, 103
1, 340127, Control_c, 0, 64, 103
1, 340163, Control_c, 0, 64, 104
1, 340175, Note_off_c, 0, 67, 48
1, 340198, Note_off_c, 0, 70, 57
1, 340240, Note_on_c, 0, 60, 58
1, 340343, Note_on_c, 0, 65, 59
1, 340346, Note_off_c, 0, 60, 51
1, 340356, Control_c, 0, 64, 102
1, 340371, Control_c, 0, 64, 100
1, 340386, Control_c, 0, 64, 97
1, 340401, Control_c, 0, 64, 94
1, 340416, Note_on_c, 0, 70, 68
1, 340416, Control_c, 0, 64, 89
1, 340430, Control_c, 0, 64, 84
1, 340441, Note_off_c, 0, 65, 55
1, 340445, Control_c, 0, 64, 78
1, 340460, Control_c, 0, 64, 67
1, 340475, Control_c, 0, 64, 48
1, 340490, Control_c, 0, 64, 0
1, 340508, Note_on_c, 0, 74, 61
1, 340532, Note_off_c, 0, 70, 57
1, 340548, Control_c, 0, 64, 45
1, 340563, Control_c, 0, 64, 62
1, 340578, Control_c, 0, 64, 66
1, 340593, Control_c, 0, 64, 70
1, 340608, Control_c, 0, 64, 77
1, 340624, Control_c, 0, 64, 86
1, 340639, Control_c, 0, 64, 92
1, 340653, Control_c, 0, 64, 96
1, 340668, Control_c, 0, 64, 99
1, 340683, Control_c, 0, 64, 101
1, 340698, Control_c, 0, 64, 103
1, 340713, Control_c, 0, 64, 105
1, 340727, Control_c, 0, 64, 107
1, 340742, Control_c, 0, 64, 109
1, 340757, Control_c, 0, 64, 111
1, 340768, Note_off_c, 0, 36, 34
1, 340771, Control_c, 0, 64, 112
1, 340786, Control_c, 0, 64, 112
1, 340801, Control_c, 0, 64, 114
1, 340816, Control_c, 0, 64, 114
1, 340831, Control_c, 0, 64, 115
1, 340845, Control_c, 0, 64, 116
1, 340860, Control_c, 0, 64, 117
1, 340875, Control_c, 0, 64, 119
1, 340881, Note_on_c, 0, 72, 69
1, 340898, Control_c, 0, 64, 120
1, 340910, Note_on_c, 0, 69, 43
1, 340913, Note_off_c, 0, 74, 38
1, 340913, Control_c, 0, 64, 122
1, 340927, Control_c, 0, 64, 126
1, 340942, Control_c, 0, 64, 127
1, 341002, Note_off_c, 0, 69, 53
1, 341090, Control_c, 0, 64, 115
1, 341105, Control_c, 0, 64, 104
1, 341110, Note_on_c, 0, 36, 40
1, 341119, Control_c, 0, 64, 92
1, 341121, Note_off_c, 0, 72, 57
1, 341124, Note_on_c, 0, 69, 62
1, 341134, Note_on_c, 0, 65, 50
1, 341134, Control_c, 0, 64, 81
1, 341149, Control_c, 0, 64, 68
1, 341164, Control_c, 0, 64, 61
1, 341179, Control_c, 0, 64, 61
1, 341194, Control_c, 0, 64, 64
1, 341209, Control_c, 0, 64, 68
1, 341224, Control_c, 0, 64, 74
1, 341239, Control_c, 0, 64, 82
1, 341253, Control_c, 0, 64, 89
1, 341267, Note_off_c, 0, 69, 61
1, 341268, Control_c, 0, 64, 91
1, 341283, Control_c, 0, 64, 93
1, 341297, Control_c, 0, 64, 93
1, 341312, Control_c, 0, 64, 94
1, 341327, Control_c, 0, 64, 95
1, 341342, Control_c, 0, 64, 97
1, 341357, Control_c, 0, 64, 99
1, 341371, Control_c, 0, 64, 99
1, 341386, Control_c, 0, 64, 100
1, 341401, Control_c, 0, 64, 101
1, 341416, Control_c, 0, 64, 102
1, 341432, Control_c, 0, 64, 103
1, 341447, Control_c, 0, 64, 104
1, 341456, Note_off_c, 0, 65, 60
1, 341462, Control_c, 0, 64, 105
1, 341462, Note_on_c, 0, 69, 67
1, 341468, Note_on_c, 0, 72, 74
1, 341476, Control_c, 0, 64, 106
1, 341491, Control_c, 0, 64, 107
1, 341506, Control_c, 0, 64, 109
1, 341515, Note_off_c, 0, 69, 59
1, 341520, Control_c, 0, 64, 110
1, 341535, Control_c, 0, 64, 111
1, 341550, Control_c, 0, 64, 112
1, 341565, Control_c, 0, 64, 113
1, 341580, Control_c, 0, 64, 114
1, 341592, Note_off_c, 0, 72, 57
1, 341594, Control_c, 0, 64, 114
1, 341623, Note_on_c, 0, 60, 68
1, 341696, Note_on_c, 0, 65, 73
1, 341719, Note_off_c, 0, 60, 54
1, 341775, Note_on_c, 0, 70, 73
1, 341794, Control_c, 0, 64, 113
1, 341809, Control_c, 0, 64, 106
1, 341822, Note_off_c, 0, 65, 49
1, 341824, Control_c, 0, 64, 96
1, 341839, Control_c, 0, 64, 85
1, 341854, Control_c, 0, 64, 72
1, 341864, Note_on_c, 0, 74, 68
1, 341869, Control_c, 0, 64, 63
1, 341883, Control_c, 0, 64, 53
1, 341898, Control_c, 0, 64, 59
1, 341913, Control_c, 0, 64, 64
1, 341923, Note_off_c, 0, 70, 53
1, 341927, Control_c, 0, 64, 68
1, 341942, Control_c, 0, 64, 74
1, 341957, Control_c, 0, 64, 83
1, 341972, Control_c, 0, 64, 89
1, 341987, Control_c, 0, 64, 92
1, 342002, Control_c, 0, 64, 94
1, 342017, Control_c, 0, 64, 95
1, 342032, Control_c, 0, 64, 96
1, 342046, Control_c, 0, 64, 98
1, 342061, Control_c, 0, 64, 99
1, 342076, Control_c, 0, 64, 101
1, 342091, Control_c, 0, 64, 102
1, 342106, Control_c, 0, 64, 103
1, 342120, Control_c, 0, 64, 104
1, 342135, Control_c, 0, 64, 105
1, 342150, Control_c, 0, 64, 105
1, 342162, Note_off_c, 0, 36, 36
1, 342165, Control_c, 0, 64, 106
1, 342180, Control_c, 0, 64, 107
1, 342201, Note_on_c, 0, 72, 69
1, 342204, Note_off_c, 0, 74, 50
1, 342208, Note_on_c, 0, 69, 52
1, 342209, Control_c, 0, 64, 107
1, 342255, Control_c, 0, 64, 108
1, 342261, Note_off_c, 0, 69, 55
1, 342300, Note_off_c, 0, 72, 57
1, 342351, Note_on_c, 0, 36, 40
1, 342358, Control_c, 0, 64, 107
1, 342373, Control_c, 0, 64, 101
1, 342373, Control_c, 0, 67, 126
1, 342386, Note_on_c, 0, 69, 66
1, 342388, Control_c, 0, 64, 92
1, 342388, Control_c, 0, 67, 124
1, 342391, Note_on_c, 0, 65, 60
1, 342410, Control_c, 0, 64, 82
1, 342410, Control_c, 0, 67, 124
1, 342425, Control_c, 0, 64, 72
1, 342425, Control_c, 0, 67, 123
1, 342440, Control_c, 0, 64, 65
1, 342440, Control_c, 0, 67, 123
1, 342455, Control_c, 0, 64, 63
1, 342470, Control_c, 0, 64, 65
1, 342470, Control_c, 0, 67, 122
1, 342485, Control_c, 0, 64, 68
1, 342499, Control_c, 0, 64, 72
1, 342499, Control_c, 0, 67, 122
1, 342514, Control_c, 0, 64, 78
1, 342514, Control_c, 0, 67, 121
1, 342529, Control_c, 0, 64, 84
1, 342529, Control_c, 0, 67, 121
1, 342544, Control_c, 0, 64, 87
1, 342544, Control_c, 0, 67, 120
1, 342558, Control_c, 0, 64, 90
1, 342558, Control_c, 0, 67, 119
1, 342563, Note_off_c, 0, 65, 49
1, 342571, Note_on_c, 0, 72, 85
1, 342573, Control_c, 0, 64, 92
1, 342573, Control_c, 0, 67, 119
1, 342586, Note_off_c, 0, 69, 59
1, 342588, Control_c, 0, 64, 93
1, 342588, Control_c, 0, 67, 118
1, 342603, Control_c, 0, 64, 95
1, 342603, Control_c, 0, 67, 117
1, 342618, Control_c, 0, 64, 97
1, 342618, Control_c, 0, 67, 117
1, 342632, Control_c, 0, 64, 99
1, 342647, Control_c, 0, 64, 101
1, 342647, Control_c, 0, 67, 116
1, 342662, Control_c, 0, 64, 102
1, 342662, Control_c, 0, 67, 116
1, 342676, Control_c, 0, 64, 103
1, 342676, Control_c, 0, 67, 115
1, 342687, Note_off_c, 0, 72, 63
1, 342691, Control_c, 0, 64, 104
1, 342706, Control_c, 0, 64, 104
1, 342706, Control_c, 0, 67, 115
1, 342721, Control_c, 0, 64, 105
1, 342726, Note_on_c, 0, 77, 83
1, 342750, Control_c, 0, 64, 105
1, 342750, Control_c, 0, 67, 114
1, 342765, Control_c, 0, 64, 106
1, 342813, Note_off_c, 0, 77, 61
1, 342825, Control_c, 0, 67, 114
1, 342828, Note_on_c, 0, 67, 67
1, 342906, Note_on_c, 0, 70, 75
1, 342915, Note_off_c, 0, 36, 41
1, 342929, Control_c, 0, 64, 104
1, 342944, Control_c, 0, 64, 98
1, 342959, Control_c, 0, 64, 90
1, 342971, Note_on_c, 0, 77, 74
1, 342974, Control_c, 0, 64, 80
1, 342988, Control_c, 0, 64, 69
1, 343003, Control_c, 0, 64, 30
1, 343019, Control_c, 0, 64, 0
1, 343093, Control_c, 0, 64, 39
1, 343108, Control_c, 0, 64, 60
1, 343123, Control_c, 0, 64, 65
1, 343137, Control_c, 0, 64, 68
1, 343160, Control_c, 0, 64, 74
1, 343160, Control_c, 0, 67, 113
1, 343174, Control_c, 0, 64, 83
1, 343189, Control_c, 0, 64, 90
1, 343204, Control_c, 0, 64, 94
1, 343219, Control_c, 0, 64, 97
1, 343234, Control_c, 0, 64, 99
1, 343248, Control_c, 0, 64, 103
1, 343263, Control_c, 0, 64, 107
1, 343278, Control_c, 0, 64, 114
1, 343293, Control_c, 0, 64, 124
1, 343307, Control_c, 0, 64, 127
1, 343361, Note_on_c, 0, 36, 34
1, 343480, Note_off_c, 0, 67, 37
1, 343519, Note_on_c, 0, 48, 53
1, 343524, Note_on_c, 0, 76, 62
1, 343525, Note_off_c, 0, 36, 37
1, 343542, Note_off_c, 0, 70, 57
1, 343558, Note_off_c, 0, 77, 52
1, 343564, Note_off_c, 0, 48, 60
1, 343574, Control_c, 0, 67, 113
1, 343700, Note_on_c, 0, 55, 61
1, 343744, Note_off_c, 0, 76, 57
1, 343828, Note_off_c, 0, 55, 62
1, 343838, Note_on_c, 0, 60, 69
1, 343856, Control_c, 0, 67, 113
1, 343918, Note_off_c, 0, 60, 59
1, 343933, Note_on_c, 0, 48, 61
1, 343982, Control_c, 0, 64, 106
1, 343988, Note_on_c, 0, 57, 72
1, 343996, Control_c, 0, 64, 88
1, 344011, Control_c, 0, 64, 71
1, 344026, Control_c, 0, 64, 30
1, 344041, Note_on_c, 0, 60, 81
1, 344041, Control_c, 0, 64, 0
1, 344056, Control_c, 0, 67, 114
1, 344065, Note_off_c, 0, 57, 61
1, 344071, Control_c, 0, 64, 55
1, 344085, Control_c, 0, 64, 66
1, 344100, Control_c, 0, 64, 73
1, 344115, Control_c, 0, 64, 84
1, 344130, Control_c, 0, 64, 93
1, 344145, Control_c, 0, 64, 97
1, 344160, Control_c, 0, 64, 99
1, 344175, Control_c, 0, 64, 101
1, 344178, Note_off_c, 0, 60, 57
1, 344190, Control_c, 0, 64, 104
1, 344204, Control_c, 0, 64, 108
1, 344211, Note_off_c, 0, 48, 48
1, 344219, Control_c, 0, 64, 113
1, 344234, Control_c, 0, 64, 119
1, 344237, Note_on_c, 0, 64, 65
1, 344248, Control_c, 0, 64, 127
1, 344314, Note_off_c, 0, 64, 63
1, 344406, Note_on_c, 0, 58, 65
1, 344410, Note_on_c, 0, 55, 56
1, 344425, Note_on_c, 0, 72, 75
1, 344484, Note_off_c, 0, 72, 64
1, 344515, Control_c, 0, 67, 114
1, 344530, Note_off_c, 0, 58, 40
1, 344530, Control_c, 0, 67, 115
1, 344532, Note_off_c, 0, 55, 37
1, 344544, Control_c, 0, 67, 116
1, 344559, Control_c, 0, 67, 117
1, 344574, Control_c, 0, 67, 118
1, 344589, Control_c, 0, 67, 120
1, 344604, Control_c, 0, 67, 121
1, 344619, Control_c, 0, 67, 123
1, 344642, Control_c, 0, 67, 126
1, 344657, Control_c, 0, 67, 127
1, 344669, Note_on_c, 0, 52, 60
1, 344669, Note_on_c, 0, 55, 62
1, 344671, Control_c, 0, 64, 100
1, 344682, Note_on_c, 0, 84, 83
1, 344686, Control_c, 0, 64, 83
1, 344701, Control_c, 0, 64, 69
1, 344716, Control_c, 0, 64, 62
1, 344731, Control_c, 0, 64, 63
1, 344739, Note_off_c, 0, 52, 59
1, 344745, Control_c, 0, 64, 68
1, 344760, Control_c, 0, 64, 76
1, 344775, Control_c, 0, 64, 89
1, 344790, Control_c, 0, 64, 101
1, 344805, Control_c, 0, 64, 108
1, 344807, Note_off_c, 0, 55, 39
1, 344816, Note_off_c, 0, 84, 57
1, 344819, Control_c, 0, 64, 111
1, 344834, Control_c, 0, 64, 112
1, 344849, Control_c, 0, 64, 114
1, 344852, Note_on_c, 0, 57, 69
1, 344864, Note_on_c, 0, 53, 58
1, 344864, Control_c, 0, 64, 117
1, 344878, Control_c, 0, 64, 122
1, 344887, Note_off_c, 0, 57, 61
1, 344893, Control_c, 0, 64, 127
1, 344989, Note_on_c, 0, 55, 52
1, 344991, Note_on_c, 0, 58, 78
1, 345003, Note_off_c, 0, 53, 34
1, 345016, Note_off_c, 0, 55, 62
1, 345056, Note_off_c, 0, 58, 61
1, 345074, Note_on_c, 0, 48, 57
1, 345129, Note_off_c, 0, 48, 53
1, 345150, Note_on_c, 0, 58, 70
1, 345175, Control_c, 0, 64, 110
1, 345190, Control_c, 0, 64, 92
1, 345205, Control_c, 0, 64, 76
1, 345219, Control_c, 0, 64, 58
1, 345224, Note_on_c, 0, 62, 76
1, 345234, Control_c, 0, 64, 0
1, 345278, Control_c, 0, 64, 58
1, 345293, Control_c, 0, 64, 66
1, 345308, Control_c, 0, 64, 71
1, 345323, Control_c, 0, 64, 79
1, 345337, Control_c, 0, 64, 89
1, 345352, Control_c, 0, 64, 93
1, 345367, Note_off_c, 0, 62, 57
1, 345367, Control_c, 0, 64, 94
1, 345382, Control_c, 0, 64, 96
1, 345404, Control_c, 0, 64, 99
1, 345411, Note_on_c, 0, 65, 66
1, 345421, Control_c, 0, 64, 101
1, 345436, Control_c, 0, 64, 104
1, 345450, Control_c, 0, 64, 107
1, 345465, Control_c, 0, 64, 109
1, 345480, Control_c, 0, 64, 111
1, 345494, Control_c, 0, 64, 114
1, 345507, Note_off_c, 0, 65, 61
1, 345509, Control_c, 0, 64, 115
1, 345524, Control_c, 0, 64, 118
1, 345539, Control_c, 0, 64, 121
1, 345554, Control_c, 0, 64, 127
1, 345569, Note_off_c, 0, 58, 55
1, 345614, Note_on_c, 0, 60, 66
1, 345615, Note_on_c, 0, 72, 80
1, 345616, Note_on_c, 0, 57, 58
1, 345677, Note_off_c, 0, 72, 64
1, 345717, Note_off_c, 0, 57, 59
1, 345894, Control_c, 0, 64, 105
1, 345909, Control_c, 0, 64, 88
1, 345913, Note_on_c, 0, 84, 75
1, 345924, Note_on_c, 0, 57, 48
1, 345924, Control_c, 0, 64, 74
1, 345934, Note_on_c, 0, 53, 42
1, 345939, Control_c, 0, 64, 58
1, 345944, Note_off_c, 0, 60, 36
1, 345954, Control_c, 0, 64, 51
1, 345968, Control_c, 0, 64, 61
1, 345983, Control_c, 0, 64, 66
1, 345998, Control_c, 0, 64, 73
1, 346012, Control_c, 0, 64, 86
1, 346023, Note_off_c, 0, 57, 52
1, 346027, Control_c, 0, 64, 98
1, 346042, Control_c, 0, 64, 107
1, 346045, Note_off_c, 0, 84, 58
1, 346057, Control_c, 0, 64, 110
1, 346072, Control_c, 0, 64, 113
1, 346086, Control_c, 0, 64, 117
1, 346101, Control_c, 0, 64, 127
1, 346212, Note_off_c, 0, 53, 54
1, 346236, Note_on_c, 0, 57, 69
1, 346236, Note_on_c, 0, 60, 77
1, 346270, Note_off_c, 0, 57, 57
1, 346285, Note_off_c, 0, 60, 58
1, 346345, Note_on_c, 0, 48, 66
1, 346400, Note_on_c, 0, 58, 73
1, 346413, Note_off_c, 0, 48, 59
1, 346480, Control_c, 0, 64, 98
1, 346494, Note_on_c, 0, 62, 85
1, 346495, Control_c, 0, 64, 80
1, 346509, Control_c, 0, 64, 64
1, 346524, Control_c, 0, 64, 0
1, 346569, Control_c, 0, 64, 61
1, 346583, Control_c, 0, 64, 68
1, 346598, Control_c, 0, 64, 75
1, 346614, Control_c, 0, 64, 86
1, 346629, Control_c, 0, 64, 93
1, 346638, Note_off_c, 0, 62, 57
1, 346643, Control_c, 0, 64, 98
1, 346658, Control_c, 0, 64, 101
1, 346673, Control_c, 0, 64, 104
1, 346682, Note_on_c, 0, 65, 71
1, 346688, Control_c, 0, 64, 107
1, 346703, Control_c, 0, 64, 112
1, 346718, Control_c, 0, 64, 119
1, 346732, Control_c, 0, 64, 127
1, 346773, Note_off_c, 0, 65, 62
1, 346826, Note_off_c, 0, 58, 57
1, 346850, Note_on_c, 0, 57, 60
1, 346874, Note_on_c, 0, 72, 86
1, 346876, Note_on_c, 0, 60, 66
1, 346937, Note_off_c, 0, 72, 64
1, 347001, Note_off_c, 0, 57, 31
1, 347098, Note_off_c, 0, 60, 58
1, 347108, Note_on_c, 0, 57, 61
1, 347128, Note_on_c, 0, 53, 57
1, 347141, Control_c, 0, 64, 112
1, 347156, Control_c, 0, 64, 92
1, 347171, Control_c, 0, 64, 77
1, 347185, Note_on_c, 0, 84, 82
1, 347186, Control_c, 0, 64, 63
1, 347200, Control_c, 0, 64, 32
1, 347215, Control_c, 0, 64, 51
1, 347230, Control_c, 0, 64, 64
1, 347245, Control_c, 0, 64, 72
1, 347260, Control_c, 0, 64, 85
1, 347274, Control_c, 0, 64, 99
1, 347289, Control_c, 0, 64, 107
1, 347304, Control_c, 0, 64, 110
1, 347319, Control_c, 0, 64, 114
1, 347322, Note_off_c, 0, 84, 56
1, 347334, Control_c, 0, 64, 119
1, 347348, Control_c, 0, 64, 127
1, 347390, Note_on_c, 0, 60, 85
1, 347427, Note_off_c, 0, 57, 60
1, 347551, Note_off_c, 0, 53, 60
1, 347569, Note_on_c, 0, 65, 84
1, 347584, Note_off_c, 0, 60, 60
1, 347598, Note_off_c, 0, 65, 65
1, 347719, Note_on_c, 0, 48, 60
1, 347790, Note_off_c, 0, 48, 60
1, 347803, Note_on_c, 0, 55, 75
1, 347896, Note_on_c, 0, 58, 77
1, 348018, Note_on_c, 0, 65, 91
1, 348023, Control_c, 0, 64, 100
1, 348038, Control_c, 0, 64, 75
1, 348053, Control_c, 0, 64, 0
1, 348126, Control_c, 0, 64, 55
1, 348141, Control_c, 0, 64, 68
1, 348156, Control_c, 0, 64, 75
1, 348170, Control_c, 0, 64, 85
1, 348185, Control_c, 0, 64, 92
1, 348200, Control_c, 0, 64, 96
1, 348214, Control_c, 0, 64, 101
1, 348229, Control_c, 0, 64, 106
1, 348244, Control_c, 0, 64, 117
1, 348259, Control_c, 0, 64, 127
1, 348266, Note_on_c, 0, 78, 69
1, 348282, Note_on_c, 0, 66, 57
1, 348370, Note_off_c, 0, 66, 62
1, 348396, Note_off_c, 0, 78, 54
1, 348435, Note_off_c, 0, 65, 57
1, 348462, Note_on_c, 0, 79, 72
1, 348472, Note_on_c, 0, 67, 59
1, 348539, Note_off_c, 0, 67, 58
1, 348593, Note_off_c, 0, 79, 61
1, 348661, Note_on_c, 0, 64, 60
1, 348697, Control_c, 0, 64, 95
1, 348712, Control_c, 0, 64, 75
1, 348727, Control_c, 0, 64, 50
1, 348733, Note_on_c, 0, 81, 71
1, 348735, Note_on_c, 0, 69, 59
1, 348742, Control_c, 0, 64, 0
1, 348757, Control_c, 0, 64, 38
1, 348771, Control_c, 0, 64, 64
1, 348786, Note_off_c, 0, 69, 59
1, 348786, Control_c, 0, 64, 72
1, 348801, Control_c, 0, 64, 85
1, 348816, Control_c, 0, 64, 98
1, 348831, Control_c, 0, 64, 104
1, 348845, Control_c, 0, 64, 105
1, 348860, Control_c, 0, 64, 107
1, 348875, Control_c, 0, 64, 108
1, 348890, Control_c, 0, 64, 111
1, 348905, Control_c, 0, 64, 117
1, 348919, Control_c, 0, 64, 127
1, 348933, Note_on_c, 0, 82, 72
1, 348940, Note_on_c, 0, 70, 69
1, 348956, Note_off_c, 0, 81, 60
1, 349001, Note_off_c, 0, 70, 57
1, 349045, Note_off_c, 0, 82, 65
1, 349072, Note_off_c, 0, 64, 60
1, 349086, Note_on_c, 0, 83, 80
1, 349094, Note_on_c, 0, 71, 65
1, 349123, Note_off_c, 0, 71, 66
1, 349131, Note_off_c, 0, 58, 56
1, 349155, Note_off_c, 0, 55, 61
1, 349180, Note_off_c, 0, 83, 64
1, 349208, Control_c, 0, 67, 119
1, 349219, Note_on_c, 0, 72, 76
1, 349223, Control_c, 0, 67, 108
1, 349237, Control_c, 0, 67, 94
1, 349252, Control_c, 0, 67, 78
1, 349267, Control_c, 0, 67, 62
1, 349275, Note_on_c, 0, 76, 67
1, 349282, Control_c, 0, 67, 51
1, 349297, Control_c, 0, 67, 42
1, 349311, Control_c, 0, 67, 34
1, 349322, Note_on_c, 0, 81, 79
1, 349326, Control_c, 0, 67, 27
1, 349341, Control_c, 0, 64, 101
1, 349341, Control_c, 0, 67, 20
1, 349356, Control_c, 0, 64, 82
1, 349356, Control_c, 0, 67, 14
1, 349363, Note_on_c, 0, 84, 80
1, 349371, Control_c, 0, 64, 65
1, 349371, Control_c, 0, 67, 0
1, 349385, Control_c, 0, 64, 0
1, 349394, Note_off_c, 0, 81, 64
1, 349415, Note_off_c, 0, 72, 0
1, 349415, Note_on_c, 0, 72, 10
1, 349431, Control_c, 0, 64, 61
1, 349446, Control_c, 0, 64, 69
1, 349460, Control_c, 0, 64, 79
1, 349475, Control_c, 0, 64, 89
1, 349490, Control_c, 0, 64, 96
1, 349505, Control_c, 0, 64, 98
1, 349506, Note_off_c, 0, 84, 62
1, 349520, Control_c, 0, 64, 101
1, 349534, Note_on_c, 0, 36, 51
1, 349535, Control_c, 0, 64, 104
1, 349549, Control_c, 0, 64, 110
1, 349564, Control_c, 0, 64, 119
1, 349568, Note_off_c, 0, 72, 39
1, 349579, Control_c, 0, 64, 127
1, 349621, Note_off_c, 0, 76, 39
1, 349732, Note_off_c, 0, 36, 58
1, 349747, Note_on_c, 0, 82, 71
1, 349752, Note_on_c, 0, 70, 66
1, 349752, Note_on_c, 0, 79, 49
1, 349762, Note_on_c, 0, 48, 48
1, 349795, Note_off_c, 0, 79, 57
1, 349799, Note_off_c, 0, 48, 63
1, 349842, Note_off_c, 0, 82, 65
1, 349855, Note_off_c, 0, 70, 61
1, 350061, Control_c, 0, 64, 94
1, 350062, Note_on_c, 0, 58, 48
1, 350065, Note_on_c, 0, 64, 54
1, 350068, Note_on_c, 0, 79, 66
1, 350071, Note_on_c, 0, 76, 52
1, 350073, Note_on_c, 0, 55, 45
1, 350076, Control_c, 0, 64, 76
1, 350077, Note_on_c, 0, 67, 56
1, 350091, Control_c, 0, 64, 62
1, 350106, Control_c, 0, 64, 53
1, 350120, Control_c, 0, 64, 62
1, 350123, Note_off_c, 0, 67, 59
1, 350135, Control_c, 0, 64, 68
1, 350150, Control_c, 0, 64, 77
1, 350159, Note_off_c, 0, 79, 61
1, 350165, Control_c, 0, 64, 92
1, 350180, Control_c, 0, 64, 104
1, 350194, Control_c, 0, 64, 111
1, 350196, Note_off_c, 0, 76, 48
1, 350210, Control_c, 0, 64, 115
1, 350225, Control_c, 0, 64, 120
1, 350240, Control_c, 0, 64, 127
1, 350244, Note_on_c, 0, 81, 78
1, 350249, Note_on_c, 0, 69, 66
1, 350255, Note_on_c, 0, 77, 56
1, 350285, Note_off_c, 0, 69, 60
1, 350292, Note_off_c, 0, 77, 62
1, 350294, Note_off_c, 0, 81, 66
1, 350411, Note_on_c, 0, 82, 75
1, 350412, Note_on_c, 0, 79, 56
1, 350417, Note_on_c, 0, 70, 73
1, 350444, Note_off_c, 0, 64, 63
1, 350451, Note_off_c, 0, 70, 62
1, 350465, Note_off_c, 0, 58, 62
1, 350468, Note_off_c, 0, 55, 56
1, 350474, Note_off_c, 0, 79, 63
1, 350488, Note_off_c, 0, 82, 64
1, 350563, Note_on_c, 0, 74, 65
1, 350605, Note_on_c, 0, 77, 68
1, 350665, Note_on_c, 0, 82, 74
1, 350691, Control_c, 0, 64, 112
1, 350706, Control_c, 0, 64, 90
1, 350709, Note_on_c, 0, 86, 84
1, 350721, Control_c, 0, 64, 72
1, 350736, Control_c, 0, 64, 0
1, 350781, Control_c, 0, 64, 55
1, 350795, Control_c, 0, 64, 65
1, 350799, Note_off_c, 0, 82, 50
1, 350810, Control_c, 0, 64, 72
1, 350825, Control_c, 0, 64, 81
1, 350840, Control_c, 0, 64, 93
1, 350855, Control_c, 0, 64, 99
1, 350861, Note_on_c, 0, 36, 64
1, 350870, Control_c, 0, 64, 105
1, 350884, Control_c, 0, 64, 112
1, 350892, Note_off_c, 0, 86, 52
1, 350899, Control_c, 0, 64, 127
1, 350957, Note_off_c, 0, 74, 59
1, 350966, Note_off_c, 0, 77, 51
1, 351054, Note_off_c, 0, 36, 56
1, 351087, Note_on_c, 0, 84, 76
1, 351088, Note_on_c, 0, 81, 78
1, 351090, Note_on_c, 0, 48, 51
1, 351095, Note_on_c, 0, 72, 67
1, 351130, Note_off_c, 0, 48, 62
1, 351205, Note_off_c, 0, 84, 58
1, 351266, Note_off_c, 0, 81, 53
1, 351290, Note_off_c, 0, 72, 60
1, 351437, Note_on_c, 0, 65, 70
1, 351440, Control_c, 0, 64, 119
1, 351442, Note_on_c, 0, 81, 85
1, 351444, Note_on_c, 0, 77, 64
1, 351445, Note_on_c, 0, 69, 63
1, 351447, Note_on_c, 0, 60, 48
1, 351455, Control_c, 0, 64, 90
1, 351470, Control_c, 0, 64, 70
1, 351485, Control_c, 0, 64, 0
1, 351514, Control_c, 0, 64, 18
1, 351521, Note_on_c, 0, 57, 3
1, 351529, Control_c, 0, 64, 65
1, 351544, Control_c, 0, 64, 76
1, 351559, Control_c, 0, 64, 96
1, 351567, Note_off_c, 0, 69, 55
1, 351573, Control_c, 0, 64, 127
1, 351630, Note_off_c, 0, 77, 54
1, 351635, Note_off_c, 0, 81, 50
1, 351844, Note_on_c, 0, 84, 85
1, 351848, Note_on_c, 0, 81, 87
1, 351852, Note_on_c, 0, 72, 78
1, 351878, Note_off_c, 0, 72, 67
1, 351883, Note_off_c, 0, 65, 59
1, 351905, Note_off_c, 0, 60, 57
1, 351934, Note_off_c, 0, 81, 63
1, 351937, Note_off_c, 0, 57, 49
1, 351943, Note_off_c, 0, 84, 62
1, 351968, Note_on_c, 0, 74, 77
1, 352014, Note_on_c, 0, 77, 75
1, 352063, Note_on_c, 0, 82, 78
1, 352098, Note_on_c, 0, 86, 88
1, 352121, Control_c, 0, 64, 122
1, 352143, Control_c, 0, 64, 89
1, 352158, Control_c, 0, 64, 71
1, 352173, Control_c, 0, 64, 41
1, 352179, Note_off_c, 0, 82, 52
1, 352188, Control_c, 0, 64, 30
1, 352202, Control_c, 0, 64, 57
1, 352217, Control_c, 0, 64, 66
1, 352232, Control_c, 0, 64, 77
1, 352247, Control_c, 0, 64, 94
1, 352262, Control_c, 0, 64, 111
1, 352265, Note_off_c, 0, 86, 56
1, 352277, Control_c, 0, 64, 127
1, 352292, Note_on_c, 0, 36, 80
1, 352331, Note_off_c, 0, 74, 59
1, 352344, Note_off_c, 0, 77, 59
1, 352457, Note_off_c, 0, 36, 60
1, 352459, Note_on_c, 0, 84, 85
1, 352462, Note_on_c, 0, 72, 90
1, 352465, Note_on_c, 0, 81, 84
1, 352470, Note_on_c, 0, 48, 69
1, 352509, Note_off_c, 0, 48, 61
1, 352569, Note_off_c, 0, 84, 59
1, 352603, Note_off_c, 0, 81, 61
1, 352612, Note_off_c, 0, 72, 61
1, 352737, Control_c, 0, 64, 89
1, 352741, Note_on_c, 0, 69, 90
1, 352742, Note_on_c, 0, 81, 95
1, 352743, Note_on_c, 0, 77, 82
1, 352744, Note_on_c, 0, 60, 63
1, 352746, Note_on_c, 0, 57, 68
1, 352748, Note_on_c, 0, 65, 73
1, 352752, Control_c, 0, 64, 65
1, 352767, Control_c, 0, 64, 0
1, 352811, Control_c, 0, 64, 64
1, 352826, Control_c, 0, 64, 83
1, 352841, Control_c, 0, 64, 127
1, 352859, Note_off_c, 0, 69, 59
1, 352915, Note_off_c, 0, 77, 59
1, 352933, Note_off_c, 0, 81, 64
1, 353042, Note_on_c, 0, 84, 99
1, 353044, Note_on_c, 0, 72, 96
1, 353087, Note_off_c, 0, 72, 62
1, 353168, Note_off_c, 0, 84, 61
1, 353407, Note_on_c, 0, 89, 105
1, 353410, Note_on_c, 0, 77, 94
1, 353445, Note_off_c, 0, 77, 63
1, 353475, Note_off_c, 0, 89, 63
1, 353671, Note_off_c, 0, 65, 61
1, 353695, Note_off_c, 0, 57, 49
1, 353738, Note_off_c, 0, 60, 60
1, 353836, Note_on_c, 0, 77, 70
1, 353875, Note_on_c, 0, 80, 74
1, 353891, Note_on_c, 0, 83, 79
1, 353914, Note_on_c, 0, 89, 96
1, 353967, Control_c, 0, 64, 100
1, 353982, Control_c, 0, 64, 83
1, 353997, Control_c, 0, 64, 67
1, 354012, Control_c, 0, 64, 0
1, 354193, Note_on_c, 0, 37, 90
1, 354220, Control_c, 0, 64, 64
1, 354235, Control_c, 0, 64, 127
1, 354444, Poly_aftertouch_c, 0, 43, 127
1, 354477, Poly_aftertouch_c, 0, 43, 0
1, 354487, Note_on_c, 0, 49, 82
1, 354497, Note_off_c, 0, 37, 58
1, 354541, Note_off_c, 0, 49, 61
1, 354682, Note_on_c, 0, 56, 78
1, 354857, Note_on_c, 0, 59, 83
1, 355050, Note_on_c, 0, 65, 90
1, 355110, Note_off_c, 0, 65, 63
1, 355264, Note_on_c, 0, 65, 85
1, 355287, Note_off_c, 0, 65, 71
1, 355299, Note_off_c, 0, 59, 63
1, 355312, Note_off_c, 0, 56, 64
1, 355498, Note_on_c, 0, 38, 78
1, 355523, Control_c, 0, 64, 117
1, 355538, Control_c, 0, 64, 86
1, 355553, Control_c, 0, 64, 64
1, 355568, Control_c, 0, 64, 0
1, 355568, Control_c, 0, 67, 8
1, 355627, Control_c, 0, 64, 55
1, 355642, Control_c, 0, 64, 67
1, 355657, Control_c, 0, 64, 75
1, 355672, Control_c, 0, 64, 89
1, 355687, Control_c, 0, 64, 103
1, 355702, Control_c, 0, 64, 121
1, 355717, Control_c, 0, 64, 127
1, 355741, Note_off_c, 0, 89, 52
1, 355785, Note_on_c, 0, 50, 64
1, 355795, Note_off_c, 0, 80, 52
1, 355806, Note_off_c, 0, 38, 62
1, 355821, Note_off_c, 0, 83, 32
1, 355872, Control_c, 0, 67, 0
1, 355875, Note_off_c, 0, 77, 55
1, 355891, Note_off_c, 0, 50, 56
1, 356122, Note_on_c, 0, 56, 44
1, 356194, Note_on_c, 0, 88, 68
1, 356203, Note_on_c, 0, 83, 63
1, 356207, Note_on_c, 0, 76, 51
1, 356208, Note_on_c, 0, 80, 58
1, 356272, Control_c, 0, 64, 103
1, 356287, Control_c, 0, 64, 86
1, 356302, Control_c, 0, 64, 72
1, 356317, Control_c, 0, 64, 51
1, 356332, Control_c, 0, 64, 0
1, 356362, Control_c, 0, 64, 36
1, 356377, Control_c, 0, 64, 57
1, 356392, Control_c, 0, 64, 64
1, 356406, Control_c, 0, 64, 67
1, 356421, Control_c, 0, 64, 72
1, 356436, Control_c, 0, 64, 80
1, 356451, Control_c, 0, 64, 88
1, 356466, Control_c, 0, 64, 95
1, 356480, Control_c, 0, 64, 101
1, 356495, Control_c, 0, 64, 108
1, 356510, Control_c, 0, 64, 117
1, 356525, Control_c, 0, 64, 127
1, 356552, Note_on_c, 0, 59, 45
1, 356648, Note_off_c, 0, 88, 38
1, 356782, Note_off_c, 0, 83, 55
1, 356829, Note_off_c, 0, 56, 31
1, 356868, Note_off_c, 0, 76, 36
1, 356908, Note_off_c, 0, 80, 32
1, 357038, Note_on_c, 0, 64, 44
1, 357238, Note_off_c, 0, 64, 40
1, 357338, Note_off_c, 0, 59, 34
1, 357598, Note_on_c, 0, 63, 41
1, 357667, Control_c, 0, 64, 113
1, 357673, Note_on_c, 0, 67, 44
1, 357682, Control_c, 0, 64, 97
1, 357697, Control_c, 0, 64, 84
1, 357712, Control_c, 0, 64, 70
1, 357726, Control_c, 0, 64, 0
1, 357759, Note_on_c, 0, 72, 57
1, 357771, Control_c, 0, 64, 38
1, 357786, Control_c, 0, 64, 61
1, 357801, Control_c, 0, 64, 67
1, 357815, Control_c, 0, 64, 75
1, 357830, Control_c, 0, 64, 86
1, 357845, Control_c, 0, 64, 98
1, 357852, Note_on_c, 0, 75, 61
1, 357860, Control_c, 0, 64, 106
1, 357875, Control_c, 0, 64, 116
1, 357890, Control_c, 0, 64, 127
1, 357904, Note_off_c, 0, 67, 31
1, 357919, Note_off_c, 0, 63, 27
1, 357923, Note_off_c, 0, 72, 37
1, 358223, Note_on_c, 0, 73, 52
1, 358226, Note_on_c, 0, 70, 55
1, 358297, Note_off_c, 0, 75, 26
1, 358301, Note_off_c, 0, 70, 53
1, 358313, Note_off_c, 0, 73, 57
1, 358346, Note_on_c, 0, 39, 47
1, 358413, Note_on_c, 0, 67, 54
1, 358416, Control_c, 0, 64, 114
1, 358418, Note_on_c, 0, 70, 60
1, 358431, Control_c, 0, 64, 93
1, 358446, Control_c, 0, 64, 78
1, 358461, Control_c, 0, 64, 66
1, 358475, Control_c, 0, 64, 62
1, 358490, Control_c, 0, 64, 65
1, 358505, Control_c, 0, 64, 70
1, 358520, Control_c, 0, 64, 80
1, 358529, Note_off_c, 0, 70, 54
1, 358535, Control_c, 0, 64, 93
1, 358549, Control_c, 0, 64, 105
1, 358554, Note_off_c, 0, 67, 51
1, 358564, Control_c, 0, 64, 113
1, 358572, Note_on_c, 0, 68, 66
1, 358579, Control_c, 0, 64, 126
1, 358585, Note_on_c, 0, 72, 66
1, 358593, Control_c, 0, 64, 127
1, 358644, Note_off_c, 0, 72, 60
1, 358668, Note_off_c, 0, 68, 56
1, 358720, Note_on_c, 0, 73, 70
1, 358727, Control_c, 0, 67, 8
1, 358734, Note_on_c, 0, 70, 67
1, 358741, Control_c, 0, 67, 8
1, 358756, Control_c, 0, 67, 9
1, 358771, Control_c, 0, 67, 10
1, 358772, Note_off_c, 0, 70, 57
1, 358777, Note_off_c, 0, 73, 63
1, 358800, Control_c, 0, 67, 10
1, 358815, Control_c, 0, 67, 11
1, 358830, Control_c, 0, 67, 11
1, 358836, Note_on_c, 0, 63, 59
1, 358845, Control_c, 0, 67, 12
1, 358913, Note_off_c, 0, 63, 62
1, 358916, Note_on_c, 0, 68, 69
1, 358956, Control_c, 0, 64, 114
1, 358971, Control_c, 0, 64, 92
1, 358986, Control_c, 0, 64, 76
1, 358998, Note_on_c, 0, 73, 67
1, 359002, Control_c, 0, 64, 62
1, 359017, Control_c, 0, 64, 15
1, 359021, Note_off_c, 0, 68, 59
1, 359031, Control_c, 0, 64, 47
1, 359046, Control_c, 0, 64, 63
1, 359061, Control_c, 0, 64, 69
1, 359061, Control_c, 0, 67, 11
1, 359072, Note_on_c, 0, 77, 74
1, 359076, Control_c, 0, 64, 79
1, 359091, Control_c, 0, 64, 91
1, 359091, Control_c, 0, 67, 10
1, 359105, Control_c, 0, 64, 99
1, 359109, Note_off_c, 0, 73, 59
1, 359120, Control_c, 0, 64, 103
1, 359120, Control_c, 0, 67, 9
1, 359135, Control_c, 0, 64, 106
1, 359150, Control_c, 0, 64, 108
1, 359150, Control_c, 0, 67, 9
1, 359165, Control_c, 0, 64, 114
1, 359165, Control_c, 0, 67, 8
1, 359179, Control_c, 0, 64, 127
1, 359416, Note_on_c, 0, 75, 61
1, 359420, Note_off_c, 0, 39, 34
1, 359425, Note_on_c, 0, 72, 61
1, 359432, Note_off_c, 0, 77, 55
1, 359497, Note_off_c, 0, 72, 54
1, 359616, Control_c, 0, 67, 9
1, 359645, Note_on_c, 0, 72, 68
1, 359646, Control_c, 0, 64, 104
1, 359647, Note_on_c, 0, 68, 56
1, 359653, Note_off_c, 0, 75, 54
1, 359656, Note_on_c, 0, 39, 45
1, 359661, Control_c, 0, 64, 87
1, 359676, Control_c, 0, 64, 73
1, 359691, Control_c, 0, 64, 61
1, 359705, Control_c, 0, 64, 53
1, 359720, Control_c, 0, 64, 64
1, 359724, Note_off_c, 0, 72, 64
1, 359735, Control_c, 0, 64, 69
1, 359750, Control_c, 0, 64, 79
1, 359765, Control_c, 0, 64, 95
1, 359780, Control_c, 0, 64, 111
1, 359795, Control_c, 0, 64, 127
1, 359840, Control_c, 0, 67, 9
1, 359869, Control_c, 0, 67, 10
1, 359927, Note_off_c, 0, 68, 61
1, 359950, Note_on_c, 0, 75, 69
1, 359963, Note_on_c, 0, 72, 66
1, 359996, Note_off_c, 0, 72, 66
1, 360072, Note_on_c, 0, 63, 63
1, 360077, Control_c, 0, 67, 9
1, 360084, Note_off_c, 0, 75, 59
1, 360132, Note_on_c, 0, 68, 72
1, 360137, Note_off_c, 0, 63, 62
1, 360165, Control_c, 0, 67, 9
1, 360180, Control_c, 0, 64, 115
1, 360195, Control_c, 0, 64, 93
1, 360195, Control_c, 0, 67, 8
1, 360203, Note_on_c, 0, 73, 73
1, 360210, Control_c, 0, 64, 74
1, 360214, Note_off_c, 0, 68, 61
1, 360225, Control_c, 0, 64, 62
1, 360239, Control_c, 0, 64, 57
1, 360254, Control_c, 0, 64, 64
1, 360269, Control_c, 0, 64, 70
1, 360270, Note_on_c, 0, 77, 78
1, 360284, Control_c, 0, 64, 80
1, 360299, Control_c, 0, 64, 96
1, 360300, Note_off_c, 0, 73, 62
1, 360313, Control_c, 0, 64, 110
1, 360328, Control_c, 0, 64, 114
1, 360328, Control_c, 0, 67, 8
1, 360343, Control_c, 0, 64, 117
1, 360358, Control_c, 0, 64, 121
1, 360380, Control_c, 0, 64, 127
1, 360380, Control_c, 0, 67, 0
1, 360557, Note_off_c, 0, 39, 32
1, 360594, Note_off_c, 0, 77, 53
1, 360601, Note_on_c, 0, 75, 66
1, 360616, Note_on_c, 0, 72, 60
1, 360676, Note_off_c, 0, 72, 55
1, 360753, Note_off_c, 0, 75, 56
1, 360787, Note_on_c, 0, 72, 77
1, 360789, Note_on_c, 0, 39, 47
1, 360793, Note_on_c, 0, 68, 67
1, 360796, Control_c, 0, 64, 106
1, 360811, Control_c, 0, 64, 84
1, 360826, Control_c, 0, 64, 69
1, 360841, Control_c, 0, 64, 53
1, 360856, Control_c, 0, 64, 49
1, 360870, Control_c, 0, 64, 60
1, 360885, Control_c, 0, 64, 67
1, 360900, Control_c, 0, 64, 74
1, 360915, Control_c, 0, 64, 89
1, 360930, Control_c, 0, 64, 102
1, 360944, Control_c, 0, 64, 110
1, 360954, Note_on_c, 0, 75, 77
1, 360959, Control_c, 0, 64, 115
1, 360974, Control_c, 0, 64, 121
1, 360979, Note_off_c, 0, 68, 57
1, 360988, Control_c, 0, 64, 127
1, 360994, Note_off_c, 0, 72, 63
1, 361108, Note_on_c, 0, 80, 79
1, 361122, Note_off_c, 0, 75, 63
1, 361184, Note_off_c, 0, 39, 38
1, 361204, Note_off_c, 0, 80, 64
1, 361205, Note_on_c, 0, 70, 61
1, 361248, Control_c, 0, 67, 8
1, 361267, Note_on_c, 0, 73, 55
1, 361277, Control_c, 0, 67, 8
1, 361307, Control_c, 0, 67, 9
1, 361321, Control_c, 0, 67, 9
1, 361345, Note_on_c, 0, 80, 77
1, 361351, Control_c, 0, 67, 10
1, 361366, Control_c, 0, 67, 10
1, 361381, Control_c, 0, 67, 11
1, 361397, Control_c, 0, 64, 111
1, 361411, Control_c, 0, 64, 96
1, 361426, Control_c, 0, 64, 86
1, 361441, Control_c, 0, 64, 75
1, 361456, Control_c, 0, 64, 64
1, 361456, Control_c, 0, 67, 11
1, 361471, Control_c, 0, 64, 20
1, 361486, Control_c, 0, 64, 0
1, 361530, Control_c, 0, 64, 37
1, 361545, Control_c, 0, 64, 55
1, 361559, Control_c, 0, 64, 64
1, 361574, Control_c, 0, 64, 69
1, 361589, Control_c, 0, 64, 77
1, 361604, Control_c, 0, 64, 92
1, 361619, Control_c, 0, 64, 115
1, 361619, Control_c, 0, 67, 11
1, 361634, Control_c, 0, 64, 127
1, 361649, Control_c, 0, 67, 10
1, 361664, Control_c, 0, 67, 10
1, 361675, Note_on_c, 0, 39, 37
1, 361723, Control_c, 0, 67, 9
1, 361788, Note_off_c, 0, 80, 58
1, 361801, Note_off_c, 0, 70, 62
1, 361811, Control_c, 0, 67, 9
1, 361851, Note_off_c, 0, 39, 45
1, 361852, Note_on_c, 0, 51, 50
1, 361853, Note_on_c, 0, 79, 70
1, 361856, Control_c, 0, 67, 8
1, 361900, Note_off_c, 0, 51, 63
1, 361908, Control_c, 0, 67, 8
1, 362027, Note_on_c, 0, 58, 63
1, 362086, Note_off_c, 0, 79, 56
1, 362138, Note_off_c, 0, 73, 42
1, 362172, Note_on_c, 0, 63, 70
1, 362176, Note_off_c, 0, 58, 57
1, 362219, Note_on_c, 0, 51, 58
1, 362247, Note_off_c, 0, 63, 54
1, 362294, Control_c, 0, 64, 98
1, 362299, Note_on_c, 0, 60, 66
1, 362308, Control_c, 0, 64, 73
1, 362323, Control_c, 0, 64, 0
1, 362358, Note_on_c, 0, 63, 83
1, 362367, Control_c, 0, 64, 28
1, 362382, Control_c, 0, 64, 64
1, 362397, Control_c, 0, 64, 72
1, 362412, Control_c, 0, 64, 88
1, 362427, Control_c, 0, 64, 103
1, 362441, Control_c, 0, 64, 113
1, 362456, Control_c, 0, 64, 124
1, 362471, Control_c, 0, 64, 127
1, 362484, Note_off_c, 0, 63, 61
1, 362529, Note_on_c, 0, 67, 60
1, 362544, Note_off_c, 0, 51, 54
1, 362621, Note_off_c, 0, 67, 53
1, 362687, Note_off_c, 0, 60, 57
1, 362700, Control_c, 0, 67, 8
1, 362704, Note_on_c, 0, 58, 63
1, 362713, Note_on_c, 0, 75, 67
1, 362714, Note_on_c, 0, 61, 63
1, 362745, Control_c, 0, 67, 9
1, 362761, Note_off_c, 0, 75, 64
1, 362774, Control_c, 0, 67, 9
1, 362804, Control_c, 0, 67, 10
1, 362834, Control_c, 0, 67, 10
1, 362848, Control_c, 0, 67, 11
1, 362859, Note_off_c, 0, 58, 33
1, 362863, Control_c, 0, 67, 11
1, 362878, Control_c, 0, 67, 12
1, 362892, Control_c, 0, 67, 12
1, 362907, Control_c, 0, 64, 98
1, 362907, Control_c, 0, 67, 13
1, 362913, Note_off_c, 0, 61, 37
1, 362921, Note_on_c, 0, 58, 51
1, 362922, Control_c, 0, 64, 81
1, 362922, Control_c, 0, 67, 13
1, 362928, Note_on_c, 0, 55, 57
1, 362937, Control_c, 0, 64, 67
1, 362937, Control_c, 0, 67, 15
1, 362943, Note_on_c, 0, 87, 80
1, 362952, Control_c, 0, 64, 47
1, 362952, Control_c, 0, 67, 16
1, 362966, Control_c, 0, 64, 53
1, 362966, Control_c, 0, 67, 18
1, 362981, Control_c, 0, 64, 63
1, 362981, Control_c, 0, 67, 20
1, 362997, Control_c, 0, 64, 68
1, 362997, Control_c, 0, 67, 21
1, 363012, Control_c, 0, 64, 78
1, 363012, Control_c, 0, 67, 22
1, 363027, Control_c, 0, 64, 92
1, 363027, Control_c, 0, 67, 23
1, 363042, Control_c, 0, 64, 103
1, 363057, Control_c, 0, 64, 109
1, 363071, Control_c, 0, 64, 114
1, 363072, Note_off_c, 0, 58, 58
1, 363083, Note_off_c, 0, 87, 53
1, 363087, Control_c, 0, 64, 121
1, 363100, Note_off_c, 0, 55, 58
1, 363102, Control_c, 0, 64, 127
1, 363104, Note_on_c, 0, 60, 75
1, 363110, Note_on_c, 0, 56, 67
1, 363161, Control_c, 0, 67, 22
1, 363176, Control_c, 0, 67, 21
1, 363208, Note_off_c, 0, 56, 61
1, 363246, Note_off_c, 0, 60, 59
1, 363252, Note_on_c, 0, 61, 75
1, 363259, Note_on_c, 0, 58, 68
1, 363265, Control_c, 0, 67, 22
1, 363279, Control_c, 0, 67, 22
1, 363286, Note_off_c, 0, 61, 56
1, 363294, Control_c, 0, 67, 23
1, 363330, Note_on_c, 0, 51, 59
1, 363354, Control_c, 0, 67, 23
1, 363382, Note_on_c, 0, 61, 75
1, 363417, Note_off_c, 0, 51, 59
1, 363420, Note_off_c, 0, 58, 58
1, 363420, Control_c, 0, 64, 105
1, 363435, Control_c, 0, 64, 86
1, 363450, Control_c, 0, 64, 67
1, 363464, Note_on_c, 0, 65, 84
1, 363465, Control_c, 0, 64, 0
1, 363509, Control_c, 0, 67, 23
1, 363524, Control_c, 0, 67, 22
1, 363539, Control_c, 0, 64, 49
1, 363539, Control_c, 0, 67, 22
1, 363554, Control_c, 0, 64, 64
1, 363554, Control_c, 0, 67, 21
1, 363569, Control_c, 0, 64, 70
1, 363569, Control_c, 0, 67, 20
1, 363584, Control_c, 0, 64, 79
1, 363584, Control_c, 0, 67, 18
1, 363598, Control_c, 0, 64, 89
1, 363598, Control_c, 0, 67, 16
1, 363613, Control_c, 0, 64, 96
1, 363613, Control_c, 0, 67, 13
1, 363624, Note_off_c, 0, 65, 64
1, 363628, Control_c, 0, 64, 100
1, 363628, Control_c, 0, 67, 0
1, 363642, Control_c, 0, 64, 103
1, 363646, Note_on_c, 0, 68, 66
1, 363657, Control_c, 0, 64, 106
1, 363672, Control_c, 0, 64, 110
1, 363687, Control_c, 0, 64, 116
1, 363702, Control_c, 0, 64, 127
1, 363724, Note_off_c, 0, 68, 59
1, 363819, Note_on_c, 0, 75, 66
1, 363827, Note_on_c, 0, 63, 78
1, 363828, Note_on_c, 0, 60, 66
1, 363836, Note_off_c, 0, 61, 55
1, 363890, Note_off_c, 0, 75, 61
1, 363942, Note_off_c, 0, 60, 53
1, 364043, Control_c, 0, 67, 8
1, 364058, Control_c, 0, 67, 9
1, 364073, Control_c, 0, 64, 103
1, 364073, Control_c, 0, 67, 10
1, 364078, Note_on_c, 0, 60, 62
1, 364084, Note_on_c, 0, 87, 79
1, 364085, Note_on_c, 0, 56, 63
1, 364087, Control_c, 0, 64, 82
1, 364087, Control_c, 0, 67, 11
1, 364096, Note_off_c, 0, 63, 53
1, 364102, Control_c, 0, 64, 54
1, 364102, Control_c, 0, 67, 11
1, 364125, Control_c, 0, 64, 0
1, 364125, Control_c, 0, 67, 12
1, 364139, Control_c, 0, 67, 12
1, 364154, Control_c, 0, 67, 13
1, 364169, Control_c, 0, 64, 49
1, 364169, Control_c, 0, 67, 14
1, 364184, Control_c, 0, 64, 65
1, 364184, Control_c, 0, 67, 15
1, 364199, Control_c, 0, 64, 73
1, 364199, Control_c, 0, 67, 16
1, 364213, Control_c, 0, 64, 88
1, 364228, Control_c, 0, 64, 101
1, 364230, Note_off_c, 0, 87, 51
1, 364243, Control_c, 0, 64, 109
1, 364251, Note_off_c, 0, 60, 56
1, 364258, Control_c, 0, 64, 119
1, 364272, Control_c, 0, 64, 127
1, 364287, Control_c, 0, 67, 15
1, 364302, Control_c, 0, 67, 15
1, 364327, Note_off_c, 0, 56, 58
1, 364332, Control_c, 0, 67, 14
1, 364347, Control_c, 0, 67, 14
1, 364362, Control_c, 0, 67, 13
1, 364391, Control_c, 0, 67, 13
1, 364401, Note_on_c, 0, 63, 82
1, 364406, Note_on_c, 0, 60, 54
1, 364436, Control_c, 0, 67, 13
1, 364476, Note_on_c, 0, 51, 64
1, 364492, Note_off_c, 0, 63, 38
1, 364495, Control_c, 0, 67, 14
1, 364536, Note_on_c, 0, 61, 72
1, 364543, Note_off_c, 0, 51, 62
1, 364571, Note_off_c, 0, 60, 19
1, 364624, Note_on_c, 0, 65, 95
1, 364630, Control_c, 0, 64, 96
1, 364630, Control_c, 0, 67, 13
1, 364644, Control_c, 0, 64, 76
1, 364659, Control_c, 0, 64, 32
1, 364659, Control_c, 0, 67, 13
1, 364674, Control_c, 0, 64, 0
1, 364688, Control_c, 0, 67, 12
1, 364718, Control_c, 0, 64, 63
1, 364733, Control_c, 0, 64, 71
1, 364733, Control_c, 0, 67, 12
1, 364748, Control_c, 0, 64, 82
1, 364758, Note_off_c, 0, 65, 64
1, 364762, Control_c, 0, 64, 93
1, 364762, Control_c, 0, 67, 11
1, 364777, Control_c, 0, 64, 99
1, 364777, Control_c, 0, 67, 11
1, 364792, Control_c, 0, 64, 101
1, 364793, Note_on_c, 0, 68, 75
1, 364807, Control_c, 0, 64, 105
1, 364822, Control_c, 0, 64, 108
1, 364836, Control_c, 0, 64, 114
1, 364851, Control_c, 0, 64, 127
1, 364892, Note_off_c, 0, 68, 57
1, 364955, Note_on_c, 0, 75, 69
1, 364971, Note_on_c, 0, 63, 88
1, 364979, Note_on_c, 0, 60, 68
1, 365002, Note_off_c, 0, 75, 58
1, 365007, Control_c, 0, 67, 11
1, 365013, Note_off_c, 0, 61, 57
1, 365022, Control_c, 0, 67, 12
1, 365051, Control_c, 0, 67, 12
1, 365066, Control_c, 0, 67, 13
1, 365081, Control_c, 0, 67, 14
1, 365094, Note_off_c, 0, 60, 35
1, 365095, Control_c, 0, 67, 15
1, 365110, Control_c, 0, 67, 16
1, 365125, Control_c, 0, 67, 16
1, 365140, Control_c, 0, 67, 17
1, 365155, Control_c, 0, 67, 18
1, 365163, Note_off_c, 0, 63, 63
1, 365169, Note_on_c, 0, 60, 77
1, 365169, Control_c, 0, 64, 111
1, 365169, Control_c, 0, 67, 19
1, 365176, Note_on_c, 0, 56, 70
1, 365184, Control_c, 0, 64, 84
1, 365184, Control_c, 0, 67, 20
1, 365199, Control_c, 0, 64, 63
1, 365199, Control_c, 0, 67, 21
1, 365208, Note_on_c, 0, 87, 86
1, 365214, Control_c, 0, 64, 0
1, 365214, Control_c, 0, 67, 22
1, 365229, Control_c, 0, 67, 23
1, 365244, Control_c, 0, 64, 46
1, 365244, Control_c, 0, 67, 24
1, 365259, Control_c, 0, 64, 68
1, 365259, Control_c, 0, 67, 26
1, 365274, Control_c, 0, 64, 83
1, 365274, Control_c, 0, 67, 27
1, 365288, Control_c, 0, 64, 114
1, 365288, Control_c, 0, 67, 29
1, 365303, Control_c, 0, 64, 127
1, 365303, Control_c, 0, 67, 30
1, 365318, Control_c, 0, 67, 31
1, 365355, Note_off_c, 0, 87, 60
1, 365390, Note_on_c, 0, 63, 90
1, 365454, Note_off_c, 0, 60, 51
1, 365511, Control_c, 0, 67, 31
1, 365522, Note_off_c, 0, 56, 60
1, 365545, Note_on_c, 0, 68, 83
1, 365550, Note_off_c, 0, 63, 61
1, 365574, Note_off_c, 0, 68, 63
1, 365622, Control_c, 0, 67, 30
1, 365637, Control_c, 0, 67, 30
1, 365667, Note_on_c, 0, 51, 68
1, 365682, Control_c, 0, 67, 29
1, 365697, Control_c, 0, 67, 29
1, 365726, Control_c, 0, 67, 28
1, 365739, Note_on_c, 0, 58, 77
1, 365752, Note_off_c, 0, 51, 62
1, 365756, Control_c, 0, 67, 27
1, 365771, Control_c, 0, 67, 27
1, 365785, Control_c, 0, 67, 26
1, 365800, Control_c, 0, 67, 25
1, 365815, Control_c, 0, 67, 24
1, 365830, Control_c, 0, 67, 24
1, 365835, Note_on_c, 0, 61, 85
1, 365844, Control_c, 0, 67, 23
1, 365859, Control_c, 0, 67, 23
1, 365889, Control_c, 0, 67, 22
1, 365918, Control_c, 0, 67, 21
1, 365933, Control_c, 0, 64, 102
1, 365933, Control_c, 0, 67, 20
1, 365935, Note_on_c, 0, 68, 95
1, 365948, Control_c, 0, 64, 78
1, 365948, Control_c, 0, 67, 20
1, 365963, Control_c, 0, 64, 0
1, 365963, Control_c, 0, 67, 19
1, 365978, Control_c, 0, 67, 19
1, 366007, Control_c, 0, 67, 18
1, 366037, Control_c, 0, 64, 63
1, 366052, Control_c, 0, 64, 72
1, 366067, Control_c, 0, 64, 86
1, 366067, Control_c, 0, 67, 18
1, 366082, Control_c, 0, 64, 104
1, 366096, Note_on_c, 0, 81, 92
1, 366097, Note_on_c, 0, 69, 76
1, 366097, Control_c, 0, 64, 117
1, 366111, Control_c, 0, 64, 127
1, 366154, Note_off_c, 0, 69, 61
1, 366227, Note_off_c, 0, 68, 54
1, 366271, Note_on_c, 0, 82, 80
1, 366276, Note_on_c, 0, 70, 73
1, 366299, Note_off_c, 0, 81, 62
1, 366377, Note_off_c, 0, 70, 62
1, 366442, Note_on_c, 0, 67, 82
1, 366454, Note_off_c, 0, 82, 62
1, 366490, Control_c, 0, 64, 107
1, 366505, Control_c, 0, 64, 78
1, 366512, Note_on_c, 0, 84, 90
1, 366513, Note_on_c, 0, 72, 87
1, 366520, Control_c, 0, 64, 42
1, 366535, Control_c, 0, 64, 0
1, 366564, Control_c, 0, 64, 57
1, 366572, Note_off_c, 0, 72, 62
1, 366579, Control_c, 0, 64, 70
1, 366594, Control_c, 0, 64, 86
1, 366609, Control_c, 0, 64, 127
1, 366697, Note_on_c, 0, 85, 84
1, 366707, Note_on_c, 0, 73, 73
1, 366719, Note_off_c, 0, 84, 65
1, 366764, Note_off_c, 0, 73, 63
1, 366766, Note_off_c, 0, 67, 60
1, 366779, Note_off_c, 0, 85, 67
1, 366827, Note_on_c, 0, 86, 78
1, 366830, Control_c, 0, 67, 18
1, 366834, Note_off_c, 0, 61, 55
1, 366839, Note_on_c, 0, 74, 73
1, 366865, Note_off_c, 0, 74, 68
1, 366866, Note_off_c, 0, 58, 61
1, 366897, Note_off_c, 0, 86, 62
1, 366962, Note_on_c, 0, 75, 75
1, 367005, Note_on_c, 0, 79, 70
1, 367009, Control_c, 0, 67, 19
1, 367023, Control_c, 0, 67, 21
1, 367037, Note_on_c, 0, 84, 83
1, 367038, Control_c, 0, 67, 23
1, 367053, Control_c, 0, 67, 23
1, 367068, Control_c, 0, 64, 95
1, 367083, Control_c, 0, 64, 70
1, 367083, Control_c, 0, 67, 24
1, 367084, Note_on_c, 0, 87, 92
1, 367098, Control_c, 0, 64, 0
1, 367098, Control_c, 0, 67, 24
1, 367150, Control_c, 0, 64, 53
1, 367164, Control_c, 0, 64, 70
1, 367179, Control_c, 0, 64, 88
1, 367194, Control_c, 0, 64, 127
1, 367194, Control_c, 0, 67, 23
1, 367209, Control_c, 0, 67, 23
1, 367224, Control_c, 0, 67, 22
1, 367238, Control_c, 0, 67, 21
1, 367241, Note_on_c, 0, 39, 85
1, 367271, Note_off_c, 0, 79, 61
1, 367301, Note_off_c, 0, 87, 62
1, 367328, Control_c, 0, 67, 21
1, 367345, Note_off_c, 0, 75, 62
1, 367357, Control_c, 0, 67, 20
1, 367381, Note_off_c, 0, 84, 62
1, 367402, Control_c, 0, 67, 20
1, 367431, Control_c, 0, 67, 19
1, 367450, Note_on_c, 0, 85, 93
1, 367453, Note_on_c, 0, 51, 71
1, 367456, Note_on_c, 0, 73, 82
1, 367459, Note_on_c, 0, 82, 73
1, 367461, Control_c, 0, 67, 19
1, 367474, Note_off_c, 0, 39, 59
1, 367476, Control_c, 0, 67, 18
1, 367497, Note_off_c, 0, 51, 57
1, 367505, Control_c, 0, 67, 18
1, 367619, Note_off_c, 0, 85, 56
1, 367632, Note_off_c, 0, 73, 58
1, 367679, Note_off_c, 0, 82, 26
1, 367712, Control_c, 0, 67, 18
1, 367724, Note_on_c, 0, 58, 72
1, 367724, Note_on_c, 0, 67, 78
1, 367733, Note_on_c, 0, 61, 68
1, 367742, Control_c, 0, 64, 108
1, 367742, Control_c, 0, 67, 19
1, 367756, Control_c, 0, 64, 81
1, 367763, Note_on_c, 0, 82, 88
1, 367772, Note_on_c, 0, 70, 83
1, 367772, Control_c, 0, 64, 54
1, 367773, Note_on_c, 0, 79, 68
1, 367787, Control_c, 0, 64, 0
1, 367787, Control_c, 0, 67, 19
1, 367816, Control_c, 0, 64, 60
1, 367831, Control_c, 0, 64, 72
1, 367846, Control_c, 0, 64, 89
1, 367868, Control_c, 0, 64, 127
1, 367874, Note_off_c, 0, 79, 58
1, 367886, Note_off_c, 0, 70, 61
1, 367909, Note_off_c, 0, 82, 64
1, 367912, Control_c, 0, 67, 19
1, 367978, Note_on_c, 0, 84, 83
1, 367980, Note_on_c, 0, 72, 88
1, 367982, Note_on_c, 0, 80, 79
1, 368015, Note_off_c, 0, 72, 63
1, 368030, Note_off_c, 0, 84, 63
1, 368040, Note_off_c, 0, 80, 64
1, 368128, Note_on_c, 0, 85, 83
1, 368132, Note_on_c, 0, 73, 75
1, 368132, Note_on_c, 0, 82, 74
1, 368134, Note_off_c, 0, 67, 62
1, 368155, Note_off_c, 0, 73, 70
1, 368162, Note_off_c, 0, 61, 54
1, 368177, Note_off_c, 0, 85, 62
1, 368180, Note_off_c, 0, 82, 63
1, 368190, Note_off_c, 0, 58, 62
1, 368194, Control_c, 0, 67, 19
1, 368243, Note_on_c, 0, 77, 80
1, 368290, Note_on_c, 0, 80, 75
1, 368298, Control_c, 0, 67, 20
1, 368312, Control_c, 0, 67, 20
1, 368333, Note_on_c, 0, 85, 86
1, 368342, Control_c, 0, 64, 110
1, 368342, Control_c, 0, 67, 21
1, 368357, Control_c, 0, 64, 81
1, 368365, Note_on_c, 0, 89, 94
1, 368372, Control_c, 0, 64, 45
1, 368372, Control_c, 0, 67, 22
1, 368386, Control_c, 0, 64, 0
1, 368410, Note_off_c, 0, 85, 63
1, 368430, Control_c, 0, 64, 42
1, 368445, Control_c, 0, 64, 66
1, 368460, Control_c, 0, 64, 76
1, 368475, Control_c, 0, 64, 92
1, 368490, Control_c, 0, 64, 118
1, 368495, Note_on_c, 0, 39, 88
1, 368505, Control_c, 0, 64, 127
1, 368505, Control_c, 0, 67, 21
1, 368505, Note_off_c, 0, 89, 62
1, 368548, Note_off_c, 0, 77, 57
1, 368549, Control_c, 0, 67, 21
1, 368611, Note_off_c, 0, 80, 61
1, 368661, Control_c, 0, 67, 20
1, 368705, Note_on_c, 0, 87, 93
1, 368708, Note_on_c, 0, 75, 91
1, 368708, Note_on_c, 0, 84, 70
1, 368709, Note_off_c, 0, 39, 58
1, 368710, Note_on_c, 0, 51, 70
1, 368738, Note_off_c, 0, 51, 67
1, 368750, Control_c, 0, 67, 20
1, 368777, Note_off_c, 0, 84, 61
1, 368779, Control_c, 0, 67, 19
1, 368788, Note_off_c, 0, 87, 66
1, 368822, Note_off_c, 0, 75, 63
1, 368958, Control_c, 0, 67, 19
1, 368973, Note_on_c, 0, 84, 94
1, 368973, Control_c, 0, 64, 109
1, 368974, Note_on_c, 0, 72, 96
1, 368979, Note_on_c, 0, 80, 86
1, 368984, Note_on_c, 0, 68, 82
1, 368987, Control_c, 0, 64, 74
1, 368988, Note_on_c, 0, 63, 69
1, 368989, Note_on_c, 0, 60, 70
1, 369002, Control_c, 0, 64, 0
1, 369002, Control_c, 0, 67, 18
1, 369032, Control_c, 0, 67, 18
1, 369061, Control_c, 0, 64, 66
1, 369067, Note_off_c, 0, 84, 61
1, 369076, Control_c, 0, 64, 83
1, 369091, Control_c, 0, 64, 127
1, 369142, Note_off_c, 0, 72, 61
1, 369181, Note_off_c, 0, 80, 63
1, 369333, Note_off_c, 0, 68, 56
1, 369359, Note_on_c, 0, 87, 90
1, 369360, Note_on_c, 0, 75, 86
1, 369361, Note_off_c, 0, 63, 58
1, 369372, Note_on_c, 0, 84, 70
1, 369398, Note_off_c, 0, 60, 58
1, 369402, Note_off_c, 0, 75, 65
1, 369416, Note_off_c, 0, 84, 59
1, 369449, Note_off_c, 0, 87, 64
1, 369485, Note_on_c, 0, 77, 83
1, 369530, Note_on_c, 0, 80, 76
1, 369562, Note_on_c, 0, 85, 85
1, 369588, Control_c, 0, 67, 18
1, 369595, Note_on_c, 0, 89, 97
1, 369602, Control_c, 0, 64, 95
1, 369602, Control_c, 0, 67, 19
1, 369617, Control_c, 0, 64, 70
1, 369632, Control_c, 0, 64, 0
1, 369633, Note_off_c, 0, 85, 64
1, 369676, Control_c, 0, 64, 39
1, 369691, Control_c, 0, 64, 69
1, 369706, Control_c, 0, 64, 85
1, 369721, Control_c, 0, 64, 117
1, 369736, Control_c, 0, 64, 127
1, 369736, Control_c, 0, 67, 18
1, 369751, Control_c, 0, 67, 18
1, 369765, Note_off_c, 0, 89, 58
1, 369784, Note_on_c, 0, 39, 88
1, 369796, Control_c, 0, 67, 17
1, 369805, Note_off_c, 0, 77, 60
1, 369810, Control_c, 0, 67, 16
1, 369817, Note_off_c, 0, 80, 55
1, 369825, Control_c, 0, 67, 16
1, 369840, Control_c, 0, 67, 13
1, 369855, Control_c, 0, 67, 0
1, 369983, Note_off_c, 0, 39, 59
1, 369987, Note_on_c, 0, 75, 98
1, 369990, Note_on_c, 0, 87, 95
1, 369998, Note_on_c, 0, 51, 78
1, 369999, Note_on_c, 0, 84, 74
1, 370044, Note_off_c, 0, 51, 64
1, 370070, Note_off_c, 0, 84, 59
1, 370078, Note_off_c, 0, 87, 65
1, 370112, Note_off_c, 0, 75, 63
1, 370263, Control_c, 0, 64, 92
1, 370273, Note_on_c, 0, 84, 102
1, 370276, Note_on_c, 0, 72, 103
1, 370276, Note_on_c, 0, 80, 91
1, 370278, Control_c, 0, 64, 65
1, 370282, Note_on_c, 0, 60, 67
1, 370287, Note_on_c, 0, 68, 77
1, 370288, Note_on_c, 0, 63, 65
1, 370293, Control_c, 0, 64, 0
1, 370337, Control_c, 0, 64, 67
1, 370352, Control_c, 0, 64, 88
1, 370367, Control_c, 0, 64, 127
1, 370410, Note_off_c, 0, 72, 62
1, 370413, Note_off_c, 0, 84, 62
1, 370449, Note_off_c, 0, 80, 65
1, 370592, Note_on_c, 0, 87, 101
1, 370595, Note_on_c, 0, 75, 94
1, 370630, Note_off_c, 0, 75, 63
1, 370648, Note_off_c, 0, 87, 59
1, 370994, Note_on_c, 0, 92, 105
1, 370999, Note_on_c, 0, 80, 98
1, 371021, Note_off_c, 0, 80, 68
1, 371035, Note_off_c, 0, 92, 66
1, 371228, Note_off_c, 0, 68, 56
1, 371253, Note_off_c, 0, 63, 57
1, 371291, Note_off_c, 0, 60, 59
1, 371444, Note_on_c, 0, 80, 81
1, 371486, Note_on_c, 0, 83, 74
1, 371493, Note_on_c, 0, 86, 90
1, 371503, Note_on_c, 0, 92, 103
1, 371530, Control_c, 0, 64, 99
1, 371545, Control_c, 0, 64, 74
1, 371560, Control_c, 0, 64, 0
1, 371803, Note_on_c, 0, 40, 92
1, 371835, Control_c, 0, 64, 84
1, 371850, Control_c, 0, 64, 127
1, 372061, Note_off_c, 0, 40, 59
1, 372063, Note_on_c, 0, 52, 90
1, 372111, Note_off_c, 0, 52, 64
1, 372238, Note_on_c, 0, 59, 89
1, 372412, Note_on_c, 0, 62, 80
1, 372582, Note_on_c, 0, 68, 99
1, 372633, Note_off_c, 0, 68, 62
1, 372771, Note_on_c, 0, 68, 92
1, 372790, Note_off_c, 0, 62, 61
1, 372796, Note_off_c, 0, 68, 70
1, 372812, Note_off_c, 0, 59, 61
1, 372983, Note_on_c, 0, 41, 87
1, 372998, Control_c, 0, 64, 112
1, 373013, Control_c, 0, 64, 78
1, 373027, Control_c, 0, 64, 0
1, 373053, Note_off_c, 0, 86, 48
1, 373072, Control_c, 0, 64, 52
1, 373073, Note_off_c, 0, 83, 44
1, 373087, Control_c, 0, 64, 75
1, 373109, Control_c, 0, 64, 107
1, 373115, Note_off_c, 0, 92, 52
1, 373124, Control_c, 0, 64, 127
1, 373161, Note_on_c, 0, 53, 89
1, 373173, Note_off_c, 0, 80, 62
1, 373187, Note_off_c, 0, 41, 64
1, 373221, Note_off_c, 0, 53, 63
1, 373320, Note_on_c, 0, 59, 84
1, 373385, Note_on_c, 0, 79, 97
1, 373385, Note_on_c, 0, 91, 97
1, 373387, Note_on_c, 0, 83, 95
1, 373387, Note_on_c, 0, 86, 87
1, 373482, Note_off_c, 0, 79, 58
1, 373507, Note_off_c, 0, 91, 64
1, 373533, Note_off_c, 0, 83, 62
1, 373535, Note_off_c, 0, 86, 60
1, 373561, Note_on_c, 0, 62, 79
1, 373754, Note_on_c, 0, 67, 92
1, 373807, Note_off_c, 0, 62, 60
1, 373818, Note_off_c, 0, 67, 59
1, 373859, Note_off_c, 0, 59, 54
1, 373899, Note_on_c, 0, 82, 71
1, 373949, Note_on_c, 0, 85, 78
1, 373965, Note_on_c, 0, 88, 84
1, 373981, Note_on_c, 0, 94, 100
1, 374094, Control_c, 0, 64, 99
1, 374109, Control_c, 0, 64, 78
1, 374124, Control_c, 0, 64, 36
1, 374139, Control_c, 0, 64, 0
1, 374252, Note_on_c, 0, 42, 94
1, 374259, Control_c, 0, 64, 20
1, 374273, Control_c, 0, 64, 81
1, 374288, Control_c, 0, 64, 127
1, 374508, Note_off_c, 0, 42, 60
1, 374511, Note_on_c, 0, 54, 87
1, 374556, Note_off_c, 0, 54, 63
1, 374739, Note_on_c, 0, 61, 85
1, 374783, Note_on_c, 0, 62, 41
1, 374841, Note_off_c, 0, 62, 58
1, 374859, Note_off_c, 0, 61, 54
1, 374906, Note_on_c, 0, 61, 55
1, 374914, Note_on_c, 0, 64, 73
1, 375075, Note_on_c, 0, 70, 92
1, 375127, Note_off_c, 0, 70, 63
1, 375253, Note_on_c, 0, 70, 90
1, 375269, Note_off_c, 0, 70, 73
1, 375276, Note_off_c, 0, 64, 64
1, 375313, Note_off_c, 0, 61, 54
1, 375462, Note_on_c, 0, 43, 88
1, 375474, Control_c, 0, 64, 106
1, 375489, Control_c, 0, 64, 69
1, 375504, Control_c, 0, 64, 0
1, 375548, Control_c, 0, 64, 54
1, 375563, Control_c, 0, 64, 76
1, 375578, Control_c, 0, 64, 127
1, 375597, Note_off_c, 0, 85, 27
1, 375600, Note_off_c, 0, 88, 25
1, 375626, Note_off_c, 0, 94, 58
1, 375636, Note_on_c, 0, 55, 84
1, 375638, Note_off_c, 0, 43, 62
1, 375647, Note_off_c, 0, 82, 64
1, 375686, Note_off_c, 0, 55, 63
1, 375814, Note_on_c, 0, 93, 102
1, 375816, Note_on_c, 0, 81, 101
1, 375816, Note_on_c, 0, 85, 96
1, 375819, Note_on_c, 0, 88, 90
1, 375825, Note_on_c, 0, 61, 71
1, 375880, Poly_aftertouch_c, 0, 57, 127
1, 375916, Poly_aftertouch_c, 0, 57, 0
1, 375921, Note_off_c, 0, 81, 58
1, 375923, Note_off_c, 0, 93, 61
1, 375945, Note_off_c, 0, 88, 60
1, 375981, Note_off_c, 0, 85, 61
1, 376005, Note_on_c, 0, 64, 87
1, 376267, Note_on_c, 0, 69, 95
1, 376385, Note_off_c, 0, 69, 59
1, 376418, Note_off_c, 0, 64, 61
1, 376469, Note_off_c, 0, 61, 60
1, 376562, Note_on_c, 0, 96, 94
1, 376564, Note_on_c, 0, 84, 98
1, 376567, Note_on_c, 0, 87, 88
1, 376568, Note_on_c, 0, 90, 90
1, 376802, Control_c, 0, 64, 108
1, 376817, Control_c, 0, 64, 74
1, 376832, Control_c, 0, 64, 0
1, 376857, Note_on_c, 0, 44, 92
1, 376928, Control_c, 0, 64, 82
1, 376943, Control_c, 0, 64, 127
1, 377052, Poly_aftertouch_c, 0, 50, 127
1, 377081, Note_off_c, 0, 44, 58
1, 377082, Note_on_c, 0, 56, 89
1, 377085, Poly_aftertouch_c, 0, 50, 0
1, 377124, Note_off_c, 0, 56, 65
1, 377304, Note_on_c, 0, 63, 84
1, 377513, Note_on_c, 0, 66, 94
1, 377737, Note_on_c, 0, 72, 95
1, 377787, Note_off_c, 0, 72, 64
1, 378002, Note_on_c, 0, 72, 87
1, 378023, Note_off_c, 0, 72, 71
1, 378047, Note_off_c, 0, 66, 63
1, 378057, Note_off_c, 0, 63, 62
1, 378255, Control_c, 0, 67, 8
1, 378260, Note_on_c, 0, 45, 78
1, 378270, Control_c, 0, 67, 11
1, 378284, Control_c, 0, 67, 14
1, 378299, Control_c, 0, 64, 97
1, 378299, Control_c, 0, 67, 16
1, 378314, Control_c, 0, 64, 72
1, 378314, Control_c, 0, 67, 17
1, 378329, Control_c, 0, 64, 0
1, 378329, Control_c, 0, 67, 19
1, 378351, Control_c, 0, 67, 21
1, 378366, Control_c, 0, 67, 24
1, 378381, Control_c, 0, 67, 28
1, 378396, Control_c, 0, 64, 60
1, 378396, Control_c, 0, 67, 33
1, 378411, Control_c, 0, 64, 72
1, 378411, Control_c, 0, 67, 38
1, 378425, Control_c, 0, 64, 91
1, 378425, Control_c, 0, 67, 42
1, 378440, Control_c, 0, 64, 127
1, 378440, Control_c, 0, 67, 46
1, 378455, Control_c, 0, 67, 51
1, 378470, Control_c, 0, 67, 54
1, 378485, Control_c, 0, 67, 58
1, 378499, Control_c, 0, 67, 61
1, 378514, Control_c, 0, 67, 64
1, 378529, Control_c, 0, 67, 67
1, 378544, Control_c, 0, 67, 71
1, 378559, Control_c, 0, 67, 75
1, 378573, Note_on_c, 0, 57, 59
1, 378573, Control_c, 0, 67, 79
1, 378580, Note_off_c, 0, 45, 58
1, 378588, Control_c, 0, 67, 83
1, 378591, Note_off_c, 0, 90, 32
1, 378603, Control_c, 0, 67, 87
1, 378612, Note_off_c, 0, 96, 31
1, 378616, Note_off_c, 0, 87, 38
1, 378617, Control_c, 0, 67, 91
1, 378632, Control_c, 0, 67, 96
1, 378647, Control_c, 0, 67, 104
1, 378662, Control_c, 0, 67, 112
1, 378669, Note_off_c, 0, 57, 62
1, 378677, Control_c, 0, 67, 120
1, 378691, Control_c, 0, 67, 127
1, 378741, Note_off_c, 0, 84, 53
1, 378960, Note_on_c, 0, 63, 47
1, 379079, Note_on_c, 0, 95, 73
1, 379082, Note_on_c, 0, 90, 66
1, 379095, Note_on_c, 0, 83, 62
1, 379105, Note_on_c, 0, 87, 58
1, 379381, Note_on_c, 0, 66, 53
1, 379517, Note_off_c, 0, 95, 32
1, 379559, Note_off_c, 0, 63, 0
1, 379597, Poly_aftertouch_c, 0, 63, 127
1, 379655, Note_off_c, 0, 83, 41
1, 379734, Note_off_c, 0, 87, 35
1, 379735, Note_off_c, 0, 90, 40
1, 379944, Note_on_c, 0, 71, 44
1, 380255, Poly_aftertouch_c, 0, 63, 0
1, 380390, Note_off_c, 0, 71, 41
1, 380511, Note_off_c, 0, 66, 39
1, 380650, Note_on_c, 0, 57, 44
1, 380730, Note_on_c, 0, 63, 51
1, 380850, Note_on_c, 0, 68, 57
1, 380909, Control_c, 0, 67, 124
1, 380924, Control_c, 0, 67, 121
1, 380938, Control_c, 0, 67, 117
1, 380953, Control_c, 0, 67, 114
1, 380968, Control_c, 0, 67, 110
1, 380983, Control_c, 0, 67, 107
1, 380998, Control_c, 0, 67, 105
1, 381013, Control_c, 0, 67, 103
1, 381028, Control_c, 0, 67, 102
1, 381043, Control_c, 0, 67, 100
1, 381057, Control_c, 0, 67, 99
1, 381072, Control_c, 0, 67, 98
1, 381086, Control_c, 0, 67, 97
1, 381101, Control_c, 0, 67, 97
1, 381116, Control_c, 0, 67, 96
1, 381117, Note_on_c, 0, 71, 72
1, 381130, Control_c, 0, 64, 102
1, 381145, Control_c, 0, 64, 88
1, 381145, Control_c, 0, 67, 96
1, 381160, Control_c, 0, 64, 75
1, 381175, Control_c, 0, 64, 61
1, 381175, Control_c, 0, 67, 95
1, 381190, Control_c, 0, 64, 39
1, 381205, Control_c, 0, 64, 49
1, 381219, Control_c, 0, 64, 62
1, 381234, Control_c, 0, 64, 66
1, 381249, Control_c, 0, 64, 71
1, 381264, Control_c, 0, 64, 79
1, 381279, Control_c, 0, 64, 92
1, 381293, Control_c, 0, 64, 101
1, 381299, Note_on_c, 0, 73, 40
1, 381308, Control_c, 0, 64, 105
1, 381323, Control_c, 0, 64, 111
1, 381326, Note_off_c, 0, 68, 52
1, 381343, Note_off_c, 0, 73, 50
1, 381345, Control_c, 0, 64, 119
1, 381345, Control_c, 0, 67, 95
1, 381362, Control_c, 0, 64, 127
1, 381372, Note_on_c, 0, 75, 56
1, 381398, Note_off_c, 0, 75, 66
1, 381408, Note_off_c, 0, 71, 56
1, 381440, Note_off_c, 0, 57, 37
1, 381440, Note_off_c, 0, 63, 34
1, 381441, Note_on_c, 0, 76, 62
1, 381473, Note_off_c, 0, 76, 64
1, 381514, Note_on_c, 0, 77, 66
1, 381567, Note_off_c, 0, 77, 62
1, 381569, Note_on_c, 0, 78, 61
1, 381624, Note_off_c, 0, 78, 59
1, 381628, Control_c, 0, 67, 95
1, 381637, Note_on_c, 0, 80, 66
1, 381657, Control_c, 0, 67, 96
1, 381660, Note_off_c, 0, 80, 67
1, 381665, Note_on_c, 0, 69, 72
1, 381672, Control_c, 0, 64, 100
1, 381672, Control_c, 0, 67, 96
1, 381673, Note_on_c, 0, 66, 70
1, 381681, Note_on_c, 0, 57, 55
1, 381687, Control_c, 0, 64, 82
1, 381699, Note_on_c, 0, 81, 79
1, 381702, Control_c, 0, 64, 66
1, 381716, Control_c, 0, 64, 37
1, 381716, Control_c, 0, 67, 97
1, 381731, Control_c, 0, 64, 54
1, 381737, Note_off_c, 0, 81, 55
1, 381746, Control_c, 0, 64, 64
1, 381746, Control_c, 0, 67, 97
1, 381761, Control_c, 0, 64, 71
1, 381765, Note_on_c, 0, 83, 69
1, 381776, Control_c, 0, 64, 87
1, 381776, Control_c, 0, 67, 98
1, 381791, Control_c, 0, 64, 105
1, 381806, Control_c, 0, 64, 127
1, 381841, Note_off_c, 0, 83, 66
1, 381865, Control_c, 0, 67, 98
1, 381876, Poly_aftertouch_c, 0, 85, 127
1, 381880, Control_c, 0, 67, 99
1, 381884, Note_on_c, 0, 87, 73
1, 381906, Note_off_c, 0, 87, 70
1, 381909, Control_c, 0, 67, 99
1, 381913, Poly_aftertouch_c, 0, 85, 0
1, 381944, Note_on_c, 0, 88, 70
1, 381968, Control_c, 0, 67, 100
1, 381997, Note_off_c, 0, 88, 59
1, 381998, Control_c, 0, 67, 100
1, 382013, Note_on_c, 0, 89, 79
1, 382028, Control_c, 0, 67, 101
1, 382042, Control_c, 0, 67, 101
1, 382071, Note_off_c, 0, 89, 65
1, 382074, Note_on_c, 0, 90, 69
1, 382082, Note_off_c, 0, 57, 30
1, 382086, Note_off_c, 0, 66, 39
1, 382095, Control_c, 0, 67, 102
1, 382124, Control_c, 0, 67, 102
1, 382137, Note_on_c, 0, 92, 73
1, 382139, Control_c, 0, 67, 103
1, 382141, Note_off_c, 0, 90, 63
1, 382154, Control_c, 0, 67, 103
1, 382163, Note_off_c, 0, 92, 68
1, 382184, Control_c, 0, 67, 104
1, 382199, Control_c, 0, 67, 104
1, 382214, Control_c, 0, 67, 105
1, 382223, Note_on_c, 0, 93, 62
1, 382229, Control_c, 0, 67, 106
1, 382244, Control_c, 0, 67, 107
1, 382250, Note_off_c, 0, 69, 38
1, 382256, Note_on_c, 0, 66, 61
1, 382257, Note_off_c, 0, 93, 61
1, 382259, Control_c, 0, 67, 108
1, 382261, Note_on_c, 0, 57, 45
1, 382264, Note_on_c, 0, 63, 57
1, 382274, Control_c, 0, 64, 122
1, 382274, Control_c, 0, 67, 109
1, 382283, Note_on_c, 0, 95, 64
1, 382289, Control_c, 0, 64, 88
1, 382289, Control_c, 0, 67, 109
1, 382304, Control_c, 0, 64, 65
1, 382304, Control_c, 0, 67, 110
1, 382318, Control_c, 0, 64, 0
1, 382326, Note_off_c, 0, 95, 58
1, 382333, Control_c, 0, 67, 111
1, 382354, Note_on_c, 0, 97, 60
1, 382363, Control_c, 0, 67, 112
1, 382378, Control_c, 0, 64, 63
1, 382378, Control_c, 0, 67, 113
1, 382392, Control_c, 0, 64, 71
1, 382392, Control_c, 0, 67, 115
1, 382394, Note_off_c, 0, 97, 64
1, 382407, Control_c, 0, 64, 84
1, 382407, Control_c, 0, 67, 116
1, 382422, Control_c, 0, 64, 103
1, 382422, Control_c, 0, 67, 116
1, 382424, Note_on_c, 0, 95, 65
1, 382437, Control_c, 0, 64, 127
1, 382447, Note_off_c, 0, 95, 62
1, 382490, Note_on_c, 0, 97, 63
1, 382519, Note_off_c, 0, 97, 67
1, 382527, Note_on_c, 0, 95, 62
1, 382541, Note_off_c, 0, 57, 34
1, 382562, Note_off_c, 0, 95, 65
1, 382585, Note_on_c, 0, 97, 68
1, 382615, Note_off_c, 0, 63, 57
1, 382620, Note_off_c, 0, 97, 64
1, 382641, Note_on_c, 0, 95, 64
1, 382669, Note_off_c, 0, 95, 67
1, 382697, Note_on_c, 0, 97, 70
1, 382697, Note_off_c, 0, 66, 52
1, 382726, Note_off_c, 0, 97, 68
1, 382745, Note_on_c, 0, 95, 67
1, 382778, Note_off_c, 0, 95, 63
1, 382799, Note_on_c, 0, 97, 69
1, 382846, Note_off_c, 0, 97, 60
1, 382870, Note_on_c, 0, 95, 67
1, 382902, Note_off_c, 0, 95, 63
1, 382930, Note_on_c, 0, 97, 62
1, 382962, Note_off_c, 0, 97, 66
1, 382984, Note_on_c, 0, 95, 71
1, 382986, Note_on_c, 0, 68, 82
1, 382996, Note_on_c, 0, 64, 69
1, 383024, Note_off_c, 0, 95, 56
1, 383040, Note_on_c, 0, 97, 65
1, 383079, Note_off_c, 0, 97, 63
1, 383115, Note_on_c, 0, 95, 60
1, 383125, Note_off_c, 0, 64, 58
1, 383138, Note_off_c, 0, 95, 55
1, 383168, Note_on_c, 0, 97, 59
1, 383169, Note_on_c, 0, 66, 75
1, 383175, Note_off_c, 0, 68, 56
1, 383182, Note_on_c, 0, 69, 75
1, 383189, Note_off_c, 0, 97, 63
1, 383210, Note_on_c, 0, 95, 64
1, 383220, Note_off_c, 0, 66, 64
1, 383241, Note_off_c, 0, 95, 65
1, 383257, Note_on_c, 0, 97, 71
1, 383260, Control_c, 0, 67, 116
1, 383266, Note_off_c, 0, 69, 58
1, 383290, Control_c, 0, 67, 115
1, 383291, Note_off_c, 0, 97, 65
1, 383303, Control_c, 0, 67, 115
1, 383309, Note_on_c, 0, 95, 70
1, 383318, Control_c, 0, 67, 114
1, 383323, Note_on_c, 0, 56, 61
1, 383332, Control_c, 0, 67, 114
1, 383335, Note_off_c, 0, 95, 67
1, 383347, Control_c, 0, 67, 113
1, 383362, Control_c, 0, 67, 113
1, 383377, Control_c, 0, 67, 112
1, 383390, Note_off_c, 0, 56, 62
1, 383392, Control_c, 0, 67, 111
1, 383412, Note_on_c, 0, 64, 66
1, 383421, Control_c, 0, 67, 111
1, 383451, Control_c, 0, 67, 110
1, 383466, Control_c, 0, 67, 110
1, 383496, Control_c, 0, 67, 109
1, 383525, Control_c, 0, 67, 109
1, 383606, Control_c, 0, 64, 105
1, 383621, Control_c, 0, 64, 85
1, 383626, Note_on_c, 0, 73, 91
1, 383636, Control_c, 0, 64, 66
1, 383636, Control_c, 0, 67, 109
1, 383651, Control_c, 0, 64, 0
1, 383666, Control_c, 0, 67, 110
1, 383681, Control_c, 0, 67, 110
1, 383696, Control_c, 0, 64, 61
1, 383696, Control_c, 0, 67, 111
1, 383711, Control_c, 0, 64, 69
1, 383711, Control_c, 0, 67, 111
1, 383725, Control_c, 0, 64, 79
1, 383725, Control_c, 0, 67, 112
1, 383740, Control_c, 0, 64, 96
1, 383740, Control_c, 0, 67, 112
1, 383755, Control_c, 0, 64, 111
1, 383767, Note_on_c, 0, 75, 58
1, 383770, Control_c, 0, 64, 127
1, 383770, Control_c, 0, 67, 113
1, 383785, Control_c, 0, 67, 113
1, 383798, Note_off_c, 0, 75, 66
1, 383800, Control_c, 0, 67, 114
1, 383815, Note_off_c, 0, 64, 63
1, 383828, Note_on_c, 0, 76, 66
1, 383845, Control_c, 0, 67, 114
1, 383854, Note_off_c, 0, 73, 55
1, 383857, Note_off_c, 0, 76, 65
1, 383889, Note_on_c, 0, 78, 72
1, 383934, Control_c, 0, 67, 115
1, 383945, Note_off_c, 0, 78, 58
1, 383956, Note_on_c, 0, 80, 68
1, 383988, Note_off_c, 0, 80, 66
1, 384008, Control_c, 0, 67, 115
1, 384020, Note_on_c, 0, 81, 77
1, 384049, Note_off_c, 0, 81, 64
1, 384081, Note_on_c, 0, 82, 66
1, 384110, Note_off_c, 0, 82, 66
1, 384139, Note_on_c, 0, 71, 82
1, 384142, Note_on_c, 0, 68, 79
1, 384151, Note_on_c, 0, 59, 65
1, 384152, Note_on_c, 0, 83, 76
1, 384199, Note_off_c, 0, 83, 66
1, 384222, Note_on_c, 0, 85, 77
1, 384278, Note_off_c, 0, 85, 64
1, 384289, Note_on_c, 0, 87, 75
1, 384319, Note_off_c, 0, 87, 66
1, 384362, Note_on_c, 0, 88, 78
1, 384402, Note_off_c, 0, 88, 63
1, 384426, Note_on_c, 0, 90, 75
1, 384480, Note_off_c, 0, 90, 62
1, 384483, Note_on_c, 0, 92, 74
1, 384520, Note_off_c, 0, 68, 54
1, 384523, Note_off_c, 0, 92, 62
1, 384548, Control_c, 0, 67, 116
1, 384553, Note_on_c, 0, 93, 76
1, 384583, Note_off_c, 0, 93, 62
1, 384593, Control_c, 0, 67, 116
1, 384618, Note_on_c, 0, 94, 70
1, 384646, Note_off_c, 0, 94, 68
1, 384667, Control_c, 0, 64, 114
1, 384682, Control_c, 0, 64, 87
1, 384683, Note_on_c, 0, 95, 66
1, 384697, Control_c, 0, 64, 66
1, 384701, Note_off_c, 0, 71, 57
1, 384706, Note_off_c, 0, 59, 59
1, 384712, Control_c, 0, 64, 0
1, 384712, Note_off_c, 0, 95, 65
1, 384714, Note_on_c, 0, 68, 65
1, 384719, Note_on_c, 0, 64, 53
1, 384737, Note_on_c, 0, 97, 71
1, 384742, Control_c, 0, 67, 117
1, 384757, Control_c, 0, 64, 58
1, 384772, Control_c, 0, 64, 69
1, 384774, Note_off_c, 0, 97, 61
1, 384786, Control_c, 0, 64, 79
1, 384794, Note_on_c, 0, 95, 62
1, 384801, Control_c, 0, 64, 96
1, 384816, Control_c, 0, 64, 113
1, 384826, Note_off_c, 0, 95, 66
1, 384831, Control_c, 0, 64, 127
1, 384856, Note_on_c, 0, 97, 66
1, 384884, Note_off_c, 0, 97, 66
1, 384888, Note_off_c, 0, 64, 61
1, 384900, Note_on_c, 0, 95, 74
1, 384915, Note_off_c, 0, 68, 57
1, 384919, Control_c, 0, 67, 116
1, 384930, Note_off_c, 0, 95, 63
1, 384955, Note_on_c, 0, 97, 68
1, 384964, Control_c, 0, 67, 116
1, 384978, Control_c, 0, 67, 115
1, 384985, Note_off_c, 0, 97, 65
1, 385010, Note_on_c, 0, 95, 77
1, 385033, Note_off_c, 0, 95, 69
1, 385038, Control_c, 0, 67, 115
1, 385059, Note_on_c, 0, 97, 73
1, 385067, Control_c, 0, 67, 114
1, 385097, Note_off_c, 0, 97, 66
1, 385115, Note_on_c, 0, 95, 75
1, 385147, Note_off_c, 0, 95, 60
1, 385167, Note_on_c, 0, 97, 74
1, 385199, Note_off_c, 0, 97, 61
1, 385222, Note_on_c, 0, 95, 83
1, 385247, Note_off_c, 0, 95, 63
1, 385278, Note_on_c, 0, 97, 75
1, 385302, Note_on_c, 0, 71, 82
1, 385308, Note_on_c, 0, 68, 73
1, 385308, Note_off_c, 0, 97, 64
1, 385326, Note_on_c, 0, 95, 83
1, 385371, Note_off_c, 0, 95, 62
1, 385387, Control_c, 0, 67, 114
1, 385393, Note_on_c, 0, 97, 74
1, 385407, Note_off_c, 0, 71, 57
1, 385423, Note_off_c, 0, 97, 64
1, 385446, Note_on_c, 0, 95, 79
1, 385484, Note_off_c, 0, 95, 59
1, 385486, Note_off_c, 0, 68, 62
1, 385496, Note_on_c, 0, 76, 91
1, 385505, Note_on_c, 0, 71, 47
1, 385506, Note_on_c, 0, 97, 78
1, 385525, Note_off_c, 0, 71, 62
1, 385553, Note_off_c, 0, 97, 63
1, 385568, Note_on_c, 0, 95, 79
1, 385576, Note_off_c, 0, 76, 63
1, 385601, Note_off_c, 0, 95, 58
1, 385630, Note_on_c, 0, 97, 67
1, 385662, Note_off_c, 0, 97, 66
1, 385684, Note_on_c, 0, 95, 78
1, 385694, Note_on_c, 0, 80, 82
1, 385695, Note_on_c, 0, 76, 55
1, 385710, Note_off_c, 0, 95, 65
1, 385718, Note_off_c, 0, 76, 57
1, 385736, Note_on_c, 0, 97, 72
1, 385775, Note_off_c, 0, 80, 52
1, 385782, Note_off_c, 0, 97, 66
1, 385796, Note_on_c, 0, 95, 70
1, 385839, Control_c, 0, 67, 113
1, 385867, Note_off_c, 0, 95, 61
1, 385872, Note_on_c, 0, 69, 68
1, 385884, Control_c, 0, 67, 113
1, 385913, Control_c, 0, 67, 112
1, 385947, Note_on_c, 0, 75, 67
1, 385958, Control_c, 0, 67, 112
1, 386053, Note_on_c, 0, 80, 77
1, 386121, Control_c, 0, 64, 118
1, 386121, Control_c, 0, 67, 112
1, 386135, Control_c, 0, 64, 93
1, 386151, Control_c, 0, 64, 75
1, 386166, Control_c, 0, 64, 0
1, 386200, Note_on_c, 0, 83, 95
1, 386240, Control_c, 0, 64, 60
1, 386255, Control_c, 0, 64, 68
1, 386270, Control_c, 0, 64, 78
1, 386270, Control_c, 0, 67, 113
1, 386284, Control_c, 0, 64, 91
1, 386299, Control_c, 0, 64, 100
1, 386314, Control_c, 0, 64, 106
1, 386329, Control_c, 0, 64, 114
1, 386329, Control_c, 0, 67, 113
1, 386344, Control_c, 0, 64, 127
1, 386358, Control_c, 0, 67, 114
1, 386379, Note_on_c, 0, 92, 73
1, 386387, Note_on_c, 0, 87, 60
1, 386424, Note_off_c, 0, 80, 59
1, 386424, Note_off_c, 0, 87, 60
1, 386447, Note_off_c, 0, 92, 60
1, 386468, Note_on_c, 0, 95, 69
1, 386483, Note_off_c, 0, 75, 32
1, 386486, Note_off_c, 0, 83, 57
1, 386507, Control_c, 0, 67, 114
1, 386532, Note_off_c, 0, 95, 62
1, 386533, Note_on_c, 0, 92, 66
1, 386545, Note_on_c, 0, 87, 39
1, 386557, Note_off_c, 0, 69, 37
1, 386581, Note_off_c, 0, 87, 56
1, 386608, Note_off_c, 0, 92, 60
1, 386614, Note_on_c, 0, 97, 72
1, 386644, Note_off_c, 0, 97, 65
1, 386706, Control_c, 0, 64, 100
1, 386718, Note_on_c, 0, 78, 59
1, 386718, Note_on_c, 0, 81, 70
1, 386721, Control_c, 0, 64, 81
1, 386723, Note_on_c, 0, 97, 81
1, 386728, Note_on_c, 0, 69, 50
1, 386736, Control_c, 0, 64, 65
1, 386751, Control_c, 0, 64, 0
1, 386766, Control_c, 0, 64, 38
1, 386781, Control_c, 0, 64, 62
1, 386796, Control_c, 0, 64, 68
1, 386810, Control_c, 0, 64, 76
1, 386816, Note_on_c, 0, 95, 78
1, 386825, Control_c, 0, 64, 88
1, 386825, Control_c, 0, 67, 115
1, 386840, Control_c, 0, 64, 98
1, 386848, Note_off_c, 0, 97, 60
1, 386855, Control_c, 0, 64, 104
1, 386870, Control_c, 0, 64, 107
1, 386884, Control_c, 0, 64, 111
1, 386899, Control_c, 0, 64, 118
1, 386906, Note_on_c, 0, 90, 76
1, 386909, Note_off_c, 0, 95, 63
1, 386914, Control_c, 0, 64, 127
1, 386915, Note_on_c, 0, 87, 57
1, 386949, Note_off_c, 0, 87, 64
1, 386964, Note_off_c, 0, 90, 62
1, 386979, Note_off_c, 0, 69, 39
1, 386982, Note_on_c, 0, 95, 72
1, 386989, Control_c, 0, 67, 115
1, 387004, Note_off_c, 0, 78, 33
1, 387034, Control_c, 0, 67, 116
1, 387048, Control_c, 0, 67, 116
1, 387049, Note_off_c, 0, 95, 63
1, 387061, Note_on_c, 0, 87, 51
1, 387064, Note_on_c, 0, 90, 77
1, 387100, Note_off_c, 0, 87, 62
1, 387135, Note_off_c, 0, 90, 57
1, 387142, Note_on_c, 0, 97, 72
1, 387173, Note_off_c, 0, 97, 64
1, 387236, Note_on_c, 0, 78, 65
1, 387239, Note_on_c, 0, 69, 55
1, 387247, Note_on_c, 0, 75, 59
1, 387249, Note_on_c, 0, 97, 80
1, 387255, Note_off_c, 0, 81, 36
1, 387255, Control_c, 0, 64, 93
1, 387270, Control_c, 0, 64, 74
1, 387285, Control_c, 0, 64, 0
1, 387337, Control_c, 0, 64, 41
1, 387352, Control_c, 0, 64, 64
1, 387354, Note_on_c, 0, 95, 76
1, 387367, Control_c, 0, 64, 73
1, 387381, Control_c, 0, 64, 85
1, 387389, Note_off_c, 0, 97, 61
1, 387396, Control_c, 0, 64, 99
1, 387411, Control_c, 0, 64, 104
1, 387425, Note_off_c, 0, 95, 63
1, 387425, Control_c, 0, 64, 106
1, 387433, Note_on_c, 0, 90, 70
1, 387440, Control_c, 0, 64, 108
1, 387440, Control_c, 0, 67, 116
1, 387446, Note_on_c, 0, 87, 57
1, 387455, Control_c, 0, 64, 111
1, 387470, Control_c, 0, 64, 115
1, 387475, Note_off_c, 0, 87, 67
1, 387485, Control_c, 0, 64, 119
1, 387486, Note_off_c, 0, 90, 61
1, 387499, Control_c, 0, 64, 127
1, 387502, Note_on_c, 0, 95, 68
1, 387559, Note_off_c, 0, 95, 64
1, 387566, Note_on_c, 0, 87, 56
1, 387583, Note_on_c, 0, 90, 70
1, 387595, Note_off_c, 0, 87, 67
1, 387619, Control_c, 0, 67, 116
1, 387620, Note_off_c, 0, 90, 57
1, 387648, Control_c, 0, 67, 117
1, 387656, Note_on_c, 0, 97, 62
1, 387672, Note_off_c, 0, 69, 59
1, 387684, Note_off_c, 0, 97, 67
1, 387691, Note_off_c, 0, 75, 59
1, 387737, Note_off_c, 0, 78, 56
1, 387756, Note_on_c, 0, 97, 68
1, 387798, Note_off_c, 0, 97, 62
1, 387825, Note_on_c, 0, 95, 67
1, 387852, Note_off_c, 0, 95, 67
1, 387888, Note_on_c, 0, 97, 63
1, 387917, Note_off_c, 0, 97, 67
1, 387924, Note_on_c, 0, 95, 71
1, 387930, Note_on_c, 0, 80, 63
1, 387965, Note_off_c, 0, 95, 63
1, 387971, Note_on_c, 0, 76, 26
1, 387987, Note_on_c, 0, 97, 71
1, 388033, Note_off_c, 0, 97, 63
1, 388040, Note_on_c, 0, 95, 72
1, 388078, Note_off_c, 0, 95, 62
1, 388087, Note_off_c, 0, 76, 40
1, 388096, Note_on_c, 0, 97, 68
1, 388099, Note_off_c, 0, 80, 63
1, 388120, Note_on_c, 0, 78, 65
1, 388126, Note_on_c, 0, 81, 77
1, 388139, Note_off_c, 0, 97, 64
1, 388150, Note_off_c, 0, 78, 66
1, 388153, Note_on_c, 0, 95, 76
1, 388177, Note_off_c, 0, 95, 69
1, 388190, Note_off_c, 0, 81, 64
1, 388199, Note_on_c, 0, 97, 67
1, 388233, Control_c, 0, 67, 117
1, 388236, Note_off_c, 0, 97, 65
1, 388246, Note_on_c, 0, 95, 80
1, 388263, Note_on_c, 0, 68, 70
1, 388277, Control_c, 0, 67, 118
1, 388292, Note_off_c, 0, 95, 65
1, 388292, Control_c, 0, 67, 118
1, 388307, Control_c, 0, 67, 119
1, 388322, Control_c, 0, 67, 122
1, 388328, Note_off_c, 0, 68, 62
1, 388337, Control_c, 0, 64, 94
1, 388337, Control_c, 0, 67, 127
1, 388350, Note_on_c, 0, 76, 67
1, 388352, Control_c, 0, 64, 67
1, 388352, Control_c, 0, 67, 127
1, 388367, Control_c, 0, 64, 0
1, 388455, Control_c, 0, 64, 66
1, 388461, Note_on_c, 0, 85, 91
1, 388470, Control_c, 0, 64, 79
1, 388485, Control_c, 0, 64, 97
1, 388500, Control_c, 0, 64, 121
1, 388515, Control_c, 0, 64, 127
1, 388580, Note_off_c, 0, 85, 61
1, 388632, Note_on_c, 0, 88, 56
1, 388632, Note_on_c, 0, 92, 63
1, 388678, Note_off_c, 0, 88, 63
1, 388685, Note_off_c, 0, 92, 55
1, 388688, Note_off_c, 0, 76, 50
1, 388713, Note_on_c, 0, 95, 62
1, 388747, Note_off_c, 0, 95, 61
1, 388768, Note_on_c, 0, 92, 67
1, 388778, Note_on_c, 0, 68, 54
1, 388792, Note_on_c, 0, 88, 19
1, 388811, Note_off_c, 0, 92, 61
1, 388837, Note_off_c, 0, 88, 41
1, 388876, Note_on_c, 0, 76, 57
1, 388904, Note_off_c, 0, 68, 54
1, 388932, Note_on_c, 0, 97, 64
1, 388948, Note_on_c, 0, 83, 72
1, 388992, Note_off_c, 0, 76, 60
1, 388994, Note_off_c, 0, 97, 66
1, 389028, Note_on_c, 0, 95, 80
1, 389089, Note_off_c, 0, 95, 63
1, 389109, Note_on_c, 0, 92, 64
1, 389110, Note_on_c, 0, 88, 66
1, 389145, Note_off_c, 0, 92, 60
1, 389168, Note_off_c, 0, 88, 62
1, 389177, Note_off_c, 0, 83, 33
1, 389188, Note_on_c, 0, 95, 66
1, 389231, Note_off_c, 0, 95, 56
1, 389246, Note_on_c, 0, 92, 71
1, 389258, Note_on_c, 0, 88, 50
1, 389287, Note_off_c, 0, 88, 58
1, 389311, Note_off_c, 0, 92, 58
1, 389330, Note_on_c, 0, 97, 52
1, 389353, Note_off_c, 0, 97, 59
1, 389368, Control_c, 0, 64, 102
1, 389383, Control_c, 0, 64, 79
1, 389398, Control_c, 0, 64, 59
1, 389404, Note_on_c, 0, 80, 63
1, 389408, Note_on_c, 0, 76, 55
1, 389410, Note_on_c, 0, 97, 84
1, 389413, Note_on_c, 0, 71, 45
1, 389413, Control_c, 0, 64, 0
1, 389443, Control_c, 0, 64, 48
1, 389458, Control_c, 0, 64, 66
1, 389473, Control_c, 0, 64, 75
1, 389488, Control_c, 0, 64, 92
1, 389488, Note_off_c, 0, 97, 61
1, 389489, Note_on_c, 0, 95, 77
1, 389502, Control_c, 0, 64, 118
1, 389517, Control_c, 0, 64, 127
1, 389547, Note_off_c, 0, 95, 63
1, 389561, Note_on_c, 0, 92, 70
1, 389592, Note_on_c, 0, 88, 60
1, 389608, Note_off_c, 0, 92, 59
1, 389637, Note_off_c, 0, 88, 63
1, 389648, Note_on_c, 0, 95, 69
1, 389699, Note_off_c, 0, 95, 61
1, 389705, Note_on_c, 0, 92, 71
1, 389723, Note_on_c, 0, 88, 50
1, 389757, Note_off_c, 0, 88, 63
1, 389780, Note_off_c, 0, 92, 57
1, 389792, Note_on_c, 0, 97, 55
1, 389813, Note_off_c, 0, 97, 60
1, 389813, Note_off_c, 0, 76, 64
1, 389830, Note_off_c, 0, 71, 41
1, 389869, Note_on_c, 0, 97, 78
1, 389869, Note_off_c, 0, 80, 62
1, 389909, Note_off_c, 0, 97, 60
1, 389944, Note_on_c, 0, 95, 62
1, 389979, Note_off_c, 0, 95, 64
1, 389996, Note_on_c, 0, 97, 68
1, 390038, Note_off_c, 0, 97, 63
1, 390042, Note_on_c, 0, 81, 62
1, 390048, Note_on_c, 0, 78, 59
1, 390048, Note_on_c, 0, 95, 74
1, 390102, Note_off_c, 0, 95, 63
1, 390110, Note_on_c, 0, 97, 71
1, 390143, Note_off_c, 0, 78, 58
1, 390161, Note_off_c, 0, 97, 64
1, 390172, Note_on_c, 0, 95, 61
1, 390212, Note_off_c, 0, 95, 64
1, 390216, Note_off_c, 0, 81, 61
1, 390218, Note_on_c, 0, 97, 61
1, 390221, Note_on_c, 0, 79, 60
1, 390223, Note_on_c, 0, 82, 73
1, 390275, Note_off_c, 0, 97, 64
1, 390283, Note_on_c, 0, 95, 67
1, 390291, Note_off_c, 0, 82, 64
1, 390330, Note_off_c, 0, 95, 62
1, 390342, Note_on_c, 0, 97, 62
1, 390400, Note_off_c, 0, 97, 65
1, 390406, Control_c, 0, 64, 94
1, 390415, Note_off_c, 0, 79, 62
1, 390415, Note_on_c, 0, 95, 62
1, 390421, Control_c, 0, 64, 71
1, 390436, Control_c, 0, 64, 0
1, 390439, Note_on_c, 0, 81, 67
1, 390441, Note_on_c, 0, 85, 77
1, 390447, Note_off_c, 0, 95, 66
1, 390456, Note_on_c, 0, 97, 60
1, 390480, Control_c, 0, 64, 18
1, 390495, Control_c, 0, 64, 62
1, 390510, Control_c, 0, 64, 69
1, 390514, Note_off_c, 0, 97, 65
1, 390521, Note_on_c, 0, 95, 66
1, 390525, Control_c, 0, 64, 77
1, 390540, Control_c, 0, 64, 92
1, 390547, Note_off_c, 0, 85, 55
1, 390555, Control_c, 0, 64, 107
1, 390558, Note_off_c, 0, 95, 61
1, 390570, Control_c, 0, 64, 117
1, 390574, Note_on_c, 0, 97, 50
1, 390584, Control_c, 0, 64, 127
1, 390620, Note_off_c, 0, 97, 66
1, 390637, Note_on_c, 0, 95, 62
1, 390673, Note_off_c, 0, 95, 65
1, 390692, Note_on_c, 0, 97, 56
1, 390731, Note_off_c, 0, 97, 65
1, 390745, Note_on_c, 0, 95, 63
1, 390751, Note_off_c, 0, 81, 38
1, 390785, Note_off_c, 0, 95, 63
1, 390808, Note_on_c, 0, 97, 66
1, 390811, Note_on_c, 0, 80, 43
1, 390829, Note_on_c, 0, 83, 56
1, 390850, Note_off_c, 0, 97, 64
1, 390874, Note_on_c, 0, 95, 57
1, 390878, Note_off_c, 0, 80, 55
1, 390903, Note_off_c, 0, 83, 55
1, 390914, Note_off_c, 0, 95, 66
1, 390933, Note_on_c, 0, 97, 60
1, 390974, Note_off_c, 0, 97, 66
1, 390990, Note_on_c, 0, 80, 65
1, 390991, Note_on_c, 0, 95, 64
1, 390997, Note_on_c, 0, 76, 66
1, 391014, Control_c, 0, 64, 98
1, 391029, Control_c, 0, 64, 80
1, 391038, Note_off_c, 0, 95, 64
1, 391044, Control_c, 0, 64, 64
1, 391050, Note_on_c, 0, 97, 66
1, 391059, Control_c, 0, 64, 0
1, 391096, Control_c, 0, 64, 41
1, 391111, Control_c, 0, 64, 63
1, 391112, Note_off_c, 0, 97, 65
1, 391125, Note_off_c, 0, 76, 58
1, 391126, Note_on_c, 0, 95, 65
1, 391126, Control_c, 0, 64, 69
1, 391141, Control_c, 0, 64, 77
1, 391155, Control_c, 0, 64, 93
1, 391170, Control_c, 0, 64, 104
1, 391172, Note_off_c, 0, 95, 63
1, 391175, Note_on_c, 0, 97, 65
1, 391176, Note_on_c, 0, 81, 88
1, 391178, Note_off_c, 0, 80, 59
1, 391181, Note_on_c, 0, 78, 65
1, 391185, Control_c, 0, 64, 110
1, 391199, Control_c, 0, 64, 121
1, 391214, Control_c, 0, 64, 127
1, 391232, Note_off_c, 0, 97, 65
1, 391244, Note_on_c, 0, 95, 63
1, 391279, Note_off_c, 0, 78, 61
1, 391291, Note_off_c, 0, 95, 63
1, 391297, Note_on_c, 0, 97, 64
1, 391339, Note_on_c, 0, 82, 84
1, 391349, Note_on_c, 0, 79, 67
1, 391353, Note_off_c, 0, 81, 51
1, 391356, Note_off_c, 0, 97, 65
1, 391375, Note_on_c, 0, 95, 62
1, 391410, Note_off_c, 0, 95, 66
1, 391412, Note_off_c, 0, 82, 63
1, 391420, Note_on_c, 0, 97, 64
1, 391478, Note_off_c, 0, 97, 65
1, 391488, Note_on_c, 0, 95, 68
1, 391513, Note_off_c, 0, 79, 61
1, 391530, Note_on_c, 0, 85, 83
1, 391535, Note_off_c, 0, 95, 62
1, 391538, Note_on_c, 0, 81, 76
1, 391538, Note_on_c, 0, 97, 61
1, 391569, Control_c, 0, 64, 102
1, 391584, Control_c, 0, 64, 82
1, 391598, Control_c, 0, 64, 65
1, 391599, Note_off_c, 0, 97, 65
1, 391613, Control_c, 0, 64, 0
1, 391614, Note_on_c, 0, 95, 64
1, 391658, Control_c, 0, 64, 55
1, 391660, Note_off_c, 0, 95, 62
1, 391670, Note_on_c, 0, 97, 62
1, 391673, Control_c, 0, 64, 66
1, 391687, Control_c, 0, 64, 72
1, 391702, Control_c, 0, 64, 82
1, 391717, Control_c, 0, 64, 91
1, 391726, Note_off_c, 0, 85, 54
1, 391727, Note_off_c, 0, 97, 65
1, 391732, Control_c, 0, 64, 93
1, 391748, Control_c, 0, 64, 94
1, 391750, Note_on_c, 0, 95, 60
1, 391762, Control_c, 0, 64, 95
1, 391777, Control_c, 0, 64, 96
1, 391792, Control_c, 0, 64, 97
1, 391795, Note_off_c, 0, 95, 62
1, 391804, Note_on_c, 0, 97, 62
1, 391807, Control_c, 0, 64, 99
1, 391829, Control_c, 0, 64, 100
1, 391844, Control_c, 0, 64, 100
1, 391859, Control_c, 0, 64, 101
1, 391865, Note_off_c, 0, 97, 64
1, 391882, Note_on_c, 0, 95, 63
1, 391889, Note_off_c, 0, 81, 31
1, 391902, Note_on_c, 0, 80, 57
1, 391903, Control_c, 0, 64, 101
1, 391909, Note_on_c, 0, 83, 61
1, 391938, Note_off_c, 0, 95, 65
1, 391940, Note_on_c, 0, 97, 64
1, 391965, Note_off_c, 0, 80, 47
1, 391977, Control_c, 0, 64, 102
1, 391989, Note_off_c, 0, 83, 55
1, 391992, Control_c, 0, 64, 102
1, 392000, Note_off_c, 0, 97, 65
1, 392024, Note_on_c, 0, 95, 52
1, 392036, Control_c, 0, 64, 100
1, 392051, Control_c, 0, 64, 87
1, 392066, Control_c, 0, 64, 74
1, 392070, Note_off_c, 0, 95, 66
1, 392072, Note_on_c, 0, 97, 66
1, 392081, Control_c, 0, 64, 59
1, 392085, Note_on_c, 0, 80, 63
1, 392087, Note_on_c, 0, 76, 56
1, 392096, Control_c, 0, 64, 0
1, 392126, Control_c, 0, 64, 43
1, 392132, Note_off_c, 0, 97, 64
1, 392140, Control_c, 0, 64, 63
1, 392151, Note_on_c, 0, 95, 59
1, 392155, Control_c, 0, 64, 68
1, 392170, Control_c, 0, 64, 74
1, 392185, Control_c, 0, 64, 85
1, 392189, Note_off_c, 0, 76, 55
1, 392197, Note_off_c, 0, 95, 65
1, 392200, Control_c, 0, 64, 95
1, 392202, Note_on_c, 0, 97, 64
1, 392214, Control_c, 0, 64, 103
1, 392226, Note_off_c, 0, 80, 57
1, 392229, Control_c, 0, 64, 110
1, 392244, Control_c, 0, 64, 127
1, 392258, Note_on_c, 0, 78, 66
1, 392261, Note_on_c, 0, 81, 82
1, 392265, Note_off_c, 0, 97, 65
1, 392278, Note_on_c, 0, 95, 66
1, 392332, Note_off_c, 0, 95, 64
1, 392337, Note_on_c, 0, 97, 63
1, 392358, Note_off_c, 0, 78, 59
1, 392400, Note_off_c, 0, 81, 61
1, 392401, Note_off_c, 0, 97, 64
1, 392415, Note_on_c, 0, 95, 68
1, 392423, Note_on_c, 0, 82, 78
1, 392435, Note_on_c, 0, 79, 65
1, 392452, Control_c, 0, 67, 126
1, 392467, Control_c, 0, 67, 125
1, 392471, Note_off_c, 0, 95, 65
1, 392474, Note_on_c, 0, 97, 65
1, 392482, Control_c, 0, 67, 120
1, 392496, Control_c, 0, 67, 112
1, 392511, Control_c, 0, 67, 102
1, 392525, Note_off_c, 0, 82, 57
1, 392526, Control_c, 0, 67, 88
1, 392542, Control_c, 0, 67, 69
1, 392543, Note_off_c, 0, 97, 65
1, 392555, Note_on_c, 0, 95, 65
1, 392557, Control_c, 0, 67, 46
1, 392579, Control_c, 0, 67, 22
1, 392594, Control_c, 0, 67, 0
1, 392598, Note_off_c, 0, 79, 57
1, 392608, Note_on_c, 0, 80, 58
1, 392620, Note_off_c, 0, 95, 65
1, 392621, Note_on_c, 0, 97, 66
1, 392627, Note_on_c, 0, 83, 74
1, 392637, Note_off_c, 0, 80, 65
1, 392688, Note_off_c, 0, 97, 64
1, 392692, Note_off_c, 0, 83, 66
1, 392711, Note_on_c, 0, 95, 60
1, 392756, Note_off_c, 0, 95, 64
1, 392762, Note_on_c, 0, 97, 60
1, 392800, Note_on_c, 0, 81, 62
1, 392810, Note_on_c, 0, 85, 52
1, 392821, Note_off_c, 0, 97, 64
1, 392832, Note_on_c, 0, 95, 61
1, 392892, Note_off_c, 0, 95, 64
1, 392901, Note_on_c, 0, 97, 57
1, 392904, Note_off_c, 0, 85, 56
1, 392927, Note_off_c, 0, 81, 50
1, 392952, Note_off_c, 0, 97, 63
1, 392965, Note_on_c, 0, 95, 62
1, 392974, Note_on_c, 0, 83, 61
1, 392984, Note_on_c, 0, 87, 65
1, 392993, Control_c, 0, 64, 112
1, 392993, Control_c, 0, 67, 8
1, 393008, Control_c, 0, 64, 91
1, 393016, Note_off_c, 0, 95, 62
1, 393023, Control_c, 0, 64, 72
1, 393023, Control_c, 0, 67, 8
1, 393026, Note_on_c, 0, 97, 59
1, 393038, Control_c, 0, 64, 0
1, 393038, Control_c, 0, 67, 9
1, 393053, Control_c, 0, 67, 9
1, 393082, Note_off_c, 0, 97, 62
1, 393083, Control_c, 0, 67, 10
1, 393097, Control_c, 0, 67, 10
1, 393098, Note_off_c, 0, 83, 53
1, 393102, Note_on_c, 0, 95, 56
1, 393112, Control_c, 0, 67, 11
1, 393127, Control_c, 0, 64, 55
1, 393127, Control_c, 0, 67, 11
1, 393137, Note_off_c, 0, 87, 49
1, 393139, Note_off_c, 0, 95, 64
1, 393142, Control_c, 0, 64, 65
1, 393142, Control_c, 0, 67, 12
1, 393145, Note_on_c, 0, 97, 58
1, 393151, Note_on_c, 0, 88, 65
1, 393156, Note_on_c, 0, 85, 28
1, 393157, Control_c, 0, 64, 71
1, 393171, Control_c, 0, 64, 80
1, 393171, Control_c, 0, 67, 12
1, 393184, Note_off_c, 0, 85, 49
1, 393186, Control_c, 0, 64, 90
1, 393201, Control_c, 0, 64, 95
1, 393201, Control_c, 0, 67, 13
1, 393202, Note_off_c, 0, 97, 61
1, 393215, Note_on_c, 0, 95, 71
1, 393216, Control_c, 0, 64, 98
1, 393216, Control_c, 0, 67, 13
1, 393231, Control_c, 0, 64, 100
1, 393238, Note_off_c, 0, 88, 58
1, 393245, Control_c, 0, 64, 103
1, 393260, Control_c, 0, 64, 105
1, 393265, Note_off_c, 0, 95, 61
1, 393269, Note_on_c, 0, 97, 55
1, 393275, Control_c, 0, 64, 107
1, 393275, Control_c, 0, 67, 14
1, 393289, Control_c, 0, 64, 108
1, 393289, Control_c, 0, 67, 14
1, 393304, Control_c, 0, 64, 109
1, 393304, Control_c, 0, 67, 15
1, 393325, Note_on_c, 0, 90, 55
1, 393327, Control_c, 0, 67, 16
1, 393328, Note_on_c, 0, 87, 55
1, 393332, Note_off_c, 0, 97, 62
1, 393342, Control_c, 0, 67, 16
1, 393348, Note_on_c, 0, 95, 61
1, 393357, Control_c, 0, 67, 17
1, 393366, Note_off_c, 0, 87, 63
1, 393372, Control_c, 0, 67, 17
1, 393384, Note_off_c, 0, 90, 48
1, 393387, Control_c, 0, 67, 18
1, 393390, Note_off_c, 0, 95, 63
1, 393399, Note_on_c, 0, 97, 55
1, 393401, Control_c, 0, 67, 19
1, 393416, Control_c, 0, 67, 19
1, 393431, Control_c, 0, 64, 109
1, 393431, Control_c, 0, 67, 20
1, 393446, Control_c, 0, 64, 106
1, 393446, Control_c, 0, 67, 21
1, 393452, Note_off_c, 0, 97, 62
1, 393461, Control_c, 0, 64, 101
1, 393476, Control_c, 0, 64, 96
1, 393476, Control_c, 0, 67, 22
1, 393479, Note_on_c, 0, 95, 54
1, 393491, Control_c, 0, 64, 90
1, 393491, Control_c, 0, 67, 22
1, 393506, Control_c, 0, 64, 83
1, 393506, Control_c, 0, 67, 23
1, 393507, Note_off_c, 0, 95, 53
1, 393508, Note_on_c, 0, 87, 46
1, 393509, Note_on_c, 0, 91, 59
1, 393520, Control_c, 0, 64, 75
1, 393520, Control_c, 0, 67, 23
1, 393524, Note_on_c, 0, 97, 58
1, 393535, Control_c, 0, 64, 67
1, 393535, Control_c, 0, 67, 24
1, 393550, Control_c, 0, 64, 44
1, 393550, Control_c, 0, 67, 25
1, 393565, Control_c, 0, 64, 28
1, 393565, Control_c, 0, 67, 25
1, 393570, Note_off_c, 0, 97, 63
1, 393580, Control_c, 0, 67, 26
1, 393586, Note_on_c, 0, 95, 63
1, 393594, Control_c, 0, 67, 27
1, 393609, Control_c, 0, 67, 27
1, 393624, Note_off_c, 0, 87, 41
1, 393624, Control_c, 0, 67, 28
1, 393631, Note_off_c, 0, 95, 60
1, 393639, Control_c, 0, 67, 29
1, 393654, Control_c, 0, 67, 31
1, 393655, Note_on_c, 0, 97, 61
1, 393668, Control_c, 0, 67, 32
1, 393676, Note_off_c, 0, 91, 55
1, 393683, Control_c, 0, 64, 31
1, 393683, Control_c, 0, 67, 33
1, 393689, Note_off_c, 0, 97, 62
1, 393690, Note_on_c, 0, 92, 75
1, 393698, Control_c, 0, 64, 32
1, 393698, Control_c, 0, 67, 34
1, 393709, Note_on_c, 0, 88, 50
1, 393712, Control_c, 0, 67, 34
1, 393713, Note_on_c, 0, 95, 66
1, 393726, Note_off_c, 0, 92, 60
1, 393727, Control_c, 0, 64, 33
1, 393727, Control_c, 0, 67, 35
1, 393732, Note_off_c, 0, 88, 59
1, 393742, Control_c, 0, 67, 36
1, 393748, Note_off_c, 0, 95, 63
1, 393757, Control_c, 0, 64, 34
1, 393757, Control_c, 0, 67, 38
1, 393765, Note_on_c, 0, 97, 65
1, 393772, Control_c, 0, 67, 40
1, 393786, Control_c, 0, 67, 43
1, 393801, Control_c, 0, 67, 47
1, 393810, Note_off_c, 0, 97, 58
1, 393816, Control_c, 0, 67, 50
1, 393831, Control_c, 0, 67, 53
1, 393833, Note_on_c, 0, 95, 69
1, 393846, Control_c, 0, 67, 55
1, 393861, Control_c, 0, 67, 58
1, 393874, Note_off_c, 0, 95, 60
1, 393875, Control_c, 0, 67, 62
1, 393889, Note_on_c, 0, 97, 61
1, 393890, Control_c, 0, 64, 38
1, 393890, Control_c, 0, 67, 69
1, 393905, Control_c, 0, 64, 47
1, 393905, Control_c, 0, 67, 73
1, 393920, Control_c, 0, 64, 54
1, 393920, Control_c, 0, 67, 75
1, 393935, Control_c, 0, 64, 56
1, 393935, Control_c, 0, 67, 76
1, 393945, Note_off_c, 0, 97, 61
1, 393950, Control_c, 0, 67, 77
1, 393965, Control_c, 0, 64, 55
1, 393965, Control_c, 0, 67, 77
1, 393965, Note_on_c, 0, 95, 65
1, 393980, Control_c, 0, 67, 78
1, 393994, Control_c, 0, 67, 79
1, 394001, Note_off_c, 0, 95, 62
1, 394009, Control_c, 0, 64, 56
1, 394009, Control_c, 0, 67, 79
1, 394015, Note_on_c, 0, 97, 58
1, 394024, Control_c, 0, 64, 56
1, 394024, Control_c, 0, 67, 81
1, 394039, Control_c, 0, 67, 83
1, 394054, Control_c, 0, 67, 86
1, 394075, Control_c, 0, 67, 89
1, 394078, Note_off_c, 0, 97, 64
1, 394087, Note_on_c, 0, 95, 69
1, 394090, Control_c, 0, 67, 92
1, 394096, Note_on_c, 0, 87, 56
1, 394097, Note_on_c, 0, 91, 63
1, 394105, Control_c, 0, 64, 57
1, 394105, Control_c, 0, 67, 95
1, 394120, Control_c, 0, 67, 97
1, 394135, Control_c, 0, 67, 98
1, 394145, Note_off_c, 0, 95, 63
1, 394150, Control_c, 0, 67, 100
1, 394151, Note_on_c, 0, 97, 58
1, 394165, Control_c, 0, 67, 101
1, 394180, Control_c, 0, 67, 102
1, 394195, Control_c, 0, 67, 104
1, 394209, Note_off_c, 0, 97, 61
1, 394210, Control_c, 0, 67, 106
1, 394222, Note_off_c, 0, 87, 36
1, 394224, Control_c, 0, 67, 108
1, 394230, Note_on_c, 0, 95, 61
1, 394239, Control_c, 0, 67, 111
1, 394254, Control_c, 0, 67, 114
1, 394258, Note_off_c, 0, 91, 58
1, 394269, Control_c, 0, 64, 56
1, 394269, Control_c, 0, 67, 118
1, 394270, Note_off_c, 0, 95, 62
1, 394282, Note_on_c, 0, 97, 55
1, 394284, Control_c, 0, 64, 55
1, 394284, Control_c, 0, 67, 122
1, 394290, Note_on_c, 0, 92, 66
1, 394299, Control_c, 0, 64, 54
1, 394299, Control_c, 0, 67, 127
1, 394302, Note_on_c, 0, 88, 44
1, 394314, Control_c, 0, 64, 52
1, 394324, Note_off_c, 0, 92, 63
1, 394328, Note_off_c, 0, 88, 58
1, 394328, Note_off_c, 0, 97, 63
1, 394329, Control_c, 0, 64, 50
1, 394343, Control_c, 0, 64, 49
1, 394349, Note_on_c, 0, 95, 68
1, 394358, Control_c, 0, 64, 48
1, 394389, Note_off_c, 0, 95, 57
1, 394408, Note_on_c, 0, 97, 60
1, 394447, Control_c, 0, 64, 48
1, 394448, Note_off_c, 0, 97, 62
1, 394462, Control_c, 0, 64, 49
1, 394473, Note_on_c, 0, 95, 62
1, 394477, Control_c, 0, 64, 49
1, 394510, Note_off_c, 0, 95, 60
1, 394530, Note_on_c, 0, 97, 63
1, 394535, Control_c, 0, 64, 50
1, 394569, Note_off_c, 0, 97, 62
1, 394588, Note_on_c, 0, 95, 64
1, 394624, Control_c, 0, 64, 50
1, 394630, Note_off_c, 0, 95, 58
1, 394650, Note_on_c, 0, 97, 67
1, 394679, Note_on_c, 0, 87, 48
1, 394691, Note_off_c, 0, 97, 58
1, 394698, Note_on_c, 0, 91, 50
1, 394717, Note_on_c, 0, 95, 64
1, 394753, Note_off_c, 0, 95, 61
1, 394771, Note_on_c, 0, 97, 64
1, 394773, Control_c, 0, 64, 51
1, 394820, Note_off_c, 0, 97, 59
1, 394824, Control_c, 0, 64, 51
1, 394839, Control_c, 0, 64, 52
1, 394853, Note_on_c, 0, 95, 64
1, 394854, Control_c, 0, 64, 52
1, 394858, Note_off_c, 0, 91, 57
1, 394879, Note_off_c, 0, 87, 62
1, 394883, Control_c, 0, 64, 53
1, 394886, Note_off_c, 0, 95, 65
1, 394898, Control_c, 0, 64, 53
1, 394901, Note_on_c, 0, 97, 63
1, 394932, Note_on_c, 0, 92, 74
1, 394940, Note_off_c, 0, 97, 60
1, 394944, Note_on_c, 0, 88, 56
1, 394944, Control_c, 0, 64, 54
1, 394960, Note_off_c, 0, 92, 66
1, 394963, Note_on_c, 0, 95, 66
1, 394972, Note_off_c, 0, 88, 67
1, 394988, Control_c, 0, 64, 54
1, 395003, Note_off_c, 0, 95, 59
1, 395026, Note_on_c, 0, 97, 68
1, 395063, Note_off_c, 0, 97, 59
1, 395092, Note_on_c, 0, 95, 62
1, 395126, Note_off_c, 0, 95, 65
1, 395145, Note_on_c, 0, 97, 64
1, 395166, Control_c, 0, 64, 55
1, 395181, Control_c, 0, 64, 55
1, 395187, Note_off_c, 0, 97, 62
1, 395196, Control_c, 0, 64, 56
1, 395203, Note_on_c, 0, 95, 62
1, 395211, Control_c, 0, 64, 57
1, 395226, Control_c, 0, 64, 58
1, 395240, Control_c, 0, 64, 58
1, 395250, Note_off_c, 0, 95, 60
1, 395255, Control_c, 0, 64, 59
1, 395268, Note_on_c, 0, 97, 54
1, 395284, Control_c, 0, 64, 59
1, 395299, Control_c, 0, 64, 60
1, 395307, Note_off_c, 0, 97, 63
1, 395314, Control_c, 0, 64, 60
1, 395329, Control_c, 0, 64, 61
1, 395330, Note_on_c, 0, 95, 55
1, 395344, Control_c, 0, 64, 62
1, 395358, Control_c, 0, 64, 63
1, 395367, Note_off_c, 0, 95, 64
1, 395373, Control_c, 0, 64, 64
1, 395388, Control_c, 0, 64, 65
1, 395389, Note_on_c, 0, 97, 57
1, 395403, Control_c, 0, 64, 66
1, 395418, Control_c, 0, 64, 68
1, 395422, Note_off_c, 0, 97, 61
1, 395432, Control_c, 0, 64, 71
1, 395447, Control_c, 0, 64, 76
1, 395450, Note_on_c, 0, 95, 57
1, 395462, Control_c, 0, 64, 82
1, 395477, Control_c, 0, 64, 86
1, 395483, Note_off_c, 0, 95, 64
1, 395491, Control_c, 0, 64, 89
1, 395503, Note_on_c, 0, 97, 61
1, 395506, Control_c, 0, 64, 92
1, 395521, Control_c, 0, 64, 96
1, 395536, Control_c, 0, 64, 101
1, 395545, Note_off_c, 0, 97, 60
1, 395551, Control_c, 0, 64, 107
1, 395572, Note_on_c, 0, 95, 60
1, 395573, Control_c, 0, 64, 116
1, 395588, Control_c, 0, 64, 127
1, 395621, Note_off_c, 0, 95, 60
1, 395647, Note_on_c, 0, 97, 56
1, 395686, Note_off_c, 0, 97, 62
1, 395711, Note_on_c, 0, 95, 55
1, 395753, Note_off_c, 0, 95, 64
1, 395775, Note_on_c, 0, 97, 56
1, 395816, Note_off_c, 0, 97, 64
1, 395837, Note_on_c, 0, 95, 60
1, 395881, Note_off_c, 0, 95, 60
1, 395905, Note_on_c, 0, 97, 59
1, 395948, Note_off_c, 0, 97, 61
1, 395982, Note_on_c, 0, 95, 56
1, 396019, Note_off_c, 0, 95, 65
1, 396045, Note_on_c, 0, 97, 59
1, 396087, Note_off_c, 0, 97, 62
1, 396108, Note_on_c, 0, 95, 56
1, 396128, Note_on_c, 0, 80, 46
1, 396133, Note_on_c, 0, 92, 33
1, 396146, Note_on_c, 0, 88, 35
1, 396156, Note_off_c, 0, 95, 61
1, 396186, Note_on_c, 0, 97, 51
1, 396233, Note_off_c, 0, 97, 63
1, 396260, Note_on_c, 0, 95, 56
1, 396317, Note_off_c, 0, 95, 59
1, 396342, Note_off_c, 0, 80, 27
1, 396352, Note_on_c, 0, 97, 56
1, 396359, Note_off_c, 0, 92, 33
1, 396403, Note_off_c, 0, 97, 55
1, 396430, Note_on_c, 0, 95, 57
1, 396509, Note_off_c, 0, 95, 61
1, 396523, Note_on_c, 0, 97, 58
1, 396606, Note_off_c, 0, 97, 55
1, 396614, Note_on_c, 0, 95, 52
1, 396696, Note_off_c, 0, 95, 62
1, 396724, Note_on_c, 0, 97, 53
1, 396785, Note_off_c, 0, 97, 63
1, 396812, Note_on_c, 0, 95, 58
1, 396846, Note_off_c, 0, 95, 62
1, 396874, Note_on_c, 0, 97, 49
1, 396886, Note_off_c, 0, 88, 42
1, 396907, Note_off_c, 0, 97, 60
1, 396934, Note_on_c, 0, 94, 62
1, 396952, Note_on_c, 0, 95, 37
1, 396987, Note_off_c, 0, 94, 61
1, 396990, Note_on_c, 0, 97, 68
1, 396992, Note_off_c, 0, 95, 64
1, 397008, Note_on_c, 0, 99, 71
1, 397011, Note_on_c, 0, 91, 77
1, 397023, Note_off_c, 0, 97, 62
1, 397035, Note_off_c, 0, 91, 69
1, 397035, Note_off_c, 0, 99, 68
1, 397039, Note_on_c, 0, 87, 47
1, 397044, Note_on_c, 0, 82, 58
1, 397049, Control_c, 0, 64, 104
1, 397068, Note_off_c, 0, 82, 67
1, 397071, Note_off_c, 0, 87, 59
1, 397071, Control_c, 0, 64, 92
1, 397086, Control_c, 0, 64, 80
1, 397101, Control_c, 0, 64, 68
1, 397116, Control_c, 0, 64, 44
1, 397131, Control_c, 0, 64, 0
1, 397232, Note_on_c, 0, 80, 54
1, 397248, Note_on_c, 0, 79, 71
1, 397253, Note_off_c, 0, 80, 60
1, 397278, Note_off_c, 0, 79, 62
1, 397309, Note_on_c, 0, 77, 75
1, 397366, Note_off_c, 0, 77, 61
1, 397371, Note_on_c, 0, 58, 41
1, 397375, Note_on_c, 0, 79, 66
1, 397376, Note_on_c, 0, 67, 42
1, 397382, Note_on_c, 0, 63, 33
1, 397408, Note_off_c, 0, 58, 61
1, 397408, Note_off_c, 0, 67, 53
1, 397417, Note_off_c, 0, 63, 54
1, 397439, Note_on_c, 0, 80, 75
1, 397447, Note_off_c, 0, 79, 58
1, 397472, Control_c, 0, 64, 59
1, 397472, Control_c, 0, 67, 127
1, 397486, Control_c, 0, 64, 68
1, 397486, Control_c, 0, 67, 121
1, 397501, Control_c, 0, 64, 76
1, 397501, Control_c, 0, 67, 115
1, 397508, Note_off_c, 0, 80, 60
1, 397511, Note_on_c, 0, 82, 76
1, 397514, Note_on_c, 0, 63, 49
1, 397516, Control_c, 0, 64, 88
1, 397516, Control_c, 0, 67, 111
1, 397517, Note_on_c, 0, 58, 51
1, 397517, Note_on_c, 0, 67, 56
1, 397531, Control_c, 0, 64, 96
1, 397531, Control_c, 0, 67, 104
1, 397546, Control_c, 0, 64, 101
1, 397546, Control_c, 0, 67, 99
1, 397560, Note_off_c, 0, 63, 58
1, 397560, Control_c, 0, 64, 104
1, 397560, Control_c, 0, 67, 96
1, 397566, Note_off_c, 0, 58, 56
1, 397575, Control_c, 0, 64, 108
1, 397575, Control_c, 0, 67, 94
1, 397579, Note_off_c, 0, 82, 63
1, 397581, Note_off_c, 0, 67, 48
1, 397590, Control_c, 0, 64, 114
1, 397590, Control_c, 0, 67, 94
1, 397598, Note_on_c, 0, 79, 60
1, 397605, Control_c, 0, 64, 121
1, 397620, Control_c, 0, 64, 127
1, 397648, Note_off_c, 0, 79, 58
1, 397652, Note_on_c, 0, 80, 75
1, 397664, Control_c, 0, 67, 94
1, 397686, Note_off_c, 0, 80, 59
1, 397694, Control_c, 0, 67, 95
1, 397721, Note_on_c, 0, 77, 70
1, 397739, Control_c, 0, 67, 95
1, 397753, Control_c, 0, 67, 96
1, 397768, Control_c, 0, 67, 99
1, 397771, Note_off_c, 0, 77, 59
1, 397783, Control_c, 0, 67, 100
1, 397785, Note_on_c, 0, 75, 65
1, 397798, Control_c, 0, 67, 102
1, 397801, Note_off_c, 0, 75, 65
1, 397819, Control_c, 0, 67, 103
1, 397834, Control_c, 0, 67, 107
1, 397849, Control_c, 0, 67, 113
1, 397864, Control_c, 0, 67, 118
1, 397879, Control_c, 0, 67, 122
1, 397894, Control_c, 0, 67, 126
1, 397909, Control_c, 0, 67, 127
1, 397935, Note_on_c, 0, 99, 91
1, 397938, Note_on_c, 0, 79, 83
1, 397938, Control_c, 0, 64, 111
1, 397941, Note_on_c, 0, 91, 76
1, 397943, Note_on_c, 0, 70, 78
1, 397945, Note_on_c, 0, 94, 66
1, 397952, Note_on_c, 0, 75, 57
1, 397953, Control_c, 0, 64, 89
1, 397954, Note_off_c, 0, 99, 72
1, 397958, Note_off_c, 0, 79, 68
1, 397963, Note_off_c, 0, 91, 69
1, 397968, Control_c, 0, 64, 71
1, 397970, Note_off_c, 0, 94, 66
1, 397972, Note_off_c, 0, 75, 62
1, 397983, Control_c, 0, 64, 0
1, 397989, Note_off_c, 0, 70, 61
1, 398103, Note_on_c, 0, 75, 71
1, 398132, Note_off_c, 0, 75, 63
1, 398174, Note_on_c, 0, 77, 62
1, 398222, Note_on_c, 0, 79, 74
1, 398245, Note_on_c, 0, 58, 50
1, 398246, Note_on_c, 0, 67, 55
1, 398259, Note_on_c, 0, 63, 41
1, 398266, Note_off_c, 0, 77, 61
1, 398273, Note_off_c, 0, 58, 58
1, 398275, Note_off_c, 0, 67, 64
1, 398296, Note_off_c, 0, 79, 64
1, 398298, Note_off_c, 0, 63, 62
1, 398306, Note_on_c, 0, 80, 50
1, 398329, Note_off_c, 0, 80, 59
1, 398369, Control_c, 0, 64, 79
1, 398371, Note_on_c, 0, 58, 62
1, 398376, Note_on_c, 0, 74, 69
1, 398376, Note_on_c, 0, 82, 80
1, 398378, Note_on_c, 0, 68, 65
1, 398383, Control_c, 0, 64, 127
1, 398402, Note_off_c, 0, 74, 66
1, 398407, Note_off_c, 0, 58, 61
1, 398410, Note_off_c, 0, 68, 64
1, 398419, Note_off_c, 0, 82, 60
1, 398424, Poly_aftertouch_c, 0, 65, 127
1, 398460, Poly_aftertouch_c, 0, 65, 0
1, 398463, Note_on_c, 0, 81, 78
1, 398526, Note_on_c, 0, 82, 69
1, 398541, Note_off_c, 0, 81, 64
1, 398585, Note_on_c, 0, 84, 82
1, 398587, Note_off_c, 0, 82, 68
1, 398627, Note_off_c, 0, 84, 64
1, 398659, Note_on_c, 0, 82, 76
1, 398679, Note_off_c, 0, 82, 72
1, 398716, Control_c, 0, 64, 109
1, 398731, Control_c, 0, 64, 80
1, 398746, Control_c, 0, 64, 0
1, 398779, Note_on_c, 0, 80, 76
1, 398788, Note_on_c, 0, 77, 60
1, 398789, Note_on_c, 0, 70, 63
1, 398792, Note_on_c, 0, 74, 50
1, 398802, Note_off_c, 0, 80, 69
1, 398817, Note_off_c, 0, 77, 65
1, 398824, Note_off_c, 0, 74, 66
1, 398826, Note_off_c, 0, 70, 62
1, 398916, Note_on_c, 0, 94, 70
1, 398943, Note_off_c, 0, 94, 68
1, 398985, Note_on_c, 0, 96, 67
1, 399035, Note_on_c, 0, 98, 64
1, 399053, Note_on_c, 0, 80, 67
1, 399063, Note_on_c, 0, 77, 53
1, 399066, Note_off_c, 0, 96, 62
1, 399068, Note_on_c, 0, 70, 53
1, 399077, Note_on_c, 0, 74, 34
1, 399079, Note_off_c, 0, 80, 67
1, 399088, Note_on_c, 0, 99, 78
1, 399095, Note_off_c, 0, 98, 67
1, 399097, Note_off_c, 0, 77, 64
1, 399098, Note_off_c, 0, 70, 63
1, 399107, Note_off_c, 0, 74, 55
1, 399110, Note_off_c, 0, 99, 71
1, 399170, Note_on_c, 0, 101, 88
1, 399177, Note_on_c, 0, 80, 59
1, 399179, Note_on_c, 0, 70, 61
1, 399183, Note_on_c, 0, 77, 53
1, 399185, Note_on_c, 0, 98, 68
1, 399201, Note_on_c, 0, 74, 45
1, 399202, Note_off_c, 0, 80, 67
1, 399203, Note_off_c, 0, 98, 65
1, 399213, Note_off_c, 0, 77, 62
1, 399220, Note_off_c, 0, 70, 58
1, 399222, Note_on_c, 0, 103, 83
1, 399226, Note_off_c, 0, 74, 58
1, 399230, Note_off_c, 0, 101, 64
1, 399284, Note_off_c, 0, 103, 61
1, 399313, Note_on_c, 0, 99, 76
1, 399341, Note_off_c, 0, 99, 69
1, 399369, Note_on_c, 0, 101, 63
1, 399405, Poly_aftertouch_c, 0, 96, 0
1, 399405, Note_off_c, 0, 101, 64
1, 399444, Note_on_c, 0, 98, 40
1, 399446, Note_on_c, 0, 80, 70
1, 399447, Note_on_c, 0, 94, 62
1, 399458, Note_on_c, 0, 70, 60
1, 399459, Note_on_c, 0, 77, 51
1, 399462, Note_on_c, 0, 74, 48
1, 399471, Note_off_c, 0, 80, 68
1, 399474, Note_off_c, 0, 94, 67
1, 399489, Note_off_c, 0, 77, 64
1, 399491, Note_on_c, 0, 99, 80
1, 399491, Note_off_c, 0, 70, 64
1, 399494, Note_off_c, 0, 74, 66
1, 399500, Note_off_c, 0, 98, 41
1, 399553, Note_off_c, 0, 99, 64
1, 399559, Note_on_c, 0, 80, 59
1, 399563, Note_on_c, 0, 96, 70
1, 399566, Note_on_c, 0, 92, 64
1, 399572, Note_on_c, 0, 70, 54
1, 399578, Note_on_c, 0, 77, 48
1, 399587, Note_off_c, 0, 96, 67
1, 399589, Note_on_c, 0, 74, 36
1, 399589, Note_off_c, 0, 80, 63
1, 399593, Note_off_c, 0, 92, 67
1, 399605, Note_off_c, 0, 77, 55
1, 399611, Note_off_c, 0, 70, 59
1, 399626, Note_off_c, 0, 74, 48
1, 399635, Note_on_c, 0, 98, 75
1, 399675, Note_off_c, 0, 98, 59
1, 399701, Note_on_c, 0, 91, 67
1, 399712, Note_on_c, 0, 94, 74
1, 399733, Note_off_c, 0, 91, 66
1, 399739, Note_off_c, 0, 94, 68
1, 399770, Note_on_c, 0, 96, 77
1, 399804, Note_off_c, 0, 96, 60
1, 399834, Note_on_c, 0, 92, 67
1, 399837, Note_on_c, 0, 80, 56
1, 399837, Note_on_c, 0, 70, 56
1, 399851, Note_on_c, 0, 77, 29
1, 399875, Note_off_c, 0, 92, 64
1, 399876, Note_off_c, 0, 80, 60
1, 399878, Note_off_c, 0, 70, 62
1, 399885, Note_on_c, 0, 94, 78
1, 399885, Note_off_c, 0, 77, 51
1, 399925, Note_off_c, 0, 94, 56
1, 399949, Note_on_c, 0, 87, 74
1, 399950, Note_on_c, 0, 91, 69
1, 399980, Note_off_c, 0, 91, 67
1, 399994, Note_on_c, 0, 79, 71
1, 399996, Note_off_c, 0, 87, 62
1, 399999, Note_on_c, 0, 75, 54
1, 400001, Note_on_c, 0, 70, 56
1, 400012, Note_on_c, 0, 94, 70
1, 400041, Note_off_c, 0, 75, 59
1, 400063, Note_off_c, 0, 79, 51
1, 400075, Note_off_c, 0, 94, 62
1, 400077, Note_off_c, 0, 70, 54
1, 400078, Note_on_c, 0, 92, 72
1, 400082, Note_on_c, 0, 89, 72
1, 400111, Note_off_c, 0, 89, 66
1, 400127, Note_off_c, 0, 92, 64
1, 400128, Note_on_c, 0, 96, 66
1, 400153, Note_off_c, 0, 96, 68
1, 400192, Note_on_c, 0, 91, 70
1, 400201, Note_on_c, 0, 94, 75
1, 400204, Note_on_c, 0, 79, 68
1, 400205, Note_on_c, 0, 70, 65
1, 400210, Note_on_c, 0, 75, 60
1, 400221, Note_off_c, 0, 91, 66
1, 400236, Note_off_c, 0, 79, 64
1, 400240, Note_off_c, 0, 75, 65
1, 400243, Note_on_c, 0, 96, 74
1, 400243, Note_off_c, 0, 70, 61
1, 400269, Note_off_c, 0, 94, 65
1, 400285, Note_on_c, 0, 99, 90
1, 400302, Note_on_c, 0, 91, 86
1, 400305, Note_on_c, 0, 75, 70
1, 400308, Note_on_c, 0, 79, 69
1, 400309, Note_on_c, 0, 70, 82
1, 400309, Note_off_c, 0, 96, 65
1, 400323, Note_off_c, 0, 91, 71
1, 400324, Note_off_c, 0, 79, 68
1, 400326, Note_off_c, 0, 99, 64
1, 400329, Note_off_c, 0, 75, 67
1, 400338, Note_off_c, 0, 70, 66
1, 400457, Note_on_c, 0, 80, 70
1, 400479, Note_on_c, 0, 79, 71
1, 400481, Note_off_c, 0, 80, 68
1, 400510, Note_off_c, 0, 79, 64
1, 400524, Note_on_c, 0, 77, 72
1, 400571, Control_c, 0, 67, 125
1, 400574, Note_on_c, 0, 58, 61
1, 400576, Note_on_c, 0, 67, 56
1, 400585, Control_c, 0, 67, 120
1, 400586, Note_on_c, 0, 63, 51
1, 400586, Note_off_c, 0, 77, 62
1, 400588, Note_on_c, 0, 79, 75
1, 400600, Control_c, 0, 67, 117
1, 400603, Note_off_c, 0, 67, 59
1, 400614, Note_off_c, 0, 58, 59
1, 400615, Control_c, 0, 67, 113
1, 400618, Note_off_c, 0, 63, 64
1, 400629, Control_c, 0, 67, 109
1, 400644, Control_c, 0, 67, 104
1, 400651, Note_on_c, 0, 80, 75
1, 400656, Note_off_c, 0, 79, 59
1, 400659, Control_c, 0, 67, 97
1, 400674, Control_c, 0, 67, 90
1, 400689, Control_c, 0, 67, 84
1, 400703, Control_c, 0, 67, 78
1, 400712, Note_on_c, 0, 63, 61
1, 400717, Note_on_c, 0, 82, 80
1, 400718, Note_on_c, 0, 67, 55
1, 400718, Control_c, 0, 64, 33
1, 400718, Control_c, 0, 67, 73
1, 400719, Note_on_c, 0, 58, 60
1, 400720, Note_off_c, 0, 80, 63
1, 400733, Control_c, 0, 64, 84
1, 400733, Control_c, 0, 67, 69
1, 400748, Control_c, 0, 64, 102
1, 400748, Control_c, 0, 67, 66
1, 400759, Note_off_c, 0, 63, 56
1, 400760, Note_off_c, 0, 58, 58
1, 400762, Control_c, 0, 64, 116
1, 400762, Control_c, 0, 67, 64
1, 400767, Note_off_c, 0, 67, 56
1, 400777, Control_c, 0, 64, 117
1, 400777, Control_c, 0, 67, 64
1, 400778, Note_off_c, 0, 82, 63
1, 400791, Note_on_c, 0, 79, 81
1, 400792, Control_c, 0, 64, 127
1, 400863, Note_on_c, 0, 80, 79
1, 400863, Note_off_c, 0, 79, 64
1, 400895, Note_off_c, 0, 80, 60
1, 400915, Note_on_c, 0, 77, 69
1, 400948, Control_c, 0, 67, 64
1, 400962, Control_c, 0, 67, 66
1, 400967, Note_on_c, 0, 75, 74
1, 400968, Note_off_c, 0, 77, 64
1, 400977, Control_c, 0, 67, 69
1, 400991, Note_off_c, 0, 75, 69
1, 400992, Control_c, 0, 67, 72
1, 401007, Control_c, 0, 67, 76
1, 401022, Control_c, 0, 67, 82
1, 401036, Control_c, 0, 67, 87
1, 401051, Control_c, 0, 67, 89
1, 401066, Control_c, 0, 67, 92
1, 401081, Control_c, 0, 67, 96
1, 401096, Control_c, 0, 67, 103
1, 401102, Note_on_c, 0, 79, 76
1, 401108, Note_on_c, 0, 99, 92
1, 401109, Note_on_c, 0, 70, 78
1, 401110, Note_on_c, 0, 91, 87
1, 401110, Control_c, 0, 64, 98
1, 401110, Control_c, 0, 67, 111
1, 401113, Note_on_c, 0, 75, 60
1, 401113, Note_on_c, 0, 94, 73
1, 401125, Note_off_c, 0, 79, 67
1, 401125, Control_c, 0, 64, 76
1, 401125, Control_c, 0, 67, 121
1, 401127, Note_off_c, 0, 99, 72
1, 401130, Note_off_c, 0, 91, 72
1, 401137, Note_off_c, 0, 94, 69
1, 401138, Note_off_c, 0, 75, 66
1, 401140, Control_c, 0, 64, 0
1, 401140, Control_c, 0, 67, 127
1, 401149, Note_off_c, 0, 70, 62
1, 401259, Note_on_c, 0, 75, 77
1, 401283, Note_off_c, 0, 75, 68
1, 401317, Note_on_c, 0, 77, 68
1, 401370, Note_on_c, 0, 63, 60
1, 401370, Note_on_c, 0, 79, 75
1, 401372, Note_on_c, 0, 58, 54
1, 401372, Note_on_c, 0, 67, 56
1, 401402, Note_off_c, 0, 67, 65
1, 401406, Note_off_c, 0, 58, 66
1, 401410, Note_off_c, 0, 77, 61
1, 401414, Note_off_c, 0, 63, 59
1, 401423, Control_c, 0, 67, 126
1, 401438, Control_c, 0, 67, 122
1, 401445, Note_off_c, 0, 79, 64
1, 401446, Note_on_c, 0, 80, 66
1, 401452, Control_c, 0, 67, 117
1, 401464, Note_off_c, 0, 80, 66
1, 401467, Control_c, 0, 67, 112
1, 401482, Control_c, 0, 64, 60
1, 401482, Control_c, 0, 67, 108
1, 401497, Control_c, 0, 64, 127
1, 401497, Control_c, 0, 67, 103
1, 401501, Note_on_c, 0, 58, 71
1, 401505, Note_on_c, 0, 68, 68
1, 401512, Control_c, 0, 67, 100
1, 401515, Note_on_c, 0, 74, 77
1, 401517, Note_on_c, 0, 82, 79
1, 401519, Note_on_c, 0, 65, 33
1, 401526, Control_c, 0, 67, 98
1, 401533, Note_off_c, 0, 58, 59
1, 401534, Note_off_c, 0, 68, 66
1, 401541, Control_c, 0, 67, 97
1, 401554, Note_off_c, 0, 74, 63
1, 401559, Note_off_c, 0, 65, 53
1, 401563, Control_c, 0, 67, 96
1, 401573, Note_off_c, 0, 82, 57
1, 401578, Control_c, 0, 67, 95
1, 401593, Control_c, 0, 67, 94
1, 401606, Note_on_c, 0, 81, 85
1, 401608, Control_c, 0, 67, 94
1, 401653, Control_c, 0, 67, 94
1, 401679, Note_on_c, 0, 82, 73
1, 401682, Control_c, 0, 67, 95
1, 401697, Note_off_c, 0, 81, 61
1, 401712, Control_c, 0, 67, 95
1, 401720, Note_off_c, 0, 82, 71
1, 401728, Note_on_c, 0, 84, 81
1, 401741, Control_c, 0, 67, 96
1, 401756, Control_c, 0, 67, 98
1, 401762, Note_off_c, 0, 84, 59
1, 401771, Control_c, 0, 67, 99
1, 401785, Control_c, 0, 67, 101
1, 401793, Note_on_c, 0, 82, 80
1, 401800, Control_c, 0, 67, 103
1, 401813, Note_off_c, 0, 82, 71
1, 401815, Control_c, 0, 67, 109
1, 401830, Control_c, 0, 64, 105
1, 401830, Control_c, 0, 67, 119
1, 401845, Control_c, 0, 64, 77
1, 401845, Control_c, 0, 67, 127
1, 401859, Control_c, 0, 64, 0
1, 401917, Note_on_c, 0, 80, 79
1, 401924, Note_on_c, 0, 77, 64
1, 401929, Note_on_c, 0, 74, 54
1, 401932, Note_on_c, 0, 70, 65
1, 401940, Note_off_c, 0, 80, 69
1, 401952, Note_off_c, 0, 77, 65
1, 401962, Note_off_c, 0, 74, 65
1, 401969, Note_off_c, 0, 70, 59
1, 402050, Note_on_c, 0, 94, 73
1, 402075, Note_off_c, 0, 94, 68
1, 402111, Note_on_c, 0, 96, 67
1, 402164, Note_on_c, 0, 98, 71
1, 402183, Note_on_c, 0, 80, 64
1, 402187, Note_on_c, 0, 77, 57
1, 402193, Note_on_c, 0, 70, 56
1, 402194, Note_on_c, 0, 74, 44
1, 402196, Note_off_c, 0, 96, 63
1, 402207, Note_off_c, 0, 80, 68
1, 402219, Note_on_c, 0, 99, 82
1, 402221, Note_off_c, 0, 98, 67
1, 402222, Note_off_c, 0, 77, 63
1, 402228, Note_off_c, 0, 74, 64
1, 402229, Note_off_c, 0, 70, 64
1, 402240, Note_off_c, 0, 99, 71
1, 402289, Note_on_c, 0, 80, 65
1, 402291, Note_on_c, 0, 101, 91
1, 402305, Note_on_c, 0, 77, 57
1, 402308, Note_on_c, 0, 98, 78
1, 402313, Note_on_c, 0, 70, 61
1, 402326, Note_off_c, 0, 80, 65
1, 402330, Note_off_c, 0, 98, 71
1, 402333, Note_on_c, 0, 74, 23
1, 402340, Note_off_c, 0, 77, 63
1, 402350, Note_off_c, 0, 70, 60
1, 402359, Note_off_c, 0, 74, 50
1, 402364, Note_on_c, 0, 103, 82
1, 402372, Note_off_c, 0, 101, 63
1, 402422, Note_off_c, 0, 103, 62
1, 402438, Note_on_c, 0, 99, 84
1, 402443, Note_on_c, 0, 96, 60
1, 402462, Note_off_c, 0, 96, 63
1, 402465, Note_off_c, 0, 99, 69
1, 402498, Note_on_c, 0, 101, 59
1, 402534, Note_off_c, 0, 101, 50
1, 402551, Note_on_c, 0, 80, 67
1, 402557, Note_on_c, 0, 98, 65
1, 402560, Note_on_c, 0, 94, 68
1, 402564, Note_on_c, 0, 70, 61
1, 402566, Note_on_c, 0, 77, 53
1, 402577, Note_off_c, 0, 80, 67
1, 402586, Note_on_c, 0, 74, 25
1, 402588, Note_off_c, 0, 94, 68
1, 402598, Note_off_c, 0, 77, 65
1, 402599, Note_off_c, 0, 70, 63
1, 402612, Note_off_c, 0, 74, 51
1, 402615, Note_off_c, 0, 98, 63
1, 402619, Note_on_c, 0, 99, 76
1, 402668, Note_on_c, 0, 80, 57
1, 402672, Note_off_c, 0, 99, 61
1, 402678, Note_on_c, 0, 70, 57
1, 402680, Note_on_c, 0, 96, 69
1, 402681, Note_on_c, 0, 77, 52
1, 402681, Note_on_c, 0, 92, 68
1, 402697, Note_off_c, 0, 80, 65
1, 402707, Note_off_c, 0, 96, 68
1, 402708, Note_off_c, 0, 92, 67
1, 402709, Note_off_c, 0, 77, 60
1, 402721, Note_off_c, 0, 70, 60
1, 402749, Note_on_c, 0, 98, 75
1, 402794, Note_off_c, 0, 98, 57
1, 402821, Note_on_c, 0, 91, 58
1, 402823, Note_on_c, 0, 94, 71
1, 402840, Note_off_c, 0, 91, 63
1, 402857, Note_off_c, 0, 94, 63
1, 402884, Note_on_c, 0, 96, 76
1, 402934, Note_off_c, 0, 96, 64
1, 402937, Note_on_c, 0, 80, 53
1, 402940, Note_on_c, 0, 70, 50
1, 402946, Note_on_c, 0, 89, 60
1, 402954, Note_on_c, 0, 77, 32
1, 402961, Note_on_c, 0, 92, 55
1, 402961, Note_off_c, 0, 80, 63
1, 402975, Note_off_c, 0, 70, 63
1, 402980, Note_off_c, 0, 89, 67
1, 402986, Note_off_c, 0, 77, 52
1, 402992, Note_off_c, 0, 92, 66
1, 403006, Note_on_c, 0, 94, 77
1, 403061, Note_off_c, 0, 94, 61
1, 403070, Note_on_c, 0, 80, 54
1, 403076, Note_on_c, 0, 71, 53
1, 403081, Note_on_c, 0, 77, 39
1, 403081, Note_on_c, 0, 91, 74
1, 403082, Note_on_c, 0, 88, 63
1, 403101, Note_off_c, 0, 80, 64
1, 403104, Note_off_c, 0, 88, 66
1, 403111, Note_off_c, 0, 77, 52
1, 403115, Note_off_c, 0, 91, 65
1, 403125, Note_off_c, 0, 71, 57
1, 403137, Note_on_c, 0, 94, 76
1, 403191, Note_off_c, 0, 94, 63
1, 403212, Note_on_c, 0, 92, 66
1, 403212, Note_on_c, 0, 89, 61
1, 403231, Note_off_c, 0, 89, 65
1, 403271, Note_off_c, 0, 92, 64
1, 403277, Note_on_c, 0, 94, 70
1, 403324, Note_off_c, 0, 94, 61
1, 403325, Note_on_c, 0, 80, 55
1, 403329, Note_on_c, 0, 88, 65
1, 403334, Note_on_c, 0, 91, 73
1, 403338, Note_on_c, 0, 71, 34
1, 403340, Note_on_c, 0, 77, 38
1, 403348, Note_off_c, 0, 80, 65
1, 403357, Note_off_c, 0, 88, 69
1, 403367, Note_off_c, 0, 77, 55
1, 403368, Note_off_c, 0, 71, 48
1, 403379, Note_off_c, 0, 91, 65
1, 403388, Note_on_c, 0, 94, 78
1, 403425, Note_on_c, 0, 80, 78
1, 403429, Note_on_c, 0, 72, 89
1, 403431, Note_on_c, 0, 77, 73
1, 403446, Note_off_c, 0, 94, 60
1, 403447, Note_off_c, 0, 80, 70
1, 403451, Note_on_c, 0, 89, 77
1, 403456, Note_on_c, 0, 92, 78
1, 403456, Note_off_c, 0, 77, 66
1, 403471, Note_off_c, 0, 72, 62
1, 403474, Note_off_c, 0, 89, 71
1, 403511, Note_off_c, 0, 92, 65
1, 403528, Note_on_c, 0, 94, 58
1, 403563, Note_on_c, 0, 87, 73
1, 403563, Note_off_c, 0, 94, 66
1, 403571, Note_on_c, 0, 91, 66
1, 403591, Note_off_c, 0, 87, 66
1, 403645, Note_off_c, 0, 91, 64
1, 403659, Note_on_c, 0, 92, 62
1, 403686, Note_on_c, 0, 60, 57
1, 403688, Note_on_c, 0, 68, 60
1, 403691, Note_off_c, 0, 92, 66
1, 403692, Note_on_c, 0, 85, 71
1, 403692, Note_on_c, 0, 89, 79
1, 403712, Note_off_c, 0, 68, 65
1, 403718, Note_off_c, 0, 89, 68
1, 403719, Note_off_c, 0, 85, 67
1, 403722, Note_off_c, 0, 60, 64
1, 403766, Note_on_c, 0, 91, 73
1, 403812, Note_on_c, 0, 60, 67
1, 403812, Note_on_c, 0, 68, 69
1, 403817, Note_off_c, 0, 91, 61
1, 403841, Note_on_c, 0, 65, 40
1, 403846, Note_on_c, 0, 87, 76
1, 403849, Note_off_c, 0, 68, 62
1, 403870, Note_off_c, 0, 65, 53
1, 403890, Note_off_c, 0, 87, 63
1, 403891, Note_off_c, 0, 60, 52
1, 403907, Note_on_c, 0, 89, 73
1, 403947, Note_off_c, 0, 89, 64
1, 403960, Note_on_c, 0, 82, 66
1, 403963, Note_on_c, 0, 85, 73
1, 403987, Note_off_c, 0, 82, 69
1, 404010, Note_off_c, 0, 85, 63
1, 404025, Note_on_c, 0, 87, 80
1, 404079, Note_off_c, 0, 87, 66
1, 404087, Note_on_c, 0, 84, 76
1, 404088, Note_on_c, 0, 65, 63
1, 404088, Note_on_c, 0, 68, 72
1, 404091, Note_on_c, 0, 60, 68
1, 404095, Note_on_c, 0, 80, 68
1, 404113, Note_off_c, 0, 68, 67
1, 404126, Note_off_c, 0, 65, 64
1, 404127, Note_off_c, 0, 80, 61
1, 404127, Note_off_c, 0, 84, 65
1, 404133, Note_off_c, 0, 60, 54
1, 404157, Note_on_c, 0, 85, 68
1, 404193, Note_off_c, 0, 85, 64
1, 404195, Note_on_c, 0, 68, 69
1, 404208, Note_on_c, 0, 60, 62
1, 404213, Note_on_c, 0, 65, 55
1, 404216, Note_on_c, 0, 82, 82
1, 404220, Note_on_c, 0, 79, 70
1, 404229, Note_off_c, 0, 68, 65
1, 404241, Note_off_c, 0, 65, 63
1, 404243, Note_off_c, 0, 79, 66
1, 404245, Note_off_c, 0, 60, 60
1, 404271, Note_off_c, 0, 82, 67
1, 404290, Note_on_c, 0, 84, 61
1, 404332, Note_off_c, 0, 84, 63
1, 404341, Note_on_c, 0, 77, 61
1, 404352, Note_on_c, 0, 80, 68
1, 404370, Note_off_c, 0, 77, 60
1, 404400, Note_off_c, 0, 80, 56
1, 404415, Note_on_c, 0, 82, 65
1, 404447, Note_off_c, 0, 82, 63
1, 404472, Note_on_c, 0, 68, 57
1, 404473, Note_on_c, 0, 60, 49
1, 404479, Note_on_c, 0, 76, 47
1, 404479, Note_on_c, 0, 79, 70
1, 404480, Note_on_c, 0, 65, 51
1, 404494, Note_off_c, 0, 68, 62
1, 404500, Note_off_c, 0, 76, 57
1, 404505, Note_off_c, 0, 60, 54
1, 404514, Note_off_c, 0, 65, 66
1, 404517, Note_off_c, 0, 79, 64
1, 404538, Note_on_c, 0, 82, 68
1, 404580, Note_off_c, 0, 82, 61
1, 404592, Note_on_c, 0, 68, 61
1, 404599, Note_on_c, 0, 61, 60
1, 404599, Note_on_c, 0, 77, 63
1, 404614, Note_on_c, 0, 65, 47
1, 404615, Note_on_c, 0, 80, 63
1, 404628, Note_off_c, 0, 77, 65
1, 404631, Note_off_c, 0, 68, 60
1, 404639, Note_off_c, 0, 61, 59
1, 404641, Note_off_c, 0, 65, 59
1, 404673, Note_off_c, 0, 80, 66
1, 404677, Note_on_c, 0, 82, 64
1, 404708, Note_off_c, 0, 82, 65
1, 404729, Note_on_c, 0, 76, 62
1, 404736, Note_on_c, 0, 79, 68
1, 404750, Note_off_c, 0, 76, 65
1, 404771, Note_off_c, 0, 79, 62
1, 404784, Note_on_c, 0, 82, 68
1, 404833, Note_off_c, 0, 82, 64
1, 404845, Note_on_c, 0, 68, 68
1, 404845, Note_on_c, 0, 80, 67
1, 404851, Note_on_c, 0, 77, 54
1, 404852, Note_on_c, 0, 61, 46
1, 404871, Note_off_c, 0, 77, 59
1, 404880, Note_off_c, 0, 68, 65
1, 404881, Note_off_c, 0, 61, 62
1, 404900, Note_on_c, 0, 82, 66
1, 404906, Note_off_c, 0, 80, 66
1, 404923, Note_off_c, 0, 82, 69
1, 404959, Note_on_c, 0, 83, 92
1, 404964, Note_on_c, 0, 80, 80
1, 404966, Note_on_c, 0, 71, 80
1, 404969, Note_on_c, 0, 62, 72
1, 404973, Note_on_c, 0, 68, 75
1, 404996, Note_off_c, 0, 71, 65
1, 404997, Note_off_c, 0, 80, 65
1, 405002, Note_off_c, 0, 68, 63
1, 405010, Note_off_c, 0, 62, 56
1, 405012, Note_off_c, 0, 83, 68
1, 405020, Note_on_c, 0, 85, 79
1, 405071, Note_off_c, 0, 85, 65
1, 405091, Note_on_c, 0, 79, 48
1, 405092, Note_on_c, 0, 82, 58
1, 405113, Note_off_c, 0, 79, 57
1, 405136, Note_off_c, 0, 82, 62
1, 405147, Note_on_c, 0, 85, 76
1, 405205, Note_off_c, 0, 85, 54
1, 405211, Note_on_c, 0, 68, 63
1, 405212, Note_on_c, 0, 71, 61
1, 405218, Note_on_c, 0, 80, 62
1, 405220, Note_on_c, 0, 62, 53
1, 405224, Note_on_c, 0, 83, 67
1, 405242, Note_off_c, 0, 71, 65
1, 405245, Note_off_c, 0, 68, 63
1, 405250, Note_off_c, 0, 80, 66
1, 405251, Note_off_c, 0, 62, 62
1, 405277, Note_off_c, 0, 83, 68
1, 405291, Note_on_c, 0, 85, 54
1, 405328, Note_off_c, 0, 85, 56
1, 405337, Note_on_c, 0, 71, 62
1, 405340, Note_on_c, 0, 68, 65
1, 405340, Note_on_c, 0, 82, 65
1, 405343, Note_on_c, 0, 79, 66
1, 405351, Note_on_c, 0, 63, 56
1, 405367, Note_off_c, 0, 79, 66
1, 405370, Note_off_c, 0, 71, 65
1, 405374, Note_off_c, 0, 68, 62
1, 405385, Note_off_c, 0, 63, 64
1, 405394, Note_off_c, 0, 82, 66
1, 405397, Note_on_c, 0, 85, 73
1, 405455, Note_off_c, 0, 85, 62
1, 405474, Note_on_c, 0, 80, 56
1, 405474, Note_on_c, 0, 83, 62
1, 405499, Note_off_c, 0, 80, 57
1, 405532, Note_off_c, 0, 83, 68
1, 405549, Note_on_c, 0, 85, 50
1, 405575, Note_off_c, 0, 85, 56
1, 405587, Note_on_c, 0, 80, 63
1, 405593, Note_on_c, 0, 83, 62
1, 405600, Note_on_c, 0, 68, 57
1, 405600, Note_on_c, 0, 71, 64
1, 405621, Note_off_c, 0, 80, 66
1, 405632, Note_off_c, 0, 71, 65
1, 405634, Note_off_c, 0, 68, 66
1, 405643, Note_on_c, 0, 85, 68
1, 405646, Note_off_c, 0, 83, 68
1, 405666, Note_off_c, 0, 85, 68
1, 405692, Control_c, 0, 67, 119
1, 405707, Control_c, 0, 67, 99
1, 405708, Note_on_c, 0, 83, 81
1, 405710, Note_on_c, 0, 86, 82
1, 405713, Note_on_c, 0, 71, 78
1, 405716, Note_on_c, 0, 65, 78
1, 405721, Note_on_c, 0, 74, 68
1, 405722, Control_c, 0, 67, 79
1, 405737, Control_c, 0, 67, 59
1, 405741, Note_off_c, 0, 71, 64
1, 405742, Note_off_c, 0, 83, 68
1, 405745, Note_off_c, 0, 74, 68
1, 405746, Note_off_c, 0, 65, 65
1, 405751, Control_c, 0, 67, 41
1, 405767, Control_c, 0, 67, 30
1, 405778, Note_off_c, 0, 86, 65
1, 405782, Control_c, 0, 67, 24
1, 405784, Note_on_c, 0, 88, 69
1, 405797, Control_c, 0, 67, 22
1, 405812, Control_c, 0, 67, 21
1, 405836, Note_off_c, 0, 88, 65
1, 405841, Note_on_c, 0, 82, 65
1, 405841, Control_c, 0, 67, 20
1, 405846, Note_on_c, 0, 85, 69
1, 405870, Note_off_c, 0, 82, 66
1, 405888, Note_off_c, 0, 85, 53
1, 405904, Note_on_c, 0, 88, 74
1, 405942, Note_off_c, 0, 88, 61
1, 405960, Control_c, 0, 67, 21
1, 405961, Note_on_c, 0, 86, 54
1, 405962, Note_on_c, 0, 83, 54
1, 405969, Note_on_c, 0, 65, 58
1, 405975, Control_c, 0, 67, 21
1, 405975, Note_on_c, 0, 71, 52
1, 405985, Note_off_c, 0, 83, 61
1, 405987, Note_on_c, 0, 74, 38
1, 406005, Control_c, 0, 67, 22
1, 406011, Note_off_c, 0, 65, 60
1, 406013, Note_off_c, 0, 71, 64
1, 406017, Note_off_c, 0, 74, 52
1, 406019, Control_c, 0, 67, 23
1, 406029, Note_off_c, 0, 86, 65
1, 406032, Note_on_c, 0, 88, 74
1, 406075, Note_off_c, 0, 88, 59
1, 406094, Note_on_c, 0, 85, 74
1, 406102, Note_on_c, 0, 82, 64
1, 406112, Note_on_c, 0, 71, 44
1, 406115, Note_on_c, 0, 74, 45
1, 406115, Control_c, 0, 67, 23
1, 406120, Note_on_c, 0, 66, 55
1, 406132, Note_off_c, 0, 82, 66
1, 406141, Note_off_c, 0, 71, 55
1, 406145, Note_off_c, 0, 74, 54
1, 406146, Control_c, 0, 67, 24
1, 406151, Note_off_c, 0, 66, 61
1, 406151, Note_off_c, 0, 85, 64
1, 406158, Note_on_c, 0, 88, 77
1, 406175, Control_c, 0, 67, 25
1, 406204, Note_off_c, 0, 88, 59
1, 406221, Note_on_c, 0, 83, 65
1, 406228, Note_on_c, 0, 86, 63
1, 406235, Control_c, 0, 67, 25
1, 406244, Note_off_c, 0, 83, 69
1, 406293, Note_off_c, 0, 86, 66
1, 406300, Note_on_c, 0, 88, 64
1, 406323, Note_off_c, 0, 88, 56
1, 406346, Note_on_c, 0, 83, 61
1, 406352, Note_on_c, 0, 74, 58
1, 406354, Note_on_c, 0, 86, 58
1, 406359, Note_on_c, 0, 66, 40
1, 406376, Note_off_c, 0, 83, 67
1, 406388, Note_off_c, 0, 74, 66
1, 406389, Note_off_c, 0, 66, 52
1, 406418, Note_off_c, 0, 86, 66
1, 406428, Control_c, 0, 67, 26
1, 406457, Control_c, 0, 67, 26
1, 406464, Note_on_c, 0, 68, 83
1, 406465, Note_on_c, 0, 74, 74
1, 406468, Note_on_c, 0, 77, 79
1, 406470, Note_on_c, 0, 86, 82
1, 406470, Note_on_c, 0, 89, 92
1, 406472, Control_c, 0, 67, 27
1, 406487, Control_c, 0, 67, 28
1, 406488, Note_off_c, 0, 74, 70
1, 406491, Note_off_c, 0, 77, 69
1, 406498, Note_off_c, 0, 86, 66
1, 406501, Control_c, 0, 67, 28
1, 406503, Note_off_c, 0, 68, 60
1, 406515, Control_c, 0, 67, 29
1, 406543, Note_off_c, 0, 89, 66
1, 406550, Note_on_c, 0, 91, 74
1, 406583, Note_off_c, 0, 91, 66
1, 406592, Note_on_c, 0, 85, 70
1, 406594, Note_on_c, 0, 88, 59
1, 406619, Note_off_c, 0, 88, 61
1, 406623, Note_off_c, 0, 85, 65
1, 406634, Control_c, 0, 67, 30
1, 406649, Control_c, 0, 67, 31
1, 406664, Control_c, 0, 67, 34
1, 406669, Note_on_c, 0, 91, 61
1, 406678, Control_c, 0, 67, 39
1, 406693, Control_c, 0, 67, 46
1, 406699, Note_off_c, 0, 91, 66
1, 406708, Control_c, 0, 67, 54
1, 406708, Note_on_c, 0, 86, 66
1, 406720, Note_on_c, 0, 68, 55
1, 406723, Control_c, 0, 67, 63
1, 406725, Note_off_c, 0, 86, 67
1, 406730, Note_on_c, 0, 77, 50
1, 406731, Note_on_c, 0, 89, 57
1, 406735, Note_on_c, 0, 74, 41
1, 406738, Control_c, 0, 67, 71
1, 406753, Control_c, 0, 67, 77
1, 406755, Note_off_c, 0, 77, 56
1, 406756, Note_off_c, 0, 68, 63
1, 406765, Note_off_c, 0, 74, 61
1, 406767, Control_c, 0, 67, 82
1, 406782, Control_c, 0, 67, 85
1, 406786, Note_on_c, 0, 91, 68
1, 406796, Note_off_c, 0, 89, 66
1, 406804, Control_c, 0, 67, 87
1, 406819, Control_c, 0, 67, 88
1, 406824, Note_off_c, 0, 91, 64
1, 406833, Control_c, 0, 67, 88
1, 406840, Note_on_c, 0, 88, 73
1, 406845, Note_on_c, 0, 85, 64
1, 406854, Note_on_c, 0, 77, 49
1, 406863, Note_on_c, 0, 69, 55
1, 406871, Note_on_c, 0, 74, 44
1, 406874, Note_off_c, 0, 85, 66
1, 406878, Note_off_c, 0, 77, 58
1, 406885, Note_off_c, 0, 88, 52
1, 406890, Note_off_c, 0, 69, 59
1, 406896, Note_off_c, 0, 74, 58
1, 406902, Note_on_c, 0, 91, 68
1, 406945, Note_off_c, 0, 91, 63
1, 406958, Note_on_c, 0, 86, 55
1, 406971, Note_on_c, 0, 89, 64
1, 406977, Note_off_c, 0, 86, 63
1, 406983, Control_c, 0, 67, 88
1, 407033, Note_on_c, 0, 91, 68
1, 407034, Note_off_c, 0, 89, 66
1, 407042, Control_c, 0, 67, 87
1, 407057, Control_c, 0, 67, 87
1, 407072, Note_off_c, 0, 91, 63
1, 407087, Control_c, 0, 67, 86
1, 407088, Note_on_c, 0, 88, 67
1, 407107, Note_on_c, 0, 85, 47
1, 407108, Note_on_c, 0, 69, 49
1, 407116, Control_c, 0, 67, 86
1, 407130, Note_off_c, 0, 85, 59
1, 407132, Note_off_c, 0, 69, 58
1, 407134, Note_on_c, 0, 74, 31
1, 407142, Note_off_c, 0, 88, 61
1, 407157, Note_on_c, 0, 91, 69
1, 407176, Control_c, 0, 67, 85
1, 407190, Note_off_c, 0, 91, 62
1, 407205, Control_c, 0, 67, 85
1, 407214, Note_on_c, 0, 89, 71
1, 407215, Note_on_c, 0, 86, 59
1, 407218, Note_off_c, 0, 74, 0
1, 407218, Note_on_c, 0, 74, 11
1, 407220, Control_c, 0, 67, 84
1, 407228, Note_on_c, 0, 70, 77
1, 407233, Note_off_c, 0, 86, 65
1, 407237, Note_on_c, 0, 80, 69
1, 407249, Control_c, 0, 67, 84
1, 407285, Note_on_c, 0, 91, 75
1, 407287, Note_off_c, 0, 89, 65
1, 407303, Note_off_c, 0, 70, 53
1, 407307, Note_off_c, 0, 80, 0
1, 407338, Control_c, 0, 67, 84
1, 407340, Note_off_c, 0, 91, 64
1, 407343, Poly_aftertouch_c, 0, 80, 127
1, 407351, Note_on_c, 0, 88, 70
1, 407356, Note_off_c, 0, 74, 49
1, 407375, Poly_aftertouch_c, 0, 80, 0
1, 407383, Control_c, 0, 67, 85
1, 407407, Note_on_c, 0, 89, 78
1, 407412, Control_c, 0, 67, 85
1, 407426, Note_off_c, 0, 88, 61
1, 407456, Control_c, 0, 67, 86
1, 407459, Note_off_c, 0, 89, 64
1, 407473, Note_on_c, 0, 86, 72
1, 407486, Control_c, 0, 67, 86
1, 407516, Control_c, 0, 67, 87
1, 407534, Note_on_c, 0, 88, 79
1, 407543, Note_off_c, 0, 86, 63
1, 407561, Note_off_c, 0, 88, 70
1, 407604, Note_on_c, 0, 85, 89
1, 407641, Note_off_c, 0, 85, 62
1, 407661, Note_on_c, 0, 86, 67
1, 407686, Note_off_c, 0, 86, 67
1, 407728, Note_on_c, 0, 82, 79
1, 407754, Note_off_c, 0, 82, 66
1, 407761, Control_c, 0, 67, 86
1, 407776, Control_c, 0, 67, 86
1, 407778, Note_on_c, 0, 85, 76
1, 407802, Note_off_c, 0, 85, 70
1, 407835, Note_on_c, 0, 81, 94
1, 407864, Note_off_c, 0, 81, 66
1, 407865, Control_c, 0, 67, 85
1, 407889, Note_on_c, 0, 82, 75
1, 407912, Note_off_c, 0, 82, 71
1, 407952, Note_on_c, 0, 80, 82
1, 407969, Control_c, 0, 67, 84
1, 407980, Note_off_c, 0, 80, 66
1, 407999, Control_c, 0, 67, 84
1, 407999, Note_on_c, 0, 81, 87
1, 408020, Note_off_c, 0, 81, 71
1, 408028, Control_c, 0, 67, 83
1, 408043, Control_c, 0, 67, 83
1, 408062, Note_on_c, 0, 77, 82
1, 408086, Note_off_c, 0, 77, 65
1, 408116, Note_on_c, 0, 80, 76
1, 408117, Control_c, 0, 67, 82
1, 408140, Note_off_c, 0, 80, 69
1, 408175, Note_on_c, 0, 76, 81
1, 408199, Note_off_c, 0, 76, 66
1, 408227, Note_on_c, 0, 77, 79
1, 408250, Control_c, 0, 67, 82
1, 408251, Note_off_c, 0, 77, 67
1, 408264, Control_c, 0, 67, 81
1, 408311, Note_on_c, 0, 74, 63
1, 408317, Control_c, 0, 67, 81
1, 408328, Note_off_c, 0, 74, 65
1, 408332, Control_c, 0, 67, 80
1, 408351, Note_on_c, 0, 76, 75
1, 408372, Note_off_c, 0, 76, 70
1, 408376, Control_c, 0, 67, 80
1, 408391, Control_c, 0, 67, 79
1, 408420, Control_c, 0, 67, 78
1, 408426, Note_on_c, 0, 73, 76
1, 408435, Control_c, 0, 67, 77
1, 408449, Note_off_c, 0, 73, 69
1, 408450, Control_c, 0, 67, 76
1, 408465, Control_c, 0, 67, 74
1, 408471, Note_on_c, 0, 74, 72
1, 408479, Control_c, 0, 67, 71
1, 408494, Control_c, 0, 67, 68
1, 408495, Note_off_c, 0, 74, 70
1, 408509, Control_c, 0, 67, 65
1, 408525, Control_c, 0, 67, 62
1, 408540, Control_c, 0, 67, 58
1, 408542, Note_on_c, 0, 70, 77
1, 408555, Control_c, 0, 67, 52
1, 408569, Control_c, 0, 67, 44
1, 408570, Note_off_c, 0, 70, 65
1, 408584, Control_c, 0, 67, 34
1, 408593, Note_on_c, 0, 73, 79
1, 408599, Control_c, 0, 67, 20
1, 408614, Control_c, 0, 67, 0
1, 408617, Note_off_c, 0, 73, 69
1, 408659, Note_on_c, 0, 69, 71
1, 408685, Note_off_c, 0, 69, 68
1, 408713, Note_on_c, 0, 70, 71
1, 408738, Note_off_c, 0, 70, 67
1, 408770, Note_on_c, 0, 68, 80
1, 408802, Note_off_c, 0, 68, 66
1, 408830, Note_on_c, 0, 69, 75
1, 408855, Note_off_c, 0, 69, 69
1, 408888, Note_on_c, 0, 65, 82
1, 408913, Note_off_c, 0, 65, 70
1, 408942, Note_on_c, 0, 68, 80
1, 408971, Note_off_c, 0, 68, 67
1, 409007, Note_on_c, 0, 64, 76
1, 409030, Note_off_c, 0, 64, 69
1, 409064, Note_on_c, 0, 65, 80
1, 409090, Note_off_c, 0, 65, 68
1, 409135, Note_on_c, 0, 62, 74
1, 409161, Note_off_c, 0, 62, 67
1, 409187, Note_on_c, 0, 64, 78
1, 409212, Note_off_c, 0, 64, 68
1, 409258, Note_on_c, 0, 61, 83
1, 409284, Note_off_c, 0, 61, 68
1, 409319, Note_on_c, 0, 62, 70
1, 409347, Note_off_c, 0, 62, 66
1, 409379, Note_on_c, 0, 58, 79
1, 409416, Note_off_c, 0, 58, 61
1, 409444, Note_on_c, 0, 61, 83
1, 409467, Note_off_c, 0, 61, 68
1, 409498, Note_on_c, 0, 57, 82
1, 409526, Note_off_c, 0, 57, 66
1, 409561, Note_on_c, 0, 58, 83
1, 409588, Note_off_c, 0, 58, 67
1, 409631, Note_on_c, 0, 56, 78
1, 409659, Note_off_c, 0, 56, 68
1, 409669, Note_on_c, 0, 57, 90
1, 409695, Note_off_c, 0, 57, 66
1, 409748, Note_on_c, 0, 58, 71
1, 409782, Note_off_c, 0, 58, 66
1, 409803, Note_on_c, 0, 61, 86
1, 409823, Note_off_c, 0, 61, 72
1, 409875, Note_on_c, 0, 62, 84
1, 409909, Note_off_c, 0, 62, 60
1, 409923, Note_on_c, 0, 64, 98
1, 409951, Note_off_c, 0, 64, 67
1, 409989, Note_on_c, 0, 65, 86
1, 410044, Note_on_c, 0, 64, 97
1, 410048, Note_off_c, 0, 65, 61
1, 410070, Note_off_c, 0, 64, 69
1, 410112, Note_on_c, 0, 62, 74
1, 410137, Note_off_c, 0, 62, 66
1, 410173, Note_on_c, 0, 61, 85
1, 410199, Note_off_c, 0, 61, 66
1, 410232, Note_on_c, 0, 58, 84
1, 410262, Note_off_c, 0, 58, 61
1, 410304, Note_on_c, 0, 57, 68
1, 410333, Note_off_c, 0, 57, 67
1, 410351, Note_on_c, 0, 56, 79
1, 410387, Note_off_c, 0, 56, 61
1, 410408, Note_on_c, 0, 57, 73
1, 410442, Note_off_c, 0, 57, 59
1, 410476, Note_on_c, 0, 58, 66
1, 410524, Note_off_c, 0, 58, 57
1, 410548, Note_on_c, 0, 61, 68
1, 410574, Note_off_c, 0, 61, 66
1, 410624, Note_on_c, 0, 62, 68
1, 410653, Note_off_c, 0, 62, 63
1, 410657, Note_on_c, 0, 53, 59
1, 410694, Note_off_c, 0, 53, 63
1, 410698, Note_on_c, 0, 64, 69
1, 410730, Note_off_c, 0, 64, 62
1, 410785, Note_on_c, 0, 65, 62
1, 410794, Note_on_c, 0, 50, 52
1, 410824, Note_off_c, 0, 50, 64
1, 410824, Note_off_c, 0, 65, 60
1, 410852, Note_on_c, 0, 68, 71
1, 410885, Note_off_c, 0, 68, 64
1, 410923, Note_on_c, 0, 45, 72
1, 410929, Note_on_c, 0, 69, 82
1, 410933, Note_on_c, 0, 57, 78
1, 410950, Note_off_c, 0, 45, 65
1, 410952, Note_off_c, 0, 69, 71
1, 410958, Note_off_c, 0, 57, 69
1, 411111, Note_on_c, 0, 49, 58
1, 411117, Note_on_c, 0, 37, 32
1, 411152, Note_off_c, 0, 37, 49
1, 411159, Note_off_c, 0, 49, 61
1, 411176, Note_on_c, 0, 34, 43
1, 411179, Note_on_c, 0, 46, 64
1, 411218, Note_off_c, 0, 34, 61
1, 411249, Note_on_c, 0, 37, 44
1, 411254, Note_on_c, 0, 49, 63
1, 411262, Note_off_c, 0, 46, 62
1, 411291, Note_off_c, 0, 37, 60
1, 411308, Note_on_c, 0, 38, 55
1, 411314, Note_on_c, 0, 50, 64
1, 411339, Note_off_c, 0, 49, 60
1, 411350, Note_off_c, 0, 38, 63
1, 411378, Note_on_c, 0, 52, 67
1, 411380, Note_off_c, 0, 50, 63
1, 411385, Note_on_c, 0, 40, 63
1, 411418, Note_off_c, 0, 40, 63
1, 411420, Note_off_c, 0, 52, 61
1, 411442, Note_on_c, 0, 49, 69
1, 411451, Note_on_c, 0, 37, 39
1, 411497, Note_off_c, 0, 37, 60
1, 411505, Note_off_c, 0, 49, 64
1, 411511, Note_on_c, 0, 50, 63
1, 411520, Note_on_c, 0, 38, 58
1, 411555, Note_off_c, 0, 38, 64
1, 411568, Note_off_c, 0, 50, 64
1, 411569, Note_on_c, 0, 46, 71
1, 411582, Note_on_c, 0, 34, 45
1, 411624, Note_off_c, 0, 34, 62
1, 411627, Note_off_c, 0, 46, 63
1, 411633, Note_on_c, 0, 45, 71
1, 411641, Note_on_c, 0, 33, 62
1, 411665, Note_off_c, 0, 45, 64
1, 411679, Note_off_c, 0, 33, 65
1, 411800, Note_on_c, 0, 69, 89
1, 411806, Note_on_c, 0, 57, 79
1, 411818, Note_off_c, 0, 69, 72
1, 411829, Note_on_c, 0, 45, 44
1, 411831, Note_off_c, 0, 57, 69
1, 411862, Note_off_c, 0, 45, 45
1, 411967, Note_on_c, 0, 37, 51
1, 412017, Note_off_c, 0, 37, 62
1, 412054, Note_on_c, 0, 34, 45
1, 412062, Note_on_c, 0, 47, 23
1, 412095, Note_off_c, 0, 47, 45
1, 412102, Note_off_c, 0, 34, 59
1, 412105, Note_on_c, 0, 49, 68
1, 412133, Note_off_c, 0, 49, 65
1, 412134, Note_on_c, 0, 37, 47
1, 412158, Note_on_c, 0, 50, 56
1, 412172, Note_off_c, 0, 37, 63
1, 412186, Note_on_c, 0, 38, 55
1, 412192, Note_off_c, 0, 50, 62
1, 412221, Note_off_c, 0, 38, 64
1, 412228, Note_on_c, 0, 52, 71
1, 412258, Note_off_c, 0, 52, 64
1, 412265, Note_on_c, 0, 40, 47
1, 412297, Note_on_c, 0, 51, 63
1, 412299, Note_off_c, 0, 40, 62
1, 412317, Note_on_c, 0, 39, 50
1, 412326, Note_off_c, 0, 51, 62
1, 412349, Note_on_c, 0, 52, 64
1, 412355, Note_off_c, 0, 39, 63
1, 412391, Note_on_c, 0, 40, 43
1, 412403, Note_off_c, 0, 52, 60
1, 412420, Note_on_c, 0, 53, 70
1, 412448, Note_off_c, 0, 53, 65
1, 412459, Note_off_c, 0, 40, 0
1, 412478, Note_on_c, 0, 40, 35
1, 412488, Note_on_c, 0, 52, 71
1, 412521, Note_off_c, 0, 52, 63
1, 412531, Note_off_c, 0, 40, 63
1, 412610, Control_c, 0, 64, 33
1, 412625, Control_c, 0, 64, 66
1, 412640, Control_c, 0, 64, 78
1, 412654, Note_on_c, 0, 69, 84
1, 412655, Control_c, 0, 64, 100
1, 412658, Note_on_c, 0, 57, 75
1, 412669, Note_on_c, 0, 45, 71
1, 412670, Control_c, 0, 64, 127
1, 412674, Note_off_c, 0, 69, 70
1, 412684, Note_off_c, 0, 57, 68
1, 412712, Note_off_c, 0, 45, 59
1, 412818, Note_on_c, 0, 50, 74
1, 412822, Note_on_c, 0, 38, 44
1, 412825, Control_c, 0, 64, 105
1, 412840, Control_c, 0, 64, 87
1, 412855, Control_c, 0, 64, 71
1, 412859, Note_off_c, 0, 50, 61
1, 412861, Note_off_c, 0, 38, 63
1, 412870, Control_c, 0, 64, 0
1, 412877, Note_on_c, 0, 49, 62
1, 412885, Note_on_c, 0, 37, 51
1, 412914, Note_off_c, 0, 49, 65
1, 412927, Note_off_c, 0, 37, 62
1, 412938, Note_on_c, 0, 50, 69
1, 412967, Note_on_c, 0, 38, 42
1, 412978, Note_off_c, 0, 50, 61
1, 412999, Note_off_c, 0, 38, 57
1, 413007, Note_on_c, 0, 52, 77
1, 413016, Note_on_c, 0, 40, 57
1, 413052, Note_off_c, 0, 40, 64
1, 413059, Note_off_c, 0, 52, 54
1, 413077, Note_on_c, 0, 53, 74
1, 413085, Note_on_c, 0, 41, 56
1, 413115, Note_off_c, 0, 41, 61
1, 413124, Note_off_c, 0, 53, 56
1, 413142, Note_on_c, 0, 37, 53
1, 413149, Note_on_c, 0, 49, 71
1, 413191, Note_off_c, 0, 37, 62
1, 413205, Note_off_c, 0, 49, 64
1, 413207, Note_on_c, 0, 50, 70
1, 413222, Note_on_c, 0, 38, 59
1, 413260, Note_off_c, 0, 38, 64
1, 413275, Note_off_c, 0, 50, 63
1, 413278, Note_on_c, 0, 46, 72
1, 413296, Note_on_c, 0, 34, 47
1, 413315, Control_c, 0, 64, 15
1, 413330, Control_c, 0, 64, 27
1, 413333, Note_off_c, 0, 46, 62
1, 413335, Note_on_c, 0, 45, 75
1, 413336, Note_off_c, 0, 34, 63
1, 413344, Note_on_c, 0, 33, 61
1, 413345, Control_c, 0, 64, 30
1, 413362, Note_off_c, 0, 45, 66
1, 413374, Note_off_c, 0, 33, 63
1, 413374, Control_c, 0, 64, 28
1, 413389, Control_c, 0, 64, 15
1, 413403, Control_c, 0, 64, 0
1, 413463, Control_c, 0, 64, 40
1, 413478, Control_c, 0, 64, 65
1, 413493, Control_c, 0, 64, 76
1, 413495, Note_on_c, 0, 69, 81
1, 413499, Note_on_c, 0, 57, 74
1, 413504, Note_on_c, 0, 45, 57
1, 413508, Control_c, 0, 64, 98
1, 413517, Note_off_c, 0, 69, 70
1, 413523, Control_c, 0, 64, 127
1, 413526, Note_off_c, 0, 57, 67
1, 413562, Note_off_c, 0, 45, 56
1, 413646, Note_on_c, 0, 50, 74
1, 413659, Note_on_c, 0, 38, 40
1, 413663, Control_c, 0, 64, 101
1, 413678, Control_c, 0, 64, 84
1, 413684, Note_off_c, 0, 50, 61
1, 413693, Control_c, 0, 64, 68
1, 413698, Note_off_c, 0, 38, 61
1, 413707, Control_c, 0, 64, 0
1, 413709, Note_on_c, 0, 49, 65
1, 413731, Note_on_c, 0, 37, 44
1, 413746, Note_off_c, 0, 49, 63
1, 413773, Note_off_c, 0, 37, 61
1, 413777, Note_on_c, 0, 50, 68
1, 413800, Note_on_c, 0, 38, 46
1, 413815, Note_off_c, 0, 50, 60
1, 413843, Note_off_c, 0, 38, 64
1, 413850, Note_on_c, 0, 52, 71
1, 413857, Note_on_c, 0, 40, 59
1, 413886, Note_off_c, 0, 52, 63
1, 413899, Note_off_c, 0, 40, 62
1, 413927, Note_on_c, 0, 41, 56
1, 413928, Note_on_c, 0, 53, 68
1, 413959, Note_off_c, 0, 53, 65
1, 413977, Note_off_c, 0, 41, 62
1, 413990, Note_on_c, 0, 40, 57
1, 413991, Note_on_c, 0, 52, 62
1, 414030, Note_off_c, 0, 40, 62
1, 414035, Note_off_c, 0, 52, 62
1, 414051, Note_on_c, 0, 53, 60
1, 414065, Note_on_c, 0, 41, 50
1, 414086, Note_off_c, 0, 53, 64
1, 414101, Note_off_c, 0, 41, 64
1, 414112, Note_on_c, 0, 55, 50
1, 414122, Note_on_c, 0, 43, 52
1, 414164, Note_off_c, 0, 43, 63
1, 414168, Note_on_c, 0, 53, 81
1, 414172, Note_off_c, 0, 55, 62
1, 414181, Note_on_c, 0, 41, 65
1, 414192, Note_off_c, 0, 53, 66
1, 414214, Note_off_c, 0, 41, 65
1, 414271, Control_c, 0, 64, 27
1, 414294, Control_c, 0, 64, 63
1, 414308, Control_c, 0, 64, 76
1, 414323, Control_c, 0, 64, 95
1, 414330, Note_on_c, 0, 69, 82
1, 414338, Control_c, 0, 64, 127
1, 414339, Note_on_c, 0, 45, 69
1, 414341, Note_on_c, 0, 57, 70
1, 414351, Note_off_c, 0, 69, 70
1, 414369, Note_off_c, 0, 57, 66
1, 414374, Note_off_c, 0, 45, 61
1, 414427, Control_c, 0, 64, 114
1, 414441, Control_c, 0, 64, 93
1, 414456, Control_c, 0, 64, 77
1, 414471, Control_c, 0, 64, 62
1, 414474, Note_on_c, 0, 51, 67
1, 414482, Note_on_c, 0, 39, 52
1, 414486, Control_c, 0, 64, 0
1, 414505, Note_off_c, 0, 51, 68
1, 414515, Note_off_c, 0, 39, 64
1, 414526, Note_on_c, 0, 52, 72
1, 414529, Note_on_c, 0, 40, 58
1, 414560, Note_off_c, 0, 52, 64
1, 414568, Note_off_c, 0, 40, 62
1, 414569, Note_on_c, 0, 53, 72
1, 414590, Note_on_c, 0, 41, 44
1, 414613, Note_on_c, 0, 54, 80
1, 414617, Note_off_c, 0, 53, 63
1, 414623, Note_on_c, 0, 42, 68
1, 414632, Note_off_c, 0, 41, 51
1, 414635, Note_off_c, 0, 54, 68
1, 414650, Note_off_c, 0, 42, 65
1, 414723, Control_c, 0, 64, 66
1, 414738, Control_c, 0, 64, 82
1, 414751, Note_on_c, 0, 69, 87
1, 414751, Control_c, 0, 64, 127
1, 414752, Note_on_c, 0, 57, 86
1, 414764, Note_on_c, 0, 45, 68
1, 414773, Note_off_c, 0, 69, 68
1, 414788, Note_off_c, 0, 57, 62
1, 414798, Note_off_c, 0, 45, 62
1, 414855, Control_c, 0, 64, 116
1, 414870, Control_c, 0, 64, 94
1, 414884, Control_c, 0, 64, 78
1, 414900, Control_c, 0, 64, 58
1, 414908, Note_on_c, 0, 50, 55
1, 414915, Control_c, 0, 64, 0
1, 414921, Note_on_c, 0, 38, 27
1, 414933, Note_off_c, 0, 50, 57
1, 414945, Note_on_c, 0, 51, 72
1, 414948, Note_on_c, 0, 39, 58
1, 414952, Note_off_c, 0, 38, 45
1, 414974, Note_off_c, 0, 51, 68
1, 414981, Note_off_c, 0, 39, 63
1, 414993, Note_on_c, 0, 52, 77
1, 414994, Note_on_c, 0, 40, 61
1, 415021, Note_off_c, 0, 52, 69
1, 415036, Note_on_c, 0, 53, 80
1, 415046, Note_off_c, 0, 40, 62
1, 415050, Note_on_c, 0, 41, 72
1, 415062, Note_off_c, 0, 53, 68
1, 415086, Note_off_c, 0, 41, 64
1, 415144, Control_c, 0, 64, 38
1, 415159, Control_c, 0, 64, 70
1, 415174, Control_c, 0, 64, 89
1, 415183, Note_on_c, 0, 69, 82
1, 415185, Note_on_c, 0, 57, 85
1, 415189, Control_c, 0, 64, 127
1, 415189, Note_on_c, 0, 45, 72
1, 415203, Note_off_c, 0, 69, 70
1, 415210, Note_off_c, 0, 57, 68
1, 415224, Note_off_c, 0, 45, 64
1, 415307, Control_c, 0, 64, 107
1, 415322, Control_c, 0, 64, 88
1, 415325, Note_on_c, 0, 49, 71
1, 415336, Note_on_c, 0, 37, 51
1, 415337, Control_c, 0, 64, 72
1, 415352, Control_c, 0, 64, 40
1, 415361, Note_off_c, 0, 49, 64
1, 415367, Control_c, 0, 64, 0
1, 415372, Note_off_c, 0, 37, 64
1, 415391, Note_on_c, 0, 50, 63
1, 415418, Note_off_c, 0, 50, 63
1, 415423, Note_on_c, 0, 51, 74
1, 415431, Note_on_c, 0, 39, 60
1, 415450, Note_off_c, 0, 51, 67
1, 415464, Note_on_c, 0, 52, 79
1, 415466, Note_off_c, 0, 39, 64
1, 415472, Poly_aftertouch_c, 0, 38, 0
1, 415478, Note_on_c, 0, 40, 68
1, 415490, Note_off_c, 0, 52, 66
1, 415513, Note_off_c, 0, 40, 63
1, 415575, Control_c, 0, 64, 60
1, 415589, Control_c, 0, 64, 72
1, 415604, Control_c, 0, 64, 93
1, 415611, Note_on_c, 0, 57, 90
1, 415613, Note_on_c, 0, 69, 86
1, 415619, Control_c, 0, 64, 127
1, 415621, Note_on_c, 0, 45, 72
1, 415633, Note_off_c, 0, 69, 71
1, 415641, Note_off_c, 0, 57, 64
1, 415653, Note_off_c, 0, 45, 62
1, 415724, Control_c, 0, 64, 110
1, 415738, Control_c, 0, 64, 91
1, 415753, Control_c, 0, 64, 76
1, 415768, Control_c, 0, 64, 60
1, 415780, Note_on_c, 0, 36, 39
1, 415783, Note_on_c, 0, 48, 49
1, 415791, Control_c, 0, 64, 0
1, 415811, Note_off_c, 0, 48, 54
1, 415812, Note_off_c, 0, 36, 54
1, 415812, Note_on_c, 0, 49, 61
1, 415817, Note_on_c, 0, 37, 62
1, 415848, Note_off_c, 0, 49, 65
1, 415856, Note_off_c, 0, 37, 65
1, 415862, Note_on_c, 0, 50, 76
1, 415880, Note_on_c, 0, 38, 54
1, 415910, Note_off_c, 0, 50, 60
1, 415913, Note_on_c, 0, 51, 80
1, 415913, Note_off_c, 0, 38, 65
1, 415921, Note_on_c, 0, 39, 72
1, 415934, Note_off_c, 0, 51, 69
1, 415954, Note_off_c, 0, 39, 65
1, 416012, Control_c, 0, 64, 64
1, 416027, Control_c, 0, 64, 83
1, 416042, Control_c, 0, 64, 127
1, 416055, Note_on_c, 0, 45, 73
1, 416059, Note_on_c, 0, 69, 86
1, 416065, Note_on_c, 0, 57, 78
1, 416078, Note_off_c, 0, 69, 71
1, 416084, Note_off_c, 0, 45, 64
1, 416090, Note_off_c, 0, 57, 68
1, 416191, Control_c, 0, 64, 104
1, 416205, Control_c, 0, 64, 81
1, 416210, Note_on_c, 0, 47, 75
1, 416217, Note_on_c, 0, 35, 55
1, 416220, Control_c, 0, 64, 64
1, 416235, Control_c, 0, 64, 0
1, 416247, Note_off_c, 0, 35, 57
1, 416258, Note_off_c, 0, 47, 61
1, 416271, Note_on_c, 0, 48, 62
1, 416274, Note_on_c, 0, 36, 60
1, 416310, Note_off_c, 0, 36, 62
1, 416331, Note_on_c, 0, 49, 77
1, 416336, Note_off_c, 0, 48, 58
1, 416349, Note_on_c, 0, 37, 55
1, 416367, Note_off_c, 0, 49, 63
1, 416386, Note_off_c, 0, 37, 64
1, 416395, Note_on_c, 0, 50, 77
1, 416411, Note_on_c, 0, 38, 65
1, 416431, Note_off_c, 0, 50, 60
1, 416452, Note_off_c, 0, 38, 64
1, 416460, Note_on_c, 0, 51, 78
1, 416480, Note_on_c, 0, 39, 60
1, 416498, Note_off_c, 0, 51, 63
1, 416519, Note_off_c, 0, 39, 64
1, 416547, Note_on_c, 0, 52, 67
1, 416556, Note_on_c, 0, 40, 55
1, 416578, Note_off_c, 0, 52, 65
1, 416590, Note_off_c, 0, 40, 64
1, 416598, Note_on_c, 0, 53, 74
1, 416609, Note_on_c, 0, 41, 56
1, 416629, Note_off_c, 0, 53, 64
1, 416650, Note_off_c, 0, 41, 63
1, 416659, Note_on_c, 0, 52, 68
1, 416683, Note_on_c, 0, 40, 54
1, 416687, Note_off_c, 0, 52, 65
1, 416715, Note_off_c, 0, 40, 63
1, 416718, Note_on_c, 0, 51, 75
1, 416722, Note_on_c, 0, 39, 62
1, 416748, Note_off_c, 0, 51, 67
1, 416769, Note_on_c, 0, 50, 72
1, 416778, Note_off_c, 0, 39, 62
1, 416796, Note_on_c, 0, 38, 63
1, 416800, Note_off_c, 0, 50, 65
1, 416822, Control_c, 0, 64, 51
1, 416836, Control_c, 0, 64, 69
1, 416851, Control_c, 0, 64, 84
1, 416861, Note_off_c, 0, 38, 57
1, 416864, Note_on_c, 0, 69, 94
1, 416866, Control_c, 0, 64, 127
1, 416868, Note_on_c, 0, 57, 85
1, 416882, Note_off_c, 0, 69, 71
1, 416886, Note_on_c, 0, 59, 48
1, 416891, Note_off_c, 0, 57, 68
1, 416909, Note_off_c, 0, 59, 59
1, 416942, Poly_aftertouch_c, 0, 45, 0
1, 416972, Poly_aftertouch_c, 0, 45, 0
1, 417018, Note_on_c, 0, 46, 74
1, 417019, Note_on_c, 0, 34, 61
1, 417043, Control_c, 0, 64, 120
1, 417049, Note_off_c, 0, 46, 67
1, 417054, Note_off_c, 0, 34, 63
1, 417058, Control_c, 0, 64, 98
1, 417072, Control_c, 0, 64, 84
1, 417085, Note_on_c, 0, 47, 71
1, 417087, Control_c, 0, 64, 71
1, 417102, Control_c, 0, 64, 0
1, 417103, Note_on_c, 0, 35, 39
1, 417117, Note_off_c, 0, 47, 66
1, 417136, Note_on_c, 0, 36, 13
1, 417144, Note_off_c, 0, 35, 52
1, 417145, Note_on_c, 0, 48, 58
1, 417198, Note_off_c, 0, 36, 62
1, 417201, Note_on_c, 0, 49, 73
1, 417206, Note_off_c, 0, 48, 62
1, 417211, Note_on_c, 0, 37, 67
1, 417242, Note_off_c, 0, 49, 62
1, 417246, Note_off_c, 0, 37, 65
1, 417261, Note_on_c, 0, 50, 77
1, 417293, Note_on_c, 0, 38, 59
1, 417299, Note_off_c, 0, 50, 66
1, 417338, Note_off_c, 0, 38, 63
1, 417343, Note_on_c, 0, 51, 71
1, 417360, Note_on_c, 0, 39, 59
1, 417372, Note_off_c, 0, 51, 67
1, 417398, Note_off_c, 0, 39, 63
1, 417408, Note_on_c, 0, 52, 70
1, 417429, Note_on_c, 0, 40, 63
1, 417439, Note_off_c, 0, 52, 64
1, 417466, Note_on_c, 0, 53, 67
1, 417473, Note_off_c, 0, 40, 62
1, 417490, Note_on_c, 0, 41, 51
1, 417511, Note_off_c, 0, 53, 58
1, 417513, Note_on_c, 0, 54, 69
1, 417520, Note_off_c, 0, 41, 58
1, 417536, Note_on_c, 0, 42, 58
1, 417540, Note_off_c, 0, 54, 64
1, 417565, Note_off_c, 0, 42, 64
1, 417568, Note_on_c, 0, 55, 71
1, 417604, Note_on_c, 0, 43, 60
1, 417607, Note_off_c, 0, 55, 60
1, 417627, Note_on_c, 0, 56, 77
1, 417639, Note_off_c, 0, 43, 63
1, 417651, Note_on_c, 0, 44, 55
1, 417651, Note_off_c, 0, 56, 69
1, 417680, Note_off_c, 0, 44, 61
1, 417688, Control_c, 0, 64, 20
1, 417702, Control_c, 0, 64, 65
1, 417717, Control_c, 0, 64, 78
1, 417732, Control_c, 0, 64, 101
1, 417741, Note_on_c, 0, 69, 97
1, 417747, Note_on_c, 0, 57, 88
1, 417747, Control_c, 0, 64, 127
1, 417755, Note_on_c, 0, 45, 74
1, 417758, Note_on_c, 0, 33, 64
1, 417773, Note_off_c, 0, 57, 64
1, 417779, Note_off_c, 0, 69, 65
1, 417784, Note_off_c, 0, 45, 64
1, 417788, Note_off_c, 0, 33, 63
1, 417913, Note_on_c, 0, 61, 69
1, 417920, Note_on_c, 0, 49, 62
1, 417925, Control_c, 0, 64, 106
1, 417940, Control_c, 0, 64, 91
1, 417955, Control_c, 0, 64, 78
1, 417964, Note_off_c, 0, 49, 63
1, 417969, Control_c, 0, 64, 65
1, 417980, Note_off_c, 0, 61, 62
1, 417984, Control_c, 0, 64, 0
1, 417990, Note_on_c, 0, 58, 69
1, 417991, Note_on_c, 0, 46, 49
1, 418048, Note_off_c, 0, 46, 63
1, 418060, Note_on_c, 0, 49, 56
1, 418071, Note_on_c, 0, 61, 74
1, 418083, Note_off_c, 0, 58, 61
1, 418106, Note_off_c, 0, 49, 63
1, 418118, Note_on_c, 0, 50, 68
1, 418146, Note_on_c, 0, 62, 67
1, 418160, Note_off_c, 0, 61, 63
1, 418164, Note_off_c, 0, 50, 63
1, 418196, Note_on_c, 0, 52, 67
1, 418200, Note_on_c, 0, 64, 69
1, 418200, Note_off_c, 0, 62, 63
1, 418234, Note_off_c, 0, 52, 61
1, 418244, Note_off_c, 0, 64, 60
1, 418255, Note_on_c, 0, 61, 80
1, 418268, Note_on_c, 0, 49, 61
1, 418320, Note_off_c, 0, 49, 60
1, 418337, Note_on_c, 0, 62, 64
1, 418347, Note_on_c, 0, 50, 59
1, 418387, Note_off_c, 0, 50, 64
1, 418394, Note_on_c, 0, 58, 64
1, 418396, Note_off_c, 0, 62, 62
1, 418397, Note_off_c, 0, 61, 52
1, 418414, Note_on_c, 0, 46, 50
1, 418445, Note_off_c, 0, 58, 64
1, 418449, Note_on_c, 0, 57, 75
1, 418453, Note_off_c, 0, 46, 65
1, 418457, Note_on_c, 0, 45, 67
1, 418475, Note_off_c, 0, 57, 67
1, 418488, Note_off_c, 0, 45, 64
1, 418555, Control_c, 0, 64, 58
1, 418570, Control_c, 0, 64, 73
1, 418585, Control_c, 0, 64, 96
1, 418592, Note_on_c, 0, 81, 102
1, 418596, Note_on_c, 0, 45, 76
1, 418596, Note_on_c, 0, 69, 91
1, 418599, Control_c, 0, 64, 127
1, 418602, Note_on_c, 0, 33, 72
1, 418608, Note_off_c, 0, 81, 76
1, 418618, Note_off_c, 0, 69, 69
1, 418629, Note_off_c, 0, 33, 62
1, 418633, Note_off_c, 0, 45, 63
1, 418763, Control_c, 0, 64, 111
1, 418764, Note_on_c, 0, 61, 64
1, 418784, Note_on_c, 0, 49, 43
1, 418785, Control_c, 0, 64, 95
1, 418800, Control_c, 0, 64, 80
1, 418804, Note_off_c, 0, 61, 65
1, 418814, Control_c, 0, 64, 68
1, 418815, Note_off_c, 0, 49, 55
1, 418817, Note_on_c, 0, 58, 67
1, 418829, Control_c, 0, 64, 0
1, 418846, Note_on_c, 0, 46, 54
1, 418885, Note_off_c, 0, 58, 55
1, 418892, Note_on_c, 0, 61, 70
1, 418901, Note_on_c, 0, 49, 61
1, 418908, Note_off_c, 0, 46, 58
1, 418936, Note_off_c, 0, 61, 62
1, 418958, Note_on_c, 0, 62, 74
1, 418962, Note_off_c, 0, 49, 61
1, 418963, Note_on_c, 0, 50, 67
1, 418997, Note_off_c, 0, 62, 59
1, 419000, Note_off_c, 0, 50, 66
1, 419032, Note_on_c, 0, 64, 74
1, 419037, Note_on_c, 0, 52, 64
1, 419066, Note_off_c, 0, 64, 61
1, 419097, Note_on_c, 0, 63, 71
1, 419097, Note_off_c, 0, 52, 61
1, 419113, Note_on_c, 0, 51, 46
1, 419148, Note_off_c, 0, 51, 62
1, 419153, Note_off_c, 0, 63, 61
1, 419156, Note_on_c, 0, 64, 77
1, 419162, Note_on_c, 0, 52, 51
1, 419204, Note_off_c, 0, 64, 60
1, 419206, Note_off_c, 0, 52, 64
1, 419222, Note_on_c, 0, 65, 77
1, 419234, Note_on_c, 0, 53, 57
1, 419249, Note_off_c, 0, 65, 68
1, 419280, Note_off_c, 0, 53, 61
1, 419291, Note_on_c, 0, 64, 79
1, 419296, Note_on_c, 0, 52, 56
1, 419314, Note_off_c, 0, 64, 71
1, 419322, Note_off_c, 0, 52, 55
1, 419349, Control_c, 0, 64, 22
1, 419364, Control_c, 0, 64, 56
1, 419379, Control_c, 0, 64, 66
1, 419394, Control_c, 0, 64, 75
1, 419408, Control_c, 0, 64, 86
1, 419423, Control_c, 0, 64, 99
1, 419438, Control_c, 0, 64, 109
1, 419440, Note_on_c, 0, 33, 57
1, 419444, Note_on_c, 0, 69, 83
1, 419448, Note_on_c, 0, 57, 72
1, 419452, Note_on_c, 0, 45, 53
1, 419453, Control_c, 0, 64, 127
1, 419469, Note_off_c, 0, 33, 55
1, 419475, Note_off_c, 0, 57, 67
1, 419476, Note_off_c, 0, 69, 60
1, 419481, Note_off_c, 0, 45, 53
1, 419599, Note_on_c, 0, 62, 66
1, 419632, Note_on_c, 0, 50, 46
1, 419638, Control_c, 0, 64, 116
1, 419653, Control_c, 0, 64, 97
1, 419654, Note_off_c, 0, 62, 51
1, 419660, Note_off_c, 0, 50, 56
1, 419668, Control_c, 0, 64, 84
1, 419669, Note_on_c, 0, 61, 72
1, 419675, Note_on_c, 0, 49, 57
1, 419682, Control_c, 0, 64, 70
1, 419698, Control_c, 0, 64, 0
1, 419711, Note_off_c, 0, 61, 62
1, 419738, Note_on_c, 0, 50, 57
1, 419743, Note_on_c, 0, 62, 72
1, 419759, Note_off_c, 0, 49, 53
1, 419780, Note_off_c, 0, 62, 55
1, 419784, Note_off_c, 0, 50, 62
1, 419794, Note_on_c, 0, 64, 81
1, 419797, Note_on_c, 0, 52, 65
1, 419840, Note_off_c, 0, 52, 62
1, 419849, Note_off_c, 0, 64, 48
1, 419872, Note_on_c, 0, 53, 63
1, 419872, Note_on_c, 0, 65, 81
1, 419905, Note_off_c, 0, 53, 64
1, 419926, Note_off_c, 0, 65, 59
1, 419930, Note_on_c, 0, 49, 60
1, 419943, Note_on_c, 0, 61, 75
1, 419974, Note_off_c, 0, 49, 63
1, 420003, Note_on_c, 0, 62, 72
1, 420006, Note_off_c, 0, 61, 63
1, 420009, Note_on_c, 0, 50, 65
1, 420057, Note_off_c, 0, 50, 61
1, 420061, Note_on_c, 0, 58, 82
1, 420066, Note_off_c, 0, 62, 63
1, 420087, Note_on_c, 0, 46, 49
1, 420127, Note_on_c, 0, 57, 84
1, 420128, Note_on_c, 0, 45, 72
1, 420128, Note_off_c, 0, 58, 64
1, 420134, Note_off_c, 0, 46, 65
1, 420155, Note_off_c, 0, 45, 65
1, 420156, Note_off_c, 0, 57, 66
1, 420231, Control_c, 0, 64, 49
1, 420246, Control_c, 0, 64, 75
1, 420258, Note_on_c, 0, 45, 87
1, 420261, Control_c, 0, 64, 127
1, 420262, Note_on_c, 0, 33, 85
1, 420273, Note_on_c, 0, 69, 100
1, 420274, Note_on_c, 0, 81, 108
1, 420292, Note_off_c, 0, 33, 67
1, 420293, Note_off_c, 0, 81, 70
1, 420307, Note_off_c, 0, 69, 64
1, 420313, Note_off_c, 0, 45, 63
1, 420417, Control_c, 0, 64, 121
1, 420420, Note_on_c, 0, 62, 73
1, 420423, Note_on_c, 0, 50, 75
1, 420431, Control_c, 0, 64, 97
1, 420446, Control_c, 0, 64, 82
1, 420461, Control_c, 0, 64, 69
1, 420467, Note_off_c, 0, 62, 56
1, 420476, Control_c, 0, 64, 0
1, 420477, Note_off_c, 0, 50, 61
1, 420480, Note_on_c, 0, 61, 76
1, 420492, Note_on_c, 0, 49, 54
1, 420523, Note_off_c, 0, 61, 61
1, 420547, Note_on_c, 0, 62, 70
1, 420554, Note_on_c, 0, 50, 63
1, 420564, Note_off_c, 0, 49, 52
1, 420597, Note_off_c, 0, 62, 50
1, 420620, Note_off_c, 0, 50, 63
1, 420622, Note_on_c, 0, 64, 75
1, 420623, Note_on_c, 0, 52, 70
1, 420658, Note_off_c, 0, 64, 61
1, 420688, Note_off_c, 0, 52, 62
1, 420693, Note_on_c, 0, 65, 78
1, 420704, Note_on_c, 0, 53, 61
1, 420734, Note_off_c, 0, 65, 61
1, 420757, Note_on_c, 0, 64, 73
1, 420760, Note_off_c, 0, 53, 60
1, 420763, Note_on_c, 0, 52, 59
1, 420802, Note_off_c, 0, 64, 55
1, 420816, Note_off_c, 0, 52, 61
1, 420819, Note_on_c, 0, 65, 74
1, 420837, Note_on_c, 0, 53, 49
1, 420871, Note_off_c, 0, 65, 64
1, 420876, Note_off_c, 0, 53, 64
1, 420888, Note_on_c, 0, 67, 74
1, 420892, Note_on_c, 0, 55, 61
1, 420937, Note_off_c, 0, 55, 63
1, 420952, Note_off_c, 0, 67, 63
1, 420954, Note_on_c, 0, 53, 60
1, 420961, Note_on_c, 0, 65, 72
1, 420975, Note_off_c, 0, 53, 57
1, 420981, Note_off_c, 0, 65, 65
1, 421009, Control_c, 0, 64, 49
1, 421031, Control_c, 0, 64, 65
1, 421046, Control_c, 0, 64, 73
1, 421061, Control_c, 0, 64, 87
1, 421076, Control_c, 0, 64, 106
1, 421091, Control_c, 0, 64, 127
1, 421112, Note_on_c, 0, 45, 67
1, 421112, Note_on_c, 0, 69, 85
1, 421114, Note_on_c, 0, 33, 55
1, 421121, Note_on_c, 0, 57, 65
1, 421142, Note_off_c, 0, 45, 64
1, 421145, Note_off_c, 0, 33, 54
1, 421148, Note_off_c, 0, 57, 63
1, 421154, Note_off_c, 0, 69, 59
1, 421253, Control_c, 0, 64, 101
1, 421268, Control_c, 0, 64, 86
1, 421269, Note_on_c, 0, 63, 69
1, 421281, Note_on_c, 0, 51, 54
1, 421283, Control_c, 0, 64, 72
1, 421296, Note_off_c, 0, 63, 67
1, 421299, Control_c, 0, 64, 0
1, 421312, Note_off_c, 0, 51, 61
1, 421322, Note_on_c, 0, 64, 75
1, 421323, Note_on_c, 0, 52, 65
1, 421356, Note_off_c, 0, 64, 61
1, 421364, Note_on_c, 0, 65, 77
1, 421376, Note_off_c, 0, 52, 57
1, 421380, Note_on_c, 0, 53, 66
1, 421410, Note_on_c, 0, 66, 93
1, 421413, Note_off_c, 0, 53, 66
1, 421413, Note_off_c, 0, 65, 68
1, 421413, Note_on_c, 0, 54, 79
1, 421429, Note_off_c, 0, 66, 73
1, 421437, Note_off_c, 0, 54, 68
1, 421506, Control_c, 0, 64, 64
1, 421521, Control_c, 0, 64, 81
1, 421536, Control_c, 0, 64, 127
1, 421542, Note_on_c, 0, 81, 105
1, 421544, Note_on_c, 0, 69, 95
1, 421547, Note_on_c, 0, 45, 89
1, 421561, Note_on_c, 0, 33, 57
1, 421569, Note_off_c, 0, 81, 63
1, 421577, Note_off_c, 0, 69, 63
1, 421586, Note_off_c, 0, 45, 62
1, 421591, Note_off_c, 0, 33, 56
1, 421598, Note_on_c, 0, 35, 18
1, 421646, Note_off_c, 0, 35, 38
1, 421684, Control_c, 0, 64, 107
1, 421699, Control_c, 0, 64, 89
1, 421714, Control_c, 0, 64, 76
1, 421715, Note_on_c, 0, 50, 32
1, 421729, Control_c, 0, 64, 64
1, 421732, Note_on_c, 0, 63, 78
1, 421737, Note_on_c, 0, 51, 65
1, 421743, Control_c, 0, 64, 0
1, 421747, Note_off_c, 0, 50, 45
1, 421756, Note_off_c, 0, 63, 67
1, 421777, Note_off_c, 0, 51, 66
1, 421790, Note_on_c, 0, 52, 60
1, 421793, Note_on_c, 0, 64, 62
1, 421830, Note_off_c, 0, 64, 65
1, 421830, Note_on_c, 0, 65, 85
1, 421838, Note_on_c, 0, 53, 73
1, 421842, Note_off_c, 0, 52, 63
1, 421854, Note_off_c, 0, 65, 72
1, 421867, Note_off_c, 0, 53, 66
1, 421914, Control_c, 0, 64, 45
1, 421928, Control_c, 0, 64, 68
1, 421943, Control_c, 0, 64, 84
1, 421958, Control_c, 0, 64, 127
1, 421969, Note_on_c, 0, 33, 77
1, 421973, Note_on_c, 0, 45, 77
1, 421975, Note_on_c, 0, 69, 88
1, 421979, Note_on_c, 0, 57, 80
1, 421994, Note_off_c, 0, 33, 65
1, 422002, Note_off_c, 0, 57, 69
1, 422005, Note_off_c, 0, 69, 59
1, 422009, Note_off_c, 0, 45, 61
1, 422107, Control_c, 0, 64, 98
1, 422112, Note_on_c, 0, 61, 71
1, 422122, Control_c, 0, 64, 81
1, 422130, Note_on_c, 0, 49, 66
1, 422137, Control_c, 0, 64, 67
1, 422140, Note_off_c, 0, 61, 66
1, 422152, Control_c, 0, 64, 0
1, 422167, Note_off_c, 0, 49, 64
1, 422173, Note_on_c, 0, 62, 65
1, 422187, Note_on_c, 0, 50, 68
1, 422202, Note_off_c, 0, 62, 65
1, 422220, Note_off_c, 0, 50, 67
1, 422221, Note_on_c, 0, 63, 74
1, 422239, Note_off_c, 0, 63, 66
1, 422254, Note_on_c, 0, 51, 62
1, 422261, Note_on_c, 0, 64, 86
1, 422282, Note_off_c, 0, 51, 66
1, 422284, Note_on_c, 0, 52, 73
1, 422288, Note_off_c, 0, 64, 68
1, 422311, Note_off_c, 0, 52, 65
1, 422360, Control_c, 0, 64, 22
1, 422374, Control_c, 0, 64, 70
1, 422389, Control_c, 0, 64, 110
1, 422404, Note_on_c, 0, 69, 100
1, 422404, Note_on_c, 0, 81, 108
1, 422404, Control_c, 0, 64, 127
1, 422409, Note_on_c, 0, 45, 90
1, 422410, Note_on_c, 0, 33, 80
1, 422424, Note_off_c, 0, 81, 67
1, 422435, Note_off_c, 0, 69, 63
1, 422437, Note_off_c, 0, 33, 66
1, 422447, Note_off_c, 0, 45, 61
1, 422544, Control_c, 0, 64, 122
1, 422559, Control_c, 0, 64, 96
1, 422564, Note_on_c, 0, 48, 57
1, 422565, Note_on_c, 0, 60, 59
1, 422574, Control_c, 0, 64, 81
1, 422588, Note_off_c, 0, 60, 58
1, 422589, Control_c, 0, 64, 67
1, 422591, Note_off_c, 0, 48, 61
1, 422596, Note_on_c, 0, 61, 77
1, 422604, Control_c, 0, 64, 0
1, 422609, Note_on_c, 0, 49, 63
1, 422620, Note_off_c, 0, 61, 69
1, 422636, Note_off_c, 0, 49, 65
1, 422638, Note_on_c, 0, 50, 67
1, 422658, Note_on_c, 0, 62, 67
1, 422689, Note_off_c, 0, 62, 63
1, 422690, Note_on_c, 0, 63, 89
1, 422704, Note_on_c, 0, 51, 75
1, 422704, Note_off_c, 0, 50, 64
1, 422721, Note_off_c, 0, 63, 66
1, 422731, Note_off_c, 0, 51, 68
1, 422796, Control_c, 0, 64, 65
1, 422811, Control_c, 0, 64, 82
1, 422826, Control_c, 0, 64, 127
1, 422831, Note_on_c, 0, 45, 88
1, 422831, Note_on_c, 0, 69, 96
1, 422832, Note_on_c, 0, 57, 95
1, 422836, Note_on_c, 0, 33, 76
1, 422860, Note_off_c, 0, 33, 61
1, 422866, Note_off_c, 0, 57, 65
1, 422868, Note_off_c, 0, 69, 62
1, 422875, Note_off_c, 0, 45, 62
1, 422976, Note_on_c, 0, 59, 68
1, 422977, Note_on_c, 0, 47, 72
1, 423005, Control_c, 0, 64, 117
1, 423020, Control_c, 0, 64, 102
1, 423022, Note_off_c, 0, 59, 59
1, 423029, Note_off_c, 0, 47, 60
1, 423035, Control_c, 0, 64, 90
1, 423037, Note_on_c, 0, 60, 73
1, 423042, Note_on_c, 0, 48, 69
1, 423049, Control_c, 0, 64, 79
1, 423064, Control_c, 0, 64, 66
1, 423072, Note_off_c, 0, 60, 55
1, 423079, Control_c, 0, 64, 0
1, 423091, Note_off_c, 0, 48, 62
1, 423100, Note_on_c, 0, 61, 77
1, 423109, Note_on_c, 0, 49, 68
1, 423152, Note_off_c, 0, 61, 62
1, 423156, Note_off_c, 0, 49, 61
1, 423160, Note_on_c, 0, 62, 79
1, 423181, Note_on_c, 0, 50, 69
1, 423196, Note_off_c, 0, 62, 60
1, 423224, Note_off_c, 0, 50, 63
1, 423229, Note_on_c, 0, 63, 77
1, 423243, Note_on_c, 0, 51, 59
1, 423283, Note_off_c, 0, 63, 63
1, 423296, Note_off_c, 0, 51, 62
1, 423305, Note_on_c, 0, 64, 75
1, 423314, Note_on_c, 0, 52, 68
1, 423333, Note_off_c, 0, 64, 66
1, 423353, Note_off_c, 0, 52, 63
1, 423369, Note_on_c, 0, 65, 77
1, 423374, Note_on_c, 0, 53, 67
1, 423397, Note_off_c, 0, 65, 68
1, 423416, Note_off_c, 0, 53, 62
1, 423422, Note_on_c, 0, 64, 73
1, 423444, Note_on_c, 0, 52, 63
1, 423447, Note_off_c, 0, 64, 68
1, 423475, Note_on_c, 0, 63, 83
1, 423476, Note_off_c, 0, 52, 64
1, 423488, Note_on_c, 0, 51, 70
1, 423521, Note_off_c, 0, 51, 64
1, 423524, Note_off_c, 0, 63, 63
1, 423537, Note_on_c, 0, 62, 78
1, 423551, Note_on_c, 0, 50, 67
1, 423560, Note_off_c, 0, 62, 67
1, 423574, Control_c, 0, 64, 33
1, 423579, Note_off_c, 0, 50, 64
1, 423589, Control_c, 0, 64, 72
1, 423604, Control_c, 0, 64, 104
1, 423619, Control_c, 0, 64, 127
1, 423629, Note_on_c, 0, 69, 105
1, 423631, Note_on_c, 0, 81, 106
1, 423634, Note_on_c, 0, 45, 96
1, 423640, Note_on_c, 0, 33, 84
1, 423646, Note_off_c, 0, 81, 76
1, 423660, Note_off_c, 0, 69, 64
1, 423668, Note_off_c, 0, 33, 65
1, 423679, Note_off_c, 0, 45, 62
1, 423782, Note_on_c, 0, 58, 73
1, 423785, Note_on_c, 0, 46, 68
1, 423815, Note_off_c, 0, 58, 63
1, 423841, Note_off_c, 0, 46, 60
1, 423846, Note_on_c, 0, 59, 72
1, 423851, Note_on_c, 0, 47, 70
1, 423857, Control_c, 0, 64, 109
1, 423872, Control_c, 0, 64, 91
1, 423876, Note_off_c, 0, 59, 61
1, 423887, Control_c, 0, 64, 74
1, 423902, Control_c, 0, 64, 52
1, 423911, Note_on_c, 0, 60, 77
1, 423917, Control_c, 0, 64, 0
1, 423921, Note_on_c, 0, 48, 58
1, 423949, Note_off_c, 0, 47, 34
1, 423950, Note_off_c, 0, 48, 53
1, 423961, Note_off_c, 0, 60, 58
1, 423969, Note_on_c, 0, 61, 73
1, 423978, Note_on_c, 0, 49, 71
1, 424001, Note_off_c, 0, 61, 64
1, 424026, Note_off_c, 0, 49, 63
1, 424033, Note_on_c, 0, 62, 80
1, 424047, Note_on_c, 0, 50, 69
1, 424064, Note_off_c, 0, 62, 63
1, 424096, Note_off_c, 0, 50, 61
1, 424104, Note_on_c, 0, 63, 79
1, 424109, Note_on_c, 0, 51, 69
1, 424129, Note_off_c, 0, 63, 69
1, 424151, Note_off_c, 0, 51, 60
1, 424164, Note_on_c, 0, 64, 70
1, 424176, Note_on_c, 0, 52, 70
1, 424192, Note_off_c, 0, 64, 68
1, 424222, Note_on_c, 0, 65, 70
1, 424228, Note_off_c, 0, 52, 59
1, 424248, Note_on_c, 0, 53, 41
1, 424262, Note_on_c, 0, 66, 83
1, 424267, Note_off_c, 0, 65, 61
1, 424276, Note_off_c, 0, 53, 51
1, 424277, Note_on_c, 0, 54, 69
1, 424287, Note_off_c, 0, 66, 66
1, 424305, Note_off_c, 0, 54, 65
1, 424324, Note_on_c, 0, 67, 74
1, 424335, Note_on_c, 0, 55, 74
1, 424359, Note_off_c, 0, 67, 60
1, 424373, Note_off_c, 0, 55, 65
1, 424377, Note_on_c, 0, 56, 69
1, 424403, Note_off_c, 0, 56, 67
1, 424410, Note_on_c, 0, 69, 40
1, 424441, Note_off_c, 0, 69, 35
1, 424487, Control_c, 0, 64, 70
1, 424502, Control_c, 0, 64, 127
1, 424508, Note_on_c, 0, 33, 80
1, 424510, Note_on_c, 0, 69, 95
1, 424510, Note_on_c, 0, 47, 83
1, 424511, Note_on_c, 0, 45, 81
1, 424514, Note_on_c, 0, 57, 101
1, 424531, Note_off_c, 0, 33, 67
1, 424534, Note_off_c, 0, 47, 66
1, 424539, Note_off_c, 0, 45, 67
1, 424547, Note_off_c, 0, 57, 63
1, 424549, Note_off_c, 0, 69, 66
1, 424620, Control_c, 0, 64, 115
1, 424635, Poly_aftertouch_c, 0, 35, 0
1, 424635, Control_c, 0, 64, 90
1, 424650, Control_c, 0, 64, 70
1, 424659, Note_on_c, 0, 57, 68
1, 424665, Control_c, 0, 64, 0
1, 424671, Note_on_c, 0, 52, 72
1, 424674, Note_on_c, 0, 61, 66
1, 424680, Note_on_c, 0, 45, 55
1, 424683, Note_off_c, 0, 57, 67
1, 424704, Note_off_c, 0, 52, 64
1, 424704, Note_off_c, 0, 61, 66
1, 424718, Note_off_c, 0, 45, 63
1, 424727, Note_on_c, 0, 64, 66
1, 424786, Note_off_c, 0, 64, 59
1, 424795, Note_on_c, 0, 62, 74
1, 424805, Note_on_c, 0, 59, 57
1, 424815, Note_on_c, 0, 52, 56
1, 424822, Note_on_c, 0, 45, 49
1, 424824, Note_off_c, 0, 62, 60
1, 424831, Note_off_c, 0, 59, 64
1, 424850, Note_off_c, 0, 52, 65
1, 424859, Note_off_c, 0, 45, 60
1, 424865, Note_on_c, 0, 65, 77
1, 424891, Note_off_c, 0, 65, 70
1, 424895, Control_c, 0, 64, 26
1, 424910, Control_c, 0, 64, 88
1, 424925, Control_c, 0, 64, 127
1, 424939, Note_on_c, 0, 65, 89
1, 424946, Note_on_c, 0, 61, 87
1, 424947, Note_on_c, 0, 45, 69
1, 424949, Note_on_c, 0, 52, 63
1, 424987, Note_off_c, 0, 52, 59
1, 424991, Note_off_c, 0, 61, 61
1, 424999, Control_c, 0, 64, 114
1, 425005, Note_on_c, 0, 64, 72
1, 425014, Note_off_c, 0, 65, 63
1, 425014, Control_c, 0, 64, 84
1, 425026, Note_off_c, 0, 45, 56
1, 425028, Control_c, 0, 64, 44
1, 425043, Control_c, 0, 64, 0
1, 425073, Note_off_c, 0, 64, 64
1, 425080, Note_on_c, 0, 61, 76
1, 425082, Note_on_c, 0, 57, 69
1, 425100, Note_on_c, 0, 52, 54
1, 425110, Note_on_c, 0, 45, 41
1, 425112, Note_off_c, 0, 57, 66
1, 425127, Note_off_c, 0, 61, 56
1, 425142, Note_off_c, 0, 52, 60
1, 425148, Note_on_c, 0, 64, 59
1, 425162, Note_off_c, 0, 45, 59
1, 425197, Note_on_c, 0, 62, 76
1, 425200, Note_off_c, 0, 64, 63
1, 425220, Note_on_c, 0, 59, 48
1, 425230, Note_on_c, 0, 52, 60
1, 425243, Note_off_c, 0, 59, 56
1, 425268, Note_on_c, 0, 45, 30
1, 425273, Note_off_c, 0, 62, 41
1, 425274, Note_on_c, 0, 65, 80
1, 425280, Note_off_c, 0, 52, 55
1, 425300, Note_off_c, 0, 65, 70
1, 425304, Note_off_c, 0, 45, 46
1, 425340, Control_c, 0, 64, 74
1, 425350, Note_on_c, 0, 61, 84
1, 425351, Note_on_c, 0, 65, 83
1, 425352, Note_on_c, 0, 45, 82
1, 425355, Note_on_c, 0, 52, 70
1, 425355, Control_c, 0, 64, 127
1, 425376, Note_off_c, 0, 61, 65
1, 425381, Note_off_c, 0, 52, 65
1, 425397, Note_off_c, 0, 45, 62
1, 425415, Note_on_c, 0, 64, 80
1, 425439, Note_off_c, 0, 64, 70
1, 425446, Note_off_c, 0, 65, 58
1, 425540, Control_c, 0, 64, 120
1, 425544, Note_on_c, 0, 57, 63
1, 425546, Note_on_c, 0, 81, 87
1, 425555, Note_on_c, 0, 61, 52
1, 425555, Control_c, 0, 64, 92
1, 425557, Note_on_c, 0, 64, 54
1, 425561, Note_on_c, 0, 69, 41
1, 425569, Control_c, 0, 64, 74
1, 425577, Note_off_c, 0, 61, 60
1, 425577, Note_off_c, 0, 64, 60
1, 425578, Note_off_c, 0, 57, 63
1, 425584, Control_c, 0, 64, 0
1, 425589, Note_off_c, 0, 69, 48
1, 425598, Note_off_c, 0, 81, 61
1, 425610, Note_on_c, 0, 83, 78
1, 425641, Note_off_c, 0, 83, 68
1, 425667, Note_on_c, 0, 64, 56
1, 425671, Note_on_c, 0, 61, 50
1, 425671, Note_on_c, 0, 69, 60
1, 425674, Note_on_c, 0, 57, 57
1, 425684, Note_on_c, 0, 85, 79
1, 425704, Note_off_c, 0, 69, 63
1, 425706, Note_off_c, 0, 85, 70
1, 425708, Note_off_c, 0, 64, 63
1, 425710, Note_off_c, 0, 61, 61
1, 425711, Note_off_c, 0, 57, 62
1, 425746, Note_on_c, 0, 86, 78
1, 425788, Note_off_c, 0, 86, 58
1, 425800, Note_on_c, 0, 69, 57
1, 425801, Note_on_c, 0, 61, 58
1, 425803, Note_on_c, 0, 88, 74
1, 425804, Note_on_c, 0, 64, 61
1, 425805, Note_on_c, 0, 57, 49
1, 425833, Note_off_c, 0, 69, 64
1, 425834, Note_off_c, 0, 57, 53
1, 425837, Note_off_c, 0, 61, 64
1, 425837, Note_off_c, 0, 64, 65
1, 425848, Note_off_c, 0, 88, 66
1, 425875, Note_on_c, 0, 90, 78
1, 425896, Note_off_c, 0, 90, 69
1, 425923, Note_on_c, 0, 57, 55
1, 425930, Note_on_c, 0, 64, 52
1, 425936, Note_on_c, 0, 61, 47
1, 425939, Note_on_c, 0, 91, 69
1, 425941, Note_on_c, 0, 69, 42
1, 425962, Note_off_c, 0, 57, 61
1, 425967, Note_off_c, 0, 61, 63
1, 425968, Note_off_c, 0, 64, 64
1, 425969, Note_off_c, 0, 69, 51
1, 425989, Note_off_c, 0, 91, 64
1, 425992, Note_on_c, 0, 92, 79
1, 426020, Note_off_c, 0, 92, 61
1, 426045, Note_on_c, 0, 69, 64
1, 426057, Note_on_c, 0, 64, 56
1, 426061, Note_on_c, 0, 61, 47
1, 426064, Note_on_c, 0, 93, 72
1, 426081, Note_on_c, 0, 57, 13
1, 426084, Note_off_c, 0, 69, 63
1, 426087, Note_off_c, 0, 64, 65
1, 426089, Note_off_c, 0, 61, 59
1, 426108, Note_off_c, 0, 57, 41
1, 426111, Note_on_c, 0, 94, 68
1, 426118, Note_off_c, 0, 93, 64
1, 426134, Note_off_c, 0, 94, 68
1, 426148, Control_c, 0, 64, 109
1, 426153, Note_on_c, 0, 71, 87
1, 426158, Note_on_c, 0, 66, 95
1, 426161, Note_on_c, 0, 63, 82
1, 426162, Note_on_c, 0, 90, 94
1, 426162, Note_on_c, 0, 95, 87
1, 426163, Control_c, 0, 64, 127
1, 426164, Note_on_c, 0, 87, 92
1, 426168, Note_on_c, 0, 57, 67
1, 426170, Poly_aftertouch_c, 0, 94, 0
1, 426171, Note_off_c, 0, 71, 74
1, 426180, Note_off_c, 0, 66, 72
1, 426181, Note_off_c, 0, 87, 73
1, 426181, Note_off_c, 0, 90, 70
1, 426182, Note_off_c, 0, 95, 72
1, 426185, Note_off_c, 0, 63, 66
1, 426200, Note_off_c, 0, 57, 64
1, 426289, Control_c, 0, 64, 103
1, 426304, Control_c, 0, 64, 75
1, 426318, Control_c, 0, 64, 0
1, 426347, Note_on_c, 0, 54, 61
1, 426355, Note_on_c, 0, 63, 73
1, 426358, Note_on_c, 0, 59, 58
1, 426360, Note_on_c, 0, 45, 39
1, 426376, Note_off_c, 0, 54, 65
1, 426382, Note_off_c, 0, 59, 62
1, 426388, Note_off_c, 0, 63, 65
1, 426396, Note_off_c, 0, 45, 45
1, 426406, Note_on_c, 0, 66, 77
1, 426453, Note_off_c, 0, 66, 61
1, 426460, Note_on_c, 0, 54, 66
1, 426462, Note_on_c, 0, 64, 67
1, 426464, Note_on_c, 0, 61, 73
1, 426481, Note_on_c, 0, 45, 48
1, 426489, Note_off_c, 0, 64, 67
1, 426503, Note_off_c, 0, 61, 59
1, 426509, Note_off_c, 0, 54, 59
1, 426510, Note_off_c, 0, 45, 53
1, 426534, Note_on_c, 0, 67, 76
1, 426561, Note_off_c, 0, 67, 64
1, 426592, Note_on_c, 0, 45, 67
1, 426599, Note_on_c, 0, 54, 73
1, 426600, Control_c, 0, 64, 86
1, 426601, Note_on_c, 0, 67, 70
1, 426603, Note_on_c, 0, 63, 90
1, 426615, Control_c, 0, 64, 127
1, 426637, Note_off_c, 0, 54, 60
1, 426653, Note_off_c, 0, 63, 64
1, 426659, Note_off_c, 0, 45, 59
1, 426670, Note_on_c, 0, 66, 80
1, 426679, Note_off_c, 0, 67, 51
1, 426704, Control_c, 0, 64, 91
1, 426718, Control_c, 0, 64, 65
1, 426729, Note_off_c, 0, 66, 66
1, 426733, Control_c, 0, 64, 0
1, 426737, Note_on_c, 0, 63, 74
1, 426746, Note_on_c, 0, 54, 65
1, 426748, Note_on_c, 0, 45, 56
1, 426756, Note_on_c, 0, 59, 54
1, 426779, Note_off_c, 0, 59, 61
1, 426785, Note_off_c, 0, 54, 63
1, 426796, Note_off_c, 0, 63, 55
1, 426797, Note_off_c, 0, 45, 59
1, 426811, Note_on_c, 0, 66, 77
1, 426870, Note_off_c, 0, 66, 63
1, 426871, Note_on_c, 0, 64, 58
1, 426892, Note_on_c, 0, 61, 61
1, 426892, Note_on_c, 0, 54, 59
1, 426898, Note_on_c, 0, 45, 53
1, 426911, Note_off_c, 0, 64, 64
1, 426930, Note_off_c, 0, 61, 59
1, 426934, Note_off_c, 0, 54, 61
1, 426942, Note_off_c, 0, 45, 61
1, 426951, Note_on_c, 0, 67, 81
1, 426981, Note_off_c, 0, 67, 65
1, 427023, Control_c, 0, 64, 100
1, 427035, Note_on_c, 0, 67, 91
1, 427035, Note_on_c, 0, 45, 76
1, 427037, Note_on_c, 0, 63, 93
1, 427038, Control_c, 0, 64, 127
1, 427041, Note_on_c, 0, 54, 74
1, 427065, Note_off_c, 0, 45, 63
1, 427071, Note_off_c, 0, 63, 62
1, 427073, Note_off_c, 0, 54, 64
1, 427120, Note_off_c, 0, 67, 55
1, 427122, Note_on_c, 0, 66, 89
1, 427142, Note_off_c, 0, 66, 72
1, 427230, Control_c, 0, 64, 97
1, 427235, Note_on_c, 0, 83, 80
1, 427238, Note_on_c, 0, 57, 56
1, 427238, Note_on_c, 0, 66, 50
1, 427245, Control_c, 0, 64, 76
1, 427246, Note_on_c, 0, 71, 48
1, 427256, Note_on_c, 0, 63, 40
1, 427259, Control_c, 0, 64, 20
1, 427260, Note_off_c, 0, 66, 58
1, 427270, Note_off_c, 0, 71, 58
1, 427272, Note_off_c, 0, 57, 49
1, 427274, Control_c, 0, 64, 0
1, 427278, Note_off_c, 0, 83, 64
1, 427279, Note_off_c, 0, 63, 58
1, 427301, Note_on_c, 0, 85, 77
1, 427331, Note_off_c, 0, 85, 66
1, 427357, Note_on_c, 0, 66, 63
1, 427360, Note_on_c, 0, 57, 56
1, 427362, Note_on_c, 0, 71, 57
1, 427363, Note_on_c, 0, 63, 52
1, 427369, Note_on_c, 0, 87, 80
1, 427389, Note_off_c, 0, 57, 52
1, 427389, Note_off_c, 0, 87, 71
1, 427393, Note_off_c, 0, 71, 66
1, 427399, Note_off_c, 0, 63, 64
1, 427403, Note_off_c, 0, 66, 63
1, 427431, Note_on_c, 0, 88, 86
1, 427481, Note_off_c, 0, 88, 64
1, 427482, Note_on_c, 0, 71, 60
1, 427484, Note_on_c, 0, 63, 61
1, 427487, Note_on_c, 0, 90, 78
1, 427492, Note_on_c, 0, 66, 65
1, 427497, Note_on_c, 0, 57, 33
1, 427509, Note_off_c, 0, 71, 65
1, 427518, Note_off_c, 0, 63, 64
1, 427520, Note_off_c, 0, 66, 67
1, 427530, Note_off_c, 0, 57, 45
1, 427548, Note_on_c, 0, 91, 87
1, 427557, Note_off_c, 0, 90, 61
1, 427567, Note_off_c, 0, 91, 72
1, 427601, Note_on_c, 0, 63, 64
1, 427601, Note_on_c, 0, 71, 66
1, 427603, Note_on_c, 0, 66, 68
1, 427611, Note_on_c, 0, 57, 51
1, 427621, Note_on_c, 0, 93, 88
1, 427632, Note_off_c, 0, 71, 67
1, 427637, Note_off_c, 0, 57, 54
1, 427639, Note_off_c, 0, 63, 61
1, 427639, Note_off_c, 0, 66, 63
1, 427676, Note_off_c, 0, 93, 63
1, 427682, Note_on_c, 0, 95, 80
1, 427724, Note_on_c, 0, 71, 71
1, 427731, Note_on_c, 0, 66, 74
1, 427734, Note_on_c, 0, 57, 42
1, 427738, Note_on_c, 0, 97, 76
1, 427751, Note_off_c, 0, 71, 69
1, 427760, Note_off_c, 0, 95, 62
1, 427768, Note_off_c, 0, 66, 68
1, 427774, Note_on_c, 0, 99, 78
1, 427786, Note_off_c, 0, 57, 50
1, 427791, Note_off_c, 0, 97, 66
1, 427798, Note_off_c, 0, 99, 69
1, 427831, Control_c, 0, 64, 127
1, 427832, Note_on_c, 0, 100, 107
1, 427835, Note_on_c, 0, 91, 102
1, 427839, Note_on_c, 0, 57, 92
1, 427839, Note_on_c, 0, 67, 93
1, 427839, Note_on_c, 0, 95, 95
1, 427846, Note_on_c, 0, 64, 78
1, 427857, Note_off_c, 0, 95, 70
1, 427859, Note_off_c, 0, 67, 71
1, 427862, Note_off_c, 0, 100, 68
1, 427871, Note_off_c, 0, 91, 68
1, 427871, Note_off_c, 0, 64, 69
1, 427879, Note_off_c, 0, 57, 65
1, 427965, Control_c, 0, 64, 109
1, 427980, Control_c, 0, 64, 74
1, 427995, Control_c, 0, 64, 0
1, 428017, Note_on_c, 0, 45, 65
1, 428017, Note_on_c, 0, 55, 57
1, 428020, Note_on_c, 0, 64, 65
1, 428020, Note_on_c, 0, 67, 71
1, 428022, Note_on_c, 0, 52, 55
1, 428045, Note_off_c, 0, 67, 69
1, 428049, Note_off_c, 0, 52, 61
1, 428049, Note_off_c, 0, 55, 65
1, 428051, Note_off_c, 0, 64, 66
1, 428053, Note_on_c, 0, 71, 64
1, 428057, Note_off_c, 0, 45, 61
1, 428110, Note_off_c, 0, 71, 59
1, 428129, Note_on_c, 0, 69, 65
1, 428130, Note_on_c, 0, 52, 64
1, 428131, Note_on_c, 0, 66, 79
1, 428135, Note_on_c, 0, 55, 60
1, 428141, Note_on_c, 0, 45, 60
1, 428168, Note_off_c, 0, 66, 63
1, 428168, Note_off_c, 0, 52, 61
1, 428172, Note_off_c, 0, 55, 62
1, 428182, Note_off_c, 0, 45, 62
1, 428185, Note_off_c, 0, 69, 47
1, 428195, Note_on_c, 0, 72, 82
1, 428218, Note_off_c, 0, 72, 67
1, 428261, Control_c, 0, 64, 61
1, 428263, Note_on_c, 0, 72, 96
1, 428269, Note_on_c, 0, 67, 90
1, 428270, Note_on_c, 0, 45, 68
1, 428272, Note_on_c, 0, 55, 59
1, 428273, Note_on_c, 0, 52, 61
1, 428276, Control_c, 0, 64, 127
1, 428305, Note_off_c, 0, 52, 64
1, 428308, Note_off_c, 0, 55, 62
1, 428312, Note_off_c, 0, 67, 62
1, 428314, Note_off_c, 0, 45, 59
1, 428347, Note_on_c, 0, 71, 73
1, 428349, Note_off_c, 0, 72, 60
1, 428399, Note_off_c, 0, 71, 65
1, 428409, Control_c, 0, 64, 119
1, 428411, Note_on_c, 0, 67, 72
1, 428415, Note_on_c, 0, 55, 58
1, 428417, Note_on_c, 0, 52, 54
1, 428417, Note_on_c, 0, 64, 57
1, 428418, Note_on_c, 0, 45, 61
1, 428424, Control_c, 0, 64, 100
1, 428439, Control_c, 0, 64, 87
1, 428448, Note_off_c, 0, 64, 65
1, 428454, Control_c, 0, 64, 75
1, 428454, Note_off_c, 0, 67, 62
1, 428455, Note_off_c, 0, 55, 61
1, 428457, Note_off_c, 0, 52, 63
1, 428461, Note_off_c, 0, 45, 61
1, 428469, Control_c, 0, 64, 63
1, 428475, Note_on_c, 0, 71, 74
1, 428484, Control_c, 0, 64, 0
1, 428536, Note_off_c, 0, 71, 57
1, 428552, Note_on_c, 0, 69, 67
1, 428555, Note_on_c, 0, 66, 81
1, 428559, Note_on_c, 0, 45, 61
1, 428560, Note_on_c, 0, 55, 55
1, 428566, Note_on_c, 0, 52, 45
1, 428600, Note_off_c, 0, 66, 63
1, 428605, Note_off_c, 0, 45, 58
1, 428605, Note_off_c, 0, 52, 61
1, 428606, Note_off_c, 0, 55, 59
1, 428611, Note_off_c, 0, 69, 59
1, 428629, Note_on_c, 0, 72, 76
1, 428655, Note_off_c, 0, 72, 67
1, 428655, Control_c, 0, 64, 56
1, 428669, Control_c, 0, 64, 79
1, 428683, Note_on_c, 0, 45, 79
1, 428684, Control_c, 0, 64, 127
1, 428686, Note_on_c, 0, 55, 79
1, 428691, Note_on_c, 0, 67, 98
1, 428694, Note_on_c, 0, 72, 97
1, 428711, Note_off_c, 0, 45, 64
1, 428726, Note_off_c, 0, 67, 66
1, 428728, Note_off_c, 0, 55, 62
1, 428763, Note_off_c, 0, 72, 62
1, 428765, Note_on_c, 0, 71, 83
1, 428797, Note_off_c, 0, 71, 66
1, 428847, Control_c, 0, 64, 95
1, 428858, Note_on_c, 0, 76, 87
1, 428862, Control_c, 0, 64, 76
1, 428865, Note_on_c, 0, 64, 58
1, 428865, Note_on_c, 0, 57, 56
1, 428874, Note_on_c, 0, 67, 53
1, 428877, Control_c, 0, 64, 0
1, 428896, Note_off_c, 0, 67, 60
1, 428898, Note_off_c, 0, 64, 66
1, 428901, Note_off_c, 0, 57, 53
1, 428905, Note_off_c, 0, 76, 63
1, 428912, Note_on_c, 0, 78, 82
1, 428984, Note_on_c, 0, 79, 82
1, 428988, Note_off_c, 0, 78, 62
1, 428991, Note_on_c, 0, 64, 61
1, 428991, Note_on_c, 0, 57, 58
1, 428992, Note_on_c, 0, 67, 57
1, 429005, Note_off_c, 0, 79, 70
1, 429011, Note_on_c, 0, 59, 53
1, 429023, Note_off_c, 0, 67, 65
1, 429026, Note_off_c, 0, 64, 64
1, 429034, Note_off_c, 0, 57, 60
1, 429043, Note_off_c, 0, 59, 65
1, 429062, Note_on_c, 0, 81, 93
1, 429116, Note_off_c, 0, 81, 62
1, 429120, Note_on_c, 0, 64, 62
1, 429121, Note_on_c, 0, 57, 61
1, 429122, Note_on_c, 0, 67, 58
1, 429127, Note_on_c, 0, 59, 54
1, 429129, Note_on_c, 0, 83, 83
1, 429156, Note_off_c, 0, 67, 63
1, 429157, Note_off_c, 0, 64, 63
1, 429162, Note_off_c, 0, 57, 60
1, 429163, Note_off_c, 0, 59, 65
1, 429184, Note_on_c, 0, 85, 73
1, 429194, Note_off_c, 0, 83, 66
1, 429241, Note_on_c, 0, 87, 80
1, 429248, Note_on_c, 0, 67, 65
1, 429250, Note_off_c, 0, 85, 66
1, 429262, Note_on_c, 0, 64, 64
1, 429265, Note_on_c, 0, 57, 59
1, 429268, Note_off_c, 0, 87, 71
1, 429291, Note_off_c, 0, 67, 63
1, 429300, Note_off_c, 0, 64, 62
1, 429303, Note_off_c, 0, 57, 63
1, 429317, Note_on_c, 0, 88, 85
1, 429369, Note_off_c, 0, 88, 65
1, 429377, Note_on_c, 0, 91, 82
1, 429379, Note_on_c, 0, 67, 70
1, 429390, Note_on_c, 0, 57, 60
1, 429405, Note_on_c, 0, 64, 33
1, 429414, Note_off_c, 0, 67, 65
1, 429421, Note_on_c, 0, 95, 78
1, 429424, Note_off_c, 0, 91, 68
1, 429428, Note_off_c, 0, 57, 61
1, 429434, Note_off_c, 0, 64, 47
1, 429444, Note_off_c, 0, 95, 70
1, 429477, Control_c, 0, 64, 78
1, 429485, Note_on_c, 0, 68, 90
1, 429485, Note_on_c, 0, 89, 95
1, 429489, Note_on_c, 0, 97, 104
1, 429490, Note_on_c, 0, 92, 104
1, 429492, Note_on_c, 0, 65, 76
1, 429492, Control_c, 0, 64, 127
1, 429493, Note_on_c, 0, 57, 74
1, 429503, Note_off_c, 0, 89, 74
1, 429506, Note_off_c, 0, 68, 71
1, 429511, Note_off_c, 0, 97, 67
1, 429513, Note_off_c, 0, 65, 69
1, 429526, Note_off_c, 0, 92, 67
1, 429539, Note_off_c, 0, 57, 64
1, 429553, Note_on_c, 0, 96, 16
1, 429554, Note_off_c, 0, 96, 127
1, 429640, Control_c, 0, 64, 115
1, 429655, Control_c, 0, 64, 86
1, 429670, Control_c, 0, 64, 62
1, 429679, Note_on_c, 0, 61, 71
1, 429679, Note_on_c, 0, 52, 47
1, 429679, Note_on_c, 0, 68, 56
1, 429685, Control_c, 0, 64, 0
1, 429691, Note_on_c, 0, 45, 37
1, 429709, Note_off_c, 0, 52, 56
1, 429710, Note_off_c, 0, 68, 65
1, 429712, Note_off_c, 0, 61, 62
1, 429727, Note_off_c, 0, 45, 49
1, 429774, Note_on_c, 0, 69, 74
1, 429789, Note_on_c, 0, 61, 50
1, 429792, Note_on_c, 0, 56, 71
1, 429801, Note_on_c, 0, 53, 56
1, 429807, Note_on_c, 0, 45, 56
1, 429818, Note_off_c, 0, 61, 60
1, 429834, Note_off_c, 0, 56, 60
1, 429843, Note_on_c, 0, 73, 76
1, 429843, Note_off_c, 0, 53, 58
1, 429847, Note_off_c, 0, 69, 63
1, 429848, Note_off_c, 0, 45, 56
1, 429867, Note_off_c, 0, 73, 67
1, 429917, Note_on_c, 0, 61, 82
1, 429917, Note_on_c, 0, 73, 88
1, 429922, Control_c, 0, 64, 61
1, 429927, Note_on_c, 0, 45, 69
1, 429928, Note_on_c, 0, 56, 83
1, 429936, Note_on_c, 0, 53, 54
1, 429936, Control_c, 0, 64, 127
1, 429977, Note_off_c, 0, 56, 63
1, 429978, Note_off_c, 0, 53, 54
1, 429990, Note_off_c, 0, 61, 52
1, 429998, Note_off_c, 0, 45, 60
1, 430010, Note_on_c, 0, 71, 69
1, 430030, Note_off_c, 0, 73, 53
1, 430067, Note_off_c, 0, 71, 63
1, 430070, Note_on_c, 0, 68, 77
1, 430079, Note_on_c, 0, 61, 73
1, 430087, Note_on_c, 0, 56, 72
1, 430090, Note_on_c, 0, 45, 52
1, 430097, Note_on_c, 0, 53, 45
1, 430111, Note_off_c, 0, 61, 60
1, 430117, Note_off_c, 0, 56, 62
1, 430123, Control_c, 0, 64, 106
1, 430135, Note_off_c, 0, 68, 64
1, 430138, Control_c, 0, 64, 80
1, 430140, Note_off_c, 0, 53, 60
1, 430141, Note_off_c, 0, 45, 58
1, 430144, Note_on_c, 0, 71, 60
1, 430153, Control_c, 0, 64, 0
1, 430192, Note_off_c, 0, 71, 64
1, 430198, Note_on_c, 0, 69, 75
1, 430210, Note_on_c, 0, 61, 69
1, 430210, Note_on_c, 0, 56, 76
1, 430225, Note_on_c, 0, 45, 60
1, 430235, Note_on_c, 0, 53, 52
1, 430237, Note_off_c, 0, 61, 64
1, 430249, Note_off_c, 0, 69, 60
1, 430255, Note_on_c, 0, 73, 77
1, 430261, Note_off_c, 0, 56, 63
1, 430263, Note_off_c, 0, 45, 63
1, 430281, Note_off_c, 0, 73, 66
1, 430282, Note_off_c, 0, 53, 57
1, 430315, Control_c, 0, 64, 55
1, 430324, Note_on_c, 0, 61, 93
1, 430326, Note_on_c, 0, 73, 101
1, 430330, Control_c, 0, 64, 127
1, 430334, Note_on_c, 0, 56, 88
1, 430337, Note_on_c, 0, 45, 82
1, 430353, Note_off_c, 0, 61, 68
1, 430374, Note_off_c, 0, 45, 64
1, 430385, Note_off_c, 0, 56, 63
1, 430389, Note_off_c, 0, 73, 61
1, 430406, Note_on_c, 0, 71, 62
1, 430430, Note_off_c, 0, 71, 65
1, 430510, Note_on_c, 0, 85, 91
1, 430514, Note_on_c, 0, 66, 79
1, 430519, Note_on_c, 0, 64, 63
1, 430520, Note_on_c, 0, 58, 55
1, 430532, Note_on_c, 0, 56, 41
1, 430544, Note_off_c, 0, 66, 65
1, 430556, Note_off_c, 0, 64, 63
1, 430561, Note_off_c, 0, 56, 56
1, 430564, Note_off_c, 0, 58, 59
1, 430585, Note_off_c, 0, 85, 62
1, 430594, Note_on_c, 0, 87, 66
1, 430621, Note_off_c, 0, 87, 56
1, 430623, Note_on_c, 0, 89, 88
1, 430641, Note_on_c, 0, 68, 77
1, 430641, Control_c, 0, 64, 121
1, 430642, Note_on_c, 0, 65, 69
1, 430656, Control_c, 0, 64, 94
1, 430666, Note_off_c, 0, 68, 68
1, 430670, Note_on_c, 0, 59, 43
1, 430671, Control_c, 0, 64, 72
1, 430682, Note_off_c, 0, 65, 61
1, 430685, Control_c, 0, 64, 0
1, 430690, Note_on_c, 0, 90, 80
1, 430703, Note_off_c, 0, 59, 52
1, 430717, Note_off_c, 0, 89, 63
1, 430728, Poly_aftertouch_c, 0, 57, 0
1, 430739, Note_on_c, 0, 92, 78
1, 430761, Note_off_c, 0, 90, 66
1, 430766, Note_on_c, 0, 65, 64
1, 430767, Note_off_c, 0, 92, 68
1, 430769, Note_on_c, 0, 68, 71
1, 430772, Poly_aftertouch_c, 0, 57, 127
1, 430779, Note_on_c, 0, 59, 57
1, 430797, Note_off_c, 0, 68, 67
1, 430803, Note_off_c, 0, 65, 67
1, 430812, Poly_aftertouch_c, 0, 57, 0
1, 430815, Note_off_c, 0, 59, 63
1, 430821, Note_on_c, 0, 93, 83
1, 430848, Note_on_c, 0, 91, 43
1, 430849, Note_off_c, 0, 91, 127
1, 430876, Note_on_c, 0, 68, 68
1, 430880, Note_on_c, 0, 65, 70
1, 430882, Note_off_c, 0, 93, 64
1, 430883, Note_on_c, 0, 95, 84
1, 430901, Note_on_c, 0, 59, 50
1, 430903, Note_off_c, 0, 68, 69
1, 430905, Note_on_c, 0, 57, 34
1, 430917, Note_off_c, 0, 65, 65
1, 430930, Note_off_c, 0, 57, 46
1, 430931, Note_on_c, 0, 97, 79
1, 430933, Note_off_c, 0, 59, 65
1, 430958, Note_off_c, 0, 95, 63
1, 430971, Note_on_c, 0, 99, 65
1, 430980, Note_on_c, 0, 68, 78
1, 430989, Note_on_c, 0, 65, 53
1, 430992, Note_off_c, 0, 97, 67
1, 430995, Note_on_c, 0, 101, 81
1, 431002, Note_on_c, 0, 57, 44
1, 431008, Note_off_c, 0, 99, 65
1, 431010, Note_off_c, 0, 68, 67
1, 431012, Note_off_c, 0, 65, 60
1, 431018, Note_off_c, 0, 101, 68
1, 431028, Note_off_c, 0, 57, 58
1, 431061, Note_on_c, 0, 93, 91
1, 431064, Note_on_c, 0, 102, 97
1, 431064, Control_c, 0, 64, 72
1, 431065, Note_on_c, 0, 97, 106
1, 431070, Note_on_c, 0, 69, 92
1, 431072, Note_on_c, 0, 61, 77
1, 431075, Note_on_c, 0, 66, 87
1, 431079, Control_c, 0, 64, 127
1, 431081, Note_off_c, 0, 93, 68
1, 431086, Note_on_c, 0, 57, 62
1, 431087, Note_off_c, 0, 102, 66
1, 431097, Note_off_c, 0, 97, 62
1, 431098, Note_off_c, 0, 69, 64
1, 431102, Note_off_c, 0, 66, 63
1, 431104, Note_on_c, 0, 103, 29
1, 431105, Note_off_c, 0, 103, 127
1, 431113, Note_off_c, 0, 57, 63
1, 431124, Note_off_c, 0, 61, 60
1, 431208, Note_on_c, 0, 57, 55
1, 431210, Note_on_c, 0, 69, 73
1, 431218, Note_on_c, 0, 61, 62
1, 431219, Note_on_c, 0, 78, 81
1, 431220, Note_on_c, 0, 66, 65
1, 431238, Note_off_c, 0, 69, 60
1, 431247, Note_off_c, 0, 61, 62
1, 431248, Note_off_c, 0, 57, 58
1, 431249, Note_off_c, 0, 66, 67
1, 431268, Note_off_c, 0, 78, 62
1, 431280, Note_on_c, 0, 81, 75
1, 431300, Control_c, 0, 64, 98
1, 431314, Control_c, 0, 64, 78
1, 431325, Note_on_c, 0, 66, 68
1, 431327, Note_on_c, 0, 69, 72
1, 431329, Control_c, 0, 64, 41
1, 431335, Note_on_c, 0, 83, 74
1, 431336, Note_on_c, 0, 57, 50
1, 431340, Note_on_c, 0, 61, 57
1, 431344, Control_c, 0, 64, 0
1, 431347, Note_on_c, 0, 85, 71
1, 431351, Note_off_c, 0, 69, 68
1, 431351, Note_off_c, 0, 81, 65
1, 431363, Note_off_c, 0, 66, 64
1, 431364, Note_off_c, 0, 57, 60
1, 431371, Note_off_c, 0, 61, 64
1, 431388, Control_c, 0, 64, 68
1, 431402, Note_on_c, 0, 78, 98
1, 431402, Note_on_c, 0, 81, 85
1, 431403, Note_on_c, 0, 86, 89
1, 431403, Control_c, 0, 64, 90
1, 431416, Note_off_c, 0, 83, 67
1, 431418, Control_c, 0, 64, 127
1, 431420, Note_on_c, 0, 69, 87
1, 431421, Note_on_c, 0, 66, 82
1, 431424, Note_on_c, 0, 60, 72
1, 431426, Note_off_c, 0, 78, 66
1, 431428, Note_off_c, 0, 81, 68
1, 431438, Note_off_c, 0, 85, 61
1, 431439, Note_on_c, 0, 57, 63
1, 431453, Note_off_c, 0, 86, 66
1, 431457, Note_off_c, 0, 69, 60
1, 431473, Note_off_c, 0, 66, 63
1, 431474, Note_off_c, 0, 57, 56
1, 431493, Note_off_c, 0, 60, 61
1, 431559, Note_on_c, 0, 57, 69
1, 431569, Note_on_c, 0, 69, 71
1, 431572, Note_on_c, 0, 66, 70
1, 431580, Note_on_c, 0, 93, 82
1, 431595, Note_off_c, 0, 69, 65
1, 431596, Note_off_c, 0, 66, 68
1, 431603, Note_on_c, 0, 60, 19
1, 431630, Note_off_c, 0, 60, 0
1, 431645, Note_on_c, 0, 97, 87
1, 431649, Note_off_c, 0, 93, 62
1, 431670, Note_on_c, 0, 66, 78
1, 431678, Note_on_c, 0, 69, 67
1, 431678, Poly_aftertouch_c, 0, 60, 0
1, 431679, Note_on_c, 0, 98, 71
1, 431703, Note_off_c, 0, 66, 60
1, 431708, Note_off_c, 0, 69, 66
1, 431708, Control_c, 0, 64, 98
1, 431709, Note_off_c, 0, 57, 58
1, 431715, Poly_aftertouch_c, 0, 60, 127
1, 431716, Note_off_c, 0, 97, 58
1, 431718, Note_on_c, 0, 102, 69
1, 431723, Control_c, 0, 64, 74
1, 431729, Note_off_c, 0, 98, 67
1, 431734, Note_off_c, 0, 102, 65
1, 431737, Control_c, 0, 64, 0
1, 431742, Poly_aftertouch_c, 0, 60, 0
1, 431767, Control_c, 0, 64, 61
1, 431775, Note_on_c, 0, 58, 84
1, 431775, Note_on_c, 0, 91, 102
1, 431775, Note_on_c, 0, 103, 107
1, 431779, Note_on_c, 0, 67, 84
1, 431781, Note_on_c, 0, 62, 76
1, 431781, Control_c, 0, 64, 75
1, 431796, Control_c, 0, 64, 97
1, 431807, Note_off_c, 0, 62, 66
1, 431807, Note_off_c, 0, 67, 64
1, 431811, Control_c, 0, 64, 127
1, 431813, Note_off_c, 0, 91, 69
1, 431813, Note_off_c, 0, 103, 67
1, 431827, Note_off_c, 0, 58, 62
1, 431905, Note_on_c, 0, 62, 57
1, 431914, Note_on_c, 0, 93, 84
1, 431915, Note_on_c, 0, 67, 63
1, 431915, Note_on_c, 0, 58, 54
1, 431942, Note_off_c, 0, 67, 65
1, 431945, Note_off_c, 0, 62, 56
1, 431947, Note_off_c, 0, 58, 59
1, 431971, Note_off_c, 0, 93, 63
1, 431980, Note_on_c, 0, 94, 78
1, 432019, Note_on_c, 0, 67, 65
1, 432028, Note_on_c, 0, 96, 70
1, 432032, Note_on_c, 0, 62, 65
1, 432038, Note_on_c, 0, 58, 57
1, 432048, Note_off_c, 0, 94, 63
1, 432049, Control_c, 0, 64, 113
1, 432058, Note_off_c, 0, 62, 67
1, 432061, Note_on_c, 0, 98, 74
1, 432062, Note_off_c, 0, 67, 62
1, 432064, Control_c, 0, 64, 84
1, 432064, Note_off_c, 0, 58, 69
1, 432079, Control_c, 0, 64, 36
1, 432081, Note_off_c, 0, 96, 65
1, 432085, Note_off_c, 0, 98, 68
1, 432094, Control_c, 0, 64, 0
1, 432109, Control_c, 0, 64, 22
1, 432123, Control_c, 0, 64, 65
1, 432127, Note_on_c, 0, 103, 107
1, 432131, Note_on_c, 0, 91, 99
1, 432135, Note_on_c, 0, 67, 87
1, 432135, Note_on_c, 0, 58, 84
1, 432136, Note_on_c, 0, 63, 83
1, 432138, Control_c, 0, 64, 81
1, 432153, Control_c, 0, 64, 112
1, 432166, Note_off_c, 0, 103, 68
1, 432168, Control_c, 0, 64, 127
1, 432169, Note_off_c, 0, 67, 60
1, 432172, Note_off_c, 0, 91, 67
1, 432184, Note_off_c, 0, 63, 59
1, 432189, Note_off_c, 0, 58, 61
1, 432282, Note_on_c, 0, 67, 75
1, 432290, Note_on_c, 0, 63, 70
1, 432296, Note_on_c, 0, 58, 63
1, 432296, Note_on_c, 0, 93, 76
1, 432317, Note_off_c, 0, 63, 63
1, 432323, Note_off_c, 0, 58, 66
1, 432326, Note_off_c, 0, 67, 52
1, 432344, Note_off_c, 0, 93, 62
1, 432347, Note_on_c, 0, 94, 82
1, 432386, Note_on_c, 0, 98, 80
1, 432397, Note_on_c, 0, 67, 72
1, 432397, Control_c, 0, 64, 108
1, 432401, Note_on_c, 0, 63, 75
1, 432412, Note_off_c, 0, 94, 65
1, 432412, Control_c, 0, 64, 73
1, 432413, Note_on_c, 0, 58, 58
1, 432421, Note_off_c, 0, 67, 68
1, 432426, Note_on_c, 0, 99, 70
1, 432427, Control_c, 0, 64, 0
1, 432433, Note_off_c, 0, 58, 62
1, 432434, Note_off_c, 0, 63, 66
1, 432436, Note_off_c, 0, 98, 67
1, 432444, Note_off_c, 0, 99, 66
1, 432471, Control_c, 0, 64, 65
1, 432478, Note_on_c, 0, 103, 103
1, 432481, Note_on_c, 0, 57, 97
1, 432481, Note_on_c, 0, 67, 103
1, 432481, Note_on_c, 0, 91, 99
1, 432481, Note_on_c, 0, 97, 99
1, 432484, Note_on_c, 0, 64, 88
1, 432487, Control_c, 0, 64, 105
1, 432502, Control_c, 0, 64, 127
1, 432502, Note_on_c, 0, 58, 59
1, 432502, Note_off_c, 0, 64, 73
1, 432505, Note_off_c, 0, 67, 65
1, 432511, Note_off_c, 0, 103, 66
1, 432515, Note_off_c, 0, 97, 68
1, 432516, Note_off_c, 0, 91, 66
1, 432527, Note_off_c, 0, 58, 59
1, 432544, Note_off_c, 0, 57, 61
1, 432665, Note_on_c, 0, 88, 88
1, 432670, Note_on_c, 0, 79, 76
1, 432720, Note_off_c, 0, 79, 62
1, 432739, Note_on_c, 0, 91, 83
1, 432751, Note_off_c, 0, 88, 61
1, 432768, Control_c, 0, 64, 82
1, 432783, Control_c, 0, 64, 60
1, 432791, Note_on_c, 0, 45, 61
1, 432792, Note_off_c, 0, 91, 65
1, 432797, Control_c, 0, 64, 0
1, 432812, Control_c, 0, 64, 50
1, 432818, Note_on_c, 0, 57, 45
1, 432822, Note_on_c, 0, 90, 84
1, 432827, Note_on_c, 0, 81, 81
1, 432827, Control_c, 0, 64, 68
1, 432841, Note_off_c, 0, 45, 60
1, 432842, Control_c, 0, 64, 83
1, 432853, Note_off_c, 0, 57, 60
1, 432857, Control_c, 0, 64, 127
1, 432864, Note_off_c, 0, 81, 62
1, 432878, Note_on_c, 0, 87, 8
1, 432897, Note_on_c, 0, 93, 69
1, 432897, Note_off_c, 0, 90, 65
1, 432923, Note_off_c, 0, 87, 37
1, 432939, Note_off_c, 0, 93, 59
1, 432955, Note_on_c, 0, 90, 75
1, 432967, Note_on_c, 0, 46, 69
1, 432968, Note_on_c, 0, 58, 66
1, 432970, Note_on_c, 0, 81, 71
1, 432989, Note_off_c, 0, 81, 65
1, 433011, Note_off_c, 0, 58, 61
1, 433027, Note_off_c, 0, 90, 65
1, 433028, Note_off_c, 0, 46, 62
1, 433035, Note_on_c, 0, 93, 66
1, 433053, Note_off_c, 0, 93, 63
1, 433088, Note_on_c, 0, 88, 78
1, 433092, Note_on_c, 0, 47, 75
1, 433092, Note_on_c, 0, 59, 74
1, 433093, Note_on_c, 0, 79, 81
1, 433119, Note_off_c, 0, 79, 67
1, 433121, Note_off_c, 0, 59, 63
1, 433128, Note_off_c, 0, 47, 62
1, 433150, Note_on_c, 0, 91, 75
1, 433152, Note_off_c, 0, 88, 66
1, 433184, Note_off_c, 0, 91, 57
1, 433213, Note_on_c, 0, 60, 85
1, 433215, Note_on_c, 0, 81, 85
1, 433215, Note_on_c, 0, 90, 89
1, 433216, Note_on_c, 0, 48, 79
1, 433238, Note_off_c, 0, 60, 64
1, 433247, Note_off_c, 0, 81, 64
1, 433250, Note_on_c, 0, 87, 36
1, 433267, Note_off_c, 0, 48, 59
1, 433283, Note_on_c, 0, 93, 84
1, 433283, Note_off_c, 0, 87, 56
1, 433290, Note_off_c, 0, 90, 63
1, 433310, Note_off_c, 0, 93, 57
1, 433334, Note_on_c, 0, 59, 89
1, 433336, Note_on_c, 0, 47, 89
1, 433336, Note_on_c, 0, 90, 79
1, 433343, Note_on_c, 0, 81, 84
1, 433362, Note_on_c, 0, 87, 50
1, 433367, Note_off_c, 0, 81, 68
1, 433378, Note_off_c, 0, 47, 61
1, 433381, Note_off_c, 0, 59, 60
1, 433383, Note_on_c, 0, 89, 57
1, 433385, Note_off_c, 0, 87, 60
1, 433388, Note_off_c, 0, 90, 63
1, 433401, Note_on_c, 0, 93, 75
1, 433405, Note_off_c, 0, 89, 63
1, 433417, Note_off_c, 0, 93, 68
1, 433457, Note_on_c, 0, 79, 82
1, 433461, Note_on_c, 0, 88, 76
1, 433462, Note_on_c, 0, 60, 88
1, 433464, Note_on_c, 0, 48, 87
1, 433487, Note_off_c, 0, 79, 63
1, 433491, Note_off_c, 0, 48, 63
1, 433495, Note_off_c, 0, 60, 60
1, 433516, Note_on_c, 0, 91, 84
1, 433523, Note_off_c, 0, 88, 65
1, 433545, Note_off_c, 0, 91, 63
1, 433548, Poly_aftertouch_c, 0, 49, 127
1, 433568, Poly_aftertouch_c, 0, 49, 0
1, 433579, Note_on_c, 0, 49, 68
1, 433583, Note_on_c, 0, 81, 90
1, 433584, Note_on_c, 0, 90, 90
1, 433587, Note_on_c, 0, 61, 89
1, 433609, Note_on_c, 0, 87, 51
1, 433617, Note_off_c, 0, 61, 58
1, 433621, Note_off_c, 0, 81, 65
1, 433632, Note_off_c, 0, 87, 60
1, 433641, Note_off_c, 0, 49, 62
1, 433650, Note_off_c, 0, 90, 66
1, 433653, Note_on_c, 0, 93, 79
1, 433702, Note_on_c, 0, 90, 80
1, 433702, Note_off_c, 0, 93, 54
1, 433706, Note_on_c, 0, 48, 88
1, 433706, Note_on_c, 0, 60, 91
1, 433714, Note_on_c, 0, 81, 78
1, 433727, Note_off_c, 0, 60, 63
1, 433736, Note_off_c, 0, 81, 69
1, 433743, Note_on_c, 0, 87, 30
1, 433757, Note_off_c, 0, 48, 64
1, 433779, Note_off_c, 0, 87, 48
1, 433783, Note_on_c, 0, 93, 79
1, 433798, Note_off_c, 0, 90, 64
1, 433818, Note_off_c, 0, 93, 55
1, 433828, Note_on_c, 0, 59, 91
1, 433829, Note_on_c, 0, 47, 88
1, 433837, Note_on_c, 0, 78, 81
1, 433840, Note_on_c, 0, 87, 86
1, 433864, Note_off_c, 0, 59, 61
1, 433864, Note_off_c, 0, 47, 63
1, 433882, Note_off_c, 0, 78, 62
1, 433897, Note_off_c, 0, 87, 64
1, 433903, Note_on_c, 0, 90, 73
1, 433943, Note_on_c, 0, 46, 94
1, 433947, Note_on_c, 0, 58, 89
1, 433947, Note_on_c, 0, 79, 83
1, 433951, Note_on_c, 0, 88, 80
1, 433951, Note_off_c, 0, 90, 66
1, 433969, Control_c, 0, 64, 89
1, 433972, Note_off_c, 0, 58, 64
1, 433975, Note_on_c, 0, 87, 56
1, 433980, Note_off_c, 0, 79, 62
1, 433984, Control_c, 0, 64, 34
1, 433989, Note_off_c, 0, 46, 64
1, 433998, Note_off_c, 0, 87, 59
1, 433998, Control_c, 0, 64, 0
1, 434004, Note_on_c, 0, 91, 97
1, 434014, Note_off_c, 0, 88, 67
1, 434034, Note_off_c, 0, 91, 67
1, 434043, Control_c, 0, 64, 64
1, 434052, Note_on_c, 0, 57, 104
1, 434053, Note_on_c, 0, 45, 104
1, 434058, Control_c, 0, 64, 92
1, 434073, Control_c, 0, 64, 127
1, 434084, Note_off_c, 0, 57, 69
1, 434112, Note_off_c, 0, 45, 63
1, 434135, Poly_aftertouch_c, 0, 46, 127
1, 434171, Poly_aftertouch_c, 0, 46, 0
1, 434172, Poly_aftertouch_c, 0, 49, 0
1, 434190, Note_on_c, 0, 76, 87
1, 434193, Note_on_c, 0, 67, 75
1, 434229, Note_off_c, 0, 67, 64
1, 434263, Note_on_c, 0, 79, 81
1, 434266, Note_off_c, 0, 76, 62
1, 434307, Note_off_c, 0, 79, 59
1, 434311, Control_c, 0, 64, 85
1, 434325, Control_c, 0, 64, 54
1, 434328, Note_on_c, 0, 45, 77
1, 434331, Note_on_c, 0, 33, 64
1, 434340, Control_c, 0, 64, 0
1, 434341, Note_on_c, 0, 78, 79
1, 434343, Note_on_c, 0, 69, 77
1, 434370, Control_c, 0, 64, 47
1, 434384, Control_c, 0, 64, 70
1, 434389, Note_off_c, 0, 69, 60
1, 434394, Note_off_c, 0, 33, 61
1, 434396, Note_off_c, 0, 45, 60
1, 434399, Control_c, 0, 64, 91
1, 434409, Note_off_c, 0, 78, 64
1, 434411, Note_on_c, 0, 81, 82
1, 434414, Control_c, 0, 64, 127
1, 434446, Note_off_c, 0, 81, 61
1, 434478, Note_on_c, 0, 78, 76
1, 434493, Note_on_c, 0, 69, 66
1, 434500, Note_on_c, 0, 46, 83
1, 434506, Note_on_c, 0, 34, 74
1, 434530, Note_off_c, 0, 69, 65
1, 434547, Note_off_c, 0, 78, 65
1, 434547, Note_on_c, 0, 81, 79
1, 434556, Note_off_c, 0, 46, 60
1, 434558, Note_off_c, 0, 34, 59
1, 434572, Note_off_c, 0, 81, 70
1, 434612, Note_on_c, 0, 76, 73
1, 434615, Note_on_c, 0, 67, 76
1, 434624, Note_on_c, 0, 47, 87
1, 434628, Note_on_c, 0, 35, 79
1, 434641, Note_off_c, 0, 67, 67
1, 434663, Note_off_c, 0, 35, 64
1, 434663, Note_off_c, 0, 47, 61
1, 434672, Note_on_c, 0, 79, 78
1, 434678, Note_off_c, 0, 76, 65
1, 434697, Note_off_c, 0, 79, 66
1, 434735, Note_on_c, 0, 69, 83
1, 434737, Note_on_c, 0, 78, 86
1, 434738, Note_on_c, 0, 48, 95
1, 434741, Note_on_c, 0, 36, 88
1, 434773, Note_off_c, 0, 69, 62
1, 434776, Note_off_c, 0, 48, 61
1, 434784, Note_on_c, 0, 37, 25
1, 434796, Note_off_c, 0, 36, 61
1, 434807, Note_off_c, 0, 78, 65
1, 434808, Note_on_c, 0, 81, 87
1, 434832, Note_off_c, 0, 37, 53
1, 434846, Note_off_c, 0, 81, 48
1, 434855, Note_on_c, 0, 47, 99
1, 434857, Note_on_c, 0, 35, 98
1, 434860, Note_on_c, 0, 78, 78
1, 434866, Note_on_c, 0, 69, 79
1, 434896, Note_off_c, 0, 47, 65
1, 434899, Note_off_c, 0, 69, 63
1, 434909, Note_off_c, 0, 35, 60
1, 434930, Note_off_c, 0, 78, 64
1, 434931, Note_on_c, 0, 81, 80
1, 434947, Note_off_c, 0, 81, 68
1, 434982, Note_on_c, 0, 48, 98
1, 434984, Note_on_c, 0, 36, 91
1, 434988, Note_on_c, 0, 76, 80
1, 434988, Note_on_c, 0, 67, 81
1, 435019, Note_off_c, 0, 67, 62
1, 435021, Note_off_c, 0, 48, 63
1, 435027, Note_off_c, 0, 36, 60
1, 435051, Note_on_c, 0, 79, 77
1, 435057, Note_off_c, 0, 76, 60
1, 435068, Poly_aftertouch_c, 0, 37, 127
1, 435081, Note_off_c, 0, 79, 59
1, 435100, Poly_aftertouch_c, 0, 37, 0
1, 435110, Note_on_c, 0, 37, 77
1, 435110, Note_on_c, 0, 69, 84
1, 435113, Note_on_c, 0, 49, 97
1, 435118, Note_on_c, 0, 78, 84
1, 435155, Note_off_c, 0, 49, 64
1, 435155, Note_off_c, 0, 69, 63
1, 435156, Note_on_c, 0, 75, 27
1, 435174, Note_off_c, 0, 37, 62
1, 435191, Note_off_c, 0, 75, 54
1, 435193, Note_off_c, 0, 78, 65
1, 435194, Note_on_c, 0, 81, 85
1, 435246, Note_off_c, 0, 81, 43
1, 435256, Note_on_c, 0, 48, 101
1, 435260, Note_on_c, 0, 36, 91
1, 435261, Note_on_c, 0, 78, 78
1, 435262, Note_on_c, 0, 69, 79
1, 435292, Note_off_c, 0, 69, 66
1, 435294, Note_on_c, 0, 75, 38
1, 435295, Note_off_c, 0, 48, 63
1, 435300, Note_on_c, 0, 37, 35
1, 435314, Note_off_c, 0, 36, 63
1, 435324, Note_off_c, 0, 75, 52
1, 435328, Note_on_c, 0, 81, 87
1, 435329, Note_off_c, 0, 37, 57
1, 435348, Note_off_c, 0, 78, 64
1, 435388, Note_off_c, 0, 81, 60
1, 435395, Note_on_c, 0, 47, 97
1, 435396, Note_on_c, 0, 75, 77
1, 435397, Note_on_c, 0, 35, 96
1, 435407, Note_on_c, 0, 66, 87
1, 435438, Note_off_c, 0, 47, 62
1, 435450, Poly_aftertouch_c, 0, 79, 0
1, 435451, Note_off_c, 0, 35, 60
1, 435457, Note_off_c, 0, 66, 63
1, 435465, Note_off_c, 0, 75, 62
1, 435474, Note_on_c, 0, 78, 61
1, 435534, Note_on_c, 0, 46, 96
1, 435536, Note_on_c, 0, 34, 91
1, 435537, Note_on_c, 0, 67, 73
1, 435538, Note_off_c, 0, 78, 65
1, 435540, Note_on_c, 0, 76, 74
1, 435570, Note_off_c, 0, 67, 62
1, 435589, Note_on_c, 0, 75, 37
1, 435603, Note_on_c, 0, 79, 98
1, 435605, Note_off_c, 0, 46, 62
1, 435611, Note_off_c, 0, 34, 61
1, 435611, Note_off_c, 0, 76, 66
1, 435617, Note_off_c, 0, 75, 59
1, 435638, Note_off_c, 0, 79, 64
1, 435644, Control_c, 0, 64, 84
1, 435659, Control_c, 0, 64, 0
1, 435680, Note_on_c, 0, 45, 110
1, 435683, Note_on_c, 0, 33, 96
1, 435712, Note_on_c, 0, 34, 54
1, 435717, Note_on_c, 0, 37, 35
1, 435718, Note_off_c, 0, 37, 127
1, 435734, Note_off_c, 0, 34, 60
1, 435734, Control_c, 0, 64, 82
1, 435744, Note_off_c, 0, 33, 61
1, 435748, Control_c, 0, 64, 127
1, 435762, Poly_aftertouch_c, 0, 37, 0
1, 435781, Note_off_c, 0, 45, 62
1, 435948, Note_on_c, 0, 57, 69
1, 435953, Note_on_c, 0, 52, 57
1, 435954, Note_on_c, 0, 49, 59
1, 435988, Note_off_c, 0, 57, 57
1, 436012, Note_off_c, 0, 49, 58
1, 436016, Note_off_c, 0, 52, 55
1, 436049, Poly_aftertouch_c, 0, 45, 0
1, 436061, Note_on_c, 0, 68, 77
1, 436063, Note_on_c, 0, 56, 73
1, 436087, Note_off_c, 0, 68, 67
1, 436088, Note_off_c, 0, 56, 67
1, 436116, Note_on_c, 0, 57, 72
1, 436117, Note_on_c, 0, 49, 69
1, 436157, Note_off_c, 0, 57, 64
1, 436161, Note_off_c, 0, 49, 64
1, 436188, Note_on_c, 0, 59, 71
1, 436195, Note_on_c, 0, 71, 62
1, 436213, Note_off_c, 0, 59, 69
1, 436221, Note_on_c, 0, 69, 28
1, 436224, Note_off_c, 0, 71, 66
1, 436258, Note_off_c, 0, 69, 45
1, 436264, Note_on_c, 0, 49, 81
1, 436265, Note_on_c, 0, 61, 90
1, 436312, Note_off_c, 0, 61, 61
1, 436315, Note_on_c, 0, 62, 80
1, 436315, Note_on_c, 0, 74, 79
1, 436331, Note_off_c, 0, 49, 58
1, 436337, Note_off_c, 0, 74, 70
1, 436338, Note_off_c, 0, 62, 66
1, 436384, Note_on_c, 0, 61, 87
1, 436393, Note_on_c, 0, 57, 40
1, 436394, Note_on_c, 0, 52, 69
1, 436428, Note_off_c, 0, 61, 60
1, 436432, Note_off_c, 0, 52, 60
1, 436438, Note_off_c, 0, 57, 57
1, 436440, Note_on_c, 0, 59, 76
1, 436443, Note_on_c, 0, 71, 77
1, 436461, Note_off_c, 0, 59, 72
1, 436467, Note_off_c, 0, 71, 69
1, 436495, Note_on_c, 0, 61, 84
1, 436500, Note_on_c, 0, 52, 66
1, 436526, Note_off_c, 0, 52, 69
1, 436543, Note_on_c, 0, 62, 89
1, 436546, Note_off_c, 0, 61, 62
1, 436550, Note_on_c, 0, 74, 83
1, 436562, Note_off_c, 0, 62, 66
1, 436571, Note_off_c, 0, 74, 69
1, 436621, Note_on_c, 0, 52, 87
1, 436622, Note_on_c, 0, 64, 91
1, 436645, Control_c, 0, 64, 95
1, 436658, Note_on_c, 0, 54, 37
1, 436660, Control_c, 0, 64, 64
1, 436664, Note_off_c, 0, 64, 65
1, 436675, Control_c, 0, 64, 0
1, 436690, Note_on_c, 0, 66, 85
1, 436690, Note_on_c, 0, 78, 73
1, 436692, Note_off_c, 0, 54, 53
1, 436700, Note_off_c, 0, 52, 52
1, 436711, Note_off_c, 0, 66, 71
1, 436713, Note_off_c, 0, 78, 68
1, 436720, Control_c, 0, 64, 60
1, 436735, Control_c, 0, 64, 73
1, 436738, Note_on_c, 0, 57, 71
1, 436738, Note_on_c, 0, 64, 80
1, 436754, Note_on_c, 0, 61, 74
1, 436758, Control_c, 0, 64, 95
1, 436772, Note_off_c, 0, 64, 66
1, 436772, Control_c, 0, 64, 127
1, 436780, Note_off_c, 0, 61, 67
1, 436801, Note_off_c, 0, 57, 60
1, 436815, Note_on_c, 0, 63, 84
1, 436816, Note_on_c, 0, 75, 79
1, 436836, Note_off_c, 0, 75, 71
1, 436837, Note_off_c, 0, 63, 69
1, 436841, Note_on_c, 0, 57, 57
1, 436846, Note_on_c, 0, 64, 83
1, 436851, Note_on_c, 0, 61, 75
1, 436874, Note_off_c, 0, 57, 65
1, 436879, Note_off_c, 0, 61, 61
1, 436886, Note_off_c, 0, 64, 62
1, 436918, Note_on_c, 0, 78, 85
1, 436920, Note_on_c, 0, 66, 86
1, 436936, Note_off_c, 0, 78, 72
1, 436939, Note_off_c, 0, 66, 73
1, 436966, Note_on_c, 0, 67, 95
1, 436968, Note_on_c, 0, 55, 88
1, 437003, Note_off_c, 0, 67, 66
1, 437015, Note_off_c, 0, 55, 62
1, 437036, Note_on_c, 0, 81, 88
1, 437039, Note_on_c, 0, 69, 84
1, 437058, Note_off_c, 0, 81, 71
1, 437060, Note_off_c, 0, 69, 70
1, 437079, Note_on_c, 0, 61, 81
1, 437081, Note_on_c, 0, 67, 79
1, 437083, Note_on_c, 0, 64, 78
1, 437105, Note_off_c, 0, 67, 62
1, 437116, Note_off_c, 0, 64, 66
1, 437119, Note_off_c, 0, 61, 58
1, 437146, Note_on_c, 0, 78, 89
1, 437158, Note_on_c, 0, 66, 80
1, 437164, Note_off_c, 0, 78, 70
1, 437173, Note_off_c, 0, 66, 69
1, 437186, Note_on_c, 0, 67, 82
1, 437188, Note_on_c, 0, 58, 76
1, 437203, Note_on_c, 0, 64, 54
1, 437230, Note_off_c, 0, 67, 62
1, 437230, Note_off_c, 0, 64, 61
1, 437231, Control_c, 0, 64, 119
1, 437236, Note_off_c, 0, 58, 61
1, 437246, Control_c, 0, 64, 72
1, 437251, Note_on_c, 0, 80, 88
1, 437254, Poly_aftertouch_c, 0, 75, 0
1, 437256, Note_on_c, 0, 68, 81
1, 437261, Control_c, 0, 64, 0
1, 437268, Note_off_c, 0, 80, 73
1, 437271, Note_off_c, 0, 68, 70
1, 437306, Note_on_c, 0, 69, 92
1, 437307, Note_on_c, 0, 57, 89
1, 437307, Control_c, 0, 64, 64
1, 437321, Control_c, 0, 64, 73
1, 437336, Control_c, 0, 64, 82
1, 437351, Control_c, 0, 64, 92
1, 437352, Note_off_c, 0, 69, 64
1, 437361, Note_off_c, 0, 57, 60
1, 437361, Note_on_c, 0, 83, 90
1, 437366, Note_on_c, 0, 71, 83
1, 437366, Control_c, 0, 64, 104
1, 437380, Note_off_c, 0, 83, 74
1, 437381, Control_c, 0, 64, 127
1, 437388, Note_off_c, 0, 71, 72
1, 437390, Poly_aftertouch_c, 0, 64, 127
1, 437411, Note_on_c, 0, 64, 25
1, 437423, Note_on_c, 0, 61, 68
1, 437423, Note_on_c, 0, 69, 75
1, 437457, Note_off_c, 0, 69, 62
1, 437474, Note_on_c, 0, 80, 90
1, 437475, Note_on_c, 0, 68, 91
1, 437480, Note_off_c, 0, 64, 63
1, 437486, Note_off_c, 0, 61, 57
1, 437501, Note_off_c, 0, 80, 70
1, 437503, Note_off_c, 0, 68, 72
1, 437531, Note_on_c, 0, 61, 62
1, 437539, Note_on_c, 0, 69, 79
1, 437555, Note_on_c, 0, 64, 33
1, 437564, Note_off_c, 0, 69, 65
1, 437569, Note_off_c, 0, 61, 62
1, 437584, Note_on_c, 0, 71, 84
1, 437586, Note_off_c, 0, 64, 51
1, 437591, Note_on_c, 0, 83, 77
1, 437603, Note_off_c, 0, 71, 72
1, 437614, Note_off_c, 0, 83, 71
1, 437640, Control_c, 0, 64, 104
1, 437651, Note_on_c, 0, 73, 98
1, 437655, Control_c, 0, 64, 76
1, 437659, Note_on_c, 0, 61, 91
1, 437669, Control_c, 0, 64, 0
1, 437698, Note_on_c, 0, 74, 90
1, 437698, Note_off_c, 0, 73, 65
1, 437700, Note_on_c, 0, 86, 85
1, 437713, Note_off_c, 0, 61, 59
1, 437714, Control_c, 0, 64, 65
1, 437719, Note_off_c, 0, 86, 73
1, 437719, Note_off_c, 0, 74, 69
1, 437728, Control_c, 0, 64, 80
1, 437743, Control_c, 0, 64, 113
1, 437758, Control_c, 0, 64, 127
1, 437760, Note_on_c, 0, 73, 86
1, 437762, Note_on_c, 0, 63, 76
1, 437786, Note_on_c, 0, 69, 51
1, 437795, Poly_aftertouch_c, 0, 85, 0
1, 437799, Note_off_c, 0, 63, 62
1, 437802, Note_off_c, 0, 73, 63
1, 437810, Note_off_c, 0, 69, 58
1, 437814, Note_on_c, 0, 83, 81
1, 437814, Note_on_c, 0, 71, 74
1, 437835, Note_off_c, 0, 83, 74
1, 437838, Note_off_c, 0, 71, 69
1, 437860, Note_on_c, 0, 64, 50
1, 437869, Note_on_c, 0, 73, 94
1, 437914, Note_off_c, 0, 64, 64
1, 437915, Note_on_c, 0, 74, 92
1, 437918, Note_off_c, 0, 73, 64
1, 437920, Note_on_c, 0, 86, 85
1, 437934, Poly_aftertouch_c, 0, 69, 127
1, 437936, Note_off_c, 0, 74, 68
1, 437936, Control_c, 0, 64, 115
1, 437939, Note_off_c, 0, 86, 71
1, 437951, Control_c, 0, 64, 79
1, 437965, Poly_aftertouch_c, 0, 69, 0
1, 437966, Control_c, 0, 64, 0
1, 437994, Note_on_c, 0, 76, 95
1, 437997, Note_on_c, 0, 64, 90
1, 438010, Control_c, 0, 64, 43
1, 438025, Control_c, 0, 64, 68
1, 438035, Note_off_c, 0, 76, 67
1, 438038, Note_on_c, 0, 90, 90
1, 438040, Control_c, 0, 64, 83
1, 438044, Note_on_c, 0, 78, 87
1, 438050, Note_off_c, 0, 64, 60
1, 438054, Control_c, 0, 64, 119
1, 438056, Note_off_c, 0, 90, 71
1, 438061, Note_off_c, 0, 78, 72
1, 438070, Control_c, 0, 64, 127
1, 438103, Note_on_c, 0, 69, 70
1, 438105, Note_on_c, 0, 76, 79
1, 438109, Note_on_c, 0, 73, 76
1, 438133, Note_off_c, 0, 76, 66
1, 438138, Note_off_c, 0, 73, 66
1, 438151, Note_off_c, 0, 69, 61
1, 438156, Note_on_c, 0, 87, 85
1, 438157, Note_on_c, 0, 75, 81
1, 438170, Note_on_c, 0, 85, 61
1, 438175, Note_off_c, 0, 87, 73
1, 438178, Note_off_c, 0, 75, 67
1, 438190, Note_off_c, 0, 85, 63
1, 438205, Note_on_c, 0, 76, 84
1, 438210, Note_on_c, 0, 69, 58
1, 438213, Note_on_c, 0, 73, 80
1, 438225, Note_off_c, 0, 69, 66
1, 438248, Note_off_c, 0, 73, 68
1, 438253, Note_off_c, 0, 76, 63
1, 438264, Note_on_c, 0, 90, 94
1, 438264, Note_on_c, 0, 78, 89
1, 438280, Note_off_c, 0, 78, 73
1, 438284, Note_off_c, 0, 90, 66
1, 438287, Note_on_c, 0, 85, 44
1, 438288, Note_off_c, 0, 85, 127
1, 438300, Control_c, 0, 64, 86
1, 438315, Control_c, 0, 64, 61
1, 438325, Note_on_c, 0, 67, 92
1, 438326, Note_on_c, 0, 79, 96
1, 438330, Control_c, 0, 64, 0
1, 438359, Control_c, 0, 64, 44
1, 438364, Note_off_c, 0, 79, 65
1, 438374, Control_c, 0, 64, 71
1, 438377, Note_off_c, 0, 67, 62
1, 438378, Note_on_c, 0, 81, 96
1, 438381, Note_on_c, 0, 93, 81
1, 438389, Control_c, 0, 64, 90
1, 438398, Note_off_c, 0, 81, 72
1, 438401, Note_off_c, 0, 93, 71
1, 438404, Control_c, 0, 64, 127
1, 438419, Note_on_c, 0, 92, 17
1, 438435, Note_on_c, 0, 73, 80
1, 438439, Note_on_c, 0, 79, 83
1, 438440, Note_on_c, 0, 76, 80
1, 438470, Note_off_c, 0, 79, 63
1, 438473, Note_off_c, 0, 92, 27
1, 438483, Note_off_c, 0, 73, 64
1, 438485, Note_off_c, 0, 76, 61
1, 438488, Note_on_c, 0, 90, 104
1, 438496, Note_on_c, 0, 78, 84
1, 438507, Note_off_c, 0, 90, 68
1, 438515, Note_off_c, 0, 78, 72
1, 438544, Note_on_c, 0, 70, 80
1, 438547, Note_on_c, 0, 79, 81
1, 438560, Note_on_c, 0, 76, 44
1, 438579, Note_off_c, 0, 79, 63
1, 438580, Note_off_c, 0, 76, 61
1, 438591, Note_on_c, 0, 92, 92
1, 438592, Note_on_c, 0, 80, 90
1, 438593, Note_off_c, 0, 70, 63
1, 438610, Note_off_c, 0, 80, 73
1, 438614, Note_off_c, 0, 92, 66
1, 438622, Note_on_c, 0, 90, 38
1, 438623, Note_off_c, 0, 90, 127
1, 438625, Control_c, 0, 64, 85
1, 438640, Control_c, 0, 64, 35
1, 438654, Note_on_c, 0, 69, 94
1, 438654, Note_on_c, 0, 81, 106
1, 438655, Control_c, 0, 64, 0
1, 438686, Note_on_c, 0, 76, 14
1, 438696, Note_off_c, 0, 81, 67
1, 438699, Control_c, 0, 64, 67
1, 438701, Note_on_c, 0, 84, 85
1, 438710, Note_on_c, 0, 96, 71
1, 438711, Note_off_c, 0, 69, 62
1, 438711, Note_off_c, 0, 76, 47
1, 438713, Note_on_c, 0, 95, 75
1, 438715, Control_c, 0, 64, 84
1, 438723, Note_on_c, 0, 90, 49
1, 438724, Note_off_c, 0, 90, 127
1, 438726, Note_off_c, 0, 84, 68
1, 438730, Control_c, 0, 64, 127
1, 438731, Note_off_c, 0, 96, 65
1, 438738, Note_off_c, 0, 95, 66
1, 438769, Note_on_c, 0, 81, 91
1, 438771, Note_on_c, 0, 76, 63
1, 438774, Note_on_c, 0, 73, 76
1, 438812, Note_off_c, 0, 81, 63
1, 438813, Note_on_c, 0, 92, 96
1, 438816, Note_on_c, 0, 82, 82
1, 438830, Note_off_c, 0, 76, 64
1, 438830, Note_off_c, 0, 92, 70
1, 438833, Note_on_c, 0, 80, 58
1, 438834, Note_off_c, 0, 73, 58
1, 438836, Note_off_c, 0, 82, 72
1, 438852, Note_off_c, 0, 80, 63
1, 438869, Note_on_c, 0, 73, 66
1, 438871, Note_on_c, 0, 81, 86
1, 438884, Note_on_c, 0, 76, 54
1, 438907, Note_off_c, 0, 76, 66
1, 438911, Note_off_c, 0, 81, 65
1, 438917, Note_off_c, 0, 73, 64
1, 438917, Note_on_c, 0, 83, 97
1, 438929, Note_on_c, 0, 95, 70
1, 438931, Note_on_c, 0, 93, 68
1, 438944, Note_off_c, 0, 83, 67
1, 438956, Note_off_c, 0, 95, 68
1, 438959, Note_off_c, 0, 93, 66
1, 438968, Control_c, 0, 64, 87
1, 438982, Control_c, 0, 64, 58
1, 438995, Note_on_c, 0, 85, 98
1, 439002, Note_on_c, 0, 73, 86
1, 439005, Control_c, 0, 64, 0
1, 439035, Control_c, 0, 64, 64
1, 439043, Note_on_c, 0, 86, 89
1, 439045, Note_on_c, 0, 98, 87
1, 439045, Note_off_c, 0, 85, 63
1, 439049, Control_c, 0, 64, 79
1, 439055, Note_off_c, 0, 73, 63
1, 439064, Note_off_c, 0, 98, 72
1, 439064, Control_c, 0, 64, 127
1, 439067, Note_off_c, 0, 86, 65
1, 439102, Note_on_c, 0, 85, 88
1, 439109, Note_on_c, 0, 81, 58
1, 439115, Note_on_c, 0, 76, 71
1, 439143, Note_off_c, 0, 85, 65
1, 439149, Note_off_c, 0, 81, 64
1, 439157, Note_off_c, 0, 76, 61
1, 439158, Note_on_c, 0, 83, 85
1, 439161, Note_on_c, 0, 95, 82
1, 439178, Note_off_c, 0, 83, 73
1, 439182, Note_off_c, 0, 95, 71
1, 439212, Note_on_c, 0, 85, 93
1, 439217, Note_on_c, 0, 76, 72
1, 439248, Note_off_c, 0, 76, 68
1, 439259, Note_on_c, 0, 86, 91
1, 439260, Note_off_c, 0, 85, 63
1, 439271, Note_on_c, 0, 98, 75
1, 439281, Note_off_c, 0, 86, 66
1, 439291, Note_on_c, 0, 96, 42
1, 439293, Note_off_c, 0, 98, 69
1, 439318, Note_off_c, 0, 96, 57
1, 439331, Note_on_c, 0, 88, 100
1, 439334, Note_on_c, 0, 76, 95
1, 439372, Note_off_c, 0, 88, 68
1, 439383, Note_on_c, 0, 102, 95
1, 439384, Note_off_c, 0, 76, 60
1, 439387, Note_on_c, 0, 90, 96
1, 439405, Note_off_c, 0, 90, 70
1, 439406, Note_off_c, 0, 102, 66
1, 439443, Note_on_c, 0, 88, 86
1, 439445, Note_on_c, 0, 81, 82
1, 439453, Note_on_c, 0, 85, 83
1, 439477, Note_off_c, 0, 85, 67
1, 439484, Note_off_c, 0, 88, 64
1, 439494, Note_off_c, 0, 81, 64
1, 439500, Note_on_c, 0, 99, 97
1, 439504, Note_on_c, 0, 87, 90
1, 439522, Note_off_c, 0, 87, 75
1, 439522, Note_off_c, 0, 99, 68
1, 439538, Note_on_c, 0, 97, 27
1, 439539, Note_off_c, 0, 97, 127
1, 439546, Note_on_c, 0, 88, 85
1, 439554, Note_on_c, 0, 85, 85
1, 439555, Note_on_c, 0, 81, 66
1, 439575, Note_off_c, 0, 81, 62
1, 439579, Note_off_c, 0, 85, 65
1, 439585, Note_off_c, 0, 88, 65
1, 439599, Note_on_c, 0, 102, 106
1, 439600, Note_on_c, 0, 90, 95
1, 439611, Control_c, 0, 64, 93
1, 439615, Note_off_c, 0, 90, 71
1, 439624, Note_on_c, 0, 99, 51
1, 439625, Note_off_c, 0, 99, 127
1, 439626, Control_c, 0, 64, 60
1, 439635, Note_off_c, 0, 102, 63
1, 439641, Control_c, 0, 64, 0
1, 439656, Note_on_c, 0, 91, 105
1, 439657, Note_on_c, 0, 79, 101
1, 439671, Control_c, 0, 64, 46
1, 439686, Control_c, 0, 64, 72
1, 439701, Control_c, 0, 64, 106
1, 439703, Note_off_c, 0, 91, 68
1, 439704, Note_off_c, 0, 79, 64
1, 439713, Note_on_c, 0, 105, 97
1, 439713, Note_on_c, 0, 93, 97
1, 439716, Control_c, 0, 64, 127
1, 439730, Note_off_c, 0, 105, 75
1, 439734, Note_off_c, 0, 93, 68
1, 439749, Note_on_c, 0, 99, 35
1, 439750, Note_off_c, 0, 99, 127
1, 439750, Note_on_c, 0, 104, 36
1, 439773, Note_on_c, 0, 85, 86
1, 439775, Note_on_c, 0, 88, 70
1, 439776, Note_on_c, 0, 91, 77
1, 439784, Note_off_c, 0, 104, 35
1, 439807, Note_off_c, 0, 91, 65
1, 439820, Note_off_c, 0, 85, 64
1, 439822, Note_off_c, 0, 88, 65
1, 439829, Note_on_c, 0, 102, 102
1, 439839, Note_on_c, 0, 90, 86
1, 439854, Note_off_c, 0, 102, 65
1, 439856, Note_off_c, 0, 90, 73
1, 439879, Note_on_c, 0, 82, 75
1, 439882, Note_on_c, 0, 91, 86
1, 439889, Note_on_c, 0, 88, 64
1, 439919, Note_off_c, 0, 88, 68
1, 439924, Note_off_c, 0, 91, 65
1, 439926, Note_off_c, 0, 82, 65
1, 439929, Note_on_c, 0, 102, 106
1, 439932, Note_on_c, 0, 90, 84
1, 439951, Note_off_c, 0, 90, 72
1, 439956, Note_off_c, 0, 102, 64
1, 439987, Note_on_c, 0, 91, 92
1, 439989, Note_on_c, 0, 81, 98
1, 439990, Note_on_c, 0, 88, 87
1, 440032, Note_off_c, 0, 91, 67
1, 440038, Note_off_c, 0, 88, 65
1, 440043, Note_on_c, 0, 105, 93
1, 440046, Note_on_c, 0, 93, 92
1, 440046, Note_off_c, 0, 81, 60
1, 440062, Note_off_c, 0, 105, 71
1, 440063, Note_on_c, 0, 104, 56
1, 440065, Note_off_c, 0, 93, 70
1, 440086, Note_off_c, 0, 104, 57
1, 440087, Note_on_c, 0, 95, 19
1, 440101, Note_on_c, 0, 91, 89
1, 440106, Note_on_c, 0, 88, 75
1, 440108, Note_on_c, 0, 85, 79
1, 440115, Note_on_c, 0, 81, 63
1, 440135, Note_off_c, 0, 95, 31
1, 440143, Note_off_c, 0, 81, 67
1, 440146, Note_off_c, 0, 91, 66
1, 440148, Note_off_c, 0, 88, 63
1, 440154, Note_on_c, 0, 102, 97
1, 440156, Note_off_c, 0, 85, 63
1, 440161, Note_on_c, 0, 90, 91
1, 440178, Note_off_c, 0, 90, 72
1, 440178, Note_off_c, 0, 102, 66
1, 440210, Note_on_c, 0, 81, 94
1, 440210, Note_on_c, 0, 91, 84
1, 440220, Note_on_c, 0, 88, 72
1, 440249, Note_off_c, 0, 88, 68
1, 440255, Note_off_c, 0, 91, 66
1, 440257, Note_on_c, 0, 102, 102
1, 440258, Note_on_c, 0, 90, 93
1, 440258, Note_off_c, 0, 81, 65
1, 440264, Poly_aftertouch_c, 0, 99, 0
1, 440279, Note_off_c, 0, 90, 68
1, 440297, Note_off_c, 0, 102, 63
1, 440301, Note_on_c, 0, 101, 6
1, 440302, Note_off_c, 0, 101, 127
1, 440325, Note_on_c, 0, 91, 98
1, 440327, Note_on_c, 0, 79, 91
1, 440329, Note_on_c, 0, 88, 90
1, 440368, Note_off_c, 0, 88, 64
1, 440368, Note_off_c, 0, 91, 66
1, 440372, Note_off_c, 0, 79, 60
1, 440373, Note_on_c, 0, 105, 100
1, 440374, Note_on_c, 0, 93, 100
1, 440394, Note_on_c, 0, 104, 59
1, 440397, Note_off_c, 0, 105, 67
1, 440404, Note_off_c, 0, 93, 62
1, 440416, Note_off_c, 0, 104, 59
1, 440435, Note_on_c, 0, 85, 90
1, 440435, Note_on_c, 0, 91, 94
1, 440443, Note_on_c, 0, 88, 73
1, 440467, Note_off_c, 0, 88, 69
1, 440479, Note_off_c, 0, 91, 66
1, 440495, Note_off_c, 0, 85, 64
1, 440498, Note_on_c, 0, 102, 101
1, 440503, Note_on_c, 0, 90, 96
1, 440521, Note_off_c, 0, 90, 70
1, 440525, Note_off_c, 0, 102, 64
1, 440551, Note_on_c, 0, 91, 90
1, 440556, Note_on_c, 0, 88, 69
1, 440557, Note_on_c, 0, 82, 79
1, 440589, Note_off_c, 0, 88, 65
1, 440599, Note_off_c, 0, 91, 67
1, 440602, Note_on_c, 0, 102, 109
1, 440603, Note_on_c, 0, 90, 99
1, 440604, Note_off_c, 0, 82, 65
1, 440622, Note_on_c, 0, 99, 62
1, 440623, Note_off_c, 0, 99, 127
1, 440632, Note_off_c, 0, 90, 63
1, 440634, Poly_aftertouch_c, 0, 85, 127
1, 440641, Note_off_c, 0, 102, 65
1, 440659, Poly_aftertouch_c, 0, 85, 0
1, 440663, Note_on_c, 0, 91, 104
1, 440667, Note_on_c, 0, 81, 103
1, 440667, Note_on_c, 0, 88, 93
1, 440691, Note_on_c, 0, 82, 50
1, 440707, Note_off_c, 0, 88, 65
1, 440708, Note_off_c, 0, 91, 67
1, 440710, Note_off_c, 0, 82, 62
1, 440719, Note_on_c, 0, 105, 100
1, 440721, Note_on_c, 0, 93, 95
1, 440724, Note_off_c, 0, 81, 61
1, 440747, Note_off_c, 0, 93, 62
1, 440750, Note_off_c, 0, 105, 65
1, 440753, Note_on_c, 0, 104, 32
1, 440776, Note_on_c, 0, 91, 91
1, 440783, Note_on_c, 0, 88, 77
1, 440788, Note_on_c, 0, 85, 72
1, 440789, Note_off_c, 0, 104, 46
1, 440804, Note_on_c, 0, 81, 56
1, 440824, Note_off_c, 0, 91, 67
1, 440827, Note_off_c, 0, 88, 63
1, 440831, Note_off_c, 0, 81, 56
1, 440835, Note_on_c, 0, 102, 107
1, 440837, Note_off_c, 0, 85, 61
1, 440841, Note_on_c, 0, 90, 96
1, 440858, Note_off_c, 0, 90, 71
1, 440872, Note_off_c, 0, 102, 63
1, 440888, Note_on_c, 0, 81, 92
1, 440890, Note_on_c, 0, 91, 82
1, 440896, Note_on_c, 0, 88, 69
1, 440935, Note_off_c, 0, 88, 64
1, 440938, Note_off_c, 0, 91, 66
1, 440943, Note_off_c, 0, 81, 65
1, 440944, Note_on_c, 0, 90, 97
1, 440947, Note_on_c, 0, 102, 98
1, 440973, Note_on_c, 0, 101, 45
1, 440974, Note_off_c, 0, 101, 127
1, 440975, Note_off_c, 0, 102, 63
1, 440980, Note_off_c, 0, 90, 63
1, 440986, Note_on_c, 0, 99, 24
1, 441009, Note_on_c, 0, 91, 102
1, 441012, Note_on_c, 0, 79, 95
1, 441013, Note_on_c, 0, 88, 98
1, 441033, Note_off_c, 0, 99, 29
1, 441052, Note_off_c, 0, 88, 65
1, 441060, Note_off_c, 0, 91, 67
1, 441069, Note_off_c, 0, 79, 60
1, 441082, Note_on_c, 0, 105, 90
1, 441084, Note_on_c, 0, 93, 91
1, 441107, Note_off_c, 0, 93, 66
1, 441108, Note_off_c, 0, 105, 66
1, 441134, Note_on_c, 0, 85, 83
1, 441135, Note_on_c, 0, 91, 81
1, 441146, Note_on_c, 0, 88, 75
1, 441170, Note_off_c, 0, 88, 69
1, 441179, Note_off_c, 0, 91, 67
1, 441187, Note_off_c, 0, 85, 64
1, 441204, Note_on_c, 0, 102, 107
1, 441205, Note_on_c, 0, 90, 95
1, 441245, Note_off_c, 0, 102, 62
1, 441250, Note_off_c, 0, 90, 62
1, 441266, Note_on_c, 0, 91, 88
1, 441275, Note_on_c, 0, 82, 69
1, 441278, Note_on_c, 0, 88, 57
1, 441316, Note_off_c, 0, 88, 64
1, 441330, Note_off_c, 0, 82, 65
1, 441331, Note_off_c, 0, 91, 66
1, 441340, Note_on_c, 0, 102, 107
1, 441343, Note_on_c, 0, 90, 97
1, 441369, Control_c, 0, 64, 106
1, 441371, Note_off_c, 0, 90, 62
1, 441384, Control_c, 0, 64, 68
1, 441385, Note_off_c, 0, 102, 65
1, 441399, Control_c, 0, 64, 0
1, 441418, Note_on_c, 0, 91, 107
1, 441421, Note_on_c, 0, 88, 96
1, 441422, Note_on_c, 0, 81, 103
1, 441422, Note_on_c, 0, 85, 93
1, 441443, Control_c, 0, 64, 59
1, 441458, Control_c, 0, 64, 94
1, 441469, Note_off_c, 0, 88, 60
1, 441473, Control_c, 0, 64, 127
1, 441486, Note_off_c, 0, 91, 62
1, 441504, Note_off_c, 0, 81, 62
1, 441511, Note_off_c, 0, 85, 64
1, 441533, Note_on_c, 0, 105, 95
1, 441534, Note_on_c, 0, 93, 86
1, 441555, Note_off_c, 0, 93, 69
1, 441561, Note_off_c, 0, 105, 65
1, 441605, Note_on_c, 0, 90, 89
1, 441650, Note_off_c, 0, 90, 64
1, 441658, Note_on_c, 0, 103, 93
1, 441659, Note_on_c, 0, 91, 91
1, 441687, Note_off_c, 0, 91, 67
1, 441691, Note_off_c, 0, 103, 64
1, 441718, Note_on_c, 0, 88, 84
1, 441764, Note_off_c, 0, 88, 66
1, 441776, Note_on_c, 0, 102, 92
1, 441779, Note_on_c, 0, 90, 85
1, 441799, Note_off_c, 0, 90, 72
1, 441799, Note_off_c, 0, 102, 67
1, 441821, Note_on_c, 0, 86, 76
1, 441874, Note_off_c, 0, 86, 65
1, 441892, Note_on_c, 0, 100, 89
1, 441898, Note_on_c, 0, 88, 78
1, 441915, Note_off_c, 0, 100, 69
1, 441919, Note_off_c, 0, 88, 70
1, 441942, Note_on_c, 0, 85, 100
1, 441995, Note_off_c, 0, 85, 66
1, 442011, Note_on_c, 0, 86, 83
1, 442011, Note_on_c, 0, 98, 82
1, 442029, Note_off_c, 0, 86, 71
1, 442031, Note_off_c, 0, 98, 71
1, 442059, Note_on_c, 0, 83, 98
1, 442106, Note_off_c, 0, 83, 68
1, 442118, Note_on_c, 0, 85, 84
1, 442120, Note_on_c, 0, 97, 80
1, 442140, Note_off_c, 0, 85, 70
1, 442142, Note_off_c, 0, 97, 70
1, 442143, Note_on_c, 0, 94, 52
1, 442144, Note_off_c, 0, 94, 127
1, 442172, Note_on_c, 0, 81, 111
1, 442213, Note_off_c, 0, 81, 66
1, 442231, Note_on_c, 0, 95, 93
1, 442234, Note_on_c, 0, 83, 90
1, 442255, Note_off_c, 0, 83, 72
1, 442259, Note_off_c, 0, 95, 61
1, 442286, Note_on_c, 0, 79, 100
1, 442324, Note_off_c, 0, 79, 66
1, 442345, Note_on_c, 0, 93, 89
1, 442347, Note_on_c, 0, 81, 89
1, 442364, Note_off_c, 0, 93, 68
1, 442366, Note_off_c, 0, 81, 73
1, 442395, Note_on_c, 0, 78, 95
1, 442439, Note_off_c, 0, 78, 64
1, 442451, Note_on_c, 0, 79, 88
1, 442451, Note_on_c, 0, 91, 90
1, 442469, Note_off_c, 0, 79, 71
1, 442470, Note_off_c, 0, 91, 73
1, 442487, Note_on_c, 0, 90, 21
1, 442488, Note_off_c, 0, 90, 127
1, 442510, Note_on_c, 0, 76, 94
1, 442549, Note_off_c, 0, 76, 67
1, 442557, Note_on_c, 0, 78, 91
1, 442559, Note_on_c, 0, 90, 86
1, 442575, Note_on_c, 0, 87, 60
1, 442576, Note_off_c, 0, 87, 127
1, 442577, Note_off_c, 0, 78, 66
1, 442578, Note_off_c, 0, 90, 71
1, 442615, Note_on_c, 0, 74, 104
1, 442655, Note_off_c, 0, 74, 65
1, 442667, Note_on_c, 0, 88, 93
1, 442669, Note_on_c, 0, 76, 88
1, 442685, Note_off_c, 0, 76, 74
1, 442685, Note_off_c, 0, 88, 68
1, 442727, Note_on_c, 0, 73, 102
1, 442775, Note_off_c, 0, 73, 66
1, 442792, Note_on_c, 0, 86, 79
1, 442794, Note_on_c, 0, 74, 81
1, 442813, Note_off_c, 0, 86, 69
1, 442816, Note_off_c, 0, 74, 67
1, 442819, Note_on_c, 0, 84, 36
1, 442844, Note_on_c, 0, 71, 94
1, 442847, Note_off_c, 0, 84, 57
1, 442886, Note_off_c, 0, 71, 67
1, 442890, Note_on_c, 0, 73, 85
1, 442890, Note_on_c, 0, 85, 92
1, 442911, Note_off_c, 0, 73, 69
1, 442913, Note_off_c, 0, 85, 69
1, 442920, Note_on_c, 0, 82, 43
1, 442921, Note_off_c, 0, 82, 127
1, 442949, Note_on_c, 0, 69, 100
1, 442996, Note_off_c, 0, 69, 65
1, 443005, Note_on_c, 0, 83, 89
1, 443007, Note_on_c, 0, 71, 78
1, 443026, Note_off_c, 0, 83, 72
1, 443028, Note_off_c, 0, 71, 71
1, 443032, Note_on_c, 0, 82, 28
1, 443061, Note_off_c, 0, 82, 47
1, 443063, Note_on_c, 0, 67, 107
1, 443105, Note_off_c, 0, 67, 66
1, 443120, Note_on_c, 0, 81, 92
1, 443121, Note_on_c, 0, 69, 86
1, 443139, Note_off_c, 0, 69, 69
1, 443141, Note_off_c, 0, 81, 71
1, 443172, Note_on_c, 0, 66, 102
1, 443214, Note_off_c, 0, 66, 68
1, 443227, Note_on_c, 0, 67, 89
1, 443228, Note_on_c, 0, 79, 88
1, 443245, Note_off_c, 0, 67, 71
1, 443249, Note_off_c, 0, 79, 69
1, 443281, Note_on_c, 0, 64, 93
1, 443320, Note_off_c, 0, 64, 67
1, 443338, Note_on_c, 0, 66, 95
1, 443343, Note_on_c, 0, 78, 84
1, 443354, Note_off_c, 0, 66, 74
1, 443363, Note_off_c, 0, 78, 69
1, 443367, Note_on_c, 0, 75, 38
1, 443368, Note_off_c, 0, 75, 127
1, 443386, Control_c, 0, 64, 115
1, 443388, Note_on_c, 0, 62, 98
1, 443401, Control_c, 0, 64, 80
1, 443416, Control_c, 0, 64, 0
1, 443431, Note_off_c, 0, 62, 65
1, 443445, Note_on_c, 0, 74, 86
1, 443451, Note_on_c, 0, 64, 77
1, 443460, Control_c, 0, 64, 62
1, 443471, Note_off_c, 0, 64, 72
1, 443475, Control_c, 0, 64, 74
1, 443476, Note_off_c, 0, 74, 66
1, 443498, Control_c, 0, 64, 102
1, 443513, Control_c, 0, 64, 127
1, 443517, Note_on_c, 0, 61, 95
1, 443559, Note_off_c, 0, 61, 65
1, 443563, Poly_aftertouch_c, 0, 68, 0
1, 443572, Note_on_c, 0, 62, 84
1, 443574, Note_on_c, 0, 74, 82
1, 443576, Poly_aftertouch_c, 0, 68, 0
1, 443590, Note_off_c, 0, 74, 74
1, 443592, Note_off_c, 0, 62, 68
1, 443612, Note_on_c, 0, 73, 12
1, 443627, Note_on_c, 0, 59, 88
1, 443655, Note_off_c, 0, 73, 53
1, 443671, Note_off_c, 0, 59, 65
1, 443672, Poly_aftertouch_c, 0, 70, 0
1, 443679, Note_on_c, 0, 61, 83
1, 443680, Note_on_c, 0, 73, 71
1, 443682, Poly_aftertouch_c, 0, 70, 0
1, 443701, Note_off_c, 0, 61, 66
1, 443705, Note_off_c, 0, 73, 68
1, 443735, Note_on_c, 0, 57, 100
1, 443778, Note_off_c, 0, 57, 64
1, 443796, Note_on_c, 0, 59, 81
1, 443797, Note_on_c, 0, 71, 85
1, 443816, Note_off_c, 0, 71, 72
1, 443820, Note_off_c, 0, 59, 67
1, 443824, Control_c, 0, 64, 113
1, 443839, Control_c, 0, 64, 83
1, 443850, Note_on_c, 0, 55, 100
1, 443854, Control_c, 0, 64, 59
1, 443869, Control_c, 0, 64, 0
1, 443884, Control_c, 0, 64, 56
1, 443892, Note_off_c, 0, 55, 66
1, 443898, Control_c, 0, 64, 66
1, 443910, Note_on_c, 0, 57, 84
1, 443910, Note_on_c, 0, 69, 85
1, 443913, Control_c, 0, 64, 76
1, 443928, Control_c, 0, 64, 95
1, 443929, Note_off_c, 0, 57, 71
1, 443931, Note_off_c, 0, 69, 71
1, 443943, Control_c, 0, 64, 127
1, 443968, Note_on_c, 0, 54, 90
1, 443984, Poly_aftertouch_c, 0, 68, 127
1, 444011, Poly_aftertouch_c, 0, 63, 0
1, 444014, Note_off_c, 0, 54, 64
1, 444017, Poly_aftertouch_c, 0, 68, 0
1, 444019, Note_on_c, 0, 55, 87
1, 444024, Note_on_c, 0, 67, 84
1, 444045, Note_off_c, 0, 55, 66
1, 444045, Note_off_c, 0, 67, 69
1, 444084, Note_on_c, 0, 52, 88
1, 444120, Control_c, 0, 64, 115
1, 444128, Note_on_c, 0, 54, 88
1, 444131, Note_off_c, 0, 52, 64
1, 444134, Note_on_c, 0, 66, 86
1, 444134, Control_c, 0, 64, 88
1, 444149, Control_c, 0, 64, 63
1, 444154, Note_off_c, 0, 66, 72
1, 444160, Note_off_c, 0, 54, 63
1, 444164, Control_c, 0, 64, 0
1, 444196, Note_on_c, 0, 50, 91
1, 444208, Control_c, 0, 64, 56
1, 444223, Note_on_c, 0, 48, 45
1, 444224, Note_off_c, 0, 48, 127
1, 444224, Control_c, 0, 64, 69
1, 444246, Control_c, 0, 64, 81
1, 444252, Note_off_c, 0, 50, 65
1, 444258, Note_on_c, 0, 64, 86
1, 444260, Note_on_c, 0, 52, 81
1, 444261, Control_c, 0, 64, 103
1, 444276, Control_c, 0, 64, 127
1, 444283, Note_off_c, 0, 64, 65
1, 444284, Note_off_c, 0, 52, 69
1, 444325, Note_on_c, 0, 49, 90
1, 444369, Note_off_c, 0, 49, 64
1, 444377, Note_on_c, 0, 50, 83
1, 444380, Note_on_c, 0, 62, 79
1, 444402, Note_off_c, 0, 50, 69
1, 444403, Note_off_c, 0, 62, 67
1, 444435, Note_on_c, 0, 47, 90
1, 444455, Poly_aftertouch_c, 0, 61, 127
1, 444473, Poly_aftertouch_c, 0, 61, 0
1, 444484, Note_off_c, 0, 47, 64
1, 444484, Control_c, 0, 64, 112
1, 444488, Note_on_c, 0, 61, 50
1, 444491, Note_on_c, 0, 49, 81
1, 444499, Control_c, 0, 64, 88
1, 444513, Control_c, 0, 64, 67
1, 444515, Note_off_c, 0, 49, 66
1, 444521, Note_off_c, 0, 61, 63
1, 444528, Control_c, 0, 64, 0
1, 444545, Note_on_c, 0, 45, 101
1, 444587, Control_c, 0, 64, 60
1, 444597, Note_off_c, 0, 45, 65
1, 444602, Control_c, 0, 64, 69
1, 444615, Note_on_c, 0, 47, 82
1, 444617, Control_c, 0, 64, 78
1, 444619, Note_on_c, 0, 59, 76
1, 444632, Control_c, 0, 64, 90
1, 444640, Note_off_c, 0, 47, 68
1, 444643, Note_off_c, 0, 59, 70
1, 444646, Control_c, 0, 64, 97
1, 444661, Control_c, 0, 64, 99
1, 444670, Note_on_c, 0, 44, 88
1, 444676, Control_c, 0, 64, 101
1, 444691, Control_c, 0, 64, 104
1, 444706, Control_c, 0, 64, 110
1, 444721, Control_c, 0, 64, 119
1, 444727, Note_off_c, 0, 44, 61
1, 444733, Note_on_c, 0, 46, 85
1, 444733, Note_on_c, 0, 58, 85
1, 444736, Control_c, 0, 64, 127
1, 444754, Note_off_c, 0, 58, 70
1, 444757, Note_off_c, 0, 46, 70
1, 444780, Control_c, 0, 64, 106
1, 444786, Note_on_c, 0, 45, 92
1, 444795, Control_c, 0, 64, 88
1, 444810, Control_c, 0, 64, 68
1, 444825, Control_c, 0, 64, 0
1, 444840, Note_off_c, 0, 45, 63
1, 444851, Note_on_c, 0, 59, 80
1, 444852, Note_on_c, 0, 47, 79
1, 444869, Control_c, 0, 64, 63
1, 444873, Note_off_c, 0, 59, 69
1, 444879, Note_off_c, 0, 47, 65
1, 444884, Control_c, 0, 64, 72
1, 444899, Control_c, 0, 64, 87
1, 444905, Note_on_c, 0, 44, 95
1, 444913, Control_c, 0, 64, 109
1, 444928, Control_c, 0, 64, 127
1, 444955, Note_off_c, 0, 44, 64
1, 444968, Note_on_c, 0, 46, 83
1, 444968, Note_on_c, 0, 58, 89
1, 444997, Note_off_c, 0, 58, 67
1, 445001, Note_off_c, 0, 46, 70
1, 445036, Note_on_c, 0, 45, 93
1, 445082, Note_off_c, 0, 45, 64
1, 445108, Note_on_c, 0, 47, 79
1, 445114, Note_on_c, 0, 59, 68
1, 445133, Note_off_c, 0, 47, 67
1, 445141, Note_off_c, 0, 59, 63
1, 445157, Note_on_c, 0, 44, 91
1, 445208, Note_off_c, 0, 44, 62
1, 445230, Note_on_c, 0, 58, 86
1, 445232, Note_on_c, 0, 46, 83
1, 445248, Note_off_c, 0, 58, 74
1, 445256, Note_off_c, 0, 46, 69
1, 445281, Note_on_c, 0, 45, 97
1, 445331, Note_off_c, 0, 45, 64
1, 445349, Note_on_c, 0, 47, 84
1, 445350, Note_on_c, 0, 59, 82
1, 445369, Note_off_c, 0, 59, 73
1, 445381, Note_off_c, 0, 47, 64
1, 445408, Note_on_c, 0, 44, 91
1, 445457, Note_off_c, 0, 44, 62
1, 445472, Note_on_c, 0, 46, 93
1, 445474, Note_on_c, 0, 58, 91
1, 445492, Note_off_c, 0, 58, 70
1, 445496, Note_off_c, 0, 46, 65
1, 445514, Control_c, 0, 64, 112
1, 445523, Note_on_c, 0, 45, 90
1, 445529, Control_c, 0, 64, 83
1, 445544, Control_c, 0, 64, 0
1, 445578, Note_on_c, 0, 59, 90
1, 445579, Note_on_c, 0, 47, 82
1, 445581, Note_off_c, 0, 45, 64
1, 445602, Note_off_c, 0, 47, 67
1, 445618, Note_off_c, 0, 59, 58
1, 445634, Control_c, 0, 64, 65
1, 445647, Note_on_c, 0, 45, 105
1, 445649, Control_c, 0, 64, 127
1, 445651, Note_on_c, 0, 33, 96
1, 445689, Note_off_c, 0, 33, 61
1, 445701, Note_off_c, 0, 45, 62
1, 445749, Poly_aftertouch_c, 0, 34, 0
1, 445779, Poly_aftertouch_c, 0, 34, 0
1, 445907, Note_on_c, 0, 76, 83
1, 445907, Note_on_c, 0, 81, 101
1, 445910, Note_on_c, 0, 69, 84
1, 445910, Note_on_c, 0, 73, 86
1, 445910, Note_on_c, 0, 64, 86
1, 445916, Note_on_c, 0, 61, 80
1, 445919, Note_on_c, 0, 52, 73
1, 445929, Note_off_c, 0, 64, 72
1, 445929, Note_off_c, 0, 69, 70
1, 445935, Note_on_c, 0, 57, 50
1, 445938, Note_off_c, 0, 61, 69
1, 445938, Note_off_c, 0, 76, 63
1, 445946, Note_off_c, 0, 73, 63
1, 445955, Note_off_c, 0, 81, 68
1, 445961, Note_off_c, 0, 57, 53
1, 445964, Note_off_c, 0, 52, 62
1, 446058, Note_on_c, 0, 81, 105
1, 446059, Note_on_c, 0, 93, 87
1, 446063, Note_on_c, 0, 83, 85
1, 446065, Note_on_c, 0, 95, 86
1, 446067, Note_on_c, 0, 45, 87
1, 446067, Note_on_c, 0, 86, 75
1, 446068, Note_on_c, 0, 33, 76
1, 446075, Note_on_c, 0, 43, 75
1, 446077, Note_off_c, 0, 95, 72
1, 446079, Note_off_c, 0, 93, 71
1, 446080, Note_off_c, 0, 81, 68
1, 446083, Note_off_c, 0, 83, 75
1, 446089, Note_off_c, 0, 86, 71
1, 446089, Note_off_c, 0, 33, 62
1, 446095, Note_off_c, 0, 45, 67
1, 446106, Note_off_c, 0, 43, 64
1, 446205, Control_c, 0, 64, 92
1, 446220, Control_c, 0, 64, 67
1, 446235, Control_c, 0, 64, 0
1, 446280, Control_c, 0, 64, 49
1, 446294, Control_c, 0, 64, 70
1, 446309, Control_c, 0, 64, 87
1, 446324, Control_c, 0, 64, 127
1, 446325, Note_on_c, 0, 65, 94
1, 446327, Note_on_c, 0, 83, 95
1, 446329, Note_on_c, 0, 80, 91
1, 446331, Note_on_c, 0, 74, 81
1, 446332, Note_on_c, 0, 71, 80
1, 446334, Note_on_c, 0, 62, 36
1, 446340, Note_on_c, 0, 53, 78
1, 446346, Note_off_c, 0, 65, 72
1, 446349, Note_off_c, 0, 74, 72
1, 446352, Note_off_c, 0, 71, 71
1, 446364, Note_off_c, 0, 62, 48
1, 446372, Note_off_c, 0, 83, 69
1, 446374, Note_on_c, 0, 57, 17
1, 446380, Note_off_c, 0, 80, 69
1, 446392, Note_off_c, 0, 53, 60
1, 446411, Poly_aftertouch_c, 0, 72, 127
1, 446414, Note_off_c, 0, 57, 38
1, 446439, Poly_aftertouch_c, 0, 72, 0
1, 446499, Note_on_c, 0, 83, 107
1, 446499, Note_on_c, 0, 95, 97
1, 446501, Note_on_c, 0, 45, 96
1, 446502, Note_on_c, 0, 92, 93
1, 446504, Note_on_c, 0, 86, 86
1, 446509, Note_on_c, 0, 33, 72
1, 446515, Note_off_c, 0, 95, 73
1, 446517, Note_off_c, 0, 83, 73
1, 446523, Note_off_c, 0, 86, 73
1, 446523, Note_off_c, 0, 92, 70
1, 446524, Note_off_c, 0, 45, 68
1, 446542, Note_off_c, 0, 33, 55
1, 446731, Control_c, 0, 64, 92
1, 446745, Control_c, 0, 64, 60
1, 446760, Control_c, 0, 64, 0
1, 446805, Control_c, 0, 64, 56
1, 446810, Note_on_c, 0, 73, 106
1, 446811, Note_on_c, 0, 85, 95
1, 446813, Note_on_c, 0, 76, 86
1, 446813, Note_on_c, 0, 79, 87
1, 446816, Note_on_c, 0, 69, 91
1, 446819, Note_on_c, 0, 64, 74
1, 446819, Control_c, 0, 64, 74
1, 446820, Note_on_c, 0, 61, 75
1, 446828, Note_on_c, 0, 57, 75
1, 446834, Control_c, 0, 64, 101
1, 446844, Note_off_c, 0, 73, 69
1, 446845, Note_off_c, 0, 69, 65
1, 446848, Note_off_c, 0, 64, 67
1, 446849, Control_c, 0, 64, 127
1, 446851, Note_on_c, 0, 82, 42
1, 446861, Note_off_c, 0, 76, 65
1, 446872, Note_off_c, 0, 79, 65
1, 446879, Note_off_c, 0, 61, 64
1, 446881, Note_off_c, 0, 82, 55
1, 446888, Note_off_c, 0, 57, 64
1, 446889, Note_off_c, 0, 85, 65
1, 447136, Note_on_c, 0, 97, 102
1, 447139, Note_on_c, 0, 85, 104
1, 447139, Note_on_c, 0, 91, 96
1, 447140, Note_on_c, 0, 88, 86
1, 447149, Note_on_c, 0, 45, 100
1, 447151, Note_on_c, 0, 33, 84
1, 447173, Note_on_c, 0, 89, 35
1, 447174, Note_off_c, 0, 89, 127
1, 447183, Note_off_c, 0, 85, 68
1, 447184, Note_off_c, 0, 97, 66
1, 447192, Note_on_c, 0, 94, 10
1, 447198, Note_off_c, 0, 88, 67
1, 447200, Note_off_c, 0, 91, 67
1, 447208, Note_off_c, 0, 33, 63
1, 447225, Note_off_c, 0, 45, 58
1, 447243, Note_off_c, 0, 94, 42
1, 447714, Note_on_c, 0, 69, 102
1, 447717, Note_on_c, 0, 81, 107
1, 447720, Note_on_c, 0, 57, 101
1, 447723, Note_on_c, 0, 45, 97
1, 447748, Note_on_c, 0, 78, 50
1, 447751, Note_off_c, 0, 69, 68
1, 447755, Note_off_c, 0, 81, 69
1, 447767, Note_off_c, 0, 57, 66
1, 447770, Note_off_c, 0, 78, 59
1, 447813, Note_off_c, 0, 45, 60
1, 448197, Control_c, 0, 64, 77
1, 448212, Control_c, 0, 64, 0
1, 448258, Note_on_c, 0, 98, 101
1, 448259, Note_on_c, 0, 86, 99
1, 448260, Note_on_c, 0, 90, 101
1, 448262, Note_on_c, 0, 50, 96
1, 448262, Note_on_c, 0, 93, 88
1, 448266, Note_on_c, 0, 38, 86
1, 448269, Note_on_c, 0, 42, 81
1, 448271, Control_c, 0, 64, 66
1, 448280, Note_on_c, 0, 45, 64
1, 448286, Control_c, 0, 64, 127
1, 448289, Note_off_c, 0, 98, 70
1, 448295, Note_off_c, 0, 38, 69
1, 448301, Note_off_c, 0, 93, 64
1, 448310, Note_off_c, 0, 42, 62
1, 448310, Note_off_c, 0, 45, 62
1, 448310, Note_off_c, 0, 90, 67
1, 448311, Note_off_c, 0, 86, 65
1, 448316, Note_off_c, 0, 50, 66
1, 448438, Note_on_c, 0, 50, 76
1, 448438, Note_on_c, 0, 62, 81
1, 448463, Note_off_c, 0, 62, 67
1, 448465, Note_off_c, 0, 50, 66
1, 448492, Note_on_c, 0, 76, 83
1, 448499, Note_on_c, 0, 64, 74
1, 448524, Note_off_c, 0, 64, 69
1, 448529, Note_off_c, 0, 76, 61
1, 448561, Note_on_c, 0, 66, 97
1, 448563, Note_on_c, 0, 54, 86
1, 448597, Note_off_c, 0, 66, 58
1, 448598, Note_off_c, 0, 54, 60
1, 448610, Note_on_c, 0, 67, 89
1, 448614, Note_on_c, 0, 79, 89
1, 448643, Note_off_c, 0, 67, 62
1, 448644, Note_off_c, 0, 79, 62
1, 448674, Note_on_c, 0, 69, 95
1, 448675, Note_on_c, 0, 57, 92
1, 448703, Note_off_c, 0, 69, 63
1, 448707, Note_off_c, 0, 57, 61
1, 448738, Note_on_c, 0, 67, 80
1, 448740, Note_on_c, 0, 79, 84
1, 448760, Note_off_c, 0, 79, 69
1, 448761, Note_off_c, 0, 67, 67
1, 448761, Poly_aftertouch_c, 0, 58, 127
1, 448798, Note_on_c, 0, 66, 91
1, 448799, Poly_aftertouch_c, 0, 58, 0
1, 448800, Note_on_c, 0, 54, 87
1, 448823, Note_off_c, 0, 66, 68
1, 448845, Note_off_c, 0, 54, 58
1, 448857, Note_on_c, 0, 76, 95
1, 448858, Note_on_c, 0, 64, 96
1, 448879, Note_off_c, 0, 64, 70
1, 448916, Note_off_c, 0, 76, 63
1, 448920, Note_on_c, 0, 62, 93
1, 448926, Note_on_c, 0, 50, 83
1, 448946, Note_off_c, 0, 62, 63
1, 448968, Note_off_c, 0, 50, 61
1, 449094, Note_on_c, 0, 46, 34
1, 449095, Control_c, 0, 64, 122
1, 449110, Control_c, 0, 64, 76
1, 449125, Control_c, 0, 64, 0
1, 449136, Note_off_c, 0, 46, 62
1, 449156, Note_on_c, 0, 86, 98
1, 449156, Note_on_c, 0, 98, 101
1, 449159, Note_on_c, 0, 93, 93
1, 449162, Note_on_c, 0, 90, 96
1, 449165, Note_on_c, 0, 42, 82
1, 449167, Note_on_c, 0, 50, 88
1, 449169, Note_on_c, 0, 38, 80
1, 449169, Control_c, 0, 64, 46
1, 449173, Note_on_c, 0, 45, 66
1, 449184, Control_c, 0, 64, 86
1, 449189, Note_off_c, 0, 98, 69
1, 449191, Note_off_c, 0, 93, 63
1, 449193, Note_off_c, 0, 38, 67
1, 449199, Control_c, 0, 64, 127
1, 449204, Note_off_c, 0, 42, 62
1, 449205, Note_off_c, 0, 86, 67
1, 449207, Note_off_c, 0, 45, 64
1, 449210, Note_off_c, 0, 90, 68
1, 449217, Note_off_c, 0, 50, 65
1, 449329, Note_on_c, 0, 50, 79
1, 449332, Note_on_c, 0, 62, 80
1, 449353, Note_off_c, 0, 50, 64
1, 449354, Note_off_c, 0, 62, 67
1, 449391, Note_on_c, 0, 76, 84
1, 449392, Note_on_c, 0, 64, 77
1, 449413, Note_off_c, 0, 76, 68
1, 449417, Note_off_c, 0, 64, 70
1, 449448, Note_on_c, 0, 66, 106
1, 449451, Note_on_c, 0, 54, 92
1, 449493, Note_off_c, 0, 66, 66
1, 449500, Note_off_c, 0, 54, 60
1, 449513, Note_on_c, 0, 67, 91
1, 449518, Note_on_c, 0, 79, 89
1, 449532, Note_off_c, 0, 67, 72
1, 449538, Note_off_c, 0, 79, 70
1, 449580, Note_on_c, 0, 57, 96
1, 449580, Note_on_c, 0, 69, 100
1, 449622, Note_off_c, 0, 69, 65
1, 449627, Note_off_c, 0, 57, 64
1, 449633, Note_on_c, 0, 68, 92
1, 449635, Note_on_c, 0, 80, 92
1, 449654, Note_off_c, 0, 68, 68
1, 449655, Note_off_c, 0, 80, 69
1, 449693, Note_on_c, 0, 69, 96
1, 449699, Note_on_c, 0, 57, 89
1, 449734, Note_off_c, 0, 69, 65
1, 449744, Note_off_c, 0, 57, 64
1, 449745, Note_on_c, 0, 83, 103
1, 449747, Note_on_c, 0, 71, 93
1, 449762, Note_off_c, 0, 71, 74
1, 449794, Note_off_c, 0, 83, 68
1, 449808, Note_on_c, 0, 69, 97
1, 449812, Note_on_c, 0, 57, 92
1, 449839, Note_off_c, 0, 69, 68
1, 449872, Note_off_c, 0, 57, 64
1, 449896, Poly_aftertouch_c, 0, 71, 0
1, 450006, Control_c, 0, 64, 87
1, 450021, Control_c, 0, 64, 0
1, 450049, Note_on_c, 0, 100, 100
1, 450049, Note_on_c, 0, 105, 109
1, 450050, Note_on_c, 0, 93, 109
1, 450054, Note_on_c, 0, 57, 103
1, 450054, Note_on_c, 0, 97, 97
1, 450056, Note_on_c, 0, 45, 95
1, 450056, Note_on_c, 0, 49, 83
1, 450064, Note_on_c, 0, 52, 72
1, 450081, Control_c, 0, 64, 84
1, 450086, Note_on_c, 0, 103, 35
1, 450089, Note_off_c, 0, 105, 68
1, 450096, Control_c, 0, 64, 127
1, 450097, Note_off_c, 0, 52, 63
1, 450101, Note_off_c, 0, 45, 62
1, 450101, Note_off_c, 0, 100, 66
1, 450105, Note_off_c, 0, 93, 60
1, 450117, Note_off_c, 0, 103, 33
1, 450119, Note_off_c, 0, 49, 62
1, 450119, Note_off_c, 0, 57, 65
1, 450125, Note_off_c, 0, 97, 68
1, 450277, Note_on_c, 0, 69, 91
1, 450278, Note_on_c, 0, 57, 87
1, 450318, Note_off_c, 0, 57, 62
1, 450318, Note_off_c, 0, 69, 65
1, 450380, Note_on_c, 0, 71, 84
1, 450384, Note_on_c, 0, 83, 86
1, 450405, Note_off_c, 0, 71, 66
1, 450421, Note_off_c, 0, 83, 66
1, 450447, Note_on_c, 0, 73, 100
1, 450449, Note_on_c, 0, 61, 94
1, 450487, Note_off_c, 0, 73, 66
1, 450495, Note_off_c, 0, 61, 61
1, 450513, Note_on_c, 0, 74, 85
1, 450518, Note_on_c, 0, 86, 83
1, 450535, Note_off_c, 0, 74, 67
1, 450539, Note_off_c, 0, 86, 69
1, 450584, Note_on_c, 0, 76, 100
1, 450587, Note_on_c, 0, 64, 92
1, 450622, Note_off_c, 0, 76, 67
1, 450636, Note_off_c, 0, 64, 64
1, 450647, Note_on_c, 0, 78, 87
1, 450648, Note_on_c, 0, 90, 86
1, 450668, Note_off_c, 0, 78, 67
1, 450669, Note_off_c, 0, 90, 70
1, 450707, Note_on_c, 0, 74, 95
1, 450710, Note_on_c, 0, 62, 86
1, 450739, Note_off_c, 0, 62, 62
1, 450744, Note_off_c, 0, 74, 66
1, 450770, Note_on_c, 0, 88, 86
1, 450771, Note_on_c, 0, 76, 79
1, 450789, Note_off_c, 0, 88, 72
1, 450790, Note_off_c, 0, 76, 73
1, 450826, Note_on_c, 0, 73, 93
1, 450827, Note_on_c, 0, 61, 96
1, 450866, Note_off_c, 0, 73, 63
1, 450875, Note_off_c, 0, 61, 61
1, 450885, Note_on_c, 0, 74, 85
1, 450890, Note_on_c, 0, 86, 76
1, 450907, Note_off_c, 0, 74, 70
1, 450912, Note_off_c, 0, 86, 69
1, 450941, Note_on_c, 0, 71, 97
1, 450945, Note_on_c, 0, 59, 90
1, 450987, Note_off_c, 0, 71, 66
1, 451001, Note_off_c, 0, 59, 63
1, 451007, Note_on_c, 0, 85, 75
1, 451008, Note_on_c, 0, 73, 86
1, 451027, Note_off_c, 0, 73, 71
1, 451030, Note_off_c, 0, 85, 70
1, 451063, Note_on_c, 0, 69, 92
1, 451067, Note_on_c, 0, 57, 92
1, 451103, Note_off_c, 0, 69, 65
1, 451115, Note_off_c, 0, 57, 63
1, 451121, Note_on_c, 0, 58, 5
1, 451132, Note_on_c, 0, 71, 73
1, 451132, Note_on_c, 0, 83, 78
1, 451154, Note_off_c, 0, 83, 72
1, 451156, Note_off_c, 0, 71, 70
1, 451174, Note_off_c, 0, 58, 52
1, 451175, Note_on_c, 0, 67, 93
1, 451177, Note_on_c, 0, 55, 89
1, 451212, Note_off_c, 0, 67, 66
1, 451215, Note_off_c, 0, 55, 64
1, 451219, Note_on_c, 0, 56, 34
1, 451242, Note_on_c, 0, 69, 80
1, 451246, Note_on_c, 0, 81, 86
1, 451255, Note_off_c, 0, 56, 47
1, 451261, Note_off_c, 0, 69, 71
1, 451267, Note_off_c, 0, 81, 69
1, 451287, Note_on_c, 0, 54, 96
1, 451288, Note_on_c, 0, 66, 103
1, 451323, Note_off_c, 0, 66, 65
1, 451331, Note_off_c, 0, 54, 63
1, 451352, Note_on_c, 0, 67, 87
1, 451356, Note_on_c, 0, 79, 80
1, 451374, Note_off_c, 0, 67, 68
1, 451377, Note_off_c, 0, 79, 67
1, 451401, Note_on_c, 0, 64, 94
1, 451407, Note_on_c, 0, 52, 91
1, 451436, Note_off_c, 0, 64, 61
1, 451437, Note_off_c, 0, 52, 65
1, 451458, Note_on_c, 0, 78, 103
1, 451461, Note_on_c, 0, 66, 105
1, 451479, Note_off_c, 0, 66, 73
1, 451501, Note_off_c, 0, 78, 63
1, 451502, Note_on_c, 0, 75, 20
1, 451517, Note_on_c, 0, 62, 99
1, 451519, Note_on_c, 0, 50, 99
1, 451538, Note_off_c, 0, 75, 56
1, 451541, Note_off_c, 0, 62, 65
1, 451556, Note_on_c, 0, 51, 31
1, 451566, Note_off_c, 0, 50, 64
1, 451592, Note_off_c, 0, 51, 53
1, 451712, Control_c, 0, 64, 90
1, 451735, Control_c, 0, 64, 0
1, 451772, Note_on_c, 0, 86, 104
1, 451772, Note_on_c, 0, 98, 100
1, 451777, Note_on_c, 0, 90, 102
1, 451777, Note_on_c, 0, 93, 88
1, 451780, Note_on_c, 0, 36, 86
1, 451781, Note_on_c, 0, 48, 89
1, 451794, Control_c, 0, 64, 78
1, 451799, Note_off_c, 0, 93, 70
1, 451800, Note_off_c, 0, 98, 72
1, 451806, Note_on_c, 0, 39, 48
1, 451806, Note_off_c, 0, 36, 64
1, 451806, Note_on_c, 0, 94, 42
1, 451807, Note_off_c, 0, 94, 127
1, 451808, Control_c, 0, 64, 127
1, 451815, Note_off_c, 0, 86, 67
1, 451820, Note_off_c, 0, 90, 68
1, 451828, Note_off_c, 0, 48, 61
1, 451837, Note_on_c, 0, 43, 5
1, 451842, Note_off_c, 0, 39, 51
1, 451862, Poly_aftertouch_c, 0, 38, 127
1, 451863, Note_on_c, 0, 38, 3
1, 451873, Note_off_c, 0, 43, 35
1, 451908, Note_off_c, 0, 38, 48
1, 451920, Note_on_c, 0, 62, 90
1, 451930, Note_on_c, 0, 48, 69
1, 451932, Note_on_c, 0, 50, 70
1, 451942, Note_off_c, 0, 62, 66
1, 451961, Note_off_c, 0, 48, 63
1, 451961, Note_off_c, 0, 50, 65
1, 451976, Note_on_c, 0, 76, 85
1, 451983, Note_on_c, 0, 64, 69
1, 452006, Note_off_c, 0, 76, 62
1, 452010, Note_off_c, 0, 64, 68
1, 452036, Note_on_c, 0, 66, 102
1, 452039, Note_on_c, 0, 54, 97
1, 452074, Note_off_c, 0, 54, 60
1, 452075, Note_off_c, 0, 66, 62
1, 452093, Note_on_c, 0, 67, 87
1, 452095, Note_on_c, 0, 79, 88
1, 452115, Note_off_c, 0, 67, 69
1, 452118, Note_off_c, 0, 79, 67
1, 452143, Note_on_c, 0, 69, 91
1, 452146, Note_on_c, 0, 57, 88
1, 452167, Note_off_c, 0, 69, 66
1, 452179, Note_off_c, 0, 57, 62
1, 452188, Poly_aftertouch_c, 0, 75, 0
1, 452205, Note_on_c, 0, 67, 90
1, 452208, Note_on_c, 0, 79, 84
1, 452228, Note_off_c, 0, 79, 69
1, 452236, Note_off_c, 0, 67, 59
1, 452256, Note_on_c, 0, 66, 99
1, 452257, Note_on_c, 0, 54, 90
1, 452282, Note_off_c, 0, 66, 62
1, 452300, Note_off_c, 0, 54, 61
1, 452319, Note_on_c, 0, 76, 98
1, 452320, Note_on_c, 0, 64, 92
1, 452338, Note_off_c, 0, 64, 73
1, 452365, Note_on_c, 0, 62, 96
1, 452368, Note_on_c, 0, 50, 92
1, 452378, Note_off_c, 0, 76, 66
1, 452393, Note_off_c, 0, 62, 63
1, 452410, Note_off_c, 0, 50, 64
1, 452528, Note_on_c, 0, 44, 48
1, 452543, Control_c, 0, 64, 102
1, 452558, Control_c, 0, 64, 65
1, 452572, Control_c, 0, 64, 0
1, 452590, Note_off_c, 0, 44, 61
1, 452601, Note_on_c, 0, 86, 105
1, 452601, Note_on_c, 0, 98, 100
1, 452604, Note_on_c, 0, 90, 98
1, 452605, Note_on_c, 0, 93, 89
1, 452610, Note_on_c, 0, 50, 97
1, 452611, Note_on_c, 0, 42, 85
1, 452614, Note_on_c, 0, 38, 83
1, 452617, Control_c, 0, 64, 66
1, 452623, Note_on_c, 0, 94, 64
1, 452624, Note_off_c, 0, 94, 127
1, 452629, Note_off_c, 0, 93, 65
1, 452631, Note_off_c, 0, 98, 69
1, 452632, Control_c, 0, 64, 127
1, 452642, Note_off_c, 0, 38, 67
1, 452647, Note_off_c, 0, 42, 62
1, 452648, Note_off_c, 0, 86, 66
1, 452651, Note_off_c, 0, 50, 66
1, 452652, Note_off_c, 0, 90, 69
1, 452717, Poly_aftertouch_c, 0, 45, 0
1, 452757, Note_on_c, 0, 50, 83
1, 452760, Note_on_c, 0, 62, 82
1, 452782, Note_off_c, 0, 62, 68
1, 452784, Note_off_c, 0, 50, 65
1, 452820, Note_on_c, 0, 76, 80
1, 452826, Note_on_c, 0, 64, 65
1, 452834, Note_on_c, 0, 65, 60
1, 452842, Note_off_c, 0, 76, 69
1, 452844, Note_off_c, 0, 64, 65
1, 452854, Note_off_c, 0, 65, 63
1, 452875, Note_on_c, 0, 66, 106
1, 452877, Note_on_c, 0, 54, 94
1, 452913, Note_off_c, 0, 66, 66
1, 452920, Note_off_c, 0, 54, 61
1, 452928, Control_c, 0, 64, 110
1, 452931, Note_on_c, 0, 67, 89
1, 452935, Note_on_c, 0, 79, 86
1, 452943, Control_c, 0, 64, 78
1, 452949, Note_off_c, 0, 67, 72
1, 452954, Note_off_c, 0, 79, 70
1, 452957, Control_c, 0, 64, 0
1, 452995, Note_on_c, 0, 69, 93
1, 452999, Note_on_c, 0, 57, 93
1, 453002, Control_c, 0, 64, 66
1, 453017, Control_c, 0, 64, 85
1, 453031, Control_c, 0, 64, 127
1, 453047, Note_off_c, 0, 69, 65
1, 453049, Note_on_c, 0, 80, 95
1, 453052, Note_on_c, 0, 68, 93
1, 453055, Note_off_c, 0, 57, 62
1, 453075, Note_off_c, 0, 80, 59
1, 453076, Note_off_c, 0, 68, 66
1, 453112, Note_on_c, 0, 69, 100
1, 453115, Note_on_c, 0, 57, 85
1, 453155, Note_off_c, 0, 69, 65
1, 453163, Note_off_c, 0, 57, 65
1, 453166, Note_on_c, 0, 83, 106
1, 453170, Note_on_c, 0, 71, 91
1, 453188, Note_off_c, 0, 71, 73
1, 453211, Note_off_c, 0, 83, 67
1, 453235, Note_on_c, 0, 69, 103
1, 453238, Note_on_c, 0, 57, 96
1, 453264, Note_off_c, 0, 69, 69
1, 453292, Note_off_c, 0, 57, 65
1, 453410, Control_c, 0, 64, 104
1, 453425, Control_c, 0, 64, 65
1, 453440, Control_c, 0, 64, 0
1, 453458, Note_on_c, 0, 93, 107
1, 453458, Note_on_c, 0, 105, 112
1, 453461, Note_on_c, 0, 100, 100
1, 453462, Note_on_c, 0, 97, 98
1, 453468, Note_on_c, 0, 57, 94
1, 453470, Note_on_c, 0, 45, 92
1, 453472, Note_on_c, 0, 52, 87
1, 453476, Note_on_c, 0, 49, 85
1, 453485, Control_c, 0, 64, 72
1, 453497, Note_off_c, 0, 105, 67
1, 453499, Note_on_c, 0, 103, 38
1, 453499, Control_c, 0, 64, 127
1, 453502, Note_off_c, 0, 93, 62
1, 453505, Note_off_c, 0, 45, 63
1, 453511, Note_off_c, 0, 52, 52
1, 453512, Note_off_c, 0, 100, 66
1, 453518, Note_off_c, 0, 103, 37
1, 453528, Note_off_c, 0, 97, 68
1, 453529, Note_off_c, 0, 57, 61
1, 453530, Note_off_c, 0, 49, 59
1, 453682, Note_on_c, 0, 69, 94
1, 453684, Note_on_c, 0, 57, 89
1, 453720, Note_off_c, 0, 69, 65
1, 453723, Note_off_c, 0, 57, 63
1, 453766, Poly_aftertouch_c, 0, 58, 127
1, 453778, Note_on_c, 0, 71, 81
1, 453778, Note_on_c, 0, 83, 87
1, 453792, Poly_aftertouch_c, 0, 58, 0
1, 453801, Note_off_c, 0, 71, 69
1, 453815, Note_off_c, 0, 83, 64
1, 453840, Note_on_c, 0, 73, 100
1, 453843, Note_on_c, 0, 61, 94
1, 453878, Note_off_c, 0, 73, 65
1, 453889, Note_off_c, 0, 61, 60
1, 453899, Control_c, 0, 64, 84
1, 453912, Note_on_c, 0, 74, 88
1, 453914, Control_c, 0, 64, 42
1, 453916, Note_on_c, 0, 86, 84
1, 453929, Control_c, 0, 64, 0
1, 453932, Note_off_c, 0, 74, 70
1, 453938, Note_off_c, 0, 86, 68
1, 453959, Control_c, 0, 64, 63
1, 453980, Control_c, 0, 64, 79
1, 453982, Note_on_c, 0, 76, 99
1, 453985, Note_on_c, 0, 64, 93
1, 453995, Control_c, 0, 64, 119
1, 454010, Control_c, 0, 64, 127
1, 454012, Note_on_c, 0, 66, 52
1, 454018, Note_off_c, 0, 76, 67
1, 454033, Note_off_c, 0, 64, 65
1, 454038, Note_off_c, 0, 66, 58
1, 454050, Note_on_c, 0, 78, 88
1, 454051, Note_on_c, 0, 90, 86
1, 454072, Note_off_c, 0, 90, 68
1, 454073, Note_off_c, 0, 78, 64
1, 454103, Note_on_c, 0, 74, 90
1, 454105, Note_on_c, 0, 62, 89
1, 454141, Note_off_c, 0, 74, 66
1, 454143, Note_off_c, 0, 62, 63
1, 454169, Note_on_c, 0, 88, 86
1, 454170, Note_on_c, 0, 76, 85
1, 454190, Note_off_c, 0, 76, 69
1, 454191, Note_off_c, 0, 88, 68
1, 454219, Note_on_c, 0, 61, 98
1, 454220, Note_on_c, 0, 73, 94
1, 454254, Note_off_c, 0, 73, 66
1, 454263, Note_off_c, 0, 61, 61
1, 454279, Note_on_c, 0, 74, 88
1, 454284, Note_on_c, 0, 86, 79
1, 454303, Note_off_c, 0, 74, 66
1, 454304, Note_off_c, 0, 86, 70
1, 454327, Note_on_c, 0, 85, 7
1, 454332, Note_on_c, 0, 71, 101
1, 454335, Note_on_c, 0, 59, 93
1, 454370, Note_off_c, 0, 71, 68
1, 454374, Note_off_c, 0, 85, 54
1, 454385, Note_off_c, 0, 59, 63
1, 454403, Note_on_c, 0, 73, 84
1, 454405, Note_on_c, 0, 85, 70
1, 454409, Poly_aftertouch_c, 0, 61, 127
1, 454424, Note_off_c, 0, 73, 69
1, 454428, Note_off_c, 0, 85, 67
1, 454449, Poly_aftertouch_c, 0, 61, 0
1, 454452, Note_on_c, 0, 69, 94
1, 454454, Note_on_c, 0, 57, 87
1, 454461, Poly_aftertouch_c, 0, 61, 0
1, 454491, Note_off_c, 0, 69, 65
1, 454504, Note_off_c, 0, 57, 62
1, 454517, Note_on_c, 0, 71, 79
1, 454517, Note_on_c, 0, 83, 83
1, 454537, Note_off_c, 0, 83, 72
1, 454542, Note_off_c, 0, 71, 70
1, 454566, Note_on_c, 0, 67, 87
1, 454574, Note_on_c, 0, 55, 74
1, 454577, Note_on_c, 0, 57, 78
1, 454596, Note_off_c, 0, 57, 71
1, 454598, Note_off_c, 0, 67, 64
1, 454599, Note_off_c, 0, 55, 66
1, 454632, Note_on_c, 0, 69, 85
1, 454633, Note_on_c, 0, 81, 89
1, 454656, Note_off_c, 0, 69, 67
1, 454656, Note_off_c, 0, 81, 69
1, 454680, Note_on_c, 0, 54, 96
1, 454682, Note_on_c, 0, 66, 100
1, 454728, Control_c, 0, 64, 112
1, 454729, Note_off_c, 0, 66, 63
1, 454735, Note_off_c, 0, 54, 63
1, 454743, Control_c, 0, 64, 85
1, 454751, Note_on_c, 0, 67, 90
1, 454756, Note_on_c, 0, 79, 82
1, 454758, Control_c, 0, 64, 69
1, 454773, Control_c, 0, 64, 58
1, 454777, Note_off_c, 0, 67, 68
1, 454778, Note_off_c, 0, 79, 69
1, 454788, Control_c, 0, 64, 63
1, 454797, Note_on_c, 0, 64, 91
1, 454802, Note_on_c, 0, 52, 87
1, 454802, Control_c, 0, 64, 68
1, 454817, Control_c, 0, 64, 77
1, 454832, Control_c, 0, 64, 99
1, 454836, Note_off_c, 0, 52, 62
1, 454839, Note_off_c, 0, 64, 64
1, 454848, Control_c, 0, 64, 127
1, 454856, Note_on_c, 0, 78, 101
1, 454859, Note_on_c, 0, 66, 106
1, 454883, Note_off_c, 0, 66, 67
1, 454898, Note_off_c, 0, 78, 63
1, 454914, Note_on_c, 0, 62, 109
1, 454915, Note_on_c, 0, 50, 101
1, 454938, Poly_aftertouch_c, 0, 75, 127
1, 454945, Note_off_c, 0, 62, 64
1, 454948, Note_on_c, 0, 58, 39
1, 454957, Note_off_c, 0, 50, 64
1, 454958, Note_on_c, 0, 51, 26
1, 454964, Poly_aftertouch_c, 0, 75, 0
1, 454981, Note_off_c, 0, 58, 53
1, 454999, Note_off_c, 0, 51, 54
1, 455144, Control_c, 0, 64, 112
1, 455159, Control_c, 0, 64, 88
1, 455174, Control_c, 0, 64, 72
1, 455190, Control_c, 0, 64, 66
1, 455202, Note_on_c, 0, 48, 102
1, 455205, Note_on_c, 0, 36, 97
1, 455205, Control_c, 0, 64, 71
1, 455219, Control_c, 0, 64, 84
1, 455228, Note_off_c, 0, 36, 70
1, 455234, Control_c, 0, 64, 127
1, 455246, Note_off_c, 0, 48, 61
1, 455285, Poly_aftertouch_c, 0, 44, 0
1, 455321, Poly_aftertouch_c, 0, 44, 0
1, 455352, Note_on_c, 0, 81, 77
1, 455355, Note_on_c, 0, 90, 76
1, 455367, Control_c, 0, 64, 104
1, 455382, Control_c, 0, 64, 78
1, 455386, Note_on_c, 0, 62, 51
1, 455387, Note_off_c, 0, 81, 64
1, 455397, Control_c, 0, 64, 0
1, 455398, Note_on_c, 0, 60, 37
1, 455410, Poly_aftertouch_c, 0, 87, 0
1, 455411, Note_off_c, 0, 90, 64
1, 455412, Note_off_c, 0, 62, 53
1, 455416, Note_on_c, 0, 93, 76
1, 455425, Note_off_c, 0, 60, 34
1, 455443, Note_off_c, 0, 93, 65
1, 455479, Note_on_c, 0, 50, 45
1, 455491, Note_on_c, 0, 91, 86
1, 455494, Note_on_c, 0, 83, 77
1, 455508, Note_off_c, 0, 50, 65
1, 455529, Note_off_c, 0, 83, 68
1, 455571, Note_on_c, 0, 95, 83
1, 455571, Note_off_c, 0, 91, 65
1, 455612, Control_c, 0, 64, 65
1, 455622, Note_on_c, 0, 48, 97
1, 455625, Note_on_c, 0, 91, 89
1, 455626, Control_c, 0, 64, 127
1, 455628, Note_on_c, 0, 36, 87
1, 455630, Note_off_c, 0, 95, 54
1, 455632, Note_on_c, 0, 83, 86
1, 455653, Note_off_c, 0, 36, 68
1, 455656, Note_off_c, 0, 48, 60
1, 455670, Note_on_c, 0, 90, 35
1, 455673, Note_off_c, 0, 83, 67
1, 455699, Note_off_c, 0, 90, 49
1, 455712, Note_off_c, 0, 91, 67
1, 455714, Note_on_c, 0, 95, 75
1, 455729, Note_off_c, 0, 95, 67
1, 455765, Note_on_c, 0, 90, 74
1, 455774, Note_on_c, 0, 81, 82
1, 455775, Control_c, 0, 64, 87
1, 455783, Note_on_c, 0, 62, 59
1, 455790, Control_c, 0, 64, 63
1, 455801, Note_off_c, 0, 81, 69
1, 455804, Note_off_c, 0, 62, 59
1, 455805, Control_c, 0, 64, 0
1, 455811, Note_on_c, 0, 52, 18
1, 455821, Note_off_c, 0, 90, 64
1, 455831, Note_on_c, 0, 93, 78
1, 455858, Note_off_c, 0, 93, 59
1, 455860, Note_off_c, 0, 52, 28
1, 455896, Note_on_c, 0, 91, 84
1, 455899, Note_on_c, 0, 83, 79
1, 455906, Note_on_c, 0, 50, 36
1, 455930, Note_off_c, 0, 83, 70
1, 455941, Note_off_c, 0, 50, 44
1, 455971, Note_on_c, 0, 95, 80
1, 455973, Note_off_c, 0, 91, 66
1, 456012, Control_c, 0, 64, 15
1, 456022, Note_on_c, 0, 48, 104
1, 456024, Note_on_c, 0, 91, 85
1, 456027, Note_off_c, 0, 95, 49
1, 456027, Note_on_c, 0, 36, 86
1, 456027, Control_c, 0, 64, 120
1, 456031, Note_on_c, 0, 83, 89
1, 456042, Control_c, 0, 64, 127
1, 456051, Note_off_c, 0, 36, 67
1, 456053, Note_on_c, 0, 90, 64
1, 456063, Note_off_c, 0, 48, 61
1, 456067, Note_off_c, 0, 83, 67
1, 456075, Note_off_c, 0, 90, 62
1, 456111, Note_off_c, 0, 91, 66
1, 456114, Note_on_c, 0, 95, 69
1, 456134, Note_off_c, 0, 95, 60
1, 456158, Note_on_c, 0, 90, 76
1, 456160, Control_c, 0, 64, 113
1, 456167, Note_on_c, 0, 62, 81
1, 456172, Note_on_c, 0, 81, 72
1, 456175, Control_c, 0, 64, 79
1, 456181, Note_on_c, 0, 50, 65
1, 456190, Control_c, 0, 64, 0
1, 456192, Note_off_c, 0, 81, 63
1, 456197, Note_off_c, 0, 62, 61
1, 456209, Note_off_c, 0, 50, 60
1, 456227, Note_off_c, 0, 90, 63
1, 456235, Poly_aftertouch_c, 0, 93, 0
1, 456236, Note_on_c, 0, 95, 71
1, 456245, Note_on_c, 0, 93, 49
1, 456270, Note_off_c, 0, 95, 63
1, 456275, Note_off_c, 0, 93, 57
1, 456287, Note_on_c, 0, 50, 72
1, 456300, Note_on_c, 0, 91, 80
1, 456305, Note_on_c, 0, 83, 79
1, 456313, Note_off_c, 0, 50, 67
1, 456338, Note_off_c, 0, 83, 69
1, 456346, Note_on_c, 0, 90, 45
1, 456367, Note_off_c, 0, 90, 38
1, 456370, Note_on_c, 0, 95, 82
1, 456385, Note_off_c, 0, 91, 64
1, 456418, Note_off_c, 0, 95, 52
1, 456419, Note_on_c, 0, 47, 100
1, 456420, Control_c, 0, 64, 63
1, 456422, Note_on_c, 0, 35, 94
1, 456428, Note_on_c, 0, 81, 84
1, 456428, Note_on_c, 0, 90, 89
1, 456435, Control_c, 0, 64, 127
1, 456448, Note_off_c, 0, 35, 65
1, 456453, Note_off_c, 0, 81, 72
1, 456461, Note_off_c, 0, 47, 65
1, 456465, Note_on_c, 0, 45, 16
1, 456470, Note_on_c, 0, 87, 36
1, 456487, Note_off_c, 0, 90, 63
1, 456501, Note_off_c, 0, 87, 56
1, 456511, Note_off_c, 0, 45, 48
1, 456525, Note_on_c, 0, 93, 37
1, 456539, Note_on_c, 0, 80, 85
1, 456546, Note_on_c, 0, 89, 76
1, 456568, Note_on_c, 0, 62, 81
1, 456570, Note_off_c, 0, 93, 53
1, 456584, Control_c, 0, 64, 117
1, 456589, Note_on_c, 0, 50, 53
1, 456590, Note_off_c, 0, 80, 64
1, 456598, Control_c, 0, 64, 84
1, 456603, Note_off_c, 0, 62, 56
1, 456613, Control_c, 0, 64, 44
1, 456615, Note_off_c, 0, 50, 56
1, 456619, Note_off_c, 0, 89, 65
1, 456626, Note_on_c, 0, 92, 75
1, 456628, Control_c, 0, 64, 0
1, 456650, Note_off_c, 0, 92, 68
1, 456668, Note_on_c, 0, 79, 75
1, 456669, Note_on_c, 0, 50, 84
1, 456673, Note_on_c, 0, 88, 78
1, 456693, Note_off_c, 0, 50, 68
1, 456708, Note_off_c, 0, 79, 60
1, 456735, Note_off_c, 0, 88, 64
1, 456749, Note_on_c, 0, 91, 75
1, 456790, Control_c, 0, 64, 52
1, 456794, Note_on_c, 0, 46, 101
1, 456802, Note_on_c, 0, 34, 85
1, 456805, Control_c, 0, 64, 127
1, 456823, Note_off_c, 0, 34, 66
1, 456837, Note_off_c, 0, 46, 64
1, 456895, Note_off_c, 0, 91, 64
1, 456920, Note_on_c, 0, 88, 75
1, 456924, Note_on_c, 0, 79, 76
1, 456931, Note_on_c, 0, 62, 86
1, 456948, Note_on_c, 0, 50, 63
1, 456954, Note_off_c, 0, 79, 65
1, 456954, Control_c, 0, 64, 85
1, 456976, Control_c, 0, 64, 52
1, 456983, Note_off_c, 0, 62, 59
1, 456987, Note_off_c, 0, 50, 65
1, 456990, Note_off_c, 0, 88, 64
1, 456991, Control_c, 0, 64, 0
1, 456993, Note_on_c, 0, 91, 78
1, 457033, Note_off_c, 0, 91, 56
1, 457043, Note_on_c, 0, 50, 84
1, 457056, Note_on_c, 0, 81, 82
1, 457062, Note_on_c, 0, 90, 85
1, 457067, Note_off_c, 0, 50, 69
1, 457091, Note_on_c, 0, 87, 40
1, 457097, Note_off_c, 0, 81, 63
1, 457115, Note_off_c, 0, 87, 56
1, 457126, Note_on_c, 0, 93, 88
1, 457130, Note_off_c, 0, 90, 65
1, 457169, Control_c, 0, 64, 59
1, 457180, Note_on_c, 0, 46, 97
1, 457184, Control_c, 0, 64, 127
1, 457185, Note_on_c, 0, 34, 90
1, 457185, Note_off_c, 0, 93, 51
1, 457187, Note_on_c, 0, 90, 88
1, 457191, Note_on_c, 0, 81, 95
1, 457199, Note_on_c, 0, 87, 58
1, 457206, Note_off_c, 0, 34, 67
1, 457216, Note_off_c, 0, 46, 65
1, 457225, Note_off_c, 0, 81, 64
1, 457229, Note_off_c, 0, 87, 65
1, 457256, Note_off_c, 0, 90, 66
1, 457262, Note_on_c, 0, 93, 69
1, 457286, Note_off_c, 0, 93, 64
1, 457295, Poly_aftertouch_c, 0, 44, 0
1, 457315, Note_on_c, 0, 88, 87
1, 457320, Note_on_c, 0, 79, 79
1, 457321, Note_on_c, 0, 62, 80
1, 457333, Control_c, 0, 64, 106
1, 457337, Note_on_c, 0, 50, 56
1, 457347, Control_c, 0, 64, 79
1, 457349, Note_off_c, 0, 79, 65
1, 457359, Note_off_c, 0, 62, 54
1, 457362, Control_c, 0, 64, 0
1, 457363, Note_off_c, 0, 50, 59
1, 457384, Note_on_c, 0, 91, 78
1, 457387, Note_off_c, 0, 88, 67
1, 457418, Note_off_c, 0, 91, 53
1, 457424, Note_on_c, 0, 50, 81
1, 457440, Note_on_c, 0, 90, 88
1, 457443, Note_on_c, 0, 81, 85
1, 457448, Note_off_c, 0, 50, 67
1, 457483, Note_off_c, 0, 81, 64
1, 457484, Note_on_c, 0, 87, 27
1, 457509, Note_off_c, 0, 87, 50
1, 457514, Note_on_c, 0, 93, 84
1, 457514, Note_off_c, 0, 90, 65
1, 457539, Control_c, 0, 64, 74
1, 457554, Control_c, 0, 64, 127
1, 457557, Note_on_c, 0, 46, 101
1, 457564, Note_on_c, 0, 34, 84
1, 457564, Note_on_c, 0, 90, 78
1, 457569, Note_off_c, 0, 93, 62
1, 457574, Note_on_c, 0, 81, 87
1, 457586, Note_off_c, 0, 34, 65
1, 457588, Note_on_c, 0, 87, 61
1, 457600, Note_off_c, 0, 46, 66
1, 457609, Note_off_c, 0, 87, 63
1, 457612, Note_off_c, 0, 81, 65
1, 457638, Note_on_c, 0, 93, 76
1, 457640, Note_off_c, 0, 90, 64
1, 457661, Note_off_c, 0, 93, 68
1, 457671, Poly_aftertouch_c, 0, 44, 0
1, 457704, Note_on_c, 0, 88, 81
1, 457707, Note_on_c, 0, 62, 80
1, 457720, Note_on_c, 0, 79, 74
1, 457729, Note_on_c, 0, 50, 54
1, 457745, Note_off_c, 0, 79, 68
1, 457748, Note_off_c, 0, 62, 56
1, 457757, Note_off_c, 0, 50, 54
1, 457777, Note_on_c, 0, 91, 74
1, 457779, Note_off_c, 0, 88, 65
1, 457810, Note_off_c, 0, 91, 57
1, 457824, Note_on_c, 0, 50, 83
1, 457832, Note_on_c, 0, 90, 89
1, 457836, Note_on_c, 0, 81, 83
1, 457850, Note_off_c, 0, 50, 66
1, 457878, Note_off_c, 0, 90, 62
1, 457881, Note_off_c, 0, 81, 66
1, 457905, Note_on_c, 0, 93, 84
1, 457911, Poly_aftertouch_c, 0, 87, 127
1, 457929, Note_off_c, 0, 93, 62
1, 457938, Poly_aftertouch_c, 0, 87, 0
1, 457952, Note_on_c, 0, 45, 102
1, 457958, Note_on_c, 0, 33, 86
1, 457967, Note_on_c, 0, 88, 82
1, 457968, Note_on_c, 0, 79, 85
1, 457978, Note_off_c, 0, 33, 64
1, 457980, Note_on_c, 0, 34, 41
1, 457981, Note_off_c, 0, 34, 127
1, 457983, Note_off_c, 0, 45, 65
1, 457986, Poly_aftertouch_c, 0, 89, 0
1, 457986, Note_on_c, 0, 86, 59
1, 458006, Note_off_c, 0, 86, 63
1, 458009, Note_off_c, 0, 79, 65
1, 458039, Note_off_c, 0, 88, 64
1, 458041, Note_on_c, 0, 91, 69
1, 458050, Poly_aftertouch_c, 0, 37, 0
1, 458064, Note_off_c, 0, 91, 65
1, 458072, Poly_aftertouch_c, 0, 37, 0
1, 458101, Note_on_c, 0, 62, 84
1, 458102, Note_on_c, 0, 77, 80
1, 458108, Note_on_c, 0, 50, 75
1, 458110, Note_on_c, 0, 85, 83
1, 458121, Note_on_c, 0, 82, 65
1, 458134, Note_off_c, 0, 77, 65
1, 458144, Note_off_c, 0, 50, 58
1, 458145, Note_off_c, 0, 82, 68
1, 458153, Note_off_c, 0, 62, 54
1, 458171, Note_off_c, 0, 85, 64
1, 458174, Note_on_c, 0, 89, 72
1, 458191, Note_off_c, 0, 89, 67
1, 458214, Note_on_c, 0, 86, 83
1, 458220, Note_on_c, 0, 78, 77
1, 458227, Note_on_c, 0, 50, 79
1, 458230, Control_c, 0, 64, 93
1, 458244, Control_c, 0, 64, 68
1, 458251, Note_off_c, 0, 50, 69
1, 458259, Control_c, 0, 64, 0
1, 458264, Note_off_c, 0, 78, 62
1, 458278, Note_on_c, 0, 90, 89
1, 458288, Note_off_c, 0, 86, 64
1, 458303, Control_c, 0, 64, 62
1, 458310, Note_off_c, 0, 90, 66
1, 458318, Control_c, 0, 64, 83
1, 458333, Note_on_c, 0, 48, 95
1, 458333, Control_c, 0, 64, 127
1, 458342, Note_on_c, 0, 36, 84
1, 458364, Note_on_c, 0, 39, 42
1, 458365, Note_off_c, 0, 39, 127
1, 458373, Note_off_c, 0, 36, 63
1, 458373, Note_off_c, 0, 48, 64
1, 458385, Note_on_c, 0, 42, 4
1, 458386, Note_off_c, 0, 42, 127
1, 458433, Poly_aftertouch_c, 0, 42, 0
1, 458447, Poly_aftertouch_c, 0, 44, 0
1, 458475, Poly_aftertouch_c, 0, 80, 127
1, 458489, Control_c, 0, 64, 95
1, 458493, Note_on_c, 0, 78, 78
1, 458496, Note_on_c, 0, 62, 74
1, 458500, Note_on_c, 0, 69, 74
1, 458503, Control_c, 0, 64, 75
1, 458504, Note_on_c, 0, 50, 67
1, 458510, Poly_aftertouch_c, 0, 80, 0
1, 458518, Control_c, 0, 64, 12
1, 458524, Note_off_c, 0, 62, 65
1, 458528, Note_on_c, 0, 75, 29
1, 458528, Note_off_c, 0, 69, 69
1, 458533, Control_c, 0, 64, 0
1, 458537, Note_off_c, 0, 50, 64
1, 458555, Note_off_c, 0, 78, 64
1, 458559, Note_off_c, 0, 75, 49
1, 458562, Note_on_c, 0, 81, 76
1, 458590, Note_off_c, 0, 81, 55
1, 458607, Note_on_c, 0, 50, 72
1, 458618, Note_on_c, 0, 79, 78
1, 458623, Note_on_c, 0, 71, 72
1, 458635, Note_off_c, 0, 50, 65
1, 458650, Note_off_c, 0, 71, 68
1, 458692, Note_off_c, 0, 79, 63
1, 458693, Note_on_c, 0, 83, 82
1, 458695, Control_c, 0, 64, 37
1, 458710, Control_c, 0, 64, 76
1, 458725, Control_c, 0, 64, 127
1, 458738, Note_on_c, 0, 48, 96
1, 458744, Note_on_c, 0, 36, 79
1, 458744, Note_off_c, 0, 83, 62
1, 458748, Note_on_c, 0, 79, 82
1, 458757, Note_on_c, 0, 71, 80
1, 458769, Note_off_c, 0, 48, 63
1, 458773, Note_off_c, 0, 36, 65
1, 458785, Note_off_c, 0, 71, 68
1, 458829, Note_off_c, 0, 79, 64
1, 458834, Note_on_c, 0, 83, 67
1, 458853, Note_off_c, 0, 83, 67
1, 458859, Control_c, 0, 64, 98
1, 458874, Control_c, 0, 64, 81
1, 458880, Note_on_c, 0, 78, 55
1, 458888, Note_on_c, 0, 62, 70
1, 458889, Control_c, 0, 64, 66
1, 458890, Note_on_c, 0, 69, 67
1, 458893, Note_on_c, 0, 50, 61
1, 458904, Control_c, 0, 64, 0
1, 458917, Note_off_c, 0, 62, 65
1, 458919, Note_off_c, 0, 69, 66
1, 458927, Note_off_c, 0, 50, 65
1, 458949, Note_off_c, 0, 78, 64
1, 458953, Note_on_c, 0, 81, 81
1, 458984, Note_off_c, 0, 81, 57
1, 459004, Note_on_c, 0, 50, 71
1, 459011, Note_on_c, 0, 71, 76
1, 459011, Note_on_c, 0, 79, 79
1, 459035, Note_off_c, 0, 50, 68
1, 459049, Note_off_c, 0, 71, 66
1, 459083, Note_off_c, 0, 79, 64
1, 459085, Note_on_c, 0, 83, 80
1, 459097, Control_c, 0, 64, 64
1, 459111, Control_c, 0, 64, 89
1, 459126, Control_c, 0, 64, 127
1, 459133, Note_on_c, 0, 48, 91
1, 459136, Note_off_c, 0, 83, 62
1, 459141, Note_on_c, 0, 36, 82
1, 459141, Note_on_c, 0, 79, 77
1, 459149, Note_on_c, 0, 71, 77
1, 459167, Note_off_c, 0, 48, 63
1, 459171, Note_off_c, 0, 36, 63
1, 459184, Note_off_c, 0, 71, 65
1, 459232, Note_off_c, 0, 79, 64
1, 459235, Note_on_c, 0, 83, 73
1, 459250, Note_off_c, 0, 83, 70
1, 459252, Control_c, 0, 64, 111
1, 459267, Control_c, 0, 64, 89
1, 459282, Control_c, 0, 64, 73
1, 459288, Note_on_c, 0, 69, 74
1, 459288, Note_on_c, 0, 78, 67
1, 459291, Note_on_c, 0, 62, 73
1, 459296, Note_on_c, 0, 50, 65
1, 459297, Control_c, 0, 64, 37
1, 459312, Control_c, 0, 64, 0
1, 459314, Note_off_c, 0, 69, 67
1, 459321, Note_off_c, 0, 62, 63
1, 459332, Note_off_c, 0, 50, 62
1, 459353, Note_off_c, 0, 78, 64
1, 459363, Note_on_c, 0, 81, 70
1, 459381, Note_off_c, 0, 81, 64
1, 459408, Note_on_c, 0, 50, 72
1, 459408, Note_on_c, 0, 79, 79
1, 459415, Note_on_c, 0, 71, 69
1, 459437, Note_off_c, 0, 50, 69
1, 459446, Note_off_c, 0, 71, 67
1, 459478, Note_on_c, 0, 83, 86
1, 459488, Note_off_c, 0, 79, 60
1, 459504, Control_c, 0, 64, 62
1, 459518, Control_c, 0, 64, 84
1, 459521, Note_off_c, 0, 83, 59
1, 459533, Note_on_c, 0, 47, 93
1, 459533, Control_c, 0, 64, 127
1, 459542, Note_on_c, 0, 35, 83
1, 459545, Note_on_c, 0, 69, 83
1, 459545, Note_on_c, 0, 78, 85
1, 459562, Note_off_c, 0, 35, 63
1, 459568, Note_on_c, 0, 75, 52
1, 459570, Note_off_c, 0, 69, 66
1, 459573, Note_off_c, 0, 47, 64
1, 459589, Note_off_c, 0, 75, 60
1, 459596, Note_off_c, 0, 78, 66
1, 459618, Note_on_c, 0, 81, 69
1, 459619, Poly_aftertouch_c, 0, 39, 0
1, 459637, Note_off_c, 0, 81, 63
1, 459647, Poly_aftertouch_c, 0, 37, 0
1, 459658, Note_on_c, 0, 77, 80
1, 459660, Note_on_c, 0, 68, 82
1, 459664, Poly_aftertouch_c, 0, 39, 0
1, 459686, Note_on_c, 0, 62, 83
1, 459697, Note_on_c, 0, 50, 71
1, 459710, Note_off_c, 0, 68, 64
1, 459723, Poly_aftertouch_c, 0, 75, 127
1, 459728, Note_off_c, 0, 50, 65
1, 459731, Note_on_c, 0, 80, 78
1, 459733, Note_off_c, 0, 77, 64
1, 459736, Note_off_c, 0, 62, 59
1, 459753, Note_off_c, 0, 80, 69
1, 459756, Control_c, 0, 64, 114
1, 459763, Poly_aftertouch_c, 0, 75, 0
1, 459771, Control_c, 0, 64, 103
1, 459786, Note_on_c, 0, 76, 81
1, 459786, Control_c, 0, 64, 92
1, 459788, Note_on_c, 0, 67, 77
1, 459800, Note_on_c, 0, 50, 79
1, 459801, Control_c, 0, 64, 79
1, 459816, Control_c, 0, 64, 27
1, 459822, Note_off_c, 0, 67, 60
1, 459825, Note_off_c, 0, 50, 70
1, 459831, Control_c, 0, 64, 0
1, 459855, Note_off_c, 0, 76, 65
1, 459863, Note_on_c, 0, 79, 78
1, 459920, Control_c, 0, 64, 81
1, 459923, Note_on_c, 0, 46, 100
1, 459928, Note_on_c, 0, 34, 81
1, 459934, Control_c, 0, 64, 127
1, 459949, Note_off_c, 0, 34, 66
1, 459971, Note_off_c, 0, 46, 61
1, 460022, Note_off_c, 0, 79, 58
1, 460050, Note_on_c, 0, 76, 79
1, 460059, Note_on_c, 0, 67, 66
1, 460084, Note_on_c, 0, 62, 73
1, 460087, Note_off_c, 0, 67, 65
1, 460093, Note_on_c, 0, 50, 61
1, 460111, Note_off_c, 0, 62, 65
1, 460118, Note_off_c, 0, 76, 62
1, 460124, Note_on_c, 0, 79, 84
1, 460126, Note_off_c, 0, 50, 65
1, 460177, Note_off_c, 0, 79, 53
1, 460190, Note_on_c, 0, 50, 73
1, 460195, Note_on_c, 0, 78, 83
1, 460204, Note_on_c, 0, 69, 68
1, 460222, Note_off_c, 0, 50, 65
1, 460234, Note_off_c, 0, 69, 65
1, 460238, Control_c, 0, 64, 109
1, 460253, Control_c, 0, 64, 80
1, 460267, Note_on_c, 0, 81, 87
1, 460267, Control_c, 0, 64, 18
1, 460269, Note_off_c, 0, 78, 63
1, 460282, Control_c, 0, 64, 0
1, 460312, Control_c, 0, 64, 38
1, 460315, Note_on_c, 0, 46, 94
1, 460320, Note_on_c, 0, 34, 85
1, 460327, Control_c, 0, 64, 73
1, 460331, Note_off_c, 0, 81, 64
1, 460332, Note_on_c, 0, 78, 81
1, 460339, Note_on_c, 0, 69, 73
1, 460341, Control_c, 0, 64, 101
1, 460347, Note_off_c, 0, 34, 65
1, 460356, Control_c, 0, 64, 127
1, 460360, Note_off_c, 0, 46, 62
1, 460365, Note_on_c, 0, 75, 41
1, 460376, Note_off_c, 0, 69, 63
1, 460394, Note_off_c, 0, 75, 54
1, 460402, Note_off_c, 0, 78, 64
1, 460409, Note_on_c, 0, 81, 76
1, 460429, Note_off_c, 0, 81, 62
1, 460473, Note_on_c, 0, 76, 83
1, 460480, Note_on_c, 0, 62, 78
1, 460481, Note_on_c, 0, 67, 75
1, 460491, Note_on_c, 0, 50, 60
1, 460511, Note_off_c, 0, 62, 60
1, 460511, Note_off_c, 0, 67, 65
1, 460523, Note_off_c, 0, 50, 63
1, 460548, Note_on_c, 0, 79, 80
1, 460548, Note_off_c, 0, 76, 67
1, 460582, Note_off_c, 0, 79, 54
1, 460588, Note_on_c, 0, 50, 80
1, 460614, Note_off_c, 0, 50, 69
1, 460615, Note_on_c, 0, 69, 75
1, 460615, Note_on_c, 0, 78, 81
1, 460655, Note_off_c, 0, 69, 62
1, 460683, Control_c, 0, 64, 106
1, 460688, Note_on_c, 0, 81, 90
1, 460689, Note_off_c, 0, 78, 64
1, 460698, Control_c, 0, 64, 77
1, 460716, Poly_aftertouch_c, 0, 75, 0
1, 460720, Control_c, 0, 64, 0
1, 460743, Note_on_c, 0, 46, 95
1, 460747, Note_on_c, 0, 34, 90
1, 460758, Note_off_c, 0, 81, 64
1, 460758, Note_on_c, 0, 78, 76
1, 460764, Note_on_c, 0, 69, 80
1, 460764, Control_c, 0, 64, 62
1, 460774, Note_off_c, 0, 34, 67
1, 460779, Control_c, 0, 64, 76
1, 460790, Note_off_c, 0, 46, 64
1, 460794, Control_c, 0, 64, 111
1, 460801, Note_off_c, 0, 69, 64
1, 460809, Control_c, 0, 64, 127
1, 460837, Note_off_c, 0, 78, 64
1, 460838, Note_on_c, 0, 81, 77
1, 460865, Note_off_c, 0, 81, 60
1, 460913, Note_on_c, 0, 67, 79
1, 460914, Note_on_c, 0, 62, 81
1, 460916, Note_on_c, 0, 76, 73
1, 460922, Note_on_c, 0, 50, 67
1, 460953, Note_off_c, 0, 67, 61
1, 460970, Note_off_c, 0, 50, 57
1, 460976, Note_off_c, 0, 62, 58
1, 460995, Note_off_c, 0, 76, 65
1, 461012, Note_on_c, 0, 79, 49
1, 461015, Note_on_c, 0, 81, 57
1, 461037, Note_off_c, 0, 79, 56
1, 461043, Note_off_c, 0, 81, 56
1, 461049, Note_on_c, 0, 50, 77
1, 461058, Note_on_c, 0, 78, 83
1, 461059, Note_on_c, 0, 69, 74
1, 461086, Note_off_c, 0, 50, 62
1, 461093, Note_off_c, 0, 69, 63
1, 461128, Note_on_c, 0, 81, 84
1, 461132, Note_off_c, 0, 78, 64
1, 461134, Poly_aftertouch_c, 0, 51, 127
1, 461154, Note_off_c, 0, 81, 68
1, 461162, Poly_aftertouch_c, 0, 51, 0
1, 461192, Note_on_c, 0, 58, 94
1, 461196, Note_on_c, 0, 46, 87
1, 461205, Note_on_c, 0, 70, 86
1, 461208, Note_on_c, 0, 79, 82
1, 461231, Note_on_c, 0, 78, 53
1, 461234, Note_off_c, 0, 58, 63
1, 461241, Note_off_c, 0, 70, 61
1, 461244, Note_off_c, 0, 78, 42
1, 461258, Note_off_c, 0, 46, 62
1, 461273, Note_off_c, 0, 79, 64
1, 461274, Note_on_c, 0, 82, 74
1, 461301, Note_off_c, 0, 82, 65
1, 461339, Note_on_c, 0, 73, 80
1, 461348, Note_on_c, 0, 81, 88
1, 461352, Note_on_c, 0, 55, 96
1, 461354, Note_on_c, 0, 43, 85
1, 461378, Note_on_c, 0, 80, 41
1, 461385, Note_off_c, 0, 80, 43
1, 461386, Note_off_c, 0, 73, 64
1, 461389, Note_off_c, 0, 55, 62
1, 461403, Note_off_c, 0, 43, 62
1, 461414, Note_on_c, 0, 85, 89
1, 461419, Note_off_c, 0, 81, 67
1, 461479, Note_off_c, 0, 85, 66
1, 461504, Note_on_c, 0, 52, 91
1, 461504, Note_on_c, 0, 82, 89
1, 461508, Note_on_c, 0, 40, 85
1, 461510, Note_on_c, 0, 74, 74
1, 461542, Note_off_c, 0, 74, 64
1, 461556, Note_off_c, 0, 40, 57
1, 461584, Note_on_c, 0, 86, 91
1, 461594, Note_off_c, 0, 82, 66
1, 461602, Note_off_c, 0, 52, 57
1, 461626, Note_off_c, 0, 86, 66
1, 461715, Note_on_c, 0, 53, 100
1, 461718, Note_on_c, 0, 41, 100
1, 461721, Control_c, 0, 64, 98
1, 461736, Control_c, 0, 64, 67
1, 461751, Control_c, 0, 64, 0
1, 461766, Note_on_c, 0, 42, 20
1, 461783, Note_on_c, 0, 77, 107
1, 461785, Note_on_c, 0, 89, 101
1, 461786, Note_on_c, 0, 81, 106
1, 461794, Note_on_c, 0, 86, 81
1, 461807, Note_off_c, 0, 42, 52
1, 461810, Control_c, 0, 64, 67
1, 461825, Control_c, 0, 64, 89
1, 461839, Control_c, 0, 64, 127
1, 461864, Note_off_c, 0, 41, 62
1, 461874, Note_off_c, 0, 53, 59
1, 461896, Note_off_c, 0, 89, 60
1, 461901, Note_off_c, 0, 86, 61
1, 461905, Note_on_c, 0, 85, 34
1, 461933, Note_off_c, 0, 77, 56
1, 461944, Note_off_c, 0, 85, 43
1, 461974, Note_on_c, 0, 57, 72
1, 461977, Note_on_c, 0, 45, 68
1, 462003, Note_off_c, 0, 57, 66
1, 462010, Note_off_c, 0, 45, 65
1, 462060, Note_off_c, 0, 81, 46
1, 462090, Note_on_c, 0, 75, 83
1, 462090, Note_on_c, 0, 87, 78
1, 462108, Note_on_c, 0, 60, 79
1, 462110, Note_off_c, 0, 75, 69
1, 462111, Note_on_c, 0, 48, 66
1, 462117, Note_off_c, 0, 87, 66
1, 462121, Note_on_c, 0, 84, 36
1, 462135, Note_off_c, 0, 60, 66
1, 462142, Note_off_c, 0, 48, 64
1, 462152, Note_off_c, 0, 84, 49
1, 462221, Note_on_c, 0, 84, 95
1, 462229, Note_on_c, 0, 72, 93
1, 462235, Note_on_c, 0, 65, 79
1, 462237, Note_on_c, 0, 81, 77
1, 462251, Note_off_c, 0, 72, 71
1, 462255, Note_on_c, 0, 53, 48
1, 462259, Note_off_c, 0, 65, 68
1, 462261, Note_off_c, 0, 81, 68
1, 462267, Note_off_c, 0, 84, 65
1, 462278, Note_off_c, 0, 53, 61
1, 462318, Poly_aftertouch_c, 0, 52, 0
1, 462342, Note_on_c, 0, 53, 72
1, 462346, Note_on_c, 0, 82, 86
1, 462347, Note_on_c, 0, 74, 87
1, 462347, Poly_aftertouch_c, 0, 52, 0
1, 462347, Note_on_c, 0, 86, 86
1, 462348, Note_on_c, 0, 65, 77
1, 462370, Note_off_c, 0, 74, 66
1, 462370, Note_off_c, 0, 86, 68
1, 462374, Note_off_c, 0, 65, 68
1, 462393, Note_off_c, 0, 82, 64
1, 462402, Note_off_c, 0, 53, 58
1, 462449, Note_on_c, 0, 65, 73
1, 462453, Note_on_c, 0, 75, 89
1, 462454, Note_on_c, 0, 53, 62
1, 462457, Note_on_c, 0, 84, 75
1, 462464, Note_on_c, 0, 87, 76
1, 462475, Note_off_c, 0, 65, 67
1, 462476, Note_off_c, 0, 75, 64
1, 462491, Note_off_c, 0, 84, 63
1, 462492, Note_on_c, 0, 83, 35
1, 462493, Note_off_c, 0, 83, 127
1, 462495, Note_off_c, 0, 53, 61
1, 462496, Note_off_c, 0, 87, 65
1, 462544, Control_c, 0, 64, 86
1, 462559, Control_c, 0, 64, 58
1, 462574, Control_c, 0, 64, 0
1, 462583, Note_on_c, 0, 79, 106
1, 462583, Note_on_c, 0, 91, 110
1, 462587, Note_on_c, 0, 87, 96
1, 462589, Note_on_c, 0, 53, 81
1, 462596, Note_on_c, 0, 41, 66
1, 462615, Note_off_c, 0, 53, 67
1, 462618, Control_c, 0, 64, 66
1, 462629, Note_off_c, 0, 41, 65
1, 462633, Control_c, 0, 64, 82
1, 462648, Control_c, 0, 64, 127
1, 462708, Note_off_c, 0, 91, 63
1, 462714, Note_on_c, 0, 58, 84
1, 462719, Note_on_c, 0, 46, 73
1, 462723, Note_off_c, 0, 79, 58
1, 462730, Note_off_c, 0, 87, 64
1, 462752, Note_off_c, 0, 58, 51
1, 462753, Note_off_c, 0, 46, 66
1, 462830, Note_on_c, 0, 89, 89
1, 462831, Note_on_c, 0, 77, 91
1, 462839, Note_on_c, 0, 86, 76
1, 462858, Note_on_c, 0, 62, 57
1, 462864, Note_off_c, 0, 86, 67
1, 462865, Note_on_c, 0, 52, 50
1, 462867, Note_off_c, 0, 77, 60
1, 462870, Control_c, 0, 64, 111
1, 462871, Note_off_c, 0, 89, 64
1, 462883, Note_on_c, 0, 50, 16
1, 462884, Control_c, 0, 64, 82
1, 462886, Note_off_c, 0, 62, 64
1, 462892, Note_off_c, 0, 52, 54
1, 462899, Control_c, 0, 64, 57
1, 462910, Note_off_c, 0, 50, 48
1, 462914, Control_c, 0, 64, 0
1, 462929, Control_c, 0, 64, 30
1, 462944, Control_c, 0, 64, 64
1, 462960, Note_on_c, 0, 86, 86
1, 462965, Note_on_c, 0, 74, 97
1, 462965, Note_on_c, 0, 82, 92
1, 462966, Control_c, 0, 64, 75
1, 462981, Control_c, 0, 64, 93
1, 462982, Note_on_c, 0, 67, 64
1, 462987, Note_on_c, 0, 65, 67
1, 462990, Note_on_c, 0, 53, 52
1, 462991, Note_on_c, 0, 55, 59
1, 462996, Control_c, 0, 64, 127
1, 463006, Note_off_c, 0, 67, 64
1, 463014, Note_off_c, 0, 65, 66
1, 463017, Note_off_c, 0, 53, 60
1, 463017, Note_off_c, 0, 74, 58
1, 463023, Note_off_c, 0, 55, 64
1, 463058, Note_off_c, 0, 86, 63
1, 463066, Note_off_c, 0, 82, 65
1, 463093, Note_on_c, 0, 67, 62
1, 463098, Note_on_c, 0, 55, 62
1, 463098, Note_on_c, 0, 65, 68
1, 463100, Note_on_c, 0, 53, 65
1, 463123, Note_off_c, 0, 65, 68
1, 463123, Note_off_c, 0, 67, 66
1, 463134, Note_off_c, 0, 53, 60
1, 463143, Note_off_c, 0, 55, 61
1, 463187, Note_on_c, 0, 77, 97
1, 463187, Note_on_c, 0, 89, 91
1, 463190, Note_on_c, 0, 91, 87
1, 463194, Note_on_c, 0, 86, 79
1, 463194, Note_on_c, 0, 88, 77
1, 463197, Note_on_c, 0, 79, 73
1, 463199, Note_on_c, 0, 65, 72
1, 463207, Note_on_c, 0, 53, 76
1, 463214, Note_off_c, 0, 79, 41
1, 463233, Note_off_c, 0, 65, 67
1, 463268, Note_off_c, 0, 53, 61
1, 463296, Note_off_c, 0, 77, 60
1, 463304, Note_off_c, 0, 86, 60
1, 463307, Note_off_c, 0, 88, 61
1, 463307, Note_off_c, 0, 91, 59
1, 463316, Note_off_c, 0, 89, 64
1, 463351, Control_c, 0, 64, 83
1, 463366, Control_c, 0, 64, 42
1, 463375, Note_on_c, 0, 53, 76
1, 463381, Control_c, 0, 64, 0
1, 463382, Note_on_c, 0, 91, 104
1, 463384, Note_on_c, 0, 79, 107
1, 463384, Note_on_c, 0, 41, 62
1, 463384, Note_on_c, 0, 87, 96
1, 463401, Note_off_c, 0, 53, 65
1, 463410, Control_c, 0, 64, 65
1, 463413, Note_off_c, 0, 41, 55
1, 463425, Control_c, 0, 64, 80
1, 463440, Control_c, 0, 64, 127
1, 463504, Note_on_c, 0, 58, 81
1, 463507, Note_off_c, 0, 91, 65
1, 463513, Note_on_c, 0, 46, 70
1, 463516, Note_off_c, 0, 79, 58
1, 463521, Note_off_c, 0, 87, 63
1, 463532, Note_off_c, 0, 58, 64
1, 463542, Note_off_c, 0, 46, 65
1, 463623, Note_on_c, 0, 77, 89
1, 463624, Note_on_c, 0, 89, 87
1, 463632, Note_on_c, 0, 62, 76
1, 463632, Note_on_c, 0, 86, 69
1, 463637, Note_on_c, 0, 50, 61
1, 463647, Note_off_c, 0, 89, 67
1, 463649, Note_off_c, 0, 77, 65
1, 463652, Note_off_c, 0, 86, 66
1, 463657, Note_off_c, 0, 62, 67
1, 463664, Note_off_c, 0, 50, 62
1, 463739, Note_on_c, 0, 86, 78
1, 463744, Note_on_c, 0, 74, 92
1, 463745, Poly_aftertouch_c, 0, 52, 0
1, 463747, Note_on_c, 0, 82, 85
1, 463751, Note_on_c, 0, 65, 85
1, 463755, Note_on_c, 0, 53, 75
1, 463761, Note_off_c, 0, 74, 74
1, 463763, Note_off_c, 0, 82, 74
1, 463769, Note_off_c, 0, 86, 63
1, 463775, Note_off_c, 0, 65, 68
1, 463786, Note_off_c, 0, 53, 62
1, 463852, Note_on_c, 0, 89, 92
1, 463853, Note_on_c, 0, 77, 92
1, 463854, Note_on_c, 0, 53, 73
1, 463861, Note_on_c, 0, 65, 73
1, 463870, Note_off_c, 0, 89, 73
1, 463871, Note_off_c, 0, 77, 71
1, 463888, Note_off_c, 0, 65, 67
1, 463895, Note_off_c, 0, 53, 47
1, 463959, Note_on_c, 0, 82, 96
1, 463959, Note_on_c, 0, 94, 99
1, 463966, Note_on_c, 0, 65, 79
1, 463971, Note_on_c, 0, 53, 66
1, 463994, Note_off_c, 0, 82, 65
1, 463995, Note_off_c, 0, 53, 68
1, 463998, Note_off_c, 0, 65, 67
1, 463998, Note_off_c, 0, 94, 62
1, 464011, Control_c, 0, 64, 75
1, 464026, Control_c, 0, 64, 0
1, 464064, Note_on_c, 0, 94, 107
1, 464065, Note_on_c, 0, 82, 105
1, 464069, Note_on_c, 0, 87, 101
1, 464073, Note_on_c, 0, 66, 96
1, 464076, Note_on_c, 0, 54, 75
1, 464085, Control_c, 0, 64, 67
1, 464094, Note_off_c, 0, 66, 68
1, 464097, Note_on_c, 0, 95, 50
1, 464100, Control_c, 0, 64, 86
1, 464114, Control_c, 0, 64, 127
1, 464127, Note_off_c, 0, 95, 48
1, 464130, Note_off_c, 0, 54, 60
1, 464174, Poly_aftertouch_c, 0, 56, 0
1, 464176, Poly_aftertouch_c, 0, 92, 0
1, 464177, Note_on_c, 0, 65, 82
1, 464180, Note_on_c, 0, 53, 80
1, 464198, Note_off_c, 0, 65, 71
1, 464216, Note_off_c, 0, 53, 60
1, 464249, Note_off_c, 0, 94, 57
1, 464280, Note_off_c, 0, 82, 61
1, 464289, Note_on_c, 0, 60, 84
1, 464293, Note_on_c, 0, 48, 80
1, 464311, Note_off_c, 0, 60, 69
1, 464318, Note_off_c, 0, 48, 65
1, 464368, Note_off_c, 0, 87, 60
1, 464398, Note_on_c, 0, 93, 91
1, 464399, Note_on_c, 0, 81, 98
1, 464400, Note_on_c, 0, 54, 84
1, 464402, Note_on_c, 0, 42, 80
1, 464418, Note_off_c, 0, 93, 71
1, 464421, Note_off_c, 0, 54, 70
1, 464427, Note_off_c, 0, 81, 64
1, 464435, Note_off_c, 0, 42, 65
1, 464519, Note_on_c, 0, 53, 76
1, 464520, Note_on_c, 0, 41, 75
1, 464544, Note_off_c, 0, 53, 67
1, 464547, Note_off_c, 0, 41, 65
1, 464630, Note_on_c, 0, 48, 71
1, 464633, Note_on_c, 0, 36, 72
1, 464657, Note_off_c, 0, 48, 66
1, 464660, Note_off_c, 0, 36, 65
1, 464671, Control_c, 0, 64, 121
1, 464686, Control_c, 0, 64, 93
1, 464701, Control_c, 0, 64, 74
1, 464716, Control_c, 0, 64, 0
1, 464764, Note_on_c, 0, 29, 63
1, 464764, Note_on_c, 0, 41, 62
1, 464767, Note_on_c, 0, 65, 79
1, 464771, Note_on_c, 0, 53, 74
1, 464781, Note_on_c, 0, 62, 62
1, 464799, Note_off_c, 0, 41, 64
1, 464800, Note_off_c, 0, 29, 61
1, 464804, Control_c, 0, 64, 60
1, 464819, Control_c, 0, 64, 70
1, 464823, Note_off_c, 0, 53, 56
1, 464824, Note_off_c, 0, 65, 64
1, 464834, Control_c, 0, 64, 83
1, 464849, Control_c, 0, 64, 100
1, 464863, Control_c, 0, 64, 118
1, 464869, Note_off_c, 0, 62, 56
1, 464878, Control_c, 0, 64, 127
1, 464881, Note_on_c, 0, 41, 59
1, 464881, Note_on_c, 0, 29, 60
1, 464910, Note_off_c, 0, 41, 62
1, 464930, Note_off_c, 0, 29, 49
1, 464977, Note_on_c, 0, 51, 79
1, 464978, Note_on_c, 0, 41, 68
1, 464982, Control_c, 0, 64, 117
1, 464984, Note_on_c, 0, 63, 65
1, 464985, Note_on_c, 0, 29, 49
1, 464994, Note_on_c, 0, 60, 48
1, 464997, Control_c, 0, 64, 94
1, 465004, Note_off_c, 0, 51, 68
1, 465007, Note_off_c, 0, 41, 65
1, 465012, Control_c, 0, 64, 73
1, 465012, Note_off_c, 0, 63, 66
1, 465021, Note_off_c, 0, 29, 50
1, 465022, Note_off_c, 0, 60, 54
1, 465027, Control_c, 0, 64, 0
1, 465083, Note_on_c, 0, 60, 81
1, 465088, Note_on_c, 0, 30, 69
1, 465092, Note_on_c, 0, 42, 62
1, 465098, Note_on_c, 0, 48, 64
1, 465101, Note_on_c, 0, 57, 58
1, 465120, Note_off_c, 0, 60, 57
1, 465122, Note_off_c, 0, 42, 64
1, 465123, Note_off_c, 0, 57, 57
1, 465124, Note_off_c, 0, 48, 62
1, 465132, Note_off_c, 0, 30, 58
1, 465194, Note_on_c, 0, 58, 81
1, 465194, Note_on_c, 0, 50, 80
1, 465209, Note_on_c, 0, 41, 58
1, 465211, Note_on_c, 0, 62, 62
1, 465226, Note_off_c, 0, 50, 67
1, 465232, Note_off_c, 0, 58, 63
1, 465232, Note_off_c, 0, 62, 59
1, 465243, Note_off_c, 0, 41, 63
1, 465298, Note_on_c, 0, 51, 79
1, 465305, Note_on_c, 0, 60, 74
1, 465313, Note_on_c, 0, 63, 59
1, 465316, Note_on_c, 0, 41, 65
1, 465319, Note_on_c, 0, 29, 50
1, 465325, Note_off_c, 0, 51, 69
1, 465331, Note_off_c, 0, 60, 67
1, 465340, Note_off_c, 0, 63, 66
1, 465347, Note_off_c, 0, 41, 65
1, 465358, Note_off_c, 0, 29, 61
1, 465375, Control_c, 0, 64, 42
1, 465390, Control_c, 0, 64, 65
1, 465405, Control_c, 0, 64, 74
1, 465416, Note_on_c, 0, 67, 88
1, 465417, Note_on_c, 0, 63, 72
1, 465419, Note_on_c, 0, 55, 80
1, 465420, Control_c, 0, 64, 90
1, 465424, Note_on_c, 0, 41, 65
1, 465435, Control_c, 0, 64, 111
1, 465444, Note_on_c, 0, 29, 62
1, 465450, Control_c, 0, 64, 127
1, 465468, Note_off_c, 0, 41, 60
1, 465487, Note_off_c, 0, 29, 59
1, 465504, Note_off_c, 0, 55, 0
1, 465533, Note_off_c, 0, 67, 59
1, 465535, Note_on_c, 0, 55, 22
1, 465547, Note_on_c, 0, 41, 62
1, 465556, Note_on_c, 0, 29, 52
1, 465560, Note_off_c, 0, 55, 62
1, 465563, Note_off_c, 0, 63, 61
1, 465581, Note_off_c, 0, 41, 62
1, 465600, Note_off_c, 0, 29, 61
1, 465627, Control_c, 0, 64, 116
1, 465642, Control_c, 0, 64, 91
1, 465650, Note_on_c, 0, 65, 81
1, 465651, Note_on_c, 0, 53, 78
1, 465653, Note_on_c, 0, 41, 65
1, 465657, Control_c, 0, 64, 73
1, 465659, Note_on_c, 0, 62, 64
1, 465667, Note_on_c, 0, 29, 39
1, 465672, Control_c, 0, 64, 0
1, 465676, Note_off_c, 0, 65, 69
1, 465677, Note_off_c, 0, 62, 62
1, 465679, Note_off_c, 0, 53, 64
1, 465685, Note_off_c, 0, 41, 65
1, 465711, Note_off_c, 0, 29, 42
1, 465730, Control_c, 0, 64, 63
1, 465745, Control_c, 0, 64, 71
1, 465760, Control_c, 0, 64, 84
1, 465763, Note_on_c, 0, 58, 80
1, 465763, Note_on_c, 0, 62, 68
1, 465766, Note_on_c, 0, 31, 67
1, 465771, Note_on_c, 0, 50, 74
1, 465774, Note_on_c, 0, 43, 55
1, 465775, Control_c, 0, 64, 103
1, 465790, Control_c, 0, 64, 127
1, 465799, Note_off_c, 0, 31, 63
1, 465801, Note_off_c, 0, 43, 58
1, 465802, Note_off_c, 0, 50, 66
1, 465819, Note_off_c, 0, 62, 51
1, 465841, Note_off_c, 0, 58, 62
1, 465879, Note_on_c, 0, 41, 66
1, 465886, Note_on_c, 0, 29, 61
1, 465909, Note_off_c, 0, 41, 64
1, 465933, Note_off_c, 0, 29, 57
1, 465988, Note_on_c, 0, 41, 71
1, 465999, Note_on_c, 0, 29, 62
1, 466000, Note_on_c, 0, 65, 83
1, 466004, Note_on_c, 0, 53, 77
1, 466009, Note_on_c, 0, 62, 69
1, 466032, Note_off_c, 0, 53, 66
1, 466034, Note_off_c, 0, 62, 69
1, 466042, Note_off_c, 0, 41, 61
1, 466047, Note_off_c, 0, 65, 64
1, 466050, Control_c, 0, 64, 100
1, 466059, Note_off_c, 0, 29, 58
1, 466065, Control_c, 0, 64, 76
1, 466080, Control_c, 0, 64, 0
1, 466116, Note_on_c, 0, 41, 64
1, 466118, Note_on_c, 0, 29, 56
1, 466121, Note_on_c, 0, 67, 88
1, 466123, Note_on_c, 0, 55, 90
1, 466124, Control_c, 0, 64, 41
1, 466126, Note_on_c, 0, 63, 85
1, 466139, Control_c, 0, 64, 66
1, 466150, Note_off_c, 0, 41, 65
1, 466150, Note_off_c, 0, 29, 63
1, 466153, Control_c, 0, 64, 78
1, 466168, Control_c, 0, 64, 95
1, 466183, Control_c, 0, 64, 127
1, 466218, Note_off_c, 0, 67, 60
1, 466230, Note_off_c, 0, 55, 61
1, 466240, Note_off_c, 0, 63, 61
1, 466241, Note_on_c, 0, 45, 67
1, 466253, Note_on_c, 0, 33, 47
1, 466273, Note_off_c, 0, 45, 63
1, 466289, Note_off_c, 0, 33, 54
1, 466336, Note_on_c, 0, 46, 73
1, 466341, Note_on_c, 0, 34, 75
1, 466344, Note_on_c, 0, 53, 87
1, 466344, Note_on_c, 0, 65, 84
1, 466353, Note_on_c, 0, 62, 64
1, 466364, Note_off_c, 0, 46, 66
1, 466365, Note_off_c, 0, 65, 71
1, 466367, Note_off_c, 0, 53, 68
1, 466374, Note_off_c, 0, 62, 62
1, 466383, Note_off_c, 0, 34, 61
1, 466447, Note_on_c, 0, 41, 83
1, 466449, Note_on_c, 0, 62, 80
1, 466452, Note_on_c, 0, 29, 76
1, 466452, Note_on_c, 0, 50, 84
1, 466452, Note_on_c, 0, 58, 83
1, 466469, Note_off_c, 0, 41, 67
1, 466474, Note_off_c, 0, 58, 70
1, 466475, Note_off_c, 0, 50, 69
1, 466478, Note_off_c, 0, 62, 63
1, 466487, Note_off_c, 0, 29, 61
1, 466553, Note_on_c, 0, 46, 84
1, 466553, Note_on_c, 0, 53, 89
1, 466556, Note_on_c, 0, 34, 68
1, 466560, Note_on_c, 0, 65, 71
1, 466578, Note_on_c, 0, 64, 50
1, 466578, Note_off_c, 0, 46, 70
1, 466583, Note_off_c, 0, 53, 64
1, 466589, Note_off_c, 0, 34, 63
1, 466589, Note_off_c, 0, 65, 67
1, 466600, Note_off_c, 0, 64, 60
1, 466655, Note_on_c, 0, 70, 97
1, 466657, Note_on_c, 0, 58, 101
1, 466662, Poly_aftertouch_c, 0, 63, 0
1, 466670, Note_on_c, 0, 50, 68
1, 466674, Note_on_c, 0, 38, 66
1, 466690, Note_off_c, 0, 58, 51
1, 466693, Note_off_c, 0, 70, 56
1, 466707, Note_off_c, 0, 50, 64
1, 466714, Note_off_c, 0, 38, 64
1, 466739, Control_c, 0, 64, 118
1, 466753, Control_c, 0, 64, 86
1, 466768, Control_c, 0, 64, 63
1, 466783, Control_c, 0, 64, 0
1, 466785, Note_on_c, 0, 70, 100
1, 466786, Note_on_c, 0, 58, 108
1, 466791, Note_on_c, 0, 63, 88
1, 466803, Note_on_c, 0, 42, 65
1, 466807, Note_on_c, 0, 30, 57
1, 466829, Control_c, 0, 64, 51
1, 466833, Note_off_c, 0, 42, 64
1, 466842, Note_off_c, 0, 30, 52
1, 466844, Control_c, 0, 64, 70
1, 466858, Control_c, 0, 64, 88
1, 466873, Control_c, 0, 64, 127
1, 466908, Note_on_c, 0, 48, 80
1, 466916, Note_on_c, 0, 36, 67
1, 466937, Note_off_c, 0, 48, 66
1, 466947, Note_off_c, 0, 36, 63
1, 466988, Note_off_c, 0, 70, 54
1, 467000, Note_off_c, 0, 58, 58
1, 467015, Note_on_c, 0, 50, 73
1, 467030, Note_on_c, 0, 38, 55
1, 467045, Note_off_c, 0, 50, 66
1, 467051, Control_c, 0, 64, 94
1, 467059, Note_off_c, 0, 38, 56
1, 467066, Control_c, 0, 64, 72
1, 467080, Control_c, 0, 64, 0
1, 467110, Note_off_c, 0, 63, 62
1, 467121, Note_on_c, 0, 69, 81
1, 467123, Note_on_c, 0, 57, 82
1, 467125, Control_c, 0, 64, 52
1, 467128, Note_on_c, 0, 51, 66
1, 467131, Note_on_c, 0, 39, 70
1, 467140, Control_c, 0, 64, 68
1, 467155, Control_c, 0, 64, 81
1, 467155, Note_off_c, 0, 51, 66
1, 467156, Note_off_c, 0, 57, 62
1, 467158, Note_off_c, 0, 69, 61
1, 467167, Note_off_c, 0, 39, 63
1, 467170, Control_c, 0, 64, 100
1, 467184, Control_c, 0, 64, 127
1, 467227, Poly_aftertouch_c, 0, 68, 0
1, 467239, Note_on_c, 0, 48, 67
1, 467247, Note_on_c, 0, 36, 63
1, 467271, Note_off_c, 0, 48, 63
1, 467278, Note_off_c, 0, 36, 63
1, 467334, Note_on_c, 0, 56, 100
1, 467339, Note_on_c, 0, 60, 71
1, 467340, Note_on_c, 0, 68, 82
1, 467343, Note_on_c, 0, 63, 79
1, 467349, Note_on_c, 0, 42, 76
1, 467355, Note_on_c, 0, 30, 70
1, 467370, Note_off_c, 0, 60, 63
1, 467374, Note_off_c, 0, 56, 64
1, 467377, Note_off_c, 0, 42, 64
1, 467379, Note_off_c, 0, 63, 61
1, 467384, Note_off_c, 0, 68, 60
1, 467385, Note_off_c, 0, 30, 63
1, 467421, Control_c, 0, 64, 93
1, 467436, Control_c, 0, 64, 67
1, 467453, Note_on_c, 0, 56, 95
1, 467454, Note_on_c, 0, 68, 87
1, 467456, Note_on_c, 0, 43, 79
1, 467458, Control_c, 0, 64, 0
1, 467459, Note_on_c, 0, 63, 81
1, 467459, Note_on_c, 0, 60, 83
1, 467464, Note_on_c, 0, 31, 71
1, 467486, Note_off_c, 0, 43, 67
1, 467492, Note_off_c, 0, 31, 65
1, 467502, Control_c, 0, 64, 64
1, 467517, Control_c, 0, 64, 79
1, 467532, Control_c, 0, 64, 114
1, 467547, Control_c, 0, 64, 127
1, 467567, Note_off_c, 0, 56, 61
1, 467574, Note_off_c, 0, 68, 61
1, 467576, Note_on_c, 0, 47, 80
1, 467579, Note_on_c, 0, 35, 76
1, 467584, Note_off_c, 0, 63, 61
1, 467593, Note_off_c, 0, 60, 57
1, 467602, Note_off_c, 0, 47, 65
1, 467611, Note_off_c, 0, 35, 63
1, 467680, Note_on_c, 0, 48, 82
1, 467685, Note_on_c, 0, 36, 79
1, 467686, Note_on_c, 0, 55, 95
1, 467688, Note_on_c, 0, 67, 85
1, 467704, Note_off_c, 0, 48, 66
1, 467709, Note_off_c, 0, 55, 70
1, 467709, Note_off_c, 0, 67, 71
1, 467714, Note_on_c, 0, 66, 47
1, 467718, Note_off_c, 0, 36, 64
1, 467733, Note_on_c, 0, 65, 16
1, 467734, Note_off_c, 0, 65, 127
1, 467742, Note_off_c, 0, 66, 61
1, 467777, Poly_aftertouch_c, 0, 65, 0
1, 467784, Note_on_c, 0, 43, 84
1, 467791, Note_on_c, 0, 63, 98
1, 467794, Note_on_c, 0, 31, 76
1, 467796, Note_on_c, 0, 51, 92
1, 467811, Note_off_c, 0, 43, 68
1, 467813, Note_off_c, 0, 31, 66
1, 467814, Note_off_c, 0, 51, 72
1, 467815, Note_off_c, 0, 63, 63
1, 467892, Note_on_c, 0, 67, 99
1, 467894, Note_on_c, 0, 55, 93
1, 467900, Note_on_c, 0, 48, 75
1, 467902, Note_on_c, 0, 36, 73
1, 467912, Note_off_c, 0, 55, 73
1, 467925, Note_off_c, 0, 67, 63
1, 467931, Note_off_c, 0, 48, 62
1, 467933, Note_off_c, 0, 36, 63
1, 468002, Note_on_c, 0, 72, 104
1, 468003, Note_on_c, 0, 39, 84
1, 468005, Note_on_c, 0, 60, 88
1, 468005, Note_on_c, 0, 59, 87
1, 468006, Note_on_c, 0, 71, 92
1, 468010, Note_on_c, 0, 51, 65
1, 468023, Note_off_c, 0, 59, 73
1, 468025, Note_off_c, 0, 60, 71
1, 468028, Note_off_c, 0, 71, 67
1, 468029, Note_off_c, 0, 51, 65
1, 468034, Note_off_c, 0, 72, 66
1, 468039, Note_off_c, 0, 39, 64
1, 468081, Control_c, 0, 64, 93
1, 468096, Control_c, 0, 64, 54
1, 468103, Note_on_c, 0, 60, 108
1, 468104, Note_on_c, 0, 72, 109
1, 468107, Note_on_c, 0, 65, 104
1, 468110, Note_on_c, 0, 44, 86
1, 468111, Control_c, 0, 64, 0
1, 468118, Note_on_c, 0, 32, 75
1, 468136, Note_off_c, 0, 44, 69
1, 468142, Note_off_c, 0, 32, 66
1, 468155, Control_c, 0, 64, 52
1, 468170, Control_c, 0, 64, 74
1, 468185, Control_c, 0, 64, 104
1, 468207, Control_c, 0, 64, 127
1, 468242, Note_on_c, 0, 50, 80
1, 468252, Note_on_c, 0, 38, 60
1, 468267, Note_off_c, 0, 50, 67
1, 468279, Note_off_c, 0, 38, 59
1, 468327, Note_off_c, 0, 72, 54
1, 468344, Note_off_c, 0, 60, 58
1, 468350, Note_on_c, 0, 51, 77
1, 468359, Note_on_c, 0, 39, 67
1, 468378, Note_off_c, 0, 51, 65
1, 468390, Note_off_c, 0, 39, 65
1, 468399, Control_c, 0, 64, 99
1, 468408, Note_off_c, 0, 65, 59
1, 468414, Control_c, 0, 64, 78
1, 468430, Control_c, 0, 64, 55
1, 468438, Note_on_c, 0, 59, 89
1, 468441, Note_on_c, 0, 71, 87
1, 468445, Control_c, 0, 64, 0
1, 468460, Control_c, 0, 64, 36
1, 468468, Note_on_c, 0, 53, 64
1, 468469, Note_off_c, 0, 59, 64
1, 468469, Note_off_c, 0, 71, 68
1, 468474, Control_c, 0, 64, 64
1, 468479, Note_on_c, 0, 43, 47
1, 468482, Note_on_c, 0, 41, 52
1, 468489, Control_c, 0, 64, 73
1, 468500, Note_off_c, 0, 53, 64
1, 468504, Control_c, 0, 64, 94
1, 468511, Note_off_c, 0, 43, 50
1, 468513, Note_off_c, 0, 41, 51
1, 468519, Control_c, 0, 64, 127
1, 468562, Note_on_c, 0, 50, 86
1, 468571, Note_on_c, 0, 38, 78
1, 468588, Note_off_c, 0, 50, 70
1, 468601, Note_off_c, 0, 38, 65
1, 468662, Note_on_c, 0, 58, 92
1, 468663, Note_on_c, 0, 70, 84
1, 468669, Note_on_c, 0, 62, 76
1, 468669, Note_on_c, 0, 65, 81
1, 468678, Note_on_c, 0, 44, 85
1, 468679, Note_on_c, 0, 32, 82
1, 468704, Note_off_c, 0, 58, 65
1, 468708, Note_off_c, 0, 32, 67
1, 468710, Note_off_c, 0, 44, 63
1, 468710, Note_off_c, 0, 70, 63
1, 468721, Note_off_c, 0, 65, 64
1, 468722, Note_off_c, 0, 62, 58
1, 468726, Control_c, 0, 64, 108
1, 468741, Control_c, 0, 64, 76
1, 468756, Control_c, 0, 64, 0
1, 468770, Note_on_c, 0, 58, 106
1, 468771, Note_on_c, 0, 62, 86
1, 468771, Note_on_c, 0, 70, 96
1, 468774, Note_on_c, 0, 65, 84
1, 468780, Note_on_c, 0, 45, 87
1, 468792, Note_on_c, 0, 33, 67
1, 468793, Note_on_c, 0, 35, 70
1, 468800, Control_c, 0, 64, 15
1, 468811, Note_off_c, 0, 45, 66
1, 468815, Control_c, 0, 64, 69
1, 468824, Note_off_c, 0, 35, 63
1, 468825, Note_off_c, 0, 33, 64
1, 468830, Control_c, 0, 64, 92
1, 468845, Control_c, 0, 64, 127
1, 468894, Note_off_c, 0, 58, 52
1, 468902, Note_on_c, 0, 49, 87
1, 468905, Note_off_c, 0, 70, 62
1, 468911, Note_on_c, 0, 37, 74
1, 468920, Note_off_c, 0, 65, 62
1, 468932, Note_off_c, 0, 62, 56
1, 468952, Note_off_c, 0, 49, 55
1, 468957, Note_off_c, 0, 37, 62
1, 469034, Note_on_c, 0, 50, 79
1, 469039, Note_on_c, 0, 38, 72
1, 469052, Note_on_c, 0, 69, 94
1, 469053, Note_on_c, 0, 57, 95
1, 469061, Note_off_c, 0, 50, 65
1, 469077, Note_off_c, 0, 38, 65
1, 469086, Note_off_c, 0, 57, 65
1, 469090, Note_off_c, 0, 69, 63
1, 469167, Note_on_c, 0, 45, 88
1, 469168, Poly_aftertouch_c, 0, 68, 0
1, 469173, Note_on_c, 0, 33, 69
1, 469182, Note_on_c, 0, 65, 96
1, 469185, Note_on_c, 0, 53, 96
1, 469188, Note_off_c, 0, 45, 69
1, 469206, Note_off_c, 0, 33, 61
1, 469206, Note_off_c, 0, 53, 69
1, 469221, Note_off_c, 0, 65, 68
1, 469298, Note_on_c, 0, 50, 81
1, 469299, Note_on_c, 0, 69, 101
1, 469304, Note_on_c, 0, 57, 89
1, 469315, Note_on_c, 0, 38, 55
1, 469320, Note_off_c, 0, 50, 70
1, 469321, Note_off_c, 0, 57, 73
1, 469334, Note_on_c, 0, 59, 31
1, 469335, Note_off_c, 0, 59, 127
1, 469336, Note_off_c, 0, 69, 66
1, 469337, Note_on_c, 0, 36, 17
1, 469340, Note_off_c, 0, 38, 59
1, 469385, Note_off_c, 0, 36, 38
1, 469413, Note_on_c, 0, 74, 101
1, 469414, Note_on_c, 0, 62, 101
1, 469427, Note_on_c, 0, 41, 83
1, 469427, Note_on_c, 0, 53, 77
1, 469449, Note_off_c, 0, 53, 69
1, 469453, Note_off_c, 0, 62, 60
1, 469469, Note_off_c, 0, 41, 62
1, 469513, Note_on_c, 0, 62, 42
1, 469534, Note_off_c, 0, 62, 59
1, 469537, Note_off_c, 0, 74, 58
1, 469549, Control_c, 0, 64, 101
1, 469558, Poly_aftertouch_c, 0, 72, 0
1, 469564, Control_c, 0, 64, 76
1, 469578, Control_c, 0, 64, 0
1, 469608, Note_on_c, 0, 46, 67
1, 469627, Note_on_c, 0, 34, 42
1, 469635, Note_on_c, 0, 62, 63
1, 469636, Note_on_c, 0, 74, 79
1, 469637, Note_off_c, 0, 46, 65
1, 469638, Control_c, 0, 64, 62
1, 469642, Note_on_c, 0, 67, 68
1, 469653, Control_c, 0, 64, 73
1, 469665, Note_off_c, 0, 34, 45
1, 469668, Control_c, 0, 64, 88
1, 469683, Control_c, 0, 64, 107
1, 469687, Note_off_c, 0, 62, 61
1, 469704, Control_c, 0, 64, 117
1, 469706, Note_off_c, 0, 74, 60
1, 469719, Control_c, 0, 64, 119
1, 469734, Control_c, 0, 64, 120
1, 469746, Note_on_c, 0, 52, 70
1, 469749, Control_c, 0, 64, 121
1, 469756, Note_on_c, 0, 40, 54
1, 469764, Control_c, 0, 64, 127
1, 469775, Note_off_c, 0, 52, 65
1, 469787, Note_off_c, 0, 40, 53
1, 469857, Note_on_c, 0, 43, 74
1, 469860, Note_on_c, 0, 55, 60
1, 469860, Note_on_c, 0, 73, 73
1, 469867, Note_on_c, 0, 61, 65
1, 469884, Note_off_c, 0, 55, 60
1, 469884, Note_off_c, 0, 73, 69
1, 469886, Note_off_c, 0, 67, 55
1, 469887, Note_off_c, 0, 61, 63
1, 469889, Note_off_c, 0, 43, 63
1, 469912, Control_c, 0, 64, 99
1, 469927, Control_c, 0, 64, 75
1, 469942, Control_c, 0, 64, 0
1, 469962, Note_on_c, 0, 76, 94
1, 469966, Note_on_c, 0, 48, 73
1, 469967, Note_on_c, 0, 69, 86
1, 469969, Note_on_c, 0, 64, 82
1, 469975, Note_on_c, 0, 36, 64
1, 469986, Control_c, 0, 64, 64
1, 469991, Note_off_c, 0, 48, 65
1, 470001, Control_c, 0, 64, 80
1, 470002, Note_off_c, 0, 36, 57
1, 470010, Note_off_c, 0, 64, 50
1, 470016, Control_c, 0, 64, 110
1, 470032, Control_c, 0, 64, 127
1, 470055, Note_on_c, 0, 68, 59
1, 470064, Note_off_c, 0, 76, 61
1, 470082, Note_on_c, 0, 54, 76
1, 470085, Note_on_c, 0, 42, 73
1, 470092, Note_off_c, 0, 69, 53
1, 470107, Note_off_c, 0, 68, 50
1, 470109, Note_off_c, 0, 54, 65
1, 470113, Note_off_c, 0, 42, 64
1, 470187, Note_on_c, 0, 57, 78
1, 470188, Note_on_c, 0, 75, 92
1, 470189, Note_on_c, 0, 45, 77
1, 470193, Note_on_c, 0, 63, 82
1, 470209, Control_c, 0, 64, 115
1, 470210, Note_off_c, 0, 75, 63
1, 470210, Note_off_c, 0, 57, 68
1, 470214, Note_off_c, 0, 63, 70
1, 470216, Note_off_c, 0, 45, 65
1, 470224, Control_c, 0, 64, 84
1, 470238, Control_c, 0, 64, 60
1, 470253, Control_c, 0, 64, 0
1, 470283, Control_c, 0, 64, 57
1, 470287, Note_on_c, 0, 49, 80
1, 470287, Note_on_c, 0, 66, 109
1, 470288, Note_on_c, 0, 78, 101
1, 470291, Note_on_c, 0, 70, 93
1, 470297, Note_on_c, 0, 37, 66
1, 470298, Control_c, 0, 64, 78
1, 470309, Note_off_c, 0, 49, 67
1, 470313, Control_c, 0, 64, 127
1, 470328, Note_off_c, 0, 37, 64
1, 470374, Note_off_c, 0, 66, 61
1, 470377, Note_off_c, 0, 78, 63
1, 470392, Note_on_c, 0, 55, 84
1, 470413, Note_on_c, 0, 45, 57
1, 470416, Note_off_c, 0, 55, 69
1, 470419, Note_on_c, 0, 43, 44
1, 470448, Note_off_c, 0, 45, 55
1, 470458, Note_off_c, 0, 43, 50
1, 470506, Note_on_c, 0, 46, 86
1, 470512, Note_on_c, 0, 58, 79
1, 470512, Note_on_c, 0, 76, 89
1, 470517, Note_on_c, 0, 64, 78
1, 470527, Control_c, 0, 64, 90
1, 470529, Note_off_c, 0, 70, 61
1, 470534, Note_off_c, 0, 58, 70
1, 470538, Note_off_c, 0, 64, 71
1, 470542, Control_c, 0, 64, 66
1, 470550, Note_off_c, 0, 46, 61
1, 470550, Note_off_c, 0, 76, 61
1, 470557, Control_c, 0, 64, 0
1, 470601, Control_c, 0, 64, 60
1, 470616, Control_c, 0, 64, 76
1, 470619, Note_on_c, 0, 50, 83
1, 470620, Note_on_c, 0, 79, 102
1, 470621, Note_on_c, 0, 67, 112
1, 470622, Note_on_c, 0, 38, 77
1, 470622, Note_on_c, 0, 71, 98
1, 470631, Control_c, 0, 64, 108
1, 470641, Note_off_c, 0, 50, 68
1, 470646, Control_c, 0, 64, 127
1, 470651, Note_off_c, 0, 38, 66
1, 470655, Note_on_c, 0, 39, 23
1, 470698, Note_off_c, 0, 39, 49
1, 470702, Note_off_c, 0, 79, 60
1, 470718, Note_off_c, 0, 67, 56
1, 470735, Note_on_c, 0, 44, 82
1, 470744, Note_on_c, 0, 56, 65
1, 470769, Note_off_c, 0, 44, 62
1, 470774, Note_off_c, 0, 56, 65
1, 470812, Note_off_c, 0, 71, 58
1, 470839, Control_c, 0, 64, 118
1, 470854, Control_c, 0, 64, 93
1, 470859, Note_on_c, 0, 59, 57
1, 470863, Note_on_c, 0, 47, 54
1, 470863, Note_on_c, 0, 77, 73
1, 470869, Control_c, 0, 64, 75
1, 470870, Note_on_c, 0, 65, 67
1, 470881, Note_off_c, 0, 59, 58
1, 470884, Control_c, 0, 64, 56
1, 470886, Note_off_c, 0, 77, 68
1, 470888, Note_off_c, 0, 65, 64
1, 470890, Note_off_c, 0, 47, 53
1, 470899, Control_c, 0, 64, 0
1, 470943, Control_c, 0, 64, 37
1, 470958, Control_c, 0, 64, 68
1, 470965, Note_on_c, 0, 51, 74
1, 470968, Note_on_c, 0, 39, 71
1, 470970, Note_on_c, 0, 80, 89
1, 470973, Control_c, 0, 64, 87
1, 470974, Note_on_c, 0, 68, 86
1, 470977, Note_on_c, 0, 72, 86
1, 470988, Note_on_c, 0, 73, 33
1, 470988, Control_c, 0, 64, 127
1, 470990, Note_off_c, 0, 80, 65
1, 470993, Note_off_c, 0, 51, 66
1, 470996, Note_off_c, 0, 39, 64
1, 470997, Note_off_c, 0, 68, 66
1, 470998, Note_off_c, 0, 72, 71
1, 471021, Note_off_c, 0, 73, 52
1, 471075, Note_on_c, 0, 78, 91
1, 471077, Note_on_c, 0, 66, 86
1, 471087, Note_on_c, 0, 44, 59
1, 471091, Control_c, 0, 64, 93
1, 471093, Note_off_c, 0, 78, 71
1, 471096, Note_on_c, 0, 57, 54
1, 471098, Note_off_c, 0, 66, 70
1, 471106, Control_c, 0, 64, 73
1, 471114, Note_off_c, 0, 44, 56
1, 471120, Note_off_c, 0, 57, 52
1, 471121, Control_c, 0, 64, 0
1, 471165, Control_c, 0, 64, 63
1, 471179, Note_on_c, 0, 52, 78
1, 471179, Note_on_c, 0, 81, 105
1, 471180, Control_c, 0, 64, 81
1, 471181, Note_on_c, 0, 69, 90
1, 471181, Note_on_c, 0, 73, 96
1, 471186, Note_on_c, 0, 40, 70
1, 471200, Note_on_c, 0, 71, 68
1, 471203, Control_c, 0, 64, 127
1, 471211, Note_off_c, 0, 52, 66
1, 471212, Note_off_c, 0, 69, 68
1, 471215, Note_off_c, 0, 40, 61
1, 471217, Note_off_c, 0, 81, 62
1, 471218, Note_off_c, 0, 71, 40
1, 471230, Note_off_c, 0, 73, 62
1, 471293, Note_on_c, 0, 46, 85
1, 471300, Note_on_c, 0, 67, 90
1, 471300, Note_on_c, 0, 79, 90
1, 471301, Note_on_c, 0, 58, 69
1, 471306, Control_c, 0, 64, 98
1, 471320, Note_off_c, 0, 58, 66
1, 471321, Control_c, 0, 64, 75
1, 471322, Note_off_c, 0, 67, 68
1, 471323, Note_off_c, 0, 79, 67
1, 471328, Note_off_c, 0, 46, 62
1, 471336, Control_c, 0, 64, 0
1, 471344, Note_on_c, 0, 78, 16
1, 471345, Note_off_c, 0, 78, 127
1, 471395, Control_c, 0, 64, 42
1, 471400, Note_on_c, 0, 41, 81
1, 471400, Note_on_c, 0, 82, 100
1, 471402, Note_on_c, 0, 53, 79
1, 471403, Note_on_c, 0, 70, 97
1, 471409, Note_on_c, 0, 74, 85
1, 471409, Control_c, 0, 64, 81
1, 471424, Note_off_c, 0, 41, 67
1, 471424, Control_c, 0, 64, 127
1, 471427, Note_off_c, 0, 53, 67
1, 471429, Note_off_c, 0, 74, 72
1, 471439, Note_off_c, 0, 70, 62
1, 471442, Note_off_c, 0, 82, 63
1, 471510, Note_on_c, 0, 80, 95
1, 471514, Note_on_c, 0, 68, 86
1, 471519, Note_on_c, 0, 59, 67
1, 471533, Note_off_c, 0, 68, 73
1, 471538, Note_off_c, 0, 59, 64
1, 471543, Control_c, 0, 64, 98
1, 471546, Note_off_c, 0, 80, 60
1, 471558, Control_c, 0, 64, 68
1, 471573, Control_c, 0, 64, 0
1, 471611, Note_on_c, 0, 83, 99
1, 471612, Note_on_c, 0, 75, 98
1, 471615, Note_on_c, 0, 54, 88
1, 471617, Note_on_c, 0, 71, 92
1, 471618, Control_c, 0, 64, 65
1, 471621, Note_on_c, 0, 42, 76
1, 471628, Note_on_c, 0, 72, 77
1, 471633, Control_c, 0, 64, 92
1, 471638, Note_off_c, 0, 71, 71
1, 471639, Note_off_c, 0, 83, 65
1, 471642, Note_off_c, 0, 54, 65
1, 471646, Note_off_c, 0, 72, 64
1, 471647, Note_off_c, 0, 42, 65
1, 471647, Control_c, 0, 64, 127
1, 471650, Note_off_c, 0, 75, 66
1, 471731, Note_on_c, 0, 69, 94
1, 471732, Note_on_c, 0, 60, 82
1, 471734, Note_on_c, 0, 48, 82
1, 471737, Note_on_c, 0, 81, 83
1, 471750, Note_on_c, 0, 79, 64
1, 471750, Note_off_c, 0, 69, 72
1, 471754, Note_off_c, 0, 60, 69
1, 471754, Note_off_c, 0, 81, 68
1, 471763, Note_off_c, 0, 48, 65
1, 471766, Note_off_c, 0, 79, 63
1, 471781, Control_c, 0, 64, 90
1, 471796, Control_c, 0, 64, 35
1, 471811, Control_c, 0, 64, 0
1, 471827, Note_on_c, 0, 72, 120
1, 471830, Note_on_c, 0, 76, 94
1, 471830, Note_on_c, 0, 84, 97
1, 471832, Note_on_c, 0, 55, 88
1, 471837, Note_on_c, 0, 43, 84
1, 471841, Control_c, 0, 64, 57
1, 471849, Note_off_c, 0, 76, 69
1, 471852, Note_off_c, 0, 84, 66
1, 471855, Note_on_c, 0, 83, 55
1, 471856, Note_off_c, 0, 83, 127
1, 471856, Note_off_c, 0, 72, 68
1, 471856, Control_c, 0, 64, 78
1, 471856, Note_off_c, 0, 55, 70
1, 471859, Note_off_c, 0, 43, 66
1, 471871, Control_c, 0, 64, 117
1, 471886, Control_c, 0, 64, 127
1, 471950, Note_on_c, 0, 82, 93
1, 471951, Note_on_c, 0, 49, 88
1, 471956, Note_on_c, 0, 70, 98
1, 471957, Note_on_c, 0, 61, 72
1, 471974, Note_off_c, 0, 61, 65
1, 471978, Note_off_c, 0, 49, 63
1, 471984, Note_on_c, 0, 80, 46
1, 471987, Note_off_c, 0, 70, 61
1, 471996, Note_off_c, 0, 82, 65
1, 472012, Note_off_c, 0, 80, 54
1, 472046, Note_on_c, 0, 56, 91
1, 472051, Note_on_c, 0, 44, 84
1, 472053, Note_on_c, 0, 73, 101
1, 472056, Note_on_c, 0, 85, 102
1, 472068, Note_on_c, 0, 77, 71
1, 472070, Note_off_c, 0, 56, 67
1, 472074, Note_off_c, 0, 44, 65
1, 472082, Note_off_c, 0, 77, 66
1, 472085, Note_off_c, 0, 73, 68
1, 472091, Note_off_c, 0, 85, 64
1, 472151, Poly_aftertouch_c, 0, 78, 0
1, 472167, Note_on_c, 0, 71, 87
1, 472167, Note_on_c, 0, 83, 89
1, 472168, Note_on_c, 0, 62, 78
1, 472175, Note_on_c, 0, 50, 68
1, 472199, Note_off_c, 0, 83, 62
1, 472205, Note_off_c, 0, 62, 56
1, 472206, Note_off_c, 0, 50, 64
1, 472208, Note_off_c, 0, 71, 65
1, 472248, Control_c, 0, 64, 85
1, 472263, Control_c, 0, 64, 47
1, 472278, Control_c, 0, 64, 0
1, 472295, Note_on_c, 0, 70, 94
1, 472298, Note_on_c, 0, 82, 83
1, 472300, Note_on_c, 0, 74, 59
1, 472302, Note_on_c, 0, 65, 75
1, 472306, Note_on_c, 0, 53, 63
1, 472307, Control_c, 0, 64, 60
1, 472312, Note_on_c, 0, 77, 47
1, 472322, Control_c, 0, 64, 74
1, 472328, Note_off_c, 0, 74, 67
1, 472330, Note_off_c, 0, 53, 60
1, 472330, Note_off_c, 0, 65, 69
1, 472330, Note_off_c, 0, 70, 63
1, 472336, Note_off_c, 0, 77, 57
1, 472337, Control_c, 0, 64, 95
1, 472338, Note_off_c, 0, 82, 67
1, 472352, Control_c, 0, 64, 127
1, 472441, Note_on_c, 0, 56, 71
1, 472442, Note_on_c, 0, 83, 86
1, 472443, Note_on_c, 0, 71, 78
1, 472457, Note_on_c, 0, 68, 41
1, 472470, Note_off_c, 0, 56, 66
1, 472473, Note_off_c, 0, 71, 66
1, 472473, Note_off_c, 0, 83, 66
1, 472488, Note_off_c, 0, 68, 54
1, 472553, Note_on_c, 0, 77, 80
1, 472554, Note_on_c, 0, 73, 88
1, 472556, Note_on_c, 0, 85, 89
1, 472576, Note_off_c, 0, 73, 69
1, 472579, Note_off_c, 0, 77, 66
1, 472584, Note_on_c, 0, 53, 38
1, 472589, Note_on_c, 0, 65, 14
1, 472589, Note_off_c, 0, 85, 58
1, 472607, Note_off_c, 0, 53, 56
1, 472624, Note_off_c, 0, 65, 47
1, 472649, Poly_aftertouch_c, 0, 64, 0
1, 472662, Poly_aftertouch_c, 0, 64, 0
1, 472676, Note_on_c, 0, 86, 85
1, 472679, Note_on_c, 0, 74, 76
1, 472699, Note_on_c, 0, 50, 53
1, 472702, Note_on_c, 0, 48, 48
1, 472705, Note_on_c, 0, 60, 44
1, 472705, Note_on_c, 0, 62, 24
1, 472708, Note_on_c, 0, 76, 46
1, 472709, Note_off_c, 0, 76, 127
1, 472709, Note_off_c, 0, 74, 69
1, 472717, Note_on_c, 0, 85, 39
1, 472718, Note_off_c, 0, 86, 61
1, 472724, Note_off_c, 0, 50, 58
1, 472731, Note_off_c, 0, 48, 55
1, 472734, Note_off_c, 0, 60, 52
1, 472742, Note_off_c, 0, 62, 42
1, 472750, Note_off_c, 0, 85, 32
1, 472790, Note_on_c, 0, 76, 79
1, 472790, Note_on_c, 0, 80, 86
1, 472793, Note_on_c, 0, 88, 80
1, 472794, Note_on_c, 0, 83, 76
1, 472796, Note_on_c, 0, 77, 83
1, 472801, Note_on_c, 0, 59, 55
1, 472804, Note_on_c, 0, 47, 64
1, 472813, Note_off_c, 0, 76, 71
1, 472816, Note_off_c, 0, 77, 69
1, 472818, Note_off_c, 0, 80, 60
1, 472818, Note_off_c, 0, 83, 72
1, 472824, Note_off_c, 0, 59, 62
1, 472827, Note_off_c, 0, 47, 60
1, 472834, Note_off_c, 0, 88, 65
1, 472894, Note_on_c, 0, 44, 87
1, 472895, Note_on_c, 0, 56, 75
1, 472899, Note_on_c, 0, 77, 40
1, 472908, Note_on_c, 0, 89, 81
1, 472916, Note_on_c, 0, 91, 72
1, 472919, Note_off_c, 0, 56, 65
1, 472922, Note_on_c, 0, 79, 46
1, 472932, Note_off_c, 0, 91, 64
1, 472938, Note_off_c, 0, 44, 57
1, 472938, Note_off_c, 0, 77, 64
1, 472939, Note_off_c, 0, 89, 67
1, 472947, Note_off_c, 0, 79, 60
1, 473000, Note_on_c, 0, 52, 84
1, 473005, Note_on_c, 0, 79, 98
1, 473005, Note_on_c, 0, 91, 82
1, 473010, Note_on_c, 0, 83, 89
1, 473015, Note_on_c, 0, 86, 68
1, 473017, Note_on_c, 0, 40, 52
1, 473024, Note_off_c, 0, 52, 69
1, 473031, Note_off_c, 0, 79, 65
1, 473033, Note_on_c, 0, 41, 40
1, 473038, Note_off_c, 0, 86, 67
1, 473041, Note_off_c, 0, 83, 63
1, 473042, Note_off_c, 0, 91, 64
1, 473046, Note_off_c, 0, 40, 54
1, 473072, Note_off_c, 0, 41, 44
1, 473090, Poly_aftertouch_c, 0, 87, 127
1, 473113, Poly_aftertouch_c, 0, 87, 0
1, 473117, Note_on_c, 0, 80, 99
1, 473117, Note_on_c, 0, 92, 95
1, 473124, Note_on_c, 0, 47, 74
1, 473127, Note_on_c, 0, 59, 69
1, 473148, Note_off_c, 0, 47, 67
1, 473153, Note_off_c, 0, 59, 67
1, 473155, Note_off_c, 0, 80, 61
1, 473157, Note_off_c, 0, 92, 62
1, 473210, Note_on_c, 0, 82, 84
1, 473211, Note_on_c, 0, 86, 80
1, 473217, Note_on_c, 0, 94, 83
1, 473221, Note_on_c, 0, 44, 86
1, 473225, Note_on_c, 0, 56, 75
1, 473237, Note_off_c, 0, 86, 65
1, 473244, Note_on_c, 0, 89, 30
1, 473249, Note_off_c, 0, 82, 63
1, 473251, Note_off_c, 0, 56, 67
1, 473258, Note_off_c, 0, 44, 57
1, 473259, Note_off_c, 0, 94, 65
1, 473278, Control_c, 0, 64, 108
1, 473284, Note_off_c, 0, 89, 44
1, 473293, Control_c, 0, 64, 82
1, 473308, Control_c, 0, 64, 61
1, 473320, Note_on_c, 0, 95, 99
1, 473323, Note_on_c, 0, 53, 83
1, 473323, Note_on_c, 0, 83, 94
1, 473323, Control_c, 0, 64, 0
1, 473324, Note_on_c, 0, 41, 85
1, 473346, Note_off_c, 0, 53, 66
1, 473352, Note_off_c, 0, 83, 70
1, 473356, Note_off_c, 0, 41, 67
1, 473358, Note_off_c, 0, 95, 65
1, 473364, Note_on_c, 0, 94, 20
1, 473365, Note_off_c, 0, 94, 127
1, 473419, Note_on_c, 0, 50, 89
1, 473421, Note_on_c, 0, 84, 96
1, 473424, Note_on_c, 0, 38, 78
1, 473424, Note_on_c, 0, 96, 92
1, 473427, Note_on_c, 0, 92, 85
1, 473444, Note_on_c, 0, 89, 66
1, 473454, Note_off_c, 0, 50, 68
1, 473456, Note_off_c, 0, 84, 67
1, 473456, Note_off_c, 0, 92, 68
1, 473456, Note_off_c, 0, 96, 66
1, 473459, Note_off_c, 0, 38, 65
1, 473469, Note_off_c, 0, 89, 68
1, 473531, Note_on_c, 0, 85, 93
1, 473534, Note_on_c, 0, 92, 86
1, 473536, Note_on_c, 0, 89, 64
1, 473537, Note_on_c, 0, 97, 84
1, 473540, Note_on_c, 0, 37, 80
1, 473541, Note_on_c, 0, 49, 78
1, 473558, Note_off_c, 0, 92, 65
1, 473559, Note_off_c, 0, 97, 67
1, 473565, Note_off_c, 0, 89, 68
1, 473567, Note_off_c, 0, 49, 67
1, 473567, Note_off_c, 0, 85, 56
1, 473573, Note_off_c, 0, 37, 66
1, 473597, Control_c, 0, 64, 18
1, 473612, Control_c, 0, 64, 127
1, 473630, Note_on_c, 0, 92, 108
1, 473632, Note_on_c, 0, 86, 112
1, 473633, Note_on_c, 0, 98, 107
1, 473635, Note_on_c, 0, 47, 92
1, 473636, Note_on_c, 0, 35, 90
1, 473650, Note_off_c, 0, 98, 73
1, 473656, Note_off_c, 0, 86, 63
1, 473659, Note_off_c, 0, 35, 66
1, 473660, Note_off_c, 0, 92, 69
1, 473661, Note_on_c, 0, 37, 32
1, 473662, Note_off_c, 0, 37, 127
1, 473679, Note_off_c, 0, 47, 64
1, 473701, Poly_aftertouch_c, 0, 37, 0
1, 473760, Control_c, 0, 64, 118
1, 473775, Control_c, 0, 64, 87
1, 473789, Control_c, 0, 64, 55
1, 473804, Control_c, 0, 64, 0
1, 473920, Note_on_c, 0, 99, 111
1, 473924, Note_on_c, 0, 87, 104
1, 473925, Note_on_c, 0, 92, 85
1, 473935, Note_on_c, 0, 59, 81
1, 473937, Control_c, 0, 64, 74
1, 473938, Note_on_c, 0, 56, 86
1, 473940, Note_on_c, 0, 47, 73
1, 473952, Control_c, 0, 64, 127
1, 473953, Note_off_c, 0, 87, 68
1, 473963, Note_off_c, 0, 99, 67
1, 473965, Note_off_c, 0, 92, 66
1, 473972, Note_off_c, 0, 47, 65
1, 473982, Note_off_c, 0, 59, 63
1, 473984, Note_off_c, 0, 56, 64
1, 474038, Poly_aftertouch_c, 0, 57, 0
1, 474227, Control_c, 0, 64, 90
1, 474242, Control_c, 0, 64, 50
1, 474257, Control_c, 0, 64, 0
1, 474281, Note_on_c, 0, 100, 104
1, 474284, Note_on_c, 0, 88, 96
1, 474284, Note_on_c, 0, 92, 96
1, 474287, Control_c, 0, 64, 60
1, 474289, Note_on_c, 0, 95, 85
1, 474297, Note_on_c, 0, 68, 91
1, 474298, Note_on_c, 0, 59, 77
1, 474299, Note_on_c, 0, 71, 87
1, 474301, Control_c, 0, 64, 88
1, 474308, Note_off_c, 0, 88, 69
1, 474315, Note_off_c, 0, 100, 67
1, 474316, Control_c, 0, 64, 127
1, 474321, Note_off_c, 0, 95, 64
1, 474331, Note_off_c, 0, 92, 66
1, 474348, Note_off_c, 0, 59, 63
1, 474348, Note_off_c, 0, 71, 63
1, 474352, Note_off_c, 0, 68, 63
1, 474823, Note_on_c, 0, 71, 82
1, 474826, Note_on_c, 0, 80, 98
1, 474826, Note_on_c, 0, 92, 106
1, 474826, Note_on_c, 0, 101, 103
1, 474827, Note_on_c, 0, 89, 108
1, 474831, Note_on_c, 0, 98, 90
1, 474832, Note_on_c, 0, 74, 83
1, 474832, Note_on_c, 0, 77, 81
1, 474852, Note_off_c, 0, 98, 71
1, 474852, Note_on_c, 0, 100, 59
1, 474853, Note_off_c, 0, 100, 127
1, 474853, Note_off_c, 0, 89, 67
1, 474857, Note_off_c, 0, 101, 67
1, 474865, Note_off_c, 0, 92, 68
1, 474888, Note_off_c, 0, 77, 62
1, 474895, Note_off_c, 0, 80, 64
1, 474900, Note_off_c, 0, 71, 62
1, 474904, Note_off_c, 0, 74, 63
1, 475770, Control_c, 0, 64, 109
1, 475785, Control_c, 0, 64, 92
1, 475800, Control_c, 0, 64, 73
1, 475815, Control_c, 0, 64, 49
1, 475829, Control_c, 0, 64, 0
1, 475918, Control_c, 0, 67, 8
1, 475933, Control_c, 0, 67, 9
1, 475948, Control_c, 0, 67, 10
1, 475963, Control_c, 0, 67, 12
1, 475967, Note_on_c, 0, 68, 95
1, 475969, Note_on_c, 0, 65, 91
1, 475978, Control_c, 0, 67, 13
1, 475992, Control_c, 0, 67, 14
1, 476010, Note_off_c, 0, 68, 64
1, 476011, Note_off_c, 0, 65, 65
1, 476022, Control_c, 0, 67, 14
1, 476032, Note_on_c, 0, 69, 75
1, 476036, Note_on_c, 0, 66, 74
1, 476074, Note_off_c, 0, 69, 62
1, 476078, Note_off_c, 0, 66, 63
1, 476089, Note_on_c, 0, 70, 82
1, 476107, Note_on_c, 0, 67, 72
1, 476111, Note_off_c, 0, 70, 71
1, 476125, Control_c, 0, 67, 15
1, 476152, Note_off_c, 0, 67, 60
1, 476161, Note_on_c, 0, 68, 71
1, 476163, Note_on_c, 0, 71, 66
1, 476192, Note_off_c, 0, 71, 65
1, 476194, Note_off_c, 0, 68, 64
1, 476207, Note_on_c, 0, 72, 87
1, 476223, Note_on_c, 0, 69, 71
1, 476229, Control_c, 0, 67, 15
1, 476253, Note_off_c, 0, 72, 60
1, 476260, Note_off_c, 0, 69, 60
1, 476273, Note_on_c, 0, 73, 78
1, 476277, Note_on_c, 0, 70, 67
1, 476303, Control_c, 0, 67, 15
1, 476313, Note_off_c, 0, 70, 62
1, 476315, Note_off_c, 0, 73, 63
1, 476332, Note_on_c, 0, 74, 73
1, 476333, Control_c, 0, 67, 14
1, 476336, Note_on_c, 0, 71, 75
1, 476348, Control_c, 0, 67, 14
1, 476360, Note_off_c, 0, 74, 67
1, 476363, Control_c, 0, 67, 13
1, 476378, Control_c, 0, 67, 13
1, 476389, Note_off_c, 0, 71, 62
1, 476390, Note_on_c, 0, 72, 79
1, 476392, Control_c, 0, 67, 12
1, 476395, Note_on_c, 0, 75, 73
1, 476420, Note_off_c, 0, 75, 69
1, 476423, Control_c, 0, 67, 12
1, 476441, Note_off_c, 0, 72, 62
1, 476467, Note_on_c, 0, 73, 71
1, 476470, Note_on_c, 0, 76, 74
1, 476496, Note_off_c, 0, 76, 62
1, 476506, Note_off_c, 0, 73, 65
1, 476519, Control_c, 0, 67, 11
1, 476532, Note_on_c, 0, 77, 78
1, 476534, Control_c, 0, 67, 11
1, 476536, Note_on_c, 0, 74, 70
1, 476582, Note_off_c, 0, 77, 58
1, 476584, Note_off_c, 0, 74, 60
1, 476590, Note_on_c, 0, 78, 74
1, 476593, Control_c, 0, 67, 10
1, 476596, Note_on_c, 0, 75, 76
1, 476608, Control_c, 0, 67, 10
1, 476634, Note_off_c, 0, 78, 64
1, 476637, Control_c, 0, 67, 9
1, 476648, Note_off_c, 0, 75, 63
1, 476652, Control_c, 0, 67, 8
1, 476655, Note_on_c, 0, 79, 73
1, 476664, Note_on_c, 0, 76, 73
1, 476667, Control_c, 0, 67, 0
1, 476682, Note_off_c, 0, 79, 66
1, 476717, Note_on_c, 0, 77, 72
1, 476717, Note_on_c, 0, 80, 82
1, 476720, Note_off_c, 0, 76, 62
1, 476759, Note_off_c, 0, 80, 63
1, 476767, Note_off_c, 0, 77, 61
1, 476777, Note_on_c, 0, 78, 72
1, 476787, Note_on_c, 0, 81, 76
1, 476810, Note_off_c, 0, 81, 63
1, 476820, Note_off_c, 0, 78, 64
1, 476835, Note_on_c, 0, 82, 74
1, 476847, Note_on_c, 0, 79, 72
1, 476869, Note_off_c, 0, 82, 65
1, 476888, Note_off_c, 0, 79, 61
1, 476900, Note_on_c, 0, 80, 76
1, 476906, Note_on_c, 0, 83, 75
1, 476932, Note_off_c, 0, 83, 66
1, 476953, Note_off_c, 0, 80, 64
1, 476958, Note_on_c, 0, 84, 79
1, 476971, Note_on_c, 0, 81, 81
1, 477007, Note_off_c, 0, 84, 62
1, 477017, Note_on_c, 0, 85, 77
1, 477019, Note_off_c, 0, 81, 65
1, 477028, Note_on_c, 0, 82, 70
1, 477061, Note_off_c, 0, 85, 64
1, 477077, Note_on_c, 0, 86, 77
1, 477078, Note_off_c, 0, 82, 65
1, 477090, Note_on_c, 0, 83, 71
1, 477106, Note_off_c, 0, 86, 66
1, 477138, Note_on_c, 0, 87, 80
1, 477150, Note_on_c, 0, 84, 72
1, 477151, Note_off_c, 0, 83, 65
1, 477191, Note_off_c, 0, 87, 65
1, 477200, Note_off_c, 0, 84, 63
1, 477213, Note_on_c, 0, 85, 76
1, 477214, Note_on_c, 0, 88, 75
1, 477242, Note_off_c, 0, 88, 63
1, 477263, Note_off_c, 0, 85, 65
1, 477268, Note_on_c, 0, 90, 72
1, 477285, Note_on_c, 0, 86, 77
1, 477295, Note_off_c, 0, 90, 68
1, 477323, Note_on_c, 0, 89, 63
1, 477333, Note_on_c, 0, 88, 60
1, 477340, Note_off_c, 0, 86, 64
1, 477347, Note_on_c, 0, 87, 83
1, 477352, Note_off_c, 0, 89, 69
1, 477353, Note_off_c, 0, 88, 63
1, 477374, Note_on_c, 0, 91, 72
1, 477401, Note_off_c, 0, 87, 67
1, 477413, Note_on_c, 0, 88, 76
1, 477416, Note_off_c, 0, 91, 63
1, 477426, Note_on_c, 0, 92, 80
1, 477465, Note_off_c, 0, 92, 62
1, 477481, Note_on_c, 0, 89, 72
1, 477481, Note_off_c, 0, 88, 66
1, 477493, Note_on_c, 0, 93, 82
1, 477534, Note_off_c, 0, 89, 65
1, 477535, Note_off_c, 0, 93, 61
1, 477541, Note_on_c, 0, 90, 76
1, 477546, Note_on_c, 0, 94, 78
1, 477573, Note_off_c, 0, 90, 67
1, 477582, Note_off_c, 0, 94, 62
1, 477606, Note_on_c, 0, 91, 73
1, 477616, Note_on_c, 0, 95, 81
1, 477648, Note_off_c, 0, 95, 59
1, 477655, Note_on_c, 0, 97, 80
1, 477657, Note_on_c, 0, 92, 84
1, 477663, Note_off_c, 0, 91, 65
1, 477682, Note_off_c, 0, 97, 66
1, 477719, Note_off_c, 0, 92, 64
1, 477722, Note_on_c, 0, 96, 75
1, 477736, Note_on_c, 0, 93, 74
1, 477770, Note_off_c, 0, 96, 61
1, 477776, Note_on_c, 0, 98, 77
1, 477786, Note_off_c, 0, 93, 62
1, 477790, Note_on_c, 0, 94, 78
1, 477818, Note_off_c, 0, 98, 64
1, 477831, Note_off_c, 0, 94, 64
1, 477837, Note_on_c, 0, 99, 80
1, 477865, Note_off_c, 0, 99, 66
1, 477868, Note_on_c, 0, 95, 68
1, 477883, Note_on_c, 0, 100, 72
1, 477885, Note_on_c, 0, 98, 70
1, 477895, Note_on_c, 0, 96, 72
1, 477901, Note_off_c, 0, 95, 62
1, 477915, Note_off_c, 0, 98, 65
1, 477916, Note_off_c, 0, 100, 63
1, 477937, Note_off_c, 0, 96, 62
1, 477953, Note_on_c, 0, 97, 86
1, 477966, Note_on_c, 0, 101, 88
1, 477989, Note_on_c, 0, 100, 45
1, 478008, Note_off_c, 0, 97, 66
1, 478008, Note_off_c, 0, 101, 64
1, 478020, Note_on_c, 0, 98, 74
1, 478020, Note_off_c, 0, 100, 54
1, 478027, Note_on_c, 0, 101, 69
1, 478072, Note_off_c, 0, 98, 65
1, 478074, Note_on_c, 0, 97, 79
1, 478089, Note_off_c, 0, 101, 65
1, 478096, Note_on_c, 0, 100, 79
1, 478122, Note_off_c, 0, 97, 66
1, 478152, Note_on_c, 0, 96, 79
1, 478152, Note_on_c, 0, 99, 89
1, 478153, Note_off_c, 0, 100, 66
1, 478191, Note_off_c, 0, 96, 62
1, 478209, Note_off_c, 0, 99, 66
1, 478220, Note_on_c, 0, 98, 74
1, 478249, Note_on_c, 0, 94, 70
1, 478262, Note_off_c, 0, 98, 65
1, 478280, Note_on_c, 0, 97, 72
1, 478283, Note_off_c, 0, 94, 64
1, 478312, Note_on_c, 0, 93, 71
1, 478327, Note_off_c, 0, 97, 65
1, 478339, Note_on_c, 0, 96, 74
1, 478344, Note_off_c, 0, 93, 60
1, 478372, Note_off_c, 0, 96, 63
1, 478375, Note_on_c, 0, 92, 62
1, 478384, Note_on_c, 0, 95, 69
1, 478405, Note_off_c, 0, 92, 66
1, 478429, Note_on_c, 0, 93, 75
1, 478439, Note_off_c, 0, 95, 62
1, 478446, Note_on_c, 0, 96, 63
1, 478470, Note_off_c, 0, 93, 57
1, 478473, Note_off_c, 0, 96, 66
1, 478497, Note_on_c, 0, 94, 71
1, 478497, Note_on_c, 0, 97, 80
1, 478524, Note_off_c, 0, 97, 66
1, 478539, Note_off_c, 0, 94, 64
1, 478546, Note_on_c, 0, 95, 78
1, 478564, Note_on_c, 0, 98, 79
1, 478608, Note_off_c, 0, 95, 64
1, 478611, Note_on_c, 0, 96, 62
1, 478614, Note_on_c, 0, 99, 84
1, 478616, Note_off_c, 0, 98, 65
1, 478634, Note_off_c, 0, 96, 62
1, 478649, Note_on_c, 0, 97, 83
1, 478663, Note_off_c, 0, 99, 66
1, 478670, Note_on_c, 0, 100, 86
1, 478709, Note_off_c, 0, 97, 65
1, 478721, Note_on_c, 0, 101, 95
1, 478722, Note_on_c, 0, 98, 83
1, 478729, Note_off_c, 0, 100, 64
1, 478772, Note_off_c, 0, 101, 65
1, 478773, Note_off_c, 0, 98, 64
1, 478781, Note_on_c, 0, 97, 80
1, 478790, Note_on_c, 0, 100, 82
1, 478827, Note_off_c, 0, 97, 64
1, 478850, Note_on_c, 0, 99, 93
1, 478850, Note_off_c, 0, 100, 66
1, 478857, Note_on_c, 0, 96, 77
1, 478896, Note_off_c, 0, 96, 63
1, 478909, Note_off_c, 0, 99, 65
1, 478918, Note_on_c, 0, 98, 76
1, 478942, Note_on_c, 0, 95, 17
1, 478959, Note_on_c, 0, 94, 68
1, 478968, Note_off_c, 0, 98, 66
1, 478988, Note_off_c, 0, 95, 40
1, 478996, Note_on_c, 0, 97, 63
1, 479005, Note_off_c, 0, 94, 61
1, 479028, Note_off_c, 0, 97, 67
1, 479029, Note_on_c, 0, 93, 67
1, 479034, Note_on_c, 0, 96, 72
1, 479067, Note_off_c, 0, 96, 64
1, 479069, Note_off_c, 0, 93, 58
1, 479093, Note_on_c, 0, 95, 69
1, 479094, Note_on_c, 0, 92, 61
1, 479141, Note_off_c, 0, 92, 64
1, 479144, Note_off_c, 0, 95, 65
1, 479156, Note_on_c, 0, 93, 74
1, 479158, Note_on_c, 0, 96, 58
1, 479178, Note_off_c, 0, 96, 64
1, 479204, Note_off_c, 0, 93, 60
1, 479213, Note_on_c, 0, 97, 80
1, 479227, Note_on_c, 0, 94, 74
1, 479246, Note_off_c, 0, 97, 64
1, 479276, Note_off_c, 0, 94, 64
1, 479281, Note_on_c, 0, 98, 78
1, 479289, Note_on_c, 0, 95, 71
1, 479335, Note_on_c, 0, 99, 84
1, 479336, Note_off_c, 0, 98, 65
1, 479347, Note_on_c, 0, 96, 66
1, 479348, Note_off_c, 0, 95, 63
1, 479380, Note_off_c, 0, 96, 64
1, 479385, Note_off_c, 0, 99, 66
1, 479395, Note_on_c, 0, 100, 84
1, 479398, Note_on_c, 0, 97, 76
1, 479445, Note_off_c, 0, 97, 63
1, 479447, Note_off_c, 0, 100, 60
1, 479451, Note_on_c, 0, 101, 89
1, 479460, Note_on_c, 0, 98, 74
1, 479511, Note_off_c, 0, 101, 59
1, 479513, Note_off_c, 0, 98, 64
1, 479524, Note_on_c, 0, 100, 85
1, 479528, Note_on_c, 0, 97, 75
1, 479561, Note_off_c, 0, 97, 63
1, 479572, Note_off_c, 0, 100, 65
1, 479580, Note_on_c, 0, 99, 99
1, 479603, Note_on_c, 0, 96, 76
1, 479637, Note_off_c, 0, 99, 65
1, 479648, Note_off_c, 0, 96, 63
1, 479653, Note_on_c, 0, 98, 77
1, 479673, Note_on_c, 0, 95, 56
1, 479697, Note_off_c, 0, 98, 66
1, 479701, Note_off_c, 0, 95, 59
1, 479720, Note_on_c, 0, 97, 76
1, 479730, Note_on_c, 0, 94, 74
1, 479768, Note_off_c, 0, 94, 63
1, 479782, Note_on_c, 0, 96, 73
1, 479782, Note_off_c, 0, 97, 65
1, 479794, Note_on_c, 0, 93, 63
1, 479815, Note_off_c, 0, 96, 64
1, 479827, Note_off_c, 0, 93, 63
1, 479839, Note_on_c, 0, 95, 70
1, 479850, Note_on_c, 0, 92, 71
1, 479878, Note_off_c, 0, 95, 64
1, 479898, Note_off_c, 0, 92, 60
1, 479913, Note_on_c, 0, 94, 76
1, 479925, Note_on_c, 0, 91, 70
1, 479963, Note_off_c, 0, 94, 64
1, 479970, Note_off_c, 0, 91, 62
1, 479974, Note_on_c, 0, 93, 74
1, 480000, Note_on_c, 0, 90, 66
1, 480019, Note_off_c, 0, 93, 62
1, 480024, Note_off_c, 0, 90, 67
1, 480056, Note_on_c, 0, 92, 69
1, 480066, Note_on_c, 0, 89, 70
1, 480096, Note_off_c, 0, 92, 63
1, 480097, Note_off_c, 0, 89, 67
1, 480108, Note_on_c, 0, 91, 65
1, 480130, Note_on_c, 0, 88, 42
1, 480155, Note_off_c, 0, 88, 51
1, 480157, Note_off_c, 0, 91, 65
1, 480174, Note_on_c, 0, 87, 57
1, 480191, Note_on_c, 0, 90, 65
1, 480208, Note_off_c, 0, 87, 68
1, 480220, Note_off_c, 0, 90, 66
1, 480229, Note_on_c, 0, 86, 66
1, 480240, Note_on_c, 0, 89, 71
1, 480267, Note_off_c, 0, 86, 64
1, 480293, Note_off_c, 0, 89, 58
1, 480302, Note_on_c, 0, 85, 63
1, 480302, Note_on_c, 0, 88, 67
1, 480336, Note_off_c, 0, 85, 65
1, 480356, Note_off_c, 0, 88, 62
1, 480369, Note_on_c, 0, 87, 75
1, 480375, Note_on_c, 0, 84, 60
1, 480407, Note_off_c, 0, 84, 66
1, 480415, Note_off_c, 0, 87, 65
1, 480420, Note_on_c, 0, 83, 65
1, 480441, Note_on_c, 0, 86, 63
1, 480459, Note_off_c, 0, 83, 64
1, 480468, Note_off_c, 0, 86, 66
1, 480500, Note_on_c, 0, 84, 60
1, 480505, Note_on_c, 0, 87, 63
1, 480536, Note_off_c, 0, 87, 67
1, 480536, Note_off_c, 0, 84, 61
1, 480572, Note_on_c, 0, 88, 73
1, 480574, Note_on_c, 0, 85, 61
1, 480606, Note_off_c, 0, 85, 66
1, 480606, Note_off_c, 0, 88, 64
1, 480635, Note_on_c, 0, 89, 61
1, 480664, Note_on_c, 0, 86, 10
1, 480675, Note_off_c, 0, 86, 36
1, 480681, Note_off_c, 0, 89, 46
1, 480691, Note_on_c, 0, 90, 73
1, 480700, Note_on_c, 0, 87, 55
1, 480715, Note_off_c, 0, 90, 69
1, 480741, Note_off_c, 0, 87, 65
1, 480744, Note_on_c, 0, 91, 68
1, 480757, Note_on_c, 0, 88, 67
1, 480775, Note_off_c, 0, 91, 65
1, 480792, Note_off_c, 0, 88, 66
1, 480812, Note_on_c, 0, 92, 73
1, 480834, Note_off_c, 0, 92, 68
1, 480837, Note_on_c, 0, 89, 52
1, 480860, Note_off_c, 0, 89, 62
1, 480943, Note_on_c, 0, 93, 79
1, 480963, Note_on_c, 0, 90, 54
1, 480966, Note_off_c, 0, 93, 69
1, 480985, Note_off_c, 0, 90, 59
1, 481058, Note_on_c, 0, 81, 73
1, 481073, Note_on_c, 0, 78, 56
1, 481083, Note_off_c, 0, 81, 68
1, 481096, Note_off_c, 0, 78, 65
1, 481160, Note_on_c, 0, 81, 76
1, 481163, Note_on_c, 0, 78, 68
1, 481186, Note_off_c, 0, 81, 67
1, 481187, Note_off_c, 0, 78, 67
1, 481254, Note_on_c, 0, 79, 85
1, 481261, Note_on_c, 0, 76, 70
1, 481274, Note_off_c, 0, 79, 69
1, 481283, Note_off_c, 0, 76, 66
1, 481360, Note_on_c, 0, 57, 56
1, 481364, Note_on_c, 0, 64, 52
1, 481365, Note_on_c, 0, 67, 53
1, 481386, Note_off_c, 0, 64, 63
1, 481391, Note_off_c, 0, 67, 63
1, 481407, Note_off_c, 0, 57, 61
1, 481456, Note_on_c, 0, 64, 73
1, 481457, Note_on_c, 0, 67, 70
1, 481487, Note_off_c, 0, 67, 65
1, 481487, Note_off_c, 0, 64, 64
1, 481515, Control_c, 0, 64, 61
1, 481529, Control_c, 0, 64, 81
1, 481544, Control_c, 0, 64, 101
1, 481559, Control_c, 0, 64, 127
1, 481574, Note_on_c, 0, 61, 63
1, 481579, Note_on_c, 0, 64, 66
1, 481600, Note_off_c, 0, 61, 65
1, 481607, Note_off_c, 0, 64, 66
1, 481660, Note_on_c, 0, 45, 60
1, 481711, Note_off_c, 0, 45, 61
1, 481771, Poly_aftertouch_c, 0, 57, 0
1, 481781, Note_on_c, 0, 88, 72
1, 481781, Poly_aftertouch_c, 0, 59, 0
1, 481784, Note_on_c, 0, 85, 71
1, 481791, Note_on_c, 0, 81, 64
1, 481803, Note_off_c, 0, 88, 69
1, 481803, Control_c, 0, 64, 99
1, 481810, Note_off_c, 0, 85, 68
1, 481812, Note_off_c, 0, 81, 62
1, 481818, Control_c, 0, 64, 83
1, 481833, Control_c, 0, 64, 69
1, 481848, Control_c, 0, 64, 0
1, 481878, Note_on_c, 0, 88, 70
1, 481884, Note_on_c, 0, 81, 65
1, 481905, Note_off_c, 0, 81, 61
1, 481909, Note_off_c, 0, 88, 67
1, 481970, Note_on_c, 0, 69, 63
1, 481982, Note_on_c, 0, 90, 77
1, 481988, Note_on_c, 0, 86, 67
1, 482010, Note_off_c, 0, 69, 63
1, 482010, Note_off_c, 0, 90, 66
1, 482013, Note_off_c, 0, 86, 68
1, 482049, Note_on_c, 0, 71, 45
1, 482081, Note_off_c, 0, 71, 55
1, 482083, Note_on_c, 0, 91, 75
1, 482085, Note_on_c, 0, 88, 78
1, 482095, Note_on_c, 0, 69, 53
1, 482107, Note_off_c, 0, 88, 70
1, 482111, Note_off_c, 0, 91, 67
1, 482118, Note_off_c, 0, 69, 59
1, 482180, Note_on_c, 0, 95, 95
1, 482186, Note_on_c, 0, 91, 82
1, 482206, Note_off_c, 0, 91, 71
1, 482212, Note_off_c, 0, 95, 61
1, 482295, Note_on_c, 0, 83, 69
1, 482304, Note_on_c, 0, 79, 51
1, 482311, Note_off_c, 0, 83, 67
1, 482326, Note_off_c, 0, 79, 57
1, 482375, Note_on_c, 0, 83, 85
1, 482381, Note_on_c, 0, 79, 73
1, 482406, Note_off_c, 0, 79, 67
1, 482410, Note_off_c, 0, 83, 66
1, 482483, Note_on_c, 0, 78, 75
1, 482483, Note_on_c, 0, 81, 85
1, 482504, Note_off_c, 0, 81, 71
1, 482507, Note_off_c, 0, 78, 70
1, 482579, Note_on_c, 0, 66, 69
1, 482583, Note_on_c, 0, 69, 63
1, 482605, Note_off_c, 0, 66, 67
1, 482609, Note_off_c, 0, 69, 64
1, 482671, Control_c, 0, 64, 50
1, 482675, Note_on_c, 0, 66, 71
1, 482676, Note_on_c, 0, 69, 66
1, 482686, Control_c, 0, 64, 65
1, 482700, Control_c, 0, 64, 74
1, 482703, Note_off_c, 0, 66, 67
1, 482706, Note_off_c, 0, 69, 67
1, 482715, Control_c, 0, 64, 84
1, 482730, Control_c, 0, 64, 96
1, 482745, Control_c, 0, 64, 104
1, 482760, Control_c, 0, 64, 115
1, 482771, Note_on_c, 0, 66, 87
1, 482775, Control_c, 0, 64, 127
1, 482796, Note_on_c, 0, 62, 55
1, 482820, Note_off_c, 0, 66, 63
1, 482821, Note_off_c, 0, 62, 57
1, 482868, Note_on_c, 0, 45, 62
1, 482884, Note_on_c, 0, 57, 55
1, 482898, Note_off_c, 0, 45, 64
1, 482927, Note_off_c, 0, 57, 60
1, 482983, Control_c, 0, 64, 111
1, 482990, Note_on_c, 0, 86, 71
1, 482993, Note_on_c, 0, 81, 69
1, 482997, Note_on_c, 0, 90, 64
1, 482998, Control_c, 0, 64, 96
1, 483013, Control_c, 0, 64, 84
1, 483013, Note_off_c, 0, 81, 61
1, 483013, Note_off_c, 0, 86, 68
1, 483016, Note_off_c, 0, 90, 62
1, 483027, Control_c, 0, 64, 73
1, 483042, Control_c, 0, 64, 59
1, 483057, Control_c, 0, 64, 0
1, 483080, Note_on_c, 0, 90, 73
1, 483082, Note_on_c, 0, 81, 72
1, 483083, Note_on_c, 0, 86, 61
1, 483106, Note_off_c, 0, 90, 68
1, 483110, Note_off_c, 0, 81, 67
1, 483112, Note_off_c, 0, 86, 67
1, 483159, Note_on_c, 0, 69, 53
1, 483189, Note_on_c, 0, 91, 77
1, 483192, Note_on_c, 0, 88, 76
1, 483207, Note_off_c, 0, 69, 64
1, 483218, Note_off_c, 0, 88, 69
1, 483221, Note_off_c, 0, 91, 66
1, 483249, Note_on_c, 0, 71, 43
1, 483277, Note_off_c, 0, 71, 56
1, 483289, Note_on_c, 0, 90, 86
1, 483289, Note_on_c, 0, 93, 81
1, 483291, Note_on_c, 0, 69, 57
1, 483313, Note_off_c, 0, 69, 58
1, 483313, Note_off_c, 0, 93, 67
1, 483317, Note_off_c, 0, 90, 65
1, 483387, Note_on_c, 0, 95, 95
1, 483392, Note_on_c, 0, 91, 84
1, 483409, Note_off_c, 0, 95, 66
1, 483412, Note_off_c, 0, 91, 72
1, 483498, Note_on_c, 0, 81, 47
1, 483527, Note_off_c, 0, 81, 50
1, 483563, Note_on_c, 0, 83, 62
1, 483570, Note_on_c, 0, 79, 62
1, 483593, Note_off_c, 0, 79, 65
1, 483605, Note_off_c, 0, 83, 66
1, 483657, Note_on_c, 0, 78, 82
1, 483657, Note_on_c, 0, 81, 88
1, 483677, Note_off_c, 0, 78, 69
1, 483678, Note_off_c, 0, 81, 70
1, 483751, Note_on_c, 0, 69, 67
1, 483762, Note_on_c, 0, 66, 70
1, 483782, Note_off_c, 0, 69, 66
1, 483788, Note_off_c, 0, 66, 67
1, 483843, Note_on_c, 0, 69, 75
1, 483846, Note_on_c, 0, 66, 81
1, 483878, Note_off_c, 0, 69, 65
1, 483878, Note_off_c, 0, 66, 65
1, 483879, Control_c, 0, 64, 12
1, 483894, Control_c, 0, 64, 62
1, 483909, Control_c, 0, 64, 71
1, 483931, Control_c, 0, 64, 85
1, 483946, Control_c, 0, 64, 110
1, 483961, Control_c, 0, 64, 127
1, 483966, Note_on_c, 0, 66, 81
1, 483970, Note_on_c, 0, 62, 61
1, 483989, Note_off_c, 0, 62, 60
1, 483992, Note_off_c, 0, 66, 68
1, 484050, Note_on_c, 0, 45, 70
1, 484063, Note_on_c, 0, 57, 62
1, 484085, Note_off_c, 0, 45, 62
1, 484102, Note_off_c, 0, 57, 59
1, 484149, Note_on_c, 0, 86, 69
1, 484149, Note_on_c, 0, 81, 74
1, 484159, Note_on_c, 0, 84, 60
1, 484168, Note_off_c, 0, 86, 64
1, 484168, Control_c, 0, 64, 100
1, 484171, Note_on_c, 0, 89, 40
1, 484171, Note_off_c, 0, 81, 67
1, 484177, Note_off_c, 0, 84, 63
1, 484182, Control_c, 0, 64, 87
1, 484197, Control_c, 0, 64, 74
1, 484207, Note_off_c, 0, 89, 51
1, 484212, Control_c, 0, 64, 61
1, 484227, Control_c, 0, 64, 0
1, 484236, Note_on_c, 0, 81, 77
1, 484243, Note_on_c, 0, 90, 77
1, 484245, Note_on_c, 0, 86, 57
1, 484260, Note_off_c, 0, 81, 68
1, 484265, Note_off_c, 0, 86, 61
1, 484265, Note_off_c, 0, 90, 68
1, 484304, Note_on_c, 0, 69, 61
1, 484329, Note_on_c, 0, 86, 77
1, 484331, Note_on_c, 0, 93, 93
1, 484355, Note_off_c, 0, 86, 66
1, 484367, Note_off_c, 0, 69, 60
1, 484370, Note_off_c, 0, 93, 61
1, 484392, Note_on_c, 0, 71, 63
1, 484423, Note_on_c, 0, 90, 97
1, 484428, Note_on_c, 0, 98, 83
1, 484434, Note_off_c, 0, 71, 65
1, 484444, Note_on_c, 0, 69, 46
1, 484456, Note_off_c, 0, 98, 66
1, 484466, Note_off_c, 0, 90, 65
1, 484471, Note_off_c, 0, 69, 51
1, 484512, Note_on_c, 0, 98, 95
1, 484513, Note_on_c, 0, 88, 100
1, 484514, Note_on_c, 0, 91, 89
1, 484528, Note_off_c, 0, 98, 76
1, 484532, Note_off_c, 0, 91, 74
1, 484535, Note_off_c, 0, 88, 67
1, 484600, Note_on_c, 0, 79, 74
1, 484602, Note_on_c, 0, 76, 73
1, 484624, Note_off_c, 0, 79, 67
1, 484632, Note_off_c, 0, 76, 62
1, 484701, Note_on_c, 0, 86, 84
1, 484705, Note_on_c, 0, 79, 51
1, 484720, Note_off_c, 0, 86, 71
1, 484727, Note_off_c, 0, 79, 58
1, 484728, Note_on_c, 0, 76, 32
1, 484736, Note_off_c, 0, 76, 50
1, 484791, Note_on_c, 0, 79, 78
1, 484791, Note_on_c, 0, 86, 87
1, 484794, Note_on_c, 0, 76, 69
1, 484808, Note_off_c, 0, 86, 74
1, 484813, Note_off_c, 0, 79, 67
1, 484820, Note_off_c, 0, 76, 69
1, 484871, Note_on_c, 0, 64, 66
1, 484880, Note_on_c, 0, 67, 53
1, 484902, Note_off_c, 0, 67, 59
1, 484912, Note_off_c, 0, 64, 63
1, 484976, Note_on_c, 0, 74, 80
1, 484978, Note_on_c, 0, 67, 66
1, 485002, Note_on_c, 0, 64, 35
1, 485004, Note_off_c, 0, 67, 66
1, 485004, Note_off_c, 0, 74, 65
1, 485034, Note_off_c, 0, 64, 52
1, 485073, Note_on_c, 0, 67, 63
1, 485076, Note_on_c, 0, 73, 68
1, 485082, Note_on_c, 0, 64, 57
1, 485102, Note_off_c, 0, 67, 65
1, 485103, Note_off_c, 0, 64, 61
1, 485103, Note_off_c, 0, 73, 69
1, 485178, Note_on_c, 0, 58, 56
1, 485209, Note_off_c, 0, 58, 66
1, 485264, Note_on_c, 0, 57, 69
1, 485285, Note_on_c, 0, 59, 41
1, 485286, Note_off_c, 0, 57, 58
1, 485312, Note_off_c, 0, 59, 50
1, 485359, Note_on_c, 0, 57, 78
1, 485385, Note_off_c, 0, 57, 67
1, 485461, Note_on_c, 0, 45, 54
1, 485544, Note_off_c, 0, 45, 53
1, 485592, Note_on_c, 0, 57, 43
1, 485601, Note_on_c, 0, 81, 77
1, 485603, Note_on_c, 0, 69, 65
1, 485619, Note_off_c, 0, 57, 55
1, 485625, Note_off_c, 0, 81, 68
1, 485632, Note_off_c, 0, 69, 66
1, 485747, Note_on_c, 0, 81, 82
1, 485751, Note_on_c, 0, 69, 62
1, 485754, Note_on_c, 0, 78, 76
1, 485771, Note_off_c, 0, 69, 63
1, 485774, Note_off_c, 0, 81, 68
1, 485778, Note_off_c, 0, 78, 69
1, 485881, Note_on_c, 0, 57, 45
1, 485885, Note_on_c, 0, 66, 63
1, 485920, Note_off_c, 0, 66, 66
1, 485923, Note_off_c, 0, 57, 53
1, 485996, Note_on_c, 0, 93, 71
1, 486002, Note_on_c, 0, 81, 66
1, 486008, Note_on_c, 0, 90, 49
1, 486021, Note_off_c, 0, 81, 63
1, 486023, Note_off_c, 0, 93, 65
1, 486033, Note_off_c, 0, 90, 56
1, 486110, Note_on_c, 0, 91, 73
1, 486111, Note_on_c, 0, 79, 78
1, 486121, Note_on_c, 0, 88, 53
1, 486131, Note_off_c, 0, 79, 67
1, 486136, Note_off_c, 0, 91, 68
1, 486144, Note_off_c, 0, 88, 59
1, 486233, Note_on_c, 0, 67, 50
1, 486238, Note_on_c, 0, 64, 42
1, 486245, Note_on_c, 0, 57, 58
1, 486256, Note_off_c, 0, 67, 60
1, 486263, Note_off_c, 0, 64, 52
1, 486278, Note_off_c, 0, 57, 64
1, 486322, Note_on_c, 0, 67, 72
1, 486324, Note_on_c, 0, 79, 69
1, 486345, Note_off_c, 0, 79, 65
1, 486349, Note_off_c, 0, 67, 68
1, 486415, Control_c, 0, 64, 85
1, 486427, Note_on_c, 0, 76, 75
1, 486430, Note_on_c, 0, 73, 75
1, 486430, Control_c, 0, 64, 127
1, 486437, Note_on_c, 0, 64, 67
1, 486452, Note_off_c, 0, 76, 65
1, 486459, Note_off_c, 0, 73, 61
1, 486464, Note_off_c, 0, 64, 65
1, 486513, Note_on_c, 0, 45, 56
1, 486567, Note_off_c, 0, 45, 61
1, 486596, Note_on_c, 0, 57, 66
1, 486622, Note_on_c, 0, 76, 78
1, 486623, Control_c, 0, 64, 120
1, 486634, Note_on_c, 0, 73, 68
1, 486637, Note_off_c, 0, 57, 60
1, 486638, Control_c, 0, 64, 93
1, 486640, Note_on_c, 0, 64, 58
1, 486652, Control_c, 0, 64, 75
1, 486655, Note_off_c, 0, 76, 56
1, 486656, Note_off_c, 0, 64, 63
1, 486662, Note_off_c, 0, 73, 67
1, 486667, Control_c, 0, 64, 0
1, 486722, Note_on_c, 0, 64, 70
1, 486729, Note_on_c, 0, 73, 60
1, 486733, Note_on_c, 0, 61, 55
1, 486740, Note_on_c, 0, 74, 61
1, 486749, Note_off_c, 0, 64, 68
1, 486750, Note_off_c, 0, 73, 66
1, 486766, Note_off_c, 0, 74, 66
1, 486788, Note_off_c, 0, 61, 53
1, 486811, Note_on_c, 0, 62, 65
1, 486814, Note_on_c, 0, 66, 87
1, 486824, Note_on_c, 0, 78, 72
1, 486832, Note_on_c, 0, 74, 60
1, 486837, Note_off_c, 0, 66, 70
1, 486850, Note_off_c, 0, 78, 69
1, 486851, Note_off_c, 0, 74, 64
1, 486919, Note_off_c, 0, 62, 62
1, 486928, Note_on_c, 0, 67, 75
1, 486937, Note_on_c, 0, 81, 65
1, 486945, Note_on_c, 0, 64, 73
1, 486950, Note_on_c, 0, 79, 52
1, 486951, Note_on_c, 0, 76, 33
1, 486953, Note_off_c, 0, 67, 68
1, 486957, Note_off_c, 0, 81, 61
1, 486960, Note_on_c, 0, 77, 21
1, 486973, Note_off_c, 0, 79, 58
1, 486984, Note_off_c, 0, 76, 33
1, 486987, Note_off_c, 0, 64, 63
1, 486993, Note_off_c, 0, 77, 32
1, 487022, Note_on_c, 0, 83, 93
1, 487026, Note_on_c, 0, 71, 77
1, 487028, Note_on_c, 0, 79, 79
1, 487049, Note_off_c, 0, 71, 65
1, 487050, Note_off_c, 0, 79, 68
1, 487053, Note_off_c, 0, 83, 68
1, 487119, Note_on_c, 0, 67, 74
1, 487121, Note_on_c, 0, 57, 65
1, 487171, Note_off_c, 0, 57, 55
1, 487177, Note_off_c, 0, 67, 54
1, 487211, Note_on_c, 0, 83, 81
1, 487219, Note_on_c, 0, 95, 67
1, 487225, Note_on_c, 0, 96, 57
1, 487231, Note_off_c, 0, 83, 73
1, 487244, Note_off_c, 0, 95, 65
1, 487246, Note_off_c, 0, 96, 61
1, 487300, Note_on_c, 0, 93, 77
1, 487301, Note_on_c, 0, 90, 86
1, 487306, Note_on_c, 0, 81, 84
1, 487319, Note_off_c, 0, 90, 73
1, 487321, Note_off_c, 0, 93, 69
1, 487327, Note_off_c, 0, 81, 71
1, 487397, Note_on_c, 0, 66, 73
1, 487403, Note_on_c, 0, 69, 53
1, 487410, Note_on_c, 0, 57, 63
1, 487425, Note_off_c, 0, 69, 60
1, 487427, Note_off_c, 0, 66, 68
1, 487461, Note_off_c, 0, 57, 62
1, 487484, Note_on_c, 0, 69, 72
1, 487488, Note_on_c, 0, 81, 71
1, 487497, Note_on_c, 0, 78, 45
1, 487506, Note_off_c, 0, 81, 66
1, 487510, Note_off_c, 0, 69, 69
1, 487518, Control_c, 0, 64, 57
1, 487521, Note_off_c, 0, 78, 57
1, 487533, Control_c, 0, 64, 72
1, 487548, Control_c, 0, 64, 88
1, 487563, Control_c, 0, 64, 127
1, 487577, Note_on_c, 0, 78, 89
1, 487577, Note_on_c, 0, 66, 93
1, 487581, Note_on_c, 0, 74, 77
1, 487631, Note_off_c, 0, 66, 61
1, 487635, Note_off_c, 0, 78, 55
1, 487653, Note_on_c, 0, 45, 67
1, 487676, Note_off_c, 0, 74, 59
1, 487735, Note_off_c, 0, 45, 61
1, 487750, Note_on_c, 0, 57, 68
1, 487776, Note_on_c, 0, 74, 76
1, 487780, Note_on_c, 0, 66, 76
1, 487783, Note_off_c, 0, 57, 65
1, 487784, Note_on_c, 0, 78, 62
1, 487801, Note_off_c, 0, 74, 66
1, 487804, Note_off_c, 0, 66, 68
1, 487805, Note_off_c, 0, 78, 63
1, 487823, Control_c, 0, 64, 93
1, 487838, Control_c, 0, 64, 73
1, 487853, Control_c, 0, 64, 0
1, 487863, Note_on_c, 0, 66, 84
1, 487866, Note_on_c, 0, 62, 66
1, 487871, Note_on_c, 0, 74, 66
1, 487877, Note_on_c, 0, 78, 59
1, 487887, Note_off_c, 0, 66, 69
1, 487895, Note_off_c, 0, 74, 68
1, 487896, Note_off_c, 0, 78, 63
1, 487898, Note_off_c, 0, 62, 62
1, 487956, Note_on_c, 0, 64, 69
1, 487963, Note_on_c, 0, 79, 80
1, 487965, Note_on_c, 0, 67, 79
1, 487972, Note_on_c, 0, 76, 66
1, 487987, Note_off_c, 0, 67, 68
1, 487988, Note_off_c, 0, 79, 67
1, 487989, Note_off_c, 0, 76, 66
1, 488054, Note_on_c, 0, 69, 85
1, 488054, Note_off_c, 0, 64, 53
1, 488056, Note_on_c, 0, 78, 80
1, 488057, Note_on_c, 0, 81, 82
1, 488069, Note_on_c, 0, 66, 69
1, 488072, Note_off_c, 0, 69, 71
1, 488076, Note_off_c, 0, 78, 70
1, 488078, Note_off_c, 0, 81, 70
1, 488105, Note_off_c, 0, 66, 64
1, 488144, Note_on_c, 0, 79, 89
1, 488145, Note_on_c, 0, 83, 92
1, 488146, Note_on_c, 0, 71, 79
1, 488165, Note_off_c, 0, 79, 68
1, 488167, Note_off_c, 0, 71, 71
1, 488172, Note_off_c, 0, 83, 66
1, 488247, Note_on_c, 0, 57, 55
1, 488248, Note_on_c, 0, 67, 67
1, 488296, Note_off_c, 0, 67, 54
1, 488301, Note_off_c, 0, 57, 52
1, 488331, Note_on_c, 0, 95, 82
1, 488331, Note_on_c, 0, 83, 83
1, 488352, Note_off_c, 0, 95, 69
1, 488352, Note_off_c, 0, 83, 73
1, 488428, Note_on_c, 0, 90, 86
1, 488430, Note_on_c, 0, 93, 83
1, 488431, Note_on_c, 0, 81, 89
1, 488448, Note_off_c, 0, 90, 72
1, 488450, Note_off_c, 0, 93, 72
1, 488452, Note_off_c, 0, 81, 71
1, 488525, Note_on_c, 0, 57, 61
1, 488525, Note_on_c, 0, 69, 64
1, 488526, Note_on_c, 0, 66, 67
1, 488553, Note_off_c, 0, 66, 67
1, 488555, Note_off_c, 0, 69, 65
1, 488578, Note_off_c, 0, 57, 64
1, 488615, Note_on_c, 0, 69, 75
1, 488622, Note_on_c, 0, 81, 72
1, 488635, Note_on_c, 0, 78, 46
1, 488639, Note_off_c, 0, 69, 67
1, 488641, Note_off_c, 0, 81, 64
1, 488659, Note_off_c, 0, 78, 57
1, 488692, Control_c, 0, 64, 69
1, 488707, Control_c, 0, 64, 89
1, 488716, Note_on_c, 0, 66, 87
1, 488719, Note_on_c, 0, 78, 80
1, 488721, Note_on_c, 0, 74, 74
1, 488722, Control_c, 0, 64, 119
1, 488737, Control_c, 0, 64, 127
1, 488764, Note_off_c, 0, 66, 45
1, 488774, Note_off_c, 0, 78, 56
1, 488798, Note_on_c, 0, 45, 55
1, 488823, Note_off_c, 0, 74, 61
1, 488857, Note_off_c, 0, 45, 61
1, 488894, Note_on_c, 0, 57, 52
1, 488919, Note_on_c, 0, 74, 71
1, 488922, Note_off_c, 0, 57, 62
1, 488931, Note_on_c, 0, 66, 66
1, 488934, Note_on_c, 0, 78, 55
1, 488956, Note_off_c, 0, 66, 64
1, 488957, Note_off_c, 0, 78, 58
1, 488961, Note_off_c, 0, 74, 61
1, 489022, Note_on_c, 0, 78, 80
1, 489023, Note_on_c, 0, 66, 81
1, 489044, Note_off_c, 0, 78, 67
1, 489048, Note_off_c, 0, 66, 69
1, 489092, Note_on_c, 0, 62, 21
1, 489130, Note_off_c, 0, 62, 48
1, 489133, Poly_aftertouch_c, 0, 60, 127
1, 489137, Note_on_c, 0, 79, 62
1, 489137, Note_on_c, 0, 81, 76
1, 489145, Note_on_c, 0, 67, 44
1, 489148, Note_on_c, 0, 65, 36
1, 489152, Note_on_c, 0, 69, 38
1, 489153, Note_off_c, 0, 81, 69
1, 489156, Note_off_c, 0, 79, 64
1, 489172, Poly_aftertouch_c, 0, 60, 0
1, 489178, Note_off_c, 0, 67, 55
1, 489188, Note_off_c, 0, 65, 51
1, 489188, Note_off_c, 0, 69, 53
1, 489244, Note_on_c, 0, 86, 81
1, 489249, Note_on_c, 0, 74, 73
1, 489272, Note_off_c, 0, 74, 68
1, 489304, Note_off_c, 0, 86, 63
1, 489322, Control_c, 0, 64, 96
1, 489337, Control_c, 0, 64, 69
1, 489352, Control_c, 0, 64, 0
1, 489381, Note_on_c, 0, 80, 78
1, 489390, Note_on_c, 0, 77, 68
1, 489391, Note_on_c, 0, 86, 75
1, 489396, Control_c, 0, 64, 62
1, 489411, Control_c, 0, 64, 76
1, 489415, Note_off_c, 0, 77, 66
1, 489426, Control_c, 0, 64, 101
1, 489434, Note_off_c, 0, 80, 65
1, 489441, Control_c, 0, 64, 127
1, 489446, Note_off_c, 0, 86, 64
1, 489506, Note_on_c, 0, 68, 53
1, 489509, Note_on_c, 0, 65, 59
1, 489533, Note_on_c, 0, 74, 32
1, 489539, Note_off_c, 0, 65, 66
1, 489539, Note_off_c, 0, 68, 65
1, 489569, Note_off_c, 0, 74, 49
1, 489649, Note_on_c, 0, 98, 74
1, 489660, Note_on_c, 0, 92, 56
1, 489662, Note_on_c, 0, 89, 52
1, 489675, Note_off_c, 0, 98, 68
1, 489682, Note_off_c, 0, 92, 59
1, 489688, Note_off_c, 0, 89, 57
1, 489723, Note_on_c, 0, 98, 84
1, 489734, Note_on_c, 0, 89, 69
1, 489740, Note_on_c, 0, 92, 73
1, 489746, Note_off_c, 0, 98, 70
1, 489761, Note_off_c, 0, 89, 68
1, 489766, Note_off_c, 0, 92, 68
1, 489801, Note_on_c, 0, 86, 59
1, 489819, Note_on_c, 0, 80, 59
1, 489822, Note_off_c, 0, 86, 66
1, 489828, Note_on_c, 0, 77, 49
1, 489844, Note_off_c, 0, 80, 67
1, 489854, Note_off_c, 0, 77, 63
1, 489923, Note_on_c, 0, 86, 78
1, 489929, Note_on_c, 0, 77, 80
1, 489932, Note_on_c, 0, 80, 66
1, 489950, Note_off_c, 0, 77, 69
1, 489951, Note_off_c, 0, 86, 62
1, 489956, Note_off_c, 0, 80, 68
1, 490008, Note_on_c, 0, 86, 84
1, 490010, Note_on_c, 0, 80, 81
1, 490013, Note_on_c, 0, 77, 74
1, 490025, Note_off_c, 0, 86, 72
1, 490034, Note_off_c, 0, 77, 69
1, 490044, Note_off_c, 0, 80, 64
1, 490087, Note_on_c, 0, 68, 69
1, 490088, Note_on_c, 0, 65, 53
1, 490116, Note_off_c, 0, 68, 66
1, 490117, Note_off_c, 0, 65, 66
1, 490206, Note_on_c, 0, 65, 69
1, 490206, Note_on_c, 0, 68, 65
1, 490208, Note_on_c, 0, 74, 66
1, 490233, Note_off_c, 0, 68, 66
1, 490234, Note_off_c, 0, 65, 67
1, 490234, Note_off_c, 0, 74, 67
1, 490290, Note_on_c, 0, 68, 82
1, 490290, Note_on_c, 0, 73, 86
1, 490301, Note_on_c, 0, 65, 54
1, 490317, Note_off_c, 0, 68, 67
1, 490326, Note_off_c, 0, 65, 61
1, 490337, Note_off_c, 0, 73, 63
1, 490356, Note_on_c, 0, 45, 67
1, 490375, Note_on_c, 0, 57, 66
1, 490385, Note_off_c, 0, 45, 65
1, 490409, Note_off_c, 0, 57, 63
1, 490442, Control_c, 0, 64, 91
1, 490457, Control_c, 0, 64, 63
1, 490463, Note_on_c, 0, 85, 81
1, 490471, Control_c, 0, 64, 0
1, 490472, Note_on_c, 0, 77, 62
1, 490478, Note_on_c, 0, 80, 55
1, 490482, Note_off_c, 0, 85, 72
1, 490491, Note_off_c, 0, 77, 61
1, 490498, Note_off_c, 0, 80, 61
1, 490516, Control_c, 0, 64, 64
1, 490531, Control_c, 0, 64, 78
1, 490545, Control_c, 0, 64, 110
1, 490554, Note_on_c, 0, 83, 97
1, 490560, Control_c, 0, 64, 127
1, 490561, Note_on_c, 0, 73, 77
1, 490562, Note_on_c, 0, 78, 76
1, 490585, Note_off_c, 0, 73, 70
1, 490587, Note_off_c, 0, 78, 67
1, 490592, Note_off_c, 0, 83, 61
1, 490635, Note_on_c, 0, 61, 69
1, 490653, Note_on_c, 0, 71, 65
1, 490665, Note_on_c, 0, 66, 63
1, 490677, Note_off_c, 0, 61, 60
1, 490690, Note_off_c, 0, 66, 66
1, 490692, Note_off_c, 0, 71, 66
1, 490754, Note_on_c, 0, 95, 85
1, 490758, Note_on_c, 0, 85, 74
1, 490762, Note_on_c, 0, 90, 67
1, 490774, Note_off_c, 0, 95, 72
1, 490781, Note_off_c, 0, 85, 66
1, 490782, Note_off_c, 0, 90, 66
1, 490836, Note_on_c, 0, 85, 81
1, 490837, Note_on_c, 0, 95, 91
1, 490838, Note_on_c, 0, 90, 90
1, 490854, Note_off_c, 0, 95, 72
1, 490869, Note_off_c, 0, 90, 62
1, 490873, Note_off_c, 0, 85, 62
1, 490919, Note_on_c, 0, 73, 69
1, 490926, Note_on_c, 0, 78, 49
1, 490949, Note_off_c, 0, 78, 58
1, 490969, Note_off_c, 0, 73, 63
1, 491012, Note_on_c, 0, 73, 67
1, 491014, Note_on_c, 0, 83, 88
1, 491018, Note_on_c, 0, 78, 72
1, 491036, Note_off_c, 0, 73, 68
1, 491037, Note_off_c, 0, 83, 71
1, 491041, Note_off_c, 0, 78, 67
1, 491098, Note_on_c, 0, 73, 85
1, 491098, Note_on_c, 0, 78, 81
1, 491102, Note_on_c, 0, 83, 95
1, 491119, Note_off_c, 0, 83, 75
1, 491143, Note_off_c, 0, 73, 61
1, 491145, Note_off_c, 0, 78, 63
1, 491187, Note_on_c, 0, 66, 76
1, 491191, Note_on_c, 0, 61, 66
1, 491212, Note_off_c, 0, 66, 68
1, 491228, Note_off_c, 0, 61, 62
1, 491279, Note_on_c, 0, 71, 79
1, 491290, Note_on_c, 0, 66, 67
1, 491294, Note_on_c, 0, 61, 57
1, 491306, Note_off_c, 0, 71, 66
1, 491318, Note_off_c, 0, 66, 67
1, 491323, Note_off_c, 0, 61, 54
1, 491369, Note_on_c, 0, 66, 84
1, 491370, Note_on_c, 0, 69, 83
1, 491377, Note_on_c, 0, 61, 77
1, 491400, Note_off_c, 0, 61, 66
1, 491427, Note_off_c, 0, 66, 64
1, 491431, Note_off_c, 0, 69, 64
1, 491471, Note_on_c, 0, 45, 69
1, 491473, Note_on_c, 0, 57, 76
1, 491498, Note_off_c, 0, 45, 62
1, 491518, Note_off_c, 0, 57, 62
1, 491524, Control_c, 0, 64, 91
1, 491539, Control_c, 0, 64, 62
1, 491554, Control_c, 0, 64, 0
1, 491560, Note_on_c, 0, 81, 93
1, 491571, Note_on_c, 0, 73, 67
1, 491590, Note_off_c, 0, 73, 65
1, 491599, Control_c, 0, 64, 62
1, 491605, Note_off_c, 0, 81, 61
1, 491614, Control_c, 0, 64, 78
1, 491629, Control_c, 0, 64, 127
1, 491639, Note_on_c, 0, 78, 25
1, 491642, Note_on_c, 0, 84, 95
1, 491646, Note_on_c, 0, 75, 81
1, 491665, Note_off_c, 0, 75, 71
1, 491680, Note_off_c, 0, 78, 65
1, 491690, Note_off_c, 0, 84, 68
1, 491725, Note_on_c, 0, 63, 70
1, 491731, Note_on_c, 0, 72, 76
1, 491762, Note_off_c, 0, 63, 63
1, 491777, Note_off_c, 0, 72, 62
1, 491833, Note_on_c, 0, 96, 81
1, 491843, Note_on_c, 0, 87, 63
1, 491846, Note_on_c, 0, 90, 64
1, 491854, Note_off_c, 0, 96, 70
1, 491861, Note_off_c, 0, 87, 65
1, 491864, Note_off_c, 0, 90, 64
1, 491914, Note_on_c, 0, 96, 87
1, 491918, Note_on_c, 0, 87, 96
1, 491919, Note_on_c, 0, 90, 89
1, 491935, Note_off_c, 0, 96, 71
1, 491943, Note_off_c, 0, 90, 65
1, 491947, Note_off_c, 0, 87, 62
1, 491996, Note_on_c, 0, 75, 62
1, 492001, Note_on_c, 0, 78, 61
1, 492028, Note_off_c, 0, 78, 67
1, 492029, Note_off_c, 0, 75, 67
1, 492093, Note_on_c, 0, 75, 79
1, 492095, Note_on_c, 0, 84, 86
1, 492103, Note_on_c, 0, 78, 63
1, 492111, Note_off_c, 0, 75, 72
1, 492118, Note_off_c, 0, 84, 65
1, 492125, Note_off_c, 0, 78, 65
1, 492188, Note_on_c, 0, 75, 90
1, 492189, Note_on_c, 0, 78, 89
1, 492193, Note_on_c, 0, 84, 89
1, 492211, Note_off_c, 0, 84, 74
1, 492226, Note_off_c, 0, 78, 59
1, 492230, Note_off_c, 0, 75, 63
1, 492267, Note_on_c, 0, 63, 70
1, 492270, Note_on_c, 0, 66, 76
1, 492293, Note_off_c, 0, 66, 68
1, 492303, Note_off_c, 0, 63, 64
1, 492362, Note_on_c, 0, 72, 91
1, 492367, Note_on_c, 0, 66, 72
1, 492373, Note_on_c, 0, 63, 70
1, 492386, Note_off_c, 0, 72, 67
1, 492391, Note_off_c, 0, 63, 67
1, 492394, Note_off_c, 0, 66, 67
1, 492453, Note_on_c, 0, 63, 82
1, 492454, Note_on_c, 0, 66, 86
1, 492455, Note_on_c, 0, 71, 88
1, 492478, Note_off_c, 0, 63, 68
1, 492483, Note_off_c, 0, 66, 61
1, 492505, Note_off_c, 0, 71, 65
1, 492528, Note_on_c, 0, 45, 69
1, 492535, Note_on_c, 0, 57, 76
1, 492558, Note_off_c, 0, 45, 64
1, 492584, Note_off_c, 0, 57, 64
1, 492600, Control_c, 0, 64, 117
1, 492614, Control_c, 0, 64, 79
1, 492629, Control_c, 0, 64, 0
1, 492636, Note_on_c, 0, 83, 79
1, 492636, Note_on_c, 0, 75, 75
1, 492638, Note_on_c, 0, 78, 71
1, 492658, Note_off_c, 0, 75, 68
1, 492658, Note_off_c, 0, 83, 72
1, 492659, Note_off_c, 0, 78, 68
1, 492688, Control_c, 0, 64, 65
1, 492703, Control_c, 0, 64, 82
1, 492718, Note_on_c, 0, 81, 109
1, 492718, Control_c, 0, 64, 127
1, 492719, Note_on_c, 0, 76, 90
1, 492722, Note_on_c, 0, 71, 81
1, 492739, Note_off_c, 0, 76, 70
1, 492742, Note_off_c, 0, 71, 71
1, 492757, Note_off_c, 0, 81, 63
1, 492799, Note_on_c, 0, 59, 66
1, 492805, Note_on_c, 0, 64, 58
1, 492805, Note_on_c, 0, 69, 72
1, 492825, Note_off_c, 0, 64, 61
1, 492827, Note_off_c, 0, 59, 68
1, 492847, Note_off_c, 0, 69, 62
1, 492901, Note_on_c, 0, 93, 90
1, 492904, Note_on_c, 0, 83, 81
1, 492913, Note_on_c, 0, 88, 72
1, 492930, Note_off_c, 0, 93, 69
1, 492933, Note_off_c, 0, 83, 73
1, 492936, Note_off_c, 0, 88, 69
1, 492987, Note_on_c, 0, 88, 92
1, 492988, Note_on_c, 0, 93, 100
1, 492988, Note_on_c, 0, 83, 87
1, 493005, Note_off_c, 0, 93, 67
1, 493012, Note_off_c, 0, 83, 71
1, 493018, Note_off_c, 0, 88, 64
1, 493059, Note_on_c, 0, 71, 70
1, 493063, Note_on_c, 0, 76, 66
1, 493078, Note_off_c, 0, 76, 69
1, 493096, Note_off_c, 0, 71, 63
1, 493157, Note_on_c, 0, 76, 68
1, 493165, Note_on_c, 0, 81, 79
1, 493166, Note_on_c, 0, 71, 67
1, 493174, Note_on_c, 0, 79, 67
1, 493183, Note_off_c, 0, 76, 67
1, 493187, Note_off_c, 0, 71, 66
1, 493189, Note_off_c, 0, 81, 67
1, 493190, Note_off_c, 0, 79, 65
1, 493238, Note_on_c, 0, 76, 84
1, 493238, Note_on_c, 0, 81, 96
1, 493241, Note_on_c, 0, 71, 81
1, 493267, Note_off_c, 0, 81, 65
1, 493274, Note_off_c, 0, 76, 63
1, 493276, Note_off_c, 0, 71, 63
1, 493277, Note_on_c, 0, 79, 28
1, 493278, Note_off_c, 0, 79, 127
1, 493314, Note_on_c, 0, 64, 62
1, 493315, Note_on_c, 0, 59, 70
1, 493333, Note_off_c, 0, 64, 64
1, 493345, Note_off_c, 0, 59, 67
1, 493412, Note_on_c, 0, 69, 86
1, 493414, Note_on_c, 0, 64, 76
1, 493419, Note_on_c, 0, 59, 74
1, 493435, Note_off_c, 0, 69, 69
1, 493439, Note_off_c, 0, 64, 65
1, 493450, Note_off_c, 0, 59, 65
1, 493491, Note_on_c, 0, 67, 87
1, 493499, Note_on_c, 0, 59, 76
1, 493499, Note_on_c, 0, 64, 76
1, 493524, Note_off_c, 0, 59, 69
1, 493528, Note_off_c, 0, 64, 66
1, 493544, Note_off_c, 0, 67, 64
1, 493580, Note_on_c, 0, 45, 78
1, 493583, Note_on_c, 0, 57, 82
1, 493605, Note_off_c, 0, 45, 64
1, 493629, Control_c, 0, 64, 85
1, 493633, Note_off_c, 0, 57, 65
1, 493644, Control_c, 0, 64, 0
1, 493664, Note_on_c, 0, 71, 81
1, 493679, Note_on_c, 0, 79, 56
1, 493685, Note_off_c, 0, 71, 70
1, 493700, Note_off_c, 0, 79, 59
1, 493711, Note_on_c, 0, 81, 14
1, 493712, Note_off_c, 0, 81, 127
1, 493712, Control_c, 0, 64, 60
1, 493726, Control_c, 0, 64, 81
1, 493741, Control_c, 0, 64, 127
1, 493745, Note_on_c, 0, 82, 104
1, 493748, Note_on_c, 0, 73, 92
1, 493756, Note_on_c, 0, 76, 61
1, 493763, Note_off_c, 0, 73, 75
1, 493765, Poly_aftertouch_c, 0, 80, 0
1, 493780, Note_off_c, 0, 76, 68
1, 493797, Note_off_c, 0, 82, 63
1, 493813, Note_on_c, 0, 64, 41
1, 493827, Note_on_c, 0, 61, 82
1, 493827, Note_on_c, 0, 70, 93
1, 493853, Note_off_c, 0, 64, 63
1, 493871, Note_off_c, 0, 61, 63
1, 493872, Note_off_c, 0, 70, 64
1, 493917, Note_on_c, 0, 94, 94
1, 493922, Note_on_c, 0, 85, 88
1, 493929, Note_on_c, 0, 88, 68
1, 493935, Note_off_c, 0, 94, 70
1, 493938, Note_off_c, 0, 85, 73
1, 493944, Note_off_c, 0, 88, 68
1, 493994, Note_on_c, 0, 94, 100
1, 493997, Note_on_c, 0, 85, 93
1, 493998, Note_on_c, 0, 88, 96
1, 494023, Note_off_c, 0, 88, 65
1, 494025, Note_off_c, 0, 85, 64
1, 494031, Note_off_c, 0, 94, 66
1, 494049, Note_on_c, 0, 76, 65
1, 494052, Note_on_c, 0, 73, 74
1, 494076, Note_off_c, 0, 76, 67
1, 494104, Note_off_c, 0, 73, 66
1, 494160, Note_on_c, 0, 73, 81
1, 494162, Note_on_c, 0, 82, 77
1, 494177, Note_on_c, 0, 76, 43
1, 494179, Note_off_c, 0, 73, 73
1, 494184, Note_off_c, 0, 82, 70
1, 494209, Note_off_c, 0, 76, 51
1, 494233, Note_on_c, 0, 82, 96
1, 494237, Note_on_c, 0, 73, 95
1, 494247, Note_on_c, 0, 76, 72
1, 494270, Note_off_c, 0, 76, 68
1, 494273, Note_off_c, 0, 73, 61
1, 494275, Note_off_c, 0, 82, 65
1, 494322, Note_on_c, 0, 62, 56
1, 494323, Note_on_c, 0, 64, 50
1, 494332, Note_on_c, 0, 61, 55
1, 494345, Note_off_c, 0, 64, 59
1, 494354, Note_off_c, 0, 62, 63
1, 494359, Note_off_c, 0, 61, 56
1, 494422, Note_on_c, 0, 70, 86
1, 494424, Note_on_c, 0, 61, 80
1, 494431, Note_on_c, 0, 64, 59
1, 494444, Note_off_c, 0, 61, 71
1, 494449, Note_off_c, 0, 70, 62
1, 494460, Note_off_c, 0, 64, 65
1, 494504, Note_on_c, 0, 69, 90
1, 494505, Note_on_c, 0, 61, 78
1, 494526, Note_off_c, 0, 61, 69
1, 494541, Note_on_c, 0, 64, 34
1, 494557, Note_off_c, 0, 69, 63
1, 494566, Note_off_c, 0, 64, 56
1, 494576, Note_on_c, 0, 45, 76
1, 494582, Note_on_c, 0, 57, 79
1, 494602, Note_off_c, 0, 45, 65
1, 494621, Control_c, 0, 64, 89
1, 494632, Note_off_c, 0, 57, 63
1, 494636, Control_c, 0, 64, 57
1, 494651, Control_c, 0, 64, 0
1, 494667, Note_on_c, 0, 81, 98
1, 494675, Note_on_c, 0, 73, 76
1, 494687, Note_off_c, 0, 81, 74
1, 494696, Note_off_c, 0, 73, 70
1, 494755, Note_on_c, 0, 79, 93
1, 494756, Note_on_c, 0, 74, 88
1, 494758, Note_on_c, 0, 69, 87
1, 494776, Note_off_c, 0, 74, 71
1, 494781, Note_off_c, 0, 69, 70
1, 494799, Note_off_c, 0, 79, 62
1, 494832, Note_on_c, 0, 57, 69
1, 494836, Note_on_c, 0, 62, 58
1, 494838, Note_on_c, 0, 67, 75
1, 494884, Note_off_c, 0, 62, 59
1, 494884, Note_off_c, 0, 67, 60
1, 494907, Note_off_c, 0, 57, 58
1, 494922, Note_on_c, 0, 91, 85
1, 494925, Note_on_c, 0, 81, 89
1, 494926, Note_on_c, 0, 86, 71
1, 494942, Note_off_c, 0, 91, 71
1, 494946, Note_off_c, 0, 81, 69
1, 494949, Note_off_c, 0, 86, 69
1, 495003, Note_on_c, 0, 81, 100
1, 495005, Note_on_c, 0, 89, 94
1, 495012, Note_on_c, 0, 86, 55
1, 495026, Note_off_c, 0, 89, 70
1, 495032, Note_off_c, 0, 86, 64
1, 495034, Note_off_c, 0, 81, 69
1, 495067, Note_on_c, 0, 62, 64
1, 495068, Note_on_c, 0, 57, 57
1, 495070, Note_on_c, 0, 65, 73
1, 495099, Note_off_c, 0, 62, 65
1, 495101, Note_off_c, 0, 65, 66
1, 495122, Note_off_c, 0, 57, 60
1, 495169, Note_on_c, 0, 77, 83
1, 495179, Note_on_c, 0, 69, 61
1, 495184, Note_on_c, 0, 67, 62
1, 495189, Note_off_c, 0, 77, 71
1, 495199, Note_off_c, 0, 69, 62
1, 495202, Note_off_c, 0, 67, 63
1, 495205, Note_on_c, 0, 72, 23
1, 495207, Note_off_c, 0, 72, 53
1, 495250, Note_on_c, 0, 69, 94
1, 495253, Note_on_c, 0, 76, 88
1, 495256, Note_on_c, 0, 65, 85
1, 495270, Note_off_c, 0, 69, 69
1, 495280, Note_off_c, 0, 65, 71
1, 495292, Note_off_c, 0, 76, 60
1, 495329, Note_on_c, 0, 64, 71
1, 495331, Note_on_c, 0, 53, 65
1, 495334, Note_on_c, 0, 57, 54
1, 495376, Note_off_c, 0, 57, 58
1, 495390, Note_off_c, 0, 64, 63
1, 495416, Note_on_c, 0, 88, 85
1, 495417, Note_off_c, 0, 53, 54
1, 495421, Note_on_c, 0, 77, 74
1, 495421, Note_on_c, 0, 81, 80
1, 495435, Note_off_c, 0, 88, 72
1, 495446, Note_off_c, 0, 77, 68
1, 495447, Note_off_c, 0, 81, 69
1, 495497, Note_on_c, 0, 77, 84
1, 495498, Note_on_c, 0, 86, 84
1, 495502, Note_on_c, 0, 81, 75
1, 495515, Note_off_c, 0, 86, 73
1, 495520, Note_off_c, 0, 77, 66
1, 495524, Note_off_c, 0, 81, 68
1, 495575, Note_on_c, 0, 53, 60
1, 495575, Note_on_c, 0, 57, 51
1, 495578, Note_on_c, 0, 62, 64
1, 495614, Note_off_c, 0, 57, 62
1, 495618, Note_off_c, 0, 62, 58
1, 495651, Note_off_c, 0, 53, 61
1, 495661, Note_on_c, 0, 74, 76
1, 495673, Note_on_c, 0, 69, 58
1, 495674, Note_on_c, 0, 65, 57
1, 495684, Note_off_c, 0, 74, 69
1, 495694, Note_off_c, 0, 69, 60
1, 495695, Note_off_c, 0, 65, 62
1, 495739, Note_on_c, 0, 72, 92
1, 495751, Note_on_c, 0, 65, 66
1, 495769, Note_off_c, 0, 65, 65
1, 495771, Note_off_c, 0, 72, 65
1, 495839, Note_on_c, 0, 60, 61
1, 495846, Note_on_c, 0, 53, 45
1, 495849, Note_on_c, 0, 50, 48
1, 495884, Note_off_c, 0, 60, 56
1, 495893, Note_off_c, 0, 53, 59
1, 495895, Note_off_c, 0, 50, 58
1, 495916, Note_on_c, 0, 84, 73
1, 495940, Note_off_c, 0, 84, 68
1, 495977, Poly_aftertouch_c, 0, 74, 127
1, 495992, Note_on_c, 0, 82, 81
1, 496005, Note_on_c, 0, 74, 3
1, 496011, Note_off_c, 0, 82, 73
1, 496022, Note_off_c, 0, 74, 60
1, 496085, Note_on_c, 0, 58, 71
1, 496089, Note_on_c, 0, 50, 43
1, 496117, Note_on_c, 0, 53, 5
1, 496122, Note_off_c, 0, 50, 57
1, 496138, Note_off_c, 0, 58, 60
1, 496154, Note_off_c, 0, 53, 37
1, 496159, Note_on_c, 0, 70, 85
1, 496180, Note_off_c, 0, 70, 71
1, 496185, Note_on_c, 0, 62, 38
1, 496215, Note_off_c, 0, 62, 35
1, 496227, Note_on_c, 0, 69, 100
1, 496265, Note_off_c, 0, 69, 68
1, 496314, Note_on_c, 0, 58, 74
1, 496317, Note_on_c, 0, 62, 67
1, 496340, Note_off_c, 0, 58, 69
1, 496364, Note_off_c, 0, 62, 61
1, 496393, Note_on_c, 0, 81, 97
1, 496435, Note_off_c, 0, 81, 64
1, 496475, Note_on_c, 0, 79, 86
1, 496498, Note_off_c, 0, 79, 66
1, 496510, Note_on_c, 0, 80, 32
1, 496511, Note_off_c, 0, 80, 127
1, 496556, Note_on_c, 0, 70, 79
1, 496578, Note_off_c, 0, 70, 70
1, 496627, Note_on_c, 0, 67, 88
1, 496663, Note_off_c, 0, 67, 65
1, 496702, Note_on_c, 0, 65, 92
1, 496754, Note_off_c, 0, 65, 66
1, 496806, Note_on_c, 0, 55, 69
1, 496815, Note_on_c, 0, 58, 69
1, 496837, Note_off_c, 0, 55, 64
1, 496842, Note_off_c, 0, 58, 67
1, 496883, Note_on_c, 0, 77, 79
1, 496931, Note_off_c, 0, 77, 65
1, 496950, Note_on_c, 0, 76, 77
1, 496972, Note_off_c, 0, 76, 71
1, 497027, Note_on_c, 0, 70, 73
1, 497029, Note_on_c, 0, 67, 67
1, 497031, Control_c, 0, 67, 22
1, 497046, Control_c, 0, 67, 44
1, 497052, Note_off_c, 0, 70, 68
1, 497054, Note_off_c, 0, 67, 66
1, 497061, Control_c, 0, 67, 73
1, 497076, Control_c, 0, 67, 103
1, 497091, Control_c, 0, 67, 127
1, 497105, Control_c, 0, 67, 127
1, 497135, Note_on_c, 0, 64, 57
1, 497143, Note_on_c, 0, 62, 57
1, 497163, Note_off_c, 0, 62, 59
1, 497166, Note_off_c, 0, 64, 66
1, 497209, Note_on_c, 0, 62, 68
1, 497254, Note_off_c, 0, 62, 58
1, 497285, Note_on_c, 0, 52, 65
1, 497293, Note_on_c, 0, 55, 60
1, 497323, Note_off_c, 0, 55, 65
1, 497334, Note_off_c, 0, 52, 59
1, 497373, Note_on_c, 0, 74, 70
1, 497411, Note_off_c, 0, 74, 66
1, 497463, Note_on_c, 0, 73, 79
1, 497485, Note_off_c, 0, 73, 71
1, 497542, Note_on_c, 0, 64, 60
1, 497548, Note_on_c, 0, 67, 52
1, 497570, Note_off_c, 0, 64, 65
1, 497572, Note_off_c, 0, 67, 62
1, 497636, Note_on_c, 0, 61, 79
1, 497686, Note_off_c, 0, 61, 63
1, 497745, Note_on_c, 0, 60, 70
1, 497778, Note_off_c, 0, 60, 62
1, 497832, Note_on_c, 0, 53, 58
1, 497839, Note_on_c, 0, 50, 46
1, 497873, Note_off_c, 0, 53, 61
1, 497896, Note_off_c, 0, 50, 57
1, 497941, Note_on_c, 0, 72, 79
1, 497977, Note_off_c, 0, 72, 66
1, 498040, Note_on_c, 0, 70, 69
1, 498068, Note_off_c, 0, 70, 67
1, 498143, Note_on_c, 0, 62, 51
1, 498161, Note_on_c, 0, 65, 40
1, 498174, Note_off_c, 0, 62, 59
1, 498191, Note_off_c, 0, 65, 50
1, 498256, Note_on_c, 0, 58, 65
1, 498286, Note_off_c, 0, 58, 67
1, 498358, Note_on_c, 0, 58, 80
1, 498385, Note_off_c, 0, 58, 67
1, 498474, Note_on_c, 0, 58, 56
1, 498497, Note_off_c, 0, 58, 59
1, 498559, Note_on_c, 0, 58, 70
1, 498586, Note_off_c, 0, 58, 68
1, 498653, Note_on_c, 0, 58, 75
1, 498677, Note_off_c, 0, 58, 70
1, 498744, Note_on_c, 0, 58, 73
1, 498773, Note_off_c, 0, 58, 67
1, 498853, Note_on_c, 0, 58, 68
1, 498880, Note_off_c, 0, 58, 67
1, 498938, Note_on_c, 0, 58, 81
1, 498967, Note_off_c, 0, 58, 64
1, 499042, Note_on_c, 0, 58, 68
1, 499069, Note_off_c, 0, 58, 66
1, 499127, Note_on_c, 0, 58, 76
1, 499153, Note_off_c, 0, 58, 65
1, 499220, Note_on_c, 0, 58, 80
1, 499247, Note_off_c, 0, 58, 66
1, 499322, Control_c, 0, 67, 121
1, 499323, Note_on_c, 0, 58, 75
1, 499337, Control_c, 0, 67, 109
1, 499347, Note_off_c, 0, 58, 69
1, 499352, Control_c, 0, 67, 96
1, 499367, Control_c, 0, 67, 83
1, 499382, Control_c, 0, 67, 69
1, 499396, Control_c, 0, 67, 54
1, 499411, Control_c, 0, 67, 37
1, 499414, Note_on_c, 0, 58, 76
1, 499426, Control_c, 0, 67, 9
1, 499439, Note_off_c, 0, 58, 69
1, 499441, Control_c, 0, 67, 0
1, 499489, Note_on_c, 0, 49, 87
1, 499536, Note_off_c, 0, 49, 64
1, 499547, Note_on_c, 0, 58, 74
1, 499549, Note_on_c, 0, 61, 75
1, 499574, Note_off_c, 0, 58, 69
1, 499575, Note_off_c, 0, 61, 66
1, 499632, Note_on_c, 0, 58, 76
1, 499665, Note_off_c, 0, 58, 67
1, 499718, Note_on_c, 0, 58, 58
1, 499722, Note_on_c, 0, 61, 42
1, 499744, Note_off_c, 0, 58, 64
1, 499752, Note_off_c, 0, 61, 55
1, 499766, Note_on_c, 0, 47, 89
1, 499820, Note_off_c, 0, 47, 62
1, 499852, Note_on_c, 0, 61, 66
1, 499859, Note_on_c, 0, 56, 65
1, 499881, Note_off_c, 0, 61, 65
1, 499886, Note_off_c, 0, 56, 0
1, 499893, Poly_aftertouch_c, 0, 56, 0
1, 499904, Note_on_c, 0, 56, 64
1, 499932, Note_off_c, 0, 56, 66
1, 499995, Note_on_c, 0, 61, 68
1, 500002, Note_on_c, 0, 56, 63
1, 500022, Note_off_c, 0, 61, 66
1, 500027, Control_c, 0, 64, 15
1, 500030, Note_off_c, 0, 56, 66
1, 500035, Note_on_c, 0, 44, 86
1, 500042, Control_c, 0, 64, 94
1, 500056, Control_c, 0, 64, 127
1, 500097, Note_off_c, 0, 44, 61
1, 500120, Note_on_c, 0, 61, 64
1, 500145, Note_on_c, 0, 53, 47
1, 500157, Note_off_c, 0, 61, 63
1, 500168, Note_off_c, 0, 53, 0
1, 500189, Note_on_c, 0, 53, 46
1, 500231, Note_off_c, 0, 53, 63
1, 500249, Control_c, 0, 64, 103
1, 500264, Control_c, 0, 64, 80
1, 500276, Note_on_c, 0, 61, 68
1, 500279, Control_c, 0, 64, 59
1, 500280, Note_on_c, 0, 53, 42
1, 500294, Control_c, 0, 64, 0
1, 500300, Note_off_c, 0, 61, 67
1, 500309, Note_off_c, 0, 53, 58
1, 500330, Note_on_c, 0, 46, 68
1, 500366, Note_off_c, 0, 46, 65
1, 500408, Note_on_c, 0, 61, 65
1, 500428, Note_on_c, 0, 54, 62
1, 500440, Note_off_c, 0, 61, 64
1, 500458, Note_off_c, 0, 54, 65
1, 500468, Note_on_c, 0, 47, 70
1, 500499, Note_off_c, 0, 47, 64
1, 500553, Note_on_c, 0, 61, 69
1, 500556, Note_on_c, 0, 56, 65
1, 500581, Note_off_c, 0, 61, 66
1, 500582, Note_off_c, 0, 56, 67
1, 500595, Note_on_c, 0, 51, 92
1, 500644, Note_off_c, 0, 51, 62
1, 500678, Note_on_c, 0, 61, 72
1, 500693, Note_on_c, 0, 59, 62
1, 500705, Note_off_c, 0, 61, 66
1, 500717, Note_off_c, 0, 59, 0
1, 500735, Note_on_c, 0, 59, 58
1, 500767, Note_off_c, 0, 59, 66
1, 500821, Note_on_c, 0, 61, 60
1, 500822, Note_on_c, 0, 59, 63
1, 500842, Note_off_c, 0, 59, 62
1, 500846, Note_off_c, 0, 61, 64
1, 500872, Note_on_c, 0, 49, 78
1, 500921, Note_on_c, 0, 51, 19
1, 500922, Note_off_c, 0, 51, 127
1, 500927, Note_off_c, 0, 49, 62
1, 500955, Note_on_c, 0, 61, 62
1, 500967, Note_on_c, 0, 58, 50
1, 500977, Note_off_c, 0, 61, 62
1, 500988, Note_off_c, 0, 58, 42
1, 501010, Note_on_c, 0, 58, 61
1, 501043, Note_off_c, 0, 58, 65
1, 501078, Note_on_c, 0, 61, 73
1, 501090, Note_on_c, 0, 58, 55
1, 501104, Note_off_c, 0, 61, 68
1, 501112, Note_off_c, 0, 58, 62
1, 501131, Control_c, 0, 64, 63
1, 501153, Control_c, 0, 64, 76
1, 501159, Note_on_c, 0, 46, 86
1, 501168, Control_c, 0, 64, 102
1, 501184, Control_c, 0, 64, 127
1, 501212, Note_on_c, 0, 61, 75
1, 501218, Note_off_c, 0, 46, 62
1, 501233, Note_on_c, 0, 54, 54
1, 501248, Note_off_c, 0, 61, 63
1, 501260, Note_off_c, 0, 54, 56
1, 501306, Note_on_c, 0, 54, 66
1, 501333, Note_off_c, 0, 54, 66
1, 501370, Note_on_c, 0, 61, 77
1, 501376, Control_c, 0, 64, 99
1, 501391, Control_c, 0, 64, 85
1, 501392, Note_off_c, 0, 61, 68
1, 501400, Note_on_c, 0, 54, 40
1, 501406, Control_c, 0, 64, 72
1, 501420, Control_c, 0, 64, 53
1, 501424, Note_off_c, 0, 54, 59
1, 501433, Note_on_c, 0, 49, 88
1, 501435, Control_c, 0, 64, 0
1, 501485, Note_off_c, 0, 49, 61
1, 501505, Note_on_c, 0, 58, 73
1, 501531, Note_off_c, 0, 58, 69
1, 501561, Note_on_c, 0, 54, 79
1, 501595, Note_off_c, 0, 54, 64
1, 501617, Note_on_c, 0, 61, 78
1, 501640, Note_off_c, 0, 61, 68
1, 501685, Note_on_c, 0, 54, 94
1, 501738, Note_off_c, 0, 54, 63
1, 501754, Note_on_c, 0, 63, 82
1, 501754, Note_on_c, 0, 66, 86
1, 501769, Note_off_c, 0, 63, 70
1, 501770, Note_off_c, 0, 66, 71
1, 501823, Note_on_c, 0, 63, 78
1, 501858, Note_off_c, 0, 63, 61
1, 501901, Note_on_c, 0, 63, 84
1, 501905, Note_on_c, 0, 66, 75
1, 501923, Note_off_c, 0, 66, 67
1, 501926, Note_off_c, 0, 63, 66
1, 501960, Note_on_c, 0, 52, 88
1, 502011, Note_off_c, 0, 52, 63
1, 502044, Note_on_c, 0, 61, 77
1, 502048, Note_on_c, 0, 66, 71
1, 502069, Note_off_c, 0, 61, 69
1, 502076, Note_off_c, 0, 66, 67
1, 502108, Note_on_c, 0, 61, 73
1, 502133, Note_off_c, 0, 61, 68
1, 502173, Note_on_c, 0, 66, 82
1, 502177, Note_on_c, 0, 61, 85
1, 502198, Note_off_c, 0, 61, 70
1, 502198, Note_off_c, 0, 66, 68
1, 502228, Note_on_c, 0, 49, 91
1, 502244, Control_c, 0, 64, 111
1, 502259, Control_c, 0, 64, 127
1, 502283, Note_off_c, 0, 49, 62
1, 502304, Note_on_c, 0, 66, 85
1, 502336, Note_off_c, 0, 66, 61
1, 502365, Note_on_c, 0, 58, 61
1, 502404, Note_off_c, 0, 58, 65
1, 502452, Note_on_c, 0, 66, 76
1, 502453, Note_on_c, 0, 58, 67
1, 502466, Control_c, 0, 64, 109
1, 502476, Note_off_c, 0, 66, 70
1, 502481, Control_c, 0, 64, 88
1, 502482, Note_off_c, 0, 58, 66
1, 502495, Control_c, 0, 64, 71
1, 502510, Control_c, 0, 64, 0
1, 502514, Note_on_c, 0, 51, 67
1, 502548, Note_off_c, 0, 51, 65
1, 502583, Note_on_c, 0, 66, 72
1, 502592, Note_on_c, 0, 59, 61
1, 502610, Note_off_c, 0, 66, 67
1, 502618, Note_off_c, 0, 59, 64
1, 502631, Note_on_c, 0, 52, 80
1, 502667, Note_off_c, 0, 52, 66
1, 502721, Note_on_c, 0, 66, 64
1, 502722, Note_on_c, 0, 61, 74
1, 502746, Note_off_c, 0, 61, 67
1, 502747, Note_off_c, 0, 66, 67
1, 502763, Note_on_c, 0, 56, 97
1, 502809, Note_off_c, 0, 56, 63
1, 502851, Note_on_c, 0, 66, 78
1, 502874, Note_on_c, 0, 64, 45
1, 502875, Note_off_c, 0, 66, 68
1, 502906, Note_off_c, 0, 64, 0
1, 502906, Note_on_c, 0, 64, 53
1, 502943, Note_off_c, 0, 64, 67
1, 502982, Note_on_c, 0, 66, 76
1, 502996, Note_on_c, 0, 64, 55
1, 503007, Note_off_c, 0, 66, 66
1, 503018, Note_off_c, 0, 64, 60
1, 503039, Note_on_c, 0, 54, 87
1, 503097, Note_off_c, 0, 54, 62
1, 503111, Note_on_c, 0, 66, 69
1, 503113, Note_on_c, 0, 63, 74
1, 503129, Note_off_c, 0, 63, 67
1, 503131, Note_off_c, 0, 66, 67
1, 503170, Note_on_c, 0, 63, 85
1, 503196, Note_off_c, 0, 63, 65
1, 503239, Note_on_c, 0, 66, 77
1, 503243, Note_on_c, 0, 63, 63
1, 503262, Note_off_c, 0, 63, 65
1, 503266, Note_off_c, 0, 66, 68
1, 503300, Note_on_c, 0, 51, 84
1, 503304, Control_c, 0, 64, 72
1, 503318, Control_c, 0, 64, 120
1, 503333, Control_c, 0, 64, 127
1, 503352, Note_off_c, 0, 51, 62
1, 503370, Note_on_c, 0, 66, 85
1, 503378, Note_on_c, 0, 59, 70
1, 503401, Note_off_c, 0, 66, 69
1, 503413, Note_off_c, 0, 59, 67
1, 503450, Note_on_c, 0, 59, 77
1, 503476, Note_off_c, 0, 59, 65
1, 503518, Control_c, 0, 64, 108
1, 503519, Note_on_c, 0, 59, 63
1, 503520, Note_on_c, 0, 66, 75
1, 503533, Control_c, 0, 64, 93
1, 503544, Note_off_c, 0, 66, 70
1, 503546, Note_off_c, 0, 59, 70
1, 503548, Control_c, 0, 64, 82
1, 503563, Control_c, 0, 64, 71
1, 503579, Control_c, 0, 64, 59
1, 503579, Note_on_c, 0, 54, 82
1, 503594, Control_c, 0, 64, 0
1, 503616, Note_off_c, 0, 54, 58
1, 503642, Note_on_c, 0, 63, 79
1, 503674, Note_off_c, 0, 63, 59
1, 503704, Note_on_c, 0, 59, 81
1, 503741, Note_off_c, 0, 59, 62
1, 503770, Note_on_c, 0, 66, 75
1, 503790, Note_off_c, 0, 66, 62
1, 503800, Control_c, 0, 64, 67
1, 503815, Control_c, 0, 64, 92
1, 503828, Note_on_c, 0, 54, 94
1, 503830, Control_c, 0, 64, 127
1, 503871, Note_off_c, 0, 54, 58
1, 503889, Note_on_c, 0, 69, 65
1, 503897, Note_on_c, 0, 63, 69
1, 503898, Note_on_c, 0, 60, 73
1, 503919, Control_c, 0, 64, 98
1, 503924, Note_off_c, 0, 69, 63
1, 503927, Note_off_c, 0, 60, 65
1, 503934, Note_off_c, 0, 63, 61
1, 503934, Control_c, 0, 64, 76
1, 503948, Control_c, 0, 64, 53
1, 503963, Note_on_c, 0, 69, 94
1, 503963, Control_c, 0, 64, 0
1, 503993, Note_off_c, 0, 69, 63
1, 504035, Note_on_c, 0, 63, 69
1, 504039, Note_on_c, 0, 60, 71
1, 504067, Control_c, 0, 64, 72
1, 504081, Note_off_c, 0, 60, 59
1, 504082, Control_c, 0, 64, 127
1, 504095, Note_off_c, 0, 63, 63
1, 504098, Note_on_c, 0, 52, 89
1, 504133, Note_off_c, 0, 52, 61
1, 504172, Note_on_c, 0, 67, 73
1, 504178, Control_c, 0, 64, 121
1, 504193, Control_c, 0, 64, 95
1, 504196, Note_on_c, 0, 59, 46
1, 504204, Note_off_c, 0, 67, 61
1, 504208, Control_c, 0, 64, 80
1, 504221, Note_off_c, 0, 59, 56
1, 504223, Control_c, 0, 64, 65
1, 504229, Note_on_c, 0, 67, 82
1, 504237, Control_c, 0, 64, 0
1, 504239, Note_on_c, 0, 64, 2
1, 504250, Note_off_c, 0, 64, 43
1, 504258, Note_off_c, 0, 67, 65
1, 504306, Note_on_c, 0, 59, 61
1, 504310, Note_on_c, 0, 64, 59
1, 504348, Note_off_c, 0, 64, 66
1, 504350, Note_off_c, 0, 59, 63
1, 504378, Note_on_c, 0, 54, 75
1, 504420, Note_off_c, 0, 54, 59
1, 504443, Note_on_c, 0, 63, 76
1, 504450, Note_on_c, 0, 57, 65
1, 504477, Note_off_c, 0, 63, 61
1, 504482, Note_off_c, 0, 57, 65
1, 504509, Note_on_c, 0, 55, 88
1, 504554, Note_off_c, 0, 55, 63
1, 504571, Note_on_c, 0, 64, 80
1, 504574, Note_on_c, 0, 59, 74
1, 504597, Note_off_c, 0, 64, 66
1, 504598, Note_off_c, 0, 59, 69
1, 504638, Note_on_c, 0, 57, 93
1, 504676, Note_off_c, 0, 57, 64
1, 504703, Note_on_c, 0, 66, 74
1, 504704, Note_on_c, 0, 63, 68
1, 504708, Note_on_c, 0, 60, 69
1, 504732, Note_off_c, 0, 66, 67
1, 504733, Note_off_c, 0, 63, 67
1, 504735, Note_off_c, 0, 60, 65
1, 504761, Note_on_c, 0, 59, 86
1, 504806, Note_off_c, 0, 59, 64
1, 504821, Note_on_c, 0, 67, 81
1, 504825, Note_on_c, 0, 64, 79
1, 504854, Note_off_c, 0, 64, 67
1, 504854, Note_off_c, 0, 67, 61
1, 504861, Control_c, 0, 64, 63
1, 504876, Control_c, 0, 64, 104
1, 504894, Note_on_c, 0, 56, 97
1, 504898, Control_c, 0, 64, 127
1, 504940, Note_off_c, 0, 56, 63
1, 504957, Control_c, 0, 64, 126
1, 504960, Note_on_c, 0, 71, 80
1, 504972, Control_c, 0, 64, 91
1, 504978, Note_on_c, 0, 65, 62
1, 504981, Note_on_c, 0, 62, 59
1, 504985, Note_off_c, 0, 71, 69
1, 504987, Control_c, 0, 64, 70
1, 505002, Note_off_c, 0, 62, 61
1, 505002, Control_c, 0, 64, 0
1, 505014, Note_off_c, 0, 65, 67
1, 505036, Note_on_c, 0, 71, 91
1, 505055, Note_off_c, 0, 71, 64
1, 505102, Note_on_c, 0, 65, 77
1, 505113, Note_on_c, 0, 62, 63
1, 505160, Note_off_c, 0, 65, 64
1, 505165, Note_off_c, 0, 62, 58
1, 505166, Control_c, 0, 64, 91
1, 505172, Note_on_c, 0, 54, 82
1, 505181, Control_c, 0, 64, 127
1, 505220, Note_off_c, 0, 54, 58
1, 505233, Note_on_c, 0, 69, 67
1, 505242, Note_on_c, 0, 66, 68
1, 505245, Note_on_c, 0, 62, 57
1, 505254, Control_c, 0, 64, 111
1, 505263, Note_off_c, 0, 66, 66
1, 505269, Control_c, 0, 64, 86
1, 505278, Note_off_c, 0, 69, 48
1, 505278, Note_off_c, 0, 62, 63
1, 505284, Control_c, 0, 64, 66
1, 505299, Control_c, 0, 64, 0
1, 505305, Note_on_c, 0, 69, 96
1, 505334, Note_off_c, 0, 69, 60
1, 505392, Note_on_c, 0, 62, 76
1, 505404, Note_on_c, 0, 66, 68
1, 505426, Note_off_c, 0, 62, 62
1, 505436, Note_off_c, 0, 66, 68
1, 505454, Note_on_c, 0, 56, 80
1, 505507, Note_off_c, 0, 56, 64
1, 505522, Note_on_c, 0, 65, 75
1, 505528, Note_on_c, 0, 62, 69
1, 505538, Note_on_c, 0, 59, 51
1, 505557, Note_off_c, 0, 62, 65
1, 505561, Note_off_c, 0, 59, 59
1, 505565, Note_off_c, 0, 65, 64
1, 505585, Note_on_c, 0, 57, 88
1, 505630, Note_off_c, 0, 57, 65
1, 505659, Note_on_c, 0, 62, 71
1, 505659, Note_on_c, 0, 66, 81
1, 505686, Note_off_c, 0, 62, 65
1, 505692, Note_off_c, 0, 66, 61
1, 505722, Note_on_c, 0, 59, 96
1, 505765, Note_off_c, 0, 59, 63
1, 505783, Note_on_c, 0, 62, 63
1, 505785, Note_on_c, 0, 68, 81
1, 505797, Note_on_c, 0, 65, 56
1, 505813, Note_off_c, 0, 68, 62
1, 505814, Note_off_c, 0, 62, 64
1, 505820, Note_off_c, 0, 65, 61
1, 505850, Note_on_c, 0, 62, 90
1, 505895, Note_off_c, 0, 62, 62
1, 505910, Note_on_c, 0, 66, 84
1, 505910, Note_on_c, 0, 69, 76
1, 505936, Note_off_c, 0, 69, 68
1, 505957, Note_off_c, 0, 66, 64
1, 505971, Note_on_c, 0, 57, 98
1, 505974, Control_c, 0, 64, 75
1, 505988, Control_c, 0, 64, 127
1, 506008, Note_off_c, 0, 57, 67
1, 506037, Note_on_c, 0, 64, 80
1, 506038, Note_on_c, 0, 73, 75
1, 506039, Note_on_c, 0, 67, 73
1, 506059, Note_off_c, 0, 73, 69
1, 506062, Note_off_c, 0, 64, 67
1, 506067, Note_off_c, 0, 67, 63
1, 506077, Control_c, 0, 64, 105
1, 506092, Control_c, 0, 64, 85
1, 506106, Control_c, 0, 64, 71
1, 506120, Note_on_c, 0, 73, 82
1, 506121, Control_c, 0, 64, 0
1, 506151, Note_off_c, 0, 73, 60
1, 506184, Note_on_c, 0, 67, 72
1, 506194, Note_on_c, 0, 64, 63
1, 506221, Note_off_c, 0, 67, 61
1, 506225, Note_off_c, 0, 64, 66
1, 506260, Note_on_c, 0, 58, 78
1, 506288, Note_off_c, 0, 58, 64
1, 506309, Note_on_c, 0, 72, 74
1, 506327, Note_on_c, 0, 67, 52
1, 506330, Note_on_c, 0, 64, 32
1, 506334, Note_off_c, 0, 72, 67
1, 506357, Note_off_c, 0, 64, 55
1, 506357, Note_off_c, 0, 67, 65
1, 506398, Note_on_c, 0, 72, 88
1, 506424, Note_off_c, 0, 72, 62
1, 506458, Note_on_c, 0, 67, 66
1, 506462, Note_on_c, 0, 64, 57
1, 506500, Note_off_c, 0, 64, 64
1, 506509, Note_off_c, 0, 67, 61
1, 506536, Note_on_c, 0, 59, 79
1, 506578, Note_off_c, 0, 59, 61
1, 506594, Note_on_c, 0, 71, 68
1, 506607, Note_on_c, 0, 64, 53
1, 506611, Note_on_c, 0, 67, 53
1, 506624, Note_off_c, 0, 71, 67
1, 506637, Note_off_c, 0, 64, 64
1, 506640, Note_off_c, 0, 67, 65
1, 506677, Note_on_c, 0, 71, 79
1, 506697, Note_off_c, 0, 71, 64
1, 506757, Note_on_c, 0, 67, 57
1, 506758, Note_on_c, 0, 64, 58
1, 506789, Note_off_c, 0, 64, 66
1, 506795, Note_off_c, 0, 67, 64
1, 506809, Note_on_c, 0, 60, 71
1, 506837, Note_off_c, 0, 60, 66
1, 506876, Note_on_c, 0, 70, 69
1, 506882, Note_on_c, 0, 64, 54
1, 506889, Note_on_c, 0, 67, 45
1, 506905, Note_off_c, 0, 70, 66
1, 506912, Note_off_c, 0, 64, 65
1, 506915, Note_off_c, 0, 67, 60
1, 506946, Note_on_c, 0, 70, 79
1, 506973, Note_off_c, 0, 70, 59
1, 507012, Note_on_c, 0, 67, 63
1, 507018, Note_on_c, 0, 64, 59
1, 507046, Note_off_c, 0, 67, 63
1, 507050, Note_off_c, 0, 64, 66
1, 507085, Note_on_c, 0, 61, 73
1, 507112, Note_off_c, 0, 61, 65
1, 507152, Note_on_c, 0, 69, 72
1, 507165, Note_on_c, 0, 64, 53
1, 507170, Note_on_c, 0, 67, 44
1, 507183, Note_off_c, 0, 69, 63
1, 507187, Note_off_c, 0, 64, 62
1, 507195, Note_off_c, 0, 67, 60
1, 507236, Note_on_c, 0, 69, 70
1, 507254, Note_off_c, 0, 69, 65
1, 507260, Note_on_c, 0, 71, 29
1, 507261, Note_off_c, 0, 71, 127
1, 507291, Note_on_c, 0, 67, 66
1, 507302, Note_on_c, 0, 64, 64
1, 507334, Note_off_c, 0, 64, 67
1, 507346, Note_off_c, 0, 67, 62
1, 507371, Note_on_c, 0, 60, 78
1, 507409, Note_off_c, 0, 60, 57
1, 507435, Note_on_c, 0, 70, 68
1, 507442, Note_on_c, 0, 64, 59
1, 507458, Note_on_c, 0, 67, 35
1, 507460, Note_off_c, 0, 70, 67
1, 507470, Note_off_c, 0, 64, 65
1, 507484, Note_off_c, 0, 67, 51
1, 507503, Note_on_c, 0, 70, 82
1, 507543, Note_off_c, 0, 70, 58
1, 507570, Note_on_c, 0, 67, 68
1, 507579, Note_on_c, 0, 64, 60
1, 507606, Note_off_c, 0, 67, 65
1, 507611, Note_off_c, 0, 64, 66
1, 507639, Note_on_c, 0, 59, 73
1, 507692, Note_off_c, 0, 59, 61
1, 507703, Note_on_c, 0, 71, 68
1, 507710, Note_on_c, 0, 64, 55
1, 507730, Note_on_c, 0, 67, 35
1, 507731, Note_off_c, 0, 71, 67
1, 507740, Note_off_c, 0, 64, 65
1, 507761, Note_off_c, 0, 67, 49
1, 507776, Note_on_c, 0, 71, 80
1, 507809, Note_off_c, 0, 71, 64
1, 507849, Note_on_c, 0, 67, 61
1, 507864, Note_on_c, 0, 64, 48
1, 507894, Note_off_c, 0, 64, 60
1, 507894, Note_off_c, 0, 67, 65
1, 507906, Note_on_c, 0, 58, 78
1, 507938, Control_c, 0, 64, 53
1, 507953, Control_c, 0, 64, 70
1, 507963, Note_off_c, 0, 58, 64
1, 507967, Control_c, 0, 64, 86
1, 507982, Control_c, 0, 64, 127
1, 507983, Note_on_c, 0, 64, 66
1, 507986, Note_on_c, 0, 72, 76
1, 508014, Note_off_c, 0, 64, 66
1, 508016, Note_off_c, 0, 72, 67
1, 508038, Note_on_c, 0, 72, 102
1, 508059, Note_off_c, 0, 72, 63
1, 508114, Note_on_c, 0, 67, 65
1, 508121, Note_on_c, 0, 64, 48
1, 508139, Note_off_c, 0, 64, 62
1, 508140, Note_off_c, 0, 67, 66
1, 508145, Control_c, 0, 64, 104
1, 508160, Control_c, 0, 64, 87
1, 508175, Control_c, 0, 64, 71
1, 508190, Control_c, 0, 64, 26
1, 508198, Note_on_c, 0, 61, 82
1, 508205, Control_c, 0, 64, 0
1, 508218, Note_on_c, 0, 58, 48
1, 508222, Note_off_c, 0, 61, 68
1, 508238, Note_on_c, 0, 70, 76
1, 508248, Note_off_c, 0, 58, 51
1, 508263, Note_off_c, 0, 70, 68
1, 508309, Note_on_c, 0, 85, 83
1, 508321, Note_on_c, 0, 49, 82
1, 508333, Note_off_c, 0, 85, 67
1, 508378, Note_off_c, 0, 49, 58
1, 508379, Note_on_c, 0, 71, 65
1, 508396, Note_off_c, 0, 71, 65
1, 508407, Note_on_c, 0, 72, 46
1, 508438, Note_off_c, 0, 72, 35
1, 508449, Note_on_c, 0, 87, 87
1, 508450, Note_on_c, 0, 56, 82
1, 508456, Note_on_c, 0, 59, 68
1, 508472, Note_off_c, 0, 87, 66
1, 508474, Note_off_c, 0, 56, 69
1, 508479, Note_off_c, 0, 59, 64
1, 508515, Note_on_c, 0, 73, 62
1, 508542, Note_off_c, 0, 73, 67
1, 508577, Note_on_c, 0, 89, 93
1, 508617, Note_on_c, 0, 37, 14
1, 508625, Note_off_c, 0, 89, 65
1, 508653, Note_on_c, 0, 75, 72
1, 508675, Note_off_c, 0, 37, 39
1, 508681, Note_off_c, 0, 75, 66
1, 508702, Control_c, 0, 64, 48
1, 508704, Poly_aftertouch_c, 0, 85, 0
1, 508716, Control_c, 0, 64, 127
1, 508718, Note_on_c, 0, 90, 101
1, 508724, Note_on_c, 0, 56, 85
1, 508768, Note_off_c, 0, 90, 63
1, 508770, Note_off_c, 0, 56, 64
1, 508786, Note_on_c, 0, 77, 76
1, 508812, Note_off_c, 0, 77, 67
1, 508849, Note_on_c, 0, 49, 78
1, 508856, Note_on_c, 0, 92, 89
1, 508900, Note_off_c, 0, 92, 59
1, 508909, Control_c, 0, 64, 103
1, 508916, Note_on_c, 0, 78, 78
1, 508923, Control_c, 0, 64, 77
1, 508926, Note_off_c, 0, 49, 59
1, 508933, Poly_aftertouch_c, 0, 87, 127
1, 508938, Control_c, 0, 64, 20
1, 508944, Note_off_c, 0, 78, 66
1, 508953, Control_c, 0, 64, 0
1, 508956, Poly_aftertouch_c, 0, 87, 0
1, 508986, Note_on_c, 0, 94, 88
1, 508991, Note_on_c, 0, 58, 73
1, 508993, Note_on_c, 0, 54, 69
1, 509013, Note_off_c, 0, 94, 59
1, 509041, Note_off_c, 0, 58, 59
1, 509045, Note_on_c, 0, 80, 70
1, 509064, Note_off_c, 0, 54, 60
1, 509073, Note_off_c, 0, 80, 68
1, 509108, Note_on_c, 0, 95, 83
1, 509117, Note_on_c, 0, 59, 66
1, 509126, Note_on_c, 0, 56, 61
1, 509157, Note_off_c, 0, 95, 63
1, 509172, Note_off_c, 0, 59, 60
1, 509175, Note_on_c, 0, 82, 75
1, 509201, Note_off_c, 0, 56, 61
1, 509204, Note_off_c, 0, 82, 66
1, 509236, Control_c, 0, 64, 79
1, 509247, Note_on_c, 0, 97, 98
1, 509251, Control_c, 0, 64, 127
1, 509254, Note_on_c, 0, 63, 87
1, 509259, Note_on_c, 0, 59, 62
1, 509281, Note_off_c, 0, 63, 61
1, 509284, Note_off_c, 0, 59, 67
1, 509296, Note_off_c, 0, 97, 63
1, 509311, Note_on_c, 0, 83, 70
1, 509333, Note_off_c, 0, 83, 71
1, 509388, Note_on_c, 0, 49, 72
1, 509391, Note_on_c, 0, 99, 81
1, 509413, Note_off_c, 0, 99, 68
1, 509421, Note_on_c, 0, 97, 56
1, 509422, Note_on_c, 0, 92, 60
1, 509447, Note_off_c, 0, 97, 56
1, 509458, Note_on_c, 0, 82, 69
1, 509466, Control_c, 0, 64, 108
1, 509481, Control_c, 0, 64, 96
1, 509483, Note_off_c, 0, 82, 69
1, 509487, Note_off_c, 0, 49, 56
1, 509495, Control_c, 0, 64, 84
1, 509510, Control_c, 0, 64, 74
1, 509511, Note_on_c, 0, 61, 70
1, 509512, Note_on_c, 0, 58, 77
1, 509514, Note_on_c, 0, 97, 96
1, 509521, Note_off_c, 0, 92, 0
1, 509525, Control_c, 0, 64, 58
1, 509530, Note_off_c, 0, 61, 64
1, 509536, Note_on_c, 0, 92, 32
1, 509539, Control_c, 0, 64, 0
1, 509541, Note_off_c, 0, 58, 66
1, 509554, Note_off_c, 0, 97, 66
1, 509563, Note_off_c, 0, 92, 55
1, 509588, Note_on_c, 0, 80, 70
1, 509609, Note_off_c, 0, 80, 68
1, 509651, Note_on_c, 0, 37, 65
1, 509657, Note_on_c, 0, 95, 75
1, 509661, Note_on_c, 0, 96, 62
1, 509681, Note_off_c, 0, 96, 63
1, 509681, Note_off_c, 0, 95, 68
1, 509684, Note_off_c, 0, 37, 63
1, 509722, Note_on_c, 0, 78, 68
1, 509746, Control_c, 0, 64, 59
1, 509747, Note_off_c, 0, 78, 66
1, 509761, Control_c, 0, 64, 76
1, 509776, Control_c, 0, 64, 109
1, 509789, Note_on_c, 0, 94, 90
1, 509791, Note_on_c, 0, 58, 81
1, 509791, Control_c, 0, 64, 127
1, 509797, Note_on_c, 0, 54, 72
1, 509815, Note_off_c, 0, 94, 64
1, 509845, Note_off_c, 0, 54, 55
1, 509845, Note_off_c, 0, 58, 60
1, 509856, Note_on_c, 0, 77, 62
1, 509874, Note_off_c, 0, 77, 63
1, 509894, Note_on_c, 0, 79, 16
1, 509917, Note_on_c, 0, 92, 94
1, 509920, Note_on_c, 0, 49, 73
1, 509934, Note_off_c, 0, 79, 39
1, 509973, Note_off_c, 0, 92, 63
1, 509988, Note_on_c, 0, 78, 75
1, 510011, Note_off_c, 0, 78, 68
1, 510053, Note_on_c, 0, 94, 95
1, 510062, Note_on_c, 0, 58, 72
1, 510067, Note_on_c, 0, 54, 63
1, 510094, Note_off_c, 0, 94, 63
1, 510107, Note_off_c, 0, 49, 36
1, 510118, Note_on_c, 0, 78, 72
1, 510122, Note_off_c, 0, 58, 62
1, 510149, Note_off_c, 0, 78, 67
1, 510183, Note_on_c, 0, 94, 108
1, 510186, Note_on_c, 0, 61, 89
1, 510187, Note_on_c, 0, 58, 75
1, 510214, Note_off_c, 0, 58, 64
1, 510218, Note_off_c, 0, 54, 56
1, 510220, Note_off_c, 0, 94, 64
1, 510229, Note_off_c, 0, 61, 63
1, 510301, Control_c, 0, 64, 115
1, 510316, Control_c, 0, 64, 91
1, 510324, Note_on_c, 0, 63, 82
1, 510326, Note_on_c, 0, 66, 87
1, 510331, Control_c, 0, 64, 76
1, 510346, Control_c, 0, 64, 60
1, 510354, Note_off_c, 0, 66, 64
1, 510360, Control_c, 0, 64, 0
1, 510384, Note_off_c, 0, 63, 61
1, 510401, Note_on_c, 0, 75, 56
1, 510429, Note_off_c, 0, 75, 67
1, 510450, Note_on_c, 0, 54, 65
1, 510464, Note_on_c, 0, 90, 88
1, 510497, Note_off_c, 0, 90, 59
1, 510549, Note_on_c, 0, 76, 33
1, 510554, Note_off_c, 0, 54, 58
1, 510579, Note_on_c, 0, 61, 75
1, 510580, Note_off_c, 0, 76, 48
1, 510584, Note_on_c, 0, 64, 54
1, 510598, Note_on_c, 0, 92, 92
1, 510605, Note_off_c, 0, 64, 60
1, 510607, Note_off_c, 0, 61, 66
1, 510643, Note_off_c, 0, 92, 61
1, 510655, Note_on_c, 0, 78, 81
1, 510679, Note_off_c, 0, 78, 63
1, 510712, Note_on_c, 0, 42, 65
1, 510736, Note_on_c, 0, 94, 81
1, 510740, Note_off_c, 0, 42, 65
1, 510761, Note_off_c, 0, 94, 64
1, 510796, Note_on_c, 0, 80, 67
1, 510823, Note_off_c, 0, 80, 67
1, 510836, Control_c, 0, 64, 81
1, 510850, Control_c, 0, 64, 127
1, 510852, Note_on_c, 0, 61, 88
1, 510852, Note_on_c, 0, 95, 85
1, 510903, Note_on_c, 0, 94, 21
1, 510905, Note_off_c, 0, 95, 62
1, 510911, Note_off_c, 0, 61, 59
1, 510924, Note_on_c, 0, 82, 81
1, 510947, Note_off_c, 0, 94, 31
1, 510965, Note_off_c, 0, 82, 66
1, 510998, Note_on_c, 0, 54, 72
1, 511010, Note_on_c, 0, 97, 93
1, 511036, Control_c, 0, 64, 103
1, 511051, Control_c, 0, 64, 84
1, 511063, Note_off_c, 0, 97, 63
1, 511065, Control_c, 0, 64, 66
1, 511069, Note_on_c, 0, 83, 68
1, 511080, Control_c, 0, 64, 0
1, 511085, Note_off_c, 0, 83, 67
1, 511097, Note_off_c, 0, 54, 48
1, 511139, Note_on_c, 0, 99, 99
1, 511142, Note_on_c, 0, 63, 73
1, 511144, Note_on_c, 0, 59, 58
1, 511178, Note_off_c, 0, 59, 65
1, 511187, Note_off_c, 0, 99, 65
1, 511195, Note_off_c, 0, 63, 60
1, 511201, Note_on_c, 0, 85, 74
1, 511234, Note_off_c, 0, 85, 65
1, 511260, Note_on_c, 0, 100, 93
1, 511266, Note_on_c, 0, 64, 58
1, 511280, Note_on_c, 0, 61, 65
1, 511305, Note_off_c, 0, 64, 60
1, 511311, Note_off_c, 0, 100, 65
1, 511332, Note_on_c, 0, 87, 74
1, 511353, Note_off_c, 0, 61, 59
1, 511359, Note_off_c, 0, 87, 71
1, 511390, Note_on_c, 0, 64, 75
1, 511390, Note_on_c, 0, 68, 85
1, 511392, Control_c, 0, 64, 127
1, 511396, Note_on_c, 0, 102, 106
1, 511419, Note_off_c, 0, 64, 67
1, 511421, Note_off_c, 0, 68, 64
1, 511436, Note_off_c, 0, 102, 65
1, 511463, Note_on_c, 0, 88, 79
1, 511484, Note_off_c, 0, 88, 70
1, 511517, Note_on_c, 0, 54, 68
1, 511529, Note_on_c, 0, 104, 94
1, 511556, Note_off_c, 0, 104, 62
1, 511596, Note_on_c, 0, 87, 81
1, 511621, Note_off_c, 0, 87, 69
1, 511634, Note_off_c, 0, 54, 53
1, 511663, Note_on_c, 0, 66, 73
1, 511663, Note_on_c, 0, 63, 77
1, 511667, Note_on_c, 0, 102, 95
1, 511679, Poly_aftertouch_c, 0, 97, 0
1, 511681, Note_off_c, 0, 66, 67
1, 511699, Note_off_c, 0, 63, 61
1, 511708, Note_off_c, 0, 102, 63
1, 511734, Note_on_c, 0, 85, 78
1, 511756, Note_off_c, 0, 85, 71
1, 511803, Note_on_c, 0, 42, 73
1, 511806, Note_on_c, 0, 100, 78
1, 511830, Note_off_c, 0, 100, 69
1, 511836, Note_off_c, 0, 42, 64
1, 511859, Note_on_c, 0, 83, 84
1, 511887, Note_off_c, 0, 83, 68
1, 511937, Note_on_c, 0, 99, 98
1, 511959, Note_on_c, 0, 63, 77
1, 511977, Note_on_c, 0, 97, 38
1, 511980, Note_off_c, 0, 99, 65
1, 511982, Note_on_c, 0, 59, 31
1, 512006, Note_off_c, 0, 97, 54
1, 512009, Note_on_c, 0, 82, 77
1, 512015, Note_off_c, 0, 59, 45
1, 512020, Note_off_c, 0, 63, 58
1, 512045, Note_off_c, 0, 82, 64
1, 512074, Note_on_c, 0, 54, 72
1, 512074, Note_on_c, 0, 97, 92
1, 512124, Note_off_c, 0, 97, 64
1, 512140, Note_on_c, 0, 83, 83
1, 512176, Note_off_c, 0, 83, 68
1, 512224, Note_on_c, 0, 59, 36
1, 512227, Note_on_c, 0, 63, 74
1, 512228, Note_on_c, 0, 99, 90
1, 512253, Note_off_c, 0, 99, 65
1, 512264, Note_on_c, 0, 97, 41
1, 512267, Note_off_c, 0, 59, 47
1, 512285, Note_on_c, 0, 83, 62
1, 512292, Note_on_c, 0, 84, 56
1, 512292, Note_off_c, 0, 97, 56
1, 512295, Note_off_c, 0, 54, 35
1, 512298, Note_off_c, 0, 63, 59
1, 512305, Note_off_c, 0, 83, 65
1, 512320, Note_off_c, 0, 84, 66
1, 512342, Note_on_c, 0, 99, 104
1, 512363, Control_c, 0, 64, 108
1, 512366, Note_on_c, 0, 63, 66
1, 512369, Note_on_c, 0, 66, 81
1, 512386, Control_c, 0, 64, 76
1, 512391, Note_off_c, 0, 99, 66
1, 512401, Control_c, 0, 64, 0
1, 512402, Note_off_c, 0, 63, 67
1, 512404, Note_off_c, 0, 66, 67
1, 512445, Control_c, 0, 64, 65
1, 512460, Control_c, 0, 64, 83
1, 512475, Control_c, 0, 64, 127
1, 512500, Note_on_c, 0, 81, 111
1, 512503, Note_on_c, 0, 60, 86
1, 512503, Note_on_c, 0, 63, 79
1, 512503, Note_on_c, 0, 72, 101
1, 512504, Note_on_c, 0, 75, 92
1, 512506, Note_on_c, 0, 69, 74
1, 512514, Note_on_c, 0, 74, 77
1, 512523, Note_off_c, 0, 72, 72
1, 512527, Note_off_c, 0, 74, 70
1, 512531, Note_off_c, 0, 69, 69
1, 512536, Note_off_c, 0, 63, 64
1, 512536, Note_off_c, 0, 81, 66
1, 512537, Note_off_c, 0, 60, 60
1, 512537, Note_off_c, 0, 75, 62
1, 512647, Note_on_c, 0, 54, 91
1, 512651, Note_on_c, 0, 93, 106
1, 512653, Note_on_c, 0, 81, 115
1, 512656, Note_on_c, 0, 42, 67
1, 512668, Note_off_c, 0, 54, 70
1, 512679, Note_off_c, 0, 81, 72
1, 512680, Note_off_c, 0, 93, 61
1, 512688, Note_off_c, 0, 42, 64
1, 512794, Note_on_c, 0, 59, 84
1, 512798, Note_on_c, 0, 79, 96
1, 512799, Note_on_c, 0, 71, 94
1, 512802, Note_on_c, 0, 76, 82
1, 512803, Note_on_c, 0, 67, 63
1, 512808, Note_on_c, 0, 64, 52
1, 512816, Note_off_c, 0, 71, 72
1, 512819, Note_off_c, 0, 59, 65
1, 512822, Note_off_c, 0, 67, 63
1, 512822, Note_off_c, 0, 76, 72
1, 512830, Note_off_c, 0, 64, 61
1, 512838, Note_off_c, 0, 79, 63
1, 512936, Note_on_c, 0, 91, 107
1, 512939, Note_on_c, 0, 40, 85
1, 512942, Note_on_c, 0, 79, 104
1, 512944, Note_on_c, 0, 52, 79
1, 512960, Note_off_c, 0, 91, 66
1, 512960, Note_off_c, 0, 79, 68
1, 512962, Note_off_c, 0, 40, 65
1, 512971, Note_off_c, 0, 52, 67
1, 513037, Control_c, 0, 64, 91
1, 513052, Control_c, 0, 64, 67
1, 513067, Control_c, 0, 64, 0
1, 513094, Note_on_c, 0, 75, 86
1, 513095, Note_on_c, 0, 66, 93
1, 513101, Note_on_c, 0, 69, 77
1, 513106, Note_on_c, 0, 63, 65
1, 513111, Control_c, 0, 64, 63
1, 513116, Note_on_c, 0, 60, 51
1, 513118, Note_on_c, 0, 54, 40
1, 513133, Control_c, 0, 64, 76
1, 513147, Note_off_c, 0, 69, 59
1, 513148, Control_c, 0, 64, 96
1, 513150, Note_off_c, 0, 63, 61
1, 513156, Note_off_c, 0, 54, 54
1, 513156, Note_off_c, 0, 66, 63
1, 513158, Note_off_c, 0, 75, 62
1, 513162, Note_off_c, 0, 60, 62
1, 513164, Control_c, 0, 64, 127
1, 513240, Note_on_c, 0, 55, 65
1, 513240, Note_on_c, 0, 76, 86
1, 513240, Note_on_c, 0, 67, 89
1, 513245, Note_on_c, 0, 71, 77
1, 513248, Note_on_c, 0, 64, 67
1, 513256, Note_on_c, 0, 59, 52
1, 513276, Note_off_c, 0, 71, 66
1, 513277, Note_off_c, 0, 55, 63
1, 513282, Note_off_c, 0, 64, 64
1, 513282, Note_off_c, 0, 67, 63
1, 513287, Note_off_c, 0, 59, 64
1, 513292, Note_off_c, 0, 76, 64
1, 513388, Note_on_c, 0, 57, 70
1, 513389, Note_on_c, 0, 78, 88
1, 513390, Note_on_c, 0, 69, 89
1, 513391, Note_on_c, 0, 66, 72
1, 513391, Note_on_c, 0, 72, 100
1, 513392, Note_on_c, 0, 63, 65
1, 513419, Note_off_c, 0, 57, 62
1, 513419, Note_off_c, 0, 72, 63
1, 513420, Note_off_c, 0, 66, 65
1, 513422, Note_off_c, 0, 69, 63
1, 513426, Note_off_c, 0, 63, 64
1, 513442, Note_off_c, 0, 78, 62
1, 513489, Poly_aftertouch_c, 0, 79, 0
1, 513523, Note_on_c, 0, 79, 87
1, 513526, Note_on_c, 0, 71, 92
1, 513526, Note_on_c, 0, 59, 79
1, 513534, Note_on_c, 0, 67, 73
1, 513538, Note_on_c, 0, 76, 68
1, 513539, Note_on_c, 0, 77, 56
1, 513553, Note_off_c, 0, 71, 64
1, 513554, Note_off_c, 0, 76, 68
1, 513559, Note_on_c, 0, 64, 36
1, 513564, Note_off_c, 0, 77, 37
1, 513568, Note_off_c, 0, 67, 63
1, 513572, Note_off_c, 0, 79, 65
1, 513577, Note_off_c, 0, 59, 62
1, 513578, Control_c, 0, 64, 103
1, 513593, Control_c, 0, 64, 79
1, 513594, Note_off_c, 0, 64, 46
1, 513608, Control_c, 0, 64, 0
1, 513652, Control_c, 0, 64, 62
1, 513657, Note_on_c, 0, 77, 93
1, 513658, Note_on_c, 0, 62, 88
1, 513660, Note_on_c, 0, 74, 94
1, 513660, Note_on_c, 0, 71, 83
1, 513660, Note_on_c, 0, 83, 102
1, 513666, Note_on_c, 0, 65, 74
1, 513667, Control_c, 0, 64, 78
1, 513681, Note_off_c, 0, 74, 68
1, 513681, Note_off_c, 0, 71, 72
1, 513682, Control_c, 0, 64, 126
1, 513692, Note_off_c, 0, 65, 69
1, 513694, Note_off_c, 0, 77, 66
1, 513696, Control_c, 0, 64, 127
1, 513705, Note_off_c, 0, 62, 61
1, 513706, Note_off_c, 0, 83, 64
1, 513804, Note_on_c, 0, 95, 100
1, 513809, Note_on_c, 0, 56, 91
1, 513810, Note_on_c, 0, 83, 86
1, 513811, Note_on_c, 0, 81, 100
1, 513822, Note_on_c, 0, 44, 67
1, 513830, Note_off_c, 0, 83, 73
1, 513831, Note_off_c, 0, 56, 69
1, 513832, Note_off_c, 0, 81, 74
1, 513833, Note_off_c, 0, 95, 62
1, 513848, Note_off_c, 0, 44, 60
1, 513958, Note_on_c, 0, 78, 97
1, 513960, Note_on_c, 0, 74, 89
1, 513960, Note_on_c, 0, 81, 100
1, 513962, Note_on_c, 0, 62, 78
1, 513965, Note_on_c, 0, 66, 76
1, 513966, Note_on_c, 0, 69, 67
1, 513979, Note_off_c, 0, 74, 72
1, 513984, Note_off_c, 0, 69, 65
1, 513986, Note_off_c, 0, 62, 67
1, 513988, Note_on_c, 0, 80, 30
1, 513989, Note_off_c, 0, 80, 127
1, 513990, Note_off_c, 0, 66, 68
1, 513994, Note_off_c, 0, 81, 56
1, 513996, Note_off_c, 0, 78, 65
1, 514033, Poly_aftertouch_c, 0, 63, 127
1, 514065, Poly_aftertouch_c, 0, 63, 0
1, 514099, Note_on_c, 0, 93, 99
1, 514101, Note_on_c, 0, 81, 113
1, 514104, Note_on_c, 0, 54, 90
1, 514113, Note_on_c, 0, 42, 67
1, 514124, Note_off_c, 0, 54, 70
1, 514126, Note_off_c, 0, 93, 62
1, 514127, Note_off_c, 0, 81, 71
1, 514139, Note_off_c, 0, 42, 63
1, 514164, Note_on_c, 0, 92, 3
1, 514165, Note_off_c, 0, 92, 127
1, 514194, Control_c, 0, 64, 104
1, 514209, Control_c, 0, 64, 76
1, 514223, Control_c, 0, 64, 0
1, 514262, Note_on_c, 0, 77, 79
1, 514267, Note_on_c, 0, 68, 78
1, 514268, Note_on_c, 0, 56, 67
1, 514269, Note_on_c, 0, 65, 65
1, 514274, Note_on_c, 0, 71, 67
1, 514274, Note_on_c, 0, 62, 58
1, 514283, Control_c, 0, 64, 62
1, 514298, Control_c, 0, 64, 71
1, 514301, Note_off_c, 0, 65, 67
1, 514313, Control_c, 0, 64, 87
1, 514321, Note_off_c, 0, 56, 51
1, 514323, Note_off_c, 0, 62, 51
1, 514324, Note_off_c, 0, 68, 56
1, 514327, Note_off_c, 0, 77, 61
1, 514327, Control_c, 0, 64, 101
1, 514343, Control_c, 0, 64, 109
1, 514358, Control_c, 0, 64, 113
1, 514360, Note_off_c, 0, 71, 60
1, 514372, Control_c, 0, 64, 116
1, 514387, Control_c, 0, 64, 121
1, 514402, Control_c, 0, 64, 127
1, 514411, Note_on_c, 0, 78, 91
1, 514413, Note_on_c, 0, 69, 88
1, 514422, Note_on_c, 0, 57, 71
1, 514422, Note_on_c, 0, 74, 59
1, 514423, Note_on_c, 0, 66, 81
1, 514449, Note_off_c, 0, 74, 67
1, 514452, Note_off_c, 0, 57, 65
1, 514458, Note_off_c, 0, 66, 57
1, 514458, Note_off_c, 0, 69, 63
1, 514465, Note_off_c, 0, 78, 63
1, 514560, Note_on_c, 0, 71, 88
1, 514560, Note_on_c, 0, 74, 89
1, 514560, Note_on_c, 0, 80, 91
1, 514569, Note_on_c, 0, 68, 77
1, 514576, Note_on_c, 0, 65, 60
1, 514586, Note_on_c, 0, 59, 52
1, 514595, Note_off_c, 0, 74, 62
1, 514596, Note_off_c, 0, 71, 63
1, 514599, Note_off_c, 0, 68, 63
1, 514605, Note_off_c, 0, 65, 67
1, 514613, Note_off_c, 0, 80, 63
1, 514618, Note_off_c, 0, 59, 64
1, 514656, Poly_aftertouch_c, 0, 60, 127
1, 514691, Poly_aftertouch_c, 0, 60, 0
1, 514703, Note_on_c, 0, 81, 109
1, 514707, Note_on_c, 0, 74, 90
1, 514707, Note_on_c, 0, 78, 87
1, 514715, Note_on_c, 0, 69, 74
1, 514716, Note_on_c, 0, 62, 70
1, 514724, Note_on_c, 0, 66, 63
1, 514730, Note_off_c, 0, 74, 65
1, 514739, Note_off_c, 0, 69, 67
1, 514745, Note_off_c, 0, 81, 66
1, 514745, Note_off_c, 0, 62, 60
1, 514754, Note_off_c, 0, 78, 63
1, 514766, Control_c, 0, 64, 92
1, 514775, Note_off_c, 0, 66, 61
1, 514781, Control_c, 0, 64, 67
1, 514796, Control_c, 0, 64, 0
1, 514839, Note_on_c, 0, 64, 82
1, 514840, Control_c, 0, 64, 64
1, 514841, Note_on_c, 0, 85, 97
1, 514844, Note_on_c, 0, 73, 77
1, 514844, Note_on_c, 0, 76, 91
1, 514848, Note_on_c, 0, 67, 65
1, 514855, Control_c, 0, 64, 82
1, 514857, Note_on_c, 0, 86, 80
1, 514861, Note_off_c, 0, 76, 73
1, 514866, Note_off_c, 0, 73, 70
1, 514870, Control_c, 0, 64, 127
1, 514875, Note_off_c, 0, 67, 65
1, 514876, Note_off_c, 0, 64, 58
1, 514879, Note_off_c, 0, 86, 57
1, 514882, Note_off_c, 0, 85, 66
1, 514991, Note_on_c, 0, 97, 100
1, 514993, Note_on_c, 0, 85, 105
1, 514996, Note_on_c, 0, 57, 81
1, 515002, Note_on_c, 0, 45, 61
1, 515013, Note_off_c, 0, 97, 67
1, 515019, Note_off_c, 0, 57, 69
1, 515025, Note_off_c, 0, 85, 65
1, 515028, Note_off_c, 0, 45, 57
1, 515032, Control_c, 0, 64, 114
1, 515047, Control_c, 0, 64, 83
1, 515062, Control_c, 0, 64, 56
1, 515076, Control_c, 0, 64, 0
1, 515106, Control_c, 0, 64, 57
1, 515121, Control_c, 0, 64, 75
1, 515131, Note_on_c, 0, 79, 96
1, 515131, Note_on_c, 0, 84, 95
1, 515133, Note_on_c, 0, 64, 87
1, 515133, Note_on_c, 0, 76, 89
1, 515136, Control_c, 0, 64, 97
1, 515151, Control_c, 0, 64, 127
1, 515151, Note_off_c, 0, 76, 72
1, 515162, Note_off_c, 0, 64, 62
1, 515164, Note_off_c, 0, 79, 61
1, 515174, Note_on_c, 0, 72, 16
1, 515176, Note_off_c, 0, 84, 62
1, 515202, Poly_aftertouch_c, 0, 67, 127
1, 515222, Note_off_c, 0, 72, 40
1, 515240, Poly_aftertouch_c, 0, 67, 0
1, 515277, Note_on_c, 0, 96, 100
1, 515280, Note_on_c, 0, 84, 96
1, 515286, Note_on_c, 0, 46, 67
1, 515286, Note_on_c, 0, 58, 76
1, 515312, Note_off_c, 0, 58, 67
1, 515312, Note_off_c, 0, 96, 63
1, 515317, Note_off_c, 0, 46, 64
1, 515317, Note_off_c, 0, 84, 66
1, 515428, Note_on_c, 0, 76, 94
1, 515428, Note_on_c, 0, 79, 98
1, 515429, Note_on_c, 0, 64, 84
1, 515431, Note_on_c, 0, 71, 75
1, 515431, Note_on_c, 0, 83, 90
1, 515439, Note_on_c, 0, 67, 63
1, 515449, Note_off_c, 0, 76, 67
1, 515458, Note_off_c, 0, 67, 64
1, 515458, Note_off_c, 0, 71, 68
1, 515458, Note_off_c, 0, 79, 62
1, 515460, Note_off_c, 0, 64, 58
1, 515471, Note_off_c, 0, 83, 68
1, 515572, Note_on_c, 0, 95, 102
1, 515573, Note_on_c, 0, 47, 84
1, 515574, Note_on_c, 0, 59, 84
1, 515574, Note_on_c, 0, 83, 104
1, 515595, Note_off_c, 0, 59, 70
1, 515598, Note_off_c, 0, 47, 62
1, 515603, Note_off_c, 0, 95, 68
1, 515609, Note_off_c, 0, 83, 69
1, 515709, Note_on_c, 0, 76, 89
1, 515709, Note_on_c, 0, 79, 92
1, 515712, Note_on_c, 0, 82, 86
1, 515717, Note_on_c, 0, 64, 73
1, 515720, Note_on_c, 0, 70, 70
1, 515723, Note_on_c, 0, 67, 65
1, 515729, Note_off_c, 0, 76, 71
1, 515732, Note_off_c, 0, 79, 68
1, 515739, Note_off_c, 0, 70, 66
1, 515741, Note_off_c, 0, 67, 66
1, 515745, Note_off_c, 0, 64, 66
1, 515756, Note_off_c, 0, 82, 66
1, 515840, Control_c, 0, 64, 109
1, 515855, Control_c, 0, 64, 81
1, 515857, Note_on_c, 0, 60, 88
1, 515859, Note_on_c, 0, 48, 78
1, 515863, Note_on_c, 0, 94, 89
1, 515867, Note_on_c, 0, 82, 81
1, 515868, Note_on_c, 0, 80, 89
1, 515870, Control_c, 0, 64, 43
1, 515872, Note_on_c, 0, 92, 70
1, 515877, Note_off_c, 0, 48, 63
1, 515880, Note_off_c, 0, 82, 72
1, 515881, Note_off_c, 0, 94, 72
1, 515882, Note_off_c, 0, 60, 67
1, 515885, Control_c, 0, 64, 0
1, 515888, Note_off_c, 0, 92, 65
1, 515897, Note_off_c, 0, 80, 60
1, 515914, Control_c, 0, 64, 63
1, 515929, Control_c, 0, 64, 75
1, 515943, Control_c, 0, 64, 97
1, 515958, Control_c, 0, 64, 127
1, 515994, Note_on_c, 0, 69, 85
1, 515994, Note_on_c, 0, 64, 80
1, 515995, Note_on_c, 0, 81, 97
1, 515999, Note_on_c, 0, 76, 89
1, 515999, Note_on_c, 0, 79, 87
1, 516018, Note_off_c, 0, 69, 69
1, 516019, Note_on_c, 0, 67, 36
1, 516019, Note_off_c, 0, 76, 70
1, 516035, Note_off_c, 0, 64, 63
1, 516036, Note_off_c, 0, 81, 65
1, 516037, Note_off_c, 0, 79, 60
1, 516051, Note_off_c, 0, 67, 52
1, 516149, Note_on_c, 0, 93, 97
1, 516150, Note_on_c, 0, 81, 103
1, 516152, Note_on_c, 0, 61, 80
1, 516153, Note_on_c, 0, 49, 70
1, 516176, Note_off_c, 0, 61, 69
1, 516181, Note_off_c, 0, 49, 65
1, 516182, Note_off_c, 0, 93, 65
1, 516186, Note_off_c, 0, 81, 67
1, 516282, Note_on_c, 0, 82, 93
1, 516283, Note_on_c, 0, 76, 90
1, 516283, Note_on_c, 0, 79, 90
1, 516292, Note_on_c, 0, 64, 71
1, 516298, Note_on_c, 0, 70, 61
1, 516303, Note_off_c, 0, 76, 70
1, 516306, Note_off_c, 0, 79, 67
1, 516315, Note_off_c, 0, 64, 69
1, 516316, Note_on_c, 0, 66, 25
1, 516318, Note_off_c, 0, 70, 64
1, 516327, Note_off_c, 0, 82, 66
1, 516355, Poly_aftertouch_c, 0, 67, 127
1, 516359, Note_off_c, 0, 66, 55
1, 516396, Poly_aftertouch_c, 0, 67, 0
1, 516397, Control_c, 0, 64, 99
1, 516412, Control_c, 0, 64, 71
1, 516427, Control_c, 0, 64, 0
1, 516432, Note_on_c, 0, 82, 102
1, 516432, Note_on_c, 0, 60, 86
1, 516433, Note_on_c, 0, 94, 93
1, 516444, Note_on_c, 0, 48, 59
1, 516447, Note_on_c, 0, 92, 66
1, 516454, Note_off_c, 0, 60, 70
1, 516456, Control_c, 0, 64, 62
1, 516457, Note_off_c, 0, 94, 66
1, 516462, Note_off_c, 0, 92, 62
1, 516466, Note_off_c, 0, 82, 65
1, 516471, Control_c, 0, 64, 72
1, 516472, Note_off_c, 0, 48, 38
1, 516486, Control_c, 0, 64, 91
1, 516501, Control_c, 0, 64, 127
1, 516530, Poly_aftertouch_c, 0, 50, 0
1, 516569, Note_on_c, 0, 71, 83
1, 516570, Note_on_c, 0, 76, 95
1, 516570, Note_on_c, 0, 79, 95
1, 516572, Note_on_c, 0, 64, 81
1, 516573, Note_on_c, 0, 83, 96
1, 516578, Note_on_c, 0, 67, 69
1, 516589, Note_off_c, 0, 71, 72
1, 516592, Note_off_c, 0, 76, 66
1, 516605, Note_off_c, 0, 67, 66
1, 516608, Note_off_c, 0, 79, 61
1, 516613, Note_off_c, 0, 83, 62
1, 516614, Note_off_c, 0, 64, 61
1, 516715, Note_on_c, 0, 59, 82
1, 516716, Note_on_c, 0, 95, 100
1, 516716, Note_on_c, 0, 83, 102
1, 516721, Note_on_c, 0, 47, 79
1, 516722, Control_c, 0, 64, 117
1, 516736, Note_off_c, 0, 59, 69
1, 516737, Control_c, 0, 64, 89
1, 516739, Note_off_c, 0, 47, 64
1, 516747, Note_off_c, 0, 95, 67
1, 516752, Control_c, 0, 64, 71
1, 516754, Note_off_c, 0, 83, 68
1, 516766, Control_c, 0, 64, 60
1, 516781, Control_c, 0, 64, 64
1, 516796, Control_c, 0, 64, 71
1, 516811, Control_c, 0, 64, 87
1, 516826, Control_c, 0, 64, 111
1, 516841, Control_c, 0, 64, 127
1, 516856, Note_on_c, 0, 76, 90
1, 516857, Note_on_c, 0, 79, 90
1, 516858, Note_on_c, 0, 84, 96
1, 516861, Note_on_c, 0, 64, 78
1, 516863, Note_on_c, 0, 72, 80
1, 516876, Note_on_c, 0, 67, 63
1, 516883, Note_off_c, 0, 76, 70
1, 516888, Note_off_c, 0, 79, 65
1, 516894, Note_off_c, 0, 72, 65
1, 516903, Note_off_c, 0, 67, 65
1, 516905, Note_off_c, 0, 64, 64
1, 516907, Note_off_c, 0, 84, 66
1, 517008, Note_on_c, 0, 96, 100
1, 517012, Note_on_c, 0, 58, 92
1, 517012, Note_on_c, 0, 84, 95
1, 517020, Note_on_c, 0, 46, 70
1, 517038, Note_off_c, 0, 58, 66
1, 517040, Note_off_c, 0, 96, 66
1, 517041, Control_c, 0, 64, 96
1, 517046, Note_off_c, 0, 84, 65
1, 517051, Note_off_c, 0, 46, 65
1, 517055, Control_c, 0, 64, 72
1, 517070, Control_c, 0, 64, 0
1, 517100, Control_c, 0, 64, 41
1, 517115, Control_c, 0, 64, 70
1, 517130, Control_c, 0, 64, 89
1, 517145, Control_c, 0, 64, 127
1, 517151, Note_on_c, 0, 76, 90
1, 517151, Note_on_c, 0, 85, 99
1, 517164, Note_on_c, 0, 79, 65
1, 517169, Note_off_c, 0, 76, 71
1, 517172, Note_on_c, 0, 73, 63
1, 517180, Note_off_c, 0, 79, 65
1, 517184, Note_on_c, 0, 67, 40
1, 517189, Note_on_c, 0, 64, 49
1, 517190, Note_off_c, 0, 73, 64
1, 517201, Note_off_c, 0, 85, 64
1, 517212, Note_off_c, 0, 67, 53
1, 517214, Note_off_c, 0, 64, 55
1, 517306, Note_on_c, 0, 97, 102
1, 517306, Note_on_c, 0, 85, 103
1, 517316, Note_on_c, 0, 57, 85
1, 517336, Note_on_c, 0, 45, 40
1, 517337, Note_off_c, 0, 57, 70
1, 517337, Note_off_c, 0, 97, 68
1, 517339, Note_off_c, 0, 85, 67
1, 517371, Note_off_c, 0, 45, 50
1, 517459, Note_on_c, 0, 85, 98
1, 517464, Note_on_c, 0, 76, 86
1, 517466, Note_on_c, 0, 80, 89
1, 517471, Note_on_c, 0, 64, 72
1, 517473, Note_on_c, 0, 68, 71
1, 517477, Note_on_c, 0, 73, 67
1, 517481, Note_off_c, 0, 76, 74
1, 517496, Note_off_c, 0, 73, 65
1, 517499, Note_off_c, 0, 68, 68
1, 517502, Note_off_c, 0, 64, 63
1, 517505, Note_off_c, 0, 85, 62
1, 517507, Note_off_c, 0, 80, 62
1, 517641, Note_on_c, 0, 97, 106
1, 517642, Note_on_c, 0, 85, 105
1, 517650, Note_on_c, 0, 56, 83
1, 517662, Note_on_c, 0, 44, 62
1, 517672, Note_off_c, 0, 56, 71
1, 517672, Note_off_c, 0, 97, 68
1, 517681, Note_off_c, 0, 85, 64
1, 517687, Note_off_c, 0, 44, 59
1, 517806, Note_on_c, 0, 85, 105
1, 517813, Note_on_c, 0, 76, 77
1, 517823, Note_on_c, 0, 81, 71
1, 517824, Note_on_c, 0, 73, 68
1, 517827, Note_on_c, 0, 64, 69
1, 517827, Note_off_c, 0, 76, 72
1, 517842, Note_off_c, 0, 81, 62
1, 517843, Note_off_c, 0, 73, 66
1, 517846, Note_off_c, 0, 85, 65
1, 517852, Note_off_c, 0, 64, 68
1, 517863, Note_on_c, 0, 69, 11
1, 517912, Note_off_c, 0, 69, 38
1, 517997, Note_on_c, 0, 97, 106
1, 517998, Note_on_c, 0, 85, 107
1, 518003, Note_on_c, 0, 55, 90
1, 518006, Note_on_c, 0, 43, 79
1, 518028, Note_off_c, 0, 55, 67
1, 518030, Note_off_c, 0, 97, 66
1, 518030, Note_off_c, 0, 85, 68
1, 518032, Note_off_c, 0, 43, 65
1, 518204, Note_on_c, 0, 85, 103
1, 518206, Note_on_c, 0, 63, 82
1, 518206, Note_on_c, 0, 76, 94
1, 518208, Note_on_c, 0, 82, 92
1, 518212, Note_on_c, 0, 73, 81
1, 518232, Note_off_c, 0, 73, 71
1, 518233, Note_off_c, 0, 76, 66
1, 518254, Note_off_c, 0, 82, 66
1, 518256, Note_off_c, 0, 85, 64
1, 518259, Note_off_c, 0, 63, 65
1, 518285, Poly_aftertouch_c, 0, 70, 127
1, 518310, Poly_aftertouch_c, 0, 70, 0
1, 518465, Note_on_c, 0, 85, 108
1, 518466, Note_on_c, 0, 97, 106
1, 518467, Note_on_c, 0, 54, 92
1, 518472, Note_on_c, 0, 42, 76
1, 518495, Note_off_c, 0, 97, 70
1, 518498, Note_off_c, 0, 42, 66
1, 518502, Note_off_c, 0, 85, 65
1, 518506, Note_off_c, 0, 54, 61
1, 518687, Control_c, 0, 64, 83
1, 518702, Control_c, 0, 64, 0
1, 518746, Note_on_c, 0, 85, 104
1, 518748, Note_on_c, 0, 76, 95
1, 518750, Note_on_c, 0, 82, 102
1, 518751, Note_on_c, 0, 73, 95
1, 518752, Note_on_c, 0, 64, 82
1, 518757, Note_on_c, 0, 70, 83
1, 518763, Control_c, 0, 64, 64
1, 518771, Note_off_c, 0, 76, 68
1, 518777, Control_c, 0, 64, 97
1, 518789, Note_off_c, 0, 85, 68
1, 518790, Note_off_c, 0, 82, 69
1, 518792, Control_c, 0, 64, 127
1, 518801, Note_off_c, 0, 73, 66
1, 518809, Note_off_c, 0, 70, 63
1, 518817, Note_off_c, 0, 64, 64
1, 519169, Note_on_c, 0, 61, 102
1, 519169, Note_on_c, 0, 67, 84
1, 519169, Note_on_c, 0, 73, 97
1, 519172, Note_on_c, 0, 49, 90
1, 519172, Note_on_c, 0, 52, 93
1, 519172, Note_on_c, 0, 70, 92
1, 519175, Note_on_c, 0, 46, 83
1, 519181, Note_on_c, 0, 40, 75
1, 519205, Note_off_c, 0, 61, 67
1, 519213, Note_off_c, 0, 67, 65
1, 519223, Note_off_c, 0, 73, 65
1, 519231, Note_off_c, 0, 70, 63
1, 519233, Note_off_c, 0, 40, 60
1, 519236, Note_off_c, 0, 52, 55
1, 519252, Note_off_c, 0, 46, 62
1, 519260, Note_off_c, 0, 49, 61
1, 519667, Note_on_c, 0, 73, 105
1, 519667, Note_on_c, 0, 85, 101
1, 519670, Note_on_c, 0, 76, 89
1, 519673, Note_on_c, 0, 82, 85
1, 519673, Note_on_c, 0, 55, 92
1, 519676, Note_on_c, 0, 49, 84
1, 519677, Note_on_c, 0, 52, 86
1, 519680, Note_on_c, 0, 43, 77
1, 519719, Note_off_c, 0, 73, 65
1, 519733, Note_off_c, 0, 76, 62
1, 519744, Note_off_c, 0, 43, 61
1, 519746, Note_off_c, 0, 85, 62
1, 519747, Note_off_c, 0, 55, 54
1, 519759, Note_off_c, 0, 82, 66
1, 519774, Note_off_c, 0, 52, 54
1, 519789, Note_off_c, 0, 49, 56
1, 520381, Note_on_c, 0, 85, 102
1, 520382, Note_on_c, 0, 97, 107
1, 520382, Note_on_c, 0, 58, 103
1, 520383, Note_on_c, 0, 88, 87
1, 520388, Note_on_c, 0, 46, 82
1, 520388, Note_on_c, 0, 91, 94
1, 520388, Note_on_c, 0, 55, 89
1, 520391, Note_on_c, 0, 52, 81
1, 520418, Note_off_c, 0, 85, 69
1, 520430, Note_off_c, 0, 88, 67
1, 520432, Note_on_c, 0, 94, 31
1, 520432, Note_off_c, 0, 58, 60
1, 520434, Note_off_c, 0, 97, 65
1, 520437, Note_off_c, 0, 91, 67
1, 520446, Note_off_c, 0, 46, 62
1, 520460, Note_off_c, 0, 55, 60
1, 520467, Note_off_c, 0, 94, 47
1, 520471, Note_off_c, 0, 52, 59
1, 521290, Control_c, 0, 64, 101
1, 521305, Control_c, 0, 64, 75
1, 521320, Control_c, 0, 64, 0
1, 521601, Note_on_c, 0, 98, 104
1, 521603, Note_on_c, 0, 86, 100
1, 521605, Note_on_c, 0, 90, 101
1, 521609, Note_on_c, 0, 50, 97
1, 521609, Control_c, 0, 64, 72
1, 521614, Note_on_c, 0, 38, 82
1, 521624, Control_c, 0, 64, 127
1, 521638, Note_off_c, 0, 86, 67
1, 521640, Note_off_c, 0, 98, 68
1, 521643, Note_off_c, 0, 38, 66
1, 521661, Note_off_c, 0, 90, 67
1, 521666, Note_off_c, 0, 50, 65
1, 522043, Note_on_c, 0, 62, 95
1, 522047, Note_on_c, 0, 57, 85
1, 522048, Note_on_c, 0, 54, 82
1, 522081, Note_off_c, 0, 62, 65
1, 522090, Note_off_c, 0, 57, 63
1, 522119, Note_off_c, 0, 54, 65
1, 522209, Control_c, 0, 67, 10
1, 522224, Control_c, 0, 67, 15
1, 522239, Control_c, 0, 67, 20
1, 522254, Control_c, 0, 67, 28
1, 522269, Control_c, 0, 67, 35
1, 522284, Control_c, 0, 67, 40
1, 522299, Control_c, 0, 67, 46
1, 522313, Control_c, 0, 67, 49
1, 522328, Control_c, 0, 64, 90
1, 522328, Control_c, 0, 67, 51
1, 522334, Note_on_c, 0, 47, 96
1, 522336, Note_on_c, 0, 35, 90
1, 522343, Control_c, 0, 64, 63
1, 522343, Control_c, 0, 67, 52
1, 522358, Control_c, 0, 64, 0
1, 522358, Control_c, 0, 67, 52
1, 522364, Note_off_c, 0, 35, 68
1, 522367, Note_on_c, 0, 86, 104
1, 522368, Note_on_c, 0, 74, 100
1, 522370, Note_on_c, 0, 78, 99
1, 522373, Control_c, 0, 67, 53
1, 522387, Note_off_c, 0, 47, 65
1, 522388, Control_c, 0, 64, 64
1, 522388, Control_c, 0, 67, 51
1, 522402, Control_c, 0, 64, 90
1, 522402, Control_c, 0, 67, 50
1, 522417, Control_c, 0, 64, 127
1, 522417, Control_c, 0, 67, 47
1, 522432, Control_c, 0, 67, 44
1, 522446, Control_c, 0, 67, 39
1, 522461, Control_c, 0, 67, 32
1, 522476, Control_c, 0, 67, 23
1, 522491, Control_c, 0, 67, 0
1, 522583, Note_on_c, 0, 59, 60
1, 522583, Note_on_c, 0, 62, 89
1, 522592, Note_on_c, 0, 54, 76
1, 522620, Note_off_c, 0, 59, 65
1, 522625, Note_off_c, 0, 62, 63
1, 522649, Note_off_c, 0, 54, 63
1, 522815, Note_on_c, 0, 43, 99
1, 522819, Note_on_c, 0, 31, 94
1, 522846, Note_off_c, 0, 31, 70
1, 522850, Note_off_c, 0, 86, 59
1, 522853, Note_on_c, 0, 32, 36
1, 522853, Note_off_c, 0, 74, 52
1, 522867, Note_off_c, 0, 78, 58
1, 522877, Note_off_c, 0, 43, 65
1, 522902, Note_off_c, 0, 32, 53
1, 523067, Note_on_c, 0, 76, 102
1, 523067, Note_on_c, 0, 79, 101
1, 523067, Note_on_c, 0, 88, 103
1, 523083, Note_on_c, 0, 64, 88
1, 523092, Note_on_c, 0, 55, 78
1, 523092, Note_on_c, 0, 59, 51
1, 523127, Note_off_c, 0, 64, 66
1, 523145, Note_off_c, 0, 55, 60
1, 523158, Note_off_c, 0, 59, 63
1, 523210, Note_off_c, 0, 88, 62
1, 523257, Note_off_c, 0, 79, 58
1, 523349, Note_off_c, 0, 76, 51
1, 523428, Note_on_c, 0, 45, 97
1, 523429, Note_on_c, 0, 33, 92
1, 523432, Control_c, 0, 64, 102
1, 523447, Control_c, 0, 64, 70
1, 523456, Note_on_c, 0, 86, 99
1, 523457, Note_on_c, 0, 74, 97
1, 523461, Note_on_c, 0, 78, 94
1, 523461, Control_c, 0, 64, 0
1, 523476, Note_off_c, 0, 33, 60
1, 523482, Note_on_c, 0, 34, 6
1, 523491, Note_off_c, 0, 45, 62
1, 523506, Control_c, 0, 64, 67
1, 523521, Control_c, 0, 64, 86
1, 523535, Note_off_c, 0, 34, 26
1, 523537, Control_c, 0, 64, 127
1, 523574, Note_off_c, 0, 78, 62
1, 523589, Note_off_c, 0, 86, 55
1, 523640, Note_off_c, 0, 74, 61
1, 523776, Note_on_c, 0, 76, 85
1, 523776, Note_on_c, 0, 85, 93
1, 523777, Note_on_c, 0, 73, 98
1, 523780, Note_on_c, 0, 57, 83
1, 523786, Note_on_c, 0, 45, 76
1, 523815, Note_off_c, 0, 45, 64
1, 523829, Note_off_c, 0, 57, 62
1, 523843, Note_off_c, 0, 73, 61
1, 523869, Note_off_c, 0, 85, 61
1, 523890, Note_off_c, 0, 76, 59
1, 523992, Note_on_c, 0, 85, 87
1, 523995, Note_on_c, 0, 73, 94
1, 523996, Note_on_c, 0, 76, 76
1, 523997, Note_on_c, 0, 67, 85
1, 523998, Note_on_c, 0, 57, 80
1, 523998, Note_on_c, 0, 64, 74
1, 524024, Note_off_c, 0, 76, 67
1, 524037, Note_off_c, 0, 85, 65
1, 524041, Note_off_c, 0, 73, 64
1, 524043, Note_off_c, 0, 64, 56
1, 524056, Note_off_c, 0, 67, 59
1, 524084, Note_off_c, 0, 57, 59
1, 524108, Control_c, 0, 64, 88
1, 524123, Control_c, 0, 64, 60
1, 524138, Control_c, 0, 64, 0
1, 524162, Note_on_c, 0, 67, 79
1, 524165, Note_on_c, 0, 83, 86
1, 524165, Note_on_c, 0, 57, 73
1, 524165, Note_on_c, 0, 64, 71
1, 524166, Note_on_c, 0, 71, 82
1, 524174, Note_on_c, 0, 74, 62
1, 524182, Control_c, 0, 64, 63
1, 524188, Note_off_c, 0, 67, 68
1, 524188, Note_off_c, 0, 71, 71
1, 524192, Note_off_c, 0, 64, 68
1, 524197, Control_c, 0, 64, 81
1, 524198, Note_off_c, 0, 74, 66
1, 524205, Note_off_c, 0, 57, 53
1, 524207, Note_off_c, 0, 83, 64
1, 524211, Control_c, 0, 64, 116
1, 524226, Control_c, 0, 64, 127
1, 524251, Note_on_c, 0, 57, 65
1, 524254, Note_on_c, 0, 67, 85
1, 524255, Note_on_c, 0, 64, 80
1, 524285, Note_off_c, 0, 67, 64
1, 524301, Note_off_c, 0, 64, 60
1, 524305, Note_off_c, 0, 57, 61
1, 524334, Note_on_c, 0, 76, 49
1, 524340, Note_on_c, 0, 73, 99
1, 524341, Note_on_c, 0, 85, 93
1, 524366, Note_on_c, 0, 57, 55
1, 524371, Note_on_c, 0, 64, 62
1, 524374, Note_on_c, 0, 67, 72
1, 524379, Note_off_c, 0, 76, 66
1, 524405, Note_off_c, 0, 85, 66
1, 524406, Note_off_c, 0, 67, 52
1, 524413, Note_off_c, 0, 73, 65
1, 524418, Note_off_c, 0, 64, 54
1, 524427, Note_off_c, 0, 57, 51
1, 524567, Note_on_c, 0, 67, 83
1, 524570, Note_on_c, 0, 69, 93
1, 524571, Note_on_c, 0, 81, 103
1, 524572, Note_on_c, 0, 64, 68
1, 524576, Note_on_c, 0, 57, 73
1, 524577, Note_on_c, 0, 73, 89
1, 524587, Note_off_c, 0, 67, 71
1, 524597, Note_off_c, 0, 64, 67
1, 524603, Note_off_c, 0, 69, 64
1, 524626, Note_off_c, 0, 73, 66
1, 524627, Note_off_c, 0, 57, 64
1, 524630, Note_off_c, 0, 81, 65
1, 524782, Control_c, 0, 64, 93
1, 524797, Control_c, 0, 64, 47
1, 524812, Control_c, 0, 64, 0
1, 524831, Note_on_c, 0, 74, 99
1, 524832, Note_on_c, 0, 50, 95
1, 524832, Note_on_c, 0, 86, 99
1, 524833, Note_on_c, 0, 78, 100
1, 524835, Note_on_c, 0, 38, 86
1, 524856, Control_c, 0, 64, 69
1, 524866, Note_off_c, 0, 38, 68
1, 524869, Note_off_c, 0, 74, 66
1, 524871, Control_c, 0, 64, 99
1, 524886, Control_c, 0, 64, 127
1, 524888, Note_off_c, 0, 50, 65
1, 524892, Note_off_c, 0, 86, 65
1, 524915, Note_off_c, 0, 78, 64
1, 525151, Note_on_c, 0, 66, 94
1, 525154, Note_on_c, 0, 57, 79
1, 525159, Note_on_c, 0, 62, 72
1, 525175, Note_off_c, 0, 66, 68
1, 525183, Note_off_c, 0, 62, 65
1, 525208, Note_off_c, 0, 57, 65
1, 525397, Control_c, 0, 64, 97
1, 525412, Control_c, 0, 64, 67
1, 525427, Control_c, 0, 64, 0
1, 525429, Note_on_c, 0, 47, 91
1, 525432, Note_on_c, 0, 35, 84
1, 525433, Note_on_c, 0, 74, 108
1, 525433, Note_on_c, 0, 86, 102
1, 525436, Note_on_c, 0, 78, 100
1, 525457, Control_c, 0, 64, 39
1, 525460, Note_off_c, 0, 35, 67
1, 525471, Control_c, 0, 64, 74
1, 525475, Note_off_c, 0, 47, 64
1, 525486, Control_c, 0, 64, 112
1, 525501, Control_c, 0, 64, 127
1, 525643, Note_on_c, 0, 66, 100
1, 525649, Note_on_c, 0, 62, 57
1, 525654, Note_on_c, 0, 54, 76
1, 525666, Note_off_c, 0, 66, 67
1, 525678, Note_off_c, 0, 62, 64
1, 525709, Note_off_c, 0, 54, 64
1, 525729, Note_off_c, 0, 74, 51
1, 525775, Note_off_c, 0, 78, 58
1, 525789, Note_off_c, 0, 86, 55
1, 525842, Note_on_c, 0, 44, 102
1, 525846, Note_on_c, 0, 32, 96
1, 525878, Note_off_c, 0, 32, 70
1, 525896, Note_off_c, 0, 44, 64
1, 526094, Note_on_c, 0, 90, 102
1, 526095, Note_on_c, 0, 78, 103
1, 526096, Note_on_c, 0, 81, 102
1, 526100, Note_on_c, 0, 66, 95
1, 526108, Note_on_c, 0, 62, 68
1, 526113, Note_on_c, 0, 59, 77
1, 526130, Note_off_c, 0, 66, 65
1, 526136, Note_off_c, 0, 62, 65
1, 526173, Note_off_c, 0, 59, 61
1, 526257, Note_off_c, 0, 78, 52
1, 526314, Note_off_c, 0, 90, 39
1, 526330, Note_off_c, 0, 81, 46
1, 526412, Control_c, 0, 64, 119
1, 526427, Control_c, 0, 64, 77
1, 526442, Control_c, 0, 64, 0
1, 526458, Note_on_c, 0, 78, 104
1, 526458, Note_on_c, 0, 81, 97
1, 526460, Note_on_c, 0, 49, 92
1, 526461, Note_on_c, 0, 37, 82
1, 526461, Note_on_c, 0, 90, 108
1, 526486, Control_c, 0, 64, 56
1, 526490, Note_off_c, 0, 37, 68
1, 526501, Control_c, 0, 64, 81
1, 526508, Note_off_c, 0, 49, 58
1, 526516, Control_c, 0, 64, 127
1, 526567, Note_off_c, 0, 81, 64
1, 526648, Note_off_c, 0, 78, 60
1, 526654, Note_off_c, 0, 90, 63
1, 526773, Note_on_c, 0, 89, 99
1, 526775, Note_on_c, 0, 77, 95
1, 526776, Note_on_c, 0, 61, 84
1, 526777, Note_on_c, 0, 80, 94
1, 526784, Note_on_c, 0, 49, 68
1, 526812, Note_off_c, 0, 49, 64
1, 526825, Note_off_c, 0, 61, 59
1, 526863, Note_off_c, 0, 77, 61
1, 526878, Note_off_c, 0, 80, 63
1, 526884, Note_off_c, 0, 89, 61
1, 526963, Note_on_c, 0, 77, 84
1, 526963, Note_on_c, 0, 89, 90
1, 526972, Note_on_c, 0, 80, 82
1, 526973, Note_on_c, 0, 71, 75
1, 526975, Note_on_c, 0, 68, 74
1, 526976, Note_on_c, 0, 61, 68
1, 526983, Note_off_c, 0, 77, 67
1, 526984, Poly_aftertouch_c, 0, 86, 127
1, 526994, Note_off_c, 0, 89, 61
1, 527002, Note_off_c, 0, 71, 66
1, 527008, Note_off_c, 0, 80, 64
1, 527009, Note_off_c, 0, 68, 59
1, 527016, Note_off_c, 0, 61, 50
1, 527027, Poly_aftertouch_c, 0, 86, 0
1, 527086, Control_c, 0, 64, 110
1, 527101, Control_c, 0, 64, 85
1, 527116, Control_c, 0, 64, 67
1, 527129, Note_on_c, 0, 68, 74
1, 527130, Note_on_c, 0, 71, 74
1, 527131, Control_c, 0, 64, 58
1, 527133, Note_on_c, 0, 61, 71
1, 527146, Control_c, 0, 64, 66
1, 527154, Note_on_c, 0, 87, 87
1, 527156, Note_off_c, 0, 71, 68
1, 527158, Note_on_c, 0, 75, 75
1, 527160, Control_c, 0, 64, 74
1, 527162, Note_off_c, 0, 68, 62
1, 527168, Note_on_c, 0, 78, 69
1, 527175, Control_c, 0, 64, 93
1, 527178, Note_off_c, 0, 75, 71
1, 527178, Note_off_c, 0, 87, 64
1, 527190, Control_c, 0, 64, 127
1, 527194, Note_off_c, 0, 78, 67
1, 527199, Note_off_c, 0, 61, 0
1, 527219, Note_on_c, 0, 71, 81
1, 527221, Note_on_c, 0, 68, 76
1, 527236, Poly_aftertouch_c, 0, 61, 127
1, 527241, Note_on_c, 0, 61, 5
1, 527252, Note_off_c, 0, 68, 61
1, 527252, Note_off_c, 0, 71, 65
1, 527289, Note_off_c, 0, 61, 0
1, 527297, Note_on_c, 0, 77, 100
1, 527297, Note_on_c, 0, 89, 98
1, 527301, Note_on_c, 0, 80, 96
1, 527308, Note_on_c, 0, 61, 58
1, 527312, Note_on_c, 0, 71, 82
1, 527316, Note_on_c, 0, 68, 76
1, 527317, Note_off_c, 0, 77, 69
1, 527322, Note_off_c, 0, 89, 64
1, 527328, Note_off_c, 0, 80, 62
1, 527361, Note_off_c, 0, 68, 60
1, 527373, Note_off_c, 0, 71, 61
1, 527413, Note_off_c, 0, 61, 38
1, 527450, Note_on_c, 0, 78, 54
1, 527471, Note_off_c, 0, 78, 62
1, 527503, Note_on_c, 0, 68, 77
1, 527503, Note_on_c, 0, 71, 76
1, 527504, Note_on_c, 0, 78, 82
1, 527509, Note_on_c, 0, 85, 93
1, 527513, Note_on_c, 0, 61, 75
1, 527522, Note_off_c, 0, 71, 73
1, 527530, Note_off_c, 0, 68, 69
1, 527539, Note_off_c, 0, 78, 60
1, 527564, Note_off_c, 0, 61, 64
1, 527570, Note_off_c, 0, 85, 63
1, 527584, Poly_aftertouch_c, 0, 74, 127
1, 527585, Poly_aftertouch_c, 0, 75, 127
1, 527613, Poly_aftertouch_c, 0, 75, 0
1, 527621, Poly_aftertouch_c, 0, 74, 0
1, 527717, Control_c, 0, 64, 97
1, 527731, Control_c, 0, 64, 70
1, 527744, Note_on_c, 0, 81, 83
1, 527746, Control_c, 0, 64, 0
1, 527747, Note_on_c, 0, 90, 107
1, 527748, Note_on_c, 0, 78, 106
1, 527759, Note_on_c, 0, 54, 100
1, 527764, Note_on_c, 0, 42, 87
1, 527790, Control_c, 0, 64, 69
1, 527793, Note_off_c, 0, 42, 67
1, 527799, Note_off_c, 0, 78, 63
1, 527805, Note_off_c, 0, 90, 65
1, 527805, Control_c, 0, 64, 90
1, 527811, Note_off_c, 0, 81, 65
1, 527813, Note_off_c, 0, 54, 64
1, 527821, Control_c, 0, 64, 127
1, 528027, Note_on_c, 0, 69, 90
1, 528037, Note_on_c, 0, 61, 79
1, 528037, Note_on_c, 0, 66, 88
1, 528047, Note_off_c, 0, 69, 71
1, 528058, Note_off_c, 0, 66, 72
1, 528085, Note_off_c, 0, 61, 64
1, 528117, Poly_aftertouch_c, 0, 63, 127
1, 528150, Poly_aftertouch_c, 0, 63, 0
1, 528228, Control_c, 0, 64, 91
1, 528243, Control_c, 0, 64, 64
1, 528258, Control_c, 0, 64, 0
1, 528264, Note_on_c, 0, 90, 105
1, 528264, Note_on_c, 0, 78, 103
1, 528269, Note_on_c, 0, 81, 95
1, 528276, Note_on_c, 0, 52, 89
1, 528281, Note_on_c, 0, 40, 81
1, 528287, Control_c, 0, 64, 54
1, 528302, Control_c, 0, 64, 75
1, 528312, Note_off_c, 0, 40, 64
1, 528317, Control_c, 0, 64, 111
1, 528329, Note_off_c, 0, 52, 60
1, 528333, Control_c, 0, 64, 127
1, 528469, Note_on_c, 0, 61, 85
1, 528478, Note_on_c, 0, 66, 81
1, 528490, Note_on_c, 0, 57, 60
1, 528496, Note_off_c, 0, 81, 61
1, 528502, Note_off_c, 0, 66, 68
1, 528508, Note_on_c, 0, 58, 41
1, 528518, Note_off_c, 0, 61, 61
1, 528523, Note_off_c, 0, 57, 64
1, 528538, Note_off_c, 0, 58, 55
1, 528538, Note_off_c, 0, 78, 55
1, 528577, Note_off_c, 0, 90, 57
1, 528651, Note_on_c, 0, 51, 102
1, 528654, Note_on_c, 0, 39, 93
1, 528681, Note_off_c, 0, 39, 68
1, 528697, Note_off_c, 0, 51, 62
1, 528884, Note_on_c, 0, 93, 102
1, 528886, Note_on_c, 0, 81, 106
1, 528887, Note_on_c, 0, 84, 97
1, 528893, Note_on_c, 0, 60, 65
1, 528895, Note_on_c, 0, 66, 92
1, 528898, Note_on_c, 0, 57, 77
1, 528918, Note_off_c, 0, 66, 69
1, 528939, Note_off_c, 0, 60, 60
1, 528943, Note_off_c, 0, 81, 60
1, 528955, Note_off_c, 0, 93, 58
1, 528957, Note_off_c, 0, 57, 62
1, 528961, Note_off_c, 0, 84, 62
1, 529275, Control_c, 0, 64, 100
1, 529277, Note_on_c, 0, 93, 97
1, 529279, Note_on_c, 0, 81, 95
1, 529286, Note_on_c, 0, 84, 86
1, 529290, Control_c, 0, 64, 73
1, 529292, Note_on_c, 0, 51, 58
1, 529294, Note_on_c, 0, 54, 58
1, 529296, Note_on_c, 0, 42, 58
1, 529304, Control_c, 0, 64, 0
1, 529363, Control_c, 0, 64, 63
1, 529378, Control_c, 0, 64, 78
1, 529393, Control_c, 0, 64, 107
1, 529408, Control_c, 0, 64, 127
1, 529454, Note_off_c, 0, 93, 57
1, 529455, Note_off_c, 0, 84, 61
1, 529472, Note_off_c, 0, 81, 59
1, 529496, Note_off_c, 0, 42, 34
1, 529507, Note_off_c, 0, 51, 43
1, 529520, Note_off_c, 0, 54, 36
1, 529586, Control_c, 0, 64, 99
1, 529594, Note_on_c, 0, 51, 68
1, 529596, Note_on_c, 0, 91, 82
1, 529599, Note_on_c, 0, 43, 59
1, 529608, Note_on_c, 0, 82, 72
1, 529608, Control_c, 0, 64, 75
1, 529609, Note_on_c, 0, 79, 71
1, 529614, Note_on_c, 0, 55, 55
1, 529623, Control_c, 0, 64, 0
1, 529624, Note_off_c, 0, 91, 72
1, 529626, Note_off_c, 0, 79, 66
1, 529631, Note_off_c, 0, 82, 69
1, 529637, Note_off_c, 0, 51, 64
1, 529638, Note_off_c, 0, 55, 57
1, 529650, Note_off_c, 0, 43, 57
1, 529668, Control_c, 0, 64, 64
1, 529678, Note_on_c, 0, 91, 86
1, 529679, Note_on_c, 0, 82, 79
1, 529681, Note_on_c, 0, 79, 75
1, 529682, Control_c, 0, 64, 79
1, 529697, Control_c, 0, 64, 105
1, 529699, Poly_aftertouch_c, 0, 43, 0
1, 529707, Note_on_c, 0, 51, 57
1, 529709, Note_off_c, 0, 79, 65
1, 529712, Control_c, 0, 64, 127
1, 529720, Note_off_c, 0, 91, 64
1, 529724, Note_on_c, 0, 55, 44
1, 529724, Note_off_c, 0, 82, 66
1, 529732, Note_off_c, 0, 51, 63
1, 529754, Note_off_c, 0, 55, 54
1, 529895, Note_on_c, 0, 87, 81
1, 529900, Note_on_c, 0, 82, 70
1, 529905, Note_on_c, 0, 75, 60
1, 529906, Note_on_c, 0, 58, 58
1, 529906, Note_on_c, 0, 63, 66
1, 529909, Note_on_c, 0, 55, 47
1, 529916, Note_off_c, 0, 87, 72
1, 529924, Note_off_c, 0, 75, 64
1, 529925, Note_off_c, 0, 82, 69
1, 529933, Note_off_c, 0, 63, 66
1, 529947, Note_off_c, 0, 58, 61
1, 529964, Note_off_c, 0, 55, 0
1, 529977, Note_on_c, 0, 82, 81
1, 529979, Note_on_c, 0, 87, 86
1, 529981, Note_on_c, 0, 63, 83
1, 529981, Note_on_c, 0, 75, 84
1, 530001, Poly_aftertouch_c, 0, 55, 127
1, 530001, Note_on_c, 0, 58, 64
1, 530005, Note_off_c, 0, 75, 66
1, 530014, Note_off_c, 0, 87, 59
1, 530020, Note_off_c, 0, 82, 65
1, 530031, Note_off_c, 0, 63, 62
1, 530032, Note_off_c, 0, 58, 64
1, 530040, Poly_aftertouch_c, 0, 55, 0
1, 530076, Note_on_c, 0, 82, 77
1, 530079, Note_on_c, 0, 87, 88
1, 530088, Note_on_c, 0, 63, 65
1, 530088, Note_on_c, 0, 75, 77
1, 530107, Poly_aftertouch_c, 0, 55, 127
1, 530109, Note_on_c, 0, 58, 52
1, 530110, Note_off_c, 0, 75, 68
1, 530119, Note_off_c, 0, 82, 63
1, 530131, Note_off_c, 0, 87, 65
1, 530142, Note_off_c, 0, 63, 55
1, 530146, Note_off_c, 0, 58, 58
1, 530154, Poly_aftertouch_c, 0, 55, 0
1, 530247, Note_on_c, 0, 91, 96
1, 530249, Note_on_c, 0, 79, 92
1, 530250, Note_on_c, 0, 63, 73
1, 530252, Note_on_c, 0, 82, 84
1, 530254, Note_on_c, 0, 58, 65
1, 530254, Note_on_c, 0, 67, 67
1, 530269, Note_off_c, 0, 79, 71
1, 530276, Note_off_c, 0, 63, 68
1, 530280, Note_off_c, 0, 67, 66
1, 530283, Note_off_c, 0, 82, 59
1, 530300, Note_off_c, 0, 91, 66
1, 530308, Note_off_c, 0, 58, 63
1, 530505, Control_c, 0, 64, 91
1, 530507, Note_on_c, 0, 85, 91
1, 530508, Note_on_c, 0, 94, 94
1, 530508, Note_on_c, 0, 82, 90
1, 530520, Control_c, 0, 64, 70
1, 530522, Note_on_c, 0, 52, 62
1, 530523, Note_on_c, 0, 43, 69
1, 530526, Note_on_c, 0, 55, 72
1, 530535, Control_c, 0, 64, 0
1, 530565, Control_c, 0, 64, 41
1, 530580, Control_c, 0, 64, 68
1, 530595, Control_c, 0, 64, 82
1, 530599, Note_off_c, 0, 43, 56
1, 530610, Control_c, 0, 64, 114
1, 530615, Note_off_c, 0, 55, 61
1, 530624, Control_c, 0, 64, 127
1, 530645, Note_off_c, 0, 94, 63
1, 530657, Note_off_c, 0, 82, 64
1, 530669, Note_off_c, 0, 85, 64
1, 530675, Note_off_c, 0, 52, 32
1, 530747, Note_on_c, 0, 92, 75
1, 530747, Note_on_c, 0, 52, 55
1, 530747, Note_on_c, 0, 80, 74
1, 530748, Note_on_c, 0, 83, 74
1, 530751, Note_on_c, 0, 56, 72
1, 530764, Note_on_c, 0, 44, 57
1, 530770, Note_off_c, 0, 92, 68
1, 530771, Note_off_c, 0, 80, 68
1, 530771, Note_off_c, 0, 83, 71
1, 530777, Note_off_c, 0, 56, 67
1, 530791, Note_off_c, 0, 52, 60
1, 530806, Note_off_c, 0, 44, 0
1, 530816, Note_on_c, 0, 80, 89
1, 530816, Note_on_c, 0, 92, 94
1, 530817, Note_on_c, 0, 83, 89
1, 530830, Note_on_c, 0, 56, 75
1, 530845, Poly_aftertouch_c, 0, 44, 127
1, 530847, Note_on_c, 0, 52, 39
1, 530857, Note_off_c, 0, 83, 67
1, 530866, Poly_aftertouch_c, 0, 44, 0
1, 530866, Note_off_c, 0, 92, 64
1, 530870, Note_off_c, 0, 80, 63
1, 530872, Note_off_c, 0, 56, 65
1, 530875, Note_off_c, 0, 52, 51
1, 531003, Note_on_c, 0, 88, 85
1, 531012, Note_on_c, 0, 56, 70
1, 531013, Note_on_c, 0, 64, 71
1, 531015, Note_on_c, 0, 83, 70
1, 531015, Note_on_c, 0, 76, 61
1, 531024, Note_off_c, 0, 88, 70
1, 531032, Note_off_c, 0, 83, 69
1, 531033, Note_off_c, 0, 76, 64
1, 531042, Note_off_c, 0, 64, 67
1, 531064, Note_off_c, 0, 56, 0
1, 531089, Note_on_c, 0, 83, 85
1, 531089, Note_on_c, 0, 88, 89
1, 531092, Note_on_c, 0, 64, 83
1, 531092, Note_on_c, 0, 76, 82
1, 531109, Poly_aftertouch_c, 0, 56, 127
1, 531113, Note_on_c, 0, 59, 64
1, 531122, Note_off_c, 0, 76, 71
1, 531123, Note_off_c, 0, 83, 69
1, 531128, Note_off_c, 0, 88, 64
1, 531143, Note_off_c, 0, 64, 62
1, 531145, Note_off_c, 0, 59, 63
1, 531176, Note_on_c, 0, 88, 91
1, 531184, Note_on_c, 0, 76, 90
1, 531187, Note_on_c, 0, 83, 82
1, 531194, Note_on_c, 0, 64, 66
1, 531221, Note_off_c, 0, 76, 60
1, 531232, Note_off_c, 0, 88, 65
1, 531238, Note_off_c, 0, 64, 53
1, 531241, Note_off_c, 0, 83, 59
1, 531252, Poly_aftertouch_c, 0, 56, 0
1, 531330, Note_on_c, 0, 92, 90
1, 531331, Note_on_c, 0, 83, 93
1, 531332, Note_on_c, 0, 80, 93
1, 531334, Note_on_c, 0, 68, 86
1, 531341, Note_on_c, 0, 59, 66
1, 531343, Note_on_c, 0, 64, 51
1, 531358, Note_off_c, 0, 68, 69
1, 531360, Note_off_c, 0, 64, 66
1, 531378, Note_off_c, 0, 80, 64
1, 531382, Note_off_c, 0, 83, 66
1, 531389, Note_off_c, 0, 59, 65
1, 531402, Note_off_c, 0, 92, 64
1, 531596, Control_c, 0, 64, 120
1, 531611, Note_on_c, 0, 83, 102
1, 531611, Control_c, 0, 64, 86
1, 531612, Note_on_c, 0, 86, 101
1, 531614, Note_on_c, 0, 95, 104
1, 531619, Note_on_c, 0, 53, 70
1, 531621, Note_on_c, 0, 44, 71
1, 531621, Note_on_c, 0, 56, 77
1, 531626, Control_c, 0, 64, 63
1, 531641, Control_c, 0, 64, 0
1, 531685, Control_c, 0, 64, 63
1, 531700, Control_c, 0, 64, 77
1, 531715, Control_c, 0, 64, 111
1, 531730, Control_c, 0, 64, 127
1, 531772, Note_off_c, 0, 95, 62
1, 531781, Note_off_c, 0, 86, 62
1, 531782, Note_off_c, 0, 44, 36
1, 531788, Note_off_c, 0, 83, 64
1, 531791, Note_off_c, 0, 56, 51
1, 531879, Note_off_c, 0, 53, 0
1, 531889, Note_on_c, 0, 53, 50
1, 531897, Note_on_c, 0, 57, 70
1, 531898, Note_on_c, 0, 93, 85
1, 531899, Note_on_c, 0, 45, 68
1, 531899, Note_on_c, 0, 81, 83
1, 531900, Note_on_c, 0, 84, 80
1, 531917, Note_off_c, 0, 93, 72
1, 531921, Note_off_c, 0, 84, 70
1, 531922, Note_off_c, 0, 81, 71
1, 531927, Note_off_c, 0, 57, 64
1, 531937, Note_off_c, 0, 45, 59
1, 531968, Note_on_c, 0, 84, 96
1, 531969, Note_on_c, 0, 81, 106
1, 531970, Note_off_c, 0, 53, 0
1, 531972, Note_on_c, 0, 93, 98
1, 531978, Note_on_c, 0, 57, 81
1, 531982, Note_on_c, 0, 53, 43
1, 531992, Note_on_c, 0, 45, 61
1, 532005, Note_off_c, 0, 84, 67
1, 532005, Note_off_c, 0, 93, 68
1, 532006, Note_off_c, 0, 81, 66
1, 532011, Note_off_c, 0, 45, 62
1, 532015, Note_off_c, 0, 53, 58
1, 532025, Note_off_c, 0, 57, 64
1, 532154, Note_on_c, 0, 89, 95
1, 532159, Note_on_c, 0, 77, 81
1, 532164, Note_on_c, 0, 65, 68
1, 532166, Note_on_c, 0, 53, 60
1, 532177, Note_off_c, 0, 89, 69
1, 532180, Note_off_c, 0, 77, 69
1, 532183, Note_off_c, 0, 65, 65
1, 532198, Note_off_c, 0, 53, 62
1, 532240, Note_on_c, 0, 77, 84
1, 532243, Note_on_c, 0, 89, 96
1, 532246, Note_on_c, 0, 65, 74
1, 532254, Note_on_c, 0, 53, 69
1, 532267, Note_off_c, 0, 89, 65
1, 532269, Note_off_c, 0, 77, 65
1, 532273, Note_off_c, 0, 65, 67
1, 532288, Note_off_c, 0, 53, 62
1, 532327, Note_on_c, 0, 65, 85
1, 532327, Note_on_c, 0, 53, 68
1, 532327, Note_on_c, 0, 77, 94
1, 532327, Note_on_c, 0, 89, 103
1, 532351, Note_off_c, 0, 77, 65
1, 532354, Note_off_c, 0, 65, 58
1, 532359, Note_off_c, 0, 53, 61
1, 532362, Note_off_c, 0, 89, 65
1, 532498, Note_on_c, 0, 81, 111
1, 532498, Note_on_c, 0, 93, 99
1, 532505, Note_on_c, 0, 57, 80
1, 532505, Note_on_c, 0, 69, 75
1, 532532, Note_off_c, 0, 69, 67
1, 532560, Note_off_c, 0, 57, 61
1, 532613, Note_on_c, 0, 92, 16
1, 532644, Note_off_c, 0, 92, 0
1, 532667, Poly_aftertouch_c, 0, 92, 0
1, 532681, Note_off_c, 0, 81, 51
1, 532744, Note_off_c, 0, 93, 59
1, 532812, Control_c, 0, 64, 85
1, 532818, Note_on_c, 0, 86, 101
1, 532819, Note_on_c, 0, 83, 113
1, 532820, Note_on_c, 0, 95, 102
1, 532821, Note_on_c, 0, 56, 95
1, 532822, Note_on_c, 0, 44, 84
1, 532822, Note_on_c, 0, 53, 83
1, 532826, Control_c, 0, 64, 0
1, 532886, Control_c, 0, 64, 66
1, 532900, Control_c, 0, 64, 102
1, 532915, Control_c, 0, 64, 127
1, 533030, Note_off_c, 0, 44, 37
1, 533036, Note_off_c, 0, 56, 52
1, 533044, Note_off_c, 0, 53, 34
1, 533060, Note_off_c, 0, 95, 51
1, 533099, Note_off_c, 0, 83, 58
1, 533099, Note_off_c, 0, 86, 59
1, 533242, Note_on_c, 0, 84, 91
1, 533242, Note_on_c, 0, 93, 91
1, 533243, Note_on_c, 0, 57, 80
1, 533244, Note_on_c, 0, 81, 91
1, 533248, Note_on_c, 0, 53, 76
1, 533248, Note_on_c, 0, 45, 73
1, 533260, Note_off_c, 0, 84, 72
1, 533260, Note_off_c, 0, 93, 72
1, 533263, Note_off_c, 0, 81, 74
1, 533269, Note_off_c, 0, 57, 67
1, 533277, Note_off_c, 0, 53, 64
1, 533283, Note_off_c, 0, 45, 60
1, 533319, Note_on_c, 0, 81, 116
1, 533320, Note_on_c, 0, 84, 103
1, 533320, Note_on_c, 0, 93, 106
1, 533323, Note_on_c, 0, 57, 90
1, 533327, Note_on_c, 0, 45, 91
1, 533328, Note_on_c, 0, 53, 79
1, 533351, Note_off_c, 0, 84, 65
1, 533354, Note_off_c, 0, 81, 73
1, 533358, Note_off_c, 0, 93, 65
1, 533376, Note_off_c, 0, 53, 61
1, 533385, Note_off_c, 0, 45, 61
1, 533403, Note_off_c, 0, 57, 62
1, 533742, Note_on_c, 0, 89, 91
1, 533745, Note_on_c, 0, 65, 76
1, 533750, Note_on_c, 0, 77, 79
1, 533752, Note_on_c, 0, 53, 63
1, 533753, Control_c, 0, 64, 90
1, 533765, Note_off_c, 0, 89, 70
1, 533768, Control_c, 0, 64, 61
1, 533773, Note_off_c, 0, 77, 69
1, 533774, Note_off_c, 0, 65, 68
1, 533777, Note_off_c, 0, 53, 63
1, 533782, Control_c, 0, 64, 0
1, 533827, Control_c, 0, 64, 65
1, 533831, Note_on_c, 0, 77, 85
1, 533832, Note_on_c, 0, 89, 90
1, 533841, Note_on_c, 0, 65, 80
1, 533842, Control_c, 0, 64, 82
1, 533845, Note_on_c, 0, 53, 70
1, 533849, Note_off_c, 0, 77, 71
1, 533851, Note_off_c, 0, 89, 72
1, 533856, Control_c, 0, 64, 127
1, 533864, Note_off_c, 0, 65, 70
1, 533876, Note_off_c, 0, 53, 62
1, 533903, Note_on_c, 0, 77, 101
1, 533906, Note_on_c, 0, 89, 91
1, 533908, Note_on_c, 0, 65, 89
1, 533910, Note_on_c, 0, 91, 85
1, 533933, Note_off_c, 0, 91, 69
1, 533936, Note_off_c, 0, 77, 66
1, 533946, Note_off_c, 0, 89, 66
1, 533953, Poly_aftertouch_c, 0, 53, 0
1, 533963, Note_off_c, 0, 65, 65
1, 534184, Note_on_c, 0, 81, 106
1, 534184, Note_on_c, 0, 93, 105
1, 534188, Note_on_c, 0, 69, 78
1, 534193, Note_on_c, 0, 57, 77
1, 534210, Note_off_c, 0, 69, 70
1, 534211, Note_off_c, 0, 81, 72
1, 534214, Note_off_c, 0, 93, 67
1, 534243, Note_off_c, 0, 57, 64
1, 534467, Note_on_c, 0, 72, 91
1, 534467, Note_on_c, 0, 84, 89
1, 534473, Note_on_c, 0, 60, 74
1, 534476, Note_on_c, 0, 48, 66
1, 534497, Note_off_c, 0, 72, 64
1, 534514, Note_off_c, 0, 48, 61
1, 534517, Note_off_c, 0, 84, 62
1, 534532, Note_off_c, 0, 60, 54
1, 534675, Note_on_c, 0, 89, 87
1, 534681, Note_on_c, 0, 65, 70
1, 534681, Note_on_c, 0, 77, 84
1, 534681, Note_on_c, 0, 53, 68
1, 534703, Note_off_c, 0, 77, 69
1, 534703, Note_off_c, 0, 89, 62
1, 534708, Note_off_c, 0, 65, 69
1, 534722, Note_off_c, 0, 53, 60
1, 534862, Note_on_c, 0, 85, 88
1, 534866, Note_on_c, 0, 61, 72
1, 534868, Note_on_c, 0, 73, 78
1, 534869, Note_on_c, 0, 49, 63
1, 534890, Note_off_c, 0, 73, 68
1, 534894, Note_off_c, 0, 61, 66
1, 534899, Note_off_c, 0, 49, 64
1, 534905, Note_off_c, 0, 85, 57
1, 535006, Note_on_c, 0, 89, 89
1, 535009, Note_on_c, 0, 65, 77
1, 535009, Note_on_c, 0, 53, 75
1, 535011, Note_on_c, 0, 77, 89
1, 535034, Note_off_c, 0, 53, 64
1, 535035, Note_off_c, 0, 65, 69
1, 535037, Note_off_c, 0, 77, 65
1, 535040, Note_off_c, 0, 89, 62
1, 535140, Note_on_c, 0, 57, 78
1, 535143, Note_on_c, 0, 45, 74
1, 535143, Note_on_c, 0, 69, 90
1, 535144, Note_on_c, 0, 81, 96
1, 535166, Note_off_c, 0, 57, 67
1, 535175, Note_off_c, 0, 45, 63
1, 535176, Note_off_c, 0, 81, 65
1, 535178, Note_off_c, 0, 69, 64
1, 535260, Note_on_c, 0, 61, 78
1, 535261, Note_on_c, 0, 49, 82
1, 535268, Note_on_c, 0, 85, 99
1, 535272, Note_on_c, 0, 73, 96
1, 535283, Note_off_c, 0, 61, 70
1, 535303, Note_off_c, 0, 49, 58
1, 535304, Note_off_c, 0, 85, 61
1, 535306, Note_off_c, 0, 73, 61
1, 535394, Note_on_c, 0, 53, 79
1, 535399, Note_on_c, 0, 77, 92
1, 535402, Note_on_c, 0, 65, 88
1, 535403, Note_on_c, 0, 41, 62
1, 535418, Note_off_c, 0, 53, 65
1, 535424, Note_off_c, 0, 65, 69
1, 535425, Note_off_c, 0, 77, 59
1, 535433, Note_off_c, 0, 41, 55
1, 535508, Note_on_c, 0, 57, 74
1, 535511, Note_on_c, 0, 45, 75
1, 535519, Note_on_c, 0, 81, 104
1, 535522, Note_on_c, 0, 69, 96
1, 535536, Note_off_c, 0, 57, 65
1, 535539, Note_off_c, 0, 45, 66
1, 535552, Note_off_c, 0, 81, 67
1, 535553, Note_off_c, 0, 69, 64
1, 535657, Note_on_c, 0, 78, 99
1, 535662, Note_on_c, 0, 54, 68
1, 535662, Note_on_c, 0, 66, 95
1, 535663, Note_on_c, 0, 42, 69
1, 535683, Note_off_c, 0, 66, 69
1, 535690, Note_off_c, 0, 42, 65
1, 535692, Note_off_c, 0, 54, 64
1, 535698, Note_off_c, 0, 78, 62
1, 535781, Note_on_c, 0, 81, 100
1, 535783, Note_on_c, 0, 57, 74
1, 535784, Note_on_c, 0, 69, 90
1, 535799, Note_off_c, 0, 81, 73
1, 535801, Note_on_c, 0, 45, 49
1, 535803, Note_off_c, 0, 69, 69
1, 535808, Note_off_c, 0, 57, 68
1, 535828, Note_off_c, 0, 45, 56
1, 535912, Note_on_c, 0, 49, 83
1, 535916, Note_on_c, 0, 73, 96
1, 535917, Note_on_c, 0, 37, 75
1, 535917, Note_on_c, 0, 61, 97
1, 535934, Note_off_c, 0, 49, 69
1, 535939, Note_off_c, 0, 61, 65
1, 535946, Note_off_c, 0, 37, 64
1, 535954, Note_off_c, 0, 73, 58
1, 536041, Note_on_c, 0, 78, 98
1, 536044, Note_on_c, 0, 42, 84
1, 536044, Note_on_c, 0, 66, 104
1, 536051, Note_on_c, 0, 54, 63
1, 536068, Note_off_c, 0, 42, 66
1, 536068, Note_off_c, 0, 54, 67
1, 536071, Note_off_c, 0, 66, 65
1, 536075, Note_off_c, 0, 78, 65
1, 536180, Note_on_c, 0, 45, 88
1, 536181, Note_on_c, 0, 57, 97
1, 536181, Note_on_c, 0, 69, 99
1, 536185, Note_on_c, 0, 33, 75
1, 536205, Note_off_c, 0, 45, 67
1, 536211, Note_off_c, 0, 33, 65
1, 536216, Note_off_c, 0, 57, 69
1, 536216, Note_off_c, 0, 69, 67
1, 536327, Note_on_c, 0, 73, 104
1, 536330, Note_on_c, 0, 49, 84
1, 536330, Note_on_c, 0, 61, 104
1, 536331, Note_on_c, 0, 37, 88
1, 536363, Note_off_c, 0, 49, 66
1, 536372, Note_off_c, 0, 73, 64
1, 536372, Note_off_c, 0, 61, 63
1, 536373, Note_off_c, 0, 37, 54
1, 536502, Note_on_c, 0, 42, 89
1, 536502, Note_on_c, 0, 54, 100
1, 536502, Note_on_c, 0, 66, 103
1, 536505, Note_on_c, 0, 30, 84
1, 536539, Note_off_c, 0, 54, 64
1, 536544, Note_off_c, 0, 66, 64
1, 536553, Note_off_c, 0, 30, 59
1, 536556, Note_off_c, 0, 42, 61
1, 536688, Note_on_c, 0, 69, 98
1, 536689, Note_on_c, 0, 57, 97
1, 536693, Note_on_c, 0, 45, 90
1, 536697, Note_on_c, 0, 33, 78
1, 536714, Note_off_c, 0, 69, 63
1, 536720, Note_off_c, 0, 57, 64
1, 536724, Note_off_c, 0, 45, 63
1, 536741, Note_off_c, 0, 33, 59
1, 536907, Note_on_c, 0, 61, 100
1, 536908, Note_on_c, 0, 49, 100
1, 536910, Note_on_c, 0, 37, 90
1, 536911, Note_on_c, 0, 25, 85
1, 536947, Note_off_c, 0, 25, 65
1, 536947, Note_off_c, 0, 49, 64
1, 536956, Note_off_c, 0, 61, 58
1, 536962, Note_off_c, 0, 37, 58
1, 537204, Note_on_c, 0, 54, 99
1, 537204, Note_on_c, 0, 66, 109
1, 537206, Note_on_c, 0, 42, 97
1, 537210, Note_on_c, 0, 30, 84
1, 537282, Note_off_c, 0, 54, 58
1, 537294, Note_off_c, 0, 66, 57
1, 537298, Note_off_c, 0, 42, 59
1, 537305, Note_off_c, 0, 30, 61
1, 537570, Note_on_c, 0, 33, 94
1, 537599, Note_on_c, 0, 57, 108
1, 537599, Note_on_c, 0, 61, 96
1, 537600, Note_on_c, 0, 69, 101
1, 537601, Note_on_c, 0, 66, 94
1, 537602, Control_c, 0, 64, 107
1, 537616, Control_c, 0, 64, 76
1, 537627, Note_on_c, 0, 34, 30
1, 537631, Control_c, 0, 64, 0
1, 537665, Note_off_c, 0, 34, 42
1, 537735, Control_c, 0, 64, 52
1, 537749, Control_c, 0, 64, 75
1, 537764, Control_c, 0, 64, 96
1, 537779, Control_c, 0, 64, 127
1, 537791, Note_off_c, 0, 33, 60
1, 537814, Note_on_c, 0, 45, 70
1, 537874, Note_off_c, 0, 45, 61
1, 537898, Note_on_c, 0, 33, 75
1, 537901, Note_off_c, 0, 69, 59
1, 537907, Note_off_c, 0, 66, 58
1, 537935, Note_off_c, 0, 61, 53
1, 537959, Note_off_c, 0, 33, 60
1, 537966, Note_on_c, 0, 45, 74
1, 538020, Note_off_c, 0, 45, 61
1, 538029, Note_on_c, 0, 33, 72
1, 538039, Note_off_c, 0, 57, 47
1, 538099, Note_off_c, 0, 33, 59
1, 538104, Note_on_c, 0, 45, 67
1, 538161, Note_off_c, 0, 45, 61
1, 538187, Note_on_c, 0, 33, 74
1, 538212, Note_on_c, 0, 57, 90
1, 538215, Note_on_c, 0, 67, 84
1, 538223, Note_on_c, 0, 64, 66
1, 538244, Note_on_c, 0, 45, 76
1, 538246, Note_off_c, 0, 33, 60
1, 538246, Note_off_c, 0, 67, 62
1, 538251, Note_off_c, 0, 64, 67
1, 538257, Note_off_c, 0, 57, 62
1, 538304, Note_off_c, 0, 45, 61
1, 538318, Note_on_c, 0, 33, 67
1, 538365, Note_off_c, 0, 33, 62
1, 538366, Note_on_c, 0, 45, 72
1, 538410, Note_off_c, 0, 45, 61
1, 538434, Note_on_c, 0, 33, 88
1, 538437, Note_on_c, 0, 52, 102
1, 538437, Note_on_c, 0, 64, 100
1, 538441, Note_on_c, 0, 45, 86
1, 538443, Note_on_c, 0, 61, 94
1, 538469, Note_off_c, 0, 52, 65
1, 538470, Note_off_c, 0, 64, 68
1, 538480, Note_off_c, 0, 33, 63
1, 538488, Note_off_c, 0, 61, 67
1, 538495, Note_off_c, 0, 45, 64
1, 538525, Poly_aftertouch_c, 0, 34, 127
1, 538555, Poly_aftertouch_c, 0, 34, 0
1, 538698, Control_c, 0, 64, 115
1, 538715, Control_c, 0, 64, 98
1, 538729, Control_c, 0, 64, 85
1, 538744, Control_c, 0, 64, 72
1, 538759, Control_c, 0, 64, 57
1, 538774, Control_c, 0, 64, 0
1, 538892, Control_c, 0, 64, 34
1, 538907, Control_c, 0, 64, 61
1, 538911, Note_on_c, 0, 64, 74
1, 538911, Note_on_c, 0, 61, 71
1, 538912, Note_on_c, 0, 45, 75
1, 538915, Note_on_c, 0, 52, 72
1, 538921, Note_on_c, 0, 33, 58
1, 538922, Control_c, 0, 64, 67
1, 538936, Control_c, 0, 64, 76
1, 538941, Note_off_c, 0, 64, 64
1, 538944, Note_off_c, 0, 52, 64
1, 538951, Control_c, 0, 64, 89
1, 538961, Note_off_c, 0, 45, 59
1, 538965, Note_off_c, 0, 33, 61
1, 538966, Control_c, 0, 64, 103
1, 538971, Note_off_c, 0, 61, 63
1, 538981, Control_c, 0, 64, 111
1, 538995, Control_c, 0, 64, 126
1, 539010, Control_c, 0, 64, 127
1, 539034, Note_on_c, 0, 54, 83
1, 539037, Note_on_c, 0, 45, 72
1, 539040, Note_on_c, 0, 66, 81
1, 539041, Note_on_c, 0, 62, 68
1, 539050, Note_on_c, 0, 33, 61
1, 539063, Note_off_c, 0, 66, 70
1, 539064, Note_off_c, 0, 54, 63
1, 539066, Note_off_c, 0, 62, 65
1, 539070, Note_off_c, 0, 45, 65
1, 539085, Note_off_c, 0, 33, 62
1, 539143, Note_on_c, 0, 45, 84
1, 539151, Note_on_c, 0, 55, 90
1, 539152, Note_on_c, 0, 64, 84
1, 539152, Note_on_c, 0, 67, 85
1, 539153, Note_on_c, 0, 33, 70
1, 539179, Note_off_c, 0, 55, 66
1, 539180, Note_off_c, 0, 64, 62
1, 539192, Note_off_c, 0, 33, 62
1, 539196, Note_off_c, 0, 67, 60
1, 539200, Note_off_c, 0, 45, 61
1, 539248, Control_c, 0, 64, 116
1, 539262, Control_c, 0, 64, 83
1, 539263, Note_on_c, 0, 38, 94
1, 539269, Note_on_c, 0, 33, 79
1, 539277, Control_c, 0, 64, 53
1, 539292, Control_c, 0, 64, 0
1, 539307, Note_on_c, 0, 59, 106
1, 539310, Note_on_c, 0, 71, 99
1, 539311, Note_on_c, 0, 67, 91
1, 539344, Control_c, 0, 64, 28
1, 539358, Control_c, 0, 64, 68
1, 539373, Control_c, 0, 64, 88
1, 539388, Control_c, 0, 64, 127
1, 539466, Note_off_c, 0, 38, 54
1, 539487, Note_on_c, 0, 45, 59
1, 539528, Note_off_c, 0, 71, 55
1, 539534, Note_off_c, 0, 33, 0
1, 539551, Note_on_c, 0, 33, 34
1, 539551, Note_off_c, 0, 45, 61
1, 539558, Note_on_c, 0, 38, 62
1, 539629, Note_on_c, 0, 45, 69
1, 539633, Note_off_c, 0, 38, 63
1, 539644, Note_off_c, 0, 33, 61
1, 539698, Note_off_c, 0, 45, 61
1, 539707, Note_on_c, 0, 38, 67
1, 539708, Note_on_c, 0, 33, 58
1, 539726, Note_off_c, 0, 59, 55
1, 539755, Note_off_c, 0, 67, 56
1, 539776, Note_on_c, 0, 45, 69
1, 539776, Note_off_c, 0, 38, 61
1, 539782, Note_off_c, 0, 33, 61
1, 539831, Note_on_c, 0, 69, 89
1, 539833, Note_on_c, 0, 57, 88
1, 539838, Note_on_c, 0, 66, 83
1, 539838, Note_off_c, 0, 45, 61
1, 539848, Note_on_c, 0, 33, 65
1, 539849, Note_on_c, 0, 38, 68
1, 539865, Note_off_c, 0, 66, 67
1, 539871, Note_off_c, 0, 57, 60
1, 539877, Note_off_c, 0, 69, 62
1, 539906, Note_off_c, 0, 38, 60
1, 539913, Note_on_c, 0, 45, 73
1, 539924, Note_off_c, 0, 33, 60
1, 539961, Note_off_c, 0, 45, 60
1, 539970, Note_on_c, 0, 33, 57
1, 539973, Note_on_c, 0, 38, 63
1, 540023, Note_on_c, 0, 45, 99
1, 540035, Note_on_c, 0, 54, 105
1, 540036, Note_on_c, 0, 66, 107
1, 540038, Note_on_c, 0, 62, 83
1, 540059, Note_off_c, 0, 38, 64
1, 540060, Note_off_c, 0, 33, 63
1, 540063, Poly_aftertouch_c, 0, 40, 127
1, 540072, Note_off_c, 0, 54, 67
1, 540086, Note_off_c, 0, 45, 63
1, 540092, Note_off_c, 0, 62, 63
1, 540093, Note_off_c, 0, 66, 61
1, 540113, Poly_aftertouch_c, 0, 40, 0
1, 540148, Poly_aftertouch_c, 0, 61, 0
1, 540269, Control_c, 0, 64, 106
1, 540284, Control_c, 0, 64, 85
1, 540299, Control_c, 0, 64, 63
1, 540315, Control_c, 0, 64, 0
1, 540371, Note_on_c, 0, 81, 103
1, 540372, Note_on_c, 0, 69, 103
1, 540373, Note_on_c, 0, 78, 92
1, 540374, Note_on_c, 0, 57, 94
1, 540374, Control_c, 0, 64, 12
1, 540377, Note_on_c, 0, 74, 84
1, 540378, Note_on_c, 0, 54, 86
1, 540381, Note_on_c, 0, 50, 77
1, 540382, Note_on_c, 0, 45, 77
1, 540389, Control_c, 0, 64, 68
1, 540399, Note_off_c, 0, 74, 68
1, 540401, Note_off_c, 0, 57, 66
1, 540404, Note_off_c, 0, 69, 67
1, 540404, Control_c, 0, 64, 86
1, 540410, Note_off_c, 0, 81, 66
1, 540419, Control_c, 0, 64, 127
1, 540428, Note_off_c, 0, 54, 63
1, 540428, Note_off_c, 0, 78, 67
1, 540438, Note_off_c, 0, 50, 62
1, 540456, Note_off_c, 0, 45, 63
1, 540740, Note_on_c, 0, 38, 93
1, 540745, Note_on_c, 0, 33, 86
1, 540759, Control_c, 0, 64, 102
1, 540774, Control_c, 0, 64, 75
1, 540789, Control_c, 0, 64, 0
1, 540792, Note_on_c, 0, 71, 99
1, 540796, Note_on_c, 0, 83, 99
1, 540798, Note_on_c, 0, 79, 89
1, 540798, Note_on_c, 0, 74, 86
1, 540885, Control_c, 0, 64, 75
1, 540900, Control_c, 0, 64, 112
1, 540915, Control_c, 0, 64, 127
1, 540945, Note_off_c, 0, 33, 57
1, 540945, Note_off_c, 0, 38, 60
1, 540959, Note_on_c, 0, 45, 73
1, 541007, Note_off_c, 0, 45, 61
1, 541020, Note_on_c, 0, 38, 68
1, 541025, Note_off_c, 0, 83, 40
1, 541025, Note_on_c, 0, 33, 59
1, 541078, Note_off_c, 0, 38, 61
1, 541084, Note_off_c, 0, 33, 50
1, 541085, Note_on_c, 0, 45, 78
1, 541111, Note_off_c, 0, 71, 54
1, 541142, Note_off_c, 0, 45, 62
1, 541147, Note_on_c, 0, 38, 70
1, 541156, Note_on_c, 0, 33, 57
1, 541183, Note_off_c, 0, 79, 47
1, 541207, Note_off_c, 0, 74, 52
1, 541209, Note_off_c, 0, 38, 62
1, 541213, Note_off_c, 0, 33, 48
1, 541213, Note_on_c, 0, 45, 75
1, 541260, Note_on_c, 0, 81, 91
1, 541261, Note_on_c, 0, 69, 89
1, 541262, Note_off_c, 0, 45, 62
1, 541266, Note_on_c, 0, 78, 75
1, 541284, Note_on_c, 0, 33, 65
1, 541284, Note_on_c, 0, 38, 68
1, 541289, Note_off_c, 0, 78, 70
1, 541299, Note_off_c, 0, 81, 64
1, 541304, Note_off_c, 0, 69, 64
1, 541329, Note_off_c, 0, 38, 61
1, 541344, Note_on_c, 0, 45, 79
1, 541356, Note_off_c, 0, 33, 57
1, 541400, Note_off_c, 0, 45, 62
1, 541421, Note_on_c, 0, 33, 53
1, 541423, Note_on_c, 0, 38, 73
1, 541469, Note_on_c, 0, 45, 100
1, 541471, Note_on_c, 0, 66, 113
1, 541472, Note_on_c, 0, 78, 101
1, 541477, Note_on_c, 0, 74, 91
1, 541489, Note_on_c, 0, 40, 25
1, 541505, Note_off_c, 0, 38, 64
1, 541508, Note_off_c, 0, 33, 60
1, 541514, Note_off_c, 0, 45, 64
1, 541519, Note_off_c, 0, 66, 68
1, 541534, Note_off_c, 0, 78, 61
1, 541538, Note_off_c, 0, 40, 49
1, 541538, Note_off_c, 0, 74, 65
1, 541767, Control_c, 0, 64, 115
1, 541782, Control_c, 0, 64, 89
1, 541797, Control_c, 0, 64, 68
1, 541812, Control_c, 0, 64, 0
1, 541871, Control_c, 0, 64, 49
1, 541886, Control_c, 0, 64, 67
1, 541892, Note_on_c, 0, 54, 54
1, 541892, Note_on_c, 0, 66, 66
1, 541892, Note_on_c, 0, 78, 83
1, 541897, Note_on_c, 0, 90, 80
1, 541901, Control_c, 0, 64, 78
1, 541916, Control_c, 0, 64, 97
1, 541919, Note_off_c, 0, 78, 65
1, 541921, Note_off_c, 0, 66, 67
1, 541925, Note_off_c, 0, 54, 64
1, 541926, Note_off_c, 0, 90, 62
1, 541931, Control_c, 0, 64, 120
1, 541946, Control_c, 0, 64, 127
1, 541997, Note_on_c, 0, 57, 79
1, 541998, Note_on_c, 0, 69, 82
1, 542006, Note_on_c, 0, 81, 95
1, 542006, Note_on_c, 0, 93, 89
1, 542022, Note_off_c, 0, 57, 69
1, 542025, Note_off_c, 0, 69, 66
1, 542026, Note_off_c, 0, 81, 72
1, 542044, Note_off_c, 0, 93, 63
1, 542107, Note_on_c, 0, 62, 84
1, 542108, Note_on_c, 0, 86, 98
1, 542108, Note_on_c, 0, 98, 98
1, 542109, Note_on_c, 0, 74, 83
1, 542132, Note_off_c, 0, 74, 67
1, 542140, Note_off_c, 0, 86, 66
1, 542144, Note_off_c, 0, 98, 67
1, 542157, Note_off_c, 0, 62, 59
1, 542193, Note_on_c, 0, 86, 100
1, 542193, Note_on_c, 0, 98, 95
1, 542199, Note_on_c, 0, 62, 76
1, 542199, Note_on_c, 0, 74, 80
1, 542220, Note_off_c, 0, 86, 70
1, 542222, Note_off_c, 0, 74, 67
1, 542223, Note_off_c, 0, 98, 66
1, 542253, Note_off_c, 0, 62, 62
1, 542504, Note_on_c, 0, 70, 96
1, 542504, Note_on_c, 0, 74, 97
1, 542504, Note_on_c, 0, 86, 95
1, 542506, Note_on_c, 0, 77, 88
1, 542507, Note_on_c, 0, 80, 95
1, 542509, Note_on_c, 0, 62, 70
1, 542510, Note_on_c, 0, 58, 81
1, 542511, Note_on_c, 0, 65, 78
1, 542533, Note_off_c, 0, 70, 65
1, 542535, Note_off_c, 0, 74, 65
1, 542535, Note_off_c, 0, 86, 67
1, 542536, Note_off_c, 0, 65, 69
1, 542541, Note_off_c, 0, 77, 61
1, 542546, Note_off_c, 0, 80, 66
1, 542564, Note_off_c, 0, 62, 60
1, 542575, Note_off_c, 0, 58, 64
1, 542768, Control_c, 0, 64, 103
1, 542783, Control_c, 0, 64, 81
1, 542798, Control_c, 0, 64, 63
1, 542801, Note_on_c, 0, 58, 93
1, 542807, Note_on_c, 0, 46, 81
1, 542809, Note_on_c, 0, 74, 91
1, 542810, Note_on_c, 0, 62, 94
1, 542810, Note_on_c, 0, 65, 86
1, 542812, Note_on_c, 0, 50, 75
1, 542813, Control_c, 0, 64, 26
1, 542813, Note_on_c, 0, 53, 72
1, 542813, Note_on_c, 0, 68, 91
1, 542827, Control_c, 0, 64, 63
1, 542837, Note_off_c, 0, 62, 62
1, 542840, Note_off_c, 0, 53, 65
1, 542840, Note_off_c, 0, 58, 62
1, 542842, Control_c, 0, 64, 74
1, 542845, Note_off_c, 0, 74, 62
1, 542856, Note_off_c, 0, 50, 62
1, 542857, Control_c, 0, 64, 104
1, 542860, Note_off_c, 0, 65, 66
1, 542864, Note_off_c, 0, 46, 61
1, 542867, Note_off_c, 0, 68, 65
1, 542872, Control_c, 0, 64, 127
1, 543107, Note_on_c, 0, 46, 84
1, 543110, Note_on_c, 0, 58, 78
1, 543116, Note_on_c, 0, 34, 71
1, 543131, Control_c, 0, 64, 91
1, 543134, Note_off_c, 0, 46, 66
1, 543137, Note_off_c, 0, 58, 66
1, 543144, Note_off_c, 0, 34, 65
1, 543146, Control_c, 0, 64, 68
1, 543160, Control_c, 0, 64, 0
1, 543204, Note_on_c, 0, 62, 75
1, 543209, Note_on_c, 0, 50, 89
1, 543215, Note_on_c, 0, 38, 75
1, 543233, Note_off_c, 0, 62, 64
1, 543234, Note_off_c, 0, 50, 70
1, 543245, Note_off_c, 0, 38, 65
1, 543296, Note_on_c, 0, 65, 91
1, 543308, Note_on_c, 0, 53, 88
1, 543312, Note_on_c, 0, 41, 77
1, 543331, Note_off_c, 0, 53, 68
1, 543334, Note_off_c, 0, 65, 64
1, 543341, Note_off_c, 0, 41, 66
1, 543380, Note_on_c, 0, 66, 108
1, 543393, Note_on_c, 0, 42, 89
1, 543395, Note_on_c, 0, 54, 95
1, 543398, Control_c, 0, 64, 127
1, 543411, Note_off_c, 0, 66, 71
1, 543430, Note_off_c, 0, 54, 61
1, 543450, Note_off_c, 0, 42, 62
1, 543690, Note_on_c, 0, 62, 114
1, 543694, Note_on_c, 0, 50, 99
1, 543704, Note_on_c, 0, 38, 83
1, 543720, Note_off_c, 0, 62, 69
1, 543734, Note_off_c, 0, 50, 65
1, 543768, Note_off_c, 0, 38, 59
1, 543993, Note_on_c, 0, 57, 113
1, 544000, Note_on_c, 0, 45, 102
1, 544003, Note_on_c, 0, 33, 86
1, 544024, Note_off_c, 0, 57, 69
1, 544046, Note_off_c, 0, 33, 61
1, 544057, Note_off_c, 0, 45, 63
1, 544317, Note_on_c, 0, 66, 80
1, 544322, Note_on_c, 0, 90, 90
1, 544322, Note_on_c, 0, 54, 68
1, 544323, Note_on_c, 0, 78, 82
1, 544341, Note_off_c, 0, 90, 69
1, 544342, Note_off_c, 0, 78, 70
1, 544343, Note_off_c, 0, 66, 68
1, 544350, Note_off_c, 0, 54, 65
1, 544416, Note_on_c, 0, 69, 87
1, 544418, Note_on_c, 0, 57, 82
1, 544432, Note_on_c, 0, 95, 83
1, 544440, Note_on_c, 0, 81, 66
1, 544441, Note_off_c, 0, 69, 66
1, 544441, Note_off_c, 0, 57, 67
1, 544446, Note_on_c, 0, 83, 54
1, 544452, Note_off_c, 0, 95, 71
1, 544459, Note_off_c, 0, 81, 63
1, 544468, Note_off_c, 0, 83, 61
1, 544519, Note_on_c, 0, 86, 98
1, 544520, Note_on_c, 0, 98, 105
1, 544521, Note_on_c, 0, 74, 86
1, 544522, Note_on_c, 0, 62, 87
1, 544543, Note_off_c, 0, 74, 68
1, 544549, Note_off_c, 0, 86, 65
1, 544553, Note_off_c, 0, 98, 68
1, 544560, Note_off_c, 0, 62, 56
1, 544614, Note_on_c, 0, 86, 107
1, 544615, Note_on_c, 0, 98, 100
1, 544620, Note_on_c, 0, 62, 85
1, 544620, Note_on_c, 0, 74, 80
1, 544632, Note_off_c, 0, 98, 72
1, 544641, Note_off_c, 0, 86, 69
1, 544646, Note_off_c, 0, 74, 68
1, 544660, Note_off_c, 0, 62, 58
1, 544822, Control_c, 0, 64, 103
1, 544837, Control_c, 0, 64, 77
1, 544852, Control_c, 0, 64, 0
1, 544902, Note_on_c, 0, 70, 100
1, 544906, Note_on_c, 0, 74, 99
1, 544907, Note_on_c, 0, 77, 87
1, 544907, Note_on_c, 0, 86, 93
1, 544910, Note_on_c, 0, 62, 81
1, 544911, Note_on_c, 0, 58, 86
1, 544911, Note_on_c, 0, 80, 92
1, 544914, Note_on_c, 0, 65, 76
1, 544926, Control_c, 0, 64, 54
1, 544932, Note_off_c, 0, 70, 65
1, 544936, Note_off_c, 0, 74, 64
1, 544936, Note_off_c, 0, 86, 66
1, 544938, Note_off_c, 0, 65, 68
1, 544940, Control_c, 0, 64, 117
1, 544942, Note_on_c, 0, 84, 37
1, 544943, Note_off_c, 0, 84, 127
1, 544946, Note_off_c, 0, 77, 63
1, 544946, Note_off_c, 0, 80, 69
1, 544947, Note_on_c, 0, 82, 29
1, 544955, Control_c, 0, 64, 127
1, 544961, Note_off_c, 0, 62, 60
1, 544971, Note_off_c, 0, 58, 65
1, 544984, Note_off_c, 0, 82, 40
1, 545192, Note_on_c, 0, 58, 101
1, 545193, Note_on_c, 0, 62, 96
1, 545194, Note_on_c, 0, 68, 95
1, 545195, Note_on_c, 0, 65, 90
1, 545195, Note_on_c, 0, 74, 86
1, 545203, Note_on_c, 0, 46, 82
1, 545204, Note_on_c, 0, 53, 76
1, 545205, Note_on_c, 0, 50, 77
1, 545216, Note_off_c, 0, 62, 64
1, 545218, Note_off_c, 0, 74, 67
1, 545224, Note_off_c, 0, 58, 64
1, 545230, Note_off_c, 0, 65, 63
1, 545232, Note_off_c, 0, 53, 65
1, 545238, Note_off_c, 0, 46, 63
1, 545239, Note_off_c, 0, 68, 65
1, 545240, Note_off_c, 0, 50, 64
1, 545470, Note_on_c, 0, 46, 87
1, 545475, Note_on_c, 0, 58, 82
1, 545477, Note_on_c, 0, 34, 72
1, 545496, Control_c, 0, 64, 93
1, 545500, Note_off_c, 0, 46, 66
1, 545507, Note_off_c, 0, 34, 63
1, 545507, Note_off_c, 0, 58, 62
1, 545511, Control_c, 0, 64, 67
1, 545526, Control_c, 0, 64, 0
1, 545567, Note_on_c, 0, 62, 75
1, 545568, Note_on_c, 0, 50, 84
1, 545573, Note_on_c, 0, 38, 74
1, 545593, Note_off_c, 0, 50, 69
1, 545601, Note_off_c, 0, 62, 62
1, 545603, Note_off_c, 0, 38, 65
1, 545649, Note_on_c, 0, 65, 91
1, 545662, Note_on_c, 0, 53, 84
1, 545669, Note_on_c, 0, 41, 63
1, 545683, Note_off_c, 0, 53, 68
1, 545686, Note_off_c, 0, 65, 66
1, 545696, Note_off_c, 0, 41, 56
1, 545726, Note_on_c, 0, 66, 110
1, 545734, Control_c, 0, 64, 63
1, 545741, Note_on_c, 0, 54, 96
1, 545742, Note_on_c, 0, 42, 100
1, 545749, Control_c, 0, 64, 127
1, 545755, Note_off_c, 0, 66, 72
1, 545766, Note_on_c, 0, 63, 41
1, 545767, Note_off_c, 0, 63, 127
1, 545775, Note_off_c, 0, 54, 64
1, 545797, Note_off_c, 0, 42, 61
1, 546027, Note_on_c, 0, 62, 107
1, 546029, Note_on_c, 0, 50, 98
1, 546036, Note_on_c, 0, 38, 84
1, 546054, Note_off_c, 0, 62, 69
1, 546069, Note_off_c, 0, 50, 66
1, 546101, Note_off_c, 0, 38, 61
1, 546340, Note_on_c, 0, 57, 108
1, 546343, Note_on_c, 0, 45, 96
1, 546349, Note_on_c, 0, 33, 81
1, 546376, Note_off_c, 0, 57, 67
1, 546419, Note_off_c, 0, 45, 52
1, 546435, Note_off_c, 0, 33, 57
1, 546600, Control_c, 0, 64, 90
1, 546615, Control_c, 0, 64, 68
1, 546629, Control_c, 0, 64, 0
1, 546659, Control_c, 0, 64, 47
1, 546665, Note_on_c, 0, 45, 73
1, 546668, Note_on_c, 0, 69, 76
1, 546669, Note_on_c, 0, 57, 71
1, 546674, Control_c, 0, 64, 65
1, 546677, Note_on_c, 0, 33, 50
1, 546689, Control_c, 0, 64, 74
1, 546696, Note_off_c, 0, 57, 68
1, 546698, Note_off_c, 0, 69, 66
1, 546699, Note_off_c, 0, 45, 65
1, 546705, Control_c, 0, 64, 88
1, 546708, Note_off_c, 0, 33, 56
1, 546720, Control_c, 0, 64, 100
1, 546734, Control_c, 0, 64, 106
1, 546749, Control_c, 0, 64, 107
1, 546764, Control_c, 0, 64, 108
1, 546790, Note_on_c, 0, 50, 76
1, 546792, Note_on_c, 0, 62, 82
1, 546793, Note_on_c, 0, 38, 68
1, 546800, Note_on_c, 0, 74, 64
1, 546808, Control_c, 0, 64, 109
1, 546813, Note_off_c, 0, 62, 69
1, 546815, Note_off_c, 0, 50, 67
1, 546817, Note_on_c, 0, 76, 45
1, 546818, Note_off_c, 0, 76, 127
1, 546827, Note_off_c, 0, 38, 62
1, 546828, Note_off_c, 0, 74, 65
1, 546831, Control_c, 0, 64, 109
1, 546846, Control_c, 0, 64, 115
1, 546860, Control_c, 0, 64, 127
1, 546894, Note_on_c, 0, 66, 102
1, 546895, Note_on_c, 0, 78, 105
1, 546897, Note_on_c, 0, 42, 90
1, 546897, Note_on_c, 0, 54, 91
1, 546913, Note_off_c, 0, 78, 67
1, 546921, Note_off_c, 0, 66, 64
1, 546921, Note_off_c, 0, 54, 67
1, 546925, Note_off_c, 0, 42, 64
1, 546979, Note_on_c, 0, 78, 108
1, 546983, Note_on_c, 0, 66, 110
1, 546992, Note_on_c, 0, 42, 87
1, 546992, Note_on_c, 0, 54, 85
1, 547010, Note_off_c, 0, 66, 66
1, 547013, Note_off_c, 0, 78, 63
1, 547019, Note_off_c, 0, 54, 66
1, 547036, Note_off_c, 0, 42, 55
1, 547250, Note_on_c, 0, 74, 101
1, 547251, Note_on_c, 0, 62, 102
1, 547253, Note_on_c, 0, 50, 89
1, 547260, Note_on_c, 0, 38, 77
1, 547285, Note_off_c, 0, 50, 65
1, 547291, Note_off_c, 0, 62, 63
1, 547296, Note_off_c, 0, 74, 60
1, 547321, Note_off_c, 0, 38, 61
1, 547332, Poly_aftertouch_c, 0, 68, 127
1, 547368, Poly_aftertouch_c, 0, 68, 0
1, 547532, Note_on_c, 0, 69, 102
1, 547533, Note_on_c, 0, 57, 101
1, 547540, Note_on_c, 0, 45, 96
1, 547545, Note_on_c, 0, 33, 80
1, 547578, Note_off_c, 0, 57, 64
1, 547586, Note_off_c, 0, 33, 63
1, 547608, Note_off_c, 0, 45, 62
1, 547624, Note_off_c, 0, 69, 57
1, 547817, Control_c, 0, 64, 115
1, 547832, Control_c, 0, 64, 89
1, 547847, Control_c, 0, 64, 69
1, 547862, Control_c, 0, 64, 57
1, 547874, Note_on_c, 0, 81, 94
1, 547876, Control_c, 0, 64, 61
1, 547877, Note_on_c, 0, 45, 64
1, 547879, Note_on_c, 0, 69, 78
1, 547884, Note_on_c, 0, 57, 51
1, 547891, Control_c, 0, 64, 66
1, 547902, Note_off_c, 0, 69, 69
1, 547906, Control_c, 0, 64, 74
1, 547908, Note_off_c, 0, 45, 67
1, 547915, Note_on_c, 0, 55, 20
1, 547915, Note_off_c, 0, 81, 62
1, 547916, Note_off_c, 0, 57, 60
1, 547921, Control_c, 0, 64, 89
1, 547935, Control_c, 0, 64, 110
1, 547950, Control_c, 0, 64, 127
1, 547958, Note_off_c, 0, 55, 50
1, 548003, Note_on_c, 0, 62, 79
1, 548003, Note_on_c, 0, 50, 77
1, 548009, Note_on_c, 0, 74, 89
1, 548009, Note_on_c, 0, 86, 91
1, 548026, Note_off_c, 0, 62, 68
1, 548030, Note_off_c, 0, 50, 66
1, 548033, Note_off_c, 0, 86, 62
1, 548033, Note_off_c, 0, 74, 65
1, 548107, Note_on_c, 0, 66, 94
1, 548108, Note_on_c, 0, 90, 107
1, 548109, Note_on_c, 0, 54, 87
1, 548109, Note_on_c, 0, 78, 98
1, 548128, Note_off_c, 0, 66, 68
1, 548133, Note_off_c, 0, 54, 66
1, 548137, Note_off_c, 0, 90, 61
1, 548138, Note_off_c, 0, 78, 62
1, 548191, Note_on_c, 0, 90, 109
1, 548194, Note_on_c, 0, 78, 102
1, 548200, Note_on_c, 0, 54, 97
1, 548202, Note_on_c, 0, 66, 106
1, 548222, Note_off_c, 0, 78, 68
1, 548229, Note_off_c, 0, 90, 63
1, 548232, Note_off_c, 0, 66, 66
1, 548255, Note_off_c, 0, 54, 60
1, 548418, Control_c, 0, 64, 94
1, 548432, Control_c, 0, 64, 69
1, 548447, Control_c, 0, 64, 0
1, 548476, Note_on_c, 0, 62, 92
1, 548477, Note_on_c, 0, 86, 102
1, 548477, Note_on_c, 0, 74, 105
1, 548477, Control_c, 0, 64, 51
1, 548479, Note_on_c, 0, 50, 83
1, 548492, Control_c, 0, 64, 75
1, 548507, Control_c, 0, 64, 118
1, 548507, Note_off_c, 0, 74, 68
1, 548507, Note_off_c, 0, 86, 68
1, 548516, Note_off_c, 0, 62, 60
1, 548522, Control_c, 0, 64, 127
1, 548537, Note_off_c, 0, 50, 63
1, 548771, Note_on_c, 0, 81, 106
1, 548772, Note_on_c, 0, 69, 99
1, 548778, Note_on_c, 0, 57, 97
1, 548783, Note_on_c, 0, 45, 94
1, 548805, Note_off_c, 0, 69, 67
1, 548826, Note_off_c, 0, 45, 61
1, 548827, Note_off_c, 0, 57, 62
1, 548827, Note_off_c, 0, 81, 60
1, 549212, Note_on_c, 0, 93, 83
1, 549213, Note_on_c, 0, 69, 60
1, 549213, Note_on_c, 0, 57, 60
1, 549213, Note_on_c, 0, 81, 93
1, 549242, Note_off_c, 0, 81, 64
1, 549245, Note_off_c, 0, 57, 65
1, 549256, Note_off_c, 0, 93, 64
1, 549261, Note_off_c, 0, 69, 60
1, 549377, Note_on_c, 0, 98, 91
1, 549380, Note_on_c, 0, 86, 82
1, 549386, Note_on_c, 0, 74, 71
1, 549387, Note_on_c, 0, 62, 71
1, 549412, Note_off_c, 0, 74, 68
1, 549416, Note_off_c, 0, 62, 64
1, 549416, Note_off_c, 0, 86, 63
1, 549420, Note_off_c, 0, 98, 66
1, 549510, Note_on_c, 0, 90, 99
1, 549511, Note_on_c, 0, 102, 101
1, 549514, Note_on_c, 0, 78, 91
1, 549518, Note_on_c, 0, 66, 84
1, 549535, Note_off_c, 0, 78, 70
1, 549539, Note_off_c, 0, 90, 62
1, 549541, Note_off_c, 0, 66, 70
1, 549541, Note_off_c, 0, 102, 63
1, 549591, Note_on_c, 0, 102, 114
1, 549595, Note_on_c, 0, 90, 108
1, 549601, Note_on_c, 0, 78, 97
1, 549601, Note_on_c, 0, 66, 101
1, 549622, Note_off_c, 0, 90, 67
1, 549631, Note_off_c, 0, 78, 67
1, 549631, Note_off_c, 0, 102, 65
1, 549647, Note_off_c, 0, 66, 60
1, 549885, Control_c, 0, 64, 103
1, 549901, Control_c, 0, 64, 78
1, 549916, Control_c, 0, 64, 0
1, 550037, Note_on_c, 0, 93, 99
1, 550038, Note_on_c, 0, 81, 109
1, 550039, Note_on_c, 0, 85, 93
1, 550042, Note_on_c, 0, 88, 91
1, 550044, Note_on_c, 0, 69, 95
1, 550045, Note_on_c, 0, 64, 83
1, 550048, Note_on_c, 0, 61, 85
1, 550049, Control_c, 0, 64, 46
1, 550050, Note_on_c, 0, 57, 82
1, 550064, Control_c, 0, 64, 127
1, 550068, Note_off_c, 0, 81, 69
1, 550078, Note_off_c, 0, 93, 65
1, 550083, Note_off_c, 0, 88, 67
1, 550089, Note_off_c, 0, 69, 64
1, 550090, Note_off_c, 0, 85, 66
1, 550093, Note_on_c, 0, 90, 8
1, 550093, Note_off_c, 0, 57, 59
1, 550099, Note_off_c, 0, 64, 61
1, 550102, Note_off_c, 0, 90, 37
1, 550115, Note_off_c, 0, 61, 61
1, 550552, Control_c, 0, 64, 88
1, 550574, Control_c, 0, 64, 0
1, 550577, Note_on_c, 0, 98, 105
1, 550579, Note_on_c, 0, 86, 92
1, 550579, Note_on_c, 0, 90, 94
1, 550581, Note_on_c, 0, 93, 95
1, 550582, Note_on_c, 0, 74, 95
1, 550583, Note_on_c, 0, 62, 83
1, 550585, Note_on_c, 0, 66, 89
1, 550585, Note_on_c, 0, 69, 81
1, 550608, Note_off_c, 0, 86, 66
1, 550612, Note_off_c, 0, 98, 68
1, 550621, Note_off_c, 0, 74, 66
1, 550623, Note_off_c, 0, 93, 65
1, 550628, Note_off_c, 0, 90, 66
1, 550633, Control_c, 0, 64, 66
1, 550643, Note_off_c, 0, 69, 64
1, 550644, Note_off_c, 0, 62, 58
1, 550648, Control_c, 0, 64, 102
1, 550663, Control_c, 0, 64, 127
1, 550666, Note_off_c, 0, 66, 64
1, 551303, Note_on_c, 0, 62, 98
1, 551303, Note_on_c, 0, 86, 98
1, 551304, Note_on_c, 0, 74, 103
1, 551305, Note_on_c, 0, 54, 94
1, 551305, Note_on_c, 0, 78, 97
1, 551306, Note_on_c, 0, 50, 86
1, 551306, Note_on_c, 0, 57, 89
1, 551309, Note_on_c, 0, 81, 96
1, 551344, Note_off_c, 0, 74, 70
1, 551347, Note_off_c, 0, 86, 67
1, 551350, Note_off_c, 0, 62, 63
1, 551354, Note_off_c, 0, 81, 67
1, 551359, Note_off_c, 0, 50, 62
1, 551361, Note_off_c, 0, 78, 64
1, 551365, Note_off_c, 0, 57, 62
1, 551379, Note_off_c, 0, 54, 63
1, 552679, Note_on_c, 0, 66, 108
1, 552680, Note_on_c, 0, 62, 110
1, 552680, Note_on_c, 0, 74, 99
1, 552680, Note_on_c, 0, 50, 105
1, 552683, Note_on_c, 0, 69, 93
1, 552683, Note_on_c, 0, 38, 91
1, 552684, Note_on_c, 0, 42, 97
1, 552684, Note_on_c, 0, 45, 99
1, 552709, Note_off_c, 0, 62, 69
1, 552713, Note_off_c, 0, 74, 67
1, 552715, Note_off_c, 0, 50, 68
1, 552719, Note_off_c, 0, 69, 67
1, 552722, Note_off_c, 0, 38, 63
1, 552723, Note_off_c, 0, 66, 70
1, 552726, Note_off_c, 0, 45, 64
1, 552734, Note_off_c, 0, 42, 65
1, 555349, Control_c, 0, 64, 104
1, 555363, Control_c, 0, 64, 88
1, 555378, Control_c, 0, 64, 72
1, 555393, Control_c, 0, 64, 39
1, 555408, Control_c, 0, 64, 0
1, 555408, End_track
0, 0, End_of_file
