0, 0, Header, 0, 1, 384
1, 0, Start_track
1, 0, Title_t, "Sonata Hob.XVI:50--Nansong Huang   "
1, 0, Text_t, "2008 e-Piano Junior Competition virtual audition round"
1, 0, Text_t, "recorded January and February 2008"
1, 0, Text_t, "http://www.piano-e-competition.com/"
1, 0, Text_t, "File processed for distribution by software from Zenph Studios, Inc., http://www.zenph.com"
1, 0, Instrument_name_t, "Yamaha Disklavier Pro Mark IV concert grand piano, model DCFIIISM4PRO"
1, 0, Sequencer_specific, 39, 67, 113, 0, 1, 0, 1, 0, 83, 111, 110, 97, 116, 97, 32, 72, 111, 98, 88, 86, 73, 58, 53, 48, 78, 97, 110, 115, 111, 110, 103, 32, 72, 117, 97, 110, 103, 32, 32, 32
1, 0, Sequencer_specific, 6, 67, 113, 0, 0, 0, 69
1, 0, System_exclusive, 21, 67, 113, 126, 21, 0, 2, 2, 0, 13, 12, 15, 4, 7, 9, 7, 3, 5, 10, 3, 6, 247
1, 0, Sequencer_specific, 5, 67, 123, 12, 2, 1
1, 0, Tempo, 512820
1, 0, Time_signature, 4, 2, 24, 8
1, 0, System_exclusive, 5, 126, 127, 9, 1, 247
1, 1, System_exclusive, 8, 67, 16, 76, 0, 0, 126, 0, 247
1, 2, System_exclusive, 8, 67, 16, 76, 8, 9, 7, 1, 247
1, 3, Control_c, 0, 0, 0
1, 3, Control_c, 1, 0, 0
1, 3, Control_c, 2, 0, 0
1, 3, Control_c, 3, 0, 0
1, 3, Control_c, 4, 0, 0
1, 3, Control_c, 5, 0, 0
1, 3, Control_c, 6, 0, 0
1, 3, Control_c, 7, 0, 0
1, 3, Control_c, 8, 0, 0
1, 3, Control_c, 9, 0, 127
1, 3, Control_c, 10, 0, 0
1, 3, Control_c, 11, 0, 0
1, 3, Control_c, 12, 0, 0
1, 3, Control_c, 13, 0, 0
1, 3, Control_c, 14, 0, 0
1, 3, Control_c, 15, 0, 0
1, 4, Control_c, 0, 32, 0
1, 4, Control_c, 1, 32, 0
1, 4, Control_c, 2, 32, 0
1, 4, Control_c, 3, 32, 0
1, 4, Control_c, 4, 32, 0
1, 4, Control_c, 5, 32, 0
1, 4, Control_c, 6, 32, 0
1, 4, Control_c, 7, 32, 0
1, 4, Control_c, 8, 32, 0
1, 4, Control_c, 9, 32, 0
1, 4, Control_c, 10, 32, 0
1, 4, Control_c, 11, 32, 0
1, 4, Control_c, 12, 32, 0
1, 4, Control_c, 13, 32, 0
1, 4, Control_c, 14, 32, 0
1, 4, Control_c, 15, 32, 0
1, 5, Program_c, 0, 0
1, 5, Program_c, 1, 0
1, 5, Program_c, 2, 0
1, 5, Program_c, 3, 0
1, 5, Program_c, 4, 0
1, 5, Program_c, 5, 0
1, 5, Program_c, 6, 0
1, 5, Program_c, 7, 0
1, 5, Program_c, 8, 0
1, 5, Program_c, 9, 0
1, 5, Program_c, 10, 0
1, 5, Program_c, 11, 0
1, 5, Program_c, 12, 0
1, 5, Program_c, 13, 0
1, 5, Program_c, 14, 0
1, 5, Program_c, 15, 0
1, 6, Control_c, 0, 7, 100
1, 6, Control_c, 1, 7, 100
1, 6, Control_c, 2, 7, 100
1, 6, Control_c, 3, 7, 100
1, 6, Control_c, 4, 7, 100
1, 6, Control_c, 5, 7, 100
1, 6, Control_c, 6, 7, 100
1, 6, Control_c, 7, 7, 100
1, 6, Control_c, 8, 7, 100
1, 6, Control_c, 9, 7, 100
1, 6, Control_c, 10, 7, 100
1, 6, Control_c, 11, 7, 100
1, 6, Control_c, 12, 7, 100
1, 6, Control_c, 13, 7, 100
1, 6, Control_c, 14, 7, 100
1, 6, Control_c, 15, 7, 100
1, 1130, Note_on_c, 0, 72, 79
1, 1159, Note_off_c, 0, 72, 68
1, 1514, Note_on_c, 0, 67, 62
1, 1546, Note_off_c, 0, 67, 64
1, 1863, Note_on_c, 0, 64, 62
1, 1891, Note_off_c, 0, 64, 67
1, 2037, Note_on_c, 0, 48, 54
1, 2081, Note_off_c, 0, 48, 62
1, 2216, Note_on_c, 0, 36, 53
1, 2250, Note_off_c, 0, 36, 63
1, 2383, Note_on_c, 0, 69, 77
1, 2430, Note_off_c, 0, 69, 60
1, 2556, Note_on_c, 0, 62, 65
1, 2591, Note_off_c, 0, 62, 61
1, 2725, Note_on_c, 0, 48, 45
1, 2766, Note_off_c, 0, 48, 59
1, 2905, Note_on_c, 0, 36, 50
1, 2942, Note_off_c, 0, 36, 61
1, 3061, Note_on_c, 0, 67, 60
1, 3121, Note_off_c, 0, 67, 60
1, 3254, Note_on_c, 0, 60, 59
1, 3291, Note_off_c, 0, 60, 62
1, 3411, Note_on_c, 0, 48, 53
1, 3448, Note_off_c, 0, 48, 63
1, 3582, Note_on_c, 0, 36, 57
1, 3616, Note_off_c, 0, 36, 64
1, 3763, Note_on_c, 0, 76, 77
1, 3938, Note_on_c, 0, 65, 65
1, 3945, Note_off_c, 0, 76, 63
1, 3989, Note_off_c, 0, 65, 61
1, 4117, Note_on_c, 0, 48, 50
1, 4273, Note_off_c, 0, 48, 59
1, 4290, Note_on_c, 0, 36, 53
1, 4336, Note_off_c, 0, 36, 61
1, 4469, Note_on_c, 0, 74, 58
1, 4638, Note_off_c, 0, 74, 61
1, 4643, Note_on_c, 0, 64, 60
1, 4701, Note_off_c, 0, 64, 59
1, 4829, Note_on_c, 0, 48, 48
1, 4982, Note_off_c, 0, 48, 61
1, 4993, Note_on_c, 0, 36, 61
1, 5031, Note_off_c, 0, 36, 64
1, 5165, Note_on_c, 0, 72, 83
1, 5211, Note_off_c, 0, 72, 62
1, 5333, Note_on_c, 0, 62, 71
1, 5482, Note_off_c, 0, 62, 61
1, 5493, Note_on_c, 0, 69, 70
1, 5515, Note_on_c, 0, 48, 52
1, 5546, Note_off_c, 0, 69, 62
1, 5659, Note_off_c, 0, 48, 60
1, 5665, Note_on_c, 0, 36, 56
1, 5673, Note_on_c, 0, 57, 69
1, 5709, Note_off_c, 0, 36, 61
1, 5853, Note_off_c, 0, 57, 59
1, 5858, Note_on_c, 0, 59, 66
1, 5918, Note_off_c, 0, 59, 63
1, 6031, Note_on_c, 0, 62, 64
1, 6188, Note_off_c, 0, 62, 57
1, 6194, Note_on_c, 0, 60, 58
1, 6207, Note_on_c, 0, 48, 34
1, 6256, Note_off_c, 0, 60, 56
1, 6380, Note_on_c, 0, 36, 48
1, 6380, Note_off_c, 0, 48, 54
1, 6436, Note_off_c, 0, 36, 60
1, 6551, Note_on_c, 0, 62, 61
1, 6565, Note_on_c, 0, 59, 52
1, 6596, Note_off_c, 0, 59, 63
1, 6605, Note_off_c, 0, 62, 57
1, 6739, Note_on_c, 0, 62, 58
1, 6745, Note_on_c, 0, 65, 60
1, 6892, Note_off_c, 0, 62, 52
1, 6904, Note_off_c, 0, 65, 63
1, 6913, Note_on_c, 0, 64, 60
1, 6921, Note_on_c, 0, 60, 53
1, 6932, Note_on_c, 0, 48, 46
1, 6963, Note_off_c, 0, 60, 60
1, 6967, Note_off_c, 0, 64, 59
1, 7090, Note_off_c, 0, 48, 57
1, 7101, Note_on_c, 0, 36, 55
1, 7144, Note_off_c, 0, 36, 60
1, 7256, Note_on_c, 0, 65, 72
1, 7262, Note_on_c, 0, 62, 62
1, 7296, Note_off_c, 0, 62, 62
1, 7311, Note_off_c, 0, 65, 63
1, 7454, Note_on_c, 0, 69, 76
1, 7457, Note_on_c, 0, 65, 75
1, 7592, Note_off_c, 0, 65, 56
1, 7625, Note_on_c, 0, 67, 74
1, 7626, Note_off_c, 0, 69, 63
1, 7631, Note_on_c, 0, 64, 61
1, 7649, Note_on_c, 0, 48, 61
1, 7666, Note_off_c, 0, 64, 62
1, 7685, Note_off_c, 0, 67, 62
1, 7808, Note_on_c, 0, 36, 73
1, 7808, Note_off_c, 0, 48, 60
1, 7859, Note_off_c, 0, 36, 61
1, 7977, Note_on_c, 0, 71, 79
1, 7982, Note_on_c, 0, 62, 72
1, 7993, Control_c, 0, 64, 12
1, 8008, Note_off_c, 0, 62, 67
1, 8031, Note_off_c, 0, 71, 64
1, 8162, Note_on_c, 0, 65, 83
1, 8162, Note_on_c, 0, 74, 80
1, 8250, Note_off_c, 0, 65, 65
1, 8334, Note_on_c, 0, 72, 89
1, 8336, Note_on_c, 0, 64, 83
1, 8347, Note_off_c, 0, 74, 61
1, 8354, Note_on_c, 0, 48, 68
1, 8377, Note_off_c, 0, 64, 61
1, 8400, Control_c, 0, 64, 15
1, 8416, Note_off_c, 0, 72, 63
1, 8521, Note_off_c, 0, 48, 61
1, 8523, Note_on_c, 0, 36, 79
1, 8593, Control_c, 0, 64, 12
1, 8594, Note_off_c, 0, 36, 62
1, 8724, Note_on_c, 0, 74, 81
1, 8725, Note_on_c, 0, 71, 79
1, 8776, Note_off_c, 0, 71, 63
1, 8789, Note_off_c, 0, 74, 61
1, 9075, Control_c, 0, 64, 15
1, 9119, Control_c, 0, 64, 18
1, 9132, Note_on_c, 0, 77, 81
1, 9134, Control_c, 0, 64, 20
1, 9143, Note_on_c, 0, 74, 73
1, 9164, Control_c, 0, 64, 22
1, 9208, Control_c, 0, 64, 24
1, 9223, Control_c, 0, 64, 26
1, 9238, Control_c, 0, 64, 28
1, 9253, Control_c, 0, 64, 31
1, 9268, Control_c, 0, 64, 33
1, 9283, Control_c, 0, 64, 34
1, 9298, Control_c, 0, 64, 35
1, 9312, Control_c, 0, 64, 36
1, 9327, Control_c, 0, 64, 38
1, 9342, Control_c, 0, 64, 40
1, 9356, Control_c, 0, 64, 42
1, 9371, Control_c, 0, 64, 44
1, 9386, Control_c, 0, 64, 45
1, 9401, Control_c, 0, 64, 46
1, 9416, Control_c, 0, 64, 49
1, 9430, Control_c, 0, 64, 51
1, 9445, Control_c, 0, 64, 54
1, 9460, Control_c, 0, 64, 56
1, 9476, Control_c, 0, 64, 59
1, 9491, Control_c, 0, 64, 60
1, 9506, Control_c, 0, 64, 62
1, 9521, Control_c, 0, 64, 63
1, 9535, Control_c, 0, 64, 64
1, 9557, Control_c, 0, 64, 65
1, 9572, Control_c, 0, 64, 66
1, 9587, Control_c, 0, 64, 68
1, 9602, Control_c, 0, 64, 71
1, 9617, Control_c, 0, 64, 73
1, 9632, Control_c, 0, 64, 75
1, 9646, Control_c, 0, 64, 76
1, 9661, Control_c, 0, 64, 79
1, 9661, Control_c, 0, 67, 8
1, 9676, Control_c, 0, 64, 82
1, 9676, Control_c, 0, 67, 10
1, 9691, Control_c, 0, 64, 85
1, 9691, Control_c, 0, 67, 13
1, 9706, Control_c, 0, 64, 87
1, 9706, Control_c, 0, 67, 16
1, 9721, Control_c, 0, 64, 90
1, 9721, Control_c, 0, 67, 19
1, 9735, Control_c, 0, 64, 93
1, 9735, Control_c, 0, 67, 23
1, 9750, Control_c, 0, 64, 96
1, 9750, Control_c, 0, 67, 28
1, 9765, Control_c, 0, 64, 99
1, 9765, Control_c, 0, 67, 34
1, 9780, Control_c, 0, 64, 103
1, 9780, Control_c, 0, 67, 40
1, 9794, Control_c, 0, 64, 106
1, 9794, Control_c, 0, 67, 49
1, 9809, Control_c, 0, 64, 111
1, 9809, Control_c, 0, 67, 56
1, 9824, Control_c, 0, 64, 115
1, 9824, Control_c, 0, 67, 63
1, 9839, Control_c, 0, 64, 120
1, 9839, Control_c, 0, 67, 69
1, 9853, Control_c, 0, 64, 127
1, 9853, Control_c, 0, 67, 75
1, 9868, Control_c, 0, 67, 81
1, 9883, Control_c, 0, 67, 87
1, 9898, Control_c, 0, 67, 95
1, 9913, Control_c, 0, 67, 101
1, 9927, Control_c, 0, 67, 107
1, 9942, Control_c, 0, 67, 113
1, 9957, Control_c, 0, 67, 119
1, 9972, Control_c, 0, 67, 125
1, 9986, Control_c, 0, 67, 127
1, 10305, Note_off_c, 0, 77, 42
1, 10401, Note_off_c, 0, 74, 30
1, 10910, Note_on_c, 0, 76, 49
1, 10913, Note_on_c, 0, 72, 52
1, 10972, Control_c, 0, 64, 116
1, 10987, Control_c, 0, 64, 103
1, 11001, Control_c, 0, 64, 92
1, 11016, Control_c, 0, 64, 82
1, 11031, Control_c, 0, 64, 72
1, 11053, Control_c, 0, 64, 61
1, 11068, Control_c, 0, 64, 34
1, 11099, Control_c, 0, 64, 41
1, 11113, Control_c, 0, 64, 53
1, 11128, Control_c, 0, 64, 60
1, 11143, Control_c, 0, 64, 63
1, 11158, Control_c, 0, 64, 64
1, 11173, Control_c, 0, 64, 66
1, 11188, Control_c, 0, 64, 69
1, 11202, Control_c, 0, 64, 74
1, 11217, Control_c, 0, 64, 82
1, 11232, Control_c, 0, 64, 86
1, 11247, Control_c, 0, 64, 88
1, 11249, Note_off_c, 0, 72, 58
1, 11262, Control_c, 0, 64, 91
1, 11277, Control_c, 0, 64, 94
1, 11279, Note_off_c, 0, 76, 63
1, 11292, Control_c, 0, 64, 98
1, 11306, Control_c, 0, 64, 102
1, 11321, Control_c, 0, 64, 105
1, 11336, Control_c, 0, 64, 106
1, 11350, Control_c, 0, 64, 107
1, 11365, Control_c, 0, 64, 107
1, 11395, Control_c, 0, 64, 108
1, 11662, Control_c, 0, 64, 107
1, 11706, Control_c, 0, 64, 107
1, 11721, Control_c, 0, 64, 106
1, 11750, Control_c, 0, 64, 106
1, 11765, Control_c, 0, 64, 105
1, 11780, Control_c, 0, 64, 105
1, 11802, Control_c, 0, 64, 104
1, 11802, Control_c, 0, 67, 125
1, 11817, Control_c, 0, 67, 121
1, 11831, Control_c, 0, 64, 104
1, 11831, Control_c, 0, 67, 117
1, 11846, Control_c, 0, 64, 103
1, 11846, Control_c, 0, 67, 113
1, 11861, Control_c, 0, 64, 103
1, 11861, Control_c, 0, 67, 108
1, 11877, Control_c, 0, 64, 101
1, 11877, Control_c, 0, 67, 103
1, 11892, Control_c, 0, 64, 99
1, 11892, Control_c, 0, 67, 98
1, 11906, Control_c, 0, 64, 96
1, 11906, Control_c, 0, 67, 93
1, 11921, Control_c, 0, 64, 93
1, 11921, Control_c, 0, 67, 88
1, 11936, Control_c, 0, 64, 88
1, 11936, Control_c, 0, 67, 84
1, 11951, Control_c, 0, 64, 83
1, 11951, Control_c, 0, 67, 79
1, 11966, Control_c, 0, 64, 78
1, 11966, Control_c, 0, 67, 75
1, 11980, Control_c, 0, 64, 72
1, 11980, Control_c, 0, 67, 70
1, 11995, Control_c, 0, 64, 66
1, 11995, Control_c, 0, 67, 66
1, 12010, Control_c, 0, 64, 58
1, 12010, Control_c, 0, 67, 63
1, 12025, Control_c, 0, 64, 53
1, 12025, Control_c, 0, 67, 61
1, 12040, Control_c, 0, 64, 52
1, 12040, Control_c, 0, 67, 59
1, 12055, Control_c, 0, 67, 58
1, 12070, Control_c, 0, 67, 57
1, 12099, Control_c, 0, 67, 57
1, 12159, Control_c, 0, 64, 52
1, 12188, Control_c, 0, 64, 55
1, 12195, Note_on_c, 0, 36, 58
1, 12203, Control_c, 0, 64, 63
1, 12216, Note_on_c, 0, 72, 76
1, 12218, Control_c, 0, 64, 68
1, 12218, Control_c, 0, 67, 56
1, 12228, Note_on_c, 0, 40, 55
1, 12233, Control_c, 0, 64, 76
1, 12233, Control_c, 0, 67, 53
1, 12236, Note_on_c, 0, 76, 72
1, 12241, Note_on_c, 0, 43, 60
1, 12243, Note_off_c, 0, 72, 67
1, 12244, Note_on_c, 0, 79, 70
1, 12246, Control_c, 0, 64, 87
1, 12246, Control_c, 0, 67, 49
1, 12261, Control_c, 0, 64, 95
1, 12261, Control_c, 0, 67, 44
1, 12265, Note_on_c, 0, 48, 79
1, 12269, Note_on_c, 0, 84, 90
1, 12276, Note_off_c, 0, 43, 63
1, 12276, Note_off_c, 0, 76, 63
1, 12276, Note_off_c, 0, 36, 63
1, 12276, Control_c, 0, 64, 101
1, 12276, Control_c, 0, 67, 42
1, 12280, Note_off_c, 0, 40, 63
1, 12291, Control_c, 0, 64, 104
1, 12291, Control_c, 0, 67, 41
1, 12292, Note_off_c, 0, 79, 65
1, 12305, Note_off_c, 0, 84, 66
1, 12305, Control_c, 0, 64, 107
1, 12312, Note_off_c, 0, 48, 61
1, 12320, Control_c, 0, 64, 107
1, 12320, Control_c, 0, 67, 40
1, 12350, Control_c, 0, 67, 40
1, 12365, Control_c, 0, 67, 39
1, 12395, Control_c, 0, 67, 38
1, 12410, Control_c, 0, 67, 38
1, 12425, Control_c, 0, 67, 36
1, 12440, Control_c, 0, 67, 35
1, 12454, Control_c, 0, 67, 33
1, 12469, Control_c, 0, 64, 106
1, 12469, Control_c, 0, 67, 32
1, 12484, Control_c, 0, 64, 104
1, 12484, Control_c, 0, 67, 31
1, 12498, Control_c, 0, 64, 99
1, 12498, Control_c, 0, 67, 30
1, 12513, Control_c, 0, 64, 91
1, 12513, Control_c, 0, 67, 29
1, 12528, Control_c, 0, 64, 82
1, 12528, Control_c, 0, 67, 28
1, 12539, Note_on_c, 0, 43, 61
1, 12543, Control_c, 0, 64, 72
1, 12543, Control_c, 0, 67, 27
1, 12565, Control_c, 0, 64, 63
1, 12565, Control_c, 0, 67, 23
1, 12575, Note_on_c, 0, 47, 55
1, 12576, Note_on_c, 0, 71, 68
1, 12580, Control_c, 0, 64, 56
1, 12580, Control_c, 0, 67, 20
1, 12586, Note_on_c, 0, 50, 61
1, 12593, Note_on_c, 0, 74, 73
1, 12595, Control_c, 0, 64, 62
1, 12595, Control_c, 0, 67, 16
1, 12605, Note_off_c, 0, 71, 68
1, 12609, Control_c, 0, 64, 68
1, 12609, Control_c, 0, 67, 12
1, 12621, Note_on_c, 0, 79, 93
1, 12624, Control_c, 0, 64, 75
1, 12624, Control_c, 0, 67, 11
1, 12626, Note_on_c, 0, 55, 79
1, 12630, Note_off_c, 0, 50, 64
1, 12635, Note_off_c, 0, 74, 66
1, 12636, Note_off_c, 0, 47, 62
1, 12637, Note_off_c, 0, 43, 62
1, 12639, Control_c, 0, 64, 86
1, 12639, Control_c, 0, 67, 11
1, 12652, Note_off_c, 0, 79, 65
1, 12654, Control_c, 0, 64, 92
1, 12664, Note_off_c, 0, 55, 62
1, 12669, Control_c, 0, 64, 93
1, 12684, Control_c, 0, 67, 10
1, 12699, Control_c, 0, 67, 10
1, 12714, Control_c, 0, 67, 8
1, 12729, Control_c, 0, 67, 8
1, 12744, Control_c, 0, 67, 0
1, 12848, Control_c, 0, 64, 92
1, 12863, Control_c, 0, 64, 86
1, 12877, Control_c, 0, 64, 76
1, 12887, Note_on_c, 0, 48, 63
1, 12892, Control_c, 0, 64, 65
1, 12907, Control_c, 0, 64, 0
1, 12911, Note_on_c, 0, 67, 65
1, 12922, Note_on_c, 0, 52, 59
1, 12935, Note_on_c, 0, 72, 81
1, 12936, Control_c, 0, 64, 48
1, 12941, Note_off_c, 0, 67, 66
1, 12943, Note_on_c, 0, 55, 59
1, 12951, Control_c, 0, 64, 65
1, 12966, Control_c, 0, 64, 74
1, 12967, Note_on_c, 0, 60, 82
1, 12972, Note_on_c, 0, 76, 86
1, 12981, Control_c, 0, 64, 88
1, 12986, Note_off_c, 0, 72, 66
1, 12987, Note_off_c, 0, 48, 62
1, 12995, Control_c, 0, 64, 97
1, 13006, Note_off_c, 0, 52, 62
1, 13007, Note_off_c, 0, 55, 62
1, 13009, Note_off_c, 0, 76, 67
1, 13010, Control_c, 0, 64, 100
1, 13014, Note_off_c, 0, 60, 63
1, 13025, Control_c, 0, 64, 101
1, 13040, Control_c, 0, 64, 101
1, 13054, Control_c, 0, 64, 102
1, 13069, Control_c, 0, 64, 102
1, 13084, Control_c, 0, 64, 103
1, 13099, Control_c, 0, 64, 103
1, 13128, Control_c, 0, 64, 104
1, 13173, Control_c, 0, 64, 104
1, 13203, Control_c, 0, 64, 105
1, 13373, Control_c, 0, 64, 104
1, 13388, Control_c, 0, 64, 101
1, 13402, Control_c, 0, 64, 94
1, 13417, Control_c, 0, 64, 87
1, 13432, Control_c, 0, 64, 80
1, 13447, Control_c, 0, 64, 71
1, 13449, Note_on_c, 0, 83, 63
1, 13462, Control_c, 0, 64, 61
1, 13477, Control_c, 0, 64, 0
1, 13483, Note_off_c, 0, 83, 69
1, 13490, Note_on_c, 0, 81, 73
1, 13520, Note_off_c, 0, 81, 67
1, 13534, Note_on_c, 0, 80, 72
1, 13580, Note_on_c, 0, 81, 88
1, 13595, Note_off_c, 0, 80, 64
1, 13626, Note_on_c, 0, 74, 74
1, 13629, Note_off_c, 0, 81, 66
1, 13653, Note_off_c, 0, 74, 68
1, 13793, Note_on_c, 0, 65, 57
1, 13797, Note_on_c, 0, 71, 52
1, 13830, Note_off_c, 0, 71, 60
1, 13831, Note_off_c, 0, 65, 63
1, 13985, Note_on_c, 0, 71, 56
1, 13991, Note_on_c, 0, 65, 52
1, 14013, Note_off_c, 0, 71, 62
1, 14016, Note_off_c, 0, 65, 60
1, 14143, Note_on_c, 0, 81, 64
1, 14175, Note_off_c, 0, 81, 65
1, 14177, Note_on_c, 0, 79, 64
1, 14212, Note_off_c, 0, 79, 65
1, 14238, Note_on_c, 0, 78, 62
1, 14288, Note_on_c, 0, 79, 64
1, 14290, Note_off_c, 0, 78, 62
1, 14320, Note_off_c, 0, 79, 65
1, 14323, Note_on_c, 0, 72, 76
1, 14351, Note_off_c, 0, 72, 67
1, 14507, Note_on_c, 0, 64, 59
1, 14507, Note_on_c, 0, 67, 59
1, 14544, Note_off_c, 0, 67, 64
1, 14544, Note_off_c, 0, 64, 64
1, 14683, Note_on_c, 0, 67, 72
1, 14687, Note_on_c, 0, 64, 68
1, 14710, Note_off_c, 0, 67, 66
1, 14717, Note_off_c, 0, 64, 67
1, 14746, Control_c, 0, 64, 12
1, 14761, Control_c, 0, 64, 15
1, 14775, Control_c, 0, 64, 18
1, 14775, Control_c, 0, 67, 8
1, 14861, Note_on_c, 0, 88, 78
1, 14872, Control_c, 0, 64, 20
1, 15034, Control_c, 0, 64, 22
1, 15042, Note_on_c, 0, 77, 64
1, 15042, Note_off_c, 0, 88, 64
1, 15049, Control_c, 0, 64, 24
1, 15049, Control_c, 0, 67, 8
1, 15064, Control_c, 0, 64, 26
1, 15095, Control_c, 0, 64, 27
1, 15101, Note_off_c, 0, 77, 60
1, 15110, Control_c, 0, 64, 28
1, 15118, Note_on_c, 0, 62, 59
1, 15124, Control_c, 0, 64, 31
1, 15139, Control_c, 0, 64, 32
1, 15154, Control_c, 0, 64, 33
1, 15154, Control_c, 0, 67, 9
1, 15164, Note_off_c, 0, 62, 58
1, 15169, Control_c, 0, 64, 34
1, 15169, Control_c, 0, 67, 9
1, 15184, Control_c, 0, 64, 35
1, 15198, Control_c, 0, 64, 36
1, 15208, Note_on_c, 0, 61, 67
1, 15213, Control_c, 0, 64, 38
1, 15213, Control_c, 0, 67, 10
1, 15228, Control_c, 0, 64, 39
1, 15243, Control_c, 0, 64, 40
1, 15243, Control_c, 0, 67, 11
1, 15257, Control_c, 0, 64, 41
1, 15257, Control_c, 0, 67, 11
1, 15272, Control_c, 0, 64, 42
1, 15272, Control_c, 0, 67, 12
1, 15280, Note_off_c, 0, 61, 61
1, 15287, Control_c, 0, 64, 42
1, 15301, Note_on_c, 0, 62, 67
1, 15302, Control_c, 0, 67, 12
1, 15317, Control_c, 0, 64, 43
1, 15346, Control_c, 0, 67, 13
1, 15355, Note_off_c, 0, 62, 59
1, 15361, Control_c, 0, 64, 44
1, 15361, Control_c, 0, 67, 13
1, 15376, Control_c, 0, 64, 44
1, 15387, Note_on_c, 0, 60, 70
1, 15391, Control_c, 0, 64, 45
1, 15391, Control_c, 0, 67, 14
1, 15406, Control_c, 0, 64, 46
1, 15420, Control_c, 0, 64, 46
1, 15435, Control_c, 0, 67, 14
1, 15450, Control_c, 0, 64, 47
1, 15450, Control_c, 0, 67, 15
1, 15453, Note_off_c, 0, 60, 61
1, 15473, Note_on_c, 0, 59, 61
1, 15495, Control_c, 0, 64, 47
1, 15495, Control_c, 0, 67, 15
1, 15510, Control_c, 0, 67, 16
1, 15530, Note_off_c, 0, 59, 62
1, 15555, Note_on_c, 0, 57, 66
1, 15587, Note_on_c, 0, 86, 71
1, 15620, Control_c, 0, 64, 48
1, 15645, Note_off_c, 0, 57, 61
1, 15651, Note_on_c, 0, 55, 57
1, 15688, Note_off_c, 0, 55, 63
1, 15724, Control_c, 0, 64, 48
1, 15739, Control_c, 0, 64, 49
1, 15754, Note_on_c, 0, 76, 64
1, 15764, Note_off_c, 0, 86, 63
1, 15800, Note_off_c, 0, 76, 56
1, 15828, Control_c, 0, 67, 15
1, 15841, Note_on_c, 0, 60, 57
1, 15842, Control_c, 0, 67, 15
1, 15857, Control_c, 0, 67, 14
1, 15873, Control_c, 0, 64, 48
1, 15873, Control_c, 0, 67, 14
1, 15888, Control_c, 0, 67, 13
1, 15918, Control_c, 0, 67, 12
1, 15930, Note_on_c, 0, 62, 68
1, 15933, Control_c, 0, 64, 48
1, 15933, Control_c, 0, 67, 12
1, 15947, Control_c, 0, 67, 11
1, 15955, Note_off_c, 0, 60, 55
1, 15962, Control_c, 0, 64, 47
1, 15962, Control_c, 0, 67, 11
1, 15977, Control_c, 0, 64, 47
1, 15977, Control_c, 0, 67, 10
1, 15992, Control_c, 0, 64, 46
1, 15992, Control_c, 0, 67, 9
1, 16007, Control_c, 0, 64, 45
1, 16014, Note_on_c, 0, 64, 74
1, 16021, Control_c, 0, 64, 45
1, 16021, Control_c, 0, 67, 8
1, 16022, Note_off_c, 0, 62, 56
1, 16036, Control_c, 0, 64, 44
1, 16051, Control_c, 0, 64, 42
1, 16051, Control_c, 0, 67, 8
1, 16065, Control_c, 0, 64, 42
1, 16080, Control_c, 0, 64, 41
1, 16093, Note_off_c, 0, 64, 64
1, 16095, Control_c, 0, 64, 40
1, 16105, Note_on_c, 0, 65, 80
1, 16110, Control_c, 0, 64, 38
1, 16125, Control_c, 0, 64, 37
1, 16158, Note_off_c, 0, 65, 63
1, 16169, Control_c, 0, 64, 36
1, 16200, Note_on_c, 0, 67, 66
1, 16249, Note_off_c, 0, 67, 55
1, 16264, Note_on_c, 0, 84, 80
1, 16282, Note_on_c, 0, 68, 69
1, 16332, Note_off_c, 0, 68, 59
1, 16392, Note_on_c, 0, 69, 59
1, 16413, Control_c, 0, 64, 35
1, 16446, Note_off_c, 0, 69, 57
1, 16453, Note_off_c, 0, 84, 59
1, 16464, Note_on_c, 0, 74, 69
1, 16482, Note_on_c, 0, 65, 51
1, 16491, Note_off_c, 0, 74, 68
1, 16547, Control_c, 0, 67, 8
1, 16638, Note_on_c, 0, 81, 89
1, 16643, Note_on_c, 0, 77, 73
1, 16675, Note_off_c, 0, 77, 63
1, 16681, Control_c, 0, 64, 36
1, 16681, Control_c, 0, 67, 9
1, 16691, Note_off_c, 0, 81, 66
1, 16696, Control_c, 0, 64, 37
1, 16711, Control_c, 0, 64, 38
1, 16726, Control_c, 0, 64, 39
1, 16755, Control_c, 0, 64, 40
1, 16755, Control_c, 0, 67, 9
1, 16761, Note_off_c, 0, 65, 63
1, 16839, Note_on_c, 0, 76, 75
1, 16839, Note_on_c, 0, 79, 75
1, 17023, Note_off_c, 0, 76, 63
1, 17024, Note_on_c, 0, 71, 70
1, 17030, Note_off_c, 0, 79, 61
1, 17033, Note_on_c, 0, 67, 47
1, 17068, Note_off_c, 0, 71, 64
1, 17132, Control_c, 0, 64, 39
1, 17180, Note_off_c, 0, 67, 59
1, 17197, Note_on_c, 0, 72, 82
1, 17209, Note_on_c, 0, 64, 55
1, 17215, Note_on_c, 0, 60, 46
1, 17221, Control_c, 0, 64, 38
1, 17223, Note_off_c, 0, 72, 68
1, 17255, Note_off_c, 0, 64, 58
1, 17260, Note_off_c, 0, 60, 56
1, 17266, Control_c, 0, 64, 38
1, 17281, Control_c, 0, 64, 37
1, 17295, Control_c, 0, 64, 35
1, 17310, Note_on_c, 0, 67, 47
1, 17369, Note_off_c, 0, 67, 57
1, 17388, Note_on_c, 0, 72, 77
1, 17403, Note_on_c, 0, 64, 45
1, 17406, Note_on_c, 0, 60, 39
1, 17420, Note_off_c, 0, 72, 64
1, 17447, Note_off_c, 0, 64, 60
1, 17460, Note_off_c, 0, 60, 59
1, 17491, Note_on_c, 0, 67, 46
1, 17535, Note_off_c, 0, 67, 61
1, 17573, Note_on_c, 0, 60, 49
1, 17574, Note_on_c, 0, 64, 46
1, 17593, Control_c, 0, 67, 10
1, 17617, Note_off_c, 0, 64, 62
1, 17623, Note_off_c, 0, 60, 58
1, 17645, Note_on_c, 0, 67, 50
1, 17714, Note_off_c, 0, 67, 60
1, 17726, Note_on_c, 0, 81, 70
1, 17752, Note_on_c, 0, 60, 40
1, 17755, Note_on_c, 0, 64, 44
1, 17769, Note_off_c, 0, 81, 63
1, 17773, Note_on_c, 0, 79, 67
1, 17803, Note_off_c, 0, 64, 60
1, 17811, Note_off_c, 0, 79, 65
1, 17814, Note_off_c, 0, 60, 55
1, 17829, Note_on_c, 0, 78, 68
1, 17850, Note_on_c, 0, 67, 47
1, 17880, Note_on_c, 0, 79, 76
1, 17883, Note_off_c, 0, 67, 60
1, 17902, Note_off_c, 0, 78, 63
1, 17912, Control_c, 0, 67, 9
1, 17919, Note_on_c, 0, 60, 51
1, 17928, Note_on_c, 0, 71, 76
1, 17931, Note_on_c, 0, 65, 52
1, 17931, Note_off_c, 0, 79, 62
1, 17934, Note_on_c, 0, 62, 51
1, 17956, Control_c, 0, 64, 34
1, 17963, Note_off_c, 0, 71, 66
1, 17970, Control_c, 0, 64, 33
1, 17973, Note_off_c, 0, 65, 62
1, 17981, Note_off_c, 0, 60, 54
1, 17981, Note_off_c, 0, 62, 56
1, 17985, Control_c, 0, 64, 32
1, 18000, Control_c, 0, 64, 30
1, 18015, Control_c, 0, 64, 28
1, 18018, Note_on_c, 0, 67, 46
1, 18030, Control_c, 0, 64, 27
1, 18030, Control_c, 0, 67, 9
1, 18044, Control_c, 0, 64, 24
1, 18044, Control_c, 0, 67, 8
1, 18059, Control_c, 0, 64, 22
1, 18071, Note_off_c, 0, 67, 59
1, 18089, Control_c, 0, 64, 20
1, 18109, Note_on_c, 0, 71, 69
1, 18116, Note_on_c, 0, 60, 45
1, 18124, Note_on_c, 0, 65, 50
1, 18129, Note_on_c, 0, 62, 44
1, 18142, Note_off_c, 0, 71, 65
1, 18164, Note_off_c, 0, 65, 63
1, 18170, Note_off_c, 0, 62, 61
1, 18171, Note_off_c, 0, 60, 57
1, 18178, Control_c, 0, 67, 9
1, 18193, Control_c, 0, 67, 9
1, 18202, Note_on_c, 0, 67, 51
1, 18222, Control_c, 0, 67, 10
1, 18251, Note_off_c, 0, 67, 60
1, 18252, Control_c, 0, 67, 10
1, 18267, Control_c, 0, 67, 11
1, 18282, Note_on_c, 0, 60, 55
1, 18282, Control_c, 0, 64, 22
1, 18288, Note_on_c, 0, 65, 57
1, 18291, Note_on_c, 0, 62, 50
1, 18297, Control_c, 0, 67, 12
1, 18312, Control_c, 0, 64, 24
1, 18327, Control_c, 0, 64, 27
1, 18327, Control_c, 0, 67, 12
1, 18328, Note_off_c, 0, 65, 63
1, 18329, Note_off_c, 0, 62, 62
1, 18341, Note_off_c, 0, 60, 55
1, 18357, Control_c, 0, 64, 28
1, 18357, Control_c, 0, 67, 13
1, 18376, Note_on_c, 0, 67, 56
1, 18419, Note_off_c, 0, 67, 60
1, 18445, Note_on_c, 0, 81, 80
1, 18460, Note_on_c, 0, 60, 50
1, 18467, Note_on_c, 0, 65, 48
1, 18476, Note_on_c, 0, 62, 41
1, 18481, Note_off_c, 0, 81, 64
1, 18492, Note_on_c, 0, 79, 68
1, 18504, Note_off_c, 0, 65, 55
1, 18512, Note_off_c, 0, 62, 60
1, 18513, Note_off_c, 0, 60, 55
1, 18522, Note_off_c, 0, 79, 66
1, 18529, Note_on_c, 0, 78, 76
1, 18558, Note_on_c, 0, 67, 56
1, 18577, Note_off_c, 0, 78, 63
1, 18592, Note_on_c, 0, 79, 80
1, 18601, Control_c, 0, 64, 30
1, 18615, Note_off_c, 0, 67, 55
1, 18616, Control_c, 0, 64, 39
1, 18631, Control_c, 0, 64, 51
1, 18646, Note_off_c, 0, 79, 64
1, 18646, Control_c, 0, 64, 60
1, 18647, Note_on_c, 0, 84, 89
1, 18661, Control_c, 0, 64, 64
1, 18661, Control_c, 0, 67, 12
1, 18661, Note_on_c, 0, 60, 57
1, 18667, Note_on_c, 0, 64, 54
1, 18675, Control_c, 0, 64, 68
1, 18675, Control_c, 0, 67, 10
1, 18690, Control_c, 0, 64, 76
1, 18690, Control_c, 0, 67, 8
1, 18705, Control_c, 0, 64, 83
1, 18705, Control_c, 0, 67, 0
1, 18716, Note_off_c, 0, 64, 54
1, 18720, Control_c, 0, 64, 87
1, 18735, Control_c, 0, 64, 89
1, 18743, Note_off_c, 0, 60, 52
1, 18749, Control_c, 0, 64, 92
1, 18764, Control_c, 0, 64, 94
1, 18776, Note_on_c, 0, 67, 45
1, 18779, Control_c, 0, 64, 96
1, 18793, Control_c, 0, 64, 99
1, 18808, Control_c, 0, 64, 101
1, 18823, Control_c, 0, 64, 104
1, 18838, Control_c, 0, 64, 107
1, 18847, Note_off_c, 0, 67, 61
1, 18853, Control_c, 0, 64, 112
1, 18854, Note_off_c, 0, 84, 65
1, 18856, Note_on_c, 0, 88, 78
1, 18867, Control_c, 0, 64, 124
1, 18869, Note_on_c, 0, 60, 55
1, 18881, Note_on_c, 0, 64, 44
1, 18882, Control_c, 0, 64, 127
1, 18899, Note_off_c, 0, 88, 66
1, 18932, Note_off_c, 0, 60, 46
1, 18934, Note_off_c, 0, 64, 55
1, 18956, Control_c, 0, 67, 8
1, 18971, Control_c, 0, 67, 11
1, 18974, Note_on_c, 0, 67, 54
1, 18986, Control_c, 0, 67, 15
1, 19000, Control_c, 0, 67, 18
1, 19015, Control_c, 0, 67, 23
1, 19021, Note_off_c, 0, 67, 59
1, 19030, Control_c, 0, 67, 31
1, 19045, Control_c, 0, 67, 41
1, 19054, Note_on_c, 0, 64, 52
1, 19060, Control_c, 0, 67, 52
1, 19065, Note_on_c, 0, 60, 50
1, 19076, Control_c, 0, 67, 63
1, 19090, Control_c, 0, 67, 72
1, 19105, Control_c, 0, 67, 80
1, 19115, Note_off_c, 0, 64, 57
1, 19118, Note_off_c, 0, 60, 55
1, 19120, Control_c, 0, 67, 91
1, 19135, Control_c, 0, 64, 124
1, 19135, Control_c, 0, 67, 101
1, 19144, Note_on_c, 0, 79, 62
1, 19147, Note_on_c, 0, 67, 53
1, 19150, Control_c, 0, 64, 105
1, 19150, Control_c, 0, 67, 111
1, 19161, Note_off_c, 0, 79, 64
1, 19164, Control_c, 0, 64, 94
1, 19164, Control_c, 0, 67, 121
1, 19179, Control_c, 0, 64, 85
1, 19179, Control_c, 0, 67, 127
1, 19194, Note_off_c, 0, 67, 59
1, 19194, Control_c, 0, 64, 73
1, 19197, Note_on_c, 0, 81, 70
1, 19209, Control_c, 0, 64, 63
1, 19224, Control_c, 0, 64, 0
1, 19226, Note_on_c, 0, 60, 48
1, 19229, Note_on_c, 0, 64, 52
1, 19249, Note_on_c, 0, 79, 62
1, 19250, Note_off_c, 0, 81, 65
1, 19272, Note_off_c, 0, 64, 62
1, 19275, Note_off_c, 0, 60, 54
1, 19293, Note_off_c, 0, 79, 66
1, 19308, Note_on_c, 0, 67, 53
1, 19313, Note_on_c, 0, 78, 65
1, 19357, Note_off_c, 0, 67, 58
1, 19368, Note_on_c, 0, 79, 72
1, 19378, Note_off_c, 0, 78, 62
1, 19401, Note_off_c, 0, 79, 64
1, 19402, Note_on_c, 0, 60, 51
1, 19406, Note_on_c, 0, 71, 69
1, 19416, Note_on_c, 0, 65, 44
1, 19424, Note_on_c, 0, 62, 42
1, 19439, Note_off_c, 0, 71, 66
1, 19456, Note_off_c, 0, 65, 59
1, 19461, Note_off_c, 0, 60, 52
1, 19462, Note_off_c, 0, 62, 59
1, 19495, Note_on_c, 0, 67, 49
1, 19543, Note_off_c, 0, 67, 59
1, 19592, Note_on_c, 0, 60, 47
1, 19592, Note_on_c, 0, 71, 67
1, 19609, Note_on_c, 0, 65, 37
1, 19619, Note_on_c, 0, 62, 25
1, 19621, Note_off_c, 0, 71, 67
1, 19644, Note_off_c, 0, 65, 54
1, 19649, Note_off_c, 0, 60, 55
1, 19652, Note_off_c, 0, 62, 49
1, 19690, Note_on_c, 0, 67, 42
1, 19732, Note_off_c, 0, 67, 59
1, 19768, Note_on_c, 0, 60, 47
1, 19781, Note_on_c, 0, 65, 38
1, 19783, Note_on_c, 0, 62, 30
1, 19820, Note_off_c, 0, 65, 57
1, 19823, Note_off_c, 0, 62, 59
1, 19826, Note_off_c, 0, 60, 53
1, 19862, Note_on_c, 0, 79, 68
1, 19865, Note_on_c, 0, 67, 54
1, 19892, Note_off_c, 0, 79, 65
1, 19913, Note_off_c, 0, 67, 60
1, 19932, Note_on_c, 0, 81, 75
1, 19946, Note_on_c, 0, 65, 44
1, 19954, Note_on_c, 0, 62, 36
1, 19954, Note_on_c, 0, 60, 44
1, 19966, Note_off_c, 0, 81, 65
1, 19973, Note_on_c, 0, 79, 59
1, 19987, Note_off_c, 0, 62, 58
1, 19990, Note_off_c, 0, 65, 60
1, 19993, Note_off_c, 0, 60, 55
1, 20010, Note_off_c, 0, 79, 66
1, 20020, Note_on_c, 0, 78, 75
1, 20026, Note_on_c, 0, 67, 57
1, 20053, Note_off_c, 0, 78, 68
1, 20082, Note_on_c, 0, 79, 68
1, 20095, Note_off_c, 0, 67, 56
1, 20123, Note_off_c, 0, 79, 61
1, 20133, Note_on_c, 0, 84, 77
1, 20136, Note_on_c, 0, 60, 49
1, 20146, Note_on_c, 0, 64, 51
1, 20187, Note_off_c, 0, 64, 61
1, 20194, Note_off_c, 0, 60, 52
1, 20238, Note_on_c, 0, 67, 43
1, 20304, Note_off_c, 0, 67, 59
1, 20321, Control_c, 0, 64, 20
1, 20328, Note_off_c, 0, 84, 65
1, 20332, Note_on_c, 0, 60, 43
1, 20334, Note_on_c, 0, 88, 69
1, 20336, Control_c, 0, 64, 51
1, 20344, Note_on_c, 0, 64, 41
1, 20351, Control_c, 0, 64, 62
1, 20365, Control_c, 0, 64, 65
1, 20380, Control_c, 0, 64, 67
1, 20382, Note_off_c, 0, 88, 64
1, 20391, Note_off_c, 0, 64, 59
1, 20395, Control_c, 0, 64, 68
1, 20399, Note_off_c, 0, 60, 51
1, 20425, Control_c, 0, 64, 68
1, 20432, Note_on_c, 0, 67, 53
1, 20439, Control_c, 0, 64, 67
1, 20454, Control_c, 0, 64, 67
1, 20469, Control_c, 0, 64, 66
1, 20475, Note_off_c, 0, 67, 59
1, 20483, Control_c, 0, 64, 66
1, 20498, Control_c, 0, 64, 65
1, 20513, Control_c, 0, 64, 65
1, 20516, Note_on_c, 0, 60, 55
1, 20517, Note_on_c, 0, 64, 46
1, 20528, Control_c, 0, 64, 64
1, 20543, Control_c, 0, 64, 64
1, 20557, Control_c, 0, 64, 63
1, 20572, Note_off_c, 0, 60, 51
1, 20572, Control_c, 0, 64, 63
1, 20577, Note_off_c, 0, 64, 53
1, 20587, Control_c, 0, 64, 62
1, 20602, Control_c, 0, 64, 61
1, 20615, Note_on_c, 0, 67, 48
1, 20617, Control_c, 0, 64, 60
1, 20622, Note_on_c, 0, 79, 55
1, 20631, Control_c, 0, 64, 58
1, 20640, Note_off_c, 0, 79, 61
1, 20646, Control_c, 0, 64, 53
1, 20658, Note_off_c, 0, 67, 60
1, 20662, Control_c, 0, 64, 43
1, 20677, Note_on_c, 0, 81, 72
1, 20677, Control_c, 0, 64, 28
1, 20692, Control_c, 0, 64, 0
1, 20696, Note_on_c, 0, 60, 54
1, 20696, Note_on_c, 0, 64, 55
1, 20722, Note_on_c, 0, 79, 63
1, 20726, Note_off_c, 0, 81, 64
1, 20741, Note_off_c, 0, 64, 58
1, 20748, Note_off_c, 0, 60, 52
1, 20760, Note_off_c, 0, 79, 64
1, 20774, Note_on_c, 0, 67, 58
1, 20788, Note_on_c, 0, 78, 68
1, 20825, Note_on_c, 0, 79, 75
1, 20828, Note_off_c, 0, 67, 59
1, 20849, Note_off_c, 0, 78, 64
1, 20865, Note_on_c, 0, 60, 61
1, 20873, Note_on_c, 0, 71, 80
1, 20876, Note_on_c, 0, 65, 57
1, 20876, Note_off_c, 0, 79, 64
1, 20881, Note_on_c, 0, 62, 56
1, 20907, Note_off_c, 0, 71, 66
1, 20918, Note_off_c, 0, 65, 62
1, 20920, Note_off_c, 0, 62, 59
1, 20930, Note_off_c, 0, 60, 59
1, 20936, Control_c, 0, 67, 122
1, 20951, Control_c, 0, 67, 111
1, 20959, Note_on_c, 0, 67, 55
1, 20966, Control_c, 0, 67, 99
1, 20981, Control_c, 0, 67, 88
1, 20995, Control_c, 0, 67, 76
1, 21007, Note_off_c, 0, 67, 59
1, 21010, Control_c, 0, 67, 63
1, 21025, Control_c, 0, 67, 54
1, 21040, Control_c, 0, 67, 48
1, 21055, Control_c, 0, 67, 44
1, 21058, Note_on_c, 0, 71, 71
1, 21063, Note_on_c, 0, 60, 51
1, 21069, Control_c, 0, 67, 42
1, 21072, Note_on_c, 0, 65, 50
1, 21082, Note_on_c, 0, 62, 43
1, 21084, Control_c, 0, 67, 41
1, 21088, Note_off_c, 0, 71, 66
1, 21099, Control_c, 0, 67, 40
1, 21109, Note_off_c, 0, 65, 64
1, 21114, Note_off_c, 0, 60, 57
1, 21114, Note_off_c, 0, 62, 58
1, 21129, Control_c, 0, 67, 40
1, 21144, Control_c, 0, 67, 39
1, 21150, Note_on_c, 0, 67, 47
1, 21159, Control_c, 0, 67, 39
1, 21174, Control_c, 0, 67, 38
1, 21188, Control_c, 0, 67, 38
1, 21197, Note_off_c, 0, 67, 59
1, 21203, Control_c, 0, 67, 37
1, 21218, Control_c, 0, 67, 36
1, 21233, Control_c, 0, 67, 36
1, 21233, Note_on_c, 0, 60, 50
1, 21242, Note_on_c, 0, 65, 49
1, 21248, Control_c, 0, 67, 35
1, 21252, Note_on_c, 0, 62, 36
1, 21262, Control_c, 0, 67, 34
1, 21277, Control_c, 0, 67, 32
1, 21282, Note_off_c, 0, 65, 62
1, 21285, Note_off_c, 0, 62, 55
1, 21287, Note_off_c, 0, 60, 55
1, 21292, Control_c, 0, 67, 31
1, 21306, Control_c, 0, 67, 29
1, 21321, Control_c, 0, 67, 28
1, 21332, Note_on_c, 0, 67, 44
1, 21336, Control_c, 0, 67, 27
1, 21351, Control_c, 0, 67, 26
1, 21366, Control_c, 0, 67, 25
1, 21374, Note_off_c, 0, 67, 60
1, 21380, Control_c, 0, 67, 23
1, 21395, Control_c, 0, 67, 22
1, 21410, Control_c, 0, 67, 21
1, 21414, Note_on_c, 0, 60, 48
1, 21415, Note_on_c, 0, 81, 70
1, 21425, Control_c, 0, 67, 20
1, 21432, Note_on_c, 0, 65, 35
1, 21440, Note_on_c, 0, 62, 20
1, 21440, Control_c, 0, 67, 19
1, 21451, Note_off_c, 0, 81, 65
1, 21456, Control_c, 0, 67, 18
1, 21462, Note_on_c, 0, 79, 66
1, 21471, Control_c, 0, 67, 17
1, 21472, Note_off_c, 0, 60, 53
1, 21474, Note_off_c, 0, 65, 50
1, 21478, Note_off_c, 0, 62, 45
1, 21485, Control_c, 0, 67, 16
1, 21496, Note_off_c, 0, 79, 65
1, 21500, Control_c, 0, 67, 14
1, 21503, Note_on_c, 0, 67, 50
1, 21515, Note_on_c, 0, 78, 60
1, 21515, Control_c, 0, 67, 13
1, 21537, Control_c, 0, 67, 12
1, 21552, Control_c, 0, 67, 10
1, 21563, Note_on_c, 0, 79, 64
1, 21567, Control_c, 0, 67, 9
1, 21579, Note_off_c, 0, 67, 59
1, 21582, Control_c, 0, 67, 8
1, 21587, Note_off_c, 0, 78, 59
1, 21606, Note_on_c, 0, 60, 51
1, 21608, Note_on_c, 0, 72, 75
1, 21618, Note_off_c, 0, 79, 63
1, 21623, Note_on_c, 0, 64, 40
1, 21641, Control_c, 0, 67, 8
1, 21659, Note_off_c, 0, 64, 52
1, 21661, Note_off_c, 0, 60, 54
1, 21703, Note_on_c, 0, 67, 53
1, 21758, Note_off_c, 0, 67, 57
1, 21779, Note_off_c, 0, 72, 55
1, 21790, Note_on_c, 0, 60, 49
1, 21797, Note_on_c, 0, 64, 41
1, 21800, Note_on_c, 0, 81, 57
1, 21828, Note_off_c, 0, 81, 67
1, 21832, Note_on_c, 0, 79, 64
1, 21837, Note_off_c, 0, 64, 63
1, 21842, Note_off_c, 0, 60, 56
1, 21859, Note_off_c, 0, 79, 66
1, 21878, Note_on_c, 0, 67, 53
1, 21883, Note_on_c, 0, 78, 59
1, 21929, Note_off_c, 0, 67, 56
1, 21930, Note_on_c, 0, 79, 68
1, 21934, Note_off_c, 0, 78, 58
1, 21978, Note_off_c, 0, 79, 61
1, 21984, Note_on_c, 0, 74, 56
1, 21985, Note_on_c, 0, 59, 54
1, 21988, Note_on_c, 0, 62, 44
1, 22030, Note_off_c, 0, 59, 57
1, 22035, Note_off_c, 0, 62, 57
1, 22069, Note_on_c, 0, 67, 49
1, 22112, Note_off_c, 0, 74, 58
1, 22130, Note_off_c, 0, 67, 59
1, 22149, Note_on_c, 0, 81, 58
1, 22160, Note_on_c, 0, 59, 50
1, 22170, Note_on_c, 0, 62, 43
1, 22180, Note_off_c, 0, 81, 67
1, 22191, Note_on_c, 0, 79, 60
1, 22203, Note_off_c, 0, 62, 61
1, 22208, Note_off_c, 0, 59, 58
1, 22217, Note_off_c, 0, 79, 66
1, 22238, Note_on_c, 0, 78, 61
1, 22250, Note_on_c, 0, 67, 54
1, 22294, Note_on_c, 0, 79, 68
1, 22300, Note_off_c, 0, 78, 52
1, 22317, Note_off_c, 0, 67, 56
1, 22347, Note_off_c, 0, 79, 62
1, 22356, Note_on_c, 0, 76, 70
1, 22360, Note_on_c, 0, 60, 51
1, 22361, Note_on_c, 0, 64, 48
1, 22408, Note_off_c, 0, 60, 59
1, 22414, Note_off_c, 0, 64, 58
1, 22440, Note_on_c, 0, 67, 54
1, 22495, Note_off_c, 0, 76, 60
1, 22503, Note_off_c, 0, 67, 59
1, 22518, Note_on_c, 0, 81, 60
1, 22528, Note_on_c, 0, 60, 52
1, 22530, Note_on_c, 0, 64, 51
1, 22550, Note_off_c, 0, 81, 64
1, 22561, Note_on_c, 0, 79, 58
1, 22578, Note_off_c, 0, 64, 60
1, 22581, Note_off_c, 0, 60, 53
1, 22589, Note_off_c, 0, 79, 66
1, 22612, Note_on_c, 0, 78, 59
1, 22613, Note_on_c, 0, 67, 57
1, 22655, Note_on_c, 0, 79, 68
1, 22665, Note_off_c, 0, 67, 55
1, 22669, Note_off_c, 0, 78, 60
1, 22700, Control_c, 0, 67, 0
1, 22715, Note_off_c, 0, 79, 63
1, 22716, Note_on_c, 0, 62, 50
1, 22718, Note_on_c, 0, 71, 70
1, 22724, Note_on_c, 0, 65, 46
1, 22767, Note_off_c, 0, 62, 56
1, 22769, Note_off_c, 0, 65, 60
1, 22801, Note_on_c, 0, 67, 51
1, 22837, Note_off_c, 0, 71, 60
1, 22863, Note_off_c, 0, 67, 59
1, 22891, Note_on_c, 0, 81, 57
1, 22903, Note_on_c, 0, 65, 41
1, 22907, Note_on_c, 0, 62, 42
1, 22923, Note_off_c, 0, 81, 67
1, 22935, Note_on_c, 0, 79, 58
1, 22942, Note_off_c, 0, 65, 57
1, 22944, Note_off_c, 0, 62, 59
1, 22959, Note_off_c, 0, 79, 66
1, 22974, Note_on_c, 0, 78, 64
1, 22986, Note_on_c, 0, 67, 58
1, 23025, Note_on_c, 0, 79, 74
1, 23044, Note_off_c, 0, 67, 57
1, 23046, Note_off_c, 0, 78, 61
1, 23089, Note_off_c, 0, 79, 63
1, 23091, Note_on_c, 0, 64, 57
1, 23095, Note_on_c, 0, 72, 77
1, 23144, Note_off_c, 0, 64, 57
1, 23174, Note_on_c, 0, 67, 53
1, 23204, Note_off_c, 0, 72, 56
1, 23243, Note_off_c, 0, 67, 60
1, 23256, Note_on_c, 0, 81, 68
1, 23269, Note_on_c, 0, 64, 58
1, 23292, Note_off_c, 0, 81, 65
1, 23301, Note_on_c, 0, 79, 61
1, 23317, Note_off_c, 0, 64, 58
1, 23329, Note_off_c, 0, 79, 65
1, 23353, Note_on_c, 0, 78, 62
1, 23367, Note_on_c, 0, 67, 54
1, 23397, Note_on_c, 0, 79, 71
1, 23410, Note_off_c, 0, 67, 59
1, 23415, Note_off_c, 0, 78, 62
1, 23454, Note_off_c, 0, 79, 62
1, 23461, Note_on_c, 0, 62, 55
1, 23464, Note_on_c, 0, 74, 69
1, 23469, Note_on_c, 0, 59, 51
1, 23508, Note_off_c, 0, 59, 61
1, 23524, Note_off_c, 0, 62, 52
1, 23549, Note_on_c, 0, 67, 57
1, 23561, Note_off_c, 0, 74, 58
1, 23594, Note_off_c, 0, 67, 61
1, 23626, Note_on_c, 0, 81, 56
1, 23634, Note_on_c, 0, 59, 39
1, 23653, Note_on_c, 0, 62, 26
1, 23654, Note_off_c, 0, 81, 61
1, 23660, Note_on_c, 0, 79, 62
1, 23671, Note_off_c, 0, 59, 54
1, 23681, Note_off_c, 0, 62, 44
1, 23687, Note_off_c, 0, 79, 65
1, 23699, Note_on_c, 0, 67, 51
1, 23719, Note_on_c, 0, 78, 54
1, 23723, Note_off_c, 0, 67, 63
1, 23762, Note_on_c, 0, 79, 67
1, 23775, Note_off_c, 0, 78, 59
1, 23810, Note_off_c, 0, 79, 59
1, 23831, Note_on_c, 0, 76, 68
1, 23943, Note_on_c, 0, 60, 53
1, 24009, Note_off_c, 0, 60, 59
1, 24035, Note_on_c, 0, 64, 61
1, 24065, Note_off_c, 0, 76, 59
1, 24081, Note_off_c, 0, 64, 56
1, 24116, Note_on_c, 0, 67, 68
1, 24199, Note_off_c, 0, 67, 60
1, 24216, Note_on_c, 0, 72, 79
1, 24312, Note_on_c, 0, 76, 80
1, 24335, Note_off_c, 0, 72, 57
1, 24378, Control_c, 0, 67, 8
1, 24402, Note_on_c, 0, 79, 81
1, 24410, Note_off_c, 0, 76, 63
1, 24451, Control_c, 0, 67, 8
1, 24481, Note_on_c, 0, 84, 83
1, 24489, Note_off_c, 0, 79, 62
1, 24533, Control_c, 0, 67, 9
1, 24563, Control_c, 0, 64, 42
1, 24578, Control_c, 0, 64, 60
1, 24578, Control_c, 0, 67, 9
1, 24593, Control_c, 0, 64, 67
1, 24602, Note_on_c, 0, 88, 86
1, 24608, Control_c, 0, 64, 74
1, 24608, Control_c, 0, 67, 10
1, 24622, Control_c, 0, 64, 81
1, 24637, Note_off_c, 0, 84, 57
1, 24637, Control_c, 0, 64, 86
1, 24637, Control_c, 0, 67, 10
1, 24652, Control_c, 0, 64, 89
1, 24667, Control_c, 0, 64, 92
1, 24682, Control_c, 0, 64, 98
1, 24682, Control_c, 0, 67, 11
1, 24697, Control_c, 0, 64, 103
1, 24712, Control_c, 0, 64, 109
1, 24712, Control_c, 0, 67, 11
1, 24727, Control_c, 0, 64, 115
1, 24727, Control_c, 0, 67, 12
1, 24742, Control_c, 0, 64, 121
1, 24756, Control_c, 0, 64, 127
1, 24831, Control_c, 0, 67, 12
1, 24875, Control_c, 0, 67, 13
1, 24879, Note_on_c, 0, 86, 71
1, 24882, Note_on_c, 0, 83, 71
1, 24900, Note_off_c, 0, 88, 59
1, 24913, Note_off_c, 0, 83, 64
1, 24962, Note_off_c, 0, 86, 59
1, 24963, Control_c, 0, 67, 13
1, 24968, Note_on_c, 0, 84, 73
1, 24970, Note_on_c, 0, 81, 83
1, 24993, Note_off_c, 0, 84, 67
1, 25013, Note_off_c, 0, 81, 63
1, 25061, Note_on_c, 0, 83, 88
1, 25070, Note_on_c, 0, 79, 77
1, 25093, Note_off_c, 0, 79, 66
1, 25150, Note_on_c, 0, 77, 87
1, 25158, Note_on_c, 0, 81, 81
1, 25174, Note_off_c, 0, 83, 61
1, 25222, Note_on_c, 0, 79, 63
1, 25234, Note_on_c, 0, 76, 78
1, 25234, Note_off_c, 0, 77, 61
1, 25237, Note_off_c, 0, 81, 65
1, 25255, Note_off_c, 0, 79, 65
1, 25284, Note_off_c, 0, 76, 66
1, 25311, Control_c, 0, 64, 116
1, 25326, Control_c, 0, 64, 106
1, 25338, Note_on_c, 0, 77, 81
1, 25341, Control_c, 0, 64, 99
1, 25344, Note_on_c, 0, 74, 70
1, 25355, Control_c, 0, 64, 92
1, 25370, Control_c, 0, 64, 85
1, 25385, Control_c, 0, 64, 76
1, 25400, Control_c, 0, 64, 67
1, 25414, Control_c, 0, 64, 55
1, 25429, Control_c, 0, 64, 26
1, 25441, Note_on_c, 0, 61, 62
1, 25444, Control_c, 0, 64, 0
1, 25524, Note_off_c, 0, 61, 60
1, 25526, Note_on_c, 0, 62, 65
1, 25601, Note_off_c, 0, 62, 60
1, 25617, Note_on_c, 0, 64, 69
1, 25665, Note_off_c, 0, 64, 61
1, 25702, Note_on_c, 0, 65, 76
1, 25774, Note_off_c, 0, 65, 51
1, 25801, Note_on_c, 0, 64, 59
1, 25828, Note_off_c, 0, 74, 56
1, 25860, Control_c, 0, 67, 13
1, 25865, Note_on_c, 0, 72, 65
1, 25866, Note_on_c, 0, 76, 63
1, 25866, Note_off_c, 0, 64, 62
1, 25873, Note_on_c, 0, 65, 61
1, 25901, Note_off_c, 0, 77, 56
1, 25918, Note_off_c, 0, 65, 60
1, 25961, Note_on_c, 0, 66, 66
1, 25975, Note_off_c, 0, 72, 57
1, 25997, Note_off_c, 0, 66, 66
1, 26044, Note_off_c, 0, 76, 63
1, 26054, Note_on_c, 0, 71, 57
1, 26059, Note_on_c, 0, 74, 58
1, 26066, Note_on_c, 0, 67, 53
1, 26083, Note_off_c, 0, 71, 65
1, 26093, Note_off_c, 0, 74, 65
1, 26103, Note_off_c, 0, 67, 64
1, 26146, Note_on_c, 0, 55, 63
1, 26217, Note_off_c, 0, 55, 61
1, 26223, Control_c, 0, 67, 13
1, 26248, Note_on_c, 0, 67, 70
1, 26286, Note_off_c, 0, 67, 64
1, 26324, Note_on_c, 0, 79, 81
1, 26328, Control_c, 0, 67, 14
1, 26333, Note_on_c, 0, 76, 73
1, 26372, Control_c, 0, 67, 15
1, 26390, Note_off_c, 0, 76, 52
1, 26393, Note_off_c, 0, 79, 60
1, 26402, Control_c, 0, 67, 15
1, 26413, Note_on_c, 0, 75, 75
1, 26413, Note_on_c, 0, 78, 71
1, 26416, Control_c, 0, 67, 16
1, 26431, Control_c, 0, 67, 16
1, 26446, Control_c, 0, 67, 17
1, 26460, Control_c, 0, 67, 18
1, 26462, Note_off_c, 0, 75, 64
1, 26475, Control_c, 0, 67, 19
1, 26490, Control_c, 0, 67, 20
1, 26491, Note_on_c, 0, 79, 82
1, 26494, Note_on_c, 0, 76, 74
1, 26505, Control_c, 0, 67, 21
1, 26517, Note_off_c, 0, 78, 61
1, 26520, Control_c, 0, 67, 23
1, 26534, Control_c, 0, 67, 26
1, 26549, Control_c, 0, 67, 31
1, 26564, Control_c, 0, 67, 35
1, 26569, Note_off_c, 0, 76, 41
1, 26578, Note_on_c, 0, 81, 87
1, 26579, Note_off_c, 0, 79, 61
1, 26579, Control_c, 0, 67, 40
1, 26587, Note_on_c, 0, 77, 77
1, 26594, Control_c, 0, 67, 45
1, 26608, Control_c, 0, 67, 49
1, 26623, Control_c, 0, 67, 54
1, 26632, Note_off_c, 0, 77, 60
1, 26638, Control_c, 0, 67, 60
1, 26652, Control_c, 0, 67, 66
1, 26667, Control_c, 0, 67, 71
1, 26670, Note_on_c, 0, 79, 73
1, 26670, Note_on_c, 0, 76, 73
1, 26674, Note_off_c, 0, 81, 60
1, 26682, Control_c, 0, 67, 76
1, 26697, Control_c, 0, 67, 79
1, 26700, Note_off_c, 0, 76, 61
1, 26712, Control_c, 0, 67, 81
1, 26723, Note_off_c, 0, 79, 51
1, 26727, Control_c, 0, 67, 83
1, 26742, Control_c, 0, 67, 86
1, 26757, Control_c, 0, 67, 89
1, 26759, Note_on_c, 0, 77, 69
1, 26775, Note_on_c, 0, 74, 58
1, 26778, Control_c, 0, 67, 93
1, 26793, Control_c, 0, 67, 97
1, 26804, Note_off_c, 0, 74, 66
1, 26808, Control_c, 0, 67, 100
1, 26821, Note_off_c, 0, 77, 58
1, 26823, Control_c, 0, 67, 104
1, 26838, Control_c, 0, 67, 107
1, 26852, Control_c, 0, 67, 111
1, 26867, Control_c, 0, 67, 115
1, 26882, Control_c, 0, 67, 119
1, 26885, Note_on_c, 0, 67, 55
1, 26897, Control_c, 0, 67, 123
1, 26912, Control_c, 0, 67, 127
1, 26927, Note_off_c, 0, 67, 61
1, 26968, Note_on_c, 0, 55, 61
1, 27004, Note_off_c, 0, 55, 64
1, 27047, Note_on_c, 0, 76, 73
1, 27050, Note_on_c, 0, 79, 68
1, 27076, Note_off_c, 0, 76, 66
1, 27092, Note_off_c, 0, 79, 60
1, 27152, Note_on_c, 0, 72, 69
1, 27155, Note_on_c, 0, 76, 66
1, 27245, Note_off_c, 0, 76, 57
1, 27251, Note_on_c, 0, 67, 61
1, 27306, Note_off_c, 0, 67, 58
1, 27340, Note_on_c, 0, 55, 67
1, 27347, Note_off_c, 0, 72, 58
1, 27375, Note_off_c, 0, 55, 62
1, 27423, Note_on_c, 0, 74, 56
1, 27425, Note_on_c, 0, 77, 62
1, 27447, Note_off_c, 0, 74, 63
1, 27486, Note_off_c, 0, 77, 49
1, 27520, Note_on_c, 0, 71, 56
1, 27532, Note_on_c, 0, 74, 57
1, 27634, Note_on_c, 0, 67, 59
1, 27636, Note_off_c, 0, 71, 56
1, 27658, Note_off_c, 0, 74, 63
1, 27689, Note_off_c, 0, 67, 56
1, 27714, Note_on_c, 0, 55, 68
1, 27735, Control_c, 0, 67, 126
1, 27749, Control_c, 0, 67, 120
1, 27760, Note_off_c, 0, 55, 58
1, 27764, Control_c, 0, 67, 111
1, 27779, Control_c, 0, 67, 103
1, 27794, Control_c, 0, 67, 92
1, 27806, Note_on_c, 0, 79, 67
1, 27808, Control_c, 0, 67, 81
1, 27812, Note_on_c, 0, 76, 64
1, 27823, Control_c, 0, 67, 70
1, 27838, Control_c, 0, 67, 59
1, 27854, Control_c, 0, 67, 50
1, 27869, Control_c, 0, 67, 43
1, 27884, Note_off_c, 0, 79, 62
1, 27884, Control_c, 0, 67, 38
1, 27894, Note_off_c, 0, 76, 64
1, 27896, Note_on_c, 0, 78, 69
1, 27898, Control_c, 0, 67, 31
1, 27899, Note_on_c, 0, 75, 70
1, 27913, Control_c, 0, 67, 24
1, 27928, Control_c, 0, 67, 17
1, 27943, Control_c, 0, 67, 11
1, 27952, Note_off_c, 0, 75, 62
1, 27958, Control_c, 0, 67, 0
1, 27984, Note_on_c, 0, 79, 77
1, 27986, Note_on_c, 0, 76, 72
1, 28000, Note_off_c, 0, 78, 61
1, 28063, Note_off_c, 0, 76, 43
1, 28071, Note_on_c, 0, 81, 84
1, 28074, Note_off_c, 0, 79, 62
1, 28079, Note_on_c, 0, 77, 76
1, 28147, Note_off_c, 0, 77, 62
1, 28156, Note_on_c, 0, 76, 78
1, 28158, Note_on_c, 0, 79, 75
1, 28170, Note_off_c, 0, 81, 61
1, 28194, Note_off_c, 0, 76, 58
1, 28223, Note_off_c, 0, 79, 50
1, 28250, Note_on_c, 0, 77, 78
1, 28253, Note_on_c, 0, 74, 74
1, 28292, Note_off_c, 0, 74, 65
1, 28316, Note_off_c, 0, 77, 62
1, 28364, Note_on_c, 0, 67, 69
1, 28416, Note_off_c, 0, 67, 62
1, 28441, Note_on_c, 0, 55, 79
1, 28492, Note_off_c, 0, 55, 62
1, 28539, Note_on_c, 0, 83, 80
1, 28541, Note_on_c, 0, 77, 80
1, 28565, Note_off_c, 0, 77, 67
1, 28590, Note_off_c, 0, 83, 66
1, 28632, Note_on_c, 0, 84, 82
1, 28636, Note_on_c, 0, 76, 76
1, 28684, Note_off_c, 0, 84, 64
1, 28691, Control_c, 0, 67, 8
1, 28723, Note_on_c, 0, 67, 69
1, 28748, Note_off_c, 0, 76, 64
1, 28772, Note_off_c, 0, 67, 61
1, 28795, Control_c, 0, 67, 8
1, 28809, Note_on_c, 0, 55, 69
1, 28847, Note_off_c, 0, 55, 63
1, 28898, Note_on_c, 0, 76, 74
1, 28904, Note_on_c, 0, 72, 75
1, 28931, Note_off_c, 0, 72, 67
1, 28951, Note_off_c, 0, 76, 63
1, 28998, Note_on_c, 0, 71, 64
1, 28998, Note_on_c, 0, 74, 67
1, 29091, Note_off_c, 0, 74, 56
1, 29104, Note_on_c, 0, 67, 65
1, 29126, Note_off_c, 0, 71, 60
1, 29162, Note_off_c, 0, 67, 62
1, 29194, Note_on_c, 0, 55, 74
1, 29232, Control_c, 0, 67, 9
1, 29256, Note_off_c, 0, 55, 62
1, 29261, Control_c, 0, 67, 9
1, 29267, Note_on_c, 0, 76, 75
1, 29276, Note_on_c, 0, 72, 80
1, 29321, Control_c, 0, 67, 10
1, 29353, Note_off_c, 0, 72, 58
1, 29356, Note_off_c, 0, 76, 63
1, 29361, Note_on_c, 0, 74, 74
1, 29365, Control_c, 0, 67, 10
1, 29367, Note_on_c, 0, 71, 70
1, 29380, Control_c, 0, 67, 11
1, 29395, Control_c, 0, 67, 11
1, 29410, Control_c, 0, 67, 12
1, 29420, Note_off_c, 0, 71, 58
1, 29440, Control_c, 0, 67, 12
1, 29453, Note_off_c, 0, 74, 65
1, 29458, Note_on_c, 0, 72, 82
1, 29458, Note_on_c, 0, 76, 74
1, 29469, Control_c, 0, 67, 13
1, 29484, Control_c, 0, 67, 13
1, 29499, Control_c, 0, 67, 14
1, 29514, Control_c, 0, 67, 15
1, 29521, Note_off_c, 0, 72, 42
1, 29526, Note_off_c, 0, 76, 58
1, 29529, Control_c, 0, 67, 16
1, 29541, Note_on_c, 0, 74, 68
1, 29542, Note_on_c, 0, 71, 69
1, 29559, Control_c, 0, 67, 16
1, 29574, Control_c, 0, 67, 17
1, 29580, Note_off_c, 0, 71, 61
1, 29589, Control_c, 0, 67, 19
1, 29604, Control_c, 0, 67, 20
1, 29618, Control_c, 0, 67, 22
1, 29624, Note_off_c, 0, 74, 61
1, 29632, Note_on_c, 0, 72, 76
1, 29633, Note_on_c, 0, 76, 72
1, 29633, Control_c, 0, 67, 23
1, 29648, Control_c, 0, 67, 25
1, 29663, Control_c, 0, 67, 29
1, 29667, Note_off_c, 0, 72, 60
1, 29678, Control_c, 0, 67, 35
1, 29691, Note_off_c, 0, 76, 53
1, 29693, Control_c, 0, 67, 46
1, 29708, Control_c, 0, 67, 60
1, 29723, Control_c, 0, 67, 76
1, 29727, Note_on_c, 0, 74, 56
1, 29738, Note_on_c, 0, 71, 52
1, 29738, Control_c, 0, 67, 93
1, 29752, Control_c, 0, 67, 113
1, 29754, Note_off_c, 0, 74, 66
1, 29763, Note_off_c, 0, 71, 61
1, 29774, Control_c, 0, 67, 127
1, 30044, Note_on_c, 0, 54, 49
1, 30047, Note_on_c, 0, 42, 40
1, 30095, Note_off_c, 0, 42, 60
1, 30106, Note_off_c, 0, 54, 54
1, 30139, Note_on_c, 0, 55, 52
1, 30159, Note_on_c, 0, 43, 31
1, 30197, Note_off_c, 0, 43, 54
1, 30214, Note_off_c, 0, 55, 63
1, 30227, Note_on_c, 0, 54, 50
1, 30235, Note_on_c, 0, 42, 28
1, 30287, Note_off_c, 0, 42, 59
1, 30310, Note_off_c, 0, 54, 58
1, 30325, Note_on_c, 0, 55, 52
1, 30336, Note_on_c, 0, 43, 24
1, 30375, Note_off_c, 0, 43, 53
1, 30383, Note_off_c, 0, 55, 56
1, 30405, Note_on_c, 0, 42, 35
1, 30424, Note_on_c, 0, 54, 46
1, 30468, Note_off_c, 0, 42, 59
1, 30498, Note_on_c, 0, 43, 33
1, 30507, Note_on_c, 0, 55, 52
1, 30522, Note_off_c, 0, 54, 56
1, 30896, Note_off_c, 0, 43, 59
1, 30897, Note_off_c, 0, 55, 63
1, 30997, Control_c, 0, 67, 117
1, 31012, Control_c, 0, 67, 107
1, 31026, Control_c, 0, 67, 95
1, 31041, Control_c, 0, 67, 85
1, 31057, Control_c, 0, 67, 76
1, 31072, Control_c, 0, 67, 69
1, 31087, Control_c, 0, 67, 64
1, 31102, Control_c, 0, 67, 58
1, 31117, Control_c, 0, 67, 53
1, 31131, Control_c, 0, 67, 49
1, 31146, Control_c, 0, 67, 44
1, 31161, Control_c, 0, 67, 40
1, 31175, Control_c, 0, 67, 35
1, 31190, Control_c, 0, 67, 28
1, 31205, Control_c, 0, 67, 23
1, 31220, Control_c, 0, 67, 20
1, 31235, Control_c, 0, 67, 17
1, 31249, Control_c, 0, 67, 14
1, 31264, Control_c, 0, 67, 11
1, 31287, Control_c, 0, 67, 8
1, 31302, Control_c, 0, 67, 0
1, 31324, Note_on_c, 0, 55, 85
1, 31327, Note_on_c, 0, 43, 78
1, 31418, Note_on_c, 0, 74, 77
1, 31447, Note_off_c, 0, 55, 64
1, 31475, Note_off_c, 0, 43, 63
1, 31511, Note_on_c, 0, 76, 80
1, 31517, Note_off_c, 0, 74, 66
1, 31600, Note_on_c, 0, 78, 83
1, 31605, Note_off_c, 0, 76, 64
1, 31664, Note_off_c, 0, 78, 64
1, 31688, Note_on_c, 0, 50, 78
1, 31693, Note_on_c, 0, 38, 72
1, 31693, Note_on_c, 0, 79, 82
1, 31781, Note_on_c, 0, 81, 94
1, 31789, Note_off_c, 0, 50, 63
1, 31789, Note_off_c, 0, 79, 62
1, 31817, Note_off_c, 0, 38, 62
1, 31874, Note_on_c, 0, 83, 86
1, 31936, Note_off_c, 0, 81, 58
1, 31970, Note_on_c, 0, 84, 86
1, 32013, Control_c, 0, 64, 20
1, 32014, Note_off_c, 0, 83, 61
1, 32036, Control_c, 0, 64, 42
1, 32051, Control_c, 0, 64, 56
1, 32066, Control_c, 0, 64, 63
1, 32072, Note_on_c, 0, 86, 81
1, 32074, Note_on_c, 0, 47, 68
1, 32076, Note_on_c, 0, 35, 64
1, 32080, Control_c, 0, 64, 67
1, 32082, Note_off_c, 0, 84, 62
1, 32095, Control_c, 0, 64, 73
1, 32110, Control_c, 0, 64, 81
1, 32124, Control_c, 0, 64, 88
1, 32139, Control_c, 0, 64, 92
1, 32152, Note_off_c, 0, 35, 56
1, 32154, Control_c, 0, 64, 96
1, 32163, Note_off_c, 0, 47, 60
1, 32169, Control_c, 0, 64, 100
1, 32170, Note_on_c, 0, 84, 89
1, 32184, Control_c, 0, 64, 103
1, 32198, Control_c, 0, 64, 105
1, 32200, Note_off_c, 0, 86, 61
1, 32213, Control_c, 0, 64, 106
1, 32243, Control_c, 0, 64, 106
1, 32255, Note_on_c, 0, 83, 84
1, 32268, Note_off_c, 0, 84, 62
1, 32343, Note_on_c, 0, 81, 93
1, 32352, Note_off_c, 0, 83, 62
1, 32406, Control_c, 0, 64, 104
1, 32421, Note_off_c, 0, 81, 64
1, 32421, Control_c, 0, 64, 100
1, 32435, Control_c, 0, 64, 94
1, 32438, Note_on_c, 0, 79, 85
1, 32450, Control_c, 0, 64, 88
1, 32465, Control_c, 0, 64, 79
1, 32480, Control_c, 0, 64, 72
1, 32495, Control_c, 0, 64, 64
1, 32510, Control_c, 0, 64, 37
1, 32523, Note_on_c, 0, 81, 92
1, 32524, Control_c, 0, 64, 0
1, 32526, Note_off_c, 0, 79, 61
1, 32616, Note_on_c, 0, 52, 78
1, 32619, Note_on_c, 0, 83, 87
1, 32620, Note_on_c, 0, 40, 75
1, 32641, Note_off_c, 0, 52, 66
1, 32641, Note_off_c, 0, 81, 64
1, 32662, Note_off_c, 0, 40, 64
1, 32704, Note_off_c, 0, 83, 64
1, 32716, Note_on_c, 0, 79, 79
1, 32747, Control_c, 0, 64, 12
1, 32769, Control_c, 0, 64, 52
1, 32784, Control_c, 0, 64, 62
1, 32785, Note_off_c, 0, 79, 57
1, 32799, Control_c, 0, 64, 66
1, 32814, Note_on_c, 0, 45, 84
1, 32814, Control_c, 0, 64, 71
1, 32815, Note_on_c, 0, 33, 74
1, 32816, Note_on_c, 0, 84, 86
1, 32829, Control_c, 0, 64, 80
1, 32844, Control_c, 0, 64, 89
1, 32845, Note_off_c, 0, 45, 65
1, 32848, Note_off_c, 0, 33, 65
1, 32859, Control_c, 0, 64, 93
1, 32873, Control_c, 0, 64, 96
1, 32888, Control_c, 0, 64, 99
1, 32903, Control_c, 0, 64, 101
1, 32912, Note_on_c, 0, 83, 88
1, 32918, Control_c, 0, 64, 103
1, 32926, Note_off_c, 0, 84, 63
1, 32933, Control_c, 0, 64, 104
1, 32962, Control_c, 0, 64, 105
1, 33006, Note_on_c, 0, 81, 91
1, 33011, Note_off_c, 0, 83, 65
1, 33070, Note_off_c, 0, 81, 64
1, 33094, Note_on_c, 0, 79, 77
1, 33110, Control_c, 0, 64, 103
1, 33125, Control_c, 0, 64, 98
1, 33140, Control_c, 0, 64, 92
1, 33149, Note_off_c, 0, 79, 58
1, 33154, Control_c, 0, 64, 86
1, 33169, Control_c, 0, 64, 78
1, 33184, Control_c, 0, 64, 71
1, 33188, Note_on_c, 0, 78, 76
1, 33199, Control_c, 0, 64, 63
1, 33214, Control_c, 0, 64, 12
1, 33228, Control_c, 0, 64, 0
1, 33271, Note_off_c, 0, 78, 54
1, 33273, Note_on_c, 0, 79, 76
1, 33365, Note_on_c, 0, 50, 68
1, 33367, Note_on_c, 0, 38, 66
1, 33376, Note_on_c, 0, 81, 84
1, 33382, Note_off_c, 0, 79, 57
1, 33395, Note_off_c, 0, 50, 66
1, 33404, Note_off_c, 0, 38, 65
1, 33453, Note_off_c, 0, 81, 57
1, 33472, Note_on_c, 0, 78, 73
1, 33518, Control_c, 0, 64, 30
1, 33533, Control_c, 0, 64, 52
1, 33548, Note_off_c, 0, 78, 56
1, 33548, Control_c, 0, 64, 63
1, 33563, Control_c, 0, 64, 67
1, 33576, Note_on_c, 0, 31, 64
1, 33577, Note_on_c, 0, 43, 61
1, 33577, Control_c, 0, 64, 73
1, 33581, Note_on_c, 0, 83, 79
1, 33592, Control_c, 0, 64, 81
1, 33607, Control_c, 0, 64, 87
1, 33609, Note_off_c, 0, 31, 64
1, 33609, Note_off_c, 0, 43, 63
1, 33622, Control_c, 0, 64, 89
1, 33637, Control_c, 0, 64, 91
1, 33652, Control_c, 0, 64, 94
1, 33667, Control_c, 0, 64, 97
1, 33669, Note_on_c, 0, 81, 87
1, 33674, Note_off_c, 0, 83, 58
1, 33681, Control_c, 0, 64, 99
1, 33696, Control_c, 0, 64, 100
1, 33758, Note_on_c, 0, 79, 81
1, 33758, Note_off_c, 0, 81, 62
1, 33770, Control_c, 0, 67, 8
1, 33846, Note_off_c, 0, 79, 61
1, 33848, Note_on_c, 0, 78, 83
1, 33889, Control_c, 0, 64, 99
1, 33903, Control_c, 0, 64, 98
1, 33913, Note_off_c, 0, 78, 61
1, 33918, Control_c, 0, 64, 95
1, 33933, Control_c, 0, 64, 92
1, 33944, Note_on_c, 0, 76, 77
1, 33948, Control_c, 0, 64, 89
1, 33964, Control_c, 0, 64, 84
1, 33978, Control_c, 0, 64, 81
1, 33985, Note_off_c, 0, 76, 61
1, 33993, Control_c, 0, 64, 77
1, 34008, Control_c, 0, 64, 74
1, 34023, Control_c, 0, 64, 70
1, 34037, Note_on_c, 0, 74, 69
1, 34038, Control_c, 0, 64, 66
1, 34038, Control_c, 0, 67, 0
1, 34052, Control_c, 0, 64, 60
1, 34067, Control_c, 0, 64, 42
1, 34082, Control_c, 0, 64, 31
1, 34096, Control_c, 0, 64, 28
1, 34111, Note_on_c, 0, 72, 83
1, 34111, Control_c, 0, 64, 27
1, 34114, Note_off_c, 0, 74, 64
1, 34126, Control_c, 0, 64, 22
1, 34135, Note_on_c, 0, 64, 54
1, 34141, Control_c, 0, 64, 0
1, 34197, Note_off_c, 0, 72, 64
1, 34207, Note_on_c, 0, 71, 69
1, 34280, Note_off_c, 0, 71, 62
1, 34307, Note_off_c, 0, 64, 58
1, 34312, Note_on_c, 0, 69, 69
1, 34322, Note_on_c, 0, 54, 54
1, 34380, Note_off_c, 0, 69, 61
1, 34411, Note_on_c, 0, 79, 74
1, 34501, Note_on_c, 0, 78, 76
1, 34525, Note_off_c, 0, 79, 61
1, 34564, Control_c, 0, 67, 8
1, 34567, Note_off_c, 0, 54, 60
1, 34589, Note_on_c, 0, 76, 80
1, 34600, Note_off_c, 0, 78, 62
1, 34674, Note_off_c, 0, 76, 62
1, 34681, Note_on_c, 0, 74, 77
1, 34734, Note_off_c, 0, 74, 60
1, 34772, Control_c, 0, 67, 0
1, 34773, Note_on_c, 0, 72, 79
1, 34813, Note_off_c, 0, 72, 61
1, 34858, Note_on_c, 0, 71, 73
1, 34883, Note_on_c, 0, 62, 47
1, 34936, Note_off_c, 0, 71, 62
1, 34944, Note_on_c, 0, 69, 74
1, 34999, Note_off_c, 0, 69, 62
1, 35056, Note_on_c, 0, 67, 72
1, 35063, Note_on_c, 0, 52, 47
1, 35081, Note_off_c, 0, 62, 41
1, 35120, Note_off_c, 0, 67, 62
1, 35121, Control_c, 0, 64, 12
1, 35162, Note_on_c, 0, 78, 76
1, 35165, Control_c, 0, 64, 15
1, 35247, Note_on_c, 0, 76, 74
1, 35256, Note_off_c, 0, 78, 61
1, 35268, Control_c, 0, 64, 18
1, 35305, Note_off_c, 0, 52, 61
1, 35336, Note_off_c, 0, 76, 63
1, 35339, Note_on_c, 0, 74, 75
1, 35397, Note_off_c, 0, 74, 59
1, 35430, Note_on_c, 0, 72, 80
1, 35467, Note_off_c, 0, 72, 62
1, 35514, Note_on_c, 0, 71, 69
1, 35603, Note_off_c, 0, 71, 61
1, 35604, Note_on_c, 0, 69, 71
1, 35623, Note_on_c, 0, 60, 48
1, 35664, Note_off_c, 0, 69, 60
1, 35705, Note_on_c, 0, 67, 63
1, 35777, Note_off_c, 0, 67, 51
1, 35796, Note_on_c, 0, 66, 75
1, 35799, Note_on_c, 0, 50, 44
1, 35814, Note_off_c, 0, 60, 43
1, 35857, Note_off_c, 0, 66, 59
1, 35885, Note_on_c, 0, 71, 67
1, 35974, Note_off_c, 0, 71, 58
1, 35980, Note_on_c, 0, 69, 68
1, 36049, Note_off_c, 0, 69, 60
1, 36069, Note_on_c, 0, 66, 76
1, 36122, Note_off_c, 0, 66, 62
1, 36159, Note_on_c, 0, 62, 72
1, 36160, Note_on_c, 0, 59, 61
1, 36231, Note_off_c, 0, 62, 59
1, 36251, Note_on_c, 0, 72, 85
1, 36343, Note_off_c, 0, 72, 64
1, 36344, Note_on_c, 0, 71, 77
1, 36419, Note_off_c, 0, 71, 62
1, 36435, Note_on_c, 0, 67, 74
1, 36482, Note_off_c, 0, 67, 60
1, 36523, Note_on_c, 0, 62, 77
1, 36538, Note_on_c, 0, 54, 62
1, 36558, Control_c, 0, 64, 15
1, 36587, Control_c, 0, 64, 12
1, 36592, Note_off_c, 0, 62, 59
1, 36593, Note_off_c, 0, 59, 39
1, 36617, Note_on_c, 0, 74, 80
1, 36631, Control_c, 0, 64, 0
1, 36706, Note_off_c, 0, 74, 65
1, 36707, Note_on_c, 0, 72, 86
1, 36736, Control_c, 0, 64, 15
1, 36751, Control_c, 0, 64, 28
1, 36766, Control_c, 0, 64, 46
1, 36781, Control_c, 0, 64, 54
1, 36784, Note_off_c, 0, 72, 64
1, 36790, Note_on_c, 0, 69, 78
1, 36795, Control_c, 0, 64, 60
1, 36810, Control_c, 0, 64, 63
1, 36825, Control_c, 0, 64, 66
1, 36839, Control_c, 0, 64, 68
1, 36848, Note_off_c, 0, 69, 63
1, 36854, Control_c, 0, 64, 72
1, 36869, Control_c, 0, 64, 76
1, 36882, Note_on_c, 0, 62, 78
1, 36884, Control_c, 0, 64, 78
1, 36893, Note_on_c, 0, 55, 71
1, 36913, Control_c, 0, 64, 77
1, 36928, Control_c, 0, 64, 74
1, 36940, Note_off_c, 0, 62, 60
1, 36943, Control_c, 0, 64, 68
1, 36959, Control_c, 0, 64, 62
1, 36974, Control_c, 0, 64, 59
1, 36983, Note_on_c, 0, 76, 84
1, 36984, Note_off_c, 0, 54, 36
1, 36988, Control_c, 0, 64, 63
1, 37003, Control_c, 0, 64, 67
1, 37018, Control_c, 0, 64, 71
1, 37033, Control_c, 0, 64, 76
1, 37047, Control_c, 0, 64, 79
1, 37052, Note_off_c, 0, 50, 51
1, 37062, Control_c, 0, 64, 81
1, 37073, Note_off_c, 0, 76, 67
1, 37075, Note_on_c, 0, 74, 80
1, 37077, Control_c, 0, 64, 84
1, 37092, Control_c, 0, 64, 86
1, 37095, Note_off_c, 0, 55, 59
1, 37107, Control_c, 0, 64, 86
1, 37121, Control_c, 0, 64, 87
1, 37136, Control_c, 0, 64, 87
1, 37151, Control_c, 0, 64, 88
1, 37154, Note_off_c, 0, 74, 61
1, 37160, Note_on_c, 0, 71, 81
1, 37196, Control_c, 0, 64, 86
1, 37211, Control_c, 0, 64, 81
1, 37218, Note_off_c, 0, 71, 62
1, 37226, Control_c, 0, 64, 73
1, 37240, Control_c, 0, 64, 64
1, 37262, Control_c, 0, 64, 52
1, 37265, Note_on_c, 0, 67, 81
1, 37272, Note_on_c, 0, 55, 58
1, 37274, Note_on_c, 0, 61, 72
1, 37276, Note_on_c, 0, 52, 57
1, 37277, Control_c, 0, 64, 58
1, 37282, Note_on_c, 0, 50, 58
1, 37292, Control_c, 0, 64, 64
1, 37307, Control_c, 0, 64, 68
1, 37321, Control_c, 0, 64, 74
1, 37331, Note_off_c, 0, 67, 61
1, 37336, Control_c, 0, 64, 79
1, 37351, Control_c, 0, 64, 81
1, 37366, Control_c, 0, 64, 82
1, 37375, Note_on_c, 0, 81, 94
1, 37381, Control_c, 0, 64, 82
1, 37396, Control_c, 0, 64, 83
1, 37411, Control_c, 0, 64, 84
1, 37425, Control_c, 0, 64, 84
1, 37441, Control_c, 0, 64, 85
1, 37470, Note_on_c, 0, 79, 83
1, 37513, Note_off_c, 0, 81, 59
1, 37530, Control_c, 0, 64, 85
1, 37555, Note_on_c, 0, 78, 83
1, 37582, Note_off_c, 0, 79, 62
1, 37639, Note_on_c, 0, 76, 78
1, 37669, Note_off_c, 0, 78, 62
1, 37715, Note_off_c, 0, 76, 63
1, 37725, Note_on_c, 0, 74, 74
1, 37782, Control_c, 0, 64, 85
1, 37796, Control_c, 0, 64, 84
1, 37801, Note_off_c, 0, 74, 41
1, 37807, Note_on_c, 0, 73, 80
1, 37811, Control_c, 0, 64, 83
1, 37826, Control_c, 0, 64, 83
1, 37841, Control_c, 0, 64, 81
1, 37856, Control_c, 0, 64, 80
1, 37870, Control_c, 0, 64, 79
1, 37885, Control_c, 0, 64, 78
1, 37896, Note_on_c, 0, 71, 77
1, 37900, Control_c, 0, 64, 77
1, 37915, Control_c, 0, 64, 76
1, 37917, Note_off_c, 0, 73, 62
1, 37929, Control_c, 0, 64, 74
1, 37944, Control_c, 0, 64, 72
1, 37959, Control_c, 0, 64, 69
1, 37962, Note_off_c, 0, 71, 61
1, 37974, Control_c, 0, 64, 67
1, 37983, Note_on_c, 0, 69, 77
1, 37989, Control_c, 0, 64, 65
1, 38004, Control_c, 0, 64, 64
1, 38022, Note_off_c, 0, 61, 57
1, 38026, Control_c, 0, 64, 64
1, 38039, Note_off_c, 0, 69, 61
1, 38041, Control_c, 0, 64, 63
1, 38050, Note_off_c, 0, 50, 50
1, 38056, Control_c, 0, 64, 62
1, 38070, Control_c, 0, 64, 61
1, 38079, Note_on_c, 0, 67, 77
1, 38085, Control_c, 0, 64, 59
1, 38087, Note_off_c, 0, 55, 57
1, 38090, Note_off_c, 0, 52, 45
1, 38100, Control_c, 0, 64, 57
1, 38115, Control_c, 0, 64, 55
1, 38130, Control_c, 0, 64, 53
1, 38144, Control_c, 0, 64, 51
1, 38159, Control_c, 0, 64, 48
1, 38166, Note_on_c, 0, 66, 85
1, 38174, Control_c, 0, 64, 44
1, 38183, Note_off_c, 0, 67, 57
1, 38189, Control_c, 0, 64, 38
1, 38203, Control_c, 0, 64, 30
1, 38218, Control_c, 0, 64, 24
1, 38234, Control_c, 0, 64, 18
1, 38249, Control_c, 0, 64, 0
1, 38261, Note_on_c, 0, 64, 79
1, 38282, Note_off_c, 0, 66, 62
1, 38323, Note_off_c, 0, 64, 61
1, 38350, Note_on_c, 0, 62, 71
1, 38428, Note_off_c, 0, 62, 40
1, 38429, Note_on_c, 0, 61, 75
1, 38520, Note_on_c, 0, 59, 74
1, 38541, Note_off_c, 0, 61, 61
1, 38592, Note_off_c, 0, 59, 61
1, 38608, Note_on_c, 0, 57, 69
1, 38700, Note_on_c, 0, 55, 71
1, 38704, Note_off_c, 0, 57, 61
1, 38808, Note_on_c, 0, 38, 52
1, 38865, Note_off_c, 0, 38, 52
1, 38902, Note_on_c, 0, 45, 54
1, 38970, Note_off_c, 0, 45, 60
1, 38984, Note_on_c, 0, 49, 62
1, 39067, Note_off_c, 0, 49, 60
1, 39103, Note_on_c, 0, 50, 55
1, 39154, Note_off_c, 0, 50, 62
1, 39186, Note_on_c, 0, 49, 52
1, 39243, Note_off_c, 0, 49, 58
1, 39286, Note_on_c, 0, 50, 50
1, 39353, Note_off_c, 0, 50, 58
1, 39375, Note_on_c, 0, 49, 46
1, 39439, Note_off_c, 0, 49, 60
1, 39449, Note_off_c, 0, 55, 61
1, 39478, Note_on_c, 0, 54, 54
1, 39480, Note_on_c, 0, 50, 50
1, 39574, Note_on_c, 0, 55, 67
1, 39582, Note_off_c, 0, 54, 51
1, 39669, Note_on_c, 0, 57, 72
1, 39683, Note_off_c, 0, 55, 54
1, 39721, Note_off_c, 0, 57, 62
1, 39765, Note_on_c, 0, 55, 70
1, 39853, Note_off_c, 0, 55, 58
1, 39858, Note_on_c, 0, 59, 70
1, 39936, Note_off_c, 0, 59, 63
1, 39942, Note_on_c, 0, 57, 72
1, 39968, Note_off_c, 0, 50, 62
1, 40025, Note_off_c, 0, 57, 60
1, 40039, Note_on_c, 0, 60, 62
1, 40115, Note_off_c, 0, 60, 57
1, 40119, Note_on_c, 0, 59, 68
1, 40177, Note_off_c, 0, 59, 51
1, 40204, Note_on_c, 0, 62, 61
1, 40274, Note_off_c, 0, 62, 43
1, 40304, Note_on_c, 0, 60, 58
1, 40343, Note_off_c, 0, 60, 61
1, 40386, Note_on_c, 0, 57, 69
1, 40419, Note_off_c, 0, 57, 64
1, 40488, Note_on_c, 0, 54, 52
1, 40555, Note_off_c, 0, 54, 59
1, 40569, Note_on_c, 0, 50, 58
1, 40603, Note_off_c, 0, 50, 65
1, 40657, Note_on_c, 0, 66, 74
1, 40713, Note_off_c, 0, 66, 63
1, 40754, Note_on_c, 0, 62, 62
1, 40786, Note_off_c, 0, 62, 64
1, 40836, Note_on_c, 0, 60, 63
1, 40878, Note_off_c, 0, 60, 57
1, 40926, Note_on_c, 0, 57, 74
1, 40961, Note_off_c, 0, 57, 60
1, 41019, Note_on_c, 0, 72, 82
1, 41047, Note_off_c, 0, 72, 66
1, 41100, Note_on_c, 0, 69, 76
1, 41125, Note_off_c, 0, 69, 68
1, 41125, Control_c, 0, 64, 12
1, 41155, Control_c, 0, 64, 15
1, 41193, Note_on_c, 0, 66, 69
1, 41236, Note_off_c, 0, 66, 58
1, 41282, Note_on_c, 0, 62, 69
1, 41315, Note_off_c, 0, 62, 62
1, 41364, Note_on_c, 0, 78, 74
1, 41377, Control_c, 0, 67, 8
1, 41392, Control_c, 0, 64, 18
1, 41414, Note_off_c, 0, 78, 64
1, 41437, Control_c, 0, 64, 20
1, 41452, Control_c, 0, 64, 22
1, 41459, Note_on_c, 0, 74, 73
1, 41467, Control_c, 0, 64, 24
1, 41482, Control_c, 0, 67, 8
1, 41488, Note_off_c, 0, 74, 66
1, 41536, Note_on_c, 0, 72, 76
1, 41555, Control_c, 0, 67, 9
1, 41570, Control_c, 0, 67, 9
1, 41575, Note_off_c, 0, 72, 62
1, 41623, Note_on_c, 0, 69, 76
1, 41661, Note_off_c, 0, 69, 60
1, 41674, Control_c, 0, 67, 10
1, 41714, Note_on_c, 0, 84, 77
1, 41733, Control_c, 0, 67, 10
1, 41754, Note_off_c, 0, 84, 63
1, 41755, Control_c, 0, 64, 26
1, 41755, Control_c, 0, 67, 11
1, 41785, Control_c, 0, 64, 27
1, 41800, Control_c, 0, 64, 28
1, 41800, Control_c, 0, 67, 12
1, 41804, Note_on_c, 0, 81, 84
1, 41815, Control_c, 0, 64, 31
1, 41829, Control_c, 0, 64, 34
1, 41829, Control_c, 0, 67, 12
1, 41834, Note_off_c, 0, 81, 66
1, 41844, Control_c, 0, 64, 36
1, 41859, Control_c, 0, 64, 37
1, 41859, Control_c, 0, 67, 13
1, 41874, Control_c, 0, 67, 13
1, 41900, Note_on_c, 0, 78, 60
1, 41918, Control_c, 0, 64, 38
1, 41933, Control_c, 0, 67, 14
1, 41951, Note_off_c, 0, 78, 58
1, 41994, Note_on_c, 0, 74, 55
1, 42052, Control_c, 0, 64, 37
1, 42064, Note_on_c, 0, 88, 71
1, 42111, Control_c, 0, 64, 36
1, 42160, Note_on_c, 0, 86, 71
1, 42189, Note_off_c, 0, 88, 62
1, 42246, Note_on_c, 0, 84, 82
1, 42332, Note_off_c, 0, 86, 54
1, 42334, Control_c, 0, 64, 37
1, 42336, Note_on_c, 0, 83, 84
1, 42342, Note_off_c, 0, 84, 62
1, 42349, Control_c, 0, 64, 38
1, 42364, Control_c, 0, 64, 39
1, 42378, Control_c, 0, 64, 41
1, 42380, Note_off_c, 0, 74, 60
1, 42393, Control_c, 0, 64, 41
1, 42406, Note_off_c, 0, 83, 65
1, 42408, Control_c, 0, 67, 14
1, 42423, Note_on_c, 0, 81, 87
1, 42423, Control_c, 0, 64, 42
1, 42438, Control_c, 0, 64, 42
1, 42438, Control_c, 0, 67, 15
1, 42452, Control_c, 0, 64, 44
1, 42465, Note_off_c, 0, 81, 61
1, 42467, Control_c, 0, 64, 44
1, 42482, Control_c, 0, 67, 15
1, 42513, Note_on_c, 0, 79, 82
1, 42600, Note_on_c, 0, 78, 82
1, 42623, Note_off_c, 0, 79, 61
1, 42638, Control_c, 0, 64, 44
1, 42653, Control_c, 0, 64, 43
1, 42653, Control_c, 0, 67, 15
1, 42682, Control_c, 0, 64, 42
1, 42692, Note_on_c, 0, 76, 77
1, 42701, Note_off_c, 0, 78, 62
1, 42711, Control_c, 0, 64, 42
1, 42736, Note_off_c, 0, 76, 57
1, 42741, Control_c, 0, 67, 14
1, 42776, Note_on_c, 0, 74, 67
1, 42785, Control_c, 0, 64, 41
1, 42800, Control_c, 0, 64, 41
1, 42806, Note_off_c, 0, 74, 63
1, 42853, Note_on_c, 0, 73, 70
1, 42886, Note_off_c, 0, 73, 61
1, 42904, Control_c, 0, 64, 40
1, 42945, Note_on_c, 0, 72, 69
1, 42947, Control_c, 0, 64, 39
1, 42962, Control_c, 0, 64, 38
1, 42991, Control_c, 0, 64, 38
1, 42998, Note_off_c, 0, 72, 55
1, 43037, Control_c, 0, 64, 37
1, 43037, Control_c, 0, 67, 15
1, 43050, Note_on_c, 0, 81, 78
1, 43052, Control_c, 0, 64, 36
1, 43081, Control_c, 0, 64, 35
1, 43096, Control_c, 0, 67, 15
1, 43111, Control_c, 0, 67, 16
1, 43125, Control_c, 0, 64, 34
1, 43137, Note_on_c, 0, 62, 39
1, 43140, Control_c, 0, 67, 16
1, 43170, Control_c, 0, 67, 17
1, 43185, Control_c, 0, 67, 17
1, 43201, Note_off_c, 0, 62, 57
1, 43214, Control_c, 0, 64, 33
1, 43214, Control_c, 0, 67, 19
1, 43229, Control_c, 0, 64, 32
1, 43229, Control_c, 0, 67, 20
1, 43232, Note_on_c, 0, 66, 55
1, 43244, Control_c, 0, 67, 22
1, 43267, Control_c, 0, 67, 24
1, 43281, Control_c, 0, 64, 31
1, 43281, Control_c, 0, 67, 26
1, 43292, Note_off_c, 0, 66, 62
1, 43296, Control_c, 0, 67, 28
1, 43311, Control_c, 0, 64, 30
1, 43311, Control_c, 0, 67, 30
1, 43321, Note_on_c, 0, 69, 62
1, 43326, Control_c, 0, 67, 31
1, 43335, Note_off_c, 0, 81, 56
1, 43340, Control_c, 0, 67, 32
1, 43355, Control_c, 0, 67, 34
1, 43370, Control_c, 0, 67, 35
1, 43385, Control_c, 0, 67, 38
1, 43387, Note_off_c, 0, 69, 61
1, 43400, Control_c, 0, 64, 28
1, 43400, Control_c, 0, 67, 39
1, 43409, Note_on_c, 0, 72, 72
1, 43414, Control_c, 0, 67, 40
1, 43429, Control_c, 0, 67, 41
1, 43444, Control_c, 0, 67, 42
1, 43472, Note_off_c, 0, 72, 58
1, 43474, Control_c, 0, 67, 42
1, 43489, Control_c, 0, 67, 43
1, 43504, Control_c, 0, 67, 44
1, 43516, Note_on_c, 0, 74, 59
1, 43518, Control_c, 0, 67, 44
1, 43533, Control_c, 0, 67, 45
1, 43548, Control_c, 0, 67, 46
1, 43578, Control_c, 0, 67, 46
1, 43602, Note_off_c, 0, 74, 59
1, 43605, Note_on_c, 0, 78, 67
1, 43607, Control_c, 0, 67, 47
1, 43622, Control_c, 0, 67, 47
1, 43637, Control_c, 0, 67, 48
1, 43638, Note_off_c, 0, 78, 62
1, 43651, Control_c, 0, 67, 50
1, 43666, Control_c, 0, 67, 51
1, 43681, Control_c, 0, 67, 52
1, 43688, Note_on_c, 0, 81, 78
1, 43697, Control_c, 0, 67, 53
1, 43712, Control_c, 0, 67, 55
1, 43726, Control_c, 0, 67, 59
1, 43741, Control_c, 0, 67, 63
1, 43756, Control_c, 0, 67, 67
1, 43768, Note_off_c, 0, 81, 57
1, 43771, Control_c, 0, 67, 72
1, 43781, Note_on_c, 0, 84, 77
1, 43786, Control_c, 0, 67, 77
1, 43800, Control_c, 0, 67, 83
1, 43815, Control_c, 0, 67, 90
1, 43831, Control_c, 0, 67, 101
1, 43839, Note_off_c, 0, 84, 63
1, 43846, Control_c, 0, 67, 112
1, 43861, Control_c, 0, 67, 124
1, 43876, Control_c, 0, 67, 127
1, 43879, Note_on_c, 0, 74, 64
1, 43947, Note_off_c, 0, 74, 56
1, 43964, Note_on_c, 0, 78, 63
1, 44014, Note_off_c, 0, 78, 57
1, 44054, Note_on_c, 0, 81, 75
1, 44143, Note_off_c, 0, 81, 61
1, 44153, Note_on_c, 0, 84, 61
1, 44192, Note_off_c, 0, 84, 65
1, 44246, Note_on_c, 0, 74, 57
1, 44326, Note_off_c, 0, 74, 39
1, 44345, Note_on_c, 0, 78, 52
1, 44408, Note_off_c, 0, 78, 47
1, 44425, Note_on_c, 0, 81, 70
1, 44454, Note_off_c, 0, 81, 65
1, 44535, Note_on_c, 0, 81, 55
1, 44537, Note_on_c, 0, 84, 56
1, 45371, Note_off_c, 0, 84, 57
1, 45372, Note_off_c, 0, 81, 55
1, 45376, Note_on_c, 0, 82, 52
1, 45384, Note_on_c, 0, 78, 37
1, 45617, Control_c, 0, 64, 30
1, 45721, Control_c, 0, 67, 125
1, 45736, Control_c, 0, 67, 115
1, 45751, Control_c, 0, 67, 102
1, 45766, Control_c, 0, 67, 90
1, 45781, Control_c, 0, 67, 77
1, 45795, Control_c, 0, 67, 66
1, 45810, Control_c, 0, 67, 57
1, 45825, Control_c, 0, 67, 52
1, 45840, Control_c, 0, 67, 46
1, 45854, Control_c, 0, 67, 43
1, 45869, Control_c, 0, 67, 39
1, 45884, Control_c, 0, 67, 36
1, 45899, Control_c, 0, 67, 34
1, 45914, Control_c, 0, 67, 31
1, 45928, Control_c, 0, 67, 28
1, 45942, Control_c, 0, 67, 24
1, 45957, Control_c, 0, 67, 20
1, 45972, Control_c, 0, 67, 16
1, 45987, Control_c, 0, 67, 13
1, 46002, Control_c, 0, 67, 11
1, 46016, Control_c, 0, 67, 9
1, 46031, Control_c, 0, 67, 8
1, 46061, Control_c, 0, 67, 0
1, 46076, Note_off_c, 0, 82, 44
1, 46097, Note_off_c, 0, 78, 55
1, 46121, Note_on_c, 0, 83, 89
1, 46124, Note_on_c, 0, 79, 81
1, 46145, Note_off_c, 0, 79, 69
1, 46154, Note_off_c, 0, 83, 68
1, 46210, Note_on_c, 0, 43, 53
1, 46262, Control_c, 0, 64, 32
1, 46276, Control_c, 0, 64, 33
1, 46313, Note_off_c, 0, 43, 55
1, 46315, Note_on_c, 0, 45, 61
1, 46350, Control_c, 0, 64, 32
1, 46365, Control_c, 0, 64, 30
1, 46380, Control_c, 0, 64, 28
1, 46388, Note_off_c, 0, 45, 59
1, 46393, Note_on_c, 0, 47, 60
1, 46395, Control_c, 0, 64, 27
1, 46410, Control_c, 0, 64, 26
1, 46475, Note_off_c, 0, 47, 61
1, 46480, Note_on_c, 0, 48, 69
1, 46487, Note_on_c, 0, 79, 89
1, 46493, Note_on_c, 0, 74, 77
1, 46515, Note_off_c, 0, 74, 71
1, 46524, Note_off_c, 0, 79, 66
1, 46542, Note_off_c, 0, 48, 62
1, 46580, Note_on_c, 0, 50, 71
1, 46617, Control_c, 0, 64, 28
1, 46632, Control_c, 0, 64, 31
1, 46647, Control_c, 0, 64, 32
1, 46670, Note_on_c, 0, 52, 69
1, 46670, Note_off_c, 0, 50, 60
1, 46706, Control_c, 0, 64, 31
1, 46721, Control_c, 0, 64, 30
1, 46736, Control_c, 0, 64, 28
1, 46738, Note_off_c, 0, 52, 62
1, 46747, Note_on_c, 0, 54, 65
1, 46750, Control_c, 0, 64, 26
1, 46765, Control_c, 0, 64, 24
1, 46812, Note_off_c, 0, 54, 62
1, 46842, Note_on_c, 0, 71, 79
1, 46844, Note_on_c, 0, 74, 76
1, 46849, Note_on_c, 0, 55, 69
1, 46865, Note_off_c, 0, 71, 70
1, 46869, Control_c, 0, 64, 22
1, 46882, Note_off_c, 0, 74, 66
1, 46938, Note_off_c, 0, 55, 59
1, 46941, Note_on_c, 0, 54, 69
1, 46958, Control_c, 0, 64, 24
1, 46988, Control_c, 0, 64, 26
1, 47009, Control_c, 0, 64, 27
1, 47026, Control_c, 0, 64, 28
1, 47033, Note_off_c, 0, 54, 63
1, 47041, Control_c, 0, 64, 30
1, 47045, Note_on_c, 0, 55, 67
1, 47098, Note_off_c, 0, 55, 60
1, 47123, Note_on_c, 0, 57, 70
1, 47190, Note_off_c, 0, 57, 63
1, 47221, Note_on_c, 0, 59, 74
1, 47268, Note_off_c, 0, 59, 61
1, 47307, Control_c, 0, 64, 28
1, 47397, Note_on_c, 0, 76, 80
1, 47578, Note_off_c, 0, 76, 52
1, 47584, Note_on_c, 0, 69, 70
1, 47618, Control_c, 0, 64, 30
1, 47625, Note_off_c, 0, 69, 59
1, 47633, Control_c, 0, 64, 31
1, 47663, Control_c, 0, 64, 32
1, 47680, Note_on_c, 0, 67, 64
1, 47707, Control_c, 0, 64, 33
1, 47722, Control_c, 0, 64, 34
1, 47745, Control_c, 0, 64, 35
1, 47746, Note_off_c, 0, 67, 60
1, 47760, Control_c, 0, 64, 36
1, 47767, Note_on_c, 0, 66, 67
1, 47826, Note_off_c, 0, 66, 61
1, 47868, Note_on_c, 0, 64, 56
1, 47945, Note_off_c, 0, 64, 63
1, 47953, Note_on_c, 0, 66, 68
1, 47987, Note_off_c, 0, 66, 65
1, 47997, Control_c, 0, 64, 37
1, 48116, Note_on_c, 0, 74, 48
1, 48234, Control_c, 0, 64, 35
1, 48279, Control_c, 0, 64, 34
1, 48294, Control_c, 0, 64, 33
1, 48297, Note_on_c, 0, 67, 52
1, 48298, Note_off_c, 0, 74, 61
1, 48309, Control_c, 0, 64, 32
1, 48339, Note_off_c, 0, 67, 60
1, 48382, Note_on_c, 0, 66, 61
1, 48427, Control_c, 0, 64, 33
1, 48434, Note_off_c, 0, 66, 60
1, 48441, Control_c, 0, 64, 34
1, 48456, Control_c, 0, 64, 35
1, 48470, Note_on_c, 0, 64, 54
1, 48535, Note_off_c, 0, 64, 59
1, 48571, Note_on_c, 0, 63, 57
1, 48597, Control_c, 0, 64, 36
1, 48628, Control_c, 0, 64, 37
1, 48642, Note_off_c, 0, 63, 57
1, 48643, Control_c, 0, 64, 39
1, 48658, Control_c, 0, 64, 41
1, 48658, Control_c, 0, 67, 8
1, 48666, Note_on_c, 0, 64, 69
1, 48672, Control_c, 0, 64, 42
1, 48687, Control_c, 0, 64, 44
1, 48696, Note_off_c, 0, 64, 68
1, 48702, Control_c, 0, 67, 8
1, 48732, Control_c, 0, 64, 44
1, 48732, Control_c, 0, 67, 9
1, 48746, Control_c, 0, 64, 45
1, 48761, Control_c, 0, 64, 46
1, 48761, Control_c, 0, 67, 10
1, 48776, Control_c, 0, 64, 47
1, 48776, Control_c, 0, 67, 11
1, 48791, Control_c, 0, 64, 48
1, 48805, Control_c, 0, 64, 49
1, 48805, Control_c, 0, 67, 12
1, 48835, Control_c, 0, 64, 50
1, 48835, Control_c, 0, 67, 12
1, 48839, Note_on_c, 0, 88, 78
1, 48842, Note_on_c, 0, 84, 75
1, 48850, Control_c, 0, 64, 50
1, 48850, Control_c, 0, 67, 13
1, 48865, Control_c, 0, 64, 51
1, 48865, Control_c, 0, 67, 14
1, 48879, Control_c, 0, 64, 51
1, 48894, Control_c, 0, 64, 52
1, 48894, Control_c, 0, 67, 14
1, 48924, Control_c, 0, 67, 15
1, 48939, Control_c, 0, 64, 53
1, 48953, Control_c, 0, 64, 53
1, 48983, Control_c, 0, 64, 54
1, 48983, Control_c, 0, 67, 15
1, 48997, Control_c, 0, 64, 54
1, 49012, Control_c, 0, 67, 16
1, 49024, Note_off_c, 0, 88, 60
1, 49027, Control_c, 0, 64, 55
1, 49037, Note_on_c, 0, 78, 66
1, 49037, Note_on_c, 0, 81, 79
1, 49042, Control_c, 0, 64, 56
1, 49042, Control_c, 0, 67, 16
1, 49052, Note_off_c, 0, 84, 51
1, 49057, Control_c, 0, 64, 57
1, 49057, Control_c, 0, 67, 17
1, 49072, Control_c, 0, 67, 17
1, 49183, Note_off_c, 0, 81, 63
1, 49217, Note_on_c, 0, 66, 69
1, 49220, Control_c, 0, 64, 56
1, 49221, Note_on_c, 0, 69, 58
1, 49257, Control_c, 0, 64, 56
1, 49258, Note_off_c, 0, 66, 66
1, 49260, Note_off_c, 0, 69, 65
1, 49272, Control_c, 0, 64, 55
1, 49289, Note_off_c, 0, 78, 63
1, 49361, Control_c, 0, 67, 17
1, 49376, Control_c, 0, 67, 16
1, 49412, Note_on_c, 0, 74, 66
1, 49414, Note_on_c, 0, 71, 60
1, 49436, Control_c, 0, 64, 55
1, 49436, Control_c, 0, 67, 16
1, 49440, Note_off_c, 0, 74, 66
1, 49445, Note_off_c, 0, 71, 66
1, 49450, Control_c, 0, 64, 54
1, 49465, Control_c, 0, 64, 53
1, 49465, Control_c, 0, 67, 15
1, 49480, Control_c, 0, 64, 53
1, 49525, Control_c, 0, 64, 52
1, 49540, Control_c, 0, 64, 51
1, 49555, Control_c, 0, 64, 51
1, 49569, Control_c, 0, 64, 50
1, 49584, Control_c, 0, 64, 50
1, 49608, Note_on_c, 0, 86, 66
1, 49611, Note_on_c, 0, 83, 64
1, 49673, Control_c, 0, 64, 49
1, 49701, Control_c, 0, 64, 49
1, 49701, Control_c, 0, 67, 15
1, 49760, Note_off_c, 0, 86, 57
1, 49766, Note_off_c, 0, 83, 63
1, 49795, Note_on_c, 0, 76, 62
1, 49796, Note_on_c, 0, 79, 62
1, 49870, Note_on_c, 0, 67, 65
1, 49880, Control_c, 0, 64, 48
1, 49881, Note_on_c, 0, 64, 55
1, 49894, Control_c, 0, 64, 47
1, 49909, Control_c, 0, 64, 46
1, 49926, Note_off_c, 0, 67, 64
1, 49938, Control_c, 0, 64, 45
1, 49958, Note_on_c, 0, 66, 61
1, 49959, Note_on_c, 0, 69, 69
1, 49963, Note_off_c, 0, 64, 58
1, 50017, Note_off_c, 0, 66, 60
1, 50020, Control_c, 0, 67, 15
1, 50020, Note_off_c, 0, 69, 62
1, 50050, Control_c, 0, 64, 46
1, 50051, Note_off_c, 0, 79, 48
1, 50064, Control_c, 0, 67, 16
1, 50077, Note_on_c, 0, 71, 49
1, 50100, Note_off_c, 0, 71, 58
1, 50153, Note_on_c, 0, 69, 65
1, 50155, Note_on_c, 0, 72, 75
1, 50160, Note_off_c, 0, 76, 55
1, 50315, Note_off_c, 0, 72, 56
1, 50338, Note_off_c, 0, 69, 63
1, 50347, Control_c, 0, 67, 15
1, 50350, Note_on_c, 0, 84, 81
1, 50374, Note_off_c, 0, 84, 67
1, 50524, Note_on_c, 0, 74, 68
1, 50569, Control_c, 0, 64, 45
1, 50572, Note_off_c, 0, 74, 57
1, 50584, Control_c, 0, 64, 45
1, 50599, Control_c, 0, 64, 44
1, 50604, Note_on_c, 0, 84, 78
1, 50614, Control_c, 0, 64, 44
1, 50629, Control_c, 0, 64, 43
1, 50673, Control_c, 0, 64, 42
1, 50693, Note_on_c, 0, 83, 79
1, 50706, Note_on_c, 0, 66, 73
1, 50728, Note_off_c, 0, 84, 61
1, 50744, Note_off_c, 0, 66, 68
1, 50755, Control_c, 0, 64, 42
1, 50777, Note_off_c, 0, 83, 65
1, 50791, Note_on_c, 0, 82, 70
1, 50870, Note_off_c, 0, 82, 58
1, 50881, Note_on_c, 0, 83, 74
1, 50884, Note_on_c, 0, 67, 76
1, 50888, Control_c, 0, 64, 41
1, 50903, Control_c, 0, 64, 41
1, 50917, Control_c, 0, 67, 15
1, 50932, Control_c, 0, 64, 40
1, 50959, Note_off_c, 0, 83, 66
1, 50976, Note_on_c, 0, 78, 70
1, 50977, Control_c, 0, 64, 39
1, 51038, Note_on_c, 0, 59, 65
1, 51063, Note_on_c, 0, 79, 77
1, 51073, Note_off_c, 0, 78, 59
1, 51117, Note_off_c, 0, 59, 60
1, 51130, Note_off_c, 0, 79, 61
1, 51141, Control_c, 0, 64, 38
1, 51157, Note_on_c, 0, 74, 73
1, 51200, Control_c, 0, 64, 38
1, 51215, Note_off_c, 0, 74, 58
1, 51239, Note_on_c, 0, 60, 66
1, 51242, Note_on_c, 0, 75, 77
1, 51299, Note_off_c, 0, 75, 61
1, 51319, Control_c, 0, 67, 15
1, 51332, Note_on_c, 0, 76, 75
1, 51363, Control_c, 0, 67, 16
1, 51371, Note_off_c, 0, 67, 57
1, 51402, Note_off_c, 0, 76, 55
1, 51412, Note_on_c, 0, 80, 76
1, 51415, Note_on_c, 0, 72, 68
1, 51427, Note_off_c, 0, 60, 33
1, 51451, Note_off_c, 0, 72, 63
1, 51452, Control_c, 0, 64, 37
1, 51466, Control_c, 0, 64, 36
1, 51481, Control_c, 0, 64, 34
1, 51500, Note_off_c, 0, 80, 64
1, 51504, Control_c, 0, 64, 31
1, 51510, Note_on_c, 0, 81, 77
1, 51518, Control_c, 0, 64, 24
1, 51533, Control_c, 0, 64, 0
1, 51597, Note_on_c, 0, 62, 48
1, 51602, Note_on_c, 0, 79, 70
1, 51607, Control_c, 0, 67, 15
1, 51615, Note_on_c, 0, 71, 44
1, 51622, Note_off_c, 0, 81, 60
1, 51622, Control_c, 0, 64, 20
1, 51637, Control_c, 0, 64, 45
1, 51652, Control_c, 0, 64, 58
1, 51652, Control_c, 0, 67, 15
1, 51666, Control_c, 0, 64, 64
1, 51681, Control_c, 0, 64, 69
1, 51696, Control_c, 0, 64, 77
1, 51711, Control_c, 0, 64, 86
1, 51725, Control_c, 0, 64, 93
1, 51740, Control_c, 0, 64, 98
1, 51755, Control_c, 0, 64, 104
1, 51770, Control_c, 0, 64, 110
1, 51784, Note_off_c, 0, 62, 42
1, 51785, Note_off_c, 0, 71, 44
1, 51785, Control_c, 0, 64, 114
1, 51785, Control_c, 0, 67, 15
1, 51794, Note_on_c, 0, 69, 55
1, 51795, Note_off_c, 0, 79, 62
1, 51799, Control_c, 0, 64, 117
1, 51799, Control_c, 0, 67, 16
1, 51805, Note_on_c, 0, 78, 59
1, 51815, Control_c, 0, 64, 118
1, 51815, Control_c, 0, 67, 16
1, 51820, Note_off_c, 0, 69, 63
1, 51830, Control_c, 0, 64, 119
1, 51830, Control_c, 0, 67, 17
1, 51839, Note_off_c, 0, 78, 64
1, 51845, Control_c, 0, 64, 120
1, 51845, Control_c, 0, 67, 17
1, 51875, Control_c, 0, 64, 121
1, 51948, Control_c, 0, 64, 119
1, 51963, Control_c, 0, 64, 114
1, 51973, Note_on_c, 0, 55, 64
1, 51978, Control_c, 0, 64, 107
1, 51993, Control_c, 0, 64, 98
1, 52008, Control_c, 0, 64, 90
1, 52008, Control_c, 0, 67, 17
1, 52023, Control_c, 0, 64, 80
1, 52026, Note_off_c, 0, 55, 58
1, 52038, Control_c, 0, 64, 70
1, 52053, Control_c, 0, 64, 52
1, 52059, Note_on_c, 0, 67, 59
1, 52068, Control_c, 0, 64, 0
1, 52078, Note_on_c, 0, 79, 46
1, 52079, Note_on_c, 0, 83, 31
1, 52083, Note_on_c, 0, 84, 29
1, 52103, Note_off_c, 0, 79, 54
1, 52103, Note_off_c, 0, 83, 55
1, 52120, Note_off_c, 0, 84, 46
1, 52122, Note_off_c, 0, 67, 60
1, 52127, Control_c, 0, 67, 17
1, 52130, Note_on_c, 0, 81, 85
1, 52140, Note_on_c, 0, 55, 66
1, 52140, Note_on_c, 0, 78, 73
1, 52158, Note_off_c, 0, 81, 66
1, 52173, Note_off_c, 0, 78, 65
1, 52215, Control_c, 0, 67, 18
1, 52218, Note_off_c, 0, 55, 61
1, 52226, Note_on_c, 0, 84, 83
1, 52244, Note_on_c, 0, 81, 87
1, 52248, Note_on_c, 0, 67, 60
1, 52276, Note_off_c, 0, 81, 62
1, 52297, Note_off_c, 0, 84, 61
1, 52318, Note_off_c, 0, 67, 62
1, 52336, Note_on_c, 0, 83, 73
1, 52338, Note_on_c, 0, 79, 69
1, 52344, Note_on_c, 0, 55, 63
1, 52361, Note_off_c, 0, 83, 72
1, 52369, Note_off_c, 0, 79, 63
1, 52401, Control_c, 0, 67, 18
1, 52407, Note_off_c, 0, 55, 56
1, 52417, Note_on_c, 0, 83, 78
1, 52419, Note_on_c, 0, 86, 78
1, 52430, Control_c, 0, 67, 19
1, 52446, Note_on_c, 0, 67, 53
1, 52452, Note_off_c, 0, 83, 66
1, 52460, Note_off_c, 0, 86, 62
1, 52491, Note_off_c, 0, 67, 61
1, 52512, Note_on_c, 0, 84, 70
1, 52518, Note_on_c, 0, 55, 58
1, 52518, Note_on_c, 0, 81, 71
1, 52538, Note_off_c, 0, 84, 67
1, 52551, Note_off_c, 0, 81, 64
1, 52569, Note_off_c, 0, 55, 59
1, 52596, Note_on_c, 0, 84, 72
1, 52598, Note_on_c, 0, 88, 78
1, 52611, Note_on_c, 0, 67, 47
1, 52633, Note_off_c, 0, 84, 61
1, 52638, Note_off_c, 0, 88, 62
1, 52656, Note_off_c, 0, 67, 61
1, 52693, Note_on_c, 0, 55, 52
1, 52702, Note_on_c, 0, 86, 66
1, 52705, Note_on_c, 0, 83, 66
1, 52727, Note_off_c, 0, 86, 67
1, 52732, Note_off_c, 0, 83, 69
1, 52742, Control_c, 0, 67, 19
1, 52762, Note_off_c, 0, 55, 50
1, 52779, Note_on_c, 0, 67, 46
1, 52816, Control_c, 0, 67, 20
1, 52853, Note_off_c, 0, 67, 59
1, 52886, Note_on_c, 0, 55, 50
1, 52939, Note_off_c, 0, 55, 48
1, 52964, Control_c, 0, 67, 19
1, 52967, Note_on_c, 0, 84, 73
1, 52994, Note_on_c, 0, 81, 50
1, 52997, Note_on_c, 0, 67, 42
1, 53001, Control_c, 0, 67, 19
1, 53008, Note_off_c, 0, 84, 63
1, 53016, Control_c, 0, 67, 18
1, 53019, Note_off_c, 0, 81, 53
1, 53031, Control_c, 0, 67, 18
1, 53039, Note_off_c, 0, 67, 60
1, 53060, Control_c, 0, 67, 17
1, 53069, Note_on_c, 0, 55, 51
1, 53070, Note_on_c, 0, 83, 72
1, 53071, Note_on_c, 0, 79, 66
1, 53098, Note_off_c, 0, 83, 67
1, 53099, Note_off_c, 0, 79, 64
1, 53135, Note_off_c, 0, 55, 56
1, 53165, Note_on_c, 0, 67, 45
1, 53227, Note_off_c, 0, 67, 61
1, 53254, Note_on_c, 0, 55, 54
1, 53326, Note_off_c, 0, 55, 56
1, 53346, Note_on_c, 0, 67, 60
1, 53346, Note_on_c, 0, 81, 85
1, 53352, Note_on_c, 0, 72, 71
1, 53378, Note_off_c, 0, 81, 62
1, 53379, Note_off_c, 0, 72, 65
1, 53405, Note_off_c, 0, 67, 60
1, 53432, Note_on_c, 0, 55, 71
1, 53436, Note_on_c, 0, 71, 75
1, 53437, Note_on_c, 0, 79, 78
1, 53460, Note_off_c, 0, 79, 67
1, 53461, Note_off_c, 0, 71, 70
1, 53507, Control_c, 0, 67, 18
1, 53511, Note_off_c, 0, 55, 61
1, 53514, Note_on_c, 0, 67, 66
1, 53519, Note_on_c, 0, 79, 68
1, 53522, Note_on_c, 0, 83, 84
1, 53536, Control_c, 0, 67, 18
1, 53553, Note_off_c, 0, 83, 66
1, 53556, Note_off_c, 0, 79, 63
1, 53577, Note_off_c, 0, 67, 62
1, 53581, Control_c, 0, 67, 19
1, 53600, Note_on_c, 0, 55, 68
1, 53610, Note_on_c, 0, 81, 83
1, 53618, Note_on_c, 0, 78, 79
1, 53637, Note_off_c, 0, 81, 68
1, 53648, Note_off_c, 0, 78, 64
1, 53686, Note_off_c, 0, 55, 63
1, 53694, Note_on_c, 0, 84, 92
1, 53699, Control_c, 0, 67, 19
1, 53702, Note_on_c, 0, 67, 55
1, 53704, Note_on_c, 0, 81, 88
1, 53747, Note_off_c, 0, 81, 61
1, 53755, Note_off_c, 0, 67, 61
1, 53758, Note_off_c, 0, 84, 65
1, 53789, Note_on_c, 0, 55, 61
1, 53797, Note_on_c, 0, 83, 86
1, 53800, Note_on_c, 0, 79, 78
1, 53830, Note_off_c, 0, 79, 64
1, 53832, Note_off_c, 0, 83, 66
1, 53865, Note_off_c, 0, 55, 57
1, 53885, Note_on_c, 0, 86, 83
1, 53886, Note_on_c, 0, 67, 59
1, 53887, Note_on_c, 0, 83, 75
1, 53916, Note_off_c, 0, 83, 70
1, 53924, Note_off_c, 0, 86, 64
1, 53955, Note_off_c, 0, 67, 63
1, 53976, Note_on_c, 0, 55, 65
1, 53980, Note_on_c, 0, 84, 81
1, 53983, Note_on_c, 0, 81, 81
1, 54002, Note_off_c, 0, 84, 70
1, 54010, Note_off_c, 0, 81, 67
1, 54050, Note_off_c, 0, 55, 57
1, 54067, Note_on_c, 0, 88, 86
1, 54068, Note_on_c, 0, 84, 78
1, 54077, Note_on_c, 0, 67, 57
1, 54096, Note_off_c, 0, 84, 66
1, 54107, Note_off_c, 0, 88, 67
1, 54131, Note_off_c, 0, 67, 59
1, 54160, Note_on_c, 0, 86, 78
1, 54161, Note_on_c, 0, 55, 61
1, 54167, Note_on_c, 0, 83, 71
1, 54187, Note_off_c, 0, 86, 63
1, 54192, Note_off_c, 0, 83, 71
1, 54240, Note_off_c, 0, 55, 57
1, 54271, Note_on_c, 0, 67, 54
1, 54342, Note_off_c, 0, 67, 62
1, 54358, Note_on_c, 0, 55, 60
1, 54436, Note_on_c, 0, 84, 75
1, 54436, Note_off_c, 0, 55, 59
1, 54441, Note_on_c, 0, 81, 70
1, 54447, Control_c, 0, 67, 19
1, 54464, Note_off_c, 0, 84, 64
1, 54466, Note_off_c, 0, 81, 66
1, 54467, Note_on_c, 0, 67, 55
1, 54477, Control_c, 0, 67, 18
1, 54525, Note_off_c, 0, 67, 60
1, 54534, Note_on_c, 0, 79, 76
1, 54534, Note_on_c, 0, 83, 84
1, 54555, Note_on_c, 0, 55, 63
1, 54562, Note_off_c, 0, 79, 63
1, 54569, Note_off_c, 0, 83, 64
1, 54640, Note_off_c, 0, 55, 58
1, 54653, Note_on_c, 0, 67, 61
1, 54722, Note_off_c, 0, 67, 63
1, 54744, Note_on_c, 0, 55, 71
1, 54816, Note_on_c, 0, 81, 81
1, 54821, Note_on_c, 0, 72, 76
1, 54828, Note_off_c, 0, 55, 62
1, 54831, Note_on_c, 0, 67, 72
1, 54849, Note_off_c, 0, 72, 67
1, 54853, Note_off_c, 0, 81, 67
1, 54895, Note_off_c, 0, 67, 63
1, 54897, Note_on_c, 0, 79, 33
1, 54902, Note_on_c, 0, 71, 82
1, 54911, Note_on_c, 0, 55, 78
1, 54923, Note_off_c, 0, 71, 71
1, 54935, Note_off_c, 0, 79, 65
1, 54943, Control_c, 0, 67, 18
1, 54958, Control_c, 0, 67, 19
1, 54989, Note_on_c, 0, 67, 70
1, 54989, Note_on_c, 0, 83, 83
1, 54998, Note_on_c, 0, 79, 81
1, 54998, Note_off_c, 0, 55, 63
1, 55003, Control_c, 0, 67, 19
1, 55025, Note_off_c, 0, 79, 64
1, 55025, Note_off_c, 0, 83, 65
1, 55048, Control_c, 0, 67, 20
1, 55060, Note_off_c, 0, 67, 64
1, 55073, Note_on_c, 0, 81, 88
1, 55075, Note_on_c, 0, 55, 72
1, 55078, Note_on_c, 0, 78, 77
1, 55092, Control_c, 0, 64, 22
1, 55092, Control_c, 0, 67, 20
1, 55100, Note_off_c, 0, 81, 69
1, 55107, Control_c, 0, 64, 28
1, 55121, Note_off_c, 0, 78, 64
1, 55122, Control_c, 0, 64, 30
1, 55159, Note_on_c, 0, 84, 94
1, 55166, Control_c, 0, 64, 27
1, 55166, Control_c, 0, 67, 21
1, 55168, Note_off_c, 0, 55, 63
1, 55168, Note_on_c, 0, 81, 98
1, 55172, Note_on_c, 0, 67, 63
1, 55181, Control_c, 0, 64, 22
1, 55181, Control_c, 0, 67, 22
1, 55196, Control_c, 0, 64, 18
1, 55201, Note_off_c, 0, 81, 62
1, 55211, Control_c, 0, 64, 12
1, 55212, Note_off_c, 0, 84, 64
1, 55226, Control_c, 0, 64, 0
1, 55248, Note_off_c, 0, 67, 62
1, 55264, Note_on_c, 0, 79, 81
1, 55264, Note_on_c, 0, 83, 86
1, 55266, Note_on_c, 0, 55, 71
1, 55291, Note_off_c, 0, 79, 65
1, 55296, Note_off_c, 0, 83, 67
1, 55352, Note_on_c, 0, 86, 89
1, 55353, Note_on_c, 0, 83, 84
1, 55354, Note_off_c, 0, 55, 59
1, 55363, Note_on_c, 0, 67, 70
1, 55385, Note_off_c, 0, 83, 67
1, 55393, Note_off_c, 0, 86, 65
1, 55432, Note_off_c, 0, 67, 63
1, 55445, Note_on_c, 0, 84, 80
1, 55447, Note_on_c, 0, 81, 77
1, 55451, Note_on_c, 0, 55, 72
1, 55472, Note_off_c, 0, 84, 67
1, 55476, Note_off_c, 0, 81, 69
1, 55527, Note_on_c, 0, 88, 87
1, 55530, Note_on_c, 0, 84, 84
1, 55531, Note_off_c, 0, 55, 59
1, 55545, Note_on_c, 0, 67, 67
1, 55563, Note_off_c, 0, 84, 62
1, 55573, Note_off_c, 0, 88, 66
1, 55609, Note_off_c, 0, 67, 63
1, 55624, Note_on_c, 0, 86, 88
1, 55625, Note_on_c, 0, 83, 82
1, 55632, Note_on_c, 0, 55, 73
1, 55652, Note_off_c, 0, 83, 66
1, 55657, Note_off_c, 0, 86, 64
1, 55663, Control_c, 0, 64, 15
1, 55710, Note_off_c, 0, 55, 59
1, 55735, Note_on_c, 0, 67, 64
1, 55766, Control_c, 0, 67, 22
1, 55810, Note_off_c, 0, 67, 62
1, 55825, Note_on_c, 0, 55, 65
1, 55841, Control_c, 0, 64, 12
1, 55901, Note_off_c, 0, 55, 61
1, 55904, Note_on_c, 0, 84, 87
1, 55908, Note_on_c, 0, 81, 85
1, 55930, Note_on_c, 0, 67, 64
1, 55930, Note_off_c, 0, 81, 71
1, 55940, Note_off_c, 0, 84, 63
1, 55995, Note_off_c, 0, 67, 61
1, 56003, Note_on_c, 0, 83, 93
1, 56005, Note_on_c, 0, 79, 84
1, 56011, Control_c, 0, 67, 22
1, 56023, Note_on_c, 0, 55, 67
1, 56034, Note_off_c, 0, 79, 61
1, 56037, Note_off_c, 0, 83, 68
1, 56071, Control_c, 0, 67, 21
1, 56086, Control_c, 0, 67, 21
1, 56101, Control_c, 0, 67, 20
1, 56107, Note_off_c, 0, 55, 61
1, 56115, Control_c, 0, 67, 19
1, 56121, Note_on_c, 0, 67, 60
1, 56130, Control_c, 0, 67, 19
1, 56160, Control_c, 0, 67, 18
1, 56175, Control_c, 0, 67, 18
1, 56175, Note_off_c, 0, 67, 60
1, 56189, Control_c, 0, 67, 17
1, 56204, Control_c, 0, 67, 16
1, 56210, Note_on_c, 0, 55, 63
1, 56219, Control_c, 0, 67, 15
1, 56233, Control_c, 0, 67, 14
1, 56248, Control_c, 0, 67, 12
1, 56263, Control_c, 0, 67, 8
1, 56273, Note_off_c, 0, 55, 59
1, 56278, Control_c, 0, 67, 0
1, 56298, Note_on_c, 0, 67, 57
1, 56301, Note_on_c, 0, 81, 92
1, 56304, Note_on_c, 0, 72, 83
1, 56329, Note_off_c, 0, 72, 69
1, 56334, Note_off_c, 0, 81, 59
1, 56372, Note_off_c, 0, 67, 59
1, 56388, Note_on_c, 0, 55, 59
1, 56396, Control_c, 0, 64, 18
1, 56405, Note_on_c, 0, 79, 80
1, 56407, Note_on_c, 0, 71, 67
1, 56411, Control_c, 0, 64, 27
1, 56426, Control_c, 0, 64, 36
1, 56441, Control_c, 0, 64, 42
1, 56456, Control_c, 0, 64, 49
1, 56470, Control_c, 0, 64, 55
1, 56474, Note_off_c, 0, 55, 59
1, 56485, Control_c, 0, 64, 60
1, 56500, Note_on_c, 0, 67, 56
1, 56500, Control_c, 0, 64, 63
1, 56515, Control_c, 0, 64, 66
1, 56530, Control_c, 0, 64, 71
1, 56545, Control_c, 0, 64, 76
1, 56560, Control_c, 0, 64, 80
1, 56575, Control_c, 0, 64, 83
1, 56581, Note_off_c, 0, 67, 59
1, 56589, Control_c, 0, 64, 88
1, 56599, Note_on_c, 0, 55, 55
1, 56605, Control_c, 0, 64, 93
1, 56619, Control_c, 0, 64, 100
1, 56634, Control_c, 0, 64, 105
1, 56649, Control_c, 0, 64, 110
1, 56664, Control_c, 0, 64, 114
1, 56671, Note_off_c, 0, 55, 51
1, 56679, Control_c, 0, 64, 116
1, 56694, Control_c, 0, 64, 118
1, 56706, Note_on_c, 0, 67, 53
1, 56709, Control_c, 0, 64, 120
1, 56730, Control_c, 0, 64, 124
1, 56745, Control_c, 0, 64, 126
1, 56760, Control_c, 0, 64, 127
1, 56778, Note_off_c, 0, 67, 56
1, 56804, Note_on_c, 0, 55, 56
1, 56863, Note_off_c, 0, 79, 59
1, 56873, Note_off_c, 0, 55, 54
1, 56903, Note_on_c, 0, 67, 56
1, 56979, Note_off_c, 0, 67, 60
1, 56998, Note_on_c, 0, 55, 60
1, 57082, Note_off_c, 0, 55, 59
1, 57085, Note_off_c, 0, 71, 58
1, 57098, Note_on_c, 0, 67, 56
1, 57141, Note_off_c, 0, 67, 61
1, 57199, Note_on_c, 0, 55, 54
1, 57216, Note_on_c, 0, 80, 83
1, 57235, Control_c, 0, 64, 110
1, 57248, Note_on_c, 0, 71, 49
1, 57250, Control_c, 0, 64, 97
1, 57264, Control_c, 0, 64, 86
1, 57279, Control_c, 0, 64, 75
1, 57285, Note_off_c, 0, 55, 57
1, 57294, Control_c, 0, 64, 65
1, 57309, Control_c, 0, 64, 40
1, 57310, Note_off_c, 0, 71, 0
1, 57310, Note_on_c, 0, 71, 3
1, 57323, Note_on_c, 0, 65, 52
1, 57324, Control_c, 0, 64, 46
1, 57338, Control_c, 0, 64, 59
1, 57353, Control_c, 0, 64, 64
1, 57368, Note_off_c, 0, 65, 60
1, 57368, Control_c, 0, 64, 68
1, 57383, Control_c, 0, 64, 72
1, 57398, Control_c, 0, 64, 77
1, 57412, Note_on_c, 0, 55, 55
1, 57414, Control_c, 0, 64, 81
1, 57428, Control_c, 0, 64, 83
1, 57443, Control_c, 0, 64, 84
1, 57449, Note_off_c, 0, 71, 43
1, 57451, Note_off_c, 0, 55, 62
1, 57458, Control_c, 0, 64, 86
1, 57473, Control_c, 0, 64, 88
1, 57495, Control_c, 0, 64, 90
1, 57506, Note_on_c, 0, 65, 44
1, 57510, Control_c, 0, 64, 91
1, 57525, Control_c, 0, 64, 92
1, 57540, Control_c, 0, 64, 92
1, 57555, Control_c, 0, 64, 93
1, 57569, Note_off_c, 0, 65, 59
1, 57584, Control_c, 0, 64, 93
1, 57603, Note_on_c, 0, 55, 53
1, 57614, Control_c, 0, 64, 94
1, 57658, Control_c, 0, 64, 94
1, 57669, Note_off_c, 0, 55, 55
1, 57699, Note_on_c, 0, 65, 54
1, 57747, Note_off_c, 0, 65, 57
1, 57781, Note_on_c, 0, 55, 53
1, 57828, Note_off_c, 0, 55, 59
1, 57880, Note_on_c, 0, 65, 46
1, 57933, Note_off_c, 0, 65, 50
1, 57939, Control_c, 0, 64, 94
1, 57953, Control_c, 0, 64, 91
1, 57968, Control_c, 0, 64, 87
1, 57973, Note_on_c, 0, 55, 47
1, 57982, Note_on_c, 0, 72, 78
1, 57983, Control_c, 0, 64, 81
1, 57998, Control_c, 0, 64, 72
1, 58012, Control_c, 0, 64, 55
1, 58027, Control_c, 0, 64, 0
1, 58037, Note_off_c, 0, 80, 57
1, 58057, Control_c, 0, 64, 48
1, 58064, Note_off_c, 0, 55, 53
1, 58072, Control_c, 0, 64, 61
1, 58079, Note_on_c, 0, 63, 57
1, 58086, Control_c, 0, 64, 65
1, 58101, Control_c, 0, 64, 67
1, 58116, Control_c, 0, 64, 70
1, 58131, Control_c, 0, 64, 75
1, 58146, Control_c, 0, 64, 81
1, 58154, Note_off_c, 0, 63, 61
1, 58161, Control_c, 0, 64, 86
1, 58176, Control_c, 0, 64, 88
1, 58183, Note_on_c, 0, 55, 59
1, 58190, Control_c, 0, 64, 89
1, 58206, Control_c, 0, 64, 91
1, 58221, Control_c, 0, 64, 93
1, 58243, Control_c, 0, 64, 94
1, 58253, Note_off_c, 0, 55, 53
1, 58258, Control_c, 0, 64, 96
1, 58273, Control_c, 0, 64, 97
1, 58278, Note_on_c, 0, 63, 56
1, 58288, Control_c, 0, 64, 98
1, 58303, Control_c, 0, 64, 99
1, 58317, Control_c, 0, 64, 100
1, 58332, Control_c, 0, 64, 101
1, 58345, Note_off_c, 0, 63, 55
1, 58347, Control_c, 0, 64, 103
1, 58362, Control_c, 0, 64, 103
1, 58372, Note_on_c, 0, 55, 62
1, 58377, Control_c, 0, 64, 104
1, 58384, Note_on_c, 0, 79, 86
1, 58391, Control_c, 0, 64, 105
1, 58406, Control_c, 0, 64, 105
1, 58421, Control_c, 0, 64, 106
1, 58450, Control_c, 0, 64, 106
1, 58451, Note_off_c, 0, 55, 53
1, 58461, Note_on_c, 0, 63, 60
1, 58462, Note_off_c, 0, 72, 54
1, 58465, Control_c, 0, 64, 107
1, 58480, Control_c, 0, 64, 107
1, 58509, Control_c, 0, 64, 108
1, 58524, Control_c, 0, 64, 109
1, 58545, Note_off_c, 0, 63, 62
1, 58554, Control_c, 0, 64, 109
1, 58566, Note_on_c, 0, 55, 69
1, 58583, Note_off_c, 0, 79, 62
1, 58599, Control_c, 0, 64, 110
1, 58614, Control_c, 0, 64, 110
1, 58628, Control_c, 0, 64, 111
1, 58643, Control_c, 0, 64, 112
1, 58646, Note_off_c, 0, 55, 60
1, 58658, Note_on_c, 0, 63, 65
1, 58658, Control_c, 0, 64, 112
1, 58701, Control_c, 0, 64, 113
1, 58735, Note_off_c, 0, 63, 59
1, 58763, Note_on_c, 0, 57, 59
1, 58784, Note_on_c, 0, 78, 91
1, 58790, Control_c, 0, 64, 110
1, 58796, Note_on_c, 0, 72, 77
1, 58805, Control_c, 0, 64, 106
1, 58819, Control_c, 0, 64, 99
1, 58825, Note_off_c, 0, 57, 51
1, 58834, Control_c, 0, 64, 92
1, 58849, Control_c, 0, 64, 85
1, 58854, Note_on_c, 0, 63, 58
1, 58864, Control_c, 0, 64, 76
1, 58879, Control_c, 0, 64, 67
1, 58894, Control_c, 0, 64, 48
1, 58909, Control_c, 0, 64, 0
1, 58913, Note_off_c, 0, 63, 57
1, 58942, Note_on_c, 0, 57, 60
1, 58998, Note_off_c, 0, 57, 55
1, 59036, Control_c, 0, 64, 22
1, 59043, Note_on_c, 0, 63, 54
1, 59051, Control_c, 0, 64, 54
1, 59065, Control_c, 0, 64, 63
1, 59080, Control_c, 0, 64, 66
1, 59095, Control_c, 0, 64, 69
1, 59110, Control_c, 0, 64, 73
1, 59125, Control_c, 0, 64, 78
1, 59129, Note_off_c, 0, 63, 60
1, 59139, Control_c, 0, 64, 82
1, 59141, Note_on_c, 0, 57, 55
1, 59154, Control_c, 0, 64, 84
1, 59169, Control_c, 0, 64, 86
1, 59184, Control_c, 0, 64, 88
1, 59199, Control_c, 0, 64, 89
1, 59202, Note_off_c, 0, 57, 53
1, 59213, Control_c, 0, 64, 91
1, 59225, Note_off_c, 0, 72, 36
1, 59228, Control_c, 0, 64, 91
1, 59243, Control_c, 0, 64, 92
1, 59251, Note_on_c, 0, 63, 54
1, 59273, Control_c, 0, 64, 92
1, 59305, Note_off_c, 0, 63, 55
1, 59330, Note_on_c, 0, 57, 56
1, 59394, Note_off_c, 0, 78, 51
1, 59429, Note_off_c, 0, 57, 53
1, 59436, Note_on_c, 0, 63, 48
1, 59524, Note_off_c, 0, 63, 51
1, 59539, Control_c, 0, 64, 92
1, 59544, Note_on_c, 0, 59, 45
1, 59547, Note_on_c, 0, 77, 77
1, 59554, Control_c, 0, 64, 91
1, 59559, Note_on_c, 0, 67, 61
1, 59568, Control_c, 0, 64, 91
1, 59583, Control_c, 0, 64, 89
1, 59598, Control_c, 0, 64, 88
1, 59613, Control_c, 0, 64, 86
1, 59628, Control_c, 0, 64, 84
1, 59642, Note_off_c, 0, 59, 59
1, 59642, Control_c, 0, 64, 81
1, 59657, Control_c, 0, 64, 78
1, 59659, Note_on_c, 0, 62, 48
1, 59672, Control_c, 0, 64, 74
1, 59687, Control_c, 0, 64, 69
1, 59702, Control_c, 0, 64, 65
1, 59715, Note_off_c, 0, 62, 58
1, 59717, Control_c, 0, 64, 63
1, 59739, Control_c, 0, 64, 61
1, 59749, Note_on_c, 0, 59, 49
1, 59754, Control_c, 0, 64, 59
1, 59769, Control_c, 0, 64, 57
1, 59783, Control_c, 0, 64, 54
1, 59797, Note_off_c, 0, 59, 58
1, 59798, Control_c, 0, 64, 52
1, 59814, Control_c, 0, 64, 50
1, 59829, Control_c, 0, 64, 48
1, 59838, Note_on_c, 0, 62, 54
1, 59844, Control_c, 0, 64, 45
1, 59859, Control_c, 0, 64, 43
1, 59874, Control_c, 0, 64, 42
1, 59907, Note_off_c, 0, 62, 57
1, 59931, Note_on_c, 0, 59, 57
1, 59937, Note_off_c, 0, 67, 62
1, 59943, Note_on_c, 0, 74, 65
1, 60008, Note_off_c, 0, 59, 37
1, 60021, Control_c, 0, 64, 43
1, 60051, Control_c, 0, 64, 44
1, 60059, Note_on_c, 0, 67, 52
1, 60107, Note_off_c, 0, 67, 58
1, 60137, Note_on_c, 0, 59, 55
1, 60199, Note_off_c, 0, 59, 59
1, 60232, Note_on_c, 0, 67, 53
1, 60316, Note_off_c, 0, 67, 62
1, 60318, Control_c, 0, 64, 43
1, 60320, Note_on_c, 0, 76, 70
1, 60325, Note_off_c, 0, 77, 58
1, 60332, Control_c, 0, 64, 42
1, 60335, Note_on_c, 0, 60, 62
1, 60377, Control_c, 0, 64, 42
1, 60427, Note_off_c, 0, 60, 54
1, 60449, Note_on_c, 0, 67, 56
1, 60451, Control_c, 0, 64, 41
1, 60511, Note_off_c, 0, 67, 56
1, 60550, Note_on_c, 0, 60, 59
1, 60591, Note_off_c, 0, 60, 60
1, 60634, Note_on_c, 0, 67, 53
1, 60701, Note_off_c, 0, 67, 57
1, 60712, Note_on_c, 0, 71, 69
1, 60720, Note_on_c, 0, 60, 49
1, 60730, Note_off_c, 0, 74, 47
1, 60795, Note_off_c, 0, 60, 55
1, 60808, Note_on_c, 0, 68, 62
1, 60884, Note_off_c, 0, 68, 55
1, 60923, Note_on_c, 0, 60, 55
1, 60975, Note_off_c, 0, 60, 55
1, 61011, Note_on_c, 0, 68, 54
1, 61037, Control_c, 0, 64, 42
1, 61052, Control_c, 0, 64, 42
1, 61076, Note_off_c, 0, 68, 53
1, 61082, Control_c, 0, 64, 43
1, 61085, Note_on_c, 0, 72, 70
1, 61100, Note_on_c, 0, 60, 55
1, 61131, Note_off_c, 0, 71, 58
1, 61155, Control_c, 0, 64, 44
1, 61159, Note_off_c, 0, 60, 52
1, 61185, Control_c, 0, 64, 44
1, 61200, Control_c, 0, 64, 45
1, 61203, Note_on_c, 0, 69, 45
1, 61215, Control_c, 0, 64, 48
1, 61237, Control_c, 0, 64, 52
1, 61252, Control_c, 0, 64, 58
1, 61267, Control_c, 0, 64, 63
1, 61267, Note_off_c, 0, 69, 59
1, 61282, Control_c, 0, 64, 65
1, 61287, Note_on_c, 0, 60, 59
1, 61297, Control_c, 0, 64, 67
1, 61311, Control_c, 0, 64, 71
1, 61326, Control_c, 0, 64, 76
1, 61341, Control_c, 0, 64, 80
1, 61355, Control_c, 0, 64, 82
1, 61358, Note_off_c, 0, 60, 55
1, 61370, Control_c, 0, 64, 84
1, 61385, Note_on_c, 0, 69, 56
1, 61385, Control_c, 0, 64, 88
1, 61401, Control_c, 0, 64, 91
1, 61416, Control_c, 0, 64, 94
1, 61431, Control_c, 0, 64, 96
1, 61445, Control_c, 0, 64, 97
1, 61458, Note_off_c, 0, 69, 60
1, 61460, Control_c, 0, 64, 98
1, 61461, Note_off_c, 0, 72, 61
1, 61475, Control_c, 0, 64, 99
1, 61475, Note_on_c, 0, 60, 63
1, 61490, Control_c, 0, 64, 99
1, 61505, Control_c, 0, 64, 101
1, 61519, Control_c, 0, 64, 102
1, 61534, Control_c, 0, 64, 103
1, 61549, Control_c, 0, 64, 104
1, 61550, Note_off_c, 0, 60, 56
1, 61564, Control_c, 0, 64, 106
1, 61571, Note_off_c, 0, 76, 57
1, 61575, Note_on_c, 0, 69, 69
1, 61578, Control_c, 0, 64, 108
1, 61593, Control_c, 0, 64, 111
1, 61608, Control_c, 0, 64, 115
1, 61623, Control_c, 0, 64, 120
1, 61638, Control_c, 0, 64, 127
1, 61656, Note_off_c, 0, 69, 58
1, 61665, Note_on_c, 0, 60, 74
1, 61760, Note_off_c, 0, 60, 59
1, 61761, Note_on_c, 0, 69, 74
1, 61826, Note_off_c, 0, 69, 62
1, 61830, Control_c, 0, 64, 126
1, 61845, Control_c, 0, 64, 109
1, 61858, Note_on_c, 0, 76, 87
1, 61860, Control_c, 0, 64, 98
1, 61861, Note_on_c, 0, 61, 69
1, 61865, Note_on_c, 0, 70, 80
1, 61875, Control_c, 0, 64, 89
1, 61890, Control_c, 0, 64, 82
1, 61904, Control_c, 0, 64, 74
1, 61919, Control_c, 0, 64, 66
1, 61934, Control_c, 0, 64, 52
1, 61949, Control_c, 0, 64, 15
1, 61951, Note_off_c, 0, 61, 56
1, 61964, Control_c, 0, 64, 0
1, 61982, Note_on_c, 0, 67, 60
1, 62046, Note_off_c, 0, 67, 61
1, 62071, Note_on_c, 0, 61, 65
1, 62138, Note_off_c, 0, 61, 56
1, 62167, Note_on_c, 0, 67, 59
1, 62229, Note_off_c, 0, 67, 58
1, 62253, Note_on_c, 0, 61, 63
1, 62330, Note_off_c, 0, 61, 58
1, 62357, Note_on_c, 0, 67, 53
1, 62414, Note_off_c, 0, 67, 57
1, 62446, Control_c, 0, 67, 8
1, 62456, Note_on_c, 0, 61, 56
1, 62461, Control_c, 0, 67, 9
1, 62475, Control_c, 0, 67, 9
1, 62490, Control_c, 0, 67, 10
1, 62492, Note_off_c, 0, 61, 62
1, 62505, Control_c, 0, 67, 10
1, 62519, Control_c, 0, 67, 11
1, 62534, Control_c, 0, 67, 12
1, 62535, Note_on_c, 0, 67, 55
1, 62549, Control_c, 0, 67, 12
1, 62564, Control_c, 0, 67, 13
1, 62579, Control_c, 0, 67, 13
1, 62593, Control_c, 0, 67, 14
1, 62597, Note_off_c, 0, 67, 54
1, 62608, Control_c, 0, 67, 15
1, 62638, Control_c, 0, 67, 15
1, 62642, Note_on_c, 0, 62, 53
1, 62651, Note_on_c, 0, 74, 64
1, 62653, Control_c, 0, 67, 16
1, 62671, Note_off_c, 0, 76, 59
1, 62683, Control_c, 0, 67, 16
1, 62698, Control_c, 0, 67, 17
1, 62712, Control_c, 0, 67, 17
1, 62726, Note_off_c, 0, 62, 58
1, 62734, Control_c, 0, 67, 18
1, 62749, Note_on_c, 0, 67, 43
1, 62749, Control_c, 0, 67, 19
1, 62764, Control_c, 0, 67, 19
1, 62779, Control_c, 0, 67, 20
1, 62794, Control_c, 0, 67, 22
1, 62808, Control_c, 0, 67, 24
1, 62809, Note_off_c, 0, 67, 60
1, 62823, Control_c, 0, 67, 25
1, 62838, Control_c, 0, 67, 27
1, 62845, Note_on_c, 0, 62, 51
1, 62853, Control_c, 0, 67, 28
1, 62868, Control_c, 0, 67, 29
1, 62882, Control_c, 0, 67, 30
1, 62900, Note_off_c, 0, 62, 55
1, 62927, Control_c, 0, 67, 30
1, 62936, Note_on_c, 0, 67, 51
1, 62999, Note_off_c, 0, 67, 56
1, 63021, Note_on_c, 0, 69, 68
1, 63038, Note_on_c, 0, 62, 46
1, 63056, Note_off_c, 0, 70, 52
1, 63097, Note_off_c, 0, 62, 56
1, 63125, Note_on_c, 0, 67, 50
1, 63189, Note_off_c, 0, 67, 57
1, 63232, Note_on_c, 0, 62, 45
1, 63254, Control_c, 0, 67, 30
1, 63281, Note_off_c, 0, 62, 59
1, 63313, Note_on_c, 0, 67, 47
1, 63369, Note_off_c, 0, 67, 53
1, 63408, Note_on_c, 0, 71, 62
1, 63425, Note_on_c, 0, 62, 42
1, 63431, Control_c, 0, 67, 29
1, 63434, Note_off_c, 0, 69, 57
1, 63483, Control_c, 0, 67, 29
1, 63485, Note_off_c, 0, 62, 58
1, 63512, Note_on_c, 0, 66, 52
1, 63584, Note_off_c, 0, 66, 61
1, 63603, Note_on_c, 0, 62, 55
1, 63684, Note_off_c, 0, 62, 56
1, 63708, Note_on_c, 0, 66, 53
1, 63771, Note_off_c, 0, 66, 60
1, 63783, Note_on_c, 0, 72, 68
1, 63809, Note_off_c, 0, 71, 54
1, 63818, Note_on_c, 0, 62, 49
1, 63867, Note_off_c, 0, 62, 56
1, 63896, Note_on_c, 0, 66, 54
1, 63921, Note_off_c, 0, 74, 0
1, 63950, Note_off_c, 0, 66, 60
1, 63958, Poly_aftertouch_c, 0, 74, 127
1, 63985, Note_on_c, 0, 62, 50
1, 64069, Note_off_c, 0, 62, 52
1, 64070, Note_on_c, 0, 66, 60
1, 64107, Control_c, 0, 67, 28
1, 64134, Note_off_c, 0, 66, 64
1, 64142, Poly_aftertouch_c, 0, 74, 0
1, 64152, Note_off_c, 0, 72, 41
1, 64155, Note_on_c, 0, 71, 75
1, 64164, Note_on_c, 0, 67, 65
1, 64182, Note_off_c, 0, 71, 69
1, 64197, Note_off_c, 0, 67, 64
1, 64335, Note_on_c, 0, 74, 67
1, 64341, Note_on_c, 0, 79, 80
1, 64351, Note_on_c, 0, 55, 56
1, 64352, Note_on_c, 0, 59, 59
1, 64352, Note_on_c, 0, 83, 81
1, 64361, Note_off_c, 0, 74, 67
1, 64366, Note_off_c, 0, 79, 67
1, 64367, Note_on_c, 0, 62, 61
1, 64381, Control_c, 0, 67, 29
1, 64382, Note_off_c, 0, 59, 66
1, 64388, Note_off_c, 0, 83, 68
1, 64392, Note_off_c, 0, 55, 65
1, 64401, Note_off_c, 0, 62, 64
1, 64511, Note_on_c, 0, 74, 66
1, 64513, Note_on_c, 0, 81, 90
1, 64519, Note_on_c, 0, 84, 85
1, 64521, Note_on_c, 0, 50, 69
1, 64522, Note_on_c, 0, 62, 70
1, 64522, Note_on_c, 0, 54, 66
1, 64537, Note_off_c, 0, 74, 68
1, 64542, Note_off_c, 0, 81, 67
1, 64557, Note_off_c, 0, 50, 66
1, 64558, Note_off_c, 0, 54, 64
1, 64559, Note_off_c, 0, 62, 58
1, 64561, Note_off_c, 0, 84, 65
1, 64685, Note_on_c, 0, 74, 71
1, 64694, Note_on_c, 0, 79, 76
1, 64695, Note_on_c, 0, 83, 84
1, 64702, Note_on_c, 0, 62, 65
1, 64703, Note_on_c, 0, 59, 62
1, 64708, Note_off_c, 0, 74, 69
1, 64710, Note_on_c, 0, 55, 60
1, 64716, Note_off_c, 0, 79, 67
1, 64734, Note_off_c, 0, 59, 65
1, 64734, Note_off_c, 0, 62, 64
1, 64738, Note_off_c, 0, 83, 68
1, 64740, Note_off_c, 0, 55, 64
1, 64841, Control_c, 0, 64, 37
1, 64856, Control_c, 0, 64, 63
1, 64856, Control_c, 0, 67, 28
1, 64861, Note_on_c, 0, 76, 70
1, 64870, Control_c, 0, 64, 74
1, 64878, Note_on_c, 0, 48, 80
1, 64882, Note_on_c, 0, 88, 81
1, 64885, Control_c, 0, 64, 97
1, 64887, Note_off_c, 0, 76, 69
1, 64889, Note_on_c, 0, 60, 65
1, 64892, Note_on_c, 0, 84, 54
1, 64897, Note_on_c, 0, 86, 56
1, 64900, Control_c, 0, 64, 127
1, 64900, Control_c, 0, 67, 28
1, 64908, Note_off_c, 0, 48, 65
1, 64908, Note_off_c, 0, 88, 69
1, 64912, Note_off_c, 0, 84, 61
1, 64918, Note_off_c, 0, 60, 63
1, 64919, Note_off_c, 0, 86, 37
1, 65026, Control_c, 0, 67, 28
1, 65218, Control_c, 0, 64, 110
1, 65233, Control_c, 0, 64, 99
1, 65240, Note_on_c, 0, 66, 65
1, 65247, Control_c, 0, 64, 91
1, 65254, Note_on_c, 0, 69, 69
1, 65262, Control_c, 0, 64, 83
1, 65277, Control_c, 0, 64, 76
1, 65277, Control_c, 0, 67, 28
1, 65292, Control_c, 0, 64, 68
1, 65307, Control_c, 0, 64, 55
1, 65321, Control_c, 0, 64, 30
1, 65336, Control_c, 0, 64, 0
1, 65336, Control_c, 0, 67, 27
1, 65380, Note_off_c, 0, 69, 63
1, 65391, Note_on_c, 0, 71, 64
1, 65402, Note_off_c, 0, 66, 57
1, 65426, Note_on_c, 0, 62, 52
1, 65431, Note_off_c, 0, 71, 64
1, 65434, Note_on_c, 0, 72, 73
1, 65556, Note_off_c, 0, 62, 61
1, 65570, Note_off_c, 0, 72, 63
1, 65574, Note_on_c, 0, 74, 58
1, 65604, Note_on_c, 0, 67, 59
1, 65619, Control_c, 0, 67, 28
1, 65621, Note_off_c, 0, 74, 64
1, 65623, Note_on_c, 0, 71, 65
1, 65632, Note_off_c, 0, 67, 65
1, 65654, Note_off_c, 0, 71, 66
1, 65784, Note_on_c, 0, 74, 64
1, 65795, Note_on_c, 0, 59, 58
1, 65798, Note_on_c, 0, 79, 73
1, 65807, Note_on_c, 0, 55, 58
1, 65810, Note_on_c, 0, 62, 63
1, 65810, Note_on_c, 0, 83, 79
1, 65811, Note_off_c, 0, 74, 67
1, 65822, Note_off_c, 0, 79, 67
1, 65828, Note_off_c, 0, 59, 65
1, 65837, Note_off_c, 0, 83, 69
1, 65842, Note_off_c, 0, 55, 63
1, 65842, Note_off_c, 0, 62, 64
1, 65971, Note_on_c, 0, 74, 60
1, 65972, Note_on_c, 0, 84, 84
1, 65975, Note_on_c, 0, 81, 79
1, 65976, Note_on_c, 0, 62, 67
1, 65978, Note_on_c, 0, 57, 66
1, 65984, Note_on_c, 0, 54, 59
1, 65990, Note_off_c, 0, 74, 65
1, 65999, Note_off_c, 0, 81, 68
1, 66006, Note_off_c, 0, 62, 65
1, 66007, Note_off_c, 0, 57, 65
1, 66014, Note_off_c, 0, 54, 65
1, 66017, Note_off_c, 0, 84, 65
1, 66141, Note_on_c, 0, 74, 66
1, 66146, Note_on_c, 0, 79, 79
1, 66149, Note_on_c, 0, 83, 85
1, 66158, Note_on_c, 0, 55, 69
1, 66158, Note_on_c, 0, 62, 69
1, 66161, Note_on_c, 0, 59, 57
1, 66167, Note_off_c, 0, 74, 66
1, 66169, Note_off_c, 0, 79, 67
1, 66185, Note_off_c, 0, 59, 62
1, 66188, Note_off_c, 0, 62, 64
1, 66190, Control_c, 0, 67, 28
1, 66192, Note_off_c, 0, 83, 69
1, 66200, Note_off_c, 0, 55, 62
1, 66279, Control_c, 0, 67, 29
1, 66293, Control_c, 0, 64, 62
1, 66304, Note_on_c, 0, 76, 76
1, 66308, Control_c, 0, 64, 74
1, 66323, Control_c, 0, 64, 101
1, 66325, Note_on_c, 0, 88, 89
1, 66328, Note_off_c, 0, 76, 70
1, 66329, Note_on_c, 0, 84, 76
1, 66331, Note_on_c, 0, 48, 85
1, 66334, Note_on_c, 0, 60, 76
1, 66338, Control_c, 0, 64, 127
1, 66353, Note_off_c, 0, 84, 67
1, 66353, Control_c, 0, 67, 29
1, 66358, Note_off_c, 0, 60, 68
1, 66361, Note_off_c, 0, 88, 67
1, 66371, Note_off_c, 0, 48, 59
1, 66382, Control_c, 0, 67, 30
1, 66626, Control_c, 0, 64, 121
1, 66641, Control_c, 0, 64, 107
1, 66656, Control_c, 0, 64, 99
1, 66671, Control_c, 0, 64, 90
1, 66686, Control_c, 0, 64, 82
1, 66701, Note_on_c, 0, 66, 71
1, 66701, Control_c, 0, 64, 73
1, 66716, Control_c, 0, 64, 65
1, 66731, Control_c, 0, 64, 50
1, 66734, Note_off_c, 0, 66, 67
1, 66746, Control_c, 0, 64, 26
1, 66758, Note_on_c, 0, 69, 58
1, 66761, Control_c, 0, 64, 15
1, 66790, Control_c, 0, 64, 0
1, 66811, Note_on_c, 0, 72, 74
1, 66816, Note_off_c, 0, 69, 60
1, 66819, Control_c, 0, 67, 29
1, 66853, Note_on_c, 0, 57, 54
1, 66864, Note_on_c, 0, 50, 49
1, 66877, Note_off_c, 0, 72, 64
1, 66882, Note_on_c, 0, 76, 65
1, 66931, Note_off_c, 0, 57, 0
1, 66937, Note_off_c, 0, 76, 62
1, 66944, Note_on_c, 0, 74, 69
1, 66968, Poly_aftertouch_c, 0, 57, 127
1, 66994, Note_off_c, 0, 74, 63
1, 66999, Note_on_c, 0, 72, 78
1, 67035, Poly_aftertouch_c, 0, 57, 0
1, 67044, Note_on_c, 0, 55, 61
1, 67044, Note_off_c, 0, 50, 37
1, 67045, Note_off_c, 0, 72, 65
1, 67046, Note_on_c, 0, 71, 76
1, 67069, Note_off_c, 0, 71, 71
1, 67073, Control_c, 0, 67, 30
1, 67074, Note_off_c, 0, 55, 64
1, 67088, Control_c, 0, 67, 31
1, 67103, Control_c, 0, 67, 31
1, 67117, Control_c, 0, 67, 32
1, 67132, Control_c, 0, 67, 33
1, 67147, Control_c, 0, 67, 35
1, 67162, Control_c, 0, 67, 36
1, 67177, Control_c, 0, 67, 37
1, 67191, Control_c, 0, 67, 38
1, 67206, Control_c, 0, 67, 38
1, 67220, Note_on_c, 0, 55, 57
1, 67220, Note_on_c, 0, 74, 64
1, 67243, Control_c, 0, 67, 39
1, 67264, Note_off_c, 0, 55, 64
1, 67265, Note_off_c, 0, 74, 61
1, 67273, Note_on_c, 0, 59, 65
1, 67276, Note_on_c, 0, 79, 69
1, 67306, Note_off_c, 0, 59, 65
1, 67333, Note_off_c, 0, 79, 63
1, 67334, Note_on_c, 0, 83, 81
1, 67339, Note_on_c, 0, 62, 60
1, 67362, Control_c, 0, 67, 38
1, 67372, Note_off_c, 0, 83, 59
1, 67387, Note_off_c, 0, 62, 56
1, 67390, Note_on_c, 0, 54, 67
1, 67392, Note_on_c, 0, 74, 71
1, 67433, Note_off_c, 0, 54, 62
1, 67443, Note_on_c, 0, 81, 86
1, 67446, Note_off_c, 0, 74, 63
1, 67452, Note_on_c, 0, 57, 49
1, 67477, Note_off_c, 0, 57, 50
1, 67491, Note_on_c, 0, 62, 62
1, 67495, Control_c, 0, 67, 39
1, 67503, Note_on_c, 0, 84, 86
1, 67506, Note_off_c, 0, 81, 67
1, 67524, Control_c, 0, 67, 39
1, 67551, Note_off_c, 0, 84, 63
1, 67554, Note_off_c, 0, 62, 59
1, 67555, Note_on_c, 0, 55, 68
1, 67570, Note_on_c, 0, 74, 73
1, 67613, Note_off_c, 0, 74, 62
1, 67616, Note_off_c, 0, 55, 60
1, 67618, Note_on_c, 0, 79, 71
1, 67622, Note_on_c, 0, 59, 48
1, 67643, Control_c, 0, 67, 40
1, 67650, Note_off_c, 0, 59, 62
1, 67652, Note_off_c, 0, 79, 66
1, 67654, Note_on_c, 0, 83, 83
1, 67655, Note_on_c, 0, 62, 68
1, 67689, Note_off_c, 0, 62, 63
1, 67695, Note_off_c, 0, 83, 67
1, 67717, Control_c, 0, 67, 40
1, 67729, Note_on_c, 0, 76, 80
1, 67733, Note_on_c, 0, 48, 76
1, 67747, Control_c, 0, 67, 41
1, 67759, Note_off_c, 0, 76, 65
1, 67761, Note_off_c, 0, 48, 65
1, 67761, Control_c, 0, 67, 42
1, 67776, Control_c, 0, 67, 42
1, 67792, Control_c, 0, 67, 43
1, 67802, Note_on_c, 0, 88, 80
1, 67807, Control_c, 0, 67, 44
1, 67822, Control_c, 0, 67, 45
1, 67837, Control_c, 0, 67, 46
1, 67852, Control_c, 0, 67, 47
1, 67854, Note_off_c, 0, 88, 65
1, 67863, Note_on_c, 0, 86, 70
1, 67866, Control_c, 0, 67, 48
1, 67881, Control_c, 0, 67, 49
1, 67896, Control_c, 0, 67, 49
1, 67907, Note_off_c, 0, 86, 63
1, 67917, Note_on_c, 0, 84, 73
1, 67962, Note_off_c, 0, 84, 64
1, 67962, Control_c, 0, 67, 50
1, 67985, Note_on_c, 0, 83, 63
1, 68009, Note_off_c, 0, 83, 62
1, 68045, Note_on_c, 0, 81, 75
1, 68078, Note_off_c, 0, 81, 63
1, 68104, Note_on_c, 0, 60, 57
1, 68109, Note_on_c, 0, 80, 68
1, 68111, Control_c, 0, 67, 50
1, 68123, Note_on_c, 0, 64, 47
1, 68142, Note_off_c, 0, 60, 63
1, 68144, Note_off_c, 0, 80, 63
1, 68151, Note_off_c, 0, 64, 55
1, 68171, Note_on_c, 0, 81, 74
1, 68210, Note_off_c, 0, 81, 59
1, 68236, Note_on_c, 0, 88, 73
1, 68292, Note_off_c, 0, 88, 64
1, 68298, Note_on_c, 0, 86, 65
1, 68329, Note_off_c, 0, 86, 63
1, 68348, Note_on_c, 0, 84, 70
1, 68394, Note_off_c, 0, 84, 63
1, 68409, Note_on_c, 0, 83, 61
1, 68436, Note_off_c, 0, 83, 69
1, 68468, Note_on_c, 0, 60, 53
1, 68469, Note_on_c, 0, 81, 73
1, 68478, Note_on_c, 0, 64, 53
1, 68506, Note_off_c, 0, 60, 62
1, 68509, Note_off_c, 0, 81, 60
1, 68513, Note_off_c, 0, 64, 62
1, 68531, Note_on_c, 0, 80, 66
1, 68553, Note_off_c, 0, 80, 68
1, 68590, Note_on_c, 0, 88, 68
1, 68649, Note_on_c, 0, 86, 67
1, 68651, Note_off_c, 0, 88, 64
1, 68699, Note_off_c, 0, 86, 60
1, 68706, Note_on_c, 0, 84, 75
1, 68767, Note_off_c, 0, 84, 63
1, 68780, Note_on_c, 0, 83, 71
1, 68810, Note_off_c, 0, 83, 68
1, 68828, Note_on_c, 0, 60, 54
1, 68842, Note_on_c, 0, 64, 53
1, 68849, Note_on_c, 0, 81, 72
1, 68865, Note_off_c, 0, 60, 64
1, 68874, Note_off_c, 0, 64, 63
1, 68884, Note_off_c, 0, 81, 61
1, 68907, Note_on_c, 0, 80, 67
1, 68930, Note_off_c, 0, 80, 68
1, 68966, Note_on_c, 0, 88, 70
1, 69020, Note_on_c, 0, 86, 66
1, 69021, Note_off_c, 0, 88, 63
1, 69060, Note_off_c, 0, 86, 62
1, 69072, Note_on_c, 0, 84, 74
1, 69127, Note_off_c, 0, 84, 64
1, 69139, Note_on_c, 0, 83, 71
1, 69167, Note_off_c, 0, 83, 69
1, 69200, Note_on_c, 0, 81, 79
1, 69203, Note_on_c, 0, 60, 66
1, 69207, Note_on_c, 0, 64, 67
1, 69235, Note_off_c, 0, 60, 64
1, 69237, Note_off_c, 0, 81, 60
1, 69240, Note_off_c, 0, 64, 65
1, 69259, Note_on_c, 0, 80, 68
1, 69282, Note_off_c, 0, 80, 69
1, 69312, Note_on_c, 0, 88, 73
1, 69371, Note_off_c, 0, 88, 64
1, 69373, Note_on_c, 0, 86, 72
1, 69424, Note_off_c, 0, 86, 64
1, 69425, Note_on_c, 0, 84, 77
1, 69493, Note_off_c, 0, 84, 65
1, 69496, Note_on_c, 0, 83, 74
1, 69547, Note_off_c, 0, 83, 65
1, 69552, Note_on_c, 0, 81, 89
1, 69577, Note_on_c, 0, 64, 81
1, 69577, Note_on_c, 0, 60, 79
1, 69588, Note_off_c, 0, 81, 64
1, 69592, Control_c, 0, 67, 51
1, 69604, Note_off_c, 0, 60, 64
1, 69610, Note_off_c, 0, 64, 62
1, 69622, Note_on_c, 0, 88, 83
1, 69637, Control_c, 0, 67, 51
1, 69686, Note_on_c, 0, 86, 72
1, 69696, Note_off_c, 0, 88, 64
1, 69736, Note_on_c, 0, 84, 79
1, 69737, Note_off_c, 0, 86, 66
1, 69791, Note_off_c, 0, 84, 66
1, 69796, Note_on_c, 0, 83, 76
1, 69848, Note_off_c, 0, 83, 65
1, 69854, Note_on_c, 0, 81, 86
1, 69874, Control_c, 0, 64, 20
1, 69889, Control_c, 0, 64, 58
1, 69904, Control_c, 0, 64, 65
1, 69919, Control_c, 0, 64, 70
1, 69922, Note_off_c, 0, 81, 52
1, 69928, Note_on_c, 0, 83, 85
1, 69930, Note_on_c, 0, 59, 84
1, 69932, Note_on_c, 0, 55, 77
1, 69934, Control_c, 0, 64, 79
1, 69934, Control_c, 0, 67, 50
1, 69935, Note_on_c, 0, 50, 73
1, 69949, Control_c, 0, 64, 90
1, 69949, Control_c, 0, 67, 50
1, 69963, Control_c, 0, 64, 98
1, 69963, Control_c, 0, 67, 49
1, 69978, Control_c, 0, 64, 104
1, 69978, Control_c, 0, 67, 48
1, 69980, Note_off_c, 0, 83, 68
1, 69989, Note_on_c, 0, 86, 79
1, 69993, Control_c, 0, 64, 114
1, 69993, Control_c, 0, 67, 47
1, 70008, Control_c, 0, 64, 127
1, 70008, Control_c, 0, 67, 47
1, 70037, Control_c, 0, 67, 46
1, 70053, Note_on_c, 0, 84, 73
1, 70066, Note_off_c, 0, 86, 61
1, 70105, Note_on_c, 0, 83, 82
1, 70122, Note_off_c, 0, 84, 64
1, 70156, Control_c, 0, 67, 47
1, 70165, Note_off_c, 0, 83, 67
1, 70167, Note_on_c, 0, 81, 85
1, 70186, Control_c, 0, 67, 47
1, 70221, Note_off_c, 0, 81, 65
1, 70229, Note_on_c, 0, 79, 70
1, 70260, Note_off_c, 0, 79, 63
1, 70283, Control_c, 0, 67, 48
1, 70295, Note_on_c, 0, 78, 79
1, 70311, Note_off_c, 0, 55, 61
1, 70357, Control_c, 0, 67, 48
1, 70363, Note_on_c, 0, 76, 77
1, 70367, Note_off_c, 0, 78, 64
1, 70382, Note_off_c, 0, 50, 59
1, 70386, Control_c, 0, 67, 49
1, 70397, Note_off_c, 0, 59, 57
1, 70410, Note_off_c, 0, 76, 64
1, 70418, Note_on_c, 0, 74, 76
1, 70445, Note_off_c, 0, 74, 67
1, 70446, Control_c, 0, 67, 49
1, 70475, Control_c, 0, 67, 50
1, 70482, Note_on_c, 0, 86, 80
1, 70547, Note_off_c, 0, 86, 64
1, 70548, Note_on_c, 0, 83, 73
1, 70576, Note_off_c, 0, 83, 69
1, 70585, Note_on_c, 0, 79, 67
1, 70609, Control_c, 0, 64, 96
1, 70615, Note_off_c, 0, 79, 66
1, 70624, Control_c, 0, 64, 70
1, 70624, Control_c, 0, 67, 49
1, 70639, Control_c, 0, 64, 0
1, 70639, Control_c, 0, 67, 49
1, 70645, Note_on_c, 0, 50, 64
1, 70651, Note_on_c, 0, 81, 98
1, 70683, Control_c, 0, 64, 60
1, 70698, Control_c, 0, 64, 79
1, 70701, Note_off_c, 0, 81, 68
1, 70704, Note_off_c, 0, 50, 62
1, 70707, Note_on_c, 0, 54, 65
1, 70713, Control_c, 0, 64, 110
1, 70716, Note_on_c, 0, 83, 68
1, 70728, Control_c, 0, 64, 127
1, 70764, Note_off_c, 0, 83, 65
1, 70770, Note_off_c, 0, 54, 62
1, 70779, Note_on_c, 0, 81, 83
1, 70780, Note_on_c, 0, 57, 68
1, 70786, Control_c, 0, 67, 48
1, 70810, Note_off_c, 0, 57, 65
1, 70822, Note_off_c, 0, 81, 53
1, 70831, Control_c, 0, 67, 49
1, 70843, Note_on_c, 0, 83, 68
1, 70844, Note_on_c, 0, 62, 61
1, 70875, Note_off_c, 0, 62, 63
1, 70888, Note_off_c, 0, 83, 68
1, 70902, Note_on_c, 0, 81, 72
1, 70919, Control_c, 0, 67, 49
1, 70934, Control_c, 0, 67, 50
1, 70944, Note_on_c, 0, 66, 77
1, 70946, Note_off_c, 0, 81, 60
1, 70969, Note_on_c, 0, 83, 73
1, 71001, Note_on_c, 0, 69, 75
1, 71002, Control_c, 0, 67, 50
1, 71017, Note_off_c, 0, 83, 68
1, 71032, Note_on_c, 0, 81, 64
1, 71044, Note_on_c, 0, 72, 96
1, 71062, Note_off_c, 0, 66, 64
1, 71071, Note_off_c, 0, 81, 53
1, 71077, Control_c, 0, 67, 51
1, 71080, Note_off_c, 0, 72, 64
1, 71081, Note_off_c, 0, 69, 64
1, 71083, Note_on_c, 0, 83, 79
1, 71091, Control_c, 0, 67, 51
1, 71134, Note_off_c, 0, 83, 67
1, 71151, Note_on_c, 0, 81, 73
1, 71165, Control_c, 0, 67, 52
1, 71184, Note_off_c, 0, 81, 64
1, 71202, Note_on_c, 0, 83, 72
1, 71255, Note_off_c, 0, 83, 68
1, 71257, Note_on_c, 0, 81, 79
1, 71294, Note_off_c, 0, 81, 62
1, 71324, Note_on_c, 0, 79, 70
1, 71352, Note_off_c, 0, 79, 65
1, 71357, Control_c, 0, 67, 52
1, 71369, Note_on_c, 0, 81, 81
1, 71372, Control_c, 0, 64, 99
1, 71387, Control_c, 0, 64, 80
1, 71402, Control_c, 0, 64, 65
1, 71408, Note_on_c, 0, 55, 56
1, 71411, Note_on_c, 0, 79, 80
1, 71414, Note_on_c, 0, 59, 53
1, 71417, Control_c, 0, 64, 0
1, 71417, Note_off_c, 0, 81, 65
1, 71432, Control_c, 0, 67, 53
1, 71435, Note_off_c, 0, 79, 68
1, 71454, Note_off_c, 0, 59, 61
1, 71462, Note_off_c, 0, 55, 56
1, 71514, Note_on_c, 0, 62, 49
1, 71566, Note_off_c, 0, 62, 57
1, 71587, Note_on_c, 0, 83, 86
1, 71602, Note_on_c, 0, 55, 48
1, 71613, Note_off_c, 0, 83, 69
1, 71615, Note_on_c, 0, 59, 43
1, 71660, Note_off_c, 0, 59, 58
1, 71675, Note_off_c, 0, 55, 59
1, 71696, Note_on_c, 0, 62, 49
1, 71765, Note_off_c, 0, 62, 55
1, 71795, Control_c, 0, 67, 53
1, 71803, Note_on_c, 0, 55, 53
1, 71808, Note_on_c, 0, 59, 35
1, 71855, Note_off_c, 0, 55, 57
1, 71855, Note_off_c, 0, 59, 57
1, 71898, Note_on_c, 0, 62, 40
1, 71944, Note_off_c, 0, 62, 58
1, 71990, Note_on_c, 0, 79, 69
1, 71995, Note_on_c, 0, 55, 44
1, 71995, Note_on_c, 0, 59, 36
1, 72022, Note_off_c, 0, 79, 64
1, 72049, Note_off_c, 0, 59, 53
1, 72057, Note_off_c, 0, 55, 57
1, 72077, Control_c, 0, 67, 53
1, 72094, Note_on_c, 0, 62, 36
1, 72144, Note_off_c, 0, 62, 59
1, 72180, Note_on_c, 0, 55, 49
1, 72182, Note_on_c, 0, 59, 39
1, 72195, Control_c, 0, 67, 52
1, 72210, Control_c, 0, 67, 52
1, 72230, Note_off_c, 0, 59, 56
1, 72243, Note_off_c, 0, 55, 55
1, 72271, Note_on_c, 0, 62, 44
1, 72326, Note_off_c, 0, 62, 57
1, 72332, Note_on_c, 0, 76, 69
1, 72355, Note_on_c, 0, 59, 52
1, 72362, Note_on_c, 0, 55, 54
1, 72365, Note_off_c, 0, 76, 65
1, 72374, Note_on_c, 0, 74, 68
1, 72400, Note_off_c, 0, 74, 68
1, 72406, Note_off_c, 0, 59, 55
1, 72414, Note_off_c, 0, 55, 56
1, 72447, Note_on_c, 0, 62, 53
1, 72520, Note_on_c, 0, 72, 70
1, 72522, Note_off_c, 0, 62, 56
1, 72549, Note_on_c, 0, 59, 54
1, 72556, Note_on_c, 0, 55, 52
1, 72556, Note_off_c, 0, 72, 67
1, 72556, Note_on_c, 0, 71, 70
1, 72583, Note_off_c, 0, 71, 67
1, 72600, Note_off_c, 0, 59, 53
1, 72612, Note_off_c, 0, 55, 55
1, 72648, Control_c, 0, 67, 51
1, 72650, Note_on_c, 0, 62, 53
1, 72707, Control_c, 0, 67, 51
1, 72713, Note_on_c, 0, 69, 71
1, 72719, Note_off_c, 0, 62, 52
1, 72737, Control_c, 0, 67, 50
1, 72737, Note_on_c, 0, 55, 51
1, 72739, Note_on_c, 0, 59, 46
1, 72748, Note_off_c, 0, 69, 66
1, 72758, Note_on_c, 0, 67, 73
1, 72781, Control_c, 0, 67, 50
1, 72789, Note_off_c, 0, 67, 65
1, 72791, Note_off_c, 0, 59, 56
1, 72805, Note_off_c, 0, 55, 55
1, 72811, Control_c, 0, 67, 49
1, 72826, Control_c, 0, 67, 48
1, 72841, Control_c, 0, 67, 48
1, 72842, Note_on_c, 0, 62, 47
1, 72855, Control_c, 0, 64, 39
1, 72855, Control_c, 0, 67, 47
1, 72870, Control_c, 0, 64, 53
1, 72870, Control_c, 0, 67, 46
1, 72885, Control_c, 0, 64, 62
1, 72885, Control_c, 0, 67, 45
1, 72899, Control_c, 0, 64, 65
1, 72899, Control_c, 0, 67, 43
1, 72913, Control_c, 0, 64, 69
1, 72913, Control_c, 0, 67, 41
1, 72925, Note_off_c, 0, 62, 55
1, 72928, Control_c, 0, 64, 75
1, 72928, Control_c, 0, 67, 37
1, 72943, Control_c, 0, 64, 80
1, 72943, Control_c, 0, 67, 32
1, 72948, Note_on_c, 0, 55, 45
1, 72958, Control_c, 0, 64, 83
1, 72958, Control_c, 0, 67, 28
1, 72971, Note_on_c, 0, 66, 78
1, 72973, Control_c, 0, 64, 86
1, 72973, Control_c, 0, 67, 26
1, 72979, Note_on_c, 0, 60, 47
1, 72988, Control_c, 0, 64, 90
1, 72988, Control_c, 0, 67, 24
1, 73003, Control_c, 0, 64, 94
1, 73003, Control_c, 0, 67, 23
1, 73017, Control_c, 0, 64, 98
1, 73017, Control_c, 0, 67, 21
1, 73032, Control_c, 0, 64, 102
1, 73032, Control_c, 0, 67, 20
1, 73044, Note_off_c, 0, 55, 55
1, 73047, Control_c, 0, 64, 106
1, 73056, Note_off_c, 0, 60, 50
1, 73062, Control_c, 0, 64, 109
1, 73077, Control_c, 0, 64, 111
1, 73080, Note_on_c, 0, 62, 45
1, 73092, Control_c, 0, 64, 112
1, 73106, Control_c, 0, 64, 114
1, 73121, Control_c, 0, 64, 114
1, 73136, Control_c, 0, 64, 115
1, 73141, Note_off_c, 0, 62, 56
1, 73151, Control_c, 0, 64, 115
1, 73166, Control_c, 0, 64, 116
1, 73180, Control_c, 0, 64, 116
1, 73180, Control_c, 0, 67, 21
1, 73183, Note_on_c, 0, 55, 51
1, 73192, Note_on_c, 0, 60, 46
1, 73195, Control_c, 0, 64, 117
1, 73217, Control_c, 0, 67, 21
1, 73250, Note_off_c, 0, 55, 55
1, 73253, Note_off_c, 0, 60, 56
1, 73262, Control_c, 0, 67, 22
1, 73280, Note_on_c, 0, 62, 52
1, 73336, Control_c, 0, 67, 22
1, 73341, Note_off_c, 0, 62, 53
1, 73369, Note_on_c, 0, 55, 50
1, 73369, Note_on_c, 0, 60, 57
1, 73381, Control_c, 0, 67, 23
1, 73441, Note_off_c, 0, 60, 55
1, 73441, Control_c, 0, 67, 23
1, 73443, Note_off_c, 0, 66, 63
1, 73447, Note_off_c, 0, 55, 53
1, 73459, Note_on_c, 0, 67, 72
1, 73469, Note_on_c, 0, 62, 55
1, 73485, Control_c, 0, 64, 115
1, 73485, Control_c, 0, 67, 24
1, 73500, Control_c, 0, 64, 111
1, 73502, Note_off_c, 0, 67, 56
1, 73515, Control_c, 0, 64, 103
1, 73515, Control_c, 0, 67, 24
1, 73527, Note_off_c, 0, 62, 58
1, 73529, Control_c, 0, 64, 94
1, 73544, Control_c, 0, 64, 85
1, 73551, Note_on_c, 0, 69, 77
1, 73556, Note_on_c, 0, 60, 58
1, 73559, Control_c, 0, 64, 75
1, 73569, Note_on_c, 0, 55, 53
1, 73574, Control_c, 0, 64, 64
1, 73588, Note_off_c, 0, 69, 62
1, 73589, Control_c, 0, 64, 0
1, 73612, Note_off_c, 0, 60, 57
1, 73616, Note_off_c, 0, 55, 58
1, 73646, Note_on_c, 0, 71, 79
1, 73659, Note_on_c, 0, 62, 47
1, 73664, Control_c, 0, 67, 25
1, 73676, Note_off_c, 0, 71, 64
1, 73705, Note_off_c, 0, 62, 60
1, 73737, Control_c, 0, 67, 25
1, 73743, Note_on_c, 0, 55, 53
1, 73744, Note_on_c, 0, 72, 90
1, 73748, Note_on_c, 0, 60, 47
1, 73784, Note_off_c, 0, 72, 62
1, 73798, Note_off_c, 0, 60, 58
1, 73805, Note_off_c, 0, 55, 57
1, 73826, Control_c, 0, 67, 26
1, 73834, Note_on_c, 0, 74, 75
1, 73844, Note_on_c, 0, 62, 55
1, 73867, Note_off_c, 0, 74, 64
1, 73891, Note_off_c, 0, 62, 59
1, 73922, Note_on_c, 0, 76, 80
1, 73930, Note_on_c, 0, 55, 51
1, 73934, Note_on_c, 0, 60, 49
1, 73958, Note_off_c, 0, 76, 65
1, 73967, Control_c, 0, 67, 26
1, 73982, Control_c, 0, 67, 27
1, 73991, Note_off_c, 0, 60, 58
1, 73995, Note_off_c, 0, 55, 57
1, 74016, Note_on_c, 0, 78, 86
1, 74034, Note_on_c, 0, 62, 54
1, 74055, Note_off_c, 0, 78, 67
1, 74070, Control_c, 0, 67, 27
1, 74085, Note_off_c, 0, 62, 57
1, 74108, Note_on_c, 0, 79, 87
1, 74127, Note_on_c, 0, 55, 50
1, 74127, Note_on_c, 0, 60, 46
1, 74129, Control_c, 0, 67, 28
1, 74153, Note_off_c, 0, 79, 63
1, 74177, Note_off_c, 0, 55, 58
1, 74184, Note_off_c, 0, 60, 58
1, 74199, Note_on_c, 0, 81, 86
1, 74205, Control_c, 0, 67, 28
1, 74216, Note_on_c, 0, 62, 53
1, 74243, Note_off_c, 0, 81, 64
1, 74264, Note_off_c, 0, 62, 58
1, 74290, Note_on_c, 0, 83, 79
1, 74299, Note_on_c, 0, 60, 55
1, 74310, Note_on_c, 0, 55, 42
1, 74332, Note_off_c, 0, 83, 67
1, 74350, Note_off_c, 0, 60, 53
1, 74357, Note_off_c, 0, 55, 59
1, 74383, Note_on_c, 0, 84, 78
1, 74398, Note_on_c, 0, 62, 48
1, 74424, Note_off_c, 0, 84, 61
1, 74450, Note_off_c, 0, 62, 57
1, 74471, Note_on_c, 0, 86, 79
1, 74484, Note_on_c, 0, 55, 47
1, 74496, Note_on_c, 0, 59, 41
1, 74496, Note_off_c, 0, 86, 67
1, 74530, Note_off_c, 0, 59, 54
1, 74545, Note_off_c, 0, 55, 55
1, 74578, Note_on_c, 0, 62, 47
1, 74633, Note_off_c, 0, 62, 55
1, 74671, Note_on_c, 0, 83, 81
1, 74678, Note_on_c, 0, 55, 45
1, 74704, Note_on_c, 0, 59, 31
1, 74706, Note_off_c, 0, 83, 67
1, 74745, Note_off_c, 0, 59, 51
1, 74750, Note_off_c, 0, 55, 56
1, 74784, Note_on_c, 0, 62, 44
1, 74833, Control_c, 0, 67, 29
1, 74842, Note_off_c, 0, 62, 55
1, 74881, Note_on_c, 0, 55, 51
1, 74940, Note_on_c, 0, 59, 2
1, 74940, Note_off_c, 0, 55, 56
1, 74976, Note_off_c, 0, 59, 40
1, 74979, Note_on_c, 0, 62, 40
1, 75050, Note_off_c, 0, 62, 58
1, 75071, Note_on_c, 0, 79, 63
1, 75074, Note_on_c, 0, 55, 50
1, 75078, Note_on_c, 0, 59, 41
1, 75086, Control_c, 0, 67, 28
1, 75098, Note_off_c, 0, 79, 66
1, 75135, Note_off_c, 0, 55, 57
1, 75140, Note_off_c, 0, 59, 50
1, 75176, Note_on_c, 0, 62, 51
1, 75223, Note_off_c, 0, 62, 59
1, 75265, Note_on_c, 0, 55, 36
1, 75265, Note_on_c, 0, 59, 46
1, 75315, Note_off_c, 0, 59, 57
1, 75354, Note_on_c, 0, 62, 44
1, 75362, Note_off_c, 0, 55, 44
1, 75413, Note_on_c, 0, 76, 64
1, 75414, Note_off_c, 0, 62, 56
1, 75438, Note_on_c, 0, 59, 47
1, 75452, Note_off_c, 0, 76, 66
1, 75459, Note_on_c, 0, 55, 53
1, 75459, Note_on_c, 0, 74, 59
1, 75487, Note_off_c, 0, 74, 67
1, 75490, Note_off_c, 0, 59, 59
1, 75506, Note_off_c, 0, 55, 58
1, 75539, Note_on_c, 0, 62, 56
1, 75552, Control_c, 0, 67, 28
1, 75590, Note_on_c, 0, 72, 77
1, 75602, Note_off_c, 0, 62, 56
1, 75619, Note_on_c, 0, 71, 79
1, 75625, Note_off_c, 0, 72, 68
1, 75626, Control_c, 0, 67, 27
1, 75626, Note_on_c, 0, 55, 51
1, 75629, Note_on_c, 0, 59, 51
1, 75642, Note_off_c, 0, 71, 69
1, 75670, Control_c, 0, 67, 28
1, 75673, Note_off_c, 0, 59, 60
1, 75685, Control_c, 0, 67, 28
1, 75687, Note_off_c, 0, 55, 56
1, 75717, Note_on_c, 0, 62, 58
1, 75776, Note_off_c, 0, 62, 54
1, 75781, Note_on_c, 0, 69, 73
1, 75803, Note_on_c, 0, 67, 80
1, 75804, Note_on_c, 0, 55, 56
1, 75805, Note_off_c, 0, 69, 67
1, 75807, Note_on_c, 0, 59, 52
1, 75834, Note_off_c, 0, 67, 65
1, 75851, Note_off_c, 0, 59, 59
1, 75864, Control_c, 0, 67, 27
1, 75879, Control_c, 0, 67, 27
1, 75891, Note_off_c, 0, 55, 59
1, 75894, Control_c, 0, 67, 25
1, 75900, Note_on_c, 0, 62, 52
1, 75909, Control_c, 0, 67, 24
1, 75923, Control_c, 0, 67, 23
1, 75938, Control_c, 0, 67, 20
1, 75953, Control_c, 0, 67, 17
1, 75968, Control_c, 0, 64, 44
1, 75968, Control_c, 0, 67, 8
1, 75983, Control_c, 0, 64, 63
1, 75983, Control_c, 0, 67, 0
1, 75997, Control_c, 0, 64, 67
1, 76005, Note_off_c, 0, 62, 59
1, 76012, Control_c, 0, 64, 72
1, 76023, Note_on_c, 0, 55, 50
1, 76027, Control_c, 0, 64, 79
1, 76034, Note_on_c, 0, 66, 85
1, 76042, Control_c, 0, 64, 86
1, 76055, Note_on_c, 0, 60, 48
1, 76056, Control_c, 0, 64, 90
1, 76071, Control_c, 0, 64, 93
1, 76086, Control_c, 0, 64, 96
1, 76101, Control_c, 0, 64, 100
1, 76116, Control_c, 0, 64, 105
1, 76119, Note_off_c, 0, 55, 56
1, 76130, Control_c, 0, 64, 110
1, 76136, Note_off_c, 0, 60, 58
1, 76145, Control_c, 0, 64, 117
1, 76151, Note_on_c, 0, 62, 58
1, 76160, Control_c, 0, 64, 127
1, 76221, Note_off_c, 0, 66, 62
1, 76234, Note_off_c, 0, 62, 60
1, 76252, Note_on_c, 0, 55, 56
1, 76264, Note_on_c, 0, 60, 55
1, 76329, Note_off_c, 0, 60, 42
1, 76338, Note_off_c, 0, 55, 55
1, 76362, Note_on_c, 0, 62, 58
1, 76425, Note_off_c, 0, 62, 58
1, 76452, Note_on_c, 0, 60, 55
1, 76459, Note_on_c, 0, 55, 57
1, 76517, Note_off_c, 0, 60, 54
1, 76525, Note_off_c, 0, 55, 57
1, 76541, Note_on_c, 0, 83, 80
1, 76542, Note_on_c, 0, 62, 62
1, 76613, Control_c, 0, 64, 121
1, 76618, Note_off_c, 0, 62, 59
1, 76627, Control_c, 0, 64, 105
1, 76633, Note_on_c, 0, 81, 86
1, 76636, Note_on_c, 0, 60, 58
1, 76637, Note_on_c, 0, 55, 62
1, 76643, Control_c, 0, 64, 95
1, 76658, Note_off_c, 0, 83, 62
1, 76658, Control_c, 0, 64, 86
1, 76672, Control_c, 0, 64, 76
1, 76687, Control_c, 0, 64, 65
1, 76702, Control_c, 0, 64, 0
1, 76709, Note_off_c, 0, 60, 43
1, 76719, Note_on_c, 0, 79, 85
1, 76720, Note_off_c, 0, 55, 56
1, 76729, Note_off_c, 0, 81, 60
1, 76744, Note_on_c, 0, 62, 59
1, 76788, Note_off_c, 0, 62, 55
1, 76815, Note_on_c, 0, 78, 85
1, 76821, Note_on_c, 0, 60, 62
1, 76827, Note_off_c, 0, 79, 61
1, 76832, Note_on_c, 0, 55, 59
1, 76887, Note_off_c, 0, 60, 42
1, 76888, Note_off_c, 0, 55, 52
1, 76892, Note_off_c, 0, 78, 61
1, 76907, Note_on_c, 0, 76, 80
1, 76912, Note_on_c, 0, 62, 60
1, 76961, Note_off_c, 0, 76, 65
1, 76986, Note_off_c, 0, 62, 61
1, 77007, Note_on_c, 0, 74, 78
1, 77011, Note_on_c, 0, 60, 67
1, 77013, Note_on_c, 0, 55, 61
1, 77062, Note_off_c, 0, 60, 50
1, 77071, Note_off_c, 0, 55, 52
1, 77096, Note_on_c, 0, 72, 91
1, 77105, Note_off_c, 0, 74, 58
1, 77107, Note_on_c, 0, 62, 61
1, 77149, Note_off_c, 0, 62, 59
1, 77187, Note_on_c, 0, 60, 53
1, 77190, Note_on_c, 0, 55, 57
1, 77191, Note_on_c, 0, 71, 81
1, 77208, Note_off_c, 0, 72, 61
1, 77237, Note_off_c, 0, 55, 57
1, 77238, Note_off_c, 0, 60, 56
1, 77256, Note_off_c, 0, 71, 61
1, 77275, Note_on_c, 0, 62, 55
1, 77279, Note_on_c, 0, 69, 74
1, 77328, Note_off_c, 0, 69, 55
1, 77331, Note_off_c, 0, 62, 55
1, 77372, Note_on_c, 0, 60, 51
1, 77377, Note_on_c, 0, 67, 71
1, 77381, Note_on_c, 0, 55, 47
1, 77430, Note_off_c, 0, 55, 58
1, 77430, Note_off_c, 0, 60, 49
1, 77450, Note_off_c, 0, 67, 60
1, 77461, Note_on_c, 0, 66, 75
1, 77483, Note_on_c, 0, 62, 44
1, 77519, Note_off_c, 0, 66, 56
1, 77544, Note_off_c, 0, 62, 58
1, 77560, Note_on_c, 0, 67, 65
1, 77589, Note_on_c, 0, 55, 42
1, 77592, Note_off_c, 0, 67, 64
1, 77596, Note_on_c, 0, 59, 40
1, 77787, Note_on_c, 0, 69, 55
1, 77792, Note_on_c, 0, 66, 58
1, 77835, Note_off_c, 0, 55, 59
1, 77846, Note_off_c, 0, 69, 56
1, 77849, Note_off_c, 0, 59, 59
1, 77857, Note_off_c, 0, 66, 54
1, 77882, Note_on_c, 0, 62, 53
1, 77932, Note_off_c, 0, 62, 56
1, 77972, Note_on_c, 0, 67, 62
1, 77977, Note_on_c, 0, 71, 57
1, 78040, Note_off_c, 0, 67, 58
1, 78041, Note_off_c, 0, 71, 53
1, 78067, Note_on_c, 0, 62, 55
1, 78114, Note_off_c, 0, 62, 57
1, 78158, Note_on_c, 0, 72, 72
1, 78163, Note_on_c, 0, 69, 58
1, 78212, Note_off_c, 0, 69, 56
1, 78213, Note_off_c, 0, 72, 55
1, 78252, Note_on_c, 0, 62, 58
1, 78312, Note_off_c, 0, 62, 58
1, 78352, Note_on_c, 0, 74, 75
1, 78356, Note_on_c, 0, 71, 60
1, 78385, Note_off_c, 0, 71, 65
1, 78386, Note_off_c, 0, 74, 65
1, 78553, Note_on_c, 0, 48, 69
1, 78556, Note_on_c, 0, 69, 86
1, 78560, Note_on_c, 0, 64, 81
1, 78621, Note_off_c, 0, 48, 62
1, 78636, Note_off_c, 0, 69, 58
1, 78637, Note_off_c, 0, 64, 54
1, 78639, Note_on_c, 0, 45, 73
1, 78646, Note_on_c, 0, 60, 84
1, 78697, Note_off_c, 0, 60, 64
1, 78702, Note_off_c, 0, 45, 63
1, 78742, Note_on_c, 0, 67, 86
1, 78746, Note_on_c, 0, 50, 74
1, 78748, Note_on_c, 0, 62, 82
1, 78786, Note_off_c, 0, 50, 63
1, 78813, Note_off_c, 0, 62, 60
1, 78834, Note_on_c, 0, 59, 79
1, 78842, Note_off_c, 0, 67, 62
1, 78884, Note_off_c, 0, 59, 65
1, 78929, Note_on_c, 0, 60, 79
1, 78930, Note_on_c, 0, 66, 83
1, 78932, Note_on_c, 0, 50, 71
1, 78934, Note_on_c, 0, 38, 71
1, 78961, Note_off_c, 0, 50, 66
1, 78973, Note_off_c, 0, 38, 63
1, 79012, Note_off_c, 0, 60, 41
1, 79030, Note_on_c, 0, 57, 63
1, 79034, Note_off_c, 0, 66, 63
1, 79052, Control_c, 0, 64, 42
1, 79060, Note_off_c, 0, 57, 65
1, 79066, Control_c, 0, 64, 64
1, 79081, Control_c, 0, 64, 69
1, 79096, Control_c, 0, 64, 79
1, 79111, Control_c, 0, 64, 90
1, 79126, Control_c, 0, 64, 97
1, 79140, Note_on_c, 0, 31, 65
1, 79140, Control_c, 0, 64, 101
1, 79141, Note_on_c, 0, 43, 66
1, 79143, Note_on_c, 0, 59, 75
1, 79146, Note_on_c, 0, 67, 78
1, 79155, Control_c, 0, 64, 108
1, 79167, Note_off_c, 0, 59, 70
1, 79170, Control_c, 0, 64, 126
1, 79192, Control_c, 0, 64, 127
1, 79197, Note_off_c, 0, 31, 57
1, 79197, Note_off_c, 0, 43, 54
1, 79200, Note_off_c, 0, 67, 60
1, 79355, Note_on_c, 0, 66, 72
1, 79361, Note_on_c, 0, 69, 59
1, 79370, Control_c, 0, 64, 110
1, 79385, Control_c, 0, 64, 97
1, 79400, Control_c, 0, 64, 86
1, 79402, Note_off_c, 0, 69, 60
1, 79414, Control_c, 0, 64, 75
1, 79429, Control_c, 0, 64, 64
1, 79435, Note_off_c, 0, 66, 50
1, 79444, Control_c, 0, 64, 0
1, 79470, Note_on_c, 0, 62, 53
1, 79513, Note_off_c, 0, 62, 58
1, 79563, Note_on_c, 0, 67, 58
1, 79564, Note_on_c, 0, 71, 57
1, 79606, Note_off_c, 0, 71, 59
1, 79614, Note_off_c, 0, 67, 52
1, 79659, Note_on_c, 0, 62, 60
1, 79700, Note_off_c, 0, 62, 59
1, 79747, Note_on_c, 0, 72, 71
1, 79754, Note_on_c, 0, 69, 57
1, 79795, Note_off_c, 0, 69, 62
1, 79798, Note_off_c, 0, 72, 57
1, 79842, Note_on_c, 0, 62, 60
1, 79881, Note_off_c, 0, 62, 60
1, 79934, Note_on_c, 0, 74, 74
1, 79948, Note_on_c, 0, 71, 58
1, 79976, Note_off_c, 0, 71, 65
1, 79977, Note_off_c, 0, 74, 64
1, 80143, Note_on_c, 0, 48, 75
1, 80148, Note_on_c, 0, 69, 83
1, 80151, Note_on_c, 0, 64, 83
1, 80215, Note_off_c, 0, 48, 62
1, 80229, Note_on_c, 0, 45, 75
1, 80243, Note_on_c, 0, 60, 81
1, 80245, Note_off_c, 0, 64, 64
1, 80252, Note_off_c, 0, 69, 61
1, 80294, Note_off_c, 0, 45, 63
1, 80294, Note_off_c, 0, 60, 63
1, 80328, Note_on_c, 0, 50, 77
1, 80336, Note_on_c, 0, 67, 87
1, 80339, Note_on_c, 0, 62, 82
1, 80372, Note_off_c, 0, 50, 62
1, 80416, Note_off_c, 0, 62, 59
1, 80426, Note_on_c, 0, 59, 83
1, 80433, Note_off_c, 0, 67, 62
1, 80476, Note_off_c, 0, 59, 65
1, 80523, Note_on_c, 0, 66, 88
1, 80523, Note_on_c, 0, 60, 84
1, 80525, Note_on_c, 0, 50, 72
1, 80529, Note_on_c, 0, 38, 70
1, 80550, Note_off_c, 0, 50, 66
1, 80566, Note_off_c, 0, 38, 65
1, 80595, Note_off_c, 0, 60, 54
1, 80627, Note_on_c, 0, 57, 73
1, 80653, Note_off_c, 0, 66, 63
1, 80658, Note_off_c, 0, 57, 64
1, 80706, Control_c, 0, 64, 50
1, 80720, Control_c, 0, 64, 66
1, 80735, Control_c, 0, 64, 78
1, 80747, Note_on_c, 0, 67, 91
1, 80750, Note_on_c, 0, 59, 80
1, 80750, Control_c, 0, 64, 92
1, 80752, Note_on_c, 0, 31, 77
1, 80753, Note_on_c, 0, 43, 74
1, 80765, Control_c, 0, 64, 105
1, 80771, Note_off_c, 0, 59, 69
1, 80780, Control_c, 0, 64, 113
1, 80783, Note_off_c, 0, 31, 64
1, 80784, Note_off_c, 0, 43, 62
1, 80789, Note_off_c, 0, 67, 62
1, 80795, Control_c, 0, 64, 126
1, 80810, Control_c, 0, 64, 127
1, 80884, Control_c, 0, 64, 116
1, 80899, Control_c, 0, 64, 105
1, 80914, Control_c, 0, 64, 95
1, 80928, Control_c, 0, 64, 86
1, 80943, Control_c, 0, 64, 77
1, 80958, Control_c, 0, 64, 68
1, 80972, Control_c, 0, 64, 27
1, 80987, Control_c, 0, 64, 0
1, 81135, Control_c, 0, 64, 24
1, 81150, Control_c, 0, 64, 63
1, 81165, Control_c, 0, 64, 72
1, 81167, Note_on_c, 0, 78, 96
1, 81172, Note_on_c, 0, 69, 83
1, 81174, Note_on_c, 0, 72, 86
1, 81179, Note_on_c, 0, 50, 78
1, 81180, Control_c, 0, 64, 84
1, 81182, Note_on_c, 0, 38, 70
1, 81195, Control_c, 0, 64, 95
1, 81199, Note_off_c, 0, 69, 67
1, 81209, Note_off_c, 0, 72, 63
1, 81210, Control_c, 0, 64, 98
1, 81218, Note_off_c, 0, 50, 62
1, 81225, Note_off_c, 0, 78, 63
1, 81225, Control_c, 0, 64, 98
1, 81240, Note_off_c, 0, 38, 59
1, 81284, Control_c, 0, 64, 95
1, 81299, Control_c, 0, 64, 91
1, 81313, Control_c, 0, 64, 87
1, 81328, Control_c, 0, 64, 82
1, 81343, Control_c, 0, 64, 75
1, 81358, Control_c, 0, 64, 67
1, 81374, Control_c, 0, 64, 34
1, 81388, Control_c, 0, 64, 0
1, 81603, Control_c, 0, 64, 51
1, 81618, Control_c, 0, 64, 67
1, 81629, Note_on_c, 0, 79, 92
1, 81632, Note_on_c, 0, 74, 84
1, 81633, Control_c, 0, 64, 78
1, 81637, Note_on_c, 0, 71, 83
1, 81646, Note_on_c, 0, 31, 74
1, 81646, Note_on_c, 0, 43, 77
1, 81648, Control_c, 0, 64, 89
1, 81659, Note_off_c, 0, 71, 71
1, 81662, Note_off_c, 0, 74, 66
1, 81663, Control_c, 0, 64, 95
1, 81672, Note_off_c, 0, 79, 65
1, 81677, Control_c, 0, 64, 98
1, 81683, Note_off_c, 0, 43, 63
1, 81686, Note_off_c, 0, 31, 63
1, 81692, Control_c, 0, 64, 100
1, 81707, Control_c, 0, 64, 103
1, 81722, Control_c, 0, 64, 104
1, 81737, Control_c, 0, 64, 105
1, 81766, Control_c, 0, 64, 106
1, 81781, Control_c, 0, 64, 107
1, 81811, Control_c, 0, 64, 107
1, 81974, Control_c, 0, 64, 107
1, 81988, Control_c, 0, 64, 106
1, 82003, Control_c, 0, 64, 106
1, 82018, Control_c, 0, 64, 104
1, 82033, Control_c, 0, 64, 102
1, 82048, Control_c, 0, 64, 98
1, 82062, Control_c, 0, 64, 93
1, 82077, Control_c, 0, 64, 89
1, 82092, Control_c, 0, 64, 84
1, 82107, Control_c, 0, 64, 77
1, 82121, Control_c, 0, 64, 69
1, 82136, Control_c, 0, 64, 61
1, 82151, Control_c, 0, 64, 44
1, 82167, Control_c, 0, 64, 26
1, 82182, Control_c, 0, 64, 0
1, 82182, Control_c, 0, 67, 8
1, 82205, Control_c, 0, 67, 11
1, 82219, Control_c, 0, 67, 13
1, 82234, Control_c, 0, 67, 15
1, 82249, Control_c, 0, 67, 17
1, 82264, Control_c, 0, 67, 20
1, 82279, Control_c, 0, 67, 23
1, 82293, Control_c, 0, 67, 28
1, 82308, Control_c, 0, 67, 32
1, 82323, Control_c, 0, 67, 35
1, 82338, Control_c, 0, 67, 38
1, 82352, Control_c, 0, 67, 42
1, 82367, Control_c, 0, 67, 46
1, 82382, Control_c, 0, 67, 49
1, 82397, Control_c, 0, 67, 51
1, 82412, Control_c, 0, 67, 52
1, 82426, Control_c, 0, 67, 53
1, 82486, Note_on_c, 0, 67, 76
1, 82486, Control_c, 0, 67, 52
1, 82500, Control_c, 0, 67, 52
1, 82511, Note_off_c, 0, 67, 68
1, 82530, Control_c, 0, 67, 51
1, 82559, Control_c, 0, 67, 51
1, 82574, Control_c, 0, 67, 50
1, 82586, Note_on_c, 0, 74, 62
1, 82664, Control_c, 0, 67, 50
1, 82666, Note_off_c, 0, 74, 61
1, 82671, Note_on_c, 0, 76, 75
1, 82737, Control_c, 0, 67, 49
1, 82759, Note_off_c, 0, 76, 41
1, 82761, Note_on_c, 0, 78, 81
1, 82767, Control_c, 0, 67, 49
1, 82824, Note_off_c, 0, 78, 63
1, 82848, Note_on_c, 0, 62, 72
1, 82855, Note_on_c, 0, 79, 81
1, 82870, Control_c, 0, 67, 49
1, 82875, Note_off_c, 0, 62, 67
1, 82900, Control_c, 0, 67, 50
1, 82951, Note_on_c, 0, 81, 89
1, 82956, Note_off_c, 0, 79, 60
1, 83040, Note_on_c, 0, 82, 79
1, 83087, Note_off_c, 0, 81, 51
1, 83113, Note_off_c, 0, 82, 65
1, 83136, Note_on_c, 0, 84, 78
1, 83175, Control_c, 0, 64, 12
1, 83190, Control_c, 0, 64, 15
1, 83224, Note_on_c, 0, 58, 50
1, 83228, Note_on_c, 0, 86, 77
1, 83229, Note_off_c, 0, 84, 62
1, 83249, Control_c, 0, 64, 18
1, 83264, Control_c, 0, 64, 20
1, 83279, Control_c, 0, 64, 22
1, 83309, Control_c, 0, 64, 24
1, 83328, Note_on_c, 0, 84, 79
1, 83338, Control_c, 0, 64, 26
1, 83353, Control_c, 0, 64, 27
1, 83355, Note_off_c, 0, 86, 59
1, 83397, Control_c, 0, 67, 50
1, 83412, Note_on_c, 0, 82, 78
1, 83415, Note_off_c, 0, 84, 64
1, 83442, Control_c, 0, 64, 28
1, 83457, Control_c, 0, 64, 30
1, 83471, Control_c, 0, 64, 31
1, 83503, Note_on_c, 0, 81, 92
1, 83515, Note_off_c, 0, 82, 63
1, 83516, Control_c, 0, 64, 32
1, 83560, Control_c, 0, 64, 33
1, 83563, Note_off_c, 0, 81, 59
1, 83570, Note_off_c, 0, 58, 60
1, 83601, Note_on_c, 0, 79, 78
1, 83692, Note_on_c, 0, 81, 87
1, 83695, Note_off_c, 0, 79, 62
1, 83776, Control_c, 0, 64, 32
1, 83793, Note_on_c, 0, 63, 64
1, 83793, Note_on_c, 0, 82, 75
1, 83808, Note_off_c, 0, 81, 61
1, 83860, Note_off_c, 0, 82, 61
1, 83880, Note_on_c, 0, 79, 75
1, 83895, Control_c, 0, 64, 31
1, 83946, Note_off_c, 0, 79, 58
1, 83973, Note_on_c, 0, 57, 56
1, 83974, Note_on_c, 0, 84, 78
1, 83979, Note_off_c, 0, 63, 53
1, 83984, Control_c, 0, 67, 50
1, 84064, Note_on_c, 0, 82, 74
1, 84069, Note_off_c, 0, 84, 60
1, 84116, Control_c, 0, 67, 49
1, 84146, Control_c, 0, 67, 49
1, 84163, Note_on_c, 0, 81, 85
1, 84174, Note_off_c, 0, 82, 62
1, 84232, Note_off_c, 0, 81, 64
1, 84250, Control_c, 0, 67, 48
1, 84254, Note_on_c, 0, 79, 71
1, 84269, Note_off_c, 0, 57, 62
1, 84279, Control_c, 0, 67, 48
1, 84309, Control_c, 0, 67, 47
1, 84345, Note_off_c, 0, 79, 61
1, 84351, Note_on_c, 0, 78, 70
1, 84383, Control_c, 0, 67, 47
1, 84442, Note_off_c, 0, 78, 61
1, 84443, Note_on_c, 0, 79, 70
1, 84534, Note_off_c, 0, 79, 62
1, 84535, Note_on_c, 0, 81, 80
1, 84548, Note_on_c, 0, 62, 42
1, 84554, Control_c, 0, 67, 46
1, 84606, Note_off_c, 0, 81, 60
1, 84634, Note_on_c, 0, 78, 63
1, 84673, Control_c, 0, 64, 32
1, 84691, Note_off_c, 0, 62, 54
1, 84703, Control_c, 0, 64, 33
1, 84714, Note_off_c, 0, 78, 58
1, 84715, Note_on_c, 0, 55, 48
1, 84717, Control_c, 0, 64, 34
1, 84732, Control_c, 0, 64, 35
1, 84738, Note_on_c, 0, 82, 66
1, 84747, Control_c, 0, 64, 37
1, 84762, Control_c, 0, 64, 39
1, 84792, Control_c, 0, 64, 40
1, 84806, Control_c, 0, 64, 41
1, 84821, Control_c, 0, 64, 42
1, 84830, Note_on_c, 0, 84, 74
1, 84836, Note_off_c, 0, 82, 64
1, 84836, Control_c, 0, 64, 43
1, 84851, Control_c, 0, 64, 44
1, 84866, Control_c, 0, 64, 45
1, 84881, Control_c, 0, 64, 47
1, 84895, Control_c, 0, 64, 49
1, 84910, Control_c, 0, 64, 51
1, 84923, Note_on_c, 0, 82, 76
1, 84965, Note_off_c, 0, 84, 60
1, 84984, Control_c, 0, 64, 52
1, 84999, Control_c, 0, 64, 53
1, 85007, Note_on_c, 0, 81, 86
1, 85013, Control_c, 0, 64, 54
1, 85013, Control_c, 0, 67, 47
1, 85026, Note_off_c, 0, 82, 60
1, 85028, Control_c, 0, 64, 55
1, 85028, Control_c, 0, 67, 47
1, 85043, Control_c, 0, 64, 56
1, 85057, Control_c, 0, 64, 56
1, 85057, Control_c, 0, 67, 48
1, 85072, Control_c, 0, 64, 57
1, 85078, Note_off_c, 0, 55, 63
1, 85087, Control_c, 0, 64, 57
1, 85087, Control_c, 0, 67, 48
1, 85090, Note_on_c, 0, 58, 62
1, 85100, Note_on_c, 0, 79, 80
1, 85117, Control_c, 0, 64, 58
1, 85131, Note_off_c, 0, 81, 62
1, 85167, Note_off_c, 0, 79, 62
1, 85174, Note_on_c, 0, 77, 79
1, 85177, Control_c, 0, 67, 48
1, 85201, Note_off_c, 0, 58, 60
1, 85213, Control_c, 0, 67, 47
1, 85230, Note_off_c, 0, 77, 62
1, 85258, Control_c, 0, 67, 46
1, 85272, Control_c, 0, 64, 57
1, 85274, Note_on_c, 0, 76, 81
1, 85287, Control_c, 0, 67, 46
1, 85302, Control_c, 0, 67, 45
1, 85317, Control_c, 0, 64, 57
1, 85332, Control_c, 0, 67, 45
1, 85338, Note_off_c, 0, 76, 56
1, 85362, Control_c, 0, 67, 44
1, 85364, Note_on_c, 0, 74, 69
1, 85391, Note_off_c, 0, 74, 67
1, 85392, Control_c, 0, 64, 56
1, 85407, Control_c, 0, 64, 56
1, 85436, Control_c, 0, 64, 55
1, 85440, Note_on_c, 0, 81, 90
1, 85448, Note_on_c, 0, 73, 78
1, 85464, Note_off_c, 0, 81, 69
1, 85466, Control_c, 0, 64, 55
1, 85469, Note_off_c, 0, 73, 71
1, 85481, Control_c, 0, 64, 54
1, 85496, Control_c, 0, 64, 53
1, 85510, Control_c, 0, 64, 52
1, 85516, Note_on_c, 0, 45, 55
1, 85525, Control_c, 0, 64, 51
1, 85540, Control_c, 0, 64, 51
1, 85570, Control_c, 0, 67, 44
1, 85609, Note_off_c, 0, 45, 61
1, 85624, Note_on_c, 0, 47, 59
1, 85659, Control_c, 0, 64, 50
1, 85674, Control_c, 0, 64, 49
1, 85674, Control_c, 0, 67, 43
1, 85688, Control_c, 0, 64, 49
1, 85703, Control_c, 0, 64, 48
1, 85703, Control_c, 0, 67, 43
1, 85709, Note_on_c, 0, 49, 60
1, 85712, Note_off_c, 0, 47, 58
1, 85718, Control_c, 0, 64, 47
1, 85718, Control_c, 0, 67, 42
1, 85748, Control_c, 0, 67, 42
1, 85791, Note_on_c, 0, 76, 84
1, 85792, Note_on_c, 0, 73, 77
1, 85800, Note_off_c, 0, 49, 62
1, 85807, Control_c, 0, 67, 41
1, 85809, Note_on_c, 0, 50, 65
1, 85817, Note_off_c, 0, 73, 68
1, 85823, Note_off_c, 0, 76, 65
1, 85868, Note_off_c, 0, 50, 63
1, 85904, Note_on_c, 0, 52, 67
1, 85910, Control_c, 0, 64, 48
1, 85925, Control_c, 0, 64, 48
1, 85925, Control_c, 0, 67, 42
1, 86001, Note_off_c, 0, 52, 61
1, 86004, Note_on_c, 0, 54, 70
1, 86089, Note_off_c, 0, 54, 62
1, 86095, Note_on_c, 0, 56, 66
1, 86172, Note_off_c, 0, 56, 63
1, 86184, Note_on_c, 0, 73, 81
1, 86192, Note_on_c, 0, 64, 67
1, 86211, Note_on_c, 0, 57, 63
1, 86277, Note_off_c, 0, 57, 62
1, 86295, Note_on_c, 0, 56, 67
1, 86367, Note_off_c, 0, 56, 64
1, 86384, Note_on_c, 0, 57, 74
1, 86458, Note_off_c, 0, 57, 62
1, 86470, Note_on_c, 0, 58, 68
1, 86497, Control_c, 0, 64, 48
1, 86512, Control_c, 0, 64, 47
1, 86539, Note_off_c, 0, 58, 63
1, 86542, Control_c, 0, 64, 47
1, 86574, Note_on_c, 0, 57, 69
1, 86616, Control_c, 0, 64, 46
1, 86646, Note_off_c, 0, 57, 54
1, 86682, Note_on_c, 0, 55, 65
1, 86697, Control_c, 0, 64, 46
1, 86707, Note_off_c, 0, 64, 48
1, 86712, Note_off_c, 0, 73, 56
1, 86712, Control_c, 0, 67, 42
1, 86742, Control_c, 0, 67, 43
1, 86756, Control_c, 0, 64, 46
1, 86756, Control_c, 0, 67, 44
1, 86759, Note_on_c, 0, 69, 70
1, 86761, Note_off_c, 0, 55, 61
1, 86775, Note_on_c, 0, 53, 69
1, 86786, Control_c, 0, 67, 45
1, 86792, Note_off_c, 0, 69, 67
1, 86801, Control_c, 0, 64, 47
1, 86816, Control_c, 0, 64, 48
1, 86816, Control_c, 0, 67, 45
1, 86831, Control_c, 0, 64, 48
1, 86831, Control_c, 0, 67, 46
1, 86845, Control_c, 0, 64, 49
1, 86846, Note_off_c, 0, 53, 60
1, 86860, Control_c, 0, 67, 46
1, 86870, Note_on_c, 0, 52, 60
1, 86875, Control_c, 0, 64, 49
1, 86919, Control_c, 0, 64, 50
1, 86934, Control_c, 0, 64, 51
1, 86949, Control_c, 0, 64, 51
1, 86949, Control_c, 0, 67, 47
1, 86960, Note_on_c, 0, 81, 79
1, 86960, Note_off_c, 0, 52, 56
1, 86965, Control_c, 0, 64, 52
1, 86968, Note_on_c, 0, 53, 65
1, 87043, Note_off_c, 0, 81, 65
1, 87046, Note_on_c, 0, 80, 76
1, 87113, Control_c, 0, 67, 47
1, 87132, Note_off_c, 0, 80, 62
1, 87135, Note_on_c, 0, 81, 87
1, 87141, Control_c, 0, 67, 48
1, 87206, Note_off_c, 0, 53, 62
1, 87225, Note_on_c, 0, 82, 78
1, 87227, Note_off_c, 0, 81, 64
1, 87290, Control_c, 0, 64, 53
1, 87305, Control_c, 0, 64, 53
1, 87316, Note_on_c, 0, 81, 91
1, 87337, Note_off_c, 0, 82, 61
1, 87349, Control_c, 0, 64, 54
1, 87407, Note_on_c, 0, 79, 79
1, 87412, Note_off_c, 0, 81, 61
1, 87490, Note_off_c, 0, 79, 62
1, 87507, Note_on_c, 0, 77, 76
1, 87508, Note_on_c, 0, 57, 62
1, 87552, Note_off_c, 0, 57, 61
1, 87579, Control_c, 0, 64, 53
1, 87579, Control_c, 0, 67, 47
1, 87598, Note_off_c, 0, 77, 57
1, 87599, Note_on_c, 0, 76, 78
1, 87623, Control_c, 0, 67, 47
1, 87638, Control_c, 0, 67, 46
1, 87697, Note_off_c, 0, 76, 63
1, 87697, Control_c, 0, 67, 46
1, 87699, Note_on_c, 0, 77, 82
1, 87712, Control_c, 0, 67, 45
1, 87717, Note_on_c, 0, 69, 60
1, 87727, Control_c, 0, 67, 45
1, 87772, Control_c, 0, 67, 44
1, 87782, Note_off_c, 0, 69, 61
1, 87786, Note_on_c, 0, 76, 80
1, 87787, Control_c, 0, 67, 44
1, 87788, Note_off_c, 0, 77, 63
1, 87792, Note_on_c, 0, 68, 72
1, 87802, Control_c, 0, 67, 43
1, 87817, Control_c, 0, 64, 54
1, 87846, Control_c, 0, 64, 54
1, 87859, Note_off_c, 0, 68, 62
1, 87883, Note_on_c, 0, 77, 87
1, 87889, Note_on_c, 0, 69, 72
1, 87898, Note_off_c, 0, 76, 64
1, 87905, Control_c, 0, 64, 55
1, 87959, Note_off_c, 0, 69, 62
1, 87974, Note_on_c, 0, 70, 73
1, 87974, Note_on_c, 0, 79, 84
1, 87979, Note_off_c, 0, 77, 63
1, 87979, Control_c, 0, 64, 55
1, 88047, Note_off_c, 0, 70, 63
1, 88068, Note_on_c, 0, 77, 88
1, 88075, Note_on_c, 0, 69, 68
1, 88089, Note_off_c, 0, 79, 61
1, 88139, Note_off_c, 0, 69, 55
1, 88143, Control_c, 0, 67, 43
1, 88159, Note_on_c, 0, 76, 83
1, 88166, Note_off_c, 0, 77, 60
1, 88173, Note_on_c, 0, 67, 63
1, 88194, Control_c, 0, 67, 42
1, 88235, Note_off_c, 0, 76, 63
1, 88250, Note_off_c, 0, 67, 63
1, 88255, Note_on_c, 0, 74, 73
1, 88266, Note_on_c, 0, 65, 71
1, 88305, Note_off_c, 0, 74, 61
1, 88342, Note_off_c, 0, 65, 64
1, 88349, Note_on_c, 0, 73, 72
1, 88351, Note_on_c, 0, 64, 67
1, 88372, Control_c, 0, 67, 42
1, 88381, Note_off_c, 0, 73, 65
1, 88436, Note_off_c, 0, 64, 62
1, 88444, Note_on_c, 0, 69, 74
1, 88446, Note_on_c, 0, 74, 78
1, 88453, Note_on_c, 0, 65, 59
1, 88520, Control_c, 0, 64, 55
1, 88532, Note_off_c, 0, 69, 62
1, 88540, Note_on_c, 0, 68, 70
1, 88580, Control_c, 0, 67, 41
1, 88610, Control_c, 0, 67, 41
1, 88617, Note_off_c, 0, 68, 62
1, 88635, Note_on_c, 0, 69, 72
1, 88669, Control_c, 0, 67, 40
1, 88684, Control_c, 0, 64, 54
1, 88724, Note_on_c, 0, 70, 77
1, 88727, Note_off_c, 0, 69, 62
1, 88728, Control_c, 0, 67, 39
1, 88743, Control_c, 0, 67, 38
1, 88758, Control_c, 0, 67, 35
1, 88769, Note_off_c, 0, 65, 64
1, 88773, Control_c, 0, 64, 54
1, 88773, Control_c, 0, 67, 31
1, 88787, Control_c, 0, 67, 26
1, 88802, Control_c, 0, 67, 19
1, 88817, Control_c, 0, 67, 11
1, 88827, Note_on_c, 0, 69, 72
1, 88831, Control_c, 0, 67, 0
1, 88837, Note_off_c, 0, 70, 59
1, 88861, Control_c, 0, 64, 53
1, 88891, Note_off_c, 0, 69, 63
1, 88914, Note_on_c, 0, 67, 66
1, 88943, Control_c, 0, 64, 53
1, 88987, Control_c, 0, 64, 52
1, 88988, Note_off_c, 0, 67, 58
1, 89021, Note_on_c, 0, 65, 75
1, 89026, Note_on_c, 0, 61, 65
1, 89061, Control_c, 0, 64, 52
1, 89091, Control_c, 0, 64, 51
1, 89112, Note_off_c, 0, 74, 40
1, 89115, Note_off_c, 0, 65, 65
1, 89116, Note_on_c, 0, 64, 75
1, 89165, Control_c, 0, 64, 51
1, 89180, Note_off_c, 0, 61, 58
1, 89180, Control_c, 0, 64, 50
1, 89195, Control_c, 0, 64, 50
1, 89210, Control_c, 0, 64, 49
1, 89212, Note_on_c, 0, 62, 63
1, 89218, Note_on_c, 0, 65, 83
1, 89230, Note_off_c, 0, 64, 57
1, 89269, Control_c, 0, 64, 49
1, 89276, Note_off_c, 0, 62, 59
1, 89294, Note_on_c, 0, 61, 69
1, 89386, Note_off_c, 0, 61, 58
1, 89403, Note_on_c, 0, 62, 66
1, 89466, Note_off_c, 0, 62, 60
1, 89513, Note_on_c, 0, 57, 58
1, 89560, Note_off_c, 0, 57, 60
1, 89600, Note_on_c, 0, 66, 80
1, 89605, Note_on_c, 0, 60, 65
1, 89624, Note_off_c, 0, 65, 62
1, 89669, Note_off_c, 0, 60, 60
1, 89669, Control_c, 0, 64, 49
1, 89707, Control_c, 0, 64, 50
1, 89711, Note_on_c, 0, 59, 62
1, 89736, Control_c, 0, 64, 50
1, 89751, Control_c, 0, 64, 51
1, 89766, Control_c, 0, 64, 51
1, 89773, Note_off_c, 0, 66, 63
1, 89778, Note_off_c, 0, 59, 63
1, 89806, Note_on_c, 0, 60, 59
1, 89854, Note_off_c, 0, 60, 56
1, 89886, Note_on_c, 0, 57, 58
1, 89943, Control_c, 0, 64, 52
1, 89974, Note_off_c, 0, 57, 58
1, 89976, Note_on_c, 0, 74, 71
1, 89989, Note_on_c, 0, 58, 53
1, 89992, Note_on_c, 0, 67, 52
1, 90032, Control_c, 0, 64, 52
1, 90047, Control_c, 0, 64, 53
1, 90062, Note_off_c, 0, 74, 63
1, 90062, Control_c, 0, 64, 53
1, 90067, Note_on_c, 0, 73, 74
1, 90079, Note_off_c, 0, 67, 50
1, 90092, Control_c, 0, 64, 54
1, 90107, Control_c, 0, 64, 54
1, 90140, Note_off_c, 0, 58, 61
1, 90157, Note_on_c, 0, 55, 61
1, 90161, Note_on_c, 0, 74, 67
1, 90167, Note_off_c, 0, 73, 61
1, 90181, Control_c, 0, 64, 55
1, 90199, Note_off_c, 0, 55, 61
1, 90229, Note_off_c, 0, 74, 64
1, 90254, Note_on_c, 0, 70, 67
1, 90284, Control_c, 0, 64, 54
1, 90314, Note_off_c, 0, 70, 62
1, 90342, Note_on_c, 0, 72, 81
1, 90344, Control_c, 0, 64, 54
1, 90351, Note_on_c, 0, 57, 60
1, 90355, Note_on_c, 0, 62, 62
1, 90402, Control_c, 0, 64, 53
1, 90426, Note_off_c, 0, 62, 44
1, 90439, Note_off_c, 0, 72, 64
1, 90447, Note_on_c, 0, 71, 71
1, 90484, Control_c, 0, 64, 53
1, 90524, Note_off_c, 0, 57, 58
1, 90534, Note_off_c, 0, 71, 64
1, 90536, Note_on_c, 0, 54, 59
1, 90536, Note_on_c, 0, 72, 81
1, 90544, Control_c, 0, 64, 52
1, 90595, Note_off_c, 0, 54, 56
1, 90602, Note_off_c, 0, 72, 62
1, 90626, Note_on_c, 0, 69, 68
1, 90676, Control_c, 0, 64, 53
1, 90689, Note_off_c, 0, 69, 53
1, 90732, Note_on_c, 0, 70, 73
1, 90735, Note_on_c, 0, 55, 55
1, 90740, Note_on_c, 0, 58, 56
1, 90751, Control_c, 0, 64, 53
1, 90803, Note_off_c, 0, 70, 63
1, 90825, Note_on_c, 0, 62, 72
1, 90917, Note_on_c, 0, 64, 76
1, 90920, Note_off_c, 0, 62, 61
1, 91013, Note_off_c, 0, 64, 62
1, 91015, Note_on_c, 0, 66, 82
1, 91019, Control_c, 0, 64, 54
1, 91079, Note_off_c, 0, 66, 63
1, 91106, Note_on_c, 0, 67, 80
1, 91115, Note_off_c, 0, 58, 64
1, 91128, Note_on_c, 0, 53, 51
1, 91141, Note_on_c, 0, 57, 60
1, 91144, Note_off_c, 0, 55, 45
1, 91207, Note_on_c, 0, 69, 81
1, 91218, Note_off_c, 0, 67, 62
1, 91299, Note_on_c, 0, 70, 80
1, 91344, Note_off_c, 0, 69, 51
1, 91351, Control_c, 0, 64, 54
1, 91398, Note_on_c, 0, 72, 78
1, 91404, Note_off_c, 0, 70, 58
1, 91476, Note_on_c, 0, 74, 76
1, 91479, Note_off_c, 0, 72, 64
1, 91490, Note_on_c, 0, 55, 71
1, 91490, Note_off_c, 0, 57, 57
1, 91493, Note_on_c, 0, 52, 63
1, 91496, Note_off_c, 0, 53, 57
1, 91519, Note_off_c, 0, 74, 63
1, 91529, Control_c, 0, 64, 55
1, 91544, Control_c, 0, 64, 55
1, 91559, Control_c, 0, 64, 56
1, 91571, Note_on_c, 0, 72, 92
1, 91574, Control_c, 0, 64, 56
1, 91669, Note_on_c, 0, 79, 85
1, 91669, Note_off_c, 0, 72, 53
1, 91763, Note_on_c, 0, 77, 86
1, 91795, Note_off_c, 0, 79, 59
1, 91842, Control_c, 0, 64, 57
1, 91850, Note_on_c, 0, 76, 86
1, 91856, Control_c, 0, 64, 57
1, 91871, Control_c, 0, 64, 58
1, 91876, Note_off_c, 0, 77, 61
1, 91886, Control_c, 0, 64, 58
1, 91946, Note_off_c, 0, 52, 60
1, 91951, Note_on_c, 0, 74, 85
1, 91951, Note_off_c, 0, 55, 63
1, 91952, Control_c, 0, 64, 59
1, 91978, Note_off_c, 0, 76, 49
1, 92021, Note_off_c, 0, 74, 61
1, 92032, Note_on_c, 0, 72, 88
1, 92071, Control_c, 0, 64, 59
1, 92082, Note_off_c, 0, 72, 65
1, 92124, Note_on_c, 0, 70, 78
1, 92197, Note_on_c, 0, 41, 89
1, 92198, Note_on_c, 0, 53, 92
1, 92210, Note_on_c, 0, 69, 82
1, 92232, Note_off_c, 0, 70, 61
1, 92296, Note_off_c, 0, 69, 61
1, 92305, Note_on_c, 0, 65, 72
1, 92308, Control_c, 0, 64, 59
1, 92331, Note_off_c, 0, 53, 63
1, 92334, Note_off_c, 0, 65, 68
1, 92363, Note_off_c, 0, 41, 64
1, 92384, Note_on_c, 0, 67, 76
1, 92435, Note_on_c, 0, 65, 79
1, 92436, Note_off_c, 0, 67, 63
1, 92477, Note_off_c, 0, 65, 65
1, 92493, Note_on_c, 0, 64, 74
1, 92524, Note_off_c, 0, 64, 67
1, 92536, Note_on_c, 0, 65, 76
1, 92545, Control_c, 0, 64, 58
1, 92566, Note_off_c, 0, 65, 69
1, 92578, Note_on_c, 0, 48, 95
1, 92581, Note_on_c, 0, 36, 85
1, 92683, Note_on_c, 0, 69, 67
1, 92701, Control_c, 0, 64, 59
1, 92727, Note_off_c, 0, 69, 63
1, 92731, Note_off_c, 0, 48, 63
1, 92735, Note_on_c, 0, 70, 75
1, 92746, Control_c, 0, 64, 59
1, 92759, Note_off_c, 0, 36, 62
1, 92796, Note_on_c, 0, 69, 74
1, 92798, Note_off_c, 0, 70, 64
1, 92825, Note_off_c, 0, 69, 65
1, 92847, Note_on_c, 0, 67, 68
1, 92864, Control_c, 0, 64, 59
1, 92878, Note_off_c, 0, 67, 62
1, 92902, Note_on_c, 0, 69, 83
1, 92923, Control_c, 0, 64, 58
1, 92927, Note_off_c, 0, 69, 68
1, 92953, Control_c, 0, 64, 58
1, 92959, Note_on_c, 0, 45, 93
1, 92962, Note_on_c, 0, 33, 86
1, 92983, Control_c, 0, 64, 58
1, 93027, Control_c, 0, 64, 58
1, 93064, Note_on_c, 0, 72, 79
1, 93103, Note_off_c, 0, 72, 63
1, 93125, Note_on_c, 0, 74, 67
1, 93174, Note_on_c, 0, 72, 69
1, 93177, Note_off_c, 0, 74, 65
1, 93205, Control_c, 0, 64, 58
1, 93215, Note_off_c, 0, 72, 66
1, 93222, Note_on_c, 0, 71, 78
1, 93252, Note_off_c, 0, 71, 67
1, 93268, Note_off_c, 0, 33, 61
1, 93271, Note_off_c, 0, 45, 60
1, 93276, Note_on_c, 0, 72, 86
1, 93331, Note_on_c, 0, 77, 95
1, 93336, Note_off_c, 0, 72, 65
1, 93354, Control_c, 0, 64, 58
1, 93436, Control_c, 0, 64, 57
1, 93525, Control_c, 0, 64, 57
1, 93536, Note_on_c, 0, 50, 92
1, 93540, Note_on_c, 0, 38, 88
1, 93562, Note_off_c, 0, 50, 67
1, 93587, Note_off_c, 0, 38, 61
1, 93614, Control_c, 0, 64, 56
1, 93628, Control_c, 0, 64, 55
1, 93643, Control_c, 0, 64, 51
1, 93658, Control_c, 0, 64, 46
1, 93673, Control_c, 0, 64, 41
1, 93688, Control_c, 0, 64, 38
1, 93717, Control_c, 0, 64, 42
1, 93727, Note_off_c, 0, 77, 61
1, 93732, Control_c, 0, 64, 52
1, 93734, Note_on_c, 0, 43, 93
1, 93735, Note_on_c, 0, 31, 90
1, 93747, Control_c, 0, 64, 62
1, 93762, Control_c, 0, 64, 65
1, 93776, Control_c, 0, 64, 70
1, 93791, Control_c, 0, 64, 78
1, 93806, Control_c, 0, 64, 86
1, 93821, Control_c, 0, 64, 91
1, 93836, Control_c, 0, 64, 93
1, 93851, Control_c, 0, 64, 96
1, 93865, Control_c, 0, 64, 99
1, 93880, Control_c, 0, 64, 101
1, 93894, Control_c, 0, 64, 101
1, 93909, Control_c, 0, 64, 102
1, 93924, Control_c, 0, 64, 102
1, 93942, Note_on_c, 0, 76, 72
1, 93953, Control_c, 0, 64, 103
1, 93993, Note_off_c, 0, 31, 60
1, 93993, Note_off_c, 0, 43, 59
1, 93995, Note_on_c, 0, 77, 83
1, 94009, Note_off_c, 0, 76, 63
1, 94013, Control_c, 0, 64, 103
1, 94031, Note_on_c, 0, 79, 82
1, 94081, Note_on_c, 0, 81, 84
1, 94086, Note_off_c, 0, 77, 61
1, 94101, Control_c, 0, 64, 102
1, 94116, Control_c, 0, 64, 98
1, 94131, Control_c, 0, 64, 92
1, 94132, Note_on_c, 0, 82, 87
1, 94138, Note_off_c, 0, 79, 60
1, 94147, Control_c, 0, 64, 84
1, 94169, Control_c, 0, 64, 77
1, 94176, Note_off_c, 0, 81, 64
1, 94184, Control_c, 0, 64, 68
1, 94199, Control_c, 0, 64, 52
1, 94214, Control_c, 0, 64, 0
1, 94337, Note_on_c, 0, 48, 92
1, 94340, Note_on_c, 0, 36, 87
1, 94379, Note_off_c, 0, 48, 62
1, 94398, Note_off_c, 0, 36, 63
1, 94450, Control_c, 0, 64, 22
1, 94465, Control_c, 0, 64, 47
1, 94480, Control_c, 0, 64, 59
1, 94495, Control_c, 0, 64, 64
1, 94496, Note_off_c, 0, 82, 64
1, 94510, Control_c, 0, 64, 66
1, 94525, Control_c, 0, 64, 72
1, 94538, Note_on_c, 0, 41, 87
1, 94540, Control_c, 0, 64, 82
1, 94540, Note_on_c, 0, 29, 87
1, 94554, Control_c, 0, 64, 90
1, 94569, Control_c, 0, 64, 94
1, 94584, Control_c, 0, 64, 99
1, 94599, Control_c, 0, 64, 105
1, 94614, Control_c, 0, 64, 109
1, 94629, Control_c, 0, 64, 113
1, 94643, Control_c, 0, 64, 117
1, 94658, Control_c, 0, 64, 122
1, 94673, Control_c, 0, 64, 127
1, 94724, Note_off_c, 0, 29, 63
1, 94746, Note_on_c, 0, 81, 87
1, 94761, Note_off_c, 0, 41, 63
1, 94778, Note_off_c, 0, 81, 62
1, 94799, Note_on_c, 0, 79, 75
1, 94844, Note_on_c, 0, 81, 91
1, 94850, Note_off_c, 0, 79, 64
1, 94880, Control_c, 0, 64, 120
1, 94894, Control_c, 0, 64, 112
1, 94895, Note_on_c, 0, 82, 78
1, 94909, Control_c, 0, 64, 103
1, 94932, Control_c, 0, 64, 93
1, 94942, Note_off_c, 0, 81, 60
1, 94948, Control_c, 0, 64, 83
1, 94957, Note_on_c, 0, 84, 91
1, 94963, Control_c, 0, 64, 73
1, 94975, Note_off_c, 0, 82, 67
1, 94978, Control_c, 0, 64, 64
1, 94992, Control_c, 0, 64, 49
1, 95007, Control_c, 0, 64, 32
1, 95022, Control_c, 0, 64, 0
1, 95150, Note_on_c, 0, 69, 62
1, 95353, Note_off_c, 0, 69, 53
1, 95355, Note_on_c, 0, 58, 54
1, 95422, Control_c, 0, 64, 12
1, 95437, Control_c, 0, 64, 18
1, 95452, Control_c, 0, 64, 20
1, 95466, Control_c, 0, 64, 22
1, 95478, Note_on_c, 0, 85, 74
1, 95481, Control_c, 0, 64, 24
1, 95496, Control_c, 0, 64, 26
1, 95517, Note_off_c, 0, 84, 56
1, 95574, Note_on_c, 0, 86, 74
1, 95610, Note_off_c, 0, 85, 64
1, 95654, Note_off_c, 0, 86, 61
1, 95670, Note_on_c, 0, 78, 79
1, 95714, Note_off_c, 0, 58, 62
1, 95720, Note_off_c, 0, 78, 63
1, 95753, Note_on_c, 0, 79, 78
1, 95843, Note_off_c, 0, 79, 61
1, 95848, Note_on_c, 0, 81, 77
1, 95952, Note_on_c, 0, 82, 64
1, 95955, Note_off_c, 0, 81, 58
1, 95961, Note_on_c, 0, 67, 48
1, 96152, Note_off_c, 0, 67, 49
1, 96155, Note_on_c, 0, 57, 44
1, 96263, Note_on_c, 0, 83, 67
1, 96273, Note_off_c, 0, 82, 53
1, 96289, Control_c, 0, 64, 24
1, 96304, Control_c, 0, 64, 22
1, 96319, Control_c, 0, 64, 20
1, 96334, Control_c, 0, 64, 18
1, 96348, Control_c, 0, 64, 15
1, 96355, Note_on_c, 0, 84, 75
1, 96370, Note_off_c, 0, 83, 63
1, 96378, Control_c, 0, 64, 12
1, 96432, Note_off_c, 0, 84, 60
1, 96453, Note_on_c, 0, 76, 71
1, 96485, Note_off_c, 0, 76, 65
1, 96503, Note_off_c, 0, 57, 59
1, 96546, Note_on_c, 0, 77, 66
1, 96593, Control_c, 0, 64, 0
1, 96633, Note_off_c, 0, 77, 62
1, 96637, Note_on_c, 0, 79, 67
1, 96719, Note_on_c, 0, 65, 42
1, 96725, Note_on_c, 0, 81, 78
1, 96728, Note_off_c, 0, 79, 60
1, 96930, Note_on_c, 0, 55, 46
1, 96964, Note_off_c, 0, 65, 40
1, 97008, Note_off_c, 0, 81, 63
1, 97029, Note_on_c, 0, 84, 69
1, 97083, Control_c, 0, 64, 12
1, 97097, Control_c, 0, 64, 15
1, 97112, Control_c, 0, 64, 20
1, 97115, Note_on_c, 0, 82, 76
1, 97127, Control_c, 0, 64, 24
1, 97142, Control_c, 0, 64, 27
1, 97145, Note_off_c, 0, 84, 60
1, 97216, Note_on_c, 0, 79, 79
1, 97231, Note_off_c, 0, 82, 63
1, 97238, Control_c, 0, 64, 26
1, 97268, Control_c, 0, 64, 24
1, 97291, Note_on_c, 0, 60, 53
1, 97292, Note_off_c, 0, 55, 53
1, 97303, Note_off_c, 0, 79, 61
1, 97306, Note_on_c, 0, 76, 74
1, 97343, Control_c, 0, 64, 22
1, 97358, Note_off_c, 0, 76, 60
1, 97389, Note_on_c, 0, 72, 76
1, 97402, Control_c, 0, 64, 20
1, 97422, Note_off_c, 0, 72, 63
1, 97491, Note_on_c, 0, 70, 72
1, 97529, Note_off_c, 0, 70, 57
1, 97535, Control_c, 0, 64, 18
1, 97573, Note_on_c, 0, 67, 61
1, 97580, Control_c, 0, 64, 15
1, 97595, Control_c, 0, 64, 12
1, 97607, Note_off_c, 0, 67, 63
1, 97609, Control_c, 0, 64, 0
1, 97636, Note_off_c, 0, 60, 45
1, 97661, Note_on_c, 0, 69, 74
1, 97671, Note_on_c, 0, 53, 50
1, 97673, Note_on_c, 0, 57, 48
1, 97689, Note_off_c, 0, 69, 67
1, 97719, Note_off_c, 0, 57, 58
1, 97720, Note_off_c, 0, 53, 59
1, 97771, Note_on_c, 0, 60, 41
1, 97823, Note_off_c, 0, 60, 58
1, 97853, Note_on_c, 0, 69, 64
1, 97865, Note_on_c, 0, 57, 41
1, 97867, Note_on_c, 0, 53, 45
1, 97883, Note_off_c, 0, 69, 66
1, 97913, Note_off_c, 0, 57, 54
1, 97921, Note_off_c, 0, 53, 59
1, 97967, Note_on_c, 0, 60, 41
1, 98016, Note_off_c, 0, 60, 58
1, 98062, Note_on_c, 0, 53, 46
1, 98068, Note_on_c, 0, 57, 34
1, 98111, Note_off_c, 0, 53, 59
1, 98125, Note_off_c, 0, 57, 51
1, 98157, Note_on_c, 0, 60, 47
1, 98170, Note_on_c, 0, 72, 61
1, 98192, Note_off_c, 0, 72, 61
1, 98223, Note_on_c, 0, 74, 55
1, 98226, Note_off_c, 0, 60, 54
1, 98252, Note_on_c, 0, 53, 51
1, 98260, Note_on_c, 0, 57, 45
1, 98264, Note_on_c, 0, 72, 76
1, 98267, Note_off_c, 0, 74, 63
1, 98300, Note_off_c, 0, 57, 61
1, 98304, Note_off_c, 0, 53, 55
1, 98308, Note_off_c, 0, 72, 64
1, 98321, Note_on_c, 0, 71, 64
1, 98343, Note_on_c, 0, 60, 52
1, 98369, Note_on_c, 0, 72, 80
1, 98382, Note_off_c, 0, 71, 65
1, 98388, Note_off_c, 0, 60, 60
1, 98421, Note_off_c, 0, 72, 64
1, 98424, Note_on_c, 0, 64, 70
1, 98430, Note_on_c, 0, 58, 54
1, 98431, Note_on_c, 0, 55, 51
1, 98453, Note_off_c, 0, 64, 68
1, 98473, Note_off_c, 0, 58, 59
1, 98474, Note_off_c, 0, 55, 59
1, 98525, Note_on_c, 0, 60, 44
1, 98582, Note_off_c, 0, 60, 57
1, 98614, Note_on_c, 0, 64, 69
1, 98623, Note_on_c, 0, 55, 47
1, 98624, Note_on_c, 0, 58, 46
1, 98643, Note_off_c, 0, 64, 67
1, 98677, Note_off_c, 0, 58, 59
1, 98680, Note_off_c, 0, 55, 59
1, 98724, Note_on_c, 0, 60, 47
1, 98779, Note_off_c, 0, 60, 57
1, 98815, Note_on_c, 0, 58, 47
1, 98817, Note_on_c, 0, 55, 43
1, 98865, Note_off_c, 0, 58, 57
1, 98866, Note_off_c, 0, 55, 59
1, 98904, Note_on_c, 0, 60, 53
1, 98915, Note_on_c, 0, 72, 66
1, 98941, Note_off_c, 0, 72, 65
1, 98966, Note_off_c, 0, 60, 53
1, 98978, Note_on_c, 0, 74, 65
1, 98990, Note_on_c, 0, 58, 57
1, 98999, Note_on_c, 0, 55, 49
1, 99014, Note_off_c, 0, 74, 65
1, 99026, Note_on_c, 0, 72, 68
1, 99041, Note_off_c, 0, 55, 60
1, 99042, Note_off_c, 0, 58, 59
1, 99056, Note_off_c, 0, 72, 66
1, 99059, Note_on_c, 0, 71, 74
1, 99081, Note_on_c, 0, 60, 54
1, 99091, Note_off_c, 0, 71, 66
1, 99121, Note_on_c, 0, 72, 78
1, 99144, Note_off_c, 0, 60, 54
1, 99176, Note_on_c, 0, 77, 81
1, 99179, Note_off_c, 0, 72, 65
1, 99184, Note_on_c, 0, 53, 53
1, 99190, Note_on_c, 0, 57, 45
1, 99237, Note_off_c, 0, 57, 56
1, 99242, Note_off_c, 0, 53, 53
1, 99285, Note_on_c, 0, 60, 41
1, 99357, Note_off_c, 0, 60, 60
1, 99383, Note_on_c, 0, 53, 44
1, 99387, Note_off_c, 0, 77, 61
1, 99391, Note_on_c, 0, 57, 45
1, 99391, Note_on_c, 0, 81, 75
1, 99440, Control_c, 0, 64, 12
1, 99448, Note_off_c, 0, 81, 65
1, 99455, Note_off_c, 0, 53, 54
1, 99455, Control_c, 0, 64, 15
1, 99458, Note_off_c, 0, 57, 55
1, 99485, Control_c, 0, 64, 18
1, 99499, Note_on_c, 0, 60, 53
1, 99514, Control_c, 0, 64, 20
1, 99529, Control_c, 0, 64, 22
1, 99544, Control_c, 0, 64, 24
1, 99557, Note_off_c, 0, 60, 55
1, 99559, Control_c, 0, 64, 26
1, 99587, Note_on_c, 0, 53, 49
1, 99588, Control_c, 0, 64, 27
1, 99592, Note_on_c, 0, 57, 47
1, 99603, Control_c, 0, 64, 30
1, 99617, Control_c, 0, 64, 32
1, 99632, Control_c, 0, 64, 36
1, 99643, Note_off_c, 0, 57, 55
1, 99647, Control_c, 0, 64, 37
1, 99662, Control_c, 0, 64, 38
1, 99667, Note_off_c, 0, 53, 59
1, 99677, Control_c, 0, 64, 39
1, 99679, Note_on_c, 0, 60, 55
1, 99691, Control_c, 0, 64, 40
1, 99699, Note_on_c, 0, 84, 56
1, 99718, Note_off_c, 0, 84, 62
1, 99748, Note_on_c, 0, 86, 60
1, 99752, Control_c, 0, 64, 41
1, 99754, Note_off_c, 0, 60, 61
1, 99776, Note_on_c, 0, 57, 51
1, 99786, Note_on_c, 0, 53, 52
1, 99796, Note_on_c, 0, 84, 66
1, 99801, Note_off_c, 0, 86, 65
1, 99822, Note_off_c, 0, 57, 61
1, 99830, Note_off_c, 0, 84, 66
1, 99834, Note_off_c, 0, 53, 59
1, 99840, Note_on_c, 0, 83, 64
1, 99856, Control_c, 0, 64, 40
1, 99865, Note_on_c, 0, 60, 58
1, 99871, Control_c, 0, 64, 39
1, 99886, Control_c, 0, 64, 38
1, 99896, Note_on_c, 0, 84, 82
1, 99901, Control_c, 0, 64, 37
1, 99907, Note_off_c, 0, 83, 67
1, 99908, Note_off_c, 0, 60, 59
1, 99915, Control_c, 0, 64, 33
1, 99930, Control_c, 0, 64, 28
1, 99941, Note_on_c, 0, 76, 79
1, 99941, Note_off_c, 0, 84, 66
1, 99945, Control_c, 0, 64, 26
1, 99950, Note_on_c, 0, 58, 57
1, 99952, Note_on_c, 0, 55, 51
1, 99960, Control_c, 0, 64, 22
1, 99983, Note_off_c, 0, 76, 65
1, 99986, Note_off_c, 0, 58, 63
1, 99989, Note_off_c, 0, 55, 63
1, 99989, Control_c, 0, 64, 18
1, 100004, Control_c, 0, 64, 12
1, 100019, Control_c, 0, 64, 0
1, 100036, Note_on_c, 0, 60, 52
1, 100087, Note_off_c, 0, 60, 56
1, 100136, Note_on_c, 0, 76, 76
1, 100146, Note_on_c, 0, 55, 48
1, 100147, Note_on_c, 0, 58, 48
1, 100177, Note_off_c, 0, 76, 64
1, 100199, Note_off_c, 0, 58, 60
1, 100200, Note_off_c, 0, 55, 59
1, 100239, Note_on_c, 0, 60, 54
1, 100300, Note_off_c, 0, 60, 57
1, 100338, Note_on_c, 0, 55, 53
1, 100338, Note_on_c, 0, 58, 51
1, 100352, Control_c, 0, 64, 12
1, 100367, Control_c, 0, 64, 18
1, 100382, Note_off_c, 0, 58, 59
1, 100382, Control_c, 0, 64, 20
1, 100386, Note_off_c, 0, 55, 61
1, 100397, Control_c, 0, 64, 22
1, 100412, Control_c, 0, 64, 24
1, 100420, Note_on_c, 0, 60, 61
1, 100427, Control_c, 0, 64, 27
1, 100441, Control_c, 0, 64, 30
1, 100443, Note_on_c, 0, 84, 63
1, 100467, Note_off_c, 0, 84, 65
1, 100471, Control_c, 0, 64, 31
1, 100488, Note_off_c, 0, 60, 60
1, 100494, Note_on_c, 0, 86, 63
1, 100507, Note_on_c, 0, 58, 52
1, 100515, Note_on_c, 0, 55, 48
1, 100515, Control_c, 0, 64, 30
1, 100530, Control_c, 0, 64, 26
1, 100536, Note_on_c, 0, 84, 63
1, 100536, Note_off_c, 0, 86, 63
1, 100546, Control_c, 0, 64, 22
1, 100551, Note_off_c, 0, 58, 60
1, 100557, Note_off_c, 0, 55, 61
1, 100564, Note_off_c, 0, 84, 67
1, 100576, Control_c, 0, 64, 20
1, 100579, Note_on_c, 0, 83, 73
1, 100598, Note_on_c, 0, 60, 54
1, 100606, Control_c, 0, 64, 27
1, 100620, Control_c, 0, 64, 40
1, 100621, Note_on_c, 0, 84, 83
1, 100623, Note_off_c, 0, 83, 60
1, 100635, Control_c, 0, 64, 54
1, 100650, Control_c, 0, 64, 62
1, 100664, Control_c, 0, 64, 66
1, 100672, Note_off_c, 0, 84, 64
1, 100676, Note_off_c, 0, 60, 59
1, 100679, Control_c, 0, 64, 72
1, 100694, Control_c, 0, 64, 80
1, 100699, Note_on_c, 0, 80, 94
1, 100704, Note_on_c, 0, 53, 61
1, 100709, Control_c, 0, 64, 87
1, 100724, Control_c, 0, 64, 91
1, 100738, Control_c, 0, 64, 96
1, 100753, Control_c, 0, 64, 100
1, 100768, Control_c, 0, 64, 105
1, 100779, Note_off_c, 0, 53, 54
1, 100783, Control_c, 0, 64, 109
1, 100797, Control_c, 0, 64, 116
1, 100805, Note_on_c, 0, 60, 61
1, 100812, Control_c, 0, 64, 127
1, 100885, Note_off_c, 0, 60, 59
1, 100911, Note_on_c, 0, 53, 55
1, 100989, Note_off_c, 0, 53, 55
1, 101009, Note_on_c, 0, 60, 61
1, 101096, Note_off_c, 0, 60, 57
1, 101112, Note_on_c, 0, 53, 62
1, 101201, Note_on_c, 0, 60, 69
1, 101203, Note_off_c, 0, 53, 58
1, 101277, Note_off_c, 0, 60, 60
1, 101304, Note_on_c, 0, 53, 77
1, 101326, Note_off_c, 0, 80, 63
1, 101388, Note_on_c, 0, 60, 70
1, 101394, Note_off_c, 0, 53, 58
1, 101458, Control_c, 0, 64, 96
1, 101460, Note_off_c, 0, 60, 61
1, 101473, Control_c, 0, 64, 76
1, 101487, Control_c, 0, 64, 42
1, 101489, Note_on_c, 0, 89, 102
1, 101498, Note_on_c, 0, 53, 72
1, 101502, Control_c, 0, 64, 0
1, 101532, Control_c, 0, 64, 61
1, 101547, Control_c, 0, 64, 71
1, 101561, Control_c, 0, 64, 84
1, 101573, Note_off_c, 0, 53, 57
1, 101576, Control_c, 0, 64, 97
1, 101586, Note_on_c, 0, 61, 71
1, 101591, Control_c, 0, 64, 101
1, 101605, Control_c, 0, 64, 103
1, 101620, Control_c, 0, 64, 105
1, 101635, Control_c, 0, 64, 108
1, 101650, Control_c, 0, 64, 112
1, 101668, Note_off_c, 0, 61, 58
1, 101673, Control_c, 0, 64, 115
1, 101679, Note_off_c, 0, 89, 58
1, 101687, Note_on_c, 0, 53, 68
1, 101688, Control_c, 0, 64, 118
1, 101702, Control_c, 0, 64, 121
1, 101717, Control_c, 0, 64, 126
1, 101732, Control_c, 0, 64, 127
1, 101768, Note_off_c, 0, 53, 58
1, 101776, Note_on_c, 0, 61, 71
1, 101870, Note_off_c, 0, 61, 60
1, 101879, Note_on_c, 0, 53, 70
1, 101965, Note_off_c, 0, 53, 58
1, 101980, Note_on_c, 0, 61, 70
1, 102057, Note_off_c, 0, 61, 60
1, 102074, Note_on_c, 0, 53, 73
1, 102146, Note_off_c, 0, 53, 58
1, 102166, Note_on_c, 0, 61, 72
1, 102247, Note_off_c, 0, 61, 60
1, 102250, Control_c, 0, 64, 113
1, 102258, Note_on_c, 0, 79, 96
1, 102265, Control_c, 0, 64, 97
1, 102275, Note_on_c, 0, 51, 74
1, 102280, Control_c, 0, 64, 82
1, 102295, Control_c, 0, 64, 70
1, 102309, Control_c, 0, 64, 58
1, 102324, Control_c, 0, 64, 55
1, 102339, Control_c, 0, 64, 63
1, 102353, Control_c, 0, 64, 67
1, 102363, Note_off_c, 0, 51, 62
1, 102368, Control_c, 0, 64, 72
1, 102381, Note_on_c, 0, 61, 68
1, 102383, Control_c, 0, 64, 78
1, 102398, Control_c, 0, 64, 82
1, 102421, Control_c, 0, 64, 83
1, 102435, Control_c, 0, 64, 84
1, 102450, Control_c, 0, 64, 85
1, 102465, Note_off_c, 0, 61, 62
1, 102465, Control_c, 0, 64, 87
1, 102480, Control_c, 0, 64, 88
1, 102482, Note_on_c, 0, 89, 99
1, 102488, Note_on_c, 0, 51, 72
1, 102495, Control_c, 0, 64, 89
1, 102524, Control_c, 0, 64, 90
1, 102563, Note_off_c, 0, 51, 60
1, 102581, Note_on_c, 0, 61, 72
1, 102653, Note_off_c, 0, 61, 59
1, 102672, Note_on_c, 0, 87, 91
1, 102677, Note_on_c, 0, 51, 70
1, 102704, Note_off_c, 0, 89, 66
1, 102745, Note_off_c, 0, 79, 56
1, 102761, Note_off_c, 0, 51, 56
1, 102782, Note_on_c, 0, 60, 70
1, 102858, Note_on_c, 0, 80, 90
1, 102858, Note_off_c, 0, 60, 60
1, 102873, Note_on_c, 0, 51, 74
1, 102873, Note_off_c, 0, 87, 66
1, 102880, Control_c, 0, 64, 89
1, 102910, Control_c, 0, 64, 89
1, 102925, Control_c, 0, 64, 88
1, 102940, Control_c, 0, 64, 88
1, 102967, Note_off_c, 0, 51, 58
1, 102970, Control_c, 0, 64, 87
1, 102976, Note_on_c, 0, 60, 64
1, 102984, Control_c, 0, 64, 87
1, 102999, Control_c, 0, 64, 86
1, 103029, Control_c, 0, 64, 86
1, 103044, Note_off_c, 0, 60, 60
1, 103044, Control_c, 0, 64, 85
1, 103055, Note_on_c, 0, 79, 88
1, 103059, Control_c, 0, 64, 85
1, 103061, Note_off_c, 0, 80, 65
1, 103064, Note_on_c, 0, 51, 76
1, 103074, Control_c, 0, 64, 84
1, 103089, Control_c, 0, 64, 84
1, 103104, Control_c, 0, 64, 83
1, 103119, Control_c, 0, 64, 82
1, 103133, Control_c, 0, 64, 82
1, 103141, Note_off_c, 0, 51, 60
1, 103148, Control_c, 0, 64, 81
1, 103151, Note_on_c, 0, 58, 74
1, 103170, Control_c, 0, 64, 80
1, 103184, Control_c, 0, 64, 80
1, 103199, Control_c, 0, 64, 79
1, 103214, Control_c, 0, 64, 79
1, 103229, Control_c, 0, 64, 78
1, 103242, Note_off_c, 0, 58, 58
1, 103244, Control_c, 0, 64, 77
1, 103245, Note_on_c, 0, 85, 89
1, 103254, Note_on_c, 0, 51, 73
1, 103259, Control_c, 0, 64, 76
1, 103274, Control_c, 0, 64, 74
1, 103289, Control_c, 0, 64, 73
1, 103294, Note_off_c, 0, 79, 55
1, 103303, Control_c, 0, 64, 71
1, 103318, Control_c, 0, 64, 70
1, 103333, Control_c, 0, 64, 69
1, 103333, Note_off_c, 0, 51, 60
1, 103344, Note_on_c, 0, 58, 70
1, 103348, Control_c, 0, 64, 67
1, 103363, Control_c, 0, 64, 66
1, 103378, Control_c, 0, 64, 65
1, 103392, Control_c, 0, 64, 64
1, 103407, Control_c, 0, 64, 63
1, 103422, Control_c, 0, 64, 62
1, 103435, Note_off_c, 0, 58, 61
1, 103437, Control_c, 0, 64, 60
1, 103441, Note_on_c, 0, 51, 73
1, 103448, Note_on_c, 0, 84, 88
1, 103452, Control_c, 0, 64, 58
1, 103466, Control_c, 0, 64, 54
1, 103481, Control_c, 0, 64, 46
1, 103496, Control_c, 0, 64, 35
1, 103510, Control_c, 0, 64, 26
1, 103525, Control_c, 0, 64, 22
1, 103527, Note_off_c, 0, 51, 63
1, 103536, Note_off_c, 0, 85, 49
1, 103537, Note_on_c, 0, 56, 65
1, 103540, Control_c, 0, 64, 20
1, 103555, Control_c, 0, 64, 15
1, 103570, Control_c, 0, 64, 0
1, 103631, Note_off_c, 0, 56, 64
1, 103636, Note_on_c, 0, 80, 85
1, 103640, Note_on_c, 0, 51, 73
1, 103665, Note_off_c, 0, 84, 64
1, 103716, Note_off_c, 0, 51, 62
1, 103739, Note_on_c, 0, 56, 55
1, 103811, Note_off_c, 0, 56, 55
1, 103825, Note_on_c, 0, 51, 63
1, 103831, Note_on_c, 0, 79, 78
1, 103836, Note_off_c, 0, 80, 63
1, 103918, Note_off_c, 0, 51, 61
1, 103930, Note_on_c, 0, 61, 58
1, 104004, Note_off_c, 0, 61, 61
1, 104019, Note_off_c, 0, 79, 60
1, 104037, Note_on_c, 0, 51, 59
1, 104038, Note_on_c, 0, 89, 79
1, 104089, Note_off_c, 0, 51, 59
1, 104135, Note_on_c, 0, 61, 52
1, 104185, Note_off_c, 0, 61, 58
1, 104215, Note_on_c, 0, 51, 50
1, 104236, Note_on_c, 0, 87, 71
1, 104275, Note_off_c, 0, 51, 58
1, 104277, Note_off_c, 0, 89, 57
1, 104330, Note_on_c, 0, 60, 51
1, 104385, Note_off_c, 0, 60, 56
1, 104418, Note_on_c, 0, 51, 50
1, 104418, Note_on_c, 0, 80, 71
1, 104431, Note_off_c, 0, 87, 66
1, 104481, Note_off_c, 0, 51, 57
1, 104522, Note_on_c, 0, 60, 46
1, 104591, Note_off_c, 0, 60, 57
1, 104603, Note_off_c, 0, 80, 65
1, 104609, Note_on_c, 0, 51, 54
1, 104609, Note_on_c, 0, 79, 67
1, 104689, Note_off_c, 0, 51, 55
1, 104713, Note_on_c, 0, 58, 57
1, 104784, Note_off_c, 0, 58, 60
1, 104793, Note_on_c, 0, 85, 76
1, 104811, Note_on_c, 0, 51, 55
1, 104811, Note_off_c, 0, 79, 55
1, 104881, Note_off_c, 0, 51, 56
1, 104915, Note_on_c, 0, 58, 51
1, 104957, Note_off_c, 0, 58, 62
1, 104975, Note_on_c, 0, 84, 70
1, 104998, Note_on_c, 0, 51, 55
1, 105003, Note_off_c, 0, 85, 58
1, 105075, Note_off_c, 0, 51, 54
1, 105108, Note_on_c, 0, 56, 50
1, 105165, Note_off_c, 0, 56, 57
1, 105173, Note_on_c, 0, 80, 65
1, 105191, Note_off_c, 0, 84, 61
1, 105201, Note_on_c, 0, 51, 50
1, 105255, Note_off_c, 0, 51, 60
1, 105284, Note_on_c, 0, 56, 51
1, 105343, Note_off_c, 0, 56, 56
1, 105376, Note_on_c, 0, 51, 50
1, 105379, Note_off_c, 0, 80, 63
1, 105380, Note_on_c, 0, 74, 63
1, 105465, Note_off_c, 0, 51, 57
1, 105476, Note_on_c, 0, 56, 53
1, 105550, Note_off_c, 0, 56, 60
1, 105568, Note_on_c, 0, 83, 74
1, 105575, Note_off_c, 0, 74, 60
1, 105584, Note_on_c, 0, 51, 49
1, 105643, Note_off_c, 0, 51, 59
1, 105679, Note_on_c, 0, 56, 52
1, 105729, Note_off_c, 0, 56, 58
1, 105763, Note_on_c, 0, 51, 51
1, 105765, Note_on_c, 0, 80, 70
1, 105778, Note_off_c, 0, 83, 59
1, 105841, Note_off_c, 0, 51, 55
1, 105859, Note_on_c, 0, 56, 48
1, 105924, Note_off_c, 0, 56, 58
1, 105959, Note_on_c, 0, 51, 51
1, 105962, Note_on_c, 0, 74, 56
1, 105983, Note_off_c, 0, 80, 64
1, 106022, Control_c, 0, 64, 12
1, 106027, Note_off_c, 0, 51, 48
1, 106052, Note_on_c, 0, 56, 50
1, 106096, Control_c, 0, 64, 15
1, 106126, Control_c, 0, 64, 18
1, 106132, Note_off_c, 0, 56, 59
1, 106151, Note_on_c, 0, 75, 65
1, 106170, Note_on_c, 0, 51, 49
1, 106171, Note_off_c, 0, 74, 51
1, 106228, Note_off_c, 0, 51, 60
1, 106263, Note_on_c, 0, 55, 45
1, 106326, Control_c, 0, 64, 20
1, 106338, Note_on_c, 0, 82, 65
1, 106344, Note_off_c, 0, 55, 62
1, 106348, Note_on_c, 0, 51, 51
1, 106362, Note_off_c, 0, 75, 59
1, 106422, Note_off_c, 0, 51, 58
1, 106458, Note_on_c, 0, 55, 45
1, 106523, Note_off_c, 0, 55, 60
1, 106527, Note_on_c, 0, 79, 72
1, 106534, Control_c, 0, 64, 22
1, 106545, Note_on_c, 0, 51, 53
1, 106574, Note_off_c, 0, 82, 54
1, 106597, Note_off_c, 0, 51, 60
1, 106633, Note_on_c, 0, 55, 51
1, 106708, Note_off_c, 0, 79, 60
1, 106709, Note_on_c, 0, 75, 67
1, 106711, Note_off_c, 0, 55, 59
1, 106715, Note_on_c, 0, 51, 55
1, 106742, Control_c, 0, 64, 24
1, 106775, Note_off_c, 0, 51, 59
1, 106809, Note_on_c, 0, 55, 50
1, 106873, Note_off_c, 0, 55, 60
1, 106889, Note_on_c, 0, 51, 60
1, 106907, Note_off_c, 0, 75, 62
1, 106912, Note_on_c, 0, 74, 59
1, 106997, Note_off_c, 0, 51, 61
1, 107011, Note_on_c, 0, 56, 52
1, 107083, Note_off_c, 0, 56, 61
1, 107092, Note_off_c, 0, 74, 65
1, 107093, Note_on_c, 0, 71, 67
1, 107101, Note_on_c, 0, 51, 54
1, 107170, Note_off_c, 0, 51, 58
1, 107202, Note_on_c, 0, 56, 53
1, 107269, Note_off_c, 0, 56, 57
1, 107292, Note_on_c, 0, 51, 54
1, 107301, Note_off_c, 0, 71, 60
1, 107302, Note_on_c, 0, 68, 72
1, 107357, Note_off_c, 0, 51, 56
1, 107393, Note_on_c, 0, 56, 53
1, 107447, Control_c, 0, 67, 9
1, 107451, Note_off_c, 0, 56, 57
1, 107462, Control_c, 0, 67, 13
1, 107476, Control_c, 0, 67, 18
1, 107484, Note_on_c, 0, 51, 53
1, 107485, Note_off_c, 0, 68, 63
1, 107489, Note_on_c, 0, 62, 62
1, 107491, Control_c, 0, 67, 30
1, 107506, Control_c, 0, 64, 22
1, 107506, Control_c, 0, 67, 45
1, 107521, Control_c, 0, 67, 58
1, 107536, Control_c, 0, 67, 73
1, 107550, Note_off_c, 0, 51, 56
1, 107550, Control_c, 0, 67, 89
1, 107565, Control_c, 0, 67, 106
1, 107578, Note_on_c, 0, 56, 48
1, 107580, Control_c, 0, 67, 123
1, 107594, Control_c, 0, 67, 127
1, 107657, Note_off_c, 0, 56, 55
1, 107676, Note_on_c, 0, 51, 54
1, 107679, Note_off_c, 0, 62, 58
1, 107682, Note_on_c, 0, 63, 66
1, 107737, Note_off_c, 0, 51, 55
1, 107779, Note_on_c, 0, 55, 47
1, 107860, Note_off_c, 0, 55, 59
1, 107863, Note_on_c, 0, 51, 53
1, 107872, Note_on_c, 0, 70, 69
1, 107885, Control_c, 0, 64, 20
1, 107888, Note_off_c, 0, 63, 51
1, 107936, Note_off_c, 0, 51, 58
1, 107972, Note_on_c, 0, 55, 46
1, 108052, Note_off_c, 0, 55, 62
1, 108053, Note_on_c, 0, 51, 58
1, 108064, Note_on_c, 0, 67, 67
1, 108094, Note_off_c, 0, 70, 46
1, 108146, Note_off_c, 0, 51, 53
1, 108174, Note_on_c, 0, 55, 41
1, 108234, Note_off_c, 0, 55, 63
1, 108246, Note_off_c, 0, 67, 60
1, 108252, Note_on_c, 0, 63, 61
1, 108256, Note_on_c, 0, 51, 56
1, 108298, Note_off_c, 0, 51, 62
1, 108338, Note_on_c, 0, 55, 45
1, 108422, Note_off_c, 0, 55, 60
1, 108427, Note_on_c, 0, 51, 29
1, 108447, Note_on_c, 0, 56, 48
1, 108464, Note_on_c, 0, 62, 56
1, 108466, Note_off_c, 0, 63, 57
1, 108648, Note_on_c, 0, 59, 65
1, 108656, Note_off_c, 0, 62, 59
1, 108835, Note_off_c, 0, 59, 59
1, 108845, Note_on_c, 0, 58, 65
1, 109013, Note_off_c, 0, 58, 63
1, 109034, Note_on_c, 0, 62, 59
1, 109232, Note_on_c, 0, 65, 61
1, 109235, Note_off_c, 0, 62, 56
1, 109435, Note_on_c, 0, 68, 63
1, 109443, Note_off_c, 0, 65, 60
1, 109530, Control_c, 0, 64, 18
1, 109627, Note_off_c, 0, 68, 59
1, 109634, Note_on_c, 0, 71, 57
1, 109708, Control_c, 0, 64, 15
1, 109784, Note_off_c, 0, 71, 59
1, 109825, Note_on_c, 0, 62, 44
1, 110008, Note_off_c, 0, 62, 57
1, 110019, Note_on_c, 0, 63, 49
1, 110027, Note_on_c, 0, 55, 44
1, 110036, Note_off_c, 0, 56, 36
1, 110273, Note_off_c, 0, 51, 53
1, 110276, Note_off_c, 0, 55, 59
1, 110299, Note_off_c, 0, 63, 63
1, 110323, Control_c, 0, 64, 12
1, 110326, Note_on_c, 0, 62, 52
1, 110372, Note_off_c, 0, 62, 60
1, 110383, Control_c, 0, 64, 0
1, 110412, Note_on_c, 0, 63, 66
1, 110415, Note_on_c, 0, 51, 48
1, 110415, Note_on_c, 0, 55, 55
1, 110449, Note_off_c, 0, 55, 64
1, 110455, Note_off_c, 0, 51, 62
1, 110462, Note_off_c, 0, 63, 53
1, 110504, Note_on_c, 0, 62, 59
1, 110563, Note_off_c, 0, 62, 56
1, 110595, Note_on_c, 0, 51, 42
1, 110595, Note_on_c, 0, 63, 62
1, 110607, Note_on_c, 0, 55, 39
1, 110639, Note_off_c, 0, 55, 52
1, 110650, Note_off_c, 0, 51, 58
1, 110666, Note_off_c, 0, 63, 60
1, 110700, Note_on_c, 0, 62, 53
1, 110786, Note_off_c, 0, 62, 60
1, 110810, Note_on_c, 0, 63, 53
1, 110819, Control_c, 0, 64, 20
1, 110821, Note_on_c, 0, 51, 37
1, 110821, Note_on_c, 0, 55, 37
1, 110834, Control_c, 0, 64, 46
1, 110849, Control_c, 0, 64, 58
1, 110864, Control_c, 0, 64, 63
1, 110879, Control_c, 0, 64, 65
1, 110893, Control_c, 0, 64, 67
1, 110908, Control_c, 0, 64, 72
1, 110924, Control_c, 0, 64, 78
1, 110939, Control_c, 0, 64, 82
1, 110954, Control_c, 0, 64, 84
1, 110969, Control_c, 0, 64, 86
1, 110984, Control_c, 0, 64, 89
1, 110998, Control_c, 0, 64, 93
1, 111013, Control_c, 0, 64, 97
1, 111028, Control_c, 0, 64, 100
1, 111043, Control_c, 0, 64, 104
1, 111057, Control_c, 0, 64, 109
1, 111072, Control_c, 0, 64, 113
1, 111087, Control_c, 0, 64, 119
1, 111102, Control_c, 0, 64, 127
1, 111207, Note_off_c, 0, 55, 44
1, 111230, Note_off_c, 0, 63, 61
1, 111250, Control_c, 0, 64, 124
1, 111260, Note_off_c, 0, 51, 41
1, 111265, Control_c, 0, 64, 112
1, 111280, Control_c, 0, 64, 103
1, 111295, Control_c, 0, 64, 95
1, 111310, Control_c, 0, 64, 87
1, 111324, Control_c, 0, 64, 81
1, 111339, Control_c, 0, 64, 75
1, 111354, Control_c, 0, 64, 70
1, 111368, Control_c, 0, 64, 64
1, 111383, Control_c, 0, 64, 59
1, 111406, Control_c, 0, 64, 55
1, 111420, Control_c, 0, 64, 52
1, 111435, Control_c, 0, 64, 51
1, 111450, Control_c, 0, 64, 49
1, 111465, Control_c, 0, 64, 46
1, 111480, Control_c, 0, 64, 41
1, 111495, Control_c, 0, 64, 37
1, 111510, Control_c, 0, 64, 31
1, 111524, Control_c, 0, 64, 26
1, 111539, Control_c, 0, 64, 18
1, 111554, Control_c, 0, 64, 0
1, 111739, Note_on_c, 0, 56, 48
1, 111754, Note_on_c, 0, 44, 39
1, 112103, Control_c, 0, 64, 12
1, 112159, Note_on_c, 0, 51, 42
1, 112161, Note_on_c, 0, 39, 41
1, 112187, Note_off_c, 0, 56, 38
1, 112226, Note_off_c, 0, 44, 36
1, 112552, Note_on_c, 0, 48, 42
1, 112556, Note_off_c, 0, 39, 41
1, 112571, Note_on_c, 0, 36, 31
1, 112610, Note_off_c, 0, 51, 35
1, 112643, Control_c, 0, 64, 15
1, 112777, Control_c, 0, 64, 18
1, 112792, Control_c, 0, 64, 20
1, 112821, Control_c, 0, 64, 22
1, 112851, Control_c, 0, 64, 24
1, 112970, Note_off_c, 0, 36, 57
1, 112980, Note_off_c, 0, 48, 62
1, 112991, Control_c, 0, 64, 26
1, 113179, Note_on_c, 0, 53, 52
1, 113185, Note_on_c, 0, 41, 48
1, 113409, Note_off_c, 0, 41, 56
1, 113424, Note_off_c, 0, 53, 38
1, 113433, Note_on_c, 0, 34, 34
1, 113440, Note_on_c, 0, 46, 28
1, 113741, Control_c, 0, 64, 27
1, 113832, Note_off_c, 0, 34, 54
1, 113834, Note_off_c, 0, 46, 59
1, 114032, Note_on_c, 0, 51, 47
1, 114049, Note_on_c, 0, 39, 40
1, 114052, Control_c, 0, 64, 26
1, 114244, Note_off_c, 0, 51, 55
1, 114253, Note_off_c, 0, 39, 42
1, 114264, Note_on_c, 0, 44, 43
1, 114279, Note_on_c, 0, 32, 37
1, 114290, Control_c, 0, 64, 31
1, 114305, Control_c, 0, 64, 39
1, 114319, Control_c, 0, 64, 49
1, 114334, Control_c, 0, 64, 57
1, 114349, Control_c, 0, 64, 62
1, 114364, Control_c, 0, 64, 65
1, 114379, Control_c, 0, 64, 69
1, 114401, Control_c, 0, 64, 76
1, 114416, Control_c, 0, 64, 82
1, 114431, Control_c, 0, 64, 85
1, 114440, Note_off_c, 0, 44, 62
1, 114446, Control_c, 0, 64, 87
1, 114461, Control_c, 0, 64, 90
1, 114475, Control_c, 0, 64, 93
1, 114490, Control_c, 0, 64, 95
1, 114505, Control_c, 0, 64, 97
1, 114519, Control_c, 0, 64, 98
1, 114541, Note_off_c, 0, 32, 49
1, 114593, Control_c, 0, 64, 97
1, 114608, Control_c, 0, 64, 97
1, 114623, Control_c, 0, 64, 95
1, 114638, Control_c, 0, 64, 92
1, 114653, Control_c, 0, 64, 90
1, 114667, Control_c, 0, 64, 86
1, 114682, Control_c, 0, 64, 83
1, 114697, Control_c, 0, 64, 79
1, 114711, Control_c, 0, 64, 75
1, 114726, Control_c, 0, 64, 72
1, 114741, Control_c, 0, 64, 68
1, 114756, Control_c, 0, 64, 64
1, 114771, Control_c, 0, 64, 62
1, 114786, Control_c, 0, 64, 58
1, 114801, Control_c, 0, 64, 53
1, 114816, Control_c, 0, 64, 47
1, 114831, Control_c, 0, 64, 36
1, 114845, Control_c, 0, 64, 0
1, 114866, Note_on_c, 0, 72, 71
1, 115054, Note_on_c, 0, 61, 60
1, 115059, Note_off_c, 0, 72, 60
1, 115253, Note_on_c, 0, 56, 56
1, 115256, Note_on_c, 0, 53, 49
1, 115328, Note_off_c, 0, 61, 36
1, 115422, Note_off_c, 0, 56, 62
1, 115445, Note_on_c, 0, 58, 63
1, 115446, Note_on_c, 0, 55, 54
1, 115446, Control_c, 0, 67, 123
1, 115460, Control_c, 0, 67, 117
1, 115471, Note_off_c, 0, 53, 32
1, 115475, Control_c, 0, 67, 110
1, 115490, Control_c, 0, 67, 102
1, 115505, Control_c, 0, 67, 93
1, 115520, Control_c, 0, 67, 83
1, 115534, Control_c, 0, 67, 74
1, 115549, Control_c, 0, 67, 67
1, 115564, Control_c, 0, 67, 61
1, 115579, Control_c, 0, 67, 55
1, 115586, Note_off_c, 0, 55, 63
1, 115594, Control_c, 0, 67, 50
1, 115609, Control_c, 0, 67, 45
1, 115614, Note_on_c, 0, 70, 73
1, 115624, Control_c, 0, 67, 38
1, 115638, Control_c, 0, 67, 32
1, 115645, Note_off_c, 0, 58, 58
1, 115653, Control_c, 0, 67, 25
1, 115668, Control_c, 0, 67, 16
1, 115683, Control_c, 0, 67, 0
1, 115817, Note_on_c, 0, 60, 63
1, 115819, Note_off_c, 0, 70, 58
1, 116000, Note_on_c, 0, 52, 53
1, 116015, Note_on_c, 0, 55, 53
1, 116154, Note_off_c, 0, 52, 58
1, 116181, Note_off_c, 0, 60, 25
1, 116193, Note_on_c, 0, 53, 56
1, 116196, Note_off_c, 0, 55, 56
1, 116200, Note_on_c, 0, 56, 62
1, 116343, Note_off_c, 0, 53, 59
1, 116370, Note_on_c, 0, 68, 71
1, 116403, Note_off_c, 0, 68, 63
1, 116404, Note_off_c, 0, 56, 58
1, 116554, Note_on_c, 0, 59, 73
1, 116725, Note_on_c, 0, 53, 65
1, 116726, Note_on_c, 0, 50, 60
1, 116738, Note_off_c, 0, 59, 60
1, 116750, Note_on_c, 0, 68, 70
1, 116783, Note_off_c, 0, 68, 62
1, 116898, Note_off_c, 0, 53, 58
1, 116908, Note_off_c, 0, 50, 56
1, 116942, Note_on_c, 0, 60, 75
1, 117117, Note_off_c, 0, 60, 56
1, 117118, Note_on_c, 0, 51, 67
1, 117123, Note_on_c, 0, 48, 58
1, 117131, Note_on_c, 0, 68, 59
1, 117162, Note_off_c, 0, 68, 66
1, 117284, Note_off_c, 0, 48, 53
1, 117301, Note_off_c, 0, 51, 60
1, 117317, Note_on_c, 0, 62, 76
1, 117493, Note_off_c, 0, 62, 61
1, 117509, Note_on_c, 0, 68, 66
1, 117513, Note_on_c, 0, 47, 62
1, 117514, Note_on_c, 0, 50, 58
1, 117537, Note_off_c, 0, 68, 67
1, 117669, Note_off_c, 0, 47, 55
1, 117688, Note_off_c, 0, 50, 60
1, 117693, Note_on_c, 0, 60, 81
1, 117855, Note_off_c, 0, 60, 60
1, 117872, Note_on_c, 0, 68, 67
1, 117891, Note_on_c, 0, 51, 61
1, 117900, Note_on_c, 0, 48, 39
1, 117901, Note_off_c, 0, 68, 66
1, 118033, Note_off_c, 0, 48, 44
1, 118060, Note_on_c, 0, 59, 67
1, 118063, Note_off_c, 0, 51, 52
1, 118098, Note_off_c, 0, 59, 61
1, 118145, Note_on_c, 0, 68, 66
1, 118196, Note_off_c, 0, 68, 56
1, 118241, Note_on_c, 0, 59, 70
1, 118252, Note_on_c, 0, 50, 59
1, 118253, Note_on_c, 0, 53, 63
1, 118285, Note_off_c, 0, 59, 60
1, 118336, Note_on_c, 0, 68, 65
1, 118399, Note_off_c, 0, 53, 55
1, 118408, Note_off_c, 0, 68, 54
1, 118420, Note_off_c, 0, 50, 39
1, 118427, Note_on_c, 0, 60, 80
1, 118480, Note_off_c, 0, 60, 61
1, 118521, Note_on_c, 0, 68, 71
1, 118584, Note_off_c, 0, 68, 58
1, 118608, Note_on_c, 0, 60, 77
1, 118621, Note_on_c, 0, 48, 62
1, 118626, Note_on_c, 0, 51, 58
1, 118663, Note_off_c, 0, 60, 62
1, 118712, Note_on_c, 0, 68, 66
1, 118749, Note_off_c, 0, 48, 52
1, 118769, Note_off_c, 0, 68, 55
1, 118800, Note_on_c, 0, 62, 77
1, 118801, Note_off_c, 0, 51, 47
1, 118854, Note_off_c, 0, 62, 62
1, 118908, Note_on_c, 0, 68, 69
1, 118968, Note_off_c, 0, 68, 56
1, 118990, Note_on_c, 0, 62, 72
1, 119006, Note_on_c, 0, 50, 58
1, 119009, Note_on_c, 0, 47, 59
1, 119041, Note_off_c, 0, 62, 62
1, 119090, Note_on_c, 0, 68, 72
1, 119139, Note_off_c, 0, 47, 52
1, 119156, Note_off_c, 0, 68, 58
1, 119157, Note_off_c, 0, 50, 40
1, 119181, Note_on_c, 0, 59, 79
1, 119233, Note_off_c, 0, 59, 62
1, 119277, Note_on_c, 0, 68, 66
1, 119350, Note_off_c, 0, 68, 59
1, 119366, Note_on_c, 0, 59, 75
1, 119370, Note_on_c, 0, 50, 61
1, 119375, Note_on_c, 0, 53, 64
1, 119425, Note_off_c, 0, 59, 62
1, 119461, Note_on_c, 0, 68, 73
1, 119506, Note_off_c, 0, 50, 61
1, 119506, Note_off_c, 0, 68, 56
1, 119547, Note_on_c, 0, 60, 84
1, 119585, Note_off_c, 0, 53, 51
1, 119612, Note_off_c, 0, 60, 62
1, 119660, Note_on_c, 0, 72, 77
1, 119741, Note_on_c, 0, 60, 76
1, 119741, Note_off_c, 0, 72, 54
1, 119752, Note_on_c, 0, 51, 67
1, 119758, Note_on_c, 0, 55, 68
1, 119800, Note_off_c, 0, 60, 61
1, 119841, Note_on_c, 0, 72, 81
1, 119882, Note_off_c, 0, 51, 52
1, 119883, Note_off_c, 0, 72, 57
1, 119923, Note_off_c, 0, 55, 55
1, 119931, Note_on_c, 0, 59, 81
1, 119991, Note_off_c, 0, 59, 59
1, 120025, Note_on_c, 0, 71, 73
1, 120088, Note_off_c, 0, 71, 61
1, 120108, Note_on_c, 0, 59, 78
1, 120115, Note_on_c, 0, 53, 70
1, 120123, Note_on_c, 0, 50, 64
1, 120165, Note_off_c, 0, 59, 64
1, 120202, Note_on_c, 0, 71, 71
1, 120220, Note_off_c, 0, 50, 56
1, 120275, Note_off_c, 0, 71, 63
1, 120301, Note_on_c, 0, 60, 88
1, 120307, Note_off_c, 0, 53, 47
1, 120359, Note_off_c, 0, 60, 60
1, 120411, Note_on_c, 0, 72, 83
1, 120497, Note_on_c, 0, 55, 74
1, 120500, Note_on_c, 0, 60, 84
1, 120500, Note_on_c, 0, 51, 71
1, 120516, Note_off_c, 0, 72, 61
1, 120554, Note_off_c, 0, 60, 61
1, 120595, Note_on_c, 0, 72, 77
1, 120654, Note_off_c, 0, 72, 64
1, 120657, Note_off_c, 0, 51, 54
1, 120684, Note_on_c, 0, 61, 87
1, 120703, Note_off_c, 0, 55, 60
1, 120748, Note_off_c, 0, 61, 61
1, 120781, Note_on_c, 0, 73, 75
1, 120863, Note_on_c, 0, 61, 89
1, 120873, Note_on_c, 0, 55, 73
1, 120882, Note_on_c, 0, 52, 64
1, 120882, Note_off_c, 0, 73, 58
1, 120933, Note_off_c, 0, 61, 61
1, 120966, Note_on_c, 0, 73, 68
1, 121031, Note_off_c, 0, 52, 53
1, 121057, Note_on_c, 0, 62, 85
1, 121057, Note_off_c, 0, 73, 57
1, 121106, Note_off_c, 0, 55, 59
1, 121117, Note_off_c, 0, 62, 59
1, 121165, Note_on_c, 0, 74, 70
1, 121253, Note_on_c, 0, 57, 78
1, 121256, Note_on_c, 0, 53, 71
1, 121257, Note_on_c, 0, 62, 85
1, 121274, Note_off_c, 0, 74, 63
1, 121297, Note_off_c, 0, 62, 64
1, 121347, Note_on_c, 0, 74, 61
1, 121405, Note_off_c, 0, 53, 52
1, 121427, Note_off_c, 0, 74, 63
1, 121443, Note_on_c, 0, 61, 90
1, 121444, Note_off_c, 0, 57, 54
1, 121506, Note_off_c, 0, 61, 60
1, 121535, Note_on_c, 0, 73, 80
1, 121623, Note_on_c, 0, 61, 94
1, 121628, Note_on_c, 0, 55, 78
1, 121636, Note_on_c, 0, 52, 71
1, 121648, Note_off_c, 0, 73, 63
1, 121702, Note_off_c, 0, 61, 60
1, 121724, Note_on_c, 0, 73, 71
1, 121774, Note_off_c, 0, 52, 55
1, 121816, Note_on_c, 0, 62, 89
1, 121826, Note_off_c, 0, 73, 55
1, 121892, Note_off_c, 0, 55, 31
1, 121894, Note_off_c, 0, 62, 55
1, 121923, Note_on_c, 0, 74, 72
1, 122006, Control_c, 0, 64, 45
1, 122009, Note_on_c, 0, 53, 74
1, 122009, Note_on_c, 0, 57, 81
1, 122010, Note_on_c, 0, 62, 87
1, 122021, Control_c, 0, 64, 62
1, 122029, Note_off_c, 0, 74, 64
1, 122035, Control_c, 0, 64, 66
1, 122050, Control_c, 0, 64, 73
1, 122065, Control_c, 0, 64, 81
1, 122071, Note_off_c, 0, 62, 59
1, 122080, Control_c, 0, 64, 86
1, 122095, Control_c, 0, 64, 88
1, 122106, Note_on_c, 0, 74, 70
1, 122107, Note_off_c, 0, 53, 60
1, 122111, Control_c, 0, 64, 88
1, 122140, Control_c, 0, 64, 89
1, 122174, Note_off_c, 0, 74, 63
1, 122184, Control_c, 0, 64, 87
1, 122199, Control_c, 0, 64, 82
1, 122202, Note_on_c, 0, 63, 91
1, 122214, Control_c, 0, 64, 74
1, 122219, Note_off_c, 0, 57, 45
1, 122229, Control_c, 0, 64, 66
1, 122244, Control_c, 0, 64, 60
1, 122259, Control_c, 0, 64, 62
1, 122274, Control_c, 0, 64, 66
1, 122276, Note_off_c, 0, 63, 63
1, 122289, Control_c, 0, 64, 72
1, 122290, Note_on_c, 0, 75, 78
1, 122304, Control_c, 0, 64, 79
1, 122319, Control_c, 0, 64, 83
1, 122333, Control_c, 0, 64, 84
1, 122363, Control_c, 0, 64, 83
1, 122377, Note_on_c, 0, 63, 97
1, 122377, Control_c, 0, 64, 77
1, 122384, Note_on_c, 0, 53, 76
1, 122384, Note_on_c, 0, 57, 83
1, 122392, Control_c, 0, 64, 69
1, 122407, Control_c, 0, 64, 64
1, 122408, Note_off_c, 0, 75, 62
1, 122422, Control_c, 0, 64, 65
1, 122437, Control_c, 0, 64, 70
1, 122452, Control_c, 0, 64, 76
1, 122466, Control_c, 0, 64, 81
1, 122479, Note_off_c, 0, 53, 61
1, 122481, Control_c, 0, 64, 83
1, 122485, Note_off_c, 0, 63, 60
1, 122487, Note_on_c, 0, 75, 70
1, 122496, Control_c, 0, 64, 85
1, 122511, Control_c, 0, 64, 86
1, 122525, Control_c, 0, 64, 88
1, 122540, Control_c, 0, 64, 90
1, 122555, Control_c, 0, 64, 91
1, 122569, Control_c, 0, 64, 92
1, 122599, Control_c, 0, 64, 91
1, 122605, Note_off_c, 0, 75, 62
1, 122606, Note_off_c, 0, 57, 61
1, 122614, Control_c, 0, 64, 86
1, 122617, Note_on_c, 0, 56, 80
1, 122617, Note_on_c, 0, 52, 78
1, 122629, Note_on_c, 0, 59, 85
1, 122632, Note_on_c, 0, 64, 97
1, 122637, Control_c, 0, 64, 76
1, 122651, Control_c, 0, 64, 64
1, 122666, Control_c, 0, 64, 0
1, 122725, Control_c, 0, 64, 61
1, 122727, Note_off_c, 0, 64, 60
1, 122740, Control_c, 0, 64, 68
1, 122754, Note_on_c, 0, 76, 69
1, 122755, Control_c, 0, 64, 76
1, 122770, Control_c, 0, 64, 83
1, 122784, Control_c, 0, 64, 88
1, 122799, Control_c, 0, 64, 90
1, 122814, Control_c, 0, 64, 91
1, 122829, Control_c, 0, 64, 93
1, 122835, Note_off_c, 0, 52, 59
1, 122836, Note_off_c, 0, 59, 61
1, 122844, Control_c, 0, 64, 95
1, 122846, Note_on_c, 0, 64, 87
1, 122858, Control_c, 0, 64, 97
1, 122859, Note_off_c, 0, 76, 61
1, 122873, Control_c, 0, 64, 99
1, 122879, Note_off_c, 0, 56, 63
1, 122888, Control_c, 0, 64, 101
1, 122904, Control_c, 0, 64, 104
1, 122914, Note_off_c, 0, 64, 64
1, 122919, Control_c, 0, 64, 105
1, 122934, Control_c, 0, 64, 107
1, 122948, Control_c, 0, 64, 108
1, 122956, Note_on_c, 0, 76, 75
1, 122963, Control_c, 0, 64, 109
1, 122993, Control_c, 0, 64, 109
1, 123028, Note_on_c, 0, 64, 89
1, 123062, Note_off_c, 0, 76, 60
1, 123109, Note_off_c, 0, 64, 59
1, 123141, Control_c, 0, 64, 109
1, 123147, Note_on_c, 0, 76, 68
1, 123156, Control_c, 0, 64, 100
1, 123171, Control_c, 0, 64, 86
1, 123186, Control_c, 0, 64, 67
1, 123200, Control_c, 0, 64, 0
1, 123207, Note_on_c, 0, 62, 80
1, 123225, Note_on_c, 0, 64, 86
1, 123247, Note_off_c, 0, 76, 58
1, 123274, Control_c, 0, 64, 63
1, 123289, Control_c, 0, 64, 71
1, 123304, Control_c, 0, 64, 81
1, 123309, Note_off_c, 0, 64, 60
1, 123318, Control_c, 0, 64, 88
1, 123333, Control_c, 0, 64, 91
1, 123344, Note_on_c, 0, 76, 78
1, 123348, Control_c, 0, 64, 93
1, 123363, Control_c, 0, 64, 94
1, 123386, Control_c, 0, 64, 96
1, 123400, Control_c, 0, 64, 98
1, 123415, Control_c, 0, 64, 100
1, 123427, Note_on_c, 0, 68, 108
1, 123430, Control_c, 0, 64, 102
1, 123432, Note_on_c, 0, 64, 89
1, 123445, Control_c, 0, 64, 104
1, 123459, Note_off_c, 0, 76, 59
1, 123460, Control_c, 0, 64, 107
1, 123474, Control_c, 0, 64, 110
1, 123481, Note_off_c, 0, 62, 56
1, 123489, Control_c, 0, 64, 113
1, 123497, Note_off_c, 0, 68, 60
1, 123504, Control_c, 0, 64, 116
1, 123508, Note_off_c, 0, 64, 60
1, 123519, Control_c, 0, 64, 119
1, 123533, Control_c, 0, 64, 122
1, 123544, Note_on_c, 0, 76, 72
1, 123548, Control_c, 0, 64, 127
1, 123636, Note_on_c, 0, 64, 82
1, 123649, Note_off_c, 0, 76, 60
1, 123699, Note_off_c, 0, 64, 63
1, 123743, Note_on_c, 0, 76, 77
1, 123816, Control_c, 0, 64, 112
1, 123821, Note_on_c, 0, 64, 87
1, 123830, Control_c, 0, 64, 93
1, 123845, Note_off_c, 0, 76, 60
1, 123845, Control_c, 0, 64, 75
1, 123860, Control_c, 0, 64, 38
1, 123875, Control_c, 0, 64, 0
1, 123894, Note_off_c, 0, 64, 61
1, 123919, Control_c, 0, 64, 62
1, 123934, Control_c, 0, 64, 69
1, 123937, Note_on_c, 0, 76, 73
1, 123949, Control_c, 0, 64, 77
1, 123964, Control_c, 0, 64, 86
1, 123979, Control_c, 0, 64, 91
1, 123994, Control_c, 0, 64, 93
1, 124000, Note_on_c, 0, 60, 80
1, 124009, Control_c, 0, 64, 95
1, 124011, Note_on_c, 0, 64, 90
1, 124023, Control_c, 0, 64, 98
1, 124035, Note_off_c, 0, 76, 57
1, 124038, Control_c, 0, 64, 100
1, 124053, Control_c, 0, 64, 103
1, 124068, Control_c, 0, 64, 104
1, 124083, Control_c, 0, 64, 105
1, 124083, Note_off_c, 0, 64, 62
1, 124097, Control_c, 0, 64, 106
1, 124112, Control_c, 0, 64, 107
1, 124134, Control_c, 0, 64, 107
1, 124140, Note_on_c, 0, 76, 72
1, 124149, Control_c, 0, 64, 108
1, 124164, Control_c, 0, 64, 109
1, 124179, Control_c, 0, 64, 111
1, 124194, Control_c, 0, 64, 114
1, 124209, Control_c, 0, 64, 118
1, 124217, Note_on_c, 0, 69, 95
1, 124223, Control_c, 0, 64, 126
1, 124225, Note_on_c, 0, 64, 97
1, 124238, Control_c, 0, 64, 127
1, 124241, Note_off_c, 0, 76, 42
1, 124257, Note_off_c, 0, 69, 64
1, 124259, Note_off_c, 0, 60, 59
1, 124286, Note_off_c, 0, 64, 65
1, 124332, Note_on_c, 0, 76, 71
1, 124355, Poly_aftertouch_c, 0, 74, 127
1, 124403, Note_off_c, 0, 76, 63
1, 124418, Note_on_c, 0, 64, 82
1, 124471, Note_off_c, 0, 64, 63
1, 124489, Poly_aftertouch_c, 0, 74, 0
1, 124515, Note_on_c, 0, 76, 72
1, 124527, Poly_aftertouch_c, 0, 74, 127
1, 124587, Note_off_c, 0, 76, 64
1, 124594, Control_c, 0, 64, 102
1, 124598, Note_on_c, 0, 64, 92
1, 124609, Control_c, 0, 64, 83
1, 124624, Control_c, 0, 64, 66
1, 124639, Control_c, 0, 64, 0
1, 124671, Note_off_c, 0, 64, 62
1, 124683, Control_c, 0, 64, 61
1, 124698, Control_c, 0, 64, 68
1, 124703, Note_on_c, 0, 76, 73
1, 124713, Control_c, 0, 64, 75
1, 124727, Control_c, 0, 64, 85
1, 124742, Control_c, 0, 64, 93
1, 124757, Control_c, 0, 64, 98
1, 124772, Control_c, 0, 64, 103
1, 124781, Note_on_c, 0, 64, 94
1, 124787, Control_c, 0, 64, 109
1, 124788, Note_on_c, 0, 44, 74
1, 124790, Note_on_c, 0, 47, 69
1, 124802, Note_off_c, 0, 76, 61
1, 124802, Control_c, 0, 64, 114
1, 124817, Control_c, 0, 64, 121
1, 124829, Note_off_c, 0, 47, 63
1, 124832, Control_c, 0, 64, 127
1, 124853, Note_off_c, 0, 44, 60
1, 124875, Note_off_c, 0, 64, 62
1, 124901, Note_on_c, 0, 76, 78
1, 124987, Note_off_c, 0, 76, 60
1, 124988, Note_on_c, 0, 62, 91
1, 124989, Note_on_c, 0, 59, 83
1, 124991, Note_on_c, 0, 64, 93
1, 125037, Note_off_c, 0, 59, 62
1, 125041, Note_off_c, 0, 62, 61
1, 125063, Note_off_c, 0, 64, 60
1, 125098, Note_on_c, 0, 76, 71
1, 125177, Note_off_c, 0, 76, 63
1, 125195, Note_on_c, 0, 64, 80
1, 125261, Note_off_c, 0, 64, 62
1, 125278, Poly_aftertouch_c, 0, 74, 0
1, 125292, Note_on_c, 0, 76, 76
1, 125316, Poly_aftertouch_c, 0, 74, 127
1, 125383, Note_on_c, 0, 64, 93
1, 125396, Note_off_c, 0, 76, 53
1, 125447, Control_c, 0, 64, 114
1, 125453, Note_off_c, 0, 64, 61
1, 125462, Control_c, 0, 64, 96
1, 125476, Control_c, 0, 64, 75
1, 125490, Note_on_c, 0, 76, 75
1, 125491, Control_c, 0, 64, 0
1, 125550, Control_c, 0, 64, 52
1, 125565, Control_c, 0, 64, 69
1, 125568, Note_on_c, 0, 48, 83
1, 125570, Note_on_c, 0, 45, 78
1, 125572, Note_on_c, 0, 64, 92
1, 125580, Control_c, 0, 64, 84
1, 125589, Note_off_c, 0, 76, 59
1, 125595, Control_c, 0, 64, 101
1, 125610, Control_c, 0, 64, 112
1, 125626, Note_off_c, 0, 48, 63
1, 125632, Control_c, 0, 64, 116
1, 125637, Note_off_c, 0, 45, 62
1, 125647, Control_c, 0, 64, 117
1, 125662, Control_c, 0, 64, 117
1, 125666, Note_off_c, 0, 64, 61
1, 125676, Control_c, 0, 64, 118
1, 125681, Poly_aftertouch_c, 0, 74, 0
1, 125689, Note_on_c, 0, 76, 79
1, 125691, Control_c, 0, 64, 119
1, 125706, Control_c, 0, 64, 119
1, 125719, Poly_aftertouch_c, 0, 74, 127
1, 125720, Control_c, 0, 64, 121
1, 125735, Control_c, 0, 64, 124
1, 125750, Control_c, 0, 64, 127
1, 125774, Note_on_c, 0, 60, 91
1, 125775, Note_on_c, 0, 57, 88
1, 125776, Note_on_c, 0, 64, 96
1, 125796, Note_off_c, 0, 76, 63
1, 125809, Note_off_c, 0, 57, 56
1, 125818, Note_off_c, 0, 60, 61
1, 125855, Note_off_c, 0, 64, 61
1, 125889, Note_on_c, 0, 76, 73
1, 125979, Note_off_c, 0, 76, 56
1, 125987, Note_on_c, 0, 64, 84
1, 126054, Note_off_c, 0, 64, 63
1, 126075, Poly_aftertouch_c, 0, 74, 0
1, 126081, Note_on_c, 0, 76, 81
1, 126113, Poly_aftertouch_c, 0, 74, 127
1, 126171, Note_on_c, 0, 64, 94
1, 126191, Note_off_c, 0, 76, 64
1, 126197, Control_c, 0, 64, 118
1, 126212, Control_c, 0, 64, 99
1, 126226, Control_c, 0, 64, 86
1, 126241, Control_c, 0, 64, 74
1, 126244, Note_off_c, 0, 64, 61
1, 126247, Poly_aftertouch_c, 0, 74, 0
1, 126256, Control_c, 0, 64, 66
1, 126271, Note_on_c, 0, 76, 78
1, 126271, Control_c, 0, 64, 64
1, 126284, Poly_aftertouch_c, 0, 74, 127
1, 126286, Control_c, 0, 64, 68
1, 126300, Control_c, 0, 64, 75
1, 126315, Control_c, 0, 64, 86
1, 126330, Control_c, 0, 64, 98
1, 126341, Note_on_c, 0, 36, 87
1, 126343, Note_on_c, 0, 48, 92
1, 126344, Control_c, 0, 64, 106
1, 126359, Control_c, 0, 64, 112
1, 126361, Note_on_c, 0, 64, 99
1, 126377, Note_off_c, 0, 36, 67
1, 126382, Control_c, 0, 64, 117
1, 126389, Note_off_c, 0, 76, 63
1, 126396, Control_c, 0, 64, 126
1, 126411, Control_c, 0, 64, 127
1, 126413, Note_off_c, 0, 48, 61
1, 126450, Note_off_c, 0, 64, 59
1, 126507, Note_on_c, 0, 76, 73
1, 126629, Note_on_c, 0, 46, 86
1, 126630, Note_on_c, 0, 58, 95
1, 126644, Note_on_c, 0, 67, 93
1, 126648, Control_c, 0, 64, 112
1, 126661, Note_off_c, 0, 76, 48
1, 126663, Control_c, 0, 64, 88
1, 126677, Control_c, 0, 64, 65
1, 126692, Control_c, 0, 64, 0
1, 126737, Control_c, 0, 64, 61
1, 126751, Control_c, 0, 64, 72
1, 126758, Note_off_c, 0, 67, 62
1, 126759, Note_on_c, 0, 76, 79
1, 126766, Control_c, 0, 64, 86
1, 126781, Control_c, 0, 64, 105
1, 126796, Control_c, 0, 64, 112
1, 126811, Control_c, 0, 64, 115
1, 126825, Control_c, 0, 64, 118
1, 126840, Control_c, 0, 64, 127
1, 126857, Note_on_c, 0, 67, 87
1, 126861, Note_off_c, 0, 76, 61
1, 126913, Poly_aftertouch_c, 0, 74, 0
1, 126927, Note_off_c, 0, 67, 62
1, 126946, Note_on_c, 0, 76, 81
1, 126978, Note_off_c, 0, 46, 58
1, 127031, Note_on_c, 0, 67, 81
1, 127039, Note_off_c, 0, 76, 62
1, 127103, Note_off_c, 0, 67, 62
1, 127123, Note_off_c, 0, 58, 51
1, 127133, Note_on_c, 0, 76, 77
1, 127216, Note_on_c, 0, 67, 79
1, 127228, Note_off_c, 0, 76, 64
1, 127273, Note_off_c, 0, 67, 63
1, 127310, Note_on_c, 0, 76, 75
1, 127400, Note_on_c, 0, 47, 52
1, 127455, Control_c, 0, 64, 105
1, 127461, Note_on_c, 0, 66, 83
1, 127461, Note_on_c, 0, 75, 83
1, 127470, Control_c, 0, 64, 88
1, 127485, Control_c, 0, 64, 68
1, 127485, Control_c, 0, 67, 8
1, 127493, Note_off_c, 0, 76, 60
1, 127499, Control_c, 0, 64, 0
1, 127499, Control_c, 0, 67, 9
1, 127514, Control_c, 0, 67, 9
1, 127559, Control_c, 0, 67, 10
1, 127562, Note_off_c, 0, 47, 48
1, 127574, Control_c, 0, 67, 10
1, 127577, Note_on_c, 0, 59, 47
1, 127589, Control_c, 0, 64, 32
1, 127589, Control_c, 0, 67, 11
1, 127604, Control_c, 0, 64, 54
1, 127604, Control_c, 0, 67, 12
1, 127618, Control_c, 0, 64, 63
1, 127618, Control_c, 0, 67, 13
1, 127631, Note_off_c, 0, 59, 57
1, 127633, Control_c, 0, 64, 66
1, 127633, Control_c, 0, 67, 13
1, 127648, Control_c, 0, 64, 71
1, 127648, Control_c, 0, 67, 14
1, 127663, Control_c, 0, 64, 77
1, 127676, Note_on_c, 0, 47, 40
1, 127678, Control_c, 0, 64, 84
1, 127678, Control_c, 0, 67, 15
1, 127693, Control_c, 0, 64, 87
1, 127693, Control_c, 0, 67, 16
1, 127708, Control_c, 0, 64, 90
1, 127708, Control_c, 0, 67, 17
1, 127723, Control_c, 0, 64, 92
1, 127723, Control_c, 0, 67, 18
1, 127735, Note_off_c, 0, 47, 47
1, 127738, Control_c, 0, 64, 95
1, 127738, Control_c, 0, 67, 20
1, 127753, Control_c, 0, 64, 98
1, 127753, Control_c, 0, 67, 22
1, 127763, Note_on_c, 0, 59, 46
1, 127768, Control_c, 0, 64, 100
1, 127768, Control_c, 0, 67, 24
1, 127783, Control_c, 0, 64, 102
1, 127783, Control_c, 0, 67, 27
1, 127797, Control_c, 0, 64, 103
1, 127797, Control_c, 0, 67, 29
1, 127812, Control_c, 0, 64, 104
1, 127812, Control_c, 0, 67, 31
1, 127820, Note_off_c, 0, 59, 60
1, 127827, Control_c, 0, 64, 105
1, 127827, Control_c, 0, 67, 33
1, 127842, Control_c, 0, 64, 106
1, 127842, Control_c, 0, 67, 36
1, 127857, Control_c, 0, 64, 106
1, 127857, Control_c, 0, 67, 39
1, 127872, Note_off_c, 0, 66, 58
1, 127878, Note_on_c, 0, 47, 37
1, 127878, Control_c, 0, 64, 107
1, 127878, Control_c, 0, 67, 43
1, 127893, Control_c, 0, 67, 47
1, 127908, Control_c, 0, 64, 107
1, 127908, Control_c, 0, 67, 50
1, 127923, Control_c, 0, 67, 54
1, 127929, Note_off_c, 0, 47, 43
1, 127938, Control_c, 0, 64, 108
1, 127938, Control_c, 0, 67, 58
1, 127953, Note_on_c, 0, 59, 46
1, 127953, Control_c, 0, 67, 61
1, 127967, Control_c, 0, 67, 63
1, 127982, Control_c, 0, 67, 66
1, 127997, Control_c, 0, 67, 69
1, 128012, Control_c, 0, 67, 73
1, 128018, Note_off_c, 0, 59, 56
1, 128027, Control_c, 0, 67, 76
1, 128041, Control_c, 0, 67, 80
1, 128054, Note_on_c, 0, 47, 35
1, 128056, Control_c, 0, 67, 83
1, 128071, Control_c, 0, 67, 86
1, 128086, Control_c, 0, 67, 88
1, 128101, Control_c, 0, 67, 91
1, 128115, Control_c, 0, 67, 95
1, 128129, Note_off_c, 0, 47, 35
1, 128130, Control_c, 0, 67, 99
1, 128145, Control_c, 0, 67, 104
1, 128147, Note_on_c, 0, 59, 46
1, 128160, Control_c, 0, 67, 109
1, 128175, Control_c, 0, 67, 113
1, 128189, Control_c, 0, 67, 116
1, 128204, Control_c, 0, 64, 107
1, 128204, Control_c, 0, 67, 119
1, 128212, Note_off_c, 0, 59, 56
1, 128219, Control_c, 0, 64, 104
1, 128219, Control_c, 0, 67, 122
1, 128234, Control_c, 0, 64, 98
1, 128234, Control_c, 0, 67, 126
1, 128241, Note_on_c, 0, 78, 71
1, 128246, Note_on_c, 0, 69, 56
1, 128248, Note_on_c, 0, 47, 41
1, 128248, Control_c, 0, 64, 89
1, 128248, Control_c, 0, 67, 127
1, 128263, Control_c, 0, 64, 80
1, 128278, Control_c, 0, 64, 66
1, 128280, Note_off_c, 0, 75, 57
1, 128293, Control_c, 0, 64, 0
1, 128328, Note_off_c, 0, 47, 35
1, 128356, Note_on_c, 0, 59, 42
1, 128412, Control_c, 0, 64, 45
1, 128421, Note_off_c, 0, 59, 58
1, 128426, Control_c, 0, 64, 59
1, 128441, Control_c, 0, 64, 64
1, 128456, Control_c, 0, 64, 67
1, 128459, Note_on_c, 0, 47, 32
1, 128471, Control_c, 0, 64, 71
1, 128486, Control_c, 0, 64, 78
1, 128501, Control_c, 0, 64, 82
1, 128511, Note_off_c, 0, 47, 42
1, 128516, Control_c, 0, 64, 85
1, 128531, Control_c, 0, 64, 87
1, 128546, Control_c, 0, 64, 88
1, 128550, Note_on_c, 0, 59, 41
1, 128556, Note_off_c, 0, 69, 36
1, 128561, Control_c, 0, 64, 89
1, 128576, Control_c, 0, 64, 91
1, 128590, Control_c, 0, 64, 92
1, 128605, Control_c, 0, 64, 93
1, 128608, Note_off_c, 0, 59, 57
1, 128627, Control_c, 0, 64, 94
1, 128642, Control_c, 0, 64, 94
1, 128652, Note_on_c, 0, 47, 36
1, 128657, Control_c, 0, 64, 95
1, 128671, Control_c, 0, 64, 96
1, 128701, Control_c, 0, 64, 96
1, 128716, Control_c, 0, 64, 97
1, 128720, Note_off_c, 0, 47, 39
1, 128731, Control_c, 0, 64, 97
1, 128734, Note_on_c, 0, 59, 47
1, 128760, Control_c, 0, 64, 98
1, 128781, Note_off_c, 0, 78, 58
1, 128806, Note_off_c, 0, 59, 54
1, 128835, Control_c, 0, 64, 98
1, 128854, Note_on_c, 0, 47, 35
1, 128903, Note_off_c, 0, 47, 43
1, 128941, Note_on_c, 0, 59, 46
1, 128983, Control_c, 0, 64, 98
1, 128998, Control_c, 0, 64, 97
1, 129012, Note_on_c, 0, 78, 75
1, 129012, Note_off_c, 0, 59, 48
1, 129013, Control_c, 0, 64, 95
1, 129020, Note_on_c, 0, 68, 63
1, 129027, Control_c, 0, 64, 90
1, 129041, Note_on_c, 0, 47, 37
1, 129042, Control_c, 0, 64, 83
1, 129057, Control_c, 0, 64, 74
1, 129071, Control_c, 0, 64, 58
1, 129086, Control_c, 0, 64, 0
1, 129091, Note_off_c, 0, 47, 42
1, 129145, Control_c, 0, 64, 52
1, 129153, Note_on_c, 0, 59, 37
1, 129160, Control_c, 0, 64, 63
1, 129175, Control_c, 0, 64, 67
1, 129190, Control_c, 0, 64, 72
1, 129194, Note_off_c, 0, 59, 63
1, 129204, Control_c, 0, 64, 78
1, 129219, Control_c, 0, 64, 82
1, 129231, Note_on_c, 0, 47, 36
1, 129234, Control_c, 0, 64, 85
1, 129249, Control_c, 0, 64, 87
1, 129264, Control_c, 0, 64, 88
1, 129279, Control_c, 0, 64, 89
1, 129294, Control_c, 0, 64, 90
1, 129296, Note_off_c, 0, 47, 38
1, 129309, Control_c, 0, 64, 91
1, 129324, Control_c, 0, 64, 92
1, 129328, Note_on_c, 0, 59, 39
1, 129339, Control_c, 0, 64, 93
1, 129354, Control_c, 0, 64, 93
1, 129376, Control_c, 0, 64, 94
1, 129406, Control_c, 0, 64, 94
1, 129407, Note_off_c, 0, 59, 58
1, 129431, Note_off_c, 0, 78, 49
1, 129450, Note_on_c, 0, 47, 43
1, 129465, Control_c, 0, 64, 95
1, 129494, Note_off_c, 0, 47, 46
1, 129542, Note_on_c, 0, 59, 38
1, 129606, Note_off_c, 0, 59, 49
1, 129620, Note_on_c, 0, 47, 51
1, 129677, Note_off_c, 0, 47, 51
1, 129731, Note_on_c, 0, 59, 44
1, 129781, Note_off_c, 0, 59, 57
1, 129807, Note_on_c, 0, 77, 73
1, 129807, Control_c, 0, 64, 94
1, 129807, Note_on_c, 0, 47, 53
1, 129821, Control_c, 0, 64, 92
1, 129836, Control_c, 0, 64, 88
1, 129851, Control_c, 0, 64, 80
1, 129866, Control_c, 0, 64, 72
1, 129875, Note_off_c, 0, 47, 43
1, 129881, Control_c, 0, 64, 61
1, 129895, Control_c, 0, 64, 52
1, 129908, Note_on_c, 0, 59, 44
1, 129910, Control_c, 0, 64, 59
1, 129925, Control_c, 0, 64, 64
1, 129940, Control_c, 0, 64, 68
1, 129955, Control_c, 0, 64, 72
1, 129959, Note_off_c, 0, 59, 61
1, 129969, Control_c, 0, 64, 78
1, 129984, Control_c, 0, 64, 81
1, 129995, Note_on_c, 0, 47, 52
1, 129999, Control_c, 0, 64, 83
1, 130013, Control_c, 0, 64, 83
1, 130028, Control_c, 0, 64, 84
1, 130043, Control_c, 0, 64, 84
1, 130052, Note_off_c, 0, 47, 49
1, 130058, Control_c, 0, 64, 85
1, 130068, Note_off_c, 0, 68, 29
1, 130073, Control_c, 0, 64, 86
1, 130078, Note_on_c, 0, 59, 48
1, 130089, Control_c, 0, 64, 87
1, 130104, Control_c, 0, 64, 87
1, 130126, Control_c, 0, 64, 88
1, 130155, Control_c, 0, 64, 88
1, 130161, Note_off_c, 0, 59, 60
1, 130170, Control_c, 0, 64, 89
1, 130185, Control_c, 0, 64, 89
1, 130186, Note_on_c, 0, 47, 54
1, 130194, Note_on_c, 0, 76, 65
1, 130222, Note_off_c, 0, 77, 54
1, 130230, Control_c, 0, 64, 90
1, 130261, Note_off_c, 0, 47, 43
1, 130288, Note_on_c, 0, 59, 49
1, 130342, Note_off_c, 0, 59, 53
1, 130365, Note_on_c, 0, 47, 45
1, 130430, Note_off_c, 0, 47, 48
1, 130434, Note_off_c, 0, 76, 59
1, 130467, Note_on_c, 0, 59, 51
1, 130507, Note_off_c, 0, 59, 64
1, 130525, Control_c, 0, 64, 89
1, 130540, Control_c, 0, 64, 88
1, 130555, Note_on_c, 0, 76, 70
1, 130555, Control_c, 0, 64, 86
1, 130560, Note_on_c, 0, 48, 54
1, 130564, Note_on_c, 0, 67, 59
1, 130570, Control_c, 0, 64, 83
1, 130585, Control_c, 0, 64, 80
1, 130600, Control_c, 0, 64, 76
1, 130614, Control_c, 0, 64, 72
1, 130615, Note_off_c, 0, 48, 56
1, 130629, Control_c, 0, 64, 68
1, 130644, Control_c, 0, 64, 64
1, 130659, Control_c, 0, 64, 61
1, 130665, Note_on_c, 0, 57, 49
1, 130674, Control_c, 0, 64, 57
1, 130689, Control_c, 0, 64, 54
1, 130704, Control_c, 0, 64, 52
1, 130714, Note_off_c, 0, 57, 59
1, 130718, Control_c, 0, 64, 50
1, 130733, Control_c, 0, 64, 47
1, 130748, Control_c, 0, 64, 44
1, 130751, Note_on_c, 0, 48, 45
1, 130762, Control_c, 0, 64, 42
1, 130777, Control_c, 0, 64, 41
1, 130802, Note_off_c, 0, 48, 58
1, 130836, Note_on_c, 0, 57, 48
1, 130904, Control_c, 0, 64, 42
1, 130919, Control_c, 0, 64, 42
1, 130921, Note_off_c, 0, 57, 58
1, 130934, Control_c, 0, 64, 43
1, 130943, Note_on_c, 0, 48, 53
1, 130948, Control_c, 0, 64, 44
1, 130963, Control_c, 0, 64, 45
1, 130978, Control_c, 0, 64, 46
1, 130993, Control_c, 0, 64, 47
1, 131002, Note_off_c, 0, 48, 58
1, 131008, Control_c, 0, 64, 47
1, 131023, Control_c, 0, 64, 48
1, 131038, Control_c, 0, 67, 126
1, 131045, Note_on_c, 0, 57, 55
1, 131053, Control_c, 0, 67, 120
1, 131067, Control_c, 0, 67, 110
1, 131082, Control_c, 0, 67, 99
1, 131097, Control_c, 0, 67, 85
1, 131112, Control_c, 0, 67, 70
1, 131115, Note_off_c, 0, 57, 62
1, 131126, Note_on_c, 0, 48, 55
1, 131127, Control_c, 0, 67, 54
1, 131141, Control_c, 0, 67, 37
1, 131156, Control_c, 0, 67, 20
1, 131171, Control_c, 0, 67, 0
1, 131199, Note_off_c, 0, 48, 62
1, 131215, Control_c, 0, 64, 47
1, 131230, Control_c, 0, 64, 46
1, 131235, Note_on_c, 0, 57, 55
1, 131245, Control_c, 0, 64, 46
1, 131259, Control_c, 0, 64, 45
1, 131272, Note_off_c, 0, 57, 64
1, 131274, Control_c, 0, 64, 44
1, 131289, Control_c, 0, 64, 43
1, 131307, Note_on_c, 0, 49, 64
1, 131318, Control_c, 0, 64, 42
1, 131363, Control_c, 0, 64, 43
1, 131378, Control_c, 0, 64, 44
1, 131384, Note_off_c, 0, 49, 62
1, 131392, Control_c, 0, 64, 49
1, 131404, Note_on_c, 0, 58, 64
1, 131407, Control_c, 0, 64, 55
1, 131422, Control_c, 0, 64, 61
1, 131437, Control_c, 0, 64, 64
1, 131452, Control_c, 0, 64, 67
1, 131466, Control_c, 0, 64, 72
1, 131468, Note_off_c, 0, 58, 65
1, 131481, Control_c, 0, 64, 78
1, 131494, Note_on_c, 0, 49, 72
1, 131495, Note_off_c, 0, 76, 58
1, 131496, Control_c, 0, 64, 84
1, 131511, Control_c, 0, 64, 89
1, 131526, Control_c, 0, 64, 93
1, 131540, Control_c, 0, 64, 98
1, 131545, Note_off_c, 0, 67, 55
1, 131555, Control_c, 0, 64, 104
1, 131570, Control_c, 0, 64, 113
1, 131577, Note_off_c, 0, 49, 62
1, 131583, Note_on_c, 0, 58, 71
1, 131584, Control_c, 0, 64, 127
1, 131667, Note_off_c, 0, 58, 61
1, 131689, Note_on_c, 0, 49, 75
1, 131780, Note_on_c, 0, 58, 78
1, 131783, Note_off_c, 0, 49, 61
1, 131863, Note_off_c, 0, 58, 62
1, 131882, Note_on_c, 0, 49, 80
1, 131967, Note_on_c, 0, 58, 81
1, 131983, Note_off_c, 0, 49, 59
1, 132046, Note_off_c, 0, 58, 59
1, 132067, Control_c, 0, 64, 92
1, 132072, Note_on_c, 0, 71, 83
1, 132075, Note_on_c, 0, 67, 85
1, 132075, Note_on_c, 0, 74, 82
1, 132075, Note_on_c, 0, 62, 84
1, 132076, Note_on_c, 0, 50, 69
1, 132081, Control_c, 0, 64, 74
1, 132096, Control_c, 0, 64, 51
1, 132111, Control_c, 0, 64, 0
1, 132141, Control_c, 0, 64, 43
1, 132156, Control_c, 0, 64, 65
1, 132170, Control_c, 0, 64, 75
1, 132173, Note_off_c, 0, 50, 59
1, 132185, Control_c, 0, 64, 88
1, 132186, Note_on_c, 0, 59, 72
1, 132200, Control_c, 0, 64, 100
1, 132215, Control_c, 0, 64, 106
1, 132230, Control_c, 0, 64, 110
1, 132245, Control_c, 0, 64, 113
1, 132257, Note_off_c, 0, 59, 62
1, 132260, Control_c, 0, 64, 116
1, 132275, Control_c, 0, 64, 119
1, 132278, Note_on_c, 0, 50, 73
1, 132289, Control_c, 0, 64, 124
1, 132304, Control_c, 0, 64, 127
1, 132374, Note_on_c, 0, 59, 71
1, 132374, Note_off_c, 0, 62, 57
1, 132375, Note_off_c, 0, 50, 60
1, 132442, Note_off_c, 0, 67, 55
1, 132448, Note_off_c, 0, 59, 61
1, 132458, Note_off_c, 0, 71, 53
1, 132465, Poly_aftertouch_c, 0, 70, 127
1, 132470, Note_on_c, 0, 50, 75
1, 132517, Poly_aftertouch_c, 0, 70, 0
1, 132561, Note_on_c, 0, 59, 74
1, 132567, Note_off_c, 0, 50, 60
1, 132640, Note_off_c, 0, 59, 62
1, 132663, Note_on_c, 0, 50, 79
1, 132746, Note_on_c, 0, 59, 74
1, 132753, Note_off_c, 0, 74, 62
1, 132755, Note_off_c, 0, 50, 59
1, 132802, Control_c, 0, 64, 107
1, 132817, Control_c, 0, 64, 87
1, 132825, Note_on_c, 0, 66, 93
1, 132826, Note_off_c, 0, 59, 63
1, 132830, Note_on_c, 0, 62, 76
1, 132831, Control_c, 0, 64, 69
1, 132846, Control_c, 0, 64, 0
1, 132847, Note_on_c, 0, 50, 68
1, 132920, Control_c, 0, 64, 56
1, 132932, Note_off_c, 0, 50, 60
1, 132935, Control_c, 0, 64, 64
1, 132940, Note_on_c, 0, 57, 71
1, 132950, Control_c, 0, 64, 69
1, 132964, Control_c, 0, 64, 77
1, 132979, Control_c, 0, 64, 85
1, 132994, Control_c, 0, 64, 92
1, 133008, Note_off_c, 0, 57, 62
1, 133009, Control_c, 0, 64, 96
1, 133024, Control_c, 0, 64, 99
1, 133035, Note_on_c, 0, 50, 73
1, 133038, Control_c, 0, 64, 102
1, 133053, Control_c, 0, 64, 106
1, 133068, Control_c, 0, 64, 112
1, 133083, Control_c, 0, 64, 119
1, 133098, Control_c, 0, 64, 127
1, 133121, Note_off_c, 0, 50, 60
1, 133127, Note_on_c, 0, 57, 70
1, 133203, Note_off_c, 0, 57, 62
1, 133224, Note_on_c, 0, 72, 100
1, 133227, Note_on_c, 0, 50, 68
1, 133297, Note_off_c, 0, 50, 61
1, 133318, Note_on_c, 0, 57, 69
1, 133376, Note_off_c, 0, 57, 61
1, 133406, Note_on_c, 0, 50, 62
1, 133408, Note_off_c, 0, 66, 54
1, 133457, Note_off_c, 0, 50, 55
1, 133499, Note_on_c, 0, 57, 59
1, 133512, Note_off_c, 0, 72, 53
1, 133522, Note_off_c, 0, 62, 54
1, 133546, Note_off_c, 0, 57, 51
1, 133612, Note_on_c, 0, 43, 60
1, 133622, Note_on_c, 0, 72, 86
1, 133625, Control_c, 0, 64, 117
1, 133630, Note_on_c, 0, 65, 72
1, 133632, Note_on_c, 0, 62, 67
1, 133640, Control_c, 0, 64, 102
1, 133654, Control_c, 0, 64, 89
1, 133669, Control_c, 0, 64, 75
1, 133670, Note_off_c, 0, 43, 51
1, 133684, Control_c, 0, 64, 62
1, 133699, Control_c, 0, 64, 0
1, 133709, Note_on_c, 0, 55, 58
1, 133777, Note_off_c, 0, 55, 60
1, 133810, Note_on_c, 0, 43, 51
1, 133869, Control_c, 0, 64, 33
1, 133879, Note_off_c, 0, 43, 55
1, 133884, Control_c, 0, 64, 47
1, 133899, Control_c, 0, 64, 54
1, 133908, Note_on_c, 0, 55, 55
1, 133913, Control_c, 0, 64, 58
1, 133928, Control_c, 0, 64, 63
1, 133943, Control_c, 0, 64, 65
1, 133958, Control_c, 0, 64, 68
1, 133973, Control_c, 0, 64, 73
1, 133987, Control_c, 0, 64, 79
1, 133998, Note_off_c, 0, 55, 60
1, 134002, Control_c, 0, 64, 82
1, 134013, Note_on_c, 0, 43, 56
1, 134017, Control_c, 0, 64, 84
1, 134032, Control_c, 0, 64, 86
1, 134047, Control_c, 0, 64, 88
1, 134061, Control_c, 0, 64, 91
1, 134076, Control_c, 0, 64, 93
1, 134092, Control_c, 0, 64, 96
1, 134101, Note_off_c, 0, 43, 55
1, 134107, Control_c, 0, 64, 97
1, 134122, Note_on_c, 0, 55, 59
1, 134122, Control_c, 0, 64, 98
1, 134135, Note_off_c, 0, 72, 57
1, 134137, Control_c, 0, 64, 99
1, 134152, Control_c, 0, 64, 99
1, 134166, Control_c, 0, 64, 100
1, 134181, Control_c, 0, 64, 100
1, 134192, Note_off_c, 0, 55, 60
1, 134196, Control_c, 0, 64, 101
1, 134210, Control_c, 0, 64, 101
1, 134211, Note_on_c, 0, 43, 61
1, 134279, Note_off_c, 0, 43, 50
1, 134305, Note_on_c, 0, 55, 66
1, 134358, Control_c, 0, 64, 102
1, 134381, Note_on_c, 0, 71, 82
1, 134384, Note_off_c, 0, 55, 61
1, 134388, Control_c, 0, 64, 101
1, 134396, Note_on_c, 0, 43, 69
1, 134403, Control_c, 0, 64, 96
1, 134418, Control_c, 0, 64, 88
1, 134433, Control_c, 0, 64, 78
1, 134448, Control_c, 0, 64, 68
1, 134463, Control_c, 0, 64, 62
1, 134477, Note_on_c, 0, 55, 70
1, 134477, Control_c, 0, 64, 64
1, 134479, Note_off_c, 0, 43, 61
1, 134490, Note_off_c, 0, 62, 45
1, 134492, Control_c, 0, 64, 67
1, 134507, Control_c, 0, 64, 72
1, 134522, Control_c, 0, 64, 80
1, 134536, Control_c, 0, 64, 87
1, 134546, Note_off_c, 0, 65, 53
1, 134551, Control_c, 0, 64, 91
1, 134552, Note_off_c, 0, 55, 62
1, 134565, Note_on_c, 0, 43, 72
1, 134566, Control_c, 0, 64, 94
1, 134581, Control_c, 0, 64, 96
1, 134596, Control_c, 0, 64, 97
1, 134618, Control_c, 0, 64, 98
1, 134633, Control_c, 0, 64, 99
1, 134648, Control_c, 0, 64, 100
1, 134663, Control_c, 0, 64, 101
1, 134668, Note_on_c, 0, 55, 70
1, 134669, Note_off_c, 0, 43, 63
1, 134739, Note_off_c, 0, 55, 63
1, 134757, Note_on_c, 0, 44, 83
1, 134759, Note_on_c, 0, 62, 82
1, 134761, Note_on_c, 0, 64, 88
1, 134781, Control_c, 0, 64, 95
1, 134796, Control_c, 0, 64, 86
1, 134810, Control_c, 0, 64, 76
1, 134821, Poly_aftertouch_c, 0, 50, 127
1, 134825, Control_c, 0, 64, 66
1, 134840, Control_c, 0, 64, 58
1, 134847, Note_off_c, 0, 71, 35
1, 134852, Note_on_c, 0, 56, 79
1, 134855, Control_c, 0, 64, 62
1, 134857, Note_off_c, 0, 44, 61
1, 134870, Control_c, 0, 64, 66
1, 134886, Control_c, 0, 64, 71
1, 134901, Control_c, 0, 64, 78
1, 134915, Control_c, 0, 64, 84
1, 134928, Note_off_c, 0, 56, 63
1, 134930, Control_c, 0, 64, 87
1, 134941, Poly_aftertouch_c, 0, 50, 0
1, 134945, Control_c, 0, 64, 88
1, 134948, Note_on_c, 0, 44, 84
1, 134959, Control_c, 0, 64, 89
1, 134974, Control_c, 0, 64, 90
1, 134978, Poly_aftertouch_c, 0, 50, 127
1, 134989, Control_c, 0, 64, 92
1, 135004, Control_c, 0, 64, 93
1, 135019, Poly_aftertouch_c, 0, 50, 0
1, 135019, Control_c, 0, 64, 94
1, 135033, Control_c, 0, 64, 95
1, 135037, Note_on_c, 0, 56, 81
1, 135041, Note_off_c, 0, 64, 57
1, 135047, Control_c, 0, 64, 96
1, 135050, Note_off_c, 0, 62, 58
1, 135056, Note_off_c, 0, 44, 60
1, 135108, Note_off_c, 0, 56, 64
1, 135122, Control_c, 0, 64, 95
1, 135136, Control_c, 0, 64, 93
1, 135145, Note_on_c, 0, 71, 88
1, 135146, Note_on_c, 0, 64, 83
1, 135147, Note_on_c, 0, 45, 74
1, 135148, Note_on_c, 0, 60, 84
1, 135151, Control_c, 0, 64, 88
1, 135166, Control_c, 0, 64, 81
1, 135181, Control_c, 0, 64, 73
1, 135196, Control_c, 0, 64, 65
1, 135211, Control_c, 0, 64, 49
1, 135211, Control_c, 0, 67, 8
1, 135221, Note_off_c, 0, 45, 58
1, 135226, Control_c, 0, 64, 22
1, 135238, Note_on_c, 0, 57, 68
1, 135240, Control_c, 0, 64, 12
1, 135240, Control_c, 0, 67, 8
1, 135255, Control_c, 0, 67, 9
1, 135270, Control_c, 0, 64, 0
1, 135270, Control_c, 0, 67, 10
1, 135285, Control_c, 0, 67, 11
1, 135299, Note_off_c, 0, 57, 61
1, 135300, Control_c, 0, 67, 12
1, 135314, Control_c, 0, 67, 14
1, 135327, Note_on_c, 0, 45, 69
1, 135329, Control_c, 0, 67, 16
1, 135344, Control_c, 0, 67, 19
1, 135366, Control_c, 0, 67, 21
1, 135381, Control_c, 0, 67, 22
1, 135405, Note_off_c, 0, 45, 61
1, 135426, Control_c, 0, 64, 43
1, 135426, Note_on_c, 0, 57, 66
1, 135440, Control_c, 0, 64, 58
1, 135455, Control_c, 0, 64, 64
1, 135470, Control_c, 0, 64, 67
1, 135484, Control_c, 0, 64, 71
1, 135488, Note_off_c, 0, 57, 61
1, 135499, Control_c, 0, 64, 77
1, 135514, Control_c, 0, 64, 83
1, 135515, Note_on_c, 0, 45, 71
1, 135529, Control_c, 0, 64, 86
1, 135544, Control_c, 0, 64, 88
1, 135558, Control_c, 0, 64, 89
1, 135558, Control_c, 0, 67, 22
1, 135573, Control_c, 0, 64, 90
1, 135587, Note_off_c, 0, 45, 54
1, 135588, Control_c, 0, 64, 91
1, 135603, Control_c, 0, 64, 92
1, 135606, Note_on_c, 0, 57, 68
1, 135618, Control_c, 0, 67, 23
1, 135662, Control_c, 0, 64, 92
1, 135668, Note_off_c, 0, 57, 61
1, 135694, Note_off_c, 0, 64, 48
1, 135698, Note_on_c, 0, 45, 70
1, 135698, Note_off_c, 0, 71, 51
1, 135736, Note_off_c, 0, 60, 34
1, 135779, Note_off_c, 0, 45, 59
1, 135783, Note_on_c, 0, 57, 61
1, 135797, Control_c, 0, 64, 92
1, 135811, Note_off_c, 0, 57, 64
1, 135812, Control_c, 0, 64, 91
1, 135827, Control_c, 0, 64, 89
1, 135827, Control_c, 0, 67, 23
1, 135842, Control_c, 0, 64, 86
1, 135856, Control_c, 0, 64, 81
1, 135871, Control_c, 0, 64, 75
1, 135886, Control_c, 0, 64, 66
1, 135894, Note_on_c, 0, 69, 66
1, 135900, Control_c, 0, 64, 47
1, 135903, Note_on_c, 0, 63, 61
1, 135913, Note_on_c, 0, 41, 47
1, 135915, Note_on_c, 0, 60, 56
1, 135915, Control_c, 0, 64, 0
1, 135930, Control_c, 0, 67, 24
1, 135959, Note_off_c, 0, 41, 62
1, 135974, Control_c, 0, 67, 24
1, 135987, Note_on_c, 0, 53, 67
1, 136004, Control_c, 0, 67, 25
1, 136019, Control_c, 0, 67, 25
1, 136020, Note_off_c, 0, 63, 63
1, 136047, Note_off_c, 0, 53, 61
1, 136049, Control_c, 0, 67, 26
1, 136065, Note_on_c, 0, 41, 68
1, 136078, Control_c, 0, 67, 26
1, 136093, Control_c, 0, 67, 27
1, 136115, Control_c, 0, 67, 27
1, 136130, Control_c, 0, 67, 28
1, 136145, Control_c, 0, 67, 29
1, 136153, Note_off_c, 0, 41, 59
1, 136160, Control_c, 0, 67, 29
1, 136173, Note_on_c, 0, 53, 62
1, 136175, Control_c, 0, 67, 30
1, 136189, Control_c, 0, 67, 30
1, 136204, Control_c, 0, 67, 31
1, 136219, Control_c, 0, 67, 31
1, 136228, Note_off_c, 0, 53, 59
1, 136234, Control_c, 0, 67, 32
1, 136250, Note_on_c, 0, 59, 71
1, 136255, Note_on_c, 0, 41, 69
1, 136269, Note_off_c, 0, 60, 45
1, 136278, Control_c, 0, 67, 32
1, 136323, Control_c, 0, 67, 33
1, 136337, Note_off_c, 0, 41, 58
1, 136364, Note_on_c, 0, 53, 58
1, 136377, Note_off_c, 0, 59, 62
1, 136433, Note_off_c, 0, 53, 61
1, 136442, Note_on_c, 0, 57, 62
1, 136448, Note_on_c, 0, 41, 67
1, 136489, Note_off_c, 0, 57, 57
1, 136502, Control_c, 0, 67, 33
1, 136525, Note_off_c, 0, 41, 56
1, 136531, Control_c, 0, 67, 34
1, 136544, Note_on_c, 0, 53, 59
1, 136561, Control_c, 0, 67, 35
1, 136576, Control_c, 0, 67, 37
1, 136583, Note_off_c, 0, 53, 64
1, 136591, Control_c, 0, 67, 40
1, 136605, Control_c, 0, 67, 44
1, 136606, Note_off_c, 0, 69, 40
1, 136619, Note_on_c, 0, 68, 69
1, 136620, Note_on_c, 0, 59, 57
1, 136620, Control_c, 0, 67, 49
1, 136635, Note_on_c, 0, 64, 47
1, 136635, Control_c, 0, 67, 52
1, 136637, Note_on_c, 0, 40, 54
1, 136648, Note_off_c, 0, 59, 63
1, 136650, Control_c, 0, 67, 54
1, 136663, Note_off_c, 0, 64, 62
1, 136665, Control_c, 0, 67, 54
1, 136689, Note_off_c, 0, 68, 60
1, 136694, Note_off_c, 0, 40, 60
1, 136709, Control_c, 0, 67, 55
1, 136734, Note_on_c, 0, 52, 60
1, 136738, Control_c, 0, 67, 55
1, 136768, Control_c, 0, 67, 56
1, 136787, Note_off_c, 0, 52, 61
1, 136797, Control_c, 0, 67, 56
1, 136812, Control_c, 0, 67, 57
1, 136817, Note_on_c, 0, 40, 61
1, 136842, Control_c, 0, 67, 57
1, 136873, Note_off_c, 0, 40, 60
1, 136894, Note_on_c, 0, 72, 80
1, 136894, Note_on_c, 0, 76, 74
1, 136924, Control_c, 0, 67, 58
1, 136938, Control_c, 0, 67, 58
1, 136948, Note_off_c, 0, 72, 48
1, 136953, Control_c, 0, 67, 59
1, 136957, Note_off_c, 0, 76, 60
1, 136968, Control_c, 0, 67, 60
1, 136983, Control_c, 0, 67, 62
1, 136988, Note_on_c, 0, 74, 74
1, 136994, Note_on_c, 0, 71, 63
1, 136998, Control_c, 0, 67, 64
1, 137012, Control_c, 0, 67, 67
1, 137027, Note_off_c, 0, 71, 64
1, 137027, Control_c, 0, 67, 71
1, 137042, Control_c, 0, 67, 76
1, 137056, Control_c, 0, 67, 83
1, 137067, Note_on_c, 0, 76, 70
1, 137071, Note_on_c, 0, 72, 83
1, 137071, Control_c, 0, 67, 92
1, 137077, Note_off_c, 0, 74, 65
1, 137086, Control_c, 0, 67, 101
1, 137101, Control_c, 0, 67, 111
1, 137112, Note_off_c, 0, 76, 59
1, 137116, Control_c, 0, 67, 119
1, 137131, Control_c, 0, 67, 127
1, 137149, Note_off_c, 0, 72, 38
1, 137157, Note_on_c, 0, 77, 74
1, 137159, Note_on_c, 0, 74, 70
1, 137196, Note_off_c, 0, 74, 60
1, 137244, Note_off_c, 0, 77, 61
1, 137247, Note_on_c, 0, 76, 68
1, 137255, Note_on_c, 0, 72, 70
1, 137284, Note_off_c, 0, 72, 66
1, 137294, Note_off_c, 0, 76, 56
1, 137336, Note_on_c, 0, 74, 65
1, 137339, Note_on_c, 0, 71, 62
1, 137369, Note_off_c, 0, 74, 59
1, 137380, Note_off_c, 0, 71, 64
1, 137448, Note_on_c, 0, 52, 60
1, 137495, Note_off_c, 0, 52, 59
1, 137526, Note_on_c, 0, 40, 58
1, 137566, Note_off_c, 0, 40, 61
1, 137618, Note_on_c, 0, 72, 74
1, 137620, Note_on_c, 0, 76, 64
1, 137646, Note_off_c, 0, 72, 67
1, 137664, Note_off_c, 0, 76, 58
1, 137710, Note_on_c, 0, 72, 74
1, 137715, Note_on_c, 0, 69, 64
1, 137816, Note_on_c, 0, 52, 56
1, 137837, Note_off_c, 0, 72, 60
1, 137869, Note_off_c, 0, 52, 61
1, 137906, Note_on_c, 0, 40, 56
1, 137919, Note_off_c, 0, 69, 61
1, 137942, Note_off_c, 0, 40, 64
1, 137991, Note_on_c, 0, 71, 64
1, 137998, Note_on_c, 0, 74, 53
1, 138022, Note_off_c, 0, 71, 67
1, 138042, Note_off_c, 0, 74, 63
1, 138091, Note_on_c, 0, 68, 60
1, 138096, Note_on_c, 0, 71, 62
1, 138185, Note_on_c, 0, 52, 57
1, 138238, Note_off_c, 0, 68, 51
1, 138241, Note_off_c, 0, 71, 64
1, 138270, Note_off_c, 0, 52, 55
1, 138274, Note_on_c, 0, 40, 63
1, 138329, Note_off_c, 0, 40, 61
1, 138374, Note_on_c, 0, 76, 72
1, 138378, Note_on_c, 0, 72, 76
1, 138417, Note_off_c, 0, 72, 58
1, 138430, Note_off_c, 0, 76, 62
1, 138459, Note_on_c, 0, 74, 76
1, 138475, Note_on_c, 0, 71, 61
1, 138511, Note_off_c, 0, 71, 61
1, 138542, Note_on_c, 0, 72, 84
1, 138542, Note_on_c, 0, 76, 73
1, 138554, Note_off_c, 0, 74, 63
1, 138582, Control_c, 0, 64, 12
1, 138630, Note_on_c, 0, 74, 75
1, 138630, Note_on_c, 0, 77, 77
1, 138640, Note_off_c, 0, 72, 59
1, 138647, Note_off_c, 0, 76, 32
1, 138718, Note_on_c, 0, 72, 85
1, 138720, Note_off_c, 0, 74, 36
1, 138723, Note_off_c, 0, 77, 62
1, 138730, Note_on_c, 0, 76, 75
1, 138764, Note_off_c, 0, 72, 60
1, 138768, Note_off_c, 0, 76, 51
1, 138775, Control_c, 0, 64, 15
1, 138805, Control_c, 0, 64, 18
1, 138810, Note_on_c, 0, 74, 78
1, 138815, Note_on_c, 0, 71, 80
1, 138820, Control_c, 0, 64, 20
1, 138834, Control_c, 0, 64, 22
1, 138843, Note_off_c, 0, 71, 64
1, 138849, Control_c, 0, 64, 26
1, 138850, Note_off_c, 0, 74, 62
1, 138864, Control_c, 0, 64, 28
1, 138880, Control_c, 0, 64, 30
1, 138916, Note_on_c, 0, 52, 73
1, 138975, Note_off_c, 0, 52, 63
1, 138996, Note_on_c, 0, 40, 80
1, 139057, Note_off_c, 0, 40, 63
1, 139084, Note_on_c, 0, 80, 80
1, 139085, Note_on_c, 0, 74, 78
1, 139113, Note_off_c, 0, 74, 71
1, 139140, Note_off_c, 0, 80, 61
1, 139188, Note_on_c, 0, 81, 95
1, 139189, Note_on_c, 0, 72, 89
1, 139256, Note_off_c, 0, 81, 55
1, 139288, Note_on_c, 0, 52, 65
1, 139319, Note_off_c, 0, 72, 64
1, 139350, Note_off_c, 0, 52, 63
1, 139376, Control_c, 0, 64, 28
1, 139379, Note_on_c, 0, 40, 63
1, 139405, Control_c, 0, 64, 27
1, 139420, Control_c, 0, 64, 24
1, 139421, Note_off_c, 0, 40, 61
1, 139435, Control_c, 0, 64, 22
1, 139450, Control_c, 0, 64, 20
1, 139464, Note_on_c, 0, 72, 72
1, 139469, Note_on_c, 0, 69, 65
1, 139504, Note_off_c, 0, 69, 58
1, 139507, Note_off_c, 0, 72, 54
1, 139545, Note_on_c, 0, 71, 66
1, 139558, Note_on_c, 0, 68, 62
1, 139666, Note_on_c, 0, 52, 54
1, 139682, Note_off_c, 0, 68, 60
1, 139694, Note_off_c, 0, 71, 63
1, 139729, Note_off_c, 0, 52, 53
1, 139750, Note_on_c, 0, 40, 61
1, 139794, Note_off_c, 0, 40, 60
1, 139826, Note_on_c, 0, 72, 79
1, 139852, Note_on_c, 0, 69, 49
1, 139907, Note_off_c, 0, 69, 47
1, 139916, Note_off_c, 0, 72, 58
1, 139928, Note_on_c, 0, 71, 64
1, 139929, Note_on_c, 0, 68, 66
1, 139982, Note_off_c, 0, 68, 51
1, 140007, Note_off_c, 0, 71, 58
1, 140015, Note_on_c, 0, 72, 81
1, 140028, Note_on_c, 0, 69, 60
1, 140069, Note_off_c, 0, 69, 58
1, 140079, Note_off_c, 0, 72, 53
1, 140098, Note_on_c, 0, 68, 64
1, 140101, Note_on_c, 0, 71, 67
1, 140141, Note_off_c, 0, 71, 60
1, 140141, Control_c, 0, 64, 22
1, 140141, Note_off_c, 0, 68, 60
1, 140190, Note_on_c, 0, 72, 74
1, 140197, Note_on_c, 0, 69, 63
1, 140236, Note_off_c, 0, 69, 60
1, 140243, Note_off_c, 0, 72, 48
1, 140270, Note_on_c, 0, 71, 73
1, 140279, Note_on_c, 0, 68, 66
1, 140297, Note_off_c, 0, 71, 67
1, 140303, Control_c, 0, 64, 26
1, 140310, Note_off_c, 0, 68, 66
1, 140318, Control_c, 0, 64, 30
1, 140333, Control_c, 0, 64, 34
1, 140347, Control_c, 0, 64, 35
1, 140362, Control_c, 0, 64, 36
1, 140377, Control_c, 0, 64, 37
1, 140392, Control_c, 0, 64, 38
1, 140407, Control_c, 0, 64, 38
1, 140422, Control_c, 0, 64, 40
1, 140422, Control_c, 0, 67, 122
1, 140437, Control_c, 0, 67, 110
1, 140451, Control_c, 0, 64, 41
1, 140451, Control_c, 0, 67, 94
1, 140467, Control_c, 0, 67, 80
1, 140482, Control_c, 0, 67, 67
1, 140496, Control_c, 0, 67, 56
1, 140511, Control_c, 0, 67, 48
1, 140526, Control_c, 0, 67, 42
1, 140541, Control_c, 0, 67, 37
1, 140556, Control_c, 0, 64, 40
1, 140556, Control_c, 0, 67, 31
1, 140567, Note_on_c, 0, 51, 80
1, 140568, Note_on_c, 0, 39, 67
1, 140571, Control_c, 0, 64, 39
1, 140571, Control_c, 0, 67, 27
1, 140586, Control_c, 0, 64, 38
1, 140586, Control_c, 0, 67, 23
1, 140608, Control_c, 0, 64, 36
1, 140608, Control_c, 0, 67, 19
1, 140622, Control_c, 0, 64, 34
1, 140622, Control_c, 0, 67, 15
1, 140637, Control_c, 0, 64, 31
1, 140637, Control_c, 0, 67, 9
1, 140639, Note_off_c, 0, 39, 60
1, 140652, Control_c, 0, 64, 27
1, 140652, Control_c, 0, 67, 0
1, 140656, Note_on_c, 0, 52, 91
1, 140657, Note_off_c, 0, 51, 64
1, 140662, Note_on_c, 0, 40, 83
1, 140667, Control_c, 0, 64, 24
1, 140682, Control_c, 0, 64, 20
1, 140696, Control_c, 0, 64, 18
1, 140711, Control_c, 0, 64, 12
1, 140726, Control_c, 0, 64, 0
1, 140735, Note_off_c, 0, 40, 60
1, 140744, Note_off_c, 0, 52, 39
1, 140745, Note_on_c, 0, 51, 92
1, 140750, Note_on_c, 0, 39, 79
1, 140816, Note_off_c, 0, 39, 63
1, 140817, Note_off_c, 0, 51, 53
1, 140836, Note_on_c, 0, 52, 95
1, 140845, Note_on_c, 0, 40, 79
1, 140887, Note_off_c, 0, 52, 64
1, 140913, Note_off_c, 0, 40, 63
1, 140914, Note_on_c, 0, 51, 87
1, 140927, Note_on_c, 0, 39, 79
1, 140971, Note_off_c, 0, 51, 63
1, 140990, Note_off_c, 0, 39, 62
1, 140993, Control_c, 0, 64, 62
1, 141008, Control_c, 0, 64, 74
1, 141013, Note_on_c, 0, 52, 93
1, 141016, Note_on_c, 0, 40, 87
1, 141022, Control_c, 0, 64, 89
1, 141037, Control_c, 0, 64, 112
1, 141052, Control_c, 0, 64, 127
1, 141055, Note_off_c, 0, 52, 65
1, 141060, Note_off_c, 0, 40, 62
1, 141082, Control_c, 0, 67, 8
1, 141096, Control_c, 0, 67, 8
1, 141111, Control_c, 0, 67, 9
1, 141141, Control_c, 0, 67, 10
1, 141156, Control_c, 0, 67, 12
1, 141170, Control_c, 0, 67, 14
1, 141185, Control_c, 0, 67, 17
1, 141200, Control_c, 0, 67, 19
1, 141215, Control_c, 0, 64, 105
1, 141215, Control_c, 0, 67, 22
1, 141229, Control_c, 0, 64, 92
1, 141229, Control_c, 0, 67, 25
1, 141244, Control_c, 0, 64, 79
1, 141244, Control_c, 0, 67, 29
1, 141259, Control_c, 0, 64, 68
1, 141259, Control_c, 0, 67, 34
1, 141275, Control_c, 0, 64, 30
1, 141275, Control_c, 0, 67, 37
1, 141290, Control_c, 0, 64, 0
1, 141290, Control_c, 0, 67, 39
1, 141305, Control_c, 0, 67, 41
1, 141311, Note_on_c, 0, 75, 61
1, 141319, Control_c, 0, 67, 42
1, 141334, Control_c, 0, 67, 43
1, 141357, Control_c, 0, 67, 44
1, 141372, Control_c, 0, 67, 45
1, 141387, Control_c, 0, 67, 46
1, 141396, Note_off_c, 0, 75, 62
1, 141401, Control_c, 0, 67, 47
1, 141406, Note_on_c, 0, 76, 68
1, 141416, Control_c, 0, 67, 47
1, 141431, Control_c, 0, 67, 48
1, 141460, Control_c, 0, 67, 49
1, 141471, Note_off_c, 0, 76, 62
1, 141475, Control_c, 0, 67, 50
1, 141490, Control_c, 0, 67, 51
1, 141495, Note_on_c, 0, 75, 66
1, 141505, Control_c, 0, 67, 53
1, 141519, Control_c, 0, 67, 54
1, 141534, Control_c, 0, 67, 55
1, 141538, Note_off_c, 0, 75, 54
1, 141549, Control_c, 0, 67, 57
1, 141564, Control_c, 0, 67, 59
1, 141579, Control_c, 0, 67, 63
1, 141581, Note_on_c, 0, 76, 69
1, 141593, Control_c, 0, 67, 67
1, 141608, Control_c, 0, 67, 70
1, 141623, Control_c, 0, 67, 73
1, 141638, Note_off_c, 0, 76, 54
1, 141638, Control_c, 0, 67, 76
1, 141653, Control_c, 0, 67, 80
1, 141668, Control_c, 0, 67, 87
1, 141668, Note_on_c, 0, 75, 57
1, 141683, Control_c, 0, 67, 95
1, 141697, Control_c, 0, 67, 102
1, 141710, Note_off_c, 0, 75, 57
1, 141712, Control_c, 0, 67, 109
1, 141727, Control_c, 0, 67, 115
1, 141742, Control_c, 0, 67, 120
1, 141757, Control_c, 0, 67, 125
1, 141770, Note_on_c, 0, 76, 63
1, 141771, Control_c, 0, 67, 127
1, 141810, Note_off_c, 0, 76, 59
1, 142043, Note_on_c, 0, 63, 53
1, 142112, Note_off_c, 0, 63, 56
1, 142148, Note_on_c, 0, 64, 57
1, 142192, Note_off_c, 0, 64, 59
1, 142230, Note_on_c, 0, 63, 53
1, 142300, Note_off_c, 0, 63, 59
1, 142324, Note_on_c, 0, 64, 55
1, 142364, Note_off_c, 0, 64, 63
1, 142424, Note_on_c, 0, 63, 46
1, 142471, Note_off_c, 0, 63, 60
1, 142519, Note_on_c, 0, 64, 56
1, 142546, Note_off_c, 0, 64, 62
1, 142800, Note_on_c, 0, 75, 53
1, 142889, Note_off_c, 0, 75, 57
1, 142903, Note_on_c, 0, 76, 63
1, 142976, Note_off_c, 0, 76, 59
1, 143005, Note_on_c, 0, 75, 57
1, 143051, Note_off_c, 0, 75, 53
1, 143092, Note_on_c, 0, 76, 61
1, 143143, Note_off_c, 0, 76, 52
1, 143174, Note_on_c, 0, 75, 57
1, 143236, Note_off_c, 0, 75, 53
1, 143265, Note_on_c, 0, 76, 69
1, 143297, Note_off_c, 0, 76, 63
1, 143563, Note_on_c, 0, 75, 44
1, 143621, Note_off_c, 0, 75, 59
1, 143650, Note_on_c, 0, 76, 50
1, 143690, Note_off_c, 0, 76, 55
1, 143735, Note_on_c, 0, 75, 53
1, 143788, Note_off_c, 0, 75, 54
1, 143833, Note_on_c, 0, 76, 56
1, 143873, Note_off_c, 0, 76, 62
1, 143925, Note_on_c, 0, 75, 43
1, 143964, Note_off_c, 0, 75, 59
1, 144010, Note_on_c, 0, 76, 63
1, 144039, Note_off_c, 0, 76, 65
1, 144306, Note_on_c, 0, 75, 47
1, 144365, Note_off_c, 0, 75, 57
1, 144381, Note_on_c, 0, 70, 48
1, 144386, Note_on_c, 0, 67, 38
1, 144392, Note_on_c, 0, 76, 58
1, 144470, Note_off_c, 0, 76, 61
1, 144477, Note_on_c, 0, 75, 64
1, 144533, Note_off_c, 0, 67, 57
1, 144549, Note_off_c, 0, 70, 38
1, 144559, Note_off_c, 0, 75, 53
1, 144559, Control_c, 0, 67, 119
1, 144562, Note_on_c, 0, 69, 44
1, 144564, Note_on_c, 0, 76, 76
1, 144565, Note_on_c, 0, 65, 50
1, 144574, Control_c, 0, 67, 106
1, 144589, Control_c, 0, 67, 91
1, 144604, Control_c, 0, 67, 71
1, 144619, Control_c, 0, 67, 54
1, 144623, Note_off_c, 0, 76, 60
1, 144634, Control_c, 0, 67, 38
1, 144649, Control_c, 0, 67, 23
1, 144655, Note_on_c, 0, 77, 82
1, 144663, Control_c, 0, 67, 0
1, 144711, Note_off_c, 0, 77, 64
1, 144714, Note_off_c, 0, 65, 36
1, 144732, Note_off_c, 0, 69, 41
1, 144733, Note_on_c, 0, 67, 61
1, 144739, Note_on_c, 0, 79, 88
1, 144749, Note_on_c, 0, 64, 63
1, 144770, Note_off_c, 0, 79, 64
1, 144787, Note_off_c, 0, 67, 63
1, 144801, Note_off_c, 0, 64, 58
1, 145033, Note_on_c, 0, 78, 73
1, 145128, Note_off_c, 0, 78, 61
1, 145128, Note_on_c, 0, 79, 84
1, 145136, Note_on_c, 0, 67, 65
1, 145138, Note_on_c, 0, 64, 59
1, 145217, Note_on_c, 0, 78, 86
1, 145221, Note_off_c, 0, 79, 61
1, 145267, Note_off_c, 0, 64, 57
1, 145305, Note_on_c, 0, 79, 86
1, 145310, Note_on_c, 0, 65, 65
1, 145312, Note_on_c, 0, 62, 58
1, 145314, Note_off_c, 0, 67, 57
1, 145374, Note_off_c, 0, 78, 60
1, 145386, Note_on_c, 0, 81, 95
1, 145427, Note_off_c, 0, 62, 54
1, 145477, Note_off_c, 0, 65, 64
1, 145483, Note_on_c, 0, 82, 93
1, 145488, Note_on_c, 0, 64, 82
1, 145491, Note_on_c, 0, 61, 88
1, 145524, Note_off_c, 0, 79, 50
1, 145558, Note_off_c, 0, 81, 55
1, 145560, Control_c, 0, 64, 65
1, 145575, Control_c, 0, 64, 81
1, 145585, Poly_aftertouch_c, 0, 79, 0
1, 145590, Control_c, 0, 64, 88
1, 145605, Control_c, 0, 64, 91
1, 145619, Control_c, 0, 64, 92
1, 145634, Control_c, 0, 64, 96
1, 145649, Control_c, 0, 64, 101
1, 145664, Control_c, 0, 64, 111
1, 145679, Control_c, 0, 64, 127
1, 145830, Note_off_c, 0, 82, 60
1, 145904, Note_off_c, 0, 61, 33
1, 145972, Note_off_c, 0, 64, 31
1, 146015, Note_on_c, 0, 81, 85
1, 146067, Note_off_c, 0, 81, 66
1, 146072, Note_on_c, 0, 79, 72
1, 146103, Note_on_c, 0, 77, 77
1, 146112, Note_off_c, 0, 79, 63
1, 146131, Control_c, 0, 64, 126
1, 146146, Control_c, 0, 64, 92
1, 146151, Note_on_c, 0, 76, 78
1, 146160, Control_c, 0, 64, 74
1, 146163, Note_off_c, 0, 77, 63
1, 146175, Control_c, 0, 64, 45
1, 146185, Note_on_c, 0, 65, 94
1, 146190, Note_on_c, 0, 62, 79
1, 146190, Control_c, 0, 64, 0
1, 146202, Note_on_c, 0, 74, 82
1, 146205, Control_c, 0, 64, 53
1, 146206, Note_off_c, 0, 76, 63
1, 146220, Control_c, 0, 64, 66
1, 146234, Control_c, 0, 64, 75
1, 146247, Note_off_c, 0, 74, 65
1, 146249, Control_c, 0, 64, 86
1, 146264, Control_c, 0, 64, 93
1, 146271, Note_on_c, 0, 81, 86
1, 146279, Control_c, 0, 64, 94
1, 146309, Control_c, 0, 64, 95
1, 146321, Note_off_c, 0, 81, 68
1, 146327, Note_on_c, 0, 79, 79
1, 146354, Control_c, 0, 64, 95
1, 146372, Note_off_c, 0, 79, 63
1, 146375, Note_off_c, 0, 62, 47
1, 146377, Note_on_c, 0, 77, 74
1, 146424, Note_off_c, 0, 77, 64
1, 146425, Note_on_c, 0, 76, 75
1, 146455, Note_off_c, 0, 76, 62
1, 146457, Control_c, 0, 64, 96
1, 146489, Note_on_c, 0, 74, 76
1, 146492, Note_off_c, 0, 65, 60
1, 146501, Control_c, 0, 64, 93
1, 146516, Control_c, 0, 64, 84
1, 146531, Control_c, 0, 64, 71
1, 146533, Note_off_c, 0, 74, 57
1, 146542, Note_on_c, 0, 67, 85
1, 146543, Note_on_c, 0, 62, 79
1, 146546, Control_c, 0, 64, 44
1, 146547, Note_on_c, 0, 64, 71
1, 146556, Note_on_c, 0, 73, 72
1, 146560, Control_c, 0, 64, 0
1, 146575, Control_c, 0, 64, 34
1, 146591, Note_off_c, 0, 73, 68
1, 146598, Control_c, 0, 64, 63
1, 146613, Control_c, 0, 64, 70
1, 146625, Note_on_c, 0, 79, 76
1, 146628, Control_c, 0, 64, 78
1, 146636, Note_off_c, 0, 64, 0
1, 146642, Control_c, 0, 64, 87
1, 146657, Control_c, 0, 64, 89
1, 146668, Note_on_c, 0, 77, 74
1, 146672, Control_c, 0, 64, 89
1, 146673, Poly_aftertouch_c, 0, 64, 127
1, 146676, Note_off_c, 0, 79, 63
1, 146701, Control_c, 0, 64, 90
1, 146715, Note_off_c, 0, 62, 51
1, 146716, Control_c, 0, 64, 91
1, 146723, Note_on_c, 0, 76, 77
1, 146727, Note_off_c, 0, 77, 63
1, 146731, Control_c, 0, 64, 92
1, 146746, Control_c, 0, 64, 92
1, 146761, Control_c, 0, 64, 93
1, 146770, Note_off_c, 0, 76, 61
1, 146775, Control_c, 0, 64, 93
1, 146790, Control_c, 0, 64, 95
1, 146795, Note_on_c, 0, 74, 69
1, 146805, Control_c, 0, 64, 96
1, 146820, Control_c, 0, 64, 98
1, 146824, Poly_aftertouch_c, 0, 64, 0
1, 146830, Note_off_c, 0, 74, 64
1, 146834, Control_c, 0, 64, 99
1, 146843, Note_off_c, 0, 67, 50
1, 146846, Note_on_c, 0, 73, 68
1, 146865, Control_c, 0, 64, 98
1, 146880, Control_c, 0, 64, 92
1, 146887, Note_off_c, 0, 73, 61
1, 146895, Control_c, 0, 64, 81
1, 146900, Note_on_c, 0, 74, 68
1, 146909, Control_c, 0, 64, 68
1, 146920, Note_on_c, 0, 65, 75
1, 146922, Note_on_c, 0, 62, 70
1, 146924, Control_c, 0, 64, 0
1, 146941, Note_off_c, 0, 74, 61
1, 146954, Control_c, 0, 64, 51
1, 146962, Note_on_c, 0, 81, 89
1, 146969, Control_c, 0, 64, 65
1, 146983, Control_c, 0, 64, 70
1, 146998, Control_c, 0, 64, 78
1, 147003, Note_off_c, 0, 81, 68
1, 147013, Control_c, 0, 64, 85
1, 147015, Note_on_c, 0, 79, 79
1, 147028, Control_c, 0, 64, 87
1, 147043, Control_c, 0, 64, 88
1, 147057, Control_c, 0, 64, 88
1, 147063, Note_off_c, 0, 62, 53
1, 147066, Note_off_c, 0, 79, 63
1, 147072, Note_on_c, 0, 77, 76
1, 147087, Control_c, 0, 64, 90
1, 147102, Control_c, 0, 64, 92
1, 147117, Control_c, 0, 64, 95
1, 147128, Note_off_c, 0, 77, 63
1, 147132, Control_c, 0, 64, 97
1, 147139, Note_on_c, 0, 76, 74
1, 147147, Control_c, 0, 64, 99
1, 147167, Note_off_c, 0, 76, 64
1, 147191, Control_c, 0, 64, 98
1, 147203, Note_on_c, 0, 74, 71
1, 147206, Control_c, 0, 64, 90
1, 147221, Control_c, 0, 64, 77
1, 147236, Control_c, 0, 64, 52
1, 147247, Note_off_c, 0, 74, 57
1, 147251, Control_c, 0, 64, 0
1, 147251, Note_off_c, 0, 65, 54
1, 147265, Control_c, 0, 64, 27
1, 147267, Note_on_c, 0, 64, 51
1, 147269, Note_on_c, 0, 62, 53
1, 147269, Note_on_c, 0, 73, 67
1, 147272, Note_on_c, 0, 67, 56
1, 147280, Control_c, 0, 64, 63
1, 147295, Control_c, 0, 64, 70
1, 147296, Note_off_c, 0, 73, 68
1, 147309, Control_c, 0, 64, 79
1, 147324, Control_c, 0, 64, 88
1, 147345, Note_on_c, 0, 79, 73
1, 147346, Control_c, 0, 64, 92
1, 147355, Note_off_c, 0, 64, 56
1, 147365, Note_off_c, 0, 62, 59
1, 147386, Note_off_c, 0, 67, 61
1, 147391, Note_on_c, 0, 77, 65
1, 147402, Note_off_c, 0, 79, 59
1, 147421, Control_c, 0, 64, 92
1, 147436, Control_c, 0, 67, 8
1, 147442, Note_on_c, 0, 76, 68
1, 147445, Note_off_c, 0, 77, 64
1, 147450, Control_c, 0, 64, 93
1, 147450, Control_c, 0, 67, 10
1, 147465, Control_c, 0, 67, 11
1, 147480, Control_c, 0, 67, 13
1, 147487, Note_off_c, 0, 76, 59
1, 147495, Control_c, 0, 67, 15
1, 147507, Note_on_c, 0, 74, 68
1, 147510, Control_c, 0, 67, 18
1, 147524, Control_c, 0, 67, 23
1, 147539, Control_c, 0, 67, 29
1, 147549, Note_off_c, 0, 74, 60
1, 147554, Control_c, 0, 67, 35
1, 147569, Control_c, 0, 64, 91
1, 147569, Control_c, 0, 67, 42
1, 147572, Note_on_c, 0, 73, 69
1, 147584, Control_c, 0, 64, 86
1, 147584, Control_c, 0, 67, 49
1, 147598, Control_c, 0, 64, 80
1, 147598, Control_c, 0, 67, 56
1, 147613, Control_c, 0, 64, 72
1, 147613, Control_c, 0, 67, 64
1, 147628, Control_c, 0, 64, 63
1, 147628, Control_c, 0, 67, 74
1, 147642, Control_c, 0, 64, 0
1, 147642, Control_c, 0, 67, 83
1, 147650, Note_off_c, 0, 73, 55
1, 147658, Note_on_c, 0, 74, 63
1, 147659, Control_c, 0, 67, 91
1, 147674, Control_c, 0, 67, 98
1, 147688, Control_c, 0, 67, 104
1, 147703, Control_c, 0, 67, 111
1, 147718, Control_c, 0, 67, 117
1, 147732, Control_c, 0, 67, 125
1, 147747, Control_c, 0, 67, 127
1, 147758, Note_on_c, 0, 62, 40
1, 147832, Note_off_c, 0, 62, 61
1, 147838, Note_off_c, 0, 74, 65
1, 147859, Note_on_c, 0, 65, 48
1, 147899, Note_off_c, 0, 65, 63
1, 147942, Note_on_c, 0, 69, 53
1, 147987, Note_off_c, 0, 69, 63
1, 148035, Note_on_c, 0, 74, 53
1, 148058, Note_off_c, 0, 74, 62
1, 148127, Note_on_c, 0, 77, 64
1, 148167, Note_off_c, 0, 77, 58
1, 148217, Note_on_c, 0, 81, 71
1, 148253, Note_off_c, 0, 81, 63
1, 148309, Note_on_c, 0, 86, 62
1, 148384, Note_off_c, 0, 86, 54
1, 148398, Note_on_c, 0, 89, 75
1, 148407, Control_c, 0, 64, 22
1, 148421, Note_off_c, 0, 89, 68
1, 148421, Control_c, 0, 64, 36
1, 148436, Control_c, 0, 64, 44
1, 148451, Control_c, 0, 64, 45
1, 148482, Control_c, 0, 64, 44
1, 148496, Control_c, 0, 64, 42
1, 148511, Control_c, 0, 64, 41
1, 148541, Control_c, 0, 64, 40
1, 148555, Control_c, 0, 64, 38
1, 148570, Control_c, 0, 64, 35
1, 148585, Control_c, 0, 64, 32
1, 148693, Note_on_c, 0, 49, 81
1, 148694, Note_on_c, 0, 37, 65
1, 148718, Control_c, 0, 64, 27
1, 148733, Control_c, 0, 64, 0
1, 148748, Control_c, 0, 67, 117
1, 148762, Note_off_c, 0, 37, 61
1, 148762, Control_c, 0, 67, 92
1, 148777, Control_c, 0, 67, 63
1, 148778, Note_on_c, 0, 38, 81
1, 148779, Note_on_c, 0, 50, 91
1, 148780, Note_off_c, 0, 49, 64
1, 148792, Control_c, 0, 67, 34
1, 148807, Control_c, 0, 67, 9
1, 148822, Control_c, 0, 67, 0
1, 148845, Note_off_c, 0, 38, 64
1, 148870, Note_on_c, 0, 49, 90
1, 148875, Note_on_c, 0, 37, 76
1, 148878, Note_off_c, 0, 50, 62
1, 148931, Note_off_c, 0, 49, 60
1, 148932, Note_off_c, 0, 37, 62
1, 148956, Note_on_c, 0, 38, 81
1, 148959, Note_on_c, 0, 50, 96
1, 149012, Note_off_c, 0, 50, 62
1, 149022, Note_off_c, 0, 38, 63
1, 149038, Note_on_c, 0, 49, 87
1, 149042, Note_on_c, 0, 37, 74
1, 149106, Note_off_c, 0, 49, 63
1, 149126, Control_c, 0, 64, 61
1, 149129, Note_off_c, 0, 37, 61
1, 149134, Note_on_c, 0, 50, 97
1, 149137, Note_on_c, 0, 38, 85
1, 149141, Control_c, 0, 64, 91
1, 149156, Control_c, 0, 64, 127
1, 149170, Control_c, 0, 67, 8
1, 149179, Note_off_c, 0, 50, 65
1, 149181, Note_off_c, 0, 38, 64
1, 149185, Control_c, 0, 67, 11
1, 149200, Control_c, 0, 67, 13
1, 149214, Control_c, 0, 67, 14
1, 149229, Control_c, 0, 67, 16
1, 149244, Control_c, 0, 67, 19
1, 149260, Control_c, 0, 67, 21
1, 149275, Control_c, 0, 67, 24
1, 149290, Control_c, 0, 67, 27
1, 149305, Control_c, 0, 64, 110
1, 149305, Control_c, 0, 67, 29
1, 149320, Control_c, 0, 64, 95
1, 149320, Control_c, 0, 67, 32
1, 149335, Control_c, 0, 64, 82
1, 149335, Control_c, 0, 67, 34
1, 149349, Control_c, 0, 64, 71
1, 149349, Control_c, 0, 67, 36
1, 149364, Control_c, 0, 64, 57
1, 149364, Control_c, 0, 67, 39
1, 149379, Control_c, 0, 64, 0
1, 149379, Control_c, 0, 67, 42
1, 149394, Control_c, 0, 67, 46
1, 149409, Control_c, 0, 67, 50
1, 149423, Note_on_c, 0, 73, 66
1, 149424, Control_c, 0, 67, 54
1, 149439, Control_c, 0, 67, 58
1, 149453, Control_c, 0, 67, 65
1, 149468, Control_c, 0, 67, 69
1, 149483, Control_c, 0, 67, 73
1, 149498, Control_c, 0, 67, 75
1, 149508, Note_off_c, 0, 73, 62
1, 149512, Control_c, 0, 67, 76
1, 149517, Note_on_c, 0, 74, 66
1, 149527, Control_c, 0, 67, 76
1, 149528, Note_on_c, 0, 69, 49
1, 149531, Note_on_c, 0, 65, 46
1, 149542, Control_c, 0, 67, 78
1, 149557, Control_c, 0, 67, 80
1, 149572, Control_c, 0, 67, 82
1, 149593, Note_off_c, 0, 74, 63
1, 149594, Control_c, 0, 67, 84
1, 149609, Control_c, 0, 67, 85
1, 149615, Note_on_c, 0, 73, 64
1, 149624, Control_c, 0, 67, 87
1, 149634, Note_off_c, 0, 65, 49
1, 149638, Control_c, 0, 67, 88
1, 149653, Control_c, 0, 67, 90
1, 149666, Note_off_c, 0, 73, 60
1, 149668, Control_c, 0, 67, 92
1, 149683, Control_c, 0, 67, 93
1, 149698, Note_on_c, 0, 74, 69
1, 149698, Control_c, 0, 67, 95
1, 149709, Note_off_c, 0, 69, 54
1, 149710, Note_on_c, 0, 64, 50
1, 149712, Control_c, 0, 67, 97
1, 149727, Control_c, 0, 67, 100
1, 149728, Note_on_c, 0, 67, 51
1, 149742, Control_c, 0, 67, 104
1, 149747, Note_off_c, 0, 74, 57
1, 149757, Control_c, 0, 67, 110
1, 149765, Note_off_c, 0, 67, 59
1, 149767, Note_off_c, 0, 64, 50
1, 149772, Control_c, 0, 67, 117
1, 149786, Control_c, 0, 67, 126
1, 149801, Note_on_c, 0, 76, 66
1, 149801, Control_c, 0, 67, 127
1, 149862, Note_off_c, 0, 76, 66
1, 149893, Note_on_c, 0, 77, 71
1, 149897, Note_on_c, 0, 62, 52
1, 149898, Note_on_c, 0, 65, 52
1, 149927, Note_off_c, 0, 77, 64
1, 149933, Note_off_c, 0, 65, 64
1, 149949, Note_off_c, 0, 62, 54
1, 150211, Note_on_c, 0, 76, 53
1, 150268, Note_on_c, 0, 65, 38
1, 150272, Note_off_c, 0, 76, 59
1, 150282, Note_on_c, 0, 62, 20
1, 150291, Note_on_c, 0, 77, 67
1, 150369, Note_off_c, 0, 77, 62
1, 150400, Note_on_c, 0, 76, 62
1, 150442, Note_off_c, 0, 65, 46
1, 150446, Note_off_c, 0, 62, 38
1, 150449, Note_off_c, 0, 76, 56
1, 150470, Note_on_c, 0, 60, 42
1, 150473, Note_on_c, 0, 64, 32
1, 150482, Note_on_c, 0, 77, 68
1, 150516, Note_off_c, 0, 77, 62
1, 150518, Note_off_c, 0, 64, 47
1, 150545, Note_off_c, 0, 60, 46
1, 150571, Note_on_c, 0, 79, 71
1, 150647, Note_off_c, 0, 79, 39
1, 150661, Note_on_c, 0, 62, 49
1, 150663, Note_on_c, 0, 80, 74
1, 150675, Note_on_c, 0, 59, 49
1, 150687, Note_off_c, 0, 80, 69
1, 150688, Note_off_c, 0, 62, 61
1, 150697, Control_c, 0, 64, 15
1, 150707, Note_off_c, 0, 59, 65
1, 150712, Control_c, 0, 64, 24
1, 150727, Control_c, 0, 64, 31
1, 150742, Control_c, 0, 64, 34
1, 150756, Control_c, 0, 64, 38
1, 150771, Control_c, 0, 64, 39
1, 150876, Control_c, 0, 67, 123
1, 150891, Control_c, 0, 67, 114
1, 150905, Control_c, 0, 64, 37
1, 150905, Control_c, 0, 67, 104
1, 150920, Control_c, 0, 64, 28
1, 150920, Control_c, 0, 67, 92
1, 150935, Control_c, 0, 64, 0
1, 150935, Control_c, 0, 67, 74
1, 150950, Note_on_c, 0, 44, 68
1, 150950, Control_c, 0, 67, 49
1, 150962, Note_on_c, 0, 56, 85
1, 150965, Control_c, 0, 67, 15
1, 150980, Control_c, 0, 67, 0
1, 151016, Note_off_c, 0, 44, 61
1, 151040, Note_on_c, 0, 43, 75
1, 151043, Note_on_c, 0, 55, 84
1, 151046, Note_off_c, 0, 56, 64
1, 151121, Note_off_c, 0, 43, 62
1, 151134, Note_on_c, 0, 44, 76
1, 151139, Note_on_c, 0, 56, 88
1, 151146, Note_off_c, 0, 55, 64
1, 151198, Note_off_c, 0, 44, 58
1, 151220, Note_on_c, 0, 55, 87
1, 151226, Note_on_c, 0, 43, 73
1, 151227, Note_off_c, 0, 56, 64
1, 151282, Note_off_c, 0, 55, 0
1, 151292, Note_off_c, 0, 43, 59
1, 151308, Note_on_c, 0, 44, 73
1, 151311, Note_on_c, 0, 56, 89
1, 151320, Poly_aftertouch_c, 0, 55, 0
1, 151370, Note_off_c, 0, 44, 61
1, 151379, Note_off_c, 0, 56, 56
1, 151387, Control_c, 0, 64, 67
1, 151402, Note_on_c, 0, 43, 82
1, 151402, Control_c, 0, 64, 91
1, 151403, Note_on_c, 0, 55, 95
1, 151416, Control_c, 0, 64, 105
1, 151431, Control_c, 0, 64, 106
1, 151445, Note_off_c, 0, 55, 64
1, 151450, Note_off_c, 0, 43, 63
1, 151484, Poly_aftertouch_c, 0, 56, 0
1, 151549, Control_c, 0, 64, 105
1, 151564, Control_c, 0, 64, 103
1, 151579, Control_c, 0, 64, 98
1, 151594, Control_c, 0, 64, 92
1, 151609, Control_c, 0, 64, 86
1, 151624, Control_c, 0, 64, 78
1, 151639, Control_c, 0, 64, 71
1, 151654, Control_c, 0, 64, 64
1, 151669, Control_c, 0, 64, 41
1, 151684, Control_c, 0, 64, 0
1, 151710, Note_on_c, 0, 64, 72
1, 151713, Control_c, 0, 67, 9
1, 151728, Control_c, 0, 67, 12
1, 151743, Control_c, 0, 67, 15
1, 151758, Control_c, 0, 67, 18
1, 151773, Control_c, 0, 67, 23
1, 151783, Note_off_c, 0, 64, 61
1, 151788, Control_c, 0, 67, 27
1, 151793, Note_on_c, 0, 65, 74
1, 151797, Note_on_c, 0, 59, 47
1, 151797, Note_on_c, 0, 62, 50
1, 151803, Control_c, 0, 67, 31
1, 151818, Control_c, 0, 67, 34
1, 151839, Control_c, 0, 67, 38
1, 151854, Control_c, 0, 67, 41
1, 151869, Control_c, 0, 67, 46
1, 151880, Note_off_c, 0, 65, 64
1, 151884, Control_c, 0, 67, 50
1, 151892, Note_on_c, 0, 64, 66
1, 151899, Control_c, 0, 67, 54
1, 151913, Control_c, 0, 67, 56
1, 151928, Control_c, 0, 67, 59
1, 151935, Note_off_c, 0, 59, 40
1, 151940, Note_off_c, 0, 64, 54
1, 151943, Control_c, 0, 67, 61
1, 151958, Control_c, 0, 67, 64
1, 151961, Note_off_c, 0, 62, 48
1, 151973, Note_on_c, 0, 57, 51
1, 151973, Control_c, 0, 67, 67
1, 151981, Note_on_c, 0, 65, 66
1, 151988, Control_c, 0, 67, 69
1, 151992, Note_on_c, 0, 60, 44
1, 152002, Control_c, 0, 67, 71
1, 152017, Control_c, 0, 67, 72
1, 152030, Note_off_c, 0, 65, 56
1, 152032, Control_c, 0, 67, 74
1, 152047, Control_c, 0, 67, 75
1, 152058, Note_on_c, 0, 64, 58
1, 152062, Control_c, 0, 67, 77
1, 152063, Note_off_c, 0, 57, 52
1, 152077, Control_c, 0, 67, 78
1, 152092, Control_c, 0, 67, 79
1, 152099, Note_off_c, 0, 64, 61
1, 152106, Control_c, 0, 67, 79
1, 152121, Control_c, 0, 67, 80
1, 152143, Note_off_c, 0, 60, 34
1, 152161, Note_on_c, 0, 65, 62
1, 152163, Note_on_c, 0, 59, 54
1, 152165, Note_on_c, 0, 55, 46
1, 152166, Control_c, 0, 67, 80
1, 152196, Note_off_c, 0, 59, 65
1, 152196, Note_off_c, 0, 65, 67
1, 152203, Note_off_c, 0, 55, 63
1, 152225, Control_c, 0, 67, 81
1, 152239, Control_c, 0, 67, 81
1, 152254, Control_c, 0, 67, 82
1, 152270, Control_c, 0, 67, 83
1, 152285, Control_c, 0, 67, 84
1, 152300, Control_c, 0, 67, 84
1, 152314, Control_c, 0, 67, 85
1, 152329, Control_c, 0, 67, 86
1, 152344, Control_c, 0, 67, 88
1, 152358, Control_c, 0, 67, 89
1, 152373, Control_c, 0, 67, 91
1, 152388, Control_c, 0, 67, 92
1, 152403, Control_c, 0, 67, 94
1, 152418, Control_c, 0, 67, 95
1, 152432, Control_c, 0, 67, 95
1, 152462, Note_on_c, 0, 66, 50
1, 152463, Control_c, 0, 67, 96
1, 152478, Control_c, 0, 67, 96
1, 152506, Note_off_c, 0, 66, 62
1, 152542, Note_on_c, 0, 77, 64
1, 152550, Note_on_c, 0, 74, 52
1, 152562, Note_on_c, 0, 67, 41
1, 152619, Note_off_c, 0, 67, 59
1, 152653, Note_on_c, 0, 66, 47
1, 152693, Control_c, 0, 67, 97
1, 152729, Note_off_c, 0, 66, 59
1, 152743, Note_on_c, 0, 76, 56
1, 152745, Note_on_c, 0, 72, 55
1, 152754, Note_off_c, 0, 74, 57
1, 152757, Note_on_c, 0, 67, 40
1, 152807, Note_off_c, 0, 77, 33
1, 152812, Note_off_c, 0, 67, 60
1, 152850, Note_on_c, 0, 66, 42
1, 152881, Note_off_c, 0, 66, 55
1, 152886, Note_off_c, 0, 72, 55
1, 152900, Control_c, 0, 67, 96
1, 152926, Note_off_c, 0, 76, 57
1, 152940, Note_on_c, 0, 74, 66
1, 152943, Note_on_c, 0, 71, 56
1, 152948, Note_on_c, 0, 67, 36
1, 152963, Note_off_c, 0, 71, 62
1, 152972, Note_off_c, 0, 74, 66
1, 152976, Note_off_c, 0, 67, 52
1, 153223, Note_on_c, 0, 66, 51
1, 153267, Note_off_c, 0, 66, 63
1, 153302, Note_on_c, 0, 77, 75
1, 153304, Note_on_c, 0, 86, 76
1, 153316, Note_on_c, 0, 67, 48
1, 153341, Note_off_c, 0, 86, 64
1, 153350, Note_off_c, 0, 77, 59
1, 153359, Note_off_c, 0, 67, 64
1, 153397, Note_on_c, 0, 66, 53
1, 153455, Note_off_c, 0, 66, 61
1, 153486, Control_c, 0, 67, 96
1, 153495, Note_on_c, 0, 84, 84
1, 153496, Note_on_c, 0, 76, 74
1, 153499, Note_on_c, 0, 67, 48
1, 153501, Control_c, 0, 67, 95
1, 153519, Note_off_c, 0, 84, 67
1, 153521, Note_off_c, 0, 76, 67
1, 153531, Control_c, 0, 67, 95
1, 153541, Note_off_c, 0, 67, 62
1, 153560, Control_c, 0, 67, 94
1, 153575, Control_c, 0, 67, 94
1, 153576, Note_on_c, 0, 66, 61
1, 153590, Control_c, 0, 67, 91
1, 153604, Control_c, 0, 67, 87
1, 153619, Control_c, 0, 67, 82
1, 153634, Control_c, 0, 67, 73
1, 153648, Note_off_c, 0, 66, 64
1, 153649, Control_c, 0, 67, 63
1, 153664, Note_on_c, 0, 74, 81
1, 153664, Note_on_c, 0, 83, 91
1, 153664, Control_c, 0, 67, 56
1, 153672, Note_on_c, 0, 67, 66
1, 153678, Control_c, 0, 67, 50
1, 153688, Note_off_c, 0, 74, 66
1, 153693, Control_c, 0, 67, 43
1, 153695, Note_off_c, 0, 83, 66
1, 153705, Note_off_c, 0, 67, 64
1, 153708, Control_c, 0, 67, 40
1, 153722, Control_c, 0, 67, 39
1, 153825, Control_c, 0, 67, 40
1, 153840, Control_c, 0, 67, 40
1, 153870, Control_c, 0, 67, 41
1, 153899, Control_c, 0, 67, 41
1, 153928, Control_c, 0, 67, 42
1, 154086, Control_c, 0, 67, 41
1, 154101, Note_on_c, 0, 89, 99
1, 154104, Note_on_c, 0, 79, 91
1, 154106, Note_on_c, 0, 83, 84
1, 154107, Note_on_c, 0, 86, 77
1, 154113, Note_on_c, 0, 65, 84
1, 154115, Control_c, 0, 67, 41
1, 154116, Note_on_c, 0, 55, 78
1, 154118, Note_on_c, 0, 59, 75
1, 154122, Note_on_c, 0, 62, 67
1, 154130, Note_off_c, 0, 83, 68
1, 154131, Note_off_c, 0, 79, 64
1, 154135, Note_off_c, 0, 86, 62
1, 154138, Note_off_c, 0, 65, 70
1, 154145, Control_c, 0, 67, 40
1, 154146, Note_off_c, 0, 89, 66
1, 154150, Note_off_c, 0, 62, 65
1, 154154, Note_off_c, 0, 55, 62
1, 154154, Note_off_c, 0, 59, 62
1, 154293, Control_c, 0, 67, 41
1, 154384, Note_on_c, 0, 79, 90
1, 154384, Note_on_c, 0, 89, 94
1, 154387, Note_on_c, 0, 83, 83
1, 154392, Note_on_c, 0, 86, 74
1, 154396, Control_c, 0, 67, 41
1, 154399, Note_on_c, 0, 65, 89
1, 154400, Note_on_c, 0, 55, 76
1, 154407, Note_on_c, 0, 59, 67
1, 154408, Note_on_c, 0, 62, 66
1, 154414, Note_off_c, 0, 83, 65
1, 154417, Note_off_c, 0, 86, 66
1, 154418, Note_off_c, 0, 79, 56
1, 154423, Note_off_c, 0, 89, 64
1, 154424, Note_off_c, 0, 65, 66
1, 154436, Note_off_c, 0, 62, 65
1, 154438, Note_off_c, 0, 59, 63
1, 154444, Note_off_c, 0, 55, 63
1, 154796, Control_c, 0, 64, 59
1, 154805, Note_on_c, 0, 89, 97
1, 154807, Note_on_c, 0, 79, 96
1, 154810, Note_on_c, 0, 83, 90
1, 154810, Note_on_c, 0, 86, 82
1, 154811, Control_c, 0, 64, 69
1, 154811, Control_c, 0, 67, 41
1, 154818, Note_on_c, 0, 65, 89
1, 154827, Note_on_c, 0, 55, 79
1, 154830, Note_on_c, 0, 59, 74
1, 154831, Note_on_c, 0, 62, 72
1, 154833, Control_c, 0, 64, 77
1, 154833, Control_c, 0, 67, 40
1, 154848, Control_c, 0, 64, 86
1, 154848, Control_c, 0, 67, 39
1, 154864, Control_c, 0, 64, 92
1, 154864, Control_c, 0, 67, 39
1, 154879, Control_c, 0, 64, 98
1, 154879, Control_c, 0, 67, 38
1, 154894, Control_c, 0, 64, 103
1, 154894, Control_c, 0, 67, 38
1, 154909, Control_c, 0, 64, 110
1, 154909, Control_c, 0, 67, 37
1, 154924, Control_c, 0, 64, 119
1, 154924, Control_c, 0, 67, 37
1, 154938, Control_c, 0, 64, 127
1, 154938, Control_c, 0, 67, 36
1, 155264, Control_c, 0, 67, 37
1, 155278, Control_c, 0, 67, 37
1, 155293, Control_c, 0, 67, 38
1, 155308, Control_c, 0, 67, 38
1, 155323, Control_c, 0, 67, 39
1, 155338, Control_c, 0, 67, 39
1, 155353, Control_c, 0, 67, 40
1, 155367, Control_c, 0, 67, 40
1, 155373, Note_off_c, 0, 83, 65
1, 155382, Control_c, 0, 67, 41
1, 155385, Note_off_c, 0, 79, 59
1, 155385, Note_off_c, 0, 89, 66
1, 155389, Note_off_c, 0, 86, 64
1, 155397, Control_c, 0, 67, 42
1, 155400, Note_off_c, 0, 62, 59
1, 155406, Note_off_c, 0, 55, 62
1, 155410, Note_off_c, 0, 65, 61
1, 155412, Control_c, 0, 67, 42
1, 155414, Note_off_c, 0, 59, 61
1, 155427, Control_c, 0, 67, 43
1, 155456, Control_c, 0, 64, 122
1, 155456, Control_c, 0, 67, 44
1, 155471, Control_c, 0, 64, 108
1, 155471, Control_c, 0, 67, 44
1, 155486, Control_c, 0, 64, 99
1, 155486, Control_c, 0, 67, 45
1, 155500, Control_c, 0, 64, 92
1, 155500, Control_c, 0, 67, 45
1, 155515, Control_c, 0, 64, 85
1, 155515, Control_c, 0, 67, 46
1, 155530, Control_c, 0, 64, 80
1, 155530, Control_c, 0, 67, 46
1, 155545, Control_c, 0, 64, 73
1, 155545, Control_c, 0, 67, 48
1, 155560, Control_c, 0, 64, 66
1, 155560, Control_c, 0, 67, 50
1, 155582, Control_c, 0, 64, 59
1, 155582, Control_c, 0, 67, 53
1, 155597, Control_c, 0, 64, 52
1, 155597, Control_c, 0, 67, 56
1, 155612, Control_c, 0, 64, 51
1, 155612, Control_c, 0, 67, 59
1, 155627, Control_c, 0, 64, 50
1, 155627, Control_c, 0, 67, 61
1, 155642, Control_c, 0, 64, 48
1, 155642, Control_c, 0, 67, 64
1, 155657, Control_c, 0, 64, 42
1, 155657, Control_c, 0, 67, 67
1, 155672, Control_c, 0, 64, 33
1, 155672, Control_c, 0, 67, 71
1, 155687, Control_c, 0, 64, 26
1, 155687, Control_c, 0, 67, 75
1, 155702, Control_c, 0, 64, 20
1, 155702, Control_c, 0, 67, 78
1, 155717, Control_c, 0, 64, 15
1, 155717, Control_c, 0, 67, 82
1, 155732, Control_c, 0, 64, 0
1, 155732, Control_c, 0, 67, 85
1, 155746, Control_c, 0, 67, 88
1, 155761, Control_c, 0, 67, 92
1, 155776, Control_c, 0, 67, 95
1, 155791, Control_c, 0, 67, 99
1, 155805, Control_c, 0, 67, 103
1, 155820, Control_c, 0, 67, 108
1, 155835, Control_c, 0, 67, 111
1, 155850, Control_c, 0, 67, 114
1, 155865, Control_c, 0, 67, 117
1, 155879, Control_c, 0, 67, 119
1, 155894, Control_c, 0, 67, 122
1, 155909, Control_c, 0, 67, 126
1, 155923, Control_c, 0, 67, 127
1, 156465, Control_c, 0, 64, 12
1, 156480, Control_c, 0, 64, 15
1, 156587, Note_on_c, 0, 72, 80
1, 156614, Note_off_c, 0, 72, 66
1, 156820, Control_c, 0, 64, 18
1, 156953, Note_on_c, 0, 67, 51
1, 156975, Note_off_c, 0, 67, 60
1, 157323, Note_on_c, 0, 64, 57
1, 157348, Note_off_c, 0, 64, 64
1, 157502, Note_on_c, 0, 48, 46
1, 157538, Note_off_c, 0, 48, 59
1, 157674, Note_on_c, 0, 36, 48
1, 157705, Note_off_c, 0, 36, 54
1, 157859, Note_on_c, 0, 69, 68
1, 158044, Note_off_c, 0, 69, 61
1, 158045, Note_on_c, 0, 62, 56
1, 158083, Note_off_c, 0, 62, 61
1, 158212, Note_on_c, 0, 48, 48
1, 158375, Note_off_c, 0, 48, 58
1, 158391, Note_on_c, 0, 36, 44
1, 158392, Control_c, 0, 64, 15
1, 158407, Control_c, 0, 64, 12
1, 158422, Control_c, 0, 64, 0
1, 158427, Note_off_c, 0, 36, 56
1, 158540, Control_c, 0, 67, 126
1, 158555, Control_c, 0, 67, 124
1, 158578, Control_c, 0, 67, 122
1, 158587, Note_on_c, 0, 67, 56
1, 158593, Control_c, 0, 67, 119
1, 158607, Control_c, 0, 67, 118
1, 158622, Control_c, 0, 67, 117
1, 158637, Control_c, 0, 67, 115
1, 158651, Control_c, 0, 67, 114
1, 158666, Control_c, 0, 67, 113
1, 158681, Control_c, 0, 67, 111
1, 158696, Control_c, 0, 67, 110
1, 158711, Control_c, 0, 67, 109
1, 158725, Control_c, 0, 67, 107
1, 158740, Control_c, 0, 67, 105
1, 158755, Control_c, 0, 67, 103
1, 158756, Note_off_c, 0, 67, 61
1, 158760, Note_on_c, 0, 60, 59
1, 158770, Control_c, 0, 67, 102
1, 158785, Control_c, 0, 67, 101
1, 158796, Note_off_c, 0, 60, 62
1, 158799, Control_c, 0, 67, 100
1, 158814, Control_c, 0, 67, 99
1, 158829, Control_c, 0, 67, 97
1, 158845, Control_c, 0, 67, 95
1, 158860, Control_c, 0, 67, 94
1, 158874, Control_c, 0, 67, 92
1, 158889, Control_c, 0, 67, 89
1, 158904, Control_c, 0, 67, 87
1, 158919, Control_c, 0, 67, 85
1, 158934, Control_c, 0, 67, 84
1, 158939, Note_on_c, 0, 48, 54
1, 158948, Control_c, 0, 67, 82
1, 158963, Control_c, 0, 67, 81
1, 158978, Control_c, 0, 67, 80
1, 158993, Control_c, 0, 67, 78
1, 159009, Control_c, 0, 67, 76
1, 159023, Control_c, 0, 67, 74
1, 159038, Control_c, 0, 67, 72
1, 159053, Control_c, 0, 67, 69
1, 159067, Control_c, 0, 67, 65
1, 159082, Control_c, 0, 67, 61
1, 159097, Control_c, 0, 67, 56
1, 159100, Note_off_c, 0, 48, 61
1, 159112, Note_on_c, 0, 36, 56
1, 159112, Control_c, 0, 67, 51
1, 159127, Control_c, 0, 67, 46
1, 159142, Control_c, 0, 67, 40
1, 159146, Note_off_c, 0, 36, 64
1, 159157, Control_c, 0, 67, 35
1, 159172, Control_c, 0, 67, 30
1, 159186, Control_c, 0, 67, 24
1, 159201, Control_c, 0, 67, 19
1, 159216, Control_c, 0, 67, 14
1, 159231, Control_c, 0, 67, 10
1, 159246, Control_c, 0, 67, 8
1, 159260, Control_c, 0, 67, 0
1, 159289, Note_on_c, 0, 76, 72
1, 159461, Note_off_c, 0, 76, 61
1, 159467, Note_on_c, 0, 65, 63
1, 159475, Control_c, 0, 64, 12
1, 159490, Control_c, 0, 64, 15
1, 159500, Note_off_c, 0, 65, 65
1, 159520, Control_c, 0, 64, 18
1, 159566, Note_on_c, 0, 48, 57
1, 159608, Control_c, 0, 64, 20
1, 159619, Note_off_c, 0, 48, 62
1, 159662, Note_on_c, 0, 36, 51
1, 159705, Note_off_c, 0, 36, 60
1, 159741, Note_on_c, 0, 48, 62
1, 159786, Note_off_c, 0, 48, 62
1, 159813, Note_on_c, 0, 36, 71
1, 159855, Note_off_c, 0, 36, 63
1, 159911, Note_on_c, 0, 74, 76
1, 159935, Control_c, 0, 64, 22
1, 159979, Note_off_c, 0, 74, 62
1, 159997, Note_on_c, 0, 65, 72
1, 160033, Note_off_c, 0, 65, 65
1, 160054, Control_c, 0, 64, 24
1, 160054, Control_c, 0, 67, 8
1, 160081, Note_on_c, 0, 74, 71
1, 160105, Control_c, 0, 67, 8
1, 160120, Control_c, 0, 67, 9
1, 160135, Control_c, 0, 67, 9
1, 160150, Control_c, 0, 67, 10
1, 160154, Note_off_c, 0, 74, 62
1, 160172, Note_on_c, 0, 64, 72
1, 160209, Control_c, 0, 67, 10
1, 160211, Note_off_c, 0, 64, 63
1, 160239, Control_c, 0, 67, 11
1, 160255, Note_on_c, 0, 48, 63
1, 160283, Control_c, 0, 67, 11
1, 160304, Note_off_c, 0, 48, 62
1, 160313, Control_c, 0, 67, 12
1, 160338, Note_on_c, 0, 36, 62
1, 160358, Control_c, 0, 64, 26
1, 160372, Control_c, 0, 67, 12
1, 160391, Note_off_c, 0, 36, 59
1, 160402, Control_c, 0, 67, 13
1, 160417, Note_on_c, 0, 48, 62
1, 160447, Control_c, 0, 67, 13
1, 160471, Note_off_c, 0, 48, 61
1, 160499, Note_on_c, 0, 36, 71
1, 160535, Control_c, 0, 67, 14
1, 160546, Note_off_c, 0, 36, 59
1, 160581, Note_on_c, 0, 72, 82
1, 160609, Control_c, 0, 67, 14
1, 160647, Note_off_c, 0, 72, 59
1, 160653, Control_c, 0, 64, 27
1, 160653, Control_c, 0, 67, 15
1, 160674, Note_on_c, 0, 64, 65
1, 160707, Note_off_c, 0, 64, 65
1, 160752, Note_on_c, 0, 72, 78
1, 160787, Control_c, 0, 67, 15
1, 160830, Note_off_c, 0, 72, 61
1, 160838, Control_c, 0, 67, 16
1, 160856, Note_on_c, 0, 62, 68
1, 160868, Control_c, 0, 67, 16
1, 160883, Control_c, 0, 67, 17
1, 160898, Control_c, 0, 67, 18
1, 160912, Control_c, 0, 67, 19
1, 160927, Control_c, 0, 67, 19
1, 160942, Control_c, 0, 67, 20
1, 160972, Control_c, 0, 67, 21
1, 161002, Control_c, 0, 67, 22
1, 161017, Control_c, 0, 67, 22
1, 161021, Note_off_c, 0, 62, 59
1, 161032, Control_c, 0, 67, 23
1, 161036, Note_on_c, 0, 69, 74
1, 161046, Control_c, 0, 67, 24
1, 161061, Control_c, 0, 67, 25
1, 161076, Control_c, 0, 64, 28
1, 161076, Control_c, 0, 67, 26
1, 161087, Note_off_c, 0, 69, 61
1, 161091, Control_c, 0, 67, 27
1, 161106, Control_c, 0, 64, 31
1, 161106, Control_c, 0, 67, 28
1, 161120, Control_c, 0, 64, 32
1, 161120, Control_c, 0, 67, 29
1, 161135, Control_c, 0, 67, 30
1, 161150, Control_c, 0, 67, 31
1, 161164, Control_c, 0, 67, 32
1, 161179, Control_c, 0, 67, 33
1, 161194, Control_c, 0, 67, 34
1, 161209, Control_c, 0, 67, 35
1, 161222, Note_on_c, 0, 57, 64
1, 161240, Control_c, 0, 67, 36
1, 161255, Control_c, 0, 67, 37
1, 161269, Control_c, 0, 67, 37
1, 161284, Control_c, 0, 67, 38
1, 161299, Control_c, 0, 67, 39
1, 161314, Control_c, 0, 67, 40
1, 161329, Control_c, 0, 67, 41
1, 161343, Control_c, 0, 67, 41
1, 161358, Control_c, 0, 67, 42
1, 161388, Control_c, 0, 64, 31
1, 161388, Control_c, 0, 67, 42
1, 161401, Note_on_c, 0, 59, 68
1, 161405, Note_off_c, 0, 57, 57
1, 161417, Control_c, 0, 67, 43
1, 161432, Control_c, 0, 67, 43
1, 161447, Control_c, 0, 67, 44
1, 161458, Note_off_c, 0, 59, 62
1, 161461, Control_c, 0, 67, 45
1, 161476, Control_c, 0, 67, 46
1, 161521, Control_c, 0, 67, 46
1, 161550, Control_c, 0, 67, 47
1, 161573, Control_c, 0, 67, 47
1, 161588, Control_c, 0, 67, 48
1, 161589, Note_on_c, 0, 62, 63
1, 161602, Control_c, 0, 67, 48
1, 161617, Control_c, 0, 67, 49
1, 161647, Control_c, 0, 67, 50
1, 161675, Note_on_c, 0, 48, 44
1, 161676, Control_c, 0, 67, 50
1, 161691, Control_c, 0, 67, 51
1, 161706, Control_c, 0, 67, 52
1, 161721, Control_c, 0, 67, 52
1, 161736, Control_c, 0, 67, 53
1, 161739, Note_off_c, 0, 48, 61
1, 161750, Control_c, 0, 67, 53
1, 161765, Control_c, 0, 67, 54
1, 161767, Note_on_c, 0, 36, 46
1, 161780, Control_c, 0, 64, 30
1, 161780, Control_c, 0, 67, 54
1, 161783, Note_off_c, 0, 62, 59
1, 161787, Note_on_c, 0, 60, 64
1, 161795, Control_c, 0, 67, 55
1, 161804, Note_off_c, 0, 36, 60
1, 161810, Control_c, 0, 67, 55
1, 161825, Control_c, 0, 64, 28
1, 161825, Control_c, 0, 67, 56
1, 161832, Note_off_c, 0, 60, 59
1, 161850, Note_on_c, 0, 48, 52
1, 161854, Control_c, 0, 64, 27
1, 161854, Control_c, 0, 67, 56
1, 161869, Control_c, 0, 64, 26
1, 161884, Control_c, 0, 64, 24
1, 161884, Control_c, 0, 67, 57
1, 161899, Control_c, 0, 64, 22
1, 161906, Note_off_c, 0, 48, 60
1, 161914, Control_c, 0, 64, 18
1, 161929, Control_c, 0, 64, 15
1, 161931, Note_on_c, 0, 36, 50
1, 161943, Control_c, 0, 64, 12
1, 161958, Control_c, 0, 64, 0
1, 161978, Note_off_c, 0, 36, 60
1, 162152, Control_c, 0, 67, 56
1, 162156, Note_on_c, 0, 62, 62
1, 162166, Control_c, 0, 67, 56
1, 162168, Note_on_c, 0, 59, 54
1, 162196, Control_c, 0, 67, 55
1, 162206, Note_off_c, 0, 59, 60
1, 162215, Note_off_c, 0, 62, 50
1, 162225, Control_c, 0, 67, 55
1, 162240, Control_c, 0, 67, 54
1, 162270, Control_c, 0, 67, 54
1, 162337, Control_c, 0, 67, 53
1, 162349, Note_on_c, 0, 65, 70
1, 162354, Note_on_c, 0, 62, 58
1, 162445, Note_on_c, 0, 48, 52
1, 162455, Control_c, 0, 67, 53
1, 162485, Note_off_c, 0, 62, 57
1, 162502, Note_off_c, 0, 48, 60
1, 162525, Note_off_c, 0, 65, 63
1, 162535, Note_on_c, 0, 64, 64
1, 162537, Note_on_c, 0, 60, 56
1, 162541, Note_on_c, 0, 36, 49
1, 162576, Note_off_c, 0, 60, 61
1, 162580, Note_off_c, 0, 36, 59
1, 162588, Control_c, 0, 67, 52
1, 162597, Note_off_c, 0, 64, 61
1, 162603, Control_c, 0, 67, 51
1, 162617, Control_c, 0, 67, 51
1, 162620, Note_on_c, 0, 48, 58
1, 162632, Control_c, 0, 67, 50
1, 162662, Control_c, 0, 67, 49
1, 162677, Control_c, 0, 67, 49
1, 162683, Note_off_c, 0, 48, 61
1, 162713, Note_on_c, 0, 36, 63
1, 162754, Note_off_c, 0, 36, 64
1, 162905, Note_on_c, 0, 65, 69
1, 162907, Note_on_c, 0, 62, 62
1, 162939, Note_off_c, 0, 62, 63
1, 162945, Note_off_c, 0, 65, 60
1, 163106, Note_on_c, 0, 65, 74
1, 163106, Note_on_c, 0, 69, 73
1, 163225, Note_on_c, 0, 48, 59
1, 163234, Control_c, 0, 67, 49
1, 163261, Note_off_c, 0, 65, 63
1, 163279, Control_c, 0, 67, 50
1, 163287, Note_off_c, 0, 48, 62
1, 163306, Note_on_c, 0, 67, 71
1, 163309, Control_c, 0, 67, 50
1, 163309, Note_on_c, 0, 64, 60
1, 163310, Note_off_c, 0, 69, 60
1, 163316, Note_on_c, 0, 36, 63
1, 163338, Control_c, 0, 67, 51
1, 163346, Note_off_c, 0, 64, 60
1, 163353, Control_c, 0, 67, 51
1, 163365, Note_off_c, 0, 36, 61
1, 163367, Note_off_c, 0, 67, 63
1, 163367, Control_c, 0, 67, 52
1, 163400, Note_on_c, 0, 48, 64
1, 163412, Control_c, 0, 67, 52
1, 163452, Note_off_c, 0, 48, 61
1, 163456, Control_c, 0, 67, 53
1, 163480, Note_on_c, 0, 36, 75
1, 163536, Note_off_c, 0, 36, 59
1, 163574, Note_on_c, 0, 71, 76
1, 163642, Note_off_c, 0, 71, 64
1, 163654, Note_on_c, 0, 62, 77
1, 163717, Note_off_c, 0, 62, 57
1, 163736, Note_on_c, 0, 71, 76
1, 163774, Note_off_c, 0, 71, 61
1, 163840, Note_on_c, 0, 65, 84
1, 163840, Note_on_c, 0, 74, 84
1, 163923, Note_off_c, 0, 65, 62
1, 163940, Note_on_c, 0, 48, 68
1, 164012, Note_off_c, 0, 48, 63
1, 164017, Note_on_c, 0, 64, 80
1, 164019, Note_on_c, 0, 72, 84
1, 164022, Note_off_c, 0, 74, 57
1, 164032, Note_on_c, 0, 36, 72
1, 164065, Note_off_c, 0, 64, 63
1, 164091, Note_off_c, 0, 36, 58
1, 164102, Control_c, 0, 67, 53
1, 164105, Note_off_c, 0, 72, 63
1, 164114, Note_on_c, 0, 48, 71
1, 164146, Control_c, 0, 67, 54
1, 164176, Note_off_c, 0, 48, 63
1, 164190, Control_c, 0, 67, 54
1, 164200, Note_on_c, 0, 36, 81
1, 164235, Control_c, 0, 67, 55
1, 164260, Note_off_c, 0, 36, 63
1, 164263, Control_c, 0, 67, 56
1, 164308, Control_c, 0, 67, 56
1, 164320, Note_on_c, 0, 74, 80
1, 164352, Control_c, 0, 67, 57
1, 164424, Note_off_c, 0, 74, 64
1, 164430, Note_on_c, 0, 71, 84
1, 164546, Note_on_c, 0, 74, 82
1, 164564, Note_off_c, 0, 71, 50
1, 164583, Control_c, 0, 67, 57
1, 164623, Note_off_c, 0, 74, 61
1, 164823, Note_on_c, 0, 77, 84
1, 164829, Note_on_c, 0, 74, 76
1, 164865, Control_c, 0, 67, 58
1, 165130, Control_c, 0, 64, 12
1, 165145, Control_c, 0, 64, 18
1, 165160, Control_c, 0, 64, 20
1, 165175, Control_c, 0, 64, 22
1, 165190, Control_c, 0, 64, 24
1, 165235, Control_c, 0, 64, 26
1, 165265, Control_c, 0, 67, 58
1, 165317, Control_c, 0, 67, 59
1, 165332, Control_c, 0, 64, 27
1, 165332, Control_c, 0, 67, 59
1, 165347, Control_c, 0, 64, 28
1, 165347, Control_c, 0, 67, 60
1, 165361, Control_c, 0, 67, 62
1, 165376, Control_c, 0, 64, 31
1, 165376, Control_c, 0, 67, 64
1, 165391, Control_c, 0, 64, 35
1, 165391, Control_c, 0, 67, 67
1, 165406, Control_c, 0, 64, 40
1, 165406, Control_c, 0, 67, 69
1, 165421, Control_c, 0, 64, 45
1, 165421, Control_c, 0, 67, 71
1, 165435, Control_c, 0, 64, 50
1, 165435, Control_c, 0, 67, 73
1, 165450, Control_c, 0, 64, 54
1, 165450, Control_c, 0, 67, 76
1, 165465, Control_c, 0, 64, 57
1, 165465, Control_c, 0, 67, 78
1, 165480, Control_c, 0, 64, 59
1, 165480, Control_c, 0, 67, 80
1, 165495, Control_c, 0, 64, 62
1, 165495, Control_c, 0, 67, 82
1, 165509, Control_c, 0, 64, 64
1, 165509, Control_c, 0, 67, 84
1, 165524, Control_c, 0, 64, 64
1, 165524, Control_c, 0, 67, 86
1, 165539, Control_c, 0, 64, 65
1, 165539, Control_c, 0, 67, 87
1, 165554, Control_c, 0, 64, 66
1, 165554, Control_c, 0, 67, 88
1, 165569, Control_c, 0, 64, 68
1, 165569, Control_c, 0, 67, 89
1, 165583, Control_c, 0, 64, 71
1, 165583, Control_c, 0, 67, 91
1, 165598, Control_c, 0, 64, 76
1, 165598, Control_c, 0, 67, 92
1, 165613, Control_c, 0, 64, 80
1, 165613, Control_c, 0, 67, 94
1, 165628, Control_c, 0, 64, 82
1, 165628, Control_c, 0, 67, 96
1, 165643, Control_c, 0, 64, 83
1, 165643, Control_c, 0, 67, 99
1, 165658, Control_c, 0, 64, 84
1, 165658, Control_c, 0, 67, 103
1, 165673, Control_c, 0, 64, 85
1, 165673, Control_c, 0, 67, 107
1, 165688, Control_c, 0, 64, 87
1, 165688, Control_c, 0, 67, 111
1, 165702, Control_c, 0, 64, 88
1, 165702, Control_c, 0, 67, 116
1, 165717, Control_c, 0, 64, 89
1, 165717, Control_c, 0, 67, 121
1, 165732, Control_c, 0, 64, 90
1, 165732, Control_c, 0, 67, 126
1, 165747, Control_c, 0, 64, 91
1, 165747, Control_c, 0, 67, 127
1, 165762, Control_c, 0, 64, 92
1, 165777, Control_c, 0, 64, 93
1, 165792, Control_c, 0, 64, 93
1, 165807, Control_c, 0, 64, 94
1, 165822, Control_c, 0, 64, 95
1, 165836, Control_c, 0, 64, 96
1, 165851, Control_c, 0, 64, 97
1, 165866, Control_c, 0, 64, 97
1, 165880, Control_c, 0, 64, 98
1, 165891, Note_off_c, 0, 77, 41
1, 165895, Control_c, 0, 64, 99
1, 165910, Control_c, 0, 64, 99
1, 165925, Control_c, 0, 64, 100
1, 165940, Control_c, 0, 64, 101
1, 165944, Note_off_c, 0, 74, 32
1, 165954, Control_c, 0, 64, 102
1, 165969, Control_c, 0, 64, 103
1, 165984, Control_c, 0, 64, 104
1, 165999, Control_c, 0, 64, 104
1, 166014, Control_c, 0, 64, 105
1, 166030, Control_c, 0, 64, 105
1, 166045, Control_c, 0, 64, 106
1, 166066, Control_c, 0, 64, 106
1, 166096, Control_c, 0, 64, 107
1, 166156, Control_c, 0, 64, 107
1, 166200, Control_c, 0, 64, 108
1, 166259, Control_c, 0, 64, 108
1, 166289, Control_c, 0, 64, 109
1, 166378, Control_c, 0, 64, 109
1, 166496, Control_c, 0, 64, 110
1, 166622, Note_on_c, 0, 72, 51
1, 166622, Note_on_c, 0, 76, 46
1, 166659, Control_c, 0, 64, 109
1, 166674, Control_c, 0, 64, 108
1, 166689, Control_c, 0, 64, 105
1, 166703, Control_c, 0, 64, 98
1, 166718, Control_c, 0, 64, 91
1, 166733, Control_c, 0, 64, 84
1, 166748, Control_c, 0, 64, 77
1, 166763, Control_c, 0, 64, 68
1, 166777, Control_c, 0, 64, 58
1, 166792, Control_c, 0, 64, 0
1, 166860, Control_c, 0, 64, 28
1, 166875, Control_c, 0, 64, 47
1, 166889, Control_c, 0, 64, 59
1, 166904, Control_c, 0, 64, 64
1, 166919, Control_c, 0, 64, 68
1, 166934, Control_c, 0, 64, 73
1, 166949, Control_c, 0, 64, 80
1, 166964, Control_c, 0, 64, 86
1, 166979, Control_c, 0, 64, 91
1, 166993, Control_c, 0, 64, 94
1, 167008, Control_c, 0, 64, 97
1, 167011, Note_off_c, 0, 72, 43
1, 167023, Control_c, 0, 64, 100
1, 167031, Note_off_c, 0, 76, 62
1, 167038, Control_c, 0, 64, 103
1, 167053, Control_c, 0, 64, 104
1, 167068, Control_c, 0, 64, 105
1, 167082, Control_c, 0, 64, 106
1, 167304, Control_c, 0, 67, 126
1, 167319, Control_c, 0, 67, 113
1, 167333, Control_c, 0, 67, 100
1, 167348, Control_c, 0, 67, 86
1, 167363, Control_c, 0, 67, 72
1, 167378, Control_c, 0, 67, 58
1, 167393, Control_c, 0, 67, 48
1, 167408, Control_c, 0, 67, 40
1, 167423, Control_c, 0, 67, 32
1, 167438, Control_c, 0, 67, 26
1, 167452, Control_c, 0, 67, 20
1, 167467, Control_c, 0, 67, 16
1, 167482, Control_c, 0, 67, 11
1, 167497, Control_c, 0, 67, 0
1, 167526, Control_c, 0, 64, 105
1, 167541, Control_c, 0, 64, 105
1, 167563, Control_c, 0, 64, 104
1, 167578, Control_c, 0, 64, 101
1, 167593, Control_c, 0, 64, 98
1, 167607, Control_c, 0, 64, 92
1, 167622, Control_c, 0, 64, 86
1, 167638, Control_c, 0, 64, 79
1, 167653, Control_c, 0, 64, 71
1, 167668, Control_c, 0, 64, 63
1, 167683, Control_c, 0, 64, 39
1, 167698, Control_c, 0, 64, 31
1, 167712, Control_c, 0, 64, 32
1, 167727, Control_c, 0, 64, 33
1, 167846, Control_c, 0, 64, 37
1, 167858, Note_on_c, 0, 36, 61
1, 167861, Control_c, 0, 64, 48
1, 167876, Control_c, 0, 64, 61
1, 167888, Note_on_c, 0, 72, 74
1, 167890, Control_c, 0, 64, 67
1, 167895, Note_on_c, 0, 40, 57
1, 167898, Note_on_c, 0, 76, 75
1, 167903, Note_on_c, 0, 43, 62
1, 167905, Control_c, 0, 64, 78
1, 167906, Note_off_c, 0, 72, 65
1, 167907, Note_on_c, 0, 79, 71
1, 167920, Control_c, 0, 64, 91
1, 167934, Note_on_c, 0, 48, 79
1, 167935, Note_on_c, 0, 84, 83
1, 167935, Control_c, 0, 64, 102
1, 167942, Note_off_c, 0, 76, 65
1, 167943, Note_off_c, 0, 43, 63
1, 167947, Note_off_c, 0, 40, 63
1, 167947, Note_off_c, 0, 36, 62
1, 167950, Control_c, 0, 64, 109
1, 167950, Note_on_c, 0, 86, 61
1, 167951, Note_off_c, 0, 86, 127
1, 167956, Note_off_c, 0, 79, 65
1, 167964, Control_c, 0, 64, 112
1, 167971, Note_off_c, 0, 84, 66
1, 167979, Control_c, 0, 64, 113
1, 167980, Note_off_c, 0, 48, 61
1, 168171, Control_c, 0, 64, 112
1, 168186, Control_c, 0, 64, 106
1, 168201, Control_c, 0, 64, 91
1, 168202, Note_on_c, 0, 43, 60
1, 168216, Control_c, 0, 64, 78
1, 168226, Note_on_c, 0, 71, 70
1, 168230, Note_on_c, 0, 47, 61
1, 168230, Control_c, 0, 64, 66
1, 168244, Note_on_c, 0, 50, 59
1, 168245, Control_c, 0, 64, 53
1, 168250, Note_on_c, 0, 74, 73
1, 168257, Note_off_c, 0, 71, 68
1, 168260, Control_c, 0, 64, 63
1, 168275, Control_c, 0, 64, 68
1, 168275, Note_on_c, 0, 79, 93
1, 168277, Note_on_c, 0, 55, 80
1, 168282, Note_off_c, 0, 50, 66
1, 168290, Control_c, 0, 64, 78
1, 168290, Note_off_c, 0, 43, 62
1, 168291, Note_off_c, 0, 47, 62
1, 168294, Note_off_c, 0, 74, 67
1, 168312, Control_c, 0, 64, 88
1, 168317, Note_off_c, 0, 79, 67
1, 168327, Control_c, 0, 64, 94
1, 168338, Note_off_c, 0, 55, 64
1, 168342, Control_c, 0, 64, 94
1, 168401, Control_c, 0, 64, 95
1, 168520, Control_c, 0, 64, 93
1, 168535, Control_c, 0, 64, 86
1, 168550, Control_c, 0, 64, 76
1, 168553, Note_on_c, 0, 48, 61
1, 168565, Control_c, 0, 64, 65
1, 168573, Note_on_c, 0, 67, 66
1, 168579, Control_c, 0, 64, 42
1, 168584, Note_on_c, 0, 52, 62
1, 168594, Control_c, 0, 64, 56
1, 168601, Note_on_c, 0, 72, 80
1, 168603, Note_on_c, 0, 55, 64
1, 168606, Note_off_c, 0, 67, 68
1, 168609, Control_c, 0, 64, 65
1, 168624, Control_c, 0, 64, 72
1, 168629, Note_on_c, 0, 76, 86
1, 168633, Note_on_c, 0, 60, 80
1, 168639, Control_c, 0, 64, 83
1, 168648, Note_off_c, 0, 72, 65
1, 168650, Note_off_c, 0, 48, 62
1, 168654, Control_c, 0, 64, 93
1, 168664, Note_off_c, 0, 76, 68
1, 168666, Note_off_c, 0, 55, 63
1, 168667, Note_off_c, 0, 52, 61
1, 168669, Control_c, 0, 64, 97
1, 168678, Note_off_c, 0, 60, 59
1, 168684, Control_c, 0, 64, 98
1, 168698, Control_c, 0, 64, 99
1, 168728, Control_c, 0, 64, 99
1, 168743, Control_c, 0, 64, 100
1, 168758, Control_c, 0, 64, 100
1, 168773, Control_c, 0, 64, 101
1, 168787, Control_c, 0, 67, 8
1, 168802, Control_c, 0, 64, 101
1, 168802, Control_c, 0, 67, 8
1, 168817, Control_c, 0, 64, 102
1, 168832, Control_c, 0, 64, 103
1, 168832, Control_c, 0, 67, 9
1, 168847, Control_c, 0, 64, 103
1, 168847, Control_c, 0, 67, 9
1, 168861, Control_c, 0, 64, 104
1, 168861, Control_c, 0, 67, 10
1, 168876, Control_c, 0, 64, 105
1, 168891, Control_c, 0, 64, 105
1, 168891, Control_c, 0, 67, 11
1, 168905, Control_c, 0, 67, 11
1, 168920, Control_c, 0, 67, 12
1, 168950, Control_c, 0, 67, 12
1, 168979, Control_c, 0, 67, 13
1, 168994, Control_c, 0, 64, 105
1, 168994, Control_c, 0, 67, 13
1, 169009, Control_c, 0, 64, 103
1, 169009, Control_c, 0, 67, 15
1, 169023, Control_c, 0, 64, 99
1, 169023, Control_c, 0, 67, 16
1, 169038, Control_c, 0, 64, 94
1, 169038, Control_c, 0, 67, 17
1, 169061, Control_c, 0, 64, 88
1, 169061, Control_c, 0, 67, 17
1, 169076, Control_c, 0, 64, 80
1, 169091, Control_c, 0, 64, 70
1, 169105, Control_c, 0, 64, 42
1, 169120, Control_c, 0, 64, 0
1, 169135, Note_on_c, 0, 83, 68
1, 169169, Note_off_c, 0, 83, 68
1, 169174, Note_on_c, 0, 81, 77
1, 169208, Note_off_c, 0, 81, 66
1, 169229, Note_on_c, 0, 80, 71
1, 169240, Control_c, 0, 67, 18
1, 169255, Control_c, 0, 67, 20
1, 169268, Note_on_c, 0, 81, 85
1, 169270, Control_c, 0, 67, 23
1, 169283, Note_off_c, 0, 80, 65
1, 169284, Control_c, 0, 67, 29
1, 169299, Control_c, 0, 67, 37
1, 169306, Note_on_c, 0, 74, 76
1, 169313, Note_off_c, 0, 81, 67
1, 169314, Control_c, 0, 67, 46
1, 169328, Control_c, 0, 67, 57
1, 169329, Note_off_c, 0, 74, 70
1, 169343, Control_c, 0, 67, 68
1, 169358, Control_c, 0, 67, 74
1, 169373, Control_c, 0, 67, 79
1, 169388, Control_c, 0, 67, 83
1, 169402, Control_c, 0, 67, 86
1, 169417, Control_c, 0, 67, 90
1, 169432, Control_c, 0, 67, 92
1, 169447, Control_c, 0, 67, 96
1, 169462, Control_c, 0, 67, 99
1, 169463, Note_on_c, 0, 67, 63
1, 169477, Control_c, 0, 67, 102
1, 169482, Note_on_c, 0, 65, 72
1, 169491, Control_c, 0, 67, 107
1, 169496, Note_off_c, 0, 67, 64
1, 169506, Control_c, 0, 67, 114
1, 169509, Note_off_c, 0, 65, 66
1, 169520, Control_c, 0, 67, 122
1, 169535, Note_on_c, 0, 64, 55
1, 169535, Control_c, 0, 67, 127
1, 169569, Note_on_c, 0, 65, 68
1, 169595, Note_off_c, 0, 64, 62
1, 169608, Note_off_c, 0, 65, 66
1, 169625, Note_on_c, 0, 71, 75
1, 169653, Note_off_c, 0, 71, 66
1, 169812, Note_on_c, 0, 81, 64
1, 169846, Note_off_c, 0, 81, 67
1, 169850, Note_on_c, 0, 79, 65
1, 169877, Note_off_c, 0, 79, 66
1, 169897, Note_on_c, 0, 78, 64
1, 169941, Note_on_c, 0, 79, 70
1, 169958, Note_off_c, 0, 78, 63
1, 169982, Note_on_c, 0, 72, 76
1, 169986, Note_off_c, 0, 79, 62
1, 170017, Note_off_c, 0, 72, 61
1, 170118, Note_on_c, 0, 65, 56
1, 170149, Note_on_c, 0, 64, 63
1, 170171, Note_off_c, 0, 65, 61
1, 170177, Note_off_c, 0, 64, 66
1, 170198, Note_on_c, 0, 62, 48
1, 170237, Note_on_c, 0, 64, 71
1, 170250, Note_off_c, 0, 62, 55
1, 170269, Note_off_c, 0, 64, 67
1, 170298, Note_on_c, 0, 72, 80
1, 170323, Note_off_c, 0, 72, 69
1, 170479, Note_on_c, 0, 88, 81
1, 170670, Note_on_c, 0, 77, 71
1, 170685, Note_off_c, 0, 88, 62
1, 170742, Note_off_c, 0, 77, 59
1, 170754, Note_on_c, 0, 62, 58
1, 170801, Note_off_c, 0, 62, 58
1, 170842, Note_on_c, 0, 61, 66
1, 170910, Note_off_c, 0, 61, 60
1, 170932, Note_on_c, 0, 62, 71
1, 170982, Note_off_c, 0, 62, 60
1, 171015, Note_on_c, 0, 60, 74
1, 171092, Note_off_c, 0, 60, 60
1, 171112, Note_on_c, 0, 59, 60
1, 171170, Note_off_c, 0, 59, 58
1, 171196, Note_on_c, 0, 57, 63
1, 171204, Note_on_c, 0, 86, 72
1, 171286, Note_off_c, 0, 57, 59
1, 171299, Note_on_c, 0, 55, 62
1, 171338, Note_off_c, 0, 55, 64
1, 171386, Note_on_c, 0, 76, 68
1, 171388, Note_off_c, 0, 86, 62
1, 171448, Note_off_c, 0, 76, 60
1, 171488, Note_on_c, 0, 60, 65
1, 171572, Note_on_c, 0, 62, 70
1, 171587, Note_off_c, 0, 60, 50
1, 171645, Note_on_c, 0, 64, 79
1, 171655, Note_off_c, 0, 62, 58
1, 171731, Note_off_c, 0, 64, 64
1, 171733, Note_on_c, 0, 65, 84
1, 171799, Note_off_c, 0, 65, 63
1, 171830, Note_on_c, 0, 67, 69
1, 171882, Note_off_c, 0, 67, 56
1, 171907, Note_on_c, 0, 84, 84
1, 171911, Note_on_c, 0, 68, 71
1, 171963, Note_off_c, 0, 68, 60
1, 172009, Note_on_c, 0, 69, 61
1, 172085, Note_off_c, 0, 69, 58
1, 172094, Note_off_c, 0, 84, 60
1, 172112, Note_on_c, 0, 74, 69
1, 172115, Note_on_c, 0, 65, 61
1, 172142, Note_off_c, 0, 74, 67
1, 172287, Note_on_c, 0, 81, 88
1, 172292, Note_on_c, 0, 77, 72
1, 172329, Note_off_c, 0, 77, 60
1, 172338, Note_off_c, 0, 81, 64
1, 172454, Note_off_c, 0, 65, 63
1, 172490, Note_on_c, 0, 76, 78
1, 172491, Note_on_c, 0, 79, 78
1, 172545, Control_c, 0, 67, 123
1, 172560, Control_c, 0, 67, 115
1, 172575, Control_c, 0, 67, 105
1, 172590, Control_c, 0, 67, 97
1, 172604, Control_c, 0, 67, 89
1, 172619, Control_c, 0, 67, 83
1, 172634, Control_c, 0, 67, 77
1, 172649, Control_c, 0, 67, 73
1, 172664, Control_c, 0, 67, 71
1, 172678, Note_on_c, 0, 71, 69
1, 172678, Note_off_c, 0, 76, 64
1, 172678, Control_c, 0, 67, 69
1, 172681, Note_off_c, 0, 79, 63
1, 172690, Note_on_c, 0, 67, 54
1, 172693, Control_c, 0, 67, 69
1, 172708, Note_off_c, 0, 71, 65
1, 172708, Control_c, 0, 64, 12
1, 172708, Control_c, 0, 67, 68
1, 172723, Control_c, 0, 67, 67
1, 172738, Control_c, 0, 67, 66
1, 172753, Control_c, 0, 67, 65
1, 172767, Control_c, 0, 67, 64
1, 172782, Control_c, 0, 67, 62
1, 172804, Control_c, 0, 67, 60
1, 172819, Control_c, 0, 67, 58
1, 172834, Control_c, 0, 67, 57
1, 172846, Note_off_c, 0, 67, 55
1, 172849, Control_c, 0, 67, 57
1, 172863, Note_on_c, 0, 72, 81
1, 172864, Control_c, 0, 67, 56
1, 172871, Note_on_c, 0, 64, 52
1, 172878, Note_on_c, 0, 60, 49
1, 172878, Control_c, 0, 67, 56
1, 172888, Note_off_c, 0, 72, 68
1, 172908, Control_c, 0, 67, 55
1, 172919, Note_off_c, 0, 64, 58
1, 172923, Control_c, 0, 67, 54
1, 172925, Note_off_c, 0, 60, 59
1, 172952, Control_c, 0, 67, 54
1, 172967, Note_on_c, 0, 67, 44
1, 173012, Note_off_c, 0, 67, 59
1, 173046, Note_on_c, 0, 64, 49
1, 173048, Note_on_c, 0, 72, 88
1, 173054, Note_on_c, 0, 60, 46
1, 173079, Note_off_c, 0, 72, 66
1, 173106, Note_off_c, 0, 60, 56
1, 173111, Note_off_c, 0, 64, 52
1, 173116, Control_c, 0, 67, 53
1, 173153, Note_on_c, 0, 67, 47
1, 173196, Note_off_c, 0, 67, 62
1, 173204, Control_c, 0, 64, 15
1, 173224, Note_on_c, 0, 64, 61
1, 173235, Note_on_c, 0, 60, 40
1, 173269, Note_off_c, 0, 64, 55
1, 173286, Note_off_c, 0, 60, 51
1, 173318, Note_on_c, 0, 67, 47
1, 173390, Note_off_c, 0, 67, 57
1, 173402, Note_on_c, 0, 81, 75
1, 173414, Note_on_c, 0, 64, 52
1, 173417, Note_on_c, 0, 60, 45
1, 173446, Note_off_c, 0, 81, 65
1, 173450, Note_on_c, 0, 79, 68
1, 173457, Note_off_c, 0, 64, 61
1, 173470, Note_off_c, 0, 60, 59
1, 173480, Note_off_c, 0, 79, 66
1, 173487, Control_c, 0, 64, 18
1, 173502, Note_on_c, 0, 78, 64
1, 173513, Note_on_c, 0, 67, 49
1, 173516, Control_c, 0, 64, 20
1, 173531, Control_c, 0, 64, 22
1, 173553, Note_on_c, 0, 79, 84
1, 173554, Control_c, 0, 64, 24
1, 173557, Note_off_c, 0, 67, 61
1, 173559, Note_off_c, 0, 78, 64
1, 173590, Note_on_c, 0, 71, 77
1, 173600, Note_on_c, 0, 60, 53
1, 173605, Note_on_c, 0, 65, 62
1, 173605, Note_off_c, 0, 79, 64
1, 173613, Control_c, 0, 67, 53
1, 173629, Note_off_c, 0, 71, 63
1, 173644, Note_off_c, 0, 60, 60
1, 173656, Note_off_c, 0, 65, 60
1, 173657, Control_c, 0, 64, 22
1, 173657, Control_c, 0, 67, 52
1, 173672, Control_c, 0, 64, 20
1, 173672, Control_c, 0, 67, 52
1, 173687, Control_c, 0, 64, 18
1, 173701, Control_c, 0, 64, 15
1, 173704, Note_on_c, 0, 67, 43
1, 173749, Note_off_c, 0, 67, 60
1, 173775, Note_on_c, 0, 71, 75
1, 173794, Note_on_c, 0, 65, 52
1, 173796, Note_on_c, 0, 60, 53
1, 173809, Note_off_c, 0, 71, 65
1, 173847, Note_off_c, 0, 60, 56
1, 173850, Note_off_c, 0, 65, 59
1, 173879, Control_c, 0, 64, 18
1, 173886, Note_on_c, 0, 67, 51
1, 173930, Note_off_c, 0, 67, 62
1, 173964, Note_on_c, 0, 65, 59
1, 173968, Note_on_c, 0, 60, 49
1, 174011, Note_off_c, 0, 65, 58
1, 174016, Note_off_c, 0, 60, 59
1, 174055, Note_on_c, 0, 67, 51
1, 174103, Control_c, 0, 67, 52
1, 174112, Note_off_c, 0, 67, 59
1, 174124, Note_on_c, 0, 81, 78
1, 174132, Control_c, 0, 67, 53
1, 174139, Note_on_c, 0, 60, 56
1, 174142, Note_on_c, 0, 65, 57
1, 174161, Note_off_c, 0, 81, 64
1, 174176, Control_c, 0, 67, 53
1, 174180, Note_on_c, 0, 79, 54
1, 174189, Note_on_c, 0, 80, 36
1, 174192, Note_off_c, 0, 65, 56
1, 174200, Note_off_c, 0, 79, 64
1, 174201, Note_off_c, 0, 60, 53
1, 174206, Control_c, 0, 67, 54
1, 174210, Note_on_c, 0, 78, 73
1, 174216, Note_off_c, 0, 80, 50
1, 174221, Control_c, 0, 64, 20
1, 174233, Note_on_c, 0, 67, 58
1, 174237, Note_off_c, 0, 78, 66
1, 174260, Note_on_c, 0, 79, 82
1, 174265, Control_c, 0, 64, 18
1, 174280, Control_c, 0, 64, 0
1, 174286, Note_off_c, 0, 67, 55
1, 174312, Note_off_c, 0, 79, 62
1, 174317, Note_on_c, 0, 84, 90
1, 174326, Note_on_c, 0, 60, 63
1, 174340, Note_on_c, 0, 64, 51
1, 174386, Note_off_c, 0, 64, 56
1, 174391, Control_c, 0, 64, 36
1, 174406, Control_c, 0, 64, 54
1, 174406, Control_c, 0, 67, 53
1, 174412, Note_off_c, 0, 60, 56
1, 174421, Control_c, 0, 64, 64
1, 174434, Note_on_c, 0, 67, 50
1, 174436, Control_c, 0, 64, 69
1, 174450, Control_c, 0, 64, 78
1, 174465, Control_c, 0, 64, 87
1, 174480, Control_c, 0, 64, 95
1, 174495, Control_c, 0, 64, 101
1, 174507, Note_off_c, 0, 84, 65
1, 174510, Control_c, 0, 64, 106
1, 174510, Control_c, 0, 67, 54
1, 174511, Note_off_c, 0, 67, 62
1, 174517, Note_on_c, 0, 88, 81
1, 174524, Control_c, 0, 64, 112
1, 174524, Control_c, 0, 67, 54
1, 174529, Note_on_c, 0, 60, 54
1, 174539, Note_on_c, 0, 64, 49
1, 174539, Control_c, 0, 64, 119
1, 174539, Control_c, 0, 67, 55
1, 174554, Control_c, 0, 64, 127
1, 174554, Control_c, 0, 67, 57
1, 174562, Note_off_c, 0, 88, 66
1, 174568, Control_c, 0, 67, 58
1, 174583, Control_c, 0, 67, 59
1, 174588, Note_off_c, 0, 64, 55
1, 174598, Control_c, 0, 67, 60
1, 174600, Note_off_c, 0, 60, 53
1, 174613, Control_c, 0, 67, 61
1, 174628, Control_c, 0, 67, 64
1, 174639, Note_on_c, 0, 67, 54
1, 174642, Control_c, 0, 67, 69
1, 174657, Control_c, 0, 67, 73
1, 174672, Control_c, 0, 67, 76
1, 174681, Note_off_c, 0, 67, 58
1, 174687, Control_c, 0, 67, 80
1, 174702, Control_c, 0, 67, 83
1, 174711, Note_on_c, 0, 64, 55
1, 174717, Control_c, 0, 67, 85
1, 174720, Note_on_c, 0, 60, 53
1, 174731, Control_c, 0, 67, 86
1, 174746, Control_c, 0, 67, 87
1, 174761, Control_c, 0, 67, 87
1, 174775, Note_off_c, 0, 60, 53
1, 174775, Control_c, 0, 67, 88
1, 174790, Control_c, 0, 64, 118
1, 174790, Control_c, 0, 67, 88
1, 174794, Note_off_c, 0, 64, 52
1, 174804, Note_on_c, 0, 67, 55
1, 174805, Control_c, 0, 64, 107
1, 174805, Control_c, 0, 67, 89
1, 174821, Control_c, 0, 64, 97
1, 174821, Control_c, 0, 67, 90
1, 174836, Note_on_c, 0, 79, 36
1, 174836, Control_c, 0, 64, 87
1, 174836, Control_c, 0, 67, 90
1, 174851, Control_c, 0, 64, 78
1, 174851, Control_c, 0, 67, 92
1, 174858, Note_on_c, 0, 81, 74
1, 174861, Note_off_c, 0, 67, 57
1, 174864, Note_off_c, 0, 79, 48
1, 174865, Control_c, 0, 64, 68
1, 174865, Control_c, 0, 67, 93
1, 174880, Control_c, 0, 64, 24
1, 174880, Control_c, 0, 67, 96
1, 174893, Note_on_c, 0, 60, 52
1, 174895, Control_c, 0, 64, 0
1, 174895, Control_c, 0, 67, 101
1, 174910, Control_c, 0, 67, 107
1, 174911, Note_on_c, 0, 64, 47
1, 174914, Note_off_c, 0, 81, 65
1, 174925, Control_c, 0, 67, 114
1, 174932, Note_on_c, 0, 79, 66
1, 174939, Control_c, 0, 67, 123
1, 174943, Note_off_c, 0, 64, 62
1, 174944, Note_off_c, 0, 60, 50
1, 174954, Control_c, 0, 67, 127
1, 174956, Note_off_c, 0, 79, 65
1, 174966, Note_on_c, 0, 78, 68
1, 174978, Note_on_c, 0, 67, 57
1, 175014, Note_on_c, 0, 79, 75
1, 175032, Note_off_c, 0, 67, 59
1, 175048, Note_off_c, 0, 78, 63
1, 175072, Note_off_c, 0, 79, 63
1, 175073, Note_on_c, 0, 71, 73
1, 175075, Note_on_c, 0, 60, 57
1, 175087, Note_on_c, 0, 65, 53
1, 175112, Note_off_c, 0, 71, 65
1, 175134, Note_off_c, 0, 60, 54
1, 175134, Note_off_c, 0, 65, 59
1, 175176, Note_on_c, 0, 67, 49
1, 175219, Note_off_c, 0, 67, 61
1, 175261, Note_on_c, 0, 71, 68
1, 175262, Note_on_c, 0, 60, 50
1, 175271, Note_on_c, 0, 65, 48
1, 175290, Note_off_c, 0, 71, 66
1, 175313, Note_off_c, 0, 60, 56
1, 175319, Note_off_c, 0, 65, 60
1, 175363, Note_on_c, 0, 67, 41
1, 175405, Note_off_c, 0, 67, 61
1, 175445, Note_on_c, 0, 60, 51
1, 175450, Note_on_c, 0, 65, 48
1, 175495, Note_off_c, 0, 60, 57
1, 175498, Note_off_c, 0, 65, 61
1, 175534, Note_on_c, 0, 67, 50
1, 175539, Note_on_c, 0, 79, 65
1, 175570, Note_off_c, 0, 79, 64
1, 175584, Note_off_c, 0, 67, 61
1, 175607, Note_on_c, 0, 81, 73
1, 175616, Note_on_c, 0, 65, 55
1, 175623, Note_on_c, 0, 60, 51
1, 175641, Note_off_c, 0, 81, 68
1, 175645, Note_on_c, 0, 79, 66
1, 175665, Note_off_c, 0, 65, 57
1, 175673, Note_off_c, 0, 60, 57
1, 175680, Note_off_c, 0, 79, 65
1, 175698, Note_on_c, 0, 78, 66
1, 175710, Note_on_c, 0, 67, 52
1, 175725, Note_off_c, 0, 78, 67
1, 175742, Note_on_c, 0, 79, 69
1, 175768, Note_off_c, 0, 67, 55
1, 175796, Note_off_c, 0, 79, 62
1, 175808, Note_on_c, 0, 84, 74
1, 175814, Note_on_c, 0, 60, 50
1, 175825, Note_on_c, 0, 64, 47
1, 175868, Note_off_c, 0, 64, 59
1, 175886, Note_off_c, 0, 60, 49
1, 175916, Note_on_c, 0, 67, 46
1, 175981, Note_off_c, 0, 67, 57
1, 175996, Note_off_c, 0, 84, 65
1, 176006, Note_on_c, 0, 88, 77
1, 176008, Note_on_c, 0, 60, 51
1, 176026, Note_on_c, 0, 64, 36
1, 176052, Control_c, 0, 64, 12
1, 176062, Note_off_c, 0, 88, 59
1, 176072, Note_off_c, 0, 60, 46
1, 176076, Note_off_c, 0, 64, 46
1, 176082, Control_c, 0, 64, 18
1, 176096, Control_c, 0, 64, 22
1, 176110, Note_on_c, 0, 67, 54
1, 176111, Control_c, 0, 64, 26
1, 176126, Control_c, 0, 64, 28
1, 176140, Control_c, 0, 64, 30
1, 176159, Note_off_c, 0, 67, 60
1, 176198, Note_on_c, 0, 60, 52
1, 176198, Note_on_c, 0, 64, 51
1, 176252, Note_off_c, 0, 60, 53
1, 176253, Note_off_c, 0, 64, 52
1, 176294, Note_on_c, 0, 67, 53
1, 176307, Note_on_c, 0, 79, 55
1, 176327, Note_off_c, 0, 79, 60
1, 176342, Note_off_c, 0, 67, 59
1, 176358, Note_on_c, 0, 81, 76
1, 176377, Note_on_c, 0, 64, 55
1, 176377, Note_on_c, 0, 60, 54
1, 176400, Note_on_c, 0, 79, 66
1, 176407, Note_off_c, 0, 81, 65
1, 176419, Note_off_c, 0, 64, 61
1, 176430, Note_off_c, 0, 60, 55
1, 176438, Note_off_c, 0, 79, 64
1, 176453, Note_on_c, 0, 78, 72
1, 176464, Note_on_c, 0, 67, 56
1, 176467, Control_c, 0, 64, 31
1, 176482, Control_c, 0, 64, 32
1, 176497, Control_c, 0, 67, 114
1, 176506, Note_on_c, 0, 79, 75
1, 176506, Note_off_c, 0, 67, 60
1, 176511, Control_c, 0, 67, 88
1, 176520, Note_off_c, 0, 78, 62
1, 176526, Control_c, 0, 64, 33
1, 176526, Control_c, 0, 67, 63
1, 176549, Note_on_c, 0, 71, 79
1, 176549, Control_c, 0, 67, 41
1, 176555, Note_on_c, 0, 60, 61
1, 176561, Note_off_c, 0, 79, 63
1, 176563, Control_c, 0, 67, 23
1, 176570, Note_on_c, 0, 65, 59
1, 176578, Control_c, 0, 67, 8
1, 176591, Note_off_c, 0, 71, 65
1, 176593, Control_c, 0, 67, 0
1, 176618, Note_off_c, 0, 60, 58
1, 176619, Note_off_c, 0, 65, 58
1, 176623, Control_c, 0, 64, 32
1, 176672, Note_on_c, 0, 67, 39
1, 176709, Note_off_c, 0, 67, 61
1, 176711, Control_c, 0, 64, 31
1, 176738, Note_on_c, 0, 71, 74
1, 176746, Note_on_c, 0, 60, 55
1, 176753, Note_on_c, 0, 65, 52
1, 176771, Note_off_c, 0, 71, 65
1, 176795, Note_off_c, 0, 60, 56
1, 176801, Note_off_c, 0, 65, 59
1, 176839, Note_on_c, 0, 67, 44
1, 176860, Control_c, 0, 64, 32
1, 176883, Note_off_c, 0, 67, 60
1, 176919, Note_on_c, 0, 60, 54
1, 176937, Note_on_c, 0, 65, 41
1, 176965, Note_off_c, 0, 60, 58
1, 176975, Note_off_c, 0, 65, 58
1, 177012, Note_on_c, 0, 67, 45
1, 177060, Note_off_c, 0, 67, 60
1, 177099, Note_on_c, 0, 65, 46
1, 177104, Note_on_c, 0, 60, 45
1, 177106, Note_on_c, 0, 81, 65
1, 177139, Note_off_c, 0, 81, 63
1, 177142, Note_on_c, 0, 79, 65
1, 177146, Note_off_c, 0, 65, 60
1, 177156, Note_off_c, 0, 60, 58
1, 177177, Note_off_c, 0, 79, 65
1, 177187, Note_on_c, 0, 67, 43
1, 177208, Note_on_c, 0, 78, 62
1, 177242, Note_off_c, 0, 67, 57
1, 177256, Note_on_c, 0, 79, 70
1, 177265, Note_off_c, 0, 78, 59
1, 177298, Note_on_c, 0, 60, 43
1, 177307, Note_on_c, 0, 72, 67
1, 177317, Note_on_c, 0, 64, 31
1, 177317, Note_off_c, 0, 79, 61
1, 177358, Note_off_c, 0, 60, 57
1, 177358, Note_off_c, 0, 64, 50
1, 177386, Note_on_c, 0, 67, 47
1, 177442, Note_off_c, 0, 67, 59
1, 177450, Note_off_c, 0, 72, 60
1, 177475, Control_c, 0, 64, 31
1, 177482, Note_on_c, 0, 60, 45
1, 177483, Note_on_c, 0, 81, 63
1, 177490, Note_on_c, 0, 64, 34
1, 177515, Note_off_c, 0, 81, 66
1, 177520, Note_on_c, 0, 79, 61
1, 177531, Note_off_c, 0, 64, 58
1, 177541, Note_off_c, 0, 60, 57
1, 177558, Note_off_c, 0, 79, 64
1, 177564, Control_c, 0, 64, 32
1, 177570, Note_on_c, 0, 67, 50
1, 177586, Note_on_c, 0, 78, 60
1, 177623, Note_off_c, 0, 67, 59
1, 177632, Note_off_c, 0, 78, 60
1, 177632, Note_on_c, 0, 79, 69
1, 177673, Note_off_c, 0, 79, 61
1, 177674, Note_on_c, 0, 59, 54
1, 177676, Note_on_c, 0, 74, 63
1, 177693, Note_on_c, 0, 62, 32
1, 177722, Note_off_c, 0, 59, 58
1, 177734, Note_off_c, 0, 62, 47
1, 177768, Note_on_c, 0, 67, 51
1, 177787, Note_off_c, 0, 74, 61
1, 177826, Note_off_c, 0, 67, 61
1, 177832, Note_on_c, 0, 81, 66
1, 177847, Note_on_c, 0, 59, 51
1, 177847, Note_on_c, 0, 62, 48
1, 177869, Note_off_c, 0, 81, 65
1, 177874, Note_on_c, 0, 79, 64
1, 177895, Note_off_c, 0, 62, 58
1, 177895, Note_off_c, 0, 59, 57
1, 177910, Note_off_c, 0, 79, 65
1, 177930, Note_on_c, 0, 78, 66
1, 177948, Note_on_c, 0, 67, 53
1, 177980, Note_on_c, 0, 79, 71
1, 177992, Note_off_c, 0, 78, 60
1, 177997, Note_off_c, 0, 67, 59
1, 178041, Note_on_c, 0, 76, 70
1, 178047, Note_off_c, 0, 79, 63
1, 178052, Note_on_c, 0, 60, 55
1, 178054, Note_on_c, 0, 64, 50
1, 178101, Note_off_c, 0, 64, 60
1, 178103, Note_off_c, 0, 60, 55
1, 178133, Note_on_c, 0, 67, 57
1, 178156, Note_off_c, 0, 76, 61
1, 178202, Note_off_c, 0, 67, 63
1, 178207, Note_on_c, 0, 81, 66
1, 178219, Note_on_c, 0, 64, 53
1, 178220, Note_on_c, 0, 60, 56
1, 178242, Note_off_c, 0, 81, 65
1, 178246, Note_on_c, 0, 79, 63
1, 178267, Note_off_c, 0, 64, 59
1, 178269, Control_c, 0, 67, 8
1, 178279, Note_off_c, 0, 60, 49
1, 178282, Note_off_c, 0, 79, 65
1, 178284, Control_c, 0, 67, 8
1, 178297, Note_on_c, 0, 78, 67
1, 178298, Control_c, 0, 67, 9
1, 178306, Note_on_c, 0, 67, 56
1, 178313, Control_c, 0, 67, 10
1, 178328, Control_c, 0, 67, 10
1, 178342, Control_c, 0, 64, 33
1, 178342, Control_c, 0, 67, 11
1, 178345, Note_off_c, 0, 78, 63
1, 178357, Control_c, 0, 67, 12
1, 178359, Note_on_c, 0, 79, 68
1, 178368, Note_off_c, 0, 67, 59
1, 178372, Control_c, 0, 64, 34
1, 178372, Control_c, 0, 67, 12
1, 178387, Control_c, 0, 67, 13
1, 178397, Note_on_c, 0, 71, 72
1, 178402, Control_c, 0, 64, 35
1, 178402, Control_c, 0, 67, 14
1, 178404, Note_on_c, 0, 65, 57
1, 178406, Note_on_c, 0, 62, 58
1, 178416, Control_c, 0, 67, 14
1, 178432, Note_off_c, 0, 79, 56
1, 178446, Control_c, 0, 67, 15
1, 178461, Note_off_c, 0, 65, 53
1, 178463, Note_off_c, 0, 62, 53
1, 178495, Note_on_c, 0, 67, 60
1, 178506, Control_c, 0, 64, 36
1, 178534, Note_off_c, 0, 71, 59
1, 178558, Note_off_c, 0, 67, 62
1, 178565, Control_c, 0, 67, 15
1, 178573, Note_on_c, 0, 80, 69
1, 178580, Control_c, 0, 64, 37
1, 178582, Note_on_c, 0, 65, 58
1, 178588, Note_on_c, 0, 62, 47
1, 178595, Control_c, 0, 67, 16
1, 178609, Control_c, 0, 64, 38
1, 178622, Note_on_c, 0, 79, 58
1, 178624, Control_c, 0, 64, 39
1, 178625, Note_off_c, 0, 80, 62
1, 178627, Note_off_c, 0, 62, 61
1, 178634, Note_off_c, 0, 65, 56
1, 178653, Control_c, 0, 64, 40
1, 178653, Control_c, 0, 67, 16
1, 178657, Note_off_c, 0, 79, 66
1, 178668, Note_on_c, 0, 78, 64
1, 178668, Control_c, 0, 64, 41
1, 178676, Note_on_c, 0, 67, 62
1, 178683, Control_c, 0, 64, 41
1, 178712, Note_off_c, 0, 78, 64
1, 178713, Control_c, 0, 64, 42
1, 178714, Note_on_c, 0, 79, 76
1, 178726, Note_off_c, 0, 67, 60
1, 178742, Control_c, 0, 64, 42
1, 178755, Note_on_c, 0, 63, 71
1, 178757, Note_on_c, 0, 72, 84
1, 178768, Note_off_c, 0, 79, 63
1, 178795, Control_c, 0, 67, 17
1, 178834, Note_off_c, 0, 63, 59
1, 178857, Note_on_c, 0, 67, 63
1, 178905, Note_off_c, 0, 72, 61
1, 178922, Note_off_c, 0, 67, 61
1, 178938, Note_on_c, 0, 80, 67
1, 178944, Control_c, 0, 67, 17
1, 178945, Note_on_c, 0, 63, 61
1, 178985, Note_on_c, 0, 79, 60
1, 178992, Note_off_c, 0, 80, 64
1, 179003, Control_c, 0, 64, 43
1, 179009, Note_off_c, 0, 63, 58
1, 179014, Note_off_c, 0, 79, 65
1, 179018, Control_c, 0, 64, 44
1, 179025, Note_on_c, 0, 78, 67
1, 179029, Note_on_c, 0, 67, 62
1, 179033, Control_c, 0, 64, 44
1, 179047, Control_c, 0, 64, 45
1, 179047, Control_c, 0, 67, 18
1, 179062, Control_c, 0, 64, 46
1, 179073, Note_on_c, 0, 79, 78
1, 179077, Note_off_c, 0, 67, 60
1, 179077, Control_c, 0, 64, 46
1, 179079, Note_off_c, 0, 78, 64
1, 179114, Note_on_c, 0, 62, 57
1, 179117, Note_on_c, 0, 59, 65
1, 179126, Note_on_c, 0, 74, 76
1, 179138, Note_off_c, 0, 79, 58
1, 179159, Note_off_c, 0, 62, 58
1, 179180, Control_c, 0, 64, 46
1, 179182, Note_off_c, 0, 59, 57
1, 179201, Note_on_c, 0, 67, 63
1, 179254, Note_off_c, 0, 74, 62
1, 179263, Note_off_c, 0, 67, 62
1, 179281, Note_on_c, 0, 80, 67
1, 179297, Note_on_c, 0, 59, 59
1, 179308, Note_on_c, 0, 62, 26
1, 179335, Note_on_c, 0, 79, 60
1, 179337, Note_off_c, 0, 80, 59
1, 179343, Note_off_c, 0, 59, 54
1, 179343, Control_c, 0, 67, 19
1, 179349, Note_off_c, 0, 62, 49
1, 179358, Control_c, 0, 67, 20
1, 179358, Note_on_c, 0, 67, 60
1, 179364, Note_off_c, 0, 79, 65
1, 179372, Note_on_c, 0, 78, 73
1, 179373, Control_c, 0, 67, 22
1, 179388, Control_c, 0, 67, 25
1, 179403, Control_c, 0, 67, 29
1, 179418, Control_c, 0, 67, 32
1, 179427, Note_on_c, 0, 79, 74
1, 179427, Note_off_c, 0, 78, 64
1, 179432, Control_c, 0, 67, 35
1, 179442, Note_off_c, 0, 67, 59
1, 179447, Control_c, 0, 64, 46
1, 179447, Control_c, 0, 67, 37
1, 179462, Control_c, 0, 64, 47
1, 179462, Control_c, 0, 67, 38
1, 179463, Note_on_c, 0, 75, 81
1, 179471, Note_off_c, 0, 79, 64
1, 179477, Control_c, 0, 67, 39
1, 179480, Note_on_c, 0, 60, 66
1, 179482, Note_on_c, 0, 63, 75
1, 179491, Control_c, 0, 64, 47
1, 179506, Control_c, 0, 64, 48
1, 179506, Control_c, 0, 67, 40
1, 179511, Note_off_c, 0, 75, 65
1, 179618, Control_c, 0, 64, 47
1, 179663, Note_on_c, 0, 86, 67
1, 179677, Control_c, 0, 64, 47
1, 179703, Note_on_c, 0, 84, 60
1, 179706, Note_off_c, 0, 86, 61
1, 179731, Note_off_c, 0, 84, 65
1, 179754, Note_on_c, 0, 83, 70
1, 179767, Control_c, 0, 67, 40
1, 179796, Note_on_c, 0, 84, 82
1, 179803, Note_off_c, 0, 83, 68
1, 179826, Control_c, 0, 67, 41
1, 179835, Note_on_c, 0, 79, 77
1, 179835, Note_off_c, 0, 63, 62
1, 179837, Note_off_c, 0, 60, 62
1, 179838, Note_off_c, 0, 84, 64
1, 179856, Control_c, 0, 67, 42
1, 179870, Control_c, 0, 67, 42
1, 179881, Note_off_c, 0, 79, 63
1, 179885, Control_c, 0, 67, 43
1, 179900, Control_c, 0, 67, 44
1, 179914, Control_c, 0, 67, 44
1, 179986, Note_on_c, 0, 89, 67
1, 180021, Note_off_c, 0, 89, 67
1, 180023, Note_on_c, 0, 87, 69
1, 180053, Note_off_c, 0, 87, 69
1, 180070, Note_on_c, 0, 86, 72
1, 180130, Note_off_c, 0, 86, 65
1, 180130, Note_on_c, 0, 87, 86
1, 180136, Control_c, 0, 67, 45
1, 180163, Note_off_c, 0, 87, 63
1, 180196, Control_c, 0, 67, 45
1, 180203, Note_on_c, 0, 56, 74
1, 180206, Note_on_c, 0, 60, 84
1, 180226, Control_c, 0, 64, 47
1, 180226, Control_c, 0, 67, 46
1, 180255, Control_c, 0, 67, 46
1, 180308, Note_on_c, 0, 83, 87
1, 180376, Note_off_c, 0, 83, 59
1, 180396, Control_c, 0, 67, 47
1, 180404, Note_on_c, 0, 86, 82
1, 180495, Note_on_c, 0, 84, 82
1, 180520, Note_off_c, 0, 86, 59
1, 180583, Note_on_c, 0, 82, 78
1, 180598, Note_off_c, 0, 84, 61
1, 180604, Control_c, 0, 67, 47
1, 180674, Note_on_c, 0, 80, 76
1, 180693, Control_c, 0, 67, 47
1, 180703, Note_off_c, 0, 82, 63
1, 180750, Note_off_c, 0, 80, 65
1, 180763, Note_on_c, 0, 79, 68
1, 180844, Note_off_c, 0, 79, 45
1, 180858, Note_on_c, 0, 78, 69
1, 180947, Note_off_c, 0, 60, 56
1, 180955, Note_on_c, 0, 79, 71
1, 180955, Note_off_c, 0, 78, 64
1, 180960, Note_on_c, 0, 59, 44
1, 180967, Note_on_c, 0, 55, 39
1, 181000, Note_off_c, 0, 56, 31
1, 181048, Note_off_c, 0, 79, 62
1, 181063, Note_on_c, 0, 78, 67
1, 181144, Note_off_c, 0, 78, 62
1, 181153, Note_on_c, 0, 79, 60
1, 181200, Note_off_c, 0, 79, 62
1, 181245, Note_on_c, 0, 74, 55
1, 181288, Note_off_c, 0, 74, 59
1, 181323, Note_on_c, 0, 75, 72
1, 181367, Control_c, 0, 67, 46
1, 181408, Note_off_c, 0, 75, 62
1, 181421, Note_on_c, 0, 74, 65
1, 181514, Note_on_c, 0, 75, 70
1, 181523, Note_off_c, 0, 74, 57
1, 181540, Note_off_c, 0, 59, 38
1, 181573, Note_off_c, 0, 55, 42
1, 181582, Note_off_c, 0, 75, 61
1, 181602, Note_on_c, 0, 71, 64
1, 181649, Control_c, 0, 64, 47
1, 181653, Note_off_c, 0, 71, 57
1, 181689, Note_on_c, 0, 72, 79
1, 181770, Note_off_c, 0, 72, 63
1, 181787, Note_on_c, 0, 71, 74
1, 181864, Control_c, 0, 67, 46
1, 181871, Note_off_c, 0, 71, 62
1, 181880, Note_on_c, 0, 72, 81
1, 181944, Note_off_c, 0, 72, 62
1, 181971, Note_on_c, 0, 67, 74
1, 182026, Note_off_c, 0, 67, 58
1, 182056, Note_on_c, 0, 68, 80
1, 182144, Note_on_c, 0, 67, 74
1, 182145, Note_off_c, 0, 68, 64
1, 182232, Note_off_c, 0, 67, 62
1, 182242, Note_on_c, 0, 68, 80
1, 182309, Control_c, 0, 67, 45
1, 182331, Note_off_c, 0, 68, 63
1, 182337, Note_on_c, 0, 66, 73
1, 182400, Note_off_c, 0, 66, 62
1, 182427, Note_on_c, 0, 55, 58
1, 182427, Note_on_c, 0, 67, 74
1, 182486, Note_off_c, 0, 55, 60
1, 182508, Note_off_c, 0, 67, 63
1, 182509, Note_on_c, 0, 54, 65
1, 182511, Note_on_c, 0, 66, 82
1, 182583, Note_off_c, 0, 54, 62
1, 182608, Note_on_c, 0, 55, 64
1, 182614, Note_on_c, 0, 67, 76
1, 182619, Note_off_c, 0, 66, 62
1, 182664, Note_off_c, 0, 55, 60
1, 182679, Note_off_c, 0, 67, 62
1, 182703, Control_c, 0, 67, 45
1, 182704, Note_on_c, 0, 62, 76
1, 182712, Note_on_c, 0, 50, 66
1, 182776, Note_off_c, 0, 62, 47
1, 182789, Note_on_c, 0, 63, 81
1, 182791, Note_off_c, 0, 50, 64
1, 182799, Note_on_c, 0, 51, 69
1, 182862, Note_off_c, 0, 51, 63
1, 182876, Note_off_c, 0, 63, 64
1, 182878, Note_on_c, 0, 62, 81
1, 182885, Note_on_c, 0, 50, 65
1, 182966, Note_on_c, 0, 51, 68
1, 182968, Note_on_c, 0, 63, 83
1, 182974, Note_off_c, 0, 50, 54
1, 182991, Note_off_c, 0, 62, 59
1, 183045, Note_off_c, 0, 51, 61
1, 183049, Note_on_c, 0, 47, 64
1, 183059, Note_off_c, 0, 63, 62
1, 183065, Note_on_c, 0, 59, 73
1, 183108, Note_off_c, 0, 47, 58
1, 183118, Note_off_c, 0, 59, 64
1, 183144, Note_on_c, 0, 48, 73
1, 183148, Note_on_c, 0, 60, 81
1, 183197, Note_off_c, 0, 48, 60
1, 183232, Note_off_c, 0, 60, 60
1, 183233, Note_on_c, 0, 47, 70
1, 183233, Note_on_c, 0, 59, 79
1, 183250, Control_c, 0, 67, 45
1, 183299, Note_off_c, 0, 47, 63
1, 183317, Control_c, 0, 67, 46
1, 183332, Note_off_c, 0, 59, 61
1, 183333, Note_on_c, 0, 60, 84
1, 183336, Note_on_c, 0, 48, 63
1, 183390, Note_off_c, 0, 48, 59
1, 183404, Note_off_c, 0, 60, 59
1, 183424, Note_on_c, 0, 55, 81
1, 183431, Note_on_c, 0, 43, 68
1, 183514, Note_on_c, 0, 56, 86
1, 183519, Note_off_c, 0, 43, 63
1, 183520, Note_on_c, 0, 44, 72
1, 183522, Note_off_c, 0, 55, 57
1, 183603, Note_off_c, 0, 44, 61
1, 183609, Note_on_c, 0, 55, 89
1, 183611, Note_off_c, 0, 56, 65
1, 183615, Note_on_c, 0, 43, 70
1, 183683, Note_off_c, 0, 43, 62
1, 183688, Control_c, 0, 64, 47
1, 183701, Note_on_c, 0, 56, 91
1, 183702, Note_on_c, 0, 44, 72
1, 183704, Note_off_c, 0, 55, 65
1, 183748, Control_c, 0, 64, 41
1, 183762, Control_c, 0, 64, 0
1, 183765, Note_off_c, 0, 44, 61
1, 183788, Note_on_c, 0, 54, 85
1, 183792, Note_off_c, 0, 56, 65
1, 183797, Note_on_c, 0, 42, 69
1, 183836, Note_off_c, 0, 54, 65
1, 183851, Control_c, 0, 67, 45
1, 183852, Note_off_c, 0, 42, 62
1, 183866, Control_c, 0, 64, 57
1, 183880, Control_c, 0, 64, 67
1, 183880, Control_c, 0, 67, 45
1, 183885, Note_on_c, 0, 43, 65
1, 183889, Note_on_c, 0, 55, 98
1, 183895, Control_c, 0, 64, 76
1, 183910, Control_c, 0, 64, 87
1, 183925, Control_c, 0, 64, 95
1, 183925, Control_c, 0, 67, 44
1, 183940, Control_c, 0, 64, 100
1, 183940, Control_c, 0, 67, 44
1, 183954, Note_off_c, 0, 43, 56
1, 183955, Control_c, 0, 64, 103
1, 183970, Control_c, 0, 64, 106
1, 183985, Control_c, 0, 64, 107
1, 183999, Note_on_c, 0, 31, 71
1, 183999, Control_c, 0, 64, 109
1, 184014, Control_c, 0, 64, 109
1, 184017, Note_off_c, 0, 55, 64
1, 184036, Control_c, 0, 64, 110
1, 184051, Control_c, 0, 64, 110
1, 184066, Control_c, 0, 67, 44
1, 184098, Note_off_c, 0, 31, 63
1, 184101, Note_on_c, 0, 35, 73
1, 184154, Control_c, 0, 64, 111
1, 184181, Note_on_c, 0, 38, 78
1, 184181, Note_off_c, 0, 35, 62
1, 184184, Control_c, 0, 67, 45
1, 184259, Control_c, 0, 64, 110
1, 184273, Control_c, 0, 64, 103
1, 184273, Control_c, 0, 67, 45
1, 184278, Note_off_c, 0, 38, 53
1, 184282, Note_on_c, 0, 55, 87
1, 184287, Note_on_c, 0, 47, 88
1, 184288, Note_on_c, 0, 50, 80
1, 184288, Control_c, 0, 64, 91
1, 184288, Control_c, 0, 67, 46
1, 184294, Note_on_c, 0, 43, 74
1, 184303, Control_c, 0, 64, 78
1, 184318, Control_c, 0, 64, 64
1, 184332, Control_c, 0, 64, 0
1, 184382, Note_off_c, 0, 43, 61
1, 184392, Control_c, 0, 64, 59
1, 184408, Control_c, 0, 64, 66
1, 184414, Note_on_c, 0, 31, 71
1, 184423, Control_c, 0, 64, 71
1, 184423, Control_c, 0, 67, 45
1, 184437, Control_c, 0, 64, 78
1, 184437, Control_c, 0, 67, 45
1, 184448, Note_off_c, 0, 47, 55
1, 184452, Control_c, 0, 64, 84
1, 184452, Control_c, 0, 67, 44
1, 184467, Control_c, 0, 64, 88
1, 184467, Control_c, 0, 67, 44
1, 184482, Control_c, 0, 64, 89
1, 184494, Note_off_c, 0, 50, 58
1, 184497, Control_c, 0, 64, 91
1, 184511, Control_c, 0, 64, 93
1, 184517, Note_on_c, 0, 35, 79
1, 184518, Note_off_c, 0, 31, 61
1, 184526, Control_c, 0, 64, 94
1, 184526, Control_c, 0, 67, 43
1, 184541, Control_c, 0, 64, 96
1, 184556, Control_c, 0, 64, 97
1, 184571, Control_c, 0, 64, 97
1, 184585, Control_c, 0, 64, 98
1, 184600, Control_c, 0, 67, 44
1, 184610, Note_off_c, 0, 55, 59
1, 184611, Note_off_c, 0, 35, 61
1, 184614, Note_on_c, 0, 38, 78
1, 184644, Control_c, 0, 67, 44
1, 184689, Control_c, 0, 67, 45
1, 184724, Note_off_c, 0, 38, 56
1, 184748, Control_c, 0, 64, 95
1, 184750, Note_on_c, 0, 55, 83
1, 184751, Note_on_c, 0, 47, 80
1, 184754, Note_on_c, 0, 50, 78
1, 184756, Note_on_c, 0, 43, 71
1, 184763, Control_c, 0, 64, 85
1, 184785, Control_c, 0, 64, 74
1, 184800, Control_c, 0, 64, 50
1, 184815, Control_c, 0, 64, 0
1, 184889, Control_c, 0, 64, 57
1, 184903, Control_c, 0, 64, 67
1, 184918, Control_c, 0, 64, 74
1, 184933, Control_c, 0, 64, 83
1, 184948, Control_c, 0, 64, 89
1, 184957, Note_off_c, 0, 43, 57
1, 184962, Control_c, 0, 64, 91
1, 184977, Control_c, 0, 64, 92
1, 184992, Note_off_c, 0, 47, 51
1, 184992, Control_c, 0, 64, 94
1, 185007, Control_c, 0, 64, 96
1, 185007, Control_c, 0, 67, 46
1, 185022, Control_c, 0, 64, 97
1, 185037, Control_c, 0, 64, 98
1, 185037, Control_c, 0, 67, 47
1, 185052, Control_c, 0, 64, 99
1, 185052, Control_c, 0, 67, 47
1, 185067, Control_c, 0, 67, 48
1, 185082, Control_c, 0, 64, 100
1, 185082, Control_c, 0, 67, 49
1, 185091, Note_off_c, 0, 50, 56
1, 185096, Control_c, 0, 67, 50
1, 185102, Note_off_c, 0, 55, 61
1, 185111, Control_c, 0, 67, 53
1, 185126, Control_c, 0, 67, 57
1, 185141, Control_c, 0, 67, 62
1, 185155, Control_c, 0, 67, 67
1, 185170, Control_c, 0, 67, 71
1, 185185, Control_c, 0, 67, 74
1, 185201, Control_c, 0, 67, 78
1, 185216, Control_c, 0, 67, 83
1, 185230, Control_c, 0, 67, 88
1, 185244, Control_c, 0, 67, 93
1, 185259, Control_c, 0, 67, 99
1, 185274, Control_c, 0, 67, 103
1, 185289, Control_c, 0, 67, 107
1, 185304, Control_c, 0, 67, 110
1, 185319, Control_c, 0, 67, 114
1, 185333, Control_c, 0, 67, 118
1, 185348, Control_c, 0, 64, 99
1, 185348, Control_c, 0, 67, 123
1, 185363, Control_c, 0, 67, 127
1, 185437, Control_c, 0, 64, 99
1, 185466, Control_c, 0, 64, 98
1, 185481, Control_c, 0, 64, 98
1, 185496, Control_c, 0, 64, 97
1, 185511, Control_c, 0, 64, 96
1, 185533, Control_c, 0, 64, 95
1, 185548, Control_c, 0, 64, 95
1, 185563, Control_c, 0, 64, 94
1, 185592, Control_c, 0, 64, 94
1, 185622, Control_c, 0, 64, 93
1, 185637, Control_c, 0, 64, 92
1, 185651, Control_c, 0, 64, 91
1, 185666, Control_c, 0, 64, 90
1, 185681, Control_c, 0, 64, 89
1, 185696, Control_c, 0, 64, 86
1, 185711, Control_c, 0, 64, 82
1, 185725, Control_c, 0, 64, 75
1, 185740, Control_c, 0, 64, 67
1, 185755, Control_c, 0, 64, 38
1, 185770, Control_c, 0, 64, 0
1, 185835, Note_on_c, 0, 72, 53
1, 185993, Control_c, 0, 64, 40
1, 186008, Control_c, 0, 64, 54
1, 186023, Control_c, 0, 64, 60
1, 186028, Note_on_c, 0, 76, 42
1, 186038, Control_c, 0, 64, 64
1, 186053, Control_c, 0, 64, 67
1, 186067, Control_c, 0, 64, 72
1, 186082, Control_c, 0, 64, 78
1, 186097, Control_c, 0, 64, 82
1, 186112, Control_c, 0, 64, 84
1, 186127, Control_c, 0, 64, 85
1, 186141, Control_c, 0, 64, 86
1, 186156, Control_c, 0, 64, 89
1, 186171, Control_c, 0, 64, 92
1, 186186, Control_c, 0, 64, 95
1, 186200, Control_c, 0, 64, 97
1, 186202, Note_on_c, 0, 67, 40
1, 186215, Control_c, 0, 64, 99
1, 186230, Control_c, 0, 64, 100
1, 186245, Control_c, 0, 64, 101
1, 186260, Control_c, 0, 64, 103
1, 186282, Control_c, 0, 64, 104
1, 186297, Control_c, 0, 64, 105
1, 186312, Control_c, 0, 64, 106
1, 186326, Control_c, 0, 64, 106
1, 186334, Note_off_c, 0, 72, 29
1, 186341, Control_c, 0, 64, 107
1, 186356, Control_c, 0, 64, 108
1, 186371, Control_c, 0, 64, 109
1, 186386, Control_c, 0, 64, 110
1, 186400, Control_c, 0, 64, 111
1, 186413, Note_on_c, 0, 79, 43
1, 186414, Note_off_c, 0, 76, 40
1, 186415, Control_c, 0, 64, 112
1, 186430, Control_c, 0, 64, 112
1, 186445, Control_c, 0, 64, 114
1, 186460, Control_c, 0, 64, 115
1, 186474, Control_c, 0, 64, 116
1, 186489, Control_c, 0, 64, 117
1, 186504, Control_c, 0, 64, 119
1, 186519, Control_c, 0, 64, 120
1, 186533, Control_c, 0, 64, 122
1, 186548, Control_c, 0, 64, 124
1, 186563, Control_c, 0, 64, 127
1, 186585, Note_on_c, 0, 64, 42
1, 186630, Note_off_c, 0, 67, 40
1, 186758, Note_off_c, 0, 79, 44
1, 186774, Note_on_c, 0, 84, 55
1, 186922, Note_off_c, 0, 84, 57
1, 186961, Note_on_c, 0, 69, 39
1, 186966, Note_off_c, 0, 64, 36
1, 187150, Note_on_c, 0, 85, 62
1, 187171, Note_on_c, 0, 79, 43
1, 187283, Control_c, 0, 64, 124
1, 187297, Control_c, 0, 64, 105
1, 187312, Control_c, 0, 64, 93
1, 187313, Note_off_c, 0, 69, 54
1, 187327, Control_c, 0, 64, 85
1, 187342, Control_c, 0, 64, 79
1, 187343, Note_off_c, 0, 79, 49
1, 187344, Note_on_c, 0, 62, 33
1, 187356, Control_c, 0, 64, 78
1, 187386, Control_c, 0, 64, 79
1, 187401, Control_c, 0, 64, 81
1, 187416, Control_c, 0, 64, 83
1, 187430, Control_c, 0, 64, 84
1, 187445, Control_c, 0, 64, 86
1, 187460, Control_c, 0, 64, 87
1, 187475, Control_c, 0, 64, 89
1, 187488, Note_off_c, 0, 85, 59
1, 187490, Control_c, 0, 64, 90
1, 187505, Control_c, 0, 64, 91
1, 187518, Note_on_c, 0, 86, 54
1, 187520, Control_c, 0, 64, 92
1, 187535, Control_c, 0, 64, 93
1, 187537, Note_on_c, 0, 77, 48
1, 187549, Control_c, 0, 64, 94
1, 187564, Control_c, 0, 64, 94
1, 187579, Control_c, 0, 64, 95
1, 187594, Control_c, 0, 64, 95
1, 187609, Control_c, 0, 64, 96
1, 187639, Control_c, 0, 64, 96
1, 187654, Control_c, 0, 64, 97
1, 187684, Control_c, 0, 64, 97
1, 187696, Note_on_c, 0, 67, 45
1, 187705, Note_off_c, 0, 62, 41
1, 187736, Note_off_c, 0, 77, 33
1, 187801, Note_off_c, 0, 86, 41
1, 187893, Note_on_c, 0, 77, 47
1, 187898, Note_on_c, 0, 83, 48
1, 188037, Note_off_c, 0, 77, 54
1, 188048, Note_on_c, 0, 60, 40
1, 188103, Note_off_c, 0, 67, 39
1, 188167, Note_off_c, 0, 60, 59
1, 188252, Note_on_c, 0, 84, 61
1, 188256, Note_on_c, 0, 76, 46
1, 188302, Note_off_c, 0, 83, 30
1, 188316, Note_off_c, 0, 76, 42
1, 188417, Note_off_c, 0, 84, 38
1, 188435, Note_on_c, 0, 76, 51
1, 188573, Control_c, 0, 64, 97
1, 188632, Control_c, 0, 64, 96
1, 188651, Note_on_c, 0, 80, 56
1, 188662, Control_c, 0, 64, 96
1, 188677, Control_c, 0, 64, 95
1, 188691, Control_c, 0, 64, 95
1, 188706, Control_c, 0, 64, 94
1, 188721, Control_c, 0, 64, 94
1, 188736, Control_c, 0, 64, 93
1, 188751, Control_c, 0, 64, 91
1, 188766, Control_c, 0, 64, 89
1, 188781, Control_c, 0, 64, 86
1, 188795, Control_c, 0, 64, 82
1, 188810, Control_c, 0, 64, 75
1, 188814, Note_on_c, 0, 65, 37
1, 188825, Control_c, 0, 64, 66
1, 188837, Note_off_c, 0, 76, 35
1, 188840, Control_c, 0, 64, 27
1, 188855, Control_c, 0, 64, 0
1, 188899, Control_c, 0, 64, 30
1, 188913, Control_c, 0, 64, 46
1, 188928, Control_c, 0, 64, 56
1, 188943, Control_c, 0, 64, 62
1, 188959, Control_c, 0, 64, 65
1, 188974, Control_c, 0, 64, 68
1, 188989, Control_c, 0, 64, 71
1, 188996, Note_on_c, 0, 81, 59
1, 189003, Control_c, 0, 64, 74
1, 189018, Control_c, 0, 64, 79
1, 189033, Control_c, 0, 64, 82
1, 189047, Control_c, 0, 64, 83
1, 189057, Note_off_c, 0, 80, 33
1, 189062, Control_c, 0, 64, 84
1, 189077, Control_c, 0, 64, 85
1, 189092, Control_c, 0, 64, 85
1, 189107, Control_c, 0, 64, 86
1, 189121, Control_c, 0, 64, 87
1, 189136, Control_c, 0, 64, 87
1, 189151, Control_c, 0, 64, 88
1, 189181, Control_c, 0, 64, 88
1, 189195, Note_on_c, 0, 74, 38
1, 189212, Control_c, 0, 64, 89
1, 189214, Note_off_c, 0, 65, 43
1, 189241, Control_c, 0, 64, 89
1, 189308, Control_c, 0, 64, 90
1, 189366, Note_on_c, 0, 89, 63
1, 189397, Control_c, 0, 64, 90
1, 189414, Note_off_c, 0, 81, 37
1, 189551, Note_on_c, 0, 64, 40
1, 189561, Note_off_c, 0, 74, 41
1, 189618, Control_c, 0, 64, 89
1, 189633, Control_c, 0, 64, 86
1, 189648, Control_c, 0, 64, 81
1, 189663, Control_c, 0, 64, 73
1, 189678, Control_c, 0, 64, 64
1, 189693, Control_c, 0, 64, 15
1, 189708, Control_c, 0, 64, 0
1, 189719, Note_on_c, 0, 79, 52
1, 189722, Control_c, 0, 64, 30
1, 189737, Control_c, 0, 64, 52
1, 189751, Control_c, 0, 64, 61
1, 189766, Control_c, 0, 64, 64
1, 189781, Control_c, 0, 64, 65
1, 189788, Note_off_c, 0, 89, 45
1, 189796, Control_c, 0, 64, 67
1, 189811, Control_c, 0, 64, 70
1, 189825, Control_c, 0, 64, 73
1, 189840, Control_c, 0, 64, 77
1, 189855, Control_c, 0, 64, 81
1, 189869, Control_c, 0, 64, 82
1, 189899, Control_c, 0, 64, 83
1, 189912, Note_on_c, 0, 72, 48
1, 189929, Control_c, 0, 64, 83
1, 189943, Control_c, 0, 64, 84
1, 189953, Note_off_c, 0, 64, 35
1, 189958, Control_c, 0, 64, 84
1, 189989, Control_c, 0, 64, 85
1, 190027, Control_c, 0, 64, 85
1, 190056, Control_c, 0, 64, 86
1, 190086, Note_on_c, 0, 88, 61
1, 190115, Control_c, 0, 64, 86
1, 190134, Note_off_c, 0, 79, 38
1, 190189, Control_c, 0, 64, 87
1, 190256, Note_off_c, 0, 72, 49
1, 190277, Note_on_c, 0, 62, 41
1, 190322, Control_c, 0, 64, 87
1, 190411, Control_c, 0, 64, 88
1, 190449, Note_on_c, 0, 77, 57
1, 190462, Note_off_c, 0, 88, 58
1, 190471, Control_c, 0, 64, 88
1, 190560, Control_c, 0, 64, 89
1, 190647, Note_on_c, 0, 71, 44
1, 190647, Note_off_c, 0, 62, 39
1, 190793, Note_off_c, 0, 71, 35
1, 190817, Note_on_c, 0, 86, 60
1, 190850, Note_off_c, 0, 77, 51
1, 190953, Control_c, 0, 64, 88
1, 190968, Control_c, 0, 64, 88
1, 190983, Control_c, 0, 64, 86
1, 190990, Note_on_c, 0, 60, 49
1, 190997, Control_c, 0, 64, 83
1, 191003, Note_on_c, 0, 72, 50
1, 191012, Control_c, 0, 64, 77
1, 191027, Control_c, 0, 64, 70
1, 191041, Control_c, 0, 64, 62
1, 191056, Control_c, 0, 64, 44
1, 191071, Control_c, 0, 64, 46
1, 191086, Control_c, 0, 64, 55
1, 191101, Control_c, 0, 64, 61
1, 191115, Control_c, 0, 64, 64
1, 191130, Control_c, 0, 64, 65
1, 191145, Control_c, 0, 64, 66
1, 191160, Control_c, 0, 64, 68
1, 191175, Control_c, 0, 64, 70
1, 191183, Note_on_c, 0, 76, 55
1, 191189, Control_c, 0, 64, 73
1, 191192, Note_off_c, 0, 86, 54
1, 191204, Control_c, 0, 64, 76
1, 191219, Control_c, 0, 64, 79
1, 191234, Control_c, 0, 64, 81
1, 191249, Control_c, 0, 64, 81
1, 191294, Control_c, 0, 64, 82
1, 191338, Control_c, 0, 64, 82
1, 191356, Note_on_c, 0, 64, 44
1, 191356, Note_off_c, 0, 72, 41
1, 191363, Note_on_c, 0, 67, 47
1, 191394, Note_off_c, 0, 60, 29
1, 191544, Note_on_c, 0, 84, 68
1, 191566, Note_off_c, 0, 76, 62
1, 191568, Control_c, 0, 64, 82
1, 191598, Control_c, 0, 64, 81
1, 191613, Control_c, 0, 64, 81
1, 191628, Control_c, 0, 64, 80
1, 191643, Note_off_c, 0, 64, 58
1, 191643, Control_c, 0, 64, 79
1, 191657, Control_c, 0, 64, 78
1, 191672, Control_c, 0, 64, 77
1, 191687, Control_c, 0, 64, 75
1, 191693, Note_off_c, 0, 67, 40
1, 191699, Note_on_c, 0, 65, 49
1, 191702, Control_c, 0, 64, 74
1, 191702, Note_on_c, 0, 69, 51
1, 191717, Control_c, 0, 64, 72
1, 191732, Control_c, 0, 64, 70
1, 191746, Control_c, 0, 64, 68
1, 191761, Control_c, 0, 64, 68
1, 191776, Control_c, 0, 64, 67
1, 191791, Control_c, 0, 64, 66
1, 191806, Control_c, 0, 64, 66
1, 191820, Control_c, 0, 64, 65
1, 191835, Control_c, 0, 64, 64
1, 191850, Control_c, 0, 64, 63
1, 191864, Control_c, 0, 64, 62
1, 191879, Control_c, 0, 64, 60
1, 191887, Note_off_c, 0, 69, 54
1, 191894, Control_c, 0, 64, 56
1, 191896, Note_on_c, 0, 74, 59
1, 191909, Control_c, 0, 64, 53
1, 191913, Note_off_c, 0, 84, 57
1, 191924, Control_c, 0, 64, 49
1, 191938, Control_c, 0, 64, 45
1, 191954, Control_c, 0, 64, 40
1, 191969, Control_c, 0, 64, 36
1, 191984, Control_c, 0, 64, 33
1, 191999, Control_c, 0, 64, 31
1, 192013, Control_c, 0, 64, 28
1, 192028, Control_c, 0, 64, 26
1, 192035, Note_off_c, 0, 65, 60
1, 192043, Control_c, 0, 64, 18
1, 192053, Note_on_c, 0, 66, 52
1, 192058, Control_c, 0, 64, 0
1, 192063, Note_on_c, 0, 69, 46
1, 192184, Note_off_c, 0, 69, 57
1, 192216, Note_off_c, 0, 74, 63
1, 192229, Note_on_c, 0, 72, 66
1, 192394, Note_off_c, 0, 72, 64
1, 192410, Note_off_c, 0, 66, 56
1, 192424, Note_on_c, 0, 71, 56
1, 192430, Note_on_c, 0, 67, 47
1, 192465, Note_off_c, 0, 71, 62
1, 192492, Note_off_c, 0, 67, 54
1, 192500, Note_on_c, 0, 79, 66
1, 192561, Note_off_c, 0, 79, 50
1, 192584, Note_on_c, 0, 77, 74
1, 192615, Note_off_c, 0, 77, 61
1, 192665, Note_on_c, 0, 74, 70
1, 192710, Note_off_c, 0, 74, 64
1, 192755, Note_on_c, 0, 71, 70
1, 192789, Note_off_c, 0, 71, 65
1, 192841, Note_on_c, 0, 67, 55
1, 192899, Note_off_c, 0, 67, 53
1, 192933, Note_on_c, 0, 65, 56
1, 192977, Note_off_c, 0, 65, 62
1, 193019, Note_on_c, 0, 62, 61
1, 193076, Note_off_c, 0, 62, 56
1, 193105, Note_on_c, 0, 64, 52
1, 193178, Note_on_c, 0, 79, 67
1, 193226, Note_off_c, 0, 64, 61
1, 193257, Note_off_c, 0, 79, 62
1, 193263, Note_on_c, 0, 76, 72
1, 193318, Note_off_c, 0, 76, 61
1, 193343, Note_on_c, 0, 72, 82
1, 193394, Note_off_c, 0, 72, 64
1, 193433, Note_on_c, 0, 67, 67
1, 193463, Note_off_c, 0, 67, 65
1, 193517, Note_on_c, 0, 64, 60
1, 193558, Note_off_c, 0, 64, 60
1, 193602, Note_on_c, 0, 62, 50
1, 193649, Note_off_c, 0, 62, 58
1, 193683, Note_on_c, 0, 60, 52
1, 193735, Note_off_c, 0, 60, 58
1, 193771, Note_on_c, 0, 59, 58
1, 193861, Note_on_c, 0, 79, 70
1, 193917, Note_off_c, 0, 59, 61
1, 193935, Note_off_c, 0, 79, 62
1, 193943, Note_on_c, 0, 77, 74
1, 193991, Note_off_c, 0, 77, 57
1, 194024, Note_on_c, 0, 74, 72
1, 194066, Note_off_c, 0, 74, 63
1, 194110, Note_on_c, 0, 71, 69
1, 194138, Note_off_c, 0, 71, 68
1, 194201, Note_on_c, 0, 67, 62
1, 194254, Note_off_c, 0, 67, 59
1, 194283, Note_on_c, 0, 65, 58
1, 194325, Note_off_c, 0, 65, 64
1, 194367, Note_on_c, 0, 62, 57
1, 194416, Note_off_c, 0, 62, 54
1, 194440, Note_on_c, 0, 60, 72
1, 194469, Note_off_c, 0, 60, 64
1, 194538, Note_on_c, 0, 76, 70
1, 194570, Note_off_c, 0, 76, 63
1, 194622, Note_on_c, 0, 72, 76
1, 194648, Note_off_c, 0, 72, 68
1, 194712, Note_on_c, 0, 67, 58
1, 194752, Note_off_c, 0, 67, 61
1, 194778, Note_on_c, 0, 64, 68
1, 194813, Note_off_c, 0, 64, 64
1, 194884, Note_on_c, 0, 79, 70
1, 194908, Note_off_c, 0, 79, 66
1, 194958, Note_on_c, 0, 76, 75
1, 194983, Note_off_c, 0, 76, 67
1, 195050, Note_on_c, 0, 72, 74
1, 195084, Note_off_c, 0, 72, 62
1, 195123, Note_on_c, 0, 67, 72
1, 195169, Note_off_c, 0, 67, 59
1, 195226, Note_on_c, 0, 84, 66
1, 195275, Note_off_c, 0, 84, 57
1, 195291, Note_on_c, 0, 79, 78
1, 195317, Note_off_c, 0, 79, 67
1, 195385, Note_on_c, 0, 76, 65
1, 195422, Note_off_c, 0, 76, 61
1, 195458, Note_on_c, 0, 72, 85
1, 195504, Control_c, 0, 67, 121
1, 195511, Note_off_c, 0, 72, 64
1, 195519, Control_c, 0, 67, 103
1, 195533, Control_c, 0, 67, 81
1, 195547, Note_on_c, 0, 88, 84
1, 195548, Control_c, 0, 67, 61
1, 195563, Control_c, 0, 67, 45
1, 195578, Control_c, 0, 67, 35
1, 195594, Control_c, 0, 67, 31
1, 195609, Control_c, 0, 67, 29
1, 195611, Note_off_c, 0, 88, 60
1, 195622, Note_on_c, 0, 84, 86
1, 195624, Control_c, 0, 67, 29
1, 195652, Note_off_c, 0, 84, 67
1, 195702, Note_on_c, 0, 80, 76
1, 195743, Control_c, 0, 64, 12
1, 195743, Control_c, 0, 67, 29
1, 195757, Control_c, 0, 67, 30
1, 195771, Note_off_c, 0, 80, 63
1, 195772, Control_c, 0, 67, 31
1, 195787, Control_c, 0, 67, 32
1, 195794, Note_on_c, 0, 81, 81
1, 195802, Control_c, 0, 67, 33
1, 195817, Control_c, 0, 67, 33
1, 195831, Control_c, 0, 67, 34
1, 195840, Note_off_c, 0, 81, 65
1, 195846, Control_c, 0, 67, 35
1, 195861, Control_c, 0, 67, 35
1, 195874, Note_on_c, 0, 83, 83
1, 195876, Control_c, 0, 67, 36
1, 195891, Control_c, 0, 67, 37
1, 195905, Control_c, 0, 67, 39
1, 195920, Control_c, 0, 67, 42
1, 195922, Note_off_c, 0, 83, 65
1, 195935, Control_c, 0, 67, 46
1, 195950, Control_c, 0, 64, 0
1, 195950, Control_c, 0, 67, 49
1, 195965, Control_c, 0, 67, 52
1, 195968, Note_on_c, 0, 84, 78
1, 195980, Control_c, 0, 67, 57
1, 195995, Note_off_c, 0, 84, 66
1, 195995, Control_c, 0, 67, 64
1, 196017, Control_c, 0, 67, 71
1, 196032, Control_c, 0, 67, 78
1, 196046, Control_c, 0, 67, 86
1, 196048, Note_on_c, 0, 76, 60
1, 196061, Control_c, 0, 67, 93
1, 196076, Control_c, 0, 67, 101
1, 196091, Control_c, 0, 67, 108
1, 196102, Note_off_c, 0, 76, 60
1, 196106, Control_c, 0, 67, 117
1, 196120, Control_c, 0, 67, 124
1, 196135, Control_c, 0, 67, 127
1, 196149, Note_on_c, 0, 77, 63
1, 196188, Note_off_c, 0, 77, 62
1, 196231, Note_on_c, 0, 80, 64
1, 196263, Note_off_c, 0, 80, 67
1, 196313, Note_on_c, 0, 81, 76
1, 196339, Note_off_c, 0, 81, 67
1, 196394, Note_on_c, 0, 73, 59
1, 196462, Note_off_c, 0, 73, 60
1, 196495, Note_on_c, 0, 74, 59
1, 196532, Note_off_c, 0, 74, 65
1, 196573, Note_on_c, 0, 76, 57
1, 196597, Note_off_c, 0, 76, 64
1, 196656, Note_on_c, 0, 77, 74
1, 196682, Note_off_c, 0, 77, 66
1, 196738, Note_on_c, 0, 64, 65
1, 196798, Note_off_c, 0, 64, 63
1, 196838, Note_on_c, 0, 65, 62
1, 196870, Note_off_c, 0, 65, 63
1, 196922, Note_on_c, 0, 73, 72
1, 196955, Note_off_c, 0, 73, 66
1, 197013, Note_on_c, 0, 74, 71
1, 197038, Note_off_c, 0, 74, 68
1, 197090, Note_on_c, 0, 54, 50
1, 197190, Note_off_c, 0, 54, 61
1, 197196, Note_on_c, 0, 55, 56
1, 197269, Note_on_c, 0, 67, 67
1, 197329, Note_off_c, 0, 67, 56
1, 197356, Note_on_c, 0, 68, 76
1, 197425, Note_off_c, 0, 68, 61
1, 197445, Note_on_c, 0, 69, 79
1, 197510, Note_off_c, 0, 69, 60
1, 197535, Note_on_c, 0, 70, 79
1, 197605, Note_off_c, 0, 70, 63
1, 197628, Note_on_c, 0, 71, 78
1, 197714, Note_on_c, 0, 72, 88
1, 197718, Note_off_c, 0, 71, 63
1, 197794, Note_on_c, 0, 73, 80
1, 197805, Note_off_c, 0, 72, 59
1, 197870, Note_off_c, 0, 73, 64
1, 197886, Note_on_c, 0, 74, 74
1, 197941, Note_off_c, 0, 74, 62
1, 197961, Note_off_c, 0, 55, 59
1, 197963, Note_on_c, 0, 75, 76
1, 198021, Note_off_c, 0, 75, 65
1, 198060, Note_on_c, 0, 76, 77
1, 198139, Note_on_c, 0, 77, 81
1, 198146, Note_off_c, 0, 76, 64
1, 198219, Note_on_c, 0, 78, 80
1, 198257, Note_off_c, 0, 77, 62
1, 198293, Control_c, 0, 67, 124
1, 198307, Control_c, 0, 67, 114
1, 198311, Note_on_c, 0, 79, 81
1, 198315, Note_off_c, 0, 78, 62
1, 198322, Control_c, 0, 67, 101
1, 198337, Control_c, 0, 67, 88
1, 198351, Control_c, 0, 67, 75
1, 198366, Control_c, 0, 67, 63
1, 198381, Control_c, 0, 67, 53
1, 198396, Control_c, 0, 67, 47
1, 198399, Note_on_c, 0, 76, 83
1, 198400, Note_off_c, 0, 79, 62
1, 198411, Control_c, 0, 67, 42
1, 198426, Control_c, 0, 67, 36
1, 198440, Control_c, 0, 67, 30
1, 198455, Control_c, 0, 67, 24
1, 198470, Control_c, 0, 67, 17
1, 198471, Note_off_c, 0, 76, 61
1, 198483, Note_on_c, 0, 72, 85
1, 198484, Control_c, 0, 67, 11
1, 198499, Control_c, 0, 67, 0
1, 198528, Note_off_c, 0, 72, 63
1, 198549, Note_on_c, 0, 65, 92
1, 198552, Note_on_c, 0, 55, 77
1, 198555, Note_on_c, 0, 62, 82
1, 198556, Note_on_c, 0, 59, 74
1, 198558, Control_c, 0, 64, 69
1, 198561, Note_on_c, 0, 76, 91
1, 198573, Control_c, 0, 64, 127
1, 198591, Note_off_c, 0, 55, 62
1, 198595, Note_off_c, 0, 65, 66
1, 198615, Note_off_c, 0, 62, 57
1, 198618, Note_off_c, 0, 59, 60
1, 198621, Note_off_c, 0, 76, 62
1, 198640, Note_on_c, 0, 74, 80
1, 198677, Note_off_c, 0, 74, 62
1, 198705, Note_on_c, 0, 76, 74
1, 198740, Note_off_c, 0, 76, 62
1, 198767, Note_on_c, 0, 74, 62
1, 198794, Note_off_c, 0, 74, 67
1, 198818, Note_on_c, 0, 76, 76
1, 198842, Note_off_c, 0, 76, 67
1, 198872, Note_on_c, 0, 74, 69
1, 198898, Note_off_c, 0, 74, 66
1, 198926, Note_on_c, 0, 76, 80
1, 198954, Note_off_c, 0, 76, 67
1, 198978, Note_on_c, 0, 74, 74
1, 199012, Note_off_c, 0, 74, 62
1, 199043, Note_on_c, 0, 76, 82
1, 199068, Note_off_c, 0, 76, 64
1, 199100, Note_on_c, 0, 74, 70
1, 199131, Note_off_c, 0, 74, 59
1, 199158, Note_on_c, 0, 76, 78
1, 199160, Control_c, 0, 67, 8
1, 199175, Control_c, 0, 67, 8
1, 199190, Control_c, 0, 67, 9
1, 199196, Note_off_c, 0, 76, 63
1, 199220, Control_c, 0, 67, 9
1, 199226, Note_on_c, 0, 74, 68
1, 199264, Control_c, 0, 67, 10
1, 199279, Control_c, 0, 67, 10
1, 199280, Note_off_c, 0, 74, 62
1, 199285, Note_on_c, 0, 76, 80
1, 199289, Note_on_c, 0, 81, 99
1, 199294, Control_c, 0, 67, 11
1, 199308, Control_c, 0, 67, 11
1, 199323, Control_c, 0, 67, 12
1, 199326, Note_off_c, 0, 81, 68
1, 199328, Note_on_c, 0, 83, 90
1, 199333, Note_off_c, 0, 76, 63
1, 199351, Note_on_c, 0, 74, 72
1, 199376, Note_off_c, 0, 83, 61
1, 199400, Note_off_c, 0, 74, 61
1, 199405, Note_on_c, 0, 84, 72
1, 199414, Note_on_c, 0, 76, 74
1, 199426, Control_c, 0, 67, 12
1, 199450, Note_off_c, 0, 76, 61
1, 199452, Note_off_c, 0, 84, 64
1, 199464, Note_on_c, 0, 83, 72
1, 199473, Note_on_c, 0, 74, 64
1, 199504, Note_off_c, 0, 83, 66
1, 199507, Note_off_c, 0, 74, 59
1, 199517, Note_on_c, 0, 84, 61
1, 199533, Note_on_c, 0, 76, 73
1, 199545, Control_c, 0, 67, 13
1, 199560, Note_off_c, 0, 76, 68
1, 199566, Note_off_c, 0, 84, 63
1, 199583, Note_on_c, 0, 83, 64
1, 199590, Note_on_c, 0, 74, 70
1, 199617, Note_off_c, 0, 83, 66
1, 199620, Note_off_c, 0, 74, 59
1, 199635, Control_c, 0, 67, 13
1, 199638, Note_on_c, 0, 84, 66
1, 199642, Note_on_c, 0, 76, 77
1, 199669, Note_off_c, 0, 76, 63
1, 199686, Note_off_c, 0, 84, 63
1, 199693, Note_on_c, 0, 74, 71
1, 199704, Note_on_c, 0, 83, 67
1, 199718, Note_off_c, 0, 74, 63
1, 199732, Note_off_c, 0, 83, 62
1, 199759, Note_on_c, 0, 84, 70
1, 199761, Note_on_c, 0, 76, 71
1, 199789, Note_off_c, 0, 76, 67
1, 199799, Note_on_c, 0, 74, 78
1, 199804, Note_off_c, 0, 84, 63
1, 199814, Note_on_c, 0, 83, 72
1, 199821, Control_c, 0, 67, 12
1, 199831, Note_off_c, 0, 74, 57
1, 199836, Control_c, 0, 67, 12
1, 199851, Control_c, 0, 67, 11
1, 199858, Note_off_c, 0, 83, 66
1, 199866, Control_c, 0, 67, 10
1, 199867, Note_on_c, 0, 72, 93
1, 199876, Note_on_c, 0, 81, 78
1, 199906, Note_off_c, 0, 72, 67
1, 199910, Note_off_c, 0, 81, 63
1, 199939, Control_c, 0, 67, 11
1, 199946, Note_on_c, 0, 83, 90
1, 199954, Control_c, 0, 67, 11
1, 199955, Note_on_c, 0, 74, 88
1, 199967, Note_off_c, 0, 83, 72
1, 199969, Control_c, 0, 67, 12
1, 199984, Control_c, 0, 67, 14
1, 199988, Note_off_c, 0, 74, 63
1, 199998, Control_c, 0, 67, 16
1, 200013, Control_c, 0, 67, 19
1, 200028, Control_c, 0, 67, 25
1, 200043, Control_c, 0, 67, 35
1, 200058, Control_c, 0, 67, 40
1, 200073, Control_c, 0, 67, 41
1, 200087, Control_c, 0, 67, 42
1, 200102, Control_c, 0, 67, 42
1, 200117, Control_c, 0, 67, 43
1, 200132, Control_c, 0, 67, 46
1, 200147, Control_c, 0, 67, 48
1, 200162, Control_c, 0, 67, 50
1, 200177, Control_c, 0, 67, 51
1, 200192, Control_c, 0, 67, 51
1, 200216, Note_on_c, 0, 48, 57
1, 200281, Note_off_c, 0, 48, 62
1, 200294, Note_on_c, 0, 76, 71
1, 200305, Note_on_c, 0, 72, 74
1, 200310, Note_on_c, 0, 60, 69
1, 200310, Control_c, 0, 64, 116
1, 200324, Control_c, 0, 64, 98
1, 200333, Note_off_c, 0, 72, 66
1, 200339, Control_c, 0, 64, 87
1, 200350, Note_off_c, 0, 76, 63
1, 200354, Control_c, 0, 64, 75
1, 200363, Note_off_c, 0, 60, 58
1, 200369, Control_c, 0, 64, 63
1, 200384, Note_on_c, 0, 74, 74
1, 200385, Control_c, 0, 64, 0
1, 200391, Note_on_c, 0, 71, 65
1, 200399, Note_on_c, 0, 48, 60
1, 200409, Note_off_c, 0, 74, 69
1, 200415, Control_c, 0, 67, 52
1, 200424, Note_off_c, 0, 71, 64
1, 200451, Note_off_c, 0, 48, 59
1, 200472, Note_on_c, 0, 60, 62
1, 200472, Note_on_c, 0, 77, 82
1, 200473, Control_c, 0, 67, 52
1, 200479, Note_on_c, 0, 74, 68
1, 200488, Control_c, 0, 67, 53
1, 200511, Control_c, 0, 67, 53
1, 200517, Note_off_c, 0, 74, 64
1, 200526, Control_c, 0, 67, 54
1, 200526, Note_off_c, 0, 60, 58
1, 200536, Note_off_c, 0, 77, 55
1, 200541, Control_c, 0, 67, 54
1, 200555, Control_c, 0, 67, 55
1, 200564, Note_on_c, 0, 72, 86
1, 200565, Note_on_c, 0, 76, 80
1, 200568, Note_on_c, 0, 48, 61
1, 200570, Control_c, 0, 67, 56
1, 200594, Note_off_c, 0, 76, 62
1, 200600, Control_c, 0, 67, 56
1, 200622, Note_off_c, 0, 72, 63
1, 200626, Note_off_c, 0, 48, 57
1, 200644, Control_c, 0, 67, 57
1, 200653, Note_on_c, 0, 60, 61
1, 200654, Note_on_c, 0, 76, 72
1, 200654, Note_on_c, 0, 79, 80
1, 200680, Note_off_c, 0, 76, 67
1, 200688, Note_off_c, 0, 79, 63
1, 200688, Control_c, 0, 67, 57
1, 200713, Note_off_c, 0, 60, 61
1, 200735, Note_on_c, 0, 48, 61
1, 200739, Note_on_c, 0, 77, 80
1, 200740, Note_on_c, 0, 74, 72
1, 200762, Note_off_c, 0, 77, 66
1, 200770, Note_off_c, 0, 74, 63
1, 200802, Note_off_c, 0, 48, 58
1, 200825, Note_on_c, 0, 81, 90
1, 200826, Note_on_c, 0, 77, 79
1, 200834, Note_on_c, 0, 60, 56
1, 200854, Note_off_c, 0, 77, 63
1, 200868, Note_off_c, 0, 81, 63
1, 200873, Note_off_c, 0, 60, 62
1, 200915, Note_on_c, 0, 48, 56
1, 200916, Note_on_c, 0, 79, 83
1, 200919, Note_on_c, 0, 76, 72
1, 200940, Note_off_c, 0, 79, 65
1, 200944, Note_off_c, 0, 76, 65
1, 200973, Note_off_c, 0, 48, 56
1, 201007, Note_on_c, 0, 60, 53
1, 201063, Note_off_c, 0, 60, 56
1, 201098, Note_on_c, 0, 48, 51
1, 201146, Control_c, 0, 67, 57
1, 201162, Note_off_c, 0, 48, 56
1, 201176, Control_c, 0, 67, 56
1, 201188, Note_on_c, 0, 77, 69
1, 201191, Control_c, 0, 67, 56
1, 201196, Note_on_c, 0, 60, 49
1, 201208, Note_on_c, 0, 74, 28
1, 201217, Note_off_c, 0, 77, 66
1, 201221, Control_c, 0, 67, 55
1, 201240, Note_off_c, 0, 74, 47
1, 201259, Note_off_c, 0, 60, 58
1, 201284, Note_on_c, 0, 76, 75
1, 201287, Note_on_c, 0, 72, 73
1, 201291, Note_on_c, 0, 48, 53
1, 201310, Note_off_c, 0, 76, 65
1, 201316, Note_off_c, 0, 72, 67
1, 201351, Note_off_c, 0, 48, 56
1, 201362, Control_c, 0, 67, 56
1, 201382, Note_on_c, 0, 60, 52
1, 201438, Note_off_c, 0, 60, 57
1, 201465, Note_on_c, 0, 48, 57
1, 201465, Control_c, 0, 67, 56
1, 201541, Note_off_c, 0, 48, 56
1, 201554, Note_on_c, 0, 60, 62
1, 201557, Note_on_c, 0, 74, 76
1, 201569, Note_on_c, 0, 65, 58
1, 201590, Note_off_c, 0, 65, 62
1, 201592, Note_off_c, 0, 74, 61
1, 201614, Control_c, 0, 67, 57
1, 201622, Note_off_c, 0, 60, 61
1, 201640, Note_on_c, 0, 48, 78
1, 201646, Note_on_c, 0, 64, 78
1, 201646, Note_on_c, 0, 72, 86
1, 201669, Note_off_c, 0, 64, 70
1, 201670, Note_off_c, 0, 72, 70
1, 201721, Note_on_c, 0, 60, 66
1, 201725, Note_off_c, 0, 48, 61
1, 201736, Note_on_c, 0, 76, 84
1, 201744, Note_on_c, 0, 72, 84
1, 201748, Control_c, 0, 67, 57
1, 201767, Note_off_c, 0, 72, 68
1, 201783, Note_off_c, 0, 76, 65
1, 201784, Note_off_c, 0, 60, 61
1, 201808, Note_on_c, 0, 48, 71
1, 201822, Note_on_c, 0, 74, 77
1, 201824, Note_on_c, 0, 71, 78
1, 201850, Note_off_c, 0, 74, 67
1, 201860, Note_off_c, 0, 71, 62
1, 201899, Note_on_c, 0, 60, 70
1, 201903, Note_off_c, 0, 48, 60
1, 201912, Note_on_c, 0, 74, 78
1, 201915, Note_on_c, 0, 77, 81
1, 201957, Note_off_c, 0, 74, 65
1, 201964, Note_off_c, 0, 77, 63
1, 201977, Note_off_c, 0, 60, 62
1, 202005, Note_on_c, 0, 48, 73
1, 202015, Note_on_c, 0, 76, 77
1, 202017, Note_on_c, 0, 72, 81
1, 202038, Note_off_c, 0, 76, 69
1, 202051, Note_off_c, 0, 72, 65
1, 202097, Note_off_c, 0, 48, 60
1, 202097, Note_on_c, 0, 60, 71
1, 202097, Note_on_c, 0, 76, 84
1, 202103, Note_on_c, 0, 79, 80
1, 202134, Note_off_c, 0, 76, 63
1, 202134, Note_off_c, 0, 79, 63
1, 202170, Note_off_c, 0, 60, 62
1, 202191, Note_on_c, 0, 77, 80
1, 202192, Note_on_c, 0, 48, 72
1, 202193, Note_on_c, 0, 74, 75
1, 202213, Note_off_c, 0, 77, 68
1, 202221, Note_off_c, 0, 74, 66
1, 202278, Note_on_c, 0, 77, 83
1, 202280, Note_on_c, 0, 81, 91
1, 202283, Note_on_c, 0, 60, 66
1, 202284, Note_off_c, 0, 48, 60
1, 202309, Note_off_c, 0, 77, 63
1, 202318, Note_off_c, 0, 81, 65
1, 202350, Note_off_c, 0, 60, 61
1, 202370, Note_on_c, 0, 79, 86
1, 202371, Note_on_c, 0, 76, 78
1, 202377, Note_on_c, 0, 48, 66
1, 202396, Note_off_c, 0, 76, 66
1, 202396, Note_off_c, 0, 79, 65
1, 202454, Note_off_c, 0, 48, 59
1, 202476, Note_on_c, 0, 60, 60
1, 202537, Note_off_c, 0, 60, 58
1, 202568, Note_on_c, 0, 48, 61
1, 202643, Note_off_c, 0, 48, 56
1, 202654, Note_on_c, 0, 77, 74
1, 202663, Note_on_c, 0, 60, 61
1, 202665, Note_on_c, 0, 74, 49
1, 202680, Note_off_c, 0, 77, 66
1, 202689, Note_off_c, 0, 74, 57
1, 202689, Control_c, 0, 67, 57
1, 202727, Note_off_c, 0, 60, 60
1, 202749, Note_on_c, 0, 72, 87
1, 202752, Note_on_c, 0, 76, 84
1, 202761, Note_on_c, 0, 48, 65
1, 202781, Note_off_c, 0, 72, 62
1, 202782, Note_off_c, 0, 76, 65
1, 202845, Note_off_c, 0, 48, 60
1, 202854, Note_on_c, 0, 60, 68
1, 202904, Control_c, 0, 67, 57
1, 202925, Note_off_c, 0, 60, 61
1, 202952, Note_on_c, 0, 48, 69
1, 203028, Note_on_c, 0, 74, 80
1, 203033, Note_off_c, 0, 48, 60
1, 203039, Note_on_c, 0, 60, 70
1, 203042, Note_on_c, 0, 65, 52
1, 203065, Note_off_c, 0, 65, 60
1, 203068, Control_c, 0, 67, 58
1, 203072, Note_off_c, 0, 74, 60
1, 203107, Note_off_c, 0, 60, 62
1, 203108, Note_on_c, 0, 64, 84
1, 203112, Note_on_c, 0, 72, 85
1, 203121, Note_on_c, 0, 48, 79
1, 203134, Note_off_c, 0, 64, 69
1, 203138, Note_off_c, 0, 72, 67
1, 203200, Note_on_c, 0, 76, 85
1, 203202, Note_on_c, 0, 60, 73
1, 203211, Note_off_c, 0, 48, 61
1, 203212, Note_on_c, 0, 72, 83
1, 203215, Control_c, 0, 67, 58
1, 203234, Note_off_c, 0, 72, 70
1, 203252, Note_off_c, 0, 76, 66
1, 203272, Note_off_c, 0, 60, 63
1, 203289, Note_on_c, 0, 48, 78
1, 203292, Note_on_c, 0, 71, 79
1, 203293, Note_on_c, 0, 74, 78
1, 203319, Control_c, 0, 67, 59
1, 203324, Note_off_c, 0, 74, 66
1, 203338, Note_off_c, 0, 71, 62
1, 203378, Note_on_c, 0, 60, 75
1, 203384, Note_on_c, 0, 77, 85
1, 203385, Note_on_c, 0, 74, 73
1, 203386, Note_off_c, 0, 48, 62
1, 203425, Note_off_c, 0, 74, 63
1, 203429, Note_off_c, 0, 77, 65
1, 203453, Note_off_c, 0, 60, 61
1, 203471, Note_on_c, 0, 48, 73
1, 203480, Note_on_c, 0, 76, 80
1, 203483, Note_on_c, 0, 72, 82
1, 203514, Note_off_c, 0, 76, 66
1, 203520, Note_off_c, 0, 72, 65
1, 203560, Note_off_c, 0, 48, 61
1, 203573, Note_on_c, 0, 60, 69
1, 203578, Note_on_c, 0, 76, 83
1, 203578, Note_on_c, 0, 79, 84
1, 203609, Note_off_c, 0, 76, 65
1, 203609, Control_c, 0, 67, 59
1, 203620, Note_off_c, 0, 79, 63
1, 203638, Note_off_c, 0, 60, 61
1, 203661, Note_on_c, 0, 48, 73
1, 203673, Note_on_c, 0, 74, 74
1, 203673, Note_on_c, 0, 77, 83
1, 203700, Note_off_c, 0, 77, 64
1, 203706, Note_off_c, 0, 74, 63
1, 203736, Note_off_c, 0, 48, 58
1, 203754, Note_on_c, 0, 60, 71
1, 203758, Note_on_c, 0, 81, 90
1, 203763, Note_on_c, 0, 77, 77
1, 203792, Note_off_c, 0, 77, 64
1, 203800, Note_off_c, 0, 81, 65
1, 203824, Note_off_c, 0, 60, 61
1, 203845, Note_on_c, 0, 48, 72
1, 203846, Note_on_c, 0, 76, 87
1, 203847, Note_on_c, 0, 79, 92
1, 203875, Note_off_c, 0, 79, 65
1, 203876, Control_c, 0, 67, 59
1, 203877, Note_off_c, 0, 76, 64
1, 203935, Note_off_c, 0, 48, 57
1, 203947, Note_on_c, 0, 60, 63
1, 204021, Note_off_c, 0, 60, 61
1, 204022, Control_c, 0, 67, 59
1, 204041, Note_on_c, 0, 48, 66
1, 204120, Note_off_c, 0, 48, 58
1, 204132, Note_on_c, 0, 77, 80
1, 204139, Note_on_c, 0, 74, 60
1, 204141, Control_c, 0, 67, 59
1, 204143, Note_on_c, 0, 60, 63
1, 204162, Note_off_c, 0, 74, 66
1, 204168, Note_off_c, 0, 77, 62
1, 204171, Control_c, 0, 67, 58
1, 204203, Note_off_c, 0, 60, 60
1, 204220, Note_on_c, 0, 72, 91
1, 204222, Note_on_c, 0, 76, 87
1, 204225, Note_on_c, 0, 48, 70
1, 204252, Control_c, 0, 67, 57
1, 204254, Note_off_c, 0, 72, 66
1, 204258, Note_off_c, 0, 76, 67
1, 204267, Control_c, 0, 67, 57
1, 204282, Control_c, 0, 67, 56
1, 204311, Control_c, 0, 67, 55
1, 204317, Note_off_c, 0, 48, 57
1, 204326, Control_c, 0, 67, 55
1, 204336, Note_on_c, 0, 60, 59
1, 204341, Control_c, 0, 67, 54
1, 204356, Control_c, 0, 67, 52
1, 204372, Control_c, 0, 67, 51
1, 204387, Control_c, 0, 67, 47
1, 204393, Note_off_c, 0, 60, 55
1, 204401, Control_c, 0, 67, 42
1, 204416, Control_c, 0, 67, 37
1, 204425, Note_on_c, 0, 48, 62
1, 204431, Control_c, 0, 67, 31
1, 204445, Control_c, 0, 67, 24
1, 204460, Control_c, 0, 67, 16
1, 204475, Control_c, 0, 67, 0
1, 204489, Note_off_c, 0, 48, 57
1, 204511, Note_on_c, 0, 74, 80
1, 204514, Note_on_c, 0, 65, 75
1, 204515, Note_on_c, 0, 60, 55
1, 204540, Note_off_c, 0, 74, 65
1, 204541, Note_off_c, 0, 65, 70
1, 204588, Note_off_c, 0, 60, 60
1, 204606, Note_on_c, 0, 48, 59
1, 204613, Note_on_c, 0, 72, 85
1, 204615, Note_on_c, 0, 64, 73
1, 204639, Control_c, 0, 64, 15
1, 204653, Control_c, 0, 64, 41
1, 204668, Control_c, 0, 64, 53
1, 204683, Control_c, 0, 64, 61
1, 204688, Note_off_c, 0, 48, 56
1, 204698, Control_c, 0, 64, 64
1, 204713, Control_c, 0, 64, 65
1, 204717, Note_on_c, 0, 60, 53
1, 204727, Control_c, 0, 64, 68
1, 204742, Control_c, 0, 64, 71
1, 204757, Control_c, 0, 64, 76
1, 204768, Note_off_c, 0, 60, 55
1, 204771, Control_c, 0, 64, 80
1, 204786, Control_c, 0, 64, 82
1, 204800, Note_on_c, 0, 48, 60
1, 204801, Control_c, 0, 64, 85
1, 204816, Control_c, 0, 64, 89
1, 204831, Control_c, 0, 64, 92
1, 204845, Control_c, 0, 64, 96
1, 204860, Control_c, 0, 64, 99
1, 204861, Note_off_c, 0, 48, 52
1, 204875, Control_c, 0, 64, 101
1, 204890, Control_c, 0, 64, 103
1, 204902, Note_on_c, 0, 60, 53
1, 204905, Control_c, 0, 64, 104
1, 204919, Control_c, 0, 64, 105
1, 204934, Control_c, 0, 64, 106
1, 204949, Control_c, 0, 64, 106
1, 204964, Control_c, 0, 64, 107
1, 204976, Note_off_c, 0, 60, 59
1, 204979, Control_c, 0, 64, 107
1, 205001, Control_c, 0, 64, 108
1, 205003, Note_on_c, 0, 48, 53
1, 205024, Note_off_c, 0, 72, 59
1, 205031, Control_c, 0, 64, 108
1, 205045, Control_c, 0, 64, 109
1, 205079, Note_off_c, 0, 48, 56
1, 205110, Note_on_c, 0, 60, 56
1, 205188, Note_off_c, 0, 60, 61
1, 205201, Note_on_c, 0, 48, 59
1, 205289, Note_off_c, 0, 48, 44
1, 205295, Note_off_c, 0, 64, 52
1, 205307, Note_on_c, 0, 60, 61
1, 205350, Note_off_c, 0, 60, 61
1, 205387, Control_c, 0, 64, 106
1, 205402, Control_c, 0, 64, 100
1, 205406, Note_on_c, 0, 48, 60
1, 205408, Note_on_c, 0, 73, 81
1, 205416, Note_on_c, 0, 64, 69
1, 205417, Control_c, 0, 64, 90
1, 205432, Control_c, 0, 64, 81
1, 205447, Control_c, 0, 64, 71
1, 205462, Control_c, 0, 64, 48
1, 205477, Control_c, 0, 64, 0
1, 205486, Note_off_c, 0, 48, 56
1, 205509, Note_on_c, 0, 58, 53
1, 205551, Control_c, 0, 64, 49
1, 205566, Control_c, 0, 64, 61
1, 205570, Note_off_c, 0, 58, 59
1, 205581, Control_c, 0, 64, 64
1, 205595, Control_c, 0, 64, 67
1, 205603, Note_on_c, 0, 48, 54
1, 205610, Control_c, 0, 64, 70
1, 205625, Control_c, 0, 64, 76
1, 205635, Note_off_c, 0, 64, 53
1, 205640, Control_c, 0, 64, 81
1, 205655, Control_c, 0, 64, 83
1, 205668, Note_off_c, 0, 48, 47
1, 205669, Control_c, 0, 64, 85
1, 205684, Control_c, 0, 64, 87
1, 205697, Note_on_c, 0, 58, 51
1, 205699, Control_c, 0, 64, 89
1, 205713, Control_c, 0, 64, 91
1, 205728, Control_c, 0, 64, 92
1, 205751, Control_c, 0, 64, 93
1, 205766, Control_c, 0, 64, 93
1, 205781, Note_off_c, 0, 58, 58
1, 205781, Control_c, 0, 64, 94
1, 205810, Control_c, 0, 64, 94
1, 205821, Note_on_c, 0, 48, 48
1, 205874, Note_off_c, 0, 48, 50
1, 205909, Note_on_c, 0, 58, 49
1, 205994, Note_off_c, 0, 58, 54
1, 206024, Note_on_c, 0, 48, 46
1, 206090, Note_off_c, 0, 48, 47
1, 206118, Note_on_c, 0, 58, 53
1, 206188, Note_off_c, 0, 58, 40
1, 206211, Control_c, 0, 64, 92
1, 206225, Control_c, 0, 64, 86
1, 206236, Note_on_c, 0, 48, 48
1, 206240, Control_c, 0, 64, 79
1, 206251, Note_on_c, 0, 65, 62
1, 206255, Control_c, 0, 64, 71
1, 206270, Control_c, 0, 64, 62
1, 206285, Control_c, 0, 64, 51
1, 206300, Control_c, 0, 64, 56
1, 206300, Note_off_c, 0, 48, 50
1, 206313, Note_off_c, 0, 73, 57
1, 206315, Control_c, 0, 64, 63
1, 206329, Control_c, 0, 64, 65
1, 206344, Control_c, 0, 64, 68
1, 206350, Note_on_c, 0, 56, 47
1, 206359, Control_c, 0, 64, 72
1, 206374, Control_c, 0, 64, 77
1, 206389, Control_c, 0, 64, 81
1, 206404, Control_c, 0, 64, 83
1, 206418, Control_c, 0, 64, 85
1, 206429, Note_off_c, 0, 56, 57
1, 206433, Control_c, 0, 64, 87
1, 206448, Control_c, 0, 64, 88
1, 206458, Note_on_c, 0, 48, 56
1, 206463, Control_c, 0, 64, 89
1, 206478, Control_c, 0, 64, 91
1, 206499, Control_c, 0, 64, 92
1, 206514, Control_c, 0, 64, 92
1, 206529, Control_c, 0, 64, 93
1, 206539, Note_off_c, 0, 48, 54
1, 206564, Note_on_c, 0, 56, 55
1, 206574, Control_c, 0, 64, 93
1, 206604, Control_c, 0, 64, 94
1, 206628, Note_on_c, 0, 72, 90
1, 206633, Control_c, 0, 64, 94
1, 206665, Note_off_c, 0, 56, 50
1, 206675, Note_on_c, 0, 48, 58
1, 206692, Control_c, 0, 64, 95
1, 206721, Note_off_c, 0, 65, 48
1, 206759, Note_off_c, 0, 48, 58
1, 206766, Control_c, 0, 64, 95
1, 206771, Note_on_c, 0, 56, 67
1, 206854, Note_off_c, 0, 56, 61
1, 206865, Note_on_c, 0, 48, 74
1, 206935, Note_off_c, 0, 48, 59
1, 206945, Note_off_c, 0, 72, 59
1, 206953, Note_on_c, 0, 56, 64
1, 207027, Note_off_c, 0, 56, 56
1, 207034, Control_c, 0, 64, 94
1, 207037, Note_on_c, 0, 71, 84
1, 207045, Note_on_c, 0, 65, 77
1, 207048, Control_c, 0, 64, 91
1, 207052, Note_on_c, 0, 50, 62
1, 207063, Control_c, 0, 64, 86
1, 207078, Control_c, 0, 64, 79
1, 207093, Control_c, 0, 64, 71
1, 207108, Control_c, 0, 64, 59
1, 207122, Control_c, 0, 64, 0
1, 207126, Note_off_c, 0, 50, 58
1, 207143, Note_on_c, 0, 56, 57
1, 207197, Control_c, 0, 64, 30
1, 207212, Control_c, 0, 64, 56
1, 207227, Control_c, 0, 64, 63
1, 207233, Note_off_c, 0, 56, 58
1, 207248, Control_c, 0, 64, 66
1, 207256, Note_on_c, 0, 50, 55
1, 207263, Control_c, 0, 64, 69
1, 207278, Control_c, 0, 64, 73
1, 207292, Control_c, 0, 64, 79
1, 207307, Control_c, 0, 64, 83
1, 207315, Note_off_c, 0, 50, 52
1, 207322, Control_c, 0, 64, 85
1, 207337, Control_c, 0, 64, 86
1, 207352, Control_c, 0, 64, 88
1, 207363, Note_on_c, 0, 56, 50
1, 207367, Control_c, 0, 64, 89
1, 207382, Control_c, 0, 64, 91
1, 207397, Control_c, 0, 64, 92
1, 207411, Control_c, 0, 64, 93
1, 207426, Control_c, 0, 64, 94
1, 207438, Note_off_c, 0, 56, 57
1, 207456, Control_c, 0, 64, 94
1, 207463, Note_on_c, 0, 50, 54
1, 207471, Control_c, 0, 64, 95
1, 207486, Control_c, 0, 64, 95
1, 207496, Note_off_c, 0, 65, 35
1, 207500, Control_c, 0, 64, 96
1, 207512, Note_off_c, 0, 50, 56
1, 207515, Control_c, 0, 64, 96
1, 207516, Note_off_c, 0, 71, 59
1, 207530, Control_c, 0, 64, 97
1, 207545, Control_c, 0, 64, 97
1, 207564, Note_on_c, 0, 56, 52
1, 207575, Control_c, 0, 64, 98
1, 207624, Note_off_c, 0, 56, 53
1, 207635, Control_c, 0, 64, 98
1, 207657, Note_on_c, 0, 50, 49
1, 207721, Note_off_c, 0, 50, 52
1, 207744, Note_on_c, 0, 56, 55
1, 207811, Note_on_c, 0, 70, 74
1, 207812, Control_c, 0, 64, 98
1, 207822, Note_on_c, 0, 60, 64
1, 207825, Note_off_c, 0, 56, 43
1, 207827, Control_c, 0, 64, 96
1, 207842, Control_c, 0, 64, 94
1, 207844, Note_on_c, 0, 52, 57
1, 207857, Control_c, 0, 64, 90
1, 207871, Control_c, 0, 64, 86
1, 207886, Control_c, 0, 64, 82
1, 207901, Control_c, 0, 64, 77
1, 207915, Control_c, 0, 64, 71
1, 207930, Note_off_c, 0, 52, 56
1, 207930, Control_c, 0, 64, 65
1, 207945, Control_c, 0, 64, 57
1, 207954, Note_on_c, 0, 55, 45
1, 207960, Control_c, 0, 64, 51
1, 207975, Control_c, 0, 64, 50
1, 208004, Note_off_c, 0, 55, 62
1, 208012, Control_c, 0, 67, 8
1, 208027, Control_c, 0, 64, 49
1, 208027, Control_c, 0, 67, 9
1, 208040, Note_on_c, 0, 52, 49
1, 208042, Control_c, 0, 64, 49
1, 208042, Control_c, 0, 67, 11
1, 208057, Control_c, 0, 64, 48
1, 208057, Control_c, 0, 67, 14
1, 208071, Control_c, 0, 64, 47
1, 208071, Control_c, 0, 67, 18
1, 208086, Control_c, 0, 64, 46
1, 208086, Control_c, 0, 67, 23
1, 208097, Note_off_c, 0, 52, 60
1, 208101, Control_c, 0, 67, 30
1, 208115, Control_c, 0, 67, 37
1, 208127, Note_on_c, 0, 55, 50
1, 208130, Control_c, 0, 64, 46
1, 208130, Control_c, 0, 67, 44
1, 208145, Control_c, 0, 67, 50
1, 208160, Control_c, 0, 67, 55
1, 208175, Note_off_c, 0, 55, 61
1, 208175, Control_c, 0, 67, 61
1, 208190, Control_c, 0, 64, 45
1, 208190, Control_c, 0, 67, 66
1, 208201, Note_off_c, 0, 60, 59
1, 208204, Control_c, 0, 67, 70
1, 208216, Note_on_c, 0, 67, 67
1, 208219, Control_c, 0, 67, 74
1, 208234, Control_c, 0, 67, 76
1, 208236, Note_on_c, 0, 52, 49
1, 208249, Control_c, 0, 67, 78
1, 208264, Control_c, 0, 67, 80
1, 208279, Control_c, 0, 67, 83
1, 208294, Control_c, 0, 67, 85
1, 208303, Note_off_c, 0, 52, 59
1, 208309, Control_c, 0, 67, 88
1, 208323, Control_c, 0, 67, 90
1, 208332, Note_on_c, 0, 60, 55
1, 208338, Control_c, 0, 67, 92
1, 208353, Control_c, 0, 67, 95
1, 208368, Control_c, 0, 67, 98
1, 208383, Control_c, 0, 67, 102
1, 208397, Note_off_c, 0, 60, 57
1, 208398, Control_c, 0, 67, 107
1, 208413, Control_c, 0, 67, 111
1, 208426, Note_on_c, 0, 52, 55
1, 208428, Control_c, 0, 67, 116
1, 208443, Control_c, 0, 67, 121
1, 208458, Control_c, 0, 67, 126
1, 208473, Note_off_c, 0, 52, 60
1, 208473, Control_c, 0, 67, 127
1, 208515, Note_on_c, 0, 60, 58
1, 208519, Note_off_c, 0, 70, 54
1, 208578, Note_off_c, 0, 60, 55
1, 208599, Note_on_c, 0, 69, 75
1, 208601, Note_on_c, 0, 53, 60
1, 208669, Note_off_c, 0, 53, 54
1, 208695, Note_on_c, 0, 60, 55
1, 208766, Note_off_c, 0, 60, 58
1, 208801, Note_on_c, 0, 53, 51
1, 208820, Control_c, 0, 64, 46
1, 208854, Note_off_c, 0, 53, 53
1, 208893, Note_on_c, 0, 60, 51
1, 208909, Control_c, 0, 64, 46
1, 208938, Note_off_c, 0, 60, 59
1, 208962, Note_on_c, 0, 64, 66
1, 208974, Note_on_c, 0, 53, 53
1, 208983, Control_c, 0, 64, 47
1, 208997, Note_off_c, 0, 67, 56
1, 209040, Note_off_c, 0, 53, 56
1, 209070, Note_on_c, 0, 61, 62
1, 209137, Note_off_c, 0, 61, 59
1, 209165, Note_on_c, 0, 53, 50
1, 209206, Control_c, 0, 64, 46
1, 209215, Note_off_c, 0, 53, 58
1, 209236, Control_c, 0, 64, 46
1, 209251, Control_c, 0, 64, 45
1, 209254, Note_on_c, 0, 61, 53
1, 209266, Control_c, 0, 64, 45
1, 209281, Control_c, 0, 64, 44
1, 209310, Control_c, 0, 64, 44
1, 209316, Note_off_c, 0, 61, 48
1, 209325, Control_c, 0, 64, 43
1, 209355, Note_on_c, 0, 53, 48
1, 209355, Control_c, 0, 64, 42
1, 209359, Note_on_c, 0, 65, 70
1, 209370, Control_c, 0, 64, 42
1, 209385, Control_c, 0, 64, 41
1, 209394, Note_off_c, 0, 64, 59
1, 209400, Control_c, 0, 64, 41
1, 209427, Note_off_c, 0, 53, 49
1, 209430, Control_c, 0, 64, 40
1, 209457, Note_on_c, 0, 62, 49
1, 209540, Control_c, 0, 64, 42
1, 209542, Note_off_c, 0, 62, 60
1, 209555, Control_c, 0, 64, 47
1, 209563, Note_on_c, 0, 53, 53
1, 209570, Control_c, 0, 64, 53
1, 209585, Control_c, 0, 64, 59
1, 209599, Control_c, 0, 64, 62
1, 209614, Control_c, 0, 64, 65
1, 209629, Control_c, 0, 64, 67
1, 209642, Note_off_c, 0, 53, 59
1, 209644, Control_c, 0, 64, 70
1, 209659, Control_c, 0, 64, 74
1, 209670, Note_on_c, 0, 62, 58
1, 209674, Control_c, 0, 64, 79
1, 209688, Control_c, 0, 64, 83
1, 209703, Control_c, 0, 64, 86
1, 209718, Control_c, 0, 64, 89
1, 209722, Note_off_c, 0, 62, 57
1, 209733, Control_c, 0, 64, 91
1, 209733, Control_c, 0, 67, 118
1, 209748, Control_c, 0, 64, 94
1, 209748, Control_c, 0, 67, 99
1, 209752, Note_off_c, 0, 65, 61
1, 209760, Note_on_c, 0, 53, 69
1, 209762, Control_c, 0, 64, 96
1, 209762, Control_c, 0, 67, 77
1, 209777, Control_c, 0, 64, 98
1, 209777, Control_c, 0, 67, 57
1, 209792, Control_c, 0, 64, 100
1, 209792, Control_c, 0, 67, 41
1, 209807, Control_c, 0, 64, 101
1, 209807, Control_c, 0, 67, 31
1, 209822, Control_c, 0, 64, 102
1, 209822, Control_c, 0, 67, 24
1, 209832, Note_off_c, 0, 53, 59
1, 209836, Control_c, 0, 64, 103
1, 209836, Control_c, 0, 67, 19
1, 209850, Note_on_c, 0, 62, 66
1, 209851, Control_c, 0, 64, 104
1, 209851, Control_c, 0, 67, 15
1, 209866, Control_c, 0, 64, 104
1, 209866, Control_c, 0, 67, 11
1, 209872, Note_off_c, 0, 69, 63
1, 209881, Control_c, 0, 64, 105
1, 209881, Control_c, 0, 67, 8
1, 209895, Control_c, 0, 67, 0
1, 209910, Control_c, 0, 64, 105
1, 209925, Control_c, 0, 64, 106
1, 209928, Note_off_c, 0, 62, 61
1, 209945, Note_on_c, 0, 53, 77
1, 210029, Note_off_c, 0, 53, 56
1, 210041, Note_on_c, 0, 62, 74
1, 210103, Note_off_c, 0, 62, 59
1, 210118, Control_c, 0, 64, 105
1, 210133, Control_c, 0, 64, 101
1, 210142, Note_on_c, 0, 54, 69
1, 210144, Note_on_c, 0, 69, 88
1, 210148, Control_c, 0, 64, 96
1, 210149, Note_on_c, 0, 63, 80
1, 210163, Control_c, 0, 64, 89
1, 210178, Control_c, 0, 64, 82
1, 210193, Control_c, 0, 64, 74
1, 210208, Control_c, 0, 64, 65
1, 210222, Control_c, 0, 64, 49
1, 210240, Note_off_c, 0, 54, 58
1, 210245, Control_c, 0, 64, 40
1, 210264, Note_on_c, 0, 60, 60
1, 210304, Control_c, 0, 64, 41
1, 210320, Note_off_c, 0, 60, 58
1, 210354, Note_on_c, 0, 54, 60
1, 210378, Control_c, 0, 64, 42
1, 210392, Control_c, 0, 64, 42
1, 210399, Note_off_c, 0, 54, 58
1, 210422, Control_c, 0, 64, 43
1, 210437, Note_on_c, 0, 60, 57
1, 210506, Note_off_c, 0, 60, 58
1, 210511, Control_c, 0, 64, 44
1, 210524, Note_on_c, 0, 54, 57
1, 210526, Control_c, 0, 67, 8
1, 210541, Control_c, 0, 67, 13
1, 210556, Control_c, 0, 67, 18
1, 210571, Control_c, 0, 67, 25
1, 210586, Control_c, 0, 67, 35
1, 210598, Note_off_c, 0, 54, 58
1, 210600, Control_c, 0, 67, 45
1, 210615, Control_c, 0, 67, 55
1, 210630, Note_on_c, 0, 60, 58
1, 210630, Control_c, 0, 67, 64
1, 210644, Control_c, 0, 67, 74
1, 210659, Control_c, 0, 67, 83
1, 210674, Control_c, 0, 67, 93
1, 210689, Control_c, 0, 67, 103
1, 210694, Note_off_c, 0, 60, 55
1, 210704, Control_c, 0, 67, 114
1, 210718, Control_c, 0, 67, 123
1, 210723, Note_on_c, 0, 54, 53
1, 210733, Control_c, 0, 67, 127
1, 210777, Note_off_c, 0, 54, 59
1, 210811, Note_on_c, 0, 60, 54
1, 210876, Note_off_c, 0, 60, 49
1, 210923, Note_off_c, 0, 69, 55
1, 210925, Note_on_c, 0, 55, 51
1, 210926, Note_on_c, 0, 67, 66
1, 210971, Control_c, 0, 64, 44
1, 210997, Note_off_c, 0, 55, 57
1, 211023, Note_on_c, 0, 60, 51
1, 211023, Control_c, 0, 64, 45
1, 211085, Note_off_c, 0, 60, 55
1, 211117, Note_on_c, 0, 55, 55
1, 211176, Note_off_c, 0, 55, 57
1, 211205, Note_on_c, 0, 60, 52
1, 211245, Control_c, 0, 64, 45
1, 211280, Note_off_c, 0, 60, 53
1, 211303, Note_on_c, 0, 55, 52
1, 211311, Note_on_c, 0, 62, 62
1, 211334, Note_off_c, 0, 63, 51
1, 211334, Control_c, 0, 64, 46
1, 211386, Note_off_c, 0, 55, 60
1, 211406, Note_on_c, 0, 60, 49
1, 211468, Note_off_c, 0, 60, 54
1, 211519, Note_on_c, 0, 55, 49
1, 211564, Note_off_c, 0, 55, 60
1, 211587, Control_c, 0, 64, 46
1, 211613, Note_on_c, 0, 60, 46
1, 211631, Control_c, 0, 64, 47
1, 211667, Note_off_c, 0, 60, 56
1, 211676, Control_c, 0, 64, 47
1, 211701, Note_on_c, 0, 64, 61
1, 211705, Control_c, 0, 64, 48
1, 211720, Control_c, 0, 64, 49
1, 211729, Note_on_c, 0, 55, 47
1, 211740, Note_off_c, 0, 62, 52
1, 211802, Control_c, 0, 64, 49
1, 211806, Note_off_c, 0, 55, 58
1, 211826, Note_on_c, 0, 59, 52
1, 211913, Note_off_c, 0, 59, 58
1, 211925, Note_on_c, 0, 55, 56
1, 211996, Note_off_c, 0, 55, 59
1, 212025, Note_on_c, 0, 59, 45
1, 212068, Note_off_c, 0, 59, 64
1, 212080, Note_on_c, 0, 65, 67
1, 212083, Control_c, 0, 64, 50
1, 212108, Note_on_c, 0, 55, 55
1, 212109, Note_off_c, 0, 64, 57
1, 212142, Control_c, 0, 64, 50
1, 212153, Note_off_c, 0, 55, 60
1, 212184, Note_on_c, 0, 59, 45
1, 212216, Control_c, 0, 64, 51
1, 212252, Note_off_c, 0, 59, 59
1, 212285, Note_on_c, 0, 55, 50
1, 212354, Note_off_c, 0, 55, 51
1, 212382, Note_on_c, 0, 59, 53
1, 212432, Note_off_c, 0, 65, 58
1, 212433, Note_off_c, 0, 67, 57
1, 212434, Note_off_c, 0, 59, 63
1, 212470, Note_on_c, 0, 64, 67
1, 212473, Note_on_c, 0, 60, 62
1, 212503, Note_off_c, 0, 64, 68
1, 212506, Control_c, 0, 64, 51
1, 212511, Note_off_c, 0, 60, 65
1, 212521, Control_c, 0, 67, 122
1, 212536, Control_c, 0, 67, 117
1, 212551, Control_c, 0, 67, 111
1, 212565, Control_c, 0, 67, 105
1, 212580, Control_c, 0, 67, 100
1, 212595, Control_c, 0, 67, 95
1, 212610, Control_c, 0, 67, 89
1, 212625, Control_c, 0, 67, 84
1, 212639, Control_c, 0, 67, 77
1, 212654, Control_c, 0, 67, 72
1, 212655, Note_on_c, 0, 76, 80
1, 212657, Note_on_c, 0, 67, 78
1, 212661, Note_on_c, 0, 72, 77
1, 212665, Note_on_c, 0, 48, 59
1, 212667, Note_on_c, 0, 52, 55
1, 212668, Note_on_c, 0, 55, 61
1, 212669, Control_c, 0, 67, 67
1, 212680, Note_off_c, 0, 67, 68
1, 212684, Control_c, 0, 67, 64
1, 212689, Note_off_c, 0, 72, 68
1, 212697, Note_off_c, 0, 76, 60
1, 212699, Control_c, 0, 67, 61
1, 212700, Note_off_c, 0, 55, 64
1, 212703, Note_off_c, 0, 52, 64
1, 212703, Note_off_c, 0, 48, 64
1, 212713, Control_c, 0, 67, 58
1, 212728, Control_c, 0, 67, 55
1, 212743, Control_c, 0, 67, 52
1, 212758, Control_c, 0, 67, 49
1, 212773, Control_c, 0, 67, 46
1, 212787, Control_c, 0, 67, 44
1, 212802, Control_c, 0, 67, 43
1, 212817, Control_c, 0, 67, 42
1, 212831, Control_c, 0, 67, 42
1, 212832, Note_on_c, 0, 77, 84
1, 212838, Note_on_c, 0, 67, 81
1, 212838, Note_on_c, 0, 74, 70
1, 212841, Note_on_c, 0, 50, 69
1, 212846, Control_c, 0, 67, 41
1, 212847, Note_on_c, 0, 47, 63
1, 212849, Note_on_c, 0, 55, 63
1, 212861, Control_c, 0, 67, 41
1, 212864, Note_off_c, 0, 67, 66
1, 212873, Note_off_c, 0, 74, 65
1, 212876, Control_c, 0, 67, 40
1, 212877, Note_off_c, 0, 50, 64
1, 212880, Note_off_c, 0, 55, 65
1, 212880, Note_off_c, 0, 77, 65
1, 212881, Note_off_c, 0, 47, 64
1, 212891, Control_c, 0, 67, 40
1, 212905, Control_c, 0, 67, 39
1, 212920, Control_c, 0, 67, 39
1, 212935, Control_c, 0, 67, 38
1, 213018, Note_on_c, 0, 76, 84
1, 213021, Note_on_c, 0, 67, 79
1, 213022, Note_on_c, 0, 72, 81
1, 213026, Note_on_c, 0, 52, 56
1, 213030, Note_on_c, 0, 48, 57
1, 213033, Note_on_c, 0, 55, 54
1, 213042, Note_off_c, 0, 67, 69
1, 213047, Note_off_c, 0, 72, 69
1, 213054, Control_c, 0, 64, 52
1, 213056, Note_off_c, 0, 52, 63
1, 213060, Note_off_c, 0, 76, 66
1, 213062, Note_off_c, 0, 55, 63
1, 213063, Note_off_c, 0, 48, 64
1, 213069, Control_c, 0, 67, 38
1, 213113, Control_c, 0, 67, 37
1, 213128, Control_c, 0, 64, 51
1, 213128, Control_c, 0, 67, 37
1, 213159, Control_c, 0, 64, 55
1, 213174, Control_c, 0, 64, 64
1, 213188, Control_c, 0, 64, 72
1, 213188, Control_c, 0, 67, 36
1, 213203, Control_c, 0, 64, 89
1, 213203, Control_c, 0, 67, 36
1, 213216, Note_on_c, 0, 81, 95
1, 213218, Control_c, 0, 64, 114
1, 213218, Control_c, 0, 67, 35
1, 213218, Note_on_c, 0, 69, 79
1, 213221, Note_on_c, 0, 41, 70
1, 213221, Note_on_c, 0, 77, 78
1, 213234, Note_on_c, 0, 53, 65
1, 213240, Control_c, 0, 64, 127
1, 213240, Control_c, 0, 67, 34
1, 213248, Note_off_c, 0, 69, 71
1, 213253, Note_off_c, 0, 77, 68
1, 213255, Control_c, 0, 67, 33
1, 213257, Note_off_c, 0, 41, 65
1, 213263, Note_off_c, 0, 81, 61
1, 213266, Note_off_c, 0, 53, 64
1, 213269, Control_c, 0, 67, 32
1, 213284, Control_c, 0, 67, 31
1, 213418, Control_c, 0, 67, 32
1, 213433, Control_c, 0, 67, 32
1, 213448, Control_c, 0, 67, 33
1, 213462, Control_c, 0, 67, 34
1, 213477, Control_c, 0, 67, 34
1, 213492, Control_c, 0, 67, 35
1, 213536, Control_c, 0, 67, 35
1, 213551, Control_c, 0, 67, 36
1, 213566, Control_c, 0, 67, 36
1, 213595, Control_c, 0, 64, 109
1, 213595, Control_c, 0, 67, 37
1, 213610, Control_c, 0, 64, 97
1, 213610, Control_c, 0, 67, 38
1, 213620, Note_on_c, 0, 62, 67
1, 213625, Control_c, 0, 64, 88
1, 213625, Control_c, 0, 67, 39
1, 213628, Note_on_c, 0, 59, 56
1, 213640, Control_c, 0, 64, 79
1, 213640, Control_c, 0, 67, 40
1, 213654, Control_c, 0, 64, 71
1, 213654, Control_c, 0, 67, 42
1, 213669, Control_c, 0, 64, 61
1, 213669, Control_c, 0, 67, 46
1, 213684, Control_c, 0, 64, 0
1, 213684, Control_c, 0, 67, 52
1, 213699, Control_c, 0, 67, 59
1, 213714, Control_c, 0, 67, 66
1, 213728, Control_c, 0, 67, 73
1, 213743, Control_c, 0, 67, 79
1, 213749, Note_off_c, 0, 62, 59
1, 213758, Control_c, 0, 67, 85
1, 213767, Note_on_c, 0, 64, 53
1, 213773, Control_c, 0, 67, 92
1, 213788, Control_c, 0, 67, 100
1, 213797, Note_off_c, 0, 59, 57
1, 213803, Control_c, 0, 67, 108
1, 213803, Note_off_c, 0, 64, 65
1, 213804, Note_on_c, 0, 65, 74
1, 213807, Note_on_c, 0, 55, 52
1, 213817, Control_c, 0, 67, 116
1, 213832, Control_c, 0, 67, 122
1, 213847, Control_c, 0, 67, 126
1, 213862, Control_c, 0, 67, 127
1, 213952, Note_off_c, 0, 65, 61
1, 213953, Note_off_c, 0, 55, 63
1, 213959, Note_on_c, 0, 67, 56
1, 213996, Note_on_c, 0, 60, 60
1, 214000, Note_on_c, 0, 64, 72
1, 214005, Note_off_c, 0, 67, 66
1, 214019, Control_c, 0, 67, 126
1, 214025, Note_off_c, 0, 64, 68
1, 214029, Note_off_c, 0, 60, 64
1, 214033, Control_c, 0, 67, 124
1, 214048, Control_c, 0, 67, 120
1, 214063, Control_c, 0, 67, 113
1, 214077, Control_c, 0, 67, 99
1, 214092, Control_c, 0, 67, 86
1, 214107, Control_c, 0, 67, 72
1, 214122, Control_c, 0, 67, 57
1, 214137, Control_c, 0, 67, 41
1, 214152, Control_c, 0, 67, 26
1, 214166, Control_c, 0, 67, 13
1, 214178, Note_on_c, 0, 76, 77
1, 214180, Note_on_c, 0, 67, 74
1, 214181, Note_on_c, 0, 72, 79
1, 214181, Control_c, 0, 67, 0
1, 214187, Note_on_c, 0, 48, 63
1, 214187, Note_on_c, 0, 55, 64
1, 214193, Note_on_c, 0, 52, 50
1, 214204, Note_off_c, 0, 67, 67
1, 214208, Note_off_c, 0, 72, 68
1, 214208, Note_off_c, 0, 76, 60
1, 214217, Note_off_c, 0, 55, 65
1, 214218, Note_off_c, 0, 52, 57
1, 214222, Note_off_c, 0, 48, 63
1, 214354, Note_on_c, 0, 77, 83
1, 214357, Note_on_c, 0, 74, 77
1, 214359, Note_on_c, 0, 67, 74
1, 214366, Note_on_c, 0, 47, 68
1, 214366, Note_on_c, 0, 55, 68
1, 214369, Note_on_c, 0, 50, 62
1, 214384, Note_off_c, 0, 67, 67
1, 214389, Note_off_c, 0, 74, 67
1, 214389, Note_off_c, 0, 77, 59
1, 214396, Note_off_c, 0, 55, 64
1, 214400, Note_off_c, 0, 50, 65
1, 214401, Note_off_c, 0, 47, 64
1, 214522, Control_c, 0, 64, 12
1, 214537, Note_on_c, 0, 76, 80
1, 214537, Control_c, 0, 64, 20
1, 214542, Note_on_c, 0, 72, 79
1, 214542, Note_on_c, 0, 67, 71
1, 214548, Note_on_c, 0, 55, 63
1, 214551, Note_on_c, 0, 52, 54
1, 214551, Control_c, 0, 64, 24
1, 214553, Note_on_c, 0, 48, 52
1, 214566, Control_c, 0, 64, 27
1, 214568, Note_off_c, 0, 67, 67
1, 214568, Note_off_c, 0, 72, 69
1, 214578, Note_off_c, 0, 52, 57
1, 214578, Note_off_c, 0, 55, 65
1, 214578, Note_off_c, 0, 76, 61
1, 214581, Control_c, 0, 64, 28
1, 214584, Note_off_c, 0, 48, 59
1, 214670, Control_c, 0, 64, 43
1, 214685, Control_c, 0, 64, 63
1, 214700, Control_c, 0, 64, 73
1, 214715, Control_c, 0, 64, 91
1, 214725, Note_on_c, 0, 81, 100
1, 214734, Note_on_c, 0, 69, 84
1, 214736, Control_c, 0, 64, 127
1, 214742, Note_on_c, 0, 41, 77
1, 214745, Note_on_c, 0, 53, 71
1, 214745, Note_on_c, 0, 77, 62
1, 214755, Note_off_c, 0, 69, 71
1, 214755, Note_off_c, 0, 81, 65
1, 214766, Note_off_c, 0, 77, 61
1, 214777, Note_on_c, 0, 79, 27
1, 214780, Note_off_c, 0, 53, 61
1, 214783, Note_off_c, 0, 41, 60
1, 214814, Note_off_c, 0, 79, 45
1, 214901, Control_c, 0, 67, 9
1, 214915, Control_c, 0, 67, 11
1, 214930, Control_c, 0, 67, 12
1, 214945, Control_c, 0, 67, 12
1, 214960, Control_c, 0, 67, 14
1, 214975, Control_c, 0, 67, 15
1, 214989, Control_c, 0, 67, 18
1, 215004, Control_c, 0, 67, 20
1, 215019, Control_c, 0, 67, 23
1, 215034, Control_c, 0, 67, 25
1, 215049, Control_c, 0, 67, 26
1, 215063, Control_c, 0, 67, 28
1, 215078, Control_c, 0, 67, 30
1, 215093, Control_c, 0, 67, 32
1, 215108, Control_c, 0, 64, 115
1, 215108, Control_c, 0, 67, 34
1, 215123, Control_c, 0, 64, 98
1, 215123, Control_c, 0, 67, 35
1, 215137, Note_on_c, 0, 59, 63
1, 215138, Control_c, 0, 64, 85
1, 215138, Control_c, 0, 67, 35
1, 215152, Control_c, 0, 64, 73
1, 215168, Control_c, 0, 64, 62
1, 215168, Control_c, 0, 67, 36
1, 215181, Note_off_c, 0, 59, 61
1, 215183, Control_c, 0, 64, 0
1, 215183, Control_c, 0, 67, 36
1, 215193, Note_on_c, 0, 62, 68
1, 215198, Control_c, 0, 67, 37
1, 215213, Control_c, 0, 67, 37
1, 215227, Control_c, 0, 67, 38
1, 215242, Control_c, 0, 67, 39
1, 215249, Note_off_c, 0, 62, 60
1, 215257, Control_c, 0, 67, 40
1, 215260, Note_on_c, 0, 65, 67
1, 215272, Control_c, 0, 67, 41
1, 215287, Control_c, 0, 67, 42
1, 215299, Note_on_c, 0, 55, 48
1, 215300, Note_on_c, 0, 47, 46
1, 215301, Control_c, 0, 67, 44
1, 215303, Note_off_c, 0, 65, 64
1, 215311, Note_on_c, 0, 69, 71
1, 215316, Control_c, 0, 67, 48
1, 215331, Control_c, 0, 67, 54
1, 215346, Control_c, 0, 67, 59
1, 215360, Control_c, 0, 67, 66
1, 215369, Note_on_c, 0, 67, 71
1, 215373, Note_off_c, 0, 69, 61
1, 215375, Control_c, 0, 67, 71
1, 215390, Control_c, 0, 67, 76
1, 215405, Control_c, 0, 67, 79
1, 215415, Note_off_c, 0, 67, 59
1, 215420, Note_off_c, 0, 47, 48
1, 215420, Control_c, 0, 67, 82
1, 215421, Note_on_c, 0, 65, 72
1, 215434, Control_c, 0, 67, 84
1, 215449, Control_c, 0, 67, 86
1, 215453, Note_off_c, 0, 55, 43
1, 215464, Control_c, 0, 67, 87
1, 215466, Note_on_c, 0, 64, 79
1, 215469, Note_on_c, 0, 48, 65
1, 215469, Note_off_c, 0, 65, 66
1, 215487, Control_c, 0, 67, 88
1, 215499, Note_off_c, 0, 64, 69
1, 215502, Control_c, 0, 67, 89
1, 215516, Control_c, 0, 67, 90
1, 215517, Note_off_c, 0, 48, 61
1, 215637, Note_on_c, 0, 48, 62
1, 215639, Note_on_c, 0, 67, 70
1, 215680, Note_off_c, 0, 67, 60
1, 215686, Note_off_c, 0, 48, 59
1, 215698, Note_on_c, 0, 72, 69
1, 215703, Note_on_c, 0, 52, 63
1, 215740, Note_off_c, 0, 52, 64
1, 215746, Note_off_c, 0, 72, 63
1, 215749, Note_on_c, 0, 76, 76
1, 215776, Note_on_c, 0, 55, 61
1, 215788, Note_off_c, 0, 76, 55
1, 215807, Note_on_c, 0, 47, 57
1, 215813, Note_on_c, 0, 67, 67
1, 215814, Note_off_c, 0, 55, 64
1, 215851, Note_off_c, 0, 67, 61
1, 215860, Note_off_c, 0, 47, 62
1, 215862, Note_on_c, 0, 74, 75
1, 215874, Note_on_c, 0, 50, 68
1, 215906, Note_off_c, 0, 50, 65
1, 215917, Control_c, 0, 67, 90
1, 215924, Note_on_c, 0, 77, 79
1, 215924, Note_off_c, 0, 74, 65
1, 215938, Note_on_c, 0, 55, 53
1, 215961, Control_c, 0, 67, 91
1, 215976, Note_on_c, 0, 67, 71
1, 215976, Note_off_c, 0, 77, 60
1, 215987, Note_off_c, 0, 55, 61
1, 215991, Note_on_c, 0, 48, 66
1, 216028, Note_on_c, 0, 72, 78
1, 216029, Note_off_c, 0, 67, 62
1, 216038, Note_off_c, 0, 48, 62
1, 216056, Note_on_c, 0, 52, 44
1, 216065, Control_c, 0, 67, 91
1, 216078, Note_off_c, 0, 72, 64
1, 216079, Note_on_c, 0, 76, 78
1, 216085, Note_off_c, 0, 52, 53
1, 216091, Note_on_c, 0, 55, 71
1, 216123, Note_off_c, 0, 55, 66
1, 216125, Note_off_c, 0, 76, 63
1, 216125, Control_c, 0, 67, 92
1, 216154, Control_c, 0, 67, 92
1, 216155, Note_on_c, 0, 69, 81
1, 216161, Note_on_c, 0, 41, 81
1, 216183, Control_c, 0, 67, 93
1, 216184, Note_off_c, 0, 69, 67
1, 216191, Note_off_c, 0, 41, 64
1, 216198, Control_c, 0, 67, 94
1, 216213, Control_c, 0, 67, 95
1, 216235, Control_c, 0, 67, 96
1, 216238, Note_on_c, 0, 81, 82
1, 216250, Control_c, 0, 67, 97
1, 216265, Control_c, 0, 67, 98
1, 216280, Control_c, 0, 67, 99
1, 216286, Note_off_c, 0, 81, 63
1, 216292, Note_on_c, 0, 79, 66
1, 216295, Control_c, 0, 67, 100
1, 216309, Control_c, 0, 67, 100
1, 216324, Control_c, 0, 67, 102
1, 216330, Note_off_c, 0, 79, 62
1, 216339, Control_c, 0, 67, 103
1, 216345, Note_on_c, 0, 77, 73
1, 216354, Control_c, 0, 67, 104
1, 216369, Control_c, 0, 67, 105
1, 216384, Control_c, 0, 67, 106
1, 216393, Note_off_c, 0, 77, 62
1, 216399, Control_c, 0, 67, 107
1, 216412, Note_on_c, 0, 76, 55
1, 216414, Control_c, 0, 67, 107
1, 216432, Note_off_c, 0, 76, 62
1, 216444, Control_c, 0, 67, 108
1, 216473, Note_on_c, 0, 74, 64
1, 216473, Control_c, 0, 67, 109
1, 216488, Control_c, 0, 67, 109
1, 216503, Note_off_c, 0, 74, 64
1, 216503, Control_c, 0, 67, 110
1, 216510, Note_on_c, 0, 53, 52
1, 216512, Note_on_c, 0, 57, 64
1, 216529, Note_on_c, 0, 73, 69
1, 216533, Control_c, 0, 67, 110
1, 216544, Note_off_c, 0, 53, 62
1, 216548, Note_off_c, 0, 57, 60
1, 216566, Note_off_c, 0, 73, 63
1, 216588, Note_on_c, 0, 74, 65
1, 216622, Note_off_c, 0, 74, 64
1, 216657, Note_on_c, 0, 81, 79
1, 216703, Note_off_c, 0, 81, 61
1, 216707, Note_on_c, 0, 79, 72
1, 216740, Note_off_c, 0, 79, 60
1, 216763, Note_on_c, 0, 77, 72
1, 216783, Control_c, 0, 67, 111
1, 216801, Note_off_c, 0, 77, 63
1, 216819, Note_on_c, 0, 76, 60
1, 216840, Note_off_c, 0, 76, 64
1, 216874, Note_on_c, 0, 74, 71
1, 216891, Note_on_c, 0, 53, 58
1, 216903, Note_on_c, 0, 57, 52
1, 216918, Note_off_c, 0, 74, 58
1, 216927, Note_off_c, 0, 53, 63
1, 216930, Note_off_c, 0, 57, 57
1, 216941, Note_on_c, 0, 73, 67
1, 216965, Note_off_c, 0, 73, 68
1, 217010, Note_on_c, 0, 81, 76
1, 217065, Note_on_c, 0, 79, 70
1, 217065, Note_off_c, 0, 81, 63
1, 217108, Note_off_c, 0, 79, 56
1, 217120, Note_on_c, 0, 77, 73
1, 217176, Note_off_c, 0, 77, 62
1, 217192, Note_on_c, 0, 76, 62
1, 217221, Note_off_c, 0, 76, 67
1, 217245, Note_on_c, 0, 53, 56
1, 217249, Note_on_c, 0, 74, 66
1, 217251, Note_on_c, 0, 57, 63
1, 217281, Note_off_c, 0, 53, 64
1, 217286, Note_off_c, 0, 57, 64
1, 217287, Note_off_c, 0, 74, 62
1, 217309, Note_on_c, 0, 73, 68
1, 217336, Note_off_c, 0, 73, 68
1, 217379, Note_on_c, 0, 81, 78
1, 217435, Note_off_c, 0, 81, 63
1, 217438, Note_on_c, 0, 79, 70
1, 217472, Note_off_c, 0, 79, 60
1, 217493, Note_on_c, 0, 77, 72
1, 217538, Note_off_c, 0, 77, 59
1, 217567, Note_on_c, 0, 76, 52
1, 217589, Note_off_c, 0, 76, 64
1, 217604, Note_on_c, 0, 53, 56
1, 217609, Note_on_c, 0, 57, 65
1, 217614, Note_on_c, 0, 74, 68
1, 217635, Note_off_c, 0, 53, 63
1, 217642, Note_off_c, 0, 57, 63
1, 217647, Note_off_c, 0, 74, 63
1, 217674, Note_on_c, 0, 73, 71
1, 217702, Note_off_c, 0, 73, 66
1, 217746, Note_on_c, 0, 81, 80
1, 217798, Note_on_c, 0, 79, 70
1, 217805, Note_off_c, 0, 81, 62
1, 217806, Control_c, 0, 67, 110
1, 217821, Control_c, 0, 67, 110
1, 217835, Control_c, 0, 67, 109
1, 217848, Note_on_c, 0, 77, 75
1, 217850, Control_c, 0, 67, 109
1, 217851, Note_off_c, 0, 79, 64
1, 217865, Control_c, 0, 67, 108
1, 217879, Control_c, 0, 67, 108
1, 217894, Control_c, 0, 67, 107
1, 217901, Note_off_c, 0, 77, 64
1, 217907, Note_on_c, 0, 76, 66
1, 217909, Control_c, 0, 67, 106
1, 217924, Control_c, 0, 67, 104
1, 217939, Control_c, 0, 67, 103
1, 217955, Control_c, 0, 67, 101
1, 217956, Note_off_c, 0, 76, 62
1, 217958, Note_on_c, 0, 53, 71
1, 217959, Note_on_c, 0, 74, 79
1, 217965, Note_on_c, 0, 57, 71
1, 217970, Control_c, 0, 67, 96
1, 217984, Control_c, 0, 67, 88
1, 217986, Note_off_c, 0, 53, 65
1, 217994, Note_off_c, 0, 74, 64
1, 217997, Note_off_c, 0, 57, 61
1, 217999, Control_c, 0, 67, 80
1, 218014, Control_c, 0, 67, 70
1, 218029, Control_c, 0, 67, 60
1, 218033, Note_on_c, 0, 81, 83
1, 218044, Control_c, 0, 67, 49
1, 218058, Control_c, 0, 67, 39
1, 218073, Control_c, 0, 67, 31
1, 218087, Note_on_c, 0, 79, 74
1, 218088, Control_c, 0, 67, 25
1, 218090, Note_off_c, 0, 81, 65
1, 218103, Control_c, 0, 67, 21
1, 218118, Control_c, 0, 67, 18
1, 218132, Control_c, 0, 67, 16
1, 218137, Note_on_c, 0, 77, 75
1, 218137, Note_off_c, 0, 79, 64
1, 218147, Control_c, 0, 67, 14
1, 218162, Control_c, 0, 67, 13
1, 218177, Control_c, 0, 67, 12
1, 218190, Note_off_c, 0, 77, 64
1, 218192, Control_c, 0, 67, 11
1, 218193, Note_on_c, 0, 76, 67
1, 218207, Control_c, 0, 67, 10
1, 218222, Control_c, 0, 67, 9
1, 218232, Note_off_c, 0, 76, 64
1, 218237, Control_c, 0, 67, 8
1, 218245, Note_on_c, 0, 74, 70
1, 218251, Control_c, 0, 67, 0
1, 218302, Note_off_c, 0, 74, 62
1, 218317, Note_on_c, 0, 76, 75
1, 218319, Note_on_c, 0, 64, 82
1, 218320, Note_on_c, 0, 60, 74
1, 218325, Control_c, 0, 64, 54
1, 218328, Note_on_c, 0, 55, 68
1, 218340, Control_c, 0, 64, 64
1, 218355, Control_c, 0, 64, 68
1, 218367, Note_off_c, 0, 76, 66
1, 218369, Control_c, 0, 64, 75
1, 218374, Note_on_c, 0, 79, 77
1, 218384, Control_c, 0, 64, 83
1, 218399, Control_c, 0, 64, 90
1, 218414, Control_c, 0, 64, 95
1, 218429, Control_c, 0, 64, 102
1, 218438, Note_on_c, 0, 77, 77
1, 218440, Note_off_c, 0, 79, 61
1, 218444, Control_c, 0, 64, 109
1, 218459, Control_c, 0, 64, 119
1, 218481, Control_c, 0, 64, 127
1, 218500, Note_on_c, 0, 76, 79
1, 218514, Note_off_c, 0, 77, 63
1, 218557, Note_off_c, 0, 76, 65
1, 218565, Note_on_c, 0, 74, 68
1, 218596, Note_on_c, 0, 72, 85
1, 218603, Note_off_c, 0, 74, 64
1, 218638, Note_off_c, 0, 72, 63
1, 218678, Note_on_c, 0, 71, 81
1, 218695, Note_off_c, 0, 55, 54
1, 218697, Note_off_c, 0, 60, 58
1, 218730, Note_off_c, 0, 71, 64
1, 218740, Note_on_c, 0, 69, 71
1, 218787, Note_off_c, 0, 69, 63
1, 218797, Note_on_c, 0, 67, 75
1, 218825, Note_off_c, 0, 67, 67
1, 218865, Note_on_c, 0, 79, 78
1, 218918, Note_on_c, 0, 55, 61
1, 218922, Note_off_c, 0, 79, 63
1, 218926, Note_on_c, 0, 76, 69
1, 218931, Note_off_c, 0, 64, 61
1, 218955, Note_off_c, 0, 76, 65
1, 218968, Note_on_c, 0, 72, 74
1, 218969, Note_on_c, 0, 59, 60
1, 218985, Control_c, 0, 64, 106
1, 218999, Control_c, 0, 64, 79
1, 219006, Note_off_c, 0, 72, 61
1, 219009, Note_on_c, 0, 62, 69
1, 219014, Control_c, 0, 64, 0
1, 219034, Note_on_c, 0, 74, 83
1, 219051, Note_on_c, 0, 65, 94
1, 219073, Control_c, 0, 64, 60
1, 219088, Control_c, 0, 64, 78
1, 219090, Note_off_c, 0, 74, 67
1, 219096, Note_on_c, 0, 76, 70
1, 219103, Control_c, 0, 64, 105
1, 219117, Control_c, 0, 64, 127
1, 219147, Note_off_c, 0, 76, 51
1, 219165, Note_on_c, 0, 74, 69
1, 219211, Note_off_c, 0, 74, 60
1, 219237, Note_on_c, 0, 76, 67
1, 219277, Note_off_c, 0, 76, 64
1, 219290, Note_on_c, 0, 74, 53
1, 219334, Note_off_c, 0, 74, 59
1, 219354, Note_on_c, 0, 76, 68
1, 219392, Note_off_c, 0, 76, 62
1, 219416, Note_on_c, 0, 74, 50
1, 219447, Note_off_c, 0, 74, 57
1, 219464, Note_on_c, 0, 76, 70
1, 219504, Note_off_c, 0, 76, 63
1, 219552, Note_on_c, 0, 74, 24
1, 219556, Note_off_c, 0, 59, 62
1, 219565, Note_off_c, 0, 55, 62
1, 219568, Note_off_c, 0, 62, 60
1, 219575, Note_on_c, 0, 76, 58
1, 219597, Note_off_c, 0, 74, 0
1, 219606, Note_off_c, 0, 76, 66
1, 219612, Note_on_c, 0, 74, 47
1, 219652, Note_off_c, 0, 74, 66
1, 219670, Note_on_c, 0, 72, 79
1, 219698, Note_off_c, 0, 72, 66
1, 219715, Note_on_c, 0, 74, 60
1, 219737, Note_off_c, 0, 65, 59
1, 219748, Control_c, 0, 64, 98
1, 219752, Note_off_c, 0, 74, 67
1, 219763, Control_c, 0, 64, 83
1, 219765, Note_on_c, 0, 72, 86
1, 219778, Control_c, 0, 64, 69
1, 219788, Note_on_c, 0, 64, 57
1, 219790, Note_on_c, 0, 60, 53
1, 219793, Control_c, 0, 64, 0
1, 219796, Note_off_c, 0, 72, 62
1, 219835, Note_off_c, 0, 64, 59
1, 219838, Note_off_c, 0, 60, 57
1, 219891, Note_on_c, 0, 67, 48
1, 219945, Note_off_c, 0, 67, 59
1, 219958, Note_on_c, 0, 79, 79
1, 219989, Note_on_c, 0, 60, 48
1, 219993, Note_on_c, 0, 64, 48
1, 219997, Note_off_c, 0, 79, 64
1, 220039, Note_off_c, 0, 64, 60
1, 220041, Note_off_c, 0, 60, 57
1, 220083, Note_on_c, 0, 67, 41
1, 220137, Note_off_c, 0, 67, 59
1, 220170, Note_on_c, 0, 60, 49
1, 220176, Note_on_c, 0, 64, 43
1, 220223, Note_off_c, 0, 64, 57
1, 220226, Note_off_c, 0, 60, 55
1, 220259, Note_on_c, 0, 67, 47
1, 220312, Note_off_c, 0, 67, 57
1, 220345, Note_on_c, 0, 84, 84
1, 220355, Note_on_c, 0, 60, 50
1, 220362, Note_on_c, 0, 64, 45
1, 220374, Note_off_c, 0, 84, 65
1, 220406, Note_off_c, 0, 60, 57
1, 220407, Note_off_c, 0, 64, 60
1, 220456, Note_on_c, 0, 67, 45
1, 220507, Note_off_c, 0, 67, 58
1, 220544, Note_on_c, 0, 60, 46
1, 220558, Note_on_c, 0, 64, 31
1, 220597, Note_off_c, 0, 60, 56
1, 220605, Note_off_c, 0, 64, 46
1, 220641, Note_on_c, 0, 67, 43
1, 220703, Note_off_c, 0, 67, 59
1, 220721, Note_on_c, 0, 79, 69
1, 220731, Note_on_c, 0, 60, 52
1, 220743, Note_on_c, 0, 64, 41
1, 220787, Note_off_c, 0, 60, 53
1, 220794, Note_off_c, 0, 79, 60
1, 220796, Note_off_c, 0, 64, 59
1, 220816, Note_on_c, 0, 88, 79
1, 220831, Note_on_c, 0, 67, 51
1, 220886, Note_off_c, 0, 67, 57
1, 220904, Note_on_c, 0, 86, 83
1, 220914, Note_off_c, 0, 88, 60
1, 220915, Note_on_c, 0, 60, 49
1, 220918, Note_on_c, 0, 64, 49
1, 220965, Note_off_c, 0, 60, 57
1, 220969, Note_off_c, 0, 64, 57
1, 220992, Note_on_c, 0, 84, 88
1, 221001, Note_off_c, 0, 86, 62
1, 221007, Note_on_c, 0, 67, 52
1, 221062, Note_off_c, 0, 67, 56
1, 221084, Note_on_c, 0, 83, 88
1, 221095, Note_on_c, 0, 60, 51
1, 221096, Note_off_c, 0, 84, 63
1, 221103, Note_on_c, 0, 64, 42
1, 221159, Note_off_c, 0, 60, 53
1, 221160, Note_off_c, 0, 64, 54
1, 221169, Note_off_c, 0, 83, 63
1, 221182, Note_on_c, 0, 81, 88
1, 221184, Note_on_c, 0, 67, 54
1, 221255, Note_off_c, 0, 67, 59
1, 221285, Note_on_c, 0, 79, 77
1, 221291, Note_on_c, 0, 59, 50
1, 221298, Note_off_c, 0, 81, 58
1, 221302, Note_on_c, 0, 65, 42
1, 221302, Note_on_c, 0, 62, 40
1, 221347, Note_off_c, 0, 59, 52
1, 221350, Note_off_c, 0, 65, 58
1, 221353, Note_off_c, 0, 62, 54
1, 221379, Note_on_c, 0, 67, 51
1, 221424, Note_off_c, 0, 67, 58
1, 221481, Note_on_c, 0, 59, 47
1, 221484, Note_on_c, 0, 65, 42
1, 221485, Note_on_c, 0, 62, 43
1, 221529, Note_off_c, 0, 59, 58
1, 221535, Note_off_c, 0, 62, 56
1, 221540, Note_off_c, 0, 65, 57
1, 221582, Note_on_c, 0, 67, 37
1, 221623, Note_off_c, 0, 67, 49
1, 221666, Note_on_c, 0, 59, 42
1, 221668, Note_on_c, 0, 65, 45
1, 221670, Note_on_c, 0, 62, 39
1, 221722, Note_off_c, 0, 59, 48
1, 221723, Note_off_c, 0, 65, 48
1, 221726, Note_off_c, 0, 62, 54
1, 221753, Note_on_c, 0, 67, 44
1, 221774, Note_on_c, 0, 80, 64
1, 221776, Note_off_c, 0, 79, 55
1, 221806, Note_off_c, 0, 67, 56
1, 221843, Note_off_c, 0, 80, 65
1, 221848, Note_on_c, 0, 59, 47
1, 221854, Note_on_c, 0, 65, 41
1, 221855, Note_on_c, 0, 62, 43
1, 221863, Note_on_c, 0, 81, 74
1, 221897, Note_off_c, 0, 59, 57
1, 221902, Note_off_c, 0, 62, 58
1, 221903, Note_off_c, 0, 65, 51
1, 221926, Note_off_c, 0, 81, 62
1, 221943, Note_on_c, 0, 67, 45
1, 221951, Note_on_c, 0, 82, 73
1, 222004, Note_off_c, 0, 67, 54
1, 222015, Note_off_c, 0, 82, 65
1, 222038, Note_on_c, 0, 65, 48
1, 222042, Note_on_c, 0, 59, 44
1, 222045, Note_on_c, 0, 83, 84
1, 222048, Note_on_c, 0, 62, 42
1, 222098, Note_off_c, 0, 62, 55
1, 222100, Note_off_c, 0, 59, 53
1, 222104, Note_off_c, 0, 65, 57
1, 222130, Note_on_c, 0, 67, 56
1, 222132, Note_on_c, 0, 84, 86
1, 222143, Note_off_c, 0, 83, 62
1, 222206, Note_off_c, 0, 67, 64
1, 222233, Note_on_c, 0, 85, 85
1, 222234, Note_on_c, 0, 65, 60
1, 222237, Note_on_c, 0, 59, 51
1, 222246, Note_on_c, 0, 62, 49
1, 222286, Note_off_c, 0, 84, 56
1, 222294, Note_off_c, 0, 62, 55
1, 222297, Note_off_c, 0, 65, 54
1, 222301, Note_off_c, 0, 59, 56
1, 222322, Note_on_c, 0, 86, 82
1, 222337, Note_on_c, 0, 67, 62
1, 222371, Note_off_c, 0, 85, 60
1, 222393, Note_off_c, 0, 67, 59
1, 222414, Note_on_c, 0, 88, 88
1, 222426, Note_off_c, 0, 86, 64
1, 222429, Note_on_c, 0, 59, 53
1, 222430, Note_on_c, 0, 65, 58
1, 222442, Note_on_c, 0, 62, 46
1, 222474, Note_off_c, 0, 65, 59
1, 222479, Note_off_c, 0, 62, 60
1, 222482, Note_off_c, 0, 59, 54
1, 222510, Note_on_c, 0, 86, 86
1, 222517, Note_on_c, 0, 67, 56
1, 222539, Note_off_c, 0, 88, 65
1, 222572, Note_off_c, 0, 67, 58
1, 222600, Note_on_c, 0, 83, 86
1, 222602, Note_off_c, 0, 86, 63
1, 222611, Note_on_c, 0, 59, 43
1, 222622, Note_on_c, 0, 65, 39
1, 222656, Note_off_c, 0, 83, 67
1, 222662, Note_off_c, 0, 59, 55
1, 222674, Note_off_c, 0, 65, 55
1, 222698, Note_on_c, 0, 77, 65
1, 222705, Note_on_c, 0, 67, 51
1, 222735, Note_off_c, 0, 77, 60
1, 222766, Note_off_c, 0, 67, 54
1, 222790, Note_on_c, 0, 76, 69
1, 222799, Note_on_c, 0, 60, 57
1, 222809, Note_on_c, 0, 64, 36
1, 222817, Note_off_c, 0, 76, 69
1, 222842, Note_off_c, 0, 64, 52
1, 222844, Note_off_c, 0, 60, 56
1, 222893, Note_on_c, 0, 67, 49
1, 222941, Note_off_c, 0, 67, 59
1, 222978, Note_on_c, 0, 79, 79
1, 222984, Note_on_c, 0, 64, 42
1, 222984, Note_on_c, 0, 60, 51
1, 223006, Note_off_c, 0, 79, 65
1, 223033, Note_off_c, 0, 64, 58
1, 223037, Note_off_c, 0, 60, 54
1, 223078, Note_on_c, 0, 67, 49
1, 223134, Note_off_c, 0, 67, 58
1, 223173, Note_on_c, 0, 60, 49
1, 223180, Note_on_c, 0, 64, 41
1, 223229, Note_off_c, 0, 60, 54
1, 223231, Note_off_c, 0, 64, 57
1, 223261, Note_on_c, 0, 67, 52
1, 223272, Note_on_c, 0, 84, 54
1, 223293, Note_off_c, 0, 84, 60
1, 223314, Note_on_c, 0, 86, 66
1, 223323, Note_off_c, 0, 67, 58
1, 223354, Note_on_c, 0, 60, 48
1, 223358, Note_on_c, 0, 64, 42
1, 223365, Note_on_c, 0, 84, 67
1, 223367, Note_off_c, 0, 86, 63
1, 223396, Note_off_c, 0, 84, 67
1, 223405, Note_off_c, 0, 64, 57
1, 223410, Note_on_c, 0, 83, 69
1, 223411, Note_off_c, 0, 60, 54
1, 223451, Note_off_c, 0, 83, 64
1, 223455, Note_on_c, 0, 67, 50
1, 223470, Note_on_c, 0, 84, 65
1, 223496, Note_off_c, 0, 84, 66
1, 223502, Note_off_c, 0, 67, 59
1, 223541, Note_on_c, 0, 60, 46
1, 223545, Note_on_c, 0, 64, 40
1, 223603, Note_off_c, 0, 60, 54
1, 223606, Note_off_c, 0, 64, 55
1, 223649, Note_on_c, 0, 67, 42
1, 223700, Note_off_c, 0, 67, 58
1, 223738, Note_on_c, 0, 60, 48
1, 223754, Note_on_c, 0, 64, 35
1, 223754, Note_on_c, 0, 79, 64
1, 223809, Note_off_c, 0, 60, 50
1, 223809, Note_off_c, 0, 64, 54
1, 223827, Note_off_c, 0, 79, 59
1, 223833, Note_on_c, 0, 67, 44
1, 223856, Note_on_c, 0, 88, 75
1, 223899, Note_off_c, 0, 67, 58
1, 223932, Note_on_c, 0, 60, 52
1, 223941, Note_on_c, 0, 64, 39
1, 223944, Note_on_c, 0, 86, 81
1, 223961, Note_off_c, 0, 88, 59
1, 223991, Note_off_c, 0, 60, 53
1, 223997, Note_off_c, 0, 64, 50
1, 224027, Note_on_c, 0, 67, 48
1, 224038, Note_on_c, 0, 84, 88
1, 224051, Note_off_c, 0, 86, 63
1, 224097, Note_off_c, 0, 67, 59
1, 224113, Note_on_c, 0, 60, 56
1, 224131, Note_on_c, 0, 64, 39
1, 224131, Note_on_c, 0, 83, 89
1, 224144, Note_off_c, 0, 84, 61
1, 224170, Note_off_c, 0, 64, 54
1, 224179, Note_off_c, 0, 60, 55
1, 224212, Note_off_c, 0, 83, 67
1, 224216, Note_on_c, 0, 67, 55
1, 224224, Note_on_c, 0, 81, 90
1, 224264, Note_off_c, 0, 67, 56
1, 224323, Note_on_c, 0, 59, 45
1, 224328, Note_on_c, 0, 62, 39
1, 224328, Note_on_c, 0, 79, 78
1, 224343, Note_on_c, 0, 65, 34
1, 224347, Note_off_c, 0, 81, 59
1, 224377, Note_off_c, 0, 59, 57
1, 224382, Note_off_c, 0, 62, 55
1, 224388, Note_off_c, 0, 65, 50
1, 224423, Note_on_c, 0, 67, 53
1, 224480, Note_off_c, 0, 67, 60
1, 224525, Note_on_c, 0, 65, 43
1, 224531, Note_on_c, 0, 59, 44
1, 224534, Note_on_c, 0, 62, 39
1, 224580, Note_off_c, 0, 59, 58
1, 224582, Note_off_c, 0, 62, 57
1, 224583, Note_off_c, 0, 65, 55
1, 224619, Note_on_c, 0, 67, 49
1, 224667, Note_off_c, 0, 67, 58
1, 224707, Note_on_c, 0, 59, 46
1, 224707, Note_on_c, 0, 65, 45
1, 224718, Note_on_c, 0, 62, 39
1, 224766, Note_off_c, 0, 59, 52
1, 224766, Note_off_c, 0, 62, 57
1, 224769, Note_off_c, 0, 65, 48
1, 224797, Note_off_c, 0, 79, 55
1, 224802, Note_on_c, 0, 80, 63
1, 224804, Note_on_c, 0, 67, 44
1, 224864, Note_off_c, 0, 67, 58
1, 224879, Note_off_c, 0, 80, 65
1, 224898, Note_on_c, 0, 81, 81
1, 224899, Note_on_c, 0, 65, 48
1, 224900, Note_on_c, 0, 59, 48
1, 224916, Note_on_c, 0, 62, 37
1, 224953, Note_off_c, 0, 65, 56
1, 224957, Note_off_c, 0, 62, 56
1, 224960, Note_off_c, 0, 59, 52
1, 224963, Note_off_c, 0, 81, 61
1, 224989, Note_on_c, 0, 82, 74
1, 224990, Note_on_c, 0, 67, 49
1, 225049, Note_off_c, 0, 67, 59
1, 225055, Note_off_c, 0, 82, 65
1, 225083, Note_on_c, 0, 59, 54
1, 225087, Note_on_c, 0, 65, 51
1, 225088, Note_on_c, 0, 83, 84
1, 225098, Note_on_c, 0, 62, 43
1, 225146, Note_off_c, 0, 62, 56
1, 225149, Note_off_c, 0, 65, 52
1, 225157, Note_off_c, 0, 59, 49
1, 225177, Note_on_c, 0, 84, 85
1, 225196, Note_on_c, 0, 67, 53
1, 225264, Note_off_c, 0, 83, 26
1, 225266, Note_off_c, 0, 67, 61
1, 225281, Note_on_c, 0, 85, 84
1, 225290, Note_on_c, 0, 59, 53
1, 225301, Note_on_c, 0, 65, 53
1, 225309, Note_on_c, 0, 62, 45
1, 225327, Note_off_c, 0, 84, 53
1, 225349, Note_off_c, 0, 62, 61
1, 225349, Note_off_c, 0, 65, 57
1, 225370, Note_off_c, 0, 59, 60
1, 225377, Note_on_c, 0, 86, 81
1, 225398, Note_on_c, 0, 67, 59
1, 225425, Note_off_c, 0, 85, 60
1, 225457, Note_off_c, 0, 67, 60
1, 225467, Note_on_c, 0, 88, 84
1, 225474, Note_off_c, 0, 86, 63
1, 225491, Note_on_c, 0, 65, 55
1, 225494, Note_on_c, 0, 59, 58
1, 225512, Note_on_c, 0, 62, 33
1, 225529, Note_off_c, 0, 65, 62
1, 225547, Note_off_c, 0, 59, 51
1, 225550, Note_off_c, 0, 62, 49
1, 225568, Note_on_c, 0, 86, 80
1, 225575, Note_on_c, 0, 67, 64
1, 225598, Note_off_c, 0, 88, 63
1, 225617, Note_off_c, 0, 67, 59
1, 225653, Note_off_c, 0, 86, 61
1, 225655, Note_on_c, 0, 62, 41
1, 225657, Note_on_c, 0, 83, 80
1, 225666, Note_on_c, 0, 65, 43
1, 225720, Note_off_c, 0, 83, 66
1, 225721, Note_off_c, 0, 62, 56
1, 225729, Note_off_c, 0, 65, 56
1, 225739, Poly_aftertouch_c, 0, 59, 0
1, 225743, Note_on_c, 0, 67, 58
1, 225748, Note_on_c, 0, 77, 71
1, 225812, Note_off_c, 0, 67, 59
1, 225833, Note_off_c, 0, 77, 44
1, 225842, Note_on_c, 0, 64, 49
1, 225845, Note_on_c, 0, 60, 57
1, 225851, Note_on_c, 0, 76, 67
1, 225929, Note_off_c, 0, 76, 64
1, 225936, Note_on_c, 0, 77, 78
1, 226043, Note_on_c, 0, 78, 77
1, 226048, Note_off_c, 0, 77, 63
1, 226137, Note_on_c, 0, 79, 78
1, 226172, Note_off_c, 0, 64, 59
1, 226185, Note_off_c, 0, 78, 58
1, 226191, Note_off_c, 0, 60, 61
1, 226224, Note_off_c, 0, 79, 64
1, 226226, Note_on_c, 0, 81, 90
1, 226319, Note_on_c, 0, 79, 81
1, 226346, Note_off_c, 0, 81, 62
1, 226406, Note_on_c, 0, 76, 79
1, 226409, Note_off_c, 0, 79, 63
1, 226472, Note_off_c, 0, 76, 63
1, 226499, Note_on_c, 0, 72, 79
1, 226565, Note_on_c, 0, 55, 50
1, 226568, Note_on_c, 0, 65, 55
1, 226572, Note_on_c, 0, 62, 48
1, 226585, Note_off_c, 0, 72, 39
1, 226595, Note_on_c, 0, 71, 71
1, 226672, Note_off_c, 0, 71, 63
1, 226682, Note_on_c, 0, 72, 86
1, 226778, Note_off_c, 0, 72, 57
1, 226782, Note_on_c, 0, 73, 78
1, 226883, Note_on_c, 0, 74, 74
1, 226921, Note_off_c, 0, 62, 36
1, 226927, Control_c, 0, 67, 9
1, 226927, Note_off_c, 0, 73, 57
1, 226934, Note_off_c, 0, 65, 52
1, 226941, Control_c, 0, 67, 14
1, 226956, Control_c, 0, 67, 20
1, 226966, Note_off_c, 0, 74, 63
1, 226969, Note_on_c, 0, 76, 77
1, 226971, Control_c, 0, 67, 28
1, 226985, Control_c, 0, 67, 39
1, 227000, Control_c, 0, 67, 53
1, 227015, Control_c, 0, 67, 63
1, 227022, Note_off_c, 0, 55, 41
1, 227030, Control_c, 0, 67, 72
1, 227045, Control_c, 0, 67, 78
1, 227059, Control_c, 0, 67, 85
1, 227069, Note_on_c, 0, 74, 67
1, 227074, Control_c, 0, 67, 91
1, 227077, Note_off_c, 0, 76, 55
1, 227089, Control_c, 0, 67, 96
1, 227104, Control_c, 0, 67, 102
1, 227119, Control_c, 0, 67, 106
1, 227133, Control_c, 0, 67, 110
1, 227144, Note_off_c, 0, 74, 63
1, 227148, Control_c, 0, 67, 114
1, 227153, Note_on_c, 0, 71, 65
1, 227163, Control_c, 0, 67, 117
1, 227178, Control_c, 0, 67, 121
1, 227192, Control_c, 0, 67, 126
1, 227207, Control_c, 0, 67, 127
1, 227216, Note_off_c, 0, 71, 55
1, 227249, Note_on_c, 0, 67, 58
1, 227294, Note_off_c, 0, 67, 59
1, 227336, Note_on_c, 0, 64, 49
1, 227339, Note_on_c, 0, 60, 39
1, 227342, Note_on_c, 0, 72, 76
1, 227375, Note_off_c, 0, 72, 63
1, 227510, Note_off_c, 0, 64, 60
1, 227547, Note_off_c, 0, 60, 53
1, 227549, Note_on_c, 0, 74, 55
1, 227557, Note_on_c, 0, 71, 46
1, 227589, Note_off_c, 0, 71, 53
1, 227590, Note_off_c, 0, 74, 63
1, 227640, Note_on_c, 0, 67, 56
1, 227682, Note_off_c, 0, 67, 60
1, 227730, Note_on_c, 0, 72, 67
1, 227732, Note_on_c, 0, 76, 54
1, 227773, Note_off_c, 0, 76, 58
1, 227776, Note_off_c, 0, 72, 58
1, 227826, Note_on_c, 0, 67, 51
1, 227870, Note_off_c, 0, 67, 62
1, 227920, Note_on_c, 0, 74, 56
1, 227923, Note_on_c, 0, 77, 55
1, 227958, Note_off_c, 0, 74, 63
1, 227960, Note_off_c, 0, 77, 58
1, 228007, Note_on_c, 0, 67, 59
1, 228048, Note_off_c, 0, 67, 62
1, 228105, Note_on_c, 0, 79, 76
1, 228111, Note_on_c, 0, 76, 59
1, 228130, Note_off_c, 0, 76, 65
1, 228139, Note_off_c, 0, 79, 62
1, 228319, Note_on_c, 0, 53, 74
1, 228319, Control_c, 0, 67, 126
1, 228323, Note_on_c, 0, 74, 81
1, 228325, Note_on_c, 0, 69, 82
1, 228334, Control_c, 0, 67, 109
1, 228349, Control_c, 0, 67, 88
1, 228364, Control_c, 0, 67, 65
1, 228379, Control_c, 0, 67, 45
1, 228385, Note_off_c, 0, 53, 60
1, 228394, Control_c, 0, 67, 30
1, 228400, Note_off_c, 0, 69, 56
1, 228402, Note_off_c, 0, 74, 60
1, 228406, Note_on_c, 0, 50, 69
1, 228409, Control_c, 0, 67, 16
1, 228412, Note_on_c, 0, 65, 84
1, 228424, Control_c, 0, 67, 0
1, 228459, Note_off_c, 0, 65, 67
1, 228469, Note_off_c, 0, 50, 64
1, 228510, Note_on_c, 0, 72, 91
1, 228510, Note_on_c, 0, 67, 90
1, 228513, Note_on_c, 0, 55, 73
1, 228558, Note_off_c, 0, 55, 61
1, 228576, Note_off_c, 0, 67, 61
1, 228601, Note_on_c, 0, 64, 82
1, 228606, Note_off_c, 0, 72, 63
1, 228645, Note_off_c, 0, 64, 66
1, 228702, Note_on_c, 0, 65, 82
1, 228702, Note_on_c, 0, 71, 77
1, 228704, Note_on_c, 0, 55, 65
1, 228704, Note_on_c, 0, 43, 68
1, 228734, Note_off_c, 0, 55, 65
1, 228740, Note_off_c, 0, 43, 63
1, 228755, Note_off_c, 0, 65, 63
1, 228776, Note_off_c, 0, 71, 59
1, 228794, Note_on_c, 0, 62, 70
1, 228809, Control_c, 0, 64, 22
1, 228823, Note_off_c, 0, 62, 66
1, 228824, Control_c, 0, 64, 51
1, 228838, Control_c, 0, 64, 62
1, 228853, Control_c, 0, 64, 66
1, 228853, Control_c, 0, 67, 8
1, 228868, Control_c, 0, 64, 72
1, 228868, Control_c, 0, 67, 9
1, 228883, Control_c, 0, 64, 80
1, 228883, Control_c, 0, 67, 11
1, 228898, Control_c, 0, 64, 86
1, 228898, Control_c, 0, 67, 13
1, 228907, Note_on_c, 0, 36, 67
1, 228908, Note_on_c, 0, 48, 66
1, 228911, Note_on_c, 0, 72, 88
1, 228913, Note_on_c, 0, 64, 73
1, 228913, Control_c, 0, 64, 89
1, 228913, Control_c, 0, 67, 16
1, 228928, Control_c, 0, 64, 92
1, 228928, Control_c, 0, 67, 19
1, 228938, Note_off_c, 0, 64, 69
1, 228941, Note_off_c, 0, 72, 58
1, 228943, Control_c, 0, 64, 94
1, 228943, Control_c, 0, 67, 23
1, 228946, Note_off_c, 0, 36, 59
1, 228948, Note_off_c, 0, 48, 59
1, 228964, Control_c, 0, 64, 95
1, 228964, Control_c, 0, 67, 27
1, 228979, Control_c, 0, 64, 96
1, 228979, Control_c, 0, 67, 30
1, 228994, Control_c, 0, 67, 32
1, 229009, Control_c, 0, 67, 35
1, 229024, Control_c, 0, 67, 38
1, 229038, Control_c, 0, 67, 42
1, 229053, Control_c, 0, 67, 46
1, 229068, Control_c, 0, 67, 50
1, 229083, Control_c, 0, 67, 53
1, 229098, Control_c, 0, 67, 56
1, 229112, Control_c, 0, 64, 95
1, 229112, Control_c, 0, 67, 59
1, 229120, Note_on_c, 0, 71, 64
1, 229124, Note_on_c, 0, 74, 58
1, 229127, Control_c, 0, 64, 93
1, 229127, Control_c, 0, 67, 63
1, 229143, Control_c, 0, 64, 90
1, 229143, Control_c, 0, 67, 68
1, 229158, Control_c, 0, 64, 85
1, 229158, Control_c, 0, 67, 75
1, 229165, Note_off_c, 0, 74, 61
1, 229172, Note_off_c, 0, 71, 49
1, 229173, Control_c, 0, 64, 78
1, 229173, Control_c, 0, 67, 84
1, 229187, Control_c, 0, 64, 69
1, 229187, Control_c, 0, 67, 94
1, 229202, Control_c, 0, 64, 57
1, 229202, Control_c, 0, 67, 103
1, 229217, Note_on_c, 0, 67, 64
1, 229217, Control_c, 0, 64, 0
1, 229217, Control_c, 0, 67, 113
1, 229232, Control_c, 0, 67, 120
1, 229247, Control_c, 0, 67, 127
1, 229273, Note_off_c, 0, 67, 51
1, 229316, Note_on_c, 0, 72, 72
1, 229317, Note_on_c, 0, 76, 62
1, 229363, Note_off_c, 0, 76, 56
1, 229367, Note_off_c, 0, 72, 55
1, 229416, Note_on_c, 0, 67, 52
1, 229458, Note_off_c, 0, 67, 61
1, 229511, Note_on_c, 0, 77, 62
1, 229516, Note_on_c, 0, 74, 52
1, 229551, Note_off_c, 0, 77, 60
1, 229554, Note_off_c, 0, 74, 63
1, 229612, Note_on_c, 0, 67, 55
1, 229648, Note_off_c, 0, 67, 63
1, 229702, Note_on_c, 0, 79, 72
1, 229718, Note_on_c, 0, 76, 52
1, 229738, Note_off_c, 0, 76, 62
1, 229746, Note_off_c, 0, 79, 62
1, 229918, Note_on_c, 0, 74, 81
1, 229920, Note_on_c, 0, 69, 79
1, 229923, Note_on_c, 0, 53, 68
1, 229936, Control_c, 0, 67, 118
1, 229951, Control_c, 0, 67, 93
1, 229966, Control_c, 0, 67, 65
1, 229981, Control_c, 0, 67, 37
1, 229990, Note_off_c, 0, 53, 60
1, 229996, Control_c, 0, 67, 15
1, 230004, Note_off_c, 0, 69, 60
1, 230004, Note_off_c, 0, 74, 59
1, 230010, Control_c, 0, 67, 0
1, 230012, Note_on_c, 0, 50, 70
1, 230013, Note_on_c, 0, 65, 80
1, 230060, Note_off_c, 0, 65, 67
1, 230072, Note_off_c, 0, 50, 63
1, 230104, Note_on_c, 0, 55, 75
1, 230105, Note_on_c, 0, 72, 94
1, 230108, Note_on_c, 0, 67, 87
1, 230155, Note_off_c, 0, 55, 61
1, 230181, Note_off_c, 0, 72, 57
1, 230185, Note_off_c, 0, 67, 60
1, 230197, Note_on_c, 0, 64, 82
1, 230242, Note_off_c, 0, 64, 65
1, 230293, Note_on_c, 0, 65, 86
1, 230296, Note_on_c, 0, 71, 76
1, 230302, Note_on_c, 0, 43, 70
1, 230302, Note_on_c, 0, 55, 64
1, 230330, Note_off_c, 0, 55, 64
1, 230336, Note_off_c, 0, 43, 64
1, 230347, Note_off_c, 0, 65, 65
1, 230388, Note_off_c, 0, 71, 52
1, 230400, Note_on_c, 0, 62, 73
1, 230430, Note_off_c, 0, 62, 63
1, 230492, Control_c, 0, 64, 56
1, 230507, Control_c, 0, 64, 66
1, 230522, Control_c, 0, 64, 74
1, 230531, Note_on_c, 0, 72, 90
1, 230533, Note_on_c, 0, 36, 65
1, 230536, Note_on_c, 0, 48, 60
1, 230536, Control_c, 0, 64, 82
1, 230537, Note_on_c, 0, 64, 75
1, 230551, Control_c, 0, 64, 87
1, 230566, Note_off_c, 0, 36, 64
1, 230566, Control_c, 0, 64, 89
1, 230571, Note_off_c, 0, 48, 51
1, 230575, Note_off_c, 0, 64, 61
1, 230575, Note_off_c, 0, 72, 60
1, 230581, Control_c, 0, 64, 93
1, 230596, Control_c, 0, 64, 97
1, 230610, Control_c, 0, 64, 102
1, 230625, Control_c, 0, 64, 107
1, 230640, Control_c, 0, 64, 110
1, 230654, Control_c, 0, 64, 112
1, 230714, Control_c, 0, 64, 111
1, 230730, Control_c, 0, 64, 107
1, 230745, Control_c, 0, 64, 100
1, 230759, Control_c, 0, 64, 92
1, 230774, Control_c, 0, 64, 83
1, 230789, Control_c, 0, 64, 75
1, 230804, Control_c, 0, 64, 66
1, 230819, Control_c, 0, 64, 43
1, 230833, Control_c, 0, 64, 0
1, 230951, Control_c, 0, 64, 22
1, 230966, Control_c, 0, 64, 56
1, 230972, Note_on_c, 0, 43, 58
1, 230981, Control_c, 0, 64, 63
1, 230996, Control_c, 0, 64, 67
1, 230997, Note_on_c, 0, 74, 60
1, 231010, Note_on_c, 0, 47, 56
1, 231011, Control_c, 0, 64, 72
1, 231023, Note_on_c, 0, 77, 78
1, 231026, Control_c, 0, 64, 80
1, 231028, Note_off_c, 0, 74, 67
1, 231038, Note_on_c, 0, 50, 63
1, 231040, Control_c, 0, 64, 88
1, 231055, Control_c, 0, 64, 93
1, 231066, Note_on_c, 0, 83, 95
1, 231070, Control_c, 0, 64, 98
1, 231074, Note_on_c, 0, 55, 77
1, 231084, Control_c, 0, 64, 101
1, 231085, Note_off_c, 0, 77, 64
1, 231099, Control_c, 0, 64, 104
1, 231103, Note_off_c, 0, 83, 70
1, 231106, Note_off_c, 0, 50, 63
1, 231113, Note_off_c, 0, 55, 61
1, 231114, Control_c, 0, 64, 105
1, 231119, Note_off_c, 0, 43, 61
1, 231121, Note_off_c, 0, 47, 61
1, 231129, Control_c, 0, 64, 105
1, 231144, Control_c, 0, 64, 106
1, 231373, Control_c, 0, 64, 104
1, 231388, Control_c, 0, 64, 102
1, 231403, Control_c, 0, 64, 99
1, 231418, Control_c, 0, 64, 97
1, 231432, Control_c, 0, 64, 94
1, 231447, Control_c, 0, 64, 91
1, 231462, Control_c, 0, 64, 87
1, 231476, Control_c, 0, 64, 81
1, 231491, Control_c, 0, 64, 78
1, 231506, Control_c, 0, 64, 75
1, 231521, Control_c, 0, 64, 72
1, 231537, Control_c, 0, 64, 67
1, 231552, Control_c, 0, 64, 62
1, 231567, Control_c, 0, 64, 50
1, 231581, Control_c, 0, 64, 30
1, 231596, Control_c, 0, 64, 0
1, 231712, Note_on_c, 0, 72, 60
1, 231715, Note_on_c, 0, 36, 62
1, 231730, Control_c, 0, 64, 54
1, 231745, Control_c, 0, 64, 66
1, 231760, Control_c, 0, 64, 74
1, 231761, Note_on_c, 0, 76, 69
1, 231775, Control_c, 0, 64, 89
1, 231775, Note_off_c, 0, 72, 63
1, 231779, Note_on_c, 0, 40, 59
1, 231789, Control_c, 0, 64, 101
1, 231804, Control_c, 0, 64, 109
1, 231810, Note_on_c, 0, 79, 78
1, 231817, Note_on_c, 0, 43, 68
1, 231819, Control_c, 0, 64, 120
1, 231834, Control_c, 0, 64, 127
1, 231842, Note_off_c, 0, 76, 63
1, 231844, Note_on_c, 0, 84, 96
1, 231854, Note_on_c, 0, 48, 82
1, 231864, Note_off_c, 0, 79, 65
1, 231873, Note_off_c, 0, 40, 60
1, 231876, Note_off_c, 0, 36, 31
1, 231876, Note_off_c, 0, 84, 70
1, 231885, Note_off_c, 0, 43, 63
1, 231903, Note_off_c, 0, 48, 64
1, 232812, Control_c, 0, 64, 122
1, 232827, Control_c, 0, 64, 119
1, 232842, Control_c, 0, 64, 117
1, 232856, Control_c, 0, 64, 115
1, 232871, Control_c, 0, 64, 114
1, 232886, Control_c, 0, 64, 112
1, 232901, Control_c, 0, 64, 111
1, 232916, Control_c, 0, 64, 110
1, 232930, Control_c, 0, 64, 109
1, 232945, Control_c, 0, 64, 108
1, 232960, Control_c, 0, 64, 107
1, 232975, Control_c, 0, 64, 105
1, 232990, Control_c, 0, 64, 104
1, 233004, Control_c, 0, 64, 103
1, 233019, Control_c, 0, 64, 102
1, 233034, Control_c, 0, 64, 101
1, 233049, Control_c, 0, 64, 100
1, 233063, Control_c, 0, 64, 99
1, 233078, Control_c, 0, 64, 98
1, 233093, Control_c, 0, 64, 96
1, 233108, Control_c, 0, 64, 95
1, 233124, Control_c, 0, 64, 93
1, 233139, Control_c, 0, 64, 91
1, 233152, Control_c, 0, 64, 88
1, 233167, Control_c, 0, 64, 85
1, 233182, Control_c, 0, 64, 81
1, 233197, Control_c, 0, 64, 77
1, 233212, Control_c, 0, 64, 71
1, 233226, Control_c, 0, 64, 66
1, 233241, Control_c, 0, 64, 62
1, 233256, Control_c, 0, 64, 60
1, 233271, Control_c, 0, 64, 60
1, 233286, Control_c, 0, 64, 59
1, 233301, Control_c, 0, 64, 58
1, 233316, Control_c, 0, 64, 54
1, 233330, Control_c, 0, 64, 48
1, 233345, Control_c, 0, 64, 41
1, 233360, Control_c, 0, 64, 35
1, 233375, Control_c, 0, 64, 32
1, 233390, Control_c, 0, 64, 28
1, 233405, Control_c, 0, 64, 20
1, 233419, Control_c, 0, 64, 0
1, 233419, End_track
0, 0, End_of_file
