0, 0, Header, 0, 1, 384
1, 0, Start_track
1, 0, Title_t, "Regards de l'esprit...--N. Huang"
1, 0, Text_t, "2008 e-Piano Junior Competition recital round"
1, 0, Text_t, "recorded July 2008"
1, 0, Text_t, "http://www.piano-e-competition.com/"
1, 0, Text_t, "File processed for distribution by software from Zenph Studios, Inc., http://www.zenph.com"
1, 0, Instrument_name_t, "Yamaha Disklavier Pro Mark IV concert grand piano, model DCFIIISM4PRO"
1, 0, Sequencer_specific, 39, 67, 113, 0, 1, 0, 1, 0, 82, 101, 103, 46, 32, 100, 101, 32, 108, 39, 101, 115, 112, 46, 46, 46, 78, 97, 110, 115, 111, 110, 103, 32, 72, 117, 97, 110, 103, 32, 32, 32
1, 0, Sequencer_specific, 6, 67, 113, 0, 0, 0, 69
1, 0, System_exclusive, 21, 67, 113, 126, 21, 0, 2, 2, 0, 3, 14, 1, 4, 1, 13, 13, 10, 11, 9, 2, 7, 247
1, 0, Sequencer_specific, 5, 67, 123, 12, 2, 1
1, 0, Tempo, 512820
1, 0, Time_signature, 4, 2, 24, 8
1, 0, System_exclusive, 5, 126, 127, 9, 1, 247
1, 1, System_exclusive, 8, 67, 16, 76, 0, 0, 126, 0, 247
1, 2, System_exclusive, 8, 67, 16, 76, 8, 9, 7, 1, 247
1, 3, Control_c, 0, 0, 0
1, 3, Control_c, 1, 0, 0
1, 3, Control_c, 2, 0, 0
1, 3, Control_c, 3, 0, 0
1, 3, Control_c, 4, 0, 0
1, 3, Control_c, 5, 0, 0
1, 3, Control_c, 6, 0, 0
1, 3, Control_c, 7, 0, 0
1, 3, Control_c, 8, 0, 0
1, 3, Control_c, 9, 0, 127
1, 3, Control_c, 10, 0, 0
1, 3, Control_c, 11, 0, 0
1, 3, Control_c, 12, 0, 0
1, 3, Control_c, 13, 0, 0
1, 3, Control_c, 14, 0, 0
1, 3, Control_c, 15, 0, 0
1, 4, Control_c, 0, 32, 0
1, 4, Control_c, 1, 32, 0
1, 4, Control_c, 2, 32, 0
1, 4, Control_c, 3, 32, 0
1, 4, Control_c, 4, 32, 0
1, 4, Control_c, 5, 32, 0
1, 4, Control_c, 6, 32, 0
1, 4, Control_c, 7, 32, 0
1, 4, Control_c, 8, 32, 0
1, 4, Control_c, 9, 32, 0
1, 4, Control_c, 10, 32, 0
1, 4, Control_c, 11, 32, 0
1, 4, Control_c, 12, 32, 0
1, 4, Control_c, 13, 32, 0
1, 4, Control_c, 14, 32, 0
1, 4, Control_c, 15, 32, 0
1, 5, Program_c, 0, 0
1, 5, Program_c, 1, 0
1, 5, Program_c, 2, 0
1, 5, Program_c, 3, 0
1, 5, Program_c, 4, 0
1, 5, Program_c, 5, 0
1, 5, Program_c, 6, 0
1, 5, Program_c, 7, 0
1, 5, Program_c, 8, 0
1, 5, Program_c, 9, 0
1, 5, Program_c, 10, 0
1, 5, Program_c, 11, 0
1, 5, Program_c, 12, 0
1, 5, Program_c, 13, 0
1, 5, Program_c, 14, 0
1, 5, Program_c, 15, 0
1, 6, Control_c, 0, 7, 100
1, 6, Control_c, 1, 7, 100
1, 6, Control_c, 2, 7, 100
1, 6, Control_c, 3, 7, 100
1, 6, Control_c, 4, 7, 100
1, 6, Control_c, 5, 7, 100
1, 6, Control_c, 6, 7, 100
1, 6, Control_c, 7, 7, 100
1, 6, Control_c, 8, 7, 100
1, 6, Control_c, 9, 7, 100
1, 6, Control_c, 10, 7, 100
1, 6, Control_c, 11, 7, 100
1, 6, Control_c, 12, 7, 100
1, 6, Control_c, 13, 7, 100
1, 6, Control_c, 14, 7, 100
1, 6, Control_c, 15, 7, 100
1, 117, Control_c, 0, 64, 7
1, 229, Control_c, 0, 64, 15
1, 341, Control_c, 0, 64, 22
1, 452, Control_c, 0, 64, 31
1, 564, Control_c, 0, 64, 37
1, 676, Control_c, 0, 64, 46
1, 787, Control_c, 0, 64, 52
1, 899, Control_c, 0, 64, 63
1, 1129, Note_on_c, 0, 44, 76
1, 1139, Note_on_c, 0, 32, 45
1, 1163, Note_off_c, 0, 44, 64
1, 1170, Note_off_c, 0, 32, 54
1, 1203, Control_c, 0, 64, 62
1, 1276, Note_on_c, 0, 31, 50
1, 1280, Note_on_c, 0, 43, 64
1, 1306, Note_off_c, 0, 31, 59
1, 1307, Control_c, 0, 64, 62
1, 1309, Note_off_c, 0, 43, 63
1, 1336, Control_c, 0, 64, 61
1, 1351, Control_c, 0, 64, 60
1, 1366, Control_c, 0, 64, 59
1, 1380, Control_c, 0, 64, 58
1, 1395, Control_c, 0, 64, 57
1, 1421, Note_on_c, 0, 45, 73
1, 1428, Note_on_c, 0, 33, 65
1, 1440, Control_c, 0, 64, 58
1, 1450, Note_off_c, 0, 45, 66
1, 1456, Note_off_c, 0, 33, 66
1, 1469, Control_c, 0, 64, 58
1, 1545, Control_c, 0, 64, 58
1, 1559, Control_c, 0, 64, 57
1, 1564, Note_on_c, 0, 32, 54
1, 1564, Note_on_c, 0, 44, 63
1, 1574, Control_c, 0, 64, 56
1, 1589, Control_c, 0, 64, 54
1, 1595, Note_off_c, 0, 44, 65
1, 1596, Note_off_c, 0, 32, 63
1, 1603, Control_c, 0, 64, 53
1, 1663, Control_c, 0, 64, 53
1, 1704, Note_on_c, 0, 31, 51
1, 1704, Note_on_c, 0, 43, 58
1, 1735, Note_off_c, 0, 31, 56
1, 1736, Note_off_c, 0, 43, 63
1, 1766, Control_c, 0, 64, 52
1, 1826, Control_c, 0, 64, 52
1, 1844, Note_on_c, 0, 33, 69
1, 1848, Note_on_c, 0, 45, 76
1, 1874, Note_off_c, 0, 33, 65
1, 1874, Note_off_c, 0, 45, 66
1, 1901, Control_c, 0, 64, 52
1, 1952, Control_c, 0, 64, 53
1, 1982, Control_c, 0, 64, 52
1, 1997, Control_c, 0, 64, 52
1, 1998, Note_on_c, 0, 30, 50
1, 2008, Note_on_c, 0, 42, 60
1, 2011, Control_c, 0, 64, 51
1, 2026, Control_c, 0, 64, 49
1, 2032, Note_off_c, 0, 30, 60
1, 2041, Control_c, 0, 64, 48
1, 2043, Note_off_c, 0, 42, 65
1, 2056, Control_c, 0, 64, 47
1, 2071, Control_c, 0, 64, 46
1, 2085, Control_c, 0, 64, 44
1, 2100, Control_c, 0, 64, 42
1, 2115, Control_c, 0, 64, 41
1, 2130, Control_c, 0, 64, 39
1, 2137, Note_on_c, 0, 33, 48
1, 2144, Note_on_c, 0, 45, 59
1, 2145, Control_c, 0, 64, 39
1, 2160, Control_c, 0, 64, 38
1, 2167, Note_off_c, 0, 33, 57
1, 2173, Note_off_c, 0, 45, 66
1, 2175, Control_c, 0, 64, 37
1, 2190, Control_c, 0, 64, 37
1, 2219, Control_c, 0, 64, 36
1, 2278, Note_on_c, 0, 48, 64
1, 2287, Note_on_c, 0, 36, 42
1, 2306, Note_off_c, 0, 48, 67
1, 2318, Note_off_c, 0, 36, 49
1, 2339, Control_c, 0, 64, 37
1, 2369, Control_c, 0, 64, 37
1, 2383, Control_c, 0, 64, 38
1, 2401, Note_on_c, 0, 48, 66
1, 2409, Note_on_c, 0, 36, 55
1, 2413, Control_c, 0, 64, 39
1, 2440, Note_off_c, 0, 36, 64
1, 2442, Note_off_c, 0, 48, 68
1, 2442, Control_c, 0, 64, 39
1, 2457, Control_c, 0, 64, 40
1, 2472, Control_c, 0, 64, 41
1, 2487, Control_c, 0, 64, 43
1, 2501, Control_c, 0, 64, 44
1, 2516, Control_c, 0, 64, 46
1, 2531, Control_c, 0, 64, 47
1, 2543, Note_on_c, 0, 36, 51
1, 2543, Note_on_c, 0, 48, 67
1, 2546, Control_c, 0, 64, 48
1, 2561, Control_c, 0, 64, 49
1, 2574, Note_off_c, 0, 48, 65
1, 2575, Note_off_c, 0, 36, 63
1, 2575, Control_c, 0, 64, 49
1, 2619, Control_c, 0, 64, 49
1, 2634, Control_c, 0, 64, 48
1, 2660, Note_on_c, 0, 48, 91
1, 2664, Note_on_c, 0, 36, 83
1, 2664, Control_c, 0, 64, 49
1, 2705, Note_off_c, 0, 36, 67
1, 2714, Note_off_c, 0, 48, 64
1, 2716, Control_c, 0, 64, 48
1, 2745, Control_c, 0, 64, 47
1, 2760, Control_c, 0, 64, 45
1, 2775, Control_c, 0, 64, 43
1, 2790, Control_c, 0, 64, 41
1, 2805, Control_c, 0, 64, 39
1, 2810, Note_on_c, 0, 32, 60
1, 2816, Note_on_c, 0, 44, 73
1, 2820, Control_c, 0, 64, 37
1, 2834, Control_c, 0, 64, 34
1, 2849, Note_off_c, 0, 44, 65
1, 2849, Control_c, 0, 64, 30
1, 2852, Note_off_c, 0, 32, 60
1, 2864, Control_c, 0, 64, 25
1, 2879, Control_c, 0, 64, 18
1, 2893, Control_c, 0, 64, 11
1, 2908, Control_c, 0, 64, 0
1, 2942, Note_on_c, 0, 43, 71
1, 2947, Note_on_c, 0, 31, 52
1, 2979, Note_off_c, 0, 43, 64
1, 2985, Note_off_c, 0, 31, 63
1, 3080, Note_on_c, 0, 45, 81
1, 3086, Note_on_c, 0, 33, 65
1, 3120, Note_off_c, 0, 45, 65
1, 3127, Note_off_c, 0, 33, 63
1, 3191, Control_c, 0, 64, 18
1, 3206, Control_c, 0, 64, 29
1, 3221, Control_c, 0, 64, 33
1, 3221, Note_on_c, 0, 30, 54
1, 3223, Note_on_c, 0, 42, 74
1, 3236, Control_c, 0, 64, 35
1, 3250, Control_c, 0, 64, 37
1, 3265, Control_c, 0, 64, 44
1, 3269, Note_off_c, 0, 42, 62
1, 3280, Control_c, 0, 64, 55
1, 3295, Control_c, 0, 64, 64
1, 3310, Control_c, 0, 64, 71
1, 3324, Control_c, 0, 64, 80
1, 3339, Control_c, 0, 64, 91
1, 3344, Note_on_c, 0, 33, 79
1, 3348, Note_on_c, 0, 45, 90
1, 3354, Control_c, 0, 64, 96
1, 3368, Control_c, 0, 64, 104
1, 3369, Note_off_c, 0, 30, 55
1, 3372, Note_off_c, 0, 45, 70
1, 3376, Note_off_c, 0, 33, 66
1, 3383, Control_c, 0, 64, 115
1, 3397, Control_c, 0, 64, 127
1, 3537, Note_on_c, 0, 67, 69
1, 3556, Note_on_c, 0, 69, 76
1, 3558, Note_off_c, 0, 67, 66
1, 3560, Note_on_c, 0, 62, 49
1, 3563, Note_on_c, 0, 49, 62
1, 3585, Note_off_c, 0, 62, 56
1, 3591, Note_on_c, 0, 74, 63
1, 3599, Note_on_c, 0, 78, 88
1, 3609, Note_on_c, 0, 65, 103
1, 3616, Note_on_c, 0, 48, 87
1, 3616, Note_on_c, 0, 61, 104
1, 3620, Note_off_c, 0, 49, 0
1, 3640, Note_off_c, 0, 78, 69
1, 3641, Note_on_c, 0, 49, 32
1, 3641, Note_off_c, 0, 74, 65
1, 3646, Note_off_c, 0, 61, 68
1, 3647, Note_off_c, 0, 65, 68
1, 3649, Note_off_c, 0, 69, 67
1, 3653, Note_off_c, 0, 48, 64
1, 3662, Poly_aftertouch_c, 0, 51, 0
1, 3668, Note_off_c, 0, 49, 47
1, 3865, Control_c, 0, 64, 125
1, 3878, Note_on_c, 0, 32, 67
1, 3880, Control_c, 0, 64, 109
1, 3891, Note_on_c, 0, 44, 78
1, 3895, Control_c, 0, 64, 99
1, 3910, Note_off_c, 0, 32, 63
1, 3910, Control_c, 0, 64, 88
1, 3919, Note_off_c, 0, 44, 65
1, 3925, Control_c, 0, 64, 78
1, 3940, Control_c, 0, 64, 68
1, 3954, Control_c, 0, 64, 45
1, 3969, Control_c, 0, 64, 0
1, 4010, Note_on_c, 0, 45, 70
1, 4015, Note_on_c, 0, 33, 59
1, 4042, Note_off_c, 0, 45, 65
1, 4046, Note_off_c, 0, 33, 64
1, 4146, Note_on_c, 0, 48, 80
1, 4155, Note_on_c, 0, 36, 68
1, 4178, Note_off_c, 0, 48, 68
1, 4195, Note_off_c, 0, 36, 63
1, 4285, Note_on_c, 0, 48, 73
1, 4309, Note_on_c, 0, 36, 49
1, 4316, Note_off_c, 0, 48, 68
1, 4345, Note_off_c, 0, 36, 62
1, 4419, Note_on_c, 0, 48, 74
1, 4437, Note_on_c, 0, 36, 54
1, 4458, Note_off_c, 0, 48, 65
1, 4471, Note_off_c, 0, 36, 65
1, 4548, Note_on_c, 0, 48, 80
1, 4557, Note_on_c, 0, 36, 61
1, 4589, Note_off_c, 0, 48, 67
1, 4599, Note_off_c, 0, 36, 63
1, 4679, Note_on_c, 0, 49, 75
1, 4688, Note_on_c, 0, 37, 60
1, 4719, Note_off_c, 0, 49, 60
1, 4721, Note_off_c, 0, 37, 63
1, 4822, Note_on_c, 0, 50, 67
1, 4825, Note_on_c, 0, 38, 56
1, 4857, Note_off_c, 0, 38, 61
1, 4858, Note_off_c, 0, 50, 63
1, 4971, Note_on_c, 0, 48, 81
1, 4988, Note_on_c, 0, 36, 63
1, 5021, Control_c, 0, 64, 55
1, 5036, Control_c, 0, 64, 62
1, 5051, Control_c, 0, 64, 65
1, 5066, Control_c, 0, 64, 70
1, 5081, Control_c, 0, 64, 75
1, 5095, Control_c, 0, 64, 79
1, 5110, Control_c, 0, 64, 81
1, 5125, Control_c, 0, 64, 81
1, 5140, Control_c, 0, 64, 82
1, 5199, Control_c, 0, 64, 80
1, 5214, Control_c, 0, 64, 72
1, 5228, Control_c, 0, 64, 0
1, 5238, Note_on_c, 0, 44, 80
1, 5243, Note_off_c, 0, 36, 63
1, 5249, Note_on_c, 0, 32, 58
1, 5268, Note_off_c, 0, 48, 65
1, 5288, Control_c, 0, 64, 59
1, 5302, Control_c, 0, 64, 69
1, 5317, Control_c, 0, 64, 75
1, 5332, Control_c, 0, 64, 84
1, 5347, Control_c, 0, 64, 96
1, 5361, Control_c, 0, 64, 111
1, 5376, Note_on_c, 0, 43, 96
1, 5376, Control_c, 0, 64, 127
1, 5386, Note_on_c, 0, 31, 78
1, 5400, Note_off_c, 0, 43, 70
1, 5405, Note_off_c, 0, 44, 62
1, 5412, Note_off_c, 0, 32, 58
1, 5418, Note_off_c, 0, 31, 64
1, 5582, Note_on_c, 0, 67, 60
1, 5591, Note_on_c, 0, 62, 57
1, 5598, Note_on_c, 0, 69, 74
1, 5608, Note_on_c, 0, 49, 55
1, 5615, Note_off_c, 0, 62, 57
1, 5616, Note_off_c, 0, 67, 64
1, 5625, Note_on_c, 0, 75, 83
1, 5651, Note_on_c, 0, 78, 89
1, 5655, Note_off_c, 0, 49, 0
1, 5657, Note_on_c, 0, 65, 109
1, 5660, Note_on_c, 0, 61, 102
1, 5663, Note_on_c, 0, 48, 77
1, 5683, Note_on_c, 0, 49, 28
1, 5699, Note_off_c, 0, 61, 69
1, 5700, Note_off_c, 0, 78, 66
1, 5701, Note_off_c, 0, 48, 67
1, 5702, Note_off_c, 0, 65, 70
1, 5706, Note_off_c, 0, 69, 67
1, 5707, Note_off_c, 0, 75, 62
1, 5712, Poly_aftertouch_c, 0, 56, 0
1, 5719, Note_on_c, 0, 67, 20
1, 5720, Note_off_c, 0, 67, 127
1, 5721, Note_off_c, 0, 49, 52
1, 5904, Control_c, 0, 64, 117
1, 5919, Control_c, 0, 64, 101
1, 5932, Note_on_c, 0, 36, 65
1, 5934, Control_c, 0, 64, 84
1, 5938, Note_on_c, 0, 48, 83
1, 5949, Control_c, 0, 64, 68
1, 5964, Note_off_c, 0, 48, 71
1, 5964, Control_c, 0, 64, 0
1, 5967, Note_off_c, 0, 36, 64
1, 6068, Note_on_c, 0, 45, 74
1, 6070, Note_on_c, 0, 33, 60
1, 6101, Note_off_c, 0, 45, 66
1, 6106, Note_off_c, 0, 33, 64
1, 6207, Note_on_c, 0, 48, 73
1, 6212, Note_on_c, 0, 36, 59
1, 6238, Note_off_c, 0, 48, 66
1, 6241, Note_off_c, 0, 36, 65
1, 6340, Note_on_c, 0, 48, 72
1, 6343, Note_on_c, 0, 36, 55
1, 6372, Note_off_c, 0, 48, 68
1, 6376, Note_off_c, 0, 36, 64
1, 6475, Note_on_c, 0, 48, 68
1, 6490, Note_on_c, 0, 36, 49
1, 6512, Note_off_c, 0, 48, 64
1, 6523, Note_off_c, 0, 36, 63
1, 6614, Note_on_c, 0, 48, 63
1, 6625, Note_on_c, 0, 36, 48
1, 6645, Note_off_c, 0, 48, 64
1, 6660, Note_off_c, 0, 36, 63
1, 6760, Note_on_c, 0, 48, 82
1, 6775, Note_on_c, 0, 36, 61
1, 6801, Control_c, 0, 64, 44
1, 6816, Control_c, 0, 64, 80
1, 6831, Control_c, 0, 64, 89
1, 6846, Control_c, 0, 64, 90
1, 6979, Control_c, 0, 64, 86
1, 6993, Control_c, 0, 64, 75
1, 7004, Note_off_c, 0, 48, 63
1, 7008, Control_c, 0, 64, 0
1, 7047, Note_off_c, 0, 36, 56
1, 7058, Note_on_c, 0, 33, 44
1, 7065, Note_on_c, 0, 45, 60
1, 7093, Note_off_c, 0, 33, 49
1, 7094, Note_off_c, 0, 45, 66
1, 7197, Note_on_c, 0, 37, 57
1, 7197, Note_on_c, 0, 49, 64
1, 7230, Note_off_c, 0, 49, 61
1, 7230, Note_off_c, 0, 37, 64
1, 7335, Note_on_c, 0, 48, 58
1, 7337, Note_on_c, 0, 36, 43
1, 7365, Note_off_c, 0, 48, 66
1, 7368, Note_off_c, 0, 36, 58
1, 7481, Note_on_c, 0, 50, 85
1, 7487, Note_on_c, 0, 38, 75
1, 7505, Control_c, 0, 64, 71
1, 7520, Control_c, 0, 64, 103
1, 7534, Control_c, 0, 64, 118
1, 7623, Control_c, 0, 64, 118
1, 7638, Control_c, 0, 64, 115
1, 7653, Control_c, 0, 64, 103
1, 7668, Control_c, 0, 64, 87
1, 7683, Control_c, 0, 64, 66
1, 7697, Control_c, 0, 64, 0
1, 7725, Note_off_c, 0, 50, 59
1, 7751, Note_off_c, 0, 38, 45
1, 7755, Note_on_c, 0, 48, 72
1, 7762, Note_on_c, 0, 36, 51
1, 7788, Note_off_c, 0, 48, 66
1, 7807, Note_off_c, 0, 36, 61
1, 7892, Note_on_c, 0, 49, 79
1, 7902, Note_on_c, 0, 37, 57
1, 7930, Note_off_c, 0, 49, 63
1, 7952, Note_off_c, 0, 37, 62
1, 8032, Note_on_c, 0, 50, 96
1, 8038, Note_on_c, 0, 38, 79
1, 8046, Control_c, 0, 64, 68
1, 8061, Control_c, 0, 64, 120
1, 8076, Control_c, 0, 64, 127
1, 8086, Note_off_c, 0, 50, 64
1, 8132, Note_off_c, 0, 38, 61
1, 8150, Note_on_c, 0, 48, 96
1, 8160, Note_on_c, 0, 36, 73
1, 8175, Note_off_c, 0, 48, 67
1, 8197, Note_off_c, 0, 36, 64
1, 8327, Note_on_c, 0, 67, 69
1, 8345, Note_on_c, 0, 62, 77
1, 8353, Note_on_c, 0, 69, 53
1, 8357, Control_c, 0, 64, 121
1, 8359, Note_off_c, 0, 67, 61
1, 8369, Note_on_c, 0, 49, 61
1, 8369, Note_off_c, 0, 62, 68
1, 8372, Control_c, 0, 64, 97
1, 8382, Note_on_c, 0, 75, 81
1, 8387, Control_c, 0, 64, 81
1, 8395, Note_on_c, 0, 51, 35
1, 8402, Control_c, 0, 64, 69
1, 8417, Control_c, 0, 64, 69
1, 8421, Note_on_c, 0, 78, 86
1, 8424, Note_off_c, 0, 51, 43
1, 8429, Note_on_c, 0, 65, 106
1, 8432, Control_c, 0, 64, 80
1, 8432, Note_off_c, 0, 49, 61
1, 8441, Note_on_c, 0, 48, 84
1, 8442, Note_on_c, 0, 61, 93
1, 8446, Control_c, 0, 64, 96
1, 8461, Control_c, 0, 64, 115
1, 8466, Poly_aftertouch_c, 0, 73, 127
1, 8470, Note_on_c, 0, 55, 37
1, 8476, Control_c, 0, 64, 122
1, 8482, Note_off_c, 0, 65, 62
1, 8490, Control_c, 0, 64, 123
1, 8507, Note_off_c, 0, 61, 53
1, 8511, Note_off_c, 0, 55, 49
1, 8519, Note_off_c, 0, 48, 62
1, 8567, Poly_aftertouch_c, 0, 73, 0
1, 8579, Control_c, 0, 64, 123
1, 8585, Note_off_c, 0, 78, 59
1, 8589, Note_on_c, 0, 67, 81
1, 8590, Note_off_c, 0, 69, 0
1, 8594, Control_c, 0, 64, 119
1, 8602, Note_on_c, 0, 62, 80
1, 8602, Note_off_c, 0, 75, 61
1, 8609, Control_c, 0, 64, 99
1, 8624, Control_c, 0, 64, 73
1, 8627, Poly_aftertouch_c, 0, 69, 127
1, 8629, Note_on_c, 0, 49, 59
1, 8631, Note_off_c, 0, 67, 63
1, 8634, Note_off_c, 0, 62, 62
1, 8639, Control_c, 0, 64, 0
1, 8659, Note_on_c, 0, 69, 3
1, 8660, Note_on_c, 0, 75, 77
1, 8694, Poly_aftertouch_c, 0, 55, 0
1, 8696, Note_on_c, 0, 78, 82
1, 8697, Note_on_c, 0, 48, 85
1, 8699, Note_on_c, 0, 65, 106
1, 8700, Note_on_c, 0, 61, 113
1, 8707, Control_c, 0, 64, 68
1, 8722, Control_c, 0, 64, 127
1, 8732, Poly_aftertouch_c, 0, 55, 127
1, 8734, Note_off_c, 0, 61, 67
1, 8737, Control_c, 0, 64, 127
1, 8739, Note_off_c, 0, 78, 65
1, 8744, Note_off_c, 0, 65, 65
1, 8749, Note_on_c, 0, 55, 5
1, 8751, Note_off_c, 0, 48, 63
1, 8755, Note_off_c, 0, 75, 65
1, 8756, Note_off_c, 0, 69, 60
1, 8757, Note_off_c, 0, 49, 56
1, 8781, Note_off_c, 0, 55, 48
1, 8930, Control_c, 0, 64, 108
1, 8944, Control_c, 0, 64, 88
1, 8959, Control_c, 0, 64, 69
1, 8967, Note_on_c, 0, 35, 63
1, 8974, Control_c, 0, 64, 0
1, 8985, Note_on_c, 0, 45, 75
1, 9004, Note_off_c, 0, 35, 61
1, 9019, Note_off_c, 0, 45, 66
1, 9111, Note_on_c, 0, 36, 65
1, 9111, Note_on_c, 0, 48, 81
1, 9144, Note_off_c, 0, 36, 63
1, 9144, Note_off_c, 0, 48, 65
1, 9239, Note_on_c, 0, 48, 77
1, 9246, Note_on_c, 0, 36, 56
1, 9270, Note_off_c, 0, 48, 66
1, 9285, Note_off_c, 0, 36, 65
1, 9383, Note_on_c, 0, 45, 68
1, 9401, Note_on_c, 0, 33, 48
1, 9425, Note_off_c, 0, 45, 65
1, 9447, Note_off_c, 0, 33, 62
1, 9525, Note_on_c, 0, 48, 76
1, 9529, Note_on_c, 0, 36, 60
1, 9567, Note_off_c, 0, 36, 64
1, 9568, Note_off_c, 0, 48, 66
1, 9651, Note_on_c, 0, 49, 77
1, 9666, Note_on_c, 0, 37, 60
1, 9688, Note_off_c, 0, 49, 61
1, 9694, Note_off_c, 0, 37, 66
1, 9779, Note_on_c, 0, 37, 65
1, 9788, Note_on_c, 0, 49, 81
1, 9824, Note_off_c, 0, 37, 64
1, 9826, Note_off_c, 0, 49, 63
1, 9918, Note_on_c, 0, 38, 57
1, 9926, Note_on_c, 0, 50, 78
1, 9973, Note_off_c, 0, 50, 61
1, 9991, Note_off_c, 0, 38, 57
1, 10018, Control_c, 0, 64, 63
1, 10033, Control_c, 0, 64, 73
1, 10041, Note_on_c, 0, 36, 67
1, 10048, Control_c, 0, 64, 82
1, 10050, Note_on_c, 0, 48, 85
1, 10063, Control_c, 0, 64, 88
1, 10068, Note_off_c, 0, 36, 65
1, 10077, Note_off_c, 0, 48, 69
1, 10078, Control_c, 0, 64, 90
1, 10092, Control_c, 0, 64, 91
1, 10107, Control_c, 0, 64, 91
1, 10122, Control_c, 0, 64, 92
1, 10137, Control_c, 0, 64, 92
1, 10152, Control_c, 0, 64, 93
1, 10198, Note_on_c, 0, 61, 64
1, 10202, Note_on_c, 0, 49, 63
1, 10204, Control_c, 0, 64, 92
1, 10216, Note_on_c, 0, 58, 63
1, 10218, Control_c, 0, 64, 89
1, 10223, Note_off_c, 0, 49, 62
1, 10227, Note_on_c, 0, 46, 68
1, 10233, Control_c, 0, 64, 78
1, 10248, Control_c, 0, 64, 63
1, 10253, Note_on_c, 0, 56, 77
1, 10263, Note_off_c, 0, 46, 61
1, 10264, Control_c, 0, 64, 0
1, 10266, Note_off_c, 0, 61, 64
1, 10279, Note_on_c, 0, 44, 56
1, 10283, Note_off_c, 0, 58, 65
1, 10288, Note_on_c, 0, 54, 84
1, 10294, Control_c, 0, 64, 68
1, 10308, Control_c, 0, 64, 82
1, 10310, Note_off_c, 0, 44, 65
1, 10314, Note_on_c, 0, 42, 56
1, 10323, Control_c, 0, 64, 102
1, 10325, Note_off_c, 0, 56, 66
1, 10337, Note_on_c, 0, 48, 104
1, 10338, Control_c, 0, 64, 110
1, 10340, Note_off_c, 0, 42, 57
1, 10355, Note_off_c, 0, 54, 65
1, 10372, Note_on_c, 0, 35, 84
1, 10383, Note_on_c, 0, 36, 65
1, 10387, Note_off_c, 0, 48, 69
1, 10407, Note_off_c, 0, 36, 61
1, 10419, Note_off_c, 0, 35, 57
1, 10471, Control_c, 0, 64, 110
1, 10501, Control_c, 0, 64, 107
1, 10515, Control_c, 0, 64, 99
1, 10530, Control_c, 0, 64, 82
1, 10545, Control_c, 0, 64, 18
1, 10560, Control_c, 0, 64, 0
1, 10609, Note_on_c, 0, 45, 106
1, 10620, Control_c, 0, 64, 50
1, 10620, Note_on_c, 0, 33, 92
1, 10634, Control_c, 0, 64, 76
1, 10649, Control_c, 0, 64, 87
1, 10664, Control_c, 0, 64, 94
1, 10733, Note_off_c, 0, 45, 63
1, 10755, Note_off_c, 0, 33, 64
1, 10797, Control_c, 0, 64, 93
1, 10812, Control_c, 0, 64, 88
1, 10827, Control_c, 0, 64, 76
1, 10841, Control_c, 0, 64, 0
1, 10888, Note_on_c, 0, 50, 98
1, 10894, Note_on_c, 0, 38, 90
1, 10947, Note_off_c, 0, 50, 61
1, 10954, Note_off_c, 0, 38, 61
1, 11032, Note_on_c, 0, 49, 78
1, 11046, Note_on_c, 0, 37, 59
1, 11077, Note_off_c, 0, 49, 60
1, 11085, Note_off_c, 0, 37, 63
1, 11177, Note_on_c, 0, 50, 84
1, 11187, Note_on_c, 0, 38, 66
1, 11217, Note_off_c, 0, 50, 64
1, 11218, Note_off_c, 0, 38, 64
1, 11313, Note_on_c, 0, 36, 55
1, 11315, Note_on_c, 0, 48, 70
1, 11350, Note_off_c, 0, 48, 65
1, 11351, Note_off_c, 0, 36, 62
1, 11460, Note_on_c, 0, 45, 62
1, 11465, Note_on_c, 0, 33, 33
1, 11492, Note_off_c, 0, 45, 65
1, 11496, Note_off_c, 0, 33, 49
1, 11592, Note_on_c, 0, 32, 74
1, 11594, Note_on_c, 0, 44, 78
1, 11627, Note_off_c, 0, 32, 66
1, 11630, Note_off_c, 0, 44, 63
1, 11739, Note_on_c, 0, 48, 77
1, 11746, Note_on_c, 0, 36, 65
1, 11779, Note_off_c, 0, 48, 64
1, 11788, Note_off_c, 0, 36, 65
1, 11879, Note_on_c, 0, 32, 61
1, 11881, Note_on_c, 0, 44, 69
1, 11913, Note_off_c, 0, 44, 65
1, 11916, Note_off_c, 0, 32, 64
1, 12008, Note_on_c, 0, 43, 63
1, 12036, Note_on_c, 0, 31, 16
1, 12045, Note_off_c, 0, 43, 60
1, 12115, Note_off_c, 0, 31, 44
1, 12131, Control_c, 0, 64, 40
1, 12134, Note_on_c, 0, 33, 71
1, 12140, Note_on_c, 0, 45, 85
1, 12146, Control_c, 0, 64, 84
1, 12161, Control_c, 0, 64, 94
1, 12164, Note_off_c, 0, 33, 65
1, 12164, Note_off_c, 0, 45, 70
1, 12176, Control_c, 0, 64, 96
1, 12191, Control_c, 0, 64, 95
1, 12278, Note_on_c, 0, 61, 72
1, 12291, Note_on_c, 0, 49, 66
1, 12301, Note_on_c, 0, 58, 62
1, 12311, Note_off_c, 0, 49, 61
1, 12319, Note_on_c, 0, 46, 61
1, 12325, Control_c, 0, 64, 96
1, 12332, Note_on_c, 0, 56, 80
1, 12339, Control_c, 0, 64, 101
1, 12350, Note_off_c, 0, 61, 62
1, 12352, Note_on_c, 0, 44, 41
1, 12354, Control_c, 0, 64, 110
1, 12358, Note_off_c, 0, 46, 61
1, 12359, Note_on_c, 0, 54, 90
1, 12366, Note_off_c, 0, 58, 63
1, 12369, Control_c, 0, 64, 119
1, 12381, Note_off_c, 0, 44, 65
1, 12383, Control_c, 0, 64, 122
1, 12387, Note_on_c, 0, 42, 55
1, 12398, Control_c, 0, 64, 123
1, 12400, Note_off_c, 0, 56, 62
1, 12402, Note_on_c, 0, 48, 97
1, 12412, Control_c, 0, 64, 124
1, 12414, Note_off_c, 0, 42, 58
1, 12418, Note_off_c, 0, 54, 66
1, 12449, Note_on_c, 0, 36, 91
1, 12450, Control_c, 0, 64, 123
1, 12457, Note_off_c, 0, 48, 66
1, 12507, Note_off_c, 0, 36, 0
1, 12509, Control_c, 0, 64, 122
1, 12524, Control_c, 0, 64, 117
1, 12538, Control_c, 0, 64, 111
1, 12553, Control_c, 0, 64, 104
1, 12560, Poly_aftertouch_c, 0, 36, 0
1, 12568, Control_c, 0, 64, 96
1, 12583, Control_c, 0, 64, 86
1, 12598, Control_c, 0, 64, 74
1, 12608, Poly_aftertouch_c, 0, 36, 0
1, 12612, Control_c, 0, 64, 54
1, 12627, Control_c, 0, 64, 0
1, 12659, Note_on_c, 0, 45, 76
1, 12667, Note_on_c, 0, 33, 60
1, 12690, Note_off_c, 0, 45, 68
1, 12706, Note_off_c, 0, 33, 65
1, 12787, Note_on_c, 0, 48, 76
1, 12809, Note_on_c, 0, 36, 58
1, 12832, Note_off_c, 0, 48, 66
1, 12845, Note_off_c, 0, 36, 65
1, 12924, Note_on_c, 0, 48, 71
1, 12957, Note_on_c, 0, 36, 40
1, 12958, Note_off_c, 0, 48, 65
1, 12990, Note_off_c, 0, 36, 55
1, 13067, Note_on_c, 0, 45, 75
1, 13079, Note_on_c, 0, 33, 60
1, 13098, Note_off_c, 0, 45, 66
1, 13112, Note_off_c, 0, 33, 64
1, 13208, Note_on_c, 0, 44, 70
1, 13211, Note_on_c, 0, 32, 49
1, 13244, Note_off_c, 0, 44, 65
1, 13306, Note_off_c, 0, 32, 42
1, 13317, Control_c, 0, 64, 62
1, 13322, Note_on_c, 0, 48, 96
1, 13332, Control_c, 0, 64, 71
1, 13332, Note_on_c, 0, 36, 71
1, 13347, Control_c, 0, 64, 80
1, 13354, Note_off_c, 0, 48, 66
1, 13361, Control_c, 0, 64, 85
1, 13365, Note_off_c, 0, 36, 64
1, 13391, Control_c, 0, 64, 85
1, 13466, Control_c, 0, 64, 85
1, 13481, Control_c, 0, 64, 84
1, 13496, Control_c, 0, 64, 81
1, 13499, Note_on_c, 0, 58, 64
1, 13500, Note_on_c, 0, 56, 58
1, 13511, Control_c, 0, 64, 72
1, 13517, Note_on_c, 0, 46, 72
1, 13526, Control_c, 0, 64, 55
1, 13532, Note_on_c, 0, 54, 70
1, 13536, Note_off_c, 0, 46, 63
1, 13540, Control_c, 0, 64, 0
1, 13553, Note_off_c, 0, 56, 62
1, 13555, Note_on_c, 0, 42, 62
1, 13555, Note_on_c, 0, 51, 80
1, 13555, Control_c, 0, 64, 55
1, 13557, Note_off_c, 0, 58, 61
1, 13558, Note_on_c, 0, 39, 43
1, 13570, Control_c, 0, 64, 73
1, 13584, Control_c, 0, 64, 87
1, 13590, Note_off_c, 0, 54, 62
1, 13593, Note_on_c, 0, 45, 104
1, 13597, Note_on_c, 0, 33, 87
1, 13599, Control_c, 0, 64, 97
1, 13602, Note_off_c, 0, 42, 63
1, 13612, Note_off_c, 0, 39, 61
1, 13614, Control_c, 0, 64, 98
1, 13619, Note_off_c, 0, 51, 63
1, 13628, Note_off_c, 0, 33, 69
1, 13699, Note_off_c, 0, 45, 65
1, 13756, Note_on_c, 0, 55, 58
1, 13777, Control_c, 0, 64, 95
1, 13786, Note_on_c, 0, 53, 58
1, 13791, Control_c, 0, 64, 84
1, 13806, Note_on_c, 0, 50, 63
1, 13806, Control_c, 0, 64, 64
1, 13813, Note_off_c, 0, 55, 64
1, 13821, Note_off_c, 0, 53, 67
1, 13821, Control_c, 0, 64, 0
1, 13830, Note_on_c, 0, 48, 78
1, 13834, Note_on_c, 0, 43, 12
1, 13835, Note_on_c, 0, 41, 35
1, 13844, Note_on_c, 0, 38, 75
1, 13849, Note_off_c, 0, 50, 65
1, 13866, Control_c, 0, 64, 67
1, 13870, Note_on_c, 0, 42, 103
1, 13872, Note_off_c, 0, 41, 49
1, 13880, Control_c, 0, 64, 90
1, 13881, Note_off_c, 0, 43, 41
1, 13881, Note_on_c, 0, 30, 93
1, 13895, Control_c, 0, 64, 112
1, 13896, Note_off_c, 0, 38, 62
1, 13901, Note_off_c, 0, 48, 66
1, 13909, Control_c, 0, 64, 120
1, 13917, Note_off_c, 0, 42, 66
1, 13932, Control_c, 0, 64, 121
1, 13945, Note_off_c, 0, 30, 62
1, 14051, Control_c, 0, 64, 119
1, 14065, Control_c, 0, 64, 111
1, 14080, Control_c, 0, 64, 99
1, 14095, Control_c, 0, 64, 87
1, 14109, Control_c, 0, 64, 74
1, 14124, Control_c, 0, 64, 54
1, 14139, Control_c, 0, 64, 0
1, 14176, Note_on_c, 0, 42, 74
1, 14178, Note_on_c, 0, 30, 63
1, 14212, Note_off_c, 0, 42, 62
1, 14217, Note_off_c, 0, 30, 62
1, 14318, Note_on_c, 0, 43, 70
1, 14325, Note_on_c, 0, 31, 58
1, 14348, Note_off_c, 0, 43, 62
1, 14363, Note_off_c, 0, 31, 63
1, 14465, Note_on_c, 0, 44, 65
1, 14467, Note_on_c, 0, 32, 57
1, 14495, Note_off_c, 0, 44, 65
1, 14506, Note_off_c, 0, 32, 64
1, 14605, Note_on_c, 0, 44, 71
1, 14608, Note_on_c, 0, 32, 61
1, 14641, Note_off_c, 0, 44, 65
1, 14644, Note_off_c, 0, 32, 62
1, 14755, Note_on_c, 0, 43, 66
1, 14763, Note_on_c, 0, 31, 53
1, 14785, Note_off_c, 0, 43, 63
1, 14799, Note_off_c, 0, 31, 63
1, 14895, Note_on_c, 0, 45, 65
1, 14900, Note_on_c, 0, 33, 50
1, 14925, Note_off_c, 0, 45, 66
1, 14929, Note_off_c, 0, 33, 60
1, 15034, Note_on_c, 0, 48, 69
1, 15055, Note_on_c, 0, 36, 47
1, 15070, Note_off_c, 0, 48, 64
1, 15086, Note_off_c, 0, 36, 53
1, 15175, Note_on_c, 0, 45, 54
1, 15176, Note_on_c, 0, 33, 41
1, 15207, Note_off_c, 0, 45, 65
1, 15210, Note_off_c, 0, 33, 53
1, 15309, Note_on_c, 0, 48, 82
1, 15312, Note_on_c, 0, 36, 66
1, 15343, Note_off_c, 0, 36, 63
1, 15343, Note_off_c, 0, 48, 66
1, 15449, Note_on_c, 0, 48, 71
1, 15456, Note_on_c, 0, 36, 57
1, 15480, Note_off_c, 0, 48, 66
1, 15491, Note_off_c, 0, 36, 64
1, 15587, Note_on_c, 0, 48, 71
1, 15594, Note_on_c, 0, 36, 53
1, 15628, Note_off_c, 0, 48, 67
1, 15632, Note_off_c, 0, 36, 63
1, 15723, Note_on_c, 0, 36, 62
1, 15723, Note_on_c, 0, 48, 78
1, 15765, Note_off_c, 0, 48, 65
1, 15775, Note_off_c, 0, 36, 58
1, 15857, Note_on_c, 0, 49, 84
1, 15865, Note_on_c, 0, 37, 51
1, 15910, Note_off_c, 0, 49, 59
1, 15932, Note_off_c, 0, 37, 57
1, 15950, Control_c, 0, 64, 63
1, 15964, Control_c, 0, 64, 79
1, 15979, Control_c, 0, 64, 94
1, 15983, Note_on_c, 0, 36, 78
1, 15985, Note_on_c, 0, 48, 94
1, 15994, Control_c, 0, 64, 109
1, 16009, Control_c, 0, 64, 119
1, 16018, Note_off_c, 0, 36, 67
1, 16023, Note_off_c, 0, 48, 64
1, 16024, Control_c, 0, 64, 127
1, 16161, Note_on_c, 0, 67, 59
1, 16165, Note_on_c, 0, 62, 79
1, 16182, Note_on_c, 0, 69, 74
1, 16187, Note_off_c, 0, 67, 64
1, 16193, Note_on_c, 0, 49, 62
1, 16196, Note_off_c, 0, 62, 67
1, 16212, Note_on_c, 0, 75, 80
1, 16226, Note_on_c, 0, 51, 36
1, 16236, Note_on_c, 0, 78, 88
1, 16246, Note_on_c, 0, 48, 80
1, 16249, Note_on_c, 0, 65, 117
1, 16250, Note_on_c, 0, 61, 105
1, 16251, Note_on_c, 0, 73, 26
1, 16263, Note_off_c, 0, 51, 41
1, 16277, Note_off_c, 0, 78, 67
1, 16279, Note_off_c, 0, 73, 62
1, 16280, Note_off_c, 0, 61, 68
1, 16281, Note_off_c, 0, 65, 70
1, 16284, Note_off_c, 0, 48, 64
1, 16286, Note_off_c, 0, 75, 65
1, 16289, Note_off_c, 0, 69, 67
1, 16334, Note_off_c, 0, 49, 22
1, 16460, Control_c, 0, 64, 127
1, 16475, Control_c, 0, 64, 114
1, 16490, Control_c, 0, 64, 103
1, 16504, Control_c, 0, 64, 91
1, 16519, Control_c, 0, 64, 78
1, 16531, Note_on_c, 0, 29, 67
1, 16534, Control_c, 0, 64, 63
1, 16541, Note_on_c, 0, 43, 63
1, 16545, Note_on_c, 0, 41, 67
1, 16549, Control_c, 0, 64, 0
1, 16570, Note_off_c, 0, 29, 63
1, 16572, Note_off_c, 0, 41, 66
1, 16573, Note_off_c, 0, 43, 63
1, 16669, Note_on_c, 0, 32, 66
1, 16710, Note_off_c, 0, 32, 63
1, 16801, Note_on_c, 0, 48, 80
1, 16804, Note_on_c, 0, 36, 63
1, 16834, Note_off_c, 0, 48, 66
1, 16843, Note_off_c, 0, 36, 63
1, 16942, Note_on_c, 0, 45, 67
1, 16951, Note_on_c, 0, 33, 56
1, 16977, Note_off_c, 0, 45, 64
1, 16987, Note_off_c, 0, 33, 65
1, 17080, Note_on_c, 0, 36, 59
1, 17080, Note_on_c, 0, 48, 76
1, 17111, Note_off_c, 0, 48, 68
1, 17121, Note_off_c, 0, 36, 63
1, 17197, Note_on_c, 0, 49, 80
1, 17210, Note_on_c, 0, 37, 64
1, 17236, Note_off_c, 0, 49, 63
1, 17249, Note_off_c, 0, 37, 64
1, 17333, Note_on_c, 0, 50, 77
1, 17345, Note_on_c, 0, 38, 66
1, 17374, Note_off_c, 0, 50, 65
1, 17383, Note_off_c, 0, 38, 62
1, 17464, Note_on_c, 0, 48, 76
1, 17477, Note_on_c, 0, 36, 48
1, 17500, Note_off_c, 0, 48, 65
1, 17515, Note_off_c, 0, 36, 60
1, 17601, Note_on_c, 0, 49, 82
1, 17607, Note_on_c, 0, 37, 55
1, 17624, Control_c, 0, 64, 41
1, 17639, Control_c, 0, 64, 61
1, 17654, Control_c, 0, 64, 66
1, 17676, Control_c, 0, 64, 70
1, 17691, Control_c, 0, 64, 75
1, 17705, Control_c, 0, 64, 80
1, 17720, Control_c, 0, 64, 82
1, 17735, Control_c, 0, 64, 83
1, 17736, Note_off_c, 0, 37, 64
1, 17750, Note_on_c, 0, 50, 83
1, 17750, Control_c, 0, 64, 83
1, 17754, Note_on_c, 0, 38, 75
1, 17765, Control_c, 0, 64, 84
1, 17780, Control_c, 0, 64, 84
1, 17785, Note_off_c, 0, 49, 61
1, 17822, Note_off_c, 0, 50, 65
1, 17839, Control_c, 0, 64, 85
1, 17849, Note_off_c, 0, 38, 61
1, 17854, Control_c, 0, 64, 85
1, 17869, Control_c, 0, 64, 87
1, 17878, Note_on_c, 0, 36, 81
1, 17880, Note_on_c, 0, 48, 97
1, 17884, Control_c, 0, 64, 89
1, 17899, Control_c, 0, 64, 93
1, 17912, Note_off_c, 0, 36, 66
1, 17914, Note_off_c, 0, 48, 67
1, 17914, Control_c, 0, 64, 96
1, 17929, Control_c, 0, 64, 98
1, 17944, Control_c, 0, 64, 99
1, 17958, Control_c, 0, 64, 99
1, 18048, Note_on_c, 0, 67, 67
1, 18069, Note_on_c, 0, 62, 71
1, 18073, Note_on_c, 0, 69, 69
1, 18074, Note_off_c, 0, 67, 68
1, 18080, Note_on_c, 0, 49, 68
1, 18088, Note_off_c, 0, 62, 66
1, 18103, Note_on_c, 0, 75, 83
1, 18117, Note_on_c, 0, 51, 28
1, 18127, Note_on_c, 0, 78, 90
1, 18132, Note_off_c, 0, 49, 60
1, 18137, Note_on_c, 0, 65, 114
1, 18140, Note_on_c, 0, 48, 79
1, 18145, Note_on_c, 0, 61, 99
1, 18149, Note_on_c, 0, 73, 36
1, 18154, Note_off_c, 0, 51, 42
1, 18164, Note_off_c, 0, 78, 68
1, 18169, Note_off_c, 0, 65, 67
1, 18170, Note_off_c, 0, 61, 65
1, 18176, Note_off_c, 0, 75, 64
1, 18179, Note_off_c, 0, 73, 48
1, 18180, Note_off_c, 0, 69, 66
1, 18183, Note_off_c, 0, 48, 65
1, 18359, Control_c, 0, 64, 98
1, 18374, Control_c, 0, 64, 96
1, 18389, Control_c, 0, 64, 90
1, 18404, Control_c, 0, 64, 81
1, 18425, Note_on_c, 0, 37, 74
1, 18427, Control_c, 0, 64, 69
1, 18441, Note_on_c, 0, 49, 82
1, 18442, Control_c, 0, 64, 0
1, 18463, Note_off_c, 0, 37, 66
1, 18468, Note_off_c, 0, 49, 61
1, 18570, Note_on_c, 0, 48, 73
1, 18585, Note_on_c, 0, 36, 58
1, 18603, Note_off_c, 0, 48, 66
1, 18622, Note_off_c, 0, 36, 64
1, 18704, Note_on_c, 0, 49, 79
1, 18712, Note_on_c, 0, 37, 60
1, 18740, Note_off_c, 0, 49, 60
1, 18749, Note_off_c, 0, 37, 64
1, 18752, Control_c, 0, 64, 63
1, 18767, Control_c, 0, 64, 62
1, 18781, Control_c, 0, 64, 46
1, 18796, Control_c, 0, 64, 0
1, 18844, Note_on_c, 0, 50, 68
1, 18847, Note_on_c, 0, 38, 55
1, 18881, Note_off_c, 0, 50, 61
1, 18889, Note_off_c, 0, 38, 60
1, 18971, Note_on_c, 0, 49, 71
1, 18978, Note_on_c, 0, 37, 53
1, 19003, Note_off_c, 0, 49, 63
1, 19011, Note_off_c, 0, 37, 65
1, 19124, Note_on_c, 0, 45, 88
1, 19126, Note_on_c, 0, 33, 63
1, 19138, Control_c, 0, 64, 67
1, 19153, Control_c, 0, 64, 78
1, 19175, Control_c, 0, 64, 79
1, 19190, Control_c, 0, 64, 77
1, 19194, Note_off_c, 0, 33, 58
1, 19205, Control_c, 0, 64, 69
1, 19220, Control_c, 0, 64, 43
1, 19235, Control_c, 0, 64, 0
1, 19259, Note_off_c, 0, 45, 62
1, 19273, Note_on_c, 0, 48, 70
1, 19276, Note_on_c, 0, 36, 52
1, 19303, Note_off_c, 0, 48, 66
1, 19312, Note_off_c, 0, 36, 63
1, 19405, Note_on_c, 0, 32, 69
1, 19410, Note_on_c, 0, 44, 84
1, 19427, Control_c, 0, 64, 67
1, 19442, Control_c, 0, 64, 83
1, 19457, Control_c, 0, 64, 84
1, 19461, Note_off_c, 0, 32, 60
1, 19471, Control_c, 0, 64, 83
1, 19486, Control_c, 0, 64, 75
1, 19501, Control_c, 0, 64, 67
1, 19516, Control_c, 0, 64, 0
1, 19549, Note_on_c, 0, 31, 51
1, 19549, Note_off_c, 0, 44, 56
1, 19552, Note_on_c, 0, 43, 71
1, 19583, Note_off_c, 0, 31, 63
1, 19592, Note_off_c, 0, 43, 64
1, 19689, Note_on_c, 0, 45, 72
1, 19691, Note_on_c, 0, 33, 56
1, 19717, Note_off_c, 0, 45, 65
1, 19723, Note_off_c, 0, 33, 66
1, 19825, Note_on_c, 0, 48, 74
1, 19832, Note_on_c, 0, 36, 53
1, 19857, Note_off_c, 0, 48, 66
1, 19863, Note_off_c, 0, 36, 63
1, 19971, Note_on_c, 0, 50, 73
1, 19982, Note_on_c, 0, 38, 55
1, 20002, Note_off_c, 0, 50, 65
1, 20014, Note_off_c, 0, 38, 63
1, 20119, Note_on_c, 0, 49, 91
1, 20123, Note_on_c, 0, 37, 69
1, 20146, Control_c, 0, 64, 59
1, 20161, Control_c, 0, 64, 99
1, 20176, Control_c, 0, 64, 118
1, 20294, Control_c, 0, 64, 114
1, 20309, Control_c, 0, 64, 99
1, 20324, Control_c, 0, 64, 76
1, 20339, Control_c, 0, 64, 0
1, 20386, Note_off_c, 0, 37, 62
1, 20400, Note_on_c, 0, 36, 62
1, 20403, Note_on_c, 0, 48, 83
1, 20434, Note_off_c, 0, 49, 61
1, 20522, Note_off_c, 0, 48, 0
1, 20531, Control_c, 0, 64, 65
1, 20543, Note_on_c, 0, 37, 81
1, 20545, Note_on_c, 0, 49, 91
1, 20546, Control_c, 0, 64, 127
1, 20559, Poly_aftertouch_c, 0, 48, 127
1, 20562, Note_off_c, 0, 36, 60
1, 20577, Note_off_c, 0, 37, 68
1, 20578, Poly_aftertouch_c, 0, 48, 0
1, 20581, Note_off_c, 0, 49, 67
1, 20587, Note_on_c, 0, 48, 4
1, 20588, Note_off_c, 0, 48, 127
1, 20735, Note_on_c, 0, 67, 54
1, 20755, Note_on_c, 0, 62, 70
1, 20755, Note_off_c, 0, 67, 62
1, 20764, Note_on_c, 0, 69, 77
1, 20771, Note_on_c, 0, 49, 63
1, 20776, Note_off_c, 0, 62, 65
1, 20782, Note_on_c, 0, 70, 24
1, 20788, Note_on_c, 0, 75, 77
1, 20814, Note_on_c, 0, 78, 84
1, 20822, Note_off_c, 0, 49, 63
1, 20824, Note_on_c, 0, 73, 19
1, 20826, Note_on_c, 0, 65, 113
1, 20831, Note_on_c, 0, 61, 101
1, 20833, Note_on_c, 0, 48, 79
1, 20839, Note_off_c, 0, 70, 0
1, 20839, Note_on_c, 0, 70, 20
1, 20855, Note_off_c, 0, 65, 71
1, 20855, Note_off_c, 0, 78, 65
1, 20860, Note_off_c, 0, 73, 61
1, 20861, Note_off_c, 0, 61, 69
1, 20863, Note_off_c, 0, 75, 66
1, 20864, Note_off_c, 0, 69, 66
1, 20865, Note_on_c, 0, 49, 24
1, 20876, Note_off_c, 0, 48, 62
1, 20877, Note_off_c, 0, 70, 40
1, 20889, Note_off_c, 0, 49, 57
1, 21073, Control_c, 0, 64, 104
1, 21088, Control_c, 0, 64, 84
1, 21102, Control_c, 0, 64, 45
1, 21107, Note_on_c, 0, 37, 60
1, 21108, Note_on_c, 0, 49, 77
1, 21117, Control_c, 0, 64, 0
1, 21132, Note_off_c, 0, 37, 60
1, 21134, Note_off_c, 0, 49, 65
1, 21229, Note_on_c, 0, 48, 78
1, 21238, Note_on_c, 0, 36, 58
1, 21257, Note_off_c, 0, 48, 67
1, 21279, Note_off_c, 0, 36, 63
1, 21371, Note_on_c, 0, 50, 73
1, 21380, Note_on_c, 0, 38, 62
1, 21405, Note_off_c, 0, 50, 62
1, 21425, Note_off_c, 0, 38, 62
1, 21503, Note_on_c, 0, 49, 74
1, 21524, Note_on_c, 0, 37, 55
1, 21545, Note_off_c, 0, 49, 62
1, 21556, Note_off_c, 0, 37, 64
1, 21655, Note_on_c, 0, 48, 85
1, 21659, Control_c, 0, 64, 74
1, 21662, Note_on_c, 0, 36, 71
1, 21673, Control_c, 0, 64, 82
1, 21696, Note_off_c, 0, 36, 63
1, 21703, Control_c, 0, 64, 79
1, 21706, Note_off_c, 0, 48, 64
1, 21718, Control_c, 0, 64, 65
1, 21733, Control_c, 0, 64, 0
1, 21783, Note_on_c, 0, 44, 74
1, 21797, Note_on_c, 0, 32, 60
1, 21819, Note_off_c, 0, 44, 64
1, 21831, Note_off_c, 0, 32, 62
1, 21920, Note_on_c, 0, 43, 67
1, 21938, Note_on_c, 0, 31, 50
1, 21958, Note_off_c, 0, 43, 61
1, 21980, Note_off_c, 0, 31, 60
1, 22055, Note_on_c, 0, 45, 75
1, 22063, Note_on_c, 0, 33, 52
1, 22087, Note_off_c, 0, 45, 66
1, 22123, Note_off_c, 0, 33, 53
1, 22183, Note_on_c, 0, 44, 93
1, 22195, Note_on_c, 0, 32, 78
1, 22199, Control_c, 0, 64, 114
1, 22214, Control_c, 0, 64, 127
1, 22218, Note_off_c, 0, 44, 64
1, 22229, Note_off_c, 0, 32, 64
1, 22375, Note_on_c, 0, 67, 66
1, 22394, Note_on_c, 0, 69, 71
1, 22400, Note_on_c, 0, 62, 59
1, 22400, Note_off_c, 0, 67, 65
1, 22414, Note_on_c, 0, 49, 54
1, 22420, Note_off_c, 0, 62, 60
1, 22427, Note_on_c, 0, 75, 80
1, 22451, Note_on_c, 0, 78, 86
1, 22456, Note_on_c, 0, 51, 16
1, 22457, Note_on_c, 0, 65, 116
1, 22466, Note_on_c, 0, 48, 81
1, 22470, Note_on_c, 0, 61, 102
1, 22474, Note_off_c, 0, 51, 0
1, 22485, Note_off_c, 0, 78, 67
1, 22486, Note_off_c, 0, 65, 71
1, 22490, Note_off_c, 0, 49, 0
1, 22492, Note_off_c, 0, 75, 66
1, 22494, Poly_aftertouch_c, 0, 51, 0
1, 22496, Note_off_c, 0, 69, 68
1, 22497, Note_off_c, 0, 61, 65
1, 22519, Note_off_c, 0, 48, 65
1, 22522, Note_on_c, 0, 49, 2
1, 22561, Note_off_c, 0, 49, 49
1, 22704, Control_c, 0, 64, 99
1, 22719, Control_c, 0, 64, 77
1, 22734, Control_c, 0, 64, 0
1, 22746, Note_on_c, 0, 33, 57
1, 22748, Note_on_c, 0, 45, 76
1, 22781, Note_off_c, 0, 33, 64
1, 22781, Note_off_c, 0, 45, 67
1, 22881, Note_on_c, 0, 36, 48
1, 22881, Note_on_c, 0, 48, 70
1, 22920, Note_off_c, 0, 48, 65
1, 22920, Note_off_c, 0, 36, 61
1, 23014, Note_on_c, 0, 36, 54
1, 23020, Note_on_c, 0, 48, 69
1, 23037, Control_c, 0, 64, 65
1, 23053, Control_c, 0, 64, 38
1, 23056, Note_off_c, 0, 48, 65
1, 23065, Note_off_c, 0, 36, 60
1, 23068, Control_c, 0, 64, 0
1, 23160, Note_on_c, 0, 49, 62
1, 23163, Note_on_c, 0, 37, 50
1, 23183, Note_off_c, 0, 49, 60
1, 23195, Note_off_c, 0, 37, 64
1, 23282, Note_on_c, 0, 49, 63
1, 23285, Note_on_c, 0, 37, 63
1, 23290, Control_c, 0, 64, 70
1, 23305, Control_c, 0, 64, 67
1, 23320, Note_off_c, 0, 37, 63
1, 23320, Note_off_c, 0, 49, 63
1, 23320, Control_c, 0, 64, 0
1, 23413, Note_on_c, 0, 37, 53
1, 23414, Note_on_c, 0, 49, 71
1, 23454, Note_off_c, 0, 49, 61
1, 23456, Note_off_c, 0, 37, 65
1, 23555, Note_on_c, 0, 49, 89
1, 23560, Note_on_c, 0, 37, 70
1, 23587, Control_c, 0, 64, 84
1, 23602, Control_c, 0, 64, 101
1, 23631, Control_c, 0, 64, 100
1, 23646, Control_c, 0, 64, 98
1, 23668, Control_c, 0, 64, 90
1, 23683, Control_c, 0, 64, 77
1, 23697, Control_c, 0, 64, 0
1, 23709, Note_off_c, 0, 37, 55
1, 23714, Note_off_c, 0, 49, 59
1, 23719, Note_on_c, 0, 48, 67
1, 23746, Note_on_c, 0, 36, 34
1, 23757, Note_off_c, 0, 48, 66
1, 23798, Note_off_c, 0, 36, 46
1, 23864, Note_on_c, 0, 38, 47
1, 23865, Note_on_c, 0, 50, 59
1, 23888, Note_off_c, 0, 50, 62
1, 23894, Note_off_c, 0, 38, 54
1, 23999, Note_on_c, 0, 50, 82
1, 24010, Note_on_c, 0, 38, 69
1, 24025, Control_c, 0, 64, 90
1, 24040, Control_c, 0, 64, 125
1, 24055, Control_c, 0, 64, 121
1, 24060, Note_off_c, 0, 38, 57
1, 24069, Control_c, 0, 64, 119
1, 24073, Note_off_c, 0, 50, 54
1, 24084, Control_c, 0, 64, 108
1, 24099, Control_c, 0, 64, 91
1, 24113, Control_c, 0, 64, 72
1, 24128, Control_c, 0, 64, 0
1, 24135, Note_on_c, 0, 48, 73
1, 24141, Note_on_c, 0, 36, 52
1, 24175, Note_off_c, 0, 48, 64
1, 24181, Note_off_c, 0, 36, 61
1, 24281, Note_on_c, 0, 37, 47
1, 24284, Note_on_c, 0, 49, 65
1, 24311, Note_off_c, 0, 49, 61
1, 24314, Note_off_c, 0, 37, 62
1, 24420, Note_on_c, 0, 45, 69
1, 24432, Control_c, 0, 64, 67
1, 24433, Note_on_c, 0, 33, 40
1, 24446, Control_c, 0, 64, 64
1, 24454, Note_off_c, 0, 45, 64
1, 24461, Control_c, 0, 64, 0
1, 24473, Note_off_c, 0, 33, 54
1, 24552, Note_on_c, 0, 36, 52
1, 24552, Note_on_c, 0, 48, 67
1, 24585, Note_off_c, 0, 48, 65
1, 24587, Note_off_c, 0, 36, 64
1, 24685, Control_c, 0, 64, 67
1, 24686, Note_on_c, 0, 37, 66
1, 24699, Control_c, 0, 64, 79
1, 24707, Note_on_c, 0, 49, 29
1, 24710, Note_on_c, 0, 48, 46
1, 24714, Control_c, 0, 64, 77
1, 24722, Note_off_c, 0, 37, 62
1, 24729, Control_c, 0, 64, 64
1, 24736, Note_off_c, 0, 48, 56
1, 24743, Control_c, 0, 64, 0
1, 24745, Note_off_c, 0, 49, 42
1, 24812, Note_on_c, 0, 36, 59
1, 24812, Note_on_c, 0, 48, 75
1, 24852, Note_off_c, 0, 36, 64
1, 24857, Note_off_c, 0, 48, 66
1, 24949, Note_on_c, 0, 50, 72
1, 24962, Note_on_c, 0, 38, 38
1, 24981, Note_off_c, 0, 50, 64
1, 25003, Note_off_c, 0, 38, 49
1, 25092, Note_on_c, 0, 50, 86
1, 25095, Note_on_c, 0, 38, 72
1, 25128, Control_c, 0, 64, 88
1, 25143, Control_c, 0, 64, 99
1, 25180, Control_c, 0, 64, 98
1, 25210, Control_c, 0, 64, 96
1, 25224, Control_c, 0, 64, 92
1, 25232, Note_on_c, 0, 54, 74
1, 25238, Note_on_c, 0, 42, 66
1, 25239, Control_c, 0, 64, 83
1, 25241, Note_off_c, 0, 50, 59
1, 25241, Note_off_c, 0, 38, 37
1, 25254, Control_c, 0, 64, 66
1, 25268, Control_c, 0, 64, 0
1, 25276, Note_off_c, 0, 42, 63
1, 25297, Note_off_c, 0, 54, 60
1, 25373, Note_on_c, 0, 38, 59
1, 25373, Note_on_c, 0, 50, 74
1, 25411, Note_off_c, 0, 50, 62
1, 25424, Note_off_c, 0, 38, 58
1, 25506, Note_on_c, 0, 49, 70
1, 25517, Note_on_c, 0, 37, 47
1, 25539, Note_off_c, 0, 49, 64
1, 25547, Note_off_c, 0, 37, 62
1, 25626, Control_c, 0, 64, 86
1, 25630, Note_on_c, 0, 50, 94
1, 25634, Note_on_c, 0, 38, 81
1, 25640, Control_c, 0, 64, 93
1, 25655, Control_c, 0, 64, 92
1, 25670, Control_c, 0, 64, 83
1, 25681, Note_off_c, 0, 50, 63
1, 25684, Control_c, 0, 64, 77
1, 25689, Note_off_c, 0, 38, 58
1, 25699, Control_c, 0, 64, 64
1, 25714, Control_c, 0, 64, 0
1, 25754, Note_on_c, 0, 49, 71
1, 25766, Note_on_c, 0, 37, 52
1, 25787, Note_off_c, 0, 49, 63
1, 25803, Note_off_c, 0, 37, 65
1, 25886, Note_on_c, 0, 50, 96
1, 25891, Control_c, 0, 64, 65
1, 25892, Note_on_c, 0, 38, 85
1, 25914, Control_c, 0, 64, 95
1, 25929, Control_c, 0, 64, 117
1, 25944, Note_off_c, 0, 50, 63
1, 25951, Note_off_c, 0, 38, 60
1, 25973, Control_c, 0, 64, 117
1, 25988, Control_c, 0, 64, 115
1, 26003, Control_c, 0, 64, 109
1, 26017, Note_on_c, 0, 49, 70
1, 26018, Control_c, 0, 64, 94
1, 26031, Note_on_c, 0, 37, 59
1, 26033, Control_c, 0, 64, 77
1, 26047, Control_c, 0, 64, 0
1, 26054, Note_off_c, 0, 49, 64
1, 26074, Note_off_c, 0, 37, 65
1, 26159, Note_on_c, 0, 54, 73
1, 26168, Note_on_c, 0, 42, 72
1, 26195, Note_off_c, 0, 54, 66
1, 26201, Note_off_c, 0, 42, 64
1, 26291, Note_on_c, 0, 50, 84
1, 26296, Note_on_c, 0, 38, 68
1, 26330, Note_off_c, 0, 50, 64
1, 26344, Note_off_c, 0, 38, 62
1, 26423, Note_on_c, 0, 49, 86
1, 26426, Note_on_c, 0, 37, 65
1, 26461, Note_off_c, 0, 49, 63
1, 26473, Note_off_c, 0, 37, 63
1, 26550, Note_on_c, 0, 50, 107
1, 26555, Note_on_c, 0, 38, 90
1, 26567, Control_c, 0, 64, 87
1, 26581, Control_c, 0, 64, 127
1, 26594, Note_off_c, 0, 50, 65
1, 26628, Note_off_c, 0, 38, 55
1, 26687, Note_on_c, 0, 49, 92
1, 26702, Note_on_c, 0, 37, 54
1, 26724, Note_off_c, 0, 49, 62
1, 26749, Note_off_c, 0, 37, 48
1, 26754, Note_on_c, 0, 36, 14
1, 26788, Note_off_c, 0, 36, 0
1, 26801, Poly_aftertouch_c, 0, 36, 0
1, 26881, Note_on_c, 0, 67, 53
1, 26889, Note_on_c, 0, 69, 74
1, 26892, Note_on_c, 0, 62, 63
1, 26900, Control_c, 0, 64, 103
1, 26902, Note_off_c, 0, 67, 59
1, 26907, Note_on_c, 0, 49, 62
1, 26911, Note_off_c, 0, 62, 60
1, 26914, Control_c, 0, 64, 80
1, 26925, Note_on_c, 0, 75, 81
1, 26929, Control_c, 0, 64, 0
1, 26936, Note_on_c, 0, 51, 33
1, 26950, Note_on_c, 0, 78, 88
1, 26955, Note_off_c, 0, 49, 64
1, 26958, Note_on_c, 0, 65, 111
1, 26959, Control_c, 0, 64, 65
1, 26961, Note_on_c, 0, 61, 106
1, 26962, Note_on_c, 0, 48, 87
1, 26967, Note_on_c, 0, 73, 39
1, 26972, Note_off_c, 0, 51, 31
1, 26974, Control_c, 0, 64, 92
1, 26982, Note_off_c, 0, 65, 71
1, 26987, Note_off_c, 0, 78, 66
1, 26988, Control_c, 0, 64, 127
1, 26993, Note_off_c, 0, 61, 68
1, 26993, Note_off_c, 0, 73, 46
1, 26994, Note_off_c, 0, 69, 66
1, 26994, Note_off_c, 0, 75, 64
1, 27000, Note_off_c, 0, 48, 64
1, 27053, Poly_aftertouch_c, 0, 49, 0
1, 27065, Poly_aftertouch_c, 0, 67, 0
1, 27167, Control_c, 0, 64, 121
1, 27182, Control_c, 0, 64, 98
1, 27197, Control_c, 0, 64, 79
1, 27211, Control_c, 0, 64, 53
1, 27226, Control_c, 0, 64, 0
1, 27244, Note_on_c, 0, 48, 97
1, 27253, Note_on_c, 0, 36, 69
1, 27256, Control_c, 0, 64, 63
1, 27271, Control_c, 0, 64, 70
1, 27286, Control_c, 0, 64, 74
1, 27301, Control_c, 0, 64, 77
1, 27316, Control_c, 0, 64, 78
1, 27330, Control_c, 0, 64, 78
1, 27426, Control_c, 0, 64, 78
1, 27427, Note_off_c, 0, 48, 61
1, 27441, Control_c, 0, 64, 77
1, 27456, Control_c, 0, 64, 72
1, 27471, Control_c, 0, 64, 47
1, 27486, Control_c, 0, 64, 0
1, 27507, Note_off_c, 0, 36, 54
1, 27514, Note_on_c, 0, 49, 86
1, 27522, Note_on_c, 0, 37, 62
1, 27553, Note_off_c, 0, 37, 64
1, 27555, Note_off_c, 0, 49, 64
1, 27653, Note_on_c, 0, 50, 76
1, 27662, Note_on_c, 0, 38, 64
1, 27694, Note_off_c, 0, 50, 62
1, 27699, Note_off_c, 0, 38, 61
1, 27787, Note_on_c, 0, 49, 80
1, 27793, Note_on_c, 0, 37, 65
1, 27824, Note_off_c, 0, 49, 59
1, 27831, Note_off_c, 0, 37, 64
1, 27920, Note_on_c, 0, 38, 60
1, 27921, Note_on_c, 0, 50, 84
1, 27966, Note_off_c, 0, 50, 64
1, 27974, Note_off_c, 0, 38, 54
1, 28041, Note_on_c, 0, 48, 105
1, 28043, Note_on_c, 0, 36, 82
1, 28049, Control_c, 0, 64, 74
1, 28064, Control_c, 0, 64, 100
1, 28072, Note_off_c, 0, 48, 71
1, 28076, Note_off_c, 0, 36, 68
1, 28079, Control_c, 0, 64, 127
1, 28231, Note_on_c, 0, 67, 62
1, 28250, Note_on_c, 0, 62, 66
1, 28250, Note_off_c, 0, 67, 65
1, 28259, Note_on_c, 0, 69, 73
1, 28260, Note_on_c, 0, 49, 66
1, 28269, Note_off_c, 0, 62, 62
1, 28278, Note_on_c, 0, 75, 80
1, 28296, Note_on_c, 0, 51, 27
1, 28305, Note_on_c, 0, 78, 93
1, 28311, Note_on_c, 0, 65, 112
1, 28311, Note_off_c, 0, 49, 60
1, 28312, Note_on_c, 0, 48, 78
1, 28318, Note_on_c, 0, 61, 99
1, 28318, Note_on_c, 0, 73, 50
1, 28336, Note_off_c, 0, 78, 68
1, 28337, Note_off_c, 0, 51, 40
1, 28338, Note_off_c, 0, 75, 62
1, 28342, Note_off_c, 0, 61, 66
1, 28342, Note_off_c, 0, 65, 68
1, 28342, Note_off_c, 0, 73, 64
1, 28352, Note_off_c, 0, 48, 64
1, 28354, Note_off_c, 0, 69, 66
1, 28403, Poly_aftertouch_c, 0, 49, 0
1, 28501, Control_c, 0, 64, 107
1, 28516, Control_c, 0, 64, 87
1, 28531, Control_c, 0, 64, 66
1, 28546, Control_c, 0, 64, 0
1, 28587, Note_on_c, 0, 48, 98
1, 28588, Note_on_c, 0, 36, 65
1, 28590, Control_c, 0, 64, 64
1, 28604, Control_c, 0, 64, 73
1, 28619, Control_c, 0, 64, 81
1, 28636, Control_c, 0, 64, 86
1, 28651, Control_c, 0, 64, 87
1, 28754, Control_c, 0, 64, 86
1, 28758, Note_off_c, 0, 48, 62
1, 28769, Control_c, 0, 64, 80
1, 28783, Control_c, 0, 64, 67
1, 28798, Control_c, 0, 64, 0
1, 28804, Note_off_c, 0, 36, 59
1, 28833, Note_on_c, 0, 37, 65
1, 28839, Note_on_c, 0, 49, 83
1, 28872, Note_off_c, 0, 37, 67
1, 28883, Note_off_c, 0, 49, 63
1, 28974, Note_on_c, 0, 50, 85
1, 28977, Note_on_c, 0, 38, 63
1, 29024, Note_off_c, 0, 38, 59
1, 29026, Note_off_c, 0, 50, 62
1, 29087, Control_c, 0, 64, 73
1, 29097, Note_on_c, 0, 48, 103
1, 29100, Note_on_c, 0, 36, 78
1, 29102, Control_c, 0, 64, 121
1, 29116, Control_c, 0, 64, 127
1, 29131, Note_off_c, 0, 48, 69
1, 29137, Note_off_c, 0, 36, 66
1, 29295, Note_on_c, 0, 62, 76
1, 29299, Note_on_c, 0, 67, 56
1, 29309, Note_on_c, 0, 49, 62
1, 29310, Note_on_c, 0, 69, 77
1, 29319, Note_off_c, 0, 62, 65
1, 29319, Note_off_c, 0, 67, 61
1, 29334, Note_on_c, 0, 75, 82
1, 29343, Note_on_c, 0, 51, 37
1, 29363, Note_on_c, 0, 78, 90
1, 29363, Note_off_c, 0, 49, 61
1, 29369, Note_on_c, 0, 65, 112
1, 29371, Note_on_c, 0, 48, 80
1, 29372, Note_on_c, 0, 61, 106
1, 29372, Note_on_c, 0, 73, 51
1, 29383, Note_off_c, 0, 51, 41
1, 29391, Poly_aftertouch_c, 0, 49, 0
1, 29393, Note_off_c, 0, 65, 72
1, 29394, Note_off_c, 0, 78, 68
1, 29399, Note_off_c, 0, 73, 66
1, 29400, Note_off_c, 0, 61, 66
1, 29402, Note_on_c, 0, 49, 27
1, 29403, Note_off_c, 0, 75, 66
1, 29405, Note_off_c, 0, 69, 66
1, 29426, Note_off_c, 0, 48, 64
1, 29434, Note_off_c, 0, 49, 51
1, 29636, Control_c, 0, 64, 115
1, 29658, Control_c, 0, 64, 91
1, 29673, Control_c, 0, 64, 70
1, 29677, Note_on_c, 0, 31, 75
1, 29687, Note_on_c, 0, 43, 94
1, 29688, Control_c, 0, 64, 0
1, 29747, Control_c, 0, 64, 63
1, 29762, Control_c, 0, 64, 69
1, 29777, Control_c, 0, 64, 73
1, 29792, Control_c, 0, 64, 76
1, 29806, Control_c, 0, 64, 78
1, 29821, Control_c, 0, 64, 80
1, 29836, Control_c, 0, 64, 82
1, 29851, Control_c, 0, 64, 83
1, 29893, Note_off_c, 0, 31, 57
1, 29911, Note_off_c, 0, 43, 55
1, 29925, Control_c, 0, 64, 81
1, 29939, Control_c, 0, 64, 76
1, 29942, Note_on_c, 0, 32, 73
1, 29952, Note_on_c, 0, 44, 76
1, 29954, Control_c, 0, 64, 59
1, 29969, Control_c, 0, 64, 0
1, 29988, Note_off_c, 0, 44, 67
1, 29996, Note_off_c, 0, 32, 60
1, 30092, Note_on_c, 0, 33, 32
1, 30093, Note_on_c, 0, 45, 74
1, 30122, Note_off_c, 0, 45, 65
1, 30131, Note_off_c, 0, 33, 54
1, 30213, Note_on_c, 0, 48, 83
1, 30216, Note_on_c, 0, 36, 57
1, 30252, Note_off_c, 0, 48, 63
1, 30258, Note_off_c, 0, 36, 64
1, 30348, Note_on_c, 0, 49, 95
1, 30355, Note_on_c, 0, 37, 79
1, 30370, Control_c, 0, 64, 64
1, 30385, Control_c, 0, 64, 88
1, 30407, Control_c, 0, 64, 117
1, 30494, Note_off_c, 0, 49, 55
1, 30570, Control_c, 0, 64, 111
1, 30585, Control_c, 0, 64, 95
1, 30600, Control_c, 0, 64, 75
1, 30614, Note_off_c, 0, 37, 64
1, 30615, Control_c, 0, 64, 0
1, 30637, Note_on_c, 0, 54, 103
1, 30641, Note_on_c, 0, 42, 87
1, 30659, Control_c, 0, 64, 34
1, 30674, Control_c, 0, 64, 69
1, 30688, Control_c, 0, 64, 77
1, 30703, Control_c, 0, 64, 86
1, 30718, Control_c, 0, 64, 89
1, 30733, Control_c, 0, 64, 90
1, 30748, Control_c, 0, 64, 90
1, 30762, Control_c, 0, 64, 91
1, 30777, Control_c, 0, 64, 92
1, 30836, Control_c, 0, 64, 91
1, 30851, Note_off_c, 0, 54, 60
1, 30851, Control_c, 0, 64, 81
1, 30866, Control_c, 0, 64, 60
1, 30878, Note_off_c, 0, 42, 56
1, 30881, Control_c, 0, 64, 0
1, 30918, Note_on_c, 0, 50, 98
1, 30921, Note_on_c, 0, 38, 72
1, 30941, Control_c, 0, 64, 66
1, 30955, Control_c, 0, 64, 75
1, 30967, Note_off_c, 0, 50, 64
1, 30970, Control_c, 0, 64, 83
1, 30985, Control_c, 0, 64, 85
1, 30997, Note_off_c, 0, 38, 53
1, 31000, Control_c, 0, 64, 84
1, 31014, Control_c, 0, 64, 78
1, 31030, Control_c, 0, 64, 59
1, 31045, Control_c, 0, 64, 0
1, 31050, Note_on_c, 0, 49, 80
1, 31058, Note_on_c, 0, 37, 66
1, 31088, Note_off_c, 0, 49, 60
1, 31107, Note_off_c, 0, 37, 64
1, 31191, Note_on_c, 0, 50, 98
1, 31194, Note_on_c, 0, 38, 75
1, 31230, Control_c, 0, 64, 70
1, 31236, Note_off_c, 0, 50, 64
1, 31245, Control_c, 0, 64, 91
1, 31260, Control_c, 0, 64, 102
1, 31271, Note_off_c, 0, 38, 49
1, 31274, Control_c, 0, 64, 103
1, 31304, Control_c, 0, 64, 103
1, 31319, Control_c, 0, 64, 104
1, 31328, Note_on_c, 0, 48, 102
1, 31333, Note_on_c, 0, 36, 73
1, 31334, Control_c, 0, 64, 105
1, 31349, Control_c, 0, 64, 106
1, 31363, Note_off_c, 0, 48, 67
1, 31364, Control_c, 0, 64, 109
1, 31370, Note_off_c, 0, 36, 66
1, 31378, Control_c, 0, 64, 117
1, 31393, Control_c, 0, 64, 127
1, 31513, Note_on_c, 0, 67, 60
1, 31519, Note_on_c, 0, 68, 61
1, 31533, Note_on_c, 0, 62, 72
1, 31540, Note_off_c, 0, 67, 65
1, 31541, Control_c, 0, 64, 102
1, 31552, Note_on_c, 0, 49, 57
1, 31556, Control_c, 0, 64, 79
1, 31558, Note_off_c, 0, 62, 67
1, 31571, Control_c, 0, 64, 0
1, 31572, Note_on_c, 0, 75, 78
1, 31575, Note_off_c, 0, 68, 64
1, 31580, Note_on_c, 0, 69, 67
1, 31590, Note_on_c, 0, 78, 93
1, 31596, Note_off_c, 0, 49, 65
1, 31599, Note_on_c, 0, 51, 13
1, 31600, Note_on_c, 0, 65, 109
1, 31604, Note_on_c, 0, 48, 83
1, 31605, Note_on_c, 0, 61, 98
1, 31615, Control_c, 0, 64, 67
1, 31629, Note_off_c, 0, 65, 69
1, 31629, Control_c, 0, 64, 84
1, 31631, Note_off_c, 0, 78, 67
1, 31632, Note_off_c, 0, 61, 66
1, 31635, Note_off_c, 0, 75, 65
1, 31637, Note_off_c, 0, 69, 67
1, 31644, Control_c, 0, 64, 102
1, 31651, Note_off_c, 0, 51, 26
1, 31655, Note_off_c, 0, 48, 64
1, 31659, Control_c, 0, 64, 110
1, 31748, Control_c, 0, 64, 110
1, 31793, Control_c, 0, 64, 110
1, 31823, Control_c, 0, 64, 109
1, 31838, Control_c, 0, 64, 105
1, 31853, Control_c, 0, 64, 95
1, 31868, Control_c, 0, 64, 83
1, 31883, Control_c, 0, 64, 67
1, 31906, Control_c, 0, 64, 0
1, 31944, Note_on_c, 0, 37, 66
1, 31948, Note_on_c, 0, 49, 89
1, 31950, Control_c, 0, 64, 37
1, 31965, Control_c, 0, 64, 66
1, 31980, Control_c, 0, 64, 72
1, 31995, Control_c, 0, 64, 76
1, 32009, Control_c, 0, 64, 78
1, 32024, Control_c, 0, 64, 79
1, 32141, Note_off_c, 0, 49, 56
1, 32142, Control_c, 0, 64, 78
1, 32157, Control_c, 0, 64, 76
1, 32172, Control_c, 0, 64, 69
1, 32187, Control_c, 0, 64, 14
1, 32201, Control_c, 0, 64, 0
1, 32204, Note_off_c, 0, 37, 56
1, 32226, Note_on_c, 0, 36, 53
1, 32228, Note_on_c, 0, 48, 72
1, 32261, Note_off_c, 0, 48, 66
1, 32261, Note_off_c, 0, 36, 64
1, 32359, Note_on_c, 0, 48, 66
1, 32368, Note_on_c, 0, 36, 37
1, 32396, Note_off_c, 0, 48, 64
1, 32403, Note_off_c, 0, 36, 55
1, 32495, Note_on_c, 0, 48, 62
1, 32526, Note_on_c, 0, 36, 4
1, 32528, Note_off_c, 0, 48, 66
1, 32581, Note_off_c, 0, 36, 35
1, 32633, Note_on_c, 0, 49, 78
1, 32640, Note_on_c, 0, 37, 43
1, 32654, Control_c, 0, 64, 74
1, 32669, Control_c, 0, 64, 88
1, 32683, Control_c, 0, 64, 91
1, 32728, Control_c, 0, 64, 90
1, 32743, Control_c, 0, 64, 84
1, 32747, Note_off_c, 0, 49, 61
1, 32757, Control_c, 0, 64, 73
1, 32767, Note_off_c, 0, 37, 49
1, 32772, Control_c, 0, 64, 0
1, 32784, Note_on_c, 0, 50, 70
1, 32795, Note_on_c, 0, 38, 53
1, 32834, Note_off_c, 0, 50, 62
1, 32854, Note_off_c, 0, 38, 48
1, 32924, Note_on_c, 0, 48, 63
1, 32935, Note_on_c, 0, 36, 39
1, 32950, Note_off_c, 0, 48, 62
1, 32968, Note_off_c, 0, 36, 50
1, 33060, Note_on_c, 0, 49, 81
1, 33073, Note_on_c, 0, 37, 53
1, 33083, Control_c, 0, 64, 61
1, 33098, Control_c, 0, 64, 88
1, 33113, Control_c, 0, 64, 98
1, 33128, Control_c, 0, 64, 99
1, 33157, Control_c, 0, 64, 98
1, 33161, Note_off_c, 0, 37, 44
1, 33172, Control_c, 0, 64, 95
1, 33187, Control_c, 0, 64, 83
1, 33200, Note_on_c, 0, 50, 68
1, 33201, Control_c, 0, 64, 64
1, 33206, Note_off_c, 0, 49, 59
1, 33214, Note_on_c, 0, 38, 55
1, 33216, Control_c, 0, 64, 0
1, 33260, Note_off_c, 0, 50, 62
1, 33269, Note_off_c, 0, 38, 51
1, 33343, Note_on_c, 0, 48, 67
1, 33352, Note_on_c, 0, 36, 46
1, 33379, Note_off_c, 0, 48, 66
1, 33407, Note_off_c, 0, 36, 56
1, 33487, Note_on_c, 0, 49, 88
1, 33495, Note_on_c, 0, 37, 67
1, 33521, Control_c, 0, 64, 83
1, 33536, Control_c, 0, 64, 121
1, 33543, Note_off_c, 0, 49, 64
1, 33551, Control_c, 0, 64, 127
1, 33611, Note_on_c, 0, 45, 94
1, 33629, Note_on_c, 0, 33, 64
1, 33630, Note_off_c, 0, 37, 64
1, 33650, Note_off_c, 0, 45, 64
1, 33659, Note_off_c, 0, 33, 65
1, 33809, Note_on_c, 0, 67, 59
1, 33817, Control_c, 0, 64, 125
1, 33829, Note_off_c, 0, 67, 64
1, 33832, Control_c, 0, 64, 96
1, 33834, Note_on_c, 0, 69, 73
1, 33836, Note_on_c, 0, 62, 52
1, 33847, Control_c, 0, 64, 72
1, 33861, Note_off_c, 0, 62, 53
1, 33862, Control_c, 0, 64, 0
1, 33863, Note_on_c, 0, 75, 72
1, 33871, Note_on_c, 0, 49, 32
1, 33888, Note_on_c, 0, 78, 88
1, 33892, Control_c, 0, 64, 71
1, 33895, Note_on_c, 0, 65, 111
1, 33899, Note_off_c, 0, 49, 49
1, 33904, Note_on_c, 0, 61, 96
1, 33904, Note_on_c, 0, 48, 77
1, 33906, Control_c, 0, 64, 88
1, 33921, Control_c, 0, 64, 115
1, 33923, Note_off_c, 0, 61, 70
1, 33924, Note_off_c, 0, 65, 70
1, 33929, Note_off_c, 0, 78, 66
1, 33930, Note_off_c, 0, 75, 65
1, 33935, Note_off_c, 0, 69, 67
1, 33936, Control_c, 0, 64, 127
1, 33938, Note_off_c, 0, 48, 62
1, 34113, Control_c, 0, 64, 126
1, 34128, Control_c, 0, 64, 113
1, 34151, Control_c, 0, 64, 95
1, 34166, Control_c, 0, 64, 76
1, 34180, Control_c, 0, 64, 0
1, 34183, Note_on_c, 0, 48, 92
1, 34202, Note_on_c, 0, 36, 50
1, 34226, Control_c, 0, 64, 51
1, 34240, Control_c, 0, 64, 69
1, 34255, Control_c, 0, 64, 77
1, 34270, Control_c, 0, 64, 81
1, 34285, Control_c, 0, 64, 82
1, 34300, Control_c, 0, 64, 82
1, 34344, Control_c, 0, 64, 83
1, 34383, Note_off_c, 0, 48, 62
1, 34403, Control_c, 0, 64, 82
1, 34433, Control_c, 0, 64, 81
1, 34447, Control_c, 0, 64, 78
1, 34457, Note_off_c, 0, 36, 42
1, 34462, Control_c, 0, 64, 68
1, 34464, Note_on_c, 0, 37, 58
1, 34466, Note_on_c, 0, 49, 75
1, 34477, Control_c, 0, 64, 0
1, 34495, Note_off_c, 0, 49, 64
1, 34500, Note_off_c, 0, 37, 63
1, 34595, Note_on_c, 0, 48, 75
1, 34608, Note_on_c, 0, 36, 49
1, 34630, Note_off_c, 0, 48, 67
1, 34644, Note_off_c, 0, 36, 63
1, 34735, Note_on_c, 0, 48, 64
1, 34744, Note_on_c, 0, 36, 46
1, 34768, Note_off_c, 0, 48, 65
1, 34781, Note_off_c, 0, 36, 58
1, 34874, Note_on_c, 0, 48, 60
1, 34880, Note_on_c, 0, 36, 47
1, 34914, Note_off_c, 0, 48, 66
1, 34922, Note_off_c, 0, 36, 58
1, 35019, Note_on_c, 0, 49, 78
1, 35019, Control_c, 0, 64, 67
1, 35025, Note_on_c, 0, 37, 57
1, 35035, Control_c, 0, 64, 66
1, 35050, Control_c, 0, 64, 0
1, 35054, Note_off_c, 0, 49, 61
1, 35060, Note_off_c, 0, 37, 64
1, 35147, Note_on_c, 0, 48, 68
1, 35156, Note_on_c, 0, 36, 49
1, 35185, Note_off_c, 0, 48, 64
1, 35194, Note_off_c, 0, 36, 62
1, 35285, Note_on_c, 0, 49, 70
1, 35288, Note_on_c, 0, 37, 48
1, 35325, Note_off_c, 0, 49, 58
1, 35337, Note_off_c, 0, 37, 57
1, 35421, Note_on_c, 0, 50, 70
1, 35423, Note_on_c, 0, 38, 53
1, 35455, Note_off_c, 0, 38, 62
1, 35460, Note_off_c, 0, 50, 63
1, 35543, Note_on_c, 0, 54, 86
1, 35553, Note_on_c, 0, 42, 79
1, 35553, Control_c, 0, 64, 78
1, 35568, Control_c, 0, 64, 90
1, 35583, Control_c, 0, 64, 89
1, 35586, Note_off_c, 0, 42, 65
1, 35594, Note_off_c, 0, 54, 61
1, 35597, Control_c, 0, 64, 78
1, 35612, Control_c, 0, 64, 55
1, 35627, Control_c, 0, 64, 0
1, 35685, Note_on_c, 0, 50, 71
1, 35695, Note_on_c, 0, 38, 55
1, 35717, Note_off_c, 0, 50, 63
1, 35735, Note_off_c, 0, 38, 61
1, 35836, Note_on_c, 0, 49, 60
1, 35839, Note_on_c, 0, 37, 49
1, 35868, Note_off_c, 0, 37, 63
1, 35869, Note_off_c, 0, 49, 64
1, 35974, Note_on_c, 0, 50, 86
1, 35978, Note_on_c, 0, 38, 82
1, 35991, Control_c, 0, 64, 90
1, 36006, Control_c, 0, 64, 109
1, 36020, Control_c, 0, 64, 109
1, 36050, Control_c, 0, 64, 108
1, 36154, Control_c, 0, 64, 107
1, 36169, Control_c, 0, 64, 106
1, 36184, Control_c, 0, 64, 103
1, 36199, Control_c, 0, 64, 98
1, 36214, Control_c, 0, 64, 92
1, 36225, Note_off_c, 0, 50, 52
1, 36228, Control_c, 0, 64, 86
1, 36243, Control_c, 0, 64, 79
1, 36258, Control_c, 0, 64, 69
1, 36260, Note_on_c, 0, 36, 53
1, 36268, Note_off_c, 0, 38, 40
1, 36273, Control_c, 0, 64, 53
1, 36278, Note_on_c, 0, 48, 63
1, 36288, Control_c, 0, 64, 0
1, 36297, Note_off_c, 0, 36, 64
1, 36318, Note_off_c, 0, 48, 66
1, 36415, Note_on_c, 0, 49, 70
1, 36416, Note_on_c, 0, 37, 55
1, 36453, Note_off_c, 0, 37, 63
1, 36454, Note_off_c, 0, 49, 60
1, 36554, Note_on_c, 0, 48, 58
1, 36577, Note_on_c, 0, 36, 35
1, 36583, Note_off_c, 0, 48, 66
1, 36613, Note_off_c, 0, 36, 44
1, 36683, Note_on_c, 0, 50, 87
1, 36685, Note_on_c, 0, 38, 73
1, 36710, Control_c, 0, 64, 20
1, 36724, Control_c, 0, 64, 25
1, 36725, Note_off_c, 0, 38, 66
1, 36728, Note_off_c, 0, 50, 62
1, 36739, Control_c, 0, 64, 22
1, 36754, Control_c, 0, 64, 18
1, 36769, Control_c, 0, 64, 14
1, 36784, Control_c, 0, 64, 0
1, 36809, Note_on_c, 0, 36, 57
1, 36819, Note_on_c, 0, 48, 73
1, 36843, Note_off_c, 0, 36, 65
1, 36857, Note_off_c, 0, 48, 64
1, 36956, Note_on_c, 0, 32, 54
1, 36958, Note_on_c, 0, 44, 67
1, 36989, Note_off_c, 0, 44, 65
1, 36993, Note_off_c, 0, 32, 63
1, 37090, Note_on_c, 0, 31, 48
1, 37095, Note_on_c, 0, 43, 67
1, 37129, Note_off_c, 0, 31, 62
1, 37146, Note_off_c, 0, 43, 63
1, 37233, Note_on_c, 0, 45, 76
1, 37249, Note_on_c, 0, 33, 21
1, 37271, Note_off_c, 0, 45, 67
1, 37296, Note_off_c, 0, 33, 50
1, 37370, Note_on_c, 0, 48, 88
1, 37385, Note_on_c, 0, 36, 63
1, 37417, Note_off_c, 0, 48, 62
1, 37423, Note_off_c, 0, 36, 62
1, 37514, Note_on_c, 0, 44, 78
1, 37518, Note_on_c, 0, 32, 59
1, 37550, Note_off_c, 0, 44, 65
1, 37556, Note_off_c, 0, 32, 65
1, 37561, Control_c, 0, 64, 20
1, 37576, Control_c, 0, 64, 28
1, 37591, Control_c, 0, 64, 33
1, 37606, Control_c, 0, 64, 36
1, 37621, Control_c, 0, 64, 38
1, 37651, Control_c, 0, 64, 39
1, 37651, Note_on_c, 0, 43, 68
1, 37654, Note_on_c, 0, 31, 39
1, 37665, Control_c, 0, 64, 39
1, 37680, Control_c, 0, 64, 41
1, 37690, Note_off_c, 0, 43, 63
1, 37695, Control_c, 0, 64, 56
1, 37708, Note_off_c, 0, 31, 53
1, 37710, Control_c, 0, 64, 64
1, 37725, Control_c, 0, 64, 69
1, 37739, Control_c, 0, 64, 76
1, 37754, Control_c, 0, 64, 83
1, 37764, Note_on_c, 0, 33, 59
1, 37765, Note_on_c, 0, 45, 79
1, 37769, Control_c, 0, 64, 87
1, 37784, Control_c, 0, 64, 89
1, 37788, Note_off_c, 0, 45, 68
1, 37791, Note_off_c, 0, 33, 58
1, 37798, Control_c, 0, 64, 90
1, 37813, Control_c, 0, 64, 91
1, 37858, Control_c, 0, 64, 91
1, 37914, Note_on_c, 0, 61, 65
1, 37925, Note_on_c, 0, 49, 68
1, 37938, Note_on_c, 0, 58, 61
1, 37940, Control_c, 0, 64, 92
1, 37954, Note_off_c, 0, 49, 64
1, 37954, Control_c, 0, 64, 93
1, 37967, Note_on_c, 0, 56, 82
1, 37968, Note_on_c, 0, 46, 59
1, 37969, Control_c, 0, 64, 94
1, 37976, Note_off_c, 0, 61, 62
1, 37984, Control_c, 0, 64, 96
1, 37990, Note_off_c, 0, 58, 61
1, 37996, Note_on_c, 0, 54, 85
1, 37998, Control_c, 0, 64, 100
1, 37999, Note_off_c, 0, 46, 63
1, 38013, Control_c, 0, 64, 106
1, 38028, Control_c, 0, 64, 111
1, 38029, Note_on_c, 0, 42, 60
1, 38029, Note_off_c, 0, 56, 66
1, 38043, Note_on_c, 0, 48, 108
1, 38043, Control_c, 0, 64, 113
1, 38053, Note_off_c, 0, 42, 59
1, 38058, Control_c, 0, 64, 114
1, 38065, Note_off_c, 0, 54, 63
1, 38091, Note_on_c, 0, 36, 87
1, 38092, Note_off_c, 0, 48, 69
1, 38135, Note_off_c, 0, 36, 60
1, 38176, Control_c, 0, 64, 113
1, 38222, Control_c, 0, 64, 112
1, 38237, Control_c, 0, 64, 109
1, 38251, Control_c, 0, 64, 106
1, 38266, Control_c, 0, 64, 101
1, 38268, Note_on_c, 0, 33, 57
1, 38281, Control_c, 0, 64, 96
1, 38294, Note_on_c, 0, 45, 72
1, 38295, Control_c, 0, 64, 92
1, 38310, Control_c, 0, 64, 87
1, 38319, Note_off_c, 0, 33, 62
1, 38325, Control_c, 0, 64, 82
1, 38334, Note_off_c, 0, 45, 66
1, 38340, Control_c, 0, 64, 77
1, 38355, Control_c, 0, 64, 69
1, 38369, Control_c, 0, 64, 60
1, 38384, Control_c, 0, 64, 0
1, 38387, Note_on_c, 0, 36, 61
1, 38417, Note_off_c, 0, 36, 65
1, 38421, Note_on_c, 0, 48, 76
1, 38464, Note_off_c, 0, 48, 67
1, 38539, Note_on_c, 0, 36, 54
1, 38555, Note_on_c, 0, 48, 75
1, 38585, Note_off_c, 0, 36, 61
1, 38597, Note_off_c, 0, 48, 62
1, 38682, Note_on_c, 0, 32, 68
1, 38703, Note_on_c, 0, 44, 77
1, 38725, Note_off_c, 0, 32, 63
1, 38739, Note_off_c, 0, 44, 65
1, 38831, Note_on_c, 0, 31, 44
1, 38832, Note_on_c, 0, 43, 72
1, 38870, Note_off_c, 0, 43, 63
1, 38910, Control_c, 0, 64, 40
1, 38925, Control_c, 0, 64, 65
1, 38932, Note_on_c, 0, 33, 75
1, 38933, Note_off_c, 0, 31, 42
1, 38940, Control_c, 0, 64, 73
1, 38947, Note_on_c, 0, 45, 86
1, 38955, Control_c, 0, 64, 79
1, 38965, Note_off_c, 0, 33, 68
1, 38969, Control_c, 0, 64, 84
1, 38971, Note_off_c, 0, 45, 70
1, 38984, Control_c, 0, 64, 85
1, 39015, Control_c, 0, 64, 86
1, 39030, Control_c, 0, 64, 86
1, 39044, Control_c, 0, 64, 87
1, 39059, Control_c, 0, 64, 88
1, 39074, Control_c, 0, 64, 89
1, 39089, Control_c, 0, 64, 90
1, 39093, Note_on_c, 0, 61, 61
1, 39104, Control_c, 0, 64, 90
1, 39111, Note_on_c, 0, 49, 64
1, 39129, Note_on_c, 0, 58, 37
1, 39133, Control_c, 0, 64, 91
1, 39136, Note_off_c, 0, 49, 64
1, 39147, Note_on_c, 0, 46, 74
1, 39147, Note_on_c, 0, 56, 74
1, 39148, Control_c, 0, 64, 91
1, 39156, Note_off_c, 0, 61, 62
1, 39158, Note_off_c, 0, 58, 55
1, 39163, Control_c, 0, 64, 92
1, 39177, Note_on_c, 0, 54, 75
1, 39178, Control_c, 0, 64, 93
1, 39185, Note_on_c, 0, 42, 32
1, 39192, Control_c, 0, 64, 95
1, 39199, Note_off_c, 0, 56, 66
1, 39207, Control_c, 0, 64, 96
1, 39208, Note_on_c, 0, 36, 85
1, 39210, Note_off_c, 0, 46, 58
1, 39216, Note_on_c, 0, 48, 104
1, 39222, Control_c, 0, 64, 96
1, 39224, Note_off_c, 0, 42, 62
1, 39236, Note_off_c, 0, 54, 61
1, 39238, Note_off_c, 0, 36, 68
1, 39257, Note_off_c, 0, 48, 68
1, 39380, Note_on_c, 0, 55, 62
1, 39424, Note_on_c, 0, 53, 54
1, 39430, Note_on_c, 0, 50, 55
1, 39437, Control_c, 0, 64, 96
1, 39442, Note_off_c, 0, 55, 59
1, 39451, Control_c, 0, 64, 89
1, 39455, Note_on_c, 0, 48, 76
1, 39456, Note_off_c, 0, 53, 67
1, 39466, Control_c, 0, 64, 76
1, 39469, Note_on_c, 0, 38, 78
1, 39478, Note_off_c, 0, 50, 62
1, 39481, Control_c, 0, 64, 25
1, 39496, Control_c, 0, 64, 0
1, 39500, Note_on_c, 0, 42, 103
1, 39511, Note_on_c, 0, 30, 90
1, 39511, Control_c, 0, 64, 57
1, 39526, Control_c, 0, 64, 72
1, 39528, Note_off_c, 0, 38, 64
1, 39529, Note_off_c, 0, 48, 66
1, 39540, Control_c, 0, 64, 80
1, 39553, Note_off_c, 0, 42, 65
1, 39555, Control_c, 0, 64, 88
1, 39569, Note_off_c, 0, 30, 62
1, 39570, Control_c, 0, 64, 91
1, 39585, Control_c, 0, 64, 92
1, 39600, Control_c, 0, 64, 93
1, 39762, Control_c, 0, 64, 93
1, 39777, Control_c, 0, 64, 91
1, 39792, Control_c, 0, 64, 88
1, 39807, Control_c, 0, 64, 81
1, 39823, Control_c, 0, 64, 72
1, 39838, Control_c, 0, 64, 43
1, 39844, Note_on_c, 0, 42, 78
1, 39853, Control_c, 0, 64, 0
1, 39874, Note_on_c, 0, 30, 41
1, 39883, Note_off_c, 0, 42, 60
1, 39901, Note_off_c, 0, 30, 59
1, 39985, Note_on_c, 0, 42, 97
1, 39994, Note_on_c, 0, 30, 70
1, 40030, Control_c, 0, 64, 56
1, 40045, Control_c, 0, 64, 70
1, 40060, Control_c, 0, 64, 77
1, 40074, Control_c, 0, 64, 82
1, 40227, Note_off_c, 0, 42, 58
1, 40232, Note_off_c, 0, 30, 37
1, 40298, Note_on_c, 0, 43, 69
1, 40304, Note_on_c, 0, 31, 59
1, 40304, Control_c, 0, 64, 81
1, 40319, Control_c, 0, 64, 78
1, 40333, Note_off_c, 0, 43, 61
1, 40334, Control_c, 0, 64, 71
1, 40341, Note_off_c, 0, 31, 63
1, 40348, Control_c, 0, 64, 56
1, 40363, Control_c, 0, 64, 0
1, 40440, Note_on_c, 0, 32, 57
1, 40440, Note_on_c, 0, 44, 62
1, 40475, Note_off_c, 0, 44, 65
1, 40478, Note_off_c, 0, 32, 63
1, 40575, Note_on_c, 0, 44, 62
1, 40581, Note_on_c, 0, 32, 50
1, 40614, Note_off_c, 0, 44, 64
1, 40617, Note_off_c, 0, 32, 63
1, 40715, Note_on_c, 0, 44, 59
1, 40717, Note_on_c, 0, 32, 47
1, 40753, Note_off_c, 0, 44, 65
1, 40754, Note_off_c, 0, 32, 62
1, 40845, Note_on_c, 0, 36, 66
1, 40846, Note_on_c, 0, 48, 82
1, 40895, Note_off_c, 0, 36, 64
1, 40911, Note_off_c, 0, 48, 63
1, 40971, Note_on_c, 0, 32, 58
1, 40992, Note_on_c, 0, 44, 67
1, 41012, Note_off_c, 0, 32, 63
1, 41027, Note_off_c, 0, 44, 63
1, 41119, Note_on_c, 0, 31, 49
1, 41144, Note_on_c, 0, 43, 62
1, 41165, Note_off_c, 0, 31, 58
1, 41183, Note_off_c, 0, 43, 60
1, 41271, Note_on_c, 0, 33, 61
1, 41272, Note_on_c, 0, 45, 73
1, 41306, Note_off_c, 0, 45, 65
1, 41307, Note_off_c, 0, 33, 64
1, 41412, Note_on_c, 0, 43, 56
1, 41428, Note_on_c, 0, 31, 40
1, 41446, Note_off_c, 0, 43, 63
1, 41464, Note_off_c, 0, 31, 53
1, 41541, Note_on_c, 0, 44, 70
1, 41564, Note_on_c, 0, 32, 50
1, 41580, Note_off_c, 0, 44, 65
1, 41603, Note_off_c, 0, 32, 61
1, 41690, Note_on_c, 0, 36, 63
1, 41693, Note_on_c, 0, 48, 82
1, 41730, Note_off_c, 0, 36, 62
1, 41743, Note_off_c, 0, 48, 61
1, 41822, Note_on_c, 0, 44, 75
1, 41827, Note_on_c, 0, 32, 61
1, 41869, Note_off_c, 0, 32, 60
1, 41870, Note_off_c, 0, 44, 59
1, 41961, Note_on_c, 0, 45, 72
1, 41962, Note_on_c, 0, 33, 61
1, 42004, Note_off_c, 0, 45, 66
1, 42007, Note_off_c, 0, 33, 61
1, 42095, Note_on_c, 0, 48, 80
1, 42116, Note_on_c, 0, 36, 53
1, 42131, Note_off_c, 0, 48, 68
1, 42149, Note_off_c, 0, 36, 64
1, 42173, Control_c, 0, 64, 20
1, 42187, Control_c, 0, 64, 30
1, 42202, Control_c, 0, 64, 34
1, 42218, Control_c, 0, 64, 38
1, 42230, Note_on_c, 0, 36, 66
1, 42231, Note_on_c, 0, 48, 91
1, 42233, Control_c, 0, 64, 40
1, 42248, Control_c, 0, 64, 42
1, 42262, Control_c, 0, 64, 43
1, 42270, Note_off_c, 0, 48, 66
1, 42273, Note_off_c, 0, 36, 62
1, 42277, Control_c, 0, 64, 45
1, 42292, Control_c, 0, 64, 46
1, 42307, Control_c, 0, 64, 48
1, 42322, Control_c, 0, 64, 48
1, 42337, Control_c, 0, 64, 49
1, 42363, Note_on_c, 0, 37, 70
1, 42366, Control_c, 0, 64, 48
1, 42368, Note_on_c, 0, 49, 85
1, 42388, Control_c, 0, 64, 47
1, 42403, Control_c, 0, 64, 44
1, 42417, Note_off_c, 0, 37, 61
1, 42417, Note_off_c, 0, 49, 63
1, 42418, Control_c, 0, 64, 35
1, 42433, Control_c, 0, 64, 0
1, 42510, Note_on_c, 0, 48, 91
1, 42513, Note_on_c, 0, 36, 67
1, 42551, Note_off_c, 0, 48, 66
1, 42623, Note_off_c, 0, 36, 55
1, 42642, Note_on_c, 0, 45, 102
1, 42648, Note_on_c, 0, 33, 85
1, 42675, Note_off_c, 0, 45, 68
1, 42682, Note_off_c, 0, 33, 67
1, 42685, Control_c, 0, 64, 83
1, 42700, Control_c, 0, 64, 127
1, 42846, Note_on_c, 0, 67, 67
1, 42864, Note_on_c, 0, 62, 61
1, 42872, Note_on_c, 0, 69, 80
1, 42872, Note_off_c, 0, 67, 66
1, 42875, Note_on_c, 0, 49, 47
1, 42885, Note_off_c, 0, 62, 61
1, 42890, Note_on_c, 0, 75, 81
1, 42915, Note_on_c, 0, 78, 89
1, 42926, Note_off_c, 0, 49, 53
1, 42932, Note_on_c, 0, 65, 108
1, 42933, Note_on_c, 0, 48, 75
1, 42941, Note_on_c, 0, 73, 32
1, 42943, Note_on_c, 0, 61, 92
1, 42959, Note_on_c, 0, 55, 38
1, 42992, Note_off_c, 0, 55, 49
1, 42992, Note_off_c, 0, 65, 62
1, 43000, Note_off_c, 0, 48, 66
1, 43004, Note_off_c, 0, 61, 51
1, 43009, Note_off_c, 0, 73, 0
1, 43009, Note_on_c, 0, 73, 10
1, 43065, Note_off_c, 0, 73, 45
1, 43066, Note_off_c, 0, 78, 59
1, 43086, Note_off_c, 0, 75, 58
1, 43087, Note_off_c, 0, 69, 0
1, 43108, Note_on_c, 0, 69, 41
1, 43113, Note_on_c, 0, 67, 64
1, 43115, Control_c, 0, 64, 112
1, 43137, Control_c, 0, 64, 86
1, 43143, Note_off_c, 0, 67, 64
1, 43144, Note_on_c, 0, 62, 61
1, 43152, Control_c, 0, 64, 0
1, 43155, Note_on_c, 0, 49, 61
1, 43169, Note_off_c, 0, 62, 51
1, 43177, Note_on_c, 0, 75, 85
1, 43195, Note_on_c, 0, 78, 79
1, 43196, Control_c, 0, 64, 61
1, 43205, Note_on_c, 0, 65, 112
1, 43205, Note_on_c, 0, 73, 39
1, 43207, Note_off_c, 0, 49, 62
1, 43210, Control_c, 0, 64, 83
1, 43213, Note_on_c, 0, 48, 80
1, 43219, Note_on_c, 0, 61, 94
1, 43225, Control_c, 0, 64, 118
1, 43234, Note_off_c, 0, 73, 49
1, 43234, Note_off_c, 0, 78, 66
1, 43237, Note_off_c, 0, 61, 71
1, 43240, Control_c, 0, 64, 127
1, 43243, Note_off_c, 0, 65, 69
1, 43246, Note_off_c, 0, 75, 66
1, 43255, Note_off_c, 0, 69, 66
1, 43272, Note_off_c, 0, 48, 65
1, 43537, Control_c, 0, 64, 112
1, 43552, Control_c, 0, 64, 96
1, 43565, Note_on_c, 0, 43, 108
1, 43566, Control_c, 0, 64, 78
1, 43571, Note_on_c, 0, 31, 75
1, 43581, Control_c, 0, 64, 22
1, 43596, Control_c, 0, 64, 0
1, 43640, Control_c, 0, 64, 52
1, 43655, Control_c, 0, 64, 67
1, 43670, Control_c, 0, 64, 72
1, 43684, Control_c, 0, 64, 77
1, 43699, Control_c, 0, 64, 81
1, 43714, Control_c, 0, 64, 82
1, 43729, Control_c, 0, 64, 83
1, 43759, Note_off_c, 0, 43, 58
1, 43773, Control_c, 0, 64, 83
1, 43829, Note_off_c, 0, 31, 38
1, 43842, Note_on_c, 0, 44, 86
1, 43844, Note_on_c, 0, 32, 70
1, 43863, Control_c, 0, 64, 83
1, 43886, Control_c, 0, 64, 79
1, 43901, Control_c, 0, 64, 68
1, 43904, Note_off_c, 0, 32, 62
1, 43904, Note_off_c, 0, 44, 63
1, 43915, Control_c, 0, 64, 0
1, 43987, Note_on_c, 0, 33, 71
1, 43994, Note_on_c, 0, 45, 81
1, 44030, Note_off_c, 0, 33, 64
1, 44045, Note_off_c, 0, 45, 64
1, 44143, Note_on_c, 0, 49, 80
1, 44152, Note_on_c, 0, 37, 59
1, 44167, Control_c, 0, 64, 75
1, 44182, Control_c, 0, 64, 89
1, 44197, Control_c, 0, 64, 102
1, 44212, Control_c, 0, 64, 105
1, 44226, Control_c, 0, 64, 109
1, 44241, Control_c, 0, 64, 111
1, 44289, Note_on_c, 0, 50, 81
1, 44319, Note_off_c, 0, 37, 62
1, 44323, Note_on_c, 0, 38, 68
1, 44327, Note_off_c, 0, 49, 59
1, 44345, Control_c, 0, 64, 111
1, 44374, Control_c, 0, 64, 112
1, 44389, Control_c, 0, 64, 112
1, 44404, Control_c, 0, 64, 113
1, 44419, Control_c, 0, 64, 113
1, 44425, Note_on_c, 0, 49, 84
1, 44433, Control_c, 0, 64, 114
1, 44441, Note_on_c, 0, 37, 75
1, 44445, Note_off_c, 0, 38, 59
1, 44448, Control_c, 0, 64, 115
1, 44454, Note_off_c, 0, 50, 61
1, 44463, Control_c, 0, 64, 115
1, 44478, Control_c, 0, 64, 116
1, 44493, Control_c, 0, 64, 117
1, 44498, Note_off_c, 0, 49, 61
1, 44522, Control_c, 0, 64, 117
1, 44530, Note_off_c, 0, 37, 63
1, 44551, Control_c, 0, 64, 118
1, 44558, Note_on_c, 0, 48, 91
1, 44566, Control_c, 0, 64, 118
1, 44567, Note_on_c, 0, 36, 76
1, 44582, Control_c, 0, 64, 119
1, 44597, Control_c, 0, 64, 119
1, 44613, Control_c, 0, 64, 120
1, 44623, Note_off_c, 0, 48, 64
1, 44635, Control_c, 0, 64, 120
1, 44645, Note_off_c, 0, 36, 63
1, 44696, Note_on_c, 0, 44, 88
1, 44699, Note_on_c, 0, 32, 82
1, 44740, Note_off_c, 0, 44, 66
1, 44763, Note_off_c, 0, 32, 62
1, 44834, Note_on_c, 0, 45, 77
1, 44846, Note_on_c, 0, 33, 77
1, 44861, Note_off_c, 0, 45, 67
1, 44872, Control_c, 0, 64, 120
1, 44887, Control_c, 0, 64, 119
1, 44891, Note_off_c, 0, 33, 64
1, 44902, Control_c, 0, 64, 111
1, 44917, Control_c, 0, 64, 96
1, 44932, Control_c, 0, 64, 79
1, 44946, Control_c, 0, 64, 54
1, 44961, Control_c, 0, 64, 0
1, 44972, Note_on_c, 0, 42, 104
1, 44977, Note_on_c, 0, 30, 88
1, 44990, Control_c, 0, 64, 63
1, 45005, Control_c, 0, 64, 71
1, 45018, Note_off_c, 0, 42, 65
1, 45020, Control_c, 0, 64, 78
1, 45035, Control_c, 0, 64, 84
1, 45050, Control_c, 0, 64, 86
1, 45056, Note_off_c, 0, 30, 62
1, 45079, Control_c, 0, 64, 86
1, 45109, Control_c, 0, 64, 87
1, 45121, Note_on_c, 0, 48, 98
1, 45140, Note_on_c, 0, 36, 67
1, 45153, Note_off_c, 0, 48, 67
1, 45186, Note_off_c, 0, 36, 57
1, 45346, Control_c, 0, 64, 86
1, 45361, Control_c, 0, 64, 80
1, 45383, Control_c, 0, 64, 67
1, 45398, Control_c, 0, 64, 0
1, 45441, Note_on_c, 0, 42, 103
1, 45443, Note_on_c, 0, 30, 89
1, 45458, Control_c, 0, 64, 65
1, 45473, Control_c, 0, 64, 73
1, 45479, Note_off_c, 0, 42, 67
1, 45487, Control_c, 0, 64, 81
1, 45502, Control_c, 0, 64, 84
1, 45529, Note_off_c, 0, 30, 59
1, 45562, Control_c, 0, 64, 84
1, 45592, Note_on_c, 0, 48, 99
1, 45606, Control_c, 0, 64, 85
1, 45615, Note_on_c, 0, 36, 70
1, 45624, Note_off_c, 0, 48, 69
1, 45636, Control_c, 0, 64, 85
1, 45784, Control_c, 0, 64, 86
1, 45858, Control_c, 0, 64, 82
1, 45873, Control_c, 0, 64, 73
1, 45887, Control_c, 0, 64, 53
1, 45900, Note_off_c, 0, 36, 41
1, 45902, Control_c, 0, 64, 0
1, 45917, Note_on_c, 0, 42, 105
1, 45917, Control_c, 0, 64, 25
1, 45923, Note_on_c, 0, 30, 93
1, 45932, Control_c, 0, 64, 65
1, 45947, Control_c, 0, 64, 73
1, 45955, Note_off_c, 0, 42, 66
1, 45961, Control_c, 0, 64, 78
1, 45976, Control_c, 0, 64, 80
1, 45991, Control_c, 0, 64, 81
1, 46006, Control_c, 0, 64, 81
1, 46020, Note_off_c, 0, 30, 59
1, 46036, Control_c, 0, 64, 82
1, 46065, Note_on_c, 0, 48, 107
1, 46066, Control_c, 0, 64, 83
1, 46080, Note_on_c, 0, 36, 78
1, 46101, Note_off_c, 0, 48, 67
1, 46161, Control_c, 0, 64, 83
1, 46163, Note_off_c, 0, 36, 55
1, 46325, Control_c, 0, 64, 84
1, 46355, Control_c, 0, 64, 84
1, 46370, Control_c, 0, 64, 85
1, 46429, Control_c, 0, 64, 82
1, 46444, Control_c, 0, 64, 73
1, 46459, Control_c, 0, 64, 48
1, 46474, Control_c, 0, 64, 0
1, 46478, Note_on_c, 0, 30, 97
1, 46478, Note_on_c, 0, 42, 120
1, 46503, Control_c, 0, 64, 59
1, 46507, Note_off_c, 0, 42, 68
1, 46518, Control_c, 0, 64, 70
1, 46533, Control_c, 0, 64, 76
1, 46548, Control_c, 0, 64, 81
1, 46556, Note_off_c, 0, 30, 62
1, 46562, Control_c, 0, 64, 82
1, 46577, Control_c, 0, 64, 83
1, 46592, Control_c, 0, 64, 85
1, 46607, Control_c, 0, 64, 87
1, 46622, Control_c, 0, 64, 89
1, 46636, Control_c, 0, 64, 91
1, 46651, Control_c, 0, 64, 93
1, 46666, Control_c, 0, 64, 94
1, 46681, Control_c, 0, 64, 94
1, 46725, Control_c, 0, 64, 95
1, 46754, Control_c, 0, 64, 95
1, 46784, Control_c, 0, 64, 96
1, 46799, Control_c, 0, 64, 96
1, 46828, Control_c, 0, 64, 97
1, 46858, Control_c, 0, 64, 97
1, 46909, Control_c, 0, 64, 98
1, 46984, Control_c, 0, 64, 98
1, 47029, Control_c, 0, 64, 99
1, 47073, Control_c, 0, 64, 99
1, 47103, Control_c, 0, 64, 100
1, 47133, Control_c, 0, 64, 100
1, 47148, Control_c, 0, 64, 101
1, 47163, Control_c, 0, 64, 102
1, 47177, Control_c, 0, 64, 103
1, 47192, Control_c, 0, 64, 105
1, 47207, Control_c, 0, 64, 108
1, 47222, Control_c, 0, 64, 111
1, 47237, Control_c, 0, 64, 113
1, 47251, Control_c, 0, 64, 114
1, 47274, Note_on_c, 0, 36, 104
1, 47280, Note_on_c, 0, 48, 123
1, 47296, Control_c, 0, 64, 111
1, 47311, Control_c, 0, 64, 100
1, 47325, Control_c, 0, 64, 83
1, 47340, Control_c, 0, 64, 55
1, 47355, Control_c, 0, 64, 0
1, 47562, Control_c, 0, 64, 63
1, 47577, Control_c, 0, 64, 69
1, 47592, Control_c, 0, 64, 69
1, 47607, Control_c, 0, 64, 70
1, 47622, Control_c, 0, 64, 72
1, 47644, Control_c, 0, 64, 74
1, 47658, Control_c, 0, 64, 76
1, 47673, Control_c, 0, 64, 78
1, 47688, Control_c, 0, 64, 81
1, 47703, Control_c, 0, 64, 86
1, 47718, Control_c, 0, 64, 95
1, 47732, Control_c, 0, 64, 106
1, 47747, Control_c, 0, 64, 109
1, 47806, Note_off_c, 0, 48, 52
1, 47831, Note_off_c, 0, 36, 52
1, 47852, Control_c, 0, 64, 109
1, 47926, Control_c, 0, 64, 110
1, 47941, Control_c, 0, 64, 110
1, 47956, Control_c, 0, 64, 111
1, 47985, Control_c, 0, 64, 111
1, 48000, Control_c, 0, 64, 112
1, 48015, Control_c, 0, 64, 112
1, 48030, Control_c, 0, 64, 113
1, 48045, Control_c, 0, 64, 114
1, 48060, Control_c, 0, 64, 115
1, 48074, Control_c, 0, 64, 116
1, 48089, Control_c, 0, 64, 117
1, 48104, Control_c, 0, 64, 118
1, 48119, Control_c, 0, 64, 120
1, 48134, Control_c, 0, 64, 121
1, 48148, Control_c, 0, 64, 122
1, 48163, Control_c, 0, 64, 123
1, 48178, Control_c, 0, 64, 125
1, 48193, Control_c, 0, 64, 125
1, 48207, Control_c, 0, 64, 126
1, 48222, Control_c, 0, 64, 126
1, 48237, Control_c, 0, 64, 127
1, 48252, Control_c, 0, 64, 127
1, 48590, Note_on_c, 0, 67, 74
1, 48628, Note_on_c, 0, 69, 65
1, 48638, Note_on_c, 0, 62, 58
1, 48649, Note_off_c, 0, 67, 61
1, 48661, Note_off_c, 0, 62, 62
1, 48662, Note_on_c, 0, 75, 77
1, 48680, Note_on_c, 0, 49, 60
1, 48698, Note_off_c, 0, 69, 67
1, 48708, Note_off_c, 0, 75, 44
1, 48710, Note_on_c, 0, 78, 103
1, 48714, Note_on_c, 0, 65, 108
1, 48717, Note_on_c, 0, 48, 86
1, 48718, Note_on_c, 0, 61, 109
1, 48740, Note_on_c, 0, 55, 16
1, 48742, Note_on_c, 0, 76, 55
1, 48744, Note_off_c, 0, 65, 73
1, 48751, Note_off_c, 0, 49, 32
1, 48751, Note_off_c, 0, 61, 69
1, 48753, Note_off_c, 0, 78, 69
1, 48755, Note_off_c, 0, 48, 66
1, 48762, Note_off_c, 0, 76, 61
1, 48783, Note_off_c, 0, 55, 53
1, 48805, Poly_aftertouch_c, 0, 69, 0
1, 49978, Control_c, 0, 64, 126
1, 49993, Control_c, 0, 64, 124
1, 50008, Control_c, 0, 64, 122
1, 50023, Control_c, 0, 64, 121
1, 50038, Control_c, 0, 64, 119
1, 50052, Control_c, 0, 64, 118
1, 50067, Control_c, 0, 64, 116
1, 50082, Control_c, 0, 64, 115
1, 50097, Control_c, 0, 64, 113
1, 50112, Control_c, 0, 64, 111
1, 50126, Control_c, 0, 64, 109
1, 50141, Control_c, 0, 64, 107
1, 50141, Control_c, 0, 67, 8
1, 50156, Control_c, 0, 64, 105
1, 50156, Control_c, 0, 67, 8
1, 50170, Control_c, 0, 64, 103
1, 50170, Control_c, 0, 67, 9
1, 50185, Control_c, 0, 64, 102
1, 50201, Control_c, 0, 64, 100
1, 50216, Control_c, 0, 64, 96
1, 50231, Control_c, 0, 64, 92
1, 50246, Control_c, 0, 64, 87
1, 50246, Control_c, 0, 67, 9
1, 50261, Control_c, 0, 64, 81
1, 50261, Control_c, 0, 67, 8
1, 50275, Control_c, 0, 64, 75
1, 50275, Control_c, 0, 67, 8
1, 50290, Control_c, 0, 64, 66
1, 50290, Control_c, 0, 67, 0
1, 50305, Control_c, 0, 64, 0
1, 50683, Control_c, 0, 64, 32
1, 50698, Control_c, 0, 64, 54
1, 50713, Control_c, 0, 64, 62
1, 50727, Control_c, 0, 64, 65
1, 50742, Control_c, 0, 64, 68
1, 50757, Control_c, 0, 64, 70
1, 50772, Control_c, 0, 64, 74
1, 50787, Control_c, 0, 64, 77
1, 50801, Control_c, 0, 64, 80
1, 50816, Control_c, 0, 64, 81
1, 50831, Control_c, 0, 64, 83
1, 50846, Control_c, 0, 64, 84
1, 50861, Control_c, 0, 64, 86
1, 50875, Control_c, 0, 64, 87
1, 50890, Control_c, 0, 64, 88
1, 50905, Control_c, 0, 64, 88
1, 50916, Note_on_c, 0, 52, 42
1, 50919, Note_on_c, 0, 57, 39
1, 50919, Control_c, 0, 64, 89
1, 50929, Note_on_c, 0, 49, 40
1, 50934, Control_c, 0, 64, 90
1, 50949, Control_c, 0, 64, 91
1, 50964, Control_c, 0, 64, 93
1, 50979, Control_c, 0, 64, 94
1, 50984, Note_on_c, 0, 75, 79
1, 50995, Control_c, 0, 64, 95
1, 51010, Control_c, 0, 64, 96
1, 51015, Note_on_c, 0, 64, 44
1, 51024, Control_c, 0, 64, 97
1, 51039, Control_c, 0, 64, 98
1, 51054, Control_c, 0, 64, 99
1, 51069, Control_c, 0, 64, 99
1, 51075, Note_off_c, 0, 64, 0
1, 51075, Note_on_c, 0, 64, 24
1, 51081, Note_off_c, 0, 75, 62
1, 51084, Control_c, 0, 64, 100
1, 51098, Note_off_c, 0, 52, 36
1, 51098, Control_c, 0, 64, 100
1, 51128, Control_c, 0, 64, 101
1, 51192, Note_on_c, 0, 65, 63
1, 51193, Note_off_c, 0, 64, 52
1, 51216, Note_off_c, 0, 49, 38
1, 51230, Note_off_c, 0, 57, 36
1, 51235, Note_off_c, 0, 65, 65
1, 51473, Note_on_c, 0, 50, 40
1, 51476, Note_on_c, 0, 53, 38
1, 51477, Control_c, 0, 64, 100
1, 51478, Note_on_c, 0, 57, 37
1, 51492, Control_c, 0, 64, 100
1, 51506, Control_c, 0, 64, 96
1, 51521, Control_c, 0, 64, 89
1, 51530, Note_on_c, 0, 76, 82
1, 51536, Control_c, 0, 64, 76
1, 51542, Note_on_c, 0, 63, 62
1, 51551, Control_c, 0, 64, 49
1, 51565, Control_c, 0, 64, 0
1, 51670, Control_c, 0, 64, 62
1, 51685, Control_c, 0, 64, 67
1, 51691, Note_off_c, 0, 76, 59
1, 51699, Control_c, 0, 64, 71
1, 51714, Control_c, 0, 64, 75
1, 51729, Control_c, 0, 64, 78
1, 51743, Control_c, 0, 64, 81
1, 51758, Control_c, 0, 64, 83
1, 51773, Control_c, 0, 64, 85
1, 51783, Note_off_c, 0, 50, 40
1, 51788, Control_c, 0, 64, 87
1, 51804, Control_c, 0, 64, 88
1, 51819, Control_c, 0, 64, 89
1, 51834, Control_c, 0, 64, 90
1, 51837, Note_off_c, 0, 57, 26
1, 51848, Control_c, 0, 64, 91
1, 51863, Control_c, 0, 64, 91
1, 51893, Control_c, 0, 64, 92
1, 51922, Control_c, 0, 64, 92
1, 51925, Note_off_c, 0, 53, 37
1, 51981, Control_c, 0, 64, 93
1, 52126, Note_off_c, 0, 63, 35
1, 52179, Note_on_c, 0, 65, 66
1, 52285, Control_c, 0, 64, 92
1, 52300, Control_c, 0, 64, 88
1, 52315, Control_c, 0, 64, 80
1, 52329, Control_c, 0, 64, 68
1, 52344, Control_c, 0, 64, 0
1, 52371, Note_on_c, 0, 62, 68
1, 52382, Note_on_c, 0, 54, 44
1, 52384, Note_on_c, 0, 61, 57
1, 52388, Control_c, 0, 64, 27
1, 52389, Note_on_c, 0, 57, 39
1, 52390, Note_off_c, 0, 65, 64
1, 52394, Note_on_c, 0, 51, 39
1, 52403, Control_c, 0, 64, 64
1, 52418, Control_c, 0, 64, 71
1, 52431, Note_off_c, 0, 62, 62
1, 52433, Control_c, 0, 64, 77
1, 52448, Note_off_c, 0, 51, 56
1, 52448, Control_c, 0, 64, 82
1, 52449, Note_off_c, 0, 54, 61
1, 52449, Note_off_c, 0, 57, 61
1, 52463, Control_c, 0, 64, 85
1, 52478, Control_c, 0, 64, 87
1, 52492, Control_c, 0, 64, 89
1, 52507, Control_c, 0, 64, 93
1, 52522, Control_c, 0, 64, 100
1, 52537, Control_c, 0, 64, 107
1, 52546, Note_off_c, 0, 61, 59
1, 52552, Control_c, 0, 64, 112
1, 52566, Control_c, 0, 64, 114
1, 52597, Control_c, 0, 64, 113
1, 52612, Control_c, 0, 64, 109
1, 52618, Note_on_c, 0, 73, 87
1, 52624, Note_on_c, 0, 68, 72
1, 52627, Control_c, 0, 64, 99
1, 52628, Note_on_c, 0, 72, 69
1, 52636, Note_on_c, 0, 62, 54
1, 52639, Note_on_c, 0, 56, 56
1, 52642, Control_c, 0, 64, 85
1, 52650, Note_on_c, 0, 52, 53
1, 52653, Note_on_c, 0, 61, 52
1, 52656, Control_c, 0, 64, 69
1, 52671, Note_off_c, 0, 62, 47
1, 52671, Control_c, 0, 64, 0
1, 52712, Note_off_c, 0, 61, 0
1, 52712, Note_on_c, 0, 61, 7
1, 52731, Control_c, 0, 64, 64
1, 52745, Control_c, 0, 64, 70
1, 52752, Note_off_c, 0, 52, 51
1, 52755, Note_off_c, 0, 73, 56
1, 52760, Control_c, 0, 64, 77
1, 52766, Note_off_c, 0, 56, 0
1, 52771, Note_off_c, 0, 61, 49
1, 52775, Control_c, 0, 64, 82
1, 52785, Note_off_c, 0, 72, 57
1, 52789, Control_c, 0, 64, 84
1, 52803, Poly_aftertouch_c, 0, 56, 0
1, 52804, Control_c, 0, 64, 85
1, 52817, Note_off_c, 0, 68, 59
1, 52819, Control_c, 0, 64, 86
1, 52834, Control_c, 0, 64, 87
1, 52849, Control_c, 0, 64, 87
1, 52871, Control_c, 0, 64, 88
1, 52886, Control_c, 0, 64, 88
1, 53256, Control_c, 0, 64, 88
1, 53270, Control_c, 0, 64, 87
1, 53285, Control_c, 0, 64, 85
1, 53300, Control_c, 0, 64, 82
1, 53315, Control_c, 0, 64, 77
1, 53330, Control_c, 0, 64, 67
1, 53345, Control_c, 0, 64, 0
1, 53420, Note_on_c, 0, 79, 73
1, 53427, Note_on_c, 0, 66, 62
1, 53428, Note_on_c, 0, 56, 42
1, 53437, Note_on_c, 0, 60, 34
1, 53446, Note_on_c, 0, 53, 26
1, 53464, Control_c, 0, 64, 52
1, 53479, Control_c, 0, 64, 64
1, 53494, Control_c, 0, 64, 67
1, 53503, Note_off_c, 0, 79, 59
1, 53509, Control_c, 0, 64, 70
1, 53524, Control_c, 0, 64, 74
1, 53538, Control_c, 0, 64, 78
1, 53551, Note_off_c, 0, 60, 34
1, 53553, Control_c, 0, 64, 80
1, 53557, Note_off_c, 0, 66, 63
1, 53567, Control_c, 0, 64, 82
1, 53582, Control_c, 0, 64, 83
1, 53583, Note_off_c, 0, 53, 43
1, 53597, Control_c, 0, 64, 84
1, 53619, Control_c, 0, 64, 85
1, 53622, Note_off_c, 0, 56, 40
1, 53634, Control_c, 0, 64, 87
1, 53649, Control_c, 0, 64, 88
1, 53651, Note_on_c, 0, 65, 84
1, 53660, Note_on_c, 0, 64, 75
1, 53664, Control_c, 0, 64, 90
1, 53667, Note_on_c, 0, 60, 66
1, 53674, Note_on_c, 0, 54, 58
1, 53674, Note_on_c, 0, 57, 50
1, 53679, Control_c, 0, 64, 91
1, 53693, Control_c, 0, 64, 92
1, 53703, Note_off_c, 0, 57, 63
1, 53708, Note_off_c, 0, 64, 60
1, 53708, Control_c, 0, 64, 93
1, 53711, Note_off_c, 0, 65, 64
1, 53722, Note_off_c, 0, 54, 61
1, 53723, Control_c, 0, 64, 94
1, 53738, Control_c, 0, 64, 94
1, 53743, Note_off_c, 0, 60, 61
1, 53767, Control_c, 0, 64, 95
1, 53782, Control_c, 0, 64, 96
1, 53797, Control_c, 0, 64, 96
1, 53812, Control_c, 0, 64, 98
1, 53826, Control_c, 0, 64, 99
1, 53828, Note_on_c, 0, 76, 84
1, 53831, Note_on_c, 0, 65, 83
1, 53835, Note_on_c, 0, 71, 74
1, 53837, Note_on_c, 0, 75, 78
1, 53840, Note_on_c, 0, 55, 67
1, 53841, Control_c, 0, 64, 102
1, 53842, Note_on_c, 0, 64, 68
1, 53843, Note_on_c, 0, 59, 60
1, 53856, Control_c, 0, 64, 106
1, 53871, Control_c, 0, 64, 111
1, 53886, Control_c, 0, 64, 117
1, 53891, Note_off_c, 0, 55, 58
1, 53895, Note_off_c, 0, 64, 59
1, 53900, Control_c, 0, 64, 126
1, 53915, Control_c, 0, 64, 127
1, 53930, Note_off_c, 0, 59, 57
1, 53931, Note_off_c, 0, 71, 58
1, 53938, Note_off_c, 0, 76, 62
1, 53941, Note_off_c, 0, 65, 60
1, 53950, Note_off_c, 0, 75, 63
1, 54019, Control_c, 0, 64, 101
1, 54028, Note_on_c, 0, 68, 93
1, 54029, Note_on_c, 0, 63, 89
1, 54034, Note_on_c, 0, 67, 80
1, 54034, Control_c, 0, 64, 80
1, 54036, Note_on_c, 0, 57, 72
1, 54047, Note_on_c, 0, 60, 35
1, 54049, Control_c, 0, 64, 0
1, 54060, Note_off_c, 0, 67, 63
1, 54074, Note_off_c, 0, 60, 43
1, 54093, Note_off_c, 0, 57, 61
1, 54093, Control_c, 0, 64, 58
1, 54096, Note_off_c, 0, 68, 65
1, 54108, Control_c, 0, 64, 71
1, 54123, Control_c, 0, 64, 80
1, 54135, Note_off_c, 0, 63, 63
1, 54138, Control_c, 0, 64, 87
1, 54152, Control_c, 0, 64, 90
1, 54167, Control_c, 0, 64, 92
1, 54182, Control_c, 0, 64, 96
1, 54198, Control_c, 0, 64, 102
1, 54212, Control_c, 0, 64, 111
1, 54227, Control_c, 0, 64, 120
1, 54242, Control_c, 0, 64, 127
1, 54276, Note_on_c, 0, 74, 50
1, 54280, Note_on_c, 0, 79, 94
1, 54281, Note_on_c, 0, 68, 95
1, 54283, Note_on_c, 0, 62, 74
1, 54285, Note_on_c, 0, 67, 89
1, 54289, Note_on_c, 0, 78, 88
1, 54292, Note_on_c, 0, 58, 81
1, 54326, Note_off_c, 0, 68, 63
1, 54335, Note_off_c, 0, 67, 60
1, 54380, Note_off_c, 0, 74, 64
1, 54382, Note_off_c, 0, 79, 57
1, 54389, Note_off_c, 0, 62, 58
1, 54426, Note_off_c, 0, 58, 61
1, 54436, Note_off_c, 0, 78, 62
1, 54669, Note_on_c, 0, 58, 100
1, 54710, Control_c, 0, 64, 119
1, 54714, Note_on_c, 0, 102, 87
1, 54722, Note_on_c, 0, 56, 26
1, 54724, Control_c, 0, 64, 96
1, 54739, Control_c, 0, 64, 84
1, 54754, Control_c, 0, 64, 78
1, 54768, Control_c, 0, 64, 77
1, 54772, Note_off_c, 0, 56, 43
1, 54783, Control_c, 0, 64, 79
1, 54798, Control_c, 0, 64, 87
1, 54813, Control_c, 0, 64, 99
1, 54828, Control_c, 0, 64, 108
1, 54842, Control_c, 0, 64, 114
1, 54854, Note_on_c, 0, 99, 81
1, 54857, Control_c, 0, 64, 117
1, 54872, Control_c, 0, 64, 119
1, 54886, Control_c, 0, 64, 122
1, 54893, Note_off_c, 0, 102, 58
1, 54901, Control_c, 0, 64, 125
1, 54916, Control_c, 0, 64, 127
1, 54949, Note_on_c, 0, 94, 80
1, 54958, Note_off_c, 0, 99, 64
1, 54961, Note_off_c, 0, 58, 45
1, 55012, Note_off_c, 0, 94, 64
1, 55020, Note_on_c, 0, 89, 77
1, 55062, Note_off_c, 0, 89, 64
1, 55080, Control_c, 0, 64, 107
1, 55095, Note_on_c, 0, 60, 104
1, 55095, Control_c, 0, 64, 76
1, 55104, Note_on_c, 0, 97, 90
1, 55110, Control_c, 0, 64, 0
1, 55177, Control_c, 0, 64, 53
1, 55192, Control_c, 0, 64, 71
1, 55206, Control_c, 0, 64, 83
1, 55216, Note_on_c, 0, 92, 75
1, 55217, Note_off_c, 0, 97, 61
1, 55221, Control_c, 0, 64, 93
1, 55236, Control_c, 0, 64, 97
1, 55247, Note_off_c, 0, 60, 61
1, 55251, Control_c, 0, 64, 100
1, 55265, Control_c, 0, 64, 103
1, 55280, Control_c, 0, 64, 107
1, 55281, Note_on_c, 0, 87, 74
1, 55286, Note_off_c, 0, 92, 65
1, 55295, Control_c, 0, 64, 112
1, 55310, Control_c, 0, 64, 115
1, 55324, Control_c, 0, 64, 119
1, 55325, Note_on_c, 0, 84, 66
1, 55327, Note_off_c, 0, 87, 63
1, 55339, Control_c, 0, 64, 124
1, 55354, Control_c, 0, 64, 127
1, 55364, Note_off_c, 0, 84, 64
1, 55380, Note_on_c, 0, 90, 82
1, 55401, Note_off_c, 0, 90, 69
1, 55458, Control_c, 0, 64, 101
1, 55473, Control_c, 0, 64, 74
1, 55476, Note_on_c, 0, 63, 109
1, 55488, Control_c, 0, 64, 0
1, 55506, Note_on_c, 0, 79, 80
1, 55511, Note_on_c, 0, 78, 72
1, 55532, Control_c, 0, 64, 20
1, 55535, Note_off_c, 0, 79, 60
1, 55547, Control_c, 0, 64, 70
1, 55548, Note_off_c, 0, 78, 55
1, 55562, Control_c, 0, 64, 82
1, 55577, Control_c, 0, 64, 95
1, 55587, Note_off_c, 0, 63, 57
1, 55590, Note_on_c, 0, 77, 65
1, 55591, Control_c, 0, 64, 99
1, 55606, Control_c, 0, 64, 100
1, 55621, Control_c, 0, 64, 101
1, 55625, Note_off_c, 0, 77, 59
1, 55636, Control_c, 0, 64, 103
1, 55651, Control_c, 0, 64, 104
1, 55656, Note_on_c, 0, 78, 62
1, 55665, Control_c, 0, 64, 105
1, 55680, Control_c, 0, 64, 106
1, 55695, Control_c, 0, 64, 106
1, 55702, Note_off_c, 0, 78, 60
1, 55724, Note_on_c, 0, 77, 64
1, 55724, Control_c, 0, 64, 107
1, 55754, Note_off_c, 0, 77, 58
1, 55769, Control_c, 0, 64, 107
1, 55800, Note_on_c, 0, 78, 62
1, 55814, Control_c, 0, 64, 108
1, 55829, Control_c, 0, 64, 108
1, 55841, Note_off_c, 0, 78, 50
1, 55867, Control_c, 0, 64, 109
1, 55875, Note_on_c, 0, 77, 64
1, 55896, Control_c, 0, 64, 109
1, 55897, Note_on_c, 0, 65, 113
1, 55911, Control_c, 0, 64, 110
1, 55926, Control_c, 0, 64, 110
1, 55932, Note_off_c, 0, 77, 62
1, 55935, Note_on_c, 0, 78, 75
1, 55940, Note_on_c, 0, 79, 59
1, 55941, Control_c, 0, 64, 111
1, 55945, Note_off_c, 0, 65, 62
1, 55955, Control_c, 0, 64, 111
1, 55970, Control_c, 0, 64, 112
1, 55981, Note_off_c, 0, 79, 54
1, 55985, Control_c, 0, 64, 112
1, 55992, Note_off_c, 0, 78, 60
1, 56000, Control_c, 0, 64, 113
1, 56005, Note_on_c, 0, 77, 64
1, 56014, Control_c, 0, 64, 113
1, 56029, Control_c, 0, 64, 114
1, 56065, Note_off_c, 0, 77, 61
1, 56088, Note_on_c, 0, 78, 55
1, 56103, Control_c, 0, 64, 114
1, 56106, Note_on_c, 0, 79, 35
1, 56136, Note_off_c, 0, 78, 56
1, 56138, Note_off_c, 0, 79, 44
1, 56147, Note_on_c, 0, 77, 61
1, 56147, Control_c, 0, 64, 115
1, 56192, Note_off_c, 0, 77, 57
1, 56222, Control_c, 0, 64, 115
1, 56229, Note_on_c, 0, 79, 42
1, 56238, Note_on_c, 0, 78, 61
1, 56254, Note_off_c, 0, 79, 55
1, 56266, Note_off_c, 0, 78, 62
1, 56266, Control_c, 0, 64, 116
1, 56287, Note_on_c, 0, 77, 66
1, 56296, Control_c, 0, 64, 116
1, 56300, Note_on_c, 0, 67, 116
1, 56340, Control_c, 0, 64, 117
1, 56342, Note_off_c, 0, 77, 60
1, 56347, Note_on_c, 0, 79, 55
1, 56351, Note_on_c, 0, 78, 70
1, 56353, Note_off_c, 0, 67, 57
1, 56392, Note_off_c, 0, 79, 57
1, 56412, Note_off_c, 0, 78, 62
1, 56420, Note_on_c, 0, 77, 55
1, 56474, Note_off_c, 0, 77, 53
1, 56501, Note_on_c, 0, 78, 63
1, 56502, Note_on_c, 0, 68, 116
1, 56502, Note_on_c, 0, 79, 62
1, 56531, Note_off_c, 0, 79, 67
1, 56537, Note_off_c, 0, 78, 63
1, 56560, Note_on_c, 0, 77, 65
1, 56594, Note_off_c, 0, 77, 59
1, 56637, Note_on_c, 0, 79, 63
1, 56642, Note_on_c, 0, 78, 58
1, 56657, Note_off_c, 0, 79, 65
1, 56661, Note_off_c, 0, 78, 66
1, 56690, Note_off_c, 0, 68, 60
1, 56701, Note_on_c, 0, 77, 67
1, 56704, Control_c, 0, 64, 117
1, 56725, Note_off_c, 0, 77, 63
1, 56749, Control_c, 0, 64, 117
1, 56756, Note_on_c, 0, 78, 59
1, 56757, Note_on_c, 0, 79, 55
1, 56763, Control_c, 0, 64, 108
1, 56776, Note_off_c, 0, 79, 63
1, 56778, Control_c, 0, 64, 86
1, 56785, Note_off_c, 0, 78, 64
1, 56793, Control_c, 0, 64, 0
1, 56800, Note_on_c, 0, 70, 119
1, 56807, Note_on_c, 0, 77, 73
1, 56851, Note_off_c, 0, 77, 58
1, 56862, Note_on_c, 0, 79, 60
1, 56867, Control_c, 0, 64, 70
1, 56871, Note_on_c, 0, 78, 60
1, 56882, Control_c, 0, 64, 83
1, 56885, Note_off_c, 0, 79, 64
1, 56897, Note_off_c, 0, 78, 64
1, 56897, Control_c, 0, 64, 98
1, 56911, Control_c, 0, 64, 105
1, 56921, Note_on_c, 0, 77, 65
1, 56926, Control_c, 0, 64, 105
1, 56956, Control_c, 0, 64, 106
1, 56971, Note_off_c, 0, 77, 61
1, 56976, Note_on_c, 0, 79, 59
1, 56984, Note_on_c, 0, 78, 62
1, 57000, Control_c, 0, 64, 106
1, 57007, Note_off_c, 0, 79, 65
1, 57014, Note_off_c, 0, 78, 65
1, 57015, Control_c, 0, 64, 107
1, 57030, Note_on_c, 0, 77, 64
1, 57030, Control_c, 0, 64, 107
1, 57044, Control_c, 0, 64, 108
1, 57059, Control_c, 0, 64, 109
1, 57074, Control_c, 0, 64, 109
1, 57077, Note_off_c, 0, 77, 59
1, 57087, Note_on_c, 0, 79, 63
1, 57089, Control_c, 0, 64, 111
1, 57097, Note_on_c, 0, 78, 60
1, 57104, Control_c, 0, 64, 112
1, 57105, Note_off_c, 0, 79, 62
1, 57119, Control_c, 0, 64, 114
1, 57120, Note_off_c, 0, 78, 64
1, 57134, Control_c, 0, 64, 115
1, 57137, Note_on_c, 0, 77, 70
1, 57149, Control_c, 0, 64, 116
1, 57163, Control_c, 0, 64, 117
1, 57177, Note_off_c, 0, 77, 60
1, 57178, Control_c, 0, 64, 118
1, 57193, Control_c, 0, 64, 119
1, 57193, Note_on_c, 0, 78, 79
1, 57207, Note_off_c, 0, 70, 52
1, 57208, Control_c, 0, 64, 120
1, 57223, Control_c, 0, 64, 121
1, 57231, Note_off_c, 0, 78, 61
1, 57237, Control_c, 0, 64, 121
1, 57252, Note_on_c, 0, 77, 63
1, 57252, Control_c, 0, 64, 122
1, 57267, Control_c, 0, 64, 123
1, 57274, Note_off_c, 0, 77, 56
1, 57281, Note_on_c, 0, 78, 74
1, 57281, Control_c, 0, 64, 123
1, 57296, Control_c, 0, 64, 125
1, 57310, Control_c, 0, 64, 126
1, 57316, Note_off_c, 0, 78, 62
1, 57325, Note_on_c, 0, 77, 93
1, 57325, Control_c, 0, 64, 127
1, 57366, Note_off_c, 0, 77, 66
1, 57484, Note_on_c, 0, 84, 79
1, 57518, Note_off_c, 0, 84, 63
1, 57554, Note_on_c, 0, 97, 88
1, 57558, Note_on_c, 0, 90, 90
1, 57583, Note_off_c, 0, 97, 64
1, 57599, Note_off_c, 0, 90, 65
1, 57625, Note_on_c, 0, 91, 87
1, 57625, Note_on_c, 0, 96, 90
1, 57641, Note_off_c, 0, 91, 70
1, 57657, Note_on_c, 0, 94, 42
1, 57658, Note_off_c, 0, 94, 127
1, 57660, Note_off_c, 0, 96, 64
1, 57678, Note_on_c, 0, 87, 78
1, 57721, Note_on_c, 0, 80, 82
1, 57730, Note_off_c, 0, 87, 64
1, 57755, Note_on_c, 0, 74, 85
1, 57776, Note_off_c, 0, 80, 65
1, 57805, Note_on_c, 0, 105, 116
1, 57808, Note_on_c, 0, 100, 111
1, 57808, Note_off_c, 0, 74, 67
1, 57821, Note_off_c, 0, 100, 76
1, 57831, Note_off_c, 0, 105, 63
1, 58380, Control_c, 0, 67, 8
1, 58395, Control_c, 0, 67, 11
1, 58409, Control_c, 0, 67, 17
1, 58424, Control_c, 0, 67, 26
1, 58439, Control_c, 0, 67, 39
1, 58454, Control_c, 0, 67, 51
1, 58469, Control_c, 0, 67, 60
1, 58483, Control_c, 0, 67, 68
1, 58498, Control_c, 0, 67, 73
1, 58513, Control_c, 0, 67, 80
1, 58528, Control_c, 0, 67, 87
1, 58542, Control_c, 0, 67, 94
1, 58557, Control_c, 0, 67, 99
1, 58572, Control_c, 0, 67, 102
1, 58587, Control_c, 0, 67, 105
1, 58602, Control_c, 0, 67, 107
1, 58616, Control_c, 0, 67, 110
1, 58631, Control_c, 0, 67, 115
1, 58646, Control_c, 0, 64, 124
1, 58646, Control_c, 0, 67, 120
1, 58661, Control_c, 0, 64, 120
1, 58661, Control_c, 0, 67, 126
1, 58676, Control_c, 0, 64, 117
1, 58676, Control_c, 0, 67, 127
1, 58690, Control_c, 0, 64, 113
1, 58705, Control_c, 0, 64, 109
1, 58720, Control_c, 0, 64, 104
1, 58734, Control_c, 0, 64, 98
1, 58749, Control_c, 0, 64, 93
1, 58764, Control_c, 0, 64, 87
1, 58779, Control_c, 0, 64, 82
1, 58794, Control_c, 0, 64, 75
1, 58809, Control_c, 0, 64, 67
1, 58824, Control_c, 0, 64, 41
1, 58839, Control_c, 0, 64, 0
1, 58935, Control_c, 0, 64, 47
1, 58938, Note_on_c, 0, 94, 53
1, 58949, Control_c, 0, 64, 63
1, 58964, Control_c, 0, 64, 66
1, 58971, Note_on_c, 0, 34, 18
1, 58979, Control_c, 0, 64, 70
1, 58995, Control_c, 0, 64, 74
1, 59010, Control_c, 0, 64, 79
1, 59025, Control_c, 0, 64, 82
1, 59039, Control_c, 0, 64, 85
1, 59054, Control_c, 0, 64, 87
1, 59069, Control_c, 0, 64, 88
1, 59084, Control_c, 0, 64, 90
1, 59089, Note_off_c, 0, 94, 59
1, 59099, Control_c, 0, 64, 91
1, 59113, Control_c, 0, 64, 93
1, 59122, Note_on_c, 0, 93, 52
1, 59128, Control_c, 0, 64, 94
1, 59143, Note_off_c, 0, 34, 34
1, 59143, Control_c, 0, 64, 95
1, 59144, Note_on_c, 0, 37, 25
1, 59158, Control_c, 0, 64, 96
1, 59173, Control_c, 0, 64, 97
1, 59185, Note_off_c, 0, 93, 57
1, 59188, Control_c, 0, 64, 98
1, 59188, Note_off_c, 0, 37, 49
1, 59202, Control_c, 0, 64, 100
1, 59215, Note_on_c, 0, 42, 41
1, 59217, Control_c, 0, 64, 101
1, 59223, Note_on_c, 0, 87, 59
1, 59232, Control_c, 0, 64, 102
1, 59247, Control_c, 0, 64, 103
1, 59251, Note_off_c, 0, 42, 61
1, 59262, Control_c, 0, 64, 104
1, 59262, Note_off_c, 0, 87, 55
1, 59277, Control_c, 0, 64, 105
1, 59292, Control_c, 0, 64, 106
1, 59298, Note_on_c, 0, 44, 51
1, 59306, Control_c, 0, 64, 107
1, 59321, Control_c, 0, 64, 108
1, 59326, Note_off_c, 0, 44, 62
1, 59328, Note_on_c, 0, 88, 39
1, 59328, Note_on_c, 0, 89, 34
1, 59336, Control_c, 0, 64, 109
1, 59351, Control_c, 0, 64, 109
1, 59355, Note_off_c, 0, 88, 45
1, 59357, Note_off_c, 0, 89, 44
1, 59363, Note_on_c, 0, 83, 64
1, 59380, Control_c, 0, 64, 110
1, 59384, Note_off_c, 0, 83, 63
1, 59396, Note_on_c, 0, 41, 52
1, 59423, Note_on_c, 0, 81, 76
1, 59425, Control_c, 0, 64, 110
1, 59432, Note_off_c, 0, 41, 64
1, 59445, Note_on_c, 0, 43, 28
1, 59446, Note_on_c, 0, 44, 53
1, 59462, Note_off_c, 0, 81, 47
1, 59469, Control_c, 0, 67, 123
1, 59479, Note_off_c, 0, 44, 64
1, 59483, Control_c, 0, 64, 111
1, 59483, Control_c, 0, 67, 118
1, 59488, Note_off_c, 0, 43, 51
1, 59492, Note_on_c, 0, 80, 77
1, 59498, Control_c, 0, 67, 112
1, 59513, Control_c, 0, 64, 113
1, 59513, Control_c, 0, 67, 107
1, 59521, Note_off_c, 0, 80, 63
1, 59528, Control_c, 0, 64, 117
1, 59528, Control_c, 0, 67, 104
1, 59543, Control_c, 0, 64, 122
1, 59543, Control_c, 0, 67, 100
1, 59547, Note_on_c, 0, 49, 15
1, 59556, Note_on_c, 0, 84, 82
1, 59557, Control_c, 0, 64, 123
1, 59557, Control_c, 0, 67, 98
1, 59572, Control_c, 0, 64, 124
1, 59572, Control_c, 0, 67, 95
1, 59587, Note_off_c, 0, 49, 39
1, 59587, Control_c, 0, 67, 93
1, 59602, Control_c, 0, 64, 123
1, 59602, Control_c, 0, 67, 89
1, 59605, Note_on_c, 0, 44, 60
1, 59623, Note_off_c, 0, 84, 59
1, 59625, Note_on_c, 0, 78, 90
1, 59625, Control_c, 0, 64, 117
1, 59625, Control_c, 0, 67, 84
1, 59639, Control_c, 0, 64, 105
1, 59639, Control_c, 0, 67, 77
1, 59654, Control_c, 0, 64, 93
1, 59654, Control_c, 0, 67, 69
1, 59669, Control_c, 0, 64, 83
1, 59669, Control_c, 0, 67, 61
1, 59683, Control_c, 0, 64, 79
1, 59683, Control_c, 0, 67, 55
1, 59685, Note_off_c, 0, 44, 61
1, 59693, Note_on_c, 0, 47, 60
1, 59698, Control_c, 0, 67, 49
1, 59699, Note_on_c, 0, 75, 81
1, 59701, Note_off_c, 0, 78, 63
1, 59713, Control_c, 0, 64, 79
1, 59713, Control_c, 0, 67, 41
1, 59727, Note_off_c, 0, 75, 67
1, 59728, Control_c, 0, 64, 83
1, 59728, Control_c, 0, 67, 33
1, 59740, Note_off_c, 0, 47, 64
1, 59743, Control_c, 0, 64, 87
1, 59743, Control_c, 0, 67, 25
1, 59754, Note_on_c, 0, 50, 68
1, 59758, Control_c, 0, 64, 91
1, 59758, Control_c, 0, 67, 19
1, 59765, Note_on_c, 0, 79, 88
1, 59772, Control_c, 0, 64, 93
1, 59772, Control_c, 0, 67, 14
1, 59788, Control_c, 0, 64, 94
1, 59788, Control_c, 0, 67, 11
1, 59789, Note_off_c, 0, 50, 65
1, 59803, Control_c, 0, 64, 95
1, 59803, Control_c, 0, 67, 0
1, 59818, Control_c, 0, 64, 95
1, 59827, Note_on_c, 0, 52, 74
1, 59831, Note_on_c, 0, 74, 83
1, 59833, Control_c, 0, 64, 96
1, 59845, Note_off_c, 0, 79, 62
1, 59848, Control_c, 0, 64, 97
1, 59862, Control_c, 0, 64, 98
1, 59867, Note_off_c, 0, 52, 63
1, 59877, Control_c, 0, 64, 98
1, 59881, Note_off_c, 0, 74, 66
1, 59892, Control_c, 0, 64, 99
1, 59894, Note_on_c, 0, 71, 71
1, 59907, Control_c, 0, 64, 99
1, 59913, Note_on_c, 0, 48, 72
1, 59918, Note_off_c, 0, 71, 68
1, 59922, Control_c, 0, 64, 100
1, 59951, Control_c, 0, 64, 100
1, 59961, Note_on_c, 0, 69, 86
1, 59969, Note_on_c, 0, 54, 74
1, 59990, Note_off_c, 0, 48, 62
1, 60010, Control_c, 0, 64, 99
1, 60018, Note_off_c, 0, 69, 64
1, 60019, Note_on_c, 0, 56, 72
1, 60025, Note_on_c, 0, 65, 84
1, 60025, Note_off_c, 0, 54, 62
1, 60025, Control_c, 0, 64, 92
1, 60040, Control_c, 0, 64, 75
1, 60055, Control_c, 0, 64, 0
1, 60055, Note_off_c, 0, 56, 63
1, 60055, Poly_aftertouch_c, 0, 67, 0
1, 60073, Note_on_c, 0, 63, 94
1, 60076, Note_off_c, 0, 65, 67
1, 60085, Note_on_c, 0, 57, 37
1, 60113, Note_off_c, 0, 63, 65
1, 60114, Note_off_c, 0, 57, 34
1, 60114, Control_c, 0, 64, 68
1, 60129, Control_c, 0, 64, 85
1, 60144, Control_c, 0, 64, 101
1, 60144, Note_on_c, 0, 58, 112
1, 60159, Control_c, 0, 64, 111
1, 60173, Note_on_c, 0, 68, 55
1, 60174, Control_c, 0, 64, 113
1, 60179, Note_off_c, 0, 58, 67
1, 60188, Control_c, 0, 64, 113
1, 60195, Note_off_c, 0, 68, 62
1, 60248, Control_c, 0, 64, 114
1, 60262, Control_c, 0, 64, 117
1, 60265, Poly_aftertouch_c, 0, 57, 0
1, 60277, Control_c, 0, 64, 122
1, 60292, Control_c, 0, 64, 127
1, 60306, Control_c, 0, 64, 127
1, 60321, Control_c, 0, 64, 127
1, 60359, Control_c, 0, 64, 126
1, 60374, Control_c, 0, 64, 125
1, 60388, Control_c, 0, 64, 123
1, 60403, Control_c, 0, 64, 121
1, 60418, Control_c, 0, 64, 118
1, 60433, Control_c, 0, 64, 114
1, 60448, Control_c, 0, 64, 109
1, 60462, Control_c, 0, 64, 102
1, 60477, Control_c, 0, 64, 94
1, 60492, Control_c, 0, 64, 83
1, 60506, Control_c, 0, 64, 71
1, 60521, Control_c, 0, 64, 20
1, 60536, Control_c, 0, 64, 0
1, 60601, Note_on_c, 0, 81, 89
1, 60609, Note_on_c, 0, 55, 55
1, 60609, Note_on_c, 0, 58, 47
1, 60612, Note_on_c, 0, 63, 59
1, 60612, Note_on_c, 0, 70, 72
1, 60656, Control_c, 0, 64, 56
1, 60671, Control_c, 0, 64, 68
1, 60685, Control_c, 0, 64, 75
1, 60694, Note_off_c, 0, 81, 60
1, 60700, Control_c, 0, 64, 82
1, 60714, Note_off_c, 0, 70, 53
1, 60715, Control_c, 0, 64, 88
1, 60730, Control_c, 0, 64, 91
1, 60744, Control_c, 0, 64, 93
1, 60759, Control_c, 0, 64, 94
1, 60774, Control_c, 0, 64, 94
1, 60788, Note_off_c, 0, 55, 55
1, 60797, Note_on_c, 0, 71, 77
1, 60804, Control_c, 0, 64, 95
1, 60818, Control_c, 0, 64, 95
1, 60841, Note_off_c, 0, 71, 61
1, 60848, Control_c, 0, 64, 96
1, 60882, Note_off_c, 0, 58, 36
1, 60894, Note_off_c, 0, 63, 32
1, 60982, Control_c, 0, 64, 96
1, 61057, Control_c, 0, 64, 96
1, 61072, Control_c, 0, 64, 93
1, 61074, Note_on_c, 0, 82, 90
1, 61081, Note_on_c, 0, 69, 77
1, 61086, Control_c, 0, 64, 84
1, 61095, Note_on_c, 0, 63, 58
1, 61107, Note_on_c, 0, 56, 56
1, 61107, Note_on_c, 0, 59, 51
1, 61108, Control_c, 0, 64, 67
1, 61123, Control_c, 0, 64, 0
1, 61226, Note_off_c, 0, 82, 57
1, 61227, Control_c, 0, 64, 63
1, 61241, Control_c, 0, 64, 69
1, 61256, Control_c, 0, 64, 73
1, 61271, Control_c, 0, 64, 77
1, 61286, Control_c, 0, 64, 80
1, 61301, Control_c, 0, 64, 82
1, 61314, Note_off_c, 0, 59, 34
1, 61316, Control_c, 0, 64, 84
1, 61330, Control_c, 0, 64, 85
1, 61343, Note_off_c, 0, 63, 34
1, 61345, Control_c, 0, 64, 87
1, 61360, Control_c, 0, 64, 88
1, 61375, Control_c, 0, 64, 89
1, 61390, Control_c, 0, 64, 90
1, 61405, Control_c, 0, 64, 91
1, 61420, Control_c, 0, 64, 91
1, 61435, Control_c, 0, 64, 92
1, 61436, Note_off_c, 0, 56, 25
1, 61450, Control_c, 0, 64, 92
1, 61480, Control_c, 0, 64, 93
1, 61509, Control_c, 0, 64, 93
1, 61568, Control_c, 0, 64, 94
1, 61594, Note_off_c, 0, 69, 41
1, 61598, Control_c, 0, 64, 94
1, 61613, Control_c, 0, 64, 95
1, 61627, Control_c, 0, 64, 95
1, 61657, Control_c, 0, 64, 96
1, 61669, Note_on_c, 0, 71, 67
1, 61731, Control_c, 0, 64, 95
1, 61746, Control_c, 0, 64, 92
1, 61760, Control_c, 0, 64, 83
1, 61775, Control_c, 0, 64, 68
1, 61790, Control_c, 0, 64, 0
1, 61849, Control_c, 0, 64, 34
1, 61866, Note_on_c, 0, 68, 76
1, 61871, Control_c, 0, 64, 64
1, 61876, Note_on_c, 0, 67, 66
1, 61882, Note_on_c, 0, 60, 39
1, 61885, Note_on_c, 0, 57, 50
1, 61885, Control_c, 0, 64, 69
1, 61890, Note_off_c, 0, 71, 61
1, 61893, Note_on_c, 0, 63, 43
1, 61900, Control_c, 0, 64, 75
1, 61904, Note_off_c, 0, 67, 66
1, 61912, Note_off_c, 0, 60, 59
1, 61915, Control_c, 0, 64, 82
1, 61926, Note_off_c, 0, 57, 63
1, 61928, Note_off_c, 0, 68, 64
1, 61930, Control_c, 0, 64, 87
1, 61945, Control_c, 0, 64, 90
1, 61954, Note_off_c, 0, 63, 63
1, 61960, Control_c, 0, 64, 91
1, 61975, Control_c, 0, 64, 94
1, 61990, Control_c, 0, 64, 98
1, 62005, Control_c, 0, 64, 104
1, 62019, Control_c, 0, 64, 113
1, 62034, Control_c, 0, 64, 127
1, 62106, Note_on_c, 0, 79, 85
1, 62108, Control_c, 0, 64, 117
1, 62111, Note_on_c, 0, 74, 69
1, 62112, Note_on_c, 0, 78, 79
1, 62120, Note_on_c, 0, 62, 60
1, 62121, Note_on_c, 0, 68, 70
1, 62123, Control_c, 0, 64, 87
1, 62124, Note_on_c, 0, 58, 60
1, 62131, Note_on_c, 0, 67, 57
1, 62138, Control_c, 0, 64, 39
1, 62152, Control_c, 0, 64, 0
1, 62196, Note_off_c, 0, 79, 58
1, 62212, Note_off_c, 0, 68, 58
1, 62213, Control_c, 0, 64, 60
1, 62228, Control_c, 0, 64, 66
1, 62243, Control_c, 0, 64, 73
1, 62257, Control_c, 0, 64, 81
1, 62267, Note_off_c, 0, 67, 42
1, 62272, Control_c, 0, 64, 89
1, 62273, Note_off_c, 0, 74, 60
1, 62282, Note_off_c, 0, 78, 54
1, 62285, Note_off_c, 0, 58, 42
1, 62287, Control_c, 0, 64, 94
1, 62301, Control_c, 0, 64, 97
1, 62316, Control_c, 0, 64, 97
1, 62344, Note_off_c, 0, 62, 36
1, 62768, Control_c, 0, 64, 93
1, 62782, Control_c, 0, 64, 83
1, 62797, Control_c, 0, 64, 67
1, 62812, Control_c, 0, 64, 0
1, 62823, Note_on_c, 0, 61, 44
1, 62824, Note_on_c, 0, 74, 67
1, 62833, Note_on_c, 0, 58, 42
1, 62834, Note_on_c, 0, 73, 68
1, 62838, Note_on_c, 0, 66, 49
1, 62871, Control_c, 0, 64, 64
1, 62873, Note_off_c, 0, 74, 64
1, 62886, Control_c, 0, 64, 70
1, 62901, Control_c, 0, 64, 75
1, 62915, Control_c, 0, 64, 80
1, 62930, Control_c, 0, 64, 82
1, 62945, Control_c, 0, 64, 83
1, 62960, Control_c, 0, 64, 85
1, 62976, Note_off_c, 0, 66, 40
1, 62976, Control_c, 0, 64, 86
1, 62988, Note_off_c, 0, 73, 59
1, 62991, Control_c, 0, 64, 88
1, 63005, Control_c, 0, 64, 89
1, 63011, Note_off_c, 0, 58, 36
1, 63020, Control_c, 0, 64, 91
1, 63035, Control_c, 0, 64, 92
1, 63050, Control_c, 0, 64, 93
1, 63065, Control_c, 0, 64, 93
1, 63078, Note_off_c, 0, 61, 30
1, 63079, Control_c, 0, 64, 94
1, 63083, Note_on_c, 0, 85, 86
1, 63092, Note_on_c, 0, 72, 78
1, 63094, Control_c, 0, 64, 96
1, 63096, Note_on_c, 0, 66, 57
1, 63097, Note_on_c, 0, 62, 55
1, 63107, Note_on_c, 0, 59, 45
1, 63109, Control_c, 0, 64, 98
1, 63123, Control_c, 0, 64, 99
1, 63138, Control_c, 0, 64, 101
1, 63144, Note_off_c, 0, 85, 63
1, 63148, Note_off_c, 0, 62, 59
1, 63152, Note_off_c, 0, 72, 64
1, 63153, Control_c, 0, 64, 103
1, 63168, Note_off_c, 0, 59, 57
1, 63168, Control_c, 0, 64, 104
1, 63181, Note_off_c, 0, 66, 64
1, 63183, Control_c, 0, 64, 106
1, 63197, Control_c, 0, 64, 107
1, 63212, Control_c, 0, 64, 109
1, 63227, Control_c, 0, 64, 112
1, 63242, Control_c, 0, 64, 116
1, 63257, Control_c, 0, 64, 121
1, 63262, Note_on_c, 0, 72, 62
1, 63263, Note_on_c, 0, 66, 70
1, 63267, Note_on_c, 0, 70, 49
1, 63268, Note_off_c, 0, 70, 127
1, 63268, Note_on_c, 0, 63, 63
1, 63269, Note_on_c, 0, 71, 73
1, 63272, Control_c, 0, 64, 127
1, 63276, Note_on_c, 0, 60, 62
1, 63279, Note_off_c, 0, 72, 62
1, 63305, Note_off_c, 0, 71, 59
1, 63318, Note_off_c, 0, 60, 58
1, 63334, Note_off_c, 0, 63, 63
1, 63354, Note_off_c, 0, 66, 63
1, 63432, Note_on_c, 0, 82, 88
1, 63443, Note_on_c, 0, 77, 77
1, 63445, Note_on_c, 0, 69, 84
1, 63446, Note_on_c, 0, 71, 67
1, 63448, Note_on_c, 0, 65, 66
1, 63457, Note_on_c, 0, 61, 71
1, 63464, Note_on_c, 0, 81, 45
1, 63471, Note_off_c, 0, 71, 64
1, 63489, Note_off_c, 0, 81, 51
1, 63491, Note_off_c, 0, 77, 62
1, 63501, Note_off_c, 0, 82, 63
1, 63543, Note_off_c, 0, 61, 56
1, 63557, Note_off_c, 0, 69, 60
1, 63587, Note_off_c, 0, 65, 38
1, 63605, Control_c, 0, 64, 127
1, 63620, Control_c, 0, 64, 93
1, 63635, Control_c, 0, 64, 69
1, 63648, Note_on_c, 0, 88, 95
1, 63650, Note_on_c, 0, 65, 56
1, 63650, Control_c, 0, 64, 0
1, 63653, Note_on_c, 0, 69, 81
1, 63658, Note_on_c, 0, 75, 88
1, 63659, Note_on_c, 0, 62, 66
1, 63709, Control_c, 0, 64, 61
1, 63711, Note_off_c, 0, 88, 59
1, 63724, Control_c, 0, 64, 68
1, 63738, Control_c, 0, 64, 72
1, 63753, Control_c, 0, 64, 77
1, 63755, Note_off_c, 0, 69, 63
1, 63765, Note_off_c, 0, 75, 64
1, 63768, Control_c, 0, 64, 80
1, 63769, Note_off_c, 0, 62, 58
1, 63784, Control_c, 0, 64, 83
1, 63790, Note_off_c, 0, 65, 64
1, 63799, Control_c, 0, 64, 85
1, 63814, Control_c, 0, 64, 88
1, 63828, Control_c, 0, 64, 91
1, 63843, Control_c, 0, 64, 94
1, 63845, Note_on_c, 0, 74, 86
1, 63850, Note_on_c, 0, 73, 83
1, 63853, Note_on_c, 0, 69, 87
1, 63853, Note_on_c, 0, 63, 79
1, 63858, Control_c, 0, 64, 96
1, 63859, Note_on_c, 0, 66, 77
1, 63873, Control_c, 0, 64, 97
1, 63879, Note_off_c, 0, 74, 66
1, 63888, Control_c, 0, 64, 98
1, 63902, Control_c, 0, 64, 100
1, 63915, Note_off_c, 0, 69, 61
1, 63917, Control_c, 0, 64, 101
1, 63920, Note_off_c, 0, 66, 64
1, 63932, Control_c, 0, 64, 103
1, 63938, Note_off_c, 0, 63, 63
1, 63946, Control_c, 0, 64, 107
1, 63961, Control_c, 0, 64, 112
1, 63962, Note_off_c, 0, 73, 34
1, 63976, Control_c, 0, 64, 114
1, 63991, Control_c, 0, 64, 114
1, 64006, Control_c, 0, 64, 114
1, 64020, Control_c, 0, 64, 107
1, 64035, Control_c, 0, 64, 89
1, 64050, Control_c, 0, 64, 62
1, 64052, Note_on_c, 0, 80, 93
1, 64054, Note_on_c, 0, 85, 91
1, 64057, Note_on_c, 0, 74, 91
1, 64059, Note_on_c, 0, 73, 88
1, 64065, Control_c, 0, 64, 0
1, 64067, Note_on_c, 0, 84, 72
1, 64073, Note_on_c, 0, 64, 58
1, 64118, Note_on_c, 0, 67, 24
1, 64128, Note_off_c, 0, 64, 64
1, 64132, Control_c, 0, 64, 64
1, 64147, Control_c, 0, 64, 73
1, 64159, Note_off_c, 0, 84, 61
1, 64161, Note_off_c, 0, 67, 28
1, 64161, Control_c, 0, 64, 82
1, 64175, Note_off_c, 0, 74, 60
1, 64176, Note_off_c, 0, 73, 59
1, 64176, Control_c, 0, 64, 93
1, 64181, Note_off_c, 0, 85, 62
1, 64191, Control_c, 0, 64, 100
1, 64197, Note_off_c, 0, 80, 61
1, 64206, Control_c, 0, 64, 103
1, 64221, Control_c, 0, 64, 103
1, 64235, Control_c, 0, 64, 102
1, 64250, Control_c, 0, 64, 91
1, 64265, Control_c, 0, 64, 71
1, 64273, Note_on_c, 0, 77, 97
1, 64279, Note_on_c, 0, 76, 87
1, 64279, Control_c, 0, 64, 0
1, 64282, Note_on_c, 0, 72, 95
1, 64289, Note_on_c, 0, 69, 68
1, 64291, Note_on_c, 0, 66, 76
1, 64334, Note_off_c, 0, 77, 63
1, 64339, Control_c, 0, 64, 64
1, 64353, Control_c, 0, 64, 74
1, 64368, Control_c, 0, 64, 86
1, 64383, Control_c, 0, 64, 98
1, 64398, Control_c, 0, 64, 103
1, 64413, Control_c, 0, 64, 105
1, 64428, Control_c, 0, 64, 106
1, 64443, Control_c, 0, 64, 108
1, 64454, Note_off_c, 0, 72, 62
1, 64458, Control_c, 0, 64, 113
1, 64462, Note_off_c, 0, 76, 63
1, 64473, Control_c, 0, 64, 127
1, 64486, Note_off_c, 0, 66, 63
1, 64532, Control_c, 0, 64, 95
1, 64538, Note_on_c, 0, 88, 102
1, 64541, Note_on_c, 0, 77, 98
1, 64541, Note_on_c, 0, 83, 84
1, 64541, Note_on_c, 0, 67, 80
1, 64541, Note_on_c, 0, 87, 62
1, 64542, Note_on_c, 0, 71, 77
1, 64544, Note_on_c, 0, 76, 90
1, 64547, Control_c, 0, 64, 68
1, 64561, Control_c, 0, 64, 0
1, 64570, Note_off_c, 0, 77, 65
1, 64594, Note_off_c, 0, 69, 0
1, 64607, Control_c, 0, 64, 59
1, 64622, Control_c, 0, 64, 77
1, 64631, Poly_aftertouch_c, 0, 69, 127
1, 64637, Control_c, 0, 64, 96
1, 64640, Note_off_c, 0, 76, 64
1, 64651, Control_c, 0, 64, 114
1, 64666, Control_c, 0, 64, 115
1, 64667, Note_off_c, 0, 71, 58
1, 64681, Note_off_c, 0, 83, 59
1, 64682, Note_off_c, 0, 67, 61
1, 64695, Note_off_c, 0, 87, 64
1, 64696, Poly_aftertouch_c, 0, 69, 0
1, 64697, Note_off_c, 0, 88, 58
1, 64755, Control_c, 0, 64, 116
1, 64769, Control_c, 0, 64, 117
1, 64784, Control_c, 0, 64, 120
1, 64799, Control_c, 0, 64, 127
1, 64881, Control_c, 0, 64, 108
1, 64891, Note_on_c, 0, 67, 102
1, 64893, Note_on_c, 0, 55, 93
1, 64896, Control_c, 0, 64, 84
1, 64902, Note_on_c, 0, 102, 100
1, 64910, Control_c, 0, 64, 0
1, 64937, Note_on_c, 0, 62, 26
1, 64938, Note_off_c, 0, 62, 127
1, 64999, Control_c, 0, 64, 67
1, 65014, Control_c, 0, 64, 73
1, 65029, Control_c, 0, 64, 79
1, 65044, Control_c, 0, 64, 85
1, 65058, Control_c, 0, 64, 90
1, 65073, Control_c, 0, 64, 94
1, 65083, Note_on_c, 0, 99, 81
1, 65088, Control_c, 0, 64, 97
1, 65102, Control_c, 0, 64, 99
1, 65104, Note_off_c, 0, 55, 60
1, 65117, Control_c, 0, 64, 101
1, 65120, Note_off_c, 0, 102, 59
1, 65132, Control_c, 0, 64, 103
1, 65147, Control_c, 0, 64, 105
1, 65152, Note_off_c, 0, 67, 53
1, 65162, Control_c, 0, 64, 106
1, 65176, Control_c, 0, 64, 106
1, 65180, Note_on_c, 0, 94, 79
1, 65191, Control_c, 0, 64, 107
1, 65193, Note_off_c, 0, 99, 67
1, 65206, Control_c, 0, 64, 107
1, 65248, Note_off_c, 0, 94, 64
1, 65251, Control_c, 0, 64, 108
1, 65260, Note_on_c, 0, 89, 72
1, 65266, Control_c, 0, 64, 109
1, 65281, Control_c, 0, 64, 111
1, 65295, Control_c, 0, 64, 114
1, 65304, Note_off_c, 0, 89, 65
1, 65310, Control_c, 0, 64, 115
1, 65340, Control_c, 0, 64, 110
1, 65352, Note_on_c, 0, 69, 108
1, 65352, Note_on_c, 0, 97, 87
1, 65354, Note_on_c, 0, 57, 96
1, 65355, Control_c, 0, 64, 94
1, 65370, Control_c, 0, 64, 72
1, 65385, Control_c, 0, 64, 0
1, 65445, Control_c, 0, 64, 64
1, 65459, Control_c, 0, 64, 73
1, 65474, Control_c, 0, 64, 81
1, 65474, Note_on_c, 0, 92, 74
1, 65483, Note_off_c, 0, 97, 60
1, 65489, Control_c, 0, 64, 86
1, 65504, Control_c, 0, 64, 88
1, 65518, Control_c, 0, 64, 89
1, 65520, Note_off_c, 0, 57, 58
1, 65533, Control_c, 0, 64, 92
1, 65547, Note_on_c, 0, 87, 78
1, 65548, Control_c, 0, 64, 94
1, 65556, Note_off_c, 0, 92, 64
1, 65560, Note_off_c, 0, 69, 56
1, 65563, Control_c, 0, 64, 96
1, 65578, Control_c, 0, 64, 98
1, 65600, Control_c, 0, 64, 100
1, 65605, Note_on_c, 0, 84, 71
1, 65608, Note_off_c, 0, 87, 61
1, 65614, Control_c, 0, 64, 101
1, 65629, Control_c, 0, 64, 103
1, 65644, Control_c, 0, 64, 106
1, 65656, Note_on_c, 0, 90, 87
1, 65659, Control_c, 0, 64, 110
1, 65660, Note_off_c, 0, 84, 48
1, 65674, Control_c, 0, 64, 115
1, 65684, Note_off_c, 0, 90, 64
1, 65689, Control_c, 0, 64, 121
1, 65704, Control_c, 0, 64, 125
1, 65719, Control_c, 0, 64, 124
1, 65733, Control_c, 0, 64, 118
1, 65748, Control_c, 0, 64, 98
1, 65759, Note_on_c, 0, 72, 105
1, 65760, Note_on_c, 0, 60, 97
1, 65763, Control_c, 0, 64, 74
1, 65778, Control_c, 0, 64, 0
1, 65782, Note_on_c, 0, 78, 79
1, 65783, Note_on_c, 0, 79, 80
1, 65808, Note_off_c, 0, 79, 63
1, 65840, Note_off_c, 0, 78, 56
1, 65852, Control_c, 0, 64, 69
1, 65865, Note_on_c, 0, 77, 65
1, 65867, Control_c, 0, 64, 76
1, 65881, Control_c, 0, 64, 83
1, 65896, Control_c, 0, 64, 86
1, 65907, Note_off_c, 0, 77, 53
1, 65911, Control_c, 0, 64, 88
1, 65925, Control_c, 0, 64, 90
1, 65936, Note_on_c, 0, 78, 72
1, 65940, Control_c, 0, 64, 93
1, 65942, Note_on_c, 0, 79, 59
1, 65955, Control_c, 0, 64, 96
1, 65970, Note_off_c, 0, 60, 51
1, 65970, Control_c, 0, 64, 98
1, 65973, Note_off_c, 0, 79, 65
1, 65985, Note_off_c, 0, 78, 60
1, 65985, Control_c, 0, 64, 100
1, 65999, Control_c, 0, 64, 101
1, 66000, Note_on_c, 0, 77, 66
1, 66005, Note_off_c, 0, 72, 55
1, 66014, Control_c, 0, 64, 102
1, 66029, Control_c, 0, 64, 103
1, 66044, Control_c, 0, 64, 104
1, 66049, Note_off_c, 0, 77, 58
1, 66059, Control_c, 0, 64, 107
1, 66062, Note_on_c, 0, 79, 60
1, 66073, Control_c, 0, 64, 111
1, 66076, Note_on_c, 0, 78, 64
1, 66088, Control_c, 0, 64, 117
1, 66099, Note_off_c, 0, 79, 62
1, 66103, Control_c, 0, 64, 123
1, 66118, Note_off_c, 0, 78, 62
1, 66118, Control_c, 0, 64, 125
1, 66127, Note_on_c, 0, 77, 58
1, 66148, Control_c, 0, 64, 123
1, 66163, Control_c, 0, 64, 108
1, 66173, Note_on_c, 0, 74, 104
1, 66176, Note_on_c, 0, 62, 102
1, 66178, Control_c, 0, 64, 90
1, 66181, Note_on_c, 0, 79, 76
1, 66181, Note_off_c, 0, 77, 62
1, 66193, Control_c, 0, 64, 65
1, 66196, Note_on_c, 0, 78, 57
1, 66208, Control_c, 0, 64, 0
1, 66217, Note_on_c, 0, 63, 29
1, 66226, Note_off_c, 0, 79, 59
1, 66231, Note_off_c, 0, 78, 47
1, 66237, Control_c, 0, 64, 59
1, 66252, Control_c, 0, 64, 72
1, 66255, Note_off_c, 0, 63, 51
1, 66261, Note_on_c, 0, 77, 65
1, 66267, Control_c, 0, 64, 83
1, 66282, Control_c, 0, 64, 92
1, 66297, Control_c, 0, 64, 94
1, 66306, Note_off_c, 0, 77, 60
1, 66320, Note_on_c, 0, 79, 70
1, 66330, Note_on_c, 0, 78, 62
1, 66342, Control_c, 0, 64, 95
1, 66375, Note_off_c, 0, 79, 60
1, 66376, Note_off_c, 0, 78, 62
1, 66382, Note_on_c, 0, 77, 69
1, 66393, Control_c, 0, 64, 95
1, 66423, Control_c, 0, 64, 96
1, 66437, Control_c, 0, 64, 97
1, 66438, Note_off_c, 0, 77, 61
1, 66450, Note_on_c, 0, 79, 56
1, 66452, Control_c, 0, 64, 98
1, 66458, Note_on_c, 0, 78, 58
1, 66462, Note_off_c, 0, 62, 52
1, 66464, Note_off_c, 0, 74, 51
1, 66467, Control_c, 0, 64, 101
1, 66482, Note_off_c, 0, 79, 66
1, 66482, Control_c, 0, 64, 103
1, 66483, Note_off_c, 0, 78, 64
1, 66496, Note_on_c, 0, 77, 66
1, 66497, Control_c, 0, 64, 103
1, 66527, Control_c, 0, 64, 103
1, 66533, Note_off_c, 0, 77, 61
1, 66541, Control_c, 0, 64, 97
1, 66556, Control_c, 0, 64, 84
1, 66571, Control_c, 0, 64, 71
1, 66571, Note_on_c, 0, 79, 50
1, 66585, Note_on_c, 0, 78, 37
1, 66586, Control_c, 0, 64, 62
1, 66590, Note_on_c, 0, 76, 97
1, 66592, Note_on_c, 0, 64, 91
1, 66597, Note_off_c, 0, 79, 37
1, 66601, Control_c, 0, 64, 66
1, 66603, Note_off_c, 0, 78, 38
1, 66616, Control_c, 0, 64, 72
1, 66630, Control_c, 0, 64, 80
1, 66637, Note_off_c, 0, 76, 65
1, 66645, Control_c, 0, 64, 87
1, 66646, Note_off_c, 0, 64, 63
1, 66660, Control_c, 0, 64, 89
1, 66674, Control_c, 0, 64, 89
1, 66677, Note_on_c, 0, 78, 77
1, 66685, Note_on_c, 0, 79, 61
1, 66689, Control_c, 0, 64, 90
1, 66706, Note_off_c, 0, 78, 64
1, 66706, Note_off_c, 0, 79, 64
1, 66719, Control_c, 0, 64, 90
1, 66726, Note_on_c, 0, 77, 65
1, 66744, Note_off_c, 0, 77, 63
1, 66748, Control_c, 0, 64, 91
1, 66778, Control_c, 0, 64, 91
1, 66785, Note_on_c, 0, 79, 64
1, 66793, Control_c, 0, 64, 92
1, 66801, Note_off_c, 0, 79, 63
1, 66806, Note_on_c, 0, 78, 33
1, 66819, Note_on_c, 0, 77, 104
1, 66824, Note_on_c, 0, 65, 95
1, 66837, Control_c, 0, 64, 92
1, 66838, Note_off_c, 0, 78, 33
1, 66855, Note_off_c, 0, 77, 65
1, 66866, Note_off_c, 0, 65, 60
1, 66866, Control_c, 0, 64, 93
1, 66881, Control_c, 0, 64, 93
1, 66896, Control_c, 0, 64, 94
1, 66898, Note_on_c, 0, 79, 61
1, 66901, Note_on_c, 0, 78, 80
1, 66911, Control_c, 0, 64, 94
1, 66921, Note_off_c, 0, 78, 70
1, 66924, Note_on_c, 0, 77, 77
1, 66926, Note_off_c, 0, 79, 66
1, 66926, Control_c, 0, 64, 95
1, 66941, Control_c, 0, 64, 96
1, 66956, Control_c, 0, 64, 97
1, 66971, Control_c, 0, 64, 98
1, 66972, Note_off_c, 0, 77, 50
1, 66986, Control_c, 0, 64, 99
1, 66992, Note_on_c, 0, 79, 86
1, 66999, Note_on_c, 0, 78, 72
1, 67014, Note_off_c, 0, 79, 67
1, 67016, Control_c, 0, 64, 97
1, 67020, Note_off_c, 0, 78, 68
1, 67031, Control_c, 0, 64, 85
1, 67045, Control_c, 0, 64, 62
1, 67060, Control_c, 0, 64, 0
1, 67090, Note_on_c, 0, 79, 107
1, 67100, Note_on_c, 0, 67, 103
1, 67142, Control_c, 0, 64, 77
1, 67157, Control_c, 0, 64, 96
1, 67172, Control_c, 0, 64, 111
1, 67186, Control_c, 0, 64, 113
1, 67201, Control_c, 0, 64, 113
1, 67216, Control_c, 0, 64, 114
1, 67231, Control_c, 0, 64, 114
1, 67246, Control_c, 0, 64, 115
1, 67275, Control_c, 0, 64, 115
1, 67285, Note_off_c, 0, 67, 56
1, 67336, Note_off_c, 0, 79, 54
1, 67378, Note_on_c, 0, 84, 79
1, 67379, Control_c, 0, 64, 116
1, 67394, Control_c, 0, 64, 117
1, 67401, Note_off_c, 0, 84, 68
1, 67409, Control_c, 0, 64, 118
1, 67424, Control_c, 0, 64, 120
1, 67439, Control_c, 0, 64, 123
1, 67451, Note_on_c, 0, 97, 83
1, 67453, Control_c, 0, 64, 127
1, 67456, Note_on_c, 0, 90, 80
1, 67469, Note_off_c, 0, 97, 71
1, 67478, Note_off_c, 0, 90, 64
1, 67512, Note_on_c, 0, 91, 92
1, 67516, Note_on_c, 0, 96, 87
1, 67546, Note_off_c, 0, 91, 64
1, 67552, Note_off_c, 0, 96, 66
1, 67579, Note_on_c, 0, 87, 77
1, 67624, Note_on_c, 0, 80, 82
1, 67634, Note_off_c, 0, 87, 63
1, 67664, Note_on_c, 0, 73, 55
1, 67665, Note_off_c, 0, 73, 127
1, 67666, Note_on_c, 0, 74, 87
1, 67680, Note_off_c, 0, 80, 65
1, 67705, Note_on_c, 0, 105, 112
1, 67705, Note_off_c, 0, 74, 69
1, 67707, Note_on_c, 0, 100, 108
1, 67720, Note_off_c, 0, 100, 76
1, 67732, Note_off_c, 0, 105, 68
1, 68202, Control_c, 0, 67, 9
1, 68217, Control_c, 0, 67, 13
1, 68232, Control_c, 0, 67, 18
1, 68247, Control_c, 0, 67, 26
1, 68261, Control_c, 0, 67, 35
1, 68276, Control_c, 0, 67, 45
1, 68291, Control_c, 0, 67, 54
1, 68306, Control_c, 0, 67, 63
1, 68320, Control_c, 0, 67, 71
1, 68335, Control_c, 0, 67, 79
1, 68350, Control_c, 0, 67, 87
1, 68365, Control_c, 0, 67, 95
1, 68380, Control_c, 0, 67, 103
1, 68394, Control_c, 0, 67, 110
1, 68409, Control_c, 0, 67, 116
1, 68424, Control_c, 0, 67, 120
1, 68438, Control_c, 0, 67, 124
1, 68453, Control_c, 0, 67, 127
1, 68468, Control_c, 0, 64, 127
1, 68483, Control_c, 0, 64, 125
1, 68498, Control_c, 0, 64, 124
1, 68513, Control_c, 0, 64, 123
1, 68527, Control_c, 0, 64, 121
1, 68542, Control_c, 0, 64, 120
1, 68557, Control_c, 0, 64, 119
1, 68573, Control_c, 0, 64, 117
1, 68595, Control_c, 0, 64, 116
1, 68610, Control_c, 0, 64, 115
1, 68625, Control_c, 0, 64, 114
1, 68640, Control_c, 0, 64, 112
1, 68655, Control_c, 0, 64, 111
1, 68670, Control_c, 0, 64, 110
1, 68685, Control_c, 0, 64, 108
1, 68699, Control_c, 0, 64, 107
1, 68714, Control_c, 0, 64, 105
1, 68729, Control_c, 0, 64, 103
1, 68743, Control_c, 0, 64, 100
1, 68758, Control_c, 0, 64, 97
1, 68773, Control_c, 0, 64, 93
1, 68788, Control_c, 0, 64, 87
1, 68803, Control_c, 0, 64, 79
1, 68817, Control_c, 0, 64, 70
1, 68832, Control_c, 0, 64, 46
1, 68847, Control_c, 0, 64, 0
1, 68908, Note_on_c, 0, 103, 46
1, 68915, Note_on_c, 0, 31, 31
1, 68936, Control_c, 0, 64, 35
1, 68950, Control_c, 0, 64, 60
1, 68965, Control_c, 0, 64, 65
1, 68980, Control_c, 0, 64, 69
1, 68995, Control_c, 0, 64, 73
1, 69010, Control_c, 0, 64, 78
1, 69025, Control_c, 0, 64, 80
1, 69039, Control_c, 0, 64, 82
1, 69045, Note_off_c, 0, 31, 32
1, 69054, Control_c, 0, 64, 83
1, 69057, Note_off_c, 0, 103, 59
1, 69066, Note_on_c, 0, 32, 39
1, 69069, Control_c, 0, 64, 84
1, 69084, Control_c, 0, 64, 86
1, 69087, Note_on_c, 0, 102, 49
1, 69099, Control_c, 0, 64, 87
1, 69114, Control_c, 0, 64, 89
1, 69129, Control_c, 0, 64, 90
1, 69129, Note_off_c, 0, 32, 42
1, 69129, Note_off_c, 0, 102, 50
1, 69143, Control_c, 0, 64, 91
1, 69158, Control_c, 0, 64, 92
1, 69162, Note_on_c, 0, 35, 40
1, 69173, Control_c, 0, 64, 93
1, 69175, Note_on_c, 0, 94, 52
1, 69188, Control_c, 0, 64, 94
1, 69198, Note_off_c, 0, 35, 49
1, 69203, Control_c, 0, 64, 95
1, 69217, Control_c, 0, 64, 95
1, 69221, Note_off_c, 0, 94, 59
1, 69232, Control_c, 0, 64, 96
1, 69247, Control_c, 0, 64, 97
1, 69259, Note_on_c, 0, 40, 40
1, 69262, Control_c, 0, 64, 97
1, 69265, Note_on_c, 0, 99, 63
1, 69276, Control_c, 0, 64, 98
1, 69291, Control_c, 0, 64, 99
1, 69302, Note_off_c, 0, 40, 51
1, 69306, Control_c, 0, 64, 99
1, 69315, Note_off_c, 0, 99, 61
1, 69336, Control_c, 0, 64, 100
1, 69352, Note_on_c, 0, 36, 42
1, 69363, Note_on_c, 0, 97, 53
1, 69373, Control_c, 0, 64, 100
1, 69390, Note_off_c, 0, 97, 37
1, 69396, Note_off_c, 0, 36, 60
1, 69403, Control_c, 0, 64, 101
1, 69446, Note_on_c, 0, 38, 26
1, 69451, Note_on_c, 0, 95, 61
1, 69463, Control_c, 0, 64, 101
1, 69487, Note_off_c, 0, 38, 50
1, 69527, Note_off_c, 0, 95, 61
1, 69534, Note_on_c, 0, 93, 71
1, 69536, Note_on_c, 0, 42, 38
1, 69567, Note_off_c, 0, 93, 54
1, 69569, Note_off_c, 0, 42, 48
1, 69581, Control_c, 0, 64, 102
1, 69591, Note_on_c, 0, 86, 69
1, 69597, Note_on_c, 0, 44, 45
1, 69629, Note_off_c, 0, 44, 58
1, 69629, Note_off_c, 0, 86, 62
1, 69664, Note_on_c, 0, 39, 47
1, 69671, Note_on_c, 0, 89, 74
1, 69705, Note_off_c, 0, 39, 60
1, 69720, Note_off_c, 0, 89, 62
1, 69728, Note_on_c, 0, 40, 48
1, 69741, Note_on_c, 0, 87, 69
1, 69759, Note_off_c, 0, 40, 61
1, 69779, Note_off_c, 0, 87, 62
1, 69782, Note_on_c, 0, 43, 46
1, 69809, Note_on_c, 0, 84, 70
1, 69815, Note_off_c, 0, 43, 51
1, 69836, Note_off_c, 0, 84, 67
1, 69840, Note_on_c, 0, 45, 63
1, 69870, Note_off_c, 0, 45, 64
1, 69877, Note_on_c, 0, 90, 73
1, 69907, Note_off_c, 0, 90, 61
1, 69930, Note_on_c, 0, 47, 70
1, 69937, Note_on_c, 0, 81, 74
1, 69963, Note_off_c, 0, 81, 63
1, 69996, Note_off_c, 0, 47, 62
1, 70002, Note_on_c, 0, 49, 62
1, 70012, Note_on_c, 0, 86, 74
1, 70049, Note_off_c, 0, 49, 61
1, 70050, Note_on_c, 0, 51, 69
1, 70062, Note_off_c, 0, 86, 59
1, 70070, Note_on_c, 0, 80, 69
1, 70101, Note_off_c, 0, 51, 60
1, 70119, Note_on_c, 0, 53, 74
1, 70122, Control_c, 0, 64, 101
1, 70128, Note_off_c, 0, 80, 64
1, 70134, Note_on_c, 0, 78, 74
1, 70136, Control_c, 0, 64, 96
1, 70151, Control_c, 0, 64, 86
1, 70166, Note_off_c, 0, 53, 64
1, 70167, Control_c, 0, 64, 76
1, 70182, Control_c, 0, 64, 68
1, 70184, Note_on_c, 0, 50, 63
1, 70190, Note_on_c, 0, 82, 82
1, 70195, Note_off_c, 0, 78, 63
1, 70196, Control_c, 0, 64, 65
1, 70211, Control_c, 0, 64, 68
1, 70226, Control_c, 0, 64, 74
1, 70235, Note_off_c, 0, 50, 63
1, 70240, Note_off_c, 0, 82, 62
1, 70241, Control_c, 0, 64, 79
1, 70250, Note_on_c, 0, 76, 80
1, 70256, Control_c, 0, 64, 82
1, 70267, Note_on_c, 0, 55, 66
1, 70271, Control_c, 0, 64, 84
1, 70283, Note_off_c, 0, 76, 69
1, 70285, Control_c, 0, 64, 84
1, 70300, Note_off_c, 0, 55, 66
1, 70313, Note_on_c, 0, 80, 81
1, 70315, Control_c, 0, 64, 85
1, 70324, Note_on_c, 0, 49, 68
1, 70330, Control_c, 0, 64, 85
1, 70360, Control_c, 0, 64, 86
1, 70365, Note_on_c, 0, 77, 82
1, 70366, Note_off_c, 0, 80, 64
1, 70371, Note_on_c, 0, 51, 49
1, 70392, Note_off_c, 0, 49, 59
1, 70404, Control_c, 0, 64, 86
1, 70415, Note_on_c, 0, 54, 63
1, 70420, Note_off_c, 0, 77, 63
1, 70426, Note_on_c, 0, 74, 80
1, 70438, Note_off_c, 0, 51, 55
1, 70469, Note_off_c, 0, 74, 66
1, 70473, Note_off_c, 0, 54, 61
1, 70476, Note_on_c, 0, 56, 76
1, 70478, Control_c, 0, 67, 118
1, 70493, Control_c, 0, 67, 107
1, 70503, Note_on_c, 0, 73, 82
1, 70508, Control_c, 0, 67, 94
1, 70516, Note_off_c, 0, 56, 60
1, 70522, Control_c, 0, 67, 79
1, 70537, Control_c, 0, 67, 60
1, 70543, Note_on_c, 0, 58, 74
1, 70552, Control_c, 0, 67, 44
1, 70563, Note_on_c, 0, 71, 82
1, 70567, Control_c, 0, 64, 83
1, 70567, Control_c, 0, 67, 32
1, 70572, Note_off_c, 0, 73, 59
1, 70582, Control_c, 0, 64, 74
1, 70582, Control_c, 0, 67, 22
1, 70587, Note_off_c, 0, 58, 60
1, 70596, Control_c, 0, 64, 0
1, 70596, Control_c, 0, 67, 14
1, 70605, Note_on_c, 0, 53, 72
1, 70611, Control_c, 0, 67, 0
1, 70622, Note_on_c, 0, 69, 82
1, 70622, Note_off_c, 0, 71, 61
1, 70643, Note_off_c, 0, 53, 66
1, 70657, Note_off_c, 0, 69, 68
1, 70670, Note_on_c, 0, 59, 75
1, 70670, Control_c, 0, 64, 37
1, 70685, Control_c, 0, 64, 65
1, 70692, Note_on_c, 0, 68, 83
1, 70700, Note_off_c, 0, 59, 64
1, 70700, Control_c, 0, 64, 70
1, 70715, Control_c, 0, 64, 72
1, 70730, Control_c, 0, 64, 74
1, 70739, Note_on_c, 0, 46, 72
1, 70739, Note_on_c, 0, 70, 32
1, 70745, Control_c, 0, 64, 76
1, 70751, Note_on_c, 0, 72, 76
1, 70753, Note_off_c, 0, 68, 63
1, 70759, Control_c, 0, 64, 79
1, 70773, Note_off_c, 0, 70, 51
1, 70774, Control_c, 0, 64, 80
1, 70785, Note_on_c, 0, 66, 85
1, 70789, Control_c, 0, 64, 81
1, 70804, Note_on_c, 0, 49, 63
1, 70809, Note_off_c, 0, 72, 66
1, 70817, Note_off_c, 0, 46, 58
1, 70819, Control_c, 0, 64, 81
1, 70852, Note_off_c, 0, 66, 65
1, 70858, Note_on_c, 0, 64, 80
1, 70870, Note_off_c, 0, 49, 56
1, 70871, Note_on_c, 0, 51, 60
1, 70885, Note_off_c, 0, 64, 67
1, 70906, Note_off_c, 0, 51, 64
1, 70913, Note_on_c, 0, 52, 83
1, 70923, Note_on_c, 0, 62, 85
1, 70930, Control_c, 0, 64, 81
1, 70945, Control_c, 0, 64, 78
1, 70960, Control_c, 0, 64, 71
1, 70962, Note_off_c, 0, 52, 64
1, 70976, Control_c, 0, 64, 51
1, 70980, Note_off_c, 0, 62, 63
1, 70989, Note_on_c, 0, 65, 72
1, 70991, Control_c, 0, 64, 0
1, 70992, Note_on_c, 0, 47, 54
1, 71009, Note_on_c, 0, 49, 60
1, 71016, Note_on_c, 0, 60, 84
1, 71026, Note_off_c, 0, 65, 66
1, 71040, Note_off_c, 0, 47, 64
1, 71062, Note_off_c, 0, 49, 59
1, 71064, Note_off_c, 0, 60, 62
1, 71075, Note_on_c, 0, 59, 84
1, 71078, Note_on_c, 0, 51, 41
1, 71085, Note_on_c, 0, 53, 78
1, 71111, Note_off_c, 0, 51, 34
1, 71126, Note_off_c, 0, 59, 64
1, 71132, Note_on_c, 0, 57, 76
1, 71137, Note_off_c, 0, 53, 65
1, 71151, Note_on_c, 0, 54, 88
1, 71168, Note_on_c, 0, 61, 87
1, 71177, Note_off_c, 0, 57, 64
1, 71188, Note_off_c, 0, 61, 72
1, 71198, Control_c, 0, 64, 41
1, 71213, Control_c, 0, 64, 83
1, 71213, Note_on_c, 0, 55, 113
1, 71227, Control_c, 0, 64, 118
1, 71230, Note_off_c, 0, 54, 58
1, 71242, Control_c, 0, 64, 127
1, 71253, Note_off_c, 0, 55, 69
1, 71435, Control_c, 0, 64, 121
1, 71450, Control_c, 0, 64, 112
1, 71464, Control_c, 0, 64, 100
1, 71479, Control_c, 0, 64, 90
1, 71494, Control_c, 0, 64, 79
1, 71509, Control_c, 0, 64, 66
1, 71524, Control_c, 0, 64, 0
1, 71706, Note_on_c, 0, 78, 92
1, 71712, Note_on_c, 0, 67, 79
1, 71713, Note_on_c, 0, 55, 48
1, 71716, Note_on_c, 0, 60, 60
1, 71725, Note_on_c, 0, 52, 54
1, 71738, Control_c, 0, 64, 66
1, 71753, Control_c, 0, 64, 77
1, 71769, Control_c, 0, 64, 86
1, 71784, Control_c, 0, 64, 90
1, 71799, Control_c, 0, 64, 92
1, 71814, Control_c, 0, 64, 93
1, 71829, Control_c, 0, 64, 94
1, 71830, Note_off_c, 0, 78, 60
1, 71842, Note_off_c, 0, 55, 63
1, 71843, Control_c, 0, 64, 94
1, 71858, Control_c, 0, 64, 95
1, 71896, Note_off_c, 0, 52, 59
1, 71908, Note_on_c, 0, 68, 85
1, 71931, Note_off_c, 0, 67, 55
1, 71932, Control_c, 0, 64, 95
1, 71976, Note_off_c, 0, 68, 62
1, 71991, Control_c, 0, 64, 96
1, 72029, Note_off_c, 0, 60, 31
1, 72080, Control_c, 0, 64, 96
1, 72184, Control_c, 0, 64, 96
1, 72199, Control_c, 0, 64, 93
1, 72205, Note_on_c, 0, 79, 89
1, 72208, Note_on_c, 0, 66, 84
1, 72214, Control_c, 0, 64, 84
1, 72221, Note_on_c, 0, 56, 53
1, 72224, Note_on_c, 0, 60, 61
1, 72229, Control_c, 0, 64, 65
1, 72229, Note_on_c, 0, 53, 57
1, 72243, Control_c, 0, 64, 0
1, 72325, Note_off_c, 0, 79, 57
1, 72354, Control_c, 0, 64, 51
1, 72368, Control_c, 0, 64, 63
1, 72383, Control_c, 0, 64, 66
1, 72398, Control_c, 0, 64, 68
1, 72412, Control_c, 0, 64, 71
1, 72427, Control_c, 0, 64, 74
1, 72440, Note_off_c, 0, 53, 37
1, 72442, Control_c, 0, 64, 77
1, 72457, Control_c, 0, 64, 79
1, 72472, Control_c, 0, 64, 80
1, 72486, Control_c, 0, 64, 80
1, 72501, Control_c, 0, 64, 81
1, 72516, Control_c, 0, 64, 81
1, 72531, Control_c, 0, 64, 82
1, 72546, Control_c, 0, 64, 82
1, 72562, Control_c, 0, 64, 83
1, 72567, Note_off_c, 0, 56, 37
1, 72569, Note_off_c, 0, 60, 21
1, 72577, Control_c, 0, 64, 83
1, 72591, Control_c, 0, 64, 84
1, 72724, Control_c, 0, 64, 84
1, 72808, Note_on_c, 0, 68, 70
1, 72832, Note_off_c, 0, 66, 36
1, 72873, Control_c, 0, 64, 84
1, 72888, Control_c, 0, 64, 82
1, 72903, Control_c, 0, 64, 75
1, 72917, Control_c, 0, 64, 63
1, 72932, Control_c, 0, 64, 0
1, 73003, Note_on_c, 0, 65, 71
1, 73006, Control_c, 0, 64, 18
1, 73013, Note_off_c, 0, 68, 61
1, 73021, Control_c, 0, 64, 63
1, 73025, Note_on_c, 0, 64, 58
1, 73030, Note_on_c, 0, 57, 34
1, 73034, Note_on_c, 0, 60, 52
1, 73035, Control_c, 0, 64, 69
1, 73038, Note_on_c, 0, 54, 50
1, 73041, Note_off_c, 0, 65, 67
1, 73050, Control_c, 0, 64, 74
1, 73060, Note_off_c, 0, 57, 45
1, 73065, Control_c, 0, 64, 80
1, 73073, Note_off_c, 0, 54, 61
1, 73080, Control_c, 0, 64, 84
1, 73096, Note_off_c, 0, 64, 63
1, 73102, Control_c, 0, 64, 85
1, 73108, Note_off_c, 0, 60, 59
1, 73117, Control_c, 0, 64, 87
1, 73132, Control_c, 0, 64, 89
1, 73147, Control_c, 0, 64, 93
1, 73162, Control_c, 0, 64, 96
1, 73177, Control_c, 0, 64, 98
1, 73191, Control_c, 0, 64, 98
1, 73206, Control_c, 0, 64, 98
1, 73221, Control_c, 0, 64, 97
1, 73232, Note_on_c, 0, 76, 91
1, 73235, Control_c, 0, 64, 92
1, 73243, Note_on_c, 0, 65, 74
1, 73243, Note_on_c, 0, 75, 72
1, 73244, Note_on_c, 0, 71, 63
1, 73250, Control_c, 0, 64, 81
1, 73256, Note_on_c, 0, 59, 49
1, 73256, Note_on_c, 0, 64, 56
1, 73265, Control_c, 0, 64, 64
1, 73266, Note_on_c, 0, 55, 46
1, 73280, Control_c, 0, 64, 0
1, 73339, Control_c, 0, 64, 58
1, 73353, Note_off_c, 0, 76, 62
1, 73354, Control_c, 0, 64, 68
1, 73370, Control_c, 0, 64, 73
1, 73378, Note_off_c, 0, 65, 21
1, 73385, Control_c, 0, 64, 79
1, 73388, Note_off_c, 0, 64, 52
1, 73392, Note_off_c, 0, 59, 41
1, 73400, Control_c, 0, 64, 80
1, 73405, Note_off_c, 0, 71, 49
1, 73407, Note_off_c, 0, 55, 41
1, 73415, Control_c, 0, 64, 81
1, 73433, Note_off_c, 0, 75, 58
1, 73445, Control_c, 0, 64, 81
1, 73459, Control_c, 0, 64, 82
1, 73474, Control_c, 0, 64, 83
1, 73489, Control_c, 0, 64, 83
1, 73504, Control_c, 0, 64, 84
1, 73519, Control_c, 0, 64, 84
1, 73563, Control_c, 0, 64, 85
1, 73681, Control_c, 0, 64, 85
1, 73815, Control_c, 0, 64, 85
1, 73830, Control_c, 0, 64, 84
1, 73841, Note_on_c, 0, 79, 88
1, 73846, Note_on_c, 0, 66, 85
1, 73850, Note_on_c, 0, 56, 42
1, 73850, Note_on_c, 0, 60, 54
1, 73852, Control_c, 0, 64, 78
1, 73854, Note_on_c, 0, 53, 51
1, 73866, Control_c, 0, 64, 67
1, 73881, Control_c, 0, 64, 0
1, 73940, Control_c, 0, 64, 14
1, 73955, Control_c, 0, 64, 64
1, 73970, Control_c, 0, 64, 68
1, 73985, Control_c, 0, 64, 71
1, 74000, Control_c, 0, 64, 74
1, 74006, Note_off_c, 0, 79, 58
1, 74015, Control_c, 0, 64, 78
1, 74030, Control_c, 0, 64, 81
1, 74044, Control_c, 0, 64, 83
1, 74059, Control_c, 0, 64, 84
1, 74074, Control_c, 0, 64, 85
1, 74074, Note_off_c, 0, 53, 27
1, 74089, Control_c, 0, 64, 87
1, 74104, Control_c, 0, 64, 88
1, 74119, Control_c, 0, 64, 89
1, 74134, Control_c, 0, 64, 90
1, 74148, Control_c, 0, 64, 90
1, 74164, Control_c, 0, 64, 91
1, 74179, Control_c, 0, 64, 92
1, 74193, Control_c, 0, 64, 93
1, 74194, Note_off_c, 0, 56, 37
1, 74205, Note_off_c, 0, 60, 28
1, 74208, Control_c, 0, 64, 94
1, 74223, Control_c, 0, 64, 96
1, 74238, Control_c, 0, 64, 97
1, 74253, Control_c, 0, 64, 98
1, 74268, Control_c, 0, 64, 99
1, 74270, Note_off_c, 0, 66, 57
1, 74327, Control_c, 0, 64, 98
1, 74341, Note_on_c, 0, 68, 78
1, 74342, Control_c, 0, 64, 93
1, 74356, Control_c, 0, 64, 83
1, 74371, Control_c, 0, 64, 69
1, 74386, Control_c, 0, 64, 0
1, 74504, Control_c, 0, 64, 61
1, 74519, Control_c, 0, 64, 68
1, 74524, Note_on_c, 0, 65, 77
1, 74533, Note_on_c, 0, 64, 63
1, 74534, Control_c, 0, 64, 74
1, 74536, Note_on_c, 0, 57, 37
1, 74536, Note_on_c, 0, 60, 57
1, 74539, Note_on_c, 0, 54, 51
1, 74548, Note_off_c, 0, 68, 63
1, 74548, Control_c, 0, 64, 81
1, 74563, Control_c, 0, 64, 86
1, 74574, Note_off_c, 0, 57, 63
1, 74578, Control_c, 0, 64, 89
1, 74588, Note_off_c, 0, 65, 66
1, 74593, Note_off_c, 0, 54, 58
1, 74600, Control_c, 0, 64, 91
1, 74615, Control_c, 0, 64, 93
1, 74619, Note_off_c, 0, 64, 57
1, 74629, Note_off_c, 0, 60, 57
1, 74630, Control_c, 0, 64, 95
1, 74644, Control_c, 0, 64, 96
1, 74659, Control_c, 0, 64, 98
1, 74674, Control_c, 0, 64, 101
1, 74688, Control_c, 0, 64, 104
1, 74703, Control_c, 0, 64, 107
1, 74718, Control_c, 0, 64, 109
1, 74763, Control_c, 0, 64, 107
1, 74777, Note_on_c, 0, 76, 82
1, 74778, Control_c, 0, 64, 99
1, 74787, Note_on_c, 0, 71, 63
1, 74790, Note_on_c, 0, 75, 70
1, 74793, Control_c, 0, 64, 85
1, 74793, Note_on_c, 0, 65, 64
1, 74803, Note_on_c, 0, 55, 47
1, 74805, Note_on_c, 0, 59, 42
1, 74808, Control_c, 0, 64, 63
1, 74808, Note_on_c, 0, 64, 48
1, 74822, Control_c, 0, 64, 0
1, 74882, Control_c, 0, 64, 50
1, 74896, Control_c, 0, 64, 67
1, 74900, Note_off_c, 0, 76, 58
1, 74908, Note_off_c, 0, 55, 28
1, 74909, Note_off_c, 0, 64, 45
1, 74911, Control_c, 0, 64, 76
1, 74920, Note_off_c, 0, 65, 35
1, 74926, Control_c, 0, 64, 81
1, 74941, Control_c, 0, 64, 82
1, 74957, Control_c, 0, 64, 83
1, 74976, Note_off_c, 0, 59, 19
1, 74982, Note_off_c, 0, 71, 56
1, 74986, Control_c, 0, 64, 83
1, 74995, Note_off_c, 0, 75, 53
1, 75001, Control_c, 0, 64, 84
1, 75016, Control_c, 0, 64, 85
1, 75031, Control_c, 0, 64, 86
1, 75060, Control_c, 0, 64, 86
1, 75090, Control_c, 0, 64, 87
1, 75208, Control_c, 0, 64, 87
1, 75252, Control_c, 0, 64, 88
1, 75267, Control_c, 0, 64, 88
1, 75334, Control_c, 0, 64, 86
1, 75349, Control_c, 0, 64, 77
1, 75362, Note_on_c, 0, 71, 64
1, 75364, Control_c, 0, 64, 59
1, 75366, Note_on_c, 0, 70, 66
1, 75372, Note_on_c, 0, 58, 47
1, 75379, Control_c, 0, 64, 0
1, 75388, Note_on_c, 0, 55, 36
1, 75389, Note_on_c, 0, 63, 42
1, 75437, Control_c, 0, 64, 60
1, 75452, Control_c, 0, 64, 67
1, 75467, Control_c, 0, 64, 72
1, 75478, Note_off_c, 0, 70, 64
1, 75482, Control_c, 0, 64, 78
1, 75485, Note_off_c, 0, 63, 55
1, 75492, Note_off_c, 0, 71, 61
1, 75497, Control_c, 0, 64, 82
1, 75502, Note_off_c, 0, 58, 60
1, 75511, Control_c, 0, 64, 83
1, 75526, Control_c, 0, 64, 85
1, 75541, Note_off_c, 0, 55, 39
1, 75541, Control_c, 0, 64, 86
1, 75556, Control_c, 0, 64, 88
1, 75571, Control_c, 0, 64, 89
1, 75586, Note_on_c, 0, 59, 52
1, 75586, Control_c, 0, 64, 91
1, 75587, Note_on_c, 0, 56, 56
1, 75587, Note_on_c, 0, 69, 77
1, 75588, Note_on_c, 0, 82, 73
1, 75589, Note_on_c, 0, 80, 70
1, 75593, Note_on_c, 0, 63, 52
1, 75601, Control_c, 0, 64, 92
1, 75616, Control_c, 0, 64, 94
1, 75631, Control_c, 0, 64, 95
1, 75639, Note_off_c, 0, 80, 58
1, 75639, Note_off_c, 0, 82, 63
1, 75640, Note_off_c, 0, 59, 58
1, 75645, Control_c, 0, 64, 95
1, 75655, Note_off_c, 0, 56, 57
1, 75660, Control_c, 0, 64, 96
1, 75672, Note_off_c, 0, 63, 61
1, 75675, Control_c, 0, 64, 96
1, 75681, Note_off_c, 0, 69, 64
1, 75752, Note_on_c, 0, 68, 90
1, 75757, Note_on_c, 0, 63, 77
1, 75758, Note_on_c, 0, 67, 80
1, 75761, Note_on_c, 0, 57, 60
1, 75766, Note_on_c, 0, 60, 55
1, 75784, Note_off_c, 0, 67, 64
1, 75803, Note_off_c, 0, 60, 64
1, 75811, Note_off_c, 0, 68, 63
1, 75824, Control_c, 0, 64, 97
1, 75833, Note_off_c, 0, 57, 61
1, 75839, Note_off_c, 0, 63, 63
1, 75926, Note_on_c, 0, 68, 89
1, 75927, Note_on_c, 0, 79, 84
1, 75937, Note_on_c, 0, 67, 71
1, 75938, Note_on_c, 0, 78, 73
1, 75939, Note_on_c, 0, 74, 59
1, 75946, Note_off_c, 0, 68, 71
1, 75946, Note_on_c, 0, 62, 61
1, 75947, Note_on_c, 0, 58, 60
1, 75956, Note_off_c, 0, 74, 67
1, 75978, Note_off_c, 0, 79, 62
1, 75991, Note_off_c, 0, 67, 60
1, 75991, Note_off_c, 0, 78, 63
1, 75996, Note_off_c, 0, 58, 60
1, 75998, Note_off_c, 0, 62, 56
1, 76047, Control_c, 0, 64, 96
1, 76061, Control_c, 0, 64, 93
1, 76083, Control_c, 0, 64, 81
1, 76098, Control_c, 0, 64, 51
1, 76113, Control_c, 0, 64, 0
1, 76137, Note_on_c, 0, 85, 99
1, 76143, Note_on_c, 0, 66, 80
1, 76143, Note_on_c, 0, 72, 88
1, 76152, Note_on_c, 0, 59, 68
1, 76188, Control_c, 0, 64, 65
1, 76190, Note_off_c, 0, 85, 64
1, 76200, Note_off_c, 0, 72, 65
1, 76203, Control_c, 0, 64, 72
1, 76217, Control_c, 0, 64, 78
1, 76226, Note_off_c, 0, 59, 60
1, 76232, Control_c, 0, 64, 83
1, 76244, Note_off_c, 0, 66, 62
1, 76247, Control_c, 0, 64, 86
1, 76261, Control_c, 0, 64, 88
1, 76276, Control_c, 0, 64, 89
1, 76291, Control_c, 0, 64, 90
1, 76303, Note_on_c, 0, 71, 90
1, 76314, Note_on_c, 0, 70, 85
1, 76319, Note_on_c, 0, 66, 82
1, 76327, Note_on_c, 0, 63, 71
1, 76331, Note_on_c, 0, 60, 65
1, 76342, Note_off_c, 0, 71, 62
1, 76350, Control_c, 0, 64, 90
1, 76360, Note_off_c, 0, 60, 66
1, 76385, Note_off_c, 0, 63, 63
1, 76405, Note_off_c, 0, 66, 63
1, 76417, Note_off_c, 0, 70, 41
1, 76424, Control_c, 0, 64, 91
1, 76439, Control_c, 0, 64, 92
1, 76468, Control_c, 0, 64, 91
1, 76483, Control_c, 0, 64, 86
1, 76498, Control_c, 0, 64, 71
1, 76507, Note_on_c, 0, 82, 93
1, 76509, Note_on_c, 0, 71, 86
1, 76512, Note_on_c, 0, 77, 82
1, 76513, Control_c, 0, 64, 0
1, 76515, Note_on_c, 0, 81, 77
1, 76519, Note_on_c, 0, 69, 90
1, 76521, Note_on_c, 0, 65, 72
1, 76528, Note_on_c, 0, 61, 73
1, 76545, Note_off_c, 0, 71, 59
1, 76568, Note_off_c, 0, 81, 59
1, 76584, Note_off_c, 0, 77, 61
1, 76588, Note_off_c, 0, 82, 65
1, 76588, Control_c, 0, 64, 58
1, 76603, Control_c, 0, 64, 70
1, 76618, Control_c, 0, 64, 77
1, 76632, Control_c, 0, 64, 85
1, 76639, Note_off_c, 0, 69, 62
1, 76647, Control_c, 0, 64, 87
1, 76659, Note_off_c, 0, 61, 58
1, 76662, Note_off_c, 0, 65, 61
1, 76677, Control_c, 0, 64, 86
1, 76691, Control_c, 0, 64, 77
1, 76706, Control_c, 0, 64, 49
1, 76707, Note_on_c, 0, 74, 93
1, 76713, Note_on_c, 0, 66, 81
1, 76714, Note_on_c, 0, 73, 90
1, 76715, Note_on_c, 0, 69, 86
1, 76721, Control_c, 0, 64, 0
1, 76723, Note_on_c, 0, 63, 72
1, 76751, Control_c, 0, 64, 16
1, 76754, Note_off_c, 0, 74, 65
1, 76766, Control_c, 0, 64, 68
1, 76781, Control_c, 0, 64, 77
1, 76789, Note_off_c, 0, 63, 62
1, 76791, Note_off_c, 0, 66, 64
1, 76796, Control_c, 0, 64, 85
1, 76799, Note_off_c, 0, 69, 65
1, 76811, Control_c, 0, 64, 89
1, 76826, Control_c, 0, 64, 92
1, 76847, Control_c, 0, 64, 97
1, 76862, Control_c, 0, 64, 104
1, 76877, Control_c, 0, 64, 107
1, 76900, Note_off_c, 0, 73, 57
1, 76921, Control_c, 0, 64, 101
1, 76936, Control_c, 0, 64, 87
1, 76951, Control_c, 0, 64, 70
1, 76966, Control_c, 0, 64, 0
1, 76975, Note_on_c, 0, 74, 94
1, 76976, Note_on_c, 0, 85, 92
1, 76978, Note_on_c, 0, 80, 86
1, 76978, Note_on_c, 0, 84, 84
1, 76981, Note_on_c, 0, 64, 73
1, 76981, Note_on_c, 0, 73, 91
1, 76982, Note_on_c, 0, 68, 79
1, 76996, Control_c, 0, 64, 65
1, 77004, Note_off_c, 0, 74, 67
1, 77010, Control_c, 0, 64, 73
1, 77012, Note_off_c, 0, 73, 65
1, 77013, Note_on_c, 0, 83, 38
1, 77025, Control_c, 0, 64, 84
1, 77040, Control_c, 0, 64, 89
1, 77041, Note_off_c, 0, 68, 63
1, 77052, Note_off_c, 0, 64, 63
1, 77055, Control_c, 0, 64, 90
1, 77070, Note_off_c, 0, 83, 36
1, 77071, Note_off_c, 0, 80, 63
1, 77075, Note_off_c, 0, 85, 62
1, 77082, Note_off_c, 0, 84, 61
1, 77114, Control_c, 0, 64, 90
1, 77129, Control_c, 0, 64, 91
1, 77144, Control_c, 0, 64, 91
1, 77158, Control_c, 0, 64, 92
1, 77173, Control_c, 0, 64, 92
1, 77188, Control_c, 0, 64, 93
1, 77202, Control_c, 0, 64, 93
1, 77217, Control_c, 0, 64, 94
1, 77232, Control_c, 0, 64, 94
1, 77247, Control_c, 0, 64, 95
1, 77262, Control_c, 0, 64, 96
1, 77276, Control_c, 0, 64, 97
1, 77306, Control_c, 0, 64, 96
1, 77321, Control_c, 0, 64, 91
1, 77336, Control_c, 0, 64, 77
1, 77338, Note_on_c, 0, 52, 99
1, 77340, Note_on_c, 0, 40, 102
1, 77350, Note_on_c, 0, 102, 94
1, 77351, Control_c, 0, 64, 0
1, 77441, Control_c, 0, 64, 64
1, 77455, Control_c, 0, 64, 70
1, 77470, Control_c, 0, 64, 75
1, 77485, Control_c, 0, 64, 82
1, 77500, Control_c, 0, 64, 86
1, 77514, Control_c, 0, 64, 89
1, 77526, Note_on_c, 0, 99, 84
1, 77529, Control_c, 0, 64, 90
1, 77545, Control_c, 0, 64, 91
1, 77556, Note_off_c, 0, 40, 60
1, 77559, Note_off_c, 0, 102, 58
1, 77560, Control_c, 0, 64, 92
1, 77575, Control_c, 0, 64, 93
1, 77596, Note_off_c, 0, 52, 59
1, 77597, Control_c, 0, 64, 94
1, 77612, Control_c, 0, 64, 95
1, 77627, Control_c, 0, 64, 96
1, 77634, Note_on_c, 0, 94, 83
1, 77645, Note_off_c, 0, 99, 66
1, 77656, Control_c, 0, 64, 96
1, 77671, Control_c, 0, 64, 97
1, 77701, Control_c, 0, 64, 97
1, 77703, Note_off_c, 0, 94, 65
1, 77714, Note_on_c, 0, 89, 74
1, 77715, Control_c, 0, 64, 98
1, 77730, Control_c, 0, 64, 99
1, 77745, Control_c, 0, 64, 101
1, 77760, Control_c, 0, 64, 103
1, 77767, Note_off_c, 0, 89, 65
1, 77775, Control_c, 0, 64, 103
1, 77804, Control_c, 0, 64, 100
1, 77817, Note_on_c, 0, 97, 85
1, 77818, Note_on_c, 0, 54, 102
1, 77819, Control_c, 0, 64, 86
1, 77821, Note_on_c, 0, 42, 90
1, 77833, Control_c, 0, 64, 66
1, 77848, Control_c, 0, 64, 0
1, 77854, Note_on_c, 0, 94, 35
1, 77889, Note_off_c, 0, 94, 48
1, 77893, Control_c, 0, 64, 56
1, 77908, Control_c, 0, 64, 71
1, 77923, Control_c, 0, 64, 79
1, 77937, Control_c, 0, 64, 86
1, 77952, Control_c, 0, 64, 88
1, 77955, Note_off_c, 0, 97, 63
1, 77957, Note_on_c, 0, 92, 79
1, 77967, Control_c, 0, 64, 89
1, 77982, Control_c, 0, 64, 90
1, 77997, Control_c, 0, 64, 91
1, 78002, Note_off_c, 0, 42, 59
1, 78012, Control_c, 0, 64, 92
1, 78026, Control_c, 0, 64, 92
1, 78038, Note_on_c, 0, 87, 76
1, 78038, Note_off_c, 0, 54, 54
1, 78041, Control_c, 0, 64, 93
1, 78043, Note_off_c, 0, 92, 65
1, 78056, Control_c, 0, 64, 93
1, 78071, Control_c, 0, 64, 94
1, 78078, Note_on_c, 0, 84, 73
1, 78087, Note_off_c, 0, 87, 63
1, 78100, Control_c, 0, 64, 95
1, 78122, Note_off_c, 0, 84, 64
1, 78130, Control_c, 0, 64, 95
1, 78139, Note_on_c, 0, 90, 85
1, 78161, Control_c, 0, 64, 96
1, 78176, Control_c, 0, 64, 97
1, 78178, Note_off_c, 0, 90, 62
1, 78191, Control_c, 0, 64, 99
1, 78205, Control_c, 0, 64, 101
1, 78220, Control_c, 0, 64, 102
1, 78235, Control_c, 0, 64, 103
1, 78249, Control_c, 0, 64, 102
1, 78264, Control_c, 0, 64, 99
1, 78279, Control_c, 0, 64, 86
1, 78290, Note_on_c, 0, 57, 104
1, 78292, Note_on_c, 0, 75, 85
1, 78292, Note_on_c, 0, 45, 97
1, 78292, Note_on_c, 0, 76, 87
1, 78293, Control_c, 0, 64, 65
1, 78308, Control_c, 0, 64, 0
1, 78375, Control_c, 0, 64, 58
1, 78390, Control_c, 0, 64, 68
1, 78405, Control_c, 0, 64, 74
1, 78419, Control_c, 0, 64, 78
1, 78434, Control_c, 0, 64, 81
1, 78449, Control_c, 0, 64, 82
1, 78454, Note_off_c, 0, 76, 59
1, 78463, Control_c, 0, 64, 83
1, 78475, Note_off_c, 0, 75, 66
1, 78478, Control_c, 0, 64, 85
1, 78493, Control_c, 0, 64, 86
1, 78508, Control_c, 0, 64, 87
1, 78522, Note_on_c, 0, 74, 37
1, 78523, Control_c, 0, 64, 87
1, 78525, Note_on_c, 0, 72, 39
1, 78537, Control_c, 0, 64, 88
1, 78550, Note_off_c, 0, 74, 58
1, 78552, Note_off_c, 0, 72, 53
1, 78552, Control_c, 0, 64, 89
1, 78564, Note_on_c, 0, 76, 68
1, 78566, Note_off_c, 0, 45, 58
1, 78575, Note_on_c, 0, 75, 54
1, 78582, Control_c, 0, 64, 89
1, 78597, Note_off_c, 0, 76, 65
1, 78597, Control_c, 0, 64, 90
1, 78604, Note_off_c, 0, 75, 60
1, 78626, Control_c, 0, 64, 90
1, 78630, Note_on_c, 0, 74, 66
1, 78631, Note_off_c, 0, 57, 52
1, 78641, Control_c, 0, 64, 91
1, 78652, Note_off_c, 0, 74, 68
1, 78671, Control_c, 0, 64, 91
1, 78686, Control_c, 0, 64, 92
1, 78690, Note_on_c, 0, 75, 66
1, 78693, Note_on_c, 0, 76, 62
1, 78713, Note_off_c, 0, 76, 67
1, 78715, Control_c, 0, 64, 92
1, 78724, Note_off_c, 0, 75, 65
1, 78730, Control_c, 0, 64, 93
1, 78739, Note_on_c, 0, 74, 68
1, 78745, Control_c, 0, 64, 94
1, 78760, Control_c, 0, 64, 96
1, 78772, Note_off_c, 0, 74, 61
1, 78775, Control_c, 0, 64, 97
1, 78790, Control_c, 0, 64, 97
1, 78802, Note_on_c, 0, 76, 57
1, 78806, Note_on_c, 0, 75, 66
1, 78832, Note_off_c, 0, 76, 67
1, 78847, Note_off_c, 0, 75, 65
1, 78863, Control_c, 0, 64, 96
1, 78865, Note_on_c, 0, 74, 68
1, 78878, Control_c, 0, 64, 90
1, 78889, Note_on_c, 0, 59, 109
1, 78891, Note_on_c, 0, 47, 102
1, 78893, Control_c, 0, 64, 74
1, 78908, Control_c, 0, 64, 0
1, 78912, Note_off_c, 0, 74, 63
1, 78922, Note_on_c, 0, 76, 70
1, 78924, Note_on_c, 0, 75, 59
1, 78954, Note_off_c, 0, 76, 63
1, 78977, Note_off_c, 0, 75, 65
1, 78983, Control_c, 0, 64, 60
1, 78993, Note_on_c, 0, 74, 63
1, 78998, Control_c, 0, 64, 70
1, 79013, Control_c, 0, 64, 79
1, 79027, Control_c, 0, 64, 84
1, 79037, Note_off_c, 0, 74, 61
1, 79042, Control_c, 0, 64, 85
1, 79057, Note_on_c, 0, 75, 56
1, 79057, Control_c, 0, 64, 86
1, 79059, Note_on_c, 0, 76, 66
1, 79079, Control_c, 0, 64, 87
1, 79086, Note_off_c, 0, 76, 65
1, 79094, Control_c, 0, 64, 88
1, 79100, Note_off_c, 0, 75, 67
1, 79109, Control_c, 0, 64, 89
1, 79116, Note_on_c, 0, 74, 68
1, 79119, Note_off_c, 0, 47, 60
1, 79124, Control_c, 0, 64, 90
1, 79139, Control_c, 0, 64, 91
1, 79153, Control_c, 0, 64, 92
1, 79155, Note_off_c, 0, 74, 65
1, 79164, Note_on_c, 0, 76, 64
1, 79168, Control_c, 0, 64, 93
1, 79181, Note_off_c, 0, 59, 53
1, 79183, Control_c, 0, 64, 94
1, 79184, Note_off_c, 0, 76, 67
1, 79188, Note_on_c, 0, 75, 50
1, 79198, Control_c, 0, 64, 96
1, 79213, Note_off_c, 0, 75, 66
1, 79213, Control_c, 0, 64, 97
1, 79221, Note_on_c, 0, 74, 67
1, 79227, Control_c, 0, 64, 97
1, 79242, Control_c, 0, 64, 98
1, 79257, Control_c, 0, 64, 98
1, 79264, Note_off_c, 0, 74, 62
1, 79270, Note_on_c, 0, 76, 65
1, 79286, Control_c, 0, 64, 99
1, 79288, Note_off_c, 0, 76, 65
1, 79296, Note_on_c, 0, 75, 53
1, 79315, Note_on_c, 0, 74, 66
1, 79316, Control_c, 0, 64, 99
1, 79321, Note_off_c, 0, 75, 62
1, 79337, Note_off_c, 0, 74, 70
1, 79360, Control_c, 0, 64, 100
1, 79375, Control_c, 0, 64, 101
1, 79390, Control_c, 0, 64, 103
1, 79404, Control_c, 0, 64, 105
1, 79419, Control_c, 0, 64, 105
1, 79449, Control_c, 0, 64, 104
1, 79457, Note_on_c, 0, 76, 91
1, 79463, Note_on_c, 0, 68, 85
1, 79464, Control_c, 0, 64, 95
1, 79465, Note_on_c, 0, 66, 93
1, 79469, Note_on_c, 0, 63, 99
1, 79473, Note_on_c, 0, 73, 74
1, 79476, Note_on_c, 0, 52, 78
1, 79476, Note_on_c, 0, 71, 75
1, 79477, Note_on_c, 0, 60, 74
1, 79479, Note_on_c, 0, 58, 74
1, 79479, Control_c, 0, 64, 78
1, 79489, Note_on_c, 0, 55, 63
1, 79494, Control_c, 0, 64, 0
1, 79583, Control_c, 0, 64, 65
1, 79598, Control_c, 0, 64, 70
1, 79612, Control_c, 0, 64, 74
1, 79627, Control_c, 0, 64, 77
1, 79640, Note_off_c, 0, 71, 49
1, 79642, Control_c, 0, 64, 81
1, 79657, Control_c, 0, 64, 83
1, 79660, Note_off_c, 0, 52, 53
1, 79669, Note_off_c, 0, 73, 52
1, 79671, Control_c, 0, 64, 85
1, 79674, Note_off_c, 0, 60, 48
1, 79683, Note_off_c, 0, 68, 63
1, 79686, Control_c, 0, 64, 86
1, 79689, Note_off_c, 0, 58, 56
1, 79698, Note_off_c, 0, 76, 62
1, 79699, Note_off_c, 0, 55, 37
1, 79701, Control_c, 0, 64, 87
1, 79716, Control_c, 0, 64, 89
1, 79731, Control_c, 0, 64, 90
1, 79747, Control_c, 0, 64, 91
1, 79762, Control_c, 0, 64, 92
1, 79776, Note_off_c, 0, 63, 59
1, 79776, Control_c, 0, 64, 93
1, 79791, Control_c, 0, 64, 94
1, 79806, Control_c, 0, 64, 95
1, 79828, Control_c, 0, 64, 95
1, 79843, Control_c, 0, 64, 96
1, 79857, Control_c, 0, 64, 96
1, 79872, Control_c, 0, 64, 97
1, 79877, Note_off_c, 0, 66, 62
1, 79887, Control_c, 0, 64, 98
1, 79902, Control_c, 0, 64, 100
1, 79917, Control_c, 0, 64, 102
1, 79932, Control_c, 0, 64, 104
1, 79947, Control_c, 0, 64, 104
1, 79962, Control_c, 0, 64, 104
1, 79991, Control_c, 0, 64, 97
1, 79994, Note_on_c, 0, 78, 103
1, 79997, Note_on_c, 0, 67, 97
1, 79999, Note_on_c, 0, 70, 88
1, 80003, Note_on_c, 0, 65, 88
1, 80003, Note_on_c, 0, 76, 79
1, 80006, Note_on_c, 0, 62, 78
1, 80006, Control_c, 0, 64, 82
1, 80006, Note_on_c, 0, 54, 81
1, 80010, Note_on_c, 0, 59, 70
1, 80014, Note_on_c, 0, 57, 66
1, 80021, Control_c, 0, 64, 50
1, 80035, Control_c, 0, 64, 0
1, 80080, Control_c, 0, 64, 57
1, 80095, Control_c, 0, 64, 70
1, 80106, Note_off_c, 0, 57, 51
1, 80109, Control_c, 0, 64, 79
1, 80117, Note_off_c, 0, 59, 57
1, 80124, Control_c, 0, 64, 86
1, 80139, Note_off_c, 0, 54, 55
1, 80139, Note_off_c, 0, 62, 59
1, 80139, Note_off_c, 0, 76, 55
1, 80139, Control_c, 0, 64, 89
1, 80154, Control_c, 0, 64, 89
1, 80176, Note_off_c, 0, 70, 58
1, 80183, Control_c, 0, 64, 90
1, 80209, Note_off_c, 0, 78, 61
1, 80213, Control_c, 0, 64, 90
1, 80222, Note_off_c, 0, 65, 59
1, 80242, Control_c, 0, 64, 91
1, 80272, Control_c, 0, 64, 91
1, 80287, Control_c, 0, 64, 92
1, 80301, Control_c, 0, 64, 92
1, 80316, Control_c, 0, 64, 93
1, 80331, Control_c, 0, 64, 93
1, 80346, Control_c, 0, 64, 94
1, 80361, Control_c, 0, 64, 95
1, 80370, Note_off_c, 0, 67, 46
1, 80376, Control_c, 0, 64, 97
1, 80391, Control_c, 0, 64, 99
1, 80406, Control_c, 0, 64, 101
1, 80421, Control_c, 0, 64, 101
1, 80435, Control_c, 0, 64, 101
1, 80450, Control_c, 0, 64, 96
1, 80462, Note_on_c, 0, 69, 97
1, 80462, Note_on_c, 0, 81, 100
1, 80462, Note_on_c, 0, 72, 91
1, 80465, Control_c, 0, 64, 81
1, 80468, Note_on_c, 0, 68, 97
1, 80470, Note_on_c, 0, 75, 85
1, 80471, Note_on_c, 0, 78, 88
1, 80473, Note_on_c, 0, 57, 77
1, 80474, Note_on_c, 0, 64, 79
1, 80480, Control_c, 0, 64, 53
1, 80480, Note_on_c, 0, 59, 67
1, 80495, Control_c, 0, 64, 0
1, 80540, Control_c, 0, 64, 66
1, 80546, Note_off_c, 0, 69, 62
1, 80555, Control_c, 0, 64, 78
1, 80578, Control_c, 0, 64, 89
1, 80587, Note_off_c, 0, 57, 57
1, 80593, Control_c, 0, 64, 93
1, 80596, Note_off_c, 0, 72, 62
1, 80607, Control_c, 0, 64, 93
1, 80613, Note_off_c, 0, 59, 58
1, 80621, Note_off_c, 0, 68, 61
1, 80629, Note_off_c, 0, 75, 62
1, 80637, Control_c, 0, 64, 94
1, 80650, Note_off_c, 0, 78, 61
1, 80650, Note_off_c, 0, 64, 51
1, 80665, Note_off_c, 0, 81, 59
1, 80666, Control_c, 0, 64, 94
1, 80696, Control_c, 0, 64, 95
1, 80725, Control_c, 0, 64, 95
1, 80740, Control_c, 0, 64, 96
1, 80755, Control_c, 0, 64, 96
1, 80770, Control_c, 0, 64, 97
1, 80785, Control_c, 0, 64, 99
1, 80799, Control_c, 0, 64, 102
1, 80814, Control_c, 0, 64, 107
1, 80829, Control_c, 0, 64, 114
1, 80844, Control_c, 0, 64, 126
1, 80859, Control_c, 0, 64, 127
1, 80889, Control_c, 0, 64, 126
1, 80903, Control_c, 0, 64, 106
1, 80918, Note_on_c, 0, 83, 100
1, 80918, Control_c, 0, 64, 86
1, 80919, Note_on_c, 0, 70, 111
1, 80921, Note_on_c, 0, 69, 94
1, 80925, Note_on_c, 0, 80, 92
1, 80925, Note_on_c, 0, 78, 89
1, 80927, Note_on_c, 0, 64, 74
1, 80928, Note_on_c, 0, 59, 81
1, 80929, Note_on_c, 0, 62, 76
1, 80933, Control_c, 0, 64, 63
1, 80948, Control_c, 0, 64, 0
1, 80958, Note_off_c, 0, 70, 60
1, 80963, Control_c, 0, 64, 50
1, 80976, Note_off_c, 0, 83, 58
1, 80978, Control_c, 0, 64, 67
1, 80984, Note_off_c, 0, 59, 61
1, 80984, Note_off_c, 0, 69, 55
1, 80993, Control_c, 0, 64, 77
1, 81002, Note_off_c, 0, 62, 61
1, 81007, Control_c, 0, 64, 89
1, 81020, Note_off_c, 0, 64, 58
1, 81021, Note_off_c, 0, 78, 63
1, 81022, Control_c, 0, 64, 98
1, 81037, Control_c, 0, 64, 101
1, 81051, Control_c, 0, 64, 102
1, 81066, Control_c, 0, 64, 103
1, 81067, Note_off_c, 0, 80, 61
1, 81081, Control_c, 0, 64, 104
1, 81096, Control_c, 0, 64, 105
1, 81111, Control_c, 0, 64, 108
1, 81125, Control_c, 0, 64, 115
1, 81140, Control_c, 0, 64, 127
1, 81375, Note_on_c, 0, 88, 96
1, 81377, Note_on_c, 0, 80, 92
1, 81378, Note_on_c, 0, 78, 100
1, 81382, Note_on_c, 0, 75, 98
1, 81386, Note_on_c, 0, 83, 81
1, 81386, Note_on_c, 0, 85, 81
1, 81386, Control_c, 0, 64, 117
1, 81388, Note_on_c, 0, 64, 78
1, 81390, Note_on_c, 0, 72, 77
1, 81395, Note_on_c, 0, 70, 72
1, 81401, Control_c, 0, 64, 86
1, 81402, Note_on_c, 0, 67, 71
1, 81416, Control_c, 0, 64, 0
1, 81475, Control_c, 0, 64, 67
1, 81489, Control_c, 0, 64, 83
1, 81504, Control_c, 0, 64, 102
1, 81508, Note_off_c, 0, 83, 52
1, 81512, Note_off_c, 0, 64, 57
1, 81515, Note_off_c, 0, 85, 62
1, 81519, Control_c, 0, 64, 108
1, 81525, Note_off_c, 0, 88, 61
1, 81526, Note_off_c, 0, 67, 57
1, 81531, Note_off_c, 0, 80, 62
1, 81535, Note_off_c, 0, 70, 60
1, 81536, Note_off_c, 0, 72, 61
1, 81548, Control_c, 0, 64, 108
1, 81622, Note_off_c, 0, 75, 60
1, 81711, Control_c, 0, 64, 109
1, 81736, Note_off_c, 0, 78, 59
1, 81741, Control_c, 0, 64, 109
1, 81756, Control_c, 0, 64, 110
1, 81771, Control_c, 0, 64, 112
1, 81786, Control_c, 0, 64, 114
1, 81800, Control_c, 0, 64, 115
1, 81815, Control_c, 0, 64, 114
1, 81830, Control_c, 0, 64, 110
1, 81831, Note_on_c, 0, 90, 98
1, 81834, Note_on_c, 0, 79, 99
1, 81834, Note_on_c, 0, 82, 92
1, 81838, Note_on_c, 0, 77, 92
1, 81839, Note_on_c, 0, 88, 79
1, 81843, Note_on_c, 0, 66, 81
1, 81844, Note_on_c, 0, 74, 77
1, 81845, Control_c, 0, 64, 95
1, 81848, Note_on_c, 0, 71, 72
1, 81849, Note_on_c, 0, 69, 73
1, 81860, Control_c, 0, 64, 74
1, 81874, Control_c, 0, 64, 0
1, 81904, Control_c, 0, 64, 50
1, 81919, Control_c, 0, 64, 71
1, 81934, Control_c, 0, 64, 84
1, 81948, Control_c, 0, 64, 97
1, 81963, Control_c, 0, 64, 102
1, 81979, Note_off_c, 0, 66, 61
1, 81980, Note_off_c, 0, 69, 57
1, 81987, Note_off_c, 0, 71, 50
1, 82010, Note_off_c, 0, 74, 59
1, 82021, Note_off_c, 0, 88, 46
1, 82022, Control_c, 0, 64, 103
1, 82056, Note_off_c, 0, 77, 52
1, 82064, Note_off_c, 0, 82, 59
1, 82085, Note_off_c, 0, 90, 60
1, 82104, Control_c, 0, 64, 103
1, 82134, Control_c, 0, 64, 104
1, 82149, Control_c, 0, 64, 105
1, 82164, Control_c, 0, 64, 105
1, 82179, Control_c, 0, 64, 106
1, 82194, Control_c, 0, 64, 107
1, 82209, Control_c, 0, 64, 108
1, 82224, Control_c, 0, 64, 108
1, 82230, Note_off_c, 0, 79, 44
1, 82238, Control_c, 0, 64, 109
1, 82253, Control_c, 0, 64, 110
1, 82268, Control_c, 0, 64, 112
1, 82283, Control_c, 0, 64, 114
1, 82298, Control_c, 0, 64, 115
1, 82327, Control_c, 0, 64, 114
1, 82335, Note_on_c, 0, 81, 111
1, 82339, Note_on_c, 0, 93, 104
1, 82340, Note_on_c, 0, 84, 95
1, 82342, Control_c, 0, 64, 103
1, 82343, Note_on_c, 0, 80, 97
1, 82346, Note_on_c, 0, 90, 86
1, 82346, Note_on_c, 0, 69, 83
1, 82349, Note_on_c, 0, 87, 77
1, 82351, Note_on_c, 0, 76, 83
1, 82355, Note_on_c, 0, 71, 72
1, 82357, Control_c, 0, 64, 83
1, 82372, Control_c, 0, 64, 0
1, 82430, Control_c, 0, 64, 68
1, 82445, Control_c, 0, 64, 80
1, 82451, Note_off_c, 0, 81, 44
1, 82460, Control_c, 0, 64, 96
1, 82475, Control_c, 0, 64, 103
1, 82490, Control_c, 0, 64, 104
1, 82504, Control_c, 0, 64, 104
1, 82519, Control_c, 0, 64, 105
1, 82527, Note_off_c, 0, 84, 61
1, 82530, Note_off_c, 0, 69, 55
1, 82545, Note_off_c, 0, 87, 34
1, 82549, Control_c, 0, 64, 105
1, 82564, Control_c, 0, 64, 106
1, 82570, Note_off_c, 0, 71, 54
1, 82579, Control_c, 0, 64, 106
1, 82594, Control_c, 0, 64, 107
1, 82606, Note_off_c, 0, 76, 36
1, 82609, Control_c, 0, 64, 107
1, 82618, Note_off_c, 0, 90, 36
1, 82622, Note_off_c, 0, 80, 51
1, 82623, Control_c, 0, 64, 108
1, 82638, Control_c, 0, 64, 109
1, 82653, Control_c, 0, 64, 110
1, 82668, Control_c, 0, 64, 110
1, 82676, Note_off_c, 0, 93, 53
1, 82683, Control_c, 0, 64, 111
1, 82712, Control_c, 0, 64, 111
1, 82742, Control_c, 0, 64, 112
1, 82757, Control_c, 0, 64, 112
1, 82785, Control_c, 0, 64, 113
1, 82837, Control_c, 0, 64, 113
1, 82852, Control_c, 0, 64, 114
1, 82867, Control_c, 0, 64, 116
1, 82882, Control_c, 0, 64, 119
1, 82896, Control_c, 0, 64, 121
1, 82911, Control_c, 0, 64, 123
1, 82941, Control_c, 0, 64, 120
1, 82957, Control_c, 0, 64, 106
1, 82960, Note_on_c, 0, 95, 106
1, 82961, Note_on_c, 0, 82, 108
1, 82966, Note_on_c, 0, 92, 99
1, 82967, Note_on_c, 0, 71, 85
1, 82967, Note_on_c, 0, 81, 93
1, 82967, Note_on_c, 0, 90, 94
1, 82972, Control_c, 0, 64, 89
1, 82973, Note_on_c, 0, 76, 78
1, 82978, Note_on_c, 0, 74, 73
1, 82987, Control_c, 0, 64, 73
1, 82999, Note_off_c, 0, 95, 63
1, 83001, Control_c, 0, 64, 64
1, 83004, Note_off_c, 0, 82, 53
1, 83016, Control_c, 0, 64, 67
1, 83031, Control_c, 0, 64, 76
1, 83046, Control_c, 0, 64, 90
1, 83050, Note_off_c, 0, 71, 54
1, 83060, Control_c, 0, 64, 99
1, 83061, Note_off_c, 0, 90, 61
1, 83065, Note_off_c, 0, 92, 64
1, 83075, Control_c, 0, 64, 102
1, 83079, Note_off_c, 0, 74, 62
1, 83079, Note_off_c, 0, 81, 52
1, 83090, Control_c, 0, 64, 102
1, 83103, Note_off_c, 0, 76, 51
1, 83105, Control_c, 0, 64, 103
1, 83134, Control_c, 0, 64, 103
1, 83164, Control_c, 0, 64, 104
1, 83179, Control_c, 0, 64, 104
1, 83194, Control_c, 0, 64, 105
1, 83208, Control_c, 0, 64, 105
1, 83223, Control_c, 0, 64, 106
1, 83238, Control_c, 0, 64, 106
1, 83252, Control_c, 0, 64, 107
1, 83267, Control_c, 0, 64, 108
1, 83282, Control_c, 0, 64, 109
1, 83297, Control_c, 0, 64, 109
1, 83312, Control_c, 0, 64, 110
1, 83327, Control_c, 0, 64, 110
1, 83357, Control_c, 0, 64, 111
1, 83372, Control_c, 0, 64, 111
1, 83401, Control_c, 0, 64, 112
1, 83416, Control_c, 0, 64, 112
1, 83431, Control_c, 0, 64, 113
1, 83445, Control_c, 0, 64, 113
1, 83460, Control_c, 0, 64, 114
1, 83475, Control_c, 0, 64, 115
1, 83490, Control_c, 0, 64, 116
1, 83505, Control_c, 0, 64, 118
1, 83519, Control_c, 0, 64, 120
1, 83534, Control_c, 0, 64, 122
1, 83549, Control_c, 0, 64, 125
1, 83571, Control_c, 0, 64, 127
1, 83677, Note_on_c, 0, 97, 107
1, 83678, Note_on_c, 0, 88, 109
1, 83679, Note_on_c, 0, 93, 99
1, 83682, Note_on_c, 0, 90, 94
1, 83687, Note_on_c, 0, 84, 98
1, 83690, Note_on_c, 0, 73, 86
1, 83690, Control_c, 0, 64, 122
1, 83691, Note_on_c, 0, 81, 86
1, 83692, Note_on_c, 0, 78, 80
1, 83693, Note_on_c, 0, 76, 77
1, 83705, Control_c, 0, 64, 94
1, 83719, Control_c, 0, 64, 63
1, 83734, Control_c, 0, 64, 0
1, 83839, Control_c, 0, 64, 63
1, 83854, Control_c, 0, 64, 68
1, 83868, Control_c, 0, 64, 72
1, 83883, Control_c, 0, 64, 78
1, 83898, Control_c, 0, 64, 85
1, 83913, Control_c, 0, 64, 88
1, 83928, Control_c, 0, 64, 91
1, 83943, Control_c, 0, 64, 95
1, 83957, Control_c, 0, 64, 100
1, 83972, Control_c, 0, 64, 102
1, 83987, Control_c, 0, 64, 102
1, 83989, Note_off_c, 0, 88, 35
1, 84016, Control_c, 0, 64, 103
1, 84061, Control_c, 0, 64, 103
1, 84078, Note_off_c, 0, 78, 33
1, 84090, Control_c, 0, 64, 105
1, 84105, Control_c, 0, 64, 106
1, 84120, Control_c, 0, 64, 108
1, 84122, Note_off_c, 0, 84, 30
1, 84130, Note_off_c, 0, 93, 44
1, 84135, Control_c, 0, 64, 111
1, 84145, Note_off_c, 0, 73, 29
1, 84150, Control_c, 0, 64, 113
1, 84156, Note_off_c, 0, 90, 43
1, 84165, Control_c, 0, 64, 115
1, 84179, Control_c, 0, 64, 117
1, 84194, Control_c, 0, 64, 118
1, 84200, Note_off_c, 0, 81, 33
1, 84209, Control_c, 0, 64, 120
1, 84224, Control_c, 0, 64, 121
1, 84239, Control_c, 0, 64, 121
1, 84254, Control_c, 0, 64, 122
1, 84268, Control_c, 0, 64, 122
1, 84284, Control_c, 0, 64, 123
1, 84299, Control_c, 0, 64, 125
1, 84314, Control_c, 0, 64, 126
1, 84336, Control_c, 0, 64, 127
1, 84378, Note_off_c, 0, 97, 0
1, 84415, Poly_aftertouch_c, 0, 97, 127
1, 84482, Poly_aftertouch_c, 0, 97, 0
1, 84504, Note_off_c, 0, 76, 4
1, 84665, Note_on_c, 0, 98, 105
1, 84668, Note_on_c, 0, 87, 104
1, 84668, Note_on_c, 0, 90, 106
1, 84671, Note_on_c, 0, 92, 97
1, 84673, Note_on_c, 0, 74, 86
1, 84677, Note_on_c, 0, 83, 93
1, 84678, Note_on_c, 0, 84, 105
1, 84685, Note_on_c, 0, 76, 79
1, 84686, Note_on_c, 0, 79, 78
1, 84693, Note_off_c, 0, 87, 63
1, 84698, Note_off_c, 0, 98, 68
1, 84708, Note_off_c, 0, 84, 68
1, 84710, Note_off_c, 0, 90, 63
1, 84711, Note_off_c, 0, 74, 67
1, 84714, Note_off_c, 0, 92, 68
1, 84716, Note_off_c, 0, 79, 63
1, 84719, Note_off_c, 0, 83, 63
1, 84730, Note_off_c, 0, 76, 65
1, 86848, Control_c, 0, 64, 125
1, 86863, Control_c, 0, 64, 123
1, 86877, Control_c, 0, 64, 121
1, 86892, Control_c, 0, 64, 119
1, 86907, Control_c, 0, 64, 117
1, 86922, Control_c, 0, 64, 116
1, 86937, Control_c, 0, 64, 115
1, 86953, Control_c, 0, 64, 113
1, 86967, Control_c, 0, 64, 112
1, 86982, Control_c, 0, 64, 111
1, 86997, Control_c, 0, 64, 110
1, 86997, Control_c, 0, 67, 8
1, 87011, Control_c, 0, 64, 109
1, 87011, Control_c, 0, 67, 9
1, 87026, Control_c, 0, 64, 108
1, 87026, Control_c, 0, 67, 10
1, 87041, Control_c, 0, 64, 107
1, 87041, Control_c, 0, 67, 10
1, 87056, Control_c, 0, 64, 105
1, 87056, Control_c, 0, 67, 12
1, 87071, Control_c, 0, 64, 104
1, 87071, Control_c, 0, 67, 13
1, 87086, Control_c, 0, 64, 104
1, 87086, Control_c, 0, 67, 15
1, 87101, Control_c, 0, 64, 103
1, 87101, Control_c, 0, 67, 15
1, 87116, Control_c, 0, 64, 102
1, 87131, Control_c, 0, 64, 101
1, 87145, Control_c, 0, 64, 100
1, 87145, Control_c, 0, 67, 16
1, 87160, Control_c, 0, 64, 99
1, 87175, Control_c, 0, 64, 97
1, 87190, Control_c, 0, 64, 96
1, 87205, Control_c, 0, 64, 95
1, 87219, Control_c, 0, 64, 94
1, 87219, Control_c, 0, 67, 16
1, 87234, Control_c, 0, 64, 93
1, 87249, Control_c, 0, 64, 92
1, 87264, Control_c, 0, 64, 91
1, 87279, Control_c, 0, 64, 91
1, 87293, Control_c, 0, 64, 90
1, 87315, Control_c, 0, 64, 89
1, 87330, Control_c, 0, 64, 88
1, 87345, Control_c, 0, 64, 87
1, 87360, Control_c, 0, 64, 86
1, 87375, Control_c, 0, 64, 85
1, 87390, Control_c, 0, 64, 84
1, 87405, Control_c, 0, 64, 83
1, 87419, Control_c, 0, 64, 82
1, 87434, Control_c, 0, 64, 80
1, 87449, Control_c, 0, 64, 78
1, 87464, Control_c, 0, 64, 76
1, 87464, Control_c, 0, 67, 17
1, 87479, Control_c, 0, 64, 74
1, 87493, Control_c, 0, 64, 71
1, 87508, Control_c, 0, 64, 68
1, 87508, Control_c, 0, 67, 17
1, 87523, Control_c, 0, 64, 65
1, 87538, Control_c, 0, 64, 63
1, 87553, Control_c, 0, 64, 62
1, 87597, Control_c, 0, 64, 61
1, 87612, Control_c, 0, 64, 61
1, 87612, Control_c, 0, 67, 18
1, 87626, Control_c, 0, 64, 60
1, 87626, Control_c, 0, 67, 19
1, 87641, Control_c, 0, 64, 59
1, 87641, Control_c, 0, 67, 23
1, 87656, Control_c, 0, 64, 58
1, 87656, Control_c, 0, 67, 27
1, 87671, Control_c, 0, 64, 56
1, 87671, Control_c, 0, 67, 29
1, 87686, Control_c, 0, 64, 54
1, 87686, Control_c, 0, 67, 31
1, 87700, Control_c, 0, 64, 53
1, 87700, Control_c, 0, 67, 33
1, 87715, Control_c, 0, 64, 50
1, 87715, Control_c, 0, 67, 37
1, 87730, Control_c, 0, 64, 47
1, 87730, Control_c, 0, 67, 41
1, 87746, Control_c, 0, 64, 44
1, 87746, Control_c, 0, 67, 48
1, 87761, Control_c, 0, 64, 40
1, 87761, Control_c, 0, 67, 53
1, 87776, Control_c, 0, 64, 36
1, 87776, Control_c, 0, 67, 58
1, 87790, Control_c, 0, 64, 30
1, 87790, Control_c, 0, 67, 63
1, 87805, Control_c, 0, 64, 20
1, 87805, Control_c, 0, 67, 69
1, 87820, Control_c, 0, 64, 0
1, 87820, Control_c, 0, 67, 76
1, 87835, Control_c, 0, 67, 85
1, 87849, Control_c, 0, 67, 92
1, 87864, Control_c, 0, 67, 99
1, 87879, Control_c, 0, 67, 107
1, 87894, Control_c, 0, 67, 116
1, 87909, Control_c, 0, 67, 125
1, 87923, Control_c, 0, 67, 127
1, 87938, Control_c, 0, 64, 14
1, 87953, Control_c, 0, 64, 27
1, 87968, Control_c, 0, 64, 37
1, 87983, Control_c, 0, 64, 43
1, 87998, Control_c, 0, 64, 48
1, 88013, Control_c, 0, 64, 51
1, 88028, Control_c, 0, 64, 53
1, 88042, Control_c, 0, 64, 56
1, 88057, Control_c, 0, 64, 58
1, 88079, Control_c, 0, 64, 60
1, 88094, Control_c, 0, 64, 62
1, 88109, Control_c, 0, 64, 63
1, 88123, Control_c, 0, 64, 64
1, 88138, Control_c, 0, 64, 65
1, 88153, Control_c, 0, 64, 66
1, 88168, Control_c, 0, 64, 67
1, 88183, Control_c, 0, 64, 69
1, 88198, Control_c, 0, 64, 70
1, 88213, Control_c, 0, 64, 73
1, 88228, Control_c, 0, 64, 75
1, 88242, Control_c, 0, 64, 77
1, 88257, Control_c, 0, 64, 79
1, 88272, Control_c, 0, 64, 80
1, 88287, Control_c, 0, 64, 81
1, 88302, Control_c, 0, 64, 83
1, 88316, Control_c, 0, 64, 85
1, 88331, Control_c, 0, 64, 87
1, 88346, Control_c, 0, 64, 88
1, 88360, Control_c, 0, 64, 89
1, 88375, Control_c, 0, 64, 89
1, 88390, Control_c, 0, 64, 90
1, 88405, Control_c, 0, 64, 90
1, 88479, Control_c, 0, 64, 91
1, 88523, Control_c, 0, 64, 91
1, 88569, Control_c, 0, 64, 92
1, 88598, Control_c, 0, 64, 92
1, 88613, Control_c, 0, 64, 93
1, 88628, Control_c, 0, 64, 93
1, 88643, Control_c, 0, 64, 94
1, 88658, Control_c, 0, 64, 94
1, 88672, Control_c, 0, 64, 95
1, 88702, Control_c, 0, 64, 95
1, 88746, Control_c, 0, 64, 96
1, 88776, Control_c, 0, 64, 96
1, 88827, Control_c, 0, 64, 97
1, 88886, Control_c, 0, 64, 97
1, 88916, Note_on_c, 0, 58, 43
1, 88918, Note_on_c, 0, 45, 12
1, 89020, Control_c, 0, 64, 98
1, 89071, Note_off_c, 0, 45, 42
1, 89090, Note_on_c, 0, 46, 39
1, 89109, Control_c, 0, 64, 98
1, 89137, Note_off_c, 0, 58, 52
1, 89152, Note_off_c, 0, 46, 50
1, 89181, Note_on_c, 0, 50, 27
1, 89217, Note_on_c, 0, 45, 17
1, 89242, Control_c, 0, 64, 99
1, 89266, Note_off_c, 0, 45, 48
1, 89271, Control_c, 0, 64, 99
1, 89274, Note_off_c, 0, 50, 32
1, 89296, Note_on_c, 0, 46, 28
1, 89347, Note_on_c, 0, 55, 49
1, 89359, Note_off_c, 0, 46, 57
1, 89386, Note_off_c, 0, 55, 63
1, 89535, Note_on_c, 0, 71, 56
1, 89569, Note_on_c, 0, 52, 42
1, 89620, Control_c, 0, 64, 100
1, 89622, Note_off_c, 0, 52, 59
1, 89648, Note_off_c, 0, 71, 49
1, 89703, Poly_aftertouch_c, 0, 53, 127
1, 89731, Note_on_c, 0, 61, 40
1, 89735, Poly_aftertouch_c, 0, 53, 0
1, 89780, Note_off_c, 0, 61, 59
1, 89879, Note_on_c, 0, 65, 39
1, 89902, Control_c, 0, 64, 100
1, 89906, Note_off_c, 0, 65, 59
1, 90052, Note_on_c, 0, 84, 67
1, 90066, Note_on_c, 0, 44, 41
1, 90082, Note_off_c, 0, 84, 59
1, 90184, Note_off_c, 0, 44, 49
1, 90210, Note_on_c, 0, 45, 46
1, 90213, Note_on_c, 0, 67, 56
1, 90261, Note_off_c, 0, 45, 58
1, 90338, Note_off_c, 0, 67, 39
1, 90362, Note_on_c, 0, 66, 60
1, 90386, Note_off_c, 0, 66, 67
1, 90444, Control_c, 0, 64, 101
1, 90533, Control_c, 0, 64, 101
1, 90560, Note_on_c, 0, 90, 55
1, 90574, Note_on_c, 0, 34, 36
1, 90585, Note_off_c, 0, 90, 54
1, 90613, Note_off_c, 0, 34, 51
1, 90703, Note_on_c, 0, 35, 33
1, 90731, Note_on_c, 0, 72, 58
1, 90742, Note_off_c, 0, 35, 49
1, 90767, Note_on_c, 0, 34, 29
1, 90817, Note_off_c, 0, 34, 53
1, 90824, Note_off_c, 0, 72, 57
1, 90853, Note_on_c, 0, 35, 41
1, 90884, Note_on_c, 0, 77, 53
1, 90887, Note_off_c, 0, 35, 55
1, 90964, Control_c, 0, 64, 101
1, 90978, Control_c, 0, 64, 100
1, 90993, Control_c, 0, 64, 96
1, 91008, Control_c, 0, 64, 90
1, 91023, Control_c, 0, 64, 81
1, 91038, Control_c, 0, 64, 69
1, 91059, Control_c, 0, 64, 0
1, 91068, Note_off_c, 0, 77, 51
1, 91070, Note_on_c, 0, 28, 39
1, 91075, Note_on_c, 0, 76, 51
1, 91113, Note_off_c, 0, 28, 57
1, 91164, Control_c, 0, 64, 51
1, 91179, Control_c, 0, 64, 64
1, 91193, Control_c, 0, 64, 69
1, 91200, Note_off_c, 0, 76, 58
1, 91208, Control_c, 0, 64, 75
1, 91222, Note_on_c, 0, 28, 42
1, 91223, Control_c, 0, 64, 82
1, 91238, Control_c, 0, 64, 85
1, 91253, Control_c, 0, 64, 86
1, 91267, Control_c, 0, 64, 87
1, 91274, Note_off_c, 0, 28, 56
1, 91281, Poly_aftertouch_c, 0, 29, 0
1, 91282, Control_c, 0, 64, 87
1, 91297, Control_c, 0, 64, 88
1, 91299, Note_on_c, 0, 29, 23
1, 91312, Control_c, 0, 64, 88
1, 91341, Control_c, 0, 64, 89
1, 91349, Note_off_c, 0, 29, 49
1, 91360, Note_on_c, 0, 28, 39
1, 91404, Note_off_c, 0, 28, 59
1, 91418, Note_on_c, 0, 29, 46
1, 91430, Control_c, 0, 64, 89
1, 91465, Note_off_c, 0, 29, 57
1, 91682, Control_c, 0, 64, 88
1, 91690, Note_on_c, 0, 57, 60
1, 91697, Control_c, 0, 64, 85
1, 91712, Control_c, 0, 64, 79
1, 91727, Control_c, 0, 64, 69
1, 91742, Control_c, 0, 64, 25
1, 91757, Control_c, 0, 64, 0
1, 91787, Control_c, 0, 64, 47
1, 91808, Poly_aftertouch_c, 0, 46, 0
1, 91808, Control_c, 0, 64, 63
1, 91823, Control_c, 0, 64, 67
1, 91831, Note_on_c, 0, 47, 37
1, 91838, Control_c, 0, 64, 70
1, 91853, Control_c, 0, 64, 72
1, 91865, Note_off_c, 0, 47, 52
1, 91868, Control_c, 0, 64, 75
1, 91881, Note_on_c, 0, 51, 56
1, 91882, Control_c, 0, 64, 78
1, 91894, Note_off_c, 0, 57, 54
1, 91897, Control_c, 0, 64, 80
1, 91912, Note_on_c, 0, 46, 42
1, 91912, Control_c, 0, 64, 82
1, 91927, Control_c, 0, 64, 83
1, 91942, Control_c, 0, 64, 84
1, 91948, Note_off_c, 0, 46, 45
1, 91955, Note_off_c, 0, 51, 58
1, 91958, Note_on_c, 0, 47, 39
1, 91972, Control_c, 0, 64, 85
1, 91995, Note_on_c, 0, 56, 62
1, 91998, Note_off_c, 0, 47, 53
1, 92025, Note_off_c, 0, 56, 65
1, 92031, Control_c, 0, 64, 85
1, 92061, Control_c, 0, 64, 86
1, 92090, Control_c, 0, 64, 86
1, 92120, Control_c, 0, 64, 86
1, 92135, Control_c, 0, 64, 84
1, 92150, Control_c, 0, 64, 79
1, 92158, Note_on_c, 0, 70, 69
1, 92164, Control_c, 0, 64, 69
1, 92170, Note_on_c, 0, 51, 41
1, 92179, Control_c, 0, 64, 44
1, 92194, Control_c, 0, 64, 0
1, 92210, Note_off_c, 0, 51, 51
1, 92223, Control_c, 0, 64, 62
1, 92238, Control_c, 0, 64, 68
1, 92253, Control_c, 0, 64, 72
1, 92258, Note_on_c, 0, 52, 39
1, 92268, Control_c, 0, 64, 76
1, 92282, Control_c, 0, 64, 79
1, 92286, Note_off_c, 0, 52, 54
1, 92290, Note_on_c, 0, 62, 60
1, 92294, Note_off_c, 0, 70, 57
1, 92297, Control_c, 0, 64, 80
1, 92312, Control_c, 0, 64, 81
1, 92317, Note_on_c, 0, 51, 49
1, 92327, Control_c, 0, 64, 81
1, 92341, Control_c, 0, 64, 82
1, 92351, Note_off_c, 0, 51, 62
1, 92356, Control_c, 0, 64, 83
1, 92371, Control_c, 0, 64, 83
1, 92380, Note_off_c, 0, 62, 47
1, 92383, Note_on_c, 0, 52, 46
1, 92386, Control_c, 0, 64, 84
1, 92401, Control_c, 0, 64, 84
1, 92410, Note_on_c, 0, 66, 67
1, 92410, Note_off_c, 0, 52, 51
1, 92416, Control_c, 0, 64, 85
1, 92431, Control_c, 0, 64, 86
1, 92439, Note_off_c, 0, 66, 68
1, 92446, Control_c, 0, 64, 87
1, 92460, Control_c, 0, 64, 88
1, 92505, Control_c, 0, 64, 87
1, 92520, Control_c, 0, 64, 85
1, 92535, Control_c, 0, 64, 78
1, 92550, Control_c, 0, 64, 68
1, 92568, Note_on_c, 0, 83, 69
1, 92572, Control_c, 0, 64, 26
1, 92587, Control_c, 0, 64, 0
1, 92591, Note_on_c, 0, 43, 40
1, 92592, Note_off_c, 0, 83, 63
1, 92602, Control_c, 0, 64, 18
1, 92617, Control_c, 0, 64, 64
1, 92631, Control_c, 0, 64, 70
1, 92640, Note_off_c, 0, 43, 52
1, 92642, Note_on_c, 0, 44, 49
1, 92646, Control_c, 0, 64, 75
1, 92661, Control_c, 0, 64, 79
1, 92676, Control_c, 0, 64, 80
1, 92687, Note_off_c, 0, 44, 59
1, 92691, Control_c, 0, 64, 81
1, 92720, Note_on_c, 0, 68, 56
1, 92720, Control_c, 0, 64, 81
1, 92750, Control_c, 0, 64, 82
1, 92765, Control_c, 0, 64, 83
1, 92779, Control_c, 0, 64, 84
1, 92780, Note_off_c, 0, 68, 64
1, 92794, Control_c, 0, 64, 86
1, 92809, Note_on_c, 0, 67, 61
1, 92809, Control_c, 0, 64, 87
1, 92811, Note_on_c, 0, 44, 8
1, 92824, Control_c, 0, 64, 88
1, 92838, Note_off_c, 0, 67, 64
1, 92839, Control_c, 0, 64, 88
1, 92839, Note_off_c, 0, 44, 0
1, 92854, Control_c, 0, 64, 89
1, 92857, Poly_aftertouch_c, 0, 44, 0
1, 92869, Control_c, 0, 64, 89
1, 92884, Control_c, 0, 64, 90
1, 92928, Control_c, 0, 64, 90
1, 92957, Control_c, 0, 64, 91
1, 93015, Note_on_c, 0, 91, 43
1, 93017, Control_c, 0, 64, 91
1, 93022, Note_on_c, 0, 35, 45
1, 93040, Note_off_c, 0, 91, 37
1, 93069, Note_off_c, 0, 35, 55
1, 93076, Control_c, 0, 64, 92
1, 93117, Note_on_c, 0, 36, 39
1, 93152, Note_off_c, 0, 36, 54
1, 93156, Note_on_c, 0, 73, 60
1, 93196, Note_on_c, 0, 35, 49
1, 93236, Note_off_c, 0, 35, 62
1, 93265, Note_on_c, 0, 36, 45
1, 93280, Note_off_c, 0, 73, 31
1, 93295, Note_off_c, 0, 36, 59
1, 93311, Note_on_c, 0, 78, 66
1, 93380, Control_c, 0, 64, 91
1, 93395, Control_c, 0, 64, 88
1, 93409, Control_c, 0, 64, 80
1, 93424, Control_c, 0, 64, 68
1, 93439, Control_c, 0, 64, 0
1, 93467, Note_on_c, 0, 76, 54
1, 93471, Note_on_c, 0, 28, 43
1, 93472, Note_off_c, 0, 78, 58
1, 93498, Control_c, 0, 64, 57
1, 93513, Note_off_c, 0, 28, 58
1, 93513, Control_c, 0, 64, 65
1, 93528, Control_c, 0, 64, 68
1, 93543, Control_c, 0, 64, 71
1, 93545, Note_off_c, 0, 76, 58
1, 93557, Control_c, 0, 64, 74
1, 93560, Note_on_c, 0, 29, 35
1, 93572, Control_c, 0, 64, 77
1, 93587, Control_c, 0, 64, 80
1, 93602, Control_c, 0, 64, 82
1, 93605, Note_off_c, 0, 29, 42
1, 93614, Note_on_c, 0, 28, 50
1, 93617, Control_c, 0, 64, 83
1, 93632, Control_c, 0, 64, 84
1, 93647, Control_c, 0, 64, 85
1, 93653, Note_off_c, 0, 28, 61
1, 93691, Control_c, 0, 64, 85
1, 93692, Note_on_c, 0, 29, 34
1, 93730, Note_off_c, 0, 29, 54
1, 93735, Control_c, 0, 64, 86
1, 93753, Note_on_c, 0, 28, 44
1, 93778, Note_off_c, 0, 28, 57
1, 93847, Poly_aftertouch_c, 0, 29, 127
1, 93891, Poly_aftertouch_c, 0, 29, 0
1, 93987, Control_c, 0, 64, 83
1, 94002, Control_c, 0, 64, 77
1, 94008, Note_on_c, 0, 56, 64
1, 94017, Control_c, 0, 64, 67
1, 94032, Note_on_c, 0, 47, 44
1, 94032, Control_c, 0, 64, 49
1, 94047, Control_c, 0, 64, 52
1, 94069, Control_c, 0, 64, 62
1, 94076, Note_off_c, 0, 47, 58
1, 94084, Control_c, 0, 64, 67
1, 94099, Control_c, 0, 64, 72
1, 94103, Note_on_c, 0, 48, 46
1, 94114, Control_c, 0, 64, 77
1, 94129, Control_c, 0, 64, 79
1, 94138, Note_off_c, 0, 48, 59
1, 94143, Note_off_c, 0, 56, 63
1, 94145, Control_c, 0, 64, 81
1, 94159, Note_on_c, 0, 52, 59
1, 94159, Control_c, 0, 64, 81
1, 94174, Control_c, 0, 64, 82
1, 94189, Control_c, 0, 64, 82
1, 94198, Note_on_c, 0, 47, 44
1, 94199, Note_off_c, 0, 52, 63
1, 94204, Control_c, 0, 64, 83
1, 94218, Control_c, 0, 64, 84
1, 94233, Control_c, 0, 64, 85
1, 94248, Control_c, 0, 64, 86
1, 94250, Note_off_c, 0, 47, 46
1, 94255, Note_on_c, 0, 57, 72
1, 94263, Control_c, 0, 64, 88
1, 94271, Note_on_c, 0, 48, 44
1, 94278, Control_c, 0, 64, 88
1, 94295, Note_off_c, 0, 48, 61
1, 94312, Note_off_c, 0, 57, 57
1, 94337, Control_c, 0, 64, 87
1, 94352, Control_c, 0, 64, 83
1, 94366, Control_c, 0, 64, 76
1, 94371, Note_on_c, 0, 69, 75
1, 94381, Control_c, 0, 64, 65
1, 94396, Control_c, 0, 64, 29
1, 94410, Control_c, 0, 64, 44
1, 94415, Note_on_c, 0, 50, 52
1, 94425, Control_c, 0, 64, 63
1, 94440, Control_c, 0, 64, 69
1, 94455, Control_c, 0, 64, 74
1, 94470, Control_c, 0, 64, 78
1, 94481, Note_off_c, 0, 69, 60
1, 94484, Control_c, 0, 64, 81
1, 94499, Control_c, 0, 64, 81
1, 94504, Note_on_c, 0, 63, 69
1, 94514, Control_c, 0, 64, 82
1, 94515, Note_off_c, 0, 50, 61
1, 94529, Control_c, 0, 64, 82
1, 94543, Note_off_c, 0, 63, 60
1, 94544, Control_c, 0, 64, 83
1, 94553, Note_on_c, 0, 51, 40
1, 94559, Control_c, 0, 64, 83
1, 94574, Control_c, 0, 64, 84
1, 94584, Note_off_c, 0, 51, 49
1, 94589, Control_c, 0, 64, 85
1, 94601, Note_on_c, 0, 67, 68
1, 94603, Control_c, 0, 64, 87
1, 94618, Control_c, 0, 64, 87
1, 94633, Control_c, 0, 64, 88
1, 94635, Note_off_c, 0, 67, 62
1, 94692, Control_c, 0, 64, 87
1, 94707, Control_c, 0, 64, 82
1, 94721, Control_c, 0, 64, 73
1, 94736, Control_c, 0, 64, 62
1, 94737, Note_on_c, 0, 82, 79
1, 94751, Control_c, 0, 64, 0
1, 94766, Control_c, 0, 64, 27
1, 94781, Control_c, 0, 64, 60
1, 94792, Note_off_c, 0, 82, 47
1, 94796, Control_c, 0, 64, 67
1, 94818, Control_c, 0, 64, 73
1, 94833, Control_c, 0, 64, 78
1, 94848, Control_c, 0, 64, 81
1, 94850, Note_on_c, 0, 69, 65
1, 94863, Control_c, 0, 64, 81
1, 94875, Note_on_c, 0, 43, 47
1, 94878, Control_c, 0, 64, 82
1, 94892, Control_c, 0, 64, 83
1, 94907, Control_c, 0, 64, 84
1, 94911, Note_off_c, 0, 43, 50
1, 94922, Control_c, 0, 64, 85
1, 94938, Control_c, 0, 64, 86
1, 94949, Note_off_c, 0, 69, 39
1, 94952, Control_c, 0, 64, 87
1, 94960, Note_on_c, 0, 42, 34
1, 94966, Note_on_c, 0, 68, 61
1, 94967, Control_c, 0, 64, 87
1, 94982, Control_c, 0, 64, 88
1, 94994, Note_off_c, 0, 42, 46
1, 94994, Note_off_c, 0, 68, 65
1, 94997, Control_c, 0, 64, 89
1, 95012, Control_c, 0, 64, 89
1, 95027, Control_c, 0, 64, 90
1, 95041, Control_c, 0, 64, 91
1, 95056, Control_c, 0, 64, 92
1, 95071, Control_c, 0, 64, 93
1, 95130, Control_c, 0, 64, 91
1, 95132, Note_on_c, 0, 90, 72
1, 95145, Control_c, 0, 64, 86
1, 95149, Note_on_c, 0, 36, 44
1, 95159, Control_c, 0, 64, 78
1, 95174, Control_c, 0, 64, 69
1, 95179, Note_off_c, 0, 90, 58
1, 95189, Control_c, 0, 64, 59
1, 95204, Control_c, 0, 64, 62
1, 95215, Note_off_c, 0, 36, 50
1, 95219, Control_c, 0, 64, 66
1, 95233, Control_c, 0, 64, 72
1, 95248, Control_c, 0, 64, 78
1, 95250, Note_on_c, 0, 37, 39
1, 95262, Note_on_c, 0, 74, 57
1, 95263, Control_c, 0, 64, 82
1, 95278, Control_c, 0, 64, 83
1, 95291, Note_off_c, 0, 37, 61
1, 95307, Control_c, 0, 64, 84
1, 95323, Note_off_c, 0, 74, 53
1, 95383, Note_on_c, 0, 79, 65
1, 95412, Control_c, 0, 64, 84
1, 95441, Control_c, 0, 64, 85
1, 95515, Control_c, 0, 64, 84
1, 95530, Control_c, 0, 64, 79
1, 95537, Note_off_c, 0, 79, 53
1, 95540, Note_on_c, 0, 28, 42
1, 95543, Note_on_c, 0, 76, 58
1, 95552, Control_c, 0, 64, 69
1, 95567, Control_c, 0, 64, 43
1, 95581, Control_c, 0, 64, 0
1, 95588, Note_off_c, 0, 28, 60
1, 95611, Control_c, 0, 64, 58
1, 95619, Note_off_c, 0, 76, 60
1, 95623, Note_on_c, 0, 29, 45
1, 95626, Control_c, 0, 64, 68
1, 95641, Control_c, 0, 64, 73
1, 95656, Control_c, 0, 64, 79
1, 95659, Note_off_c, 0, 29, 55
1, 95671, Control_c, 0, 64, 81
1, 95686, Control_c, 0, 64, 82
1, 95688, Note_on_c, 0, 28, 51
1, 95700, Control_c, 0, 64, 83
1, 95715, Control_c, 0, 64, 83
1, 95722, Note_off_c, 0, 28, 59
1, 95739, Note_on_c, 0, 29, 46
1, 95745, Control_c, 0, 64, 84
1, 95760, Control_c, 0, 64, 84
1, 95774, Note_off_c, 0, 29, 51
1, 95775, Control_c, 0, 64, 85
1, 95790, Control_c, 0, 64, 85
1, 95805, Control_c, 0, 64, 86
1, 95820, Control_c, 0, 64, 86
1, 95838, Note_on_c, 0, 29, 32
1, 95870, Note_off_c, 0, 29, 55
1, 95879, Control_c, 0, 64, 87
1, 95968, Control_c, 0, 64, 87
1, 96012, Control_c, 0, 64, 88
1, 96056, Control_c, 0, 64, 87
1, 96059, Note_on_c, 0, 55, 63
1, 96071, Control_c, 0, 64, 83
1, 96086, Control_c, 0, 64, 76
1, 96094, Note_on_c, 0, 48, 43
1, 96101, Control_c, 0, 64, 66
1, 96116, Control_c, 0, 64, 46
1, 96130, Control_c, 0, 64, 56
1, 96145, Control_c, 0, 64, 65
1, 96148, Note_off_c, 0, 55, 61
1, 96160, Control_c, 0, 64, 72
1, 96169, Note_off_c, 0, 48, 38
1, 96175, Note_on_c, 0, 53, 64
1, 96175, Control_c, 0, 64, 78
1, 96184, Note_on_c, 0, 49, 42
1, 96190, Control_c, 0, 64, 83
1, 96204, Note_off_c, 0, 53, 68
1, 96204, Control_c, 0, 64, 84
1, 96236, Note_off_c, 0, 49, 50
1, 96292, Note_on_c, 0, 48, 37
1, 96294, Control_c, 0, 64, 84
1, 96316, Control_c, 0, 64, 85
1, 96319, Note_on_c, 0, 58, 62
1, 96330, Control_c, 0, 64, 86
1, 96345, Control_c, 0, 64, 86
1, 96347, Note_off_c, 0, 48, 45
1, 96359, Note_off_c, 0, 58, 57
1, 96364, Note_on_c, 0, 49, 51
1, 96389, Control_c, 0, 64, 85
1, 96401, Note_on_c, 0, 68, 69
1, 96404, Control_c, 0, 64, 81
1, 96405, Note_off_c, 0, 49, 61
1, 96419, Control_c, 0, 64, 74
1, 96434, Control_c, 0, 64, 64
1, 96444, Note_on_c, 0, 50, 47
1, 96449, Control_c, 0, 64, 58
1, 96464, Control_c, 0, 64, 64
1, 96479, Control_c, 0, 64, 69
1, 96487, Note_off_c, 0, 50, 62
1, 96494, Control_c, 0, 64, 76
1, 96501, Note_off_c, 0, 68, 63
1, 96503, Note_on_c, 0, 64, 70
1, 96508, Control_c, 0, 64, 81
1, 96512, Note_on_c, 0, 49, 53
1, 96524, Control_c, 0, 64, 82
1, 96539, Control_c, 0, 64, 83
1, 96542, Note_off_c, 0, 64, 61
1, 96565, Note_off_c, 0, 49, 61
1, 96568, Control_c, 0, 64, 83
1, 96583, Control_c, 0, 64, 84
1, 96596, Note_on_c, 0, 50, 54
1, 96598, Control_c, 0, 64, 86
1, 96613, Control_c, 0, 64, 88
1, 96619, Note_off_c, 0, 50, 61
1, 96620, Note_on_c, 0, 68, 62
1, 96628, Control_c, 0, 64, 89
1, 96641, Note_off_c, 0, 68, 58
1, 96643, Control_c, 0, 64, 89
1, 96687, Control_c, 0, 64, 88
1, 96702, Control_c, 0, 64, 84
1, 96717, Control_c, 0, 64, 73
1, 96725, Note_on_c, 0, 81, 84
1, 96732, Control_c, 0, 64, 53
1, 96746, Control_c, 0, 64, 0
1, 96765, Note_off_c, 0, 81, 62
1, 96776, Note_on_c, 0, 41, 50
1, 96776, Control_c, 0, 64, 56
1, 96791, Control_c, 0, 64, 68
1, 96805, Control_c, 0, 64, 74
1, 96820, Control_c, 0, 64, 81
1, 96826, Note_off_c, 0, 41, 59
1, 96835, Control_c, 0, 64, 83
1, 96842, Note_on_c, 0, 70, 65
1, 96850, Control_c, 0, 64, 83
1, 96864, Note_on_c, 0, 42, 43
1, 96865, Control_c, 0, 64, 84
1, 96879, Control_c, 0, 64, 84
1, 96890, Note_off_c, 0, 70, 62
1, 96894, Control_c, 0, 64, 85
1, 96895, Note_off_c, 0, 42, 52
1, 96909, Control_c, 0, 64, 87
1, 96924, Control_c, 0, 64, 89
1, 96928, Note_on_c, 0, 69, 64
1, 96939, Control_c, 0, 64, 92
1, 96953, Control_c, 0, 64, 95
1, 96955, Note_off_c, 0, 69, 67
1, 96968, Control_c, 0, 64, 96
1, 97012, Control_c, 0, 64, 93
1, 97027, Control_c, 0, 64, 87
1, 97037, Note_on_c, 0, 37, 49
1, 97042, Control_c, 0, 64, 77
1, 97065, Control_c, 0, 64, 66
1, 97075, Note_on_c, 0, 89, 78
1, 97079, Control_c, 0, 64, 60
1, 97094, Control_c, 0, 64, 65
1, 97101, Note_off_c, 0, 37, 63
1, 97109, Control_c, 0, 64, 73
1, 97111, Note_off_c, 0, 89, 66
1, 97124, Control_c, 0, 64, 81
1, 97138, Note_on_c, 0, 38, 44
1, 97138, Control_c, 0, 64, 86
1, 97153, Control_c, 0, 64, 88
1, 97179, Note_off_c, 0, 38, 50
1, 97183, Control_c, 0, 64, 88
1, 97200, Note_on_c, 0, 75, 58
1, 97230, Note_on_c, 0, 37, 37
1, 97252, Note_off_c, 0, 75, 53
1, 97265, Note_off_c, 0, 37, 46
1, 97323, Note_on_c, 0, 80, 65
1, 97376, Control_c, 0, 64, 88
1, 97391, Control_c, 0, 64, 83
1, 97406, Control_c, 0, 64, 75
1, 97421, Control_c, 0, 64, 63
1, 97436, Control_c, 0, 64, 0
1, 97445, Note_on_c, 0, 28, 52
1, 97452, Note_on_c, 0, 76, 58
1, 97465, Control_c, 0, 64, 51
1, 97472, Note_off_c, 0, 80, 51
1, 97480, Control_c, 0, 64, 66
1, 97483, Note_off_c, 0, 28, 61
1, 97495, Control_c, 0, 64, 73
1, 97506, Note_off_c, 0, 76, 54
1, 97510, Control_c, 0, 64, 80
1, 97513, Note_on_c, 0, 29, 48
1, 97525, Control_c, 0, 64, 83
1, 97540, Control_c, 0, 64, 84
1, 97549, Note_off_c, 0, 29, 60
1, 97554, Control_c, 0, 64, 84
1, 97569, Control_c, 0, 64, 85
1, 97575, Note_on_c, 0, 28, 56
1, 97599, Control_c, 0, 64, 85
1, 97616, Note_off_c, 0, 28, 61
1, 97643, Control_c, 0, 64, 86
1, 97644, Note_on_c, 0, 29, 56
1, 97678, Note_off_c, 0, 29, 53
1, 97688, Control_c, 0, 64, 86
1, 97722, Note_on_c, 0, 28, 27
1, 97756, Note_on_c, 0, 29, 47
1, 97764, Note_off_c, 0, 28, 52
1, 97791, Control_c, 0, 64, 87
1, 97803, Note_off_c, 0, 29, 50
1, 97828, Control_c, 0, 64, 88
1, 97843, Control_c, 0, 64, 89
1, 97858, Control_c, 0, 64, 90
1, 97873, Control_c, 0, 64, 91
1, 97888, Control_c, 0, 64, 92
1, 97932, Control_c, 0, 64, 91
1, 97947, Control_c, 0, 64, 86
1, 97961, Control_c, 0, 64, 76
1, 97976, Control_c, 0, 64, 63
1, 97982, Note_on_c, 0, 49, 51
1, 97990, Note_on_c, 0, 54, 58
1, 97991, Control_c, 0, 64, 0
1, 98021, Note_off_c, 0, 49, 57
1, 98021, Control_c, 0, 64, 16
1, 98035, Control_c, 0, 64, 64
1, 98050, Control_c, 0, 64, 71
1, 98053, Note_off_c, 0, 54, 61
1, 98065, Control_c, 0, 64, 77
1, 98080, Control_c, 0, 64, 82
1, 98095, Control_c, 0, 64, 83
1, 98101, Note_on_c, 0, 54, 57
1, 98125, Control_c, 0, 64, 83
1, 98140, Control_c, 0, 64, 84
1, 98154, Note_on_c, 0, 49, 47
1, 98155, Control_c, 0, 64, 85
1, 98170, Control_c, 0, 64, 87
1, 98180, Note_off_c, 0, 54, 58
1, 98184, Control_c, 0, 64, 90
1, 98199, Note_on_c, 0, 58, 71
1, 98199, Control_c, 0, 64, 92
1, 98214, Control_c, 0, 64, 93
1, 98244, Control_c, 0, 64, 92
1, 98251, Note_off_c, 0, 49, 59
1, 98258, Control_c, 0, 64, 90
1, 98261, Note_off_c, 0, 58, 64
1, 98273, Control_c, 0, 64, 85
1, 98274, Note_on_c, 0, 48, 56
1, 98288, Control_c, 0, 64, 75
1, 98300, Note_on_c, 0, 67, 76
1, 98303, Control_c, 0, 64, 65
1, 98318, Control_c, 0, 64, 58
1, 98333, Note_off_c, 0, 48, 57
1, 98333, Control_c, 0, 64, 64
1, 98348, Control_c, 0, 64, 70
1, 98363, Control_c, 0, 64, 77
1, 98376, Note_on_c, 0, 49, 51
1, 98377, Control_c, 0, 64, 82
1, 98392, Control_c, 0, 64, 84
1, 98398, Note_on_c, 0, 65, 72
1, 98407, Control_c, 0, 64, 84
1, 98407, Note_off_c, 0, 67, 53
1, 98416, Note_off_c, 0, 49, 59
1, 98422, Control_c, 0, 64, 85
1, 98437, Note_off_c, 0, 65, 64
1, 98451, Control_c, 0, 64, 86
1, 98457, Note_on_c, 0, 48, 34
1, 98466, Control_c, 0, 64, 87
1, 98481, Control_c, 0, 64, 89
1, 98485, Note_off_c, 0, 48, 57
1, 98496, Control_c, 0, 64, 92
1, 98500, Note_on_c, 0, 69, 79
1, 98511, Control_c, 0, 64, 94
1, 98525, Control_c, 0, 64, 95
1, 98571, Note_off_c, 0, 69, 61
1, 98577, Control_c, 0, 64, 93
1, 98592, Control_c, 0, 64, 85
1, 98605, Note_on_c, 0, 80, 78
1, 98607, Control_c, 0, 64, 72
1, 98622, Control_c, 0, 64, 0
1, 98623, Note_on_c, 0, 39, 50
1, 98665, Note_off_c, 0, 39, 61
1, 98677, Note_off_c, 0, 80, 60
1, 98681, Control_c, 0, 64, 66
1, 98696, Note_on_c, 0, 40, 47
1, 98696, Control_c, 0, 64, 73
1, 98708, Note_on_c, 0, 71, 64
1, 98711, Control_c, 0, 64, 80
1, 98725, Control_c, 0, 64, 83
1, 98729, Note_off_c, 0, 40, 61
1, 98755, Control_c, 0, 64, 84
1, 98756, Note_off_c, 0, 71, 55
1, 98770, Control_c, 0, 64, 85
1, 98775, Note_on_c, 0, 39, 46
1, 98784, Control_c, 0, 64, 87
1, 98795, Note_on_c, 0, 70, 70
1, 98799, Control_c, 0, 64, 89
1, 98807, Note_off_c, 0, 39, 54
1, 98814, Control_c, 0, 64, 89
1, 98820, Note_off_c, 0, 70, 68
1, 98829, Control_c, 0, 64, 90
1, 98834, Note_on_c, 0, 40, 50
1, 98869, Note_off_c, 0, 40, 54
1, 98873, Control_c, 0, 64, 88
1, 98888, Control_c, 0, 64, 83
1, 98902, Control_c, 0, 64, 71
1, 98914, Note_on_c, 0, 38, 49
1, 98917, Control_c, 0, 64, 0
1, 98932, Note_on_c, 0, 88, 70
1, 98963, Control_c, 0, 64, 23
1, 98974, Note_off_c, 0, 38, 54
1, 98978, Control_c, 0, 64, 67
1, 98992, Note_off_c, 0, 88, 61
1, 98993, Control_c, 0, 64, 75
1, 98998, Note_on_c, 0, 39, 39
1, 99007, Control_c, 0, 64, 83
1, 99022, Control_c, 0, 64, 86
1, 99031, Note_off_c, 0, 39, 58
1, 99032, Note_on_c, 0, 76, 56
1, 99069, Note_off_c, 0, 76, 49
1, 99081, Control_c, 0, 64, 86
1, 99096, Control_c, 0, 64, 87
1, 99111, Control_c, 0, 64, 89
1, 99126, Control_c, 0, 64, 90
1, 99128, Note_on_c, 0, 81, 62
1, 99141, Control_c, 0, 64, 91
1, 99185, Control_c, 0, 64, 90
1, 99200, Control_c, 0, 64, 88
1, 99215, Control_c, 0, 64, 80
1, 99230, Control_c, 0, 64, 68
1, 99244, Note_off_c, 0, 81, 54
1, 99245, Control_c, 0, 64, 27
1, 99248, Note_on_c, 0, 76, 59
1, 99260, Control_c, 0, 64, 0
1, 99274, Control_c, 0, 64, 59
1, 99289, Control_c, 0, 64, 68
1, 99311, Control_c, 0, 64, 76
1, 99316, Note_off_c, 0, 76, 60
1, 99325, Control_c, 0, 64, 83
1, 99333, Note_on_c, 0, 29, 24
1, 99340, Control_c, 0, 64, 85
1, 99340, Control_c, 0, 67, 125
1, 99355, Control_c, 0, 64, 86
1, 99355, Control_c, 0, 67, 124
1, 99370, Control_c, 0, 64, 86
1, 99380, Note_off_c, 0, 29, 43
1, 99385, Control_c, 0, 64, 87
1, 99391, Note_on_c, 0, 28, 43
1, 99400, Control_c, 0, 64, 87
1, 99400, Control_c, 0, 67, 124
1, 99415, Control_c, 0, 64, 88
1, 99415, Control_c, 0, 67, 123
1, 99428, Note_off_c, 0, 28, 60
1, 99430, Control_c, 0, 64, 88
1, 99445, Control_c, 0, 64, 89
1, 99449, Note_on_c, 0, 29, 54
1, 99474, Control_c, 0, 64, 89
1, 99474, Control_c, 0, 67, 123
1, 99482, Note_off_c, 0, 29, 59
1, 99489, Control_c, 0, 67, 122
1, 99504, Control_c, 0, 67, 121
1, 99518, Control_c, 0, 67, 120
1, 99533, Control_c, 0, 64, 90
1, 99533, Control_c, 0, 67, 119
1, 99563, Control_c, 0, 64, 90
1, 99578, Control_c, 0, 64, 91
1, 99592, Control_c, 0, 64, 92
1, 99622, Control_c, 0, 64, 91
1, 99622, Control_c, 0, 67, 120
1, 99637, Control_c, 0, 64, 90
1, 99652, Control_c, 0, 64, 83
1, 99667, Control_c, 0, 64, 73
1, 99680, Note_on_c, 0, 50, 51
1, 99680, Note_on_c, 0, 53, 67
1, 99681, Control_c, 0, 64, 55
1, 99696, Control_c, 0, 64, 52
1, 99711, Control_c, 0, 64, 64
1, 99727, Control_c, 0, 64, 69
1, 99731, Note_off_c, 0, 50, 57
1, 99742, Control_c, 0, 64, 76
1, 99757, Note_off_c, 0, 53, 65
1, 99757, Control_c, 0, 64, 82
1, 99771, Control_c, 0, 64, 84
1, 99782, Note_on_c, 0, 51, 50
1, 99786, Control_c, 0, 64, 85
1, 99789, Note_on_c, 0, 55, 74
1, 99801, Control_c, 0, 64, 85
1, 99801, Control_c, 0, 67, 119
1, 99809, Note_off_c, 0, 51, 59
1, 99816, Control_c, 0, 64, 86
1, 99830, Control_c, 0, 64, 86
1, 99839, Note_off_c, 0, 55, 60
1, 99845, Control_c, 0, 64, 87
1, 99845, Control_c, 0, 67, 119
1, 99875, Control_c, 0, 67, 119
1, 99879, Note_on_c, 0, 60, 72
1, 99890, Control_c, 0, 64, 86
1, 99904, Control_c, 0, 64, 81
1, 99916, Note_off_c, 0, 60, 56
1, 99919, Control_c, 0, 64, 71
1, 99919, Control_c, 0, 67, 119
1, 99934, Control_c, 0, 64, 49
1, 99948, Control_c, 0, 64, 0
1, 99962, Note_on_c, 0, 45, 15
1, 99963, Control_c, 0, 64, 60
1, 99963, Control_c, 0, 67, 119
1, 99969, Note_on_c, 0, 66, 73
1, 99978, Control_c, 0, 64, 68
1, 99993, Control_c, 0, 64, 74
1, 100002, Note_off_c, 0, 45, 50
1, 100006, Note_off_c, 0, 66, 65
1, 100007, Control_c, 0, 64, 80
1, 100007, Control_c, 0, 67, 120
1, 100021, Control_c, 0, 64, 82
1, 100036, Control_c, 0, 64, 83
1, 100036, Control_c, 0, 67, 120
1, 100059, Control_c, 0, 64, 83
1, 100074, Control_c, 0, 64, 85
1, 100074, Poly_aftertouch_c, 0, 47, 127
1, 100083, Note_on_c, 0, 66, 71
1, 100089, Control_c, 0, 64, 87
1, 100089, Control_c, 0, 67, 120
1, 100092, Note_on_c, 0, 45, 55
1, 100103, Control_c, 0, 64, 89
1, 100115, Note_off_c, 0, 45, 60
1, 100118, Control_c, 0, 64, 89
1, 100118, Note_off_c, 0, 66, 59
1, 100121, Poly_aftertouch_c, 0, 47, 0
1, 100133, Control_c, 0, 64, 90
1, 100133, Control_c, 0, 67, 120
1, 100159, Note_on_c, 0, 70, 76
1, 100162, Control_c, 0, 67, 121
1, 100192, Control_c, 0, 67, 120
1, 100207, Control_c, 0, 64, 89
1, 100207, Control_c, 0, 67, 120
1, 100217, Note_off_c, 0, 70, 60
1, 100221, Control_c, 0, 64, 86
1, 100236, Control_c, 0, 64, 77
1, 100251, Control_c, 0, 64, 64
1, 100253, Note_on_c, 0, 39, 52
1, 100253, Note_on_c, 0, 79, 77
1, 100266, Control_c, 0, 64, 0
1, 100295, Note_off_c, 0, 39, 63
1, 100295, Control_c, 0, 64, 62
1, 100295, Control_c, 0, 67, 120
1, 100310, Control_c, 0, 64, 69
1, 100310, Control_c, 0, 67, 121
1, 100324, Note_on_c, 0, 40, 51
1, 100325, Control_c, 0, 64, 75
1, 100339, Control_c, 0, 64, 81
1, 100340, Note_on_c, 0, 72, 70
1, 100341, Note_off_c, 0, 79, 61
1, 100354, Control_c, 0, 64, 83
1, 100354, Control_c, 0, 67, 121
1, 100358, Note_off_c, 0, 40, 58
1, 100369, Control_c, 0, 64, 83
1, 100370, Note_off_c, 0, 72, 67
1, 100384, Control_c, 0, 64, 84
1, 100384, Control_c, 0, 67, 122
1, 100399, Control_c, 0, 64, 85
1, 100401, Note_on_c, 0, 39, 48
1, 100413, Control_c, 0, 64, 87
1, 100423, Note_on_c, 0, 71, 65
1, 100428, Control_c, 0, 64, 91
1, 100428, Control_c, 0, 67, 122
1, 100434, Note_off_c, 0, 39, 55
1, 100443, Control_c, 0, 64, 93
1, 100452, Note_off_c, 0, 71, 64
1, 100458, Control_c, 0, 64, 94
1, 100476, Note_on_c, 0, 40, 38
1, 100503, Control_c, 0, 64, 93
1, 100509, Note_off_c, 0, 40, 54
1, 100518, Control_c, 0, 64, 87
1, 100518, Control_c, 0, 67, 123
1, 100530, Note_on_c, 0, 38, 50
1, 100533, Control_c, 0, 64, 76
1, 100548, Note_on_c, 0, 87, 77
1, 100548, Control_c, 0, 64, 49
1, 100548, Control_c, 0, 67, 122
1, 100563, Control_c, 0, 64, 0
1, 100571, Note_off_c, 0, 38, 63
1, 100592, Control_c, 0, 64, 46
1, 100592, Control_c, 0, 67, 122
1, 100607, Note_on_c, 0, 40, 50
1, 100607, Control_c, 0, 64, 67
1, 100609, Note_off_c, 0, 87, 57
1, 100622, Control_c, 0, 64, 74
1, 100635, Note_on_c, 0, 77, 69
1, 100637, Control_c, 0, 64, 82
1, 100638, Note_off_c, 0, 40, 58
1, 100652, Control_c, 0, 64, 84
1, 100652, Control_c, 0, 67, 121
1, 100682, Control_c, 0, 64, 85
1, 100682, Control_c, 0, 67, 121
1, 100694, Note_off_c, 0, 77, 56
1, 100697, Control_c, 0, 67, 120
1, 100712, Control_c, 0, 64, 86
1, 100712, Control_c, 0, 67, 120
1, 100726, Control_c, 0, 64, 87
1, 100737, Note_on_c, 0, 82, 59
1, 100741, Control_c, 0, 64, 89
1, 100756, Control_c, 0, 64, 91
1, 100771, Control_c, 0, 64, 92
1, 100808, Control_c, 0, 67, 119
1, 100823, Control_c, 0, 67, 118
1, 100838, Control_c, 0, 64, 88
1, 100838, Control_c, 0, 67, 117
1, 100851, Note_off_c, 0, 82, 60
1, 100852, Control_c, 0, 64, 79
1, 100852, Control_c, 0, 67, 116
1, 100856, Note_on_c, 0, 76, 59
1, 100861, Note_on_c, 0, 28, 58
1, 100867, Control_c, 0, 64, 65
1, 100867, Control_c, 0, 67, 114
1, 100882, Control_c, 0, 64, 0
1, 100882, Control_c, 0, 67, 109
1, 100897, Control_c, 0, 67, 103
1, 100899, Note_off_c, 0, 28, 62
1, 100899, Note_off_c, 0, 76, 58
1, 100912, Control_c, 0, 64, 63
1, 100912, Control_c, 0, 67, 95
1, 100926, Note_on_c, 0, 29, 51
1, 100926, Control_c, 0, 64, 72
1, 100926, Control_c, 0, 67, 88
1, 100941, Control_c, 0, 64, 80
1, 100941, Control_c, 0, 67, 83
1, 100956, Control_c, 0, 64, 86
1, 100956, Control_c, 0, 67, 79
1, 100968, Note_off_c, 0, 29, 61
1, 100971, Control_c, 0, 64, 87
1, 100971, Control_c, 0, 67, 76
1, 100986, Control_c, 0, 64, 88
1, 100986, Control_c, 0, 67, 72
1, 100987, Note_on_c, 0, 28, 59
1, 101001, Control_c, 0, 64, 88
1, 101001, Control_c, 0, 67, 67
1, 101016, Control_c, 0, 64, 89
1, 101016, Control_c, 0, 67, 64
1, 101023, Note_off_c, 0, 28, 62
1, 101031, Control_c, 0, 64, 89
1, 101031, Control_c, 0, 67, 62
1, 101045, Control_c, 0, 64, 90
1, 101045, Control_c, 0, 67, 60
1, 101055, Note_on_c, 0, 29, 43
1, 101060, Control_c, 0, 64, 90
1, 101060, Control_c, 0, 67, 60
1, 101075, Control_c, 0, 67, 59
1, 101090, Control_c, 0, 64, 91
1, 101090, Control_c, 0, 67, 58
1, 101097, Note_off_c, 0, 29, 48
1, 101104, Control_c, 0, 64, 92
1, 101104, Control_c, 0, 67, 56
1, 101119, Control_c, 0, 64, 94
1, 101119, Control_c, 0, 67, 54
1, 101134, Control_c, 0, 64, 95
1, 101134, Control_c, 0, 67, 53
1, 101149, Control_c, 0, 64, 96
1, 101208, Control_c, 0, 64, 95
1, 101223, Control_c, 0, 64, 87
1, 101238, Control_c, 0, 64, 76
1, 101249, Note_on_c, 0, 51, 52
1, 101250, Note_on_c, 0, 52, 66
1, 101252, Control_c, 0, 64, 65
1, 101267, Control_c, 0, 64, 58
1, 101282, Control_c, 0, 64, 66
1, 101296, Control_c, 0, 64, 71
1, 101297, Note_off_c, 0, 51, 44
1, 101313, Control_c, 0, 64, 79
1, 101328, Control_c, 0, 64, 83
1, 101342, Control_c, 0, 64, 85
1, 101343, Note_on_c, 0, 56, 71
1, 101357, Control_c, 0, 64, 86
1, 101364, Note_off_c, 0, 52, 63
1, 101372, Control_c, 0, 64, 87
1, 101386, Control_c, 0, 64, 88
1, 101401, Control_c, 0, 64, 90
1, 101416, Control_c, 0, 64, 90
1, 101435, Note_on_c, 0, 61, 72
1, 101436, Note_off_c, 0, 56, 62
1, 101460, Control_c, 0, 64, 90
1, 101475, Control_c, 0, 64, 86
1, 101475, Control_c, 0, 67, 54
1, 101487, Poly_aftertouch_c, 0, 51, 0
1, 101490, Control_c, 0, 64, 78
1, 101505, Control_c, 0, 64, 63
1, 101516, Note_on_c, 0, 46, 61
1, 101520, Control_c, 0, 64, 0
1, 101531, Note_on_c, 0, 65, 73
1, 101535, Control_c, 0, 64, 54
1, 101545, Note_off_c, 0, 61, 63
1, 101557, Control_c, 0, 64, 66
1, 101566, Note_off_c, 0, 65, 69
1, 101572, Control_c, 0, 64, 73
1, 101572, Control_c, 0, 67, 54
1, 101573, Note_off_c, 0, 46, 62
1, 101587, Control_c, 0, 64, 80
1, 101598, Note_on_c, 0, 47, 62
1, 101601, Control_c, 0, 64, 85
1, 101616, Control_c, 0, 64, 86
1, 101616, Control_c, 0, 67, 55
1, 101631, Control_c, 0, 64, 87
1, 101639, Note_off_c, 0, 47, 65
1, 101640, Note_on_c, 0, 67, 76
1, 101646, Control_c, 0, 64, 88
1, 101661, Control_c, 0, 64, 91
1, 101675, Control_c, 0, 64, 94
1, 101690, Control_c, 0, 64, 96
1, 101702, Note_off_c, 0, 67, 59
1, 101705, Control_c, 0, 64, 97
1, 101714, Note_on_c, 0, 71, 73
1, 101720, Control_c, 0, 67, 55
1, 101734, Control_c, 0, 67, 56
1, 101764, Control_c, 0, 64, 94
1, 101779, Control_c, 0, 64, 86
1, 101794, Control_c, 0, 64, 72
1, 101795, Note_on_c, 0, 78, 82
1, 101807, Note_off_c, 0, 71, 60
1, 101809, Control_c, 0, 64, 49
1, 101815, Note_on_c, 0, 38, 56
1, 101823, Control_c, 0, 64, 0
1, 101838, Control_c, 0, 64, 56
1, 101838, Control_c, 0, 67, 57
1, 101853, Control_c, 0, 64, 67
1, 101853, Control_c, 0, 67, 57
1, 101867, Note_off_c, 0, 38, 54
1, 101868, Control_c, 0, 64, 75
1, 101868, Control_c, 0, 67, 58
1, 101873, Note_off_c, 0, 78, 61
1, 101883, Control_c, 0, 64, 84
1, 101883, Control_c, 0, 67, 58
1, 101892, Note_on_c, 0, 39, 53
1, 101895, Note_on_c, 0, 73, 67
1, 101898, Control_c, 0, 64, 86
1, 101913, Control_c, 0, 64, 86
1, 101927, Control_c, 0, 64, 87
1, 101934, Note_off_c, 0, 39, 61
1, 101938, Note_off_c, 0, 73, 60
1, 101957, Control_c, 0, 64, 87
1, 101972, Control_c, 0, 64, 88
1, 101976, Note_on_c, 0, 72, 73
1, 101987, Control_c, 0, 67, 59
1, 102016, Control_c, 0, 67, 60
1, 102019, Note_off_c, 0, 72, 62
1, 102031, Control_c, 0, 64, 87
1, 102046, Control_c, 0, 64, 81
1, 102048, Note_on_c, 0, 40, 51
1, 102061, Control_c, 0, 64, 69
1, 102070, Note_on_c, 0, 86, 72
1, 102075, Control_c, 0, 64, 0
1, 102090, Control_c, 0, 67, 61
1, 102092, Note_off_c, 0, 40, 61
1, 102105, Control_c, 0, 67, 61
1, 102121, Control_c, 0, 64, 57
1, 102124, Note_on_c, 0, 41, 46
1, 102135, Control_c, 0, 64, 70
1, 102139, Note_off_c, 0, 86, 60
1, 102143, Note_on_c, 0, 78, 73
1, 102150, Control_c, 0, 64, 78
1, 102154, Note_off_c, 0, 41, 58
1, 102165, Control_c, 0, 64, 85
1, 102180, Control_c, 0, 64, 86
1, 102180, Control_c, 0, 67, 61
1, 102195, Control_c, 0, 64, 86
1, 102195, Control_c, 0, 67, 60
1, 102199, Note_off_c, 0, 78, 61
1, 102209, Control_c, 0, 64, 87
1, 102209, Control_c, 0, 67, 59
1, 102224, Control_c, 0, 64, 88
1, 102224, Control_c, 0, 67, 59
1, 102238, Note_on_c, 0, 83, 67
1, 102239, Control_c, 0, 64, 90
1, 102239, Control_c, 0, 67, 58
1, 102254, Control_c, 0, 64, 92
1, 102269, Control_c, 0, 64, 93
1, 102306, Control_c, 0, 67, 58
1, 102321, Control_c, 0, 64, 92
1, 102321, Control_c, 0, 67, 57
1, 102336, Control_c, 0, 64, 86
1, 102336, Control_c, 0, 67, 56
1, 102348, Note_on_c, 0, 76, 68
1, 102350, Control_c, 0, 64, 75
1, 102350, Control_c, 0, 67, 55
1, 102351, Note_off_c, 0, 83, 42
1, 102360, Note_on_c, 0, 28, 56
1, 102365, Control_c, 0, 64, 50
1, 102365, Control_c, 0, 67, 54
1, 102380, Control_c, 0, 64, 0
1, 102380, Control_c, 0, 67, 53
1, 102395, Control_c, 0, 64, 39
1, 102395, Control_c, 0, 67, 52
1, 102396, Note_off_c, 0, 28, 60
1, 102405, Note_off_c, 0, 76, 63
1, 102410, Control_c, 0, 64, 65
1, 102410, Control_c, 0, 67, 51
1, 102424, Control_c, 0, 64, 74
1, 102424, Control_c, 0, 67, 45
1, 102429, Note_on_c, 0, 29, 43
1, 102439, Control_c, 0, 64, 83
1, 102439, Control_c, 0, 67, 40
1, 102454, Control_c, 0, 64, 88
1, 102454, Control_c, 0, 67, 33
1, 102468, Note_off_c, 0, 29, 54
1, 102469, Control_c, 0, 64, 89
1, 102469, Control_c, 0, 67, 27
1, 102483, Note_on_c, 0, 28, 61
1, 102484, Control_c, 0, 67, 21
1, 102498, Control_c, 0, 67, 16
1, 102513, Control_c, 0, 67, 12
1, 102521, Note_off_c, 0, 28, 62
1, 102528, Control_c, 0, 67, 11
1, 102542, Control_c, 0, 64, 89
1, 102542, Control_c, 0, 67, 10
1, 102557, Control_c, 0, 67, 9
1, 102558, Note_on_c, 0, 29, 40
1, 102572, Control_c, 0, 64, 90
1, 102572, Control_c, 0, 67, 8
1, 102587, Control_c, 0, 64, 90
1, 102587, Control_c, 0, 67, 8
1, 102602, Note_off_c, 0, 29, 48
1, 102602, Control_c, 0, 64, 91
1, 102602, Control_c, 0, 67, 0
1, 102616, Control_c, 0, 64, 92
1, 102631, Control_c, 0, 64, 93
1, 102646, Control_c, 0, 64, 94
1, 102691, Control_c, 0, 64, 93
1, 102706, Control_c, 0, 64, 89
1, 102721, Control_c, 0, 64, 80
1, 102736, Control_c, 0, 64, 66
1, 102741, Note_on_c, 0, 51, 69
1, 102750, Control_c, 0, 64, 0
1, 102756, Note_on_c, 0, 52, 54
1, 102765, Control_c, 0, 64, 28
1, 102780, Control_c, 0, 64, 64
1, 102795, Control_c, 0, 64, 71
1, 102802, Note_off_c, 0, 52, 61
1, 102810, Control_c, 0, 64, 78
1, 102817, Note_off_c, 0, 51, 62
1, 102824, Control_c, 0, 64, 84
1, 102833, Note_on_c, 0, 53, 50
1, 102839, Control_c, 0, 64, 85
1, 102840, Note_on_c, 0, 57, 66
1, 102864, Note_off_c, 0, 53, 60
1, 102884, Control_c, 0, 64, 86
1, 102898, Control_c, 0, 64, 86
1, 102914, Control_c, 0, 64, 88
1, 102927, Note_off_c, 0, 57, 61
1, 102929, Control_c, 0, 64, 89
1, 102932, Note_on_c, 0, 62, 72
1, 102944, Control_c, 0, 64, 89
1, 102968, Note_off_c, 0, 62, 60
1, 102973, Control_c, 0, 64, 89
1, 102988, Control_c, 0, 64, 86
1, 103003, Control_c, 0, 64, 78
1, 103018, Control_c, 0, 64, 64
1, 103023, Note_on_c, 0, 64, 82
1, 103038, Note_on_c, 0, 45, 53
1, 103040, Control_c, 0, 64, 0
1, 103069, Control_c, 0, 64, 63
1, 103084, Control_c, 0, 64, 70
1, 103095, Note_off_c, 0, 64, 54
1, 103096, Note_off_c, 0, 45, 61
1, 103099, Control_c, 0, 64, 77
1, 103111, Note_on_c, 0, 46, 61
1, 103114, Note_on_c, 0, 68, 77
1, 103114, Control_c, 0, 64, 83
1, 103129, Control_c, 0, 64, 84
1, 103135, Note_off_c, 0, 46, 61
1, 103144, Control_c, 0, 64, 86
1, 103159, Control_c, 0, 64, 87
1, 103170, Note_off_c, 0, 68, 63
1, 103173, Control_c, 0, 64, 89
1, 103188, Control_c, 0, 64, 90
1, 103203, Note_on_c, 0, 72, 76
1, 103233, Control_c, 0, 64, 90
1, 103247, Control_c, 0, 64, 86
1, 103262, Control_c, 0, 64, 77
1, 103267, Note_on_c, 0, 77, 87
1, 103275, Note_off_c, 0, 72, 64
1, 103277, Control_c, 0, 64, 64
1, 103292, Control_c, 0, 64, 0
1, 103318, Note_off_c, 0, 77, 62
1, 103321, Control_c, 0, 64, 56
1, 103336, Control_c, 0, 64, 67
1, 103341, Note_on_c, 0, 38, 59
1, 103349, Note_on_c, 0, 74, 65
1, 103351, Control_c, 0, 64, 73
1, 103365, Control_c, 0, 64, 78
1, 103376, Note_off_c, 0, 74, 68
1, 103379, Note_off_c, 0, 38, 63
1, 103380, Control_c, 0, 64, 82
1, 103395, Control_c, 0, 64, 83
1, 103409, Note_on_c, 0, 37, 25
1, 103410, Control_c, 0, 64, 86
1, 103425, Control_c, 0, 64, 88
1, 103439, Control_c, 0, 64, 90
1, 103448, Note_on_c, 0, 73, 75
1, 103452, Note_off_c, 0, 37, 50
1, 103454, Control_c, 0, 64, 90
1, 103480, Note_off_c, 0, 73, 62
1, 103499, Control_c, 0, 64, 88
1, 103514, Control_c, 0, 64, 79
1, 103529, Control_c, 0, 64, 66
1, 103531, Note_on_c, 0, 85, 70
1, 103543, Control_c, 0, 64, 0
1, 103550, Poly_aftertouch_c, 0, 38, 0
1, 103560, Note_off_c, 0, 85, 60
1, 103564, Note_on_c, 0, 41, 46
1, 103588, Control_c, 0, 64, 60
1, 103601, Note_off_c, 0, 41, 58
1, 103603, Control_c, 0, 64, 71
1, 103611, Note_on_c, 0, 79, 69
1, 103615, Note_on_c, 0, 42, 59
1, 103618, Control_c, 0, 64, 78
1, 103618, Control_c, 0, 67, 8
1, 103633, Control_c, 0, 64, 84
1, 103633, Control_c, 0, 67, 10
1, 103640, Note_off_c, 0, 42, 61
1, 103647, Control_c, 0, 64, 85
1, 103647, Control_c, 0, 67, 12
1, 103651, Note_off_c, 0, 79, 52
1, 103662, Control_c, 0, 64, 86
1, 103677, Control_c, 0, 64, 87
1, 103691, Note_on_c, 0, 84, 83
1, 103691, Control_c, 0, 64, 89
1, 103691, Control_c, 0, 67, 11
1, 103706, Control_c, 0, 64, 93
1, 103706, Control_c, 0, 67, 10
1, 103722, Control_c, 0, 64, 95
1, 103722, Control_c, 0, 67, 9
1, 103737, Control_c, 0, 64, 97
1, 103737, Control_c, 0, 67, 8
1, 103749, Note_off_c, 0, 84, 56
1, 103752, Control_c, 0, 67, 8
1, 103767, Control_c, 0, 67, 0
1, 103794, Note_on_c, 0, 28, 72
1, 103798, Note_on_c, 0, 76, 72
1, 103803, Control_c, 0, 64, 92
1, 103818, Control_c, 0, 64, 83
1, 103833, Control_c, 0, 64, 68
1, 103835, Note_off_c, 0, 28, 62
1, 103848, Control_c, 0, 64, 0
1, 103857, Note_off_c, 0, 76, 64
1, 103867, Note_on_c, 0, 29, 60
1, 103877, Control_c, 0, 64, 63
1, 103892, Control_c, 0, 64, 71
1, 103904, Note_off_c, 0, 29, 60
1, 103907, Control_c, 0, 64, 80
1, 103915, Note_on_c, 0, 28, 66
1, 103922, Control_c, 0, 64, 86
1, 103937, Control_c, 0, 64, 87
1, 103952, Note_off_c, 0, 28, 62
1, 103967, Control_c, 0, 64, 88
1, 103979, Note_on_c, 0, 29, 54
1, 104011, Control_c, 0, 64, 88
1, 104018, Note_off_c, 0, 29, 50
1, 104026, Control_c, 0, 64, 89
1, 104041, Control_c, 0, 64, 90
1, 104056, Control_c, 0, 64, 92
1, 104070, Control_c, 0, 64, 93
1, 104114, Control_c, 0, 64, 90
1, 104129, Control_c, 0, 64, 83
1, 104144, Control_c, 0, 64, 69
1, 104146, Note_on_c, 0, 53, 76
1, 104159, Control_c, 0, 64, 0
1, 104167, Note_on_c, 0, 50, 50
1, 104188, Control_c, 0, 64, 56
1, 104203, Control_c, 0, 64, 69
1, 104217, Note_off_c, 0, 53, 64
1, 104218, Control_c, 0, 64, 77
1, 104226, Note_on_c, 0, 58, 73
1, 104233, Control_c, 0, 64, 83
1, 104236, Note_on_c, 0, 54, 63
1, 104248, Control_c, 0, 64, 85
1, 104276, Note_off_c, 0, 54, 62
1, 104277, Control_c, 0, 64, 86
1, 104292, Control_c, 0, 64, 88
1, 104297, Note_off_c, 0, 58, 58
1, 104307, Control_c, 0, 64, 89
1, 104310, Note_off_c, 0, 50, 35
1, 104321, Control_c, 0, 64, 89
1, 104323, Note_on_c, 0, 63, 83
1, 104351, Control_c, 0, 64, 89
1, 104357, Poly_aftertouch_c, 0, 53, 0
1, 104362, Note_off_c, 0, 63, 64
1, 104366, Control_c, 0, 64, 84
1, 104381, Control_c, 0, 64, 72
1, 104396, Control_c, 0, 64, 40
1, 104411, Note_on_c, 0, 44, 65
1, 104411, Control_c, 0, 64, 0
1, 104419, Note_on_c, 0, 63, 72
1, 104426, Control_c, 0, 64, 22
1, 104441, Control_c, 0, 64, 64
1, 104451, Note_off_c, 0, 44, 65
1, 104456, Control_c, 0, 64, 72
1, 104470, Control_c, 0, 64, 79
1, 104476, Note_off_c, 0, 63, 65
1, 104479, Note_on_c, 0, 45, 61
1, 104479, Note_on_c, 0, 69, 75
1, 104485, Control_c, 0, 64, 81
1, 104500, Control_c, 0, 64, 82
1, 104515, Control_c, 0, 64, 82
1, 104518, Note_off_c, 0, 45, 64
1, 104530, Control_c, 0, 64, 83
1, 104540, Note_on_c, 0, 44, 62
1, 104552, Control_c, 0, 64, 86
1, 104564, Note_off_c, 0, 44, 63
1, 104567, Control_c, 0, 64, 88
1, 104589, Note_on_c, 0, 73, 77
1, 104590, Note_off_c, 0, 69, 62
1, 104612, Control_c, 0, 64, 86
1, 104626, Control_c, 0, 64, 78
1, 104639, Note_off_c, 0, 73, 65
1, 104641, Control_c, 0, 64, 65
1, 104656, Control_c, 0, 64, 0
1, 104668, Note_on_c, 0, 76, 82
1, 104670, Note_on_c, 0, 36, 67
1, 104686, Control_c, 0, 64, 57
1, 104700, Control_c, 0, 64, 68
1, 104715, Control_c, 0, 64, 75
1, 104728, Note_off_c, 0, 36, 59
1, 104730, Control_c, 0, 64, 82
1, 104734, Note_off_c, 0, 76, 63
1, 104735, Note_on_c, 0, 75, 77
1, 104745, Control_c, 0, 64, 84
1, 104745, Note_on_c, 0, 37, 67
1, 104752, Note_off_c, 0, 75, 68
1, 104760, Control_c, 0, 64, 86
1, 104775, Control_c, 0, 64, 87
1, 104780, Note_off_c, 0, 37, 65
1, 104789, Control_c, 0, 64, 90
1, 104804, Control_c, 0, 64, 93
1, 104813, Note_on_c, 0, 74, 85
1, 104819, Control_c, 0, 64, 93
1, 104849, Control_c, 0, 64, 92
1, 104864, Control_c, 0, 64, 86
1, 104867, Note_off_c, 0, 74, 65
1, 104879, Control_c, 0, 64, 73
1, 104893, Control_c, 0, 64, 23
1, 104894, Note_on_c, 0, 84, 85
1, 104908, Control_c, 0, 64, 0
1, 104951, Note_on_c, 0, 43, 63
1, 104952, Control_c, 0, 64, 66
1, 104959, Note_off_c, 0, 84, 61
1, 104967, Control_c, 0, 64, 74
1, 104974, Note_on_c, 0, 80, 83
1, 104982, Control_c, 0, 64, 82
1, 104991, Note_off_c, 0, 43, 63
1, 104997, Control_c, 0, 64, 86
1, 105010, Poly_aftertouch_c, 0, 41, 0
1, 105011, Control_c, 0, 64, 87
1, 105026, Control_c, 0, 64, 88
1, 105041, Control_c, 0, 64, 92
1, 105053, Note_on_c, 0, 85, 88
1, 105056, Control_c, 0, 64, 95
1, 105067, Note_off_c, 0, 80, 61
1, 105070, Poly_aftertouch_c, 0, 42, 0
1, 105071, Control_c, 0, 64, 96
1, 105092, Poly_aftertouch_c, 0, 42, 0
1, 105115, Control_c, 0, 64, 94
1, 105129, Control_c, 0, 64, 85
1, 105144, Note_on_c, 0, 28, 79
1, 105144, Control_c, 0, 64, 65
1, 105149, Note_on_c, 0, 76, 90
1, 105159, Control_c, 0, 64, 0
1, 105173, Note_off_c, 0, 85, 56
1, 105198, Note_off_c, 0, 28, 61
1, 105213, Note_off_c, 0, 76, 64
1, 105219, Control_c, 0, 64, 68
1, 105222, Note_on_c, 0, 29, 62
1, 105234, Control_c, 0, 64, 78
1, 105249, Control_c, 0, 64, 86
1, 105256, Note_off_c, 0, 29, 58
1, 105263, Control_c, 0, 64, 88
1, 105267, Note_on_c, 0, 28, 65
1, 105300, Control_c, 0, 64, 89
1, 105314, Note_off_c, 0, 28, 63
1, 105316, Control_c, 0, 64, 89
1, 105337, Note_on_c, 0, 29, 49
1, 105346, Control_c, 0, 64, 90
1, 105361, Control_c, 0, 64, 90
1, 105375, Control_c, 0, 64, 91
1, 105379, Note_off_c, 0, 29, 50
1, 105390, Control_c, 0, 64, 93
1, 105405, Control_c, 0, 64, 96
1, 105420, Control_c, 0, 64, 96
1, 105449, Control_c, 0, 64, 96
1, 105464, Control_c, 0, 64, 91
1, 105479, Control_c, 0, 64, 80
1, 105494, Control_c, 0, 64, 64
1, 105495, Note_on_c, 0, 54, 79
1, 105506, Note_on_c, 0, 49, 54
1, 105509, Control_c, 0, 64, 0
1, 105534, Note_off_c, 0, 49, 36
1, 105538, Control_c, 0, 64, 57
1, 105547, Note_off_c, 0, 54, 61
1, 105553, Control_c, 0, 64, 69
1, 105567, Control_c, 0, 64, 75
1, 105570, Note_on_c, 0, 55, 69
1, 105582, Control_c, 0, 64, 81
1, 105597, Control_c, 0, 64, 84
1, 105601, Note_on_c, 0, 59, 79
1, 105602, Note_off_c, 0, 55, 67
1, 105612, Control_c, 0, 64, 85
1, 105618, Note_on_c, 0, 49, 64
1, 105627, Control_c, 0, 64, 87
1, 105642, Control_c, 0, 64, 89
1, 105646, Note_off_c, 0, 49, 65
1, 105657, Control_c, 0, 64, 89
1, 105660, Note_off_c, 0, 59, 58
1, 105686, Control_c, 0, 64, 89
1, 105691, Note_on_c, 0, 64, 69
1, 105693, Note_on_c, 0, 65, 66
1, 105701, Control_c, 0, 64, 86
1, 105705, Poly_aftertouch_c, 0, 54, 0
1, 105716, Control_c, 0, 64, 75
1, 105728, Note_off_c, 0, 64, 66
1, 105728, Note_off_c, 0, 65, 66
1, 105731, Control_c, 0, 64, 56
1, 105746, Control_c, 0, 64, 0
1, 105759, Note_on_c, 0, 43, 81
1, 105760, Control_c, 0, 64, 11
1, 105769, Note_on_c, 0, 62, 83
1, 105775, Control_c, 0, 64, 65
1, 105790, Control_c, 0, 64, 72
1, 105805, Control_c, 0, 64, 80
1, 105818, Note_off_c, 0, 62, 60
1, 105820, Control_c, 0, 64, 84
1, 105822, Note_off_c, 0, 43, 57
1, 105834, Control_c, 0, 64, 85
1, 105845, Note_on_c, 0, 70, 83
1, 105846, Note_on_c, 0, 44, 67
1, 105849, Control_c, 0, 64, 86
1, 105864, Control_c, 0, 64, 89
1, 105876, Note_off_c, 0, 44, 66
1, 105879, Control_c, 0, 64, 94
1, 105893, Control_c, 0, 64, 98
1, 105908, Control_c, 0, 64, 100
1, 105927, Note_on_c, 0, 74, 86
1, 105936, Note_off_c, 0, 70, 61
1, 105938, Control_c, 0, 64, 98
1, 105952, Control_c, 0, 64, 91
1, 105967, Control_c, 0, 64, 77
1, 105982, Control_c, 0, 64, 54
1, 105991, Note_on_c, 0, 35, 78
1, 105997, Control_c, 0, 64, 0
1, 106010, Note_on_c, 0, 75, 86
1, 106034, Control_c, 0, 64, 50
1, 106039, Note_off_c, 0, 35, 62
1, 106042, Note_off_c, 0, 74, 66
1, 106049, Control_c, 0, 64, 68
1, 106064, Control_c, 0, 64, 76
1, 106079, Note_on_c, 0, 36, 54
1, 106079, Control_c, 0, 64, 83
1, 106086, Note_off_c, 0, 75, 70
1, 106093, Control_c, 0, 64, 86
1, 106097, Note_on_c, 0, 76, 89
1, 106107, Note_off_c, 0, 36, 56
1, 106108, Control_c, 0, 64, 87
1, 106116, Note_off_c, 0, 76, 74
1, 106125, Control_c, 0, 64, 89
1, 106127, Note_on_c, 0, 35, 57
1, 106139, Control_c, 0, 64, 93
1, 106152, Note_off_c, 0, 35, 64
1, 106154, Control_c, 0, 64, 98
1, 106169, Control_c, 0, 64, 103
1, 106176, Note_on_c, 0, 75, 87
1, 106184, Control_c, 0, 64, 103
1, 106191, Note_on_c, 0, 36, 25
1, 106198, Control_c, 0, 64, 103
1, 106213, Control_c, 0, 64, 97
1, 106218, Note_off_c, 0, 75, 63
1, 106228, Control_c, 0, 64, 85
1, 106238, Note_off_c, 0, 36, 44
1, 106243, Control_c, 0, 64, 67
1, 106256, Note_on_c, 0, 83, 85
1, 106258, Control_c, 0, 64, 0
1, 106263, Note_on_c, 0, 43, 82
1, 106302, Control_c, 0, 64, 65
1, 106316, Control_c, 0, 64, 74
1, 106328, Note_on_c, 0, 81, 92
1, 106331, Control_c, 0, 64, 82
1, 106333, Note_off_c, 0, 83, 62
1, 106334, Note_off_c, 0, 43, 60
1, 106342, Note_on_c, 0, 44, 75
1, 106346, Control_c, 0, 64, 87
1, 106361, Control_c, 0, 64, 89
1, 106369, Note_off_c, 0, 44, 66
1, 106376, Control_c, 0, 64, 91
1, 106390, Control_c, 0, 64, 95
1, 106399, Note_on_c, 0, 86, 98
1, 106405, Control_c, 0, 64, 99
1, 106407, Note_off_c, 0, 81, 61
1, 106420, Control_c, 0, 64, 101
1, 106450, Control_c, 0, 64, 100
1, 106456, Note_off_c, 0, 86, 63
1, 106465, Control_c, 0, 64, 90
1, 106480, Control_c, 0, 64, 64
1, 106486, Note_on_c, 0, 28, 93
1, 106486, Note_on_c, 0, 76, 94
1, 106495, Control_c, 0, 64, 0
1, 106537, Note_off_c, 0, 76, 66
1, 106543, Note_off_c, 0, 28, 60
1, 106554, Control_c, 0, 64, 64
1, 106569, Control_c, 0, 64, 77
1, 106573, Note_on_c, 0, 29, 71
1, 106583, Control_c, 0, 64, 90
1, 106598, Control_c, 0, 64, 95
1, 106624, Note_off_c, 0, 29, 62
1, 106628, Note_on_c, 0, 28, 76
1, 106628, Control_c, 0, 64, 95
1, 106668, Note_off_c, 0, 28, 61
1, 106672, Control_c, 0, 64, 96
1, 106676, Note_on_c, 0, 29, 62
1, 106702, Control_c, 0, 64, 97
1, 106710, Note_off_c, 0, 29, 52
1, 106716, Control_c, 0, 64, 99
1, 106731, Control_c, 0, 64, 102
1, 106747, Control_c, 0, 64, 104
1, 106777, Control_c, 0, 64, 103
1, 106799, Control_c, 0, 64, 98
1, 106813, Control_c, 0, 64, 86
1, 106828, Control_c, 0, 64, 68
1, 106837, Note_on_c, 0, 48, 77
1, 106838, Note_on_c, 0, 55, 83
1, 106843, Control_c, 0, 64, 0
1, 106873, Control_c, 0, 64, 52
1, 106888, Control_c, 0, 64, 68
1, 106903, Control_c, 0, 64, 76
1, 106915, Note_on_c, 0, 65, 22
1, 106918, Control_c, 0, 64, 83
1, 106921, Note_off_c, 0, 55, 61
1, 106933, Control_c, 0, 64, 88
1, 106933, Note_on_c, 0, 60, 81
1, 106942, Note_on_c, 0, 56, 84
1, 106948, Control_c, 0, 64, 91
1, 106955, Note_off_c, 0, 65, 44
1, 106963, Control_c, 0, 64, 95
1, 106977, Control_c, 0, 64, 96
1, 106985, Note_off_c, 0, 48, 61
1, 106987, Note_off_c, 0, 56, 61
1, 106993, Note_on_c, 0, 55, 46
1, 106998, Note_off_c, 0, 60, 61
1, 107007, Control_c, 0, 64, 95
1, 107009, Note_on_c, 0, 65, 81
1, 107022, Control_c, 0, 64, 88
1, 107023, Note_off_c, 0, 55, 53
1, 107037, Control_c, 0, 64, 73
1, 107052, Control_c, 0, 64, 0
1, 107081, Control_c, 0, 64, 52
1, 107085, Note_off_c, 0, 65, 56
1, 107088, Note_on_c, 0, 61, 93
1, 107096, Control_c, 0, 64, 70
1, 107100, Note_on_c, 0, 42, 79
1, 107111, Control_c, 0, 64, 82
1, 107126, Control_c, 0, 64, 93
1, 107140, Control_c, 0, 64, 99
1, 107146, Note_off_c, 0, 61, 61
1, 107155, Note_off_c, 0, 42, 61
1, 107155, Control_c, 0, 64, 102
1, 107170, Note_on_c, 0, 71, 79
1, 107170, Control_c, 0, 64, 105
1, 107172, Note_on_c, 0, 43, 71
1, 107185, Control_c, 0, 64, 112
1, 107200, Control_c, 0, 64, 120
1, 107206, Note_off_c, 0, 43, 62
1, 107214, Control_c, 0, 64, 125
1, 107223, Note_on_c, 0, 42, 55
1, 107244, Control_c, 0, 64, 123
1, 107247, Note_on_c, 0, 75, 88
1, 107258, Note_off_c, 0, 42, 64
1, 107259, Control_c, 0, 64, 109
1, 107262, Note_off_c, 0, 71, 60
1, 107274, Control_c, 0, 64, 90
1, 107284, Note_off_c, 0, 75, 64
1, 107288, Control_c, 0, 64, 70
1, 107303, Control_c, 0, 64, 0
1, 107328, Note_on_c, 0, 34, 72
1, 107328, Note_on_c, 0, 74, 89
1, 107332, Control_c, 0, 64, 59
1, 107347, Control_c, 0, 64, 70
1, 107362, Note_off_c, 0, 34, 66
1, 107362, Control_c, 0, 64, 78
1, 107364, Note_off_c, 0, 74, 66
1, 107377, Control_c, 0, 64, 84
1, 107392, Control_c, 0, 64, 88
1, 107394, Note_on_c, 0, 35, 54
1, 107404, Note_on_c, 0, 77, 93
1, 107407, Control_c, 0, 64, 90
1, 107422, Control_c, 0, 64, 93
1, 107431, Note_off_c, 0, 35, 56
1, 107436, Note_on_c, 0, 34, 64
1, 107436, Control_c, 0, 64, 96
1, 107439, Note_off_c, 0, 77, 61
1, 107451, Control_c, 0, 64, 98
1, 107460, Note_off_c, 0, 34, 63
1, 107480, Note_on_c, 0, 76, 90
1, 107495, Control_c, 0, 64, 97
1, 107510, Control_c, 0, 64, 95
1, 107517, Note_off_c, 0, 76, 67
1, 107525, Control_c, 0, 64, 93
1, 107562, Note_on_c, 0, 82, 93
1, 107568, Note_on_c, 0, 43, 71
1, 107602, Note_off_c, 0, 43, 62
1, 107602, Note_off_c, 0, 82, 63
1, 107627, Note_on_c, 0, 45, 68
1, 107634, Note_on_c, 0, 82, 86
1, 107636, Control_c, 0, 64, 94
1, 107651, Control_c, 0, 64, 94
1, 107652, Note_off_c, 0, 45, 66
1, 107665, Control_c, 0, 64, 95
1, 107677, Note_off_c, 0, 82, 66
1, 107714, Note_on_c, 0, 87, 93
1, 107726, Control_c, 0, 64, 87
1, 107741, Control_c, 0, 64, 70
1, 107755, Control_c, 0, 64, 0
1, 107785, Note_on_c, 0, 76, 109
1, 107789, Note_on_c, 0, 28, 95
1, 107809, Note_off_c, 0, 87, 65
1, 107821, Note_off_c, 0, 76, 70
1, 107829, Control_c, 0, 64, 72
1, 107844, Control_c, 0, 64, 84
1, 107848, Note_off_c, 0, 28, 61
1, 107859, Control_c, 0, 64, 94
1, 107866, Note_on_c, 0, 29, 74
1, 107874, Control_c, 0, 64, 95
1, 107889, Control_c, 0, 64, 96
1, 107913, Note_on_c, 0, 28, 78
1, 107938, Note_off_c, 0, 29, 49
1, 107948, Control_c, 0, 64, 96
1, 107964, Note_off_c, 0, 28, 60
1, 107970, Note_on_c, 0, 29, 54
1, 107977, Control_c, 0, 64, 97
1, 107992, Control_c, 0, 64, 97
1, 108001, Note_off_c, 0, 29, 57
1, 108007, Control_c, 0, 64, 99
1, 108022, Control_c, 0, 64, 103
1, 108036, Control_c, 0, 64, 106
1, 108051, Control_c, 0, 64, 107
1, 108080, Control_c, 0, 64, 107
1, 108095, Control_c, 0, 64, 98
1, 108110, Control_c, 0, 64, 78
1, 108125, Control_c, 0, 64, 29
1, 108131, Note_on_c, 0, 47, 76
1, 108134, Note_on_c, 0, 56, 85
1, 108140, Control_c, 0, 64, 0
1, 108170, Control_c, 0, 64, 62
1, 108185, Control_c, 0, 64, 71
1, 108190, Note_off_c, 0, 56, 65
1, 108200, Control_c, 0, 64, 80
1, 108212, Note_on_c, 0, 61, 80
1, 108215, Control_c, 0, 64, 86
1, 108225, Note_on_c, 0, 57, 74
1, 108229, Control_c, 0, 64, 88
1, 108244, Control_c, 0, 64, 89
1, 108250, Note_off_c, 0, 57, 66
1, 108259, Control_c, 0, 64, 91
1, 108262, Note_off_c, 0, 61, 61
1, 108274, Control_c, 0, 64, 93
1, 108292, Note_on_c, 0, 66, 86
1, 108300, Note_off_c, 0, 47, 55
1, 108325, Control_c, 0, 64, 89
1, 108340, Control_c, 0, 64, 76
1, 108355, Control_c, 0, 64, 0
1, 108361, Note_on_c, 0, 60, 88
1, 108367, Note_off_c, 0, 66, 62
1, 108387, Note_on_c, 0, 42, 75
1, 108413, Note_off_c, 0, 60, 62
1, 108414, Control_c, 0, 64, 65
1, 108429, Note_off_c, 0, 42, 62
1, 108429, Control_c, 0, 64, 73
1, 108436, Note_on_c, 0, 72, 86
1, 108444, Control_c, 0, 64, 80
1, 108447, Note_on_c, 0, 43, 72
1, 108459, Control_c, 0, 64, 86
1, 108467, Note_on_c, 0, 71, 47
1, 108474, Control_c, 0, 64, 91
1, 108486, Note_off_c, 0, 43, 64
1, 108488, Control_c, 0, 64, 96
1, 108491, Note_off_c, 0, 71, 54
1, 108498, Note_off_c, 0, 72, 64
1, 108504, Control_c, 0, 64, 99
1, 108514, Note_on_c, 0, 76, 95
1, 108533, Note_on_c, 0, 42, 34
1, 108533, Control_c, 0, 64, 98
1, 108545, Note_off_c, 0, 76, 65
1, 108548, Control_c, 0, 64, 90
1, 108563, Control_c, 0, 64, 73
1, 108569, Note_off_c, 0, 42, 50
1, 108578, Control_c, 0, 64, 0
1, 108595, Note_on_c, 0, 73, 93
1, 108608, Control_c, 0, 64, 23
1, 108613, Note_on_c, 0, 33, 76
1, 108623, Control_c, 0, 64, 68
1, 108635, Note_off_c, 0, 73, 64
1, 108638, Control_c, 0, 64, 79
1, 108652, Control_c, 0, 64, 91
1, 108665, Note_on_c, 0, 78, 87
1, 108667, Control_c, 0, 64, 99
1, 108679, Note_off_c, 0, 33, 62
1, 108682, Control_c, 0, 64, 104
1, 108688, Note_on_c, 0, 34, 77
1, 108691, Note_on_c, 0, 79, 66
1, 108694, Note_off_c, 0, 78, 58
1, 108697, Control_c, 0, 64, 107
1, 108706, Note_off_c, 0, 79, 64
1, 108711, Control_c, 0, 64, 109
1, 108721, Note_off_c, 0, 34, 67
1, 108741, Note_on_c, 0, 77, 101
1, 108756, Control_c, 0, 64, 103
1, 108771, Control_c, 0, 64, 84
1, 108785, Control_c, 0, 64, 63
1, 108787, Note_off_c, 0, 77, 61
1, 108800, Control_c, 0, 64, 0
1, 108811, Note_on_c, 0, 81, 104
1, 108829, Note_on_c, 0, 45, 65
1, 108830, Control_c, 0, 64, 56
1, 108832, Note_on_c, 0, 43, 64
1, 108845, Control_c, 0, 64, 70
1, 108855, Note_off_c, 0, 81, 63
1, 108859, Control_c, 0, 64, 79
1, 108874, Control_c, 0, 64, 89
1, 108883, Note_on_c, 0, 81, 72
1, 108885, Note_on_c, 0, 83, 95
1, 108889, Control_c, 0, 64, 93
1, 108898, Note_off_c, 0, 43, 50
1, 108903, Control_c, 0, 64, 97
1, 108906, Note_on_c, 0, 84, 63
1, 108911, Note_off_c, 0, 81, 56
1, 108918, Control_c, 0, 64, 101
1, 108923, Note_off_c, 0, 84, 64
1, 108924, Note_off_c, 0, 45, 66
1, 108933, Control_c, 0, 64, 104
1, 108948, Control_c, 0, 64, 105
1, 108955, Note_on_c, 0, 88, 98
1, 108960, Note_off_c, 0, 83, 58
1, 108963, Control_c, 0, 64, 104
1, 108978, Control_c, 0, 64, 93
1, 108993, Control_c, 0, 64, 72
1, 108998, Note_off_c, 0, 88, 67
1, 109007, Control_c, 0, 64, 0
1, 109037, Note_on_c, 0, 76, 108
1, 109037, Note_on_c, 0, 28, 100
1, 109059, Control_c, 0, 64, 30
1, 109064, Note_on_c, 0, 81, 55
1, 109065, Note_off_c, 0, 81, 127
1, 109067, Note_off_c, 0, 76, 72
1, 109074, Control_c, 0, 64, 73
1, 109078, Note_on_c, 0, 86, 31
1, 109079, Note_off_c, 0, 86, 127
1, 109089, Control_c, 0, 64, 88
1, 109103, Note_off_c, 0, 28, 55
1, 109104, Control_c, 0, 64, 107
1, 109118, Control_c, 0, 64, 117
1, 109121, Note_on_c, 0, 29, 80
1, 109133, Control_c, 0, 64, 118
1, 109148, Control_c, 0, 64, 119
1, 109168, Note_off_c, 0, 29, 64
1, 109174, Note_on_c, 0, 28, 70
1, 109223, Note_off_c, 0, 28, 57
1, 109229, Note_on_c, 0, 29, 79
1, 109254, Note_off_c, 0, 29, 64
1, 109282, Control_c, 0, 64, 120
1, 109297, Control_c, 0, 64, 121
1, 109312, Control_c, 0, 64, 123
1, 109341, Control_c, 0, 64, 122
1, 109356, Control_c, 0, 64, 109
1, 109371, Control_c, 0, 64, 90
1, 109386, Control_c, 0, 64, 67
1, 109395, Note_on_c, 0, 57, 93
1, 109397, Note_on_c, 0, 46, 83
1, 109401, Control_c, 0, 64, 0
1, 109439, Note_off_c, 0, 46, 57
1, 109446, Control_c, 0, 64, 54
1, 109461, Control_c, 0, 64, 70
1, 109468, Note_off_c, 0, 57, 57
1, 109473, Note_on_c, 0, 58, 80
1, 109475, Control_c, 0, 64, 77
1, 109478, Note_on_c, 0, 62, 85
1, 109490, Control_c, 0, 64, 84
1, 109505, Control_c, 0, 64, 87
1, 109520, Control_c, 0, 64, 90
1, 109521, Note_off_c, 0, 62, 56
1, 109523, Note_off_c, 0, 58, 64
1, 109530, Note_on_c, 0, 57, 69
1, 109534, Control_c, 0, 64, 93
1, 109549, Control_c, 0, 64, 96
1, 109550, Note_on_c, 0, 67, 87
1, 109551, Note_off_c, 0, 57, 70
1, 109594, Control_c, 0, 64, 93
1, 109598, Note_off_c, 0, 67, 65
1, 109608, Control_c, 0, 64, 82
1, 109623, Control_c, 0, 64, 66
1, 109636, Note_on_c, 0, 59, 92
1, 109638, Control_c, 0, 64, 0
1, 109653, Control_c, 0, 64, 54
1, 109657, Note_on_c, 0, 40, 85
1, 109668, Control_c, 0, 64, 71
1, 109681, Note_off_c, 0, 59, 63
1, 109682, Control_c, 0, 64, 80
1, 109697, Control_c, 0, 64, 89
1, 109712, Control_c, 0, 64, 93
1, 109714, Note_off_c, 0, 40, 62
1, 109726, Note_on_c, 0, 73, 90
1, 109726, Control_c, 0, 64, 96
1, 109741, Control_c, 0, 64, 101
1, 109754, Note_on_c, 0, 41, 65
1, 109756, Control_c, 0, 64, 106
1, 109779, Control_c, 0, 64, 110
1, 109785, Note_off_c, 0, 73, 48
1, 109788, Note_off_c, 0, 41, 67
1, 109794, Control_c, 0, 64, 111
1, 109803, Note_on_c, 0, 40, 66
1, 109809, Note_on_c, 0, 74, 26
1, 109823, Note_on_c, 0, 77, 83
1, 109823, Control_c, 0, 64, 111
1, 109825, Note_off_c, 0, 40, 64
1, 109830, Note_on_c, 0, 76, 65
1, 109838, Control_c, 0, 64, 103
1, 109842, Note_off_c, 0, 77, 71
1, 109843, Note_off_c, 0, 74, 48
1, 109848, Note_off_c, 0, 76, 68
1, 109853, Control_c, 0, 64, 87
1, 109868, Control_c, 0, 64, 64
1, 109882, Control_c, 0, 64, 0
1, 109892, Note_on_c, 0, 72, 94
1, 109906, Note_on_c, 0, 34, 76
1, 109927, Control_c, 0, 64, 61
1, 109936, Note_off_c, 0, 72, 66
1, 109941, Control_c, 0, 64, 72
1, 109952, Note_off_c, 0, 34, 61
1, 109956, Control_c, 0, 64, 80
1, 109971, Control_c, 0, 64, 87
1, 109976, Note_on_c, 0, 79, 97
1, 109986, Control_c, 0, 64, 89
1, 109990, Note_on_c, 0, 35, 66
1, 110001, Control_c, 0, 64, 90
1, 110015, Control_c, 0, 64, 91
1, 110016, Note_off_c, 0, 79, 65
1, 110017, Note_off_c, 0, 35, 65
1, 110020, Note_on_c, 0, 34, 70
1, 110030, Control_c, 0, 64, 93
1, 110045, Control_c, 0, 64, 94
1, 110056, Note_off_c, 0, 34, 58
1, 110060, Control_c, 0, 64, 95
1, 110060, Note_on_c, 0, 78, 102
1, 110107, Note_off_c, 0, 78, 62
1, 110140, Note_on_c, 0, 46, 79
1, 110144, Note_on_c, 0, 80, 99
1, 110185, Note_off_c, 0, 80, 66
1, 110197, Note_off_c, 0, 46, 62
1, 110225, Note_on_c, 0, 47, 75
1, 110227, Note_on_c, 0, 84, 101
1, 110253, Note_on_c, 0, 86, 50
1, 110256, Note_off_c, 0, 47, 68
1, 110262, Note_on_c, 0, 46, 52
1, 110267, Note_off_c, 0, 84, 69
1, 110274, Note_off_c, 0, 86, 63
1, 110288, Note_off_c, 0, 46, 53
1, 110307, Note_on_c, 0, 89, 100
1, 110337, Note_off_c, 0, 89, 64
1, 110343, Control_c, 0, 64, 96
1, 110357, Control_c, 0, 64, 99
1, 110372, Control_c, 0, 64, 104
1, 110387, Control_c, 0, 64, 107
1, 110402, Control_c, 0, 64, 107
1, 110417, Control_c, 0, 64, 107
1, 110431, Control_c, 0, 64, 100
1, 110446, Control_c, 0, 64, 81
1, 110461, Control_c, 0, 64, 0
1, 110473, Note_on_c, 0, 28, 89
1, 110481, Note_on_c, 0, 76, 120
1, 110514, Note_on_c, 0, 77, 46
1, 110515, Note_off_c, 0, 77, 127
1, 110557, Control_c, 0, 64, 49
1, 110558, Note_off_c, 0, 28, 59
1, 110559, Note_on_c, 0, 29, 65
1, 110572, Control_c, 0, 64, 60
1, 110587, Control_c, 0, 64, 64
1, 110602, Control_c, 0, 64, 73
1, 110612, Note_off_c, 0, 29, 62
1, 110617, Control_c, 0, 64, 95
1, 110623, Note_on_c, 0, 28, 79
1, 110632, Control_c, 0, 64, 127
1, 110689, Note_on_c, 0, 29, 85
1, 110693, Note_off_c, 0, 28, 61
1, 110733, Note_off_c, 0, 29, 64
1, 110735, Note_on_c, 0, 28, 62
1, 110784, Note_off_c, 0, 76, 53
1, 110788, Note_off_c, 0, 28, 61
1, 110796, Note_on_c, 0, 29, 75
1, 110835, Note_off_c, 0, 29, 61
1, 110849, Note_on_c, 0, 28, 67
1, 110892, Note_off_c, 0, 28, 61
1, 110906, Note_on_c, 0, 29, 78
1, 110938, Note_off_c, 0, 29, 64
1, 110955, Note_on_c, 0, 28, 66
1, 110985, Note_off_c, 0, 28, 61
1, 111008, Note_on_c, 0, 29, 70
1, 111036, Note_off_c, 0, 29, 65
1, 111048, Note_on_c, 0, 28, 70
1, 111091, Note_off_c, 0, 28, 55
1, 111104, Note_on_c, 0, 29, 66
1, 111136, Note_off_c, 0, 29, 66
1, 111154, Note_on_c, 0, 28, 65
1, 111202, Note_off_c, 0, 28, 54
1, 111208, Note_on_c, 0, 29, 70
1, 111237, Note_off_c, 0, 29, 68
1, 111264, Note_on_c, 0, 28, 51
1, 111303, Note_off_c, 0, 28, 63
1, 111317, Note_on_c, 0, 29, 73
1, 111350, Note_off_c, 0, 29, 65
1, 111368, Note_on_c, 0, 28, 68
1, 111402, Note_off_c, 0, 28, 60
1, 111419, Note_on_c, 0, 29, 70
1, 111464, Note_off_c, 0, 29, 58
1, 111470, Note_on_c, 0, 28, 76
1, 111498, Note_off_c, 0, 28, 60
1, 111523, Note_on_c, 0, 29, 69
1, 111553, Note_on_c, 0, 28, 73
1, 111569, Note_off_c, 0, 29, 64
1, 111593, Note_off_c, 0, 28, 65
1, 111692, Control_c, 0, 67, 10
1, 111708, Control_c, 0, 67, 12
1, 111722, Control_c, 0, 67, 13
1, 111737, Control_c, 0, 67, 14
1, 111752, Control_c, 0, 67, 15
1, 111767, Control_c, 0, 67, 16
1, 111782, Control_c, 0, 67, 17
1, 111826, Control_c, 0, 67, 18
1, 111841, Control_c, 0, 67, 20
1, 111856, Control_c, 0, 67, 22
1, 111871, Control_c, 0, 67, 28
1, 111885, Control_c, 0, 67, 35
1, 111900, Control_c, 0, 67, 42
1, 111915, Control_c, 0, 67, 49
1, 111929, Control_c, 0, 67, 54
1, 111944, Control_c, 0, 67, 56
1, 111959, Control_c, 0, 67, 59
1, 111974, Control_c, 0, 67, 63
1, 111988, Control_c, 0, 67, 68
1, 112002, Control_c, 0, 64, 125
1, 112002, Control_c, 0, 67, 74
1, 112017, Control_c, 0, 64, 119
1, 112017, Control_c, 0, 67, 80
1, 112039, Control_c, 0, 64, 115
1, 112039, Control_c, 0, 67, 89
1, 112054, Control_c, 0, 64, 111
1, 112054, Control_c, 0, 67, 95
1, 112069, Control_c, 0, 64, 106
1, 112069, Control_c, 0, 67, 101
1, 112084, Control_c, 0, 64, 101
1, 112084, Control_c, 0, 67, 108
1, 112099, Control_c, 0, 64, 96
1, 112099, Control_c, 0, 67, 116
1, 112114, Control_c, 0, 64, 90
1, 112114, Control_c, 0, 67, 125
1, 112128, Control_c, 0, 64, 82
1, 112128, Control_c, 0, 67, 127
1, 112143, Control_c, 0, 64, 75
1, 112158, Control_c, 0, 64, 64
1, 112173, Control_c, 0, 64, 0
1, 112603, Control_c, 0, 64, 54
1, 112618, Control_c, 0, 64, 63
1, 112632, Control_c, 0, 64, 66
1, 112647, Control_c, 0, 64, 70
1, 112649, Note_on_c, 0, 76, 54
1, 112650, Note_on_c, 0, 104, 50
1, 112655, Note_on_c, 0, 99, 53
1, 112662, Control_c, 0, 64, 74
1, 112665, Note_on_c, 0, 97, 43
1, 112665, Note_on_c, 0, 102, 45
1, 112677, Control_c, 0, 64, 77
1, 112692, Control_c, 0, 64, 78
1, 112695, Note_off_c, 0, 102, 62
1, 112696, Note_off_c, 0, 76, 57
1, 112697, Note_off_c, 0, 99, 63
1, 112699, Note_off_c, 0, 104, 61
1, 112704, Note_off_c, 0, 97, 55
1, 112707, Control_c, 0, 64, 79
1, 112722, Control_c, 0, 64, 80
1, 112730, Note_on_c, 0, 91, 54
1, 112734, Note_on_c, 0, 93, 45
1, 112737, Control_c, 0, 64, 81
1, 112751, Control_c, 0, 64, 83
1, 112766, Note_off_c, 0, 93, 55
1, 112766, Control_c, 0, 64, 85
1, 112788, Control_c, 0, 64, 86
1, 112792, Note_off_c, 0, 91, 47
1, 112799, Note_on_c, 0, 76, 59
1, 112803, Control_c, 0, 64, 88
1, 112817, Note_on_c, 0, 89, 51
1, 112818, Control_c, 0, 64, 88
1, 112832, Control_c, 0, 64, 89
1, 112835, Note_off_c, 0, 89, 61
1, 112847, Note_off_c, 0, 76, 59
1, 112847, Control_c, 0, 64, 90
1, 112862, Control_c, 0, 64, 91
1, 112877, Control_c, 0, 64, 92
1, 112888, Note_on_c, 0, 93, 65
1, 112892, Control_c, 0, 64, 93
1, 112897, Note_on_c, 0, 91, 45
1, 112906, Control_c, 0, 64, 95
1, 112912, Note_off_c, 0, 93, 53
1, 112919, Note_off_c, 0, 91, 56
1, 112921, Control_c, 0, 64, 98
1, 112936, Control_c, 0, 64, 102
1, 112939, Note_on_c, 0, 76, 54
1, 112951, Note_on_c, 0, 102, 76
1, 112951, Control_c, 0, 64, 105
1, 112958, Note_on_c, 0, 97, 67
1, 112959, Note_on_c, 0, 94, 65
1, 112964, Note_on_c, 0, 99, 54
1, 112966, Control_c, 0, 64, 109
1, 112979, Note_off_c, 0, 76, 61
1, 112981, Control_c, 0, 64, 111
1, 112981, Note_off_c, 0, 102, 59
1, 112986, Note_off_c, 0, 99, 64
1, 112993, Note_off_c, 0, 97, 61
1, 112996, Control_c, 0, 64, 113
1, 112996, Control_c, 0, 67, 114
1, 113011, Control_c, 0, 64, 115
1, 113011, Control_c, 0, 67, 90
1, 113014, Note_on_c, 0, 89, 73
1, 113018, Note_off_c, 0, 94, 63
1, 113025, Control_c, 0, 64, 116
1, 113025, Control_c, 0, 67, 65
1, 113034, Note_on_c, 0, 91, 48
1, 113040, Control_c, 0, 64, 116
1, 113040, Control_c, 0, 67, 41
1, 113055, Control_c, 0, 67, 24
1, 113066, Note_off_c, 0, 89, 63
1, 113068, Note_off_c, 0, 91, 33
1, 113070, Control_c, 0, 67, 13
1, 113082, Note_on_c, 0, 76, 64
1, 113084, Control_c, 0, 64, 117
1, 113084, Control_c, 0, 67, 0
1, 113097, Note_on_c, 0, 88, 70
1, 113112, Note_off_c, 0, 76, 64
1, 113118, Note_off_c, 0, 88, 69
1, 113177, Note_on_c, 0, 89, 67
1, 113186, Poly_aftertouch_c, 0, 86, 0
1, 113195, Note_on_c, 0, 91, 48
1, 113196, Note_off_c, 0, 89, 60
1, 113217, Note_on_c, 0, 76, 71
1, 113218, Note_off_c, 0, 91, 37
1, 113222, Note_on_c, 0, 99, 85
1, 113230, Note_on_c, 0, 97, 74
1, 113231, Note_on_c, 0, 92, 72
1, 113235, Note_on_c, 0, 94, 75
1, 113261, Note_off_c, 0, 97, 59
1, 113266, Note_off_c, 0, 76, 61
1, 113271, Note_off_c, 0, 99, 65
1, 113281, Note_off_c, 0, 94, 55
1, 113292, Note_on_c, 0, 88, 71
1, 113296, Note_off_c, 0, 92, 64
1, 113314, Note_on_c, 0, 89, 46
1, 113339, Note_off_c, 0, 89, 36
1, 113340, Note_off_c, 0, 88, 64
1, 113369, Note_on_c, 0, 76, 67
1, 113369, Note_on_c, 0, 86, 72
1, 113385, Note_on_c, 0, 84, 54
1, 113392, Note_off_c, 0, 86, 69
1, 113401, Note_off_c, 0, 76, 59
1, 113405, Note_off_c, 0, 84, 62
1, 113452, Note_on_c, 0, 88, 68
1, 113467, Note_off_c, 0, 88, 65
1, 113494, Note_on_c, 0, 97, 90
1, 113499, Note_on_c, 0, 90, 84
1, 113500, Note_on_c, 0, 76, 79
1, 113503, Note_on_c, 0, 92, 87
1, 113527, Note_on_c, 0, 94, 35
1, 113528, Note_off_c, 0, 94, 127
1, 113544, Note_off_c, 0, 97, 62
1, 113560, Note_off_c, 0, 92, 64
1, 113562, Note_off_c, 0, 76, 65
1, 113574, Note_on_c, 0, 86, 78
1, 113577, Note_off_c, 0, 90, 63
1, 113616, Note_on_c, 0, 88, 5
1, 113616, Note_off_c, 0, 86, 66
1, 113645, Note_on_c, 0, 76, 76
1, 113646, Note_on_c, 0, 84, 79
1, 113665, Note_off_c, 0, 84, 72
1, 113667, Note_off_c, 0, 88, 25
1, 113671, Note_on_c, 0, 83, 37
1, 113698, Note_off_c, 0, 76, 65
1, 113699, Note_off_c, 0, 83, 34
1, 113732, Note_on_c, 0, 86, 71
1, 113732, Note_on_c, 0, 88, 74
1, 113754, Note_off_c, 0, 88, 57
1, 113756, Note_off_c, 0, 86, 67
1, 113775, Note_on_c, 0, 76, 79
1, 113775, Note_on_c, 0, 94, 84
1, 113777, Note_on_c, 0, 92, 87
1, 113779, Note_on_c, 0, 87, 86
1, 113781, Note_on_c, 0, 90, 88
1, 113814, Note_off_c, 0, 94, 64
1, 113822, Note_off_c, 0, 76, 67
1, 113825, Note_off_c, 0, 92, 64
1, 113829, Note_off_c, 0, 90, 64
1, 113844, Note_off_c, 0, 87, 61
1, 113850, Note_on_c, 0, 84, 71
1, 113862, Note_on_c, 0, 86, 59
1, 113881, Note_off_c, 0, 86, 61
1, 113884, Note_off_c, 0, 84, 65
1, 113899, Note_on_c, 0, 76, 83
1, 113912, Note_on_c, 0, 83, 91
1, 113932, Note_off_c, 0, 83, 64
1, 113935, Note_off_c, 0, 76, 65
1, 113941, Note_on_c, 0, 81, 40
1, 113968, Note_off_c, 0, 81, 36
1, 113989, Note_on_c, 0, 84, 95
1, 113991, Note_on_c, 0, 86, 87
1, 114026, Note_off_c, 0, 86, 65
1, 114030, Note_off_c, 0, 84, 68
1, 114161, Control_c, 0, 64, 116
1, 114168, Note_on_c, 0, 60, 68
1, 114176, Note_on_c, 0, 87, 65
1, 114176, Control_c, 0, 64, 114
1, 114191, Control_c, 0, 64, 104
1, 114204, Note_on_c, 0, 64, 61
1, 114206, Control_c, 0, 64, 88
1, 114221, Control_c, 0, 64, 66
1, 114221, Note_on_c, 0, 82, 79
1, 114235, Control_c, 0, 64, 0
1, 114240, Note_on_c, 0, 66, 66
1, 114260, Note_off_c, 0, 87, 63
1, 114278, Note_on_c, 0, 79, 64
1, 114285, Note_on_c, 0, 68, 74
1, 114290, Note_off_c, 0, 64, 65
1, 114293, Note_off_c, 0, 60, 60
1, 114297, Note_off_c, 0, 82, 63
1, 114305, Note_off_c, 0, 66, 65
1, 114318, Note_on_c, 0, 71, 94
1, 114318, Note_on_c, 0, 76, 95
1, 114321, Note_on_c, 0, 74, 91
1, 114331, Control_c, 0, 64, 60
1, 114343, Note_off_c, 0, 79, 65
1, 114346, Control_c, 0, 64, 79
1, 114347, Note_off_c, 0, 68, 65
1, 114361, Control_c, 0, 64, 86
1, 114376, Control_c, 0, 64, 89
1, 114388, Note_off_c, 0, 71, 49
1, 114391, Control_c, 0, 64, 89
1, 114405, Control_c, 0, 64, 90
1, 114420, Control_c, 0, 64, 90
1, 114435, Note_off_c, 0, 74, 60
1, 114439, Note_off_c, 0, 76, 62
1, 114500, Note_on_c, 0, 59, 65
1, 114516, Note_on_c, 0, 89, 73
1, 114535, Note_on_c, 0, 62, 59
1, 114553, Control_c, 0, 64, 91
1, 114573, Note_off_c, 0, 62, 61
1, 114578, Note_on_c, 0, 68, 58
1, 114579, Note_on_c, 0, 84, 74
1, 114579, Note_off_c, 0, 59, 62
1, 114583, Control_c, 0, 64, 91
1, 114585, Note_on_c, 0, 86, 14
1, 114595, Note_off_c, 0, 89, 60
1, 114629, Note_off_c, 0, 86, 47
1, 114631, Note_on_c, 0, 81, 64
1, 114638, Note_off_c, 0, 68, 61
1, 114640, Note_on_c, 0, 70, 72
1, 114656, Control_c, 0, 64, 90
1, 114663, Note_off_c, 0, 70, 69
1, 114667, Note_off_c, 0, 84, 63
1, 114671, Control_c, 0, 64, 83
1, 114686, Control_c, 0, 64, 70
1, 114701, Control_c, 0, 64, 0
1, 114704, Note_off_c, 0, 81, 62
1, 114708, Note_on_c, 0, 76, 95
1, 114710, Note_on_c, 0, 73, 96
1, 114710, Note_on_c, 0, 74, 93
1, 114731, Control_c, 0, 64, 61
1, 114746, Control_c, 0, 64, 68
1, 114753, Note_off_c, 0, 73, 63
1, 114761, Control_c, 0, 64, 75
1, 114775, Control_c, 0, 64, 83
1, 114790, Control_c, 0, 64, 86
1, 114805, Control_c, 0, 64, 87
1, 114817, Note_off_c, 0, 76, 63
1, 114817, Note_off_c, 0, 74, 62
1, 114838, Note_on_c, 0, 82, 36
1, 114877, Note_on_c, 0, 79, 35
1, 114879, Note_off_c, 0, 82, 48
1, 114879, Control_c, 0, 64, 87
1, 114895, Control_c, 0, 64, 88
1, 114904, Note_on_c, 0, 87, 73
1, 114910, Control_c, 0, 64, 89
1, 114915, Note_on_c, 0, 60, 59
1, 114918, Note_off_c, 0, 79, 63
1, 114925, Control_c, 0, 64, 89
1, 114939, Control_c, 0, 64, 90
1, 114962, Note_on_c, 0, 82, 74
1, 114970, Note_on_c, 0, 64, 67
1, 114984, Control_c, 0, 64, 89
1, 114990, Note_on_c, 0, 66, 71
1, 114993, Note_off_c, 0, 87, 60
1, 114999, Control_c, 0, 64, 83
1, 115001, Note_off_c, 0, 60, 52
1, 115013, Note_on_c, 0, 79, 72
1, 115014, Control_c, 0, 64, 71
1, 115035, Control_c, 0, 64, 0
1, 115037, Poly_aftertouch_c, 0, 84, 0
1, 115040, Note_on_c, 0, 68, 71
1, 115043, Note_off_c, 0, 64, 64
1, 115043, Note_off_c, 0, 82, 62
1, 115056, Note_off_c, 0, 66, 65
1, 115075, Note_on_c, 0, 76, 95
1, 115078, Note_on_c, 0, 74, 90
1, 115080, Note_on_c, 0, 71, 90
1, 115080, Control_c, 0, 64, 33
1, 115082, Note_off_c, 0, 79, 65
1, 115095, Control_c, 0, 64, 71
1, 115109, Control_c, 0, 64, 81
1, 115112, Note_off_c, 0, 68, 64
1, 115124, Control_c, 0, 64, 88
1, 115129, Note_off_c, 0, 71, 62
1, 115139, Control_c, 0, 64, 89
1, 115154, Control_c, 0, 64, 90
1, 115182, Note_off_c, 0, 74, 60
1, 115200, Note_off_c, 0, 76, 60
1, 115252, Note_on_c, 0, 59, 61
1, 115270, Note_on_c, 0, 89, 77
1, 115282, Note_on_c, 0, 62, 53
1, 115303, Note_on_c, 0, 86, 22
1, 115316, Note_off_c, 0, 59, 63
1, 115317, Control_c, 0, 64, 90
1, 115323, Note_on_c, 0, 68, 68
1, 115325, Note_off_c, 0, 62, 60
1, 115329, Note_on_c, 0, 84, 79
1, 115343, Note_off_c, 0, 89, 60
1, 115346, Control_c, 0, 64, 91
1, 115353, Note_off_c, 0, 86, 53
1, 115361, Control_c, 0, 64, 90
1, 115381, Note_off_c, 0, 68, 63
1, 115381, Note_on_c, 0, 70, 71
1, 115387, Note_on_c, 0, 81, 82
1, 115391, Control_c, 0, 64, 87
1, 115406, Control_c, 0, 64, 77
1, 115407, Note_off_c, 0, 70, 68
1, 115418, Note_off_c, 0, 84, 60
1, 115420, Control_c, 0, 64, 59
1, 115435, Control_c, 0, 64, 0
1, 115449, Note_on_c, 0, 73, 88
1, 115449, Note_on_c, 0, 76, 96
1, 115449, Note_off_c, 0, 81, 61
1, 115451, Note_on_c, 0, 74, 98
1, 115465, Control_c, 0, 64, 59
1, 115479, Control_c, 0, 64, 73
1, 115487, Note_off_c, 0, 73, 62
1, 115494, Control_c, 0, 64, 83
1, 115509, Control_c, 0, 64, 89
1, 115524, Control_c, 0, 64, 90
1, 115553, Note_off_c, 0, 76, 63
1, 115555, Note_off_c, 0, 74, 63
1, 115570, Note_on_c, 0, 82, 41
1, 115598, Note_on_c, 0, 79, 34
1, 115612, Note_off_c, 0, 82, 48
1, 115613, Control_c, 0, 64, 91
1, 115628, Control_c, 0, 64, 91
1, 115633, Note_on_c, 0, 87, 74
1, 115636, Note_on_c, 0, 60, 67
1, 115643, Control_c, 0, 64, 92
1, 115647, Note_off_c, 0, 79, 63
1, 115658, Control_c, 0, 64, 93
1, 115694, Note_on_c, 0, 82, 77
1, 115703, Note_on_c, 0, 64, 70
1, 115715, Note_off_c, 0, 60, 59
1, 115717, Control_c, 0, 64, 92
1, 115718, Note_off_c, 0, 87, 58
1, 115720, Note_on_c, 0, 66, 72
1, 115732, Control_c, 0, 64, 85
1, 115741, Note_on_c, 0, 79, 70
1, 115747, Control_c, 0, 64, 72
1, 115758, Note_on_c, 0, 68, 71
1, 115760, Note_off_c, 0, 82, 62
1, 115762, Control_c, 0, 64, 0
1, 115765, Note_off_c, 0, 64, 65
1, 115784, Note_off_c, 0, 66, 65
1, 115795, Note_on_c, 0, 76, 98
1, 115797, Note_on_c, 0, 74, 91
1, 115802, Note_on_c, 0, 71, 96
1, 115807, Note_off_c, 0, 79, 63
1, 115814, Control_c, 0, 64, 65
1, 115829, Control_c, 0, 64, 75
1, 115834, Note_off_c, 0, 68, 63
1, 115844, Control_c, 0, 64, 84
1, 115857, Note_off_c, 0, 71, 60
1, 115858, Control_c, 0, 64, 89
1, 115888, Control_c, 0, 64, 90
1, 115908, Note_off_c, 0, 74, 61
1, 115929, Note_off_c, 0, 76, 58
1, 115932, Note_on_c, 0, 68, 35
1, 115957, Note_on_c, 0, 59, 65
1, 115965, Note_off_c, 0, 68, 47
1, 115974, Note_on_c, 0, 89, 76
1, 115991, Note_on_c, 0, 62, 51
1, 116014, Note_on_c, 0, 86, 33
1, 116019, Note_off_c, 0, 59, 58
1, 116021, Note_off_c, 0, 62, 60
1, 116032, Note_on_c, 0, 84, 71
1, 116036, Control_c, 0, 64, 90
1, 116043, Note_on_c, 0, 68, 50
1, 116045, Note_off_c, 0, 89, 57
1, 116051, Control_c, 0, 64, 91
1, 116054, Note_off_c, 0, 86, 48
1, 116066, Control_c, 0, 64, 91
1, 116071, Note_off_c, 0, 68, 62
1, 116079, Note_on_c, 0, 70, 71
1, 116084, Note_on_c, 0, 81, 67
1, 116095, Control_c, 0, 64, 90
1, 116102, Note_off_c, 0, 70, 69
1, 116110, Control_c, 0, 64, 84
1, 116111, Note_off_c, 0, 84, 64
1, 116125, Control_c, 0, 64, 71
1, 116140, Control_c, 0, 64, 0
1, 116144, Note_on_c, 0, 73, 89
1, 116146, Note_off_c, 0, 81, 63
1, 116150, Note_on_c, 0, 74, 91
1, 116150, Note_on_c, 0, 76, 99
1, 116184, Note_off_c, 0, 73, 62
1, 116184, Control_c, 0, 64, 64
1, 116199, Control_c, 0, 64, 72
1, 116214, Control_c, 0, 64, 81
1, 116229, Control_c, 0, 64, 86
1, 116243, Control_c, 0, 64, 86
1, 116255, Note_off_c, 0, 76, 63
1, 116260, Note_off_c, 0, 74, 63
1, 116288, Note_on_c, 0, 82, 24
1, 116302, Control_c, 0, 64, 87
1, 116317, Control_c, 0, 64, 89
1, 116320, Note_on_c, 0, 79, 55
1, 116328, Note_off_c, 0, 82, 52
1, 116332, Note_on_c, 0, 60, 55
1, 116332, Control_c, 0, 64, 91
1, 116340, Note_on_c, 0, 87, 71
1, 116342, Note_off_c, 0, 79, 62
1, 116347, Control_c, 0, 64, 91
1, 116370, Note_on_c, 0, 85, 40
1, 116390, Note_on_c, 0, 64, 55
1, 116391, Control_c, 0, 64, 90
1, 116400, Note_on_c, 0, 82, 81
1, 116400, Note_off_c, 0, 60, 60
1, 116400, Note_off_c, 0, 85, 58
1, 116406, Control_c, 0, 64, 81
1, 116409, Note_on_c, 0, 66, 72
1, 116415, Note_off_c, 0, 87, 55
1, 116421, Control_c, 0, 64, 62
1, 116422, Note_on_c, 0, 79, 73
1, 116436, Note_on_c, 0, 68, 74
1, 116436, Control_c, 0, 64, 0
1, 116441, Note_off_c, 0, 64, 64
1, 116451, Note_off_c, 0, 66, 63
1, 116457, Note_off_c, 0, 82, 62
1, 116479, Note_on_c, 0, 76, 96
1, 116481, Control_c, 0, 64, 46
1, 116483, Note_on_c, 0, 71, 89
1, 116483, Note_on_c, 0, 74, 92
1, 116489, Note_off_c, 0, 79, 64
1, 116497, Control_c, 0, 64, 71
1, 116512, Control_c, 0, 64, 81
1, 116523, Note_off_c, 0, 68, 62
1, 116534, Control_c, 0, 64, 90
1, 116541, Note_off_c, 0, 71, 63
1, 116549, Control_c, 0, 64, 90
1, 116591, Poly_aftertouch_c, 0, 77, 0
1, 116591, Note_off_c, 0, 74, 58
1, 116611, Note_off_c, 0, 76, 62
1, 116666, Note_on_c, 0, 59, 63
1, 116683, Note_on_c, 0, 89, 81
1, 116700, Note_on_c, 0, 62, 58
1, 116728, Note_off_c, 0, 59, 59
1, 116741, Note_off_c, 0, 62, 59
1, 116747, Note_on_c, 0, 68, 65
1, 116750, Note_on_c, 0, 84, 78
1, 116753, Poly_aftertouch_c, 0, 86, 127
1, 116759, Note_off_c, 0, 89, 60
1, 116786, Control_c, 0, 64, 91
1, 116789, Poly_aftertouch_c, 0, 86, 0
1, 116800, Control_c, 0, 64, 92
1, 116814, Note_on_c, 0, 81, 79
1, 116814, Note_on_c, 0, 70, 69
1, 116815, Control_c, 0, 64, 94
1, 116816, Note_off_c, 0, 68, 60
1, 116830, Control_c, 0, 64, 98
1, 116843, Note_off_c, 0, 70, 67
1, 116844, Note_off_c, 0, 84, 64
1, 116845, Control_c, 0, 64, 99
1, 116874, Control_c, 0, 64, 99
1, 116883, Note_off_c, 0, 81, 61
1, 116889, Control_c, 0, 64, 93
1, 116904, Control_c, 0, 64, 77
1, 116911, Note_on_c, 0, 73, 96
1, 116914, Note_on_c, 0, 76, 100
1, 116917, Note_on_c, 0, 74, 93
1, 116919, Control_c, 0, 64, 34
1, 116934, Control_c, 0, 64, 0
1, 116960, Note_off_c, 0, 73, 62
1, 116963, Control_c, 0, 64, 59
1, 116978, Control_c, 0, 64, 70
1, 116993, Control_c, 0, 64, 79
1, 117003, Note_off_c, 0, 74, 65
1, 117005, Note_off_c, 0, 76, 61
1, 117008, Control_c, 0, 64, 88
1, 117023, Control_c, 0, 64, 90
1, 117038, Control_c, 0, 64, 90
1, 117067, Control_c, 0, 64, 91
1, 117082, Control_c, 0, 64, 92
1, 117097, Control_c, 0, 64, 94
1, 117112, Control_c, 0, 64, 97
1, 117126, Control_c, 0, 64, 100
1, 117141, Control_c, 0, 64, 103
1, 117156, Control_c, 0, 64, 106
1, 117171, Control_c, 0, 64, 110
1, 117185, Control_c, 0, 64, 114
1, 117200, Control_c, 0, 64, 118
1, 117215, Control_c, 0, 64, 121
1, 117230, Control_c, 0, 64, 125
1, 117244, Control_c, 0, 64, 127
1, 117484, Note_on_c, 0, 100, 108
1, 117487, Note_on_c, 0, 88, 99
1, 117491, Note_on_c, 0, 76, 81
1, 117505, Control_c, 0, 64, 113
1, 117520, Control_c, 0, 64, 91
1, 117535, Control_c, 0, 64, 68
1, 117549, Control_c, 0, 64, 0
1, 117579, Control_c, 0, 64, 59
1, 117580, Note_off_c, 0, 100, 62
1, 117594, Control_c, 0, 64, 74
1, 117598, Note_off_c, 0, 76, 62
1, 117609, Control_c, 0, 64, 87
1, 117623, Control_c, 0, 64, 102
1, 117638, Control_c, 0, 64, 109
1, 117648, Note_off_c, 0, 88, 56
1, 117653, Control_c, 0, 64, 110
1, 117667, Control_c, 0, 64, 111
1, 117682, Control_c, 0, 64, 114
1, 117697, Control_c, 0, 64, 117
1, 117712, Control_c, 0, 64, 120
1, 117727, Control_c, 0, 64, 124
1, 117741, Control_c, 0, 64, 127
1, 117986, Note_on_c, 0, 88, 107
1, 117991, Note_on_c, 0, 76, 93
1, 118001, Note_on_c, 0, 64, 83
1, 118081, Note_off_c, 0, 88, 59
1, 118083, Note_off_c, 0, 64, 61
1, 118129, Note_off_c, 0, 76, 56
1, 118511, Note_on_c, 0, 76, 106
1, 118513, Note_on_c, 0, 64, 98
1, 118522, Note_on_c, 0, 52, 94
1, 118604, Note_off_c, 0, 52, 62
1, 118612, Note_off_c, 0, 76, 61
1, 118647, Note_off_c, 0, 64, 50
1, 119196, Note_on_c, 0, 64, 108
1, 119199, Note_on_c, 0, 52, 97
1, 119208, Note_on_c, 0, 40, 92
1, 119285, Note_off_c, 0, 64, 57
1, 119331, Note_off_c, 0, 52, 23
1, 119459, Note_off_c, 0, 40, 43
1, 120303, Note_on_c, 0, 52, 116
1, 120314, Note_on_c, 0, 40, 99
1, 120318, Note_on_c, 0, 28, 98
1, 120411, Control_c, 0, 64, 115
1, 120425, Control_c, 0, 64, 99
1, 120440, Control_c, 0, 64, 86
1, 120455, Control_c, 0, 64, 72
1, 120469, Control_c, 0, 64, 61
1, 120484, Control_c, 0, 64, 0
1, 120604, Control_c, 0, 64, 26
1, 120619, Control_c, 0, 64, 48
1, 120634, Control_c, 0, 64, 58
1, 120648, Control_c, 0, 64, 63
1, 120663, Control_c, 0, 64, 66
1, 120678, Control_c, 0, 64, 69
1, 120693, Control_c, 0, 64, 74
1, 120707, Control_c, 0, 64, 81
1, 120722, Control_c, 0, 64, 85
1, 120737, Control_c, 0, 64, 89
1, 120752, Control_c, 0, 64, 93
1, 120767, Control_c, 0, 64, 98
1, 120782, Control_c, 0, 64, 104
1, 120797, Control_c, 0, 64, 112
1, 120812, Control_c, 0, 64, 120
1, 120818, Note_off_c, 0, 52, 38
1, 120827, Control_c, 0, 64, 127
1, 120862, Note_off_c, 0, 28, 52
1, 120937, Note_off_c, 0, 40, 49
1, 122102, Control_c, 0, 64, 117
1, 122117, Control_c, 0, 64, 96
1, 122132, Control_c, 0, 64, 74
1, 122146, Control_c, 0, 64, 0
1, 122481, Note_on_c, 0, 99, 77
1, 122488, Note_on_c, 0, 60, 96
1, 122490, Note_on_c, 0, 57, 86
1, 122498, Note_on_c, 0, 49, 83
1, 122500, Note_on_c, 0, 96, 69
1, 122501, Note_on_c, 0, 93, 73
1, 122505, Note_on_c, 0, 88, 71
1, 122519, Note_on_c, 0, 52, 58
1, 122523, Control_c, 0, 64, 92
1, 122534, Note_off_c, 0, 60, 62
1, 122537, Note_off_c, 0, 99, 67
1, 122538, Control_c, 0, 64, 127
1, 122541, Note_on_c, 0, 54, 25
1, 122541, Note_off_c, 0, 57, 63
1, 122541, Note_off_c, 0, 88, 63
1, 122546, Note_off_c, 0, 52, 67
1, 122551, Note_off_c, 0, 93, 57
1, 122555, Note_off_c, 0, 96, 59
1, 122571, Note_off_c, 0, 49, 61
1, 122579, Note_off_c, 0, 54, 45
1, 122650, Note_on_c, 0, 88, 61
1, 122655, Note_on_c, 0, 56, 36
1, 122695, Note_off_c, 0, 56, 53
1, 122699, Note_off_c, 0, 88, 61
1, 122745, Control_c, 0, 64, 108
1, 122760, Control_c, 0, 64, 83
1, 122775, Control_c, 0, 64, 0
1, 122791, Note_on_c, 0, 93, 82
1, 122793, Note_on_c, 0, 57, 78
1, 122795, Note_on_c, 0, 85, 81
1, 122797, Note_on_c, 0, 46, 75
1, 122797, Note_on_c, 0, 55, 35
1, 122800, Note_on_c, 0, 51, 66
1, 122827, Note_off_c, 0, 55, 49
1, 122827, Note_off_c, 0, 51, 64
1, 122828, Note_off_c, 0, 85, 63
1, 122838, Note_off_c, 0, 93, 61
1, 122839, Note_off_c, 0, 57, 61
1, 122847, Note_off_c, 0, 46, 58
1, 122934, Note_on_c, 0, 52, 86
1, 122942, Note_on_c, 0, 45, 82
1, 122945, Note_on_c, 0, 49, 83
1, 122945, Note_on_c, 0, 85, 81
1, 122947, Note_on_c, 0, 93, 81
1, 122968, Control_c, 0, 64, 86
1, 122970, Note_off_c, 0, 45, 68
1, 122978, Note_off_c, 0, 49, 64
1, 122983, Control_c, 0, 64, 127
1, 122987, Note_off_c, 0, 93, 57
1, 122989, Note_off_c, 0, 52, 67
1, 122997, Note_off_c, 0, 85, 61
1, 123092, Note_on_c, 0, 88, 72
1, 123118, Note_off_c, 0, 88, 66
1, 123176, Control_c, 0, 64, 97
1, 123191, Control_c, 0, 64, 73
1, 123205, Control_c, 0, 64, 0
1, 123220, Note_on_c, 0, 66, 101
1, 123223, Note_on_c, 0, 61, 90
1, 123228, Note_on_c, 0, 99, 94
1, 123231, Note_on_c, 0, 94, 67
1, 123234, Note_on_c, 0, 57, 73
1, 123235, Note_on_c, 0, 88, 74
1, 123235, Control_c, 0, 64, 67
1, 123237, Note_on_c, 0, 52, 75
1, 123249, Note_off_c, 0, 94, 44
1, 123250, Control_c, 0, 64, 82
1, 123262, Note_off_c, 0, 66, 68
1, 123263, Note_on_c, 0, 93, 59
1, 123265, Note_off_c, 0, 88, 69
1, 123266, Note_off_c, 0, 61, 61
1, 123268, Note_off_c, 0, 57, 65
1, 123273, Control_c, 0, 64, 101
1, 123282, Note_off_c, 0, 52, 61
1, 123284, Note_off_c, 0, 93, 55
1, 123287, Control_c, 0, 64, 112
1, 123313, Note_off_c, 0, 99, 64
1, 123361, Control_c, 0, 64, 112
1, 123366, Note_on_c, 0, 93, 63
1, 123376, Control_c, 0, 64, 108
1, 123379, Note_on_c, 0, 88, 67
1, 123391, Control_c, 0, 64, 96
1, 123404, Note_off_c, 0, 93, 60
1, 123406, Control_c, 0, 64, 77
1, 123420, Control_c, 0, 64, 0
1, 123423, Note_off_c, 0, 88, 61
1, 123481, Note_on_c, 0, 64, 82
1, 123486, Note_on_c, 0, 51, 72
1, 123507, Note_on_c, 0, 58, 42
1, 123513, Note_on_c, 0, 93, 77
1, 123518, Note_on_c, 0, 85, 76
1, 123518, Note_off_c, 0, 64, 63
1, 123530, Note_off_c, 0, 58, 59
1, 123532, Note_off_c, 0, 51, 62
1, 123545, Note_off_c, 0, 93, 57
1, 123546, Note_off_c, 0, 85, 60
1, 123633, Note_on_c, 0, 63, 102
1, 123639, Note_on_c, 0, 57, 70
1, 123644, Note_on_c, 0, 49, 82
1, 123651, Note_on_c, 0, 52, 59
1, 123653, Note_on_c, 0, 85, 80
1, 123653, Note_on_c, 0, 93, 81
1, 123658, Control_c, 0, 64, 64
1, 123665, Note_off_c, 0, 49, 66
1, 123666, Note_off_c, 0, 57, 67
1, 123673, Control_c, 0, 64, 118
1, 123675, Note_off_c, 0, 93, 66
1, 123677, Note_off_c, 0, 52, 68
1, 123688, Control_c, 0, 64, 127
1, 123695, Note_off_c, 0, 85, 67
1, 123696, Note_off_c, 0, 63, 65
1, 123796, Note_on_c, 0, 88, 66
1, 123813, Note_off_c, 0, 88, 65
1, 123896, Control_c, 0, 64, 102
1, 123910, Control_c, 0, 64, 77
1, 123912, Note_on_c, 0, 72, 98
1, 123914, Note_on_c, 0, 69, 90
1, 123920, Note_on_c, 0, 88, 86
1, 123920, Note_on_c, 0, 99, 100
1, 123921, Note_on_c, 0, 61, 89
1, 123925, Control_c, 0, 64, 0
1, 123929, Note_on_c, 0, 93, 76
1, 123933, Note_on_c, 0, 96, 69
1, 123933, Note_on_c, 0, 64, 62
1, 123942, Note_off_c, 0, 88, 66
1, 123944, Note_off_c, 0, 72, 69
1, 123945, Note_off_c, 0, 69, 69
1, 123957, Note_off_c, 0, 64, 65
1, 123957, Note_off_c, 0, 93, 62
1, 123961, Note_off_c, 0, 96, 66
1, 123977, Note_off_c, 0, 61, 66
1, 123981, Note_off_c, 0, 99, 65
1, 124076, Note_on_c, 0, 88, 64
1, 124101, Note_on_c, 0, 93, 22
1, 124107, Note_off_c, 0, 88, 47
1, 124139, Note_off_c, 0, 93, 30
1, 124194, Note_on_c, 0, 69, 109
1, 124196, Note_on_c, 0, 64, 102
1, 124197, Note_on_c, 0, 61, 92
1, 124201, Note_on_c, 0, 57, 90
1, 124207, Note_on_c, 0, 93, 95
1, 124210, Note_on_c, 0, 85, 90
1, 124229, Control_c, 0, 64, 61
1, 124243, Control_c, 0, 64, 52
1, 124246, Note_off_c, 0, 85, 65
1, 124246, Note_off_c, 0, 93, 63
1, 124258, Control_c, 0, 64, 0
1, 124350, Note_on_c, 0, 93, 73
1, 124354, Note_on_c, 0, 85, 70
1, 124376, Note_off_c, 0, 93, 63
1, 124388, Note_off_c, 0, 85, 55
1, 124485, Note_on_c, 0, 88, 72
1, 124503, Note_on_c, 0, 81, 32
1, 124504, Note_off_c, 0, 81, 127
1, 124523, Note_off_c, 0, 88, 62
1, 124600, Control_c, 0, 64, 49
1, 124614, Note_on_c, 0, 99, 90
1, 124615, Control_c, 0, 64, 67
1, 124626, Note_on_c, 0, 88, 68
1, 124628, Note_on_c, 0, 93, 66
1, 124628, Note_on_c, 0, 96, 58
1, 124630, Control_c, 0, 64, 75
1, 124642, Note_off_c, 0, 88, 64
1, 124645, Control_c, 0, 64, 83
1, 124651, Note_off_c, 0, 96, 55
1, 124657, Note_off_c, 0, 93, 63
1, 124659, Control_c, 0, 64, 89
1, 124674, Control_c, 0, 64, 91
1, 124687, Note_off_c, 0, 99, 54
1, 124689, Control_c, 0, 64, 92
1, 124704, Control_c, 0, 64, 92
1, 124717, Control_c, 0, 64, 93
1, 124747, Control_c, 0, 64, 93
1, 124761, Note_on_c, 0, 88, 66
1, 124769, Note_on_c, 0, 93, 63
1, 124779, Note_on_c, 0, 96, 50
1, 124799, Control_c, 0, 64, 94
1, 124800, Note_off_c, 0, 93, 65
1, 124800, Note_off_c, 0, 96, 62
1, 124810, Note_off_c, 0, 88, 60
1, 124845, Note_off_c, 0, 69, 52
1, 124861, Note_off_c, 0, 57, 57
1, 124877, Note_off_c, 0, 64, 56
1, 124913, Note_on_c, 0, 93, 75
1, 124916, Note_on_c, 0, 85, 77
1, 124917, Note_off_c, 0, 61, 58
1, 124946, Control_c, 0, 64, 94
1, 124949, Note_off_c, 0, 85, 58
1, 124955, Note_off_c, 0, 93, 56
1, 125021, Control_c, 0, 64, 95
1, 125036, Control_c, 0, 64, 96
1, 125051, Control_c, 0, 64, 97
1, 125051, Note_on_c, 0, 85, 73
1, 125057, Note_on_c, 0, 93, 67
1, 125065, Control_c, 0, 64, 101
1, 125080, Control_c, 0, 64, 105
1, 125089, Note_off_c, 0, 93, 60
1, 125095, Control_c, 0, 64, 112
1, 125096, Note_off_c, 0, 85, 56
1, 125110, Control_c, 0, 64, 120
1, 125125, Control_c, 0, 64, 127
1, 125163, Note_on_c, 0, 88, 80
1, 125182, Note_off_c, 0, 88, 69
1, 125323, Note_on_c, 0, 99, 81
1, 125325, Note_on_c, 0, 66, 96
1, 125331, Note_on_c, 0, 61, 82
1, 125333, Control_c, 0, 64, 93
1, 125335, Note_on_c, 0, 88, 72
1, 125335, Note_on_c, 0, 96, 56
1, 125336, Note_on_c, 0, 52, 72
1, 125338, Note_on_c, 0, 93, 72
1, 125347, Note_on_c, 0, 57, 62
1, 125347, Control_c, 0, 64, 75
1, 125359, Note_off_c, 0, 88, 65
1, 125362, Control_c, 0, 64, 65
1, 125377, Control_c, 0, 64, 71
1, 125385, Note_off_c, 0, 66, 65
1, 125389, Note_off_c, 0, 96, 58
1, 125392, Control_c, 0, 64, 81
1, 125393, Note_off_c, 0, 99, 64
1, 125400, Note_off_c, 0, 93, 56
1, 125407, Control_c, 0, 64, 94
1, 125408, Note_off_c, 0, 61, 61
1, 125413, Note_off_c, 0, 57, 60
1, 125421, Control_c, 0, 64, 104
1, 125428, Note_off_c, 0, 52, 65
1, 125436, Control_c, 0, 64, 108
1, 125451, Control_c, 0, 64, 108
1, 125477, Note_on_c, 0, 88, 73
1, 125492, Note_on_c, 0, 93, 46
1, 125508, Note_on_c, 0, 96, 43
1, 125526, Note_off_c, 0, 93, 57
1, 125529, Note_off_c, 0, 96, 53
1, 125533, Control_c, 0, 64, 109
1, 125535, Note_off_c, 0, 88, 58
1, 125548, Control_c, 0, 64, 111
1, 125562, Control_c, 0, 64, 114
1, 125577, Control_c, 0, 64, 115
1, 125607, Control_c, 0, 64, 114
1, 125622, Control_c, 0, 64, 100
1, 125631, Note_on_c, 0, 63, 111
1, 125636, Control_c, 0, 64, 81
1, 125638, Note_on_c, 0, 57, 77
1, 125641, Note_on_c, 0, 85, 85
1, 125642, Note_on_c, 0, 49, 88
1, 125644, Note_on_c, 0, 93, 74
1, 125651, Control_c, 0, 64, 51
1, 125656, Note_on_c, 0, 52, 64
1, 125666, Control_c, 0, 64, 0
1, 125680, Control_c, 0, 64, 20
1, 125684, Note_off_c, 0, 85, 62
1, 125695, Control_c, 0, 64, 67
1, 125696, Note_off_c, 0, 93, 60
1, 125710, Control_c, 0, 64, 78
1, 125725, Control_c, 0, 64, 87
1, 125738, Note_off_c, 0, 63, 59
1, 125740, Control_c, 0, 64, 92
1, 125754, Control_c, 0, 64, 93
1, 125769, Control_c, 0, 64, 95
1, 125776, Note_off_c, 0, 57, 57
1, 125784, Control_c, 0, 64, 99
1, 125787, Note_on_c, 0, 93, 59
1, 125789, Note_on_c, 0, 85, 74
1, 125799, Control_c, 0, 64, 104
1, 125803, Note_off_c, 0, 52, 63
1, 125812, Note_off_c, 0, 93, 54
1, 125814, Control_c, 0, 64, 109
1, 125823, Note_off_c, 0, 49, 60
1, 125829, Control_c, 0, 64, 115
1, 125840, Note_off_c, 0, 85, 62
1, 125844, Control_c, 0, 64, 120
1, 125858, Control_c, 0, 64, 125
1, 125873, Control_c, 0, 64, 127
1, 125909, Note_on_c, 0, 88, 85
1, 125937, Note_off_c, 0, 88, 62
1, 126051, Control_c, 0, 64, 105
1, 126058, Note_on_c, 0, 54, 106
1, 126064, Note_on_c, 0, 99, 80
1, 126066, Note_on_c, 0, 45, 79
1, 126066, Control_c, 0, 64, 82
1, 126067, Note_on_c, 0, 96, 49
1, 126076, Note_on_c, 0, 49, 73
1, 126076, Note_on_c, 0, 93, 70
1, 126079, Note_on_c, 0, 88, 76
1, 126079, Note_on_c, 0, 52, 64
1, 126082, Control_c, 0, 64, 61
1, 126091, Note_off_c, 0, 45, 67
1, 126097, Control_c, 0, 64, 40
1, 126102, Note_off_c, 0, 88, 63
1, 126102, Note_off_c, 0, 49, 65
1, 126103, Note_off_c, 0, 52, 60
1, 126111, Note_off_c, 0, 54, 64
1, 126111, Control_c, 0, 64, 69
1, 126124, Note_off_c, 0, 99, 64
1, 126126, Note_off_c, 0, 96, 63
1, 126126, Control_c, 0, 64, 79
1, 126136, Note_off_c, 0, 93, 59
1, 126141, Control_c, 0, 64, 89
1, 126156, Control_c, 0, 64, 94
1, 126171, Control_c, 0, 64, 95
1, 126185, Control_c, 0, 64, 95
1, 126200, Control_c, 0, 64, 96
1, 126212, Note_on_c, 0, 88, 66
1, 126215, Control_c, 0, 64, 100
1, 126219, Note_on_c, 0, 93, 48
1, 126223, Note_on_c, 0, 96, 48
1, 126229, Control_c, 0, 64, 107
1, 126243, Note_off_c, 0, 96, 61
1, 126244, Control_c, 0, 64, 115
1, 126246, Note_off_c, 0, 93, 60
1, 126267, Control_c, 0, 64, 118
1, 126267, Note_off_c, 0, 88, 62
1, 126311, Control_c, 0, 64, 118
1, 126326, Control_c, 0, 64, 109
1, 126341, Control_c, 0, 64, 92
1, 126356, Control_c, 0, 64, 70
1, 126366, Note_on_c, 0, 57, 84
1, 126368, Note_on_c, 0, 60, 104
1, 126371, Control_c, 0, 64, 0
1, 126374, Note_on_c, 0, 52, 82
1, 126375, Note_on_c, 0, 49, 89
1, 126379, Note_on_c, 0, 93, 90
1, 126380, Note_on_c, 0, 85, 85
1, 126421, Note_off_c, 0, 85, 64
1, 126429, Control_c, 0, 64, 64
1, 126431, Note_off_c, 0, 93, 58
1, 126444, Control_c, 0, 64, 74
1, 126459, Control_c, 0, 64, 84
1, 126474, Control_c, 0, 64, 90
1, 126489, Control_c, 0, 64, 91
1, 126525, Note_on_c, 0, 93, 86
1, 126526, Note_on_c, 0, 85, 83
1, 126548, Control_c, 0, 64, 92
1, 126576, Note_off_c, 0, 93, 59
1, 126587, Note_off_c, 0, 85, 54
1, 126669, Note_on_c, 0, 88, 90
1, 126676, Note_on_c, 0, 81, 81
1, 126707, Note_off_c, 0, 88, 65
1, 126717, Note_off_c, 0, 49, 53
1, 126718, Note_off_c, 0, 52, 57
1, 126723, Note_off_c, 0, 81, 61
1, 126729, Note_off_c, 0, 57, 60
1, 126741, Control_c, 0, 64, 92
1, 126777, Note_off_c, 0, 60, 50
1, 126844, Control_c, 0, 64, 93
1, 126949, Control_c, 0, 64, 89
1, 126964, Control_c, 0, 64, 78
1, 126979, Control_c, 0, 64, 42
1, 126994, Control_c, 0, 64, 0
1, 127009, Note_on_c, 0, 62, 96
1, 127009, Note_on_c, 0, 64, 107
1, 127012, Note_on_c, 0, 59, 85
1, 127012, Note_on_c, 0, 67, 82
1, 127012, Note_on_c, 0, 76, 87
1, 127016, Note_on_c, 0, 50, 74
1, 127022, Note_on_c, 0, 55, 68
1, 127023, Note_on_c, 0, 71, 75
1, 127031, Control_c, 0, 64, 64
1, 127045, Note_off_c, 0, 67, 61
1, 127046, Control_c, 0, 64, 77
1, 127051, Note_off_c, 0, 71, 62
1, 127059, Note_on_c, 0, 74, 26
1, 127060, Note_off_c, 0, 74, 127
1, 127060, Control_c, 0, 64, 96
1, 127061, Note_off_c, 0, 62, 58
1, 127065, Note_off_c, 0, 76, 66
1, 127075, Control_c, 0, 64, 110
1, 127079, Note_off_c, 0, 50, 56
1, 127088, Note_off_c, 0, 59, 56
1, 127090, Control_c, 0, 64, 113
1, 127107, Note_off_c, 0, 64, 61
1, 127134, Control_c, 0, 64, 112
1, 127135, Note_off_c, 0, 55, 54
1, 127179, Control_c, 0, 64, 112
1, 127194, Control_c, 0, 64, 104
1, 127209, Control_c, 0, 64, 87
1, 127224, Control_c, 0, 64, 54
1, 127239, Control_c, 0, 64, 0
1, 127284, Note_on_c, 0, 74, 93
1, 127285, Note_on_c, 0, 62, 108
1, 127285, Note_on_c, 0, 65, 93
1, 127287, Note_on_c, 0, 70, 87
1, 127288, Note_on_c, 0, 58, 87
1, 127289, Note_on_c, 0, 61, 103
1, 127299, Note_on_c, 0, 49, 80
1, 127308, Note_on_c, 0, 53, 53
1, 127313, Control_c, 0, 64, 65
1, 127327, Note_off_c, 0, 74, 61
1, 127327, Control_c, 0, 64, 90
1, 127330, Note_off_c, 0, 61, 63
1, 127337, Note_off_c, 0, 53, 67
1, 127342, Control_c, 0, 64, 107
1, 127343, Note_off_c, 0, 58, 63
1, 127353, Note_off_c, 0, 62, 61
1, 127355, Note_off_c, 0, 65, 63
1, 127357, Control_c, 0, 64, 108
1, 127358, Note_off_c, 0, 70, 62
1, 127372, Control_c, 0, 64, 107
1, 127383, Note_off_c, 0, 49, 61
1, 127490, Control_c, 0, 64, 105
1, 127505, Control_c, 0, 64, 99
1, 127520, Control_c, 0, 64, 84
1, 127534, Control_c, 0, 64, 62
1, 127549, Control_c, 0, 64, 0
1, 127575, Note_on_c, 0, 64, 90
1, 127577, Note_on_c, 0, 56, 100
1, 127577, Note_on_c, 0, 59, 102
1, 127577, Note_on_c, 0, 61, 104
1, 127577, Note_on_c, 0, 73, 94
1, 127578, Note_on_c, 0, 68, 88
1, 127584, Note_on_c, 0, 47, 83
1, 127587, Note_on_c, 0, 52, 85
1, 127589, Note_on_c, 0, 50, 81
1, 127635, Note_on_c, 0, 71, 29
1, 127688, Note_off_c, 0, 71, 40
1, 127839, Control_c, 0, 64, 42
1, 127854, Control_c, 0, 64, 64
1, 127864, Note_off_c, 0, 61, 56
1, 127869, Control_c, 0, 64, 69
1, 127883, Control_c, 0, 64, 76
1, 127898, Control_c, 0, 64, 85
1, 127901, Note_off_c, 0, 64, 52
1, 127913, Control_c, 0, 64, 93
1, 127922, Note_off_c, 0, 73, 54
1, 127924, Note_off_c, 0, 47, 60
1, 127928, Control_c, 0, 64, 96
1, 127943, Control_c, 0, 64, 99
1, 127957, Note_off_c, 0, 50, 57
1, 127957, Note_off_c, 0, 52, 60
1, 127957, Control_c, 0, 64, 102
1, 127963, Note_off_c, 0, 59, 51
1, 127972, Control_c, 0, 64, 103
1, 127987, Control_c, 0, 64, 105
1, 128002, Note_off_c, 0, 68, 57
1, 128002, Control_c, 0, 64, 106
1, 128013, Note_off_c, 0, 56, 52
1, 128017, Control_c, 0, 64, 107
1, 128032, Control_c, 0, 64, 109
1, 128046, Control_c, 0, 64, 110
1, 128061, Control_c, 0, 64, 112
1, 128076, Control_c, 0, 64, 114
1, 128091, Control_c, 0, 64, 115
1, 128106, Control_c, 0, 64, 115
1, 128136, Control_c, 0, 64, 116
1, 128150, Control_c, 0, 64, 117
1, 128165, Control_c, 0, 64, 119
1, 128180, Control_c, 0, 64, 120
1, 128195, Control_c, 0, 64, 123
1, 128209, Control_c, 0, 64, 125
1, 128224, Control_c, 0, 64, 127
1, 128416, Note_on_c, 0, 100, 64
1, 128440, Note_on_c, 0, 92, 58
1, 128443, Note_on_c, 0, 97, 57
1, 128456, Note_on_c, 0, 88, 44
1, 128456, Note_off_c, 0, 100, 43
1, 128459, Note_off_c, 0, 92, 61
1, 128464, Note_off_c, 0, 97, 59
1, 128483, Note_off_c, 0, 88, 49
1, 128581, Note_on_c, 0, 71, 76
1, 128581, Note_on_c, 0, 97, 56
1, 128584, Note_on_c, 0, 88, 57
1, 128606, Note_off_c, 0, 97, 61
1, 128622, Note_off_c, 0, 88, 62
1, 128717, Note_on_c, 0, 80, 88
1, 128726, Note_on_c, 0, 86, 72
1, 128732, Note_on_c, 0, 94, 62
1, 128736, Note_off_c, 0, 71, 52
1, 128762, Note_off_c, 0, 94, 59
1, 128764, Note_off_c, 0, 86, 58
1, 128854, Note_on_c, 0, 74, 78
1, 128864, Note_off_c, 0, 80, 61
1, 128869, Note_on_c, 0, 86, 80
1, 128883, Note_on_c, 0, 94, 58
1, 128911, Note_off_c, 0, 94, 64
1, 128915, Note_off_c, 0, 86, 58
1, 128979, Note_off_c, 0, 74, 56
1, 128990, Note_on_c, 0, 85, 97
1, 129020, Note_on_c, 0, 88, 58
1, 129036, Note_on_c, 0, 80, 17
1, 129039, Note_off_c, 0, 88, 62
1, 129116, Note_off_c, 0, 85, 61
1, 129130, Note_on_c, 0, 74, 78
1, 129136, Note_on_c, 0, 88, 74
1, 129138, Note_on_c, 0, 100, 79
1, 129145, Note_on_c, 0, 92, 73
1, 129149, Note_on_c, 0, 97, 66
1, 129162, Note_off_c, 0, 88, 63
1, 129169, Note_off_c, 0, 100, 55
1, 129170, Note_off_c, 0, 80, 46
1, 129178, Note_off_c, 0, 97, 65
1, 129179, Note_off_c, 0, 92, 56
1, 129279, Note_on_c, 0, 85, 100
1, 129287, Note_on_c, 0, 88, 73
1, 129296, Note_on_c, 0, 97, 61
1, 129314, Note_off_c, 0, 97, 62
1, 129319, Note_off_c, 0, 88, 59
1, 129380, Note_off_c, 0, 74, 35
1, 129393, Note_off_c, 0, 85, 60
1, 129415, Note_on_c, 0, 80, 81
1, 129419, Note_on_c, 0, 86, 79
1, 129430, Note_on_c, 0, 94, 65
1, 129449, Note_off_c, 0, 86, 63
1, 129462, Note_off_c, 0, 94, 62
1, 129538, Note_off_c, 0, 80, 61
1, 129557, Note_on_c, 0, 71, 77
1, 129564, Note_on_c, 0, 86, 77
1, 129574, Note_on_c, 0, 94, 67
1, 129602, Note_off_c, 0, 94, 68
1, 129608, Note_off_c, 0, 86, 60
1, 129688, Note_on_c, 0, 80, 88
1, 129698, Note_on_c, 0, 83, 61
1, 129698, Note_on_c, 0, 88, 68
1, 129713, Note_off_c, 0, 71, 51
1, 129716, Note_off_c, 0, 83, 64
1, 129731, Note_off_c, 0, 88, 61
1, 129829, Note_on_c, 0, 74, 89
1, 129832, Note_on_c, 0, 100, 81
1, 129837, Note_on_c, 0, 88, 84
1, 129837, Note_on_c, 0, 92, 80
1, 129837, Note_off_c, 0, 80, 63
1, 129841, Note_on_c, 0, 97, 75
1, 129855, Note_off_c, 0, 100, 61
1, 129859, Note_off_c, 0, 88, 66
1, 129872, Note_off_c, 0, 97, 59
1, 129884, Note_off_c, 0, 92, 62
1, 129958, Note_off_c, 0, 74, 54
1, 129970, Note_on_c, 0, 85, 94
1, 129975, Note_on_c, 0, 97, 68
1, 129977, Note_on_c, 0, 88, 60
1, 130005, Note_off_c, 0, 97, 64
1, 130006, Note_off_c, 0, 88, 60
1, 130091, Note_off_c, 0, 85, 61
1, 130115, Note_on_c, 0, 86, 82
1, 130117, Note_on_c, 0, 74, 76
1, 130128, Note_on_c, 0, 94, 63
1, 130151, Note_off_c, 0, 86, 58
1, 130158, Note_off_c, 0, 94, 65
1, 130254, Note_on_c, 0, 85, 96
1, 130263, Note_on_c, 0, 86, 78
1, 130270, Note_on_c, 0, 94, 65
1, 130300, Note_off_c, 0, 94, 66
1, 130309, Note_off_c, 0, 86, 57
1, 130366, Note_off_c, 0, 85, 60
1, 130388, Note_on_c, 0, 80, 85
1, 130391, Note_on_c, 0, 88, 73
1, 130392, Note_off_c, 0, 74, 30
1, 130407, Note_on_c, 0, 83, 39
1, 130424, Note_off_c, 0, 88, 61
1, 130434, Note_off_c, 0, 83, 47
1, 130509, Note_off_c, 0, 80, 62
1, 130521, Note_on_c, 0, 100, 79
1, 130521, Note_on_c, 0, 71, 82
1, 130525, Note_on_c, 0, 88, 78
1, 130528, Note_on_c, 0, 97, 74
1, 130529, Note_on_c, 0, 92, 77
1, 130545, Note_off_c, 0, 100, 60
1, 130546, Note_off_c, 0, 88, 67
1, 130559, Note_off_c, 0, 97, 62
1, 130571, Note_off_c, 0, 92, 62
1, 130653, Note_on_c, 0, 80, 88
1, 130659, Note_on_c, 0, 97, 74
1, 130661, Note_on_c, 0, 88, 69
1, 130667, Note_off_c, 0, 71, 60
1, 130681, Note_off_c, 0, 88, 62
1, 130685, Note_off_c, 0, 97, 66
1, 130797, Note_on_c, 0, 86, 91
1, 130800, Note_on_c, 0, 74, 81
1, 130803, Note_on_c, 0, 94, 77
1, 130814, Note_off_c, 0, 80, 62
1, 130827, Note_off_c, 0, 86, 60
1, 130840, Note_off_c, 0, 94, 54
1, 130894, Note_off_c, 0, 74, 65
1, 130932, Note_on_c, 0, 86, 87
1, 130933, Note_on_c, 0, 85, 94
1, 130945, Note_on_c, 0, 94, 69
1, 130970, Note_off_c, 0, 94, 70
1, 130977, Note_on_c, 0, 80, 13
1, 130977, Note_off_c, 0, 86, 60
1, 130983, Note_off_c, 0, 85, 63
1, 131040, Note_off_c, 0, 80, 47
1, 131064, Note_on_c, 0, 74, 83
1, 131066, Note_on_c, 0, 88, 83
1, 131069, Note_on_c, 0, 83, 71
1, 131090, Note_off_c, 0, 83, 63
1, 131100, Note_off_c, 0, 74, 66
1, 131111, Note_off_c, 0, 88, 65
1, 131279, Control_c, 0, 64, 116
1, 131293, Control_c, 0, 64, 86
1, 131308, Control_c, 0, 64, 0
1, 131317, Note_on_c, 0, 58, 97
1, 131319, Note_on_c, 0, 56, 87
1, 131325, Note_on_c, 0, 47, 74
1, 131325, Note_on_c, 0, 100, 89
1, 131327, Note_on_c, 0, 92, 89
1, 131328, Note_on_c, 0, 52, 78
1, 131331, Note_on_c, 0, 88, 83
1, 131337, Note_on_c, 0, 97, 73
1, 131347, Note_off_c, 0, 58, 64
1, 131352, Note_off_c, 0, 88, 67
1, 131353, Control_c, 0, 64, 35
1, 131361, Note_off_c, 0, 47, 62
1, 131364, Note_off_c, 0, 56, 63
1, 131368, Control_c, 0, 64, 75
1, 131369, Note_off_c, 0, 52, 68
1, 131369, Note_off_c, 0, 100, 63
1, 131370, Note_off_c, 0, 92, 65
1, 131373, Note_off_c, 0, 97, 58
1, 131383, Control_c, 0, 64, 94
1, 131398, Control_c, 0, 64, 111
1, 131413, Control_c, 0, 64, 116
1, 131427, Control_c, 0, 64, 116
1, 131460, Note_on_c, 0, 88, 63
1, 131463, Note_on_c, 0, 97, 69
1, 131496, Note_off_c, 0, 97, 67
1, 131501, Note_off_c, 0, 88, 53
1, 131509, Control_c, 0, 64, 115
1, 131524, Control_c, 0, 64, 105
1, 131539, Control_c, 0, 64, 88
1, 131554, Control_c, 0, 64, 53
1, 131569, Control_c, 0, 64, 0
1, 131596, Note_on_c, 0, 56, 78
1, 131606, Note_on_c, 0, 46, 73
1, 131608, Note_on_c, 0, 86, 85
1, 131608, Note_on_c, 0, 94, 83
1, 131621, Note_on_c, 0, 50, 32
1, 131621, Note_off_c, 0, 56, 68
1, 131635, Note_off_c, 0, 86, 63
1, 131644, Note_off_c, 0, 94, 58
1, 131648, Note_off_c, 0, 46, 65
1, 131661, Note_off_c, 0, 50, 48
1, 131734, Note_on_c, 0, 53, 93
1, 131738, Note_on_c, 0, 52, 60
1, 131742, Note_on_c, 0, 44, 77
1, 131747, Note_on_c, 0, 86, 86
1, 131747, Note_on_c, 0, 94, 86
1, 131762, Control_c, 0, 64, 61
1, 131765, Note_off_c, 0, 44, 67
1, 131768, Note_on_c, 0, 47, 36
1, 131768, Note_off_c, 0, 52, 66
1, 131776, Note_off_c, 0, 94, 62
1, 131777, Control_c, 0, 64, 97
1, 131782, Note_off_c, 0, 53, 66
1, 131792, Control_c, 0, 64, 127
1, 131794, Note_off_c, 0, 86, 61
1, 131805, Note_off_c, 0, 47, 54
1, 131832, Poly_aftertouch_c, 0, 54, 0
1, 131864, Note_on_c, 0, 88, 77
1, 131895, Note_on_c, 0, 83, 25
1, 131910, Note_off_c, 0, 88, 62
1, 131937, Note_off_c, 0, 83, 30
1, 131940, Control_c, 0, 64, 91
1, 131954, Control_c, 0, 64, 59
1, 131969, Control_c, 0, 64, 0
1, 131997, Note_on_c, 0, 65, 99
1, 131999, Note_on_c, 0, 64, 85
1, 132009, Note_on_c, 0, 59, 73
1, 132011, Note_on_c, 0, 56, 79
1, 132016, Note_on_c, 0, 100, 73
1, 132020, Note_on_c, 0, 97, 75
1, 132020, Note_on_c, 0, 86, 72
1, 132021, Note_on_c, 0, 92, 65
1, 132022, Note_off_c, 0, 92, 127
1, 132029, Note_on_c, 0, 88, 63
1, 132032, Note_off_c, 0, 100, 64
1, 132038, Note_off_c, 0, 86, 66
1, 132043, Control_c, 0, 64, 88
1, 132047, Note_off_c, 0, 88, 62
1, 132054, Note_off_c, 0, 97, 55
1, 132058, Control_c, 0, 64, 127
1, 132136, Note_off_c, 0, 59, 55
1, 132139, Note_off_c, 0, 65, 62
1, 132144, Note_on_c, 0, 88, 65
1, 132145, Note_off_c, 0, 64, 61
1, 132154, Note_on_c, 0, 97, 62
1, 132159, Note_off_c, 0, 56, 60
1, 132181, Note_off_c, 0, 97, 65
1, 132188, Note_off_c, 0, 88, 59
1, 132206, Control_c, 0, 64, 98
1, 132221, Control_c, 0, 64, 75
1, 132236, Control_c, 0, 64, 0
1, 132273, Note_on_c, 0, 62, 76
1, 132273, Note_on_c, 0, 64, 81
1, 132282, Note_on_c, 0, 58, 56
1, 132284, Note_on_c, 0, 86, 84
1, 132288, Note_on_c, 0, 94, 79
1, 132289, Note_on_c, 0, 53, 62
1, 132297, Note_off_c, 0, 64, 67
1, 132300, Note_off_c, 0, 62, 64
1, 132315, Note_off_c, 0, 58, 66
1, 132319, Note_off_c, 0, 94, 58
1, 132322, Note_off_c, 0, 53, 57
1, 132322, Note_off_c, 0, 86, 65
1, 132405, Note_on_c, 0, 62, 101
1, 132412, Note_on_c, 0, 52, 85
1, 132424, Note_on_c, 0, 59, 54
1, 132425, Note_on_c, 0, 86, 93
1, 132425, Note_on_c, 0, 94, 82
1, 132434, Note_on_c, 0, 60, 43
1, 132436, Control_c, 0, 64, 89
1, 132437, Note_off_c, 0, 52, 67
1, 132440, Note_on_c, 0, 57, 39
1, 132445, Note_off_c, 0, 59, 61
1, 132449, Note_off_c, 0, 62, 57
1, 132450, Control_c, 0, 64, 127
1, 132457, Note_off_c, 0, 60, 54
1, 132470, Note_off_c, 0, 86, 62
1, 132471, Note_off_c, 0, 94, 58
1, 132473, Note_off_c, 0, 57, 55
1, 132547, Note_on_c, 0, 88, 72
1, 132575, Note_off_c, 0, 88, 63
1, 132673, Control_c, 0, 64, 107
1, 132679, Note_on_c, 0, 77, 103
1, 132683, Note_on_c, 0, 71, 87
1, 132688, Note_on_c, 0, 68, 81
1, 132688, Control_c, 0, 64, 90
1, 132689, Note_on_c, 0, 64, 77
1, 132694, Note_on_c, 0, 92, 88
1, 132694, Note_on_c, 0, 88, 87
1, 132696, Note_on_c, 0, 100, 82
1, 132697, Note_on_c, 0, 97, 83
1, 132703, Control_c, 0, 64, 76
1, 132706, Note_off_c, 0, 77, 68
1, 132713, Note_off_c, 0, 88, 68
1, 132715, Note_off_c, 0, 100, 69
1, 132718, Control_c, 0, 64, 57
1, 132719, Note_off_c, 0, 71, 63
1, 132721, Note_off_c, 0, 97, 62
1, 132723, Note_off_c, 0, 92, 57
1, 132733, Control_c, 0, 64, 0
1, 132738, Note_off_c, 0, 64, 62
1, 132738, Note_off_c, 0, 68, 61
1, 132813, Note_on_c, 0, 88, 71
1, 132823, Note_on_c, 0, 97, 66
1, 132839, Note_off_c, 0, 97, 64
1, 132843, Note_off_c, 0, 88, 60
1, 132953, Note_on_c, 0, 70, 107
1, 132956, Note_on_c, 0, 68, 95
1, 132960, Note_on_c, 0, 59, 79
1, 132964, Note_on_c, 0, 86, 90
1, 132968, Note_on_c, 0, 62, 73
1, 132968, Note_on_c, 0, 94, 84
1, 132971, Note_on_c, 0, 64, 73
1, 132989, Note_off_c, 0, 86, 61
1, 133005, Note_off_c, 0, 94, 58
1, 133114, Note_on_c, 0, 86, 79
1, 133120, Note_on_c, 0, 94, 65
1, 133150, Note_off_c, 0, 86, 60
1, 133150, Note_off_c, 0, 94, 64
1, 133230, Note_on_c, 0, 88, 72
1, 133237, Note_on_c, 0, 83, 54
1, 133257, Note_off_c, 0, 83, 59
1, 133272, Note_off_c, 0, 88, 63
1, 133349, Control_c, 0, 64, 59
1, 133364, Control_c, 0, 64, 71
1, 133372, Note_on_c, 0, 100, 79
1, 133376, Note_on_c, 0, 92, 80
1, 133377, Note_on_c, 0, 88, 79
1, 133378, Control_c, 0, 64, 79
1, 133379, Note_on_c, 0, 97, 72
1, 133393, Control_c, 0, 64, 85
1, 133394, Note_off_c, 0, 100, 64
1, 133394, Note_off_c, 0, 88, 66
1, 133408, Control_c, 0, 64, 87
1, 133409, Note_off_c, 0, 97, 63
1, 133419, Note_off_c, 0, 92, 59
1, 133422, Control_c, 0, 64, 89
1, 133437, Control_c, 0, 64, 90
1, 133452, Control_c, 0, 64, 91
1, 133467, Control_c, 0, 64, 92
1, 133482, Control_c, 0, 64, 92
1, 133496, Control_c, 0, 64, 93
1, 133506, Note_on_c, 0, 88, 62
1, 133515, Note_on_c, 0, 97, 62
1, 133526, Control_c, 0, 64, 93
1, 133532, Note_off_c, 0, 97, 63
1, 133535, Note_off_c, 0, 88, 63
1, 133541, Control_c, 0, 64, 94
1, 133545, Note_off_c, 0, 70, 49
1, 133575, Note_off_c, 0, 64, 48
1, 133585, Control_c, 0, 64, 94
1, 133591, Note_off_c, 0, 68, 54
1, 133597, Note_off_c, 0, 62, 37
1, 133648, Note_off_c, 0, 59, 53
1, 133651, Note_on_c, 0, 86, 76
1, 133654, Note_on_c, 0, 94, 65
1, 133677, Note_off_c, 0, 86, 64
1, 133683, Note_off_c, 0, 94, 65
1, 133806, Note_on_c, 0, 86, 71
1, 133818, Note_on_c, 0, 94, 49
1, 133837, Note_off_c, 0, 86, 59
1, 133838, Note_off_c, 0, 94, 60
1, 133874, Control_c, 0, 64, 95
1, 133904, Control_c, 0, 64, 95
1, 133919, Control_c, 0, 64, 96
1, 133933, Note_on_c, 0, 88, 64
1, 133934, Control_c, 0, 64, 96
1, 133949, Control_c, 0, 64, 97
1, 133964, Note_off_c, 0, 88, 64
1, 133964, Control_c, 0, 64, 98
1, 133978, Control_c, 0, 64, 100
1, 133993, Control_c, 0, 64, 103
1, 134008, Control_c, 0, 64, 105
1, 134022, Control_c, 0, 64, 106
1, 134052, Control_c, 0, 64, 105
1, 134068, Control_c, 0, 64, 101
1, 134083, Control_c, 0, 64, 89
1, 134083, Note_on_c, 0, 65, 99
1, 134088, Note_on_c, 0, 64, 80
1, 134089, Note_on_c, 0, 100, 81
1, 134095, Note_on_c, 0, 88, 74
1, 134098, Control_c, 0, 64, 73
1, 134104, Note_on_c, 0, 59, 55
1, 134104, Note_on_c, 0, 97, 54
1, 134106, Note_on_c, 0, 56, 69
1, 134113, Control_c, 0, 64, 23
1, 134115, Note_off_c, 0, 88, 57
1, 134119, Note_on_c, 0, 93, 47
1, 134125, Note_off_c, 0, 100, 52
1, 134126, Note_off_c, 0, 97, 38
1, 134127, Control_c, 0, 64, 0
1, 134142, Control_c, 0, 64, 64
1, 134145, Note_off_c, 0, 93, 47
1, 134157, Control_c, 0, 64, 73
1, 134172, Control_c, 0, 64, 83
1, 134183, Note_off_c, 0, 64, 63
1, 134185, Note_off_c, 0, 65, 61
1, 134187, Control_c, 0, 64, 93
1, 134195, Note_off_c, 0, 59, 60
1, 134201, Control_c, 0, 64, 96
1, 134216, Control_c, 0, 64, 96
1, 134227, Note_off_c, 0, 56, 62
1, 134231, Control_c, 0, 64, 97
1, 134251, Note_on_c, 0, 88, 60
1, 134255, Note_on_c, 0, 97, 44
1, 134275, Control_c, 0, 64, 97
1, 134277, Note_off_c, 0, 88, 53
1, 134277, Note_off_c, 0, 97, 50
1, 134290, Control_c, 0, 64, 98
1, 134305, Control_c, 0, 64, 100
1, 134319, Control_c, 0, 64, 104
1, 134334, Control_c, 0, 64, 105
1, 134379, Control_c, 0, 64, 102
1, 134393, Control_c, 0, 64, 92
1, 134395, Note_on_c, 0, 62, 104
1, 134399, Note_on_c, 0, 86, 84
1, 134403, Note_on_c, 0, 59, 77
1, 134408, Control_c, 0, 64, 78
1, 134410, Note_on_c, 0, 94, 72
1, 134411, Note_on_c, 0, 56, 71
1, 134417, Note_on_c, 0, 52, 75
1, 134423, Control_c, 0, 64, 63
1, 134435, Note_off_c, 0, 86, 61
1, 134438, Control_c, 0, 64, 58
1, 134447, Note_off_c, 0, 94, 58
1, 134452, Control_c, 0, 64, 67
1, 134467, Control_c, 0, 64, 75
1, 134482, Control_c, 0, 64, 83
1, 134505, Control_c, 0, 64, 88
1, 134519, Control_c, 0, 64, 90
1, 134528, Note_off_c, 0, 62, 55
1, 134534, Control_c, 0, 64, 91
1, 134542, Note_off_c, 0, 59, 59
1, 134549, Control_c, 0, 64, 92
1, 134564, Control_c, 0, 64, 93
1, 134566, Note_on_c, 0, 86, 78
1, 134568, Note_off_c, 0, 56, 62
1, 134569, Note_off_c, 0, 52, 63
1, 134571, Note_on_c, 0, 94, 70
1, 134578, Control_c, 0, 64, 94
1, 134593, Control_c, 0, 64, 94
1, 134598, Note_off_c, 0, 94, 64
1, 134608, Control_c, 0, 64, 95
1, 134617, Note_off_c, 0, 86, 62
1, 134623, Control_c, 0, 64, 95
1, 134638, Control_c, 0, 64, 96
1, 134652, Control_c, 0, 64, 97
1, 134667, Control_c, 0, 64, 98
1, 134682, Control_c, 0, 64, 99
1, 134691, Note_on_c, 0, 88, 73
1, 134697, Control_c, 0, 64, 101
1, 134700, Note_on_c, 0, 83, 51
1, 134712, Control_c, 0, 64, 106
1, 134721, Note_off_c, 0, 83, 57
1, 134727, Control_c, 0, 64, 114
1, 134736, Note_off_c, 0, 88, 63
1, 134742, Control_c, 0, 64, 126
1, 134756, Control_c, 0, 64, 127
1, 134801, Control_c, 0, 64, 107
1, 134816, Control_c, 0, 64, 90
1, 134827, Note_on_c, 0, 58, 105
1, 134829, Note_on_c, 0, 56, 85
1, 134831, Control_c, 0, 64, 73
1, 134835, Note_on_c, 0, 47, 74
1, 134841, Note_on_c, 0, 100, 90
1, 134842, Note_on_c, 0, 52, 71
1, 134843, Note_on_c, 0, 88, 94
1, 134844, Note_on_c, 0, 92, 88
1, 134845, Control_c, 0, 64, 50
1, 134846, Note_on_c, 0, 97, 82
1, 134854, Note_on_c, 0, 50, 52
1, 134861, Control_c, 0, 64, 52
1, 134868, Note_off_c, 0, 88, 59
1, 134875, Note_off_c, 0, 100, 57
1, 134876, Control_c, 0, 64, 68
1, 134886, Note_off_c, 0, 47, 60
1, 134889, Note_off_c, 0, 50, 64
1, 134891, Control_c, 0, 64, 81
1, 134893, Note_off_c, 0, 92, 63
1, 134894, Note_off_c, 0, 97, 62
1, 134901, Note_off_c, 0, 52, 65
1, 134906, Control_c, 0, 64, 92
1, 134920, Control_c, 0, 64, 97
1, 134927, Note_off_c, 0, 56, 60
1, 134932, Note_off_c, 0, 58, 61
1, 134935, Control_c, 0, 64, 97
1, 134965, Control_c, 0, 64, 98
1, 134991, Note_on_c, 0, 88, 74
1, 134991, Note_on_c, 0, 97, 75
1, 135018, Note_off_c, 0, 97, 65
1, 135019, Note_off_c, 0, 88, 61
1, 135054, Control_c, 0, 64, 98
1, 135068, Control_c, 0, 64, 100
1, 135083, Control_c, 0, 64, 100
1, 135113, Control_c, 0, 64, 99
1, 135128, Control_c, 0, 64, 89
1, 135129, Note_on_c, 0, 61, 108
1, 135137, Note_on_c, 0, 56, 83
1, 135138, Note_on_c, 0, 52, 78
1, 135138, Note_on_c, 0, 50, 81
1, 135142, Control_c, 0, 64, 71
1, 135145, Note_on_c, 0, 86, 98
1, 135151, Note_on_c, 0, 94, 89
1, 135157, Control_c, 0, 64, 0
1, 135180, Note_off_c, 0, 86, 64
1, 135197, Note_off_c, 0, 94, 58
1, 135201, Control_c, 0, 64, 50
1, 135216, Control_c, 0, 64, 70
1, 135231, Control_c, 0, 64, 80
1, 135254, Control_c, 0, 64, 88
1, 135268, Control_c, 0, 64, 91
1, 135283, Control_c, 0, 64, 91
1, 135298, Control_c, 0, 64, 92
1, 135304, Note_on_c, 0, 86, 86
1, 135309, Note_on_c, 0, 94, 79
1, 135313, Control_c, 0, 64, 93
1, 135325, Note_off_c, 0, 94, 67
1, 135328, Control_c, 0, 64, 93
1, 135342, Control_c, 0, 64, 94
1, 135345, Note_off_c, 0, 86, 64
1, 135357, Control_c, 0, 64, 94
1, 135401, Control_c, 0, 64, 95
1, 135442, Note_on_c, 0, 88, 96
1, 135445, Note_on_c, 0, 83, 90
1, 135465, Note_off_c, 0, 52, 63
1, 135466, Note_off_c, 0, 50, 61
1, 135480, Note_off_c, 0, 88, 62
1, 135493, Note_off_c, 0, 83, 56
1, 135504, Note_off_c, 0, 56, 57
1, 135505, Control_c, 0, 64, 95
1, 135560, Note_off_c, 0, 61, 58
1, 135564, Control_c, 0, 64, 96
1, 135579, Control_c, 0, 64, 96
1, 135594, Control_c, 0, 64, 97
1, 135609, Control_c, 0, 64, 97
1, 135624, Control_c, 0, 64, 98
1, 135639, Control_c, 0, 64, 99
1, 135654, Control_c, 0, 64, 101
1, 135669, Control_c, 0, 64, 104
1, 135684, Control_c, 0, 64, 109
1, 135698, Control_c, 0, 64, 116
1, 135713, Control_c, 0, 64, 127
1, 135788, Control_c, 0, 64, 117
1, 135797, Note_on_c, 0, 69, 82
1, 135801, Note_on_c, 0, 64, 100
1, 135802, Note_on_c, 0, 66, 111
1, 135803, Control_c, 0, 64, 96
1, 135805, Note_on_c, 0, 78, 97
1, 135806, Note_on_c, 0, 52, 83
1, 135806, Note_on_c, 0, 60, 81
1, 135807, Note_on_c, 0, 72, 84
1, 135813, Note_on_c, 0, 55, 70
1, 135817, Control_c, 0, 64, 76
1, 135832, Control_c, 0, 64, 0
1, 135862, Control_c, 0, 64, 52
1, 135869, Note_off_c, 0, 78, 67
1, 135877, Control_c, 0, 64, 71
1, 135888, Note_off_c, 0, 69, 65
1, 135891, Control_c, 0, 64, 83
1, 135892, Note_off_c, 0, 72, 61
1, 135904, Note_off_c, 0, 52, 63
1, 135906, Control_c, 0, 64, 95
1, 135909, Note_off_c, 0, 60, 60
1, 135911, Note_off_c, 0, 64, 55
1, 135916, Note_off_c, 0, 55, 63
1, 135921, Control_c, 0, 64, 99
1, 135936, Control_c, 0, 64, 100
1, 135951, Control_c, 0, 64, 100
1, 135965, Control_c, 0, 64, 101
1, 135974, Note_off_c, 0, 66, 60
1, 135980, Control_c, 0, 64, 102
1, 136002, Control_c, 0, 64, 105
1, 136017, Control_c, 0, 64, 113
1, 136032, Control_c, 0, 64, 127
1, 136092, Control_c, 0, 64, 103
1, 136098, Note_on_c, 0, 64, 106
1, 136098, Note_on_c, 0, 67, 93
1, 136100, Note_on_c, 0, 63, 103
1, 136103, Note_on_c, 0, 70, 84
1, 136103, Note_on_c, 0, 76, 97
1, 136104, Note_on_c, 0, 58, 85
1, 136105, Note_on_c, 0, 54, 75
1, 136107, Control_c, 0, 64, 83
1, 136110, Note_on_c, 0, 51, 81
1, 136122, Control_c, 0, 64, 60
1, 136126, Note_on_c, 0, 73, 58
1, 136137, Control_c, 0, 64, 0
1, 136163, Note_off_c, 0, 76, 66
1, 136166, Note_off_c, 0, 73, 59
1, 136166, Control_c, 0, 64, 65
1, 136181, Control_c, 0, 64, 76
1, 136187, Note_off_c, 0, 63, 59
1, 136196, Control_c, 0, 64, 86
1, 136197, Note_off_c, 0, 67, 55
1, 136199, Note_off_c, 0, 51, 59
1, 136204, Note_off_c, 0, 54, 59
1, 136211, Control_c, 0, 64, 91
1, 136225, Control_c, 0, 64, 92
1, 136226, Note_off_c, 0, 58, 61
1, 136231, Note_off_c, 0, 70, 60
1, 136240, Control_c, 0, 64, 93
1, 136249, Note_off_c, 0, 64, 60
1, 136255, Control_c, 0, 64, 96
1, 136270, Control_c, 0, 64, 98
1, 136285, Control_c, 0, 64, 101
1, 136299, Control_c, 0, 64, 101
1, 136314, Control_c, 0, 64, 102
1, 136329, Control_c, 0, 64, 101
1, 136343, Control_c, 0, 64, 97
1, 136357, Note_on_c, 0, 63, 108
1, 136357, Note_on_c, 0, 66, 100
1, 136357, Note_on_c, 0, 61, 106
1, 136357, Note_on_c, 0, 75, 102
1, 136358, Control_c, 0, 64, 79
1, 136361, Note_on_c, 0, 57, 90
1, 136361, Note_on_c, 0, 69, 92
1, 136364, Note_on_c, 0, 49, 91
1, 136368, Note_on_c, 0, 52, 82
1, 136373, Control_c, 0, 64, 0
1, 136397, Note_on_c, 0, 50, 74
1, 136402, Note_off_c, 0, 49, 65
1, 136463, Note_off_c, 0, 50, 66
1, 136546, Note_on_c, 0, 49, 56
1, 136596, Control_c, 0, 64, 53
1, 136611, Control_c, 0, 64, 67
1, 136626, Control_c, 0, 64, 74
1, 136637, Note_off_c, 0, 63, 60
1, 136640, Control_c, 0, 64, 81
1, 136643, Note_off_c, 0, 75, 52
1, 136655, Control_c, 0, 64, 86
1, 136670, Control_c, 0, 64, 89
1, 136685, Control_c, 0, 64, 93
1, 136697, Note_off_c, 0, 52, 54
1, 136700, Control_c, 0, 64, 97
1, 136706, Note_off_c, 0, 49, 60
1, 136714, Control_c, 0, 64, 101
1, 136716, Note_off_c, 0, 66, 57
1, 136718, Note_off_c, 0, 57, 58
1, 136718, Note_off_c, 0, 69, 48
1, 136736, Control_c, 0, 64, 103
1, 136751, Control_c, 0, 64, 104
1, 136759, Note_off_c, 0, 61, 56
1, 136766, Control_c, 0, 64, 106
1, 136781, Control_c, 0, 64, 108
1, 136795, Control_c, 0, 64, 111
1, 136810, Control_c, 0, 64, 117
1, 136825, Control_c, 0, 64, 122
1, 136840, Control_c, 0, 64, 127
1, 137141, Note_on_c, 0, 99, 70
1, 137178, Note_on_c, 0, 88, 60
1, 137181, Note_on_c, 0, 96, 54
1, 137188, Note_on_c, 0, 93, 51
1, 137196, Note_off_c, 0, 99, 65
1, 137202, Note_off_c, 0, 88, 61
1, 137214, Note_off_c, 0, 96, 64
1, 137219, Note_off_c, 0, 93, 62
1, 137296, Note_on_c, 0, 88, 60
1, 137297, Note_on_c, 0, 69, 68
1, 137301, Note_on_c, 0, 96, 61
1, 137313, Note_on_c, 0, 93, 51
1, 137320, Note_off_c, 0, 96, 63
1, 137335, Note_off_c, 0, 93, 50
1, 137338, Note_off_c, 0, 88, 53
1, 137392, Note_off_c, 0, 69, 54
1, 137430, Note_on_c, 0, 76, 73
1, 137433, Note_on_c, 0, 93, 64
1, 137451, Note_on_c, 0, 85, 61
1, 137467, Note_off_c, 0, 93, 56
1, 137477, Note_off_c, 0, 85, 67
1, 137583, Note_on_c, 0, 85, 71
1, 137584, Note_on_c, 0, 73, 82
1, 137588, Note_on_c, 0, 93, 65
1, 137594, Note_off_c, 0, 76, 62
1, 137621, Note_off_c, 0, 93, 61
1, 137643, Note_off_c, 0, 85, 63
1, 137707, Note_off_c, 0, 73, 59
1, 137711, Note_on_c, 0, 88, 82
1, 137720, Note_on_c, 0, 82, 96
1, 137753, Note_off_c, 0, 88, 61
1, 137830, Note_off_c, 0, 82, 60
1, 137852, Note_on_c, 0, 73, 80
1, 137857, Note_on_c, 0, 88, 75
1, 137858, Note_on_c, 0, 99, 77
1, 137866, Note_on_c, 0, 96, 59
1, 137868, Note_on_c, 0, 93, 59
1, 137880, Note_off_c, 0, 88, 63
1, 137903, Note_off_c, 0, 93, 63
1, 137910, Note_off_c, 0, 96, 55
1, 137935, Note_off_c, 0, 99, 64
1, 137992, Note_on_c, 0, 82, 98
1, 137996, Note_on_c, 0, 88, 71
1, 138004, Note_on_c, 0, 93, 59
1, 138018, Note_on_c, 0, 96, 54
1, 138035, Note_off_c, 0, 93, 63
1, 138039, Note_off_c, 0, 96, 56
1, 138047, Note_off_c, 0, 88, 59
1, 138056, Note_off_c, 0, 73, 53
1, 138098, Note_off_c, 0, 82, 61
1, 138134, Note_on_c, 0, 76, 68
1, 138140, Note_on_c, 0, 93, 72
1, 138146, Note_on_c, 0, 85, 74
1, 138179, Note_off_c, 0, 85, 60
1, 138183, Note_off_c, 0, 93, 55
1, 138288, Note_on_c, 0, 85, 80
1, 138289, Note_on_c, 0, 69, 78
1, 138303, Note_on_c, 0, 93, 58
1, 138313, Note_off_c, 0, 76, 38
1, 138325, Note_off_c, 0, 93, 55
1, 138351, Note_off_c, 0, 85, 64
1, 138384, Note_off_c, 0, 69, 61
1, 138411, Note_on_c, 0, 88, 81
1, 138422, Note_on_c, 0, 76, 77
1, 138426, Note_on_c, 0, 81, 51
1, 138447, Note_off_c, 0, 81, 58
1, 138460, Note_off_c, 0, 88, 62
1, 138551, Note_on_c, 0, 73, 84
1, 138557, Note_on_c, 0, 99, 83
1, 138563, Note_on_c, 0, 88, 66
1, 138563, Note_on_c, 0, 96, 61
1, 138565, Note_on_c, 0, 93, 63
1, 138566, Note_off_c, 0, 76, 63
1, 138580, Note_off_c, 0, 88, 66
1, 138584, Note_off_c, 0, 96, 59
1, 138595, Note_off_c, 0, 93, 64
1, 138626, Note_off_c, 0, 99, 59
1, 138670, Note_off_c, 0, 73, 61
1, 138681, Note_on_c, 0, 82, 100
1, 138685, Note_on_c, 0, 88, 75
1, 138698, Note_on_c, 0, 93, 58
1, 138701, Note_on_c, 0, 96, 50
1, 138724, Note_off_c, 0, 96, 63
1, 138730, Note_off_c, 0, 93, 65
1, 138735, Note_off_c, 0, 88, 60
1, 138786, Note_off_c, 0, 82, 62
1, 138822, Note_on_c, 0, 73, 77
1, 138827, Note_on_c, 0, 93, 71
1, 138837, Note_on_c, 0, 85, 68
1, 138867, Note_off_c, 0, 85, 65
1, 138882, Note_off_c, 0, 93, 59
1, 138963, Note_on_c, 0, 82, 93
1, 138967, Note_on_c, 0, 85, 81
1, 138977, Note_on_c, 0, 93, 70
1, 139013, Note_off_c, 0, 93, 63
1, 139037, Note_off_c, 0, 85, 63
1, 139061, Note_off_c, 0, 73, 51
1, 139069, Note_off_c, 0, 82, 54
1, 139105, Note_on_c, 0, 88, 87
1, 139112, Note_on_c, 0, 76, 74
1, 139147, Note_off_c, 0, 88, 65
1, 139237, Note_on_c, 0, 69, 84
1, 139243, Note_on_c, 0, 99, 82
1, 139243, Note_on_c, 0, 88, 79
1, 139247, Note_on_c, 0, 93, 75
1, 139248, Note_on_c, 0, 96, 67
1, 139267, Note_off_c, 0, 88, 66
1, 139268, Note_off_c, 0, 96, 60
1, 139273, Note_off_c, 0, 76, 28
1, 139279, Note_off_c, 0, 93, 59
1, 139293, Note_off_c, 0, 99, 49
1, 139329, Note_off_c, 0, 69, 56
1, 139367, Note_on_c, 0, 88, 80
1, 139374, Note_on_c, 0, 76, 86
1, 139380, Note_on_c, 0, 96, 54
1, 139386, Note_on_c, 0, 93, 63
1, 139400, Note_off_c, 0, 96, 63
1, 139403, Note_off_c, 0, 93, 63
1, 139412, Note_off_c, 0, 88, 61
1, 139460, Note_off_c, 0, 76, 60
1, 139505, Note_on_c, 0, 73, 80
1, 139511, Note_on_c, 0, 93, 65
1, 139515, Note_on_c, 0, 85, 74
1, 139541, Note_off_c, 0, 85, 63
1, 139543, Note_off_c, 0, 93, 50
1, 139574, Note_off_c, 0, 73, 56
1, 139638, Note_on_c, 0, 82, 88
1, 139642, Note_on_c, 0, 85, 82
1, 139646, Note_on_c, 0, 93, 75
1, 139678, Note_off_c, 0, 93, 56
1, 139702, Note_off_c, 0, 85, 63
1, 139703, Note_off_c, 0, 82, 60
1, 139775, Note_on_c, 0, 73, 75
1, 139780, Note_on_c, 0, 88, 82
1, 139786, Note_on_c, 0, 81, 60
1, 139805, Note_off_c, 0, 81, 61
1, 139822, Note_off_c, 0, 88, 65
1, 139827, Note_off_c, 0, 73, 62
1, 139970, Control_c, 0, 64, 91
1, 139984, Control_c, 0, 64, 61
1, 139999, Control_c, 0, 64, 0
1, 140022, Note_on_c, 0, 71, 101
1, 140024, Note_on_c, 0, 69, 93
1, 140029, Note_on_c, 0, 62, 81
1, 140030, Note_on_c, 0, 66, 74
1, 140034, Note_on_c, 0, 98, 83
1, 140034, Note_on_c, 0, 104, 87
1, 140036, Note_on_c, 0, 95, 85
1, 140036, Note_on_c, 0, 102, 84
1, 140044, Control_c, 0, 64, 23
1, 140058, Control_c, 0, 64, 79
1, 140065, Note_off_c, 0, 95, 65
1, 140073, Control_c, 0, 64, 113
1, 140080, Note_off_c, 0, 98, 65
1, 140088, Control_c, 0, 64, 127
1, 140094, Note_off_c, 0, 102, 61
1, 140118, Note_off_c, 0, 104, 60
1, 140169, Note_on_c, 0, 95, 66
1, 140182, Note_on_c, 0, 102, 36
1, 140186, Note_off_c, 0, 69, 61
1, 140200, Note_off_c, 0, 95, 56
1, 140205, Note_off_c, 0, 102, 57
1, 140209, Note_off_c, 0, 71, 55
1, 140213, Note_off_c, 0, 66, 62
1, 140220, Note_off_c, 0, 62, 59
1, 140221, Control_c, 0, 64, 112
1, 140236, Control_c, 0, 64, 92
1, 140251, Control_c, 0, 64, 65
1, 140265, Control_c, 0, 64, 0
1, 140303, Note_on_c, 0, 68, 81
1, 140304, Note_on_c, 0, 69, 77
1, 140307, Note_on_c, 0, 98, 80
1, 140324, Note_on_c, 0, 59, 42
1, 140327, Note_off_c, 0, 69, 73
1, 140341, Note_off_c, 0, 98, 60
1, 140344, Note_off_c, 0, 68, 63
1, 140353, Note_off_c, 0, 59, 54
1, 140435, Note_on_c, 0, 66, 90
1, 140444, Note_on_c, 0, 57, 63
1, 140446, Note_on_c, 0, 62, 63
1, 140446, Note_on_c, 0, 98, 84
1, 140447, Note_on_c, 0, 65, 70
1, 140448, Note_on_c, 0, 92, 87
1, 140472, Note_off_c, 0, 57, 60
1, 140474, Control_c, 0, 64, 90
1, 140486, Note_off_c, 0, 62, 64
1, 140487, Note_off_c, 0, 65, 64
1, 140496, Control_c, 0, 64, 127
1, 140503, Note_off_c, 0, 66, 62
1, 140515, Note_off_c, 0, 98, 62
1, 140516, Note_off_c, 0, 92, 65
1, 140580, Note_on_c, 0, 95, 76
1, 140586, Note_on_c, 0, 90, 63
1, 140604, Note_off_c, 0, 90, 64
1, 140621, Note_off_c, 0, 95, 64
1, 140659, Control_c, 0, 64, 114
1, 140674, Control_c, 0, 64, 86
1, 140688, Control_c, 0, 64, 0
1, 140713, Note_on_c, 0, 71, 99
1, 140714, Note_on_c, 0, 69, 92
1, 140718, Note_on_c, 0, 66, 77
1, 140721, Note_on_c, 0, 62, 79
1, 140721, Note_on_c, 0, 104, 86
1, 140722, Note_on_c, 0, 95, 91
1, 140723, Note_on_c, 0, 98, 81
1, 140730, Note_on_c, 0, 102, 71
1, 140741, Note_off_c, 0, 95, 61
1, 140748, Control_c, 0, 64, 72
1, 140758, Note_off_c, 0, 98, 57
1, 140763, Control_c, 0, 64, 92
1, 140763, Note_off_c, 0, 102, 63
1, 140778, Control_c, 0, 64, 115
1, 140793, Control_c, 0, 64, 119
1, 140801, Note_off_c, 0, 104, 61
1, 140849, Note_on_c, 0, 95, 76
1, 140849, Note_off_c, 0, 69, 59
1, 140862, Note_on_c, 0, 98, 64
1, 140866, Note_off_c, 0, 71, 56
1, 140868, Note_on_c, 0, 102, 47
1, 140875, Note_off_c, 0, 62, 59
1, 140876, Note_off_c, 0, 66, 63
1, 140889, Note_off_c, 0, 95, 65
1, 140889, Note_off_c, 0, 98, 69
1, 140894, Note_off_c, 0, 102, 58
1, 140896, Control_c, 0, 64, 119
1, 140911, Control_c, 0, 64, 118
1, 140926, Control_c, 0, 64, 107
1, 140941, Control_c, 0, 64, 89
1, 140955, Control_c, 0, 64, 66
1, 140970, Control_c, 0, 64, 0
1, 140972, Note_on_c, 0, 69, 77
1, 140972, Note_on_c, 0, 68, 78
1, 140978, Note_on_c, 0, 63, 65
1, 140981, Note_on_c, 0, 98, 81
1, 140987, Note_on_c, 0, 92, 84
1, 140996, Note_off_c, 0, 69, 71
1, 140996, Note_on_c, 0, 59, 37
1, 141016, Note_off_c, 0, 68, 63
1, 141022, Note_off_c, 0, 59, 56
1, 141022, Note_off_c, 0, 63, 63
1, 141025, Note_off_c, 0, 98, 63
1, 141036, Note_off_c, 0, 92, 64
1, 141104, Note_on_c, 0, 66, 94
1, 141108, Note_on_c, 0, 57, 74
1, 141116, Note_on_c, 0, 65, 64
1, 141120, Note_on_c, 0, 62, 54
1, 141121, Note_on_c, 0, 98, 83
1, 141124, Note_on_c, 0, 92, 84
1, 141133, Control_c, 0, 64, 78
1, 141134, Note_off_c, 0, 57, 64
1, 141142, Note_off_c, 0, 62, 61
1, 141146, Note_off_c, 0, 65, 68
1, 141148, Control_c, 0, 64, 119
1, 141162, Control_c, 0, 64, 127
1, 141165, Note_off_c, 0, 66, 64
1, 141170, Note_off_c, 0, 92, 65
1, 141174, Note_off_c, 0, 98, 61
1, 141243, Note_on_c, 0, 95, 73
1, 141247, Note_on_c, 0, 90, 67
1, 141265, Note_off_c, 0, 90, 66
1, 141276, Note_off_c, 0, 95, 63
1, 141364, Control_c, 0, 64, 109
1, 141379, Control_c, 0, 64, 89
1, 141380, Note_on_c, 0, 72, 98
1, 141382, Note_on_c, 0, 69, 87
1, 141393, Note_on_c, 0, 61, 80
1, 141394, Note_on_c, 0, 64, 67
1, 141394, Control_c, 0, 64, 70
1, 141397, Note_on_c, 0, 105, 99
1, 141399, Note_on_c, 0, 96, 98
1, 141399, Note_on_c, 0, 99, 92
1, 141402, Note_on_c, 0, 102, 88
1, 141403, Note_off_c, 0, 72, 67
1, 141407, Note_off_c, 0, 69, 70
1, 141409, Control_c, 0, 64, 0
1, 141420, Note_off_c, 0, 96, 63
1, 141424, Note_off_c, 0, 64, 69
1, 141437, Note_off_c, 0, 105, 59
1, 141441, Note_off_c, 0, 99, 69
1, 141446, Note_off_c, 0, 61, 65
1, 141446, Note_off_c, 0, 102, 61
1, 141521, Note_on_c, 0, 96, 67
1, 141532, Note_on_c, 0, 99, 57
1, 141536, Note_on_c, 0, 102, 52
1, 141541, Note_off_c, 0, 96, 55
1, 141561, Note_off_c, 0, 102, 58
1, 141562, Note_off_c, 0, 99, 66
1, 141650, Note_on_c, 0, 64, 101
1, 141651, Note_on_c, 0, 61, 90
1, 141655, Note_on_c, 0, 54, 86
1, 141655, Note_on_c, 0, 57, 75
1, 141660, Note_on_c, 0, 99, 94
1, 141662, Note_on_c, 0, 93, 88
1, 141680, Note_on_c, 0, 63, 36
1, 141681, Note_off_c, 0, 63, 127
1, 141705, Note_off_c, 0, 93, 62
1, 141719, Note_off_c, 0, 99, 65
1, 141800, Note_on_c, 0, 99, 72
1, 141803, Note_on_c, 0, 93, 76
1, 141839, Note_off_c, 0, 93, 57
1, 141901, Note_off_c, 0, 99, 63
1, 141946, Note_on_c, 0, 97, 68
1, 141947, Note_on_c, 0, 90, 58
1, 141967, Note_off_c, 0, 90, 59
1, 141982, Note_off_c, 0, 97, 64
1, 142053, Control_c, 0, 64, 23
1, 142069, Control_c, 0, 64, 58
1, 142071, Note_on_c, 0, 105, 90
1, 142082, Note_on_c, 0, 96, 78
1, 142084, Control_c, 0, 64, 65
1, 142085, Note_on_c, 0, 99, 74
1, 142086, Note_on_c, 0, 102, 74
1, 142098, Note_off_c, 0, 96, 64
1, 142098, Control_c, 0, 64, 68
1, 142113, Control_c, 0, 64, 72
1, 142124, Note_off_c, 0, 99, 63
1, 142125, Note_off_c, 0, 105, 63
1, 142127, Note_off_c, 0, 102, 60
1, 142128, Control_c, 0, 64, 78
1, 142143, Control_c, 0, 64, 84
1, 142158, Control_c, 0, 64, 87
1, 142173, Control_c, 0, 64, 88
1, 142187, Control_c, 0, 64, 90
1, 142202, Control_c, 0, 64, 91
1, 142217, Control_c, 0, 64, 93
1, 142224, Note_on_c, 0, 102, 69
1, 142226, Note_on_c, 0, 96, 48
1, 142227, Note_on_c, 0, 99, 64
1, 142232, Control_c, 0, 64, 94
1, 142247, Control_c, 0, 64, 95
1, 142253, Note_off_c, 0, 96, 52
1, 142256, Note_off_c, 0, 102, 66
1, 142261, Control_c, 0, 64, 97
1, 142262, Note_off_c, 0, 99, 64
1, 142276, Control_c, 0, 64, 98
1, 142288, Note_off_c, 0, 57, 59
1, 142291, Control_c, 0, 64, 98
1, 142304, Note_off_c, 0, 54, 54
1, 142348, Note_off_c, 0, 64, 55
1, 142364, Note_off_c, 0, 61, 58
1, 142365, Note_on_c, 0, 93, 83
1, 142369, Note_on_c, 0, 99, 75
1, 142397, Note_off_c, 0, 93, 58
1, 142400, Note_off_c, 0, 99, 63
1, 142507, Note_on_c, 0, 99, 81
1, 142510, Note_on_c, 0, 93, 76
1, 142557, Note_off_c, 0, 93, 53
1, 142557, Control_c, 0, 64, 99
1, 142570, Note_off_c, 0, 99, 64
1, 142572, Control_c, 0, 64, 99
1, 142587, Control_c, 0, 64, 102
1, 142602, Control_c, 0, 64, 108
1, 142617, Control_c, 0, 64, 127
1, 142644, Note_on_c, 0, 90, 72
1, 142660, Note_on_c, 0, 97, 47
1, 142677, Note_off_c, 0, 90, 61
1, 142737, Note_off_c, 0, 97, 52
1, 142758, Control_c, 0, 64, 97
1, 142770, Note_on_c, 0, 66, 103
1, 142772, Note_on_c, 0, 64, 87
1, 142773, Control_c, 0, 64, 75
1, 142776, Note_on_c, 0, 55, 75
1, 142779, Note_on_c, 0, 99, 87
1, 142781, Note_on_c, 0, 60, 77
1, 142787, Control_c, 0, 64, 0
1, 142789, Note_on_c, 0, 88, 87
1, 142791, Note_on_c, 0, 93, 79
1, 142794, Note_on_c, 0, 96, 73
1, 142817, Control_c, 0, 64, 52
1, 142827, Note_off_c, 0, 88, 61
1, 142832, Control_c, 0, 64, 74
1, 142847, Control_c, 0, 64, 93
1, 142860, Note_off_c, 0, 96, 56
1, 142863, Note_off_c, 0, 99, 59
1, 142863, Control_c, 0, 64, 107
1, 142865, Note_off_c, 0, 93, 54
1, 142878, Control_c, 0, 64, 109
1, 142892, Control_c, 0, 64, 110
1, 142923, Note_on_c, 0, 88, 68
1, 142923, Note_on_c, 0, 93, 43
1, 142923, Note_off_c, 0, 64, 61
1, 142926, Note_on_c, 0, 96, 45
1, 142929, Note_off_c, 0, 60, 58
1, 142930, Note_off_c, 0, 66, 61
1, 142937, Note_off_c, 0, 55, 61
1, 142937, Control_c, 0, 64, 110
1, 142953, Note_off_c, 0, 96, 64
1, 142954, Note_off_c, 0, 93, 63
1, 142966, Note_off_c, 0, 88, 62
1, 143026, Control_c, 0, 64, 110
1, 143034, Note_on_c, 0, 64, 84
1, 143036, Note_on_c, 0, 63, 83
1, 143041, Note_on_c, 0, 54, 71
1, 143042, Note_on_c, 0, 58, 68
1, 143051, Note_on_c, 0, 93, 69
1, 143055, Control_c, 0, 64, 107
1, 143058, Note_off_c, 0, 64, 68
1, 143070, Control_c, 0, 64, 101
1, 143074, Note_off_c, 0, 63, 62
1, 143075, Note_on_c, 0, 92, 43
1, 143079, Note_off_c, 0, 58, 59
1, 143085, Control_c, 0, 64, 90
1, 143095, Note_off_c, 0, 54, 60
1, 143097, Note_on_c, 0, 95, 8
1, 143098, Note_off_c, 0, 95, 127
1, 143098, Note_off_c, 0, 93, 58
1, 143100, Control_c, 0, 64, 74
1, 143104, Note_off_c, 0, 92, 54
1, 143115, Control_c, 0, 64, 0
1, 143130, Poly_aftertouch_c, 0, 86, 0
1, 143169, Note_on_c, 0, 61, 89
1, 143177, Note_on_c, 0, 60, 71
1, 143178, Note_on_c, 0, 57, 66
1, 143182, Note_on_c, 0, 52, 59
1, 143195, Note_on_c, 0, 85, 85
1, 143199, Note_on_c, 0, 93, 83
1, 143203, Control_c, 0, 64, 68
1, 143206, Note_off_c, 0, 52, 58
1, 143210, Note_off_c, 0, 60, 58
1, 143210, Note_off_c, 0, 57, 62
1, 143218, Control_c, 0, 64, 81
1, 143225, Note_off_c, 0, 93, 60
1, 143233, Control_c, 0, 64, 93
1, 143240, Note_off_c, 0, 61, 60
1, 143246, Note_off_c, 0, 85, 64
1, 143248, Control_c, 0, 64, 99
1, 143263, Control_c, 0, 64, 102
1, 143277, Control_c, 0, 64, 107
1, 143292, Control_c, 0, 64, 123
1, 143307, Control_c, 0, 64, 127
1, 143308, Note_on_c, 0, 88, 80
1, 143333, Note_off_c, 0, 88, 63
1, 143425, Control_c, 0, 64, 121
1, 143440, Control_c, 0, 64, 93
1, 143446, Note_on_c, 0, 66, 103
1, 143446, Note_on_c, 0, 64, 87
1, 143451, Note_on_c, 0, 55, 78
1, 143453, Note_on_c, 0, 60, 76
1, 143455, Control_c, 0, 64, 71
1, 143458, Note_on_c, 0, 99, 69
1, 143467, Note_on_c, 0, 96, 51
1, 143470, Control_c, 0, 64, 0
1, 143482, Note_on_c, 0, 86, 70
1, 143491, Note_on_c, 0, 88, 60
1, 143496, Note_on_c, 0, 97, 43
1, 143497, Note_off_c, 0, 97, 127
1, 143499, Note_off_c, 0, 86, 68
1, 143504, Note_off_c, 0, 99, 65
1, 143506, Control_c, 0, 64, 67
1, 143509, Note_on_c, 0, 95, 22
1, 143509, Note_off_c, 0, 88, 58
1, 143510, Note_on_c, 0, 98, 22
1, 143511, Note_off_c, 0, 98, 127
1, 143521, Control_c, 0, 64, 83
1, 143524, Note_off_c, 0, 96, 47
1, 143535, Control_c, 0, 64, 102
1, 143550, Control_c, 0, 64, 112
1, 143551, Note_off_c, 0, 95, 29
1, 143576, Note_off_c, 0, 64, 61
1, 143580, Control_c, 0, 64, 112
1, 143595, Note_off_c, 0, 66, 62
1, 143597, Note_off_c, 0, 55, 62
1, 143598, Note_off_c, 0, 60, 60
1, 143609, Note_on_c, 0, 88, 57
1, 143609, Note_on_c, 0, 92, 71
1, 143614, Note_on_c, 0, 96, 70
1, 143625, Control_c, 0, 64, 112
1, 143637, Note_off_c, 0, 92, 65
1, 143637, Note_off_c, 0, 96, 69
1, 143649, Note_off_c, 0, 88, 62
1, 143707, Note_on_c, 0, 64, 84
1, 143713, Note_on_c, 0, 54, 71
1, 143715, Note_on_c, 0, 63, 68
1, 143719, Note_on_c, 0, 58, 60
1, 143730, Note_off_c, 0, 64, 66
1, 143741, Note_on_c, 0, 93, 87
1, 143744, Note_on_c, 0, 85, 82
1, 143744, Control_c, 0, 64, 111
1, 143749, Note_off_c, 0, 63, 62
1, 143757, Note_off_c, 0, 58, 60
1, 143759, Control_c, 0, 64, 101
1, 143768, Note_off_c, 0, 54, 60
1, 143774, Control_c, 0, 64, 81
1, 143784, Note_off_c, 0, 85, 61
1, 143787, Note_off_c, 0, 93, 62
1, 143789, Control_c, 0, 64, 0
1, 143844, Note_on_c, 0, 61, 87
1, 143848, Control_c, 0, 64, 32
1, 143853, Note_on_c, 0, 60, 70
1, 143858, Note_on_c, 0, 57, 54
1, 143860, Note_on_c, 0, 52, 62
1, 143863, Control_c, 0, 64, 66
1, 143875, Note_on_c, 0, 93, 87
1, 143878, Control_c, 0, 64, 73
1, 143882, Note_on_c, 0, 85, 79
1, 143893, Control_c, 0, 64, 82
1, 143907, Note_off_c, 0, 60, 44
1, 143907, Note_off_c, 0, 93, 53
1, 143907, Control_c, 0, 64, 90
1, 143922, Control_c, 0, 64, 98
1, 143929, Note_off_c, 0, 85, 62
1, 143937, Control_c, 0, 64, 103
1, 143951, Control_c, 0, 64, 106
1, 143966, Control_c, 0, 64, 108
1, 143970, Note_off_c, 0, 52, 61
1, 143981, Control_c, 0, 64, 110
1, 143982, Note_off_c, 0, 61, 53
1, 143996, Control_c, 0, 64, 112
1, 144000, Note_on_c, 0, 88, 74
1, 144000, Note_on_c, 0, 81, 56
1, 144011, Control_c, 0, 64, 115
1, 144020, Note_off_c, 0, 81, 60
1, 144025, Control_c, 0, 64, 118
1, 144026, Note_off_c, 0, 88, 65
1, 144036, Note_off_c, 0, 57, 40
1, 144040, Control_c, 0, 64, 121
1, 144055, Control_c, 0, 64, 127
1, 144176, Note_on_c, 0, 61, 65
1, 144179, Note_on_c, 0, 57, 45
1, 144188, Note_on_c, 0, 51, 55
1, 144188, Control_c, 0, 64, 117
1, 144191, Note_on_c, 0, 54, 51
1, 144197, Note_on_c, 0, 59, 45
1, 144203, Control_c, 0, 64, 94
1, 144216, Note_on_c, 0, 97, 77
1, 144218, Control_c, 0, 64, 73
1, 144240, Control_c, 0, 64, 0
1, 144248, Note_on_c, 0, 93, 69
1, 144251, Note_on_c, 0, 90, 69
1, 144263, Note_on_c, 0, 85, 51
1, 144284, Note_off_c, 0, 85, 63
1, 144314, Control_c, 0, 64, 65
1, 144318, Note_off_c, 0, 93, 60
1, 144320, Note_off_c, 0, 90, 62
1, 144329, Control_c, 0, 64, 75
1, 144331, Note_off_c, 0, 97, 38
1, 144344, Control_c, 0, 64, 86
1, 144358, Control_c, 0, 64, 96
1, 144373, Control_c, 0, 64, 101
1, 144384, Note_on_c, 0, 85, 66
1, 144388, Control_c, 0, 64, 103
1, 144394, Note_on_c, 0, 90, 58
1, 144403, Control_c, 0, 64, 105
1, 144409, Note_on_c, 0, 93, 39
1, 144418, Control_c, 0, 64, 107
1, 144429, Note_off_c, 0, 90, 64
1, 144432, Control_c, 0, 64, 107
1, 144437, Note_off_c, 0, 85, 64
1, 144440, Note_off_c, 0, 93, 33
1, 144447, Control_c, 0, 64, 108
1, 144530, Note_on_c, 0, 81, 73
1, 144531, Note_on_c, 0, 90, 69
1, 144577, Note_off_c, 0, 90, 52
1, 144583, Note_off_c, 0, 81, 58
1, 144641, Control_c, 0, 64, 108
1, 144671, Control_c, 0, 64, 109
1, 144676, Note_on_c, 0, 81, 66
1, 144683, Note_on_c, 0, 90, 65
1, 144686, Control_c, 0, 64, 111
1, 144701, Control_c, 0, 64, 118
1, 144704, Note_off_c, 0, 81, 64
1, 144716, Control_c, 0, 64, 127
1, 144720, Note_off_c, 0, 90, 59
1, 144790, Note_on_c, 0, 85, 74
1, 144810, Note_off_c, 0, 85, 72
1, 144942, Note_on_c, 0, 94, 57
1, 144951, Note_on_c, 0, 97, 77
1, 144963, Note_off_c, 0, 94, 58
1, 144964, Note_on_c, 0, 90, 83
1, 144970, Note_on_c, 0, 93, 76
1, 144981, Note_on_c, 0, 85, 60
1, 144999, Note_off_c, 0, 85, 67
1, 145005, Note_off_c, 0, 97, 57
1, 145022, Note_off_c, 0, 90, 63
1, 145031, Note_off_c, 0, 93, 48
1, 145098, Note_on_c, 0, 90, 69
1, 145101, Note_on_c, 0, 85, 57
1, 145107, Note_on_c, 0, 93, 59
1, 145126, Note_off_c, 0, 93, 61
1, 145131, Note_off_c, 0, 90, 61
1, 145138, Note_off_c, 0, 85, 58
1, 145175, Note_off_c, 0, 57, 51
1, 145237, Note_off_c, 0, 59, 29
1, 145243, Note_on_c, 0, 90, 68
1, 145249, Note_on_c, 0, 81, 64
1, 145271, Note_off_c, 0, 61, 35
1, 145282, Note_off_c, 0, 81, 56
1, 145288, Note_off_c, 0, 90, 53
1, 145300, Note_off_c, 0, 51, 51
1, 145313, Note_off_c, 0, 54, 31
1, 145377, Note_on_c, 0, 81, 75
1, 145388, Note_on_c, 0, 90, 68
1, 145429, Note_off_c, 0, 81, 57
1, 145497, Note_off_c, 0, 90, 36
1, 145503, Note_on_c, 0, 85, 76
1, 145507, Note_on_c, 0, 78, 65
1, 145524, Note_off_c, 0, 78, 63
1, 145550, Note_off_c, 0, 85, 64
1, 145642, Control_c, 0, 64, 101
1, 145655, Note_on_c, 0, 61, 99
1, 145655, Note_on_c, 0, 100, 90
1, 145657, Note_on_c, 0, 59, 80
1, 145657, Control_c, 0, 64, 79
1, 145658, Note_on_c, 0, 56, 76
1, 145658, Note_on_c, 0, 92, 94
1, 145660, Note_on_c, 0, 88, 86
1, 145664, Note_on_c, 0, 97, 84
1, 145666, Note_on_c, 0, 50, 56
1, 145671, Control_c, 0, 64, 40
1, 145677, Note_on_c, 0, 52, 51
1, 145679, Note_off_c, 0, 88, 68
1, 145686, Control_c, 0, 64, 0
1, 145696, Note_off_c, 0, 100, 57
1, 145701, Control_c, 0, 64, 57
1, 145705, Note_off_c, 0, 92, 65
1, 145705, Note_off_c, 0, 97, 55
1, 145714, Note_off_c, 0, 52, 47
1, 145716, Control_c, 0, 64, 71
1, 145738, Control_c, 0, 64, 80
1, 145744, Note_off_c, 0, 56, 63
1, 145750, Note_off_c, 0, 59, 63
1, 145753, Control_c, 0, 64, 87
1, 145759, Note_off_c, 0, 50, 35
1, 145768, Control_c, 0, 64, 88
1, 145772, Note_off_c, 0, 61, 62
1, 145783, Control_c, 0, 64, 88
1, 145798, Control_c, 0, 64, 90
1, 145804, Note_on_c, 0, 88, 66
1, 145811, Note_on_c, 0, 97, 65
1, 145812, Control_c, 0, 64, 94
1, 145822, Note_off_c, 0, 88, 65
1, 145827, Control_c, 0, 64, 99
1, 145828, Note_off_c, 0, 97, 64
1, 145842, Control_c, 0, 64, 104
1, 145857, Control_c, 0, 64, 106
1, 145872, Control_c, 0, 64, 108
1, 145886, Control_c, 0, 64, 111
1, 145901, Control_c, 0, 64, 118
1, 145916, Control_c, 0, 64, 127
1, 145990, Control_c, 0, 64, 123
1, 145994, Note_on_c, 0, 62, 98
1, 145995, Note_on_c, 0, 64, 110
1, 145999, Note_on_c, 0, 58, 85
1, 146000, Note_on_c, 0, 53, 90
1, 146004, Control_c, 0, 64, 96
1, 146014, Note_on_c, 0, 86, 84
1, 146019, Control_c, 0, 64, 70
1, 146025, Note_on_c, 0, 94, 63
1, 146034, Control_c, 0, 64, 0
1, 146041, Note_on_c, 0, 88, 50
1, 146042, Note_off_c, 0, 88, 127
1, 146045, Note_off_c, 0, 94, 59
1, 146046, Note_on_c, 0, 95, 43
1, 146050, Note_off_c, 0, 86, 65
1, 146073, Note_off_c, 0, 95, 37
1, 146109, Control_c, 0, 64, 57
1, 146124, Control_c, 0, 64, 71
1, 146139, Control_c, 0, 64, 78
1, 146153, Control_c, 0, 64, 83
1, 146166, Note_on_c, 0, 86, 76
1, 146168, Control_c, 0, 64, 86
1, 146177, Note_on_c, 0, 94, 61
1, 146183, Control_c, 0, 64, 90
1, 146198, Control_c, 0, 64, 93
1, 146213, Control_c, 0, 64, 96
1, 146227, Note_off_c, 0, 94, 52
1, 146227, Control_c, 0, 64, 97
1, 146238, Note_off_c, 0, 86, 61
1, 146242, Control_c, 0, 64, 98
1, 146257, Control_c, 0, 64, 99
1, 146272, Control_c, 0, 64, 100
1, 146287, Control_c, 0, 64, 101
1, 146302, Control_c, 0, 64, 101
1, 146307, Note_on_c, 0, 88, 69
1, 146316, Control_c, 0, 64, 102
1, 146325, Note_on_c, 0, 83, 31
1, 146335, Note_off_c, 0, 88, 65
1, 146346, Control_c, 0, 64, 102
1, 146358, Note_off_c, 0, 83, 33
1, 146361, Control_c, 0, 64, 103
1, 146376, Control_c, 0, 64, 103
1, 146391, Control_c, 0, 64, 104
1, 146406, Control_c, 0, 64, 104
1, 146412, Note_off_c, 0, 62, 57
1, 146433, Note_on_c, 0, 100, 85
1, 146436, Control_c, 0, 64, 105
1, 146444, Note_on_c, 0, 88, 78
1, 146452, Note_on_c, 0, 97, 68
1, 146453, Note_on_c, 0, 92, 69
1, 146465, Note_off_c, 0, 88, 65
1, 146468, Note_off_c, 0, 64, 52
1, 146480, Note_off_c, 0, 100, 54
1, 146488, Note_off_c, 0, 97, 66
1, 146488, Control_c, 0, 64, 105
1, 146489, Note_off_c, 0, 92, 64
1, 146504, Note_off_c, 0, 58, 28
1, 146513, Note_off_c, 0, 53, 51
1, 146561, Control_c, 0, 64, 106
1, 146585, Note_on_c, 0, 97, 77
1, 146587, Note_on_c, 0, 88, 63
1, 146613, Note_off_c, 0, 97, 62
1, 146622, Note_off_c, 0, 88, 57
1, 146710, Control_c, 0, 64, 106
1, 146723, Note_on_c, 0, 86, 81
1, 146729, Note_on_c, 0, 94, 74
1, 146758, Note_off_c, 0, 86, 59
1, 146765, Note_off_c, 0, 94, 55
1, 146769, Control_c, 0, 64, 107
1, 146784, Control_c, 0, 64, 108
1, 146799, Control_c, 0, 64, 111
1, 146814, Control_c, 0, 64, 112
1, 146843, Control_c, 0, 64, 106
1, 146859, Control_c, 0, 64, 89
1, 146862, Note_on_c, 0, 61, 99
1, 146865, Note_on_c, 0, 59, 83
1, 146868, Note_on_c, 0, 56, 71
1, 146871, Note_on_c, 0, 94, 87
1, 146873, Note_on_c, 0, 86, 89
1, 146874, Control_c, 0, 64, 70
1, 146880, Note_on_c, 0, 50, 53
1, 146883, Note_on_c, 0, 52, 54
1, 146889, Control_c, 0, 64, 0
1, 146904, Control_c, 0, 64, 48
1, 146915, Note_off_c, 0, 94, 65
1, 146919, Control_c, 0, 64, 67
1, 146919, Note_off_c, 0, 86, 61
1, 146922, Note_off_c, 0, 61, 61
1, 146925, Note_off_c, 0, 59, 61
1, 146928, Note_off_c, 0, 52, 44
1, 146933, Control_c, 0, 64, 76
1, 146937, Note_off_c, 0, 56, 63
1, 146946, Note_off_c, 0, 50, 37
1, 146948, Control_c, 0, 64, 87
1, 146963, Control_c, 0, 64, 97
1, 146977, Control_c, 0, 64, 99
1, 146992, Control_c, 0, 64, 100
1, 147007, Control_c, 0, 64, 102
1, 147017, Note_on_c, 0, 89, 62
1, 147017, Note_on_c, 0, 88, 59
1, 147021, Note_on_c, 0, 84, 41
1, 147022, Control_c, 0, 64, 107
1, 147035, Note_off_c, 0, 89, 67
1, 147037, Control_c, 0, 64, 119
1, 147038, Note_off_c, 0, 88, 64
1, 147047, Note_off_c, 0, 84, 57
1, 147051, Control_c, 0, 64, 127
1, 147170, Control_c, 0, 64, 104
1, 147171, Note_on_c, 0, 54, 89
1, 147172, Note_on_c, 0, 49, 91
1, 147172, Note_on_c, 0, 52, 80
1, 147184, Control_c, 0, 64, 77
1, 147186, Note_on_c, 0, 99, 83
1, 147197, Note_on_c, 0, 88, 73
1, 147199, Control_c, 0, 64, 0
1, 147202, Note_on_c, 0, 96, 63
1, 147207, Note_on_c, 0, 93, 66
1, 147207, Note_on_c, 0, 94, 22
1, 147208, Note_off_c, 0, 94, 127
1, 147223, Note_off_c, 0, 88, 59
1, 147251, Note_off_c, 0, 93, 56
1, 147265, Control_c, 0, 64, 69
1, 147272, Note_off_c, 0, 49, 58
1, 147273, Note_off_c, 0, 99, 62
1, 147278, Note_off_c, 0, 96, 48
1, 147280, Control_c, 0, 64, 81
1, 147295, Control_c, 0, 64, 93
1, 147300, Note_off_c, 0, 52, 53
1, 147310, Control_c, 0, 64, 98
1, 147320, Note_off_c, 0, 54, 49
1, 147324, Control_c, 0, 64, 99
1, 147339, Control_c, 0, 64, 100
1, 147354, Control_c, 0, 64, 100
1, 147363, Note_on_c, 0, 49, 89
1, 147367, Note_on_c, 0, 59, 82
1, 147369, Note_on_c, 0, 88, 79
1, 147369, Control_c, 0, 64, 101
1, 147371, Note_on_c, 0, 57, 82
1, 147375, Note_on_c, 0, 93, 69
1, 147380, Note_on_c, 0, 96, 66
1, 147384, Control_c, 0, 64, 101
1, 147395, Note_off_c, 0, 57, 65
1, 147398, Control_c, 0, 64, 102
1, 147401, Note_off_c, 0, 93, 66
1, 147403, Note_off_c, 0, 49, 60
1, 147404, Note_off_c, 0, 96, 68
1, 147410, Note_off_c, 0, 59, 65
1, 147427, Note_off_c, 0, 88, 62
1, 147428, Control_c, 0, 64, 102
1, 147502, Control_c, 0, 64, 103
1, 147508, Note_on_c, 0, 93, 87
1, 147515, Note_on_c, 0, 85, 83
1, 147517, Control_c, 0, 64, 103
1, 147518, Note_on_c, 0, 67, 80
1, 147521, Note_on_c, 0, 58, 74
1, 147521, Note_on_c, 0, 69, 73
1, 147532, Control_c, 0, 64, 104
1, 147533, Note_off_c, 0, 67, 68
1, 147538, Note_off_c, 0, 58, 67
1, 147538, Note_off_c, 0, 69, 70
1, 147542, Note_on_c, 0, 92, 43
1, 147547, Control_c, 0, 64, 105
1, 147562, Control_c, 0, 64, 107
1, 147571, Note_off_c, 0, 92, 34
1, 147575, Note_off_c, 0, 93, 58
1, 147576, Control_c, 0, 64, 109
1, 147590, Note_off_c, 0, 85, 55
1, 147591, Control_c, 0, 64, 112
1, 147606, Control_c, 0, 64, 115
1, 147621, Control_c, 0, 64, 117
1, 147652, Control_c, 0, 64, 116
1, 147667, Control_c, 0, 64, 102
1, 147670, Note_on_c, 0, 57, 74
1, 147674, Note_on_c, 0, 64, 99
1, 147674, Note_on_c, 0, 93, 90
1, 147678, Note_on_c, 0, 61, 93
1, 147679, Note_on_c, 0, 54, 96
1, 147681, Control_c, 0, 64, 80
1, 147684, Note_on_c, 0, 85, 91
1, 147696, Control_c, 0, 64, 0
1, 147789, Note_off_c, 0, 85, 64
1, 147789, Note_off_c, 0, 93, 58
1, 147814, Control_c, 0, 64, 59
1, 147829, Control_c, 0, 64, 75
1, 147833, Note_off_c, 0, 57, 61
1, 147843, Note_on_c, 0, 88, 85
1, 147844, Control_c, 0, 64, 87
1, 147850, Note_off_c, 0, 54, 61
1, 147859, Control_c, 0, 64, 93
1, 147860, Note_off_c, 0, 61, 58
1, 147871, Note_off_c, 0, 64, 52
1, 147873, Control_c, 0, 64, 93
1, 147884, Note_off_c, 0, 88, 66
1, 147933, Control_c, 0, 64, 94
1, 147947, Control_c, 0, 64, 94
1, 147962, Control_c, 0, 64, 96
1, 147983, Note_on_c, 0, 99, 87
1, 147985, Control_c, 0, 64, 97
1, 147993, Note_on_c, 0, 88, 74
1, 147993, Note_on_c, 0, 96, 66
1, 147998, Note_on_c, 0, 93, 64
1, 148000, Control_c, 0, 64, 98
1, 148015, Note_off_c, 0, 88, 60
1, 148015, Control_c, 0, 64, 99
1, 148027, Note_off_c, 0, 96, 58
1, 148030, Control_c, 0, 64, 100
1, 148038, Note_off_c, 0, 93, 56
1, 148045, Control_c, 0, 64, 101
1, 148060, Control_c, 0, 64, 102
1, 148065, Note_off_c, 0, 99, 62
1, 148074, Control_c, 0, 64, 102
1, 148089, Control_c, 0, 64, 103
1, 148104, Control_c, 0, 64, 103
1, 148119, Control_c, 0, 64, 104
1, 148123, Note_on_c, 0, 82, 91
1, 148123, Note_on_c, 0, 88, 69
1, 148151, Note_on_c, 0, 96, 32
1, 148171, Note_off_c, 0, 88, 60
1, 148184, Note_off_c, 0, 96, 33
1, 148260, Note_off_c, 0, 82, 58
1, 148269, Note_on_c, 0, 76, 68
1, 148276, Note_on_c, 0, 85, 72
1, 148277, Note_on_c, 0, 93, 67
1, 148305, Note_off_c, 0, 85, 61
1, 148309, Note_off_c, 0, 93, 62
1, 148355, Control_c, 0, 64, 104
1, 148403, Note_on_c, 0, 69, 73
1, 148409, Note_off_c, 0, 76, 53
1, 148415, Control_c, 0, 64, 105
1, 148415, Note_on_c, 0, 85, 74
1, 148421, Note_on_c, 0, 93, 63
1, 148439, Note_off_c, 0, 93, 61
1, 148460, Control_c, 0, 64, 105
1, 148466, Note_off_c, 0, 85, 62
1, 148490, Control_c, 0, 64, 106
1, 148504, Note_off_c, 0, 69, 63
1, 148541, Note_on_c, 0, 76, 74
1, 148541, Note_on_c, 0, 88, 74
1, 148570, Note_off_c, 0, 88, 64
1, 148579, Control_c, 0, 64, 106
1, 148609, Control_c, 0, 64, 107
1, 148623, Control_c, 0, 64, 108
1, 148638, Control_c, 0, 64, 112
1, 148653, Control_c, 0, 64, 117
1, 148668, Control_c, 0, 64, 127
1, 148675, Note_on_c, 0, 99, 88
1, 148680, Note_on_c, 0, 73, 83
1, 148680, Note_on_c, 0, 88, 77
1, 148685, Note_on_c, 0, 96, 63
1, 148687, Note_off_c, 0, 76, 65
1, 148692, Note_on_c, 0, 93, 60
1, 148705, Note_off_c, 0, 88, 57
1, 148710, Note_off_c, 0, 96, 53
1, 148729, Note_off_c, 0, 93, 64
1, 148759, Note_off_c, 0, 99, 64
1, 148802, Note_off_c, 0, 73, 60
1, 148818, Note_on_c, 0, 88, 70
1, 148820, Note_on_c, 0, 93, 63
1, 148820, Note_on_c, 0, 96, 61
1, 148822, Note_on_c, 0, 82, 95
1, 148849, Note_off_c, 0, 96, 66
1, 148850, Note_off_c, 0, 93, 64
1, 148870, Note_off_c, 0, 88, 59
1, 148924, Note_off_c, 0, 82, 61
1, 148955, Note_on_c, 0, 73, 79
1, 148965, Note_on_c, 0, 93, 73
1, 148975, Note_on_c, 0, 85, 72
1, 149007, Note_off_c, 0, 85, 61
1, 149008, Note_off_c, 0, 93, 55
1, 149110, Note_on_c, 0, 82, 92
1, 149110, Note_on_c, 0, 85, 79
1, 149119, Note_on_c, 0, 93, 66
1, 149145, Note_off_c, 0, 93, 62
1, 149169, Note_off_c, 0, 85, 63
1, 149178, Note_off_c, 0, 73, 53
1, 149226, Note_off_c, 0, 82, 59
1, 149241, Note_on_c, 0, 88, 86
1, 149249, Note_on_c, 0, 76, 78
1, 149282, Note_off_c, 0, 88, 62
1, 149372, Note_on_c, 0, 69, 81
1, 149376, Note_on_c, 0, 99, 87
1, 149387, Note_on_c, 0, 88, 68
1, 149393, Note_on_c, 0, 95, 55
1, 149404, Note_off_c, 0, 88, 65
1, 149406, Note_on_c, 0, 93, 39
1, 149412, Note_off_c, 0, 76, 55
1, 149414, Note_off_c, 0, 95, 62
1, 149437, Note_off_c, 0, 93, 42
1, 149443, Note_off_c, 0, 99, 62
1, 149464, Note_off_c, 0, 69, 58
1, 149518, Note_on_c, 0, 88, 68
1, 149518, Note_on_c, 0, 96, 66
1, 149521, Note_on_c, 0, 93, 66
1, 149522, Note_on_c, 0, 76, 89
1, 149545, Note_off_c, 0, 93, 60
1, 149545, Note_off_c, 0, 96, 67
1, 149548, Note_off_c, 0, 88, 55
1, 149612, Note_off_c, 0, 76, 62
1, 149649, Note_on_c, 0, 93, 75
1, 149652, Note_on_c, 0, 73, 81
1, 149658, Note_on_c, 0, 85, 73
1, 149682, Note_off_c, 0, 85, 66
1, 149695, Note_off_c, 0, 93, 59
1, 149713, Note_off_c, 0, 73, 63
1, 149777, Note_on_c, 0, 82, 95
1, 149785, Note_on_c, 0, 93, 88
1, 149788, Note_on_c, 0, 85, 72
1, 149813, Note_off_c, 0, 85, 52
1, 149817, Note_on_c, 0, 84, 56
1, 149826, Note_off_c, 0, 82, 63
1, 149836, Note_off_c, 0, 84, 63
1, 149836, Note_off_c, 0, 93, 58
1, 149910, Note_on_c, 0, 73, 89
1, 149915, Note_on_c, 0, 81, 77
1, 149917, Note_on_c, 0, 88, 84
1, 149938, Note_off_c, 0, 81, 69
1, 149955, Note_off_c, 0, 73, 64
1, 149971, Note_off_c, 0, 88, 64
1, 150180, Control_c, 0, 64, 99
1, 150194, Control_c, 0, 64, 76
1, 150197, Note_on_c, 0, 59, 82
1, 150198, Note_on_c, 0, 61, 102
1, 150205, Note_on_c, 0, 56, 69
1, 150209, Control_c, 0, 64, 0
1, 150211, Note_on_c, 0, 50, 67
1, 150221, Note_on_c, 0, 92, 94
1, 150222, Note_on_c, 0, 100, 88
1, 150223, Note_on_c, 0, 52, 63
1, 150225, Note_on_c, 0, 88, 84
1, 150231, Note_on_c, 0, 97, 82
1, 150247, Note_off_c, 0, 88, 65
1, 150261, Control_c, 0, 64, 60
1, 150263, Note_off_c, 0, 100, 61
1, 150268, Note_off_c, 0, 92, 64
1, 150273, Note_off_c, 0, 97, 57
1, 150275, Control_c, 0, 64, 71
1, 150290, Control_c, 0, 64, 83
1, 150302, Note_off_c, 0, 56, 62
1, 150303, Note_off_c, 0, 50, 59
1, 150305, Control_c, 0, 64, 96
1, 150306, Note_off_c, 0, 59, 61
1, 150313, Note_off_c, 0, 52, 63
1, 150320, Control_c, 0, 64, 102
1, 150335, Control_c, 0, 64, 103
1, 150347, Note_off_c, 0, 61, 61
1, 150350, Control_c, 0, 64, 104
1, 150364, Control_c, 0, 64, 106
1, 150373, Note_on_c, 0, 97, 77
1, 150379, Control_c, 0, 64, 109
1, 150387, Note_on_c, 0, 88, 48
1, 150394, Control_c, 0, 64, 113
1, 150397, Note_off_c, 0, 97, 69
1, 150409, Control_c, 0, 64, 117
1, 150410, Note_off_c, 0, 88, 53
1, 150424, Control_c, 0, 64, 124
1, 150439, Control_c, 0, 64, 127
1, 150557, Control_c, 0, 64, 112
1, 150569, Note_on_c, 0, 62, 95
1, 150570, Note_on_c, 0, 64, 108
1, 150572, Control_c, 0, 64, 91
1, 150575, Note_on_c, 0, 58, 84
1, 150577, Note_on_c, 0, 53, 83
1, 150583, Note_on_c, 0, 86, 89
1, 150586, Note_on_c, 0, 94, 87
1, 150587, Control_c, 0, 64, 63
1, 150601, Control_c, 0, 64, 0
1, 150617, Note_off_c, 0, 86, 64
1, 150652, Note_off_c, 0, 94, 54
1, 150719, Control_c, 0, 64, 54
1, 150734, Control_c, 0, 64, 77
1, 150749, Control_c, 0, 64, 91
1, 150750, Note_on_c, 0, 86, 74
1, 150755, Note_on_c, 0, 94, 74
1, 150764, Control_c, 0, 64, 103
1, 150779, Control_c, 0, 64, 105
1, 150786, Note_off_c, 0, 53, 62
1, 150794, Control_c, 0, 64, 106
1, 150807, Note_off_c, 0, 62, 60
1, 150809, Control_c, 0, 64, 107
1, 150813, Note_off_c, 0, 58, 62
1, 150814, Note_off_c, 0, 86, 57
1, 150824, Control_c, 0, 64, 108
1, 150833, Note_off_c, 0, 64, 60
1, 150838, Control_c, 0, 64, 109
1, 150842, Note_off_c, 0, 94, 54
1, 150854, Control_c, 0, 64, 112
1, 150869, Control_c, 0, 64, 117
1, 150884, Control_c, 0, 64, 124
1, 150886, Note_on_c, 0, 88, 65
1, 150898, Note_on_c, 0, 83, 43
1, 150898, Control_c, 0, 64, 127
1, 150922, Note_off_c, 0, 88, 63
1, 150924, Note_off_c, 0, 83, 48
1, 151026, Note_on_c, 0, 100, 81
1, 151042, Note_on_c, 0, 88, 68
1, 151042, Note_on_c, 0, 92, 73
1, 151046, Note_on_c, 0, 97, 66
1, 151052, Note_off_c, 0, 100, 61
1, 151059, Note_off_c, 0, 88, 66
1, 151070, Note_off_c, 0, 92, 62
1, 151073, Note_off_c, 0, 97, 67
1, 151163, Note_on_c, 0, 85, 90
1, 151166, Note_on_c, 0, 88, 65
1, 151168, Note_on_c, 0, 97, 70
1, 151188, Note_off_c, 0, 97, 65
1, 151190, Note_off_c, 0, 88, 60
1, 151285, Note_off_c, 0, 85, 60
1, 151295, Note_on_c, 0, 80, 83
1, 151310, Note_on_c, 0, 86, 75
1, 151310, Note_on_c, 0, 94, 68
1, 151340, Note_off_c, 0, 86, 62
1, 151344, Note_off_c, 0, 94, 59
1, 151415, Note_off_c, 0, 80, 61
1, 151440, Note_on_c, 0, 71, 72
1, 151450, Note_on_c, 0, 86, 80
1, 151457, Note_on_c, 0, 94, 66
1, 151489, Note_off_c, 0, 94, 60
1, 151491, Note_off_c, 0, 86, 59
1, 151573, Note_on_c, 0, 80, 92
1, 151578, Note_on_c, 0, 88, 78
1, 151589, Note_off_c, 0, 71, 59
1, 151593, Note_on_c, 0, 83, 44
1, 151615, Note_off_c, 0, 83, 51
1, 151619, Note_off_c, 0, 88, 64
1, 151721, Note_on_c, 0, 74, 80
1, 151725, Note_on_c, 0, 100, 76
1, 151726, Note_on_c, 0, 92, 83
1, 151730, Note_on_c, 0, 88, 76
1, 151732, Note_on_c, 0, 97, 76
1, 151732, Note_off_c, 0, 80, 62
1, 151748, Note_off_c, 0, 100, 66
1, 151753, Note_off_c, 0, 88, 68
1, 151768, Note_off_c, 0, 97, 59
1, 151775, Note_off_c, 0, 92, 64
1, 151843, Note_off_c, 0, 74, 61
1, 151859, Note_on_c, 0, 85, 101
1, 151864, Note_on_c, 0, 88, 70
1, 151866, Note_on_c, 0, 97, 74
1, 151882, Note_off_c, 0, 88, 63
1, 151891, Note_off_c, 0, 97, 68
1, 151942, Poly_aftertouch_c, 0, 80, 127
1, 151968, Note_off_c, 0, 85, 61
1, 151994, Note_on_c, 0, 86, 87
1, 151998, Note_on_c, 0, 74, 74
1, 151998, Note_on_c, 0, 94, 77
1, 152019, Poly_aftertouch_c, 0, 80, 0
1, 152028, Note_off_c, 0, 86, 63
1, 152049, Note_off_c, 0, 94, 62
1, 152136, Note_on_c, 0, 85, 94
1, 152136, Note_on_c, 0, 86, 84
1, 152147, Note_on_c, 0, 94, 65
1, 152177, Note_off_c, 0, 94, 66
1, 152183, Note_off_c, 0, 86, 61
1, 152244, Note_off_c, 0, 85, 60
1, 152272, Note_on_c, 0, 80, 87
1, 152281, Note_on_c, 0, 88, 65
1, 152295, Note_off_c, 0, 74, 26
1, 152296, Note_on_c, 0, 83, 30
1, 152308, Note_off_c, 0, 88, 66
1, 152308, Note_on_c, 0, 89, 35
1, 152329, Note_off_c, 0, 83, 33
1, 152339, Note_off_c, 0, 89, 33
1, 152401, Note_off_c, 0, 80, 62
1, 152403, Note_on_c, 0, 100, 84
1, 152409, Note_on_c, 0, 71, 75
1, 152412, Note_on_c, 0, 88, 80
1, 152415, Note_on_c, 0, 92, 77
1, 152417, Note_on_c, 0, 97, 73
1, 152435, Note_off_c, 0, 88, 66
1, 152449, Note_off_c, 0, 97, 58
1, 152449, Note_off_c, 0, 100, 57
1, 152471, Note_off_c, 0, 92, 63
1, 152552, Note_on_c, 0, 80, 91
1, 152563, Note_on_c, 0, 97, 81
1, 152566, Note_off_c, 0, 71, 60
1, 152567, Note_on_c, 0, 88, 79
1, 152590, Note_off_c, 0, 97, 59
1, 152591, Note_off_c, 0, 88, 61
1, 152706, Note_on_c, 0, 74, 79
1, 152706, Note_on_c, 0, 86, 91
1, 152706, Note_on_c, 0, 94, 89
1, 152714, Note_off_c, 0, 80, 61
1, 152750, Note_off_c, 0, 86, 61
1, 152760, Note_off_c, 0, 94, 62
1, 152836, Note_off_c, 0, 74, 63
1, 152853, Note_on_c, 0, 86, 96
1, 152857, Note_on_c, 0, 94, 88
1, 152865, Note_on_c, 0, 85, 96
1, 152896, Note_off_c, 0, 86, 62
1, 152898, Note_off_c, 0, 94, 66
1, 152943, Poly_aftertouch_c, 0, 80, 127
1, 152949, Note_off_c, 0, 85, 61
1, 153005, Note_on_c, 0, 88, 93
1, 153010, Note_on_c, 0, 83, 86
1, 153013, Note_on_c, 0, 74, 87
1, 153020, Poly_aftertouch_c, 0, 80, 0
1, 153032, Note_off_c, 0, 83, 63
1, 153044, Note_off_c, 0, 88, 64
1, 153047, Note_on_c, 0, 84, 26
1, 153048, Note_off_c, 0, 84, 127
1, 153049, Note_off_c, 0, 74, 68
1, 153444, Note_on_c, 0, 70, 97
1, 153447, Note_on_c, 0, 58, 99
1, 153447, Note_on_c, 0, 63, 103
1, 153450, Control_c, 0, 64, 110
1, 153452, Note_on_c, 0, 67, 81
1, 153453, Note_on_c, 0, 55, 71
1, 153458, Note_on_c, 0, 51, 78
1, 153465, Control_c, 0, 64, 79
1, 153480, Control_c, 0, 64, 0
1, 153524, Control_c, 0, 64, 45
1, 153528, Note_off_c, 0, 67, 62
1, 153539, Control_c, 0, 64, 68
1, 153554, Control_c, 0, 64, 77
1, 153568, Note_off_c, 0, 55, 64
1, 153569, Control_c, 0, 64, 84
1, 153584, Control_c, 0, 64, 88
1, 153590, Note_off_c, 0, 51, 61
1, 153591, Note_off_c, 0, 70, 51
1, 153599, Control_c, 0, 64, 91
1, 153613, Control_c, 0, 64, 96
1, 153628, Control_c, 0, 64, 101
1, 153643, Control_c, 0, 64, 105
1, 153658, Control_c, 0, 64, 109
1, 153673, Control_c, 0, 64, 113
1, 153681, Note_off_c, 0, 63, 61
1, 153687, Control_c, 0, 64, 114
1, 153690, Note_off_c, 0, 58, 57
1, 153732, Control_c, 0, 64, 112
1, 153746, Control_c, 0, 64, 94
1, 153747, Note_on_c, 0, 69, 100
1, 153748, Note_on_c, 0, 64, 89
1, 153749, Note_on_c, 0, 61, 101
1, 153751, Note_on_c, 0, 57, 103
1, 153751, Note_on_c, 0, 66, 88
1, 153753, Note_on_c, 0, 54, 88
1, 153755, Note_on_c, 0, 49, 92
1, 153757, Note_on_c, 0, 52, 82
1, 153761, Control_c, 0, 64, 67
1, 153776, Control_c, 0, 64, 0
1, 154066, Note_off_c, 0, 61, 54
1, 154095, Control_c, 0, 64, 64
1, 154106, Note_off_c, 0, 69, 45
1, 154110, Control_c, 0, 64, 69
1, 154114, Note_off_c, 0, 64, 60
1, 154124, Control_c, 0, 64, 74
1, 154139, Control_c, 0, 64, 82
1, 154154, Control_c, 0, 64, 88
1, 154167, Note_off_c, 0, 52, 54
1, 154168, Control_c, 0, 64, 93
1, 154183, Control_c, 0, 64, 97
1, 154185, Note_off_c, 0, 66, 64
1, 154188, Note_off_c, 0, 49, 56
1, 154198, Control_c, 0, 64, 101
1, 154206, Note_off_c, 0, 54, 59
1, 154209, Note_off_c, 0, 57, 52
1, 154213, Control_c, 0, 64, 104
1, 154228, Control_c, 0, 64, 107
1, 154243, Control_c, 0, 64, 108
1, 154258, Control_c, 0, 64, 111
1, 154272, Control_c, 0, 64, 113
1, 154287, Control_c, 0, 64, 117
1, 154302, Control_c, 0, 64, 121
1, 154317, Control_c, 0, 64, 127
1, 154556, Note_on_c, 0, 99, 69
1, 154586, Note_on_c, 0, 96, 54
1, 154607, Note_on_c, 0, 93, 43
1, 154615, Note_off_c, 0, 99, 65
1, 154624, Note_off_c, 0, 96, 62
1, 154632, Note_off_c, 0, 93, 57
1, 154700, Note_on_c, 0, 69, 71
1, 154717, Note_on_c, 0, 88, 42
1, 154721, Note_on_c, 0, 93, 62
1, 154723, Note_on_c, 0, 96, 62
1, 154741, Note_off_c, 0, 93, 57
1, 154746, Note_off_c, 0, 96, 65
1, 154770, Note_off_c, 0, 88, 63
1, 154797, Note_off_c, 0, 69, 61
1, 154856, Note_on_c, 0, 93, 73
1, 154865, Note_on_c, 0, 76, 74
1, 154868, Note_on_c, 0, 85, 67
1, 154893, Note_off_c, 0, 85, 69
1, 154904, Note_off_c, 0, 93, 61
1, 154996, Note_on_c, 0, 73, 83
1, 154997, Note_on_c, 0, 85, 70
1, 155011, Note_off_c, 0, 76, 62
1, 155037, Note_off_c, 0, 85, 59
1, 155119, Note_off_c, 0, 73, 60
1, 155131, Note_on_c, 0, 82, 95
1, 155138, Note_on_c, 0, 88, 68
1, 155156, Note_off_c, 0, 88, 67
1, 155217, Note_off_c, 0, 82, 60
1, 155256, Note_on_c, 0, 73, 77
1, 155259, Note_on_c, 0, 88, 74
1, 155261, Note_on_c, 0, 99, 85
1, 155274, Note_on_c, 0, 96, 57
1, 155274, Note_on_c, 0, 93, 59
1, 155286, Note_off_c, 0, 88, 62
1, 155309, Note_off_c, 0, 93, 62
1, 155313, Note_off_c, 0, 96, 58
1, 155334, Note_off_c, 0, 99, 62
1, 155402, Note_on_c, 0, 88, 70
1, 155405, Note_on_c, 0, 82, 95
1, 155408, Note_on_c, 0, 93, 62
1, 155422, Note_on_c, 0, 96, 53
1, 155438, Note_off_c, 0, 93, 64
1, 155442, Note_off_c, 0, 96, 56
1, 155449, Note_off_c, 0, 88, 60
1, 155469, Note_off_c, 0, 73, 58
1, 155504, Note_off_c, 0, 82, 61
1, 155546, Note_on_c, 0, 93, 73
1, 155548, Note_on_c, 0, 76, 69
1, 155555, Note_on_c, 0, 85, 73
1, 155582, Note_off_c, 0, 85, 63
1, 155596, Note_off_c, 0, 93, 58
1, 155688, Note_on_c, 0, 69, 76
1, 155690, Note_on_c, 0, 85, 81
1, 155699, Note_on_c, 0, 93, 70
1, 155706, Note_off_c, 0, 76, 36
1, 155724, Note_off_c, 0, 93, 61
1, 155742, Note_off_c, 0, 85, 60
1, 155795, Note_off_c, 0, 69, 62
1, 155820, Note_on_c, 0, 88, 81
1, 155823, Note_on_c, 0, 76, 80
1, 155848, Note_off_c, 0, 88, 63
1, 155949, Note_on_c, 0, 99, 86
1, 155955, Note_on_c, 0, 73, 90
1, 155957, Note_on_c, 0, 88, 74
1, 155960, Note_on_c, 0, 96, 62
1, 155966, Note_on_c, 0, 93, 62
1, 155973, Note_off_c, 0, 76, 62
1, 155973, Note_off_c, 0, 88, 63
1, 155981, Note_off_c, 0, 96, 58
1, 155998, Note_off_c, 0, 93, 63
1, 156014, Note_off_c, 0, 99, 62
1, 156078, Note_on_c, 0, 88, 70
1, 156082, Note_off_c, 0, 73, 56
1, 156087, Note_on_c, 0, 82, 97
1, 156099, Note_on_c, 0, 93, 53
1, 156101, Note_on_c, 0, 96, 46
1, 156121, Note_off_c, 0, 93, 57
1, 156122, Note_off_c, 0, 96, 54
1, 156133, Note_off_c, 0, 88, 61
1, 156180, Note_off_c, 0, 82, 62
1, 156224, Note_on_c, 0, 73, 78
1, 156232, Note_on_c, 0, 93, 70
1, 156239, Note_on_c, 0, 85, 76
1, 156272, Note_off_c, 0, 85, 59
1, 156281, Note_off_c, 0, 93, 61
1, 156373, Note_on_c, 0, 82, 92
1, 156374, Note_on_c, 0, 85, 78
1, 156380, Note_on_c, 0, 93, 66
1, 156406, Note_off_c, 0, 93, 62
1, 156428, Note_off_c, 0, 85, 63
1, 156464, Note_off_c, 0, 82, 61
1, 156478, Note_off_c, 0, 73, 36
1, 156503, Note_on_c, 0, 88, 80
1, 156508, Note_on_c, 0, 76, 69
1, 156547, Note_off_c, 0, 88, 63
1, 156630, Note_on_c, 0, 69, 81
1, 156632, Note_on_c, 0, 99, 89
1, 156642, Note_on_c, 0, 96, 63
1, 156646, Note_on_c, 0, 88, 61
1, 156649, Note_off_c, 0, 76, 58
1, 156655, Note_on_c, 0, 93, 54
1, 156665, Note_off_c, 0, 88, 63
1, 156672, Note_off_c, 0, 96, 63
1, 156679, Note_off_c, 0, 93, 61
1, 156713, Note_off_c, 0, 99, 64
1, 156724, Note_off_c, 0, 69, 61
1, 156762, Note_on_c, 0, 88, 76
1, 156765, Note_on_c, 0, 76, 82
1, 156772, Note_on_c, 0, 93, 65
1, 156779, Note_on_c, 0, 96, 57
1, 156798, Note_off_c, 0, 96, 63
1, 156800, Note_off_c, 0, 93, 65
1, 156813, Note_off_c, 0, 88, 61
1, 156879, Note_off_c, 0, 76, 56
1, 156896, Note_on_c, 0, 93, 87
1, 156897, Note_on_c, 0, 73, 86
1, 156901, Note_on_c, 0, 85, 85
1, 156943, Note_off_c, 0, 93, 62
1, 156944, Note_off_c, 0, 85, 64
1, 156997, Note_off_c, 0, 73, 60
1, 157037, Note_on_c, 0, 85, 87
1, 157039, Note_on_c, 0, 82, 96
1, 157042, Note_on_c, 0, 93, 75
1, 157069, Note_off_c, 0, 93, 64
1, 157084, Note_off_c, 0, 82, 65
1, 157087, Note_off_c, 0, 85, 65
1, 157161, Note_on_c, 0, 88, 101
1, 157167, Note_on_c, 0, 73, 86
1, 157167, Note_on_c, 0, 81, 89
1, 157185, Note_off_c, 0, 81, 66
1, 157195, Note_off_c, 0, 88, 66
1, 157197, Note_off_c, 0, 73, 56
1, 157535, Control_c, 0, 64, 104
1, 157550, Control_c, 0, 64, 78
1, 157565, Control_c, 0, 64, 0
1, 157608, Note_on_c, 0, 65, 102
1, 157608, Note_on_c, 0, 76, 95
1, 157609, Control_c, 0, 64, 18
1, 157611, Note_on_c, 0, 68, 93
1, 157614, Note_on_c, 0, 73, 85
1, 157615, Note_on_c, 0, 25, 89
1, 157624, Control_c, 0, 64, 75
1, 157639, Control_c, 0, 64, 97
1, 157647, Note_off_c, 0, 76, 63
1, 157653, Control_c, 0, 64, 127
1, 157663, Note_off_c, 0, 65, 62
1, 157665, Note_off_c, 0, 73, 62
1, 157686, Note_off_c, 0, 68, 61
1, 157710, Note_off_c, 0, 25, 59
1, 157734, Control_c, 0, 64, 123
1, 157749, Control_c, 0, 64, 111
1, 157764, Control_c, 0, 64, 96
1, 157779, Control_c, 0, 64, 79
1, 157788, Note_on_c, 0, 32, 56
1, 157793, Control_c, 0, 64, 42
1, 157799, Note_on_c, 0, 38, 55
1, 157808, Control_c, 0, 64, 0
1, 157821, Note_off_c, 0, 32, 65
1, 157836, Note_off_c, 0, 38, 62
1, 157892, Note_on_c, 0, 73, 84
1, 157894, Note_on_c, 0, 62, 86
1, 157919, Note_on_c, 0, 29, 73
1, 157927, Note_off_c, 0, 62, 64
1, 157943, Note_off_c, 0, 73, 62
1, 157971, Note_off_c, 0, 29, 62
1, 158046, Control_c, 0, 64, 33
1, 158052, Note_on_c, 0, 61, 92
1, 158053, Note_on_c, 0, 68, 92
1, 158056, Note_on_c, 0, 43, 74
1, 158057, Note_on_c, 0, 65, 75
1, 158061, Control_c, 0, 64, 105
1, 158065, Note_on_c, 0, 36, 62
1, 158076, Control_c, 0, 64, 127
1, 158082, Note_off_c, 0, 65, 70
1, 158083, Note_off_c, 0, 61, 63
1, 158088, Note_off_c, 0, 43, 61
1, 158095, Note_off_c, 0, 36, 65
1, 158106, Note_off_c, 0, 68, 68
1, 158135, Control_c, 0, 64, 102
1, 158150, Control_c, 0, 64, 76
1, 158165, Control_c, 0, 64, 0
1, 158193, Note_on_c, 0, 32, 62
1, 158241, Note_off_c, 0, 32, 61
1, 158315, Note_on_c, 0, 73, 81
1, 158316, Note_on_c, 0, 82, 93
1, 158318, Note_on_c, 0, 68, 100
1, 158322, Note_on_c, 0, 40, 77
1, 158324, Note_on_c, 0, 46, 85
1, 158328, Control_c, 0, 64, 64
1, 158330, Note_on_c, 0, 77, 74
1, 158342, Control_c, 0, 64, 127
1, 158343, Note_on_c, 0, 80, 53
1, 158352, Note_off_c, 0, 77, 69
1, 158357, Note_off_c, 0, 40, 66
1, 158359, Note_off_c, 0, 46, 63
1, 158364, Note_off_c, 0, 82, 66
1, 158365, Note_off_c, 0, 80, 60
1, 158371, Note_off_c, 0, 73, 63
1, 158398, Note_off_c, 0, 68, 61
1, 158463, Note_on_c, 0, 35, 69
1, 158469, Control_c, 0, 64, 122
1, 158483, Control_c, 0, 64, 109
1, 158490, Note_off_c, 0, 35, 63
1, 158498, Control_c, 0, 64, 95
1, 158513, Control_c, 0, 64, 81
1, 158528, Control_c, 0, 64, 63
1, 158542, Control_c, 0, 64, 0
1, 158588, Note_on_c, 0, 80, 83
1, 158594, Note_on_c, 0, 67, 72
1, 158601, Note_on_c, 0, 71, 32
1, 158602, Note_on_c, 0, 74, 54
1, 158609, Note_on_c, 0, 44, 66
1, 158610, Note_on_c, 0, 49, 64
1, 158617, Note_off_c, 0, 80, 62
1, 158620, Note_off_c, 0, 67, 65
1, 158621, Note_off_c, 0, 74, 64
1, 158625, Note_off_c, 0, 71, 49
1, 158637, Note_off_c, 0, 44, 65
1, 158642, Note_off_c, 0, 49, 62
1, 158680, Note_on_c, 0, 65, 82
1, 158702, Note_off_c, 0, 65, 72
1, 158708, Note_on_c, 0, 73, 79
1, 158709, Note_on_c, 0, 68, 70
1, 158727, Note_off_c, 0, 68, 68
1, 158728, Note_on_c, 0, 79, 97
1, 158733, Note_on_c, 0, 38, 81
1, 158735, Control_c, 0, 64, 71
1, 158749, Note_off_c, 0, 73, 66
1, 158750, Control_c, 0, 64, 121
1, 158760, Note_off_c, 0, 79, 66
1, 158765, Control_c, 0, 64, 127
1, 158794, Control_c, 0, 64, 118
1, 158800, Note_off_c, 0, 38, 58
1, 158809, Control_c, 0, 64, 94
1, 158824, Control_c, 0, 64, 68
1, 158839, Control_c, 0, 64, 0
1, 158877, Note_on_c, 0, 46, 64
1, 158878, Note_on_c, 0, 52, 67
1, 158911, Note_off_c, 0, 46, 62
1, 158912, Note_off_c, 0, 52, 64
1, 158980, Note_on_c, 0, 88, 99
1, 158984, Note_on_c, 0, 85, 90
1, 158985, Note_on_c, 0, 80, 96
1, 158986, Note_on_c, 0, 77, 89
1, 158988, Control_c, 0, 64, 63
1, 158997, Note_on_c, 0, 43, 85
1, 158998, Note_off_c, 0, 88, 67
1, 158999, Note_off_c, 0, 77, 72
1, 159003, Control_c, 0, 64, 108
1, 159018, Control_c, 0, 64, 127
1, 159021, Note_off_c, 0, 85, 64
1, 159024, Note_off_c, 0, 80, 63
1, 159032, Control_c, 0, 64, 126
1, 159047, Control_c, 0, 64, 104
1, 159050, Note_off_c, 0, 43, 58
1, 159062, Control_c, 0, 64, 81
1, 159076, Control_c, 0, 64, 0
1, 159129, Note_on_c, 0, 49, 71
1, 159130, Note_on_c, 0, 56, 70
1, 159166, Note_off_c, 0, 49, 64
1, 159166, Note_off_c, 0, 56, 63
1, 159193, Note_on_c, 0, 80, 3
1, 159224, Note_off_c, 0, 80, 29
1, 159250, Note_on_c, 0, 85, 104
1, 159251, Note_on_c, 0, 46, 87
1, 159251, Note_on_c, 0, 73, 102
1, 159252, Note_on_c, 0, 80, 72
1, 159254, Note_on_c, 0, 77, 96
1, 159262, Control_c, 0, 64, 74
1, 159277, Control_c, 0, 64, 127
1, 159337, Control_c, 0, 64, 127
1, 159338, Note_off_c, 0, 46, 53
1, 159352, Control_c, 0, 64, 110
1, 159366, Control_c, 0, 64, 102
1, 159378, Note_on_c, 0, 53, 71
1, 159381, Control_c, 0, 64, 99
1, 159392, Note_on_c, 0, 59, 71
1, 159396, Control_c, 0, 64, 98
1, 159411, Control_c, 0, 64, 96
1, 159412, Note_off_c, 0, 53, 67
1, 159426, Control_c, 0, 64, 94
1, 159426, Note_off_c, 0, 59, 61
1, 159440, Control_c, 0, 64, 90
1, 159455, Control_c, 0, 64, 86
1, 159470, Control_c, 0, 64, 81
1, 159484, Control_c, 0, 64, 73
1, 159499, Control_c, 0, 64, 64
1, 159505, Note_on_c, 0, 50, 77
1, 159514, Control_c, 0, 64, 0
1, 159555, Note_off_c, 0, 50, 60
1, 159632, Note_on_c, 0, 58, 78
1, 159634, Note_on_c, 0, 64, 76
1, 159661, Note_off_c, 0, 58, 67
1, 159665, Note_off_c, 0, 64, 64
1, 159754, Note_on_c, 0, 53, 77
1, 159799, Note_off_c, 0, 53, 64
1, 159887, Note_on_c, 0, 67, 76
1, 159888, Note_on_c, 0, 61, 74
1, 159915, Note_off_c, 0, 67, 63
1, 159920, Note_off_c, 0, 61, 63
1, 159987, Note_off_c, 0, 85, 59
1, 159995, Note_off_c, 0, 77, 56
1, 159996, Note_off_c, 0, 80, 61
1, 160008, Note_off_c, 0, 73, 56
1, 160015, Note_on_c, 0, 56, 78
1, 160026, Control_c, 0, 64, 67
1, 160041, Control_c, 0, 64, 77
1, 160055, Control_c, 0, 64, 88
1, 160070, Control_c, 0, 64, 99
1, 160082, Note_off_c, 0, 56, 60
1, 160085, Control_c, 0, 64, 108
1, 160100, Control_c, 0, 64, 117
1, 160115, Control_c, 0, 64, 127
1, 160143, Note_on_c, 0, 70, 84
1, 160155, Note_on_c, 0, 65, 62
1, 160162, Note_off_c, 0, 70, 72
1, 160175, Note_off_c, 0, 65, 66
1, 160249, Control_c, 0, 64, 107
1, 160263, Control_c, 0, 64, 83
1, 160278, Control_c, 0, 64, 62
1, 160293, Control_c, 0, 64, 0
1, 160294, Note_on_c, 0, 82, 89
1, 160294, Note_on_c, 0, 68, 100
1, 160298, Note_on_c, 0, 73, 84
1, 160302, Note_on_c, 0, 77, 78
1, 160307, Control_c, 0, 64, 28
1, 160309, Note_on_c, 0, 35, 79
1, 160322, Control_c, 0, 64, 67
1, 160334, Note_off_c, 0, 77, 60
1, 160337, Control_c, 0, 64, 75
1, 160342, Note_off_c, 0, 82, 67
1, 160344, Note_off_c, 0, 35, 68
1, 160351, Note_off_c, 0, 73, 63
1, 160352, Control_c, 0, 64, 84
1, 160367, Control_c, 0, 64, 88
1, 160381, Control_c, 0, 64, 89
1, 160384, Note_off_c, 0, 68, 63
1, 160411, Control_c, 0, 64, 90
1, 160427, Control_c, 0, 64, 92
1, 160442, Control_c, 0, 64, 97
1, 160444, Note_on_c, 0, 44, 67
1, 160452, Note_on_c, 0, 49, 63
1, 160457, Control_c, 0, 64, 99
1, 160481, Note_off_c, 0, 44, 63
1, 160486, Control_c, 0, 64, 98
1, 160491, Note_off_c, 0, 49, 61
1, 160494, Note_on_c, 0, 65, 77
1, 160501, Control_c, 0, 64, 91
1, 160516, Note_off_c, 0, 65, 71
1, 160516, Control_c, 0, 64, 76
1, 160527, Note_on_c, 0, 68, 81
1, 160530, Note_on_c, 0, 73, 86
1, 160530, Control_c, 0, 64, 0
1, 160544, Note_off_c, 0, 68, 74
1, 160550, Note_on_c, 0, 79, 97
1, 160562, Note_off_c, 0, 73, 67
1, 160567, Note_on_c, 0, 38, 76
1, 160575, Control_c, 0, 64, 54
1, 160577, Note_off_c, 0, 79, 68
1, 160590, Control_c, 0, 64, 70
1, 160604, Control_c, 0, 64, 79
1, 160619, Control_c, 0, 64, 86
1, 160634, Control_c, 0, 64, 88
1, 160643, Note_off_c, 0, 38, 58
1, 160709, Note_on_c, 0, 46, 73
1, 160714, Note_on_c, 0, 52, 76
1, 160747, Note_off_c, 0, 46, 63
1, 160756, Note_off_c, 0, 52, 61
1, 160833, Note_on_c, 0, 40, 79
1, 160834, Control_c, 0, 64, 86
1, 160849, Control_c, 0, 64, 82
1, 160863, Control_c, 0, 64, 74
1, 160878, Control_c, 0, 64, 59
1, 160879, Note_on_c, 0, 41, 29
1, 160880, Note_off_c, 0, 40, 61
1, 160893, Control_c, 0, 64, 0
1, 160925, Note_off_c, 0, 41, 30
1, 160951, Note_on_c, 0, 68, 76
1, 160951, Note_on_c, 0, 70, 101
1, 160954, Note_on_c, 0, 61, 91
1, 160958, Note_on_c, 0, 65, 82
1, 160961, Note_on_c, 0, 49, 77
1, 160962, Note_on_c, 0, 55, 82
1, 160968, Control_c, 0, 64, 68
1, 160981, Note_off_c, 0, 61, 66
1, 160982, Control_c, 0, 64, 85
1, 160984, Note_off_c, 0, 65, 68
1, 160995, Note_off_c, 0, 55, 64
1, 160997, Note_off_c, 0, 49, 62
1, 160997, Control_c, 0, 64, 104
1, 161011, Note_off_c, 0, 68, 64
1, 161012, Control_c, 0, 64, 112
1, 161018, Note_off_c, 0, 70, 61
1, 161081, Note_on_c, 0, 43, 81
1, 161136, Note_off_c, 0, 43, 61
1, 161145, Control_c, 0, 64, 112
1, 161160, Control_c, 0, 64, 103
1, 161175, Control_c, 0, 64, 86
1, 161190, Control_c, 0, 64, 64
1, 161204, Control_c, 0, 64, 0
1, 161207, Note_on_c, 0, 65, 109
1, 161209, Note_on_c, 0, 76, 99
1, 161212, Note_on_c, 0, 68, 99
1, 161213, Note_on_c, 0, 73, 95
1, 161215, Note_on_c, 0, 50, 66
1, 161224, Note_on_c, 0, 59, 74
1, 161233, Note_off_c, 0, 65, 66
1, 161235, Control_c, 0, 64, 31
1, 161247, Note_off_c, 0, 50, 64
1, 161248, Note_off_c, 0, 76, 68
1, 161249, Note_off_c, 0, 68, 65
1, 161250, Control_c, 0, 64, 71
1, 161258, Note_off_c, 0, 73, 68
1, 161265, Control_c, 0, 64, 85
1, 161266, Note_off_c, 0, 59, 61
1, 161280, Control_c, 0, 64, 97
1, 161295, Control_c, 0, 64, 100
1, 161346, Note_on_c, 0, 46, 82
1, 161441, Note_off_c, 0, 46, 51
1, 161496, Note_on_c, 0, 55, 73
1, 161504, Note_on_c, 0, 61, 86
1, 161540, Note_off_c, 0, 55, 63
1, 161563, Note_off_c, 0, 61, 64
1, 161686, Control_c, 0, 64, 98
1, 161701, Control_c, 0, 64, 86
1, 161716, Control_c, 0, 64, 66
1, 161731, Control_c, 0, 64, 0
1, 161752, Note_on_c, 0, 80, 96
1, 161752, Note_on_c, 0, 63, 85
1, 161752, Note_on_c, 0, 68, 104
1, 161753, Note_on_c, 0, 66, 95
1, 161759, Note_on_c, 0, 71, 78
1, 161763, Note_on_c, 0, 75, 79
1, 161767, Note_on_c, 0, 59, 64
1, 161774, Note_on_c, 0, 54, 68
1, 161775, Control_c, 0, 64, 58
1, 161790, Control_c, 0, 64, 78
1, 161791, Note_off_c, 0, 75, 68
1, 161792, Note_off_c, 0, 71, 63
1, 161798, Note_off_c, 0, 66, 63
1, 161805, Control_c, 0, 64, 93
1, 161808, Note_off_c, 0, 80, 63
1, 161820, Control_c, 0, 64, 103
1, 161824, Note_off_c, 0, 68, 58
1, 161825, Note_off_c, 0, 59, 42
1, 161826, Note_off_c, 0, 63, 0
1, 161834, Note_off_c, 0, 54, 53
1, 161835, Control_c, 0, 64, 104
1, 161844, Poly_aftertouch_c, 0, 63, 0
1, 161924, Control_c, 0, 64, 103
1, 161939, Control_c, 0, 64, 93
1, 161953, Control_c, 0, 64, 71
1, 161968, Control_c, 0, 64, 0
1, 161993, Note_on_c, 0, 66, 111
1, 161996, Note_on_c, 0, 69, 86
1, 161996, Note_on_c, 0, 78, 98
1, 161999, Note_on_c, 0, 65, 92
1, 161999, Note_on_c, 0, 62, 86
1, 161999, Note_on_c, 0, 53, 80
1, 161999, Note_on_c, 0, 74, 80
1, 162012, Control_c, 0, 64, 46
1, 162019, Note_on_c, 0, 57, 48
1, 162029, Control_c, 0, 64, 77
1, 162032, Note_off_c, 0, 65, 68
1, 162032, Note_off_c, 0, 62, 66
1, 162033, Note_off_c, 0, 69, 65
1, 162043, Note_off_c, 0, 57, 61
1, 162044, Control_c, 0, 64, 96
1, 162057, Note_off_c, 0, 78, 65
1, 162058, Control_c, 0, 64, 115
1, 162062, Note_off_c, 0, 53, 65
1, 162073, Control_c, 0, 64, 116
1, 162094, Note_off_c, 0, 66, 62
1, 162175, Control_c, 0, 64, 115
1, 162190, Control_c, 0, 64, 102
1, 162204, Note_off_c, 0, 74, 0
1, 162212, Control_c, 0, 64, 79
1, 162221, Note_on_c, 0, 65, 103
1, 162221, Note_on_c, 0, 74, 48
1, 162223, Note_on_c, 0, 77, 98
1, 162224, Note_on_c, 0, 68, 97
1, 162227, Note_on_c, 0, 63, 104
1, 162227, Control_c, 0, 64, 0
1, 162228, Note_on_c, 0, 60, 86
1, 162229, Note_on_c, 0, 72, 86
1, 162234, Note_on_c, 0, 51, 89
1, 162234, Note_on_c, 0, 56, 81
1, 162237, Note_on_c, 0, 54, 81
1, 162352, Note_off_c, 0, 74, 37
1, 162360, Control_c, 0, 64, 43
1, 162367, Note_off_c, 0, 65, 58
1, 162375, Control_c, 0, 64, 69
1, 162389, Control_c, 0, 64, 76
1, 162404, Control_c, 0, 64, 83
1, 162415, Note_off_c, 0, 51, 60
1, 162419, Control_c, 0, 64, 89
1, 162434, Note_off_c, 0, 68, 60
1, 162434, Control_c, 0, 64, 95
1, 162440, Note_off_c, 0, 60, 54
1, 162445, Note_off_c, 0, 54, 57
1, 162449, Control_c, 0, 64, 103
1, 162450, Note_off_c, 0, 56, 59
1, 162453, Note_off_c, 0, 63, 56
1, 162459, Note_off_c, 0, 72, 57
1, 162464, Control_c, 0, 64, 108
1, 162479, Control_c, 0, 64, 112
1, 162482, Note_off_c, 0, 77, 47
1, 162494, Control_c, 0, 64, 114
1, 162508, Control_c, 0, 64, 115
1, 162508, Control_c, 0, 67, 10
1, 162523, Control_c, 0, 67, 20
1, 162538, Control_c, 0, 64, 115
1, 162538, Control_c, 0, 67, 35
1, 162553, Control_c, 0, 67, 54
1, 162568, Control_c, 0, 67, 65
1, 162582, Control_c, 0, 67, 73
1, 162597, Control_c, 0, 67, 80
1, 162612, Control_c, 0, 67, 83
1, 162627, Control_c, 0, 67, 86
1, 162642, Control_c, 0, 67, 87
1, 162686, Control_c, 0, 67, 87
1, 162939, Control_c, 0, 67, 87
1, 162962, Control_c, 0, 67, 86
1, 163095, Control_c, 0, 67, 86
1, 163143, Note_on_c, 0, 101, 70
1, 163151, Note_on_c, 0, 92, 64
1, 163152, Note_on_c, 0, 87, 46
1, 163158, Note_on_c, 0, 96, 52
1, 163159, Note_on_c, 0, 78, 44
1, 163183, Note_off_c, 0, 87, 51
1, 163184, Note_off_c, 0, 92, 64
1, 163188, Note_off_c, 0, 101, 57
1, 163193, Note_off_c, 0, 96, 65
1, 163195, Note_off_c, 0, 78, 48
1, 163243, Poly_aftertouch_c, 0, 83, 0
1, 163243, Control_c, 0, 64, 116
1, 163257, Control_c, 0, 67, 85
1, 163272, Control_c, 0, 67, 85
1, 163287, Note_on_c, 0, 99, 66
1, 163287, Control_c, 0, 67, 84
1, 163302, Control_c, 0, 67, 84
1, 163307, Note_on_c, 0, 90, 44
1, 163313, Note_on_c, 0, 95, 40
1, 163317, Control_c, 0, 67, 83
1, 163322, Note_off_c, 0, 99, 64
1, 163331, Control_c, 0, 67, 83
1, 163333, Note_off_c, 0, 90, 53
1, 163334, Note_off_c, 0, 95, 50
1, 163346, Control_c, 0, 67, 82
1, 163361, Control_c, 0, 67, 82
1, 163375, Poly_aftertouch_c, 0, 86, 0
1, 163376, Control_c, 0, 67, 81
1, 163391, Control_c, 0, 67, 81
1, 163406, Control_c, 0, 67, 80
1, 163416, Note_on_c, 0, 98, 68
1, 163421, Control_c, 0, 67, 80
1, 163426, Note_on_c, 0, 84, 55
1, 163428, Note_on_c, 0, 89, 54
1, 163432, Note_on_c, 0, 75, 43
1, 163436, Control_c, 0, 67, 79
1, 163446, Note_off_c, 0, 84, 63
1, 163448, Note_off_c, 0, 89, 61
1, 163448, Note_on_c, 0, 93, 42
1, 163450, Control_c, 0, 67, 78
1, 163451, Note_on_c, 0, 80, 24
1, 163451, Note_off_c, 0, 98, 58
1, 163465, Control_c, 0, 67, 78
1, 163469, Note_off_c, 0, 75, 56
1, 163472, Note_off_c, 0, 93, 50
1, 163480, Control_c, 0, 67, 77
1, 163486, Note_off_c, 0, 80, 49
1, 163495, Control_c, 0, 67, 75
1, 163510, Control_c, 0, 67, 72
1, 163524, Control_c, 0, 67, 66
1, 163539, Control_c, 0, 67, 60
1, 163541, Note_on_c, 0, 96, 73
1, 163543, Note_on_c, 0, 83, 58
1, 163546, Note_on_c, 0, 78, 57
1, 163554, Control_c, 0, 67, 51
1, 163555, Note_on_c, 0, 92, 67
1, 163555, Note_on_c, 0, 74, 51
1, 163557, Note_on_c, 0, 87, 51
1, 163569, Control_c, 0, 67, 42
1, 163573, Note_off_c, 0, 83, 64
1, 163581, Note_off_c, 0, 96, 60
1, 163584, Control_c, 0, 67, 32
1, 163588, Note_off_c, 0, 74, 68
1, 163588, Note_off_c, 0, 92, 60
1, 163592, Note_off_c, 0, 87, 56
1, 163598, Control_c, 0, 67, 22
1, 163600, Note_off_c, 0, 78, 57
1, 163613, Control_c, 0, 67, 12
1, 163629, Control_c, 0, 67, 0
1, 163677, Note_on_c, 0, 95, 76
1, 163678, Note_on_c, 0, 77, 53
1, 163684, Note_on_c, 0, 81, 52
1, 163688, Note_on_c, 0, 90, 72
1, 163701, Note_on_c, 0, 86, 54
1, 163708, Note_off_c, 0, 77, 62
1, 163710, Note_off_c, 0, 95, 66
1, 163711, Note_off_c, 0, 81, 61
1, 163722, Note_off_c, 0, 86, 60
1, 163739, Note_off_c, 0, 90, 61
1, 163809, Note_on_c, 0, 93, 78
1, 163820, Note_on_c, 0, 89, 67
1, 163825, Note_on_c, 0, 80, 59
1, 163831, Note_on_c, 0, 84, 48
1, 163833, Note_on_c, 0, 71, 47
1, 163839, Note_on_c, 0, 75, 41
1, 163844, Note_off_c, 0, 80, 66
1, 163850, Note_off_c, 0, 89, 65
1, 163852, Note_off_c, 0, 93, 60
1, 163852, Note_off_c, 0, 84, 61
1, 163863, Note_off_c, 0, 71, 56
1, 163866, Note_off_c, 0, 75, 54
1, 163918, Control_c, 0, 64, 116
1, 163937, Note_on_c, 0, 92, 77
1, 163940, Note_on_c, 0, 78, 65
1, 163950, Note_on_c, 0, 69, 46
1, 163953, Note_on_c, 0, 87, 60
1, 163961, Note_on_c, 0, 74, 46
1, 163971, Note_off_c, 0, 92, 54
1, 163974, Note_off_c, 0, 78, 57
1, 163975, Note_off_c, 0, 69, 58
1, 163984, Note_off_c, 0, 87, 65
1, 164010, Note_off_c, 0, 74, 55
1, 164062, Note_on_c, 0, 90, 80
1, 164071, Note_on_c, 0, 77, 64
1, 164077, Note_on_c, 0, 72, 50
1, 164079, Note_on_c, 0, 81, 50
1, 164079, Note_on_c, 0, 86, 58
1, 164086, Note_on_c, 0, 68, 56
1, 164098, Note_off_c, 0, 77, 64
1, 164100, Note_off_c, 0, 72, 61
1, 164100, Note_off_c, 0, 81, 58
1, 164109, Note_off_c, 0, 86, 66
1, 164113, Note_off_c, 0, 90, 60
1, 164124, Note_off_c, 0, 68, 65
1, 164187, Note_on_c, 0, 89, 80
1, 164196, Note_on_c, 0, 80, 75
1, 164208, Note_on_c, 0, 75, 67
1, 164212, Note_on_c, 0, 84, 62
1, 164213, Note_on_c, 0, 66, 63
1, 164225, Note_on_c, 0, 71, 45
1, 164232, Note_off_c, 0, 80, 61
1, 164236, Note_off_c, 0, 89, 64
1, 164238, Note_off_c, 0, 75, 64
1, 164243, Note_off_c, 0, 84, 65
1, 164261, Note_off_c, 0, 66, 55
1, 164267, Note_off_c, 0, 71, 45
1, 164323, Note_on_c, 0, 87, 80
1, 164329, Note_on_c, 0, 78, 68
1, 164331, Note_on_c, 0, 74, 62
1, 164338, Note_on_c, 0, 65, 55
1, 164339, Note_on_c, 0, 83, 56
1, 164345, Note_on_c, 0, 69, 35
1, 164358, Note_off_c, 0, 74, 70
1, 164361, Note_off_c, 0, 78, 61
1, 164364, Note_off_c, 0, 65, 62
1, 164366, Note_off_c, 0, 83, 62
1, 164372, Note_off_c, 0, 87, 62
1, 164377, Note_off_c, 0, 69, 48
1, 164459, Note_on_c, 0, 77, 74
1, 164459, Note_on_c, 0, 86, 79
1, 164466, Note_on_c, 0, 63, 65
1, 164471, Note_on_c, 0, 72, 55
1, 164482, Note_off_c, 0, 86, 64
1, 164487, Note_on_c, 0, 81, 48
1, 164488, Note_off_c, 0, 77, 63
1, 164494, Note_off_c, 0, 72, 64
1, 164507, Note_off_c, 0, 81, 61
1, 164514, Note_off_c, 0, 63, 58
1, 164558, Poly_aftertouch_c, 0, 68, 0
1, 164577, Control_c, 0, 64, 117
1, 164577, Note_on_c, 0, 84, 78
1, 164586, Note_on_c, 0, 75, 70
1, 164589, Note_on_c, 0, 80, 76
1, 164591, Note_on_c, 0, 66, 56
1, 164592, Control_c, 0, 64, 118
1, 164594, Note_on_c, 0, 62, 56
1, 164596, Note_on_c, 0, 71, 53
1, 164607, Control_c, 0, 64, 119
1, 164612, Note_off_c, 0, 84, 55
1, 164617, Note_off_c, 0, 75, 64
1, 164618, Note_off_c, 0, 71, 62
1, 164622, Control_c, 0, 64, 120
1, 164631, Note_off_c, 0, 62, 62
1, 164632, Note_off_c, 0, 66, 63
1, 164635, Note_off_c, 0, 80, 61
1, 164637, Control_c, 0, 64, 121
1, 164651, Control_c, 0, 64, 122
1, 164666, Control_c, 0, 64, 123
1, 164681, Control_c, 0, 64, 124
1, 164695, Control_c, 0, 64, 125
1, 164702, Note_on_c, 0, 83, 85
1, 164708, Note_on_c, 0, 69, 65
1, 164710, Control_c, 0, 64, 125
1, 164712, Note_on_c, 0, 74, 71
1, 164713, Note_on_c, 0, 78, 80
1, 164725, Control_c, 0, 64, 127
1, 164737, Note_off_c, 0, 74, 69
1, 164738, Note_off_c, 0, 69, 69
1, 164739, Note_on_c, 0, 65, 17
1, 164740, Control_c, 0, 64, 127
1, 164744, Note_off_c, 0, 83, 58
1, 164747, Note_off_c, 0, 78, 62
1, 164780, Note_off_c, 0, 65, 43
1, 164831, Note_on_c, 0, 81, 89
1, 164838, Note_on_c, 0, 72, 76
1, 164839, Note_on_c, 0, 77, 78
1, 164840, Note_on_c, 0, 68, 74
1, 164852, Note_on_c, 0, 59, 54
1, 164854, Note_on_c, 0, 63, 55
1, 164866, Note_off_c, 0, 68, 68
1, 164867, Note_off_c, 0, 72, 66
1, 164870, Note_off_c, 0, 81, 58
1, 164886, Note_off_c, 0, 77, 60
1, 164890, Note_off_c, 0, 63, 63
1, 164900, Note_off_c, 0, 59, 58
1, 164954, Note_on_c, 0, 66, 72
1, 164956, Note_on_c, 0, 80, 89
1, 164961, Note_on_c, 0, 75, 77
1, 164962, Note_on_c, 0, 57, 63
1, 164963, Note_on_c, 0, 71, 72
1, 164975, Note_on_c, 0, 62, 52
1, 164987, Note_off_c, 0, 66, 59
1, 164989, Note_off_c, 0, 71, 65
1, 164993, Note_off_c, 0, 57, 64
1, 165003, Note_off_c, 0, 80, 65
1, 165010, Note_off_c, 0, 75, 58
1, 165022, Note_off_c, 0, 62, 52
1, 165075, Note_on_c, 0, 78, 85
1, 165079, Note_on_c, 0, 65, 75
1, 165083, Note_on_c, 0, 69, 78
1, 165083, Note_on_c, 0, 74, 76
1, 165087, Note_on_c, 0, 60, 61
1, 165099, Note_on_c, 0, 56, 64
1, 165109, Note_off_c, 0, 69, 69
1, 165111, Note_off_c, 0, 65, 64
1, 165120, Note_off_c, 0, 60, 63
1, 165130, Note_off_c, 0, 74, 63
1, 165135, Note_off_c, 0, 78, 62
1, 165146, Note_off_c, 0, 56, 61
1, 165209, Note_on_c, 0, 77, 93
1, 165216, Note_on_c, 0, 68, 91
1, 165220, Note_on_c, 0, 63, 78
1, 165224, Note_on_c, 0, 72, 78
1, 165227, Note_on_c, 0, 54, 70
1, 165236, Note_on_c, 0, 59, 61
1, 165254, Note_off_c, 0, 77, 64
1, 165258, Note_off_c, 0, 63, 54
1, 165260, Note_off_c, 0, 68, 63
1, 165273, Note_off_c, 0, 72, 60
1, 165275, Note_off_c, 0, 59, 55
1, 165301, Note_off_c, 0, 54, 54
1, 165341, Note_on_c, 0, 75, 89
1, 165343, Note_on_c, 0, 62, 78
1, 165343, Note_on_c, 0, 66, 91
1, 165350, Note_on_c, 0, 53, 68
1, 165358, Note_on_c, 0, 57, 57
1, 165361, Note_on_c, 0, 71, 57
1, 165379, Note_off_c, 0, 57, 64
1, 165379, Note_off_c, 0, 62, 58
1, 165382, Note_off_c, 0, 71, 63
1, 165388, Note_off_c, 0, 75, 63
1, 165391, Note_off_c, 0, 53, 66
1, 165391, Note_off_c, 0, 66, 62
1, 165460, Note_on_c, 0, 74, 97
1, 165464, Note_on_c, 0, 65, 92
1, 165475, Note_on_c, 0, 51, 65
1, 165476, Note_on_c, 0, 60, 70
1, 165478, Note_on_c, 0, 56, 64
1, 165497, Note_off_c, 0, 65, 62
1, 165504, Control_c, 0, 64, 119
1, 165504, Note_off_c, 0, 74, 63
1, 165507, Note_off_c, 0, 60, 64
1, 165516, Note_off_c, 0, 56, 61
1, 165518, Control_c, 0, 64, 98
1, 165522, Note_off_c, 0, 51, 59
1, 165533, Control_c, 0, 64, 79
1, 165548, Control_c, 0, 64, 45
1, 165563, Control_c, 0, 64, 0
1, 165592, Note_on_c, 0, 72, 101
1, 165593, Control_c, 0, 64, 66
1, 165594, Note_on_c, 0, 59, 82
1, 165594, Note_on_c, 0, 63, 100
1, 165595, Note_on_c, 0, 50, 79
1, 165597, Note_on_c, 0, 54, 75
1, 165603, Note_on_c, 0, 68, 86
1, 165608, Control_c, 0, 64, 79
1, 165615, Note_off_c, 0, 59, 69
1, 165623, Control_c, 0, 64, 93
1, 165638, Control_c, 0, 64, 101
1, 165639, Note_off_c, 0, 54, 61
1, 165639, Note_off_c, 0, 72, 61
1, 165643, Note_off_c, 0, 63, 62
1, 165647, Note_off_c, 0, 50, 62
1, 165652, Control_c, 0, 64, 102
1, 165667, Control_c, 0, 64, 102
1, 165672, Note_off_c, 0, 68, 63
1, 165697, Control_c, 0, 64, 101
1, 165712, Control_c, 0, 64, 95
1, 165726, Control_c, 0, 64, 82
1, 165741, Control_c, 0, 64, 64
1, 165756, Control_c, 0, 64, 0
1, 165877, Note_on_c, 0, 63, 107
1, 165877, Note_on_c, 0, 74, 92
1, 165880, Note_on_c, 0, 29, 86
1, 165882, Note_on_c, 0, 68, 91
1, 165884, Note_on_c, 0, 72, 79
1, 165889, Control_c, 0, 64, 64
1, 165905, Control_c, 0, 64, 123
1, 165919, Control_c, 0, 64, 127
1, 165925, Note_off_c, 0, 29, 59
1, 165930, Note_off_c, 0, 74, 61
1, 165934, Note_off_c, 0, 72, 61
1, 165958, Note_off_c, 0, 68, 61
1, 165983, Note_off_c, 0, 63, 59
1, 166032, Control_c, 0, 64, 109
1, 166044, Note_on_c, 0, 39, 56
1, 166044, Note_on_c, 0, 45, 56
1, 166047, Control_c, 0, 64, 88
1, 166050, Note_on_c, 0, 70, 21
1, 166062, Control_c, 0, 64, 59
1, 166071, Note_off_c, 0, 45, 57
1, 166076, Control_c, 0, 64, 0
1, 166078, Note_off_c, 0, 39, 62
1, 166084, Note_off_c, 0, 70, 41
1, 166145, Note_on_c, 0, 62, 84
1, 166145, Note_on_c, 0, 72, 76
1, 166154, Note_on_c, 0, 66, 76
1, 166160, Note_on_c, 0, 32, 57
1, 166163, Note_on_c, 0, 69, 52
1, 166172, Note_off_c, 0, 62, 62
1, 166172, Note_off_c, 0, 72, 65
1, 166184, Note_off_c, 0, 69, 62
1, 166187, Note_off_c, 0, 66, 65
1, 166199, Note_off_c, 0, 32, 64
1, 166273, Note_on_c, 0, 69, 94
1, 166280, Note_on_c, 0, 60, 90
1, 166284, Note_on_c, 0, 63, 82
1, 166284, Note_on_c, 0, 68, 80
1, 166293, Note_on_c, 0, 41, 65
1, 166296, Note_off_c, 0, 60, 68
1, 166298, Control_c, 0, 64, 94
1, 166299, Note_on_c, 0, 47, 75
1, 166313, Control_c, 0, 64, 127
1, 166321, Note_off_c, 0, 63, 62
1, 166324, Note_off_c, 0, 69, 65
1, 166335, Note_off_c, 0, 68, 67
1, 166387, Note_off_c, 0, 47, 49
1, 166387, Control_c, 0, 64, 121
1, 166402, Control_c, 0, 64, 95
1, 166403, Note_off_c, 0, 41, 35
1, 166405, Note_on_c, 0, 60, 11
1, 166417, Control_c, 0, 64, 74
1, 166431, Note_off_c, 0, 60, 28
1, 166432, Control_c, 0, 64, 0
1, 166438, Note_on_c, 0, 38, 70
1, 166468, Note_off_c, 0, 38, 63
1, 166548, Note_on_c, 0, 72, 106
1, 166549, Note_on_c, 0, 81, 95
1, 166554, Note_on_c, 0, 80, 88
1, 166556, Note_on_c, 0, 75, 91
1, 166562, Note_on_c, 0, 53, 80
1, 166565, Control_c, 0, 64, 20
1, 166567, Note_on_c, 0, 47, 75
1, 166580, Control_c, 0, 64, 109
1, 166581, Note_off_c, 0, 81, 65
1, 166583, Note_off_c, 0, 72, 66
1, 166590, Note_off_c, 0, 53, 69
1, 166595, Control_c, 0, 64, 127
1, 166601, Note_off_c, 0, 47, 62
1, 166601, Note_off_c, 0, 75, 65
1, 166606, Note_off_c, 0, 80, 63
1, 166673, Note_on_c, 0, 39, 72
1, 166706, Control_c, 0, 64, 99
1, 166721, Control_c, 0, 64, 77
1, 166723, Note_off_c, 0, 39, 63
1, 166736, Control_c, 0, 64, 0
1, 166819, Note_on_c, 0, 80, 93
1, 166822, Note_on_c, 0, 57, 77
1, 166825, Note_on_c, 0, 69, 82
1, 166831, Note_on_c, 0, 50, 48
1, 166848, Note_off_c, 0, 69, 70
1, 166855, Note_off_c, 0, 57, 64
1, 166864, Note_off_c, 0, 80, 63
1, 166894, Note_off_c, 0, 50, 54
1, 166942, Note_on_c, 0, 68, 88
1, 166942, Note_on_c, 0, 78, 95
1, 166948, Note_on_c, 0, 41, 80
1, 166950, Note_on_c, 0, 72, 72
1, 166954, Note_on_c, 0, 75, 79
1, 166959, Control_c, 0, 64, 127
1, 166959, Note_off_c, 0, 68, 75
1, 166974, Note_off_c, 0, 41, 66
1, 166974, Note_off_c, 0, 72, 69
1, 167001, Note_off_c, 0, 75, 65
1, 167013, Note_off_c, 0, 78, 64
1, 167033, Control_c, 0, 64, 115
1, 167047, Control_c, 0, 64, 85
1, 167062, Control_c, 0, 64, 51
1, 167071, Note_on_c, 0, 51, 63
1, 167075, Note_on_c, 0, 59, 61
1, 167077, Control_c, 0, 64, 0
1, 167103, Note_off_c, 0, 59, 64
1, 167153, Note_on_c, 0, 80, 54
1, 167160, Note_off_c, 0, 51, 62
1, 167165, Note_on_c, 0, 83, 41
1, 167174, Note_off_c, 0, 80, 59
1, 167180, Note_on_c, 0, 87, 72
1, 167181, Note_off_c, 0, 87, 127
1, 167190, Note_on_c, 0, 91, 95
1, 167192, Note_on_c, 0, 86, 79
1, 167192, Note_off_c, 0, 83, 64
1, 167195, Control_c, 0, 64, 116
1, 167196, Note_on_c, 0, 93, 95
1, 167197, Note_on_c, 0, 42, 82
1, 167207, Note_off_c, 0, 86, 68
1, 167210, Control_c, 0, 64, 127
1, 167215, Note_off_c, 0, 93, 68
1, 167221, Note_off_c, 0, 91, 62
1, 167224, Note_on_c, 0, 89, 32
1, 167230, Note_off_c, 0, 42, 66
1, 167254, Control_c, 0, 64, 118
1, 167257, Note_off_c, 0, 89, 33
1, 167269, Control_c, 0, 64, 94
1, 167284, Control_c, 0, 64, 73
1, 167299, Control_c, 0, 64, 0
1, 167330, Note_on_c, 0, 60, 75
1, 167332, Note_on_c, 0, 53, 56
1, 167368, Note_off_c, 0, 60, 60
1, 167409, Note_off_c, 0, 53, 57
1, 167456, Note_on_c, 0, 75, 102
1, 167456, Note_on_c, 0, 86, 95
1, 167460, Note_on_c, 0, 78, 87
1, 167463, Note_on_c, 0, 80, 88
1, 167466, Note_on_c, 0, 45, 83
1, 167469, Control_c, 0, 64, 69
1, 167471, Note_on_c, 0, 84, 73
1, 167484, Control_c, 0, 64, 127
1, 167493, Note_off_c, 0, 45, 69
1, 167588, Control_c, 0, 64, 124
1, 167590, Note_on_c, 0, 62, 78
1, 167599, Note_on_c, 0, 54, 66
1, 167603, Control_c, 0, 64, 113
1, 167618, Control_c, 0, 64, 103
1, 167624, Note_off_c, 0, 62, 57
1, 167633, Control_c, 0, 64, 96
1, 167636, Note_off_c, 0, 54, 62
1, 167648, Control_c, 0, 64, 91
1, 167663, Control_c, 0, 64, 86
1, 167678, Control_c, 0, 64, 83
1, 167692, Control_c, 0, 64, 79
1, 167703, Note_on_c, 0, 48, 78
1, 167707, Control_c, 0, 64, 74
1, 167722, Control_c, 0, 64, 68
1, 167737, Control_c, 0, 64, 61
1, 167740, Note_off_c, 0, 48, 58
1, 167747, Note_on_c, 0, 50, 31
1, 167752, Control_c, 0, 64, 0
1, 167785, Note_off_c, 0, 50, 33
1, 167830, Note_on_c, 0, 63, 87
1, 167836, Note_on_c, 0, 57, 76
1, 167865, Note_off_c, 0, 57, 66
1, 167871, Note_off_c, 0, 63, 64
1, 167953, Note_on_c, 0, 51, 80
1, 168011, Note_off_c, 0, 51, 61
1, 168077, Note_on_c, 0, 65, 84
1, 168078, Note_on_c, 0, 59, 75
1, 168098, Note_off_c, 0, 86, 59
1, 168107, Control_c, 0, 64, 61
1, 168109, Note_off_c, 0, 84, 45
1, 168111, Note_off_c, 0, 59, 66
1, 168114, Note_off_c, 0, 80, 61
1, 168115, Note_off_c, 0, 65, 64
1, 168116, Note_off_c, 0, 78, 56
1, 168122, Control_c, 0, 64, 81
1, 168137, Control_c, 0, 64, 84
1, 168166, Control_c, 0, 64, 84
1, 168181, Note_off_c, 0, 75, 57
1, 168202, Control_c, 0, 64, 82
1, 168205, Note_on_c, 0, 54, 71
1, 168217, Control_c, 0, 64, 79
1, 168232, Control_c, 0, 64, 71
1, 168247, Note_off_c, 0, 54, 61
1, 168247, Control_c, 0, 64, 40
1, 168262, Control_c, 0, 64, 0
1, 168328, Note_on_c, 0, 71, 81
1, 168329, Note_on_c, 0, 62, 74
1, 168348, Note_off_c, 0, 71, 70
1, 168367, Note_off_c, 0, 62, 63
1, 168465, Note_on_c, 0, 81, 98
1, 168466, Note_on_c, 0, 72, 103
1, 168470, Note_on_c, 0, 80, 86
1, 168470, Control_c, 0, 64, 69
1, 168473, Note_on_c, 0, 75, 90
1, 168475, Note_on_c, 0, 38, 86
1, 168485, Control_c, 0, 64, 127
1, 168503, Note_off_c, 0, 81, 61
1, 168507, Note_off_c, 0, 72, 63
1, 168527, Note_off_c, 0, 80, 63
1, 168530, Note_off_c, 0, 75, 64
1, 168534, Note_off_c, 0, 38, 61
1, 168601, Note_on_c, 0, 45, 59
1, 168614, Note_on_c, 0, 51, 70
1, 168634, Note_off_c, 0, 45, 63
1, 168657, Note_off_c, 0, 51, 59
1, 168708, Control_c, 0, 64, 111
1, 168723, Control_c, 0, 64, 88
1, 168724, Note_on_c, 0, 78, 100
1, 168727, Note_on_c, 0, 68, 103
1, 168730, Note_on_c, 0, 72, 85
1, 168734, Note_on_c, 0, 75, 79
1, 168735, Note_on_c, 0, 41, 64
1, 168737, Control_c, 0, 64, 66
1, 168751, Note_on_c, 0, 40, 58
1, 168752, Control_c, 0, 64, 0
1, 168781, Note_off_c, 0, 41, 65
1, 168781, Note_off_c, 0, 40, 58
1, 168782, Control_c, 0, 64, 65
1, 168797, Control_c, 0, 64, 74
1, 168807, Note_off_c, 0, 78, 63
1, 168811, Control_c, 0, 64, 85
1, 168826, Control_c, 0, 64, 93
1, 168829, Note_off_c, 0, 72, 58
1, 168830, Note_off_c, 0, 75, 59
1, 168837, Note_off_c, 0, 68, 61
1, 168841, Control_c, 0, 64, 96
1, 168856, Control_c, 0, 64, 96
1, 168878, Note_on_c, 0, 48, 55
1, 168882, Note_on_c, 0, 54, 77
1, 168905, Note_off_c, 0, 48, 64
1, 168925, Note_off_c, 0, 54, 61
1, 168995, Note_on_c, 0, 44, 80
1, 169027, Control_c, 0, 64, 96
1, 169042, Control_c, 0, 64, 91
1, 169057, Control_c, 0, 64, 73
1, 169061, Note_off_c, 0, 44, 62
1, 169071, Control_c, 0, 64, 0
1, 169117, Note_on_c, 0, 74, 97
1, 169118, Note_on_c, 0, 63, 104
1, 169125, Note_on_c, 0, 53, 74
1, 169126, Note_on_c, 0, 72, 74
1, 169126, Note_on_c, 0, 68, 85
1, 169127, Note_on_c, 0, 59, 83
1, 169151, Note_off_c, 0, 72, 67
1, 169160, Control_c, 0, 64, 63
1, 169162, Note_off_c, 0, 53, 68
1, 169168, Note_off_c, 0, 63, 63
1, 169170, Note_off_c, 0, 59, 60
1, 169174, Note_off_c, 0, 74, 65
1, 169175, Control_c, 0, 64, 81
1, 169189, Control_c, 0, 64, 89
1, 169201, Note_off_c, 0, 68, 62
1, 169204, Control_c, 0, 64, 91
1, 169255, Note_on_c, 0, 48, 83
1, 169280, Control_c, 0, 64, 91
1, 169292, Note_off_c, 0, 48, 61
1, 169294, Control_c, 0, 64, 92
1, 169339, Control_c, 0, 64, 90
1, 169354, Control_c, 0, 64, 79
1, 169368, Control_c, 0, 64, 60
1, 169378, Note_on_c, 0, 77, 95
1, 169379, Note_on_c, 0, 66, 106
1, 169383, Note_on_c, 0, 68, 94
1, 169383, Control_c, 0, 64, 0
1, 169386, Note_on_c, 0, 72, 83
1, 169392, Note_on_c, 0, 63, 85
1, 169395, Note_on_c, 0, 57, 65
1, 169412, Note_on_c, 0, 74, 48
1, 169423, Note_off_c, 0, 66, 68
1, 169428, Control_c, 0, 64, 60
1, 169435, Note_off_c, 0, 74, 60
1, 169435, Note_off_c, 0, 77, 65
1, 169439, Note_off_c, 0, 63, 63
1, 169442, Control_c, 0, 64, 73
1, 169444, Note_off_c, 0, 72, 67
1, 169445, Note_off_c, 0, 68, 65
1, 169457, Control_c, 0, 64, 80
1, 169472, Control_c, 0, 64, 85
1, 169487, Control_c, 0, 64, 86
1, 169505, Note_off_c, 0, 57, 49
1, 169520, Note_on_c, 0, 51, 75
1, 169547, Control_c, 0, 64, 86
1, 169554, Note_off_c, 0, 51, 64
1, 169636, Control_c, 0, 64, 87
1, 169656, Note_on_c, 0, 69, 88
1, 169657, Note_on_c, 0, 62, 78
1, 169665, Control_c, 0, 64, 88
1, 169680, Control_c, 0, 64, 88
1, 169701, Note_off_c, 0, 62, 60
1, 169702, Control_c, 0, 64, 89
1, 169715, Note_off_c, 0, 69, 63
1, 169717, Control_c, 0, 64, 89
1, 169731, Control_c, 0, 64, 90
1, 169746, Control_c, 0, 64, 90
1, 169761, Control_c, 0, 64, 91
1, 169776, Control_c, 0, 64, 93
1, 169791, Control_c, 0, 64, 97
1, 169806, Control_c, 0, 64, 102
1, 169820, Control_c, 0, 64, 108
1, 169835, Control_c, 0, 64, 109
1, 169865, Control_c, 0, 64, 109
1, 169880, Control_c, 0, 64, 100
1, 169894, Control_c, 0, 64, 85
1, 169904, Note_on_c, 0, 70, 117
1, 169904, Note_on_c, 0, 82, 97
1, 169908, Note_on_c, 0, 73, 91
1, 169909, Control_c, 0, 64, 67
1, 169910, Note_on_c, 0, 68, 93
1, 169911, Note_on_c, 0, 76, 87
1, 169912, Note_on_c, 0, 64, 80
1, 169920, Note_on_c, 0, 56, 73
1, 169924, Control_c, 0, 64, 0
1, 169928, Note_on_c, 0, 59, 61
1, 169939, Control_c, 0, 64, 56
1, 169954, Control_c, 0, 64, 68
1, 169958, Note_off_c, 0, 76, 67
1, 169960, Note_off_c, 0, 59, 64
1, 169963, Note_off_c, 0, 82, 66
1, 169964, Note_off_c, 0, 64, 63
1, 169968, Control_c, 0, 64, 75
1, 169970, Note_off_c, 0, 68, 56
1, 169983, Control_c, 0, 64, 83
1, 169990, Note_off_c, 0, 56, 63
1, 169994, Note_off_c, 0, 73, 61
1, 169998, Control_c, 0, 64, 87
1, 170000, Note_off_c, 0, 70, 54
1, 170014, Control_c, 0, 64, 89
1, 170029, Control_c, 0, 64, 91
1, 170044, Control_c, 0, 64, 94
1, 170059, Control_c, 0, 64, 99
1, 170073, Control_c, 0, 64, 101
1, 170103, Control_c, 0, 64, 99
1, 170117, Control_c, 0, 64, 84
1, 170132, Control_c, 0, 64, 64
1, 170146, Note_on_c, 0, 67, 93
1, 170146, Note_on_c, 0, 68, 105
1, 170147, Note_on_c, 0, 80, 101
1, 170147, Control_c, 0, 64, 0
1, 170151, Note_on_c, 0, 71, 83
1, 170152, Note_on_c, 0, 74, 84
1, 170153, Note_on_c, 0, 55, 80
1, 170153, Note_on_c, 0, 62, 74
1, 170155, Note_on_c, 0, 58, 71
1, 170177, Control_c, 0, 64, 69
1, 170179, Note_off_c, 0, 62, 66
1, 170183, Note_off_c, 0, 58, 67
1, 170191, Control_c, 0, 64, 80
1, 170197, Note_off_c, 0, 67, 60
1, 170206, Control_c, 0, 64, 95
1, 170218, Note_off_c, 0, 55, 61
1, 170219, Note_off_c, 0, 80, 67
1, 170221, Control_c, 0, 64, 101
1, 170226, Note_off_c, 0, 74, 55
1, 170235, Control_c, 0, 64, 103
1, 170238, Note_off_c, 0, 71, 54
1, 170250, Control_c, 0, 64, 107
1, 170265, Control_c, 0, 64, 113
1, 170280, Note_off_c, 0, 68, 61
1, 170280, Control_c, 0, 64, 119
1, 170295, Control_c, 0, 64, 123
1, 170310, Control_c, 0, 64, 123
1, 170325, Control_c, 0, 64, 122
1, 170340, Control_c, 0, 64, 110
1, 170354, Control_c, 0, 64, 86
1, 170363, Note_on_c, 0, 67, 115
1, 170363, Note_on_c, 0, 79, 108
1, 170364, Note_on_c, 0, 61, 103
1, 170365, Note_on_c, 0, 65, 107
1, 170367, Note_on_c, 0, 53, 93
1, 170368, Note_on_c, 0, 70, 98
1, 170369, Note_on_c, 0, 73, 92
1, 170369, Control_c, 0, 64, 25
1, 170372, Note_on_c, 0, 56, 84
1, 170384, Control_c, 0, 64, 0
1, 170399, Note_on_c, 0, 76, 43
1, 170426, Note_off_c, 0, 76, 54
1, 170495, Control_c, 0, 64, 62
1, 170500, Note_off_c, 0, 67, 55
1, 170510, Control_c, 0, 64, 79
1, 170524, Control_c, 0, 64, 93
1, 170530, Note_off_c, 0, 53, 57
1, 170539, Control_c, 0, 64, 106
1, 170543, Note_off_c, 0, 79, 48
1, 170554, Control_c, 0, 64, 107
1, 170563, Note_off_c, 0, 70, 55
1, 170567, Note_off_c, 0, 65, 53
1, 170579, Note_off_c, 0, 56, 56
1, 170599, Control_c, 0, 64, 108
1, 170607, Note_off_c, 0, 61, 53
1, 170620, Note_off_c, 0, 73, 58
1, 170629, Control_c, 0, 64, 108
1, 170688, Control_c, 0, 64, 109
1, 170732, Control_c, 0, 64, 109
1, 170747, Control_c, 0, 64, 110
1, 170762, Control_c, 0, 64, 111
1, 170777, Control_c, 0, 64, 115
1, 170791, Control_c, 0, 64, 121
1, 170806, Control_c, 0, 64, 127
1, 170926, Control_c, 0, 67, 14
1, 170940, Control_c, 0, 67, 27
1, 170955, Control_c, 0, 67, 38
1, 170970, Control_c, 0, 67, 40
1, 170985, Control_c, 0, 67, 41
1, 171000, Control_c, 0, 67, 41
1, 171014, Control_c, 0, 67, 42
1, 171029, Control_c, 0, 67, 43
1, 171044, Control_c, 0, 67, 44
1, 171058, Control_c, 0, 67, 47
1, 171073, Control_c, 0, 67, 50
1, 171088, Control_c, 0, 67, 51
1, 171103, Control_c, 0, 67, 52
1, 171118, Control_c, 0, 67, 54
1, 171132, Control_c, 0, 67, 56
1, 171147, Control_c, 0, 67, 57
1, 171177, Control_c, 0, 67, 56
1, 171214, Control_c, 0, 67, 56
1, 171243, Note_on_c, 0, 103, 72
1, 171244, Note_on_c, 0, 80, 48
1, 171244, Note_on_c, 0, 89, 49
1, 171252, Note_on_c, 0, 85, 44
1, 171255, Note_on_c, 0, 94, 60
1, 171255, Note_on_c, 0, 98, 60
1, 171269, Note_off_c, 0, 89, 55
1, 171278, Note_off_c, 0, 85, 61
1, 171284, Note_off_c, 0, 80, 47
1, 171288, Control_c, 0, 67, 55
1, 171291, Note_off_c, 0, 98, 65
1, 171293, Note_off_c, 0, 94, 63
1, 171297, Note_off_c, 0, 103, 62
1, 171303, Control_c, 0, 67, 55
1, 171318, Control_c, 0, 67, 54
1, 171333, Control_c, 0, 67, 53
1, 171347, Control_c, 0, 67, 52
1, 171362, Control_c, 0, 67, 51
1, 171377, Control_c, 0, 67, 50
1, 171389, Note_on_c, 0, 101, 67
1, 171391, Note_on_c, 0, 97, 67
1, 171392, Control_c, 0, 67, 49
1, 171402, Note_on_c, 0, 92, 50
1, 171407, Control_c, 0, 67, 49
1, 171409, Note_on_c, 0, 88, 36
1, 171424, Note_on_c, 0, 79, 18
1, 171424, Note_off_c, 0, 101, 63
1, 171425, Note_off_c, 0, 92, 59
1, 171431, Note_off_c, 0, 97, 60
1, 171436, Control_c, 0, 67, 48
1, 171438, Note_off_c, 0, 88, 43
1, 171451, Control_c, 0, 67, 47
1, 171464, Note_off_c, 0, 79, 37
1, 171466, Control_c, 0, 67, 45
1, 171481, Control_c, 0, 67, 44
1, 171490, Poly_aftertouch_c, 0, 83, 0
1, 171496, Control_c, 0, 67, 40
1, 171504, Note_on_c, 0, 100, 76
1, 171511, Control_c, 0, 67, 36
1, 171517, Note_on_c, 0, 91, 63
1, 171526, Control_c, 0, 67, 31
1, 171526, Note_on_c, 0, 86, 47
1, 171527, Note_on_c, 0, 82, 53
1, 171540, Control_c, 0, 67, 26
1, 171544, Note_off_c, 0, 91, 54
1, 171545, Note_on_c, 0, 77, 7
1, 171550, Note_off_c, 0, 86, 56
1, 171550, Note_off_c, 0, 100, 62
1, 171551, Note_off_c, 0, 82, 63
1, 171555, Control_c, 0, 67, 19
1, 171570, Control_c, 0, 67, 12
1, 171571, Note_off_c, 0, 77, 43
1, 171585, Control_c, 0, 67, 0
1, 171637, Note_on_c, 0, 98, 80
1, 171651, Note_on_c, 0, 94, 64
1, 171654, Note_on_c, 0, 89, 54
1, 171667, Note_on_c, 0, 76, 52
1, 171669, Note_on_c, 0, 85, 46
1, 171680, Note_off_c, 0, 98, 59
1, 171681, Note_off_c, 0, 94, 66
1, 171681, Note_off_c, 0, 89, 58
1, 171690, Note_off_c, 0, 85, 57
1, 171696, Note_off_c, 0, 76, 58
1, 171767, Note_on_c, 0, 97, 75
1, 171779, Note_on_c, 0, 74, 41
1, 171780, Note_on_c, 0, 88, 56
1, 171786, Note_on_c, 0, 92, 58
1, 171787, Note_on_c, 0, 79, 50
1, 171795, Note_on_c, 0, 83, 36
1, 171803, Note_off_c, 0, 74, 58
1, 171804, Note_off_c, 0, 97, 56
1, 171806, Note_off_c, 0, 88, 57
1, 171818, Note_off_c, 0, 92, 67
1, 171825, Note_off_c, 0, 83, 44
1, 171863, Note_off_c, 0, 79, 56
1, 171890, Note_on_c, 0, 95, 83
1, 171901, Note_on_c, 0, 86, 62
1, 171904, Note_on_c, 0, 91, 63
1, 171911, Note_on_c, 0, 82, 52
1, 171913, Note_on_c, 0, 73, 62
1, 171923, Note_on_c, 0, 77, 4
1, 171939, Note_off_c, 0, 86, 66
1, 171939, Note_off_c, 0, 95, 59
1, 171940, Note_off_c, 0, 82, 63
1, 171943, Note_off_c, 0, 91, 61
1, 171959, Note_off_c, 0, 73, 62
1, 171988, Note_off_c, 0, 77, 26
1, 172030, Note_on_c, 0, 94, 83
1, 172038, Note_on_c, 0, 84, 50
1, 172039, Poly_aftertouch_c, 0, 85, 127
1, 172039, Note_on_c, 0, 86, 48
1, 172045, Note_on_c, 0, 80, 68
1, 172058, Note_off_c, 0, 94, 59
1, 172060, Note_off_c, 0, 84, 59
1, 172062, Note_off_c, 0, 86, 55
1, 172063, Note_on_c, 0, 71, 49
1, 172065, Note_on_c, 0, 76, 48
1, 172073, Poly_aftertouch_c, 0, 85, 0
1, 172082, Note_off_c, 0, 80, 56
1, 172107, Note_off_c, 0, 71, 59
1, 172110, Note_off_c, 0, 76, 56
1, 172155, Note_on_c, 0, 92, 83
1, 172161, Note_on_c, 0, 83, 69
1, 172171, Note_on_c, 0, 79, 63
1, 172178, Note_on_c, 0, 74, 40
1, 172183, Note_on_c, 0, 70, 61
1, 172186, Note_off_c, 0, 83, 64
1, 172197, Note_on_c, 0, 88, 21
1, 172201, Note_off_c, 0, 79, 65
1, 172204, Note_off_c, 0, 74, 53
1, 172204, Note_off_c, 0, 92, 63
1, 172217, Note_off_c, 0, 70, 62
1, 172235, Note_off_c, 0, 88, 30
1, 172280, Note_on_c, 0, 91, 81
1, 172287, Note_on_c, 0, 82, 75
1, 172299, Note_on_c, 0, 73, 56
1, 172304, Note_on_c, 0, 68, 55
1, 172307, Note_on_c, 0, 86, 59
1, 172318, Note_on_c, 0, 77, 31
1, 172318, Note_off_c, 0, 82, 62
1, 172318, Note_off_c, 0, 91, 53
1, 172332, Note_off_c, 0, 73, 62
1, 172334, Note_off_c, 0, 86, 65
1, 172344, Note_off_c, 0, 68, 64
1, 172355, Note_off_c, 0, 77, 39
1, 172413, Note_on_c, 0, 89, 82
1, 172420, Note_on_c, 0, 67, 57
1, 172421, Note_on_c, 0, 80, 70
1, 172423, Note_on_c, 0, 85, 74
1, 172427, Note_on_c, 0, 76, 50
1, 172438, Note_on_c, 0, 71, 42
1, 172447, Note_off_c, 0, 76, 63
1, 172448, Note_off_c, 0, 80, 65
1, 172449, Note_off_c, 0, 89, 58
1, 172462, Note_off_c, 0, 85, 58
1, 172471, Note_off_c, 0, 67, 60
1, 172479, Note_off_c, 0, 71, 47
1, 172537, Note_on_c, 0, 88, 84
1, 172543, Note_on_c, 0, 79, 75
1, 172544, Note_on_c, 0, 83, 70
1, 172560, Note_on_c, 0, 74, 48
1, 172560, Note_on_c, 0, 70, 49
1, 172566, Note_off_c, 0, 79, 68
1, 172569, Note_on_c, 0, 65, 38
1, 172579, Note_off_c, 0, 88, 60
1, 172581, Note_off_c, 0, 74, 61
1, 172582, Note_off_c, 0, 70, 59
1, 172582, Note_off_c, 0, 83, 58
1, 172598, Note_off_c, 0, 65, 54
1, 172660, Note_on_c, 0, 86, 90
1, 172668, Note_on_c, 0, 77, 76
1, 172668, Note_on_c, 0, 82, 81
1, 172677, Note_on_c, 0, 73, 67
1, 172680, Note_on_c, 0, 64, 58
1, 172700, Note_on_c, 0, 68, 51
1, 172702, Note_off_c, 0, 77, 65
1, 172708, Note_off_c, 0, 86, 64
1, 172716, Note_off_c, 0, 73, 61
1, 172724, Note_off_c, 0, 82, 63
1, 172725, Note_off_c, 0, 68, 61
1, 172748, Note_off_c, 0, 64, 60
1, 172789, Note_on_c, 0, 85, 88
1, 172793, Note_on_c, 0, 76, 77
1, 172796, Note_on_c, 0, 80, 80
1, 172799, Note_on_c, 0, 71, 66
1, 172805, Note_on_c, 0, 67, 63
1, 172806, Note_on_c, 0, 62, 41
1, 172820, Note_off_c, 0, 76, 65
1, 172826, Note_off_c, 0, 71, 65
1, 172835, Note_off_c, 0, 85, 65
1, 172838, Note_off_c, 0, 62, 47
1, 172845, Note_off_c, 0, 80, 62
1, 172886, Note_off_c, 0, 67, 57
1, 172909, Note_on_c, 0, 83, 89
1, 172918, Note_on_c, 0, 74, 66
1, 172921, Note_on_c, 0, 70, 71
1, 172922, Note_on_c, 0, 79, 70
1, 172926, Note_on_c, 0, 61, 69
1, 172927, Note_on_c, 0, 65, 42
1, 172942, Note_off_c, 0, 74, 70
1, 172943, Note_off_c, 0, 83, 56
1, 172952, Note_off_c, 0, 70, 65
1, 172954, Note_off_c, 0, 79, 62
1, 172957, Note_off_c, 0, 65, 52
1, 172972, Note_off_c, 0, 61, 61
1, 173029, Note_on_c, 0, 82, 90
1, 173033, Note_on_c, 0, 73, 86
1, 173041, Note_on_c, 0, 68, 74
1, 173043, Note_on_c, 0, 77, 66
1, 173048, Note_on_c, 0, 64, 65
1, 173051, Note_on_c, 0, 59, 65
1, 173052, Control_c, 0, 64, 116
1, 173056, Note_off_c, 0, 73, 65
1, 173067, Control_c, 0, 64, 94
1, 173075, Note_off_c, 0, 77, 62
1, 173076, Note_off_c, 0, 82, 64
1, 173082, Control_c, 0, 64, 69
1, 173084, Note_off_c, 0, 68, 62
1, 173097, Control_c, 0, 64, 0
1, 173102, Note_off_c, 0, 59, 56
1, 173109, Note_off_c, 0, 64, 50
1, 173151, Note_on_c, 0, 80, 95
1, 173156, Control_c, 0, 64, 65
1, 173159, Note_on_c, 0, 71, 78
1, 173162, Note_on_c, 0, 67, 69
1, 173165, Note_on_c, 0, 58, 70
1, 173170, Note_on_c, 0, 76, 62
1, 173171, Control_c, 0, 64, 72
1, 173180, Note_off_c, 0, 71, 69
1, 173186, Control_c, 0, 64, 80
1, 173189, Note_off_c, 0, 67, 65
1, 173195, Note_off_c, 0, 76, 71
1, 173201, Control_c, 0, 64, 87
1, 173202, Note_off_c, 0, 80, 64
1, 173206, Note_off_c, 0, 58, 63
1, 173216, Control_c, 0, 64, 91
1, 173231, Control_c, 0, 64, 94
1, 173246, Control_c, 0, 64, 97
1, 173261, Control_c, 0, 64, 100
1, 173272, Note_on_c, 0, 79, 96
1, 173276, Control_c, 0, 64, 103
1, 173278, Note_on_c, 0, 70, 89
1, 173281, Note_on_c, 0, 61, 67
1, 173284, Note_on_c, 0, 56, 64
1, 173285, Note_on_c, 0, 65, 62
1, 173288, Note_on_c, 0, 74, 69
1, 173291, Control_c, 0, 64, 106
1, 173306, Control_c, 0, 64, 110
1, 173307, Note_off_c, 0, 65, 68
1, 173312, Note_off_c, 0, 61, 64
1, 173312, Note_off_c, 0, 79, 64
1, 173312, Note_off_c, 0, 70, 58
1, 173319, Note_off_c, 0, 74, 62
1, 173320, Control_c, 0, 64, 118
1, 173322, Note_off_c, 0, 56, 62
1, 173335, Control_c, 0, 64, 127
1, 173392, Note_on_c, 0, 77, 93
1, 173394, Note_on_c, 0, 64, 68
1, 173395, Note_on_c, 0, 68, 93
1, 173398, Note_on_c, 0, 55, 64
1, 173398, Note_on_c, 0, 59, 63
1, 173404, Note_on_c, 0, 73, 79
1, 173422, Note_off_c, 0, 64, 67
1, 173437, Note_off_c, 0, 77, 66
1, 173440, Note_off_c, 0, 59, 61
1, 173443, Note_off_c, 0, 55, 65
1, 173449, Note_off_c, 0, 68, 61
1, 173458, Note_off_c, 0, 73, 63
1, 173516, Note_on_c, 0, 62, 75
1, 173517, Note_on_c, 0, 76, 97
1, 173518, Note_on_c, 0, 53, 68
1, 173518, Note_on_c, 0, 67, 91
1, 173530, Note_on_c, 0, 58, 66
1, 173533, Note_on_c, 0, 72, 65
1, 173544, Note_off_c, 0, 62, 65
1, 173544, Note_off_c, 0, 67, 64
1, 173552, Note_off_c, 0, 72, 64
1, 173552, Note_off_c, 0, 76, 68
1, 173553, Note_off_c, 0, 53, 63
1, 173556, Note_on_c, 0, 71, 40
1, 173558, Note_off_c, 0, 58, 68
1, 173580, Control_c, 0, 64, 109
1, 173587, Note_off_c, 0, 71, 34
1, 173595, Control_c, 0, 64, 87
1, 173609, Control_c, 0, 64, 70
1, 173624, Control_c, 0, 64, 63
1, 173636, Note_on_c, 0, 61, 88
1, 173637, Note_on_c, 0, 65, 102
1, 173637, Note_on_c, 0, 74, 99
1, 173639, Control_c, 0, 64, 72
1, 173642, Note_on_c, 0, 70, 91
1, 173646, Note_on_c, 0, 56, 66
1, 173648, Note_on_c, 0, 52, 70
1, 173654, Note_off_c, 0, 65, 77
1, 173654, Control_c, 0, 64, 82
1, 173657, Note_off_c, 0, 61, 68
1, 173666, Note_on_c, 0, 76, 43
1, 173667, Note_off_c, 0, 76, 127
1, 173668, Control_c, 0, 64, 95
1, 173675, Note_off_c, 0, 56, 65
1, 173681, Note_off_c, 0, 74, 68
1, 173683, Control_c, 0, 64, 105
1, 173686, Note_off_c, 0, 70, 60
1, 173687, Note_off_c, 0, 52, 65
1, 173698, Control_c, 0, 64, 111
1, 173713, Control_c, 0, 64, 113
1, 173728, Control_c, 0, 64, 113
1, 173757, Control_c, 0, 64, 114
1, 173816, Control_c, 0, 64, 113
1, 173831, Control_c, 0, 64, 100
1, 173846, Control_c, 0, 64, 81
1, 173860, Control_c, 0, 64, 0
1, 173934, Note_on_c, 0, 87, 111
1, 173935, Note_on_c, 0, 30, 87
1, 173938, Note_on_c, 0, 78, 107
1, 173941, Note_on_c, 0, 82, 83
1, 173941, Note_on_c, 0, 85, 83
1, 173949, Control_c, 0, 64, 67
1, 173964, Control_c, 0, 64, 100
1, 173979, Control_c, 0, 64, 127
1, 173980, Note_off_c, 0, 87, 59
1, 173985, Note_off_c, 0, 85, 61
1, 173985, Note_off_c, 0, 78, 61
1, 173986, Note_off_c, 0, 82, 57
1, 174006, Note_off_c, 0, 30, 62
1, 174069, Control_c, 0, 64, 117
1, 174079, Note_on_c, 0, 39, 65
1, 174083, Note_on_c, 0, 45, 61
1, 174084, Control_c, 0, 64, 96
1, 174098, Control_c, 0, 64, 75
1, 174113, Control_c, 0, 64, 0
1, 174116, Note_off_c, 0, 39, 62
1, 174125, Note_off_c, 0, 45, 64
1, 174208, Note_on_c, 0, 85, 85
1, 174215, Note_on_c, 0, 75, 84
1, 174224, Note_on_c, 0, 78, 72
1, 174226, Note_on_c, 0, 34, 61
1, 174236, Note_on_c, 0, 84, 44
1, 174237, Note_off_c, 0, 75, 66
1, 174248, Note_off_c, 0, 78, 66
1, 174254, Note_off_c, 0, 85, 64
1, 174262, Note_off_c, 0, 84, 37
1, 174272, Note_off_c, 0, 34, 62
1, 174335, Note_on_c, 0, 73, 104
1, 174337, Note_on_c, 0, 82, 93
1, 174342, Note_on_c, 0, 81, 87
1, 174345, Note_on_c, 0, 42, 82
1, 174349, Note_on_c, 0, 48, 80
1, 174349, Note_on_c, 0, 78, 80
1, 174357, Control_c, 0, 64, 71
1, 174362, Note_off_c, 0, 73, 63
1, 174372, Control_c, 0, 64, 127
1, 174387, Note_off_c, 0, 48, 64
1, 174388, Note_off_c, 0, 81, 62
1, 174389, Note_off_c, 0, 42, 61
1, 174394, Note_off_c, 0, 78, 59
1, 174400, Note_off_c, 0, 82, 65
1, 174431, Control_c, 0, 64, 125
1, 174446, Control_c, 0, 64, 99
1, 174461, Control_c, 0, 64, 78
1, 174476, Control_c, 0, 64, 0
1, 174486, Note_on_c, 0, 37, 60
1, 174534, Note_off_c, 0, 37, 63
1, 174597, Note_on_c, 0, 87, 107
1, 174602, Note_on_c, 0, 78, 109
1, 174604, Note_on_c, 0, 82, 90
1, 174605, Note_on_c, 0, 85, 87
1, 174605, Note_on_c, 0, 46, 84
1, 174608, Note_on_c, 0, 51, 80
1, 174608, Control_c, 0, 64, 71
1, 174623, Control_c, 0, 64, 127
1, 174640, Note_off_c, 0, 46, 65
1, 174644, Note_off_c, 0, 51, 63
1, 174644, Note_off_c, 0, 87, 60
1, 174646, Note_off_c, 0, 85, 60
1, 174649, Note_off_c, 0, 78, 59
1, 174654, Note_off_c, 0, 82, 61
1, 174683, Control_c, 0, 64, 126
1, 174698, Control_c, 0, 64, 93
1, 174713, Control_c, 0, 64, 71
1, 174727, Control_c, 0, 64, 0
1, 174731, Note_on_c, 0, 42, 70
1, 174783, Note_off_c, 0, 42, 57
1, 174851, Note_on_c, 0, 85, 86
1, 174853, Note_on_c, 0, 51, 68
1, 174856, Note_on_c, 0, 57, 69
1, 174859, Note_on_c, 0, 75, 86
1, 174873, Note_on_c, 0, 78, 70
1, 174876, Control_c, 0, 64, 66
1, 174886, Note_off_c, 0, 75, 62
1, 174889, Note_off_c, 0, 51, 62
1, 174891, Control_c, 0, 64, 82
1, 174894, Note_off_c, 0, 57, 60
1, 174899, Note_off_c, 0, 78, 65
1, 174899, Note_off_c, 0, 85, 64
1, 174905, Control_c, 0, 64, 79
1, 174909, Note_on_c, 0, 82, 8
1, 174920, Control_c, 0, 64, 54
1, 174939, Poly_aftertouch_c, 0, 84, 0
1, 174940, Note_off_c, 0, 82, 50
1, 174942, Control_c, 0, 64, 0
1, 174979, Note_on_c, 0, 82, 80
1, 174982, Note_on_c, 0, 73, 98
1, 174984, Note_on_c, 0, 48, 80
1, 174987, Note_on_c, 0, 81, 86
1, 174996, Note_on_c, 0, 78, 79
1, 175012, Note_off_c, 0, 48, 67
1, 175014, Note_off_c, 0, 73, 63
1, 175031, Control_c, 0, 64, 63
1, 175038, Note_off_c, 0, 81, 62
1, 175039, Note_off_c, 0, 78, 63
1, 175046, Control_c, 0, 64, 115
1, 175053, Note_off_c, 0, 82, 63
1, 175061, Control_c, 0, 64, 127
1, 175103, Note_on_c, 0, 54, 81
1, 175105, Note_on_c, 0, 61, 78
1, 175106, Control_c, 0, 64, 120
1, 175120, Control_c, 0, 64, 93
1, 175127, Note_off_c, 0, 61, 69
1, 175132, Note_off_c, 0, 54, 64
1, 175135, Control_c, 0, 64, 66
1, 175150, Control_c, 0, 64, 0
1, 175238, Control_c, 0, 64, 23
1, 175249, Note_on_c, 0, 88, 105
1, 175249, Note_on_c, 0, 77, 107
1, 175249, Note_on_c, 0, 85, 86
1, 175252, Note_on_c, 0, 80, 98
1, 175253, Control_c, 0, 64, 106
1, 175264, Note_off_c, 0, 88, 73
1, 175266, Note_off_c, 0, 77, 70
1, 175268, Control_c, 0, 64, 127
1, 175269, Note_on_c, 0, 25, 82
1, 175285, Note_off_c, 0, 85, 68
1, 175288, Note_off_c, 0, 80, 68
1, 175327, Control_c, 0, 64, 109
1, 175337, Note_off_c, 0, 25, 63
1, 175342, Control_c, 0, 64, 86
1, 175357, Control_c, 0, 64, 58
1, 175372, Control_c, 0, 64, 0
1, 175392, Note_on_c, 0, 32, 64
1, 175397, Note_on_c, 0, 38, 57
1, 175431, Note_off_c, 0, 32, 64
1, 175440, Note_off_c, 0, 38, 63
1, 175491, Control_c, 0, 64, 54
1, 175493, Note_on_c, 0, 80, 104
1, 175497, Note_on_c, 0, 70, 107
1, 175499, Note_on_c, 0, 73, 95
1, 175500, Note_on_c, 0, 77, 91
1, 175505, Control_c, 0, 64, 104
1, 175509, Note_on_c, 0, 29, 85
1, 175520, Control_c, 0, 64, 127
1, 175579, Control_c, 0, 64, 118
1, 175594, Control_c, 0, 64, 100
1, 175602, Note_off_c, 0, 29, 40
1, 175609, Poly_aftertouch_c, 0, 32, 127
1, 175610, Control_c, 0, 64, 85
1, 175621, Note_on_c, 0, 43, 74
1, 175622, Note_on_c, 0, 37, 73
1, 175625, Control_c, 0, 64, 70
1, 175640, Control_c, 0, 64, 0
1, 175654, Poly_aftertouch_c, 0, 32, 0
1, 175656, Note_off_c, 0, 43, 64
1, 175657, Note_off_c, 0, 37, 67
1, 175743, Note_on_c, 0, 32, 79
1, 175788, Note_off_c, 0, 32, 59
1, 175860, Note_on_c, 0, 40, 72
1, 175863, Note_on_c, 0, 46, 82
1, 175898, Note_off_c, 0, 40, 66
1, 175899, Note_off_c, 0, 46, 66
1, 175980, Note_on_c, 0, 35, 78
1, 176015, Note_off_c, 0, 35, 68
1, 176062, Note_off_c, 0, 77, 54
1, 176063, Note_off_c, 0, 73, 56
1, 176103, Note_on_c, 0, 44, 77
1, 176104, Note_on_c, 0, 49, 76
1, 176134, Note_off_c, 0, 44, 68
1, 176142, Note_off_c, 0, 49, 62
1, 176193, Note_off_c, 0, 80, 57
1, 176203, Note_off_c, 0, 70, 47
1, 176224, Note_on_c, 0, 38, 85
1, 176263, Note_off_c, 0, 38, 61
1, 176349, Note_on_c, 0, 46, 79
1, 176351, Note_on_c, 0, 52, 78
1, 176382, Note_off_c, 0, 46, 67
1, 176391, Note_off_c, 0, 52, 65
1, 176488, Note_on_c, 0, 43, 82
1, 176492, Note_on_c, 0, 82, 98
1, 176492, Note_on_c, 0, 80, 93
1, 176495, Note_on_c, 0, 76, 83
1, 176497, Note_on_c, 0, 71, 93
1, 176515, Control_c, 0, 64, 90
1, 176530, Control_c, 0, 64, 127
1, 176537, Note_off_c, 0, 76, 66
1, 176542, Note_off_c, 0, 43, 59
1, 176549, Note_off_c, 0, 71, 59
1, 176549, Note_off_c, 0, 82, 56
1, 176576, Note_off_c, 0, 80, 58
1, 176616, Note_on_c, 0, 49, 72
1, 176616, Note_on_c, 0, 56, 74
1, 176658, Note_off_c, 0, 56, 60
1, 176661, Note_off_c, 0, 49, 61
1, 176663, Control_c, 0, 64, 125
1, 176677, Control_c, 0, 64, 104
1, 176692, Control_c, 0, 64, 86
1, 176707, Control_c, 0, 64, 59
1, 176722, Control_c, 0, 64, 0
1, 176733, Note_on_c, 0, 79, 80
1, 176737, Note_on_c, 0, 74, 73
1, 176738, Note_on_c, 0, 80, 85
1, 176740, Note_on_c, 0, 70, 84
1, 176746, Note_on_c, 0, 46, 81
1, 176781, Note_off_c, 0, 80, 65
1, 176784, Note_off_c, 0, 79, 60
1, 176785, Note_off_c, 0, 74, 63
1, 176789, Note_off_c, 0, 70, 62
1, 176815, Note_off_c, 0, 46, 61
1, 176859, Note_on_c, 0, 77, 100
1, 176865, Note_on_c, 0, 68, 97
1, 176869, Note_on_c, 0, 53, 67
1, 176871, Control_c, 0, 64, 71
1, 176871, Note_on_c, 0, 59, 77
1, 176878, Note_on_c, 0, 73, 76
1, 176885, Control_c, 0, 64, 105
1, 176886, Note_off_c, 0, 68, 67
1, 176900, Control_c, 0, 64, 127
1, 176902, Note_off_c, 0, 53, 68
1, 176909, Note_off_c, 0, 77, 64
1, 176921, Note_off_c, 0, 59, 62
1, 176927, Note_off_c, 0, 73, 63
1, 176987, Note_on_c, 0, 50, 80
1, 176989, Control_c, 0, 64, 124
1, 177003, Control_c, 0, 64, 116
1, 177018, Control_c, 0, 64, 104
1, 177033, Control_c, 0, 64, 87
1, 177047, Note_off_c, 0, 50, 56
1, 177048, Control_c, 0, 64, 62
1, 177063, Control_c, 0, 64, 0
1, 177112, Note_on_c, 0, 82, 95
1, 177112, Note_on_c, 0, 80, 94
1, 177114, Note_on_c, 0, 64, 86
1, 177115, Note_on_c, 0, 58, 79
1, 177115, Note_on_c, 0, 71, 95
1, 177120, Note_on_c, 0, 76, 75
1, 177137, Control_c, 0, 64, 65
1, 177149, Note_off_c, 0, 76, 62
1, 177151, Control_c, 0, 64, 87
1, 177163, Note_off_c, 0, 71, 57
1, 177164, Note_off_c, 0, 58, 63
1, 177166, Note_off_c, 0, 82, 60
1, 177166, Control_c, 0, 64, 103
1, 177169, Note_off_c, 0, 64, 62
1, 177189, Control_c, 0, 64, 110
1, 177192, Note_off_c, 0, 80, 62
1, 177205, Control_c, 0, 64, 111
1, 177219, Control_c, 0, 64, 113
1, 177234, Control_c, 0, 64, 117
1, 177247, Note_on_c, 0, 53, 72
1, 177249, Control_c, 0, 64, 127
1, 177308, Note_off_c, 0, 53, 55
1, 177323, Control_c, 0, 64, 102
1, 177338, Control_c, 0, 64, 79
1, 177340, Note_on_c, 0, 74, 21
1, 177353, Control_c, 0, 64, 0
1, 177368, Note_on_c, 0, 70, 93
1, 177369, Note_on_c, 0, 79, 81
1, 177370, Note_on_c, 0, 80, 81
1, 177374, Note_on_c, 0, 67, 72
1, 177374, Note_on_c, 0, 61, 69
1, 177412, Control_c, 0, 64, 63
1, 177413, Note_off_c, 0, 70, 62
1, 177413, Note_off_c, 0, 79, 61
1, 177415, Note_off_c, 0, 67, 59
1, 177415, Note_off_c, 0, 80, 62
1, 177421, Note_off_c, 0, 74, 63
1, 177426, Control_c, 0, 64, 73
1, 177433, Note_off_c, 0, 61, 55
1, 177441, Control_c, 0, 64, 81
1, 177456, Control_c, 0, 64, 88
1, 177471, Control_c, 0, 64, 90
1, 177486, Control_c, 0, 64, 91
1, 177490, Note_on_c, 0, 77, 106
1, 177494, Note_on_c, 0, 56, 71
1, 177495, Note_on_c, 0, 68, 93
1, 177500, Control_c, 0, 64, 93
1, 177510, Note_on_c, 0, 73, 68
1, 177512, Note_off_c, 0, 68, 75
1, 177515, Note_off_c, 0, 77, 63
1, 177515, Control_c, 0, 64, 97
1, 177518, Note_off_c, 0, 56, 66
1, 177530, Control_c, 0, 64, 99
1, 177535, Note_off_c, 0, 73, 66
1, 177545, Control_c, 0, 64, 99
1, 177574, Control_c, 0, 64, 100
1, 177613, Note_on_c, 0, 74, 84
1, 177616, Note_on_c, 0, 71, 79
1, 177639, Note_off_c, 0, 74, 67
1, 177641, Note_off_c, 0, 71, 64
1, 177649, Control_c, 0, 64, 100
1, 177664, Control_c, 0, 64, 106
1, 177679, Control_c, 0, 64, 113
1, 177693, Control_c, 0, 64, 119
1, 177708, Control_c, 0, 64, 121
1, 177738, Control_c, 0, 64, 121
1, 177753, Control_c, 0, 64, 106
1, 177768, Control_c, 0, 64, 80
1, 177782, Control_c, 0, 64, 0
1, 177808, Note_on_c, 0, 67, 105
1, 177813, Note_on_c, 0, 77, 91
1, 177815, Note_on_c, 0, 65, 95
1, 177816, Note_on_c, 0, 61, 75
1, 177816, Note_on_c, 0, 70, 90
1, 177816, Note_on_c, 0, 73, 88
1, 177817, Note_on_c, 0, 75, 87
1, 177824, Note_on_c, 0, 63, 80
1, 177826, Note_on_c, 0, 55, 63
1, 177834, Note_off_c, 0, 67, 67
1, 177834, Note_on_c, 0, 58, 61
1, 177845, Note_off_c, 0, 77, 65
1, 177847, Note_on_c, 0, 64, 41
1, 177848, Note_off_c, 0, 64, 127
1, 177850, Note_off_c, 0, 65, 64
1, 177855, Note_off_c, 0, 55, 67
1, 177856, Control_c, 0, 64, 55
1, 177858, Note_off_c, 0, 70, 64
1, 177862, Note_off_c, 0, 75, 67
1, 177863, Note_off_c, 0, 58, 67
1, 177863, Note_off_c, 0, 63, 63
1, 177864, Note_off_c, 0, 73, 66
1, 177868, Note_off_c, 0, 61, 64
1, 177871, Control_c, 0, 64, 73
1, 177886, Control_c, 0, 64, 83
1, 177900, Control_c, 0, 64, 94
1, 177915, Control_c, 0, 64, 107
1, 177938, Control_c, 0, 64, 127
1, 178224, Note_on_c, 0, 99, 67
1, 178227, Note_on_c, 0, 96, 55
1, 178232, Note_on_c, 0, 91, 62
1, 178245, Note_on_c, 0, 85, 43
1, 178247, Note_on_c, 0, 82, 34
1, 178261, Note_off_c, 0, 96, 65
1, 178261, Note_off_c, 0, 99, 58
1, 178265, Note_off_c, 0, 91, 60
1, 178270, Note_off_c, 0, 85, 54
1, 178293, Note_off_c, 0, 82, 46
1, 178321, Poly_aftertouch_c, 0, 77, 0
1, 178352, Note_on_c, 0, 97, 74
1, 178359, Note_on_c, 0, 94, 68
1, 178373, Note_on_c, 0, 89, 42
1, 178379, Note_on_c, 0, 84, 36
1, 178380, Note_on_c, 0, 75, 53
1, 178391, Note_off_c, 0, 94, 63
1, 178392, Note_off_c, 0, 97, 56
1, 178399, Note_off_c, 0, 89, 49
1, 178402, Note_off_c, 0, 75, 66
1, 178409, Note_off_c, 0, 84, 53
1, 178479, Note_on_c, 0, 96, 76
1, 178487, Note_on_c, 0, 82, 62
1, 178487, Note_on_c, 0, 87, 70
1, 178495, Note_on_c, 0, 73, 56
1, 178508, Note_on_c, 0, 77, 40
1, 178510, Note_off_c, 0, 87, 60
1, 178513, Note_off_c, 0, 96, 53
1, 178516, Note_off_c, 0, 82, 66
1, 178538, Note_off_c, 0, 77, 52
1, 178543, Note_off_c, 0, 73, 57
1, 178610, Note_on_c, 0, 94, 75
1, 178611, Note_on_c, 0, 79, 61
1, 178618, Note_on_c, 0, 75, 55
1, 178621, Note_on_c, 0, 85, 66
1, 178635, Note_on_c, 0, 72, 25
1, 178640, Note_off_c, 0, 79, 65
1, 178641, Note_off_c, 0, 94, 57
1, 178649, Note_off_c, 0, 85, 66
1, 178653, Note_off_c, 0, 75, 67
1, 178679, Note_off_c, 0, 72, 42
1, 178738, Note_on_c, 0, 91, 86
1, 178749, Note_on_c, 0, 84, 64
1, 178758, Note_on_c, 0, 70, 59
1, 178763, Note_on_c, 0, 87, 60
1, 178766, Note_off_c, 0, 84, 66
1, 178767, Note_off_c, 0, 91, 56
1, 178778, Note_off_c, 0, 70, 65
1, 178790, Note_off_c, 0, 87, 65
1, 178859, Note_on_c, 0, 89, 84
1, 178868, Note_on_c, 0, 82, 82
1, 178878, Note_on_c, 0, 85, 72
1, 178883, Note_on_c, 0, 75, 61
1, 178892, Note_on_c, 0, 72, 44
1, 178894, Note_on_c, 0, 67, 45
1, 178895, Note_off_c, 0, 82, 61
1, 178902, Note_off_c, 0, 89, 65
1, 178908, Note_off_c, 0, 85, 62
1, 178915, Note_off_c, 0, 75, 66
1, 178916, Note_off_c, 0, 72, 58
1, 178936, Note_off_c, 0, 67, 62
1, 178982, Note_on_c, 0, 87, 92
1, 178993, Note_on_c, 0, 79, 80
1, 178994, Note_on_c, 0, 73, 72
1, 179004, Note_on_c, 0, 65, 56
1, 179016, Note_off_c, 0, 79, 66
1, 179020, Note_off_c, 0, 73, 65
1, 179024, Note_off_c, 0, 65, 65
1, 179027, Note_off_c, 0, 87, 65
1, 179100, Note_on_c, 0, 85, 97
1, 179101, Note_on_c, 0, 63, 73
1, 179109, Note_on_c, 0, 72, 68
1, 179114, Note_on_c, 0, 82, 78
1, 179115, Note_on_c, 0, 77, 75
1, 179134, Note_off_c, 0, 77, 67
1, 179136, Note_off_c, 0, 72, 69
1, 179148, Note_off_c, 0, 82, 58
1, 179151, Note_off_c, 0, 63, 62
1, 179154, Note_off_c, 0, 85, 62
1, 179215, Note_on_c, 0, 84, 102
1, 179218, Note_on_c, 0, 70, 91
1, 179220, Note_on_c, 0, 75, 105
1, 179224, Note_on_c, 0, 65, 68
1, 179226, Note_on_c, 0, 61, 80
1, 179236, Note_on_c, 0, 79, 70
1, 179238, Note_off_c, 0, 70, 69
1, 179249, Note_off_c, 0, 84, 69
1, 179251, Note_off_c, 0, 79, 67
1, 179252, Note_off_c, 0, 75, 65
1, 179258, Note_off_c, 0, 65, 66
1, 179276, Note_off_c, 0, 61, 64
1, 179494, Control_c, 0, 64, 109
1, 179509, Control_c, 0, 64, 91
1, 179524, Control_c, 0, 64, 73
1, 179530, Note_on_c, 0, 78, 86
1, 179533, Note_on_c, 0, 66, 101
1, 179535, Note_on_c, 0, 68, 86
1, 179539, Note_on_c, 0, 32, 88
1, 179539, Control_c, 0, 64, 57
1, 179545, Note_on_c, 0, 75, 75
1, 179548, Note_on_c, 0, 72, 74
1, 179548, Note_on_c, 0, 77, 79
1, 179553, Control_c, 0, 64, 57
1, 179563, Note_off_c, 0, 78, 68
1, 179568, Control_c, 0, 64, 70
1, 179571, Note_off_c, 0, 66, 64
1, 179581, Note_off_c, 0, 72, 65
1, 179583, Note_off_c, 0, 77, 65
1, 179583, Control_c, 0, 64, 80
1, 179591, Note_off_c, 0, 68, 63
1, 179598, Note_off_c, 0, 75, 65
1, 179598, Control_c, 0, 64, 88
1, 179614, Control_c, 0, 64, 92
1, 179622, Poly_aftertouch_c, 0, 37, 127
1, 179628, Control_c, 0, 64, 94
1, 179629, Note_off_c, 0, 32, 58
1, 179643, Control_c, 0, 64, 94
1, 179649, Poly_aftertouch_c, 0, 34, 0
1, 179679, Note_on_c, 0, 39, 70
1, 179683, Note_on_c, 0, 45, 70
1, 179714, Poly_aftertouch_c, 0, 37, 0
1, 179720, Note_off_c, 0, 39, 63
1, 179729, Note_off_c, 0, 45, 61
1, 179762, Control_c, 0, 64, 93
1, 179777, Control_c, 0, 64, 81
1, 179792, Control_c, 0, 64, 52
1, 179803, Note_on_c, 0, 80, 104
1, 179804, Note_on_c, 0, 69, 107
1, 179805, Note_on_c, 0, 74, 90
1, 179807, Control_c, 0, 64, 0
1, 179810, Note_on_c, 0, 78, 87
1, 179813, Note_on_c, 0, 35, 87
1, 179866, Control_c, 0, 64, 63
1, 179881, Control_c, 0, 64, 76
1, 179896, Control_c, 0, 64, 88
1, 179910, Control_c, 0, 64, 95
1, 179915, Note_off_c, 0, 35, 55
1, 179925, Control_c, 0, 64, 96
1, 179935, Poly_aftertouch_c, 0, 37, 0
1, 179937, Note_on_c, 0, 48, 77
1, 179938, Note_on_c, 0, 42, 73
1, 179955, Control_c, 0, 64, 95
1, 179971, Note_off_c, 0, 42, 64
1, 179977, Note_off_c, 0, 48, 62
1, 180028, Control_c, 0, 64, 95
1, 180043, Control_c, 0, 64, 92
1, 180050, Note_on_c, 0, 38, 81
1, 180058, Control_c, 0, 64, 87
1, 180073, Control_c, 0, 64, 76
1, 180088, Control_c, 0, 64, 60
1, 180102, Control_c, 0, 64, 0
1, 180111, Note_off_c, 0, 38, 59
1, 180186, Note_on_c, 0, 51, 85
1, 180189, Note_on_c, 0, 45, 74
1, 180224, Note_off_c, 0, 45, 67
1, 180239, Note_off_c, 0, 51, 63
1, 180302, Note_off_c, 0, 74, 59
1, 180311, Note_off_c, 0, 78, 61
1, 180311, Note_on_c, 0, 41, 82
1, 180327, Note_off_c, 0, 80, 58
1, 180332, Control_c, 0, 64, 28
1, 180346, Control_c, 0, 64, 89
1, 180361, Note_off_c, 0, 69, 61
1, 180361, Control_c, 0, 64, 103
1, 180375, Note_off_c, 0, 41, 62
1, 180376, Control_c, 0, 64, 106
1, 180422, Control_c, 0, 64, 106
1, 180446, Note_on_c, 0, 54, 85
1, 180448, Note_on_c, 0, 48, 70
1, 180481, Control_c, 0, 64, 107
1, 180483, Note_off_c, 0, 48, 67
1, 180497, Note_off_c, 0, 54, 62
1, 180525, Control_c, 0, 64, 105
1, 180540, Control_c, 0, 64, 93
1, 180555, Control_c, 0, 64, 77
1, 180570, Control_c, 0, 64, 46
1, 180574, Note_on_c, 0, 44, 89
1, 180579, Note_on_c, 0, 66, 104
1, 180579, Note_on_c, 0, 77, 90
1, 180585, Note_on_c, 0, 75, 79
1, 180585, Note_on_c, 0, 68, 88
1, 180585, Control_c, 0, 64, 0
1, 180593, Note_on_c, 0, 72, 71
1, 180615, Control_c, 0, 64, 59
1, 180630, Control_c, 0, 64, 72
1, 180636, Note_off_c, 0, 72, 64
1, 180645, Control_c, 0, 64, 80
1, 180653, Note_off_c, 0, 77, 57
1, 180659, Control_c, 0, 64, 85
1, 180665, Note_off_c, 0, 75, 64
1, 180671, Note_off_c, 0, 68, 58
1, 180674, Note_off_c, 0, 44, 57
1, 180674, Control_c, 0, 64, 86
1, 180696, Note_off_c, 0, 66, 61
1, 180704, Control_c, 0, 64, 86
1, 180717, Note_on_c, 0, 57, 82
1, 180719, Note_on_c, 0, 51, 77
1, 180719, Control_c, 0, 64, 88
1, 180733, Control_c, 0, 64, 90
1, 180745, Note_off_c, 0, 57, 62
1, 180748, Control_c, 0, 64, 92
1, 180759, Note_off_c, 0, 51, 59
1, 180763, Control_c, 0, 64, 94
1, 180777, Control_c, 0, 64, 96
1, 180792, Control_c, 0, 64, 96
1, 180822, Control_c, 0, 64, 95
1, 180837, Control_c, 0, 64, 87
1, 180851, Control_c, 0, 64, 72
1, 180866, Control_c, 0, 64, 0
1, 180901, Note_on_c, 0, 70, 95
1, 180902, Note_on_c, 0, 65, 94
1, 180909, Note_on_c, 0, 37, 85
1, 180910, Note_on_c, 0, 68, 85
1, 180911, Control_c, 0, 64, 53
1, 180933, Control_c, 0, 64, 70
1, 180948, Control_c, 0, 64, 79
1, 180963, Control_c, 0, 64, 89
1, 180966, Note_off_c, 0, 37, 62
1, 180968, Note_off_c, 0, 65, 56
1, 180977, Control_c, 0, 64, 94
1, 180992, Control_c, 0, 64, 96
1, 181007, Control_c, 0, 64, 98
1, 181022, Control_c, 0, 64, 101
1, 181029, Note_off_c, 0, 70, 57
1, 181037, Control_c, 0, 64, 102
1, 181070, Note_on_c, 0, 73, 91
1, 181077, Note_on_c, 0, 65, 79
1, 181083, Note_off_c, 0, 68, 65
1, 181093, Note_off_c, 0, 65, 71
1, 181094, Note_on_c, 0, 55, 82
1, 181105, Note_on_c, 0, 50, 69
1, 181111, Note_off_c, 0, 73, 67
1, 181125, Control_c, 0, 64, 102
1, 181140, Control_c, 0, 64, 104
1, 181151, Note_off_c, 0, 50, 55
1, 181155, Control_c, 0, 64, 105
1, 181165, Note_off_c, 0, 55, 54
1, 181184, Control_c, 0, 64, 103
1, 181200, Control_c, 0, 64, 89
1, 181215, Control_c, 0, 64, 62
1, 181230, Control_c, 0, 64, 0
1, 181231, Note_on_c, 0, 85, 101
1, 181234, Note_on_c, 0, 74, 99
1, 181238, Note_on_c, 0, 41, 79
1, 181267, Note_off_c, 0, 41, 67
1, 181268, Note_off_c, 0, 85, 68
1, 181274, Control_c, 0, 64, 65
1, 181276, Note_off_c, 0, 74, 68
1, 181289, Control_c, 0, 64, 75
1, 181304, Control_c, 0, 64, 88
1, 181319, Control_c, 0, 64, 91
1, 181334, Control_c, 0, 64, 90
1, 181348, Control_c, 0, 64, 79
1, 181358, Poly_aftertouch_c, 0, 43, 0
1, 181363, Control_c, 0, 64, 59
1, 181378, Control_c, 0, 64, 0
1, 181389, Note_on_c, 0, 80, 97
1, 181391, Note_on_c, 0, 70, 103
1, 181393, Note_on_c, 0, 73, 80
1, 181394, Note_on_c, 0, 59, 82
1, 181398, Note_on_c, 0, 77, 75
1, 181400, Note_on_c, 0, 52, 79
1, 181408, Control_c, 0, 64, 66
1, 181423, Control_c, 0, 64, 78
1, 181435, Note_off_c, 0, 59, 63
1, 181437, Control_c, 0, 64, 93
1, 181452, Control_c, 0, 64, 103
1, 181467, Control_c, 0, 64, 104
1, 181469, Note_off_c, 0, 52, 64
1, 181512, Control_c, 0, 64, 101
1, 181522, Note_on_c, 0, 44, 79
1, 181527, Control_c, 0, 64, 90
1, 181542, Control_c, 0, 64, 70
1, 181553, Note_off_c, 0, 44, 66
1, 181556, Control_c, 0, 64, 0
1, 181676, Note_on_c, 0, 62, 95
1, 181676, Note_off_c, 0, 70, 57
1, 181677, Note_on_c, 0, 55, 93
1, 181710, Note_off_c, 0, 55, 69
1, 181712, Note_off_c, 0, 73, 61
1, 181720, Note_off_c, 0, 77, 61
1, 181721, Note_off_c, 0, 62, 62
1, 181727, Control_c, 0, 64, 73
1, 181735, Note_off_c, 0, 80, 63
1, 181741, Control_c, 0, 64, 95
1, 181756, Control_c, 0, 64, 127
1, 182105, Note_on_c, 0, 91, 50
1, 182111, Note_on_c, 0, 82, 51
1, 182111, Note_on_c, 0, 104, 68
1, 182118, Note_on_c, 0, 95, 50
1, 182133, Note_off_c, 0, 91, 51
1, 182145, Note_off_c, 0, 95, 57
1, 182148, Note_off_c, 0, 82, 61
1, 182150, Note_on_c, 0, 100, 7
1, 182163, Note_off_c, 0, 100, 47
1, 182171, Note_off_c, 0, 104, 63
1, 182260, Note_on_c, 0, 103, 74
1, 182278, Note_on_c, 0, 98, 56
1, 182278, Note_on_c, 0, 85, 43
1, 182279, Note_on_c, 0, 94, 55
1, 182281, Note_on_c, 0, 89, 40
1, 182300, Note_off_c, 0, 103, 53
1, 182301, Note_off_c, 0, 85, 55
1, 182305, Note_off_c, 0, 94, 62
1, 182309, Note_off_c, 0, 89, 46
1, 182310, Note_off_c, 0, 98, 62
1, 182402, Note_on_c, 0, 101, 73
1, 182404, Note_on_c, 0, 97, 68
1, 182409, Note_on_c, 0, 88, 36
1, 182426, Note_on_c, 0, 92, 48
1, 182443, Note_off_c, 0, 97, 60
1, 182446, Note_off_c, 0, 88, 43
1, 182446, Note_off_c, 0, 101, 60
1, 182449, Note_off_c, 0, 92, 58
1, 182525, Note_on_c, 0, 100, 74
1, 182526, Note_on_c, 0, 86, 51
1, 182534, Note_on_c, 0, 82, 48
1, 182540, Note_on_c, 0, 91, 62
1, 182543, Note_on_c, 0, 77, 42
1, 182546, Note_on_c, 0, 95, 56
1, 182548, Note_off_c, 0, 86, 61
1, 182558, Note_off_c, 0, 82, 61
1, 182569, Note_off_c, 0, 91, 60
1, 182570, Note_off_c, 0, 77, 56
1, 182572, Note_off_c, 0, 95, 58
1, 182573, Note_off_c, 0, 100, 62
1, 182654, Note_on_c, 0, 98, 84
1, 182658, Note_on_c, 0, 85, 59
1, 182669, Note_on_c, 0, 89, 57
1, 182672, Note_on_c, 0, 94, 64
1, 182676, Note_off_c, 0, 85, 65
1, 182693, Note_off_c, 0, 89, 60
1, 182698, Note_off_c, 0, 94, 69
1, 182698, Note_off_c, 0, 98, 62
1, 182701, Note_on_c, 0, 76, 16
1, 182744, Note_off_c, 0, 76, 38
1, 182785, Note_on_c, 0, 97, 76
1, 182785, Note_on_c, 0, 74, 45
1, 182793, Note_on_c, 0, 83, 52
1, 182794, Note_on_c, 0, 88, 61
1, 182795, Note_on_c, 0, 92, 68
1, 182809, Note_off_c, 0, 74, 63
1, 182813, Note_off_c, 0, 83, 60
1, 182816, Note_off_c, 0, 97, 59
1, 182825, Note_off_c, 0, 88, 64
1, 182825, Note_off_c, 0, 92, 62
1, 182833, Note_on_c, 0, 79, 29
1, 182872, Note_off_c, 0, 79, 48
1, 182914, Note_on_c, 0, 95, 86
1, 182920, Note_on_c, 0, 86, 66
1, 182922, Note_on_c, 0, 82, 61
1, 182925, Note_on_c, 0, 91, 67
1, 182931, Note_on_c, 0, 77, 26
1, 182938, Note_on_c, 0, 73, 55
1, 182941, Note_off_c, 0, 86, 61
1, 182943, Note_off_c, 0, 82, 66
1, 182944, Note_off_c, 0, 95, 58
1, 182954, Note_off_c, 0, 91, 62
1, 182961, Note_off_c, 0, 73, 64
1, 182970, Note_off_c, 0, 77, 31
1, 183035, Note_on_c, 0, 94, 91
1, 183037, Note_on_c, 0, 80, 74
1, 183045, Note_on_c, 0, 85, 73
1, 183047, Note_on_c, 0, 71, 56
1, 183053, Note_on_c, 0, 89, 63
1, 183068, Note_on_c, 0, 76, 42
1, 183074, Note_off_c, 0, 85, 64
1, 183084, Note_off_c, 0, 89, 66
1, 183087, Note_off_c, 0, 94, 63
1, 183091, Note_off_c, 0, 71, 56
1, 183093, Note_off_c, 0, 80, 52
1, 183104, Note_off_c, 0, 76, 50
1, 183172, Note_on_c, 0, 92, 88
1, 183174, Note_on_c, 0, 79, 67
1, 183178, Note_on_c, 0, 74, 41
1, 183185, Note_on_c, 0, 83, 66
1, 183187, Note_on_c, 0, 70, 64
1, 183201, Note_off_c, 0, 79, 65
1, 183202, Note_off_c, 0, 74, 56
1, 183205, Note_on_c, 0, 88, 44
1, 183207, Note_off_c, 0, 83, 59
1, 183221, Note_off_c, 0, 70, 62
1, 183225, Note_off_c, 0, 92, 63
1, 183229, Note_off_c, 0, 88, 54
1, 183295, Note_on_c, 0, 91, 87
1, 183305, Note_on_c, 0, 73, 64
1, 183305, Note_on_c, 0, 77, 62
1, 183312, Note_on_c, 0, 86, 73
1, 183314, Note_on_c, 0, 68, 55
1, 183320, Note_on_c, 0, 82, 41
1, 183321, Note_off_c, 0, 82, 127
1, 183330, Note_off_c, 0, 77, 64
1, 183336, Note_off_c, 0, 73, 66
1, 183338, Note_off_c, 0, 86, 65
1, 183339, Note_off_c, 0, 91, 59
1, 183348, Note_off_c, 0, 68, 65
1, 183422, Note_on_c, 0, 89, 83
1, 183424, Note_on_c, 0, 85, 77
1, 183435, Note_on_c, 0, 67, 52
1, 183435, Note_on_c, 0, 76, 51
1, 183445, Note_on_c, 0, 71, 39
1, 183453, Note_on_c, 0, 82, 16
1, 183453, Note_off_c, 0, 76, 64
1, 183464, Note_off_c, 0, 89, 64
1, 183470, Note_on_c, 0, 81, 25
1, 183471, Note_off_c, 0, 67, 64
1, 183474, Note_off_c, 0, 85, 64
1, 183481, Note_off_c, 0, 71, 51
1, 183498, Note_off_c, 0, 82, 41
1, 183507, Note_off_c, 0, 81, 31
1, 183546, Note_on_c, 0, 88, 93
1, 183551, Note_on_c, 0, 79, 82
1, 183557, Note_on_c, 0, 74, 58
1, 183557, Note_on_c, 0, 83, 71
1, 183557, Note_on_c, 0, 70, 60
1, 183565, Note_on_c, 0, 65, 55
1, 183573, Note_off_c, 0, 79, 66
1, 183583, Note_off_c, 0, 74, 66
1, 183587, Note_off_c, 0, 70, 65
1, 183587, Note_off_c, 0, 83, 61
1, 183589, Note_off_c, 0, 88, 62
1, 183593, Note_off_c, 0, 65, 65
1, 183667, Note_on_c, 0, 86, 99
1, 183670, Note_on_c, 0, 77, 92
1, 183671, Note_on_c, 0, 73, 71
1, 183681, Note_on_c, 0, 64, 59
1, 183681, Note_on_c, 0, 82, 79
1, 183686, Note_on_c, 0, 68, 55
1, 183697, Note_off_c, 0, 77, 61
1, 183703, Note_off_c, 0, 73, 62
1, 183703, Note_off_c, 0, 86, 65
1, 183721, Note_off_c, 0, 68, 65
1, 183723, Note_off_c, 0, 82, 58
1, 183746, Note_off_c, 0, 64, 53
1, 183784, Note_on_c, 0, 85, 101
1, 183786, Note_on_c, 0, 76, 106
1, 183790, Note_on_c, 0, 80, 98
1, 183791, Note_on_c, 0, 71, 83
1, 183795, Note_on_c, 0, 67, 71
1, 183795, Note_on_c, 0, 62, 77
1, 183801, Note_off_c, 0, 76, 71
1, 183809, Note_off_c, 0, 80, 68
1, 183812, Note_off_c, 0, 71, 68
1, 183820, Note_off_c, 0, 85, 67
1, 183822, Note_off_c, 0, 67, 67
1, 183850, Note_off_c, 0, 62, 62
1, 184121, Control_c, 0, 64, 110
1, 184136, Control_c, 0, 64, 91
1, 184150, Control_c, 0, 64, 74
1, 184156, Note_on_c, 0, 66, 103
1, 184159, Note_on_c, 0, 77, 84
1, 184160, Note_on_c, 0, 68, 87
1, 184161, Note_on_c, 0, 35, 86
1, 184165, Control_c, 0, 64, 63
1, 184171, Note_on_c, 0, 72, 71
1, 184180, Note_on_c, 0, 76, 64
1, 184180, Control_c, 0, 64, 66
1, 184187, Note_on_c, 0, 75, 23
1, 184188, Note_off_c, 0, 75, 127
1, 184195, Control_c, 0, 64, 74
1, 184198, Note_off_c, 0, 66, 68
1, 184198, Note_off_c, 0, 72, 66
1, 184199, Note_off_c, 0, 76, 43
1, 184205, Note_off_c, 0, 35, 62
1, 184210, Note_on_c, 0, 74, 23
1, 184210, Control_c, 0, 64, 83
1, 184214, Note_off_c, 0, 77, 63
1, 184217, Note_off_c, 0, 68, 61
1, 184225, Control_c, 0, 64, 92
1, 184239, Control_c, 0, 64, 98
1, 184247, Note_off_c, 0, 74, 44
1, 184254, Control_c, 0, 64, 99
1, 184269, Control_c, 0, 64, 100
1, 184293, Note_on_c, 0, 53, 76
1, 184303, Note_on_c, 0, 45, 66
1, 184314, Control_c, 0, 64, 99
1, 184320, Note_off_c, 0, 53, 68
1, 184329, Control_c, 0, 64, 98
1, 184335, Note_off_c, 0, 45, 64
1, 184343, Control_c, 0, 64, 89
1, 184358, Control_c, 0, 64, 72
1, 184373, Control_c, 0, 64, 0
1, 184415, Note_on_c, 0, 80, 99
1, 184416, Note_on_c, 0, 69, 99
1, 184416, Note_on_c, 0, 74, 87
1, 184419, Note_on_c, 0, 36, 88
1, 184420, Note_on_c, 0, 78, 89
1, 184448, Control_c, 0, 64, 58
1, 184449, Note_off_c, 0, 36, 70
1, 184463, Control_c, 0, 64, 75
1, 184478, Control_c, 0, 64, 85
1, 184492, Control_c, 0, 64, 90
1, 184555, Note_on_c, 0, 57, 79
1, 184559, Note_on_c, 0, 50, 75
1, 184577, Note_off_c, 0, 57, 69
1, 184581, Control_c, 0, 64, 87
1, 184588, Note_off_c, 0, 50, 67
1, 184596, Control_c, 0, 64, 77
1, 184610, Control_c, 0, 64, 39
1, 184625, Control_c, 0, 64, 0
1, 184684, Note_on_c, 0, 41, 90
1, 184716, Note_off_c, 0, 41, 67
1, 184744, Note_off_c, 0, 69, 57
1, 184803, Note_off_c, 0, 74, 56
1, 184812, Note_on_c, 0, 51, 97
1, 184813, Note_on_c, 0, 59, 100
1, 184825, Control_c, 0, 64, 23
1, 184835, Note_off_c, 0, 59, 67
1, 184840, Control_c, 0, 64, 98
1, 184846, Note_off_c, 0, 51, 55
1, 184851, Note_off_c, 0, 78, 61
1, 184854, Note_off_c, 0, 80, 59
1, 184855, Control_c, 0, 64, 127
1, 185259, Note_on_c, 0, 101, 67
1, 185266, Note_on_c, 0, 96, 49
1, 185276, Note_on_c, 0, 92, 53
1, 185284, Note_on_c, 0, 87, 29
1, 185285, Note_on_c, 0, 78, 36
1, 185316, Note_off_c, 0, 92, 63
1, 185316, Note_off_c, 0, 101, 63
1, 185318, Note_off_c, 0, 87, 43
1, 185327, Note_off_c, 0, 78, 46
1, 185327, Note_off_c, 0, 96, 58
1, 185361, Poly_aftertouch_c, 0, 83, 0
1, 185419, Note_on_c, 0, 99, 76
1, 185432, Note_on_c, 0, 95, 62
1, 185433, Note_on_c, 0, 90, 60
1, 185436, Note_on_c, 0, 86, 37
1, 185441, Note_on_c, 0, 77, 31
1, 185464, Note_off_c, 0, 95, 67
1, 185467, Note_off_c, 0, 86, 47
1, 185468, Note_off_c, 0, 77, 46
1, 185471, Note_off_c, 0, 90, 62
1, 185474, Note_off_c, 0, 99, 60
1, 185550, Note_on_c, 0, 98, 72
1, 185560, Note_on_c, 0, 89, 56
1, 185561, Note_on_c, 0, 75, 48
1, 185561, Note_on_c, 0, 80, 43
1, 185563, Note_on_c, 0, 84, 48
1, 185575, Note_on_c, 0, 93, 55
1, 185583, Note_off_c, 0, 84, 61
1, 185583, Note_off_c, 0, 89, 63
1, 185583, Note_off_c, 0, 98, 58
1, 185593, Note_off_c, 0, 80, 51
1, 185595, Note_off_c, 0, 93, 62
1, 185607, Note_off_c, 0, 75, 59
1, 185676, Note_on_c, 0, 96, 77
1, 185687, Note_on_c, 0, 78, 49
1, 185690, Note_on_c, 0, 83, 45
1, 185692, Note_on_c, 0, 74, 44
1, 185692, Note_on_c, 0, 92, 64
1, 185693, Note_on_c, 0, 87, 55
1, 185713, Note_off_c, 0, 83, 52
1, 185715, Note_off_c, 0, 74, 60
1, 185718, Note_off_c, 0, 96, 62
1, 185720, Note_off_c, 0, 87, 63
1, 185721, Note_off_c, 0, 78, 52
1, 185721, Note_off_c, 0, 92, 67
1, 185804, Note_on_c, 0, 95, 73
1, 185822, Note_on_c, 0, 81, 33
1, 185822, Note_on_c, 0, 90, 63
1, 185828, Note_on_c, 0, 77, 9
1, 185831, Note_on_c, 0, 86, 41
1, 185840, Note_off_c, 0, 95, 60
1, 185853, Note_off_c, 0, 81, 43
1, 185854, Note_off_c, 0, 90, 63
1, 185857, Note_off_c, 0, 86, 52
1, 185883, Note_off_c, 0, 77, 26
1, 185932, Note_on_c, 0, 93, 78
1, 185947, Note_on_c, 0, 89, 65
1, 185951, Note_on_c, 0, 75, 53
1, 185959, Note_on_c, 0, 80, 45
1, 185961, Note_on_c, 0, 84, 35
1, 185971, Note_off_c, 0, 93, 59
1, 185976, Note_off_c, 0, 89, 67
1, 185977, Note_off_c, 0, 75, 63
1, 185985, Note_off_c, 0, 80, 57
1, 185992, Note_off_c, 0, 84, 49
1, 186053, Poly_aftertouch_c, 0, 71, 0
1, 186061, Note_on_c, 0, 78, 70
1, 186062, Note_on_c, 0, 92, 84
1, 186067, Note_on_c, 0, 69, 50
1, 186067, Note_on_c, 0, 87, 72
1, 186079, Note_on_c, 0, 74, 53
1, 186080, Note_on_c, 0, 83, 47
1, 186091, Note_off_c, 0, 69, 62
1, 186097, Note_off_c, 0, 78, 55
1, 186103, Note_off_c, 0, 87, 52
1, 186104, Note_off_c, 0, 83, 55
1, 186112, Note_off_c, 0, 92, 62
1, 186145, Note_off_c, 0, 74, 51
1, 186194, Note_on_c, 0, 90, 89
1, 186197, Note_on_c, 0, 77, 67
1, 186207, Note_on_c, 0, 72, 32
1, 186207, Note_on_c, 0, 86, 63
1, 186208, Note_on_c, 0, 81, 61
1, 186210, Note_on_c, 0, 68, 65
1, 186224, Note_off_c, 0, 77, 66
1, 186231, Note_off_c, 0, 81, 61
1, 186238, Note_off_c, 0, 72, 47
1, 186244, Note_off_c, 0, 86, 62
1, 186253, Note_off_c, 0, 90, 61
1, 186259, Note_off_c, 0, 68, 62
1, 186319, Note_on_c, 0, 89, 90
1, 186326, Note_on_c, 0, 80, 82
1, 186333, Note_on_c, 0, 66, 69
1, 186333, Note_on_c, 0, 75, 70
1, 186333, Note_on_c, 0, 84, 75
1, 186339, Note_on_c, 0, 71, 61
1, 186356, Note_off_c, 0, 80, 60
1, 186365, Note_off_c, 0, 75, 60
1, 186366, Note_off_c, 0, 89, 64
1, 186372, Note_off_c, 0, 84, 57
1, 186413, Note_off_c, 0, 66, 57
1, 186432, Note_off_c, 0, 71, 44
1, 186448, Note_on_c, 0, 87, 94
1, 186454, Note_on_c, 0, 74, 69
1, 186454, Note_on_c, 0, 78, 81
1, 186462, Note_on_c, 0, 65, 66
1, 186463, Note_on_c, 0, 69, 52
1, 186463, Note_on_c, 0, 83, 66
1, 186482, Note_off_c, 0, 78, 58
1, 186484, Note_off_c, 0, 69, 62
1, 186484, Note_off_c, 0, 74, 63
1, 186489, Note_off_c, 0, 83, 66
1, 186497, Note_off_c, 0, 65, 65
1, 186505, Note_off_c, 0, 87, 62
1, 186575, Note_on_c, 0, 86, 88
1, 186579, Note_on_c, 0, 77, 80
1, 186585, Note_on_c, 0, 81, 76
1, 186588, Note_on_c, 0, 68, 65
1, 186593, Note_on_c, 0, 72, 60
1, 186595, Note_on_c, 0, 63, 58
1, 186603, Note_off_c, 0, 77, 66
1, 186606, Note_off_c, 0, 86, 58
1, 186612, Note_off_c, 0, 81, 61
1, 186613, Note_off_c, 0, 72, 65
1, 186627, Note_off_c, 0, 68, 63
1, 186636, Note_off_c, 0, 63, 60
1, 186698, Note_on_c, 0, 84, 92
1, 186702, Note_on_c, 0, 75, 90
1, 186705, Note_on_c, 0, 66, 64
1, 186705, Note_on_c, 0, 71, 68
1, 186708, Note_on_c, 0, 80, 82
1, 186713, Note_on_c, 0, 62, 58
1, 186726, Note_off_c, 0, 75, 66
1, 186732, Note_off_c, 0, 71, 64
1, 186735, Note_off_c, 0, 84, 60
1, 186746, Note_off_c, 0, 62, 63
1, 186748, Note_off_c, 0, 66, 61
1, 186755, Note_off_c, 0, 80, 62
1, 186818, Note_on_c, 0, 83, 96
1, 186822, Note_on_c, 0, 78, 91
1, 186824, Note_on_c, 0, 74, 82
1, 186828, Note_on_c, 0, 60, 67
1, 186830, Note_on_c, 0, 69, 66
1, 186845, Note_off_c, 0, 74, 68
1, 186855, Note_off_c, 0, 83, 60
1, 186859, Note_off_c, 0, 69, 69
1, 186861, Note_off_c, 0, 60, 61
1, 186865, Note_on_c, 0, 65, 16
1, 186866, Note_off_c, 0, 78, 65
1, 186904, Note_off_c, 0, 65, 42
1, 186940, Control_c, 0, 64, 105
1, 186946, Note_on_c, 0, 81, 110
1, 186947, Note_on_c, 0, 72, 104
1, 186949, Note_on_c, 0, 77, 97
1, 186955, Control_c, 0, 64, 85
1, 186964, Note_on_c, 0, 63, 77
1, 186966, Note_on_c, 0, 68, 85
1, 186969, Control_c, 0, 64, 75
1, 186971, Note_off_c, 0, 72, 64
1, 186982, Note_off_c, 0, 81, 57
1, 186984, Control_c, 0, 64, 74
1, 186985, Note_on_c, 0, 59, 43
1, 186991, Note_off_c, 0, 77, 58
1, 186993, Note_off_c, 0, 68, 63
1, 186999, Control_c, 0, 64, 76
1, 187013, Control_c, 0, 64, 82
1, 187017, Note_off_c, 0, 59, 49
1, 187021, Note_off_c, 0, 63, 60
1, 187028, Control_c, 0, 64, 91
1, 187043, Control_c, 0, 64, 98
1, 187058, Control_c, 0, 64, 103
1, 187073, Control_c, 0, 64, 105
1, 187087, Control_c, 0, 64, 106
1, 187102, Control_c, 0, 64, 106
1, 187132, Control_c, 0, 64, 107
1, 187220, Control_c, 0, 64, 107
1, 187235, Control_c, 0, 64, 109
1, 187250, Control_c, 0, 64, 112
1, 187265, Control_c, 0, 64, 118
1, 187280, Control_c, 0, 64, 123
1, 187295, Control_c, 0, 64, 126
1, 187325, Control_c, 0, 64, 123
1, 187339, Control_c, 0, 64, 112
1, 187354, Control_c, 0, 64, 99
1, 187369, Control_c, 0, 64, 89
1, 187373, Note_on_c, 0, 74, 105
1, 187376, Note_on_c, 0, 67, 105
1, 187379, Note_on_c, 0, 59, 75
1, 187380, Note_on_c, 0, 62, 87
1, 187381, Note_on_c, 0, 71, 88
1, 187384, Control_c, 0, 64, 83
1, 187385, Note_on_c, 0, 55, 70
1, 187399, Control_c, 0, 64, 82
1, 187413, Control_c, 0, 64, 83
1, 187428, Control_c, 0, 64, 88
1, 187443, Control_c, 0, 64, 96
1, 187444, Note_off_c, 0, 59, 60
1, 187445, Note_off_c, 0, 71, 59
1, 187458, Control_c, 0, 64, 104
1, 187471, Note_off_c, 0, 74, 66
1, 187473, Note_off_c, 0, 55, 63
1, 187473, Control_c, 0, 64, 108
1, 187487, Control_c, 0, 64, 111
1, 187502, Control_c, 0, 64, 115
1, 187517, Control_c, 0, 64, 124
1, 187532, Control_c, 0, 64, 127
1, 187589, Note_off_c, 0, 67, 57
1, 187604, Note_off_c, 0, 62, 57
1, 187651, Control_c, 0, 64, 104
1, 187666, Note_on_c, 0, 73, 104
1, 187667, Note_on_c, 0, 61, 98
1, 187668, Note_on_c, 0, 65, 110
1, 187670, Note_on_c, 0, 68, 99
1, 187670, Note_on_c, 0, 70, 92
1, 187671, Note_on_c, 0, 53, 82
1, 187671, Note_on_c, 0, 58, 83
1, 187672, Note_on_c, 0, 56, 79
1, 187673, Control_c, 0, 64, 74
1, 187688, Control_c, 0, 64, 0
1, 187784, Note_off_c, 0, 65, 53
1, 187792, Control_c, 0, 64, 27
1, 187807, Control_c, 0, 64, 72
1, 187822, Control_c, 0, 64, 78
1, 187836, Control_c, 0, 64, 80
1, 187851, Control_c, 0, 64, 81
1, 187852, Note_off_c, 0, 53, 59
1, 187864, Note_off_c, 0, 68, 58
1, 187866, Control_c, 0, 64, 85
1, 187881, Control_c, 0, 64, 90
1, 187891, Note_off_c, 0, 70, 59
1, 187894, Note_off_c, 0, 56, 54
1, 187896, Control_c, 0, 64, 96
1, 187899, Note_off_c, 0, 58, 56
1, 187900, Note_off_c, 0, 73, 42
1, 187910, Control_c, 0, 64, 103
1, 187914, Note_off_c, 0, 61, 56
1, 187925, Control_c, 0, 64, 107
1, 187940, Control_c, 0, 64, 113
1, 187955, Control_c, 0, 64, 118
1, 187969, Control_c, 0, 64, 121
1, 187984, Control_c, 0, 64, 121
1, 187999, Control_c, 0, 64, 122
1, 188029, Control_c, 0, 64, 123
1, 188043, Control_c, 0, 64, 124
1, 188058, Control_c, 0, 64, 127
1, 188073, Control_c, 0, 64, 127
1, 188565, Note_on_c, 0, 101, 64
1, 188568, Note_on_c, 0, 88, 40
1, 188576, Note_on_c, 0, 92, 58
1, 188589, Note_on_c, 0, 97, 43
1, 188602, Note_on_c, 0, 79, 17
1, 188609, Note_off_c, 0, 88, 47
1, 188618, Note_off_c, 0, 92, 59
1, 188623, Note_off_c, 0, 97, 59
1, 188624, Note_off_c, 0, 101, 62
1, 188643, Note_off_c, 0, 79, 44
1, 188720, Note_on_c, 0, 100, 71
1, 188735, Note_on_c, 0, 95, 50
1, 188737, Note_on_c, 0, 91, 50
1, 188740, Note_on_c, 0, 86, 46
1, 188741, Note_on_c, 0, 82, 42
1, 188755, Note_off_c, 0, 100, 57
1, 188759, Note_off_c, 0, 91, 54
1, 188762, Note_off_c, 0, 86, 59
1, 188762, Note_off_c, 0, 95, 55
1, 188766, Note_off_c, 0, 82, 58
1, 188849, Note_on_c, 0, 98, 74
1, 188860, Note_on_c, 0, 94, 68
1, 188861, Note_on_c, 0, 89, 57
1, 188866, Note_on_c, 0, 85, 55
1, 188882, Note_on_c, 0, 76, 44
1, 188887, Note_off_c, 0, 89, 59
1, 188892, Note_off_c, 0, 98, 60
1, 188893, Note_on_c, 0, 80, 37
1, 188898, Note_off_c, 0, 85, 64
1, 188901, Note_off_c, 0, 94, 58
1, 188934, Note_off_c, 0, 80, 46
1, 188935, Note_off_c, 0, 76, 55
1, 188983, Note_on_c, 0, 97, 75
1, 188994, Note_on_c, 0, 83, 62
1, 189002, Note_on_c, 0, 88, 47
1, 189002, Note_on_c, 0, 92, 56
1, 189016, Note_off_c, 0, 83, 63
1, 189019, Note_off_c, 0, 97, 56
1, 189024, Note_on_c, 0, 74, 8
1, 189025, Note_off_c, 0, 88, 58
1, 189034, Note_on_c, 0, 79, 29
1, 189036, Note_off_c, 0, 92, 65
1, 189073, Note_off_c, 0, 74, 36
1, 189103, Note_off_c, 0, 79, 36
1, 189124, Note_on_c, 0, 86, 61
1, 189126, Note_on_c, 0, 95, 63
1, 189138, Note_on_c, 0, 82, 48
1, 189144, Note_off_c, 0, 95, 61
1, 189146, Note_on_c, 0, 91, 42
1, 189146, Note_off_c, 0, 86, 57
1, 189148, Note_on_c, 0, 73, 54
1, 189170, Note_off_c, 0, 82, 57
1, 189180, Note_off_c, 0, 91, 36
1, 189185, Note_off_c, 0, 73, 63
1, 189251, Note_on_c, 0, 94, 79
1, 189265, Note_on_c, 0, 85, 62
1, 189270, Note_on_c, 0, 80, 59
1, 189280, Note_on_c, 0, 89, 54
1, 189286, Note_off_c, 0, 85, 63
1, 189286, Note_off_c, 0, 94, 58
1, 189286, Note_on_c, 0, 76, 42
1, 189299, Note_on_c, 0, 71, 33
1, 189299, Note_off_c, 0, 89, 63
1, 189300, Note_off_c, 0, 80, 51
1, 189328, Note_off_c, 0, 76, 46
1, 189334, Note_off_c, 0, 71, 52
1, 189377, Note_on_c, 0, 92, 81
1, 189396, Note_on_c, 0, 74, 45
1, 189396, Note_on_c, 0, 83, 52
1, 189397, Note_on_c, 0, 79, 56
1, 189405, Note_on_c, 0, 88, 45
1, 189405, Note_on_c, 0, 70, 58
1, 189415, Note_off_c, 0, 83, 59
1, 189417, Note_off_c, 0, 74, 58
1, 189418, Note_off_c, 0, 79, 62
1, 189421, Note_off_c, 0, 92, 55
1, 189430, Note_off_c, 0, 88, 48
1, 189439, Note_off_c, 0, 70, 66
1, 189504, Note_on_c, 0, 91, 83
1, 189513, Note_on_c, 0, 82, 72
1, 189518, Note_on_c, 0, 73, 61
1, 189523, Note_on_c, 0, 77, 53
1, 189531, Note_off_c, 0, 82, 65
1, 189533, Note_on_c, 0, 68, 49
1, 189540, Note_on_c, 0, 86, 37
1, 189542, Note_off_c, 0, 91, 55
1, 189546, Note_off_c, 0, 77, 60
1, 189554, Note_off_c, 0, 73, 61
1, 189563, Note_off_c, 0, 68, 58
1, 189569, Note_off_c, 0, 86, 49
1, 189629, Note_on_c, 0, 89, 79
1, 189636, Note_on_c, 0, 76, 64
1, 189637, Note_on_c, 0, 80, 69
1, 189643, Note_on_c, 0, 85, 63
1, 189653, Note_off_c, 0, 89, 64
1, 189661, Note_off_c, 0, 80, 69
1, 189665, Note_off_c, 0, 76, 66
1, 189672, Note_on_c, 0, 67, 19
1, 189672, Note_off_c, 0, 85, 64
1, 189710, Note_off_c, 0, 67, 45
1, 189748, Note_on_c, 0, 88, 87
1, 189757, Note_on_c, 0, 79, 70
1, 189760, Note_on_c, 0, 83, 74
1, 189770, Note_on_c, 0, 74, 55
1, 189775, Note_on_c, 0, 65, 57
1, 189775, Note_on_c, 0, 70, 54
1, 189783, Note_off_c, 0, 79, 66
1, 189785, Note_off_c, 0, 83, 63
1, 189790, Note_off_c, 0, 88, 63
1, 189791, Note_off_c, 0, 74, 66
1, 189799, Note_off_c, 0, 70, 61
1, 189809, Note_off_c, 0, 65, 66
1, 189875, Note_on_c, 0, 86, 93
1, 189882, Note_on_c, 0, 77, 75
1, 189882, Note_on_c, 0, 82, 82
1, 189888, Note_on_c, 0, 73, 62
1, 189891, Note_on_c, 0, 64, 61
1, 189914, Note_off_c, 0, 77, 66
1, 189921, Note_off_c, 0, 86, 64
1, 189924, Note_on_c, 0, 68, 44
1, 189933, Note_off_c, 0, 73, 58
1, 189936, Note_off_c, 0, 82, 63
1, 189951, Note_off_c, 0, 64, 53
1, 189951, Note_off_c, 0, 68, 56
1, 190003, Note_on_c, 0, 85, 95
1, 190009, Note_on_c, 0, 80, 83
1, 190011, Note_on_c, 0, 62, 59
1, 190012, Note_on_c, 0, 76, 73
1, 190016, Note_on_c, 0, 71, 67
1, 190032, Note_on_c, 0, 67, 59
1, 190037, Note_off_c, 0, 76, 67
1, 190042, Note_off_c, 0, 71, 66
1, 190046, Note_off_c, 0, 62, 61
1, 190052, Note_off_c, 0, 85, 63
1, 190061, Note_off_c, 0, 80, 62
1, 190117, Note_off_c, 0, 67, 55
1, 190127, Note_on_c, 0, 83, 84
1, 190133, Note_on_c, 0, 74, 69
1, 190133, Note_on_c, 0, 79, 77
1, 190140, Note_on_c, 0, 70, 70
1, 190148, Note_on_c, 0, 65, 46
1, 190151, Note_on_c, 0, 61, 70
1, 190166, Note_off_c, 0, 74, 64
1, 190167, Note_off_c, 0, 70, 66
1, 190170, Note_off_c, 0, 83, 52
1, 190175, Note_off_c, 0, 65, 56
1, 190179, Note_off_c, 0, 79, 64
1, 190198, Note_off_c, 0, 61, 60
1, 190249, Note_on_c, 0, 82, 87
1, 190264, Note_on_c, 0, 68, 77
1, 190264, Note_on_c, 0, 73, 71
1, 190267, Note_on_c, 0, 77, 65
1, 190273, Note_on_c, 0, 64, 62
1, 190278, Note_on_c, 0, 59, 57
1, 190281, Note_off_c, 0, 73, 68
1, 190296, Note_off_c, 0, 77, 65
1, 190297, Note_off_c, 0, 82, 62
1, 190299, Note_off_c, 0, 68, 60
1, 190321, Note_off_c, 0, 59, 56
1, 190339, Note_off_c, 0, 64, 44
1, 190373, Note_on_c, 0, 80, 94
1, 190386, Note_on_c, 0, 71, 71
1, 190391, Note_on_c, 0, 58, 72
1, 190395, Note_on_c, 0, 67, 68
1, 190402, Note_on_c, 0, 76, 49
1, 190410, Note_off_c, 0, 71, 68
1, 190411, Note_on_c, 0, 62, 5
1, 190421, Note_off_c, 0, 67, 67
1, 190424, Note_off_c, 0, 76, 65
1, 190431, Note_off_c, 0, 80, 62
1, 190441, Note_off_c, 0, 58, 64
1, 190466, Note_off_c, 0, 62, 34
1, 190468, Control_c, 0, 64, 117
1, 190483, Control_c, 0, 64, 94
1, 190490, Note_on_c, 0, 79, 91
1, 190497, Note_on_c, 0, 70, 90
1, 190498, Control_c, 0, 64, 78
1, 190499, Note_on_c, 0, 61, 78
1, 190505, Note_on_c, 0, 56, 73
1, 190505, Note_on_c, 0, 74, 77
1, 190511, Note_on_c, 0, 67, 54
1, 190512, Control_c, 0, 64, 65
1, 190516, Note_on_c, 0, 65, 62
1, 190527, Note_off_c, 0, 70, 62
1, 190527, Control_c, 0, 64, 60
1, 190530, Note_off_c, 0, 67, 63
1, 190533, Note_off_c, 0, 65, 67
1, 190538, Note_off_c, 0, 79, 65
1, 190538, Note_off_c, 0, 61, 61
1, 190541, Note_off_c, 0, 74, 64
1, 190542, Control_c, 0, 64, 67
1, 190547, Note_off_c, 0, 56, 61
1, 190556, Control_c, 0, 64, 76
1, 190571, Control_c, 0, 64, 87
1, 190586, Control_c, 0, 64, 96
1, 190601, Control_c, 0, 64, 100
1, 190616, Control_c, 0, 64, 103
1, 190619, Note_on_c, 0, 64, 72
1, 190619, Note_on_c, 0, 77, 90
1, 190624, Note_on_c, 0, 68, 82
1, 190625, Note_on_c, 0, 73, 80
1, 190628, Note_on_c, 0, 55, 58
1, 190631, Control_c, 0, 64, 104
1, 190645, Note_off_c, 0, 64, 67
1, 190645, Control_c, 0, 64, 107
1, 190660, Note_off_c, 0, 68, 64
1, 190667, Note_off_c, 0, 77, 61
1, 190668, Control_c, 0, 64, 108
1, 190669, Note_off_c, 0, 55, 60
1, 190681, Note_off_c, 0, 73, 63
1, 190683, Control_c, 0, 64, 110
1, 190693, Poly_aftertouch_c, 0, 59, 127
1, 190698, Control_c, 0, 64, 112
1, 190712, Control_c, 0, 64, 113
1, 190727, Control_c, 0, 64, 114
1, 190734, Poly_aftertouch_c, 0, 59, 0
1, 190742, Control_c, 0, 64, 115
1, 190744, Note_on_c, 0, 62, 76
1, 190747, Note_on_c, 0, 76, 94
1, 190748, Note_on_c, 0, 53, 65
1, 190748, Note_on_c, 0, 67, 88
1, 190756, Note_on_c, 0, 58, 64
1, 190756, Note_on_c, 0, 71, 77
1, 190757, Control_c, 0, 64, 118
1, 190771, Control_c, 0, 64, 123
1, 190772, Note_off_c, 0, 62, 65
1, 190776, Note_off_c, 0, 67, 62
1, 190780, Note_off_c, 0, 71, 66
1, 190783, Note_off_c, 0, 58, 66
1, 190784, Note_off_c, 0, 53, 65
1, 190784, Note_off_c, 0, 76, 65
1, 190787, Control_c, 0, 64, 127
1, 190865, Note_on_c, 0, 61, 78
1, 190868, Note_on_c, 0, 74, 98
1, 190870, Note_on_c, 0, 65, 93
1, 190878, Note_on_c, 0, 70, 82
1, 190883, Note_on_c, 0, 52, 49
1, 190888, Note_on_c, 0, 56, 46
1, 190896, Note_off_c, 0, 65, 66
1, 190899, Note_off_c, 0, 61, 57
1, 190905, Note_off_c, 0, 74, 68
1, 190924, Note_off_c, 0, 56, 52
1, 190928, Note_off_c, 0, 70, 62
1, 190931, Note_off_c, 0, 52, 57
1, 190987, Note_on_c, 0, 73, 103
1, 190988, Note_on_c, 0, 64, 101
1, 190988, Note_on_c, 0, 68, 101
1, 190993, Note_on_c, 0, 59, 86
1, 190997, Note_on_c, 0, 50, 72
1, 191001, Note_on_c, 0, 55, 73
1, 191003, Note_off_c, 0, 64, 77
1, 191021, Note_off_c, 0, 68, 52
1, 191027, Note_off_c, 0, 73, 54
1, 191029, Note_off_c, 0, 55, 66
1, 191029, Note_off_c, 0, 59, 60
1, 191048, Note_off_c, 0, 50, 63
1, 191102, Poly_aftertouch_c, 0, 74, 0
1, 191187, Control_c, 0, 64, 118
1, 191202, Control_c, 0, 64, 98
1, 191217, Control_c, 0, 64, 77
1, 191232, Control_c, 0, 64, 0
1, 191286, Note_on_c, 0, 56, 100
1, 191294, Note_on_c, 0, 53, 80
1, 191300, Note_on_c, 0, 45, 79
1, 191317, Note_on_c, 0, 48, 56
1, 191321, Control_c, 0, 64, 69
1, 191335, Control_c, 0, 64, 87
1, 191338, Note_on_c, 0, 60, 43
1, 191338, Note_off_c, 0, 53, 66
1, 191344, Note_off_c, 0, 56, 64
1, 191345, Note_off_c, 0, 48, 66
1, 191350, Control_c, 0, 64, 112
1, 191365, Control_c, 0, 64, 121
1, 191366, Note_off_c, 0, 45, 64
1, 191375, Note_off_c, 0, 60, 47
1, 191433, Note_on_c, 0, 68, 79
1, 191441, Note_on_c, 0, 60, 56
1, 191447, Control_c, 0, 64, 121
1, 191448, Note_on_c, 0, 57, 64
1, 191459, Note_off_c, 0, 68, 65
1, 191461, Control_c, 0, 64, 117
1, 191471, Note_off_c, 0, 57, 64
1, 191476, Control_c, 0, 64, 103
1, 191482, Note_off_c, 0, 60, 63
1, 191491, Control_c, 0, 64, 83
1, 191505, Control_c, 0, 64, 22
1, 191520, Control_c, 0, 64, 0
1, 191558, Note_on_c, 0, 53, 82
1, 191559, Note_on_c, 0, 51, 83
1, 191562, Note_on_c, 0, 65, 79
1, 191564, Note_on_c, 0, 54, 86
1, 191575, Note_on_c, 0, 42, 65
1, 191577, Note_on_c, 0, 63, 49
1, 191578, Note_off_c, 0, 63, 127
1, 191590, Note_off_c, 0, 53, 67
1, 191599, Note_off_c, 0, 54, 62
1, 191605, Note_off_c, 0, 65, 65
1, 191607, Note_off_c, 0, 51, 59
1, 191616, Note_off_c, 0, 42, 66
1, 191689, Note_on_c, 0, 48, 103
1, 191694, Note_on_c, 0, 41, 83
1, 191695, Note_on_c, 0, 45, 84
1, 191729, Control_c, 0, 64, 68
1, 191730, Note_off_c, 0, 41, 66
1, 191739, Note_off_c, 0, 45, 61
1, 191744, Control_c, 0, 64, 101
1, 191748, Note_off_c, 0, 48, 64
1, 191758, Control_c, 0, 64, 127
1, 191829, Note_on_c, 0, 60, 83
1, 191833, Note_on_c, 0, 57, 63
1, 191850, Note_off_c, 0, 60, 70
1, 191853, Note_off_c, 0, 57, 63
1, 191877, Control_c, 0, 64, 121
1, 191891, Control_c, 0, 64, 102
1, 191906, Control_c, 0, 64, 79
1, 191921, Control_c, 0, 64, 0
1, 191949, Note_on_c, 0, 57, 78
1, 191952, Note_on_c, 0, 62, 106
1, 191961, Note_on_c, 0, 48, 77
1, 191961, Note_on_c, 0, 53, 76
1, 191983, Note_on_c, 0, 65, 62
1, 191996, Control_c, 0, 64, 75
1, 192010, Control_c, 0, 64, 97
1, 192011, Note_off_c, 0, 65, 53
1, 192025, Control_c, 0, 64, 122
1, 192040, Control_c, 0, 64, 124
1, 192079, Poly_aftertouch_c, 0, 51, 0
1, 192089, Note_on_c, 0, 65, 63
1, 192091, Note_off_c, 0, 57, 59
1, 192091, Note_on_c, 0, 60, 75
1, 192093, Note_on_c, 0, 74, 68
1, 192099, Control_c, 0, 64, 124
1, 192100, Note_off_c, 0, 62, 58
1, 192111, Note_on_c, 0, 69, 44
1, 192111, Note_off_c, 0, 48, 58
1, 192112, Note_off_c, 0, 74, 65
1, 192114, Note_off_c, 0, 53, 61
1, 192115, Control_c, 0, 64, 123
1, 192116, Note_off_c, 0, 60, 67
1, 192126, Note_off_c, 0, 65, 67
1, 192129, Control_c, 0, 64, 115
1, 192138, Note_off_c, 0, 69, 51
1, 192144, Control_c, 0, 64, 98
1, 192166, Control_c, 0, 64, 77
1, 192181, Control_c, 0, 64, 0
1, 192211, Note_on_c, 0, 60, 87
1, 192213, Note_on_c, 0, 51, 70
1, 192213, Note_on_c, 0, 54, 80
1, 192215, Note_on_c, 0, 72, 77
1, 192219, Note_on_c, 0, 63, 68
1, 192226, Note_on_c, 0, 66, 62
1, 192236, Note_on_c, 0, 47, 57
1, 192246, Note_off_c, 0, 63, 66
1, 192248, Note_off_c, 0, 66, 60
1, 192252, Note_on_c, 0, 70, 33
1, 192252, Note_off_c, 0, 51, 60
1, 192252, Note_off_c, 0, 60, 61
1, 192254, Note_off_c, 0, 72, 65
1, 192261, Note_off_c, 0, 47, 61
1, 192269, Note_off_c, 0, 54, 61
1, 192284, Note_off_c, 0, 70, 33
1, 192339, Note_on_c, 0, 59, 99
1, 192345, Note_on_c, 0, 53, 84
1, 192345, Note_on_c, 0, 45, 83
1, 192352, Note_on_c, 0, 48, 74
1, 192366, Note_off_c, 0, 53, 71
1, 192372, Note_off_c, 0, 59, 60
1, 192374, Control_c, 0, 64, 75
1, 192377, Note_off_c, 0, 45, 66
1, 192385, Note_off_c, 0, 48, 67
1, 192389, Control_c, 0, 64, 114
1, 192404, Control_c, 0, 64, 127
1, 192470, Note_on_c, 0, 57, 39
1, 192489, Note_on_c, 0, 66, 41
1, 192490, Note_off_c, 0, 66, 127
1, 192496, Note_on_c, 0, 65, 73
1, 192498, Note_on_c, 0, 60, 42
1, 192500, Note_off_c, 0, 57, 53
1, 192505, Note_on_c, 0, 71, 77
1, 192508, Control_c, 0, 64, 113
1, 192515, Note_off_c, 0, 65, 68
1, 192517, Poly_aftertouch_c, 0, 66, 0
1, 192523, Control_c, 0, 64, 88
1, 192526, Note_off_c, 0, 60, 57
1, 192526, Note_off_c, 0, 71, 68
1, 192538, Control_c, 0, 64, 49
1, 192552, Control_c, 0, 64, 0
1, 192614, Note_on_c, 0, 68, 111
1, 192615, Note_on_c, 0, 65, 81
1, 192617, Note_on_c, 0, 57, 77
1, 192632, Note_on_c, 0, 60, 66
1, 192641, Control_c, 0, 64, 75
1, 192656, Control_c, 0, 64, 127
1, 192661, Note_off_c, 0, 68, 66
1, 192664, Note_off_c, 0, 65, 66
1, 192666, Note_off_c, 0, 60, 61
1, 192678, Note_off_c, 0, 57, 62
1, 192747, Note_on_c, 0, 72, 21
1, 192763, Note_on_c, 0, 80, 74
1, 192768, Note_on_c, 0, 69, 80
1, 192784, Note_off_c, 0, 72, 62
1, 192789, Control_c, 0, 64, 111
1, 192793, Note_off_c, 0, 80, 61
1, 192804, Note_off_c, 0, 69, 62
1, 192804, Control_c, 0, 64, 79
1, 192819, Control_c, 0, 64, 0
1, 192868, Note_on_c, 0, 65, 98
1, 192872, Note_on_c, 0, 60, 83
1, 192876, Note_on_c, 0, 57, 79
1, 192878, Note_on_c, 0, 53, 84
1, 192908, Note_off_c, 0, 65, 70
1, 192909, Note_off_c, 0, 60, 66
1, 192915, Control_c, 0, 64, 68
1, 192930, Control_c, 0, 64, 103
1, 192940, Note_off_c, 0, 57, 60
1, 192945, Control_c, 0, 64, 127
1, 192952, Note_off_c, 0, 53, 67
1, 193021, Note_on_c, 0, 65, 75
1, 193024, Note_on_c, 0, 72, 70
1, 193030, Note_on_c, 0, 69, 60
1, 193030, Note_on_c, 0, 77, 63
1, 193034, Note_off_c, 0, 65, 71
1, 193049, Note_off_c, 0, 69, 66
1, 193054, Note_off_c, 0, 72, 66
1, 193076, Note_off_c, 0, 77, 61
1, 193176, Note_on_c, 0, 77, 106
1, 193177, Note_on_c, 0, 89, 103
1, 193179, Note_on_c, 0, 41, 93
1, 193182, Note_on_c, 0, 81, 89
1, 193185, Note_on_c, 0, 29, 82
1, 193186, Note_on_c, 0, 36, 78
1, 193190, Note_off_c, 0, 77, 78
1, 193191, Note_on_c, 0, 33, 73
1, 193200, Note_on_c, 0, 83, 51
1, 193200, Note_off_c, 0, 81, 71
1, 193209, Note_off_c, 0, 41, 70
1, 193211, Note_off_c, 0, 36, 66
1, 193216, Note_off_c, 0, 89, 60
1, 193220, Note_off_c, 0, 29, 60
1, 193221, Note_off_c, 0, 33, 63
1, 193221, Note_off_c, 0, 83, 39
1, 193553, Control_c, 0, 64, 110
1, 193565, Note_on_c, 0, 29, 51
1, 193568, Control_c, 0, 64, 91
1, 193571, Note_on_c, 0, 98, 77
1, 193582, Note_on_c, 0, 93, 65
1, 193582, Control_c, 0, 64, 72
1, 193594, Note_on_c, 0, 24, 16
1, 193597, Control_c, 0, 64, 0
1, 193602, Note_off_c, 0, 93, 58
1, 193607, Note_off_c, 0, 29, 63
1, 193610, Note_on_c, 0, 89, 57
1, 193612, Note_on_c, 0, 96, 43
1, 193614, Note_off_c, 0, 98, 65
1, 193624, Note_on_c, 0, 33, 62
1, 193636, Note_off_c, 0, 96, 58
1, 193640, Note_off_c, 0, 24, 49
1, 193641, Control_c, 0, 64, 58
1, 193642, Note_off_c, 0, 89, 59
1, 193662, Note_off_c, 0, 33, 65
1, 193663, Control_c, 0, 64, 69
1, 193678, Control_c, 0, 64, 74
1, 193693, Control_c, 0, 64, 81
1, 193708, Control_c, 0, 64, 86
1, 193723, Control_c, 0, 64, 90
1, 193734, Note_on_c, 0, 89, 71
1, 193736, Note_on_c, 0, 96, 67
1, 193737, Control_c, 0, 64, 93
1, 193751, Note_on_c, 0, 33, 51
1, 193752, Control_c, 0, 64, 95
1, 193760, Note_on_c, 0, 26, 31
1, 193767, Control_c, 0, 64, 97
1, 193773, Note_off_c, 0, 89, 58
1, 193778, Note_off_c, 0, 96, 54
1, 193781, Control_c, 0, 64, 97
1, 193796, Control_c, 0, 64, 98
1, 193811, Control_c, 0, 64, 98
1, 193817, Note_off_c, 0, 26, 47
1, 193859, Note_on_c, 0, 93, 77
1, 193861, Note_on_c, 0, 86, 71
1, 193886, Note_off_c, 0, 93, 64
1, 193888, Note_on_c, 0, 29, 35
1, 193889, Note_off_c, 0, 86, 64
1, 193890, Note_on_c, 0, 36, 49
1, 193895, Note_off_c, 0, 33, 36
1, 193924, Note_off_c, 0, 36, 64
1, 193928, Note_off_c, 0, 29, 53
1, 193984, Note_on_c, 0, 93, 84
1, 193985, Note_on_c, 0, 86, 82
1, 194012, Note_on_c, 0, 29, 48
1, 194019, Note_off_c, 0, 86, 63
1, 194022, Note_on_c, 0, 36, 46
1, 194032, Note_off_c, 0, 93, 55
1, 194070, Note_off_c, 0, 36, 54
1, 194090, Note_off_c, 0, 29, 40
1, 194094, Control_c, 0, 64, 99
1, 194100, Note_on_c, 0, 84, 90
1, 194100, Note_on_c, 0, 89, 92
1, 194108, Note_on_c, 0, 38, 80
1, 194109, Control_c, 0, 64, 99
1, 194111, Note_on_c, 0, 33, 68
1, 194123, Control_c, 0, 64, 100
1, 194133, Note_off_c, 0, 84, 64
1, 194138, Note_off_c, 0, 33, 66
1, 194138, Note_off_c, 0, 89, 65
1, 194138, Control_c, 0, 64, 101
1, 194151, Note_off_c, 0, 38, 62
1, 194153, Control_c, 0, 64, 101
1, 194227, Control_c, 0, 64, 102
1, 194242, Control_c, 0, 64, 102
1, 194257, Control_c, 0, 64, 103
1, 194301, Control_c, 0, 64, 102
1, 194316, Control_c, 0, 64, 91
1, 194330, Control_c, 0, 64, 74
1, 194345, Control_c, 0, 64, 0
1, 194360, Note_on_c, 0, 62, 105
1, 194361, Note_on_c, 0, 57, 84
1, 194369, Note_on_c, 0, 53, 81
1, 194372, Note_on_c, 0, 48, 77
1, 194412, Control_c, 0, 64, 68
1, 194424, Note_off_c, 0, 62, 61
1, 194425, Note_on_c, 0, 66, 8
1, 194427, Control_c, 0, 64, 77
1, 194435, Note_off_c, 0, 57, 63
1, 194442, Control_c, 0, 64, 86
1, 194445, Note_off_c, 0, 53, 65
1, 194457, Control_c, 0, 64, 90
1, 194468, Note_off_c, 0, 48, 65
1, 194471, Note_off_c, 0, 66, 44
1, 194472, Control_c, 0, 64, 91
1, 194486, Control_c, 0, 64, 92
1, 194501, Control_c, 0, 64, 93
1, 194510, Note_on_c, 0, 60, 75
1, 194512, Note_on_c, 0, 74, 58
1, 194516, Control_c, 0, 64, 94
1, 194523, Note_on_c, 0, 65, 56
1, 194532, Note_off_c, 0, 74, 65
1, 194546, Note_off_c, 0, 65, 64
1, 194560, Control_c, 0, 64, 93
1, 194564, Note_off_c, 0, 60, 58
1, 194575, Control_c, 0, 64, 87
1, 194590, Control_c, 0, 64, 72
1, 194604, Control_c, 0, 64, 0
1, 194640, Note_on_c, 0, 59, 96
1, 194641, Note_on_c, 0, 53, 88
1, 194649, Control_c, 0, 64, 50
1, 194655, Note_on_c, 0, 45, 74
1, 194664, Control_c, 0, 64, 72
1, 194670, Note_on_c, 0, 48, 60
1, 194675, Note_off_c, 0, 59, 66
1, 194679, Control_c, 0, 64, 83
1, 194690, Note_off_c, 0, 53, 66
1, 194694, Control_c, 0, 64, 96
1, 194704, Note_off_c, 0, 48, 65
1, 194709, Control_c, 0, 64, 98
1, 194722, Note_off_c, 0, 45, 64
1, 194738, Control_c, 0, 64, 99
1, 194742, Note_on_c, 0, 60, 30
1, 194744, Note_on_c, 0, 57, 69
1, 194771, Note_off_c, 0, 57, 63
1, 194775, Note_on_c, 0, 65, 69
1, 194795, Note_off_c, 0, 60, 63
1, 194804, Note_on_c, 0, 71, 74
1, 194806, Note_off_c, 0, 65, 68
1, 194827, Note_off_c, 0, 71, 69
1, 194878, Note_on_c, 0, 69, 80
1, 194890, Note_on_c, 0, 72, 81
1, 194894, Note_off_c, 0, 69, 71
1, 194909, Note_off_c, 0, 72, 62
1, 194915, Note_on_c, 0, 47, 94
1, 194915, Note_on_c, 0, 83, 95
1, 194917, Note_on_c, 0, 41, 84
1, 194917, Note_on_c, 0, 76, 57
1, 194928, Note_on_c, 0, 33, 69
1, 194934, Note_on_c, 0, 36, 56
1, 194935, Note_off_c, 0, 76, 61
1, 194943, Note_off_c, 0, 83, 66
1, 194947, Control_c, 0, 64, 99
1, 194952, Note_off_c, 0, 33, 63
1, 194953, Note_off_c, 0, 41, 67
1, 194962, Control_c, 0, 64, 100
1, 194963, Note_off_c, 0, 47, 64
1, 194964, Note_off_c, 0, 36, 64
1, 195006, Control_c, 0, 64, 96
1, 195021, Control_c, 0, 64, 84
1, 195036, Control_c, 0, 64, 64
1, 195051, Control_c, 0, 64, 0
1, 195054, Note_on_c, 0, 50, 103
1, 195057, Note_on_c, 0, 41, 92
1, 195060, Note_on_c, 0, 48, 87
1, 195087, Note_off_c, 0, 48, 65
1, 195095, Control_c, 0, 64, 23
1, 195098, Note_off_c, 0, 50, 61
1, 195103, Note_off_c, 0, 41, 63
1, 195111, Control_c, 0, 64, 68
1, 195126, Note_on_c, 0, 56, 39
1, 195127, Note_off_c, 0, 56, 127
1, 195127, Control_c, 0, 64, 78
1, 195141, Control_c, 0, 64, 90
1, 195162, Poly_aftertouch_c, 0, 56, 0
1, 195162, Control_c, 0, 64, 96
1, 195177, Control_c, 0, 64, 97
1, 195205, Note_on_c, 0, 57, 81
1, 195207, Note_on_c, 0, 62, 92
1, 195229, Note_off_c, 0, 57, 67
1, 195236, Control_c, 0, 64, 96
1, 195251, Control_c, 0, 64, 90
1, 195252, Note_off_c, 0, 62, 66
1, 195266, Control_c, 0, 64, 74
1, 195281, Control_c, 0, 64, 0
1, 195332, Note_on_c, 0, 56, 108
1, 195337, Note_on_c, 0, 53, 83
1, 195346, Note_on_c, 0, 45, 73
1, 195360, Note_on_c, 0, 48, 58
1, 195370, Control_c, 0, 64, 67
1, 195379, Note_off_c, 0, 56, 66
1, 195385, Control_c, 0, 64, 78
1, 195391, Note_off_c, 0, 53, 65
1, 195400, Control_c, 0, 64, 86
1, 195400, Note_off_c, 0, 48, 64
1, 195415, Control_c, 0, 64, 90
1, 195417, Note_off_c, 0, 45, 64
1, 195429, Control_c, 0, 64, 91
1, 195444, Control_c, 0, 64, 92
1, 195459, Control_c, 0, 64, 94
1, 195469, Note_on_c, 0, 68, 81
1, 195470, Note_on_c, 0, 60, 50
1, 195474, Control_c, 0, 64, 96
1, 195478, Note_on_c, 0, 65, 52
1, 195489, Control_c, 0, 64, 98
1, 195498, Note_off_c, 0, 60, 63
1, 195501, Note_off_c, 0, 65, 65
1, 195503, Control_c, 0, 64, 100
1, 195518, Control_c, 0, 64, 101
1, 195523, Note_off_c, 0, 68, 64
1, 195533, Control_c, 0, 64, 105
1, 195548, Control_c, 0, 64, 109
1, 195562, Control_c, 0, 64, 115
1, 195578, Control_c, 0, 64, 118
1, 195593, Control_c, 0, 64, 119
1, 195608, Control_c, 0, 64, 120
1, 195623, Control_c, 0, 64, 120
1, 195638, Control_c, 0, 64, 121
1, 195652, Control_c, 0, 64, 126
1, 195656, Note_on_c, 0, 77, 92
1, 195656, Note_on_c, 0, 80, 103
1, 195656, Note_on_c, 0, 72, 94
1, 195657, Note_on_c, 0, 69, 104
1, 195667, Control_c, 0, 64, 127
1, 195669, Note_on_c, 0, 44, 96
1, 195680, Note_on_c, 0, 33, 71
1, 195681, Note_on_c, 0, 41, 70
1, 195682, Note_on_c, 0, 40, 71
1, 195690, Note_on_c, 0, 36, 49
1, 195705, Note_off_c, 0, 33, 66
1, 195710, Note_off_c, 0, 69, 59
1, 195714, Note_off_c, 0, 80, 65
1, 195724, Note_off_c, 0, 36, 63
1, 195727, Note_off_c, 0, 41, 60
1, 195727, Note_off_c, 0, 77, 62
1, 195728, Note_off_c, 0, 40, 61
1, 195740, Note_off_c, 0, 72, 64
1, 195748, Note_off_c, 0, 44, 62
1, 195966, Note_on_c, 0, 70, 38
1, 195971, Control_c, 0, 64, 125
1, 195985, Control_c, 0, 64, 103
1, 195996, Note_off_c, 0, 70, 63
1, 196000, Control_c, 0, 64, 83
1, 196015, Control_c, 0, 64, 0
1, 196058, Note_on_c, 0, 60, 103
1, 196058, Note_on_c, 0, 72, 96
1, 196059, Note_on_c, 0, 58, 94
1, 196062, Note_on_c, 0, 55, 83
1, 196064, Note_on_c, 0, 63, 93
1, 196064, Note_on_c, 0, 67, 85
1, 196067, Note_on_c, 0, 51, 71
1, 196072, Note_on_c, 0, 46, 81
1, 196103, Note_off_c, 0, 72, 63
1, 196103, Control_c, 0, 64, 75
1, 196109, Note_off_c, 0, 67, 61
1, 196111, Note_off_c, 0, 55, 62
1, 196114, Note_on_c, 0, 69, 8
1, 196118, Control_c, 0, 64, 92
1, 196124, Note_off_c, 0, 60, 63
1, 196124, Note_off_c, 0, 63, 65
1, 196133, Control_c, 0, 64, 109
1, 196148, Control_c, 0, 64, 111
1, 196152, Note_off_c, 0, 58, 58
1, 196163, Control_c, 0, 64, 112
1, 196166, Note_off_c, 0, 46, 54
1, 196171, Note_off_c, 0, 69, 42
1, 196178, Control_c, 0, 64, 114
1, 196193, Control_c, 0, 64, 117
1, 196206, Note_off_c, 0, 51, 31
1, 196208, Control_c, 0, 64, 121
1, 196223, Control_c, 0, 64, 123
1, 196252, Control_c, 0, 64, 115
1, 196267, Control_c, 0, 64, 93
1, 196282, Control_c, 0, 64, 67
1, 196296, Control_c, 0, 64, 0
1, 196302, Note_on_c, 0, 58, 110
1, 196302, Note_on_c, 0, 70, 97
1, 196303, Note_on_c, 0, 61, 95
1, 196307, Note_on_c, 0, 66, 88
1, 196309, Note_on_c, 0, 57, 93
1, 196310, Note_on_c, 0, 54, 85
1, 196317, Note_on_c, 0, 49, 65
1, 196321, Note_on_c, 0, 45, 79
1, 196341, Control_c, 0, 64, 69
1, 196351, Note_off_c, 0, 49, 66
1, 196356, Control_c, 0, 64, 82
1, 196360, Note_off_c, 0, 57, 59
1, 196364, Note_off_c, 0, 54, 61
1, 196372, Note_off_c, 0, 66, 66
1, 196372, Control_c, 0, 64, 94
1, 196380, Note_off_c, 0, 70, 60
1, 196386, Note_off_c, 0, 45, 61
1, 196387, Control_c, 0, 64, 97
1, 196390, Poly_aftertouch_c, 0, 68, 127
1, 196399, Note_off_c, 0, 61, 63
1, 196401, Note_off_c, 0, 58, 58
1, 196422, Poly_aftertouch_c, 0, 68, 0
1, 196490, Control_c, 0, 64, 92
1, 196505, Control_c, 0, 64, 76
1, 196520, Control_c, 0, 64, 0
1, 196532, Note_on_c, 0, 57, 116
1, 196532, Note_on_c, 0, 60, 93
1, 196532, Note_on_c, 0, 69, 97
1, 196536, Note_on_c, 0, 52, 95
1, 196536, Note_on_c, 0, 55, 117
1, 196538, Note_on_c, 0, 64, 87
1, 196541, Note_on_c, 0, 43, 88
1, 196542, Note_on_c, 0, 48, 82
1, 196547, Note_on_c, 0, 46, 84
1, 196563, Note_on_c, 0, 67, 51
1, 196675, Note_off_c, 0, 67, 42
1, 196705, Control_c, 0, 64, 60
1, 196720, Control_c, 0, 64, 64
1, 196730, Note_off_c, 0, 57, 54
1, 196744, Note_off_c, 0, 55, 56
1, 196749, Control_c, 0, 64, 67
1, 196750, Note_off_c, 0, 52, 61
1, 196764, Control_c, 0, 64, 70
1, 196768, Note_off_c, 0, 60, 56
1, 196774, Note_off_c, 0, 48, 54
1, 196779, Control_c, 0, 64, 74
1, 196794, Control_c, 0, 64, 78
1, 196805, Note_off_c, 0, 69, 57
1, 196808, Control_c, 0, 64, 81
1, 196810, Note_off_c, 0, 46, 53
1, 196818, Note_off_c, 0, 43, 60
1, 196823, Control_c, 0, 64, 81
1, 196823, Control_c, 0, 67, 11
1, 196838, Control_c, 0, 64, 82
1, 196838, Control_c, 0, 67, 9
1, 196841, Note_off_c, 0, 64, 56
1, 196853, Control_c, 0, 64, 84
1, 196868, Control_c, 0, 64, 86
1, 196868, Control_c, 0, 67, 10
1, 196882, Control_c, 0, 64, 87
1, 196882, Control_c, 0, 67, 12
1, 196897, Control_c, 0, 64, 89
1, 196897, Control_c, 0, 67, 16
1, 196912, Control_c, 0, 64, 89
1, 196912, Control_c, 0, 67, 24
1, 196926, Control_c, 0, 67, 33
1, 196941, Control_c, 0, 64, 90
1, 196941, Control_c, 0, 67, 39
1, 196956, Control_c, 0, 64, 91
1, 196956, Control_c, 0, 67, 43
1, 196971, Control_c, 0, 64, 92
1, 196971, Control_c, 0, 67, 50
1, 196986, Control_c, 0, 64, 93
1, 196986, Control_c, 0, 67, 58
1, 197001, Control_c, 0, 64, 96
1, 197001, Control_c, 0, 67, 68
1, 197016, Control_c, 0, 64, 98
1, 197016, Control_c, 0, 67, 79
1, 197031, Control_c, 0, 64, 100
1, 197031, Control_c, 0, 67, 92
1, 197045, Control_c, 0, 64, 102
1, 197045, Control_c, 0, 67, 104
1, 197060, Control_c, 0, 64, 104
1, 197060, Control_c, 0, 67, 117
1, 197075, Control_c, 0, 64, 106
1, 197075, Control_c, 0, 67, 126
1, 197090, Control_c, 0, 64, 108
1, 197090, Control_c, 0, 67, 127
1, 197105, Control_c, 0, 64, 109
1, 197119, Control_c, 0, 64, 110
1, 197134, Control_c, 0, 64, 111
1, 197149, Control_c, 0, 64, 113
1, 197164, Control_c, 0, 64, 115
1, 197180, Control_c, 0, 64, 117
1, 197194, Control_c, 0, 64, 119
1, 197209, Control_c, 0, 64, 119
1, 197224, Control_c, 0, 64, 120
1, 197239, Control_c, 0, 64, 120
1, 197289, Note_on_c, 0, 99, 65
1, 197309, Note_on_c, 0, 21, 42
1, 197320, Note_on_c, 0, 91, 69
1, 197321, Note_on_c, 0, 96, 68
1, 197323, Note_on_c, 0, 94, 42
1, 197323, Note_off_c, 0, 99, 67
1, 197326, Note_on_c, 0, 22, 42
1, 197341, Note_on_c, 0, 28, 55
1, 197347, Note_off_c, 0, 94, 49
1, 197347, Note_off_c, 0, 21, 56
1, 197349, Note_off_c, 0, 96, 63
1, 197358, Note_off_c, 0, 91, 56
1, 197364, Note_off_c, 0, 22, 42
1, 197376, Note_off_c, 0, 28, 61
1, 197378, Poly_aftertouch_c, 0, 24, 0
1, 197455, Note_on_c, 0, 91, 69
1, 197463, Note_on_c, 0, 96, 58
1, 197490, Note_off_c, 0, 96, 58
1, 197493, Note_off_c, 0, 91, 52
1, 197539, Poly_aftertouch_c, 0, 28, 127
1, 197581, Note_on_c, 0, 88, 68
1, 197582, Poly_aftertouch_c, 0, 28, 0
1, 197591, Note_on_c, 0, 94, 52
1, 197595, Note_on_c, 0, 31, 59
1, 197610, Note_off_c, 0, 94, 62
1, 197617, Note_off_c, 0, 88, 63
1, 197624, Note_off_c, 0, 31, 63
1, 197698, Note_on_c, 0, 94, 73
1, 197703, Note_on_c, 0, 88, 72
1, 197711, Note_on_c, 0, 24, 43
1, 197727, Note_on_c, 0, 31, 41
1, 197767, Note_off_c, 0, 24, 57
1, 197773, Note_off_c, 0, 88, 49
1, 197775, Note_off_c, 0, 94, 65
1, 197808, Note_off_c, 0, 31, 60
1, 197835, Note_on_c, 0, 34, 61
1, 197838, Note_on_c, 0, 84, 53
1, 197845, Note_on_c, 0, 91, 17
1, 197859, Note_off_c, 0, 84, 60
1, 197864, Note_off_c, 0, 34, 65
1, 197885, Note_off_c, 0, 91, 30
1, 197909, Note_on_c, 0, 91, 72
1, 197916, Note_on_c, 0, 84, 80
1, 197931, Note_on_c, 0, 88, 75
1, 197937, Note_on_c, 0, 28, 56
1, 197937, Note_on_c, 0, 34, 56
1, 197945, Note_on_c, 0, 82, 75
1, 197964, Note_off_c, 0, 91, 58
1, 197966, Note_off_c, 0, 84, 62
1, 197968, Note_off_c, 0, 34, 64
1, 197970, Note_on_c, 0, 36, 64
1, 197975, Note_off_c, 0, 28, 61
1, 197982, Note_on_c, 0, 31, 41
1, 197984, Note_off_c, 0, 88, 62
1, 197996, Note_off_c, 0, 82, 65
1, 198012, Note_off_c, 0, 31, 53
1, 198014, Note_off_c, 0, 36, 63
1, 198046, Control_c, 0, 67, 124
1, 198061, Control_c, 0, 67, 113
1, 198071, Note_on_c, 0, 82, 74
1, 198076, Control_c, 0, 67, 99
1, 198081, Note_on_c, 0, 88, 63
1, 198091, Control_c, 0, 67, 87
1, 198097, Note_on_c, 0, 31, 56
1, 198106, Control_c, 0, 67, 77
1, 198110, Note_off_c, 0, 88, 63
1, 198113, Note_on_c, 0, 36, 46
1, 198120, Control_c, 0, 67, 69
1, 198126, Note_off_c, 0, 82, 63
1, 198135, Control_c, 0, 67, 64
1, 198139, Note_off_c, 0, 31, 57
1, 198157, Control_c, 0, 67, 59
1, 198172, Note_off_c, 0, 36, 60
1, 198172, Control_c, 0, 67, 54
1, 198187, Control_c, 0, 67, 50
1, 198199, Note_on_c, 0, 79, 73
1, 198201, Note_on_c, 0, 84, 73
1, 198202, Control_c, 0, 64, 121
1, 198202, Control_c, 0, 67, 48
1, 198217, Control_c, 0, 64, 125
1, 198217, Control_c, 0, 67, 46
1, 198220, Note_on_c, 0, 40, 61
1, 198226, Note_off_c, 0, 84, 70
1, 198232, Control_c, 0, 64, 127
1, 198232, Control_c, 0, 67, 44
1, 198232, Note_off_c, 0, 79, 61
1, 198247, Control_c, 0, 67, 42
1, 198261, Control_c, 0, 67, 41
1, 198262, Note_off_c, 0, 40, 62
1, 198276, Control_c, 0, 67, 40
1, 198292, Poly_aftertouch_c, 0, 34, 0
1, 198315, Note_on_c, 0, 34, 34
1, 198320, Note_on_c, 0, 84, 73
1, 198328, Note_on_c, 0, 79, 74
1, 198335, Control_c, 0, 67, 40
1, 198362, Note_off_c, 0, 79, 58
1, 198365, Control_c, 0, 67, 40
1, 198378, Note_off_c, 0, 84, 62
1, 198384, Note_off_c, 0, 34, 64
1, 198398, Note_on_c, 0, 40, 31
1, 198436, Note_on_c, 0, 82, 74
1, 198440, Note_on_c, 0, 76, 74
1, 198442, Note_off_c, 0, 40, 61
1, 198450, Note_on_c, 0, 43, 64
1, 198458, Note_off_c, 0, 82, 68
1, 198470, Note_off_c, 0, 76, 67
1, 198477, Note_off_c, 0, 43, 63
1, 198483, Control_c, 0, 67, 39
1, 198512, Control_c, 0, 67, 39
1, 198527, Note_on_c, 0, 82, 89
1, 198527, Control_c, 0, 64, 100
1, 198527, Control_c, 0, 67, 38
1, 198529, Note_on_c, 0, 76, 83
1, 198541, Note_on_c, 0, 36, 58
1, 198542, Control_c, 0, 64, 79
1, 198557, Note_on_c, 0, 43, 58
1, 198557, Control_c, 0, 64, 50
1, 198569, Note_off_c, 0, 76, 67
1, 198571, Note_on_c, 0, 72, 79
1, 198572, Control_c, 0, 64, 0
1, 198575, Note_on_c, 0, 79, 70
1, 198587, Note_off_c, 0, 82, 66
1, 198587, Control_c, 0, 67, 38
1, 198602, Control_c, 0, 64, 41
1, 198602, Control_c, 0, 67, 37
1, 198605, Note_on_c, 0, 46, 73
1, 198607, Note_off_c, 0, 36, 63
1, 198607, Note_off_c, 0, 43, 62
1, 198614, Note_off_c, 0, 79, 64
1, 198617, Control_c, 0, 64, 67
1, 198623, Note_on_c, 0, 40, 37
1, 198625, Note_off_c, 0, 72, 67
1, 198632, Control_c, 0, 64, 74
1, 198632, Control_c, 0, 67, 37
1, 198643, Note_off_c, 0, 46, 65
1, 198646, Control_c, 0, 64, 81
1, 198646, Control_c, 0, 67, 36
1, 198661, Control_c, 0, 64, 86
1, 198661, Control_c, 0, 67, 32
1, 198664, Note_off_c, 0, 40, 43
1, 198676, Control_c, 0, 64, 87
1, 198676, Control_c, 0, 67, 22
1, 198691, Control_c, 0, 64, 88
1, 198691, Control_c, 0, 67, 0
1, 198703, Note_on_c, 0, 72, 76
1, 198703, Note_on_c, 0, 79, 78
1, 198706, Control_c, 0, 64, 88
1, 198714, Note_on_c, 0, 40, 57
1, 198720, Note_on_c, 0, 46, 62
1, 198721, Control_c, 0, 64, 89
1, 198736, Control_c, 0, 64, 90
1, 198751, Control_c, 0, 64, 92
1, 198762, Note_off_c, 0, 79, 60
1, 198766, Control_c, 0, 64, 94
1, 198771, Note_off_c, 0, 72, 60
1, 198781, Control_c, 0, 64, 95
1, 198790, Note_off_c, 0, 40, 59
1, 198795, Control_c, 0, 64, 95
1, 198811, Note_off_c, 0, 46, 57
1, 198819, Note_on_c, 0, 76, 72
1, 198821, Note_on_c, 0, 70, 75
1, 198834, Note_on_c, 0, 43, 54
1, 198840, Control_c, 0, 64, 96
1, 198843, Note_on_c, 0, 48, 69
1, 198848, Note_off_c, 0, 70, 68
1, 198858, Note_off_c, 0, 43, 62
1, 198858, Note_off_c, 0, 76, 63
1, 198882, Note_off_c, 0, 48, 67
1, 198949, Note_on_c, 0, 43, 57
1, 198950, Note_on_c, 0, 76, 79
1, 198953, Note_on_c, 0, 70, 75
1, 198967, Note_on_c, 0, 48, 49
1, 198995, Note_off_c, 0, 76, 64
1, 199002, Note_off_c, 0, 70, 60
1, 199042, Note_off_c, 0, 48, 54
1, 199057, Note_off_c, 0, 43, 38
1, 199061, Note_on_c, 0, 67, 79
1, 199064, Note_on_c, 0, 72, 78
1, 199082, Note_on_c, 0, 46, 40
1, 199083, Note_on_c, 0, 52, 63
1, 199087, Note_off_c, 0, 72, 69
1, 199096, Note_off_c, 0, 67, 60
1, 199115, Note_off_c, 0, 52, 67
1, 199126, Note_off_c, 0, 46, 42
1, 199144, Control_c, 0, 64, 92
1, 199159, Control_c, 0, 64, 83
1, 199174, Control_c, 0, 64, 68
1, 199177, Note_on_c, 0, 46, 63
1, 199177, Note_on_c, 0, 72, 86
1, 199182, Note_on_c, 0, 67, 82
1, 199189, Control_c, 0, 64, 0
1, 199201, Note_on_c, 0, 52, 53
1, 199219, Control_c, 0, 64, 33
1, 199223, Note_off_c, 0, 72, 61
1, 199232, Note_on_c, 0, 70, 81
1, 199233, Note_on_c, 0, 64, 94
1, 199233, Control_c, 0, 64, 66
1, 199238, Note_off_c, 0, 67, 58
1, 199248, Control_c, 0, 64, 75
1, 199249, Note_on_c, 0, 55, 81
1, 199250, Note_off_c, 0, 52, 64
1, 199253, Note_off_c, 0, 46, 58
1, 199263, Control_c, 0, 64, 84
1, 199265, Note_on_c, 0, 48, 61
1, 199273, Note_off_c, 0, 70, 62
1, 199278, Control_c, 0, 64, 91
1, 199287, Note_off_c, 0, 48, 63
1, 199290, Note_off_c, 0, 64, 64
1, 199293, Control_c, 0, 64, 93
1, 199300, Note_off_c, 0, 55, 64
1, 199337, Control_c, 0, 64, 89
1, 199352, Control_c, 0, 64, 80
1, 199361, Note_on_c, 0, 64, 92
1, 199367, Control_c, 0, 64, 66
1, 199368, Note_on_c, 0, 70, 79
1, 199371, Note_on_c, 0, 48, 70
1, 199382, Control_c, 0, 64, 0
1, 199386, Note_on_c, 0, 55, 62
1, 199426, Control_c, 0, 64, 62
1, 199431, Note_off_c, 0, 48, 63
1, 199441, Control_c, 0, 64, 68
1, 199442, Note_off_c, 0, 64, 64
1, 199442, Note_off_c, 0, 70, 60
1, 199456, Control_c, 0, 64, 71
1, 199470, Control_c, 0, 64, 73
1, 199483, Note_on_c, 0, 67, 83
1, 199484, Note_on_c, 0, 63, 86
1, 199485, Note_off_c, 0, 55, 64
1, 199485, Control_c, 0, 64, 75
1, 199500, Control_c, 0, 64, 75
1, 199505, Note_on_c, 0, 58, 86
1, 199526, Note_on_c, 0, 52, 48
1, 199529, Control_c, 0, 64, 76
1, 199531, Note_off_c, 0, 67, 59
1, 199532, Note_off_c, 0, 63, 65
1, 199544, Control_c, 0, 64, 76
1, 199550, Note_off_c, 0, 58, 65
1, 199552, Note_off_c, 0, 52, 52
1, 199559, Control_c, 0, 64, 77
1, 199575, Control_c, 0, 64, 78
1, 199603, Control_c, 0, 64, 78
1, 199608, Note_on_c, 0, 67, 91
1, 199618, Note_on_c, 0, 58, 66
1, 199620, Note_on_c, 0, 52, 72
1, 199625, Note_on_c, 0, 63, 73
1, 199655, Note_off_c, 0, 63, 60
1, 199663, Note_off_c, 0, 67, 63
1, 199694, Note_off_c, 0, 52, 59
1, 199703, Note_off_c, 0, 58, 59
1, 199737, Note_on_c, 0, 66, 104
1, 199740, Note_on_c, 0, 60, 90
1, 199743, Note_on_c, 0, 61, 96
1, 199747, Note_on_c, 0, 55, 76
1, 199769, Note_off_c, 0, 60, 64
1, 199772, Note_off_c, 0, 61, 61
1, 199779, Note_off_c, 0, 66, 66
1, 199790, Note_off_c, 0, 55, 65
1, 199892, Control_c, 0, 64, 77
1, 199907, Control_c, 0, 64, 73
1, 199922, Control_c, 0, 64, 61
1, 199937, Control_c, 0, 64, 0
1, 199991, Note_on_c, 0, 54, 105
1, 199992, Note_on_c, 0, 42, 81
1, 199997, Note_on_c, 0, 52, 87
1, 200008, Note_on_c, 0, 48, 75
1, 200026, Control_c, 0, 64, 66
1, 200041, Control_c, 0, 64, 79
1, 200045, Note_on_c, 0, 60, 14
1, 200054, Note_off_c, 0, 52, 66
1, 200056, Note_off_c, 0, 48, 61
1, 200056, Control_c, 0, 64, 91
1, 200071, Control_c, 0, 64, 93
1, 200081, Note_off_c, 0, 54, 58
1, 200089, Note_off_c, 0, 42, 63
1, 200122, Note_off_c, 0, 60, 0
1, 200128, Note_on_c, 0, 66, 81
1, 200140, Note_on_c, 0, 55, 72
1, 200158, Poly_aftertouch_c, 0, 60, 127
1, 200159, Control_c, 0, 64, 90
1, 200168, Note_off_c, 0, 55, 67
1, 200174, Control_c, 0, 64, 81
1, 200183, Note_off_c, 0, 66, 64
1, 200189, Control_c, 0, 64, 60
1, 200194, Poly_aftertouch_c, 0, 60, 0
1, 200204, Control_c, 0, 64, 0
1, 200258, Note_on_c, 0, 52, 84
1, 200262, Note_on_c, 0, 54, 84
1, 200264, Note_on_c, 0, 42, 70
1, 200264, Note_on_c, 0, 64, 77
1, 200269, Note_on_c, 0, 61, 73
1, 200270, Note_on_c, 0, 49, 61
1, 200274, Note_on_c, 0, 58, 67
1, 200286, Note_off_c, 0, 52, 67
1, 200296, Note_off_c, 0, 54, 53
1, 200301, Note_off_c, 0, 64, 61
1, 200307, Note_off_c, 0, 61, 61
1, 200312, Note_off_c, 0, 58, 65
1, 200313, Note_off_c, 0, 49, 53
1, 200321, Note_off_c, 0, 42, 62
1, 200399, Note_on_c, 0, 49, 106
1, 200410, Note_on_c, 0, 40, 74
1, 200411, Note_on_c, 0, 48, 74
1, 200420, Control_c, 0, 64, 18
1, 200435, Note_off_c, 0, 40, 67
1, 200435, Control_c, 0, 64, 88
1, 200443, Note_off_c, 0, 48, 65
1, 200449, Note_off_c, 0, 49, 63
1, 200449, Control_c, 0, 64, 117
1, 200455, Note_on_c, 0, 43, 12
1, 200464, Control_c, 0, 64, 127
1, 200509, Note_off_c, 0, 43, 47
1, 200536, Note_on_c, 0, 55, 66
1, 200536, Note_on_c, 0, 60, 78
1, 200545, Note_on_c, 0, 52, 29
1, 200546, Note_off_c, 0, 52, 127
1, 200560, Note_off_c, 0, 55, 68
1, 200576, Note_off_c, 0, 60, 66
1, 200579, Poly_aftertouch_c, 0, 52, 0
1, 200582, Control_c, 0, 64, 100
1, 200597, Control_c, 0, 64, 75
1, 200612, Control_c, 0, 64, 0
1, 200663, Note_on_c, 0, 61, 105
1, 200669, Note_on_c, 0, 60, 91
1, 200674, Note_on_c, 0, 52, 72
1, 200687, Note_on_c, 0, 55, 52
1, 200700, Control_c, 0, 64, 61
1, 200703, Note_off_c, 0, 61, 66
1, 200705, Note_off_c, 0, 60, 63
1, 200715, Note_off_c, 0, 55, 65
1, 200715, Control_c, 0, 64, 107
1, 200730, Control_c, 0, 64, 127
1, 200736, Note_off_c, 0, 52, 64
1, 200794, Note_on_c, 0, 67, 26
1, 200794, Note_on_c, 0, 73, 79
1, 200805, Note_on_c, 0, 64, 71
1, 200834, Note_off_c, 0, 67, 43
1, 200834, Note_off_c, 0, 64, 68
1, 200834, Control_c, 0, 64, 117
1, 200849, Control_c, 0, 64, 92
1, 200850, Note_off_c, 0, 73, 58
1, 200864, Control_c, 0, 64, 68
1, 200879, Control_c, 0, 64, 0
1, 200914, Note_on_c, 0, 58, 75
1, 200918, Note_on_c, 0, 72, 86
1, 200919, Note_on_c, 0, 60, 79
1, 200921, Note_on_c, 0, 61, 88
1, 200931, Note_on_c, 0, 49, 63
1, 200933, Note_on_c, 0, 70, 67
1, 200936, Note_on_c, 0, 66, 67
1, 200942, Note_off_c, 0, 60, 69
1, 200953, Note_off_c, 0, 58, 62
1, 200960, Note_off_c, 0, 61, 58
1, 200961, Note_off_c, 0, 72, 63
1, 200962, Note_off_c, 0, 70, 64
1, 200974, Note_off_c, 0, 66, 60
1, 200976, Note_off_c, 0, 49, 63
1, 201047, Note_on_c, 0, 58, 102
1, 201054, Note_on_c, 0, 48, 75
1, 201057, Note_on_c, 0, 55, 80
1, 201061, Note_on_c, 0, 52, 77
1, 201071, Control_c, 0, 64, 81
1, 201082, Note_off_c, 0, 48, 66
1, 201086, Control_c, 0, 64, 127
1, 201091, Note_off_c, 0, 55, 60
1, 201093, Note_off_c, 0, 52, 67
1, 201094, Note_off_c, 0, 58, 63
1, 201185, Note_on_c, 0, 64, 59
1, 201186, Note_on_c, 0, 70, 78
1, 201190, Note_on_c, 0, 67, 59
1, 201198, Control_c, 0, 64, 106
1, 201205, Note_off_c, 0, 70, 68
1, 201207, Note_off_c, 0, 64, 65
1, 201213, Control_c, 0, 64, 81
1, 201220, Note_off_c, 0, 67, 65
1, 201228, Control_c, 0, 64, 0
1, 201232, Poly_aftertouch_c, 0, 60, 0
1, 201313, Note_on_c, 0, 73, 103
1, 201318, Note_on_c, 0, 67, 78
1, 201319, Note_on_c, 0, 60, 83
1, 201327, Note_on_c, 0, 64, 74
1, 201346, Note_off_c, 0, 73, 69
1, 201346, Control_c, 0, 64, 26
1, 201356, Note_off_c, 0, 67, 64
1, 201359, Note_off_c, 0, 64, 63
1, 201361, Control_c, 0, 64, 122
1, 201374, Note_off_c, 0, 60, 62
1, 201376, Control_c, 0, 64, 127
1, 201383, Note_on_c, 0, 76, 37
1, 201436, Note_off_c, 0, 76, 0
1, 201436, Note_on_c, 0, 76, 14
1, 201442, Note_on_c, 0, 79, 37
1, 201457, Note_on_c, 0, 85, 73
1, 201459, Note_on_c, 0, 72, 86
1, 201473, Note_off_c, 0, 79, 57
1, 201475, Note_off_c, 0, 76, 66
1, 201478, Note_off_c, 0, 85, 71
1, 201479, Control_c, 0, 64, 113
1, 201494, Control_c, 0, 64, 77
1, 201507, Note_off_c, 0, 72, 65
1, 201509, Control_c, 0, 64, 0
1, 201571, Note_on_c, 0, 66, 102
1, 201574, Note_on_c, 0, 64, 76
1, 201591, Note_on_c, 0, 55, 56
1, 201591, Note_on_c, 0, 60, 66
1, 201594, Note_on_c, 0, 58, 65
1, 201609, Note_off_c, 0, 66, 68
1, 201618, Note_off_c, 0, 64, 63
1, 201627, Note_off_c, 0, 60, 62
1, 201627, Control_c, 0, 64, 93
1, 201629, Note_on_c, 0, 56, 15
1, 201641, Note_off_c, 0, 58, 61
1, 201642, Control_c, 0, 64, 127
1, 201657, Note_off_c, 0, 55, 65
1, 201666, Note_off_c, 0, 56, 30
1, 201678, Note_on_c, 0, 70, 67
1, 201703, Note_on_c, 0, 76, 43
1, 201705, Note_on_c, 0, 67, 72
1, 201705, Note_on_c, 0, 78, 87
1, 201712, Note_off_c, 0, 70, 62
1, 201722, Note_off_c, 0, 67, 68
1, 201728, Note_off_c, 0, 76, 61
1, 201750, Note_off_c, 0, 78, 66
1, 201851, Note_on_c, 0, 88, 67
1, 201872, Note_on_c, 0, 82, 69
1, 201874, Note_on_c, 0, 90, 96
1, 201881, Note_on_c, 0, 79, 108
1, 201883, Note_on_c, 0, 39, 103
1, 201901, Note_on_c, 0, 29, 77
1, 201917, Note_off_c, 0, 79, 67
1, 201920, Note_off_c, 0, 82, 66
1, 201922, Note_off_c, 0, 90, 66
1, 201925, Note_off_c, 0, 29, 64
1, 201926, Note_off_c, 0, 88, 64
1, 201929, Note_off_c, 0, 39, 62
1, 202190, Note_on_c, 0, 60, 54
1, 202192, Note_on_c, 0, 78, 79
1, 202199, Note_on_c, 0, 55, 56
1, 202199, Control_c, 0, 64, 104
1, 202208, Note_on_c, 0, 73, 58
1, 202214, Control_c, 0, 64, 83
1, 202223, Note_off_c, 0, 60, 62
1, 202229, Control_c, 0, 64, 51
1, 202229, Note_off_c, 0, 73, 57
1, 202239, Note_off_c, 0, 55, 63
1, 202244, Control_c, 0, 64, 0
1, 202253, Note_on_c, 0, 72, 77
1, 202253, Note_on_c, 0, 61, 74
1, 202256, Note_off_c, 0, 78, 33
1, 202256, Note_on_c, 0, 76, 79
1, 202259, Note_on_c, 0, 58, 56
1, 202296, Note_off_c, 0, 58, 64
1, 202303, Control_c, 0, 64, 62
1, 202312, Note_off_c, 0, 61, 62
1, 202316, Note_off_c, 0, 76, 65
1, 202318, Control_c, 0, 64, 70
1, 202333, Note_off_c, 0, 72, 64
1, 202333, Control_c, 0, 64, 77
1, 202347, Control_c, 0, 64, 82
1, 202362, Control_c, 0, 64, 85
1, 202377, Control_c, 0, 64, 86
1, 202387, Note_on_c, 0, 58, 65
1, 202392, Control_c, 0, 64, 87
1, 202404, Note_on_c, 0, 76, 83
1, 202407, Control_c, 0, 64, 88
1, 202408, Note_on_c, 0, 72, 80
1, 202408, Note_on_c, 0, 61, 46
1, 202421, Control_c, 0, 64, 89
1, 202436, Control_c, 0, 64, 89
1, 202444, Note_off_c, 0, 76, 65
1, 202457, Note_off_c, 0, 72, 64
1, 202466, Control_c, 0, 64, 90
1, 202471, Note_off_c, 0, 58, 54
1, 202498, Note_off_c, 0, 61, 59
1, 202535, Note_on_c, 0, 73, 82
1, 202536, Note_on_c, 0, 64, 78
1, 202545, Note_on_c, 0, 70, 81
1, 202571, Note_off_c, 0, 70, 64
1, 202579, Note_off_c, 0, 73, 61
1, 202590, Note_off_c, 0, 64, 63
1, 202672, Note_on_c, 0, 70, 83
1, 202677, Note_on_c, 0, 73, 79
1, 202682, Note_on_c, 0, 60, 29
1, 202693, Note_on_c, 0, 64, 47
1, 202716, Note_off_c, 0, 60, 43
1, 202723, Note_off_c, 0, 70, 60
1, 202726, Note_off_c, 0, 73, 63
1, 202784, Note_on_c, 0, 67, 94
1, 202786, Note_on_c, 0, 72, 96
1, 202793, Note_on_c, 0, 66, 82
1, 202797, Note_on_c, 0, 61, 76
1, 202803, Note_off_c, 0, 64, 63
1, 202817, Note_off_c, 0, 66, 68
1, 202818, Note_off_c, 0, 72, 65
1, 202819, Note_off_c, 0, 67, 60
1, 202828, Note_off_c, 0, 61, 62
1, 202859, Control_c, 0, 64, 90
1, 202904, Control_c, 0, 64, 91
1, 202918, Control_c, 0, 64, 91
1, 202951, Note_on_c, 0, 58, 31
1, 202983, Note_off_c, 0, 58, 45
1, 202992, Control_c, 0, 64, 88
1, 203007, Control_c, 0, 64, 77
1, 203022, Control_c, 0, 64, 0
1, 203045, Note_on_c, 0, 61, 109
1, 203049, Note_on_c, 0, 53, 90
1, 203060, Note_on_c, 0, 60, 59
1, 203082, Control_c, 0, 64, 63
1, 203085, Note_off_c, 0, 61, 67
1, 203091, Note_off_c, 0, 60, 64
1, 203097, Control_c, 0, 64, 77
1, 203106, Note_off_c, 0, 53, 65
1, 203112, Control_c, 0, 64, 93
1, 203126, Control_c, 0, 64, 103
1, 203141, Control_c, 0, 64, 104
1, 203190, Note_on_c, 0, 67, 35
1, 203201, Control_c, 0, 64, 104
1, 203203, Note_on_c, 0, 73, 84
1, 203204, Note_on_c, 0, 64, 82
1, 203222, Note_off_c, 0, 67, 52
1, 203243, Note_off_c, 0, 64, 61
1, 203245, Control_c, 0, 64, 104
1, 203252, Note_off_c, 0, 73, 60
1, 203260, Control_c, 0, 64, 98
1, 203275, Control_c, 0, 64, 81
1, 203289, Control_c, 0, 64, 0
1, 203313, Note_on_c, 0, 58, 103
1, 203321, Note_on_c, 0, 48, 76
1, 203324, Note_on_c, 0, 55, 78
1, 203330, Note_on_c, 0, 52, 74
1, 203349, Control_c, 0, 64, 61
1, 203352, Note_off_c, 0, 58, 67
1, 203359, Note_off_c, 0, 55, 66
1, 203363, Control_c, 0, 64, 73
1, 203376, Note_off_c, 0, 52, 65
1, 203378, Control_c, 0, 64, 83
1, 203395, Note_off_c, 0, 48, 65
1, 203401, Control_c, 0, 64, 91
1, 203416, Control_c, 0, 64, 92
1, 203445, Control_c, 0, 64, 92
1, 203466, Note_on_c, 0, 70, 87
1, 203496, Note_off_c, 0, 70, 58
1, 203519, Control_c, 0, 64, 93
1, 203549, Control_c, 0, 64, 93
1, 203565, Control_c, 0, 64, 94
1, 203594, Note_on_c, 0, 36, 73
1, 203595, Note_on_c, 0, 82, 97
1, 203599, Note_on_c, 0, 72, 93
1, 203600, Note_on_c, 0, 46, 99
1, 203625, Note_off_c, 0, 72, 65
1, 203626, Note_off_c, 0, 36, 64
1, 203632, Note_off_c, 0, 82, 61
1, 203639, Control_c, 0, 64, 94
1, 203647, Note_off_c, 0, 46, 63
1, 203698, Control_c, 0, 64, 92
1, 203712, Control_c, 0, 64, 82
1, 203727, Control_c, 0, 64, 63
1, 203739, Note_on_c, 0, 54, 100
1, 203742, Control_c, 0, 64, 0
1, 203750, Note_on_c, 0, 43, 74
1, 203775, Note_on_c, 0, 41, 49
1, 203776, Note_off_c, 0, 41, 127
1, 203785, Note_off_c, 0, 43, 63
1, 203801, Control_c, 0, 64, 67
1, 203809, Note_off_c, 0, 54, 61
1, 203816, Control_c, 0, 64, 75
1, 203817, Poly_aftertouch_c, 0, 41, 0
1, 203831, Control_c, 0, 64, 83
1, 203846, Control_c, 0, 64, 87
1, 203861, Control_c, 0, 64, 88
1, 203875, Control_c, 0, 64, 88
1, 203881, Note_on_c, 0, 66, 91
1, 203886, Note_on_c, 0, 55, 75
1, 203911, Note_off_c, 0, 55, 68
1, 203931, Note_off_c, 0, 66, 67
1, 203934, Control_c, 0, 64, 85
1, 203949, Control_c, 0, 64, 74
1, 203964, Control_c, 0, 64, 0
1, 204005, Note_on_c, 0, 57, 97
1, 204012, Note_on_c, 0, 52, 79
1, 204016, Note_on_c, 0, 46, 82
1, 204027, Note_on_c, 0, 48, 64
1, 204039, Control_c, 0, 64, 64
1, 204039, Note_off_c, 0, 57, 66
1, 204050, Note_off_c, 0, 52, 68
1, 204054, Control_c, 0, 64, 73
1, 204054, Note_off_c, 0, 48, 66
1, 204068, Control_c, 0, 64, 82
1, 204080, Note_off_c, 0, 46, 63
1, 204083, Control_c, 0, 64, 86
1, 204097, Control_c, 0, 64, 87
1, 204138, Note_on_c, 0, 60, 39
1, 204149, Note_on_c, 0, 69, 90
1, 204161, Note_on_c, 0, 58, 53
1, 204163, Note_on_c, 0, 64, 59
1, 204164, Control_c, 0, 64, 87
1, 204171, Note_off_c, 0, 60, 64
1, 204183, Note_off_c, 0, 64, 65
1, 204185, Note_off_c, 0, 58, 62
1, 204197, Note_off_c, 0, 69, 69
1, 204238, Control_c, 0, 64, 88
1, 204253, Control_c, 0, 64, 90
1, 204267, Control_c, 0, 64, 93
1, 204282, Control_c, 0, 64, 95
1, 204312, Control_c, 0, 64, 94
1, 204326, Control_c, 0, 64, 87
1, 204335, Note_on_c, 0, 81, 98
1, 204338, Note_on_c, 0, 72, 90
1, 204339, Note_on_c, 0, 70, 107
1, 204340, Note_on_c, 0, 76, 87
1, 204341, Control_c, 0, 64, 72
1, 204343, Note_on_c, 0, 33, 87
1, 204344, Note_on_c, 0, 22, 86
1, 204352, Note_on_c, 0, 28, 69
1, 204356, Control_c, 0, 64, 0
1, 204366, Note_on_c, 0, 79, 51
1, 204381, Note_off_c, 0, 81, 66
1, 204381, Note_off_c, 0, 70, 65
1, 204384, Note_off_c, 0, 22, 64
1, 204389, Note_off_c, 0, 79, 57
1, 204391, Note_off_c, 0, 28, 62
1, 204401, Note_off_c, 0, 72, 66
1, 204404, Note_off_c, 0, 76, 65
1, 204408, Note_off_c, 0, 33, 64
1, 204416, Control_c, 0, 64, 64
1, 204431, Control_c, 0, 64, 75
1, 204446, Control_c, 0, 64, 88
1, 204461, Control_c, 0, 64, 97
1, 204476, Control_c, 0, 64, 98
1, 204683, Control_c, 0, 64, 99
1, 204697, Control_c, 0, 64, 102
1, 204712, Control_c, 0, 64, 102
1, 204742, Control_c, 0, 64, 96
1, 204754, Note_on_c, 0, 74, 91
1, 204757, Note_on_c, 0, 62, 99
1, 204757, Note_on_c, 0, 65, 84
1, 204757, Control_c, 0, 64, 82
1, 204758, Note_on_c, 0, 68, 87
1, 204768, Note_on_c, 0, 56, 90
1, 204772, Note_on_c, 0, 60, 85
1, 204772, Control_c, 0, 64, 65
1, 204782, Note_on_c, 0, 48, 71
1, 204782, Note_on_c, 0, 51, 66
1, 204787, Control_c, 0, 64, 0
1, 204802, Control_c, 0, 64, 16
1, 204816, Control_c, 0, 64, 66
1, 204831, Control_c, 0, 64, 74
1, 204843, Note_off_c, 0, 74, 58
1, 204846, Control_c, 0, 64, 83
1, 204861, Control_c, 0, 64, 88
1, 204863, Note_off_c, 0, 65, 61
1, 204869, Note_off_c, 0, 68, 61
1, 204876, Control_c, 0, 64, 91
1, 204898, Control_c, 0, 64, 93
1, 204913, Control_c, 0, 64, 95
1, 204928, Control_c, 0, 64, 97
1, 204938, Note_off_c, 0, 60, 58
1, 204942, Note_off_c, 0, 56, 63
1, 204942, Control_c, 0, 64, 98
1, 204945, Note_off_c, 0, 62, 59
1, 204949, Note_off_c, 0, 48, 63
1, 204972, Control_c, 0, 64, 97
1, 204987, Control_c, 0, 64, 94
1, 204995, Note_off_c, 0, 51, 39
1, 205002, Control_c, 0, 64, 83
1, 205016, Control_c, 0, 64, 68
1, 205029, Note_on_c, 0, 54, 85
1, 205029, Note_on_c, 0, 60, 107
1, 205031, Note_on_c, 0, 72, 96
1, 205031, Control_c, 0, 64, 0
1, 205032, Note_on_c, 0, 63, 97
1, 205033, Note_on_c, 0, 59, 90
1, 205033, Note_on_c, 0, 66, 91
1, 205039, Note_on_c, 0, 47, 75
1, 205043, Note_on_c, 0, 50, 65
1, 205061, Control_c, 0, 64, 60
1, 205076, Control_c, 0, 64, 71
1, 205091, Control_c, 0, 64, 78
1, 205094, Note_off_c, 0, 72, 59
1, 205103, Note_off_c, 0, 50, 0
1, 205106, Control_c, 0, 64, 83
1, 205113, Note_off_c, 0, 66, 62
1, 205118, Note_off_c, 0, 63, 62
1, 205121, Control_c, 0, 64, 84
1, 205136, Control_c, 0, 64, 85
1, 205140, Poly_aftertouch_c, 0, 50, 127
1, 205183, Note_off_c, 0, 59, 51
1, 205186, Note_off_c, 0, 47, 52
1, 205189, Note_off_c, 0, 60, 55
1, 205213, Note_off_c, 0, 54, 58
1, 205228, Poly_aftertouch_c, 0, 50, 0
1, 205240, Control_c, 0, 64, 83
1, 205255, Control_c, 0, 64, 72
1, 205268, Note_on_c, 0, 59, 110
1, 205269, Note_on_c, 0, 62, 91
1, 205270, Note_on_c, 0, 71, 95
1, 205270, Control_c, 0, 64, 0
1, 205274, Note_on_c, 0, 65, 92
1, 205277, Note_on_c, 0, 53, 98
1, 205277, Note_on_c, 0, 57, 105
1, 205282, Note_on_c, 0, 45, 85
1, 205289, Note_on_c, 0, 48, 77
1, 205305, Note_on_c, 0, 68, 29
1, 205306, Note_off_c, 0, 68, 127
1, 205418, Control_c, 0, 64, 53
1, 205432, Control_c, 0, 64, 64
1, 205434, Note_off_c, 0, 57, 56
1, 205446, Note_off_c, 0, 59, 54
1, 205447, Control_c, 0, 64, 67
1, 205455, Note_off_c, 0, 53, 57
1, 205462, Control_c, 0, 64, 72
1, 205477, Control_c, 0, 64, 80
1, 205491, Control_c, 0, 64, 89
1, 205495, Note_off_c, 0, 48, 57
1, 205500, Note_off_c, 0, 45, 58
1, 205506, Control_c, 0, 64, 95
1, 205514, Note_off_c, 0, 62, 52
1, 205521, Control_c, 0, 64, 98
1, 205532, Note_off_c, 0, 71, 50
1, 205536, Control_c, 0, 64, 101
1, 205551, Control_c, 0, 64, 103
1, 205561, Note_off_c, 0, 65, 61
1, 205565, Control_c, 0, 64, 105
1, 205580, Control_c, 0, 64, 107
1, 205595, Control_c, 0, 64, 108
1, 205610, Control_c, 0, 64, 109
1, 205610, Control_c, 0, 67, 11
1, 205625, Control_c, 0, 67, 18
1, 205647, Control_c, 0, 64, 110
1, 205647, Control_c, 0, 67, 24
1, 205662, Control_c, 0, 67, 32
1, 205677, Control_c, 0, 67, 39
1, 205691, Control_c, 0, 67, 44
1, 205706, Control_c, 0, 64, 110
1, 205706, Control_c, 0, 67, 51
1, 205721, Control_c, 0, 67, 60
1, 205736, Control_c, 0, 67, 69
1, 205751, Control_c, 0, 67, 76
1, 205765, Control_c, 0, 64, 111
1, 205765, Control_c, 0, 67, 81
1, 205780, Control_c, 0, 67, 87
1, 205795, Control_c, 0, 64, 111
1, 205795, Control_c, 0, 67, 94
1, 205810, Control_c, 0, 64, 112
1, 205810, Control_c, 0, 67, 103
1, 205825, Control_c, 0, 64, 113
1, 205825, Control_c, 0, 67, 112
1, 205839, Control_c, 0, 67, 120
1, 205854, Control_c, 0, 64, 113
1, 205854, Control_c, 0, 67, 126
1, 205869, Control_c, 0, 67, 127
1, 206090, Note_on_c, 0, 98, 56
1, 206098, Note_on_c, 0, 29, 54
1, 206106, Note_on_c, 0, 89, 64
1, 206106, Note_on_c, 0, 95, 66
1, 206110, Note_on_c, 0, 93, 45
1, 206114, Note_on_c, 0, 24, 32
1, 206121, Note_off_c, 0, 98, 66
1, 206135, Note_off_c, 0, 29, 59
1, 206136, Note_off_c, 0, 93, 54
1, 206137, Note_off_c, 0, 95, 67
1, 206146, Note_off_c, 0, 89, 62
1, 206147, Note_on_c, 0, 33, 47
1, 206161, Note_off_c, 0, 24, 49
1, 206176, Note_off_c, 0, 33, 58
1, 206245, Note_on_c, 0, 95, 57
1, 206249, Note_on_c, 0, 26, 45
1, 206250, Note_on_c, 0, 96, 56
1, 206252, Note_on_c, 0, 89, 53
1, 206274, Note_off_c, 0, 89, 59
1, 206274, Note_off_c, 0, 96, 54
1, 206280, Note_off_c, 0, 95, 63
1, 206304, Note_off_c, 0, 26, 56
1, 206370, Note_on_c, 0, 93, 68
1, 206379, Note_on_c, 0, 36, 52
1, 206379, Note_on_c, 0, 86, 54
1, 206380, Note_on_c, 0, 29, 36
1, 206405, Note_off_c, 0, 93, 65
1, 206410, Note_off_c, 0, 86, 58
1, 206411, Control_c, 0, 67, 124
1, 206416, Note_off_c, 0, 36, 62
1, 206423, Note_off_c, 0, 29, 52
1, 206426, Control_c, 0, 67, 120
1, 206440, Control_c, 0, 67, 114
1, 206455, Control_c, 0, 67, 107
1, 206470, Control_c, 0, 67, 101
1, 206485, Control_c, 0, 67, 95
1, 206496, Note_on_c, 0, 86, 68
1, 206500, Control_c, 0, 67, 92
1, 206504, Note_on_c, 0, 93, 72
1, 206511, Note_on_c, 0, 29, 45
1, 206512, Note_on_c, 0, 36, 48
1, 206514, Control_c, 0, 67, 89
1, 206529, Control_c, 0, 67, 86
1, 206541, Note_off_c, 0, 93, 53
1, 206544, Control_c, 0, 67, 83
1, 206547, Note_off_c, 0, 86, 63
1, 206559, Control_c, 0, 67, 80
1, 206560, Note_off_c, 0, 29, 54
1, 206574, Control_c, 0, 67, 76
1, 206587, Note_off_c, 0, 36, 54
1, 206588, Control_c, 0, 67, 73
1, 206603, Control_c, 0, 67, 72
1, 206618, Control_c, 0, 67, 70
1, 206620, Note_on_c, 0, 89, 69
1, 206626, Note_on_c, 0, 83, 62
1, 206633, Control_c, 0, 67, 68
1, 206634, Note_on_c, 0, 38, 55
1, 206645, Note_off_c, 0, 89, 69
1, 206647, Control_c, 0, 67, 64
1, 206653, Note_off_c, 0, 83, 63
1, 206662, Note_off_c, 0, 38, 61
1, 206662, Control_c, 0, 67, 60
1, 206672, Poly_aftertouch_c, 0, 33, 127
1, 206677, Control_c, 0, 67, 56
1, 206692, Control_c, 0, 67, 53
1, 206707, Control_c, 0, 67, 51
1, 206721, Note_on_c, 0, 38, 47
1, 206721, Note_on_c, 0, 83, 73
1, 206721, Control_c, 0, 67, 48
1, 206723, Note_on_c, 0, 89, 70
1, 206736, Control_c, 0, 67, 44
1, 206737, Note_on_c, 0, 86, 73
1, 206745, Note_off_c, 0, 83, 63
1, 206751, Control_c, 0, 67, 41
1, 206752, Note_off_c, 0, 89, 67
1, 206759, Note_off_c, 0, 38, 62
1, 206762, Note_on_c, 0, 36, 59
1, 206767, Control_c, 0, 67, 37
1, 206770, Note_off_c, 0, 86, 60
1, 206772, Note_on_c, 0, 81, 51
1, 206778, Note_on_c, 0, 41, 60
1, 206782, Control_c, 0, 67, 33
1, 206785, Poly_aftertouch_c, 0, 33, 0
1, 206793, Note_off_c, 0, 81, 60
1, 206793, Note_off_c, 0, 36, 61
1, 206797, Control_c, 0, 67, 30
1, 206810, Note_off_c, 0, 41, 66
1, 206811, Control_c, 0, 67, 28
1, 206826, Control_c, 0, 67, 25
1, 206841, Control_c, 0, 67, 23
1, 206856, Control_c, 0, 67, 21
1, 206865, Note_on_c, 0, 81, 78
1, 206871, Note_on_c, 0, 36, 61
1, 206871, Control_c, 0, 67, 20
1, 206872, Note_on_c, 0, 86, 71
1, 206885, Control_c, 0, 67, 17
1, 206900, Control_c, 0, 67, 14
1, 206905, Note_on_c, 0, 41, 44
1, 206906, Note_off_c, 0, 86, 55
1, 206915, Note_off_c, 0, 81, 59
1, 206915, Control_c, 0, 67, 11
1, 206920, Note_off_c, 0, 36, 55
1, 206930, Control_c, 0, 67, 8
1, 206945, Control_c, 0, 67, 0
1, 206996, Note_on_c, 0, 83, 67
1, 207000, Note_on_c, 0, 77, 63
1, 207007, Note_on_c, 0, 38, 56
1, 207017, Note_on_c, 0, 45, 57
1, 207026, Note_off_c, 0, 83, 62
1, 207031, Note_off_c, 0, 77, 64
1, 207033, Note_off_c, 0, 41, 36
1, 207043, Note_off_c, 0, 38, 62
1, 207048, Note_off_c, 0, 45, 65
1, 207112, Note_on_c, 0, 83, 74
1, 207119, Note_on_c, 0, 38, 49
1, 207141, Note_on_c, 0, 77, 56
1, 207142, Note_on_c, 0, 79, 45
1, 207148, Note_on_c, 0, 45, 37
1, 207161, Note_off_c, 0, 77, 61
1, 207165, Note_off_c, 0, 79, 59
1, 207172, Note_off_c, 0, 38, 60
1, 207175, Note_off_c, 0, 83, 58
1, 207186, Note_off_c, 0, 45, 48
1, 207234, Note_on_c, 0, 81, 76
1, 207240, Note_on_c, 0, 74, 71
1, 207243, Note_on_c, 0, 48, 64
1, 207252, Note_on_c, 0, 41, 33
1, 207261, Note_off_c, 0, 81, 59
1, 207263, Control_c, 0, 64, 112
1, 207269, Note_off_c, 0, 74, 65
1, 207272, Note_off_c, 0, 48, 67
1, 207278, Control_c, 0, 64, 104
1, 207293, Control_c, 0, 64, 91
1, 207297, Note_off_c, 0, 41, 56
1, 207308, Control_c, 0, 64, 75
1, 207323, Control_c, 0, 64, 49
1, 207334, Note_on_c, 0, 41, 49
1, 207337, Control_c, 0, 64, 0
1, 207339, Note_on_c, 0, 74, 80
1, 207339, Note_on_c, 0, 81, 81
1, 207347, Note_on_c, 0, 48, 57
1, 207352, Control_c, 0, 64, 51
1, 207366, Note_off_c, 0, 74, 63
1, 207367, Control_c, 0, 64, 65
1, 207368, Note_on_c, 0, 77, 72
1, 207371, Note_on_c, 0, 71, 78
1, 207382, Control_c, 0, 64, 71
1, 207385, Note_off_c, 0, 81, 58
1, 207389, Note_off_c, 0, 48, 62
1, 207395, Note_off_c, 0, 41, 63
1, 207395, Note_on_c, 0, 45, 62
1, 207397, Control_c, 0, 64, 79
1, 207405, Note_on_c, 0, 50, 67
1, 207411, Control_c, 0, 64, 86
1, 207419, Note_off_c, 0, 77, 61
1, 207426, Note_off_c, 0, 45, 64
1, 207426, Note_off_c, 0, 71, 59
1, 207426, Control_c, 0, 64, 89
1, 207438, Note_off_c, 0, 50, 65
1, 207441, Control_c, 0, 64, 90
1, 207455, Control_c, 0, 64, 90
1, 207470, Control_c, 0, 64, 91
1, 207485, Control_c, 0, 64, 91
1, 207493, Note_on_c, 0, 71, 78
1, 207496, Note_on_c, 0, 77, 79
1, 207500, Control_c, 0, 64, 92
1, 207504, Note_on_c, 0, 45, 64
1, 207515, Control_c, 0, 64, 93
1, 207530, Control_c, 0, 64, 93
1, 207539, Note_off_c, 0, 71, 57
1, 207546, Note_on_c, 0, 50, 42
1, 207553, Note_off_c, 0, 77, 57
1, 207560, Control_c, 0, 64, 91
1, 207575, Control_c, 0, 64, 84
1, 207590, Control_c, 0, 64, 74
1, 207598, Note_off_c, 0, 45, 57
1, 207603, Note_off_c, 0, 50, 54
1, 207605, Control_c, 0, 64, 64
1, 207613, Note_on_c, 0, 69, 83
1, 207615, Note_on_c, 0, 74, 78
1, 207620, Control_c, 0, 64, 64
1, 207634, Note_on_c, 0, 53, 66
1, 207634, Control_c, 0, 64, 69
1, 207635, Note_on_c, 0, 48, 53
1, 207649, Control_c, 0, 64, 75
1, 207651, Note_off_c, 0, 69, 66
1, 207657, Note_off_c, 0, 74, 62
1, 207658, Note_off_c, 0, 48, 64
1, 207664, Control_c, 0, 64, 81
1, 207675, Note_off_c, 0, 53, 64
1, 207679, Control_c, 0, 64, 84
1, 207693, Control_c, 0, 64, 85
1, 207708, Control_c, 0, 64, 86
1, 207734, Note_on_c, 0, 48, 71
1, 207735, Note_on_c, 0, 69, 85
1, 207738, Note_on_c, 0, 74, 75
1, 207753, Control_c, 0, 64, 86
1, 207779, Note_off_c, 0, 74, 56
1, 207783, Note_off_c, 0, 69, 62
1, 207783, Control_c, 0, 64, 87
1, 207786, Note_on_c, 0, 53, 28
1, 207813, Note_off_c, 0, 48, 55
1, 207827, Control_c, 0, 64, 87
1, 207838, Note_off_c, 0, 53, 48
1, 207848, Note_on_c, 0, 68, 78
1, 207852, Note_on_c, 0, 72, 65
1, 207856, Control_c, 0, 64, 88
1, 207863, Note_on_c, 0, 57, 72
1, 207871, Control_c, 0, 64, 88
1, 207872, Note_on_c, 0, 50, 52
1, 207875, Note_off_c, 0, 72, 67
1, 207883, Note_off_c, 0, 68, 64
1, 207893, Control_c, 0, 64, 89
1, 207902, Note_off_c, 0, 57, 62
1, 207905, Note_off_c, 0, 50, 54
1, 207908, Control_c, 0, 64, 89
1, 207938, Control_c, 0, 64, 89
1, 207953, Control_c, 0, 64, 83
1, 207962, Note_on_c, 0, 72, 80
1, 207965, Note_on_c, 0, 68, 87
1, 207967, Control_c, 0, 64, 71
1, 207977, Note_on_c, 0, 50, 64
1, 207982, Control_c, 0, 64, 0
1, 207993, Note_on_c, 0, 57, 66
1, 207994, Note_off_c, 0, 68, 67
1, 208019, Note_off_c, 0, 72, 43
1, 208024, Note_off_c, 0, 57, 59
1, 208027, Note_on_c, 0, 66, 92
1, 208028, Note_on_c, 0, 71, 87
1, 208036, Note_on_c, 0, 53, 60
1, 208041, Control_c, 0, 64, 67
1, 208049, Note_on_c, 0, 60, 79
1, 208054, Note_off_c, 0, 50, 39
1, 208056, Control_c, 0, 64, 76
1, 208067, Note_off_c, 0, 53, 66
1, 208071, Note_off_c, 0, 71, 61
1, 208071, Control_c, 0, 64, 86
1, 208076, Note_off_c, 0, 66, 67
1, 208085, Control_c, 0, 64, 91
1, 208098, Note_off_c, 0, 60, 61
1, 208100, Control_c, 0, 64, 92
1, 208130, Control_c, 0, 64, 92
1, 208145, Control_c, 0, 64, 87
1, 208159, Control_c, 0, 64, 75
1, 208163, Note_on_c, 0, 66, 95
1, 208166, Note_on_c, 0, 71, 89
1, 208174, Control_c, 0, 64, 0
1, 208176, Note_on_c, 0, 60, 69
1, 208188, Note_on_c, 0, 53, 60
1, 208208, Note_off_c, 0, 66, 64
1, 208217, Note_off_c, 0, 71, 57
1, 208248, Control_c, 0, 64, 44
1, 208249, Note_off_c, 0, 53, 60
1, 208262, Note_off_c, 0, 60, 62
1, 208263, Control_c, 0, 64, 66
1, 208278, Control_c, 0, 64, 71
1, 208279, Note_on_c, 0, 69, 86
1, 208282, Note_on_c, 0, 65, 85
1, 208288, Note_on_c, 0, 62, 77
1, 208292, Note_on_c, 0, 57, 49
1, 208292, Control_c, 0, 64, 76
1, 208305, Note_off_c, 0, 65, 68
1, 208307, Control_c, 0, 64, 78
1, 208316, Note_off_c, 0, 57, 58
1, 208322, Control_c, 0, 64, 79
1, 208328, Note_off_c, 0, 69, 65
1, 208337, Control_c, 0, 64, 80
1, 208349, Note_off_c, 0, 62, 62
1, 208352, Control_c, 0, 64, 80
1, 208368, Control_c, 0, 64, 81
1, 208401, Note_on_c, 0, 69, 99
1, 208406, Note_on_c, 0, 65, 90
1, 208412, Note_on_c, 0, 57, 63
1, 208424, Note_on_c, 0, 62, 65
1, 208435, Note_off_c, 0, 65, 67
1, 208441, Note_off_c, 0, 69, 67
1, 208471, Control_c, 0, 64, 81
1, 208480, Note_off_c, 0, 57, 60
1, 208492, Note_off_c, 0, 62, 54
1, 208501, Control_c, 0, 64, 82
1, 208514, Note_on_c, 0, 68, 103
1, 208517, Note_on_c, 0, 63, 91
1, 208531, Control_c, 0, 64, 82
1, 208534, Note_on_c, 0, 65, 87
1, 208535, Note_on_c, 0, 60, 72
1, 208537, Note_off_c, 0, 63, 73
1, 208546, Control_c, 0, 64, 83
1, 208551, Note_off_c, 0, 68, 69
1, 208560, Note_off_c, 0, 60, 65
1, 208561, Control_c, 0, 64, 83
1, 208602, Note_off_c, 0, 65, 64
1, 208687, Control_c, 0, 64, 78
1, 208702, Control_c, 0, 64, 66
1, 208716, Control_c, 0, 64, 0
1, 208790, Note_on_c, 0, 67, 103
1, 208792, Note_on_c, 0, 65, 92
1, 208795, Note_on_c, 0, 62, 81
1, 208799, Note_on_c, 0, 58, 87
1, 208820, Control_c, 0, 64, 74
1, 208835, Control_c, 0, 64, 98
1, 208850, Control_c, 0, 64, 114
1, 208865, Control_c, 0, 64, 115
1, 208871, Note_off_c, 0, 62, 64
1, 208891, Note_off_c, 0, 65, 57
1, 208900, Note_off_c, 0, 67, 55
1, 208909, Control_c, 0, 64, 114
1, 208926, Note_off_c, 0, 58, 52
1, 208939, Control_c, 0, 64, 114
1, 208943, Note_on_c, 0, 79, 71
1, 208947, Note_on_c, 0, 70, 77
1, 208948, Note_on_c, 0, 77, 53
1, 208954, Control_c, 0, 64, 107
1, 208969, Control_c, 0, 64, 94
1, 208969, Note_off_c, 0, 70, 68
1, 208969, Note_off_c, 0, 79, 64
1, 208981, Note_off_c, 0, 77, 64
1, 208983, Control_c, 0, 64, 75
1, 208998, Control_c, 0, 64, 0
1, 209064, Note_on_c, 0, 64, 72
1, 209066, Note_on_c, 0, 67, 87
1, 209066, Note_on_c, 0, 77, 86
1, 209067, Note_on_c, 0, 65, 81
1, 209077, Note_on_c, 0, 70, 56
1, 209079, Note_on_c, 0, 71, 66
1, 209081, Note_on_c, 0, 55, 65
1, 209090, Note_on_c, 0, 59, 38
1, 209093, Note_off_c, 0, 65, 67
1, 209093, Note_off_c, 0, 67, 62
1, 209100, Note_off_c, 0, 64, 66
1, 209106, Note_off_c, 0, 71, 64
1, 209106, Note_off_c, 0, 77, 63
1, 209109, Note_off_c, 0, 70, 62
1, 209120, Note_off_c, 0, 59, 49
1, 209124, Note_off_c, 0, 55, 66
1, 209203, Note_on_c, 0, 62, 106
1, 209212, Note_on_c, 0, 61, 82
1, 209219, Note_on_c, 0, 58, 62
1, 209219, Note_on_c, 0, 53, 65
1, 209221, Control_c, 0, 64, 71
1, 209236, Control_c, 0, 64, 116
1, 209248, Note_off_c, 0, 58, 65
1, 209251, Note_off_c, 0, 53, 64
1, 209251, Control_c, 0, 64, 127
1, 209264, Note_off_c, 0, 61, 62
1, 209267, Note_off_c, 0, 62, 55
1, 209295, Control_c, 0, 64, 114
1, 209310, Control_c, 0, 64, 96
1, 209324, Control_c, 0, 64, 77
1, 209333, Note_on_c, 0, 65, 59
1, 209336, Note_on_c, 0, 70, 71
1, 209339, Control_c, 0, 64, 0
1, 209342, Note_on_c, 0, 73, 63
1, 209348, Note_on_c, 0, 74, 48
1, 209354, Note_off_c, 0, 65, 60
1, 209370, Note_off_c, 0, 70, 60
1, 209370, Note_off_c, 0, 74, 61
1, 209374, Note_off_c, 0, 73, 63
1, 209473, Note_on_c, 0, 67, 104
1, 209479, Note_on_c, 0, 65, 84
1, 209479, Note_on_c, 0, 62, 79
1, 209483, Note_on_c, 0, 58, 85
1, 209495, Control_c, 0, 64, 37
1, 209510, Control_c, 0, 64, 101
1, 209525, Control_c, 0, 64, 127
1, 209547, Note_off_c, 0, 62, 61
1, 209565, Note_off_c, 0, 65, 62
1, 209567, Note_off_c, 0, 67, 56
1, 209580, Note_off_c, 0, 58, 64
1, 209593, Note_on_c, 0, 74, 33
1, 209608, Note_on_c, 0, 77, 65
1, 209608, Note_on_c, 0, 79, 72
1, 209610, Note_on_c, 0, 70, 71
1, 209628, Control_c, 0, 64, 103
1, 209637, Note_off_c, 0, 70, 66
1, 209637, Note_off_c, 0, 74, 63
1, 209639, Note_off_c, 0, 79, 61
1, 209643, Control_c, 0, 64, 81
1, 209647, Note_off_c, 0, 77, 57
1, 209658, Control_c, 0, 64, 0
1, 209735, Note_on_c, 0, 65, 85
1, 209735, Note_on_c, 0, 77, 84
1, 209738, Note_on_c, 0, 64, 72
1, 209741, Note_on_c, 0, 67, 76
1, 209748, Note_on_c, 0, 55, 67
1, 209750, Note_on_c, 0, 71, 64
1, 209759, Note_off_c, 0, 67, 61
1, 209763, Note_off_c, 0, 65, 65
1, 209768, Note_off_c, 0, 64, 66
1, 209773, Note_off_c, 0, 77, 58
1, 209781, Note_off_c, 0, 71, 64
1, 209797, Note_off_c, 0, 55, 66
1, 209862, Note_on_c, 0, 62, 105
1, 209873, Note_on_c, 0, 61, 75
1, 209876, Note_on_c, 0, 58, 69
1, 209880, Control_c, 0, 64, 67
1, 209881, Note_on_c, 0, 53, 62
1, 209895, Control_c, 0, 64, 127
1, 209908, Note_off_c, 0, 53, 67
1, 209908, Note_off_c, 0, 58, 66
1, 209911, Note_off_c, 0, 62, 59
1, 209916, Note_off_c, 0, 61, 60
1, 209970, Control_c, 0, 64, 102
1, 209985, Control_c, 0, 64, 79
1, 209997, Note_on_c, 0, 70, 75
1, 209997, Note_on_c, 0, 65, 70
1, 210000, Control_c, 0, 64, 0
1, 210019, Note_off_c, 0, 65, 59
1, 210021, Note_on_c, 0, 74, 45
1, 210027, Note_on_c, 0, 76, 46
1, 210042, Note_off_c, 0, 70, 62
1, 210044, Note_off_c, 0, 74, 55
1, 210045, Note_on_c, 0, 73, 4
1, 210048, Note_off_c, 0, 76, 49
1, 210091, Note_off_c, 0, 73, 27
1, 210125, Note_on_c, 0, 68, 107
1, 210140, Note_on_c, 0, 65, 79
1, 210144, Note_on_c, 0, 57, 75
1, 210155, Control_c, 0, 64, 70
1, 210160, Note_on_c, 0, 60, 56
1, 210168, Note_off_c, 0, 65, 68
1, 210170, Note_off_c, 0, 68, 69
1, 210170, Control_c, 0, 64, 127
1, 210191, Note_off_c, 0, 60, 65
1, 210205, Note_off_c, 0, 57, 62
1, 210206, Note_on_c, 0, 78, 13
1, 210228, Note_off_c, 0, 78, 46
1, 210269, Note_on_c, 0, 80, 77
1, 210278, Note_on_c, 0, 69, 82
1, 210288, Control_c, 0, 64, 123
1, 210296, Note_off_c, 0, 80, 65
1, 210303, Control_c, 0, 64, 89
1, 210318, Control_c, 0, 64, 58
1, 210321, Note_off_c, 0, 69, 65
1, 210333, Control_c, 0, 64, 0
1, 210403, Note_on_c, 0, 60, 103
1, 210406, Note_on_c, 0, 57, 85
1, 210410, Note_on_c, 0, 53, 78
1, 210412, Note_on_c, 0, 50, 79
1, 210422, Control_c, 0, 64, 67
1, 210436, Control_c, 0, 64, 121
1, 210438, Note_off_c, 0, 57, 63
1, 210441, Note_off_c, 0, 60, 64
1, 210451, Control_c, 0, 64, 127
1, 210471, Note_off_c, 0, 53, 63
1, 210488, Note_off_c, 0, 50, 62
1, 210534, Note_on_c, 0, 72, 77
1, 210540, Note_on_c, 0, 65, 59
1, 210548, Note_on_c, 0, 69, 58
1, 210549, Note_on_c, 0, 62, 41
1, 210560, Note_off_c, 0, 65, 63
1, 210568, Note_off_c, 0, 69, 67
1, 210576, Note_off_c, 0, 62, 55
1, 210577, Note_off_c, 0, 72, 63
1, 210695, Note_on_c, 0, 81, 72
1, 210696, Note_on_c, 0, 84, 101
1, 210698, Note_on_c, 0, 77, 102
1, 210699, Note_on_c, 0, 74, 104
1, 210702, Note_on_c, 0, 48, 101
1, 210704, Note_on_c, 0, 45, 89
1, 210709, Note_on_c, 0, 38, 83
1, 210715, Note_on_c, 0, 41, 73
1, 210725, Note_off_c, 0, 74, 66
1, 210728, Note_off_c, 0, 48, 69
1, 210729, Note_on_c, 0, 83, 45
1, 210730, Note_off_c, 0, 84, 67
1, 210736, Note_off_c, 0, 45, 64
1, 210737, Note_off_c, 0, 77, 67
1, 210752, Note_off_c, 0, 81, 64
1, 210753, Note_off_c, 0, 41, 64
1, 210755, Note_off_c, 0, 83, 36
1, 210775, Note_off_c, 0, 38, 61
1, 210950, Note_on_c, 0, 97, 55
1, 210951, Note_off_c, 0, 97, 127
1, 211038, Control_c, 0, 64, 109
1, 211044, Note_on_c, 0, 105, 64
1, 211052, Control_c, 0, 64, 88
1, 211062, Note_on_c, 0, 29, 48
1, 211065, Note_on_c, 0, 98, 63
1, 211067, Control_c, 0, 64, 65
1, 211068, Note_on_c, 0, 101, 73
1, 211077, Note_on_c, 0, 24, 37
1, 211079, Note_on_c, 0, 96, 76
1, 211082, Control_c, 0, 64, 0
1, 211087, Note_on_c, 0, 26, 41
1, 211090, Note_off_c, 0, 105, 60
1, 211094, Note_off_c, 0, 29, 57
1, 211097, Note_off_c, 0, 98, 66
1, 211099, Note_on_c, 0, 33, 64
1, 211109, Note_off_c, 0, 101, 62
1, 211114, Note_off_c, 0, 24, 56
1, 211123, Note_off_c, 0, 96, 65
1, 211123, Note_off_c, 0, 26, 60
1, 211126, Control_c, 0, 64, 61
1, 211135, Note_off_c, 0, 33, 65
1, 211141, Control_c, 0, 64, 70
1, 211156, Control_c, 0, 64, 79
1, 211171, Control_c, 0, 64, 85
1, 211185, Control_c, 0, 64, 88
1, 211199, Note_on_c, 0, 96, 71
1, 211200, Note_on_c, 0, 101, 79
1, 211200, Control_c, 0, 64, 90
1, 211206, Note_on_c, 0, 26, 61
1, 211215, Control_c, 0, 64, 93
1, 211222, Note_on_c, 0, 33, 54
1, 211230, Control_c, 0, 64, 97
1, 211232, Note_off_c, 0, 96, 57
1, 211235, Note_off_c, 0, 101, 55
1, 211245, Control_c, 0, 64, 100
1, 211259, Control_c, 0, 64, 101
1, 211269, Note_off_c, 0, 26, 52
1, 211274, Control_c, 0, 64, 102
1, 211322, Note_off_c, 0, 33, 53
1, 211326, Note_on_c, 0, 98, 74
1, 211327, Note_on_c, 0, 93, 72
1, 211344, Note_on_c, 0, 36, 61
1, 211346, Note_on_c, 0, 29, 41
1, 211363, Note_off_c, 0, 93, 59
1, 211365, Note_off_c, 0, 98, 62
1, 211381, Note_off_c, 0, 36, 64
1, 211384, Note_off_c, 0, 29, 52
1, 211446, Note_on_c, 0, 93, 89
1, 211449, Note_on_c, 0, 98, 83
1, 211476, Note_on_c, 0, 29, 50
1, 211479, Note_on_c, 0, 36, 49
1, 211480, Note_off_c, 0, 98, 58
1, 211485, Note_off_c, 0, 93, 61
1, 211533, Note_off_c, 0, 29, 46
1, 211567, Note_on_c, 0, 96, 91
1, 211569, Note_on_c, 0, 89, 96
1, 211577, Note_on_c, 0, 33, 64
1, 211578, Note_on_c, 0, 38, 78
1, 211580, Note_off_c, 0, 36, 37
1, 211589, Note_off_c, 0, 96, 65
1, 211590, Note_off_c, 0, 89, 67
1, 211606, Note_off_c, 0, 33, 64
1, 211613, Note_off_c, 0, 38, 64
1, 211697, Control_c, 0, 64, 102
1, 211786, Control_c, 0, 64, 98
1, 211801, Control_c, 0, 64, 86
1, 211815, Control_c, 0, 64, 67
1, 211825, Note_on_c, 0, 62, 108
1, 211827, Note_on_c, 0, 60, 86
1, 211830, Control_c, 0, 64, 0
1, 211834, Note_on_c, 0, 56, 84
1, 211835, Note_on_c, 0, 51, 86
1, 211859, Control_c, 0, 64, 48
1, 211874, Control_c, 0, 64, 69
1, 211889, Control_c, 0, 64, 80
1, 211904, Control_c, 0, 64, 91
1, 211919, Control_c, 0, 64, 99
1, 211933, Control_c, 0, 64, 101
1, 211938, Poly_aftertouch_c, 0, 72, 127
1, 211948, Control_c, 0, 64, 102
1, 211953, Note_off_c, 0, 62, 53
1, 211956, Note_off_c, 0, 60, 58
1, 211963, Control_c, 0, 64, 103
1, 211969, Note_on_c, 0, 63, 69
1, 211970, Note_on_c, 0, 74, 63
1, 211978, Note_on_c, 0, 68, 66
1, 211995, Note_off_c, 0, 51, 57
1, 211996, Note_off_c, 0, 74, 69
1, 212000, Note_off_c, 0, 56, 53
1, 212001, Note_off_c, 0, 63, 66
1, 212012, Note_off_c, 0, 68, 65
1, 212023, Control_c, 0, 64, 102
1, 212026, Poly_aftertouch_c, 0, 72, 0
1, 212038, Control_c, 0, 64, 100
1, 212052, Control_c, 0, 64, 91
1, 212067, Control_c, 0, 64, 75
1, 212082, Control_c, 0, 64, 0
1, 212096, Note_on_c, 0, 60, 76
1, 212096, Note_on_c, 0, 62, 79
1, 212097, Note_on_c, 0, 66, 78
1, 212098, Note_on_c, 0, 59, 69
1, 212098, Note_on_c, 0, 72, 83
1, 212102, Note_on_c, 0, 54, 51
1, 212109, Note_on_c, 0, 50, 61
1, 212110, Note_on_c, 0, 71, 54
1, 212123, Note_off_c, 0, 62, 62
1, 212129, Note_off_c, 0, 59, 65
1, 212129, Note_off_c, 0, 60, 65
1, 212129, Note_off_c, 0, 72, 59
1, 212139, Note_off_c, 0, 71, 64
1, 212144, Note_off_c, 0, 54, 62
1, 212153, Note_off_c, 0, 50, 61
1, 212153, Note_off_c, 0, 66, 65
1, 212222, Note_on_c, 0, 57, 103
1, 212228, Note_on_c, 0, 56, 86
1, 212239, Note_on_c, 0, 48, 65
1, 212245, Control_c, 0, 64, 58
1, 212260, Control_c, 0, 64, 92
1, 212269, Note_off_c, 0, 48, 66
1, 212275, Control_c, 0, 64, 126
1, 212284, Note_off_c, 0, 57, 56
1, 212289, Note_on_c, 0, 68, 37
1, 212290, Control_c, 0, 64, 127
1, 212294, Note_off_c, 0, 56, 62
1, 212294, Note_on_c, 0, 53, 7
1, 212320, Note_off_c, 0, 68, 53
1, 212322, Note_off_c, 0, 53, 37
1, 212367, Note_on_c, 0, 65, 66
1, 212379, Note_on_c, 0, 69, 67
1, 212387, Note_on_c, 0, 68, 77
1, 212388, Note_on_c, 0, 60, 39
1, 212404, Note_off_c, 0, 65, 69
1, 212407, Note_off_c, 0, 69, 64
1, 212417, Control_c, 0, 64, 125
1, 212424, Note_off_c, 0, 60, 46
1, 212431, Control_c, 0, 64, 101
1, 212433, Note_off_c, 0, 68, 63
1, 212446, Control_c, 0, 64, 76
1, 212461, Control_c, 0, 64, 0
1, 212491, Note_on_c, 0, 62, 104
1, 212493, Note_on_c, 0, 60, 93
1, 212499, Note_on_c, 0, 56, 80
1, 212506, Note_on_c, 0, 51, 88
1, 212535, Control_c, 0, 64, 65
1, 212550, Control_c, 0, 64, 90
1, 212564, Control_c, 0, 64, 114
1, 212579, Control_c, 0, 64, 122
1, 212608, Note_off_c, 0, 60, 56
1, 212610, Note_off_c, 0, 62, 50
1, 212636, Note_on_c, 0, 74, 72
1, 212638, Note_on_c, 0, 68, 72
1, 212639, Note_on_c, 0, 63, 74
1, 212650, Note_on_c, 0, 72, 46
1, 212660, Note_off_c, 0, 51, 49
1, 212664, Note_off_c, 0, 56, 52
1, 212665, Note_off_c, 0, 74, 62
1, 212668, Control_c, 0, 64, 122
1, 212671, Note_off_c, 0, 63, 64
1, 212674, Note_off_c, 0, 72, 62
1, 212683, Control_c, 0, 64, 113
1, 212695, Note_off_c, 0, 68, 63
1, 212698, Control_c, 0, 64, 93
1, 212713, Control_c, 0, 64, 72
1, 212728, Control_c, 0, 64, 0
1, 212752, Note_on_c, 0, 60, 86
1, 212755, Note_on_c, 0, 59, 77
1, 212761, Note_on_c, 0, 72, 83
1, 212764, Note_on_c, 0, 54, 55
1, 212769, Note_on_c, 0, 62, 83
1, 212770, Note_on_c, 0, 50, 64
1, 212775, Note_on_c, 0, 66, 79
1, 212783, Note_on_c, 0, 71, 55
1, 212787, Control_c, 0, 64, 43
1, 212791, Note_off_c, 0, 59, 62
1, 212792, Note_off_c, 0, 60, 62
1, 212794, Note_off_c, 0, 62, 67
1, 212802, Control_c, 0, 64, 65
1, 212805, Note_off_c, 0, 71, 58
1, 212808, Note_off_c, 0, 72, 62
1, 212811, Note_off_c, 0, 54, 61
1, 212817, Control_c, 0, 64, 69
1, 212820, Note_off_c, 0, 50, 63
1, 212827, Note_off_c, 0, 66, 62
1, 212831, Control_c, 0, 64, 66
1, 212846, Control_c, 0, 64, 0
1, 212879, Note_on_c, 0, 57, 109
1, 212889, Note_on_c, 0, 56, 83
1, 212896, Note_on_c, 0, 54, 60
1, 212915, Note_on_c, 0, 48, 41
1, 212920, Control_c, 0, 64, 68
1, 212926, Note_off_c, 0, 54, 48
1, 212935, Control_c, 0, 64, 89
1, 212949, Control_c, 0, 64, 124
1, 212950, Note_off_c, 0, 57, 49
1, 212964, Control_c, 0, 64, 127
1, 212965, Note_off_c, 0, 48, 47
1, 212972, Note_off_c, 0, 56, 60
1, 212987, Note_on_c, 0, 69, 71
1, 212996, Note_on_c, 0, 60, 69
1, 213001, Note_on_c, 0, 68, 56
1, 213014, Note_on_c, 0, 65, 68
1, 213047, Note_off_c, 0, 69, 64
1, 213060, Note_off_c, 0, 65, 61
1, 213068, Control_c, 0, 64, 100
1, 213069, Note_off_c, 0, 68, 59
1, 213071, Note_off_c, 0, 60, 58
1, 213083, Control_c, 0, 64, 77
1, 213098, Control_c, 0, 64, 0
1, 213139, Note_on_c, 0, 57, 108
1, 213143, Note_on_c, 0, 55, 88
1, 213151, Note_on_c, 0, 53, 78
1, 213154, Note_on_c, 0, 47, 75
1, 213173, Note_on_c, 0, 50, 49
1, 213225, Control_c, 0, 64, 70
1, 213240, Control_c, 0, 64, 80
1, 213251, Note_off_c, 0, 47, 64
1, 213254, Control_c, 0, 64, 86
1, 213257, Note_off_c, 0, 53, 64
1, 213261, Note_off_c, 0, 50, 60
1, 213269, Control_c, 0, 64, 90
1, 213273, Note_off_c, 0, 55, 61
1, 213279, Note_off_c, 0, 57, 59
1, 213284, Control_c, 0, 64, 92
1, 213289, Note_on_c, 0, 62, 68
1, 213291, Note_on_c, 0, 69, 75
1, 213294, Note_on_c, 0, 65, 63
1, 213296, Note_on_c, 0, 67, 64
1, 213299, Control_c, 0, 64, 94
1, 213313, Note_off_c, 0, 62, 63
1, 213313, Control_c, 0, 64, 95
1, 213315, Note_off_c, 0, 65, 68
1, 213325, Note_off_c, 0, 67, 66
1, 213328, Note_off_c, 0, 69, 64
1, 213328, Control_c, 0, 64, 95
1, 213387, Control_c, 0, 64, 96
1, 213402, Control_c, 0, 64, 97
1, 213417, Control_c, 0, 64, 97
1, 213421, Note_on_c, 0, 81, 82
1, 213425, Note_on_c, 0, 71, 74
1, 213430, Note_on_c, 0, 77, 64
1, 213431, Note_on_c, 0, 74, 61
1, 213434, Note_on_c, 0, 79, 68
1, 213443, Note_off_c, 0, 71, 66
1, 213450, Note_off_c, 0, 74, 68
1, 213458, Note_off_c, 0, 77, 66
1, 213471, Note_off_c, 0, 79, 58
1, 213476, Note_off_c, 0, 81, 61
1, 213476, Control_c, 0, 64, 98
1, 213491, Control_c, 0, 64, 99
1, 213506, Control_c, 0, 64, 102
1, 213521, Control_c, 0, 64, 105
1, 213536, Control_c, 0, 64, 108
1, 213548, Note_on_c, 0, 69, 107
1, 213551, Note_on_c, 0, 67, 96
1, 213555, Note_on_c, 0, 59, 83
1, 213558, Note_on_c, 0, 65, 82
1, 213566, Control_c, 0, 64, 107
1, 213568, Note_on_c, 0, 62, 70
1, 213580, Control_c, 0, 64, 96
1, 213595, Control_c, 0, 64, 76
1, 213610, Control_c, 0, 64, 0
1, 213673, Note_on_c, 0, 93, 103
1, 213676, Note_on_c, 0, 83, 104
1, 213676, Note_on_c, 0, 86, 99
1, 213678, Note_on_c, 0, 91, 93
1, 213679, Note_on_c, 0, 89, 88
1, 213679, Note_off_c, 0, 69, 64
1, 213683, Note_off_c, 0, 67, 59
1, 213689, Note_off_c, 0, 65, 64
1, 213691, Note_off_c, 0, 83, 69
1, 213698, Control_c, 0, 64, 77
1, 213704, Note_off_c, 0, 86, 69
1, 213709, Note_off_c, 0, 93, 62
1, 213712, Note_off_c, 0, 62, 60
1, 213712, Note_off_c, 0, 89, 65
1, 213713, Control_c, 0, 64, 101
1, 213714, Note_off_c, 0, 91, 62
1, 213721, Note_off_c, 0, 59, 63
1, 213728, Control_c, 0, 64, 127
1, 213971, Note_on_c, 0, 50, 56
1, 213984, Note_on_c, 0, 55, 62
1, 213998, Note_on_c, 0, 76, 82
1, 214019, Control_c, 0, 64, 116
1, 214025, Note_on_c, 0, 71, 37
1, 214025, Note_off_c, 0, 50, 55
1, 214034, Control_c, 0, 64, 94
1, 214036, Note_off_c, 0, 55, 64
1, 214037, Note_on_c, 0, 74, 78
1, 214041, Note_on_c, 0, 69, 86
1, 214049, Control_c, 0, 64, 78
1, 214053, Note_off_c, 0, 71, 50
1, 214056, Note_on_c, 0, 53, 64
1, 214057, Note_off_c, 0, 76, 61
1, 214060, Note_on_c, 0, 59, 63
1, 214063, Control_c, 0, 64, 63
1, 214078, Control_c, 0, 64, 58
1, 214082, Note_off_c, 0, 53, 66
1, 214093, Control_c, 0, 64, 67
1, 214099, Note_off_c, 0, 74, 62
1, 214108, Control_c, 0, 64, 74
1, 214114, Note_off_c, 0, 59, 59
1, 214117, Note_off_c, 0, 69, 66
1, 214123, Control_c, 0, 64, 81
1, 214137, Control_c, 0, 64, 83
1, 214152, Control_c, 0, 64, 83
1, 214167, Control_c, 0, 64, 84
1, 214182, Control_c, 0, 64, 85
1, 214197, Control_c, 0, 64, 86
1, 214200, Note_on_c, 0, 53, 55
1, 214207, Note_on_c, 0, 69, 76
1, 214207, Note_on_c, 0, 74, 60
1, 214211, Control_c, 0, 64, 87
1, 214224, Note_on_c, 0, 72, 55
1, 214226, Control_c, 0, 64, 87
1, 214233, Note_on_c, 0, 59, 42
1, 214241, Control_c, 0, 64, 88
1, 214244, Note_off_c, 0, 72, 60
1, 214256, Note_off_c, 0, 74, 47
1, 214261, Note_off_c, 0, 69, 62
1, 214273, Note_off_c, 0, 53, 55
1, 214330, Note_on_c, 0, 65, 75
1, 214336, Note_on_c, 0, 71, 68
1, 214344, Note_on_c, 0, 62, 68
1, 214347, Note_on_c, 0, 55, 52
1, 214348, Note_off_c, 0, 59, 42
1, 214367, Note_off_c, 0, 71, 64
1, 214370, Note_off_c, 0, 65, 63
1, 214370, Note_off_c, 0, 55, 62
1, 214391, Note_off_c, 0, 62, 58
1, 214427, Poly_aftertouch_c, 0, 72, 0
1, 214457, Note_on_c, 0, 71, 92
1, 214458, Note_on_c, 0, 55, 57
1, 214460, Note_on_c, 0, 65, 90
1, 214473, Note_on_c, 0, 62, 51
1, 214493, Note_off_c, 0, 65, 65
1, 214493, Note_off_c, 0, 71, 59
1, 214529, Note_off_c, 0, 55, 54
1, 214549, Note_off_c, 0, 62, 36
1, 214576, Note_on_c, 0, 64, 102
1, 214576, Note_on_c, 0, 69, 100
1, 214582, Note_on_c, 0, 65, 81
1, 214591, Note_on_c, 0, 59, 65
1, 214603, Note_off_c, 0, 64, 65
1, 214605, Note_off_c, 0, 65, 69
1, 214609, Note_off_c, 0, 69, 68
1, 214632, Note_off_c, 0, 59, 64
1, 214698, Poly_aftertouch_c, 0, 58, 0
1, 214752, Control_c, 0, 64, 86
1, 214767, Control_c, 0, 64, 80
1, 214782, Control_c, 0, 64, 65
1, 214797, Control_c, 0, 64, 0
1, 214821, Note_on_c, 0, 55, 100
1, 214821, Note_on_c, 0, 57, 100
1, 214828, Note_on_c, 0, 46, 88
1, 214838, Note_on_c, 0, 48, 69
1, 214841, Note_on_c, 0, 52, 67
1, 214873, Note_off_c, 0, 52, 67
1, 214885, Control_c, 0, 64, 25
1, 214890, Note_off_c, 0, 48, 63
1, 214900, Control_c, 0, 64, 68
1, 214910, Note_off_c, 0, 46, 62
1, 214913, Note_off_c, 0, 55, 46
1, 214915, Control_c, 0, 64, 75
1, 214922, Note_off_c, 0, 57, 61
1, 214930, Control_c, 0, 64, 81
1, 214944, Control_c, 0, 64, 83
1, 214959, Control_c, 0, 64, 84
1, 214974, Control_c, 0, 64, 85
1, 214979, Note_on_c, 0, 60, 72
1, 214988, Note_on_c, 0, 69, 79
1, 214989, Note_on_c, 0, 58, 66
1, 214989, Control_c, 0, 64, 86
1, 214996, Note_on_c, 0, 64, 60
1, 215004, Control_c, 0, 64, 87
1, 215005, Note_off_c, 0, 60, 67
1, 215008, Note_off_c, 0, 58, 62
1, 215026, Note_off_c, 0, 64, 67
1, 215045, Note_off_c, 0, 69, 66
1, 215048, Control_c, 0, 64, 85
1, 215063, Control_c, 0, 64, 76
1, 215077, Control_c, 0, 64, 0
1, 215090, Poly_aftertouch_c, 0, 67, 0
1, 215103, Note_on_c, 0, 58, 90
1, 215105, Note_on_c, 0, 60, 105
1, 215107, Note_on_c, 0, 54, 89
1, 215112, Note_on_c, 0, 49, 85
1, 215144, Note_off_c, 0, 60, 64
1, 215151, Control_c, 0, 64, 65
1, 215166, Note_off_c, 0, 58, 65
1, 215166, Control_c, 0, 64, 75
1, 215181, Control_c, 0, 64, 83
1, 215185, Note_off_c, 0, 54, 61
1, 215196, Control_c, 0, 64, 88
1, 215206, Note_off_c, 0, 49, 61
1, 215209, Poly_aftertouch_c, 0, 66, 127
1, 215211, Control_c, 0, 64, 89
1, 215226, Control_c, 0, 64, 90
1, 215233, Poly_aftertouch_c, 0, 66, 0
1, 215251, Poly_aftertouch_c, 0, 66, 0
1, 215259, Note_on_c, 0, 72, 82
1, 215263, Note_on_c, 0, 66, 52
1, 215265, Note_on_c, 0, 61, 69
1, 215265, Note_on_c, 0, 70, 78
1, 215282, Note_off_c, 0, 61, 64
1, 215292, Note_off_c, 0, 66, 67
1, 215298, Note_off_c, 0, 70, 64
1, 215305, Note_off_c, 0, 72, 66
1, 215330, Control_c, 0, 64, 90
1, 215345, Control_c, 0, 64, 93
1, 215360, Control_c, 0, 64, 97
1, 215382, Control_c, 0, 64, 99
1, 215412, Control_c, 0, 64, 98
1, 215426, Control_c, 0, 64, 90
1, 215441, Control_c, 0, 64, 75
1, 215453, Note_on_c, 0, 73, 97
1, 215455, Note_on_c, 0, 84, 87
1, 215456, Note_on_c, 0, 82, 84
1, 215456, Control_c, 0, 64, 0
1, 215459, Note_on_c, 0, 25, 83
1, 215460, Note_on_c, 0, 34, 82
1, 215461, Note_on_c, 0, 36, 82
1, 215461, Note_on_c, 0, 78, 76
1, 215463, Note_on_c, 0, 30, 67
1, 215464, Note_on_c, 0, 86, 86
1, 215475, Note_off_c, 0, 86, 71
1, 215479, Note_on_c, 0, 79, 68
1, 215481, Note_off_c, 0, 25, 65
1, 215485, Note_off_c, 0, 73, 67
1, 215486, Note_off_c, 0, 78, 54
1, 215486, Note_off_c, 0, 84, 65
1, 215487, Note_on_c, 0, 83, 57
1, 215492, Note_off_c, 0, 30, 35
1, 215496, Note_off_c, 0, 79, 65
1, 215500, Control_c, 0, 64, 59
1, 215502, Note_off_c, 0, 34, 64
1, 215507, Note_off_c, 0, 83, 39
1, 215509, Note_off_c, 0, 82, 66
1, 215512, Note_off_c, 0, 36, 60
1, 215515, Control_c, 0, 64, 74
1, 215530, Control_c, 0, 64, 88
1, 215546, Control_c, 0, 64, 102
1, 215561, Control_c, 0, 64, 105
1, 215783, Control_c, 0, 64, 100
1, 215783, Note_on_c, 0, 61, 70
1, 215785, Note_on_c, 0, 75, 78
1, 215794, Note_on_c, 0, 55, 39
1, 215798, Control_c, 0, 64, 87
1, 215807, Note_off_c, 0, 75, 71
1, 215813, Control_c, 0, 64, 70
1, 215817, Note_on_c, 0, 81, 45
1, 215827, Note_off_c, 0, 55, 55
1, 215828, Control_c, 0, 64, 0
1, 215828, Note_on_c, 0, 79, 16
1, 215839, Note_on_c, 0, 76, 37
1, 215840, Note_off_c, 0, 76, 127
1, 215840, Note_off_c, 0, 61, 62
1, 215840, Note_on_c, 0, 73, 74
1, 215842, Note_off_c, 0, 81, 52
1, 215846, Note_on_c, 0, 78, 74
1, 215849, Note_off_c, 0, 79, 43
1, 215871, Note_on_c, 0, 58, 65
1, 215872, Note_on_c, 0, 64, 66
1, 215872, Control_c, 0, 64, 48
1, 215887, Control_c, 0, 64, 65
1, 215901, Control_c, 0, 64, 70
1, 215906, Note_off_c, 0, 58, 64
1, 215916, Control_c, 0, 64, 75
1, 215929, Note_off_c, 0, 78, 63
1, 215930, Note_off_c, 0, 64, 61
1, 215931, Control_c, 0, 64, 78
1, 215946, Control_c, 0, 64, 81
1, 215959, Note_off_c, 0, 73, 62
1, 215961, Control_c, 0, 64, 82
1, 215975, Control_c, 0, 64, 82
1, 215990, Control_c, 0, 64, 83
1, 216005, Note_on_c, 0, 78, 85
1, 216005, Control_c, 0, 64, 84
1, 216013, Note_on_c, 0, 58, 69
1, 216014, Note_on_c, 0, 73, 67
1, 216019, Control_c, 0, 64, 85
1, 216034, Control_c, 0, 64, 86
1, 216038, Note_on_c, 0, 64, 54
1, 216049, Control_c, 0, 64, 87
1, 216064, Control_c, 0, 64, 88
1, 216078, Note_off_c, 0, 73, 59
1, 216080, Note_off_c, 0, 58, 59
1, 216083, Note_off_c, 0, 78, 59
1, 216108, Control_c, 0, 64, 89
1, 216111, Note_off_c, 0, 64, 36
1, 216150, Note_on_c, 0, 76, 95
1, 216156, Note_on_c, 0, 72, 83
1, 216158, Note_on_c, 0, 66, 75
1, 216165, Note_on_c, 0, 61, 73
1, 216181, Note_off_c, 0, 66, 70
1, 216181, Note_off_c, 0, 72, 65
1, 216185, Note_off_c, 0, 76, 69
1, 216189, Note_off_c, 0, 61, 66
1, 216234, Control_c, 0, 64, 89
1, 216264, Control_c, 0, 64, 90
1, 216323, Control_c, 0, 64, 88
1, 216338, Control_c, 0, 64, 80
1, 216352, Note_on_c, 0, 57, 103
1, 216353, Note_on_c, 0, 55, 99
1, 216354, Control_c, 0, 64, 63
1, 216361, Note_on_c, 0, 46, 84
1, 216369, Control_c, 0, 64, 0
1, 216374, Note_on_c, 0, 48, 65
1, 216380, Note_on_c, 0, 52, 55
1, 216404, Note_off_c, 0, 52, 56
1, 216443, Control_c, 0, 64, 39
1, 216458, Control_c, 0, 64, 65
1, 216469, Note_off_c, 0, 55, 54
1, 216471, Note_off_c, 0, 48, 64
1, 216472, Control_c, 0, 64, 70
1, 216473, Note_off_c, 0, 57, 58
1, 216487, Control_c, 0, 64, 74
1, 216498, Note_on_c, 0, 60, 61
1, 216499, Note_on_c, 0, 69, 78
1, 216502, Control_c, 0, 64, 78
1, 216506, Note_on_c, 0, 58, 86
1, 216508, Note_off_c, 0, 46, 56
1, 216517, Control_c, 0, 64, 80
1, 216532, Control_c, 0, 64, 82
1, 216547, Control_c, 0, 64, 84
1, 216551, Note_off_c, 0, 69, 65
1, 216561, Note_off_c, 0, 58, 64
1, 216561, Note_off_c, 0, 60, 62
1, 216561, Control_c, 0, 64, 86
1, 216576, Control_c, 0, 64, 87
1, 216591, Control_c, 0, 64, 88
1, 216621, Control_c, 0, 64, 87
1, 216636, Control_c, 0, 64, 85
1, 216650, Control_c, 0, 64, 75
1, 216665, Control_c, 0, 64, 0
1, 216688, Note_on_c, 0, 62, 100
1, 216693, Note_on_c, 0, 45, 77
1, 216693, Note_on_c, 0, 48, 74
1, 216693, Note_on_c, 0, 50, 77
1, 216696, Note_on_c, 0, 57, 89
1, 216699, Note_on_c, 0, 60, 84
1, 216739, Control_c, 0, 64, 59
1, 216754, Control_c, 0, 64, 66
1, 216761, Note_off_c, 0, 48, 56
1, 216769, Control_c, 0, 64, 71
1, 216780, Note_off_c, 0, 57, 60
1, 216784, Control_c, 0, 64, 74
1, 216793, Note_off_c, 0, 60, 59
1, 216798, Control_c, 0, 64, 78
1, 216800, Note_off_c, 0, 62, 61
1, 216813, Control_c, 0, 64, 80
1, 216828, Control_c, 0, 64, 81
1, 216842, Control_c, 0, 64, 83
1, 216845, Note_off_c, 0, 45, 57
1, 216857, Note_off_c, 0, 50, 62
1, 216857, Control_c, 0, 64, 84
1, 216876, Note_on_c, 0, 65, 96
1, 216880, Control_c, 0, 64, 85
1, 216880, Note_on_c, 0, 57, 74
1, 216885, Note_on_c, 0, 53, 87
1, 216885, Note_on_c, 0, 60, 70
1, 216895, Control_c, 0, 64, 86
1, 216906, Note_off_c, 0, 60, 71
1, 216907, Note_off_c, 0, 57, 59
1, 216910, Control_c, 0, 64, 86
1, 216915, Note_off_c, 0, 65, 69
1, 216924, Control_c, 0, 64, 87
1, 216925, Note_off_c, 0, 53, 66
1, 216939, Control_c, 0, 64, 87
1, 216954, Control_c, 0, 64, 89
1, 216969, Control_c, 0, 64, 92
1, 216984, Control_c, 0, 64, 95
1, 216998, Control_c, 0, 64, 95
1, 217013, Control_c, 0, 64, 95
1, 217028, Control_c, 0, 64, 91
1, 217043, Control_c, 0, 64, 80
1, 217057, Control_c, 0, 64, 64
1, 217065, Note_on_c, 0, 77, 96
1, 217066, Note_on_c, 0, 71, 81
1, 217069, Note_on_c, 0, 66, 106
1, 217072, Control_c, 0, 64, 0
1, 217075, Note_on_c, 0, 63, 77
1, 217075, Note_on_c, 0, 65, 86
1, 217080, Note_on_c, 0, 59, 54
1, 217089, Note_on_c, 0, 76, 74
1, 217091, Note_on_c, 0, 54, 65
1, 217101, Note_on_c, 0, 75, 38
1, 217102, Control_c, 0, 64, 58
1, 217107, Note_off_c, 0, 65, 65
1, 217110, Note_off_c, 0, 63, 64
1, 217112, Note_off_c, 0, 59, 63
1, 217117, Control_c, 0, 64, 69
1, 217122, Note_off_c, 0, 75, 58
1, 217123, Note_off_c, 0, 76, 61
1, 217123, Note_off_c, 0, 77, 63
1, 217131, Control_c, 0, 64, 76
1, 217136, Note_off_c, 0, 71, 61
1, 217141, Note_off_c, 0, 54, 62
1, 217147, Control_c, 0, 64, 81
1, 217162, Control_c, 0, 64, 84
1, 217167, Note_off_c, 0, 66, 63
1, 217177, Control_c, 0, 64, 85
1, 217192, Control_c, 0, 64, 85
1, 217266, Control_c, 0, 64, 80
1, 217280, Control_c, 0, 64, 65
1, 217283, Note_on_c, 0, 60, 104
1, 217285, Note_on_c, 0, 57, 88
1, 217287, Note_on_c, 0, 53, 86
1, 217291, Note_on_c, 0, 50, 83
1, 217295, Control_c, 0, 64, 0
1, 217506, Note_on_c, 0, 62, 108
1, 217507, Note_on_c, 0, 72, 93
1, 217509, Note_on_c, 0, 65, 97
1, 217515, Note_on_c, 0, 69, 92
1, 217533, Control_c, 0, 64, 64
1, 217534, Note_off_c, 0, 60, 60
1, 217539, Note_off_c, 0, 62, 66
1, 217547, Control_c, 0, 64, 97
1, 217548, Note_on_c, 0, 71, 46
1, 217554, Note_off_c, 0, 72, 67
1, 217560, Note_off_c, 0, 65, 66
1, 217562, Control_c, 0, 64, 118
1, 217566, Note_off_c, 0, 57, 57
1, 217572, Note_off_c, 0, 71, 57
1, 217572, Note_off_c, 0, 69, 67
1, 217592, Note_off_c, 0, 53, 61
1, 217599, Note_off_c, 0, 50, 59
1, 217956, Control_c, 0, 64, 119
1, 218000, Control_c, 0, 64, 119
1, 218030, Control_c, 0, 64, 119
1, 218044, Control_c, 0, 64, 117
1, 218059, Control_c, 0, 64, 105
1, 218074, Control_c, 0, 64, 88
1, 218089, Control_c, 0, 64, 69
1, 218103, Control_c, 0, 64, 0
1, 218110, Note_on_c, 0, 89, 58
1, 218113, Note_on_c, 0, 38, 53
1, 218124, Note_on_c, 0, 33, 46
1, 218124, Note_on_c, 0, 86, 66
1, 218130, Note_on_c, 0, 81, 64
1, 218142, Note_off_c, 0, 89, 66
1, 218148, Control_c, 0, 64, 62
1, 218150, Note_on_c, 0, 84, 14
1, 218150, Note_off_c, 0, 38, 64
1, 218163, Note_off_c, 0, 33, 62
1, 218163, Control_c, 0, 64, 68
1, 218168, Note_off_c, 0, 86, 60
1, 218170, Note_on_c, 0, 41, 47
1, 218176, Note_on_c, 0, 36, 34
1, 218176, Note_off_c, 0, 84, 44
1, 218177, Control_c, 0, 64, 73
1, 218178, Note_off_c, 0, 81, 60
1, 218192, Control_c, 0, 64, 77
1, 218207, Control_c, 0, 64, 81
1, 218210, Note_off_c, 0, 41, 63
1, 218216, Note_off_c, 0, 36, 44
1, 218222, Control_c, 0, 64, 83
1, 218237, Control_c, 0, 64, 84
1, 218252, Control_c, 0, 64, 85
1, 218266, Control_c, 0, 64, 86
1, 218278, Note_on_c, 0, 81, 64
1, 218283, Note_on_c, 0, 86, 53
1, 218290, Note_on_c, 0, 88, 45
1, 218296, Note_on_c, 0, 36, 44
1, 218308, Note_off_c, 0, 81, 53
1, 218311, Note_off_c, 0, 86, 54
1, 218316, Note_off_c, 0, 88, 49
1, 218326, Control_c, 0, 64, 86
1, 218331, Note_on_c, 0, 41, 35
1, 218353, Note_off_c, 0, 36, 48
1, 218392, Note_off_c, 0, 41, 48
1, 218414, Note_on_c, 0, 77, 64
1, 218415, Note_on_c, 0, 84, 66
1, 218422, Note_on_c, 0, 45, 58
1, 218436, Note_on_c, 0, 38, 33
1, 218441, Note_off_c, 0, 84, 68
1, 218445, Note_off_c, 0, 77, 58
1, 218454, Note_off_c, 0, 45, 65
1, 218475, Note_off_c, 0, 38, 52
1, 218535, Note_on_c, 0, 38, 45
1, 218539, Note_on_c, 0, 84, 71
1, 218542, Note_on_c, 0, 45, 49
1, 218542, Note_on_c, 0, 77, 73
1, 218592, Note_off_c, 0, 45, 52
1, 218595, Note_off_c, 0, 84, 59
1, 218597, Note_off_c, 0, 38, 52
1, 218605, Note_off_c, 0, 77, 56
1, 218629, Control_c, 0, 64, 87
1, 218644, Control_c, 0, 64, 88
1, 218659, Control_c, 0, 64, 89
1, 218666, Note_on_c, 0, 48, 61
1, 218673, Note_on_c, 0, 80, 61
1, 218674, Note_on_c, 0, 75, 66
1, 218674, Control_c, 0, 64, 90
1, 218689, Control_c, 0, 64, 91
1, 218691, Note_off_c, 0, 80, 66
1, 218695, Note_off_c, 0, 48, 66
1, 218702, Note_off_c, 0, 75, 68
1, 218718, Control_c, 0, 64, 90
1, 218723, Poly_aftertouch_c, 0, 41, 127
1, 218733, Control_c, 0, 64, 85
1, 218740, Note_on_c, 0, 41, 21
1, 218749, Control_c, 0, 64, 73
1, 218761, Note_on_c, 0, 80, 82
1, 218764, Control_c, 0, 64, 45
1, 218767, Note_on_c, 0, 75, 52
1, 218779, Control_c, 0, 64, 0
1, 218787, Note_on_c, 0, 74, 69
1, 218793, Control_c, 0, 64, 23
1, 218796, Note_off_c, 0, 75, 60
1, 218799, Note_on_c, 0, 78, 77
1, 218808, Control_c, 0, 64, 65
1, 218817, Poly_aftertouch_c, 0, 48, 127
1, 218821, Note_off_c, 0, 41, 59
1, 218823, Control_c, 0, 64, 71
1, 218824, Note_off_c, 0, 80, 64
1, 218827, Note_on_c, 0, 45, 53
1, 218830, Note_on_c, 0, 50, 64
1, 218838, Control_c, 0, 64, 76
1, 218842, Note_off_c, 0, 74, 59
1, 218848, Poly_aftertouch_c, 0, 48, 0
1, 218852, Control_c, 0, 64, 81
1, 218857, Note_off_c, 0, 45, 65
1, 218865, Note_off_c, 0, 78, 63
1, 218867, Note_off_c, 0, 50, 64
1, 218867, Control_c, 0, 64, 82
1, 218882, Control_c, 0, 64, 83
1, 218897, Control_c, 0, 64, 84
1, 218926, Control_c, 0, 64, 84
1, 218928, Note_on_c, 0, 78, 76
1, 218934, Note_on_c, 0, 74, 76
1, 218937, Note_on_c, 0, 45, 61
1, 218973, Note_on_c, 0, 50, 42
1, 218974, Note_off_c, 0, 74, 53
1, 218991, Note_off_c, 0, 78, 62
1, 219034, Note_off_c, 0, 45, 49
1, 219050, Note_on_c, 0, 72, 73
1, 219054, Note_on_c, 0, 77, 78
1, 219071, Note_on_c, 0, 48, 63
1, 219071, Note_off_c, 0, 50, 36
1, 219076, Note_on_c, 0, 53, 69
1, 219092, Note_off_c, 0, 77, 60
1, 219095, Note_off_c, 0, 72, 63
1, 219102, Note_off_c, 0, 48, 67
1, 219122, Note_off_c, 0, 53, 65
1, 219182, Note_on_c, 0, 77, 78
1, 219184, Note_on_c, 0, 48, 71
1, 219186, Note_on_c, 0, 72, 80
1, 219211, Note_on_c, 0, 53, 47
1, 219237, Note_off_c, 0, 77, 60
1, 219242, Note_off_c, 0, 72, 62
1, 219250, Note_off_c, 0, 48, 58
1, 219289, Control_c, 0, 64, 85
1, 219296, Note_off_c, 0, 53, 60
1, 219301, Note_on_c, 0, 75, 75
1, 219304, Note_on_c, 0, 71, 71
1, 219315, Note_on_c, 0, 57, 69
1, 219317, Note_on_c, 0, 50, 55
1, 219319, Control_c, 0, 64, 85
1, 219334, Control_c, 0, 64, 86
1, 219336, Note_off_c, 0, 75, 60
1, 219339, Note_off_c, 0, 50, 61
1, 219339, Note_off_c, 0, 71, 59
1, 219346, Note_off_c, 0, 57, 63
1, 219349, Control_c, 0, 64, 87
1, 219393, Control_c, 0, 64, 82
1, 219408, Control_c, 0, 64, 71
1, 219411, Note_on_c, 0, 75, 84
1, 219413, Note_on_c, 0, 71, 79
1, 219414, Note_on_c, 0, 50, 69
1, 219423, Control_c, 0, 64, 0
1, 219429, Note_on_c, 0, 57, 64
1, 219438, Note_off_c, 0, 71, 64
1, 219467, Control_c, 0, 64, 34
1, 219471, Note_off_c, 0, 50, 60
1, 219476, Note_off_c, 0, 57, 55
1, 219478, Note_on_c, 0, 74, 86
1, 219480, Note_on_c, 0, 69, 90
1, 219482, Control_c, 0, 64, 69
1, 219490, Note_off_c, 0, 75, 55
1, 219493, Note_on_c, 0, 53, 66
1, 219496, Note_on_c, 0, 60, 80
1, 219497, Control_c, 0, 64, 77
1, 219511, Control_c, 0, 64, 87
1, 219521, Note_off_c, 0, 53, 67
1, 219526, Control_c, 0, 64, 93
1, 219537, Note_off_c, 0, 74, 64
1, 219542, Control_c, 0, 64, 95
1, 219545, Note_off_c, 0, 69, 65
1, 219554, Note_off_c, 0, 60, 62
1, 219572, Control_c, 0, 64, 94
1, 219587, Control_c, 0, 64, 86
1, 219602, Control_c, 0, 64, 72
1, 219616, Control_c, 0, 64, 0
1, 219617, Note_on_c, 0, 69, 95
1, 219621, Note_on_c, 0, 74, 86
1, 219633, Note_on_c, 0, 60, 67
1, 219637, Note_on_c, 0, 53, 53
1, 219661, Control_c, 0, 64, 11
1, 219675, Control_c, 0, 64, 67
1, 219687, Note_off_c, 0, 69, 58
1, 219690, Control_c, 0, 64, 73
1, 219697, Note_off_c, 0, 74, 63
1, 219705, Control_c, 0, 64, 79
1, 219714, Note_off_c, 0, 53, 62
1, 219720, Control_c, 0, 64, 81
1, 219730, Note_off_c, 0, 60, 58
1, 219735, Control_c, 0, 64, 82
1, 219742, Note_on_c, 0, 72, 87
1, 219744, Note_on_c, 0, 68, 89
1, 219749, Control_c, 0, 64, 82
1, 219755, Note_on_c, 0, 57, 61
1, 219755, Note_on_c, 0, 62, 85
1, 219764, Control_c, 0, 64, 83
1, 219784, Note_off_c, 0, 57, 64
1, 219790, Note_off_c, 0, 68, 65
1, 219793, Note_off_c, 0, 72, 65
1, 219794, Control_c, 0, 64, 83
1, 219813, Note_off_c, 0, 62, 63
1, 219823, Control_c, 0, 64, 84
1, 219874, Note_on_c, 0, 72, 94
1, 219881, Note_on_c, 0, 68, 89
1, 219884, Note_on_c, 0, 57, 64
1, 219891, Note_on_c, 0, 62, 64
1, 219927, Note_off_c, 0, 72, 61
1, 219937, Note_off_c, 0, 68, 59
1, 219948, Note_off_c, 0, 57, 60
1, 220001, Note_on_c, 0, 66, 102
1, 220001, Note_on_c, 0, 71, 98
1, 220004, Note_on_c, 0, 65, 79
1, 220007, Note_on_c, 0, 60, 75
1, 220026, Note_off_c, 0, 65, 71
1, 220034, Note_off_c, 0, 66, 65
1, 220037, Note_off_c, 0, 71, 65
1, 220049, Note_off_c, 0, 60, 58
1, 220051, Note_off_c, 0, 62, 26
1, 220186, Control_c, 0, 64, 83
1, 220201, Control_c, 0, 64, 78
1, 220216, Control_c, 0, 64, 64
1, 220231, Control_c, 0, 64, 0
1, 220245, Note_on_c, 0, 55, 100
1, 220245, Note_on_c, 0, 57, 101
1, 220250, Note_on_c, 0, 46, 84
1, 220256, Note_on_c, 0, 48, 74
1, 220267, Note_on_c, 0, 52, 63
1, 220297, Note_off_c, 0, 52, 68
1, 220305, Control_c, 0, 64, 46
1, 220314, Note_off_c, 0, 48, 64
1, 220319, Note_on_c, 0, 68, 38
1, 220320, Control_c, 0, 64, 69
1, 220328, Note_off_c, 0, 46, 63
1, 220328, Note_off_c, 0, 55, 46
1, 220336, Control_c, 0, 64, 77
1, 220346, Note_off_c, 0, 57, 61
1, 220351, Control_c, 0, 64, 85
1, 220360, Note_off_c, 0, 68, 52
1, 220365, Control_c, 0, 64, 87
1, 220380, Control_c, 0, 64, 87
1, 220413, Note_on_c, 0, 60, 78
1, 220420, Note_on_c, 0, 58, 78
1, 220425, Note_on_c, 0, 69, 80
1, 220432, Note_on_c, 0, 64, 63
1, 220445, Note_off_c, 0, 58, 67
1, 220453, Note_off_c, 0, 60, 59
1, 220464, Note_off_c, 0, 64, 66
1, 220469, Control_c, 0, 64, 84
1, 220484, Control_c, 0, 64, 74
1, 220487, Note_off_c, 0, 69, 66
1, 220499, Control_c, 0, 64, 0
1, 220548, Note_on_c, 0, 58, 98
1, 220552, Note_on_c, 0, 54, 90
1, 220553, Note_on_c, 0, 60, 87
1, 220553, Note_on_c, 0, 62, 102
1, 220556, Note_on_c, 0, 49, 82
1, 220579, Note_off_c, 0, 62, 63
1, 220588, Note_off_c, 0, 60, 59
1, 220603, Control_c, 0, 64, 65
1, 220618, Note_off_c, 0, 58, 62
1, 220625, Control_c, 0, 64, 73
1, 220639, Note_off_c, 0, 54, 61
1, 220640, Control_c, 0, 64, 80
1, 220654, Control_c, 0, 64, 84
1, 220665, Note_off_c, 0, 49, 61
1, 220669, Control_c, 0, 64, 85
1, 220684, Control_c, 0, 64, 86
1, 220699, Control_c, 0, 64, 87
1, 220714, Control_c, 0, 64, 88
1, 220714, Note_on_c, 0, 72, 82
1, 220716, Note_on_c, 0, 61, 72
1, 220719, Note_on_c, 0, 70, 76
1, 220721, Note_on_c, 0, 66, 65
1, 220729, Control_c, 0, 64, 89
1, 220734, Note_off_c, 0, 61, 65
1, 220744, Control_c, 0, 64, 89
1, 220748, Note_off_c, 0, 66, 68
1, 220754, Note_off_c, 0, 70, 63
1, 220759, Note_off_c, 0, 72, 65
1, 220759, Control_c, 0, 64, 90
1, 220773, Control_c, 0, 64, 92
1, 220788, Control_c, 0, 64, 95
1, 220803, Control_c, 0, 64, 101
1, 220817, Control_c, 0, 64, 109
1, 220832, Control_c, 0, 64, 119
1, 220847, Control_c, 0, 64, 120
1, 220877, Control_c, 0, 64, 115
1, 220891, Control_c, 0, 64, 100
1, 220906, Control_c, 0, 64, 78
1, 220913, Note_on_c, 0, 73, 107
1, 220913, Note_on_c, 0, 84, 101
1, 220914, Note_on_c, 0, 25, 81
1, 220917, Note_on_c, 0, 36, 82
1, 220917, Note_on_c, 0, 78, 98
1, 220918, Note_on_c, 0, 34, 80
1, 220918, Note_on_c, 0, 82, 91
1, 220919, Note_on_c, 0, 30, 71
1, 220921, Control_c, 0, 64, 0
1, 220945, Note_off_c, 0, 25, 68
1, 220948, Note_off_c, 0, 73, 62
1, 220949, Note_off_c, 0, 84, 63
1, 220952, Note_off_c, 0, 30, 64
1, 220965, Note_off_c, 0, 34, 59
1, 220966, Note_off_c, 0, 78, 65
1, 220974, Note_off_c, 0, 36, 61
1, 220975, Note_off_c, 0, 82, 64
1, 220980, Control_c, 0, 64, 16
1, 220995, Control_c, 0, 64, 71
1, 221010, Control_c, 0, 64, 83
1, 221024, Control_c, 0, 64, 92
1, 221039, Control_c, 0, 64, 95
1, 221069, Control_c, 0, 64, 95
1, 221262, Control_c, 0, 64, 96
1, 221277, Control_c, 0, 64, 98
1, 221314, Note_on_c, 0, 58, 57
1, 221322, Note_on_c, 0, 91, 76
1, 221329, Note_on_c, 0, 51, 40
1, 221337, Control_c, 0, 64, 93
1, 221341, Note_on_c, 0, 87, 46
1, 221346, Note_off_c, 0, 91, 63
1, 221352, Control_c, 0, 64, 80
1, 221369, Note_off_c, 0, 51, 56
1, 221375, Control_c, 0, 64, 58
1, 221379, Note_off_c, 0, 58, 56
1, 221381, Note_off_c, 0, 87, 43
1, 221389, Control_c, 0, 64, 0
1, 221400, Note_on_c, 0, 90, 85
1, 221411, Note_on_c, 0, 85, 58
1, 221421, Note_on_c, 0, 60, 58
1, 221429, Note_on_c, 0, 52, 55
1, 221438, Note_off_c, 0, 85, 53
1, 221448, Control_c, 0, 64, 62
1, 221463, Control_c, 0, 64, 69
1, 221465, Note_off_c, 0, 52, 66
1, 221478, Control_c, 0, 64, 75
1, 221489, Note_off_c, 0, 90, 50
1, 221493, Control_c, 0, 64, 81
1, 221498, Note_off_c, 0, 60, 60
1, 221508, Control_c, 0, 64, 84
1, 221522, Control_c, 0, 64, 86
1, 221537, Control_c, 0, 64, 86
1, 221552, Control_c, 0, 64, 87
1, 221567, Control_c, 0, 64, 87
1, 221582, Control_c, 0, 64, 88
1, 221586, Note_on_c, 0, 52, 47
1, 221594, Note_on_c, 0, 90, 75
1, 221599, Note_on_c, 0, 85, 68
1, 221611, Control_c, 0, 64, 88
1, 221628, Note_on_c, 0, 60, 37
1, 221636, Note_off_c, 0, 52, 47
1, 221665, Note_off_c, 0, 85, 61
1, 221676, Note_off_c, 0, 90, 58
1, 221734, Note_on_c, 0, 84, 67
1, 221736, Note_on_c, 0, 88, 73
1, 221741, Note_on_c, 0, 61, 70
1, 221757, Note_on_c, 0, 54, 45
1, 221759, Note_off_c, 0, 60, 35
1, 221764, Note_off_c, 0, 84, 65
1, 221771, Note_off_c, 0, 88, 58
1, 221786, Note_off_c, 0, 54, 54
1, 221786, Note_off_c, 0, 61, 52
1, 221861, Note_on_c, 0, 88, 74
1, 221863, Note_on_c, 0, 84, 76
1, 221864, Note_on_c, 0, 61, 56
1, 221878, Note_on_c, 0, 54, 43
1, 221901, Note_off_c, 0, 88, 54
1, 221918, Note_off_c, 0, 84, 61
1, 221921, Note_off_c, 0, 54, 49
1, 221946, Note_off_c, 0, 61, 59
1, 221981, Note_on_c, 0, 63, 68
1, 221983, Control_c, 0, 64, 89
1, 221993, Note_on_c, 0, 87, 72
1, 221998, Control_c, 0, 64, 89
1, 222000, Note_on_c, 0, 82, 61
1, 222002, Note_on_c, 0, 55, 20
1, 222012, Control_c, 0, 64, 91
1, 222013, Note_off_c, 0, 63, 65
1, 222019, Note_off_c, 0, 87, 65
1, 222025, Note_off_c, 0, 82, 64
1, 222027, Control_c, 0, 64, 92
1, 222042, Note_off_c, 0, 55, 52
1, 222042, Control_c, 0, 64, 93
1, 222079, Note_on_c, 0, 63, 68
1, 222085, Note_on_c, 0, 87, 77
1, 222086, Control_c, 0, 64, 92
1, 222087, Note_on_c, 0, 55, 43
1, 222101, Control_c, 0, 64, 84
1, 222103, Note_on_c, 0, 82, 62
1, 222124, Control_c, 0, 64, 69
1, 222138, Control_c, 0, 64, 0
1, 222142, Note_on_c, 0, 81, 82
1, 222147, Note_on_c, 0, 85, 83
1, 222148, Note_off_c, 0, 63, 63
1, 222150, Note_off_c, 0, 55, 63
1, 222153, Note_off_c, 0, 82, 64
1, 222154, Note_on_c, 0, 57, 66
1, 222157, Note_on_c, 0, 64, 78
1, 222160, Note_off_c, 0, 87, 63
1, 222183, Control_c, 0, 64, 43
1, 222190, Note_off_c, 0, 57, 64
1, 222198, Control_c, 0, 64, 66
1, 222203, Note_off_c, 0, 81, 59
1, 222210, Note_off_c, 0, 64, 64
1, 222210, Note_off_c, 0, 85, 62
1, 222213, Control_c, 0, 64, 71
1, 222227, Control_c, 0, 64, 76
1, 222242, Control_c, 0, 64, 81
1, 222257, Control_c, 0, 64, 84
1, 222271, Control_c, 0, 64, 85
1, 222285, Note_on_c, 0, 57, 69
1, 222286, Control_c, 0, 64, 85
1, 222289, Note_on_c, 0, 81, 90
1, 222299, Note_on_c, 0, 85, 82
1, 222300, Note_on_c, 0, 64, 56
1, 222326, Note_off_c, 0, 57, 58
1, 222336, Note_off_c, 0, 81, 62
1, 222359, Note_off_c, 0, 85, 62
1, 222385, Note_off_c, 0, 64, 60
1, 222413, Note_on_c, 0, 79, 80
1, 222416, Note_on_c, 0, 66, 84
1, 222417, Note_on_c, 0, 84, 81
1, 222430, Note_on_c, 0, 58, 60
1, 222455, Note_off_c, 0, 84, 62
1, 222455, Note_off_c, 0, 79, 61
1, 222463, Note_off_c, 0, 58, 63
1, 222464, Note_off_c, 0, 66, 62
1, 222533, Note_on_c, 0, 66, 63
1, 222536, Note_on_c, 0, 84, 86
1, 222538, Note_on_c, 0, 79, 84
1, 222541, Note_on_c, 0, 58, 64
1, 222583, Note_off_c, 0, 58, 59
1, 222585, Note_off_c, 0, 84, 60
1, 222586, Note_off_c, 0, 79, 61
1, 222615, Note_off_c, 0, 66, 57
1, 222627, Control_c, 0, 64, 86
1, 222642, Control_c, 0, 64, 87
1, 222655, Note_on_c, 0, 82, 83
1, 222657, Control_c, 0, 64, 89
1, 222658, Note_on_c, 0, 67, 75
1, 222658, Note_on_c, 0, 78, 83
1, 222663, Note_on_c, 0, 60, 58
1, 222671, Control_c, 0, 64, 91
1, 222684, Note_off_c, 0, 60, 63
1, 222686, Control_c, 0, 64, 93
1, 222699, Note_off_c, 0, 82, 61
1, 222701, Control_c, 0, 64, 94
1, 222703, Note_off_c, 0, 78, 61
1, 222711, Note_off_c, 0, 67, 63
1, 222716, Control_c, 0, 64, 94
1, 222747, Control_c, 0, 64, 94
1, 222761, Control_c, 0, 64, 93
1, 222776, Control_c, 0, 64, 83
1, 222780, Note_on_c, 0, 60, 60
1, 222780, Note_on_c, 0, 82, 83
1, 222786, Note_on_c, 0, 67, 74
1, 222789, Note_on_c, 0, 78, 76
1, 222791, Control_c, 0, 64, 65
1, 222806, Control_c, 0, 64, 0
1, 222810, Note_off_c, 0, 78, 63
1, 222818, Note_off_c, 0, 82, 63
1, 222840, Note_off_c, 0, 60, 44
1, 222840, Note_off_c, 0, 67, 54
1, 222851, Note_on_c, 0, 76, 90
1, 222853, Note_on_c, 0, 81, 94
1, 222872, Control_c, 0, 64, 67
1, 222872, Note_on_c, 0, 69, 85
1, 222875, Note_on_c, 0, 61, 69
1, 222887, Control_c, 0, 64, 75
1, 222901, Control_c, 0, 64, 84
1, 222914, Note_off_c, 0, 61, 61
1, 222916, Control_c, 0, 64, 90
1, 222929, Note_off_c, 0, 69, 67
1, 222931, Control_c, 0, 64, 92
1, 222932, Note_off_c, 0, 81, 62
1, 222939, Note_off_c, 0, 76, 64
1, 222946, Control_c, 0, 64, 93
1, 222961, Control_c, 0, 64, 94
1, 222975, Control_c, 0, 64, 95
1, 223005, Control_c, 0, 64, 93
1, 223011, Note_on_c, 0, 76, 96
1, 223012, Note_on_c, 0, 81, 95
1, 223015, Note_on_c, 0, 61, 76
1, 223019, Control_c, 0, 64, 83
1, 223023, Note_on_c, 0, 69, 72
1, 223034, Control_c, 0, 64, 62
1, 223049, Control_c, 0, 64, 0
1, 223079, Control_c, 0, 64, 49
1, 223093, Control_c, 0, 64, 69
1, 223101, Note_off_c, 0, 81, 59
1, 223108, Control_c, 0, 64, 79
1, 223114, Note_off_c, 0, 76, 64
1, 223119, Note_off_c, 0, 61, 61
1, 223123, Control_c, 0, 64, 92
1, 223138, Control_c, 0, 64, 98
1, 223153, Control_c, 0, 64, 100
1, 223164, Note_on_c, 0, 79, 91
1, 223167, Note_on_c, 0, 75, 95
1, 223167, Control_c, 0, 64, 101
1, 223169, Note_on_c, 0, 70, 91
1, 223175, Note_on_c, 0, 64, 72
1, 223178, Note_off_c, 0, 69, 63
1, 223226, Note_off_c, 0, 79, 56
1, 223227, Note_off_c, 0, 75, 61
1, 223257, Note_off_c, 0, 70, 60
1, 223259, Note_off_c, 0, 64, 58
1, 223322, Note_on_c, 0, 79, 99
1, 223327, Note_on_c, 0, 75, 93
1, 223332, Note_on_c, 0, 70, 81
1, 223341, Note_on_c, 0, 64, 73
1, 223435, Note_off_c, 0, 75, 60
1, 223453, Note_off_c, 0, 79, 55
1, 223464, Control_c, 0, 64, 100
1, 223479, Control_c, 0, 64, 92
1, 223493, Control_c, 0, 64, 73
1, 223496, Note_off_c, 0, 64, 64
1, 223500, Note_on_c, 0, 67, 82
1, 223502, Note_on_c, 0, 72, 92
1, 223503, Note_on_c, 0, 73, 99
1, 223503, Note_on_c, 0, 78, 101
1, 223508, Control_c, 0, 64, 0
1, 223528, Note_off_c, 0, 70, 61
1, 223539, Control_c, 0, 64, 38
1, 223540, Note_off_c, 0, 72, 66
1, 223545, Note_off_c, 0, 73, 64
1, 223554, Control_c, 0, 64, 68
1, 223558, Note_off_c, 0, 78, 63
1, 223569, Control_c, 0, 64, 77
1, 223571, Note_off_c, 0, 67, 62
1, 223583, Control_c, 0, 64, 87
1, 223598, Control_c, 0, 64, 93
1, 223620, Control_c, 0, 64, 93
1, 223635, Control_c, 0, 64, 94
1, 223650, Control_c, 0, 64, 95
1, 223665, Control_c, 0, 64, 96
1, 223680, Control_c, 0, 64, 97
1, 223695, Control_c, 0, 64, 98
1, 223710, Control_c, 0, 64, 99
1, 223739, Control_c, 0, 64, 99
1, 223798, Control_c, 0, 64, 100
1, 223813, Control_c, 0, 64, 100
1, 223828, Control_c, 0, 64, 101
1, 223857, Control_c, 0, 64, 101
1, 223872, Control_c, 0, 64, 102
1, 223887, Control_c, 0, 64, 102
1, 223902, Control_c, 0, 64, 103
1, 223916, Control_c, 0, 64, 104
1, 223931, Control_c, 0, 64, 105
1, 223946, Control_c, 0, 64, 106
1, 223961, Control_c, 0, 64, 107
1, 223990, Control_c, 0, 64, 107
1, 223996, Note_on_c, 0, 66, 103
1, 223998, Note_on_c, 0, 59, 102
1, 224004, Note_on_c, 0, 51, 79
1, 224005, Note_on_c, 0, 54, 82
1, 224005, Note_on_c, 0, 63, 84
1, 224012, Note_on_c, 0, 47, 72
1, 224029, Note_on_c, 0, 67, 58
1, 224035, Note_off_c, 0, 63, 49
1, 224072, Note_off_c, 0, 67, 40
1, 224079, Control_c, 0, 64, 108
1, 224094, Control_c, 0, 64, 108
1, 224124, Control_c, 0, 64, 109
1, 224153, Note_off_c, 0, 47, 57
1, 224154, Control_c, 0, 64, 110
1, 224169, Control_c, 0, 64, 111
1, 224174, Note_off_c, 0, 51, 54
1, 224176, Note_off_c, 0, 66, 44
1, 224183, Control_c, 0, 64, 111
1, 224198, Control_c, 0, 64, 112
1, 224213, Control_c, 0, 64, 113
1, 224219, Note_off_c, 0, 54, 38
1, 224228, Control_c, 0, 64, 115
1, 224242, Note_off_c, 0, 59, 53
1, 224242, Control_c, 0, 64, 116
1, 224257, Control_c, 0, 64, 118
1, 224272, Control_c, 0, 64, 120
1, 224287, Control_c, 0, 64, 120
1, 224331, Control_c, 0, 64, 118
1, 224341, Note_on_c, 0, 57, 105
1, 224342, Note_on_c, 0, 65, 103
1, 224345, Note_on_c, 0, 62, 93
1, 224346, Note_on_c, 0, 60, 92
1, 224346, Control_c, 0, 64, 103
1, 224351, Note_on_c, 0, 53, 101
1, 224354, Note_on_c, 0, 45, 84
1, 224362, Note_on_c, 0, 50, 85
1, 224365, Note_on_c, 0, 48, 85
1, 224368, Control_c, 0, 64, 78
1, 224382, Note_on_c, 0, 59, 41
1, 224383, Note_off_c, 0, 59, 127
1, 224383, Control_c, 0, 64, 0
1, 224419, Note_on_c, 0, 64, 19
1, 224476, Note_off_c, 0, 64, 44
1, 224532, Control_c, 0, 64, 48
1, 224546, Control_c, 0, 64, 67
1, 224561, Control_c, 0, 64, 72
1, 224576, Control_c, 0, 64, 77
1, 224591, Control_c, 0, 64, 83
1, 224606, Control_c, 0, 64, 87
1, 224620, Control_c, 0, 64, 90
1, 224635, Control_c, 0, 64, 94
1, 224647, Note_off_c, 0, 57, 57
1, 224650, Control_c, 0, 64, 97
1, 224663, Note_off_c, 0, 53, 57
1, 224664, Control_c, 0, 64, 100
1, 224670, Note_off_c, 0, 65, 52
1, 224679, Note_off_c, 0, 50, 55
1, 224679, Control_c, 0, 64, 101
1, 224690, Note_off_c, 0, 48, 51
1, 224694, Control_c, 0, 64, 104
1, 224709, Control_c, 0, 64, 108
1, 224724, Control_c, 0, 64, 112
1, 224738, Control_c, 0, 64, 116
1, 224743, Note_off_c, 0, 45, 55
1, 224747, Note_off_c, 0, 60, 53
1, 224753, Control_c, 0, 64, 119
1, 224768, Control_c, 0, 64, 120
1, 224783, Note_off_c, 0, 62, 58
1, 224783, Control_c, 0, 64, 120
1, 224798, Control_c, 0, 64, 122
1, 224813, Control_c, 0, 64, 123
1, 224827, Control_c, 0, 64, 125
1, 224842, Control_c, 0, 64, 127
1, 225020, Control_c, 0, 64, 127
1, 225035, Control_c, 0, 67, 10
1, 225049, Control_c, 0, 67, 14
1, 225064, Control_c, 0, 67, 19
1, 225079, Control_c, 0, 67, 25
1, 225094, Control_c, 0, 67, 32
1, 225117, Control_c, 0, 67, 43
1, 225132, Control_c, 0, 67, 51
1, 225147, Control_c, 0, 67, 58
1, 225161, Control_c, 0, 67, 65
1, 225176, Control_c, 0, 67, 70
1, 225191, Control_c, 0, 67, 73
1, 225206, Control_c, 0, 67, 75
1, 225221, Control_c, 0, 67, 75
1, 225284, Note_on_c, 0, 105, 58
1, 225295, Control_c, 0, 67, 75
1, 225298, Note_on_c, 0, 98, 59
1, 225301, Note_on_c, 0, 21, 56
1, 225308, Note_on_c, 0, 24, 22
1, 225312, Note_on_c, 0, 101, 61
1, 225319, Note_on_c, 0, 96, 58
1, 225321, Note_off_c, 0, 105, 63
1, 225325, Note_on_c, 0, 26, 56
1, 225325, Control_c, 0, 67, 74
1, 225337, Note_off_c, 0, 98, 63
1, 225346, Note_off_c, 0, 101, 65
1, 225353, Note_off_c, 0, 96, 63
1, 225357, Note_off_c, 0, 24, 53
1, 225369, Control_c, 0, 67, 74
1, 225372, Note_off_c, 0, 26, 61
1, 225376, Note_off_c, 0, 21, 53
1, 225384, Control_c, 0, 67, 73
1, 225413, Control_c, 0, 67, 73
1, 225439, Note_on_c, 0, 96, 73
1, 225439, Note_on_c, 0, 101, 70
1, 225443, Control_c, 0, 67, 72
1, 225454, Note_on_c, 0, 21, 32
1, 225457, Note_on_c, 0, 26, 51
1, 225473, Control_c, 0, 67, 71
1, 225487, Control_c, 0, 67, 70
1, 225493, Note_off_c, 0, 96, 57
1, 225496, Note_off_c, 0, 101, 58
1, 225502, Control_c, 0, 67, 69
1, 225517, Control_c, 0, 67, 68
1, 225532, Control_c, 0, 67, 66
1, 225547, Control_c, 0, 67, 66
1, 225555, Note_off_c, 0, 21, 48
1, 225561, Control_c, 0, 67, 65
1, 225565, Note_on_c, 0, 93, 72
1, 225565, Note_on_c, 0, 98, 75
1, 225568, Note_off_c, 0, 26, 51
1, 225576, Control_c, 0, 67, 64
1, 225577, Note_on_c, 0, 24, 53
1, 225591, Note_on_c, 0, 29, 56
1, 225591, Control_c, 0, 67, 63
1, 225601, Note_off_c, 0, 98, 63
1, 225605, Control_c, 0, 67, 60
1, 225608, Note_off_c, 0, 93, 61
1, 225616, Note_off_c, 0, 24, 49
1, 225620, Control_c, 0, 67, 57
1, 225635, Note_off_c, 0, 29, 61
1, 225635, Control_c, 0, 67, 53
1, 225650, Control_c, 0, 67, 49
1, 225665, Control_c, 0, 67, 46
1, 225680, Control_c, 0, 67, 44
1, 225695, Control_c, 0, 67, 43
1, 225697, Note_on_c, 0, 98, 74
1, 225698, Note_on_c, 0, 24, 63
1, 225699, Note_on_c, 0, 93, 73
1, 225710, Control_c, 0, 67, 41
1, 225725, Control_c, 0, 67, 40
1, 225734, Note_off_c, 0, 93, 59
1, 225737, Note_on_c, 0, 29, 31
1, 225740, Control_c, 0, 67, 39
1, 225752, Note_off_c, 0, 98, 63
1, 225754, Control_c, 0, 67, 37
1, 225769, Control_c, 0, 67, 36
1, 225784, Note_off_c, 0, 24, 46
1, 225784, Control_c, 0, 67, 35
1, 225797, Note_off_c, 0, 29, 57
1, 225799, Control_c, 0, 67, 35
1, 225813, Control_c, 0, 67, 34
1, 225817, Note_on_c, 0, 89, 65
1, 225819, Note_on_c, 0, 96, 62
1, 225822, Note_on_c, 0, 33, 60
1, 225843, Control_c, 0, 67, 33
1, 225857, Note_off_c, 0, 33, 65
1, 225857, Note_off_c, 0, 96, 66
1, 225859, Note_off_c, 0, 89, 65
1, 225865, Control_c, 0, 67, 32
1, 225880, Control_c, 0, 67, 32
1, 225910, Control_c, 0, 67, 31
1, 225913, Note_on_c, 0, 26, 21
1, 225924, Control_c, 0, 67, 30
1, 225934, Note_on_c, 0, 96, 83
1, 225939, Note_on_c, 0, 89, 71
1, 225940, Note_on_c, 0, 33, 62
1, 225940, Control_c, 0, 67, 30
1, 225954, Note_on_c, 0, 86, 80
1, 225955, Control_c, 0, 67, 29
1, 225961, Note_on_c, 0, 93, 70
1, 225967, Note_off_c, 0, 89, 65
1, 225970, Control_c, 0, 67, 28
1, 225976, Note_off_c, 0, 33, 63
1, 225976, Note_off_c, 0, 96, 57
1, 225981, Note_off_c, 0, 26, 61
1, 225984, Control_c, 0, 67, 27
1, 225985, Note_on_c, 0, 36, 61
1, 225987, Note_off_c, 0, 93, 66
1, 225999, Note_on_c, 0, 29, 32
1, 225999, Control_c, 0, 67, 26
1, 226000, Note_off_c, 0, 86, 63
1, 226014, Control_c, 0, 67, 26
1, 226018, Note_off_c, 0, 36, 63
1, 226029, Control_c, 0, 67, 25
1, 226043, Note_off_c, 0, 29, 52
1, 226044, Control_c, 0, 67, 24
1, 226059, Control_c, 0, 67, 23
1, 226073, Control_c, 0, 67, 22
1, 226076, Note_on_c, 0, 86, 73
1, 226079, Note_on_c, 0, 95, 62
1, 226086, Note_on_c, 0, 29, 47
1, 226086, Note_on_c, 0, 93, 64
1, 226088, Control_c, 0, 67, 21
1, 226103, Control_c, 0, 67, 19
1, 226107, Note_on_c, 0, 36, 47
1, 226113, Note_off_c, 0, 93, 56
1, 226114, Note_off_c, 0, 95, 63
1, 226118, Control_c, 0, 67, 18
1, 226121, Note_off_c, 0, 86, 60
1, 226133, Control_c, 0, 67, 17
1, 226148, Control_c, 0, 67, 16
1, 226163, Control_c, 0, 67, 16
1, 226169, Note_off_c, 0, 29, 52
1, 226175, Note_off_c, 0, 36, 40
1, 226178, Control_c, 0, 67, 15
1, 226198, Note_on_c, 0, 84, 78
1, 226202, Note_on_c, 0, 89, 65
1, 226207, Control_c, 0, 67, 15
1, 226218, Note_on_c, 0, 38, 66
1, 226222, Control_c, 0, 67, 14
1, 226223, Note_on_c, 0, 33, 52
1, 226231, Note_off_c, 0, 84, 62
1, 226246, Note_off_c, 0, 89, 60
1, 226257, Note_off_c, 0, 33, 54
1, 226261, Note_off_c, 0, 38, 62
1, 226281, Control_c, 0, 67, 14
1, 226327, Note_on_c, 0, 89, 56
1, 226332, Note_on_c, 0, 84, 65
1, 226339, Note_on_c, 0, 88, 47
1, 226350, Note_on_c, 0, 33, 54
1, 226355, Control_c, 0, 67, 13
1, 226363, Note_off_c, 0, 89, 54
1, 226363, Note_on_c, 0, 38, 46
1, 226364, Note_off_c, 0, 88, 50
1, 226370, Control_c, 0, 67, 13
1, 226383, Note_off_c, 0, 84, 62
1, 226399, Note_off_c, 0, 33, 54
1, 226437, Note_off_c, 0, 38, 59
1, 226446, Note_on_c, 0, 81, 60
1, 226449, Note_on_c, 0, 86, 63
1, 226459, Note_on_c, 0, 41, 60
1, 226464, Note_on_c, 0, 36, 45
1, 226470, Note_off_c, 0, 86, 65
1, 226473, Note_off_c, 0, 81, 60
1, 226491, Note_off_c, 0, 41, 66
1, 226495, Note_off_c, 0, 36, 53
1, 226518, Control_c, 0, 64, 111
1, 226533, Control_c, 0, 64, 92
1, 226547, Control_c, 0, 64, 72
1, 226547, Control_c, 0, 67, 12
1, 226550, Note_on_c, 0, 86, 83
1, 226553, Note_on_c, 0, 81, 85
1, 226554, Note_on_c, 0, 36, 63
1, 226562, Control_c, 0, 64, 0
1, 226574, Note_on_c, 0, 41, 52
1, 226577, Control_c, 0, 67, 11
1, 226592, Note_on_c, 0, 84, 70
1, 226592, Note_off_c, 0, 81, 61
1, 226606, Note_on_c, 0, 77, 78
1, 226614, Control_c, 0, 64, 50
1, 226614, Control_c, 0, 67, 11
1, 226619, Note_off_c, 0, 86, 63
1, 226619, Note_off_c, 0, 36, 61
1, 226621, Note_off_c, 0, 41, 66
1, 226625, Note_on_c, 0, 45, 73
1, 226629, Control_c, 0, 64, 67
1, 226629, Control_c, 0, 67, 10
1, 226643, Note_off_c, 0, 84, 64
1, 226643, Control_c, 0, 64, 73
1, 226645, Note_off_c, 0, 77, 62
1, 226646, Note_on_c, 0, 38, 48
1, 226658, Control_c, 0, 64, 80
1, 226662, Note_off_c, 0, 45, 66
1, 226673, Control_c, 0, 64, 84
1, 226683, Note_off_c, 0, 38, 46
1, 226688, Control_c, 0, 64, 86
1, 226703, Control_c, 0, 64, 87
1, 226717, Control_c, 0, 64, 88
1, 226717, Control_c, 0, 67, 10
1, 226726, Note_on_c, 0, 77, 84
1, 226733, Control_c, 0, 64, 88
1, 226733, Control_c, 0, 67, 9
1, 226738, Note_on_c, 0, 84, 70
1, 226748, Control_c, 0, 67, 9
1, 226749, Note_on_c, 0, 38, 53
1, 226751, Note_on_c, 0, 45, 48
1, 226763, Control_c, 0, 67, 8
1, 226768, Note_off_c, 0, 84, 61
1, 226777, Note_off_c, 0, 77, 60
1, 226778, Control_c, 0, 64, 89
1, 226801, Note_off_c, 0, 45, 45
1, 226807, Control_c, 0, 64, 89
1, 226829, Note_off_c, 0, 38, 37
1, 226837, Control_c, 0, 67, 8
1, 226852, Note_on_c, 0, 74, 76
1, 226857, Note_on_c, 0, 81, 73
1, 226866, Control_c, 0, 67, 0
1, 226877, Note_on_c, 0, 48, 63
1, 226881, Note_on_c, 0, 41, 40
1, 226884, Note_off_c, 0, 81, 66
1, 226888, Note_off_c, 0, 74, 60
1, 226910, Note_off_c, 0, 48, 65
1, 226924, Note_off_c, 0, 41, 56
1, 226978, Note_on_c, 0, 74, 81
1, 226980, Note_on_c, 0, 41, 55
1, 226983, Note_on_c, 0, 81, 76
1, 226990, Note_on_c, 0, 48, 55
1, 227016, Note_off_c, 0, 74, 59
1, 227030, Note_off_c, 0, 81, 52
1, 227066, Note_off_c, 0, 41, 54
1, 227081, Note_off_c, 0, 48, 56
1, 227105, Note_on_c, 0, 72, 73
1, 227108, Note_on_c, 0, 77, 70
1, 227114, Note_on_c, 0, 45, 49
1, 227117, Note_on_c, 0, 50, 66
1, 227133, Note_off_c, 0, 72, 64
1, 227134, Note_off_c, 0, 77, 65
1, 227150, Note_off_c, 0, 45, 50
1, 227158, Note_off_c, 0, 50, 64
1, 227177, Control_c, 0, 64, 88
1, 227192, Control_c, 0, 64, 81
1, 227207, Control_c, 0, 64, 66
1, 227214, Note_on_c, 0, 77, 84
1, 227219, Note_on_c, 0, 50, 56
1, 227221, Note_on_c, 0, 45, 65
1, 227222, Control_c, 0, 64, 0
1, 227223, Note_on_c, 0, 72, 76
1, 227272, Note_on_c, 0, 75, 85
1, 227272, Note_off_c, 0, 72, 64
1, 227274, Note_on_c, 0, 71, 83
1, 227281, Control_c, 0, 64, 40
1, 227288, Note_off_c, 0, 77, 62
1, 227291, Note_on_c, 0, 53, 73
1, 227293, Note_off_c, 0, 50, 63
1, 227295, Note_off_c, 0, 45, 63
1, 227296, Control_c, 0, 64, 65
1, 227305, Note_on_c, 0, 48, 54
1, 227311, Control_c, 0, 64, 72
1, 227325, Control_c, 0, 64, 82
1, 227334, Note_off_c, 0, 48, 67
1, 227340, Control_c, 0, 64, 88
1, 227342, Note_off_c, 0, 75, 63
1, 227361, Note_off_c, 0, 71, 60
1, 227363, Control_c, 0, 64, 90
1, 227367, Note_off_c, 0, 53, 65
1, 227378, Control_c, 0, 64, 92
1, 227422, Control_c, 0, 64, 91
1, 227429, Note_on_c, 0, 48, 73
1, 227436, Note_on_c, 0, 71, 79
1, 227437, Control_c, 0, 64, 84
1, 227438, Note_on_c, 0, 75, 81
1, 227452, Control_c, 0, 64, 72
1, 227460, Note_on_c, 0, 53, 52
1, 227466, Control_c, 0, 64, 32
1, 227481, Control_c, 0, 64, 0
1, 227511, Control_c, 0, 64, 62
1, 227522, Note_off_c, 0, 48, 61
1, 227526, Control_c, 0, 64, 68
1, 227542, Control_c, 0, 64, 72
1, 227556, Control_c, 0, 64, 75
1, 227571, Control_c, 0, 64, 77
1, 227586, Control_c, 0, 64, 79
1, 227598, Note_on_c, 0, 69, 92
1, 227600, Note_on_c, 0, 74, 80
1, 227600, Control_c, 0, 64, 81
1, 227603, Note_off_c, 0, 71, 48
1, 227618, Note_on_c, 0, 54, 77
1, 227620, Note_on_c, 0, 50, 62
1, 227627, Note_off_c, 0, 53, 0
1, 227632, Note_off_c, 0, 75, 61
1, 227645, Poly_aftertouch_c, 0, 53, 0
1, 227683, Note_off_c, 0, 74, 64
1, 227707, Note_off_c, 0, 54, 58
1, 227713, Note_off_c, 0, 69, 66
1, 227738, Note_off_c, 0, 50, 55
1, 227776, Note_on_c, 0, 72, 86
1, 227777, Note_on_c, 0, 68, 88
1, 227785, Note_on_c, 0, 51, 76
1, 227797, Note_on_c, 0, 56, 69
1, 227882, Note_off_c, 0, 56, 61
1, 227897, Control_c, 0, 64, 77
1, 227909, Note_off_c, 0, 68, 62
1, 227911, Note_off_c, 0, 72, 64
1, 227912, Control_c, 0, 64, 68
1, 227927, Control_c, 0, 64, 20
1, 227942, Control_c, 0, 64, 0
1, 227948, Note_on_c, 0, 66, 94
1, 227948, Note_on_c, 0, 71, 84
1, 227950, Note_on_c, 0, 53, 64
1, 227954, Note_on_c, 0, 57, 75
1, 227956, Note_off_c, 0, 51, 52
1, 227956, Control_c, 0, 64, 34
1, 227971, Control_c, 0, 64, 64
1, 227986, Control_c, 0, 64, 72
1, 227990, Note_off_c, 0, 53, 66
1, 227998, Note_off_c, 0, 71, 60
1, 228000, Control_c, 0, 64, 78
1, 228002, Note_off_c, 0, 66, 62
1, 228015, Control_c, 0, 64, 83
1, 228025, Note_off_c, 0, 57, 63
1, 228030, Control_c, 0, 64, 85
1, 228045, Control_c, 0, 64, 86
1, 228061, Control_c, 0, 64, 86
1, 228075, Control_c, 0, 64, 87
1, 228112, Control_c, 0, 64, 86
1, 228127, Note_on_c, 0, 53, 64
1, 228127, Note_on_c, 0, 57, 74
1, 228127, Control_c, 0, 64, 84
1, 228128, Note_on_c, 0, 71, 87
1, 228130, Note_on_c, 0, 66, 84
1, 228142, Control_c, 0, 64, 77
1, 228156, Note_off_c, 0, 66, 68
1, 228157, Control_c, 0, 64, 64
1, 228165, Note_off_c, 0, 71, 60
1, 228168, Note_off_c, 0, 53, 59
1, 228172, Control_c, 0, 64, 0
1, 228202, Control_c, 0, 64, 41
1, 228202, Note_on_c, 0, 69, 97
1, 228203, Note_on_c, 0, 65, 97
1, 228206, Note_on_c, 0, 59, 87
1, 228208, Note_on_c, 0, 54, 71
1, 228210, Note_off_c, 0, 57, 54
1, 228216, Control_c, 0, 64, 66
1, 228231, Control_c, 0, 64, 73
1, 228246, Control_c, 0, 64, 80
1, 228261, Control_c, 0, 64, 84
1, 228271, Note_off_c, 0, 65, 64
1, 228276, Control_c, 0, 64, 85
1, 228284, Note_off_c, 0, 69, 65
1, 228320, Control_c, 0, 64, 85
1, 228333, Note_off_c, 0, 59, 48
1, 228336, Control_c, 0, 64, 86
1, 228351, Control_c, 0, 64, 87
1, 228366, Control_c, 0, 64, 88
1, 228399, Note_off_c, 0, 54, 55
1, 228425, Control_c, 0, 64, 87
1, 228439, Control_c, 0, 64, 82
1, 228454, Control_c, 0, 64, 70
1, 228467, Note_on_c, 0, 63, 100
1, 228469, Note_on_c, 0, 68, 98
1, 228469, Control_c, 0, 64, 0
1, 228473, Note_on_c, 0, 56, 77
1, 228476, Note_on_c, 0, 60, 87
1, 228528, Control_c, 0, 64, 40
1, 228543, Control_c, 0, 64, 66
1, 228558, Control_c, 0, 64, 73
1, 228568, Note_off_c, 0, 56, 57
1, 228573, Control_c, 0, 64, 81
1, 228587, Control_c, 0, 64, 84
1, 228602, Control_c, 0, 64, 84
1, 228616, Note_off_c, 0, 63, 53
1, 228617, Control_c, 0, 64, 85
1, 228631, Control_c, 0, 64, 85
1, 228646, Control_c, 0, 64, 86
1, 228648, Note_off_c, 0, 60, 52
1, 228661, Control_c, 0, 64, 87
1, 228663, Note_off_c, 0, 68, 46
1, 228676, Control_c, 0, 64, 88
1, 228691, Control_c, 0, 64, 89
1, 228706, Control_c, 0, 64, 89
1, 228765, Control_c, 0, 64, 86
1, 228780, Control_c, 0, 64, 76
1, 228795, Control_c, 0, 64, 56
1, 228795, Note_on_c, 0, 66, 103
1, 228798, Note_on_c, 0, 57, 80
1, 228799, Note_on_c, 0, 62, 89
1, 228809, Control_c, 0, 64, 0
1, 228861, Control_c, 0, 64, 61
1, 228876, Control_c, 0, 64, 71
1, 228886, Note_off_c, 0, 66, 60
1, 228890, Control_c, 0, 64, 79
1, 228902, Note_off_c, 0, 62, 60
1, 228905, Control_c, 0, 64, 85
1, 228920, Control_c, 0, 64, 86
1, 228929, Note_off_c, 0, 57, 59
1, 228935, Control_c, 0, 64, 87
1, 228950, Control_c, 0, 64, 87
1, 228964, Control_c, 0, 64, 88
1, 228979, Control_c, 0, 64, 89
1, 228994, Control_c, 0, 64, 90
1, 229009, Control_c, 0, 64, 91
1, 229024, Control_c, 0, 64, 91
1, 229068, Control_c, 0, 64, 92
1, 229143, Control_c, 0, 64, 92
1, 229158, Control_c, 0, 64, 93
1, 229173, Control_c, 0, 64, 93
1, 229188, Control_c, 0, 64, 94
1, 229202, Control_c, 0, 64, 93
1, 229232, Control_c, 0, 64, 88
1, 229233, Note_on_c, 0, 65, 110
1, 229236, Note_on_c, 0, 60, 97
1, 229238, Note_on_c, 0, 59, 68
1, 229245, Note_on_c, 0, 63, 90
1, 229247, Control_c, 0, 64, 74
1, 229261, Control_c, 0, 64, 30
1, 229276, Control_c, 0, 64, 0
1, 229291, Note_off_c, 0, 60, 0
1, 229321, Control_c, 0, 64, 59
1, 229328, Poly_aftertouch_c, 0, 60, 127
1, 229335, Control_c, 0, 64, 69
1, 229350, Control_c, 0, 64, 74
1, 229365, Poly_aftertouch_c, 0, 60, 0
1, 229365, Control_c, 0, 64, 80
1, 229379, Control_c, 0, 64, 82
1, 229394, Control_c, 0, 64, 82
1, 229409, Control_c, 0, 64, 83
1, 229420, Note_off_c, 0, 65, 57
1, 229424, Control_c, 0, 64, 84
1, 229435, Note_off_c, 0, 63, 47
1, 229439, Control_c, 0, 64, 84
1, 229454, Control_c, 0, 64, 85
1, 229469, Control_c, 0, 64, 86
1, 229484, Control_c, 0, 64, 86
1, 229499, Control_c, 0, 64, 87
1, 229528, Control_c, 0, 64, 87
1, 229561, Note_off_c, 0, 59, 26
1, 229572, Control_c, 0, 64, 88
1, 229609, Control_c, 0, 64, 88
1, 229683, Control_c, 0, 64, 89
1, 229743, Control_c, 0, 64, 89
1, 229787, Control_c, 0, 64, 90
1, 229817, Control_c, 0, 64, 90
1, 229832, Control_c, 0, 64, 91
1, 229847, Control_c, 0, 64, 91
1, 229892, Note_on_c, 0, 63, 103
1, 229898, Note_on_c, 0, 62, 97
1, 229900, Note_on_c, 0, 60, 91
1, 229906, Control_c, 0, 64, 91
1, 229921, Control_c, 0, 64, 85
1, 229937, Control_c, 0, 64, 73
1, 229951, Control_c, 0, 64, 0
1, 230217, Control_c, 0, 64, 42
1, 230232, Control_c, 0, 64, 57
1, 230247, Control_c, 0, 64, 63
1, 230262, Control_c, 0, 64, 65
1, 230277, Control_c, 0, 64, 67
1, 230291, Control_c, 0, 64, 69
1, 230306, Control_c, 0, 64, 71
1, 230321, Control_c, 0, 64, 73
1, 230336, Control_c, 0, 64, 77
1, 230358, Control_c, 0, 64, 79
1, 230373, Control_c, 0, 64, 80
1, 230388, Control_c, 0, 64, 81
1, 230402, Control_c, 0, 64, 82
1, 230417, Control_c, 0, 64, 83
1, 230432, Control_c, 0, 64, 84
1, 230447, Control_c, 0, 64, 85
1, 230462, Control_c, 0, 64, 85
1, 230521, Control_c, 0, 64, 86
1, 230566, Control_c, 0, 64, 86
1, 230596, Control_c, 0, 64, 87
1, 230603, Note_off_c, 0, 62, 47
1, 230628, Note_off_c, 0, 60, 46
1, 230640, Control_c, 0, 64, 87
1, 230684, Control_c, 0, 64, 88
1, 230711, Note_off_c, 0, 63, 47
1, 230745, Control_c, 0, 64, 88
1, 230804, Control_c, 0, 64, 89
1, 230863, Control_c, 0, 64, 89
1, 231025, Control_c, 0, 64, 90
1, 231478, Control_c, 0, 64, 90
1, 231493, Control_c, 0, 64, 91
1, 231508, Control_c, 0, 64, 92
1, 231523, Control_c, 0, 64, 93
1, 231538, Control_c, 0, 64, 93
1, 231553, Control_c, 0, 64, 94
1, 231597, Control_c, 0, 64, 94
1, 231627, Control_c, 0, 64, 95
1, 231672, Control_c, 0, 64, 94
1, 231687, Control_c, 0, 64, 89
1, 231701, Control_c, 0, 64, 78
1, 231706, Note_on_c, 0, 87, 104
1, 231711, Note_on_c, 0, 73, 101
1, 231712, Note_on_c, 0, 61, 93
1, 231713, Note_on_c, 0, 80, 94
1, 231716, Control_c, 0, 64, 63
1, 231720, Note_on_c, 0, 51, 71
1, 231720, Note_on_c, 0, 58, 70
1, 231724, Note_on_c, 0, 56, 67
1, 231731, Control_c, 0, 64, 0
1, 231734, Note_on_c, 0, 53, 60
1, 231761, Control_c, 0, 64, 60
1, 231766, Note_off_c, 0, 73, 60
1, 231774, Note_off_c, 0, 87, 67
1, 231775, Control_c, 0, 64, 69
1, 231790, Control_c, 0, 64, 76
1, 231805, Control_c, 0, 64, 83
1, 231820, Control_c, 0, 64, 86
1, 231835, Control_c, 0, 64, 87
1, 231856, Control_c, 0, 64, 87
1, 231871, Control_c, 0, 64, 88
1, 231886, Note_off_c, 0, 80, 56
1, 231901, Control_c, 0, 64, 88
1, 231916, Control_c, 0, 64, 89
1, 231931, Control_c, 0, 64, 90
1, 231946, Control_c, 0, 64, 91
1, 231961, Control_c, 0, 64, 91
1, 231975, Control_c, 0, 64, 92
1, 231990, Control_c, 0, 64, 93
1, 232005, Control_c, 0, 64, 93
1, 232014, Note_off_c, 0, 61, 58
1, 232020, Control_c, 0, 64, 94
1, 232035, Control_c, 0, 64, 95
1, 232049, Control_c, 0, 64, 95
1, 232064, Control_c, 0, 64, 96
1, 232094, Control_c, 0, 64, 96
1, 232109, Control_c, 0, 64, 97
1, 232138, Control_c, 0, 64, 97
1, 232212, Control_c, 0, 64, 98
1, 232229, Note_on_c, 0, 89, 102
1, 232233, Note_on_c, 0, 63, 96
1, 232233, Note_on_c, 0, 82, 105
1, 232237, Note_on_c, 0, 75, 85
1, 232251, Note_off_c, 0, 75, 71
1, 232256, Control_c, 0, 64, 98
1, 232274, Note_off_c, 0, 53, 41
1, 232275, Note_on_c, 0, 88, 37
1, 232278, Note_off_c, 0, 58, 41
1, 232282, Note_off_c, 0, 56, 42
1, 232285, Note_off_c, 0, 89, 68
1, 232286, Control_c, 0, 64, 99
1, 232299, Note_off_c, 0, 82, 56
1, 232301, Control_c, 0, 64, 99
1, 232302, Note_off_c, 0, 88, 56
1, 232316, Control_c, 0, 64, 100
1, 232346, Control_c, 0, 64, 100
1, 232347, Note_off_c, 0, 51, 41
1, 232361, Control_c, 0, 64, 101
1, 232376, Control_c, 0, 64, 101
1, 232396, Note_off_c, 0, 63, 57
1, 232405, Control_c, 0, 64, 102
1, 232450, Control_c, 0, 64, 102
1, 232509, Control_c, 0, 64, 103
1, 232665, Note_on_c, 0, 92, 111
1, 232669, Note_on_c, 0, 85, 94
1, 232673, Note_on_c, 0, 65, 87
1, 232673, Note_on_c, 0, 79, 82
1, 232686, Note_off_c, 0, 79, 71
1, 232701, Note_on_c, 0, 90, 54
1, 232727, Note_off_c, 0, 90, 56
1, 232731, Note_off_c, 0, 85, 64
1, 232743, Note_off_c, 0, 92, 65
1, 232754, Control_c, 0, 64, 103
1, 232766, Note_off_c, 0, 65, 58
1, 232828, Control_c, 0, 64, 104
1, 233070, Note_on_c, 0, 94, 108
1, 233076, Note_on_c, 0, 87, 97
1, 233078, Note_on_c, 0, 80, 90
1, 233079, Note_on_c, 0, 67, 85
1, 233094, Control_c, 0, 64, 104
1, 233095, Note_off_c, 0, 80, 72
1, 233130, Note_off_c, 0, 87, 60
1, 233135, Note_off_c, 0, 94, 66
1, 233140, Note_off_c, 0, 67, 59
1, 233258, Control_c, 0, 64, 105
1, 233302, Control_c, 0, 64, 106
1, 233317, Control_c, 0, 64, 109
1, 233332, Control_c, 0, 64, 114
1, 233354, Control_c, 0, 64, 127
1, 233620, Control_c, 0, 64, 108
1, 233635, Control_c, 0, 64, 86
1, 233650, Control_c, 0, 64, 64
1, 233653, Note_on_c, 0, 63, 94
1, 233653, Note_on_c, 0, 82, 96
1, 233653, Note_on_c, 0, 91, 87
1, 233654, Note_on_c, 0, 96, 98
1, 233655, Note_on_c, 0, 60, 72
1, 233663, Note_on_c, 0, 51, 72
1, 233665, Control_c, 0, 64, 25
1, 233669, Note_on_c, 0, 56, 66
1, 233677, Note_on_c, 0, 53, 58
1, 233680, Control_c, 0, 64, 63
1, 233694, Control_c, 0, 64, 71
1, 233709, Control_c, 0, 64, 82
1, 233724, Control_c, 0, 64, 94
1, 233739, Control_c, 0, 64, 100
1, 233747, Note_off_c, 0, 96, 62
1, 233750, Note_off_c, 0, 82, 60
1, 233753, Control_c, 0, 64, 101
1, 233768, Note_off_c, 0, 63, 62
1, 233768, Control_c, 0, 64, 101
1, 233783, Control_c, 0, 64, 102
1, 233788, Note_off_c, 0, 91, 53
1, 233798, Control_c, 0, 64, 102
1, 233813, Control_c, 0, 64, 103
1, 233815, Note_off_c, 0, 53, 35
1, 233824, Note_off_c, 0, 51, 61
1, 233827, Control_c, 0, 64, 105
1, 233842, Control_c, 0, 64, 106
1, 233857, Control_c, 0, 64, 107
1, 233859, Note_on_c, 0, 84, 98
1, 233859, Note_on_c, 0, 92, 91
1, 233860, Note_on_c, 0, 97, 101
1, 233865, Note_on_c, 0, 65, 91
1, 233872, Control_c, 0, 64, 108
1, 233883, Note_off_c, 0, 60, 61
1, 233887, Control_c, 0, 64, 109
1, 233892, Note_off_c, 0, 56, 38
1, 233898, Note_on_c, 0, 86, 36
1, 233899, Note_off_c, 0, 86, 127
1, 233901, Control_c, 0, 64, 111
1, 233917, Control_c, 0, 64, 112
1, 233927, Note_off_c, 0, 65, 62
1, 233932, Control_c, 0, 64, 114
1, 233935, Note_off_c, 0, 84, 58
1, 233947, Control_c, 0, 64, 117
1, 233958, Note_off_c, 0, 97, 62
1, 233962, Control_c, 0, 64, 120
1, 233977, Control_c, 0, 64, 123
1, 233991, Note_off_c, 0, 92, 60
1, 233991, Control_c, 0, 64, 127
1, 234006, Control_c, 0, 64, 127
1, 234028, Note_on_c, 0, 99, 106
1, 234029, Note_on_c, 0, 93, 98
1, 234030, Note_on_c, 0, 86, 104
1, 234050, Note_on_c, 0, 71, 93
1, 234313, Note_off_c, 0, 86, 39
1, 234353, Note_off_c, 0, 99, 57
1, 234489, Note_off_c, 0, 93, 39
1, 234520, Note_off_c, 0, 71, 46
1, 235838, Control_c, 0, 64, 115
1, 235853, Control_c, 0, 64, 90
1, 235854, Note_on_c, 0, 104, 107
1, 235861, Note_on_c, 0, 91, 97
1, 235862, Note_on_c, 0, 97, 94
1, 235863, Note_on_c, 0, 61, 90
1, 235868, Control_c, 0, 64, 66
1, 235875, Note_on_c, 0, 51, 72
1, 235877, Note_on_c, 0, 58, 67
1, 235879, Note_on_c, 0, 56, 65
1, 235883, Control_c, 0, 64, 0
1, 235884, Note_on_c, 0, 53, 59
1, 235904, Note_off_c, 0, 91, 50
1, 235912, Note_off_c, 0, 104, 69
1, 235912, Control_c, 0, 64, 57
1, 235927, Control_c, 0, 64, 72
1, 235941, Control_c, 0, 64, 89
1, 235956, Control_c, 0, 64, 102
1, 235970, Note_off_c, 0, 97, 63
1, 235971, Control_c, 0, 64, 106
1, 235986, Control_c, 0, 64, 106
1, 236001, Control_c, 0, 64, 107
1, 236075, Control_c, 0, 64, 107
1, 236089, Control_c, 0, 64, 108
1, 236096, Note_off_c, 0, 61, 48
1, 236104, Control_c, 0, 64, 108
1, 236134, Control_c, 0, 64, 109
1, 236149, Control_c, 0, 64, 109
1, 236253, Control_c, 0, 64, 110
1, 236258, Note_off_c, 0, 58, 14
1, 236274, Note_on_c, 0, 103, 104
1, 236278, Note_on_c, 0, 89, 92
1, 236282, Note_on_c, 0, 63, 97
1, 236284, Note_off_c, 0, 53, 14
1, 236289, Note_on_c, 0, 96, 69
1, 236301, Note_off_c, 0, 51, 0
1, 236301, Note_on_c, 0, 51, 3
1, 236306, Note_off_c, 0, 96, 67
1, 236313, Note_on_c, 0, 91, 47
1, 236314, Note_off_c, 0, 91, 127
1, 236330, Note_off_c, 0, 51, 57
1, 236349, Note_off_c, 0, 56, 38
1, 236351, Note_off_c, 0, 63, 60
1, 236375, Note_off_c, 0, 89, 63
1, 236376, Note_off_c, 0, 103, 45
1, 236379, Control_c, 0, 64, 110
1, 236424, Control_c, 0, 64, 111
1, 236439, Control_c, 0, 64, 111
1, 236468, Control_c, 0, 64, 112
1, 236498, Control_c, 0, 64, 112
1, 236513, Control_c, 0, 64, 113
1, 236542, Control_c, 0, 64, 114
1, 236572, Control_c, 0, 64, 114
1, 236602, Control_c, 0, 64, 115
1, 236621, Note_on_c, 0, 101, 95
1, 236624, Note_on_c, 0, 87, 97
1, 236627, Note_on_c, 0, 94, 95
1, 236629, Note_on_c, 0, 65, 93
1, 236632, Control_c, 0, 64, 115
1, 236661, Control_c, 0, 64, 116
1, 236671, Note_on_c, 0, 100, 14
1, 236671, Note_off_c, 0, 87, 61
1, 236691, Control_c, 0, 64, 116
1, 236700, Note_off_c, 0, 101, 66
1, 236701, Note_off_c, 0, 94, 65
1, 236706, Note_off_c, 0, 100, 30
1, 236706, Control_c, 0, 64, 117
1, 236715, Note_off_c, 0, 65, 59
1, 236735, Control_c, 0, 64, 118
1, 236750, Control_c, 0, 64, 119
1, 236764, Control_c, 0, 64, 120
1, 236779, Control_c, 0, 64, 123
1, 236794, Control_c, 0, 64, 126
1, 236809, Control_c, 0, 64, 127
1, 236953, Note_on_c, 0, 104, 105
1, 236957, Note_on_c, 0, 91, 98
1, 236958, Note_on_c, 0, 97, 93
1, 236968, Note_on_c, 0, 67, 81
1, 236978, Note_off_c, 0, 91, 60
1, 237002, Note_off_c, 0, 104, 69
1, 237010, Note_off_c, 0, 97, 65
1, 237024, Note_off_c, 0, 67, 60
1, 237393, Control_c, 0, 64, 102
1, 237408, Control_c, 0, 64, 77
1, 237420, Note_on_c, 0, 85, 101
1, 237420, Note_on_c, 0, 94, 87
1, 237420, Note_on_c, 0, 99, 101
1, 237423, Control_c, 0, 64, 0
1, 237426, Note_on_c, 0, 63, 99
1, 237435, Note_on_c, 0, 51, 76
1, 237436, Note_on_c, 0, 60, 73
1, 237437, Note_on_c, 0, 56, 67
1, 237449, Note_on_c, 0, 53, 55
1, 237453, Control_c, 0, 64, 16
1, 237467, Control_c, 0, 64, 69
1, 237482, Control_c, 0, 64, 81
1, 237483, Note_on_c, 0, 97, 11
1, 237497, Note_off_c, 0, 97, 49
1, 237497, Control_c, 0, 64, 97
1, 237512, Control_c, 0, 64, 106
1, 237523, Note_off_c, 0, 99, 69
1, 237526, Note_off_c, 0, 85, 64
1, 237527, Control_c, 0, 64, 107
1, 237529, Note_off_c, 0, 63, 64
1, 237531, Note_off_c, 0, 94, 65
1, 237541, Control_c, 0, 64, 108
1, 237544, Note_off_c, 0, 53, 62
1, 237556, Control_c, 0, 64, 108
1, 237568, Note_off_c, 0, 51, 62
1, 237571, Control_c, 0, 64, 109
1, 237572, Note_off_c, 0, 60, 57
1, 237581, Note_off_c, 0, 56, 59
1, 237586, Control_c, 0, 64, 110
1, 237595, Note_on_c, 0, 84, 100
1, 237595, Note_on_c, 0, 97, 100
1, 237596, Note_on_c, 0, 65, 90
1, 237597, Note_on_c, 0, 92, 95
1, 237601, Control_c, 0, 64, 111
1, 237616, Control_c, 0, 64, 113
1, 237630, Control_c, 0, 64, 114
1, 237645, Note_off_c, 0, 84, 54
1, 237645, Control_c, 0, 64, 115
1, 237647, Note_off_c, 0, 65, 66
1, 237660, Control_c, 0, 64, 117
1, 237675, Control_c, 0, 64, 117
1, 237678, Note_off_c, 0, 97, 62
1, 237690, Control_c, 0, 64, 118
1, 237702, Note_off_c, 0, 92, 63
1, 237719, Control_c, 0, 64, 118
1, 237734, Control_c, 0, 64, 119
1, 237741, Note_on_c, 0, 86, 109
1, 237741, Note_on_c, 0, 93, 99
1, 237741, Note_on_c, 0, 99, 110
1, 237747, Note_on_c, 0, 71, 94
1, 237749, Control_c, 0, 64, 127
1, 237768, Note_on_c, 0, 90, 52
1, 237790, Note_off_c, 0, 90, 57
1, 238006, Note_off_c, 0, 99, 58
1, 238124, Note_off_c, 0, 86, 36
1, 238203, Note_off_c, 0, 71, 43
1, 238211, Note_off_c, 0, 93, 28
1, 239714, Note_on_c, 0, 94, 114
1, 239714, Control_c, 0, 64, 111
1, 239715, Note_on_c, 0, 80, 100
1, 239717, Note_on_c, 0, 89, 88
1, 239722, Note_on_c, 0, 61, 93
1, 239729, Control_c, 0, 64, 88
1, 239732, Note_on_c, 0, 51, 76
1, 239732, Note_on_c, 0, 58, 78
1, 239735, Note_on_c, 0, 56, 71
1, 239741, Note_on_c, 0, 53, 61
1, 239744, Control_c, 0, 64, 68
1, 239759, Control_c, 0, 64, 0
1, 239769, Note_off_c, 0, 80, 60
1, 239774, Control_c, 0, 64, 56
1, 239788, Control_c, 0, 64, 70
1, 239803, Control_c, 0, 64, 84
1, 239818, Control_c, 0, 64, 100
1, 239833, Control_c, 0, 64, 110
1, 239848, Control_c, 0, 64, 112
1, 239862, Control_c, 0, 64, 113
1, 239877, Control_c, 0, 64, 115
1, 239892, Control_c, 0, 64, 116
1, 239905, Note_off_c, 0, 94, 64
1, 239907, Control_c, 0, 64, 118
1, 239922, Control_c, 0, 64, 120
1, 239936, Control_c, 0, 64, 123
1, 239947, Note_off_c, 0, 61, 51
1, 239951, Control_c, 0, 64, 127
1, 240109, Note_off_c, 0, 89, 29
1, 240129, Note_off_c, 0, 51, 0
1, 240137, Note_on_c, 0, 97, 104
1, 240140, Note_on_c, 0, 84, 98
1, 240142, Note_on_c, 0, 92, 87
1, 240142, Note_off_c, 0, 53, 27
1, 240147, Note_on_c, 0, 63, 95
1, 240152, Note_off_c, 0, 56, 37
1, 240152, Note_off_c, 0, 58, 0
1, 240157, Note_on_c, 0, 51, 7
1, 240170, Note_on_c, 0, 58, 10
1, 240199, Note_off_c, 0, 58, 43
1, 240208, Note_off_c, 0, 51, 53
1, 240208, Note_off_c, 0, 63, 58
1, 240214, Note_off_c, 0, 92, 64
1, 240221, Note_off_c, 0, 84, 61
1, 240226, Note_off_c, 0, 97, 65
1, 240477, Note_on_c, 0, 96, 95
1, 240479, Note_on_c, 0, 82, 100
1, 240485, Note_on_c, 0, 91, 85
1, 240488, Note_on_c, 0, 65, 89
1, 240552, Note_off_c, 0, 96, 55
1, 240557, Note_off_c, 0, 65, 60
1, 240574, Note_off_c, 0, 82, 61
1, 240792, Note_off_c, 0, 91, 53
1, 240841, Note_on_c, 0, 94, 99
1, 240845, Note_on_c, 0, 80, 104
1, 240847, Note_on_c, 0, 89, 82
1, 240850, Note_on_c, 0, 67, 81
1, 240922, Note_off_c, 0, 67, 57
1, 240926, Note_off_c, 0, 94, 65
1, 240958, Note_off_c, 0, 89, 61
1, 241129, Note_off_c, 0, 80, 59
1, 241256, Control_c, 0, 64, 124
1, 241271, Control_c, 0, 64, 97
1, 241286, Control_c, 0, 64, 77
1, 241290, Note_on_c, 0, 92, 96
1, 241294, Note_on_c, 0, 79, 95
1, 241295, Note_on_c, 0, 63, 95
1, 241299, Note_on_c, 0, 87, 76
1, 241301, Control_c, 0, 64, 63
1, 241303, Note_on_c, 0, 51, 73
1, 241303, Note_on_c, 0, 60, 71
1, 241308, Note_on_c, 0, 56, 65
1, 241315, Control_c, 0, 64, 68
1, 241321, Note_off_c, 0, 87, 68
1, 241323, Note_on_c, 0, 53, 54
1, 241330, Control_c, 0, 64, 79
1, 241345, Note_off_c, 0, 92, 66
1, 241345, Control_c, 0, 64, 93
1, 241360, Control_c, 0, 64, 108
1, 241369, Note_off_c, 0, 79, 60
1, 241374, Control_c, 0, 64, 115
1, 241389, Control_c, 0, 64, 116
1, 241404, Note_off_c, 0, 63, 64
1, 241404, Control_c, 0, 64, 117
1, 241419, Control_c, 0, 64, 117
1, 241444, Note_off_c, 0, 53, 55
1, 241464, Control_c, 0, 64, 118
1, 241477, Note_on_c, 0, 89, 92
1, 241479, Note_on_c, 0, 76, 97
1, 241480, Note_on_c, 0, 65, 88
1, 241480, Note_on_c, 0, 84, 79
1, 241484, Note_off_c, 0, 51, 49
1, 241491, Note_off_c, 0, 56, 55
1, 241493, Note_off_c, 0, 60, 60
1, 241511, Note_on_c, 0, 77, 42
1, 241512, Note_off_c, 0, 77, 127
1, 241523, Control_c, 0, 64, 118
1, 241523, Note_off_c, 0, 89, 58
1, 241525, Note_off_c, 0, 65, 65
1, 241531, Note_on_c, 0, 86, 7
1, 241538, Control_c, 0, 64, 119
1, 241555, Note_off_c, 0, 76, 65
1, 241568, Control_c, 0, 64, 119
1, 241586, Note_off_c, 0, 86, 48
1, 241589, Note_off_c, 0, 84, 62
1, 241642, Note_on_c, 0, 81, 86
1, 241643, Note_on_c, 0, 87, 103
1, 241645, Note_on_c, 0, 74, 103
1, 241649, Control_c, 0, 64, 120
1, 241655, Note_on_c, 0, 71, 89
1, 241664, Control_c, 0, 64, 120
1, 241679, Control_c, 0, 64, 121
1, 241688, Note_on_c, 0, 76, 34
1, 241689, Note_off_c, 0, 76, 127
1, 241872, Note_off_c, 0, 74, 48
1, 241872, Note_off_c, 0, 87, 52
1, 241949, Note_off_c, 0, 71, 41
1, 241962, Control_c, 0, 64, 122
1, 241968, Note_off_c, 0, 81, 44
1, 243221, Control_c, 0, 64, 121
1, 243592, Control_c, 0, 64, 110
1, 243607, Control_c, 0, 64, 94
1, 243613, Note_on_c, 0, 82, 97
1, 243622, Control_c, 0, 64, 76
1, 243622, Note_on_c, 0, 77, 77
1, 243625, Note_on_c, 0, 73, 75
1, 243627, Note_on_c, 0, 61, 61
1, 243637, Control_c, 0, 64, 27
1, 243638, Note_on_c, 0, 58, 45
1, 243646, Note_on_c, 0, 53, 43
1, 243649, Note_on_c, 0, 51, 43
1, 243652, Control_c, 0, 64, 0
1, 243665, Note_on_c, 0, 56, 25
1, 243682, Control_c, 0, 64, 50
1, 243697, Control_c, 0, 64, 71
1, 243711, Control_c, 0, 64, 81
1, 243726, Control_c, 0, 64, 90
1, 243734, Note_off_c, 0, 77, 34
1, 243741, Control_c, 0, 64, 92
1, 243755, Control_c, 0, 64, 93
1, 243770, Control_c, 0, 64, 93
1, 243784, Control_c, 0, 64, 94
1, 243799, Control_c, 0, 64, 95
1, 243814, Control_c, 0, 64, 96
1, 243834, Note_off_c, 0, 73, 58
1, 243836, Control_c, 0, 64, 98
1, 243851, Control_c, 0, 64, 98
1, 243853, Note_off_c, 0, 82, 62
1, 243866, Control_c, 0, 64, 99
1, 243881, Control_c, 0, 64, 100
1, 243896, Control_c, 0, 64, 101
1, 243910, Control_c, 0, 64, 101
1, 243925, Control_c, 0, 64, 102
1, 243935, Note_off_c, 0, 61, 56
1, 243940, Control_c, 0, 64, 102
1, 243954, Control_c, 0, 64, 103
1, 243969, Control_c, 0, 64, 103
1, 243984, Control_c, 0, 64, 104
1, 244014, Control_c, 0, 64, 104
1, 244028, Control_c, 0, 64, 105
1, 244073, Control_c, 0, 64, 105
1, 244117, Control_c, 0, 64, 106
1, 244183, Note_on_c, 0, 85, 95
1, 244200, Note_on_c, 0, 76, 66
1, 244202, Note_on_c, 0, 80, 70
1, 244214, Note_on_c, 0, 63, 56
1, 244221, Control_c, 0, 64, 106
1, 244235, Note_off_c, 0, 53, 42
1, 244266, Control_c, 0, 64, 107
1, 244272, Note_off_c, 0, 56, 34
1, 244311, Control_c, 0, 64, 107
1, 244323, Note_off_c, 0, 58, 36
1, 244332, Note_off_c, 0, 51, 32
1, 244355, Control_c, 0, 64, 108
1, 244370, Note_off_c, 0, 80, 52
1, 244400, Control_c, 0, 64, 108
1, 244416, Note_off_c, 0, 63, 54
1, 244427, Note_off_c, 0, 85, 55
1, 244459, Control_c, 0, 64, 109
1, 244519, Control_c, 0, 64, 109
1, 244540, Note_off_c, 0, 76, 57
1, 244600, Control_c, 0, 64, 110
1, 244659, Control_c, 0, 64, 110
1, 244734, Note_on_c, 0, 83, 90
1, 244737, Note_on_c, 0, 75, 82
1, 244742, Note_on_c, 0, 78, 77
1, 244752, Note_on_c, 0, 65, 66
1, 244852, Control_c, 0, 64, 111
1, 244911, Control_c, 0, 64, 111
1, 244957, Note_off_c, 0, 83, 47
1, 245000, Control_c, 0, 64, 112
1, 245042, Note_off_c, 0, 78, 49
1, 245074, Control_c, 0, 64, 112
1, 245078, Note_off_c, 0, 65, 37
1, 245135, Control_c, 0, 64, 113
1, 245185, Note_off_c, 0, 75, 51
1, 245268, Control_c, 0, 64, 113
1, 245390, Note_on_c, 0, 81, 89
1, 245402, Note_on_c, 0, 73, 76
1, 245405, Note_on_c, 0, 66, 67
1, 245408, Note_on_c, 0, 76, 68
1, 245471, Note_off_c, 0, 66, 59
1, 245482, Control_c, 0, 64, 114
1, 245586, Note_off_c, 0, 81, 45
1, 245586, Control_c, 0, 64, 114
1, 245626, Note_off_c, 0, 76, 38
1, 245646, Control_c, 0, 64, 115
1, 245690, Control_c, 0, 64, 115
1, 245720, Control_c, 0, 64, 116
1, 245734, Control_c, 0, 64, 116
1, 245755, Note_off_c, 0, 73, 39
1, 245764, Control_c, 0, 64, 117
1, 245808, Control_c, 0, 64, 117
1, 245823, Control_c, 0, 67, 8
1, 245913, Control_c, 0, 64, 118
1, 246172, Control_c, 0, 67, 0
1, 246234, Note_on_c, 0, 80, 98
1, 246244, Note_on_c, 0, 67, 85
1, 246245, Note_on_c, 0, 75, 79
1, 246246, Control_c, 0, 64, 117
1, 246248, Note_on_c, 0, 63, 72
1, 246249, Note_on_c, 0, 72, 77
1, 246255, Note_on_c, 0, 51, 60
1, 246258, Note_on_c, 0, 53, 64
1, 246261, Note_on_c, 0, 60, 62
1, 246261, Control_c, 0, 64, 107
1, 246274, Note_on_c, 0, 56, 54
1, 246276, Control_c, 0, 64, 91
1, 246291, Control_c, 0, 64, 74
1, 246305, Control_c, 0, 64, 0
1, 246631, Control_c, 0, 64, 60
1, 246646, Control_c, 0, 64, 64
1, 246661, Control_c, 0, 64, 65
1, 246675, Control_c, 0, 64, 67
1, 246690, Control_c, 0, 64, 70
1, 246707, Control_c, 0, 64, 72
1, 246721, Control_c, 0, 64, 75
1, 246736, Control_c, 0, 64, 77
1, 246751, Control_c, 0, 64, 79
1, 246766, Control_c, 0, 64, 81
1, 246780, Control_c, 0, 64, 83
1, 246795, Control_c, 0, 64, 84
1, 246810, Control_c, 0, 64, 85
1, 246816, Note_off_c, 0, 53, 32
1, 246818, Note_off_c, 0, 51, 24
1, 246832, Control_c, 0, 64, 87
1, 246847, Control_c, 0, 64, 88
1, 246850, Note_off_c, 0, 67, 30
1, 246862, Control_c, 0, 64, 89
1, 246877, Control_c, 0, 64, 89
1, 246892, Control_c, 0, 64, 90
1, 246916, Note_off_c, 0, 63, 28
1, 246922, Control_c, 0, 64, 90
1, 246922, Note_off_c, 0, 80, 46
1, 246944, Note_off_c, 0, 56, 26
1, 246946, Note_off_c, 0, 60, 24
1, 246951, Control_c, 0, 64, 91
1, 246982, Note_off_c, 0, 72, 44
1, 246995, Control_c, 0, 64, 91
1, 247025, Control_c, 0, 64, 92
1, 247040, Control_c, 0, 64, 92
1, 247054, Control_c, 0, 64, 93
1, 247069, Control_c, 0, 64, 93
1, 247084, Control_c, 0, 64, 94
1, 247113, Control_c, 0, 64, 94
1, 247121, Note_off_c, 0, 75, 28
1, 247172, Control_c, 0, 64, 95
1, 247995, Control_c, 0, 64, 94
1, 248129, Control_c, 0, 64, 94
1, 248189, Control_c, 0, 64, 93
1, 248277, Control_c, 0, 64, 93
1, 248359, Control_c, 0, 64, 92
1, 248448, Control_c, 0, 64, 92
1, 248597, Control_c, 0, 64, 91
1, 248606, Note_on_c, 0, 79, 85
1, 248612, Control_c, 0, 64, 88
1, 248621, Note_on_c, 0, 71, 71
1, 248624, Note_on_c, 0, 75, 67
1, 248626, Control_c, 0, 64, 81
1, 248631, Note_on_c, 0, 74, 55
1, 248632, Note_on_c, 0, 68, 58
1, 248633, Note_on_c, 0, 60, 48
1, 248639, Note_on_c, 0, 63, 55
1, 248641, Control_c, 0, 64, 69
1, 248656, Control_c, 0, 64, 0
1, 248744, Control_c, 0, 64, 11
1, 248759, Control_c, 0, 64, 65
1, 248774, Control_c, 0, 64, 73
1, 248789, Control_c, 0, 64, 80
1, 248804, Control_c, 0, 64, 85
1, 248818, Control_c, 0, 64, 88
1, 248833, Control_c, 0, 64, 91
1, 248848, Control_c, 0, 64, 94
1, 248863, Control_c, 0, 64, 96
1, 248877, Control_c, 0, 64, 98
1, 248885, Note_off_c, 0, 71, 48
1, 248892, Note_off_c, 0, 60, 39
1, 248892, Control_c, 0, 64, 99
1, 248907, Control_c, 0, 64, 101
1, 248915, Note_off_c, 0, 79, 59
1, 248922, Control_c, 0, 64, 102
1, 248937, Control_c, 0, 64, 102
1, 248952, Control_c, 0, 64, 103
1, 248973, Note_off_c, 0, 74, 41
1, 248982, Control_c, 0, 64, 103
1, 248993, Note_off_c, 0, 63, 43
1, 248993, Note_off_c, 0, 75, 64
1, 249059, Note_off_c, 0, 68, 23
1, 249152, Note_on_c, 0, 80, 94
1, 249152, Control_c, 0, 64, 100
1, 249167, Note_on_c, 0, 70, 79
1, 249167, Control_c, 0, 64, 91
1, 249169, Note_on_c, 0, 75, 70
1, 249170, Note_on_c, 0, 68, 67
1, 249173, Note_on_c, 0, 73, 67
1, 249181, Note_on_c, 0, 59, 55
1, 249181, Control_c, 0, 64, 78
1, 249188, Note_on_c, 0, 64, 44
1, 249190, Note_on_c, 0, 62, 44
1, 249196, Control_c, 0, 64, 62
1, 249211, Control_c, 0, 64, 0
1, 249256, Control_c, 0, 64, 63
1, 249271, Control_c, 0, 64, 74
1, 249283, Note_off_c, 0, 59, 57
1, 249286, Control_c, 0, 64, 83
1, 249300, Control_c, 0, 64, 89
1, 249315, Control_c, 0, 64, 91
1, 249330, Control_c, 0, 64, 92
1, 249344, Note_off_c, 0, 73, 62
1, 249345, Control_c, 0, 64, 93
1, 249348, Note_off_c, 0, 75, 59
1, 249360, Control_c, 0, 64, 94
1, 249374, Control_c, 0, 64, 95
1, 249378, Note_off_c, 0, 62, 38
1, 249385, Note_off_c, 0, 64, 52
1, 249389, Control_c, 0, 64, 96
1, 249404, Control_c, 0, 64, 97
1, 249419, Control_c, 0, 64, 97
1, 249448, Control_c, 0, 64, 98
1, 249450, Note_off_c, 0, 70, 60
1, 249453, Note_off_c, 0, 68, 59
1, 249471, Note_off_c, 0, 80, 60
1, 249492, Control_c, 0, 64, 98
1, 249537, Control_c, 0, 64, 97
1, 249550, Note_on_c, 0, 82, 95
1, 249552, Control_c, 0, 64, 89
1, 249558, Note_on_c, 0, 72, 79
1, 249561, Note_on_c, 0, 69, 79
1, 249561, Note_on_c, 0, 75, 74
1, 249563, Note_on_c, 0, 68, 71
1, 249566, Control_c, 0, 64, 75
1, 249572, Note_on_c, 0, 65, 59
1, 249573, Note_on_c, 0, 58, 58
1, 249581, Control_c, 0, 64, 35
1, 249586, Note_on_c, 0, 61, 46
1, 249596, Control_c, 0, 64, 0
1, 249624, Note_off_c, 0, 69, 0
1, 249655, Control_c, 0, 64, 66
1, 249661, Poly_aftertouch_c, 0, 69, 127
1, 249670, Control_c, 0, 64, 76
1, 249685, Control_c, 0, 64, 85
1, 249688, Note_off_c, 0, 72, 62
1, 249691, Note_off_c, 0, 58, 55
1, 249694, Note_off_c, 0, 61, 42
1, 249697, Note_off_c, 0, 65, 62
1, 249700, Control_c, 0, 64, 91
1, 249703, Poly_aftertouch_c, 0, 69, 0
1, 249706, Note_off_c, 0, 75, 62
1, 249715, Control_c, 0, 64, 94
1, 249730, Control_c, 0, 64, 96
1, 249745, Control_c, 0, 64, 98
1, 249750, Note_off_c, 0, 82, 64
1, 249760, Control_c, 0, 64, 101
1, 249773, Control_c, 0, 64, 103
1, 249787, Note_off_c, 0, 68, 59
1, 249788, Control_c, 0, 64, 104
1, 249803, Control_c, 0, 64, 105
1, 249825, Control_c, 0, 64, 106
1, 249840, Control_c, 0, 64, 106
1, 249855, Control_c, 0, 64, 107
1, 249870, Control_c, 0, 64, 108
1, 249885, Control_c, 0, 64, 109
1, 249930, Control_c, 0, 64, 109
1, 249945, Control_c, 0, 64, 106
1, 249953, Note_on_c, 0, 84, 95
1, 249957, Note_on_c, 0, 73, 88
1, 249959, Control_c, 0, 64, 96
1, 249962, Note_on_c, 0, 75, 84
1, 249964, Note_on_c, 0, 70, 67
1, 249974, Control_c, 0, 64, 81
1, 249977, Note_on_c, 0, 59, 53
1, 249977, Note_on_c, 0, 68, 53
1, 249984, Note_on_c, 0, 64, 47
1, 249986, Note_on_c, 0, 62, 36
1, 249989, Control_c, 0, 64, 62
1, 249995, Note_off_c, 0, 73, 53
1, 250004, Control_c, 0, 64, 0
1, 250046, Note_on_c, 0, 73, 27
1, 250064, Control_c, 0, 64, 45
1, 250078, Control_c, 0, 64, 65
1, 250093, Control_c, 0, 64, 70
1, 250103, Note_off_c, 0, 59, 58
1, 250108, Control_c, 0, 64, 74
1, 250122, Control_c, 0, 64, 78
1, 250137, Control_c, 0, 64, 82
1, 250143, Note_off_c, 0, 84, 62
1, 250152, Control_c, 0, 64, 84
1, 250154, Note_off_c, 0, 70, 50
1, 250167, Control_c, 0, 64, 86
1, 250182, Control_c, 0, 64, 87
1, 250182, Control_c, 0, 67, 8
1, 250190, Note_off_c, 0, 68, 44
1, 250192, Note_off_c, 0, 64, 35
1, 250196, Control_c, 0, 64, 87
1, 250196, Control_c, 0, 67, 8
1, 250201, Note_off_c, 0, 75, 53
1, 250211, Control_c, 0, 64, 88
1, 250211, Control_c, 0, 67, 9
1, 250226, Control_c, 0, 64, 89
1, 250226, Control_c, 0, 67, 9
1, 250241, Control_c, 0, 64, 90
1, 250256, Control_c, 0, 64, 90
1, 250270, Control_c, 0, 64, 91
1, 250287, Note_off_c, 0, 62, 37
1, 250300, Control_c, 0, 64, 91
1, 250314, Control_c, 0, 67, 10
1, 250329, Control_c, 0, 64, 92
1, 250329, Control_c, 0, 67, 13
1, 250337, Note_off_c, 0, 73, 36
1, 250344, Control_c, 0, 67, 17
1, 250359, Control_c, 0, 67, 20
1, 250374, Control_c, 0, 64, 92
1, 250374, Control_c, 0, 67, 22
1, 250433, Control_c, 0, 67, 22
1, 250448, Control_c, 0, 64, 92
1, 250448, Control_c, 0, 67, 23
1, 250451, Note_on_c, 0, 82, 91
1, 250463, Control_c, 0, 64, 87
1, 250463, Control_c, 0, 67, 24
1, 250465, Note_on_c, 0, 71, 66
1, 250467, Note_on_c, 0, 75, 69
1, 250469, Note_on_c, 0, 60, 56
1, 250474, Note_on_c, 0, 63, 52
1, 250475, Note_on_c, 0, 68, 56
1, 250478, Control_c, 0, 64, 75
1, 250478, Control_c, 0, 67, 25
1, 250481, Note_on_c, 0, 74, 48
1, 250493, Control_c, 0, 64, 53
1, 250493, Control_c, 0, 67, 26
1, 250508, Control_c, 0, 64, 0
1, 250537, Control_c, 0, 67, 26
1, 250574, Control_c, 0, 67, 26
1, 250589, Control_c, 0, 64, 32
1, 250603, Control_c, 0, 64, 64
1, 250603, Control_c, 0, 67, 27
1, 250618, Control_c, 0, 64, 68
1, 250633, Control_c, 0, 64, 73
1, 250648, Control_c, 0, 64, 78
1, 250656, Note_off_c, 0, 60, 50
1, 250663, Control_c, 0, 64, 82
1, 250678, Control_c, 0, 64, 86
1, 250693, Control_c, 0, 64, 87
1, 250708, Control_c, 0, 64, 88
1, 250708, Control_c, 0, 67, 28
1, 250723, Control_c, 0, 64, 89
1, 250723, Control_c, 0, 67, 29
1, 250738, Control_c, 0, 64, 90
1, 250738, Control_c, 0, 67, 33
1, 250743, Note_off_c, 0, 63, 31
1, 250752, Control_c, 0, 64, 90
1, 250752, Control_c, 0, 67, 38
1, 250761, Note_off_c, 0, 74, 39
1, 250767, Control_c, 0, 64, 91
1, 250767, Control_c, 0, 67, 42
1, 250782, Control_c, 0, 67, 45
1, 250797, Control_c, 0, 64, 91
1, 250797, Control_c, 0, 67, 48
1, 250808, Note_off_c, 0, 68, 31
1, 250812, Control_c, 0, 67, 49
1, 250821, Note_off_c, 0, 82, 60
1, 250827, Control_c, 0, 64, 92
1, 250827, Control_c, 0, 67, 51
1, 250842, Control_c, 0, 67, 53
1, 250857, Control_c, 0, 67, 55
1, 250872, Control_c, 0, 64, 92
1, 250872, Control_c, 0, 67, 57
1, 250887, Control_c, 0, 67, 58
1, 250901, Control_c, 0, 67, 58
1, 250902, Note_off_c, 0, 71, 55
1, 250916, Control_c, 0, 64, 93
1, 250916, Control_c, 0, 67, 59
1, 250963, Note_off_c, 0, 75, 20
1, 251049, Control_c, 0, 67, 58
1, 251087, Note_on_c, 0, 80, 74
1, 251098, Note_on_c, 0, 75, 49
1, 251105, Note_on_c, 0, 70, 52
1, 251108, Note_on_c, 0, 73, 51
1, 251108, Control_c, 0, 64, 91
1, 251110, Note_on_c, 0, 68, 49
1, 251113, Note_on_c, 0, 64, 47
1, 251117, Note_on_c, 0, 62, 39
1, 251119, Note_on_c, 0, 59, 44
1, 251123, Control_c, 0, 64, 85
1, 251137, Control_c, 0, 64, 75
1, 251137, Control_c, 0, 67, 59
1, 251152, Control_c, 0, 64, 45
1, 251167, Control_c, 0, 64, 0
1, 251175, Note_off_c, 0, 68, 0
1, 251175, Note_on_c, 0, 68, 4
1, 251182, Control_c, 0, 67, 58
1, 251187, Note_off_c, 0, 70, 0
1, 251187, Note_on_c, 0, 70, 20
1, 251197, Control_c, 0, 67, 58
1, 251324, Control_c, 0, 67, 57
1, 251339, Control_c, 0, 67, 57
1, 251353, Control_c, 0, 64, 50
1, 251368, Control_c, 0, 64, 60
1, 251383, Control_c, 0, 64, 63
1, 251398, Control_c, 0, 64, 65
1, 251413, Control_c, 0, 64, 67
1, 251413, Control_c, 0, 67, 56
1, 251427, Control_c, 0, 64, 70
1, 251442, Control_c, 0, 64, 74
1, 251442, Control_c, 0, 67, 55
1, 251457, Control_c, 0, 64, 78
1, 251471, Control_c, 0, 64, 81
1, 251471, Control_c, 0, 67, 54
1, 251486, Control_c, 0, 64, 83
1, 251503, Control_c, 0, 64, 83
1, 251532, Control_c, 0, 64, 84
1, 251532, Control_c, 0, 67, 54
1, 251547, Control_c, 0, 64, 85
1, 251547, Control_c, 0, 67, 53
1, 251562, Control_c, 0, 64, 86
1, 251576, Control_c, 0, 64, 86
1, 251576, Control_c, 0, 67, 52
1, 251599, Note_off_c, 0, 62, 36
1, 251606, Control_c, 0, 64, 87
1, 251606, Control_c, 0, 67, 52
1, 251636, Control_c, 0, 64, 87
1, 251665, Control_c, 0, 67, 51
1, 251680, Control_c, 0, 64, 88
1, 251694, Control_c, 0, 67, 51
1, 251713, Note_off_c, 0, 59, 36
1, 251733, Note_off_c, 0, 64, 27
1, 251736, Note_off_c, 0, 70, 37
1, 251739, Control_c, 0, 67, 50
1, 251754, Control_c, 0, 67, 50
1, 251769, Control_c, 0, 64, 88
1, 251784, Control_c, 0, 67, 49
1, 251814, Control_c, 0, 67, 49
1, 251828, Control_c, 0, 67, 48
1, 251843, Control_c, 0, 67, 47
1, 251858, Control_c, 0, 67, 45
1, 251873, Control_c, 0, 67, 40
1, 251877, Note_off_c, 0, 80, 17
1, 251887, Control_c, 0, 67, 35
1, 251902, Control_c, 0, 67, 29
1, 251915, Note_off_c, 0, 68, 32
1, 251915, Note_off_c, 0, 73, 32
1, 251916, Note_off_c, 0, 75, 15
1, 251917, Control_c, 0, 67, 22
1, 251932, Control_c, 0, 67, 12
1, 251947, Control_c, 0, 67, 0
1, 252787, Note_on_c, 0, 79, 85
1, 252799, Note_on_c, 0, 69, 71
1, 252802, Note_on_c, 0, 58, 50
1, 252803, Note_on_c, 0, 75, 69
1, 252805, Note_on_c, 0, 68, 49
1, 252805, Note_on_c, 0, 72, 65
1, 252815, Note_on_c, 0, 61, 47
1, 252820, Note_on_c, 0, 65, 46
1, 252821, Control_c, 0, 64, 85
1, 252836, Control_c, 0, 64, 79
1, 252851, Control_c, 0, 64, 69
1, 252866, Control_c, 0, 64, 48
1, 252881, Control_c, 0, 64, 0
1, 252911, Control_c, 0, 64, 57
1, 252919, Note_off_c, 0, 69, 56
1, 252925, Control_c, 0, 64, 69
1, 252940, Control_c, 0, 64, 76
1, 252955, Control_c, 0, 64, 85
1, 252970, Control_c, 0, 64, 90
1, 252982, Note_off_c, 0, 79, 59
1, 252985, Control_c, 0, 64, 92
1, 252985, Note_off_c, 0, 72, 62
1, 252999, Control_c, 0, 64, 93
1, 253022, Note_off_c, 0, 75, 65
1, 253026, Note_off_c, 0, 58, 38
1, 253029, Control_c, 0, 64, 94
1, 253058, Control_c, 0, 64, 94
1, 253077, Note_off_c, 0, 61, 41
1, 253085, Note_off_c, 0, 65, 43
1, 253097, Note_off_c, 0, 68, 37
1, 253104, Control_c, 0, 64, 95
1, 253148, Control_c, 0, 64, 95
1, 253216, Note_on_c, 0, 80, 95
1, 253222, Control_c, 0, 64, 93
1, 253230, Note_on_c, 0, 70, 83
1, 253235, Note_on_c, 0, 68, 58
1, 253236, Note_on_c, 0, 73, 65
1, 253237, Note_on_c, 0, 75, 67
1, 253237, Control_c, 0, 64, 87
1, 253242, Note_on_c, 0, 62, 55
1, 253252, Note_on_c, 0, 59, 46
1, 253252, Control_c, 0, 64, 75
1, 253262, Note_on_c, 0, 64, 43
1, 253267, Control_c, 0, 64, 61
1, 253282, Control_c, 0, 64, 0
1, 253326, Control_c, 0, 64, 50
1, 253340, Control_c, 0, 64, 69
1, 253343, Note_off_c, 0, 70, 0
1, 253343, Note_on_c, 0, 70, 18
1, 253355, Control_c, 0, 64, 77
1, 253370, Control_c, 0, 64, 84
1, 253382, Note_off_c, 0, 75, 51
1, 253385, Control_c, 0, 64, 85
1, 253396, Note_off_c, 0, 62, 56
1, 253400, Control_c, 0, 64, 86
1, 253414, Control_c, 0, 64, 86
1, 253425, Note_off_c, 0, 73, 37
1, 253428, Note_off_c, 0, 59, 39
1, 253429, Control_c, 0, 64, 87
1, 253444, Control_c, 0, 64, 87
1, 253456, Note_off_c, 0, 70, 54
1, 253459, Control_c, 0, 64, 88
1, 253474, Control_c, 0, 64, 88
1, 253489, Control_c, 0, 64, 89
1, 253511, Note_off_c, 0, 68, 37
1, 253528, Note_off_c, 0, 80, 58
1, 253533, Control_c, 0, 64, 89
1, 253546, Note_off_c, 0, 64, 40
1, 253570, Control_c, 0, 64, 90
1, 253616, Note_on_c, 0, 82, 94
1, 253629, Control_c, 0, 64, 87
1, 253631, Note_on_c, 0, 75, 76
1, 253633, Note_on_c, 0, 68, 66
1, 253637, Note_on_c, 0, 71, 66
1, 253639, Note_on_c, 0, 63, 60
1, 253643, Note_on_c, 0, 60, 62
1, 253644, Control_c, 0, 64, 75
1, 253645, Note_on_c, 0, 74, 40
1, 253659, Control_c, 0, 64, 50
1, 253669, Note_off_c, 0, 74, 52
1, 253674, Control_c, 0, 64, 0
1, 253733, Control_c, 0, 64, 69
1, 253748, Control_c, 0, 64, 77
1, 253763, Note_off_c, 0, 71, 43
1, 253763, Control_c, 0, 64, 85
1, 253778, Control_c, 0, 64, 88
1, 253793, Control_c, 0, 64, 90
1, 253798, Note_off_c, 0, 60, 52
1, 253808, Control_c, 0, 64, 92
1, 253822, Control_c, 0, 64, 94
1, 253837, Control_c, 0, 64, 95
1, 253838, Note_off_c, 0, 82, 60
1, 253844, Note_off_c, 0, 63, 39
1, 253852, Control_c, 0, 64, 96
1, 253866, Control_c, 0, 64, 97
1, 253882, Note_off_c, 0, 68, 32
1, 253882, Control_c, 0, 64, 98
1, 253912, Control_c, 0, 64, 98
1, 253927, Control_c, 0, 64, 99
1, 253942, Control_c, 0, 64, 100
1, 253957, Control_c, 0, 64, 101
1, 253957, Note_off_c, 0, 75, 65
1, 253971, Control_c, 0, 64, 102
1, 253986, Control_c, 0, 64, 102
1, 254031, Control_c, 0, 64, 101
1, 254045, Control_c, 0, 64, 95
1, 254047, Note_on_c, 0, 80, 89
1, 254058, Note_on_c, 0, 70, 73
1, 254059, Note_on_c, 0, 68, 53
1, 254060, Control_c, 0, 64, 83
1, 254063, Note_on_c, 0, 73, 68
1, 254071, Note_on_c, 0, 59, 47
1, 254073, Note_on_c, 0, 62, 34
1, 254075, Control_c, 0, 64, 67
1, 254082, Note_on_c, 0, 75, 53
1, 254083, Note_on_c, 0, 64, 33
1, 254089, Control_c, 0, 64, 0
1, 254134, Control_c, 0, 64, 63
1, 254149, Control_c, 0, 64, 72
1, 254163, Control_c, 0, 64, 80
1, 254166, Note_off_c, 0, 59, 60
1, 254171, Note_off_c, 0, 75, 58
1, 254173, Note_off_c, 0, 62, 28
1, 254178, Control_c, 0, 64, 85
1, 254193, Control_c, 0, 64, 85
1, 254203, Note_off_c, 0, 73, 61
1, 254208, Control_c, 0, 64, 86
1, 254223, Control_c, 0, 64, 86
1, 254237, Control_c, 0, 64, 87
1, 254241, Note_off_c, 0, 64, 40
1, 254282, Control_c, 0, 64, 87
1, 254319, Control_c, 0, 64, 88
1, 254330, Note_off_c, 0, 68, 40
1, 254349, Control_c, 0, 64, 89
1, 254350, Note_off_c, 0, 70, 42
1, 254393, Control_c, 0, 64, 88
1, 254407, Note_on_c, 0, 58, 40
1, 254408, Control_c, 0, 64, 80
1, 254415, Note_on_c, 0, 61, 46
1, 254420, Note_on_c, 0, 65, 49
1, 254423, Control_c, 0, 64, 63
1, 254437, Control_c, 0, 64, 0
1, 254440, Note_on_c, 0, 68, 54
1, 254449, Note_off_c, 0, 80, 50
1, 254483, Note_off_c, 0, 58, 0
1, 254483, Note_on_c, 0, 58, 6
1, 254487, Note_on_c, 0, 75, 73
1, 254496, Note_on_c, 0, 69, 64
1, 254498, Note_on_c, 0, 72, 56
1, 254517, Note_off_c, 0, 72, 65
1, 254526, Control_c, 0, 64, 66
1, 254541, Control_c, 0, 64, 72
1, 254556, Control_c, 0, 64, 77
1, 254567, Note_off_c, 0, 69, 61
1, 254571, Control_c, 0, 64, 82
1, 254580, Note_off_c, 0, 75, 64
1, 254586, Control_c, 0, 64, 85
1, 254601, Control_c, 0, 64, 87
1, 254616, Control_c, 0, 64, 88
1, 254631, Control_c, 0, 64, 89
1, 254645, Control_c, 0, 64, 90
1, 254660, Control_c, 0, 64, 91
1, 254675, Control_c, 0, 64, 91
1, 254690, Control_c, 0, 64, 92
1, 254705, Control_c, 0, 64, 93
1, 254735, Control_c, 0, 64, 93
1, 254824, Control_c, 0, 64, 94
1, 254830, Note_on_c, 0, 87, 93
1, 254839, Control_c, 0, 64, 94
1, 254868, Control_c, 0, 64, 95
1, 254878, Note_off_c, 0, 87, 64
1, 254898, Control_c, 0, 64, 95
1, 254927, Control_c, 0, 64, 96
1, 254957, Control_c, 0, 64, 96
1, 255031, Control_c, 0, 64, 97
1, 255216, Control_c, 0, 64, 97
1, 255658, Note_off_c, 0, 58, 37
1, 255692, Note_off_c, 0, 61, 34
1, 255707, Note_off_c, 0, 65, 35
1, 255786, Note_off_c, 0, 68, 29
1, 257125, Note_on_c, 0, 82, 91
1, 257129, Control_c, 0, 64, 95
1, 257132, Note_on_c, 0, 63, 57
1, 257133, Note_on_c, 0, 66, 56
1, 257134, Note_on_c, 0, 77, 68
1, 257134, Note_on_c, 0, 71, 58
1, 257134, Note_on_c, 0, 74, 69
1, 257137, Note_on_c, 0, 78, 72
1, 257144, Control_c, 0, 64, 88
1, 257159, Control_c, 0, 64, 79
1, 257174, Control_c, 0, 64, 66
1, 257188, Control_c, 0, 64, 34
1, 257203, Control_c, 0, 64, 26
1, 257218, Control_c, 0, 64, 61
1, 257233, Control_c, 0, 64, 69
1, 257248, Control_c, 0, 64, 75
1, 257263, Control_c, 0, 64, 81
1, 257278, Control_c, 0, 64, 84
1, 257293, Control_c, 0, 64, 86
1, 257315, Control_c, 0, 64, 87
1, 257322, Note_off_c, 0, 78, 52
1, 257330, Control_c, 0, 64, 87
1, 257331, Note_off_c, 0, 77, 53
1, 257345, Control_c, 0, 64, 88
1, 257360, Control_c, 0, 64, 88
1, 257375, Control_c, 0, 64, 89
1, 257389, Control_c, 0, 64, 91
1, 257404, Control_c, 0, 64, 93
1, 257419, Control_c, 0, 64, 96
1, 257434, Control_c, 0, 64, 99
1, 257449, Control_c, 0, 64, 101
1, 257463, Control_c, 0, 64, 105
1, 257465, Note_off_c, 0, 63, 37
1, 257474, Note_off_c, 0, 66, 42
1, 257478, Control_c, 0, 64, 108
1, 257493, Control_c, 0, 64, 111
1, 257495, Note_off_c, 0, 74, 57
1, 257507, Control_c, 0, 64, 113
1, 257517, Note_off_c, 0, 82, 60
1, 257522, Control_c, 0, 64, 114
1, 257530, Note_off_c, 0, 71, 50
1, 257537, Control_c, 0, 64, 115
1, 257552, Control_c, 0, 64, 116
1, 257567, Control_c, 0, 64, 117
1, 257626, Control_c, 0, 64, 116
1, 257641, Control_c, 0, 64, 111
1, 257653, Note_on_c, 0, 83, 87
1, 257656, Control_c, 0, 64, 100
1, 257657, Note_on_c, 0, 78, 85
1, 257659, Note_on_c, 0, 76, 78
1, 257662, Note_on_c, 0, 73, 87
1, 257665, Note_on_c, 0, 62, 70
1, 257671, Note_on_c, 0, 71, 70
1, 257671, Control_c, 0, 64, 90
1, 257678, Note_on_c, 0, 67, 63
1, 257683, Note_on_c, 0, 65, 55
1, 257686, Control_c, 0, 64, 78
1, 257701, Control_c, 0, 64, 67
1, 257715, Control_c, 0, 64, 54
1, 257730, Control_c, 0, 64, 62
1, 257745, Control_c, 0, 64, 69
1, 257760, Control_c, 0, 64, 79
1, 257775, Control_c, 0, 64, 87
1, 257789, Control_c, 0, 64, 90
1, 257804, Control_c, 0, 64, 92
1, 257813, Note_off_c, 0, 62, 56
1, 257819, Control_c, 0, 64, 94
1, 257820, Note_off_c, 0, 83, 55
1, 257832, Note_off_c, 0, 78, 62
1, 257833, Control_c, 0, 64, 95
1, 257838, Note_off_c, 0, 76, 64
1, 257848, Control_c, 0, 64, 96
1, 257856, Note_off_c, 0, 67, 58
1, 257863, Control_c, 0, 64, 97
1, 257879, Control_c, 0, 64, 97
1, 257894, Control_c, 0, 64, 98
1, 257909, Control_c, 0, 64, 99
1, 257924, Control_c, 0, 64, 100
1, 257938, Control_c, 0, 64, 101
1, 257953, Control_c, 0, 64, 103
1, 257968, Control_c, 0, 64, 104
1, 257975, Note_off_c, 0, 71, 31
1, 257981, Note_off_c, 0, 65, 40
1, 257988, Note_off_c, 0, 73, 61
1, 258026, Control_c, 0, 64, 103
1, 258041, Control_c, 0, 64, 96
1, 258064, Control_c, 0, 64, 84
1, 258065, Note_on_c, 0, 85, 95
1, 258070, Note_on_c, 0, 78, 90
1, 258073, Note_on_c, 0, 75, 85
1, 258074, Note_on_c, 0, 72, 88
1, 258077, Note_on_c, 0, 68, 73
1, 258079, Control_c, 0, 64, 68
1, 258082, Note_on_c, 0, 71, 74
1, 258084, Note_on_c, 0, 64, 61
1, 258085, Note_on_c, 0, 61, 67
1, 258093, Control_c, 0, 64, 0
1, 258110, Note_off_c, 0, 72, 58
1, 258137, Control_c, 0, 64, 62
1, 258152, Control_c, 0, 64, 72
1, 258167, Control_c, 0, 64, 82
1, 258182, Control_c, 0, 64, 90
1, 258197, Control_c, 0, 64, 93
1, 258211, Control_c, 0, 64, 95
1, 258213, Note_off_c, 0, 75, 61
1, 258222, Note_off_c, 0, 64, 48
1, 258223, Note_off_c, 0, 68, 62
1, 258226, Control_c, 0, 64, 96
1, 258228, Note_off_c, 0, 78, 61
1, 258229, Note_off_c, 0, 61, 53
1, 258241, Control_c, 0, 64, 97
1, 258254, Note_off_c, 0, 71, 60
1, 258255, Control_c, 0, 64, 98
1, 258264, Note_off_c, 0, 85, 63
1, 258270, Control_c, 0, 64, 99
1, 258285, Control_c, 0, 64, 100
1, 258300, Control_c, 0, 64, 101
1, 258315, Control_c, 0, 64, 103
1, 258330, Control_c, 0, 64, 105
1, 258345, Control_c, 0, 64, 107
1, 258360, Control_c, 0, 64, 108
1, 258375, Control_c, 0, 64, 109
1, 258389, Control_c, 0, 64, 109
1, 258404, Control_c, 0, 64, 109
1, 258434, Control_c, 0, 64, 107
1, 258442, Note_on_c, 0, 87, 102
1, 258449, Note_on_c, 0, 76, 98
1, 258449, Control_c, 0, 64, 95
1, 258452, Note_on_c, 0, 78, 87
1, 258453, Note_on_c, 0, 73, 80
1, 258455, Note_on_c, 0, 62, 62
1, 258456, Note_on_c, 0, 71, 66
1, 258463, Control_c, 0, 64, 78
1, 258469, Note_on_c, 0, 67, 54
1, 258473, Note_on_c, 0, 65, 55
1, 258478, Control_c, 0, 64, 23
1, 258493, Control_c, 0, 64, 0
1, 258537, Control_c, 0, 64, 29
1, 258544, Note_off_c, 0, 76, 0
1, 258544, Note_on_c, 0, 76, 18
1, 258552, Control_c, 0, 64, 66
1, 258567, Control_c, 0, 64, 74
1, 258582, Control_c, 0, 64, 83
1, 258597, Control_c, 0, 64, 90
1, 258611, Control_c, 0, 64, 93
1, 258616, Note_off_c, 0, 71, 46
1, 258626, Control_c, 0, 64, 95
1, 258633, Note_off_c, 0, 62, 49
1, 258639, Note_off_c, 0, 87, 58
1, 258641, Control_c, 0, 64, 98
1, 258642, Note_off_c, 0, 78, 59
1, 258655, Control_c, 0, 64, 100
1, 258667, Note_off_c, 0, 67, 37
1, 258670, Control_c, 0, 64, 103
1, 258686, Control_c, 0, 64, 105
1, 258701, Control_c, 0, 64, 107
1, 258712, Note_off_c, 0, 65, 40
1, 258716, Control_c, 0, 64, 108
1, 258722, Note_off_c, 0, 73, 60
1, 258731, Control_c, 0, 64, 109
1, 258746, Control_c, 0, 64, 110
1, 258813, Control_c, 0, 64, 110
1, 258816, Note_off_c, 0, 76, 38
1, 258842, Control_c, 0, 64, 111
1, 258857, Control_c, 0, 64, 112
1, 258872, Control_c, 0, 64, 112
1, 258886, Control_c, 0, 64, 113
1, 258908, Note_on_c, 0, 85, 96
1, 258916, Control_c, 0, 64, 112
1, 258920, Note_on_c, 0, 77, 76
1, 258920, Note_on_c, 0, 78, 82
1, 258921, Note_on_c, 0, 74, 78
1, 258924, Note_on_c, 0, 63, 71
1, 258924, Note_on_c, 0, 71, 67
1, 258925, Note_on_c, 0, 66, 65
1, 258931, Control_c, 0, 64, 103
1, 258946, Control_c, 0, 64, 86
1, 258960, Control_c, 0, 64, 60
1, 258975, Control_c, 0, 64, 0
1, 259013, Note_off_c, 0, 74, 0
1, 259013, Note_on_c, 0, 74, 14
1, 259049, Control_c, 0, 64, 66
1, 259064, Control_c, 0, 64, 74
1, 259078, Control_c, 0, 64, 81
1, 259093, Control_c, 0, 64, 87
1, 259108, Control_c, 0, 64, 89
1, 259123, Control_c, 0, 64, 92
1, 259138, Control_c, 0, 64, 95
1, 259153, Control_c, 0, 64, 98
1, 259167, Control_c, 0, 64, 100
1, 259182, Control_c, 0, 64, 102
1, 259197, Control_c, 0, 64, 102
1, 259218, Note_off_c, 0, 85, 62
1, 259227, Control_c, 0, 64, 103
1, 259237, Note_off_c, 0, 78, 61
1, 259242, Control_c, 0, 64, 103
1, 259246, Note_off_c, 0, 77, 31
1, 259264, Note_off_c, 0, 63, 38
1, 259286, Control_c, 0, 64, 104
1, 259300, Note_off_c, 0, 66, 32
1, 259305, Note_off_c, 0, 74, 54
1, 259346, Control_c, 0, 64, 104
1, 259373, Note_off_c, 0, 71, 28
1, 259509, Control_c, 0, 64, 104
1, 259512, Note_on_c, 0, 83, 81
1, 259521, Note_on_c, 0, 76, 69
1, 259523, Note_on_c, 0, 73, 70
1, 259524, Control_c, 0, 64, 101
1, 259525, Note_on_c, 0, 78, 68
1, 259528, Note_on_c, 0, 71, 45
1, 259532, Note_on_c, 0, 67, 52
1, 259534, Note_on_c, 0, 65, 45
1, 259539, Control_c, 0, 64, 91
1, 259541, Note_on_c, 0, 62, 48
1, 259561, Control_c, 0, 64, 78
1, 259576, Control_c, 0, 64, 40
1, 259591, Control_c, 0, 64, 0
1, 259638, Note_off_c, 0, 73, 0
1, 259638, Note_on_c, 0, 73, 3
1, 259783, Control_c, 0, 64, 38
1, 259798, Control_c, 0, 64, 53
1, 259813, Control_c, 0, 64, 61
1, 259828, Control_c, 0, 64, 64
1, 259843, Control_c, 0, 64, 67
1, 259857, Control_c, 0, 64, 71
1, 259872, Control_c, 0, 64, 76
1, 259887, Control_c, 0, 64, 81
1, 259901, Control_c, 0, 64, 84
1, 259916, Control_c, 0, 64, 85
1, 259931, Control_c, 0, 64, 86
1, 259946, Control_c, 0, 64, 87
1, 259961, Control_c, 0, 64, 88
1, 259975, Control_c, 0, 64, 89
1, 259990, Control_c, 0, 64, 90
1, 259996, Note_off_c, 0, 83, 32
1, 260005, Control_c, 0, 64, 90
1, 260020, Control_c, 0, 64, 91
1, 260045, Note_off_c, 0, 73, 33
1, 260050, Control_c, 0, 64, 91
1, 260065, Control_c, 0, 64, 92
1, 260092, Note_off_c, 0, 62, 32
1, 260095, Control_c, 0, 64, 92
1, 260098, Note_off_c, 0, 76, 34
1, 260109, Control_c, 0, 64, 93
1, 260110, Note_off_c, 0, 71, 31
1, 260124, Control_c, 0, 64, 93
1, 260139, Control_c, 0, 64, 94
1, 260154, Control_c, 0, 64, 95
1, 260156, Note_off_c, 0, 67, 31
1, 260166, Note_off_c, 0, 78, 32
1, 260169, Control_c, 0, 64, 96
1, 260183, Control_c, 0, 64, 97
1, 260198, Control_c, 0, 64, 97
1, 260213, Control_c, 0, 64, 98
1, 260242, Control_c, 0, 64, 98
1, 260253, Note_off_c, 0, 65, 39
1, 260339, Control_c, 0, 64, 99
1, 261167, Note_on_c, 0, 82, 97
1, 261174, Note_on_c, 0, 75, 73
1, 261178, Control_c, 0, 64, 96
1, 261179, Note_on_c, 0, 78, 77
1, 261180, Note_on_c, 0, 68, 56
1, 261180, Note_on_c, 0, 72, 73
1, 261181, Note_on_c, 0, 61, 51
1, 261189, Note_on_c, 0, 64, 53
1, 261193, Control_c, 0, 64, 90
1, 261195, Note_on_c, 0, 71, 47
1, 261208, Control_c, 0, 64, 78
1, 261223, Control_c, 0, 64, 65
1, 261237, Control_c, 0, 64, 0
1, 261267, Control_c, 0, 64, 51
1, 261281, Control_c, 0, 64, 67
1, 261296, Control_c, 0, 64, 76
1, 261311, Control_c, 0, 64, 83
1, 261326, Control_c, 0, 64, 86
1, 261341, Control_c, 0, 64, 87
1, 261355, Control_c, 0, 64, 88
1, 261370, Control_c, 0, 64, 90
1, 261385, Control_c, 0, 64, 92
1, 261400, Control_c, 0, 64, 93
1, 261415, Control_c, 0, 64, 94
1, 261430, Control_c, 0, 64, 95
1, 261445, Note_off_c, 0, 61, 37
1, 261445, Control_c, 0, 64, 96
1, 261447, Note_off_c, 0, 78, 57
1, 261452, Note_off_c, 0, 75, 58
1, 261460, Control_c, 0, 64, 97
1, 261471, Note_off_c, 0, 72, 63
1, 261475, Control_c, 0, 64, 98
1, 261489, Control_c, 0, 64, 98
1, 261490, Note_off_c, 0, 82, 59
1, 261519, Control_c, 0, 64, 99
1, 261532, Note_off_c, 0, 68, 47
1, 261535, Note_off_c, 0, 64, 53
1, 261548, Control_c, 0, 64, 99
1, 261563, Control_c, 0, 64, 100
1, 261575, Note_off_c, 0, 71, 53
1, 261578, Control_c, 0, 64, 101
1, 261642, Note_on_c, 0, 83, 87
1, 261649, Note_on_c, 0, 78, 88
1, 261652, Control_c, 0, 64, 96
1, 261654, Note_on_c, 0, 76, 76
1, 261654, Note_on_c, 0, 73, 87
1, 261667, Control_c, 0, 64, 86
1, 261671, Note_on_c, 0, 62, 63
1, 261672, Note_on_c, 0, 67, 58
1, 261675, Note_on_c, 0, 71, 62
1, 261676, Note_on_c, 0, 65, 54
1, 261681, Control_c, 0, 64, 68
1, 261696, Control_c, 0, 64, 0
1, 261726, Control_c, 0, 64, 11
1, 261741, Control_c, 0, 64, 67
1, 261754, Control_c, 0, 64, 77
1, 261769, Control_c, 0, 64, 88
1, 261773, Note_off_c, 0, 76, 56
1, 261782, Note_off_c, 0, 83, 57
1, 261784, Control_c, 0, 64, 93
1, 261788, Note_off_c, 0, 78, 63
1, 261806, Control_c, 0, 64, 93
1, 261815, Note_off_c, 0, 62, 56
1, 261835, Control_c, 0, 64, 94
1, 261836, Note_off_c, 0, 65, 36
1, 261881, Control_c, 0, 64, 94
1, 261884, Note_off_c, 0, 73, 59
1, 261896, Control_c, 0, 64, 96
1, 261910, Control_c, 0, 64, 98
1, 261922, Note_off_c, 0, 71, 32
1, 261925, Control_c, 0, 64, 99
1, 261940, Control_c, 0, 64, 100
1, 261973, Note_off_c, 0, 67, 37
1, 261999, Control_c, 0, 64, 98
1, 262014, Note_on_c, 0, 85, 92
1, 262014, Control_c, 0, 64, 91
1, 262020, Note_on_c, 0, 78, 87
1, 262023, Note_on_c, 0, 74, 79
1, 262026, Note_on_c, 0, 77, 75
1, 262029, Control_c, 0, 64, 77
1, 262030, Note_on_c, 0, 63, 71
1, 262033, Note_on_c, 0, 71, 70
1, 262038, Note_on_c, 0, 66, 62
1, 262044, Control_c, 0, 64, 38
1, 262059, Control_c, 0, 64, 0
1, 262103, Control_c, 0, 64, 45
1, 262118, Control_c, 0, 64, 70
1, 262133, Control_c, 0, 64, 81
1, 262148, Control_c, 0, 64, 92
1, 262163, Control_c, 0, 64, 97
1, 262174, Note_off_c, 0, 85, 58
1, 262177, Control_c, 0, 64, 97
1, 262192, Control_c, 0, 64, 98
1, 262204, Note_off_c, 0, 63, 59
1, 262207, Control_c, 0, 64, 98
1, 262222, Control_c, 0, 64, 99
1, 262226, Note_off_c, 0, 74, 41
1, 262237, Control_c, 0, 64, 99
1, 262250, Note_off_c, 0, 77, 56
1, 262251, Control_c, 0, 64, 100
1, 262256, Note_off_c, 0, 66, 42
1, 262256, Note_off_c, 0, 78, 61
1, 262266, Control_c, 0, 64, 101
1, 262274, Note_off_c, 0, 71, 33
1, 262340, Control_c, 0, 64, 101
1, 262384, Control_c, 0, 64, 102
1, 262414, Control_c, 0, 64, 102
1, 262458, Control_c, 0, 64, 102
1, 262473, Control_c, 0, 64, 101
1, 262484, Note_on_c, 0, 83, 82
1, 262488, Control_c, 0, 64, 94
1, 262496, Note_on_c, 0, 76, 70
1, 262497, Note_on_c, 0, 78, 74
1, 262503, Note_on_c, 0, 73, 68
1, 262503, Control_c, 0, 64, 81
1, 262512, Note_on_c, 0, 62, 52
1, 262512, Note_on_c, 0, 71, 51
1, 262518, Control_c, 0, 64, 63
1, 262521, Note_on_c, 0, 65, 39
1, 262526, Note_on_c, 0, 67, 41
1, 262533, Control_c, 0, 64, 0
1, 262584, Control_c, 0, 64, 36
1, 262599, Control_c, 0, 64, 68
1, 262614, Control_c, 0, 64, 77
1, 262621, Note_off_c, 0, 62, 60
1, 262628, Control_c, 0, 64, 87
1, 262643, Control_c, 0, 64, 90
1, 262658, Control_c, 0, 64, 91
1, 262674, Control_c, 0, 64, 92
1, 262689, Control_c, 0, 64, 93
1, 262694, Note_off_c, 0, 76, 61
1, 262694, Note_off_c, 0, 78, 56
1, 262704, Control_c, 0, 64, 95
1, 262717, Note_off_c, 0, 83, 49
1, 262719, Control_c, 0, 64, 96
1, 262721, Note_off_c, 0, 67, 39
1, 262730, Note_off_c, 0, 71, 30
1, 262733, Control_c, 0, 64, 97
1, 262759, Note_off_c, 0, 65, 40
1, 262763, Control_c, 0, 64, 98
1, 262796, Note_off_c, 0, 73, 56
1, 262941, Note_on_c, 0, 68, 51
1, 262941, Control_c, 0, 64, 93
1, 262943, Note_on_c, 0, 61, 49
1, 262946, Note_on_c, 0, 71, 47
1, 262947, Note_on_c, 0, 64, 46
1, 262956, Control_c, 0, 64, 81
1, 262971, Control_c, 0, 64, 62
1, 262986, Control_c, 0, 64, 0
1, 263004, Note_on_c, 0, 78, 68
1, 263015, Note_on_c, 0, 72, 60
1, 263027, Note_on_c, 0, 75, 46
1, 263030, Control_c, 0, 64, 57
1, 263044, Control_c, 0, 64, 72
1, 263046, Note_off_c, 0, 72, 59
1, 263055, Note_off_c, 0, 75, 59
1, 263059, Control_c, 0, 64, 83
1, 263060, Note_off_c, 0, 78, 62
1, 263074, Control_c, 0, 64, 93
1, 263089, Control_c, 0, 64, 97
1, 263104, Control_c, 0, 64, 98
1, 263118, Control_c, 0, 64, 99
1, 263133, Control_c, 0, 64, 100
1, 263148, Control_c, 0, 64, 100
1, 263163, Control_c, 0, 64, 101
1, 263178, Control_c, 0, 64, 101
1, 263192, Control_c, 0, 64, 102
1, 263207, Control_c, 0, 64, 102
1, 263222, Control_c, 0, 64, 103
1, 263237, Control_c, 0, 64, 103
1, 263266, Control_c, 0, 64, 104
1, 263304, Control_c, 0, 64, 104
1, 263348, Control_c, 0, 64, 105
1, 263406, Note_on_c, 0, 90, 91
1, 263451, Note_off_c, 0, 90, 66
1, 263571, Control_c, 0, 64, 105
1, 263777, Note_off_c, 0, 71, 25
1, 263857, Note_off_c, 0, 61, 28
1, 263857, Note_off_c, 0, 68, 28
1, 263873, Note_off_c, 0, 64, 26
1, 265365, Control_c, 0, 64, 103
1, 265376, Note_on_c, 0, 90, 97
1, 265377, Note_on_c, 0, 83, 88
1, 265380, Note_on_c, 0, 76, 96
1, 265380, Note_on_c, 0, 64, 87
1, 265380, Control_c, 0, 64, 87
1, 265382, Note_on_c, 0, 61, 79
1, 265387, Note_on_c, 0, 54, 75
1, 265391, Note_on_c, 0, 56, 68
1, 265392, Note_on_c, 0, 59, 65
1, 265395, Control_c, 0, 64, 61
1, 265409, Control_c, 0, 64, 0
1, 265465, Note_off_c, 0, 76, 60
1, 265484, Control_c, 0, 64, 70
1, 265499, Control_c, 0, 64, 82
1, 265513, Control_c, 0, 64, 90
1, 265528, Control_c, 0, 64, 92
1, 265550, Control_c, 0, 64, 94
1, 265565, Control_c, 0, 64, 94
1, 265576, Note_off_c, 0, 83, 55
1, 265580, Control_c, 0, 64, 95
1, 265594, Control_c, 0, 64, 95
1, 265621, Note_off_c, 0, 61, 60
1, 265621, Note_off_c, 0, 90, 63
1, 265624, Control_c, 0, 64, 96
1, 265626, Note_off_c, 0, 56, 61
1, 265639, Control_c, 0, 64, 96
1, 265645, Note_off_c, 0, 64, 61
1, 265654, Control_c, 0, 64, 97
1, 265669, Control_c, 0, 64, 98
1, 265684, Control_c, 0, 64, 100
1, 265699, Control_c, 0, 64, 101
1, 265714, Control_c, 0, 64, 101
1, 265758, Control_c, 0, 64, 102
1, 265802, Note_on_c, 0, 92, 106
1, 265802, Control_c, 0, 64, 102
1, 265806, Note_on_c, 0, 85, 95
1, 265809, Note_on_c, 0, 78, 98
1, 265812, Note_on_c, 0, 66, 96
1, 265815, Note_off_c, 0, 59, 38
1, 265832, Control_c, 0, 64, 103
1, 265852, Note_off_c, 0, 78, 62
1, 265861, Control_c, 0, 64, 103
1, 265890, Note_off_c, 0, 85, 63
1, 265892, Control_c, 0, 64, 104
1, 265907, Control_c, 0, 64, 104
1, 265912, Note_off_c, 0, 92, 63
1, 265937, Control_c, 0, 64, 105
1, 265943, Note_off_c, 0, 66, 56
1, 266011, Control_c, 0, 64, 105
1, 266062, Note_off_c, 0, 54, 29
1, 266127, Note_on_c, 0, 95, 101
1, 266132, Note_on_c, 0, 82, 103
1, 266133, Note_on_c, 0, 88, 86
1, 266143, Note_on_c, 0, 68, 91
1, 266173, Note_off_c, 0, 82, 65
1, 266193, Note_off_c, 0, 95, 65
1, 266196, Note_off_c, 0, 88, 60
1, 266247, Control_c, 0, 64, 106
1, 266329, Note_off_c, 0, 68, 0
1, 266366, Poly_aftertouch_c, 0, 68, 127
1, 266378, Poly_aftertouch_c, 0, 90, 127
1, 266414, Poly_aftertouch_c, 0, 90, 0
1, 266420, Poly_aftertouch_c, 0, 68, 0
1, 266487, Note_on_c, 0, 97, 104
1, 266492, Note_on_c, 0, 90, 92
1, 266493, Note_on_c, 0, 83, 90
1, 266509, Note_on_c, 0, 70, 84
1, 266517, Note_off_c, 0, 83, 58
1, 266545, Note_off_c, 0, 97, 67
1, 266557, Note_off_c, 0, 90, 61
1, 266566, Note_off_c, 0, 70, 58
1, 266818, Control_c, 0, 64, 107
1, 266833, Control_c, 0, 64, 111
1, 266848, Control_c, 0, 64, 119
1, 266863, Control_c, 0, 64, 127
1, 266937, Control_c, 0, 64, 121
1, 266952, Control_c, 0, 64, 102
1, 266966, Control_c, 0, 64, 85
1, 266981, Control_c, 0, 64, 70
1, 266995, Note_on_c, 0, 94, 80
1, 266996, Control_c, 0, 64, 63
1, 266998, Note_on_c, 0, 85, 91
1, 266998, Note_on_c, 0, 99, 85
1, 267001, Note_on_c, 0, 63, 79
1, 267002, Note_on_c, 0, 66, 87
1, 267005, Note_on_c, 0, 54, 72
1, 267011, Control_c, 0, 64, 69
1, 267011, Note_on_c, 0, 59, 62
1, 267015, Note_on_c, 0, 100, 68
1, 267025, Control_c, 0, 64, 78
1, 267028, Note_on_c, 0, 56, 54
1, 267048, Control_c, 0, 64, 88
1, 267061, Note_on_c, 0, 98, 6
1, 267063, Control_c, 0, 64, 95
1, 267064, Note_off_c, 0, 85, 56
1, 267066, Note_off_c, 0, 100, 55
1, 267078, Control_c, 0, 64, 98
1, 267085, Note_off_c, 0, 99, 68
1, 267092, Control_c, 0, 64, 99
1, 267094, Note_off_c, 0, 98, 32
1, 267097, Note_off_c, 0, 66, 65
1, 267103, Note_off_c, 0, 94, 65
1, 267140, Note_off_c, 0, 54, 50
1, 267158, Note_on_c, 0, 100, 96
1, 267158, Note_off_c, 0, 56, 61
1, 267161, Note_on_c, 0, 87, 97
1, 267164, Note_off_c, 0, 59, 61
1, 267170, Note_on_c, 0, 97, 62
1, 267176, Note_on_c, 0, 68, 94
1, 267187, Note_off_c, 0, 97, 62
1, 267192, Note_off_c, 0, 63, 59
1, 267197, Note_off_c, 0, 87, 63
1, 267201, Note_off_c, 0, 100, 67
1, 267228, Note_off_c, 0, 68, 64
1, 267240, Control_c, 0, 64, 100
1, 267261, Note_on_c, 0, 97, 62
1, 267289, Note_off_c, 0, 97, 66
1, 267311, Note_on_c, 0, 97, 93
1, 267317, Note_on_c, 0, 102, 110
1, 267320, Note_on_c, 0, 89, 105
1, 267327, Note_on_c, 0, 74, 95
1, 267374, Note_on_c, 0, 91, 14
1, 267375, Note_off_c, 0, 91, 127
1, 267386, Note_off_c, 0, 97, 65
1, 267436, Note_on_c, 0, 96, 57
1, 267621, Note_off_c, 0, 89, 44
1, 267665, Note_off_c, 0, 102, 36
1, 267766, Note_off_c, 0, 96, 30
1, 267773, Note_off_c, 0, 74, 49
1, 269139, Control_c, 0, 64, 94
1, 269145, Note_on_c, 0, 107, 100
1, 269149, Note_on_c, 0, 100, 94
1, 269150, Note_on_c, 0, 94, 101
1, 269154, Control_c, 0, 64, 80
1, 269159, Note_on_c, 0, 64, 88
1, 269162, Note_on_c, 0, 61, 80
1, 269163, Note_on_c, 0, 54, 75
1, 269168, Control_c, 0, 64, 42
1, 269174, Note_on_c, 0, 56, 65
1, 269175, Note_on_c, 0, 59, 65
1, 269183, Control_c, 0, 64, 0
1, 269227, Note_off_c, 0, 107, 59
1, 269228, Control_c, 0, 64, 64
1, 269243, Control_c, 0, 64, 77
1, 269258, Control_c, 0, 64, 88
1, 269273, Control_c, 0, 64, 95
1, 269294, Control_c, 0, 64, 96
1, 269300, Note_off_c, 0, 100, 63
1, 269378, Note_off_c, 0, 64, 61
1, 269410, Note_off_c, 0, 61, 54
1, 269415, Note_off_c, 0, 56, 44
1, 269458, Control_c, 0, 64, 97
1, 269480, Note_off_c, 0, 94, 35
1, 269536, Note_off_c, 0, 59, 26
1, 269575, Note_on_c, 0, 106, 111
1, 269580, Note_on_c, 0, 92, 101
1, 269580, Note_on_c, 0, 99, 99
1, 269585, Note_on_c, 0, 66, 92
1, 269591, Control_c, 0, 64, 97
1, 269630, Note_off_c, 0, 106, 65
1, 269650, Control_c, 0, 64, 98
1, 269652, Note_off_c, 0, 92, 53
1, 269668, Note_off_c, 0, 99, 65
1, 269705, Note_off_c, 0, 54, 34
1, 269724, Control_c, 0, 64, 98
1, 269756, Note_off_c, 0, 66, 26
1, 269911, Note_on_c, 0, 104, 100
1, 269915, Note_on_c, 0, 97, 93
1, 269917, Note_on_c, 0, 90, 88
1, 269925, Note_on_c, 0, 68, 90
1, 269946, Note_off_c, 0, 90, 62
1, 269962, Control_c, 0, 64, 99
1, 269973, Note_off_c, 0, 97, 63
1, 269988, Note_off_c, 0, 104, 64
1, 270006, Control_c, 0, 64, 99
1, 270010, Note_off_c, 0, 68, 59
1, 270263, Note_on_c, 0, 107, 96
1, 270269, Note_on_c, 0, 100, 90
1, 270271, Note_on_c, 0, 94, 101
1, 270289, Note_on_c, 0, 70, 82
1, 270313, Note_off_c, 0, 94, 65
1, 270313, Note_off_c, 0, 107, 64
1, 270324, Note_off_c, 0, 100, 65
1, 270340, Note_off_c, 0, 70, 61
1, 270458, Control_c, 0, 64, 100
1, 270473, Control_c, 0, 64, 100
1, 270488, Control_c, 0, 64, 101
1, 270503, Control_c, 0, 64, 103
1, 270517, Control_c, 0, 64, 105
1, 270532, Control_c, 0, 64, 107
1, 270547, Control_c, 0, 64, 109
1, 270561, Control_c, 0, 64, 110
1, 270576, Control_c, 0, 64, 112
1, 270591, Control_c, 0, 64, 114
1, 270606, Control_c, 0, 64, 120
1, 270621, Control_c, 0, 64, 127
1, 270711, Control_c, 0, 64, 123
1, 270726, Control_c, 0, 64, 101
1, 270741, Control_c, 0, 64, 83
1, 270751, Note_on_c, 0, 102, 97
1, 270753, Note_on_c, 0, 97, 84
1, 270754, Note_on_c, 0, 88, 90
1, 270756, Control_c, 0, 64, 65
1, 270758, Note_on_c, 0, 66, 89
1, 270762, Note_on_c, 0, 63, 71
1, 270766, Note_on_c, 0, 54, 66
1, 270771, Note_on_c, 0, 59, 62
1, 270771, Control_c, 0, 64, 49
1, 270778, Note_on_c, 0, 56, 59
1, 270793, Control_c, 0, 64, 65
1, 270808, Control_c, 0, 64, 75
1, 270811, Note_off_c, 0, 102, 66
1, 270823, Control_c, 0, 64, 85
1, 270829, Note_off_c, 0, 97, 66
1, 270838, Control_c, 0, 64, 93
1, 270843, Note_off_c, 0, 88, 62
1, 270850, Poly_aftertouch_c, 0, 99, 0
1, 270853, Control_c, 0, 64, 97
1, 270865, Note_off_c, 0, 66, 65
1, 270868, Control_c, 0, 64, 98
1, 270882, Control_c, 0, 64, 99
1, 270912, Control_c, 0, 64, 100
1, 270923, Note_off_c, 0, 54, 56
1, 270927, Note_on_c, 0, 100, 96
1, 270929, Note_on_c, 0, 87, 98
1, 270939, Note_off_c, 0, 59, 59
1, 270942, Control_c, 0, 64, 100
1, 270945, Note_on_c, 0, 68, 93
1, 270951, Note_on_c, 0, 97, 52
1, 270957, Control_c, 0, 64, 101
1, 270962, Note_off_c, 0, 63, 63
1, 270963, Note_off_c, 0, 56, 41
1, 270966, Note_off_c, 0, 87, 62
1, 270970, Note_off_c, 0, 100, 64
1, 270972, Control_c, 0, 64, 101
1, 270974, Note_off_c, 0, 97, 51
1, 270987, Control_c, 0, 64, 102
1, 270996, Note_off_c, 0, 68, 64
1, 271002, Control_c, 0, 64, 102
1, 271016, Control_c, 0, 64, 103
1, 271082, Note_on_c, 0, 96, 52
1, 271090, Control_c, 0, 64, 103
1, 271092, Note_on_c, 0, 102, 107
1, 271095, Note_on_c, 0, 89, 102
1, 271100, Note_on_c, 0, 74, 99
1, 271105, Control_c, 0, 64, 107
1, 271120, Control_c, 0, 64, 121
1, 271122, Note_on_c, 0, 99, 50
1, 271134, Control_c, 0, 64, 127
1, 271148, Note_off_c, 0, 99, 37
1, 271324, Note_off_c, 0, 102, 51
1, 271405, Note_off_c, 0, 89, 46
1, 271434, Note_off_c, 0, 96, 51
1, 271501, Note_off_c, 0, 74, 48
1, 273008, Note_on_c, 0, 97, 101
1, 273012, Note_on_c, 0, 92, 92
1, 273014, Note_on_c, 0, 83, 93
1, 273017, Control_c, 0, 64, 108
1, 273019, Note_on_c, 0, 64, 88
1, 273021, Note_on_c, 0, 54, 78
1, 273036, Note_on_c, 0, 61, 72
1, 273038, Control_c, 0, 64, 89
1, 273040, Note_on_c, 0, 56, 68
1, 273042, Note_on_c, 0, 59, 64
1, 273053, Control_c, 0, 64, 70
1, 273069, Control_c, 0, 64, 27
1, 273076, Note_off_c, 0, 83, 53
1, 273084, Control_c, 0, 64, 62
1, 273099, Control_c, 0, 64, 72
1, 273114, Control_c, 0, 64, 83
1, 273129, Control_c, 0, 64, 95
1, 273143, Control_c, 0, 64, 102
1, 273158, Control_c, 0, 64, 106
1, 273173, Note_off_c, 0, 92, 63
1, 273173, Control_c, 0, 64, 107
1, 273203, Control_c, 0, 64, 107
1, 273208, Note_off_c, 0, 97, 63
1, 273244, Note_off_c, 0, 64, 60
1, 273285, Note_off_c, 0, 56, 49
1, 273321, Control_c, 0, 64, 108
1, 273395, Control_c, 0, 64, 108
1, 273410, Note_off_c, 0, 61, 55
1, 273417, Note_on_c, 0, 100, 101
1, 273421, Note_on_c, 0, 87, 103
1, 273421, Note_on_c, 0, 95, 96
1, 273424, Note_on_c, 0, 66, 102
1, 273443, Note_off_c, 0, 59, 61
1, 273454, Control_c, 0, 64, 109
1, 273469, Control_c, 0, 64, 109
1, 273482, Note_off_c, 0, 100, 62
1, 273499, Control_c, 0, 64, 110
1, 273514, Control_c, 0, 64, 110
1, 273525, Note_off_c, 0, 95, 62
1, 273529, Control_c, 0, 64, 111
1, 273558, Control_c, 0, 64, 111
1, 273596, Note_off_c, 0, 87, 58
1, 273602, Note_off_c, 0, 54, 39
1, 273693, Note_off_c, 0, 66, 59
1, 273806, Note_on_c, 0, 99, 103
1, 273807, Note_on_c, 0, 85, 105
1, 273807, Note_on_c, 0, 94, 97
1, 273808, Note_on_c, 0, 68, 91
1, 273818, Control_c, 0, 64, 112
1, 273843, Note_on_c, 0, 97, 38
1, 273865, Note_off_c, 0, 99, 68
1, 273873, Note_off_c, 0, 97, 43
1, 273877, Note_off_c, 0, 94, 64
1, 273894, Note_off_c, 0, 85, 62
1, 273924, Note_off_c, 0, 68, 0
1, 273961, Poly_aftertouch_c, 0, 68, 127
1, 274071, Control_c, 0, 64, 112
1, 274117, Poly_aftertouch_c, 0, 68, 0
1, 274182, Note_on_c, 0, 97, 96
1, 274184, Note_on_c, 0, 92, 92
1, 274188, Note_on_c, 0, 83, 92
1, 274201, Note_on_c, 0, 70, 85
1, 274212, Note_on_c, 0, 94, 48
1, 274241, Note_off_c, 0, 94, 36
1, 274246, Note_off_c, 0, 97, 66
1, 274260, Note_off_c, 0, 70, 58
1, 274262, Note_off_c, 0, 83, 54
1, 274263, Control_c, 0, 64, 113
1, 274275, Note_off_c, 0, 92, 67
1, 274484, Control_c, 0, 64, 113
1, 274499, Control_c, 0, 64, 114
1, 274514, Control_c, 0, 64, 115
1, 274537, Control_c, 0, 64, 115
1, 274581, Control_c, 0, 64, 115
1, 274596, Control_c, 0, 64, 103
1, 274609, Note_on_c, 0, 95, 97
1, 274610, Control_c, 0, 64, 88
1, 274612, Note_on_c, 0, 82, 100
1, 274621, Note_on_c, 0, 66, 101
1, 274625, Control_c, 0, 64, 74
1, 274626, Note_on_c, 0, 63, 78
1, 274626, Note_on_c, 0, 90, 73
1, 274632, Note_on_c, 0, 54, 76
1, 274637, Note_on_c, 0, 59, 66
1, 274640, Control_c, 0, 64, 66
1, 274641, Note_off_c, 0, 90, 68
1, 274647, Note_on_c, 0, 56, 61
1, 274656, Note_off_c, 0, 95, 65
1, 274656, Control_c, 0, 64, 70
1, 274671, Control_c, 0, 64, 78
1, 274686, Control_c, 0, 64, 91
1, 274695, Note_off_c, 0, 82, 60
1, 274701, Control_c, 0, 64, 99
1, 274715, Control_c, 0, 64, 104
1, 274729, Note_off_c, 0, 66, 62
1, 274730, Control_c, 0, 64, 106
1, 274829, Note_off_c, 0, 54, 48
1, 274829, Note_on_c, 0, 92, 99
1, 274832, Note_on_c, 0, 79, 95
1, 274832, Note_on_c, 0, 86, 89
1, 274841, Note_on_c, 0, 68, 97
1, 274850, Note_off_c, 0, 59, 51
1, 274862, Note_off_c, 0, 63, 63
1, 274868, Note_off_c, 0, 56, 56
1, 274898, Note_off_c, 0, 68, 62
1, 274912, Note_off_c, 0, 79, 60
1, 274922, Note_off_c, 0, 92, 61
1, 274937, Control_c, 0, 64, 106
1, 274967, Control_c, 0, 64, 107
1, 275025, Note_off_c, 0, 86, 61
1, 275077, Note_on_c, 0, 90, 110
1, 275078, Note_on_c, 0, 84, 91
1, 275081, Note_on_c, 0, 77, 106
1, 275088, Note_on_c, 0, 74, 96
1, 275201, Note_off_c, 0, 77, 50
1, 275219, Note_off_c, 0, 90, 54
1, 275265, Note_off_c, 0, 74, 55
1, 275291, Note_off_c, 0, 84, 56
1, 276975, Control_c, 0, 64, 101
1, 276990, Control_c, 0, 64, 84
1, 277003, Note_on_c, 0, 85, 92
1, 277004, Control_c, 0, 64, 64
1, 277007, Note_on_c, 0, 76, 82
1, 277008, Note_on_c, 0, 80, 88
1, 277013, Note_on_c, 0, 64, 69
1, 277019, Control_c, 0, 64, 0
1, 277028, Note_on_c, 0, 54, 50
1, 277035, Note_on_c, 0, 56, 51
1, 277035, Note_on_c, 0, 61, 49
1, 277039, Note_on_c, 0, 59, 48
1, 277065, Control_c, 0, 64, 51
1, 277080, Control_c, 0, 64, 71
1, 277095, Control_c, 0, 64, 80
1, 277109, Control_c, 0, 64, 87
1, 277124, Control_c, 0, 64, 89
1, 277139, Control_c, 0, 64, 90
1, 277154, Control_c, 0, 64, 91
1, 277169, Control_c, 0, 64, 92
1, 277182, Note_off_c, 0, 80, 60
1, 277183, Control_c, 0, 64, 92
1, 277198, Control_c, 0, 64, 93
1, 277213, Control_c, 0, 64, 93
1, 277227, Control_c, 0, 64, 94
1, 277242, Control_c, 0, 64, 95
1, 277257, Control_c, 0, 64, 95
1, 277272, Control_c, 0, 64, 96
1, 277287, Control_c, 0, 64, 96
1, 277291, Note_off_c, 0, 76, 51
1, 277301, Control_c, 0, 64, 97
1, 277304, Note_off_c, 0, 64, 57
1, 277305, Note_off_c, 0, 85, 38
1, 277316, Control_c, 0, 64, 97
1, 277331, Control_c, 0, 64, 98
1, 277342, Note_off_c, 0, 56, 39
1, 277361, Control_c, 0, 64, 98
1, 277387, Note_off_c, 0, 61, 24
1, 277390, Control_c, 0, 64, 99
1, 277434, Control_c, 0, 64, 99
1, 277480, Control_c, 0, 64, 100
1, 277532, Control_c, 0, 64, 100
1, 277611, Note_on_c, 0, 88, 99
1, 277617, Note_on_c, 0, 83, 89
1, 277621, Note_on_c, 0, 79, 88
1, 277630, Note_on_c, 0, 66, 80
1, 277665, Control_c, 0, 64, 101
1, 277695, Note_off_c, 0, 59, 34
1, 277783, Control_c, 0, 64, 101
1, 277816, Note_off_c, 0, 83, 50
1, 277858, Control_c, 0, 64, 102
1, 277879, Note_off_c, 0, 88, 54
1, 277897, Note_off_c, 0, 54, 25
1, 277914, Note_off_c, 0, 66, 53
1, 277918, Control_c, 0, 64, 102
1, 278037, Control_c, 0, 64, 103
1, 278040, Note_off_c, 0, 79, 51
1, 278192, Note_on_c, 0, 86, 103
1, 278201, Note_on_c, 0, 81, 88
1, 278205, Note_on_c, 0, 77, 84
1, 278212, Note_on_c, 0, 68, 71
1, 278258, Control_c, 0, 64, 103
1, 278397, Note_off_c, 0, 81, 48
1, 278399, Control_c, 0, 64, 104
1, 278445, Note_off_c, 0, 86, 56
1, 278473, Control_c, 0, 64, 104
1, 278621, Control_c, 0, 64, 105
1, 278625, Note_off_c, 0, 68, 39
1, 278684, Note_off_c, 0, 77, 42
1, 278770, Control_c, 0, 64, 105
1, 278883, Note_on_c, 0, 84, 97
1, 278889, Note_on_c, 0, 76, 89
1, 278891, Note_on_c, 0, 79, 76
1, 278893, Note_on_c, 0, 69, 69
1, 278991, Note_off_c, 0, 69, 44
1, 278991, Control_c, 0, 64, 106
1, 279103, Control_c, 0, 64, 106
1, 279122, Note_off_c, 0, 84, 47
1, 279145, Note_off_c, 0, 76, 56
1, 279197, Note_off_c, 0, 79, 36
1, 279221, Control_c, 0, 64, 107
1, 279310, Control_c, 0, 64, 107
1, 279399, Control_c, 0, 64, 108
1, 279821, Note_on_c, 0, 83, 91
1, 279824, Note_on_c, 0, 70, 89
1, 279828, Note_on_c, 0, 75, 81
1, 279828, Note_on_c, 0, 78, 86
1, 279834, Note_on_c, 0, 66, 81
1, 279843, Note_on_c, 0, 63, 66
1, 279845, Note_on_c, 0, 54, 60
1, 279855, Note_on_c, 0, 56, 58
1, 279855, Note_on_c, 0, 59, 57
1, 279867, Control_c, 0, 64, 107
1, 279882, Control_c, 0, 64, 107
1, 279896, Control_c, 0, 64, 104
1, 279911, Control_c, 0, 64, 99
1, 279926, Control_c, 0, 64, 91
1, 279941, Control_c, 0, 64, 82
1, 279955, Control_c, 0, 64, 69
1, 279970, Control_c, 0, 64, 0
1, 280475, Control_c, 0, 64, 32
1, 280490, Control_c, 0, 64, 51
1, 280505, Control_c, 0, 64, 55
1, 280527, Control_c, 0, 64, 56
1, 280586, Control_c, 0, 67, 8
1, 280601, Control_c, 0, 64, 55
1, 280601, Control_c, 0, 67, 9
1, 280616, Control_c, 0, 67, 11
1, 280631, Control_c, 0, 64, 56
1, 280631, Control_c, 0, 67, 13
1, 280645, Control_c, 0, 64, 56
1, 280645, Control_c, 0, 67, 15
1, 280660, Control_c, 0, 64, 57
1, 280660, Control_c, 0, 67, 18
1, 280675, Control_c, 0, 64, 59
1, 280675, Control_c, 0, 67, 21
1, 280690, Control_c, 0, 64, 60
1, 280690, Control_c, 0, 67, 23
1, 280705, Control_c, 0, 64, 62
1, 280705, Control_c, 0, 67, 25
1, 280719, Control_c, 0, 64, 64
1, 280719, Control_c, 0, 67, 27
1, 280734, Control_c, 0, 64, 66
1, 280734, Control_c, 0, 67, 29
1, 280749, Control_c, 0, 64, 67
1, 280749, Control_c, 0, 67, 31
1, 280764, Control_c, 0, 64, 69
1, 280764, Control_c, 0, 67, 34
1, 280779, Control_c, 0, 64, 72
1, 280779, Control_c, 0, 67, 37
1, 280794, Control_c, 0, 64, 74
1, 280794, Control_c, 0, 67, 39
1, 280809, Control_c, 0, 64, 77
1, 280809, Control_c, 0, 67, 41
1, 280824, Control_c, 0, 64, 79
1, 280824, Control_c, 0, 67, 43
1, 280839, Control_c, 0, 64, 80
1, 280839, Control_c, 0, 67, 44
1, 280853, Control_c, 0, 64, 81
1, 280853, Control_c, 0, 67, 44
1, 280868, Control_c, 0, 67, 45
1, 280883, Control_c, 0, 64, 81
1, 280913, Control_c, 0, 64, 82
1, 280927, Control_c, 0, 64, 82
1, 280927, Control_c, 0, 67, 46
1, 280942, Control_c, 0, 64, 83
1, 280957, Control_c, 0, 64, 83
1, 280957, Control_c, 0, 67, 46
1, 280966, Note_off_c, 0, 59, 35
1, 280976, Note_off_c, 0, 78, 30
1, 280985, Note_off_c, 0, 63, 29
1, 280986, Control_c, 0, 64, 84
1, 280986, Control_c, 0, 67, 47
1, 281001, Control_c, 0, 67, 49
1, 281016, Control_c, 0, 64, 84
1, 281016, Control_c, 0, 67, 51
1, 281031, Control_c, 0, 67, 53
1, 281038, Note_off_c, 0, 66, 25
1, 281047, Control_c, 0, 64, 85
1, 281047, Control_c, 0, 67, 57
1, 281059, Note_off_c, 0, 56, 32
1, 281061, Note_off_c, 0, 75, 26
1, 281062, Control_c, 0, 67, 61
1, 281076, Control_c, 0, 64, 85
1, 281076, Control_c, 0, 67, 67
1, 281077, Note_off_c, 0, 83, 25
1, 281085, Note_off_c, 0, 70, 25
1, 281091, Control_c, 0, 67, 74
1, 281106, Control_c, 0, 67, 80
1, 281121, Control_c, 0, 67, 84
1, 281136, Control_c, 0, 67, 88
1, 281148, Note_off_c, 0, 54, 30
1, 281150, Control_c, 0, 67, 91
1, 281165, Control_c, 0, 67, 93
1, 281180, Control_c, 0, 67, 94
1, 281194, Control_c, 0, 67, 97
1, 281209, Control_c, 0, 67, 99
1, 281224, Control_c, 0, 67, 101
1, 281239, Control_c, 0, 67, 102
1, 281254, Control_c, 0, 67, 103
1, 281276, Control_c, 0, 67, 104
1, 281291, Control_c, 0, 67, 104
1, 281350, Control_c, 0, 67, 105
1, 281587, Control_c, 0, 64, 85
1, 281632, Control_c, 0, 64, 84
1, 281676, Control_c, 0, 64, 84
1, 281720, Control_c, 0, 64, 83
1, 281765, Control_c, 0, 64, 83
1, 281794, Control_c, 0, 64, 82
1, 281809, Control_c, 0, 64, 82
1, 281824, Control_c, 0, 64, 81
1, 281840, Control_c, 0, 64, 79
1, 281855, Control_c, 0, 64, 75
1, 281870, Control_c, 0, 64, 65
1, 281885, Control_c, 0, 64, 0
1, 282292, Control_c, 0, 67, 104
1, 282306, Control_c, 0, 67, 103
1, 282321, Control_c, 0, 64, 44
1, 282321, Control_c, 0, 67, 101
1, 282336, Control_c, 0, 64, 70
1, 282336, Control_c, 0, 67, 100
1, 282350, Control_c, 0, 64, 77
1, 282350, Control_c, 0, 67, 99
1, 282352, Note_on_c, 0, 63, 75
1, 282358, Note_on_c, 0, 54, 51
1, 282362, Note_on_c, 0, 59, 50
1, 282365, Control_c, 0, 64, 81
1, 282365, Control_c, 0, 67, 98
1, 282380, Control_c, 0, 64, 82
1, 282380, Control_c, 0, 67, 97
1, 282393, Note_off_c, 0, 63, 57
1, 282395, Control_c, 0, 67, 97
1, 282401, Note_off_c, 0, 54, 57
1, 282410, Control_c, 0, 67, 96
1, 282424, Control_c, 0, 67, 96
1, 282427, Note_off_c, 0, 59, 43
1, 282529, Control_c, 0, 67, 95
1, 282543, Control_c, 0, 67, 95
1, 282558, Control_c, 0, 67, 94
1, 282573, Control_c, 0, 67, 94
1, 282588, Control_c, 0, 64, 81
1, 282588, Control_c, 0, 67, 92
1, 282603, Control_c, 0, 64, 76
1, 282603, Control_c, 0, 67, 87
1, 282617, Control_c, 0, 64, 66
1, 282617, Control_c, 0, 67, 81
1, 282632, Control_c, 0, 64, 0
1, 282632, Control_c, 0, 67, 73
1, 282648, Control_c, 0, 67, 65
1, 282655, Note_on_c, 0, 63, 73
1, 282660, Note_on_c, 0, 57, 60
1, 282663, Control_c, 0, 67, 57
1, 282665, Note_on_c, 0, 62, 64
1, 282678, Control_c, 0, 67, 48
1, 282693, Control_c, 0, 67, 37
1, 282697, Note_off_c, 0, 63, 62
1, 282698, Note_off_c, 0, 62, 61
1, 282703, Note_off_c, 0, 57, 58
1, 282708, Control_c, 0, 67, 27
1, 282722, Control_c, 0, 67, 22
1, 282737, Control_c, 0, 67, 22
1, 282788, Control_c, 0, 67, 21
1, 282818, Control_c, 0, 67, 20
1, 282821, Note_on_c, 0, 63, 62
1, 282824, Note_on_c, 0, 51, 54
1, 282826, Note_on_c, 0, 60, 54
1, 282830, Note_on_c, 0, 56, 48
1, 282848, Control_c, 0, 67, 20
1, 282856, Note_off_c, 0, 63, 64
1, 282859, Note_off_c, 0, 60, 64
1, 282860, Note_off_c, 0, 56, 63
1, 282868, Note_off_c, 0, 51, 59
1, 282892, Control_c, 0, 67, 19
1, 282907, Control_c, 0, 67, 19
1, 282922, Control_c, 0, 67, 18
1, 282937, Control_c, 0, 67, 17
1, 282952, Control_c, 0, 67, 17
1, 282964, Note_on_c, 0, 63, 78
1, 282967, Control_c, 0, 67, 16
1, 282980, Note_on_c, 0, 59, 57
1, 282982, Note_on_c, 0, 54, 52
1, 282996, Control_c, 0, 67, 15
1, 283007, Note_off_c, 0, 59, 64
1, 283011, Control_c, 0, 67, 15
1, 283015, Note_off_c, 0, 63, 65
1, 283021, Note_off_c, 0, 54, 63
1, 283026, Control_c, 0, 67, 14
1, 283041, Control_c, 0, 67, 12
1, 283055, Control_c, 0, 67, 10
1, 283070, Control_c, 0, 67, 0
1, 283122, Note_on_c, 0, 57, 58
1, 283124, Note_on_c, 0, 62, 65
1, 283125, Note_on_c, 0, 63, 68
1, 283137, Note_on_c, 0, 52, 46
1, 283155, Note_off_c, 0, 57, 63
1, 283158, Note_off_c, 0, 63, 63
1, 283158, Note_off_c, 0, 62, 60
1, 283167, Note_off_c, 0, 52, 65
1, 283268, Note_on_c, 0, 63, 72
1, 283269, Note_on_c, 0, 51, 49
1, 283271, Note_on_c, 0, 56, 56
1, 283272, Note_on_c, 0, 60, 67
1, 283308, Note_off_c, 0, 56, 60
1, 283310, Note_off_c, 0, 60, 59
1, 283313, Note_off_c, 0, 51, 59
1, 283322, Note_off_c, 0, 63, 61
1, 283396, Control_c, 0, 64, 46
1, 283411, Control_c, 0, 64, 87
1, 283417, Note_on_c, 0, 66, 80
1, 283421, Note_on_c, 0, 63, 76
1, 283425, Note_on_c, 0, 59, 65
1, 283426, Note_on_c, 0, 54, 55
1, 283426, Control_c, 0, 64, 127
1, 283447, Note_off_c, 0, 63, 68
1, 283450, Note_off_c, 0, 54, 57
1, 283454, Note_off_c, 0, 59, 65
1, 283468, Note_off_c, 0, 66, 66
1, 283674, Note_on_c, 0, 80, 65
1, 283676, Note_on_c, 0, 78, 56
1, 283704, Note_on_c, 0, 83, 68
1, 283706, Note_on_c, 0, 81, 46
1, 283721, Note_on_c, 0, 86, 80
1, 283732, Note_off_c, 0, 81, 56
1, 283733, Note_off_c, 0, 78, 39
1, 283736, Note_on_c, 0, 87, 82
1, 283741, Note_off_c, 0, 86, 70
1, 283749, Note_on_c, 0, 89, 74
1, 283757, Note_on_c, 0, 84, 81
1, 283775, Note_off_c, 0, 83, 44
1, 283775, Note_off_c, 0, 84, 74
1, 283776, Note_on_c, 0, 90, 98
1, 283782, Note_off_c, 0, 80, 65
1, 283786, Note_off_c, 0, 87, 65
1, 283799, Note_off_c, 0, 89, 67
1, 283809, Note_off_c, 0, 90, 67
1, 283846, Poly_aftertouch_c, 0, 78, 0
1, 284057, Control_c, 0, 64, 119
1, 284071, Control_c, 0, 64, 98
1, 284086, Control_c, 0, 64, 81
1, 284101, Control_c, 0, 64, 67
1, 284112, Note_on_c, 0, 63, 89
1, 284114, Note_on_c, 0, 54, 50
1, 284115, Control_c, 0, 64, 55
1, 284116, Note_on_c, 0, 59, 53
1, 284130, Control_c, 0, 64, 64
1, 284145, Control_c, 0, 64, 69
1, 284160, Control_c, 0, 64, 76
1, 284175, Control_c, 0, 64, 84
1, 284189, Control_c, 0, 64, 90
1, 284204, Control_c, 0, 64, 94
1, 284219, Control_c, 0, 64, 98
1, 284235, Control_c, 0, 64, 102
1, 284250, Control_c, 0, 64, 105
1, 284273, Control_c, 0, 64, 107
1, 284275, Note_off_c, 0, 63, 64
1, 284288, Control_c, 0, 64, 108
1, 284302, Control_c, 0, 64, 108
1, 284306, Note_off_c, 0, 59, 58
1, 284327, Note_off_c, 0, 54, 53
1, 284391, Control_c, 0, 64, 105
1, 284406, Control_c, 0, 64, 96
1, 284420, Control_c, 0, 64, 82
1, 284428, Note_on_c, 0, 62, 74
1, 284431, Note_on_c, 0, 63, 70
1, 284435, Control_c, 0, 64, 59
1, 284441, Note_on_c, 0, 57, 49
1, 284450, Control_c, 0, 64, 0
1, 284459, Note_off_c, 0, 62, 61
1, 284461, Note_off_c, 0, 63, 60
1, 284471, Note_off_c, 0, 57, 54
1, 284582, Note_on_c, 0, 51, 55
1, 284583, Note_on_c, 0, 63, 70
1, 284585, Note_on_c, 0, 60, 64
1, 284586, Note_on_c, 0, 56, 58
1, 284614, Note_off_c, 0, 60, 66
1, 284614, Note_off_c, 0, 63, 64
1, 284618, Note_off_c, 0, 56, 64
1, 284626, Note_off_c, 0, 51, 59
1, 284724, Note_on_c, 0, 63, 82
1, 284738, Note_on_c, 0, 54, 58
1, 284738, Note_on_c, 0, 59, 62
1, 284772, Note_off_c, 0, 59, 63
1, 284773, Note_off_c, 0, 63, 65
1, 284778, Note_off_c, 0, 54, 61
1, 284882, Note_on_c, 0, 63, 73
1, 284885, Note_on_c, 0, 57, 55
1, 284891, Note_on_c, 0, 62, 63
1, 284915, Note_on_c, 0, 52, 29
1, 284921, Note_off_c, 0, 57, 62
1, 284921, Note_off_c, 0, 62, 64
1, 284923, Note_off_c, 0, 63, 64
1, 284940, Note_off_c, 0, 52, 50
1, 285040, Note_on_c, 0, 51, 45
1, 285047, Note_on_c, 0, 63, 75
1, 285048, Note_on_c, 0, 56, 50
1, 285056, Note_on_c, 0, 60, 63
1, 285085, Note_off_c, 0, 60, 64
1, 285086, Note_off_c, 0, 56, 62
1, 285097, Note_off_c, 0, 51, 60
1, 285106, Note_off_c, 0, 63, 61
1, 285200, Note_on_c, 0, 66, 78
1, 285202, Note_on_c, 0, 63, 78
1, 285206, Note_on_c, 0, 54, 60
1, 285207, Note_on_c, 0, 59, 61
1, 285214, Control_c, 0, 64, 67
1, 285226, Note_off_c, 0, 63, 69
1, 285229, Note_off_c, 0, 54, 63
1, 285229, Control_c, 0, 64, 125
1, 285238, Note_off_c, 0, 59, 64
1, 285243, Control_c, 0, 64, 127
1, 285249, Note_off_c, 0, 66, 67
1, 285420, Note_on_c, 0, 80, 67
1, 285431, Note_on_c, 0, 78, 49
1, 285435, Note_on_c, 0, 81, 60
1, 285446, Note_on_c, 0, 83, 64
1, 285446, Note_on_c, 0, 86, 82
1, 285459, Note_on_c, 0, 87, 83
1, 285467, Note_off_c, 0, 86, 69
1, 285473, Note_on_c, 0, 89, 73
1, 285474, Note_off_c, 0, 81, 58
1, 285479, Note_off_c, 0, 78, 42
1, 285495, Note_on_c, 0, 84, 85
1, 285497, Note_on_c, 0, 90, 102
1, 285511, Note_off_c, 0, 84, 73
1, 285514, Note_off_c, 0, 87, 66
1, 285519, Note_off_c, 0, 80, 63
1, 285523, Note_off_c, 0, 83, 59
1, 285525, Note_off_c, 0, 89, 66
1, 285534, Note_off_c, 0, 90, 68
1, 285784, Control_c, 0, 64, 101
1, 285799, Control_c, 0, 64, 81
1, 285814, Control_c, 0, 64, 62
1, 285826, Note_on_c, 0, 59, 60
1, 285826, Note_on_c, 0, 63, 86
1, 285829, Control_c, 0, 64, 0
1, 285830, Note_on_c, 0, 54, 50
1, 285844, Control_c, 0, 64, 60
1, 285859, Control_c, 0, 64, 68
1, 285873, Control_c, 0, 64, 75
1, 285888, Control_c, 0, 64, 84
1, 285903, Control_c, 0, 64, 92
1, 285918, Control_c, 0, 64, 104
1, 285933, Control_c, 0, 64, 126
1, 285948, Control_c, 0, 64, 127
1, 286005, Note_off_c, 0, 59, 60
1, 286010, Note_off_c, 0, 63, 66
1, 286055, Note_off_c, 0, 54, 59
1, 286081, Control_c, 0, 64, 107
1, 286096, Control_c, 0, 64, 93
1, 286111, Control_c, 0, 64, 78
1, 286123, Note_on_c, 0, 57, 64
1, 286126, Control_c, 0, 64, 62
1, 286129, Note_on_c, 0, 63, 79
1, 286133, Note_on_c, 0, 62, 76
1, 286136, Note_on_c, 0, 52, 54
1, 286140, Control_c, 0, 64, 0
1, 286161, Note_off_c, 0, 62, 63
1, 286162, Note_off_c, 0, 57, 58
1, 286168, Note_off_c, 0, 63, 65
1, 286170, Note_off_c, 0, 52, 65
1, 286280, Note_on_c, 0, 51, 54
1, 286284, Note_on_c, 0, 56, 57
1, 286285, Note_on_c, 0, 63, 80
1, 286291, Note_on_c, 0, 60, 70
1, 286321, Note_off_c, 0, 60, 63
1, 286321, Note_off_c, 0, 56, 61
1, 286322, Note_off_c, 0, 63, 64
1, 286325, Note_off_c, 0, 51, 59
1, 286437, Note_on_c, 0, 63, 83
1, 286440, Note_on_c, 0, 59, 64
1, 286447, Note_on_c, 0, 54, 50
1, 286470, Note_off_c, 0, 59, 62
1, 286487, Note_off_c, 0, 54, 60
1, 286488, Note_off_c, 0, 63, 65
1, 286591, Note_on_c, 0, 57, 62
1, 286598, Note_on_c, 0, 63, 77
1, 286607, Note_on_c, 0, 62, 69
1, 286619, Note_on_c, 0, 52, 36
1, 286634, Note_off_c, 0, 57, 57
1, 286639, Note_off_c, 0, 62, 62
1, 286639, Note_off_c, 0, 63, 65
1, 286654, Note_off_c, 0, 52, 59
1, 286747, Note_on_c, 0, 63, 78
1, 286753, Note_on_c, 0, 56, 60
1, 286759, Note_on_c, 0, 60, 67
1, 286774, Note_on_c, 0, 51, 33
1, 286786, Note_off_c, 0, 56, 63
1, 286791, Note_off_c, 0, 60, 63
1, 286796, Note_off_c, 0, 63, 63
1, 286805, Note_off_c, 0, 51, 53
1, 286908, Note_on_c, 0, 54, 70
1, 286911, Note_on_c, 0, 58, 72
1, 286911, Note_on_c, 0, 61, 81
1, 286915, Note_on_c, 0, 49, 57
1, 286931, Note_off_c, 0, 58, 67
1, 286932, Control_c, 0, 64, 102
1, 286947, Note_off_c, 0, 49, 62
1, 286947, Control_c, 0, 64, 127
1, 286949, Note_off_c, 0, 61, 64
1, 286958, Note_off_c, 0, 54, 60
1, 287006, Poly_aftertouch_c, 0, 52, 0
1, 287137, Note_on_c, 0, 78, 74
1, 287179, Note_on_c, 0, 84, 73
1, 287181, Note_on_c, 0, 81, 61
1, 287196, Note_on_c, 0, 79, 26
1, 287197, Note_on_c, 0, 85, 75
1, 287197, Note_on_c, 0, 87, 77
1, 287202, Note_off_c, 0, 84, 71
1, 287220, Note_on_c, 0, 82, 94
1, 287221, Note_on_c, 0, 89, 78
1, 287224, Note_on_c, 0, 90, 101
1, 287239, Note_off_c, 0, 81, 63
1, 287239, Note_off_c, 0, 82, 68
1, 287241, Note_off_c, 0, 79, 63
1, 287244, Note_off_c, 0, 85, 65
1, 287249, Note_off_c, 0, 78, 49
1, 287260, Note_off_c, 0, 87, 67
1, 287268, Note_off_c, 0, 89, 67
1, 287274, Note_off_c, 0, 90, 68
1, 287519, Control_c, 0, 64, 110
1, 287534, Control_c, 0, 64, 92
1, 287549, Control_c, 0, 64, 75
1, 287562, Note_on_c, 0, 57, 71
1, 287563, Control_c, 0, 64, 46
1, 287569, Note_on_c, 0, 61, 94
1, 287570, Note_on_c, 0, 52, 65
1, 287578, Control_c, 0, 64, 0
1, 287593, Control_c, 0, 64, 43
1, 287608, Control_c, 0, 64, 67
1, 287623, Control_c, 0, 64, 74
1, 287637, Control_c, 0, 64, 81
1, 287652, Control_c, 0, 64, 83
1, 287667, Control_c, 0, 64, 84
1, 287682, Control_c, 0, 64, 85
1, 287697, Control_c, 0, 64, 85
1, 287741, Control_c, 0, 64, 86
1, 287759, Note_off_c, 0, 61, 63
1, 287772, Note_off_c, 0, 57, 59
1, 287801, Note_off_c, 0, 52, 63
1, 287859, Control_c, 0, 64, 85
1, 287874, Control_c, 0, 64, 84
1, 287889, Control_c, 0, 64, 79
1, 287895, Note_on_c, 0, 60, 84
1, 287896, Note_on_c, 0, 61, 80
1, 287901, Note_on_c, 0, 55, 71
1, 287903, Control_c, 0, 64, 69
1, 287905, Note_on_c, 0, 51, 62
1, 287918, Control_c, 0, 64, 0
1, 287937, Note_off_c, 0, 60, 58
1, 287956, Note_off_c, 0, 55, 54
1, 287958, Note_off_c, 0, 61, 58
1, 287983, Note_off_c, 0, 51, 52
1, 288071, Note_on_c, 0, 61, 85
1, 288083, Note_on_c, 0, 49, 63
1, 288085, Note_on_c, 0, 54, 60
1, 288086, Note_on_c, 0, 58, 75
1, 288152, Note_off_c, 0, 58, 59
1, 288180, Note_off_c, 0, 61, 62
1, 288198, Note_off_c, 0, 54, 47
1, 288219, Note_off_c, 0, 49, 32
1, 288264, Note_on_c, 0, 61, 90
1, 288269, Note_on_c, 0, 57, 67
1, 288276, Note_on_c, 0, 52, 63
1, 288282, Control_c, 0, 64, 55
1, 288297, Control_c, 0, 64, 62
1, 288312, Control_c, 0, 64, 65
1, 288327, Control_c, 0, 64, 68
1, 288342, Control_c, 0, 64, 72
1, 288347, Note_off_c, 0, 57, 61
1, 288356, Control_c, 0, 64, 75
1, 288371, Control_c, 0, 64, 78
1, 288375, Note_off_c, 0, 52, 62
1, 288380, Note_off_c, 0, 61, 62
1, 288386, Control_c, 0, 64, 80
1, 288401, Control_c, 0, 64, 81
1, 288416, Control_c, 0, 64, 83
1, 288431, Control_c, 0, 64, 85
1, 288446, Control_c, 0, 64, 87
1, 288460, Control_c, 0, 64, 89
1, 288467, Note_on_c, 0, 60, 86
1, 288470, Note_on_c, 0, 61, 85
1, 288472, Note_on_c, 0, 55, 75
1, 288474, Note_on_c, 0, 51, 68
1, 288475, Control_c, 0, 64, 92
1, 288490, Control_c, 0, 64, 94
1, 288505, Control_c, 0, 64, 98
1, 288520, Control_c, 0, 64, 100
1, 288534, Control_c, 0, 64, 104
1, 288549, Control_c, 0, 64, 108
1, 288559, Note_off_c, 0, 60, 55
1, 288564, Control_c, 0, 64, 116
1, 288565, Note_off_c, 0, 55, 54
1, 288566, Note_off_c, 0, 61, 63
1, 288579, Control_c, 0, 64, 127
1, 288594, Note_off_c, 0, 51, 54
1, 288663, Note_on_c, 0, 61, 95
1, 288665, Note_on_c, 0, 58, 84
1, 288668, Note_on_c, 0, 54, 84
1, 288674, Note_on_c, 0, 49, 81
1, 288709, Note_off_c, 0, 58, 61
1, 288725, Note_off_c, 0, 54, 62
1, 288747, Note_off_c, 0, 61, 59
1, 288766, Note_off_c, 0, 49, 62
1, 289031, Control_c, 0, 64, 107
1, 289046, Note_on_c, 0, 40, 90
1, 289046, Control_c, 0, 64, 79
1, 289049, Note_on_c, 0, 28, 89
1, 289061, Control_c, 0, 64, 0
1, 289079, Note_on_c, 0, 97, 100
1, 289082, Note_on_c, 0, 92, 95
1, 289084, Note_on_c, 0, 84, 93
1, 289112, Note_off_c, 0, 28, 60
1, 289120, Control_c, 0, 64, 52
1, 289134, Control_c, 0, 64, 71
1, 289149, Control_c, 0, 64, 79
1, 289154, Note_off_c, 0, 40, 58
1, 289164, Control_c, 0, 64, 86
1, 289179, Control_c, 0, 64, 87
1, 289194, Control_c, 0, 64, 88
1, 289209, Control_c, 0, 64, 90
1, 289224, Control_c, 0, 64, 93
1, 289239, Control_c, 0, 64, 95
1, 289254, Control_c, 0, 64, 97
1, 289269, Control_c, 0, 64, 98
1, 289283, Control_c, 0, 64, 99
1, 289313, Control_c, 0, 64, 100
1, 289319, Note_off_c, 0, 84, 60
1, 289324, Note_off_c, 0, 97, 62
1, 289341, Note_off_c, 0, 92, 65
1, 289407, Note_on_c, 0, 96, 95
1, 289412, Note_on_c, 0, 91, 92
1, 289413, Note_on_c, 0, 83, 89
1, 289434, Note_on_c, 0, 47, 72
1, 289436, Note_on_c, 0, 56, 69
1, 289474, Note_off_c, 0, 83, 58
1, 289475, Note_off_c, 0, 96, 60
1, 289492, Note_off_c, 0, 91, 60
1, 289525, Note_off_c, 0, 56, 32
1, 289552, Note_off_c, 0, 47, 37
1, 289591, Note_on_c, 0, 95, 95
1, 289593, Note_on_c, 0, 82, 95
1, 289597, Note_on_c, 0, 90, 84
1, 289601, Note_on_c, 0, 52, 73
1, 289609, Note_on_c, 0, 59, 72
1, 289629, Note_off_c, 0, 52, 68
1, 289641, Note_off_c, 0, 82, 61
1, 289647, Note_off_c, 0, 59, 61
1, 289656, Note_off_c, 0, 95, 64
1, 289660, Control_c, 0, 64, 100
1, 289675, Control_c, 0, 64, 102
1, 289676, Note_off_c, 0, 90, 62
1, 289689, Control_c, 0, 64, 106
1, 289704, Control_c, 0, 64, 112
1, 289719, Control_c, 0, 64, 118
1, 289734, Control_c, 0, 64, 120
1, 289745, Note_on_c, 0, 97, 96
1, 289746, Note_on_c, 0, 92, 91
1, 289749, Note_on_c, 0, 84, 93
1, 289759, Note_on_c, 0, 56, 74
1, 289786, Note_on_c, 0, 64, 47
1, 289793, Control_c, 0, 64, 115
1, 289805, Note_off_c, 0, 84, 61
1, 289808, Control_c, 0, 64, 96
1, 289810, Note_off_c, 0, 97, 64
1, 289823, Control_c, 0, 64, 75
1, 289833, Note_off_c, 0, 92, 64
1, 289838, Control_c, 0, 64, 0
1, 289874, Note_off_c, 0, 56, 59
1, 289883, Control_c, 0, 64, 61
1, 289890, Note_on_c, 0, 96, 96
1, 289893, Note_on_c, 0, 83, 86
1, 289895, Note_on_c, 0, 91, 84
1, 289898, Control_c, 0, 64, 76
1, 289899, Note_on_c, 0, 68, 84
1, 289905, Note_off_c, 0, 64, 63
1, 289913, Control_c, 0, 64, 90
1, 289920, Note_on_c, 0, 94, 50
1, 289927, Control_c, 0, 64, 103
1, 289932, Note_on_c, 0, 59, 24
1, 289937, Note_off_c, 0, 83, 62
1, 289938, Note_off_c, 0, 96, 59
1, 289941, Note_off_c, 0, 94, 54
1, 289942, Control_c, 0, 64, 106
1, 289946, Note_off_c, 0, 91, 61
1, 289947, Note_off_c, 0, 68, 64
1, 289970, Note_off_c, 0, 59, 42
1, 289972, Control_c, 0, 64, 106
1, 290036, Note_on_c, 0, 82, 94
1, 290036, Note_on_c, 0, 95, 91
1, 290039, Note_on_c, 0, 90, 87
1, 290041, Note_on_c, 0, 64, 69
1, 290046, Note_on_c, 0, 71, 68
1, 290085, Note_off_c, 0, 82, 60
1, 290093, Note_off_c, 0, 95, 64
1, 290119, Note_off_c, 0, 90, 62
1, 290148, Note_off_c, 0, 64, 58
1, 290169, Note_off_c, 0, 71, 59
1, 290189, Note_on_c, 0, 97, 100
1, 290190, Note_on_c, 0, 84, 96
1, 290190, Note_on_c, 0, 92, 92
1, 290202, Note_on_c, 0, 76, 75
1, 290239, Note_off_c, 0, 84, 62
1, 290255, Note_off_c, 0, 76, 65
1, 290262, Note_off_c, 0, 97, 64
1, 290278, Note_off_c, 0, 92, 63
1, 290295, Poly_aftertouch_c, 0, 68, 0
1, 290351, Control_c, 0, 64, 107
1, 290354, Note_on_c, 0, 83, 97
1, 290358, Note_on_c, 0, 96, 93
1, 290360, Note_on_c, 0, 80, 84
1, 290360, Note_on_c, 0, 91, 82
1, 290365, Control_c, 0, 64, 108
1, 290378, Note_off_c, 0, 83, 54
1, 290380, Control_c, 0, 64, 112
1, 290381, Note_on_c, 0, 71, 46
1, 290382, Note_on_c, 0, 94, 52
1, 290385, Note_off_c, 0, 80, 63
1, 290395, Control_c, 0, 64, 120
1, 290410, Control_c, 0, 64, 127
1, 290424, Note_off_c, 0, 91, 60
1, 290446, Note_off_c, 0, 96, 64
1, 290459, Note_off_c, 0, 94, 42
1, 290478, Note_off_c, 0, 71, 34
1, 290679, Note_on_c, 0, 104, 111
1, 290682, Note_on_c, 0, 96, 104
1, 290685, Note_on_c, 0, 99, 102
1, 290687, Note_on_c, 0, 63, 102
1, 290689, Note_on_c, 0, 54, 81
1, 290692, Control_c, 0, 64, 107
1, 290697, Note_on_c, 0, 59, 74
1, 290707, Control_c, 0, 64, 77
1, 290719, Note_on_c, 0, 62, 37
1, 290722, Control_c, 0, 64, 0
1, 290753, Note_off_c, 0, 62, 32
1, 290766, Control_c, 0, 64, 51
1, 290780, Control_c, 0, 64, 75
1, 290795, Control_c, 0, 64, 90
1, 290810, Note_off_c, 0, 59, 55
1, 290810, Control_c, 0, 64, 105
1, 290825, Control_c, 0, 64, 108
1, 290834, Note_off_c, 0, 54, 59
1, 290869, Control_c, 0, 64, 109
1, 290880, Note_off_c, 0, 99, 67
1, 290914, Control_c, 0, 64, 109
1, 290922, Note_off_c, 0, 96, 53
1, 290929, Note_off_c, 0, 63, 56
1, 290944, Control_c, 0, 64, 110
1, 290959, Note_off_c, 0, 104, 62
1, 290988, Control_c, 0, 64, 110
1, 291025, Note_on_c, 0, 103, 106
1, 291025, Control_c, 0, 64, 111
1, 291028, Note_on_c, 0, 95, 97
1, 291030, Note_on_c, 0, 98, 84
1, 291036, Note_on_c, 0, 60, 70
1, 291040, Control_c, 0, 64, 113
1, 291042, Note_on_c, 0, 65, 77
1, 291042, Note_on_c, 0, 56, 72
1, 291054, Control_c, 0, 64, 119
1, 291069, Control_c, 0, 64, 127
1, 291084, Note_off_c, 0, 95, 60
1, 291094, Note_off_c, 0, 65, 65
1, 291105, Note_off_c, 0, 103, 62
1, 291108, Note_off_c, 0, 56, 60
1, 291121, Note_off_c, 0, 98, 65
1, 291176, Note_off_c, 0, 60, 56
1, 291206, Note_on_c, 0, 102, 103
1, 291211, Note_on_c, 0, 57, 67
1, 291212, Note_on_c, 0, 94, 97
1, 291215, Note_on_c, 0, 62, 62
1, 291215, Note_on_c, 0, 66, 79
1, 291216, Note_on_c, 0, 97, 87
1, 291252, Note_off_c, 0, 57, 58
1, 291253, Note_off_c, 0, 62, 62
1, 291268, Note_off_c, 0, 94, 63
1, 291277, Note_off_c, 0, 66, 65
1, 291277, Note_off_c, 0, 102, 64
1, 291287, Note_off_c, 0, 97, 64
1, 291351, Control_c, 0, 64, 100
1, 291360, Note_on_c, 0, 100, 92
1, 291364, Note_on_c, 0, 68, 85
1, 291366, Note_on_c, 0, 92, 96
1, 291366, Control_c, 0, 64, 82
1, 291367, Note_on_c, 0, 95, 83
1, 291380, Control_c, 0, 64, 68
1, 291384, Note_on_c, 0, 64, 50
1, 291395, Control_c, 0, 64, 63
1, 291397, Note_on_c, 0, 60, 41
1, 291406, Note_off_c, 0, 68, 54
1, 291408, Note_off_c, 0, 64, 59
1, 291410, Control_c, 0, 64, 71
1, 291415, Note_off_c, 0, 92, 63
1, 291417, Note_off_c, 0, 95, 65
1, 291425, Note_off_c, 0, 60, 54
1, 291425, Control_c, 0, 64, 84
1, 291426, Note_off_c, 0, 100, 64
1, 291441, Control_c, 0, 64, 94
1, 291456, Control_c, 0, 64, 97
1, 291500, Control_c, 0, 64, 98
1, 291504, Note_on_c, 0, 99, 91
1, 291510, Note_on_c, 0, 91, 82
1, 291510, Note_on_c, 0, 94, 83
1, 291523, Note_on_c, 0, 62, 55
1, 291523, Note_on_c, 0, 66, 56
1, 291524, Note_on_c, 0, 69, 57
1, 291537, Note_off_c, 0, 91, 62
1, 291548, Note_on_c, 0, 60, 25
1, 291552, Note_off_c, 0, 69, 63
1, 291556, Note_off_c, 0, 62, 54
1, 291559, Note_off_c, 0, 66, 64
1, 291559, Control_c, 0, 64, 98
1, 291561, Note_off_c, 0, 94, 65
1, 291566, Note_off_c, 0, 99, 66
1, 291587, Note_off_c, 0, 60, 39
1, 291632, Note_on_c, 0, 98, 90
1, 291638, Note_on_c, 0, 90, 95
1, 291644, Note_on_c, 0, 62, 75
1, 291647, Note_on_c, 0, 92, 83
1, 291651, Note_on_c, 0, 72, 78
1, 291656, Note_on_c, 0, 66, 70
1, 291676, Note_off_c, 0, 98, 66
1, 291678, Note_off_c, 0, 90, 56
1, 291685, Note_off_c, 0, 62, 50
1, 291690, Note_off_c, 0, 66, 63
1, 291695, Note_off_c, 0, 72, 61
1, 291699, Note_off_c, 0, 92, 65
1, 291737, Control_c, 0, 64, 99
1, 291759, Control_c, 0, 64, 100
1, 291779, Note_on_c, 0, 96, 90
1, 291782, Note_on_c, 0, 88, 86
1, 291785, Note_on_c, 0, 91, 84
1, 291792, Note_on_c, 0, 63, 69
1, 291801, Note_on_c, 0, 74, 51
1, 291806, Note_off_c, 0, 88, 64
1, 291814, Note_off_c, 0, 96, 61
1, 291818, Note_off_c, 0, 63, 67
1, 291825, Note_off_c, 0, 74, 64
1, 291833, Control_c, 0, 64, 95
1, 291834, Note_off_c, 0, 91, 59
1, 291848, Control_c, 0, 64, 80
1, 291863, Control_c, 0, 64, 16
1, 291876, Poly_aftertouch_c, 0, 72, 0
1, 291877, Control_c, 0, 64, 0
1, 291902, Note_on_c, 0, 95, 101
1, 291907, Note_on_c, 0, 74, 63
1, 291907, Note_on_c, 0, 65, 65
1, 291909, Note_on_c, 0, 87, 86
1, 291915, Note_on_c, 0, 90, 85
1, 291919, Note_on_c, 0, 69, 57
1, 291933, Note_off_c, 0, 74, 68
1, 291937, Note_off_c, 0, 65, 65
1, 291937, Control_c, 0, 64, 63
1, 291951, Control_c, 0, 64, 71
1, 291954, Note_off_c, 0, 69, 64
1, 291955, Note_off_c, 0, 87, 58
1, 291955, Note_off_c, 0, 95, 65
1, 291966, Control_c, 0, 64, 77
1, 291972, Note_off_c, 0, 90, 64
1, 291981, Control_c, 0, 64, 81
1, 291996, Control_c, 0, 64, 83
1, 292011, Control_c, 0, 64, 84
1, 292026, Control_c, 0, 64, 85
1, 292031, Poly_aftertouch_c, 0, 71, 127
1, 292036, Note_on_c, 0, 75, 81
1, 292038, Note_on_c, 0, 94, 91
1, 292041, Control_c, 0, 64, 86
1, 292044, Note_on_c, 0, 88, 74
1, 292049, Note_on_c, 0, 66, 64
1, 292049, Note_on_c, 0, 86, 75
1, 292056, Control_c, 0, 64, 88
1, 292068, Note_off_c, 0, 66, 66
1, 292071, Control_c, 0, 64, 89
1, 292073, Note_off_c, 0, 86, 67
1, 292083, Poly_aftertouch_c, 0, 71, 0
1, 292085, Control_c, 0, 64, 91
1, 292086, Note_off_c, 0, 75, 60
1, 292089, Note_off_c, 0, 88, 62
1, 292097, Note_off_c, 0, 94, 65
1, 292100, Control_c, 0, 64, 93
1, 292115, Control_c, 0, 64, 94
1, 292129, Control_c, 0, 64, 94
1, 292144, Control_c, 0, 64, 95
1, 292162, Note_on_c, 0, 92, 95
1, 292163, Note_on_c, 0, 77, 79
1, 292171, Note_on_c, 0, 72, 60
1, 292172, Note_on_c, 0, 84, 76
1, 292174, Control_c, 0, 64, 95
1, 292175, Note_on_c, 0, 68, 62
1, 292175, Note_on_c, 0, 87, 78
1, 292199, Note_off_c, 0, 84, 66
1, 292203, Control_c, 0, 64, 96
1, 292205, Note_off_c, 0, 77, 58
1, 292213, Note_off_c, 0, 68, 60
1, 292215, Note_off_c, 0, 92, 65
1, 292230, Note_off_c, 0, 87, 65
1, 292259, Note_off_c, 0, 72, 59
1, 292264, Control_c, 0, 64, 95
1, 292279, Control_c, 0, 64, 86
1, 292294, Control_c, 0, 64, 66
1, 292297, Note_on_c, 0, 91, 92
1, 292301, Note_on_c, 0, 69, 68
1, 292302, Note_on_c, 0, 74, 63
1, 292303, Note_on_c, 0, 78, 78
1, 292308, Control_c, 0, 64, 0
1, 292311, Note_on_c, 0, 86, 78
1, 292324, Note_on_c, 0, 83, 62
1, 292330, Note_off_c, 0, 69, 65
1, 292335, Note_off_c, 0, 74, 63
1, 292342, Note_off_c, 0, 83, 40
1, 292348, Note_off_c, 0, 86, 59
1, 292351, Note_off_c, 0, 78, 60
1, 292351, Note_off_c, 0, 91, 61
1, 292352, Control_c, 0, 64, 58
1, 292367, Control_c, 0, 64, 70
1, 292382, Control_c, 0, 64, 79
1, 292397, Control_c, 0, 64, 84
1, 292412, Control_c, 0, 64, 85
1, 292426, Control_c, 0, 64, 85
1, 292428, Note_on_c, 0, 80, 80
1, 292429, Note_on_c, 0, 90, 94
1, 292436, Note_on_c, 0, 75, 58
1, 292443, Note_on_c, 0, 82, 77
1, 292447, Note_on_c, 0, 85, 73
1, 292458, Note_off_c, 0, 75, 62
1, 292468, Note_off_c, 0, 82, 66
1, 292471, Control_c, 0, 64, 86
1, 292474, Note_off_c, 0, 80, 56
1, 292482, Note_off_c, 0, 90, 62
1, 292495, Note_off_c, 0, 85, 63
1, 292508, Control_c, 0, 64, 86
1, 292538, Control_c, 0, 64, 87
1, 292557, Note_on_c, 0, 88, 94
1, 292563, Note_on_c, 0, 81, 76
1, 292564, Note_on_c, 0, 83, 78
1, 292566, Note_on_c, 0, 80, 86
1, 292567, Control_c, 0, 64, 87
1, 292575, Note_on_c, 0, 72, 58
1, 292579, Note_off_c, 0, 80, 70
1, 292585, Note_on_c, 0, 77, 32
1, 292588, Note_off_c, 0, 81, 61
1, 292596, Note_off_c, 0, 72, 64
1, 292598, Note_off_c, 0, 83, 52
1, 292601, Note_off_c, 0, 88, 62
1, 292619, Note_off_c, 0, 77, 41
1, 292641, Control_c, 0, 64, 88
1, 292673, Note_on_c, 0, 87, 96
1, 292688, Note_on_c, 0, 78, 79
1, 292688, Note_on_c, 0, 79, 76
1, 292689, Note_on_c, 0, 81, 76
1, 292690, Note_on_c, 0, 74, 72
1, 292690, Note_on_c, 0, 83, 78
1, 292691, Note_on_c, 0, 82, 77
1, 292700, Control_c, 0, 64, 88
1, 292702, Note_off_c, 0, 79, 68
1, 292702, Note_off_c, 0, 81, 68
1, 292712, Note_off_c, 0, 83, 68
1, 292716, Note_off_c, 0, 78, 63
1, 292719, Note_off_c, 0, 74, 65
1, 292733, Note_off_c, 0, 87, 62
1, 292821, Note_off_c, 0, 82, 29
1, 292864, Control_c, 0, 64, 88
1, 292870, Note_on_c, 0, 87, 62
1, 292878, Control_c, 0, 64, 87
1, 292893, Control_c, 0, 64, 85
1, 292905, Note_off_c, 0, 87, 61
1, 292908, Control_c, 0, 64, 77
1, 292911, Note_on_c, 0, 61, 67
1, 292915, Note_on_c, 0, 83, 70
1, 292917, Note_on_c, 0, 84, 72
1, 292923, Control_c, 0, 64, 62
1, 292938, Control_c, 0, 64, 0
1, 292946, Note_on_c, 0, 82, 80
1, 292948, Note_on_c, 0, 64, 63
1, 292959, Note_on_c, 0, 66, 66
1, 292965, Note_on_c, 0, 70, 84
1, 292979, Note_on_c, 0, 73, 102
1, 292980, Note_off_c, 0, 83, 60
1, 292986, Note_on_c, 0, 72, 93
1, 293005, Note_off_c, 0, 84, 57
1, 293033, Note_off_c, 0, 73, 70
1, 293042, Note_off_c, 0, 82, 62
1, 293042, Control_c, 0, 64, 77
1, 293057, Control_c, 0, 64, 104
1, 293072, Control_c, 0, 64, 127
1, 293081, Note_off_c, 0, 61, 62
1, 293116, Note_off_c, 0, 64, 62
1, 293116, Note_off_c, 0, 72, 58
1, 293128, Note_off_c, 0, 66, 64
1, 293154, Note_off_c, 0, 70, 58
1, 293734, Note_on_c, 0, 102, 105
1, 293740, Note_on_c, 0, 89, 95
1, 293741, Note_on_c, 0, 96, 83
1, 293745, Note_on_c, 0, 82, 79
1, 293748, Note_on_c, 0, 91, 83
1, 293847, Note_off_c, 0, 96, 61
1, 293928, Note_off_c, 0, 91, 34
1, 293945, Note_off_c, 0, 89, 39
1, 294014, Note_off_c, 0, 82, 37
1, 294019, Note_off_c, 0, 102, 58
1, 294179, Note_on_c, 0, 104, 110
1, 294184, Note_on_c, 0, 98, 92
1, 294190, Note_on_c, 0, 91, 92
1, 294192, Note_on_c, 0, 93, 83
1, 294195, Note_on_c, 0, 84, 76
1, 294205, Note_on_c, 0, 102, 60
1, 294211, Note_off_c, 0, 91, 60
1, 294211, Note_off_c, 0, 93, 68
1, 294241, Note_off_c, 0, 84, 62
1, 294247, Note_off_c, 0, 102, 59
1, 294248, Note_off_c, 0, 98, 62
1, 294257, Note_off_c, 0, 104, 66
1, 294584, Control_c, 0, 67, 8
1, 294598, Control_c, 0, 67, 13
1, 294613, Control_c, 0, 67, 20
1, 294628, Control_c, 0, 67, 27
1, 294643, Control_c, 0, 67, 36
1, 294658, Control_c, 0, 67, 43
1, 294673, Control_c, 0, 67, 50
1, 294688, Control_c, 0, 67, 55
1, 294703, Control_c, 0, 67, 59
1, 294718, Control_c, 0, 67, 61
1, 294733, Control_c, 0, 67, 64
1, 294754, Control_c, 0, 67, 67
1, 294769, Control_c, 0, 67, 71
1, 294784, Control_c, 0, 67, 75
1, 294799, Control_c, 0, 67, 78
1, 294814, Control_c, 0, 67, 81
1, 294823, Note_on_c, 0, 77, 39
1, 294828, Control_c, 0, 67, 83
1, 294841, Note_on_c, 0, 83, 41
1, 294843, Control_c, 0, 67, 86
1, 294858, Control_c, 0, 64, 107
1, 294858, Control_c, 0, 67, 89
1, 294873, Control_c, 0, 64, 89
1, 294873, Control_c, 0, 67, 93
1, 294888, Control_c, 0, 64, 74
1, 294888, Control_c, 0, 67, 98
1, 294892, Note_on_c, 0, 88, 60
1, 294903, Control_c, 0, 64, 53
1, 294903, Control_c, 0, 67, 102
1, 294917, Control_c, 0, 64, 0
1, 294917, Control_c, 0, 67, 105
1, 294932, Control_c, 0, 64, 28
1, 294932, Control_c, 0, 67, 106
1, 294947, Note_off_c, 0, 88, 59
1, 294947, Control_c, 0, 64, 64
1, 294947, Control_c, 0, 67, 106
1, 294962, Control_c, 0, 64, 70
1, 294977, Control_c, 0, 64, 74
1, 294978, Note_on_c, 0, 99, 63
1, 294992, Control_c, 0, 64, 76
1, 295007, Control_c, 0, 64, 78
1, 295022, Control_c, 0, 64, 80
1, 295036, Control_c, 0, 64, 81
1, 295039, Note_off_c, 0, 83, 33
1, 295051, Control_c, 0, 64, 83
1, 295051, Control_c, 0, 67, 106
1, 295057, Note_off_c, 0, 99, 63
1, 295058, Note_on_c, 0, 97, 62
1, 295066, Control_c, 0, 64, 83
1, 295081, Control_c, 0, 64, 84
1, 295081, Control_c, 0, 67, 105
1, 295087, Note_off_c, 0, 97, 66
1, 295096, Control_c, 0, 64, 85
1, 295096, Control_c, 0, 67, 105
1, 295110, Control_c, 0, 64, 86
1, 295125, Control_c, 0, 64, 86
1, 295125, Control_c, 0, 67, 104
1, 295127, Note_on_c, 0, 86, 61
1, 295140, Control_c, 0, 64, 87
1, 295151, Note_off_c, 0, 86, 65
1, 295154, Control_c, 0, 67, 103
1, 295169, Control_c, 0, 64, 87
1, 295184, Control_c, 0, 67, 103
1, 295198, Note_on_c, 0, 94, 65
1, 295198, Note_off_c, 0, 77, 29
1, 295199, Control_c, 0, 67, 102
1, 295213, Note_on_c, 0, 81, 57
1, 295213, Note_on_c, 0, 75, 38
1, 295239, Note_off_c, 0, 94, 58
1, 295243, Control_c, 0, 67, 102
1, 295258, Control_c, 0, 64, 88
1, 295258, Control_c, 0, 67, 101
1, 295266, Note_on_c, 0, 83, 56
1, 295268, Note_off_c, 0, 81, 56
1, 295272, Control_c, 0, 67, 101
1, 295287, Control_c, 0, 64, 87
1, 295287, Control_c, 0, 67, 100
1, 295288, Note_off_c, 0, 83, 58
1, 295302, Control_c, 0, 64, 84
1, 295302, Control_c, 0, 67, 100
1, 295316, Note_on_c, 0, 88, 72
1, 295317, Control_c, 0, 64, 76
1, 295317, Control_c, 0, 67, 99
1, 295332, Control_c, 0, 64, 63
1, 295332, Control_c, 0, 67, 99
1, 295347, Note_off_c, 0, 75, 40
1, 295347, Control_c, 0, 64, 0
1, 295347, Control_c, 0, 67, 98
1, 295362, Control_c, 0, 67, 96
1, 295375, Note_on_c, 0, 73, 57
1, 295377, Control_c, 0, 67, 95
1, 295383, Note_on_c, 0, 82, 73
1, 295388, Note_off_c, 0, 88, 60
1, 295391, Control_c, 0, 64, 56
1, 295399, Note_on_c, 0, 79, 48
1, 295406, Control_c, 0, 64, 67
1, 295417, Note_off_c, 0, 82, 59
1, 295422, Control_c, 0, 64, 71
1, 295422, Control_c, 0, 67, 96
1, 295430, Note_off_c, 0, 79, 53
1, 295437, Control_c, 0, 64, 75
1, 295442, Note_off_c, 0, 73, 50
1, 295451, Control_c, 0, 64, 80
1, 295451, Control_c, 0, 67, 97
1, 295463, Note_on_c, 0, 93, 76
1, 295466, Control_c, 0, 64, 84
1, 295466, Control_c, 0, 67, 97
1, 295481, Control_c, 0, 64, 85
1, 295503, Control_c, 0, 64, 85
1, 295518, Control_c, 0, 64, 87
1, 295518, Control_c, 0, 67, 98
1, 295533, Control_c, 0, 64, 88
1, 295536, Note_off_c, 0, 93, 61
1, 295538, Note_on_c, 0, 91, 75
1, 295548, Control_c, 0, 64, 89
1, 295548, Control_c, 0, 67, 99
1, 295563, Control_c, 0, 64, 90
1, 295566, Note_off_c, 0, 91, 58
1, 295577, Control_c, 0, 64, 90
1, 295586, Note_on_c, 0, 80, 68
1, 295592, Control_c, 0, 64, 91
1, 295616, Note_off_c, 0, 80, 67
1, 295637, Control_c, 0, 67, 98
1, 295645, Note_on_c, 0, 77, 52
1, 295651, Control_c, 0, 67, 98
1, 295661, Note_on_c, 0, 71, 46
1, 295666, Note_off_c, 0, 77, 56
1, 295680, Note_on_c, 0, 88, 67
1, 295681, Control_c, 0, 67, 97
1, 295685, Note_on_c, 0, 89, 64
1, 295686, Note_off_c, 0, 71, 50
1, 295696, Control_c, 0, 67, 97
1, 295701, Note_off_c, 0, 89, 67
1, 295710, Control_c, 0, 67, 96
1, 295712, Note_off_c, 0, 88, 62
1, 295725, Control_c, 0, 67, 95
1, 295739, Note_on_c, 0, 77, 68
1, 295740, Control_c, 0, 67, 95
1, 295755, Control_c, 0, 67, 94
1, 295770, Control_c, 0, 67, 94
1, 295776, Note_off_c, 0, 77, 60
1, 295785, Control_c, 0, 67, 93
1, 295798, Note_on_c, 0, 82, 80
1, 295800, Control_c, 0, 64, 88
1, 295800, Control_c, 0, 67, 90
1, 295815, Control_c, 0, 64, 79
1, 295815, Control_c, 0, 67, 87
1, 295830, Control_c, 0, 64, 64
1, 295830, Control_c, 0, 67, 84
1, 295844, Control_c, 0, 64, 0
1, 295844, Control_c, 0, 67, 80
1, 295854, Note_off_c, 0, 82, 63
1, 295859, Control_c, 0, 67, 70
1, 295861, Note_on_c, 0, 69, 60
1, 295861, Note_on_c, 0, 75, 58
1, 295866, Note_on_c, 0, 76, 73
1, 295874, Control_c, 0, 67, 58
1, 295889, Control_c, 0, 64, 63
1, 295889, Control_c, 0, 67, 45
1, 295889, Note_off_c, 0, 75, 59
1, 295903, Note_off_c, 0, 76, 68
1, 295903, Control_c, 0, 64, 69
1, 295903, Control_c, 0, 67, 33
1, 295918, Control_c, 0, 64, 74
1, 295918, Control_c, 0, 67, 24
1, 295930, Note_on_c, 0, 87, 79
1, 295933, Control_c, 0, 64, 79
1, 295933, Control_c, 0, 67, 19
1, 295948, Control_c, 0, 64, 82
1, 295948, Control_c, 0, 67, 16
1, 295963, Control_c, 0, 64, 83
1, 295963, Control_c, 0, 67, 15
1, 295977, Control_c, 0, 64, 84
1, 295977, Control_c, 0, 67, 15
1, 295992, Control_c, 0, 64, 85
1, 295994, Note_on_c, 0, 85, 78
1, 296000, Note_off_c, 0, 87, 64
1, 296007, Control_c, 0, 64, 85
1, 296007, Control_c, 0, 67, 14
1, 296022, Note_off_c, 0, 85, 64
1, 296022, Control_c, 0, 64, 86
1, 296037, Control_c, 0, 64, 87
1, 296037, Control_c, 0, 67, 15
1, 296050, Note_on_c, 0, 74, 67
1, 296051, Control_c, 0, 64, 87
1, 296066, Control_c, 0, 64, 88
1, 296066, Control_c, 0, 67, 15
1, 296079, Note_off_c, 0, 69, 49
1, 296081, Note_off_c, 0, 74, 62
1, 296081, Control_c, 0, 64, 89
1, 296118, Note_on_c, 0, 82, 82
1, 296122, Note_on_c, 0, 67, 62
1, 296140, Control_c, 0, 64, 89
1, 296146, Note_on_c, 0, 73, 33
1, 296178, Note_off_c, 0, 73, 43
1, 296182, Note_off_c, 0, 82, 58
1, 296197, Note_on_c, 0, 71, 34
1, 296199, Control_c, 0, 64, 90
1, 296199, Control_c, 0, 67, 15
1, 296207, Note_off_c, 0, 67, 50
1, 296211, Note_on_c, 0, 76, 77
1, 296230, Note_off_c, 0, 71, 46
1, 296230, Control_c, 0, 64, 88
1, 296230, Control_c, 0, 67, 14
1, 296253, Control_c, 0, 64, 81
1, 296253, Control_c, 0, 67, 13
1, 296268, Control_c, 0, 64, 68
1, 296268, Control_c, 0, 67, 12
1, 296282, Control_c, 0, 64, 0
1, 296282, Control_c, 0, 67, 10
1, 296295, Note_on_c, 0, 70, 77
1, 296297, Control_c, 0, 67, 8
1, 296312, Control_c, 0, 67, 0
1, 296313, Note_on_c, 0, 71, 69
1, 296318, Note_off_c, 0, 76, 61
1, 296321, Note_on_c, 0, 65, 55
1, 296326, Control_c, 0, 64, 31
1, 296334, Note_off_c, 0, 70, 62
1, 296339, Note_off_c, 0, 71, 67
1, 296341, Control_c, 0, 64, 65
1, 296356, Control_c, 0, 64, 71
1, 296361, Note_on_c, 0, 81, 84
1, 296362, Note_off_c, 0, 65, 65
1, 296371, Control_c, 0, 64, 74
1, 296386, Control_c, 0, 64, 78
1, 296400, Control_c, 0, 64, 80
1, 296415, Control_c, 0, 64, 82
1, 296423, Note_on_c, 0, 79, 77
1, 296429, Note_off_c, 0, 81, 59
1, 296430, Control_c, 0, 64, 83
1, 296445, Control_c, 0, 64, 83
1, 296460, Control_c, 0, 64, 84
1, 296465, Note_off_c, 0, 79, 61
1, 296474, Control_c, 0, 64, 85
1, 296479, Note_on_c, 0, 68, 70
1, 296489, Control_c, 0, 64, 85
1, 296504, Control_c, 0, 64, 86
1, 296513, Note_off_c, 0, 68, 63
1, 296552, Note_on_c, 0, 76, 78
1, 296555, Note_on_c, 0, 63, 72
1, 296555, Note_on_c, 0, 69, 56
1, 296576, Note_off_c, 0, 69, 63
1, 296578, Control_c, 0, 64, 87
1, 296596, Note_off_c, 0, 63, 60
1, 296599, Note_off_c, 0, 76, 64
1, 296646, Note_on_c, 0, 65, 44
1, 296652, Note_on_c, 0, 64, 26
1, 296675, Note_off_c, 0, 65, 54
1, 296688, Note_off_c, 0, 64, 43
1, 296712, Control_c, 0, 64, 86
1, 296726, Control_c, 0, 64, 77
1, 296741, Control_c, 0, 64, 0
1, 296764, Note_on_c, 0, 55, 64
1, 296764, Poly_aftertouch_c, 0, 69, 127
1, 296783, Poly_aftertouch_c, 0, 69, 0
1, 296798, Note_on_c, 0, 83, 95
1, 296806, Note_on_c, 0, 80, 90
1, 296820, Note_on_c, 0, 70, 80
1, 296841, Note_off_c, 0, 70, 72
1, 296845, Control_c, 0, 64, 70
1, 296846, Note_off_c, 0, 55, 45
1, 296860, Control_c, 0, 64, 82
1, 296874, Control_c, 0, 64, 91
1, 296889, Control_c, 0, 64, 95
1, 296890, Note_off_c, 0, 80, 57
1, 296904, Control_c, 0, 64, 97
1, 296918, Control_c, 0, 64, 97
1, 296929, Poly_aftertouch_c, 0, 62, 0
1, 296933, Control_c, 0, 64, 98
1, 296964, Control_c, 0, 64, 98
1, 297142, Note_off_c, 0, 83, 50
1, 297150, Note_on_c, 0, 55, 52
1, 297164, Note_on_c, 0, 69, 63
1, 297177, Note_off_c, 0, 55, 56
1, 297191, Note_off_c, 0, 69, 63
1, 297210, Control_c, 0, 64, 99
1, 297219, Note_on_c, 0, 80, 77
1, 297224, Control_c, 0, 64, 99
1, 297234, Note_on_c, 0, 70, 64
1, 297239, Control_c, 0, 64, 101
1, 297254, Control_c, 0, 64, 103
1, 297258, Note_off_c, 0, 70, 60
1, 297269, Control_c, 0, 64, 105
1, 297284, Control_c, 0, 64, 106
1, 297298, Control_c, 0, 64, 107
1, 297313, Control_c, 0, 64, 108
1, 297328, Control_c, 0, 64, 109
1, 297342, Control_c, 0, 64, 109
1, 297357, Control_c, 0, 64, 110
1, 297371, Note_off_c, 0, 80, 64
1, 297372, Control_c, 0, 64, 111
1, 297387, Control_c, 0, 64, 111
1, 297402, Control_c, 0, 64, 112
1, 297416, Control_c, 0, 64, 113
1, 297431, Control_c, 0, 64, 113
1, 297446, Control_c, 0, 64, 114
1, 297461, Control_c, 0, 64, 115
1, 297476, Control_c, 0, 64, 115
1, 297505, Control_c, 0, 64, 116
1, 297599, Note_on_c, 0, 67, 68
1, 297601, Note_on_c, 0, 52, 47
1, 297616, Note_off_c, 0, 67, 66
1, 297628, Note_off_c, 0, 52, 56
1, 297636, Note_on_c, 0, 78, 84
1, 297643, Note_on_c, 0, 82, 89
1, 297658, Note_on_c, 0, 68, 80
1, 297668, Control_c, 0, 64, 116
1, 297672, Note_off_c, 0, 78, 57
1, 297685, Note_off_c, 0, 68, 64
1, 297690, Note_off_c, 0, 82, 63
1, 297779, Control_c, 0, 64, 117
1, 297859, Note_on_c, 0, 64, 75
1, 297869, Note_on_c, 0, 48, 79
1, 297886, Note_off_c, 0, 64, 66
1, 297906, Note_on_c, 0, 73, 84
1, 297906, Note_off_c, 0, 48, 64
1, 297912, Note_on_c, 0, 80, 97
1, 297914, Note_on_c, 0, 62, 81
1, 297924, Note_off_c, 0, 73, 71
1, 297943, Control_c, 0, 64, 116
1, 297946, Note_off_c, 0, 62, 62
1, 297948, Note_off_c, 0, 80, 63
1, 298150, Control_c, 0, 64, 116
1, 298165, Control_c, 0, 64, 110
1, 298179, Control_c, 0, 64, 99
1, 298194, Control_c, 0, 64, 85
1, 298209, Control_c, 0, 64, 67
1, 298224, Control_c, 0, 64, 0
1, 298227, Note_on_c, 0, 58, 52
1, 298250, Note_on_c, 0, 62, 65
1, 298280, Note_on_c, 0, 64, 55
1, 298283, Control_c, 0, 64, 59
1, 298289, Note_off_c, 0, 58, 53
1, 298298, Control_c, 0, 64, 67
1, 298301, Note_on_c, 0, 66, 77
1, 298313, Control_c, 0, 64, 72
1, 298314, Note_on_c, 0, 67, 63
1, 298324, Note_off_c, 0, 62, 58
1, 298328, Control_c, 0, 64, 78
1, 298343, Control_c, 0, 64, 82
1, 298348, Note_on_c, 0, 68, 58
1, 298351, Note_off_c, 0, 64, 63
1, 298357, Note_off_c, 0, 67, 64
1, 298357, Control_c, 0, 64, 84
1, 298362, Note_on_c, 0, 69, 71
1, 298372, Control_c, 0, 64, 84
1, 298381, Note_on_c, 0, 73, 73
1, 298385, Note_off_c, 0, 66, 66
1, 298387, Control_c, 0, 64, 85
1, 298387, Note_off_c, 0, 69, 71
1, 298399, Note_off_c, 0, 68, 63
1, 298400, Note_off_c, 0, 73, 67
1, 298402, Control_c, 0, 64, 86
1, 298416, Control_c, 0, 64, 87
1, 298431, Control_c, 0, 64, 88
1, 298446, Control_c, 0, 64, 89
1, 298456, Note_on_c, 0, 72, 84
1, 298458, Note_on_c, 0, 71, 75
1, 298461, Control_c, 0, 64, 90
1, 298476, Control_c, 0, 64, 91
1, 298477, Note_off_c, 0, 72, 71
1, 298481, Note_off_c, 0, 71, 68
1, 298498, Control_c, 0, 64, 92
1, 298512, Control_c, 0, 64, 93
1, 298514, Note_on_c, 0, 77, 107
1, 298515, Note_on_c, 0, 75, 103
1, 298527, Control_c, 0, 64, 94
1, 298547, Note_off_c, 0, 77, 67
1, 298552, Note_off_c, 0, 75, 63
1, 299246, Control_c, 0, 64, 93
1, 299305, Control_c, 0, 64, 93
1, 299320, Control_c, 0, 64, 92
1, 299335, Control_c, 0, 64, 91
1, 299350, Control_c, 0, 64, 89
1, 299365, Control_c, 0, 64, 84
1, 299380, Control_c, 0, 64, 75
1, 299394, Control_c, 0, 64, 63
1, 299409, Control_c, 0, 64, 0
1, 299854, Control_c, 0, 64, 61
1, 299865, Note_on_c, 0, 62, 57
1, 299866, Note_on_c, 0, 57, 51
1, 299869, Control_c, 0, 64, 69
1, 299872, Note_on_c, 0, 66, 78
1, 299884, Control_c, 0, 64, 75
1, 299899, Control_c, 0, 64, 83
1, 299912, Note_off_c, 0, 57, 58
1, 299913, Control_c, 0, 64, 87
1, 299916, Note_off_c, 0, 66, 62
1, 299919, Note_off_c, 0, 62, 52
1, 299928, Control_c, 0, 64, 89
1, 299943, Control_c, 0, 64, 91
1, 299958, Control_c, 0, 64, 91
1, 299973, Control_c, 0, 64, 92
1, 300010, Control_c, 0, 64, 92
1, 300039, Control_c, 0, 64, 93
1, 300054, Control_c, 0, 64, 93
1, 300128, Control_c, 0, 64, 93
1, 300143, Control_c, 0, 64, 88
1, 300158, Control_c, 0, 64, 79
1, 300173, Control_c, 0, 64, 65
1, 300188, Control_c, 0, 64, 0
1, 300200, Note_on_c, 0, 66, 71
1, 300208, Note_on_c, 0, 65, 65
1, 300212, Note_on_c, 0, 60, 59
1, 300221, Note_on_c, 0, 56, 45
1, 300238, Note_off_c, 0, 65, 68
1, 300246, Note_off_c, 0, 66, 66
1, 300247, Note_off_c, 0, 60, 60
1, 300250, Note_off_c, 0, 56, 59
1, 300360, Note_on_c, 0, 66, 74
1, 300370, Note_on_c, 0, 59, 52
1, 300370, Note_on_c, 0, 63, 64
1, 300370, Note_on_c, 0, 54, 48
1, 300399, Note_off_c, 0, 66, 66
1, 300404, Note_off_c, 0, 63, 65
1, 300409, Note_off_c, 0, 59, 59
1, 300414, Note_off_c, 0, 54, 58
1, 300519, Note_on_c, 0, 66, 82
1, 300526, Note_on_c, 0, 57, 55
1, 300527, Note_on_c, 0, 62, 61
1, 300558, Note_off_c, 0, 62, 63
1, 300563, Note_off_c, 0, 57, 62
1, 300568, Note_off_c, 0, 66, 64
1, 300673, Note_on_c, 0, 66, 78
1, 300679, Note_on_c, 0, 65, 66
1, 300682, Note_on_c, 0, 60, 61
1, 300688, Note_on_c, 0, 56, 53
1, 300707, Note_off_c, 0, 65, 66
1, 300715, Note_off_c, 0, 60, 64
1, 300720, Note_off_c, 0, 66, 66
1, 300730, Note_off_c, 0, 56, 62
1, 300831, Note_on_c, 0, 66, 80
1, 300836, Note_on_c, 0, 59, 53
1, 300838, Note_on_c, 0, 54, 46
1, 300840, Note_on_c, 0, 63, 65
1, 300871, Note_off_c, 0, 66, 63
1, 300873, Note_off_c, 0, 63, 65
1, 300878, Note_off_c, 0, 59, 58
1, 300885, Note_off_c, 0, 54, 56
1, 300999, Note_on_c, 0, 69, 75
1, 301001, Note_on_c, 0, 66, 74
1, 301001, Note_on_c, 0, 62, 63
1, 301003, Note_on_c, 0, 57, 52
1, 301011, Control_c, 0, 64, 67
1, 301026, Control_c, 0, 64, 87
1, 301031, Note_off_c, 0, 57, 48
1, 301034, Note_off_c, 0, 66, 67
1, 301035, Note_off_c, 0, 62, 63
1, 301040, Note_off_c, 0, 69, 64
1, 301041, Control_c, 0, 64, 102
1, 301056, Control_c, 0, 64, 111
1, 301070, Control_c, 0, 64, 115
1, 301085, Control_c, 0, 64, 122
1, 301100, Control_c, 0, 64, 127
1, 301222, Note_on_c, 0, 81, 71
1, 301262, Note_on_c, 0, 83, 52
1, 301264, Note_on_c, 0, 84, 66
1, 301276, Note_on_c, 0, 87, 75
1, 301282, Note_off_c, 0, 81, 57
1, 301294, Note_off_c, 0, 83, 54
1, 301297, Note_on_c, 0, 89, 72
1, 301298, Note_off_c, 0, 87, 70
1, 301306, Note_on_c, 0, 86, 81
1, 301307, Note_on_c, 0, 90, 82
1, 301319, Note_off_c, 0, 84, 56
1, 301324, Note_off_c, 0, 86, 71
1, 301332, Note_on_c, 0, 92, 89
1, 301343, Note_on_c, 0, 93, 97
1, 301351, Note_off_c, 0, 89, 66
1, 301368, Note_off_c, 0, 90, 66
1, 301373, Note_off_c, 0, 93, 67
1, 301380, Note_off_c, 0, 92, 67
1, 301626, Control_c, 0, 64, 107
1, 301640, Control_c, 0, 64, 90
1, 301655, Control_c, 0, 64, 73
1, 301670, Control_c, 0, 64, 37
1, 301680, Note_on_c, 0, 66, 94
1, 301681, Note_on_c, 0, 57, 53
1, 301685, Control_c, 0, 64, 35
1, 301692, Note_on_c, 0, 62, 59
1, 301700, Control_c, 0, 64, 65
1, 301715, Control_c, 0, 64, 73
1, 301729, Control_c, 0, 64, 84
1, 301744, Control_c, 0, 64, 97
1, 301759, Control_c, 0, 64, 110
1, 301774, Control_c, 0, 64, 127
1, 301852, Note_off_c, 0, 66, 61
1, 301882, Note_off_c, 0, 62, 58
1, 301896, Note_off_c, 0, 57, 57
1, 301967, Control_c, 0, 64, 114
1, 301982, Control_c, 0, 64, 100
1, 301991, Note_on_c, 0, 65, 81
1, 301992, Note_on_c, 0, 66, 75
1, 301997, Control_c, 0, 64, 85
1, 302005, Note_on_c, 0, 56, 57
1, 302011, Note_on_c, 0, 60, 57
1, 302012, Control_c, 0, 64, 66
1, 302027, Control_c, 0, 64, 0
1, 302028, Note_off_c, 0, 65, 62
1, 302043, Note_off_c, 0, 60, 52
1, 302049, Note_off_c, 0, 66, 65
1, 302051, Note_off_c, 0, 56, 58
1, 302155, Note_on_c, 0, 66, 81
1, 302160, Note_on_c, 0, 54, 53
1, 302165, Note_on_c, 0, 59, 53
1, 302166, Note_on_c, 0, 63, 67
1, 302198, Note_off_c, 0, 63, 65
1, 302208, Note_off_c, 0, 66, 63
1, 302210, Note_off_c, 0, 59, 56
1, 302212, Note_off_c, 0, 54, 54
1, 302320, Note_on_c, 0, 66, 89
1, 302330, Note_on_c, 0, 57, 48
1, 302333, Note_on_c, 0, 62, 58
1, 302373, Note_off_c, 0, 62, 60
1, 302373, Note_off_c, 0, 66, 65
1, 302374, Note_off_c, 0, 57, 60
1, 302479, Note_on_c, 0, 66, 75
1, 302482, Note_on_c, 0, 60, 61
1, 302482, Note_on_c, 0, 65, 71
1, 302495, Note_on_c, 0, 56, 42
1, 302520, Note_off_c, 0, 65, 61
1, 302531, Note_off_c, 0, 60, 56
1, 302534, Note_off_c, 0, 66, 64
1, 302540, Note_off_c, 0, 56, 59
1, 302636, Note_on_c, 0, 66, 76
1, 302638, Note_on_c, 0, 54, 53
1, 302643, Note_on_c, 0, 63, 62
1, 302647, Note_on_c, 0, 59, 47
1, 302671, Note_off_c, 0, 63, 67
1, 302686, Note_off_c, 0, 66, 59
1, 302692, Note_off_c, 0, 54, 55
1, 302700, Note_off_c, 0, 59, 54
1, 302795, Note_on_c, 0, 69, 83
1, 302801, Note_on_c, 0, 66, 68
1, 302806, Note_on_c, 0, 57, 59
1, 302818, Note_on_c, 0, 62, 59
1, 302827, Note_off_c, 0, 57, 62
1, 302830, Note_off_c, 0, 66, 69
1, 302835, Control_c, 0, 64, 51
1, 302838, Note_off_c, 0, 69, 68
1, 302849, Note_off_c, 0, 62, 64
1, 302850, Control_c, 0, 64, 84
1, 302865, Control_c, 0, 64, 96
1, 302879, Control_c, 0, 64, 102
1, 302894, Control_c, 0, 64, 102
1, 302909, Control_c, 0, 64, 105
1, 302924, Control_c, 0, 64, 106
1, 302939, Control_c, 0, 64, 107
1, 302953, Control_c, 0, 64, 108
1, 302968, Control_c, 0, 64, 108
1, 303005, Control_c, 0, 64, 109
1, 303020, Note_on_c, 0, 81, 65
1, 303020, Control_c, 0, 64, 111
1, 303034, Control_c, 0, 64, 119
1, 303043, Note_on_c, 0, 84, 73
1, 303046, Note_on_c, 0, 83, 53
1, 303049, Control_c, 0, 64, 127
1, 303052, Note_on_c, 0, 87, 75
1, 303057, Note_off_c, 0, 81, 57
1, 303069, Note_on_c, 0, 89, 73
1, 303075, Note_off_c, 0, 87, 70
1, 303076, Note_off_c, 0, 83, 62
1, 303085, Note_on_c, 0, 90, 79
1, 303090, Note_on_c, 0, 86, 87
1, 303107, Note_off_c, 0, 84, 60
1, 303112, Note_on_c, 0, 92, 89
1, 303120, Note_on_c, 0, 93, 105
1, 303126, Note_off_c, 0, 86, 65
1, 303130, Note_off_c, 0, 89, 67
1, 303138, Note_off_c, 0, 90, 65
1, 303154, Note_off_c, 0, 93, 68
1, 303163, Note_off_c, 0, 92, 63
1, 303375, Control_c, 0, 64, 125
1, 303390, Control_c, 0, 64, 100
1, 303405, Control_c, 0, 64, 84
1, 303421, Control_c, 0, 64, 70
1, 303436, Control_c, 0, 64, 62
1, 303440, Note_on_c, 0, 66, 94
1, 303447, Note_on_c, 0, 62, 63
1, 303449, Note_on_c, 0, 57, 55
1, 303451, Control_c, 0, 64, 66
1, 303465, Control_c, 0, 64, 72
1, 303480, Control_c, 0, 64, 78
1, 303495, Control_c, 0, 64, 83
1, 303509, Control_c, 0, 64, 84
1, 303524, Control_c, 0, 64, 85
1, 303604, Note_off_c, 0, 57, 52
1, 303619, Note_off_c, 0, 66, 64
1, 303640, Note_off_c, 0, 62, 56
1, 303688, Control_c, 0, 64, 84
1, 303703, Control_c, 0, 64, 84
1, 303717, Control_c, 0, 64, 81
1, 303740, Control_c, 0, 64, 75
1, 303755, Control_c, 0, 64, 66
1, 303762, Note_on_c, 0, 66, 76
1, 303764, Note_on_c, 0, 65, 81
1, 303770, Control_c, 0, 64, 0
1, 303776, Note_on_c, 0, 56, 52
1, 303780, Note_on_c, 0, 60, 58
1, 303805, Note_off_c, 0, 65, 62
1, 303823, Note_off_c, 0, 66, 65
1, 303824, Note_off_c, 0, 60, 55
1, 303824, Note_off_c, 0, 56, 56
1, 303927, Note_on_c, 0, 54, 58
1, 303929, Note_on_c, 0, 66, 85
1, 303939, Note_on_c, 0, 63, 67
1, 303949, Note_on_c, 0, 59, 45
1, 303971, Note_off_c, 0, 63, 64
1, 303984, Note_off_c, 0, 66, 66
1, 303985, Note_off_c, 0, 54, 52
1, 303997, Note_off_c, 0, 59, 51
1, 304102, Note_on_c, 0, 66, 88
1, 304106, Note_on_c, 0, 57, 58
1, 304113, Note_on_c, 0, 62, 61
1, 304147, Note_off_c, 0, 62, 63
1, 304155, Note_off_c, 0, 66, 66
1, 304167, Note_off_c, 0, 57, 56
1, 304230, Control_c, 0, 64, 36
1, 304245, Control_c, 0, 64, 61
1, 304260, Control_c, 0, 64, 66
1, 304273, Note_on_c, 0, 66, 78
1, 304274, Control_c, 0, 64, 70
1, 304275, Note_on_c, 0, 60, 66
1, 304276, Note_on_c, 0, 65, 79
1, 304287, Note_on_c, 0, 56, 47
1, 304289, Control_c, 0, 64, 74
1, 304304, Control_c, 0, 64, 78
1, 304313, Note_off_c, 0, 65, 64
1, 304319, Control_c, 0, 64, 80
1, 304325, Note_off_c, 0, 66, 65
1, 304333, Control_c, 0, 64, 81
1, 304334, Note_off_c, 0, 60, 51
1, 304334, Note_off_c, 0, 56, 57
1, 304378, Control_c, 0, 64, 82
1, 304438, Note_on_c, 0, 66, 91
1, 304444, Note_on_c, 0, 63, 80
1, 304449, Note_on_c, 0, 59, 64
1, 304454, Note_on_c, 0, 54, 57
1, 304495, Note_off_c, 0, 59, 60
1, 304496, Note_off_c, 0, 66, 65
1, 304503, Control_c, 0, 64, 82
1, 304513, Note_off_c, 0, 54, 58
1, 304515, Note_off_c, 0, 63, 62
1, 304518, Control_c, 0, 64, 83
1, 304533, Control_c, 0, 64, 83
1, 304547, Control_c, 0, 64, 84
1, 304577, Control_c, 0, 64, 83
1, 304592, Control_c, 0, 64, 80
1, 304607, Control_c, 0, 64, 70
1, 304621, Control_c, 0, 64, 0
1, 304627, Note_on_c, 0, 61, 81
1, 304627, Note_on_c, 0, 64, 84
1, 304650, Note_on_c, 0, 52, 37
1, 304661, Note_on_c, 0, 55, 41
1, 304664, Note_on_c, 0, 57, 44
1, 304696, Control_c, 0, 64, 62
1, 304711, Control_c, 0, 64, 67
1, 304714, Note_off_c, 0, 61, 59
1, 304717, Note_off_c, 0, 52, 43
1, 304726, Control_c, 0, 64, 71
1, 304740, Control_c, 0, 64, 75
1, 304743, Note_off_c, 0, 55, 39
1, 304743, Note_off_c, 0, 64, 63
1, 304755, Control_c, 0, 64, 77
1, 304770, Control_c, 0, 64, 79
1, 304785, Control_c, 0, 64, 80
1, 304800, Control_c, 0, 64, 82
1, 304812, Note_on_c, 0, 64, 82
1, 304813, Note_on_c, 0, 63, 85
1, 304814, Control_c, 0, 64, 84
1, 304822, Note_off_c, 0, 57, 59
1, 304829, Control_c, 0, 64, 85
1, 304834, Note_on_c, 0, 58, 71
1, 304840, Note_on_c, 0, 54, 54
1, 304844, Control_c, 0, 64, 86
1, 304859, Control_c, 0, 64, 87
1, 304874, Control_c, 0, 64, 88
1, 304889, Control_c, 0, 64, 88
1, 304903, Control_c, 0, 64, 89
1, 304923, Note_off_c, 0, 64, 58
1, 304927, Note_off_c, 0, 63, 64
1, 304947, Note_off_c, 0, 54, 50
1, 304969, Note_off_c, 0, 58, 52
1, 305003, Note_on_c, 0, 52, 64
1, 305005, Note_on_c, 0, 61, 84
1, 305007, Note_on_c, 0, 64, 91
1, 305010, Note_on_c, 0, 57, 66
1, 305102, Note_off_c, 0, 61, 62
1, 305112, Control_c, 0, 64, 89
1, 305115, Note_off_c, 0, 64, 61
1, 305171, Control_c, 0, 64, 87
1, 305186, Control_c, 0, 64, 78
1, 305201, Control_c, 0, 64, 33
1, 305202, Note_on_c, 0, 64, 97
1, 305208, Note_on_c, 0, 55, 70
1, 305210, Note_on_c, 0, 60, 73
1, 305216, Control_c, 0, 64, 0
1, 305248, Note_off_c, 0, 52, 35
1, 305254, Note_off_c, 0, 57, 47
1, 305297, Control_c, 0, 64, 54
1, 305312, Control_c, 0, 64, 69
1, 305327, Control_c, 0, 64, 76
1, 305327, Note_off_c, 0, 60, 60
1, 305342, Control_c, 0, 64, 81
1, 305357, Control_c, 0, 64, 83
1, 305363, Note_off_c, 0, 64, 64
1, 305371, Control_c, 0, 64, 84
1, 305375, Note_off_c, 0, 55, 62
1, 305386, Control_c, 0, 64, 85
1, 305401, Control_c, 0, 64, 86
1, 305416, Control_c, 0, 64, 87
1, 305433, Note_on_c, 0, 63, 87
1, 305433, Note_on_c, 0, 64, 89
1, 305439, Note_on_c, 0, 54, 75
1, 305440, Note_on_c, 0, 58, 77
1, 305460, Control_c, 0, 64, 87
1, 305534, Control_c, 0, 64, 88
1, 305549, Control_c, 0, 64, 88
1, 305563, Control_c, 0, 64, 90
1, 305578, Control_c, 0, 64, 91
1, 305592, Note_off_c, 0, 64, 61
1, 305592, Note_off_c, 0, 63, 65
1, 305593, Control_c, 0, 64, 92
1, 305598, Note_off_c, 0, 54, 51
1, 305604, Note_off_c, 0, 58, 62
1, 305623, Control_c, 0, 64, 92
1, 305637, Control_c, 0, 64, 85
1, 305652, Control_c, 0, 64, 70
1, 305667, Control_c, 0, 64, 0
1, 305670, Note_on_c, 0, 64, 98
1, 305673, Note_on_c, 0, 61, 90
1, 305679, Note_on_c, 0, 57, 86
1, 305685, Note_on_c, 0, 52, 80
1, 305727, Control_c, 0, 64, 65
1, 305738, Note_off_c, 0, 61, 63
1, 305739, Note_off_c, 0, 57, 60
1, 305742, Control_c, 0, 64, 73
1, 305756, Control_c, 0, 64, 80
1, 305763, Note_off_c, 0, 64, 61
1, 305769, Note_off_c, 0, 52, 63
1, 305771, Control_c, 0, 64, 85
1, 305786, Control_c, 0, 64, 90
1, 305802, Control_c, 0, 64, 97
1, 305817, Control_c, 0, 64, 108
1, 305832, Control_c, 0, 64, 127
1, 306076, Control_c, 0, 64, 125
1, 306081, Note_on_c, 0, 100, 105
1, 306082, Note_on_c, 0, 87, 103
1, 306083, Note_on_c, 0, 95, 97
1, 306086, Note_on_c, 0, 31, 88
1, 306086, Note_on_c, 0, 43, 92
1, 306091, Control_c, 0, 64, 90
1, 306106, Control_c, 0, 64, 64
1, 306118, Note_off_c, 0, 31, 68
1, 306120, Control_c, 0, 64, 0
1, 306150, Note_off_c, 0, 43, 61
1, 306150, Control_c, 0, 64, 63
1, 306165, Control_c, 0, 64, 79
1, 306180, Control_c, 0, 64, 94
1, 306194, Control_c, 0, 64, 107
1, 306209, Control_c, 0, 64, 109
1, 306224, Control_c, 0, 64, 110
1, 306239, Control_c, 0, 64, 110
1, 306254, Control_c, 0, 64, 111
1, 306269, Control_c, 0, 64, 111
1, 306284, Control_c, 0, 64, 112
1, 306328, Control_c, 0, 64, 112
1, 306340, Note_off_c, 0, 100, 57
1, 306358, Note_off_c, 0, 87, 60
1, 306367, Note_off_c, 0, 95, 63
1, 306438, Note_on_c, 0, 99, 102
1, 306440, Note_on_c, 0, 94, 92
1, 306442, Note_on_c, 0, 59, 80
1, 306444, Note_on_c, 0, 50, 77
1, 306444, Note_on_c, 0, 86, 92
1, 306507, Note_off_c, 0, 86, 56
1, 306528, Note_off_c, 0, 99, 66
1, 306558, Note_off_c, 0, 94, 63
1, 306586, Note_off_c, 0, 59, 61
1, 306612, Note_off_c, 0, 50, 35
1, 306615, Note_on_c, 0, 85, 104
1, 306616, Note_on_c, 0, 98, 90
1, 306623, Note_on_c, 0, 93, 70
1, 306624, Note_on_c, 0, 62, 84
1, 306625, Note_on_c, 0, 55, 63
1, 306645, Note_on_c, 0, 97, 46
1, 306653, Note_off_c, 0, 55, 67
1, 306669, Control_c, 0, 64, 113
1, 306675, Note_off_c, 0, 62, 63
1, 306678, Note_off_c, 0, 85, 61
1, 306683, Note_off_c, 0, 98, 65
1, 306684, Note_off_c, 0, 97, 45
1, 306685, Control_c, 0, 64, 114
1, 306700, Control_c, 0, 64, 118
1, 306714, Note_off_c, 0, 93, 53
1, 306715, Control_c, 0, 64, 127
1, 306777, Note_on_c, 0, 87, 96
1, 306778, Note_on_c, 0, 95, 74
1, 306779, Note_on_c, 0, 59, 71
1, 306783, Note_on_c, 0, 93, 41
1, 306783, Note_on_c, 0, 100, 80
1, 306784, Note_on_c, 0, 67, 72
1, 306786, Note_on_c, 0, 99, 75
1, 306796, Control_c, 0, 64, 127
1, 306811, Control_c, 0, 64, 103
1, 306826, Control_c, 0, 64, 83
1, 306836, Note_off_c, 0, 99, 68
1, 306838, Note_off_c, 0, 87, 61
1, 306838, Note_off_c, 0, 100, 64
1, 306841, Control_c, 0, 64, 0
1, 306853, Note_off_c, 0, 95, 64
1, 306855, Note_off_c, 0, 93, 59
1, 306900, Control_c, 0, 64, 60
1, 306904, Note_off_c, 0, 67, 61
1, 306905, Note_off_c, 0, 59, 29
1, 306913, Note_on_c, 0, 99, 95
1, 306915, Control_c, 0, 64, 73
1, 306918, Note_on_c, 0, 94, 85
1, 306922, Note_on_c, 0, 62, 67
1, 306922, Note_on_c, 0, 86, 85
1, 306927, Note_on_c, 0, 71, 80
1, 306929, Control_c, 0, 64, 85
1, 306944, Control_c, 0, 64, 93
1, 306952, Note_off_c, 0, 62, 63
1, 306959, Control_c, 0, 64, 95
1, 306969, Note_off_c, 0, 86, 62
1, 306974, Note_off_c, 0, 71, 61
1, 306974, Control_c, 0, 64, 96
1, 306976, Note_off_c, 0, 99, 67
1, 306989, Control_c, 0, 64, 96
1, 307003, Control_c, 0, 64, 97
1, 307016, Note_off_c, 0, 94, 61
1, 307018, Control_c, 0, 64, 97
1, 307048, Control_c, 0, 64, 98
1, 307059, Note_on_c, 0, 85, 95
1, 307059, Note_on_c, 0, 98, 84
1, 307062, Note_on_c, 0, 67, 73
1, 307062, Note_on_c, 0, 93, 74
1, 307071, Note_on_c, 0, 74, 68
1, 307077, Control_c, 0, 64, 98
1, 307100, Note_on_c, 0, 97, 23
1, 307114, Note_off_c, 0, 98, 66
1, 307118, Note_off_c, 0, 85, 62
1, 307122, Control_c, 0, 64, 99
1, 307135, Note_off_c, 0, 97, 43
1, 307166, Control_c, 0, 64, 99
1, 307176, Note_off_c, 0, 67, 61
1, 307190, Note_off_c, 0, 74, 64
1, 307206, Note_on_c, 0, 87, 98
1, 307206, Note_on_c, 0, 95, 65
1, 307214, Note_on_c, 0, 100, 77
1, 307217, Note_on_c, 0, 99, 71
1, 307220, Note_on_c, 0, 71, 50
1, 307226, Control_c, 0, 64, 100
1, 307227, Note_on_c, 0, 79, 72
1, 307243, Note_off_c, 0, 71, 57
1, 307255, Control_c, 0, 64, 100
1, 307261, Note_off_c, 0, 99, 66
1, 307262, Note_off_c, 0, 100, 62
1, 307273, Note_off_c, 0, 79, 61
1, 307273, Note_off_c, 0, 87, 59
1, 307274, Note_off_c, 0, 93, 55
1, 307283, Note_off_c, 0, 95, 65
1, 307315, Control_c, 0, 64, 101
1, 307329, Control_c, 0, 64, 101
1, 307344, Control_c, 0, 64, 102
1, 307359, Control_c, 0, 64, 103
1, 307361, Note_on_c, 0, 94, 91
1, 307363, Note_on_c, 0, 99, 94
1, 307365, Note_on_c, 0, 86, 89
1, 307370, Note_on_c, 0, 83, 88
1, 307374, Control_c, 0, 64, 107
1, 307380, Note_on_c, 0, 74, 67
1, 307386, Note_off_c, 0, 86, 61
1, 307389, Control_c, 0, 64, 111
1, 307404, Control_c, 0, 64, 116
1, 307408, Note_off_c, 0, 83, 56
1, 307419, Control_c, 0, 64, 119
1, 307434, Control_c, 0, 64, 125
1, 307440, Note_off_c, 0, 74, 65
1, 307449, Control_c, 0, 64, 127
1, 307451, Note_off_c, 0, 94, 64
1, 307467, Note_off_c, 0, 99, 68
1, 307706, Note_on_c, 0, 66, 104
1, 307706, Note_on_c, 0, 107, 108
1, 307709, Note_on_c, 0, 99, 108
1, 307710, Note_on_c, 0, 102, 97
1, 307712, Note_on_c, 0, 57, 71
1, 307714, Note_on_c, 0, 62, 76
1, 307738, Control_c, 0, 64, 106
1, 307752, Control_c, 0, 64, 76
1, 307767, Control_c, 0, 64, 0
1, 307812, Control_c, 0, 64, 55
1, 307826, Control_c, 0, 64, 74
1, 307841, Control_c, 0, 64, 88
1, 307845, Note_off_c, 0, 107, 62
1, 307856, Control_c, 0, 64, 100
1, 307871, Control_c, 0, 64, 102
1, 307914, Note_off_c, 0, 57, 40
1, 307915, Control_c, 0, 64, 102
1, 307928, Note_off_c, 0, 62, 58
1, 307945, Control_c, 0, 64, 103
1, 307956, Note_off_c, 0, 66, 59
1, 307983, Note_off_c, 0, 99, 64
1, 308002, Note_off_c, 0, 102, 59
1, 308019, Control_c, 0, 64, 103
1, 308048, Control_c, 0, 64, 104
1, 308057, Note_on_c, 0, 106, 103
1, 308057, Note_on_c, 0, 68, 78
1, 308060, Note_on_c, 0, 63, 71
1, 308063, Note_on_c, 0, 98, 88
1, 308063, Control_c, 0, 64, 105
1, 308064, Note_on_c, 0, 101, 80
1, 308070, Note_on_c, 0, 59, 66
1, 308078, Control_c, 0, 64, 106
1, 308093, Control_c, 0, 64, 108
1, 308107, Note_off_c, 0, 98, 65
1, 308108, Control_c, 0, 64, 109
1, 308123, Control_c, 0, 64, 111
1, 308131, Note_off_c, 0, 59, 61
1, 308132, Note_off_c, 0, 101, 65
1, 308133, Note_off_c, 0, 63, 57
1, 308138, Control_c, 0, 64, 113
1, 308151, Note_off_c, 0, 68, 61
1, 308151, Note_off_c, 0, 106, 63
1, 308152, Control_c, 0, 64, 116
1, 308167, Control_c, 0, 64, 118
1, 308181, Control_c, 0, 64, 122
1, 308196, Control_c, 0, 64, 126
1, 308212, Control_c, 0, 64, 127
1, 308239, Note_on_c, 0, 105, 94
1, 308247, Note_on_c, 0, 99, 90
1, 308249, Note_on_c, 0, 97, 86
1, 308255, Note_on_c, 0, 65, 59
1, 308257, Note_on_c, 0, 60, 61
1, 308259, Note_on_c, 0, 69, 71
1, 308290, Note_off_c, 0, 65, 66
1, 308298, Note_off_c, 0, 97, 63
1, 308304, Note_off_c, 0, 105, 63
1, 308316, Note_off_c, 0, 60, 57
1, 308320, Note_off_c, 0, 69, 64
1, 308326, Note_off_c, 0, 99, 67
1, 308382, Control_c, 0, 64, 104
1, 308395, Note_on_c, 0, 103, 99
1, 308397, Control_c, 0, 64, 81
1, 308398, Note_on_c, 0, 95, 93
1, 308400, Note_on_c, 0, 98, 85
1, 308409, Note_on_c, 0, 62, 67
1, 308409, Note_on_c, 0, 71, 77
1, 308412, Control_c, 0, 64, 49
1, 308412, Note_on_c, 0, 66, 66
1, 308427, Control_c, 0, 64, 0
1, 308430, Note_off_c, 0, 95, 65
1, 308454, Note_off_c, 0, 62, 60
1, 308455, Note_off_c, 0, 103, 61
1, 308456, Control_c, 0, 64, 64
1, 308465, Note_off_c, 0, 71, 60
1, 308469, Note_off_c, 0, 98, 65
1, 308471, Note_off_c, 0, 66, 65
1, 308471, Control_c, 0, 64, 77
1, 308486, Control_c, 0, 64, 88
1, 308500, Control_c, 0, 64, 98
1, 308515, Control_c, 0, 64, 102
1, 308530, Control_c, 0, 64, 103
1, 308545, Control_c, 0, 64, 104
1, 308549, Note_on_c, 0, 102, 102
1, 308555, Note_on_c, 0, 63, 66
1, 308556, Note_on_c, 0, 97, 88
1, 308558, Note_on_c, 0, 72, 68
1, 308558, Note_on_c, 0, 94, 88
1, 308560, Control_c, 0, 64, 105
1, 308573, Note_on_c, 0, 68, 46
1, 308574, Control_c, 0, 64, 106
1, 308589, Control_c, 0, 64, 107
1, 308592, Note_off_c, 0, 94, 57
1, 308600, Note_off_c, 0, 72, 58
1, 308604, Note_off_c, 0, 63, 59
1, 308604, Control_c, 0, 64, 108
1, 308609, Note_off_c, 0, 102, 62
1, 308612, Note_off_c, 0, 68, 46
1, 308614, Note_off_c, 0, 97, 63
1, 308619, Control_c, 0, 64, 108
1, 308679, Note_on_c, 0, 68, 70
1, 308681, Note_on_c, 0, 95, 87
1, 308681, Note_on_c, 0, 101, 94
1, 308683, Note_on_c, 0, 93, 89
1, 308688, Note_on_c, 0, 74, 56
1, 308693, Control_c, 0, 64, 109
1, 308711, Note_off_c, 0, 68, 65
1, 308713, Note_on_c, 0, 65, 31
1, 308719, Note_off_c, 0, 74, 67
1, 308722, Control_c, 0, 64, 109
1, 308723, Note_off_c, 0, 93, 62
1, 308736, Note_off_c, 0, 101, 64
1, 308737, Control_c, 0, 64, 110
1, 308746, Note_off_c, 0, 95, 65
1, 308746, Note_on_c, 0, 69, 38
1, 308752, Note_off_c, 0, 65, 53
1, 308752, Control_c, 0, 64, 111
1, 308767, Control_c, 0, 64, 111
1, 308776, Note_off_c, 0, 69, 49
1, 308779, Poly_aftertouch_c, 0, 64, 0
1, 308812, Note_on_c, 0, 99, 97
1, 308820, Note_on_c, 0, 75, 82
1, 308820, Note_on_c, 0, 66, 68
1, 308820, Note_on_c, 0, 94, 88
1, 308820, Note_on_c, 0, 71, 62
1, 308820, Note_on_c, 0, 91, 80
1, 308834, Note_on_c, 0, 97, 54
1, 308844, Note_off_c, 0, 91, 62
1, 308853, Note_off_c, 0, 66, 65
1, 308853, Note_off_c, 0, 71, 63
1, 308855, Note_off_c, 0, 97, 39
1, 308871, Control_c, 0, 64, 111
1, 308874, Note_off_c, 0, 94, 66
1, 308875, Note_off_c, 0, 75, 63
1, 308881, Note_off_c, 0, 99, 67
1, 308886, Control_c, 0, 64, 102
1, 308900, Control_c, 0, 64, 84
1, 308915, Control_c, 0, 64, 59
1, 308930, Control_c, 0, 64, 0
1, 308937, Note_on_c, 0, 98, 97
1, 308949, Note_on_c, 0, 90, 88
1, 308951, Note_on_c, 0, 77, 82
1, 308953, Note_on_c, 0, 72, 70
1, 308955, Note_on_c, 0, 93, 77
1, 308962, Note_on_c, 0, 68, 63
1, 308981, Control_c, 0, 64, 62
1, 308996, Control_c, 0, 64, 73
1, 308999, Note_off_c, 0, 77, 62
1, 309010, Note_off_c, 0, 93, 59
1, 309012, Control_c, 0, 64, 81
1, 309016, Note_off_c, 0, 98, 65
1, 309018, Note_off_c, 0, 68, 50
1, 309027, Note_off_c, 0, 90, 56
1, 309027, Control_c, 0, 64, 87
1, 309042, Control_c, 0, 64, 89
1, 309053, Note_off_c, 0, 72, 59
1, 309071, Control_c, 0, 64, 89
1, 309085, Note_on_c, 0, 97, 92
1, 309086, Control_c, 0, 64, 90
1, 309095, Note_on_c, 0, 74, 61
1, 309095, Note_on_c, 0, 89, 73
1, 309097, Note_on_c, 0, 91, 75
1, 309101, Note_on_c, 0, 69, 67
1, 309101, Control_c, 0, 64, 90
1, 309102, Note_on_c, 0, 78, 77
1, 309116, Control_c, 0, 64, 91
1, 309122, Note_off_c, 0, 89, 66
1, 309127, Note_off_c, 0, 74, 63
1, 309130, Note_off_c, 0, 69, 70
1, 309130, Control_c, 0, 64, 93
1, 309144, Note_off_c, 0, 91, 61
1, 309145, Control_c, 0, 64, 96
1, 309150, Note_off_c, 0, 97, 62
1, 309151, Note_off_c, 0, 78, 58
1, 309160, Control_c, 0, 64, 98
1, 309175, Control_c, 0, 64, 99
1, 309190, Control_c, 0, 64, 99
1, 309216, Note_on_c, 0, 95, 92
1, 309223, Note_on_c, 0, 87, 90
1, 309226, Note_on_c, 0, 90, 87
1, 309232, Note_on_c, 0, 80, 80
1, 309238, Note_on_c, 0, 75, 60
1, 309265, Note_off_c, 0, 95, 65
1, 309270, Note_on_c, 0, 71, 20
1, 309273, Note_off_c, 0, 87, 59
1, 309275, Note_off_c, 0, 75, 64
1, 309281, Note_off_c, 0, 80, 60
1, 309288, Note_off_c, 0, 90, 63
1, 309312, Note_off_c, 0, 71, 38
1, 309323, Control_c, 0, 64, 96
1, 309338, Control_c, 0, 64, 83
1, 309346, Note_on_c, 0, 94, 98
1, 309349, Note_on_c, 0, 89, 79
1, 309353, Control_c, 0, 64, 63
1, 309356, Note_on_c, 0, 81, 83
1, 309356, Note_on_c, 0, 86, 77
1, 309358, Note_on_c, 0, 72, 71
1, 309365, Note_on_c, 0, 77, 60
1, 309368, Control_c, 0, 64, 0
1, 309378, Note_off_c, 0, 86, 69
1, 309393, Note_off_c, 0, 77, 66
1, 309401, Note_off_c, 0, 89, 64
1, 309403, Note_off_c, 0, 72, 65
1, 309411, Note_off_c, 0, 94, 62
1, 309414, Note_off_c, 0, 81, 60
1, 309427, Control_c, 0, 64, 67
1, 309442, Control_c, 0, 64, 75
1, 309456, Control_c, 0, 64, 80
1, 309471, Control_c, 0, 64, 82
1, 309481, Note_on_c, 0, 93, 97
1, 309485, Note_on_c, 0, 85, 93
1, 309488, Note_on_c, 0, 74, 75
1, 309491, Note_on_c, 0, 83, 78
1, 309492, Note_on_c, 0, 87, 81
1, 309501, Control_c, 0, 64, 82
1, 309513, Note_on_c, 0, 78, 58
1, 309516, Control_c, 0, 64, 83
1, 309519, Note_off_c, 0, 74, 56
1, 309524, Note_off_c, 0, 93, 62
1, 309526, Note_off_c, 0, 85, 61
1, 309530, Control_c, 0, 64, 83
1, 309533, Note_off_c, 0, 78, 61
1, 309535, Note_off_c, 0, 83, 53
1, 309545, Note_off_c, 0, 87, 63
1, 309545, Control_c, 0, 64, 85
1, 309560, Control_c, 0, 64, 86
1, 309575, Control_c, 0, 64, 87
1, 309590, Control_c, 0, 64, 87
1, 309604, Control_c, 0, 64, 88
1, 309607, Note_on_c, 0, 91, 96
1, 309610, Note_on_c, 0, 83, 89
1, 309613, Note_on_c, 0, 86, 78
1, 309619, Note_on_c, 0, 80, 74
1, 309619, Note_on_c, 0, 84, 76
1, 309628, Note_on_c, 0, 75, 59
1, 309638, Note_off_c, 0, 83, 61
1, 309646, Note_off_c, 0, 80, 65
1, 309647, Note_off_c, 0, 91, 61
1, 309648, Note_off_c, 0, 84, 63
1, 309651, Note_off_c, 0, 75, 58
1, 309664, Control_c, 0, 64, 88
1, 309665, Note_off_c, 0, 86, 63
1, 309741, Note_on_c, 0, 90, 109
1, 309743, Note_on_c, 0, 82, 92
1, 309747, Note_on_c, 0, 86, 78
1, 309747, Note_on_c, 0, 85, 88
1, 309754, Note_on_c, 0, 77, 67
1, 309759, Note_off_c, 0, 82, 73
1, 309765, Note_on_c, 0, 81, 43
1, 309772, Note_off_c, 0, 86, 61
1, 309783, Note_on_c, 0, 79, 32
1, 309788, Note_off_c, 0, 85, 65
1, 309792, Note_off_c, 0, 81, 56
1, 309792, Note_off_c, 0, 77, 55
1, 309804, Note_off_c, 0, 90, 66
1, 309817, Note_off_c, 0, 79, 32
1, 310102, Control_c, 0, 64, 87
1, 310117, Control_c, 0, 64, 83
1, 310132, Control_c, 0, 64, 74
1, 310147, Control_c, 0, 64, 58
1, 310150, Note_on_c, 0, 77, 39
1, 310150, Note_on_c, 0, 83, 46
1, 310162, Control_c, 0, 64, 0
1, 310182, Note_on_c, 0, 88, 66
1, 310228, Note_off_c, 0, 88, 59
1, 310236, Control_c, 0, 64, 61
1, 310243, Note_on_c, 0, 99, 65
1, 310251, Control_c, 0, 64, 67
1, 310266, Control_c, 0, 64, 70
1, 310270, Note_off_c, 0, 83, 38
1, 310280, Control_c, 0, 64, 72
1, 310295, Control_c, 0, 64, 74
1, 310310, Control_c, 0, 64, 77
1, 310317, Note_on_c, 0, 97, 69
1, 310320, Note_off_c, 0, 99, 64
1, 310325, Control_c, 0, 64, 79
1, 310340, Control_c, 0, 64, 81
1, 310346, Note_off_c, 0, 97, 61
1, 310354, Control_c, 0, 64, 82
1, 310369, Control_c, 0, 64, 83
1, 310384, Control_c, 0, 64, 84
1, 310386, Note_on_c, 0, 86, 69
1, 310399, Control_c, 0, 64, 84
1, 310414, Note_off_c, 0, 86, 66
1, 310414, Control_c, 0, 64, 85
1, 310443, Control_c, 0, 64, 86
1, 310455, Note_off_c, 0, 77, 44
1, 310464, Note_on_c, 0, 94, 72
1, 310465, Note_on_c, 0, 81, 56
1, 310477, Note_on_c, 0, 75, 48
1, 310495, Control_c, 0, 64, 86
1, 310499, Note_off_c, 0, 81, 56
1, 310510, Control_c, 0, 64, 87
1, 310525, Control_c, 0, 64, 87
1, 310534, Note_on_c, 0, 83, 58
1, 310537, Note_off_c, 0, 94, 63
1, 310540, Control_c, 0, 64, 89
1, 310554, Control_c, 0, 64, 90
1, 310555, Note_off_c, 0, 83, 59
1, 310569, Control_c, 0, 64, 91
1, 310590, Note_on_c, 0, 88, 70
1, 310615, Control_c, 0, 64, 89
1, 310630, Control_c, 0, 64, 80
1, 310645, Control_c, 0, 64, 66
1, 310650, Note_off_c, 0, 75, 36
1, 310658, Note_on_c, 0, 82, 74
1, 310659, Note_off_c, 0, 88, 59
1, 310659, Control_c, 0, 64, 0
1, 310660, Note_on_c, 0, 73, 49
1, 310674, Note_on_c, 0, 79, 46
1, 310689, Control_c, 0, 64, 47
1, 310691, Note_off_c, 0, 82, 60
1, 310698, Note_off_c, 0, 79, 55
1, 310703, Control_c, 0, 64, 68
1, 310710, Note_off_c, 0, 73, 56
1, 310718, Control_c, 0, 64, 77
1, 310729, Note_on_c, 0, 93, 83
1, 310733, Control_c, 0, 64, 87
1, 310748, Control_c, 0, 64, 94
1, 310763, Control_c, 0, 64, 99
1, 310777, Control_c, 0, 64, 102
1, 310792, Control_c, 0, 64, 106
1, 310797, Note_on_c, 0, 91, 75
1, 310797, Note_off_c, 0, 93, 61
1, 310807, Control_c, 0, 64, 109
1, 310822, Control_c, 0, 64, 112
1, 310829, Note_off_c, 0, 91, 56
1, 310837, Control_c, 0, 64, 113
1, 310851, Note_on_c, 0, 80, 69
1, 310851, Control_c, 0, 64, 115
1, 310877, Note_off_c, 0, 80, 68
1, 310898, Note_on_c, 0, 77, 57
1, 310918, Note_off_c, 0, 77, 60
1, 310919, Note_on_c, 0, 88, 83
1, 310970, Note_off_c, 0, 88, 62
1, 310987, Note_on_c, 0, 77, 69
1, 311022, Note_off_c, 0, 77, 60
1, 311051, Note_on_c, 0, 82, 79
1, 311059, Control_c, 0, 64, 113
1, 311074, Control_c, 0, 64, 102
1, 311089, Control_c, 0, 64, 88
1, 311103, Control_c, 0, 64, 71
1, 311104, Note_off_c, 0, 82, 63
1, 311110, Note_on_c, 0, 76, 72
1, 311113, Note_on_c, 0, 69, 58
1, 311116, Note_on_c, 0, 75, 53
1, 311118, Control_c, 0, 64, 0
1, 311140, Note_off_c, 0, 76, 67
1, 311145, Note_off_c, 0, 75, 57
1, 311163, Control_c, 0, 64, 64
1, 311170, Note_on_c, 0, 87, 79
1, 311175, Control_c, 0, 64, 73
1, 311190, Control_c, 0, 64, 80
1, 311205, Control_c, 0, 64, 85
1, 311227, Control_c, 0, 64, 89
1, 311239, Note_on_c, 0, 85, 79
1, 311242, Control_c, 0, 64, 92
1, 311246, Note_off_c, 0, 87, 63
1, 311257, Control_c, 0, 64, 95
1, 311272, Control_c, 0, 64, 98
1, 311283, Note_off_c, 0, 85, 64
1, 311287, Control_c, 0, 64, 101
1, 311301, Note_on_c, 0, 74, 74
1, 311301, Control_c, 0, 64, 103
1, 311316, Control_c, 0, 64, 104
1, 311327, Note_off_c, 0, 69, 55
1, 311331, Control_c, 0, 64, 105
1, 311346, Control_c, 0, 64, 105
1, 311352, Note_off_c, 0, 74, 62
1, 311375, Note_on_c, 0, 67, 67
1, 311378, Note_on_c, 0, 82, 81
1, 311381, Note_on_c, 0, 73, 51
1, 311405, Note_off_c, 0, 73, 56
1, 311436, Control_c, 0, 64, 106
1, 311441, Note_on_c, 0, 71, 69
1, 311445, Note_off_c, 0, 82, 61
1, 311450, Note_off_c, 0, 67, 53
1, 311450, Control_c, 0, 64, 106
1, 311465, Control_c, 0, 64, 107
1, 311467, Note_off_c, 0, 71, 65
1, 311472, Note_on_c, 0, 76, 72
1, 311495, Control_c, 0, 64, 106
1, 311510, Control_c, 0, 64, 101
1, 311524, Control_c, 0, 64, 85
1, 311539, Control_c, 0, 64, 67
1, 311547, Note_on_c, 0, 70, 79
1, 311554, Control_c, 0, 64, 0
1, 311562, Note_off_c, 0, 76, 65
1, 311572, Note_on_c, 0, 71, 57
1, 311574, Note_on_c, 0, 65, 55
1, 311587, Note_off_c, 0, 70, 55
1, 311593, Note_off_c, 0, 71, 61
1, 311599, Control_c, 0, 64, 62
1, 311612, Note_off_c, 0, 65, 66
1, 311613, Control_c, 0, 64, 72
1, 311619, Note_on_c, 0, 81, 88
1, 311628, Control_c, 0, 64, 79
1, 311643, Control_c, 0, 64, 84
1, 311658, Control_c, 0, 64, 85
1, 311673, Control_c, 0, 64, 86
1, 311676, Note_on_c, 0, 80, 84
1, 311695, Note_off_c, 0, 81, 59
1, 311703, Control_c, 0, 64, 86
1, 311718, Note_off_c, 0, 80, 66
1, 311742, Note_on_c, 0, 68, 78
1, 311747, Control_c, 0, 64, 87
1, 311770, Note_off_c, 0, 68, 67
1, 311806, Control_c, 0, 64, 87
1, 311813, Note_on_c, 0, 76, 81
1, 311819, Note_on_c, 0, 69, 55
1, 311828, Note_on_c, 0, 63, 67
1, 311838, Note_off_c, 0, 69, 62
1, 311858, Note_off_c, 0, 76, 65
1, 311858, Note_off_c, 0, 63, 67
1, 311865, Control_c, 0, 64, 88
1, 311880, Control_c, 0, 64, 89
1, 311882, Note_on_c, 0, 65, 71
1, 311895, Control_c, 0, 64, 95
1, 311906, Note_off_c, 0, 65, 71
1, 311910, Control_c, 0, 64, 112
1, 311924, Control_c, 0, 64, 122
1, 311944, Note_on_c, 0, 70, 79
1, 311954, Control_c, 0, 64, 122
1, 311974, Note_off_c, 0, 70, 69
1, 311977, Control_c, 0, 64, 112
1, 311992, Control_c, 0, 64, 88
1, 312006, Control_c, 0, 64, 0
1, 312013, Note_on_c, 0, 55, 75
1, 312018, Note_on_c, 0, 69, 78
1, 312040, Note_off_c, 0, 69, 72
1, 312055, Note_on_c, 0, 83, 99
1, 312064, Note_on_c, 0, 80, 92
1, 312068, Note_on_c, 0, 70, 84
1, 312080, Control_c, 0, 64, 56
1, 312094, Note_off_c, 0, 70, 66
1, 312095, Control_c, 0, 64, 73
1, 312110, Control_c, 0, 64, 74
1, 312114, Note_off_c, 0, 55, 30
1, 312124, Control_c, 0, 64, 74
1, 312139, Control_c, 0, 64, 78
1, 312154, Control_c, 0, 64, 85
1, 312160, Note_off_c, 0, 80, 60
1, 312169, Control_c, 0, 64, 93
1, 312183, Control_c, 0, 64, 99
1, 312200, Control_c, 0, 64, 102
1, 312403, Note_off_c, 0, 83, 53
1, 312409, Note_on_c, 0, 55, 53
1, 312430, Note_off_c, 0, 55, 59
1, 312436, Note_on_c, 0, 69, 58
1, 312454, Note_off_c, 0, 69, 64
1, 312493, Note_on_c, 0, 80, 78
1, 312505, Note_on_c, 0, 70, 67
1, 312536, Note_off_c, 0, 70, 64
1, 312625, Note_off_c, 0, 80, 63
1, 312725, Control_c, 0, 64, 102
1, 312882, Note_on_c, 0, 67, 65
1, 312885, Note_on_c, 0, 52, 58
1, 312898, Note_off_c, 0, 67, 65
1, 312908, Note_off_c, 0, 52, 60
1, 312918, Control_c, 0, 64, 103
1, 312926, Note_on_c, 0, 78, 82
1, 312926, Note_on_c, 0, 82, 94
1, 312947, Control_c, 0, 64, 103
1, 312950, Note_off_c, 0, 78, 63
1, 312951, Note_on_c, 0, 68, 72
1, 312968, Note_off_c, 0, 68, 68
1, 312977, Note_off_c, 0, 82, 62
1, 312977, Control_c, 0, 64, 104
1, 313008, Control_c, 0, 64, 104
1, 313138, Note_on_c, 0, 64, 66
1, 313144, Note_on_c, 0, 48, 75
1, 313155, Note_off_c, 0, 64, 65
1, 313181, Note_off_c, 0, 48, 66
1, 313183, Note_on_c, 0, 62, 82
1, 313185, Note_on_c, 0, 80, 90
1, 313223, Note_off_c, 0, 80, 63
1, 313229, Note_off_c, 0, 62, 58
1, 313408, Control_c, 0, 64, 101
1, 313409, Note_on_c, 0, 72, 85
1, 313414, Note_on_c, 0, 58, 75
1, 313423, Control_c, 0, 64, 87
1, 313432, Note_off_c, 0, 72, 68
1, 313438, Control_c, 0, 64, 56
1, 313453, Control_c, 0, 64, 0
1, 313455, Note_on_c, 0, 86, 99
1, 313468, Note_on_c, 0, 83, 79
1, 313477, Note_on_c, 0, 73, 88
1, 313491, Note_off_c, 0, 83, 60
1, 313534, Control_c, 0, 64, 39
1, 313549, Control_c, 0, 64, 68
1, 313551, Note_off_c, 0, 58, 52
1, 313564, Control_c, 0, 64, 73
1, 313578, Control_c, 0, 64, 78
1, 313593, Control_c, 0, 64, 80
1, 313598, Note_off_c, 0, 73, 48
1, 313608, Control_c, 0, 64, 82
1, 313623, Control_c, 0, 64, 84
1, 313638, Control_c, 0, 64, 86
1, 313652, Control_c, 0, 64, 88
1, 313667, Control_c, 0, 64, 89
1, 313682, Control_c, 0, 64, 90
1, 313697, Control_c, 0, 64, 91
1, 313771, Control_c, 0, 64, 92
1, 313775, Note_off_c, 0, 86, 49
1, 313807, Note_on_c, 0, 58, 57
1, 313810, Note_on_c, 0, 72, 60
1, 313831, Note_off_c, 0, 72, 67
1, 313866, Note_on_c, 0, 83, 76
1, 313875, Note_off_c, 0, 58, 41
1, 313886, Note_on_c, 0, 73, 62
1, 313918, Note_off_c, 0, 73, 56
1, 313935, Control_c, 0, 64, 92
1, 313965, Control_c, 0, 64, 93
1, 313980, Control_c, 0, 64, 93
1, 313983, Note_off_c, 0, 83, 58
1, 313994, Control_c, 0, 64, 94
1, 314009, Control_c, 0, 64, 94
1, 314024, Control_c, 0, 64, 95
1, 314039, Control_c, 0, 64, 96
1, 314053, Control_c, 0, 64, 96
1, 314068, Control_c, 0, 64, 97
1, 314083, Control_c, 0, 64, 98
1, 314098, Control_c, 0, 64, 99
1, 314112, Control_c, 0, 64, 101
1, 314127, Control_c, 0, 64, 102
1, 314142, Control_c, 0, 64, 104
1, 314157, Control_c, 0, 64, 105
1, 314172, Control_c, 0, 64, 106
1, 314186, Control_c, 0, 64, 107
1, 314187, Note_on_c, 0, 55, 63
1, 314201, Control_c, 0, 64, 109
1, 314222, Note_off_c, 0, 55, 66
1, 314224, Control_c, 0, 64, 110
1, 314228, Note_on_c, 0, 70, 62
1, 314239, Control_c, 0, 64, 112
1, 314246, Note_off_c, 0, 70, 64
1, 314253, Control_c, 0, 64, 114
1, 314259, Note_on_c, 0, 85, 93
1, 314261, Note_on_c, 0, 71, 75
1, 314268, Note_on_c, 0, 81, 69
1, 314268, Control_c, 0, 64, 115
1, 314283, Control_c, 0, 64, 115
1, 314284, Note_off_c, 0, 71, 68
1, 314293, Note_off_c, 0, 81, 68
1, 314323, Note_off_c, 0, 85, 63
1, 314327, Control_c, 0, 64, 116
1, 314387, Control_c, 0, 64, 116
1, 314431, Control_c, 0, 64, 117
1, 314458, Note_on_c, 0, 51, 74
1, 314476, Note_on_c, 0, 67, 57
1, 314497, Note_off_c, 0, 67, 61
1, 314506, Note_on_c, 0, 76, 77
1, 314507, Note_off_c, 0, 51, 60
1, 314514, Note_on_c, 0, 83, 93
1, 314519, Note_on_c, 0, 65, 72
1, 314524, Note_off_c, 0, 76, 74
1, 314543, Note_off_c, 0, 83, 64
1, 314547, Note_off_c, 0, 65, 69
1, 314699, Control_c, 0, 64, 116
1, 314714, Control_c, 0, 64, 112
1, 314729, Control_c, 0, 64, 102
1, 314743, Control_c, 0, 64, 87
1, 314758, Control_c, 0, 64, 68
1, 314773, Control_c, 0, 64, 0
1, 314792, Note_on_c, 0, 61, 55
1, 314804, Note_on_c, 0, 65, 76
1, 314847, Control_c, 0, 64, 41
1, 314857, Note_on_c, 0, 67, 58
1, 314858, Note_off_c, 0, 65, 66
1, 314862, Control_c, 0, 64, 62
1, 314866, Note_off_c, 0, 61, 48
1, 314869, Note_on_c, 0, 69, 77
1, 314876, Control_c, 0, 64, 65
1, 314891, Control_c, 0, 64, 67
1, 314906, Control_c, 0, 64, 71
1, 314907, Note_on_c, 0, 70, 67
1, 314914, Note_off_c, 0, 67, 62
1, 314920, Control_c, 0, 64, 76
1, 314923, Note_on_c, 0, 71, 73
1, 314934, Control_c, 0, 64, 83
1, 314949, Control_c, 0, 64, 89
1, 314952, Note_off_c, 0, 70, 62
1, 314955, Note_off_c, 0, 69, 64
1, 314960, Note_on_c, 0, 76, 77
1, 314972, Control_c, 0, 64, 94
1, 314975, Note_on_c, 0, 72, 73
1, 314983, Note_off_c, 0, 71, 63
1, 314987, Control_c, 0, 64, 100
1, 314999, Note_off_c, 0, 72, 70
1, 315001, Control_c, 0, 64, 106
1, 315003, Note_off_c, 0, 76, 65
1, 315016, Control_c, 0, 64, 115
1, 315031, Control_c, 0, 64, 127
1, 315053, Note_on_c, 0, 75, 91
1, 315089, Note_on_c, 0, 74, 32
1, 315093, Note_off_c, 0, 75, 63
1, 315103, Note_on_c, 0, 80, 95
1, 315104, Note_on_c, 0, 78, 99
1, 315118, Note_off_c, 0, 74, 55
1, 315145, Note_off_c, 0, 78, 62
1, 315152, Note_off_c, 0, 80, 65
1, 315328, Control_c, 0, 64, 105
1, 315342, Control_c, 0, 64, 85
1, 315355, Note_on_c, 0, 68, 69
1, 315357, Control_c, 0, 64, 18
1, 315369, Note_on_c, 0, 71, 74
1, 315372, Control_c, 0, 64, 0
1, 315412, Note_off_c, 0, 71, 65
1, 315419, Note_on_c, 0, 72, 59
1, 315424, Note_on_c, 0, 74, 79
1, 315432, Control_c, 0, 64, 43
1, 315443, Note_off_c, 0, 68, 52
1, 315447, Control_c, 0, 64, 66
1, 315459, Note_on_c, 0, 75, 71
1, 315462, Control_c, 0, 64, 71
1, 315471, Note_off_c, 0, 72, 60
1, 315477, Control_c, 0, 64, 77
1, 315486, Note_on_c, 0, 76, 76
1, 315491, Control_c, 0, 64, 84
1, 315506, Control_c, 0, 64, 92
1, 315507, Note_off_c, 0, 74, 67
1, 315515, Note_off_c, 0, 75, 65
1, 315520, Note_on_c, 0, 78, 83
1, 315521, Control_c, 0, 64, 100
1, 315523, Note_on_c, 0, 81, 80
1, 315534, Note_off_c, 0, 76, 69
1, 315536, Control_c, 0, 64, 112
1, 315539, Note_off_c, 0, 78, 72
1, 315542, Note_off_c, 0, 81, 71
1, 315551, Control_c, 0, 64, 127
1, 315592, Note_on_c, 0, 80, 94
1, 315611, Note_on_c, 0, 79, 70
1, 315626, Note_off_c, 0, 79, 66
1, 315638, Note_off_c, 0, 80, 64
1, 315652, Note_on_c, 0, 85, 102
1, 315655, Note_on_c, 0, 82, 91
1, 315696, Note_off_c, 0, 82, 62
1, 315697, Note_off_c, 0, 85, 65
1, 315869, Control_c, 0, 64, 119
1, 315884, Control_c, 0, 64, 93
1, 315898, Control_c, 0, 64, 68
1, 315909, Note_on_c, 0, 66, 73
1, 315913, Control_c, 0, 64, 0
1, 315922, Note_on_c, 0, 72, 79
1, 315972, Control_c, 0, 64, 59
1, 315980, Note_on_c, 0, 74, 66
1, 315987, Control_c, 0, 64, 70
1, 315993, Note_on_c, 0, 76, 84
1, 315998, Note_off_c, 0, 66, 58
1, 316002, Control_c, 0, 64, 77
1, 316004, Note_off_c, 0, 72, 62
1, 316016, Control_c, 0, 64, 85
1, 316031, Control_c, 0, 64, 89
1, 316037, Note_on_c, 0, 77, 69
1, 316046, Control_c, 0, 64, 91
1, 316060, Note_on_c, 0, 78, 82
1, 316061, Control_c, 0, 64, 93
1, 316076, Control_c, 0, 64, 95
1, 316089, Note_off_c, 0, 74, 60
1, 316091, Control_c, 0, 64, 98
1, 316105, Note_off_c, 0, 76, 63
1, 316106, Control_c, 0, 64, 101
1, 316108, Note_on_c, 0, 80, 79
1, 316110, Note_off_c, 0, 77, 59
1, 316110, Note_off_c, 0, 78, 66
1, 316121, Control_c, 0, 64, 103
1, 316125, Note_on_c, 0, 84, 55
1, 316135, Note_off_c, 0, 80, 68
1, 316136, Control_c, 0, 64, 105
1, 316145, Note_off_c, 0, 84, 61
1, 316150, Control_c, 0, 64, 106
1, 316165, Control_c, 0, 64, 108
1, 316180, Control_c, 0, 64, 109
1, 316195, Control_c, 0, 64, 110
1, 316201, Note_on_c, 0, 82, 81
1, 316206, Note_on_c, 0, 81, 81
1, 316210, Control_c, 0, 64, 112
1, 316225, Control_c, 0, 64, 112
1, 316240, Control_c, 0, 64, 113
1, 316282, Note_off_c, 0, 81, 60
1, 316284, Note_off_c, 0, 82, 63
1, 316285, Control_c, 0, 64, 113
1, 316299, Control_c, 0, 64, 116
1, 316308, Note_on_c, 0, 88, 109
1, 316312, Note_on_c, 0, 85, 101
1, 316314, Control_c, 0, 64, 127
1, 316341, Note_off_c, 0, 85, 69
1, 316344, Note_off_c, 0, 88, 70
1, 317842, Control_c, 0, 64, 122
1, 317857, Control_c, 0, 64, 107
1, 317872, Control_c, 0, 64, 92
1, 317886, Control_c, 0, 64, 73
1, 317901, Control_c, 0, 64, 0
1, 318068, Note_on_c, 0, 89, 105
1, 318073, Note_on_c, 0, 75, 96
1, 318073, Note_on_c, 0, 82, 94
1, 318079, Note_on_c, 0, 63, 95
1, 318089, Note_on_c, 0, 53, 72
1, 318090, Note_on_c, 0, 58, 70
1, 318090, Note_on_c, 0, 60, 70
1, 318101, Control_c, 0, 64, 94
1, 318103, Note_off_c, 0, 75, 62
1, 318107, Note_on_c, 0, 55, 54
1, 318116, Control_c, 0, 64, 127
1, 318139, Note_off_c, 0, 89, 61
1, 318160, Note_off_c, 0, 82, 62
1, 318274, Note_off_c, 0, 63, 61
1, 318452, Note_on_c, 0, 91, 102
1, 318459, Note_off_c, 0, 55, 40
1, 318461, Note_on_c, 0, 77, 89
1, 318461, Note_on_c, 0, 84, 88
1, 318465, Note_on_c, 0, 65, 89
1, 318479, Note_off_c, 0, 77, 71
1, 318482, Note_off_c, 0, 60, 57
1, 318490, Note_off_c, 0, 58, 59
1, 318505, Note_off_c, 0, 84, 63
1, 318522, Note_off_c, 0, 91, 61
1, 318548, Note_off_c, 0, 65, 60
1, 318555, Note_off_c, 0, 53, 38
1, 318786, Note_on_c, 0, 94, 104
1, 318791, Note_on_c, 0, 87, 96
1, 318794, Note_on_c, 0, 81, 87
1, 318801, Note_on_c, 0, 67, 83
1, 318813, Note_off_c, 0, 81, 69
1, 318845, Note_on_c, 0, 92, 9
1, 318856, Note_off_c, 0, 87, 63
1, 318867, Note_off_c, 0, 67, 57
1, 318871, Note_off_c, 0, 94, 59
1, 318896, Note_off_c, 0, 92, 29
1, 319169, Note_on_c, 0, 96, 101
1, 319172, Note_on_c, 0, 82, 101
1, 319173, Note_on_c, 0, 89, 91
1, 319179, Note_on_c, 0, 69, 84
1, 319233, Note_off_c, 0, 82, 61
1, 319243, Note_off_c, 0, 69, 62
1, 319279, Note_off_c, 0, 96, 55
1, 319494, Note_off_c, 0, 89, 17
1, 319540, Control_c, 0, 64, 98
1, 319552, Note_on_c, 0, 98, 95
1, 319554, Note_on_c, 0, 84, 102
1, 319555, Control_c, 0, 64, 72
1, 319556, Note_on_c, 0, 93, 96
1, 319562, Note_on_c, 0, 65, 84
1, 319570, Control_c, 0, 64, 0
1, 319570, Note_on_c, 0, 62, 72
1, 319571, Note_on_c, 0, 58, 66
1, 319575, Note_on_c, 0, 53, 66
1, 319575, Note_on_c, 0, 55, 67
1, 319595, Note_on_c, 0, 90, 25
1, 319596, Note_on_c, 0, 95, 40
1, 319599, Control_c, 0, 64, 22
1, 319599, Note_off_c, 0, 90, 50
1, 319614, Control_c, 0, 64, 67
1, 319629, Control_c, 0, 64, 77
1, 319638, Poly_aftertouch_c, 0, 90, 0
1, 319642, Note_off_c, 0, 95, 43
1, 319644, Control_c, 0, 64, 88
1, 319653, Note_off_c, 0, 84, 63
1, 319659, Control_c, 0, 64, 93
1, 319665, Note_off_c, 0, 65, 62
1, 319673, Control_c, 0, 64, 94
1, 319675, Poly_aftertouch_c, 0, 90, 127
1, 319677, Note_off_c, 0, 98, 64
1, 319683, Note_off_c, 0, 93, 61
1, 319688, Control_c, 0, 64, 94
1, 319703, Control_c, 0, 64, 96
1, 319707, Poly_aftertouch_c, 0, 90, 0
1, 319718, Control_c, 0, 64, 98
1, 319730, Note_off_c, 0, 53, 60
1, 319732, Control_c, 0, 64, 102
1, 319742, Note_off_c, 0, 55, 62
1, 319747, Control_c, 0, 64, 108
1, 319753, Note_on_c, 0, 86, 108
1, 319754, Note_on_c, 0, 99, 102
1, 319756, Note_on_c, 0, 67, 88
1, 319762, Control_c, 0, 64, 114
1, 319763, Note_on_c, 0, 94, 84
1, 319769, Note_off_c, 0, 62, 61
1, 319774, Note_on_c, 0, 97, 64
1, 319777, Control_c, 0, 64, 122
1, 319778, Note_off_c, 0, 58, 63
1, 319791, Control_c, 0, 64, 127
1, 319800, Note_off_c, 0, 97, 48
1, 319810, Note_off_c, 0, 67, 62
1, 319832, Note_off_c, 0, 86, 50
1, 319858, Note_off_c, 0, 99, 66
1, 319909, Note_off_c, 0, 94, 57
1, 319927, Note_on_c, 0, 95, 100
1, 319930, Note_on_c, 0, 88, 101
1, 319930, Note_on_c, 0, 101, 106
1, 319945, Note_on_c, 0, 73, 101
1, 319947, Note_on_c, 0, 89, 73
1, 319951, Note_on_c, 0, 98, 66
1, 319978, Note_off_c, 0, 98, 55
1, 320005, Note_off_c, 0, 88, 57
1, 320017, Note_off_c, 0, 89, 28
1, 320102, Poly_aftertouch_c, 0, 92, 127
1, 320151, Poly_aftertouch_c, 0, 92, 0
1, 320350, Note_off_c, 0, 73, 50
1, 320401, Note_off_c, 0, 101, 33
1, 320439, Note_off_c, 0, 95, 50
1, 321875, Control_c, 0, 64, 103
1, 321880, Note_on_c, 0, 106, 113
1, 321883, Note_on_c, 0, 63, 94
1, 321885, Note_on_c, 0, 99, 102
1, 321886, Note_on_c, 0, 93, 105
1, 321890, Control_c, 0, 64, 76
1, 321892, Note_on_c, 0, 53, 75
1, 321897, Note_on_c, 0, 60, 73
1, 321898, Note_on_c, 0, 55, 73
1, 321898, Note_on_c, 0, 58, 68
1, 321905, Control_c, 0, 64, 0
1, 321907, Note_on_c, 0, 104, 60
1, 321927, Note_off_c, 0, 104, 51
1, 321949, Control_c, 0, 64, 40
1, 321957, Note_off_c, 0, 106, 65
1, 321964, Control_c, 0, 64, 73
1, 321979, Control_c, 0, 64, 84
1, 321994, Control_c, 0, 64, 93
1, 322003, Note_off_c, 0, 99, 68
1, 322008, Control_c, 0, 64, 95
1, 322023, Control_c, 0, 64, 95
1, 322038, Control_c, 0, 64, 96
1, 322053, Control_c, 0, 64, 96
1, 322068, Control_c, 0, 64, 97
1, 322082, Control_c, 0, 64, 97
1, 322085, Note_off_c, 0, 63, 64
1, 322097, Control_c, 0, 64, 98
1, 322106, Note_off_c, 0, 55, 31
1, 322112, Control_c, 0, 64, 99
1, 322127, Control_c, 0, 64, 99
1, 322142, Control_c, 0, 64, 100
1, 322157, Control_c, 0, 64, 101
1, 322172, Control_c, 0, 64, 101
1, 322186, Control_c, 0, 64, 102
1, 322191, Note_off_c, 0, 93, 37
1, 322201, Control_c, 0, 64, 102
1, 322216, Control_c, 0, 64, 103
1, 322246, Control_c, 0, 64, 103
1, 322254, Poly_aftertouch_c, 0, 102, 0
1, 322261, Note_off_c, 0, 60, 22
1, 322275, Control_c, 0, 64, 104
1, 322294, Note_on_c, 0, 105, 105
1, 322301, Note_on_c, 0, 91, 101
1, 322301, Note_on_c, 0, 98, 84
1, 322305, Control_c, 0, 64, 104
1, 322307, Note_on_c, 0, 65, 88
1, 322318, Note_off_c, 0, 58, 21
1, 322320, Control_c, 0, 64, 105
1, 322324, Note_off_c, 0, 98, 66
1, 322334, Control_c, 0, 64, 105
1, 322364, Control_c, 0, 64, 106
1, 322387, Note_off_c, 0, 105, 57
1, 322393, Control_c, 0, 64, 106
1, 322408, Control_c, 0, 64, 107
1, 322417, Note_off_c, 0, 53, 42
1, 322423, Control_c, 0, 64, 108
1, 322438, Control_c, 0, 64, 109
1, 322446, Note_off_c, 0, 65, 46
1, 322460, Control_c, 0, 64, 111
1, 322475, Control_c, 0, 64, 112
1, 322490, Control_c, 0, 64, 113
1, 322505, Control_c, 0, 64, 114
1, 322520, Control_c, 0, 64, 115
1, 322524, Note_off_c, 0, 91, 50
1, 322534, Control_c, 0, 64, 115
1, 322564, Control_c, 0, 64, 116
1, 322580, Control_c, 0, 64, 116
1, 322632, Note_on_c, 0, 103, 105
1, 322636, Note_on_c, 0, 89, 96
1, 322637, Note_on_c, 0, 96, 90
1, 322644, Note_on_c, 0, 67, 89
1, 322654, Control_c, 0, 64, 117
1, 322675, Note_off_c, 0, 89, 65
1, 322683, Control_c, 0, 64, 117
1, 322699, Note_off_c, 0, 96, 61
1, 322713, Control_c, 0, 64, 118
1, 322728, Control_c, 0, 64, 118
1, 322744, Note_off_c, 0, 103, 59
1, 322757, Control_c, 0, 64, 119
1, 322772, Control_c, 0, 64, 120
1, 322787, Control_c, 0, 64, 120
1, 322801, Control_c, 0, 64, 121
1, 322816, Control_c, 0, 64, 121
1, 322846, Control_c, 0, 64, 122
1, 322861, Control_c, 0, 64, 122
1, 322876, Control_c, 0, 64, 123
1, 322898, Note_off_c, 0, 67, 57
1, 322905, Control_c, 0, 64, 124
1, 322920, Control_c, 0, 64, 125
1, 322923, Poly_aftertouch_c, 0, 102, 0
1, 322950, Control_c, 0, 64, 125
1, 322965, Control_c, 0, 64, 126
1, 322966, Note_on_c, 0, 106, 109
1, 322973, Note_on_c, 0, 93, 99
1, 322973, Note_on_c, 0, 99, 101
1, 322980, Control_c, 0, 64, 126
1, 322987, Note_on_c, 0, 104, 63
1, 322995, Note_on_c, 0, 69, 79
1, 322995, Note_off_c, 0, 93, 62
1, 322995, Control_c, 0, 64, 127
1, 323003, Note_off_c, 0, 104, 66
1, 323019, Note_off_c, 0, 106, 67
1, 323024, Control_c, 0, 64, 127
1, 323032, Note_off_c, 0, 99, 68
1, 323052, Note_off_c, 0, 69, 62
1, 323403, Control_c, 0, 64, 109
1, 323418, Control_c, 0, 64, 87
1, 323430, Note_on_c, 0, 101, 103
1, 323432, Control_c, 0, 64, 65
1, 323433, Note_on_c, 0, 87, 105
1, 323433, Note_on_c, 0, 96, 87
1, 323435, Note_on_c, 0, 65, 89
1, 323440, Note_on_c, 0, 62, 78
1, 323445, Note_on_c, 0, 53, 73
1, 323445, Note_on_c, 0, 58, 68
1, 323447, Control_c, 0, 64, 0
1, 323450, Note_on_c, 0, 55, 67
1, 323492, Control_c, 0, 64, 68
1, 323506, Control_c, 0, 64, 80
1, 323521, Control_c, 0, 64, 91
1, 323536, Control_c, 0, 64, 98
1, 323540, Note_off_c, 0, 101, 63
1, 323545, Note_off_c, 0, 65, 64
1, 323551, Control_c, 0, 64, 100
1, 323556, Note_off_c, 0, 87, 62
1, 323557, Note_off_c, 0, 96, 61
1, 323566, Control_c, 0, 64, 102
1, 323580, Control_c, 0, 64, 103
1, 323595, Note_off_c, 0, 53, 60
1, 323595, Control_c, 0, 64, 104
1, 323607, Note_off_c, 0, 62, 57
1, 323609, Note_off_c, 0, 55, 55
1, 323623, Note_on_c, 0, 99, 105
1, 323626, Note_on_c, 0, 86, 96
1, 323627, Note_on_c, 0, 94, 95
1, 323630, Note_on_c, 0, 67, 91
1, 323639, Control_c, 0, 64, 104
1, 323641, Note_off_c, 0, 58, 40
1, 323650, Note_on_c, 0, 97, 53
1, 323654, Control_c, 0, 64, 105
1, 323669, Control_c, 0, 64, 108
1, 323671, Note_off_c, 0, 86, 60
1, 323673, Note_off_c, 0, 67, 64
1, 323673, Note_off_c, 0, 97, 55
1, 323684, Control_c, 0, 64, 111
1, 323698, Control_c, 0, 64, 113
1, 323713, Control_c, 0, 64, 114
1, 323730, Note_off_c, 0, 94, 64
1, 323731, Note_off_c, 0, 99, 66
1, 323758, Control_c, 0, 64, 115
1, 323773, Control_c, 0, 64, 124
1, 323779, Note_on_c, 0, 88, 108
1, 323779, Note_on_c, 0, 95, 103
1, 323779, Note_on_c, 0, 101, 108
1, 323787, Control_c, 0, 64, 127
1, 323789, Note_on_c, 0, 94, 47
1, 323790, Note_on_c, 0, 73, 98
1, 323798, Note_on_c, 0, 100, 67
1, 323816, Note_off_c, 0, 94, 42
1, 323821, Note_off_c, 0, 100, 40
1, 324039, Note_off_c, 0, 88, 45
1, 324070, Note_off_c, 0, 101, 56
1, 324139, Note_off_c, 0, 73, 45
1, 324186, Note_off_c, 0, 95, 53
1, 325647, Control_c, 0, 64, 100
1, 325654, Note_on_c, 0, 96, 104
1, 325657, Note_on_c, 0, 91, 101
1, 325659, Note_on_c, 0, 82, 98
1, 325662, Note_on_c, 0, 63, 94
1, 325662, Control_c, 0, 64, 76
1, 325671, Note_on_c, 0, 55, 72
1, 325674, Note_on_c, 0, 53, 74
1, 325676, Note_on_c, 0, 58, 72
1, 325676, Control_c, 0, 64, 0
1, 325677, Note_on_c, 0, 60, 66
1, 325721, Control_c, 0, 64, 64
1, 325733, Note_off_c, 0, 82, 57
1, 325735, Control_c, 0, 64, 79
1, 325750, Control_c, 0, 64, 91
1, 325752, Note_off_c, 0, 96, 55
1, 325765, Control_c, 0, 64, 98
1, 325781, Control_c, 0, 64, 99
1, 325796, Control_c, 0, 64, 100
1, 325825, Control_c, 0, 64, 100
1, 325841, Note_off_c, 0, 63, 60
1, 325855, Control_c, 0, 64, 101
1, 325885, Control_c, 0, 64, 101
1, 325899, Control_c, 0, 64, 102
1, 325929, Control_c, 0, 64, 102
1, 325944, Control_c, 0, 64, 103
1, 325973, Control_c, 0, 64, 103
1, 325991, Note_off_c, 0, 55, 19
1, 326003, Control_c, 0, 64, 104
1, 326062, Note_off_c, 0, 91, 39
1, 326076, Note_off_c, 0, 53, 0
1, 326079, Note_on_c, 0, 99, 102
1, 326080, Note_on_c, 0, 94, 101
1, 326083, Note_on_c, 0, 86, 102
1, 326086, Note_on_c, 0, 65, 92
1, 326086, Note_off_c, 0, 60, 0
1, 326089, Note_on_c, 0, 53, 42
1, 326095, Note_on_c, 0, 91, 51
1, 326099, Note_on_c, 0, 97, 68
1, 326099, Note_off_c, 0, 58, 0
1, 326122, Note_off_c, 0, 97, 64
1, 326123, Poly_aftertouch_c, 0, 60, 127
1, 326132, Note_off_c, 0, 91, 51
1, 326136, Poly_aftertouch_c, 0, 58, 127
1, 326143, Note_off_c, 0, 99, 70
1, 326151, Control_c, 0, 64, 104
1, 326154, Note_off_c, 0, 65, 50
1, 326154, Note_off_c, 0, 86, 50
1, 326166, Poly_aftertouch_c, 0, 58, 0
1, 326177, Note_off_c, 0, 53, 39
1, 326178, Poly_aftertouch_c, 0, 60, 0
1, 326184, Note_off_c, 0, 94, 62
1, 326278, Control_c, 0, 64, 105
1, 326443, Note_on_c, 0, 98, 99
1, 326446, Note_on_c, 0, 93, 96
1, 326448, Note_on_c, 0, 84, 99
1, 326453, Note_on_c, 0, 67, 90
1, 326500, Control_c, 0, 64, 105
1, 326500, Note_off_c, 0, 98, 60
1, 326506, Note_off_c, 0, 84, 60
1, 326533, Note_off_c, 0, 67, 51
1, 326559, Control_c, 0, 64, 106
1, 326694, Control_c, 0, 64, 106
1, 326783, Note_off_c, 0, 93, 59
1, 326803, Note_on_c, 0, 96, 94
1, 326804, Note_on_c, 0, 91, 91
1, 326806, Note_on_c, 0, 82, 100
1, 326816, Note_on_c, 0, 69, 84
1, 326847, Note_off_c, 0, 96, 65
1, 326854, Note_on_c, 0, 95, 10
1, 326855, Note_off_c, 0, 95, 127
1, 326866, Note_off_c, 0, 91, 60
1, 326879, Note_off_c, 0, 69, 58
1, 326930, Control_c, 0, 64, 107
1, 326994, Note_off_c, 0, 82, 46
1, 327189, Control_c, 0, 64, 103
1, 327204, Control_c, 0, 64, 91
1, 327219, Control_c, 0, 64, 72
1, 327227, Note_on_c, 0, 94, 100
1, 327230, Note_on_c, 0, 65, 92
1, 327230, Note_on_c, 0, 81, 98
1, 327234, Note_on_c, 0, 89, 86
1, 327234, Control_c, 0, 64, 60
1, 327239, Note_on_c, 0, 53, 75
1, 327240, Note_on_c, 0, 62, 75
1, 327243, Note_on_c, 0, 58, 71
1, 327245, Note_on_c, 0, 55, 73
1, 327248, Control_c, 0, 64, 64
1, 327263, Control_c, 0, 64, 73
1, 327278, Control_c, 0, 64, 83
1, 327279, Note_off_c, 0, 94, 68
1, 327284, Note_off_c, 0, 81, 56
1, 327293, Control_c, 0, 64, 94
1, 327308, Control_c, 0, 64, 98
1, 327323, Control_c, 0, 64, 98
1, 327325, Note_off_c, 0, 65, 63
1, 327344, Note_off_c, 0, 89, 52
1, 327385, Note_off_c, 0, 53, 56
1, 327405, Note_on_c, 0, 86, 39
1, 327423, Note_on_c, 0, 91, 102
1, 327426, Note_on_c, 0, 78, 102
1, 327427, Note_off_c, 0, 55, 35
1, 327430, Note_on_c, 0, 67, 90
1, 327443, Note_off_c, 0, 62, 61
1, 327445, Note_off_c, 0, 86, 64
1, 327455, Note_off_c, 0, 58, 62
1, 327462, Note_off_c, 0, 91, 63
1, 327472, Control_c, 0, 64, 99
1, 327478, Note_off_c, 0, 67, 62
1, 327489, Note_off_c, 0, 78, 60
1, 327502, Control_c, 0, 64, 99
1, 327591, Control_c, 0, 64, 100
1, 327593, Note_on_c, 0, 89, 105
1, 327594, Note_on_c, 0, 76, 109
1, 327596, Note_on_c, 0, 83, 94
1, 327605, Control_c, 0, 64, 105
1, 327606, Note_on_c, 0, 73, 95
1, 327620, Control_c, 0, 64, 122
1, 327633, Note_on_c, 0, 88, 36
1, 327634, Note_off_c, 0, 88, 127
1, 327635, Control_c, 0, 64, 127
1, 327840, Note_off_c, 0, 89, 52
1, 327847, Note_off_c, 0, 76, 44
1, 327927, Note_off_c, 0, 73, 50
1, 327981, Note_off_c, 0, 83, 48
1, 329117, Control_c, 0, 67, 8
1, 329495, Control_c, 0, 64, 125
1, 329510, Control_c, 0, 64, 95
1, 329517, Note_on_c, 0, 84, 93
1, 329520, Note_on_c, 0, 75, 91
1, 329524, Control_c, 0, 64, 73
1, 329524, Control_c, 0, 67, 0
1, 329525, Note_on_c, 0, 79, 77
1, 329526, Note_on_c, 0, 63, 72
1, 329535, Note_on_c, 0, 53, 59
1, 329539, Control_c, 0, 64, 0
1, 329541, Note_on_c, 0, 58, 53
1, 329545, Note_on_c, 0, 55, 55
1, 329556, Note_on_c, 0, 60, 36
1, 329598, Control_c, 0, 64, 64
1, 329613, Control_c, 0, 64, 75
1, 329628, Control_c, 0, 64, 84
1, 329634, Note_off_c, 0, 79, 57
1, 329642, Control_c, 0, 64, 89
1, 329651, Note_off_c, 0, 60, 0
1, 329657, Control_c, 0, 64, 90
1, 329672, Control_c, 0, 64, 91
1, 329687, Control_c, 0, 64, 92
1, 329688, Poly_aftertouch_c, 0, 60, 127
1, 329702, Control_c, 0, 64, 93
1, 329708, Note_off_c, 0, 84, 60
1, 329717, Control_c, 0, 64, 94
1, 329731, Control_c, 0, 64, 95
1, 329746, Control_c, 0, 64, 96
1, 329761, Control_c, 0, 64, 97
1, 329773, Note_off_c, 0, 63, 58
1, 329777, Control_c, 0, 64, 98
1, 329791, Control_c, 0, 64, 98
1, 329806, Control_c, 0, 64, 99
1, 329821, Control_c, 0, 64, 100
1, 329824, Note_off_c, 0, 75, 63
1, 329836, Control_c, 0, 64, 100
1, 329851, Control_c, 0, 64, 101
1, 329866, Control_c, 0, 64, 102
1, 329896, Control_c, 0, 64, 102
1, 329896, Control_c, 0, 67, 8
1, 329911, Control_c, 0, 64, 103
1, 329926, Control_c, 0, 64, 103
1, 329957, Poly_aftertouch_c, 0, 60, 0
1, 329978, Control_c, 0, 67, 0
1, 329992, Control_c, 0, 64, 104
1, 330018, Note_on_c, 0, 87, 100
1, 330021, Note_off_c, 0, 55, 35
1, 330026, Note_on_c, 0, 82, 87
1, 330038, Note_on_c, 0, 65, 70
1, 330047, Note_on_c, 0, 78, 49
1, 330048, Note_off_c, 0, 78, 127
1, 330059, Note_off_c, 0, 58, 29
1, 330066, Control_c, 0, 64, 104
1, 330079, Note_on_c, 0, 80, 13
1, 330080, Note_off_c, 0, 80, 127
1, 330155, Control_c, 0, 64, 105
1, 330186, Note_off_c, 0, 82, 63
1, 330199, Control_c, 0, 64, 105
1, 330241, Note_off_c, 0, 87, 51
1, 330248, Note_off_c, 0, 53, 43
1, 330274, Control_c, 0, 64, 106
1, 330348, Control_c, 0, 64, 106
1, 330360, Note_off_c, 0, 65, 53
1, 330500, Note_on_c, 0, 85, 96
1, 330508, Note_on_c, 0, 80, 84
1, 330509, Note_on_c, 0, 77, 81
1, 330515, Note_on_c, 0, 67, 71
1, 330615, Control_c, 0, 64, 107
1, 330643, Note_off_c, 0, 80, 62
1, 330675, Control_c, 0, 64, 107
1, 330712, Control_c, 0, 64, 108
1, 330727, Control_c, 0, 64, 108
1, 330754, Note_off_c, 0, 85, 51
1, 330786, Control_c, 0, 64, 109
1, 330810, Note_off_c, 0, 77, 49
1, 330816, Control_c, 0, 64, 109
1, 330822, Note_off_c, 0, 67, 34
1, 330875, Control_c, 0, 64, 110
1, 330919, Control_c, 0, 64, 110
1, 330963, Control_c, 0, 64, 111
1, 331052, Control_c, 0, 64, 111
1, 331053, Note_on_c, 0, 83, 95
1, 331060, Note_on_c, 0, 75, 92
1, 331064, Note_on_c, 0, 78, 80
1, 331073, Note_on_c, 0, 68, 76
1, 331213, Note_off_c, 0, 68, 47
1, 331289, Note_off_c, 0, 83, 48
1, 331308, Note_off_c, 0, 78, 56
1, 331319, Control_c, 0, 64, 112
1, 331486, Note_off_c, 0, 75, 56
1, 331609, Control_c, 0, 64, 111
1, 331639, Control_c, 0, 64, 106
1, 331653, Control_c, 0, 64, 93
1, 331658, Note_on_c, 0, 82, 101
1, 331661, Note_on_c, 0, 69, 94
1, 331663, Note_on_c, 0, 74, 86
1, 331665, Note_on_c, 0, 77, 85
1, 331668, Control_c, 0, 64, 77
1, 331671, Note_on_c, 0, 65, 85
1, 331679, Note_on_c, 0, 53, 70
1, 331682, Note_on_c, 0, 62, 70
1, 331683, Control_c, 0, 64, 58
1, 331690, Note_on_c, 0, 58, 58
1, 331690, Note_on_c, 0, 55, 58
1, 331698, Control_c, 0, 64, 0
1, 331705, Note_off_c, 0, 69, 54
1, 331707, Note_on_c, 0, 71, 28
1, 331708, Note_off_c, 0, 71, 127
1, 331713, Control_c, 0, 64, 65
1, 331727, Control_c, 0, 64, 77
1, 331742, Control_c, 0, 64, 89
1, 331757, Control_c, 0, 64, 98
1, 331765, Note_off_c, 0, 53, 50
1, 331771, Control_c, 0, 64, 101
1, 331780, Note_off_c, 0, 55, 52
1, 331783, Note_off_c, 0, 65, 53
1, 331786, Control_c, 0, 64, 103
1, 331801, Control_c, 0, 64, 103
1, 331816, Note_off_c, 0, 62, 54
1, 331836, Note_off_c, 0, 74, 55
1, 331842, Note_off_c, 0, 58, 36
1, 331886, Note_off_c, 0, 77, 55
1, 331994, Control_c, 0, 67, 8
1, 332009, Control_c, 0, 67, 10
1, 332024, Control_c, 0, 67, 12
1, 332038, Control_c, 0, 67, 14
1, 332053, Control_c, 0, 67, 15
1, 332068, Control_c, 0, 67, 17
1, 332082, Control_c, 0, 67, 18
1, 332097, Control_c, 0, 67, 20
1, 332110, Note_off_c, 0, 82, 56
1, 332112, Control_c, 0, 67, 22
1, 332127, Control_c, 0, 67, 24
1, 332142, Control_c, 0, 67, 27
1, 332157, Control_c, 0, 67, 30
1, 332173, Control_c, 0, 67, 33
1, 332194, Control_c, 0, 67, 35
1, 332209, Control_c, 0, 67, 37
1, 332224, Control_c, 0, 67, 39
1, 332239, Control_c, 0, 67, 41
1, 332254, Control_c, 0, 67, 43
1, 332268, Control_c, 0, 67, 45
1, 332283, Control_c, 0, 67, 45
1, 332313, Control_c, 0, 64, 103
1, 332402, Control_c, 0, 67, 46
1, 332417, Control_c, 0, 67, 46
1, 332432, Control_c, 0, 64, 102
1, 332432, Control_c, 0, 67, 47
1, 332447, Control_c, 0, 67, 51
1, 332462, Control_c, 0, 67, 54
1, 332476, Control_c, 0, 64, 102
1, 332476, Control_c, 0, 67, 57
1, 332491, Control_c, 0, 64, 100
1, 332491, Control_c, 0, 67, 58
1, 332506, Control_c, 0, 64, 97
1, 332506, Control_c, 0, 67, 62
1, 332521, Control_c, 0, 64, 90
1, 332521, Control_c, 0, 67, 69
1, 332536, Control_c, 0, 64, 78
1, 332536, Control_c, 0, 67, 79
1, 332550, Control_c, 0, 64, 53
1, 332550, Control_c, 0, 67, 91
1, 332565, Control_c, 0, 64, 0
1, 332565, Control_c, 0, 67, 101
1, 332566, Note_on_c, 0, 85, 74
1, 332574, Note_on_c, 0, 80, 62
1, 332579, Note_on_c, 0, 66, 45
1, 332580, Control_c, 0, 67, 109
1, 332581, Note_on_c, 0, 77, 58
1, 332586, Note_on_c, 0, 64, 36
1, 332594, Control_c, 0, 67, 117
1, 332602, Note_on_c, 0, 74, 31
1, 332609, Control_c, 0, 67, 125
1, 332614, Note_on_c, 0, 69, 26
1, 332624, Control_c, 0, 67, 127
1, 332645, Note_on_c, 0, 71, 19
1, 332683, Control_c, 0, 64, 37
1, 332698, Control_c, 0, 64, 58
1, 332712, Control_c, 0, 64, 64
1, 332727, Control_c, 0, 64, 67
1, 332742, Control_c, 0, 64, 71
1, 332757, Control_c, 0, 64, 76
1, 332772, Control_c, 0, 64, 81
1, 332784, Note_off_c, 0, 74, 56
1, 332787, Control_c, 0, 64, 83
1, 332802, Control_c, 0, 64, 84
1, 332817, Control_c, 0, 64, 85
1, 332832, Control_c, 0, 64, 86
1, 332839, Note_off_c, 0, 80, 61
1, 332846, Control_c, 0, 64, 88
1, 332861, Control_c, 0, 64, 90
1, 332865, Note_off_c, 0, 77, 32
1, 332876, Control_c, 0, 64, 91
1, 332891, Control_c, 0, 64, 92
1, 332906, Control_c, 0, 64, 93
1, 332921, Control_c, 0, 64, 94
1, 332943, Control_c, 0, 64, 94
1, 332952, Note_off_c, 0, 85, 54
1, 332958, Control_c, 0, 64, 95
1, 332989, Control_c, 0, 64, 96
1, 333004, Control_c, 0, 64, 96
1, 333033, Control_c, 0, 64, 97
1, 333042, Note_on_c, 0, 88, 78
1, 333058, Note_on_c, 0, 75, 51
1, 333061, Note_on_c, 0, 79, 51
1, 333068, Note_off_c, 0, 66, 37
1, 333074, Note_on_c, 0, 83, 40
1, 333107, Control_c, 0, 64, 97
1, 333151, Control_c, 0, 64, 98
1, 333243, Note_off_c, 0, 79, 37
1, 333255, Note_off_c, 0, 88, 58
1, 333264, Note_off_c, 0, 75, 40
1, 333311, Note_off_c, 0, 83, 48
1, 333432, Note_on_c, 0, 87, 80
1, 333442, Note_on_c, 0, 78, 65
1, 333451, Note_on_c, 0, 76, 43
1, 333490, Note_off_c, 0, 69, 18
1, 333520, Note_on_c, 0, 82, 50
1, 333539, Note_off_c, 0, 78, 0
1, 333573, Note_on_c, 0, 78, 24
1, 333578, Note_off_c, 0, 76, 53
1, 333592, Note_off_c, 0, 82, 45
1, 333611, Note_off_c, 0, 71, 39
1, 333622, Note_off_c, 0, 78, 51
1, 333667, Note_off_c, 0, 87, 56
1, 333771, Note_on_c, 0, 85, 78
1, 333779, Note_on_c, 0, 80, 70
1, 333782, Note_on_c, 0, 77, 75
1, 333936, Note_off_c, 0, 64, 37
1, 333976, Note_off_c, 0, 80, 54
1, 333986, Note_off_c, 0, 77, 59
1, 333990, Note_off_c, 0, 85, 54
1, 334048, Control_c, 0, 67, 127
1, 334063, Control_c, 0, 67, 119
1, 334066, Note_on_c, 0, 84, 81
1, 334075, Note_on_c, 0, 76, 70
1, 334077, Note_on_c, 0, 78, 70
1, 334078, Note_on_c, 0, 79, 67
1, 334078, Control_c, 0, 67, 111
1, 334084, Note_on_c, 0, 64, 51
1, 334092, Note_on_c, 0, 69, 48
1, 334092, Control_c, 0, 67, 102
1, 334107, Control_c, 0, 67, 92
1, 334122, Control_c, 0, 67, 79
1, 334125, Note_on_c, 0, 72, 29
1, 334126, Note_on_c, 0, 67, 25
1, 334131, Note_off_c, 0, 76, 54
1, 334134, Note_off_c, 0, 78, 60
1, 334137, Control_c, 0, 67, 70
1, 334142, Note_off_c, 0, 79, 59
1, 334152, Control_c, 0, 67, 65
1, 334158, Note_off_c, 0, 69, 61
1, 334161, Note_off_c, 0, 67, 47
1, 334161, Note_off_c, 0, 72, 50
1, 334166, Control_c, 0, 67, 64
1, 334173, Note_off_c, 0, 84, 63
1, 334177, Note_off_c, 0, 64, 63
1, 334181, Control_c, 0, 67, 62
1, 334196, Control_c, 0, 67, 61
1, 334226, Control_c, 0, 64, 98
1, 334240, Control_c, 0, 64, 99
1, 334255, Control_c, 0, 64, 100
1, 334255, Control_c, 0, 67, 61
1, 334270, Control_c, 0, 64, 100
1, 334270, Control_c, 0, 67, 60
1, 334285, Control_c, 0, 67, 60
1, 334300, Control_c, 0, 64, 99
1, 334300, Control_c, 0, 67, 58
1, 334314, Control_c, 0, 64, 94
1, 334314, Control_c, 0, 67, 54
1, 334329, Control_c, 0, 64, 84
1, 334329, Control_c, 0, 67, 48
1, 334343, Note_on_c, 0, 86, 87
1, 334344, Control_c, 0, 64, 73
1, 334344, Control_c, 0, 67, 42
1, 334350, Note_on_c, 0, 78, 86
1, 334352, Note_on_c, 0, 81, 73
1, 334358, Control_c, 0, 64, 64
1, 334358, Control_c, 0, 67, 37
1, 334361, Note_on_c, 0, 73, 67
1, 334372, Note_on_c, 0, 65, 51
1, 334373, Control_c, 0, 64, 63
1, 334373, Control_c, 0, 67, 31
1, 334375, Note_on_c, 0, 70, 51
1, 334377, Note_on_c, 0, 68, 51
1, 334379, Note_on_c, 0, 63, 50
1, 334388, Control_c, 0, 64, 70
1, 334388, Control_c, 0, 67, 26
1, 334403, Control_c, 0, 64, 78
1, 334403, Control_c, 0, 67, 21
1, 334418, Control_c, 0, 64, 86
1, 334418, Control_c, 0, 67, 17
1, 334440, Control_c, 0, 64, 91
1, 334440, Control_c, 0, 67, 14
1, 334455, Control_c, 0, 64, 94
1, 334455, Control_c, 0, 67, 12
1, 334470, Control_c, 0, 64, 95
1, 334470, Control_c, 0, 67, 11
1, 334485, Control_c, 0, 64, 97
1, 334485, Control_c, 0, 67, 10
1, 334492, Note_off_c, 0, 78, 61
1, 334499, Control_c, 0, 64, 97
1, 334499, Control_c, 0, 67, 8
1, 334512, Note_off_c, 0, 81, 57
1, 334514, Control_c, 0, 67, 0
1, 334526, Note_off_c, 0, 73, 57
1, 334527, Note_off_c, 0, 86, 59
1, 334629, Note_on_c, 0, 89, 95
1, 334632, Note_on_c, 0, 81, 89
1, 334644, Note_on_c, 0, 84, 72
1, 334645, Note_on_c, 0, 74, 65
1, 334728, Note_off_c, 0, 74, 56
1, 334732, Note_off_c, 0, 81, 57
1, 334752, Control_c, 0, 64, 98
1, 334766, Note_off_c, 0, 89, 62
1, 334784, Note_off_c, 0, 84, 62
1, 334876, Note_on_c, 0, 88, 96
1, 334887, Note_on_c, 0, 80, 88
1, 334896, Note_on_c, 0, 75, 77
1, 334896, Note_on_c, 0, 83, 66
1, 334998, Note_off_c, 0, 80, 61
1, 335003, Note_off_c, 0, 88, 60
1, 335020, Note_off_c, 0, 83, 59
1, 335030, Note_off_c, 0, 75, 58
1, 335052, Note_off_c, 0, 68, 38
1, 335070, Note_off_c, 0, 70, 57
1, 335106, Note_on_c, 0, 86, 96
1, 335111, Note_on_c, 0, 78, 99
1, 335115, Note_on_c, 0, 76, 66
1, 335127, Note_on_c, 0, 81, 72
1, 335141, Note_off_c, 0, 76, 58
1, 335203, Note_off_c, 0, 63, 39
1, 335219, Note_off_c, 0, 65, 32
1, 335222, Note_off_c, 0, 81, 58
1, 335222, Note_off_c, 0, 78, 60
1, 335227, Note_off_c, 0, 86, 61
1, 335249, Control_c, 0, 64, 98
1, 335315, Note_on_c, 0, 85, 96
1, 335318, Note_on_c, 0, 80, 88
1, 335319, Note_on_c, 0, 77, 88
1, 335331, Note_on_c, 0, 66, 60
1, 335333, Note_on_c, 0, 68, 64
1, 335339, Note_on_c, 0, 63, 58
1, 335339, Note_on_c, 0, 71, 69
1, 335376, Note_off_c, 0, 77, 49
1, 335412, Control_c, 0, 64, 99
1, 335422, Note_off_c, 0, 63, 63
1, 335425, Note_off_c, 0, 71, 57
1, 335427, Control_c, 0, 64, 100
1, 335431, Note_off_c, 0, 80, 62
1, 335440, Note_off_c, 0, 85, 62
1, 335442, Control_c, 0, 64, 101
1, 335456, Note_off_c, 0, 66, 60
1, 335461, Note_off_c, 0, 68, 54
1, 335486, Control_c, 0, 64, 98
1, 335501, Control_c, 0, 64, 87
1, 335515, Note_on_c, 0, 87, 100
1, 335516, Control_c, 0, 64, 72
1, 335517, Note_on_c, 0, 78, 102
1, 335519, Note_on_c, 0, 82, 95
1, 335522, Note_on_c, 0, 72, 75
1, 335526, Note_on_c, 0, 66, 55
1, 335526, Note_on_c, 0, 69, 66
1, 335526, Note_on_c, 0, 62, 67
1, 335530, Control_c, 0, 64, 35
1, 335545, Control_c, 0, 64, 0
1, 335560, Control_c, 0, 64, 58
1, 335575, Control_c, 0, 64, 69
1, 335590, Control_c, 0, 64, 78
1, 335604, Control_c, 0, 64, 87
1, 335610, Note_off_c, 0, 72, 63
1, 335610, Note_off_c, 0, 78, 60
1, 335619, Control_c, 0, 64, 90
1, 335634, Control_c, 0, 64, 91
1, 335636, Note_off_c, 0, 82, 62
1, 335642, Note_off_c, 0, 87, 60
1, 335649, Control_c, 0, 64, 92
1, 335664, Control_c, 0, 64, 92
1, 335678, Control_c, 0, 64, 93
1, 335693, Control_c, 0, 64, 94
1, 335708, Control_c, 0, 64, 95
1, 335711, Note_on_c, 0, 90, 105
1, 335715, Note_on_c, 0, 82, 100
1, 335716, Note_on_c, 0, 85, 90
1, 335723, Control_c, 0, 64, 96
1, 335729, Note_on_c, 0, 73, 80
1, 335738, Control_c, 0, 64, 97
1, 335753, Control_c, 0, 64, 99
1, 335768, Control_c, 0, 64, 101
1, 335783, Control_c, 0, 64, 104
1, 335798, Control_c, 0, 64, 106
1, 335811, Note_off_c, 0, 73, 60
1, 335812, Control_c, 0, 64, 107
1, 335814, Note_off_c, 0, 82, 59
1, 335814, Note_off_c, 0, 90, 61
1, 335827, Note_off_c, 0, 85, 63
1, 335827, Control_c, 0, 64, 108
1, 335882, Note_on_c, 0, 89, 98
1, 335885, Note_on_c, 0, 84, 91
1, 335887, Note_on_c, 0, 81, 98
1, 335895, Note_on_c, 0, 74, 76
1, 335958, Note_off_c, 0, 74, 61
1, 335964, Note_off_c, 0, 81, 58
1, 335967, Note_off_c, 0, 89, 62
1, 335997, Control_c, 0, 64, 108
1, 336010, Note_off_c, 0, 84, 62
1, 336040, Note_off_c, 0, 66, 0
1, 336040, Note_on_c, 0, 66, 4
1, 336061, Note_on_c, 0, 88, 94
1, 336064, Note_on_c, 0, 80, 98
1, 336069, Note_off_c, 0, 69, 53
1, 336077, Note_on_c, 0, 75, 82
1, 336082, Note_off_c, 0, 62, 48
1, 336105, Note_off_c, 0, 88, 66
1, 336115, Control_c, 0, 64, 109
1, 336117, Note_off_c, 0, 66, 59
1, 336118, Note_off_c, 0, 75, 60
1, 336130, Control_c, 0, 64, 116
1, 336133, Note_off_c, 0, 80, 55
1, 336144, Control_c, 0, 64, 127
1, 336234, Control_c, 0, 64, 119
1, 336249, Control_c, 0, 64, 90
1, 336252, Note_on_c, 0, 79, 92
1, 336254, Note_on_c, 0, 87, 101
1, 336254, Note_on_c, 0, 76, 108
1, 336256, Note_on_c, 0, 82, 92
1, 336264, Control_c, 0, 64, 68
1, 336266, Note_on_c, 0, 66, 78
1, 336267, Note_on_c, 0, 60, 74
1, 336269, Note_on_c, 0, 69, 93
1, 336279, Control_c, 0, 64, 43
1, 336294, Control_c, 0, 64, 72
1, 336298, Note_on_c, 0, 85, 43
1, 336308, Control_c, 0, 64, 104
1, 336323, Control_c, 0, 64, 127
1, 336335, Note_off_c, 0, 85, 48
1, 336352, Note_off_c, 0, 76, 68
1, 336354, Note_off_c, 0, 69, 64
1, 336363, Note_off_c, 0, 79, 65
1, 336365, Note_off_c, 0, 87, 66
1, 336370, Note_off_c, 0, 82, 66
1, 336377, Note_off_c, 0, 66, 65
1, 336385, Note_off_c, 0, 60, 62
1, 336501, Control_c, 0, 67, 9
1, 336516, Control_c, 0, 67, 21
1, 336531, Control_c, 0, 67, 40
1, 336546, Control_c, 0, 67, 60
1, 336560, Control_c, 0, 67, 76
1, 336575, Control_c, 0, 67, 82
1, 336590, Control_c, 0, 67, 88
1, 336605, Control_c, 0, 67, 98
1, 336620, Control_c, 0, 64, 119
1, 336620, Control_c, 0, 67, 112
1, 336634, Control_c, 0, 64, 115
1, 336634, Control_c, 0, 67, 127
1, 336649, Control_c, 0, 64, 114
1, 336664, Control_c, 0, 64, 113
1, 336686, Control_c, 0, 64, 111
1, 336701, Control_c, 0, 64, 109
1, 336716, Control_c, 0, 64, 107
1, 336731, Control_c, 0, 64, 103
1, 336745, Control_c, 0, 64, 96
1, 336760, Control_c, 0, 64, 88
1, 336775, Control_c, 0, 64, 80
1, 336790, Control_c, 0, 64, 70
1, 336805, Control_c, 0, 64, 57
1, 336820, Control_c, 0, 64, 0
1, 337131, Control_c, 0, 64, 25
1, 337146, Control_c, 0, 64, 44
1, 337161, Control_c, 0, 64, 51
1, 337176, Control_c, 0, 64, 55
1, 337190, Control_c, 0, 64, 58
1, 337205, Control_c, 0, 64, 60
1, 337220, Control_c, 0, 64, 62
1, 337235, Control_c, 0, 64, 63
1, 337250, Control_c, 0, 64, 65
1, 337264, Control_c, 0, 64, 66
1, 337279, Control_c, 0, 64, 67
1, 337294, Control_c, 0, 64, 69
1, 337309, Control_c, 0, 64, 71
1, 337324, Control_c, 0, 64, 73
1, 337339, Control_c, 0, 64, 75
1, 337354, Control_c, 0, 64, 77
1, 337368, Control_c, 0, 64, 78
1, 337383, Control_c, 0, 64, 80
1, 337398, Control_c, 0, 64, 81
1, 337413, Control_c, 0, 64, 81
1, 337435, Control_c, 0, 64, 82
1, 337450, Control_c, 0, 64, 83
1, 337464, Control_c, 0, 64, 84
1, 337479, Control_c, 0, 64, 84
1, 337494, Control_c, 0, 64, 85
1, 337509, Control_c, 0, 64, 86
1, 337523, Control_c, 0, 64, 87
1, 337538, Control_c, 0, 64, 88
1, 337553, Control_c, 0, 64, 88
1, 337568, Control_c, 0, 64, 89
1, 337583, Control_c, 0, 64, 89
1, 337598, Control_c, 0, 64, 90
1, 337613, Control_c, 0, 64, 90
1, 337637, Note_on_c, 0, 25, 34
1, 337643, Control_c, 0, 64, 91
1, 337657, Control_c, 0, 64, 91
1, 337672, Control_c, 0, 64, 92
1, 337687, Control_c, 0, 64, 92
1, 337702, Control_c, 0, 64, 93
1, 337716, Control_c, 0, 64, 93
1, 337746, Control_c, 0, 64, 94
1, 337776, Note_off_c, 0, 25, 31
1, 337777, Control_c, 0, 64, 94
1, 337836, Control_c, 0, 64, 95
1, 337880, Control_c, 0, 64, 95
1, 338013, Control_c, 0, 64, 96
1, 338310, Note_on_c, 0, 27, 41
1, 338353, Note_off_c, 0, 27, 53
1, 338361, Control_c, 0, 64, 96
1, 338987, Note_on_c, 0, 30, 44
1, 339113, Note_off_c, 0, 30, 27
1, 339717, Note_on_c, 0, 32, 39
1, 339776, Note_off_c, 0, 32, 44
1, 340421, Note_on_c, 0, 37, 42
1, 340433, Note_on_c, 0, 25, 41
1, 340495, Note_off_c, 0, 37, 49
1, 340582, Note_off_c, 0, 25, 29
1, 341111, Note_on_c, 0, 39, 46
1, 341128, Note_on_c, 0, 27, 31
1, 341243, Note_off_c, 0, 27, 38
1, 341247, Note_off_c, 0, 39, 34
1, 341791, Note_on_c, 0, 42, 48
1, 341793, Note_on_c, 0, 30, 45
1, 341905, Note_off_c, 0, 42, 42
1, 341998, Note_off_c, 0, 30, 40
1, 342484, Note_on_c, 0, 44, 49
1, 342485, Note_on_c, 0, 32, 44
1, 342570, Note_off_c, 0, 44, 54
1, 342713, Note_off_c, 0, 32, 37
1, 343181, Note_on_c, 0, 49, 65
1, 343189, Note_on_c, 0, 37, 52
1, 343190, Note_on_c, 0, 25, 50
1, 343287, Note_off_c, 0, 37, 0
1, 343324, Poly_aftertouch_c, 0, 37, 127
1, 343356, Note_off_c, 0, 25, 33
1, 343451, Note_off_c, 0, 49, 25
1, 343482, Poly_aftertouch_c, 0, 37, 0
1, 343752, Control_c, 0, 67, 123
1, 343767, Control_c, 0, 67, 117
1, 343782, Control_c, 0, 67, 112
1, 343797, Control_c, 0, 67, 108
1, 343812, Control_c, 0, 67, 104
1, 343826, Control_c, 0, 67, 99
1, 343841, Control_c, 0, 67, 94
1, 343856, Control_c, 0, 67, 90
1, 343861, Note_on_c, 0, 51, 65
1, 343870, Control_c, 0, 67, 86
1, 343880, Note_on_c, 0, 27, 51
1, 343881, Note_on_c, 0, 39, 49
1, 343885, Control_c, 0, 67, 82
1, 343900, Control_c, 0, 67, 79
1, 343915, Control_c, 0, 67, 74
1, 343930, Control_c, 0, 67, 70
1, 343944, Control_c, 0, 67, 64
1, 343959, Control_c, 0, 67, 58
1, 343974, Control_c, 0, 67, 52
1, 343989, Control_c, 0, 67, 46
1, 344004, Control_c, 0, 67, 39
1, 344019, Control_c, 0, 67, 32
1, 344034, Control_c, 0, 67, 26
1, 344040, Note_off_c, 0, 51, 28
1, 344046, Note_off_c, 0, 27, 34
1, 344049, Control_c, 0, 67, 19
1, 344064, Control_c, 0, 67, 15
1, 344078, Control_c, 0, 67, 11
1, 344093, Control_c, 0, 67, 8
1, 344108, Control_c, 0, 67, 0
1, 344305, Note_off_c, 0, 39, 34
1, 344544, Note_on_c, 0, 54, 71
1, 344568, Note_on_c, 0, 42, 56
1, 344579, Note_on_c, 0, 30, 50
1, 344710, Note_off_c, 0, 54, 38
1, 344757, Note_off_c, 0, 30, 37
1, 344941, Note_off_c, 0, 42, 40
1, 345248, Note_on_c, 0, 56, 77
1, 345266, Note_on_c, 0, 44, 62
1, 345269, Note_on_c, 0, 32, 62
1, 345322, Note_off_c, 0, 56, 59
1, 345353, Note_off_c, 0, 32, 47
1, 345548, Note_off_c, 0, 44, 37
1, 345956, Note_on_c, 0, 61, 91
1, 345968, Note_on_c, 0, 49, 80
1, 345972, Note_on_c, 0, 37, 72
1, 346004, Note_off_c, 0, 61, 62
1, 346049, Note_off_c, 0, 37, 56
1, 346213, Note_off_c, 0, 49, 38
1, 346642, Note_on_c, 0, 63, 99
1, 346659, Note_on_c, 0, 51, 87
1, 346664, Note_on_c, 0, 39, 79
1, 346686, Note_off_c, 0, 63, 64
1, 346714, Note_off_c, 0, 39, 51
1, 346714, Note_off_c, 0, 51, 59
1, 347313, Note_on_c, 0, 66, 111
1, 347325, Note_on_c, 0, 54, 86
1, 347331, Note_on_c, 0, 42, 84
1, 347354, Note_off_c, 0, 66, 62
1, 347376, Note_off_c, 0, 54, 60
1, 347386, Note_off_c, 0, 42, 55
1, 347993, Note_on_c, 0, 68, 109
1, 347998, Note_on_c, 0, 56, 92
1, 348004, Note_on_c, 0, 44, 82
1, 348022, Note_off_c, 0, 68, 67
1, 348044, Note_off_c, 0, 44, 60
1, 348044, Note_off_c, 0, 56, 62
1, 348546, Note_on_c, 0, 66, 42
1, 348696, Control_c, 0, 64, 95
1, 348697, Note_on_c, 0, 73, 89
1, 348700, Note_on_c, 0, 63, 97
1, 348705, Note_on_c, 0, 60, 87
1, 348705, Note_on_c, 0, 68, 86
1, 348705, Note_on_c, 0, 70, 92
1, 348705, Note_on_c, 0, 65, 82
1, 348708, Note_on_c, 0, 49, 78
1, 348711, Control_c, 0, 64, 88
1, 348714, Note_on_c, 0, 52, 76
1, 348714, Note_on_c, 0, 57, 73
1, 348716, Note_on_c, 0, 55, 74
1, 348720, Note_on_c, 0, 74, 74
1, 348726, Control_c, 0, 64, 74
1, 348735, Note_off_c, 0, 74, 66
1, 348740, Control_c, 0, 64, 0
1, 348767, Note_off_c, 0, 66, 15
1, 348814, Control_c, 0, 64, 53
1, 348829, Control_c, 0, 64, 70
1, 348844, Control_c, 0, 64, 77
1, 348859, Control_c, 0, 64, 80
1, 348873, Control_c, 0, 64, 81
1, 348888, Control_c, 0, 64, 81
1, 348903, Control_c, 0, 64, 82
1, 348918, Control_c, 0, 64, 83
1, 348933, Control_c, 0, 64, 85
1, 348949, Control_c, 0, 64, 85
1, 348963, Control_c, 0, 64, 86
1, 348998, Note_off_c, 0, 65, 57
1, 349008, Control_c, 0, 64, 86
1, 349023, Control_c, 0, 64, 87
1, 349032, Note_off_c, 0, 70, 47
1, 349037, Note_off_c, 0, 68, 55
1, 349043, Note_off_c, 0, 49, 30
1, 349047, Note_off_c, 0, 55, 35
1, 349052, Control_c, 0, 64, 87
1, 349053, Note_off_c, 0, 52, 40
1, 349063, Note_off_c, 0, 57, 33
1, 349067, Control_c, 0, 64, 88
1, 349096, Control_c, 0, 64, 88
1, 349167, Note_off_c, 0, 73, 53
1, 349211, Note_off_c, 0, 60, 43
1, 349229, Note_off_c, 0, 63, 56
1, 349375, Note_on_c, 0, 75, 103
1, 349379, Control_c, 0, 64, 84
1, 349381, Note_on_c, 0, 67, 86
1, 349382, Note_on_c, 0, 65, 93
1, 349384, Note_on_c, 0, 73, 92
1, 349388, Note_on_c, 0, 62, 89
1, 349390, Note_on_c, 0, 59, 80
1, 349393, Note_on_c, 0, 56, 75
1, 349393, Control_c, 0, 64, 73
1, 349394, Note_on_c, 0, 51, 75
1, 349399, Note_on_c, 0, 54, 67
1, 349416, Control_c, 0, 64, 0
1, 349475, Control_c, 0, 64, 54
1, 349489, Control_c, 0, 64, 69
1, 349504, Control_c, 0, 64, 77
1, 349519, Control_c, 0, 64, 82
1, 349534, Control_c, 0, 64, 83
1, 349563, Control_c, 0, 64, 84
1, 349578, Control_c, 0, 64, 84
1, 349584, Note_off_c, 0, 56, 51
1, 349593, Control_c, 0, 64, 85
1, 349604, Note_off_c, 0, 67, 58
1, 349608, Control_c, 0, 64, 86
1, 349623, Control_c, 0, 64, 87
1, 349627, Note_off_c, 0, 51, 34
1, 349629, Note_off_c, 0, 54, 29
1, 349638, Control_c, 0, 64, 88
1, 349638, Note_off_c, 0, 59, 35
1, 349653, Control_c, 0, 64, 90
1, 349668, Control_c, 0, 64, 91
1, 349683, Control_c, 0, 64, 91
1, 349684, Note_off_c, 0, 73, 35
1, 349697, Control_c, 0, 64, 92
1, 349708, Note_off_c, 0, 75, 60
1, 349727, Control_c, 0, 64, 92
1, 349787, Control_c, 0, 64, 93
1, 349823, Note_off_c, 0, 65, 42
1, 349845, Note_off_c, 0, 62, 37
1, 349906, Control_c, 0, 64, 93
1, 349980, Control_c, 0, 64, 94
1, 350035, Note_on_c, 0, 78, 97
1, 350043, Note_on_c, 0, 66, 93
1, 350044, Note_on_c, 0, 69, 83
1, 350047, Note_on_c, 0, 75, 84
1, 350048, Note_on_c, 0, 61, 83
1, 350048, Note_on_c, 0, 65, 89
1, 350048, Note_on_c, 0, 72, 78
1, 350052, Note_on_c, 0, 54, 78
1, 350054, Control_c, 0, 64, 89
1, 350055, Note_on_c, 0, 56, 72
1, 350068, Control_c, 0, 64, 75
1, 350083, Control_c, 0, 64, 0
1, 350142, Control_c, 0, 64, 26
1, 350164, Control_c, 0, 64, 67
1, 350179, Control_c, 0, 64, 76
1, 350193, Control_c, 0, 64, 82
1, 350208, Control_c, 0, 64, 84
1, 350223, Control_c, 0, 64, 84
1, 350238, Control_c, 0, 64, 85
1, 350243, Note_off_c, 0, 72, 58
1, 350253, Control_c, 0, 64, 86
1, 350267, Control_c, 0, 64, 87
1, 350273, Note_off_c, 0, 75, 55
1, 350279, Note_off_c, 0, 66, 0
1, 350279, Note_on_c, 0, 66, 7
1, 350281, Note_off_c, 0, 54, 38
1, 350282, Note_off_c, 0, 69, 59
1, 350282, Control_c, 0, 64, 88
1, 350297, Control_c, 0, 64, 89
1, 350306, Note_off_c, 0, 65, 50
1, 350312, Control_c, 0, 64, 90
1, 350316, Note_off_c, 0, 56, 32
1, 350326, Control_c, 0, 64, 91
1, 350341, Control_c, 0, 64, 91
1, 350347, Note_off_c, 0, 78, 57
1, 350371, Control_c, 0, 64, 92
1, 350386, Control_c, 0, 64, 92
1, 350431, Control_c, 0, 64, 93
1, 350434, Note_off_c, 0, 61, 42
1, 350516, Note_off_c, 0, 66, 42
1, 350550, Control_c, 0, 64, 93
1, 350672, Note_on_c, 0, 80, 96
1, 350673, Note_on_c, 0, 67, 96
1, 350677, Note_on_c, 0, 77, 91
1, 350681, Note_on_c, 0, 75, 89
1, 350682, Note_on_c, 0, 66, 99
1, 350687, Note_on_c, 0, 61, 77
1, 350689, Note_on_c, 0, 56, 83
1, 350690, Note_on_c, 0, 59, 73
1, 350702, Note_off_c, 0, 67, 65
1, 350730, Note_off_c, 0, 80, 67
1, 350736, Note_off_c, 0, 77, 61
1, 350736, Note_off_c, 0, 66, 58
1, 350739, Note_off_c, 0, 56, 58
1, 350745, Note_off_c, 0, 59, 57
1, 350745, Note_off_c, 0, 61, 52
1, 350751, Note_off_c, 0, 75, 63
1, 351328, Control_c, 0, 64, 88
1, 351329, Note_on_c, 0, 85, 96
1, 351331, Note_on_c, 0, 77, 70
1, 351336, Note_on_c, 0, 75, 93
1, 351338, Note_on_c, 0, 80, 84
1, 351339, Note_on_c, 0, 82, 93
1, 351343, Note_on_c, 0, 61, 81
1, 351343, Control_c, 0, 64, 72
1, 351345, Note_on_c, 0, 72, 92
1, 351349, Note_on_c, 0, 69, 81
1, 351352, Note_on_c, 0, 64, 72
1, 351352, Note_on_c, 0, 67, 72
1, 351358, Control_c, 0, 64, 0
1, 351476, Control_c, 0, 64, 56
1, 351491, Control_c, 0, 64, 71
1, 351506, Control_c, 0, 64, 79
1, 351521, Control_c, 0, 64, 85
1, 351536, Control_c, 0, 64, 86
1, 351551, Control_c, 0, 64, 86
1, 351563, Note_off_c, 0, 77, 60
1, 351565, Control_c, 0, 64, 88
1, 351580, Control_c, 0, 64, 90
1, 351585, Note_off_c, 0, 80, 57
1, 351593, Note_off_c, 0, 82, 52
1, 351595, Control_c, 0, 64, 92
1, 351610, Control_c, 0, 64, 96
1, 351624, Control_c, 0, 64, 99
1, 351639, Control_c, 0, 64, 102
1, 351642, Note_off_c, 0, 64, 56
1, 351645, Note_off_c, 0, 61, 54
1, 351662, Control_c, 0, 64, 103
1, 351666, Note_off_c, 0, 67, 48
1, 351668, Note_off_c, 0, 85, 61
1, 351670, Note_off_c, 0, 69, 56
1, 351677, Control_c, 0, 64, 104
1, 351691, Control_c, 0, 64, 105
1, 351706, Control_c, 0, 64, 106
1, 351721, Control_c, 0, 64, 107
1, 351736, Control_c, 0, 64, 107
1, 351751, Control_c, 0, 64, 108
1, 351765, Control_c, 0, 64, 108
1, 351787, Note_off_c, 0, 72, 51
1, 351798, Note_off_c, 0, 75, 55
1, 351825, Control_c, 0, 64, 109
1, 351978, Note_on_c, 0, 87, 106
1, 351984, Note_on_c, 0, 74, 92
1, 351984, Note_on_c, 0, 79, 95
1, 351984, Note_on_c, 0, 85, 92
1, 351984, Note_on_c, 0, 77, 92
1, 351989, Note_on_c, 0, 68, 75
1, 351989, Note_on_c, 0, 71, 81
1, 351990, Note_on_c, 0, 63, 81
1, 351993, Note_on_c, 0, 66, 77
1, 351996, Note_on_c, 0, 76, 65
1, 351997, Note_off_c, 0, 76, 127
1, 352015, Note_off_c, 0, 77, 58
1, 352038, Note_off_c, 0, 74, 52
1, 352067, Note_off_c, 0, 63, 57
1, 352068, Note_off_c, 0, 87, 56
1, 352087, Note_off_c, 0, 66, 48
1, 352092, Note_off_c, 0, 71, 53
1, 352109, Note_off_c, 0, 68, 56
1, 352154, Note_off_c, 0, 79, 52
1, 352314, Control_c, 0, 64, 109
1, 352342, Note_off_c, 0, 85, 57
1, 352699, Note_on_c, 0, 90, 98
1, 352702, Note_on_c, 0, 78, 108
1, 352705, Note_on_c, 0, 81, 92
1, 352705, Note_on_c, 0, 87, 92
1, 352708, Note_on_c, 0, 77, 97
1, 352708, Note_on_c, 0, 84, 84
1, 352709, Note_on_c, 0, 73, 88
1, 352714, Note_on_c, 0, 66, 84
1, 352717, Note_on_c, 0, 68, 78
1, 352911, Note_off_c, 0, 84, 57
1, 352932, Note_off_c, 0, 87, 52
1, 352941, Note_off_c, 0, 66, 52
1, 352957, Note_off_c, 0, 77, 47
1, 352957, Note_off_c, 0, 81, 51
1, 353007, Note_off_c, 0, 68, 40
1, 353056, Note_off_c, 0, 90, 59
1, 353097, Note_off_c, 0, 73, 32
1, 353145, Note_off_c, 0, 78, 57
1, 353412, Control_c, 0, 64, 108
1, 353414, Note_on_c, 0, 92, 100
1, 353415, Note_on_c, 0, 79, 100
1, 353418, Note_on_c, 0, 89, 88
1, 353421, Note_on_c, 0, 87, 89
1, 353422, Note_on_c, 0, 78, 100
1, 353427, Control_c, 0, 64, 98
1, 353430, Note_on_c, 0, 68, 87
1, 353433, Note_on_c, 0, 73, 76
1, 353436, Note_on_c, 0, 71, 70
1, 353442, Control_c, 0, 64, 83
1, 353456, Control_c, 0, 64, 64
1, 353471, Control_c, 0, 64, 0
1, 353501, Control_c, 0, 64, 62
1, 353516, Control_c, 0, 64, 74
1, 353530, Control_c, 0, 64, 89
1, 353545, Control_c, 0, 64, 99
1, 353552, Note_off_c, 0, 79, 48
1, 353560, Control_c, 0, 64, 101
1, 353575, Control_c, 0, 64, 101
1, 353615, Note_off_c, 0, 71, 47
1, 353659, Note_off_c, 0, 73, 60
1, 353660, Note_off_c, 0, 89, 51
1, 353671, Note_off_c, 0, 68, 56
1, 353780, Note_off_c, 0, 87, 47
1, 353798, Control_c, 0, 64, 102
1, 353821, Note_off_c, 0, 78, 54
1, 353955, Note_off_c, 0, 92, 59
1, 354013, Control_c, 0, 64, 102
1, 354101, Control_c, 0, 64, 103
1, 354131, Control_c, 0, 64, 103
1, 354146, Control_c, 0, 64, 104
1, 354160, Control_c, 0, 64, 105
1, 354175, Control_c, 0, 64, 105
1, 354190, Control_c, 0, 64, 107
1, 354205, Control_c, 0, 64, 108
1, 354220, Control_c, 0, 64, 110
1, 354234, Control_c, 0, 64, 111
1, 354267, Note_on_c, 0, 94, 105
1, 354272, Note_on_c, 0, 85, 108
1, 354273, Note_on_c, 0, 81, 96
1, 354274, Note_on_c, 0, 79, 90
1, 354276, Note_on_c, 0, 90, 95
1, 354279, Note_on_c, 0, 87, 90
1, 354279, Control_c, 0, 64, 109
1, 354280, Note_on_c, 0, 70, 77
1, 354285, Note_on_c, 0, 73, 75
1, 354285, Note_on_c, 0, 75, 75
1, 354294, Control_c, 0, 64, 95
1, 354309, Control_c, 0, 64, 78
1, 354324, Control_c, 0, 64, 46
1, 354334, Note_off_c, 0, 85, 0
1, 354339, Control_c, 0, 64, 0
1, 354365, Note_on_c, 0, 85, 32
1, 354369, Control_c, 0, 64, 49
1, 354383, Control_c, 0, 64, 71
1, 354398, Control_c, 0, 64, 80
1, 354413, Control_c, 0, 64, 88
1, 354428, Control_c, 0, 64, 90
1, 354443, Control_c, 0, 64, 90
1, 354458, Control_c, 0, 64, 91
1, 354473, Control_c, 0, 64, 92
1, 354487, Control_c, 0, 64, 93
1, 354502, Control_c, 0, 64, 94
1, 354517, Control_c, 0, 64, 96
1, 354533, Control_c, 0, 64, 96
1, 354547, Control_c, 0, 64, 97
1, 354562, Control_c, 0, 64, 97
1, 354577, Control_c, 0, 64, 98
1, 354592, Control_c, 0, 64, 98
1, 354592, Note_off_c, 0, 90, 29
1, 354606, Control_c, 0, 64, 99
1, 354621, Control_c, 0, 64, 100
1, 354631, Note_off_c, 0, 75, 38
1, 354636, Control_c, 0, 64, 100
1, 354658, Control_c, 0, 64, 101
1, 354673, Control_c, 0, 64, 102
1, 354688, Control_c, 0, 64, 103
1, 354702, Control_c, 0, 64, 104
1, 354706, Note_off_c, 0, 87, 33
1, 354728, Note_off_c, 0, 70, 51
1, 354732, Control_c, 0, 64, 104
1, 354762, Control_c, 0, 64, 105
1, 354791, Control_c, 0, 64, 105
1, 354835, Control_c, 0, 64, 106
1, 354865, Control_c, 0, 64, 106
1, 354880, Note_off_c, 0, 73, 25
1, 354880, Control_c, 0, 64, 107
1, 354900, Note_off_c, 0, 79, 30
1, 354939, Control_c, 0, 64, 107
1, 354944, Note_off_c, 0, 94, 25
1, 354965, Note_off_c, 0, 85, 42
1, 354967, Note_off_c, 0, 81, 24
1, 355013, Control_c, 0, 64, 108
1, 355087, Control_c, 0, 64, 108
1, 355147, Control_c, 0, 64, 109
1, 355162, Control_c, 0, 64, 109
1, 355176, Control_c, 0, 64, 110
1, 355191, Control_c, 0, 64, 111
1, 355206, Control_c, 0, 64, 113
1, 355221, Control_c, 0, 64, 115
1, 355235, Control_c, 0, 64, 117
1, 355250, Control_c, 0, 64, 118
1, 355265, Control_c, 0, 64, 119
1, 355272, Note_on_c, 0, 95, 102
1, 355275, Note_on_c, 0, 84, 105
1, 355278, Note_on_c, 0, 89, 94
1, 355281, Note_on_c, 0, 87, 99
1, 355284, Note_on_c, 0, 80, 94
1, 355285, Note_on_c, 0, 81, 103
1, 355287, Note_on_c, 0, 71, 86
1, 355293, Note_on_c, 0, 73, 83
1, 355294, Note_on_c, 0, 76, 82
1, 355295, Control_c, 0, 64, 118
1, 355309, Control_c, 0, 64, 116
1, 355325, Control_c, 0, 64, 103
1, 355340, Control_c, 0, 64, 81
1, 355355, Control_c, 0, 64, 46
1, 355370, Control_c, 0, 64, 0
1, 355370, Control_c, 0, 67, 9
1, 355385, Control_c, 0, 67, 14
1, 355406, Control_c, 0, 67, 16
1, 355421, Control_c, 0, 67, 16
1, 355436, Control_c, 0, 67, 14
1, 355451, Control_c, 0, 67, 12
1, 355466, Control_c, 0, 67, 11
1, 355480, Control_c, 0, 67, 11
1, 355495, Control_c, 0, 67, 10
1, 355510, Control_c, 0, 67, 9
1, 355525, Control_c, 0, 67, 8
1, 355540, Control_c, 0, 64, 40
1, 355540, Control_c, 0, 67, 8
1, 355555, Control_c, 0, 64, 60
1, 355555, Control_c, 0, 67, 0
1, 355570, Control_c, 0, 64, 63
1, 355585, Control_c, 0, 64, 65
1, 355600, Control_c, 0, 64, 68
1, 355614, Control_c, 0, 64, 72
1, 355629, Control_c, 0, 64, 78
1, 355644, Control_c, 0, 64, 83
1, 355658, Control_c, 0, 64, 84
1, 355673, Control_c, 0, 64, 85
1, 355688, Control_c, 0, 64, 85
1, 355703, Control_c, 0, 64, 86
1, 355718, Control_c, 0, 64, 88
1, 355732, Control_c, 0, 64, 90
1, 355747, Control_c, 0, 64, 91
1, 355762, Control_c, 0, 64, 92
1, 355777, Control_c, 0, 64, 93
1, 355792, Control_c, 0, 64, 94
1, 355806, Control_c, 0, 64, 95
1, 355821, Control_c, 0, 64, 96
1, 355836, Control_c, 0, 64, 97
1, 355850, Control_c, 0, 64, 98
1, 355865, Control_c, 0, 64, 99
1, 355880, Control_c, 0, 64, 100
1, 355895, Control_c, 0, 64, 101
1, 355910, Control_c, 0, 64, 101
1, 355925, Control_c, 0, 64, 102
1, 355940, Control_c, 0, 64, 102
1, 355954, Control_c, 0, 64, 103
1, 355984, Control_c, 0, 64, 103
1, 356014, Control_c, 0, 64, 104
1, 356058, Control_c, 0, 64, 104
1, 356119, Control_c, 0, 64, 105
1, 356186, Control_c, 0, 64, 105
1, 356260, Control_c, 0, 64, 106
1, 356334, Control_c, 0, 64, 106
1, 356363, Control_c, 0, 64, 107
1, 356393, Control_c, 0, 64, 107
1, 356423, Control_c, 0, 64, 108
1, 356437, Control_c, 0, 64, 108
1, 356467, Control_c, 0, 64, 109
1, 356482, Control_c, 0, 64, 109
1, 356512, Control_c, 0, 64, 110
1, 356527, Control_c, 0, 64, 110
1, 356556, Control_c, 0, 64, 111
1, 356583, Note_off_c, 0, 76, 37
1, 356585, Note_off_c, 0, 81, 40
1, 356586, Control_c, 0, 64, 111
1, 356615, Control_c, 0, 64, 112
1, 356631, Note_off_c, 0, 80, 50
1, 356645, Control_c, 0, 64, 112
1, 356674, Control_c, 0, 64, 113
1, 356694, Note_off_c, 0, 71, 43
1, 356719, Control_c, 0, 64, 113
1, 356762, Note_off_c, 0, 73, 31
1, 356766, Note_off_c, 0, 84, 44
1, 356778, Control_c, 0, 64, 114
1, 356791, Note_off_c, 0, 95, 34
1, 356840, Note_off_c, 0, 87, 27
1, 356865, Note_off_c, 0, 89, 23
1, 356881, Control_c, 0, 64, 114
1, 357245, Control_c, 0, 64, 114
1, 357497, Control_c, 0, 64, 113
1, 357557, Control_c, 0, 64, 113
1, 357586, Control_c, 0, 64, 112
1, 357616, Control_c, 0, 64, 112
1, 357668, Control_c, 0, 64, 111
1, 357712, Control_c, 0, 64, 111
1, 357743, Control_c, 0, 64, 110
1, 357773, Control_c, 0, 64, 110
1, 357802, Control_c, 0, 64, 109
1, 357817, Control_c, 0, 64, 109
1, 357832, Control_c, 0, 64, 108
1, 357861, Control_c, 0, 64, 108
1, 357876, Control_c, 0, 64, 107
1, 357891, Control_c, 0, 64, 107
1, 357906, Control_c, 0, 64, 106
1, 357921, Control_c, 0, 64, 105
1, 357935, Control_c, 0, 64, 101
1, 357950, Control_c, 0, 64, 96
1, 357965, Control_c, 0, 64, 88
1, 357980, Control_c, 0, 64, 79
1, 357995, Control_c, 0, 64, 68
1, 358009, Control_c, 0, 64, 0
1, 358360, Note_on_c, 0, 21, 52
1, 358371, Note_on_c, 0, 92, 73
1, 358379, Note_on_c, 0, 87, 58
1, 358385, Note_on_c, 0, 23, 46
1, 358403, Note_off_c, 0, 87, 62
1, 358405, Note_off_c, 0, 92, 65
1, 358440, Note_off_c, 0, 21, 52
1, 358446, Note_off_c, 0, 23, 55
1, 358503, Note_on_c, 0, 91, 59
1, 358508, Note_on_c, 0, 86, 38
1, 358519, Note_on_c, 0, 31, 36
1, 358521, Note_off_c, 0, 91, 60
1, 358538, Note_off_c, 0, 86, 48
1, 358548, Note_off_c, 0, 31, 51
1, 358614, Note_on_c, 0, 93, 92
1, 358617, Note_on_c, 0, 28, 63
1, 358624, Note_on_c, 0, 33, 59
1, 358625, Note_on_c, 0, 88, 66
1, 358640, Note_off_c, 0, 93, 59
1, 358643, Note_off_c, 0, 88, 41
1, 358652, Note_off_c, 0, 28, 60
1, 358655, Note_off_c, 0, 33, 65
1, 358735, Note_on_c, 0, 92, 78
1, 358746, Note_on_c, 0, 34, 55
1, 358747, Note_on_c, 0, 32, 56
1, 358748, Note_on_c, 0, 87, 54
1, 358758, Note_off_c, 0, 92, 65
1, 358771, Note_off_c, 0, 87, 38
1, 358777, Note_off_c, 0, 34, 65
1, 358778, Note_off_c, 0, 32, 63
1, 358857, Note_on_c, 0, 91, 74
1, 358860, Note_on_c, 0, 33, 57
1, 358867, Note_on_c, 0, 86, 52
1, 358882, Note_off_c, 0, 91, 64
1, 358888, Note_off_c, 0, 86, 59
1, 358891, Note_off_c, 0, 33, 65
1, 358975, Note_on_c, 0, 88, 88
1, 358975, Note_on_c, 0, 93, 92
1, 358976, Note_on_c, 0, 32, 68
1, 358983, Note_on_c, 0, 34, 57
1, 359003, Note_off_c, 0, 93, 62
1, 359004, Note_off_c, 0, 88, 62
1, 359016, Note_off_c, 0, 32, 63
1, 359017, Note_off_c, 0, 34, 63
1, 359093, Note_on_c, 0, 90, 80
1, 359105, Note_on_c, 0, 85, 59
1, 359107, Note_on_c, 0, 33, 46
1, 359113, Note_on_c, 0, 28, 51
1, 359122, Note_off_c, 0, 90, 63
1, 359123, Note_off_c, 0, 85, 64
1, 359140, Note_off_c, 0, 33, 50
1, 359144, Note_off_c, 0, 28, 55
1, 359223, Note_on_c, 0, 88, 74
1, 359223, Note_on_c, 0, 93, 85
1, 359235, Note_on_c, 0, 27, 68
1, 359239, Note_off_c, 0, 88, 68
1, 359245, Note_on_c, 0, 31, 50
1, 359250, Note_off_c, 0, 93, 61
1, 359271, Note_off_c, 0, 27, 66
1, 359277, Note_off_c, 0, 31, 59
1, 359335, Note_on_c, 0, 21, 63
1, 359338, Note_on_c, 0, 96, 82
1, 359342, Note_on_c, 0, 91, 72
1, 359356, Note_off_c, 0, 91, 64
1, 359358, Note_on_c, 0, 23, 48
1, 359359, Note_off_c, 0, 96, 66
1, 359403, Note_off_c, 0, 23, 59
1, 359407, Note_off_c, 0, 21, 57
1, 359443, Note_on_c, 0, 31, 60
1, 359453, Note_on_c, 0, 91, 74
1, 359456, Note_on_c, 0, 96, 77
1, 359475, Note_off_c, 0, 96, 65
1, 359477, Note_off_c, 0, 31, 63
1, 359477, Note_off_c, 0, 91, 62
1, 359576, Note_on_c, 0, 33, 47
1, 359577, Note_on_c, 0, 91, 66
1, 359583, Note_on_c, 0, 96, 51
1, 359594, Note_off_c, 0, 91, 62
1, 359605, Note_off_c, 0, 96, 52
1, 359606, Note_off_c, 0, 33, 60
1, 359650, Poly_aftertouch_c, 0, 28, 0
1, 359670, Control_c, 0, 64, 82
1, 359685, Note_on_c, 0, 96, 93
1, 359685, Control_c, 0, 64, 102
1, 359687, Note_on_c, 0, 91, 94
1, 359690, Note_on_c, 0, 32, 72
1, 359691, Note_on_c, 0, 34, 67
1, 359699, Control_c, 0, 64, 102
1, 359714, Control_c, 0, 64, 97
1, 359715, Note_off_c, 0, 91, 64
1, 359717, Note_off_c, 0, 96, 64
1, 359723, Note_off_c, 0, 34, 63
1, 359725, Note_off_c, 0, 32, 61
1, 359729, Control_c, 0, 64, 94
1, 359744, Control_c, 0, 64, 82
1, 359759, Control_c, 0, 64, 67
1, 359773, Control_c, 0, 64, 0
1, 359803, Note_on_c, 0, 33, 64
1, 359811, Note_on_c, 0, 92, 78
1, 359815, Note_on_c, 0, 87, 70
1, 359837, Note_off_c, 0, 87, 69
1, 359839, Note_off_c, 0, 92, 62
1, 359844, Note_off_c, 0, 33, 65
1, 359921, Note_on_c, 0, 91, 86
1, 359923, Note_on_c, 0, 86, 75
1, 359934, Note_on_c, 0, 32, 53
1, 359936, Note_on_c, 0, 34, 51
1, 359946, Note_off_c, 0, 86, 68
1, 359964, Note_off_c, 0, 91, 58
1, 359973, Note_off_c, 0, 32, 63
1, 359987, Note_off_c, 0, 34, 59
1, 360037, Note_on_c, 0, 88, 92
1, 360040, Note_on_c, 0, 93, 91
1, 360045, Note_on_c, 0, 28, 68
1, 360047, Note_on_c, 0, 33, 52
1, 360073, Note_off_c, 0, 88, 65
1, 360074, Note_off_c, 0, 93, 59
1, 360077, Note_off_c, 0, 33, 56
1, 360079, Note_off_c, 0, 28, 64
1, 360155, Note_on_c, 0, 85, 76
1, 360157, Note_on_c, 0, 90, 75
1, 360163, Note_on_c, 0, 31, 58
1, 360177, Note_on_c, 0, 29, 46
1, 360178, Note_off_c, 0, 85, 68
1, 360190, Note_off_c, 0, 90, 59
1, 360209, Note_off_c, 0, 31, 61
1, 360215, Note_off_c, 0, 29, 47
1, 360249, Note_on_c, 0, 21, 76
1, 360261, Note_on_c, 0, 88, 101
1, 360263, Note_on_c, 0, 27, 70
1, 360263, Note_on_c, 0, 93, 99
1, 360271, Control_c, 0, 64, 88
1, 360276, Note_off_c, 0, 21, 62
1, 360280, Note_off_c, 0, 93, 67
1, 360286, Control_c, 0, 64, 127
1, 360291, Note_off_c, 0, 27, 66
1, 360292, Note_off_c, 0, 88, 65
1, 360436, Note_on_c, 0, 79, 72
1, 360480, Note_on_c, 0, 62, 59
1, 360485, Note_on_c, 0, 68, 25
1, 360486, Note_on_c, 0, 81, 76
1, 360493, Note_on_c, 0, 74, 36
1, 360493, Note_off_c, 0, 79, 63
1, 360500, Note_on_c, 0, 76, 58
1, 360514, Poly_aftertouch_c, 0, 80, 0
1, 360519, Note_off_c, 0, 68, 55
1, 360522, Note_off_c, 0, 76, 65
1, 360529, Note_off_c, 0, 74, 58
1, 360541, Note_on_c, 0, 84, 79
1, 360558, Note_off_c, 0, 81, 61
1, 360564, Note_off_c, 0, 62, 38
1, 360567, Note_on_c, 0, 66, 71
1, 360580, Note_off_c, 0, 84, 63
1, 360593, Note_off_c, 0, 66, 70
1, 360615, Note_on_c, 0, 90, 106
1, 360617, Note_on_c, 0, 78, 118
1, 360618, Note_on_c, 0, 82, 105
1, 360622, Note_on_c, 0, 87, 98
1, 360630, Note_on_c, 0, 63, 89
1, 360631, Note_on_c, 0, 75, 84
1, 360637, Note_on_c, 0, 71, 80
1, 360651, Note_off_c, 0, 63, 68
1, 360652, Note_off_c, 0, 78, 69
1, 360654, Note_off_c, 0, 75, 70
1, 360657, Note_on_c, 0, 67, 59
1, 360658, Note_on_c, 0, 76, 48
1, 360659, Note_off_c, 0, 76, 127
1, 360663, Note_off_c, 0, 71, 71
1, 360665, Note_off_c, 0, 90, 64
1, 360670, Note_off_c, 0, 82, 68
1, 360675, Note_off_c, 0, 87, 66
1, 360678, Note_on_c, 0, 62, 53
1, 360685, Note_off_c, 0, 67, 65
1, 360699, Note_off_c, 0, 62, 60
1, 360932, Note_on_c, 0, 21, 76
1, 360935, Note_on_c, 0, 92, 87
1, 360938, Note_on_c, 0, 87, 88
1, 360945, Control_c, 0, 64, 113
1, 360956, Note_off_c, 0, 87, 69
1, 360958, Note_off_c, 0, 92, 62
1, 360960, Control_c, 0, 64, 102
1, 360971, Note_on_c, 0, 22, 28
1, 360975, Control_c, 0, 64, 92
1, 360990, Control_c, 0, 64, 78
1, 360995, Note_off_c, 0, 21, 54
1, 360998, Note_off_c, 0, 22, 46
1, 361005, Control_c, 0, 64, 64
1, 361019, Control_c, 0, 64, 0
1, 361046, Note_on_c, 0, 31, 61
1, 361053, Note_on_c, 0, 93, 80
1, 361057, Note_on_c, 0, 88, 67
1, 361073, Note_off_c, 0, 88, 64
1, 361077, Note_off_c, 0, 93, 66
1, 361078, Note_off_c, 0, 31, 63
1, 361156, Note_on_c, 0, 96, 92
1, 361163, Note_on_c, 0, 91, 84
1, 361183, Note_off_c, 0, 91, 67
1, 361189, Note_on_c, 0, 33, 38
1, 361192, Note_off_c, 0, 96, 66
1, 361228, Note_off_c, 0, 33, 53
1, 361269, Poly_aftertouch_c, 0, 31, 0
1, 361271, Poly_aftertouch_c, 0, 28, 0
1, 361282, Note_on_c, 0, 96, 76
1, 361283, Note_on_c, 0, 91, 76
1, 361305, Note_off_c, 0, 96, 66
1, 361306, Note_off_c, 0, 91, 63
1, 361380, Note_on_c, 0, 33, 49
1, 361404, Note_on_c, 0, 96, 83
1, 361407, Note_on_c, 0, 38, 54
1, 361410, Note_on_c, 0, 91, 67
1, 361427, Note_off_c, 0, 91, 62
1, 361430, Note_off_c, 0, 96, 59
1, 361433, Note_off_c, 0, 33, 65
1, 361442, Note_off_c, 0, 38, 64
1, 361511, Note_on_c, 0, 34, 62
1, 361520, Note_on_c, 0, 91, 79
1, 361521, Note_on_c, 0, 32, 56
1, 361523, Note_on_c, 0, 96, 85
1, 361550, Note_off_c, 0, 91, 61
1, 361552, Note_off_c, 0, 34, 64
1, 361553, Note_off_c, 0, 96, 59
1, 361560, Note_off_c, 0, 32, 63
1, 361632, Note_on_c, 0, 33, 52
1, 361635, Note_on_c, 0, 97, 76
1, 361636, Note_on_c, 0, 92, 80
1, 361648, Note_on_c, 0, 28, 54
1, 361661, Note_off_c, 0, 33, 60
1, 361661, Note_off_c, 0, 92, 64
1, 361669, Note_off_c, 0, 97, 58
1, 361679, Note_off_c, 0, 28, 61
1, 361744, Note_on_c, 0, 98, 88
1, 361747, Note_on_c, 0, 93, 84
1, 361755, Note_on_c, 0, 27, 65
1, 361767, Note_on_c, 0, 31, 47
1, 361772, Note_off_c, 0, 93, 62
1, 361789, Note_off_c, 0, 98, 65
1, 361801, Note_off_c, 0, 27, 62
1, 361806, Note_off_c, 0, 31, 60
1, 361865, Note_on_c, 0, 91, 104
1, 361865, Note_on_c, 0, 96, 102
1, 361871, Control_c, 0, 64, 64
1, 361872, Note_on_c, 0, 21, 64
1, 361873, Note_on_c, 0, 23, 60
1, 361886, Control_c, 0, 64, 106
1, 361900, Control_c, 0, 64, 127
1, 361904, Note_off_c, 0, 96, 64
1, 361942, Note_off_c, 0, 91, 58
1, 361974, Note_off_c, 0, 23, 54
1, 361977, Note_off_c, 0, 21, 56
1, 361988, Note_on_c, 0, 31, 64
1, 362032, Note_off_c, 0, 31, 62
1, 362095, Note_on_c, 0, 92, 87
1, 362101, Note_on_c, 0, 87, 90
1, 362110, Note_on_c, 0, 28, 60
1, 362113, Note_on_c, 0, 33, 63
1, 362146, Control_c, 0, 64, 103
1, 362158, Note_off_c, 0, 33, 63
1, 362159, Note_off_c, 0, 28, 60
1, 362161, Control_c, 0, 64, 82
1, 362164, Note_off_c, 0, 87, 62
1, 362175, Control_c, 0, 64, 51
1, 362185, Note_off_c, 0, 92, 66
1, 362190, Control_c, 0, 64, 0
1, 362219, Control_c, 0, 64, 63
1, 362227, Note_on_c, 0, 34, 79
1, 362229, Note_on_c, 0, 91, 104
1, 362232, Note_on_c, 0, 86, 93
1, 362233, Note_on_c, 0, 32, 70
1, 362234, Control_c, 0, 64, 82
1, 362249, Control_c, 0, 64, 103
1, 362258, Note_off_c, 0, 34, 65
1, 362259, Note_off_c, 0, 32, 65
1, 362264, Control_c, 0, 64, 121
1, 362274, Note_off_c, 0, 91, 63
1, 362279, Control_c, 0, 64, 122
1, 362289, Note_off_c, 0, 86, 66
1, 362408, Note_on_c, 0, 79, 65
1, 362426, Note_on_c, 0, 62, 71
1, 362434, Note_on_c, 0, 70, 44
1, 362440, Note_on_c, 0, 81, 61
1, 362441, Note_on_c, 0, 76, 63
1, 362447, Note_on_c, 0, 74, 50
1, 362456, Control_c, 0, 64, 122
1, 362459, Note_off_c, 0, 70, 56
1, 362468, Note_off_c, 0, 74, 64
1, 362470, Note_off_c, 0, 79, 63
1, 362471, Note_off_c, 0, 76, 55
1, 362490, Note_off_c, 0, 62, 58
1, 362500, Note_on_c, 0, 84, 80
1, 362510, Note_on_c, 0, 66, 75
1, 362516, Control_c, 0, 64, 121
1, 362523, Note_off_c, 0, 81, 62
1, 362539, Note_off_c, 0, 84, 67
1, 362558, Note_off_c, 0, 66, 64
1, 362561, Control_c, 0, 64, 121
1, 362583, Note_on_c, 0, 78, 114
1, 362584, Note_on_c, 0, 90, 108
1, 362587, Note_on_c, 0, 82, 100
1, 362589, Note_on_c, 0, 87, 98
1, 362590, Note_on_c, 0, 75, 95
1, 362592, Note_on_c, 0, 70, 85
1, 362594, Note_on_c, 0, 66, 82
1, 362596, Poly_aftertouch_c, 0, 69, 0
1, 362600, Note_on_c, 0, 61, 84
1, 362605, Control_c, 0, 64, 121
1, 362607, Note_off_c, 0, 75, 74
1, 362615, Note_off_c, 0, 78, 71
1, 362621, Note_off_c, 0, 70, 62
1, 362626, Note_off_c, 0, 90, 64
1, 362637, Note_off_c, 0, 82, 65
1, 362639, Note_off_c, 0, 87, 68
1, 362641, Note_off_c, 0, 66, 65
1, 362650, Control_c, 0, 64, 122
1, 362660, Note_off_c, 0, 61, 62
1, 362664, Control_c, 0, 64, 124
1, 362679, Control_c, 0, 64, 126
1, 362694, Control_c, 0, 64, 127
1, 362933, Note_on_c, 0, 96, 104
1, 362937, Note_on_c, 0, 91, 104
1, 362963, Note_off_c, 0, 91, 59
1, 362968, Control_c, 0, 64, 127
1, 362971, Note_off_c, 0, 96, 65
1, 362983, Control_c, 0, 64, 124
1, 362998, Control_c, 0, 64, 121
1, 363013, Control_c, 0, 64, 116
1, 363028, Control_c, 0, 64, 109
1, 363042, Poly_aftertouch_c, 0, 21, 0
1, 363042, Control_c, 0, 64, 100
1, 363047, Note_on_c, 0, 31, 67
1, 363057, Control_c, 0, 64, 89
1, 363061, Note_on_c, 0, 88, 74
1, 363062, Note_on_c, 0, 93, 83
1, 363072, Control_c, 0, 64, 75
1, 363087, Control_c, 0, 64, 42
1, 363088, Note_off_c, 0, 88, 64
1, 363088, Note_off_c, 0, 93, 63
1, 363088, Note_off_c, 0, 31, 64
1, 363102, Control_c, 0, 64, 0
1, 363185, Note_on_c, 0, 28, 60
1, 363191, Note_on_c, 0, 33, 49
1, 363192, Note_on_c, 0, 91, 71
1, 363192, Note_on_c, 0, 96, 71
1, 363210, Note_off_c, 0, 91, 63
1, 363210, Note_off_c, 0, 96, 66
1, 363218, Note_off_c, 0, 28, 61
1, 363221, Note_off_c, 0, 33, 59
1, 363302, Note_on_c, 0, 96, 79
1, 363305, Note_on_c, 0, 91, 75
1, 363311, Note_on_c, 0, 34, 54
1, 363316, Note_on_c, 0, 32, 52
1, 363329, Note_off_c, 0, 91, 66
1, 363342, Note_off_c, 0, 96, 63
1, 363348, Note_off_c, 0, 34, 64
1, 363349, Note_off_c, 0, 32, 62
1, 363423, Note_on_c, 0, 33, 59
1, 363427, Note_on_c, 0, 91, 77
1, 363431, Note_on_c, 0, 38, 40
1, 363434, Note_on_c, 0, 96, 64
1, 363449, Note_off_c, 0, 91, 66
1, 363450, Note_off_c, 0, 96, 62
1, 363454, Note_off_c, 0, 33, 64
1, 363463, Note_off_c, 0, 38, 54
1, 363545, Note_on_c, 0, 91, 78
1, 363545, Note_on_c, 0, 96, 70
1, 363549, Note_on_c, 0, 32, 52
1, 363550, Note_on_c, 0, 34, 42
1, 363574, Note_off_c, 0, 91, 57
1, 363586, Note_off_c, 0, 96, 62
1, 363588, Note_off_c, 0, 34, 57
1, 363592, Note_off_c, 0, 32, 60
1, 363678, Note_on_c, 0, 28, 75
1, 363685, Note_on_c, 0, 91, 97
1, 363686, Note_on_c, 0, 96, 101
1, 363694, Note_on_c, 0, 33, 41
1, 363702, Control_c, 0, 64, 70
1, 363717, Note_off_c, 0, 28, 64
1, 363717, Control_c, 0, 64, 109
1, 363732, Note_off_c, 0, 33, 54
1, 363732, Control_c, 0, 64, 127
1, 363798, Note_on_c, 0, 27, 71
1, 363818, Note_on_c, 0, 31, 54
1, 363856, Note_off_c, 0, 27, 62
1, 363862, Note_off_c, 0, 31, 58
1, 363862, Note_off_c, 0, 96, 51
1, 363866, Control_c, 0, 64, 121
1, 363870, Note_off_c, 0, 91, 56
1, 363880, Control_c, 0, 64, 102
1, 363895, Control_c, 0, 64, 82
1, 363910, Control_c, 0, 64, 0
1, 363927, Note_on_c, 0, 21, 63
1, 363936, Note_on_c, 0, 23, 53
1, 363938, Note_on_c, 0, 93, 86
1, 363947, Note_on_c, 0, 88, 64
1, 363965, Note_off_c, 0, 88, 61
1, 363981, Note_off_c, 0, 23, 60
1, 363981, Note_off_c, 0, 93, 62
1, 363988, Note_off_c, 0, 21, 56
1, 364042, Note_on_c, 0, 31, 59
1, 364064, Note_on_c, 0, 97, 74
1, 364067, Note_on_c, 0, 92, 74
1, 364073, Note_off_c, 0, 31, 63
1, 364092, Note_off_c, 0, 92, 68
1, 364095, Note_off_c, 0, 97, 60
1, 364179, Note_on_c, 0, 28, 52
1, 364179, Note_on_c, 0, 33, 47
1, 364187, Note_on_c, 0, 96, 76
1, 364192, Note_on_c, 0, 91, 67
1, 364211, Note_off_c, 0, 33, 61
1, 364215, Note_off_c, 0, 28, 61
1, 364217, Note_off_c, 0, 91, 64
1, 364218, Note_off_c, 0, 96, 57
1, 364315, Note_on_c, 0, 93, 105
1, 364315, Note_on_c, 0, 98, 103
1, 364329, Note_on_c, 0, 32, 64
1, 364333, Note_on_c, 0, 34, 55
1, 364340, Control_c, 0, 64, 93
1, 364355, Control_c, 0, 64, 127
1, 364361, Note_off_c, 0, 32, 63
1, 364367, Note_off_c, 0, 34, 65
1, 364379, Note_off_c, 0, 93, 0
1, 364401, Note_on_c, 0, 93, 57
1, 364409, Note_off_c, 0, 98, 49
1, 364446, Note_on_c, 0, 38, 54
1, 364460, Note_on_c, 0, 33, 52
1, 364467, Control_c, 0, 64, 112
1, 364482, Control_c, 0, 64, 91
1, 364487, Note_off_c, 0, 38, 60
1, 364492, Note_off_c, 0, 33, 64
1, 364496, Control_c, 0, 64, 69
1, 364511, Control_c, 0, 64, 0
1, 364521, Note_off_c, 0, 93, 57
1, 364571, Note_on_c, 0, 34, 50
1, 364573, Note_on_c, 0, 32, 57
1, 364573, Note_on_c, 0, 96, 82
1, 364578, Note_on_c, 0, 91, 71
1, 364603, Note_off_c, 0, 91, 63
1, 364610, Note_off_c, 0, 96, 62
1, 364611, Note_off_c, 0, 32, 64
1, 364611, Note_off_c, 0, 34, 62
1, 364688, Note_on_c, 0, 28, 61
1, 364689, Note_on_c, 0, 33, 45
1, 364695, Note_on_c, 0, 97, 77
1, 364697, Note_on_c, 0, 92, 75
1, 364723, Note_off_c, 0, 33, 49
1, 364726, Note_off_c, 0, 28, 62
1, 364727, Note_off_c, 0, 92, 62
1, 364734, Note_off_c, 0, 97, 59
1, 364811, Note_on_c, 0, 98, 103
1, 364814, Note_on_c, 0, 27, 83
1, 364814, Note_on_c, 0, 93, 104
1, 364832, Note_on_c, 0, 31, 58
1, 364837, Control_c, 0, 64, 59
1, 364840, Note_on_c, 0, 29, 53
1, 364849, Note_off_c, 0, 93, 64
1, 364852, Control_c, 0, 64, 127
1, 364860, Note_off_c, 0, 98, 65
1, 364883, Note_off_c, 0, 29, 47
1, 364885, Note_off_c, 0, 27, 63
1, 364888, Note_off_c, 0, 31, 62
1, 364933, Note_on_c, 0, 23, 61
1, 364939, Note_on_c, 0, 91, 90
1, 364940, Note_on_c, 0, 96, 88
1, 364942, Note_on_c, 0, 21, 65
1, 364975, Note_on_c, 0, 24, 23
1, 364978, Note_off_c, 0, 96, 64
1, 364983, Note_off_c, 0, 91, 61
1, 364989, Note_off_c, 0, 21, 53
1, 364998, Note_on_c, 0, 31, 78
1, 364998, Note_off_c, 0, 23, 62
1, 365020, Note_off_c, 0, 24, 50
1, 365025, Note_off_c, 0, 31, 63
1, 365127, Note_on_c, 0, 79, 59
1, 365180, Note_on_c, 0, 81, 80
1, 365186, Control_c, 0, 64, 106
1, 365198, Note_off_c, 0, 79, 64
1, 365200, Control_c, 0, 64, 77
1, 365215, Control_c, 0, 64, 0
1, 365228, Note_on_c, 0, 84, 75
1, 365237, Note_on_c, 0, 76, 23
1, 365238, Note_off_c, 0, 76, 127
1, 365238, Note_on_c, 0, 69, 44
1, 365240, Note_on_c, 0, 66, 57
1, 365242, Note_off_c, 0, 81, 62
1, 365250, Note_off_c, 0, 84, 71
1, 365261, Note_off_c, 0, 66, 66
1, 365265, Note_off_c, 0, 69, 48
1, 365275, Control_c, 0, 64, 70
1, 365287, Note_on_c, 0, 78, 109
1, 365288, Note_on_c, 0, 90, 104
1, 365290, Note_on_c, 0, 82, 97
1, 365290, Control_c, 0, 64, 96
1, 365295, Note_on_c, 0, 75, 97
1, 365301, Note_on_c, 0, 87, 84
1, 365302, Note_on_c, 0, 70, 82
1, 365305, Control_c, 0, 64, 127
1, 365312, Note_on_c, 0, 61, 68
1, 365329, Note_on_c, 0, 67, 42
1, 365337, Note_off_c, 0, 61, 60
1, 365357, Note_off_c, 0, 67, 52
1, 365362, Note_off_c, 0, 78, 60
1, 365363, Note_off_c, 0, 75, 61
1, 365376, Note_off_c, 0, 82, 60
1, 365376, Note_off_c, 0, 87, 56
1, 365376, Note_off_c, 0, 90, 63
1, 365416, Note_off_c, 0, 70, 49
1, 365431, Note_on_c, 0, 79, 81
1, 365446, Note_on_c, 0, 76, 60
1, 365453, Note_on_c, 0, 62, 55
1, 365453, Control_c, 0, 64, 113
1, 365458, Note_on_c, 0, 74, 57
1, 365467, Note_on_c, 0, 81, 75
1, 365467, Control_c, 0, 64, 86
1, 365476, Note_off_c, 0, 74, 65
1, 365479, Note_off_c, 0, 76, 54
1, 365482, Control_c, 0, 64, 22
1, 365484, Note_off_c, 0, 62, 52
1, 365488, Note_off_c, 0, 79, 62
1, 365496, Note_on_c, 0, 69, 59
1, 365497, Control_c, 0, 64, 0
1, 365500, Note_on_c, 0, 65, 47
1, 365515, Note_off_c, 0, 81, 62
1, 365517, Note_off_c, 0, 69, 66
1, 365523, Note_on_c, 0, 84, 52
1, 365523, Note_off_c, 0, 65, 59
1, 365542, Control_c, 0, 64, 73
1, 365547, Note_off_c, 0, 84, 57
1, 365556, Note_on_c, 0, 78, 104
1, 365556, Note_on_c, 0, 90, 110
1, 365557, Control_c, 0, 64, 97
1, 365558, Note_on_c, 0, 81, 92
1, 365565, Note_on_c, 0, 70, 91
1, 365565, Note_on_c, 0, 75, 99
1, 365566, Note_on_c, 0, 66, 73
1, 365566, Note_on_c, 0, 87, 87
1, 365571, Control_c, 0, 64, 127
1, 365572, Note_on_c, 0, 61, 88
1, 365575, Note_on_c, 0, 77, 72
1, 365581, Note_off_c, 0, 75, 73
1, 365585, Note_on_c, 0, 85, 43
1, 365590, Note_off_c, 0, 87, 60
1, 365591, Note_off_c, 0, 78, 64
1, 365592, Note_off_c, 0, 77, 66
1, 365602, Note_off_c, 0, 90, 68
1, 365603, Note_off_c, 0, 81, 65
1, 365604, Note_off_c, 0, 66, 61
1, 365608, Note_off_c, 0, 70, 61
1, 365615, Note_off_c, 0, 85, 34
1, 365624, Note_off_c, 0, 61, 62
1, 365693, Poly_aftertouch_c, 0, 86, 0
1, 365780, Control_c, 0, 64, 103
1, 365795, Control_c, 0, 64, 83
1, 365809, Control_c, 0, 64, 57
1, 365824, Note_on_c, 0, 88, 90
1, 365824, Control_c, 0, 64, 0
1, 365825, Note_on_c, 0, 93, 95
1, 365834, Note_on_c, 0, 23, 62
1, 365843, Note_on_c, 0, 21, 56
1, 365849, Note_off_c, 0, 93, 61
1, 365861, Note_off_c, 0, 88, 63
1, 365876, Note_off_c, 0, 21, 48
1, 365892, Note_off_c, 0, 23, 61
1, 365933, Note_on_c, 0, 33, 62
1, 365951, Note_on_c, 0, 91, 89
1, 365952, Note_on_c, 0, 96, 87
1, 365977, Note_off_c, 0, 33, 65
1, 365986, Note_off_c, 0, 91, 59
1, 365990, Note_off_c, 0, 96, 65
1, 366066, Note_on_c, 0, 33, 64
1, 366076, Note_on_c, 0, 96, 77
1, 366076, Note_on_c, 0, 91, 79
1, 366086, Note_on_c, 0, 28, 27
1, 366099, Note_off_c, 0, 91, 64
1, 366100, Note_off_c, 0, 33, 63
1, 366107, Note_off_c, 0, 96, 61
1, 366126, Note_off_c, 0, 28, 40
1, 366182, Note_on_c, 0, 34, 62
1, 366192, Note_on_c, 0, 93, 87
1, 366201, Note_on_c, 0, 88, 58
1, 366202, Note_on_c, 0, 32, 43
1, 366219, Note_off_c, 0, 88, 63
1, 366223, Note_off_c, 0, 34, 62
1, 366230, Note_off_c, 0, 93, 58
1, 366234, Note_off_c, 0, 32, 51
1, 366300, Note_on_c, 0, 33, 66
1, 366316, Note_on_c, 0, 38, 45
1, 366318, Note_on_c, 0, 91, 84
1, 366319, Note_on_c, 0, 96, 89
1, 366338, Note_off_c, 0, 33, 66
1, 366341, Note_off_c, 0, 91, 63
1, 366347, Note_off_c, 0, 38, 57
1, 366351, Note_off_c, 0, 96, 61
1, 366427, Note_on_c, 0, 34, 51
1, 366439, Note_on_c, 0, 92, 81
1, 366443, Note_on_c, 0, 97, 74
1, 366463, Note_off_c, 0, 92, 65
1, 366467, Note_off_c, 0, 97, 66
1, 366495, Note_off_c, 0, 34, 59
1, 366553, Note_on_c, 0, 97, 80
1, 366554, Note_on_c, 0, 92, 83
1, 366561, Note_on_c, 0, 28, 56
1, 366584, Note_off_c, 0, 92, 58
1, 366596, Note_off_c, 0, 28, 62
1, 366605, Note_off_c, 0, 97, 62
1, 366671, Note_on_c, 0, 98, 88
1, 366676, Note_on_c, 0, 93, 81
1, 366684, Note_on_c, 0, 31, 50
1, 366698, Note_off_c, 0, 93, 68
1, 366714, Note_off_c, 0, 98, 65
1, 366732, Note_off_c, 0, 31, 61
1, 366773, Note_on_c, 0, 21, 73
1, 366780, Note_on_c, 0, 91, 84
1, 366786, Note_on_c, 0, 96, 83
1, 366799, Note_off_c, 0, 21, 60
1, 366803, Control_c, 0, 64, 69
1, 366807, Note_off_c, 0, 91, 61
1, 366818, Control_c, 0, 64, 94
1, 366819, Note_off_c, 0, 96, 61
1, 366833, Control_c, 0, 64, 113
1, 366848, Control_c, 0, 64, 114
1, 366905, Note_on_c, 0, 86, 73
1, 366928, Note_on_c, 0, 92, 88
1, 366937, Note_off_c, 0, 86, 64
1, 366948, Note_on_c, 0, 94, 76
1, 366981, Control_c, 0, 64, 119
1, 366982, Note_off_c, 0, 92, 61
1, 366983, Note_on_c, 0, 99, 87
1, 366991, Note_on_c, 0, 97, 64
1, 366996, Control_c, 0, 64, 127
1, 366997, Note_off_c, 0, 94, 65
1, 367013, Note_off_c, 0, 99, 68
1, 367021, Note_off_c, 0, 97, 66
1, 367055, Control_c, 0, 64, 116
1, 367070, Control_c, 0, 64, 92
1, 367084, Control_c, 0, 64, 70
1, 367097, Note_on_c, 0, 71, 95
1, 367097, Note_on_c, 0, 84, 104
1, 367099, Note_on_c, 0, 66, 81
1, 367099, Control_c, 0, 64, 0
1, 367102, Note_on_c, 0, 76, 101
1, 367104, Note_on_c, 0, 63, 70
1, 367105, Note_on_c, 0, 79, 93
1, 367106, Note_on_c, 0, 58, 73
1, 367115, Note_on_c, 0, 61, 65
1, 367125, Note_off_c, 0, 63, 56
1, 367129, Control_c, 0, 64, 54
1, 367140, Note_off_c, 0, 58, 64
1, 367144, Control_c, 0, 64, 69
1, 367156, Note_off_c, 0, 61, 56
1, 367157, Note_off_c, 0, 71, 52
1, 367158, Control_c, 0, 64, 77
1, 367173, Control_c, 0, 64, 85
1, 367180, Note_off_c, 0, 66, 62
1, 367188, Control_c, 0, 64, 88
1, 367197, Note_off_c, 0, 76, 65
1, 367203, Control_c, 0, 64, 88
1, 367211, Note_off_c, 0, 84, 60
1, 367217, Control_c, 0, 64, 89
1, 367226, Note_off_c, 0, 79, 56
1, 367232, Control_c, 0, 64, 92
1, 367247, Control_c, 0, 64, 96
1, 367262, Control_c, 0, 64, 100
1, 367277, Control_c, 0, 64, 101
1, 367292, Control_c, 0, 64, 101
1, 367345, Note_on_c, 0, 81, 83
1, 367348, Note_on_c, 0, 75, 97
1, 367351, Note_on_c, 0, 70, 95
1, 367352, Control_c, 0, 64, 102
1, 367353, Note_on_c, 0, 78, 87
1, 367354, Note_on_c, 0, 68, 82
1, 367361, Note_on_c, 0, 59, 77
1, 367367, Control_c, 0, 64, 102
1, 367371, Note_off_c, 0, 70, 70
1, 367376, Note_off_c, 0, 68, 70
1, 367389, Control_c, 0, 64, 103
1, 367390, Note_off_c, 0, 75, 68
1, 367404, Control_c, 0, 64, 105
1, 367413, Note_off_c, 0, 78, 63
1, 367414, Note_off_c, 0, 81, 63
1, 367417, Note_off_c, 0, 59, 65
1, 367419, Control_c, 0, 64, 105
1, 367434, Control_c, 0, 64, 106
1, 367448, Control_c, 0, 64, 107
1, 367463, Control_c, 0, 64, 109
1, 367478, Control_c, 0, 64, 113
1, 367493, Control_c, 0, 64, 114
1, 367508, Control_c, 0, 64, 115
1, 367522, Control_c, 0, 64, 114
1, 367537, Control_c, 0, 64, 110
1, 367552, Control_c, 0, 64, 98
1, 367567, Control_c, 0, 64, 87
1, 367582, Control_c, 0, 64, 82
1, 367610, Note_on_c, 0, 98, 103
1, 367611, Control_c, 0, 64, 86
1, 367614, Note_on_c, 0, 93, 94
1, 367622, Note_on_c, 0, 21, 88
1, 367626, Control_c, 0, 64, 92
1, 367632, Note_off_c, 0, 93, 67
1, 367638, Note_on_c, 0, 96, 46
1, 367639, Note_off_c, 0, 96, 127
1, 367641, Control_c, 0, 64, 96
1, 367643, Note_off_c, 0, 98, 66
1, 367685, Control_c, 0, 64, 95
1, 367688, Note_off_c, 0, 21, 56
1, 367700, Control_c, 0, 64, 93
1, 367715, Control_c, 0, 64, 87
1, 367730, Control_c, 0, 64, 78
1, 367744, Note_on_c, 0, 31, 60
1, 367745, Control_c, 0, 64, 65
1, 367746, Note_on_c, 0, 96, 63
1, 367758, Note_on_c, 0, 92, 36
1, 367760, Control_c, 0, 64, 0
1, 367763, Note_off_c, 0, 96, 64
1, 367775, Note_off_c, 0, 31, 63
1, 367789, Note_off_c, 0, 92, 35
1, 367857, Note_on_c, 0, 98, 89
1, 367858, Note_on_c, 0, 93, 96
1, 367859, Note_on_c, 0, 28, 74
1, 367869, Note_on_c, 0, 33, 63
1, 367893, Note_off_c, 0, 93, 59
1, 367896, Note_off_c, 0, 98, 65
1, 367897, Note_off_c, 0, 33, 65
1, 367900, Note_off_c, 0, 28, 63
1, 367983, Note_on_c, 0, 96, 79
1, 367989, Note_on_c, 0, 34, 60
1, 367990, Note_on_c, 0, 91, 67
1, 367995, Note_on_c, 0, 32, 52
1, 368016, Note_off_c, 0, 91, 64
1, 368016, Note_off_c, 0, 96, 58
1, 368022, Note_off_c, 0, 34, 64
1, 368029, Note_off_c, 0, 32, 63
1, 368099, Note_on_c, 0, 33, 68
1, 368111, Note_on_c, 0, 93, 84
1, 368112, Note_on_c, 0, 88, 66
1, 368119, Note_on_c, 0, 38, 44
1, 368139, Note_off_c, 0, 93, 67
1, 368146, Note_off_c, 0, 33, 66
1, 368151, Note_off_c, 0, 88, 63
1, 368158, Note_off_c, 0, 38, 60
1, 368237, Note_on_c, 0, 92, 86
1, 368240, Note_on_c, 0, 32, 47
1, 368242, Note_on_c, 0, 87, 74
1, 368243, Note_on_c, 0, 34, 51
1, 368267, Note_off_c, 0, 87, 66
1, 368276, Note_off_c, 0, 32, 61
1, 368284, Note_off_c, 0, 92, 66
1, 368286, Note_off_c, 0, 34, 61
1, 368352, Note_on_c, 0, 28, 59
1, 368356, Note_on_c, 0, 96, 83
1, 368359, Note_on_c, 0, 91, 80
1, 368359, Note_on_c, 0, 33, 34
1, 368380, Note_off_c, 0, 91, 65
1, 368389, Note_off_c, 0, 28, 63
1, 368394, Note_off_c, 0, 96, 62
1, 368400, Note_off_c, 0, 33, 53
1, 368478, Note_on_c, 0, 27, 67
1, 368484, Note_on_c, 0, 92, 84
1, 368487, Note_on_c, 0, 87, 74
1, 368506, Note_off_c, 0, 92, 64
1, 368511, Note_off_c, 0, 87, 67
1, 368543, Note_off_c, 0, 27, 58
1, 368586, Note_on_c, 0, 21, 59
1, 368594, Note_on_c, 0, 23, 46
1, 368609, Note_on_c, 0, 86, 55
1, 368613, Note_on_c, 0, 91, 57
1, 368631, Note_off_c, 0, 91, 59
1, 368633, Note_off_c, 0, 86, 58
1, 368657, Note_off_c, 0, 21, 53
1, 368675, Note_off_c, 0, 23, 48
1, 368696, Note_on_c, 0, 93, 87
1, 368696, Note_on_c, 0, 88, 80
1, 368716, Note_on_c, 0, 27, 38
1, 368718, Note_on_c, 0, 31, 55
1, 368721, Note_off_c, 0, 88, 64
1, 368732, Note_off_c, 0, 93, 61
1, 368745, Control_c, 0, 64, 67
1, 368746, Note_off_c, 0, 31, 54
1, 368758, Note_off_c, 0, 27, 31
1, 368760, Control_c, 0, 64, 106
1, 368775, Control_c, 0, 64, 127
1, 368807, Note_on_c, 0, 86, 70
1, 368832, Note_off_c, 0, 86, 67
1, 368838, Note_on_c, 0, 92, 84
1, 368872, Note_on_c, 0, 95, 56
1, 368875, Note_on_c, 0, 97, 71
1, 368875, Note_on_c, 0, 94, 21
1, 368876, Note_off_c, 0, 94, 127
1, 368887, Note_on_c, 0, 99, 82
1, 368891, Note_off_c, 0, 92, 63
1, 368901, Note_off_c, 0, 95, 57
1, 368908, Note_off_c, 0, 97, 67
1, 368910, Note_off_c, 0, 99, 72
1, 368976, Control_c, 0, 64, 105
1, 368991, Control_c, 0, 64, 81
1, 369003, Note_on_c, 0, 84, 102
1, 369006, Control_c, 0, 64, 0
1, 369007, Note_on_c, 0, 76, 107
1, 369008, Note_on_c, 0, 79, 89
1, 369009, Note_on_c, 0, 66, 87
1, 369011, Note_on_c, 0, 71, 86
1, 369012, Note_on_c, 0, 58, 75
1, 369026, Note_on_c, 0, 61, 54
1, 369035, Control_c, 0, 64, 42
1, 369048, Note_off_c, 0, 58, 64
1, 369050, Control_c, 0, 64, 68
1, 369058, Note_off_c, 0, 61, 61
1, 369065, Control_c, 0, 64, 80
1, 369068, Note_off_c, 0, 71, 57
1, 369080, Control_c, 0, 64, 90
1, 369084, Note_off_c, 0, 66, 60
1, 369086, Note_off_c, 0, 76, 65
1, 369093, Poly_aftertouch_c, 0, 72, 0
1, 369094, Control_c, 0, 64, 94
1, 369110, Note_off_c, 0, 79, 58
1, 369124, Control_c, 0, 64, 95
1, 369128, Note_off_c, 0, 84, 54
1, 369139, Control_c, 0, 64, 95
1, 369154, Control_c, 0, 64, 97
1, 369168, Control_c, 0, 64, 99
1, 369183, Control_c, 0, 64, 101
1, 369198, Control_c, 0, 64, 103
1, 369212, Control_c, 0, 64, 105
1, 369227, Control_c, 0, 64, 107
1, 369242, Control_c, 0, 64, 108
1, 369244, Note_on_c, 0, 70, 83
1, 369246, Note_on_c, 0, 68, 77
1, 369247, Note_on_c, 0, 81, 79
1, 369253, Note_on_c, 0, 75, 87
1, 369254, Note_on_c, 0, 78, 87
1, 369257, Note_on_c, 0, 59, 71
1, 369257, Control_c, 0, 64, 111
1, 369263, Note_off_c, 0, 70, 72
1, 369269, Note_off_c, 0, 68, 70
1, 369272, Control_c, 0, 64, 118
1, 369277, Note_off_c, 0, 75, 68
1, 369286, Control_c, 0, 64, 127
1, 369289, Note_off_c, 0, 59, 65
1, 369295, Note_off_c, 0, 81, 65
1, 369298, Note_off_c, 0, 78, 63
1, 369361, Control_c, 0, 64, 118
1, 369375, Control_c, 0, 64, 101
1, 369390, Control_c, 0, 64, 85
1, 369402, Note_on_c, 0, 96, 104
1, 369404, Note_on_c, 0, 91, 103
1, 369405, Control_c, 0, 64, 63
1, 369420, Control_c, 0, 64, 0
1, 369426, Note_on_c, 0, 21, 74
1, 369433, Note_off_c, 0, 91, 61
1, 369436, Note_on_c, 0, 23, 67
1, 369437, Note_off_c, 0, 96, 65
1, 369469, Note_off_c, 0, 21, 58
1, 369478, Note_off_c, 0, 23, 62
1, 369520, Note_on_c, 0, 91, 88
1, 369523, Note_on_c, 0, 96, 85
1, 369527, Note_on_c, 0, 31, 48
1, 369554, Note_off_c, 0, 91, 60
1, 369559, Note_off_c, 0, 96, 60
1, 369560, Note_off_c, 0, 31, 63
1, 369644, Note_on_c, 0, 33, 69
1, 369651, Note_on_c, 0, 88, 78
1, 369652, Note_on_c, 0, 28, 65
1, 369652, Note_on_c, 0, 93, 88
1, 369672, Note_off_c, 0, 93, 67
1, 369677, Note_off_c, 0, 88, 64
1, 369680, Note_off_c, 0, 33, 64
1, 369683, Note_off_c, 0, 28, 61
1, 369768, Note_on_c, 0, 92, 78
1, 369771, Note_on_c, 0, 87, 67
1, 369773, Note_on_c, 0, 34, 56
1, 369785, Note_on_c, 0, 32, 52
1, 369794, Note_off_c, 0, 87, 63
1, 369797, Note_off_c, 0, 92, 61
1, 369823, Note_off_c, 0, 34, 57
1, 369829, Note_off_c, 0, 32, 61
1, 369868, Note_on_c, 0, 96, 89
1, 369872, Note_on_c, 0, 33, 64
1, 369873, Control_c, 0, 64, 66
1, 369875, Note_on_c, 0, 38, 66
1, 369875, Note_on_c, 0, 91, 86
1, 369888, Control_c, 0, 64, 76
1, 369902, Note_off_c, 0, 33, 64
1, 369903, Control_c, 0, 64, 84
1, 369904, Note_off_c, 0, 38, 64
1, 369917, Note_off_c, 0, 96, 63
1, 369917, Control_c, 0, 64, 88
1, 369924, Note_off_c, 0, 91, 60
1, 369932, Control_c, 0, 64, 89
1, 369947, Control_c, 0, 64, 91
1, 369962, Control_c, 0, 64, 93
1, 369977, Control_c, 0, 64, 96
1, 369984, Note_on_c, 0, 85, 75
1, 369991, Control_c, 0, 64, 100
1, 370006, Control_c, 0, 64, 104
1, 370018, Note_off_c, 0, 85, 64
1, 370021, Control_c, 0, 64, 108
1, 370022, Note_on_c, 0, 90, 75
1, 370025, Note_on_c, 0, 92, 80
1, 370035, Control_c, 0, 64, 110
1, 370049, Note_on_c, 0, 94, 77
1, 370050, Control_c, 0, 64, 111
1, 370053, Note_off_c, 0, 90, 64
1, 370054, Note_on_c, 0, 96, 87
1, 370065, Control_c, 0, 64, 112
1, 370067, Note_off_c, 0, 92, 65
1, 370073, Note_off_c, 0, 94, 70
1, 370073, Note_off_c, 0, 96, 65
1, 370080, Control_c, 0, 64, 113
1, 370095, Control_c, 0, 64, 114
1, 370109, Control_c, 0, 64, 119
1, 370124, Control_c, 0, 64, 127
1, 370183, Control_c, 0, 64, 108
1, 370198, Control_c, 0, 64, 92
1, 370212, Note_on_c, 0, 70, 98
1, 370213, Note_on_c, 0, 81, 100
1, 370213, Control_c, 0, 64, 78
1, 370215, Note_on_c, 0, 68, 87
1, 370219, Note_on_c, 0, 78, 86
1, 370223, Note_on_c, 0, 59, 71
1, 370226, Note_on_c, 0, 74, 85
1, 370228, Note_on_c, 0, 65, 71
1, 370228, Control_c, 0, 64, 71
1, 370236, Note_off_c, 0, 78, 59
1, 370239, Note_on_c, 0, 62, 54
1, 370240, Note_on_c, 0, 77, 70
1, 370243, Control_c, 0, 64, 73
1, 370258, Control_c, 0, 64, 81
1, 370267, Note_off_c, 0, 74, 44
1, 370270, Note_off_c, 0, 77, 54
1, 370273, Control_c, 0, 64, 92
1, 370288, Control_c, 0, 64, 97
1, 370294, Note_off_c, 0, 62, 56
1, 370295, Note_off_c, 0, 65, 62
1, 370302, Note_off_c, 0, 68, 62
1, 370303, Control_c, 0, 64, 98
1, 370315, Note_off_c, 0, 59, 59
1, 370317, Control_c, 0, 64, 99
1, 370347, Control_c, 0, 64, 99
1, 370355, Note_off_c, 0, 70, 54
1, 370361, Control_c, 0, 64, 100
1, 370376, Control_c, 0, 64, 102
1, 370394, Note_on_c, 0, 74, 23
1, 370398, Control_c, 0, 64, 106
1, 370413, Control_c, 0, 64, 112
1, 370428, Control_c, 0, 64, 119
1, 370443, Control_c, 0, 64, 125
1, 370453, Note_off_c, 0, 81, 23
1, 370458, Note_off_c, 0, 74, 63
1, 370458, Control_c, 0, 64, 126
1, 370472, Control_c, 0, 64, 126
1, 370487, Control_c, 0, 64, 115
1, 370502, Control_c, 0, 64, 90
1, 370518, Control_c, 0, 64, 53
1, 370522, Note_on_c, 0, 70, 102
1, 370523, Note_on_c, 0, 73, 104
1, 370523, Note_on_c, 0, 78, 103
1, 370526, Note_on_c, 0, 66, 91
1, 370530, Note_on_c, 0, 63, 87
1, 370532, Note_on_c, 0, 58, 80
1, 370532, Control_c, 0, 64, 0
1, 370535, Note_on_c, 0, 61, 75
1, 370553, Note_off_c, 0, 70, 66
1, 370559, Note_off_c, 0, 73, 66
1, 370565, Note_off_c, 0, 66, 65
1, 370566, Note_off_c, 0, 78, 67
1, 370580, Note_off_c, 0, 63, 60
1, 370592, Control_c, 0, 64, 74
1, 370595, Note_off_c, 0, 61, 61
1, 370602, Note_off_c, 0, 58, 63
1, 370607, Control_c, 0, 64, 86
1, 370621, Control_c, 0, 64, 99
1, 370636, Control_c, 0, 64, 107
1, 370651, Control_c, 0, 64, 117
1, 370666, Control_c, 0, 64, 127
1, 370937, Note_on_c, 0, 21, 69
1, 370941, Note_on_c, 0, 90, 86
1, 370943, Note_on_c, 0, 85, 79
1, 370947, Control_c, 0, 64, 125
1, 370952, Note_on_c, 0, 23, 54
1, 370962, Control_c, 0, 64, 105
1, 370964, Note_off_c, 0, 85, 69
1, 370976, Control_c, 0, 64, 89
1, 370985, Note_off_c, 0, 90, 58
1, 370991, Control_c, 0, 64, 69
1, 370996, Note_off_c, 0, 21, 57
1, 370996, Note_off_c, 0, 23, 57
1, 371006, Control_c, 0, 64, 0
1, 371056, Note_on_c, 0, 31, 63
1, 371066, Note_on_c, 0, 86, 69
1, 371067, Note_on_c, 0, 91, 67
1, 371088, Note_off_c, 0, 91, 54
1, 371092, Note_off_c, 0, 86, 66
1, 371092, Note_off_c, 0, 31, 63
1, 371182, Note_on_c, 0, 28, 61
1, 371206, Note_on_c, 0, 92, 62
1, 371209, Note_on_c, 0, 87, 63
1, 371212, Note_on_c, 0, 33, 40
1, 371224, Note_off_c, 0, 28, 61
1, 371236, Note_off_c, 0, 92, 66
1, 371238, Note_off_c, 0, 87, 67
1, 371251, Note_off_c, 0, 33, 45
1, 371325, Note_on_c, 0, 87, 85
1, 371325, Note_on_c, 0, 92, 93
1, 371326, Control_c, 0, 64, 63
1, 371327, Note_on_c, 0, 32, 62
1, 371334, Note_on_c, 0, 34, 58
1, 371341, Control_c, 0, 64, 92
1, 371355, Control_c, 0, 64, 94
1, 371362, Note_off_c, 0, 32, 62
1, 371367, Note_off_c, 0, 34, 64
1, 371370, Note_off_c, 0, 87, 63
1, 371370, Control_c, 0, 64, 88
1, 371373, Note_off_c, 0, 92, 64
1, 371385, Control_c, 0, 64, 71
1, 371400, Control_c, 0, 64, 0
1, 371446, Note_on_c, 0, 33, 59
1, 371453, Note_on_c, 0, 38, 40
1, 371456, Note_on_c, 0, 91, 75
1, 371462, Note_on_c, 0, 86, 58
1, 371480, Note_off_c, 0, 33, 65
1, 371483, Note_off_c, 0, 86, 63
1, 371488, Note_off_c, 0, 38, 58
1, 371490, Note_off_c, 0, 91, 61
1, 371566, Note_on_c, 0, 32, 58
1, 371573, Note_on_c, 0, 88, 72
1, 371578, Note_on_c, 0, 93, 65
1, 371587, Note_on_c, 0, 34, 35
1, 371599, Note_off_c, 0, 88, 67
1, 371611, Note_off_c, 0, 93, 63
1, 371613, Note_off_c, 0, 32, 60
1, 371625, Note_off_c, 0, 34, 51
1, 371688, Note_on_c, 0, 28, 70
1, 371692, Note_on_c, 0, 96, 88
1, 371696, Control_c, 0, 64, 68
1, 371697, Note_on_c, 0, 91, 83
1, 371701, Note_on_c, 0, 33, 41
1, 371711, Control_c, 0, 64, 81
1, 371725, Note_off_c, 0, 91, 58
1, 371726, Control_c, 0, 64, 76
1, 371733, Note_off_c, 0, 96, 64
1, 371736, Note_off_c, 0, 28, 59
1, 371739, Note_off_c, 0, 33, 55
1, 371741, Control_c, 0, 64, 28
1, 371755, Control_c, 0, 64, 0
1, 371817, Note_on_c, 0, 93, 75
1, 371819, Note_on_c, 0, 88, 64
1, 371820, Note_on_c, 0, 27, 60
1, 371829, Note_on_c, 0, 31, 50
1, 371846, Note_off_c, 0, 93, 64
1, 371847, Note_off_c, 0, 88, 66
1, 371865, Note_off_c, 0, 27, 62
1, 371869, Note_off_c, 0, 31, 61
1, 371943, Note_on_c, 0, 96, 107
1, 371944, Note_on_c, 0, 21, 71
1, 371945, Note_on_c, 0, 22, 63
1, 371948, Note_on_c, 0, 91, 96
1, 371956, Control_c, 0, 64, 95
1, 371971, Control_c, 0, 64, 127
1, 371972, Note_off_c, 0, 91, 60
1, 371980, Note_off_c, 0, 96, 65
1, 371986, Control_c, 0, 64, 119
1, 372001, Control_c, 0, 64, 111
1, 372002, Note_off_c, 0, 22, 55
1, 372015, Control_c, 0, 64, 99
1, 372020, Note_off_c, 0, 21, 58
1, 372030, Control_c, 0, 64, 88
1, 372045, Control_c, 0, 64, 73
1, 372050, Note_on_c, 0, 31, 61
1, 372060, Control_c, 0, 64, 0
1, 372065, Note_on_c, 0, 96, 87
1, 372067, Note_on_c, 0, 91, 77
1, 372081, Note_off_c, 0, 31, 63
1, 372094, Note_off_c, 0, 91, 59
1, 372104, Note_off_c, 0, 96, 61
1, 372175, Note_on_c, 0, 28, 60
1, 372176, Note_on_c, 0, 33, 58
1, 372178, Note_on_c, 0, 96, 80
1, 372184, Note_on_c, 0, 91, 76
1, 372210, Note_off_c, 0, 33, 64
1, 372210, Note_off_c, 0, 91, 62
1, 372212, Note_off_c, 0, 28, 61
1, 372220, Note_off_c, 0, 96, 64
1, 372299, Note_on_c, 0, 96, 87
1, 372300, Note_on_c, 0, 91, 86
1, 372303, Note_on_c, 0, 34, 59
1, 372308, Note_on_c, 0, 32, 57
1, 372336, Note_off_c, 0, 91, 61
1, 372338, Note_off_c, 0, 96, 65
1, 372345, Note_off_c, 0, 32, 63
1, 372346, Note_off_c, 0, 34, 63
1, 372422, Note_on_c, 0, 33, 61
1, 372425, Note_on_c, 0, 38, 53
1, 372425, Note_on_c, 0, 97, 82
1, 372425, Note_on_c, 0, 92, 84
1, 372461, Note_off_c, 0, 33, 66
1, 372468, Note_off_c, 0, 38, 62
1, 372470, Note_off_c, 0, 92, 62
1, 372473, Note_off_c, 0, 97, 65
1, 372520, Control_c, 0, 64, 98
1, 372522, Note_on_c, 0, 34, 79
1, 372532, Note_on_c, 0, 32, 63
1, 372533, Note_on_c, 0, 91, 105
1, 372535, Note_on_c, 0, 96, 101
1, 372535, Control_c, 0, 64, 127
1, 372547, Note_off_c, 0, 34, 67
1, 372557, Note_off_c, 0, 96, 61
1, 372561, Note_off_c, 0, 32, 64
1, 372566, Note_off_c, 0, 91, 62
1, 372698, Note_on_c, 0, 79, 79
1, 372726, Note_on_c, 0, 62, 60
1, 372747, Note_on_c, 0, 81, 70
1, 372751, Note_on_c, 0, 76, 47
1, 372752, Note_off_c, 0, 62, 55
1, 372754, Note_on_c, 0, 74, 23
1, 372757, Note_off_c, 0, 79, 60
1, 372773, Note_on_c, 0, 69, 35
1, 372775, Note_off_c, 0, 76, 52
1, 372779, Control_c, 0, 64, 107
1, 372782, Note_on_c, 0, 84, 83
1, 372783, Note_on_c, 0, 66, 71
1, 372790, Note_off_c, 0, 74, 44
1, 372794, Control_c, 0, 64, 79
1, 372799, Note_off_c, 0, 81, 64
1, 372803, Note_off_c, 0, 84, 68
1, 372806, Note_off_c, 0, 69, 67
1, 372809, Control_c, 0, 64, 0
1, 372811, Note_off_c, 0, 66, 69
1, 372838, Control_c, 0, 64, 69
1, 372840, Note_on_c, 0, 90, 106
1, 372841, Note_on_c, 0, 78, 115
1, 372841, Note_on_c, 0, 82, 105
1, 372843, Note_on_c, 0, 75, 92
1, 372845, Poly_aftertouch_c, 0, 66, 0
1, 372846, Note_on_c, 0, 70, 86
1, 372848, Note_on_c, 0, 66, 68
1, 372850, Note_on_c, 0, 87, 90
1, 372852, Note_on_c, 0, 61, 80
1, 372853, Control_c, 0, 64, 92
1, 372860, Note_off_c, 0, 75, 75
1, 372865, Note_off_c, 0, 70, 71
1, 372865, Note_off_c, 0, 78, 64
1, 372868, Control_c, 0, 64, 127
1, 372876, Note_off_c, 0, 90, 68
1, 372877, Note_off_c, 0, 82, 71
1, 372887, Note_off_c, 0, 66, 65
1, 372890, Note_off_c, 0, 87, 64
1, 372903, Note_off_c, 0, 61, 63
1, 373076, Control_c, 0, 64, 107
1, 373091, Control_c, 0, 64, 92
1, 373106, Control_c, 0, 64, 77
1, 373111, Note_on_c, 0, 90, 96
1, 373111, Note_on_c, 0, 21, 75
1, 373118, Note_on_c, 0, 84, 82
1, 373121, Control_c, 0, 64, 54
1, 373134, Note_off_c, 0, 84, 65
1, 373135, Control_c, 0, 64, 0
1, 373145, Note_off_c, 0, 90, 61
1, 373170, Note_off_c, 0, 21, 52
1, 373242, Note_on_c, 0, 87, 75
1, 373246, Note_on_c, 0, 92, 75
1, 373253, Note_on_c, 0, 33, 49
1, 373267, Note_off_c, 0, 87, 65
1, 373272, Note_off_c, 0, 92, 65
1, 373285, Note_off_c, 0, 33, 52
1, 373359, Note_on_c, 0, 28, 56
1, 373360, Note_on_c, 0, 33, 65
1, 373361, Note_on_c, 0, 91, 80
1, 373364, Note_on_c, 0, 96, 66
1, 373368, Note_on_c, 0, 95, 67
1, 373393, Note_off_c, 0, 91, 62
1, 373393, Note_off_c, 0, 96, 65
1, 373394, Note_off_c, 0, 95, 66
1, 373394, Note_off_c, 0, 33, 65
1, 373397, Note_off_c, 0, 28, 60
1, 373489, Note_on_c, 0, 93, 83
1, 373490, Note_on_c, 0, 34, 52
1, 373496, Note_on_c, 0, 88, 59
1, 373501, Note_on_c, 0, 32, 50
1, 373516, Note_off_c, 0, 88, 63
1, 373532, Note_off_c, 0, 34, 63
1, 373534, Note_off_c, 0, 93, 61
1, 373536, Note_off_c, 0, 32, 62
1, 373604, Note_on_c, 0, 33, 67
1, 373620, Note_on_c, 0, 96, 88
1, 373621, Note_on_c, 0, 38, 50
1, 373622, Note_on_c, 0, 91, 82
1, 373645, Note_off_c, 0, 33, 66
1, 373645, Note_off_c, 0, 91, 63
1, 373656, Note_off_c, 0, 38, 61
1, 373658, Note_off_c, 0, 96, 61
1, 373735, Note_on_c, 0, 32, 48
1, 373740, Note_on_c, 0, 34, 48
1, 373740, Note_on_c, 0, 92, 80
1, 373740, Note_on_c, 0, 97, 80
1, 373764, Note_off_c, 0, 92, 66
1, 373775, Note_off_c, 0, 32, 61
1, 373781, Note_off_c, 0, 34, 60
1, 373787, Note_off_c, 0, 97, 58
1, 373853, Note_on_c, 0, 98, 90
1, 373858, Note_on_c, 0, 33, 47
1, 373862, Note_on_c, 0, 28, 58
1, 373864, Note_on_c, 0, 93, 76
1, 373888, Note_off_c, 0, 93, 67
1, 373889, Note_off_c, 0, 33, 53
1, 373895, Note_off_c, 0, 98, 65
1, 373895, Note_off_c, 0, 28, 62
1, 373978, Note_on_c, 0, 96, 83
1, 373979, Note_on_c, 0, 27, 64
1, 373979, Note_on_c, 0, 91, 73
1, 373990, Note_on_c, 0, 31, 49
1, 374004, Note_off_c, 0, 91, 63
1, 374016, Note_off_c, 0, 96, 58
1, 374028, Note_off_c, 0, 27, 61
1, 374031, Note_off_c, 0, 31, 60
1, 374091, Note_on_c, 0, 92, 101
1, 374093, Note_on_c, 0, 97, 88
1, 374097, Note_on_c, 0, 21, 66
1, 374105, Note_on_c, 0, 23, 56
1, 374105, Control_c, 0, 64, 63
1, 374120, Control_c, 0, 64, 113
1, 374142, Control_c, 0, 64, 127
1, 374145, Note_off_c, 0, 92, 67
1, 374156, Note_off_c, 0, 97, 65
1, 374173, Note_off_c, 0, 23, 57
1, 374188, Note_off_c, 0, 21, 58
1, 374202, Note_on_c, 0, 31, 68
1, 374211, Note_on_c, 0, 98, 91
1, 374216, Note_on_c, 0, 93, 89
1, 374247, Note_off_c, 0, 31, 64
1, 374255, Note_off_c, 0, 93, 60
1, 374260, Note_off_c, 0, 98, 66
1, 374317, Note_on_c, 0, 33, 74
1, 374320, Note_on_c, 0, 28, 70
1, 374327, Note_on_c, 0, 91, 100
1, 374327, Note_on_c, 0, 96, 91
1, 374342, Note_off_c, 0, 33, 67
1, 374351, Note_off_c, 0, 28, 63
1, 374360, Note_off_c, 0, 96, 66
1, 374365, Note_off_c, 0, 91, 62
1, 374475, Note_on_c, 0, 79, 86
1, 374520, Note_on_c, 0, 81, 75
1, 374524, Note_on_c, 0, 62, 46
1, 374528, Control_c, 0, 64, 115
1, 374529, Note_on_c, 0, 76, 64
1, 374534, Note_off_c, 0, 79, 60
1, 374543, Control_c, 0, 64, 88
1, 374545, Note_off_c, 0, 76, 67
1, 374553, Note_off_c, 0, 62, 58
1, 374558, Control_c, 0, 64, 52
1, 374562, Note_on_c, 0, 69, 48
1, 374563, Note_on_c, 0, 66, 72
1, 374565, Note_on_c, 0, 84, 76
1, 374572, Control_c, 0, 64, 0
1, 374576, Note_off_c, 0, 81, 62
1, 374583, Note_off_c, 0, 84, 71
1, 374585, Note_off_c, 0, 66, 69
1, 374585, Note_off_c, 0, 69, 58
1, 374617, Note_on_c, 0, 90, 110
1, 374617, Control_c, 0, 64, 76
1, 374618, Note_on_c, 0, 78, 119
1, 374618, Note_on_c, 0, 82, 110
1, 374622, Note_on_c, 0, 75, 94
1, 374624, Note_on_c, 0, 70, 95
1, 374627, Note_on_c, 0, 87, 90
1, 374630, Note_on_c, 0, 66, 89
1, 374631, Note_on_c, 0, 61, 86
1, 374631, Control_c, 0, 64, 104
1, 374634, Note_off_c, 0, 75, 76
1, 374643, Note_off_c, 0, 78, 69
1, 374646, Control_c, 0, 64, 127
1, 374651, Note_off_c, 0, 70, 61
1, 374652, Note_off_c, 0, 82, 71
1, 374659, Note_off_c, 0, 90, 64
1, 374668, Note_off_c, 0, 87, 65
1, 374675, Note_off_c, 0, 66, 62
1, 374682, Note_off_c, 0, 61, 64
1, 374876, Control_c, 0, 64, 118
1, 374891, Control_c, 0, 64, 100
1, 374903, Note_on_c, 0, 92, 82
1, 374903, Note_on_c, 0, 97, 84
1, 374905, Control_c, 0, 64, 85
1, 374911, Note_on_c, 0, 21, 62
1, 374920, Control_c, 0, 64, 67
1, 374923, Note_off_c, 0, 92, 71
1, 374923, Note_on_c, 0, 23, 60
1, 374928, Note_off_c, 0, 97, 65
1, 374935, Control_c, 0, 64, 0
1, 374959, Note_off_c, 0, 21, 59
1, 374965, Note_off_c, 0, 23, 62
1, 375025, Note_on_c, 0, 31, 64
1, 375026, Note_on_c, 0, 96, 83
1, 375029, Note_on_c, 0, 91, 76
1, 375052, Note_off_c, 0, 91, 64
1, 375061, Note_off_c, 0, 96, 58
1, 375062, Note_off_c, 0, 31, 63
1, 375147, Note_on_c, 0, 92, 85
1, 375149, Note_on_c, 0, 33, 60
1, 375149, Note_on_c, 0, 97, 81
1, 375151, Note_on_c, 0, 28, 58
1, 375157, Control_c, 0, 64, 67
1, 375172, Control_c, 0, 64, 61
1, 375176, Note_off_c, 0, 92, 61
1, 375179, Note_off_c, 0, 33, 65
1, 375183, Note_off_c, 0, 28, 61
1, 375187, Control_c, 0, 64, 0
1, 375194, Note_off_c, 0, 97, 64
1, 375260, Note_on_c, 0, 98, 86
1, 375264, Note_on_c, 0, 93, 80
1, 375272, Note_on_c, 0, 34, 53
1, 375286, Note_off_c, 0, 93, 68
1, 375302, Note_off_c, 0, 98, 61
1, 375310, Note_on_c, 0, 32, 8
1, 375314, Note_off_c, 0, 34, 61
1, 375350, Note_off_c, 0, 32, 39
1, 375385, Note_on_c, 0, 97, 70
1, 375388, Note_on_c, 0, 92, 74
1, 375391, Note_on_c, 0, 38, 46
1, 375394, Note_on_c, 0, 33, 50
1, 375413, Note_off_c, 0, 97, 65
1, 375414, Note_off_c, 0, 92, 67
1, 375426, Note_off_c, 0, 33, 64
1, 375426, Note_off_c, 0, 38, 59
1, 375503, Note_on_c, 0, 93, 100
1, 375508, Note_on_c, 0, 88, 83
1, 375510, Note_on_c, 0, 32, 63
1, 375510, Note_on_c, 0, 34, 62
1, 375514, Control_c, 0, 64, 68
1, 375528, Control_c, 0, 64, 93
1, 375540, Note_off_c, 0, 88, 59
1, 375543, Control_c, 0, 64, 91
1, 375557, Note_off_c, 0, 93, 62
1, 375558, Control_c, 0, 64, 73
1, 375560, Note_off_c, 0, 34, 59
1, 375564, Note_off_c, 0, 32, 61
1, 375573, Control_c, 0, 64, 0
1, 375634, Note_on_c, 0, 96, 78
1, 375643, Note_on_c, 0, 91, 71
1, 375647, Note_on_c, 0, 28, 58
1, 375658, Note_off_c, 0, 96, 62
1, 375667, Note_off_c, 0, 91, 64
1, 375679, Note_off_c, 0, 28, 61
1, 375757, Note_on_c, 0, 92, 98
1, 375758, Control_c, 0, 64, 64
1, 375759, Note_on_c, 0, 87, 92
1, 375765, Note_on_c, 0, 27, 76
1, 375772, Control_c, 0, 64, 127
1, 375775, Note_on_c, 0, 31, 60
1, 375799, Note_off_c, 0, 92, 66
1, 375802, Note_off_c, 0, 87, 64
1, 375812, Note_off_c, 0, 31, 58
1, 375817, Control_c, 0, 64, 110
1, 375824, Note_off_c, 0, 27, 59
1, 375832, Control_c, 0, 64, 89
1, 375847, Control_c, 0, 64, 66
1, 375862, Control_c, 0, 64, 0
1, 375880, Note_on_c, 0, 91, 79
1, 375883, Note_on_c, 0, 86, 65
1, 375884, Note_on_c, 0, 21, 57
1, 375895, Note_on_c, 0, 23, 46
1, 375904, Note_off_c, 0, 86, 66
1, 375918, Note_off_c, 0, 91, 61
1, 375962, Note_off_c, 0, 23, 58
1, 375969, Note_off_c, 0, 21, 58
1, 375987, Note_on_c, 0, 88, 80
1, 375991, Note_on_c, 0, 93, 75
1, 375996, Note_on_c, 0, 31, 60
1, 376008, Note_off_c, 0, 88, 67
1, 376025, Note_off_c, 0, 93, 62
1, 376027, Note_off_c, 0, 31, 63
1, 376097, Note_on_c, 0, 96, 84
1, 376101, Note_on_c, 0, 91, 75
1, 376115, Note_off_c, 0, 91, 64
1, 376116, Note_on_c, 0, 33, 53
1, 376120, Note_on_c, 0, 28, 48
1, 376121, Note_off_c, 0, 96, 62
1, 376148, Note_off_c, 0, 33, 64
1, 376154, Note_off_c, 0, 28, 57
1, 376214, Note_on_c, 0, 93, 91
1, 376218, Note_on_c, 0, 98, 82
1, 376237, Note_on_c, 0, 34, 60
1, 376241, Note_off_c, 0, 98, 62
1, 376246, Note_off_c, 0, 93, 58
1, 376250, Note_on_c, 0, 32, 49
1, 376274, Note_off_c, 0, 34, 65
1, 376280, Note_off_c, 0, 32, 60
1, 376322, Control_c, 0, 67, 13
1, 376337, Control_c, 0, 67, 17
1, 376345, Note_on_c, 0, 33, 78
1, 376345, Note_on_c, 0, 97, 97
1, 376348, Note_on_c, 0, 92, 96
1, 376351, Control_c, 0, 67, 13
1, 376354, Note_on_c, 0, 38, 68
1, 376374, Control_c, 0, 64, 59
1, 376374, Control_c, 0, 67, 0
1, 376389, Control_c, 0, 64, 114
1, 376395, Note_off_c, 0, 33, 64
1, 376403, Control_c, 0, 64, 127
1, 376405, Note_off_c, 0, 38, 64
1, 376421, Note_off_c, 0, 97, 59
1, 376432, Note_off_c, 0, 92, 0
1, 376455, Note_on_c, 0, 92, 34
1, 376464, Note_on_c, 0, 34, 69
1, 376467, Note_on_c, 0, 32, 55
1, 376506, Note_off_c, 0, 32, 61
1, 376522, Control_c, 0, 64, 101
1, 376524, Note_off_c, 0, 92, 57
1, 376533, Note_off_c, 0, 34, 51
1, 376537, Control_c, 0, 64, 77
1, 376551, Control_c, 0, 64, 0
1, 376583, Note_on_c, 0, 28, 73
1, 376595, Note_on_c, 0, 96, 81
1, 376599, Note_on_c, 0, 91, 78
1, 376621, Note_off_c, 0, 28, 64
1, 376635, Note_off_c, 0, 91, 58
1, 376644, Note_off_c, 0, 96, 63
1, 376711, Note_on_c, 0, 27, 81
1, 376714, Note_on_c, 0, 31, 68
1, 376714, Note_on_c, 0, 92, 98
1, 376714, Note_on_c, 0, 97, 98
1, 376729, Control_c, 0, 64, 79
1, 376736, Note_off_c, 0, 27, 67
1, 376740, Note_off_c, 0, 31, 65
1, 376744, Control_c, 0, 64, 127
1, 376747, Note_off_c, 0, 97, 63
1, 376750, Note_off_c, 0, 92, 65
1, 376783, Poly_aftertouch_c, 0, 29, 127
1, 376824, Poly_aftertouch_c, 0, 29, 0
1, 376890, Note_on_c, 0, 79, 63
1, 376890, Note_on_c, 0, 77, 58
1, 376910, Note_on_c, 0, 62, 63
1, 376914, Note_off_c, 0, 77, 64
1, 376919, Note_on_c, 0, 76, 66
1, 376920, Note_on_c, 0, 70, 46
1, 376920, Note_on_c, 0, 81, 76
1, 376932, Note_off_c, 0, 79, 58
1, 376939, Note_on_c, 0, 74, 33
1, 376945, Note_off_c, 0, 76, 65
1, 376969, Note_off_c, 0, 74, 50
1, 376971, Note_off_c, 0, 70, 63
1, 376971, Note_on_c, 0, 84, 80
1, 376972, Note_on_c, 0, 66, 69
1, 376982, Control_c, 0, 64, 102
1, 376986, Note_off_c, 0, 81, 60
1, 376990, Note_off_c, 0, 84, 72
1, 376997, Control_c, 0, 64, 71
1, 377000, Note_off_c, 0, 66, 68
1, 377011, Note_off_c, 0, 62, 33
1, 377012, Control_c, 0, 64, 0
1, 377034, Note_on_c, 0, 90, 106
1, 377036, Note_on_c, 0, 75, 95
1, 377036, Note_on_c, 0, 78, 112
1, 377038, Note_on_c, 0, 70, 89
1, 377038, Note_on_c, 0, 82, 100
1, 377041, Control_c, 0, 64, 58
1, 377043, Note_on_c, 0, 66, 91
1, 377044, Note_on_c, 0, 87, 92
1, 377048, Note_on_c, 0, 61, 78
1, 377050, Note_off_c, 0, 75, 78
1, 377056, Control_c, 0, 64, 84
1, 377059, Note_off_c, 0, 78, 68
1, 377063, Note_off_c, 0, 70, 65
1, 377070, Note_off_c, 0, 90, 67
1, 377071, Control_c, 0, 64, 127
1, 377073, Note_off_c, 0, 82, 69
1, 377084, Note_off_c, 0, 87, 68
1, 377089, Note_off_c, 0, 66, 64
1, 377096, Note_off_c, 0, 61, 63
1, 377299, Note_on_c, 0, 92, 92
1, 377300, Control_c, 0, 64, 107
1, 377302, Note_on_c, 0, 97, 87
1, 377312, Note_on_c, 0, 21, 75
1, 377315, Control_c, 0, 64, 92
1, 377325, Note_off_c, 0, 92, 57
1, 377330, Control_c, 0, 64, 76
1, 377344, Control_c, 0, 64, 37
1, 377347, Note_off_c, 0, 97, 62
1, 377359, Control_c, 0, 64, 0
1, 377367, Note_off_c, 0, 21, 56
1, 377415, Note_on_c, 0, 31, 65
1, 377416, Note_on_c, 0, 96, 81
1, 377422, Note_on_c, 0, 91, 72
1, 377443, Note_off_c, 0, 96, 57
1, 377446, Note_off_c, 0, 91, 65
1, 377453, Note_off_c, 0, 31, 65
1, 377531, Note_on_c, 0, 98, 91
1, 377535, Note_on_c, 0, 93, 90
1, 377538, Note_on_c, 0, 33, 63
1, 377542, Note_on_c, 0, 28, 58
1, 377555, Note_off_c, 0, 93, 67
1, 377568, Note_off_c, 0, 33, 65
1, 377569, Note_off_c, 0, 98, 62
1, 377574, Note_off_c, 0, 28, 61
1, 377664, Note_on_c, 0, 34, 52
1, 377672, Note_on_c, 0, 32, 48
1, 377680, Note_on_c, 0, 96, 43
1, 377689, Note_on_c, 0, 91, 30
1, 377701, Note_off_c, 0, 34, 65
1, 377704, Note_off_c, 0, 32, 60
1, 377707, Note_off_c, 0, 96, 47
1, 377715, Note_off_c, 0, 91, 36
1, 377765, Note_on_c, 0, 96, 92
1, 377771, Note_on_c, 0, 91, 83
1, 377777, Note_on_c, 0, 38, 58
1, 377779, Note_on_c, 0, 33, 61
1, 377791, Note_off_c, 0, 91, 66
1, 377795, Note_off_c, 0, 96, 62
1, 377813, Note_off_c, 0, 38, 62
1, 377814, Note_off_c, 0, 33, 66
1, 377894, Note_on_c, 0, 92, 84
1, 377900, Note_on_c, 0, 34, 51
1, 377904, Note_on_c, 0, 87, 73
1, 377915, Note_on_c, 0, 32, 33
1, 377916, Note_off_c, 0, 92, 64
1, 377926, Note_off_c, 0, 87, 69
1, 377953, Note_off_c, 0, 32, 53
1, 377964, Note_off_c, 0, 34, 51
1, 378011, Note_on_c, 0, 91, 83
1, 378018, Note_on_c, 0, 86, 64
1, 378023, Note_on_c, 0, 28, 57
1, 378045, Note_off_c, 0, 86, 66
1, 378053, Note_off_c, 0, 91, 57
1, 378054, Note_off_c, 0, 28, 61
1, 378122, Note_on_c, 0, 88, 86
1, 378124, Note_on_c, 0, 93, 88
1, 378127, Note_on_c, 0, 31, 60
1, 378162, Note_off_c, 0, 93, 63
1, 378164, Note_off_c, 0, 88, 62
1, 378179, Note_off_c, 0, 31, 60
1, 378233, Note_on_c, 0, 21, 71
1, 378235, Note_on_c, 0, 87, 99
1, 378235, Note_on_c, 0, 92, 95
1, 378241, Control_c, 0, 64, 88
1, 378256, Control_c, 0, 64, 127
1, 378267, Note_off_c, 0, 21, 59
1, 378272, Note_off_c, 0, 87, 62
1, 378274, Note_off_c, 0, 92, 65
1, 378377, Note_on_c, 0, 79, 81
1, 378428, Note_on_c, 0, 81, 77
1, 378430, Note_on_c, 0, 62, 66
1, 378432, Note_on_c, 0, 70, 51
1, 378439, Note_on_c, 0, 76, 64
1, 378444, Note_on_c, 0, 74, 53
1, 378446, Note_off_c, 0, 79, 61
1, 378456, Note_off_c, 0, 70, 54
1, 378465, Note_off_c, 0, 74, 65
1, 378467, Note_off_c, 0, 76, 68
1, 378468, Note_off_c, 0, 62, 47
1, 378482, Note_on_c, 0, 84, 77
1, 378495, Note_on_c, 0, 66, 67
1, 378495, Note_off_c, 0, 81, 63
1, 378502, Note_on_c, 0, 69, 42
1, 378502, Note_off_c, 0, 84, 71
1, 378518, Note_off_c, 0, 66, 67
1, 378531, Note_off_c, 0, 69, 50
1, 378545, Note_on_c, 0, 78, 120
1, 378546, Note_on_c, 0, 90, 109
1, 378549, Note_on_c, 0, 82, 104
1, 378551, Note_on_c, 0, 70, 93
1, 378551, Note_on_c, 0, 75, 99
1, 378554, Note_on_c, 0, 87, 95
1, 378560, Note_on_c, 0, 61, 84
1, 378560, Note_on_c, 0, 66, 87
1, 378565, Note_off_c, 0, 75, 77
1, 378572, Note_off_c, 0, 78, 70
1, 378584, Note_off_c, 0, 90, 63
1, 378585, Note_off_c, 0, 66, 68
1, 378586, Note_off_c, 0, 70, 60
1, 378588, Note_off_c, 0, 82, 68
1, 378595, Note_off_c, 0, 87, 66
1, 378612, Note_off_c, 0, 61, 64
1, 378882, Note_on_c, 0, 21, 76
1, 378895, Note_on_c, 0, 93, 88
1, 378899, Note_on_c, 0, 88, 83
1, 378902, Control_c, 0, 64, 104
1, 378917, Control_c, 0, 64, 85
1, 378923, Note_off_c, 0, 88, 63
1, 378923, Note_off_c, 0, 93, 57
1, 378932, Control_c, 0, 64, 63
1, 378947, Control_c, 0, 64, 0
1, 378957, Note_off_c, 0, 21, 58
1, 378995, Note_on_c, 0, 31, 59
1, 379014, Note_on_c, 0, 91, 76
1, 379016, Note_on_c, 0, 96, 77
1, 379026, Note_off_c, 0, 31, 63
1, 379037, Note_off_c, 0, 91, 66
1, 379054, Note_off_c, 0, 96, 61
1, 379132, Note_on_c, 0, 96, 73
1, 379134, Note_on_c, 0, 91, 78
1, 379137, Note_on_c, 0, 28, 25
1, 379139, Control_c, 0, 64, 71
1, 379154, Control_c, 0, 64, 68
1, 379157, Note_off_c, 0, 96, 63
1, 379162, Note_off_c, 0, 91, 60
1, 379169, Control_c, 0, 64, 0
1, 379174, Poly_aftertouch_c, 0, 33, 127
1, 379181, Note_off_c, 0, 28, 39
1, 379203, Poly_aftertouch_c, 0, 33, 0
1, 379250, Note_on_c, 0, 32, 56
1, 379258, Note_on_c, 0, 97, 62
1, 379262, Note_on_c, 0, 34, 40
1, 379268, Note_on_c, 0, 92, 58
1, 379277, Note_off_c, 0, 97, 62
1, 379287, Note_off_c, 0, 32, 64
1, 379288, Note_off_c, 0, 92, 62
1, 379293, Note_off_c, 0, 34, 57
1, 379378, Note_on_c, 0, 92, 67
1, 379379, Note_on_c, 0, 97, 69
1, 379384, Control_c, 0, 64, 65
1, 379392, Note_on_c, 0, 33, 52
1, 379394, Note_on_c, 0, 38, 39
1, 379399, Control_c, 0, 64, 63
1, 379408, Note_off_c, 0, 92, 64
1, 379408, Note_off_c, 0, 97, 66
1, 379414, Control_c, 0, 64, 0
1, 379421, Note_off_c, 0, 33, 58
1, 379426, Note_off_c, 0, 38, 50
1, 379502, Note_on_c, 0, 97, 67
1, 379509, Note_on_c, 0, 32, 47
1, 379509, Note_on_c, 0, 92, 69
1, 379517, Note_on_c, 0, 34, 32
1, 379535, Note_off_c, 0, 97, 62
1, 379535, Note_off_c, 0, 92, 68
1, 379554, Note_off_c, 0, 32, 59
1, 379557, Note_off_c, 0, 34, 52
1, 379618, Note_on_c, 0, 28, 78
1, 379621, Control_c, 0, 64, 79
1, 379622, Note_on_c, 0, 97, 99
1, 379624, Note_on_c, 0, 33, 58
1, 379624, Note_on_c, 0, 92, 95
1, 379636, Control_c, 0, 64, 115
1, 379651, Control_c, 0, 64, 108
1, 379653, Note_off_c, 0, 33, 59
1, 379660, Note_off_c, 0, 28, 63
1, 379666, Control_c, 0, 64, 93
1, 379671, Note_off_c, 0, 92, 66
1, 379679, Note_off_c, 0, 97, 64
1, 379680, Control_c, 0, 64, 82
1, 379695, Control_c, 0, 64, 62
1, 379710, Control_c, 0, 64, 0
1, 379742, Note_on_c, 0, 27, 64
1, 379745, Note_on_c, 0, 31, 51
1, 379749, Note_on_c, 0, 96, 72
1, 379768, Note_on_c, 0, 91, 40
1, 379784, Note_off_c, 0, 31, 61
1, 379786, Note_off_c, 0, 27, 62
1, 379791, Note_off_c, 0, 91, 51
1, 379793, Note_off_c, 0, 96, 62
1, 379855, Note_on_c, 0, 21, 54
1, 379859, Note_on_c, 0, 23, 53
1, 379869, Note_on_c, 0, 93, 69
1, 379875, Note_on_c, 0, 98, 52
1, 379901, Note_on_c, 0, 100, 28
1, 379901, Note_off_c, 0, 93, 59
1, 379912, Note_off_c, 0, 98, 66
1, 379913, Note_off_c, 0, 21, 53
1, 379923, Note_off_c, 0, 23, 54
1, 379934, Note_off_c, 0, 100, 32
1, 379991, Note_on_c, 0, 31, 82
1, 379992, Note_on_c, 0, 98, 95
1, 379994, Note_on_c, 0, 93, 99
1, 380006, Control_c, 0, 64, 58
1, 380010, Note_on_c, 0, 96, 66
1, 380011, Note_off_c, 0, 96, 127
1, 380020, Control_c, 0, 64, 125
1, 380029, Note_off_c, 0, 31, 65
1, 380032, Note_off_c, 0, 93, 63
1, 380035, Control_c, 0, 64, 127
1, 380047, Note_off_c, 0, 98, 66
1, 380050, Control_c, 0, 64, 117
1, 380065, Control_c, 0, 64, 103
1, 380080, Control_c, 0, 64, 85
1, 380096, Control_c, 0, 64, 65
1, 380118, Control_c, 0, 64, 0
1, 380124, Note_on_c, 0, 96, 69
1, 380126, Note_on_c, 0, 91, 68
1, 380137, Note_on_c, 0, 28, 52
1, 380162, Note_off_c, 0, 96, 63
1, 380164, Note_off_c, 0, 91, 57
1, 380168, Note_off_c, 0, 28, 53
1, 380249, Note_on_c, 0, 97, 71
1, 380265, Note_on_c, 0, 32, 55
1, 380272, Note_on_c, 0, 34, 45
1, 380279, Note_off_c, 0, 97, 64
1, 380303, Note_off_c, 0, 32, 64
1, 380307, Note_off_c, 0, 34, 59
1, 380369, Note_on_c, 0, 93, 82
1, 380372, Note_on_c, 0, 88, 67
1, 380378, Note_on_c, 0, 33, 62
1, 380378, Note_on_c, 0, 38, 57
1, 380399, Control_c, 0, 64, 76
1, 380400, Note_off_c, 0, 88, 65
1, 380414, Control_c, 0, 64, 81
1, 380415, Note_off_c, 0, 38, 62
1, 380419, Note_off_c, 0, 33, 63
1, 380420, Note_off_c, 0, 93, 60
1, 380429, Control_c, 0, 64, 78
1, 380444, Control_c, 0, 64, 59
1, 380458, Control_c, 0, 64, 0
1, 380485, Note_on_c, 0, 91, 79
1, 380491, Note_on_c, 0, 96, 77
1, 380495, Note_on_c, 0, 32, 62
1, 380501, Note_on_c, 0, 34, 52
1, 380529, Note_off_c, 0, 96, 62
1, 380530, Note_off_c, 0, 91, 59
1, 380541, Note_off_c, 0, 34, 62
1, 380542, Note_off_c, 0, 32, 61
1, 380605, Note_on_c, 0, 92, 90
1, 380605, Note_on_c, 0, 97, 91
1, 380605, Note_on_c, 0, 33, 73
1, 380607, Control_c, 0, 64, 70
1, 380610, Note_on_c, 0, 28, 72
1, 380622, Control_c, 0, 64, 86
1, 380631, Note_off_c, 0, 33, 65
1, 380651, Control_c, 0, 64, 85
1, 380652, Note_off_c, 0, 92, 66
1, 380652, Note_off_c, 0, 28, 63
1, 380658, Note_off_c, 0, 97, 64
1, 380666, Control_c, 0, 64, 69
1, 380681, Control_c, 0, 64, 0
1, 380728, Note_on_c, 0, 91, 69
1, 380728, Note_on_c, 0, 96, 77
1, 380735, Note_on_c, 0, 27, 61
1, 380758, Note_off_c, 0, 91, 60
1, 380766, Note_on_c, 0, 31, 10
1, 380770, Note_off_c, 0, 96, 63
1, 380773, Note_off_c, 0, 27, 66
1, 380821, Note_off_c, 0, 31, 36
1, 380833, Note_on_c, 0, 93, 82
1, 380838, Note_on_c, 0, 98, 79
1, 380849, Note_on_c, 0, 21, 54
1, 380851, Note_on_c, 0, 23, 51
1, 380868, Note_off_c, 0, 93, 61
1, 380897, Note_off_c, 0, 98, 63
1, 380907, Note_off_c, 0, 21, 54
1, 380913, Note_off_c, 0, 23, 57
1, 380959, Note_on_c, 0, 31, 78
1, 380966, Note_on_c, 0, 93, 100
1, 380969, Note_on_c, 0, 98, 88
1, 380971, Control_c, 0, 64, 42
1, 380986, Control_c, 0, 64, 93
1, 381000, Control_c, 0, 64, 111
1, 381003, Note_off_c, 0, 31, 64
1, 381015, Note_off_c, 0, 93, 61
1, 381015, Control_c, 0, 64, 112
1, 381025, Note_off_c, 0, 98, 65
1, 381060, Control_c, 0, 64, 111
1, 381074, Control_c, 0, 64, 108
1, 381084, Note_on_c, 0, 102, 78
1, 381086, Note_on_c, 0, 97, 79
1, 381089, Control_c, 0, 64, 96
1, 381091, Note_on_c, 0, 28, 59
1, 381096, Note_on_c, 0, 33, 49
1, 381104, Control_c, 0, 64, 82
1, 381119, Control_c, 0, 64, 62
1, 381123, Note_off_c, 0, 28, 58
1, 381127, Note_off_c, 0, 33, 60
1, 381134, Control_c, 0, 64, 0
1, 381140, Note_off_c, 0, 102, 64
1, 381147, Note_off_c, 0, 97, 63
1, 381197, Note_on_c, 0, 98, 79
1, 381207, Note_on_c, 0, 34, 60
1, 381210, Note_on_c, 0, 93, 69
1, 381222, Note_on_c, 0, 32, 46
1, 381242, Note_off_c, 0, 98, 65
1, 381244, Note_off_c, 0, 93, 60
1, 381245, Note_off_c, 0, 34, 63
1, 381254, Note_off_c, 0, 32, 58
1, 381316, Note_on_c, 0, 97, 76
1, 381320, Note_on_c, 0, 92, 74
1, 381348, Note_on_c, 0, 33, 34
1, 381352, Note_off_c, 0, 92, 59
1, 381371, Note_off_c, 0, 97, 61
1, 381389, Note_off_c, 0, 33, 44
1, 381400, Poly_aftertouch_c, 0, 38, 0
1, 381429, Note_on_c, 0, 98, 100
1, 381430, Control_c, 0, 64, 85
1, 381433, Note_on_c, 0, 93, 96
1, 381436, Note_on_c, 0, 32, 71
1, 381439, Note_on_c, 0, 34, 62
1, 381445, Control_c, 0, 64, 93
1, 381460, Control_c, 0, 64, 85
1, 381466, Note_off_c, 0, 93, 62
1, 381472, Note_off_c, 0, 34, 60
1, 381474, Control_c, 0, 64, 61
1, 381479, Note_off_c, 0, 98, 62
1, 381484, Note_off_c, 0, 32, 61
1, 381489, Control_c, 0, 64, 0
1, 381559, Note_on_c, 0, 97, 74
1, 381561, Note_on_c, 0, 92, 70
1, 381571, Note_on_c, 0, 33, 38
1, 381576, Note_on_c, 0, 28, 47
1, 381587, Note_off_c, 0, 92, 69
1, 381598, Note_off_c, 0, 97, 57
1, 381616, Note_off_c, 0, 28, 54
1, 381618, Note_off_c, 0, 33, 45
1, 381674, Control_c, 0, 64, 87
1, 381677, Note_on_c, 0, 98, 103
1, 381681, Note_on_c, 0, 93, 95
1, 381687, Note_on_c, 0, 27, 81
1, 381690, Note_on_c, 0, 31, 74
1, 381690, Control_c, 0, 64, 116
1, 381704, Control_c, 0, 64, 104
1, 381718, Note_off_c, 0, 93, 64
1, 381719, Control_c, 0, 64, 82
1, 381725, Note_off_c, 0, 98, 66
1, 381734, Control_c, 0, 64, 61
1, 381745, Note_off_c, 0, 31, 58
1, 381749, Note_off_c, 0, 27, 59
1, 381749, Control_c, 0, 64, 0
1, 381795, Note_on_c, 0, 23, 61
1, 381801, Note_on_c, 0, 92, 79
1, 381802, Note_on_c, 0, 97, 82
1, 381824, Note_off_c, 0, 92, 66
1, 381847, Note_off_c, 0, 97, 63
1, 381881, Note_off_c, 0, 23, 57
1, 381883, Control_c, 0, 64, 68
1, 381897, Control_c, 0, 64, 113
1, 381901, Note_on_c, 0, 31, 68
1, 381912, Control_c, 0, 64, 120
1, 381922, Note_on_c, 0, 97, 78
1, 381922, Note_on_c, 0, 102, 89
1, 381927, Control_c, 0, 64, 95
1, 381937, Note_off_c, 0, 31, 62
1, 381941, Control_c, 0, 64, 75
1, 381946, Note_off_c, 0, 97, 65
1, 381956, Control_c, 0, 64, 0
1, 381958, Note_off_c, 0, 102, 63
1, 382027, Note_on_c, 0, 33, 53
1, 382032, Note_on_c, 0, 28, 47
1, 382037, Note_on_c, 0, 98, 86
1, 382042, Note_on_c, 0, 93, 74
1, 382059, Note_off_c, 0, 33, 65
1, 382064, Note_off_c, 0, 28, 54
1, 382070, Note_off_c, 0, 93, 63
1, 382077, Note_off_c, 0, 98, 63
1, 382150, Note_on_c, 0, 92, 84
1, 382154, Note_on_c, 0, 34, 56
1, 382155, Note_on_c, 0, 97, 78
1, 382184, Note_on_c, 0, 32, 30
1, 382193, Note_off_c, 0, 92, 62
1, 382196, Note_off_c, 0, 34, 62
1, 382196, Note_off_c, 0, 97, 60
1, 382217, Note_off_c, 0, 32, 50
1, 382265, Note_on_c, 0, 93, 101
1, 382265, Note_on_c, 0, 98, 98
1, 382268, Note_on_c, 0, 38, 75
1, 382269, Note_on_c, 0, 33, 76
1, 382297, Control_c, 0, 64, 67
1, 382301, Note_off_c, 0, 93, 63
1, 382304, Note_off_c, 0, 98, 65
1, 382306, Note_off_c, 0, 33, 68
1, 382313, Control_c, 0, 64, 127
1, 382315, Note_off_c, 0, 38, 63
1, 382369, Note_on_c, 0, 34, 79
1, 382377, Note_on_c, 0, 92, 102
1, 382380, Note_on_c, 0, 32, 62
1, 382384, Note_on_c, 0, 97, 75
1, 382397, Note_off_c, 0, 34, 65
1, 382400, Note_off_c, 0, 97, 64
1, 382408, Note_off_c, 0, 32, 60
1, 382423, Note_off_c, 0, 92, 64
1, 382545, Note_on_c, 0, 79, 85
1, 382577, Note_on_c, 0, 62, 61
1, 382583, Note_on_c, 0, 76, 60
1, 382593, Note_off_c, 0, 79, 60
1, 382595, Note_on_c, 0, 81, 69
1, 382599, Note_on_c, 0, 74, 35
1, 382602, Note_off_c, 0, 76, 63
1, 382620, Note_off_c, 0, 62, 55
1, 382629, Note_off_c, 0, 74, 54
1, 382634, Note_on_c, 0, 84, 85
1, 382637, Note_on_c, 0, 66, 77
1, 382646, Control_c, 0, 64, 95
1, 382654, Note_off_c, 0, 81, 63
1, 382660, Note_off_c, 0, 84, 65
1, 382661, Control_c, 0, 64, 70
1, 382663, Note_off_c, 0, 66, 71
1, 382676, Control_c, 0, 64, 0
1, 382702, Note_on_c, 0, 90, 104
1, 382703, Note_on_c, 0, 78, 114
1, 382705, Note_on_c, 0, 82, 101
1, 382706, Control_c, 0, 64, 73
1, 382707, Note_on_c, 0, 75, 95
1, 382709, Note_on_c, 0, 70, 92
1, 382712, Note_on_c, 0, 87, 89
1, 382713, Note_on_c, 0, 66, 81
1, 382716, Note_on_c, 0, 61, 82
1, 382721, Control_c, 0, 64, 93
1, 382722, Note_off_c, 0, 75, 77
1, 382727, Note_off_c, 0, 70, 69
1, 382730, Note_off_c, 0, 78, 68
1, 382736, Control_c, 0, 64, 127
1, 382740, Note_off_c, 0, 90, 65
1, 382742, Note_off_c, 0, 82, 69
1, 382745, Note_off_c, 0, 66, 64
1, 382752, Note_off_c, 0, 87, 66
1, 382764, Note_off_c, 0, 61, 64
1, 382899, Control_c, 0, 64, 115
1, 382913, Control_c, 0, 64, 94
1, 382928, Control_c, 0, 64, 77
1, 382943, Control_c, 0, 64, 68
1, 382957, Control_c, 0, 64, 69
1, 382972, Control_c, 0, 64, 75
1, 382976, Note_on_c, 0, 96, 107
1, 382981, Note_on_c, 0, 91, 102
1, 382987, Control_c, 0, 64, 83
1, 383002, Control_c, 0, 64, 91
1, 383016, Note_on_c, 0, 21, 25
1, 383017, Control_c, 0, 64, 92
1, 383031, Control_c, 0, 64, 93
1, 383061, Note_off_c, 0, 21, 39
1, 383091, Note_off_c, 0, 91, 53
1, 383100, Note_on_c, 0, 29, 66
1, 383122, Note_off_c, 0, 96, 58
1, 383143, Note_off_c, 0, 29, 61
1, 383143, Control_c, 0, 64, 92
1, 383158, Control_c, 0, 64, 89
1, 383172, Control_c, 0, 64, 79
1, 383187, Control_c, 0, 64, 0
1, 383233, Note_on_c, 0, 92, 80
1, 383234, Note_on_c, 0, 97, 81
1, 383239, Note_on_c, 0, 33, 63
1, 383240, Note_on_c, 0, 28, 58
1, 383258, Note_off_c, 0, 92, 62
1, 383266, Note_off_c, 0, 33, 66
1, 383270, Note_off_c, 0, 97, 54
1, 383271, Note_off_c, 0, 28, 61
1, 383341, Note_on_c, 0, 98, 81
1, 383341, Note_on_c, 0, 93, 85
1, 383349, Note_on_c, 0, 32, 58
1, 383349, Note_on_c, 0, 34, 60
1, 383363, Note_off_c, 0, 93, 65
1, 383369, Note_off_c, 0, 98, 65
1, 383382, Note_off_c, 0, 32, 61
1, 383387, Note_off_c, 0, 34, 62
1, 383451, Note_on_c, 0, 97, 88
1, 383455, Note_on_c, 0, 92, 80
1, 383457, Note_on_c, 0, 38, 55
1, 383463, Note_on_c, 0, 33, 56
1, 383481, Note_off_c, 0, 92, 64
1, 383492, Note_off_c, 0, 38, 62
1, 383494, Note_off_c, 0, 33, 65
1, 383497, Note_off_c, 0, 97, 64
1, 383562, Note_on_c, 0, 98, 89
1, 383565, Note_on_c, 0, 34, 64
1, 383565, Note_on_c, 0, 93, 87
1, 383579, Note_on_c, 0, 32, 54
1, 383597, Note_off_c, 0, 93, 60
1, 383605, Note_off_c, 0, 98, 66
1, 383617, Note_off_c, 0, 32, 61
1, 383619, Note_off_c, 0, 34, 59
1, 383668, Note_on_c, 0, 91, 102
1, 383668, Note_on_c, 0, 96, 103
1, 383675, Note_on_c, 0, 28, 70
1, 383677, Control_c, 0, 64, 78
1, 383680, Note_on_c, 0, 33, 65
1, 383692, Control_c, 0, 64, 127
1, 383700, Note_off_c, 0, 96, 66
1, 383701, Note_off_c, 0, 91, 62
1, 383705, Note_off_c, 0, 28, 63
1, 383709, Note_off_c, 0, 33, 65
1, 383713, Note_on_c, 0, 97, 17
1, 383714, Note_off_c, 0, 97, 127
1, 383824, Note_on_c, 0, 79, 81
1, 383869, Note_on_c, 0, 62, 78
1, 383874, Note_on_c, 0, 81, 78
1, 383879, Note_on_c, 0, 76, 67
1, 383883, Note_on_c, 0, 74, 55
1, 383888, Note_off_c, 0, 79, 60
1, 383902, Note_off_c, 0, 74, 65
1, 383904, Note_off_c, 0, 76, 56
1, 383913, Note_on_c, 0, 69, 42
1, 383925, Note_off_c, 0, 62, 59
1, 383930, Note_on_c, 0, 84, 77
1, 383932, Note_on_c, 0, 66, 69
1, 383934, Note_off_c, 0, 81, 64
1, 383939, Note_off_c, 0, 69, 60
1, 383952, Note_off_c, 0, 66, 69
1, 383953, Note_off_c, 0, 84, 67
1, 383980, Note_on_c, 0, 78, 118
1, 383982, Note_on_c, 0, 90, 104
1, 383984, Note_on_c, 0, 82, 97
1, 383987, Note_on_c, 0, 75, 90
1, 383988, Note_on_c, 0, 70, 93
1, 383992, Note_on_c, 0, 87, 87
1, 383994, Note_on_c, 0, 61, 84
1, 383994, Note_on_c, 0, 66, 85
1, 384003, Note_off_c, 0, 75, 75
1, 384004, Note_off_c, 0, 78, 71
1, 384011, Note_off_c, 0, 70, 66
1, 384015, Note_off_c, 0, 82, 69
1, 384019, Note_off_c, 0, 90, 64
1, 384030, Note_off_c, 0, 66, 63
1, 384037, Note_off_c, 0, 87, 61
1, 384043, Note_off_c, 0, 61, 62
1, 384173, Control_c, 0, 64, 106
1, 384188, Control_c, 0, 64, 83
1, 384203, Control_c, 0, 64, 62
1, 384217, Control_c, 0, 64, 0
1, 384232, Control_c, 0, 64, 61
1, 384247, Control_c, 0, 64, 73
1, 384252, Note_on_c, 0, 96, 112
1, 384253, Note_on_c, 0, 21, 84
1, 384254, Note_on_c, 0, 91, 111
1, 384262, Control_c, 0, 64, 84
1, 384277, Control_c, 0, 64, 100
1, 384290, Note_on_c, 0, 22, 35
1, 384292, Control_c, 0, 64, 111
1, 384307, Control_c, 0, 64, 116
1, 384316, Note_off_c, 0, 91, 0
1, 384322, Control_c, 0, 64, 117
1, 384334, Note_off_c, 0, 22, 46
1, 384340, Note_off_c, 0, 21, 57
1, 384351, Poly_aftertouch_c, 0, 91, 0
1, 384369, Note_on_c, 0, 31, 66
1, 384372, Note_off_c, 0, 96, 58
1, 384381, Control_c, 0, 64, 115
1, 384396, Control_c, 0, 64, 111
1, 384410, Note_off_c, 0, 31, 62
1, 384410, Control_c, 0, 64, 102
1, 384425, Control_c, 0, 64, 80
1, 384440, Control_c, 0, 64, 0
1, 384475, Note_on_c, 0, 92, 85
1, 384475, Note_on_c, 0, 97, 85
1, 384488, Note_on_c, 0, 33, 65
1, 384492, Note_on_c, 0, 28, 63
1, 384497, Note_off_c, 0, 92, 66
1, 384513, Note_off_c, 0, 97, 65
1, 384516, Note_off_c, 0, 33, 65
1, 384527, Note_off_c, 0, 28, 60
1, 384582, Note_on_c, 0, 98, 92
1, 384585, Note_on_c, 0, 93, 90
1, 384599, Note_on_c, 0, 34, 59
1, 384623, Note_on_c, 0, 32, 48
1, 384623, Note_off_c, 0, 93, 60
1, 384631, Note_off_c, 0, 98, 66
1, 384661, Note_off_c, 0, 34, 59
1, 384664, Note_off_c, 0, 32, 61
1, 384702, Note_on_c, 0, 38, 84
1, 384706, Note_on_c, 0, 33, 82
1, 384708, Note_on_c, 0, 96, 101
1, 384710, Note_on_c, 0, 91, 99
1, 384714, Control_c, 0, 64, 80
1, 384720, Note_on_c, 0, 89, 65
1, 384721, Note_off_c, 0, 89, 127
1, 384722, Note_on_c, 0, 95, 74
1, 384729, Note_off_c, 0, 33, 68
1, 384729, Control_c, 0, 64, 127
1, 384739, Note_off_c, 0, 95, 43
1, 384740, Note_off_c, 0, 38, 65
1, 384742, Note_off_c, 0, 96, 65
1, 384743, Note_off_c, 0, 91, 62
1, 384860, Note_on_c, 0, 79, 92
1, 384889, Note_on_c, 0, 80, 59
1, 384892, Note_on_c, 0, 62, 65
1, 384897, Note_on_c, 0, 76, 70
1, 384901, Note_on_c, 0, 74, 55
1, 384918, Note_off_c, 0, 76, 64
1, 384921, Note_on_c, 0, 81, 72
1, 384921, Note_off_c, 0, 74, 64
1, 384921, Note_off_c, 0, 80, 48
1, 384924, Note_off_c, 0, 79, 60
1, 384929, Note_off_c, 0, 62, 60
1, 384952, Note_on_c, 0, 84, 82
1, 384957, Note_on_c, 0, 66, 74
1, 384971, Note_off_c, 0, 81, 64
1, 384978, Note_off_c, 0, 84, 66
1, 384984, Note_off_c, 0, 66, 69
1, 385002, Poly_aftertouch_c, 0, 69, 127
1, 385022, Note_on_c, 0, 90, 108
1, 385023, Note_on_c, 0, 78, 119
1, 385025, Note_on_c, 0, 82, 102
1, 385030, Note_on_c, 0, 75, 98
1, 385031, Note_on_c, 0, 70, 94
1, 385032, Note_on_c, 0, 87, 92
1, 385032, Poly_aftertouch_c, 0, 69, 0
1, 385034, Note_on_c, 0, 66, 85
1, 385037, Note_on_c, 0, 61, 85
1, 385045, Note_off_c, 0, 75, 77
1, 385046, Note_off_c, 0, 78, 74
1, 385049, Note_off_c, 0, 70, 70
1, 385056, Note_off_c, 0, 90, 64
1, 385058, Note_off_c, 0, 66, 65
1, 385059, Note_off_c, 0, 82, 70
1, 385071, Note_off_c, 0, 87, 67
1, 385087, Note_off_c, 0, 61, 63
1, 385278, Control_c, 0, 64, 119
1, 385293, Control_c, 0, 64, 92
1, 385308, Control_c, 0, 64, 72
1, 385323, Control_c, 0, 64, 0
1, 385367, Note_on_c, 0, 91, 106
1, 385368, Note_on_c, 0, 21, 74
1, 385370, Note_on_c, 0, 86, 102
1, 385374, Control_c, 0, 64, 65
1, 385382, Note_on_c, 0, 23, 59
1, 385389, Control_c, 0, 64, 78
1, 385404, Control_c, 0, 64, 90
1, 385419, Control_c, 0, 64, 99
1, 385434, Note_off_c, 0, 23, 51
1, 385434, Control_c, 0, 64, 101
1, 385441, Note_off_c, 0, 21, 54
1, 385448, Control_c, 0, 64, 103
1, 385478, Control_c, 0, 64, 103
1, 385482, Note_on_c, 0, 31, 67
1, 385509, Note_off_c, 0, 91, 53
1, 385526, Note_off_c, 0, 86, 61
1, 385538, Note_off_c, 0, 31, 63
1, 385553, Control_c, 0, 64, 103
1, 385567, Control_c, 0, 64, 98
1, 385582, Control_c, 0, 64, 83
1, 385597, Control_c, 0, 64, 63
1, 385610, Note_on_c, 0, 92, 82
1, 385612, Control_c, 0, 64, 0
1, 385613, Note_on_c, 0, 87, 80
1, 385621, Note_on_c, 0, 28, 58
1, 385626, Note_on_c, 0, 33, 53
1, 385636, Note_off_c, 0, 87, 64
1, 385646, Note_off_c, 0, 92, 58
1, 385654, Note_off_c, 0, 28, 61
1, 385655, Note_off_c, 0, 33, 64
1, 385722, Note_on_c, 0, 93, 84
1, 385723, Note_on_c, 0, 88, 73
1, 385735, Note_on_c, 0, 32, 66
1, 385737, Note_on_c, 0, 34, 61
1, 385744, Note_off_c, 0, 88, 69
1, 385759, Note_off_c, 0, 93, 60
1, 385769, Note_off_c, 0, 34, 65
1, 385771, Note_off_c, 0, 32, 64
1, 385836, Note_on_c, 0, 96, 90
1, 385841, Note_on_c, 0, 91, 79
1, 385845, Note_on_c, 0, 38, 53
1, 385854, Note_on_c, 0, 33, 57
1, 385862, Note_off_c, 0, 91, 67
1, 385879, Note_off_c, 0, 96, 64
1, 385881, Note_off_c, 0, 38, 63
1, 385888, Note_off_c, 0, 33, 65
1, 385958, Note_on_c, 0, 92, 96
1, 385958, Note_on_c, 0, 97, 97
1, 385963, Note_on_c, 0, 32, 70
1, 385968, Control_c, 0, 64, 67
1, 385969, Note_on_c, 0, 34, 62
1, 385982, Control_c, 0, 64, 97
1, 385997, Control_c, 0, 64, 113
1, 386001, Note_off_c, 0, 92, 60
1, 386012, Control_c, 0, 64, 113
1, 386018, Note_off_c, 0, 34, 57
1, 386034, Note_off_c, 0, 32, 59
1, 386055, Note_off_c, 0, 97, 63
1, 386055, Control_c, 0, 64, 114
1, 386070, Control_c, 0, 64, 116
1, 386085, Control_c, 0, 64, 119
1, 386095, Note_on_c, 0, 33, 50
1, 386100, Control_c, 0, 64, 120
1, 386110, Note_on_c, 0, 28, 54
1, 386134, Note_off_c, 0, 33, 55
1, 386137, Control_c, 0, 64, 119
1, 386144, Note_off_c, 0, 28, 60
1, 386152, Control_c, 0, 64, 101
1, 386167, Control_c, 0, 64, 81
1, 386182, Control_c, 0, 64, 22
1, 386196, Control_c, 0, 64, 0
1, 386223, Note_on_c, 0, 102, 109
1, 386224, Note_on_c, 0, 27, 76
1, 386226, Control_c, 0, 64, 63
1, 386228, Note_on_c, 0, 97, 99
1, 386239, Note_on_c, 0, 31, 62
1, 386241, Control_c, 0, 64, 77
1, 386256, Control_c, 0, 64, 97
1, 386261, Note_off_c, 0, 97, 61
1, 386270, Control_c, 0, 64, 112
1, 386285, Control_c, 0, 64, 114
1, 386294, Note_off_c, 0, 102, 62
1, 386297, Note_off_c, 0, 31, 57
1, 386303, Note_off_c, 0, 27, 54
1, 386359, Control_c, 0, 64, 108
1, 386361, Note_on_c, 0, 21, 49
1, 386361, Note_on_c, 0, 23, 45
1, 386374, Control_c, 0, 64, 93
1, 386388, Control_c, 0, 64, 70
1, 386403, Control_c, 0, 64, 0
1, 386442, Note_off_c, 0, 21, 56
1, 386445, Note_off_c, 0, 23, 55
1, 386459, Note_on_c, 0, 98, 103
1, 386462, Control_c, 0, 64, 58
1, 386465, Note_on_c, 0, 31, 64
1, 386466, Note_on_c, 0, 93, 95
1, 386478, Control_c, 0, 64, 74
1, 386489, Note_off_c, 0, 93, 65
1, 386493, Control_c, 0, 64, 83
1, 386501, Note_off_c, 0, 98, 67
1, 386502, Note_off_c, 0, 31, 65
1, 386508, Control_c, 0, 64, 87
1, 386537, Control_c, 0, 64, 83
1, 386552, Control_c, 0, 64, 70
1, 386567, Control_c, 0, 64, 0
1, 386587, Note_on_c, 0, 97, 77
1, 386589, Note_on_c, 0, 92, 83
1, 386590, Note_on_c, 0, 33, 61
1, 386599, Note_on_c, 0, 28, 52
1, 386606, Note_on_c, 0, 98, 60
1, 386607, Note_off_c, 0, 92, 72
1, 386608, Note_off_c, 0, 97, 54
1, 386624, Note_off_c, 0, 98, 64
1, 386625, Note_off_c, 0, 33, 64
1, 386632, Note_off_c, 0, 28, 61
1, 386696, Note_on_c, 0, 98, 95
1, 386703, Note_on_c, 0, 93, 98
1, 386709, Note_on_c, 0, 34, 65
1, 386715, Note_on_c, 0, 32, 64
1, 386737, Note_off_c, 0, 93, 62
1, 386742, Note_off_c, 0, 98, 66
1, 386745, Control_c, 0, 64, 73
1, 386757, Note_off_c, 0, 32, 62
1, 386760, Control_c, 0, 64, 100
1, 386763, Note_off_c, 0, 34, 54
1, 386775, Control_c, 0, 64, 110
1, 386809, Note_on_c, 0, 33, 75
1, 386809, Note_on_c, 0, 38, 78
1, 386812, Note_on_c, 0, 96, 97
1, 386813, Note_on_c, 0, 91, 104
1, 386834, Note_off_c, 0, 33, 67
1, 386842, Note_off_c, 0, 38, 64
1, 386847, Note_off_c, 0, 96, 65
1, 386858, Note_off_c, 0, 91, 60
1, 386977, Note_on_c, 0, 79, 80
1, 387020, Note_on_c, 0, 62, 51
1, 387027, Note_on_c, 0, 81, 74
1, 387034, Control_c, 0, 64, 107
1, 387038, Note_on_c, 0, 76, 34
1, 387046, Note_off_c, 0, 79, 57
1, 387049, Control_c, 0, 64, 93
1, 387050, Note_off_c, 0, 62, 54
1, 387062, Note_on_c, 0, 69, 56
1, 387064, Control_c, 0, 64, 70
1, 387067, Note_off_c, 0, 76, 34
1, 387069, Note_on_c, 0, 66, 78
1, 387069, Note_on_c, 0, 84, 86
1, 387079, Control_c, 0, 64, 0
1, 387081, Poly_aftertouch_c, 0, 74, 0
1, 387085, Note_off_c, 0, 69, 66
1, 387085, Note_off_c, 0, 81, 64
1, 387088, Note_off_c, 0, 84, 72
1, 387095, Note_off_c, 0, 66, 69
1, 387123, Control_c, 0, 64, 62
1, 387130, Note_on_c, 0, 90, 108
1, 387130, Note_on_c, 0, 78, 119
1, 387134, Note_on_c, 0, 75, 100
1, 387136, Note_on_c, 0, 82, 96
1, 387137, Control_c, 0, 64, 82
1, 387138, Note_on_c, 0, 70, 92
1, 387142, Note_on_c, 0, 66, 78
1, 387144, Note_on_c, 0, 87, 91
1, 387148, Note_on_c, 0, 61, 82
1, 387149, Note_off_c, 0, 75, 76
1, 387152, Control_c, 0, 64, 110
1, 387156, Note_off_c, 0, 70, 71
1, 387158, Note_off_c, 0, 78, 66
1, 387167, Control_c, 0, 64, 127
1, 387170, Note_off_c, 0, 66, 66
1, 387170, Note_off_c, 0, 82, 66
1, 387174, Note_off_c, 0, 90, 64
1, 387189, Note_off_c, 0, 87, 62
1, 387194, Note_off_c, 0, 61, 63
1, 387241, Control_c, 0, 67, 14
1, 387255, Control_c, 0, 67, 31
1, 387270, Control_c, 0, 67, 59
1, 387287, Control_c, 0, 67, 80
1, 387301, Control_c, 0, 67, 92
1, 387316, Control_c, 0, 67, 98
1, 387331, Control_c, 0, 67, 101
1, 387346, Control_c, 0, 67, 103
1, 387360, Control_c, 0, 67, 104
1, 387390, Control_c, 0, 64, 118
1, 387405, Control_c, 0, 64, 103
1, 387420, Control_c, 0, 64, 89
1, 387420, Control_c, 0, 67, 103
1, 387434, Control_c, 0, 64, 73
1, 387449, Control_c, 0, 64, 0
1, 387449, Control_c, 0, 67, 103
1, 387464, Control_c, 0, 67, 102
1, 387479, Control_c, 0, 64, 43
1, 387479, Control_c, 0, 67, 102
1, 387486, Note_on_c, 0, 23, 58
1, 387489, Note_on_c, 0, 97, 92
1, 387494, Note_on_c, 0, 92, 86
1, 387494, Control_c, 0, 64, 70
1, 387494, Control_c, 0, 67, 101
1, 387500, Note_on_c, 0, 21, 57
1, 387508, Control_c, 0, 64, 79
1, 387523, Control_c, 0, 64, 86
1, 387538, Control_c, 0, 64, 88
1, 387550, Note_off_c, 0, 21, 30
1, 387631, Note_off_c, 0, 23, 35
1, 387636, Note_on_c, 0, 31, 62
1, 387639, Note_off_c, 0, 92, 63
1, 387641, Note_off_c, 0, 97, 59
1, 387664, Control_c, 0, 64, 88
1, 387672, Note_off_c, 0, 31, 63
1, 387678, Control_c, 0, 64, 84
1, 387693, Control_c, 0, 64, 73
1, 387708, Control_c, 0, 64, 0
1, 387723, Control_c, 0, 67, 100
1, 387738, Control_c, 0, 67, 101
1, 387753, Note_on_c, 0, 96, 75
1, 387753, Control_c, 0, 67, 100
1, 387755, Note_on_c, 0, 28, 58
1, 387756, Note_on_c, 0, 91, 68
1, 387759, Note_on_c, 0, 33, 56
1, 387768, Control_c, 0, 67, 100
1, 387781, Note_off_c, 0, 96, 58
1, 387782, Note_off_c, 0, 91, 64
1, 387785, Note_off_c, 0, 28, 60
1, 387790, Note_off_c, 0, 33, 65
1, 387875, Note_on_c, 0, 96, 62
1, 387880, Note_on_c, 0, 91, 62
1, 387884, Note_on_c, 0, 34, 45
1, 387890, Note_on_c, 0, 32, 43
1, 387896, Note_off_c, 0, 96, 59
1, 387897, Note_off_c, 0, 91, 60
1, 387916, Note_off_c, 0, 34, 58
1, 387924, Note_off_c, 0, 32, 56
1, 387931, Control_c, 0, 67, 100
1, 387960, Control_c, 0, 67, 101
1, 387993, Note_on_c, 0, 91, 62
1, 387994, Note_on_c, 0, 38, 47
1, 387995, Note_on_c, 0, 96, 68
1, 387997, Note_on_c, 0, 33, 54
1, 388005, Control_c, 0, 67, 100
1, 388020, Note_off_c, 0, 96, 56
1, 388020, Control_c, 0, 67, 99
1, 388021, Note_off_c, 0, 91, 63
1, 388031, Note_off_c, 0, 33, 65
1, 388034, Control_c, 0, 67, 98
1, 388039, Note_off_c, 0, 38, 61
1, 388049, Control_c, 0, 67, 97
1, 388064, Control_c, 0, 67, 96
1, 388080, Control_c, 0, 67, 94
1, 388095, Control_c, 0, 67, 91
1, 388110, Control_c, 0, 64, 85
1, 388110, Control_c, 0, 67, 87
1, 388116, Note_on_c, 0, 97, 90
1, 388119, Note_on_c, 0, 92, 92
1, 388121, Note_on_c, 0, 32, 62
1, 388124, Control_c, 0, 64, 104
1, 388124, Control_c, 0, 67, 83
1, 388131, Note_on_c, 0, 34, 52
1, 388139, Control_c, 0, 64, 104
1, 388139, Control_c, 0, 67, 77
1, 388154, Control_c, 0, 64, 96
1, 388154, Control_c, 0, 67, 70
1, 388167, Note_off_c, 0, 92, 64
1, 388169, Control_c, 0, 64, 91
1, 388169, Control_c, 0, 67, 63
1, 388174, Note_off_c, 0, 97, 64
1, 388174, Note_off_c, 0, 32, 58
1, 388177, Note_off_c, 0, 34, 49
1, 388183, Control_c, 0, 64, 75
1, 388183, Control_c, 0, 67, 55
1, 388198, Control_c, 0, 64, 0
1, 388198, Control_c, 0, 67, 51
1, 388213, Control_c, 0, 67, 47
1, 388228, Control_c, 0, 67, 46
1, 388234, Note_on_c, 0, 98, 77
1, 388240, Note_on_c, 0, 93, 73
1, 388243, Control_c, 0, 67, 46
1, 388248, Note_on_c, 0, 28, 60
1, 388253, Note_on_c, 0, 33, 47
1, 388257, Control_c, 0, 67, 45
1, 388271, Note_off_c, 0, 93, 62
1, 388276, Note_off_c, 0, 98, 60
1, 388284, Note_off_c, 0, 28, 63
1, 388286, Note_off_c, 0, 33, 51
1, 388302, Control_c, 0, 67, 45
1, 388332, Control_c, 0, 67, 44
1, 388355, Control_c, 0, 67, 45
1, 388376, Note_on_c, 0, 96, 73
1, 388379, Note_on_c, 0, 91, 62
1, 388382, Note_on_c, 0, 31, 54
1, 388389, Note_on_c, 0, 27, 59
1, 388399, Control_c, 0, 67, 44
1, 388405, Note_off_c, 0, 91, 53
1, 388409, Note_off_c, 0, 96, 62
1, 388414, Control_c, 0, 67, 44
1, 388429, Control_c, 0, 67, 43
1, 388432, Note_off_c, 0, 31, 59
1, 388433, Note_off_c, 0, 27, 63
1, 388444, Control_c, 0, 67, 40
1, 388458, Control_c, 0, 67, 35
1, 388473, Control_c, 0, 67, 31
1, 388488, Control_c, 0, 67, 28
1, 388496, Note_on_c, 0, 21, 67
1, 388497, Note_on_c, 0, 92, 84
1, 388497, Note_on_c, 0, 97, 90
1, 388499, Note_on_c, 0, 23, 56
1, 388502, Control_c, 0, 64, 76
1, 388502, Control_c, 0, 67, 24
1, 388517, Control_c, 0, 64, 98
1, 388517, Control_c, 0, 67, 21
1, 388520, Note_off_c, 0, 92, 65
1, 388531, Note_on_c, 0, 98, 53
1, 388532, Control_c, 0, 64, 97
1, 388532, Control_c, 0, 67, 18
1, 388547, Note_off_c, 0, 97, 62
1, 388547, Control_c, 0, 64, 76
1, 388547, Control_c, 0, 67, 14
1, 388549, Note_on_c, 0, 93, 19
1, 388553, Note_off_c, 0, 98, 58
1, 388562, Note_off_c, 0, 23, 59
1, 388562, Control_c, 0, 64, 41
1, 388562, Control_c, 0, 67, 9
1, 388568, Note_off_c, 0, 21, 56
1, 388576, Control_c, 0, 64, 0
1, 388576, Control_c, 0, 67, 0
1, 388601, Note_on_c, 0, 31, 66
1, 388608, Note_on_c, 0, 98, 89
1, 388611, Note_off_c, 0, 93, 0
1, 388611, Note_on_c, 0, 93, 52
1, 388639, Note_off_c, 0, 31, 64
1, 388646, Note_off_c, 0, 93, 65
1, 388655, Note_off_c, 0, 98, 65
1, 388731, Note_on_c, 0, 96, 81
1, 388733, Note_on_c, 0, 33, 57
1, 388734, Note_on_c, 0, 91, 68
1, 388759, Note_off_c, 0, 91, 57
1, 388771, Note_off_c, 0, 33, 66
1, 388775, Note_off_c, 0, 96, 63
1, 388849, Note_on_c, 0, 97, 98
1, 388850, Note_on_c, 0, 34, 76
1, 388851, Note_on_c, 0, 92, 93
1, 388863, Note_on_c, 0, 32, 62
1, 388874, Control_c, 0, 64, 67
1, 388888, Control_c, 0, 64, 117
1, 388897, Note_off_c, 0, 92, 65
1, 388902, Note_off_c, 0, 97, 66
1, 388903, Control_c, 0, 64, 127
1, 388906, Note_off_c, 0, 32, 60
1, 388917, Note_off_c, 0, 34, 57
1, 388957, Note_on_c, 0, 38, 78
1, 388958, Note_on_c, 0, 33, 75
1, 388963, Note_on_c, 0, 93, 94
1, 388968, Note_on_c, 0, 88, 82
1, 388984, Note_off_c, 0, 33, 67
1, 388993, Note_off_c, 0, 38, 63
1, 388996, Note_off_c, 0, 93, 60
1, 389006, Note_off_c, 0, 88, 63
1, 389127, Note_on_c, 0, 79, 60
1, 389130, Note_on_c, 0, 77, 55
1, 389152, Note_off_c, 0, 77, 56
1, 389154, Note_on_c, 0, 62, 58
1, 389159, Note_on_c, 0, 81, 79
1, 389160, Note_on_c, 0, 68, 36
1, 389166, Note_off_c, 0, 79, 61
1, 389166, Note_on_c, 0, 74, 38
1, 389176, Note_on_c, 0, 76, 47
1, 389193, Control_c, 0, 64, 102
1, 389194, Note_off_c, 0, 74, 56
1, 389195, Note_off_c, 0, 62, 62
1, 389200, Note_off_c, 0, 76, 51
1, 389201, Note_on_c, 0, 84, 77
1, 389207, Control_c, 0, 64, 79
1, 389207, Note_on_c, 0, 66, 73
1, 389215, Note_off_c, 0, 68, 64
1, 389217, Note_off_c, 0, 81, 63
1, 389222, Control_c, 0, 64, 0
1, 389225, Note_off_c, 0, 84, 69
1, 389234, Note_off_c, 0, 66, 70
1, 389267, Control_c, 0, 64, 60
1, 389269, Note_on_c, 0, 90, 103
1, 389271, Note_on_c, 0, 82, 104
1, 389273, Note_on_c, 0, 78, 110
1, 389279, Note_on_c, 0, 70, 90
1, 389279, Note_on_c, 0, 87, 89
1, 389281, Control_c, 0, 64, 79
1, 389282, Note_on_c, 0, 75, 85
1, 389285, Note_on_c, 0, 66, 82
1, 389289, Note_on_c, 0, 61, 72
1, 389296, Control_c, 0, 64, 99
1, 389297, Note_off_c, 0, 75, 71
1, 389297, Note_off_c, 0, 70, 72
1, 389297, Note_off_c, 0, 78, 64
1, 389306, Note_off_c, 0, 90, 67
1, 389308, Note_off_c, 0, 82, 68
1, 389311, Control_c, 0, 64, 127
1, 389317, Note_off_c, 0, 66, 66
1, 389320, Note_off_c, 0, 87, 68
1, 389338, Note_off_c, 0, 61, 64
1, 389459, Control_c, 0, 64, 125
1, 389473, Control_c, 0, 64, 100
1, 389488, Control_c, 0, 64, 82
1, 389503, Control_c, 0, 64, 60
1, 389518, Control_c, 0, 64, 0
1, 389532, Control_c, 0, 64, 63
1, 389547, Control_c, 0, 64, 74
1, 389562, Control_c, 0, 64, 84
1, 389565, Note_on_c, 0, 96, 102
1, 389574, Note_on_c, 0, 89, 81
1, 389577, Control_c, 0, 64, 93
1, 389580, Note_on_c, 0, 91, 78
1, 389592, Control_c, 0, 64, 95
1, 389598, Note_off_c, 0, 91, 54
1, 389607, Control_c, 0, 64, 96
1, 389622, Control_c, 0, 64, 97
1, 389629, Note_off_c, 0, 89, 0
1, 389637, Control_c, 0, 64, 97
1, 389651, Control_c, 0, 64, 98
1, 389665, Poly_aftertouch_c, 0, 89, 0
1, 389682, Control_c, 0, 64, 98
1, 389693, Note_on_c, 0, 31, 59
1, 389699, Note_off_c, 0, 96, 57
1, 389733, Note_off_c, 0, 31, 63
1, 389741, Control_c, 0, 64, 98
1, 389756, Control_c, 0, 64, 97
1, 389771, Control_c, 0, 64, 92
1, 389786, Control_c, 0, 64, 79
1, 389800, Control_c, 0, 64, 56
1, 389813, Note_on_c, 0, 97, 83
1, 389815, Control_c, 0, 64, 0
1, 389821, Note_on_c, 0, 92, 71
1, 389830, Note_on_c, 0, 28, 56
1, 389836, Note_on_c, 0, 33, 50
1, 389855, Note_off_c, 0, 92, 69
1, 389866, Note_off_c, 0, 97, 60
1, 389870, Note_off_c, 0, 28, 55
1, 389874, Note_off_c, 0, 33, 62
1, 389947, Note_on_c, 0, 96, 76
1, 389949, Note_on_c, 0, 91, 71
1, 389957, Note_on_c, 0, 34, 56
1, 389964, Note_on_c, 0, 32, 49
1, 389971, Note_off_c, 0, 96, 63
1, 389973, Note_off_c, 0, 91, 65
1, 389995, Note_off_c, 0, 34, 64
1, 390000, Note_off_c, 0, 32, 59
1, 390060, Note_on_c, 0, 96, 73
1, 390074, Note_on_c, 0, 38, 45
1, 390076, Note_on_c, 0, 91, 54
1, 390089, Note_off_c, 0, 96, 60
1, 390098, Note_off_c, 0, 91, 54
1, 390100, Note_on_c, 0, 33, 27
1, 390109, Note_off_c, 0, 38, 59
1, 390144, Note_off_c, 0, 33, 41
1, 390188, Note_on_c, 0, 34, 50
1, 390188, Note_on_c, 0, 91, 56
1, 390189, Note_on_c, 0, 96, 66
1, 390206, Note_on_c, 0, 32, 39
1, 390226, Note_off_c, 0, 91, 57
1, 390232, Note_off_c, 0, 96, 60
1, 390235, Note_off_c, 0, 34, 59
1, 390242, Note_off_c, 0, 32, 58
1, 390310, Note_on_c, 0, 28, 71
1, 390310, Control_c, 0, 64, 59
1, 390313, Note_on_c, 0, 33, 48
1, 390315, Note_on_c, 0, 97, 90
1, 390322, Note_on_c, 0, 92, 85
1, 390325, Control_c, 0, 64, 80
1, 390346, Note_off_c, 0, 33, 53
1, 390349, Note_off_c, 0, 92, 60
1, 390352, Note_off_c, 0, 28, 61
1, 390355, Control_c, 0, 64, 76
1, 390360, Note_off_c, 0, 97, 64
1, 390370, Control_c, 0, 64, 25
1, 390385, Control_c, 0, 64, 0
1, 390433, Note_on_c, 0, 96, 82
1, 390439, Note_on_c, 0, 91, 64
1, 390441, Note_on_c, 0, 27, 57
1, 390467, Note_on_c, 0, 31, 18
1, 390471, Note_off_c, 0, 91, 62
1, 390479, Note_off_c, 0, 96, 65
1, 390483, Note_off_c, 0, 27, 64
1, 390510, Note_off_c, 0, 31, 43
1, 390552, Note_on_c, 0, 97, 79
1, 390553, Note_on_c, 0, 92, 77
1, 390554, Note_on_c, 0, 23, 55
1, 390557, Note_on_c, 0, 21, 56
1, 390581, Note_off_c, 0, 92, 64
1, 390606, Note_off_c, 0, 97, 61
1, 390623, Note_off_c, 0, 21, 53
1, 390623, Note_off_c, 0, 23, 59
1, 390656, Note_on_c, 0, 31, 60
1, 390686, Note_on_c, 0, 93, 71
1, 390691, Note_on_c, 0, 98, 66
1, 390705, Note_off_c, 0, 31, 62
1, 390713, Note_off_c, 0, 93, 53
1, 390716, Note_off_c, 0, 98, 69
1, 390796, Note_on_c, 0, 97, 90
1, 390800, Note_on_c, 0, 33, 65
1, 390801, Note_on_c, 0, 102, 93
1, 390802, Note_on_c, 0, 28, 66
1, 390808, Control_c, 0, 64, 72
1, 390823, Control_c, 0, 64, 74
1, 390835, Note_off_c, 0, 33, 65
1, 390838, Control_c, 0, 64, 60
1, 390838, Note_off_c, 0, 102, 67
1, 390841, Note_off_c, 0, 28, 62
1, 390846, Note_off_c, 0, 97, 61
1, 390852, Control_c, 0, 64, 0
1, 390915, Note_on_c, 0, 98, 83
1, 390918, Note_on_c, 0, 93, 73
1, 390941, Note_on_c, 0, 34, 60
1, 390945, Note_off_c, 0, 98, 64
1, 390949, Note_on_c, 0, 32, 52
1, 390955, Note_off_c, 0, 93, 61
1, 390976, Note_off_c, 0, 34, 64
1, 390984, Note_off_c, 0, 32, 63
1, 391038, Note_on_c, 0, 92, 77
1, 391042, Note_on_c, 0, 97, 71
1, 391050, Note_on_c, 0, 33, 59
1, 391065, Note_on_c, 0, 38, 35
1, 391077, Note_off_c, 0, 97, 56
1, 391079, Note_off_c, 0, 92, 57
1, 391089, Note_off_c, 0, 33, 65
1, 391097, Note_off_c, 0, 38, 51
1, 391158, Note_on_c, 0, 98, 104
1, 391160, Note_on_c, 0, 93, 101
1, 391163, Note_on_c, 0, 32, 72
1, 391169, Note_on_c, 0, 34, 62
1, 391193, Control_c, 0, 64, 72
1, 391208, Control_c, 0, 64, 109
1, 391209, Note_off_c, 0, 34, 62
1, 391214, Note_off_c, 0, 32, 60
1, 391222, Control_c, 0, 64, 119
1, 391237, Control_c, 0, 64, 118
1, 391252, Control_c, 0, 64, 118
1, 391267, Control_c, 0, 64, 115
1, 391282, Note_on_c, 0, 33, 56
1, 391282, Control_c, 0, 64, 111
1, 391285, Note_off_c, 0, 93, 56
1, 391288, Note_on_c, 0, 28, 60
1, 391297, Control_c, 0, 64, 104
1, 391303, Note_off_c, 0, 98, 50
1, 391312, Note_off_c, 0, 33, 61
1, 391312, Control_c, 0, 64, 90
1, 391322, Note_off_c, 0, 28, 61
1, 391327, Control_c, 0, 64, 73
1, 391349, Control_c, 0, 64, 0
1, 391404, Note_on_c, 0, 96, 82
1, 391407, Note_on_c, 0, 31, 62
1, 391413, Note_on_c, 0, 91, 68
1, 391425, Note_on_c, 0, 27, 50
1, 391438, Note_off_c, 0, 96, 62
1, 391440, Note_off_c, 0, 91, 64
1, 391452, Note_off_c, 0, 31, 61
1, 391464, Note_off_c, 0, 27, 63
1, 391516, Note_on_c, 0, 21, 58
1, 391522, Note_on_c, 0, 23, 53
1, 391527, Note_on_c, 0, 97, 76
1, 391533, Note_on_c, 0, 92, 76
1, 391557, Note_off_c, 0, 92, 66
1, 391578, Note_off_c, 0, 97, 60
1, 391582, Note_off_c, 0, 23, 54
1, 391587, Note_off_c, 0, 21, 57
1, 391618, Note_on_c, 0, 31, 66
1, 391644, Note_on_c, 0, 96, 72
1, 391647, Note_on_c, 0, 91, 68
1, 391662, Note_off_c, 0, 31, 64
1, 391673, Note_off_c, 0, 91, 63
1, 391682, Note_off_c, 0, 96, 56
1, 391756, Note_on_c, 0, 28, 68
1, 391756, Note_on_c, 0, 33, 68
1, 391758, Note_on_c, 0, 93, 99
1, 391758, Note_on_c, 0, 98, 92
1, 391764, Control_c, 0, 64, 38
1, 391779, Control_c, 0, 64, 97
1, 391787, Note_off_c, 0, 33, 64
1, 391789, Note_off_c, 0, 28, 61
1, 391792, Note_off_c, 0, 93, 62
1, 391794, Control_c, 0, 64, 108
1, 391801, Note_off_c, 0, 98, 68
1, 391808, Control_c, 0, 64, 100
1, 391823, Control_c, 0, 64, 93
1, 391838, Control_c, 0, 64, 83
1, 391852, Control_c, 0, 64, 66
1, 391867, Control_c, 0, 64, 0
1, 391880, Note_on_c, 0, 96, 80
1, 391881, Note_on_c, 0, 34, 55
1, 391881, Note_on_c, 0, 91, 76
1, 391887, Note_on_c, 0, 32, 55
1, 391907, Note_off_c, 0, 96, 63
1, 391913, Note_off_c, 0, 91, 60
1, 391916, Note_off_c, 0, 34, 63
1, 391921, Note_off_c, 0, 32, 63
1, 391986, Note_on_c, 0, 33, 70
1, 391998, Note_on_c, 0, 38, 54
1, 391998, Note_on_c, 0, 92, 85
1, 392003, Note_on_c, 0, 87, 75
1, 392030, Note_off_c, 0, 87, 64
1, 392032, Note_off_c, 0, 33, 64
1, 392033, Note_off_c, 0, 38, 63
1, 392033, Note_off_c, 0, 92, 57
1, 392117, Note_on_c, 0, 34, 65
1, 392126, Note_on_c, 0, 32, 50
1, 392129, Note_on_c, 0, 91, 81
1, 392148, Note_on_c, 0, 86, 36
1, 392168, Note_off_c, 0, 32, 61
1, 392170, Note_off_c, 0, 91, 59
1, 392177, Note_off_c, 0, 34, 58
1, 392179, Note_off_c, 0, 86, 47
1, 392228, Note_on_c, 0, 33, 53
1, 392242, Note_on_c, 0, 28, 65
1, 392248, Note_on_c, 0, 88, 75
1, 392250, Note_on_c, 0, 93, 78
1, 392260, Note_off_c, 0, 33, 64
1, 392273, Note_off_c, 0, 88, 65
1, 392283, Note_off_c, 0, 28, 64
1, 392293, Note_off_c, 0, 93, 59
1, 392361, Note_on_c, 0, 96, 91
1, 392364, Note_on_c, 0, 27, 74
1, 392368, Note_on_c, 0, 91, 82
1, 392374, Note_on_c, 0, 31, 58
1, 392391, Note_off_c, 0, 91, 63
1, 392406, Note_off_c, 0, 96, 63
1, 392415, Note_off_c, 0, 27, 62
1, 392418, Note_off_c, 0, 31, 61
1, 392472, Note_on_c, 0, 21, 61
1, 392481, Note_on_c, 0, 92, 85
1, 392483, Note_on_c, 0, 23, 50
1, 392483, Control_c, 0, 64, 56
1, 392484, Note_on_c, 0, 87, 75
1, 392498, Control_c, 0, 64, 64
1, 392510, Note_off_c, 0, 87, 62
1, 392513, Control_c, 0, 64, 67
1, 392528, Note_off_c, 0, 23, 60
1, 392528, Control_c, 0, 64, 71
1, 392532, Note_off_c, 0, 92, 64
1, 392543, Note_off_c, 0, 21, 58
1, 392543, Control_c, 0, 64, 74
1, 392558, Control_c, 0, 64, 78
1, 392567, Note_on_c, 0, 31, 65
1, 392573, Control_c, 0, 64, 79
1, 392588, Control_c, 0, 64, 80
1, 392596, Note_on_c, 0, 86, 71
1, 392600, Note_off_c, 0, 31, 63
1, 392603, Note_on_c, 0, 91, 75
1, 392603, Control_c, 0, 64, 80
1, 392617, Control_c, 0, 64, 81
1, 392629, Note_off_c, 0, 86, 62
1, 392632, Control_c, 0, 64, 82
1, 392647, Control_c, 0, 64, 82
1, 392659, Note_off_c, 0, 91, 52
1, 392662, Control_c, 0, 64, 83
1, 392667, Note_on_c, 0, 93, 69
1, 392668, Note_on_c, 0, 88, 75
1, 392683, Note_on_c, 0, 29, 63
1, 392689, Note_on_c, 0, 35, 64
1, 392691, Control_c, 0, 64, 83
1, 392702, Note_off_c, 0, 88, 62
1, 392706, Control_c, 0, 64, 84
1, 392716, Note_off_c, 0, 29, 62
1, 392719, Note_off_c, 0, 35, 64
1, 392721, Control_c, 0, 64, 85
1, 392722, Note_off_c, 0, 93, 62
1, 392736, Control_c, 0, 64, 86
1, 392750, Control_c, 0, 64, 88
1, 392765, Control_c, 0, 64, 89
1, 392790, Note_on_c, 0, 86, 79
1, 392795, Control_c, 0, 64, 89
1, 392822, Note_off_c, 0, 86, 64
1, 392824, Control_c, 0, 64, 90
1, 392829, Note_on_c, 0, 91, 72
1, 392839, Control_c, 0, 64, 93
1, 392856, Note_on_c, 0, 94, 81
1, 392861, Note_off_c, 0, 91, 62
1, 392862, Control_c, 0, 64, 99
1, 392877, Control_c, 0, 64, 106
1, 392892, Control_c, 0, 64, 112
1, 392894, Note_on_c, 0, 97, 75
1, 392897, Note_on_c, 0, 99, 86
1, 392906, Note_off_c, 0, 94, 66
1, 392907, Control_c, 0, 64, 113
1, 392917, Note_off_c, 0, 97, 64
1, 392917, Note_off_c, 0, 99, 72
1, 392922, Control_c, 0, 64, 112
1, 392951, Control_c, 0, 64, 105
1, 392966, Control_c, 0, 64, 90
1, 392981, Control_c, 0, 64, 69
1, 392996, Control_c, 0, 64, 0
1, 392998, Note_on_c, 0, 71, 88
1, 393003, Note_on_c, 0, 76, 105
1, 393004, Note_on_c, 0, 66, 78
1, 393005, Note_on_c, 0, 86, 94
1, 393006, Note_on_c, 0, 58, 72
1, 393011, Note_on_c, 0, 81, 83
1, 393011, Note_on_c, 0, 84, 86
1, 393012, Note_on_c, 0, 63, 64
1, 393020, Note_on_c, 0, 61, 54
1, 393020, Note_on_c, 0, 79, 72
1, 393030, Note_off_c, 0, 81, 60
1, 393037, Note_off_c, 0, 79, 63
1, 393050, Note_off_c, 0, 63, 61
1, 393053, Note_off_c, 0, 61, 63
1, 393055, Control_c, 0, 64, 64
1, 393068, Note_off_c, 0, 71, 50
1, 393069, Note_off_c, 0, 58, 63
1, 393070, Control_c, 0, 64, 68
1, 393071, Note_off_c, 0, 66, 62
1, 393073, Note_off_c, 0, 86, 62
1, 393084, Note_off_c, 0, 76, 57
1, 393085, Control_c, 0, 64, 73
1, 393099, Control_c, 0, 64, 79
1, 393106, Note_off_c, 0, 84, 52
1, 393114, Control_c, 0, 64, 83
1, 393129, Control_c, 0, 64, 84
1, 393144, Control_c, 0, 64, 85
1, 393159, Control_c, 0, 64, 87
1, 393173, Control_c, 0, 64, 88
1, 393188, Control_c, 0, 64, 89
1, 393203, Control_c, 0, 64, 90
1, 393218, Control_c, 0, 64, 91
1, 393233, Note_on_c, 0, 70, 86
1, 393233, Control_c, 0, 64, 91
1, 393244, Note_on_c, 0, 81, 84
1, 393245, Note_on_c, 0, 78, 90
1, 393247, Control_c, 0, 64, 92
1, 393248, Note_on_c, 0, 75, 79
1, 393249, Note_on_c, 0, 59, 68
1, 393251, Note_off_c, 0, 70, 72
1, 393262, Control_c, 0, 64, 93
1, 393270, Note_off_c, 0, 75, 71
1, 393277, Control_c, 0, 64, 94
1, 393280, Note_off_c, 0, 59, 66
1, 393285, Note_off_c, 0, 81, 62
1, 393288, Note_off_c, 0, 78, 61
1, 393291, Control_c, 0, 64, 95
1, 393301, Poly_aftertouch_c, 0, 68, 127
1, 393306, Control_c, 0, 64, 95
1, 393325, Poly_aftertouch_c, 0, 68, 0
1, 393381, Control_c, 0, 64, 94
1, 393391, Note_on_c, 0, 96, 101
1, 393395, Note_on_c, 0, 91, 93
1, 393396, Control_c, 0, 64, 91
1, 393410, Control_c, 0, 64, 86
1, 393423, Note_on_c, 0, 21, 78
1, 393423, Note_off_c, 0, 96, 66
1, 393425, Note_off_c, 0, 91, 59
1, 393425, Control_c, 0, 64, 75
1, 393440, Control_c, 0, 64, 63
1, 393455, Control_c, 0, 64, 0
1, 393491, Note_off_c, 0, 21, 58
1, 393506, Note_on_c, 0, 96, 89
1, 393507, Note_on_c, 0, 91, 86
1, 393522, Note_on_c, 0, 31, 57
1, 393534, Note_off_c, 0, 96, 59
1, 393540, Note_off_c, 0, 91, 62
1, 393552, Note_off_c, 0, 31, 60
1, 393636, Note_on_c, 0, 92, 91
1, 393639, Note_on_c, 0, 87, 86
1, 393640, Note_on_c, 0, 33, 66
1, 393646, Note_on_c, 0, 28, 61
1, 393675, Note_off_c, 0, 33, 64
1, 393677, Note_off_c, 0, 87, 57
1, 393683, Note_off_c, 0, 28, 61
1, 393683, Note_off_c, 0, 92, 64
1, 393754, Note_on_c, 0, 86, 77
1, 393756, Note_on_c, 0, 91, 83
1, 393777, Note_on_c, 0, 32, 57
1, 393777, Note_on_c, 0, 34, 51
1, 393780, Note_off_c, 0, 86, 64
1, 393795, Note_off_c, 0, 91, 59
1, 393814, Note_off_c, 0, 32, 64
1, 393814, Note_off_c, 0, 34, 65
1, 393848, Note_on_c, 0, 88, 82
1, 393849, Note_on_c, 0, 93, 95
1, 393863, Note_on_c, 0, 38, 76
1, 393864, Control_c, 0, 64, 59
1, 393870, Note_on_c, 0, 33, 61
1, 393878, Control_c, 0, 64, 68
1, 393878, Note_off_c, 0, 88, 62
1, 393885, Note_off_c, 0, 93, 64
1, 393893, Control_c, 0, 64, 74
1, 393898, Note_off_c, 0, 33, 60
1, 393900, Note_off_c, 0, 38, 67
1, 393908, Control_c, 0, 64, 80
1, 393922, Control_c, 0, 64, 84
1, 393937, Control_c, 0, 64, 85
1, 393952, Control_c, 0, 64, 87
1, 393964, Note_on_c, 0, 86, 75
1, 393967, Control_c, 0, 64, 88
1, 393982, Control_c, 0, 64, 89
1, 393994, Note_off_c, 0, 86, 57
1, 393996, Control_c, 0, 64, 90
1, 394000, Note_on_c, 0, 94, 76
1, 394011, Control_c, 0, 64, 91
1, 394014, Note_on_c, 0, 92, 74
1, 394026, Control_c, 0, 64, 93
1, 394035, Note_on_c, 0, 97, 79
1, 394036, Note_off_c, 0, 92, 70
1, 394041, Control_c, 0, 64, 93
1, 394046, Note_on_c, 0, 98, 73
1, 394050, Note_off_c, 0, 94, 66
1, 394056, Control_c, 0, 64, 94
1, 394062, Note_off_c, 0, 98, 70
1, 394070, Note_off_c, 0, 97, 56
1, 394070, Control_c, 0, 64, 94
1, 394100, Control_c, 0, 64, 95
1, 394114, Control_c, 0, 64, 95
1, 394159, Control_c, 0, 64, 95
1, 394172, Note_on_c, 0, 75, 99
1, 394174, Control_c, 0, 64, 91
1, 394175, Note_on_c, 0, 80, 89
1, 394179, Note_on_c, 0, 70, 98
1, 394179, Note_on_c, 0, 84, 87
1, 394183, Note_on_c, 0, 68, 88
1, 394185, Note_on_c, 0, 85, 55
1, 394188, Note_off_c, 0, 75, 76
1, 394188, Control_c, 0, 64, 81
1, 394189, Note_on_c, 0, 82, 59
1, 394191, Note_on_c, 0, 65, 71
1, 394191, Note_on_c, 0, 59, 70
1, 394195, Note_on_c, 0, 78, 43
1, 394196, Note_off_c, 0, 78, 127
1, 394203, Control_c, 0, 64, 73
1, 394205, Note_on_c, 0, 62, 57
1, 394206, Note_off_c, 0, 85, 39
1, 394208, Note_off_c, 0, 82, 62
1, 394211, Note_off_c, 0, 80, 45
1, 394218, Control_c, 0, 64, 69
1, 394222, Note_off_c, 0, 84, 65
1, 394248, Control_c, 0, 64, 71
1, 394263, Control_c, 0, 64, 75
1, 394271, Note_off_c, 0, 65, 60
1, 394278, Control_c, 0, 64, 78
1, 394283, Note_off_c, 0, 68, 59
1, 394286, Note_off_c, 0, 59, 47
1, 394290, Note_off_c, 0, 62, 56
1, 394292, Control_c, 0, 64, 80
1, 394307, Control_c, 0, 64, 81
1, 394314, Note_on_c, 0, 87, 60
1, 394321, Control_c, 0, 64, 82
1, 394343, Note_off_c, 0, 87, 61
1, 394344, Control_c, 0, 64, 83
1, 394358, Control_c, 0, 64, 83
1, 394370, Note_on_c, 0, 80, 80
1, 394373, Control_c, 0, 64, 85
1, 394388, Control_c, 0, 64, 88
1, 394391, Note_off_c, 0, 80, 72
1, 394399, Note_on_c, 0, 87, 71
1, 394403, Note_on_c, 0, 84, 73
1, 394403, Control_c, 0, 64, 90
1, 394418, Control_c, 0, 64, 91
1, 394432, Note_off_c, 0, 87, 51
1, 394436, Note_on_c, 0, 91, 100
1, 394439, Note_on_c, 0, 89, 67
1, 394444, Note_off_c, 0, 84, 64
1, 394462, Note_on_c, 0, 86, 15
1, 394462, Note_off_c, 0, 89, 70
1, 394475, Note_off_c, 0, 91, 63
1, 394493, Control_c, 0, 64, 90
1, 394494, Note_off_c, 0, 70, 35
1, 394505, Note_off_c, 0, 86, 46
1, 394507, Control_c, 0, 64, 83
1, 394522, Control_c, 0, 64, 66
1, 394537, Control_c, 0, 64, 0
1, 394581, Note_on_c, 0, 70, 101
1, 394584, Note_on_c, 0, 66, 92
1, 394588, Note_on_c, 0, 63, 82
1, 394590, Note_on_c, 0, 58, 84
1, 394590, Note_on_c, 0, 73, 97
1, 394590, Note_on_c, 0, 78, 103
1, 394597, Control_c, 0, 64, 66
1, 394601, Note_on_c, 0, 61, 67
1, 394604, Note_off_c, 0, 70, 69
1, 394605, Note_off_c, 0, 73, 73
1, 394612, Control_c, 0, 64, 79
1, 394617, Note_off_c, 0, 66, 67
1, 394626, Control_c, 0, 64, 95
1, 394629, Note_off_c, 0, 78, 67
1, 394634, Note_off_c, 0, 61, 59
1, 394638, Note_off_c, 0, 63, 63
1, 394641, Control_c, 0, 64, 107
1, 394655, Note_off_c, 0, 58, 64
1, 394656, Control_c, 0, 64, 108
1, 394670, Control_c, 0, 64, 109
1, 394804, Control_c, 0, 64, 108
1, 395041, Control_c, 0, 64, 108
1, 395043, Note_on_c, 0, 21, 54
1, 395054, Note_on_c, 0, 90, 86
1, 395056, Control_c, 0, 64, 103
1, 395059, Note_on_c, 0, 85, 76
1, 395065, Note_on_c, 0, 23, 45
1, 395071, Control_c, 0, 64, 95
1, 395081, Note_off_c, 0, 85, 66
1, 395093, Control_c, 0, 64, 81
1, 395108, Control_c, 0, 64, 56
1, 395109, Note_off_c, 0, 90, 62
1, 395123, Control_c, 0, 64, 0
1, 395170, Note_off_c, 0, 23, 56
1, 395175, Note_off_c, 0, 21, 56
1, 395181, Note_on_c, 0, 90, 102
1, 395184, Note_on_c, 0, 85, 89
1, 395186, Note_on_c, 0, 31, 80
1, 395197, Control_c, 0, 64, 35
1, 395212, Control_c, 0, 64, 72
1, 395226, Note_off_c, 0, 31, 64
1, 395226, Control_c, 0, 64, 82
1, 395241, Control_c, 0, 64, 92
1, 395334, Note_on_c, 0, 28, 41
1, 395336, Note_on_c, 0, 35, 31
1, 395376, Note_off_c, 0, 28, 45
1, 395376, Note_off_c, 0, 35, 51
1, 395389, Poly_aftertouch_c, 0, 29, 127
1, 395414, Note_off_c, 0, 85, 42
1, 395435, Poly_aftertouch_c, 0, 29, 0
1, 395435, Control_c, 0, 64, 89
1, 395449, Control_c, 0, 64, 81
1, 395461, Note_on_c, 0, 32, 53
1, 395462, Note_on_c, 0, 34, 51
1, 395462, Note_on_c, 0, 91, 80
1, 395462, Note_off_c, 0, 90, 62
1, 395464, Control_c, 0, 64, 64
1, 395467, Note_on_c, 0, 86, 79
1, 395479, Control_c, 0, 64, 0
1, 395494, Note_off_c, 0, 86, 64
1, 395500, Note_off_c, 0, 32, 53
1, 395503, Note_off_c, 0, 34, 62
1, 395506, Note_off_c, 0, 91, 60
1, 395584, Note_on_c, 0, 38, 50
1, 395587, Note_on_c, 0, 33, 52
1, 395590, Note_on_c, 0, 92, 83
1, 395600, Note_on_c, 0, 87, 71
1, 395621, Note_off_c, 0, 38, 63
1, 395622, Note_off_c, 0, 33, 65
1, 395624, Note_off_c, 0, 87, 68
1, 395629, Note_off_c, 0, 92, 61
1, 395714, Note_on_c, 0, 32, 48
1, 395717, Note_on_c, 0, 34, 45
1, 395720, Note_on_c, 0, 87, 72
1, 395721, Note_on_c, 0, 92, 72
1, 395746, Note_off_c, 0, 87, 65
1, 395751, Note_off_c, 0, 92, 64
1, 395757, Note_off_c, 0, 32, 61
1, 395763, Note_off_c, 0, 34, 62
1, 395847, Note_on_c, 0, 92, 70
1, 395849, Note_on_c, 0, 87, 66
1, 395851, Note_on_c, 0, 28, 55
1, 395856, Note_on_c, 0, 33, 37
1, 395877, Note_off_c, 0, 87, 66
1, 395888, Note_off_c, 0, 28, 63
1, 395892, Note_off_c, 0, 92, 59
1, 395894, Note_off_c, 0, 33, 45
1, 395947, Control_c, 0, 64, 48
1, 395962, Control_c, 0, 64, 71
1, 395969, Note_on_c, 0, 96, 91
1, 395976, Note_on_c, 0, 91, 87
1, 395976, Control_c, 0, 64, 66
1, 395984, Note_on_c, 0, 27, 60
1, 395991, Note_on_c, 0, 31, 51
1, 395991, Control_c, 0, 64, 0
1, 395996, Note_off_c, 0, 91, 62
1, 396007, Note_off_c, 0, 96, 62
1, 396021, Note_off_c, 0, 27, 53
1, 396025, Note_off_c, 0, 31, 55
1, 396088, Note_on_c, 0, 21, 60
1, 396094, Note_on_c, 0, 23, 51
1, 396097, Note_on_c, 0, 87, 75
1, 396099, Note_on_c, 0, 92, 71
1, 396119, Note_off_c, 0, 87, 68
1, 396124, Note_off_c, 0, 92, 65
1, 396158, Note_off_c, 0, 23, 56
1, 396160, Note_off_c, 0, 21, 56
1, 396187, Note_on_c, 0, 31, 62
1, 396218, Note_on_c, 0, 91, 79
1, 396221, Note_on_c, 0, 86, 69
1, 396232, Note_off_c, 0, 31, 64
1, 396244, Note_off_c, 0, 86, 69
1, 396248, Note_off_c, 0, 91, 54
1, 396319, Note_on_c, 0, 28, 66
1, 396324, Note_on_c, 0, 33, 61
1, 396334, Note_on_c, 0, 88, 88
1, 396335, Note_on_c, 0, 93, 91
1, 396357, Note_off_c, 0, 33, 65
1, 396358, Note_off_c, 0, 28, 64
1, 396362, Control_c, 0, 64, 64
1, 396368, Note_off_c, 0, 88, 62
1, 396376, Note_off_c, 0, 93, 61
1, 396377, Control_c, 0, 64, 65
1, 396391, Control_c, 0, 64, 0
1, 396457, Note_on_c, 0, 32, 61
1, 396464, Note_on_c, 0, 34, 52
1, 396469, Note_on_c, 0, 86, 69
1, 396475, Note_on_c, 0, 91, 70
1, 396486, Note_off_c, 0, 86, 68
1, 396493, Note_off_c, 0, 91, 61
1, 396500, Note_off_c, 0, 32, 62
1, 396502, Note_off_c, 0, 34, 64
1, 396582, Note_on_c, 0, 87, 77
1, 396586, Note_on_c, 0, 33, 58
1, 396595, Note_on_c, 0, 92, 75
1, 396604, Note_on_c, 0, 38, 44
1, 396618, Note_off_c, 0, 87, 59
1, 396622, Note_off_c, 0, 92, 63
1, 396629, Note_off_c, 0, 33, 64
1, 396639, Note_off_c, 0, 38, 60
1, 396695, Control_c, 0, 64, 72
1, 396707, Note_on_c, 0, 96, 91
1, 396710, Note_on_c, 0, 91, 94
1, 396710, Control_c, 0, 64, 76
1, 396711, Note_on_c, 0, 32, 61
1, 396711, Note_on_c, 0, 34, 64
1, 396725, Control_c, 0, 64, 72
1, 396733, Note_off_c, 0, 96, 64
1, 396734, Note_off_c, 0, 91, 62
1, 396740, Control_c, 0, 64, 0
1, 396755, Note_off_c, 0, 34, 59
1, 396761, Note_off_c, 0, 32, 61
1, 396827, Note_on_c, 0, 87, 76
1, 396829, Note_on_c, 0, 92, 79
1, 396831, Note_on_c, 0, 28, 64
1, 396833, Note_on_c, 0, 33, 49
1, 396848, Note_off_c, 0, 87, 68
1, 396859, Note_off_c, 0, 92, 63
1, 396868, Note_off_c, 0, 33, 50
1, 396869, Note_off_c, 0, 28, 63
1, 396943, Note_on_c, 0, 93, 88
1, 396951, Note_on_c, 0, 88, 69
1, 396953, Note_on_c, 0, 27, 66
1, 396974, Note_on_c, 0, 31, 42
1, 396975, Note_off_c, 0, 88, 68
1, 396987, Note_off_c, 0, 93, 61
1, 396998, Note_off_c, 0, 27, 60
1, 397019, Note_off_c, 0, 31, 55
1, 397060, Note_on_c, 0, 96, 86
1, 397064, Note_on_c, 0, 91, 83
1, 397071, Note_on_c, 0, 21, 56
1, 397081, Note_on_c, 0, 23, 47
1, 397086, Note_off_c, 0, 91, 63
1, 397104, Note_off_c, 0, 96, 63
1, 397146, Note_off_c, 0, 23, 57
1, 397152, Note_off_c, 0, 21, 58
1, 397174, Note_on_c, 0, 31, 66
1, 397183, Note_on_c, 0, 91, 92
1, 397184, Note_on_c, 0, 96, 89
1, 397208, Note_off_c, 0, 31, 63
1, 397214, Note_off_c, 0, 91, 63
1, 397222, Note_off_c, 0, 96, 65
1, 397229, Control_c, 0, 67, 8
1, 397244, Control_c, 0, 67, 12
1, 397259, Control_c, 0, 67, 18
1, 397274, Control_c, 0, 67, 24
1, 397289, Control_c, 0, 67, 27
1, 397301, Note_on_c, 0, 28, 57
1, 397302, Note_on_c, 0, 92, 89
1, 397304, Note_on_c, 0, 33, 52
1, 397304, Note_on_c, 0, 97, 81
1, 397304, Control_c, 0, 67, 28
1, 397318, Control_c, 0, 67, 27
1, 397333, Control_c, 0, 67, 26
1, 397342, Note_off_c, 0, 33, 63
1, 397343, Note_off_c, 0, 28, 63
1, 397354, Note_off_c, 0, 92, 63
1, 397355, Note_off_c, 0, 97, 62
1, 397370, Control_c, 0, 67, 25
1, 397385, Control_c, 0, 67, 25
1, 397425, Note_on_c, 0, 96, 88
1, 397428, Note_on_c, 0, 91, 84
1, 397429, Control_c, 0, 67, 25
1, 397437, Note_on_c, 0, 32, 60
1, 397441, Note_on_c, 0, 34, 57
1, 397459, Control_c, 0, 67, 25
1, 397470, Note_off_c, 0, 96, 63
1, 397473, Note_off_c, 0, 91, 60
1, 397473, Control_c, 0, 67, 24
1, 397485, Note_off_c, 0, 34, 61
1, 397491, Note_off_c, 0, 32, 63
1, 397533, Control_c, 0, 67, 23
1, 397545, Note_on_c, 0, 33, 76
1, 397548, Control_c, 0, 67, 23
1, 397550, Note_on_c, 0, 38, 73
1, 397551, Note_on_c, 0, 93, 104
1, 397551, Note_on_c, 0, 88, 91
1, 397563, Control_c, 0, 67, 22
1, 397569, Note_off_c, 0, 33, 66
1, 397578, Control_c, 0, 64, 82
1, 397578, Control_c, 0, 67, 21
1, 397581, Note_off_c, 0, 38, 65
1, 397582, Note_off_c, 0, 93, 64
1, 397588, Note_off_c, 0, 88, 63
1, 397593, Control_c, 0, 64, 127
1, 397593, Control_c, 0, 67, 20
1, 397608, Control_c, 0, 67, 19
1, 397622, Control_c, 0, 67, 18
1, 397637, Control_c, 0, 67, 16
1, 397652, Control_c, 0, 67, 14
1, 397667, Control_c, 0, 67, 8
1, 397682, Control_c, 0, 67, 0
1, 397711, Note_on_c, 0, 77, 71
1, 397716, Note_on_c, 0, 79, 72
1, 397742, Note_on_c, 0, 74, 45
1, 397745, Note_on_c, 0, 81, 71
1, 397746, Note_on_c, 0, 68, 25
1, 397748, Note_off_c, 0, 77, 61
1, 397749, Note_off_c, 0, 79, 55
1, 397751, Note_on_c, 0, 76, 61
1, 397769, Note_off_c, 0, 76, 65
1, 397770, Note_off_c, 0, 74, 59
1, 397783, Note_off_c, 0, 68, 52
1, 397798, Note_on_c, 0, 84, 74
1, 397804, Note_on_c, 0, 66, 77
1, 397820, Note_off_c, 0, 81, 62
1, 397828, Poly_aftertouch_c, 0, 62, 0
1, 397837, Note_off_c, 0, 84, 65
1, 397849, Note_off_c, 0, 66, 66
1, 397880, Note_on_c, 0, 90, 108
1, 397881, Note_on_c, 0, 78, 108
1, 397884, Note_on_c, 0, 82, 98
1, 397888, Note_on_c, 0, 75, 94
1, 397893, Note_on_c, 0, 70, 80
1, 397894, Note_on_c, 0, 66, 60
1, 397896, Note_on_c, 0, 61, 78
1, 397897, Note_on_c, 0, 87, 73
1, 397927, Note_off_c, 0, 87, 57
1, 397941, Note_off_c, 0, 75, 62
1, 397947, Note_off_c, 0, 82, 58
1, 397947, Note_off_c, 0, 61, 59
1, 397949, Note_off_c, 0, 78, 57
1, 397949, Note_off_c, 0, 90, 65
1, 397971, Note_off_c, 0, 66, 53
1, 397998, Note_off_c, 0, 70, 59
1, 398030, Note_on_c, 0, 79, 72
1, 398047, Note_on_c, 0, 62, 67
1, 398055, Note_on_c, 0, 76, 60
1, 398058, Note_on_c, 0, 74, 57
1, 398076, Note_on_c, 0, 81, 71
1, 398100, Note_off_c, 0, 79, 52
1, 398104, Note_off_c, 0, 74, 52
1, 398109, Note_off_c, 0, 76, 59
1, 398116, Note_on_c, 0, 84, 82
1, 398116, Note_off_c, 0, 62, 61
1, 398117, Note_on_c, 0, 65, 42
1, 398134, Control_c, 0, 64, 102
1, 398139, Note_off_c, 0, 81, 62
1, 398143, Note_on_c, 0, 69, 51
1, 398146, Note_off_c, 0, 65, 59
1, 398147, Note_off_c, 0, 84, 64
1, 398149, Control_c, 0, 64, 80
1, 398163, Control_c, 0, 64, 0
1, 398165, Note_off_c, 0, 69, 57
1, 398166, Note_on_c, 0, 66, 34
1, 398189, Note_on_c, 0, 90, 108
1, 398193, Note_on_c, 0, 78, 108
1, 398193, Control_c, 0, 64, 34
1, 398197, Note_on_c, 0, 82, 97
1, 398198, Note_off_c, 0, 66, 0
1, 398198, Note_on_c, 0, 66, 49
1, 398198, Note_on_c, 0, 75, 95
1, 398201, Note_on_c, 0, 70, 83
1, 398204, Note_on_c, 0, 87, 83
1, 398208, Control_c, 0, 64, 70
1, 398214, Note_on_c, 0, 61, 73
1, 398216, Note_off_c, 0, 75, 73
1, 398223, Note_off_c, 0, 70, 68
1, 398223, Note_off_c, 0, 78, 66
1, 398223, Control_c, 0, 64, 85
1, 398234, Note_off_c, 0, 90, 65
1, 398238, Control_c, 0, 64, 102
1, 398239, Note_off_c, 0, 82, 65
1, 398252, Control_c, 0, 64, 114
1, 398254, Note_off_c, 0, 66, 65
1, 398255, Note_off_c, 0, 87, 62
1, 398267, Control_c, 0, 64, 115
1, 398272, Note_off_c, 0, 61, 64
1, 398535, Control_c, 0, 64, 113
1, 398550, Control_c, 0, 64, 102
1, 398564, Control_c, 0, 64, 86
1, 398568, Note_on_c, 0, 21, 75
1, 398579, Control_c, 0, 64, 68
1, 398580, Note_on_c, 0, 91, 102
1, 398583, Note_on_c, 0, 86, 99
1, 398594, Control_c, 0, 64, 0
1, 398598, Note_on_c, 0, 23, 47
1, 398624, Control_c, 0, 64, 61
1, 398639, Control_c, 0, 64, 68
1, 398654, Control_c, 0, 64, 75
1, 398658, Note_off_c, 0, 23, 51
1, 398669, Control_c, 0, 64, 80
1, 398681, Note_off_c, 0, 21, 54
1, 398684, Control_c, 0, 64, 82
1, 398690, Note_on_c, 0, 31, 71
1, 398699, Control_c, 0, 64, 82
1, 398733, Note_off_c, 0, 91, 56
1, 398739, Note_off_c, 0, 86, 60
1, 398746, Note_off_c, 0, 31, 63
1, 398825, Note_on_c, 0, 33, 65
1, 398830, Note_on_c, 0, 28, 63
1, 398830, Note_on_c, 0, 92, 81
1, 398839, Note_on_c, 0, 87, 83
1, 398867, Note_off_c, 0, 33, 65
1, 398871, Note_off_c, 0, 28, 62
1, 398878, Note_off_c, 0, 87, 59
1, 398887, Note_off_c, 0, 92, 65
1, 398956, Note_on_c, 0, 93, 89
1, 398958, Note_on_c, 0, 34, 63
1, 398960, Note_on_c, 0, 88, 77
1, 398978, Note_on_c, 0, 32, 47
1, 398981, Note_off_c, 0, 88, 68
1, 398997, Note_off_c, 0, 34, 62
1, 399000, Note_off_c, 0, 93, 59
1, 399001, Control_c, 0, 64, 81
1, 399016, Control_c, 0, 64, 74
1, 399017, Note_off_c, 0, 32, 48
1, 399031, Control_c, 0, 64, 56
1, 399045, Control_c, 0, 64, 0
1, 399089, Note_on_c, 0, 33, 63
1, 399093, Note_on_c, 0, 97, 93
1, 399098, Note_on_c, 0, 38, 54
1, 399102, Note_on_c, 0, 92, 84
1, 399134, Control_c, 0, 64, 58
1, 399149, Note_off_c, 0, 33, 63
1, 399149, Control_c, 0, 64, 66
1, 399164, Control_c, 0, 64, 71
1, 399179, Control_c, 0, 64, 75
1, 399193, Control_c, 0, 64, 79
1, 399208, Note_off_c, 0, 38, 56
1, 399208, Control_c, 0, 64, 82
1, 399223, Control_c, 0, 64, 83
1, 399229, Note_on_c, 0, 34, 55
1, 399232, Note_on_c, 0, 32, 55
1, 399236, Note_on_c, 0, 98, 79
1, 399238, Control_c, 0, 64, 84
1, 399247, Note_on_c, 0, 93, 83
1, 399247, Note_off_c, 0, 92, 65
1, 399253, Control_c, 0, 64, 85
1, 399268, Control_c, 0, 64, 87
1, 399275, Note_off_c, 0, 97, 59
1, 399283, Control_c, 0, 64, 88
1, 399298, Control_c, 0, 64, 88
1, 399299, Note_off_c, 0, 32, 58
1, 399313, Control_c, 0, 64, 89
1, 399328, Control_c, 0, 64, 89
1, 399331, Note_off_c, 0, 34, 59
1, 399342, Control_c, 0, 64, 90
1, 399365, Note_on_c, 0, 28, 64
1, 399369, Note_on_c, 0, 97, 88
1, 399370, Note_on_c, 0, 33, 56
1, 399384, Note_off_c, 0, 93, 63
1, 399386, Note_on_c, 0, 92, 78
1, 399387, Control_c, 0, 64, 90
1, 399395, Note_off_c, 0, 33, 66
1, 399396, Note_off_c, 0, 98, 65
1, 399418, Note_off_c, 0, 28, 62
1, 399435, Note_off_c, 0, 97, 64
1, 399440, Note_off_c, 0, 92, 65
1, 399491, Note_on_c, 0, 96, 93
1, 399495, Note_on_c, 0, 91, 88
1, 399497, Note_on_c, 0, 27, 73
1, 399506, Note_on_c, 0, 31, 63
1, 399506, Control_c, 0, 64, 91
1, 399530, Note_off_c, 0, 96, 66
1, 399530, Note_off_c, 0, 91, 59
1, 399550, Note_off_c, 0, 31, 56
1, 399550, Control_c, 0, 64, 91
1, 399567, Note_off_c, 0, 27, 55
1, 399617, Control_c, 0, 64, 92
1, 399620, Note_on_c, 0, 23, 62
1, 399620, Note_on_c, 0, 21, 66
1, 399622, Note_on_c, 0, 92, 84
1, 399624, Note_on_c, 0, 87, 85
1, 399651, Note_off_c, 0, 92, 50
1, 399654, Note_on_c, 0, 93, 45
1, 399662, Note_off_c, 0, 87, 63
1, 399680, Note_off_c, 0, 93, 47
1, 399724, Note_off_c, 0, 23, 50
1, 399726, Note_off_c, 0, 21, 52
1, 399739, Note_on_c, 0, 93, 102
1, 399744, Note_on_c, 0, 88, 84
1, 399748, Note_on_c, 0, 31, 65
1, 399766, Note_off_c, 0, 88, 68
1, 399776, Note_off_c, 0, 93, 65
1, 399780, Control_c, 0, 64, 91
1, 399786, Note_off_c, 0, 31, 64
1, 399795, Control_c, 0, 64, 84
1, 399809, Control_c, 0, 64, 67
1, 399824, Control_c, 0, 64, 0
1, 399864, Note_on_c, 0, 90, 97
1, 399867, Note_on_c, 0, 85, 83
1, 399870, Note_on_c, 0, 33, 69
1, 399874, Note_on_c, 0, 28, 64
1, 399895, Note_off_c, 0, 85, 68
1, 399898, Control_c, 0, 64, 64
1, 399913, Note_off_c, 0, 33, 65
1, 399913, Control_c, 0, 64, 73
1, 399919, Note_off_c, 0, 90, 64
1, 399927, Note_off_c, 0, 28, 60
1, 399928, Control_c, 0, 64, 81
1, 399942, Control_c, 0, 64, 84
1, 399957, Control_c, 0, 64, 84
1, 399981, Note_on_c, 0, 96, 94
1, 399983, Note_on_c, 0, 91, 93
1, 400010, Note_off_c, 0, 91, 61
1, 400013, Note_off_c, 0, 96, 66
1, 400025, Note_on_c, 0, 34, 61
1, 400028, Note_on_c, 0, 32, 59
1, 400070, Note_off_c, 0, 34, 60
1, 400072, Note_off_c, 0, 32, 60
1, 400121, Control_c, 0, 64, 85
1, 400135, Note_on_c, 0, 38, 65
1, 400145, Note_on_c, 0, 33, 60
1, 400165, Control_c, 0, 64, 84
1, 400180, Control_c, 0, 64, 82
1, 400183, Note_off_c, 0, 33, 65
1, 400195, Note_off_c, 0, 38, 59
1, 400195, Control_c, 0, 64, 72
1, 400210, Control_c, 0, 64, 0
1, 400269, Note_on_c, 0, 90, 96
1, 400270, Note_on_c, 0, 32, 64
1, 400271, Note_on_c, 0, 85, 92
1, 400272, Note_on_c, 0, 34, 61
1, 400283, Control_c, 0, 64, 61
1, 400298, Control_c, 0, 64, 71
1, 400299, Note_off_c, 0, 85, 65
1, 400313, Control_c, 0, 64, 80
1, 400314, Note_off_c, 0, 90, 64
1, 400335, Control_c, 0, 64, 83
1, 400344, Note_off_c, 0, 34, 58
1, 400347, Note_off_c, 0, 32, 60
1, 400401, Note_on_c, 0, 96, 101
1, 400410, Note_on_c, 0, 91, 86
1, 400412, Note_on_c, 0, 28, 75
1, 400412, Note_on_c, 0, 33, 68
1, 400428, Note_off_c, 0, 91, 64
1, 400440, Note_off_c, 0, 33, 65
1, 400441, Note_off_c, 0, 96, 64
1, 400454, Note_off_c, 0, 28, 63
1, 400483, Control_c, 0, 64, 84
1, 400542, Note_on_c, 0, 31, 80
1, 400544, Note_on_c, 0, 27, 78
1, 400572, Control_c, 0, 64, 83
1, 400587, Control_c, 0, 64, 77
1, 400602, Control_c, 0, 64, 53
1, 400617, Control_c, 0, 64, 0
1, 400630, Note_off_c, 0, 31, 49
1, 400639, Note_off_c, 0, 27, 60
1, 400676, Note_on_c, 0, 21, 74
1, 400679, Note_on_c, 0, 23, 66
1, 400687, Note_on_c, 0, 85, 100
1, 400687, Note_on_c, 0, 90, 101
1, 400720, Control_c, 0, 64, 34
1, 400735, Control_c, 0, 64, 72
1, 400750, Control_c, 0, 64, 78
1, 400764, Control_c, 0, 64, 81
1, 400779, Control_c, 0, 64, 81
1, 400791, Note_off_c, 0, 85, 61
1, 400817, Note_off_c, 0, 90, 59
1, 400845, Note_off_c, 0, 21, 51
1, 400861, Note_on_c, 0, 96, 105
1, 400863, Note_on_c, 0, 31, 80
1, 400866, Note_on_c, 0, 91, 100
1, 400869, Control_c, 0, 64, 82
1, 400897, Note_off_c, 0, 91, 62
1, 400899, Note_off_c, 0, 96, 69
1, 400899, Control_c, 0, 64, 82
1, 400904, Note_off_c, 0, 31, 65
1, 400908, Note_off_c, 0, 23, 30
1, 400928, Control_c, 0, 64, 83
1, 400973, Control_c, 0, 64, 83
1, 400991, Note_on_c, 0, 28, 82
1, 400994, Note_on_c, 0, 33, 73
1, 401018, Control_c, 0, 64, 84
1, 401020, Note_off_c, 0, 28, 65
1, 401023, Note_off_c, 0, 33, 66
1, 401173, Control_c, 0, 64, 84
1, 401247, Control_c, 0, 64, 85
1, 401262, Control_c, 0, 64, 85
1, 401277, Control_c, 0, 64, 86
1, 401321, Control_c, 0, 64, 85
1, 401336, Control_c, 0, 64, 77
1, 401337, Note_on_c, 0, 73, 106
1, 401340, Note_on_c, 0, 78, 105
1, 401342, Note_on_c, 0, 70, 97
1, 401346, Note_on_c, 0, 66, 87
1, 401347, Note_on_c, 0, 58, 79
1, 401351, Control_c, 0, 64, 55
1, 401357, Note_on_c, 0, 63, 70
1, 401361, Note_on_c, 0, 61, 66
1, 401366, Control_c, 0, 64, 0
1, 401469, Control_c, 0, 64, 63
1, 401484, Control_c, 0, 64, 65
1, 401499, Control_c, 0, 64, 68
1, 401513, Control_c, 0, 64, 71
1, 401528, Control_c, 0, 64, 75
1, 401543, Control_c, 0, 64, 78
1, 401558, Control_c, 0, 64, 81
1, 401573, Control_c, 0, 64, 82
1, 401587, Control_c, 0, 64, 83
1, 401602, Control_c, 0, 64, 85
1, 401617, Control_c, 0, 64, 87
1, 401632, Control_c, 0, 64, 89
1, 401647, Control_c, 0, 64, 90
1, 401662, Control_c, 0, 64, 91
1, 401677, Control_c, 0, 64, 91
1, 401692, Control_c, 0, 64, 92
1, 401722, Control_c, 0, 64, 92
1, 401736, Control_c, 0, 64, 93
1, 401766, Control_c, 0, 64, 93
1, 401861, Note_off_c, 0, 63, 29
1, 401918, Note_off_c, 0, 58, 51
1, 401918, Note_off_c, 0, 61, 29
1, 401923, Control_c, 0, 64, 94
1, 401960, Note_off_c, 0, 78, 45
1, 401973, Note_off_c, 0, 70, 30
1, 402026, Control_c, 0, 64, 94
1, 402032, Note_off_c, 0, 66, 32
1, 402035, Note_off_c, 0, 73, 58
1, 402109, Note_on_c, 0, 84, 104
1, 402110, Note_on_c, 0, 75, 118
1, 402115, Note_on_c, 0, 78, 101
1, 402115, Control_c, 0, 64, 93
1, 402117, Note_on_c, 0, 81, 97
1, 402119, Note_on_c, 0, 68, 90
1, 402120, Note_on_c, 0, 70, 99
1, 402122, Note_on_c, 0, 59, 78
1, 402128, Note_on_c, 0, 65, 72
1, 402130, Control_c, 0, 64, 81
1, 402141, Note_on_c, 0, 62, 68
1, 402145, Control_c, 0, 64, 59
1, 402159, Control_c, 0, 64, 0
1, 402441, Control_c, 0, 64, 37
1, 402457, Control_c, 0, 64, 62
1, 402472, Control_c, 0, 64, 64
1, 402501, Control_c, 0, 64, 65
1, 402516, Control_c, 0, 64, 66
1, 402531, Control_c, 0, 64, 68
1, 402546, Control_c, 0, 64, 69
1, 402560, Control_c, 0, 64, 71
1, 402583, Control_c, 0, 64, 73
1, 402598, Control_c, 0, 64, 74
1, 402613, Control_c, 0, 64, 76
1, 402627, Control_c, 0, 64, 77
1, 402640, Note_off_c, 0, 59, 39
1, 402642, Control_c, 0, 64, 79
1, 402657, Control_c, 0, 64, 79
1, 402672, Control_c, 0, 64, 80
1, 402686, Control_c, 0, 64, 80
1, 402701, Control_c, 0, 64, 81
1, 402708, Note_off_c, 0, 62, 30
1, 402731, Control_c, 0, 64, 81
1, 402760, Note_off_c, 0, 75, 45
1, 402775, Control_c, 0, 64, 82
1, 402805, Control_c, 0, 64, 82
1, 402820, Control_c, 0, 64, 83
1, 402827, Note_off_c, 0, 65, 39
1, 402834, Control_c, 0, 64, 83
1, 402864, Control_c, 0, 64, 84
1, 402893, Control_c, 0, 64, 84
1, 402928, Note_off_c, 0, 68, 42
1, 402956, Note_off_c, 0, 78, 50
1, 402997, Control_c, 0, 64, 85
1, 403030, Note_off_c, 0, 81, 39
1, 403233, Note_off_c, 0, 70, 32
1, 403294, Note_off_c, 0, 84, 50
1, 403560, Note_on_c, 0, 79, 73
1, 403594, Note_on_c, 0, 81, 71
1, 403598, Control_c, 0, 64, 84
1, 403607, Note_on_c, 0, 74, 45
1, 403607, Note_on_c, 0, 76, 53
1, 403613, Control_c, 0, 64, 76
1, 403620, Note_off_c, 0, 79, 62
1, 403622, Note_on_c, 0, 62, 31
1, 403627, Note_off_c, 0, 76, 60
1, 403627, Control_c, 0, 64, 27
1, 403629, Note_off_c, 0, 74, 58
1, 403642, Control_c, 0, 64, 0
1, 403647, Note_on_c, 0, 84, 75
1, 403656, Note_off_c, 0, 62, 32
1, 403656, Note_off_c, 0, 81, 63
1, 403668, Note_off_c, 0, 84, 71
1, 403698, Note_on_c, 0, 90, 104
1, 403702, Control_c, 0, 64, 58
1, 403703, Note_on_c, 0, 75, 106
1, 403704, Note_on_c, 0, 78, 108
1, 403706, Note_on_c, 0, 70, 92
1, 403706, Note_on_c, 0, 82, 89
1, 403707, Note_on_c, 0, 66, 89
1, 403710, Note_on_c, 0, 61, 87
1, 403713, Note_on_c, 0, 87, 90
1, 403716, Control_c, 0, 64, 88
1, 403717, Note_on_c, 0, 85, 74
1, 403731, Control_c, 0, 64, 127
1, 403733, Note_off_c, 0, 85, 70
1, 403735, Note_off_c, 0, 78, 66
1, 403740, Note_off_c, 0, 82, 69
1, 403742, Note_off_c, 0, 75, 70
1, 403744, Note_off_c, 0, 90, 67
1, 403745, Note_off_c, 0, 70, 66
1, 403748, Note_off_c, 0, 66, 62
1, 403749, Note_off_c, 0, 87, 60
1, 403755, Note_off_c, 0, 61, 62
1, 404139, Control_c, 0, 64, 126
1, 404154, Control_c, 0, 64, 124
1, 404169, Control_c, 0, 64, 122
1, 404184, Control_c, 0, 64, 121
1, 404199, Control_c, 0, 64, 119
1, 404213, Control_c, 0, 64, 118
1, 404228, Control_c, 0, 64, 116
1, 404243, Control_c, 0, 64, 114
1, 404258, Control_c, 0, 64, 113
1, 404273, Control_c, 0, 64, 112
1, 404288, Control_c, 0, 64, 111
1, 404303, Control_c, 0, 64, 109
1, 404318, Control_c, 0, 64, 108
1, 404332, Control_c, 0, 64, 106
1, 404347, Control_c, 0, 64, 104
1, 404362, Control_c, 0, 64, 102
1, 404377, Control_c, 0, 64, 101
1, 404392, Control_c, 0, 64, 99
1, 404406, Control_c, 0, 64, 98
1, 404421, Control_c, 0, 64, 96
1, 404436, Control_c, 0, 64, 93
1, 404450, Control_c, 0, 64, 91
1, 404465, Control_c, 0, 64, 89
1, 404480, Control_c, 0, 64, 87
1, 404495, Control_c, 0, 64, 84
1, 404510, Control_c, 0, 64, 82
1, 404524, Control_c, 0, 64, 78
1, 404539, Control_c, 0, 64, 74
1, 404554, Control_c, 0, 64, 70
1, 404569, Control_c, 0, 64, 65
1, 404584, Control_c, 0, 64, 60
1, 404598, Control_c, 0, 64, 52
1, 404613, Control_c, 0, 64, 44
1, 404628, Control_c, 0, 64, 43
1, 404657, Control_c, 0, 64, 43
1, 404672, Control_c, 0, 64, 42
1, 404687, Control_c, 0, 64, 40
1, 404702, Control_c, 0, 64, 37
1, 404717, Control_c, 0, 64, 31
1, 404732, Control_c, 0, 64, 27
1, 404747, Control_c, 0, 64, 25
1, 404762, Control_c, 0, 64, 16
1, 404776, Control_c, 0, 64, 0
1, 405800, Control_c, 0, 64, 11
1, 405903, Control_c, 0, 64, 14
1, 405933, Control_c, 0, 64, 16
1, 405948, Control_c, 0, 64, 18
1, 405963, Control_c, 0, 64, 20
1, 405978, Control_c, 0, 64, 22
1, 405993, Control_c, 0, 64, 23
1, 406023, Control_c, 0, 64, 25
1, 406037, Control_c, 0, 64, 26
1, 406052, Control_c, 0, 64, 29
1, 406067, Control_c, 0, 64, 32
1, 406082, Control_c, 0, 64, 34
1, 406096, Control_c, 0, 64, 38
1, 406111, Control_c, 0, 64, 40
1, 406126, Control_c, 0, 64, 43
1, 406141, Control_c, 0, 64, 45
1, 406156, Control_c, 0, 64, 48
1, 406170, Control_c, 0, 64, 50
1, 406185, Control_c, 0, 64, 52
1, 406200, Control_c, 0, 64, 53
1, 406215, Control_c, 0, 64, 55
1, 406229, Control_c, 0, 64, 56
1, 406244, Control_c, 0, 64, 57
1, 406259, Control_c, 0, 64, 58
1, 406274, Control_c, 0, 64, 58
1, 406289, Control_c, 0, 64, 59
1, 406303, Control_c, 0, 64, 60
1, 406326, Control_c, 0, 64, 60
1, 406341, Control_c, 0, 64, 61
1, 406356, Control_c, 0, 64, 61
1, 406371, Control_c, 0, 64, 62
1, 406400, Control_c, 0, 64, 62
1, 406415, Control_c, 0, 64, 63
1, 406444, Control_c, 0, 64, 62
1, 406490, Control_c, 0, 64, 64
1, 406505, Control_c, 0, 64, 70
1, 406520, Control_c, 0, 64, 83
1, 406534, Control_c, 0, 64, 110
1, 406547, Note_on_c, 0, 49, 103
1, 406549, Control_c, 0, 64, 127
1, 406552, Note_on_c, 0, 37, 91
1, 406583, Note_off_c, 0, 37, 66
1, 406609, Note_off_c, 0, 49, 61
1, 406813, Note_on_c, 0, 49, 86
1, 406815, Note_on_c, 0, 56, 84
1, 406815, Note_on_c, 0, 59, 93
1, 406819, Note_on_c, 0, 54, 75
1, 406827, Note_on_c, 0, 51, 69
1, 406845, Note_off_c, 0, 54, 64
1, 406851, Note_off_c, 0, 56, 60
1, 406854, Note_off_c, 0, 51, 65
1, 406857, Note_off_c, 0, 49, 57
1, 406858, Note_off_c, 0, 59, 62
1, 407009, Note_on_c, 0, 85, 109
1, 407010, Note_on_c, 0, 78, 108
1, 407020, Note_on_c, 0, 71, 90
1, 407023, Note_on_c, 0, 68, 77
1, 407026, Note_on_c, 0, 61, 70
1, 407034, Note_on_c, 0, 66, 71
1, 407037, Note_on_c, 0, 63, 65
1, 407364, Note_off_c, 0, 85, 46
1, 407385, Note_off_c, 0, 78, 43
1, 407399, Note_off_c, 0, 66, 34
1, 407454, Note_off_c, 0, 63, 26
1, 407468, Note_off_c, 0, 68, 37
1, 407515, Note_off_c, 0, 71, 34
1, 407563, Note_off_c, 0, 61, 35
1, 407772, Poly_aftertouch_c, 0, 71, 127
1, 407809, Poly_aftertouch_c, 0, 71, 0
1, 408372, Note_on_c, 0, 87, 108
1, 408373, Note_on_c, 0, 80, 109
1, 408376, Note_on_c, 0, 73, 102
1, 408380, Note_on_c, 0, 63, 87
1, 408383, Note_on_c, 0, 71, 80
1, 408387, Note_on_c, 0, 68, 75
1, 408393, Note_on_c, 0, 66, 71
1, 408393, Note_on_c, 0, 88, 81
1, 408413, Note_off_c, 0, 73, 64
1, 408414, Note_off_c, 0, 80, 66
1, 408430, Note_off_c, 0, 66, 58
1, 408434, Note_off_c, 0, 68, 47
1, 408436, Note_off_c, 0, 63, 64
1, 408436, Note_off_c, 0, 88, 63
1, 408445, Note_off_c, 0, 87, 61
1, 408450, Note_off_c, 0, 71, 53
1, 408479, Poly_aftertouch_c, 0, 84, 0
1, 409814, Note_on_c, 0, 90, 118
1, 409818, Note_on_c, 0, 77, 104
1, 409818, Note_on_c, 0, 83, 96
1, 409823, Note_on_c, 0, 66, 82
1, 409823, Note_on_c, 0, 75, 94
1, 409826, Note_on_c, 0, 68, 75
1, 409826, Note_on_c, 0, 73, 83
1, 409832, Note_on_c, 0, 71, 70
1, 409853, Note_off_c, 0, 77, 61
1, 409862, Note_off_c, 0, 75, 65
1, 409874, Note_off_c, 0, 71, 52
1, 409876, Note_off_c, 0, 66, 64
1, 409878, Note_off_c, 0, 83, 56
1, 409881, Note_off_c, 0, 90, 68
1, 409885, Note_off_c, 0, 73, 59
1, 409897, Note_off_c, 0, 68, 61
1, 411406, Note_on_c, 0, 92, 105
1, 411408, Note_on_c, 0, 68, 82
1, 411409, Note_on_c, 0, 77, 93
1, 411409, Note_on_c, 0, 78, 112
1, 411411, Note_on_c, 0, 85, 100
1, 411412, Note_on_c, 0, 75, 86
1, 411417, Note_on_c, 0, 71, 73
1, 411421, Note_on_c, 0, 73, 70
1, 411447, Note_off_c, 0, 78, 65
1, 411449, Note_off_c, 0, 77, 63
1, 411452, Note_off_c, 0, 73, 59
1, 411457, Note_on_c, 0, 90, 13
1, 411468, Note_off_c, 0, 71, 61
1, 411469, Note_off_c, 0, 75, 60
1, 411469, Note_off_c, 0, 92, 66
1, 411471, Note_off_c, 0, 68, 62
1, 411487, Note_off_c, 0, 85, 60
1, 411505, Note_off_c, 0, 90, 28
1, 413149, Note_on_c, 0, 94, 101
1, 413150, Note_on_c, 0, 73, 98
1, 413150, Note_on_c, 0, 80, 102
1, 413152, Note_on_c, 0, 89, 90
1, 413153, Note_on_c, 0, 70, 85
1, 413154, Control_c, 0, 64, 107
1, 413157, Note_on_c, 0, 61, 82
1, 413162, Note_on_c, 0, 66, 80
1, 413164, Note_on_c, 0, 63, 77
1, 413168, Control_c, 0, 64, 82
1, 413177, Note_on_c, 0, 92, 52
1, 413183, Control_c, 0, 64, 0
1, 413204, Note_off_c, 0, 92, 38
1, 413272, Control_c, 0, 64, 66
1, 413287, Control_c, 0, 64, 73
1, 413302, Control_c, 0, 64, 81
1, 413317, Control_c, 0, 64, 88
1, 413332, Control_c, 0, 64, 93
1, 413347, Control_c, 0, 64, 97
1, 413362, Control_c, 0, 64, 102
1, 413376, Control_c, 0, 64, 107
1, 413391, Control_c, 0, 64, 112
1, 413406, Control_c, 0, 64, 115
1, 413420, Control_c, 0, 64, 118
1, 413435, Control_c, 0, 64, 120
1, 413450, Control_c, 0, 64, 121
1, 413458, Note_off_c, 0, 89, 55
1, 413465, Control_c, 0, 64, 122
1, 413480, Control_c, 0, 64, 125
1, 413494, Control_c, 0, 64, 127
1, 413532, Note_off_c, 0, 94, 49
1, 413637, Note_off_c, 0, 63, 34
1, 413663, Note_off_c, 0, 80, 49
1, 413816, Note_off_c, 0, 73, 46
1, 413817, Note_off_c, 0, 61, 47
1, 413956, Note_off_c, 0, 66, 0
1, 413970, Note_on_c, 0, 95, 103
1, 413972, Note_on_c, 0, 82, 109
1, 413973, Note_on_c, 0, 90, 98
1, 413978, Note_on_c, 0, 75, 98
1, 413979, Note_on_c, 0, 66, 23
1, 414002, Note_on_c, 0, 87, 50
1, 414020, Note_off_c, 0, 70, 57
1, 414028, Note_off_c, 0, 75, 60
1, 414029, Note_off_c, 0, 87, 37
1, 414084, Note_off_c, 0, 66, 50
1, 414465, Note_on_c, 0, 58, 94
1, 414468, Note_on_c, 0, 54, 82
1, 414471, Note_on_c, 0, 49, 84
1, 414480, Note_on_c, 0, 51, 70
1, 414515, Note_off_c, 0, 51, 62
1, 414519, Note_off_c, 0, 49, 59
1, 414529, Note_off_c, 0, 54, 60
1, 414531, Note_off_c, 0, 58, 64
1, 414568, Note_off_c, 0, 90, 56
1, 414605, Note_off_c, 0, 82, 30
1, 414676, Note_off_c, 0, 95, 55
1, 414715, Note_on_c, 0, 70, 97
1, 414720, Note_on_c, 0, 61, 85
1, 414724, Note_on_c, 0, 66, 81
1, 414729, Note_on_c, 0, 63, 62
1, 414757, Note_off_c, 0, 63, 66
1, 414769, Note_off_c, 0, 61, 61
1, 414772, Note_off_c, 0, 70, 59
1, 414778, Note_off_c, 0, 66, 64
1, 414874, Note_on_c, 0, 75, 86
1, 414878, Note_on_c, 0, 73, 74
1, 415051, Note_on_c, 0, 84, 106
1, 415052, Note_on_c, 0, 97, 115
1, 415055, Note_on_c, 0, 81, 102
1, 415055, Note_on_c, 0, 91, 94
1, 417428, Note_off_c, 0, 75, 56
1, 417651, Note_off_c, 0, 81, 21
1, 417885, Note_off_c, 0, 91, 15
1, 417907, Note_off_c, 0, 97, 37
1, 417908, Note_off_c, 0, 84, 49
1, 417910, Note_off_c, 0, 73, 20
1, 418441, Control_c, 0, 64, 119
1, 418456, Control_c, 0, 64, 92
1, 418471, Control_c, 0, 64, 62
1, 418486, Control_c, 0, 64, 0
1, 418503, Note_on_c, 0, 60, 94
1, 418560, Control_c, 0, 64, 74
1, 418575, Control_c, 0, 64, 93
1, 418589, Control_c, 0, 64, 112
1, 418604, Control_c, 0, 64, 114
1, 418619, Control_c, 0, 64, 114
1, 418707, Control_c, 0, 64, 115
1, 418753, Note_off_c, 0, 60, 47
1, 418781, Control_c, 0, 64, 115
1, 418824, Note_on_c, 0, 95, 104
1, 418826, Note_on_c, 0, 82, 105
1, 418826, Control_c, 0, 64, 116
1, 418832, Note_on_c, 0, 66, 86
1, 418833, Note_on_c, 0, 76, 89
1, 418834, Note_on_c, 0, 90, 93
1, 418835, Note_on_c, 0, 69, 75
1, 418835, Note_on_c, 0, 74, 82
1, 418885, Control_c, 0, 64, 116
1, 418959, Control_c, 0, 64, 117
1, 418974, Control_c, 0, 64, 119
1, 418989, Control_c, 0, 64, 120
1, 419003, Control_c, 0, 64, 122
1, 419018, Control_c, 0, 64, 122
1, 419032, Control_c, 0, 64, 123
1, 419070, Control_c, 0, 64, 123
1, 419094, Note_off_c, 0, 82, 53
1, 419114, Control_c, 0, 64, 124
1, 419127, Note_off_c, 0, 66, 37
1, 419129, Control_c, 0, 64, 124
1, 419141, Note_off_c, 0, 74, 28
1, 419154, Note_off_c, 0, 95, 49
1, 419158, Control_c, 0, 64, 125
1, 419194, Note_off_c, 0, 69, 51
1, 419199, Note_off_c, 0, 76, 35
1, 419203, Control_c, 0, 64, 125
1, 419218, Control_c, 0, 64, 126
1, 419249, Control_c, 0, 64, 126
1, 419263, Control_c, 0, 64, 127
1, 419306, Note_off_c, 0, 90, 26
1, 419308, Control_c, 0, 64, 127
1, 419735, Note_on_c, 0, 97, 114
1, 419741, Note_on_c, 0, 84, 105
1, 419741, Note_on_c, 0, 91, 100
1, 419744, Note_on_c, 0, 77, 100
1, 419767, Note_off_c, 0, 84, 62
1, 419788, Note_off_c, 0, 77, 63
1, 419790, Note_off_c, 0, 97, 70
1, 419794, Note_off_c, 0, 91, 61
1, 420588, Note_on_c, 0, 62, 91
1, 420589, Note_on_c, 0, 57, 88
1, 420590, Note_on_c, 0, 54, 80
1, 420595, Note_on_c, 0, 48, 74
1, 420630, Note_off_c, 0, 48, 64
1, 420666, Note_off_c, 0, 54, 61
1, 420674, Note_off_c, 0, 57, 61
1, 420696, Note_off_c, 0, 62, 62
1, 420709, Poly_aftertouch_c, 0, 50, 0
1, 420952, Note_on_c, 0, 69, 101
1, 420953, Note_on_c, 0, 66, 82
1, 420957, Note_on_c, 0, 60, 84
1, 420957, Note_on_c, 0, 62, 82
1, 421002, Note_off_c, 0, 66, 65
1, 421006, Note_off_c, 0, 60, 62
1, 421014, Note_off_c, 0, 62, 62
1, 421026, Note_off_c, 0, 69, 64
1, 421134, Note_on_c, 0, 72, 92
1, 421145, Note_on_c, 0, 74, 78
1, 421309, Note_on_c, 0, 101, 108
1, 421310, Note_on_c, 0, 88, 106
1, 421312, Note_on_c, 0, 94, 105
1, 421318, Note_on_c, 0, 83, 96
1, 421344, Note_on_c, 0, 100, 44
1, 421372, Note_off_c, 0, 100, 35
1, 424267, Note_off_c, 0, 83, 44
1, 424799, Note_off_c, 0, 74, 20
1, 424915, Note_off_c, 0, 72, 13
1, 425199, Note_off_c, 0, 101, 47
1, 425277, Note_off_c, 0, 94, 54
1, 425357, Control_c, 0, 64, 107
1, 425372, Control_c, 0, 64, 78
1, 425376, Note_off_c, 0, 88, 55
1, 425387, Note_on_c, 0, 59, 86
1, 425387, Control_c, 0, 64, 0
1, 425446, Control_c, 0, 64, 64
1, 425461, Control_c, 0, 64, 78
1, 425475, Control_c, 0, 64, 94
1, 425487, Note_off_c, 0, 59, 62
1, 425490, Control_c, 0, 64, 103
1, 425519, Control_c, 0, 64, 104
1, 425534, Control_c, 0, 64, 104
1, 425549, Control_c, 0, 64, 105
1, 425564, Control_c, 0, 64, 107
1, 425579, Control_c, 0, 64, 109
1, 425593, Control_c, 0, 64, 112
1, 425608, Control_c, 0, 64, 113
1, 425624, Control_c, 0, 64, 115
1, 425639, Control_c, 0, 64, 115
1, 425669, Control_c, 0, 64, 116
1, 425682, Poly_aftertouch_c, 0, 70, 127
1, 425710, Note_on_c, 0, 98, 100
1, 425713, Note_on_c, 0, 85, 104
1, 425716, Note_on_c, 0, 63, 83
1, 425716, Poly_aftertouch_c, 0, 70, 0
1, 425718, Note_on_c, 0, 92, 93
1, 425720, Note_on_c, 0, 75, 95
1, 425721, Note_on_c, 0, 71, 82
1, 425726, Note_on_c, 0, 68, 76
1, 425732, Note_on_c, 0, 66, 67
1, 425971, Control_c, 0, 64, 116
1, 426075, Control_c, 0, 64, 117
1, 426108, Note_off_c, 0, 85, 56
1, 426268, Control_c, 0, 64, 117
1, 426304, Note_off_c, 0, 98, 44
1, 426311, Note_off_c, 0, 63, 57
1, 426335, Note_off_c, 0, 92, 56
1, 426341, Control_c, 0, 64, 118
1, 426371, Control_c, 0, 64, 118
1, 426417, Control_c, 0, 64, 119
1, 426446, Control_c, 0, 64, 119
1, 426476, Control_c, 0, 64, 120
1, 426480, Note_off_c, 0, 75, 57
1, 426558, Control_c, 0, 64, 120
1, 426695, Note_off_c, 0, 66, 0
1, 426696, Note_on_c, 0, 101, 108
1, 426698, Note_on_c, 0, 88, 110
1, 426701, Note_on_c, 0, 78, 98
1, 426701, Note_on_c, 0, 94, 100
1, 426731, Poly_aftertouch_c, 0, 66, 127
1, 426737, Poly_aftertouch_c, 0, 66, 0
1, 426741, Note_off_c, 0, 78, 67
1, 426749, Note_off_c, 0, 71, 54
1, 426752, Note_off_c, 0, 68, 62
1, 427618, Note_on_c, 0, 47, 99
1, 427619, Note_on_c, 0, 35, 91
1, 427674, Note_off_c, 0, 35, 64
1, 427702, Note_off_c, 0, 47, 61
1, 427964, Note_on_c, 0, 56, 96
1, 427965, Note_on_c, 0, 47, 82
1, 427970, Note_on_c, 0, 54, 83
1, 427974, Note_on_c, 0, 51, 78
1, 428013, Note_off_c, 0, 47, 65
1, 428023, Note_off_c, 0, 51, 57
1, 428028, Note_off_c, 0, 56, 60
1, 428049, Note_off_c, 0, 54, 60
1, 428144, Control_c, 0, 64, 121
1, 428174, Control_c, 0, 64, 121
1, 428189, Control_c, 0, 64, 122
1, 428204, Control_c, 0, 64, 122
1, 428218, Control_c, 0, 64, 123
1, 428233, Control_c, 0, 64, 124
1, 428248, Control_c, 0, 64, 124
1, 428263, Control_c, 0, 64, 125
1, 428307, Note_on_c, 0, 68, 101
1, 428309, Note_on_c, 0, 66, 91
1, 428313, Note_on_c, 0, 59, 87
1, 428316, Note_on_c, 0, 63, 82
1, 428359, Note_off_c, 0, 59, 63
1, 428370, Note_off_c, 0, 68, 57
1, 428374, Note_off_c, 0, 63, 62
1, 428385, Note_off_c, 0, 66, 63
1, 428412, Control_c, 0, 64, 125
1, 428441, Control_c, 0, 64, 126
1, 428456, Control_c, 0, 64, 126
1, 428471, Control_c, 0, 64, 127
1, 428486, Control_c, 0, 64, 127
1, 428773, Note_off_c, 0, 88, 54
1, 428782, Note_on_c, 0, 80, 105
1, 428794, Note_on_c, 0, 78, 91
1, 428800, Note_on_c, 0, 75, 84
1, 428800, Note_on_c, 0, 71, 77
1, 428814, Note_off_c, 0, 94, 57
1, 428889, Note_off_c, 0, 101, 56
1, 429199, Note_off_c, 0, 80, 47
1, 429384, Note_off_c, 0, 71, 19
1, 429627, Note_on_c, 0, 106, 102
1, 429631, Note_on_c, 0, 93, 104
1, 429631, Note_on_c, 0, 103, 88
1, 429631, Note_on_c, 0, 84, 103
1, 437400, Note_off_c, 0, 106, 33
1, 437451, Note_off_c, 0, 84, 45
1, 437522, Note_off_c, 0, 93, 34
1, 437535, Note_off_c, 0, 103, 34
1, 437587, Note_off_c, 0, 75, 30
1, 437599, Note_off_c, 0, 78, 37
1, 438553, Control_c, 0, 64, 125
1, 438568, Control_c, 0, 64, 123
1, 438583, Control_c, 0, 64, 120
1, 438598, Control_c, 0, 64, 118
1, 438613, Control_c, 0, 64, 115
1, 438627, Control_c, 0, 64, 113
1, 438642, Control_c, 0, 64, 110
1, 438657, Control_c, 0, 64, 107
1, 438672, Control_c, 0, 64, 104
1, 438686, Control_c, 0, 64, 100
1, 438701, Control_c, 0, 64, 96
1, 438716, Control_c, 0, 64, 91
1, 438731, Control_c, 0, 64, 86
1, 438746, Control_c, 0, 64, 81
1, 438760, Control_c, 0, 64, 75
1, 438775, Control_c, 0, 64, 67
1, 438790, Control_c, 0, 64, 53
1, 438805, Control_c, 0, 64, 0
1, 438834, Control_c, 0, 67, 8
1, 438849, Control_c, 0, 67, 9
1, 438864, Control_c, 0, 67, 13
1, 438878, Control_c, 0, 67, 17
1, 438893, Control_c, 0, 67, 22
1, 438908, Control_c, 0, 67, 26
1, 438923, Control_c, 0, 67, 31
1, 438938, Control_c, 0, 67, 37
1, 438953, Control_c, 0, 67, 43
1, 438968, Control_c, 0, 67, 49
1, 438983, Control_c, 0, 67, 56
1, 438997, Control_c, 0, 67, 64
1, 439012, Control_c, 0, 67, 71
1, 439027, Control_c, 0, 67, 78
1, 439042, Control_c, 0, 67, 84
1, 439057, Control_c, 0, 67, 89
1, 439071, Control_c, 0, 67, 94
1, 439086, Control_c, 0, 67, 99
1, 439101, Control_c, 0, 67, 105
1, 439116, Control_c, 0, 67, 108
1, 439131, Control_c, 0, 64, 38
1, 439131, Control_c, 0, 67, 112
1, 439145, Control_c, 0, 64, 57
1, 439145, Control_c, 0, 67, 113
1, 439160, Control_c, 0, 64, 63
1, 439160, Control_c, 0, 67, 114
1, 439175, Control_c, 0, 64, 65
1, 439190, Control_c, 0, 64, 67
1, 439206, Control_c, 0, 64, 69
1, 439221, Control_c, 0, 64, 71
1, 439236, Control_c, 0, 64, 73
1, 439250, Control_c, 0, 64, 75
1, 439250, Control_c, 0, 67, 113
1, 439265, Control_c, 0, 64, 76
1, 439265, Control_c, 0, 67, 113
1, 439287, Control_c, 0, 64, 78
1, 439301, Control_c, 0, 64, 79
1, 439316, Control_c, 0, 64, 81
1, 439329, Note_on_c, 0, 61, 49
1, 439331, Control_c, 0, 64, 82
1, 439335, Note_on_c, 0, 87, 57
1, 439346, Control_c, 0, 64, 84
1, 439361, Control_c, 0, 64, 86
1, 439361, Control_c, 0, 67, 112
1, 439376, Control_c, 0, 64, 87
1, 439391, Control_c, 0, 64, 88
1, 439391, Control_c, 0, 67, 112
1, 439406, Control_c, 0, 64, 89
1, 439412, Note_on_c, 0, 85, 60
1, 439415, Note_off_c, 0, 87, 54
1, 439421, Control_c, 0, 64, 90
1, 439436, Control_c, 0, 64, 91
1, 439450, Note_off_c, 0, 85, 61
1, 439450, Control_c, 0, 64, 92
1, 439450, Control_c, 0, 67, 111
1, 439459, Note_off_c, 0, 61, 57
1, 439465, Control_c, 0, 64, 93
1, 439465, Note_on_c, 0, 81, 60
1, 439480, Control_c, 0, 64, 94
1, 439480, Note_on_c, 0, 63, 58
1, 439495, Control_c, 0, 64, 94
1, 439495, Control_c, 0, 67, 111
1, 439499, Note_off_c, 0, 81, 62
1, 439509, Control_c, 0, 67, 110
1, 439524, Control_c, 0, 64, 95
1, 439528, Note_on_c, 0, 86, 70
1, 439539, Control_c, 0, 67, 110
1, 439554, Control_c, 0, 64, 95
1, 439554, Control_c, 0, 67, 109
1, 439559, Note_off_c, 0, 86, 60
1, 439569, Control_c, 0, 67, 109
1, 439579, Note_off_c, 0, 63, 51
1, 439583, Control_c, 0, 67, 108
1, 439585, Note_on_c, 0, 61, 57
1, 439590, Note_on_c, 0, 82, 72
1, 439598, Control_c, 0, 64, 96
1, 439613, Control_c, 0, 67, 108
1, 439628, Control_c, 0, 67, 107
1, 439643, Note_off_c, 0, 82, 62
1, 439643, Control_c, 0, 67, 106
1, 439649, Note_on_c, 0, 87, 76
1, 439657, Control_c, 0, 67, 106
1, 439662, Note_off_c, 0, 61, 59
1, 439663, Note_on_c, 0, 63, 53
1, 439672, Control_c, 0, 64, 96
1, 439672, Control_c, 0, 67, 105
1, 439679, Note_off_c, 0, 87, 58
1, 439687, Control_c, 0, 67, 104
1, 439701, Note_on_c, 0, 76, 75
1, 439701, Control_c, 0, 67, 102
1, 439716, Control_c, 0, 67, 99
1, 439728, Note_off_c, 0, 63, 60
1, 439731, Control_c, 0, 67, 94
1, 439736, Note_off_c, 0, 76, 65
1, 439746, Control_c, 0, 67, 89
1, 439758, Note_on_c, 0, 61, 56
1, 439761, Control_c, 0, 67, 84
1, 439762, Note_on_c, 0, 81, 69
1, 439775, Control_c, 0, 67, 79
1, 439780, Note_on_c, 0, 86, 75
1, 439790, Note_off_c, 0, 81, 60
1, 439790, Control_c, 0, 67, 73
1, 439805, Control_c, 0, 67, 65
1, 439808, Note_off_c, 0, 61, 58
1, 439820, Control_c, 0, 67, 55
1, 439828, Note_on_c, 0, 63, 62
1, 439832, Note_off_c, 0, 86, 65
1, 439835, Control_c, 0, 67, 44
1, 439838, Note_on_c, 0, 85, 71
1, 439850, Control_c, 0, 67, 35
1, 439865, Control_c, 0, 67, 28
1, 439867, Note_off_c, 0, 85, 67
1, 439868, Note_off_c, 0, 63, 63
1, 439880, Control_c, 0, 67, 22
1, 439884, Note_on_c, 0, 81, 78
1, 439894, Control_c, 0, 67, 18
1, 439904, Note_on_c, 0, 61, 59
1, 439909, Control_c, 0, 67, 14
1, 439924, Control_c, 0, 67, 12
1, 439939, Control_c, 0, 67, 10
1, 439942, Note_on_c, 0, 87, 86
1, 439945, Note_off_c, 0, 61, 63
1, 439949, Note_off_c, 0, 81, 64
1, 439954, Control_c, 0, 64, 95
1, 439954, Control_c, 0, 67, 9
1, 439966, Note_on_c, 0, 63, 65
1, 439968, Control_c, 0, 64, 92
1, 439968, Control_c, 0, 67, 9
1, 439982, Control_c, 0, 64, 88
1, 439992, Note_on_c, 0, 91, 82
1, 439996, Note_off_c, 0, 63, 66
1, 439996, Note_off_c, 0, 87, 65
1, 439998, Control_c, 0, 64, 84
1, 440020, Control_c, 0, 64, 81
1, 440035, Control_c, 0, 67, 10
1, 440050, Control_c, 0, 67, 11
1, 440055, Note_on_c, 0, 66, 80
1, 440057, Note_on_c, 0, 80, 104
1, 440065, Control_c, 0, 67, 13
1, 440080, Control_c, 0, 64, 82
1, 440080, Control_c, 0, 67, 14
1, 440081, Note_off_c, 0, 91, 61
1, 440094, Control_c, 0, 64, 84
1, 440094, Control_c, 0, 67, 15
1, 440109, Note_off_c, 0, 66, 65
1, 440109, Control_c, 0, 64, 86
1, 440109, Control_c, 0, 67, 15
1, 440119, Note_off_c, 0, 80, 65
1, 440124, Control_c, 0, 64, 87
1, 440124, Control_c, 0, 67, 16
1, 440133, Note_on_c, 0, 67, 72
1, 440139, Control_c, 0, 64, 87
1, 440139, Control_c, 0, 67, 17
1, 440154, Control_c, 0, 67, 18
1, 440168, Note_off_c, 0, 67, 62
1, 440169, Control_c, 0, 64, 88
1, 440169, Control_c, 0, 67, 19
1, 440184, Control_c, 0, 67, 19
1, 440188, Note_on_c, 0, 66, 66
1, 440198, Control_c, 0, 67, 20
1, 440213, Control_c, 0, 67, 21
1, 440228, Control_c, 0, 67, 21
1, 440241, Note_off_c, 0, 66, 63
1, 440243, Control_c, 0, 67, 22
1, 440258, Control_c, 0, 67, 25
1, 440267, Note_on_c, 0, 67, 65
1, 440272, Control_c, 0, 67, 29
1, 440287, Control_c, 0, 67, 33
1, 440295, Note_off_c, 0, 67, 66
1, 440302, Control_c, 0, 67, 37
1, 440317, Control_c, 0, 67, 41
1, 440318, Note_on_c, 0, 66, 57
1, 440331, Control_c, 0, 67, 44
1, 440346, Control_c, 0, 67, 46
1, 440361, Control_c, 0, 67, 48
1, 440366, Note_off_c, 0, 66, 65
1, 440376, Control_c, 0, 67, 51
1, 440391, Control_c, 0, 67, 53
1, 440398, Note_on_c, 0, 67, 53
1, 440405, Control_c, 0, 67, 55
1, 440420, Control_c, 0, 67, 56
1, 440427, Note_off_c, 0, 67, 62
1, 440435, Control_c, 0, 67, 57
1, 440440, Note_on_c, 0, 66, 55
1, 440449, Control_c, 0, 67, 57
1, 440464, Control_c, 0, 67, 58
1, 440479, Note_off_c, 0, 66, 66
1, 440479, Control_c, 0, 64, 87
1, 440494, Control_c, 0, 64, 84
1, 440509, Control_c, 0, 64, 77
1, 440509, Control_c, 0, 67, 58
1, 440519, Note_on_c, 0, 67, 45
1, 440524, Control_c, 0, 64, 64
1, 440539, Control_c, 0, 64, 0
1, 440539, Control_c, 0, 67, 59
1, 440542, Note_off_c, 0, 67, 57
1, 440553, Control_c, 0, 67, 59
1, 440580, Note_on_c, 0, 86, 70
1, 440583, Control_c, 0, 67, 60
1, 440598, Note_on_c, 0, 70, 54
1, 440628, Control_c, 0, 67, 59
1, 440639, Note_off_c, 0, 70, 53
1, 440642, Control_c, 0, 64, 62
1, 440649, Note_on_c, 0, 87, 72
1, 440657, Control_c, 0, 64, 68
1, 440659, Note_off_c, 0, 86, 60
1, 440672, Control_c, 0, 64, 71
1, 440672, Control_c, 0, 67, 58
1, 440687, Control_c, 0, 64, 76
1, 440702, Control_c, 0, 64, 80
1, 440702, Control_c, 0, 67, 58
1, 440705, Note_off_c, 0, 87, 62
1, 440708, Note_on_c, 0, 72, 53
1, 440716, Control_c, 0, 64, 82
1, 440722, Note_on_c, 0, 81, 81
1, 440732, Control_c, 0, 64, 83
1, 440732, Control_c, 0, 67, 57
1, 440747, Control_c, 0, 64, 85
1, 440747, Control_c, 0, 67, 57
1, 440769, Control_c, 0, 64, 86
1, 440778, Note_off_c, 0, 72, 53
1, 440783, Note_off_c, 0, 81, 60
1, 440784, Control_c, 0, 64, 87
1, 440784, Control_c, 0, 67, 56
1, 440789, Note_on_c, 0, 86, 73
1, 440800, Control_c, 0, 64, 88
1, 440813, Note_on_c, 0, 70, 45
1, 440815, Control_c, 0, 64, 89
1, 440815, Control_c, 0, 67, 56
1, 440829, Control_c, 0, 64, 90
1, 440838, Note_on_c, 0, 91, 84
1, 440840, Note_off_c, 0, 86, 65
1, 440844, Control_c, 0, 64, 91
1, 440859, Control_c, 0, 64, 92
1, 440859, Control_c, 0, 67, 55
1, 440870, Note_off_c, 0, 70, 55
1, 440874, Control_c, 0, 64, 93
1, 440881, Note_off_c, 0, 91, 59
1, 440889, Control_c, 0, 64, 93
1, 440903, Control_c, 0, 64, 94
1, 440907, Note_on_c, 0, 72, 46
1, 440926, Note_on_c, 0, 76, 77
1, 440929, Note_off_c, 0, 72, 59
1, 440933, Control_c, 0, 64, 94
1, 440947, Control_c, 0, 64, 95
1, 440962, Control_c, 0, 64, 95
1, 440968, Note_on_c, 0, 70, 57
1, 440969, Note_off_c, 0, 76, 63
1, 440977, Control_c, 0, 64, 96
1, 440992, Control_c, 0, 64, 96
1, 440998, Note_on_c, 0, 87, 75
1, 441007, Control_c, 0, 64, 97
1, 441011, Note_off_c, 0, 70, 57
1, 441021, Control_c, 0, 67, 56
1, 441036, Note_on_c, 0, 72, 50
1, 441036, Control_c, 0, 64, 97
1, 441036, Control_c, 0, 67, 55
1, 441042, Note_off_c, 0, 87, 60
1, 441066, Control_c, 0, 64, 98
1, 441070, Note_on_c, 0, 83, 82
1, 441094, Note_off_c, 0, 72, 61
1, 441096, Control_c, 0, 64, 98
1, 441108, Note_off_c, 0, 83, 61
1, 441111, Control_c, 0, 67, 55
1, 441120, Note_on_c, 0, 70, 61
1, 441138, Note_on_c, 0, 93, 89
1, 441141, Control_c, 0, 67, 54
1, 441155, Control_c, 0, 64, 99
1, 441170, Control_c, 0, 67, 53
1, 441176, Note_off_c, 0, 70, 57
1, 441184, Note_off_c, 0, 93, 60
1, 441185, Control_c, 0, 67, 53
1, 441200, Note_on_c, 0, 72, 65
1, 441200, Control_c, 0, 67, 52
1, 441215, Control_c, 0, 67, 51
1, 441215, Note_on_c, 0, 85, 84
1, 441229, Control_c, 0, 67, 49
1, 441244, Control_c, 0, 67, 48
1, 441249, Note_off_c, 0, 85, 65
1, 441255, Note_off_c, 0, 72, 63
1, 441259, Control_c, 0, 67, 47
1, 441273, Control_c, 0, 67, 45
1, 441279, Note_on_c, 0, 70, 64
1, 441279, Note_on_c, 0, 76, 83
1, 441288, Control_c, 0, 67, 44
1, 441303, Control_c, 0, 67, 43
1, 441318, Control_c, 0, 67, 41
1, 441328, Note_off_c, 0, 70, 60
1, 441333, Control_c, 0, 67, 41
1, 441346, Note_off_c, 0, 76, 60
1, 441347, Control_c, 0, 67, 40
1, 441351, Note_on_c, 0, 72, 59
1, 441355, Note_on_c, 0, 82, 80
1, 441377, Control_c, 0, 67, 39
1, 441392, Control_c, 0, 67, 39
1, 441400, Note_off_c, 0, 72, 62
1, 441406, Note_off_c, 0, 82, 63
1, 441407, Control_c, 0, 67, 38
1, 441421, Control_c, 0, 67, 36
1, 441428, Note_on_c, 0, 70, 62
1, 441436, Note_on_c, 0, 77, 60
1, 441436, Control_c, 0, 67, 34
1, 441441, Note_on_c, 0, 79, 71
1, 441451, Control_c, 0, 67, 30
1, 441463, Note_off_c, 0, 70, 59
1, 441466, Control_c, 0, 67, 26
1, 441468, Note_off_c, 0, 77, 64
1, 441469, Note_off_c, 0, 79, 65
1, 441481, Control_c, 0, 67, 21
1, 441481, Note_on_c, 0, 85, 73
1, 441495, Control_c, 0, 67, 14
1, 441510, Control_c, 0, 67, 8
1, 441533, Control_c, 0, 67, 0
1, 441535, Note_on_c, 0, 72, 53
1, 441548, Control_c, 0, 64, 95
1, 441551, Note_on_c, 0, 87, 69
1, 441557, Note_off_c, 0, 85, 66
1, 441562, Control_c, 0, 64, 84
1, 441563, Note_off_c, 0, 72, 62
1, 441577, Control_c, 0, 64, 69
1, 441593, Control_c, 0, 64, 0
1, 441596, Note_off_c, 0, 87, 62
1, 441605, Note_on_c, 0, 73, 57
1, 441616, Note_on_c, 0, 83, 72
1, 441652, Control_c, 0, 64, 63
1, 441667, Control_c, 0, 64, 68
1, 441672, Note_off_c, 0, 83, 61
1, 441675, Note_on_c, 0, 86, 78
1, 441677, Note_off_c, 0, 73, 50
1, 441682, Control_c, 0, 64, 72
1, 441696, Control_c, 0, 64, 77
1, 441711, Control_c, 0, 64, 82
1, 441717, Note_on_c, 0, 75, 58
1, 441725, Note_off_c, 0, 86, 63
1, 441726, Control_c, 0, 64, 85
1, 441741, Control_c, 0, 64, 86
1, 441755, Note_on_c, 0, 93, 68
1, 441756, Control_c, 0, 64, 88
1, 441758, Note_off_c, 0, 75, 61
1, 441770, Control_c, 0, 64, 90
1, 441773, Note_on_c, 0, 91, 43
1, 441785, Control_c, 0, 64, 91
1, 441794, Note_off_c, 0, 93, 59
1, 441799, Note_off_c, 0, 91, 36
1, 441800, Control_c, 0, 64, 92
1, 441808, Note_on_c, 0, 73, 56
1, 441810, Note_on_c, 0, 82, 86
1, 441815, Control_c, 0, 64, 93
1, 441830, Control_c, 0, 64, 94
1, 441844, Control_c, 0, 64, 95
1, 441859, Control_c, 0, 64, 95
1, 441868, Note_off_c, 0, 82, 62
1, 441870, Note_off_c, 0, 73, 52
1, 441874, Control_c, 0, 64, 96
1, 441885, Note_on_c, 0, 90, 72
1, 441891, Note_on_c, 0, 75, 61
1, 441904, Control_c, 0, 64, 96
1, 441917, Note_on_c, 0, 96, 82
1, 441933, Note_off_c, 0, 90, 64
1, 441934, Control_c, 0, 64, 97
1, 441949, Control_c, 0, 64, 97
1, 441962, Note_off_c, 0, 75, 56
1, 441963, Control_c, 0, 64, 98
1, 441978, Control_c, 0, 64, 99
1, 441981, Note_on_c, 0, 91, 78
1, 441987, Note_off_c, 0, 96, 61
1, 441992, Note_on_c, 0, 73, 62
1, 441993, Control_c, 0, 64, 99
1, 442008, Control_c, 0, 64, 100
1, 442023, Control_c, 0, 64, 100
1, 442038, Control_c, 0, 64, 101
1, 442038, Note_off_c, 0, 91, 60
1, 442043, Note_on_c, 0, 85, 83
1, 442047, Note_off_c, 0, 73, 53
1, 442052, Control_c, 0, 64, 101
1, 442067, Control_c, 0, 64, 102
1, 442074, Note_on_c, 0, 75, 69
1, 442082, Control_c, 0, 64, 102
1, 442094, Note_off_c, 0, 85, 66
1, 442096, Control_c, 0, 64, 103
1, 442111, Control_c, 0, 64, 104
1, 442114, Note_on_c, 0, 90, 88
1, 442126, Control_c, 0, 64, 104
1, 442138, Note_off_c, 0, 75, 63
1, 442141, Control_c, 0, 64, 105
1, 442151, Note_on_c, 0, 73, 73
1, 442156, Control_c, 0, 64, 106
1, 442157, Note_off_c, 0, 90, 63
1, 442170, Control_c, 0, 64, 107
1, 442175, Note_on_c, 0, 83, 82
1, 442185, Control_c, 0, 64, 107
1, 442200, Control_c, 0, 64, 108
1, 442202, Note_off_c, 0, 83, 61
1, 442214, Note_off_c, 0, 73, 60
1, 442215, Control_c, 0, 64, 109
1, 442220, Note_on_c, 0, 89, 76
1, 442223, Note_on_c, 0, 75, 76
1, 442230, Control_c, 0, 64, 110
1, 442244, Control_c, 0, 64, 111
1, 442259, Control_c, 0, 64, 112
1, 442274, Note_on_c, 0, 99, 92
1, 442282, Control_c, 0, 64, 113
1, 442292, Note_off_c, 0, 89, 65
1, 442296, Note_off_c, 0, 75, 63
1, 442303, Note_on_c, 0, 96, 59
1, 442306, Note_on_c, 0, 73, 68
1, 442311, Control_c, 0, 64, 113
1, 442326, Control_c, 0, 64, 114
1, 442333, Note_on_c, 0, 93, 80
1, 442333, Note_off_c, 0, 96, 57
1, 442362, Note_off_c, 0, 99, 67
1, 442377, Note_on_c, 0, 86, 75
1, 442385, Note_off_c, 0, 93, 63
1, 442396, Note_off_c, 0, 73, 62
1, 442403, Note_on_c, 0, 75, 60
1, 442438, Note_off_c, 0, 86, 61
1, 442442, Note_off_c, 0, 75, 60
1, 442443, Note_on_c, 0, 92, 91
1, 442488, Note_off_c, 0, 92, 66
1, 442505, Control_c, 0, 64, 109
1, 442519, Control_c, 0, 64, 94
1, 442534, Control_c, 0, 64, 75
1, 442544, Note_on_c, 0, 78, 82
1, 442549, Control_c, 0, 64, 0
1, 442598, Note_off_c, 0, 78, 63
1, 442608, Control_c, 0, 64, 61
1, 442620, Note_on_c, 0, 79, 66
1, 442623, Control_c, 0, 64, 70
1, 442638, Control_c, 0, 64, 77
1, 442653, Control_c, 0, 64, 84
1, 442662, Note_off_c, 0, 79, 61
1, 442667, Control_c, 0, 64, 90
1, 442682, Control_c, 0, 64, 96
1, 442684, Note_on_c, 0, 78, 68
1, 442697, Control_c, 0, 64, 104
1, 442712, Control_c, 0, 64, 111
1, 442722, Note_off_c, 0, 78, 61
1, 442727, Control_c, 0, 64, 117
1, 442741, Control_c, 0, 64, 123
1, 442754, Note_on_c, 0, 79, 65
1, 442756, Control_c, 0, 64, 127
1, 442780, Note_off_c, 0, 79, 65
1, 442795, Note_on_c, 0, 78, 70
1, 442837, Note_off_c, 0, 78, 62
1, 442848, Note_on_c, 0, 79, 76
1, 442869, Note_off_c, 0, 79, 70
1, 442909, Note_on_c, 0, 82, 85
1, 442959, Note_off_c, 0, 82, 65
1, 442974, Note_on_c, 0, 84, 80
1, 443019, Note_off_c, 0, 84, 61
1, 443048, Note_on_c, 0, 82, 70
1, 443082, Note_off_c, 0, 82, 59
1, 443110, Note_on_c, 0, 84, 69
1, 443123, Note_off_c, 0, 84, 69
1, 443152, Note_on_c, 0, 82, 69
1, 443186, Note_off_c, 0, 82, 64
1, 443192, Note_on_c, 0, 84, 81
1, 443212, Note_off_c, 0, 84, 70
1, 443245, Note_on_c, 0, 88, 101
1, 443248, Note_on_c, 0, 86, 99
1, 443278, Note_off_c, 0, 86, 68
1, 443280, Note_off_c, 0, 88, 65
1, 443624, Note_on_c, 0, 94, 90
1, 443652, Note_off_c, 0, 94, 62
1, 443665, Note_on_c, 0, 105, 103
1, 443691, Note_off_c, 0, 105, 71
1, 444091, Control_c, 0, 67, 16
1, 444106, Control_c, 0, 67, 26
1, 444121, Control_c, 0, 67, 37
1, 444136, Control_c, 0, 67, 45
1, 444151, Control_c, 0, 67, 54
1, 444165, Control_c, 0, 67, 66
1, 444180, Control_c, 0, 67, 80
1, 444195, Control_c, 0, 67, 94
1, 444210, Control_c, 0, 67, 107
1, 444225, Control_c, 0, 67, 116
1, 444239, Control_c, 0, 67, 123
1, 444254, Control_c, 0, 67, 127
1, 444358, Control_c, 0, 64, 125
1, 444372, Control_c, 0, 64, 121
1, 444387, Control_c, 0, 64, 117
1, 444402, Control_c, 0, 64, 113
1, 444417, Control_c, 0, 64, 109
1, 444432, Control_c, 0, 64, 104
1, 444447, Control_c, 0, 64, 100
1, 444461, Control_c, 0, 64, 95
1, 444476, Control_c, 0, 64, 88
1, 444491, Control_c, 0, 64, 79
1, 444513, Control_c, 0, 64, 67
1, 444528, Control_c, 0, 64, 0
1, 444616, Control_c, 0, 64, 35
1, 444631, Control_c, 0, 64, 64
1, 444633, Note_on_c, 0, 85, 41
1, 444638, Note_on_c, 0, 99, 51
1, 444638, Note_on_c, 0, 102, 53
1, 444640, Note_on_c, 0, 104, 43
1, 444646, Control_c, 0, 64, 70
1, 444647, Note_on_c, 0, 97, 41
1, 444661, Control_c, 0, 64, 76
1, 444676, Control_c, 0, 64, 82
1, 444686, Note_off_c, 0, 102, 56
1, 444689, Note_off_c, 0, 104, 59
1, 444691, Control_c, 0, 64, 87
1, 444697, Note_off_c, 0, 99, 62
1, 444706, Note_off_c, 0, 97, 62
1, 444706, Control_c, 0, 64, 91
1, 444721, Control_c, 0, 64, 94
1, 444726, Note_on_c, 0, 91, 48
1, 444728, Note_off_c, 0, 85, 61
1, 444731, Note_on_c, 0, 93, 43
1, 444736, Control_c, 0, 64, 95
1, 444751, Control_c, 0, 64, 96
1, 444758, Note_off_c, 0, 93, 56
1, 444762, Note_off_c, 0, 91, 56
1, 444765, Control_c, 0, 64, 97
1, 444772, Note_on_c, 0, 87, 54
1, 444780, Control_c, 0, 64, 98
1, 444795, Control_c, 0, 64, 99
1, 444810, Note_on_c, 0, 89, 58
1, 444810, Control_c, 0, 64, 100
1, 444812, Note_off_c, 0, 87, 63
1, 444813, Note_on_c, 0, 88, 51
1, 444825, Control_c, 0, 64, 100
1, 444830, Note_off_c, 0, 89, 65
1, 444833, Note_off_c, 0, 88, 60
1, 444840, Control_c, 0, 64, 101
1, 444850, Note_on_c, 0, 85, 45
1, 444855, Control_c, 0, 64, 102
1, 444870, Control_c, 0, 64, 104
1, 444885, Control_c, 0, 64, 105
1, 444885, Note_off_c, 0, 85, 53
1, 444897, Note_on_c, 0, 91, 48
1, 444900, Control_c, 0, 64, 106
1, 444914, Note_on_c, 0, 87, 55
1, 444914, Control_c, 0, 64, 108
1, 444915, Note_on_c, 0, 93, 38
1, 444918, Note_off_c, 0, 91, 39
1, 444929, Control_c, 0, 64, 109
1, 444944, Control_c, 0, 64, 112
1, 444946, Note_off_c, 0, 93, 34
1, 444956, Note_on_c, 0, 102, 73
1, 444959, Control_c, 0, 64, 115
1, 444959, Note_off_c, 0, 87, 58
1, 444965, Note_on_c, 0, 94, 65
1, 444970, Note_on_c, 0, 99, 57
1, 444972, Note_on_c, 0, 97, 60
1, 444974, Control_c, 0, 64, 118
1, 444987, Note_on_c, 0, 85, 53
1, 444988, Control_c, 0, 64, 121
1, 444992, Note_off_c, 0, 99, 64
1, 445001, Note_off_c, 0, 97, 53
1, 445001, Note_off_c, 0, 102, 55
1, 445003, Control_c, 0, 64, 123
1, 445018, Control_c, 0, 64, 125
1, 445022, Note_off_c, 0, 94, 56
1, 445033, Control_c, 0, 64, 126
1, 445035, Note_on_c, 0, 89, 56
1, 445036, Note_off_c, 0, 85, 57
1, 445048, Control_c, 0, 64, 127
1, 445062, Control_c, 0, 64, 127
1, 445064, Note_on_c, 0, 91, 21
1, 445074, Note_off_c, 0, 89, 63
1, 445080, Note_on_c, 0, 87, 61
1, 445104, Note_off_c, 0, 91, 30
1, 445110, Note_on_c, 0, 88, 68
1, 445110, Note_off_c, 0, 87, 65
1, 445135, Note_off_c, 0, 88, 68
1, 445140, Note_on_c, 0, 85, 57
1, 445179, Note_off_c, 0, 85, 60
1, 445192, Note_on_c, 0, 89, 66
1, 445200, Note_on_c, 0, 91, 59
1, 445208, Note_on_c, 0, 87, 62
1, 445212, Note_off_c, 0, 89, 61
1, 445218, Note_off_c, 0, 91, 59
1, 445241, Note_off_c, 0, 87, 63
1, 445246, Note_on_c, 0, 99, 75
1, 445252, Note_on_c, 0, 97, 68
1, 445262, Note_on_c, 0, 92, 72
1, 445266, Note_on_c, 0, 94, 70
1, 445294, Note_on_c, 0, 85, 50
1, 445296, Note_off_c, 0, 97, 55
1, 445300, Note_off_c, 0, 94, 58
1, 445307, Note_off_c, 0, 99, 62
1, 445323, Note_off_c, 0, 85, 58
1, 445323, Note_off_c, 0, 92, 65
1, 445332, Note_on_c, 0, 88, 60
1, 445360, Note_on_c, 0, 87, 55
1, 445368, Note_off_c, 0, 88, 62
1, 445386, Note_off_c, 0, 87, 62
1, 445397, Note_on_c, 0, 86, 74
1, 445411, Note_on_c, 0, 85, 61
1, 445420, Note_off_c, 0, 86, 67
1, 445469, Note_off_c, 0, 85, 59
1, 445494, Poly_aftertouch_c, 0, 84, 0
1, 445496, Note_on_c, 0, 88, 50
1, 445497, Note_on_c, 0, 87, 53
1, 445505, Note_on_c, 0, 89, 49
1, 445517, Note_off_c, 0, 88, 56
1, 445520, Note_off_c, 0, 87, 61
1, 445527, Note_off_c, 0, 89, 57
1, 445534, Note_on_c, 0, 97, 84
1, 445541, Note_on_c, 0, 85, 54
1, 445544, Control_c, 0, 67, 102
1, 445546, Note_on_c, 0, 94, 69
1, 445546, Note_on_c, 0, 90, 76
1, 445548, Note_on_c, 0, 92, 75
1, 445558, Control_c, 0, 67, 64
1, 445573, Control_c, 0, 67, 0
1, 445574, Note_off_c, 0, 94, 63
1, 445587, Note_off_c, 0, 97, 60
1, 445590, Note_off_c, 0, 92, 51
1, 445600, Note_off_c, 0, 85, 63
1, 445610, Note_on_c, 0, 86, 72
1, 445610, Note_off_c, 0, 90, 63
1, 445612, Note_on_c, 0, 87, 58
1, 445617, Note_on_c, 0, 88, 52
1, 445641, Note_off_c, 0, 86, 64
1, 445643, Note_off_c, 0, 88, 62
1, 445649, Note_off_c, 0, 87, 64
1, 445667, Note_on_c, 0, 85, 45
1, 445681, Note_on_c, 0, 84, 73
1, 445694, Note_on_c, 0, 83, 54
1, 445704, Note_off_c, 0, 84, 71
1, 445715, Note_off_c, 0, 83, 38
1, 445721, Note_off_c, 0, 85, 63
1, 445747, Note_on_c, 0, 87, 53
1, 445769, Note_off_c, 0, 87, 61
1, 445775, Note_on_c, 0, 86, 50
1, 445783, Note_on_c, 0, 88, 46
1, 445793, Note_on_c, 0, 85, 50
1, 445800, Note_off_c, 0, 86, 56
1, 445809, Note_off_c, 0, 88, 51
1, 445812, Note_on_c, 0, 94, 81
1, 445819, Note_on_c, 0, 92, 76
1, 445825, Note_on_c, 0, 87, 88
1, 445826, Note_on_c, 0, 90, 73
1, 445830, Note_off_c, 0, 85, 63
1, 445863, Note_off_c, 0, 90, 56
1, 445868, Note_off_c, 0, 92, 62
1, 445873, Note_off_c, 0, 94, 60
1, 445880, Note_on_c, 0, 84, 74
1, 445883, Note_off_c, 0, 87, 63
1, 445886, Note_on_c, 0, 85, 62
1, 445907, Note_off_c, 0, 85, 67
1, 445921, Note_off_c, 0, 84, 64
1, 445962, Note_on_c, 0, 81, 62
1, 445963, Note_on_c, 0, 83, 63
1, 445979, Note_off_c, 0, 81, 63
1, 445980, Note_off_c, 0, 83, 63
1, 446051, Note_on_c, 0, 83, 64
1, 446056, Note_on_c, 0, 84, 57
1, 446067, Note_off_c, 0, 83, 63
1, 446070, Control_c, 0, 64, 114
1, 446074, Note_off_c, 0, 84, 63
1, 446085, Control_c, 0, 64, 94
1, 446100, Control_c, 0, 64, 76
1, 446101, Note_on_c, 0, 92, 79
1, 446105, Note_on_c, 0, 85, 78
1, 446107, Note_on_c, 0, 90, 74
1, 446109, Note_on_c, 0, 73, 61
1, 446112, Note_on_c, 0, 87, 72
1, 446115, Control_c, 0, 64, 54
1, 446130, Control_c, 0, 64, 0
1, 446136, Note_off_c, 0, 92, 55
1, 446137, Note_off_c, 0, 87, 64
1, 446137, Note_off_c, 0, 90, 62
1, 446144, Control_c, 0, 64, 64
1, 446148, Note_off_c, 0, 73, 57
1, 446159, Control_c, 0, 64, 72
1, 446160, Note_off_c, 0, 85, 64
1, 446174, Control_c, 0, 64, 81
1, 446179, Note_on_c, 0, 79, 76
1, 446183, Note_on_c, 0, 81, 55
1, 446189, Control_c, 0, 64, 88
1, 446193, Note_on_c, 0, 75, 56
1, 446203, Note_off_c, 0, 81, 62
1, 446204, Control_c, 0, 64, 91
1, 446205, Note_off_c, 0, 79, 64
1, 446218, Control_c, 0, 64, 92
1, 446229, Note_off_c, 0, 75, 60
1, 446233, Control_c, 0, 64, 93
1, 446248, Control_c, 0, 64, 95
1, 446250, Note_on_c, 0, 77, 74
1, 446262, Note_on_c, 0, 76, 49
1, 446262, Control_c, 0, 64, 96
1, 446264, Note_on_c, 0, 73, 54
1, 446273, Note_off_c, 0, 77, 68
1, 446277, Control_c, 0, 64, 96
1, 446284, Note_off_c, 0, 76, 61
1, 446292, Control_c, 0, 64, 97
1, 446307, Note_off_c, 0, 73, 60
1, 446307, Control_c, 0, 64, 98
1, 446322, Control_c, 0, 64, 99
1, 446336, Note_on_c, 0, 79, 60
1, 446336, Control_c, 0, 64, 100
1, 446355, Note_off_c, 0, 79, 63
1, 446363, Note_on_c, 0, 75, 37
1, 446366, Control_c, 0, 64, 101
1, 446387, Note_on_c, 0, 90, 81
1, 446392, Note_off_c, 0, 75, 53
1, 446393, Note_on_c, 0, 82, 81
1, 446393, Note_on_c, 0, 87, 78
1, 446397, Control_c, 0, 64, 101
1, 446399, Note_on_c, 0, 85, 72
1, 446411, Note_on_c, 0, 73, 63
1, 446412, Control_c, 0, 64, 102
1, 446425, Note_off_c, 0, 85, 65
1, 446427, Control_c, 0, 64, 102
1, 446435, Note_off_c, 0, 90, 62
1, 446440, Note_off_c, 0, 87, 47
1, 446441, Control_c, 0, 64, 103
1, 446450, Note_off_c, 0, 73, 57
1, 446453, Note_off_c, 0, 82, 62
1, 446461, Note_on_c, 0, 77, 73
1, 446471, Control_c, 0, 64, 103
1, 446494, Note_on_c, 0, 75, 53
1, 446502, Note_off_c, 0, 77, 61
1, 446533, Note_on_c, 0, 76, 69
1, 446535, Note_off_c, 0, 75, 65
1, 446542, Note_on_c, 0, 74, 62
1, 446557, Note_off_c, 0, 76, 71
1, 446559, Note_off_c, 0, 74, 66
1, 446560, Note_on_c, 0, 73, 59
1, 446603, Note_off_c, 0, 73, 61
1, 446617, Note_on_c, 0, 77, 67
1, 446620, Control_c, 0, 64, 104
1, 446632, Note_on_c, 0, 79, 52
1, 446634, Note_off_c, 0, 77, 64
1, 446637, Note_on_c, 0, 75, 55
1, 446654, Note_off_c, 0, 79, 57
1, 446664, Note_on_c, 0, 87, 84
1, 446671, Note_on_c, 0, 85, 74
1, 446671, Note_off_c, 0, 75, 65
1, 446672, Note_on_c, 0, 80, 82
1, 446674, Note_on_c, 0, 82, 79
1, 446688, Note_on_c, 0, 73, 71
1, 446719, Note_off_c, 0, 85, 59
1, 446719, Note_off_c, 0, 87, 59
1, 446722, Note_off_c, 0, 82, 58
1, 446723, Control_c, 0, 64, 104
1, 446733, Note_off_c, 0, 80, 63
1, 446740, Note_on_c, 0, 76, 72
1, 446741, Note_off_c, 0, 73, 58
1, 446781, Note_on_c, 0, 75, 53
1, 446787, Note_off_c, 0, 76, 67
1, 446808, Note_off_c, 0, 75, 63
1, 446818, Note_on_c, 0, 74, 73
1, 446826, Note_on_c, 0, 73, 55
1, 446841, Note_off_c, 0, 74, 71
1, 446842, Note_on_c, 0, 72, 36
1, 446873, Note_off_c, 0, 72, 52
1, 446876, Note_off_c, 0, 73, 62
1, 446903, Note_on_c, 0, 75, 61
1, 446907, Note_on_c, 0, 76, 61
1, 446912, Note_on_c, 0, 77, 54
1, 446924, Note_off_c, 0, 76, 66
1, 446933, Note_off_c, 0, 75, 68
1, 446933, Note_off_c, 0, 77, 58
1, 446948, Note_on_c, 0, 73, 63
1, 446948, Note_on_c, 0, 85, 83
1, 446952, Note_on_c, 0, 78, 87
1, 446955, Note_on_c, 0, 82, 79
1, 446959, Note_on_c, 0, 80, 83
1, 446986, Note_off_c, 0, 82, 56
1, 446991, Note_off_c, 0, 80, 55
1, 446995, Note_off_c, 0, 85, 62
1, 447005, Note_off_c, 0, 73, 63
1, 447009, Note_off_c, 0, 78, 65
1, 447020, Note_on_c, 0, 74, 73
1, 447028, Note_on_c, 0, 75, 51
1, 447034, Note_on_c, 0, 76, 50
1, 447054, Note_off_c, 0, 75, 62
1, 447057, Note_off_c, 0, 76, 55
1, 447060, Note_off_c, 0, 74, 64
1, 447079, Note_on_c, 0, 73, 57
1, 447090, Note_on_c, 0, 72, 79
1, 447097, Note_on_c, 0, 71, 63
1, 447112, Note_off_c, 0, 72, 69
1, 447123, Note_off_c, 0, 73, 59
1, 447127, Note_off_c, 0, 71, 65
1, 447145, Note_on_c, 0, 75, 60
1, 447169, Note_on_c, 0, 74, 79
1, 447177, Note_on_c, 0, 76, 76
1, 447180, Note_off_c, 0, 75, 58
1, 447199, Note_off_c, 0, 76, 72
1, 447204, Note_on_c, 0, 73, 58
1, 447210, Note_off_c, 0, 74, 61
1, 447229, Note_on_c, 0, 75, 85
1, 447231, Note_on_c, 0, 82, 70
1, 447234, Note_on_c, 0, 80, 80
1, 447235, Note_on_c, 0, 78, 87
1, 447247, Note_off_c, 0, 73, 61
1, 447249, Note_off_c, 0, 82, 63
1, 447286, Note_off_c, 0, 80, 58
1, 447287, Note_off_c, 0, 78, 61
1, 447296, Note_off_c, 0, 75, 66
1, 447301, Note_on_c, 0, 72, 75
1, 447307, Note_on_c, 0, 73, 38
1, 447313, Note_on_c, 0, 74, 53
1, 447323, Note_off_c, 0, 72, 71
1, 447335, Note_off_c, 0, 74, 60
1, 447340, Note_off_c, 0, 73, 43
1, 447363, Note_on_c, 0, 71, 85
1, 447373, Note_on_c, 0, 69, 65
1, 447380, Note_off_c, 0, 71, 72
1, 447390, Note_off_c, 0, 69, 64
1, 447438, Note_on_c, 0, 72, 76
1, 447438, Note_on_c, 0, 74, 72
1, 447463, Note_off_c, 0, 72, 68
1, 447464, Note_off_c, 0, 74, 66
1, 447544, Note_on_c, 0, 62, 74
1, 447554, Control_c, 0, 64, 103
1, 447569, Control_c, 0, 64, 94
1, 447571, Note_on_c, 0, 64, 67
1, 447584, Note_on_c, 0, 87, 69
1, 447584, Control_c, 0, 64, 73
1, 447592, Note_on_c, 0, 84, 55
1, 447598, Control_c, 0, 64, 0
1, 447603, Note_on_c, 0, 70, 92
1, 447604, Note_on_c, 0, 79, 52
1, 447611, Note_on_c, 0, 73, 102
1, 447625, Note_on_c, 0, 77, 66
1, 447627, Note_on_c, 0, 76, 71
1, 447629, Note_off_c, 0, 84, 55
1, 447633, Note_off_c, 0, 87, 62
1, 447643, Note_off_c, 0, 79, 60
1, 447657, Control_c, 0, 64, 62
1, 447672, Control_c, 0, 64, 75
1, 447679, Note_off_c, 0, 76, 0
1, 447679, Note_on_c, 0, 76, 7
1, 447687, Control_c, 0, 64, 85
1, 447702, Note_off_c, 0, 64, 60
1, 447702, Control_c, 0, 64, 91
1, 447708, Note_off_c, 0, 62, 60
1, 447717, Control_c, 0, 64, 92
1, 447722, Note_off_c, 0, 77, 49
1, 447723, Note_off_c, 0, 76, 43
1, 447731, Control_c, 0, 64, 93
1, 447736, Note_off_c, 0, 73, 58
1, 447761, Control_c, 0, 64, 93
1, 447776, Control_c, 0, 64, 94
1, 447791, Control_c, 0, 64, 94
1, 447806, Control_c, 0, 64, 95
1, 447821, Control_c, 0, 64, 96
1, 447835, Control_c, 0, 64, 97
1, 447854, Note_off_c, 0, 70, 55
1, 447880, Control_c, 0, 64, 97
1, 447889, Note_on_c, 0, 61, 74
1, 447895, Control_c, 0, 64, 90
1, 447909, Control_c, 0, 64, 77
1, 447912, Note_on_c, 0, 63, 60
1, 447914, Note_on_c, 0, 87, 64
1, 447915, Note_on_c, 0, 78, 67
1, 447916, Note_on_c, 0, 66, 63
1, 447924, Control_c, 0, 64, 47
1, 447925, Note_on_c, 0, 75, 86
1, 447932, Note_on_c, 0, 70, 82
1, 447934, Note_on_c, 0, 73, 97
1, 447934, Note_on_c, 0, 80, 17
1, 447934, Note_off_c, 0, 78, 63
1, 447939, Control_c, 0, 64, 0
1, 447943, Note_off_c, 0, 87, 63
1, 447949, Note_off_c, 0, 63, 62
1, 447956, Note_off_c, 0, 80, 34
1, 447968, Note_off_c, 0, 61, 62
1, 447969, Control_c, 0, 64, 61
1, 447983, Note_off_c, 0, 66, 61
1, 447985, Control_c, 0, 64, 72
1, 447990, Note_off_c, 0, 75, 60
1, 448000, Control_c, 0, 64, 80
1, 448014, Control_c, 0, 64, 87
1, 448029, Control_c, 0, 64, 89
1, 448036, Note_off_c, 0, 73, 57
1, 448041, Note_on_c, 0, 78, 12
1, 448058, Control_c, 0, 64, 90
1, 448084, Note_off_c, 0, 78, 29
1, 448088, Control_c, 0, 64, 91
1, 448103, Control_c, 0, 64, 92
1, 448118, Control_c, 0, 64, 93
1, 448132, Control_c, 0, 64, 94
1, 448138, Note_off_c, 0, 70, 58
1, 448162, Control_c, 0, 64, 93
1, 448177, Control_c, 0, 64, 86
1, 448180, Note_on_c, 0, 62, 71
1, 448192, Control_c, 0, 64, 72
1, 448206, Note_on_c, 0, 87, 65
1, 448206, Control_c, 0, 64, 0
1, 448214, Note_on_c, 0, 64, 43
1, 448217, Note_on_c, 0, 77, 86
1, 448218, Note_on_c, 0, 73, 102
1, 448220, Note_on_c, 0, 70, 82
1, 448232, Note_on_c, 0, 84, 37
1, 448238, Note_on_c, 0, 79, 8
1, 448244, Note_off_c, 0, 87, 55
1, 448256, Control_c, 0, 64, 55
1, 448265, Note_off_c, 0, 62, 61
1, 448271, Note_off_c, 0, 64, 60
1, 448271, Note_off_c, 0, 84, 45
1, 448271, Control_c, 0, 64, 72
1, 448281, Note_off_c, 0, 77, 61
1, 448286, Control_c, 0, 64, 84
1, 448289, Note_off_c, 0, 79, 29
1, 448295, Note_off_c, 0, 73, 47
1, 448301, Control_c, 0, 64, 93
1, 448316, Control_c, 0, 64, 95
1, 448331, Control_c, 0, 64, 96
1, 448346, Control_c, 0, 64, 96
1, 448360, Control_c, 0, 64, 97
1, 448375, Control_c, 0, 64, 98
1, 448390, Control_c, 0, 64, 99
1, 448405, Control_c, 0, 64, 99
1, 448435, Control_c, 0, 64, 99
1, 448450, Control_c, 0, 64, 91
1, 448454, Note_off_c, 0, 70, 39
1, 448462, Note_on_c, 0, 61, 76
1, 448464, Control_c, 0, 64, 78
1, 448474, Note_on_c, 0, 78, 61
1, 448479, Control_c, 0, 64, 51
1, 448483, Note_on_c, 0, 80, 48
1, 448483, Note_on_c, 0, 63, 56
1, 448491, Note_on_c, 0, 82, 40
1, 448494, Control_c, 0, 64, 0
1, 448495, Note_on_c, 0, 66, 58
1, 448495, Note_on_c, 0, 70, 71
1, 448497, Note_on_c, 0, 87, 44
1, 448499, Note_on_c, 0, 73, 97
1, 448502, Note_on_c, 0, 75, 83
1, 448504, Note_off_c, 0, 80, 63
1, 448518, Note_off_c, 0, 78, 63
1, 448523, Note_off_c, 0, 63, 66
1, 448524, Control_c, 0, 64, 62
1, 448527, Note_off_c, 0, 61, 62
1, 448527, Note_off_c, 0, 82, 47
1, 448527, Note_off_c, 0, 87, 56
1, 448538, Control_c, 0, 64, 76
1, 448548, Note_off_c, 0, 66, 56
1, 448553, Control_c, 0, 64, 87
1, 448560, Note_off_c, 0, 75, 64
1, 448564, Note_off_c, 0, 73, 57
1, 448568, Control_c, 0, 64, 95
1, 448583, Control_c, 0, 64, 96
1, 448598, Control_c, 0, 64, 97
1, 448612, Control_c, 0, 64, 97
1, 448627, Control_c, 0, 64, 98
1, 448642, Control_c, 0, 64, 99
1, 448671, Control_c, 0, 64, 99
1, 448673, Note_off_c, 0, 70, 55
1, 448686, Control_c, 0, 64, 99
1, 448701, Control_c, 0, 64, 94
1, 448716, Control_c, 0, 64, 81
1, 448730, Note_on_c, 0, 62, 74
1, 448730, Control_c, 0, 64, 50
1, 448743, Note_on_c, 0, 87, 65
1, 448745, Control_c, 0, 64, 0
1, 448753, Note_on_c, 0, 64, 57
1, 448757, Note_on_c, 0, 70, 88
1, 448760, Note_on_c, 0, 73, 98
1, 448763, Note_on_c, 0, 77, 86
1, 448765, Note_on_c, 0, 79, 37
1, 448765, Note_on_c, 0, 84, 40
1, 448775, Control_c, 0, 64, 62
1, 448791, Control_c, 0, 64, 74
1, 448792, Note_off_c, 0, 84, 49
1, 448796, Note_off_c, 0, 64, 64
1, 448796, Note_off_c, 0, 79, 33
1, 448799, Note_off_c, 0, 62, 62
1, 448801, Note_off_c, 0, 87, 62
1, 448806, Control_c, 0, 64, 85
1, 448817, Note_off_c, 0, 77, 60
1, 448821, Control_c, 0, 64, 94
1, 448835, Control_c, 0, 64, 96
1, 448840, Note_off_c, 0, 73, 57
1, 448850, Control_c, 0, 64, 97
1, 448865, Control_c, 0, 64, 97
1, 448942, Note_off_c, 0, 70, 52
1, 448954, Control_c, 0, 64, 94
1, 448969, Control_c, 0, 64, 83
1, 448983, Control_c, 0, 64, 65
1, 448989, Note_on_c, 0, 61, 81
1, 448995, Note_on_c, 0, 87, 67
1, 449006, Control_c, 0, 64, 0
1, 449007, Note_on_c, 0, 63, 65
1, 449008, Note_on_c, 0, 78, 65
1, 449014, Note_on_c, 0, 66, 64
1, 449022, Note_on_c, 0, 75, 88
1, 449022, Note_on_c, 0, 82, 32
1, 449028, Note_on_c, 0, 70, 75
1, 449034, Note_on_c, 0, 73, 95
1, 449036, Note_off_c, 0, 78, 67
1, 449047, Note_off_c, 0, 82, 53
1, 449050, Control_c, 0, 64, 67
1, 449060, Note_off_c, 0, 63, 59
1, 449063, Note_off_c, 0, 87, 62
1, 449065, Control_c, 0, 64, 80
1, 449068, Note_off_c, 0, 66, 60
1, 449072, Note_off_c, 0, 61, 58
1, 449076, Note_off_c, 0, 75, 60
1, 449079, Control_c, 0, 64, 90
1, 449094, Control_c, 0, 64, 96
1, 449102, Note_off_c, 0, 73, 53
1, 449109, Control_c, 0, 64, 97
1, 449124, Control_c, 0, 64, 98
1, 449139, Control_c, 0, 64, 99
1, 449153, Control_c, 0, 64, 99
1, 449198, Note_off_c, 0, 70, 58
1, 449198, Control_c, 0, 64, 98
1, 449213, Control_c, 0, 64, 86
1, 449228, Control_c, 0, 64, 70
1, 449229, Note_on_c, 0, 62, 79
1, 449242, Note_on_c, 0, 87, 71
1, 449243, Control_c, 0, 64, 0
1, 449251, Note_on_c, 0, 64, 55
1, 449257, Note_on_c, 0, 84, 55
1, 449261, Note_on_c, 0, 77, 93
1, 449267, Note_on_c, 0, 70, 80
1, 449267, Note_on_c, 0, 73, 99
1, 449273, Control_c, 0, 64, 50
1, 449276, Note_off_c, 0, 84, 64
1, 449287, Control_c, 0, 64, 71
1, 449293, Note_off_c, 0, 64, 64
1, 449296, Note_off_c, 0, 62, 59
1, 449299, Note_off_c, 0, 87, 62
1, 449302, Control_c, 0, 64, 85
1, 449306, Note_off_c, 0, 77, 61
1, 449317, Control_c, 0, 64, 94
1, 449329, Note_off_c, 0, 73, 53
1, 449332, Control_c, 0, 64, 96
1, 449347, Control_c, 0, 64, 97
1, 449361, Control_c, 0, 64, 98
1, 449405, Control_c, 0, 64, 97
1, 449420, Control_c, 0, 64, 87
1, 449435, Control_c, 0, 64, 71
1, 449437, Note_off_c, 0, 70, 53
1, 449450, Control_c, 0, 64, 0
1, 449466, Note_on_c, 0, 61, 75
1, 449472, Note_on_c, 0, 87, 66
1, 449479, Note_on_c, 0, 63, 58
1, 449481, Note_on_c, 0, 82, 28
1, 449487, Note_on_c, 0, 66, 51
1, 449488, Note_on_c, 0, 75, 91
1, 449492, Note_on_c, 0, 78, 42
1, 449494, Control_c, 0, 64, 68
1, 449499, Note_on_c, 0, 73, 92
1, 449502, Note_on_c, 0, 70, 67
1, 449509, Control_c, 0, 64, 82
1, 449512, Note_off_c, 0, 82, 55
1, 449516, Note_off_c, 0, 78, 50
1, 449517, Note_off_c, 0, 87, 58
1, 449524, Note_off_c, 0, 63, 64
1, 449524, Control_c, 0, 64, 98
1, 449532, Note_off_c, 0, 61, 60
1, 449539, Note_off_c, 0, 75, 63
1, 449539, Control_c, 0, 64, 112
1, 449544, Note_off_c, 0, 66, 57
1, 449547, Note_off_c, 0, 73, 63
1, 449553, Control_c, 0, 64, 120
1, 449568, Control_c, 0, 64, 127
1, 449629, Control_c, 0, 64, 98
1, 449644, Control_c, 0, 64, 69
1, 449650, Note_off_c, 0, 70, 63
1, 449658, Control_c, 0, 64, 0
1, 449675, Note_on_c, 0, 62, 76
1, 449681, Note_on_c, 0, 87, 72
1, 449684, Poly_aftertouch_c, 0, 70, 0
1, 449693, Note_on_c, 0, 70, 69
1, 449693, Note_on_c, 0, 73, 106
1, 449695, Note_on_c, 0, 64, 49
1, 449699, Note_on_c, 0, 77, 90
1, 449702, Control_c, 0, 64, 33
1, 449717, Control_c, 0, 64, 80
1, 449731, Note_off_c, 0, 62, 63
1, 449732, Control_c, 0, 64, 108
1, 449737, Note_off_c, 0, 64, 63
1, 449739, Note_off_c, 0, 87, 63
1, 449741, Note_off_c, 0, 77, 64
1, 449747, Note_off_c, 0, 73, 59
1, 449747, Control_c, 0, 64, 127
1, 449804, Poly_aftertouch_c, 0, 66, 0
1, 449829, Control_c, 0, 64, 99
1, 449843, Control_c, 0, 64, 78
1, 449858, Control_c, 0, 64, 0
1, 449860, Note_off_c, 0, 70, 52
1, 449878, Note_on_c, 0, 87, 72
1, 449881, Note_on_c, 0, 61, 75
1, 449885, Note_on_c, 0, 82, 53
1, 449887, Note_on_c, 0, 63, 63
1, 449887, Note_on_c, 0, 66, 51
1, 449894, Note_on_c, 0, 70, 59
1, 449899, Note_on_c, 0, 75, 92
1, 449902, Control_c, 0, 64, 67
1, 449905, Note_on_c, 0, 73, 97
1, 449916, Note_off_c, 0, 82, 59
1, 449917, Control_c, 0, 64, 85
1, 449932, Control_c, 0, 64, 106
1, 449934, Note_off_c, 0, 87, 63
1, 449937, Note_off_c, 0, 66, 59
1, 449943, Note_off_c, 0, 63, 62
1, 449947, Control_c, 0, 64, 118
1, 449954, Note_off_c, 0, 75, 63
1, 449955, Note_off_c, 0, 61, 60
1, 449965, Note_off_c, 0, 73, 60
1, 449991, Control_c, 0, 64, 114
1, 450006, Control_c, 0, 64, 96
1, 450021, Control_c, 0, 64, 71
1, 450026, Note_off_c, 0, 70, 61
1, 450036, Control_c, 0, 64, 0
1, 450059, Note_on_c, 0, 62, 77
1, 450059, Note_on_c, 0, 87, 76
1, 450066, Note_on_c, 0, 84, 67
1, 450080, Control_c, 0, 64, 67
1, 450081, Note_on_c, 0, 70, 65
1, 450083, Note_on_c, 0, 77, 82
1, 450089, Note_on_c, 0, 64, 53
1, 450090, Note_on_c, 0, 73, 87
1, 450094, Note_off_c, 0, 84, 69
1, 450095, Control_c, 0, 64, 93
1, 450110, Control_c, 0, 64, 127
1, 450113, Note_off_c, 0, 64, 62
1, 450119, Note_off_c, 0, 87, 63
1, 450123, Note_off_c, 0, 62, 61
1, 450123, Note_off_c, 0, 77, 61
1, 450137, Note_off_c, 0, 73, 61
1, 450170, Control_c, 0, 64, 122
1, 450184, Control_c, 0, 64, 88
1, 450199, Control_c, 0, 64, 0
1, 450208, Note_off_c, 0, 70, 58
1, 450239, Note_on_c, 0, 87, 70
1, 450241, Note_on_c, 0, 82, 46
1, 450247, Note_on_c, 0, 80, 42
1, 450250, Note_on_c, 0, 61, 76
1, 450253, Note_on_c, 0, 66, 60
1, 450253, Note_on_c, 0, 63, 64
1, 450254, Note_on_c, 0, 70, 61
1, 450255, Note_on_c, 0, 73, 103
1, 450256, Note_on_c, 0, 78, 63
1, 450258, Control_c, 0, 64, 71
1, 450262, Note_on_c, 0, 75, 104
1, 450273, Control_c, 0, 64, 127
1, 450280, Note_off_c, 0, 78, 66
1, 450281, Note_off_c, 0, 80, 65
1, 450287, Note_off_c, 0, 73, 68
1, 450289, Note_off_c, 0, 82, 64
1, 450289, Note_off_c, 0, 70, 66
1, 450292, Note_off_c, 0, 87, 64
1, 450292, Note_off_c, 0, 75, 70
1, 450295, Note_off_c, 0, 66, 65
1, 450315, Note_off_c, 0, 63, 64
1, 450316, Note_off_c, 0, 61, 62
1, 450711, Control_c, 0, 64, 110
1, 450726, Control_c, 0, 64, 87
1, 450740, Control_c, 0, 64, 18
1, 450755, Control_c, 0, 64, 0
1, 450963, Note_on_c, 0, 58, 100
1, 450963, Note_on_c, 0, 69, 92
1, 450966, Note_on_c, 0, 61, 92
1, 450966, Note_on_c, 0, 66, 88
1, 450972, Note_on_c, 0, 29, 88
1, 450993, Control_c, 0, 64, 95
1, 451007, Control_c, 0, 64, 127
1, 451013, Note_off_c, 0, 69, 64
1, 451037, Note_off_c, 0, 66, 66
1, 451047, Note_off_c, 0, 58, 57
1, 451064, Note_off_c, 0, 61, 62
1, 451076, Poly_aftertouch_c, 0, 65, 0
1, 451081, Control_c, 0, 64, 113
1, 451096, Control_c, 0, 64, 92
1, 451111, Control_c, 0, 64, 67
1, 451118, Note_off_c, 0, 29, 34
1, 451125, Control_c, 0, 64, 0
1, 451154, Note_on_c, 0, 36, 54
1, 451157, Note_on_c, 0, 43, 77
1, 451187, Note_off_c, 0, 36, 63
1, 451196, Note_off_c, 0, 43, 63
1, 451329, Note_on_c, 0, 66, 86
1, 451332, Note_on_c, 0, 64, 63
1, 451336, Note_on_c, 0, 55, 76
1, 451339, Note_on_c, 0, 60, 45
1, 451345, Note_on_c, 0, 33, 65
1, 451358, Note_off_c, 0, 64, 67
1, 451362, Note_off_c, 0, 60, 56
1, 451366, Note_off_c, 0, 55, 64
1, 451381, Note_off_c, 0, 66, 62
1, 451383, Note_off_c, 0, 33, 65
1, 451515, Note_on_c, 0, 54, 97
1, 451518, Note_on_c, 0, 47, 93
1, 451520, Note_on_c, 0, 58, 89
1, 451520, Note_on_c, 0, 61, 95
1, 451520, Note_on_c, 0, 40, 79
1, 451534, Control_c, 0, 64, 91
1, 451545, Note_off_c, 0, 54, 64
1, 451549, Control_c, 0, 64, 127
1, 451556, Note_off_c, 0, 40, 66
1, 451565, Note_off_c, 0, 58, 67
1, 451568, Note_off_c, 0, 47, 64
1, 451575, Note_off_c, 0, 61, 64
1, 451622, Control_c, 0, 64, 125
1, 451637, Control_c, 0, 64, 98
1, 451652, Control_c, 0, 64, 77
1, 451667, Control_c, 0, 64, 0
1, 451683, Note_on_c, 0, 36, 65
1, 451729, Note_off_c, 0, 36, 63
1, 451864, Note_on_c, 0, 75, 92
1, 451865, Note_on_c, 0, 61, 100
1, 451866, Note_on_c, 0, 66, 96
1, 451866, Note_on_c, 0, 70, 90
1, 451872, Note_on_c, 0, 43, 70
1, 451872, Note_on_c, 0, 50, 86
1, 451889, Control_c, 0, 64, 73
1, 451892, Note_on_c, 0, 73, 49
1, 451904, Control_c, 0, 64, 127
1, 451908, Note_off_c, 0, 43, 64
1, 451913, Note_off_c, 0, 73, 59
1, 451914, Note_off_c, 0, 75, 66
1, 451918, Note_off_c, 0, 70, 61
1, 451929, Note_off_c, 0, 50, 61
1, 451933, Note_off_c, 0, 66, 62
1, 451951, Note_off_c, 0, 61, 58
1, 452021, Note_on_c, 0, 40, 67
1, 452072, Note_off_c, 0, 40, 55
1, 452172, Note_on_c, 0, 60, 81
1, 452173, Note_on_c, 0, 73, 83
1, 452179, Control_c, 0, 64, 99
1, 452181, Note_on_c, 0, 67, 72
1, 452186, Note_on_c, 0, 64, 68
1, 452190, Note_on_c, 0, 53, 74
1, 452194, Control_c, 0, 64, 82
1, 452194, Note_off_c, 0, 60, 66
1, 452195, Note_on_c, 0, 47, 65
1, 452209, Control_c, 0, 64, 64
1, 452209, Note_off_c, 0, 67, 66
1, 452210, Note_on_c, 0, 70, 32
1, 452217, Note_off_c, 0, 64, 67
1, 452218, Poly_aftertouch_c, 0, 63, 0
1, 452219, Note_off_c, 0, 73, 62
1, 452224, Control_c, 0, 64, 0
1, 452233, Note_off_c, 0, 47, 64
1, 452233, Note_off_c, 0, 70, 49
1, 452268, Note_off_c, 0, 53, 61
1, 452283, Control_c, 0, 64, 52
1, 452292, Note_on_c, 0, 58, 82
1, 452298, Control_c, 0, 64, 76
1, 452311, Note_off_c, 0, 58, 71
1, 452312, Control_c, 0, 64, 97
1, 452317, Note_on_c, 0, 61, 78
1, 452323, Note_on_c, 0, 66, 87
1, 452327, Note_on_c, 0, 43, 91
1, 452327, Control_c, 0, 64, 127
1, 452338, Note_off_c, 0, 61, 67
1, 452348, Note_on_c, 0, 72, 96
1, 452363, Note_off_c, 0, 66, 67
1, 452366, Note_on_c, 0, 68, 52
1, 452370, Note_on_c, 0, 71, 46
1, 452371, Note_off_c, 0, 71, 127
1, 452374, Note_off_c, 0, 72, 70
1, 452387, Note_off_c, 0, 68, 60
1, 452527, Note_off_c, 0, 43, 27
1, 452537, Note_on_c, 0, 50, 74
1, 452539, Note_on_c, 0, 57, 81
1, 452564, Note_off_c, 0, 50, 66
1, 452579, Note_off_c, 0, 57, 60
1, 452775, Note_on_c, 0, 92, 77
1, 452809, Control_c, 0, 64, 122
1, 452816, Note_on_c, 0, 94, 77
1, 452824, Control_c, 0, 64, 91
1, 452832, Note_off_c, 0, 92, 65
1, 452839, Control_c, 0, 64, 0
1, 452842, Note_on_c, 0, 97, 82
1, 452871, Note_off_c, 0, 94, 66
1, 452873, Note_on_c, 0, 102, 101
1, 452882, Note_off_c, 0, 97, 66
1, 452927, Control_c, 0, 64, 84
1, 452933, Note_on_c, 0, 99, 87
1, 452942, Control_c, 0, 64, 127
1, 452987, Note_on_c, 0, 97, 88
1, 453005, Note_off_c, 0, 102, 62
1, 453027, Note_off_c, 0, 99, 69
1, 453034, Note_on_c, 0, 94, 77
1, 453058, Note_off_c, 0, 97, 65
1, 453063, Note_on_c, 0, 91, 89
1, 453075, Note_off_c, 0, 94, 68
1, 453094, Note_off_c, 0, 91, 63
1, 453109, Note_on_c, 0, 88, 70
1, 453148, Note_on_c, 0, 85, 77
1, 453148, Note_off_c, 0, 88, 60
1, 453169, Note_on_c, 0, 81, 62
1, 453204, Note_off_c, 0, 85, 65
1, 453216, Note_off_c, 0, 81, 51
1, 453222, Note_on_c, 0, 76, 60
1, 453267, Note_off_c, 0, 76, 65
1, 453279, Note_on_c, 0, 73, 77
1, 453346, Note_on_c, 0, 70, 76
1, 453354, Note_off_c, 0, 73, 63
1, 453398, Note_on_c, 0, 68, 75
1, 453399, Note_off_c, 0, 70, 63
1, 453430, Note_off_c, 0, 68, 65
1, 453438, Note_on_c, 0, 65, 71
1, 453461, Note_off_c, 0, 65, 68
1, 453477, Note_on_c, 0, 62, 68
1, 453539, Note_off_c, 0, 62, 61
1, 453541, Note_on_c, 0, 59, 67
1, 453583, Note_on_c, 0, 55, 58
1, 453607, Note_off_c, 0, 59, 59
1, 453617, Note_on_c, 0, 50, 67
1, 453631, Note_off_c, 0, 55, 60
1, 453679, Note_on_c, 0, 48, 81
1, 453688, Note_off_c, 0, 50, 64
1, 453738, Note_on_c, 0, 46, 78
1, 453760, Note_off_c, 0, 48, 65
1, 453782, Note_on_c, 0, 44, 72
1, 453797, Note_off_c, 0, 46, 64
1, 453813, Note_on_c, 0, 42, 80
1, 453834, Note_off_c, 0, 44, 63
1, 453862, Note_on_c, 0, 41, 74
1, 453866, Note_off_c, 0, 42, 64
1, 453894, Note_off_c, 0, 41, 67
1, 453925, Note_on_c, 0, 39, 78
1, 453965, Note_on_c, 0, 37, 77
1, 453977, Note_off_c, 0, 39, 61
1, 453998, Note_on_c, 0, 36, 70
1, 454000, Note_off_c, 0, 37, 67
1, 454027, Note_off_c, 0, 36, 65
1, 454048, Note_on_c, 0, 34, 94
1, 454066, Note_off_c, 0, 34, 70
1, 454087, Note_on_c, 0, 33, 101
1, 454090, Note_on_c, 0, 21, 98
1, 454090, Note_on_c, 0, 35, 102
1, 454094, Note_on_c, 0, 23, 93
1, 454102, Note_on_c, 0, 27, 84
1, 454112, Note_off_c, 0, 35, 72
1, 454123, Note_off_c, 0, 33, 69
1, 454123, Note_off_c, 0, 27, 71
1, 454127, Note_off_c, 0, 21, 63
1, 454131, Note_off_c, 0, 23, 64
1, 454145, Note_on_c, 0, 34, 19
1, 454150, Control_c, 0, 64, 108
1, 454164, Note_off_c, 0, 34, 51
1, 454165, Control_c, 0, 64, 97
1, 454180, Control_c, 0, 64, 87
1, 454194, Control_c, 0, 64, 80
1, 454210, Control_c, 0, 64, 73
1, 454225, Control_c, 0, 64, 64
1, 454240, Control_c, 0, 64, 0
1, 454240, End_track
0, 0, End_of_file
