0, 0, Header, 0, 1, 384
1, 0, Start_track
1, 0, Title_t, "Feux Follets--Nansong Huang     "
1, 0, Text_t, "2008 e-Piano Junior Competition recital round"
1, 0, Text_t, "recorded July 2008"
1, 0, Text_t, "http://www.piano-e-competition.com/"
1, 0, Text_t, "File processed for distribution by software from Zenph Studios, Inc., http://www.zenph.com"
1, 0, Instrument_name_t, "Yamaha Disklavier Pro Mark IV concert grand piano, model DCFIIISM4PRO"
1, 0, Sequencer_specific, 39, 67, 113, 0, 1, 0, 1, 0, 70, 101, 117, 120, 32, 70, 111, 108, 108, 101, 116, 115, 32, 32, 32, 32, 78, 97, 110, 115, 111, 110, 103, 32, 72, 117, 97, 110, 103, 32, 32, 32
1, 0, Sequencer_specific, 6, 67, 113, 0, 0, 0, 69
1, 0, System_exclusive, 21, 67, 113, 126, 21, 0, 2, 2, 0, 3, 14, 1, 4, 1, 13, 13, 10, 11, 9, 2, 7, 247
1, 0, Sequencer_specific, 5, 67, 123, 12, 2, 1
1, 0, Tempo, 512820
1, 0, Time_signature, 4, 2, 24, 8
1, 0, System_exclusive, 5, 126, 127, 9, 1, 247
1, 1, System_exclusive, 8, 67, 16, 76, 0, 0, 126, 0, 247
1, 2, System_exclusive, 8, 67, 16, 76, 8, 9, 7, 1, 247
1, 3, Control_c, 0, 0, 0
1, 3, Control_c, 1, 0, 0
1, 3, Control_c, 2, 0, 0
1, 3, Control_c, 3, 0, 0
1, 3, Control_c, 4, 0, 0
1, 3, Control_c, 5, 0, 0
1, 3, Control_c, 6, 0, 0
1, 3, Control_c, 7, 0, 0
1, 3, Control_c, 8, 0, 0
1, 3, Control_c, 9, 0, 127
1, 3, Control_c, 10, 0, 0
1, 3, Control_c, 11, 0, 0
1, 3, Control_c, 12, 0, 0
1, 3, Control_c, 13, 0, 0
1, 3, Control_c, 14, 0, 0
1, 3, Control_c, 15, 0, 0
1, 4, Control_c, 0, 32, 0
1, 4, Control_c, 1, 32, 0
1, 4, Control_c, 2, 32, 0
1, 4, Control_c, 3, 32, 0
1, 4, Control_c, 4, 32, 0
1, 4, Control_c, 5, 32, 0
1, 4, Control_c, 6, 32, 0
1, 4, Control_c, 7, 32, 0
1, 4, Control_c, 8, 32, 0
1, 4, Control_c, 9, 32, 0
1, 4, Control_c, 10, 32, 0
1, 4, Control_c, 11, 32, 0
1, 4, Control_c, 12, 32, 0
1, 4, Control_c, 13, 32, 0
1, 4, Control_c, 14, 32, 0
1, 4, Control_c, 15, 32, 0
1, 5, Program_c, 0, 0
1, 5, Program_c, 1, 0
1, 5, Program_c, 2, 0
1, 5, Program_c, 3, 0
1, 5, Program_c, 4, 0
1, 5, Program_c, 5, 0
1, 5, Program_c, 6, 0
1, 5, Program_c, 7, 0
1, 5, Program_c, 8, 0
1, 5, Program_c, 9, 0
1, 5, Program_c, 10, 0
1, 5, Program_c, 11, 0
1, 5, Program_c, 12, 0
1, 5, Program_c, 13, 0
1, 5, Program_c, 14, 0
1, 5, Program_c, 15, 0
1, 6, Control_c, 0, 7, 100
1, 6, Control_c, 1, 7, 100
1, 6, Control_c, 2, 7, 100
1, 6, Control_c, 3, 7, 100
1, 6, Control_c, 4, 7, 100
1, 6, Control_c, 5, 7, 100
1, 6, Control_c, 6, 7, 100
1, 6, Control_c, 7, 7, 100
1, 6, Control_c, 8, 7, 100
1, 6, Control_c, 9, 7, 100
1, 6, Control_c, 10, 7, 100
1, 6, Control_c, 11, 7, 100
1, 6, Control_c, 12, 7, 100
1, 6, Control_c, 13, 7, 100
1, 6, Control_c, 14, 7, 100
1, 6, Control_c, 15, 7, 100
1, 117, Control_c, 0, 67, 15
1, 229, Control_c, 0, 67, 31
1, 341, Control_c, 0, 67, 46
1, 452, Control_c, 0, 67, 63
1, 564, Control_c, 0, 67, 77
1, 676, Control_c, 0, 67, 94
1, 787, Control_c, 0, 67, 108
1, 899, Control_c, 0, 67, 127
1, 1133, Note_on_c, 0, 65, 38
1, 1191, Note_off_c, 0, 65, 50
1, 1217, Note_on_c, 0, 66, 47
1, 1249, Note_off_c, 0, 66, 60
1, 1309, Note_on_c, 0, 65, 38
1, 1338, Note_off_c, 0, 65, 57
1, 1371, Note_on_c, 0, 67, 44
1, 1409, Note_off_c, 0, 67, 53
1, 1446, Note_on_c, 0, 68, 51
1, 1479, Note_off_c, 0, 68, 61
1, 1523, Note_on_c, 0, 69, 57
1, 1562, Note_off_c, 0, 69, 65
1, 1580, Note_on_c, 0, 68, 54
1, 1630, Note_off_c, 0, 68, 48
1, 1651, Note_on_c, 0, 70, 63
1, 1684, Note_off_c, 0, 70, 64
1, 1730, Note_on_c, 0, 71, 63
1, 1764, Note_off_c, 0, 71, 59
1, 1804, Note_on_c, 0, 72, 51
1, 1831, Note_off_c, 0, 72, 62
1, 1866, Note_on_c, 0, 71, 45
1, 1890, Note_off_c, 0, 71, 49
1, 1907, Note_on_c, 0, 73, 66
1, 1937, Note_off_c, 0, 73, 64
1, 1987, Note_on_c, 0, 74, 60
1, 2013, Note_off_c, 0, 74, 68
1, 2052, Note_on_c, 0, 75, 59
1, 2087, Note_off_c, 0, 75, 65
1, 2110, Note_on_c, 0, 74, 52
1, 2129, Note_off_c, 0, 74, 61
1, 2180, Note_on_c, 0, 76, 65
1, 2212, Note_off_c, 0, 76, 67
1, 2253, Note_on_c, 0, 77, 63
1, 2293, Note_off_c, 0, 77, 57
1, 2322, Note_on_c, 0, 78, 61
1, 2360, Note_off_c, 0, 78, 55
1, 2396, Note_on_c, 0, 77, 56
1, 2417, Note_on_c, 0, 53, 43
1, 2442, Note_off_c, 0, 77, 58
1, 2462, Note_on_c, 0, 59, 43
1, 2472, Note_on_c, 0, 79, 51
1, 2533, Note_on_c, 0, 62, 38
1, 2548, Control_c, 0, 64, 46
1, 2548, Control_c, 0, 67, 126
1, 2552, Note_off_c, 0, 79, 44
1, 2553, Note_on_c, 0, 80, 57
1, 2563, Control_c, 0, 64, 60
1, 2578, Control_c, 0, 64, 63
1, 2581, Note_on_c, 0, 68, 58
1, 2583, Note_off_c, 0, 53, 34
1, 2593, Control_c, 0, 64, 65
1, 2593, Control_c, 0, 67, 126
1, 2608, Control_c, 0, 64, 67
1, 2616, Note_off_c, 0, 80, 62
1, 2622, Control_c, 0, 64, 70
1, 2622, Control_c, 0, 67, 125
1, 2637, Control_c, 0, 64, 73
1, 2637, Control_c, 0, 67, 125
1, 2644, Note_on_c, 0, 81, 62
1, 2652, Control_c, 0, 64, 75
1, 2652, Control_c, 0, 67, 124
1, 2667, Control_c, 0, 64, 76
1, 2667, Control_c, 0, 67, 124
1, 2681, Control_c, 0, 64, 77
1, 2681, Control_c, 0, 67, 123
1, 2696, Control_c, 0, 64, 78
1, 2697, Note_off_c, 0, 81, 49
1, 2711, Control_c, 0, 64, 79
1, 2726, Control_c, 0, 64, 80
1, 2730, Note_off_c, 0, 59, 57
1, 2732, Note_on_c, 0, 80, 53
1, 2740, Control_c, 0, 64, 81
1, 2756, Control_c, 0, 64, 82
1, 2770, Note_off_c, 0, 80, 46
1, 2771, Control_c, 0, 64, 83
1, 2786, Control_c, 0, 64, 84
1, 2796, Note_on_c, 0, 82, 64
1, 2801, Control_c, 0, 64, 85
1, 2816, Control_c, 0, 64, 85
1, 2826, Note_off_c, 0, 82, 66
1, 2830, Control_c, 0, 64, 86
1, 2860, Control_c, 0, 64, 86
1, 2864, Note_on_c, 0, 83, 63
1, 2874, Control_c, 0, 64, 87
1, 2879, Note_off_c, 0, 68, 55
1, 2919, Note_off_c, 0, 83, 53
1, 2953, Note_on_c, 0, 84, 64
1, 2961, Note_off_c, 0, 62, 32
1, 3005, Note_off_c, 0, 84, 61
1, 3028, Note_on_c, 0, 53, 38
1, 3028, Note_on_c, 0, 83, 56
1, 3068, Note_on_c, 0, 60, 38
1, 3081, Note_off_c, 0, 83, 55
1, 3082, Note_on_c, 0, 86, 68
1, 3105, Control_c, 0, 64, 85
1, 3120, Control_c, 0, 64, 79
1, 3135, Control_c, 0, 64, 71
1, 3141, Note_on_c, 0, 63, 54
1, 3143, Note_off_c, 0, 86, 62
1, 3150, Control_c, 0, 64, 62
1, 3165, Control_c, 0, 64, 38
1, 3167, Note_on_c, 0, 84, 60
1, 3179, Control_c, 0, 64, 41
1, 3194, Control_c, 0, 64, 53
1, 3209, Control_c, 0, 64, 62
1, 3224, Note_off_c, 0, 84, 54
1, 3224, Control_c, 0, 64, 65
1, 3236, Note_on_c, 0, 85, 66
1, 3239, Control_c, 0, 64, 67
1, 3253, Control_c, 0, 64, 69
1, 3261, Note_off_c, 0, 85, 67
1, 3268, Control_c, 0, 64, 71
1, 3283, Control_c, 0, 64, 73
1, 3294, Note_on_c, 0, 84, 71
1, 3297, Control_c, 0, 64, 75
1, 3312, Control_c, 0, 64, 77
1, 3327, Control_c, 0, 64, 78
1, 3342, Control_c, 0, 64, 78
1, 3357, Control_c, 0, 64, 79
1, 3362, Note_off_c, 0, 84, 63
1, 3363, Note_on_c, 0, 86, 75
1, 3371, Control_c, 0, 64, 80
1, 3386, Control_c, 0, 64, 80
1, 3386, Control_c, 0, 67, 123
1, 3401, Control_c, 0, 64, 81
1, 3401, Control_c, 0, 67, 122
1, 3416, Control_c, 0, 64, 81
1, 3429, Note_on_c, 0, 87, 74
1, 3431, Control_c, 0, 64, 82
1, 3431, Control_c, 0, 67, 122
1, 3435, Note_on_c, 0, 67, 62
1, 3445, Control_c, 0, 64, 82
1, 3445, Control_c, 0, 67, 120
1, 3459, Note_off_c, 0, 86, 61
1, 3460, Control_c, 0, 64, 83
1, 3460, Control_c, 0, 67, 117
1, 3475, Control_c, 0, 64, 83
1, 3475, Control_c, 0, 67, 113
1, 3487, Note_off_c, 0, 87, 62
1, 3490, Control_c, 0, 67, 107
1, 3498, Note_on_c, 0, 89, 74
1, 3505, Control_c, 0, 64, 84
1, 3505, Control_c, 0, 67, 101
1, 3520, Control_c, 0, 64, 84
1, 3520, Control_c, 0, 67, 94
1, 3529, Note_off_c, 0, 89, 62
1, 3535, Control_c, 0, 67, 88
1, 3550, Control_c, 0, 64, 85
1, 3550, Control_c, 0, 67, 85
1, 3565, Control_c, 0, 64, 85
1, 3565, Control_c, 0, 67, 83
1, 3579, Control_c, 0, 64, 86
1, 3579, Control_c, 0, 67, 82
1, 3580, Note_on_c, 0, 87, 63
1, 3589, Note_off_c, 0, 63, 18
1, 3594, Control_c, 0, 64, 86
1, 3594, Control_c, 0, 67, 82
1, 3603, Note_off_c, 0, 87, 58
1, 3609, Control_c, 0, 64, 87
1, 3609, Control_c, 0, 67, 81
1, 3624, Control_c, 0, 64, 87
1, 3624, Control_c, 0, 67, 80
1, 3639, Control_c, 0, 64, 88
1, 3639, Control_c, 0, 67, 79
1, 3639, Note_on_c, 0, 90, 84
1, 3660, Control_c, 0, 64, 88
1, 3660, Control_c, 0, 67, 79
1, 3675, Control_c, 0, 64, 89
1, 3675, Control_c, 0, 67, 78
1, 3677, Note_off_c, 0, 90, 61
1, 3690, Control_c, 0, 67, 78
1, 3732, Note_on_c, 0, 91, 71
1, 3735, Control_c, 0, 64, 89
1, 3735, Control_c, 0, 67, 77
1, 3735, Note_off_c, 0, 60, 58
1, 3738, Note_on_c, 0, 63, 61
1, 3759, Note_off_c, 0, 91, 63
1, 3794, Control_c, 0, 67, 77
1, 3799, Note_on_c, 0, 92, 77
1, 3809, Control_c, 0, 67, 76
1, 3824, Control_c, 0, 67, 76
1, 3839, Note_off_c, 0, 92, 62
1, 3839, Control_c, 0, 67, 75
1, 3854, Control_c, 0, 67, 74
1, 3863, Note_on_c, 0, 91, 72
1, 3869, Control_c, 0, 67, 72
1, 3884, Control_c, 0, 67, 70
1, 3890, Note_off_c, 0, 91, 62
1, 3899, Control_c, 0, 67, 68
1, 3913, Note_on_c, 0, 95, 78
1, 3913, Control_c, 0, 67, 67
1, 3928, Control_c, 0, 67, 66
1, 3943, Control_c, 0, 67, 65
1, 3946, Note_off_c, 0, 95, 62
1, 3948, Note_off_c, 0, 53, 1
1, 3958, Control_c, 0, 67, 64
1, 3973, Control_c, 0, 67, 63
1, 3986, Note_on_c, 0, 60, 54
1, 4009, Note_on_c, 0, 96, 74
1, 4065, Note_off_c, 0, 96, 59
1, 4086, Note_on_c, 0, 97, 76
1, 4135, Control_c, 0, 67, 64
1, 4141, Note_off_c, 0, 97, 64
1, 4161, Note_on_c, 0, 96, 75
1, 4165, Control_c, 0, 67, 65
1, 4180, Control_c, 0, 67, 66
1, 4194, Control_c, 0, 67, 66
1, 4209, Note_off_c, 0, 67, 39
1, 4214, Note_off_c, 0, 96, 60
1, 4215, Note_off_c, 0, 63, 33
1, 4220, Note_on_c, 0, 98, 87
1, 4224, Control_c, 0, 67, 67
1, 4238, Note_off_c, 0, 60, 21
1, 4268, Control_c, 0, 67, 67
1, 4277, Note_off_c, 0, 98, 65
1, 4283, Control_c, 0, 67, 68
1, 4289, Note_on_c, 0, 99, 85
1, 4298, Control_c, 0, 67, 68
1, 4313, Control_c, 0, 64, 89
1, 4328, Control_c, 0, 64, 87
1, 4328, Control_c, 0, 67, 69
1, 4343, Control_c, 0, 64, 85
1, 4355, Note_off_c, 0, 99, 67
1, 4358, Control_c, 0, 64, 80
1, 4358, Note_on_c, 0, 98, 82
1, 4373, Control_c, 0, 64, 76
1, 4373, Control_c, 0, 67, 69
1, 4387, Control_c, 0, 64, 70
1, 4409, Control_c, 0, 64, 63
1, 4409, Control_c, 0, 67, 70
1, 4424, Control_c, 0, 64, 39
1, 4424, Control_c, 0, 67, 70
1, 4430, Note_on_c, 0, 99, 79
1, 4438, Note_off_c, 0, 98, 60
1, 4439, Control_c, 0, 64, 0
1, 4454, Control_c, 0, 67, 71
1, 4483, Control_c, 0, 67, 71
1, 4486, Note_off_c, 0, 99, 67
1, 4498, Control_c, 0, 67, 72
1, 4510, Note_on_c, 0, 97, 74
1, 4513, Control_c, 0, 67, 72
1, 4528, Control_c, 0, 67, 73
1, 4542, Control_c, 0, 67, 74
1, 4557, Control_c, 0, 67, 76
1, 4560, Note_off_c, 0, 97, 65
1, 4573, Control_c, 0, 67, 79
1, 4575, Note_on_c, 0, 96, 73
1, 4588, Control_c, 0, 67, 82
1, 4603, Control_c, 0, 67, 84
1, 4605, Note_off_c, 0, 96, 58
1, 4617, Control_c, 0, 67, 86
1, 4632, Control_c, 0, 67, 88
1, 4647, Note_on_c, 0, 95, 76
1, 4647, Control_c, 0, 67, 92
1, 4662, Control_c, 0, 67, 96
1, 4677, Control_c, 0, 67, 99
1, 4691, Control_c, 0, 67, 102
1, 4692, Note_off_c, 0, 95, 62
1, 4706, Control_c, 0, 67, 104
1, 4707, Note_on_c, 0, 96, 66
1, 4721, Control_c, 0, 67, 105
1, 4736, Control_c, 0, 67, 105
1, 4751, Control_c, 0, 67, 106
1, 4756, Note_off_c, 0, 96, 64
1, 4766, Control_c, 0, 67, 107
1, 4780, Note_on_c, 0, 94, 70
1, 4781, Control_c, 0, 67, 109
1, 4796, Control_c, 0, 67, 111
1, 4808, Note_off_c, 0, 94, 67
1, 4811, Control_c, 0, 67, 111
1, 4825, Control_c, 0, 67, 112
1, 4840, Control_c, 0, 67, 113
1, 4850, Note_on_c, 0, 93, 64
1, 4855, Control_c, 0, 67, 113
1, 4870, Control_c, 0, 67, 114
1, 4885, Control_c, 0, 67, 115
1, 4899, Control_c, 0, 67, 116
1, 4906, Note_off_c, 0, 93, 52
1, 4913, Note_on_c, 0, 92, 62
1, 4914, Control_c, 0, 67, 117
1, 4929, Control_c, 0, 67, 118
1, 4943, Control_c, 0, 67, 119
1, 4950, Note_off_c, 0, 92, 62
1, 4958, Control_c, 0, 67, 121
1, 4973, Control_c, 0, 67, 122
1, 4988, Control_c, 0, 67, 122
1, 4991, Note_on_c, 0, 93, 67
1, 5003, Control_c, 0, 67, 123
1, 5017, Control_c, 0, 67, 123
1, 5019, Note_off_c, 0, 93, 63
1, 5047, Control_c, 0, 67, 124
1, 5062, Control_c, 0, 67, 124
1, 5062, Note_on_c, 0, 91, 64
1, 5076, Control_c, 0, 67, 125
1, 5091, Control_c, 0, 67, 125
1, 5099, Note_off_c, 0, 91, 54
1, 5106, Control_c, 0, 67, 126
1, 5121, Control_c, 0, 67, 126
1, 5131, Note_on_c, 0, 90, 55
1, 5143, Control_c, 0, 67, 127
1, 5158, Control_c, 0, 67, 127
1, 5176, Note_off_c, 0, 90, 65
1, 5197, Note_on_c, 0, 89, 63
1, 5239, Note_off_c, 0, 89, 59
1, 5276, Note_on_c, 0, 90, 56
1, 5296, Note_off_c, 0, 90, 61
1, 5323, Note_on_c, 0, 88, 55
1, 5356, Note_off_c, 0, 88, 59
1, 5384, Note_on_c, 0, 87, 61
1, 5423, Note_off_c, 0, 87, 57
1, 5450, Note_on_c, 0, 86, 66
1, 5484, Note_off_c, 0, 86, 62
1, 5519, Note_on_c, 0, 87, 73
1, 5568, Note_off_c, 0, 87, 59
1, 5574, Control_c, 0, 67, 127
1, 5582, Note_on_c, 0, 85, 66
1, 5619, Control_c, 0, 67, 126
1, 5626, Note_off_c, 0, 85, 63
1, 5662, Note_on_c, 0, 84, 65
1, 5663, Control_c, 0, 67, 126
1, 5692, Control_c, 0, 67, 125
1, 5693, Note_off_c, 0, 84, 60
1, 5724, Note_on_c, 0, 83, 62
1, 5737, Control_c, 0, 67, 125
1, 5749, Note_on_c, 0, 53, 47
1, 5751, Control_c, 0, 67, 124
1, 5768, Note_off_c, 0, 83, 50
1, 5780, Control_c, 0, 67, 124
1, 5793, Note_on_c, 0, 84, 62
1, 5813, Note_on_c, 0, 57, 31
1, 5838, Note_on_c, 0, 60, 38
1, 5839, Control_c, 0, 67, 123
1, 5854, Note_off_c, 0, 84, 54
1, 5891, Control_c, 0, 64, 27
1, 5896, Note_on_c, 0, 82, 55
1, 5906, Control_c, 0, 64, 49
1, 5914, Note_on_c, 0, 63, 47
1, 5921, Control_c, 0, 64, 57
1, 5936, Control_c, 0, 64, 62
1, 5936, Control_c, 0, 67, 123
1, 5951, Control_c, 0, 64, 65
1, 5951, Control_c, 0, 67, 122
1, 5952, Note_off_c, 0, 82, 64
1, 5965, Control_c, 0, 64, 67
1, 5980, Control_c, 0, 64, 69
1, 5995, Note_on_c, 0, 81, 56
1, 5995, Control_c, 0, 64, 73
1, 6010, Control_c, 0, 64, 77
1, 6010, Control_c, 0, 67, 122
1, 6025, Control_c, 0, 64, 79
1, 6027, Note_on_c, 0, 66, 69
1, 6039, Control_c, 0, 64, 81
1, 6054, Control_c, 0, 64, 83
1, 6059, Note_off_c, 0, 53, 26
1, 6069, Control_c, 0, 64, 84
1, 6069, Control_c, 0, 67, 121
1, 6075, Note_off_c, 0, 81, 48
1, 6084, Control_c, 0, 64, 86
1, 6090, Note_on_c, 0, 80, 55
1, 6098, Control_c, 0, 64, 87
1, 6113, Control_c, 0, 64, 87
1, 6121, Note_off_c, 0, 80, 50
1, 6128, Control_c, 0, 64, 88
1, 6128, Control_c, 0, 67, 121
1, 6131, Note_off_c, 0, 63, 35
1, 6143, Control_c, 0, 64, 88
1, 6150, Note_on_c, 0, 81, 60
1, 6158, Note_off_c, 0, 60, 29
1, 6158, Control_c, 0, 64, 89
1, 6158, Control_c, 0, 67, 120
1, 6174, Control_c, 0, 67, 120
1, 6188, Note_off_c, 0, 81, 59
1, 6205, Note_off_c, 0, 57, 39
1, 6218, Control_c, 0, 67, 119
1, 6230, Note_on_c, 0, 79, 63
1, 6248, Control_c, 0, 67, 119
1, 6263, Control_c, 0, 67, 118
1, 6268, Note_off_c, 0, 79, 53
1, 6277, Control_c, 0, 67, 118
1, 6292, Control_c, 0, 67, 117
1, 6299, Note_on_c, 0, 78, 64
1, 6328, Note_off_c, 0, 78, 57
1, 6368, Note_on_c, 0, 77, 63
1, 6382, Control_c, 0, 67, 117
1, 6389, Note_off_c, 0, 77, 61
1, 6409, Note_on_c, 0, 78, 69
1, 6470, Note_off_c, 0, 78, 62
1, 6471, Note_on_c, 0, 53, 36
1, 6486, Note_on_c, 0, 75, 75
1, 6528, Note_off_c, 0, 75, 63
1, 6529, Note_on_c, 0, 58, 32
1, 6558, Note_on_c, 0, 74, 68
1, 6575, Note_on_c, 0, 62, 67
1, 6589, Control_c, 0, 67, 117
1, 6592, Note_off_c, 0, 66, 40
1, 6611, Note_off_c, 0, 74, 61
1, 6639, Note_on_c, 0, 73, 62
1, 6671, Control_c, 0, 67, 118
1, 6680, Note_off_c, 0, 73, 56
1, 6692, Note_on_c, 0, 74, 71
1, 6701, Control_c, 0, 64, 88
1, 6701, Control_c, 0, 67, 118
1, 6715, Control_c, 0, 64, 88
1, 6715, Control_c, 0, 67, 119
1, 6730, Control_c, 0, 64, 87
1, 6730, Control_c, 0, 67, 119
1, 6734, Note_off_c, 0, 74, 61
1, 6745, Control_c, 0, 64, 87
1, 6760, Control_c, 0, 64, 85
1, 6760, Control_c, 0, 67, 120
1, 6764, Note_on_c, 0, 72, 65
1, 6775, Control_c, 0, 64, 83
1, 6789, Control_c, 0, 64, 80
1, 6789, Control_c, 0, 67, 120
1, 6804, Control_c, 0, 64, 76
1, 6804, Control_c, 0, 67, 121
1, 6819, Note_off_c, 0, 72, 44
1, 6819, Control_c, 0, 64, 72
1, 6834, Control_c, 0, 64, 68
1, 6836, Note_on_c, 0, 70, 69
1, 6838, Note_on_c, 0, 65, 63
1, 6848, Control_c, 0, 64, 63
1, 6860, Note_off_c, 0, 62, 51
1, 6863, Control_c, 0, 64, 54
1, 6877, Note_off_c, 0, 70, 61
1, 6878, Control_c, 0, 64, 45
1, 6893, Control_c, 0, 64, 40
1, 6893, Control_c, 0, 67, 121
1, 6908, Control_c, 0, 64, 39
1, 6915, Note_on_c, 0, 69, 60
1, 6922, Control_c, 0, 64, 38
1, 6937, Control_c, 0, 64, 34
1, 6951, Note_off_c, 0, 69, 65
1, 6952, Control_c, 0, 64, 24
1, 6968, Control_c, 0, 64, 0
1, 6980, Note_on_c, 0, 70, 72
1, 7046, Note_off_c, 0, 70, 63
1, 7052, Note_on_c, 0, 68, 70
1, 7057, Note_off_c, 0, 65, 56
1, 7085, Note_off_c, 0, 68, 65
1, 7087, Control_c, 0, 67, 122
1, 7116, Note_on_c, 0, 61, 53
1, 7121, Note_on_c, 0, 67, 68
1, 7127, Note_off_c, 0, 58, 38
1, 7163, Note_off_c, 0, 67, 56
1, 7192, Note_on_c, 0, 66, 64
1, 7237, Note_off_c, 0, 66, 61
1, 7258, Note_on_c, 0, 67, 66
1, 7264, Control_c, 0, 67, 121
1, 7278, Note_off_c, 0, 67, 65
1, 7316, Note_on_c, 0, 65, 61
1, 7340, Note_off_c, 0, 61, 49
1, 7345, Note_off_c, 0, 65, 67
1, 7346, Note_off_c, 0, 53, 51
1, 7378, Note_on_c, 0, 58, 45
1, 7394, Note_on_c, 0, 73, 67
1, 7416, Note_off_c, 0, 58, 55
1, 7464, Note_on_c, 0, 70, 66
1, 7466, Note_off_c, 0, 73, 57
1, 7532, Note_off_c, 0, 70, 62
1, 7543, Note_on_c, 0, 67, 60
1, 7580, Note_off_c, 0, 67, 61
1, 7619, Note_on_c, 0, 65, 53
1, 7621, Note_on_c, 0, 55, 33
1, 7639, Poly_aftertouch_c, 0, 53, 127
1, 7671, Control_c, 0, 67, 121
1, 7680, Note_on_c, 0, 58, 10
1, 7693, Note_off_c, 0, 65, 55
1, 7714, Note_on_c, 0, 61, 40
1, 7717, Note_on_c, 0, 64, 45
1, 7745, Control_c, 0, 67, 120
1, 7753, Note_off_c, 0, 58, 37
1, 7776, Control_c, 0, 67, 119
1, 7783, Note_off_c, 0, 61, 56
1, 7784, Poly_aftertouch_c, 0, 53, 0
1, 7795, Note_off_c, 0, 64, 58
1, 7799, Note_off_c, 0, 55, 44
1, 7806, Control_c, 0, 67, 119
1, 7835, Control_c, 0, 67, 118
1, 7850, Control_c, 0, 67, 117
1, 7909, Control_c, 0, 67, 117
1, 8042, Control_c, 0, 67, 117
1, 8087, Control_c, 0, 67, 118
1, 8287, Control_c, 0, 67, 118
1, 8301, Control_c, 0, 67, 119
1, 8331, Control_c, 0, 67, 119
1, 8361, Control_c, 0, 67, 120
1, 8406, Control_c, 0, 67, 121
1, 8421, Control_c, 0, 67, 122
1, 8435, Control_c, 0, 67, 123
1, 8450, Control_c, 0, 64, 20
1, 8450, Control_c, 0, 67, 123
1, 8465, Control_c, 0, 64, 26
1, 8465, Control_c, 0, 67, 124
1, 8480, Control_c, 0, 64, 28
1, 8480, Control_c, 0, 67, 124
1, 8494, Control_c, 0, 64, 29
1, 8539, Control_c, 0, 67, 125
1, 8554, Control_c, 0, 67, 125
1, 8584, Note_on_c, 0, 97, 72
1, 8584, Control_c, 0, 67, 126
1, 8586, Note_on_c, 0, 91, 54
1, 8599, Control_c, 0, 64, 28
1, 8605, Note_on_c, 0, 88, 46
1, 8612, Note_off_c, 0, 91, 51
1, 8614, Control_c, 0, 64, 26
1, 8629, Control_c, 0, 64, 23
1, 8629, Control_c, 0, 67, 126
1, 8644, Control_c, 0, 64, 20
1, 8659, Note_off_c, 0, 88, 59
1, 8662, Note_on_c, 0, 94, 69
1, 8662, Note_off_c, 0, 97, 61
1, 8713, Note_off_c, 0, 94, 63
1, 8728, Note_on_c, 0, 90, 60
1, 8730, Note_on_c, 0, 81, 33
1, 8732, Control_c, 0, 64, 18
1, 8743, Note_on_c, 0, 84, 21
1, 8750, Note_off_c, 0, 90, 57
1, 8754, Note_off_c, 0, 81, 45
1, 8770, Note_off_c, 0, 84, 33
1, 8780, Note_on_c, 0, 87, 73
1, 8791, Control_c, 0, 64, 20
1, 8801, Note_off_c, 0, 87, 69
1, 8806, Control_c, 0, 67, 127
1, 8836, Control_c, 0, 64, 18
1, 8836, Control_c, 0, 67, 127
1, 8851, Control_c, 0, 64, 13
1, 8853, Note_on_c, 0, 91, 75
1, 8855, Note_on_c, 0, 85, 54
1, 8863, Note_on_c, 0, 82, 55
1, 8865, Control_c, 0, 64, 0
1, 8874, Note_off_c, 0, 85, 63
1, 8897, Note_off_c, 0, 82, 57
1, 8923, Note_on_c, 0, 88, 71
1, 8924, Note_off_c, 0, 91, 57
1, 8974, Note_on_c, 0, 78, 59
1, 8976, Note_off_c, 0, 88, 60
1, 8979, Note_on_c, 0, 75, 47
1, 8987, Note_on_c, 0, 84, 71
1, 8993, Note_off_c, 0, 78, 64
1, 9001, Note_off_c, 0, 75, 59
1, 9015, Note_off_c, 0, 84, 66
1, 9041, Note_on_c, 0, 81, 71
1, 9051, Control_c, 0, 67, 127
1, 9065, Note_off_c, 0, 81, 65
1, 9080, Control_c, 0, 67, 126
1, 9105, Note_on_c, 0, 85, 64
1, 9109, Note_on_c, 0, 79, 49
1, 9112, Note_on_c, 0, 76, 57
1, 9124, Control_c, 0, 67, 126
1, 9130, Note_off_c, 0, 79, 54
1, 9139, Control_c, 0, 67, 125
1, 9155, Note_off_c, 0, 76, 59
1, 9159, Note_off_c, 0, 85, 63
1, 9163, Note_on_c, 0, 82, 65
1, 9214, Control_c, 0, 64, 18
1, 9214, Control_c, 0, 67, 126
1, 9222, Note_off_c, 0, 82, 63
1, 9222, Note_on_c, 0, 78, 68
1, 9228, Control_c, 0, 64, 30
1, 9228, Control_c, 0, 67, 126
1, 9243, Control_c, 0, 64, 37
1, 9243, Control_c, 0, 67, 127
1, 9253, Note_off_c, 0, 78, 59
1, 9258, Control_c, 0, 64, 40
1, 9273, Control_c, 0, 64, 41
1, 9273, Note_on_c, 0, 75, 76
1, 9296, Note_off_c, 0, 75, 71
1, 9303, Control_c, 0, 64, 40
1, 9317, Control_c, 0, 64, 39
1, 9332, Control_c, 0, 64, 38
1, 9347, Control_c, 0, 64, 36
1, 9350, Note_on_c, 0, 79, 76
1, 9361, Note_on_c, 0, 70, 57
1, 9362, Note_on_c, 0, 73, 45
1, 9363, Control_c, 0, 64, 33
1, 9377, Control_c, 0, 64, 28
1, 9386, Note_off_c, 0, 73, 52
1, 9392, Control_c, 0, 64, 21
1, 9397, Note_off_c, 0, 70, 53
1, 9407, Control_c, 0, 64, 10
1, 9415, Note_off_c, 0, 79, 60
1, 9419, Note_on_c, 0, 76, 71
1, 9422, Control_c, 0, 64, 0
1, 9466, Note_off_c, 0, 76, 64
1, 9467, Note_on_c, 0, 63, 52
1, 9480, Note_on_c, 0, 72, 70
1, 9483, Note_on_c, 0, 66, 34
1, 9500, Note_off_c, 0, 63, 65
1, 9506, Note_off_c, 0, 72, 67
1, 9510, Note_off_c, 0, 66, 49
1, 9538, Note_on_c, 0, 69, 70
1, 9565, Note_off_c, 0, 69, 70
1, 9604, Note_on_c, 0, 67, 50
1, 9607, Note_on_c, 0, 73, 63
1, 9619, Note_on_c, 0, 64, 53
1, 9625, Note_off_c, 0, 67, 57
1, 9668, Note_off_c, 0, 73, 61
1, 9670, Note_off_c, 0, 64, 61
1, 9687, Note_on_c, 0, 70, 64
1, 9732, Note_off_c, 0, 70, 63
1, 9744, Note_on_c, 0, 66, 61
1, 9747, Note_on_c, 0, 57, 45
1, 9763, Note_on_c, 0, 60, 40
1, 9783, Note_off_c, 0, 66, 64
1, 9789, Note_off_c, 0, 57, 47
1, 9792, Note_off_c, 0, 60, 56
1, 9827, Note_on_c, 0, 63, 60
1, 9847, Note_off_c, 0, 63, 62
1, 9932, Note_on_c, 0, 67, 48
1, 9935, Note_on_c, 0, 64, 41
1, 9937, Note_on_c, 0, 61, 39
1, 9938, Note_on_c, 0, 58, 34
1, 9981, Note_off_c, 0, 64, 61
1, 9984, Note_off_c, 0, 61, 49
1, 9995, Note_off_c, 0, 67, 62
1, 10010, Note_off_c, 0, 58, 50
1, 10170, Control_c, 0, 64, 47
1, 10185, Control_c, 0, 64, 56
1, 10200, Control_c, 0, 64, 61
1, 10215, Control_c, 0, 64, 63
1, 10229, Control_c, 0, 64, 65
1, 10244, Control_c, 0, 64, 66
1, 10259, Control_c, 0, 64, 69
1, 10274, Control_c, 0, 64, 72
1, 10288, Control_c, 0, 64, 75
1, 10303, Control_c, 0, 64, 79
1, 10318, Control_c, 0, 64, 81
1, 10331, Note_on_c, 0, 41, 50
1, 10333, Control_c, 0, 64, 83
1, 10348, Control_c, 0, 64, 85
1, 10362, Control_c, 0, 64, 87
1, 10364, Note_off_c, 0, 41, 59
1, 10385, Control_c, 0, 64, 88
1, 10400, Control_c, 0, 64, 90
1, 10415, Control_c, 0, 64, 92
1, 10430, Control_c, 0, 64, 93
1, 10444, Control_c, 0, 64, 93
1, 10459, Control_c, 0, 64, 94
1, 10474, Control_c, 0, 64, 94
1, 10474, Control_c, 0, 67, 126
1, 10488, Control_c, 0, 67, 124
1, 10503, Control_c, 0, 64, 95
1, 10503, Control_c, 0, 67, 122
1, 10518, Control_c, 0, 67, 119
1, 10533, Control_c, 0, 67, 117
1, 10548, Control_c, 0, 67, 115
1, 10562, Control_c, 0, 67, 113
1, 10577, Control_c, 0, 67, 111
1, 10592, Control_c, 0, 67, 110
1, 10607, Control_c, 0, 67, 108
1, 10622, Control_c, 0, 67, 106
1, 10631, Note_on_c, 0, 85, 66
1, 10636, Control_c, 0, 67, 105
1, 10651, Control_c, 0, 67, 104
1, 10659, Note_on_c, 0, 53, 31
1, 10661, Note_on_c, 0, 61, 41
1, 10662, Note_on_c, 0, 73, 44
1, 10666, Control_c, 0, 67, 103
1, 10679, Note_on_c, 0, 58, 38
1, 10681, Control_c, 0, 67, 102
1, 10682, Note_on_c, 0, 76, 17
1, 10688, Note_on_c, 0, 67, 17
1, 10695, Control_c, 0, 67, 101
1, 10710, Control_c, 0, 67, 99
1, 10719, Note_off_c, 0, 53, 39
1, 10719, Note_off_c, 0, 73, 45
1, 10725, Control_c, 0, 67, 98
1, 10731, Note_off_c, 0, 67, 48
1, 10735, Note_off_c, 0, 76, 42
1, 10740, Note_off_c, 0, 58, 45
1, 10740, Note_off_c, 0, 85, 62
1, 10740, Control_c, 0, 67, 97
1, 10746, Note_off_c, 0, 61, 53
1, 10755, Control_c, 0, 67, 97
1, 10770, Control_c, 0, 67, 96
1, 10784, Control_c, 0, 67, 96
1, 10799, Control_c, 0, 67, 95
1, 10814, Control_c, 0, 67, 95
1, 10820, Note_on_c, 0, 84, 79
1, 10829, Control_c, 0, 67, 94
1, 10836, Note_on_c, 0, 67, 46
1, 10838, Note_on_c, 0, 73, 58
1, 10838, Note_on_c, 0, 53, 55
1, 10844, Note_on_c, 0, 61, 41
1, 10850, Note_on_c, 0, 76, 54
1, 10859, Control_c, 0, 67, 94
1, 10861, Note_on_c, 0, 58, 46
1, 10873, Note_off_c, 0, 73, 50
1, 10881, Note_off_c, 0, 67, 48
1, 10886, Note_off_c, 0, 76, 52
1, 10890, Note_off_c, 0, 53, 54
1, 10897, Note_off_c, 0, 58, 57
1, 10899, Note_off_c, 0, 61, 56
1, 10918, Note_off_c, 0, 84, 61
1, 10933, Control_c, 0, 64, 94
1, 10933, Control_c, 0, 67, 94
1, 10963, Control_c, 0, 67, 95
1, 10972, Note_on_c, 0, 83, 79
1, 10978, Control_c, 0, 64, 94
1, 10978, Control_c, 0, 67, 95
1, 10981, Note_on_c, 0, 73, 62
1, 10981, Note_on_c, 0, 76, 64
1, 10993, Note_on_c, 0, 67, 42
1, 10993, Control_c, 0, 67, 96
1, 10998, Note_on_c, 0, 53, 42
1, 10999, Note_on_c, 0, 58, 54
1, 11002, Note_on_c, 0, 61, 45
1, 11008, Control_c, 0, 64, 93
1, 11008, Control_c, 0, 67, 97
1, 11011, Note_off_c, 0, 73, 52
1, 11019, Note_off_c, 0, 67, 54
1, 11023, Control_c, 0, 64, 92
1, 11023, Control_c, 0, 67, 98
1, 11025, Note_off_c, 0, 53, 57
1, 11025, Note_off_c, 0, 58, 59
1, 11034, Note_off_c, 0, 61, 55
1, 11038, Control_c, 0, 64, 90
1, 11038, Control_c, 0, 67, 98
1, 11038, Note_off_c, 0, 76, 64
1, 11052, Control_c, 0, 64, 88
1, 11052, Control_c, 0, 67, 99
1, 11064, Note_off_c, 0, 83, 57
1, 11067, Control_c, 0, 64, 84
1, 11067, Control_c, 0, 67, 99
1, 11082, Control_c, 0, 64, 81
1, 11082, Control_c, 0, 67, 100
1, 11097, Control_c, 0, 64, 77
1, 11097, Control_c, 0, 67, 100
1, 11111, Control_c, 0, 64, 74
1, 11111, Control_c, 0, 67, 101
1, 11115, Note_on_c, 0, 53, 57
1, 11115, Note_on_c, 0, 82, 69
1, 11117, Note_on_c, 0, 58, 54
1, 11117, Note_on_c, 0, 67, 48
1, 11117, Note_on_c, 0, 76, 52
1, 11133, Note_on_c, 0, 61, 56
1, 11133, Control_c, 0, 64, 70
1, 11133, Control_c, 0, 67, 101
1, 11144, Note_on_c, 0, 73, 41
1, 11148, Control_c, 0, 64, 65
1, 11148, Control_c, 0, 67, 102
1, 11160, Note_off_c, 0, 67, 48
1, 11163, Control_c, 0, 64, 57
1, 11163, Control_c, 0, 67, 102
1, 11167, Note_off_c, 0, 61, 58
1, 11169, Note_off_c, 0, 53, 56
1, 11172, Note_off_c, 0, 73, 52
1, 11172, Note_off_c, 0, 58, 58
1, 11178, Control_c, 0, 64, 42
1, 11178, Control_c, 0, 67, 103
1, 11184, Note_off_c, 0, 76, 64
1, 11193, Control_c, 0, 64, 10
1, 11193, Control_c, 0, 67, 104
1, 11206, Note_off_c, 0, 82, 62
1, 11208, Control_c, 0, 64, 0
1, 11208, Control_c, 0, 67, 104
1, 11223, Control_c, 0, 67, 105
1, 11238, Control_c, 0, 67, 106
1, 11252, Control_c, 0, 67, 108
1, 11263, Note_on_c, 0, 85, 66
1, 11267, Control_c, 0, 67, 109
1, 11282, Note_on_c, 0, 61, 36
1, 11282, Note_on_c, 0, 67, 35
1, 11282, Control_c, 0, 67, 111
1, 11283, Note_on_c, 0, 73, 30
1, 11287, Note_on_c, 0, 53, 44
1, 11292, Note_on_c, 0, 76, 31
1, 11296, Note_on_c, 0, 58, 34
1, 11297, Control_c, 0, 67, 112
1, 11311, Control_c, 0, 67, 113
1, 11319, Note_off_c, 0, 76, 52
1, 11320, Note_off_c, 0, 67, 47
1, 11323, Note_off_c, 0, 53, 51
1, 11324, Note_off_c, 0, 73, 47
1, 11326, Control_c, 0, 67, 116
1, 11329, Note_off_c, 0, 61, 48
1, 11331, Note_off_c, 0, 58, 54
1, 11341, Control_c, 0, 67, 118
1, 11356, Control_c, 0, 67, 119
1, 11360, Note_off_c, 0, 85, 51
1, 11371, Control_c, 0, 67, 120
1, 11385, Control_c, 0, 67, 120
1, 11417, Note_on_c, 0, 84, 54
1, 11427, Note_on_c, 0, 67, 37
1, 11431, Note_on_c, 0, 76, 20
1, 11435, Note_on_c, 0, 53, 16
1, 11452, Note_on_c, 0, 61, 17
1, 11458, Note_off_c, 0, 67, 49
1, 11467, Note_off_c, 0, 76, 41
1, 11478, Note_off_c, 0, 53, 51
1, 11490, Note_off_c, 0, 84, 49
1, 11497, Note_off_c, 0, 61, 42
1, 11509, Note_on_c, 0, 83, 47
1, 11592, Note_off_c, 0, 83, 57
1, 11628, Note_on_c, 0, 82, 25
1, 11729, Note_off_c, 0, 82, 37
1, 11956, Control_c, 0, 67, 120
1, 12089, Control_c, 0, 64, 20
1, 12104, Control_c, 0, 64, 29
1, 12119, Control_c, 0, 64, 32
1, 12133, Control_c, 0, 64, 33
1, 12163, Control_c, 0, 64, 34
1, 12178, Control_c, 0, 64, 35
1, 12193, Control_c, 0, 64, 36
1, 12207, Control_c, 0, 64, 39
1, 12222, Control_c, 0, 64, 42
1, 12237, Control_c, 0, 64, 43
1, 12251, Control_c, 0, 64, 45
1, 12266, Control_c, 0, 64, 48
1, 12281, Control_c, 0, 64, 52
1, 12296, Control_c, 0, 64, 54
1, 12296, Control_c, 0, 67, 119
1, 12311, Control_c, 0, 64, 56
1, 12311, Control_c, 0, 67, 119
1, 12340, Control_c, 0, 67, 119
1, 12355, Control_c, 0, 64, 55
1, 12370, Control_c, 0, 64, 55
1, 12385, Control_c, 0, 64, 54
1, 12406, Note_on_c, 0, 99, 60
1, 12415, Control_c, 0, 64, 54
1, 12415, Control_c, 0, 67, 119
1, 12421, Note_on_c, 0, 90, 50
1, 12430, Control_c, 0, 64, 52
1, 12430, Control_c, 0, 67, 118
1, 12431, Note_on_c, 0, 93, 18
1, 12445, Control_c, 0, 64, 50
1, 12445, Control_c, 0, 67, 117
1, 12459, Control_c, 0, 64, 47
1, 12459, Control_c, 0, 67, 117
1, 12465, Note_on_c, 0, 96, 72
1, 12468, Note_off_c, 0, 99, 64
1, 12474, Note_off_c, 0, 93, 29
1, 12474, Control_c, 0, 64, 43
1, 12474, Control_c, 0, 67, 116
1, 12487, Note_off_c, 0, 90, 56
1, 12489, Control_c, 0, 64, 37
1, 12504, Control_c, 0, 64, 32
1, 12504, Control_c, 0, 67, 116
1, 12519, Control_c, 0, 64, 27
1, 12519, Control_c, 0, 67, 115
1, 12533, Control_c, 0, 64, 25
1, 12543, Note_on_c, 0, 92, 76
1, 12545, Note_on_c, 0, 86, 52
1, 12552, Note_off_c, 0, 96, 63
1, 12567, Note_off_c, 0, 86, 57
1, 12579, Control_c, 0, 64, 26
1, 12583, Note_off_c, 0, 92, 55
1, 12594, Control_c, 0, 64, 28
1, 12599, Note_on_c, 0, 89, 73
1, 12609, Control_c, 0, 64, 29
1, 12609, Control_c, 0, 67, 116
1, 12624, Control_c, 0, 67, 116
1, 12645, Note_off_c, 0, 89, 66
1, 12676, Note_on_c, 0, 87, 64
1, 12677, Note_on_c, 0, 93, 78
1, 12692, Note_off_c, 0, 87, 64
1, 12698, Note_on_c, 0, 84, 58
1, 12704, Control_c, 0, 64, 28
1, 12734, Control_c, 0, 64, 27
1, 12738, Note_on_c, 0, 90, 73
1, 12739, Note_off_c, 0, 84, 57
1, 12746, Note_off_c, 0, 93, 61
1, 12749, Control_c, 0, 64, 26
1, 12764, Control_c, 0, 64, 24
1, 12764, Control_c, 0, 67, 115
1, 12779, Control_c, 0, 64, 18
1, 12779, Control_c, 0, 67, 115
1, 12794, Control_c, 0, 64, 0
1, 12801, Note_on_c, 0, 77, 38
1, 12803, Note_off_c, 0, 90, 63
1, 12807, Note_on_c, 0, 86, 69
1, 12808, Note_on_c, 0, 80, 60
1, 12808, Control_c, 0, 67, 114
1, 12822, Note_off_c, 0, 77, 51
1, 12827, Note_off_c, 0, 80, 64
1, 12838, Control_c, 0, 67, 113
1, 12844, Note_off_c, 0, 86, 59
1, 12850, Note_on_c, 0, 83, 71
1, 12885, Note_off_c, 0, 83, 59
1, 12897, Control_c, 0, 67, 113
1, 12918, Note_on_c, 0, 87, 75
1, 12929, Note_on_c, 0, 81, 49
1, 12933, Note_on_c, 0, 78, 62
1, 12952, Note_off_c, 0, 81, 50
1, 12981, Note_off_c, 0, 78, 55
1, 12989, Note_on_c, 0, 84, 74
1, 12994, Note_off_c, 0, 87, 62
1, 13001, Control_c, 0, 67, 112
1, 13050, Note_on_c, 0, 80, 74
1, 13050, Note_off_c, 0, 84, 64
1, 13060, Note_on_c, 0, 74, 50
1, 13080, Note_off_c, 0, 74, 61
1, 13089, Control_c, 0, 67, 113
1, 13092, Note_off_c, 0, 80, 56
1, 13108, Note_on_c, 0, 77, 68
1, 13119, Control_c, 0, 67, 113
1, 13136, Note_off_c, 0, 77, 63
1, 13148, Control_c, 0, 67, 114
1, 13184, Note_on_c, 0, 81, 75
1, 13189, Note_on_c, 0, 75, 46
1, 13196, Note_on_c, 0, 72, 62
1, 13211, Note_off_c, 0, 75, 49
1, 13234, Note_off_c, 0, 72, 60
1, 13238, Control_c, 0, 67, 113
1, 13246, Note_on_c, 0, 78, 71
1, 13251, Note_off_c, 0, 81, 60
1, 13282, Control_c, 0, 67, 113
1, 13309, Note_off_c, 0, 78, 63
1, 13315, Note_on_c, 0, 74, 66
1, 13321, Note_on_c, 0, 65, 35
1, 13342, Control_c, 0, 67, 112
1, 13351, Note_off_c, 0, 65, 45
1, 13354, Note_off_c, 0, 74, 61
1, 13363, Note_on_c, 0, 71, 69
1, 13402, Note_off_c, 0, 71, 60
1, 13441, Note_on_c, 0, 75, 68
1, 13454, Control_c, 0, 67, 112
1, 13455, Note_on_c, 0, 66, 63
1, 13484, Control_c, 0, 67, 111
1, 13493, Note_off_c, 0, 66, 62
1, 13506, Note_off_c, 0, 75, 62
1, 13515, Note_on_c, 0, 72, 65
1, 13563, Note_off_c, 0, 72, 64
1, 13572, Note_on_c, 0, 68, 55
1, 13581, Note_on_c, 0, 62, 42
1, 13581, Note_on_c, 0, 59, 21
1, 13602, Control_c, 0, 67, 111
1, 13607, Note_off_c, 0, 68, 55
1, 13613, Note_off_c, 0, 62, 52
1, 13616, Note_off_c, 0, 59, 51
1, 13633, Note_on_c, 0, 65, 56
1, 13655, Note_off_c, 0, 65, 63
1, 13718, Note_on_c, 0, 69, 56
1, 13726, Note_on_c, 0, 60, 46
1, 13727, Note_on_c, 0, 63, 44
1, 13732, Note_on_c, 0, 66, 35
1, 13780, Note_off_c, 0, 66, 44
1, 13781, Note_off_c, 0, 63, 50
1, 13792, Note_off_c, 0, 69, 48
1, 13801, Note_off_c, 0, 60, 59
1, 13854, Control_c, 0, 64, 48
1, 13854, Control_c, 0, 67, 110
1, 13869, Control_c, 0, 64, 58
1, 13884, Control_c, 0, 64, 62
1, 13899, Control_c, 0, 64, 63
1, 13913, Control_c, 0, 64, 64
1, 13928, Control_c, 0, 64, 65
1, 13943, Control_c, 0, 64, 67
1, 13958, Control_c, 0, 64, 68
1, 13973, Control_c, 0, 64, 70
1, 13987, Control_c, 0, 64, 71
1, 14002, Control_c, 0, 64, 73
1, 14017, Control_c, 0, 64, 75
1, 14031, Control_c, 0, 64, 76
1, 14046, Control_c, 0, 64, 78
1, 14061, Control_c, 0, 64, 79
1, 14076, Control_c, 0, 64, 81
1, 14091, Control_c, 0, 64, 82
1, 14105, Control_c, 0, 64, 83
1, 14117, Note_on_c, 0, 41, 51
1, 14128, Control_c, 0, 64, 85
1, 14143, Control_c, 0, 64, 85
1, 14156, Note_off_c, 0, 41, 63
1, 14159, Control_c, 0, 64, 86
1, 14174, Control_c, 0, 64, 87
1, 14189, Control_c, 0, 64, 88
1, 14203, Control_c, 0, 64, 89
1, 14218, Control_c, 0, 64, 90
1, 14233, Control_c, 0, 64, 91
1, 14262, Control_c, 0, 64, 91
1, 14262, Control_c, 0, 67, 111
1, 14307, Control_c, 0, 64, 92
1, 14424, Note_on_c, 0, 90, 64
1, 14425, Control_c, 0, 67, 110
1, 14437, Note_on_c, 0, 69, 41
1, 14439, Note_on_c, 0, 60, 40
1, 14446, Note_on_c, 0, 78, 46
1, 14456, Note_on_c, 0, 81, 26
1, 14459, Note_on_c, 0, 63, 23
1, 14487, Note_off_c, 0, 69, 45
1, 14497, Note_off_c, 0, 60, 47
1, 14498, Note_off_c, 0, 78, 42
1, 14499, Control_c, 0, 67, 110
1, 14511, Note_off_c, 0, 63, 46
1, 14515, Note_off_c, 0, 81, 37
1, 14524, Note_off_c, 0, 90, 61
1, 14603, Control_c, 0, 64, 92
1, 14607, Note_on_c, 0, 89, 75
1, 14618, Control_c, 0, 67, 109
1, 14619, Note_on_c, 0, 78, 56
1, 14624, Note_on_c, 0, 60, 49
1, 14624, Note_on_c, 0, 69, 44
1, 14628, Note_on_c, 0, 63, 45
1, 14633, Control_c, 0, 64, 93
1, 14642, Note_on_c, 0, 81, 42
1, 14648, Control_c, 0, 67, 109
1, 14649, Note_off_c, 0, 78, 51
1, 14666, Note_off_c, 0, 69, 52
1, 14666, Note_off_c, 0, 63, 47
1, 14669, Note_off_c, 0, 60, 59
1, 14671, Note_off_c, 0, 81, 50
1, 14684, Note_off_c, 0, 89, 59
1, 14692, Control_c, 0, 67, 108
1, 14758, Note_on_c, 0, 78, 71
1, 14759, Note_on_c, 0, 88, 79
1, 14765, Note_on_c, 0, 81, 67
1, 14766, Control_c, 0, 67, 109
1, 14774, Note_on_c, 0, 60, 56
1, 14776, Note_on_c, 0, 63, 50
1, 14781, Control_c, 0, 67, 109
1, 14786, Note_on_c, 0, 69, 40
1, 14796, Control_c, 0, 67, 110
1, 14797, Note_off_c, 0, 78, 58
1, 14810, Control_c, 0, 67, 111
1, 14814, Note_off_c, 0, 69, 56
1, 14816, Note_off_c, 0, 63, 55
1, 14818, Note_off_c, 0, 60, 59
1, 14819, Note_off_c, 0, 81, 59
1, 14825, Control_c, 0, 67, 112
1, 14838, Note_off_c, 0, 88, 62
1, 14840, Control_c, 0, 67, 113
1, 14854, Control_c, 0, 64, 92
1, 14854, Control_c, 0, 67, 113
1, 14869, Control_c, 0, 64, 91
1, 14869, Control_c, 0, 67, 114
1, 14892, Control_c, 0, 64, 89
1, 14892, Control_c, 0, 67, 115
1, 14907, Control_c, 0, 64, 87
1, 14907, Control_c, 0, 67, 115
1, 14910, Note_on_c, 0, 87, 70
1, 14911, Note_on_c, 0, 81, 68
1, 14922, Control_c, 0, 64, 84
1, 14923, Note_on_c, 0, 78, 49
1, 14926, Note_on_c, 0, 69, 46
1, 14936, Control_c, 0, 64, 79
1, 14936, Control_c, 0, 67, 116
1, 14946, Note_on_c, 0, 60, 41
1, 14946, Note_on_c, 0, 63, 42
1, 14950, Note_off_c, 0, 78, 52
1, 14952, Control_c, 0, 64, 73
1, 14964, Note_off_c, 0, 69, 49
1, 14967, Control_c, 0, 64, 67
1, 14967, Note_off_c, 0, 60, 59
1, 14973, Note_off_c, 0, 63, 55
1, 14982, Control_c, 0, 64, 58
1, 14982, Control_c, 0, 67, 117
1, 14983, Note_off_c, 0, 81, 58
1, 14988, Note_off_c, 0, 87, 59
1, 14996, Control_c, 0, 64, 26
1, 15011, Control_c, 0, 64, 0
1, 15055, Note_on_c, 0, 90, 69
1, 15059, Note_on_c, 0, 81, 53
1, 15068, Note_on_c, 0, 60, 39
1, 15073, Note_on_c, 0, 78, 37
1, 15080, Note_on_c, 0, 63, 42
1, 15086, Note_on_c, 0, 69, 33
1, 15100, Control_c, 0, 67, 116
1, 15105, Note_off_c, 0, 78, 51
1, 15107, Note_off_c, 0, 81, 57
1, 15109, Note_off_c, 0, 60, 48
1, 15116, Note_off_c, 0, 63, 50
1, 15116, Note_off_c, 0, 69, 53
1, 15126, Note_off_c, 0, 90, 57
1, 15130, Control_c, 0, 67, 116
1, 15145, Control_c, 0, 67, 115
1, 15189, Control_c, 0, 67, 115
1, 15200, Note_on_c, 0, 89, 51
1, 15217, Note_on_c, 0, 60, 44
1, 15220, Note_on_c, 0, 78, 14
1, 15222, Note_on_c, 0, 69, 31
1, 15239, Note_off_c, 0, 78, 35
1, 15249, Note_off_c, 0, 89, 44
1, 15250, Note_off_c, 0, 60, 51
1, 15258, Note_off_c, 0, 69, 50
1, 15263, Control_c, 0, 67, 114
1, 15277, Note_on_c, 0, 88, 57
1, 15307, Poly_aftertouch_c, 0, 63, 0
1, 15354, Note_off_c, 0, 88, 47
1, 15373, Note_on_c, 0, 87, 38
1, 15438, Note_off_c, 0, 87, 37
1, 15500, Control_c, 0, 67, 115
1, 15574, Control_c, 0, 67, 115
1, 15589, Control_c, 0, 67, 116
1, 15603, Control_c, 0, 67, 116
1, 15618, Control_c, 0, 67, 117
1, 15655, Control_c, 0, 67, 117
1, 15670, Control_c, 0, 67, 118
1, 15685, Control_c, 0, 67, 119
1, 15700, Control_c, 0, 67, 120
1, 15715, Control_c, 0, 67, 124
1, 15730, Control_c, 0, 67, 127
1, 15797, Note_on_c, 0, 87, 60
1, 15825, Note_on_c, 0, 78, 35
1, 15827, Note_on_c, 0, 75, 30
1, 15834, Note_on_c, 0, 60, 35
1, 15836, Note_on_c, 0, 69, 32
1, 15843, Note_on_c, 0, 63, 25
1, 15871, Note_off_c, 0, 78, 48
1, 15882, Note_off_c, 0, 75, 49
1, 15885, Note_off_c, 0, 69, 49
1, 15885, Note_off_c, 0, 87, 61
1, 15894, Note_off_c, 0, 60, 54
1, 15895, Note_off_c, 0, 63, 45
1, 15973, Note_on_c, 0, 86, 71
1, 15989, Note_on_c, 0, 75, 56
1, 15989, Note_on_c, 0, 78, 54
1, 15994, Note_on_c, 0, 69, 48
1, 16007, Note_on_c, 0, 60, 42
1, 16015, Note_off_c, 0, 75, 60
1, 16028, Note_off_c, 0, 78, 55
1, 16030, Note_on_c, 0, 63, 18
1, 16033, Note_off_c, 0, 69, 58
1, 16042, Note_off_c, 0, 60, 53
1, 16046, Note_off_c, 0, 86, 61
1, 16055, Note_off_c, 0, 63, 50
1, 16117, Note_on_c, 0, 85, 83
1, 16123, Note_on_c, 0, 75, 64
1, 16132, Note_on_c, 0, 69, 54
1, 16132, Note_on_c, 0, 78, 64
1, 16149, Note_on_c, 0, 60, 40
1, 16156, Note_off_c, 0, 75, 60
1, 16159, Note_on_c, 0, 63, 20
1, 16159, Note_off_c, 0, 78, 59
1, 16170, Note_off_c, 0, 69, 59
1, 16176, Note_off_c, 0, 60, 54
1, 16196, Note_off_c, 0, 63, 47
1, 16196, Note_off_c, 0, 85, 62
1, 16258, Note_on_c, 0, 84, 73
1, 16265, Note_on_c, 0, 78, 61
1, 16267, Note_on_c, 0, 60, 49
1, 16269, Note_on_c, 0, 75, 53
1, 16270, Note_on_c, 0, 69, 52
1, 16290, Note_off_c, 0, 75, 60
1, 16301, Note_on_c, 0, 63, 32
1, 16302, Note_off_c, 0, 69, 56
1, 16306, Note_off_c, 0, 78, 62
1, 16308, Note_off_c, 0, 60, 50
1, 16322, Note_off_c, 0, 84, 63
1, 16334, Note_off_c, 0, 63, 50
1, 16411, Note_on_c, 0, 87, 68
1, 16421, Note_on_c, 0, 69, 50
1, 16425, Note_on_c, 0, 60, 46
1, 16426, Note_on_c, 0, 78, 55
1, 16439, Note_on_c, 0, 63, 44
1, 16440, Note_on_c, 0, 75, 8
1, 16448, Note_off_c, 0, 78, 59
1, 16451, Note_off_c, 0, 69, 57
1, 16451, Note_off_c, 0, 87, 57
1, 16455, Note_off_c, 0, 60, 53
1, 16468, Note_off_c, 0, 63, 55
1, 16486, Note_off_c, 0, 75, 27
1, 16551, Note_on_c, 0, 60, 49
1, 16552, Note_on_c, 0, 78, 51
1, 16552, Note_on_c, 0, 69, 46
1, 16555, Note_on_c, 0, 86, 58
1, 16582, Note_off_c, 0, 78, 51
1, 16582, Note_off_c, 0, 86, 51
1, 16592, Note_off_c, 0, 69, 49
1, 16594, Note_off_c, 0, 60, 47
1, 16626, Note_on_c, 0, 85, 59
1, 16633, Poly_aftertouch_c, 0, 63, 0
1, 16639, Poly_aftertouch_c, 0, 75, 0
1, 16653, Note_off_c, 0, 85, 68
1, 16704, Note_on_c, 0, 84, 56
1, 16732, Note_off_c, 0, 84, 58
1, 17012, Note_on_c, 0, 84, 53
1, 17030, Note_on_c, 0, 66, 31
1, 17031, Note_on_c, 0, 69, 39
1, 17035, Note_on_c, 0, 63, 31
1, 17038, Note_on_c, 0, 72, 20
1, 17047, Note_off_c, 0, 84, 58
1, 17069, Note_off_c, 0, 66, 50
1, 17071, Note_off_c, 0, 69, 51
1, 17071, Note_off_c, 0, 72, 44
1, 17077, Note_off_c, 0, 63, 49
1, 17077, Poly_aftertouch_c, 0, 75, 0
1, 17175, Note_on_c, 0, 72, 44
1, 17186, Note_on_c, 0, 66, 41
1, 17188, Note_on_c, 0, 83, 36
1, 17192, Note_on_c, 0, 69, 43
1, 17201, Note_on_c, 0, 63, 34
1, 17204, Note_off_c, 0, 72, 52
1, 17218, Note_off_c, 0, 83, 33
1, 17229, Note_off_c, 0, 69, 51
1, 17246, Note_on_c, 0, 82, 58
1, 17250, Note_off_c, 0, 66, 40
1, 17254, Note_off_c, 0, 63, 43
1, 17271, Note_off_c, 0, 82, 65
1, 17348, Note_on_c, 0, 81, 42
1, 17382, Note_off_c, 0, 81, 47
1, 17712, Note_on_c, 0, 81, 53
1, 17727, Note_on_c, 0, 72, 38
1, 17730, Note_on_c, 0, 66, 40
1, 17730, Note_on_c, 0, 75, 34
1, 17737, Note_on_c, 0, 69, 37
1, 17762, Note_off_c, 0, 81, 45
1, 17771, Note_off_c, 0, 72, 46
1, 17774, Note_off_c, 0, 75, 48
1, 17783, Note_off_c, 0, 66, 45
1, 17784, Note_off_c, 0, 69, 45
1, 17912, Note_on_c, 0, 80, 54
1, 17920, Note_on_c, 0, 72, 34
1, 17936, Note_on_c, 0, 66, 39
1, 17945, Note_off_c, 0, 80, 60
1, 17948, Note_on_c, 0, 69, 36
1, 17950, Note_off_c, 0, 72, 52
1, 17999, Note_on_c, 0, 79, 55
1, 18010, Note_off_c, 0, 69, 39
1, 18061, Note_off_c, 0, 79, 55
1, 18096, Note_on_c, 0, 78, 49
1, 18111, Note_off_c, 0, 66, 26
1, 18131, Note_off_c, 0, 78, 57
1, 18649, Note_on_c, 0, 69, 37
1, 18654, Note_on_c, 0, 75, 25
1, 18657, Note_on_c, 0, 77, 51
1, 18668, Note_on_c, 0, 72, 33
1, 18693, Note_off_c, 0, 75, 52
1, 18696, Note_off_c, 0, 77, 53
1, 18698, Note_off_c, 0, 69, 49
1, 18743, Note_off_c, 0, 72, 41
1, 18887, Note_on_c, 0, 78, 63
1, 18894, Note_on_c, 0, 72, 41
1, 18899, Note_on_c, 0, 75, 42
1, 18931, Note_off_c, 0, 75, 54
1, 18936, Note_off_c, 0, 78, 60
1, 18937, Note_off_c, 0, 72, 49
1, 19053, Note_on_c, 0, 77, 74
1, 19062, Note_on_c, 0, 72, 55
1, 19075, Note_on_c, 0, 75, 42
1, 19077, Note_on_c, 0, 69, 41
1, 19101, Note_off_c, 0, 72, 61
1, 19102, Note_off_c, 0, 77, 59
1, 19115, Note_off_c, 0, 75, 55
1, 19116, Note_off_c, 0, 69, 50
1, 19221, Note_on_c, 0, 79, 70
1, 19236, Note_on_c, 0, 75, 59
1, 19238, Note_on_c, 0, 72, 48
1, 19268, Note_off_c, 0, 75, 66
1, 19275, Note_off_c, 0, 79, 58
1, 19291, Note_off_c, 0, 72, 56
1, 19406, Note_on_c, 0, 77, 50
1, 19408, Note_on_c, 0, 69, 41
1, 19421, Note_on_c, 0, 72, 46
1, 19422, Note_on_c, 0, 75, 35
1, 19453, Note_off_c, 0, 72, 56
1, 19456, Note_off_c, 0, 69, 47
1, 19456, Note_off_c, 0, 75, 53
1, 19461, Note_off_c, 0, 77, 41
1, 19589, Note_on_c, 0, 78, 57
1, 19605, Note_on_c, 0, 72, 28
1, 19657, Note_off_c, 0, 78, 39
1, 19721, Note_off_c, 0, 72, 37
1, 19798, Note_on_c, 0, 69, 30
1, 19801, Note_on_c, 0, 77, 42
1, 19807, Note_on_c, 0, 75, 40
1, 19842, Note_off_c, 0, 75, 52
1, 19877, Poly_aftertouch_c, 0, 72, 0
1, 19894, Note_off_c, 0, 77, 40
1, 19907, Note_off_c, 0, 69, 44
1, 20038, Note_on_c, 0, 79, 47
1, 20092, Note_off_c, 0, 79, 40
1, 20213, Note_on_c, 0, 77, 41
1, 20240, Note_off_c, 0, 77, 53
1, 20353, Note_on_c, 0, 78, 45
1, 20384, Note_off_c, 0, 78, 52
1, 20493, Note_on_c, 0, 77, 37
1, 20522, Note_off_c, 0, 77, 49
1, 20604, Note_on_c, 0, 79, 50
1, 20636, Note_off_c, 0, 79, 51
1, 20723, Note_on_c, 0, 77, 62
1, 20756, Note_off_c, 0, 77, 54
1, 20832, Note_on_c, 0, 78, 71
1, 20881, Note_off_c, 0, 78, 62
1, 20946, Note_on_c, 0, 77, 66
1, 20991, Note_off_c, 0, 77, 59
1, 21066, Note_on_c, 0, 79, 54
1, 21103, Note_off_c, 0, 79, 50
1, 21168, Note_on_c, 0, 77, 58
1, 21200, Note_off_c, 0, 77, 51
1, 21244, Note_on_c, 0, 78, 72
1, 21304, Note_off_c, 0, 78, 58
1, 21337, Note_on_c, 0, 77, 63
1, 21374, Note_off_c, 0, 77, 58
1, 21387, Control_c, 0, 67, 126
1, 21402, Control_c, 0, 67, 123
1, 21417, Control_c, 0, 67, 122
1, 21419, Note_on_c, 0, 79, 63
1, 21432, Control_c, 0, 67, 121
1, 21446, Control_c, 0, 67, 121
1, 21459, Note_off_c, 0, 79, 56
1, 21500, Note_on_c, 0, 77, 62
1, 21547, Note_off_c, 0, 77, 48
1, 21564, Control_c, 0, 67, 121
1, 21576, Note_on_c, 0, 78, 67
1, 21622, Note_off_c, 0, 78, 59
1, 21659, Note_on_c, 0, 77, 64
1, 21675, Control_c, 0, 67, 121
1, 21690, Control_c, 0, 67, 120
1, 21705, Control_c, 0, 67, 120
1, 21706, Note_off_c, 0, 77, 60
1, 21719, Control_c, 0, 67, 119
1, 21734, Control_c, 0, 67, 117
1, 21745, Note_on_c, 0, 79, 63
1, 21749, Control_c, 0, 67, 115
1, 21764, Control_c, 0, 67, 114
1, 21779, Control_c, 0, 67, 114
1, 21782, Note_off_c, 0, 79, 56
1, 21793, Control_c, 0, 67, 113
1, 21817, Note_on_c, 0, 77, 68
1, 21861, Note_off_c, 0, 77, 57
1, 21906, Note_on_c, 0, 78, 66
1, 21934, Note_off_c, 0, 78, 63
1, 21942, Control_c, 0, 67, 114
1, 21972, Control_c, 0, 67, 114
1, 21990, Note_on_c, 0, 77, 57
1, 22011, Note_off_c, 0, 77, 61
1, 22031, Control_c, 0, 67, 115
1, 22058, Note_on_c, 0, 79, 61
1, 22075, Control_c, 0, 67, 115
1, 22094, Note_off_c, 0, 79, 58
1, 22105, Control_c, 0, 67, 116
1, 22119, Control_c, 0, 67, 116
1, 22133, Note_on_c, 0, 77, 56
1, 22150, Control_c, 0, 67, 117
1, 22165, Control_c, 0, 67, 117
1, 22169, Note_off_c, 0, 77, 54
1, 22195, Control_c, 0, 67, 118
1, 22215, Note_on_c, 0, 78, 56
1, 22238, Control_c, 0, 67, 118
1, 22239, Note_off_c, 0, 78, 58
1, 22253, Control_c, 0, 67, 119
1, 22297, Control_c, 0, 67, 119
1, 22300, Note_on_c, 0, 77, 47
1, 22322, Note_off_c, 0, 77, 57
1, 22379, Control_c, 0, 67, 120
1, 22380, Note_on_c, 0, 79, 55
1, 22411, Note_off_c, 0, 79, 56
1, 22454, Note_on_c, 0, 77, 48
1, 22494, Note_off_c, 0, 77, 48
1, 22542, Note_on_c, 0, 78, 48
1, 22570, Note_off_c, 0, 78, 56
1, 22622, Note_on_c, 0, 77, 49
1, 22649, Note_off_c, 0, 77, 55
1, 22690, Control_c, 0, 67, 119
1, 22697, Note_on_c, 0, 79, 50
1, 22725, Note_off_c, 0, 79, 55
1, 22764, Control_c, 0, 64, 21
1, 22767, Note_on_c, 0, 77, 59
1, 22779, Control_c, 0, 64, 34
1, 22793, Control_c, 0, 64, 41
1, 22808, Control_c, 0, 64, 44
1, 22823, Control_c, 0, 64, 45
1, 22838, Control_c, 0, 64, 46
1, 22840, Note_on_c, 0, 78, 58
1, 22847, Note_off_c, 0, 77, 42
1, 22867, Control_c, 0, 64, 45
1, 22882, Control_c, 0, 64, 44
1, 22882, Control_c, 0, 67, 119
1, 22891, Note_off_c, 0, 78, 58
1, 22897, Control_c, 0, 64, 42
1, 22912, Control_c, 0, 64, 41
1, 22914, Note_on_c, 0, 77, 59
1, 22927, Control_c, 0, 64, 38
1, 22943, Control_c, 0, 64, 35
1, 22946, Note_off_c, 0, 77, 64
1, 22958, Control_c, 0, 64, 33
1, 22973, Control_c, 0, 64, 29
1, 22988, Control_c, 0, 64, 25
1, 22989, Note_on_c, 0, 79, 70
1, 23003, Control_c, 0, 64, 21
1, 23018, Control_c, 0, 64, 18
1, 23029, Note_off_c, 0, 79, 61
1, 23033, Control_c, 0, 64, 16
1, 23047, Control_c, 0, 64, 13
1, 23069, Note_on_c, 0, 77, 71
1, 23084, Note_on_c, 0, 63, 52
1, 23091, Control_c, 0, 64, 16
1, 23102, Note_on_c, 0, 65, 32
1, 23106, Control_c, 0, 64, 20
1, 23128, Control_c, 0, 64, 24
1, 23143, Control_c, 0, 64, 25
1, 23149, Note_off_c, 0, 77, 58
1, 23155, Note_on_c, 0, 72, 67
1, 23158, Control_c, 0, 64, 26
1, 23162, Note_on_c, 0, 78, 61
1, 23193, Note_off_c, 0, 78, 48
1, 23203, Control_c, 0, 64, 24
1, 23213, Note_off_c, 0, 72, 64
1, 23217, Control_c, 0, 64, 16
1, 23232, Control_c, 0, 64, 0
1, 23233, Note_on_c, 0, 77, 52
1, 23247, Note_on_c, 0, 69, 53
1, 23270, Note_off_c, 0, 69, 58
1, 23289, Note_off_c, 0, 77, 41
1, 23308, Note_on_c, 0, 79, 69
1, 23313, Note_on_c, 0, 72, 34
1, 23336, Control_c, 0, 67, 119
1, 23343, Note_off_c, 0, 72, 35
1, 23345, Note_off_c, 0, 79, 57
1, 23351, Control_c, 0, 67, 120
1, 23374, Note_on_c, 0, 62, 46
1, 23379, Note_on_c, 0, 77, 75
1, 23380, Control_c, 0, 67, 121
1, 23386, Note_on_c, 0, 70, 60
1, 23395, Control_c, 0, 67, 121
1, 23409, Control_c, 0, 67, 122
1, 23414, Note_off_c, 0, 70, 56
1, 23424, Control_c, 0, 67, 122
1, 23432, Note_off_c, 0, 62, 58
1, 23436, Note_off_c, 0, 63, 33
1, 23439, Control_c, 0, 67, 123
1, 23454, Control_c, 0, 67, 123
1, 23456, Note_on_c, 0, 78, 72
1, 23457, Note_off_c, 0, 77, 61
1, 23467, Note_on_c, 0, 74, 59
1, 23511, Note_off_c, 0, 65, 36
1, 23529, Note_off_c, 0, 74, 58
1, 23533, Note_on_c, 0, 77, 61
1, 23536, Note_on_c, 0, 70, 47
1, 23543, Control_c, 0, 67, 122
1, 23558, Note_off_c, 0, 70, 58
1, 23573, Control_c, 0, 67, 122
1, 23581, Note_off_c, 0, 78, 46
1, 23603, Note_off_c, 0, 77, 59
1, 23608, Note_on_c, 0, 79, 66
1, 23612, Note_on_c, 0, 74, 29
1, 23617, Control_c, 0, 67, 121
1, 23643, Note_off_c, 0, 74, 56
1, 23647, Control_c, 0, 67, 121
1, 23680, Note_off_c, 0, 79, 61
1, 23684, Note_on_c, 0, 77, 64
1, 23691, Control_c, 0, 67, 120
1, 23706, Control_c, 0, 67, 120
1, 23710, Note_on_c, 0, 69, 36
1, 23713, Note_on_c, 0, 60, 39
1, 23721, Control_c, 0, 67, 119
1, 23728, Note_on_c, 0, 65, 30
1, 23742, Note_off_c, 0, 69, 54
1, 23769, Note_on_c, 0, 78, 68
1, 23772, Note_off_c, 0, 77, 60
1, 23797, Note_on_c, 0, 75, 44
1, 23830, Note_off_c, 0, 75, 58
1, 23833, Note_off_c, 0, 78, 56
1, 23835, Note_on_c, 0, 69, 58
1, 23848, Note_on_c, 0, 77, 61
1, 23877, Note_off_c, 0, 69, 58
1, 23877, Control_c, 0, 67, 119
1, 23936, Control_c, 0, 67, 118
1, 23942, Note_on_c, 0, 79, 62
1, 23942, Note_off_c, 0, 77, 61
1, 23947, Note_on_c, 0, 75, 56
1, 23966, Control_c, 0, 67, 118
1, 23982, Note_off_c, 0, 75, 66
1, 24004, Note_off_c, 0, 79, 60
1, 24005, Note_on_c, 0, 77, 64
1, 24011, Control_c, 0, 67, 117
1, 24027, Note_on_c, 0, 70, 53
1, 24040, Control_c, 0, 67, 117
1, 24047, Note_off_c, 0, 77, 57
1, 24048, Note_on_c, 0, 58, 53
1, 24059, Note_off_c, 0, 70, 63
1, 24063, Note_off_c, 0, 60, 38
1, 24070, Control_c, 0, 67, 116
1, 24092, Note_on_c, 0, 74, 66
1, 24096, Note_on_c, 0, 78, 66
1, 24105, Note_off_c, 0, 65, 35
1, 24139, Note_off_c, 0, 78, 63
1, 24144, Control_c, 0, 67, 116
1, 24159, Control_c, 0, 67, 115
1, 24172, Note_on_c, 0, 70, 67
1, 24174, Control_c, 0, 67, 115
1, 24177, Note_off_c, 0, 74, 35
1, 24183, Note_on_c, 0, 78, 60
1, 24188, Control_c, 0, 67, 114
1, 24199, Note_off_c, 0, 70, 69
1, 24218, Control_c, 0, 67, 114
1, 24233, Control_c, 0, 67, 113
1, 24247, Control_c, 0, 67, 112
1, 24255, Note_on_c, 0, 74, 55
1, 24255, Note_on_c, 0, 79, 71
1, 24258, Note_off_c, 0, 78, 63
1, 24262, Control_c, 0, 67, 110
1, 24273, Note_off_c, 0, 58, 56
1, 24273, Note_off_c, 0, 74, 65
1, 24277, Control_c, 0, 67, 109
1, 24289, Note_off_c, 0, 79, 61
1, 24292, Control_c, 0, 67, 108
1, 24321, Control_c, 0, 67, 107
1, 24333, Note_on_c, 0, 80, 80
1, 24339, Note_on_c, 0, 74, 64
1, 24342, Note_on_c, 0, 65, 41
1, 24343, Note_on_c, 0, 53, 39
1, 24343, Note_on_c, 0, 62, 43
1, 24351, Control_c, 0, 67, 107
1, 24363, Note_off_c, 0, 74, 68
1, 24380, Control_c, 0, 67, 106
1, 24388, Note_off_c, 0, 80, 52
1, 24395, Control_c, 0, 67, 106
1, 24405, Note_on_c, 0, 81, 78
1, 24407, Note_on_c, 0, 77, 79
1, 24410, Control_c, 0, 67, 105
1, 24425, Control_c, 0, 67, 104
1, 24440, Control_c, 0, 67, 103
1, 24446, Note_off_c, 0, 81, 62
1, 24452, Note_off_c, 0, 77, 60
1, 24455, Control_c, 0, 67, 101
1, 24470, Control_c, 0, 67, 99
1, 24482, Note_on_c, 0, 81, 63
1, 24485, Control_c, 0, 67, 95
1, 24485, Note_on_c, 0, 74, 62
1, 24488, Note_off_c, 0, 53, 41
1, 24500, Control_c, 0, 67, 93
1, 24514, Control_c, 0, 67, 90
1, 24518, Note_off_c, 0, 62, 39
1, 24520, Note_off_c, 0, 74, 64
1, 24529, Control_c, 0, 67, 88
1, 24532, Note_off_c, 0, 81, 62
1, 24544, Control_c, 0, 67, 88
1, 24551, Note_off_c, 0, 65, 47
1, 24565, Note_on_c, 0, 82, 72
1, 24578, Note_on_c, 0, 77, 57
1, 24587, Note_off_c, 0, 82, 68
1, 24589, Control_c, 0, 67, 88
1, 24598, Note_off_c, 0, 77, 57
1, 24626, Control_c, 0, 67, 89
1, 24641, Control_c, 0, 67, 90
1, 24656, Note_on_c, 0, 82, 81
1, 24656, Control_c, 0, 67, 90
1, 24662, Note_on_c, 0, 72, 70
1, 24670, Control_c, 0, 67, 91
1, 24675, Note_on_c, 0, 65, 46
1, 24681, Note_on_c, 0, 53, 46
1, 24684, Note_on_c, 0, 63, 46
1, 24685, Control_c, 0, 67, 91
1, 24690, Note_off_c, 0, 72, 66
1, 24695, Note_off_c, 0, 82, 64
1, 24700, Control_c, 0, 67, 92
1, 24715, Control_c, 0, 67, 93
1, 24735, Note_on_c, 0, 81, 68
1, 24747, Note_on_c, 0, 75, 68
1, 24762, Note_off_c, 0, 81, 63
1, 24762, Note_off_c, 0, 53, 59
1, 24776, Note_off_c, 0, 75, 67
1, 24804, Control_c, 0, 67, 93
1, 24813, Note_on_c, 0, 81, 83
1, 24825, Note_on_c, 0, 72, 64
1, 24842, Note_off_c, 0, 65, 43
1, 24848, Note_off_c, 0, 81, 64
1, 24851, Note_off_c, 0, 63, 41
1, 24858, Note_off_c, 0, 72, 52
1, 24893, Control_c, 0, 67, 93
1, 24896, Note_on_c, 0, 80, 71
1, 24907, Note_on_c, 0, 75, 63
1, 24924, Note_off_c, 0, 80, 66
1, 24935, Note_off_c, 0, 75, 57
1, 24979, Note_on_c, 0, 63, 37
1, 24983, Note_on_c, 0, 80, 71
1, 24994, Note_on_c, 0, 72, 65
1, 25000, Note_on_c, 0, 57, 49
1, 25006, Note_off_c, 0, 80, 68
1, 25011, Control_c, 0, 67, 92
1, 25015, Note_off_c, 0, 72, 59
1, 25018, Note_on_c, 0, 65, 25
1, 25041, Control_c, 0, 67, 92
1, 25056, Control_c, 0, 67, 91
1, 25060, Note_off_c, 0, 63, 33
1, 25068, Note_on_c, 0, 79, 66
1, 25077, Note_on_c, 0, 75, 57
1, 25091, Note_off_c, 0, 79, 61
1, 25100, Control_c, 0, 67, 91
1, 25112, Note_off_c, 0, 75, 64
1, 25144, Control_c, 0, 67, 90
1, 25146, Note_on_c, 0, 79, 80
1, 25152, Note_on_c, 0, 72, 62
1, 25174, Note_off_c, 0, 72, 61
1, 25174, Control_c, 0, 67, 90
1, 25196, Note_off_c, 0, 79, 58
1, 25225, Note_on_c, 0, 78, 67
1, 25227, Note_on_c, 0, 75, 60
1, 25233, Control_c, 0, 67, 89
1, 25247, Note_off_c, 0, 75, 65
1, 25251, Note_off_c, 0, 78, 67
1, 25263, Control_c, 0, 67, 89
1, 25269, Note_off_c, 0, 57, 37
1, 25286, Note_on_c, 0, 62, 53
1, 25290, Note_on_c, 0, 78, 82
1, 25292, Note_on_c, 0, 58, 48
1, 25292, Control_c, 0, 67, 88
1, 25302, Note_on_c, 0, 70, 67
1, 25322, Control_c, 0, 67, 88
1, 25331, Note_off_c, 0, 70, 62
1, 25344, Note_off_c, 0, 78, 65
1, 25360, Control_c, 0, 67, 87
1, 25375, Control_c, 0, 67, 86
1, 25390, Note_on_c, 0, 74, 64
1, 25390, Control_c, 0, 67, 82
1, 25402, Note_on_c, 0, 78, 56
1, 25405, Control_c, 0, 67, 76
1, 25420, Control_c, 0, 67, 66
1, 25434, Control_c, 0, 67, 51
1, 25449, Control_c, 0, 67, 32
1, 25464, Control_c, 0, 67, 0
1, 25469, Note_on_c, 0, 77, 58
1, 25470, Note_on_c, 0, 70, 48
1, 25471, Note_off_c, 0, 74, 58
1, 25486, Note_off_c, 0, 62, 45
1, 25496, Note_off_c, 0, 70, 56
1, 25504, Note_off_c, 0, 78, 57
1, 25504, Note_off_c, 0, 65, 41
1, 25542, Note_on_c, 0, 74, 52
1, 25550, Note_on_c, 0, 79, 66
1, 25550, Note_off_c, 0, 77, 62
1, 25572, Note_off_c, 0, 74, 68
1, 25585, Note_off_c, 0, 58, 47
1, 25616, Note_off_c, 0, 79, 50
1, 25623, Note_on_c, 0, 65, 56
1, 25629, Note_on_c, 0, 63, 57
1, 25632, Note_on_c, 0, 69, 64
1, 25635, Note_on_c, 0, 77, 61
1, 25663, Note_off_c, 0, 69, 66
1, 25713, Note_on_c, 0, 72, 64
1, 25717, Note_on_c, 0, 78, 68
1, 25719, Note_off_c, 0, 77, 55
1, 25758, Note_off_c, 0, 72, 58
1, 25758, Note_off_c, 0, 78, 54
1, 25781, Note_on_c, 0, 77, 39
1, 25798, Note_on_c, 0, 69, 60
1, 25833, Note_off_c, 0, 69, 64
1, 25871, Note_off_c, 0, 77, 61
1, 25872, Note_on_c, 0, 79, 71
1, 25879, Control_c, 0, 67, 8
1, 25884, Note_on_c, 0, 72, 30
1, 25893, Control_c, 0, 67, 9
1, 25901, Note_off_c, 0, 79, 63
1, 25908, Control_c, 0, 67, 11
1, 25916, Note_off_c, 0, 72, 35
1, 25923, Control_c, 0, 67, 14
1, 25938, Control_c, 0, 67, 16
1, 25948, Note_off_c, 0, 63, 41
1, 25948, Note_on_c, 0, 77, 57
1, 25952, Note_on_c, 0, 62, 47
1, 25952, Note_on_c, 0, 70, 56
1, 25953, Control_c, 0, 67, 20
1, 25968, Control_c, 0, 67, 24
1, 25973, Note_off_c, 0, 70, 61
1, 25983, Control_c, 0, 67, 28
1, 25996, Note_off_c, 0, 77, 0
1, 25998, Control_c, 0, 67, 34
1, 26009, Note_off_c, 0, 62, 60
1, 26012, Control_c, 0, 67, 43
1, 26027, Control_c, 0, 67, 51
1, 26029, Note_on_c, 0, 78, 66
1, 26035, Note_on_c, 0, 74, 60
1, 26035, Poly_aftertouch_c, 0, 77, 0
1, 26042, Control_c, 0, 67, 59
1, 26057, Control_c, 0, 67, 68
1, 26072, Control_c, 0, 67, 76
1, 26086, Control_c, 0, 67, 85
1, 26094, Note_off_c, 0, 74, 57
1, 26101, Control_c, 0, 67, 93
1, 26103, Note_off_c, 0, 65, 42
1, 26105, Note_on_c, 0, 70, 44
1, 26113, Note_on_c, 0, 77, 50
1, 26124, Control_c, 0, 67, 98
1, 26125, Note_off_c, 0, 78, 54
1, 26139, Control_c, 0, 67, 101
1, 26147, Note_off_c, 0, 70, 65
1, 26154, Control_c, 0, 67, 103
1, 26188, Note_off_c, 0, 77, 60
1, 26205, Note_on_c, 0, 79, 55
1, 26276, Note_off_c, 0, 79, 59
1, 26285, Note_on_c, 0, 65, 37
1, 26286, Note_on_c, 0, 77, 62
1, 26287, Note_on_c, 0, 60, 31
1, 26291, Note_on_c, 0, 69, 52
1, 26325, Note_off_c, 0, 69, 62
1, 26369, Note_on_c, 0, 78, 64
1, 26371, Note_off_c, 0, 77, 61
1, 26391, Control_c, 0, 67, 104
1, 26402, Note_on_c, 0, 75, 27
1, 26416, Note_off_c, 0, 78, 0
1, 26425, Note_off_c, 0, 75, 51
1, 26435, Control_c, 0, 67, 104
1, 26438, Note_on_c, 0, 78, 49
1, 26440, Note_on_c, 0, 69, 41
1, 26467, Note_off_c, 0, 69, 55
1, 26480, Control_c, 0, 67, 105
1, 26495, Control_c, 0, 67, 105
1, 26508, Note_on_c, 0, 77, 36
1, 26509, Control_c, 0, 67, 106
1, 26516, Note_off_c, 0, 78, 59
1, 26524, Control_c, 0, 67, 107
1, 26530, Note_on_c, 0, 75, 62
1, 26535, Note_off_c, 0, 77, 56
1, 26539, Note_on_c, 0, 79, 61
1, 26539, Control_c, 0, 67, 108
1, 26554, Control_c, 0, 67, 108
1, 26560, Note_off_c, 0, 75, 68
1, 26589, Note_off_c, 0, 79, 58
1, 26597, Note_off_c, 0, 60, 37
1, 26600, Note_on_c, 0, 58, 54
1, 26604, Note_on_c, 0, 77, 74
1, 26610, Note_on_c, 0, 70, 58
1, 26629, Note_off_c, 0, 77, 64
1, 26635, Note_off_c, 0, 65, 40
1, 26643, Control_c, 0, 67, 108
1, 26649, Note_off_c, 0, 70, 61
1, 26658, Control_c, 0, 67, 107
1, 26673, Control_c, 0, 67, 106
1, 26677, Note_on_c, 0, 78, 72
1, 26679, Note_on_c, 0, 74, 69
1, 26688, Control_c, 0, 67, 105
1, 26702, Control_c, 0, 67, 104
1, 26716, Control_c, 0, 67, 103
1, 26729, Note_off_c, 0, 78, 58
1, 26731, Control_c, 0, 67, 102
1, 26746, Control_c, 0, 67, 101
1, 26759, Note_off_c, 0, 74, 34
1, 26760, Note_on_c, 0, 70, 69
1, 26760, Control_c, 0, 67, 99
1, 26763, Note_on_c, 0, 78, 57
1, 26775, Control_c, 0, 67, 97
1, 26786, Note_off_c, 0, 70, 67
1, 26790, Control_c, 0, 67, 93
1, 26805, Control_c, 0, 67, 86
1, 26820, Control_c, 0, 67, 79
1, 26822, Note_off_c, 0, 58, 51
1, 26834, Control_c, 0, 67, 73
1, 26839, Note_on_c, 0, 79, 74
1, 26844, Note_on_c, 0, 74, 39
1, 26845, Note_off_c, 0, 78, 63
1, 26849, Control_c, 0, 67, 68
1, 26872, Control_c, 0, 67, 64
1, 26875, Note_off_c, 0, 79, 64
1, 26878, Note_off_c, 0, 74, 49
1, 26887, Control_c, 0, 67, 60
1, 26902, Control_c, 0, 67, 56
1, 26903, Note_on_c, 0, 53, 42
1, 26905, Note_on_c, 0, 62, 37
1, 26917, Control_c, 0, 67, 51
1, 26921, Note_on_c, 0, 65, 33
1, 26925, Note_on_c, 0, 80, 78
1, 26927, Note_on_c, 0, 74, 54
1, 26932, Control_c, 0, 67, 46
1, 26947, Control_c, 0, 67, 41
1, 26951, Note_off_c, 0, 74, 60
1, 26962, Control_c, 0, 67, 37
1, 26977, Control_c, 0, 67, 35
1, 26986, Note_off_c, 0, 80, 56
1, 26992, Control_c, 0, 67, 33
1, 26995, Note_on_c, 0, 81, 81
1, 27005, Note_on_c, 0, 77, 74
1, 27007, Control_c, 0, 67, 31
1, 27019, Note_off_c, 0, 62, 30
1, 27021, Control_c, 0, 67, 29
1, 27030, Note_off_c, 0, 53, 32
1, 27032, Note_off_c, 0, 77, 65
1, 27036, Control_c, 0, 67, 28
1, 27039, Note_off_c, 0, 81, 61
1, 27051, Control_c, 0, 67, 26
1, 27066, Control_c, 0, 67, 26
1, 27077, Note_on_c, 0, 74, 57
1, 27080, Note_on_c, 0, 81, 64
1, 27081, Control_c, 0, 67, 25
1, 27117, Note_off_c, 0, 74, 65
1, 27122, Note_off_c, 0, 65, 43
1, 27135, Note_off_c, 0, 81, 56
1, 27140, Control_c, 0, 67, 25
1, 27155, Control_c, 0, 67, 26
1, 27157, Note_on_c, 0, 82, 70
1, 27170, Control_c, 0, 67, 26
1, 27177, Note_on_c, 0, 77, 36
1, 27182, Note_off_c, 0, 82, 66
1, 27184, Control_c, 0, 67, 27
1, 27199, Control_c, 0, 67, 28
1, 27210, Note_off_c, 0, 77, 34
1, 27214, Control_c, 0, 67, 29
1, 27229, Control_c, 0, 67, 29
1, 27234, Note_on_c, 0, 53, 46
1, 27239, Note_on_c, 0, 65, 43
1, 27239, Note_on_c, 0, 82, 78
1, 27242, Note_on_c, 0, 63, 42
1, 27244, Control_c, 0, 67, 30
1, 27248, Note_on_c, 0, 72, 63
1, 27258, Control_c, 0, 67, 31
1, 27273, Control_c, 0, 67, 31
1, 27278, Note_off_c, 0, 72, 66
1, 27284, Note_off_c, 0, 82, 62
1, 27287, Note_off_c, 0, 53, 51
1, 27303, Control_c, 0, 67, 32
1, 27322, Note_on_c, 0, 81, 61
1, 27337, Note_on_c, 0, 75, 64
1, 27348, Note_off_c, 0, 81, 59
1, 27367, Note_off_c, 0, 75, 67
1, 27374, Note_off_c, 0, 65, 41
1, 27382, Note_off_c, 0, 63, 35
1, 27396, Note_on_c, 0, 81, 84
1, 27415, Note_on_c, 0, 72, 54
1, 27436, Note_off_c, 0, 72, 58
1, 27436, Note_off_c, 0, 81, 61
1, 27484, Note_on_c, 0, 80, 67
1, 27499, Note_on_c, 0, 75, 57
1, 27511, Note_off_c, 0, 80, 68
1, 27528, Note_off_c, 0, 75, 56
1, 27561, Note_on_c, 0, 57, 44
1, 27570, Note_on_c, 0, 80, 68
1, 27576, Note_on_c, 0, 72, 58
1, 27582, Note_on_c, 0, 65, 23
1, 27596, Poly_aftertouch_c, 0, 63, 127
1, 27599, Control_c, 0, 67, 32
1, 27610, Note_off_c, 0, 72, 59
1, 27616, Note_off_c, 0, 80, 63
1, 27621, Control_c, 0, 67, 31
1, 27633, Poly_aftertouch_c, 0, 63, 0
1, 27662, Note_on_c, 0, 79, 64
1, 27665, Control_c, 0, 67, 31
1, 27677, Note_on_c, 0, 75, 53
1, 27695, Note_off_c, 0, 79, 62
1, 27695, Control_c, 0, 67, 30
1, 27710, Control_c, 0, 67, 30
1, 27719, Note_off_c, 0, 75, 60
1, 27725, Control_c, 0, 67, 29
1, 27737, Note_on_c, 0, 79, 76
1, 27741, Control_c, 0, 67, 29
1, 27743, Note_on_c, 0, 72, 62
1, 27756, Control_c, 0, 67, 28
1, 27766, Note_off_c, 0, 72, 61
1, 27770, Control_c, 0, 67, 27
1, 27785, Control_c, 0, 67, 26
1, 27800, Control_c, 0, 67, 26
1, 27802, Note_off_c, 0, 79, 58
1, 27821, Note_on_c, 0, 78, 73
1, 27829, Control_c, 0, 67, 25
1, 27850, Note_off_c, 0, 78, 64
1, 27852, Note_on_c, 0, 75, 32
1, 27855, Note_off_c, 0, 57, 30
1, 27874, Control_c, 0, 67, 24
1, 27877, Note_off_c, 0, 75, 44
1, 27889, Control_c, 0, 67, 24
1, 27896, Note_on_c, 0, 62, 43
1, 27898, Note_on_c, 0, 58, 42
1, 27898, Note_off_c, 0, 65, 44
1, 27904, Control_c, 0, 67, 23
1, 27906, Note_on_c, 0, 77, 74
1, 27917, Note_on_c, 0, 74, 63
1, 27919, Control_c, 0, 67, 20
1, 27934, Control_c, 0, 67, 17
1, 27948, Note_off_c, 0, 74, 65
1, 27948, Control_c, 0, 67, 14
1, 27957, Note_off_c, 0, 77, 60
1, 27963, Control_c, 0, 67, 11
1, 27978, Control_c, 0, 67, 9
1, 27993, Note_on_c, 0, 70, 70
1, 27993, Control_c, 0, 67, 0
1, 27998, Note_on_c, 0, 78, 67
1, 28021, Note_off_c, 0, 70, 66
1, 28035, Note_off_c, 0, 62, 61
1, 28044, Note_off_c, 0, 58, 63
1, 28067, Note_on_c, 0, 77, 62
1, 28076, Note_off_c, 0, 78, 61
1, 28080, Note_on_c, 0, 74, 61
1, 28104, Note_off_c, 0, 74, 70
1, 28114, Note_off_c, 0, 77, 58
1, 28139, Note_on_c, 0, 81, 80
1, 28166, Note_off_c, 0, 81, 61
1, 28185, Control_c, 0, 67, 8
1, 28199, Control_c, 0, 67, 9
1, 28214, Control_c, 0, 67, 10
1, 28219, Note_on_c, 0, 74, 66
1, 28229, Control_c, 0, 67, 11
1, 28231, Note_on_c, 0, 70, 54
1, 28232, Note_on_c, 0, 82, 72
1, 28241, Note_on_c, 0, 68, 41
1, 28258, Note_off_c, 0, 74, 63
1, 28259, Control_c, 0, 67, 11
1, 28273, Control_c, 0, 67, 12
1, 28288, Control_c, 0, 67, 13
1, 28293, Note_off_c, 0, 82, 61
1, 28303, Note_on_c, 0, 77, 70
1, 28303, Control_c, 0, 67, 13
1, 28306, Note_on_c, 0, 83, 66
1, 28318, Control_c, 0, 67, 15
1, 28333, Control_c, 0, 67, 17
1, 28355, Control_c, 0, 67, 20
1, 28360, Note_off_c, 0, 77, 61
1, 28370, Control_c, 0, 67, 23
1, 28385, Control_c, 0, 67, 25
1, 28400, Control_c, 0, 67, 28
1, 28403, Note_off_c, 0, 83, 61
1, 28404, Note_on_c, 0, 74, 37
1, 28407, Note_on_c, 0, 82, 69
1, 28414, Control_c, 0, 67, 31
1, 28429, Control_c, 0, 67, 34
1, 28430, Note_off_c, 0, 74, 50
1, 28444, Control_c, 0, 67, 39
1, 28459, Control_c, 0, 67, 44
1, 28463, Note_off_c, 0, 82, 63
1, 28474, Control_c, 0, 67, 49
1, 28477, Note_on_c, 0, 77, 50
1, 28482, Note_on_c, 0, 83, 60
1, 28488, Control_c, 0, 67, 54
1, 28500, Note_off_c, 0, 77, 49
1, 28503, Control_c, 0, 67, 57
1, 28518, Control_c, 0, 67, 59
1, 28530, Note_on_c, 0, 66, 45
1, 28534, Control_c, 0, 67, 61
1, 28543, Note_off_c, 0, 83, 61
1, 28549, Control_c, 0, 67, 62
1, 28551, Note_on_c, 0, 82, 65
1, 28596, Note_off_c, 0, 68, 31
1, 28621, Note_off_c, 0, 82, 61
1, 28627, Note_off_c, 0, 66, 58
1, 28628, Note_on_c, 0, 83, 55
1, 28634, Note_on_c, 0, 78, 55
1, 28666, Note_off_c, 0, 78, 49
1, 28675, Note_off_c, 0, 70, 41
1, 28697, Control_c, 0, 67, 62
1, 28701, Note_off_c, 0, 83, 53
1, 28710, Note_on_c, 0, 75, 32
1, 28712, Note_on_c, 0, 82, 58
1, 28735, Note_off_c, 0, 75, 45
1, 28756, Control_c, 0, 67, 61
1, 28777, Note_off_c, 0, 82, 62
1, 28780, Note_on_c, 0, 78, 58
1, 28788, Note_on_c, 0, 83, 57
1, 28801, Control_c, 0, 67, 61
1, 28822, Note_off_c, 0, 78, 59
1, 28830, Control_c, 0, 67, 60
1, 28859, Note_off_c, 0, 83, 56
1, 28862, Note_on_c, 0, 70, 35
1, 28873, Note_on_c, 0, 74, 44
1, 28882, Note_on_c, 0, 82, 57
1, 28889, Note_on_c, 0, 65, 22
1, 28890, Control_c, 0, 67, 60
1, 28902, Note_off_c, 0, 74, 58
1, 28948, Note_off_c, 0, 82, 63
1, 28959, Note_on_c, 0, 80, 54
1, 28959, Note_on_c, 0, 83, 55
1, 28964, Control_c, 0, 67, 59
1, 28993, Note_off_c, 0, 80, 52
1, 28994, Control_c, 0, 67, 59
1, 29009, Control_c, 0, 67, 58
1, 29019, Note_off_c, 0, 83, 48
1, 29022, Note_on_c, 0, 74, 46
1, 29023, Control_c, 0, 67, 57
1, 29038, Control_c, 0, 67, 57
1, 29039, Note_on_c, 0, 82, 63
1, 29052, Note_off_c, 0, 74, 62
1, 29053, Control_c, 0, 67, 56
1, 29068, Control_c, 0, 67, 55
1, 29083, Control_c, 0, 67, 55
1, 29105, Control_c, 0, 67, 54
1, 29107, Note_off_c, 0, 82, 63
1, 29111, Note_on_c, 0, 80, 55
1, 29117, Note_on_c, 0, 83, 71
1, 29120, Control_c, 0, 67, 53
1, 29135, Control_c, 0, 67, 51
1, 29150, Control_c, 0, 67, 47
1, 29161, Note_off_c, 0, 80, 54
1, 29164, Control_c, 0, 67, 40
1, 29179, Control_c, 0, 67, 32
1, 29184, Note_on_c, 0, 82, 72
1, 29193, Note_off_c, 0, 83, 56
1, 29194, Note_on_c, 0, 63, 56
1, 29194, Control_c, 0, 67, 21
1, 29203, Note_on_c, 0, 75, 56
1, 29209, Control_c, 0, 67, 0
1, 29222, Note_off_c, 0, 65, 39
1, 29230, Note_off_c, 0, 75, 58
1, 29263, Note_on_c, 0, 83, 54
1, 29274, Note_off_c, 0, 82, 62
1, 29277, Note_on_c, 0, 78, 66
1, 29290, Note_off_c, 0, 83, 60
1, 29298, Note_off_c, 0, 78, 64
1, 29333, Note_off_c, 0, 70, 39
1, 29345, Note_on_c, 0, 83, 79
1, 29348, Note_on_c, 0, 75, 65
1, 29376, Note_off_c, 0, 75, 69
1, 29430, Note_on_c, 0, 78, 70
1, 29433, Note_on_c, 0, 84, 78
1, 29437, Note_off_c, 0, 83, 58
1, 29454, Note_off_c, 0, 78, 68
1, 29460, Note_off_c, 0, 63, 60
1, 29463, Note_off_c, 0, 84, 63
1, 29502, Note_on_c, 0, 58, 44
1, 29502, Note_on_c, 0, 66, 41
1, 29513, Note_on_c, 0, 78, 78
1, 29513, Note_on_c, 0, 85, 78
1, 29519, Note_on_c, 0, 70, 37
1, 29540, Note_off_c, 0, 78, 60
1, 29588, Note_on_c, 0, 82, 81
1, 29594, Note_on_c, 0, 86, 69
1, 29595, Note_off_c, 0, 85, 54
1, 29621, Note_off_c, 0, 86, 66
1, 29629, Note_off_c, 0, 82, 64
1, 29633, Note_off_c, 0, 58, 58
1, 29636, Note_off_c, 0, 66, 42
1, 29668, Note_on_c, 0, 78, 67
1, 29670, Note_on_c, 0, 86, 73
1, 29685, Note_off_c, 0, 70, 49
1, 29698, Note_off_c, 0, 78, 63
1, 29707, Note_off_c, 0, 86, 66
1, 29752, Note_on_c, 0, 87, 68
1, 29764, Note_on_c, 0, 82, 54
1, 29776, Note_off_c, 0, 87, 69
1, 29785, Note_off_c, 0, 82, 61
1, 29826, Note_on_c, 0, 58, 51
1, 29829, Note_on_c, 0, 70, 39
1, 29838, Note_on_c, 0, 77, 70
1, 29838, Note_on_c, 0, 87, 76
1, 29843, Note_on_c, 0, 68, 40
1, 29867, Note_off_c, 0, 87, 69
1, 29870, Note_off_c, 0, 77, 67
1, 29913, Note_off_c, 0, 58, 62
1, 29921, Note_on_c, 0, 86, 72
1, 29931, Note_on_c, 0, 80, 69
1, 29943, Note_off_c, 0, 86, 68
1, 29956, Note_off_c, 0, 80, 69
1, 29993, Note_off_c, 0, 70, 42
1, 29996, Note_on_c, 0, 86, 84
1, 29998, Note_off_c, 0, 68, 41
1, 30011, Note_on_c, 0, 77, 64
1, 30032, Note_off_c, 0, 86, 64
1, 30034, Note_off_c, 0, 77, 61
1, 30077, Note_on_c, 0, 85, 74
1, 30086, Note_on_c, 0, 80, 70
1, 30097, Note_off_c, 0, 85, 72
1, 30119, Note_off_c, 0, 80, 56
1, 30154, Note_on_c, 0, 68, 12
1, 30157, Note_on_c, 0, 85, 81
1, 30167, Note_on_c, 0, 77, 63
1, 30181, Note_on_c, 0, 62, 42
1, 30189, Note_on_c, 0, 70, 29
1, 30193, Note_off_c, 0, 77, 60
1, 30214, Note_off_c, 0, 68, 43
1, 30216, Note_off_c, 0, 85, 63
1, 30236, Note_on_c, 0, 84, 74
1, 30240, Control_c, 0, 67, 9
1, 30255, Control_c, 0, 67, 12
1, 30256, Note_on_c, 0, 80, 53
1, 30261, Note_off_c, 0, 84, 65
1, 30270, Control_c, 0, 67, 13
1, 30276, Note_off_c, 0, 80, 62
1, 30284, Control_c, 0, 67, 15
1, 30299, Control_c, 0, 67, 17
1, 30314, Note_on_c, 0, 84, 76
1, 30314, Control_c, 0, 67, 19
1, 30325, Note_on_c, 0, 77, 59
1, 30329, Control_c, 0, 67, 21
1, 30344, Control_c, 0, 67, 22
1, 30345, Note_off_c, 0, 77, 60
1, 30358, Control_c, 0, 67, 23
1, 30373, Control_c, 0, 67, 24
1, 30383, Note_off_c, 0, 84, 48
1, 30398, Note_on_c, 0, 83, 71
1, 30432, Control_c, 0, 67, 23
1, 30455, Note_off_c, 0, 83, 55
1, 30456, Note_off_c, 0, 62, 57
1, 30461, Control_c, 0, 67, 22
1, 30476, Control_c, 0, 67, 22
1, 30476, Note_on_c, 0, 82, 70
1, 30488, Note_on_c, 0, 78, 64
1, 30491, Control_c, 0, 67, 21
1, 30492, Note_on_c, 0, 66, 46
1, 30499, Note_on_c, 0, 63, 41
1, 30506, Control_c, 0, 67, 20
1, 30512, Note_off_c, 0, 70, 37
1, 30518, Note_off_c, 0, 78, 65
1, 30521, Control_c, 0, 67, 20
1, 30536, Control_c, 0, 67, 19
1, 30552, Note_off_c, 0, 82, 60
1, 30553, Note_on_c, 0, 83, 78
1, 30565, Note_on_c, 0, 75, 59
1, 30565, Control_c, 0, 67, 19
1, 30616, Note_off_c, 0, 75, 58
1, 30616, Control_c, 0, 67, 19
1, 30629, Note_off_c, 0, 83, 38
1, 30631, Control_c, 0, 67, 20
1, 30643, Note_on_c, 0, 82, 80
1, 30652, Note_on_c, 0, 78, 65
1, 30658, Note_off_c, 0, 66, 65
1, 30661, Control_c, 0, 67, 21
1, 30667, Note_off_c, 0, 63, 56
1, 30676, Control_c, 0, 67, 21
1, 30679, Note_off_c, 0, 78, 66
1, 30691, Control_c, 0, 67, 22
1, 30706, Control_c, 0, 67, 23
1, 30716, Note_on_c, 0, 75, 70
1, 30718, Note_on_c, 0, 83, 71
1, 30721, Control_c, 0, 67, 24
1, 30736, Control_c, 0, 67, 24
1, 30742, Note_off_c, 0, 75, 69
1, 30744, Note_off_c, 0, 82, 37
1, 30751, Control_c, 0, 67, 25
1, 30765, Control_c, 0, 67, 29
1, 30780, Control_c, 0, 67, 35
1, 30788, Note_on_c, 0, 70, 68
1, 30789, Note_on_c, 0, 82, 64
1, 30792, Note_off_c, 0, 83, 35
1, 30795, Control_c, 0, 67, 41
1, 30796, Note_on_c, 0, 68, 58
1, 30809, Control_c, 0, 67, 47
1, 30819, Note_on_c, 0, 74, 47
1, 30824, Control_c, 0, 67, 53
1, 30839, Control_c, 0, 67, 57
1, 30854, Control_c, 0, 67, 62
1, 30868, Note_off_c, 0, 74, 41
1, 30869, Control_c, 0, 67, 68
1, 30875, Note_on_c, 0, 83, 71
1, 30875, Note_off_c, 0, 82, 62
1, 30876, Note_on_c, 0, 77, 66
1, 30883, Control_c, 0, 67, 71
1, 30898, Control_c, 0, 67, 74
1, 30913, Control_c, 0, 67, 78
1, 30929, Control_c, 0, 67, 82
1, 30937, Note_off_c, 0, 77, 56
1, 30944, Control_c, 0, 67, 86
1, 30959, Control_c, 0, 67, 90
1, 30973, Control_c, 0, 67, 93
1, 30974, Note_off_c, 0, 83, 58
1, 30976, Note_on_c, 0, 82, 72
1, 30988, Control_c, 0, 67, 95
1, 30989, Note_on_c, 0, 74, 38
1, 31003, Control_c, 0, 67, 96
1, 31016, Note_off_c, 0, 74, 53
1, 31018, Control_c, 0, 67, 98
1, 31032, Control_c, 0, 67, 99
1, 31043, Note_off_c, 0, 82, 64
1, 31047, Control_c, 0, 67, 100
1, 31050, Note_on_c, 0, 77, 68
1, 31056, Note_on_c, 0, 83, 54
1, 31062, Control_c, 0, 67, 102
1, 31077, Control_c, 0, 67, 103
1, 31083, Note_off_c, 0, 77, 61
1, 31092, Control_c, 0, 67, 104
1, 31106, Control_c, 0, 67, 104
1, 31110, Note_off_c, 0, 68, 48
1, 31131, Note_off_c, 0, 83, 62
1, 31134, Note_on_c, 0, 66, 44
1, 31136, Note_on_c, 0, 75, 46
1, 31139, Note_on_c, 0, 82, 68
1, 31167, Note_off_c, 0, 75, 55
1, 31207, Note_off_c, 0, 82, 64
1, 31210, Note_on_c, 0, 83, 61
1, 31227, Note_on_c, 0, 78, 59
1, 31264, Note_off_c, 0, 66, 61
1, 31269, Note_off_c, 0, 78, 51
1, 31301, Note_off_c, 0, 83, 60
1, 31303, Note_on_c, 0, 75, 41
1, 31311, Note_on_c, 0, 82, 61
1, 31314, Note_off_c, 0, 70, 58
1, 31338, Note_off_c, 0, 75, 57
1, 31385, Note_off_c, 0, 82, 62
1, 31391, Note_on_c, 0, 78, 53
1, 31394, Note_on_c, 0, 83, 47
1, 31425, Control_c, 0, 67, 104
1, 31429, Note_off_c, 0, 78, 54
1, 31464, Note_on_c, 0, 70, 41
1, 31475, Note_off_c, 0, 83, 58
1, 31481, Note_on_c, 0, 74, 48
1, 31491, Note_on_c, 0, 82, 51
1, 31492, Note_on_c, 0, 65, 27
1, 31513, Note_off_c, 0, 74, 56
1, 31514, Control_c, 0, 67, 103
1, 31566, Note_off_c, 0, 82, 62
1, 31578, Note_on_c, 0, 83, 50
1, 31591, Note_on_c, 0, 80, 37
1, 31618, Control_c, 0, 67, 103
1, 31618, Note_off_c, 0, 80, 53
1, 31645, Note_on_c, 0, 74, 29
1, 31652, Note_off_c, 0, 83, 61
1, 31667, Note_on_c, 0, 82, 57
1, 31672, Note_off_c, 0, 74, 56
1, 31677, Control_c, 0, 67, 102
1, 31722, Control_c, 0, 67, 102
1, 31725, Note_off_c, 0, 82, 63
1, 31727, Note_on_c, 0, 80, 39
1, 31738, Note_on_c, 0, 83, 49
1, 31752, Control_c, 0, 67, 101
1, 31767, Control_c, 0, 67, 101
1, 31782, Control_c, 0, 67, 100
1, 31795, Note_off_c, 0, 80, 46
1, 31796, Control_c, 0, 67, 99
1, 31807, Note_on_c, 0, 82, 63
1, 31807, Note_off_c, 0, 83, 61
1, 31811, Control_c, 0, 67, 99
1, 31812, Note_on_c, 0, 75, 51
1, 31826, Note_on_c, 0, 63, 50
1, 31826, Control_c, 0, 67, 98
1, 31841, Control_c, 0, 67, 97
1, 31853, Note_off_c, 0, 75, 59
1, 31855, Control_c, 0, 67, 96
1, 31870, Control_c, 0, 67, 95
1, 31871, Note_on_c, 0, 83, 60
1, 31874, Note_off_c, 0, 65, 35
1, 31880, Note_on_c, 0, 78, 71
1, 31885, Control_c, 0, 67, 92
1, 31886, Note_off_c, 0, 82, 63
1, 31900, Control_c, 0, 67, 88
1, 31907, Note_off_c, 0, 83, 61
1, 31911, Note_off_c, 0, 78, 59
1, 31915, Control_c, 0, 67, 82
1, 31929, Control_c, 0, 67, 77
1, 31944, Control_c, 0, 67, 71
1, 31952, Note_on_c, 0, 83, 69
1, 31959, Control_c, 0, 67, 64
1, 31965, Note_on_c, 0, 75, 61
1, 31973, Note_off_c, 0, 70, 43
1, 31973, Control_c, 0, 67, 55
1, 31984, Note_off_c, 0, 75, 65
1, 31988, Control_c, 0, 67, 41
1, 32003, Control_c, 0, 67, 30
1, 32018, Control_c, 0, 67, 23
1, 32033, Control_c, 0, 67, 20
1, 32039, Note_on_c, 0, 84, 78
1, 32041, Note_on_c, 0, 78, 64
1, 32041, Note_off_c, 0, 83, 61
1, 32047, Control_c, 0, 67, 18
1, 32060, Note_off_c, 0, 78, 65
1, 32062, Control_c, 0, 67, 17
1, 32076, Note_off_c, 0, 63, 60
1, 32077, Control_c, 0, 67, 15
1, 32079, Note_off_c, 0, 84, 61
1, 32119, Note_on_c, 0, 66, 48
1, 32121, Note_on_c, 0, 58, 45
1, 32130, Note_on_c, 0, 85, 75
1, 32134, Note_on_c, 0, 70, 23
1, 32141, Note_on_c, 0, 78, 65
1, 32165, Note_off_c, 0, 78, 57
1, 32203, Note_on_c, 0, 82, 77
1, 32210, Note_off_c, 0, 85, 63
1, 32214, Note_on_c, 0, 86, 71
1, 32245, Note_off_c, 0, 58, 57
1, 32249, Note_off_c, 0, 86, 59
1, 32256, Note_off_c, 0, 66, 48
1, 32256, Note_off_c, 0, 82, 61
1, 32277, Control_c, 0, 67, 16
1, 32278, Note_on_c, 0, 86, 60
1, 32292, Control_c, 0, 67, 17
1, 32295, Note_on_c, 0, 78, 62
1, 32299, Note_off_c, 0, 70, 41
1, 32307, Control_c, 0, 67, 17
1, 32331, Note_off_c, 0, 78, 50
1, 32364, Note_on_c, 0, 87, 72
1, 32372, Note_off_c, 0, 86, 59
1, 32381, Note_on_c, 0, 82, 47
1, 32393, Note_off_c, 0, 87, 63
1, 32405, Note_off_c, 0, 82, 59
1, 32450, Note_on_c, 0, 87, 73
1, 32455, Note_on_c, 0, 58, 52
1, 32460, Note_on_c, 0, 77, 60
1, 32473, Note_on_c, 0, 68, 32
1, 32473, Note_on_c, 0, 70, 32
1, 32485, Note_off_c, 0, 77, 62
1, 32485, Note_off_c, 0, 87, 64
1, 32530, Control_c, 0, 67, 18
1, 32533, Note_on_c, 0, 86, 67
1, 32539, Note_off_c, 0, 58, 61
1, 32545, Note_on_c, 0, 80, 67
1, 32559, Note_off_c, 0, 86, 66
1, 32572, Note_off_c, 0, 80, 66
1, 32605, Note_on_c, 0, 86, 73
1, 32608, Note_off_c, 0, 70, 42
1, 32612, Note_off_c, 0, 68, 41
1, 32618, Note_on_c, 0, 77, 64
1, 32641, Note_off_c, 0, 86, 63
1, 32654, Note_off_c, 0, 77, 56
1, 32691, Note_on_c, 0, 85, 66
1, 32693, Note_on_c, 0, 80, 68
1, 32714, Note_off_c, 0, 85, 67
1, 32757, Note_on_c, 0, 68, 32
1, 32768, Note_on_c, 0, 70, 37
1, 32769, Note_off_c, 0, 80, 61
1, 32772, Note_on_c, 0, 85, 75
1, 32775, Note_on_c, 0, 77, 60
1, 32780, Note_on_c, 0, 62, 42
1, 32806, Note_off_c, 0, 77, 51
1, 32809, Note_off_c, 0, 85, 64
1, 32857, Note_on_c, 0, 84, 64
1, 32864, Note_on_c, 0, 80, 56
1, 32877, Note_off_c, 0, 68, 37
1, 32884, Note_off_c, 0, 84, 68
1, 32894, Control_c, 0, 67, 17
1, 32897, Note_off_c, 0, 80, 64
1, 32929, Note_on_c, 0, 77, 72
1, 32929, Note_on_c, 0, 84, 78
1, 32939, Control_c, 0, 67, 16
1, 32961, Note_off_c, 0, 77, 55
1, 32968, Control_c, 0, 67, 16
1, 32979, Note_off_c, 0, 84, 57
1, 33001, Note_on_c, 0, 83, 76
1, 33053, Note_off_c, 0, 62, 58
1, 33057, Control_c, 0, 64, 32
1, 33072, Control_c, 0, 64, 55
1, 33073, Note_off_c, 0, 83, 61
1, 33076, Note_on_c, 0, 82, 75
1, 33077, Note_off_c, 0, 70, 52
1, 33079, Note_on_c, 0, 63, 36
1, 33082, Note_on_c, 0, 66, 44
1, 33086, Control_c, 0, 64, 63
1, 33091, Note_on_c, 0, 78, 72
1, 33101, Control_c, 0, 64, 66
1, 33116, Control_c, 0, 64, 68
1, 33117, Note_off_c, 0, 78, 66
1, 33131, Control_c, 0, 64, 72
1, 33142, Note_off_c, 0, 66, 61
1, 33146, Control_c, 0, 64, 77
1, 33150, Note_on_c, 0, 83, 76
1, 33155, Note_on_c, 0, 75, 74
1, 33160, Control_c, 0, 64, 82
1, 33165, Note_off_c, 0, 82, 61
1, 33175, Control_c, 0, 64, 85
1, 33181, Note_off_c, 0, 63, 53
1, 33190, Control_c, 0, 64, 87
1, 33204, Control_c, 0, 64, 89
1, 33219, Control_c, 0, 64, 91
1, 33224, Note_off_c, 0, 75, 58
1, 33225, Note_on_c, 0, 82, 69
1, 33234, Note_on_c, 0, 78, 71
1, 33234, Control_c, 0, 64, 93
1, 33243, Note_off_c, 0, 83, 58
1, 33249, Control_c, 0, 64, 96
1, 33249, Control_c, 0, 67, 15
1, 33263, Note_off_c, 0, 78, 62
1, 33264, Control_c, 0, 64, 98
1, 33278, Note_off_c, 0, 82, 62
1, 33278, Control_c, 0, 64, 100
1, 33286, Note_on_c, 0, 87, 78
1, 33319, Note_off_c, 0, 87, 59
1, 33324, Control_c, 0, 64, 99
1, 33339, Control_c, 0, 64, 93
1, 33354, Control_c, 0, 64, 84
1, 33369, Control_c, 0, 64, 71
1, 33383, Control_c, 0, 64, 55
1, 33392, Note_on_c, 0, 90, 79
1, 33397, Note_on_c, 0, 46, 44
1, 33398, Control_c, 0, 64, 18
1, 33398, Control_c, 0, 67, 15
1, 33409, Note_on_c, 0, 78, 55
1, 33413, Control_c, 0, 64, 53
1, 33427, Control_c, 0, 64, 64
1, 33428, Note_on_c, 0, 61, 41
1, 33440, Note_off_c, 0, 90, 51
1, 33442, Control_c, 0, 64, 70
1, 33442, Control_c, 0, 67, 14
1, 33452, Note_off_c, 0, 78, 43
1, 33457, Control_c, 0, 64, 77
1, 33457, Control_c, 0, 67, 13
1, 33461, Note_on_c, 0, 87, 72
1, 33472, Control_c, 0, 64, 81
1, 33472, Control_c, 0, 67, 9
1, 33487, Control_c, 0, 64, 84
1, 33487, Control_c, 0, 67, 0
1, 33488, Note_on_c, 0, 85, 47
1, 33502, Control_c, 0, 64, 87
1, 33517, Control_c, 0, 64, 90
1, 33520, Note_off_c, 0, 85, 49
1, 33532, Control_c, 0, 64, 92
1, 33538, Note_off_c, 0, 87, 58
1, 33540, Note_on_c, 0, 90, 84
1, 33547, Control_c, 0, 64, 94
1, 33549, Note_on_c, 0, 78, 72
1, 33562, Control_c, 0, 64, 96
1, 33571, Note_off_c, 0, 46, 44
1, 33576, Control_c, 0, 64, 98
1, 33591, Control_c, 0, 64, 100
1, 33611, Note_off_c, 0, 61, 55
1, 33613, Note_off_c, 0, 90, 64
1, 33613, Control_c, 0, 64, 102
1, 33627, Note_off_c, 0, 78, 60
1, 33635, Note_on_c, 0, 88, 66
1, 33645, Note_on_c, 0, 85, 61
1, 33654, Note_on_c, 0, 47, 63
1, 33657, Control_c, 0, 64, 96
1, 33660, Note_off_c, 0, 88, 63
1, 33672, Control_c, 0, 64, 84
1, 33678, Note_off_c, 0, 85, 66
1, 33678, Note_off_c, 0, 47, 61
1, 33687, Control_c, 0, 64, 69
1, 33702, Control_c, 0, 64, 0
1, 33708, Note_on_c, 0, 88, 88
1, 33717, Note_on_c, 0, 78, 73
1, 33744, Note_on_c, 0, 63, 58
1, 33746, Control_c, 0, 64, 64
1, 33761, Control_c, 0, 64, 71
1, 33763, Note_off_c, 0, 88, 62
1, 33767, Note_off_c, 0, 78, 54
1, 33776, Control_c, 0, 64, 78
1, 33779, Note_on_c, 0, 86, 68
1, 33791, Control_c, 0, 64, 83
1, 33794, Note_on_c, 0, 83, 68
1, 33806, Control_c, 0, 64, 84
1, 33820, Control_c, 0, 64, 85
1, 33833, Note_off_c, 0, 86, 64
1, 33850, Control_c, 0, 64, 85
1, 33855, Note_on_c, 0, 88, 75
1, 33856, Note_off_c, 0, 83, 59
1, 33866, Note_on_c, 0, 78, 70
1, 33894, Control_c, 0, 64, 86
1, 33901, Note_off_c, 0, 88, 50
1, 33905, Note_off_c, 0, 78, 51
1, 33909, Control_c, 0, 64, 88
1, 33922, Note_off_c, 0, 63, 53
1, 33924, Control_c, 0, 64, 90
1, 33931, Note_on_c, 0, 83, 63
1, 33939, Control_c, 0, 64, 91
1, 33941, Note_on_c, 0, 87, 44
1, 33945, Note_on_c, 0, 49, 68
1, 33961, Note_off_c, 0, 83, 59
1, 33967, Note_off_c, 0, 87, 46
1, 33968, Control_c, 0, 64, 89
1, 33983, Control_c, 0, 64, 81
1, 33998, Control_c, 0, 64, 69
1, 34013, Control_c, 0, 64, 0
1, 34016, Note_on_c, 0, 87, 82
1, 34020, Note_on_c, 0, 76, 73
1, 34029, Note_on_c, 0, 64, 62
1, 34072, Control_c, 0, 64, 62
1, 34077, Note_off_c, 0, 87, 63
1, 34086, Note_on_c, 0, 84, 70
1, 34087, Control_c, 0, 64, 68
1, 34088, Note_off_c, 0, 76, 59
1, 34101, Control_c, 0, 64, 72
1, 34104, Note_on_c, 0, 82, 56
1, 34107, Note_off_c, 0, 49, 54
1, 34116, Control_c, 0, 64, 76
1, 34132, Control_c, 0, 64, 79
1, 34135, Note_off_c, 0, 84, 63
1, 34147, Control_c, 0, 64, 81
1, 34159, Note_off_c, 0, 82, 64
1, 34162, Control_c, 0, 64, 83
1, 34165, Note_on_c, 0, 87, 81
1, 34176, Control_c, 0, 64, 84
1, 34185, Note_on_c, 0, 76, 63
1, 34191, Control_c, 0, 64, 87
1, 34200, Note_off_c, 0, 64, 62
1, 34200, Note_off_c, 0, 76, 67
1, 34205, Control_c, 0, 64, 90
1, 34212, Note_off_c, 0, 87, 62
1, 34220, Control_c, 0, 64, 92
1, 34242, Note_on_c, 0, 85, 71
1, 34249, Control_c, 0, 64, 89
1, 34252, Note_on_c, 0, 82, 68
1, 34257, Note_on_c, 0, 51, 62
1, 34264, Note_off_c, 0, 85, 67
1, 34264, Control_c, 0, 64, 79
1, 34277, Note_off_c, 0, 82, 66
1, 34279, Control_c, 0, 64, 62
1, 34294, Control_c, 0, 64, 0
1, 34308, Note_on_c, 0, 85, 95
1, 34320, Note_on_c, 0, 66, 75
1, 34320, Note_on_c, 0, 75, 73
1, 34353, Note_off_c, 0, 75, 59
1, 34360, Control_c, 0, 64, 61
1, 34372, Note_off_c, 0, 85, 62
1, 34375, Control_c, 0, 64, 71
1, 34390, Control_c, 0, 64, 78
1, 34393, Note_on_c, 0, 82, 72
1, 34402, Note_on_c, 0, 78, 78
1, 34405, Control_c, 0, 64, 83
1, 34420, Control_c, 0, 64, 83
1, 34435, Control_c, 0, 64, 84
1, 34445, Note_off_c, 0, 78, 61
1, 34449, Control_c, 0, 64, 84
1, 34464, Control_c, 0, 64, 85
1, 34466, Note_on_c, 0, 85, 81
1, 34472, Note_on_c, 0, 75, 69
1, 34474, Note_off_c, 0, 82, 50
1, 34479, Note_off_c, 0, 51, 37
1, 34479, Control_c, 0, 64, 85
1, 34494, Control_c, 0, 64, 87
1, 34509, Control_c, 0, 64, 88
1, 34516, Note_off_c, 0, 66, 59
1, 34521, Note_off_c, 0, 85, 64
1, 34523, Note_off_c, 0, 75, 62
1, 34523, Control_c, 0, 64, 89
1, 34553, Control_c, 0, 64, 87
1, 34555, Note_on_c, 0, 52, 73
1, 34557, Note_on_c, 0, 78, 71
1, 34567, Control_c, 0, 64, 79
1, 34574, Note_on_c, 0, 82, 27
1, 34581, Note_on_c, 0, 83, 11
1, 34582, Control_c, 0, 64, 65
1, 34586, Note_off_c, 0, 52, 64
1, 34597, Control_c, 0, 64, 0
1, 34611, Note_on_c, 0, 84, 80
1, 34614, Note_off_c, 0, 83, 43
1, 34615, Note_on_c, 0, 73, 83
1, 34618, Note_off_c, 0, 78, 57
1, 34621, Note_on_c, 0, 67, 71
1, 34641, Control_c, 0, 64, 42
1, 34649, Note_off_c, 0, 82, 34
1, 34656, Control_c, 0, 64, 68
1, 34668, Note_off_c, 0, 84, 63
1, 34671, Control_c, 0, 64, 74
1, 34680, Note_off_c, 0, 73, 57
1, 34682, Note_on_c, 0, 81, 66
1, 34686, Control_c, 0, 64, 79
1, 34700, Note_on_c, 0, 79, 69
1, 34701, Control_c, 0, 64, 82
1, 34715, Control_c, 0, 64, 85
1, 34730, Control_c, 0, 64, 87
1, 34741, Note_off_c, 0, 81, 62
1, 34745, Control_c, 0, 64, 89
1, 34760, Control_c, 0, 64, 91
1, 34762, Note_on_c, 0, 84, 70
1, 34766, Note_off_c, 0, 79, 60
1, 34775, Control_c, 0, 64, 92
1, 34779, Note_on_c, 0, 73, 67
1, 34809, Note_off_c, 0, 84, 56
1, 34818, Note_off_c, 0, 67, 60
1, 34819, Control_c, 0, 64, 86
1, 34829, Note_off_c, 0, 73, 53
1, 34834, Control_c, 0, 64, 73
1, 34839, Note_on_c, 0, 82, 63
1, 34846, Note_on_c, 0, 53, 68
1, 34849, Control_c, 0, 64, 0
1, 34849, Note_on_c, 0, 79, 49
1, 34857, Note_off_c, 0, 82, 63
1, 34871, Note_off_c, 0, 79, 37
1, 34889, Note_off_c, 0, 53, 64
1, 34909, Control_c, 0, 64, 50
1, 34918, Note_on_c, 0, 82, 86
1, 34924, Control_c, 0, 64, 69
1, 34930, Note_on_c, 0, 72, 64
1, 34935, Note_on_c, 0, 69, 62
1, 34939, Control_c, 0, 64, 78
1, 34954, Control_c, 0, 64, 86
1, 34957, Note_off_c, 0, 72, 67
1, 34969, Control_c, 0, 64, 90
1, 34982, Note_off_c, 0, 82, 59
1, 34983, Control_c, 0, 64, 90
1, 34998, Control_c, 0, 64, 91
1, 34998, Note_on_c, 0, 80, 69
1, 35007, Note_on_c, 0, 78, 64
1, 35013, Control_c, 0, 64, 91
1, 35015, Note_off_c, 0, 69, 54
1, 35053, Note_off_c, 0, 78, 57
1, 35060, Note_off_c, 0, 80, 61
1, 35070, Note_on_c, 0, 82, 81
1, 35074, Note_on_c, 0, 72, 65
1, 35109, Control_c, 0, 64, 89
1, 35123, Note_off_c, 0, 72, 58
1, 35124, Control_c, 0, 64, 85
1, 35126, Note_off_c, 0, 82, 63
1, 35139, Control_c, 0, 64, 78
1, 35153, Control_c, 0, 64, 68
1, 35166, Note_on_c, 0, 78, 72
1, 35168, Control_c, 0, 64, 32
1, 35183, Control_c, 0, 64, 0
1, 35194, Note_off_c, 0, 78, 64
1, 35231, Note_on_c, 0, 64, 61
1, 35234, Note_on_c, 0, 70, 81
1, 35235, Note_on_c, 0, 81, 84
1, 35240, Note_on_c, 0, 55, 40
1, 35264, Note_off_c, 0, 64, 65
1, 35267, Note_off_c, 0, 70, 55
1, 35270, Note_off_c, 0, 55, 55
1, 35281, Note_off_c, 0, 81, 53
1, 35310, Note_on_c, 0, 78, 73
1, 35367, Note_off_c, 0, 78, 65
1, 35383, Poly_aftertouch_c, 0, 76, 0
1, 35385, Note_on_c, 0, 81, 77
1, 35386, Note_on_c, 0, 70, 70
1, 35398, Note_on_c, 0, 61, 52
1, 35411, Note_off_c, 0, 81, 59
1, 35413, Note_off_c, 0, 70, 65
1, 35428, Note_off_c, 0, 61, 60
1, 35470, Note_on_c, 0, 79, 54
1, 35491, Note_off_c, 0, 79, 52
1, 35542, Note_on_c, 0, 65, 50
1, 35543, Note_on_c, 0, 69, 71
1, 35544, Note_on_c, 0, 57, 46
1, 35546, Note_on_c, 0, 79, 82
1, 35568, Note_off_c, 0, 65, 58
1, 35570, Note_off_c, 0, 69, 65
1, 35572, Note_off_c, 0, 57, 52
1, 35596, Note_off_c, 0, 79, 53
1, 35618, Note_on_c, 0, 72, 69
1, 35625, Note_on_c, 0, 76, 55
1, 35662, Note_off_c, 0, 72, 64
1, 35672, Note_off_c, 0, 76, 58
1, 35684, Note_on_c, 0, 69, 62
1, 35690, Note_on_c, 0, 79, 65
1, 35697, Note_on_c, 0, 60, 44
1, 35719, Note_off_c, 0, 69, 64
1, 35723, Note_off_c, 0, 60, 57
1, 35734, Note_off_c, 0, 79, 54
1, 35752, Note_on_c, 0, 77, 64
1, 35761, Note_on_c, 0, 72, 55
1, 35775, Note_off_c, 0, 77, 63
1, 35779, Note_off_c, 0, 72, 61
1, 35849, Note_on_c, 0, 77, 69
1, 35855, Note_on_c, 0, 58, 40
1, 35855, Note_on_c, 0, 67, 44
1, 35860, Note_on_c, 0, 73, 64
1, 35875, Note_on_c, 0, 79, 36
1, 35876, Note_off_c, 0, 79, 127
1, 35886, Note_off_c, 0, 67, 51
1, 35886, Note_off_c, 0, 77, 54
1, 35892, Note_off_c, 0, 58, 51
1, 35899, Note_off_c, 0, 73, 49
1, 35932, Note_on_c, 0, 75, 65
1, 35988, Note_off_c, 0, 75, 65
1, 36000, Note_on_c, 0, 77, 65
1, 36002, Note_on_c, 0, 61, 46
1, 36010, Note_on_c, 0, 70, 58
1, 36030, Note_off_c, 0, 77, 61
1, 36036, Note_off_c, 0, 61, 59
1, 36045, Note_off_c, 0, 70, 64
1, 36071, Note_on_c, 0, 76, 65
1, 36143, Note_off_c, 0, 76, 64
1, 36152, Note_on_c, 0, 69, 46
1, 36154, Note_on_c, 0, 60, 42
1, 36159, Note_on_c, 0, 79, 63
1, 36161, Note_on_c, 0, 75, 51
1, 36180, Note_off_c, 0, 69, 56
1, 36187, Note_off_c, 0, 60, 50
1, 36189, Note_off_c, 0, 75, 56
1, 36200, Note_off_c, 0, 79, 42
1, 36220, Note_on_c, 0, 76, 68
1, 36270, Note_off_c, 0, 76, 63
1, 36298, Note_on_c, 0, 79, 65
1, 36300, Note_on_c, 0, 63, 51
1, 36315, Note_on_c, 0, 72, 46
1, 36335, Note_off_c, 0, 79, 49
1, 36339, Note_off_c, 0, 63, 63
1, 36341, Note_off_c, 0, 72, 59
1, 36367, Note_on_c, 0, 77, 55
1, 36387, Note_off_c, 0, 77, 55
1, 36449, Note_on_c, 0, 61, 34
1, 36449, Note_on_c, 0, 77, 73
1, 36453, Note_on_c, 0, 70, 61
1, 36455, Note_on_c, 0, 67, 42
1, 36480, Note_off_c, 0, 61, 50
1, 36490, Note_off_c, 0, 67, 51
1, 36491, Note_off_c, 0, 77, 55
1, 36506, Note_off_c, 0, 70, 55
1, 36538, Note_on_c, 0, 75, 58
1, 36582, Note_off_c, 0, 75, 63
1, 36609, Note_on_c, 0, 77, 61
1, 36677, Note_off_c, 0, 77, 60
1, 36682, Note_on_c, 0, 76, 63
1, 36724, Note_off_c, 0, 76, 59
1, 36745, Note_on_c, 0, 63, 39
1, 36757, Note_on_c, 0, 79, 70
1, 36764, Note_on_c, 0, 69, 50
1, 36820, Note_off_c, 0, 79, 56
1, 36821, Note_off_c, 0, 69, 56
1, 36823, Note_off_c, 0, 63, 36
1, 36844, Note_on_c, 0, 76, 63
1, 36904, Note_off_c, 0, 76, 63
1, 36912, Note_on_c, 0, 79, 64
1, 36961, Note_off_c, 0, 79, 57
1, 36977, Note_on_c, 0, 78, 74
1, 37035, Note_off_c, 0, 78, 61
1, 37063, Note_on_c, 0, 77, 68
1, 37104, Note_off_c, 0, 77, 55
1, 37142, Note_on_c, 0, 78, 74
1, 37173, Note_off_c, 0, 78, 58
1, 37219, Note_on_c, 0, 77, 76
1, 37249, Note_off_c, 0, 77, 61
1, 37289, Note_on_c, 0, 79, 71
1, 37353, Note_off_c, 0, 79, 57
1, 37377, Note_on_c, 0, 77, 71
1, 37458, Note_on_c, 0, 78, 72
1, 37463, Note_off_c, 0, 77, 35
1, 37504, Note_off_c, 0, 78, 56
1, 37551, Note_on_c, 0, 77, 55
1, 37574, Note_off_c, 0, 77, 60
1, 37608, Control_c, 0, 67, 9
1, 37623, Control_c, 0, 67, 12
1, 37627, Note_on_c, 0, 79, 60
1, 37638, Control_c, 0, 67, 16
1, 37653, Control_c, 0, 67, 22
1, 37667, Control_c, 0, 67, 29
1, 37674, Note_off_c, 0, 79, 57
1, 37682, Control_c, 0, 67, 37
1, 37697, Control_c, 0, 67, 48
1, 37712, Control_c, 0, 67, 58
1, 37715, Note_on_c, 0, 77, 46
1, 37727, Control_c, 0, 67, 67
1, 37741, Control_c, 0, 67, 75
1, 37756, Control_c, 0, 67, 83
1, 37760, Note_off_c, 0, 77, 42
1, 37771, Control_c, 0, 67, 90
1, 37786, Control_c, 0, 67, 96
1, 37787, Note_on_c, 0, 78, 60
1, 37800, Control_c, 0, 67, 101
1, 37815, Control_c, 0, 67, 105
1, 37822, Note_off_c, 0, 78, 50
1, 37830, Control_c, 0, 67, 108
1, 37845, Control_c, 0, 67, 109
1, 37860, Control_c, 0, 67, 111
1, 37875, Control_c, 0, 67, 112
1, 37877, Note_on_c, 0, 77, 60
1, 37890, Control_c, 0, 67, 114
1, 37902, Note_off_c, 0, 77, 57
1, 37905, Control_c, 0, 67, 116
1, 37919, Control_c, 0, 67, 119
1, 37934, Control_c, 0, 67, 122
1, 37949, Control_c, 0, 67, 125
1, 37964, Note_on_c, 0, 79, 51
1, 37964, Control_c, 0, 67, 127
1, 37994, Note_off_c, 0, 79, 53
1, 38049, Note_on_c, 0, 77, 44
1, 38109, Note_off_c, 0, 77, 39
1, 38137, Note_on_c, 0, 78, 54
1, 38175, Note_off_c, 0, 78, 56
1, 38211, Note_on_c, 0, 77, 61
1, 38229, Note_off_c, 0, 77, 62
1, 38271, Note_on_c, 0, 79, 61
1, 38329, Note_off_c, 0, 79, 59
1, 38332, Note_on_c, 0, 77, 57
1, 38352, Note_off_c, 0, 77, 60
1, 38388, Note_on_c, 0, 51, 72
1, 38416, Note_on_c, 0, 69, 73
1, 38418, Note_off_c, 0, 51, 66
1, 38426, Note_on_c, 0, 77, 60
1, 38444, Note_on_c, 0, 79, 25
1, 38448, Note_off_c, 0, 69, 60
1, 38472, Note_off_c, 0, 77, 0
1, 38477, Note_off_c, 0, 79, 33
1, 38484, Note_on_c, 0, 77, 49
1, 38500, Note_on_c, 0, 72, 41
1, 38512, Note_off_c, 0, 77, 62
1, 38534, Note_off_c, 0, 72, 0
1, 38534, Note_on_c, 0, 72, 31
1, 38552, Note_on_c, 0, 67, 56
1, 38561, Note_on_c, 0, 78, 56
1, 38578, Note_on_c, 0, 69, 42
1, 38581, Note_off_c, 0, 78, 57
1, 38587, Note_off_c, 0, 72, 64
1, 38590, Note_on_c, 0, 79, 31
1, 38590, Note_off_c, 0, 67, 64
1, 38605, Note_on_c, 0, 65, 68
1, 38611, Note_off_c, 0, 79, 49
1, 38617, Note_off_c, 0, 69, 58
1, 38633, Note_on_c, 0, 77, 66
1, 38634, Note_off_c, 0, 65, 69
1, 38674, Note_off_c, 0, 77, 61
1, 38713, Note_on_c, 0, 70, 73
1, 38734, Note_on_c, 0, 50, 75
1, 38740, Note_off_c, 0, 70, 62
1, 38759, Note_off_c, 0, 50, 66
1, 38805, Note_on_c, 0, 78, 69
1, 38807, Poly_aftertouch_c, 0, 76, 0
1, 38811, Poly_aftertouch_c, 0, 77, 0
1, 38814, Note_on_c, 0, 74, 57
1, 38880, Note_on_c, 0, 70, 62
1, 38885, Note_on_c, 0, 77, 49
1, 38887, Note_off_c, 0, 74, 59
1, 38905, Note_off_c, 0, 78, 44
1, 38909, Note_on_c, 0, 64, 53
1, 38909, Note_off_c, 0, 70, 67
1, 38914, Note_on_c, 0, 65, 48
1, 38938, Note_off_c, 0, 65, 58
1, 38939, Note_off_c, 0, 64, 66
1, 38963, Note_off_c, 0, 77, 61
1, 38969, Note_on_c, 0, 79, 70
1, 38972, Control_c, 0, 67, 127
1, 38978, Note_on_c, 0, 74, 24
1, 38987, Control_c, 0, 67, 126
1, 39002, Control_c, 0, 67, 125
1, 39007, Note_off_c, 0, 74, 47
1, 39023, Note_off_c, 0, 79, 60
1, 39044, Note_on_c, 0, 77, 60
1, 39049, Note_on_c, 0, 69, 64
1, 39052, Note_on_c, 0, 48, 51
1, 39081, Note_off_c, 0, 48, 36
1, 39085, Note_off_c, 0, 69, 66
1, 39122, Note_off_c, 0, 77, 62
1, 39130, Note_on_c, 0, 78, 58
1, 39136, Control_c, 0, 67, 126
1, 39147, Note_on_c, 0, 75, 42
1, 39154, Note_off_c, 0, 78, 60
1, 39172, Note_off_c, 0, 75, 58
1, 39195, Note_on_c, 0, 67, 48
1, 39199, Note_on_c, 0, 69, 58
1, 39200, Note_on_c, 0, 77, 60
1, 39203, Note_on_c, 0, 65, 63
1, 39219, Note_off_c, 0, 67, 55
1, 39225, Note_off_c, 0, 69, 60
1, 39228, Note_off_c, 0, 65, 67
1, 39254, Control_c, 0, 67, 125
1, 39269, Control_c, 0, 67, 125
1, 39284, Control_c, 0, 67, 124
1, 39289, Note_off_c, 0, 77, 61
1, 39297, Note_on_c, 0, 79, 61
1, 39299, Control_c, 0, 67, 124
1, 39300, Note_on_c, 0, 75, 35
1, 39313, Control_c, 0, 67, 123
1, 39322, Note_off_c, 0, 75, 52
1, 39328, Control_c, 0, 67, 122
1, 39343, Control_c, 0, 67, 121
1, 39355, Note_off_c, 0, 79, 61
1, 39357, Control_c, 0, 67, 120
1, 39361, Note_on_c, 0, 77, 66
1, 39362, Note_on_c, 0, 46, 61
1, 39372, Control_c, 0, 67, 119
1, 39374, Note_on_c, 0, 70, 62
1, 39387, Control_c, 0, 67, 116
1, 39394, Note_off_c, 0, 46, 64
1, 39402, Control_c, 0, 67, 113
1, 39410, Note_off_c, 0, 70, 61
1, 39417, Control_c, 0, 67, 108
1, 39422, Note_off_c, 0, 77, 54
1, 39431, Control_c, 0, 67, 102
1, 39447, Control_c, 0, 67, 97
1, 39452, Note_on_c, 0, 74, 67
1, 39458, Note_on_c, 0, 78, 61
1, 39462, Control_c, 0, 67, 92
1, 39477, Control_c, 0, 67, 86
1, 39492, Control_c, 0, 67, 81
1, 39500, Note_off_c, 0, 78, 62
1, 39506, Control_c, 0, 67, 77
1, 39521, Control_c, 0, 67, 73
1, 39532, Note_on_c, 0, 70, 70
1, 39536, Control_c, 0, 67, 68
1, 39537, Note_on_c, 0, 64, 63
1, 39538, Note_on_c, 0, 65, 50
1, 39539, Note_on_c, 0, 78, 53
1, 39545, Note_off_c, 0, 74, 64
1, 39551, Control_c, 0, 67, 62
1, 39556, Note_off_c, 0, 70, 68
1, 39558, Note_off_c, 0, 64, 66
1, 39560, Note_off_c, 0, 65, 59
1, 39565, Control_c, 0, 67, 58
1, 39580, Control_c, 0, 67, 53
1, 39603, Control_c, 0, 67, 50
1, 39618, Note_on_c, 0, 79, 74
1, 39618, Control_c, 0, 67, 46
1, 39621, Note_on_c, 0, 74, 45
1, 39625, Note_off_c, 0, 78, 63
1, 39633, Control_c, 0, 67, 42
1, 39645, Note_off_c, 0, 74, 54
1, 39647, Control_c, 0, 67, 38
1, 39657, Note_off_c, 0, 79, 64
1, 39662, Control_c, 0, 67, 34
1, 39677, Control_c, 0, 67, 29
1, 39692, Control_c, 0, 67, 27
1, 39698, Note_on_c, 0, 41, 70
1, 39698, Note_on_c, 0, 80, 78
1, 39702, Note_on_c, 0, 74, 67
1, 39707, Control_c, 0, 67, 25
1, 39723, Note_off_c, 0, 41, 62
1, 39723, Control_c, 0, 67, 24
1, 39728, Note_off_c, 0, 74, 70
1, 39738, Control_c, 0, 67, 23
1, 39745, Note_off_c, 0, 80, 57
1, 39769, Note_on_c, 0, 77, 79
1, 39775, Note_on_c, 0, 81, 66
1, 39785, Note_on_c, 0, 83, 62
1, 39796, Control_c, 0, 67, 24
1, 39802, Note_off_c, 0, 83, 61
1, 39807, Note_off_c, 0, 81, 62
1, 39811, Control_c, 0, 67, 25
1, 39813, Note_off_c, 0, 77, 63
1, 39826, Control_c, 0, 67, 26
1, 39841, Control_c, 0, 67, 27
1, 39851, Note_on_c, 0, 81, 65
1, 39856, Control_c, 0, 67, 27
1, 39857, Note_on_c, 0, 67, 71
1, 39864, Note_on_c, 0, 65, 71
1, 39867, Note_on_c, 0, 74, 48
1, 39870, Control_c, 0, 67, 28
1, 39878, Note_off_c, 0, 67, 65
1, 39885, Control_c, 0, 67, 29
1, 39888, Note_off_c, 0, 65, 69
1, 39894, Note_off_c, 0, 81, 63
1, 39897, Note_off_c, 0, 74, 49
1, 39935, Note_on_c, 0, 77, 53
1, 39935, Note_on_c, 0, 82, 70
1, 39955, Note_off_c, 0, 77, 61
1, 39962, Note_off_c, 0, 82, 65
1, 39974, Control_c, 0, 67, 28
1, 39988, Control_c, 0, 67, 28
1, 40003, Control_c, 0, 67, 27
1, 40015, Note_on_c, 0, 82, 87
1, 40016, Note_on_c, 0, 72, 79
1, 40024, Note_on_c, 0, 41, 51
1, 40041, Note_off_c, 0, 72, 65
1, 40057, Note_off_c, 0, 41, 58
1, 40060, Note_off_c, 0, 82, 58
1, 40093, Note_on_c, 0, 81, 71
1, 40106, Note_on_c, 0, 75, 75
1, 40137, Note_off_c, 0, 81, 60
1, 40140, Note_off_c, 0, 75, 66
1, 40140, Note_on_c, 0, 80, 21
1, 40141, Note_off_c, 0, 80, 127
1, 40167, Note_on_c, 0, 81, 70
1, 40179, Poly_aftertouch_c, 0, 80, 0
1, 40182, Note_on_c, 0, 72, 71
1, 40183, Note_on_c, 0, 66, 56
1, 40186, Note_on_c, 0, 65, 67
1, 40203, Note_off_c, 0, 66, 62
1, 40212, Note_off_c, 0, 65, 68
1, 40222, Note_off_c, 0, 81, 60
1, 40242, Note_off_c, 0, 72, 45
1, 40255, Control_c, 0, 67, 27
1, 40257, Note_on_c, 0, 80, 75
1, 40270, Control_c, 0, 67, 26
1, 40271, Note_on_c, 0, 75, 64
1, 40281, Note_off_c, 0, 80, 70
1, 40310, Note_off_c, 0, 75, 50
1, 40314, Control_c, 0, 67, 26
1, 40349, Note_on_c, 0, 80, 71
1, 40351, Note_on_c, 0, 45, 60
1, 40360, Note_on_c, 0, 72, 66
1, 40375, Note_off_c, 0, 45, 60
1, 40381, Note_off_c, 0, 72, 64
1, 40386, Note_off_c, 0, 80, 62
1, 40436, Note_on_c, 0, 79, 60
1, 40442, Note_on_c, 0, 75, 61
1, 40456, Control_c, 0, 67, 25
1, 40457, Note_off_c, 0, 79, 61
1, 40466, Note_on_c, 0, 78, 29
1, 40470, Control_c, 0, 67, 25
1, 40477, Note_off_c, 0, 75, 63
1, 40495, Note_off_c, 0, 78, 34
1, 40500, Control_c, 0, 67, 24
1, 40506, Note_on_c, 0, 67, 55
1, 40514, Note_on_c, 0, 79, 80
1, 40516, Control_c, 0, 67, 24
1, 40518, Note_on_c, 0, 65, 63
1, 40523, Note_on_c, 0, 72, 53
1, 40528, Note_off_c, 0, 67, 58
1, 40543, Note_off_c, 0, 65, 66
1, 40545, Control_c, 0, 67, 23
1, 40552, Note_off_c, 0, 72, 57
1, 40560, Control_c, 0, 67, 23
1, 40578, Note_off_c, 0, 79, 59
1, 40588, Note_on_c, 0, 78, 68
1, 40605, Note_on_c, 0, 75, 57
1, 40605, Control_c, 0, 67, 22
1, 40613, Note_off_c, 0, 78, 68
1, 40625, Note_off_c, 0, 75, 62
1, 40649, Control_c, 0, 67, 22
1, 40657, Note_on_c, 0, 46, 65
1, 40674, Note_on_c, 0, 77, 59
1, 40674, Note_on_c, 0, 74, 63
1, 40685, Note_off_c, 0, 46, 64
1, 40699, Note_on_c, 0, 76, 29
1, 40713, Note_off_c, 0, 74, 57
1, 40732, Note_off_c, 0, 76, 33
1, 40752, Note_on_c, 0, 70, 70
1, 40754, Note_on_c, 0, 78, 72
1, 40790, Note_off_c, 0, 77, 27
1, 40807, Note_on_c, 0, 66, 76
1, 40811, Control_c, 0, 67, 21
1, 40824, Note_off_c, 0, 70, 60
1, 40830, Note_on_c, 0, 77, 39
1, 40835, Note_off_c, 0, 66, 68
1, 40836, Note_on_c, 0, 74, 60
1, 40853, Note_off_c, 0, 78, 51
1, 40862, Note_on_c, 0, 64, 37
1, 40881, Note_off_c, 0, 74, 53
1, 40892, Note_on_c, 0, 70, 66
1, 40892, Note_off_c, 0, 64, 45
1, 40898, Note_on_c, 0, 79, 71
1, 40902, Note_off_c, 0, 77, 56
1, 40919, Note_off_c, 0, 70, 66
1, 40930, Control_c, 0, 67, 22
1, 40934, Note_off_c, 0, 79, 59
1, 40944, Control_c, 0, 67, 23
1, 40959, Control_c, 0, 67, 24
1, 40970, Note_on_c, 0, 51, 72
1, 40974, Control_c, 0, 67, 26
1, 40975, Note_on_c, 0, 77, 73
1, 40979, Note_on_c, 0, 69, 69
1, 40989, Control_c, 0, 67, 28
1, 41004, Control_c, 0, 67, 29
1, 41011, Note_off_c, 0, 69, 62
1, 41012, Note_off_c, 0, 51, 64
1, 41018, Control_c, 0, 67, 30
1, 41033, Control_c, 0, 67, 32
1, 41048, Control_c, 0, 67, 35
1, 41060, Note_on_c, 0, 72, 68
1, 41060, Note_on_c, 0, 78, 74
1, 41063, Control_c, 0, 67, 38
1, 41070, Note_off_c, 0, 77, 60
1, 41078, Control_c, 0, 67, 42
1, 41100, Control_c, 0, 67, 45
1, 41110, Note_off_c, 0, 72, 66
1, 41115, Control_c, 0, 67, 46
1, 41120, Note_off_c, 0, 78, 60
1, 41129, Note_on_c, 0, 67, 73
1, 41130, Control_c, 0, 67, 47
1, 41139, Note_on_c, 0, 69, 64
1, 41144, Control_c, 0, 67, 48
1, 41151, Note_on_c, 0, 77, 49
1, 41151, Note_on_c, 0, 65, 68
1, 41154, Note_off_c, 0, 67, 66
1, 41159, Control_c, 0, 67, 48
1, 41173, Note_off_c, 0, 69, 62
1, 41181, Note_off_c, 0, 65, 68
1, 41216, Note_off_c, 0, 77, 61
1, 41218, Control_c, 0, 67, 48
1, 41222, Note_on_c, 0, 79, 71
1, 41224, Note_on_c, 0, 72, 35
1, 41252, Note_off_c, 0, 72, 36
1, 41257, Note_off_c, 0, 79, 54
1, 41296, Note_on_c, 0, 50, 70
1, 41307, Note_on_c, 0, 70, 51
1, 41313, Note_on_c, 0, 77, 40
1, 41323, Control_c, 0, 67, 48
1, 41324, Note_on_c, 0, 76, 41
1, 41325, Note_off_c, 0, 50, 65
1, 41329, Note_off_c, 0, 70, 61
1, 41360, Note_off_c, 0, 76, 49
1, 41367, Control_c, 0, 67, 49
1, 41379, Note_on_c, 0, 78, 70
1, 41382, Control_c, 0, 67, 49
1, 41383, Note_off_c, 0, 77, 41
1, 41397, Control_c, 0, 67, 51
1, 41401, Note_on_c, 0, 74, 50
1, 41412, Control_c, 0, 67, 56
1, 41427, Control_c, 0, 67, 61
1, 41438, Note_off_c, 0, 74, 54
1, 41441, Control_c, 0, 67, 65
1, 41450, Note_on_c, 0, 70, 47
1, 41453, Note_off_c, 0, 78, 62
1, 41456, Control_c, 0, 67, 68
1, 41464, Note_on_c, 0, 77, 55
1, 41465, Note_on_c, 0, 66, 60
1, 41471, Control_c, 0, 67, 69
1, 41484, Note_off_c, 0, 66, 67
1, 41486, Control_c, 0, 67, 71
1, 41492, Note_off_c, 0, 70, 64
1, 41497, Note_on_c, 0, 65, 24
1, 41501, Control_c, 0, 67, 72
1, 41530, Control_c, 0, 67, 71
1, 41532, Note_off_c, 0, 65, 41
1, 41532, Note_off_c, 0, 77, 60
1, 41536, Note_on_c, 0, 74, 53
1, 41537, Note_on_c, 0, 79, 63
1, 41545, Control_c, 0, 67, 70
1, 41559, Control_c, 0, 67, 70
1, 41560, Note_off_c, 0, 74, 61
1, 41574, Control_c, 0, 67, 69
1, 41589, Control_c, 0, 67, 69
1, 41604, Control_c, 0, 67, 68
1, 41606, Note_off_c, 0, 79, 61
1, 41617, Note_on_c, 0, 77, 58
1, 41628, Note_on_c, 0, 69, 50
1, 41631, Note_on_c, 0, 48, 59
1, 41634, Control_c, 0, 67, 68
1, 41654, Note_off_c, 0, 48, 60
1, 41656, Note_off_c, 0, 69, 56
1, 41679, Control_c, 0, 67, 67
1, 41693, Control_c, 0, 67, 67
1, 41698, Note_on_c, 0, 78, 64
1, 41700, Note_off_c, 0, 77, 58
1, 41708, Control_c, 0, 67, 66
1, 41714, Note_on_c, 0, 75, 53
1, 41723, Control_c, 0, 67, 66
1, 41738, Control_c, 0, 67, 65
1, 41743, Note_off_c, 0, 75, 60
1, 41753, Control_c, 0, 67, 64
1, 41760, Note_off_c, 0, 78, 57
1, 41767, Control_c, 0, 67, 63
1, 41768, Note_on_c, 0, 69, 52
1, 41777, Note_on_c, 0, 77, 54
1, 41782, Control_c, 0, 67, 62
1, 41786, Note_on_c, 0, 67, 45
1, 41793, Note_on_c, 0, 65, 65
1, 41797, Control_c, 0, 67, 60
1, 41808, Note_off_c, 0, 69, 65
1, 41811, Note_off_c, 0, 67, 54
1, 41812, Control_c, 0, 67, 56
1, 41821, Note_off_c, 0, 65, 67
1, 41827, Control_c, 0, 67, 51
1, 41848, Control_c, 0, 67, 46
1, 41862, Note_on_c, 0, 79, 66
1, 41863, Control_c, 0, 67, 40
1, 41869, Note_on_c, 0, 75, 56
1, 41871, Note_off_c, 0, 77, 61
1, 41878, Control_c, 0, 67, 35
1, 41893, Control_c, 0, 67, 31
1, 41903, Note_off_c, 0, 75, 66
1, 41908, Control_c, 0, 67, 28
1, 41923, Control_c, 0, 67, 25
1, 41929, Note_off_c, 0, 79, 61
1, 41932, Note_on_c, 0, 77, 66
1, 41938, Control_c, 0, 67, 21
1, 41953, Note_on_c, 0, 70, 62
1, 41953, Control_c, 0, 67, 16
1, 41955, Note_on_c, 0, 46, 61
1, 41967, Control_c, 0, 67, 11
1, 41981, Note_off_c, 0, 46, 65
1, 41982, Control_c, 0, 67, 0
1, 41986, Note_off_c, 0, 70, 62
1, 42016, Note_on_c, 0, 78, 69
1, 42016, Note_off_c, 0, 77, 58
1, 42021, Note_on_c, 0, 74, 67
1, 42052, Note_off_c, 0, 78, 60
1, 42104, Note_on_c, 0, 70, 70
1, 42105, Note_on_c, 0, 66, 71
1, 42112, Note_on_c, 0, 78, 64
1, 42114, Note_off_c, 0, 74, 61
1, 42116, Note_on_c, 0, 65, 70
1, 42130, Note_off_c, 0, 70, 67
1, 42131, Note_off_c, 0, 66, 68
1, 42140, Note_off_c, 0, 65, 69
1, 42184, Note_on_c, 0, 74, 51
1, 42186, Note_on_c, 0, 79, 70
1, 42188, Note_off_c, 0, 78, 63
1, 42204, Note_off_c, 0, 74, 61
1, 42221, Note_off_c, 0, 79, 62
1, 42263, Note_on_c, 0, 80, 78
1, 42263, Note_on_c, 0, 74, 73
1, 42290, Note_off_c, 0, 74, 62
1, 42302, Note_on_c, 0, 41, 21
1, 42302, Note_on_c, 0, 40, 20
1, 42334, Note_on_c, 0, 81, 83
1, 42339, Note_off_c, 0, 80, 57
1, 42341, Note_on_c, 0, 77, 77
1, 42347, Note_off_c, 0, 41, 53
1, 42350, Note_off_c, 0, 40, 30
1, 42373, Note_off_c, 0, 77, 60
1, 42373, Note_off_c, 0, 81, 63
1, 42382, Control_c, 0, 67, 9
1, 42397, Control_c, 0, 67, 15
1, 42412, Control_c, 0, 67, 23
1, 42413, Note_on_c, 0, 74, 70
1, 42415, Note_on_c, 0, 81, 71
1, 42417, Note_on_c, 0, 67, 74
1, 42427, Control_c, 0, 67, 27
1, 42429, Note_on_c, 0, 65, 71
1, 42442, Note_off_c, 0, 67, 69
1, 42443, Control_c, 0, 67, 28
1, 42454, Note_off_c, 0, 65, 68
1, 42457, Note_off_c, 0, 74, 66
1, 42472, Control_c, 0, 67, 27
1, 42474, Note_off_c, 0, 81, 62
1, 42498, Note_on_c, 0, 77, 48
1, 42498, Note_on_c, 0, 82, 76
1, 42502, Control_c, 0, 67, 26
1, 42517, Control_c, 0, 67, 26
1, 42521, Note_off_c, 0, 77, 60
1, 42529, Note_off_c, 0, 82, 62
1, 42531, Control_c, 0, 67, 25
1, 42546, Control_c, 0, 67, 25
1, 42586, Note_on_c, 0, 41, 73
1, 42594, Note_on_c, 0, 72, 75
1, 42595, Note_on_c, 0, 82, 74
1, 42615, Note_off_c, 0, 41, 67
1, 42620, Note_off_c, 0, 72, 67
1, 42626, Note_off_c, 0, 82, 63
1, 42643, Control_c, 0, 67, 25
1, 42667, Note_on_c, 0, 81, 66
1, 42680, Note_on_c, 0, 75, 71
1, 42697, Note_off_c, 0, 81, 62
1, 42707, Note_off_c, 0, 75, 68
1, 42747, Note_on_c, 0, 81, 79
1, 42756, Note_on_c, 0, 66, 65
1, 42759, Note_on_c, 0, 72, 66
1, 42761, Control_c, 0, 67, 25
1, 42775, Note_off_c, 0, 66, 67
1, 42781, Note_off_c, 0, 72, 63
1, 42784, Note_off_c, 0, 81, 61
1, 42805, Control_c, 0, 67, 24
1, 42835, Control_c, 0, 67, 24
1, 42837, Note_on_c, 0, 80, 69
1, 42849, Note_on_c, 0, 75, 64
1, 42850, Control_c, 0, 67, 23
1, 42864, Note_off_c, 0, 80, 66
1, 42865, Control_c, 0, 67, 23
1, 42892, Note_off_c, 0, 75, 59
1, 42912, Note_on_c, 0, 45, 66
1, 42922, Note_on_c, 0, 80, 72
1, 42934, Note_on_c, 0, 72, 46
1, 42938, Note_off_c, 0, 45, 66
1, 42950, Note_off_c, 0, 80, 63
1, 42957, Note_off_c, 0, 72, 57
1, 42969, Control_c, 0, 67, 22
1, 43006, Note_on_c, 0, 79, 61
1, 43014, Note_on_c, 0, 75, 59
1, 43014, Control_c, 0, 67, 22
1, 43031, Note_off_c, 0, 79, 57
1, 43044, Control_c, 0, 67, 21
1, 43046, Note_off_c, 0, 75, 67
1, 43059, Control_c, 0, 67, 20
1, 43074, Control_c, 0, 67, 20
1, 43077, Note_on_c, 0, 67, 53
1, 43082, Note_on_c, 0, 79, 78
1, 43086, Note_on_c, 0, 65, 65
1, 43088, Control_c, 0, 67, 18
1, 43094, Note_on_c, 0, 72, 54
1, 43097, Note_off_c, 0, 67, 58
1, 43103, Control_c, 0, 67, 18
1, 43115, Note_off_c, 0, 65, 67
1, 43118, Control_c, 0, 67, 16
1, 43121, Note_off_c, 0, 72, 57
1, 43132, Control_c, 0, 67, 15
1, 43147, Control_c, 0, 67, 14
1, 43148, Note_off_c, 0, 79, 58
1, 43162, Control_c, 0, 67, 12
1, 43164, Note_on_c, 0, 78, 71
1, 43176, Note_on_c, 0, 75, 60
1, 43177, Control_c, 0, 67, 11
1, 43188, Note_off_c, 0, 78, 68
1, 43192, Control_c, 0, 67, 10
1, 43196, Note_off_c, 0, 75, 64
1, 43206, Control_c, 0, 67, 9
1, 43221, Control_c, 0, 67, 9
1, 43234, Note_on_c, 0, 46, 63
1, 43244, Note_on_c, 0, 77, 69
1, 43248, Note_on_c, 0, 74, 63
1, 43265, Note_off_c, 0, 46, 63
1, 43282, Note_off_c, 0, 74, 61
1, 43327, Note_on_c, 0, 70, 73
1, 43341, Note_on_c, 0, 79, 65
1, 43349, Note_off_c, 0, 77, 55
1, 43390, Note_off_c, 0, 70, 60
1, 43393, Note_on_c, 0, 67, 64
1, 43409, Note_on_c, 0, 77, 65
1, 43419, Note_on_c, 0, 65, 71
1, 43419, Note_off_c, 0, 79, 37
1, 43420, Note_off_c, 0, 67, 65
1, 43426, Note_on_c, 0, 74, 60
1, 43452, Note_off_c, 0, 65, 62
1, 43452, Note_off_c, 0, 74, 70
1, 43472, Note_off_c, 0, 77, 59
1, 43484, Note_on_c, 0, 81, 79
1, 43515, Note_off_c, 0, 81, 60
1, 43525, Control_c, 0, 67, 9
1, 43539, Control_c, 0, 67, 10
1, 43550, Note_on_c, 0, 56, 74
1, 43554, Control_c, 0, 67, 10
1, 43559, Note_on_c, 0, 74, 69
1, 43569, Control_c, 0, 67, 11
1, 43572, Note_on_c, 0, 82, 78
1, 43580, Note_off_c, 0, 56, 65
1, 43584, Control_c, 0, 67, 13
1, 43593, Note_off_c, 0, 74, 62
1, 43599, Control_c, 0, 67, 14
1, 43613, Control_c, 0, 67, 16
1, 43628, Control_c, 0, 67, 18
1, 43640, Note_on_c, 0, 83, 78
1, 43640, Note_off_c, 0, 82, 64
1, 43643, Control_c, 0, 67, 20
1, 43645, Note_on_c, 0, 77, 73
1, 43658, Control_c, 0, 67, 25
1, 43673, Control_c, 0, 67, 32
1, 43688, Control_c, 0, 67, 38
1, 43703, Control_c, 0, 67, 45
1, 43704, Note_on_c, 0, 71, 73
1, 43718, Control_c, 0, 67, 52
1, 43719, Note_off_c, 0, 77, 46
1, 43720, Note_on_c, 0, 70, 86
1, 43720, Note_on_c, 0, 74, 57
1, 43728, Note_off_c, 0, 71, 67
1, 43731, Note_off_c, 0, 83, 59
1, 43733, Control_c, 0, 67, 61
1, 43735, Note_on_c, 0, 82, 75
1, 43748, Control_c, 0, 67, 68
1, 43750, Note_off_c, 0, 70, 63
1, 43753, Note_off_c, 0, 74, 64
1, 43762, Control_c, 0, 67, 73
1, 43777, Control_c, 0, 67, 76
1, 43792, Control_c, 0, 67, 77
1, 43795, Note_on_c, 0, 77, 29
1, 43802, Note_off_c, 0, 82, 65
1, 43807, Control_c, 0, 67, 78
1, 43812, Note_on_c, 0, 84, 70
1, 43816, Note_off_c, 0, 77, 48
1, 43852, Control_c, 0, 67, 77
1, 43860, Note_on_c, 0, 82, 71
1, 43867, Control_c, 0, 67, 77
1, 43869, Note_off_c, 0, 84, 62
1, 43884, Note_on_c, 0, 55, 71
1, 43896, Control_c, 0, 67, 76
1, 43909, Note_off_c, 0, 55, 68
1, 43911, Control_c, 0, 67, 76
1, 43913, Note_on_c, 0, 75, 9
1, 43944, Note_off_c, 0, 75, 31
1, 43952, Note_on_c, 0, 79, 69
1, 43953, Note_off_c, 0, 82, 57
1, 43956, Note_on_c, 0, 83, 64
1, 44010, Note_off_c, 0, 79, 50
1, 44033, Note_on_c, 0, 72, 66
1, 44042, Note_on_c, 0, 75, 64
1, 44050, Note_on_c, 0, 70, 67
1, 44054, Note_on_c, 0, 82, 70
1, 44056, Note_off_c, 0, 83, 60
1, 44059, Note_off_c, 0, 72, 66
1, 44072, Note_off_c, 0, 75, 66
1, 44084, Note_off_c, 0, 70, 68
1, 44111, Control_c, 0, 67, 75
1, 44123, Note_on_c, 0, 79, 59
1, 44126, Control_c, 0, 67, 75
1, 44127, Note_off_c, 0, 82, 61
1, 44129, Note_on_c, 0, 84, 69
1, 44141, Control_c, 0, 67, 74
1, 44150, Note_off_c, 0, 79, 58
1, 44170, Control_c, 0, 67, 73
1, 44200, Control_c, 0, 67, 73
1, 44208, Note_off_c, 0, 84, 64
1, 44213, Note_on_c, 0, 82, 59
1, 44215, Control_c, 0, 67, 72
1, 44217, Note_on_c, 0, 77, 55
1, 44226, Note_on_c, 0, 50, 65
1, 44248, Note_off_c, 0, 77, 53
1, 44255, Note_off_c, 0, 50, 65
1, 44290, Note_on_c, 0, 83, 63
1, 44294, Note_off_c, 0, 82, 64
1, 44302, Note_on_c, 0, 80, 54
1, 44343, Note_off_c, 0, 80, 45
1, 44377, Note_on_c, 0, 77, 59
1, 44382, Note_on_c, 0, 82, 68
1, 44383, Note_off_c, 0, 83, 48
1, 44407, Note_off_c, 0, 77, 59
1, 44413, Note_on_c, 0, 70, 51
1, 44435, Note_off_c, 0, 70, 57
1, 44436, Control_c, 0, 67, 72
1, 44451, Control_c, 0, 67, 71
1, 44456, Note_on_c, 0, 80, 72
1, 44458, Note_on_c, 0, 84, 58
1, 44458, Note_off_c, 0, 82, 63
1, 44466, Control_c, 0, 67, 70
1, 44481, Control_c, 0, 67, 69
1, 44487, Note_off_c, 0, 84, 63
1, 44493, Note_off_c, 0, 80, 62
1, 44495, Control_c, 0, 67, 69
1, 44512, Control_c, 0, 67, 68
1, 44527, Control_c, 0, 67, 67
1, 44539, Note_on_c, 0, 82, 84
1, 44541, Control_c, 0, 67, 65
1, 44553, Note_on_c, 0, 75, 61
1, 44556, Control_c, 0, 67, 63
1, 44562, Note_on_c, 0, 51, 64
1, 44571, Control_c, 0, 67, 62
1, 44573, Note_off_c, 0, 75, 66
1, 44581, Note_off_c, 0, 82, 61
1, 44585, Control_c, 0, 67, 60
1, 44592, Note_off_c, 0, 51, 64
1, 44600, Control_c, 0, 67, 59
1, 44615, Note_on_c, 0, 79, 83
1, 44615, Control_c, 0, 67, 57
1, 44625, Note_on_c, 0, 82, 52
1, 44630, Control_c, 0, 67, 56
1, 44645, Control_c, 0, 67, 55
1, 44648, Note_off_c, 0, 82, 59
1, 44659, Control_c, 0, 67, 53
1, 44663, Note_on_c, 0, 83, 16
1, 44665, Note_off_c, 0, 79, 61
1, 44674, Control_c, 0, 67, 52
1, 44689, Control_c, 0, 67, 51
1, 44695, Note_off_c, 0, 83, 0
1, 44695, Note_on_c, 0, 83, 18
1, 44704, Control_c, 0, 67, 49
1, 44706, Note_on_c, 0, 75, 68
1, 44711, Note_on_c, 0, 71, 63
1, 44714, Note_on_c, 0, 70, 75
1, 44719, Control_c, 0, 67, 48
1, 44724, Note_off_c, 0, 75, 67
1, 44728, Note_off_c, 0, 71, 62
1, 44734, Control_c, 0, 67, 47
1, 44739, Note_off_c, 0, 70, 67
1, 44749, Control_c, 0, 67, 44
1, 44764, Control_c, 0, 67, 41
1, 44778, Control_c, 0, 67, 38
1, 44784, Note_on_c, 0, 79, 47
1, 44785, Note_on_c, 0, 84, 78
1, 44793, Control_c, 0, 67, 35
1, 44797, Note_off_c, 0, 83, 59
1, 44806, Note_off_c, 0, 79, 52
1, 44808, Control_c, 0, 67, 32
1, 44813, Note_off_c, 0, 84, 66
1, 44830, Control_c, 0, 67, 29
1, 44845, Control_c, 0, 67, 26
1, 44859, Control_c, 0, 67, 26
1, 44875, Note_on_c, 0, 85, 83
1, 44877, Note_on_c, 0, 79, 77
1, 44883, Note_on_c, 0, 46, 64
1, 44901, Note_off_c, 0, 79, 67
1, 44910, Note_off_c, 0, 46, 62
1, 44917, Note_off_c, 0, 85, 54
1, 44934, Control_c, 0, 67, 26
1, 44949, Control_c, 0, 67, 27
1, 44956, Note_on_c, 0, 82, 79
1, 44959, Note_on_c, 0, 85, 32
1, 44963, Control_c, 0, 67, 28
1, 44966, Note_on_c, 0, 86, 65
1, 44978, Note_off_c, 0, 85, 53
1, 44978, Control_c, 0, 67, 29
1, 44980, Note_off_c, 0, 82, 63
1, 44982, Note_off_c, 0, 86, 63
1, 44993, Control_c, 0, 67, 29
1, 45008, Control_c, 0, 67, 30
1, 45023, Control_c, 0, 67, 31
1, 45027, Note_on_c, 0, 79, 67
1, 45035, Note_on_c, 0, 72, 59
1, 45037, Note_on_c, 0, 86, 81
1, 45038, Control_c, 0, 67, 31
1, 45047, Note_on_c, 0, 70, 72
1, 45053, Note_off_c, 0, 72, 64
1, 45053, Control_c, 0, 67, 32
1, 45061, Note_off_c, 0, 79, 60
1, 45061, Note_off_c, 0, 86, 64
1, 45067, Control_c, 0, 67, 32
1, 45071, Note_off_c, 0, 70, 69
1, 45119, Note_on_c, 0, 87, 73
1, 45122, Note_on_c, 0, 82, 68
1, 45139, Note_off_c, 0, 82, 67
1, 45141, Control_c, 0, 67, 32
1, 45142, Note_off_c, 0, 87, 69
1, 45156, Control_c, 0, 67, 31
1, 45209, Note_on_c, 0, 46, 63
1, 45210, Note_on_c, 0, 77, 67
1, 45218, Note_on_c, 0, 86, 59
1, 45238, Note_off_c, 0, 86, 61
1, 45239, Note_off_c, 0, 46, 62
1, 45241, Note_off_c, 0, 77, 61
1, 45284, Note_on_c, 0, 86, 65
1, 45289, Control_c, 0, 67, 32
1, 45297, Note_on_c, 0, 80, 66
1, 45316, Note_off_c, 0, 86, 60
1, 45324, Note_off_c, 0, 80, 68
1, 45351, Note_on_c, 0, 86, 79
1, 45369, Note_on_c, 0, 77, 63
1, 45382, Note_on_c, 0, 70, 69
1, 45390, Note_off_c, 0, 86, 64
1, 45394, Control_c, 0, 67, 31
1, 45402, Note_off_c, 0, 77, 53
1, 45404, Note_off_c, 0, 70, 66
1, 45408, Control_c, 0, 67, 31
1, 45423, Control_c, 0, 67, 30
1, 45438, Control_c, 0, 67, 29
1, 45439, Note_on_c, 0, 85, 71
1, 45446, Note_on_c, 0, 80, 70
1, 45453, Control_c, 0, 67, 29
1, 45461, Note_off_c, 0, 85, 71
1, 45468, Control_c, 0, 67, 28
1, 45497, Control_c, 0, 67, 28
1, 45509, Note_off_c, 0, 80, 39
1, 45512, Control_c, 0, 67, 27
1, 45519, Note_on_c, 0, 50, 70
1, 45522, Note_on_c, 0, 85, 74
1, 45527, Note_on_c, 0, 77, 68
1, 45546, Note_off_c, 0, 50, 66
1, 45557, Note_off_c, 0, 77, 61
1, 45563, Note_off_c, 0, 85, 57
1, 45608, Note_on_c, 0, 84, 69
1, 45622, Note_on_c, 0, 80, 66
1, 45636, Note_off_c, 0, 84, 64
1, 45650, Note_off_c, 0, 80, 67
1, 45682, Control_c, 0, 67, 27
1, 45685, Note_on_c, 0, 84, 76
1, 45691, Note_on_c, 0, 77, 65
1, 45693, Note_on_c, 0, 70, 58
1, 45694, Note_on_c, 0, 72, 27
1, 45697, Control_c, 0, 67, 26
1, 45712, Note_off_c, 0, 70, 65
1, 45715, Note_off_c, 0, 77, 59
1, 45727, Note_off_c, 0, 72, 33
1, 45727, Control_c, 0, 67, 26
1, 45747, Note_off_c, 0, 84, 59
1, 45769, Note_on_c, 0, 83, 73
1, 45816, Control_c, 0, 67, 25
1, 45827, Note_on_c, 0, 51, 70
1, 45843, Note_on_c, 0, 82, 78
1, 45844, Note_off_c, 0, 83, 61
1, 45852, Note_on_c, 0, 79, 68
1, 45859, Note_off_c, 0, 51, 65
1, 45912, Note_off_c, 0, 79, 51
1, 45925, Note_on_c, 0, 83, 71
1, 45929, Note_on_c, 0, 75, 69
1, 45932, Note_off_c, 0, 82, 63
1, 45967, Note_on_c, 0, 71, 69
1, 45985, Note_off_c, 0, 75, 63
1, 45998, Note_on_c, 0, 70, 71
1, 46002, Note_off_c, 0, 71, 61
1, 46006, Note_on_c, 0, 82, 68
1, 46008, Control_c, 0, 67, 26
1, 46010, Note_off_c, 0, 83, 58
1, 46011, Note_on_c, 0, 79, 71
1, 46031, Note_off_c, 0, 70, 64
1, 46038, Control_c, 0, 67, 26
1, 46044, Note_off_c, 0, 79, 61
1, 46060, Note_off_c, 0, 82, 61
1, 46060, Note_on_c, 0, 75, 66
1, 46066, Note_on_c, 0, 84, 79
1, 46093, Note_off_c, 0, 75, 69
1, 46110, Note_off_c, 0, 84, 64
1, 46113, Control_c, 0, 67, 27
1, 46128, Control_c, 0, 67, 28
1, 46143, Control_c, 0, 67, 29
1, 46148, Note_on_c, 0, 56, 75
1, 46152, Note_on_c, 0, 82, 79
1, 46157, Control_c, 0, 67, 31
1, 46162, Note_on_c, 0, 74, 59
1, 46172, Control_c, 0, 67, 32
1, 46180, Note_off_c, 0, 56, 64
1, 46187, Control_c, 0, 67, 34
1, 46202, Control_c, 0, 67, 35
1, 46214, Note_off_c, 0, 74, 54
1, 46217, Control_c, 0, 67, 37
1, 46225, Note_on_c, 0, 83, 74
1, 46227, Note_off_c, 0, 82, 62
1, 46229, Note_on_c, 0, 77, 65
1, 46231, Control_c, 0, 67, 42
1, 46246, Control_c, 0, 67, 48
1, 46261, Control_c, 0, 67, 55
1, 46276, Control_c, 0, 67, 59
1, 46291, Control_c, 0, 67, 60
1, 46301, Note_on_c, 0, 72, 68
1, 46305, Note_off_c, 0, 83, 53
1, 46305, Control_c, 0, 67, 62
1, 46306, Note_off_c, 0, 77, 52
1, 46313, Note_on_c, 0, 74, 66
1, 46314, Note_on_c, 0, 70, 76
1, 46320, Note_off_c, 0, 72, 67
1, 46333, Note_on_c, 0, 82, 69
1, 46343, Control_c, 0, 67, 61
1, 46347, Note_off_c, 0, 70, 68
1, 46364, Note_off_c, 0, 74, 65
1, 46372, Control_c, 0, 67, 60
1, 46387, Control_c, 0, 67, 60
1, 46394, Note_on_c, 0, 77, 61
1, 46402, Control_c, 0, 67, 59
1, 46403, Note_off_c, 0, 82, 63
1, 46408, Note_on_c, 0, 84, 74
1, 46417, Note_off_c, 0, 77, 65
1, 46417, Control_c, 0, 67, 59
1, 46431, Control_c, 0, 67, 58
1, 46446, Control_c, 0, 67, 58
1, 46469, Note_on_c, 0, 82, 68
1, 46473, Note_off_c, 0, 84, 65
1, 46474, Note_on_c, 0, 55, 70
1, 46487, Note_on_c, 0, 75, 53
1, 46502, Note_off_c, 0, 55, 65
1, 46507, Note_off_c, 0, 75, 59
1, 46550, Control_c, 0, 67, 58
1, 46555, Note_off_c, 0, 82, 59
1, 46558, Note_on_c, 0, 83, 64
1, 46560, Note_on_c, 0, 79, 63
1, 46564, Control_c, 0, 67, 59
1, 46579, Control_c, 0, 67, 59
1, 46637, Note_off_c, 0, 79, 37
1, 46640, Note_on_c, 0, 71, 56
1, 46648, Note_on_c, 0, 75, 53
1, 46654, Note_on_c, 0, 70, 60
1, 46659, Note_on_c, 0, 82, 62
1, 46659, Note_off_c, 0, 71, 60
1, 46661, Note_off_c, 0, 83, 59
1, 46676, Note_off_c, 0, 70, 66
1, 46684, Note_off_c, 0, 75, 64
1, 46720, Note_on_c, 0, 79, 60
1, 46720, Note_off_c, 0, 82, 62
1, 46723, Note_on_c, 0, 84, 70
1, 46728, Control_c, 0, 67, 59
1, 46743, Control_c, 0, 67, 58
1, 46754, Note_off_c, 0, 79, 63
1, 46757, Control_c, 0, 67, 58
1, 46787, Control_c, 0, 67, 57
1, 46803, Note_off_c, 0, 84, 63
1, 46808, Note_on_c, 0, 82, 63
1, 46812, Note_on_c, 0, 50, 54
1, 46817, Control_c, 0, 67, 57
1, 46818, Note_on_c, 0, 77, 56
1, 46838, Note_off_c, 0, 50, 54
1, 46852, Note_off_c, 0, 77, 50
1, 46882, Note_off_c, 0, 82, 56
1, 46891, Note_on_c, 0, 83, 61
1, 46896, Note_on_c, 0, 80, 64
1, 46907, Control_c, 0, 67, 57
1, 46950, Control_c, 0, 67, 58
1, 46964, Note_off_c, 0, 80, 57
1, 46972, Note_on_c, 0, 77, 62
1, 46982, Note_on_c, 0, 70, 71
1, 46984, Note_on_c, 0, 82, 71
1, 46986, Note_off_c, 0, 83, 54
1, 47009, Note_on_c, 0, 72, 4
1, 47010, Note_off_c, 0, 72, 127
1, 47010, Note_off_c, 0, 70, 66
1, 47010, Note_off_c, 0, 77, 60
1, 47010, Control_c, 0, 67, 57
1, 47039, Control_c, 0, 67, 57
1, 47050, Note_off_c, 0, 82, 63
1, 47052, Note_on_c, 0, 84, 70
1, 47065, Note_on_c, 0, 80, 68
1, 47068, Control_c, 0, 67, 56
1, 47092, Note_off_c, 0, 80, 66
1, 47106, Control_c, 0, 67, 55
1, 47121, Control_c, 0, 67, 55
1, 47142, Note_on_c, 0, 82, 78
1, 47150, Control_c, 0, 67, 54
1, 47151, Note_on_c, 0, 51, 63
1, 47154, Note_on_c, 0, 75, 63
1, 47156, Note_off_c, 0, 84, 61
1, 47165, Control_c, 0, 67, 53
1, 47177, Note_off_c, 0, 51, 65
1, 47179, Control_c, 0, 67, 53
1, 47187, Note_off_c, 0, 75, 61
1, 47194, Control_c, 0, 67, 52
1, 47209, Control_c, 0, 67, 51
1, 47222, Note_on_c, 0, 79, 75
1, 47224, Control_c, 0, 67, 50
1, 47229, Note_on_c, 0, 83, 51
1, 47239, Control_c, 0, 67, 49
1, 47240, Note_off_c, 0, 82, 59
1, 47253, Control_c, 0, 67, 47
1, 47267, Note_off_c, 0, 79, 60
1, 47268, Control_c, 0, 67, 44
1, 47274, Note_off_c, 0, 83, 0
1, 47283, Control_c, 0, 67, 40
1, 47298, Control_c, 0, 67, 35
1, 47300, Note_on_c, 0, 75, 72
1, 47306, Note_on_c, 0, 71, 57
1, 47308, Note_on_c, 0, 70, 84
1, 47311, Poly_aftertouch_c, 0, 83, 127
1, 47312, Control_c, 0, 67, 30
1, 47323, Note_off_c, 0, 75, 70
1, 47326, Note_off_c, 0, 71, 58
1, 47327, Control_c, 0, 67, 26
1, 47333, Note_off_c, 0, 70, 68
1, 47342, Control_c, 0, 67, 23
1, 47357, Control_c, 0, 67, 22
1, 47381, Note_on_c, 0, 79, 68
1, 47385, Poly_aftertouch_c, 0, 83, 0
1, 47390, Note_on_c, 0, 84, 78
1, 47398, Note_off_c, 0, 79, 64
1, 47417, Control_c, 0, 67, 22
1, 47423, Note_off_c, 0, 84, 66
1, 47464, Note_on_c, 0, 79, 77
1, 47468, Note_on_c, 0, 85, 75
1, 47473, Note_on_c, 0, 46, 66
1, 47500, Note_off_c, 0, 46, 62
1, 47502, Note_off_c, 0, 79, 57
1, 47520, Control_c, 0, 67, 22
1, 47535, Control_c, 0, 67, 23
1, 47544, Note_on_c, 0, 82, 80
1, 47545, Note_off_c, 0, 85, 36
1, 47546, Note_on_c, 0, 86, 72
1, 47550, Control_c, 0, 67, 24
1, 47565, Control_c, 0, 67, 25
1, 47575, Note_off_c, 0, 86, 63
1, 47579, Control_c, 0, 67, 27
1, 47581, Note_off_c, 0, 82, 64
1, 47594, Control_c, 0, 67, 29
1, 47609, Control_c, 0, 67, 30
1, 47614, Note_on_c, 0, 79, 74
1, 47620, Note_on_c, 0, 86, 71
1, 47624, Control_c, 0, 67, 32
1, 47628, Note_on_c, 0, 72, 63
1, 47639, Control_c, 0, 67, 34
1, 47640, Note_on_c, 0, 70, 67
1, 47646, Note_off_c, 0, 72, 64
1, 47654, Control_c, 0, 67, 36
1, 47655, Note_off_c, 0, 79, 62
1, 47667, Note_off_c, 0, 70, 67
1, 47669, Control_c, 0, 67, 39
1, 47670, Note_off_c, 0, 86, 63
1, 47683, Control_c, 0, 67, 42
1, 47699, Control_c, 0, 67, 44
1, 47704, Note_on_c, 0, 87, 76
1, 47706, Note_on_c, 0, 82, 68
1, 47714, Control_c, 0, 67, 46
1, 47730, Note_off_c, 0, 82, 66
1, 47733, Note_off_c, 0, 87, 64
1, 47758, Control_c, 0, 67, 45
1, 47791, Note_on_c, 0, 87, 75
1, 47798, Note_on_c, 0, 77, 68
1, 47800, Note_on_c, 0, 46, 63
1, 47827, Note_off_c, 0, 87, 64
1, 47829, Note_off_c, 0, 77, 63
1, 47836, Note_off_c, 0, 46, 62
1, 47840, Control_c, 0, 67, 46
1, 47876, Note_on_c, 0, 86, 72
1, 47886, Note_on_c, 0, 80, 74
1, 47903, Note_off_c, 0, 86, 64
1, 47911, Note_off_c, 0, 80, 67
1, 47953, Note_on_c, 0, 86, 76
1, 47970, Note_on_c, 0, 77, 64
1, 47984, Note_on_c, 0, 70, 61
1, 47986, Note_off_c, 0, 86, 63
1, 47988, Control_c, 0, 67, 45
1, 47997, Note_off_c, 0, 77, 51
1, 48002, Note_off_c, 0, 70, 64
1, 48002, Control_c, 0, 67, 45
1, 48017, Control_c, 0, 67, 44
1, 48032, Control_c, 0, 67, 44
1, 48040, Note_on_c, 0, 85, 72
1, 48047, Control_c, 0, 67, 43
1, 48052, Note_on_c, 0, 80, 67
1, 48061, Note_off_c, 0, 85, 70
1, 48062, Control_c, 0, 67, 43
1, 48091, Control_c, 0, 67, 42
1, 48092, Note_off_c, 0, 80, 55
1, 48106, Control_c, 0, 67, 42
1, 48118, Note_on_c, 0, 85, 79
1, 48121, Control_c, 0, 67, 41
1, 48123, Note_on_c, 0, 77, 71
1, 48126, Note_on_c, 0, 50, 54
1, 48153, Note_off_c, 0, 77, 60
1, 48153, Note_off_c, 0, 50, 55
1, 48168, Note_off_c, 0, 85, 63
1, 48204, Note_on_c, 0, 84, 71
1, 48208, Note_on_c, 0, 80, 66
1, 48225, Control_c, 0, 67, 41
1, 48228, Note_off_c, 0, 84, 69
1, 48234, Note_off_c, 0, 80, 64
1, 48239, Control_c, 0, 67, 40
1, 48254, Control_c, 0, 67, 40
1, 48269, Control_c, 0, 67, 39
1, 48278, Note_on_c, 0, 84, 90
1, 48283, Note_on_c, 0, 77, 68
1, 48284, Control_c, 0, 67, 38
1, 48287, Note_on_c, 0, 70, 65
1, 48289, Note_on_c, 0, 72, 31
1, 48299, Control_c, 0, 67, 37
1, 48300, Note_off_c, 0, 77, 64
1, 48308, Note_off_c, 0, 70, 67
1, 48314, Control_c, 0, 67, 35
1, 48319, Note_off_c, 0, 72, 33
1, 48320, Note_off_c, 0, 84, 61
1, 48328, Control_c, 0, 67, 33
1, 48343, Control_c, 0, 67, 29
1, 48358, Control_c, 0, 67, 25
1, 48361, Note_on_c, 0, 83, 78
1, 48373, Control_c, 0, 67, 22
1, 48388, Control_c, 0, 67, 18
1, 48402, Control_c, 0, 67, 15
1, 48417, Control_c, 0, 67, 12
1, 48428, Note_off_c, 0, 83, 44
1, 48431, Note_on_c, 0, 51, 66
1, 48432, Control_c, 0, 67, 10
1, 48436, Note_on_c, 0, 82, 82
1, 48439, Note_on_c, 0, 79, 78
1, 48446, Control_c, 0, 67, 8
1, 48461, Control_c, 0, 67, 0
1, 48471, Note_off_c, 0, 51, 48
1, 48490, Note_off_c, 0, 79, 57
1, 48521, Note_on_c, 0, 75, 82
1, 48525, Note_on_c, 0, 84, 74
1, 48525, Note_off_c, 0, 82, 64
1, 48597, Note_on_c, 0, 82, 76
1, 48602, Note_on_c, 0, 79, 81
1, 48603, Note_off_c, 0, 75, 64
1, 48613, Note_off_c, 0, 84, 64
1, 48648, Note_off_c, 0, 79, 60
1, 48666, Note_on_c, 0, 87, 87
1, 48675, Note_off_c, 0, 82, 64
1, 48687, Note_off_c, 0, 87, 67
1, 48722, Note_on_c, 0, 35, 72
1, 48729, Note_on_c, 0, 47, 74
1, 48747, Note_on_c, 0, 91, 97
1, 48748, Note_on_c, 0, 80, 96
1, 48750, Note_off_c, 0, 35, 65
1, 48754, Note_off_c, 0, 47, 67
1, 48774, Note_off_c, 0, 91, 50
1, 48808, Note_off_c, 0, 80, 58
1, 48812, Note_on_c, 0, 87, 82
1, 48841, Note_on_c, 0, 86, 60
1, 48843, Note_on_c, 0, 88, 62
1, 48855, Note_off_c, 0, 87, 54
1, 48867, Note_off_c, 0, 88, 57
1, 48892, Note_on_c, 0, 56, 48
1, 48894, Note_on_c, 0, 62, 41
1, 48896, Note_on_c, 0, 91, 79
1, 48905, Note_on_c, 0, 80, 78
1, 48912, Note_off_c, 0, 86, 47
1, 48917, Note_off_c, 0, 56, 57
1, 48925, Note_off_c, 0, 62, 33
1, 48944, Note_off_c, 0, 80, 63
1, 48947, Note_off_c, 0, 91, 54
1, 48961, Note_on_c, 0, 48, 69
1, 48981, Note_on_c, 0, 86, 66
1, 49006, Note_off_c, 0, 48, 62
1, 49023, Note_off_c, 0, 86, 63
1, 49032, Note_on_c, 0, 55, 40
1, 49060, Note_on_c, 0, 63, 73
1, 49062, Note_on_c, 0, 89, 83
1, 49067, Note_on_c, 0, 79, 77
1, 49084, Note_off_c, 0, 63, 70
1, 49094, Note_off_c, 0, 55, 63
1, 49102, Note_off_c, 0, 89, 56
1, 49109, Note_off_c, 0, 79, 57
1, 49133, Note_on_c, 0, 86, 78
1, 49140, Note_on_c, 0, 84, 71
1, 49165, Note_off_c, 0, 86, 63
1, 49187, Note_off_c, 0, 84, 61
1, 49201, Note_on_c, 0, 89, 84
1, 49214, Note_on_c, 0, 79, 76
1, 49245, Note_off_c, 0, 79, 58
1, 49259, Note_off_c, 0, 89, 59
1, 49282, Note_on_c, 0, 85, 77
1, 49284, Note_on_c, 0, 87, 68
1, 49311, Note_off_c, 0, 85, 69
1, 49312, Note_off_c, 0, 87, 66
1, 49353, Control_c, 0, 64, 65
1, 49361, Note_on_c, 0, 38, 70
1, 49363, Note_on_c, 0, 50, 75
1, 49368, Control_c, 0, 64, 70
1, 49369, Note_on_c, 0, 87, 92
1, 49371, Note_on_c, 0, 77, 84
1, 49382, Control_c, 0, 64, 76
1, 49387, Note_off_c, 0, 38, 65
1, 49394, Note_off_c, 0, 50, 66
1, 49397, Control_c, 0, 64, 82
1, 49407, Note_off_c, 0, 77, 60
1, 49412, Control_c, 0, 64, 87
1, 49413, Note_off_c, 0, 87, 65
1, 49427, Control_c, 0, 64, 91
1, 49442, Control_c, 0, 64, 96
1, 49449, Note_on_c, 0, 85, 81
1, 49455, Note_on_c, 0, 83, 75
1, 49456, Control_c, 0, 64, 101
1, 49471, Control_c, 0, 64, 104
1, 49486, Control_c, 0, 64, 105
1, 49497, Note_off_c, 0, 85, 62
1, 49522, Note_off_c, 0, 83, 41
1, 49530, Note_on_c, 0, 87, 84
1, 49533, Note_on_c, 0, 77, 81
1, 49559, Note_on_c, 0, 65, 39
1, 49560, Control_c, 0, 64, 104
1, 49572, Note_on_c, 0, 51, 68
1, 49575, Control_c, 0, 64, 98
1, 49587, Note_off_c, 0, 65, 53
1, 49587, Note_off_c, 0, 87, 65
1, 49590, Control_c, 0, 64, 85
1, 49596, Note_off_c, 0, 77, 56
1, 49603, Note_off_c, 0, 51, 61
1, 49605, Control_c, 0, 64, 68
1, 49611, Note_on_c, 0, 83, 76
1, 49618, Note_on_c, 0, 86, 50
1, 49620, Control_c, 0, 64, 0
1, 49626, Note_on_c, 0, 60, 58
1, 49632, Note_off_c, 0, 83, 67
1, 49641, Note_off_c, 0, 86, 54
1, 49664, Control_c, 0, 64, 39
1, 49675, Note_on_c, 0, 67, 72
1, 49679, Control_c, 0, 64, 66
1, 49691, Note_on_c, 0, 75, 89
1, 49692, Note_on_c, 0, 86, 90
1, 49694, Control_c, 0, 64, 72
1, 49699, Note_off_c, 0, 67, 66
1, 49708, Note_off_c, 0, 60, 63
1, 49708, Control_c, 0, 64, 78
1, 49723, Control_c, 0, 64, 80
1, 49730, Note_off_c, 0, 75, 51
1, 49738, Control_c, 0, 64, 82
1, 49751, Note_off_c, 0, 86, 54
1, 49753, Control_c, 0, 64, 83
1, 49757, Note_on_c, 0, 83, 74
1, 49768, Control_c, 0, 64, 85
1, 49769, Note_on_c, 0, 79, 70
1, 49782, Control_c, 0, 64, 87
1, 49797, Control_c, 0, 64, 89
1, 49812, Control_c, 0, 64, 91
1, 49827, Control_c, 0, 64, 93
1, 49842, Control_c, 0, 64, 95
1, 49843, Note_on_c, 0, 86, 84
1, 49844, Note_on_c, 0, 75, 78
1, 49845, Note_off_c, 0, 83, 61
1, 49851, Note_off_c, 0, 79, 59
1, 49856, Control_c, 0, 64, 97
1, 49871, Control_c, 0, 64, 100
1, 49886, Control_c, 0, 64, 102
1, 49900, Control_c, 0, 64, 103
1, 49902, Note_off_c, 0, 75, 59
1, 49912, Note_off_c, 0, 86, 61
1, 49922, Note_on_c, 0, 79, 59
1, 49930, Note_on_c, 0, 84, 55
1, 49930, Control_c, 0, 64, 102
1, 49945, Control_c, 0, 64, 94
1, 49950, Note_off_c, 0, 84, 61
1, 49951, Note_off_c, 0, 79, 64
1, 49960, Control_c, 0, 64, 81
1, 49974, Control_c, 0, 64, 66
1, 49989, Control_c, 0, 64, 0
1, 49998, Note_on_c, 0, 40, 61
1, 50008, Note_on_c, 0, 79, 67
1, 50008, Note_on_c, 0, 84, 82
1, 50034, Control_c, 0, 64, 58
1, 50041, Note_off_c, 0, 79, 55
1, 50049, Control_c, 0, 64, 68
1, 50054, Note_off_c, 0, 84, 50
1, 50064, Control_c, 0, 64, 73
1, 50086, Control_c, 0, 64, 76
1, 50099, Note_on_c, 0, 81, 77
1, 50102, Control_c, 0, 64, 77
1, 50111, Note_on_c, 0, 73, 56
1, 50117, Control_c, 0, 64, 79
1, 50125, Note_off_c, 0, 40, 33
1, 50131, Control_c, 0, 64, 81
1, 50135, Note_off_c, 0, 73, 57
1, 50146, Control_c, 0, 64, 83
1, 50161, Control_c, 0, 64, 85
1, 50168, Note_off_c, 0, 81, 61
1, 50169, Note_on_c, 0, 79, 76
1, 50174, Note_on_c, 0, 46, 62
1, 50176, Note_on_c, 0, 84, 66
1, 50176, Control_c, 0, 64, 86
1, 50191, Control_c, 0, 64, 89
1, 50205, Control_c, 0, 64, 93
1, 50220, Control_c, 0, 64, 98
1, 50235, Control_c, 0, 64, 101
1, 50242, Note_on_c, 0, 73, 68
1, 50243, Note_on_c, 0, 82, 78
1, 50243, Note_off_c, 0, 79, 61
1, 50247, Note_off_c, 0, 84, 59
1, 50250, Control_c, 0, 64, 103
1, 50266, Note_off_c, 0, 82, 68
1, 50270, Note_off_c, 0, 73, 67
1, 50294, Control_c, 0, 64, 100
1, 50309, Control_c, 0, 64, 88
1, 50323, Control_c, 0, 64, 70
1, 50329, Note_on_c, 0, 74, 77
1, 50329, Note_on_c, 0, 81, 82
1, 50333, Note_on_c, 0, 52, 70
1, 50338, Control_c, 0, 64, 0
1, 50368, Note_off_c, 0, 74, 51
1, 50398, Control_c, 0, 64, 61
1, 50410, Note_on_c, 0, 78, 77
1, 50411, Note_on_c, 0, 70, 72
1, 50411, Note_off_c, 0, 46, 39
1, 50413, Control_c, 0, 64, 71
1, 50416, Note_off_c, 0, 81, 63
1, 50427, Control_c, 0, 64, 77
1, 50442, Control_c, 0, 64, 81
1, 50454, Note_off_c, 0, 70, 50
1, 50457, Control_c, 0, 64, 84
1, 50464, Poly_aftertouch_c, 0, 74, 0
1, 50472, Control_c, 0, 64, 88
1, 50479, Note_on_c, 0, 74, 50
1, 50484, Note_on_c, 0, 81, 85
1, 50487, Control_c, 0, 64, 93
1, 50490, Note_off_c, 0, 52, 61
1, 50499, Note_on_c, 0, 58, 69
1, 50499, Note_off_c, 0, 78, 63
1, 50502, Control_c, 0, 64, 102
1, 50516, Control_c, 0, 64, 111
1, 50531, Control_c, 0, 64, 119
1, 50546, Control_c, 0, 64, 120
1, 50547, Note_off_c, 0, 58, 59
1, 50565, Note_on_c, 0, 70, 80
1, 50568, Note_off_c, 0, 81, 61
1, 50571, Note_off_c, 0, 74, 65
1, 50574, Note_on_c, 0, 79, 54
1, 50576, Control_c, 0, 64, 116
1, 50590, Control_c, 0, 64, 99
1, 50591, Note_off_c, 0, 70, 58
1, 50594, Note_off_c, 0, 79, 56
1, 50605, Control_c, 0, 64, 81
1, 50620, Control_c, 0, 64, 57
1, 50635, Control_c, 0, 64, 0
1, 50654, Note_on_c, 0, 77, 81
1, 50657, Note_on_c, 0, 70, 76
1, 50666, Note_on_c, 0, 55, 51
1, 50671, Note_on_c, 0, 61, 52
1, 50690, Note_off_c, 0, 70, 59
1, 50694, Control_c, 0, 64, 44
1, 50709, Control_c, 0, 64, 66
1, 50723, Control_c, 0, 64, 70
1, 50735, Note_on_c, 0, 67, 71
1, 50738, Control_c, 0, 64, 73
1, 50739, Note_off_c, 0, 77, 62
1, 50744, Note_on_c, 0, 75, 70
1, 50753, Control_c, 0, 64, 75
1, 50768, Control_c, 0, 64, 77
1, 50783, Note_off_c, 0, 55, 58
1, 50783, Control_c, 0, 64, 79
1, 50785, Note_off_c, 0, 67, 59
1, 50797, Control_c, 0, 64, 80
1, 50812, Control_c, 0, 64, 81
1, 50826, Note_on_c, 0, 58, 56
1, 50832, Note_off_c, 0, 75, 64
1, 50833, Note_on_c, 0, 77, 68
1, 50835, Control_c, 0, 64, 82
1, 50836, Note_off_c, 0, 61, 35
1, 50839, Note_on_c, 0, 73, 61
1, 50849, Control_c, 0, 64, 82
1, 50864, Control_c, 0, 64, 83
1, 50876, Note_off_c, 0, 73, 61
1, 50879, Control_c, 0, 64, 84
1, 50881, Note_off_c, 0, 58, 50
1, 50894, Control_c, 0, 64, 85
1, 50910, Control_c, 0, 64, 86
1, 50912, Note_off_c, 0, 77, 59
1, 50916, Note_on_c, 0, 76, 69
1, 50925, Control_c, 0, 64, 86
1, 50928, Note_on_c, 0, 67, 47
1, 50948, Note_on_c, 0, 53, 51
1, 50967, Note_off_c, 0, 67, 48
1, 50984, Control_c, 0, 64, 85
1, 50999, Control_c, 0, 64, 81
1, 51014, Control_c, 0, 64, 71
1, 51028, Control_c, 0, 64, 31
1, 51043, Control_c, 0, 64, 0
1, 51082, Note_on_c, 0, 62, 50
1, 51101, Note_on_c, 0, 79, 79
1, 51112, Note_on_c, 0, 70, 61
1, 51146, Control_c, 0, 64, 52
1, 51161, Control_c, 0, 64, 64
1, 51176, Control_c, 0, 64, 69
1, 51178, Note_off_c, 0, 76, 0
1, 51191, Note_off_c, 0, 70, 62
1, 51191, Control_c, 0, 64, 73
1, 51206, Control_c, 0, 64, 76
1, 51215, Poly_aftertouch_c, 0, 76, 127
1, 51220, Control_c, 0, 64, 79
1, 51232, Note_off_c, 0, 53, 52
1, 51235, Control_c, 0, 64, 82
1, 51250, Control_c, 0, 64, 84
1, 51265, Control_c, 0, 64, 87
1, 51272, Note_on_c, 0, 65, 62
1, 51272, Note_off_c, 0, 79, 55
1, 51280, Control_c, 0, 64, 89
1, 51282, Poly_aftertouch_c, 0, 76, 0
1, 51295, Control_c, 0, 64, 92
1, 51304, Note_off_c, 0, 62, 31
1, 51310, Control_c, 0, 64, 94
1, 51325, Control_c, 0, 64, 95
1, 51340, Control_c, 0, 64, 96
1, 51366, Note_on_c, 0, 70, 57
1, 51369, Control_c, 0, 64, 96
1, 51374, Note_off_c, 0, 65, 60
1, 51440, Note_on_c, 0, 77, 76
1, 51447, Note_off_c, 0, 70, 62
1, 51457, Control_c, 0, 64, 97
1, 51516, Control_c, 0, 64, 96
1, 51531, Control_c, 0, 64, 89
1, 51535, Note_on_c, 0, 74, 66
1, 51542, Note_on_c, 0, 59, 54
1, 51545, Control_c, 0, 64, 73
1, 51553, Note_off_c, 0, 77, 55
1, 51557, Note_on_c, 0, 68, 60
1, 51560, Control_c, 0, 64, 36
1, 51572, Note_on_c, 0, 53, 42
1, 51583, Control_c, 0, 64, 0
1, 51613, Control_c, 0, 64, 47
1, 51627, Note_off_c, 0, 74, 65
1, 51627, Control_c, 0, 64, 66
1, 51642, Control_c, 0, 64, 71
1, 51657, Control_c, 0, 64, 77
1, 51659, Note_off_c, 0, 68, 65
1, 51662, Note_on_c, 0, 65, 67
1, 51671, Control_c, 0, 64, 79
1, 51686, Control_c, 0, 64, 81
1, 51703, Control_c, 0, 64, 82
1, 51718, Control_c, 0, 64, 83
1, 51732, Control_c, 0, 64, 85
1, 51740, Note_off_c, 0, 65, 63
1, 51747, Control_c, 0, 64, 88
1, 51751, Note_on_c, 0, 68, 62
1, 51762, Control_c, 0, 64, 92
1, 51775, Note_off_c, 0, 68, 58
1, 51776, Control_c, 0, 64, 97
1, 51791, Control_c, 0, 64, 102
1, 51805, Note_on_c, 0, 75, 77
1, 51806, Control_c, 0, 64, 102
1, 51826, Note_off_c, 0, 75, 71
1, 51836, Control_c, 0, 64, 97
1, 51850, Control_c, 0, 64, 81
1, 51865, Control_c, 0, 64, 61
1, 51870, Note_off_c, 0, 59, 57
1, 51880, Note_on_c, 0, 74, 74
1, 51880, Control_c, 0, 64, 0
1, 51887, Note_on_c, 0, 60, 57
1, 51887, Note_on_c, 0, 70, 69
1, 51894, Note_on_c, 0, 64, 56
1, 51918, Note_off_c, 0, 53, 40
1, 51919, Note_off_c, 0, 64, 54
1, 51928, Note_off_c, 0, 60, 60
1, 51939, Control_c, 0, 64, 62
1, 51954, Control_c, 0, 64, 69
1, 51969, Note_on_c, 0, 67, 77
1, 51969, Control_c, 0, 64, 74
1, 51984, Control_c, 0, 64, 78
1, 51994, Note_off_c, 0, 70, 63
1, 51994, Note_off_c, 0, 74, 61
1, 51998, Control_c, 0, 64, 81
1, 52013, Control_c, 0, 64, 84
1, 52025, Note_off_c, 0, 67, 61
1, 52028, Control_c, 0, 64, 86
1, 52042, Note_on_c, 0, 64, 73
1, 52043, Control_c, 0, 64, 89
1, 52058, Control_c, 0, 64, 93
1, 52073, Control_c, 0, 64, 97
1, 52081, Note_off_c, 0, 64, 55
1, 52088, Control_c, 0, 64, 103
1, 52102, Control_c, 0, 64, 107
1, 52105, Note_on_c, 0, 72, 89
1, 52132, Control_c, 0, 64, 105
1, 52147, Control_c, 0, 64, 96
1, 52162, Control_c, 0, 64, 79
1, 52177, Control_c, 0, 64, 34
1, 52186, Note_on_c, 0, 67, 81
1, 52192, Control_c, 0, 64, 0
1, 52197, Note_on_c, 0, 40, 53
1, 52200, Note_on_c, 0, 63, 79
1, 52245, Note_off_c, 0, 72, 47
1, 52252, Note_off_c, 0, 40, 61
1, 52259, Note_off_c, 0, 63, 57
1, 52289, Note_on_c, 0, 60, 65
1, 52293, Note_on_c, 0, 41, 39
1, 52295, Control_c, 0, 64, 57
1, 52310, Control_c, 0, 64, 66
1, 52332, Control_c, 0, 64, 69
1, 52343, Note_off_c, 0, 41, 63
1, 52347, Control_c, 0, 64, 72
1, 52353, Note_off_c, 0, 60, 52
1, 52362, Control_c, 0, 64, 74
1, 52364, Note_off_c, 0, 67, 35
1, 52373, Note_on_c, 0, 63, 77
1, 52377, Control_c, 0, 64, 77
1, 52381, Note_on_c, 0, 40, 50
1, 52392, Control_c, 0, 64, 78
1, 52407, Control_c, 0, 64, 80
1, 52422, Control_c, 0, 64, 83
1, 52424, Note_off_c, 0, 40, 53
1, 52437, Control_c, 0, 64, 87
1, 52451, Control_c, 0, 64, 89
1, 52452, Note_on_c, 0, 69, 75
1, 52462, Note_on_c, 0, 41, 46
1, 52467, Note_off_c, 0, 63, 59
1, 52496, Control_c, 0, 64, 85
1, 52511, Control_c, 0, 64, 72
1, 52526, Control_c, 0, 64, 0
1, 52540, Note_off_c, 0, 69, 65
1, 52543, Note_on_c, 0, 72, 73
1, 52549, Note_on_c, 0, 62, 66
1, 52565, Note_on_c, 0, 53, 52
1, 52595, Note_off_c, 0, 62, 54
1, 52615, Control_c, 0, 64, 59
1, 52617, Note_off_c, 0, 72, 62
1, 52630, Control_c, 0, 64, 69
1, 52632, Note_on_c, 0, 65, 69
1, 52645, Control_c, 0, 64, 72
1, 52660, Control_c, 0, 64, 76
1, 52674, Control_c, 0, 64, 79
1, 52689, Control_c, 0, 64, 82
1, 52696, Note_off_c, 0, 65, 64
1, 52704, Control_c, 0, 64, 84
1, 52715, Note_on_c, 0, 62, 69
1, 52718, Control_c, 0, 64, 85
1, 52719, Note_off_c, 0, 53, 37
1, 52720, Note_off_c, 0, 41, 42
1, 52733, Control_c, 0, 64, 85
1, 52773, Note_off_c, 0, 62, 56
1, 52818, Note_on_c, 0, 70, 66
1, 52849, Note_off_c, 0, 70, 66
1, 52852, Control_c, 0, 64, 86
1, 52852, Control_c, 0, 67, 9
1, 52866, Control_c, 0, 64, 86
1, 52866, Control_c, 0, 67, 13
1, 52881, Control_c, 0, 67, 17
1, 52896, Control_c, 0, 64, 86
1, 52896, Control_c, 0, 67, 20
1, 52911, Control_c, 0, 64, 82
1, 52911, Control_c, 0, 67, 21
1, 52925, Control_c, 0, 64, 73
1, 52925, Control_c, 0, 67, 21
1, 52940, Control_c, 0, 64, 49
1, 52955, Control_c, 0, 64, 0
1, 52961, Note_on_c, 0, 47, 39
1, 52963, Note_on_c, 0, 41, 40
1, 52970, Control_c, 0, 67, 21
1, 52976, Note_on_c, 0, 67, 68
1, 52985, Control_c, 0, 67, 20
1, 52999, Note_on_c, 0, 56, 38
1, 53000, Control_c, 0, 64, 58
1, 53015, Control_c, 0, 64, 69
1, 53030, Control_c, 0, 64, 75
1, 53042, Note_off_c, 0, 56, 47
1, 53045, Control_c, 0, 64, 80
1, 53060, Control_c, 0, 64, 83
1, 53060, Control_c, 0, 67, 20
1, 53081, Control_c, 0, 64, 86
1, 53081, Control_c, 0, 67, 19
1, 53083, Note_on_c, 0, 62, 62
1, 53096, Control_c, 0, 64, 88
1, 53111, Control_c, 0, 64, 90
1, 53120, Note_off_c, 0, 67, 55
1, 53125, Control_c, 0, 64, 91
1, 53138, Note_off_c, 0, 62, 56
1, 53140, Control_c, 0, 64, 92
1, 53155, Control_c, 0, 64, 92
1, 53161, Note_on_c, 0, 56, 60
1, 53170, Control_c, 0, 64, 93
1, 53185, Control_c, 0, 64, 94
1, 53190, Note_off_c, 0, 56, 64
1, 53200, Control_c, 0, 67, 18
1, 53230, Control_c, 0, 67, 18
1, 53236, Note_on_c, 0, 65, 73
1, 53244, Control_c, 0, 64, 93
1, 53259, Control_c, 0, 64, 85
1, 53259, Control_c, 0, 67, 17
1, 53260, Note_off_c, 0, 65, 70
1, 53274, Control_c, 0, 64, 69
1, 53274, Control_c, 0, 67, 16
1, 53289, Control_c, 0, 64, 0
1, 53289, Control_c, 0, 67, 16
1, 53313, Note_on_c, 0, 55, 64
1, 53316, Note_off_c, 0, 47, 57
1, 53322, Note_on_c, 0, 65, 71
1, 53327, Note_on_c, 0, 48, 55
1, 53334, Control_c, 0, 64, 64
1, 53336, Note_off_c, 0, 41, 44
1, 53349, Control_c, 0, 64, 72
1, 53353, Note_off_c, 0, 55, 62
1, 53364, Control_c, 0, 64, 79
1, 53368, Note_off_c, 0, 65, 54
1, 53379, Control_c, 0, 64, 86
1, 53393, Control_c, 0, 64, 88
1, 53399, Note_off_c, 0, 48, 53
1, 53406, Note_on_c, 0, 60, 72
1, 53408, Control_c, 0, 64, 90
1, 53423, Control_c, 0, 64, 93
1, 53423, Control_c, 0, 67, 16
1, 53438, Control_c, 0, 64, 95
1, 53453, Control_c, 0, 64, 97
1, 53453, Control_c, 0, 67, 17
1, 53468, Control_c, 0, 64, 100
1, 53480, Note_off_c, 0, 60, 60
1, 53483, Control_c, 0, 64, 101
1, 53483, Control_c, 0, 67, 18
1, 53483, Note_on_c, 0, 55, 64
1, 53497, Control_c, 0, 67, 18
1, 53512, Control_c, 0, 67, 19
1, 53523, Note_off_c, 0, 55, 66
1, 53537, Note_on_c, 0, 63, 84
1, 53542, Control_c, 0, 64, 100
1, 53542, Control_c, 0, 67, 20
1, 53557, Control_c, 0, 64, 93
1, 53560, Note_off_c, 0, 63, 70
1, 53572, Control_c, 0, 64, 76
1, 53587, Control_c, 0, 64, 0
1, 53608, Note_on_c, 0, 42, 62
1, 53616, Control_c, 0, 67, 20
1, 53624, Note_on_c, 0, 60, 82
1, 53631, Control_c, 0, 67, 21
1, 53634, Note_on_c, 0, 51, 64
1, 53658, Note_off_c, 0, 51, 56
1, 53661, Control_c, 0, 67, 22
1, 53701, Note_on_c, 0, 57, 58
1, 53717, Note_off_c, 0, 60, 28
1, 53720, Control_c, 0, 67, 22
1, 53735, Control_c, 0, 67, 23
1, 53749, Control_c, 0, 67, 26
1, 53755, Note_off_c, 0, 42, 58
1, 53760, Note_off_c, 0, 57, 57
1, 53764, Control_c, 0, 67, 28
1, 53779, Control_c, 0, 67, 29
1, 53788, Note_on_c, 0, 41, 44
1, 53789, Note_on_c, 0, 51, 57
1, 53794, Control_c, 0, 67, 31
1, 53809, Control_c, 0, 67, 33
1, 53829, Note_off_c, 0, 51, 63
1, 53831, Control_c, 0, 67, 35
1, 53846, Control_c, 0, 67, 37
1, 53861, Control_c, 0, 67, 39
1, 53875, Control_c, 0, 67, 40
1, 53878, Note_on_c, 0, 62, 57
1, 53890, Control_c, 0, 67, 42
1, 53905, Control_c, 0, 67, 45
1, 53920, Control_c, 0, 67, 50
1, 53924, Note_off_c, 0, 62, 55
1, 53935, Control_c, 0, 67, 59
1, 53940, Note_off_c, 0, 41, 36
1, 53949, Control_c, 0, 67, 71
1, 53959, Note_on_c, 0, 34, 37
1, 53960, Note_on_c, 0, 58, 63
1, 53960, Note_on_c, 0, 50, 56
1, 53964, Control_c, 0, 67, 87
1, 53979, Control_c, 0, 67, 101
1, 53985, Note_off_c, 0, 50, 62
1, 53987, Note_off_c, 0, 34, 53
1, 53993, Note_off_c, 0, 58, 66
1, 53994, Control_c, 0, 64, 57
1, 53994, Control_c, 0, 67, 113
1, 54009, Control_c, 0, 64, 72
1, 54009, Control_c, 0, 67, 123
1, 54023, Control_c, 0, 64, 81
1, 54023, Control_c, 0, 67, 127
1, 54038, Control_c, 0, 64, 86
1, 54158, Control_c, 0, 64, 86
1, 54172, Control_c, 0, 64, 82
1, 54187, Control_c, 0, 64, 75
1, 54202, Control_c, 0, 64, 66
1, 54217, Control_c, 0, 64, 24
1, 54232, Control_c, 0, 64, 0
1, 54234, Note_on_c, 0, 50, 56
1, 54238, Note_on_c, 0, 53, 52
1, 54240, Note_on_c, 0, 58, 50
1, 54260, Note_off_c, 0, 50, 55
1, 54284, Note_off_c, 0, 53, 62
1, 54285, Note_off_c, 0, 58, 62
1, 54318, Note_on_c, 0, 62, 36
1, 54353, Note_off_c, 0, 62, 52
1, 54382, Note_on_c, 0, 58, 55
1, 54383, Note_on_c, 0, 48, 43
1, 54392, Note_on_c, 0, 54, 33
1, 54416, Note_off_c, 0, 48, 34
1, 54422, Note_off_c, 0, 54, 52
1, 54429, Note_off_c, 0, 58, 58
1, 54451, Note_on_c, 0, 62, 52
1, 54501, Note_off_c, 0, 62, 58
1, 54515, Note_on_c, 0, 47, 60
1, 54535, Note_on_c, 0, 55, 39
1, 54556, Note_on_c, 0, 58, 34
1, 54559, Note_off_c, 0, 47, 62
1, 54577, Note_off_c, 0, 55, 50
1, 54587, Note_off_c, 0, 58, 51
1, 54672, Note_on_c, 0, 58, 55
1, 54678, Note_on_c, 0, 46, 49
1, 54708, Note_off_c, 0, 46, 61
1, 54717, Note_off_c, 0, 58, 60
1, 54779, Note_on_c, 0, 62, 15
1, 54817, Note_on_c, 0, 50, 61
1, 54821, Note_off_c, 0, 62, 37
1, 54844, Note_on_c, 0, 53, 17
1, 54844, Note_on_c, 0, 58, 35
1, 54848, Note_off_c, 0, 50, 64
1, 54875, Note_off_c, 0, 58, 55
1, 54884, Note_off_c, 0, 53, 53
1, 54916, Note_on_c, 0, 62, 47
1, 54945, Note_off_c, 0, 62, 58
1, 54971, Note_on_c, 0, 58, 49
1, 54973, Note_on_c, 0, 48, 51
1, 55022, Note_off_c, 0, 58, 57
1, 55025, Note_off_c, 0, 48, 60
1, 55040, Note_on_c, 0, 47, 67
1, 55054, Note_on_c, 0, 62, 41
1, 55084, Note_off_c, 0, 62, 56
1, 55096, Note_off_c, 0, 47, 63
1, 55117, Note_on_c, 0, 46, 58
1, 55142, Note_off_c, 0, 46, 57
1, 55176, Note_on_c, 0, 62, 51
1, 55203, Note_off_c, 0, 62, 61
1, 55246, Note_on_c, 0, 54, 50
1, 55292, Note_off_c, 0, 54, 44
1, 55303, Note_on_c, 0, 57, 42
1, 55343, Control_c, 0, 64, 26
1, 55344, Note_off_c, 0, 57, 63
1, 55358, Control_c, 0, 64, 63
1, 55362, Note_on_c, 0, 63, 59
1, 55373, Control_c, 0, 64, 67
1, 55388, Control_c, 0, 64, 72
1, 55396, Note_off_c, 0, 63, 63
1, 55403, Control_c, 0, 64, 77
1, 55418, Control_c, 0, 64, 80
1, 55432, Control_c, 0, 64, 82
1, 55447, Control_c, 0, 64, 82
1, 55462, Control_c, 0, 64, 83
1, 55477, Control_c, 0, 64, 84
1, 55536, Control_c, 0, 64, 83
1, 55551, Control_c, 0, 64, 79
1, 55566, Control_c, 0, 64, 71
1, 55572, Note_on_c, 0, 78, 66
1, 55572, Note_on_c, 0, 87, 57
1, 55581, Control_c, 0, 64, 44
1, 55593, Note_on_c, 0, 81, 23
1, 55595, Control_c, 0, 64, 0
1, 55629, Note_off_c, 0, 78, 50
1, 55629, Note_off_c, 0, 81, 31
1, 55629, Note_off_c, 0, 87, 45
1, 55637, Note_on_c, 0, 84, 65
1, 55707, Note_on_c, 0, 74, 48
1, 55722, Note_on_c, 0, 80, 70
1, 55725, Note_off_c, 0, 84, 63
1, 55729, Note_off_c, 0, 74, 61
1, 55756, Note_off_c, 0, 80, 58
1, 55801, Note_on_c, 0, 77, 52
1, 55821, Note_off_c, 0, 77, 58
1, 55849, Note_on_c, 0, 75, 55
1, 55862, Note_on_c, 0, 81, 70
1, 55865, Note_on_c, 0, 72, 53
1, 55871, Note_off_c, 0, 75, 64
1, 55903, Note_off_c, 0, 72, 63
1, 55914, Note_on_c, 0, 78, 66
1, 55921, Note_off_c, 0, 81, 47
1, 55983, Note_on_c, 0, 74, 66
1, 55983, Note_off_c, 0, 78, 64
1, 56009, Note_on_c, 0, 68, 33
1, 56013, Note_off_c, 0, 74, 63
1, 56040, Note_off_c, 0, 68, 46
1, 56041, Note_on_c, 0, 71, 68
1, 56081, Note_off_c, 0, 71, 61
1, 56131, Note_on_c, 0, 75, 60
1, 56146, Note_on_c, 0, 66, 56
1, 56150, Note_off_c, 0, 75, 61
1, 56172, Note_on_c, 0, 74, 34
1, 56181, Note_off_c, 0, 66, 65
1, 56198, Note_off_c, 0, 74, 57
1, 56209, Note_on_c, 0, 72, 48
1, 56213, Note_on_c, 0, 71, 52
1, 56251, Note_off_c, 0, 71, 61
1, 56252, Note_off_c, 0, 72, 63
1, 56264, Note_on_c, 0, 68, 60
1, 56274, Note_on_c, 0, 59, 25
1, 56276, Note_on_c, 0, 62, 46
1, 56308, Note_off_c, 0, 62, 56
1, 56308, Note_off_c, 0, 68, 63
1, 56309, Note_off_c, 0, 59, 50
1, 56336, Note_on_c, 0, 65, 59
1, 56363, Note_off_c, 0, 65, 58
1, 56384, Note_on_c, 0, 69, 66
1, 56411, Note_on_c, 0, 63, 39
1, 56424, Note_on_c, 0, 60, 22
1, 56429, Note_off_c, 0, 69, 59
1, 56441, Note_on_c, 0, 78, 71
1, 56450, Note_off_c, 0, 63, 48
1, 56453, Note_off_c, 0, 60, 47
1, 56463, Note_off_c, 0, 78, 66
1, 56516, Note_on_c, 0, 77, 81
1, 56526, Note_on_c, 0, 62, 46
1, 56538, Note_off_c, 0, 77, 68
1, 56538, Control_c, 0, 64, 58
1, 56542, Note_on_c, 0, 70, 35
1, 56553, Control_c, 0, 64, 68
1, 56567, Control_c, 0, 64, 72
1, 56574, Note_off_c, 0, 70, 35
1, 56582, Control_c, 0, 64, 76
1, 56597, Control_c, 0, 64, 79
1, 56612, Control_c, 0, 64, 79
1, 56700, Control_c, 0, 64, 78
1, 56708, Note_off_c, 0, 62, 37
1, 56715, Control_c, 0, 64, 73
1, 56729, Note_on_c, 0, 53, 43
1, 56730, Control_c, 0, 64, 67
1, 56732, Note_on_c, 0, 58, 43
1, 56734, Note_on_c, 0, 50, 73
1, 56745, Control_c, 0, 64, 56
1, 56753, Note_off_c, 0, 50, 65
1, 56759, Control_c, 0, 64, 0
1, 56774, Note_off_c, 0, 58, 62
1, 56778, Note_off_c, 0, 53, 44
1, 56821, Note_on_c, 0, 62, 56
1, 56851, Note_off_c, 0, 62, 62
1, 56880, Note_on_c, 0, 58, 58
1, 56883, Note_on_c, 0, 48, 60
1, 56901, Note_on_c, 0, 54, 22
1, 56905, Note_off_c, 0, 48, 61
1, 56923, Note_off_c, 0, 58, 60
1, 56934, Note_off_c, 0, 54, 42
1, 56941, Note_on_c, 0, 62, 62
1, 56982, Note_off_c, 0, 62, 58
1, 57012, Note_on_c, 0, 55, 55
1, 57021, Note_on_c, 0, 47, 63
1, 57036, Note_on_c, 0, 58, 48
1, 57057, Note_off_c, 0, 47, 63
1, 57057, Note_off_c, 0, 55, 61
1, 57063, Note_off_c, 0, 58, 61
1, 57105, Note_on_c, 0, 62, 49
1, 57130, Note_off_c, 0, 62, 56
1, 57157, Note_on_c, 0, 58, 56
1, 57165, Note_on_c, 0, 46, 63
1, 57179, Note_on_c, 0, 54, 35
1, 57197, Note_off_c, 0, 46, 63
1, 57199, Note_off_c, 0, 58, 62
1, 57208, Note_off_c, 0, 54, 55
1, 57222, Note_on_c, 0, 62, 51
1, 57266, Note_off_c, 0, 62, 62
1, 57312, Note_on_c, 0, 50, 64
1, 57317, Note_on_c, 0, 53, 33
1, 57319, Note_on_c, 0, 58, 47
1, 57342, Note_off_c, 0, 50, 63
1, 57351, Note_off_c, 0, 58, 58
1, 57352, Note_off_c, 0, 53, 53
1, 57382, Note_on_c, 0, 62, 51
1, 57427, Note_off_c, 0, 62, 62
1, 57453, Note_on_c, 0, 58, 50
1, 57460, Note_on_c, 0, 48, 52
1, 57506, Note_off_c, 0, 48, 66
1, 57508, Note_off_c, 0, 58, 56
1, 57514, Note_on_c, 0, 47, 65
1, 57536, Note_on_c, 0, 62, 48
1, 57569, Note_off_c, 0, 62, 56
1, 57580, Note_off_c, 0, 47, 63
1, 57593, Note_on_c, 0, 46, 62
1, 57623, Note_off_c, 0, 46, 63
1, 57652, Note_on_c, 0, 62, 52
1, 57677, Note_off_c, 0, 62, 60
1, 57735, Note_on_c, 0, 54, 50
1, 57763, Note_on_c, 0, 57, 45
1, 57797, Control_c, 0, 64, 41
1, 57800, Note_off_c, 0, 57, 63
1, 57812, Control_c, 0, 64, 64
1, 57816, Note_off_c, 0, 54, 33
1, 57823, Note_on_c, 0, 63, 63
1, 57827, Control_c, 0, 64, 68
1, 57841, Control_c, 0, 64, 71
1, 57856, Control_c, 0, 64, 74
1, 57857, Note_off_c, 0, 63, 64
1, 57871, Control_c, 0, 64, 75
1, 57886, Control_c, 0, 64, 76
1, 57901, Control_c, 0, 64, 76
1, 57990, Control_c, 0, 64, 76
1, 58005, Control_c, 0, 64, 73
1, 58020, Control_c, 0, 64, 67
1, 58034, Control_c, 0, 64, 42
1, 58037, Note_on_c, 0, 87, 64
1, 58047, Note_on_c, 0, 78, 61
1, 58049, Control_c, 0, 64, 0
1, 58112, Note_off_c, 0, 87, 60
1, 58114, Note_on_c, 0, 84, 67
1, 58114, Note_off_c, 0, 78, 58
1, 58183, Note_on_c, 0, 74, 51
1, 58191, Note_on_c, 0, 80, 69
1, 58192, Note_off_c, 0, 84, 64
1, 58204, Note_off_c, 0, 74, 64
1, 58221, Note_off_c, 0, 80, 60
1, 58253, Note_on_c, 0, 77, 68
1, 58279, Note_off_c, 0, 77, 67
1, 58333, Note_on_c, 0, 75, 53
1, 58337, Note_on_c, 0, 81, 73
1, 58343, Note_on_c, 0, 72, 48
1, 58354, Note_off_c, 0, 75, 63
1, 58376, Note_off_c, 0, 72, 54
1, 58395, Note_on_c, 0, 78, 70
1, 58407, Note_off_c, 0, 81, 59
1, 58460, Note_off_c, 0, 78, 63
1, 58461, Note_on_c, 0, 74, 66
1, 58473, Note_on_c, 0, 68, 53
1, 58496, Note_off_c, 0, 74, 60
1, 58498, Note_off_c, 0, 68, 61
1, 58523, Note_on_c, 0, 71, 69
1, 58556, Note_off_c, 0, 71, 59
1, 58599, Note_on_c, 0, 75, 70
1, 58610, Note_on_c, 0, 66, 61
1, 58648, Note_off_c, 0, 66, 63
1, 58664, Note_on_c, 0, 72, 68
1, 58670, Note_off_c, 0, 75, 64
1, 58724, Note_off_c, 0, 72, 63
1, 58730, Note_on_c, 0, 59, 43
1, 58734, Note_on_c, 0, 68, 65
1, 58747, Note_on_c, 0, 62, 43
1, 58763, Note_off_c, 0, 59, 49
1, 58773, Note_off_c, 0, 68, 62
1, 58784, Note_off_c, 0, 62, 52
1, 58794, Note_on_c, 0, 65, 64
1, 58827, Note_off_c, 0, 65, 66
1, 58847, Note_on_c, 0, 63, 52
1, 58849, Note_on_c, 0, 69, 73
1, 58854, Note_on_c, 0, 60, 40
1, 58869, Note_off_c, 0, 63, 59
1, 58879, Note_off_c, 0, 60, 52
1, 58881, Note_off_c, 0, 69, 58
1, 58911, Note_on_c, 0, 78, 75
1, 58932, Note_off_c, 0, 78, 69
1, 59015, Note_on_c, 0, 46, 52
1, 59019, Note_on_c, 0, 56, 60
1, 59045, Note_off_c, 0, 46, 62
1, 59050, Note_on_c, 0, 65, 62
1, 59050, Control_c, 0, 64, 60
1, 59059, Note_off_c, 0, 56, 63
1, 59063, Note_on_c, 0, 62, 56
1, 59072, Note_on_c, 0, 59, 29
1, 59072, Control_c, 0, 64, 69
1, 59084, Note_off_c, 0, 62, 61
1, 59087, Control_c, 0, 64, 75
1, 59096, Note_off_c, 0, 65, 65
1, 59102, Control_c, 0, 64, 80
1, 59103, Note_off_c, 0, 59, 50
1, 59117, Control_c, 0, 64, 84
1, 59132, Control_c, 0, 64, 86
1, 59147, Control_c, 0, 64, 88
1, 59161, Control_c, 0, 64, 89
1, 59176, Control_c, 0, 64, 90
1, 59191, Control_c, 0, 64, 90
1, 59250, Control_c, 0, 64, 90
1, 59265, Control_c, 0, 64, 88
1, 59280, Control_c, 0, 64, 83
1, 59294, Control_c, 0, 64, 74
1, 59296, Note_on_c, 0, 89, 73
1, 59308, Note_on_c, 0, 80, 64
1, 59309, Control_c, 0, 64, 61
1, 59324, Control_c, 0, 64, 0
1, 59357, Note_off_c, 0, 89, 56
1, 59367, Note_on_c, 0, 86, 70
1, 59375, Note_off_c, 0, 80, 56
1, 59432, Note_on_c, 0, 76, 53
1, 59442, Note_on_c, 0, 82, 78
1, 59442, Note_off_c, 0, 86, 60
1, 59447, Note_on_c, 0, 73, 36
1, 59452, Note_off_c, 0, 76, 64
1, 59469, Note_off_c, 0, 73, 49
1, 59484, Note_off_c, 0, 82, 63
1, 59507, Note_on_c, 0, 79, 77
1, 59536, Note_off_c, 0, 79, 63
1, 59584, Note_on_c, 0, 83, 84
1, 59587, Note_on_c, 0, 77, 57
1, 59599, Note_on_c, 0, 74, 54
1, 59606, Note_off_c, 0, 77, 60
1, 59638, Note_off_c, 0, 74, 58
1, 59650, Note_on_c, 0, 80, 76
1, 59662, Note_off_c, 0, 83, 58
1, 59716, Note_on_c, 0, 70, 66
1, 59722, Note_on_c, 0, 76, 80
1, 59731, Note_on_c, 0, 67, 41
1, 59741, Note_off_c, 0, 80, 63
1, 59756, Note_off_c, 0, 67, 56
1, 59757, Note_off_c, 0, 70, 64
1, 59768, Note_off_c, 0, 76, 63
1, 59795, Note_on_c, 0, 73, 73
1, 59824, Note_off_c, 0, 73, 69
1, 59869, Note_on_c, 0, 68, 73
1, 59874, Note_on_c, 0, 77, 77
1, 59933, Note_off_c, 0, 68, 57
1, 59937, Note_on_c, 0, 74, 75
1, 59943, Note_off_c, 0, 77, 60
1, 59990, Note_on_c, 0, 61, 48
1, 59999, Note_on_c, 0, 64, 42
1, 59999, Note_on_c, 0, 70, 75
1, 60001, Note_off_c, 0, 74, 64
1, 60032, Note_off_c, 0, 61, 60
1, 60038, Note_off_c, 0, 64, 58
1, 60042, Note_off_c, 0, 70, 64
1, 60069, Note_on_c, 0, 67, 67
1, 60097, Note_off_c, 0, 67, 67
1, 60111, Note_on_c, 0, 65, 54
1, 60116, Note_on_c, 0, 71, 76
1, 60118, Note_on_c, 0, 62, 34
1, 60131, Note_off_c, 0, 65, 61
1, 60146, Note_off_c, 0, 62, 52
1, 60155, Note_off_c, 0, 71, 61
1, 60183, Note_on_c, 0, 80, 72
1, 60207, Note_off_c, 0, 80, 68
1, 60271, Note_on_c, 0, 46, 45
1, 60280, Control_c, 0, 64, 52
1, 60295, Control_c, 0, 64, 67
1, 60299, Note_on_c, 0, 61, 66
1, 60300, Note_on_c, 0, 67, 70
1, 60301, Note_on_c, 0, 64, 73
1, 60303, Note_off_c, 0, 46, 52
1, 60309, Control_c, 0, 64, 73
1, 60324, Note_off_c, 0, 64, 66
1, 60324, Control_c, 0, 64, 80
1, 60330, Note_off_c, 0, 61, 64
1, 60339, Control_c, 0, 64, 85
1, 60352, Note_off_c, 0, 67, 62
1, 60354, Control_c, 0, 64, 89
1, 60369, Control_c, 0, 64, 91
1, 60384, Control_c, 0, 64, 93
1, 60399, Control_c, 0, 64, 93
1, 60458, Control_c, 0, 64, 91
1, 60473, Control_c, 0, 64, 86
1, 60488, Control_c, 0, 64, 77
1, 60503, Control_c, 0, 64, 66
1, 60508, Note_on_c, 0, 91, 75
1, 60518, Control_c, 0, 64, 0
1, 60527, Note_on_c, 0, 81, 47
1, 60551, Note_off_c, 0, 81, 55
1, 60583, Note_off_c, 0, 91, 57
1, 60583, Note_on_c, 0, 88, 68
1, 60644, Note_off_c, 0, 88, 61
1, 60649, Note_on_c, 0, 78, 49
1, 60657, Note_on_c, 0, 84, 65
1, 60667, Note_on_c, 0, 75, 32
1, 60671, Note_off_c, 0, 78, 60
1, 60682, Note_off_c, 0, 84, 68
1, 60694, Note_off_c, 0, 75, 54
1, 60723, Note_on_c, 0, 81, 55
1, 60750, Note_off_c, 0, 81, 55
1, 60780, Note_on_c, 0, 85, 71
1, 60845, Note_on_c, 0, 82, 78
1, 60849, Note_off_c, 0, 85, 61
1, 60875, Note_off_c, 0, 82, 62
1, 60925, Control_c, 0, 64, 34
1, 60940, Control_c, 0, 64, 63
1, 60955, Control_c, 0, 64, 66
1, 60970, Control_c, 0, 64, 69
1, 60974, Note_on_c, 0, 46, 48
1, 60981, Note_on_c, 0, 54, 58
1, 60985, Control_c, 0, 64, 73
1, 61000, Control_c, 0, 64, 77
1, 61003, Note_off_c, 0, 46, 59
1, 61003, Note_off_c, 0, 54, 62
1, 61005, Note_on_c, 0, 69, 82
1, 61013, Note_on_c, 0, 63, 68
1, 61014, Control_c, 0, 64, 80
1, 61028, Note_on_c, 0, 60, 49
1, 61029, Control_c, 0, 64, 82
1, 61033, Note_off_c, 0, 63, 66
1, 61042, Note_off_c, 0, 69, 67
1, 61044, Control_c, 0, 64, 84
1, 61051, Note_off_c, 0, 60, 60
1, 61058, Control_c, 0, 64, 86
1, 61073, Control_c, 0, 64, 90
1, 61088, Control_c, 0, 64, 94
1, 61103, Control_c, 0, 64, 99
1, 61118, Control_c, 0, 64, 102
1, 61132, Control_c, 0, 64, 104
1, 61192, Control_c, 0, 64, 103
1, 61206, Control_c, 0, 64, 101
1, 61206, Control_c, 0, 67, 126
1, 61221, Control_c, 0, 64, 97
1, 61221, Control_c, 0, 67, 124
1, 61236, Control_c, 0, 64, 91
1, 61236, Control_c, 0, 67, 121
1, 61251, Control_c, 0, 64, 84
1, 61251, Control_c, 0, 67, 119
1, 61266, Control_c, 0, 64, 76
1, 61266, Control_c, 0, 67, 117
1, 61281, Control_c, 0, 64, 67
1, 61281, Control_c, 0, 67, 115
1, 61293, Note_on_c, 0, 93, 85
1, 61296, Note_on_c, 0, 87, 64
1, 61296, Control_c, 0, 64, 44
1, 61296, Control_c, 0, 67, 112
1, 61319, Control_c, 0, 64, 0
1, 61319, Control_c, 0, 67, 109
1, 61321, Note_on_c, 0, 84, 53
1, 61330, Note_off_c, 0, 87, 64
1, 61334, Control_c, 0, 67, 104
1, 61344, Note_off_c, 0, 84, 64
1, 61349, Control_c, 0, 67, 99
1, 61363, Control_c, 0, 67, 94
1, 61378, Control_c, 0, 67, 91
1, 61383, Note_on_c, 0, 90, 67
1, 61388, Note_off_c, 0, 93, 61
1, 61393, Control_c, 0, 67, 88
1, 61408, Control_c, 0, 67, 86
1, 61423, Control_c, 0, 67, 84
1, 61437, Control_c, 0, 67, 82
1, 61452, Control_c, 0, 67, 78
1, 61453, Note_off_c, 0, 90, 62
1, 61457, Note_on_c, 0, 86, 72
1, 61467, Control_c, 0, 67, 74
1, 61469, Note_on_c, 0, 77, 11
1, 61472, Note_on_c, 0, 80, 37
1, 61481, Control_c, 0, 67, 70
1, 61486, Note_off_c, 0, 77, 46
1, 61493, Note_off_c, 0, 86, 64
1, 61496, Control_c, 0, 67, 65
1, 61500, Note_off_c, 0, 80, 53
1, 61511, Control_c, 0, 67, 61
1, 61519, Note_on_c, 0, 83, 66
1, 61526, Control_c, 0, 67, 57
1, 61541, Control_c, 0, 67, 53
1, 61552, Note_off_c, 0, 83, 60
1, 61555, Control_c, 0, 67, 49
1, 61570, Control_c, 0, 67, 46
1, 61585, Control_c, 0, 67, 45
1, 61600, Note_on_c, 0, 87, 71
1, 61600, Control_c, 0, 67, 44
1, 61608, Note_on_c, 0, 81, 46
1, 61613, Note_on_c, 0, 78, 44
1, 61615, Control_c, 0, 67, 42
1, 61630, Control_c, 0, 67, 40
1, 61633, Note_off_c, 0, 81, 36
1, 61636, Note_off_c, 0, 87, 64
1, 61637, Note_off_c, 0, 78, 57
1, 61645, Control_c, 0, 67, 38
1, 61660, Control_c, 0, 67, 35
1, 61668, Note_on_c, 0, 84, 63
1, 61674, Control_c, 0, 67, 31
1, 61689, Control_c, 0, 67, 27
1, 61699, Note_off_c, 0, 84, 63
1, 61704, Control_c, 0, 67, 24
1, 61719, Control_c, 0, 67, 20
1, 61734, Control_c, 0, 67, 17
1, 61744, Note_on_c, 0, 96, 78
1, 61749, Control_c, 0, 67, 13
1, 61761, Note_on_c, 0, 78, 41
1, 61763, Control_c, 0, 67, 9
1, 61776, Note_on_c, 0, 75, 48
1, 61778, Control_c, 0, 67, 0
1, 61788, Note_off_c, 0, 78, 55
1, 61803, Note_off_c, 0, 75, 57
1, 61812, Note_off_c, 0, 96, 58
1, 61823, Note_on_c, 0, 93, 83
1, 61866, Note_off_c, 0, 93, 61
1, 61891, Note_on_c, 0, 68, 47
1, 61898, Note_on_c, 0, 89, 75
1, 61925, Note_on_c, 0, 71, 28
1, 61932, Note_off_c, 0, 68, 47
1, 61943, Note_off_c, 0, 89, 65
1, 61958, Note_off_c, 0, 71, 48
1, 61978, Note_on_c, 0, 86, 66
1, 62023, Note_off_c, 0, 86, 63
1, 62056, Note_on_c, 0, 90, 81
1, 62061, Note_on_c, 0, 69, 56
1, 62063, Note_on_c, 0, 72, 50
1, 62084, Note_off_c, 0, 69, 64
1, 62084, Note_off_c, 0, 72, 59
1, 62105, Note_off_c, 0, 90, 64
1, 62132, Note_on_c, 0, 87, 74
1, 62179, Note_off_c, 0, 87, 61
1, 62207, Note_on_c, 0, 66, 67
1, 62208, Note_on_c, 0, 69, 50
1, 62212, Note_on_c, 0, 99, 79
1, 62247, Note_off_c, 0, 66, 56
1, 62252, Note_off_c, 0, 69, 64
1, 62271, Note_off_c, 0, 99, 67
1, 62293, Note_on_c, 0, 96, 76
1, 62357, Note_on_c, 0, 59, 52
1, 62367, Note_on_c, 0, 92, 80
1, 62371, Note_off_c, 0, 96, 63
1, 62385, Note_on_c, 0, 62, 44
1, 62417, Note_off_c, 0, 59, 48
1, 62437, Note_off_c, 0, 62, 46
1, 62438, Note_off_c, 0, 92, 65
1, 62445, Note_on_c, 0, 89, 68
1, 62483, Note_off_c, 0, 89, 65
1, 62495, Note_on_c, 0, 93, 75
1, 62509, Note_on_c, 0, 63, 68
1, 62527, Note_on_c, 0, 60, 39
1, 62548, Note_off_c, 0, 63, 62
1, 62552, Note_off_c, 0, 60, 56
1, 62554, Note_off_c, 0, 93, 61
1, 62578, Note_on_c, 0, 90, 79
1, 62624, Note_off_c, 0, 90, 64
1, 62655, Note_on_c, 0, 100, 89
1, 62657, Note_on_c, 0, 59, 62
1, 62661, Note_on_c, 0, 64, 65
1, 62664, Note_on_c, 0, 56, 61
1, 62690, Control_c, 0, 64, 76
1, 62694, Note_off_c, 0, 64, 64
1, 62700, Note_off_c, 0, 59, 59
1, 62701, Note_off_c, 0, 56, 59
1, 62704, Control_c, 0, 64, 88
1, 62715, Note_off_c, 0, 100, 65
1, 62719, Control_c, 0, 64, 96
1, 62729, Note_on_c, 0, 87, 84
1, 62734, Control_c, 0, 64, 96
1, 62775, Note_off_c, 0, 87, 63
1, 62785, Note_on_c, 0, 65, 70
1, 62786, Note_on_c, 0, 60, 62
1, 62791, Note_on_c, 0, 57, 65
1, 62793, Control_c, 0, 64, 95
1, 62807, Note_on_c, 0, 101, 93
1, 62808, Note_off_c, 0, 65, 69
1, 62816, Control_c, 0, 64, 90
1, 62822, Note_off_c, 0, 60, 64
1, 62826, Note_off_c, 0, 57, 64
1, 62830, Control_c, 0, 64, 81
1, 62845, Control_c, 0, 64, 66
1, 62857, Note_off_c, 0, 101, 65
1, 62860, Control_c, 0, 64, 0
1, 62888, Note_on_c, 0, 87, 77
1, 62944, Note_off_c, 0, 87, 62
1, 62950, Control_c, 0, 64, 63
1, 62954, Note_on_c, 0, 46, 95
1, 62959, Note_on_c, 0, 34, 83
1, 62965, Control_c, 0, 64, 72
1, 62980, Control_c, 0, 64, 79
1, 62984, Note_off_c, 0, 34, 68
1, 62992, Note_off_c, 0, 46, 60
1, 62995, Control_c, 0, 64, 82
1, 63127, Control_c, 0, 64, 82
1, 63128, Note_on_c, 0, 98, 85
1, 63137, Note_on_c, 0, 94, 75
1, 63142, Note_on_c, 0, 62, 71
1, 63142, Control_c, 0, 64, 78
1, 63143, Note_on_c, 0, 50, 70
1, 63157, Control_c, 0, 64, 70
1, 63165, Note_off_c, 0, 94, 61
1, 63172, Note_off_c, 0, 62, 64
1, 63172, Control_c, 0, 64, 32
1, 63180, Note_off_c, 0, 50, 47
1, 63181, Note_off_c, 0, 98, 64
1, 63187, Control_c, 0, 64, 0
1, 63210, Note_on_c, 0, 93, 79
1, 63254, Note_off_c, 0, 93, 63
1, 63285, Note_on_c, 0, 60, 66
1, 63285, Note_on_c, 0, 98, 82
1, 63292, Note_on_c, 0, 92, 85
1, 63300, Note_on_c, 0, 53, 56
1, 63330, Note_off_c, 0, 60, 55
1, 63330, Note_off_c, 0, 98, 66
1, 63341, Note_off_c, 0, 92, 63
1, 63364, Note_on_c, 0, 91, 76
1, 63398, Note_off_c, 0, 91, 62
1, 63422, Note_on_c, 0, 58, 67
1, 63437, Note_on_c, 0, 98, 82
1, 63438, Note_on_c, 0, 90, 81
1, 63439, Note_off_c, 0, 53, 47
1, 63448, Note_off_c, 0, 58, 65
1, 63489, Note_off_c, 0, 90, 60
1, 63492, Note_off_c, 0, 98, 66
1, 63516, Note_on_c, 0, 89, 76
1, 63559, Note_off_c, 0, 89, 66
1, 63592, Note_on_c, 0, 44, 81
1, 63594, Note_on_c, 0, 98, 89
1, 63594, Control_c, 0, 64, 80
1, 63597, Note_on_c, 0, 94, 83
1, 63604, Note_on_c, 0, 30, 55
1, 63609, Control_c, 0, 64, 100
1, 63624, Control_c, 0, 64, 109
1, 63627, Note_on_c, 0, 42, 25
1, 63628, Note_off_c, 0, 44, 64
1, 63638, Note_off_c, 0, 30, 54
1, 63648, Note_off_c, 0, 98, 65
1, 63663, Note_off_c, 0, 94, 63
1, 63667, Note_off_c, 0, 42, 45
1, 63678, Note_on_c, 0, 88, 74
1, 63698, Control_c, 0, 64, 109
1, 63704, Poly_aftertouch_c, 0, 32, 0
1, 63716, Note_off_c, 0, 88, 62
1, 63756, Note_on_c, 0, 89, 79
1, 63757, Note_on_c, 0, 94, 84
1, 63767, Note_on_c, 0, 62, 71
1, 63773, Control_c, 0, 64, 109
1, 63777, Note_on_c, 0, 50, 55
1, 63797, Note_off_c, 0, 62, 54
1, 63803, Control_c, 0, 64, 106
1, 63811, Note_off_c, 0, 89, 63
1, 63818, Control_c, 0, 64, 99
1, 63820, Note_off_c, 0, 94, 66
1, 63828, Note_on_c, 0, 86, 71
1, 63832, Control_c, 0, 64, 86
1, 63847, Control_c, 0, 64, 67
1, 63848, Note_off_c, 0, 50, 57
1, 63853, Note_off_c, 0, 86, 67
1, 63862, Control_c, 0, 64, 0
1, 63873, Note_on_c, 0, 53, 53
1, 63905, Note_on_c, 0, 60, 70
1, 63905, Note_on_c, 0, 89, 90
1, 63914, Note_off_c, 0, 53, 67
1, 63916, Note_on_c, 0, 84, 78
1, 63958, Note_off_c, 0, 60, 60
1, 63958, Note_off_c, 0, 84, 63
1, 63966, Note_off_c, 0, 89, 61
1, 63979, Note_on_c, 0, 59, 58
1, 63982, Note_on_c, 0, 83, 75
1, 64019, Note_off_c, 0, 83, 62
1, 64035, Note_off_c, 0, 59, 63
1, 64039, Note_on_c, 0, 58, 63
1, 64043, Note_on_c, 0, 86, 78
1, 64058, Note_off_c, 0, 58, 65
1, 64059, Note_on_c, 0, 82, 77
1, 64091, Note_off_c, 0, 86, 62
1, 64106, Note_off_c, 0, 82, 63
1, 64127, Note_on_c, 0, 81, 79
1, 64163, Note_off_c, 0, 81, 64
1, 64187, Control_c, 0, 64, 82
1, 64193, Note_on_c, 0, 42, 88
1, 64195, Note_on_c, 0, 89, 91
1, 64196, Note_on_c, 0, 30, 87
1, 64196, Note_on_c, 0, 82, 87
1, 64202, Control_c, 0, 64, 114
1, 64217, Control_c, 0, 64, 127
1, 64221, Note_off_c, 0, 30, 65
1, 64245, Note_off_c, 0, 42, 61
1, 64258, Note_off_c, 0, 89, 62
1, 64266, Note_off_c, 0, 82, 61
1, 64271, Note_on_c, 0, 81, 85
1, 64318, Note_off_c, 0, 81, 61
1, 64362, Note_on_c, 0, 86, 79
1, 64368, Note_on_c, 0, 82, 80
1, 64385, Note_on_c, 0, 62, 75
1, 64387, Control_c, 0, 64, 123
1, 64392, Note_on_c, 0, 50, 68
1, 64402, Control_c, 0, 64, 109
1, 64411, Note_off_c, 0, 62, 64
1, 64413, Note_off_c, 0, 86, 62
1, 64415, Note_off_c, 0, 82, 59
1, 64417, Control_c, 0, 64, 92
1, 64432, Note_off_c, 0, 50, 59
1, 64432, Control_c, 0, 64, 71
1, 64438, Note_on_c, 0, 81, 74
1, 64447, Control_c, 0, 64, 0
1, 64477, Note_off_c, 0, 81, 63
1, 64512, Note_on_c, 0, 86, 85
1, 64512, Note_on_c, 0, 80, 85
1, 64526, Note_on_c, 0, 60, 66
1, 64528, Note_on_c, 0, 54, 62
1, 64566, Note_off_c, 0, 86, 62
1, 64576, Note_off_c, 0, 80, 63
1, 64578, Note_off_c, 0, 60, 56
1, 64582, Note_off_c, 0, 54, 55
1, 64588, Note_on_c, 0, 79, 80
1, 64626, Note_off_c, 0, 79, 65
1, 64646, Note_on_c, 0, 58, 73
1, 64661, Note_on_c, 0, 78, 80
1, 64664, Note_on_c, 0, 82, 81
1, 64672, Note_off_c, 0, 58, 66
1, 64715, Note_off_c, 0, 78, 62
1, 64720, Note_off_c, 0, 82, 63
1, 64735, Note_on_c, 0, 77, 78
1, 64772, Note_off_c, 0, 77, 64
1, 64803, Control_c, 0, 64, 52
1, 64807, Note_on_c, 0, 41, 94
1, 64810, Note_on_c, 0, 86, 86
1, 64812, Note_on_c, 0, 82, 91
1, 64816, Note_on_c, 0, 29, 75
1, 64818, Control_c, 0, 64, 110
1, 64832, Control_c, 0, 64, 127
1, 64844, Note_off_c, 0, 29, 56
1, 64849, Note_off_c, 0, 41, 67
1, 64879, Note_off_c, 0, 86, 57
1, 64880, Note_off_c, 0, 82, 62
1, 64887, Note_on_c, 0, 76, 80
1, 64936, Note_off_c, 0, 76, 64
1, 64964, Note_on_c, 0, 77, 80
1, 64967, Note_on_c, 0, 82, 81
1, 64988, Note_on_c, 0, 62, 72
1, 65004, Note_on_c, 0, 50, 44
1, 65020, Note_off_c, 0, 62, 60
1, 65025, Note_off_c, 0, 77, 57
1, 65026, Note_off_c, 0, 82, 61
1, 65033, Note_on_c, 0, 74, 75
1, 65069, Note_off_c, 0, 74, 66
1, 65077, Control_c, 0, 64, 104
1, 65092, Note_off_c, 0, 50, 37
1, 65092, Control_c, 0, 64, 84
1, 65106, Control_c, 0, 64, 58
1, 65117, Note_on_c, 0, 60, 74
1, 65119, Note_on_c, 0, 77, 88
1, 65121, Control_c, 0, 64, 0
1, 65126, Note_on_c, 0, 72, 81
1, 65164, Note_off_c, 0, 60, 59
1, 65166, Note_off_c, 0, 72, 65
1, 65180, Note_off_c, 0, 77, 57
1, 65203, Note_on_c, 0, 71, 78
1, 65220, Note_on_c, 0, 59, 50
1, 65237, Note_off_c, 0, 71, 61
1, 65254, Note_on_c, 0, 74, 50
1, 65256, Note_on_c, 0, 58, 47
1, 65256, Note_off_c, 0, 59, 62
1, 65278, Note_on_c, 0, 70, 87
1, 65299, Note_off_c, 0, 58, 65
1, 65304, Note_off_c, 0, 74, 65
1, 65323, Note_off_c, 0, 70, 62
1, 65349, Note_on_c, 0, 68, 89
1, 65377, Note_off_c, 0, 68, 66
1, 65418, Control_c, 0, 64, 105
1, 65421, Note_on_c, 0, 51, 88
1, 65421, Note_on_c, 0, 78, 92
1, 65425, Note_on_c, 0, 66, 86
1, 65425, Note_on_c, 0, 70, 89
1, 65426, Note_on_c, 0, 39, 75
1, 65433, Control_c, 0, 64, 127
1, 65445, Note_off_c, 0, 66, 73
1, 65448, Note_off_c, 0, 51, 65
1, 65449, Note_on_c, 0, 68, 42
1, 65456, Note_off_c, 0, 39, 66
1, 65468, Note_off_c, 0, 68, 64
1, 65472, Note_off_c, 0, 70, 61
1, 65486, Note_off_c, 0, 78, 63
1, 65595, Note_on_c, 0, 90, 84
1, 65598, Note_on_c, 0, 87, 72
1, 65601, Note_on_c, 0, 66, 73
1, 65603, Note_on_c, 0, 54, 65
1, 65611, Control_c, 0, 64, 121
1, 65626, Control_c, 0, 64, 95
1, 65627, Note_off_c, 0, 87, 59
1, 65632, Note_off_c, 0, 66, 63
1, 65641, Control_c, 0, 64, 76
1, 65646, Note_off_c, 0, 90, 61
1, 65656, Control_c, 0, 64, 0
1, 65669, Note_on_c, 0, 86, 68
1, 65674, Note_off_c, 0, 54, 50
1, 65699, Note_off_c, 0, 86, 64
1, 65730, Note_on_c, 0, 90, 85
1, 65737, Note_on_c, 0, 85, 79
1, 65752, Note_on_c, 0, 65, 64
1, 65755, Note_on_c, 0, 58, 55
1, 65789, Note_off_c, 0, 90, 64
1, 65791, Note_off_c, 0, 85, 66
1, 65808, Note_off_c, 0, 65, 57
1, 65815, Note_on_c, 0, 84, 72
1, 65848, Note_off_c, 0, 84, 66
1, 65880, Note_on_c, 0, 87, 82
1, 65883, Note_on_c, 0, 63, 75
1, 65883, Note_on_c, 0, 90, 80
1, 65907, Note_off_c, 0, 63, 68
1, 65920, Note_off_c, 0, 58, 57
1, 65939, Note_off_c, 0, 90, 62
1, 65946, Note_off_c, 0, 87, 61
1, 65955, Note_on_c, 0, 83, 77
1, 65989, Note_off_c, 0, 83, 63
1, 66030, Note_on_c, 0, 90, 94
1, 66033, Note_on_c, 0, 82, 91
1, 66034, Control_c, 0, 64, 66
1, 66037, Note_on_c, 0, 49, 96
1, 66043, Note_on_c, 0, 37, 82
1, 66048, Control_c, 0, 64, 111
1, 66063, Control_c, 0, 64, 127
1, 66066, Note_off_c, 0, 37, 68
1, 66075, Note_off_c, 0, 49, 62
1, 66098, Note_off_c, 0, 90, 61
1, 66110, Note_on_c, 0, 81, 86
1, 66110, Note_off_c, 0, 82, 63
1, 66151, Note_off_c, 0, 81, 64
1, 66190, Note_on_c, 0, 87, 90
1, 66196, Note_on_c, 0, 80, 82
1, 66210, Note_on_c, 0, 66, 80
1, 66217, Note_on_c, 0, 54, 62
1, 66247, Note_off_c, 0, 80, 62
1, 66253, Note_off_c, 0, 87, 62
1, 66257, Control_c, 0, 64, 108
1, 66258, Note_off_c, 0, 66, 58
1, 66265, Note_on_c, 0, 79, 82
1, 66271, Note_off_c, 0, 54, 51
1, 66271, Control_c, 0, 64, 94
1, 66286, Control_c, 0, 64, 80
1, 66301, Note_off_c, 0, 79, 64
1, 66301, Control_c, 0, 64, 62
1, 66307, Note_on_c, 0, 58, 59
1, 66316, Control_c, 0, 64, 0
1, 66343, Note_on_c, 0, 78, 86
1, 66344, Note_on_c, 0, 87, 86
1, 66347, Note_off_c, 0, 58, 62
1, 66357, Note_on_c, 0, 65, 70
1, 66397, Note_off_c, 0, 78, 62
1, 66399, Note_off_c, 0, 65, 65
1, 66403, Note_off_c, 0, 87, 61
1, 66414, Note_on_c, 0, 77, 83
1, 66422, Note_on_c, 0, 64, 53
1, 66461, Note_off_c, 0, 77, 62
1, 66477, Note_on_c, 0, 63, 83
1, 66486, Note_off_c, 0, 64, 63
1, 66488, Note_on_c, 0, 82, 88
1, 66491, Note_on_c, 0, 78, 84
1, 66498, Note_off_c, 0, 63, 73
1, 66551, Note_off_c, 0, 78, 62
1, 66555, Note_off_c, 0, 82, 62
1, 66562, Note_on_c, 0, 76, 81
1, 66590, Control_c, 0, 64, 34
1, 66602, Note_off_c, 0, 76, 66
1, 66605, Control_c, 0, 64, 72
1, 66620, Control_c, 0, 64, 85
1, 66631, Note_on_c, 0, 47, 100
1, 66634, Control_c, 0, 64, 101
1, 66635, Note_on_c, 0, 87, 95
1, 66638, Note_on_c, 0, 35, 82
1, 66644, Note_on_c, 0, 78, 89
1, 66649, Control_c, 0, 64, 109
1, 66664, Control_c, 0, 64, 111
1, 66667, Note_off_c, 0, 35, 66
1, 66668, Note_on_c, 0, 85, 47
1, 66668, Note_off_c, 0, 47, 63
1, 66678, Control_c, 0, 64, 112
1, 66693, Note_off_c, 0, 85, 46
1, 66708, Note_off_c, 0, 78, 61
1, 66709, Note_off_c, 0, 87, 60
1, 66710, Note_on_c, 0, 75, 78
1, 66745, Note_off_c, 0, 75, 62
1, 66767, Control_c, 0, 64, 110
1, 66782, Control_c, 0, 64, 105
1, 66791, Note_on_c, 0, 82, 88
1, 66796, Control_c, 0, 64, 98
1, 66799, Note_on_c, 0, 75, 64
1, 66811, Control_c, 0, 64, 89
1, 66814, Note_on_c, 0, 54, 75
1, 66816, Note_on_c, 0, 66, 81
1, 66826, Control_c, 0, 64, 80
1, 66836, Note_off_c, 0, 75, 60
1, 66841, Control_c, 0, 64, 70
1, 66843, Note_off_c, 0, 82, 62
1, 66849, Note_off_c, 0, 66, 59
1, 66856, Control_c, 0, 64, 50
1, 66872, Control_c, 0, 64, 0
1, 66878, Note_on_c, 0, 74, 61
1, 66879, Note_off_c, 0, 54, 50
1, 66905, Note_off_c, 0, 74, 70
1, 66943, Note_on_c, 0, 73, 75
1, 66943, Note_on_c, 0, 78, 73
1, 66964, Note_on_c, 0, 65, 66
1, 66966, Note_on_c, 0, 58, 56
1, 66973, Note_off_c, 0, 78, 48
1, 66983, Note_on_c, 0, 79, 36
1, 66984, Note_off_c, 0, 79, 127
1, 66998, Note_off_c, 0, 73, 51
1, 67013, Note_on_c, 0, 72, 73
1, 67034, Note_off_c, 0, 65, 57
1, 67040, Note_off_c, 0, 72, 66
1, 67080, Note_on_c, 0, 78, 81
1, 67083, Note_on_c, 0, 63, 67
1, 67091, Note_on_c, 0, 75, 70
1, 67106, Note_off_c, 0, 58, 58
1, 67110, Note_off_c, 0, 63, 67
1, 67140, Note_off_c, 0, 75, 61
1, 67144, Note_off_c, 0, 78, 60
1, 67152, Note_on_c, 0, 71, 76
1, 67183, Note_off_c, 0, 71, 62
1, 67198, Control_c, 0, 64, 60
1, 67213, Control_c, 0, 64, 75
1, 67222, Note_on_c, 0, 78, 93
1, 67223, Note_on_c, 0, 46, 93
1, 67227, Control_c, 0, 64, 89
1, 67228, Note_on_c, 0, 75, 85
1, 67230, Note_on_c, 0, 34, 70
1, 67242, Control_c, 0, 64, 111
1, 67246, Note_off_c, 0, 46, 66
1, 67252, Note_off_c, 0, 34, 64
1, 67257, Control_c, 0, 64, 127
1, 67290, Note_on_c, 0, 70, 82
1, 67290, Note_off_c, 0, 78, 60
1, 67293, Note_off_c, 0, 75, 63
1, 67323, Control_c, 0, 64, 125
1, 67338, Control_c, 0, 64, 111
1, 67350, Note_off_c, 0, 70, 61
1, 67353, Control_c, 0, 64, 96
1, 67368, Control_c, 0, 64, 81
1, 67376, Note_on_c, 0, 78, 87
1, 67380, Note_on_c, 0, 75, 77
1, 67383, Control_c, 0, 64, 65
1, 67398, Control_c, 0, 64, 0
1, 67401, Note_on_c, 0, 66, 73
1, 67408, Note_on_c, 0, 54, 57
1, 67428, Note_off_c, 0, 66, 68
1, 67439, Note_off_c, 0, 78, 61
1, 67442, Note_off_c, 0, 75, 63
1, 67450, Note_on_c, 0, 69, 82
1, 67457, Control_c, 0, 64, 64
1, 67457, Note_off_c, 0, 54, 58
1, 67472, Control_c, 0, 64, 68
1, 67487, Control_c, 0, 64, 71
1, 67489, Note_on_c, 0, 58, 57
1, 67496, Note_off_c, 0, 69, 66
1, 67501, Control_c, 0, 64, 74
1, 67516, Control_c, 0, 64, 78
1, 67526, Note_off_c, 0, 58, 64
1, 67527, Note_on_c, 0, 75, 84
1, 67531, Control_c, 0, 64, 81
1, 67532, Note_on_c, 0, 65, 65
1, 67536, Note_on_c, 0, 68, 81
1, 67546, Control_c, 0, 64, 84
1, 67559, Note_off_c, 0, 65, 58
1, 67561, Control_c, 0, 64, 86
1, 67574, Note_off_c, 0, 68, 59
1, 67575, Control_c, 0, 64, 87
1, 67579, Note_off_c, 0, 75, 61
1, 67583, Note_on_c, 0, 64, 67
1, 67590, Control_c, 0, 64, 88
1, 67600, Note_on_c, 0, 67, 74
1, 67605, Control_c, 0, 64, 89
1, 67628, Note_off_c, 0, 67, 62
1, 67648, Note_off_c, 0, 64, 58
1, 67653, Note_on_c, 0, 63, 73
1, 67654, Note_on_c, 0, 70, 86
1, 67657, Note_on_c, 0, 66, 81
1, 67664, Control_c, 0, 64, 89
1, 67678, Note_off_c, 0, 63, 69
1, 67678, Note_off_c, 0, 66, 72
1, 67680, Control_c, 0, 64, 90
1, 67695, Control_c, 0, 64, 91
1, 67707, Note_off_c, 0, 70, 64
1, 67710, Control_c, 0, 64, 92
1, 67740, Note_on_c, 0, 63, 89
1, 67769, Control_c, 0, 64, 90
1, 67776, Note_off_c, 0, 63, 64
1, 67784, Control_c, 0, 64, 85
1, 67798, Control_c, 0, 64, 74
1, 67798, Control_c, 0, 67, 13
1, 67813, Control_c, 0, 64, 55
1, 67813, Control_c, 0, 67, 25
1, 67815, Note_on_c, 0, 44, 81
1, 67828, Control_c, 0, 64, 0
1, 67828, Control_c, 0, 67, 49
1, 67842, Control_c, 0, 67, 71
1, 67846, Note_off_c, 0, 44, 64
1, 67857, Control_c, 0, 67, 91
1, 67872, Control_c, 0, 67, 108
1, 67887, Control_c, 0, 67, 121
1, 67902, Control_c, 0, 67, 127
1, 67933, Note_on_c, 0, 45, 29
1, 67971, Note_off_c, 0, 45, 31
1, 67979, Note_on_c, 0, 95, 72
1, 67980, Note_on_c, 0, 44, 55
1, 67997, Note_on_c, 0, 87, 49
1, 68000, Note_off_c, 0, 95, 52
1, 68028, Note_off_c, 0, 44, 59
1, 68035, Note_off_c, 0, 87, 47
1, 68062, Note_on_c, 0, 90, 67
1, 68063, Note_on_c, 0, 46, 59
1, 68089, Note_off_c, 0, 90, 65
1, 68091, Note_on_c, 0, 83, 34
1, 68101, Note_off_c, 0, 46, 61
1, 68118, Note_off_c, 0, 83, 43
1, 68140, Note_on_c, 0, 47, 57
1, 68177, Note_off_c, 0, 47, 65
1, 68215, Note_on_c, 0, 48, 39
1, 68245, Note_off_c, 0, 48, 62
1, 68257, Note_on_c, 0, 47, 61
1, 68289, Note_on_c, 0, 78, 59
1, 68292, Note_on_c, 0, 87, 56
1, 68304, Note_off_c, 0, 47, 62
1, 68309, Note_off_c, 0, 78, 61
1, 68343, Note_on_c, 0, 48, 45
1, 68349, Note_off_c, 0, 87, 57
1, 68358, Note_on_c, 0, 83, 65
1, 68372, Note_off_c, 0, 48, 56
1, 68373, Note_on_c, 0, 75, 51
1, 68383, Note_off_c, 0, 83, 67
1, 68395, Note_off_c, 0, 75, 60
1, 68414, Note_on_c, 0, 49, 69
1, 68425, Note_on_c, 0, 37, 48
1, 68447, Note_off_c, 0, 49, 63
1, 68451, Note_off_c, 0, 37, 55
1, 68534, Note_on_c, 0, 50, 47
1, 68557, Note_on_c, 0, 80, 54
1, 68560, Note_off_c, 0, 50, 59
1, 68584, Note_on_c, 0, 49, 53
1, 68593, Note_off_c, 0, 80, 60
1, 68596, Note_on_c, 0, 68, 60
1, 68615, Note_off_c, 0, 68, 64
1, 68623, Note_on_c, 0, 77, 58
1, 68637, Note_off_c, 0, 49, 60
1, 68656, Note_off_c, 0, 77, 62
1, 68668, Note_on_c, 0, 51, 55
1, 68709, Note_off_c, 0, 51, 64
1, 68749, Note_on_c, 0, 52, 48
1, 68786, Note_off_c, 0, 52, 67
1, 68808, Note_on_c, 0, 83, 54
1, 68820, Note_on_c, 0, 53, 44
1, 68830, Note_off_c, 0, 83, 59
1, 68847, Note_off_c, 0, 53, 60
1, 68853, Note_on_c, 0, 92, 77
1, 68862, Note_on_c, 0, 52, 55
1, 68887, Note_off_c, 0, 92, 54
1, 68896, Note_on_c, 0, 97, 85
1, 68901, Note_off_c, 0, 52, 66
1, 68924, Note_off_c, 0, 97, 61
1, 68973, Note_on_c, 0, 53, 3
1, 68994, Note_on_c, 0, 42, 59
1, 68994, Note_on_c, 0, 54, 73
1, 69007, Note_off_c, 0, 53, 28
1, 69019, Note_off_c, 0, 42, 61
1, 69025, Note_off_c, 0, 54, 65
1, 69103, Note_on_c, 0, 55, 47
1, 69130, Note_off_c, 0, 55, 58
1, 69149, Note_on_c, 0, 94, 64
1, 69155, Note_on_c, 0, 54, 60
1, 69157, Note_on_c, 0, 85, 50
1, 69188, Note_off_c, 0, 85, 58
1, 69205, Note_on_c, 0, 89, 72
1, 69209, Note_off_c, 0, 94, 65
1, 69212, Note_off_c, 0, 54, 58
1, 69219, Note_on_c, 0, 82, 52
1, 69228, Note_off_c, 0, 89, 70
1, 69230, Note_on_c, 0, 56, 63
1, 69253, Note_off_c, 0, 82, 60
1, 69266, Note_off_c, 0, 56, 65
1, 69317, Note_on_c, 0, 57, 48
1, 69356, Note_off_c, 0, 57, 61
1, 69363, Note_on_c, 0, 58, 61
1, 69401, Control_c, 0, 67, 126
1, 69416, Control_c, 0, 67, 125
1, 69416, Note_off_c, 0, 58, 63
1, 69431, Control_c, 0, 67, 125
1, 69442, Note_on_c, 0, 85, 64
1, 69443, Note_on_c, 0, 57, 59
1, 69443, Note_on_c, 0, 77, 58
1, 69445, Control_c, 0, 67, 124
1, 69460, Control_c, 0, 67, 124
1, 69483, Note_off_c, 0, 57, 63
1, 69487, Note_off_c, 0, 77, 48
1, 69499, Note_on_c, 0, 58, 56
1, 69499, Note_off_c, 0, 85, 62
1, 69501, Note_on_c, 0, 82, 73
1, 69510, Note_on_c, 0, 73, 68
1, 69523, Note_off_c, 0, 82, 69
1, 69525, Note_off_c, 0, 58, 63
1, 69544, Note_off_c, 0, 73, 67
1, 69586, Note_on_c, 0, 59, 69
1, 69601, Control_c, 0, 67, 123
1, 69604, Note_on_c, 0, 48, 42
1, 69616, Note_off_c, 0, 59, 63
1, 69623, Note_off_c, 0, 48, 38
1, 69682, Note_on_c, 0, 60, 57
1, 69716, Note_off_c, 0, 60, 64
1, 69717, Note_on_c, 0, 70, 66
1, 69718, Note_on_c, 0, 78, 63
1, 69736, Note_on_c, 0, 59, 59
1, 69757, Note_off_c, 0, 70, 58
1, 69769, Note_on_c, 0, 66, 66
1, 69772, Note_off_c, 0, 78, 52
1, 69786, Note_off_c, 0, 66, 67
1, 69787, Note_on_c, 0, 75, 67
1, 69794, Note_off_c, 0, 59, 61
1, 69810, Note_on_c, 0, 61, 65
1, 69813, Note_off_c, 0, 75, 67
1, 69837, Control_c, 0, 67, 124
1, 69846, Note_off_c, 0, 61, 62
1, 69867, Control_c, 0, 67, 124
1, 69889, Note_on_c, 0, 62, 61
1, 69896, Control_c, 0, 67, 125
1, 69911, Control_c, 0, 67, 125
1, 69941, Note_off_c, 0, 62, 61
1, 69955, Note_on_c, 0, 63, 61
1, 69959, Note_on_c, 0, 82, 66
1, 70001, Note_off_c, 0, 82, 63
1, 70009, Note_off_c, 0, 63, 64
1, 70014, Note_on_c, 0, 90, 70
1, 70015, Control_c, 0, 67, 125
1, 70030, Control_c, 0, 67, 124
1, 70032, Note_on_c, 0, 62, 52
1, 70036, Note_off_c, 0, 90, 65
1, 70042, Note_on_c, 0, 95, 95
1, 70060, Control_c, 0, 67, 124
1, 70065, Note_off_c, 0, 95, 66
1, 70074, Note_off_c, 0, 62, 63
1, 70075, Control_c, 0, 67, 123
1, 70084, Note_on_c, 0, 63, 65
1, 70090, Control_c, 0, 67, 123
1, 70105, Control_c, 0, 67, 122
1, 70113, Note_off_c, 0, 63, 67
1, 70119, Control_c, 0, 67, 122
1, 70134, Control_c, 0, 67, 120
1, 70149, Control_c, 0, 67, 118
1, 70156, Note_on_c, 0, 53, 71
1, 70164, Control_c, 0, 67, 117
1, 70167, Note_on_c, 0, 65, 70
1, 70177, Note_off_c, 0, 53, 67
1, 70179, Control_c, 0, 67, 116
1, 70193, Control_c, 0, 67, 114
1, 70202, Note_off_c, 0, 65, 61
1, 70208, Control_c, 0, 67, 112
1, 70223, Control_c, 0, 67, 109
1, 70237, Control_c, 0, 67, 106
1, 70252, Control_c, 0, 67, 103
1, 70267, Control_c, 0, 67, 101
1, 70280, Note_on_c, 0, 66, 62
1, 70282, Control_c, 0, 67, 99
1, 70304, Control_c, 0, 67, 97
1, 70315, Note_on_c, 0, 83, 55
1, 70317, Note_on_c, 0, 92, 65
1, 70319, Control_c, 0, 67, 95
1, 70330, Note_off_c, 0, 66, 66
1, 70334, Control_c, 0, 67, 93
1, 70349, Control_c, 0, 67, 92
1, 70355, Note_on_c, 0, 65, 56
1, 70364, Control_c, 0, 67, 90
1, 70373, Note_off_c, 0, 83, 55
1, 70379, Control_c, 0, 67, 88
1, 70387, Note_off_c, 0, 65, 67
1, 70388, Note_off_c, 0, 92, 64
1, 70391, Note_on_c, 0, 87, 63
1, 70393, Control_c, 0, 67, 86
1, 70396, Note_on_c, 0, 80, 59
1, 70407, Note_on_c, 0, 67, 60
1, 70408, Control_c, 0, 67, 84
1, 70411, Note_off_c, 0, 87, 65
1, 70423, Control_c, 0, 67, 81
1, 70426, Note_off_c, 0, 80, 54
1, 70438, Control_c, 0, 67, 78
1, 70449, Note_off_c, 0, 67, 56
1, 70452, Control_c, 0, 67, 75
1, 70467, Control_c, 0, 67, 73
1, 70482, Control_c, 0, 67, 70
1, 70485, Note_on_c, 0, 68, 61
1, 70497, Control_c, 0, 67, 68
1, 70512, Control_c, 0, 67, 66
1, 70526, Control_c, 0, 67, 64
1, 70532, Note_off_c, 0, 68, 63
1, 70541, Control_c, 0, 67, 62
1, 70549, Note_on_c, 0, 69, 63
1, 70556, Control_c, 0, 67, 60
1, 70571, Control_c, 0, 67, 57
1, 70586, Control_c, 0, 67, 55
1, 70597, Note_off_c, 0, 69, 63
1, 70600, Control_c, 0, 67, 53
1, 70615, Control_c, 0, 67, 51
1, 70619, Note_on_c, 0, 87, 65
1, 70623, Note_on_c, 0, 80, 53
1, 70629, Note_on_c, 0, 68, 57
1, 70630, Control_c, 0, 67, 48
1, 70644, Control_c, 0, 67, 46
1, 70659, Control_c, 0, 67, 44
1, 70662, Note_off_c, 0, 87, 64
1, 70665, Note_off_c, 0, 80, 59
1, 70670, Note_off_c, 0, 68, 65
1, 70674, Note_on_c, 0, 77, 70
1, 70674, Control_c, 0, 67, 42
1, 70679, Note_on_c, 0, 69, 61
1, 70680, Note_on_c, 0, 83, 64
1, 70689, Control_c, 0, 67, 42
1, 70701, Note_off_c, 0, 69, 67
1, 70704, Control_c, 0, 67, 41
1, 70707, Note_off_c, 0, 83, 65
1, 70723, Note_off_c, 0, 77, 60
1, 70770, Note_on_c, 0, 70, 78
1, 70772, Note_on_c, 0, 58, 58
1, 70799, Note_off_c, 0, 58, 64
1, 70839, Note_off_c, 0, 70, 64
1, 70868, Note_on_c, 0, 71, 58
1, 70906, Note_on_c, 0, 80, 72
1, 70909, Note_on_c, 0, 74, 59
1, 70918, Note_off_c, 0, 71, 61
1, 70927, Note_on_c, 0, 70, 56
1, 70935, Note_off_c, 0, 74, 69
1, 70937, Note_off_c, 0, 80, 64
1, 70942, Control_c, 0, 67, 41
1, 70957, Control_c, 0, 67, 40
1, 70964, Note_off_c, 0, 70, 65
1, 70976, Note_on_c, 0, 76, 71
1, 70981, Note_on_c, 0, 73, 65
1, 71040, Note_off_c, 0, 73, 62
1, 71057, Note_off_c, 0, 76, 38
1, 71058, Note_on_c, 0, 77, 81
1, 71067, Control_c, 0, 67, 40
1, 71071, Note_on_c, 0, 74, 63
1, 71076, Note_off_c, 0, 77, 71
1, 71097, Control_c, 0, 67, 39
1, 71112, Control_c, 0, 67, 38
1, 71117, Note_off_c, 0, 74, 65
1, 71127, Control_c, 0, 67, 37
1, 71136, Note_on_c, 0, 73, 58
1, 71142, Control_c, 0, 67, 36
1, 71157, Control_c, 0, 67, 35
1, 71172, Control_c, 0, 67, 35
1, 71179, Note_off_c, 0, 73, 61
1, 71200, Note_on_c, 0, 94, 88
1, 71206, Note_on_c, 0, 80, 74
1, 71210, Note_on_c, 0, 74, 56
1, 71219, Note_off_c, 0, 80, 70
1, 71219, Note_off_c, 0, 94, 71
1, 71234, Note_off_c, 0, 74, 66
1, 71264, Note_on_c, 0, 70, 64
1, 71306, Note_off_c, 0, 70, 64
1, 71320, Control_c, 0, 67, 34
1, 71348, Note_on_c, 0, 63, 64
1, 71349, Control_c, 0, 67, 34
1, 71353, Note_on_c, 0, 75, 58
1, 71379, Control_c, 0, 67, 33
1, 71387, Note_off_c, 0, 63, 60
1, 71390, Note_off_c, 0, 75, 65
1, 71393, Control_c, 0, 67, 33
1, 71408, Control_c, 0, 67, 31
1, 71423, Control_c, 0, 67, 29
1, 71430, Note_on_c, 0, 74, 63
1, 71438, Control_c, 0, 67, 26
1, 71453, Control_c, 0, 67, 24
1, 71467, Control_c, 0, 67, 22
1, 71482, Control_c, 0, 67, 20
1, 71485, Note_off_c, 0, 74, 63
1, 71497, Control_c, 0, 67, 19
1, 71500, Note_on_c, 0, 90, 74
1, 71501, Note_on_c, 0, 73, 58
1, 71511, Note_on_c, 0, 82, 65
1, 71512, Control_c, 0, 67, 18
1, 71527, Control_c, 0, 67, 16
1, 71541, Control_c, 0, 67, 16
1, 71550, Note_off_c, 0, 82, 52
1, 71556, Control_c, 0, 67, 15
1, 71564, Note_off_c, 0, 90, 61
1, 71570, Note_off_c, 0, 73, 62
1, 71571, Control_c, 0, 67, 15
1, 71572, Note_on_c, 0, 87, 73
1, 71574, Note_on_c, 0, 72, 68
1, 71575, Note_on_c, 0, 78, 53
1, 71586, Control_c, 0, 67, 14
1, 71592, Note_off_c, 0, 87, 69
1, 71599, Note_off_c, 0, 72, 69
1, 71601, Control_c, 0, 67, 14
1, 71616, Note_off_c, 0, 78, 53
1, 71616, Control_c, 0, 67, 13
1, 71631, Control_c, 0, 67, 12
1, 71646, Note_on_c, 0, 71, 71
1, 71646, Control_c, 0, 67, 11
1, 71661, Control_c, 0, 67, 11
1, 71676, Control_c, 0, 67, 9
1, 71684, Note_off_c, 0, 71, 57
1, 71690, Control_c, 0, 67, 8
1, 71705, Control_c, 0, 67, 0
1, 71711, Note_on_c, 0, 70, 68
1, 71781, Note_off_c, 0, 70, 62
1, 71793, Note_on_c, 0, 82, 74
1, 71802, Note_on_c, 0, 66, 65
1, 71802, Control_c, 0, 64, 62
1, 71809, Note_on_c, 0, 75, 45
1, 71816, Control_c, 0, 64, 72
1, 71831, Control_c, 0, 64, 83
1, 71836, Note_off_c, 0, 75, 56
1, 71845, Note_off_c, 0, 66, 65
1, 71846, Control_c, 0, 64, 101
1, 71855, Note_on_c, 0, 87, 78
1, 71856, Note_on_c, 0, 63, 67
1, 71861, Control_c, 0, 64, 116
1, 71873, Note_off_c, 0, 82, 63
1, 71876, Control_c, 0, 64, 121
1, 71878, Note_off_c, 0, 63, 68
1, 71881, Note_on_c, 0, 78, 58
1, 71888, Note_off_c, 0, 87, 63
1, 71890, Control_c, 0, 64, 119
1, 71899, Note_off_c, 0, 78, 58
1, 71905, Control_c, 0, 64, 107
1, 71920, Control_c, 0, 64, 89
1, 71935, Control_c, 0, 64, 70
1, 71943, Note_on_c, 0, 69, 79
1, 71950, Control_c, 0, 64, 0
1, 71953, Note_on_c, 0, 59, 70
1, 71953, Note_on_c, 0, 90, 90
1, 71954, Note_on_c, 0, 78, 91
1, 71970, Note_off_c, 0, 90, 72
1, 71973, Note_off_c, 0, 59, 59
1, 71979, Control_c, 0, 64, 57
1, 71988, Note_off_c, 0, 78, 63
1, 71994, Control_c, 0, 64, 70
1, 72009, Control_c, 0, 64, 79
1, 72013, Note_off_c, 0, 69, 59
1, 72024, Note_on_c, 0, 89, 78
1, 72024, Control_c, 0, 64, 87
1, 72039, Control_c, 0, 64, 92
1, 72046, Note_on_c, 0, 68, 69
1, 72054, Control_c, 0, 64, 95
1, 72069, Control_c, 0, 64, 102
1, 72084, Control_c, 0, 64, 112
1, 72098, Note_on_c, 0, 88, 76
1, 72098, Control_c, 0, 64, 125
1, 72107, Note_on_c, 0, 67, 66
1, 72110, Note_off_c, 0, 68, 62
1, 72111, Note_off_c, 0, 89, 65
1, 72113, Control_c, 0, 64, 127
1, 72143, Control_c, 0, 64, 115
1, 72158, Control_c, 0, 64, 96
1, 72170, Note_on_c, 0, 87, 90
1, 72172, Control_c, 0, 64, 76
1, 72179, Note_on_c, 0, 66, 73
1, 72185, Note_off_c, 0, 67, 62
1, 72187, Control_c, 0, 64, 0
1, 72191, Note_off_c, 0, 88, 63
1, 72212, Note_off_c, 0, 66, 65
1, 72231, Control_c, 0, 64, 55
1, 72238, Note_on_c, 0, 65, 84
1, 72246, Control_c, 0, 64, 69
1, 72248, Note_on_c, 0, 93, 95
1, 72249, Note_on_c, 0, 81, 89
1, 72254, Note_off_c, 0, 87, 40
1, 72261, Control_c, 0, 64, 75
1, 72276, Control_c, 0, 64, 80
1, 72284, Note_off_c, 0, 81, 62
1, 72290, Control_c, 0, 64, 82
1, 72296, Note_off_c, 0, 65, 62
1, 72305, Control_c, 0, 64, 83
1, 72313, Note_on_c, 0, 92, 92
1, 72320, Control_c, 0, 64, 90
1, 72324, Note_on_c, 0, 60, 62
1, 72329, Note_on_c, 0, 64, 67
1, 72334, Control_c, 0, 64, 101
1, 72338, Note_on_c, 0, 65, 61
1, 72346, Note_off_c, 0, 93, 61
1, 72349, Control_c, 0, 64, 125
1, 72364, Control_c, 0, 64, 127
1, 72374, Note_off_c, 0, 60, 55
1, 72384, Note_on_c, 0, 91, 86
1, 72384, Note_off_c, 0, 65, 57
1, 72385, Note_on_c, 0, 63, 63
1, 72394, Note_off_c, 0, 92, 67
1, 72414, Note_on_c, 0, 62, 76
1, 72421, Note_off_c, 0, 64, 34
1, 72438, Note_off_c, 0, 63, 58
1, 72438, Control_c, 0, 64, 126
1, 72448, Note_off_c, 0, 91, 60
1, 72448, Note_off_c, 0, 62, 62
1, 72453, Note_on_c, 0, 90, 90
1, 72453, Control_c, 0, 64, 91
1, 72468, Control_c, 0, 64, 63
1, 72483, Control_c, 0, 64, 0
1, 72486, Note_off_c, 0, 90, 65
1, 72516, Note_on_c, 0, 97, 110
1, 72518, Note_on_c, 0, 85, 109
1, 72519, Note_on_c, 0, 61, 97
1, 72525, Note_on_c, 0, 49, 80
1, 72528, Control_c, 0, 64, 53
1, 72549, Note_off_c, 0, 97, 70
1, 72550, Note_off_c, 0, 61, 65
1, 72550, Note_off_c, 0, 85, 68
1, 72550, Control_c, 0, 64, 88
1, 72560, Note_off_c, 0, 49, 66
1, 72565, Control_c, 0, 64, 127
1, 72802, Control_c, 0, 64, 115
1, 72817, Control_c, 0, 64, 88
1, 72820, Note_on_c, 0, 71, 65
1, 72829, Note_on_c, 0, 77, 93
1, 72832, Note_on_c, 0, 86, 81
1, 72832, Control_c, 0, 64, 64
1, 72847, Control_c, 0, 64, 0
1, 72849, Note_on_c, 0, 84, 55
1, 72855, Note_off_c, 0, 71, 60
1, 72859, Note_off_c, 0, 77, 64
1, 72862, Note_off_c, 0, 86, 57
1, 72867, Note_on_c, 0, 79, 36
1, 72871, Note_off_c, 0, 84, 39
1, 72884, Note_on_c, 0, 74, 67
1, 72897, Note_off_c, 0, 79, 34
1, 72906, Note_on_c, 0, 83, 69
1, 72912, Note_off_c, 0, 74, 63
1, 72954, Note_off_c, 0, 83, 60
1, 72957, Note_on_c, 0, 70, 60
1, 72969, Note_on_c, 0, 79, 72
1, 72991, Note_off_c, 0, 70, 65
1, 72999, Note_off_c, 0, 79, 63
1, 73029, Note_on_c, 0, 76, 64
1, 73036, Note_on_c, 0, 73, 50
1, 73058, Note_off_c, 0, 73, 60
1, 73060, Note_off_c, 0, 76, 65
1, 73107, Note_on_c, 0, 80, 66
1, 73121, Note_on_c, 0, 71, 4
1, 73140, Note_off_c, 0, 80, 65
1, 73162, Note_on_c, 0, 74, 56
1, 73166, Note_off_c, 0, 71, 27
1, 73182, Note_on_c, 0, 77, 58
1, 73194, Note_off_c, 0, 74, 65
1, 73222, Note_off_c, 0, 77, 57
1, 73253, Note_on_c, 0, 85, 68
1, 73268, Note_on_c, 0, 64, 27
1, 73305, Note_on_c, 0, 66, 66
1, 73307, Note_off_c, 0, 85, 56
1, 73309, Note_off_c, 0, 64, 49
1, 73327, Note_on_c, 0, 82, 71
1, 73357, Note_off_c, 0, 82, 62
1, 73374, Note_off_c, 0, 66, 65
1, 73396, Note_on_c, 0, 65, 61
1, 73398, Note_on_c, 0, 86, 73
1, 73421, Note_off_c, 0, 86, 67
1, 73426, Note_off_c, 0, 65, 67
1, 73456, Note_on_c, 0, 68, 73
1, 73460, Note_on_c, 0, 83, 73
1, 73493, Note_off_c, 0, 68, 60
1, 73499, Note_off_c, 0, 83, 59
1, 73535, Note_on_c, 0, 58, 69
1, 73539, Note_on_c, 0, 93, 70
1, 73543, Note_on_c, 0, 91, 74
1, 73572, Note_off_c, 0, 91, 57
1, 73574, Note_off_c, 0, 93, 59
1, 73593, Note_on_c, 0, 61, 66
1, 73602, Note_on_c, 0, 88, 79
1, 73621, Note_off_c, 0, 58, 55
1, 73647, Note_off_c, 0, 61, 59
1, 73657, Note_on_c, 0, 59, 54
1, 73658, Note_off_c, 0, 88, 61
1, 73670, Note_on_c, 0, 92, 90
1, 73690, Note_off_c, 0, 59, 63
1, 73703, Note_on_c, 0, 62, 76
1, 73728, Note_off_c, 0, 92, 64
1, 73735, Note_off_c, 0, 62, 64
1, 73737, Note_on_c, 0, 89, 84
1, 73782, Note_off_c, 0, 89, 61
1, 73803, Note_on_c, 0, 98, 99
1, 73810, Note_on_c, 0, 59, 71
1, 73847, Note_off_c, 0, 59, 63
1, 73860, Note_off_c, 0, 98, 65
1, 73880, Note_on_c, 0, 49, 72
1, 73880, Note_on_c, 0, 89, 75
1, 73900, Note_on_c, 0, 86, 42
1, 73909, Note_off_c, 0, 89, 65
1, 73929, Note_off_c, 0, 86, 36
1, 73947, Note_off_c, 0, 49, 59
1, 73951, Note_on_c, 0, 97, 80
1, 73980, Note_on_c, 0, 57, 47
1, 74006, Note_off_c, 0, 57, 56
1, 74012, Note_off_c, 0, 97, 64
1, 74018, Note_on_c, 0, 49, 55
1, 74036, Note_on_c, 0, 85, 63
1, 74063, Note_off_c, 0, 85, 68
1, 74086, Note_off_c, 0, 49, 58
1, 74105, Note_on_c, 0, 56, 46
1, 74108, Note_on_c, 0, 95, 80
1, 74123, Control_c, 0, 67, 8
1, 74134, Note_off_c, 0, 56, 58
1, 74136, Note_off_c, 0, 95, 64
1, 74138, Control_c, 0, 67, 9
1, 74152, Control_c, 0, 67, 10
1, 74167, Control_c, 0, 67, 11
1, 74170, Note_on_c, 0, 49, 67
1, 74178, Note_on_c, 0, 83, 63
1, 74182, Control_c, 0, 67, 13
1, 74197, Control_c, 0, 67, 14
1, 74206, Note_off_c, 0, 83, 63
1, 74211, Control_c, 0, 67, 15
1, 74215, Note_off_c, 0, 49, 61
1, 74226, Control_c, 0, 67, 16
1, 74237, Note_on_c, 0, 94, 79
1, 74241, Control_c, 0, 67, 16
1, 74256, Control_c, 0, 67, 17
1, 74260, Note_on_c, 0, 55, 46
1, 74271, Control_c, 0, 67, 18
1, 74285, Control_c, 0, 67, 18
1, 74287, Note_off_c, 0, 55, 59
1, 74287, Note_off_c, 0, 94, 64
1, 74300, Control_c, 0, 67, 19
1, 74308, Note_on_c, 0, 49, 59
1, 74310, Note_on_c, 0, 85, 48
1, 74315, Control_c, 0, 67, 20
1, 74328, Note_on_c, 0, 82, 29
1, 74330, Control_c, 0, 67, 21
1, 74332, Note_off_c, 0, 85, 57
1, 74345, Control_c, 0, 67, 22
1, 74351, Note_off_c, 0, 49, 63
1, 74359, Control_c, 0, 67, 23
1, 74361, Note_off_c, 0, 82, 31
1, 74370, Note_on_c, 0, 54, 57
1, 74370, Note_on_c, 0, 93, 80
1, 74374, Control_c, 0, 67, 24
1, 74389, Control_c, 0, 67, 25
1, 74404, Control_c, 0, 67, 25
1, 74415, Note_off_c, 0, 93, 58
1, 74418, Control_c, 0, 67, 26
1, 74436, Note_off_c, 0, 54, 58
1, 74448, Control_c, 0, 67, 27
1, 74449, Note_on_c, 0, 49, 59
1, 74455, Note_on_c, 0, 81, 64
1, 74463, Control_c, 0, 67, 28
1, 74464, Note_on_c, 0, 84, 42
1, 74473, Note_off_c, 0, 81, 64
1, 74478, Control_c, 0, 67, 28
1, 74489, Note_off_c, 0, 84, 54
1, 74491, Note_off_c, 0, 49, 63
1, 74492, Control_c, 0, 67, 29
1, 74514, Note_on_c, 0, 92, 80
1, 74522, Control_c, 0, 67, 29
1, 74552, Note_on_c, 0, 90, 20
1, 74552, Control_c, 0, 67, 30
1, 74567, Control_c, 0, 67, 30
1, 74571, Note_off_c, 0, 92, 64
1, 74577, Note_off_c, 0, 90, 33
1, 74579, Note_on_c, 0, 49, 55
1, 74582, Note_on_c, 0, 84, 69
1, 74582, Control_c, 0, 67, 31
1, 74597, Control_c, 0, 67, 33
1, 74604, Note_on_c, 0, 80, 57
1, 74607, Note_off_c, 0, 49, 54
1, 74611, Control_c, 0, 67, 37
1, 74625, Note_off_c, 0, 80, 61
1, 74626, Control_c, 0, 67, 43
1, 74641, Control_c, 0, 67, 51
1, 74656, Control_c, 0, 67, 59
1, 74661, Note_on_c, 0, 63, 51
1, 74664, Note_on_c, 0, 90, 78
1, 74671, Control_c, 0, 67, 62
1, 74683, Note_off_c, 0, 63, 59
1, 74685, Control_c, 0, 67, 63
1, 74698, Note_off_c, 0, 84, 29
1, 74702, Note_on_c, 0, 49, 40
1, 74708, Note_off_c, 0, 49, 43
1, 74715, Control_c, 0, 67, 62
1, 74724, Note_on_c, 0, 78, 61
1, 74726, Note_off_c, 0, 90, 63
1, 74743, Note_off_c, 0, 78, 63
1, 74759, Control_c, 0, 67, 62
1, 74774, Control_c, 0, 67, 61
1, 74796, Control_c, 0, 67, 60
1, 74811, Note_on_c, 0, 89, 72
1, 74821, Note_on_c, 0, 85, 52
1, 74823, Note_on_c, 0, 68, 60
1, 74826, Control_c, 0, 67, 60
1, 74827, Note_on_c, 0, 77, 57
1, 74834, Note_on_c, 0, 61, 47
1, 74841, Control_c, 0, 64, 62
1, 74844, Note_off_c, 0, 68, 64
1, 74852, Note_off_c, 0, 85, 50
1, 74856, Control_c, 0, 64, 67
1, 74871, Control_c, 0, 64, 70
1, 74872, Note_off_c, 0, 89, 61
1, 74873, Note_off_c, 0, 61, 63
1, 74886, Control_c, 0, 64, 74
1, 74901, Control_c, 0, 64, 79
1, 74901, Control_c, 0, 67, 59
1, 74916, Control_c, 0, 64, 85
1, 74931, Control_c, 0, 64, 87
1, 74932, Note_off_c, 0, 77, 24
1, 74945, Control_c, 0, 64, 88
1, 74960, Control_c, 0, 64, 89
1, 74975, Control_c, 0, 64, 90
1, 74990, Control_c, 0, 64, 90
1, 75005, Control_c, 0, 64, 91
1, 75020, Control_c, 0, 64, 91
1, 75074, Note_on_c, 0, 37, 24
1, 75079, Control_c, 0, 67, 59
1, 75108, Control_c, 0, 67, 58
1, 75115, Note_off_c, 0, 37, 40
1, 75123, Control_c, 0, 67, 58
1, 75138, Control_c, 0, 67, 57
1, 75168, Control_c, 0, 67, 57
1, 75197, Control_c, 0, 67, 56
1, 75212, Control_c, 0, 64, 90
1, 75212, Control_c, 0, 67, 56
1, 75227, Control_c, 0, 64, 87
1, 75227, Control_c, 0, 67, 55
1, 75241, Control_c, 0, 64, 79
1, 75241, Control_c, 0, 67, 55
1, 75242, Note_on_c, 0, 74, 72
1, 75255, Note_on_c, 0, 68, 62
1, 75256, Control_c, 0, 64, 69
1, 75256, Control_c, 0, 67, 54
1, 75257, Note_on_c, 0, 65, 57
1, 75266, Note_on_c, 0, 59, 43
1, 75271, Control_c, 0, 64, 35
1, 75271, Control_c, 0, 67, 54
1, 75282, Note_off_c, 0, 65, 57
1, 75286, Control_c, 0, 64, 0
1, 75294, Note_off_c, 0, 59, 52
1, 75297, Note_off_c, 0, 74, 51
1, 75300, Note_off_c, 0, 68, 58
1, 75328, Note_on_c, 0, 71, 57
1, 75344, Note_on_c, 0, 62, 42
1, 75371, Note_off_c, 0, 62, 52
1, 75372, Note_off_c, 0, 71, 59
1, 75397, Note_on_c, 0, 58, 51
1, 75401, Note_on_c, 0, 67, 65
1, 75425, Note_off_c, 0, 58, 59
1, 75430, Note_off_c, 0, 67, 67
1, 75459, Note_on_c, 0, 64, 55
1, 75472, Note_on_c, 0, 61, 51
1, 75488, Note_off_c, 0, 64, 57
1, 75500, Note_off_c, 0, 61, 57
1, 75524, Control_c, 0, 67, 53
1, 75528, Note_on_c, 0, 59, 60
1, 75545, Note_on_c, 0, 68, 58
1, 75560, Control_c, 0, 67, 53
1, 75569, Note_off_c, 0, 59, 63
1, 75577, Note_off_c, 0, 68, 60
1, 75590, Control_c, 0, 67, 52
1, 75614, Note_on_c, 0, 65, 58
1, 75620, Control_c, 0, 67, 51
1, 75625, Note_on_c, 0, 62, 50
1, 75634, Control_c, 0, 67, 49
1, 75649, Control_c, 0, 67, 48
1, 75653, Note_off_c, 0, 62, 54
1, 75656, Note_off_c, 0, 65, 59
1, 75665, Control_c, 0, 67, 48
1, 75689, Note_on_c, 0, 73, 67
1, 75694, Note_on_c, 0, 52, 50
1, 75725, Control_c, 0, 67, 47
1, 75739, Control_c, 0, 67, 47
1, 75747, Note_off_c, 0, 52, 62
1, 75748, Note_off_c, 0, 73, 59
1, 75759, Note_on_c, 0, 70, 69
1, 75770, Note_on_c, 0, 55, 53
1, 75797, Note_off_c, 0, 70, 61
1, 75809, Note_off_c, 0, 55, 64
1, 75834, Note_on_c, 0, 74, 67
1, 75839, Note_on_c, 0, 53, 59
1, 75858, Control_c, 0, 67, 47
1, 75864, Note_off_c, 0, 74, 62
1, 75872, Control_c, 0, 67, 48
1, 75877, Note_off_c, 0, 53, 67
1, 75900, Note_on_c, 0, 71, 69
1, 75902, Control_c, 0, 67, 48
1, 75916, Note_on_c, 0, 56, 59
1, 75941, Note_off_c, 0, 71, 60
1, 75947, Control_c, 0, 67, 49
1, 75952, Note_off_c, 0, 56, 61
1, 75983, Note_on_c, 0, 79, 72
1, 76001, Note_on_c, 0, 46, 62
1, 76031, Note_off_c, 0, 79, 59
1, 76048, Note_on_c, 0, 76, 73
1, 76051, Control_c, 0, 67, 48
1, 76054, Note_on_c, 0, 49, 54
1, 76078, Note_off_c, 0, 46, 61
1, 76080, Control_c, 0, 67, 48
1, 76090, Note_off_c, 0, 76, 67
1, 76105, Note_off_c, 0, 49, 60
1, 76110, Control_c, 0, 67, 47
1, 76118, Note_on_c, 0, 47, 64
1, 76120, Note_on_c, 0, 80, 83
1, 76125, Control_c, 0, 67, 47
1, 76163, Note_off_c, 0, 47, 67
1, 76175, Note_on_c, 0, 50, 62
1, 76177, Note_off_c, 0, 80, 62
1, 76183, Control_c, 0, 67, 46
1, 76194, Note_on_c, 0, 77, 73
1, 76204, Note_off_c, 0, 50, 65
1, 76233, Note_off_c, 0, 77, 59
1, 76243, Control_c, 0, 67, 47
1, 76256, Note_on_c, 0, 86, 82
1, 76257, Control_c, 0, 67, 48
1, 76272, Control_c, 0, 67, 48
1, 76286, Note_on_c, 0, 47, 67
1, 76307, Note_off_c, 0, 86, 62
1, 76320, Note_off_c, 0, 47, 64
1, 76339, Control_c, 0, 67, 48
1, 76343, Note_on_c, 0, 77, 55
1, 76351, Note_on_c, 0, 37, 66
1, 76354, Control_c, 0, 67, 47
1, 76369, Control_c, 0, 67, 47
1, 76376, Note_off_c, 0, 77, 53
1, 76383, Control_c, 0, 67, 46
1, 76391, Note_off_c, 0, 37, 65
1, 76398, Note_on_c, 0, 85, 71
1, 76413, Control_c, 0, 67, 46
1, 76428, Control_c, 0, 67, 45
1, 76443, Note_on_c, 0, 45, 52
1, 76443, Control_c, 0, 67, 44
1, 76449, Note_off_c, 0, 85, 61
1, 76459, Control_c, 0, 67, 42
1, 76466, Note_on_c, 0, 73, 64
1, 76472, Note_off_c, 0, 45, 62
1, 76474, Control_c, 0, 67, 40
1, 76484, Note_on_c, 0, 37, 62
1, 76488, Control_c, 0, 67, 40
1, 76498, Note_off_c, 0, 73, 66
1, 76503, Control_c, 0, 67, 39
1, 76518, Control_c, 0, 67, 38
1, 76533, Note_off_c, 0, 37, 63
1, 76536, Note_on_c, 0, 83, 74
1, 76548, Control_c, 0, 67, 38
1, 76559, Note_on_c, 0, 44, 58
1, 76571, Note_off_c, 0, 83, 62
1, 76577, Control_c, 0, 67, 37
1, 76592, Control_c, 0, 67, 36
1, 76595, Note_off_c, 0, 44, 64
1, 76606, Control_c, 0, 67, 34
1, 76609, Note_on_c, 0, 71, 55
1, 76621, Control_c, 0, 67, 33
1, 76622, Note_on_c, 0, 37, 69
1, 76630, Note_off_c, 0, 71, 58
1, 76636, Control_c, 0, 67, 30
1, 76651, Control_c, 0, 67, 28
1, 76660, Note_on_c, 0, 82, 79
1, 76665, Note_off_c, 0, 37, 63
1, 76666, Control_c, 0, 67, 26
1, 76680, Control_c, 0, 67, 24
1, 76695, Control_c, 0, 67, 21
1, 76697, Note_on_c, 0, 43, 64
1, 76710, Control_c, 0, 67, 18
1, 76713, Note_off_c, 0, 82, 61
1, 76725, Control_c, 0, 67, 16
1, 76729, Note_off_c, 0, 43, 62
1, 76738, Note_on_c, 0, 70, 60
1, 76740, Control_c, 0, 67, 14
1, 76752, Note_on_c, 0, 37, 64
1, 76755, Control_c, 0, 67, 12
1, 76757, Note_off_c, 0, 70, 62
1, 76770, Control_c, 0, 67, 10
1, 76772, Note_on_c, 0, 73, 25
1, 76785, Control_c, 0, 67, 0
1, 76803, Note_off_c, 0, 37, 62
1, 76808, Note_off_c, 0, 73, 31
1, 76813, Note_on_c, 0, 81, 63
1, 76819, Note_on_c, 0, 42, 67
1, 76843, Note_off_c, 0, 81, 62
1, 76871, Note_on_c, 0, 72, 60
1, 76875, Note_on_c, 0, 69, 63
1, 76891, Note_off_c, 0, 42, 61
1, 76899, Note_off_c, 0, 69, 67
1, 76902, Note_off_c, 0, 72, 64
1, 76905, Note_on_c, 0, 37, 68
1, 76940, Note_on_c, 0, 80, 79
1, 76946, Note_off_c, 0, 37, 67
1, 76949, Note_on_c, 0, 45, 63
1, 76983, Note_off_c, 0, 45, 65
1, 76985, Note_off_c, 0, 80, 62
1, 77005, Note_on_c, 0, 72, 48
1, 77014, Note_on_c, 0, 68, 67
1, 77036, Note_on_c, 0, 37, 63
1, 77057, Note_off_c, 0, 72, 63
1, 77058, Note_off_c, 0, 68, 66
1, 77083, Note_off_c, 0, 37, 64
1, 77088, Note_on_c, 0, 78, 86
1, 77116, Note_on_c, 0, 51, 69
1, 77148, Note_off_c, 0, 51, 65
1, 77156, Note_off_c, 0, 78, 61
1, 77157, Note_on_c, 0, 66, 74
1, 77178, Note_off_c, 0, 66, 69
1, 77185, Note_on_c, 0, 37, 74
1, 77229, Note_on_c, 0, 77, 86
1, 77250, Note_on_c, 0, 49, 75
1, 77253, Note_off_c, 0, 37, 63
1, 77276, Note_off_c, 0, 77, 57
1, 77301, Note_off_c, 0, 49, 62
1, 77312, Note_on_c, 0, 65, 74
1, 77324, Note_on_c, 0, 68, 65
1, 77326, Note_on_c, 0, 37, 78
1, 77336, Note_off_c, 0, 65, 70
1, 77353, Note_off_c, 0, 68, 67
1, 77384, Note_on_c, 0, 74, 86
1, 77399, Note_on_c, 0, 47, 77
1, 77402, Note_off_c, 0, 37, 64
1, 77426, Note_off_c, 0, 74, 62
1, 77452, Note_off_c, 0, 47, 64
1, 77473, Note_on_c, 0, 65, 57
1, 77473, Note_on_c, 0, 37, 76
1, 77476, Note_on_c, 0, 62, 49
1, 77497, Note_on_c, 0, 64, 13
1, 77498, Note_off_c, 0, 64, 127
1, 77502, Note_off_c, 0, 62, 50
1, 77511, Note_off_c, 0, 65, 58
1, 77533, Note_on_c, 0, 73, 76
1, 77546, Note_on_c, 0, 45, 72
1, 77549, Note_off_c, 0, 37, 64
1, 77582, Note_off_c, 0, 73, 63
1, 77599, Note_off_c, 0, 45, 63
1, 77601, Note_on_c, 0, 61, 72
1, 77614, Note_on_c, 0, 37, 70
1, 77631, Note_off_c, 0, 61, 65
1, 77675, Note_on_c, 0, 71, 86
1, 77688, Note_off_c, 0, 37, 63
1, 77691, Note_on_c, 0, 44, 70
1, 77718, Note_off_c, 0, 71, 60
1, 77743, Note_on_c, 0, 59, 78
1, 77745, Note_off_c, 0, 44, 60
1, 77763, Note_on_c, 0, 37, 71
1, 77780, Note_off_c, 0, 59, 66
1, 77815, Note_on_c, 0, 70, 88
1, 77834, Note_on_c, 0, 43, 71
1, 77834, Note_off_c, 0, 37, 64
1, 77877, Note_off_c, 0, 70, 62
1, 77879, Note_off_c, 0, 43, 63
1, 77885, Note_on_c, 0, 58, 76
1, 77898, Note_on_c, 0, 61, 66
1, 77901, Note_on_c, 0, 37, 72
1, 77908, Note_off_c, 0, 58, 69
1, 77925, Note_off_c, 0, 61, 64
1, 77956, Note_on_c, 0, 69, 84
1, 77972, Note_on_c, 0, 42, 67
1, 77976, Note_off_c, 0, 37, 63
1, 78010, Note_off_c, 0, 69, 65
1, 78032, Note_on_c, 0, 60, 69
1, 78037, Note_on_c, 0, 57, 74
1, 78044, Note_off_c, 0, 42, 64
1, 78057, Note_on_c, 0, 37, 63
1, 78072, Note_off_c, 0, 57, 65
1, 78088, Note_on_c, 0, 45, 70
1, 78100, Note_off_c, 0, 37, 67
1, 78110, Note_on_c, 0, 68, 84
1, 78129, Note_off_c, 0, 45, 66
1, 78171, Note_on_c, 0, 37, 74
1, 78171, Note_off_c, 0, 68, 62
1, 78181, Note_on_c, 0, 56, 75
1, 78228, Note_off_c, 0, 60, 61
1, 78231, Note_off_c, 0, 56, 62
1, 78241, Note_off_c, 0, 37, 65
1, 78256, Note_on_c, 0, 66, 89
1, 78260, Note_on_c, 0, 51, 75
1, 78294, Note_off_c, 0, 51, 63
1, 78311, Note_off_c, 0, 66, 65
1, 78321, Note_on_c, 0, 37, 66
1, 78372, Note_on_c, 0, 65, 86
1, 78376, Note_on_c, 0, 56, 86
1, 78391, Note_on_c, 0, 49, 71
1, 78402, Note_off_c, 0, 56, 67
1, 78403, Note_on_c, 0, 64, 44
1, 78404, Note_off_c, 0, 64, 127
1, 78408, Note_off_c, 0, 65, 66
1, 78410, Note_off_c, 0, 37, 64
1, 78422, Note_off_c, 0, 49, 63
1, 78546, Note_on_c, 0, 62, 98
1, 78555, Note_on_c, 0, 53, 79
1, 78555, Note_on_c, 0, 56, 76
1, 78558, Note_on_c, 0, 47, 82
1, 78564, Note_on_c, 0, 35, 74
1, 78577, Note_off_c, 0, 53, 69
1, 78580, Note_off_c, 0, 56, 66
1, 78594, Note_off_c, 0, 35, 63
1, 78595, Note_off_c, 0, 47, 65
1, 78603, Note_off_c, 0, 62, 62
1, 78713, Note_on_c, 0, 61, 87
1, 78720, Note_on_c, 0, 48, 80
1, 78724, Note_on_c, 0, 53, 67
1, 78727, Note_on_c, 0, 56, 78
1, 78728, Note_on_c, 0, 36, 69
1, 78755, Note_off_c, 0, 53, 64
1, 78756, Note_off_c, 0, 36, 64
1, 78756, Note_off_c, 0, 56, 64
1, 78774, Note_off_c, 0, 48, 57
1, 78790, Note_off_c, 0, 61, 62
1, 78876, Note_on_c, 0, 60, 92
1, 78883, Note_on_c, 0, 37, 66
1, 78884, Note_on_c, 0, 49, 69
1, 78885, Note_on_c, 0, 53, 75
1, 78889, Note_on_c, 0, 56, 71
1, 78923, Note_off_c, 0, 56, 59
1, 78928, Note_off_c, 0, 53, 56
1, 78934, Note_off_c, 0, 37, 63
1, 78949, Note_off_c, 0, 49, 58
1, 78961, Note_off_c, 0, 60, 59
1, 79031, Note_on_c, 0, 59, 81
1, 79041, Note_on_c, 0, 56, 59
1, 79044, Note_on_c, 0, 38, 60
1, 79048, Note_on_c, 0, 53, 54
1, 79051, Note_on_c, 0, 50, 54
1, 79082, Note_off_c, 0, 53, 55
1, 79092, Note_off_c, 0, 38, 56
1, 79099, Note_off_c, 0, 50, 56
1, 79110, Note_off_c, 0, 56, 58
1, 79113, Note_off_c, 0, 59, 59
1, 79192, Note_on_c, 0, 62, 71
1, 79203, Note_on_c, 0, 56, 55
1, 79206, Note_on_c, 0, 53, 44
1, 79229, Note_on_c, 0, 47, 45
1, 79250, Note_off_c, 0, 53, 53
1, 79254, Note_off_c, 0, 56, 56
1, 79316, Note_off_c, 0, 62, 56
1, 79321, Note_off_c, 0, 47, 57
1, 79369, Note_on_c, 0, 61, 64
1, 79381, Note_on_c, 0, 53, 42
1, 79384, Note_on_c, 0, 48, 42
1, 79407, Note_off_c, 0, 61, 63
1, 79414, Note_off_c, 0, 53, 53
1, 79428, Note_off_c, 0, 48, 64
1, 79435, Note_on_c, 0, 60, 65
1, 79461, Note_on_c, 0, 49, 50
1, 79509, Note_off_c, 0, 60, 60
1, 79512, Note_off_c, 0, 49, 54
1, 79536, Note_on_c, 0, 59, 46
1, 79566, Note_on_c, 0, 50, 40
1, 79625, Note_off_c, 0, 50, 59
1, 79638, Note_off_c, 0, 59, 60
1, 80064, Note_on_c, 0, 59, 29
1, 80064, Note_on_c, 0, 74, 49
1, 80081, Note_on_c, 0, 65, 41
1, 80100, Note_on_c, 0, 68, 23
1, 80113, Control_c, 0, 67, 8
1, 80128, Control_c, 0, 67, 11
1, 80141, Note_off_c, 0, 65, 56
1, 80143, Control_c, 0, 67, 16
1, 80157, Note_off_c, 0, 68, 49
1, 80157, Control_c, 0, 67, 20
1, 80162, Note_off_c, 0, 74, 58
1, 80172, Control_c, 0, 67, 25
1, 80187, Control_c, 0, 67, 31
1, 80192, Note_off_c, 0, 59, 37
1, 80202, Control_c, 0, 67, 36
1, 80217, Control_c, 0, 67, 41
1, 80231, Control_c, 0, 67, 46
1, 80246, Control_c, 0, 67, 50
1, 80261, Control_c, 0, 67, 54
1, 80268, Note_on_c, 0, 73, 58
1, 80276, Note_on_c, 0, 68, 42
1, 80276, Control_c, 0, 67, 58
1, 80283, Note_on_c, 0, 65, 39
1, 80291, Control_c, 0, 67, 63
1, 80297, Note_on_c, 0, 60, 27
1, 80305, Control_c, 0, 67, 66
1, 80320, Control_c, 0, 67, 70
1, 80335, Control_c, 0, 67, 74
1, 80339, Note_off_c, 0, 65, 43
1, 80350, Control_c, 0, 67, 77
1, 80353, Note_off_c, 0, 68, 43
1, 80365, Control_c, 0, 67, 80
1, 80365, Note_off_c, 0, 60, 41
1, 80365, Note_off_c, 0, 73, 56
1, 80380, Control_c, 0, 67, 83
1, 80395, Control_c, 0, 67, 88
1, 80409, Control_c, 0, 67, 94
1, 80424, Control_c, 0, 67, 100
1, 80439, Control_c, 0, 67, 106
1, 80451, Note_on_c, 0, 61, 38
1, 80454, Control_c, 0, 67, 111
1, 80459, Note_on_c, 0, 72, 54
1, 80469, Control_c, 0, 67, 116
1, 80475, Note_on_c, 0, 68, 41
1, 80484, Note_on_c, 0, 65, 29
1, 80484, Control_c, 0, 67, 120
1, 80499, Control_c, 0, 67, 123
1, 80514, Control_c, 0, 67, 124
1, 80522, Note_off_c, 0, 61, 49
1, 80527, Note_off_c, 0, 65, 50
1, 80529, Control_c, 0, 67, 126
1, 80536, Note_off_c, 0, 68, 49
1, 80539, Note_off_c, 0, 72, 56
1, 80544, Control_c, 0, 67, 127
1, 80630, Note_on_c, 0, 71, 52
1, 80636, Note_on_c, 0, 62, 37
1, 80647, Note_on_c, 0, 65, 29
1, 80655, Note_on_c, 0, 68, 27
1, 80692, Note_off_c, 0, 65, 48
1, 80705, Note_off_c, 0, 68, 45
1, 80748, Note_off_c, 0, 71, 58
1, 80762, Note_off_c, 0, 62, 41
1, 80825, Note_on_c, 0, 74, 56
1, 80831, Note_on_c, 0, 68, 42
1, 80839, Note_on_c, 0, 59, 25
1, 80855, Note_on_c, 0, 65, 6
1, 80906, Note_off_c, 0, 65, 40
1, 80924, Note_off_c, 0, 68, 32
1, 80924, Note_off_c, 0, 74, 47
1, 80987, Note_off_c, 0, 59, 36
1, 81016, Note_on_c, 0, 65, 36
1, 81029, Note_on_c, 0, 73, 46
1, 81030, Note_on_c, 0, 60, 19
1, 81055, Note_off_c, 0, 65, 49
1, 81076, Note_off_c, 0, 60, 47
1, 81097, Note_off_c, 0, 73, 63
1, 81131, Note_on_c, 0, 72, 46
1, 81137, Note_on_c, 0, 61, 31
1, 81202, Note_off_c, 0, 72, 58
1, 81227, Note_on_c, 0, 71, 42
1, 81238, Note_off_c, 0, 61, 37
1, 81256, Note_on_c, 0, 62, 26
1, 81339, Note_off_c, 0, 71, 58
1, 81355, Note_off_c, 0, 62, 54
1, 81566, Control_c, 0, 67, 126
1, 81581, Control_c, 0, 67, 125
1, 81596, Control_c, 0, 67, 124
1, 81611, Control_c, 0, 67, 118
1, 81626, Control_c, 0, 67, 109
1, 81641, Control_c, 0, 67, 97
1, 81655, Control_c, 0, 67, 82
1, 81670, Control_c, 0, 67, 64
1, 81685, Control_c, 0, 67, 44
1, 81700, Control_c, 0, 67, 18
1, 81715, Control_c, 0, 67, 0
1, 81734, Note_on_c, 0, 62, 74
1, 81734, Note_on_c, 0, 65, 79
1, 81739, Note_on_c, 0, 56, 78
1, 81745, Note_on_c, 0, 47, 75
1, 81746, Note_on_c, 0, 35, 74
1, 81779, Note_off_c, 0, 56, 59
1, 81783, Note_off_c, 0, 35, 65
1, 81783, Note_off_c, 0, 47, 66
1, 81787, Note_off_c, 0, 65, 64
1, 81791, Note_off_c, 0, 62, 62
1, 81933, Note_on_c, 0, 61, 82
1, 81934, Note_on_c, 0, 65, 79
1, 81936, Note_on_c, 0, 56, 74
1, 81945, Note_on_c, 0, 48, 72
1, 81954, Note_on_c, 0, 36, 59
1, 81967, Note_off_c, 0, 56, 62
1, 81974, Note_off_c, 0, 65, 58
1, 81976, Note_off_c, 0, 48, 66
1, 81980, Note_off_c, 0, 36, 61
1, 81984, Note_off_c, 0, 61, 61
1, 82092, Note_on_c, 0, 60, 73
1, 82093, Note_on_c, 0, 56, 73
1, 82094, Note_on_c, 0, 65, 76
1, 82106, Note_on_c, 0, 49, 65
1, 82109, Note_on_c, 0, 37, 59
1, 82128, Note_off_c, 0, 56, 61
1, 82142, Note_off_c, 0, 49, 61
1, 82142, Note_off_c, 0, 65, 63
1, 82145, Note_off_c, 0, 60, 60
1, 82147, Note_off_c, 0, 37, 65
1, 82252, Note_on_c, 0, 65, 81
1, 82254, Note_on_c, 0, 56, 74
1, 82254, Note_on_c, 0, 59, 77
1, 82255, Note_on_c, 0, 50, 73
1, 82259, Note_on_c, 0, 38, 66
1, 82292, Note_off_c, 0, 56, 63
1, 82296, Note_off_c, 0, 50, 62
1, 82305, Note_off_c, 0, 38, 64
1, 82305, Note_off_c, 0, 65, 63
1, 82315, Note_off_c, 0, 59, 62
1, 82404, Note_on_c, 0, 65, 79
1, 82405, Note_on_c, 0, 62, 77
1, 82411, Note_on_c, 0, 56, 71
1, 82423, Note_on_c, 0, 47, 70
1, 82442, Note_off_c, 0, 56, 63
1, 82455, Note_off_c, 0, 65, 62
1, 82463, Note_off_c, 0, 62, 63
1, 82483, Note_off_c, 0, 47, 60
1, 82546, Note_on_c, 0, 56, 74
1, 82565, Note_on_c, 0, 48, 59
1, 82565, Note_on_c, 0, 61, 46
1, 82571, Note_off_c, 0, 56, 66
1, 82574, Note_on_c, 0, 65, 45
1, 82597, Note_off_c, 0, 48, 65
1, 82597, Note_off_c, 0, 61, 63
1, 82600, Note_off_c, 0, 65, 56
1, 82626, Note_on_c, 0, 60, 72
1, 82628, Note_on_c, 0, 49, 59
1, 82668, Note_off_c, 0, 60, 64
1, 82676, Note_off_c, 0, 49, 60
1, 82696, Note_on_c, 0, 59, 71
1, 82708, Note_on_c, 0, 50, 43
1, 82758, Note_off_c, 0, 59, 60
1, 82763, Note_off_c, 0, 50, 0
1, 82763, Note_on_c, 0, 50, 7
1, 82774, Control_c, 0, 64, 28
1, 82774, Control_c, 0, 67, 10
1, 82789, Control_c, 0, 64, 64
1, 82789, Control_c, 0, 67, 15
1, 82804, Control_c, 0, 64, 69
1, 82804, Control_c, 0, 67, 21
1, 82818, Control_c, 0, 64, 71
1, 82818, Control_c, 0, 67, 30
1, 82824, Note_off_c, 0, 50, 62
1, 82833, Control_c, 0, 67, 39
1, 82849, Control_c, 0, 67, 48
1, 82864, Control_c, 0, 67, 57
1, 82879, Control_c, 0, 67, 67
1, 82894, Control_c, 0, 64, 70
1, 82894, Control_c, 0, 67, 76
1, 82909, Control_c, 0, 64, 68
1, 82909, Control_c, 0, 67, 84
1, 82923, Control_c, 0, 64, 64
1, 82923, Control_c, 0, 67, 92
1, 82938, Control_c, 0, 64, 55
1, 82938, Control_c, 0, 67, 98
1, 82953, Control_c, 0, 64, 20
1, 82953, Control_c, 0, 67, 103
1, 82967, Control_c, 0, 64, 0
1, 82967, Control_c, 0, 67, 107
1, 82982, Control_c, 0, 67, 111
1, 82997, Control_c, 0, 67, 115
1, 83012, Control_c, 0, 67, 122
1, 83035, Control_c, 0, 67, 127
1, 83054, Note_on_c, 0, 77, 57
1, 83057, Note_on_c, 0, 74, 52
1, 83069, Note_on_c, 0, 68, 43
1, 83088, Note_on_c, 0, 59, 27
1, 83098, Note_off_c, 0, 74, 61
1, 83099, Note_off_c, 0, 68, 56
1, 83105, Note_off_c, 0, 77, 55
1, 83124, Note_off_c, 0, 59, 50
1, 83217, Note_on_c, 0, 68, 51
1, 83223, Note_on_c, 0, 73, 58
1, 83224, Note_on_c, 0, 77, 58
1, 83262, Note_on_c, 0, 60, 25
1, 83263, Note_off_c, 0, 68, 60
1, 83264, Note_off_c, 0, 73, 57
1, 83265, Note_off_c, 0, 77, 59
1, 83304, Note_off_c, 0, 60, 48
1, 83367, Note_on_c, 0, 68, 58
1, 83369, Note_on_c, 0, 72, 63
1, 83372, Note_on_c, 0, 77, 60
1, 83388, Note_on_c, 0, 61, 43
1, 83409, Note_off_c, 0, 68, 59
1, 83417, Note_off_c, 0, 72, 61
1, 83417, Note_off_c, 0, 77, 58
1, 83420, Note_off_c, 0, 61, 56
1, 83518, Note_on_c, 0, 71, 62
1, 83523, Note_on_c, 0, 68, 53
1, 83525, Note_on_c, 0, 77, 60
1, 83532, Note_on_c, 0, 62, 44
1, 83557, Note_off_c, 0, 68, 54
1, 83566, Note_off_c, 0, 77, 56
1, 83578, Note_off_c, 0, 62, 49
1, 83581, Note_off_c, 0, 71, 58
1, 83660, Note_on_c, 0, 74, 71
1, 83670, Note_on_c, 0, 77, 66
1, 83674, Note_on_c, 0, 59, 50
1, 83674, Note_on_c, 0, 68, 55
1, 83701, Note_off_c, 0, 68, 61
1, 83708, Note_off_c, 0, 77, 54
1, 83722, Note_off_c, 0, 74, 65
1, 83724, Note_off_c, 0, 59, 56
1, 83804, Note_on_c, 0, 68, 65
1, 83808, Note_on_c, 0, 77, 70
1, 83824, Note_off_c, 0, 68, 66
1, 83826, Note_on_c, 0, 60, 44
1, 83843, Note_off_c, 0, 77, 54
1, 83851, Note_off_c, 0, 60, 58
1, 83880, Note_on_c, 0, 61, 56
1, 83890, Note_on_c, 0, 72, 64
1, 83917, Note_off_c, 0, 72, 69
1, 83921, Note_off_c, 0, 61, 62
1, 83961, Note_on_c, 0, 71, 58
1, 83964, Note_on_c, 0, 62, 50
1, 84048, Note_off_c, 0, 62, 59
1, 84100, Note_off_c, 0, 71, 34
1, 84269, Note_on_c, 0, 80, 75
1, 84289, Note_on_c, 0, 62, 40
1, 84291, Note_on_c, 0, 71, 55
1, 84314, Control_c, 0, 67, 127
1, 84325, Note_off_c, 0, 71, 63
1, 84329, Note_off_c, 0, 62, 52
1, 84329, Control_c, 0, 67, 119
1, 84339, Note_off_c, 0, 80, 62
1, 84344, Control_c, 0, 67, 113
1, 84359, Control_c, 0, 67, 105
1, 84374, Control_c, 0, 67, 98
1, 84389, Control_c, 0, 67, 91
1, 84404, Control_c, 0, 67, 85
1, 84419, Control_c, 0, 67, 81
1, 84425, Note_on_c, 0, 80, 69
1, 84428, Note_on_c, 0, 63, 54
1, 84429, Note_on_c, 0, 76, 63
1, 84431, Note_on_c, 0, 71, 57
1, 84434, Control_c, 0, 67, 75
1, 84449, Control_c, 0, 67, 69
1, 84463, Note_off_c, 0, 71, 54
1, 84464, Control_c, 0, 67, 63
1, 84470, Note_off_c, 0, 63, 63
1, 84470, Note_off_c, 0, 76, 57
1, 84472, Note_off_c, 0, 80, 59
1, 84479, Control_c, 0, 67, 57
1, 84493, Control_c, 0, 67, 51
1, 84508, Control_c, 0, 67, 47
1, 84531, Control_c, 0, 67, 44
1, 84546, Control_c, 0, 67, 40
1, 84561, Control_c, 0, 67, 35
1, 84571, Note_on_c, 0, 80, 82
1, 84573, Note_on_c, 0, 64, 58
1, 84575, Control_c, 0, 67, 30
1, 84579, Note_on_c, 0, 71, 56
1, 84584, Note_on_c, 0, 75, 57
1, 84590, Control_c, 0, 67, 23
1, 84605, Control_c, 0, 67, 17
1, 84614, Note_off_c, 0, 71, 63
1, 84619, Control_c, 0, 67, 12
1, 84623, Note_off_c, 0, 75, 65
1, 84624, Note_off_c, 0, 64, 55
1, 84624, Note_off_c, 0, 80, 61
1, 84634, Control_c, 0, 67, 0
1, 84708, Note_on_c, 0, 65, 71
1, 84708, Note_on_c, 0, 80, 85
1, 84716, Note_on_c, 0, 71, 64
1, 84723, Note_on_c, 0, 74, 51
1, 84733, Note_off_c, 0, 71, 64
1, 84742, Note_off_c, 0, 74, 62
1, 84747, Note_off_c, 0, 80, 55
1, 84754, Note_off_c, 0, 65, 61
1, 84831, Note_on_c, 0, 83, 80
1, 84835, Note_on_c, 0, 74, 65
1, 84843, Note_on_c, 0, 80, 74
1, 84845, Note_on_c, 0, 65, 64
1, 84862, Note_off_c, 0, 74, 68
1, 84867, Note_off_c, 0, 80, 66
1, 84881, Note_off_c, 0, 83, 60
1, 84899, Note_off_c, 0, 65, 57
1, 84992, Note_on_c, 0, 83, 68
1, 84993, Note_on_c, 0, 66, 41
1, 84995, Note_on_c, 0, 74, 65
1, 85005, Control_c, 0, 64, 38
1, 85018, Note_on_c, 0, 79, 40
1, 85018, Note_off_c, 0, 74, 65
1, 85019, Control_c, 0, 64, 64
1, 85024, Note_off_c, 0, 66, 55
1, 85034, Control_c, 0, 64, 68
1, 85048, Note_on_c, 0, 67, 49
1, 85049, Control_c, 0, 64, 72
1, 85051, Note_off_c, 0, 83, 49
1, 85054, Note_off_c, 0, 79, 46
1, 85056, Note_on_c, 0, 78, 67
1, 85064, Control_c, 0, 64, 75
1, 85079, Control_c, 0, 64, 79
1, 85093, Control_c, 0, 64, 82
1, 85108, Control_c, 0, 64, 85
1, 85120, Note_off_c, 0, 67, 61
1, 85124, Control_c, 0, 64, 87
1, 85126, Note_off_c, 0, 78, 63
1, 85138, Control_c, 0, 64, 89
1, 85151, Note_on_c, 0, 77, 49
1, 85153, Control_c, 0, 64, 92
1, 85168, Control_c, 0, 64, 95
1, 85173, Note_on_c, 0, 68, 34
1, 85178, Note_off_c, 0, 77, 54
1, 85183, Control_c, 0, 64, 98
1, 85198, Control_c, 0, 64, 100
1, 85212, Control_c, 0, 64, 100
1, 85224, Note_off_c, 0, 68, 51
1, 85243, Control_c, 0, 64, 98
1, 85258, Control_c, 0, 64, 92
1, 85280, Control_c, 0, 64, 80
1, 85295, Control_c, 0, 64, 68
1, 85310, Control_c, 0, 64, 56
1, 85323, Note_on_c, 0, 86, 66
1, 85325, Control_c, 0, 64, 60
1, 85331, Note_on_c, 0, 77, 48
1, 85331, Note_on_c, 0, 83, 61
1, 85332, Note_on_c, 0, 68, 46
1, 85340, Control_c, 0, 64, 66
1, 85353, Note_off_c, 0, 77, 56
1, 85355, Control_c, 0, 64, 71
1, 85359, Note_off_c, 0, 86, 55
1, 85369, Control_c, 0, 64, 76
1, 85384, Control_c, 0, 64, 80
1, 85395, Note_off_c, 0, 83, 58
1, 85399, Control_c, 0, 64, 81
1, 85407, Note_on_c, 0, 69, 37
1, 85414, Control_c, 0, 64, 82
1, 85414, Note_on_c, 0, 81, 70
1, 85429, Control_c, 0, 64, 84
1, 85441, Note_off_c, 0, 69, 51
1, 85443, Control_c, 0, 64, 87
1, 85444, Note_off_c, 0, 68, 45
1, 85458, Control_c, 0, 64, 90
1, 85461, Note_on_c, 0, 70, 57
1, 85462, Note_off_c, 0, 81, 51
1, 85473, Control_c, 0, 64, 93
1, 85488, Control_c, 0, 64, 96
1, 85503, Control_c, 0, 64, 99
1, 85505, Note_on_c, 0, 82, 63
1, 85505, Note_off_c, 0, 70, 60
1, 85517, Control_c, 0, 64, 102
1, 85532, Control_c, 0, 64, 105
1, 85547, Control_c, 0, 64, 106
1, 85557, Note_on_c, 0, 71, 47
1, 85566, Note_off_c, 0, 82, 64
1, 85575, Note_on_c, 0, 80, 54
1, 85576, Control_c, 0, 64, 106
1, 85583, Note_off_c, 0, 71, 60
1, 85591, Control_c, 0, 64, 101
1, 85596, Note_off_c, 0, 80, 60
1, 85606, Control_c, 0, 64, 89
1, 85621, Control_c, 0, 64, 74
1, 85636, Control_c, 0, 64, 51
1, 85642, Note_on_c, 0, 89, 78
1, 85647, Note_on_c, 0, 80, 87
1, 85650, Control_c, 0, 64, 48
1, 85661, Note_on_c, 0, 71, 63
1, 85665, Control_c, 0, 64, 63
1, 85680, Control_c, 0, 64, 69
1, 85687, Note_on_c, 0, 86, 31
1, 85687, Note_off_c, 0, 89, 47
1, 85695, Control_c, 0, 64, 76
1, 85706, Note_off_c, 0, 71, 60
1, 85706, Note_off_c, 0, 80, 62
1, 85710, Control_c, 0, 64, 83
1, 85720, Note_off_c, 0, 86, 43
1, 85724, Control_c, 0, 64, 88
1, 85730, Note_on_c, 0, 84, 73
1, 85733, Note_on_c, 0, 72, 44
1, 85739, Control_c, 0, 64, 91
1, 85754, Control_c, 0, 64, 95
1, 85767, Note_off_c, 0, 72, 55
1, 85769, Control_c, 0, 64, 100
1, 85784, Control_c, 0, 64, 109
1, 85793, Note_on_c, 0, 73, 65
1, 85799, Control_c, 0, 64, 117
1, 85805, Note_off_c, 0, 84, 61
1, 85809, Note_on_c, 0, 85, 73
1, 85814, Control_c, 0, 64, 124
1, 85829, Control_c, 0, 64, 126
1, 85852, Note_off_c, 0, 73, 63
1, 85858, Control_c, 0, 64, 124
1, 85864, Note_off_c, 0, 85, 65
1, 85873, Control_c, 0, 64, 115
1, 85882, Note_on_c, 0, 74, 59
1, 85888, Control_c, 0, 64, 99
1, 85903, Control_c, 0, 64, 79
1, 85910, Note_off_c, 0, 74, 68
1, 85917, Control_c, 0, 64, 20
1, 85930, Note_on_c, 0, 92, 89
1, 85932, Control_c, 0, 64, 0
1, 85942, Note_on_c, 0, 83, 64
1, 85945, Note_on_c, 0, 89, 64
1, 85947, Control_c, 0, 64, 24
1, 85958, Note_on_c, 0, 74, 62
1, 85962, Control_c, 0, 64, 66
1, 85963, Note_off_c, 0, 83, 61
1, 85976, Control_c, 0, 64, 74
1, 85991, Control_c, 0, 64, 83
1, 85996, Note_off_c, 0, 92, 65
1, 86000, Note_off_c, 0, 89, 56
1, 86014, Control_c, 0, 64, 88
1, 86025, Note_on_c, 0, 87, 83
1, 86028, Control_c, 0, 64, 89
1, 86034, Note_off_c, 0, 74, 63
1, 86040, Note_on_c, 0, 75, 58
1, 86044, Poly_aftertouch_c, 0, 84, 0
1, 86059, Control_c, 0, 64, 90
1, 86069, Note_off_c, 0, 87, 66
1, 86073, Control_c, 0, 64, 91
1, 86088, Control_c, 0, 64, 94
1, 86094, Note_on_c, 0, 88, 77
1, 86103, Control_c, 0, 64, 101
1, 86110, Note_on_c, 0, 76, 67
1, 86112, Note_off_c, 0, 75, 55
1, 86118, Control_c, 0, 64, 112
1, 86133, Control_c, 0, 64, 127
1, 86139, Note_off_c, 0, 88, 59
1, 86154, Note_off_c, 0, 76, 63
1, 86157, Note_on_c, 0, 86, 74
1, 86178, Note_off_c, 0, 86, 74
1, 86186, Note_on_c, 0, 77, 64
1, 86192, Control_c, 0, 64, 105
1, 86207, Control_c, 0, 64, 81
1, 86216, Note_off_c, 0, 77, 62
1, 86222, Control_c, 0, 64, 59
1, 86234, Note_on_c, 0, 95, 86
1, 86237, Note_on_c, 0, 92, 84
1, 86237, Control_c, 0, 64, 0
1, 86242, Note_on_c, 0, 86, 81
1, 86252, Control_c, 0, 64, 34
1, 86254, Note_on_c, 0, 77, 60
1, 86264, Note_off_c, 0, 86, 67
1, 86266, Control_c, 0, 64, 66
1, 86281, Control_c, 0, 64, 76
1, 86296, Control_c, 0, 64, 88
1, 86311, Control_c, 0, 64, 96
1, 86315, Note_off_c, 0, 95, 62
1, 86315, Note_on_c, 0, 90, 88
1, 86319, Note_off_c, 0, 77, 58
1, 86321, Note_on_c, 0, 78, 61
1, 86325, Note_off_c, 0, 92, 35
1, 86326, Control_c, 0, 64, 100
1, 86340, Control_c, 0, 64, 104
1, 86344, Note_off_c, 0, 90, 64
1, 86355, Control_c, 0, 64, 109
1, 86366, Note_off_c, 0, 78, 59
1, 86370, Control_c, 0, 64, 117
1, 86385, Control_c, 0, 64, 127
1, 86388, Note_on_c, 0, 79, 63
1, 86392, Note_on_c, 0, 91, 80
1, 86435, Note_off_c, 0, 79, 59
1, 86437, Note_off_c, 0, 91, 56
1, 86461, Note_on_c, 0, 89, 60
1, 86476, Note_on_c, 0, 80, 62
1, 86478, Note_off_c, 0, 89, 62
1, 86488, Control_c, 0, 64, 97
1, 86503, Note_off_c, 0, 80, 56
1, 86503, Control_c, 0, 64, 74
1, 86517, Control_c, 0, 64, 0
1, 86532, Note_on_c, 0, 89, 95
1, 86533, Note_on_c, 0, 98, 92
1, 86538, Note_on_c, 0, 95, 85
1, 86560, Note_on_c, 0, 80, 72
1, 86560, Note_off_c, 0, 89, 67
1, 86562, Control_c, 0, 64, 63
1, 86577, Control_c, 0, 64, 75
1, 86592, Control_c, 0, 64, 87
1, 86598, Note_off_c, 0, 95, 53
1, 86607, Control_c, 0, 64, 93
1, 86612, Note_off_c, 0, 98, 38
1, 86614, Note_on_c, 0, 93, 88
1, 86619, Note_off_c, 0, 80, 60
1, 86622, Control_c, 0, 64, 95
1, 86637, Control_c, 0, 64, 96
1, 86642, Note_on_c, 0, 81, 54
1, 86651, Control_c, 0, 64, 98
1, 86660, Note_off_c, 0, 93, 61
1, 86666, Control_c, 0, 64, 101
1, 86681, Control_c, 0, 64, 104
1, 86687, Note_off_c, 0, 81, 59
1, 86692, Note_on_c, 0, 94, 76
1, 86696, Control_c, 0, 64, 107
1, 86707, Note_on_c, 0, 82, 56
1, 86710, Control_c, 0, 64, 110
1, 86725, Control_c, 0, 64, 117
1, 86740, Note_off_c, 0, 82, 60
1, 86740, Control_c, 0, 64, 127
1, 86770, Note_on_c, 0, 92, 76
1, 86771, Note_off_c, 0, 94, 66
1, 86777, Note_on_c, 0, 83, 52
1, 86806, Control_c, 0, 64, 109
1, 86808, Note_off_c, 0, 92, 62
1, 86821, Control_c, 0, 64, 89
1, 86823, Note_off_c, 0, 83, 56
1, 86829, Note_on_c, 0, 98, 78
1, 86831, Note_on_c, 0, 95, 78
1, 86836, Control_c, 0, 64, 69
1, 86839, Note_on_c, 0, 89, 71
1, 86852, Note_on_c, 0, 80, 55
1, 86852, Control_c, 0, 64, 0
1, 86888, Note_off_c, 0, 95, 65
1, 86895, Note_off_c, 0, 89, 37
1, 86896, Control_c, 0, 64, 67
1, 86897, Note_off_c, 0, 98, 61
1, 86901, Note_on_c, 0, 93, 80
1, 86911, Control_c, 0, 64, 78
1, 86926, Control_c, 0, 64, 88
1, 86928, Note_on_c, 0, 81, 36
1, 86941, Control_c, 0, 64, 93
1, 86954, Note_off_c, 0, 80, 52
1, 86955, Note_off_c, 0, 93, 62
1, 86956, Control_c, 0, 64, 94
1, 86961, Note_off_c, 0, 81, 51
1, 86970, Control_c, 0, 64, 95
1, 86981, Note_on_c, 0, 94, 76
1, 86982, Note_on_c, 0, 82, 46
1, 86985, Control_c, 0, 64, 98
1, 87000, Control_c, 0, 64, 103
1, 87015, Control_c, 0, 64, 109
1, 87016, Note_off_c, 0, 82, 51
1, 87030, Control_c, 0, 64, 112
1, 87042, Note_off_c, 0, 94, 64
1, 87045, Note_on_c, 0, 83, 48
1, 87068, Note_on_c, 0, 92, 56
1, 87075, Control_c, 0, 64, 112
1, 87087, Note_off_c, 0, 92, 59
1, 87089, Control_c, 0, 64, 104
1, 87089, Control_c, 0, 67, 9
1, 87101, Note_off_c, 0, 83, 53
1, 87104, Control_c, 0, 64, 91
1, 87104, Control_c, 0, 67, 12
1, 87112, Note_on_c, 0, 98, 68
1, 87116, Note_on_c, 0, 89, 64
1, 87119, Control_c, 0, 64, 75
1, 87119, Control_c, 0, 67, 18
1, 87123, Note_on_c, 0, 95, 57
1, 87134, Control_c, 0, 64, 56
1, 87134, Control_c, 0, 67, 25
1, 87134, Note_on_c, 0, 80, 44
1, 87148, Control_c, 0, 64, 0
1, 87148, Control_c, 0, 67, 32
1, 87163, Control_c, 0, 64, 52
1, 87163, Control_c, 0, 67, 38
1, 87167, Note_off_c, 0, 95, 58
1, 87173, Note_off_c, 0, 98, 38
1, 87178, Control_c, 0, 64, 67
1, 87178, Control_c, 0, 67, 44
1, 87182, Note_off_c, 0, 89, 49
1, 87192, Note_on_c, 0, 81, 42
1, 87193, Control_c, 0, 64, 73
1, 87193, Control_c, 0, 67, 51
1, 87200, Note_on_c, 0, 93, 74
1, 87208, Control_c, 0, 64, 79
1, 87208, Control_c, 0, 67, 58
1, 87222, Control_c, 0, 64, 83
1, 87222, Control_c, 0, 67, 66
1, 87237, Control_c, 0, 64, 85
1, 87237, Control_c, 0, 67, 74
1, 87240, Note_off_c, 0, 80, 37
1, 87248, Note_off_c, 0, 81, 54
1, 87252, Control_c, 0, 64, 88
1, 87252, Control_c, 0, 67, 80
1, 87253, Note_off_c, 0, 93, 59
1, 87267, Control_c, 0, 64, 92
1, 87267, Control_c, 0, 67, 84
1, 87270, Note_on_c, 0, 82, 48
1, 87275, Note_on_c, 0, 94, 73
1, 87282, Control_c, 0, 64, 94
1, 87282, Control_c, 0, 67, 87
1, 87296, Control_c, 0, 64, 95
1, 87296, Control_c, 0, 67, 89
1, 87310, Note_off_c, 0, 82, 46
1, 87311, Control_c, 0, 67, 90
1, 87326, Control_c, 0, 67, 91
1, 87328, Note_on_c, 0, 83, 45
1, 87340, Control_c, 0, 64, 94
1, 87340, Control_c, 0, 67, 92
1, 87354, Note_off_c, 0, 94, 66
1, 87355, Control_c, 0, 64, 90
1, 87356, Note_on_c, 0, 92, 65
1, 87370, Control_c, 0, 64, 80
1, 87385, Control_c, 0, 64, 66
1, 87387, Note_off_c, 0, 92, 63
1, 87400, Control_c, 0, 64, 0
1, 87412, Note_on_c, 0, 98, 67
1, 87414, Control_c, 0, 64, 38
1, 87420, Note_on_c, 0, 89, 57
1, 87421, Note_off_c, 0, 83, 38
1, 87429, Control_c, 0, 64, 64
1, 87429, Control_c, 0, 67, 92
1, 87429, Note_on_c, 0, 80, 44
1, 87444, Control_c, 0, 64, 72
1, 87444, Control_c, 0, 67, 91
1, 87447, Note_on_c, 0, 95, 38
1, 87459, Control_c, 0, 64, 80
1, 87464, Note_off_c, 0, 89, 46
1, 87474, Note_off_c, 0, 95, 52
1, 87474, Control_c, 0, 64, 86
1, 87474, Control_c, 0, 67, 91
1, 87479, Note_off_c, 0, 98, 40
1, 87488, Control_c, 0, 64, 88
1, 87495, Note_on_c, 0, 81, 36
1, 87501, Note_on_c, 0, 93, 66
1, 87503, Control_c, 0, 64, 89
1, 87503, Control_c, 0, 67, 90
1, 87525, Control_c, 0, 64, 90
1, 87540, Control_c, 0, 64, 90
1, 87540, Control_c, 0, 67, 90
1, 87552, Note_off_c, 0, 80, 25
1, 87555, Control_c, 0, 64, 91
1, 87555, Control_c, 0, 67, 89
1, 87560, Note_off_c, 0, 93, 56
1, 87570, Control_c, 0, 64, 91
1, 87570, Control_c, 0, 67, 89
1, 87576, Note_off_c, 0, 81, 34
1, 87581, Note_on_c, 0, 94, 65
1, 87584, Control_c, 0, 64, 92
1, 87588, Note_on_c, 0, 82, 41
1, 87614, Control_c, 0, 64, 93
1, 87653, Note_off_c, 0, 94, 63
1, 87662, Note_on_c, 0, 92, 70
1, 87669, Note_on_c, 0, 83, 33
1, 87674, Control_c, 0, 67, 88
1, 87688, Note_off_c, 0, 92, 68
1, 87704, Control_c, 0, 67, 88
1, 87804, Note_on_c, 0, 101, 50
1, 87823, Control_c, 0, 64, 92
1, 87837, Control_c, 0, 64, 90
1, 87850, Note_off_c, 0, 101, 60
1, 87852, Control_c, 0, 64, 87
1, 87862, Note_on_c, 0, 100, 66
1, 87867, Control_c, 0, 64, 83
1, 87882, Control_c, 0, 64, 79
1, 87897, Control_c, 0, 64, 74
1, 87911, Control_c, 0, 64, 67
1, 87924, Note_off_c, 0, 82, 9
1, 87925, Note_off_c, 0, 100, 43
1, 87926, Control_c, 0, 64, 48
1, 87936, Note_off_c, 0, 83, 35
1, 87941, Control_c, 0, 64, 0
1, 87954, Note_on_c, 0, 101, 63
1, 87987, Note_off_c, 0, 101, 65
1, 88024, Note_on_c, 0, 99, 64
1, 88044, Control_c, 0, 67, 88
1, 88052, Note_off_c, 0, 99, 69
1, 88089, Note_on_c, 0, 98, 67
1, 88143, Note_off_c, 0, 98, 57
1, 88158, Note_on_c, 0, 97, 62
1, 88184, Note_off_c, 0, 97, 66
1, 88215, Note_on_c, 0, 98, 70
1, 88265, Note_off_c, 0, 98, 63
1, 88300, Note_on_c, 0, 96, 61
1, 88326, Note_off_c, 0, 96, 59
1, 88349, Control_c, 0, 67, 88
1, 88359, Note_on_c, 0, 95, 73
1, 88404, Note_off_c, 0, 95, 63
1, 88434, Note_on_c, 0, 94, 70
1, 88439, Control_c, 0, 67, 88
1, 88474, Note_off_c, 0, 94, 56
1, 88507, Note_on_c, 0, 95, 74
1, 88532, Note_off_c, 0, 95, 68
1, 88573, Note_on_c, 0, 93, 62
1, 88613, Note_off_c, 0, 93, 51
1, 88633, Note_on_c, 0, 92, 68
1, 88678, Note_off_c, 0, 92, 61
1, 88690, Control_c, 0, 67, 89
1, 88710, Note_on_c, 0, 91, 59
1, 88735, Control_c, 0, 67, 89
1, 88738, Note_off_c, 0, 91, 52
1, 88750, Control_c, 0, 67, 90
1, 88794, Control_c, 0, 67, 90
1, 88796, Note_on_c, 0, 92, 49
1, 88824, Control_c, 0, 67, 91
1, 88839, Control_c, 0, 67, 91
1, 88853, Note_off_c, 0, 92, 57
1, 88857, Note_on_c, 0, 90, 57
1, 88898, Control_c, 0, 67, 92
1, 88901, Note_off_c, 0, 90, 62
1, 88925, Note_on_c, 0, 89, 66
1, 88927, Control_c, 0, 67, 92
1, 88959, Note_off_c, 0, 89, 59
1, 88996, Note_on_c, 0, 88, 66
1, 89024, Control_c, 0, 67, 93
1, 89053, Note_off_c, 0, 88, 52
1, 89077, Note_on_c, 0, 89, 63
1, 89113, Control_c, 0, 64, 10
1, 89127, Control_c, 0, 64, 20
1, 89132, Note_off_c, 0, 89, 63
1, 89142, Control_c, 0, 64, 26
1, 89149, Note_on_c, 0, 87, 63
1, 89157, Control_c, 0, 64, 31
1, 89172, Control_c, 0, 64, 34
1, 89183, Note_off_c, 0, 87, 64
1, 89186, Control_c, 0, 64, 34
1, 89216, Control_c, 0, 64, 35
1, 89227, Note_on_c, 0, 86, 55
1, 89271, Note_off_c, 0, 86, 58
1, 89284, Note_on_c, 0, 85, 60
1, 89319, Note_off_c, 0, 85, 65
1, 89364, Note_on_c, 0, 86, 71
1, 89395, Control_c, 0, 67, 93
1, 89403, Note_off_c, 0, 86, 62
1, 89442, Note_on_c, 0, 84, 63
1, 89469, Note_off_c, 0, 84, 64
1, 89509, Note_on_c, 0, 83, 59
1, 89528, Control_c, 0, 64, 36
1, 89551, Note_off_c, 0, 83, 55
1, 89586, Note_on_c, 0, 82, 58
1, 89588, Control_c, 0, 64, 36
1, 89603, Control_c, 0, 64, 37
1, 89623, Note_off_c, 0, 82, 59
1, 89660, Note_on_c, 0, 83, 61
1, 89690, Note_off_c, 0, 83, 63
1, 89691, Control_c, 0, 64, 36
1, 89706, Control_c, 0, 67, 93
1, 89721, Control_c, 0, 64, 36
1, 89725, Note_on_c, 0, 81, 53
1, 89750, Control_c, 0, 64, 35
1, 89753, Note_off_c, 0, 81, 55
1, 89799, Note_on_c, 0, 80, 61
1, 89817, Control_c, 0, 64, 34
1, 89840, Note_off_c, 0, 80, 60
1, 89872, Note_on_c, 0, 79, 59
1, 89891, Control_c, 0, 67, 93
1, 89900, Note_off_c, 0, 79, 57
1, 89950, Control_c, 0, 64, 34
1, 89951, Note_on_c, 0, 80, 60
1, 89995, Control_c, 0, 64, 33
1, 90007, Note_off_c, 0, 80, 56
1, 90010, Control_c, 0, 64, 32
1, 90017, Note_on_c, 0, 78, 56
1, 90024, Control_c, 0, 64, 31
1, 90040, Control_c, 0, 64, 30
1, 90055, Control_c, 0, 64, 29
1, 90055, Control_c, 0, 67, 93
1, 90062, Note_off_c, 0, 78, 61
1, 90070, Control_c, 0, 64, 28
1, 90070, Control_c, 0, 67, 92
1, 90085, Control_c, 0, 64, 27
1, 90091, Note_on_c, 0, 77, 59
1, 90100, Control_c, 0, 64, 26
1, 90100, Control_c, 0, 67, 92
1, 90114, Control_c, 0, 64, 25
1, 90114, Control_c, 0, 67, 91
1, 90129, Note_off_c, 0, 77, 57
1, 90129, Control_c, 0, 64, 24
1, 90129, Control_c, 0, 67, 90
1, 90144, Control_c, 0, 67, 89
1, 90158, Control_c, 0, 64, 23
1, 90158, Control_c, 0, 67, 87
1, 90166, Note_on_c, 0, 78, 65
1, 90173, Control_c, 0, 67, 84
1, 90188, Control_c, 0, 67, 80
1, 90203, Control_c, 0, 67, 71
1, 90214, Note_off_c, 0, 78, 59
1, 90218, Control_c, 0, 67, 55
1, 90232, Control_c, 0, 67, 38
1, 90244, Note_on_c, 0, 77, 64
1, 90247, Control_c, 0, 67, 20
1, 90262, Control_c, 0, 67, 0
1, 90291, Note_off_c, 0, 77, 55
1, 90324, Note_on_c, 0, 78, 66
1, 90367, Note_off_c, 0, 78, 58
1, 90397, Note_on_c, 0, 77, 70
1, 90437, Note_off_c, 0, 77, 53
1, 90455, Control_c, 0, 64, 24
1, 90470, Control_c, 0, 64, 25
1, 90473, Note_on_c, 0, 78, 73
1, 90524, Note_off_c, 0, 78, 57
1, 90551, Control_c, 0, 64, 27
1, 90556, Note_on_c, 0, 77, 66
1, 90565, Control_c, 0, 64, 28
1, 90580, Control_c, 0, 64, 30
1, 90592, Note_off_c, 0, 77, 57
1, 90610, Control_c, 0, 64, 31
1, 90629, Note_on_c, 0, 78, 72
1, 90676, Note_off_c, 0, 78, 60
1, 90685, Control_c, 0, 64, 32
1, 90699, Control_c, 0, 64, 33
1, 90700, Note_on_c, 0, 77, 65
1, 90714, Control_c, 0, 64, 34
1, 90729, Control_c, 0, 64, 34
1, 90741, Note_off_c, 0, 77, 52
1, 90744, Control_c, 0, 64, 35
1, 90758, Control_c, 0, 64, 36
1, 90779, Note_on_c, 0, 78, 65
1, 90788, Control_c, 0, 64, 36
1, 90803, Control_c, 0, 64, 38
1, 90818, Control_c, 0, 64, 38
1, 90828, Note_off_c, 0, 78, 57
1, 90849, Control_c, 0, 64, 39
1, 90860, Note_on_c, 0, 77, 59
1, 90878, Control_c, 0, 64, 39
1, 90903, Note_off_c, 0, 77, 53
1, 90941, Note_on_c, 0, 78, 59
1, 90952, Control_c, 0, 64, 39
1, 90981, Control_c, 0, 64, 38
1, 90990, Note_off_c, 0, 78, 57
1, 91011, Control_c, 0, 64, 38
1, 91026, Control_c, 0, 67, 11
1, 91030, Note_on_c, 0, 77, 43
1, 91041, Control_c, 0, 64, 37
1, 91041, Control_c, 0, 67, 15
1, 91055, Control_c, 0, 67, 20
1, 91063, Note_off_c, 0, 77, 50
1, 91070, Control_c, 0, 67, 24
1, 91085, Control_c, 0, 67, 29
1, 91100, Control_c, 0, 64, 38
1, 91100, Control_c, 0, 67, 35
1, 91104, Note_on_c, 0, 78, 50
1, 91115, Control_c, 0, 64, 43
1, 91115, Control_c, 0, 67, 40
1, 91129, Control_c, 0, 64, 53
1, 91129, Control_c, 0, 67, 44
1, 91144, Control_c, 0, 64, 61
1, 91144, Control_c, 0, 67, 47
1, 91150, Note_off_c, 0, 78, 47
1, 91159, Control_c, 0, 64, 64
1, 91159, Control_c, 0, 67, 48
1, 91174, Control_c, 0, 64, 67
1, 91174, Control_c, 0, 67, 49
1, 91179, Note_on_c, 0, 77, 46
1, 91188, Control_c, 0, 64, 68
1, 91188, Control_c, 0, 67, 49
1, 91203, Control_c, 0, 64, 70
1, 91218, Control_c, 0, 64, 72
1, 91233, Control_c, 0, 64, 74
1, 91248, Control_c, 0, 64, 77
1, 91268, Note_on_c, 0, 78, 56
1, 91270, Control_c, 0, 64, 79
1, 91272, Note_off_c, 0, 77, 33
1, 91285, Control_c, 0, 64, 81
1, 91300, Control_c, 0, 64, 82
1, 91314, Control_c, 0, 64, 84
1, 91329, Control_c, 0, 64, 85
1, 91344, Control_c, 0, 64, 86
1, 91351, Note_off_c, 0, 78, 61
1, 91359, Control_c, 0, 64, 87
1, 91373, Note_on_c, 0, 77, 43
1, 91374, Control_c, 0, 64, 87
1, 91388, Control_c, 0, 64, 88
1, 91403, Control_c, 0, 64, 88
1, 91433, Control_c, 0, 64, 89
1, 91448, Control_c, 0, 67, 49
1, 91454, Note_on_c, 0, 78, 52
1, 91454, Note_off_c, 0, 77, 48
1, 91478, Control_c, 0, 67, 48
1, 91532, Note_off_c, 0, 78, 54
1, 91537, Control_c, 0, 67, 48
1, 91554, Note_on_c, 0, 77, 56
1, 91609, Note_off_c, 0, 77, 41
1, 91638, Note_on_c, 0, 78, 63
1, 91656, Control_c, 0, 64, 89
1, 91668, Note_off_c, 0, 78, 55
1, 91711, Note_on_c, 0, 67, 50
1, 91743, Note_on_c, 0, 62, 34
1, 91745, Control_c, 0, 64, 86
1, 91760, Control_c, 0, 64, 80
1, 91775, Control_c, 0, 64, 70
1, 91788, Note_on_c, 0, 70, 60
1, 91789, Note_on_c, 0, 76, 55
1, 91790, Control_c, 0, 64, 55
1, 91804, Control_c, 0, 64, 38
1, 91819, Control_c, 0, 64, 58
1, 91834, Control_c, 0, 64, 65
1, 91849, Control_c, 0, 64, 70
1, 91864, Control_c, 0, 64, 75
1, 91878, Control_c, 0, 64, 78
1, 91880, Note_off_c, 0, 70, 59
1, 91882, Note_on_c, 0, 78, 71
1, 91892, Note_off_c, 0, 76, 66
1, 91893, Control_c, 0, 64, 80
1, 91908, Control_c, 0, 64, 81
1, 91923, Control_c, 0, 64, 82
1, 91923, Control_c, 0, 67, 47
1, 91937, Control_c, 0, 64, 84
1, 91948, Note_off_c, 0, 67, 56
1, 91952, Control_c, 0, 64, 85
1, 91964, Note_on_c, 0, 76, 72
1, 91967, Control_c, 0, 64, 86
1, 91970, Note_on_c, 0, 71, 65
1, 91971, Note_off_c, 0, 78, 63
1, 91979, Note_on_c, 0, 68, 59
1, 91982, Control_c, 0, 64, 86
1, 91982, Control_c, 0, 67, 48
1, 91997, Control_c, 0, 67, 48
1, 92023, Note_off_c, 0, 71, 59
1, 92034, Control_c, 0, 67, 49
1, 92049, Control_c, 0, 64, 86
1, 92049, Control_c, 0, 67, 49
1, 92060, Note_on_c, 0, 78, 82
1, 92064, Control_c, 0, 64, 83
1, 92064, Control_c, 0, 67, 50
1, 92070, Note_off_c, 0, 76, 65
1, 92077, Note_off_c, 0, 68, 52
1, 92079, Control_c, 0, 64, 75
1, 92079, Control_c, 0, 67, 50
1, 92093, Control_c, 0, 64, 64
1, 92093, Control_c, 0, 67, 52
1, 92108, Note_off_c, 0, 62, 35
1, 92108, Control_c, 0, 64, 0
1, 92108, Control_c, 0, 67, 55
1, 92123, Control_c, 0, 67, 57
1, 92137, Control_c, 0, 67, 58
1, 92139, Note_on_c, 0, 61, 51
1, 92139, Note_on_c, 0, 68, 38
1, 92140, Note_on_c, 0, 72, 72
1, 92145, Note_on_c, 0, 76, 75
1, 92147, Note_off_c, 0, 78, 63
1, 92152, Control_c, 0, 64, 43
1, 92152, Control_c, 0, 67, 59
1, 92167, Control_c, 0, 64, 65
1, 92167, Control_c, 0, 67, 61
1, 92182, Control_c, 0, 64, 70
1, 92182, Control_c, 0, 67, 64
1, 92197, Control_c, 0, 64, 74
1, 92197, Control_c, 0, 67, 67
1, 92204, Note_off_c, 0, 72, 62
1, 92211, Control_c, 0, 64, 78
1, 92211, Control_c, 0, 67, 69
1, 92226, Control_c, 0, 64, 80
1, 92226, Control_c, 0, 67, 71
1, 92234, Note_on_c, 0, 78, 79
1, 92240, Note_off_c, 0, 76, 66
1, 92241, Control_c, 0, 64, 81
1, 92241, Control_c, 0, 67, 73
1, 92256, Control_c, 0, 67, 74
1, 92271, Control_c, 0, 67, 76
1, 92280, Note_off_c, 0, 68, 59
1, 92285, Control_c, 0, 64, 80
1, 92285, Control_c, 0, 67, 79
1, 92300, Control_c, 0, 64, 74
1, 92300, Control_c, 0, 67, 82
1, 92315, Control_c, 0, 64, 64
1, 92315, Control_c, 0, 67, 86
1, 92321, Note_off_c, 0, 78, 62
1, 92326, Note_on_c, 0, 73, 66
1, 92329, Note_on_c, 0, 76, 67
1, 92330, Control_c, 0, 64, 0
1, 92330, Control_c, 0, 67, 90
1, 92345, Control_c, 0, 67, 93
1, 92348, Note_on_c, 0, 69, 44
1, 92360, Control_c, 0, 64, 27
1, 92360, Control_c, 0, 67, 94
1, 92375, Control_c, 0, 64, 64
1, 92388, Note_off_c, 0, 61, 57
1, 92390, Note_off_c, 0, 69, 63
1, 92390, Control_c, 0, 64, 70
1, 92404, Control_c, 0, 64, 74
1, 92419, Control_c, 0, 64, 77
1, 92434, Note_off_c, 0, 73, 35
1, 92434, Control_c, 0, 64, 78
1, 92436, Note_on_c, 0, 78, 72
1, 92442, Note_off_c, 0, 76, 63
1, 92449, Control_c, 0, 64, 79
1, 92464, Control_c, 0, 64, 80
1, 92479, Control_c, 0, 64, 82
1, 92494, Control_c, 0, 64, 83
1, 92539, Control_c, 0, 64, 80
1, 92554, Control_c, 0, 64, 71
1, 92554, Control_c, 0, 67, 95
1, 92558, Note_on_c, 0, 73, 52
1, 92566, Note_on_c, 0, 76, 58
1, 92567, Note_on_c, 0, 56, 47
1, 92568, Control_c, 0, 64, 28
1, 92571, Note_off_c, 0, 78, 60
1, 92574, Note_on_c, 0, 70, 47
1, 92583, Control_c, 0, 64, 0
1, 92628, Control_c, 0, 64, 48
1, 92642, Control_c, 0, 64, 68
1, 92657, Control_c, 0, 64, 73
1, 92672, Control_c, 0, 64, 76
1, 92687, Control_c, 0, 64, 78
1, 92688, Note_on_c, 0, 78, 67
1, 92700, Note_off_c, 0, 76, 59
1, 92702, Control_c, 0, 64, 78
1, 92703, Note_off_c, 0, 73, 32
1, 92731, Control_c, 0, 64, 79
1, 92765, Note_off_c, 0, 56, 0
1, 92791, Note_off_c, 0, 70, 56
1, 92816, Note_on_c, 0, 74, 51
1, 92816, Poly_aftertouch_c, 0, 56, 0
1, 92821, Note_off_c, 0, 78, 59
1, 92827, Note_on_c, 0, 76, 62
1, 92842, Note_on_c, 0, 71, 59
1, 92842, Control_c, 0, 64, 77
1, 92852, Note_off_c, 0, 74, 56
1, 92857, Control_c, 0, 64, 74
1, 92872, Control_c, 0, 64, 68
1, 92887, Control_c, 0, 64, 52
1, 92902, Control_c, 0, 64, 0
1, 92913, Note_on_c, 0, 78, 65
1, 92920, Note_off_c, 0, 76, 66
1, 92940, Note_off_c, 0, 78, 66
1, 92951, Note_off_c, 0, 71, 57
1, 92994, Note_on_c, 0, 57, 46
1, 93001, Note_on_c, 0, 76, 61
1, 93005, Control_c, 0, 67, 95
1, 93014, Note_on_c, 0, 73, 28
1, 93027, Note_on_c, 0, 64, 11
1, 93048, Note_off_c, 0, 73, 33
1, 93050, Note_off_c, 0, 57, 60
1, 93067, Note_off_c, 0, 64, 36
1, 93081, Note_off_c, 0, 76, 63
1, 93087, Note_on_c, 0, 78, 67
1, 93108, Control_c, 0, 67, 96
1, 93130, Note_off_c, 0, 78, 56
1, 93157, Note_on_c, 0, 85, 80
1, 93161, Note_on_c, 0, 76, 63
1, 93218, Note_off_c, 0, 76, 51
1, 93232, Note_off_c, 0, 85, 64
1, 93257, Note_on_c, 0, 73, 59
1, 93268, Note_on_c, 0, 78, 64
1, 93278, Note_off_c, 0, 73, 64
1, 93324, Note_on_c, 0, 83, 70
1, 93325, Note_on_c, 0, 64, 56
1, 93326, Note_on_c, 0, 57, 48
1, 93328, Note_off_c, 0, 78, 64
1, 93335, Note_on_c, 0, 52, 52
1, 93338, Note_on_c, 0, 76, 62
1, 93392, Note_off_c, 0, 76, 40
1, 93397, Note_off_c, 0, 83, 52
1, 93416, Note_on_c, 0, 73, 56
1, 93421, Control_c, 0, 67, 95
1, 93424, Note_on_c, 0, 78, 64
1, 93439, Note_off_c, 0, 73, 63
1, 93464, Note_off_c, 0, 52, 38
1, 93484, Note_off_c, 0, 78, 62
1, 93484, Note_on_c, 0, 81, 77
1, 93489, Note_on_c, 0, 76, 74
1, 93514, Note_off_c, 0, 64, 38
1, 93562, Note_off_c, 0, 76, 64
1, 93565, Note_off_c, 0, 81, 60
1, 93567, Note_on_c, 0, 73, 65
1, 93591, Control_c, 0, 67, 95
1, 93594, Note_off_c, 0, 73, 67
1, 93597, Note_on_c, 0, 78, 47
1, 93620, Note_off_c, 0, 78, 49
1, 93648, Note_on_c, 0, 81, 77
1, 93649, Note_on_c, 0, 59, 42
1, 93649, Note_on_c, 0, 64, 48
1, 93653, Note_on_c, 0, 52, 46
1, 93658, Note_on_c, 0, 74, 64
1, 93670, Note_off_c, 0, 57, 35
1, 93692, Note_off_c, 0, 74, 58
1, 93703, Note_off_c, 0, 81, 59
1, 93734, Note_on_c, 0, 76, 61
1, 93747, Note_off_c, 0, 52, 41
1, 93755, Note_on_c, 0, 71, 34
1, 93757, Note_off_c, 0, 64, 55
1, 93784, Note_off_c, 0, 71, 44
1, 93791, Note_off_c, 0, 76, 60
1, 93792, Note_off_c, 0, 59, 29
1, 93797, Note_on_c, 0, 80, 75
1, 93806, Note_on_c, 0, 74, 55
1, 93857, Note_off_c, 0, 74, 47
1, 93875, Note_off_c, 0, 80, 62
1, 93880, Note_on_c, 0, 71, 45
1, 93890, Note_on_c, 0, 76, 62
1, 93901, Control_c, 0, 67, 94
1, 93907, Note_off_c, 0, 71, 53
1, 93938, Note_off_c, 0, 76, 57
1, 93960, Note_on_c, 0, 74, 64
1, 93961, Control_c, 0, 67, 94
1, 93966, Note_on_c, 0, 79, 66
1, 93974, Note_on_c, 0, 56, 41
1, 93975, Control_c, 0, 67, 93
1, 93981, Note_on_c, 0, 64, 36
1, 94019, Note_off_c, 0, 79, 56
1, 94020, Control_c, 0, 67, 93
1, 94041, Note_off_c, 0, 74, 39
1, 94046, Note_on_c, 0, 78, 75
1, 94049, Note_on_c, 0, 71, 43
1, 94066, Control_c, 0, 67, 92
1, 94075, Note_off_c, 0, 71, 51
1, 94080, Control_c, 0, 67, 91
1, 94090, Note_off_c, 0, 78, 59
1, 94095, Control_c, 0, 67, 90
1, 94103, Note_off_c, 0, 64, 36
1, 94110, Control_c, 0, 67, 89
1, 94125, Control_c, 0, 67, 87
1, 94127, Note_on_c, 0, 77, 71
1, 94136, Note_on_c, 0, 74, 60
1, 94139, Control_c, 0, 64, 48
1, 94139, Control_c, 0, 67, 86
1, 94154, Control_c, 0, 64, 58
1, 94154, Control_c, 0, 67, 86
1, 94169, Control_c, 0, 64, 62
1, 94184, Control_c, 0, 64, 64
1, 94199, Note_off_c, 0, 77, 55
1, 94199, Control_c, 0, 64, 66
1, 94199, Control_c, 0, 67, 85
1, 94214, Control_c, 0, 64, 68
1, 94214, Control_c, 0, 67, 85
1, 94229, Control_c, 0, 64, 70
1, 94232, Note_off_c, 0, 74, 62
1, 94237, Note_off_c, 0, 56, 39
1, 94241, Note_on_c, 0, 71, 40
1, 94244, Control_c, 0, 64, 71
1, 94244, Control_c, 0, 67, 84
1, 94280, Control_c, 0, 64, 68
1, 94295, Control_c, 0, 64, 60
1, 94295, Control_c, 0, 67, 84
1, 94310, Control_c, 0, 64, 0
1, 94310, Control_c, 0, 67, 82
1, 94313, Note_on_c, 0, 57, 37
1, 94318, Note_off_c, 0, 71, 56
1, 94319, Note_on_c, 0, 64, 43
1, 94324, Control_c, 0, 67, 80
1, 94339, Control_c, 0, 67, 76
1, 94354, Control_c, 0, 64, 58
1, 94354, Control_c, 0, 67, 73
1, 94360, Note_on_c, 0, 76, 60
1, 94369, Control_c, 0, 64, 66
1, 94369, Control_c, 0, 67, 71
1, 94378, Note_on_c, 0, 73, 52
1, 94384, Control_c, 0, 64, 69
1, 94384, Control_c, 0, 67, 70
1, 94399, Control_c, 0, 64, 73
1, 94399, Control_c, 0, 67, 69
1, 94407, Note_off_c, 0, 57, 61
1, 94414, Control_c, 0, 64, 75
1, 94414, Control_c, 0, 67, 68
1, 94429, Control_c, 0, 64, 76
1, 94429, Control_c, 0, 67, 68
1, 94444, Control_c, 0, 64, 77
1, 94444, Control_c, 0, 67, 67
1, 94449, Note_off_c, 0, 73, 61
1, 94452, Note_off_c, 0, 76, 53
1, 94458, Control_c, 0, 64, 77
1, 94458, Control_c, 0, 67, 66
1, 94461, Note_on_c, 0, 69, 62
1, 94468, Note_off_c, 0, 64, 64
1, 94473, Control_c, 0, 64, 78
1, 94473, Control_c, 0, 67, 65
1, 94488, Control_c, 0, 67, 64
1, 94503, Control_c, 0, 64, 78
1, 94503, Control_c, 0, 67, 63
1, 94506, Note_off_c, 0, 69, 63
1, 94518, Control_c, 0, 64, 79
1, 94532, Control_c, 0, 64, 80
1, 94532, Control_c, 0, 67, 63
1, 94533, Note_on_c, 0, 73, 56
1, 94547, Control_c, 0, 64, 81
1, 94547, Control_c, 0, 67, 62
1, 94562, Control_c, 0, 64, 81
1, 94562, Control_c, 0, 67, 61
1, 94577, Control_c, 0, 67, 59
1, 94592, Control_c, 0, 67, 56
1, 94603, Note_off_c, 0, 73, 62
1, 94606, Control_c, 0, 64, 80
1, 94606, Control_c, 0, 67, 52
1, 94607, Note_on_c, 0, 78, 75
1, 94621, Control_c, 0, 64, 75
1, 94621, Control_c, 0, 67, 48
1, 94636, Control_c, 0, 64, 66
1, 94636, Control_c, 0, 67, 43
1, 94651, Control_c, 0, 64, 25
1, 94651, Control_c, 0, 67, 38
1, 94656, Note_on_c, 0, 67, 54
1, 94666, Control_c, 0, 64, 0
1, 94666, Control_c, 0, 67, 32
1, 94672, Note_on_c, 0, 70, 65
1, 94675, Note_on_c, 0, 62, 44
1, 94680, Control_c, 0, 64, 20
1, 94680, Control_c, 0, 67, 27
1, 94682, Note_off_c, 0, 78, 63
1, 94684, Note_on_c, 0, 76, 75
1, 94695, Control_c, 0, 64, 60
1, 94695, Control_c, 0, 67, 24
1, 94710, Control_c, 0, 64, 66
1, 94710, Control_c, 0, 67, 21
1, 94719, Note_off_c, 0, 70, 58
1, 94724, Control_c, 0, 64, 70
1, 94724, Control_c, 0, 67, 18
1, 94739, Control_c, 0, 64, 73
1, 94739, Control_c, 0, 67, 17
1, 94754, Control_c, 0, 64, 75
1, 94754, Control_c, 0, 67, 15
1, 94764, Note_on_c, 0, 78, 75
1, 94769, Control_c, 0, 64, 77
1, 94769, Control_c, 0, 67, 13
1, 94775, Note_off_c, 0, 76, 65
1, 94784, Control_c, 0, 64, 79
1, 94784, Control_c, 0, 67, 11
1, 94798, Control_c, 0, 64, 81
1, 94798, Control_c, 0, 67, 9
1, 94813, Control_c, 0, 64, 83
1, 94813, Control_c, 0, 67, 0
1, 94816, Note_off_c, 0, 67, 61
1, 94829, Control_c, 0, 64, 85
1, 94834, Note_on_c, 0, 71, 69
1, 94834, Note_on_c, 0, 68, 65
1, 94836, Note_on_c, 0, 76, 70
1, 94838, Note_off_c, 0, 78, 61
1, 94844, Control_c, 0, 64, 86
1, 94860, Control_c, 0, 64, 87
1, 94867, Note_off_c, 0, 71, 59
1, 94875, Control_c, 0, 64, 88
1, 94906, Note_off_c, 0, 68, 56
1, 94914, Note_on_c, 0, 78, 88
1, 94924, Note_off_c, 0, 76, 66
1, 94941, Poly_aftertouch_c, 0, 75, 0
1, 94948, Control_c, 0, 64, 86
1, 94963, Control_c, 0, 64, 82
1, 94975, Note_off_c, 0, 62, 34
1, 94978, Control_c, 0, 64, 73
1, 94988, Note_on_c, 0, 76, 83
1, 94989, Note_off_c, 0, 78, 64
1, 94990, Note_on_c, 0, 72, 73
1, 94993, Control_c, 0, 64, 60
1, 94995, Note_on_c, 0, 61, 56
1, 94997, Note_on_c, 0, 68, 59
1, 95016, Control_c, 0, 64, 0
1, 95016, Control_c, 0, 67, 8
1, 95030, Control_c, 0, 64, 40
1, 95030, Control_c, 0, 67, 9
1, 95031, Note_off_c, 0, 72, 62
1, 95045, Control_c, 0, 64, 65
1, 95045, Control_c, 0, 67, 10
1, 95060, Control_c, 0, 64, 72
1, 95060, Control_c, 0, 67, 11
1, 95072, Note_on_c, 0, 78, 85
1, 95075, Control_c, 0, 64, 78
1, 95075, Control_c, 0, 67, 12
1, 95081, Note_off_c, 0, 76, 65
1, 95090, Control_c, 0, 64, 82
1, 95090, Control_c, 0, 67, 13
1, 95104, Control_c, 0, 64, 83
1, 95104, Control_c, 0, 67, 14
1, 95118, Note_off_c, 0, 68, 62
1, 95119, Control_c, 0, 67, 15
1, 95134, Control_c, 0, 67, 16
1, 95147, Note_off_c, 0, 78, 63
1, 95149, Control_c, 0, 67, 17
1, 95152, Note_on_c, 0, 76, 75
1, 95156, Note_on_c, 0, 69, 59
1, 95161, Note_on_c, 0, 73, 67
1, 95163, Control_c, 0, 64, 82
1, 95163, Control_c, 0, 67, 20
1, 95178, Control_c, 0, 64, 77
1, 95178, Control_c, 0, 67, 26
1, 95190, Note_off_c, 0, 69, 67
1, 95193, Control_c, 0, 64, 66
1, 95193, Control_c, 0, 67, 31
1, 95202, Note_off_c, 0, 73, 61
1, 95208, Control_c, 0, 64, 0
1, 95208, Control_c, 0, 67, 36
1, 95210, Note_off_c, 0, 61, 59
1, 95223, Control_c, 0, 67, 39
1, 95236, Note_off_c, 0, 76, 67
1, 95237, Control_c, 0, 67, 41
1, 95242, Note_on_c, 0, 78, 74
1, 95252, Control_c, 0, 67, 43
1, 95267, Control_c, 0, 64, 62
1, 95267, Control_c, 0, 67, 45
1, 95281, Control_c, 0, 64, 69
1, 95281, Control_c, 0, 67, 46
1, 95296, Control_c, 0, 64, 74
1, 95296, Control_c, 0, 67, 47
1, 95311, Control_c, 0, 64, 76
1, 95311, Control_c, 0, 67, 48
1, 95320, Note_off_c, 0, 78, 62
1, 95324, Note_on_c, 0, 76, 68
1, 95326, Note_on_c, 0, 73, 62
1, 95326, Control_c, 0, 64, 77
1, 95326, Control_c, 0, 67, 49
1, 95332, Note_on_c, 0, 56, 51
1, 95341, Control_c, 0, 64, 77
1, 95342, Note_on_c, 0, 70, 55
1, 95385, Control_c, 0, 67, 48
1, 95400, Control_c, 0, 64, 76
1, 95415, Note_off_c, 0, 73, 37
1, 95415, Control_c, 0, 64, 75
1, 95416, Note_on_c, 0, 78, 71
1, 95417, Note_off_c, 0, 70, 39
1, 95418, Note_off_c, 0, 76, 64
1, 95424, Note_off_c, 0, 56, 38
1, 95430, Control_c, 0, 64, 70
1, 95445, Control_c, 0, 64, 63
1, 95460, Control_c, 0, 64, 0
1, 95460, Control_c, 0, 67, 48
1, 95474, Note_off_c, 0, 78, 57
1, 95496, Note_on_c, 0, 76, 66
1, 95499, Note_on_c, 0, 71, 55
1, 95504, Control_c, 0, 67, 47
1, 95508, Note_on_c, 0, 74, 52
1, 95529, Note_off_c, 0, 74, 62
1, 95568, Note_off_c, 0, 76, 64
1, 95576, Note_on_c, 0, 78, 70
1, 95584, Note_off_c, 0, 71, 55
1, 95602, Note_off_c, 0, 78, 65
1, 95642, Note_on_c, 0, 76, 66
1, 95647, Note_on_c, 0, 64, 44
1, 95650, Note_on_c, 0, 57, 49
1, 95655, Note_on_c, 0, 73, 42
1, 95667, Control_c, 0, 67, 48
1, 95671, Note_off_c, 0, 64, 55
1, 95682, Note_off_c, 0, 73, 48
1, 95688, Note_off_c, 0, 57, 59
1, 95695, Note_off_c, 0, 76, 62
1, 95731, Note_on_c, 0, 78, 67
1, 95769, Note_off_c, 0, 78, 61
1, 95803, Note_on_c, 0, 85, 83
1, 95813, Note_on_c, 0, 76, 65
1, 95867, Note_off_c, 0, 85, 64
1, 95883, Note_off_c, 0, 76, 33
1, 95898, Note_on_c, 0, 73, 61
1, 95907, Note_on_c, 0, 78, 68
1, 95911, Control_c, 0, 67, 47
1, 95920, Note_off_c, 0, 73, 65
1, 95964, Note_on_c, 0, 83, 73
1, 95965, Note_off_c, 0, 78, 62
1, 95983, Note_on_c, 0, 76, 58
1, 95985, Note_on_c, 0, 57, 46
1, 95987, Note_on_c, 0, 64, 54
1, 95998, Note_on_c, 0, 52, 48
1, 96019, Note_off_c, 0, 76, 45
1, 96032, Note_off_c, 0, 83, 53
1, 96045, Control_c, 0, 67, 47
1, 96050, Note_on_c, 0, 73, 65
1, 96062, Note_on_c, 0, 78, 68
1, 96078, Note_off_c, 0, 73, 67
1, 96104, Note_off_c, 0, 52, 48
1, 96119, Control_c, 0, 67, 47
1, 96123, Note_off_c, 0, 78, 59
1, 96126, Note_on_c, 0, 81, 70
1, 96134, Note_on_c, 0, 76, 73
1, 96159, Note_off_c, 0, 64, 43
1, 96193, Control_c, 0, 67, 47
1, 96194, Note_off_c, 0, 76, 63
1, 96200, Note_off_c, 0, 81, 61
1, 96205, Note_on_c, 0, 73, 56
1, 96224, Note_off_c, 0, 73, 59
1, 96229, Note_on_c, 0, 78, 53
1, 96250, Note_off_c, 0, 78, 49
1, 96265, Note_off_c, 0, 57, 53
1, 96271, Note_on_c, 0, 81, 75
1, 96279, Note_on_c, 0, 74, 68
1, 96280, Note_on_c, 0, 59, 44
1, 96285, Note_on_c, 0, 52, 34
1, 96302, Note_off_c, 0, 74, 70
1, 96306, Note_on_c, 0, 64, 25
1, 96321, Note_off_c, 0, 81, 60
1, 96325, Note_off_c, 0, 59, 44
1, 96330, Note_off_c, 0, 52, 48
1, 96349, Note_off_c, 0, 64, 48
1, 96360, Note_on_c, 0, 76, 70
1, 96384, Control_c, 0, 67, 47
1, 96432, Note_on_c, 0, 80, 76
1, 96432, Note_off_c, 0, 76, 64
1, 96453, Note_on_c, 0, 74, 44
1, 96501, Note_off_c, 0, 80, 63
1, 96503, Note_off_c, 0, 74, 45
1, 96512, Control_c, 0, 67, 47
1, 96525, Note_on_c, 0, 71, 50
1, 96525, Note_on_c, 0, 76, 56
1, 96550, Note_off_c, 0, 71, 53
1, 96571, Control_c, 0, 67, 46
1, 96588, Note_off_c, 0, 76, 55
1, 96597, Note_on_c, 0, 74, 71
1, 96599, Note_on_c, 0, 79, 68
1, 96615, Control_c, 0, 67, 46
1, 96623, Note_on_c, 0, 56, 46
1, 96637, Note_on_c, 0, 64, 42
1, 96645, Control_c, 0, 67, 45
1, 96660, Note_off_c, 0, 79, 58
1, 96660, Control_c, 0, 67, 45
1, 96671, Note_off_c, 0, 74, 59
1, 96673, Note_on_c, 0, 71, 57
1, 96674, Control_c, 0, 67, 44
1, 96682, Note_on_c, 0, 78, 70
1, 96689, Control_c, 0, 67, 44
1, 96704, Control_c, 0, 67, 43
1, 96709, Note_off_c, 0, 71, 61
1, 96716, Note_off_c, 0, 78, 60
1, 96719, Control_c, 0, 67, 42
1, 96723, Note_off_c, 0, 64, 53
1, 96733, Control_c, 0, 67, 42
1, 96748, Control_c, 0, 64, 56
1, 96748, Control_c, 0, 67, 41
1, 96752, Note_on_c, 0, 75, 65
1, 96759, Note_on_c, 0, 77, 71
1, 96763, Control_c, 0, 64, 65
1, 96772, Note_off_c, 0, 75, 40
1, 96778, Control_c, 0, 64, 68
1, 96778, Control_c, 0, 67, 41
1, 96783, Note_on_c, 0, 74, 56
1, 96793, Control_c, 0, 64, 72
1, 96793, Control_c, 0, 67, 40
1, 96805, Note_off_c, 0, 74, 59
1, 96807, Control_c, 0, 64, 78
1, 96822, Control_c, 0, 64, 82
1, 96832, Note_off_c, 0, 77, 56
1, 96837, Control_c, 0, 64, 85
1, 96848, Note_on_c, 0, 71, 53
1, 96852, Control_c, 0, 64, 86
1, 96852, Control_c, 0, 67, 40
1, 96880, Note_off_c, 0, 56, 37
1, 96897, Control_c, 0, 64, 83
1, 96897, Control_c, 0, 67, 39
1, 96912, Control_c, 0, 64, 75
1, 96924, Note_on_c, 0, 57, 47
1, 96925, Note_off_c, 0, 71, 58
1, 96926, Control_c, 0, 64, 52
1, 96926, Control_c, 0, 67, 38
1, 96931, Note_on_c, 0, 64, 40
1, 96941, Control_c, 0, 64, 0
1, 96941, Control_c, 0, 67, 37
1, 96953, Note_on_c, 0, 76, 67
1, 96956, Control_c, 0, 67, 32
1, 96971, Control_c, 0, 67, 27
1, 96977, Note_on_c, 0, 73, 54
1, 96986, Control_c, 0, 64, 63
1, 96986, Control_c, 0, 67, 22
1, 96995, Note_off_c, 0, 57, 61
1, 97000, Control_c, 0, 64, 70
1, 97000, Control_c, 0, 67, 19
1, 97010, Note_off_c, 0, 76, 63
1, 97014, Note_off_c, 0, 73, 65
1, 97015, Control_c, 0, 64, 75
1, 97015, Control_c, 0, 67, 17
1, 97030, Control_c, 0, 64, 77
1, 97030, Control_c, 0, 67, 16
1, 97038, Note_off_c, 0, 64, 56
1, 97040, Note_on_c, 0, 69, 71
1, 97045, Control_c, 0, 64, 78
1, 97045, Control_c, 0, 67, 16
1, 97060, Control_c, 0, 64, 78
1, 97060, Control_c, 0, 67, 15
1, 97074, Control_c, 0, 64, 79
1, 97074, Control_c, 0, 67, 13
1, 97089, Control_c, 0, 64, 80
1, 97089, Control_c, 0, 67, 12
1, 97094, Note_off_c, 0, 69, 62
1, 97104, Control_c, 0, 64, 81
1, 97104, Control_c, 0, 67, 11
1, 97111, Note_on_c, 0, 73, 68
1, 97118, Control_c, 0, 64, 81
1, 97118, Control_c, 0, 67, 11
1, 97133, Control_c, 0, 64, 82
1, 97133, Control_c, 0, 67, 10
1, 97148, Control_c, 0, 64, 83
1, 97163, Control_c, 0, 64, 84
1, 97169, Note_off_c, 0, 73, 56
1, 97178, Control_c, 0, 64, 85
1, 97179, Note_on_c, 0, 80, 76
1, 97192, Control_c, 0, 64, 87
1, 97207, Control_c, 0, 64, 89
1, 97207, Control_c, 0, 67, 10
1, 97212, Note_off_c, 0, 80, 63
1, 97223, Control_c, 0, 67, 9
1, 97238, Control_c, 0, 67, 9
1, 97260, Control_c, 0, 64, 86
1, 97260, Control_c, 0, 67, 0
1, 97275, Control_c, 0, 64, 78
1, 97290, Control_c, 0, 64, 64
1, 97297, Note_on_c, 0, 81, 79
1, 97302, Note_on_c, 0, 75, 55
1, 97305, Control_c, 0, 64, 0
1, 97326, Note_on_c, 0, 72, 12
1, 97334, Note_off_c, 0, 75, 55
1, 97350, Control_c, 0, 64, 52
1, 97364, Control_c, 0, 64, 67
1, 97370, Poly_aftertouch_c, 0, 71, 127
1, 97379, Control_c, 0, 64, 70
1, 97384, Note_on_c, 0, 82, 74
1, 97384, Note_off_c, 0, 81, 61
1, 97385, Note_on_c, 0, 67, 10
1, 97394, Control_c, 0, 64, 73
1, 97409, Control_c, 0, 64, 75
1, 97410, Poly_aftertouch_c, 0, 71, 0
1, 97423, Control_c, 0, 64, 77
1, 97438, Control_c, 0, 64, 79
1, 97442, Note_off_c, 0, 72, 35
1, 97448, Note_on_c, 0, 76, 72
1, 97448, Note_on_c, 0, 81, 79
1, 97453, Control_c, 0, 64, 83
1, 97456, Note_on_c, 0, 73, 68
1, 97457, Note_off_c, 0, 82, 59
1, 97468, Control_c, 0, 64, 87
1, 97483, Control_c, 0, 64, 90
1, 97491, Note_off_c, 0, 76, 63
1, 97497, Control_c, 0, 64, 93
1, 97512, Control_c, 0, 64, 93
1, 97529, Note_on_c, 0, 82, 78
1, 97536, Note_off_c, 0, 81, 63
1, 97545, Note_off_c, 0, 73, 60
1, 97580, Note_on_c, 0, 73, 44
1, 97586, Note_off_c, 0, 67, 41
1, 97586, Control_c, 0, 64, 89
1, 97589, Note_on_c, 0, 65, 64
1, 97599, Note_on_c, 0, 76, 84
1, 97600, Note_on_c, 0, 81, 85
1, 97601, Control_c, 0, 64, 78
1, 97609, Note_off_c, 0, 82, 62
1, 97616, Control_c, 0, 64, 64
1, 97630, Control_c, 0, 64, 0
1, 97665, Note_off_c, 0, 76, 61
1, 97671, Note_off_c, 0, 73, 59
1, 97675, Control_c, 0, 64, 46
1, 97679, Note_on_c, 0, 82, 78
1, 97690, Control_c, 0, 64, 68
1, 97694, Note_off_c, 0, 81, 62
1, 97705, Control_c, 0, 64, 74
1, 97720, Control_c, 0, 64, 79
1, 97734, Control_c, 0, 64, 84
1, 97749, Control_c, 0, 64, 88
1, 97753, Note_on_c, 0, 77, 79
1, 97753, Note_on_c, 0, 81, 82
1, 97756, Note_on_c, 0, 74, 64
1, 97764, Note_off_c, 0, 82, 63
1, 97764, Control_c, 0, 64, 91
1, 97779, Control_c, 0, 64, 92
1, 97789, Note_off_c, 0, 74, 65
1, 97797, Note_off_c, 0, 77, 58
1, 97809, Control_c, 0, 64, 91
1, 97823, Control_c, 0, 64, 83
1, 97838, Control_c, 0, 64, 69
1, 97839, Note_on_c, 0, 82, 76
1, 97846, Note_off_c, 0, 81, 62
1, 97853, Control_c, 0, 64, 0
1, 97911, Note_off_c, 0, 82, 61
1, 97912, Control_c, 0, 64, 50
1, 97918, Note_on_c, 0, 81, 68
1, 97921, Note_on_c, 0, 78, 66
1, 97922, Note_on_c, 0, 61, 54
1, 97924, Note_off_c, 0, 65, 40
1, 97927, Control_c, 0, 64, 68
1, 97937, Note_on_c, 0, 75, 52
1, 97941, Control_c, 0, 64, 74
1, 97956, Control_c, 0, 64, 79
1, 97961, Note_off_c, 0, 78, 46
1, 97971, Control_c, 0, 64, 81
1, 97986, Control_c, 0, 64, 83
1, 98007, Note_off_c, 0, 61, 58
1, 98009, Control_c, 0, 64, 83
1, 98011, Note_off_c, 0, 75, 52
1, 98012, Note_off_c, 0, 81, 61
1, 98024, Control_c, 0, 64, 84
1, 98035, Note_on_c, 0, 82, 58
1, 98079, Note_off_c, 0, 82, 44
1, 98098, Control_c, 0, 64, 83
1, 98098, Note_on_c, 0, 76, 57
1, 98099, Note_on_c, 0, 81, 65
1, 98113, Control_c, 0, 64, 80
1, 98125, Note_off_c, 0, 81, 56
1, 98125, Note_on_c, 0, 79, 32
1, 98128, Control_c, 0, 64, 75
1, 98143, Control_c, 0, 64, 66
1, 98147, Note_off_c, 0, 79, 45
1, 98158, Control_c, 0, 64, 0
1, 98167, Note_off_c, 0, 76, 49
1, 98171, Note_on_c, 0, 82, 73
1, 98191, Note_off_c, 0, 82, 68
1, 98221, Note_on_c, 0, 69, 50
1, 98241, Note_on_c, 0, 62, 56
1, 98247, Note_off_c, 0, 69, 66
1, 98250, Note_on_c, 0, 81, 65
1, 98250, Note_on_c, 0, 77, 49
1, 98273, Note_off_c, 0, 77, 51
1, 98286, Note_off_c, 0, 62, 61
1, 98321, Note_off_c, 0, 81, 52
1, 98333, Note_on_c, 0, 82, 54
1, 98354, Note_off_c, 0, 82, 65
1, 98393, Note_on_c, 0, 89, 82
1, 98403, Note_on_c, 0, 81, 69
1, 98424, Control_c, 0, 67, 8
1, 98439, Control_c, 0, 67, 8
1, 98441, Note_off_c, 0, 89, 62
1, 98453, Control_c, 0, 67, 9
1, 98468, Control_c, 0, 67, 9
1, 98483, Control_c, 0, 67, 11
1, 98490, Note_on_c, 0, 82, 64
1, 98492, Note_off_c, 0, 81, 58
1, 98498, Control_c, 0, 67, 16
1, 98498, Note_on_c, 0, 77, 38
1, 98512, Control_c, 0, 67, 22
1, 98527, Control_c, 0, 67, 26
1, 98528, Note_off_c, 0, 77, 34
1, 98542, Control_c, 0, 67, 31
1, 98552, Note_off_c, 0, 82, 56
1, 98557, Control_c, 0, 67, 35
1, 98558, Note_on_c, 0, 88, 74
1, 98563, Note_on_c, 0, 69, 49
1, 98564, Note_on_c, 0, 81, 55
1, 98572, Control_c, 0, 67, 40
1, 98579, Note_on_c, 0, 62, 25
1, 98581, Note_on_c, 0, 57, 32
1, 98587, Control_c, 0, 67, 46
1, 98602, Control_c, 0, 67, 51
1, 98617, Control_c, 0, 67, 57
1, 98619, Note_off_c, 0, 88, 53
1, 98632, Control_c, 0, 67, 60
1, 98640, Note_off_c, 0, 81, 36
1, 98646, Control_c, 0, 67, 62
1, 98650, Note_on_c, 0, 77, 39
1, 98655, Note_on_c, 0, 82, 67
1, 98661, Control_c, 0, 67, 64
1, 98670, Note_off_c, 0, 57, 33
1, 98673, Note_off_c, 0, 77, 49
1, 98676, Control_c, 0, 67, 65
1, 98690, Control_c, 0, 67, 66
1, 98705, Control_c, 0, 67, 66
1, 98709, Note_off_c, 0, 82, 58
1, 98712, Note_off_c, 0, 69, 39
1, 98718, Note_on_c, 0, 86, 70
1, 98739, Note_on_c, 0, 81, 54
1, 98757, Control_c, 0, 67, 67
1, 98785, Note_off_c, 0, 81, 43
1, 98794, Note_off_c, 0, 86, 61
1, 98816, Note_on_c, 0, 77, 47
1, 98820, Note_on_c, 0, 82, 59
1, 98839, Note_off_c, 0, 77, 50
1, 98839, Note_off_c, 0, 82, 64
1, 98847, Note_off_c, 0, 62, 34
1, 98893, Note_on_c, 0, 86, 62
1, 98894, Note_on_c, 0, 57, 33
1, 98894, Note_on_c, 0, 79, 64
1, 98894, Note_on_c, 0, 69, 39
1, 98902, Note_on_c, 0, 64, 28
1, 98927, Note_off_c, 0, 69, 51
1, 98930, Note_off_c, 0, 57, 50
1, 98931, Note_off_c, 0, 79, 56
1, 98936, Note_off_c, 0, 86, 54
1, 98942, Note_off_c, 0, 64, 48
1, 98963, Note_on_c, 0, 81, 69
1, 98980, Control_c, 0, 67, 66
1, 99028, Note_off_c, 0, 81, 57
1, 99031, Note_on_c, 0, 85, 74
1, 99040, Control_c, 0, 67, 66
1, 99040, Note_on_c, 0, 79, 63
1, 99076, Note_off_c, 0, 79, 56
1, 99099, Control_c, 0, 67, 65
1, 99109, Note_off_c, 0, 85, 61
1, 99114, Control_c, 0, 67, 65
1, 99121, Note_on_c, 0, 81, 67
1, 99158, Control_c, 0, 67, 64
1, 99193, Note_off_c, 0, 81, 62
1, 99195, Note_on_c, 0, 84, 69
1, 99198, Note_on_c, 0, 69, 43
1, 99201, Note_on_c, 0, 61, 38
1, 99203, Note_on_c, 0, 79, 55
1, 99217, Control_c, 0, 67, 64
1, 99247, Control_c, 0, 67, 63
1, 99276, Control_c, 0, 67, 63
1, 99280, Note_off_c, 0, 79, 54
1, 99286, Note_off_c, 0, 84, 60
1, 99291, Control_c, 0, 67, 62
1, 99292, Note_on_c, 0, 76, 47
1, 99295, Note_on_c, 0, 83, 61
1, 99306, Control_c, 0, 67, 62
1, 99320, Note_off_c, 0, 76, 55
1, 99320, Control_c, 0, 67, 61
1, 99335, Control_c, 0, 67, 60
1, 99347, Note_off_c, 0, 69, 46
1, 99350, Control_c, 0, 67, 60
1, 99365, Control_c, 0, 64, 47
1, 99365, Control_c, 0, 67, 59
1, 99369, Note_on_c, 0, 82, 62
1, 99371, Note_off_c, 0, 83, 58
1, 99380, Control_c, 0, 64, 63
1, 99380, Control_c, 0, 67, 59
1, 99383, Note_on_c, 0, 79, 57
1, 99395, Control_c, 0, 64, 66
1, 99395, Control_c, 0, 67, 58
1, 99410, Control_c, 0, 64, 69
1, 99410, Control_c, 0, 67, 58
1, 99425, Control_c, 0, 64, 75
1, 99425, Control_c, 0, 67, 57
1, 99425, Note_off_c, 0, 82, 59
1, 99429, Note_off_c, 0, 79, 58
1, 99439, Control_c, 0, 64, 82
1, 99454, Control_c, 0, 64, 86
1, 99454, Control_c, 0, 67, 57
1, 99462, Note_off_c, 0, 61, 47
1, 99463, Note_on_c, 0, 76, 53
1, 99469, Control_c, 0, 64, 88
1, 99469, Control_c, 0, 67, 55
1, 99484, Control_c, 0, 64, 89
1, 99484, Control_c, 0, 67, 54
1, 99505, Note_off_c, 0, 76, 56
1, 99506, Control_c, 0, 67, 51
1, 99520, Control_c, 0, 64, 87
1, 99520, Control_c, 0, 67, 48
1, 99535, Control_c, 0, 64, 81
1, 99535, Control_c, 0, 67, 42
1, 99550, Note_on_c, 0, 62, 44
1, 99550, Control_c, 0, 64, 70
1, 99550, Control_c, 0, 67, 37
1, 99561, Note_on_c, 0, 81, 70
1, 99565, Note_on_c, 0, 69, 40
1, 99565, Control_c, 0, 64, 38
1, 99565, Control_c, 0, 67, 31
1, 99580, Control_c, 0, 64, 0
1, 99580, Control_c, 0, 67, 24
1, 99583, Note_on_c, 0, 77, 59
1, 99595, Control_c, 0, 67, 19
1, 99609, Control_c, 0, 64, 62
1, 99609, Control_c, 0, 67, 13
1, 99622, Note_off_c, 0, 81, 59
1, 99625, Control_c, 0, 64, 68
1, 99625, Control_c, 0, 67, 0
1, 99628, Note_off_c, 0, 62, 62
1, 99640, Control_c, 0, 64, 72
1, 99643, Note_off_c, 0, 77, 56
1, 99655, Control_c, 0, 64, 75
1, 99666, Note_on_c, 0, 74, 67
1, 99670, Control_c, 0, 64, 77
1, 99673, Note_off_c, 0, 69, 65
1, 99685, Control_c, 0, 64, 78
1, 99699, Control_c, 0, 64, 79
1, 99714, Control_c, 0, 64, 81
1, 99725, Note_off_c, 0, 74, 60
1, 99729, Control_c, 0, 64, 83
1, 99740, Note_on_c, 0, 77, 63
1, 99744, Control_c, 0, 64, 86
1, 99758, Control_c, 0, 64, 90
1, 99773, Control_c, 0, 64, 92
1, 99775, Note_off_c, 0, 77, 60
1, 99788, Control_c, 0, 64, 93
1, 99796, Note_on_c, 0, 82, 76
1, 99803, Control_c, 0, 64, 92
1, 99818, Control_c, 0, 64, 89
1, 99833, Control_c, 0, 64, 80
1, 99848, Control_c, 0, 64, 67
1, 99857, Note_off_c, 0, 82, 60
1, 99863, Control_c, 0, 64, 0
1, 99874, Note_on_c, 0, 67, 49
1, 99875, Note_on_c, 0, 81, 80
1, 99877, Note_on_c, 0, 75, 67
1, 99907, Control_c, 0, 64, 63
1, 99908, Note_off_c, 0, 75, 63
1, 99917, Poly_aftertouch_c, 0, 72, 127
1, 99922, Control_c, 0, 64, 70
1, 99937, Control_c, 0, 64, 75
1, 99951, Control_c, 0, 64, 79
1, 99964, Note_on_c, 0, 82, 79
1, 99966, Control_c, 0, 64, 80
1, 99967, Note_off_c, 0, 81, 61
1, 99981, Control_c, 0, 64, 83
1, 99996, Control_c, 0, 64, 86
1, 100011, Control_c, 0, 64, 88
1, 100021, Poly_aftertouch_c, 0, 72, 0
1, 100025, Control_c, 0, 64, 89
1, 100028, Note_on_c, 0, 76, 72
1, 100030, Note_on_c, 0, 73, 67
1, 100033, Note_on_c, 0, 81, 82
1, 100037, Note_off_c, 0, 82, 64
1, 100055, Control_c, 0, 64, 87
1, 100066, Note_off_c, 0, 76, 61
1, 100069, Control_c, 0, 64, 80
1, 100084, Control_c, 0, 64, 62
1, 100099, Control_c, 0, 64, 0
1, 100108, Note_off_c, 0, 73, 60
1, 100114, Note_on_c, 0, 82, 80
1, 100122, Note_off_c, 0, 81, 62
1, 100137, Note_off_c, 0, 67, 58
1, 100158, Note_on_c, 0, 73, 61
1, 100158, Control_c, 0, 64, 67
1, 100164, Note_on_c, 0, 65, 57
1, 100173, Control_c, 0, 64, 76
1, 100182, Note_on_c, 0, 76, 77
1, 100184, Note_on_c, 0, 81, 83
1, 100188, Control_c, 0, 64, 83
1, 100191, Note_off_c, 0, 82, 63
1, 100203, Control_c, 0, 64, 86
1, 100218, Control_c, 0, 64, 87
1, 100225, Note_off_c, 0, 76, 62
1, 100226, Note_off_c, 0, 73, 58
1, 100276, Note_on_c, 0, 82, 78
1, 100282, Note_off_c, 0, 81, 62
1, 100299, Control_c, 0, 64, 83
1, 100314, Control_c, 0, 64, 71
1, 100329, Control_c, 0, 64, 0
1, 100334, Note_on_c, 0, 74, 59
1, 100349, Note_on_c, 0, 77, 71
1, 100349, Note_on_c, 0, 81, 79
1, 100352, Note_off_c, 0, 82, 62
1, 100367, Note_off_c, 0, 74, 65
1, 100377, Note_off_c, 0, 77, 64
1, 100388, Control_c, 0, 64, 36
1, 100403, Control_c, 0, 64, 68
1, 100419, Control_c, 0, 64, 75
1, 100433, Note_on_c, 0, 82, 73
1, 100433, Note_off_c, 0, 81, 61
1, 100434, Control_c, 0, 64, 81
1, 100448, Control_c, 0, 64, 83
1, 100448, Control_c, 0, 67, 9
1, 100463, Control_c, 0, 67, 12
1, 100478, Control_c, 0, 64, 82
1, 100478, Control_c, 0, 67, 16
1, 100492, Control_c, 0, 64, 75
1, 100492, Control_c, 0, 67, 21
1, 100502, Note_on_c, 0, 61, 54
1, 100503, Note_on_c, 0, 78, 65
1, 100504, Note_off_c, 0, 82, 62
1, 100507, Control_c, 0, 64, 58
1, 100507, Control_c, 0, 67, 27
1, 100513, Note_on_c, 0, 81, 60
1, 100515, Note_on_c, 0, 75, 41
1, 100522, Control_c, 0, 64, 0
1, 100522, Control_c, 0, 67, 33
1, 100533, Note_off_c, 0, 65, 36
1, 100533, Note_off_c, 0, 78, 51
1, 100537, Control_c, 0, 67, 39
1, 100552, Control_c, 0, 67, 46
1, 100566, Control_c, 0, 64, 60
1, 100566, Control_c, 0, 67, 55
1, 100581, Control_c, 0, 64, 72
1, 100581, Control_c, 0, 67, 65
1, 100594, Note_off_c, 0, 81, 61
1, 100596, Control_c, 0, 64, 77
1, 100596, Control_c, 0, 67, 73
1, 100605, Note_off_c, 0, 61, 58
1, 100610, Note_off_c, 0, 75, 51
1, 100611, Control_c, 0, 64, 78
1, 100611, Control_c, 0, 67, 81
1, 100615, Note_on_c, 0, 82, 55
1, 100626, Control_c, 0, 67, 88
1, 100641, Control_c, 0, 67, 97
1, 100656, Note_off_c, 0, 82, 45
1, 100656, Control_c, 0, 67, 102
1, 100671, Control_c, 0, 64, 77
1, 100671, Control_c, 0, 67, 106
1, 100679, Note_on_c, 0, 81, 57
1, 100683, Note_on_c, 0, 76, 49
1, 100686, Note_on_c, 0, 79, 50
1, 100686, Control_c, 0, 64, 72
1, 100686, Control_c, 0, 67, 109
1, 100700, Control_c, 0, 64, 64
1, 100700, Control_c, 0, 67, 112
1, 100706, Note_off_c, 0, 79, 52
1, 100708, Note_off_c, 0, 81, 51
1, 100715, Control_c, 0, 64, 0
1, 100715, Control_c, 0, 67, 115
1, 100730, Control_c, 0, 67, 118
1, 100738, Note_off_c, 0, 76, 40
1, 100745, Control_c, 0, 67, 121
1, 100750, Note_on_c, 0, 82, 66
1, 100760, Control_c, 0, 67, 122
1, 100774, Control_c, 0, 67, 123
1, 100778, Note_off_c, 0, 82, 66
1, 100817, Note_on_c, 0, 62, 54
1, 100828, Note_on_c, 0, 81, 57
1, 100830, Note_on_c, 0, 77, 41
1, 100845, Note_on_c, 0, 69, 4
1, 100855, Note_off_c, 0, 77, 48
1, 100862, Note_off_c, 0, 62, 62
1, 100893, Note_off_c, 0, 69, 27
1, 100900, Note_off_c, 0, 81, 55
1, 100913, Note_on_c, 0, 82, 56
1, 100933, Note_off_c, 0, 82, 65
1, 100966, Control_c, 0, 67, 122
1, 100979, Note_on_c, 0, 89, 73
1, 100999, Note_on_c, 0, 81, 62
1, 101018, Note_off_c, 0, 89, 57
1, 101068, Note_off_c, 0, 81, 31
1, 101078, Control_c, 0, 67, 122
1, 101088, Note_on_c, 0, 77, 38
1, 101094, Note_on_c, 0, 82, 52
1, 101116, Note_off_c, 0, 77, 34
1, 101128, Note_off_c, 0, 82, 51
1, 101146, Note_on_c, 0, 69, 50
1, 101155, Note_on_c, 0, 57, 38
1, 101158, Note_on_c, 0, 88, 63
1, 101167, Note_on_c, 0, 62, 18
1, 101179, Note_on_c, 0, 81, 49
1, 101216, Note_off_c, 0, 88, 55
1, 101243, Note_off_c, 0, 81, 51
1, 101246, Note_on_c, 0, 77, 42
1, 101253, Note_on_c, 0, 82, 64
1, 101264, Note_off_c, 0, 62, 0
1, 101271, Note_off_c, 0, 77, 56
1, 101278, Note_off_c, 0, 57, 34
1, 101301, Poly_aftertouch_c, 0, 62, 127
1, 101314, Note_on_c, 0, 86, 73
1, 101316, Note_off_c, 0, 82, 63
1, 101326, Note_on_c, 0, 81, 62
1, 101330, Note_off_c, 0, 69, 38
1, 101377, Note_off_c, 0, 86, 62
1, 101389, Note_off_c, 0, 81, 56
1, 101391, Note_on_c, 0, 77, 57
1, 101412, Note_on_c, 0, 82, 58
1, 101413, Note_off_c, 0, 77, 63
1, 101419, Control_c, 0, 67, 123
1, 101431, Note_off_c, 0, 82, 63
1, 101447, Poly_aftertouch_c, 0, 62, 0
1, 101449, Control_c, 0, 67, 124
1, 101464, Control_c, 0, 67, 125
1, 101469, Note_on_c, 0, 86, 76
1, 101473, Note_on_c, 0, 79, 71
1, 101478, Control_c, 0, 67, 127
1, 101481, Note_on_c, 0, 64, 40
1, 101484, Note_on_c, 0, 57, 41
1, 101486, Note_on_c, 0, 69, 44
1, 101508, Note_off_c, 0, 79, 56
1, 101518, Note_off_c, 0, 86, 62
1, 101529, Note_off_c, 0, 64, 44
1, 101532, Note_off_c, 0, 69, 46
1, 101539, Note_off_c, 0, 57, 42
1, 101550, Note_on_c, 0, 81, 77
1, 101580, Note_on_c, 0, 76, 31
1, 101603, Note_off_c, 0, 76, 45
1, 101623, Note_off_c, 0, 81, 59
1, 101624, Note_on_c, 0, 85, 74
1, 101632, Note_on_c, 0, 79, 62
1, 101665, Note_off_c, 0, 79, 54
1, 101701, Note_on_c, 0, 76, 47
1, 101701, Note_off_c, 0, 85, 63
1, 101704, Note_on_c, 0, 81, 63
1, 101726, Note_off_c, 0, 76, 56
1, 101784, Note_off_c, 0, 81, 61
1, 101785, Note_on_c, 0, 84, 73
1, 101788, Note_on_c, 0, 79, 62
1, 101794, Note_on_c, 0, 61, 45
1, 101798, Note_on_c, 0, 69, 40
1, 101851, Note_off_c, 0, 84, 58
1, 101857, Note_off_c, 0, 79, 37
1, 101869, Note_on_c, 0, 83, 71
1, 101879, Note_on_c, 0, 76, 48
1, 101886, Control_c, 0, 67, 127
1, 101901, Control_c, 0, 67, 126
1, 101909, Note_off_c, 0, 76, 57
1, 101915, Control_c, 0, 67, 126
1, 101930, Control_c, 0, 67, 125
1, 101941, Note_off_c, 0, 69, 41
1, 101945, Control_c, 0, 67, 124
1, 101946, Note_on_c, 0, 82, 68
1, 101949, Note_off_c, 0, 83, 60
1, 101960, Control_c, 0, 67, 124
1, 101961, Note_on_c, 0, 79, 68
1, 101975, Control_c, 0, 67, 122
1, 101990, Control_c, 0, 67, 121
1, 101995, Note_off_c, 0, 79, 59
1, 102000, Note_off_c, 0, 82, 60
1, 102003, Note_off_c, 0, 61, 49
1, 102004, Control_c, 0, 64, 57
1, 102004, Control_c, 0, 67, 119
1, 102019, Note_on_c, 0, 76, 62
1, 102020, Control_c, 0, 64, 64
1, 102020, Control_c, 0, 67, 116
1, 102035, Control_c, 0, 64, 66
1, 102035, Control_c, 0, 67, 113
1, 102050, Control_c, 0, 64, 68
1, 102050, Control_c, 0, 67, 109
1, 102057, Note_off_c, 0, 76, 61
1, 102065, Control_c, 0, 64, 71
1, 102065, Control_c, 0, 67, 104
1, 102080, Control_c, 0, 64, 74
1, 102080, Control_c, 0, 67, 99
1, 102094, Control_c, 0, 64, 77
1, 102094, Control_c, 0, 67, 95
1, 102102, Note_on_c, 0, 69, 47
1, 102104, Note_on_c, 0, 81, 66
1, 102109, Control_c, 0, 64, 78
1, 102109, Control_c, 0, 67, 91
1, 102119, Note_on_c, 0, 62, 47
1, 102123, Note_on_c, 0, 77, 55
1, 102124, Control_c, 0, 64, 79
1, 102124, Control_c, 0, 67, 88
1, 102127, Note_off_c, 0, 69, 61
1, 102138, Control_c, 0, 64, 79
1, 102138, Control_c, 0, 67, 86
1, 102149, Note_off_c, 0, 62, 54
1, 102152, Note_off_c, 0, 81, 60
1, 102153, Control_c, 0, 64, 81
1, 102153, Control_c, 0, 67, 84
1, 102160, Note_off_c, 0, 77, 47
1, 102168, Control_c, 0, 64, 82
1, 102168, Control_c, 0, 67, 82
1, 102183, Control_c, 0, 64, 83
1, 102183, Control_c, 0, 67, 81
1, 102194, Note_on_c, 0, 74, 72
1, 102198, Control_c, 0, 64, 83
1, 102198, Control_c, 0, 67, 79
1, 102212, Control_c, 0, 67, 77
1, 102227, Control_c, 0, 67, 74
1, 102242, Control_c, 0, 64, 84
1, 102242, Control_c, 0, 67, 72
1, 102245, Note_off_c, 0, 74, 57
1, 102256, Note_on_c, 0, 77, 78
1, 102257, Control_c, 0, 67, 69
1, 102271, Control_c, 0, 67, 66
1, 102286, Control_c, 0, 67, 64
1, 102301, Control_c, 0, 64, 83
1, 102301, Control_c, 0, 67, 60
1, 102313, Note_off_c, 0, 77, 60
1, 102316, Control_c, 0, 64, 80
1, 102316, Control_c, 0, 67, 55
1, 102328, Note_on_c, 0, 86, 74
1, 102331, Control_c, 0, 64, 73
1, 102331, Control_c, 0, 67, 49
1, 102346, Control_c, 0, 64, 60
1, 102346, Control_c, 0, 67, 44
1, 102350, Note_off_c, 0, 86, 68
1, 102356, Note_on_c, 0, 45, 56
1, 102361, Control_c, 0, 64, 0
1, 102361, Control_c, 0, 67, 38
1, 102376, Control_c, 0, 67, 33
1, 102391, Control_c, 0, 67, 29
1, 102394, Note_off_c, 0, 45, 52
1, 102405, Control_c, 0, 67, 26
1, 102420, Control_c, 0, 64, 61
1, 102420, Control_c, 0, 67, 23
1, 102425, Note_on_c, 0, 77, 70
1, 102425, Note_on_c, 0, 89, 74
1, 102435, Control_c, 0, 64, 67
1, 102435, Control_c, 0, 67, 20
1, 102443, Note_on_c, 0, 60, 49
1, 102450, Note_off_c, 0, 77, 56
1, 102450, Control_c, 0, 64, 70
1, 102450, Control_c, 0, 67, 14
1, 102464, Control_c, 0, 64, 74
1, 102464, Control_c, 0, 67, 8
1, 102468, Note_off_c, 0, 89, 53
1, 102479, Control_c, 0, 64, 76
1, 102479, Control_c, 0, 67, 0
1, 102499, Note_on_c, 0, 86, 70
1, 102501, Control_c, 0, 64, 77
1, 102510, Note_on_c, 0, 84, 68
1, 102516, Control_c, 0, 64, 78
1, 102531, Note_off_c, 0, 86, 60
1, 102531, Control_c, 0, 64, 78
1, 102546, Control_c, 0, 64, 79
1, 102561, Control_c, 0, 64, 80
1, 102567, Note_off_c, 0, 84, 54
1, 102575, Note_on_c, 0, 89, 80
1, 102575, Control_c, 0, 64, 81
1, 102585, Note_on_c, 0, 77, 68
1, 102590, Control_c, 0, 64, 82
1, 102605, Control_c, 0, 64, 84
1, 102620, Control_c, 0, 64, 85
1, 102635, Control_c, 0, 64, 85
1, 102637, Note_off_c, 0, 89, 62
1, 102650, Control_c, 0, 64, 85
1, 102650, Note_on_c, 0, 87, 70
1, 102659, Note_off_c, 0, 77, 61
1, 102664, Control_c, 0, 64, 83
1, 102665, Note_on_c, 0, 84, 71
1, 102668, Note_off_c, 0, 60, 34
1, 102670, Note_off_c, 0, 87, 64
1, 102679, Control_c, 0, 64, 76
1, 102689, Note_on_c, 0, 46, 64
1, 102694, Control_c, 0, 64, 63
1, 102696, Note_off_c, 0, 84, 63
1, 102709, Control_c, 0, 64, 0
1, 102727, Note_off_c, 0, 46, 63
1, 102733, Note_on_c, 0, 87, 87
1, 102748, Note_on_c, 0, 77, 57
1, 102773, Note_on_c, 0, 62, 49
1, 102775, Note_off_c, 0, 77, 54
1, 102783, Control_c, 0, 64, 55
1, 102798, Control_c, 0, 64, 66
1, 102802, Note_off_c, 0, 87, 61
1, 102811, Note_on_c, 0, 85, 71
1, 102813, Control_c, 0, 64, 69
1, 102823, Note_on_c, 0, 83, 61
1, 102829, Control_c, 0, 64, 73
1, 102843, Control_c, 0, 64, 76
1, 102858, Control_c, 0, 64, 80
1, 102859, Note_off_c, 0, 83, 45
1, 102873, Control_c, 0, 64, 82
1, 102879, Note_off_c, 0, 85, 63
1, 102886, Note_on_c, 0, 87, 83
1, 102888, Control_c, 0, 64, 84
1, 102895, Note_on_c, 0, 77, 60
1, 102902, Control_c, 0, 64, 85
1, 102917, Control_c, 0, 64, 86
1, 102930, Note_off_c, 0, 77, 51
1, 102932, Control_c, 0, 64, 88
1, 102937, Note_off_c, 0, 87, 65
1, 102947, Control_c, 0, 64, 90
1, 102954, Note_off_c, 0, 62, 57
1, 102960, Note_on_c, 0, 83, 69
1, 102962, Control_c, 0, 64, 91
1, 102966, Note_on_c, 0, 86, 61
1, 102985, Note_off_c, 0, 86, 65
1, 102991, Control_c, 0, 64, 90
1, 102992, Note_off_c, 0, 83, 62
1, 102997, Note_on_c, 0, 48, 65
1, 103006, Control_c, 0, 64, 85
1, 103021, Control_c, 0, 64, 74
1, 103035, Control_c, 0, 64, 40
1, 103046, Note_on_c, 0, 86, 90
1, 103050, Control_c, 0, 64, 0
1, 103055, Note_on_c, 0, 75, 80
1, 103073, Note_off_c, 0, 48, 56
1, 103076, Note_on_c, 0, 63, 64
1, 103091, Note_off_c, 0, 75, 56
1, 103094, Control_c, 0, 64, 61
1, 103109, Control_c, 0, 64, 71
1, 103112, Note_off_c, 0, 86, 60
1, 103124, Note_on_c, 0, 81, 69
1, 103124, Control_c, 0, 64, 77
1, 103129, Note_on_c, 0, 83, 69
1, 103139, Control_c, 0, 64, 82
1, 103154, Control_c, 0, 64, 82
1, 103169, Control_c, 0, 64, 83
1, 103184, Control_c, 0, 64, 85
1, 103192, Note_off_c, 0, 83, 60
1, 103196, Note_on_c, 0, 86, 78
1, 103198, Control_c, 0, 64, 87
1, 103212, Note_off_c, 0, 81, 57
1, 103213, Note_on_c, 0, 75, 62
1, 103213, Control_c, 0, 64, 89
1, 103228, Control_c, 0, 64, 91
1, 103249, Note_off_c, 0, 63, 61
1, 103250, Control_c, 0, 64, 91
1, 103251, Note_off_c, 0, 75, 67
1, 103269, Note_off_c, 0, 86, 60
1, 103284, Note_on_c, 0, 84, 70
1, 103294, Control_c, 0, 64, 88
1, 103298, Note_on_c, 0, 50, 67
1, 103309, Control_c, 0, 64, 77
1, 103310, Note_off_c, 0, 84, 66
1, 103321, Note_on_c, 0, 81, 38
1, 103324, Control_c, 0, 64, 57
1, 103336, Note_off_c, 0, 50, 58
1, 103339, Control_c, 0, 64, 0
1, 103347, Note_off_c, 0, 81, 44
1, 103368, Note_on_c, 0, 84, 90
1, 103376, Note_on_c, 0, 74, 67
1, 103380, Note_on_c, 0, 65, 66
1, 103402, Note_off_c, 0, 74, 66
1, 103413, Control_c, 0, 64, 65
1, 103428, Control_c, 0, 64, 73
1, 103432, Note_off_c, 0, 84, 55
1, 103443, Control_c, 0, 64, 79
1, 103445, Note_on_c, 0, 81, 61
1, 103452, Note_on_c, 0, 77, 74
1, 103458, Control_c, 0, 64, 82
1, 103473, Control_c, 0, 64, 84
1, 103487, Control_c, 0, 64, 86
1, 103488, Note_off_c, 0, 81, 62
1, 103502, Control_c, 0, 64, 88
1, 103512, Note_off_c, 0, 77, 59
1, 103515, Note_on_c, 0, 84, 79
1, 103517, Control_c, 0, 64, 89
1, 103518, Note_on_c, 0, 74, 73
1, 103561, Control_c, 0, 64, 89
1, 103574, Note_off_c, 0, 84, 62
1, 103576, Control_c, 0, 64, 82
1, 103580, Note_on_c, 0, 82, 75
1, 103582, Note_off_c, 0, 74, 58
1, 103586, Note_off_c, 0, 65, 37
1, 103591, Control_c, 0, 64, 69
1, 103595, Note_on_c, 0, 77, 62
1, 103607, Control_c, 0, 64, 0
1, 103617, Note_on_c, 0, 51, 66
1, 103617, Note_off_c, 0, 82, 65
1, 103619, Note_off_c, 0, 77, 63
1, 103664, Note_on_c, 0, 83, 88
1, 103671, Note_on_c, 0, 72, 68
1, 103681, Control_c, 0, 64, 57
1, 103696, Note_on_c, 0, 66, 64
1, 103696, Control_c, 0, 64, 70
1, 103709, Note_off_c, 0, 72, 52
1, 103711, Control_c, 0, 64, 77
1, 103725, Control_c, 0, 64, 81
1, 103733, Note_off_c, 0, 51, 50
1, 103733, Note_off_c, 0, 83, 57
1, 103740, Control_c, 0, 64, 82
1, 103744, Note_on_c, 0, 80, 77
1, 103755, Control_c, 0, 64, 82
1, 103762, Note_on_c, 0, 78, 68
1, 103770, Control_c, 0, 64, 83
1, 103785, Control_c, 0, 64, 85
1, 103799, Control_c, 0, 64, 87
1, 103810, Note_off_c, 0, 78, 54
1, 103814, Control_c, 0, 64, 91
1, 103814, Control_c, 0, 67, 8
1, 103821, Note_off_c, 0, 80, 62
1, 103826, Note_on_c, 0, 83, 74
1, 103829, Control_c, 0, 64, 93
1, 103829, Control_c, 0, 67, 9
1, 103841, Note_on_c, 0, 72, 60
1, 103844, Control_c, 0, 64, 94
1, 103844, Control_c, 0, 67, 10
1, 103873, Control_c, 0, 64, 93
1, 103884, Note_off_c, 0, 66, 35
1, 103888, Control_c, 0, 64, 86
1, 103899, Note_off_c, 0, 83, 59
1, 103900, Note_off_c, 0, 72, 53
1, 103903, Control_c, 0, 64, 70
1, 103910, Note_on_c, 0, 81, 65
1, 103917, Control_c, 0, 64, 0
1, 103918, Note_on_c, 0, 78, 66
1, 103932, Control_c, 0, 67, 11
1, 103935, Note_on_c, 0, 52, 58
1, 103939, Note_off_c, 0, 81, 62
1, 103947, Note_off_c, 0, 78, 66
1, 103958, Note_off_c, 0, 52, 65
1, 103962, Control_c, 0, 64, 56
1, 103962, Control_c, 0, 67, 11
1, 103977, Control_c, 0, 64, 70
1, 103977, Control_c, 0, 67, 13
1, 103999, Control_c, 0, 64, 76
1, 103999, Control_c, 0, 67, 15
1, 104008, Note_on_c, 0, 81, 87
1, 104014, Note_on_c, 0, 71, 66
1, 104014, Control_c, 0, 64, 82
1, 104014, Control_c, 0, 67, 19
1, 104029, Control_c, 0, 64, 82
1, 104029, Control_c, 0, 67, 23
1, 104042, Note_on_c, 0, 68, 60
1, 104044, Control_c, 0, 67, 25
1, 104050, Note_off_c, 0, 71, 59
1, 104059, Control_c, 0, 67, 27
1, 104062, Note_off_c, 0, 81, 52
1, 104073, Control_c, 0, 64, 80
1, 104073, Control_c, 0, 67, 27
1, 104075, Note_off_c, 0, 68, 54
1, 104087, Note_on_c, 0, 76, 69
1, 104088, Control_c, 0, 64, 76
1, 104088, Control_c, 0, 67, 29
1, 104093, Note_on_c, 0, 79, 47
1, 104103, Control_c, 0, 64, 66
1, 104103, Control_c, 0, 67, 31
1, 104117, Control_c, 0, 64, 37
1, 104117, Control_c, 0, 67, 33
1, 104118, Note_off_c, 0, 79, 55
1, 104132, Control_c, 0, 64, 0
1, 104132, Control_c, 0, 67, 36
1, 104147, Control_c, 0, 67, 38
1, 104154, Note_off_c, 0, 76, 61
1, 104162, Control_c, 0, 67, 38
1, 104163, Note_on_c, 0, 81, 72
1, 104171, Note_on_c, 0, 71, 62
1, 104195, Note_off_c, 0, 81, 56
1, 104216, Note_off_c, 0, 71, 46
1, 104238, Note_on_c, 0, 80, 59
1, 104260, Note_off_c, 0, 80, 60
1, 104266, Note_on_c, 0, 76, 40
1, 104292, Note_off_c, 0, 76, 44
1, 104295, Control_c, 0, 67, 39
1, 104325, Control_c, 0, 67, 38
1, 104325, Note_on_c, 0, 80, 78
1, 104328, Note_on_c, 0, 54, 45
1, 104331, Note_on_c, 0, 69, 58
1, 104339, Note_on_c, 0, 63, 42
1, 104367, Note_off_c, 0, 69, 48
1, 104373, Note_off_c, 0, 80, 61
1, 104374, Note_off_c, 0, 63, 52
1, 104382, Note_off_c, 0, 54, 54
1, 104389, Note_on_c, 0, 77, 72
1, 104434, Note_off_c, 0, 77, 59
1, 104459, Control_c, 0, 67, 38
1, 104471, Note_on_c, 0, 80, 77
1, 104474, Control_c, 0, 67, 37
1, 104489, Control_c, 0, 67, 37
1, 104491, Note_on_c, 0, 69, 47
1, 104497, Note_on_c, 0, 60, 48
1, 104504, Control_c, 0, 67, 36
1, 104515, Note_off_c, 0, 80, 60
1, 104519, Control_c, 0, 67, 36
1, 104519, Note_off_c, 0, 69, 63
1, 104533, Control_c, 0, 67, 35
1, 104537, Note_on_c, 0, 78, 70
1, 104542, Note_off_c, 0, 60, 59
1, 104563, Note_off_c, 0, 78, 66
1, 104563, Control_c, 0, 67, 35
1, 104578, Control_c, 0, 67, 34
1, 104593, Control_c, 0, 67, 33
1, 104608, Control_c, 0, 67, 33
1, 104625, Note_on_c, 0, 78, 93
1, 104630, Note_on_c, 0, 68, 73
1, 104638, Control_c, 0, 67, 32
1, 104648, Note_on_c, 0, 56, 45
1, 104659, Note_on_c, 0, 64, 47
1, 104665, Note_off_c, 0, 68, 62
1, 104667, Control_c, 0, 67, 33
1, 104690, Note_off_c, 0, 78, 61
1, 104697, Control_c, 0, 67, 33
1, 104709, Note_off_c, 0, 64, 58
1, 104714, Note_on_c, 0, 75, 59
1, 104722, Note_on_c, 0, 71, 61
1, 104727, Control_c, 0, 67, 34
1, 104764, Note_off_c, 0, 71, 62
1, 104766, Note_off_c, 0, 75, 61
1, 104785, Note_off_c, 0, 56, 39
1, 104787, Note_on_c, 0, 68, 74
1, 104791, Note_on_c, 0, 78, 75
1, 104793, Control_c, 0, 67, 34
1, 104808, Control_c, 0, 67, 35
1, 104813, Note_on_c, 0, 59, 62
1, 104825, Note_off_c, 0, 68, 64
1, 104837, Note_off_c, 0, 78, 61
1, 104859, Note_on_c, 0, 71, 67
1, 104867, Note_off_c, 0, 59, 59
1, 104867, Control_c, 0, 67, 34
1, 104883, Note_off_c, 0, 71, 66
1, 104897, Control_c, 0, 67, 34
1, 104934, Note_on_c, 0, 76, 80
1, 104955, Note_on_c, 0, 57, 49
1, 104955, Note_on_c, 0, 72, 57
1, 104956, Control_c, 0, 67, 34
1, 104958, Note_on_c, 0, 66, 58
1, 104971, Control_c, 0, 67, 35
1, 104983, Note_off_c, 0, 76, 61
1, 104984, Note_off_c, 0, 72, 48
1, 105005, Note_off_c, 0, 66, 59
1, 105008, Note_on_c, 0, 74, 66
1, 105015, Control_c, 0, 67, 35
1, 105045, Note_off_c, 0, 57, 34
1, 105045, Control_c, 0, 67, 36
1, 105067, Note_off_c, 0, 74, 64
1, 105073, Note_on_c, 0, 76, 76
1, 105074, Control_c, 0, 67, 37
1, 105085, Note_on_c, 0, 60, 64
1, 105094, Note_on_c, 0, 69, 46
1, 105104, Note_off_c, 0, 76, 59
1, 105104, Control_c, 0, 67, 37
1, 105118, Note_off_c, 0, 60, 63
1, 105119, Control_c, 0, 67, 38
1, 105133, Control_c, 0, 67, 38
1, 105142, Note_on_c, 0, 75, 65
1, 105144, Note_off_c, 0, 69, 42
1, 105148, Control_c, 0, 67, 39
1, 105163, Control_c, 0, 67, 39
1, 105178, Control_c, 0, 67, 40
1, 105193, Control_c, 0, 67, 45
1, 105199, Note_off_c, 0, 75, 62
1, 105209, Control_c, 0, 67, 50
1, 105219, Note_on_c, 0, 78, 77
1, 105224, Control_c, 0, 67, 56
1, 105236, Note_on_c, 0, 74, 45
1, 105238, Control_c, 0, 67, 63
1, 105243, Note_on_c, 0, 68, 57
1, 105253, Note_on_c, 0, 59, 46
1, 105253, Control_c, 0, 67, 71
1, 105268, Control_c, 0, 67, 78
1, 105270, Note_off_c, 0, 74, 51
1, 105275, Note_off_c, 0, 78, 61
1, 105282, Control_c, 0, 67, 85
1, 105285, Note_off_c, 0, 68, 48
1, 105285, Note_on_c, 0, 75, 67
1, 105297, Control_c, 0, 67, 94
1, 105312, Control_c, 0, 67, 101
1, 105327, Control_c, 0, 67, 108
1, 105330, Note_off_c, 0, 59, 41
1, 105342, Control_c, 0, 67, 114
1, 105351, Note_off_c, 0, 75, 63
1, 105357, Control_c, 0, 67, 119
1, 105362, Note_on_c, 0, 78, 76
1, 105371, Control_c, 0, 67, 123
1, 105379, Note_on_c, 0, 71, 56
1, 105386, Control_c, 0, 67, 125
1, 105397, Note_on_c, 0, 62, 56
1, 105401, Control_c, 0, 67, 126
1, 105416, Note_off_c, 0, 71, 60
1, 105416, Control_c, 0, 67, 127
1, 105420, Note_off_c, 0, 78, 61
1, 105431, Control_c, 0, 67, 127
1, 105452, Note_on_c, 0, 76, 60
1, 105470, Note_off_c, 0, 76, 67
1, 105498, Note_off_c, 0, 62, 52
1, 105535, Note_on_c, 0, 76, 83
1, 105540, Note_on_c, 0, 60, 47
1, 105545, Note_on_c, 0, 69, 58
1, 105559, Note_on_c, 0, 66, 44
1, 105562, Note_off_c, 0, 60, 58
1, 105569, Note_off_c, 0, 69, 58
1, 105578, Note_off_c, 0, 76, 64
1, 105600, Note_off_c, 0, 66, 50
1, 105630, Note_on_c, 0, 74, 59
1, 105670, Note_on_c, 0, 76, 54
1, 105674, Note_off_c, 0, 74, 57
1, 105729, Note_off_c, 0, 76, 62
1, 105759, Note_on_c, 0, 75, 57
1, 105783, Note_off_c, 0, 75, 66
1, 105871, Note_on_c, 0, 68, 48
1, 105871, Note_on_c, 0, 78, 58
1, 105874, Note_on_c, 0, 62, 44
1, 105898, Note_off_c, 0, 68, 56
1, 105905, Note_off_c, 0, 62, 53
1, 105910, Note_off_c, 0, 78, 50
1, 105949, Note_on_c, 0, 76, 62
1, 105980, Note_off_c, 0, 76, 53
1, 106027, Note_on_c, 0, 78, 57
1, 106047, Control_c, 0, 67, 127
1, 106061, Control_c, 0, 67, 126
1, 106064, Note_off_c, 0, 78, 49
1, 106076, Control_c, 0, 67, 125
1, 106090, Control_c, 0, 67, 124
1, 106105, Control_c, 0, 67, 123
1, 106116, Note_on_c, 0, 77, 46
1, 106120, Control_c, 0, 67, 122
1, 106135, Control_c, 0, 67, 121
1, 106141, Note_off_c, 0, 77, 57
1, 106150, Control_c, 0, 67, 117
1, 106164, Control_c, 0, 67, 113
1, 106176, Note_on_c, 0, 76, 68
1, 106179, Control_c, 0, 67, 108
1, 106180, Note_on_c, 0, 68, 59
1, 106182, Note_on_c, 0, 71, 62
1, 106194, Control_c, 0, 67, 103
1, 106204, Note_off_c, 0, 68, 61
1, 106209, Control_c, 0, 67, 98
1, 106209, Note_off_c, 0, 76, 63
1, 106213, Note_off_c, 0, 71, 65
1, 106224, Control_c, 0, 67, 95
1, 106246, Control_c, 0, 67, 92
1, 106254, Note_on_c, 0, 78, 74
1, 106260, Control_c, 0, 67, 89
1, 106275, Control_c, 0, 67, 85
1, 106279, Note_off_c, 0, 78, 66
1, 106290, Control_c, 0, 67, 79
1, 106305, Control_c, 0, 67, 71
1, 106319, Control_c, 0, 67, 64
1, 106320, Note_on_c, 0, 76, 54
1, 106322, Note_on_c, 0, 62, 56
1, 106334, Control_c, 0, 67, 60
1, 106340, Note_off_c, 0, 76, 61
1, 106349, Control_c, 0, 67, 55
1, 106357, Note_off_c, 0, 62, 57
1, 106364, Control_c, 0, 67, 50
1, 106379, Control_c, 0, 67, 47
1, 106385, Note_on_c, 0, 90, 78
1, 106394, Control_c, 0, 67, 46
1, 106409, Control_c, 0, 67, 46
1, 106457, Note_on_c, 0, 88, 74
1, 106463, Note_off_c, 0, 90, 60
1, 106464, Note_on_c, 0, 73, 64
1, 106465, Note_on_c, 0, 69, 57
1, 106491, Note_off_c, 0, 73, 66
1, 106494, Note_off_c, 0, 69, 66
1, 106495, Note_off_c, 0, 88, 64
1, 106512, Control_c, 0, 67, 45
1, 106521, Note_on_c, 0, 78, 75
1, 106527, Control_c, 0, 67, 44
1, 106535, Note_off_c, 0, 78, 68
1, 106542, Control_c, 0, 67, 41
1, 106557, Control_c, 0, 67, 36
1, 106572, Control_c, 0, 67, 31
1, 106586, Note_on_c, 0, 61, 60
1, 106586, Control_c, 0, 67, 27
1, 106601, Control_c, 0, 67, 22
1, 106605, Note_off_c, 0, 61, 63
1, 106606, Note_on_c, 0, 76, 71
1, 106616, Control_c, 0, 67, 17
1, 106630, Control_c, 0, 67, 12
1, 106645, Control_c, 0, 67, 0
1, 106667, Note_off_c, 0, 76, 65
1, 106674, Note_on_c, 0, 66, 77
1, 106734, Note_off_c, 0, 66, 64
1, 106755, Note_on_c, 0, 64, 73
1, 106758, Note_on_c, 0, 68, 73
1, 106759, Note_on_c, 0, 74, 74
1, 106774, Note_off_c, 0, 74, 71
1, 106787, Note_off_c, 0, 68, 63
1, 106829, Note_off_c, 0, 64, 63
1, 106832, Note_on_c, 0, 66, 78
1, 106885, Note_off_c, 0, 66, 66
1, 106916, Note_on_c, 0, 59, 72
1, 106918, Note_on_c, 0, 64, 47
1, 106942, Note_off_c, 0, 64, 54
1, 106966, Note_off_c, 0, 59, 63
1, 106975, Note_on_c, 0, 57, 69
1, 107002, Note_off_c, 0, 57, 63
1, 107006, Note_on_c, 0, 78, 73
1, 107029, Note_off_c, 0, 78, 67
1, 107068, Note_on_c, 0, 76, 79
1, 107069, Note_on_c, 0, 73, 75
1, 107091, Note_off_c, 0, 73, 70
1, 107146, Note_on_c, 0, 78, 81
1, 107149, Note_off_c, 0, 76, 64
1, 107193, Note_on_c, 0, 63, 74
1, 107213, Note_off_c, 0, 78, 63
1, 107214, Note_on_c, 0, 85, 82
1, 107217, Note_on_c, 0, 64, 49
1, 107217, Control_c, 0, 67, 9
1, 107219, Note_on_c, 0, 76, 75
1, 107219, Note_off_c, 0, 63, 69
1, 107232, Control_c, 0, 67, 13
1, 107239, Note_off_c, 0, 64, 57
1, 107246, Control_c, 0, 67, 19
1, 107261, Control_c, 0, 67, 26
1, 107276, Control_c, 0, 67, 33
1, 107290, Note_off_c, 0, 85, 64
1, 107291, Control_c, 0, 67, 40
1, 107306, Note_off_c, 0, 76, 66
1, 107306, Control_c, 0, 67, 48
1, 107310, Note_on_c, 0, 73, 65
1, 107318, Note_on_c, 0, 78, 71
1, 107321, Control_c, 0, 67, 60
1, 107335, Control_c, 0, 67, 69
1, 107336, Note_off_c, 0, 73, 66
1, 107350, Control_c, 0, 67, 77
1, 107354, Note_on_c, 0, 49, 77
1, 107365, Control_c, 0, 67, 85
1, 107375, Note_on_c, 0, 83, 72
1, 107378, Note_off_c, 0, 78, 61
1, 107380, Control_c, 0, 67, 92
1, 107384, Note_on_c, 0, 76, 68
1, 107387, Note_off_c, 0, 49, 61
1, 107395, Control_c, 0, 67, 96
1, 107409, Control_c, 0, 67, 99
1, 107424, Control_c, 0, 67, 101
1, 107430, Note_off_c, 0, 83, 57
1, 107439, Control_c, 0, 67, 102
1, 107453, Control_c, 0, 67, 103
1, 107463, Note_on_c, 0, 73, 66
1, 107466, Note_off_c, 0, 76, 56
1, 107468, Control_c, 0, 67, 104
1, 107483, Note_on_c, 0, 78, 63
1, 107483, Control_c, 0, 67, 104
1, 107502, Note_off_c, 0, 73, 57
1, 107530, Note_on_c, 0, 66, 64
1, 107533, Note_on_c, 0, 64, 63
1, 107536, Note_off_c, 0, 78, 64
1, 107538, Note_on_c, 0, 81, 71
1, 107542, Note_on_c, 0, 76, 63
1, 107547, Note_off_c, 0, 66, 66
1, 107557, Control_c, 0, 67, 104
1, 107563, Note_off_c, 0, 64, 66
1, 107572, Control_c, 0, 67, 103
1, 107599, Note_off_c, 0, 76, 64
1, 107603, Control_c, 0, 67, 102
1, 107607, Note_off_c, 0, 81, 59
1, 107620, Note_on_c, 0, 73, 64
1, 107633, Control_c, 0, 67, 102
1, 107637, Note_off_c, 0, 73, 63
1, 107648, Control_c, 0, 67, 101
1, 107659, Note_on_c, 0, 78, 13
1, 107660, Note_off_c, 0, 78, 127
1, 107663, Control_c, 0, 67, 101
1, 107690, Note_on_c, 0, 40, 77
1, 107692, Control_c, 0, 67, 100
1, 107695, Poly_aftertouch_c, 0, 78, 0
1, 107699, Note_on_c, 0, 81, 69
1, 107703, Note_on_c, 0, 74, 56
1, 107707, Control_c, 0, 67, 100
1, 107719, Note_off_c, 0, 40, 66
1, 107738, Note_off_c, 0, 74, 59
1, 107753, Note_off_c, 0, 81, 61
1, 107782, Note_on_c, 0, 76, 63
1, 107805, Note_on_c, 0, 71, 35
1, 107833, Note_off_c, 0, 71, 48
1, 107848, Note_on_c, 0, 74, 64
1, 107855, Note_off_c, 0, 76, 65
1, 107855, Note_on_c, 0, 80, 73
1, 107857, Note_on_c, 0, 63, 66
1, 107885, Note_off_c, 0, 63, 66
1, 107907, Control_c, 0, 67, 99
1, 107930, Note_off_c, 0, 80, 60
1, 107932, Note_off_c, 0, 74, 61
1, 107933, Note_on_c, 0, 71, 49
1, 107937, Control_c, 0, 67, 99
1, 107944, Note_on_c, 0, 76, 59
1, 107960, Note_off_c, 0, 71, 54
1, 107986, Note_off_c, 0, 76, 52
1, 107996, Control_c, 0, 67, 98
1, 108011, Control_c, 0, 67, 98
1, 108019, Note_on_c, 0, 44, 60
1, 108019, Note_on_c, 0, 74, 58
1, 108024, Note_on_c, 0, 79, 57
1, 108040, Control_c, 0, 67, 97
1, 108045, Note_off_c, 0, 44, 62
1, 108048, Note_off_c, 0, 79, 53
1, 108055, Control_c, 0, 67, 97
1, 108070, Control_c, 0, 67, 96
1, 108072, Note_off_c, 0, 74, 52
1, 108084, Control_c, 0, 67, 96
1, 108096, Note_on_c, 0, 71, 46
1, 108099, Control_c, 0, 67, 95
1, 108101, Note_on_c, 0, 78, 70
1, 108114, Control_c, 0, 67, 94
1, 108119, Note_off_c, 0, 71, 58
1, 108123, Note_off_c, 0, 78, 68
1, 108129, Control_c, 0, 67, 94
1, 108144, Control_c, 0, 67, 92
1, 108159, Control_c, 0, 67, 90
1, 108174, Control_c, 0, 67, 87
1, 108178, Note_on_c, 0, 75, 74
1, 108186, Note_on_c, 0, 64, 51
1, 108188, Control_c, 0, 67, 81
1, 108191, Note_on_c, 0, 65, 26
1, 108192, Note_on_c, 0, 77, 51
1, 108203, Control_c, 0, 67, 74
1, 108209, Note_off_c, 0, 64, 55
1, 108209, Note_off_c, 0, 75, 68
1, 108218, Control_c, 0, 67, 65
1, 108222, Note_off_c, 0, 65, 33
1, 108233, Control_c, 0, 67, 53
1, 108248, Control_c, 0, 67, 43
1, 108252, Note_off_c, 0, 77, 60
1, 108258, Note_on_c, 0, 71, 40
1, 108263, Control_c, 0, 67, 35
1, 108277, Control_c, 0, 67, 27
1, 108292, Control_c, 0, 67, 20
1, 108307, Note_off_c, 0, 71, 62
1, 108307, Control_c, 0, 67, 14
1, 108318, Note_on_c, 0, 76, 63
1, 108322, Control_c, 0, 67, 8
1, 108334, Note_on_c, 0, 45, 57
1, 108337, Control_c, 0, 67, 0
1, 108349, Note_on_c, 0, 73, 52
1, 108349, Note_off_c, 0, 76, 67
1, 108358, Note_off_c, 0, 45, 58
1, 108376, Note_off_c, 0, 73, 62
1, 108403, Note_on_c, 0, 69, 71
1, 108444, Note_off_c, 0, 69, 61
1, 108481, Note_on_c, 0, 73, 69
1, 108495, Note_on_c, 0, 63, 64
1, 108502, Note_on_c, 0, 64, 53
1, 108515, Note_off_c, 0, 63, 65
1, 108521, Note_off_c, 0, 73, 54
1, 108523, Note_off_c, 0, 64, 59
1, 108559, Note_on_c, 0, 78, 83
1, 108576, Note_off_c, 0, 78, 72
1, 108627, Note_on_c, 0, 68, 79
1, 108628, Note_on_c, 0, 76, 79
1, 108631, Note_on_c, 0, 71, 71
1, 108653, Note_off_c, 0, 71, 67
1, 108655, Note_off_c, 0, 68, 62
1, 108661, Note_off_c, 0, 76, 64
1, 108699, Note_on_c, 0, 78, 82
1, 108722, Note_off_c, 0, 78, 64
1, 108760, Note_on_c, 0, 76, 70
1, 108774, Note_on_c, 0, 62, 70
1, 108778, Note_off_c, 0, 76, 68
1, 108811, Note_off_c, 0, 62, 57
1, 108835, Note_on_c, 0, 90, 73
1, 108909, Note_on_c, 0, 88, 82
1, 108919, Note_on_c, 0, 73, 75
1, 108925, Note_off_c, 0, 90, 59
1, 108928, Note_on_c, 0, 69, 61
1, 108946, Note_off_c, 0, 73, 63
1, 108948, Note_off_c, 0, 88, 64
1, 108960, Note_off_c, 0, 69, 69
1, 108979, Note_on_c, 0, 78, 66
1, 108996, Note_off_c, 0, 78, 43
1, 109059, Note_on_c, 0, 61, 57
1, 109065, Note_on_c, 0, 76, 63
1, 109081, Note_off_c, 0, 61, 60
1, 109100, Note_off_c, 0, 76, 51
1, 109122, Note_on_c, 0, 66, 78
1, 109183, Note_off_c, 0, 66, 64
1, 109192, Note_on_c, 0, 64, 80
1, 109193, Note_on_c, 0, 74, 86
1, 109203, Note_on_c, 0, 68, 76
1, 109214, Note_off_c, 0, 74, 66
1, 109236, Note_off_c, 0, 68, 66
1, 109260, Note_off_c, 0, 64, 62
1, 109282, Note_on_c, 0, 66, 80
1, 109330, Note_off_c, 0, 66, 65
1, 109359, Note_on_c, 0, 64, 58
1, 109375, Note_on_c, 0, 59, 54
1, 109378, Note_on_c, 0, 60, 52
1, 109379, Note_off_c, 0, 64, 60
1, 109404, Note_off_c, 0, 60, 63
1, 109406, Note_off_c, 0, 59, 63
1, 109421, Note_on_c, 0, 57, 72
1, 109443, Note_on_c, 0, 78, 76
1, 109458, Note_off_c, 0, 57, 65
1, 109467, Note_off_c, 0, 78, 66
1, 109508, Note_on_c, 0, 76, 81
1, 109515, Note_on_c, 0, 73, 69
1, 109532, Note_off_c, 0, 73, 68
1, 109583, Note_on_c, 0, 78, 78
1, 109584, Note_off_c, 0, 76, 65
1, 109596, Control_c, 0, 67, 9
1, 109610, Control_c, 0, 67, 11
1, 109625, Control_c, 0, 67, 15
1, 109640, Control_c, 0, 67, 18
1, 109643, Note_on_c, 0, 63, 62
1, 109650, Note_on_c, 0, 85, 82
1, 109655, Control_c, 0, 67, 22
1, 109655, Note_on_c, 0, 64, 52
1, 109657, Note_on_c, 0, 76, 75
1, 109657, Note_off_c, 0, 78, 60
1, 109670, Control_c, 0, 67, 24
1, 109671, Note_off_c, 0, 63, 66
1, 109678, Note_off_c, 0, 64, 59
1, 109685, Control_c, 0, 67, 27
1, 109700, Control_c, 0, 67, 31
1, 109715, Control_c, 0, 67, 35
1, 109718, Note_off_c, 0, 85, 63
1, 109729, Control_c, 0, 67, 40
1, 109740, Note_off_c, 0, 76, 59
1, 109744, Control_c, 0, 67, 44
1, 109747, Note_on_c, 0, 73, 66
1, 109754, Note_on_c, 0, 78, 63
1, 109759, Control_c, 0, 67, 49
1, 109766, Note_off_c, 0, 73, 66
1, 109774, Control_c, 0, 67, 53
1, 109789, Control_c, 0, 67, 56
1, 109792, Note_on_c, 0, 49, 77
1, 109803, Control_c, 0, 67, 61
1, 109813, Note_off_c, 0, 78, 63
1, 109814, Note_on_c, 0, 83, 70
1, 109818, Control_c, 0, 67, 64
1, 109825, Note_off_c, 0, 49, 61
1, 109832, Note_on_c, 0, 76, 55
1, 109833, Control_c, 0, 67, 66
1, 109847, Control_c, 0, 67, 67
1, 109862, Note_off_c, 0, 83, 55
1, 109862, Control_c, 0, 67, 69
1, 109867, Note_off_c, 0, 76, 48
1, 109877, Control_c, 0, 67, 70
1, 109892, Control_c, 0, 67, 72
1, 109907, Control_c, 0, 67, 73
1, 109908, Note_on_c, 0, 73, 58
1, 109908, Note_on_c, 0, 78, 68
1, 109931, Note_off_c, 0, 73, 64
1, 109953, Note_off_c, 0, 78, 49
1, 109968, Note_on_c, 0, 66, 64
1, 109984, Note_on_c, 0, 64, 56
1, 109985, Note_on_c, 0, 81, 71
1, 109989, Control_c, 0, 67, 72
1, 109990, Note_on_c, 0, 76, 68
1, 109992, Note_off_c, 0, 66, 66
1, 110004, Control_c, 0, 67, 72
1, 110006, Note_off_c, 0, 64, 64
1, 110019, Control_c, 0, 67, 71
1, 110034, Control_c, 0, 67, 70
1, 110045, Note_off_c, 0, 76, 65
1, 110049, Control_c, 0, 67, 69
1, 110049, Note_off_c, 0, 81, 58
1, 110063, Note_on_c, 0, 73, 66
1, 110063, Control_c, 0, 67, 69
1, 110077, Note_on_c, 0, 78, 59
1, 110078, Control_c, 0, 67, 68
1, 110090, Note_off_c, 0, 73, 67
1, 110093, Control_c, 0, 67, 67
1, 110096, Note_off_c, 0, 78, 61
1, 110123, Control_c, 0, 67, 66
1, 110135, Note_on_c, 0, 40, 69
1, 110143, Note_on_c, 0, 81, 73
1, 110147, Note_on_c, 0, 74, 65
1, 110157, Note_off_c, 0, 40, 60
1, 110177, Note_off_c, 0, 74, 64
1, 110182, Control_c, 0, 67, 66
1, 110186, Note_off_c, 0, 81, 59
1, 110225, Note_on_c, 0, 76, 66
1, 110233, Note_on_c, 0, 71, 56
1, 110241, Control_c, 0, 67, 65
1, 110256, Control_c, 0, 67, 65
1, 110267, Note_off_c, 0, 71, 61
1, 110290, Note_on_c, 0, 63, 67
1, 110293, Note_on_c, 0, 74, 66
1, 110296, Note_off_c, 0, 76, 66
1, 110296, Note_on_c, 0, 80, 72
1, 110300, Control_c, 0, 67, 64
1, 110315, Note_on_c, 0, 64, 36
1, 110315, Control_c, 0, 67, 64
1, 110321, Note_off_c, 0, 63, 66
1, 110345, Control_c, 0, 67, 63
1, 110347, Note_off_c, 0, 64, 33
1, 110359, Control_c, 0, 67, 62
1, 110365, Note_off_c, 0, 74, 58
1, 110371, Note_off_c, 0, 80, 62
1, 110374, Control_c, 0, 67, 62
1, 110378, Note_on_c, 0, 71, 52
1, 110386, Note_on_c, 0, 76, 59
1, 110389, Control_c, 0, 67, 61
1, 110403, Note_off_c, 0, 71, 55
1, 110404, Control_c, 0, 67, 60
1, 110419, Control_c, 0, 67, 60
1, 110426, Note_off_c, 0, 76, 51
1, 110433, Control_c, 0, 67, 59
1, 110448, Control_c, 0, 67, 57
1, 110453, Note_on_c, 0, 79, 71
1, 110455, Note_on_c, 0, 44, 55
1, 110460, Note_on_c, 0, 74, 59
1, 110463, Control_c, 0, 67, 56
1, 110478, Control_c, 0, 67, 54
1, 110484, Note_off_c, 0, 44, 63
1, 110493, Control_c, 0, 67, 52
1, 110499, Note_off_c, 0, 74, 62
1, 110505, Note_off_c, 0, 79, 61
1, 110508, Control_c, 0, 67, 49
1, 110522, Control_c, 0, 67, 46
1, 110536, Note_on_c, 0, 78, 77
1, 110537, Control_c, 0, 67, 43
1, 110540, Note_on_c, 0, 71, 47
1, 110552, Control_c, 0, 67, 39
1, 110556, Note_off_c, 0, 78, 70
1, 110562, Note_off_c, 0, 71, 56
1, 110567, Control_c, 0, 67, 36
1, 110582, Control_c, 0, 67, 33
1, 110597, Control_c, 0, 67, 29
1, 110611, Control_c, 0, 67, 25
1, 110614, Note_on_c, 0, 77, 69
1, 110615, Note_on_c, 0, 74, 68
1, 110615, Note_on_c, 0, 64, 51
1, 110618, Note_on_c, 0, 65, 33
1, 110626, Control_c, 0, 67, 21
1, 110634, Note_off_c, 0, 65, 40
1, 110639, Note_off_c, 0, 64, 57
1, 110641, Control_c, 0, 67, 17
1, 110656, Control_c, 0, 67, 12
1, 110657, Note_off_c, 0, 74, 65
1, 110670, Control_c, 0, 67, 0
1, 110683, Note_on_c, 0, 71, 52
1, 110685, Note_off_c, 0, 77, 53
1, 110737, Note_off_c, 0, 71, 62
1, 110757, Note_on_c, 0, 76, 69
1, 110770, Note_on_c, 0, 45, 64
1, 110789, Note_on_c, 0, 73, 59
1, 110792, Note_off_c, 0, 76, 62
1, 110796, Note_off_c, 0, 45, 65
1, 110822, Note_off_c, 0, 73, 66
1, 110847, Note_on_c, 0, 69, 75
1, 110892, Note_off_c, 0, 69, 63
1, 110912, Note_on_c, 0, 73, 72
1, 110915, Note_on_c, 0, 64, 64
1, 110920, Note_on_c, 0, 63, 59
1, 110940, Note_off_c, 0, 63, 63
1, 110942, Note_off_c, 0, 64, 65
1, 110951, Note_off_c, 0, 73, 57
1, 110981, Note_on_c, 0, 80, 82
1, 111003, Note_off_c, 0, 80, 69
1, 111046, Note_on_c, 0, 76, 81
1, 111053, Note_on_c, 0, 81, 89
1, 111080, Note_off_c, 0, 76, 59
1, 111092, Note_off_c, 0, 81, 63
1, 111122, Poly_aftertouch_c, 0, 72, 0
1, 111126, Note_on_c, 0, 82, 79
1, 111156, Note_off_c, 0, 82, 63
1, 111185, Note_on_c, 0, 81, 79
1, 111192, Note_on_c, 0, 67, 67
1, 111206, Note_off_c, 0, 81, 70
1, 111233, Note_off_c, 0, 67, 56
1, 111250, Note_on_c, 0, 94, 82
1, 111311, Note_off_c, 0, 94, 56
1, 111328, Note_on_c, 0, 93, 92
1, 111333, Note_on_c, 0, 74, 63
1, 111336, Note_on_c, 0, 77, 62
1, 111353, Poly_aftertouch_c, 0, 94, 0
1, 111357, Note_on_c, 0, 94, 11
1, 111363, Note_off_c, 0, 74, 66
1, 111365, Note_off_c, 0, 77, 65
1, 111372, Note_off_c, 0, 93, 62
1, 111388, Note_off_c, 0, 94, 40
1, 111395, Note_on_c, 0, 82, 82
1, 111411, Note_off_c, 0, 82, 69
1, 111460, Note_on_c, 0, 65, 62
1, 111486, Note_off_c, 0, 65, 64
1, 111487, Note_on_c, 0, 81, 75
1, 111530, Note_off_c, 0, 81, 44
1, 111549, Note_on_c, 0, 70, 80
1, 111600, Note_off_c, 0, 70, 56
1, 111612, Note_on_c, 0, 69, 82
1, 111631, Note_on_c, 0, 79, 85
1, 111632, Note_on_c, 0, 73, 82
1, 111643, Note_off_c, 0, 79, 68
1, 111652, Note_off_c, 0, 73, 70
1, 111669, Note_off_c, 0, 69, 66
1, 111691, Note_on_c, 0, 70, 86
1, 111733, Note_off_c, 0, 70, 64
1, 111765, Note_on_c, 0, 69, 70
1, 111786, Note_on_c, 0, 64, 78
1, 111791, Note_off_c, 0, 69, 71
1, 111835, Note_off_c, 0, 64, 61
1, 111838, Note_on_c, 0, 62, 78
1, 111848, Note_on_c, 0, 82, 70
1, 111868, Note_off_c, 0, 62, 60
1, 111870, Note_off_c, 0, 82, 67
1, 111914, Note_on_c, 0, 81, 84
1, 111918, Note_on_c, 0, 77, 77
1, 111938, Note_off_c, 0, 77, 69
1, 111971, Note_off_c, 0, 81, 55
1, 111998, Note_on_c, 0, 82, 68
1, 112014, Note_off_c, 0, 82, 66
1, 112046, Note_on_c, 0, 68, 68
1, 112059, Note_on_c, 0, 89, 81
1, 112060, Note_on_c, 0, 69, 63
1, 112064, Note_on_c, 0, 81, 82
1, 112069, Note_off_c, 0, 68, 59
1, 112080, Note_off_c, 0, 69, 67
1, 112108, Note_off_c, 0, 89, 62
1, 112139, Note_on_c, 0, 77, 64
1, 112144, Note_off_c, 0, 81, 56
1, 112158, Note_off_c, 0, 77, 61
1, 112159, Note_on_c, 0, 82, 61
1, 112194, Note_off_c, 0, 82, 50
1, 112204, Note_on_c, 0, 53, 79
1, 112211, Note_on_c, 0, 88, 80
1, 112224, Note_on_c, 0, 81, 73
1, 112236, Note_off_c, 0, 53, 69
1, 112265, Note_off_c, 0, 88, 58
1, 112305, Note_on_c, 0, 82, 73
1, 112306, Note_on_c, 0, 77, 54
1, 112308, Note_off_c, 0, 81, 56
1, 112332, Note_off_c, 0, 77, 56
1, 112370, Note_on_c, 0, 70, 72
1, 112377, Note_on_c, 0, 81, 79
1, 112378, Note_off_c, 0, 82, 64
1, 112380, Note_on_c, 0, 86, 72
1, 112383, Note_on_c, 0, 68, 24
1, 112384, Note_off_c, 0, 68, 127
1, 112392, Note_on_c, 0, 69, 54
1, 112394, Note_off_c, 0, 70, 68
1, 112415, Note_off_c, 0, 69, 59
1, 112427, Note_off_c, 0, 86, 61
1, 112445, Note_off_c, 0, 81, 59
1, 112457, Note_on_c, 0, 77, 63
1, 112473, Note_on_c, 0, 82, 66
1, 112484, Note_off_c, 0, 77, 63
1, 112496, Note_off_c, 0, 82, 67
1, 112526, Note_on_c, 0, 45, 79
1, 112529, Note_on_c, 0, 86, 78
1, 112531, Note_on_c, 0, 79, 74
1, 112547, Note_off_c, 0, 45, 68
1, 112570, Note_off_c, 0, 86, 62
1, 112583, Note_off_c, 0, 79, 51
1, 112605, Note_on_c, 0, 81, 78
1, 112621, Note_on_c, 0, 76, 56
1, 112645, Note_off_c, 0, 76, 62
1, 112674, Note_on_c, 0, 85, 75
1, 112678, Note_on_c, 0, 68, 70
1, 112682, Note_on_c, 0, 79, 72
1, 112683, Note_on_c, 0, 69, 70
1, 112684, Note_off_c, 0, 81, 61
1, 112706, Note_off_c, 0, 69, 67
1, 112709, Note_off_c, 0, 68, 66
1, 112730, Note_off_c, 0, 79, 59
1, 112733, Note_off_c, 0, 85, 65
1, 112751, Note_on_c, 0, 76, 50
1, 112757, Note_on_c, 0, 81, 64
1, 112779, Note_off_c, 0, 76, 55
1, 112825, Note_on_c, 0, 84, 80
1, 112828, Note_on_c, 0, 49, 75
1, 112832, Note_off_c, 0, 81, 62
1, 112834, Note_on_c, 0, 79, 74
1, 112857, Note_off_c, 0, 49, 66
1, 112879, Note_off_c, 0, 79, 50
1, 112886, Note_off_c, 0, 84, 62
1, 112908, Note_on_c, 0, 83, 76
1, 112912, Note_on_c, 0, 76, 66
1, 112952, Note_off_c, 0, 76, 64
1, 112988, Note_on_c, 0, 70, 63
1, 112992, Note_on_c, 0, 82, 69
1, 112995, Note_on_c, 0, 69, 62
1, 112995, Note_off_c, 0, 83, 61
1, 113001, Note_on_c, 0, 79, 69
1, 113015, Note_off_c, 0, 70, 66
1, 113018, Note_off_c, 0, 69, 67
1, 113031, Note_off_c, 0, 79, 61
1, 113041, Note_off_c, 0, 82, 59
1, 113058, Note_on_c, 0, 76, 70
1, 113093, Note_off_c, 0, 76, 65
1, 113128, Note_on_c, 0, 81, 72
1, 113143, Note_on_c, 0, 77, 67
1, 113143, Note_on_c, 0, 50, 68
1, 113158, Note_off_c, 0, 81, 58
1, 113164, Note_off_c, 0, 50, 64
1, 113174, Note_off_c, 0, 77, 59
1, 113209, Note_on_c, 0, 74, 66
1, 113244, Note_off_c, 0, 74, 60
1, 113280, Note_on_c, 0, 77, 75
1, 113294, Note_on_c, 0, 69, 64
1, 113295, Note_on_c, 0, 68, 65
1, 113316, Note_off_c, 0, 77, 54
1, 113322, Note_off_c, 0, 69, 69
1, 113326, Note_off_c, 0, 68, 67
1, 113348, Note_on_c, 0, 82, 79
1, 113371, Note_off_c, 0, 82, 70
1, 113414, Note_on_c, 0, 73, 87
1, 113417, Note_on_c, 0, 81, 79
1, 113421, Note_on_c, 0, 76, 76
1, 113443, Note_off_c, 0, 76, 71
1, 113452, Note_off_c, 0, 73, 59
1, 113454, Note_off_c, 0, 81, 62
1, 113485, Note_on_c, 0, 82, 77
1, 113524, Note_off_c, 0, 82, 66
1, 113551, Note_on_c, 0, 81, 66
1, 113562, Note_on_c, 0, 67, 65
1, 113576, Note_off_c, 0, 81, 67
1, 113600, Note_off_c, 0, 67, 58
1, 113617, Note_on_c, 0, 94, 80
1, 113687, Note_off_c, 0, 94, 56
1, 113693, Note_on_c, 0, 93, 87
1, 113696, Note_on_c, 0, 77, 64
1, 113697, Note_on_c, 0, 74, 61
1, 113735, Note_off_c, 0, 77, 63
1, 113739, Note_off_c, 0, 74, 63
1, 113743, Note_off_c, 0, 93, 62
1, 113801, Note_on_c, 0, 83, 16
1, 113802, Note_off_c, 0, 83, 127
1, 113839, Note_on_c, 0, 65, 57
1, 113860, Note_off_c, 0, 65, 60
1, 113861, Note_on_c, 0, 81, 46
1, 113903, Note_off_c, 0, 81, 52
1, 113907, Note_on_c, 0, 70, 79
1, 113936, Note_off_c, 0, 70, 60
1, 113971, Note_on_c, 0, 69, 82
1, 113989, Note_on_c, 0, 79, 85
1, 113996, Note_on_c, 0, 73, 77
1, 114010, Note_off_c, 0, 79, 68
1, 114019, Note_off_c, 0, 73, 70
1, 114029, Note_off_c, 0, 69, 65
1, 114052, Note_on_c, 0, 70, 77
1, 114109, Note_off_c, 0, 70, 62
1, 114118, Note_on_c, 0, 69, 76
1, 114140, Note_on_c, 0, 64, 77
1, 114140, Note_off_c, 0, 69, 72
1, 114194, Note_off_c, 0, 64, 63
1, 114204, Note_on_c, 0, 62, 75
1, 114208, Note_on_c, 0, 82, 75
1, 114229, Note_off_c, 0, 62, 63
1, 114231, Note_off_c, 0, 82, 69
1, 114275, Note_on_c, 0, 81, 84
1, 114277, Note_on_c, 0, 77, 75
1, 114299, Note_off_c, 0, 77, 68
1, 114320, Note_off_c, 0, 81, 60
1, 114359, Note_on_c, 0, 82, 77
1, 114379, Note_off_c, 0, 82, 69
1, 114413, Note_on_c, 0, 68, 66
1, 114425, Note_on_c, 0, 89, 82
1, 114430, Note_on_c, 0, 81, 84
1, 114431, Note_on_c, 0, 69, 44
1, 114433, Note_off_c, 0, 68, 63
1, 114457, Note_off_c, 0, 69, 53
1, 114463, Note_off_c, 0, 89, 64
1, 114508, Note_off_c, 0, 81, 55
1, 114516, Note_on_c, 0, 77, 56
1, 114525, Note_on_c, 0, 82, 66
1, 114535, Note_off_c, 0, 77, 60
1, 114571, Note_on_c, 0, 53, 78
1, 114580, Note_off_c, 0, 82, 57
1, 114587, Note_on_c, 0, 88, 75
1, 114593, Note_off_c, 0, 53, 69
1, 114594, Note_on_c, 0, 81, 84
1, 114631, Note_off_c, 0, 88, 59
1, 114671, Note_off_c, 0, 81, 58
1, 114678, Note_on_c, 0, 77, 48
1, 114678, Note_on_c, 0, 82, 73
1, 114702, Note_off_c, 0, 77, 55
1, 114734, Note_on_c, 0, 70, 66
1, 114734, Note_on_c, 0, 81, 81
1, 114734, Note_off_c, 0, 82, 59
1, 114735, Note_on_c, 0, 69, 68
1, 114745, Note_on_c, 0, 86, 72
1, 114761, Note_off_c, 0, 70, 67
1, 114763, Note_off_c, 0, 69, 71
1, 114803, Note_off_c, 0, 86, 54
1, 114812, Note_off_c, 0, 81, 55
1, 114826, Note_on_c, 0, 77, 63
1, 114830, Note_on_c, 0, 82, 73
1, 114845, Note_off_c, 0, 77, 64
1, 114851, Note_off_c, 0, 82, 68
1, 114890, Note_on_c, 0, 45, 75
1, 114892, Note_on_c, 0, 86, 87
1, 114898, Note_on_c, 0, 79, 75
1, 114913, Control_c, 0, 64, 61
1, 114913, Note_off_c, 0, 45, 68
1, 114928, Control_c, 0, 64, 67
1, 114934, Note_off_c, 0, 79, 57
1, 114942, Note_off_c, 0, 86, 64
1, 114942, Control_c, 0, 64, 71
1, 114957, Control_c, 0, 64, 77
1, 114972, Control_c, 0, 64, 84
1, 114976, Note_on_c, 0, 81, 82
1, 114987, Control_c, 0, 64, 90
1, 114990, Note_on_c, 0, 76, 67
1, 115002, Control_c, 0, 64, 95
1, 115017, Control_c, 0, 64, 100
1, 115029, Note_off_c, 0, 76, 64
1, 115031, Control_c, 0, 64, 102
1, 115039, Note_on_c, 0, 79, 73
1, 115041, Note_on_c, 0, 85, 80
1, 115043, Note_on_c, 0, 68, 71
1, 115046, Control_c, 0, 64, 103
1, 115050, Note_on_c, 0, 69, 67
1, 115059, Note_off_c, 0, 81, 59
1, 115061, Control_c, 0, 64, 105
1, 115068, Note_off_c, 0, 69, 68
1, 115069, Note_off_c, 0, 68, 67
1, 115075, Control_c, 0, 64, 107
1, 115090, Control_c, 0, 64, 109
1, 115105, Control_c, 0, 64, 110
1, 115107, Note_off_c, 0, 85, 65
1, 115109, Note_off_c, 0, 79, 60
1, 115123, Note_on_c, 0, 76, 65
1, 115125, Note_on_c, 0, 81, 68
1, 115135, Control_c, 0, 64, 108
1, 115149, Control_c, 0, 64, 97
1, 115161, Note_off_c, 0, 76, 61
1, 115164, Control_c, 0, 64, 81
1, 115179, Control_c, 0, 64, 62
1, 115193, Note_on_c, 0, 49, 72
1, 115194, Note_on_c, 0, 84, 81
1, 115194, Control_c, 0, 64, 0
1, 115201, Note_off_c, 0, 81, 63
1, 115202, Note_on_c, 0, 79, 75
1, 115220, Note_off_c, 0, 49, 65
1, 115246, Control_c, 0, 64, 54
1, 115261, Control_c, 0, 64, 68
1, 115275, Control_c, 0, 64, 73
1, 115280, Note_on_c, 0, 76, 76
1, 115281, Note_off_c, 0, 84, 59
1, 115283, Note_off_c, 0, 79, 59
1, 115283, Note_on_c, 0, 83, 81
1, 115290, Control_c, 0, 64, 77
1, 115305, Control_c, 0, 64, 79
1, 115320, Control_c, 0, 64, 81
1, 115326, Note_off_c, 0, 76, 60
1, 115335, Control_c, 0, 64, 83
1, 115349, Control_c, 0, 64, 84
1, 115360, Note_on_c, 0, 82, 80
1, 115364, Control_c, 0, 64, 86
1, 115365, Note_on_c, 0, 79, 80
1, 115372, Note_on_c, 0, 69, 64
1, 115373, Note_on_c, 0, 70, 53
1, 115378, Note_off_c, 0, 83, 58
1, 115379, Control_c, 0, 64, 89
1, 115393, Note_off_c, 0, 70, 60
1, 115393, Control_c, 0, 64, 93
1, 115400, Note_off_c, 0, 69, 70
1, 115408, Control_c, 0, 64, 98
1, 115421, Note_off_c, 0, 79, 61
1, 115423, Control_c, 0, 64, 103
1, 115430, Note_off_c, 0, 82, 61
1, 115431, Note_on_c, 0, 76, 76
1, 115438, Control_c, 0, 64, 108
1, 115453, Control_c, 0, 64, 109
1, 115466, Note_off_c, 0, 76, 65
1, 115483, Control_c, 0, 64, 105
1, 115498, Control_c, 0, 64, 92
1, 115513, Control_c, 0, 64, 74
1, 115514, Note_on_c, 0, 81, 86
1, 115521, Note_on_c, 0, 77, 79
1, 115527, Control_c, 0, 64, 26
1, 115529, Note_on_c, 0, 50, 67
1, 115542, Control_c, 0, 64, 0
1, 115569, Note_off_c, 0, 81, 61
1, 115572, Control_c, 0, 64, 63
1, 115581, Note_off_c, 0, 77, 62
1, 115587, Control_c, 0, 64, 73
1, 115600, Note_on_c, 0, 74, 79
1, 115602, Control_c, 0, 64, 82
1, 115611, Note_off_c, 0, 50, 59
1, 115617, Control_c, 0, 64, 88
1, 115632, Control_c, 0, 64, 90
1, 115647, Control_c, 0, 64, 92
1, 115662, Control_c, 0, 64, 94
1, 115672, Note_on_c, 0, 77, 82
1, 115675, Note_off_c, 0, 74, 61
1, 115676, Control_c, 0, 64, 98
1, 115691, Control_c, 0, 64, 101
1, 115706, Control_c, 0, 64, 103
1, 115721, Control_c, 0, 64, 104
1, 115736, Control_c, 0, 64, 106
1, 115751, Control_c, 0, 64, 108
1, 115754, Note_off_c, 0, 77, 59
1, 115755, Note_on_c, 0, 86, 80
1, 115765, Control_c, 0, 64, 112
1, 115780, Control_c, 0, 64, 120
1, 115795, Control_c, 0, 64, 127
1, 115801, Note_off_c, 0, 86, 61
1, 115839, Control_c, 0, 64, 120
1, 115854, Control_c, 0, 64, 101
1, 115869, Control_c, 0, 64, 80
1, 115881, Note_on_c, 0, 29, 57
1, 115884, Control_c, 0, 64, 63
1, 115898, Control_c, 0, 64, 0
1, 115902, Note_on_c, 0, 41, 55
1, 115906, Note_on_c, 0, 89, 87
1, 115914, Note_on_c, 0, 77, 81
1, 115915, Note_off_c, 0, 29, 62
1, 115928, Control_c, 0, 64, 61
1, 115943, Control_c, 0, 64, 71
1, 115958, Control_c, 0, 64, 79
1, 115980, Control_c, 0, 64, 86
1, 115988, Note_off_c, 0, 89, 56
1, 115992, Note_off_c, 0, 77, 56
1, 115995, Control_c, 0, 64, 88
1, 116000, Note_off_c, 0, 41, 52
1, 116010, Control_c, 0, 64, 90
1, 116018, Note_on_c, 0, 85, 66
1, 116024, Control_c, 0, 64, 92
1, 116033, Note_on_c, 0, 81, 65
1, 116039, Control_c, 0, 64, 94
1, 116045, Note_on_c, 0, 42, 47
1, 116054, Control_c, 0, 64, 98
1, 116069, Control_c, 0, 64, 102
1, 116082, Note_off_c, 0, 85, 66
1, 116084, Control_c, 0, 64, 106
1, 116085, Note_off_c, 0, 42, 64
1, 116098, Control_c, 0, 64, 113
1, 116110, Note_off_c, 0, 81, 58
1, 116113, Control_c, 0, 64, 124
1, 116118, Note_on_c, 0, 41, 48
1, 116128, Control_c, 0, 64, 127
1, 116130, Note_on_c, 0, 75, 80
1, 116147, Note_off_c, 0, 41, 57
1, 116171, Note_on_c, 0, 42, 58
1, 116172, Note_off_c, 0, 75, 64
1, 116172, Control_c, 0, 64, 119
1, 116186, Note_on_c, 0, 87, 82
1, 116187, Control_c, 0, 64, 97
1, 116193, Note_off_c, 0, 42, 63
1, 116202, Control_c, 0, 64, 77
1, 116209, Note_off_c, 0, 87, 66
1, 116216, Control_c, 0, 64, 36
1, 116231, Control_c, 0, 64, 0
1, 116252, Note_on_c, 0, 73, 89
1, 116257, Note_on_c, 0, 85, 89
1, 116261, Note_on_c, 0, 41, 54
1, 116261, Control_c, 0, 64, 46
1, 116276, Control_c, 0, 64, 69
1, 116278, Note_on_c, 0, 53, 43
1, 116289, Note_off_c, 0, 41, 57
1, 116291, Control_c, 0, 64, 78
1, 116304, Note_off_c, 0, 53, 56
1, 116305, Control_c, 0, 64, 87
1, 116315, Note_off_c, 0, 73, 55
1, 116320, Control_c, 0, 64, 92
1, 116335, Control_c, 0, 64, 94
1, 116349, Note_off_c, 0, 85, 63
1, 116350, Control_c, 0, 64, 96
1, 116353, Note_on_c, 0, 54, 64
1, 116353, Note_on_c, 0, 82, 67
1, 116360, Poly_aftertouch_c, 0, 77, 127
1, 116365, Control_c, 0, 64, 97
1, 116380, Control_c, 0, 64, 97
1, 116392, Poly_aftertouch_c, 0, 77, 0
1, 116395, Control_c, 0, 64, 98
1, 116400, Note_off_c, 0, 54, 61
1, 116410, Note_off_c, 0, 82, 62
1, 116419, Note_on_c, 0, 74, 69
1, 116422, Note_on_c, 0, 53, 58
1, 116425, Control_c, 0, 64, 99
1, 116440, Control_c, 0, 64, 101
1, 116454, Control_c, 0, 64, 106
1, 116455, Note_off_c, 0, 74, 61
1, 116459, Note_off_c, 0, 53, 65
1, 116469, Control_c, 0, 64, 111
1, 116479, Note_on_c, 0, 54, 62
1, 116484, Control_c, 0, 64, 112
1, 116490, Note_on_c, 0, 86, 73
1, 116504, Note_off_c, 0, 54, 62
1, 116506, Note_off_c, 0, 86, 68
1, 116514, Control_c, 0, 64, 104
1, 116529, Control_c, 0, 64, 87
1, 116544, Control_c, 0, 64, 62
1, 116559, Control_c, 0, 64, 0
1, 116567, Note_on_c, 0, 68, 94
1, 116567, Note_on_c, 0, 80, 95
1, 116569, Note_on_c, 0, 53, 74
1, 116577, Note_on_c, 0, 65, 71
1, 116592, Note_off_c, 0, 53, 70
1, 116602, Control_c, 0, 64, 43
1, 116611, Note_off_c, 0, 65, 58
1, 116617, Control_c, 0, 64, 69
1, 116618, Note_off_c, 0, 68, 56
1, 116632, Control_c, 0, 64, 77
1, 116646, Control_c, 0, 64, 83
1, 116654, Note_off_c, 0, 80, 61
1, 116655, Note_on_c, 0, 72, 58
1, 116659, Note_on_c, 0, 75, 65
1, 116661, Control_c, 0, 64, 84
1, 116669, Note_on_c, 0, 66, 69
1, 116676, Control_c, 0, 64, 86
1, 116691, Control_c, 0, 64, 88
1, 116706, Control_c, 0, 64, 91
1, 116723, Note_off_c, 0, 72, 62
1, 116728, Control_c, 0, 64, 96
1, 116730, Note_off_c, 0, 75, 63
1, 116731, Note_on_c, 0, 69, 82
1, 116736, Note_off_c, 0, 66, 52
1, 116743, Control_c, 0, 64, 102
1, 116758, Control_c, 0, 64, 108
1, 116767, Note_on_c, 0, 65, 66
1, 116773, Control_c, 0, 64, 112
1, 116783, Note_off_c, 0, 69, 66
1, 116788, Control_c, 0, 64, 112
1, 116803, Note_off_c, 0, 65, 60
1, 116812, Note_on_c, 0, 81, 74
1, 116817, Control_c, 0, 64, 110
1, 116828, Note_off_c, 0, 81, 68
1, 116832, Control_c, 0, 64, 96
1, 116840, Note_on_c, 0, 66, 62
1, 116846, Control_c, 0, 64, 78
1, 116861, Control_c, 0, 64, 48
1, 116876, Control_c, 0, 64, 0
1, 116878, Note_off_c, 0, 66, 64
1, 116884, Note_on_c, 0, 84, 87
1, 116890, Note_on_c, 0, 72, 80
1, 116901, Note_off_c, 0, 84, 74
1, 116902, Note_on_c, 0, 65, 66
1, 116906, Control_c, 0, 64, 62
1, 116914, Note_off_c, 0, 72, 66
1, 116920, Control_c, 0, 64, 73
1, 116935, Control_c, 0, 64, 83
1, 116947, Note_off_c, 0, 65, 57
1, 116950, Control_c, 0, 64, 91
1, 116965, Control_c, 0, 64, 95
1, 116975, Note_on_c, 0, 74, 71
1, 116976, Note_on_c, 0, 67, 61
1, 116977, Note_on_c, 0, 77, 66
1, 116979, Control_c, 0, 64, 97
1, 116994, Control_c, 0, 64, 98
1, 117009, Control_c, 0, 64, 100
1, 117022, Note_off_c, 0, 74, 0
1, 117024, Note_off_c, 0, 77, 52
1, 117024, Control_c, 0, 64, 103
1, 117026, Note_off_c, 0, 67, 61
1, 117039, Control_c, 0, 64, 106
1, 117051, Note_on_c, 0, 65, 57
1, 117051, Note_on_c, 0, 70, 86
1, 117054, Control_c, 0, 64, 110
1, 117055, Note_on_c, 0, 74, 32
1, 117068, Note_off_c, 0, 65, 67
1, 117069, Control_c, 0, 64, 119
1, 117080, Note_off_c, 0, 74, 59
1, 117083, Control_c, 0, 64, 127
1, 117103, Note_off_c, 0, 70, 63
1, 117140, Note_on_c, 0, 80, 53
1, 117161, Note_off_c, 0, 80, 62
1, 117172, Control_c, 0, 64, 107
1, 117188, Control_c, 0, 64, 87
1, 117203, Control_c, 0, 64, 68
1, 117218, Control_c, 0, 64, 0
1, 117237, Note_on_c, 0, 89, 95
1, 117243, Note_on_c, 0, 29, 69
1, 117244, Note_on_c, 0, 77, 92
1, 117247, Control_c, 0, 64, 26
1, 117251, Note_on_c, 0, 41, 67
1, 117262, Control_c, 0, 64, 67
1, 117272, Note_off_c, 0, 29, 56
1, 117277, Control_c, 0, 64, 78
1, 117282, Note_off_c, 0, 41, 65
1, 117282, Note_off_c, 0, 89, 65
1, 117286, Note_off_c, 0, 77, 60
1, 117292, Control_c, 0, 64, 88
1, 117307, Control_c, 0, 64, 93
1, 117322, Control_c, 0, 64, 94
1, 117337, Control_c, 0, 64, 95
1, 117342, Note_on_c, 0, 81, 63
1, 117346, Note_on_c, 0, 42, 64
1, 117352, Control_c, 0, 64, 96
1, 117367, Control_c, 0, 64, 98
1, 117372, Note_on_c, 0, 84, 45
1, 117382, Control_c, 0, 64, 100
1, 117390, Note_off_c, 0, 42, 62
1, 117391, Note_on_c, 0, 83, 15
1, 117396, Control_c, 0, 64, 104
1, 117403, Note_off_c, 0, 84, 53
1, 117411, Control_c, 0, 64, 110
1, 117420, Note_on_c, 0, 41, 62
1, 117423, Note_on_c, 0, 75, 82
1, 117426, Control_c, 0, 64, 122
1, 117435, Note_off_c, 0, 81, 61
1, 117436, Note_off_c, 0, 83, 34
1, 117441, Control_c, 0, 64, 127
1, 117448, Note_off_c, 0, 41, 68
1, 117476, Note_off_c, 0, 75, 65
1, 117477, Note_on_c, 0, 42, 64
1, 117505, Note_on_c, 0, 87, 74
1, 117507, Note_off_c, 0, 42, 62
1, 117507, Control_c, 0, 64, 101
1, 117522, Control_c, 0, 64, 80
1, 117528, Note_off_c, 0, 87, 69
1, 117537, Control_c, 0, 64, 29
1, 117551, Control_c, 0, 64, 0
1, 117561, Note_on_c, 0, 41, 68
1, 117564, Note_on_c, 0, 73, 91
1, 117566, Note_on_c, 0, 85, 96
1, 117567, Note_on_c, 0, 53, 73
1, 117587, Note_off_c, 0, 41, 67
1, 117596, Control_c, 0, 64, 59
1, 117605, Note_off_c, 0, 53, 62
1, 117611, Control_c, 0, 64, 73
1, 117626, Control_c, 0, 64, 83
1, 117631, Note_off_c, 0, 73, 52
1, 117641, Control_c, 0, 64, 92
1, 117646, Note_on_c, 0, 77, 30
1, 117656, Note_on_c, 0, 54, 67
1, 117656, Control_c, 0, 64, 95
1, 117662, Note_on_c, 0, 82, 74
1, 117667, Note_off_c, 0, 85, 63
1, 117670, Control_c, 0, 64, 95
1, 117685, Control_c, 0, 64, 96
1, 117700, Control_c, 0, 64, 96
1, 117706, Note_off_c, 0, 54, 59
1, 117712, Note_off_c, 0, 77, 58
1, 117715, Control_c, 0, 64, 97
1, 117721, Note_off_c, 0, 82, 61
1, 117724, Note_on_c, 0, 53, 66
1, 117729, Note_on_c, 0, 74, 77
1, 117730, Control_c, 0, 64, 99
1, 117744, Control_c, 0, 64, 104
1, 117759, Control_c, 0, 64, 112
1, 117765, Note_off_c, 0, 53, 66
1, 117773, Note_off_c, 0, 74, 64
1, 117774, Note_on_c, 0, 54, 64
1, 117774, Control_c, 0, 64, 118
1, 117789, Control_c, 0, 64, 120
1, 117799, Note_off_c, 0, 54, 67
1, 117802, Note_on_c, 0, 86, 83
1, 117818, Control_c, 0, 64, 112
1, 117820, Note_off_c, 0, 86, 71
1, 117833, Control_c, 0, 64, 95
1, 117848, Control_c, 0, 64, 72
1, 117863, Control_c, 0, 64, 0
1, 117873, Note_on_c, 0, 53, 77
1, 117878, Note_on_c, 0, 65, 73
1, 117879, Note_on_c, 0, 68, 100
1, 117879, Note_on_c, 0, 80, 93
1, 117899, Note_off_c, 0, 53, 67
1, 117907, Control_c, 0, 64, 47
1, 117922, Control_c, 0, 64, 72
1, 117931, Note_off_c, 0, 65, 59
1, 117937, Note_off_c, 0, 68, 54
1, 117937, Control_c, 0, 64, 84
1, 117951, Control_c, 0, 64, 95
1, 117965, Note_on_c, 0, 75, 59
1, 117966, Poly_aftertouch_c, 0, 72, 127
1, 117966, Control_c, 0, 64, 98
1, 117970, Note_off_c, 0, 80, 61
1, 117976, Note_on_c, 0, 66, 68
1, 117981, Control_c, 0, 64, 99
1, 117997, Control_c, 0, 64, 101
1, 118012, Control_c, 0, 64, 104
1, 118027, Control_c, 0, 64, 109
1, 118030, Note_off_c, 0, 66, 57
1, 118031, Poly_aftertouch_c, 0, 72, 0
1, 118034, Note_on_c, 0, 69, 84
1, 118039, Note_off_c, 0, 75, 65
1, 118041, Control_c, 0, 64, 116
1, 118056, Control_c, 0, 64, 121
1, 118059, Note_on_c, 0, 65, 66
1, 118071, Control_c, 0, 64, 123
1, 118086, Note_off_c, 0, 69, 66
1, 118100, Control_c, 0, 64, 123
1, 118109, Note_on_c, 0, 81, 78
1, 118111, Note_off_c, 0, 65, 64
1, 118115, Control_c, 0, 64, 115
1, 118130, Control_c, 0, 64, 98
1, 118131, Note_on_c, 0, 66, 73
1, 118131, Note_off_c, 0, 81, 70
1, 118145, Control_c, 0, 64, 77
1, 118160, Control_c, 0, 64, 0
1, 118180, Note_off_c, 0, 66, 62
1, 118182, Note_on_c, 0, 84, 91
1, 118185, Note_on_c, 0, 72, 83
1, 118196, Note_on_c, 0, 65, 66
1, 118198, Note_off_c, 0, 84, 74
1, 118204, Control_c, 0, 64, 52
1, 118209, Note_off_c, 0, 72, 67
1, 118226, Control_c, 0, 64, 70
1, 118241, Control_c, 0, 64, 79
1, 118256, Control_c, 0, 64, 90
1, 118260, Note_off_c, 0, 65, 64
1, 118267, Note_on_c, 0, 67, 71
1, 118268, Note_on_c, 0, 78, 89
1, 118271, Control_c, 0, 64, 96
1, 118273, Note_on_c, 0, 74, 75
1, 118286, Control_c, 0, 64, 99
1, 118288, Note_off_c, 0, 78, 70
1, 118300, Note_off_c, 0, 74, 60
1, 118300, Control_c, 0, 64, 102
1, 118310, Note_on_c, 0, 77, 50
1, 118315, Control_c, 0, 64, 106
1, 118330, Note_off_c, 0, 67, 61
1, 118330, Control_c, 0, 64, 111
1, 118336, Note_off_c, 0, 77, 51
1, 118345, Control_c, 0, 64, 116
1, 118350, Note_on_c, 0, 70, 91
1, 118360, Control_c, 0, 64, 124
1, 118365, Note_on_c, 0, 65, 40
1, 118370, Note_on_c, 0, 74, 14
1, 118374, Control_c, 0, 64, 127
1, 118391, Note_off_c, 0, 65, 59
1, 118394, Note_off_c, 0, 70, 64
1, 118407, Note_off_c, 0, 74, 45
1, 118428, Note_on_c, 0, 82, 86
1, 118452, Note_off_c, 0, 82, 63
1, 118464, Control_c, 0, 64, 124
1, 118479, Control_c, 0, 64, 94
1, 118493, Control_c, 0, 64, 73
1, 118508, Control_c, 0, 64, 0
1, 118535, Note_on_c, 0, 34, 71
1, 118537, Note_on_c, 0, 82, 100
1, 118538, Note_on_c, 0, 46, 75
1, 118538, Note_on_c, 0, 94, 97
1, 118553, Control_c, 0, 64, 49
1, 118567, Note_on_c, 0, 90, 41
1, 118567, Control_c, 0, 64, 71
1, 118579, Note_off_c, 0, 34, 64
1, 118582, Control_c, 0, 64, 83
1, 118594, Note_off_c, 0, 90, 35
1, 118597, Control_c, 0, 64, 94
1, 118611, Control_c, 0, 64, 99
1, 118620, Note_on_c, 0, 86, 76
1, 118620, Note_off_c, 0, 82, 60
1, 118624, Note_off_c, 0, 46, 63
1, 118626, Control_c, 0, 64, 100
1, 118631, Note_off_c, 0, 94, 61
1, 118633, Note_on_c, 0, 89, 65
1, 118641, Control_c, 0, 64, 101
1, 118656, Control_c, 0, 64, 103
1, 118671, Note_on_c, 0, 46, 63
1, 118671, Control_c, 0, 64, 104
1, 118685, Control_c, 0, 64, 106
1, 118691, Note_off_c, 0, 89, 63
1, 118700, Control_c, 0, 64, 113
1, 118702, Poly_aftertouch_c, 0, 47, 127
1, 118709, Note_on_c, 0, 80, 88
1, 118715, Control_c, 0, 64, 127
1, 118718, Note_off_c, 0, 46, 63
1, 118723, Note_off_c, 0, 86, 61
1, 118761, Note_off_c, 0, 80, 64
1, 118770, Poly_aftertouch_c, 0, 47, 0
1, 118774, Note_on_c, 0, 92, 85
1, 118790, Control_c, 0, 64, 115
1, 118792, Note_off_c, 0, 92, 73
1, 118805, Control_c, 0, 64, 89
1, 118820, Control_c, 0, 64, 65
1, 118835, Control_c, 0, 64, 0
1, 118840, Note_on_c, 0, 46, 73
1, 118845, Note_on_c, 0, 77, 101
1, 118847, Note_on_c, 0, 89, 98
1, 118853, Note_on_c, 0, 58, 76
1, 118879, Control_c, 0, 64, 44
1, 118886, Note_off_c, 0, 77, 61
1, 118894, Control_c, 0, 64, 70
1, 118902, Note_off_c, 0, 46, 61
1, 118908, Control_c, 0, 64, 81
1, 118923, Note_off_c, 0, 58, 66
1, 118923, Control_c, 0, 64, 92
1, 118934, Note_off_c, 0, 89, 37
1, 118935, Note_on_c, 0, 82, 90
1, 118935, Note_on_c, 0, 87, 72
1, 118938, Control_c, 0, 64, 94
1, 118949, Poly_aftertouch_c, 0, 88, 0
1, 118950, Note_on_c, 0, 59, 64
1, 118953, Control_c, 0, 64, 95
1, 118976, Control_c, 0, 64, 96
1, 118979, Note_off_c, 0, 87, 58
1, 118986, Note_off_c, 0, 82, 65
1, 118988, Note_off_c, 0, 59, 66
1, 118990, Control_c, 0, 64, 96
1, 118997, Note_on_c, 0, 58, 65
1, 119005, Control_c, 0, 64, 98
1, 119014, Note_on_c, 0, 78, 89
1, 119020, Control_c, 0, 64, 102
1, 119031, Note_off_c, 0, 58, 65
1, 119035, Control_c, 0, 64, 113
1, 119049, Control_c, 0, 64, 127
1, 119057, Note_on_c, 0, 59, 79
1, 119061, Note_off_c, 0, 78, 62
1, 119078, Note_off_c, 0, 59, 67
1, 119084, Note_on_c, 0, 90, 83
1, 119104, Note_off_c, 0, 90, 71
1, 119109, Control_c, 0, 64, 103
1, 119123, Control_c, 0, 64, 77
1, 119138, Control_c, 0, 64, 0
1, 119152, Note_on_c, 0, 58, 76
1, 119156, Note_on_c, 0, 73, 101
1, 119156, Note_on_c, 0, 85, 97
1, 119177, Note_on_c, 0, 70, 83
1, 119197, Control_c, 0, 64, 68
1, 119207, Note_off_c, 0, 73, 58
1, 119212, Control_c, 0, 64, 79
1, 119218, Note_off_c, 0, 58, 63
1, 119227, Control_c, 0, 64, 93
1, 119233, Note_off_c, 0, 70, 64
1, 119239, Note_on_c, 0, 77, 68
1, 119242, Control_c, 0, 64, 97
1, 119244, Note_on_c, 0, 80, 63
1, 119244, Note_off_c, 0, 85, 62
1, 119257, Control_c, 0, 64, 97
1, 119271, Control_c, 0, 64, 98
1, 119272, Note_on_c, 0, 71, 71
1, 119286, Control_c, 0, 64, 99
1, 119301, Note_off_c, 0, 80, 63
1, 119301, Control_c, 0, 64, 103
1, 119307, Note_off_c, 0, 77, 62
1, 119307, Note_on_c, 0, 74, 82
1, 119316, Control_c, 0, 64, 111
1, 119331, Control_c, 0, 64, 119
1, 119335, Note_off_c, 0, 71, 58
1, 119346, Control_c, 0, 64, 121
1, 119349, Note_on_c, 0, 70, 74
1, 119356, Note_off_c, 0, 74, 65
1, 119360, Control_c, 0, 64, 120
1, 119375, Control_c, 0, 64, 106
1, 119389, Note_on_c, 0, 86, 78
1, 119390, Control_c, 0, 64, 85
1, 119399, Note_off_c, 0, 70, 62
1, 119405, Control_c, 0, 64, 63
1, 119410, Note_off_c, 0, 86, 71
1, 119420, Control_c, 0, 64, 0
1, 119445, Note_on_c, 0, 72, 38
1, 119449, Control_c, 0, 64, 66
1, 119453, Note_on_c, 0, 71, 51
1, 119459, Note_on_c, 0, 89, 96
1, 119462, Note_on_c, 0, 77, 93
1, 119464, Control_c, 0, 64, 78
1, 119475, Note_on_c, 0, 70, 85
1, 119478, Note_off_c, 0, 72, 65
1, 119478, Note_off_c, 0, 89, 63
1, 119479, Control_c, 0, 64, 91
1, 119480, Note_off_c, 0, 71, 63
1, 119494, Control_c, 0, 64, 102
1, 119498, Note_off_c, 0, 77, 63
1, 119507, Note_off_c, 0, 70, 61
1, 119509, Control_c, 0, 64, 107
1, 119523, Control_c, 0, 64, 108
1, 119538, Control_c, 0, 64, 109
1, 119546, Note_on_c, 0, 78, 85
1, 119553, Control_c, 0, 64, 110
1, 119567, Note_off_c, 0, 78, 68
1, 119567, Control_c, 0, 64, 113
1, 119570, Note_on_c, 0, 83, 56
1, 119584, Control_c, 0, 64, 121
1, 119591, Note_off_c, 0, 83, 58
1, 119599, Control_c, 0, 64, 127
1, 119616, Note_on_c, 0, 75, 92
1, 119664, Note_off_c, 0, 75, 67
1, 119683, Note_on_c, 0, 87, 82
1, 119702, Control_c, 0, 64, 100
1, 119725, Note_off_c, 0, 87, 63
1, 119725, Control_c, 0, 64, 75
1, 119739, Control_c, 0, 64, 0
1, 119773, Note_on_c, 0, 34, 85
1, 119777, Note_on_c, 0, 46, 89
1, 119780, Note_on_c, 0, 82, 106
1, 119782, Note_on_c, 0, 94, 99
1, 119799, Control_c, 0, 64, 71
1, 119814, Control_c, 0, 64, 88
1, 119816, Note_on_c, 0, 92, 35
1, 119828, Control_c, 0, 64, 110
1, 119830, Note_off_c, 0, 34, 63
1, 119843, Control_c, 0, 64, 121
1, 119849, Note_off_c, 0, 46, 61
1, 119856, Note_off_c, 0, 92, 49
1, 119856, Note_off_c, 0, 82, 63
1, 119861, Note_on_c, 0, 86, 67
1, 119875, Note_off_c, 0, 94, 61
1, 119877, Note_on_c, 0, 47, 69
1, 119880, Note_on_c, 0, 89, 51
1, 119885, Note_on_c, 0, 88, 52
1, 119918, Note_off_c, 0, 88, 65
1, 119921, Note_off_c, 0, 89, 64
1, 119932, Note_off_c, 0, 47, 62
1, 119932, Control_c, 0, 64, 122
1, 119941, Note_on_c, 0, 80, 89
1, 119942, Note_on_c, 0, 46, 72
1, 119946, Control_c, 0, 64, 127
1, 119961, Note_off_c, 0, 86, 62
1, 119978, Note_off_c, 0, 46, 62
1, 119994, Note_on_c, 0, 47, 79
1, 119999, Note_off_c, 0, 80, 63
1, 120012, Note_on_c, 0, 92, 80
1, 120019, Note_off_c, 0, 47, 68
1, 120031, Note_off_c, 0, 92, 73
1, 120035, Control_c, 0, 64, 108
1, 120050, Control_c, 0, 64, 81
1, 120064, Control_c, 0, 64, 0
1, 120082, Note_on_c, 0, 77, 100
1, 120084, Note_on_c, 0, 89, 101
1, 120089, Note_on_c, 0, 46, 82
1, 120112, Note_on_c, 0, 58, 78
1, 120114, Note_on_c, 0, 88, 46
1, 120121, Note_off_c, 0, 77, 63
1, 120124, Control_c, 0, 64, 65
1, 120139, Control_c, 0, 64, 78
1, 120141, Note_off_c, 0, 88, 35
1, 120154, Control_c, 0, 64, 91
1, 120155, Note_off_c, 0, 46, 62
1, 120157, Note_off_c, 0, 89, 0
1, 120160, Note_on_c, 0, 87, 44
1, 120169, Control_c, 0, 64, 99
1, 120170, Note_off_c, 0, 58, 64
1, 120171, Note_on_c, 0, 82, 86
1, 120173, Poly_aftertouch_c, 0, 89, 0
1, 120183, Control_c, 0, 64, 100
1, 120190, Note_on_c, 0, 59, 68
1, 120213, Control_c, 0, 64, 100
1, 120216, Note_off_c, 0, 82, 64
1, 120220, Note_off_c, 0, 87, 64
1, 120243, Control_c, 0, 64, 101
1, 120244, Note_on_c, 0, 78, 96
1, 120255, Note_off_c, 0, 59, 62
1, 120257, Control_c, 0, 64, 103
1, 120261, Note_on_c, 0, 58, 71
1, 120272, Control_c, 0, 64, 111
1, 120287, Control_c, 0, 64, 124
1, 120289, Note_off_c, 0, 78, 65
1, 120296, Note_off_c, 0, 58, 66
1, 120302, Control_c, 0, 64, 127
1, 120309, Note_on_c, 0, 59, 70
1, 120324, Note_on_c, 0, 90, 83
1, 120330, Note_off_c, 0, 59, 68
1, 120345, Note_off_c, 0, 90, 69
1, 120345, Control_c, 0, 64, 103
1, 120360, Control_c, 0, 64, 78
1, 120375, Control_c, 0, 64, 0
1, 120399, Note_on_c, 0, 73, 106
1, 120399, Note_on_c, 0, 85, 94
1, 120400, Note_on_c, 0, 58, 81
1, 120425, Note_on_c, 0, 70, 87
1, 120428, Note_on_c, 0, 77, 46
1, 120435, Control_c, 0, 64, 73
1, 120449, Note_off_c, 0, 73, 57
1, 120450, Control_c, 0, 64, 90
1, 120453, Note_off_c, 0, 77, 36
1, 120473, Control_c, 0, 64, 113
1, 120481, Note_off_c, 0, 58, 59
1, 120484, Note_off_c, 0, 70, 62
1, 120488, Control_c, 0, 64, 117
1, 120495, Note_on_c, 0, 77, 74
1, 120506, Note_off_c, 0, 85, 63
1, 120512, Poly_aftertouch_c, 0, 80, 127
1, 120517, Control_c, 0, 64, 117
1, 120522, Note_on_c, 0, 71, 59
1, 120532, Control_c, 0, 64, 123
1, 120547, Control_c, 0, 64, 127
1, 120554, Note_off_c, 0, 77, 60
1, 120562, Note_on_c, 0, 74, 83
1, 120565, Poly_aftertouch_c, 0, 80, 0
1, 120597, Note_off_c, 0, 71, 59
1, 120601, Note_on_c, 0, 70, 74
1, 120604, Note_off_c, 0, 74, 66
1, 120620, Control_c, 0, 64, 108
1, 120635, Control_c, 0, 64, 84
1, 120637, Note_on_c, 0, 86, 72
1, 120650, Control_c, 0, 64, 60
1, 120651, Note_off_c, 0, 70, 61
1, 120652, Note_off_c, 0, 86, 67
1, 120665, Control_c, 0, 64, 0
1, 120672, Note_on_c, 0, 71, 70
1, 120694, Control_c, 0, 64, 65
1, 120704, Note_on_c, 0, 89, 98
1, 120709, Note_on_c, 0, 77, 92
1, 120709, Control_c, 0, 64, 79
1, 120722, Note_on_c, 0, 70, 78
1, 120724, Control_c, 0, 64, 94
1, 120726, Note_off_c, 0, 71, 62
1, 120733, Note_off_c, 0, 89, 62
1, 120738, Note_on_c, 0, 88, 45
1, 120739, Note_off_c, 0, 88, 127
1, 120739, Control_c, 0, 64, 109
1, 120743, Note_off_c, 0, 70, 72
1, 120746, Note_off_c, 0, 77, 60
1, 120754, Control_c, 0, 64, 115
1, 120768, Control_c, 0, 64, 116
1, 120783, Control_c, 0, 64, 116
1, 120789, Note_on_c, 0, 82, 86
1, 120791, Note_on_c, 0, 78, 81
1, 120798, Control_c, 0, 64, 118
1, 120813, Control_c, 0, 64, 122
1, 120813, Note_off_c, 0, 78, 66
1, 120827, Note_off_c, 0, 82, 59
1, 120827, Control_c, 0, 64, 127
1, 120868, Note_on_c, 0, 75, 86
1, 120904, Note_off_c, 0, 75, 67
1, 120917, Control_c, 0, 64, 116
1, 120932, Control_c, 0, 64, 85
1, 120935, Note_on_c, 0, 87, 83
1, 120947, Control_c, 0, 64, 0
1, 120955, Note_off_c, 0, 87, 64
1, 120976, Control_c, 0, 64, 10
1, 120991, Control_c, 0, 64, 71
1, 121004, Note_on_c, 0, 34, 90
1, 121004, Note_on_c, 0, 46, 95
1, 121005, Control_c, 0, 64, 90
1, 121014, Note_on_c, 0, 97, 102
1, 121016, Note_on_c, 0, 85, 101
1, 121020, Control_c, 0, 64, 127
1, 121033, Note_off_c, 0, 34, 68
1, 121046, Note_off_c, 0, 46, 60
1, 121064, Note_off_c, 0, 85, 58
1, 121093, Note_on_c, 0, 90, 92
1, 121109, Note_off_c, 0, 97, 59
1, 121109, Control_c, 0, 64, 114
1, 121124, Control_c, 0, 64, 99
1, 121139, Control_c, 0, 64, 83
1, 121153, Control_c, 0, 64, 66
1, 121157, Note_on_c, 0, 85, 87
1, 121160, Note_off_c, 0, 90, 59
1, 121168, Control_c, 0, 64, 0
1, 121169, Note_on_c, 0, 42, 69
1, 121192, Note_off_c, 0, 42, 62
1, 121218, Note_off_c, 0, 85, 66
1, 121243, Note_on_c, 0, 97, 89
1, 121272, Note_off_c, 0, 97, 59
1, 121314, Note_on_c, 0, 47, 96
1, 121316, Note_on_c, 0, 35, 88
1, 121322, Note_on_c, 0, 88, 94
1, 121322, Note_on_c, 0, 100, 99
1, 121325, Control_c, 0, 64, 74
1, 121340, Control_c, 0, 64, 110
1, 121345, Note_on_c, 0, 99, 54
1, 121346, Note_off_c, 0, 35, 69
1, 121349, Note_off_c, 0, 47, 62
1, 121355, Note_off_c, 0, 100, 65
1, 121355, Control_c, 0, 64, 127
1, 121360, Note_off_c, 0, 88, 63
1, 121369, Note_off_c, 0, 99, 37
1, 121409, Note_on_c, 0, 90, 87
1, 121424, Note_on_c, 0, 94, 59
1, 121425, Poly_aftertouch_c, 0, 37, 0
1, 121427, Note_off_c, 0, 90, 69
1, 121445, Note_off_c, 0, 94, 65
1, 121475, Note_on_c, 0, 87, 97
1, 121482, Note_on_c, 0, 54, 81
1, 121485, Note_on_c, 0, 42, 79
1, 121508, Note_off_c, 0, 54, 66
1, 121517, Control_c, 0, 64, 119
1, 121520, Note_off_c, 0, 42, 63
1, 121530, Note_off_c, 0, 87, 65
1, 121532, Control_c, 0, 64, 91
1, 121547, Control_c, 0, 64, 67
1, 121559, Note_on_c, 0, 99, 82
1, 121562, Control_c, 0, 64, 0
1, 121572, Note_off_c, 0, 99, 73
1, 121632, Note_on_c, 0, 49, 92
1, 121632, Note_on_c, 0, 93, 101
1, 121634, Note_on_c, 0, 37, 88
1, 121635, Note_on_c, 0, 81, 98
1, 121635, Control_c, 0, 64, 68
1, 121650, Control_c, 0, 64, 87
1, 121656, Note_on_c, 0, 92, 49
1, 121657, Note_off_c, 0, 92, 127
1, 121662, Note_off_c, 0, 49, 60
1, 121665, Note_off_c, 0, 37, 66
1, 121665, Control_c, 0, 64, 107
1, 121673, Note_off_c, 0, 81, 55
1, 121680, Control_c, 0, 64, 118
1, 121686, Note_off_c, 0, 93, 52
1, 121695, Control_c, 0, 64, 119
1, 121709, Note_on_c, 0, 90, 63
1, 121710, Control_c, 0, 64, 120
1, 121712, Note_on_c, 0, 88, 74
1, 121725, Control_c, 0, 64, 120
1, 121740, Control_c, 0, 64, 121
1, 121755, Control_c, 0, 64, 122
1, 121758, Note_off_c, 0, 88, 61
1, 121760, Note_off_c, 0, 90, 63
1, 121769, Control_c, 0, 64, 124
1, 121784, Control_c, 0, 64, 127
1, 121793, Note_on_c, 0, 82, 95
1, 121805, Note_on_c, 0, 42, 82
1, 121808, Note_on_c, 0, 54, 71
1, 121832, Note_off_c, 0, 54, 63
1, 121843, Note_off_c, 0, 82, 63
1, 121856, Note_off_c, 0, 42, 59
1, 121869, Note_on_c, 0, 94, 96
1, 121873, Control_c, 0, 64, 113
1, 121888, Control_c, 0, 64, 87
1, 121903, Control_c, 0, 64, 21
1, 121907, Note_off_c, 0, 94, 66
1, 121917, Control_c, 0, 64, 0
1, 121951, Note_on_c, 0, 97, 106
1, 121960, Note_on_c, 0, 39, 89
1, 121962, Note_on_c, 0, 85, 96
1, 121963, Note_on_c, 0, 51, 89
1, 121969, Control_c, 0, 64, 65
1, 121985, Control_c, 0, 64, 79
1, 121996, Note_off_c, 0, 85, 65
1, 121999, Note_off_c, 0, 97, 66
1, 122000, Control_c, 0, 64, 96
1, 122011, Note_off_c, 0, 51, 55
1, 122014, Control_c, 0, 64, 106
1, 122023, Note_off_c, 0, 39, 60
1, 122029, Control_c, 0, 64, 107
1, 122042, Note_on_c, 0, 90, 93
1, 122044, Control_c, 0, 64, 108
1, 122045, Note_on_c, 0, 87, 92
1, 122059, Control_c, 0, 64, 108
1, 122073, Control_c, 0, 64, 109
1, 122088, Control_c, 0, 64, 109
1, 122089, Note_off_c, 0, 87, 63
1, 122091, Note_off_c, 0, 90, 60
1, 122103, Control_c, 0, 64, 110
1, 122114, Note_on_c, 0, 83, 89
1, 122118, Control_c, 0, 64, 112
1, 122133, Note_on_c, 0, 54, 79
1, 122133, Control_c, 0, 64, 118
1, 122136, Note_on_c, 0, 42, 71
1, 122148, Control_c, 0, 64, 127
1, 122157, Note_off_c, 0, 83, 63
1, 122173, Note_off_c, 0, 54, 55
1, 122187, Note_off_c, 0, 42, 61
1, 122196, Note_on_c, 0, 95, 71
1, 122200, Note_on_c, 0, 96, 72
1, 122212, Note_off_c, 0, 95, 66
1, 122214, Note_off_c, 0, 96, 66
1, 122222, Control_c, 0, 64, 125
1, 122237, Control_c, 0, 64, 90
1, 122252, Control_c, 0, 64, 63
1, 122258, Note_on_c, 0, 96, 105
1, 122260, Note_on_c, 0, 91, 99
1, 122261, Note_on_c, 0, 40, 83
1, 122261, Note_on_c, 0, 52, 88
1, 122266, Control_c, 0, 64, 0
1, 122298, Note_off_c, 0, 91, 60
1, 122300, Note_off_c, 0, 96, 61
1, 122303, Note_off_c, 0, 40, 62
1, 122311, Control_c, 0, 64, 45
1, 122326, Control_c, 0, 64, 72
1, 122329, Note_off_c, 0, 52, 62
1, 122337, Note_on_c, 0, 94, 87
1, 122339, Note_on_c, 0, 85, 81
1, 122340, Control_c, 0, 64, 84
1, 122355, Control_c, 0, 64, 96
1, 122370, Control_c, 0, 64, 99
1, 122378, Note_off_c, 0, 85, 59
1, 122384, Control_c, 0, 64, 100
1, 122388, Poly_aftertouch_c, 0, 41, 0
1, 122399, Control_c, 0, 64, 100
1, 122402, Note_on_c, 0, 91, 62
1, 122407, Note_on_c, 0, 96, 53
1, 122413, Note_on_c, 0, 46, 67
1, 122414, Control_c, 0, 64, 101
1, 122417, Note_off_c, 0, 94, 68
1, 122419, Note_on_c, 0, 55, 72
1, 122429, Control_c, 0, 64, 102
1, 122444, Control_c, 0, 64, 106
1, 122446, Note_off_c, 0, 46, 63
1, 122457, Note_off_c, 0, 55, 63
1, 122458, Control_c, 0, 64, 114
1, 122473, Control_c, 0, 64, 127
1, 122490, Note_off_c, 0, 96, 64
1, 122491, Note_on_c, 0, 85, 78
1, 122494, Note_on_c, 0, 94, 76
1, 122503, Note_off_c, 0, 91, 60
1, 122510, Note_off_c, 0, 85, 72
1, 122514, Note_off_c, 0, 94, 72
1, 122518, Control_c, 0, 64, 110
1, 122533, Control_c, 0, 64, 86
1, 122547, Control_c, 0, 64, 58
1, 122559, Note_on_c, 0, 93, 102
1, 122561, Note_on_c, 0, 58, 74
1, 122561, Note_on_c, 0, 88, 91
1, 122562, Control_c, 0, 64, 0
1, 122563, Note_on_c, 0, 49, 69
1, 122606, Control_c, 0, 64, 65
1, 122610, Note_off_c, 0, 88, 61
1, 122621, Control_c, 0, 64, 77
1, 122636, Control_c, 0, 64, 90
1, 122641, Note_on_c, 0, 91, 87
1, 122647, Note_on_c, 0, 82, 80
1, 122651, Control_c, 0, 64, 97
1, 122657, Note_off_c, 0, 93, 61
1, 122661, Note_on_c, 0, 92, 14
1, 122665, Control_c, 0, 64, 98
1, 122673, Note_off_c, 0, 82, 61
1, 122680, Control_c, 0, 64, 99
1, 122690, Note_off_c, 0, 49, 54
1, 122690, Note_off_c, 0, 58, 61
1, 122695, Control_c, 0, 64, 100
1, 122697, Note_off_c, 0, 92, 46
1, 122717, Control_c, 0, 64, 102
1, 122730, Note_on_c, 0, 88, 83
1, 122732, Note_on_c, 0, 61, 72
1, 122732, Note_on_c, 0, 93, 83
1, 122732, Control_c, 0, 64, 105
1, 122738, Note_on_c, 0, 52, 55
1, 122747, Control_c, 0, 64, 114
1, 122748, Note_off_c, 0, 91, 57
1, 122762, Control_c, 0, 64, 127
1, 122770, Note_off_c, 0, 52, 66
1, 122792, Note_off_c, 0, 61, 61
1, 122799, Note_on_c, 0, 82, 77
1, 122802, Note_off_c, 0, 93, 62
1, 122803, Note_off_c, 0, 88, 63
1, 122837, Control_c, 0, 64, 100
1, 122842, Note_off_c, 0, 82, 64
1, 122852, Control_c, 0, 64, 76
1, 122866, Control_c, 0, 64, 0
1, 122870, Note_on_c, 0, 90, 100
1, 122878, Note_on_c, 0, 55, 62
1, 122878, Note_on_c, 0, 85, 85
1, 122884, Note_on_c, 0, 64, 68
1, 122896, Control_c, 0, 64, 50
1, 122911, Control_c, 0, 64, 72
1, 122926, Control_c, 0, 64, 84
1, 122930, Note_off_c, 0, 55, 0
1, 122930, Note_on_c, 0, 55, 7
1, 122931, Note_off_c, 0, 85, 64
1, 122941, Control_c, 0, 64, 96
1, 122955, Control_c, 0, 64, 100
1, 122958, Note_on_c, 0, 79, 81
1, 122958, Note_on_c, 0, 88, 83
1, 122965, Note_off_c, 0, 90, 59
1, 122970, Control_c, 0, 64, 101
1, 122985, Control_c, 0, 64, 101
1, 122995, Note_off_c, 0, 55, 38
1, 123000, Control_c, 0, 64, 103
1, 123014, Control_c, 0, 64, 107
1, 123015, Note_off_c, 0, 79, 58
1, 123029, Control_c, 0, 64, 115
1, 123032, Note_off_c, 0, 64, 60
1, 123036, Note_on_c, 0, 85, 84
1, 123043, Note_on_c, 0, 90, 80
1, 123044, Control_c, 0, 64, 127
1, 123056, Note_on_c, 0, 58, 50
1, 123063, Note_off_c, 0, 88, 58
1, 123066, Note_on_c, 0, 67, 65
1, 123079, Note_off_c, 0, 58, 62
1, 123103, Control_c, 0, 64, 113
1, 123105, Note_off_c, 0, 67, 58
1, 123105, Note_off_c, 0, 85, 63
1, 123111, Note_off_c, 0, 90, 61
1, 123118, Control_c, 0, 64, 92
1, 123119, Note_on_c, 0, 79, 67
1, 123133, Control_c, 0, 64, 71
1, 123134, Note_off_c, 0, 79, 66
1, 123148, Control_c, 0, 64, 0
1, 123162, Control_c, 0, 64, 58
1, 123177, Control_c, 0, 64, 72
1, 123178, Note_on_c, 0, 87, 90
1, 123183, Note_on_c, 0, 79, 85
1, 123188, Note_on_c, 0, 61, 66
1, 123189, Note_on_c, 0, 70, 68
1, 123192, Control_c, 0, 64, 85
1, 123206, Control_c, 0, 64, 101
1, 123221, Control_c, 0, 64, 107
1, 123227, Note_off_c, 0, 79, 58
1, 123260, Note_on_c, 0, 85, 78
1, 123272, Note_on_c, 0, 76, 69
1, 123278, Note_off_c, 0, 87, 62
1, 123292, Note_off_c, 0, 70, 0
1, 123299, Note_off_c, 0, 61, 59
1, 123308, Note_off_c, 0, 76, 60
1, 123329, Poly_aftertouch_c, 0, 70, 127
1, 123343, Note_on_c, 0, 79, 75
1, 123343, Note_off_c, 0, 85, 65
1, 123352, Note_on_c, 0, 87, 66
1, 123375, Note_on_c, 0, 73, 67
1, 123382, Poly_aftertouch_c, 0, 70, 0
1, 123384, Note_on_c, 0, 64, 46
1, 123400, Control_c, 0, 64, 106
1, 123414, Control_c, 0, 64, 101
1, 123415, Note_off_c, 0, 64, 58
1, 123419, Note_off_c, 0, 87, 63
1, 123426, Note_off_c, 0, 79, 63
1, 123429, Control_c, 0, 64, 89
1, 123432, Note_on_c, 0, 76, 49
1, 123436, Note_off_c, 0, 73, 62
1, 123444, Control_c, 0, 64, 75
1, 123461, Note_off_c, 0, 76, 57
1, 123466, Control_c, 0, 64, 45
1, 123481, Control_c, 0, 64, 0
1, 123504, Note_on_c, 0, 79, 78
1, 123505, Note_on_c, 0, 84, 85
1, 123524, Note_on_c, 0, 76, 69
1, 123542, Note_off_c, 0, 79, 58
1, 123557, Note_off_c, 0, 76, 59
1, 123570, Note_off_c, 0, 84, 63
1, 123579, Note_on_c, 0, 81, 74
1, 123618, Note_on_c, 0, 73, 51
1, 123636, Note_off_c, 0, 81, 62
1, 123640, Note_off_c, 0, 73, 59
1, 123668, Note_on_c, 0, 79, 67
1, 123674, Note_on_c, 0, 84, 68
1, 123678, Note_on_c, 0, 64, 60
1, 123701, Note_off_c, 0, 64, 64
1, 123735, Note_off_c, 0, 84, 63
1, 123747, Note_off_c, 0, 79, 62
1, 123752, Note_on_c, 0, 82, 68
1, 123760, Note_on_c, 0, 73, 60
1, 123774, Note_off_c, 0, 82, 67
1, 123790, Note_off_c, 0, 73, 66
1, 123832, Note_on_c, 0, 81, 81
1, 123841, Note_on_c, 0, 76, 74
1, 123842, Note_on_c, 0, 73, 65
1, 123861, Note_off_c, 0, 73, 41
1, 123913, Note_off_c, 0, 81, 61
1, 123919, Note_on_c, 0, 78, 74
1, 123920, Note_off_c, 0, 76, 65
1, 123932, Note_on_c, 0, 70, 55
1, 123975, Note_off_c, 0, 70, 52
1, 124005, Note_on_c, 0, 81, 70
1, 124006, Note_on_c, 0, 61, 56
1, 124012, Note_off_c, 0, 78, 63
1, 124017, Note_on_c, 0, 76, 68
1, 124033, Note_off_c, 0, 61, 55
1, 124068, Note_off_c, 0, 76, 64
1, 124078, Note_off_c, 0, 81, 59
1, 124090, Note_on_c, 0, 70, 68
1, 124094, Note_on_c, 0, 79, 56
1, 124112, Note_off_c, 0, 79, 61
1, 124133, Note_off_c, 0, 70, 65
1, 124196, Note_on_c, 0, 73, 56
1, 124196, Note_on_c, 0, 77, 65
1, 124211, Note_on_c, 0, 70, 23
1, 124256, Note_off_c, 0, 70, 50
1, 124256, Note_off_c, 0, 73, 49
1, 124280, Note_on_c, 0, 67, 67
1, 124284, Note_off_c, 0, 77, 59
1, 124289, Note_on_c, 0, 75, 67
1, 124336, Note_off_c, 0, 67, 59
1, 124362, Note_on_c, 0, 58, 33
1, 124365, Note_on_c, 0, 77, 56
1, 124370, Note_off_c, 0, 75, 64
1, 124378, Note_on_c, 0, 73, 60
1, 124398, Note_off_c, 0, 58, 57
1, 124424, Control_c, 0, 64, 49
1, 124427, Note_off_c, 0, 73, 58
1, 124439, Control_c, 0, 64, 63
1, 124453, Control_c, 0, 64, 66
1, 124455, Note_on_c, 0, 76, 66
1, 124464, Note_on_c, 0, 67, 52
1, 124468, Control_c, 0, 64, 67
1, 124482, Note_off_c, 0, 77, 51
1, 124483, Control_c, 0, 64, 70
1, 124498, Control_c, 0, 64, 74
1, 124513, Control_c, 0, 64, 77
1, 124527, Control_c, 0, 64, 79
1, 124542, Control_c, 0, 64, 80
1, 124595, Note_off_c, 0, 67, 36
1, 124596, Note_on_c, 0, 53, 49
1, 124646, Control_c, 0, 64, 76
1, 124658, Note_off_c, 0, 76, 58
1, 124661, Control_c, 0, 64, 67
1, 124665, Note_on_c, 0, 74, 53
1, 124676, Control_c, 0, 64, 0
1, 124681, Note_on_c, 0, 79, 65
1, 124687, Note_on_c, 0, 70, 23
1, 124721, Note_off_c, 0, 70, 46
1, 124735, Control_c, 0, 64, 63
1, 124750, Control_c, 0, 64, 70
1, 124765, Control_c, 0, 64, 74
1, 124779, Control_c, 0, 64, 78
1, 124794, Control_c, 0, 64, 79
1, 124809, Control_c, 0, 64, 81
1, 124824, Control_c, 0, 64, 83
1, 124839, Control_c, 0, 64, 84
1, 124847, Note_on_c, 0, 65, 54
1, 124853, Control_c, 0, 64, 85
1, 124857, Note_off_c, 0, 74, 62
1, 124867, Note_off_c, 0, 53, 31
1, 124868, Control_c, 0, 64, 85
1, 124876, Note_off_c, 0, 79, 38
1, 124883, Control_c, 0, 64, 86
1, 124913, Control_c, 0, 64, 86
1, 124944, Note_on_c, 0, 70, 58
1, 124947, Note_off_c, 0, 65, 58
1, 124994, Control_c, 0, 64, 87
1, 125010, Note_off_c, 0, 70, 51
1, 125032, Note_on_c, 0, 77, 72
1, 125053, Control_c, 0, 64, 84
1, 125068, Control_c, 0, 64, 74
1, 125083, Control_c, 0, 64, 55
1, 125098, Control_c, 0, 64, 0
1, 125124, Note_on_c, 0, 74, 64
1, 125129, Note_off_c, 0, 77, 57
1, 125138, Note_on_c, 0, 59, 29
1, 125140, Note_on_c, 0, 53, 33
1, 125141, Note_on_c, 0, 68, 54
1, 125143, Control_c, 0, 64, 52
1, 125158, Control_c, 0, 64, 69
1, 125173, Control_c, 0, 64, 74
1, 125189, Control_c, 0, 64, 79
1, 125196, Note_off_c, 0, 59, 0
1, 125203, Control_c, 0, 64, 81
1, 125218, Control_c, 0, 64, 82
1, 125223, Note_off_c, 0, 74, 64
1, 125233, Poly_aftertouch_c, 0, 59, 127
1, 125233, Control_c, 0, 64, 83
1, 125233, Note_off_c, 0, 68, 64
1, 125242, Note_on_c, 0, 59, 3
1, 125245, Note_on_c, 0, 65, 63
1, 125248, Control_c, 0, 64, 85
1, 125263, Control_c, 0, 64, 88
1, 125278, Control_c, 0, 64, 92
1, 125292, Control_c, 0, 64, 97
1, 125299, Note_off_c, 0, 65, 50
1, 125307, Control_c, 0, 64, 103
1, 125322, Control_c, 0, 64, 105
1, 125324, Note_on_c, 0, 68, 65
1, 125352, Control_c, 0, 64, 104
1, 125353, Note_off_c, 0, 68, 64
1, 125366, Control_c, 0, 64, 96
1, 125381, Control_c, 0, 64, 82
1, 125383, Note_on_c, 0, 75, 74
1, 125396, Control_c, 0, 64, 67
1, 125405, Note_off_c, 0, 53, 44
1, 125410, Control_c, 0, 64, 0
1, 125421, Note_off_c, 0, 59, 46
1, 125424, Note_off_c, 0, 75, 65
1, 125440, Control_c, 0, 64, 18
1, 125441, Note_on_c, 0, 60, 50
1, 125451, Note_on_c, 0, 74, 69
1, 125455, Control_c, 0, 64, 65
1, 125458, Note_on_c, 0, 70, 68
1, 125466, Note_on_c, 0, 64, 57
1, 125470, Control_c, 0, 64, 73
1, 125482, Note_off_c, 0, 60, 62
1, 125484, Control_c, 0, 64, 79
1, 125492, Note_off_c, 0, 64, 61
1, 125499, Control_c, 0, 64, 81
1, 125514, Control_c, 0, 64, 81
1, 125529, Control_c, 0, 64, 82
1, 125544, Control_c, 0, 64, 83
1, 125546, Note_on_c, 0, 67, 72
1, 125558, Control_c, 0, 64, 84
1, 125565, Note_off_c, 0, 74, 56
1, 125570, Note_off_c, 0, 70, 63
1, 125573, Control_c, 0, 64, 85
1, 125588, Control_c, 0, 64, 86
1, 125603, Control_c, 0, 64, 86
1, 125603, Note_off_c, 0, 67, 63
1, 125609, Note_on_c, 0, 64, 72
1, 125618, Control_c, 0, 64, 87
1, 125633, Control_c, 0, 64, 88
1, 125648, Control_c, 0, 64, 88
1, 125656, Note_off_c, 0, 64, 61
1, 125689, Note_on_c, 0, 72, 81
1, 125692, Control_c, 0, 64, 86
1, 125714, Control_c, 0, 64, 78
1, 125729, Control_c, 0, 64, 64
1, 125744, Control_c, 0, 64, 0
1, 125773, Note_on_c, 0, 67, 77
1, 125783, Note_on_c, 0, 40, 50
1, 125785, Note_on_c, 0, 63, 81
1, 125801, Note_off_c, 0, 72, 57
1, 125818, Control_c, 0, 64, 62
1, 125830, Note_off_c, 0, 40, 61
1, 125832, Control_c, 0, 64, 71
1, 125842, Note_off_c, 0, 63, 64
1, 125843, Note_off_c, 0, 67, 54
1, 125847, Control_c, 0, 64, 79
1, 125862, Control_c, 0, 64, 89
1, 125870, Note_on_c, 0, 60, 73
1, 125877, Control_c, 0, 64, 98
1, 125880, Note_on_c, 0, 41, 50
1, 125892, Control_c, 0, 64, 107
1, 125907, Control_c, 0, 64, 117
1, 125922, Control_c, 0, 64, 127
1, 125929, Note_off_c, 0, 41, 63
1, 125956, Note_on_c, 0, 63, 76
1, 125958, Note_on_c, 0, 40, 47
1, 125962, Note_off_c, 0, 60, 60
1, 126009, Note_off_c, 0, 63, 64
1, 126017, Note_off_c, 0, 40, 56
1, 126043, Note_on_c, 0, 69, 73
1, 126048, Note_on_c, 0, 41, 50
1, 126087, Note_off_c, 0, 69, 61
1, 126130, Control_c, 0, 64, 121
1, 126145, Control_c, 0, 64, 96
1, 126151, Note_on_c, 0, 53, 54
1, 126160, Control_c, 0, 64, 72
1, 126175, Control_c, 0, 64, 0
1, 126204, Note_on_c, 0, 79, 84
1, 126217, Note_on_c, 0, 74, 54
1, 126223, Note_on_c, 0, 70, 52
1, 126233, Control_c, 0, 64, 59
1, 126235, Note_off_c, 0, 41, 59
1, 126248, Control_c, 0, 64, 71
1, 126250, Note_off_c, 0, 70, 52
1, 126263, Control_c, 0, 64, 79
1, 126278, Control_c, 0, 64, 83
1, 126293, Control_c, 0, 64, 84
1, 126307, Control_c, 0, 64, 86
1, 126315, Note_off_c, 0, 53, 64
1, 126319, Note_off_c, 0, 74, 53
1, 126322, Control_c, 0, 64, 88
1, 126333, Note_off_c, 0, 79, 56
1, 126336, Note_on_c, 0, 65, 55
1, 126337, Control_c, 0, 64, 89
1, 126351, Control_c, 0, 64, 90
1, 126366, Control_c, 0, 64, 90
1, 126381, Control_c, 0, 64, 91
1, 126396, Control_c, 0, 64, 93
1, 126411, Control_c, 0, 64, 96
1, 126417, Note_off_c, 0, 65, 60
1, 126418, Note_on_c, 0, 70, 64
1, 126426, Control_c, 0, 64, 100
1, 126441, Control_c, 0, 64, 103
1, 126478, Control_c, 0, 64, 102
1, 126485, Note_off_c, 0, 70, 60
1, 126489, Note_on_c, 0, 77, 80
1, 126493, Control_c, 0, 64, 92
1, 126507, Control_c, 0, 64, 70
1, 126522, Control_c, 0, 64, 0
1, 126552, Note_on_c, 0, 74, 75
1, 126563, Note_on_c, 0, 59, 48
1, 126567, Note_on_c, 0, 68, 74
1, 126573, Note_off_c, 0, 77, 61
1, 126576, Note_on_c, 0, 53, 35
1, 126596, Control_c, 0, 64, 62
1, 126611, Control_c, 0, 64, 73
1, 126625, Control_c, 0, 64, 81
1, 126632, Note_off_c, 0, 74, 64
1, 126640, Control_c, 0, 64, 85
1, 126652, Note_off_c, 0, 68, 63
1, 126655, Control_c, 0, 64, 86
1, 126664, Note_on_c, 0, 65, 66
1, 126670, Control_c, 0, 64, 87
1, 126685, Control_c, 0, 64, 91
1, 126700, Control_c, 0, 64, 96
1, 126715, Control_c, 0, 64, 103
1, 126724, Note_off_c, 0, 65, 59
1, 126730, Control_c, 0, 64, 114
1, 126743, Note_on_c, 0, 68, 59
1, 126745, Control_c, 0, 64, 121
1, 126759, Control_c, 0, 64, 120
1, 126768, Note_off_c, 0, 68, 61
1, 126775, Control_c, 0, 64, 117
1, 126790, Control_c, 0, 64, 98
1, 126797, Note_on_c, 0, 75, 71
1, 126804, Control_c, 0, 64, 77
1, 126819, Control_c, 0, 64, 0
1, 126824, Note_off_c, 0, 75, 63
1, 126836, Note_off_c, 0, 59, 51
1, 126846, Note_on_c, 0, 60, 56
1, 126856, Note_on_c, 0, 74, 79
1, 126865, Note_on_c, 0, 64, 68
1, 126866, Note_on_c, 0, 70, 67
1, 126879, Control_c, 0, 64, 52
1, 126886, Note_off_c, 0, 60, 60
1, 126886, Note_off_c, 0, 64, 61
1, 126894, Control_c, 0, 64, 71
1, 126897, Note_off_c, 0, 53, 44
1, 126909, Control_c, 0, 64, 80
1, 126923, Control_c, 0, 64, 86
1, 126944, Note_on_c, 0, 67, 72
1, 126965, Note_off_c, 0, 70, 58
1, 126974, Note_off_c, 0, 74, 61
1, 126996, Note_off_c, 0, 67, 63
1, 126997, Control_c, 0, 64, 87
1, 127028, Note_on_c, 0, 64, 59
1, 127052, Note_off_c, 0, 64, 65
1, 127055, Control_c, 0, 64, 86
1, 127070, Control_c, 0, 64, 81
1, 127085, Control_c, 0, 64, 65
1, 127087, Note_on_c, 0, 72, 81
1, 127100, Control_c, 0, 64, 0
1, 127166, Note_on_c, 0, 67, 65
1, 127173, Note_on_c, 0, 40, 48
1, 127183, Note_on_c, 0, 63, 72
1, 127228, Note_off_c, 0, 40, 61
1, 127240, Note_off_c, 0, 63, 55
1, 127268, Note_on_c, 0, 60, 69
1, 127273, Note_on_c, 0, 41, 47
1, 127285, Control_c, 0, 64, 59
1, 127300, Note_off_c, 0, 67, 58
1, 127300, Control_c, 0, 64, 65
1, 127314, Note_off_c, 0, 60, 52
1, 127315, Note_off_c, 0, 41, 63
1, 127315, Control_c, 0, 64, 69
1, 127316, Note_off_c, 0, 72, 35
1, 127329, Control_c, 0, 64, 73
1, 127344, Control_c, 0, 64, 77
1, 127348, Note_on_c, 0, 40, 52
1, 127350, Note_on_c, 0, 63, 72
1, 127359, Control_c, 0, 64, 80
1, 127374, Control_c, 0, 64, 82
1, 127388, Control_c, 0, 64, 82
1, 127393, Note_off_c, 0, 40, 60
1, 127420, Note_on_c, 0, 69, 72
1, 127430, Note_on_c, 0, 41, 43
1, 127433, Note_off_c, 0, 63, 61
1, 127448, Control_c, 0, 64, 79
1, 127463, Control_c, 0, 64, 67
1, 127478, Control_c, 0, 64, 0
1, 127508, Note_off_c, 0, 69, 65
1, 127511, Note_on_c, 0, 72, 73
1, 127529, Note_on_c, 0, 53, 52
1, 127535, Note_on_c, 0, 62, 40
1, 127582, Control_c, 0, 64, 60
1, 127587, Note_off_c, 0, 62, 44
1, 127588, Note_off_c, 0, 72, 63
1, 127597, Control_c, 0, 64, 67
1, 127604, Note_on_c, 0, 65, 60
1, 127612, Control_c, 0, 64, 70
1, 127625, Note_off_c, 0, 53, 58
1, 127627, Control_c, 0, 64, 72
1, 127642, Control_c, 0, 64, 75
1, 127657, Control_c, 0, 64, 77
1, 127669, Note_off_c, 0, 65, 65
1, 127671, Control_c, 0, 64, 79
1, 127671, Control_c, 0, 67, 9
1, 127677, Note_off_c, 0, 41, 46
1, 127685, Note_on_c, 0, 62, 62
1, 127686, Control_c, 0, 64, 80
1, 127686, Control_c, 0, 67, 11
1, 127701, Control_c, 0, 64, 80
1, 127701, Control_c, 0, 67, 14
1, 127716, Control_c, 0, 67, 18
1, 127731, Control_c, 0, 67, 22
1, 127735, Note_off_c, 0, 62, 57
1, 127745, Control_c, 0, 67, 26
1, 127760, Control_c, 0, 67, 30
1, 127775, Control_c, 0, 67, 32
1, 127784, Note_on_c, 0, 70, 64
1, 127790, Control_c, 0, 67, 32
1, 127805, Control_c, 0, 64, 81
1, 127809, Note_off_c, 0, 70, 60
1, 127820, Control_c, 0, 67, 33
1, 127835, Control_c, 0, 64, 82
1, 127835, Control_c, 0, 67, 33
1, 127850, Control_c, 0, 67, 35
1, 127865, Control_c, 0, 64, 83
1, 127865, Control_c, 0, 67, 37
1, 127879, Control_c, 0, 64, 82
1, 127879, Control_c, 0, 67, 39
1, 127894, Control_c, 0, 64, 80
1, 127894, Control_c, 0, 67, 41
1, 127909, Control_c, 0, 64, 72
1, 127909, Control_c, 0, 67, 43
1, 127914, Note_on_c, 0, 47, 41
1, 127924, Control_c, 0, 64, 0
1, 127924, Control_c, 0, 67, 44
1, 127928, Note_on_c, 0, 67, 69
1, 127931, Note_on_c, 0, 50, 35
1, 127939, Control_c, 0, 67, 44
1, 127940, Note_on_c, 0, 41, 42
1, 127958, Note_on_c, 0, 56, 39
1, 127976, Control_c, 0, 64, 56
1, 127991, Control_c, 0, 64, 68
1, 127998, Note_off_c, 0, 56, 48
1, 128005, Control_c, 0, 64, 73
1, 128005, Control_c, 0, 67, 44
1, 128020, Control_c, 0, 64, 78
1, 128020, Control_c, 0, 67, 43
1, 128035, Control_c, 0, 64, 82
1, 128035, Control_c, 0, 67, 42
1, 128038, Note_on_c, 0, 62, 62
1, 128050, Control_c, 0, 64, 83
1, 128050, Control_c, 0, 67, 42
1, 128065, Control_c, 0, 64, 84
1, 128065, Control_c, 0, 67, 41
1, 128079, Note_off_c, 0, 47, 47
1, 128079, Control_c, 0, 64, 86
1, 128079, Control_c, 0, 67, 40
1, 128094, Control_c, 0, 64, 87
1, 128094, Control_c, 0, 67, 38
1, 128101, Note_off_c, 0, 41, 41
1, 128103, Note_off_c, 0, 62, 62
1, 128106, Note_off_c, 0, 67, 52
1, 128109, Note_on_c, 0, 56, 57
1, 128109, Control_c, 0, 64, 89
1, 128109, Control_c, 0, 67, 37
1, 128124, Control_c, 0, 64, 91
1, 128124, Control_c, 0, 67, 37
1, 128138, Control_c, 0, 64, 92
1, 128149, Note_off_c, 0, 56, 62
1, 128183, Control_c, 0, 64, 91
1, 128194, Note_on_c, 0, 65, 76
1, 128198, Control_c, 0, 64, 84
1, 128212, Control_c, 0, 64, 70
1, 128212, Control_c, 0, 67, 36
1, 128218, Note_off_c, 0, 65, 71
1, 128227, Control_c, 0, 64, 0
1, 128227, Control_c, 0, 67, 35
1, 128242, Note_on_c, 0, 48, 46
1, 128244, Note_off_c, 0, 50, 42
1, 128252, Note_on_c, 0, 51, 48
1, 128272, Control_c, 0, 64, 58
1, 128272, Control_c, 0, 67, 36
1, 128275, Note_on_c, 0, 55, 65
1, 128279, Note_on_c, 0, 65, 74
1, 128286, Control_c, 0, 64, 68
1, 128286, Control_c, 0, 67, 37
1, 128291, Note_off_c, 0, 51, 62
1, 128301, Control_c, 0, 64, 73
1, 128301, Control_c, 0, 67, 37
1, 128303, Note_off_c, 0, 48, 64
1, 128309, Note_off_c, 0, 55, 63
1, 128316, Note_off_c, 0, 65, 55
1, 128316, Control_c, 0, 64, 79
1, 128330, Control_c, 0, 64, 81
1, 128345, Control_c, 0, 64, 82
1, 128357, Note_on_c, 0, 60, 74
1, 128360, Control_c, 0, 64, 82
1, 128376, Control_c, 0, 64, 83
1, 128391, Control_c, 0, 64, 84
1, 128406, Control_c, 0, 64, 85
1, 128420, Control_c, 0, 67, 38
1, 128435, Note_off_c, 0, 60, 60
1, 128435, Control_c, 0, 64, 86
1, 128435, Control_c, 0, 67, 38
1, 128441, Note_on_c, 0, 55, 64
1, 128450, Control_c, 0, 67, 39
1, 128465, Control_c, 0, 67, 40
1, 128474, Note_off_c, 0, 55, 65
1, 128480, Control_c, 0, 64, 85
1, 128494, Control_c, 0, 64, 81
1, 128495, Note_on_c, 0, 63, 83
1, 128509, Control_c, 0, 64, 67
1, 128518, Note_off_c, 0, 63, 71
1, 128524, Control_c, 0, 64, 0
1, 128554, Control_c, 0, 67, 40
1, 128568, Note_on_c, 0, 42, 64
1, 128569, Control_c, 0, 67, 41
1, 128573, Note_on_c, 0, 60, 88
1, 128584, Control_c, 0, 67, 42
1, 128592, Note_on_c, 0, 51, 58
1, 128622, Note_off_c, 0, 42, 58
1, 128622, Note_off_c, 0, 51, 51
1, 128643, Control_c, 0, 67, 42
1, 128649, Note_on_c, 0, 57, 59
1, 128660, Note_on_c, 0, 41, 67
1, 128672, Note_off_c, 0, 60, 61
1, 128673, Control_c, 0, 67, 42
1, 128688, Control_c, 0, 67, 43
1, 128709, Control_c, 0, 67, 43
1, 128713, Note_off_c, 0, 41, 65
1, 128717, Note_off_c, 0, 57, 62
1, 128724, Control_c, 0, 67, 44
1, 128738, Note_on_c, 0, 42, 57
1, 128742, Note_on_c, 0, 51, 67
1, 128769, Control_c, 0, 67, 43
1, 128784, Note_off_c, 0, 51, 64
1, 128784, Control_c, 0, 67, 43
1, 128786, Note_off_c, 0, 42, 62
1, 128808, Note_on_c, 0, 62, 76
1, 128813, Control_c, 0, 67, 42
1, 128818, Note_on_c, 0, 41, 53
1, 128857, Note_off_c, 0, 41, 65
1, 128858, Control_c, 0, 67, 43
1, 128873, Control_c, 0, 67, 44
1, 128883, Note_on_c, 0, 34, 60
1, 128888, Control_c, 0, 64, 61
1, 128888, Control_c, 0, 67, 45
1, 128888, Note_on_c, 0, 50, 73
1, 128889, Note_on_c, 0, 58, 82
1, 128889, Note_off_c, 0, 62, 39
1, 128902, Control_c, 0, 64, 78
1, 128902, Control_c, 0, 67, 45
1, 128908, Note_off_c, 0, 50, 65
1, 128916, Note_off_c, 0, 34, 64
1, 128917, Control_c, 0, 64, 93
1, 128932, Control_c, 0, 64, 113
1, 128932, Control_c, 0, 67, 44
1, 128942, Note_off_c, 0, 58, 65
1, 128947, Control_c, 0, 64, 119
1, 128961, Control_c, 0, 67, 45
1, 128976, Control_c, 0, 67, 46
1, 128991, Control_c, 0, 67, 50
1, 129006, Control_c, 0, 64, 117
1, 129006, Control_c, 0, 67, 55
1, 129021, Control_c, 0, 64, 112
1, 129021, Control_c, 0, 67, 60
1, 129035, Control_c, 0, 64, 105
1, 129035, Control_c, 0, 67, 66
1, 129050, Control_c, 0, 64, 98
1, 129050, Control_c, 0, 67, 72
1, 129065, Control_c, 0, 64, 91
1, 129065, Control_c, 0, 67, 79
1, 129080, Control_c, 0, 64, 82
1, 129080, Control_c, 0, 67, 85
1, 129095, Control_c, 0, 64, 76
1, 129095, Control_c, 0, 67, 89
1, 129109, Control_c, 0, 64, 70
1, 129109, Control_c, 0, 67, 91
1, 129124, Control_c, 0, 64, 64
1, 129139, Control_c, 0, 64, 56
1, 129153, Control_c, 0, 64, 46
1, 129169, Control_c, 0, 64, 33
1, 129169, Control_c, 0, 67, 91
1, 129184, Control_c, 0, 64, 0
1, 129199, Control_c, 0, 67, 92
1, 129214, Control_c, 0, 67, 93
1, 129229, Control_c, 0, 67, 96
1, 129244, Control_c, 0, 67, 99
1, 129258, Control_c, 0, 67, 102
1, 129273, Control_c, 0, 67, 104
1, 129288, Control_c, 0, 67, 106
1, 129296, Note_on_c, 0, 74, 61
1, 129303, Control_c, 0, 67, 108
1, 129304, Note_on_c, 0, 62, 47
1, 129305, Note_on_c, 0, 65, 48
1, 129317, Control_c, 0, 67, 111
1, 129331, Note_on_c, 0, 50, 44
1, 129332, Control_c, 0, 67, 114
1, 129340, Note_on_c, 0, 58, 32
1, 129347, Control_c, 0, 67, 117
1, 129353, Note_on_c, 0, 53, 22
1, 129355, Note_off_c, 0, 62, 40
1, 129362, Control_c, 0, 67, 120
1, 129367, Note_off_c, 0, 65, 58
1, 129377, Control_c, 0, 67, 123
1, 129380, Note_off_c, 0, 58, 48
1, 129383, Note_off_c, 0, 74, 61
1, 129388, Note_off_c, 0, 50, 57
1, 129392, Control_c, 0, 67, 127
1, 129398, Note_off_c, 0, 53, 47
1, 129407, Control_c, 0, 67, 127
1, 129556, Note_on_c, 0, 72, 61
1, 129574, Note_on_c, 0, 65, 48
1, 129576, Note_on_c, 0, 62, 42
1, 129596, Note_on_c, 0, 50, 28
1, 129596, Note_on_c, 0, 58, 30
1, 129604, Note_on_c, 0, 53, 18
1, 129626, Note_off_c, 0, 62, 49
1, 129629, Note_off_c, 0, 65, 58
1, 129631, Note_off_c, 0, 58, 52
1, 129639, Note_off_c, 0, 72, 58
1, 129645, Note_off_c, 0, 50, 49
1, 129651, Note_off_c, 0, 53, 49
1, 129749, Note_on_c, 0, 71, 64
1, 129758, Note_on_c, 0, 62, 42
1, 129762, Note_on_c, 0, 58, 35
1, 129764, Note_on_c, 0, 50, 48
1, 129766, Note_on_c, 0, 65, 40
1, 129772, Note_on_c, 0, 53, 41
1, 129806, Note_off_c, 0, 65, 49
1, 129807, Note_off_c, 0, 58, 47
1, 129813, Note_off_c, 0, 62, 43
1, 129821, Note_off_c, 0, 53, 58
1, 129824, Note_off_c, 0, 71, 57
1, 129827, Note_off_c, 0, 50, 57
1, 129913, Note_on_c, 0, 70, 61
1, 129928, Note_on_c, 0, 58, 42
1, 129939, Note_on_c, 0, 62, 39
1, 129941, Note_on_c, 0, 50, 34
1, 129949, Note_on_c, 0, 53, 33
1, 129950, Note_on_c, 0, 65, 21
1, 129980, Note_off_c, 0, 62, 48
1, 129981, Note_off_c, 0, 58, 45
1, 129986, Note_off_c, 0, 65, 52
1, 129997, Note_off_c, 0, 70, 60
1, 129999, Note_off_c, 0, 53, 45
1, 130000, Note_off_c, 0, 50, 55
1, 130093, Note_on_c, 0, 74, 66
1, 130095, Note_on_c, 0, 58, 43
1, 130104, Note_on_c, 0, 50, 25
1, 130112, Note_on_c, 0, 62, 37
1, 130118, Note_on_c, 0, 65, 24
1, 130128, Note_off_c, 0, 58, 53
1, 130137, Poly_aftertouch_c, 0, 53, 127
1, 130143, Note_off_c, 0, 62, 49
1, 130145, Note_off_c, 0, 74, 59
1, 130147, Note_off_c, 0, 65, 45
1, 130202, Poly_aftertouch_c, 0, 53, 0
1, 130234, Note_off_c, 0, 50, 0
1, 130240, Note_on_c, 0, 58, 48
1, 130270, Note_off_c, 0, 58, 59
1, 130271, Poly_aftertouch_c, 0, 50, 127
1, 130277, Note_on_c, 0, 72, 50
1, 130283, Note_on_c, 0, 62, 26
1, 130306, Note_on_c, 0, 65, 13
1, 130313, Poly_aftertouch_c, 0, 50, 0
1, 130321, Note_off_c, 0, 72, 45
1, 130328, Note_off_c, 0, 62, 47
1, 130347, Note_off_c, 0, 65, 46
1, 130374, Note_on_c, 0, 71, 37
1, 130414, Note_off_c, 0, 71, 50
1, 130453, Note_on_c, 0, 70, 48
1, 130563, Note_off_c, 0, 70, 51
1, 130623, Control_c, 0, 64, 54
1, 130628, Note_on_c, 0, 32, 38
1, 130638, Control_c, 0, 64, 65
1, 130653, Control_c, 0, 64, 69
1, 130661, Note_off_c, 0, 32, 54
1, 130667, Control_c, 0, 64, 73
1, 130682, Control_c, 0, 64, 76
1, 130697, Control_c, 0, 64, 78
1, 130712, Control_c, 0, 64, 80
1, 130726, Control_c, 0, 64, 80
1, 130741, Control_c, 0, 64, 81
1, 130756, Control_c, 0, 64, 81
1, 130787, Control_c, 0, 64, 82
1, 130861, Control_c, 0, 64, 81
1, 130876, Control_c, 0, 64, 80
1, 130891, Control_c, 0, 64, 78
1, 130897, Note_on_c, 0, 77, 68
1, 130905, Control_c, 0, 64, 73
1, 130920, Control_c, 0, 64, 67
1, 130923, Note_on_c, 0, 65, 39
1, 130923, Note_on_c, 0, 70, 42
1, 130935, Control_c, 0, 64, 59
1, 130936, Note_on_c, 0, 53, 37
1, 130937, Note_on_c, 0, 62, 43
1, 130948, Note_on_c, 0, 58, 32
1, 130957, Control_c, 0, 64, 47
1, 130963, Note_off_c, 0, 70, 53
1, 130970, Note_off_c, 0, 65, 50
1, 130972, Control_c, 0, 64, 41
1, 130975, Note_off_c, 0, 62, 54
1, 130975, Note_off_c, 0, 77, 58
1, 130978, Note_off_c, 0, 58, 55
1, 130984, Note_off_c, 0, 53, 49
1, 130986, Control_c, 0, 64, 35
1, 131001, Control_c, 0, 64, 23
1, 131016, Control_c, 0, 64, 0
1, 131082, Note_on_c, 0, 76, 73
1, 131084, Note_on_c, 0, 58, 42
1, 131089, Note_on_c, 0, 62, 41
1, 131089, Note_on_c, 0, 65, 55
1, 131092, Note_on_c, 0, 53, 48
1, 131101, Note_on_c, 0, 70, 45
1, 131130, Note_off_c, 0, 65, 62
1, 131131, Note_off_c, 0, 70, 56
1, 131132, Note_off_c, 0, 62, 48
1, 131135, Note_off_c, 0, 53, 61
1, 131136, Note_off_c, 0, 58, 60
1, 131165, Note_off_c, 0, 76, 64
1, 131237, Note_on_c, 0, 75, 75
1, 131239, Note_on_c, 0, 53, 52
1, 131243, Note_on_c, 0, 62, 48
1, 131251, Note_on_c, 0, 58, 50
1, 131251, Note_on_c, 0, 70, 49
1, 131255, Note_on_c, 0, 65, 50
1, 131286, Note_off_c, 0, 70, 63
1, 131287, Note_off_c, 0, 65, 57
1, 131289, Note_off_c, 0, 53, 59
1, 131292, Note_off_c, 0, 62, 58
1, 131295, Note_off_c, 0, 58, 61
1, 131305, Note_off_c, 0, 75, 61
1, 131382, Note_on_c, 0, 74, 70
1, 131391, Note_on_c, 0, 70, 64
1, 131396, Note_on_c, 0, 53, 47
1, 131401, Note_on_c, 0, 58, 45
1, 131401, Note_on_c, 0, 65, 45
1, 131404, Note_on_c, 0, 62, 44
1, 131431, Note_off_c, 0, 65, 57
1, 131434, Note_off_c, 0, 58, 55
1, 131439, Note_off_c, 0, 53, 59
1, 131442, Note_off_c, 0, 70, 56
1, 131445, Note_off_c, 0, 62, 47
1, 131452, Note_off_c, 0, 74, 62
1, 131541, Note_on_c, 0, 77, 72
1, 131549, Note_on_c, 0, 58, 38
1, 131556, Note_on_c, 0, 70, 61
1, 131559, Note_on_c, 0, 53, 29
1, 131564, Note_on_c, 0, 62, 35
1, 131571, Note_on_c, 0, 65, 34
1, 131590, Note_off_c, 0, 70, 63
1, 131592, Note_off_c, 0, 58, 49
1, 131592, Note_off_c, 0, 77, 58
1, 131594, Note_off_c, 0, 53, 52
1, 131596, Note_off_c, 0, 62, 52
1, 131599, Note_off_c, 0, 65, 55
1, 131692, Note_on_c, 0, 62, 38
1, 131707, Note_on_c, 0, 58, 46
1, 131708, Note_on_c, 0, 65, 53
1, 131712, Note_on_c, 0, 76, 57
1, 131719, Note_on_c, 0, 53, 18
1, 131729, Note_off_c, 0, 65, 61
1, 131729, Note_off_c, 0, 62, 46
1, 131730, Note_off_c, 0, 58, 59
1, 131735, Note_on_c, 0, 70, 40
1, 131758, Note_off_c, 0, 53, 40
1, 131768, Note_off_c, 0, 70, 50
1, 131778, Note_off_c, 0, 76, 47
1, 131800, Note_on_c, 0, 75, 54
1, 131846, Note_off_c, 0, 75, 60
1, 131891, Note_on_c, 0, 74, 58
1, 131958, Note_off_c, 0, 74, 53
1, 132017, Control_c, 0, 64, 32
1, 132032, Control_c, 0, 64, 63
1, 132046, Control_c, 0, 64, 68
1, 132061, Control_c, 0, 64, 72
1, 132067, Note_on_c, 0, 30, 45
1, 132076, Control_c, 0, 64, 78
1, 132091, Control_c, 0, 64, 82
1, 132101, Note_off_c, 0, 30, 51
1, 132106, Control_c, 0, 64, 83
1, 132120, Control_c, 0, 64, 84
1, 132150, Control_c, 0, 64, 84
1, 132268, Control_c, 0, 64, 83
1, 132283, Control_c, 0, 64, 80
1, 132298, Control_c, 0, 64, 74
1, 132307, Note_on_c, 0, 82, 72
1, 132313, Control_c, 0, 64, 65
1, 132320, Note_on_c, 0, 73, 59
1, 132322, Note_on_c, 0, 70, 52
1, 132327, Note_on_c, 0, 61, 52
1, 132328, Control_c, 0, 64, 0
1, 132332, Note_on_c, 0, 54, 43
1, 132335, Note_on_c, 0, 64, 38
1, 132352, Note_off_c, 0, 70, 54
1, 132355, Note_off_c, 0, 73, 62
1, 132363, Note_off_c, 0, 54, 53
1, 132364, Note_off_c, 0, 61, 63
1, 132369, Note_off_c, 0, 64, 52
1, 132382, Note_off_c, 0, 82, 62
1, 132490, Note_on_c, 0, 80, 79
1, 132497, Note_on_c, 0, 54, 42
1, 132503, Note_on_c, 0, 61, 48
1, 132504, Note_on_c, 0, 64, 48
1, 132506, Note_on_c, 0, 70, 55
1, 132534, Note_on_c, 0, 73, 32
1, 132538, Note_off_c, 0, 70, 58
1, 132546, Note_off_c, 0, 61, 59
1, 132546, Note_off_c, 0, 64, 59
1, 132552, Note_off_c, 0, 54, 56
1, 132560, Note_off_c, 0, 73, 50
1, 132584, Note_off_c, 0, 80, 61
1, 132654, Note_on_c, 0, 79, 73
1, 132663, Note_on_c, 0, 70, 51
1, 132670, Note_on_c, 0, 54, 49
1, 132671, Note_on_c, 0, 73, 44
1, 132692, Note_on_c, 0, 61, 30
1, 132697, Note_off_c, 0, 70, 51
1, 132702, Note_off_c, 0, 73, 55
1, 132721, Note_off_c, 0, 54, 56
1, 132731, Note_off_c, 0, 61, 49
1, 132749, Note_off_c, 0, 79, 60
1, 132760, Poly_aftertouch_c, 0, 64, 0
1, 132824, Note_on_c, 0, 78, 65
1, 132833, Note_on_c, 0, 70, 48
1, 132838, Note_on_c, 0, 73, 52
1, 132841, Note_on_c, 0, 54, 41
1, 132847, Note_on_c, 0, 61, 37
1, 132868, Note_on_c, 0, 64, 24
1, 132891, Note_off_c, 0, 70, 48
1, 132897, Note_off_c, 0, 61, 43
1, 132901, Note_off_c, 0, 73, 54
1, 132918, Note_off_c, 0, 64, 45
1, 132925, Note_off_c, 0, 78, 58
1, 132942, Note_off_c, 0, 54, 33
1, 132995, Note_on_c, 0, 82, 69
1, 133006, Note_on_c, 0, 70, 51
1, 133022, Note_on_c, 0, 61, 38
1, 133022, Note_on_c, 0, 73, 52
1, 133029, Poly_aftertouch_c, 0, 54, 127
1, 133043, Note_on_c, 0, 64, 6
1, 133046, Note_off_c, 0, 70, 47
1, 133052, Note_off_c, 0, 73, 57
1, 133064, Note_off_c, 0, 61, 48
1, 133080, Poly_aftertouch_c, 0, 54, 0
1, 133081, Note_off_c, 0, 82, 59
1, 133092, Note_off_c, 0, 64, 37
1, 133185, Note_on_c, 0, 80, 64
1, 133217, Note_on_c, 0, 54, 7
1, 133250, Note_off_c, 0, 54, 40
1, 133259, Note_off_c, 0, 80, 62
1, 133271, Poly_aftertouch_c, 0, 70, 0
1, 133288, Note_on_c, 0, 79, 53
1, 133341, Note_off_c, 0, 79, 54
1, 133387, Note_on_c, 0, 78, 36
1, 133466, Note_off_c, 0, 78, 53
1, 133544, Control_c, 0, 64, 43
1, 133547, Note_on_c, 0, 29, 51
1, 133559, Control_c, 0, 64, 63
1, 133574, Control_c, 0, 64, 66
1, 133583, Note_off_c, 0, 29, 61
1, 133589, Control_c, 0, 64, 70
1, 133604, Control_c, 0, 64, 74
1, 133618, Control_c, 0, 64, 76
1, 133633, Control_c, 0, 64, 77
1, 133648, Control_c, 0, 64, 78
1, 133722, Control_c, 0, 64, 77
1, 133737, Control_c, 0, 64, 75
1, 133751, Control_c, 0, 64, 71
1, 133766, Control_c, 0, 64, 62
1, 133781, Control_c, 0, 64, 0
1, 133794, Note_on_c, 0, 78, 60
1, 133806, Note_on_c, 0, 72, 43
1, 133813, Note_on_c, 0, 69, 41
1, 133825, Note_on_c, 0, 66, 51
1, 133828, Note_on_c, 0, 63, 47
1, 133850, Note_off_c, 0, 72, 50
1, 133856, Note_off_c, 0, 69, 49
1, 133860, Note_off_c, 0, 63, 54
1, 133860, Note_off_c, 0, 66, 53
1, 133867, Note_on_c, 0, 57, 25
1, 133881, Note_off_c, 0, 78, 58
1, 133905, Note_off_c, 0, 57, 43
1, 134018, Note_on_c, 0, 77, 57
1, 134019, Note_on_c, 0, 57, 36
1, 134024, Note_on_c, 0, 69, 45
1, 134027, Note_on_c, 0, 72, 48
1, 134035, Note_on_c, 0, 63, 27
1, 134041, Note_on_c, 0, 65, 37
1, 134069, Note_off_c, 0, 57, 55
1, 134072, Note_off_c, 0, 72, 61
1, 134073, Note_off_c, 0, 69, 58
1, 134078, Note_off_c, 0, 65, 52
1, 134085, Note_off_c, 0, 63, 46
1, 134089, Note_off_c, 0, 77, 55
1, 134232, Note_on_c, 0, 76, 52
1, 134233, Note_on_c, 0, 69, 48
1, 134240, Note_on_c, 0, 63, 29
1, 134244, Note_on_c, 0, 72, 43
1, 134253, Note_on_c, 0, 57, 21
1, 134254, Note_on_c, 0, 65, 16
1, 134288, Note_off_c, 0, 69, 58
1, 134289, Note_off_c, 0, 72, 52
1, 134291, Note_off_c, 0, 63, 45
1, 134292, Note_off_c, 0, 76, 53
1, 134296, Note_off_c, 0, 65, 50
1, 134298, Note_off_c, 0, 57, 47
1, 134446, Note_on_c, 0, 75, 54
1, 134458, Note_on_c, 0, 57, 35
1, 134460, Note_on_c, 0, 69, 36
1, 134480, Note_on_c, 0, 63, 12
1, 134484, Note_on_c, 0, 72, 12
1, 134500, Poly_aftertouch_c, 0, 65, 127
1, 134513, Note_off_c, 0, 69, 44
1, 134522, Note_off_c, 0, 72, 51
1, 134527, Note_off_c, 0, 63, 49
1, 134530, Note_off_c, 0, 75, 55
1, 134532, Poly_aftertouch_c, 0, 65, 0
1, 134559, Note_off_c, 0, 57, 30
1, 134716, Note_on_c, 0, 72, 41
1, 134718, Note_on_c, 0, 60, 23
1, 134721, Note_on_c, 0, 63, 29
1, 134724, Note_on_c, 0, 69, 38
1, 134730, Note_on_c, 0, 65, 22
1, 134754, Note_off_c, 0, 72, 48
1, 134768, Note_off_c, 0, 60, 46
1, 134773, Note_off_c, 0, 69, 46
1, 134779, Note_off_c, 0, 65, 48
1, 134800, Note_off_c, 0, 63, 37
1, 134977, Note_on_c, 0, 63, 35
1, 134993, Note_on_c, 0, 65, 23
1, 135017, Note_on_c, 0, 79, 47
1, 135029, Note_on_c, 0, 72, 28
1, 135032, Note_off_c, 0, 65, 51
1, 135034, Note_on_c, 0, 69, 22
1, 135040, Note_off_c, 0, 63, 41
1, 135065, Note_off_c, 0, 79, 44
1, 135066, Note_off_c, 0, 72, 48
1, 135073, Note_off_c, 0, 69, 51
1, 135166, Note_on_c, 0, 78, 51
1, 135195, Note_off_c, 0, 78, 53
1, 135340, Note_on_c, 0, 77, 41
1, 135374, Note_off_c, 0, 77, 48
1, 135890, Note_on_c, 0, 34, 36
1, 135893, Control_c, 0, 64, 34
1, 135908, Control_c, 0, 64, 58
1, 135923, Control_c, 0, 64, 64
1, 135926, Note_off_c, 0, 34, 61
1, 135938, Control_c, 0, 64, 66
1, 135953, Control_c, 0, 64, 69
1, 135967, Control_c, 0, 64, 72
1, 135982, Control_c, 0, 64, 75
1, 135997, Control_c, 0, 64, 77
1, 136012, Control_c, 0, 64, 79
1, 136027, Control_c, 0, 64, 79
1, 136042, Control_c, 0, 64, 80
1, 136057, Control_c, 0, 64, 81
1, 136197, Control_c, 0, 64, 79
1, 136212, Control_c, 0, 64, 76
1, 136227, Control_c, 0, 64, 70
1, 136242, Control_c, 0, 64, 63
1, 136248, Note_on_c, 0, 74, 61
1, 136252, Note_on_c, 0, 62, 51
1, 136257, Control_c, 0, 64, 42
1, 136272, Control_c, 0, 64, 0
1, 136281, Note_on_c, 0, 58, 37
1, 136286, Control_c, 0, 64, 16
1, 136299, Note_off_c, 0, 62, 61
1, 136301, Control_c, 0, 64, 23
1, 136303, Note_off_c, 0, 74, 59
1, 136309, Note_off_c, 0, 58, 57
1, 136331, Control_c, 0, 64, 20
1, 136338, Note_on_c, 0, 66, 57
1, 136345, Control_c, 0, 64, 18
1, 136375, Note_off_c, 0, 66, 65
1, 136391, Control_c, 0, 64, 16
1, 136406, Control_c, 0, 64, 0
1, 136413, Note_on_c, 0, 53, 53
1, 136415, Note_on_c, 0, 62, 59
1, 136415, Note_on_c, 0, 72, 62
1, 136435, Note_on_c, 0, 65, 18
1, 136445, Note_off_c, 0, 53, 55
1, 136468, Note_off_c, 0, 62, 58
1, 136471, Note_off_c, 0, 65, 41
1, 136473, Note_off_c, 0, 72, 59
1, 136479, Note_on_c, 0, 67, 66
1, 136534, Note_off_c, 0, 67, 58
1, 136553, Note_on_c, 0, 58, 51
1, 136556, Note_on_c, 0, 71, 65
1, 136562, Note_on_c, 0, 62, 61
1, 136562, Note_on_c, 0, 65, 47
1, 136588, Note_off_c, 0, 65, 57
1, 136593, Note_off_c, 0, 58, 60
1, 136593, Note_off_c, 0, 71, 56
1, 136609, Note_off_c, 0, 62, 53
1, 136626, Note_on_c, 0, 66, 69
1, 136696, Note_off_c, 0, 66, 61
1, 136700, Note_on_c, 0, 53, 40
1, 136701, Note_on_c, 0, 65, 39
1, 136707, Note_on_c, 0, 70, 64
1, 136719, Note_on_c, 0, 62, 54
1, 136730, Note_off_c, 0, 53, 52
1, 136738, Note_off_c, 0, 65, 50
1, 136754, Note_off_c, 0, 62, 58
1, 136773, Note_on_c, 0, 67, 66
1, 136781, Note_off_c, 0, 70, 61
1, 136816, Note_off_c, 0, 67, 64
1, 136842, Note_on_c, 0, 58, 45
1, 136847, Note_on_c, 0, 62, 65
1, 136851, Note_on_c, 0, 74, 67
1, 136860, Note_on_c, 0, 65, 23
1, 136890, Note_off_c, 0, 62, 57
1, 136890, Note_off_c, 0, 74, 55
1, 136895, Note_off_c, 0, 65, 46
1, 136898, Note_off_c, 0, 58, 56
1, 136947, Note_on_c, 0, 66, 57
1, 136981, Note_off_c, 0, 66, 65
1, 137013, Note_on_c, 0, 53, 35
1, 137019, Note_on_c, 0, 72, 53
1, 137026, Note_on_c, 0, 62, 47
1, 137045, Note_off_c, 0, 53, 59
1, 137050, Note_off_c, 0, 72, 59
1, 137054, Note_off_c, 0, 62, 54
1, 137097, Note_on_c, 0, 71, 46
1, 137128, Note_off_c, 0, 71, 55
1, 137189, Note_on_c, 0, 70, 46
1, 137214, Control_c, 0, 64, 13
1, 137228, Control_c, 0, 64, 18
1, 137237, Note_off_c, 0, 70, 44
1, 137243, Control_c, 0, 64, 16
1, 137258, Control_c, 0, 64, 0
1, 137318, Control_c, 0, 64, 16
1, 137333, Control_c, 0, 64, 54
1, 137347, Control_c, 0, 64, 65
1, 137361, Note_on_c, 0, 32, 46
1, 137362, Control_c, 0, 64, 69
1, 137377, Control_c, 0, 64, 73
1, 137391, Control_c, 0, 64, 77
1, 137392, Note_off_c, 0, 32, 54
1, 137406, Control_c, 0, 64, 79
1, 137436, Control_c, 0, 64, 79
1, 137509, Control_c, 0, 64, 78
1, 137524, Control_c, 0, 64, 75
1, 137539, Control_c, 0, 64, 68
1, 137554, Control_c, 0, 64, 53
1, 137569, Control_c, 0, 64, 0
1, 137577, Note_on_c, 0, 77, 75
1, 137579, Note_on_c, 0, 65, 74
1, 137612, Note_off_c, 0, 77, 50
1, 137616, Note_off_c, 0, 65, 62
1, 137619, Note_on_c, 0, 70, 54
1, 137645, Note_off_c, 0, 70, 57
1, 137661, Note_on_c, 0, 71, 68
1, 137701, Poly_aftertouch_c, 0, 62, 0
1, 137732, Note_off_c, 0, 71, 60
1, 137744, Note_on_c, 0, 76, 70
1, 137746, Note_on_c, 0, 65, 69
1, 137747, Note_on_c, 0, 70, 61
1, 137759, Note_on_c, 0, 56, 53
1, 137793, Note_off_c, 0, 70, 60
1, 137796, Note_off_c, 0, 76, 61
1, 137804, Note_off_c, 0, 65, 60
1, 137807, Note_off_c, 0, 56, 44
1, 137811, Note_on_c, 0, 72, 73
1, 137886, Note_off_c, 0, 72, 63
1, 137890, Note_on_c, 0, 75, 63
1, 137891, Note_on_c, 0, 62, 59
1, 137902, Note_on_c, 0, 65, 64
1, 137902, Note_on_c, 0, 70, 56
1, 137920, Note_off_c, 0, 75, 68
1, 137929, Note_off_c, 0, 70, 60
1, 137950, Note_off_c, 0, 65, 60
1, 137963, Note_off_c, 0, 62, 58
1, 137997, Note_on_c, 0, 71, 49
1, 138012, Note_on_c, 0, 74, 59
1, 138018, Note_on_c, 0, 70, 72
1, 138022, Note_on_c, 0, 56, 71
1, 138057, Note_on_c, 0, 65, 63
1, 138062, Note_off_c, 0, 74, 64
1, 138073, Note_off_c, 0, 71, 61
1, 138084, Note_off_c, 0, 70, 60
1, 138090, Note_off_c, 0, 56, 61
1, 138112, Note_off_c, 0, 65, 63
1, 138130, Note_on_c, 0, 71, 64
1, 138160, Note_on_c, 0, 62, 54
1, 138165, Note_on_c, 0, 77, 48
1, 138191, Note_on_c, 0, 70, 42
1, 138199, Note_off_c, 0, 71, 62
1, 138212, Note_off_c, 0, 77, 40
1, 138215, Note_on_c, 0, 65, 59
1, 138222, Note_off_c, 0, 70, 53
1, 138242, Note_off_c, 0, 65, 59
1, 138290, Note_on_c, 0, 76, 49
1, 138308, Note_on_c, 0, 71, 19
1, 138320, Note_on_c, 0, 56, 62
1, 138328, Note_off_c, 0, 62, 36
1, 138330, Note_on_c, 0, 75, 72
1, 138342, Note_off_c, 0, 76, 47
1, 138346, Note_on_c, 0, 65, 44
1, 138346, Note_off_c, 0, 71, 42
1, 138372, Note_off_c, 0, 65, 59
1, 138393, Note_off_c, 0, 56, 62
1, 138414, Note_off_c, 0, 75, 63
1, 138421, Note_on_c, 0, 74, 65
1, 138511, Note_off_c, 0, 74, 64
1, 138639, Note_on_c, 0, 30, 62
1, 138652, Note_on_c, 0, 42, 50
1, 138669, Note_off_c, 0, 30, 56
1, 138678, Note_off_c, 0, 42, 56
1, 138790, Note_on_c, 0, 82, 79
1, 138810, Note_on_c, 0, 73, 59
1, 138815, Note_on_c, 0, 70, 49
1, 138825, Note_on_c, 0, 54, 47
1, 138832, Note_on_c, 0, 64, 44
1, 138833, Note_off_c, 0, 73, 59
1, 138838, Note_on_c, 0, 61, 36
1, 138838, Note_off_c, 0, 70, 59
1, 138849, Note_off_c, 0, 82, 61
1, 138859, Note_off_c, 0, 64, 50
1, 138865, Note_off_c, 0, 61, 52
1, 138871, Note_off_c, 0, 54, 42
1, 138937, Note_on_c, 0, 70, 59
1, 138939, Note_on_c, 0, 61, 61
1, 138940, Note_on_c, 0, 80, 78
1, 138960, Note_off_c, 0, 80, 71
1, 138963, Note_off_c, 0, 70, 66
1, 138966, Note_off_c, 0, 61, 65
1, 138975, Note_on_c, 0, 58, 33
1, 139005, Note_on_c, 0, 79, 59
1, 139007, Note_off_c, 0, 58, 43
1, 139049, Note_off_c, 0, 79, 51
1, 139083, Note_on_c, 0, 78, 65
1, 139119, Note_off_c, 0, 78, 59
1, 139141, Control_c, 0, 67, 126
1, 139155, Control_c, 0, 67, 125
1, 139170, Control_c, 0, 67, 124
1, 139193, Control_c, 0, 67, 123
1, 139208, Control_c, 0, 67, 122
1, 139223, Control_c, 0, 67, 122
1, 139231, Note_on_c, 0, 47, 67
1, 139235, Note_on_c, 0, 35, 52
1, 139237, Control_c, 0, 67, 120
1, 139252, Control_c, 0, 67, 119
1, 139257, Note_off_c, 0, 47, 67
1, 139264, Note_off_c, 0, 35, 55
1, 139267, Control_c, 0, 67, 118
1, 139282, Control_c, 0, 67, 117
1, 139297, Control_c, 0, 67, 115
1, 139311, Control_c, 0, 67, 114
1, 139326, Control_c, 0, 67, 113
1, 139341, Control_c, 0, 67, 111
1, 139356, Control_c, 0, 67, 110
1, 139370, Control_c, 0, 67, 110
1, 139402, Note_on_c, 0, 87, 72
1, 139411, Note_on_c, 0, 69, 54
1, 139413, Note_on_c, 0, 66, 52
1, 139415, Note_on_c, 0, 59, 51
1, 139415, Control_c, 0, 67, 109
1, 139419, Note_on_c, 0, 78, 60
1, 139437, Note_off_c, 0, 78, 64
1, 139440, Note_off_c, 0, 69, 60
1, 139443, Note_off_c, 0, 66, 60
1, 139450, Note_off_c, 0, 87, 57
1, 139459, Control_c, 0, 67, 109
1, 139461, Note_off_c, 0, 59, 56
1, 139488, Control_c, 0, 67, 108
1, 139527, Note_on_c, 0, 85, 82
1, 139530, Note_on_c, 0, 66, 69
1, 139533, Control_c, 0, 67, 108
1, 139540, Note_on_c, 0, 75, 69
1, 139545, Note_on_c, 0, 63, 62
1, 139548, Control_c, 0, 67, 107
1, 139554, Note_off_c, 0, 66, 69
1, 139558, Note_off_c, 0, 75, 68
1, 139562, Note_on_c, 0, 78, 42
1, 139564, Control_c, 0, 67, 105
1, 139570, Note_off_c, 0, 63, 65
1, 139578, Control_c, 0, 67, 102
1, 139584, Note_off_c, 0, 78, 53
1, 139587, Note_off_c, 0, 85, 66
1, 139593, Control_c, 0, 67, 99
1, 139602, Note_on_c, 0, 84, 74
1, 139608, Control_c, 0, 67, 95
1, 139623, Control_c, 0, 67, 90
1, 139638, Control_c, 0, 67, 85
1, 139646, Note_off_c, 0, 84, 48
1, 139652, Control_c, 0, 67, 79
1, 139667, Control_c, 0, 67, 71
1, 139669, Note_on_c, 0, 83, 75
1, 139682, Control_c, 0, 67, 62
1, 139690, Note_off_c, 0, 83, 69
1, 139697, Control_c, 0, 67, 53
1, 139712, Control_c, 0, 67, 45
1, 139726, Control_c, 0, 67, 37
1, 139741, Control_c, 0, 67, 30
1, 139756, Control_c, 0, 67, 22
1, 139771, Control_c, 0, 67, 14
1, 139786, Control_c, 0, 67, 0
1, 139803, Note_on_c, 0, 29, 65
1, 139806, Note_on_c, 0, 41, 73
1, 139835, Note_off_c, 0, 29, 60
1, 139835, Note_off_c, 0, 41, 67
1, 139962, Note_on_c, 0, 93, 96
1, 139969, Note_on_c, 0, 84, 74
1, 139969, Note_on_c, 0, 87, 75
1, 139971, Note_on_c, 0, 53, 67
1, 139983, Note_off_c, 0, 84, 68
1, 139991, Note_off_c, 0, 87, 70
1, 139998, Note_off_c, 0, 93, 60
1, 140003, Note_off_c, 0, 53, 67
1, 140039, Note_on_c, 0, 52, 57
1, 140079, Note_off_c, 0, 52, 66
1, 140105, Note_on_c, 0, 54, 62
1, 140113, Note_on_c, 0, 92, 90
1, 140124, Note_on_c, 0, 87, 74
1, 140132, Note_on_c, 0, 84, 52
1, 140149, Note_off_c, 0, 87, 66
1, 140153, Note_off_c, 0, 84, 61
1, 140156, Note_off_c, 0, 92, 63
1, 140164, Control_c, 0, 67, 8
1, 140170, Note_off_c, 0, 54, 52
1, 140179, Control_c, 0, 67, 8
1, 140182, Note_on_c, 0, 53, 64
1, 140193, Control_c, 0, 67, 9
1, 140208, Control_c, 0, 67, 9
1, 140223, Control_c, 0, 67, 10
1, 140238, Control_c, 0, 67, 11
1, 140239, Note_off_c, 0, 53, 65
1, 140253, Control_c, 0, 67, 12
1, 140260, Note_on_c, 0, 91, 86
1, 140267, Note_on_c, 0, 84, 58
1, 140267, Control_c, 0, 67, 13
1, 140272, Note_on_c, 0, 55, 55
1, 140275, Note_on_c, 0, 87, 60
1, 140282, Control_c, 0, 67, 14
1, 140288, Note_off_c, 0, 84, 62
1, 140295, Note_off_c, 0, 87, 58
1, 140297, Control_c, 0, 67, 15
1, 140299, Note_off_c, 0, 91, 57
1, 140311, Control_c, 0, 67, 17
1, 140323, Note_off_c, 0, 55, 63
1, 140326, Control_c, 0, 67, 21
1, 140340, Note_on_c, 0, 54, 50
1, 140341, Control_c, 0, 67, 26
1, 140357, Control_c, 0, 67, 30
1, 140372, Control_c, 0, 67, 35
1, 140387, Control_c, 0, 67, 39
1, 140394, Note_off_c, 0, 54, 60
1, 140400, Note_on_c, 0, 56, 56
1, 140402, Note_on_c, 0, 90, 77
1, 140402, Control_c, 0, 67, 41
1, 140406, Note_on_c, 0, 87, 53
1, 140408, Note_on_c, 0, 84, 53
1, 140417, Control_c, 0, 67, 42
1, 140432, Control_c, 0, 67, 44
1, 140433, Note_off_c, 0, 90, 63
1, 140439, Note_off_c, 0, 84, 65
1, 140439, Note_off_c, 0, 87, 65
1, 140447, Control_c, 0, 67, 45
1, 140458, Note_off_c, 0, 56, 59
1, 140462, Control_c, 0, 67, 46
1, 140477, Control_c, 0, 67, 46
1, 140482, Note_on_c, 0, 55, 58
1, 140522, Note_off_c, 0, 55, 66
1, 140536, Control_c, 0, 67, 47
1, 140555, Note_on_c, 0, 89, 72
1, 140558, Note_on_c, 0, 57, 55
1, 140558, Note_on_c, 0, 81, 64
1, 140559, Note_on_c, 0, 84, 60
1, 140576, Note_off_c, 0, 89, 65
1, 140578, Note_off_c, 0, 81, 63
1, 140579, Note_off_c, 0, 84, 65
1, 140606, Note_off_c, 0, 57, 58
1, 140633, Note_on_c, 0, 56, 54
1, 140686, Note_off_c, 0, 56, 59
1, 140704, Note_on_c, 0, 58, 52
1, 140709, Note_on_c, 0, 88, 73
1, 140710, Note_on_c, 0, 84, 59
1, 140716, Note_on_c, 0, 81, 47
1, 140722, Control_c, 0, 67, 47
1, 140736, Control_c, 0, 67, 48
1, 140737, Note_off_c, 0, 84, 64
1, 140738, Note_off_c, 0, 81, 57
1, 140747, Note_off_c, 0, 88, 57
1, 140775, Note_off_c, 0, 58, 63
1, 140785, Note_on_c, 0, 57, 54
1, 140823, Note_off_c, 0, 57, 63
1, 140840, Note_on_c, 0, 87, 75
1, 140843, Note_on_c, 0, 59, 53
1, 140853, Note_on_c, 0, 84, 53
1, 140855, Note_on_c, 0, 81, 34
1, 140855, Control_c, 0, 67, 48
1, 140875, Note_off_c, 0, 84, 63
1, 140880, Note_off_c, 0, 87, 61
1, 140881, Note_off_c, 0, 81, 54
1, 140884, Note_off_c, 0, 59, 63
1, 140915, Note_on_c, 0, 58, 60
1, 140963, Note_off_c, 0, 58, 61
1, 140986, Note_on_c, 0, 86, 73
1, 140987, Note_on_c, 0, 81, 64
1, 140992, Note_on_c, 0, 60, 60
1, 140996, Note_on_c, 0, 78, 63
1, 141017, Note_off_c, 0, 78, 59
1, 141034, Note_off_c, 0, 60, 62
1, 141035, Note_off_c, 0, 81, 58
1, 141041, Note_off_c, 0, 86, 60
1, 141047, Control_c, 0, 67, 48
1, 141054, Note_on_c, 0, 59, 61
1, 141098, Note_off_c, 0, 59, 59
1, 141125, Note_on_c, 0, 61, 63
1, 141131, Note_on_c, 0, 85, 71
1, 141140, Note_on_c, 0, 78, 53
1, 141145, Note_on_c, 0, 81, 56
1, 141151, Control_c, 0, 67, 48
1, 141165, Note_off_c, 0, 81, 61
1, 141166, Note_off_c, 0, 85, 60
1, 141169, Note_off_c, 0, 78, 58
1, 141179, Note_off_c, 0, 61, 60
1, 141199, Note_on_c, 0, 60, 59
1, 141236, Note_off_c, 0, 60, 62
1, 141273, Note_on_c, 0, 62, 58
1, 141280, Note_on_c, 0, 84, 69
1, 141283, Note_on_c, 0, 78, 63
1, 141291, Note_on_c, 0, 75, 55
1, 141307, Note_off_c, 0, 84, 65
1, 141310, Note_off_c, 0, 75, 63
1, 141311, Note_off_c, 0, 78, 66
1, 141321, Note_off_c, 0, 62, 57
1, 141329, Control_c, 0, 67, 48
1, 141342, Note_on_c, 0, 61, 54
1, 141387, Note_off_c, 0, 61, 59
1, 141405, Note_on_c, 0, 63, 56
1, 141411, Note_on_c, 0, 83, 75
1, 141431, Note_on_c, 0, 75, 54
1, 141432, Note_on_c, 0, 78, 69
1, 141453, Note_off_c, 0, 75, 61
1, 141460, Note_off_c, 0, 78, 67
1, 141476, Note_off_c, 0, 83, 60
1, 141493, Note_off_c, 0, 63, 62
1, 141507, Note_on_c, 0, 62, 60
1, 141544, Note_off_c, 0, 62, 63
1, 141563, Note_on_c, 0, 75, 60
1, 141563, Note_on_c, 0, 78, 74
1, 141567, Note_on_c, 0, 82, 66
1, 141576, Note_on_c, 0, 64, 52
1, 141588, Control_c, 0, 67, 47
1, 141595, Note_off_c, 0, 78, 60
1, 141596, Note_off_c, 0, 82, 65
1, 141602, Note_off_c, 0, 75, 65
1, 141614, Note_off_c, 0, 64, 65
1, 141632, Control_c, 0, 67, 47
1, 141640, Note_on_c, 0, 63, 60
1, 141693, Note_off_c, 0, 63, 61
1, 141698, Note_on_c, 0, 81, 72
1, 141707, Note_on_c, 0, 72, 55
1, 141712, Note_on_c, 0, 75, 52
1, 141727, Note_on_c, 0, 65, 44
1, 141730, Note_off_c, 0, 72, 57
1, 141734, Note_off_c, 0, 75, 64
1, 141743, Note_off_c, 0, 81, 60
1, 141765, Note_off_c, 0, 65, 51
1, 141794, Note_on_c, 0, 64, 57
1, 141837, Note_off_c, 0, 64, 63
1, 141850, Note_on_c, 0, 80, 69
1, 141853, Note_on_c, 0, 72, 52
1, 141864, Note_on_c, 0, 75, 48
1, 141866, Note_on_c, 0, 66, 59
1, 141887, Note_off_c, 0, 75, 60
1, 141888, Note_off_c, 0, 80, 53
1, 141890, Note_off_c, 0, 72, 64
1, 141916, Note_off_c, 0, 66, 62
1, 141944, Note_on_c, 0, 65, 60
1, 141980, Note_off_c, 0, 65, 65
1, 141996, Note_on_c, 0, 79, 69
1, 142003, Note_on_c, 0, 72, 54
1, 142021, Note_on_c, 0, 75, 37
1, 142028, Note_on_c, 0, 67, 50
1, 142036, Note_off_c, 0, 72, 64
1, 142043, Note_off_c, 0, 75, 54
1, 142045, Note_off_c, 0, 79, 58
1, 142074, Note_off_c, 0, 67, 61
1, 142090, Note_on_c, 0, 66, 54
1, 142134, Note_off_c, 0, 66, 61
1, 142144, Note_on_c, 0, 68, 61
1, 142148, Note_on_c, 0, 78, 69
1, 142153, Note_on_c, 0, 72, 56
1, 142167, Note_on_c, 0, 75, 49
1, 142189, Control_c, 0, 67, 46
1, 142198, Note_off_c, 0, 75, 61
1, 142198, Note_off_c, 0, 72, 62
1, 142207, Note_off_c, 0, 68, 61
1, 142215, Note_off_c, 0, 78, 57
1, 142227, Note_on_c, 0, 67, 62
1, 142269, Note_off_c, 0, 67, 63
1, 142306, Note_on_c, 0, 72, 64
1, 142309, Note_on_c, 0, 69, 60
1, 142310, Note_on_c, 0, 77, 59
1, 142322, Note_on_c, 0, 75, 46
1, 142332, Note_off_c, 0, 77, 62
1, 142335, Note_off_c, 0, 72, 67
1, 142350, Note_off_c, 0, 75, 58
1, 142356, Note_off_c, 0, 69, 61
1, 142378, Note_on_c, 0, 68, 48
1, 142406, Note_off_c, 0, 68, 54
1, 142415, Note_on_c, 0, 70, 56
1, 142445, Note_on_c, 0, 79, 73
1, 142448, Note_on_c, 0, 75, 70
1, 142482, Note_off_c, 0, 70, 60
1, 142487, Note_off_c, 0, 79, 62
1, 142493, Note_off_c, 0, 75, 61
1, 142508, Note_on_c, 0, 69, 58
1, 142514, Control_c, 0, 67, 46
1, 142529, Control_c, 0, 67, 45
1, 142544, Control_c, 0, 67, 44
1, 142555, Note_off_c, 0, 69, 61
1, 142559, Control_c, 0, 67, 44
1, 142573, Control_c, 0, 67, 43
1, 142588, Control_c, 0, 67, 42
1, 142600, Note_on_c, 0, 77, 71
1, 142603, Note_on_c, 0, 75, 71
1, 142603, Control_c, 0, 67, 42
1, 142607, Note_on_c, 0, 72, 58
1, 142630, Note_off_c, 0, 77, 62
1, 142633, Note_off_c, 0, 75, 64
1, 142633, Control_c, 0, 67, 41
1, 142648, Control_c, 0, 67, 40
1, 142651, Note_off_c, 0, 72, 63
1, 142663, Control_c, 0, 67, 40
1, 142671, Note_on_c, 0, 69, 63
1, 142707, Control_c, 0, 67, 39
1, 142736, Note_on_c, 0, 78, 81
1, 142739, Note_off_c, 0, 69, 61
1, 142745, Note_on_c, 0, 75, 71
1, 142748, Note_on_c, 0, 68, 72
1, 142752, Control_c, 0, 67, 39
1, 142767, Control_c, 0, 67, 38
1, 142775, Note_off_c, 0, 75, 66
1, 142782, Control_c, 0, 67, 37
1, 142788, Note_off_c, 0, 78, 61
1, 142797, Control_c, 0, 67, 36
1, 142812, Control_c, 0, 67, 35
1, 142818, Note_off_c, 0, 68, 62
1, 142827, Control_c, 0, 67, 35
1, 142841, Control_c, 0, 67, 34
1, 142843, Note_on_c, 0, 71, 65
1, 142856, Control_c, 0, 67, 34
1, 142871, Control_c, 0, 67, 32
1, 142886, Control_c, 0, 67, 31
1, 142886, Note_on_c, 0, 77, 73
1, 142892, Note_on_c, 0, 75, 74
1, 142901, Control_c, 0, 67, 29
1, 142905, Note_off_c, 0, 71, 60
1, 142914, Note_on_c, 0, 69, 68
1, 142916, Control_c, 0, 67, 28
1, 142928, Note_off_c, 0, 75, 64
1, 142934, Note_off_c, 0, 77, 61
1, 142952, Control_c, 0, 67, 28
1, 142968, Note_off_c, 0, 69, 65
1, 142991, Note_on_c, 0, 72, 68
1, 143038, Note_on_c, 0, 79, 81
1, 143041, Control_c, 0, 67, 28
1, 143045, Note_on_c, 0, 75, 74
1, 143050, Note_off_c, 0, 72, 61
1, 143056, Note_on_c, 0, 68, 62
1, 143056, Control_c, 0, 67, 29
1, 143071, Control_c, 0, 67, 29
1, 143072, Note_off_c, 0, 75, 66
1, 143086, Control_c, 0, 67, 30
1, 143090, Note_off_c, 0, 79, 61
1, 143101, Control_c, 0, 67, 31
1, 143116, Note_off_c, 0, 68, 63
1, 143116, Control_c, 0, 67, 32
1, 143131, Control_c, 0, 67, 33
1, 143137, Note_on_c, 0, 71, 65
1, 143145, Control_c, 0, 67, 33
1, 143160, Control_c, 0, 67, 35
1, 143175, Control_c, 0, 67, 36
1, 143189, Note_on_c, 0, 77, 71
1, 143190, Control_c, 0, 67, 37
1, 143190, Note_on_c, 0, 75, 68
1, 143195, Note_off_c, 0, 71, 57
1, 143204, Control_c, 0, 67, 38
1, 143213, Note_on_c, 0, 69, 63
1, 143219, Control_c, 0, 67, 39
1, 143225, Note_off_c, 0, 75, 61
1, 143232, Note_off_c, 0, 77, 60
1, 143234, Control_c, 0, 67, 43
1, 143249, Control_c, 0, 67, 49
1, 143261, Note_off_c, 0, 69, 65
1, 143264, Control_c, 0, 67, 55
1, 143278, Control_c, 0, 67, 66
1, 143289, Note_on_c, 0, 72, 60
1, 143293, Control_c, 0, 67, 75
1, 143308, Control_c, 0, 67, 84
1, 143323, Control_c, 0, 67, 92
1, 143334, Note_off_c, 0, 72, 58
1, 143337, Control_c, 0, 67, 99
1, 143339, Note_on_c, 0, 78, 73
1, 143348, Note_on_c, 0, 75, 62
1, 143352, Note_on_c, 0, 68, 58
1, 143352, Control_c, 0, 67, 104
1, 143367, Control_c, 0, 67, 107
1, 143382, Control_c, 0, 67, 109
1, 143387, Note_off_c, 0, 75, 60
1, 143393, Note_off_c, 0, 78, 61
1, 143402, Note_off_c, 0, 68, 59
1, 143411, Control_c, 0, 67, 109
1, 143441, Control_c, 0, 67, 110
1, 143449, Note_on_c, 0, 71, 50
1, 143490, Note_on_c, 0, 77, 64
1, 143492, Note_off_c, 0, 71, 62
1, 143500, Note_on_c, 0, 75, 53
1, 143500, Control_c, 0, 67, 110
1, 143515, Control_c, 0, 67, 111
1, 143516, Note_on_c, 0, 69, 53
1, 143528, Note_off_c, 0, 75, 60
1, 143530, Note_off_c, 0, 77, 58
1, 143530, Control_c, 0, 67, 113
1, 143546, Control_c, 0, 67, 115
1, 143556, Note_off_c, 0, 69, 66
1, 143561, Control_c, 0, 67, 116
1, 143576, Control_c, 0, 67, 118
1, 143591, Control_c, 0, 67, 120
1, 143594, Note_on_c, 0, 72, 52
1, 143606, Control_c, 0, 67, 121
1, 143620, Control_c, 0, 67, 123
1, 143635, Control_c, 0, 67, 124
1, 143639, Note_off_c, 0, 72, 58
1, 143643, Note_on_c, 0, 79, 66
1, 143650, Control_c, 0, 67, 127
1, 143661, Note_on_c, 0, 75, 56
1, 143663, Note_on_c, 0, 68, 54
1, 143665, Control_c, 0, 67, 127
1, 143697, Note_off_c, 0, 75, 56
1, 143706, Note_off_c, 0, 79, 60
1, 143727, Note_off_c, 0, 68, 57
1, 143763, Note_on_c, 0, 71, 49
1, 143801, Note_off_c, 0, 71, 58
1, 143806, Note_on_c, 0, 77, 59
1, 143808, Note_on_c, 0, 75, 56
1, 143826, Note_on_c, 0, 69, 51
1, 143841, Note_off_c, 0, 77, 62
1, 143849, Note_off_c, 0, 75, 61
1, 143865, Note_off_c, 0, 69, 65
1, 143903, Note_on_c, 0, 72, 47
1, 143953, Note_off_c, 0, 72, 57
1, 143959, Note_on_c, 0, 79, 60
1, 143974, Note_on_c, 0, 75, 57
1, 143976, Note_on_c, 0, 68, 54
1, 144001, Note_off_c, 0, 75, 58
1, 144016, Note_off_c, 0, 79, 60
1, 144020, Note_off_c, 0, 68, 62
1, 144060, Note_on_c, 0, 71, 48
1, 144116, Note_on_c, 0, 77, 62
1, 144121, Note_on_c, 0, 75, 54
1, 144124, Note_off_c, 0, 71, 57
1, 144141, Note_on_c, 0, 69, 53
1, 144162, Note_off_c, 0, 75, 63
1, 144162, Note_off_c, 0, 77, 60
1, 144215, Note_off_c, 0, 69, 62
1, 144248, Note_on_c, 0, 72, 49
1, 144274, Note_on_c, 0, 79, 61
1, 144290, Note_on_c, 0, 75, 48
1, 144294, Note_off_c, 0, 72, 60
1, 144301, Note_on_c, 0, 68, 53
1, 144321, Note_off_c, 0, 75, 56
1, 144335, Note_off_c, 0, 79, 56
1, 144359, Note_off_c, 0, 68, 58
1, 144392, Note_on_c, 0, 71, 46
1, 144441, Note_off_c, 0, 71, 62
1, 144450, Note_on_c, 0, 75, 47
1, 144451, Note_on_c, 0, 77, 57
1, 144467, Note_on_c, 0, 69, 53
1, 144484, Note_off_c, 0, 75, 57
1, 144513, Note_off_c, 0, 69, 61
1, 144530, Note_off_c, 0, 77, 50
1, 144552, Note_on_c, 0, 72, 39
1, 144598, Note_off_c, 0, 72, 44
1, 144665, Note_on_c, 0, 77, 56
1, 144669, Note_on_c, 0, 70, 50
1, 144673, Control_c, 0, 64, 20
1, 144684, Note_on_c, 0, 74, 36
1, 144688, Control_c, 0, 64, 57
1, 144702, Control_c, 0, 64, 64
1, 144717, Control_c, 0, 64, 66
1, 144732, Control_c, 0, 64, 68
1, 144747, Control_c, 0, 64, 71
1, 144762, Control_c, 0, 64, 75
1, 144776, Control_c, 0, 64, 80
1, 144779, Note_off_c, 0, 74, 55
1, 144790, Note_off_c, 0, 77, 59
1, 144791, Control_c, 0, 64, 83
1, 144804, Note_off_c, 0, 70, 58
1, 144806, Control_c, 0, 64, 84
1, 144821, Control_c, 0, 64, 85
1, 144836, Control_c, 0, 64, 86
1, 144851, Control_c, 0, 64, 87
1, 144865, Control_c, 0, 64, 87
1, 145077, Note_on_c, 0, 62, 39
1, 145088, Control_c, 0, 64, 87
1, 145117, Control_c, 0, 64, 86
1, 145125, Note_off_c, 0, 62, 46
1, 145148, Control_c, 0, 64, 86
1, 145156, Note_on_c, 0, 63, 58
1, 145163, Control_c, 0, 64, 85
1, 145185, Control_c, 0, 64, 85
1, 145199, Control_c, 0, 64, 84
1, 145201, Note_off_c, 0, 63, 65
1, 145214, Control_c, 0, 64, 83
1, 145229, Control_c, 0, 64, 82
1, 145235, Note_on_c, 0, 62, 48
1, 145244, Control_c, 0, 64, 80
1, 145259, Control_c, 0, 64, 77
1, 145262, Note_off_c, 0, 62, 51
1, 145274, Control_c, 0, 64, 73
1, 145289, Control_c, 0, 64, 68
1, 145298, Note_on_c, 0, 64, 51
1, 145304, Control_c, 0, 64, 62
1, 145304, Control_c, 0, 67, 126
1, 145319, Control_c, 0, 64, 36
1, 145319, Control_c, 0, 67, 126
1, 145325, Note_off_c, 0, 64, 56
1, 145333, Control_c, 0, 64, 0
1, 145333, Control_c, 0, 67, 124
1, 145348, Control_c, 0, 67, 122
1, 145363, Control_c, 0, 67, 121
1, 145372, Note_on_c, 0, 59, 72
1, 145375, Note_on_c, 0, 56, 64
1, 145378, Note_on_c, 0, 65, 60
1, 145378, Control_c, 0, 67, 118
1, 145387, Note_on_c, 0, 50, 55
1, 145393, Control_c, 0, 67, 115
1, 145407, Control_c, 0, 67, 111
1, 145417, Note_off_c, 0, 65, 61
1, 145422, Control_c, 0, 67, 108
1, 145437, Control_c, 0, 67, 106
1, 145452, Control_c, 0, 67, 104
1, 145464, Note_on_c, 0, 66, 54
1, 145467, Control_c, 0, 67, 103
1, 145481, Control_c, 0, 67, 102
1, 145494, Note_off_c, 0, 66, 60
1, 145496, Control_c, 0, 67, 99
1, 145511, Control_c, 0, 67, 97
1, 145525, Control_c, 0, 67, 95
1, 145536, Note_on_c, 0, 65, 50
1, 145540, Control_c, 0, 67, 93
1, 145555, Control_c, 0, 67, 91
1, 145570, Control_c, 0, 67, 89
1, 145572, Note_off_c, 0, 65, 58
1, 145585, Control_c, 0, 67, 87
1, 145599, Control_c, 0, 67, 84
1, 145613, Note_on_c, 0, 67, 43
1, 145614, Control_c, 0, 67, 83
1, 145629, Control_c, 0, 67, 82
1, 145644, Control_c, 0, 67, 81
1, 145652, Note_off_c, 0, 67, 47
1, 145659, Control_c, 0, 67, 80
1, 145673, Control_c, 0, 67, 79
1, 145681, Note_on_c, 0, 68, 59
1, 145688, Control_c, 0, 67, 78
1, 145703, Control_c, 0, 67, 77
1, 145707, Note_off_c, 0, 68, 65
1, 145718, Control_c, 0, 67, 77
1, 145733, Control_c, 0, 67, 76
1, 145748, Control_c, 0, 67, 76
1, 145763, Note_on_c, 0, 69, 62
1, 145777, Control_c, 0, 67, 75
1, 145792, Control_c, 0, 67, 75
1, 145801, Note_off_c, 0, 69, 61
1, 145806, Control_c, 0, 67, 74
1, 145821, Control_c, 0, 67, 73
1, 145828, Note_on_c, 0, 68, 49
1, 145836, Control_c, 0, 67, 73
1, 145850, Control_c, 0, 67, 72
1, 145865, Control_c, 0, 67, 71
1, 145880, Control_c, 0, 67, 70
1, 145895, Control_c, 0, 67, 69
1, 145896, Note_off_c, 0, 68, 44
1, 145906, Note_on_c, 0, 70, 64
1, 145910, Control_c, 0, 67, 67
1, 145932, Control_c, 0, 67, 65
1, 145941, Note_off_c, 0, 70, 67
1, 145947, Control_c, 0, 67, 64
1, 145962, Control_c, 0, 67, 62
1, 145977, Control_c, 0, 67, 60
1, 145992, Control_c, 0, 67, 58
1, 145994, Note_on_c, 0, 71, 56
1, 146007, Control_c, 0, 67, 54
1, 146019, Note_off_c, 0, 71, 62
1, 146022, Control_c, 0, 67, 51
1, 146037, Control_c, 0, 67, 46
1, 146052, Control_c, 0, 67, 41
1, 146067, Control_c, 0, 67, 35
1, 146068, Note_on_c, 0, 72, 59
1, 146082, Control_c, 0, 67, 27
1, 146097, Control_c, 0, 67, 17
1, 146100, Note_off_c, 0, 72, 66
1, 146110, Note_off_c, 0, 50, 41
1, 146111, Control_c, 0, 67, 0
1, 146123, Note_on_c, 0, 62, 73
1, 146125, Note_on_c, 0, 71, 57
1, 146128, Note_off_c, 0, 59, 63
1, 146150, Note_off_c, 0, 71, 63
1, 146156, Note_off_c, 0, 56, 61
1, 146193, Note_off_c, 0, 62, 60
1, 146201, Note_on_c, 0, 73, 57
1, 146226, Note_off_c, 0, 73, 64
1, 146275, Note_on_c, 0, 61, 73
1, 146284, Note_on_c, 0, 53, 58
1, 146287, Note_on_c, 0, 56, 54
1, 146287, Note_on_c, 0, 74, 59
1, 146314, Note_off_c, 0, 74, 68
1, 146319, Note_off_c, 0, 61, 57
1, 146325, Note_off_c, 0, 56, 61
1, 146332, Note_off_c, 0, 53, 62
1, 146359, Note_on_c, 0, 75, 63
1, 146400, Note_off_c, 0, 75, 64
1, 146423, Note_on_c, 0, 74, 66
1, 146430, Note_on_c, 0, 60, 76
1, 146450, Note_off_c, 0, 74, 65
1, 146479, Note_off_c, 0, 60, 59
1, 146497, Note_on_c, 0, 76, 60
1, 146528, Note_off_c, 0, 76, 67
1, 146566, Note_on_c, 0, 77, 73
1, 146577, Note_on_c, 0, 59, 68
1, 146580, Note_on_c, 0, 56, 58
1, 146593, Note_on_c, 0, 50, 43
1, 146609, Note_off_c, 0, 59, 61
1, 146610, Note_off_c, 0, 77, 61
1, 146615, Note_off_c, 0, 56, 61
1, 146625, Note_off_c, 0, 50, 50
1, 146647, Note_on_c, 0, 78, 67
1, 146690, Note_off_c, 0, 78, 59
1, 146729, Note_on_c, 0, 77, 64
1, 146739, Note_on_c, 0, 62, 62
1, 146769, Note_off_c, 0, 77, 56
1, 146788, Note_off_c, 0, 62, 56
1, 146809, Note_on_c, 0, 79, 53
1, 146839, Note_off_c, 0, 79, 52
1, 146855, Note_on_c, 0, 61, 69
1, 146876, Note_on_c, 0, 80, 67
1, 146878, Note_on_c, 0, 56, 36
1, 146897, Note_off_c, 0, 61, 59
1, 146898, Note_on_c, 0, 53, 20
1, 146903, Note_off_c, 0, 80, 67
1, 146907, Note_off_c, 0, 56, 53
1, 146939, Note_off_c, 0, 53, 43
1, 146954, Note_on_c, 0, 81, 70
1, 146955, Note_on_c, 0, 60, 59
1, 146977, Control_c, 0, 67, 8
1, 146989, Note_off_c, 0, 81, 53
1, 146992, Control_c, 0, 67, 12
1, 146995, Note_off_c, 0, 60, 59
1, 147007, Control_c, 0, 67, 17
1, 147022, Control_c, 0, 67, 25
1, 147027, Note_on_c, 0, 80, 58
1, 147031, Note_on_c, 0, 59, 54
1, 147037, Control_c, 0, 67, 32
1, 147051, Control_c, 0, 67, 39
1, 147053, Note_off_c, 0, 59, 61
1, 147062, Note_off_c, 0, 80, 53
1, 147066, Control_c, 0, 67, 46
1, 147081, Control_c, 0, 67, 51
1, 147094, Note_on_c, 0, 83, 70
1, 147095, Control_c, 0, 67, 53
1, 147110, Control_c, 0, 67, 55
1, 147120, Note_off_c, 0, 83, 66
1, 147125, Control_c, 0, 67, 55
1, 147179, Note_on_c, 0, 57, 50
1, 147181, Note_on_c, 0, 62, 58
1, 147185, Note_on_c, 0, 50, 50
1, 147188, Note_on_c, 0, 86, 68
1, 147206, Note_on_c, 0, 54, 32
1, 147226, Note_off_c, 0, 86, 58
1, 147244, Control_c, 0, 67, 56
1, 147265, Note_on_c, 0, 87, 62
1, 147295, Note_off_c, 0, 57, 53
1, 147296, Note_off_c, 0, 87, 65
1, 147303, Note_off_c, 0, 62, 55
1, 147305, Note_off_c, 0, 50, 55
1, 147319, Control_c, 0, 67, 56
1, 147328, Note_off_c, 0, 54, 34
1, 147334, Note_on_c, 0, 86, 61
1, 147363, Control_c, 0, 67, 57
1, 147373, Note_off_c, 0, 86, 58
1, 147408, Note_on_c, 0, 89, 58
1, 147445, Control_c, 0, 67, 57
1, 147446, Note_off_c, 0, 89, 53
1, 147459, Control_c, 0, 67, 58
1, 147474, Control_c, 0, 67, 58
1, 147482, Note_on_c, 0, 90, 72
1, 147489, Control_c, 0, 67, 59
1, 147504, Note_off_c, 0, 90, 68
1, 147504, Control_c, 0, 67, 59
1, 147568, Note_on_c, 0, 91, 68
1, 147603, Note_off_c, 0, 91, 59
1, 147633, Note_on_c, 0, 90, 58
1, 147672, Note_off_c, 0, 90, 62
1, 147702, Note_on_c, 0, 92, 67
1, 147724, Note_off_c, 0, 92, 66
1, 147757, Control_c, 0, 67, 60
1, 147771, Note_on_c, 0, 93, 76
1, 147806, Note_off_c, 0, 93, 60
1, 147850, Note_on_c, 0, 94, 66
1, 147896, Note_off_c, 0, 94, 65
1, 147910, Note_on_c, 0, 93, 74
1, 147975, Note_off_c, 0, 93, 53
1, 147983, Note_on_c, 0, 97, 77
1, 147993, Control_c, 0, 64, 26
1, 148008, Control_c, 0, 64, 47
1, 148022, Control_c, 0, 64, 56
1, 148037, Control_c, 0, 64, 62
1, 148049, Note_off_c, 0, 97, 62
1, 148052, Control_c, 0, 64, 64
1, 148060, Note_on_c, 0, 98, 76
1, 148067, Control_c, 0, 64, 66
1, 148082, Control_c, 0, 64, 68
1, 148097, Control_c, 0, 64, 71
1, 148111, Control_c, 0, 64, 75
1, 148126, Control_c, 0, 64, 79
1, 148130, Note_off_c, 0, 98, 64
1, 148133, Note_on_c, 0, 97, 76
1, 148141, Control_c, 0, 64, 80
1, 148156, Note_on_c, 0, 48, 58
1, 148156, Control_c, 0, 64, 81
1, 148178, Control_c, 0, 64, 83
1, 148191, Note_off_c, 0, 97, 64
1, 148192, Control_c, 0, 64, 85
1, 148207, Note_on_c, 0, 98, 67
1, 148207, Control_c, 0, 64, 87
1, 148222, Control_c, 0, 64, 91
1, 148237, Control_c, 0, 64, 94
1, 148252, Control_c, 0, 64, 95
1, 148260, Note_off_c, 0, 98, 65
1, 148261, Note_on_c, 0, 55, 60
1, 148267, Control_c, 0, 67, 61
1, 148272, Note_on_c, 0, 97, 68
1, 148273, Note_off_c, 0, 48, 60
1, 148282, Control_c, 0, 67, 63
1, 148297, Control_c, 0, 67, 68
1, 148302, Note_off_c, 0, 97, 61
1, 148311, Control_c, 0, 64, 93
1, 148311, Control_c, 0, 67, 74
1, 148323, Note_on_c, 0, 63, 77
1, 148326, Control_c, 0, 64, 86
1, 148326, Control_c, 0, 67, 79
1, 148334, Note_on_c, 0, 99, 83
1, 148337, Note_on_c, 0, 96, 79
1, 148340, Note_off_c, 0, 55, 64
1, 148341, Control_c, 0, 64, 78
1, 148341, Control_c, 0, 67, 84
1, 148353, Note_off_c, 0, 63, 66
1, 148356, Control_c, 0, 64, 67
1, 148356, Control_c, 0, 67, 88
1, 148371, Control_c, 0, 64, 13
1, 148371, Control_c, 0, 67, 90
1, 148379, Note_off_c, 0, 96, 61
1, 148386, Control_c, 0, 64, 0
1, 148386, Control_c, 0, 67, 92
1, 148393, Note_off_c, 0, 99, 67
1, 148401, Control_c, 0, 67, 93
1, 148416, Control_c, 0, 67, 94
1, 148417, Note_on_c, 0, 95, 77
1, 148431, Control_c, 0, 67, 94
1, 148446, Control_c, 0, 67, 95
1, 148489, Note_on_c, 0, 96, 76
1, 148489, Note_off_c, 0, 95, 62
1, 148547, Note_off_c, 0, 96, 58
1, 148561, Note_on_c, 0, 94, 70
1, 148596, Note_off_c, 0, 94, 63
1, 148618, Note_on_c, 0, 93, 75
1, 148638, Control_c, 0, 67, 94
1, 148650, Note_off_c, 0, 93, 58
1, 148696, Note_on_c, 0, 91, 68
1, 148727, Control_c, 0, 67, 94
1, 148736, Note_off_c, 0, 91, 59
1, 148760, Note_on_c, 0, 92, 70
1, 148771, Control_c, 0, 67, 93
1, 148786, Control_c, 0, 64, 47
1, 148801, Control_c, 0, 64, 67
1, 148815, Control_c, 0, 64, 72
1, 148815, Control_c, 0, 67, 93
1, 148816, Note_off_c, 0, 92, 65
1, 148817, Note_on_c, 0, 41, 39
1, 148823, Note_on_c, 0, 90, 59
1, 148830, Control_c, 0, 64, 77
1, 148840, Note_off_c, 0, 90, 64
1, 148841, Note_on_c, 0, 48, 53
1, 148845, Control_c, 0, 64, 80
1, 148855, Note_off_c, 0, 41, 56
1, 148860, Control_c, 0, 64, 81
1, 148871, Note_on_c, 0, 51, 60
1, 148875, Control_c, 0, 64, 82
1, 148882, Note_off_c, 0, 48, 63
1, 148891, Note_on_c, 0, 101, 83
1, 148903, Note_on_c, 0, 89, 76
1, 148918, Note_off_c, 0, 101, 72
1, 148925, Note_on_c, 0, 57, 63
1, 148927, Note_off_c, 0, 51, 54
1, 148934, Note_off_c, 0, 89, 70
1, 148941, Control_c, 0, 64, 81
1, 148956, Control_c, 0, 64, 80
1, 148971, Control_c, 0, 64, 78
1, 148986, Control_c, 0, 64, 74
1, 148995, Note_on_c, 0, 88, 85
1, 148999, Note_off_c, 0, 57, 58
1, 149001, Control_c, 0, 64, 66
1, 149016, Control_c, 0, 64, 38
1, 149023, Note_off_c, 0, 88, 58
1, 149030, Control_c, 0, 64, 0
1, 149066, Note_on_c, 0, 89, 76
1, 149111, Note_off_c, 0, 89, 63
1, 149129, Note_on_c, 0, 87, 74
1, 149164, Control_c, 0, 67, 93
1, 149171, Note_off_c, 0, 87, 62
1, 149194, Note_on_c, 0, 86, 68
1, 149249, Note_off_c, 0, 86, 60
1, 149261, Note_on_c, 0, 85, 62
1, 149306, Note_off_c, 0, 85, 65
1, 149322, Note_on_c, 0, 84, 63
1, 149328, Control_c, 0, 67, 93
1, 149354, Note_off_c, 0, 84, 66
1, 149373, Note_on_c, 0, 83, 64
1, 149387, Control_c, 0, 67, 92
1, 149394, Note_off_c, 0, 83, 61
1, 149417, Control_c, 0, 64, 54
1, 149417, Control_c, 0, 67, 91
1, 149432, Control_c, 0, 64, 63
1, 149437, Note_on_c, 0, 46, 51
1, 149446, Control_c, 0, 64, 65
1, 149446, Control_c, 0, 67, 90
1, 149461, Control_c, 0, 64, 68
1, 149461, Control_c, 0, 67, 90
1, 149472, Note_on_c, 0, 82, 69
1, 149476, Control_c, 0, 64, 71
1, 149476, Control_c, 0, 67, 89
1, 149485, Note_off_c, 0, 46, 61
1, 149490, Note_off_c, 0, 82, 63
1, 149490, Control_c, 0, 64, 74
1, 149490, Control_c, 0, 67, 89
1, 149505, Control_c, 0, 64, 77
1, 149517, Note_on_c, 0, 53, 46
1, 149520, Control_c, 0, 64, 78
1, 149520, Control_c, 0, 67, 88
1, 149535, Control_c, 0, 64, 79
1, 149535, Control_c, 0, 67, 87
1, 149550, Control_c, 0, 64, 80
1, 149550, Control_c, 0, 67, 86
1, 149552, Note_on_c, 0, 98, 91
1, 149564, Control_c, 0, 67, 85
1, 149576, Note_on_c, 0, 62, 60
1, 149579, Note_off_c, 0, 98, 64
1, 149579, Control_c, 0, 64, 81
1, 149579, Control_c, 0, 67, 84
1, 149594, Control_c, 0, 64, 82
1, 149594, Control_c, 0, 67, 81
1, 149598, Note_off_c, 0, 62, 62
1, 149609, Control_c, 0, 64, 83
1, 149609, Control_c, 0, 67, 76
1, 149610, Note_off_c, 0, 53, 37
1, 149624, Control_c, 0, 64, 84
1, 149624, Control_c, 0, 67, 70
1, 149638, Control_c, 0, 67, 62
1, 149653, Control_c, 0, 67, 53
1, 149676, Control_c, 0, 67, 47
1, 149691, Control_c, 0, 67, 43
1, 149705, Control_c, 0, 67, 42
1, 149735, Control_c, 0, 67, 41
1, 149750, Control_c, 0, 67, 41
1, 149765, Control_c, 0, 67, 40
1, 149779, Control_c, 0, 67, 37
1, 149794, Control_c, 0, 67, 34
1, 149809, Control_c, 0, 67, 30
1, 149824, Control_c, 0, 67, 27
1, 149839, Control_c, 0, 67, 23
1, 149853, Control_c, 0, 67, 15
1, 149868, Control_c, 0, 67, 0
1, 149884, Note_on_c, 0, 38, 58
1, 149927, Control_c, 0, 64, 83
1, 149943, Control_c, 0, 64, 81
1, 149944, Note_off_c, 0, 38, 61
1, 149957, Note_on_c, 0, 39, 61
1, 149958, Control_c, 0, 64, 79
1, 149973, Control_c, 0, 64, 76
1, 149987, Control_c, 0, 64, 72
1, 150002, Control_c, 0, 64, 67
1, 150015, Note_off_c, 0, 39, 61
1, 150017, Control_c, 0, 64, 63
1, 150028, Note_on_c, 0, 38, 63
1, 150032, Control_c, 0, 64, 62
1, 150071, Note_off_c, 0, 38, 65
1, 150091, Control_c, 0, 64, 61
1, 150109, Note_on_c, 0, 40, 69
1, 150121, Control_c, 0, 64, 60
1, 150136, Control_c, 0, 64, 60
1, 150151, Control_c, 0, 64, 59
1, 150166, Control_c, 0, 64, 57
1, 150180, Control_c, 0, 64, 54
1, 150193, Note_on_c, 0, 62, 80
1, 150195, Control_c, 0, 64, 48
1, 150199, Note_on_c, 0, 53, 69
1, 150199, Note_on_c, 0, 56, 63
1, 150199, Note_on_c, 0, 59, 61
1, 150203, Note_off_c, 0, 40, 58
1, 150210, Control_c, 0, 64, 41
1, 150219, Note_on_c, 0, 41, 55
1, 150225, Control_c, 0, 64, 30
1, 150240, Control_c, 0, 64, 25
1, 150269, Note_off_c, 0, 41, 64
1, 150290, Note_on_c, 0, 42, 57
1, 150329, Control_c, 0, 64, 24
1, 150342, Note_off_c, 0, 42, 63
1, 150361, Note_on_c, 0, 41, 65
1, 150388, Control_c, 0, 64, 21
1, 150389, Note_off_c, 0, 41, 67
1, 150403, Control_c, 0, 64, 0
1, 150429, Note_on_c, 0, 43, 69
1, 150487, Note_off_c, 0, 43, 58
1, 150493, Note_on_c, 0, 44, 67
1, 150543, Note_off_c, 0, 44, 62
1, 150556, Note_off_c, 0, 53, 66
1, 150558, Note_on_c, 0, 45, 66
1, 150567, Note_off_c, 0, 56, 63
1, 150604, Note_off_c, 0, 45, 65
1, 150621, Note_off_c, 0, 62, 39
1, 150629, Note_off_c, 0, 59, 64
1, 150639, Note_on_c, 0, 44, 64
1, 150701, Note_off_c, 0, 44, 57
1, 150711, Note_on_c, 0, 46, 68
1, 150760, Note_off_c, 0, 46, 62
1, 150793, Note_on_c, 0, 47, 68
1, 150847, Note_off_c, 0, 47, 62
1, 150862, Note_on_c, 0, 48, 63
1, 150899, Note_off_c, 0, 48, 65
1, 150938, Note_on_c, 0, 86, 83
1, 150941, Note_on_c, 0, 47, 58
1, 150948, Note_on_c, 0, 80, 68
1, 150949, Note_on_c, 0, 77, 64
1, 150970, Note_off_c, 0, 77, 63
1, 150974, Note_off_c, 0, 80, 68
1, 150984, Note_off_c, 0, 86, 59
1, 150991, Note_off_c, 0, 47, 63
1, 151022, Note_on_c, 0, 49, 62
1, 151056, Note_off_c, 0, 49, 64
1, 151086, Note_on_c, 0, 85, 81
1, 151087, Note_on_c, 0, 50, 66
1, 151096, Note_on_c, 0, 77, 71
1, 151103, Note_on_c, 0, 80, 66
1, 151122, Note_off_c, 0, 80, 66
1, 151123, Note_off_c, 0, 77, 64
1, 151137, Note_off_c, 0, 85, 63
1, 151144, Note_off_c, 0, 50, 60
1, 151170, Note_on_c, 0, 51, 59
1, 151221, Note_off_c, 0, 51, 60
1, 151239, Note_on_c, 0, 84, 81
1, 151242, Note_on_c, 0, 50, 59
1, 151248, Note_on_c, 0, 77, 64
1, 151250, Note_on_c, 0, 80, 61
1, 151268, Note_off_c, 0, 77, 65
1, 151275, Note_off_c, 0, 80, 65
1, 151277, Note_off_c, 0, 50, 63
1, 151277, Note_off_c, 0, 84, 65
1, 151277, Control_c, 0, 67, 10
1, 151292, Control_c, 0, 67, 15
1, 151307, Control_c, 0, 67, 22
1, 151309, Note_on_c, 0, 52, 68
1, 151322, Control_c, 0, 67, 31
1, 151337, Control_c, 0, 67, 38
1, 151352, Control_c, 0, 67, 46
1, 151367, Control_c, 0, 67, 52
1, 151382, Control_c, 0, 67, 59
1, 151384, Note_off_c, 0, 52, 61
1, 151394, Note_on_c, 0, 53, 63
1, 151397, Control_c, 0, 67, 64
1, 151398, Note_on_c, 0, 83, 74
1, 151406, Note_on_c, 0, 80, 69
1, 151409, Note_on_c, 0, 74, 54
1, 151412, Control_c, 0, 67, 70
1, 151426, Control_c, 0, 67, 75
1, 151430, Note_off_c, 0, 74, 64
1, 151441, Control_c, 0, 67, 78
1, 151456, Control_c, 0, 67, 81
1, 151461, Note_off_c, 0, 53, 62
1, 151470, Note_off_c, 0, 80, 48
1, 151470, Control_c, 0, 67, 83
1, 151483, Note_on_c, 0, 54, 56
1, 151485, Control_c, 0, 67, 84
1, 151487, Note_off_c, 0, 83, 58
1, 151500, Control_c, 0, 67, 84
1, 151546, Note_off_c, 0, 54, 58
1, 151546, Control_c, 0, 67, 85
1, 151556, Note_on_c, 0, 86, 76
1, 151560, Note_on_c, 0, 53, 57
1, 151560, Control_c, 0, 67, 86
1, 151575, Control_c, 0, 67, 87
1, 151581, Note_off_c, 0, 86, 66
1, 151590, Control_c, 0, 67, 88
1, 151594, Note_off_c, 0, 53, 66
1, 151605, Control_c, 0, 67, 88
1, 151620, Control_c, 0, 67, 89
1, 151629, Note_on_c, 0, 55, 61
1, 151679, Control_c, 0, 67, 89
1, 151691, Note_on_c, 0, 85, 63
1, 151707, Note_off_c, 0, 55, 63
1, 151716, Note_off_c, 0, 85, 69
1, 151723, Note_on_c, 0, 56, 50
1, 151724, Control_c, 0, 67, 90
1, 151754, Control_c, 0, 67, 90
1, 151755, Note_on_c, 0, 84, 61
1, 151765, Note_off_c, 0, 56, 62
1, 151767, Control_c, 0, 67, 91
1, 151782, Control_c, 0, 67, 94
1, 151784, Note_on_c, 0, 57, 55
1, 151797, Control_c, 0, 67, 98
1, 151812, Control_c, 0, 67, 102
1, 151816, Note_off_c, 0, 84, 60
1, 151817, Note_on_c, 0, 83, 65
1, 151825, Note_off_c, 0, 57, 62
1, 151827, Control_c, 0, 67, 107
1, 151841, Control_c, 0, 67, 111
1, 151844, Note_off_c, 0, 83, 64
1, 151856, Control_c, 0, 67, 115
1, 151865, Note_on_c, 0, 56, 52
1, 151871, Control_c, 0, 67, 118
1, 151886, Control_c, 0, 67, 120
1, 151900, Control_c, 0, 67, 122
1, 151923, Control_c, 0, 67, 122
1, 151931, Note_off_c, 0, 56, 49
1, 151963, Note_on_c, 0, 59, 49
1, 151974, Note_on_c, 0, 78, 61
1, 151982, Control_c, 0, 64, 50
1, 151994, Note_on_c, 0, 50, 31
1, 151997, Control_c, 0, 64, 63
1, 151999, Note_off_c, 0, 78, 62
1, 152012, Control_c, 0, 64, 67
1, 152027, Control_c, 0, 64, 70
1, 152027, Control_c, 0, 67, 121
1, 152030, Note_on_c, 0, 86, 63
1, 152031, Note_off_c, 0, 50, 48
1, 152035, Note_off_c, 0, 59, 53
1, 152041, Control_c, 0, 64, 75
1, 152056, Control_c, 0, 64, 78
1, 152056, Control_c, 0, 67, 121
1, 152070, Note_on_c, 0, 93, 83
1, 152070, Note_on_c, 0, 62, 63
1, 152071, Control_c, 0, 64, 79
1, 152071, Control_c, 0, 67, 120
1, 152087, Note_off_c, 0, 86, 63
1, 152100, Control_c, 0, 67, 120
1, 152115, Control_c, 0, 67, 119
1, 152118, Note_off_c, 0, 93, 63
1, 152130, Control_c, 0, 67, 119
1, 152136, Note_off_c, 0, 62, 57
1, 152160, Control_c, 0, 67, 118
1, 152187, Note_on_c, 0, 63, 63
1, 152219, Control_c, 0, 67, 118
1, 152234, Control_c, 0, 64, 79
1, 152249, Control_c, 0, 64, 76
1, 152249, Note_off_c, 0, 63, 61
1, 152261, Note_on_c, 0, 62, 61
1, 152264, Control_c, 0, 64, 72
1, 152279, Control_c, 0, 64, 65
1, 152293, Note_off_c, 0, 62, 64
1, 152293, Control_c, 0, 64, 33
1, 152308, Control_c, 0, 64, 0
1, 152327, Note_on_c, 0, 65, 59
1, 152382, Note_off_c, 0, 65, 54
1, 152395, Note_on_c, 0, 66, 63
1, 152398, Control_c, 0, 67, 117
1, 152438, Note_off_c, 0, 66, 66
1, 152463, Note_on_c, 0, 67, 59
1, 152502, Control_c, 0, 67, 117
1, 152504, Note_off_c, 0, 67, 63
1, 152541, Note_on_c, 0, 66, 57
1, 152589, Note_off_c, 0, 66, 62
1, 152610, Note_on_c, 0, 68, 61
1, 152651, Note_off_c, 0, 68, 62
1, 152687, Control_c, 0, 67, 117
1, 152691, Note_on_c, 0, 69, 60
1, 152728, Note_off_c, 0, 69, 62
1, 152755, Note_on_c, 0, 70, 56
1, 152761, Control_c, 0, 67, 118
1, 152792, Note_off_c, 0, 70, 63
1, 152805, Control_c, 0, 67, 118
1, 152816, Note_on_c, 0, 69, 49
1, 152820, Control_c, 0, 67, 119
1, 152849, Control_c, 0, 67, 119
1, 152879, Note_off_c, 0, 69, 65
1, 152879, Control_c, 0, 67, 120
1, 152884, Note_on_c, 0, 73, 60
1, 152894, Control_c, 0, 67, 120
1, 152908, Control_c, 0, 67, 121
1, 152923, Control_c, 0, 67, 121
1, 152932, Note_off_c, 0, 73, 60
1, 152938, Control_c, 0, 67, 122
1, 152953, Control_c, 0, 67, 123
1, 152968, Control_c, 0, 67, 124
1, 152974, Note_on_c, 0, 74, 50
1, 152982, Control_c, 0, 67, 125
1, 152997, Control_c, 0, 67, 127
1, 153003, Note_off_c, 0, 74, 65
1, 153036, Note_on_c, 0, 73, 43
1, 153078, Note_off_c, 0, 73, 62
1, 153101, Note_on_c, 0, 74, 51
1, 153130, Note_on_c, 0, 79, 41
1, 153140, Note_off_c, 0, 74, 63
1, 153157, Note_off_c, 0, 79, 56
1, 153185, Note_on_c, 0, 73, 43
1, 153187, Note_on_c, 0, 87, 64
1, 153209, Note_off_c, 0, 73, 50
1, 153230, Note_off_c, 0, 87, 63
1, 153252, Note_on_c, 0, 96, 81
1, 153279, Note_on_c, 0, 60, 58
1, 153284, Note_off_c, 0, 96, 63
1, 153289, Note_on_c, 0, 72, 57
1, 153298, Note_off_c, 0, 60, 59
1, 153321, Note_off_c, 0, 72, 66
1, 153452, Note_on_c, 0, 72, 59
1, 153483, Note_off_c, 0, 72, 66
1, 153519, Note_on_c, 0, 70, 58
1, 153559, Note_off_c, 0, 70, 59
1, 153604, Note_on_c, 0, 69, 64
1, 153650, Note_off_c, 0, 69, 62
1, 153668, Note_on_c, 0, 67, 49
1, 153706, Note_off_c, 0, 67, 63
1, 153717, Control_c, 0, 64, 20
1, 153719, Note_on_c, 0, 68, 58
1, 153731, Control_c, 0, 64, 39
1, 153746, Control_c, 0, 64, 43
1, 153763, Note_off_c, 0, 68, 62
1, 153769, Note_on_c, 0, 66, 60
1, 153776, Control_c, 0, 64, 43
1, 153791, Control_c, 0, 64, 43
1, 153801, Note_off_c, 0, 66, 67
1, 153805, Control_c, 0, 64, 42
1, 153820, Control_c, 0, 64, 39
1, 153823, Note_on_c, 0, 87, 55
1, 153835, Control_c, 0, 64, 34
1, 153847, Note_off_c, 0, 87, 64
1, 153850, Control_c, 0, 64, 25
1, 153861, Note_on_c, 0, 93, 71
1, 153865, Control_c, 0, 64, 0
1, 153901, Note_off_c, 0, 93, 60
1, 153904, Note_on_c, 0, 101, 83
1, 153912, Note_on_c, 0, 53, 40
1, 153914, Note_on_c, 0, 65, 48
1, 153930, Note_off_c, 0, 101, 64
1, 153940, Note_off_c, 0, 65, 60
1, 153945, Note_off_c, 0, 53, 35
1, 153995, Note_on_c, 0, 64, 49
1, 154020, Note_off_c, 0, 64, 59
1, 154079, Note_on_c, 0, 65, 30
1, 154109, Note_off_c, 0, 65, 52
1, 154138, Note_on_c, 0, 63, 52
1, 154192, Note_off_c, 0, 63, 62
1, 154248, Note_on_c, 0, 62, 43
1, 154273, Note_on_c, 0, 61, 43
1, 154275, Note_off_c, 0, 62, 48
1, 154330, Note_off_c, 0, 61, 63
1, 154348, Control_c, 0, 64, 36
1, 154351, Note_on_c, 0, 60, 59
1, 154363, Control_c, 0, 64, 43
1, 154378, Control_c, 0, 64, 50
1, 154383, Note_off_c, 0, 60, 64
1, 154392, Control_c, 0, 64, 56
1, 154407, Control_c, 0, 64, 61
1, 154422, Control_c, 0, 64, 64
1, 154427, Note_on_c, 0, 59, 47
1, 154437, Control_c, 0, 64, 65
1, 154449, Note_off_c, 0, 59, 57
1, 154452, Control_c, 0, 64, 68
1, 154455, Note_on_c, 0, 86, 57
1, 154467, Control_c, 0, 64, 72
1, 154478, Note_off_c, 0, 86, 60
1, 154482, Control_c, 0, 64, 77
1, 154492, Note_on_c, 0, 94, 77
1, 154496, Control_c, 0, 64, 81
1, 154511, Control_c, 0, 64, 84
1, 154520, Note_on_c, 0, 58, 73
1, 154524, Note_on_c, 0, 101, 89
1, 154526, Control_c, 0, 64, 87
1, 154530, Note_off_c, 0, 94, 63
1, 154533, Note_on_c, 0, 46, 57
1, 154541, Control_c, 0, 64, 89
1, 154543, Note_off_c, 0, 101, 72
1, 154549, Note_off_c, 0, 58, 65
1, 154558, Note_off_c, 0, 46, 59
1, 154570, Control_c, 0, 64, 89
1, 154614, Control_c, 0, 64, 89
1, 154629, Control_c, 0, 64, 87
1, 154644, Control_c, 0, 64, 82
1, 154659, Control_c, 0, 64, 77
1, 154674, Control_c, 0, 64, 69
1, 154688, Control_c, 0, 64, 53
1, 154703, Control_c, 0, 64, 0
1, 154704, Note_on_c, 0, 58, 56
1, 154708, Note_on_c, 0, 53, 53
1, 154736, Note_on_c, 0, 50, 61
1, 154741, Note_off_c, 0, 58, 61
1, 154743, Note_off_c, 0, 53, 59
1, 154759, Note_off_c, 0, 50, 60
1, 154781, Note_on_c, 0, 62, 60
1, 154815, Note_off_c, 0, 62, 63
1, 154849, Note_on_c, 0, 58, 56
1, 154849, Note_on_c, 0, 48, 62
1, 154870, Note_off_c, 0, 48, 62
1, 154890, Note_off_c, 0, 58, 61
1, 154914, Note_on_c, 0, 62, 60
1, 154953, Note_off_c, 0, 62, 58
1, 154991, Note_on_c, 0, 55, 45
1, 154992, Note_on_c, 0, 47, 64
1, 155007, Note_on_c, 0, 58, 46
1, 155023, Note_off_c, 0, 55, 52
1, 155032, Note_off_c, 0, 47, 64
1, 155032, Note_off_c, 0, 58, 60
1, 155065, Note_on_c, 0, 62, 49
1, 155090, Note_off_c, 0, 62, 59
1, 155122, Note_on_c, 0, 58, 59
1, 155141, Note_on_c, 0, 46, 57
1, 155156, Note_on_c, 0, 54, 28
1, 155172, Note_off_c, 0, 46, 63
1, 155173, Note_off_c, 0, 58, 57
1, 155189, Note_off_c, 0, 54, 43
1, 155193, Note_on_c, 0, 62, 55
1, 155244, Note_off_c, 0, 62, 58
1, 155282, Note_on_c, 0, 50, 69
1, 155299, Note_on_c, 0, 58, 42
1, 155304, Note_on_c, 0, 53, 18
1, 155317, Note_off_c, 0, 50, 63
1, 155343, Note_off_c, 0, 58, 60
1, 155345, Note_off_c, 0, 53, 52
1, 155368, Note_on_c, 0, 62, 57
1, 155406, Note_off_c, 0, 62, 62
1, 155436, Note_on_c, 0, 48, 54
1, 155450, Note_on_c, 0, 58, 52
1, 155483, Note_off_c, 0, 48, 66
1, 155495, Note_on_c, 0, 47, 64
1, 155497, Note_off_c, 0, 58, 61
1, 155512, Note_on_c, 0, 62, 42
1, 155541, Note_off_c, 0, 62, 47
1, 155551, Note_off_c, 0, 47, 62
1, 155570, Note_on_c, 0, 46, 66
1, 155593, Note_off_c, 0, 46, 60
1, 155625, Note_on_c, 0, 62, 49
1, 155650, Note_off_c, 0, 62, 53
1, 155715, Note_on_c, 0, 54, 37
1, 155716, Note_on_c, 0, 57, 48
1, 155755, Note_off_c, 0, 57, 63
1, 155757, Control_c, 0, 64, 58
1, 155761, Note_off_c, 0, 54, 44
1, 155772, Control_c, 0, 64, 66
1, 155776, Note_on_c, 0, 63, 64
1, 155787, Control_c, 0, 64, 70
1, 155802, Control_c, 0, 64, 74
1, 155806, Note_off_c, 0, 63, 66
1, 155816, Control_c, 0, 64, 78
1, 155831, Control_c, 0, 64, 82
1, 155846, Control_c, 0, 64, 83
1, 155860, Control_c, 0, 64, 84
1, 155905, Control_c, 0, 64, 83
1, 155920, Control_c, 0, 64, 79
1, 155934, Control_c, 0, 64, 72
1, 155935, Note_on_c, 0, 87, 76
1, 155947, Note_on_c, 0, 81, 66
1, 155949, Control_c, 0, 64, 55
1, 155954, Note_on_c, 0, 78, 61
1, 155964, Note_off_c, 0, 81, 61
1, 155964, Control_c, 0, 64, 0
1, 156009, Note_on_c, 0, 84, 71
1, 156009, Note_off_c, 0, 87, 63
1, 156017, Note_off_c, 0, 78, 53
1, 156083, Note_on_c, 0, 71, 38
1, 156083, Note_on_c, 0, 74, 53
1, 156090, Note_on_c, 0, 80, 76
1, 156098, Note_off_c, 0, 84, 63
1, 156103, Note_off_c, 0, 74, 63
1, 156111, Note_off_c, 0, 71, 34
1, 156131, Note_off_c, 0, 80, 58
1, 156157, Note_on_c, 0, 77, 75
1, 156200, Note_off_c, 0, 77, 61
1, 156239, Note_on_c, 0, 81, 71
1, 156243, Note_on_c, 0, 75, 39
1, 156244, Note_on_c, 0, 72, 57
1, 156263, Note_off_c, 0, 75, 52
1, 156288, Note_off_c, 0, 72, 58
1, 156292, Note_off_c, 0, 81, 57
1, 156293, Note_on_c, 0, 78, 64
1, 156366, Note_on_c, 0, 74, 67
1, 156368, Note_off_c, 0, 78, 64
1, 156378, Note_on_c, 0, 65, 14
1, 156385, Note_on_c, 0, 68, 49
1, 156410, Note_off_c, 0, 74, 59
1, 156412, Note_off_c, 0, 65, 44
1, 156416, Note_off_c, 0, 68, 60
1, 156436, Note_on_c, 0, 71, 65
1, 156472, Note_off_c, 0, 71, 60
1, 156513, Note_on_c, 0, 75, 69
1, 156522, Note_on_c, 0, 66, 63
1, 156542, Note_off_c, 0, 75, 66
1, 156570, Note_off_c, 0, 66, 58
1, 156605, Note_on_c, 0, 72, 43
1, 156609, Note_on_c, 0, 71, 50
1, 156643, Note_off_c, 0, 72, 62
1, 156645, Note_off_c, 0, 71, 57
1, 156658, Note_on_c, 0, 68, 62
1, 156667, Note_on_c, 0, 62, 46
1, 156667, Note_on_c, 0, 59, 17
1, 156703, Note_off_c, 0, 68, 62
1, 156706, Note_off_c, 0, 59, 43
1, 156709, Note_off_c, 0, 62, 51
1, 156726, Note_on_c, 0, 65, 56
1, 156762, Note_off_c, 0, 65, 66
1, 156773, Note_on_c, 0, 69, 74
1, 156799, Note_on_c, 0, 63, 42
1, 156803, Note_on_c, 0, 60, 34
1, 156828, Note_off_c, 0, 69, 62
1, 156834, Note_off_c, 0, 60, 56
1, 156846, Note_on_c, 0, 78, 60
1, 156846, Note_off_c, 0, 63, 44
1, 156864, Note_off_c, 0, 78, 64
1, 156905, Control_c, 0, 64, 63
1, 156905, Note_on_c, 0, 77, 74
1, 156914, Note_on_c, 0, 62, 51
1, 156920, Note_on_c, 0, 70, 50
1, 156920, Control_c, 0, 64, 68
1, 156926, Note_off_c, 0, 77, 66
1, 156935, Control_c, 0, 64, 72
1, 156942, Note_off_c, 0, 70, 58
1, 156950, Control_c, 0, 64, 75
1, 156964, Control_c, 0, 64, 77
1, 156979, Control_c, 0, 64, 78
1, 156994, Control_c, 0, 64, 79
1, 157052, Note_off_c, 0, 62, 49
1, 157054, Control_c, 0, 64, 78
1, 157069, Control_c, 0, 64, 75
1, 157083, Control_c, 0, 64, 70
1, 157084, Note_on_c, 0, 53, 48
1, 157092, Note_on_c, 0, 58, 50
1, 157098, Control_c, 0, 64, 62
1, 157099, Note_on_c, 0, 50, 77
1, 157113, Control_c, 0, 64, 0
1, 157127, Note_off_c, 0, 50, 68
1, 157137, Note_off_c, 0, 53, 54
1, 157137, Note_off_c, 0, 58, 62
1, 157177, Note_on_c, 0, 62, 62
1, 157209, Note_off_c, 0, 62, 63
1, 157243, Note_on_c, 0, 58, 57
1, 157244, Note_on_c, 0, 48, 67
1, 157263, Note_off_c, 0, 48, 64
1, 157265, Note_on_c, 0, 54, 16
1, 157290, Note_off_c, 0, 58, 59
1, 157307, Note_off_c, 0, 54, 29
1, 157308, Note_on_c, 0, 62, 53
1, 157347, Note_off_c, 0, 62, 62
1, 157373, Note_on_c, 0, 55, 55
1, 157385, Note_on_c, 0, 47, 60
1, 157407, Note_on_c, 0, 58, 41
1, 157417, Note_off_c, 0, 55, 62
1, 157424, Note_off_c, 0, 47, 64
1, 157432, Note_off_c, 0, 58, 59
1, 157463, Note_on_c, 0, 62, 49
1, 157492, Note_off_c, 0, 62, 56
1, 157514, Note_on_c, 0, 58, 60
1, 157534, Note_on_c, 0, 46, 59
1, 157547, Note_on_c, 0, 54, 30
1, 157568, Note_off_c, 0, 46, 63
1, 157579, Note_off_c, 0, 58, 61
1, 157579, Note_off_c, 0, 54, 46
1, 157600, Note_on_c, 0, 62, 51
1, 157639, Note_off_c, 0, 62, 62
1, 157676, Note_on_c, 0, 53, 47
1, 157682, Note_on_c, 0, 50, 63
1, 157692, Note_on_c, 0, 58, 49
1, 157711, Note_off_c, 0, 53, 55
1, 157715, Note_off_c, 0, 50, 57
1, 157724, Note_off_c, 0, 58, 61
1, 157758, Note_on_c, 0, 62, 50
1, 157795, Note_off_c, 0, 62, 63
1, 157821, Note_on_c, 0, 58, 57
1, 157832, Note_on_c, 0, 48, 53
1, 157868, Note_off_c, 0, 58, 58
1, 157881, Note_off_c, 0, 48, 66
1, 157898, Note_on_c, 0, 47, 63
1, 157914, Note_on_c, 0, 62, 45
1, 157940, Note_off_c, 0, 62, 56
1, 157965, Note_off_c, 0, 47, 62
1, 157981, Note_on_c, 0, 46, 70
1, 158016, Note_off_c, 0, 46, 62
1, 158030, Note_on_c, 0, 62, 43
1, 158056, Note_off_c, 0, 62, 54
1, 158151, Control_c, 0, 64, 21
1, 158166, Control_c, 0, 64, 62
1, 158174, Note_on_c, 0, 54, 50
1, 158181, Control_c, 0, 64, 67
1, 158184, Note_on_c, 0, 63, 56
1, 158191, Note_on_c, 0, 57, 33
1, 158196, Control_c, 0, 64, 70
1, 158211, Control_c, 0, 64, 73
1, 158211, Note_off_c, 0, 54, 62
1, 158223, Note_off_c, 0, 63, 64
1, 158224, Note_off_c, 0, 57, 43
1, 158226, Control_c, 0, 64, 76
1, 158241, Control_c, 0, 64, 79
1, 158255, Control_c, 0, 64, 82
1, 158270, Control_c, 0, 64, 84
1, 158285, Control_c, 0, 64, 85
1, 158300, Control_c, 0, 64, 85
1, 158344, Control_c, 0, 64, 85
1, 158359, Control_c, 0, 64, 82
1, 158374, Control_c, 0, 64, 75
1, 158381, Note_on_c, 0, 87, 69
1, 158389, Control_c, 0, 64, 65
1, 158403, Control_c, 0, 64, 0
1, 158415, Note_on_c, 0, 78, 59
1, 158419, Note_on_c, 0, 81, 44
1, 158444, Note_off_c, 0, 81, 47
1, 158451, Note_off_c, 0, 87, 63
1, 158456, Note_on_c, 0, 84, 69
1, 158467, Note_off_c, 0, 78, 49
1, 158536, Note_off_c, 0, 84, 63
1, 158542, Note_on_c, 0, 80, 65
1, 158550, Note_on_c, 0, 71, 21
1, 158554, Note_on_c, 0, 74, 39
1, 158579, Note_off_c, 0, 74, 53
1, 158580, Note_off_c, 0, 80, 60
1, 158587, Note_off_c, 0, 71, 31
1, 158613, Note_on_c, 0, 77, 66
1, 158643, Note_off_c, 0, 77, 63
1, 158700, Note_on_c, 0, 75, 52
1, 158700, Note_on_c, 0, 81, 67
1, 158718, Note_on_c, 0, 72, 50
1, 158721, Note_off_c, 0, 75, 61
1, 158756, Note_off_c, 0, 72, 65
1, 158768, Note_on_c, 0, 78, 59
1, 158768, Note_off_c, 0, 81, 59
1, 158828, Note_off_c, 0, 78, 63
1, 158828, Note_on_c, 0, 74, 69
1, 158843, Note_on_c, 0, 68, 55
1, 158862, Note_off_c, 0, 74, 61
1, 158865, Note_off_c, 0, 68, 62
1, 158886, Note_on_c, 0, 71, 67
1, 158912, Poly_aftertouch_c, 0, 65, 0
1, 158917, Note_off_c, 0, 71, 61
1, 158964, Note_on_c, 0, 75, 68
1, 158974, Note_on_c, 0, 66, 63
1, 159010, Note_off_c, 0, 66, 64
1, 159029, Note_off_c, 0, 75, 63
1, 159031, Note_on_c, 0, 72, 68
1, 159087, Note_off_c, 0, 72, 64
1, 159090, Note_on_c, 0, 68, 63
1, 159101, Note_on_c, 0, 59, 40
1, 159105, Note_on_c, 0, 62, 59
1, 159128, Note_off_c, 0, 68, 64
1, 159139, Note_off_c, 0, 59, 47
1, 159150, Note_off_c, 0, 62, 59
1, 159156, Note_on_c, 0, 65, 63
1, 159187, Note_off_c, 0, 65, 68
1, 159197, Note_on_c, 0, 69, 72
1, 159227, Note_off_c, 0, 69, 62
1, 159234, Note_on_c, 0, 63, 44
1, 159260, Note_off_c, 0, 63, 55
1, 159268, Note_on_c, 0, 78, 62
1, 159285, Note_off_c, 0, 78, 64
1, 159343, Control_c, 0, 64, 52
1, 159358, Control_c, 0, 64, 67
1, 159373, Control_c, 0, 64, 72
1, 159376, Note_on_c, 0, 66, 69
1, 159377, Note_on_c, 0, 46, 62
1, 159377, Note_on_c, 0, 60, 70
1, 159382, Note_on_c, 0, 57, 57
1, 159388, Control_c, 0, 64, 78
1, 159394, Note_off_c, 0, 60, 64
1, 159406, Note_on_c, 0, 51, 34
1, 159408, Note_off_c, 0, 46, 56
1, 159409, Control_c, 0, 64, 83
1, 159412, Note_off_c, 0, 57, 58
1, 159417, Note_off_c, 0, 66, 58
1, 159424, Control_c, 0, 64, 89
1, 159439, Control_c, 0, 64, 94
1, 159440, Note_off_c, 0, 51, 43
1, 159454, Control_c, 0, 64, 98
1, 159469, Control_c, 0, 64, 99
1, 159484, Control_c, 0, 64, 100
1, 159544, Control_c, 0, 64, 97
1, 159559, Control_c, 0, 64, 91
1, 159574, Control_c, 0, 64, 82
1, 159586, Note_on_c, 0, 90, 83
1, 159588, Control_c, 0, 64, 71
1, 159603, Note_on_c, 0, 81, 63
1, 159603, Control_c, 0, 64, 50
1, 159615, Note_on_c, 0, 84, 46
1, 159618, Control_c, 0, 64, 0
1, 159639, Note_off_c, 0, 84, 61
1, 159662, Note_on_c, 0, 87, 74
1, 159665, Note_off_c, 0, 81, 51
1, 159670, Note_off_c, 0, 90, 59
1, 159729, Note_on_c, 0, 83, 72
1, 159731, Note_on_c, 0, 74, 53
1, 159741, Note_on_c, 0, 77, 63
1, 159741, Note_off_c, 0, 87, 62
1, 159756, Note_off_c, 0, 74, 58
1, 159769, Note_off_c, 0, 77, 65
1, 159788, Note_off_c, 0, 83, 60
1, 159796, Note_on_c, 0, 80, 78
1, 159815, Note_off_c, 0, 80, 72
1, 159874, Note_on_c, 0, 84, 80
1, 159886, Note_on_c, 0, 75, 66
1, 159893, Note_on_c, 0, 78, 46
1, 159916, Note_off_c, 0, 78, 48
1, 159943, Note_on_c, 0, 81, 76
1, 159946, Note_off_c, 0, 75, 57
1, 159948, Note_off_c, 0, 84, 63
1, 160006, Note_on_c, 0, 71, 51
1, 160009, Note_on_c, 0, 68, 57
1, 160011, Note_on_c, 0, 77, 79
1, 160015, Note_off_c, 0, 81, 60
1, 160028, Note_off_c, 0, 71, 61
1, 160045, Note_off_c, 0, 68, 66
1, 160050, Note_off_c, 0, 77, 60
1, 160066, Note_on_c, 0, 74, 72
1, 160101, Note_off_c, 0, 74, 64
1, 160140, Note_on_c, 0, 78, 78
1, 160165, Note_on_c, 0, 69, 63
1, 160166, Note_on_c, 0, 72, 52
1, 160186, Note_off_c, 0, 72, 59
1, 160205, Note_off_c, 0, 69, 61
1, 160208, Note_off_c, 0, 78, 64
1, 160211, Note_on_c, 0, 75, 63
1, 160261, Note_on_c, 0, 71, 66
1, 160261, Note_off_c, 0, 75, 63
1, 160292, Note_on_c, 0, 62, 36
1, 160304, Note_off_c, 0, 71, 61
1, 160327, Note_on_c, 0, 63, 45
1, 160330, Note_off_c, 0, 62, 49
1, 160330, Note_on_c, 0, 68, 66
1, 160348, Note_off_c, 0, 68, 66
1, 160371, Note_on_c, 0, 66, 57
1, 160378, Note_off_c, 0, 63, 62
1, 160388, Note_on_c, 0, 72, 68
1, 160390, Note_off_c, 0, 66, 63
1, 160412, Note_off_c, 0, 72, 69
1, 160444, Note_on_c, 0, 81, 77
1, 160457, Note_off_c, 0, 81, 68
1, 160529, Note_on_c, 0, 46, 53
1, 160545, Control_c, 0, 64, 44
1, 160555, Note_on_c, 0, 54, 35
1, 160560, Control_c, 0, 64, 64
1, 160566, Note_off_c, 0, 46, 62
1, 160575, Control_c, 0, 64, 68
1, 160584, Note_off_c, 0, 54, 55
1, 160587, Note_on_c, 0, 63, 73
1, 160587, Note_on_c, 0, 69, 75
1, 160590, Control_c, 0, 64, 72
1, 160596, Note_on_c, 0, 60, 42
1, 160602, Note_off_c, 0, 63, 68
1, 160605, Control_c, 0, 64, 76
1, 160611, Note_off_c, 0, 69, 60
1, 160620, Control_c, 0, 64, 81
1, 160626, Note_off_c, 0, 60, 53
1, 160634, Control_c, 0, 64, 84
1, 160649, Control_c, 0, 64, 85
1, 160664, Control_c, 0, 64, 86
1, 160679, Control_c, 0, 64, 86
1, 160812, Control_c, 0, 64, 86
1, 160827, Control_c, 0, 64, 85
1, 160842, Control_c, 0, 64, 83
1, 160856, Control_c, 0, 64, 79
1, 160871, Control_c, 0, 64, 73
1, 160886, Control_c, 0, 64, 66
1, 160909, Control_c, 0, 64, 18
1, 160924, Control_c, 0, 64, 0
1, 160963, Note_on_c, 0, 87, 60
1, 160967, Note_on_c, 0, 84, 60
1, 160968, Note_on_c, 0, 93, 75
1, 160993, Note_off_c, 0, 84, 66
1, 160994, Note_off_c, 0, 87, 64
1, 161042, Note_off_c, 0, 93, 59
1, 161047, Note_on_c, 0, 90, 60
1, 161092, Note_off_c, 0, 90, 58
1, 161103, Note_on_c, 0, 77, 39
1, 161105, Note_on_c, 0, 86, 69
1, 161109, Note_on_c, 0, 80, 46
1, 161132, Note_off_c, 0, 86, 67
1, 161132, Note_off_c, 0, 77, 50
1, 161145, Note_off_c, 0, 80, 49
1, 161180, Note_on_c, 0, 83, 50
1, 161201, Note_off_c, 0, 83, 57
1, 161249, Note_on_c, 0, 87, 58
1, 161254, Note_on_c, 0, 81, 50
1, 161268, Note_off_c, 0, 87, 63
1, 161273, Note_on_c, 0, 78, 4
1, 161275, Note_off_c, 0, 81, 58
1, 161289, Note_off_c, 0, 78, 44
1, 161305, Note_on_c, 0, 84, 62
1, 161326, Note_off_c, 0, 84, 62
1, 161371, Note_on_c, 0, 96, 76
1, 161404, Note_on_c, 0, 90, 55
1, 161406, Note_on_c, 0, 87, 46
1, 161428, Note_off_c, 0, 90, 55
1, 161433, Note_off_c, 0, 96, 55
1, 161436, Note_off_c, 0, 87, 53
1, 161449, Note_on_c, 0, 93, 79
1, 161475, Note_off_c, 0, 93, 61
1, 161517, Note_on_c, 0, 80, 51
1, 161523, Note_on_c, 0, 89, 66
1, 161548, Note_on_c, 0, 83, 28
1, 161552, Note_off_c, 0, 80, 48
1, 161552, Note_off_c, 0, 89, 67
1, 161580, Note_off_c, 0, 83, 48
1, 161588, Note_on_c, 0, 86, 56
1, 161615, Note_off_c, 0, 86, 55
1, 161620, Control_c, 0, 67, 127
1, 161635, Control_c, 0, 67, 120
1, 161657, Control_c, 0, 67, 112
1, 161663, Note_on_c, 0, 90, 76
1, 161669, Note_on_c, 0, 84, 33
1, 161671, Note_on_c, 0, 81, 34
1, 161672, Control_c, 0, 67, 103
1, 161687, Control_c, 0, 67, 93
1, 161700, Note_off_c, 0, 81, 34
1, 161701, Note_off_c, 0, 84, 45
1, 161702, Control_c, 0, 67, 77
1, 161703, Note_off_c, 0, 90, 64
1, 161717, Control_c, 0, 67, 59
1, 161731, Control_c, 0, 67, 36
1, 161732, Note_on_c, 0, 87, 70
1, 161746, Control_c, 0, 67, 11
1, 161761, Control_c, 0, 67, 0
1, 161774, Note_off_c, 0, 87, 54
1, 161784, Note_on_c, 0, 99, 81
1, 161804, Note_on_c, 0, 90, 61
1, 161822, Note_on_c, 0, 93, 41
1, 161833, Note_on_c, 0, 100, 51
1, 161836, Note_off_c, 0, 99, 66
1, 161851, Note_off_c, 0, 93, 46
1, 161860, Note_off_c, 0, 90, 53
1, 161860, Note_off_c, 0, 100, 58
1, 161861, Note_on_c, 0, 96, 77
1, 161928, Note_on_c, 0, 92, 83
1, 161928, Note_off_c, 0, 96, 60
1, 161930, Note_on_c, 0, 83, 44
1, 161954, Note_off_c, 0, 83, 56
1, 161994, Note_on_c, 0, 89, 72
1, 161998, Note_off_c, 0, 92, 65
1, 162012, Poly_aftertouch_c, 0, 86, 0
1, 162032, Note_off_c, 0, 89, 67
1, 162043, Note_on_c, 0, 93, 78
1, 162055, Note_on_c, 0, 84, 56
1, 162056, Note_on_c, 0, 87, 58
1, 162079, Note_off_c, 0, 84, 65
1, 162086, Note_off_c, 0, 87, 62
1, 162101, Note_off_c, 0, 93, 62
1, 162127, Note_on_c, 0, 90, 78
1, 162155, Note_off_c, 0, 90, 64
1, 162162, Control_c, 0, 67, 8
1, 162176, Control_c, 0, 67, 14
1, 162191, Control_c, 0, 67, 23
1, 162193, Note_on_c, 0, 100, 75
1, 162203, Note_on_c, 0, 83, 51
1, 162205, Note_on_c, 0, 80, 42
1, 162206, Control_c, 0, 67, 33
1, 162220, Control_c, 0, 67, 41
1, 162235, Note_off_c, 0, 80, 54
1, 162235, Control_c, 0, 67, 49
1, 162241, Note_off_c, 0, 83, 49
1, 162248, Note_off_c, 0, 100, 61
1, 162250, Control_c, 0, 67, 57
1, 162265, Control_c, 0, 67, 65
1, 162276, Note_on_c, 0, 87, 60
1, 162280, Control_c, 0, 67, 73
1, 162294, Control_c, 0, 67, 83
1, 162304, Note_off_c, 0, 87, 62
1, 162309, Control_c, 0, 67, 96
1, 162324, Control_c, 0, 67, 107
1, 162339, Control_c, 0, 67, 117
1, 162345, Note_on_c, 0, 84, 44
1, 162354, Control_c, 0, 67, 125
1, 162354, Note_on_c, 0, 101, 67
1, 162355, Note_on_c, 0, 81, 27
1, 162368, Control_c, 0, 67, 127
1, 162382, Note_off_c, 0, 84, 49
1, 162389, Note_off_c, 0, 81, 46
1, 162390, Note_off_c, 0, 101, 57
1, 162420, Note_on_c, 0, 87, 53
1, 162459, Note_off_c, 0, 87, 61
1, 162475, Note_on_c, 0, 80, 44
1, 162486, Note_on_c, 0, 100, 65
1, 162501, Note_on_c, 0, 83, 23
1, 162515, Note_off_c, 0, 80, 47
1, 162540, Note_off_c, 0, 100, 62
1, 162542, Note_off_c, 0, 83, 46
1, 162567, Note_on_c, 0, 87, 57
1, 162599, Note_off_c, 0, 87, 59
1, 162638, Note_on_c, 0, 84, 40
1, 162642, Note_on_c, 0, 101, 61
1, 162669, Note_off_c, 0, 84, 52
1, 162676, Note_off_c, 0, 101, 50
1, 162727, Note_on_c, 0, 87, 40
1, 162754, Note_off_c, 0, 87, 55
1, 162772, Note_on_c, 0, 80, 39
1, 162779, Note_on_c, 0, 100, 62
1, 162781, Note_on_c, 0, 83, 42
1, 162808, Note_off_c, 0, 80, 50
1, 162819, Note_off_c, 0, 83, 46
1, 162852, Note_on_c, 0, 87, 45
1, 162888, Note_off_c, 0, 87, 60
1, 162912, Note_on_c, 0, 84, 42
1, 162934, Note_on_c, 0, 101, 65
1, 162936, Note_off_c, 0, 84, 58
1, 162954, Control_c, 0, 64, 41
1, 162969, Control_c, 0, 64, 57
1, 162973, Note_off_c, 0, 100, 42
1, 162984, Control_c, 0, 64, 62
1, 162998, Control_c, 0, 64, 63
1, 163004, Note_off_c, 0, 101, 60
1, 163013, Control_c, 0, 64, 64
1, 163028, Control_c, 0, 64, 65
1, 163037, Note_on_c, 0, 87, 32
1, 163043, Control_c, 0, 64, 67
1, 163055, Note_off_c, 0, 87, 49
1, 163058, Control_c, 0, 64, 68
1, 163073, Control_c, 0, 64, 69
1, 163088, Control_c, 0, 64, 71
1, 163092, Note_on_c, 0, 101, 64
1, 163103, Control_c, 0, 64, 72
1, 163117, Control_c, 0, 64, 73
1, 163126, Poly_aftertouch_c, 0, 86, 127
1, 163132, Control_c, 0, 64, 74
1, 163150, Note_off_c, 0, 101, 60
1, 163154, Control_c, 0, 64, 75
1, 163168, Poly_aftertouch_c, 0, 86, 0
1, 163169, Control_c, 0, 64, 76
1, 163184, Control_c, 0, 64, 77
1, 163198, Control_c, 0, 64, 78
1, 163213, Control_c, 0, 64, 79
1, 163228, Control_c, 0, 64, 80
1, 163243, Control_c, 0, 64, 80
1, 163310, Note_on_c, 0, 90, 21
1, 163349, Note_off_c, 0, 90, 38
1, 163350, Note_on_c, 0, 94, 65
1, 163365, Note_on_c, 0, 89, 53
1, 163376, Control_c, 0, 64, 79
1, 163386, Note_off_c, 0, 89, 59
1, 163391, Control_c, 0, 64, 78
1, 163406, Control_c, 0, 64, 77
1, 163421, Note_on_c, 0, 90, 74
1, 163421, Control_c, 0, 64, 74
1, 163422, Note_off_c, 0, 94, 63
1, 163436, Note_on_c, 0, 86, 55
1, 163436, Control_c, 0, 64, 71
1, 163445, Note_off_c, 0, 90, 67
1, 163450, Control_c, 0, 64, 67
1, 163463, Note_on_c, 0, 89, 72
1, 163465, Control_c, 0, 64, 63
1, 163472, Note_off_c, 0, 86, 50
1, 163480, Control_c, 0, 64, 55
1, 163487, Note_off_c, 0, 89, 68
1, 163495, Control_c, 0, 64, 46
1, 163502, Note_on_c, 0, 82, 50
1, 163510, Control_c, 0, 64, 39
1, 163526, Control_c, 0, 64, 33
1, 163530, Note_off_c, 0, 82, 59
1, 163541, Control_c, 0, 64, 0
1, 163556, Note_on_c, 0, 86, 73
1, 163607, Note_on_c, 0, 77, 57
1, 163619, Note_on_c, 0, 82, 68
1, 163622, Note_off_c, 0, 86, 63
1, 163637, Note_off_c, 0, 77, 60
1, 163679, Note_off_c, 0, 82, 62
1, 163687, Note_on_c, 0, 78, 76
1, 163705, Note_on_c, 0, 74, 46
1, 163726, Note_off_c, 0, 78, 64
1, 163732, Note_off_c, 0, 74, 55
1, 163744, Note_on_c, 0, 77, 72
1, 163771, Note_on_c, 0, 70, 55
1, 163796, Note_off_c, 0, 77, 53
1, 163815, Note_off_c, 0, 70, 62
1, 163821, Note_on_c, 0, 78, 73
1, 163857, Note_on_c, 0, 74, 35
1, 163875, Note_off_c, 0, 78, 62
1, 163882, Note_off_c, 0, 74, 57
1, 163903, Note_on_c, 0, 82, 70
1, 163929, Note_on_c, 0, 77, 65
1, 163933, Note_off_c, 0, 82, 66
1, 163959, Note_off_c, 0, 77, 62
1, 163967, Note_on_c, 0, 86, 70
1, 163991, Note_off_c, 0, 86, 69
1, 164042, Note_on_c, 0, 78, 44
1, 164042, Note_on_c, 0, 89, 75
1, 164073, Note_off_c, 0, 89, 60
1, 164111, Note_on_c, 0, 90, 63
1, 164117, Note_on_c, 0, 86, 53
1, 164133, Note_off_c, 0, 78, 32
1, 164157, Note_off_c, 0, 90, 56
1, 164161, Note_off_c, 0, 86, 54
1, 164173, Note_on_c, 0, 94, 66
1, 164200, Note_on_c, 0, 89, 49
1, 164231, Note_off_c, 0, 89, 56
1, 164237, Note_on_c, 0, 98, 72
1, 164238, Note_off_c, 0, 94, 63
1, 164244, Control_c, 0, 64, 34
1, 164259, Control_c, 0, 64, 63
1, 164260, Note_on_c, 0, 82, 48
1, 164274, Control_c, 0, 64, 67
1, 164280, Note_off_c, 0, 98, 62
1, 164289, Control_c, 0, 64, 71
1, 164293, Note_off_c, 0, 82, 56
1, 164304, Control_c, 0, 64, 75
1, 164319, Control_c, 0, 64, 78
1, 164334, Control_c, 0, 64, 79
1, 164349, Control_c, 0, 64, 80
1, 164364, Control_c, 0, 64, 80
1, 164408, Control_c, 0, 64, 81
1, 164428, Note_on_c, 0, 86, 75
1, 164429, Note_on_c, 0, 78, 60
1, 164447, Note_off_c, 0, 78, 63
1, 164484, Note_off_c, 0, 86, 60
1, 164497, Control_c, 0, 64, 80
1, 164498, Note_on_c, 0, 82, 72
1, 164512, Control_c, 0, 64, 79
1, 164527, Control_c, 0, 64, 77
1, 164542, Control_c, 0, 64, 74
1, 164557, Control_c, 0, 64, 70
1, 164559, Note_on_c, 0, 78, 69
1, 164564, Note_off_c, 0, 82, 64
1, 164571, Control_c, 0, 64, 66
1, 164574, Note_on_c, 0, 74, 55
1, 164586, Control_c, 0, 64, 62
1, 164589, Note_off_c, 0, 78, 64
1, 164601, Control_c, 0, 64, 56
1, 164605, Note_off_c, 0, 74, 56
1, 164609, Note_on_c, 0, 77, 60
1, 164615, Control_c, 0, 64, 52
1, 164630, Control_c, 0, 64, 48
1, 164635, Note_off_c, 0, 77, 66
1, 164653, Control_c, 0, 64, 43
1, 164662, Note_on_c, 0, 70, 46
1, 164668, Control_c, 0, 64, 36
1, 164683, Control_c, 0, 64, 21
1, 164683, Note_on_c, 0, 66, 46
1, 164686, Note_off_c, 0, 70, 53
1, 164697, Control_c, 0, 64, 0
1, 164706, Note_off_c, 0, 66, 59
1, 164712, Note_on_c, 0, 74, 63
1, 164758, Note_on_c, 0, 65, 60
1, 164767, Note_on_c, 0, 70, 64
1, 164769, Note_off_c, 0, 74, 63
1, 164786, Note_off_c, 0, 65, 67
1, 164825, Note_off_c, 0, 70, 63
1, 164832, Note_on_c, 0, 66, 65
1, 164839, Note_on_c, 0, 62, 55
1, 164870, Note_off_c, 0, 66, 68
1, 164874, Note_off_c, 0, 62, 55
1, 164895, Note_on_c, 0, 65, 65
1, 164908, Note_on_c, 0, 58, 53
1, 164953, Note_off_c, 0, 58, 62
1, 164954, Note_off_c, 0, 65, 54
1, 164969, Note_on_c, 0, 66, 71
1, 164994, Note_on_c, 0, 62, 41
1, 165021, Note_off_c, 0, 62, 58
1, 165024, Note_off_c, 0, 66, 63
1, 165037, Note_on_c, 0, 70, 70
1, 165064, Note_off_c, 0, 70, 69
1, 165066, Note_on_c, 0, 65, 68
1, 165101, Note_on_c, 0, 74, 76
1, 165101, Note_off_c, 0, 65, 63
1, 165123, Note_off_c, 0, 74, 72
1, 165183, Note_on_c, 0, 77, 76
1, 165184, Note_on_c, 0, 66, 36
1, 165218, Note_off_c, 0, 77, 57
1, 165244, Note_off_c, 0, 66, 47
1, 165247, Note_on_c, 0, 78, 65
1, 165255, Note_on_c, 0, 74, 54
1, 165289, Note_off_c, 0, 78, 61
1, 165304, Note_on_c, 0, 82, 67
1, 165313, Note_off_c, 0, 74, 49
1, 165359, Note_on_c, 0, 77, 39
1, 165389, Note_on_c, 0, 86, 72
1, 165389, Note_off_c, 0, 82, 63
1, 165394, Note_off_c, 0, 77, 54
1, 165409, Note_on_c, 0, 70, 45
1, 165416, Control_c, 0, 64, 63
1, 165431, Control_c, 0, 64, 70
1, 165433, Note_off_c, 0, 86, 61
1, 165440, Note_off_c, 0, 70, 55
1, 165446, Control_c, 0, 64, 76
1, 165461, Control_c, 0, 64, 80
1, 165475, Control_c, 0, 64, 81
1, 165490, Control_c, 0, 64, 82
1, 165505, Control_c, 0, 64, 82
1, 165520, Control_c, 0, 64, 83
1, 165586, Note_on_c, 0, 74, 63
1, 165588, Note_on_c, 0, 66, 55
1, 165609, Note_off_c, 0, 66, 63
1, 165647, Note_off_c, 0, 74, 63
1, 165650, Note_on_c, 0, 70, 67
1, 165673, Note_on_c, 0, 65, 47
1, 165698, Note_off_c, 0, 65, 56
1, 165708, Note_on_c, 0, 66, 70
1, 165717, Note_off_c, 0, 70, 63
1, 165727, Note_on_c, 0, 62, 58
1, 165751, Note_off_c, 0, 62, 58
1, 165757, Note_off_c, 0, 66, 65
1, 165767, Note_on_c, 0, 65, 71
1, 165771, Control_c, 0, 64, 82
1, 165786, Control_c, 0, 64, 82
1, 165790, Note_off_c, 0, 65, 67
1, 165801, Note_on_c, 0, 58, 46
1, 165801, Control_c, 0, 64, 81
1, 165816, Control_c, 0, 64, 79
1, 165826, Note_off_c, 0, 58, 59
1, 165831, Control_c, 0, 64, 77
1, 165836, Note_on_c, 0, 62, 72
1, 165845, Control_c, 0, 64, 74
1, 165850, Note_on_c, 0, 54, 54
1, 165860, Control_c, 0, 64, 72
1, 165875, Control_c, 0, 64, 69
1, 165888, Note_off_c, 0, 62, 63
1, 165890, Control_c, 0, 64, 66
1, 165891, Note_off_c, 0, 54, 52
1, 165905, Control_c, 0, 64, 64
1, 165921, Control_c, 0, 64, 61
1, 165923, Note_on_c, 0, 58, 68
1, 165935, Control_c, 0, 64, 59
1, 165936, Note_on_c, 0, 53, 40
1, 165950, Control_c, 0, 64, 58
1, 165954, Note_off_c, 0, 58, 66
1, 165965, Control_c, 0, 64, 56
1, 165980, Control_c, 0, 64, 54
1, 165992, Note_off_c, 0, 53, 59
1, 165995, Control_c, 0, 64, 52
1, 166010, Note_on_c, 0, 62, 71
1, 166010, Control_c, 0, 64, 45
1, 166017, Note_on_c, 0, 54, 47
1, 166024, Control_c, 0, 64, 30
1, 166039, Control_c, 0, 64, 0
1, 166051, Note_off_c, 0, 62, 57
1, 166059, Note_off_c, 0, 54, 62
1, 166079, Note_on_c, 0, 58, 39
1, 166080, Note_on_c, 0, 65, 62
1, 166113, Note_off_c, 0, 58, 55
1, 166155, Note_off_c, 0, 65, 64
1, 166158, Note_on_c, 0, 66, 64
1, 166176, Note_on_c, 0, 62, 32
1, 166211, Note_off_c, 0, 62, 32
1, 166220, Note_off_c, 0, 66, 62
1, 166227, Note_on_c, 0, 70, 67
1, 166243, Note_on_c, 0, 65, 52
1, 166250, Note_off_c, 0, 70, 67
1, 166276, Note_off_c, 0, 65, 66
1, 166320, Note_on_c, 0, 74, 62
1, 166341, Note_on_c, 0, 66, 57
1, 166346, Note_off_c, 0, 74, 69
1, 166382, Note_off_c, 0, 66, 65
1, 166394, Note_on_c, 0, 77, 59
1, 166405, Note_on_c, 0, 70, 43
1, 166438, Note_off_c, 0, 70, 56
1, 166454, Note_on_c, 0, 78, 59
1, 166454, Note_off_c, 0, 77, 58
1, 166458, Note_on_c, 0, 74, 55
1, 166477, Note_off_c, 0, 74, 66
1, 166504, Note_off_c, 0, 78, 44
1, 166524, Note_on_c, 0, 82, 70
1, 166535, Note_on_c, 0, 77, 57
1, 166547, Note_off_c, 0, 82, 67
1, 166568, Note_off_c, 0, 77, 64
1, 166605, Note_on_c, 0, 86, 72
1, 166635, Note_on_c, 0, 78, 39
1, 166638, Note_off_c, 0, 86, 58
1, 166659, Note_off_c, 0, 78, 54
1, 166665, Note_on_c, 0, 82, 47
1, 166673, Note_on_c, 0, 89, 70
1, 166703, Note_off_c, 0, 82, 53
1, 166730, Note_on_c, 0, 90, 61
1, 166763, Note_off_c, 0, 89, 62
1, 166794, Note_on_c, 0, 94, 70
1, 166805, Note_off_c, 0, 90, 64
1, 166818, Note_off_c, 0, 94, 69
1, 166865, Note_on_c, 0, 98, 76
1, 166905, Note_on_c, 0, 90, 43
1, 166945, Note_off_c, 0, 90, 47
1, 166951, Note_on_c, 0, 94, 70
1, 166967, Note_off_c, 0, 98, 62
1, 167002, Note_on_c, 0, 86, 41
1, 167023, Note_on_c, 0, 90, 71
1, 167023, Note_off_c, 0, 94, 63
1, 167046, Note_off_c, 0, 86, 46
1, 167064, Note_off_c, 0, 90, 62
1, 167088, Note_on_c, 0, 89, 59
1, 167124, Note_off_c, 0, 89, 62
1, 167146, Note_on_c, 0, 98, 70
1, 167168, Note_on_c, 0, 90, 50
1, 167203, Note_off_c, 0, 90, 53
1, 167210, Note_off_c, 0, 98, 57
1, 167225, Note_on_c, 0, 94, 65
1, 167236, Note_on_c, 0, 89, 45
1, 167280, Note_off_c, 0, 89, 51
1, 167294, Note_off_c, 0, 94, 62
1, 167301, Note_on_c, 0, 90, 67
1, 167319, Note_on_c, 0, 86, 41
1, 167335, Note_off_c, 0, 90, 64
1, 167351, Note_off_c, 0, 86, 57
1, 167377, Note_on_c, 0, 89, 57
1, 167401, Note_on_c, 0, 82, 21
1, 167401, Note_off_c, 0, 89, 57
1, 167437, Note_on_c, 0, 98, 64
1, 167454, Note_on_c, 0, 90, 45
1, 167454, Note_off_c, 0, 82, 44
1, 167482, Note_off_c, 0, 90, 53
1, 167490, Note_off_c, 0, 98, 56
1, 167517, Note_on_c, 0, 94, 63
1, 167529, Note_on_c, 0, 89, 4
1, 167577, Note_off_c, 0, 89, 37
1, 167588, Note_off_c, 0, 94, 60
1, 167604, Note_on_c, 0, 86, 30
1, 167610, Note_on_c, 0, 90, 55
1, 167631, Note_off_c, 0, 90, 61
1, 167642, Note_off_c, 0, 86, 54
1, 167666, Note_on_c, 0, 82, 43
1, 167684, Note_on_c, 0, 89, 49
1, 167717, Note_off_c, 0, 89, 57
1, 167727, Note_off_c, 0, 82, 40
1, 167766, Note_on_c, 0, 90, 30
1, 167772, Note_on_c, 0, 98, 57
1, 167801, Note_off_c, 0, 90, 53
1, 167818, Note_off_c, 0, 98, 49
1, 167821, Note_on_c, 0, 89, 48
1, 167826, Control_c, 0, 64, 10
1, 167840, Control_c, 0, 64, 41
1, 167849, Note_on_c, 0, 94, 59
1, 167855, Control_c, 0, 64, 55
1, 167866, Note_off_c, 0, 89, 46
1, 167870, Control_c, 0, 64, 60
1, 167885, Control_c, 0, 64, 62
1, 167900, Control_c, 0, 64, 64
1, 167914, Control_c, 0, 64, 65
1, 167921, Note_on_c, 0, 90, 61
1, 167926, Note_off_c, 0, 94, 60
1, 167929, Control_c, 0, 64, 67
1, 167936, Note_on_c, 0, 82, 54
1, 167944, Control_c, 0, 64, 69
1, 167959, Control_c, 0, 64, 71
1, 167962, Note_off_c, 0, 90, 63
1, 167974, Control_c, 0, 64, 73
1, 167982, Note_off_c, 0, 82, 58
1, 167988, Control_c, 0, 64, 74
1, 167997, Note_on_c, 0, 89, 52
1, 168003, Control_c, 0, 64, 75
1, 168018, Control_c, 0, 64, 76
1, 168032, Note_off_c, 0, 89, 56
1, 168033, Control_c, 0, 64, 79
1, 168048, Control_c, 0, 64, 81
1, 168063, Control_c, 0, 64, 83
1, 168078, Control_c, 0, 64, 85
1, 168093, Control_c, 0, 64, 86
1, 168102, Note_on_c, 0, 77, 57
1, 168108, Control_c, 0, 64, 88
1, 168122, Control_c, 0, 64, 90
1, 168128, Note_off_c, 0, 77, 54
1, 168137, Control_c, 0, 64, 92
1, 168152, Control_c, 0, 64, 93
1, 168166, Control_c, 0, 64, 94
1, 168168, Note_on_c, 0, 82, 50
1, 168181, Control_c, 0, 64, 94
1, 168196, Control_c, 0, 64, 95
1, 168226, Control_c, 0, 64, 95
1, 168240, Control_c, 0, 64, 96
1, 168242, Note_on_c, 0, 89, 54
1, 168255, Control_c, 0, 64, 96
1, 168261, Note_on_c, 0, 86, 59
1, 168270, Control_c, 0, 64, 97
1, 168284, Note_off_c, 0, 82, 55
1, 168285, Control_c, 0, 64, 97
1, 168298, Note_off_c, 0, 89, 60
1, 168300, Control_c, 0, 64, 98
1, 168306, Note_off_c, 0, 86, 57
1, 168316, Control_c, 0, 64, 99
1, 168318, Note_on_c, 0, 94, 66
1, 168331, Control_c, 0, 64, 100
1, 168345, Control_c, 0, 64, 101
1, 168360, Note_on_c, 0, 101, 78
1, 168360, Control_c, 0, 64, 102
1, 168361, Note_off_c, 0, 94, 61
1, 168375, Control_c, 0, 64, 103
1, 168397, Control_c, 0, 64, 105
1, 168412, Control_c, 0, 64, 106
1, 168413, Note_off_c, 0, 101, 66
1, 168427, Control_c, 0, 64, 108
1, 168441, Control_c, 0, 64, 109
1, 168456, Control_c, 0, 64, 110
1, 168471, Control_c, 0, 64, 111
1, 168486, Control_c, 0, 64, 112
1, 168501, Control_c, 0, 64, 113
1, 168516, Control_c, 0, 64, 114
1, 168531, Control_c, 0, 64, 115
1, 168560, Control_c, 0, 64, 116
1, 168575, Control_c, 0, 64, 116
1, 168604, Control_c, 0, 64, 117
1, 169416, Note_on_c, 0, 46, 37
1, 169576, Note_on_c, 0, 53, 35
1, 169592, Note_off_c, 0, 46, 40
1, 169759, Note_off_c, 0, 53, 36
1, 169827, Note_on_c, 0, 62, 37
1, 169932, Note_off_c, 0, 62, 36
1, 170851, Control_c, 0, 64, 116
1, 171118, Control_c, 0, 64, 116
1, 171235, Control_c, 0, 64, 115
1, 171309, Control_c, 0, 64, 115
1, 171354, Control_c, 0, 64, 114
1, 171390, Control_c, 0, 64, 114
1, 171420, Control_c, 0, 64, 113
1, 171450, Control_c, 0, 64, 113
1, 171464, Control_c, 0, 64, 112
1, 171479, Control_c, 0, 64, 112
1, 171494, Control_c, 0, 64, 111
1, 171510, Control_c, 0, 64, 111
1, 171525, Control_c, 0, 64, 110
1, 171540, Control_c, 0, 64, 110
1, 171555, Control_c, 0, 64, 109
1, 171569, Control_c, 0, 64, 109
1, 171584, Control_c, 0, 64, 108
1, 171599, Control_c, 0, 64, 108
1, 171628, Control_c, 0, 64, 107
1, 171658, Control_c, 0, 64, 106
1, 171673, Control_c, 0, 64, 106
1, 171688, Control_c, 0, 64, 105
1, 171703, Control_c, 0, 64, 105
1, 171717, Control_c, 0, 64, 104
1, 171732, Control_c, 0, 64, 104
1, 171747, Control_c, 0, 64, 103
1, 171762, Control_c, 0, 64, 102
1, 171777, Control_c, 0, 64, 101
1, 171792, Control_c, 0, 64, 101
1, 171806, Control_c, 0, 64, 100
1, 171821, Control_c, 0, 64, 99
1, 171836, Control_c, 0, 64, 99
1, 171851, Control_c, 0, 64, 98
1, 171866, Control_c, 0, 64, 97
1, 171880, Control_c, 0, 64, 96
1, 171895, Control_c, 0, 64, 96
1, 171910, Control_c, 0, 64, 95
1, 171925, Control_c, 0, 64, 94
1, 171940, Control_c, 0, 64, 94
1, 171954, Control_c, 0, 64, 93
1, 171969, Control_c, 0, 64, 92
1, 171984, Control_c, 0, 64, 91
1, 171999, Control_c, 0, 64, 91
1, 172013, Control_c, 0, 64, 90
1, 172028, Control_c, 0, 64, 90
1, 172043, Control_c, 0, 64, 89
1, 172058, Control_c, 0, 64, 88
1, 172073, Control_c, 0, 64, 88
1, 172087, Control_c, 0, 64, 87
1, 172102, Control_c, 0, 64, 87
1, 172117, Control_c, 0, 64, 86
1, 172140, Control_c, 0, 64, 85
1, 172155, Control_c, 0, 64, 85
1, 172169, Control_c, 0, 64, 84
1, 172184, Control_c, 0, 64, 83
1, 172199, Control_c, 0, 64, 82
1, 172213, Control_c, 0, 64, 82
1, 172228, Control_c, 0, 64, 81
1, 172243, Control_c, 0, 64, 80
1, 172258, Control_c, 0, 64, 79
1, 172273, Control_c, 0, 64, 77
1, 172287, Control_c, 0, 64, 76
1, 172303, Control_c, 0, 64, 75
1, 172318, Control_c, 0, 64, 74
1, 172333, Control_c, 0, 64, 73
1, 172348, Control_c, 0, 64, 71
1, 172363, Control_c, 0, 64, 70
1, 172377, Control_c, 0, 64, 68
1, 172392, Control_c, 0, 64, 67
1, 172407, Control_c, 0, 64, 66
1, 172422, Control_c, 0, 64, 65
1, 172436, Control_c, 0, 64, 65
1, 172496, Control_c, 0, 64, 64
1, 172510, Control_c, 0, 64, 64
1, 172555, Control_c, 0, 64, 63
1, 172585, Control_c, 0, 64, 63
1, 172615, Control_c, 0, 64, 62
1, 172644, Control_c, 0, 64, 62
1, 172689, Control_c, 0, 64, 61
1, 172718, Control_c, 0, 64, 61
1, 172747, Control_c, 0, 64, 60
1, 172776, Control_c, 0, 64, 60
1, 172821, Control_c, 0, 64, 59
1, 172850, Control_c, 0, 64, 59
1, 172932, Control_c, 0, 64, 58
1, 173126, Control_c, 0, 64, 58
1, 173652, Control_c, 0, 64, 58
1, 174817, Control_c, 0, 64, 59
1, 174846, Control_c, 0, 64, 59
1, 175098, Control_c, 0, 64, 59
1, 175194, Control_c, 0, 64, 58
1, 175327, Control_c, 0, 64, 59
1, 175357, Control_c, 0, 64, 59
1, 175387, Control_c, 0, 64, 60
1, 175402, Control_c, 0, 64, 61
1, 175417, Control_c, 0, 64, 62
1, 175491, Control_c, 0, 64, 61
1, 175506, Control_c, 0, 64, 59
1, 175521, Control_c, 0, 64, 56
1, 175536, Control_c, 0, 64, 52
1, 175551, Control_c, 0, 64, 47
1, 175566, Control_c, 0, 64, 43
1, 175581, Control_c, 0, 64, 38
1, 175581, Control_c, 0, 67, 119
1, 175596, Control_c, 0, 64, 38
1, 175596, Control_c, 0, 67, 104
1, 175610, Control_c, 0, 64, 37
1, 175610, Control_c, 0, 67, 87
1, 175625, Control_c, 0, 64, 35
1, 175625, Control_c, 0, 67, 69
1, 175640, Control_c, 0, 64, 27
1, 175640, Control_c, 0, 67, 53
1, 175654, Control_c, 0, 64, 0
1, 175654, Control_c, 0, 67, 39
1, 175669, Control_c, 0, 67, 26
1, 175684, Control_c, 0, 67, 10
1, 175699, Control_c, 0, 67, 0
1, 175699, End_track
0, 0, End_of_file
