0, 0, Header, 0, 1, 384
1, 0, Start_track
1, 0, Title_t, "Harmonies du Soir--Nansong Huang"
1, 0, Text_t, "2008 e-Piano Junior Competition recital round"
1, 0, Text_t, "recorded July 2008"
1, 0, Text_t, "http://www.piano-e-competition.com/"
1, 0, Text_t, "File processed for distribution by software from Zenph Studios, Inc., http://www.zenph.com"
1, 0, Instrument_name_t, "Yamaha Disklavier Pro Mark IV concert grand piano, model DCFIIISM4PRO"
1, 0, Sequencer_specific, 39, 67, 113, 0, 1, 0, 1, 0, 72, 97, 114, 109, 111, 110, 105, 101, 115, 68, 117, 83, 111, 105, 114, 32, 78, 97, 110, 115, 111, 110, 103, 32, 72, 117, 97, 110, 103, 32, 32, 32
1, 0, Sequencer_specific, 6, 67, 113, 0, 0, 0, 69
1, 0, System_exclusive, 21, 67, 113, 126, 21, 0, 2, 2, 0, 3, 14, 1, 4, 1, 13, 13, 10, 11, 9, 2, 7, 247
1, 0, Sequencer_specific, 5, 67, 123, 12, 2, 1
1, 0, Tempo, 512820
1, 0, Time_signature, 4, 2, 24, 8
1, 0, System_exclusive, 5, 126, 127, 9, 1, 247
1, 1, System_exclusive, 8, 67, 16, 76, 0, 0, 126, 0, 247
1, 2, System_exclusive, 8, 67, 16, 76, 8, 9, 7, 1, 247
1, 3, Control_c, 0, 0, 0
1, 3, Control_c, 1, 0, 0
1, 3, Control_c, 2, 0, 0
1, 3, Control_c, 3, 0, 0
1, 3, Control_c, 4, 0, 0
1, 3, Control_c, 5, 0, 0
1, 3, Control_c, 6, 0, 0
1, 3, Control_c, 7, 0, 0
1, 3, Control_c, 8, 0, 0
1, 3, Control_c, 9, 0, 127
1, 3, Control_c, 10, 0, 0
1, 3, Control_c, 11, 0, 0
1, 3, Control_c, 12, 0, 0
1, 3, Control_c, 13, 0, 0
1, 3, Control_c, 14, 0, 0
1, 3, Control_c, 15, 0, 0
1, 4, Control_c, 0, 32, 0
1, 4, Control_c, 1, 32, 0
1, 4, Control_c, 2, 32, 0
1, 4, Control_c, 3, 32, 0
1, 4, Control_c, 4, 32, 0
1, 4, Control_c, 5, 32, 0
1, 4, Control_c, 6, 32, 0
1, 4, Control_c, 7, 32, 0
1, 4, Control_c, 8, 32, 0
1, 4, Control_c, 9, 32, 0
1, 4, Control_c, 10, 32, 0
1, 4, Control_c, 11, 32, 0
1, 4, Control_c, 12, 32, 0
1, 4, Control_c, 13, 32, 0
1, 4, Control_c, 14, 32, 0
1, 4, Control_c, 15, 32, 0
1, 5, Program_c, 0, 0
1, 5, Program_c, 1, 0
1, 5, Program_c, 2, 0
1, 5, Program_c, 3, 0
1, 5, Program_c, 4, 0
1, 5, Program_c, 5, 0
1, 5, Program_c, 6, 0
1, 5, Program_c, 7, 0
1, 5, Program_c, 8, 0
1, 5, Program_c, 9, 0
1, 5, Program_c, 10, 0
1, 5, Program_c, 11, 0
1, 5, Program_c, 12, 0
1, 5, Program_c, 13, 0
1, 5, Program_c, 14, 0
1, 5, Program_c, 15, 0
1, 6, Control_c, 0, 7, 100
1, 6, Control_c, 1, 7, 100
1, 6, Control_c, 2, 7, 100
1, 6, Control_c, 3, 7, 100
1, 6, Control_c, 4, 7, 100
1, 6, Control_c, 5, 7, 100
1, 6, Control_c, 6, 7, 100
1, 6, Control_c, 7, 7, 100
1, 6, Control_c, 8, 7, 100
1, 6, Control_c, 9, 7, 100
1, 6, Control_c, 10, 7, 100
1, 6, Control_c, 11, 7, 100
1, 6, Control_c, 12, 7, 100
1, 6, Control_c, 13, 7, 100
1, 6, Control_c, 14, 7, 100
1, 6, Control_c, 15, 7, 100
1, 117, Control_c, 0, 64, 10
1, 117, Control_c, 0, 67, 15
1, 229, Control_c, 0, 64, 21
1, 229, Control_c, 0, 67, 31
1, 341, Control_c, 0, 64, 31
1, 341, Control_c, 0, 67, 46
1, 452, Control_c, 0, 64, 42
1, 452, Control_c, 0, 67, 63
1, 564, Control_c, 0, 64, 52
1, 564, Control_c, 0, 67, 77
1, 676, Control_c, 0, 64, 63
1, 676, Control_c, 0, 67, 94
1, 787, Control_c, 0, 64, 73
1, 787, Control_c, 0, 67, 108
1, 899, Control_c, 0, 64, 84
1, 899, Control_c, 0, 67, 127
1, 1132, Note_on_c, 0, 32, 52
1, 1225, Control_c, 0, 64, 85
1, 1286, Note_off_c, 0, 32, 32
1, 2244, Note_on_c, 0, 44, 57
1, 2819, Control_c, 0, 64, 85
1, 3636, Note_on_c, 0, 32, 53
1, 3820, Control_c, 0, 64, 86
1, 3823, Note_off_c, 0, 44, 33
1, 5184, Control_c, 0, 64, 86
1, 5305, Note_on_c, 0, 44, 52
1, 5829, Control_c, 0, 64, 87
1, 6333, Control_c, 0, 64, 87
1, 6406, Control_c, 0, 67, 126
1, 6420, Control_c, 0, 67, 125
1, 6435, Control_c, 0, 67, 124
1, 6465, Control_c, 0, 67, 123
1, 6502, Control_c, 0, 67, 123
1, 6517, Control_c, 0, 67, 122
1, 6546, Control_c, 0, 67, 122
1, 6561, Control_c, 0, 67, 121
1, 6592, Control_c, 0, 67, 121
1, 6622, Control_c, 0, 67, 120
1, 6637, Control_c, 0, 67, 120
1, 6651, Control_c, 0, 67, 119
1, 6666, Control_c, 0, 67, 118
1, 6681, Control_c, 0, 67, 117
1, 6696, Control_c, 0, 67, 116
1, 6711, Control_c, 0, 67, 116
1, 6725, Control_c, 0, 67, 115
1, 6740, Control_c, 0, 67, 114
1, 6755, Control_c, 0, 67, 113
1, 6769, Control_c, 0, 67, 112
1, 6784, Control_c, 0, 67, 111
1, 6799, Control_c, 0, 67, 110
1, 6814, Control_c, 0, 67, 109
1, 6829, Control_c, 0, 67, 108
1, 6844, Control_c, 0, 67, 106
1, 6858, Control_c, 0, 67, 105
1, 6873, Control_c, 0, 67, 104
1, 6903, Control_c, 0, 67, 104
1, 7711, Control_c, 0, 67, 104
1, 7830, Control_c, 0, 67, 105
1, 7860, Control_c, 0, 67, 105
1, 7875, Control_c, 0, 67, 106
1, 7890, Control_c, 0, 67, 106
1, 7905, Control_c, 0, 67, 107
1, 7919, Control_c, 0, 67, 107
1, 7934, Control_c, 0, 67, 108
1, 7949, Control_c, 0, 67, 108
1, 7964, Control_c, 0, 67, 109
1, 7979, Control_c, 0, 67, 110
1, 8015, Control_c, 0, 67, 110
1, 8030, Control_c, 0, 67, 111
1, 8045, Control_c, 0, 67, 111
1, 8075, Control_c, 0, 67, 112
1, 8090, Control_c, 0, 67, 112
1, 8119, Control_c, 0, 67, 113
1, 8149, Control_c, 0, 67, 113
1, 8194, Control_c, 0, 67, 114
1, 8224, Control_c, 0, 67, 114
1, 8254, Control_c, 0, 67, 115
1, 8283, Control_c, 0, 67, 115
1, 8342, Control_c, 0, 67, 116
1, 8357, Control_c, 0, 67, 116
1, 8372, Control_c, 0, 67, 117
1, 8387, Control_c, 0, 67, 118
1, 8402, Control_c, 0, 67, 118
1, 8416, Control_c, 0, 67, 119
1, 8446, Control_c, 0, 67, 119
1, 8476, Control_c, 0, 67, 120
1, 8490, Control_c, 0, 67, 120
1, 8505, Control_c, 0, 67, 121
1, 8520, Control_c, 0, 67, 122
1, 8534, Control_c, 0, 67, 122
1, 8549, Control_c, 0, 67, 123
1, 8564, Control_c, 0, 67, 124
1, 8579, Control_c, 0, 67, 124
1, 8594, Control_c, 0, 67, 126
1, 8608, Control_c, 0, 67, 127
1, 9222, Note_on_c, 0, 64, 51
1, 9234, Note_on_c, 0, 59, 42
1, 9240, Note_on_c, 0, 56, 37
1, 9455, Note_off_c, 0, 64, 56
1, 9720, Control_c, 0, 64, 87
1, 9731, Note_on_c, 0, 61, 52
1, 9732, Note_on_c, 0, 57, 39
1, 9735, Control_c, 0, 64, 86
1, 9750, Control_c, 0, 64, 83
1, 9752, Note_off_c, 0, 56, 35
1, 9766, Control_c, 0, 64, 79
1, 9772, Note_off_c, 0, 59, 37
1, 9780, Control_c, 0, 64, 72
1, 9795, Control_c, 0, 64, 61
1, 9810, Control_c, 0, 64, 0
1, 9899, Control_c, 0, 64, 50
1, 9914, Control_c, 0, 64, 61
1, 9929, Control_c, 0, 64, 64
1, 9936, Note_off_c, 0, 57, 59
1, 9944, Control_c, 0, 64, 65
1, 9959, Control_c, 0, 64, 65
1, 9974, Control_c, 0, 64, 66
1, 9988, Control_c, 0, 64, 68
1, 10003, Control_c, 0, 64, 69
1, 10018, Control_c, 0, 64, 71
1, 10033, Control_c, 0, 64, 73
1, 10048, Control_c, 0, 64, 74
1, 10062, Control_c, 0, 64, 75
1, 10077, Control_c, 0, 64, 76
1, 10083, Note_off_c, 0, 61, 55
1, 10124, Note_on_c, 0, 59, 48
1, 10136, Control_c, 0, 64, 75
1, 10146, Note_on_c, 0, 52, 41
1, 10151, Control_c, 0, 64, 74
1, 10166, Note_on_c, 0, 56, 14
1, 10166, Control_c, 0, 64, 70
1, 10180, Control_c, 0, 64, 64
1, 10195, Control_c, 0, 64, 57
1, 10210, Control_c, 0, 64, 58
1, 10225, Control_c, 0, 64, 62
1, 10248, Control_c, 0, 64, 65
1, 10262, Control_c, 0, 64, 68
1, 10277, Control_c, 0, 64, 70
1, 10287, Note_off_c, 0, 52, 59
1, 10292, Control_c, 0, 64, 72
1, 10307, Control_c, 0, 64, 73
1, 10321, Control_c, 0, 64, 74
1, 10336, Control_c, 0, 64, 75
1, 10351, Control_c, 0, 64, 76
1, 10366, Control_c, 0, 64, 77
1, 10381, Control_c, 0, 64, 78
1, 10395, Control_c, 0, 64, 78
1, 10410, Control_c, 0, 64, 79
1, 10425, Control_c, 0, 64, 80
1, 10455, Control_c, 0, 64, 80
1, 10484, Note_on_c, 0, 57, 41
1, 10487, Note_on_c, 0, 61, 54
1, 10528, Note_off_c, 0, 59, 30
1, 10538, Note_off_c, 0, 57, 0
1, 10538, Note_on_c, 0, 57, 7
1, 10561, Note_off_c, 0, 56, 27
1, 10589, Control_c, 0, 64, 80
1, 10648, Control_c, 0, 64, 79
1, 10678, Control_c, 0, 64, 79
1, 10692, Control_c, 0, 64, 78
1, 10707, Control_c, 0, 64, 78
1, 10722, Control_c, 0, 64, 77
1, 10737, Control_c, 0, 64, 76
1, 10752, Control_c, 0, 64, 76
1, 10766, Control_c, 0, 64, 75
1, 10781, Control_c, 0, 64, 74
1, 10796, Control_c, 0, 64, 73
1, 10811, Control_c, 0, 64, 73
1, 10826, Control_c, 0, 64, 72
1, 10828, Note_off_c, 0, 61, 51
1, 10832, Note_on_c, 0, 64, 58
1, 10841, Control_c, 0, 64, 71
1, 10841, Note_on_c, 0, 56, 41
1, 10842, Note_on_c, 0, 59, 48
1, 10856, Control_c, 0, 64, 70
1, 10859, Note_off_c, 0, 57, 41
1, 10871, Control_c, 0, 64, 70
1, 10885, Control_c, 0, 64, 69
1, 10900, Control_c, 0, 64, 68
1, 10915, Control_c, 0, 64, 67
1, 10930, Control_c, 0, 64, 66
1, 10944, Control_c, 0, 64, 65
1, 10959, Control_c, 0, 64, 64
1, 10974, Control_c, 0, 64, 64
1, 10996, Control_c, 0, 64, 63
1, 11011, Control_c, 0, 64, 63
1, 11026, Control_c, 0, 64, 62
1, 11041, Control_c, 0, 64, 61
1, 11056, Control_c, 0, 64, 60
1, 11070, Control_c, 0, 64, 58
1, 11085, Control_c, 0, 64, 54
1, 11100, Control_c, 0, 64, 46
1, 11115, Control_c, 0, 64, 29
1, 11130, Control_c, 0, 64, 0
1, 11153, Note_on_c, 0, 61, 60
1, 11173, Note_on_c, 0, 57, 39
1, 11202, Note_off_c, 0, 64, 56
1, 11203, Note_off_c, 0, 59, 50
1, 11234, Note_off_c, 0, 56, 40
1, 11307, Control_c, 0, 64, 55
1, 11322, Control_c, 0, 64, 64
1, 11336, Control_c, 0, 64, 66
1, 11351, Control_c, 0, 64, 68
1, 11353, Note_off_c, 0, 61, 64
1, 11367, Control_c, 0, 64, 71
1, 11382, Control_c, 0, 64, 74
1, 11397, Control_c, 0, 64, 76
1, 11412, Control_c, 0, 64, 78
1, 11427, Control_c, 0, 64, 78
1, 11441, Control_c, 0, 64, 79
1, 11456, Control_c, 0, 64, 79
1, 11570, Note_on_c, 0, 69, 61
1, 11571, Note_on_c, 0, 64, 51
1, 11574, Control_c, 0, 64, 79
1, 11589, Control_c, 0, 64, 78
1, 11590, Note_on_c, 0, 61, 43
1, 11604, Control_c, 0, 64, 76
1, 11619, Control_c, 0, 64, 72
1, 11628, Note_off_c, 0, 57, 26
1, 11634, Control_c, 0, 64, 66
1, 11649, Control_c, 0, 64, 41
1, 11664, Control_c, 0, 64, 0
1, 11759, Control_c, 0, 64, 48
1, 11774, Control_c, 0, 64, 62
1, 11789, Control_c, 0, 64, 65
1, 11804, Control_c, 0, 64, 66
1, 11819, Control_c, 0, 64, 68
1, 11834, Control_c, 0, 64, 69
1, 11848, Control_c, 0, 64, 70
1, 11863, Control_c, 0, 64, 71
1, 11878, Control_c, 0, 64, 73
1, 11893, Control_c, 0, 64, 74
1, 11908, Control_c, 0, 64, 75
1, 11923, Control_c, 0, 64, 76
1, 11938, Control_c, 0, 64, 77
1, 11953, Control_c, 0, 64, 77
1, 12190, Control_c, 0, 64, 77
1, 12205, Control_c, 0, 64, 76
1, 12220, Control_c, 0, 64, 75
1, 12230, Note_on_c, 0, 62, 40
1, 12235, Control_c, 0, 64, 74
1, 12242, Note_on_c, 0, 66, 54
1, 12248, Note_off_c, 0, 61, 55
1, 12250, Control_c, 0, 64, 73
1, 12264, Control_c, 0, 64, 70
1, 12279, Control_c, 0, 64, 67
1, 12294, Control_c, 0, 64, 63
1, 12308, Note_off_c, 0, 69, 35
1, 12308, Control_c, 0, 64, 56
1, 12311, Note_off_c, 0, 64, 32
1, 12323, Control_c, 0, 64, 47
1, 12338, Control_c, 0, 64, 38
1, 12353, Control_c, 0, 64, 24
1, 12368, Control_c, 0, 64, 0
1, 12701, Control_c, 0, 64, 35
1, 12716, Control_c, 0, 64, 46
1, 12731, Control_c, 0, 64, 50
1, 12746, Control_c, 0, 64, 54
1, 12761, Control_c, 0, 64, 57
1, 12776, Control_c, 0, 64, 59
1, 12790, Control_c, 0, 64, 61
1, 12805, Control_c, 0, 64, 63
1, 12820, Control_c, 0, 64, 64
1, 12835, Control_c, 0, 64, 65
1, 12850, Control_c, 0, 64, 66
1, 12864, Control_c, 0, 64, 67
1, 12879, Control_c, 0, 64, 68
1, 12894, Control_c, 0, 64, 69
1, 12908, Control_c, 0, 64, 71
1, 12923, Control_c, 0, 64, 73
1, 12938, Control_c, 0, 64, 76
1, 12954, Control_c, 0, 64, 77
1, 12969, Control_c, 0, 64, 79
1, 12984, Control_c, 0, 64, 80
1, 12999, Control_c, 0, 64, 81
1, 13013, Control_c, 0, 64, 82
1, 13028, Control_c, 0, 64, 83
1, 13043, Control_c, 0, 64, 83
1, 13058, Control_c, 0, 64, 84
1, 13073, Control_c, 0, 64, 84
1, 13102, Control_c, 0, 64, 85
1, 13117, Control_c, 0, 64, 85
1, 13146, Control_c, 0, 64, 86
1, 13176, Control_c, 0, 64, 86
1, 13184, Note_off_c, 0, 32, 32
1, 13220, Control_c, 0, 64, 87
1, 13242, Note_off_c, 0, 44, 33
1, 13273, Control_c, 0, 64, 87
1, 13331, Control_c, 0, 64, 88
1, 13391, Control_c, 0, 64, 88
1, 13435, Control_c, 0, 64, 89
1, 13494, Control_c, 0, 64, 89
1, 13583, Control_c, 0, 64, 90
1, 13717, Control_c, 0, 64, 90
1, 13762, Note_off_c, 0, 62, 24
1, 13811, Note_off_c, 0, 66, 32
1, 13852, Control_c, 0, 64, 91
1, 14126, Control_c, 0, 64, 91
1, 15060, Note_on_c, 0, 32, 50
1, 15066, Control_c, 0, 64, 91
1, 15081, Control_c, 0, 64, 90
1, 15096, Control_c, 0, 64, 89
1, 15110, Control_c, 0, 64, 88
1, 15125, Control_c, 0, 64, 86
1, 15140, Control_c, 0, 64, 83
1, 15155, Control_c, 0, 64, 78
1, 15170, Control_c, 0, 64, 73
1, 15184, Control_c, 0, 64, 67
1, 15199, Control_c, 0, 64, 51
1, 15214, Control_c, 0, 64, 0
1, 15288, Control_c, 0, 64, 39
1, 15303, Control_c, 0, 64, 57
1, 15318, Control_c, 0, 64, 62
1, 15333, Control_c, 0, 64, 64
1, 15348, Control_c, 0, 64, 65
1, 15363, Control_c, 0, 64, 66
1, 15378, Control_c, 0, 64, 67
1, 15393, Control_c, 0, 64, 68
1, 15408, Control_c, 0, 64, 70
1, 15423, Control_c, 0, 64, 72
1, 15438, Control_c, 0, 64, 74
1, 15452, Control_c, 0, 64, 77
1, 15467, Control_c, 0, 64, 79
1, 15489, Control_c, 0, 64, 80
1, 15504, Control_c, 0, 64, 81
1, 15519, Control_c, 0, 64, 82
1, 15533, Control_c, 0, 64, 83
1, 15548, Control_c, 0, 64, 84
1, 15563, Control_c, 0, 64, 84
1, 15578, Control_c, 0, 64, 85
1, 15593, Control_c, 0, 64, 85
1, 15607, Control_c, 0, 64, 86
1, 15622, Control_c, 0, 64, 86
1, 15652, Control_c, 0, 64, 87
1, 15667, Control_c, 0, 64, 87
1, 15697, Control_c, 0, 64, 88
1, 15712, Control_c, 0, 64, 88
1, 15741, Control_c, 0, 64, 89
1, 15771, Control_c, 0, 64, 89
1, 15801, Control_c, 0, 64, 90
1, 15860, Control_c, 0, 64, 90
1, 15963, Control_c, 0, 64, 91
1, 16030, Note_on_c, 0, 44, 45
1, 16201, Control_c, 0, 64, 91
1, 16433, Note_off_c, 0, 32, 29
1, 16505, Control_c, 0, 64, 92
1, 17045, Control_c, 0, 64, 92
1, 17191, Note_on_c, 0, 32, 52
1, 17399, Note_off_c, 0, 44, 35
1, 17987, Control_c, 0, 64, 93
1, 18697, Note_on_c, 0, 44, 49
1, 18988, Control_c, 0, 67, 126
1, 19003, Control_c, 0, 67, 122
1, 19017, Control_c, 0, 67, 117
1, 19032, Control_c, 0, 67, 113
1, 19047, Control_c, 0, 67, 110
1, 19062, Control_c, 0, 67, 106
1, 19076, Control_c, 0, 67, 101
1, 19091, Control_c, 0, 67, 97
1, 19106, Control_c, 0, 67, 93
1, 19121, Control_c, 0, 67, 88
1, 19136, Control_c, 0, 67, 84
1, 19150, Control_c, 0, 67, 79
1, 19165, Control_c, 0, 67, 75
1, 19180, Control_c, 0, 67, 71
1, 19195, Control_c, 0, 64, 93
1, 19195, Control_c, 0, 67, 67
1, 19210, Control_c, 0, 67, 64
1, 19232, Control_c, 0, 67, 61
1, 19247, Control_c, 0, 67, 58
1, 19262, Control_c, 0, 67, 55
1, 19276, Control_c, 0, 67, 53
1, 19291, Control_c, 0, 67, 50
1, 19306, Control_c, 0, 67, 48
1, 19321, Control_c, 0, 67, 46
1, 19336, Control_c, 0, 67, 44
1, 19351, Control_c, 0, 67, 42
1, 19366, Control_c, 0, 67, 40
1, 19381, Control_c, 0, 67, 38
1, 19396, Control_c, 0, 67, 37
1, 19411, Control_c, 0, 67, 35
1, 19426, Control_c, 0, 67, 33
1, 19441, Control_c, 0, 67, 32
1, 19455, Control_c, 0, 67, 31
1, 19470, Control_c, 0, 67, 29
1, 19485, Control_c, 0, 67, 28
1, 19499, Control_c, 0, 67, 26
1, 19514, Control_c, 0, 67, 25
1, 19529, Control_c, 0, 67, 24
1, 19544, Control_c, 0, 67, 22
1, 19559, Control_c, 0, 67, 21
1, 19573, Control_c, 0, 67, 19
1, 19588, Control_c, 0, 67, 18
1, 19603, Control_c, 0, 67, 17
1, 19618, Control_c, 0, 67, 16
1, 19633, Control_c, 0, 67, 15
1, 19647, Control_c, 0, 67, 14
1, 19662, Control_c, 0, 67, 13
1, 19677, Control_c, 0, 67, 12
1, 19691, Control_c, 0, 67, 12
1, 19706, Control_c, 0, 67, 11
1, 19721, Control_c, 0, 67, 10
1, 19736, Control_c, 0, 67, 9
1, 19751, Control_c, 0, 67, 9
1, 19766, Control_c, 0, 67, 8
1, 19781, Control_c, 0, 67, 0
1, 20514, Control_c, 0, 64, 94
1, 20998, Control_c, 0, 64, 94
1, 21042, Control_c, 0, 67, 10
1, 21057, Control_c, 0, 67, 18
1, 21071, Control_c, 0, 67, 30
1, 21086, Control_c, 0, 67, 49
1, 21101, Control_c, 0, 67, 68
1, 21116, Control_c, 0, 67, 84
1, 21131, Control_c, 0, 67, 97
1, 21146, Control_c, 0, 67, 110
1, 21161, Control_c, 0, 67, 119
1, 21176, Control_c, 0, 67, 127
1, 21441, Control_c, 0, 64, 95
1, 21656, Control_c, 0, 64, 95
1, 21746, Note_on_c, 0, 69, 48
1, 21760, Note_on_c, 0, 64, 39
1, 21764, Note_on_c, 0, 61, 35
1, 21984, Note_off_c, 0, 69, 61
1, 22228, Control_c, 0, 64, 94
1, 22237, Note_on_c, 0, 66, 54
1, 22243, Control_c, 0, 64, 92
1, 22245, Note_on_c, 0, 62, 42
1, 22257, Control_c, 0, 64, 88
1, 22272, Control_c, 0, 64, 82
1, 22287, Control_c, 0, 64, 75
1, 22301, Control_c, 0, 64, 69
1, 22308, Note_off_c, 0, 64, 39
1, 22316, Control_c, 0, 64, 64
1, 22319, Note_off_c, 0, 61, 38
1, 22331, Control_c, 0, 64, 58
1, 22346, Control_c, 0, 64, 58
1, 22361, Control_c, 0, 64, 62
1, 22375, Control_c, 0, 64, 66
1, 22390, Control_c, 0, 64, 69
1, 22405, Control_c, 0, 64, 73
1, 22419, Control_c, 0, 64, 76
1, 22434, Control_c, 0, 64, 79
1, 22449, Control_c, 0, 64, 80
1, 22452, Note_off_c, 0, 62, 61
1, 22464, Control_c, 0, 64, 81
1, 22479, Control_c, 0, 64, 82
1, 22493, Control_c, 0, 64, 82
1, 22508, Control_c, 0, 64, 83
1, 22523, Control_c, 0, 64, 84
1, 22539, Control_c, 0, 64, 85
1, 22613, Note_off_c, 0, 66, 54
1, 22613, Control_c, 0, 64, 84
1, 22624, Note_on_c, 0, 64, 53
1, 22628, Control_c, 0, 64, 82
1, 22636, Note_on_c, 0, 57, 44
1, 22639, Note_on_c, 0, 61, 42
1, 22643, Control_c, 0, 64, 77
1, 22658, Control_c, 0, 64, 68
1, 22672, Control_c, 0, 64, 57
1, 22687, Control_c, 0, 64, 34
1, 22702, Control_c, 0, 64, 39
1, 22717, Control_c, 0, 64, 54
1, 22732, Control_c, 0, 64, 64
1, 22747, Control_c, 0, 64, 67
1, 22762, Control_c, 0, 64, 71
1, 22776, Control_c, 0, 64, 73
1, 22783, Note_off_c, 0, 57, 57
1, 22791, Control_c, 0, 64, 74
1, 22806, Control_c, 0, 64, 75
1, 22821, Control_c, 0, 64, 76
1, 22836, Control_c, 0, 64, 77
1, 22851, Control_c, 0, 64, 79
1, 22865, Control_c, 0, 64, 80
1, 22880, Control_c, 0, 64, 80
1, 22909, Control_c, 0, 64, 81
1, 23005, Note_on_c, 0, 66, 62
1, 23011, Note_on_c, 0, 62, 45
1, 23036, Control_c, 0, 64, 80
1, 23049, Note_off_c, 0, 64, 33
1, 23050, Control_c, 0, 64, 79
1, 23065, Control_c, 0, 64, 78
1, 23080, Control_c, 0, 64, 76
1, 23082, Note_off_c, 0, 61, 22
1, 23095, Control_c, 0, 64, 74
1, 23110, Control_c, 0, 64, 71
1, 23124, Control_c, 0, 64, 68
1, 23139, Control_c, 0, 64, 64
1, 23154, Control_c, 0, 64, 63
1, 23169, Control_c, 0, 64, 63
1, 23228, Control_c, 0, 64, 62
1, 23242, Control_c, 0, 64, 62
1, 23257, Control_c, 0, 64, 61
1, 23302, Control_c, 0, 64, 61
1, 23347, Note_on_c, 0, 69, 60
1, 23353, Note_on_c, 0, 64, 53
1, 23361, Note_off_c, 0, 62, 54
1, 23362, Control_c, 0, 64, 60
1, 23367, Note_on_c, 0, 61, 33
1, 23397, Note_off_c, 0, 66, 33
1, 23407, Control_c, 0, 64, 60
1, 23480, Control_c, 0, 64, 59
1, 23510, Control_c, 0, 64, 59
1, 23659, Control_c, 0, 64, 58
1, 23662, Note_on_c, 0, 66, 62
1, 23671, Note_on_c, 0, 62, 52
1, 23679, Note_off_c, 0, 69, 52
1, 23721, Note_off_c, 0, 64, 52
1, 23740, Control_c, 0, 64, 59
1, 23755, Control_c, 0, 64, 60
1, 23762, Note_off_c, 0, 61, 39
1, 23770, Control_c, 0, 64, 62
1, 23785, Control_c, 0, 64, 64
1, 23800, Control_c, 0, 64, 66
1, 23814, Control_c, 0, 64, 69
1, 23829, Control_c, 0, 64, 71
1, 23844, Control_c, 0, 64, 74
1, 23854, Note_off_c, 0, 66, 66
1, 23859, Control_c, 0, 64, 76
1, 23873, Control_c, 0, 64, 78
1, 23888, Control_c, 0, 64, 80
1, 23903, Control_c, 0, 64, 82
1, 23918, Control_c, 0, 64, 83
1, 23933, Control_c, 0, 64, 84
1, 23948, Control_c, 0, 64, 85
1, 23963, Control_c, 0, 64, 86
1, 23978, Control_c, 0, 64, 87
1, 24008, Control_c, 0, 64, 87
1, 24055, Note_off_c, 0, 62, 58
1, 24062, Note_on_c, 0, 74, 62
1, 24066, Control_c, 0, 64, 87
1, 24070, Note_on_c, 0, 69, 48
1, 24081, Control_c, 0, 64, 85
1, 24084, Note_on_c, 0, 66, 37
1, 24096, Control_c, 0, 64, 81
1, 24111, Control_c, 0, 64, 75
1, 24126, Control_c, 0, 64, 67
1, 24142, Control_c, 0, 64, 51
1, 24157, Control_c, 0, 64, 0
1, 24171, Control_c, 0, 64, 31
1, 24186, Control_c, 0, 64, 59
1, 24201, Control_c, 0, 64, 66
1, 24216, Control_c, 0, 64, 70
1, 24231, Control_c, 0, 64, 73
1, 24245, Control_c, 0, 64, 75
1, 24260, Control_c, 0, 64, 77
1, 24265, Note_off_c, 0, 74, 61
1, 24275, Control_c, 0, 64, 78
1, 24289, Control_c, 0, 64, 80
1, 24304, Control_c, 0, 64, 81
1, 24319, Control_c, 0, 64, 83
1, 24329, Note_off_c, 0, 66, 51
1, 24334, Control_c, 0, 64, 83
1, 24349, Control_c, 0, 64, 84
1, 24353, Note_off_c, 0, 69, 63
1, 24363, Control_c, 0, 64, 84
1, 24374, Note_on_c, 0, 63, 41
1, 24437, Note_on_c, 0, 66, 53
1, 24499, Note_on_c, 0, 69, 52
1, 24510, Note_off_c, 0, 66, 0
1, 24510, Note_on_c, 0, 66, 16
1, 24519, Control_c, 0, 64, 84
1, 24534, Control_c, 0, 64, 82
1, 24549, Control_c, 0, 64, 81
1, 24550, Note_on_c, 0, 72, 66
1, 24563, Control_c, 0, 64, 78
1, 24578, Control_c, 0, 64, 74
1, 24593, Control_c, 0, 64, 69
1, 24608, Control_c, 0, 64, 63
1, 24623, Control_c, 0, 64, 53
1, 24637, Control_c, 0, 64, 36
1, 24652, Control_c, 0, 64, 0
1, 24801, Control_c, 0, 64, 21
1, 24815, Control_c, 0, 64, 45
1, 24830, Control_c, 0, 64, 54
1, 24845, Control_c, 0, 64, 58
1, 24860, Control_c, 0, 64, 62
1, 24875, Control_c, 0, 64, 63
1, 24889, Control_c, 0, 64, 65
1, 24904, Control_c, 0, 64, 65
1, 24919, Control_c, 0, 64, 66
1, 24934, Control_c, 0, 64, 67
1, 24944, Note_off_c, 0, 32, 41
1, 24950, Control_c, 0, 64, 68
1, 24964, Control_c, 0, 64, 69
1, 24979, Control_c, 0, 64, 70
1, 24994, Control_c, 0, 64, 72
1, 25009, Control_c, 0, 64, 74
1, 25024, Control_c, 0, 64, 77
1, 25039, Control_c, 0, 64, 79
1, 25054, Control_c, 0, 64, 82
1, 25067, Control_c, 0, 64, 83
1, 25082, Control_c, 0, 64, 85
1, 25097, Control_c, 0, 64, 86
1, 25112, Control_c, 0, 64, 86
1, 25126, Control_c, 0, 64, 87
1, 25141, Control_c, 0, 64, 88
1, 25185, Control_c, 0, 64, 88
1, 25282, Control_c, 0, 64, 89
1, 25298, Note_on_c, 0, 32, 50
1, 25476, Note_off_c, 0, 44, 30
1, 25567, Note_off_c, 0, 69, 28
1, 25568, Note_off_c, 0, 72, 51
1, 25579, Control_c, 0, 64, 89
1, 25583, Note_off_c, 0, 63, 33
1, 25787, Note_off_c, 0, 66, 35
1, 26090, Note_on_c, 0, 61, 43
1, 26157, Note_on_c, 0, 66, 52
1, 26208, Control_c, 0, 64, 89
1, 26223, Control_c, 0, 64, 88
1, 26237, Note_on_c, 0, 69, 54
1, 26238, Control_c, 0, 64, 87
1, 26253, Control_c, 0, 64, 86
1, 26267, Control_c, 0, 64, 84
1, 26282, Control_c, 0, 64, 81
1, 26297, Control_c, 0, 64, 76
1, 26309, Note_on_c, 0, 73, 59
1, 26312, Control_c, 0, 64, 71
1, 26316, Note_on_c, 0, 44, 43
1, 26327, Control_c, 0, 64, 66
1, 26342, Control_c, 0, 64, 58
1, 26357, Control_c, 0, 64, 28
1, 26371, Control_c, 0, 64, 0
1, 26580, Control_c, 0, 64, 54
1, 26595, Control_c, 0, 64, 62
1, 26610, Control_c, 0, 64, 64
1, 26625, Control_c, 0, 64, 65
1, 26639, Control_c, 0, 64, 66
1, 26654, Control_c, 0, 64, 67
1, 26669, Control_c, 0, 64, 68
1, 26683, Control_c, 0, 64, 69
1, 26698, Control_c, 0, 64, 70
1, 26720, Control_c, 0, 64, 72
1, 26735, Control_c, 0, 64, 73
1, 26750, Control_c, 0, 64, 75
1, 26765, Control_c, 0, 64, 75
1, 26779, Note_off_c, 0, 32, 40
1, 26780, Control_c, 0, 64, 76
1, 26795, Control_c, 0, 64, 76
1, 26810, Control_c, 0, 64, 77
1, 26854, Control_c, 0, 64, 77
1, 27164, Control_c, 0, 64, 76
1, 27179, Control_c, 0, 64, 75
1, 27194, Control_c, 0, 64, 73
1, 27209, Control_c, 0, 64, 69
1, 27217, Note_on_c, 0, 32, 36
1, 27224, Control_c, 0, 64, 63
1, 27239, Control_c, 0, 64, 47
1, 27254, Control_c, 0, 64, 30
1, 27269, Control_c, 0, 64, 29
1, 27283, Control_c, 0, 64, 34
1, 27298, Control_c, 0, 64, 42
1, 27313, Control_c, 0, 64, 48
1, 27329, Control_c, 0, 64, 52
1, 27344, Control_c, 0, 64, 56
1, 27359, Control_c, 0, 64, 59
1, 27374, Control_c, 0, 64, 62
1, 27379, Note_off_c, 0, 44, 32
1, 27388, Control_c, 0, 64, 64
1, 27403, Control_c, 0, 64, 65
1, 27418, Control_c, 0, 64, 66
1, 27433, Control_c, 0, 64, 67
1, 27448, Control_c, 0, 64, 68
1, 27470, Control_c, 0, 64, 69
1, 27485, Control_c, 0, 64, 70
1, 27500, Control_c, 0, 64, 72
1, 27514, Control_c, 0, 64, 74
1, 27529, Control_c, 0, 64, 75
1, 27544, Control_c, 0, 64, 76
1, 27559, Control_c, 0, 64, 77
1, 27574, Control_c, 0, 64, 77
1, 27647, Control_c, 0, 64, 78
1, 27653, Note_off_c, 0, 61, 17
1, 28029, Note_off_c, 0, 69, 33
1, 28278, Control_c, 0, 64, 77
1, 28330, Note_off_c, 0, 66, 24
1, 28367, Control_c, 0, 64, 77
1, 28385, Note_on_c, 0, 44, 32
1, 28397, Control_c, 0, 64, 76
1, 28426, Control_c, 0, 64, 76
1, 28441, Control_c, 0, 64, 75
1, 28455, Control_c, 0, 64, 75
1, 28470, Control_c, 0, 64, 74
1, 28485, Control_c, 0, 64, 73
1, 28498, Note_on_c, 0, 60, 42
1, 28500, Control_c, 0, 64, 71
1, 28515, Control_c, 0, 64, 69
1, 28530, Control_c, 0, 64, 67
1, 28545, Control_c, 0, 64, 66
1, 28559, Control_c, 0, 64, 64
1, 28574, Control_c, 0, 64, 63
1, 28589, Control_c, 0, 64, 63
1, 28604, Control_c, 0, 64, 62
1, 28619, Control_c, 0, 64, 62
1, 28649, Control_c, 0, 64, 61
1, 28678, Control_c, 0, 64, 61
1, 28693, Control_c, 0, 64, 60
1, 28717, Note_on_c, 0, 66, 45
1, 28723, Control_c, 0, 64, 60
1, 28811, Control_c, 0, 64, 60
1, 28841, Control_c, 0, 64, 61
1, 28870, Control_c, 0, 64, 61
1, 28885, Control_c, 0, 64, 62
1, 28888, Note_on_c, 0, 69, 46
1, 28900, Control_c, 0, 64, 63
1, 28915, Control_c, 0, 64, 64
1, 28917, Note_off_c, 0, 73, 34
1, 28931, Control_c, 0, 64, 65
1, 28946, Control_c, 0, 64, 66
1, 28968, Control_c, 0, 64, 67
1, 28983, Control_c, 0, 64, 68
1, 28998, Control_c, 0, 64, 70
1, 29013, Control_c, 0, 64, 71
1, 29027, Control_c, 0, 64, 72
1, 29042, Control_c, 0, 64, 73
1, 29048, Note_off_c, 0, 60, 29
1, 29057, Control_c, 0, 64, 74
1, 29072, Control_c, 0, 64, 75
1, 29086, Control_c, 0, 64, 75
1, 29101, Control_c, 0, 64, 76
1, 29116, Control_c, 0, 64, 76
1, 29131, Control_c, 0, 64, 77
1, 29160, Control_c, 0, 64, 78
1, 29175, Control_c, 0, 64, 78
1, 29205, Control_c, 0, 64, 79
1, 29220, Control_c, 0, 64, 79
1, 29278, Control_c, 0, 64, 80
1, 29332, Note_on_c, 0, 75, 59
1, 29603, Control_c, 0, 64, 80
1, 29962, Note_off_c, 0, 32, 28
1, 30200, Note_off_c, 0, 44, 19
1, 30327, Note_off_c, 0, 66, 26
1, 30787, Note_off_c, 0, 69, 34
1, 31522, Note_on_c, 0, 32, 36
1, 31762, Note_off_c, 0, 32, 39
1, 32503, Note_on_c, 0, 44, 29
1, 32509, Control_c, 0, 64, 79
1, 32524, Control_c, 0, 64, 75
1, 32539, Control_c, 0, 64, 69
1, 32554, Control_c, 0, 64, 62
1, 32569, Control_c, 0, 64, 45
1, 32584, Control_c, 0, 64, 38
1, 32599, Control_c, 0, 64, 46
1, 32613, Control_c, 0, 64, 59
1, 32628, Control_c, 0, 64, 64
1, 32643, Control_c, 0, 64, 66
1, 32658, Control_c, 0, 64, 68
1, 32673, Control_c, 0, 64, 70
1, 32688, Control_c, 0, 64, 72
1, 32709, Control_c, 0, 64, 74
1, 32724, Control_c, 0, 64, 76
1, 32739, Control_c, 0, 64, 78
1, 32751, Note_on_c, 0, 52, 34
1, 32754, Control_c, 0, 64, 80
1, 32769, Control_c, 0, 64, 81
1, 32783, Control_c, 0, 64, 81
1, 32790, Note_off_c, 0, 44, 41
1, 32798, Control_c, 0, 64, 82
1, 32851, Note_off_c, 0, 75, 57
1, 32902, Control_c, 0, 64, 82
1, 32932, Note_on_c, 0, 59, 35
1, 33042, Note_on_c, 0, 64, 39
1, 33172, Note_on_c, 0, 71, 42
1, 33181, Note_off_c, 0, 64, 37
1, 33222, Note_off_c, 0, 59, 36
1, 33320, Note_on_c, 0, 76, 59
1, 33417, Note_off_c, 0, 52, 29
1, 33448, Note_off_c, 0, 71, 27
1, 34964, Note_on_c, 0, 32, 45
1, 35117, Note_off_c, 0, 32, 35
1, 35238, Control_c, 0, 64, 82
1, 35550, Control_c, 0, 64, 81
1, 35565, Control_c, 0, 64, 81
1, 35579, Control_c, 0, 64, 76
1, 35594, Control_c, 0, 64, 66
1, 35595, Note_on_c, 0, 44, 41
1, 35609, Control_c, 0, 64, 0
1, 35705, Control_c, 0, 64, 62
1, 35720, Control_c, 0, 64, 68
1, 35734, Control_c, 0, 64, 72
1, 35749, Control_c, 0, 64, 75
1, 35764, Control_c, 0, 64, 77
1, 35779, Control_c, 0, 64, 79
1, 35788, Note_on_c, 0, 52, 45
1, 35791, Note_off_c, 0, 44, 40
1, 35794, Control_c, 0, 64, 81
1, 35809, Control_c, 0, 64, 82
1, 35824, Control_c, 0, 64, 83
1, 35842, Note_off_c, 0, 52, 64
1, 35898, Control_c, 0, 64, 83
1, 35903, Note_on_c, 0, 57, 40
1, 35939, Note_off_c, 0, 57, 53
1, 36037, Note_on_c, 0, 61, 45
1, 36094, Note_off_c, 0, 61, 49
1, 36134, Note_on_c, 0, 64, 41
1, 36159, Note_off_c, 0, 76, 32
1, 36203, Note_off_c, 0, 64, 43
1, 36227, Note_on_c, 0, 69, 48
1, 36319, Note_off_c, 0, 69, 60
1, 36327, Note_on_c, 0, 73, 50
1, 36379, Note_off_c, 0, 73, 63
1, 36572, Note_on_c, 0, 81, 70
1, 37381, Control_c, 0, 64, 83
1, 37396, Control_c, 0, 64, 82
1, 37411, Control_c, 0, 64, 77
1, 37425, Control_c, 0, 64, 67
1, 37440, Control_c, 0, 64, 0
1, 37469, Note_on_c, 0, 44, 35
1, 37514, Control_c, 0, 64, 16
1, 37529, Control_c, 0, 64, 66
1, 37544, Control_c, 0, 64, 74
1, 37559, Control_c, 0, 64, 79
1, 37574, Control_c, 0, 64, 82
1, 37589, Control_c, 0, 64, 84
1, 37604, Control_c, 0, 64, 85
1, 37614, Note_on_c, 0, 54, 48
1, 37618, Control_c, 0, 64, 85
1, 37631, Note_off_c, 0, 44, 38
1, 37633, Control_c, 0, 64, 86
1, 37647, Note_off_c, 0, 54, 59
1, 37648, Control_c, 0, 64, 87
1, 37663, Control_c, 0, 64, 88
1, 37678, Control_c, 0, 64, 88
1, 37702, Note_on_c, 0, 57, 41
1, 37723, Control_c, 0, 64, 89
1, 37731, Note_off_c, 0, 57, 56
1, 37767, Control_c, 0, 64, 89
1, 37797, Control_c, 0, 64, 90
1, 37808, Note_on_c, 0, 62, 51
1, 37834, Note_off_c, 0, 62, 58
1, 37893, Note_on_c, 0, 69, 56
1, 37902, Note_off_c, 0, 81, 33
1, 37952, Note_off_c, 0, 69, 59
1, 37952, Control_c, 0, 64, 90
1, 37969, Note_on_c, 0, 74, 55
1, 38027, Note_off_c, 0, 74, 60
1, 38042, Note_on_c, 0, 78, 65
1, 38056, Control_c, 0, 64, 91
1, 38072, Note_off_c, 0, 78, 62
1, 38101, Control_c, 0, 64, 91
1, 38182, Note_on_c, 0, 86, 71
1, 38234, Control_c, 0, 64, 88
1, 38248, Control_c, 0, 64, 80
1, 38263, Control_c, 0, 64, 64
1, 38278, Control_c, 0, 64, 0
1, 38314, Note_on_c, 0, 44, 43
1, 38337, Control_c, 0, 64, 64
1, 38352, Control_c, 0, 64, 73
1, 38367, Control_c, 0, 64, 77
1, 38382, Control_c, 0, 64, 79
1, 38396, Control_c, 0, 64, 79
1, 38397, Note_off_c, 0, 44, 51
1, 38426, Control_c, 0, 64, 80
1, 38431, Note_on_c, 0, 54, 47
1, 38456, Control_c, 0, 64, 80
1, 38467, Note_off_c, 0, 86, 59
1, 38486, Control_c, 0, 64, 81
1, 38512, Note_off_c, 0, 54, 60
1, 38531, Control_c, 0, 64, 81
1, 38572, Note_on_c, 0, 60, 40
1, 38605, Control_c, 0, 64, 82
1, 38606, Note_off_c, 0, 60, 52
1, 38672, Note_on_c, 0, 63, 55
1, 38701, Control_c, 0, 64, 82
1, 38754, Note_off_c, 0, 63, 38
1, 38760, Control_c, 0, 64, 83
1, 38817, Note_on_c, 0, 69, 51
1, 38850, Control_c, 0, 64, 83
1, 38900, Note_off_c, 0, 69, 52
1, 38939, Control_c, 0, 64, 84
1, 39002, Note_on_c, 0, 75, 41
1, 39057, Control_c, 0, 64, 84
1, 39186, Note_off_c, 0, 75, 57
1, 39189, Control_c, 0, 64, 85
1, 39191, Note_on_c, 0, 78, 54
1, 39260, Note_off_c, 0, 78, 52
1, 39309, Control_c, 0, 64, 85
1, 39554, Control_c, 0, 64, 86
1, 39673, Note_on_c, 0, 87, 67
1, 40292, Note_off_c, 0, 87, 17
1, 40570, Note_on_c, 0, 32, 47
1, 41037, Control_c, 0, 64, 86
1, 41109, Note_on_c, 0, 44, 42
1, 41155, Note_off_c, 0, 32, 40
1, 41233, Note_off_c, 0, 44, 54
1, 41473, Note_on_c, 0, 51, 46
1, 41737, Note_on_c, 0, 54, 42
1, 41852, Note_off_c, 0, 51, 30
1, 41997, Note_on_c, 0, 60, 37
1, 42015, Note_off_c, 0, 54, 32
1, 42316, Note_on_c, 0, 68, 50
1, 42368, Note_off_c, 0, 68, 0
1, 42368, Note_on_c, 0, 68, 10
1, 42655, Note_on_c, 0, 72, 45
1, 43054, Note_on_c, 0, 78, 49
1, 43115, Note_off_c, 0, 78, 0
1, 43115, Note_on_c, 0, 78, 9
1, 43524, Note_off_c, 0, 60, 22
1, 43655, Note_on_c, 0, 84, 58
1, 43701, Note_off_c, 0, 68, 41
1, 43831, Control_c, 0, 64, 87
1, 44120, Control_c, 0, 64, 87
1, 44313, Control_c, 0, 64, 88
1, 44446, Control_c, 0, 64, 88
1, 44594, Control_c, 0, 64, 89
1, 44705, Control_c, 0, 64, 89
1, 44913, Note_on_c, 0, 92, 71
1, 44928, Control_c, 0, 64, 90
1, 44951, Note_off_c, 0, 92, 58
1, 45062, Control_c, 0, 64, 90
1, 46707, Control_c, 0, 67, 126
1, 46722, Control_c, 0, 67, 126
1, 46751, Control_c, 0, 67, 125
1, 46826, Control_c, 0, 67, 125
1, 46885, Control_c, 0, 67, 124
1, 47071, Control_c, 0, 67, 124
1, 47115, Control_c, 0, 67, 123
1, 47129, Control_c, 0, 67, 122
1, 47144, Control_c, 0, 67, 119
1, 47159, Control_c, 0, 67, 118
1, 47174, Control_c, 0, 67, 116
1, 47189, Control_c, 0, 67, 115
1, 47218, Control_c, 0, 67, 115
1, 47233, Control_c, 0, 67, 114
1, 47263, Control_c, 0, 67, 114
1, 47277, Control_c, 0, 67, 113
1, 47323, Control_c, 0, 67, 113
1, 47379, Note_off_c, 0, 84, 6
1, 47412, Control_c, 0, 67, 112
1, 47486, Control_c, 0, 67, 112
1, 47500, Control_c, 0, 67, 111
1, 47515, Control_c, 0, 67, 110
1, 47530, Control_c, 0, 67, 109
1, 47545, Control_c, 0, 67, 108
1, 47560, Control_c, 0, 67, 107
1, 47575, Control_c, 0, 67, 106
1, 47590, Control_c, 0, 67, 106
1, 47604, Control_c, 0, 67, 105
1, 47619, Control_c, 0, 67, 105
1, 47649, Control_c, 0, 67, 104
1, 47730, Control_c, 0, 64, 90
1, 47745, Control_c, 0, 67, 104
1, 47923, Control_c, 0, 64, 89
1, 48041, Control_c, 0, 64, 89
1, 48146, Control_c, 0, 67, 103
1, 48190, Control_c, 0, 64, 88
1, 48297, Note_off_c, 0, 78, 6
1, 48309, Control_c, 0, 64, 88
1, 48368, Control_c, 0, 64, 87
1, 48464, Control_c, 0, 64, 87
1, 48524, Control_c, 0, 64, 86
1, 48597, Control_c, 0, 64, 86
1, 48687, Control_c, 0, 64, 85
1, 48687, Control_c, 0, 67, 103
1, 48731, Control_c, 0, 64, 85
1, 48761, Control_c, 0, 64, 84
1, 48790, Control_c, 0, 64, 84
1, 48835, Control_c, 0, 64, 83
1, 48879, Control_c, 0, 64, 83
1, 48908, Note_off_c, 0, 72, 22
1, 48910, Control_c, 0, 64, 82
1, 48910, Control_c, 0, 67, 102
1, 48940, Control_c, 0, 64, 82
1, 48969, Control_c, 0, 64, 81
1, 48998, Control_c, 0, 64, 81
1, 49028, Control_c, 0, 64, 80
1, 49043, Control_c, 0, 64, 80
1, 49072, Control_c, 0, 64, 79
1, 49102, Control_c, 0, 64, 79
1, 49117, Control_c, 0, 64, 78
1, 49146, Control_c, 0, 64, 78
1, 49184, Control_c, 0, 64, 77
1, 49199, Control_c, 0, 64, 77
1, 49213, Control_c, 0, 64, 76
1, 49228, Control_c, 0, 64, 76
1, 49243, Control_c, 0, 64, 75
1, 49258, Control_c, 0, 64, 75
1, 49273, Control_c, 0, 64, 74
1, 49287, Control_c, 0, 64, 73
1, 49302, Control_c, 0, 64, 72
1, 49317, Control_c, 0, 64, 71
1, 49317, Control_c, 0, 67, 102
1, 49331, Control_c, 0, 64, 70
1, 49346, Control_c, 0, 64, 69
1, 49361, Control_c, 0, 64, 68
1, 49376, Control_c, 0, 64, 66
1, 49391, Control_c, 0, 64, 65
1, 49405, Control_c, 0, 64, 64
1, 49405, Control_c, 0, 67, 101
1, 49420, Control_c, 0, 64, 64
1, 49420, Control_c, 0, 67, 95
1, 49435, Control_c, 0, 67, 92
1, 49450, Control_c, 0, 67, 90
1, 49465, Control_c, 0, 64, 63
1, 49465, Control_c, 0, 67, 89
1, 49479, Control_c, 0, 67, 88
1, 49494, Control_c, 0, 64, 63
1, 49494, Control_c, 0, 67, 88
1, 49524, Control_c, 0, 67, 87
1, 49539, Control_c, 0, 64, 62
1, 49539, Control_c, 0, 67, 87
1, 49554, Control_c, 0, 64, 62
1, 49569, Control_c, 0, 64, 61
1, 49584, Control_c, 0, 64, 60
1, 49584, Control_c, 0, 67, 86
1, 49598, Control_c, 0, 64, 59
1, 49598, Control_c, 0, 67, 86
1, 49613, Control_c, 0, 64, 58
1, 49613, Control_c, 0, 67, 85
1, 49628, Control_c, 0, 64, 57
1, 49628, Control_c, 0, 67, 85
1, 49643, Control_c, 0, 64, 56
1, 49643, Control_c, 0, 67, 84
1, 49658, Control_c, 0, 64, 55
1, 49672, Control_c, 0, 64, 54
1, 49687, Control_c, 0, 64, 53
1, 49687, Control_c, 0, 67, 84
1, 49703, Control_c, 0, 64, 53
1, 49807, Control_c, 0, 67, 84
1, 49822, Control_c, 0, 67, 85
1, 49837, Control_c, 0, 64, 53
1, 49837, Control_c, 0, 67, 85
1, 49852, Control_c, 0, 67, 86
1, 49867, Control_c, 0, 64, 54
1, 49867, Control_c, 0, 67, 86
1, 49882, Control_c, 0, 67, 87
1, 49896, Control_c, 0, 64, 54
1, 49896, Control_c, 0, 67, 87
1, 49911, Control_c, 0, 67, 88
1, 49933, Control_c, 0, 64, 55
1, 49933, Control_c, 0, 67, 88
1, 49948, Control_c, 0, 64, 55
1, 49962, Control_c, 0, 64, 56
1, 49962, Control_c, 0, 67, 89
1, 49977, Control_c, 0, 64, 56
1, 49992, Control_c, 0, 64, 57
1, 49992, Control_c, 0, 67, 89
1, 50007, Control_c, 0, 64, 58
1, 50022, Control_c, 0, 64, 59
1, 50022, Control_c, 0, 67, 90
1, 50037, Control_c, 0, 64, 60
1, 50052, Control_c, 0, 64, 61
1, 50067, Control_c, 0, 64, 62
1, 50082, Control_c, 0, 64, 63
1, 50082, Control_c, 0, 67, 89
1, 50096, Control_c, 0, 64, 64
1, 50096, Control_c, 0, 67, 89
1, 50111, Control_c, 0, 64, 64
1, 50126, Control_c, 0, 64, 65
1, 50141, Control_c, 0, 64, 65
1, 50155, Control_c, 0, 64, 66
1, 50155, Control_c, 0, 67, 88
1, 50170, Control_c, 0, 64, 66
1, 50170, Control_c, 0, 67, 88
1, 50185, Control_c, 0, 64, 67
1, 50200, Control_c, 0, 67, 87
1, 50215, Control_c, 0, 64, 67
1, 50215, Control_c, 0, 67, 87
1, 50229, Control_c, 0, 64, 68
1, 50244, Control_c, 0, 64, 69
1, 50259, Control_c, 0, 64, 70
1, 50274, Control_c, 0, 64, 70
1, 50274, Control_c, 0, 67, 86
1, 50289, Control_c, 0, 64, 71
1, 50303, Control_c, 0, 64, 72
1, 50318, Control_c, 0, 64, 73
1, 50333, Control_c, 0, 64, 73
1, 50333, Control_c, 0, 67, 86
1, 50347, Control_c, 0, 64, 74
1, 50362, Control_c, 0, 64, 75
1, 50362, Control_c, 0, 67, 85
1, 50377, Control_c, 0, 64, 75
1, 50377, Control_c, 0, 67, 85
1, 50392, Control_c, 0, 64, 76
1, 50407, Control_c, 0, 64, 77
1, 50407, Control_c, 0, 67, 84
1, 50421, Control_c, 0, 64, 78
1, 50421, Control_c, 0, 67, 84
1, 50436, Control_c, 0, 64, 78
1, 50436, Control_c, 0, 67, 83
1, 50451, Control_c, 0, 64, 79
1, 50451, Control_c, 0, 67, 83
1, 50466, Control_c, 0, 64, 80
1, 50466, Control_c, 0, 67, 81
1, 50481, Control_c, 0, 64, 81
1, 50481, Control_c, 0, 67, 76
1, 50497, Control_c, 0, 64, 82
1, 50497, Control_c, 0, 67, 72
1, 50512, Control_c, 0, 64, 82
1, 50512, Control_c, 0, 67, 68
1, 50526, Control_c, 0, 64, 83
1, 50526, Control_c, 0, 67, 66
1, 50541, Control_c, 0, 64, 84
1, 50541, Control_c, 0, 67, 63
1, 50556, Control_c, 0, 64, 84
1, 50556, Control_c, 0, 67, 60
1, 50570, Control_c, 0, 64, 85
1, 50570, Control_c, 0, 67, 58
1, 50585, Control_c, 0, 64, 86
1, 50585, Control_c, 0, 67, 56
1, 50600, Control_c, 0, 64, 86
1, 50600, Control_c, 0, 67, 55
1, 50615, Control_c, 0, 64, 87
1, 50615, Control_c, 0, 67, 53
1, 50630, Control_c, 0, 64, 87
1, 50630, Control_c, 0, 67, 52
1, 50644, Control_c, 0, 64, 88
1, 50644, Control_c, 0, 67, 51
1, 50659, Control_c, 0, 64, 89
1, 50659, Control_c, 0, 67, 49
1, 50681, Control_c, 0, 64, 89
1, 50681, Control_c, 0, 67, 46
1, 50696, Control_c, 0, 64, 90
1, 50696, Control_c, 0, 67, 44
1, 50711, Control_c, 0, 64, 91
1, 50711, Control_c, 0, 67, 41
1, 50725, Control_c, 0, 64, 91
1, 50725, Control_c, 0, 67, 38
1, 50728, Note_on_c, 0, 56, 50
1, 50740, Control_c, 0, 64, 92
1, 50740, Control_c, 0, 67, 35
1, 50755, Control_c, 0, 64, 92
1, 50755, Control_c, 0, 67, 31
1, 50770, Control_c, 0, 64, 93
1, 50770, Control_c, 0, 67, 28
1, 50785, Control_c, 0, 64, 93
1, 50785, Control_c, 0, 67, 24
1, 50800, Control_c, 0, 64, 94
1, 50800, Control_c, 0, 67, 20
1, 50815, Control_c, 0, 64, 94
1, 50815, Control_c, 0, 67, 16
1, 50830, Control_c, 0, 64, 95
1, 50830, Control_c, 0, 67, 11
1, 50844, Control_c, 0, 67, 0
1, 50859, Control_c, 0, 64, 95
1, 50889, Control_c, 0, 64, 96
1, 50933, Control_c, 0, 64, 96
1, 50982, Note_off_c, 0, 56, 53
1, 51021, Note_on_c, 0, 49, 44
1, 51074, Note_off_c, 0, 49, 55
1, 51085, Note_on_c, 0, 56, 25
1, 51125, Control_c, 0, 64, 97
1, 51296, Note_on_c, 0, 65, 57
1, 51312, Note_off_c, 0, 56, 0
1, 51348, Poly_aftertouch_c, 0, 56, 127
1, 51631, Note_off_c, 0, 65, 34
1, 51637, Poly_aftertouch_c, 0, 56, 0
1, 51712, Control_c, 0, 64, 96
1, 51839, Note_on_c, 0, 61, 55
1, 51865, Note_on_c, 0, 53, 43
1, 52081, Note_off_c, 0, 53, 37
1, 52116, Note_off_c, 0, 61, 49
1, 52238, Control_c, 0, 64, 96
1, 52253, Control_c, 0, 64, 94
1, 52267, Note_on_c, 0, 56, 49
1, 52268, Control_c, 0, 64, 89
1, 52281, Note_on_c, 0, 44, 41
1, 52283, Control_c, 0, 64, 81
1, 52290, Note_on_c, 0, 37, 38
1, 52297, Control_c, 0, 64, 73
1, 52306, Note_on_c, 0, 53, 34
1, 52312, Control_c, 0, 64, 66
1, 52327, Control_c, 0, 64, 62
1, 52341, Control_c, 0, 64, 63
1, 52356, Control_c, 0, 64, 65
1, 52371, Control_c, 0, 64, 69
1, 52386, Control_c, 0, 64, 72
1, 52401, Control_c, 0, 64, 75
1, 52416, Control_c, 0, 64, 77
1, 52428, Note_off_c, 0, 56, 30
1, 52431, Control_c, 0, 64, 78
1, 52445, Control_c, 0, 64, 78
1, 52453, Note_off_c, 0, 53, 41
1, 52460, Control_c, 0, 64, 79
1, 52475, Control_c, 0, 64, 80
1, 52490, Control_c, 0, 64, 81
1, 52505, Control_c, 0, 64, 81
1, 52520, Control_c, 0, 64, 82
1, 52535, Control_c, 0, 64, 82
1, 52564, Control_c, 0, 64, 83
1, 52687, Note_on_c, 0, 53, 53
1, 52736, Note_on_c, 0, 49, 40
1, 53061, Control_c, 0, 64, 82
1, 53071, Note_off_c, 0, 49, 38
1, 53076, Control_c, 0, 64, 81
1, 53077, Note_on_c, 0, 51, 49
1, 53082, Note_on_c, 0, 48, 46
1, 53091, Control_c, 0, 64, 76
1, 53106, Control_c, 0, 64, 71
1, 53120, Control_c, 0, 64, 64
1, 53132, Note_off_c, 0, 53, 42
1, 53135, Control_c, 0, 64, 50
1, 53150, Control_c, 0, 64, 29
1, 53165, Control_c, 0, 64, 24
1, 53179, Control_c, 0, 64, 33
1, 53194, Control_c, 0, 64, 52
1, 53209, Control_c, 0, 64, 61
1, 53224, Control_c, 0, 64, 65
1, 53238, Control_c, 0, 64, 68
1, 53253, Control_c, 0, 64, 70
1, 53268, Control_c, 0, 64, 71
1, 53283, Control_c, 0, 64, 73
1, 53298, Control_c, 0, 64, 74
1, 53313, Control_c, 0, 64, 76
1, 53328, Control_c, 0, 64, 76
1, 53343, Control_c, 0, 64, 77
1, 53358, Control_c, 0, 64, 77
1, 53372, Control_c, 0, 64, 78
1, 53420, Note_on_c, 0, 53, 50
1, 53420, Note_off_c, 0, 51, 56
1, 53432, Control_c, 0, 64, 77
1, 53446, Control_c, 0, 64, 74
1, 53448, Note_off_c, 0, 48, 37
1, 53449, Note_on_c, 0, 47, 55
1, 53461, Control_c, 0, 64, 66
1, 53476, Control_c, 0, 64, 41
1, 53490, Control_c, 0, 64, 0
1, 53521, Control_c, 0, 64, 32
1, 53536, Control_c, 0, 64, 59
1, 53551, Control_c, 0, 64, 66
1, 53565, Control_c, 0, 64, 69
1, 53566, Note_off_c, 0, 47, 63
1, 53571, Note_off_c, 0, 44, 39
1, 53580, Control_c, 0, 64, 71
1, 53581, Note_off_c, 0, 37, 28
1, 53595, Control_c, 0, 64, 72
1, 53610, Control_c, 0, 64, 73
1, 53625, Control_c, 0, 64, 74
1, 53639, Control_c, 0, 64, 76
1, 53654, Control_c, 0, 64, 77
1, 53677, Control_c, 0, 64, 78
1, 53691, Control_c, 0, 64, 79
1, 53766, Control_c, 0, 64, 78
1, 53772, Note_on_c, 0, 54, 50
1, 53781, Control_c, 0, 64, 74
1, 53783, Note_on_c, 0, 46, 55
1, 53788, Note_on_c, 0, 44, 49
1, 53796, Control_c, 0, 64, 67
1, 53803, Note_on_c, 0, 37, 25
1, 53808, Note_off_c, 0, 53, 34
1, 53811, Control_c, 0, 64, 52
1, 53826, Control_c, 0, 64, 21
1, 53840, Control_c, 0, 64, 27
1, 53855, Control_c, 0, 64, 50
1, 53870, Control_c, 0, 64, 64
1, 53885, Control_c, 0, 64, 68
1, 53900, Control_c, 0, 64, 71
1, 53907, Note_off_c, 0, 46, 61
1, 53915, Control_c, 0, 64, 73
1, 53916, Note_off_c, 0, 54, 60
1, 53929, Control_c, 0, 64, 74
1, 53944, Control_c, 0, 64, 75
1, 53959, Control_c, 0, 64, 76
1, 53974, Control_c, 0, 64, 78
1, 53989, Control_c, 0, 64, 79
1, 54003, Control_c, 0, 64, 80
1, 54018, Control_c, 0, 64, 81
1, 54077, Control_c, 0, 64, 78
1, 54083, Note_on_c, 0, 55, 56
1, 54083, Note_off_c, 0, 37, 36
1, 54092, Control_c, 0, 64, 73
1, 54106, Note_on_c, 0, 45, 44
1, 54107, Control_c, 0, 64, 65
1, 54114, Note_on_c, 0, 52, 38
1, 54121, Control_c, 0, 64, 49
1, 54136, Control_c, 0, 64, 45
1, 54151, Control_c, 0, 64, 59
1, 54166, Control_c, 0, 64, 66
1, 54175, Note_off_c, 0, 44, 46
1, 54181, Control_c, 0, 64, 71
1, 54195, Control_c, 0, 64, 74
1, 54198, Note_off_c, 0, 45, 61
1, 54201, Note_off_c, 0, 52, 57
1, 54210, Control_c, 0, 64, 76
1, 54225, Control_c, 0, 64, 77
1, 54226, Note_off_c, 0, 55, 60
1, 54240, Control_c, 0, 64, 78
1, 54255, Control_c, 0, 64, 78
1, 54268, Control_c, 0, 64, 79
1, 54283, Control_c, 0, 64, 80
1, 54298, Control_c, 0, 64, 80
1, 54312, Control_c, 0, 64, 81
1, 54322, Note_on_c, 0, 37, 34
1, 54372, Control_c, 0, 64, 78
1, 54386, Control_c, 0, 64, 72
1, 54401, Control_c, 0, 64, 58
1, 54423, Note_on_c, 0, 44, 57
1, 54424, Control_c, 0, 64, 0
1, 54442, Note_on_c, 0, 56, 44
1, 54446, Note_on_c, 0, 53, 36
1, 54469, Note_off_c, 0, 37, 36
1, 54499, Control_c, 0, 64, 63
1, 54514, Control_c, 0, 64, 68
1, 54529, Control_c, 0, 64, 70
1, 54543, Control_c, 0, 64, 73
1, 54558, Control_c, 0, 64, 75
1, 54561, Note_off_c, 0, 53, 60
1, 54573, Control_c, 0, 64, 77
1, 54588, Control_c, 0, 64, 79
1, 54597, Note_off_c, 0, 44, 47
1, 54603, Control_c, 0, 64, 80
1, 54617, Control_c, 0, 64, 81
1, 54632, Control_c, 0, 64, 82
1, 54647, Control_c, 0, 64, 83
1, 54654, Note_off_c, 0, 56, 42
1, 54662, Control_c, 0, 64, 83
1, 54691, Control_c, 0, 64, 84
1, 54765, Control_c, 0, 64, 84
1, 54782, Note_on_c, 0, 58, 55
1, 54792, Note_on_c, 0, 55, 43
1, 54794, Note_on_c, 0, 52, 50
1, 54810, Control_c, 0, 64, 85
1, 54915, Note_off_c, 0, 52, 52
1, 55033, Note_off_c, 0, 58, 61
1, 55127, Note_off_c, 0, 55, 41
1, 55250, Note_on_c, 0, 60, 53
1, 55250, Note_on_c, 0, 80, 66
1, 55259, Note_on_c, 0, 54, 18
1, 55261, Control_c, 0, 64, 83
1, 55262, Note_on_c, 0, 68, 51
1, 55272, Note_on_c, 0, 51, 44
1, 55276, Control_c, 0, 64, 77
1, 55292, Control_c, 0, 64, 66
1, 55307, Control_c, 0, 64, 0
1, 55381, Control_c, 0, 64, 58
1, 55396, Control_c, 0, 64, 67
1, 55411, Control_c, 0, 64, 69
1, 55426, Control_c, 0, 64, 70
1, 55440, Note_off_c, 0, 60, 61
1, 55440, Control_c, 0, 64, 71
1, 55455, Control_c, 0, 64, 73
1, 55470, Control_c, 0, 64, 75
1, 55473, Note_off_c, 0, 54, 40
1, 55485, Control_c, 0, 64, 77
1, 55500, Control_c, 0, 64, 78
1, 55514, Control_c, 0, 64, 79
1, 55529, Control_c, 0, 64, 80
1, 55542, Note_off_c, 0, 51, 54
1, 55544, Control_c, 0, 64, 81
1, 55559, Control_c, 0, 64, 82
1, 55573, Control_c, 0, 64, 83
1, 55588, Control_c, 0, 64, 84
1, 55633, Control_c, 0, 64, 82
1, 55636, Note_on_c, 0, 61, 66
1, 55647, Control_c, 0, 64, 78
1, 55652, Note_on_c, 0, 53, 48
1, 55652, Note_on_c, 0, 56, 42
1, 55662, Control_c, 0, 64, 71
1, 55677, Control_c, 0, 64, 58
1, 55692, Control_c, 0, 64, 42
1, 55707, Control_c, 0, 64, 55
1, 55721, Control_c, 0, 64, 64
1, 55736, Control_c, 0, 64, 69
1, 55751, Control_c, 0, 64, 72
1, 55760, Note_off_c, 0, 56, 59
1, 55763, Note_off_c, 0, 53, 65
1, 55766, Control_c, 0, 64, 76
1, 55781, Control_c, 0, 64, 77
1, 55796, Control_c, 0, 64, 78
1, 55811, Control_c, 0, 64, 78
1, 55826, Control_c, 0, 64, 79
1, 55840, Control_c, 0, 64, 81
1, 55855, Control_c, 0, 64, 82
1, 55858, Note_off_c, 0, 61, 60
1, 55870, Control_c, 0, 64, 84
1, 55884, Control_c, 0, 64, 85
1, 55899, Control_c, 0, 64, 86
1, 55951, Control_c, 0, 64, 85
1, 55963, Note_on_c, 0, 63, 66
1, 55966, Control_c, 0, 64, 79
1, 55981, Control_c, 0, 64, 69
1, 55983, Note_on_c, 0, 54, 50
1, 55994, Note_on_c, 0, 60, 37
1, 55996, Control_c, 0, 64, 43
1, 56011, Control_c, 0, 64, 0
1, 56040, Control_c, 0, 64, 10
1, 56055, Control_c, 0, 64, 65
1, 56070, Control_c, 0, 64, 70
1, 56079, Note_off_c, 0, 60, 59
1, 56085, Control_c, 0, 64, 73
1, 56100, Control_c, 0, 64, 76
1, 56115, Control_c, 0, 64, 77
1, 56130, Control_c, 0, 64, 79
1, 56140, Note_off_c, 0, 54, 57
1, 56145, Control_c, 0, 64, 81
1, 56160, Control_c, 0, 64, 85
1, 56175, Control_c, 0, 64, 88
1, 56189, Note_off_c, 0, 63, 58
1, 56189, Control_c, 0, 64, 90
1, 56204, Control_c, 0, 64, 91
1, 56249, Control_c, 0, 64, 88
1, 56263, Control_c, 0, 64, 83
1, 56278, Control_c, 0, 64, 73
1, 56293, Note_on_c, 0, 65, 65
1, 56293, Control_c, 0, 64, 62
1, 56297, Note_on_c, 0, 53, 61
1, 56308, Control_c, 0, 64, 0
1, 56314, Note_on_c, 0, 61, 44
1, 56337, Control_c, 0, 64, 38
1, 56352, Control_c, 0, 64, 66
1, 56367, Control_c, 0, 64, 71
1, 56382, Control_c, 0, 64, 76
1, 56396, Control_c, 0, 64, 78
1, 56400, Note_off_c, 0, 53, 64
1, 56411, Control_c, 0, 64, 79
1, 56426, Control_c, 0, 64, 80
1, 56441, Control_c, 0, 64, 82
1, 56455, Control_c, 0, 64, 84
1, 56457, Note_off_c, 0, 61, 49
1, 56460, Note_off_c, 0, 65, 61
1, 56470, Control_c, 0, 64, 86
1, 56485, Control_c, 0, 64, 87
1, 56500, Control_c, 0, 64, 88
1, 56507, Note_off_c, 0, 68, 55
1, 56507, Note_off_c, 0, 80, 56
1, 56514, Control_c, 0, 64, 89
1, 56529, Control_c, 0, 64, 90
1, 56559, Note_on_c, 0, 51, 45
1, 56574, Control_c, 0, 64, 90
1, 56589, Control_c, 0, 64, 87
1, 56593, Note_on_c, 0, 60, 55
1, 56604, Control_c, 0, 64, 81
1, 56619, Control_c, 0, 64, 68
1, 56628, Note_on_c, 0, 80, 65
1, 56633, Note_on_c, 0, 68, 58
1, 56634, Control_c, 0, 64, 0
1, 56648, Note_on_c, 0, 66, 57
1, 56744, Control_c, 0, 64, 55
1, 56759, Control_c, 0, 64, 65
1, 56774, Control_c, 0, 64, 67
1, 56789, Control_c, 0, 64, 69
1, 56804, Control_c, 0, 64, 72
1, 56808, Note_off_c, 0, 60, 35
1, 56818, Control_c, 0, 64, 74
1, 56833, Control_c, 0, 64, 78
1, 56848, Control_c, 0, 64, 79
1, 56863, Control_c, 0, 64, 80
1, 56877, Note_off_c, 0, 66, 62
1, 56878, Control_c, 0, 64, 81
1, 56884, Note_off_c, 0, 68, 50
1, 56893, Control_c, 0, 64, 81
1, 56908, Control_c, 0, 64, 82
1, 56923, Control_c, 0, 64, 82
1, 56923, Control_c, 0, 67, 9
1, 56938, Control_c, 0, 67, 10
1, 56939, Note_off_c, 0, 51, 31
1, 56953, Control_c, 0, 64, 83
1, 56953, Control_c, 0, 67, 11
1, 56967, Control_c, 0, 67, 12
1, 56982, Control_c, 0, 64, 83
1, 56982, Control_c, 0, 67, 13
1, 56997, Control_c, 0, 67, 13
1, 57012, Control_c, 0, 67, 14
1, 57027, Control_c, 0, 67, 15
1, 57042, Control_c, 0, 67, 16
1, 57057, Control_c, 0, 64, 82
1, 57057, Control_c, 0, 67, 19
1, 57072, Control_c, 0, 64, 77
1, 57072, Control_c, 0, 67, 23
1, 57072, Note_on_c, 0, 54, 39
1, 57073, Note_on_c, 0, 60, 41
1, 57076, Note_on_c, 0, 63, 45
1, 57086, Control_c, 0, 64, 68
1, 57086, Control_c, 0, 67, 28
1, 57101, Control_c, 0, 64, 46
1, 57101, Control_c, 0, 67, 33
1, 57116, Control_c, 0, 64, 10
1, 57116, Control_c, 0, 67, 36
1, 57130, Control_c, 0, 64, 51
1, 57130, Control_c, 0, 67, 38
1, 57145, Control_c, 0, 64, 64
1, 57145, Control_c, 0, 67, 38
1, 57160, Control_c, 0, 64, 68
1, 57160, Control_c, 0, 67, 39
1, 57175, Control_c, 0, 64, 71
1, 57175, Control_c, 0, 67, 41
1, 57182, Note_off_c, 0, 80, 56
1, 57188, Note_off_c, 0, 60, 61
1, 57190, Control_c, 0, 64, 74
1, 57190, Control_c, 0, 67, 43
1, 57204, Control_c, 0, 64, 75
1, 57204, Control_c, 0, 67, 44
1, 57219, Control_c, 0, 64, 75
1, 57234, Control_c, 0, 64, 76
1, 57263, Note_off_c, 0, 63, 37
1, 57264, Control_c, 0, 64, 76
1, 57278, Control_c, 0, 64, 77
1, 57293, Control_c, 0, 64, 77
1, 57337, Control_c, 0, 64, 76
1, 57343, Note_on_c, 0, 77, 57
1, 57345, Note_on_c, 0, 49, 53
1, 57352, Control_c, 0, 64, 69
1, 57352, Control_c, 0, 67, 45
1, 57367, Control_c, 0, 64, 52
1, 57382, Control_c, 0, 64, 0
1, 57419, Control_c, 0, 64, 24
1, 57419, Control_c, 0, 67, 44
1, 57426, Note_off_c, 0, 54, 32
1, 57434, Control_c, 0, 64, 64
1, 57440, Note_off_c, 0, 49, 60
1, 57449, Control_c, 0, 64, 70
1, 57464, Control_c, 0, 64, 74
1, 57474, Note_on_c, 0, 56, 40
1, 57479, Note_off_c, 0, 77, 61
1, 57479, Control_c, 0, 64, 76
1, 57493, Control_c, 0, 64, 77
1, 57508, Control_c, 0, 67, 44
1, 57523, Control_c, 0, 67, 43
1, 57537, Control_c, 0, 67, 43
1, 57582, Control_c, 0, 67, 42
1, 57597, Control_c, 0, 64, 77
1, 57610, Note_on_c, 0, 65, 48
1, 57611, Control_c, 0, 67, 43
1, 57641, Control_c, 0, 64, 78
1, 57656, Control_c, 0, 67, 42
1, 57660, Note_on_c, 0, 92, 62
1, 57702, Control_c, 0, 67, 42
1, 57716, Control_c, 0, 64, 78
1, 57746, Control_c, 0, 67, 42
1, 57775, Control_c, 0, 64, 79
1, 57790, Control_c, 0, 67, 42
1, 57820, Control_c, 0, 67, 41
1, 57826, Note_off_c, 0, 92, 36
1, 57924, Control_c, 0, 67, 41
1, 57939, Control_c, 0, 67, 40
1, 57953, Control_c, 0, 67, 40
1, 57956, Note_off_c, 0, 56, 31
1, 57983, Control_c, 0, 67, 39
1, 58042, Control_c, 0, 67, 39
1, 58046, Note_off_c, 0, 65, 55
1, 58050, Note_on_c, 0, 61, 59
1, 58057, Control_c, 0, 67, 38
1, 58061, Note_on_c, 0, 53, 44
1, 58087, Control_c, 0, 64, 79
1, 58087, Control_c, 0, 67, 38
1, 58101, Control_c, 0, 67, 37
1, 58131, Control_c, 0, 64, 80
1, 58146, Control_c, 0, 64, 82
1, 58168, Control_c, 0, 64, 84
1, 58183, Control_c, 0, 64, 87
1, 58183, Control_c, 0, 67, 38
1, 58198, Control_c, 0, 64, 90
1, 58213, Control_c, 0, 64, 93
1, 58228, Control_c, 0, 64, 98
1, 58228, Control_c, 0, 67, 38
1, 58242, Control_c, 0, 64, 103
1, 58257, Control_c, 0, 64, 108
1, 58257, Control_c, 0, 67, 39
1, 58272, Control_c, 0, 64, 113
1, 58286, Control_c, 0, 64, 114
1, 58300, Note_off_c, 0, 61, 52
1, 58301, Control_c, 0, 64, 115
1, 58316, Note_off_c, 0, 53, 27
1, 58331, Control_c, 0, 64, 116
1, 58390, Control_c, 0, 67, 38
1, 58420, Control_c, 0, 67, 39
1, 58434, Control_c, 0, 64, 115
1, 58449, Control_c, 0, 64, 113
1, 58449, Control_c, 0, 67, 39
1, 58464, Control_c, 0, 64, 108
1, 58479, Control_c, 0, 64, 100
1, 58483, Note_on_c, 0, 44, 52
1, 58495, Control_c, 0, 64, 90
1, 58497, Note_on_c, 0, 56, 47
1, 58500, Note_on_c, 0, 37, 44
1, 58500, Note_on_c, 0, 53, 42
1, 58509, Control_c, 0, 64, 79
1, 58509, Control_c, 0, 67, 39
1, 58524, Control_c, 0, 64, 68
1, 58539, Control_c, 0, 64, 48
1, 58554, Control_c, 0, 64, 0
1, 58583, Control_c, 0, 64, 54
1, 58598, Control_c, 0, 64, 64
1, 58613, Control_c, 0, 64, 68
1, 58628, Control_c, 0, 64, 70
1, 58643, Control_c, 0, 64, 72
1, 58658, Control_c, 0, 64, 74
1, 58671, Note_off_c, 0, 56, 43
1, 58673, Control_c, 0, 64, 76
1, 58678, Note_off_c, 0, 53, 50
1, 58687, Control_c, 0, 64, 78
1, 58702, Control_c, 0, 64, 80
1, 58702, Control_c, 0, 67, 39
1, 58717, Control_c, 0, 64, 81
1, 58732, Control_c, 0, 64, 82
1, 58747, Control_c, 0, 64, 83
1, 58762, Control_c, 0, 64, 83
1, 58806, Control_c, 0, 67, 40
1, 58880, Control_c, 0, 64, 83
1, 58895, Control_c, 0, 64, 81
1, 58917, Control_c, 0, 64, 77
1, 58932, Control_c, 0, 64, 69
1, 58932, Control_c, 0, 67, 40
1, 58935, Note_on_c, 0, 53, 49
1, 58947, Control_c, 0, 64, 59
1, 58962, Control_c, 0, 64, 36
1, 58967, Note_on_c, 0, 49, 14
1, 58977, Control_c, 0, 64, 39
1, 58991, Control_c, 0, 64, 52
1, 58992, Note_off_c, 0, 53, 0
1, 58992, Note_on_c, 0, 53, 17
1, 59006, Control_c, 0, 64, 62
1, 59021, Control_c, 0, 64, 65
1, 59036, Control_c, 0, 64, 67
1, 59051, Control_c, 0, 64, 69
1, 59065, Control_c, 0, 64, 71
1, 59080, Control_c, 0, 64, 73
1, 59095, Control_c, 0, 64, 74
1, 59109, Control_c, 0, 64, 75
1, 59109, Control_c, 0, 67, 41
1, 59124, Control_c, 0, 64, 75
1, 59139, Control_c, 0, 64, 76
1, 59139, Control_c, 0, 67, 41
1, 59169, Control_c, 0, 64, 76
1, 59183, Control_c, 0, 64, 77
1, 59198, Control_c, 0, 64, 78
1, 59257, Control_c, 0, 67, 42
1, 59263, Note_off_c, 0, 49, 37
1, 59287, Note_on_c, 0, 51, 50
1, 59288, Control_c, 0, 64, 76
1, 59290, Note_on_c, 0, 48, 45
1, 59303, Control_c, 0, 64, 72
1, 59318, Control_c, 0, 64, 62
1, 59326, Note_off_c, 0, 53, 36
1, 59332, Control_c, 0, 64, 0
1, 59362, Control_c, 0, 67, 41
1, 59377, Control_c, 0, 64, 20
1, 59377, Control_c, 0, 67, 41
1, 59392, Control_c, 0, 64, 61
1, 59392, Control_c, 0, 67, 40
1, 59406, Control_c, 0, 64, 66
1, 59406, Control_c, 0, 67, 40
1, 59421, Control_c, 0, 64, 68
1, 59421, Control_c, 0, 67, 39
1, 59436, Control_c, 0, 64, 68
1, 59436, Control_c, 0, 67, 38
1, 59451, Control_c, 0, 64, 69
1, 59451, Control_c, 0, 67, 38
1, 59466, Control_c, 0, 64, 71
1, 59466, Control_c, 0, 67, 37
1, 59480, Control_c, 0, 64, 72
1, 59480, Control_c, 0, 67, 37
1, 59495, Control_c, 0, 64, 73
1, 59510, Control_c, 0, 64, 75
1, 59510, Control_c, 0, 67, 36
1, 59525, Control_c, 0, 64, 75
1, 59540, Control_c, 0, 64, 76
1, 59555, Control_c, 0, 64, 76
1, 59614, Control_c, 0, 64, 75
1, 59621, Note_off_c, 0, 48, 44
1, 59628, Note_on_c, 0, 53, 57
1, 59629, Control_c, 0, 64, 70
1, 59638, Note_on_c, 0, 47, 49
1, 59644, Control_c, 0, 64, 64
1, 59644, Control_c, 0, 67, 36
1, 59666, Control_c, 0, 64, 51
1, 59681, Control_c, 0, 64, 49
1, 59695, Control_c, 0, 64, 57
1, 59695, Control_c, 0, 67, 35
1, 59710, Note_off_c, 0, 51, 36
1, 59710, Control_c, 0, 64, 64
1, 59716, Note_off_c, 0, 37, 39
1, 59725, Control_c, 0, 64, 67
1, 59740, Control_c, 0, 64, 69
1, 59740, Control_c, 0, 67, 35
1, 59755, Control_c, 0, 64, 71
1, 59760, Note_off_c, 0, 47, 57
1, 59770, Control_c, 0, 64, 73
1, 59770, Control_c, 0, 67, 34
1, 59783, Note_off_c, 0, 44, 40
1, 59784, Control_c, 0, 64, 73
1, 59784, Control_c, 0, 67, 34
1, 59799, Control_c, 0, 64, 74
1, 59814, Control_c, 0, 64, 75
1, 59814, Control_c, 0, 67, 32
1, 59829, Control_c, 0, 64, 76
1, 59829, Control_c, 0, 67, 31
1, 59844, Control_c, 0, 64, 76
1, 59858, Control_c, 0, 64, 77
1, 59858, Control_c, 0, 67, 30
1, 59873, Control_c, 0, 64, 78
1, 59888, Control_c, 0, 64, 79
1, 59932, Control_c, 0, 67, 30
1, 59947, Control_c, 0, 64, 78
1, 59962, Control_c, 0, 64, 75
1, 59973, Note_on_c, 0, 54, 54
1, 59977, Control_c, 0, 64, 69
1, 59980, Note_on_c, 0, 44, 51
1, 59992, Note_on_c, 0, 46, 45
1, 59992, Control_c, 0, 64, 57
1, 59997, Note_on_c, 0, 37, 34
1, 60006, Control_c, 0, 64, 32
1, 60006, Control_c, 0, 67, 29
1, 60021, Control_c, 0, 64, 38
1, 60036, Control_c, 0, 64, 55
1, 60036, Control_c, 0, 67, 29
1, 60042, Note_off_c, 0, 53, 50
1, 60051, Control_c, 0, 64, 64
1, 60051, Control_c, 0, 67, 28
1, 60065, Control_c, 0, 64, 67
1, 60065, Control_c, 0, 67, 28
1, 60082, Control_c, 0, 64, 70
1, 60082, Control_c, 0, 67, 27
1, 60097, Control_c, 0, 64, 72
1, 60111, Control_c, 0, 64, 73
1, 60126, Control_c, 0, 64, 75
1, 60126, Control_c, 0, 67, 27
1, 60139, Note_off_c, 0, 54, 61
1, 60141, Control_c, 0, 64, 76
1, 60141, Control_c, 0, 67, 26
1, 60149, Note_off_c, 0, 46, 35
1, 60155, Control_c, 0, 64, 77
1, 60155, Control_c, 0, 67, 25
1, 60170, Control_c, 0, 64, 78
1, 60170, Control_c, 0, 67, 24
1, 60185, Control_c, 0, 64, 79
1, 60200, Control_c, 0, 64, 80
1, 60275, Control_c, 0, 64, 78
1, 60275, Control_c, 0, 67, 23
1, 60290, Control_c, 0, 64, 73
1, 60293, Note_off_c, 0, 37, 39
1, 60302, Note_on_c, 0, 55, 56
1, 60304, Control_c, 0, 64, 65
1, 60314, Note_on_c, 0, 52, 45
1, 60319, Control_c, 0, 64, 49
1, 60320, Note_on_c, 0, 45, 43
1, 60334, Control_c, 0, 64, 45
1, 60349, Control_c, 0, 64, 57
1, 60363, Control_c, 0, 64, 66
1, 60374, Note_off_c, 0, 44, 41
1, 60378, Control_c, 0, 64, 70
1, 60393, Control_c, 0, 64, 75
1, 60416, Control_c, 0, 64, 77
1, 60431, Control_c, 0, 64, 78
1, 60445, Control_c, 0, 64, 78
1, 60460, Note_off_c, 0, 52, 64
1, 60460, Control_c, 0, 64, 79
1, 60460, Control_c, 0, 67, 23
1, 60475, Control_c, 0, 64, 79
1, 60479, Note_off_c, 0, 45, 35
1, 60479, Poly_aftertouch_c, 0, 43, 127
1, 60485, Note_off_c, 0, 55, 63
1, 60504, Control_c, 0, 64, 80
1, 60519, Control_c, 0, 64, 80
1, 60536, Note_on_c, 0, 37, 50
1, 60593, Control_c, 0, 64, 77
1, 60608, Control_c, 0, 64, 71
1, 60623, Control_c, 0, 64, 63
1, 60631, Note_on_c, 0, 44, 59
1, 60637, Control_c, 0, 64, 39
1, 60648, Note_on_c, 0, 56, 53
1, 60652, Control_c, 0, 64, 42
1, 60667, Control_c, 0, 64, 60
1, 60668, Note_on_c, 0, 53, 30
1, 60682, Control_c, 0, 64, 67
1, 60689, Note_off_c, 0, 37, 35
1, 60697, Control_c, 0, 64, 72
1, 60711, Control_c, 0, 64, 76
1, 60726, Control_c, 0, 64, 78
1, 60741, Control_c, 0, 64, 79
1, 60741, Control_c, 0, 67, 23
1, 60751, Note_off_c, 0, 53, 61
1, 60756, Control_c, 0, 64, 80
1, 60765, Poly_aftertouch_c, 0, 43, 0
1, 60771, Control_c, 0, 64, 81
1, 60801, Control_c, 0, 64, 81
1, 60823, Note_off_c, 0, 44, 45
1, 60830, Control_c, 0, 64, 82
1, 60860, Note_off_c, 0, 56, 56
1, 60860, Control_c, 0, 64, 82
1, 60875, Control_c, 0, 64, 83
1, 60890, Control_c, 0, 64, 83
1, 60905, Control_c, 0, 64, 84
1, 60920, Control_c, 0, 64, 85
1, 60935, Control_c, 0, 64, 86
1, 60950, Control_c, 0, 64, 86
1, 60979, Control_c, 0, 64, 86
1, 60986, Note_on_c, 0, 58, 60
1, 60994, Control_c, 0, 64, 83
1, 60998, Note_on_c, 0, 55, 47
1, 61004, Note_on_c, 0, 52, 54
1, 61008, Control_c, 0, 64, 77
1, 61023, Control_c, 0, 64, 69
1, 61038, Control_c, 0, 64, 60
1, 61052, Control_c, 0, 64, 57
1, 61067, Control_c, 0, 64, 61
1, 61082, Control_c, 0, 64, 65
1, 61082, Control_c, 0, 67, 23
1, 61097, Control_c, 0, 64, 69
1, 61111, Control_c, 0, 64, 72
1, 61126, Control_c, 0, 64, 75
1, 61140, Note_off_c, 0, 52, 64
1, 61141, Control_c, 0, 64, 77
1, 61164, Control_c, 0, 64, 78
1, 61179, Control_c, 0, 64, 79
1, 61193, Control_c, 0, 64, 79
1, 61193, Control_c, 0, 67, 22
1, 61208, Control_c, 0, 64, 80
1, 61238, Control_c, 0, 64, 80
1, 61253, Control_c, 0, 64, 81
1, 61257, Note_off_c, 0, 58, 64
1, 61282, Control_c, 0, 64, 82
1, 61297, Control_c, 0, 64, 82
1, 61311, Control_c, 0, 64, 83
1, 61355, Note_off_c, 0, 55, 60
1, 61356, Control_c, 0, 64, 82
1, 61364, Note_on_c, 0, 80, 71
1, 61371, Control_c, 0, 64, 79
1, 61375, Note_on_c, 0, 68, 58
1, 61377, Note_on_c, 0, 60, 58
1, 61382, Note_on_c, 0, 54, 49
1, 61385, Control_c, 0, 64, 72
1, 61400, Control_c, 0, 64, 61
1, 61401, Note_on_c, 0, 51, 48
1, 61415, Control_c, 0, 64, 0
1, 61460, Control_c, 0, 64, 56
1, 61460, Control_c, 0, 67, 22
1, 61475, Control_c, 0, 64, 66
1, 61489, Control_c, 0, 64, 70
1, 61504, Control_c, 0, 64, 73
1, 61519, Control_c, 0, 64, 75
1, 61534, Control_c, 0, 64, 76
1, 61549, Control_c, 0, 64, 78
1, 61564, Control_c, 0, 64, 79
1, 61578, Control_c, 0, 64, 81
1, 61593, Control_c, 0, 64, 82
1, 61599, Note_off_c, 0, 60, 60
1, 61608, Control_c, 0, 64, 83
1, 61623, Control_c, 0, 64, 84
1, 61631, Note_off_c, 0, 54, 58
1, 61638, Control_c, 0, 64, 86
1, 61652, Control_c, 0, 64, 88
1, 61667, Control_c, 0, 64, 89
1, 61673, Note_on_c, 0, 56, 11
1, 61675, Note_off_c, 0, 51, 55
1, 61713, Control_c, 0, 64, 88
1, 61727, Control_c, 0, 64, 84
1, 61729, Note_on_c, 0, 61, 72
1, 61742, Control_c, 0, 64, 75
1, 61744, Note_on_c, 0, 53, 53
1, 61757, Control_c, 0, 64, 64
1, 61772, Control_c, 0, 64, 0
1, 61816, Control_c, 0, 64, 62
1, 61831, Control_c, 0, 64, 68
1, 61846, Control_c, 0, 64, 72
1, 61861, Control_c, 0, 64, 74
1, 61875, Control_c, 0, 64, 75
1, 61890, Control_c, 0, 64, 76
1, 61891, Note_off_c, 0, 53, 64
1, 61913, Control_c, 0, 64, 77
1, 61916, Note_off_c, 0, 56, 56
1, 61927, Control_c, 0, 64, 78
1, 61942, Control_c, 0, 64, 80
1, 61957, Control_c, 0, 64, 82
1, 61969, Note_off_c, 0, 61, 63
1, 61972, Control_c, 0, 64, 84
1, 61987, Control_c, 0, 64, 85
1, 61987, Control_c, 0, 67, 22
1, 62046, Control_c, 0, 64, 83
1, 62061, Control_c, 0, 64, 77
1, 62076, Control_c, 0, 64, 66
1, 62077, Note_on_c, 0, 63, 67
1, 62090, Control_c, 0, 64, 0
1, 62099, Note_on_c, 0, 54, 49
1, 62101, Note_on_c, 0, 60, 46
1, 62149, Control_c, 0, 64, 56
1, 62164, Control_c, 0, 64, 66
1, 62179, Control_c, 0, 64, 70
1, 62179, Control_c, 0, 67, 23
1, 62194, Control_c, 0, 64, 73
1, 62208, Control_c, 0, 64, 75
1, 62223, Control_c, 0, 64, 76
1, 62238, Control_c, 0, 64, 78
1, 62253, Control_c, 0, 64, 80
1, 62268, Control_c, 0, 64, 82
1, 62273, Note_off_c, 0, 60, 37
1, 62282, Control_c, 0, 64, 83
1, 62290, Note_off_c, 0, 54, 54
1, 62297, Control_c, 0, 64, 85
1, 62312, Control_c, 0, 64, 86
1, 62322, Note_off_c, 0, 63, 64
1, 62327, Control_c, 0, 64, 88
1, 62342, Control_c, 0, 64, 89
1, 62357, Control_c, 0, 64, 90
1, 62401, Control_c, 0, 64, 86
1, 62416, Control_c, 0, 64, 77
1, 62421, Note_on_c, 0, 65, 62
1, 62426, Note_on_c, 0, 53, 58
1, 62431, Control_c, 0, 64, 63
1, 62443, Note_on_c, 0, 61, 50
1, 62446, Control_c, 0, 64, 0
1, 62491, Control_c, 0, 64, 43
1, 62506, Control_c, 0, 64, 66
1, 62521, Control_c, 0, 64, 71
1, 62521, Control_c, 0, 67, 23
1, 62530, Note_off_c, 0, 53, 65
1, 62536, Control_c, 0, 64, 75
1, 62550, Control_c, 0, 64, 76
1, 62550, Control_c, 0, 67, 24
1, 62565, Control_c, 0, 64, 77
1, 62580, Control_c, 0, 64, 79
1, 62591, Note_off_c, 0, 61, 44
1, 62595, Control_c, 0, 64, 81
1, 62610, Control_c, 0, 64, 82
1, 62624, Control_c, 0, 64, 84
1, 62624, Control_c, 0, 67, 24
1, 62639, Control_c, 0, 64, 85
1, 62658, Note_off_c, 0, 65, 61
1, 62661, Control_c, 0, 64, 85
1, 62676, Control_c, 0, 64, 86
1, 62676, Control_c, 0, 67, 25
1, 62691, Note_off_c, 0, 68, 39
1, 62691, Control_c, 0, 64, 86
1, 62706, Control_c, 0, 64, 87
1, 62711, Note_off_c, 0, 80, 58
1, 62721, Control_c, 0, 64, 87
1, 62736, Control_c, 0, 67, 25
1, 62746, Note_on_c, 0, 51, 37
1, 62750, Control_c, 0, 67, 26
1, 62765, Control_c, 0, 64, 87
1, 62765, Control_c, 0, 67, 26
1, 62780, Control_c, 0, 64, 85
1, 62780, Control_c, 0, 67, 27
1, 62795, Control_c, 0, 64, 79
1, 62795, Control_c, 0, 67, 27
1, 62795, Note_on_c, 0, 60, 57
1, 62810, Control_c, 0, 64, 68
1, 62810, Control_c, 0, 67, 28
1, 62825, Control_c, 0, 64, 0
1, 62825, Control_c, 0, 67, 28
1, 62825, Note_on_c, 0, 80, 63
1, 62840, Note_on_c, 0, 68, 51
1, 62855, Note_on_c, 0, 66, 63
1, 62869, Control_c, 0, 67, 29
1, 62913, Control_c, 0, 64, 39
1, 62913, Control_c, 0, 67, 29
1, 62928, Control_c, 0, 64, 64
1, 62943, Control_c, 0, 64, 68
1, 62943, Control_c, 0, 67, 30
1, 62957, Control_c, 0, 64, 71
1, 62972, Control_c, 0, 64, 73
1, 62987, Control_c, 0, 64, 75
1, 62987, Control_c, 0, 67, 31
1, 63002, Control_c, 0, 64, 78
1, 63007, Note_off_c, 0, 60, 37
1, 63017, Control_c, 0, 64, 80
1, 63030, Note_off_c, 0, 66, 60
1, 63031, Control_c, 0, 64, 81
1, 63061, Control_c, 0, 64, 81
1, 63069, Note_off_c, 0, 68, 54
1, 63075, Control_c, 0, 67, 31
1, 63090, Control_c, 0, 64, 82
1, 63105, Control_c, 0, 64, 82
1, 63115, Note_off_c, 0, 51, 37
1, 63135, Control_c, 0, 64, 83
1, 63195, Control_c, 0, 67, 32
1, 63220, Note_on_c, 0, 60, 45
1, 63228, Note_on_c, 0, 63, 57
1, 63257, Note_on_c, 0, 54, 37
1, 63294, Note_off_c, 0, 60, 53
1, 63305, Note_off_c, 0, 80, 55
1, 63382, Note_off_c, 0, 63, 34
1, 63441, Control_c, 0, 67, 31
1, 63484, Note_on_c, 0, 49, 53
1, 63508, Note_on_c, 0, 77, 56
1, 63514, Control_c, 0, 64, 82
1, 63514, Control_c, 0, 67, 32
1, 63529, Control_c, 0, 64, 75
1, 63544, Control_c, 0, 64, 64
1, 63559, Control_c, 0, 64, 0
1, 63582, Note_off_c, 0, 49, 61
1, 63585, Note_on_c, 0, 56, 44
1, 63603, Control_c, 0, 64, 47
1, 63615, Note_off_c, 0, 54, 15
1, 63618, Control_c, 0, 64, 66
1, 63633, Control_c, 0, 64, 70
1, 63648, Control_c, 0, 64, 73
1, 63650, Note_off_c, 0, 77, 38
1, 63663, Control_c, 0, 64, 74
1, 63677, Control_c, 0, 64, 75
1, 63692, Control_c, 0, 64, 75
1, 63692, Control_c, 0, 67, 31
1, 63716, Note_on_c, 0, 65, 57
1, 63722, Control_c, 0, 64, 76
1, 63737, Control_c, 0, 64, 77
1, 63752, Control_c, 0, 64, 78
1, 63788, Note_on_c, 0, 92, 69
1, 63811, Control_c, 0, 64, 74
1, 63826, Control_c, 0, 64, 65
1, 63841, Control_c, 0, 64, 20
1, 63855, Control_c, 0, 64, 0
1, 63855, Control_c, 0, 67, 31
1, 63870, Control_c, 0, 64, 46
1, 63885, Control_c, 0, 64, 64
1, 63899, Control_c, 0, 64, 70
1, 63899, Control_c, 0, 67, 31
1, 63914, Control_c, 0, 64, 74
1, 63929, Control_c, 0, 64, 77
1, 63944, Control_c, 0, 64, 77
1, 63944, Control_c, 0, 67, 32
1, 63959, Control_c, 0, 64, 78
1, 63988, Control_c, 0, 67, 31
1, 64001, Note_off_c, 0, 92, 61
1, 64003, Control_c, 0, 64, 78
1, 64018, Control_c, 0, 67, 31
1, 64033, Control_c, 0, 64, 79
1, 64047, Control_c, 0, 64, 79
1, 64062, Control_c, 0, 64, 80
1, 64093, Control_c, 0, 64, 80
1, 64122, Control_c, 0, 64, 81
1, 64122, Control_c, 0, 67, 30
1, 64151, Note_on_c, 0, 61, 54
1, 64162, Note_off_c, 0, 65, 56
1, 64176, Note_on_c, 0, 53, 38
1, 64178, Note_off_c, 0, 56, 39
1, 64190, Control_c, 0, 64, 81
1, 64234, Control_c, 0, 64, 82
1, 64249, Control_c, 0, 67, 30
1, 64264, Control_c, 0, 67, 29
1, 64289, Note_off_c, 0, 53, 52
1, 64303, Note_on_c, 0, 68, 59
1, 64383, Note_off_c, 0, 68, 51
1, 64394, Note_on_c, 0, 80, 51
1, 64396, Control_c, 0, 67, 29
1, 64432, Note_off_c, 0, 80, 49
1, 64485, Control_c, 0, 64, 82
1, 64515, Control_c, 0, 64, 83
1, 64523, Note_off_c, 0, 61, 51
1, 64530, Control_c, 0, 64, 83
1, 64542, Note_on_c, 0, 60, 56
1, 64579, Note_on_c, 0, 51, 46
1, 64590, Control_c, 0, 64, 82
1, 64594, Note_on_c, 0, 92, 71
1, 64604, Control_c, 0, 64, 78
1, 64619, Control_c, 0, 64, 68
1, 64634, Control_c, 0, 64, 32
1, 64634, Control_c, 0, 67, 28
1, 64648, Control_c, 0, 64, 0
1, 64648, Control_c, 0, 67, 28
1, 64663, Control_c, 0, 67, 27
1, 64678, Control_c, 0, 64, 48
1, 64678, Control_c, 0, 67, 26
1, 64693, Control_c, 0, 64, 64
1, 64693, Control_c, 0, 67, 26
1, 64708, Control_c, 0, 64, 68
1, 64708, Control_c, 0, 67, 25
1, 64722, Control_c, 0, 64, 70
1, 64737, Control_c, 0, 64, 72
1, 64737, Control_c, 0, 67, 24
1, 64751, Control_c, 0, 64, 73
1, 64766, Control_c, 0, 64, 75
1, 64781, Control_c, 0, 64, 76
1, 64781, Control_c, 0, 67, 24
1, 64795, Control_c, 0, 64, 77
1, 64810, Control_c, 0, 64, 79
1, 64825, Control_c, 0, 64, 81
1, 64825, Control_c, 0, 67, 23
1, 64840, Control_c, 0, 64, 82
1, 64886, Control_c, 0, 64, 81
1, 64890, Note_on_c, 0, 58, 61
1, 64908, Control_c, 0, 64, 77
1, 64908, Control_c, 0, 67, 23
1, 64921, Note_on_c, 0, 49, 52
1, 64923, Control_c, 0, 64, 69
1, 64923, Control_c, 0, 67, 22
1, 64928, Note_off_c, 0, 60, 36
1, 64938, Control_c, 0, 64, 59
1, 64938, Control_c, 0, 67, 22
1, 64953, Control_c, 0, 64, 53
1, 64953, Control_c, 0, 67, 21
1, 64967, Control_c, 0, 64, 64
1, 64967, Control_c, 0, 67, 20
1, 64982, Control_c, 0, 64, 69
1, 64982, Control_c, 0, 67, 16
1, 64997, Control_c, 0, 64, 74
1, 64997, Control_c, 0, 67, 14
1, 65012, Control_c, 0, 64, 78
1, 65025, Note_off_c, 0, 51, 0
1, 65026, Control_c, 0, 64, 80
1, 65037, Note_off_c, 0, 49, 61
1, 65041, Control_c, 0, 64, 80
1, 65041, Control_c, 0, 67, 13
1, 65044, Note_off_c, 0, 58, 63
1, 65062, Poly_aftertouch_c, 0, 51, 127
1, 65071, Control_c, 0, 64, 81
1, 65071, Control_c, 0, 67, 13
1, 65075, Note_off_c, 0, 92, 64
1, 65085, Control_c, 0, 64, 81
1, 65085, Control_c, 0, 67, 12
1, 65100, Control_c, 0, 64, 82
1, 65100, Control_c, 0, 67, 11
1, 65112, Note_on_c, 0, 48, 49
1, 65115, Control_c, 0, 64, 83
1, 65115, Control_c, 0, 67, 10
1, 65124, Poly_aftertouch_c, 0, 51, 0
1, 65130, Control_c, 0, 64, 83
1, 65130, Control_c, 0, 67, 10
1, 65159, Control_c, 0, 67, 9
1, 65168, Note_on_c, 0, 56, 61
1, 65174, Control_c, 0, 64, 81
1, 65189, Control_c, 0, 64, 74
1, 65204, Control_c, 0, 64, 62
1, 65204, Control_c, 0, 67, 9
1, 65219, Control_c, 0, 64, 0
1, 65219, Control_c, 0, 67, 8
1, 65234, Control_c, 0, 67, 0
1, 65239, Note_on_c, 0, 63, 74
1, 65278, Control_c, 0, 64, 48
1, 65293, Control_c, 0, 64, 65
1, 65308, Control_c, 0, 64, 68
1, 65323, Control_c, 0, 64, 70
1, 65338, Control_c, 0, 64, 72
1, 65352, Control_c, 0, 64, 74
1, 65367, Control_c, 0, 64, 76
1, 65382, Control_c, 0, 64, 78
1, 65397, Control_c, 0, 64, 80
1, 65401, Note_off_c, 0, 63, 63
1, 65412, Control_c, 0, 64, 81
1, 65426, Control_c, 0, 64, 83
1, 65441, Control_c, 0, 64, 85
1, 65456, Control_c, 0, 64, 87
1, 65470, Control_c, 0, 64, 89
1, 65485, Control_c, 0, 64, 90
1, 65515, Control_c, 0, 64, 89
1, 65530, Control_c, 0, 64, 86
1, 65538, Note_on_c, 0, 61, 71
1, 65544, Control_c, 0, 64, 79
1, 65546, Note_on_c, 0, 53, 58
1, 65547, Note_off_c, 0, 48, 39
1, 65559, Control_c, 0, 64, 67
1, 65568, Note_off_c, 0, 56, 48
1, 65574, Control_c, 0, 64, 0
1, 65618, Control_c, 0, 64, 63
1, 65633, Control_c, 0, 64, 71
1, 65656, Control_c, 0, 64, 76
1, 65671, Control_c, 0, 64, 79
1, 65687, Control_c, 0, 64, 80
1, 65690, Note_on_c, 0, 68, 62
1, 65701, Control_c, 0, 64, 81
1, 65716, Control_c, 0, 64, 82
1, 65731, Control_c, 0, 64, 83
1, 65732, Note_off_c, 0, 68, 64
1, 65746, Control_c, 0, 64, 83
1, 65761, Control_c, 0, 64, 84
1, 65770, Note_on_c, 0, 80, 52
1, 65775, Control_c, 0, 64, 84
1, 65792, Note_off_c, 0, 80, 63
1, 65805, Control_c, 0, 64, 85
1, 65820, Control_c, 0, 64, 86
1, 65835, Control_c, 0, 64, 88
1, 65849, Note_off_c, 0, 61, 51
1, 65849, Control_c, 0, 64, 88
1, 65885, Poly_aftertouch_c, 0, 56, 127
1, 65894, Control_c, 0, 64, 87
1, 65908, Control_c, 0, 64, 82
1, 65918, Note_on_c, 0, 60, 64
1, 65920, Poly_aftertouch_c, 0, 56, 0
1, 65920, Note_off_c, 0, 53, 55
1, 65923, Control_c, 0, 64, 70
1, 65932, Note_on_c, 0, 51, 53
1, 65938, Control_c, 0, 64, 0
1, 65944, Note_on_c, 0, 92, 69
1, 65997, Control_c, 0, 64, 58
1, 66012, Control_c, 0, 64, 69
1, 66027, Control_c, 0, 64, 73
1, 66042, Control_c, 0, 64, 76
1, 66056, Control_c, 0, 64, 77
1, 66071, Control_c, 0, 64, 78
1, 66086, Control_c, 0, 64, 79
1, 66101, Control_c, 0, 64, 81
1, 66116, Control_c, 0, 64, 82
1, 66131, Control_c, 0, 64, 83
1, 66146, Control_c, 0, 64, 84
1, 66161, Control_c, 0, 64, 85
1, 66175, Control_c, 0, 64, 86
1, 66190, Control_c, 0, 64, 87
1, 66205, Control_c, 0, 64, 87
1, 66205, Control_c, 0, 67, 8
1, 66220, Control_c, 0, 67, 8
1, 66235, Control_c, 0, 64, 87
1, 66235, Control_c, 0, 67, 9
1, 66250, Control_c, 0, 64, 84
1, 66250, Control_c, 0, 67, 10
1, 66259, Note_off_c, 0, 92, 63
1, 66265, Control_c, 0, 64, 77
1, 66265, Control_c, 0, 67, 11
1, 66279, Note_on_c, 0, 58, 55
1, 66280, Control_c, 0, 64, 64
1, 66280, Control_c, 0, 67, 12
1, 66283, Note_off_c, 0, 60, 56
1, 66294, Control_c, 0, 64, 0
1, 66294, Control_c, 0, 67, 13
1, 66309, Control_c, 0, 67, 13
1, 66311, Note_on_c, 0, 49, 48
1, 66324, Control_c, 0, 67, 15
1, 66339, Control_c, 0, 67, 16
1, 66354, Control_c, 0, 67, 18
1, 66368, Control_c, 0, 64, 56
1, 66368, Control_c, 0, 67, 21
1, 66376, Note_off_c, 0, 51, 33
1, 66383, Control_c, 0, 64, 66
1, 66383, Control_c, 0, 67, 24
1, 66405, Control_c, 0, 64, 71
1, 66405, Control_c, 0, 67, 27
1, 66420, Control_c, 0, 64, 75
1, 66420, Control_c, 0, 67, 29
1, 66435, Control_c, 0, 64, 78
1, 66435, Control_c, 0, 67, 31
1, 66450, Control_c, 0, 64, 81
1, 66450, Control_c, 0, 67, 32
1, 66465, Control_c, 0, 64, 82
1, 66465, Control_c, 0, 67, 34
1, 66468, Note_on_c, 0, 75, 59
1, 66480, Control_c, 0, 64, 83
1, 66480, Control_c, 0, 67, 35
1, 66494, Note_off_c, 0, 58, 59
1, 66495, Control_c, 0, 64, 84
1, 66495, Control_c, 0, 67, 36
1, 66510, Control_c, 0, 64, 84
1, 66518, Note_off_c, 0, 75, 54
1, 66524, Control_c, 0, 67, 36
1, 66530, Note_off_c, 0, 49, 53
1, 66536, Poly_aftertouch_c, 0, 51, 127
1, 66539, Control_c, 0, 64, 85
1, 66539, Control_c, 0, 67, 37
1, 66552, Note_on_c, 0, 87, 51
1, 66577, Note_off_c, 0, 87, 61
1, 66584, Control_c, 0, 64, 85
1, 66584, Control_c, 0, 67, 37
1, 66614, Control_c, 0, 64, 86
1, 66658, Control_c, 0, 67, 38
1, 66663, Note_on_c, 0, 56, 53
1, 66667, Poly_aftertouch_c, 0, 51, 0
1, 66669, Note_on_c, 0, 48, 50
1, 66688, Control_c, 0, 64, 85
1, 66688, Control_c, 0, 67, 38
1, 66703, Control_c, 0, 64, 82
1, 66703, Control_c, 0, 67, 39
1, 66718, Control_c, 0, 64, 74
1, 66718, Control_c, 0, 67, 40
1, 66732, Control_c, 0, 64, 58
1, 66732, Control_c, 0, 67, 41
1, 66747, Control_c, 0, 64, 0
1, 66747, Control_c, 0, 67, 42
1, 66755, Note_on_c, 0, 99, 65
1, 66777, Control_c, 0, 67, 43
1, 66792, Control_c, 0, 67, 43
1, 66806, Control_c, 0, 64, 51
1, 66806, Control_c, 0, 67, 45
1, 66821, Control_c, 0, 64, 64
1, 66821, Control_c, 0, 67, 47
1, 66836, Control_c, 0, 64, 66
1, 66836, Control_c, 0, 67, 49
1, 66850, Control_c, 0, 64, 67
1, 66850, Control_c, 0, 67, 52
1, 66851, Note_off_c, 0, 99, 62
1, 66865, Control_c, 0, 64, 68
1, 66865, Control_c, 0, 67, 53
1, 66880, Control_c, 0, 64, 70
1, 66880, Control_c, 0, 67, 54
1, 66895, Control_c, 0, 64, 72
1, 66910, Control_c, 0, 64, 74
1, 66924, Control_c, 0, 64, 75
1, 66924, Control_c, 0, 67, 55
1, 66939, Control_c, 0, 64, 76
1, 66954, Control_c, 0, 64, 77
1, 66954, Control_c, 0, 67, 55
1, 66969, Control_c, 0, 67, 57
1, 66984, Control_c, 0, 64, 77
1, 66984, Control_c, 0, 67, 58
1, 66997, Control_c, 0, 64, 78
1, 66997, Control_c, 0, 67, 59
1, 67012, Control_c, 0, 67, 60
1, 67027, Control_c, 0, 64, 78
1, 67041, Control_c, 0, 67, 60
1, 67056, Control_c, 0, 64, 79
1, 67056, Control_c, 0, 67, 61
1, 67071, Control_c, 0, 67, 62
1, 67101, Control_c, 0, 67, 62
1, 67105, Note_on_c, 0, 61, 65
1, 67108, Note_off_c, 0, 56, 55
1, 67117, Note_on_c, 0, 53, 52
1, 67168, Control_c, 0, 64, 79
1, 67183, Control_c, 0, 67, 62
1, 67227, Control_c, 0, 64, 80
1, 67242, Control_c, 0, 64, 80
1, 67252, Note_off_c, 0, 48, 42
1, 67256, Control_c, 0, 64, 81
1, 67256, Control_c, 0, 67, 62
1, 67272, Control_c, 0, 64, 81
1, 67287, Control_c, 0, 64, 82
1, 67302, Control_c, 0, 64, 82
1, 67317, Control_c, 0, 64, 83
1, 67346, Control_c, 0, 64, 83
1, 67346, Control_c, 0, 67, 63
1, 67361, Control_c, 0, 64, 84
1, 67391, Control_c, 0, 64, 84
1, 67447, Note_off_c, 0, 61, 61
1, 67464, Control_c, 0, 67, 62
1, 67479, Control_c, 0, 64, 84
1, 67485, Note_on_c, 0, 44, 61
1, 67494, Control_c, 0, 64, 80
1, 67499, Note_on_c, 0, 39, 43
1, 67508, Note_on_c, 0, 60, 59
1, 67509, Control_c, 0, 64, 73
1, 67522, Note_on_c, 0, 51, 49
1, 67524, Control_c, 0, 64, 61
1, 67538, Control_c, 0, 64, 0
1, 67548, Note_off_c, 0, 53, 38
1, 67568, Control_c, 0, 67, 62
1, 67598, Control_c, 0, 67, 62
1, 67613, Control_c, 0, 64, 47
1, 67627, Control_c, 0, 64, 65
1, 67642, Control_c, 0, 64, 69
1, 67657, Control_c, 0, 64, 72
1, 67657, Control_c, 0, 67, 63
1, 67672, Control_c, 0, 64, 74
1, 67687, Control_c, 0, 64, 76
1, 67702, Control_c, 0, 64, 78
1, 67717, Control_c, 0, 64, 80
1, 67731, Control_c, 0, 64, 82
1, 67746, Control_c, 0, 64, 83
1, 67776, Control_c, 0, 67, 63
1, 67806, Control_c, 0, 64, 82
1, 67820, Control_c, 0, 64, 80
1, 67830, Note_off_c, 0, 60, 59
1, 67835, Control_c, 0, 64, 72
1, 67836, Note_on_c, 0, 58, 61
1, 67850, Control_c, 0, 64, 54
1, 67864, Control_c, 0, 64, 0
1, 67872, Note_on_c, 0, 49, 49
1, 67901, Control_c, 0, 67, 64
1, 67913, Note_off_c, 0, 51, 36
1, 67916, Control_c, 0, 67, 64
1, 67931, Control_c, 0, 67, 67
1, 67946, Control_c, 0, 67, 69
1, 67961, Control_c, 0, 64, 65
1, 67961, Control_c, 0, 67, 72
1, 67976, Control_c, 0, 64, 71
1, 67976, Control_c, 0, 67, 73
1, 67991, Control_c, 0, 64, 75
1, 67991, Control_c, 0, 67, 73
1, 68006, Control_c, 0, 64, 77
1, 68014, Note_off_c, 0, 49, 60
1, 68015, Note_off_c, 0, 58, 61
1, 68020, Control_c, 0, 64, 78
1, 68035, Control_c, 0, 64, 80
1, 68050, Control_c, 0, 64, 82
1, 68065, Control_c, 0, 64, 83
1, 68109, Note_on_c, 0, 48, 53
1, 68125, Control_c, 0, 67, 74
1, 68140, Control_c, 0, 64, 81
1, 68155, Control_c, 0, 64, 77
1, 68169, Control_c, 0, 64, 68
1, 68169, Control_c, 0, 67, 74
1, 68179, Note_on_c, 0, 56, 55
1, 68184, Control_c, 0, 64, 0
1, 68229, Control_c, 0, 67, 75
1, 68244, Note_on_c, 0, 63, 65
1, 68258, Control_c, 0, 67, 75
1, 68273, Control_c, 0, 64, 18
1, 68273, Control_c, 0, 67, 76
1, 68287, Control_c, 0, 64, 64
1, 68287, Control_c, 0, 67, 76
1, 68302, Control_c, 0, 64, 68
1, 68316, Note_off_c, 0, 48, 41
1, 68317, Control_c, 0, 64, 72
1, 68332, Control_c, 0, 64, 76
1, 68347, Control_c, 0, 64, 79
1, 68361, Control_c, 0, 64, 81
1, 68376, Control_c, 0, 64, 82
1, 68379, Note_off_c, 0, 56, 57
1, 68391, Control_c, 0, 64, 83
1, 68405, Note_off_c, 0, 63, 61
1, 68406, Control_c, 0, 64, 84
1, 68406, Control_c, 0, 67, 77
1, 68435, Control_c, 0, 64, 84
1, 68465, Control_c, 0, 67, 77
1, 68507, Note_off_c, 0, 39, 35
1, 68524, Control_c, 0, 67, 78
1, 68539, Control_c, 0, 67, 78
1, 68554, Control_c, 0, 67, 80
1, 68569, Control_c, 0, 67, 81
1, 68584, Control_c, 0, 67, 82
1, 68596, Note_off_c, 0, 44, 53
1, 68599, Control_c, 0, 67, 83
1, 68614, Control_c, 0, 64, 83
1, 68614, Control_c, 0, 67, 84
1, 68627, Note_on_c, 0, 61, 61
1, 68629, Note_on_c, 0, 57, 49
1, 68629, Control_c, 0, 64, 76
1, 68629, Control_c, 0, 67, 85
1, 68650, Note_on_c, 0, 52, 42
1, 68650, Control_c, 0, 64, 62
1, 68650, Control_c, 0, 67, 86
1, 68665, Control_c, 0, 64, 0
1, 68665, Control_c, 0, 67, 87
1, 68667, Note_on_c, 0, 49, 47
1, 68680, Control_c, 0, 67, 88
1, 68694, Control_c, 0, 67, 88
1, 68709, Control_c, 0, 67, 89
1, 68724, Control_c, 0, 64, 58
1, 68724, Control_c, 0, 67, 89
1, 68739, Control_c, 0, 64, 67
1, 68739, Control_c, 0, 67, 91
1, 68754, Control_c, 0, 64, 71
1, 68754, Control_c, 0, 67, 92
1, 68765, Note_off_c, 0, 52, 54
1, 68769, Control_c, 0, 64, 74
1, 68769, Control_c, 0, 67, 93
1, 68784, Control_c, 0, 64, 75
1, 68784, Control_c, 0, 67, 93
1, 68799, Control_c, 0, 64, 76
1, 68807, Note_off_c, 0, 57, 59
1, 68814, Control_c, 0, 64, 78
1, 68828, Control_c, 0, 64, 79
1, 68828, Control_c, 0, 67, 94
1, 68843, Control_c, 0, 64, 80
1, 68843, Control_c, 0, 67, 94
1, 68858, Control_c, 0, 64, 81
1, 68873, Control_c, 0, 64, 81
1, 68873, Control_c, 0, 67, 96
1, 68888, Control_c, 0, 67, 97
1, 68903, Control_c, 0, 64, 82
1, 68903, Control_c, 0, 67, 98
1, 68918, Control_c, 0, 67, 99
1, 68933, Control_c, 0, 67, 99
1, 68933, Note_off_c, 0, 61, 41
1, 68996, Note_off_c, 0, 49, 31
1, 69080, Note_on_c, 0, 60, 53
1, 69087, Note_on_c, 0, 39, 54
1, 69096, Control_c, 0, 64, 81
1, 69100, Note_on_c, 0, 51, 37
1, 69109, Note_on_c, 0, 56, 39
1, 69110, Control_c, 0, 64, 77
1, 69110, Control_c, 0, 67, 99
1, 69125, Control_c, 0, 64, 69
1, 69140, Control_c, 0, 64, 26
1, 69155, Control_c, 0, 64, 0
1, 69214, Control_c, 0, 64, 50
1, 69229, Control_c, 0, 64, 65
1, 69243, Control_c, 0, 64, 67
1, 69258, Control_c, 0, 64, 69
1, 69273, Note_off_c, 0, 56, 52
1, 69273, Control_c, 0, 64, 71
1, 69284, Note_off_c, 0, 51, 41
1, 69288, Control_c, 0, 64, 72
1, 69303, Control_c, 0, 64, 74
1, 69317, Control_c, 0, 64, 75
1, 69332, Control_c, 0, 64, 75
1, 69362, Control_c, 0, 64, 76
1, 69414, Control_c, 0, 64, 76
1, 69429, Control_c, 0, 64, 77
1, 69443, Control_c, 0, 64, 77
1, 69458, Control_c, 0, 64, 78
1, 69490, Note_off_c, 0, 60, 52
1, 69503, Control_c, 0, 64, 77
1, 69517, Control_c, 0, 64, 76
1, 69532, Control_c, 0, 64, 72
1, 69547, Control_c, 0, 64, 62
1, 69549, Note_on_c, 0, 58, 40
1, 69556, Note_on_c, 0, 49, 41
1, 69559, Note_on_c, 0, 55, 41
1, 69562, Control_c, 0, 64, 0
1, 69667, Control_c, 0, 64, 52
1, 69682, Control_c, 0, 64, 64
1, 69696, Control_c, 0, 64, 65
1, 69711, Control_c, 0, 64, 66
1, 69711, Control_c, 0, 67, 99
1, 69726, Control_c, 0, 64, 68
1, 69741, Control_c, 0, 64, 71
1, 69750, Note_off_c, 0, 55, 40
1, 69756, Control_c, 0, 64, 74
1, 69762, Note_off_c, 0, 58, 54
1, 69770, Control_c, 0, 64, 77
1, 69770, Control_c, 0, 67, 100
1, 69785, Control_c, 0, 64, 78
1, 69800, Control_c, 0, 64, 78
1, 69800, Control_c, 0, 67, 100
1, 69830, Control_c, 0, 67, 101
1, 69860, Control_c, 0, 67, 102
1, 69874, Control_c, 0, 67, 107
1, 69889, Control_c, 0, 67, 114
1, 69904, Control_c, 0, 67, 122
1, 69919, Control_c, 0, 67, 127
1, 69971, Note_off_c, 0, 49, 36
1, 70048, Note_off_c, 0, 39, 28
1, 70209, Control_c, 0, 64, 77
1, 70223, Control_c, 0, 64, 73
1, 70227, Note_on_c, 0, 56, 40
1, 70236, Note_on_c, 0, 32, 36
1, 70238, Control_c, 0, 64, 67
1, 70248, Note_on_c, 0, 48, 34
1, 70253, Control_c, 0, 64, 34
1, 70267, Control_c, 0, 64, 0
1, 70356, Control_c, 0, 64, 16
1, 70371, Control_c, 0, 64, 63
1, 70373, Note_off_c, 0, 32, 57
1, 70386, Control_c, 0, 64, 67
1, 70401, Control_c, 0, 64, 70
1, 70415, Control_c, 0, 64, 72
1, 70430, Control_c, 0, 64, 74
1, 70445, Control_c, 0, 64, 76
1, 70460, Control_c, 0, 64, 78
1, 70465, Note_off_c, 0, 48, 42
1, 70476, Control_c, 0, 64, 79
1, 70483, Note_off_c, 0, 56, 39
1, 70490, Control_c, 0, 64, 80
1, 70505, Control_c, 0, 64, 81
1, 70520, Control_c, 0, 64, 82
1, 70535, Control_c, 0, 64, 83
1, 70550, Control_c, 0, 64, 83
1, 70564, Control_c, 0, 64, 84
1, 70579, Control_c, 0, 64, 85
1, 70609, Control_c, 0, 64, 85
1, 70624, Control_c, 0, 64, 86
1, 70653, Control_c, 0, 64, 86
1, 70683, Control_c, 0, 64, 87
1, 70712, Control_c, 0, 64, 87
1, 70772, Control_c, 0, 64, 88
1, 71076, Control_c, 0, 64, 86
1, 71080, Note_on_c, 0, 68, 52
1, 71088, Note_on_c, 0, 83, 59
1, 71090, Control_c, 0, 64, 80
1, 71105, Note_on_c, 0, 77, 42
1, 71105, Control_c, 0, 64, 71
1, 71118, Note_on_c, 0, 74, 36
1, 71120, Control_c, 0, 64, 41
1, 71135, Control_c, 0, 64, 0
1, 71223, Control_c, 0, 64, 59
1, 71238, Control_c, 0, 64, 64
1, 71253, Control_c, 0, 64, 65
1, 71269, Control_c, 0, 64, 66
1, 71284, Control_c, 0, 64, 68
1, 71299, Control_c, 0, 64, 70
1, 71313, Control_c, 0, 64, 72
1, 71328, Control_c, 0, 64, 75
1, 71343, Control_c, 0, 64, 78
1, 71358, Control_c, 0, 64, 79
1, 71373, Control_c, 0, 64, 80
1, 71387, Control_c, 0, 64, 80
1, 71402, Control_c, 0, 64, 81
1, 71432, Control_c, 0, 64, 81
1, 71437, Note_off_c, 0, 77, 53
1, 71447, Control_c, 0, 64, 82
1, 71520, Control_c, 0, 64, 82
1, 71565, Control_c, 0, 64, 83
1, 71608, Note_off_c, 0, 68, 37
1, 71617, Note_on_c, 0, 78, 57
1, 71622, Note_off_c, 0, 74, 56
1, 71624, Control_c, 0, 64, 82
1, 71643, Note_on_c, 0, 70, 35
1, 71645, Control_c, 0, 64, 80
1, 71657, Note_on_c, 0, 75, 30
1, 71660, Control_c, 0, 64, 74
1, 71675, Control_c, 0, 64, 57
1, 71690, Control_c, 0, 64, 0
1, 71705, Control_c, 0, 67, 127
1, 71720, Control_c, 0, 67, 122
1, 71735, Control_c, 0, 67, 116
1, 71750, Control_c, 0, 64, 52
1, 71750, Control_c, 0, 67, 110
1, 71765, Control_c, 0, 64, 66
1, 71765, Control_c, 0, 67, 104
1, 71771, Note_off_c, 0, 83, 34
1, 71780, Control_c, 0, 64, 69
1, 71780, Control_c, 0, 67, 95
1, 71794, Control_c, 0, 64, 71
1, 71794, Control_c, 0, 67, 88
1, 71809, Control_c, 0, 64, 72
1, 71809, Control_c, 0, 67, 82
1, 71819, Note_off_c, 0, 78, 63
1, 71824, Control_c, 0, 64, 74
1, 71824, Control_c, 0, 67, 76
1, 71838, Control_c, 0, 64, 76
1, 71838, Control_c, 0, 67, 71
1, 71848, Note_off_c, 0, 75, 62
1, 71853, Control_c, 0, 64, 79
1, 71853, Control_c, 0, 67, 67
1, 71868, Control_c, 0, 64, 80
1, 71868, Control_c, 0, 67, 62
1, 71883, Control_c, 0, 64, 80
1, 71883, Control_c, 0, 67, 60
1, 71898, Control_c, 0, 64, 81
1, 71898, Control_c, 0, 67, 59
1, 71927, Control_c, 0, 64, 81
1, 71927, Control_c, 0, 67, 59
1, 71942, Control_c, 0, 64, 82
1, 71986, Control_c, 0, 67, 59
1, 72001, Control_c, 0, 67, 60
1, 72016, Control_c, 0, 64, 79
1, 72016, Control_c, 0, 67, 61
1, 72022, Note_on_c, 0, 81, 61
1, 72030, Control_c, 0, 64, 72
1, 72030, Control_c, 0, 67, 62
1, 72043, Note_on_c, 0, 75, 46
1, 72045, Control_c, 0, 64, 44
1, 72045, Control_c, 0, 67, 63
1, 72052, Note_on_c, 0, 66, 30
1, 72053, Note_off_c, 0, 70, 39
1, 72061, Control_c, 0, 64, 0
1, 72061, Control_c, 0, 67, 64
1, 72062, Note_on_c, 0, 72, 28
1, 72076, Control_c, 0, 67, 65
1, 72091, Control_c, 0, 67, 65
1, 72106, Control_c, 0, 67, 66
1, 72121, Control_c, 0, 64, 57
1, 72121, Control_c, 0, 67, 66
1, 72135, Control_c, 0, 64, 66
1, 72150, Control_c, 0, 64, 69
1, 72150, Control_c, 0, 67, 67
1, 72165, Control_c, 0, 64, 71
1, 72165, Control_c, 0, 67, 68
1, 72180, Control_c, 0, 64, 73
1, 72180, Control_c, 0, 67, 69
1, 72195, Control_c, 0, 64, 75
1, 72195, Control_c, 0, 67, 69
1, 72209, Control_c, 0, 64, 77
1, 72209, Control_c, 0, 67, 71
1, 72224, Control_c, 0, 64, 78
1, 72224, Control_c, 0, 67, 73
1, 72239, Control_c, 0, 64, 80
1, 72239, Control_c, 0, 67, 75
1, 72254, Control_c, 0, 64, 81
1, 72254, Control_c, 0, 67, 79
1, 72268, Control_c, 0, 64, 82
1, 72268, Control_c, 0, 67, 81
1, 72283, Control_c, 0, 64, 82
1, 72283, Control_c, 0, 67, 84
1, 72298, Control_c, 0, 64, 83
1, 72298, Control_c, 0, 67, 85
1, 72313, Control_c, 0, 67, 86
1, 72328, Control_c, 0, 64, 83
1, 72328, Control_c, 0, 67, 87
1, 72342, Note_off_c, 0, 81, 51
1, 72343, Control_c, 0, 64, 84
1, 72343, Control_c, 0, 67, 87
1, 72358, Control_c, 0, 67, 88
1, 72359, Note_off_c, 0, 75, 55
1, 72368, Note_off_c, 0, 72, 35
1, 72373, Control_c, 0, 67, 88
1, 72379, Note_on_c, 0, 77, 47
1, 72395, Control_c, 0, 64, 83
1, 72395, Control_c, 0, 67, 89
1, 72410, Control_c, 0, 64, 81
1, 72412, Note_on_c, 0, 73, 31
1, 72420, Note_on_c, 0, 68, 40
1, 72424, Control_c, 0, 64, 73
1, 72429, Note_off_c, 0, 66, 40
1, 72439, Control_c, 0, 64, 63
1, 72454, Control_c, 0, 64, 53
1, 72468, Control_c, 0, 64, 63
1, 72483, Control_c, 0, 64, 69
1, 72498, Control_c, 0, 64, 76
1, 72513, Control_c, 0, 64, 83
1, 72528, Control_c, 0, 64, 87
1, 72528, Control_c, 0, 67, 89
1, 72543, Control_c, 0, 64, 88
1, 72548, Note_off_c, 0, 77, 60
1, 72558, Control_c, 0, 64, 89
1, 72558, Control_c, 0, 67, 90
1, 72572, Control_c, 0, 64, 89
1, 72587, Control_c, 0, 64, 90
1, 72591, Note_off_c, 0, 73, 40
1, 72602, Control_c, 0, 64, 91
1, 72602, Control_c, 0, 67, 90
1, 72617, Control_c, 0, 64, 93
1, 72617, Control_c, 0, 67, 91
1, 72632, Control_c, 0, 64, 94
1, 72632, Control_c, 0, 67, 95
1, 72647, Control_c, 0, 67, 97
1, 72661, Control_c, 0, 67, 98
1, 72676, Control_c, 0, 64, 91
1, 72676, Control_c, 0, 67, 99
1, 72691, Control_c, 0, 64, 85
1, 72691, Control_c, 0, 67, 100
1, 72706, Note_off_c, 0, 68, 39
1, 72706, Control_c, 0, 64, 72
1, 72706, Control_c, 0, 67, 101
1, 72716, Note_on_c, 0, 80, 60
1, 72721, Control_c, 0, 64, 0
1, 72721, Control_c, 0, 67, 101
1, 72735, Control_c, 0, 67, 102
1, 72739, Note_on_c, 0, 74, 35
1, 72750, Control_c, 0, 67, 103
1, 72765, Control_c, 0, 67, 104
1, 72772, Note_on_c, 0, 71, 33
1, 72780, Control_c, 0, 67, 105
1, 72793, Poly_aftertouch_c, 0, 65, 127
1, 72795, Control_c, 0, 67, 106
1, 72809, Control_c, 0, 64, 64
1, 72824, Control_c, 0, 64, 69
1, 72839, Control_c, 0, 64, 73
1, 72855, Control_c, 0, 64, 78
1, 72870, Control_c, 0, 64, 83
1, 72884, Control_c, 0, 64, 86
1, 72899, Control_c, 0, 64, 88
1, 72899, Control_c, 0, 67, 106
1, 72910, Note_off_c, 0, 80, 56
1, 72914, Control_c, 0, 64, 90
1, 72929, Control_c, 0, 64, 92
1, 72929, Control_c, 0, 67, 107
1, 72944, Control_c, 0, 64, 93
1, 72944, Control_c, 0, 67, 107
1, 72958, Control_c, 0, 64, 95
1, 72958, Control_c, 0, 67, 110
1, 72973, Control_c, 0, 64, 97
1, 72973, Control_c, 0, 67, 113
1, 72989, Control_c, 0, 64, 99
1, 72989, Control_c, 0, 67, 118
1, 73004, Control_c, 0, 64, 101
1, 73004, Control_c, 0, 67, 122
1, 73019, Control_c, 0, 64, 101
1, 73019, Control_c, 0, 67, 126
1, 73033, Control_c, 0, 67, 127
1, 73048, Control_c, 0, 64, 101
1, 73054, Note_off_c, 0, 74, 57
1, 73059, Note_on_c, 0, 75, 52
1, 73063, Poly_aftertouch_c, 0, 65, 0
1, 73063, Control_c, 0, 64, 96
1, 73073, Note_off_c, 0, 71, 35
1, 73077, Control_c, 0, 64, 87
1, 73078, Note_on_c, 0, 70, 35
1, 73080, Note_on_c, 0, 66, 30
1, 73092, Control_c, 0, 64, 72
1, 73107, Control_c, 0, 64, 51
1, 73122, Control_c, 0, 64, 0
1, 73145, Control_c, 0, 64, 43
1, 73160, Control_c, 0, 64, 64
1, 73174, Control_c, 0, 64, 71
1, 73189, Control_c, 0, 64, 76
1, 73204, Control_c, 0, 64, 80
1, 73219, Control_c, 0, 64, 83
1, 73234, Control_c, 0, 64, 85
1, 73239, Note_off_c, 0, 70, 51
1, 73248, Control_c, 0, 64, 87
1, 73263, Control_c, 0, 64, 88
1, 73265, Note_off_c, 0, 75, 63
1, 73278, Control_c, 0, 64, 89
1, 73292, Control_c, 0, 64, 90
1, 73307, Control_c, 0, 64, 90
1, 73322, Control_c, 0, 64, 91
1, 73337, Control_c, 0, 64, 91
1, 73390, Note_off_c, 0, 66, 39
1, 73449, Note_on_c, 0, 78, 58
1, 73455, Control_c, 0, 64, 89
1, 73456, Note_on_c, 0, 63, 36
1, 73468, Note_on_c, 0, 69, 35
1, 73470, Control_c, 0, 64, 85
1, 73473, Note_on_c, 0, 72, 36
1, 73485, Control_c, 0, 64, 73
1, 73500, Control_c, 0, 64, 47
1, 73514, Control_c, 0, 64, 0
1, 73589, Control_c, 0, 64, 62
1, 73604, Control_c, 0, 64, 67
1, 73614, Note_off_c, 0, 69, 38
1, 73618, Control_c, 0, 64, 70
1, 73633, Control_c, 0, 64, 73
1, 73648, Control_c, 0, 64, 76
1, 73663, Control_c, 0, 64, 79
1, 73678, Control_c, 0, 64, 81
1, 73692, Note_off_c, 0, 63, 35
1, 73693, Control_c, 0, 64, 83
1, 73698, Note_off_c, 0, 72, 41
1, 73708, Control_c, 0, 64, 84
1, 73723, Control_c, 0, 64, 86
1, 73738, Control_c, 0, 64, 87
1, 73753, Control_c, 0, 64, 89
1, 73768, Control_c, 0, 64, 91
1, 73782, Control_c, 0, 64, 91
1, 73797, Control_c, 0, 64, 92
1, 73812, Control_c, 0, 64, 92
1, 73826, Control_c, 0, 64, 93
1, 73841, Control_c, 0, 64, 94
1, 73856, Control_c, 0, 64, 96
1, 73871, Control_c, 0, 64, 96
1, 73923, Control_c, 0, 64, 96
1, 73932, Note_off_c, 0, 78, 37
1, 73932, Note_on_c, 0, 67, 33
1, 73936, Note_on_c, 0, 61, 33
1, 73938, Control_c, 0, 64, 92
1, 73953, Control_c, 0, 64, 83
1, 73968, Control_c, 0, 64, 66
1, 73982, Control_c, 0, 64, 0
1, 73984, Note_on_c, 0, 76, 44
1, 73990, Note_on_c, 0, 70, 37
1, 74041, Control_c, 0, 64, 64
1, 74056, Control_c, 0, 64, 70
1, 74059, Note_off_c, 0, 70, 56
1, 74071, Control_c, 0, 64, 74
1, 74086, Control_c, 0, 64, 76
1, 74101, Control_c, 0, 64, 78
1, 74114, Note_off_c, 0, 76, 64
1, 74115, Control_c, 0, 64, 79
1, 74120, Note_off_c, 0, 67, 40
1, 74130, Control_c, 0, 64, 81
1, 74145, Control_c, 0, 64, 83
1, 74160, Control_c, 0, 64, 84
1, 74175, Control_c, 0, 64, 85
1, 74189, Control_c, 0, 64, 85
1, 74197, Note_off_c, 0, 61, 42
1, 74204, Control_c, 0, 64, 86
1, 74219, Control_c, 0, 64, 87
1, 74233, Control_c, 0, 64, 87
1, 74248, Control_c, 0, 64, 88
1, 74263, Control_c, 0, 64, 89
1, 74293, Control_c, 0, 64, 89
1, 74297, Note_on_c, 0, 70, 37
1, 74307, Control_c, 0, 64, 90
1, 74322, Control_c, 0, 64, 90
1, 74366, Note_off_c, 0, 70, 40
1, 74367, Control_c, 0, 64, 91
1, 74379, Note_on_c, 0, 76, 30
1, 74397, Control_c, 0, 64, 91
1, 74418, Note_on_c, 0, 79, 52
1, 74445, Note_off_c, 0, 76, 43
1, 74497, Note_on_c, 0, 85, 58
1, 74531, Control_c, 0, 64, 92
1, 74546, Note_off_c, 0, 79, 49
1, 74592, Note_off_c, 0, 85, 59
1, 74623, Note_on_c, 0, 32, 38
1, 74687, Note_off_c, 0, 32, 50
1, 74743, Note_on_c, 0, 37, 28
1, 74862, Note_on_c, 0, 44, 33
1, 74878, Note_on_c, 0, 73, 24
1, 74908, Note_on_c, 0, 76, 55
1, 74932, Note_off_c, 0, 73, 42
1, 74987, Note_on_c, 0, 82, 65
1, 74993, Note_off_c, 0, 76, 59
1, 75009, Note_on_c, 0, 49, 41
1, 75107, Note_off_c, 0, 82, 58
1, 75214, Note_on_c, 0, 70, 47
1, 75220, Control_c, 0, 67, 127
1, 75234, Control_c, 0, 67, 124
1, 75249, Control_c, 0, 67, 122
1, 75264, Control_c, 0, 67, 120
1, 75279, Note_off_c, 0, 70, 54
1, 75279, Control_c, 0, 67, 118
1, 75286, Note_on_c, 0, 76, 50
1, 75294, Control_c, 0, 67, 117
1, 75309, Control_c, 0, 67, 115
1, 75324, Control_c, 0, 67, 112
1, 75339, Note_on_c, 0, 79, 55
1, 75339, Control_c, 0, 67, 110
1, 75353, Control_c, 0, 67, 106
1, 75368, Control_c, 0, 67, 102
1, 75389, Note_off_c, 0, 76, 58
1, 75390, Control_c, 0, 67, 98
1, 75394, Note_on_c, 0, 85, 65
1, 75404, Note_off_c, 0, 79, 54
1, 75405, Control_c, 0, 67, 92
1, 75420, Control_c, 0, 67, 85
1, 75434, Control_c, 0, 67, 79
1, 75449, Control_c, 0, 67, 73
1, 75464, Control_c, 0, 67, 67
1, 75479, Control_c, 0, 67, 62
1, 75493, Note_off_c, 0, 85, 61
1, 75494, Control_c, 0, 67, 57
1, 75509, Control_c, 0, 67, 53
1, 75524, Control_c, 0, 67, 49
1, 75538, Control_c, 0, 67, 47
1, 75553, Control_c, 0, 67, 45
1, 75568, Control_c, 0, 67, 43
1, 75583, Control_c, 0, 67, 42
1, 75584, Note_on_c, 0, 73, 48
1, 75598, Control_c, 0, 67, 40
1, 75613, Control_c, 0, 67, 39
1, 75628, Control_c, 0, 67, 38
1, 75642, Note_off_c, 0, 73, 61
1, 75642, Control_c, 0, 67, 37
1, 75654, Note_on_c, 0, 79, 54
1, 75657, Control_c, 0, 67, 37
1, 75672, Control_c, 0, 67, 36
1, 75685, Note_on_c, 0, 82, 65
1, 75701, Control_c, 0, 67, 35
1, 75725, Note_off_c, 0, 79, 56
1, 75731, Control_c, 0, 67, 35
1, 75741, Note_on_c, 0, 88, 68
1, 75772, Note_off_c, 0, 82, 61
1, 75804, Control_c, 0, 67, 34
1, 75835, Note_off_c, 0, 88, 63
1, 75904, Note_on_c, 0, 76, 51
1, 75944, Note_off_c, 0, 76, 61
1, 75951, Note_off_c, 0, 49, 38
1, 75962, Note_on_c, 0, 82, 61
1, 75984, Note_off_c, 0, 44, 40
1, 75998, Note_on_c, 0, 85, 64
1, 76012, Control_c, 0, 67, 35
1, 76027, Control_c, 0, 67, 36
1, 76042, Control_c, 0, 67, 37
1, 76045, Note_off_c, 0, 82, 56
1, 76058, Control_c, 0, 67, 38
1, 76059, Note_on_c, 0, 90, 74
1, 76070, Note_off_c, 0, 85, 63
1, 76073, Control_c, 0, 67, 40
1, 76088, Control_c, 0, 67, 41
1, 76102, Control_c, 0, 67, 42
1, 76117, Control_c, 0, 67, 43
1, 76138, Note_off_c, 0, 90, 62
1, 76140, Control_c, 0, 67, 45
1, 76155, Control_c, 0, 67, 46
1, 76170, Control_c, 0, 67, 48
1, 76179, Note_on_c, 0, 32, 50
1, 76184, Control_c, 0, 67, 53
1, 76199, Control_c, 0, 67, 59
1, 76205, Note_off_c, 0, 37, 37
1, 76214, Control_c, 0, 67, 63
1, 76229, Control_c, 0, 67, 66
1, 76231, Note_off_c, 0, 32, 57
1, 76243, Control_c, 0, 67, 68
1, 76258, Control_c, 0, 67, 69
1, 76260, Note_on_c, 0, 73, 46
1, 76273, Control_c, 0, 67, 71
1, 76284, Note_off_c, 0, 73, 62
1, 76288, Note_on_c, 0, 37, 20
1, 76288, Control_c, 0, 67, 73
1, 76303, Control_c, 0, 67, 75
1, 76316, Note_on_c, 0, 79, 57
1, 76317, Control_c, 0, 67, 77
1, 76332, Control_c, 0, 67, 77
1, 76362, Note_on_c, 0, 82, 62
1, 76362, Control_c, 0, 67, 78
1, 76384, Note_on_c, 0, 44, 37
1, 76387, Note_off_c, 0, 79, 57
1, 76391, Control_c, 0, 67, 78
1, 76406, Control_c, 0, 67, 79
1, 76411, Note_on_c, 0, 88, 69
1, 76421, Control_c, 0, 67, 80
1, 76436, Control_c, 0, 67, 82
1, 76438, Note_off_c, 0, 44, 47
1, 76451, Note_off_c, 0, 82, 52
1, 76451, Control_c, 0, 67, 84
1, 76466, Control_c, 0, 67, 85
1, 76469, Note_off_c, 0, 88, 60
1, 76478, Note_on_c, 0, 49, 36
1, 76480, Control_c, 0, 67, 86
1, 76495, Control_c, 0, 67, 86
1, 76510, Control_c, 0, 67, 87
1, 76525, Note_off_c, 0, 49, 45
1, 76525, Control_c, 0, 67, 87
1, 76540, Control_c, 0, 67, 88
1, 76570, Control_c, 0, 67, 88
1, 76598, Note_off_c, 0, 37, 39
1, 76640, Note_on_c, 0, 70, 44
1, 76658, Control_c, 0, 67, 89
1, 76688, Control_c, 0, 67, 89
1, 76695, Note_off_c, 0, 70, 52
1, 76702, Control_c, 0, 67, 90
1, 76717, Control_c, 0, 67, 91
1, 76718, Note_on_c, 0, 76, 48
1, 76732, Control_c, 0, 67, 91
1, 76767, Note_on_c, 0, 79, 57
1, 76776, Control_c, 0, 67, 92
1, 76795, Note_off_c, 0, 76, 50
1, 76817, Note_on_c, 0, 85, 58
1, 76821, Control_c, 0, 67, 92
1, 76943, Note_off_c, 0, 85, 55
1, 76969, Note_on_c, 0, 32, 31
1, 77021, Note_on_c, 0, 39, 34
1, 77022, Control_c, 0, 64, 91
1, 77037, Control_c, 0, 64, 86
1, 77037, Control_c, 0, 67, 92
1, 77052, Control_c, 0, 64, 76
1, 77066, Control_c, 0, 64, 64
1, 77066, Control_c, 0, 67, 91
1, 77073, Note_off_c, 0, 79, 47
1, 77081, Control_c, 0, 64, 0
1, 77096, Control_c, 0, 64, 16
1, 77109, Note_on_c, 0, 68, 49
1, 77111, Control_c, 0, 64, 49
1, 77111, Control_c, 0, 67, 91
1, 77121, Note_off_c, 0, 39, 55
1, 77126, Control_c, 0, 64, 62
1, 77126, Control_c, 0, 67, 90
1, 77130, Note_off_c, 0, 32, 43
1, 77140, Control_c, 0, 64, 66
1, 77153, Note_on_c, 0, 44, 36
1, 77155, Control_c, 0, 64, 72
1, 77155, Control_c, 0, 67, 90
1, 77165, Note_off_c, 0, 68, 42
1, 77170, Control_c, 0, 64, 79
1, 77185, Control_c, 0, 64, 86
1, 77185, Control_c, 0, 67, 89
1, 77199, Note_off_c, 0, 44, 62
1, 77200, Control_c, 0, 64, 87
1, 77200, Control_c, 0, 67, 89
1, 77214, Control_c, 0, 64, 88
1, 77214, Control_c, 0, 67, 88
1, 77227, Note_on_c, 0, 75, 50
1, 77229, Control_c, 0, 67, 88
1, 77258, Control_c, 0, 67, 87
1, 77288, Control_c, 0, 67, 86
1, 77303, Control_c, 0, 64, 88
1, 77330, Note_on_c, 0, 51, 36
1, 77348, Control_c, 0, 67, 86
1, 77362, Note_off_c, 0, 75, 62
1, 77363, Control_c, 0, 67, 85
1, 77378, Control_c, 0, 67, 84
1, 77384, Note_off_c, 0, 51, 58
1, 77393, Control_c, 0, 67, 84
1, 77422, Control_c, 0, 67, 83
1, 77431, Note_on_c, 0, 56, 47
1, 77437, Control_c, 0, 67, 83
1, 77451, Control_c, 0, 67, 82
1, 77466, Control_c, 0, 67, 81
1, 77469, Note_off_c, 0, 56, 52
1, 77479, Note_on_c, 0, 84, 75
1, 77481, Control_c, 0, 67, 80
1, 77496, Control_c, 0, 67, 77
1, 77511, Control_c, 0, 67, 74
1, 77525, Control_c, 0, 67, 70
1, 77529, Note_off_c, 0, 84, 63
1, 77540, Control_c, 0, 67, 67
1, 77555, Control_c, 0, 67, 65
1, 77570, Control_c, 0, 67, 63
1, 77584, Control_c, 0, 67, 62
1, 77599, Control_c, 0, 67, 60
1, 77614, Control_c, 0, 67, 57
1, 77637, Control_c, 0, 67, 54
1, 77652, Control_c, 0, 67, 50
1, 77667, Control_c, 0, 67, 48
1, 77682, Control_c, 0, 67, 45
1, 77697, Control_c, 0, 67, 44
1, 77712, Control_c, 0, 67, 42
1, 77726, Control_c, 0, 67, 41
1, 77741, Control_c, 0, 67, 41
1, 77756, Control_c, 0, 67, 40
1, 77771, Control_c, 0, 67, 39
1, 77786, Control_c, 0, 67, 38
1, 77801, Control_c, 0, 67, 37
1, 77816, Control_c, 0, 67, 36
1, 77830, Control_c, 0, 67, 36
1, 77875, Control_c, 0, 67, 35
1, 77904, Control_c, 0, 67, 35
1, 77919, Control_c, 0, 67, 34
1, 77934, Control_c, 0, 67, 34
1, 78083, Note_on_c, 0, 71, 63
1, 78090, Note_on_c, 0, 62, 56
1, 78090, Note_on_c, 0, 65, 55
1, 78111, Control_c, 0, 67, 35
1, 78126, Control_c, 0, 67, 35
1, 78141, Control_c, 0, 64, 86
1, 78141, Control_c, 0, 67, 36
1, 78156, Control_c, 0, 64, 80
1, 78171, Control_c, 0, 64, 66
1, 78186, Control_c, 0, 64, 0
1, 78186, Control_c, 0, 67, 36
1, 78200, Control_c, 0, 67, 37
1, 78215, Control_c, 0, 67, 37
1, 78230, Control_c, 0, 67, 38
1, 78245, Control_c, 0, 67, 38
1, 78260, Control_c, 0, 64, 63
1, 78260, Control_c, 0, 67, 39
1, 78274, Control_c, 0, 64, 69
1, 78274, Control_c, 0, 67, 39
1, 78289, Control_c, 0, 64, 73
1, 78304, Control_c, 0, 64, 76
1, 78304, Control_c, 0, 67, 40
1, 78319, Control_c, 0, 64, 77
1, 78334, Control_c, 0, 64, 78
1, 78348, Control_c, 0, 64, 79
1, 78363, Control_c, 0, 64, 80
1, 78385, Control_c, 0, 64, 81
1, 78400, Control_c, 0, 64, 82
1, 78415, Control_c, 0, 64, 83
1, 78430, Control_c, 0, 64, 84
1, 78445, Control_c, 0, 64, 86
1, 78445, Control_c, 0, 67, 40
1, 78460, Control_c, 0, 64, 87
1, 78475, Control_c, 0, 64, 88
1, 78475, Control_c, 0, 67, 41
1, 78478, Note_off_c, 0, 71, 54
1, 78504, Control_c, 0, 67, 41
1, 78534, Control_c, 0, 64, 85
1, 78539, Note_off_c, 0, 65, 38
1, 78544, Note_on_c, 0, 66, 58
1, 78546, Note_on_c, 0, 58, 48
1, 78546, Note_off_c, 0, 62, 30
1, 78548, Note_on_c, 0, 63, 51
1, 78549, Control_c, 0, 64, 79
1, 78549, Control_c, 0, 67, 42
1, 78564, Control_c, 0, 64, 67
1, 78564, Control_c, 0, 67, 42
1, 78579, Control_c, 0, 64, 39
1, 78594, Control_c, 0, 64, 0
1, 78609, Control_c, 0, 64, 54
1, 78623, Control_c, 0, 64, 66
1, 78623, Control_c, 0, 67, 43
1, 78638, Control_c, 0, 64, 71
1, 78653, Control_c, 0, 64, 75
1, 78653, Control_c, 0, 67, 43
1, 78668, Control_c, 0, 64, 77
1, 78668, Control_c, 0, 67, 44
1, 78683, Control_c, 0, 64, 79
1, 78683, Control_c, 0, 67, 44
1, 78697, Control_c, 0, 64, 81
1, 78700, Note_off_c, 0, 66, 52
1, 78712, Control_c, 0, 64, 82
1, 78727, Control_c, 0, 64, 83
1, 78742, Control_c, 0, 64, 84
1, 78757, Control_c, 0, 64, 85
1, 78757, Control_c, 0, 67, 45
1, 78772, Control_c, 0, 64, 85
1, 78772, Control_c, 0, 67, 45
1, 78786, Control_c, 0, 64, 86
1, 78786, Control_c, 0, 67, 46
1, 78801, Control_c, 0, 64, 87
1, 78801, Control_c, 0, 67, 48
1, 78802, Note_off_c, 0, 63, 57
1, 78803, Note_off_c, 0, 58, 38
1, 78816, Control_c, 0, 64, 88
1, 78816, Control_c, 0, 67, 49
1, 78830, Control_c, 0, 64, 88
1, 78830, Control_c, 0, 67, 51
1, 78845, Control_c, 0, 67, 53
1, 78860, Control_c, 0, 67, 55
1, 78875, Control_c, 0, 64, 85
1, 78875, Control_c, 0, 67, 57
1, 78890, Control_c, 0, 64, 78
1, 78890, Control_c, 0, 67, 59
1, 78903, Note_on_c, 0, 69, 62
1, 78904, Control_c, 0, 64, 66
1, 78904, Control_c, 0, 67, 62
1, 78919, Control_c, 0, 64, 0
1, 78919, Control_c, 0, 67, 64
1, 78921, Note_on_c, 0, 60, 41
1, 78923, Note_on_c, 0, 63, 50
1, 78934, Control_c, 0, 67, 67
1, 78949, Control_c, 0, 67, 70
1, 78964, Control_c, 0, 64, 51
1, 78964, Control_c, 0, 67, 74
1, 78978, Control_c, 0, 64, 66
1, 78978, Control_c, 0, 67, 77
1, 78993, Control_c, 0, 64, 71
1, 78993, Control_c, 0, 67, 79
1, 79008, Control_c, 0, 64, 75
1, 79008, Control_c, 0, 67, 80
1, 79023, Control_c, 0, 64, 77
1, 79023, Control_c, 0, 67, 81
1, 79038, Control_c, 0, 64, 78
1, 79038, Control_c, 0, 67, 82
1, 79053, Control_c, 0, 64, 79
1, 79053, Control_c, 0, 67, 83
1, 79068, Control_c, 0, 64, 80
1, 79068, Control_c, 0, 67, 85
1, 79083, Control_c, 0, 64, 83
1, 79083, Control_c, 0, 67, 86
1, 79097, Control_c, 0, 64, 87
1, 79097, Control_c, 0, 67, 89
1, 79112, Control_c, 0, 64, 91
1, 79112, Control_c, 0, 67, 90
1, 79134, Control_c, 0, 64, 97
1, 79134, Control_c, 0, 67, 92
1, 79149, Control_c, 0, 64, 101
1, 79149, Control_c, 0, 67, 92
1, 79164, Control_c, 0, 64, 103
1, 79178, Control_c, 0, 64, 104
1, 79193, Control_c, 0, 67, 92
1, 79194, Note_off_c, 0, 60, 54
1, 79195, Note_off_c, 0, 69, 59
1, 79238, Control_c, 0, 64, 101
1, 79240, Note_off_c, 0, 63, 35
1, 79242, Note_on_c, 0, 65, 56
1, 79250, Note_on_c, 0, 61, 46
1, 79253, Control_c, 0, 64, 92
1, 79262, Note_on_c, 0, 56, 40
1, 79268, Control_c, 0, 64, 77
1, 79283, Control_c, 0, 64, 46
1, 79283, Control_c, 0, 67, 92
1, 79298, Control_c, 0, 64, 0
1, 79298, Control_c, 0, 67, 93
1, 79313, Control_c, 0, 67, 94
1, 79327, Control_c, 0, 67, 96
1, 79342, Control_c, 0, 67, 97
1, 79357, Control_c, 0, 67, 99
1, 79372, Control_c, 0, 67, 99
1, 79387, Control_c, 0, 67, 100
1, 79402, Control_c, 0, 67, 100
1, 79417, Control_c, 0, 67, 101
1, 79432, Control_c, 0, 64, 65
1, 79432, Control_c, 0, 67, 102
1, 79446, Control_c, 0, 64, 71
1, 79446, Control_c, 0, 67, 102
1, 79456, Note_off_c, 0, 65, 63
1, 79461, Control_c, 0, 64, 76
1, 79476, Control_c, 0, 64, 82
1, 79491, Control_c, 0, 64, 86
1, 79500, Note_off_c, 0, 61, 60
1, 79501, Note_off_c, 0, 56, 52
1, 79506, Control_c, 0, 64, 87
1, 79520, Control_c, 0, 64, 88
1, 79520, Control_c, 0, 67, 103
1, 79535, Control_c, 0, 67, 103
1, 79550, Control_c, 0, 64, 89
1, 79550, Control_c, 0, 67, 105
1, 79565, Control_c, 0, 67, 108
1, 79580, Control_c, 0, 67, 111
1, 79583, Note_on_c, 0, 68, 58
1, 79595, Control_c, 0, 67, 113
1, 79595, Note_on_c, 0, 65, 37
1, 79601, Note_on_c, 0, 59, 34
1, 79601, Note_on_c, 0, 62, 40
1, 79609, Control_c, 0, 64, 87
1, 79609, Control_c, 0, 67, 118
1, 79624, Control_c, 0, 64, 83
1, 79624, Control_c, 0, 67, 124
1, 79639, Control_c, 0, 64, 75
1, 79639, Control_c, 0, 67, 127
1, 79653, Control_c, 0, 64, 64
1, 79668, Control_c, 0, 64, 0
1, 79742, Control_c, 0, 64, 38
1, 79756, Control_c, 0, 64, 63
1, 79771, Control_c, 0, 64, 66
1, 79786, Control_c, 0, 64, 68
1, 79801, Control_c, 0, 64, 71
1, 79816, Control_c, 0, 64, 73
1, 79831, Control_c, 0, 64, 75
1, 79845, Control_c, 0, 64, 77
1, 79858, Note_off_c, 0, 65, 40
1, 79859, Note_off_c, 0, 68, 56
1, 79860, Control_c, 0, 64, 78
1, 79868, Note_off_c, 0, 62, 36
1, 79882, Control_c, 0, 64, 79
1, 79919, Note_off_c, 0, 59, 41
1, 79929, Note_on_c, 0, 63, 55
1, 79943, Note_on_c, 0, 58, 39
1, 79949, Note_on_c, 0, 54, 33
1, 79956, Control_c, 0, 64, 77
1, 79971, Control_c, 0, 64, 71
1, 79986, Control_c, 0, 64, 51
1, 80001, Control_c, 0, 64, 0
1, 80075, Control_c, 0, 64, 57
1, 80090, Control_c, 0, 64, 66
1, 80105, Control_c, 0, 64, 69
1, 80120, Control_c, 0, 64, 72
1, 80135, Control_c, 0, 64, 75
1, 80137, Note_off_c, 0, 63, 40
1, 80150, Control_c, 0, 64, 77
1, 80158, Note_off_c, 0, 54, 39
1, 80165, Control_c, 0, 64, 78
1, 80180, Control_c, 0, 64, 80
1, 80195, Control_c, 0, 64, 81
1, 80209, Note_off_c, 0, 58, 32
1, 80210, Control_c, 0, 64, 81
1, 80254, Control_c, 0, 64, 81
1, 80269, Control_c, 0, 64, 77
1, 80283, Control_c, 0, 64, 71
1, 80298, Control_c, 0, 64, 58
1, 80308, Note_on_c, 0, 66, 44
1, 80313, Control_c, 0, 64, 0
1, 80318, Note_on_c, 0, 57, 27
1, 80328, Note_on_c, 0, 60, 26
1, 80344, Poly_aftertouch_c, 0, 63, 127
1, 80372, Control_c, 0, 64, 41
1, 80387, Control_c, 0, 64, 63
1, 80401, Control_c, 0, 64, 67
1, 80414, Poly_aftertouch_c, 0, 63, 0
1, 80416, Control_c, 0, 64, 69
1, 80431, Control_c, 0, 64, 71
1, 80446, Control_c, 0, 64, 75
1, 80451, Note_off_c, 0, 66, 56
1, 80460, Note_off_c, 0, 60, 24
1, 80461, Control_c, 0, 64, 78
1, 80475, Control_c, 0, 64, 80
1, 80490, Control_c, 0, 64, 81
1, 80505, Control_c, 0, 64, 82
1, 80520, Note_off_c, 0, 57, 43
1, 80520, Control_c, 0, 64, 83
1, 80809, Control_c, 0, 64, 81
1, 80815, Note_on_c, 0, 64, 39
1, 80824, Control_c, 0, 64, 76
1, 80830, Note_on_c, 0, 59, 25
1, 80838, Note_on_c, 0, 56, 28
1, 80839, Control_c, 0, 64, 68
1, 80854, Control_c, 0, 64, 0
1, 80928, Control_c, 0, 64, 60
1, 80943, Control_c, 0, 64, 66
1, 80958, Control_c, 0, 64, 68
1, 80967, Note_off_c, 0, 64, 39
1, 80973, Control_c, 0, 64, 71
1, 80988, Control_c, 0, 64, 73
1, 81002, Control_c, 0, 64, 76
1, 81004, Note_off_c, 0, 59, 38
1, 81017, Control_c, 0, 64, 78
1, 81032, Control_c, 0, 64, 80
1, 81047, Control_c, 0, 64, 82
1, 81062, Control_c, 0, 64, 83
1, 81077, Control_c, 0, 64, 85
1, 81091, Note_off_c, 0, 56, 41
1, 81092, Control_c, 0, 64, 86
1, 81106, Control_c, 0, 64, 87
1, 81121, Control_c, 0, 64, 89
1, 81136, Control_c, 0, 64, 90
1, 81151, Control_c, 0, 64, 91
1, 81166, Control_c, 0, 64, 92
1, 81180, Control_c, 0, 64, 92
1, 81210, Control_c, 0, 64, 93
1, 81301, Note_on_c, 0, 71, 50
1, 81315, Note_on_c, 0, 68, 44
1, 81334, Note_on_c, 0, 64, 26
1, 81497, Note_on_c, 0, 32, 33
1, 81533, Note_off_c, 0, 64, 37
1, 81545, Note_off_c, 0, 68, 37
1, 81561, Note_off_c, 0, 32, 45
1, 81593, Note_on_c, 0, 40, 35
1, 81629, Note_off_c, 0, 40, 48
1, 81679, Note_on_c, 0, 47, 37
1, 81716, Note_off_c, 0, 47, 55
1, 81810, Control_c, 0, 67, 126
1, 81825, Control_c, 0, 67, 124
1, 81828, Note_on_c, 0, 68, 49
1, 81834, Note_on_c, 0, 64, 41
1, 81840, Control_c, 0, 67, 122
1, 81849, Note_on_c, 0, 59, 34
1, 81855, Control_c, 0, 67, 121
1, 81860, Note_on_c, 0, 52, 42
1, 81870, Control_c, 0, 67, 119
1, 81885, Control_c, 0, 67, 117
1, 81900, Control_c, 0, 67, 115
1, 81915, Control_c, 0, 67, 113
1, 81929, Control_c, 0, 67, 111
1, 81944, Control_c, 0, 67, 108
1, 81959, Control_c, 0, 67, 105
1, 81973, Control_c, 0, 67, 102
1, 81988, Control_c, 0, 67, 100
1, 82002, Control_c, 0, 67, 97
1, 82017, Control_c, 0, 67, 95
1, 82032, Control_c, 0, 67, 93
1, 82046, Control_c, 0, 67, 90
1, 82059, Note_off_c, 0, 71, 12
1, 82061, Control_c, 0, 67, 88
1, 82076, Control_c, 0, 67, 85
1, 82091, Control_c, 0, 67, 83
1, 82106, Control_c, 0, 67, 81
1, 82128, Control_c, 0, 67, 79
1, 82135, Note_off_c, 0, 59, 38
1, 82143, Control_c, 0, 67, 78
1, 82158, Control_c, 0, 67, 77
1, 82165, Note_off_c, 0, 64, 43
1, 82173, Control_c, 0, 67, 77
1, 82174, Note_off_c, 0, 68, 37
1, 82188, Control_c, 0, 67, 76
1, 82202, Control_c, 0, 67, 76
1, 82217, Control_c, 0, 67, 75
1, 82232, Control_c, 0, 67, 75
1, 82246, Control_c, 0, 67, 74
1, 82253, Note_on_c, 0, 68, 47
1, 82254, Note_on_c, 0, 71, 52
1, 82261, Control_c, 0, 67, 73
1, 82266, Note_on_c, 0, 64, 23
1, 82276, Control_c, 0, 67, 72
1, 82291, Control_c, 0, 67, 71
1, 82306, Control_c, 0, 67, 70
1, 82320, Control_c, 0, 67, 69
1, 82335, Control_c, 0, 67, 69
1, 82350, Control_c, 0, 67, 68
1, 82357, Note_off_c, 0, 64, 53
1, 82365, Control_c, 0, 67, 66
1, 82380, Control_c, 0, 67, 65
1, 82395, Control_c, 0, 67, 64
1, 82401, Note_off_c, 0, 68, 61
1, 82401, Note_off_c, 0, 71, 59
1, 82409, Control_c, 0, 67, 63
1, 82424, Control_c, 0, 67, 62
1, 82439, Control_c, 0, 67, 62
1, 82455, Control_c, 0, 67, 61
1, 82469, Control_c, 0, 67, 61
1, 82484, Control_c, 0, 67, 60
1, 82514, Control_c, 0, 67, 60
1, 82544, Control_c, 0, 67, 59
1, 82588, Control_c, 0, 67, 59
1, 82618, Control_c, 0, 67, 58
1, 82625, Note_on_c, 0, 76, 59
1, 82633, Control_c, 0, 67, 58
1, 82642, Note_on_c, 0, 68, 43
1, 82646, Note_on_c, 0, 71, 44
1, 82648, Control_c, 0, 67, 57
1, 82663, Control_c, 0, 67, 56
1, 82677, Control_c, 0, 67, 55
1, 82692, Control_c, 0, 67, 54
1, 82707, Control_c, 0, 67, 53
1, 82722, Control_c, 0, 67, 52
1, 82737, Control_c, 0, 67, 51
1, 82752, Control_c, 0, 67, 51
1, 82763, Note_off_c, 0, 52, 41
1, 82767, Control_c, 0, 67, 50
1, 82782, Control_c, 0, 67, 49
1, 82796, Control_c, 0, 67, 48
1, 82811, Control_c, 0, 67, 47
1, 82826, Control_c, 0, 67, 46
1, 82856, Control_c, 0, 67, 46
1, 82871, Note_off_c, 0, 68, 36
1, 82877, Control_c, 0, 67, 45
1, 82892, Control_c, 0, 67, 45
1, 82907, Note_off_c, 0, 71, 35
1, 82922, Control_c, 0, 67, 44
1, 82937, Control_c, 0, 67, 44
1, 82967, Control_c, 0, 67, 43
1, 82982, Control_c, 0, 67, 43
1, 82996, Control_c, 0, 67, 42
1, 83000, Note_on_c, 0, 71, 38
1, 83002, Note_on_c, 0, 78, 72
1, 83003, Note_on_c, 0, 68, 47
1, 83011, Control_c, 0, 67, 42
1, 83026, Control_c, 0, 67, 41
1, 83056, Control_c, 0, 67, 41
1, 83070, Control_c, 0, 67, 40
1, 83106, Note_on_c, 0, 32, 41
1, 83109, Note_off_c, 0, 76, 44
1, 83115, Control_c, 0, 67, 40
1, 83122, Note_off_c, 0, 71, 61
1, 83159, Control_c, 0, 67, 39
1, 83161, Note_off_c, 0, 32, 51
1, 83172, Note_off_c, 0, 78, 53
1, 83184, Note_on_c, 0, 40, 48
1, 83215, Note_off_c, 0, 40, 58
1, 83230, Note_off_c, 0, 68, 59
1, 83233, Control_c, 0, 67, 39
1, 83249, Control_c, 0, 67, 38
1, 83265, Note_on_c, 0, 47, 45
1, 83279, Control_c, 0, 67, 38
1, 83306, Note_off_c, 0, 47, 62
1, 83338, Control_c, 0, 67, 37
1, 83390, Note_on_c, 0, 76, 63
1, 83391, Note_on_c, 0, 71, 58
1, 83397, Note_on_c, 0, 68, 47
1, 83397, Control_c, 0, 67, 37
1, 83438, Note_on_c, 0, 52, 42
1, 83441, Control_c, 0, 67, 36
1, 83471, Control_c, 0, 67, 36
1, 83500, Control_c, 0, 67, 35
1, 83515, Control_c, 0, 67, 35
1, 83530, Control_c, 0, 67, 34
1, 83545, Control_c, 0, 67, 33
1, 83560, Control_c, 0, 67, 33
1, 83575, Control_c, 0, 67, 32
1, 83590, Control_c, 0, 67, 31
1, 83604, Note_off_c, 0, 52, 34
1, 83605, Control_c, 0, 67, 30
1, 83626, Control_c, 0, 67, 28
1, 83641, Control_c, 0, 67, 27
1, 83643, Note_off_c, 0, 68, 48
1, 83656, Control_c, 0, 67, 25
1, 83664, Note_off_c, 0, 71, 36
1, 83671, Control_c, 0, 67, 24
1, 83686, Control_c, 0, 67, 22
1, 83700, Control_c, 0, 67, 20
1, 83715, Control_c, 0, 67, 18
1, 83730, Control_c, 0, 67, 16
1, 83745, Control_c, 0, 67, 15
1, 83760, Control_c, 0, 67, 14
1, 83775, Control_c, 0, 67, 13
1, 83775, Note_on_c, 0, 71, 65
1, 83778, Note_on_c, 0, 68, 55
1, 83790, Control_c, 0, 67, 11
1, 83805, Control_c, 0, 67, 10
1, 83813, Note_on_c, 0, 64, 30
1, 83815, Note_off_c, 0, 76, 35
1, 83819, Control_c, 0, 67, 9
1, 83834, Control_c, 0, 67, 8
1, 83849, Control_c, 0, 67, 0
1, 83942, Note_off_c, 0, 68, 53
1, 84031, Note_off_c, 0, 64, 40
1, 84161, Control_c, 0, 64, 92
1, 84163, Note_on_c, 0, 73, 69
1, 84168, Note_on_c, 0, 64, 55
1, 84172, Note_on_c, 0, 69, 54
1, 84176, Control_c, 0, 64, 89
1, 84190, Control_c, 0, 64, 82
1, 84202, Note_off_c, 0, 71, 57
1, 84205, Control_c, 0, 64, 69
1, 84220, Control_c, 0, 64, 20
1, 84235, Control_c, 0, 64, 0
1, 84279, Control_c, 0, 64, 13
1, 84294, Control_c, 0, 64, 65
1, 84308, Control_c, 0, 64, 70
1, 84323, Control_c, 0, 64, 74
1, 84329, Note_off_c, 0, 69, 64
1, 84338, Control_c, 0, 64, 77
1, 84353, Control_c, 0, 64, 79
1, 84376, Control_c, 0, 64, 81
1, 84381, Note_off_c, 0, 73, 58
1, 84391, Control_c, 0, 64, 83
1, 84405, Control_c, 0, 64, 84
1, 84420, Control_c, 0, 64, 85
1, 84435, Control_c, 0, 64, 85
1, 84449, Control_c, 0, 64, 86
1, 84479, Control_c, 0, 64, 86
1, 84507, Note_off_c, 0, 64, 55
1, 84509, Control_c, 0, 64, 87
1, 84577, Note_on_c, 0, 66, 58
1, 84577, Note_on_c, 0, 69, 64
1, 84584, Note_on_c, 0, 61, 54
1, 84617, Note_on_c, 0, 32, 37
1, 84730, Note_on_c, 0, 40, 51
1, 84752, Note_off_c, 0, 61, 38
1, 84754, Note_off_c, 0, 32, 34
1, 84778, Note_off_c, 0, 40, 62
1, 84837, Note_on_c, 0, 45, 45
1, 84869, Note_off_c, 0, 45, 60
1, 84925, Control_c, 0, 64, 84
1, 84934, Note_on_c, 0, 64, 62
1, 84939, Control_c, 0, 64, 78
1, 84952, Note_on_c, 0, 61, 54
1, 84954, Control_c, 0, 64, 68
1, 84955, Note_on_c, 0, 57, 46
1, 84961, Note_on_c, 0, 49, 47
1, 84969, Control_c, 0, 64, 34
1, 84984, Control_c, 0, 64, 0
1, 84985, Note_off_c, 0, 69, 37
1, 85013, Control_c, 0, 64, 41
1, 85028, Control_c, 0, 64, 63
1, 85043, Control_c, 0, 64, 67
1, 85057, Control_c, 0, 64, 70
1, 85072, Control_c, 0, 64, 73
1, 85087, Control_c, 0, 64, 74
1, 85102, Control_c, 0, 64, 76
1, 85125, Control_c, 0, 64, 78
1, 85139, Control_c, 0, 64, 80
1, 85152, Note_off_c, 0, 61, 53
1, 85154, Control_c, 0, 64, 81
1, 85169, Control_c, 0, 64, 82
1, 85173, Note_off_c, 0, 57, 52
1, 85173, Note_off_c, 0, 49, 37
1, 85184, Control_c, 0, 64, 82
1, 85198, Control_c, 0, 64, 83
1, 85213, Control_c, 0, 64, 83
1, 85228, Control_c, 0, 64, 84
1, 85243, Control_c, 0, 64, 84
1, 85258, Control_c, 0, 64, 85
1, 85324, Note_on_c, 0, 57, 46
1, 85326, Note_on_c, 0, 61, 67
1, 85332, Control_c, 0, 64, 84
1, 85346, Control_c, 0, 64, 77
1, 85361, Control_c, 0, 64, 66
1, 85376, Control_c, 0, 64, 0
1, 85377, Note_off_c, 0, 64, 53
1, 85385, Note_off_c, 0, 66, 43
1, 85450, Control_c, 0, 64, 61
1, 85465, Control_c, 0, 64, 68
1, 85480, Control_c, 0, 64, 72
1, 85495, Control_c, 0, 64, 76
1, 85510, Control_c, 0, 64, 79
1, 85525, Control_c, 0, 64, 82
1, 85539, Control_c, 0, 64, 85
1, 85554, Control_c, 0, 64, 88
1, 85569, Control_c, 0, 64, 91
1, 85584, Control_c, 0, 64, 94
1, 85594, Note_off_c, 0, 61, 62
1, 85598, Control_c, 0, 64, 96
1, 85613, Control_c, 0, 64, 98
1, 85628, Control_c, 0, 64, 100
1, 85629, Note_off_c, 0, 57, 32
1, 85644, Control_c, 0, 64, 102
1, 85659, Control_c, 0, 64, 102
1, 85718, Control_c, 0, 64, 102
1, 85733, Control_c, 0, 64, 100
1, 85748, Control_c, 0, 64, 93
1, 85762, Control_c, 0, 64, 82
1, 85766, Note_on_c, 0, 66, 66
1, 85777, Control_c, 0, 64, 67
1, 85779, Note_on_c, 0, 62, 49
1, 85786, Note_on_c, 0, 57, 33
1, 85792, Control_c, 0, 64, 0
1, 85851, Control_c, 0, 64, 56
1, 85873, Control_c, 0, 64, 68
1, 85888, Control_c, 0, 64, 73
1, 85903, Control_c, 0, 64, 77
1, 85918, Control_c, 0, 64, 80
1, 85933, Control_c, 0, 64, 81
1, 85948, Control_c, 0, 64, 82
1, 85962, Control_c, 0, 64, 84
1, 85973, Note_off_c, 0, 62, 33
1, 85977, Control_c, 0, 64, 85
1, 85992, Control_c, 0, 64, 86
1, 86007, Note_off_c, 0, 66, 64
1, 86007, Control_c, 0, 64, 87
1, 86021, Control_c, 0, 64, 88
1, 86036, Control_c, 0, 64, 89
1, 86051, Control_c, 0, 64, 90
1, 86066, Control_c, 0, 64, 90
1, 86081, Control_c, 0, 64, 91
1, 86095, Control_c, 0, 64, 91
1, 86140, Control_c, 0, 64, 92
1, 86192, Note_off_c, 0, 57, 53
1, 86235, Note_on_c, 0, 32, 36
1, 86282, Note_on_c, 0, 62, 61
1, 86296, Note_on_c, 0, 59, 51
1, 86303, Control_c, 0, 64, 90
1, 86309, Note_on_c, 0, 54, 42
1, 86317, Control_c, 0, 64, 85
1, 86332, Control_c, 0, 64, 77
1, 86347, Control_c, 0, 64, 67
1, 86347, Control_c, 0, 67, 8
1, 86362, Control_c, 0, 64, 39
1, 86362, Control_c, 0, 67, 9
1, 86377, Control_c, 0, 64, 0
1, 86377, Control_c, 0, 67, 10
1, 86392, Control_c, 0, 67, 11
1, 86407, Control_c, 0, 67, 12
1, 86412, Note_on_c, 0, 42, 35
1, 86421, Control_c, 0, 64, 58
1, 86421, Control_c, 0, 67, 14
1, 86437, Control_c, 0, 64, 66
1, 86437, Control_c, 0, 67, 17
1, 86452, Control_c, 0, 64, 70
1, 86452, Control_c, 0, 67, 19
1, 86461, Note_off_c, 0, 32, 42
1, 86466, Note_off_c, 0, 42, 61
1, 86466, Control_c, 0, 64, 73
1, 86466, Control_c, 0, 67, 21
1, 86481, Control_c, 0, 64, 75
1, 86481, Control_c, 0, 67, 22
1, 86496, Control_c, 0, 64, 77
1, 86496, Control_c, 0, 67, 22
1, 86511, Control_c, 0, 64, 78
1, 86511, Control_c, 0, 67, 23
1, 86525, Note_off_c, 0, 54, 33
1, 86526, Control_c, 0, 64, 78
1, 86526, Control_c, 0, 67, 25
1, 86526, Note_on_c, 0, 45, 45
1, 86541, Control_c, 0, 64, 79
1, 86541, Control_c, 0, 67, 27
1, 86556, Control_c, 0, 64, 79
1, 86556, Control_c, 0, 67, 29
1, 86571, Control_c, 0, 64, 80
1, 86571, Control_c, 0, 67, 30
1, 86571, Note_off_c, 0, 45, 61
1, 86585, Control_c, 0, 64, 80
1, 86585, Control_c, 0, 67, 31
1, 86600, Control_c, 0, 67, 32
1, 86622, Control_c, 0, 67, 33
1, 86637, Control_c, 0, 67, 35
1, 86651, Control_c, 0, 64, 80
1, 86651, Control_c, 0, 67, 36
1, 86666, Control_c, 0, 64, 76
1, 86666, Control_c, 0, 67, 37
1, 86681, Control_c, 0, 64, 68
1, 86681, Control_c, 0, 67, 38
1, 86686, Note_on_c, 0, 57, 55
1, 86696, Control_c, 0, 64, 39
1, 86696, Control_c, 0, 67, 40
1, 86699, Note_on_c, 0, 50, 38
1, 86704, Note_on_c, 0, 54, 35
1, 86711, Control_c, 0, 64, 0
1, 86711, Control_c, 0, 67, 42
1, 86726, Control_c, 0, 67, 44
1, 86726, Note_off_c, 0, 62, 38
1, 86741, Control_c, 0, 67, 46
1, 86751, Note_off_c, 0, 59, 32
1, 86756, Control_c, 0, 64, 59
1, 86756, Control_c, 0, 67, 48
1, 86771, Control_c, 0, 64, 66
1, 86771, Control_c, 0, 67, 50
1, 86785, Control_c, 0, 64, 69
1, 86785, Control_c, 0, 67, 52
1, 86800, Control_c, 0, 64, 70
1, 86800, Control_c, 0, 67, 53
1, 86815, Control_c, 0, 64, 71
1, 86815, Control_c, 0, 67, 53
1, 86830, Control_c, 0, 64, 72
1, 86830, Control_c, 0, 67, 54
1, 86844, Control_c, 0, 64, 74
1, 86859, Control_c, 0, 64, 76
1, 86874, Control_c, 0, 64, 77
1, 86874, Control_c, 0, 67, 54
1, 86883, Note_off_c, 0, 50, 36
1, 86889, Control_c, 0, 64, 78
1, 86902, Note_off_c, 0, 54, 41
1, 86904, Control_c, 0, 64, 78
1, 86904, Control_c, 0, 67, 55
1, 86918, Control_c, 0, 64, 79
1, 86918, Control_c, 0, 67, 55
1, 86933, Control_c, 0, 64, 80
1, 86948, Control_c, 0, 64, 80
1, 86962, Control_c, 0, 64, 81
1, 86977, Control_c, 0, 64, 81
1, 87007, Control_c, 0, 64, 81
1, 87022, Control_c, 0, 64, 79
1, 87022, Control_c, 0, 67, 55
1, 87036, Control_c, 0, 64, 75
1, 87051, Control_c, 0, 64, 67
1, 87059, Note_on_c, 0, 54, 47
1, 87066, Control_c, 0, 64, 52
1, 87081, Control_c, 0, 64, 34
1, 87081, Control_c, 0, 67, 54
1, 87084, Note_on_c, 0, 50, 30
1, 87096, Control_c, 0, 64, 39
1, 87096, Control_c, 0, 67, 54
1, 87110, Control_c, 0, 64, 53
1, 87110, Control_c, 0, 67, 53
1, 87113, Note_off_c, 0, 57, 36
1, 87125, Control_c, 0, 64, 62
1, 87125, Control_c, 0, 67, 53
1, 87140, Control_c, 0, 64, 66
1, 87155, Control_c, 0, 64, 69
1, 87170, Control_c, 0, 64, 72
1, 87185, Control_c, 0, 64, 74
1, 87200, Control_c, 0, 64, 75
1, 87215, Control_c, 0, 64, 77
1, 87221, Note_off_c, 0, 50, 40
1, 87230, Control_c, 0, 64, 78
1, 87230, Control_c, 0, 67, 52
1, 87245, Control_c, 0, 64, 79
1, 87259, Control_c, 0, 64, 79
1, 87274, Control_c, 0, 64, 80
1, 87283, Note_off_c, 0, 54, 52
1, 87289, Control_c, 0, 64, 80
1, 87319, Control_c, 0, 64, 81
1, 87371, Control_c, 0, 64, 81
1, 87430, Control_c, 0, 64, 81
1, 87445, Control_c, 0, 64, 78
1, 87450, Note_on_c, 0, 60, 55
1, 87460, Control_c, 0, 64, 70
1, 87468, Note_on_c, 0, 54, 33
1, 87474, Control_c, 0, 64, 59
1, 87482, Note_on_c, 0, 51, 24
1, 87489, Control_c, 0, 64, 0
1, 87504, Control_c, 0, 67, 52
1, 87534, Control_c, 0, 64, 51
1, 87549, Control_c, 0, 64, 64
1, 87563, Control_c, 0, 64, 68
1, 87578, Control_c, 0, 64, 70
1, 87593, Control_c, 0, 64, 72
1, 87599, Note_off_c, 0, 60, 52
1, 87608, Control_c, 0, 64, 74
1, 87623, Control_c, 0, 64, 75
1, 87633, Note_off_c, 0, 51, 38
1, 87638, Control_c, 0, 64, 76
1, 87638, Control_c, 0, 67, 51
1, 87653, Control_c, 0, 64, 78
1, 87667, Control_c, 0, 64, 79
1, 87682, Control_c, 0, 64, 80
1, 87697, Control_c, 0, 64, 82
1, 87712, Control_c, 0, 64, 83
1, 87712, Control_c, 0, 67, 52
1, 87717, Note_off_c, 0, 54, 38
1, 87727, Control_c, 0, 64, 83
1, 87741, Control_c, 0, 64, 84
1, 87796, Note_on_c, 0, 39, 47
1, 87799, Note_on_c, 0, 51, 43
1, 87815, Control_c, 0, 64, 84
1, 87874, Control_c, 0, 67, 52
1, 87952, Note_off_c, 0, 51, 37
1, 87984, Note_off_c, 0, 39, 39
1, 88209, Control_c, 0, 64, 83
1, 88223, Control_c, 0, 64, 78
1, 88226, Note_on_c, 0, 68, 62
1, 88238, Control_c, 0, 64, 70
1, 88242, Note_on_c, 0, 54, 40
1, 88242, Note_on_c, 0, 66, 53
1, 88243, Note_on_c, 0, 63, 42
1, 88244, Note_on_c, 0, 60, 37
1, 88247, Note_on_c, 0, 36, 36
1, 88252, Note_on_c, 0, 48, 36
1, 88253, Control_c, 0, 64, 57
1, 88256, Note_on_c, 0, 56, 40
1, 88268, Control_c, 0, 64, 0
1, 88312, Control_c, 0, 67, 52
1, 88320, Note_off_c, 0, 56, 0
1, 88327, Control_c, 0, 64, 56
1, 88342, Control_c, 0, 64, 65
1, 88342, Control_c, 0, 67, 51
1, 88357, Poly_aftertouch_c, 0, 56, 127
1, 88357, Control_c, 0, 64, 69
1, 88371, Control_c, 0, 64, 71
1, 88386, Control_c, 0, 64, 73
1, 88401, Control_c, 0, 64, 75
1, 88401, Control_c, 0, 67, 51
1, 88407, Note_off_c, 0, 36, 41
1, 88408, Note_off_c, 0, 48, 40
1, 88416, Control_c, 0, 64, 77
1, 88416, Control_c, 0, 67, 50
1, 88431, Control_c, 0, 64, 78
1, 88446, Control_c, 0, 64, 79
1, 88461, Control_c, 0, 64, 79
1, 88461, Control_c, 0, 67, 50
1, 88476, Control_c, 0, 64, 80
1, 88476, Control_c, 0, 67, 49
1, 88505, Control_c, 0, 64, 80
1, 88520, Control_c, 0, 64, 81
1, 88547, Poly_aftertouch_c, 0, 56, 0
1, 88550, Control_c, 0, 64, 81
1, 88564, Control_c, 0, 67, 49
1, 88579, Control_c, 0, 64, 82
1, 88579, Control_c, 0, 67, 48
1, 88583, Note_off_c, 0, 54, 34
1, 88660, Note_on_c, 0, 51, 50
1, 88668, Note_on_c, 0, 39, 41
1, 88668, Control_c, 0, 67, 48
1, 88682, Control_c, 0, 64, 82
1, 88712, Control_c, 0, 67, 47
1, 88786, Control_c, 0, 64, 83
1, 88786, Control_c, 0, 67, 48
1, 88789, Note_off_c, 0, 39, 37
1, 88833, Note_off_c, 0, 60, 33
1, 88834, Note_off_c, 0, 51, 58
1, 88846, Control_c, 0, 64, 83
1, 88846, Control_c, 0, 67, 47
1, 88928, Control_c, 0, 67, 47
1, 88987, Control_c, 0, 67, 46
1, 89021, Note_on_c, 0, 53, 53
1, 89039, Note_on_c, 0, 41, 41
1, 89050, Note_off_c, 0, 63, 29
1, 89061, Control_c, 0, 67, 46
1, 89106, Control_c, 0, 67, 45
1, 89135, Note_off_c, 0, 53, 63
1, 89135, Control_c, 0, 67, 45
1, 89143, Note_off_c, 0, 66, 35
1, 89179, Control_c, 0, 64, 84
1, 89194, Control_c, 0, 67, 44
1, 89195, Note_off_c, 0, 41, 41
1, 89285, Note_off_c, 0, 68, 34
1, 89298, Control_c, 0, 67, 43
1, 89313, Control_c, 0, 67, 42
1, 89328, Control_c, 0, 67, 41
1, 89357, Control_c, 0, 67, 41
1, 89370, Note_on_c, 0, 56, 57
1, 89372, Control_c, 0, 67, 40
1, 89391, Note_on_c, 0, 44, 40
1, 89402, Control_c, 0, 67, 40
1, 89417, Control_c, 0, 67, 39
1, 89431, Control_c, 0, 67, 38
1, 89446, Control_c, 0, 67, 38
1, 89462, Control_c, 0, 67, 37
1, 89492, Control_c, 0, 67, 37
1, 89507, Note_off_c, 0, 56, 52
1, 89521, Control_c, 0, 67, 36
1, 89536, Control_c, 0, 67, 36
1, 89580, Control_c, 0, 64, 84
1, 89595, Control_c, 0, 67, 35
1, 89617, Control_c, 0, 64, 85
1, 89692, Control_c, 0, 64, 82
1, 89696, Note_off_c, 0, 44, 35
1, 89707, Control_c, 0, 64, 76
1, 89707, Control_c, 0, 67, 35
1, 89722, Control_c, 0, 64, 67
1, 89728, Note_on_c, 0, 80, 68
1, 89737, Control_c, 0, 64, 52
1, 89737, Control_c, 0, 67, 34
1, 89742, Note_on_c, 0, 41, 49
1, 89744, Note_on_c, 0, 78, 58
1, 89745, Note_on_c, 0, 53, 48
1, 89745, Note_on_c, 0, 66, 41
1, 89749, Note_on_c, 0, 75, 47
1, 89752, Control_c, 0, 64, 24
1, 89752, Control_c, 0, 67, 32
1, 89756, Note_on_c, 0, 72, 40
1, 89767, Control_c, 0, 64, 47
1, 89767, Control_c, 0, 67, 29
1, 89775, Note_on_c, 0, 68, 32
1, 89781, Control_c, 0, 64, 61
1, 89781, Control_c, 0, 67, 27
1, 89796, Control_c, 0, 64, 66
1, 89796, Control_c, 0, 67, 25
1, 89811, Control_c, 0, 64, 69
1, 89811, Control_c, 0, 67, 23
1, 89826, Note_off_c, 0, 68, 40
1, 89826, Control_c, 0, 64, 73
1, 89826, Control_c, 0, 67, 21
1, 89829, Note_off_c, 0, 41, 59
1, 89841, Control_c, 0, 64, 76
1, 89841, Control_c, 0, 67, 17
1, 89856, Control_c, 0, 64, 78
1, 89856, Control_c, 0, 67, 12
1, 89869, Note_off_c, 0, 53, 58
1, 89871, Control_c, 0, 64, 80
1, 89871, Control_c, 0, 67, 0
1, 89886, Control_c, 0, 64, 81
1, 89900, Control_c, 0, 64, 83
1, 89915, Control_c, 0, 64, 84
1, 89930, Control_c, 0, 64, 85
1, 89936, Note_off_c, 0, 66, 42
1, 89945, Control_c, 0, 64, 85
1, 89960, Control_c, 0, 64, 86
1, 89989, Control_c, 0, 64, 86
1, 89997, Note_off_c, 0, 72, 55
1, 90019, Control_c, 0, 64, 87
1, 90091, Note_off_c, 0, 75, 59
1, 90093, Note_on_c, 0, 51, 62
1, 90093, Control_c, 0, 64, 87
1, 90100, Note_on_c, 0, 39, 54
1, 90153, Note_off_c, 0, 78, 51
1, 90164, Note_off_c, 0, 80, 61
1, 90306, Note_off_c, 0, 51, 37
1, 90366, Control_c, 0, 64, 88
1, 90441, Control_c, 0, 64, 87
1, 90451, Note_off_c, 0, 39, 31
1, 90456, Control_c, 0, 64, 82
1, 90462, Note_on_c, 0, 92, 77
1, 90466, Note_on_c, 0, 87, 67
1, 90467, Note_on_c, 0, 90, 72
1, 90471, Control_c, 0, 64, 74
1, 90475, Note_on_c, 0, 84, 56
1, 90476, Note_on_c, 0, 78, 58
1, 90478, Note_on_c, 0, 80, 52
1, 90484, Note_on_c, 0, 48, 57
1, 90485, Control_c, 0, 64, 63
1, 90488, Note_on_c, 0, 36, 52
1, 90500, Control_c, 0, 64, 0
1, 90530, Control_c, 0, 64, 47
1, 90545, Control_c, 0, 64, 63
1, 90559, Control_c, 0, 64, 68
1, 90574, Control_c, 0, 64, 72
1, 90589, Control_c, 0, 64, 76
1, 90604, Note_off_c, 0, 36, 56
1, 90604, Control_c, 0, 64, 79
1, 90619, Control_c, 0, 64, 81
1, 90630, Note_off_c, 0, 48, 58
1, 90634, Control_c, 0, 64, 83
1, 90649, Control_c, 0, 64, 84
1, 90664, Control_c, 0, 64, 85
1, 90670, Note_off_c, 0, 80, 40
1, 90672, Note_off_c, 0, 92, 63
1, 90678, Control_c, 0, 64, 86
1, 90708, Control_c, 0, 64, 86
1, 90714, Note_off_c, 0, 90, 57
1, 90723, Control_c, 0, 64, 87
1, 90729, Note_off_c, 0, 84, 54
1, 90752, Control_c, 0, 64, 87
1, 90753, Note_off_c, 0, 87, 60
1, 90815, Note_off_c, 0, 78, 55
1, 90838, Note_on_c, 0, 46, 69
1, 90842, Note_on_c, 0, 34, 61
1, 90856, Control_c, 0, 64, 88
1, 90930, Control_c, 0, 64, 88
1, 91003, Control_c, 0, 64, 89
1, 91033, Control_c, 0, 64, 89
1, 91063, Control_c, 0, 64, 90
1, 91093, Control_c, 0, 64, 90
1, 91115, Control_c, 0, 64, 91
1, 91128, Note_off_c, 0, 46, 55
1, 91144, Control_c, 0, 64, 91
1, 91189, Control_c, 0, 64, 92
1, 91279, Control_c, 0, 64, 91
1, 91281, Note_on_c, 0, 68, 74
1, 91281, Note_on_c, 0, 60, 51
1, 91283, Note_off_c, 0, 34, 52
1, 91286, Note_on_c, 0, 54, 57
1, 91287, Note_on_c, 0, 63, 60
1, 91290, Note_on_c, 0, 66, 69
1, 91294, Control_c, 0, 64, 85
1, 91302, Note_on_c, 0, 32, 54
1, 91302, Note_on_c, 0, 44, 53
1, 91304, Note_on_c, 0, 56, 52
1, 91308, Control_c, 0, 64, 75
1, 91323, Control_c, 0, 64, 63
1, 91338, Control_c, 0, 64, 0
1, 91345, Note_off_c, 0, 56, 0
1, 91382, Poly_aftertouch_c, 0, 56, 127
1, 91412, Control_c, 0, 64, 16
1, 91427, Control_c, 0, 64, 59
1, 91442, Control_c, 0, 64, 65
1, 91457, Control_c, 0, 64, 67
1, 91471, Control_c, 0, 64, 70
1, 91486, Control_c, 0, 64, 73
1, 91501, Control_c, 0, 64, 76
1, 91516, Control_c, 0, 64, 79
1, 91531, Control_c, 0, 64, 81
1, 91546, Control_c, 0, 64, 83
1, 91560, Control_c, 0, 64, 84
1, 91562, Note_off_c, 0, 44, 55
1, 91575, Control_c, 0, 64, 85
1, 91590, Control_c, 0, 64, 86
1, 91601, Note_off_c, 0, 32, 40
1, 91605, Control_c, 0, 64, 86
1, 91620, Control_c, 0, 64, 87
1, 91634, Control_c, 0, 64, 87
1, 91649, Control_c, 0, 64, 88
1, 91664, Control_c, 0, 64, 89
1, 91679, Control_c, 0, 64, 89
1, 91694, Control_c, 0, 64, 90
1, 91752, Note_on_c, 0, 46, 67
1, 91752, Control_c, 0, 64, 88
1, 91755, Note_on_c, 0, 34, 58
1, 91767, Control_c, 0, 64, 84
1, 91782, Control_c, 0, 64, 77
1, 91797, Control_c, 0, 64, 70
1, 91812, Control_c, 0, 64, 64
1, 91826, Control_c, 0, 64, 63
1, 91841, Control_c, 0, 64, 66
1, 91864, Control_c, 0, 64, 71
1, 91879, Control_c, 0, 64, 76
1, 91894, Control_c, 0, 64, 80
1, 91908, Control_c, 0, 64, 82
1, 91918, Poly_aftertouch_c, 0, 56, 0
1, 91923, Control_c, 0, 64, 82
1, 91938, Control_c, 0, 64, 83
1, 91953, Control_c, 0, 64, 84
1, 91954, Note_off_c, 0, 34, 62
1, 91967, Control_c, 0, 64, 85
1, 91982, Control_c, 0, 64, 86
1, 91997, Control_c, 0, 64, 87
1, 92012, Control_c, 0, 64, 88
1, 92025, Note_off_c, 0, 46, 60
1, 92027, Control_c, 0, 64, 89
1, 92043, Control_c, 0, 64, 89
1, 92102, Control_c, 0, 64, 89
1, 92117, Control_c, 0, 64, 84
1, 92126, Note_off_c, 0, 54, 32
1, 92131, Control_c, 0, 64, 77
1, 92137, Note_on_c, 0, 48, 69
1, 92146, Control_c, 0, 64, 66
1, 92153, Note_on_c, 0, 36, 51
1, 92161, Control_c, 0, 64, 50
1, 92176, Control_c, 0, 64, 47
1, 92190, Control_c, 0, 64, 61
1, 92205, Control_c, 0, 64, 67
1, 92220, Control_c, 0, 64, 72
1, 92235, Control_c, 0, 64, 76
1, 92250, Control_c, 0, 64, 79
1, 92264, Control_c, 0, 64, 79
1, 92279, Note_off_c, 0, 48, 64
1, 92279, Control_c, 0, 64, 80
1, 92294, Control_c, 0, 64, 80
1, 92309, Control_c, 0, 64, 81
1, 92312, Note_off_c, 0, 60, 37
1, 92324, Control_c, 0, 64, 81
1, 92339, Control_c, 0, 64, 82
1, 92349, Note_off_c, 0, 36, 33
1, 92354, Control_c, 0, 64, 83
1, 92369, Control_c, 0, 64, 83
1, 92383, Control_c, 0, 64, 84
1, 92398, Control_c, 0, 64, 84
1, 92401, Note_off_c, 0, 63, 54
1, 92457, Control_c, 0, 64, 85
1, 92468, Note_off_c, 0, 66, 55
1, 92497, Note_on_c, 0, 51, 72
1, 92506, Note_on_c, 0, 39, 59
1, 92539, Note_off_c, 0, 68, 55
1, 92561, Control_c, 0, 64, 85
1, 92590, Control_c, 0, 64, 86
1, 92628, Control_c, 0, 64, 86
1, 92657, Control_c, 0, 64, 87
1, 92687, Control_c, 0, 64, 87
1, 92712, Note_off_c, 0, 51, 58
1, 92717, Control_c, 0, 64, 88
1, 92731, Control_c, 0, 64, 89
1, 92805, Control_c, 0, 64, 88
1, 92820, Control_c, 0, 64, 84
1, 92836, Control_c, 0, 64, 77
1, 92846, Note_on_c, 0, 80, 79
1, 92851, Control_c, 0, 64, 70
1, 92854, Note_on_c, 0, 48, 72
1, 92855, Note_on_c, 0, 68, 61
1, 92859, Note_on_c, 0, 75, 58
1, 92860, Note_on_c, 0, 78, 66
1, 92864, Note_on_c, 0, 66, 62
1, 92866, Control_c, 0, 64, 64
1, 92869, Note_on_c, 0, 36, 52
1, 92872, Note_on_c, 0, 72, 45
1, 92880, Control_c, 0, 64, 61
1, 92891, Note_off_c, 0, 39, 24
1, 92895, Control_c, 0, 64, 64
1, 92910, Control_c, 0, 64, 68
1, 92925, Control_c, 0, 64, 73
1, 92940, Control_c, 0, 64, 77
1, 92954, Control_c, 0, 64, 80
1, 92969, Control_c, 0, 64, 82
1, 92972, Note_off_c, 0, 36, 56
1, 92984, Control_c, 0, 64, 82
1, 92999, Control_c, 0, 64, 83
1, 93007, Note_off_c, 0, 48, 61
1, 93013, Control_c, 0, 64, 84
1, 93028, Control_c, 0, 64, 85
1, 93039, Poly_aftertouch_c, 0, 39, 127
1, 93043, Control_c, 0, 64, 85
1, 93058, Control_c, 0, 64, 86
1, 93073, Control_c, 0, 64, 86
1, 93076, Note_off_c, 0, 66, 39
1, 93083, Poly_aftertouch_c, 0, 39, 0
1, 93086, Note_off_c, 0, 68, 41
1, 93087, Control_c, 0, 64, 87
1, 93102, Control_c, 0, 64, 87
1, 93147, Control_c, 0, 64, 88
1, 93157, Note_off_c, 0, 72, 53
1, 93212, Note_on_c, 0, 44, 82
1, 93216, Note_on_c, 0, 32, 75
1, 93216, Note_off_c, 0, 75, 58
1, 93236, Control_c, 0, 64, 88
1, 93277, Note_off_c, 0, 78, 47
1, 93295, Note_off_c, 0, 80, 59
1, 93493, Note_off_c, 0, 44, 59
1, 93644, Control_c, 0, 64, 88
1, 93659, Control_c, 0, 64, 84
1, 93668, Note_on_c, 0, 92, 85
1, 93670, Note_on_c, 0, 80, 74
1, 93673, Note_on_c, 0, 90, 78
1, 93674, Control_c, 0, 64, 74
1, 93676, Note_on_c, 0, 87, 69
1, 93677, Note_on_c, 0, 41, 77
1, 93680, Note_on_c, 0, 84, 63
1, 93681, Note_on_c, 0, 78, 77
1, 93681, Note_off_c, 0, 32, 36
1, 93684, Note_on_c, 0, 29, 69
1, 93689, Control_c, 0, 64, 60
1, 93690, Note_off_c, 0, 80, 0
1, 93690, Note_on_c, 0, 80, 48
1, 93703, Control_c, 0, 64, 0
1, 93722, Note_off_c, 0, 78, 0
1, 93722, Note_on_c, 0, 78, 40
1, 93773, Note_off_c, 0, 78, 0
1, 93773, Note_on_c, 0, 78, 14
1, 93777, Control_c, 0, 64, 63
1, 93792, Control_c, 0, 64, 69
1, 93807, Control_c, 0, 64, 73
1, 93822, Control_c, 0, 64, 76
1, 93829, Note_off_c, 0, 92, 52
1, 93836, Control_c, 0, 64, 80
1, 93851, Control_c, 0, 64, 83
1, 93866, Control_c, 0, 64, 86
1, 93881, Control_c, 0, 64, 88
1, 93884, Note_off_c, 0, 90, 54
1, 93884, Note_off_c, 0, 29, 57
1, 93887, Note_off_c, 0, 80, 30
1, 93896, Control_c, 0, 64, 90
1, 93910, Control_c, 0, 64, 92
1, 93925, Control_c, 0, 64, 94
1, 93928, Note_off_c, 0, 41, 59
1, 93940, Control_c, 0, 64, 94
1, 93945, Note_off_c, 0, 87, 51
1, 93958, Note_off_c, 0, 84, 59
1, 93984, Control_c, 0, 64, 95
1, 94022, Note_off_c, 0, 78, 50
1, 94154, Note_on_c, 0, 39, 80
1, 94157, Note_on_c, 0, 27, 78
1, 94288, Control_c, 0, 64, 95
1, 94318, Control_c, 0, 64, 96
1, 94333, Control_c, 0, 64, 96
1, 94348, Control_c, 0, 64, 97
1, 94362, Control_c, 0, 64, 98
1, 94377, Control_c, 0, 64, 99
1, 94392, Control_c, 0, 64, 101
1, 94407, Control_c, 0, 64, 102
1, 94419, Note_off_c, 0, 39, 59
1, 94422, Control_c, 0, 64, 104
1, 94437, Control_c, 0, 64, 105
1, 94452, Control_c, 0, 64, 107
1, 94467, Control_c, 0, 64, 108
1, 94526, Control_c, 0, 64, 107
1, 94541, Control_c, 0, 64, 100
1, 94548, Note_on_c, 0, 68, 81
1, 94554, Note_on_c, 0, 54, 72
1, 94556, Note_on_c, 0, 60, 64
1, 94556, Control_c, 0, 64, 89
1, 94557, Note_on_c, 0, 66, 73
1, 94557, Note_on_c, 0, 63, 66
1, 94559, Note_off_c, 0, 27, 34
1, 94561, Note_on_c, 0, 24, 76
1, 94562, Note_on_c, 0, 36, 73
1, 94562, Note_on_c, 0, 56, 66
1, 94571, Control_c, 0, 64, 75
1, 94585, Control_c, 0, 64, 60
1, 94600, Control_c, 0, 64, 0
1, 94630, Control_c, 0, 64, 38
1, 94645, Control_c, 0, 64, 64
1, 94659, Control_c, 0, 64, 69
1, 94674, Control_c, 0, 64, 73
1, 94686, Note_off_c, 0, 24, 58
1, 94689, Control_c, 0, 64, 75
1, 94704, Control_c, 0, 64, 77
1, 94719, Control_c, 0, 64, 79
1, 94733, Control_c, 0, 64, 81
1, 94748, Control_c, 0, 64, 82
1, 94763, Control_c, 0, 64, 83
1, 94777, Control_c, 0, 64, 84
1, 94781, Note_off_c, 0, 56, 21
1, 94792, Control_c, 0, 64, 85
1, 94795, Note_off_c, 0, 36, 63
1, 94801, Note_off_c, 0, 54, 47
1, 94807, Control_c, 0, 64, 85
1, 94822, Control_c, 0, 64, 86
1, 94859, Control_c, 0, 64, 86
1, 94874, Control_c, 0, 64, 87
1, 94889, Control_c, 0, 64, 87
1, 94904, Control_c, 0, 64, 88
1, 94919, Control_c, 0, 64, 89
1, 94933, Control_c, 0, 64, 89
1, 94965, Note_off_c, 0, 60, 44
1, 94977, Control_c, 0, 64, 87
1, 94992, Control_c, 0, 64, 82
1, 94997, Note_on_c, 0, 44, 89
1, 95001, Note_on_c, 0, 32, 76
1, 95007, Control_c, 0, 64, 72
1, 95022, Control_c, 0, 64, 54
1, 95037, Control_c, 0, 64, 0
1, 95048, Note_off_c, 0, 63, 50
1, 95051, Control_c, 0, 64, 47
1, 95066, Control_c, 0, 64, 64
1, 95081, Control_c, 0, 64, 69
1, 95096, Control_c, 0, 64, 75
1, 95110, Note_off_c, 0, 66, 39
1, 95111, Control_c, 0, 64, 80
1, 95126, Control_c, 0, 64, 82
1, 95140, Note_off_c, 0, 68, 50
1, 95141, Control_c, 0, 64, 83
1, 95156, Control_c, 0, 64, 84
1, 95171, Control_c, 0, 64, 85
1, 95183, Note_off_c, 0, 44, 58
1, 95185, Control_c, 0, 64, 85
1, 95200, Control_c, 0, 64, 86
1, 95209, Note_off_c, 0, 32, 58
1, 95215, Control_c, 0, 64, 86
1, 95230, Control_c, 0, 64, 87
1, 95245, Control_c, 0, 64, 87
1, 95260, Control_c, 0, 64, 88
1, 95290, Control_c, 0, 64, 88
1, 95320, Control_c, 0, 64, 89
1, 95335, Control_c, 0, 64, 90
1, 95393, Control_c, 0, 64, 87
1, 95401, Note_on_c, 0, 80, 85
1, 95403, Note_on_c, 0, 66, 79
1, 95408, Note_on_c, 0, 72, 70
1, 95408, Note_on_c, 0, 78, 76
1, 95408, Control_c, 0, 64, 79
1, 95409, Note_on_c, 0, 75, 71
1, 95409, Note_on_c, 0, 41, 85
1, 95412, Note_on_c, 0, 68, 78
1, 95412, Note_on_c, 0, 29, 78
1, 95423, Control_c, 0, 64, 66
1, 95438, Control_c, 0, 64, 0
1, 95482, Control_c, 0, 64, 49
1, 95497, Control_c, 0, 64, 67
1, 95512, Control_c, 0, 64, 72
1, 95527, Control_c, 0, 64, 75
1, 95528, Note_off_c, 0, 68, 23
1, 95542, Control_c, 0, 64, 77
1, 95556, Control_c, 0, 64, 78
1, 95571, Note_off_c, 0, 66, 49
1, 95571, Control_c, 0, 64, 78
1, 95579, Note_off_c, 0, 29, 57
1, 95586, Control_c, 0, 64, 79
1, 95608, Control_c, 0, 64, 80
1, 95623, Control_c, 0, 64, 80
1, 95627, Note_off_c, 0, 41, 59
1, 95638, Control_c, 0, 64, 81
1, 95653, Control_c, 0, 64, 82
1, 95668, Control_c, 0, 64, 83
1, 95682, Control_c, 0, 64, 84
1, 95697, Control_c, 0, 64, 85
1, 95700, Note_off_c, 0, 72, 57
1, 95726, Control_c, 0, 64, 85
1, 95800, Control_c, 0, 64, 86
1, 95821, Note_off_c, 0, 75, 58
1, 95844, Note_on_c, 0, 39, 88
1, 95844, Note_on_c, 0, 27, 88
1, 95890, Note_off_c, 0, 78, 41
1, 95946, Note_off_c, 0, 80, 58
1, 96068, Control_c, 0, 64, 86
1, 96113, Control_c, 0, 64, 87
1, 96126, Note_off_c, 0, 39, 48
1, 96149, Note_off_c, 0, 27, 57
1, 96246, Control_c, 0, 64, 87
1, 96261, Control_c, 0, 64, 88
1, 96265, Poly_aftertouch_c, 0, 80, 127
1, 96276, Control_c, 0, 64, 90
1, 96290, Control_c, 0, 64, 92
1, 96302, Poly_aftertouch_c, 0, 80, 0
1, 96305, Control_c, 0, 64, 93
1, 96320, Control_c, 0, 64, 94
1, 96372, Control_c, 0, 64, 90
1, 96387, Control_c, 0, 64, 79
1, 96390, Note_on_c, 0, 92, 98
1, 96390, Note_on_c, 0, 80, 94
1, 96396, Note_on_c, 0, 90, 86
1, 96397, Note_on_c, 0, 87, 81
1, 96401, Note_on_c, 0, 84, 75
1, 96402, Control_c, 0, 64, 65
1, 96402, Note_on_c, 0, 78, 81
1, 96403, Note_on_c, 0, 24, 90
1, 96403, Note_on_c, 0, 36, 85
1, 96417, Control_c, 0, 64, 0
1, 96432, Note_off_c, 0, 78, 0
1, 96448, Note_on_c, 0, 78, 29
1, 96476, Control_c, 0, 64, 39
1, 96491, Control_c, 0, 64, 67
1, 96505, Control_c, 0, 64, 74
1, 96507, Note_off_c, 0, 92, 64
1, 96511, Note_off_c, 0, 78, 36
1, 96520, Control_c, 0, 64, 81
1, 96535, Control_c, 0, 64, 84
1, 96542, Note_off_c, 0, 80, 32
1, 96549, Control_c, 0, 64, 86
1, 96554, Note_off_c, 0, 90, 62
1, 96564, Control_c, 0, 64, 86
1, 96566, Note_off_c, 0, 84, 59
1, 96579, Control_c, 0, 64, 87
1, 96594, Note_off_c, 0, 87, 56
1, 96594, Control_c, 0, 64, 87
1, 96609, Control_c, 0, 64, 88
1, 96623, Control_c, 0, 64, 89
1, 96638, Control_c, 0, 64, 90
1, 96653, Control_c, 0, 64, 90
1, 96668, Control_c, 0, 64, 91
1, 96683, Control_c, 0, 64, 91
1, 96697, Control_c, 0, 64, 92
1, 96742, Control_c, 0, 64, 92
1, 96786, Control_c, 0, 64, 93
1, 96816, Control_c, 0, 64, 93
1, 96846, Control_c, 0, 64, 94
1, 96885, Note_off_c, 0, 36, 61
1, 96891, Control_c, 0, 64, 94
1, 96915, Note_off_c, 0, 24, 0
1, 96921, Note_on_c, 0, 32, 97
1, 96950, Control_c, 0, 64, 95
1, 96951, Poly_aftertouch_c, 0, 24, 127
1, 97004, Poly_aftertouch_c, 0, 24, 0
1, 97121, Control_c, 0, 64, 95
1, 97388, Note_off_c, 0, 32, 59
1, 97446, Control_c, 0, 64, 96
1, 97505, Control_c, 0, 64, 93
1, 97520, Control_c, 0, 64, 78
1, 97535, Control_c, 0, 64, 0
1, 97581, Note_on_c, 0, 25, 85
1, 97581, Note_on_c, 0, 37, 88
1, 97581, Note_on_c, 0, 68, 84
1, 97640, Control_c, 0, 64, 71
1, 97655, Control_c, 0, 64, 90
1, 97669, Control_c, 0, 64, 107
1, 97672, Note_off_c, 0, 68, 63
1, 97674, Note_on_c, 0, 77, 74
1, 97684, Control_c, 0, 64, 111
1, 97699, Control_c, 0, 64, 112
1, 97714, Control_c, 0, 64, 112
1, 97729, Control_c, 0, 64, 113
1, 97741, Note_off_c, 0, 25, 59
1, 97743, Control_c, 0, 64, 113
1, 97755, Note_off_c, 0, 77, 61
1, 97757, Note_on_c, 0, 80, 76
1, 97758, Control_c, 0, 64, 114
1, 97777, Note_off_c, 0, 80, 71
1, 97780, Note_off_c, 0, 37, 63
1, 97788, Control_c, 0, 64, 114
1, 97803, Control_c, 0, 64, 115
1, 97818, Control_c, 0, 64, 117
1, 97833, Control_c, 0, 64, 119
1, 97836, Note_on_c, 0, 89, 105
1, 97855, Control_c, 0, 64, 122
1, 97870, Control_c, 0, 64, 127
1, 97872, Note_off_c, 0, 89, 69
1, 98215, Note_on_c, 0, 49, 46
1, 98267, Note_off_c, 0, 49, 61
1, 98273, Note_on_c, 0, 56, 63
1, 98343, Note_on_c, 0, 61, 70
1, 98430, Note_on_c, 0, 65, 86
1, 98468, Note_off_c, 0, 61, 62
1, 98536, Note_off_c, 0, 65, 61
1, 98580, Note_on_c, 0, 68, 68
1, 98662, Note_off_c, 0, 68, 63
1, 98674, Note_on_c, 0, 77, 69
1, 98727, Note_off_c, 0, 77, 61
1, 98763, Note_off_c, 0, 56, 29
1, 98786, Note_on_c, 0, 85, 86
1, 98792, Note_on_c, 0, 49, 54
1, 98843, Note_off_c, 0, 49, 63
1, 98877, Note_on_c, 0, 56, 59
1, 98894, Note_off_c, 0, 85, 62
1, 98959, Note_on_c, 0, 61, 66
1, 99037, Note_on_c, 0, 65, 73
1, 99054, Note_off_c, 0, 61, 57
1, 99112, Note_off_c, 0, 65, 60
1, 99169, Note_on_c, 0, 68, 55
1, 99172, Note_off_c, 0, 56, 52
1, 99251, Note_on_c, 0, 77, 63
1, 99307, Note_on_c, 0, 80, 85
1, 99359, Note_off_c, 0, 77, 56
1, 99383, Note_on_c, 0, 49, 51
1, 99427, Control_c, 0, 64, 124
1, 99442, Control_c, 0, 64, 114
1, 99457, Control_c, 0, 64, 104
1, 99472, Control_c, 0, 64, 93
1, 99487, Control_c, 0, 64, 83
1, 99493, Note_on_c, 0, 56, 55
1, 99502, Control_c, 0, 64, 74
1, 99517, Control_c, 0, 64, 68
1, 99531, Control_c, 0, 64, 67
1, 99546, Control_c, 0, 64, 70
1, 99552, Note_off_c, 0, 80, 60
1, 99561, Control_c, 0, 64, 74
1, 99575, Note_on_c, 0, 61, 66
1, 99575, Control_c, 0, 64, 79
1, 99590, Control_c, 0, 64, 83
1, 99605, Control_c, 0, 64, 84
1, 99620, Control_c, 0, 64, 85
1, 99635, Control_c, 0, 64, 85
1, 99649, Control_c, 0, 64, 86
1, 99656, Note_off_c, 0, 68, 64
1, 99664, Control_c, 0, 64, 86
1, 99694, Control_c, 0, 64, 87
1, 99709, Control_c, 0, 64, 87
1, 99714, Note_off_c, 0, 56, 38
1, 99715, Note_off_c, 0, 49, 33
1, 99766, Note_on_c, 0, 65, 54
1, 99782, Control_c, 0, 64, 88
1, 99786, Poly_aftertouch_c, 0, 70, 0
1, 99804, Note_off_c, 0, 61, 35
1, 99820, Note_on_c, 0, 73, 62
1, 99827, Control_c, 0, 64, 87
1, 99842, Control_c, 0, 64, 87
1, 99857, Control_c, 0, 64, 82
1, 99868, Note_on_c, 0, 77, 74
1, 99872, Control_c, 0, 64, 73
1, 99875, Note_on_c, 0, 49, 50
1, 99886, Control_c, 0, 64, 54
1, 99896, Note_off_c, 0, 73, 59
1, 99901, Control_c, 0, 64, 0
1, 99934, Note_off_c, 0, 65, 57
1, 99964, Note_on_c, 0, 60, 51
1, 99975, Control_c, 0, 64, 28
1, 99990, Control_c, 0, 64, 64
1, 100005, Control_c, 0, 64, 68
1, 100021, Control_c, 0, 64, 70
1, 100036, Control_c, 0, 64, 72
1, 100050, Control_c, 0, 64, 76
1, 100064, Note_on_c, 0, 61, 61
1, 100065, Control_c, 0, 64, 79
1, 100072, Note_off_c, 0, 77, 46
1, 100080, Control_c, 0, 64, 82
1, 100102, Control_c, 0, 64, 83
1, 100117, Control_c, 0, 64, 84
1, 100119, Note_off_c, 0, 60, 37
1, 100132, Control_c, 0, 64, 85
1, 100146, Control_c, 0, 64, 85
1, 100149, Note_off_c, 0, 49, 33
1, 100161, Control_c, 0, 64, 86
1, 100184, Note_on_c, 0, 63, 54
1, 100191, Control_c, 0, 64, 86
1, 100247, Note_off_c, 0, 63, 52
1, 100253, Note_on_c, 0, 68, 58
1, 100258, Note_off_c, 0, 61, 34
1, 100301, Note_on_c, 0, 75, 66
1, 100324, Control_c, 0, 64, 86
1, 100339, Control_c, 0, 64, 81
1, 100350, Note_on_c, 0, 49, 51
1, 100353, Note_off_c, 0, 68, 54
1, 100354, Control_c, 0, 64, 70
1, 100369, Control_c, 0, 64, 0
1, 100414, Note_on_c, 0, 59, 38
1, 100443, Control_c, 0, 64, 39
1, 100458, Control_c, 0, 64, 65
1, 100472, Control_c, 0, 64, 70
1, 100487, Control_c, 0, 64, 73
1, 100502, Control_c, 0, 64, 75
1, 100510, Note_on_c, 0, 61, 49
1, 100516, Control_c, 0, 64, 77
1, 100531, Control_c, 0, 64, 78
1, 100546, Control_c, 0, 64, 80
1, 100561, Control_c, 0, 64, 81
1, 100576, Note_off_c, 0, 61, 48
1, 100576, Control_c, 0, 64, 82
1, 100578, Note_off_c, 0, 59, 32
1, 100578, Note_off_c, 0, 75, 63
1, 100605, Control_c, 0, 64, 82
1, 100609, Note_on_c, 0, 65, 43
1, 100623, Note_off_c, 0, 49, 20
1, 100655, Note_off_c, 0, 65, 62
1, 100662, Note_on_c, 0, 68, 51
1, 100665, Control_c, 0, 64, 83
1, 100719, Note_on_c, 0, 77, 67
1, 100738, Control_c, 0, 64, 82
1, 100753, Control_c, 0, 64, 76
1, 100768, Control_c, 0, 64, 64
1, 100769, Note_off_c, 0, 68, 44
1, 100778, Note_on_c, 0, 49, 45
1, 100783, Control_c, 0, 64, 0
1, 100849, Note_on_c, 0, 58, 46
1, 100850, Control_c, 0, 64, 54
1, 100865, Control_c, 0, 64, 69
1, 100880, Control_c, 0, 64, 75
1, 100894, Control_c, 0, 64, 79
1, 100906, Note_on_c, 0, 61, 55
1, 100909, Control_c, 0, 64, 80
1, 100924, Note_off_c, 0, 77, 59
1, 100924, Control_c, 0, 64, 81
1, 100939, Control_c, 0, 64, 82
1, 100954, Control_c, 0, 64, 83
1, 100969, Control_c, 0, 64, 83
1, 100983, Control_c, 0, 64, 84
1, 100986, Note_on_c, 0, 66, 61
1, 101013, Control_c, 0, 64, 84
1, 101019, Note_off_c, 0, 49, 38
1, 101019, Note_off_c, 0, 61, 36
1, 101046, Note_off_c, 0, 58, 20
1, 101055, Note_off_c, 0, 66, 56
1, 101056, Note_on_c, 0, 70, 60
1, 101088, Control_c, 0, 64, 85
1, 101105, Note_on_c, 0, 78, 73
1, 101140, Note_off_c, 0, 70, 56
1, 101144, Note_on_c, 0, 49, 51
1, 101161, Control_c, 0, 64, 81
1, 101176, Control_c, 0, 64, 72
1, 101191, Control_c, 0, 64, 46
1, 101206, Control_c, 0, 64, 0
1, 101225, Note_off_c, 0, 49, 58
1, 101233, Note_on_c, 0, 57, 57
1, 101250, Control_c, 0, 64, 63
1, 101265, Control_c, 0, 64, 71
1, 101280, Control_c, 0, 64, 77
1, 101294, Control_c, 0, 64, 81
1, 101296, Note_on_c, 0, 64, 54
1, 101324, Control_c, 0, 64, 81
1, 101338, Control_c, 0, 64, 82
1, 101353, Control_c, 0, 64, 82
1, 101358, Note_off_c, 0, 78, 61
1, 101361, Note_off_c, 0, 64, 55
1, 101383, Control_c, 0, 64, 83
1, 101390, Note_on_c, 0, 67, 59
1, 101413, Control_c, 0, 64, 83
1, 101428, Control_c, 0, 64, 84
1, 101440, Note_off_c, 0, 67, 52
1, 101443, Control_c, 0, 64, 85
1, 101449, Note_off_c, 0, 57, 33
1, 101457, Control_c, 0, 64, 85
1, 101466, Note_on_c, 0, 73, 58
1, 101472, Control_c, 0, 64, 86
1, 101516, Note_on_c, 0, 79, 79
1, 101517, Control_c, 0, 64, 84
1, 101519, Note_on_c, 0, 49, 50
1, 101526, Note_off_c, 0, 73, 56
1, 101532, Control_c, 0, 64, 77
1, 101546, Control_c, 0, 64, 65
1, 101561, Control_c, 0, 64, 0
1, 101578, Note_off_c, 0, 49, 56
1, 101613, Control_c, 0, 64, 28
1, 101629, Control_c, 0, 64, 67
1, 101632, Note_on_c, 0, 56, 45
1, 101643, Control_c, 0, 64, 73
1, 101658, Control_c, 0, 64, 78
1, 101673, Control_c, 0, 64, 79
1, 101688, Control_c, 0, 64, 79
1, 101694, Note_off_c, 0, 79, 56
1, 101703, Control_c, 0, 64, 80
1, 101704, Note_on_c, 0, 65, 60
1, 101717, Control_c, 0, 64, 81
1, 101732, Control_c, 0, 64, 82
1, 101747, Control_c, 0, 64, 83
1, 101754, Note_off_c, 0, 65, 49
1, 101761, Control_c, 0, 64, 84
1, 101776, Control_c, 0, 64, 85
1, 101800, Note_on_c, 0, 68, 53
1, 101806, Control_c, 0, 64, 85
1, 101818, Note_off_c, 0, 56, 36
1, 101847, Note_off_c, 0, 68, 54
1, 101851, Control_c, 0, 64, 86
1, 101857, Note_on_c, 0, 73, 59
1, 101866, Control_c, 0, 64, 87
1, 101881, Control_c, 0, 64, 88
1, 101896, Control_c, 0, 64, 89
1, 101910, Control_c, 0, 64, 90
1, 101916, Note_on_c, 0, 80, 74
1, 101941, Note_off_c, 0, 73, 54
1, 101953, Note_on_c, 0, 49, 45
1, 101955, Control_c, 0, 64, 88
1, 101969, Control_c, 0, 64, 82
1, 101984, Control_c, 0, 64, 71
1, 101999, Control_c, 0, 64, 0
1, 102021, Note_on_c, 0, 55, 42
1, 102049, Note_on_c, 0, 58, 46
1, 102058, Control_c, 0, 64, 64
1, 102073, Control_c, 0, 64, 71
1, 102087, Control_c, 0, 64, 76
1, 102100, Note_on_c, 0, 64, 52
1, 102102, Control_c, 0, 64, 79
1, 102117, Control_c, 0, 64, 80
1, 102132, Control_c, 0, 64, 81
1, 102138, Note_off_c, 0, 49, 31
1, 102143, Note_off_c, 0, 80, 48
1, 102147, Control_c, 0, 64, 82
1, 102161, Control_c, 0, 64, 84
1, 102176, Control_c, 0, 64, 86
1, 102182, Note_on_c, 0, 67, 55
1, 102192, Control_c, 0, 64, 88
1, 102207, Control_c, 0, 64, 89
1, 102212, Note_off_c, 0, 67, 57
1, 102217, Note_off_c, 0, 64, 45
1, 102222, Control_c, 0, 64, 90
1, 102232, Note_on_c, 0, 73, 54
1, 102236, Control_c, 0, 64, 92
1, 102243, Note_off_c, 0, 55, 43
1, 102251, Control_c, 0, 64, 94
1, 102257, Note_off_c, 0, 58, 34
1, 102266, Control_c, 0, 64, 96
1, 102276, Note_on_c, 0, 76, 65
1, 102281, Control_c, 0, 64, 98
1, 102295, Control_c, 0, 64, 99
1, 102312, Note_off_c, 0, 73, 54
1, 102325, Note_on_c, 0, 82, 80
1, 102325, Control_c, 0, 64, 98
1, 102348, Control_c, 0, 64, 93
1, 102359, Note_off_c, 0, 76, 59
1, 102363, Control_c, 0, 64, 82
1, 102366, Note_on_c, 0, 49, 50
1, 102377, Control_c, 0, 64, 68
1, 102392, Control_c, 0, 64, 0
1, 102438, Control_c, 0, 64, 30
1, 102447, Note_on_c, 0, 54, 39
1, 102453, Control_c, 0, 64, 66
1, 102467, Control_c, 0, 64, 72
1, 102469, Note_on_c, 0, 57, 48
1, 102482, Control_c, 0, 64, 78
1, 102497, Control_c, 0, 64, 79
1, 102512, Control_c, 0, 64, 80
1, 102527, Control_c, 0, 64, 82
1, 102534, Note_on_c, 0, 63, 48
1, 102542, Control_c, 0, 64, 84
1, 102556, Control_c, 0, 64, 85
1, 102571, Control_c, 0, 64, 86
1, 102583, Note_off_c, 0, 82, 59
1, 102586, Control_c, 0, 64, 87
1, 102587, Note_off_c, 0, 57, 48
1, 102600, Control_c, 0, 64, 87
1, 102615, Control_c, 0, 64, 88
1, 102616, Note_on_c, 0, 69, 48
1, 102630, Control_c, 0, 64, 88
1, 102641, Note_off_c, 0, 54, 39
1, 102645, Note_off_c, 0, 63, 39
1, 102656, Note_off_c, 0, 49, 34
1, 102662, Note_off_c, 0, 69, 62
1, 102668, Note_on_c, 0, 75, 56
1, 102689, Control_c, 0, 64, 89
1, 102722, Note_on_c, 0, 78, 62
1, 102733, Control_c, 0, 64, 89
1, 102735, Note_off_c, 0, 75, 61
1, 102748, Control_c, 0, 64, 90
1, 102763, Control_c, 0, 64, 90
1, 102800, Note_off_c, 0, 78, 62
1, 102811, Note_on_c, 0, 84, 46
1, 102819, Note_on_c, 0, 86, 52
1, 102823, Control_c, 0, 64, 90
1, 102838, Control_c, 0, 64, 85
1, 102853, Control_c, 0, 64, 75
1, 102867, Control_c, 0, 64, 50
1, 102879, Note_off_c, 0, 86, 37
1, 102879, Note_on_c, 0, 49, 35
1, 102882, Control_c, 0, 64, 0
1, 102926, Control_c, 0, 64, 52
1, 102932, Note_on_c, 0, 56, 48
1, 102933, Note_on_c, 0, 53, 29
1, 102941, Control_c, 0, 64, 67
1, 102956, Control_c, 0, 64, 73
1, 102962, Note_off_c, 0, 84, 58
1, 102971, Control_c, 0, 64, 77
1, 102985, Control_c, 0, 64, 79
1, 102996, Note_on_c, 0, 61, 60
1, 103000, Control_c, 0, 64, 81
1, 103015, Control_c, 0, 64, 82
1, 103030, Control_c, 0, 64, 83
1, 103045, Control_c, 0, 64, 85
1, 103059, Control_c, 0, 64, 86
1, 103073, Note_on_c, 0, 68, 63
1, 103074, Control_c, 0, 64, 86
1, 103097, Control_c, 0, 64, 87
1, 103098, Note_off_c, 0, 61, 43
1, 103117, Note_off_c, 0, 49, 37
1, 103117, Note_off_c, 0, 53, 35
1, 103125, Note_off_c, 0, 68, 61
1, 103139, Note_on_c, 0, 77, 61
1, 103141, Control_c, 0, 64, 87
1, 103156, Control_c, 0, 64, 88
1, 103171, Control_c, 0, 64, 89
1, 103173, Note_on_c, 0, 80, 75
1, 103186, Control_c, 0, 64, 90
1, 103200, Control_c, 0, 64, 91
1, 103226, Note_off_c, 0, 77, 53
1, 103228, Note_off_c, 0, 56, 0
1, 103234, Note_on_c, 0, 85, 78
1, 103246, Control_c, 0, 64, 89
1, 103261, Control_c, 0, 64, 81
1, 103276, Control_c, 0, 64, 67
1, 103280, Note_off_c, 0, 80, 58
1, 103285, Poly_aftertouch_c, 0, 56, 0
1, 103291, Control_c, 0, 64, 0
1, 103314, Note_on_c, 0, 49, 40
1, 103340, Note_on_c, 0, 51, 44
1, 103349, Control_c, 0, 64, 64
1, 103364, Control_c, 0, 64, 70
1, 103379, Control_c, 0, 64, 75
1, 103380, Note_on_c, 0, 56, 57
1, 103394, Control_c, 0, 64, 79
1, 103409, Control_c, 0, 64, 81
1, 103423, Control_c, 0, 64, 83
1, 103433, Note_off_c, 0, 56, 51
1, 103438, Control_c, 0, 64, 86
1, 103442, Note_on_c, 0, 60, 49
1, 103453, Control_c, 0, 64, 87
1, 103468, Control_c, 0, 64, 89
1, 103483, Note_on_c, 0, 72, 56
1, 103483, Control_c, 0, 64, 89
1, 103487, Note_off_c, 0, 85, 38
1, 103497, Control_c, 0, 64, 90
1, 103512, Note_off_c, 0, 72, 59
1, 103512, Control_c, 0, 64, 91
1, 103527, Control_c, 0, 64, 91
1, 103528, Note_off_c, 0, 49, 36
1, 103528, Note_off_c, 0, 60, 51
1, 103537, Note_on_c, 0, 78, 55
1, 103541, Control_c, 0, 64, 92
1, 103556, Control_c, 0, 64, 94
1, 103571, Note_off_c, 0, 51, 36
1, 103571, Control_c, 0, 64, 96
1, 103574, Note_off_c, 0, 78, 48
1, 103583, Note_on_c, 0, 80, 72
1, 103586, Control_c, 0, 64, 97
1, 103631, Control_c, 0, 64, 92
1, 103631, Note_on_c, 0, 87, 85
1, 103645, Control_c, 0, 64, 81
1, 103653, Note_off_c, 0, 80, 62
1, 103660, Control_c, 0, 64, 66
1, 103675, Control_c, 0, 64, 0
1, 103689, Note_on_c, 0, 49, 49
1, 103720, Control_c, 0, 64, 65
1, 103728, Note_on_c, 0, 53, 48
1, 103734, Control_c, 0, 64, 74
1, 103749, Control_c, 0, 64, 81
1, 103764, Control_c, 0, 64, 84
1, 103768, Note_off_c, 0, 87, 59
1, 103777, Note_on_c, 0, 56, 51
1, 103779, Control_c, 0, 64, 85
1, 103786, Note_off_c, 0, 53, 61
1, 103794, Control_c, 0, 64, 86
1, 103808, Control_c, 0, 64, 88
1, 103818, Note_on_c, 0, 61, 58
1, 103823, Control_c, 0, 64, 90
1, 103841, Note_off_c, 0, 56, 51
1, 103845, Control_c, 0, 64, 92
1, 103860, Control_c, 0, 64, 94
1, 103862, Note_on_c, 0, 73, 63
1, 103875, Control_c, 0, 64, 94
1, 103889, Note_off_c, 0, 73, 66
1, 103912, Note_on_c, 0, 77, 63
1, 103923, Note_off_c, 0, 49, 36
1, 103949, Control_c, 0, 64, 95
1, 103960, Note_off_c, 0, 77, 59
1, 103963, Note_on_c, 0, 80, 76
1, 103964, Control_c, 0, 64, 95
1, 103979, Control_c, 0, 64, 96
1, 103985, Note_off_c, 0, 80, 70
1, 103994, Control_c, 0, 64, 97
1, 104024, Control_c, 0, 64, 96
1, 104030, Note_on_c, 0, 89, 97
1, 104039, Control_c, 0, 64, 89
1, 104054, Control_c, 0, 64, 75
1, 104069, Control_c, 0, 64, 28
1, 104084, Control_c, 0, 64, 0
1, 104110, Note_on_c, 0, 49, 56
1, 104118, Note_off_c, 0, 61, 45
1, 104128, Control_c, 0, 64, 46
1, 104143, Control_c, 0, 64, 68
1, 104158, Control_c, 0, 64, 74
1, 104172, Control_c, 0, 64, 80
1, 104176, Note_on_c, 0, 54, 57
1, 104187, Control_c, 0, 64, 82
1, 104202, Control_c, 0, 64, 84
1, 104211, Note_off_c, 0, 89, 49
1, 104217, Control_c, 0, 64, 85
1, 104227, Note_on_c, 0, 56, 57
1, 104232, Control_c, 0, 64, 87
1, 104243, Note_off_c, 0, 49, 0
1, 104246, Control_c, 0, 64, 88
1, 104250, Note_off_c, 0, 54, 54
1, 104261, Control_c, 0, 64, 89
1, 104262, Note_on_c, 0, 63, 68
1, 104274, Note_off_c, 0, 56, 55
1, 104276, Control_c, 0, 64, 90
1, 104280, Poly_aftertouch_c, 0, 49, 127
1, 104290, Control_c, 0, 64, 90
1, 104304, Note_on_c, 0, 75, 62
1, 104305, Control_c, 0, 64, 91
1, 104320, Control_c, 0, 64, 92
1, 104335, Control_c, 0, 64, 94
1, 104337, Poly_aftertouch_c, 0, 49, 0
1, 104348, Note_off_c, 0, 75, 63
1, 104349, Note_on_c, 0, 80, 74
1, 104350, Control_c, 0, 64, 96
1, 104364, Control_c, 0, 64, 99
1, 104376, Note_off_c, 0, 63, 36
1, 104379, Control_c, 0, 64, 102
1, 104394, Control_c, 0, 64, 103
1, 104395, Note_on_c, 0, 84, 77
1, 104421, Note_off_c, 0, 80, 61
1, 104424, Control_c, 0, 64, 101
1, 104437, Control_c, 0, 64, 94
1, 104452, Control_c, 0, 64, 80
1, 104455, Note_on_c, 0, 90, 96
1, 104467, Control_c, 0, 64, 63
1, 104481, Note_off_c, 0, 84, 64
1, 104481, Control_c, 0, 64, 0
1, 104511, Control_c, 0, 64, 28
1, 104514, Note_on_c, 0, 49, 59
1, 104526, Control_c, 0, 64, 67
1, 104541, Control_c, 0, 64, 76
1, 104553, Note_off_c, 0, 90, 64
1, 104555, Control_c, 0, 64, 83
1, 104561, Note_off_c, 0, 49, 58
1, 104570, Control_c, 0, 64, 85
1, 104591, Note_on_c, 0, 56, 56
1, 104593, Control_c, 0, 64, 85
1, 104623, Control_c, 0, 64, 86
1, 104637, Note_on_c, 0, 60, 63
1, 104667, Control_c, 0, 64, 86
1, 104691, Note_on_c, 0, 66, 71
1, 104704, Note_off_c, 0, 60, 61
1, 104713, Note_off_c, 0, 66, 68
1, 104741, Control_c, 0, 64, 87
1, 104743, Note_on_c, 0, 72, 68
1, 104749, Note_off_c, 0, 56, 60
1, 104770, Control_c, 0, 64, 88
1, 104785, Control_c, 0, 64, 88
1, 104790, Note_on_c, 0, 78, 71
1, 104800, Control_c, 0, 64, 89
1, 104815, Note_off_c, 0, 72, 60
1, 104816, Control_c, 0, 64, 90
1, 104831, Control_c, 0, 64, 91
1, 104845, Note_on_c, 0, 80, 83
1, 104846, Control_c, 0, 64, 92
1, 104860, Control_c, 0, 64, 93
1, 104875, Control_c, 0, 64, 94
1, 104890, Control_c, 0, 64, 95
1, 104901, Note_off_c, 0, 78, 51
1, 104905, Control_c, 0, 64, 96
1, 104915, Note_on_c, 0, 87, 95
1, 104919, Control_c, 0, 64, 96
1, 104949, Control_c, 0, 64, 98
1, 104964, Control_c, 0, 64, 100
1, 104979, Control_c, 0, 64, 105
1, 104993, Control_c, 0, 64, 110
1, 105008, Control_c, 0, 64, 111
1, 105038, Control_c, 0, 64, 104
1, 105053, Control_c, 0, 64, 87
1, 105067, Control_c, 0, 64, 62
1, 105070, Note_on_c, 0, 25, 80
1, 105078, Note_off_c, 0, 87, 58
1, 105082, Control_c, 0, 64, 0
1, 105127, Control_c, 0, 64, 66
1, 105142, Control_c, 0, 64, 78
1, 105150, Note_off_c, 0, 25, 64
1, 105157, Control_c, 0, 64, 94
1, 105159, Note_on_c, 0, 37, 67
1, 105172, Control_c, 0, 64, 102
1, 105186, Control_c, 0, 64, 104
1, 105201, Control_c, 0, 64, 105
1, 105202, Note_off_c, 0, 80, 41
1, 105207, Note_off_c, 0, 37, 63
1, 105216, Control_c, 0, 64, 105
1, 105231, Control_c, 0, 64, 106
1, 105243, Note_on_c, 0, 68, 56
1, 105246, Control_c, 0, 64, 106
1, 105273, Note_off_c, 0, 68, 66
1, 105285, Note_on_c, 0, 77, 61
1, 105342, Control_c, 0, 64, 107
1, 105345, Note_on_c, 0, 80, 72
1, 105345, Note_off_c, 0, 77, 61
1, 105356, Control_c, 0, 64, 107
1, 105368, Note_off_c, 0, 80, 70
1, 105371, Control_c, 0, 64, 108
1, 105386, Control_c, 0, 64, 110
1, 105401, Control_c, 0, 64, 111
1, 105414, Note_on_c, 0, 89, 100
1, 105416, Control_c, 0, 64, 114
1, 105431, Control_c, 0, 64, 117
1, 105446, Note_off_c, 0, 89, 65
1, 105446, Control_c, 0, 64, 121
1, 105460, Control_c, 0, 64, 126
1, 105475, Control_c, 0, 64, 127
1, 105723, Note_on_c, 0, 49, 50
1, 105771, Note_off_c, 0, 49, 53
1, 105786, Note_on_c, 0, 56, 61
1, 105866, Note_on_c, 0, 61, 65
1, 105920, Note_on_c, 0, 65, 63
1, 105938, Note_off_c, 0, 61, 58
1, 105962, Note_off_c, 0, 65, 55
1, 105998, Note_on_c, 0, 68, 65
1, 106060, Note_off_c, 0, 56, 15
1, 106066, Note_off_c, 0, 68, 60
1, 106098, Note_on_c, 0, 77, 63
1, 106129, Note_off_c, 0, 77, 63
1, 106207, Note_on_c, 0, 85, 84
1, 106222, Note_on_c, 0, 49, 50
1, 106296, Note_off_c, 0, 49, 60
1, 106307, Note_on_c, 0, 56, 53
1, 106326, Note_off_c, 0, 85, 59
1, 106397, Note_on_c, 0, 61, 55
1, 106489, Note_off_c, 0, 61, 59
1, 106493, Note_on_c, 0, 65, 62
1, 106548, Note_off_c, 0, 65, 55
1, 106608, Note_on_c, 0, 68, 54
1, 106621, Note_off_c, 0, 56, 40
1, 106690, Note_on_c, 0, 77, 61
1, 106755, Note_on_c, 0, 80, 79
1, 106784, Note_off_c, 0, 68, 0
1, 106784, Note_on_c, 0, 68, 18
1, 106859, Note_off_c, 0, 77, 35
1, 106878, Note_on_c, 0, 49, 47
1, 106898, Control_c, 0, 64, 122
1, 106904, Note_off_c, 0, 80, 55
1, 106913, Control_c, 0, 64, 112
1, 106928, Control_c, 0, 64, 101
1, 106943, Control_c, 0, 64, 91
1, 106957, Control_c, 0, 64, 81
1, 106963, Note_on_c, 0, 56, 52
1, 106972, Control_c, 0, 64, 74
1, 106987, Control_c, 0, 64, 71
1, 107002, Control_c, 0, 64, 72
1, 107017, Control_c, 0, 64, 77
1, 107031, Note_on_c, 0, 61, 58
1, 107032, Control_c, 0, 64, 84
1, 107047, Control_c, 0, 64, 89
1, 107061, Note_off_c, 0, 68, 54
1, 107062, Control_c, 0, 64, 90
1, 107076, Control_c, 0, 64, 91
1, 107091, Control_c, 0, 64, 92
1, 107121, Control_c, 0, 64, 92
1, 107136, Control_c, 0, 64, 93
1, 107149, Note_off_c, 0, 56, 47
1, 107151, Control_c, 0, 64, 93
1, 107165, Control_c, 0, 64, 94
1, 107178, Note_on_c, 0, 65, 49
1, 107180, Control_c, 0, 64, 94
1, 107214, Note_off_c, 0, 49, 32
1, 107233, Note_on_c, 0, 73, 61
1, 107239, Note_off_c, 0, 65, 59
1, 107282, Note_on_c, 0, 77, 71
1, 107285, Control_c, 0, 64, 92
1, 107300, Note_off_c, 0, 61, 35
1, 107300, Control_c, 0, 64, 85
1, 107314, Control_c, 0, 64, 74
1, 107321, Note_off_c, 0, 73, 61
1, 107329, Control_c, 0, 64, 53
1, 107344, Control_c, 0, 64, 0
1, 107377, Note_on_c, 0, 49, 26
1, 107388, Control_c, 0, 64, 41
1, 107403, Control_c, 0, 64, 66
1, 107418, Control_c, 0, 64, 72
1, 107433, Control_c, 0, 64, 76
1, 107448, Note_on_c, 0, 60, 52
1, 107448, Control_c, 0, 64, 78
1, 107462, Control_c, 0, 64, 79
1, 107477, Control_c, 0, 64, 81
1, 107492, Control_c, 0, 64, 82
1, 107506, Control_c, 0, 64, 83
1, 107516, Note_off_c, 0, 77, 38
1, 107521, Control_c, 0, 64, 85
1, 107526, Note_on_c, 0, 61, 44
1, 107536, Control_c, 0, 64, 86
1, 107551, Control_c, 0, 64, 87
1, 107553, Note_off_c, 0, 49, 36
1, 107566, Control_c, 0, 64, 87
1, 107600, Note_off_c, 0, 60, 34
1, 107604, Note_on_c, 0, 63, 45
1, 107666, Note_on_c, 0, 68, 62
1, 107688, Note_off_c, 0, 63, 38
1, 107707, Control_c, 0, 64, 88
1, 107722, Note_on_c, 0, 75, 66
1, 107736, Control_c, 0, 64, 87
1, 107744, Note_off_c, 0, 61, 36
1, 107751, Control_c, 0, 64, 86
1, 107766, Control_c, 0, 64, 80
1, 107780, Control_c, 0, 64, 68
1, 107781, Note_on_c, 0, 49, 48
1, 107793, Note_off_c, 0, 68, 41
1, 107795, Control_c, 0, 64, 0
1, 107854, Control_c, 0, 64, 60
1, 107856, Note_on_c, 0, 59, 45
1, 107869, Control_c, 0, 64, 68
1, 107884, Control_c, 0, 64, 72
1, 107899, Control_c, 0, 64, 75
1, 107914, Control_c, 0, 64, 76
1, 107929, Control_c, 0, 64, 77
1, 107932, Note_on_c, 0, 61, 50
1, 107944, Control_c, 0, 64, 78
1, 107959, Control_c, 0, 64, 79
1, 107974, Control_c, 0, 64, 80
1, 107979, Note_off_c, 0, 49, 33
1, 107988, Control_c, 0, 64, 82
1, 107996, Note_off_c, 0, 59, 55
1, 108004, Control_c, 0, 64, 83
1, 108015, Note_off_c, 0, 75, 55
1, 108018, Control_c, 0, 64, 83
1, 108033, Control_c, 0, 64, 84
1, 108041, Note_on_c, 0, 65, 33
1, 108092, Note_off_c, 0, 65, 45
1, 108099, Note_on_c, 0, 68, 49
1, 108108, Control_c, 0, 64, 84
1, 108114, Note_off_c, 0, 61, 28
1, 108123, Control_c, 0, 64, 85
1, 108137, Control_c, 0, 64, 85
1, 108149, Note_on_c, 0, 77, 66
1, 108184, Note_off_c, 0, 68, 37
1, 108197, Control_c, 0, 64, 84
1, 108211, Control_c, 0, 64, 80
1, 108219, Note_on_c, 0, 49, 44
1, 108226, Control_c, 0, 64, 68
1, 108241, Control_c, 0, 64, 42
1, 108256, Control_c, 0, 64, 0
1, 108284, Note_on_c, 0, 58, 46
1, 108285, Control_c, 0, 64, 52
1, 108300, Control_c, 0, 64, 66
1, 108315, Control_c, 0, 64, 72
1, 108337, Control_c, 0, 64, 76
1, 108352, Control_c, 0, 64, 78
1, 108353, Note_off_c, 0, 58, 51
1, 108354, Note_on_c, 0, 61, 48
1, 108364, Note_off_c, 0, 77, 56
1, 108367, Control_c, 0, 64, 78
1, 108397, Control_c, 0, 64, 79
1, 108411, Control_c, 0, 64, 80
1, 108426, Control_c, 0, 64, 81
1, 108441, Control_c, 0, 64, 81
1, 108455, Note_off_c, 0, 49, 30
1, 108456, Control_c, 0, 64, 82
1, 108464, Note_on_c, 0, 66, 52
1, 108471, Control_c, 0, 64, 83
1, 108526, Note_on_c, 0, 70, 59
1, 108530, Control_c, 0, 64, 83
1, 108544, Control_c, 0, 64, 84
1, 108549, Note_off_c, 0, 61, 25
1, 108574, Control_c, 0, 64, 84
1, 108575, Note_on_c, 0, 78, 73
1, 108589, Control_c, 0, 64, 85
1, 108603, Control_c, 0, 64, 85
1, 108619, Note_off_c, 0, 70, 63
1, 108644, Note_on_c, 0, 49, 38
1, 108648, Control_c, 0, 64, 84
1, 108662, Control_c, 0, 64, 77
1, 108677, Control_c, 0, 64, 65
1, 108692, Control_c, 0, 64, 0
1, 108719, Note_on_c, 0, 57, 40
1, 108737, Control_c, 0, 64, 56
1, 108737, Note_off_c, 0, 49, 45
1, 108752, Control_c, 0, 64, 67
1, 108766, Note_off_c, 0, 66, 38
1, 108767, Control_c, 0, 64, 72
1, 108770, Note_on_c, 0, 64, 46
1, 108782, Control_c, 0, 64, 76
1, 108796, Control_c, 0, 64, 78
1, 108812, Control_c, 0, 64, 79
1, 108826, Control_c, 0, 64, 80
1, 108841, Control_c, 0, 64, 80
1, 108856, Control_c, 0, 64, 81
1, 108865, Note_off_c, 0, 64, 36
1, 108871, Control_c, 0, 64, 82
1, 108874, Note_on_c, 0, 67, 55
1, 108886, Control_c, 0, 64, 83
1, 108892, Note_off_c, 0, 78, 58
1, 108901, Control_c, 0, 64, 83
1, 108916, Control_c, 0, 64, 84
1, 108919, Note_off_c, 0, 57, 31
1, 108929, Note_off_c, 0, 67, 53
1, 108931, Control_c, 0, 64, 84
1, 108942, Note_on_c, 0, 73, 58
1, 108946, Control_c, 0, 64, 85
1, 108960, Control_c, 0, 64, 87
1, 108975, Control_c, 0, 64, 87
1, 108987, Note_on_c, 0, 79, 76
1, 109016, Note_on_c, 0, 49, 44
1, 109020, Control_c, 0, 64, 84
1, 109024, Note_off_c, 0, 73, 51
1, 109035, Control_c, 0, 64, 76
1, 109050, Control_c, 0, 64, 62
1, 109055, Note_off_c, 0, 49, 51
1, 109065, Control_c, 0, 64, 0
1, 109095, Note_on_c, 0, 56, 49
1, 109116, Control_c, 0, 64, 65
1, 109131, Control_c, 0, 64, 73
1, 109146, Control_c, 0, 64, 79
1, 109160, Control_c, 0, 64, 83
1, 109175, Control_c, 0, 64, 83
1, 109180, Note_on_c, 0, 65, 52
1, 109190, Note_off_c, 0, 79, 58
1, 109190, Control_c, 0, 64, 84
1, 109205, Control_c, 0, 64, 84
1, 109220, Control_c, 0, 64, 85
1, 109226, Note_off_c, 0, 65, 61
1, 109235, Control_c, 0, 64, 86
1, 109250, Control_c, 0, 64, 86
1, 109279, Note_on_c, 0, 68, 51
1, 109324, Control_c, 0, 64, 87
1, 109339, Note_on_c, 0, 73, 61
1, 109348, Note_off_c, 0, 68, 40
1, 109369, Note_off_c, 0, 56, 21
1, 109381, Note_on_c, 0, 80, 79
1, 109383, Control_c, 0, 64, 87
1, 109398, Control_c, 0, 64, 88
1, 109413, Control_c, 0, 64, 89
1, 109415, Note_off_c, 0, 73, 56
1, 109417, Note_on_c, 0, 49, 53
1, 109457, Control_c, 0, 64, 87
1, 109472, Control_c, 0, 64, 77
1, 109486, Control_c, 0, 64, 63
1, 109493, Note_on_c, 0, 55, 42
1, 109496, Note_off_c, 0, 49, 45
1, 109501, Control_c, 0, 64, 0
1, 109519, Note_on_c, 0, 58, 49
1, 109531, Control_c, 0, 64, 53
1, 109546, Control_c, 0, 64, 67
1, 109560, Control_c, 0, 64, 76
1, 109568, Note_on_c, 0, 64, 59
1, 109575, Control_c, 0, 64, 82
1, 109590, Control_c, 0, 64, 84
1, 109606, Control_c, 0, 64, 85
1, 109621, Control_c, 0, 64, 86
1, 109636, Control_c, 0, 64, 86
1, 109637, Note_on_c, 0, 67, 62
1, 109643, Note_off_c, 0, 80, 53
1, 109650, Control_c, 0, 64, 87
1, 109658, Note_off_c, 0, 64, 56
1, 109680, Control_c, 0, 64, 87
1, 109683, Note_off_c, 0, 67, 55
1, 109686, Note_on_c, 0, 73, 59
1, 109702, Note_off_c, 0, 58, 33
1, 109709, Control_c, 0, 64, 88
1, 109724, Control_c, 0, 64, 88
1, 109726, Note_off_c, 0, 55, 41
1, 109729, Note_on_c, 0, 76, 72
1, 109739, Control_c, 0, 64, 89
1, 109754, Control_c, 0, 64, 90
1, 109773, Note_off_c, 0, 73, 61
1, 109777, Note_on_c, 0, 82, 85
1, 109804, Note_off_c, 0, 76, 64
1, 109813, Control_c, 0, 64, 87
1, 109822, Note_on_c, 0, 49, 55
1, 109836, Control_c, 0, 64, 78
1, 109851, Control_c, 0, 64, 61
1, 109865, Control_c, 0, 64, 0
1, 109891, Note_on_c, 0, 54, 50
1, 109909, Control_c, 0, 64, 65
1, 109915, Note_on_c, 0, 57, 58
1, 109924, Control_c, 0, 64, 73
1, 109939, Control_c, 0, 64, 80
1, 109954, Control_c, 0, 64, 85
1, 109969, Control_c, 0, 64, 86
1, 109971, Note_on_c, 0, 63, 62
1, 109983, Control_c, 0, 64, 86
1, 109994, Note_off_c, 0, 57, 59
1, 109998, Control_c, 0, 64, 87
1, 110010, Note_off_c, 0, 82, 62
1, 110013, Control_c, 0, 64, 88
1, 110016, Note_off_c, 0, 49, 36
1, 110028, Control_c, 0, 64, 89
1, 110031, Note_on_c, 0, 69, 65
1, 110043, Control_c, 0, 64, 89
1, 110070, Note_off_c, 0, 54, 40
1, 110072, Control_c, 0, 64, 90
1, 110080, Note_on_c, 0, 75, 69
1, 110081, Note_off_c, 0, 69, 62
1, 110117, Control_c, 0, 64, 90
1, 110124, Note_on_c, 0, 78, 73
1, 110132, Control_c, 0, 64, 91
1, 110147, Control_c, 0, 64, 93
1, 110148, Note_off_c, 0, 63, 55
1, 110162, Control_c, 0, 64, 94
1, 110174, Note_off_c, 0, 75, 59
1, 110189, Note_on_c, 0, 84, 83
1, 110200, Note_off_c, 0, 78, 63
1, 110206, Control_c, 0, 64, 92
1, 110211, Note_on_c, 0, 49, 49
1, 110221, Control_c, 0, 64, 83
1, 110236, Control_c, 0, 64, 66
1, 110242, Note_on_c, 0, 53, 52
1, 110250, Control_c, 0, 64, 0
1, 110269, Note_on_c, 0, 56, 54
1, 110295, Control_c, 0, 64, 56
1, 110309, Control_c, 0, 64, 69
1, 110324, Control_c, 0, 64, 78
1, 110334, Note_on_c, 0, 61, 63
1, 110339, Control_c, 0, 64, 83
1, 110342, Note_off_c, 0, 84, 60
1, 110354, Control_c, 0, 64, 85
1, 110369, Control_c, 0, 64, 86
1, 110383, Control_c, 0, 64, 88
1, 110399, Control_c, 0, 64, 89
1, 110414, Control_c, 0, 64, 90
1, 110418, Note_on_c, 0, 68, 70
1, 110429, Control_c, 0, 64, 92
1, 110444, Control_c, 0, 64, 92
1, 110459, Control_c, 0, 64, 93
1, 110461, Note_off_c, 0, 68, 62
1, 110473, Control_c, 0, 64, 94
1, 110475, Note_on_c, 0, 77, 60
1, 110488, Control_c, 0, 64, 95
1, 110503, Control_c, 0, 64, 96
1, 110510, Note_on_c, 0, 80, 76
1, 110517, Note_off_c, 0, 49, 37
1, 110518, Control_c, 0, 64, 100
1, 110532, Control_c, 0, 64, 102
1, 110547, Control_c, 0, 64, 103
1, 110563, Note_off_c, 0, 53, 30
1, 110564, Note_off_c, 0, 56, 28
1, 110567, Note_off_c, 0, 77, 57
1, 110568, Note_on_c, 0, 85, 86
1, 110585, Note_off_c, 0, 61, 52
1, 110585, Control_c, 0, 64, 100
1, 110600, Control_c, 0, 64, 89
1, 110612, Note_off_c, 0, 80, 62
1, 110614, Control_c, 0, 64, 72
1, 110629, Control_c, 0, 64, 0
1, 110631, Note_on_c, 0, 49, 56
1, 110678, Note_on_c, 0, 51, 38
1, 110688, Control_c, 0, 64, 67
1, 110698, Note_on_c, 0, 56, 58
1, 110703, Control_c, 0, 64, 76
1, 110711, Note_off_c, 0, 49, 47
1, 110718, Control_c, 0, 64, 86
1, 110732, Control_c, 0, 64, 89
1, 110743, Note_on_c, 0, 60, 56
1, 110747, Control_c, 0, 64, 90
1, 110762, Control_c, 0, 64, 91
1, 110777, Control_c, 0, 64, 93
1, 110792, Control_c, 0, 64, 95
1, 110801, Note_on_c, 0, 72, 62
1, 110807, Note_off_c, 0, 85, 61
1, 110807, Control_c, 0, 64, 97
1, 110821, Control_c, 0, 64, 98
1, 110836, Control_c, 0, 64, 100
1, 110842, Note_off_c, 0, 72, 59
1, 110850, Control_c, 0, 64, 102
1, 110853, Note_on_c, 0, 78, 67
1, 110865, Control_c, 0, 64, 105
1, 110880, Control_c, 0, 64, 111
1, 110890, Note_off_c, 0, 51, 37
1, 110895, Control_c, 0, 64, 115
1, 110900, Note_on_c, 0, 80, 79
1, 110910, Control_c, 0, 64, 116
1, 110935, Note_off_c, 0, 78, 60
1, 110940, Control_c, 0, 64, 111
1, 110955, Note_on_c, 0, 87, 88
1, 110955, Control_c, 0, 64, 97
1, 110970, Control_c, 0, 64, 78
1, 110971, Note_off_c, 0, 60, 35
1, 110984, Control_c, 0, 64, 44
1, 110987, Note_off_c, 0, 56, 45
1, 110987, Note_off_c, 0, 80, 61
1, 110999, Control_c, 0, 64, 0
1, 111002, Note_on_c, 0, 49, 48
1, 111029, Control_c, 0, 64, 34
1, 111030, Note_on_c, 0, 53, 51
1, 111044, Control_c, 0, 64, 69
1, 111058, Control_c, 0, 64, 81
1, 111071, Note_on_c, 0, 56, 43
1, 111073, Control_c, 0, 64, 92
1, 111083, Note_off_c, 0, 87, 61
1, 111088, Control_c, 0, 64, 98
1, 111095, Note_off_c, 0, 49, 0
1, 111103, Control_c, 0, 64, 99
1, 111108, Note_off_c, 0, 53, 62
1, 111118, Control_c, 0, 64, 101
1, 111122, Note_on_c, 0, 61, 63
1, 111129, Note_on_c, 0, 49, 20
1, 111132, Control_c, 0, 64, 102
1, 111143, Note_on_c, 0, 73, 64
1, 111147, Control_c, 0, 64, 104
1, 111162, Control_c, 0, 64, 104
1, 111184, Note_off_c, 0, 73, 62
1, 111197, Note_on_c, 0, 77, 58
1, 111207, Control_c, 0, 64, 105
1, 111221, Control_c, 0, 64, 105
1, 111236, Control_c, 0, 64, 106
1, 111241, Note_on_c, 0, 80, 79
1, 111244, Note_off_c, 0, 77, 60
1, 111251, Control_c, 0, 64, 107
1, 111280, Note_off_c, 0, 80, 63
1, 111295, Control_c, 0, 64, 103
1, 111299, Note_off_c, 0, 49, 39
1, 111310, Control_c, 0, 64, 91
1, 111331, Note_on_c, 0, 89, 83
1, 111333, Control_c, 0, 64, 72
1, 111348, Control_c, 0, 64, 0
1, 111392, Control_c, 0, 64, 42
1, 111407, Control_c, 0, 64, 69
1, 111419, Note_off_c, 0, 61, 33
1, 111422, Control_c, 0, 64, 79
1, 111424, Note_on_c, 0, 49, 50
1, 111436, Control_c, 0, 64, 87
1, 111451, Control_c, 0, 64, 89
1, 111464, Note_off_c, 0, 56, 39
1, 111466, Control_c, 0, 64, 90
1, 111480, Control_c, 0, 64, 91
1, 111495, Control_c, 0, 64, 92
1, 111510, Control_c, 0, 64, 93
1, 111514, Note_on_c, 0, 54, 45
1, 111525, Control_c, 0, 64, 93
1, 111528, Note_off_c, 0, 89, 42
1, 111540, Control_c, 0, 64, 94
1, 111554, Control_c, 0, 64, 94
1, 111564, Note_on_c, 0, 56, 51
1, 111568, Note_off_c, 0, 54, 49
1, 111596, Note_on_c, 0, 63, 52
1, 111599, Note_off_c, 0, 49, 29
1, 111599, Control_c, 0, 64, 95
1, 111614, Control_c, 0, 64, 95
1, 111619, Note_on_c, 0, 75, 49
1, 111619, Note_off_c, 0, 56, 51
1, 111628, Control_c, 0, 64, 96
1, 111643, Control_c, 0, 64, 98
1, 111658, Control_c, 0, 64, 102
1, 111659, Note_off_c, 0, 75, 65
1, 111668, Note_on_c, 0, 80, 67
1, 111673, Control_c, 0, 64, 106
1, 111688, Control_c, 0, 64, 107
1, 111695, Note_off_c, 0, 63, 37
1, 111724, Note_on_c, 0, 84, 69
1, 111733, Control_c, 0, 64, 105
1, 111747, Control_c, 0, 64, 99
1, 111762, Control_c, 0, 64, 85
1, 111777, Control_c, 0, 64, 69
1, 111781, Note_off_c, 0, 80, 58
1, 111792, Control_c, 0, 64, 0
1, 111792, Note_on_c, 0, 90, 78
1, 111836, Control_c, 0, 64, 54
1, 111842, Note_off_c, 0, 84, 57
1, 111851, Control_c, 0, 64, 68
1, 111866, Control_c, 0, 64, 75
1, 111873, Note_on_c, 0, 49, 30
1, 111880, Control_c, 0, 64, 83
1, 111895, Control_c, 0, 64, 87
1, 111910, Note_off_c, 0, 49, 51
1, 111910, Control_c, 0, 64, 88
1, 111926, Note_off_c, 0, 90, 65
1, 111926, Control_c, 0, 64, 89
1, 111933, Note_on_c, 0, 56, 48
1, 111941, Control_c, 0, 64, 90
1, 111955, Control_c, 0, 64, 91
1, 111970, Control_c, 0, 64, 92
1, 111980, Note_on_c, 0, 60, 51
1, 112061, Note_on_c, 0, 66, 52
1, 112117, Note_off_c, 0, 60, 35
1, 112126, Note_on_c, 0, 72, 42
1, 112129, Note_off_c, 0, 66, 47
1, 112165, Note_off_c, 0, 72, 57
1, 112174, Note_on_c, 0, 78, 59
1, 112230, Note_off_c, 0, 56, 22
1, 112246, Note_on_c, 0, 80, 63
1, 112254, Note_off_c, 0, 78, 56
1, 112260, Control_c, 0, 64, 91
1, 112275, Control_c, 0, 64, 85
1, 112290, Control_c, 0, 64, 72
1, 112304, Control_c, 0, 64, 26
1, 112307, Note_on_c, 0, 87, 67
1, 112319, Control_c, 0, 64, 0
1, 112344, Note_on_c, 0, 49, 44
1, 112349, Note_off_c, 0, 80, 58
1, 112349, Control_c, 0, 64, 36
1, 112364, Control_c, 0, 64, 66
1, 112378, Control_c, 0, 64, 74
1, 112387, Note_off_c, 0, 49, 61
1, 112393, Control_c, 0, 64, 81
1, 112408, Control_c, 0, 64, 86
1, 112423, Control_c, 0, 64, 87
1, 112429, Note_off_c, 0, 87, 64
1, 112430, Note_on_c, 0, 56, 49
1, 112438, Control_c, 0, 64, 89
1, 112452, Control_c, 0, 64, 90
1, 112467, Control_c, 0, 64, 91
1, 112482, Control_c, 0, 64, 92
1, 112496, Control_c, 0, 64, 92
1, 112511, Control_c, 0, 64, 93
1, 112526, Control_c, 0, 64, 94
1, 112529, Note_on_c, 0, 61, 44
1, 112541, Control_c, 0, 64, 94
1, 112556, Control_c, 0, 64, 95
1, 112600, Control_c, 0, 64, 95
1, 112611, Note_on_c, 0, 65, 38
1, 112645, Note_on_c, 0, 68, 51
1, 112676, Note_off_c, 0, 68, 60
1, 112709, Note_on_c, 0, 77, 53
1, 112770, Note_off_c, 0, 77, 55
1, 112785, Note_on_c, 0, 80, 54
1, 112832, Note_off_c, 0, 80, 60
1, 112934, Note_on_c, 0, 89, 80
1, 112949, Control_c, 0, 64, 96
1, 112979, Control_c, 0, 64, 97
1, 112986, Note_off_c, 0, 89, 65
1, 112994, Control_c, 0, 64, 97
1, 113008, Control_c, 0, 64, 99
1, 113023, Control_c, 0, 64, 99
1, 113038, Control_c, 0, 64, 100
1, 113053, Control_c, 0, 64, 101
1, 113083, Control_c, 0, 64, 101
1, 113100, Note_off_c, 0, 65, 39
1, 113105, Note_off_c, 0, 61, 37
1, 113113, Control_c, 0, 64, 102
1, 113144, Note_off_c, 0, 56, 34
1, 113170, Note_on_c, 0, 53, 42
1, 113233, Note_on_c, 0, 61, 49
1, 113238, Note_off_c, 0, 53, 43
1, 113330, Note_on_c, 0, 68, 57
1, 113342, Note_off_c, 0, 61, 53
1, 113397, Note_off_c, 0, 68, 56
1, 113470, Note_on_c, 0, 73, 50
1, 113533, Note_on_c, 0, 80, 64
1, 113602, Note_on_c, 0, 85, 73
1, 113623, Note_off_c, 0, 80, 62
1, 113632, Note_on_c, 0, 51, 54
1, 113669, Control_c, 0, 64, 101
1, 113684, Control_c, 0, 64, 96
1, 113698, Control_c, 0, 64, 88
1, 113708, Note_off_c, 0, 51, 61
1, 113713, Control_c, 0, 64, 80
1, 113728, Control_c, 0, 64, 74
1, 113729, Note_on_c, 0, 60, 55
1, 113743, Control_c, 0, 64, 73
1, 113757, Control_c, 0, 64, 74
1, 113759, Note_off_c, 0, 85, 59
1, 113772, Control_c, 0, 64, 79
1, 113787, Control_c, 0, 64, 85
1, 113801, Note_on_c, 0, 68, 66
1, 113802, Control_c, 0, 64, 89
1, 113817, Note_off_c, 0, 73, 53
1, 113817, Control_c, 0, 64, 90
1, 113831, Control_c, 0, 64, 90
1, 113837, Note_off_c, 0, 68, 61
1, 113846, Control_c, 0, 64, 91
1, 113852, Note_off_c, 0, 60, 58
1, 113861, Control_c, 0, 64, 91
1, 113876, Control_c, 0, 64, 92
1, 113888, Note_on_c, 0, 72, 66
1, 113891, Control_c, 0, 64, 94
1, 113906, Control_c, 0, 64, 95
1, 113921, Control_c, 0, 64, 96
1, 113950, Control_c, 0, 64, 95
1, 113952, Note_on_c, 0, 80, 77
1, 113962, Note_off_c, 0, 72, 62
1, 113965, Control_c, 0, 64, 86
1, 113980, Control_c, 0, 64, 70
1, 113995, Control_c, 0, 64, 0
1, 114007, Note_on_c, 0, 84, 85
1, 114034, Note_on_c, 0, 49, 57
1, 114042, Note_off_c, 0, 80, 63
1, 114054, Control_c, 0, 64, 64
1, 114068, Control_c, 0, 64, 74
1, 114074, Note_off_c, 0, 49, 64
1, 114083, Control_c, 0, 64, 82
1, 114098, Control_c, 0, 64, 86
1, 114112, Note_on_c, 0, 58, 62
1, 114113, Control_c, 0, 64, 88
1, 114128, Control_c, 0, 64, 89
1, 114143, Control_c, 0, 64, 90
1, 114155, Note_off_c, 0, 84, 53
1, 114157, Control_c, 0, 64, 92
1, 114161, Note_off_c, 0, 58, 58
1, 114172, Control_c, 0, 64, 94
1, 114187, Control_c, 0, 64, 96
1, 114190, Note_on_c, 0, 68, 66
1, 114202, Control_c, 0, 64, 98
1, 114216, Control_c, 0, 64, 101
1, 114223, Note_off_c, 0, 68, 62
1, 114231, Control_c, 0, 64, 105
1, 114246, Control_c, 0, 64, 108
1, 114261, Control_c, 0, 64, 110
1, 114275, Note_on_c, 0, 70, 57
1, 114275, Control_c, 0, 64, 111
1, 114343, Note_on_c, 0, 80, 71
1, 114343, Control_c, 0, 64, 107
1, 114356, Note_off_c, 0, 70, 59
1, 114357, Control_c, 0, 64, 94
1, 114372, Control_c, 0, 64, 78
1, 114387, Control_c, 0, 64, 59
1, 114398, Note_on_c, 0, 82, 80
1, 114403, Control_c, 0, 64, 0
1, 114424, Note_on_c, 0, 48, 48
1, 114447, Control_c, 0, 64, 67
1, 114450, Note_off_c, 0, 80, 59
1, 114461, Note_off_c, 0, 48, 54
1, 114462, Control_c, 0, 64, 75
1, 114477, Control_c, 0, 64, 83
1, 114492, Control_c, 0, 64, 86
1, 114506, Control_c, 0, 64, 87
1, 114514, Note_on_c, 0, 56, 53
1, 114521, Control_c, 0, 64, 88
1, 114536, Control_c, 0, 64, 91
1, 114540, Note_off_c, 0, 56, 62
1, 114551, Control_c, 0, 64, 94
1, 114554, Note_off_c, 0, 82, 62
1, 114566, Control_c, 0, 64, 98
1, 114580, Control_c, 0, 64, 100
1, 114595, Control_c, 0, 64, 102
1, 114610, Note_on_c, 0, 68, 65
1, 114610, Control_c, 0, 64, 103
1, 114625, Control_c, 0, 64, 104
1, 114640, Control_c, 0, 64, 106
1, 114648, Note_off_c, 0, 68, 57
1, 114654, Control_c, 0, 64, 108
1, 114669, Control_c, 0, 64, 110
1, 114684, Control_c, 0, 64, 114
1, 114699, Control_c, 0, 64, 117
1, 114714, Control_c, 0, 64, 119
1, 114715, Note_on_c, 0, 75, 43
1, 114728, Control_c, 0, 64, 119
1, 114758, Control_c, 0, 64, 117
1, 114761, Note_on_c, 0, 80, 65
1, 114773, Control_c, 0, 64, 106
1, 114788, Control_c, 0, 64, 90
1, 114803, Control_c, 0, 64, 71
1, 114803, Note_on_c, 0, 87, 79
1, 114818, Control_c, 0, 64, 0
1, 114826, Note_on_c, 0, 53, 50
1, 114877, Control_c, 0, 64, 65
1, 114891, Control_c, 0, 64, 73
1, 114906, Control_c, 0, 64, 81
1, 114920, Control_c, 0, 64, 87
1, 114921, Note_on_c, 0, 61, 56
1, 114935, Control_c, 0, 64, 89
1, 114950, Control_c, 0, 64, 91
1, 114964, Control_c, 0, 64, 94
1, 114974, Note_off_c, 0, 75, 46
1, 114979, Control_c, 0, 64, 96
1, 114985, Note_on_c, 0, 68, 53
1, 114987, Note_off_c, 0, 53, 31
1, 114994, Control_c, 0, 64, 99
1, 115004, Note_off_c, 0, 61, 50
1, 115009, Control_c, 0, 64, 101
1, 115024, Control_c, 0, 64, 103
1, 115027, Note_off_c, 0, 87, 48
1, 115036, Note_off_c, 0, 68, 55
1, 115037, Note_off_c, 0, 80, 59
1, 115038, Control_c, 0, 64, 104
1, 115053, Control_c, 0, 64, 105
1, 115076, Control_c, 0, 64, 107
1, 115091, Control_c, 0, 64, 108
1, 115105, Control_c, 0, 64, 111
1, 115116, Note_on_c, 0, 73, 49
1, 115120, Control_c, 0, 64, 112
1, 115135, Control_c, 0, 64, 113
1, 115178, Note_on_c, 0, 80, 58
1, 115179, Control_c, 0, 64, 108
1, 115195, Control_c, 0, 64, 97
1, 115210, Control_c, 0, 64, 78
1, 115211, Note_off_c, 0, 73, 0
1, 115225, Control_c, 0, 64, 57
1, 115228, Note_on_c, 0, 51, 46
1, 115228, Note_on_c, 0, 85, 71
1, 115240, Control_c, 0, 64, 0
1, 115248, Poly_aftertouch_c, 0, 73, 127
1, 115250, Note_off_c, 0, 80, 62
1, 115274, Note_off_c, 0, 51, 60
1, 115284, Control_c, 0, 64, 64
1, 115299, Control_c, 0, 64, 71
1, 115301, Note_on_c, 0, 60, 44
1, 115314, Control_c, 0, 64, 78
1, 115328, Control_c, 0, 64, 80
1, 115328, Control_c, 0, 67, 10
1, 115343, Control_c, 0, 64, 81
1, 115343, Control_c, 0, 67, 13
1, 115358, Control_c, 0, 64, 83
1, 115358, Control_c, 0, 67, 18
1, 115373, Control_c, 0, 64, 85
1, 115373, Control_c, 0, 67, 24
1, 115388, Control_c, 0, 64, 87
1, 115388, Control_c, 0, 67, 33
1, 115395, Note_on_c, 0, 68, 53
1, 115402, Control_c, 0, 64, 88
1, 115402, Control_c, 0, 67, 43
1, 115416, Note_off_c, 0, 60, 52
1, 115417, Control_c, 0, 64, 89
1, 115417, Control_c, 0, 67, 55
1, 115419, Note_off_c, 0, 85, 49
1, 115426, Note_off_c, 0, 68, 55
1, 115428, Poly_aftertouch_c, 0, 73, 0
1, 115432, Control_c, 0, 64, 89
1, 115432, Control_c, 0, 67, 64
1, 115447, Control_c, 0, 64, 90
1, 115447, Control_c, 0, 67, 72
1, 115462, Control_c, 0, 64, 90
1, 115462, Control_c, 0, 67, 77
1, 115477, Control_c, 0, 67, 81
1, 115492, Control_c, 0, 64, 91
1, 115492, Control_c, 0, 67, 84
1, 115506, Control_c, 0, 64, 92
1, 115506, Control_c, 0, 67, 87
1, 115513, Note_on_c, 0, 72, 51
1, 115521, Control_c, 0, 64, 93
1, 115521, Control_c, 0, 67, 91
1, 115536, Control_c, 0, 64, 93
1, 115536, Control_c, 0, 67, 95
1, 115551, Control_c, 0, 64, 94
1, 115551, Control_c, 0, 67, 99
1, 115566, Control_c, 0, 67, 103
1, 115578, Note_on_c, 0, 80, 61
1, 115581, Control_c, 0, 64, 93
1, 115581, Control_c, 0, 67, 106
1, 115584, Note_off_c, 0, 72, 59
1, 115595, Control_c, 0, 64, 90
1, 115595, Control_c, 0, 67, 108
1, 115610, Control_c, 0, 64, 81
1, 115610, Control_c, 0, 67, 112
1, 115617, Note_on_c, 0, 49, 53
1, 115625, Control_c, 0, 64, 68
1, 115625, Control_c, 0, 67, 116
1, 115626, Note_on_c, 0, 84, 69
1, 115639, Control_c, 0, 64, 0
1, 115639, Control_c, 0, 67, 120
1, 115650, Note_off_c, 0, 49, 55
1, 115654, Control_c, 0, 67, 124
1, 115658, Note_off_c, 0, 80, 60
1, 115670, Control_c, 0, 64, 44
1, 115670, Control_c, 0, 67, 127
1, 115685, Control_c, 0, 64, 66
1, 115685, Control_c, 0, 67, 127
1, 115700, Control_c, 0, 64, 72
1, 115711, Note_on_c, 0, 58, 48
1, 115714, Control_c, 0, 64, 78
1, 115729, Control_c, 0, 64, 82
1, 115744, Control_c, 0, 64, 83
1, 115757, Note_off_c, 0, 58, 61
1, 115759, Control_c, 0, 64, 84
1, 115774, Control_c, 0, 64, 84
1, 115788, Control_c, 0, 64, 85
1, 115799, Note_off_c, 0, 84, 47
1, 115801, Note_on_c, 0, 68, 64
1, 115803, Control_c, 0, 64, 85
1, 115825, Control_c, 0, 64, 86
1, 115833, Note_off_c, 0, 68, 60
1, 115840, Control_c, 0, 64, 86
1, 115855, Control_c, 0, 64, 87
1, 115885, Control_c, 0, 64, 87
1, 115938, Note_on_c, 0, 70, 47
1, 116013, Note_on_c, 0, 80, 64
1, 116019, Control_c, 0, 64, 86
1, 116034, Control_c, 0, 64, 80
1, 116040, Note_off_c, 0, 70, 38
1, 116049, Control_c, 0, 64, 68
1, 116064, Control_c, 0, 64, 0
1, 116067, Note_on_c, 0, 48, 51
1, 116074, Note_on_c, 0, 82, 65
1, 116095, Note_off_c, 0, 48, 62
1, 116101, Note_off_c, 0, 80, 56
1, 116108, Control_c, 0, 64, 56
1, 116123, Control_c, 0, 64, 68
1, 116138, Control_c, 0, 64, 75
1, 116152, Control_c, 0, 64, 81
1, 116167, Control_c, 0, 64, 83
1, 116181, Note_on_c, 0, 56, 44
1, 116197, Control_c, 0, 64, 84
1, 116209, Note_off_c, 0, 56, 58
1, 116226, Control_c, 0, 64, 84
1, 116241, Control_c, 0, 64, 85
1, 116256, Control_c, 0, 64, 87
1, 116270, Control_c, 0, 64, 88
1, 116285, Note_on_c, 0, 68, 52
1, 116285, Control_c, 0, 64, 89
1, 116300, Control_c, 0, 64, 89
1, 116311, Note_off_c, 0, 68, 55
1, 116315, Control_c, 0, 64, 90
1, 116315, Control_c, 0, 67, 124
1, 116330, Control_c, 0, 64, 90
1, 116330, Control_c, 0, 67, 119
1, 116344, Control_c, 0, 64, 91
1, 116344, Control_c, 0, 67, 114
1, 116359, Control_c, 0, 67, 110
1, 116374, Control_c, 0, 64, 91
1, 116374, Control_c, 0, 67, 107
1, 116389, Control_c, 0, 64, 92
1, 116389, Control_c, 0, 67, 104
1, 116404, Control_c, 0, 67, 102
1, 116418, Control_c, 0, 67, 101
1, 116430, Note_off_c, 0, 82, 33
1, 116433, Control_c, 0, 64, 92
1, 116433, Control_c, 0, 67, 99
1, 116448, Control_c, 0, 67, 97
1, 116462, Control_c, 0, 67, 93
1, 116477, Control_c, 0, 67, 90
1, 116481, Note_on_c, 0, 68, 41
1, 116492, Control_c, 0, 67, 87
1, 116507, Control_c, 0, 67, 84
1, 116522, Control_c, 0, 64, 93
1, 116522, Control_c, 0, 67, 81
1, 116536, Control_c, 0, 67, 79
1, 116551, Control_c, 0, 67, 77
1, 116556, Note_on_c, 0, 80, 66
1, 116574, Control_c, 0, 67, 75
1, 116589, Control_c, 0, 67, 72
1, 116597, Note_off_c, 0, 68, 35
1, 116603, Control_c, 0, 67, 69
1, 116609, Note_on_c, 0, 52, 52
1, 116618, Control_c, 0, 64, 89
1, 116618, Control_c, 0, 67, 66
1, 116633, Control_c, 0, 64, 83
1, 116633, Control_c, 0, 67, 61
1, 116648, Control_c, 0, 64, 72
1, 116648, Control_c, 0, 67, 56
1, 116663, Control_c, 0, 64, 66
1, 116663, Control_c, 0, 67, 51
1, 116666, Note_off_c, 0, 52, 53
1, 116677, Control_c, 0, 64, 65
1, 116677, Control_c, 0, 67, 47
1, 116692, Control_c, 0, 64, 69
1, 116692, Control_c, 0, 67, 44
1, 116707, Control_c, 0, 64, 74
1, 116707, Control_c, 0, 67, 42
1, 116722, Control_c, 0, 64, 80
1, 116722, Control_c, 0, 67, 39
1, 116737, Control_c, 0, 64, 85
1, 116737, Control_c, 0, 67, 35
1, 116740, Note_on_c, 0, 61, 52
1, 116751, Control_c, 0, 64, 87
1, 116751, Control_c, 0, 67, 31
1, 116766, Control_c, 0, 64, 87
1, 116766, Control_c, 0, 67, 28
1, 116781, Control_c, 0, 67, 25
1, 116797, Control_c, 0, 64, 88
1, 116797, Control_c, 0, 67, 22
1, 116812, Control_c, 0, 64, 88
1, 116812, Control_c, 0, 67, 20
1, 116827, Control_c, 0, 64, 89
1, 116827, Control_c, 0, 67, 18
1, 116839, Note_on_c, 0, 68, 45
1, 116842, Control_c, 0, 64, 89
1, 116842, Control_c, 0, 67, 17
1, 116847, Note_off_c, 0, 61, 48
1, 116856, Control_c, 0, 64, 90
1, 116856, Control_c, 0, 67, 16
1, 116871, Control_c, 0, 64, 91
1, 116871, Control_c, 0, 67, 15
1, 116886, Control_c, 0, 67, 13
1, 116893, Note_off_c, 0, 80, 57
1, 116900, Control_c, 0, 64, 91
1, 116900, Control_c, 0, 67, 10
1, 116915, Control_c, 0, 67, 0
1, 116918, Note_off_c, 0, 68, 38
1, 116973, Note_on_c, 0, 73, 45
1, 117030, Note_on_c, 0, 80, 60
1, 117048, Control_c, 0, 64, 92
1, 117092, Control_c, 0, 64, 91
1, 117095, Note_off_c, 0, 73, 0
1, 117097, Note_on_c, 0, 85, 72
1, 117107, Control_c, 0, 64, 87
1, 117122, Control_c, 0, 64, 77
1, 117131, Note_on_c, 0, 51, 50
1, 117133, Poly_aftertouch_c, 0, 73, 127
1, 117137, Note_off_c, 0, 80, 57
1, 117137, Control_c, 0, 64, 65
1, 117152, Control_c, 0, 64, 39
1, 117166, Control_c, 0, 64, 55
1, 117181, Control_c, 0, 64, 65
1, 117196, Control_c, 0, 64, 70
1, 117200, Note_off_c, 0, 51, 59
1, 117211, Control_c, 0, 64, 76
1, 117226, Control_c, 0, 64, 81
1, 117235, Note_on_c, 0, 59, 48
1, 117240, Control_c, 0, 64, 83
1, 117255, Control_c, 0, 64, 84
1, 117270, Control_c, 0, 64, 85
1, 117274, Note_off_c, 0, 85, 56
1, 117284, Control_c, 0, 64, 86
1, 117299, Control_c, 0, 64, 87
1, 117305, Poly_aftertouch_c, 0, 73, 0
1, 117310, Note_on_c, 0, 68, 53
1, 117319, Note_off_c, 0, 59, 51
1, 117322, Control_c, 0, 64, 88
1, 117337, Control_c, 0, 64, 89
1, 117346, Note_off_c, 0, 68, 56
1, 117366, Control_c, 0, 64, 89
1, 117396, Control_c, 0, 64, 90
1, 117435, Note_on_c, 0, 71, 58
1, 117455, Control_c, 0, 64, 90
1, 117504, Note_on_c, 0, 80, 72
1, 117521, Note_off_c, 0, 71, 57
1, 117558, Note_on_c, 0, 83, 78
1, 117568, Note_on_c, 0, 49, 61
1, 117573, Control_c, 0, 64, 89
1, 117589, Control_c, 0, 64, 82
1, 117604, Control_c, 0, 64, 67
1, 117619, Control_c, 0, 64, 0
1, 117630, Note_off_c, 0, 49, 56
1, 117649, Control_c, 0, 64, 47
1, 117653, Note_off_c, 0, 80, 39
1, 117663, Control_c, 0, 64, 66
1, 117668, Note_on_c, 0, 58, 54
1, 117678, Control_c, 0, 64, 72
1, 117693, Control_c, 0, 64, 79
1, 117708, Control_c, 0, 64, 85
1, 117713, Note_off_c, 0, 83, 58
1, 117722, Control_c, 0, 64, 86
1, 117734, Note_off_c, 0, 58, 61
1, 117737, Control_c, 0, 64, 87
1, 117751, Note_on_c, 0, 68, 65
1, 117752, Control_c, 0, 64, 87
1, 117774, Note_off_c, 0, 68, 61
1, 117782, Control_c, 0, 64, 88
1, 117796, Control_c, 0, 64, 89
1, 117845, Note_on_c, 0, 70, 67
1, 117856, Control_c, 0, 64, 89
1, 117909, Note_off_c, 0, 70, 61
1, 117911, Note_on_c, 0, 80, 68
1, 117915, Control_c, 0, 64, 90
1, 117959, Note_on_c, 0, 82, 85
1, 117975, Control_c, 0, 64, 88
1, 117983, Note_on_c, 0, 47, 58
1, 117989, Control_c, 0, 64, 78
1, 118004, Control_c, 0, 64, 66
1, 118012, Note_off_c, 0, 47, 56
1, 118019, Note_off_c, 0, 80, 55
1, 118019, Control_c, 0, 64, 0
1, 118033, Control_c, 0, 64, 45
1, 118048, Control_c, 0, 64, 65
1, 118070, Control_c, 0, 64, 73
1, 118079, Note_on_c, 0, 56, 51
1, 118085, Control_c, 0, 64, 84
1, 118100, Control_c, 0, 64, 91
1, 118112, Note_off_c, 0, 56, 64
1, 118115, Control_c, 0, 64, 93
1, 118130, Control_c, 0, 64, 94
1, 118180, Note_on_c, 0, 68, 62
1, 118180, Note_off_c, 0, 82, 60
1, 118216, Note_off_c, 0, 68, 61
1, 118263, Note_on_c, 0, 75, 59
1, 118322, Control_c, 0, 64, 94
1, 118323, Note_on_c, 0, 80, 71
1, 118341, Note_off_c, 0, 75, 62
1, 118367, Control_c, 0, 64, 94
1, 118373, Note_on_c, 0, 87, 86
1, 118382, Control_c, 0, 64, 88
1, 118398, Control_c, 0, 64, 78
1, 118412, Control_c, 0, 64, 63
1, 118414, Note_off_c, 0, 80, 62
1, 118421, Note_on_c, 0, 52, 41
1, 118427, Control_c, 0, 64, 0
1, 118447, Note_on_c, 0, 55, 41
1, 118457, Control_c, 0, 64, 61
1, 118471, Control_c, 0, 64, 70
1, 118486, Control_c, 0, 64, 77
1, 118501, Control_c, 0, 64, 84
1, 118507, Note_off_c, 0, 52, 59
1, 118514, Note_on_c, 0, 61, 63
1, 118516, Control_c, 0, 64, 86
1, 118520, Note_off_c, 0, 55, 59
1, 118530, Control_c, 0, 64, 86
1, 118545, Control_c, 0, 64, 87
1, 118569, Note_off_c, 0, 61, 51
1, 118574, Note_on_c, 0, 67, 55
1, 118605, Control_c, 0, 64, 87
1, 118635, Note_off_c, 0, 87, 44
1, 118639, Note_on_c, 0, 73, 62
1, 118660, Note_off_c, 0, 67, 52
1, 118694, Control_c, 0, 64, 88
1, 118703, Note_on_c, 0, 79, 70
1, 118717, Note_off_c, 0, 73, 63
1, 118724, Control_c, 0, 64, 88
1, 118753, Control_c, 0, 64, 88
1, 118768, Control_c, 0, 64, 86
1, 118774, Note_on_c, 0, 85, 82
1, 118783, Control_c, 0, 64, 79
1, 118798, Control_c, 0, 64, 66
1, 118819, Note_off_c, 0, 79, 62
1, 118820, Control_c, 0, 64, 0
1, 118839, Note_on_c, 0, 54, 43
1, 118879, Control_c, 0, 64, 60
1, 118894, Control_c, 0, 64, 68
1, 118909, Control_c, 0, 64, 74
1, 118924, Control_c, 0, 64, 78
1, 118938, Control_c, 0, 64, 81
1, 118952, Note_on_c, 0, 59, 22
1, 118953, Control_c, 0, 64, 81
1, 118983, Control_c, 0, 64, 82
1, 119007, Note_on_c, 0, 63, 57
1, 119027, Control_c, 0, 64, 82
1, 119042, Control_c, 0, 64, 83
1, 119045, Note_on_c, 0, 66, 62
1, 119057, Control_c, 0, 64, 83
1, 119072, Control_c, 0, 64, 84
1, 119075, Note_off_c, 0, 54, 40
1, 119087, Control_c, 0, 64, 84
1, 119089, Note_off_c, 0, 63, 53
1, 119092, Note_off_c, 0, 66, 60
1, 119101, Control_c, 0, 64, 85
1, 119134, Note_on_c, 0, 75, 51
1, 119137, Note_off_c, 0, 59, 41
1, 119161, Control_c, 0, 64, 85
1, 119182, Note_off_c, 0, 85, 42
1, 119190, Note_on_c, 0, 78, 66
1, 119198, Note_off_c, 0, 75, 55
1, 119206, Control_c, 0, 64, 86
1, 119236, Control_c, 0, 64, 86
1, 119250, Control_c, 0, 64, 87
1, 119254, Note_off_c, 0, 78, 62
1, 119265, Control_c, 0, 64, 87
1, 119270, Note_on_c, 0, 83, 64
1, 119280, Control_c, 0, 64, 88
1, 119340, Control_c, 0, 64, 86
1, 119355, Control_c, 0, 64, 79
1, 119369, Control_c, 0, 64, 67
1, 119381, Note_off_c, 0, 83, 55
1, 119384, Control_c, 0, 64, 0
1, 119385, Note_on_c, 0, 90, 83
1, 119385, Note_on_c, 0, 42, 49
1, 119429, Control_c, 0, 64, 56
1, 119443, Control_c, 0, 64, 68
1, 119458, Control_c, 0, 64, 75
1, 119473, Control_c, 0, 64, 82
1, 119486, Note_off_c, 0, 42, 59
1, 119487, Control_c, 0, 64, 85
1, 119502, Control_c, 0, 64, 85
1, 119524, Note_on_c, 0, 54, 53
1, 119569, Note_off_c, 0, 54, 62
1, 119578, Note_off_c, 0, 90, 63
1, 119629, Control_c, 0, 64, 86
1, 119704, Note_on_c, 0, 61, 50
1, 119762, Control_c, 0, 64, 86
1, 119812, Note_off_c, 0, 61, 38
1, 119826, Note_on_c, 0, 70, 54
1, 119981, Note_on_c, 0, 76, 51
1, 120078, Note_off_c, 0, 70, 29
1, 120176, Note_on_c, 0, 82, 72
1, 120377, Note_off_c, 0, 76, 45
1, 120551, Note_off_c, 0, 82, 23
1, 120584, Control_c, 0, 67, 9
1, 120599, Control_c, 0, 67, 11
1, 120614, Control_c, 0, 67, 14
1, 120629, Control_c, 0, 67, 16
1, 120643, Control_c, 0, 67, 19
1, 120658, Control_c, 0, 67, 21
1, 120673, Control_c, 0, 67, 24
1, 120688, Control_c, 0, 67, 27
1, 120703, Control_c, 0, 67, 30
1, 120717, Control_c, 0, 67, 33
1, 120732, Control_c, 0, 67, 35
1, 120747, Control_c, 0, 67, 37
1, 120762, Control_c, 0, 67, 37
1, 120777, Control_c, 0, 67, 38
1, 120896, Control_c, 0, 64, 85
1, 120911, Control_c, 0, 64, 83
1, 120921, Note_on_c, 0, 83, 59
1, 120926, Control_c, 0, 64, 78
1, 120940, Note_on_c, 0, 54, 34
1, 120941, Control_c, 0, 64, 68
1, 120941, Control_c, 0, 67, 38
1, 120945, Note_on_c, 0, 59, 37
1, 120947, Note_on_c, 0, 47, 36
1, 120947, Note_on_c, 0, 71, 16
1, 120950, Note_on_c, 0, 75, 35
1, 120956, Control_c, 0, 64, 0
1, 120956, Control_c, 0, 67, 39
1, 120970, Control_c, 0, 67, 41
1, 120985, Control_c, 0, 67, 45
1, 121000, Control_c, 0, 67, 48
1, 121015, Control_c, 0, 67, 51
1, 121030, Control_c, 0, 67, 53
1, 121045, Control_c, 0, 67, 55
1, 121066, Control_c, 0, 64, 56
1, 121066, Control_c, 0, 67, 56
1, 121081, Control_c, 0, 64, 67
1, 121096, Control_c, 0, 64, 71
1, 121111, Control_c, 0, 64, 73
1, 121126, Control_c, 0, 64, 76
1, 121140, Note_off_c, 0, 47, 42
1, 121140, Control_c, 0, 64, 79
1, 121148, Note_off_c, 0, 54, 39
1, 121155, Control_c, 0, 64, 81
1, 121170, Control_c, 0, 64, 82
1, 121185, Note_off_c, 0, 59, 33
1, 121185, Control_c, 0, 64, 83
1, 121200, Control_c, 0, 64, 84
1, 121215, Note_off_c, 0, 83, 24
1, 121215, Control_c, 0, 64, 84
1, 121221, Note_off_c, 0, 71, 33
1, 121245, Control_c, 0, 64, 85
1, 121259, Control_c, 0, 64, 86
1, 121274, Control_c, 0, 64, 86
1, 121304, Control_c, 0, 64, 87
1, 121393, Control_c, 0, 67, 55
1, 121407, Note_off_c, 0, 75, 31
1, 121466, Control_c, 0, 67, 55
1, 121496, Control_c, 0, 67, 54
1, 121511, Control_c, 0, 67, 53
1, 121526, Control_c, 0, 67, 53
1, 121570, Control_c, 0, 67, 52
1, 121874, Control_c, 0, 64, 86
1, 121888, Note_on_c, 0, 83, 61
1, 121889, Control_c, 0, 64, 84
1, 121903, Control_c, 0, 64, 79
1, 121907, Note_on_c, 0, 68, 49
1, 121909, Note_on_c, 0, 77, 41
1, 121918, Control_c, 0, 64, 68
1, 121921, Note_on_c, 0, 74, 28
1, 121933, Control_c, 0, 64, 39
1, 121933, Control_c, 0, 67, 52
1, 121948, Control_c, 0, 64, 0
1, 121948, Control_c, 0, 67, 51
1, 121963, Control_c, 0, 67, 51
1, 122007, Control_c, 0, 64, 58
1, 122022, Control_c, 0, 64, 65
1, 122037, Control_c, 0, 64, 68
1, 122052, Control_c, 0, 64, 70
1, 122052, Control_c, 0, 67, 50
1, 122067, Control_c, 0, 64, 72
1, 122082, Control_c, 0, 64, 75
1, 122096, Control_c, 0, 64, 77
1, 122105, Note_off_c, 0, 77, 54
1, 122111, Control_c, 0, 64, 79
1, 122111, Control_c, 0, 67, 50
1, 122126, Control_c, 0, 64, 80
1, 122141, Control_c, 0, 64, 80
1, 122155, Control_c, 0, 64, 81
1, 122170, Control_c, 0, 64, 82
1, 122170, Control_c, 0, 67, 50
1, 122200, Control_c, 0, 64, 82
1, 122229, Control_c, 0, 64, 83
1, 122259, Control_c, 0, 64, 83
1, 122318, Control_c, 0, 67, 51
1, 122333, Control_c, 0, 64, 83
1, 122347, Note_on_c, 0, 78, 63
1, 122348, Control_c, 0, 64, 79
1, 122361, Note_off_c, 0, 68, 40
1, 122363, Control_c, 0, 64, 71
1, 122378, Control_c, 0, 64, 51
1, 122380, Note_on_c, 0, 70, 34
1, 122383, Note_on_c, 0, 75, 33
1, 122385, Note_off_c, 0, 74, 48
1, 122393, Control_c, 0, 64, 0
1, 122393, Control_c, 0, 67, 50
1, 122424, Control_c, 0, 64, 36
1, 122439, Control_c, 0, 64, 64
1, 122439, Control_c, 0, 67, 50
1, 122453, Control_c, 0, 64, 69
1, 122468, Control_c, 0, 64, 73
1, 122468, Control_c, 0, 67, 49
1, 122480, Note_off_c, 0, 83, 31
1, 122483, Control_c, 0, 64, 77
1, 122498, Control_c, 0, 64, 79
1, 122498, Control_c, 0, 67, 49
1, 122500, Note_off_c, 0, 78, 63
1, 122513, Control_c, 0, 64, 80
1, 122525, Note_off_c, 0, 75, 62
1, 122528, Control_c, 0, 64, 80
1, 122543, Control_c, 0, 64, 81
1, 122543, Control_c, 0, 67, 48
1, 122565, Control_c, 0, 64, 83
1, 122580, Control_c, 0, 64, 84
1, 122595, Control_c, 0, 64, 85
1, 122595, Control_c, 0, 67, 49
1, 122610, Control_c, 0, 64, 86
1, 122625, Control_c, 0, 64, 87
1, 122639, Control_c, 0, 64, 88
1, 122654, Control_c, 0, 64, 88
1, 122684, Control_c, 0, 67, 49
1, 122713, Control_c, 0, 64, 88
1, 122727, Note_on_c, 0, 81, 61
1, 122728, Control_c, 0, 64, 84
1, 122728, Control_c, 0, 67, 50
1, 122743, Control_c, 0, 64, 77
1, 122747, Note_on_c, 0, 75, 46
1, 122748, Note_on_c, 0, 72, 35
1, 122758, Control_c, 0, 64, 65
1, 122759, Note_on_c, 0, 66, 37
1, 122773, Control_c, 0, 64, 0
1, 122780, Note_off_c, 0, 70, 35
1, 122817, Control_c, 0, 64, 59
1, 122832, Control_c, 0, 64, 67
1, 122846, Control_c, 0, 64, 72
1, 122861, Control_c, 0, 64, 76
1, 122876, Control_c, 0, 64, 78
1, 122891, Control_c, 0, 64, 79
1, 122905, Control_c, 0, 64, 80
1, 122920, Control_c, 0, 64, 82
1, 122935, Control_c, 0, 64, 83
1, 122950, Control_c, 0, 64, 83
1, 122965, Control_c, 0, 64, 84
1, 122986, Note_off_c, 0, 81, 32
1, 122994, Control_c, 0, 64, 84
1, 122994, Control_c, 0, 67, 50
1, 123009, Control_c, 0, 64, 85
1, 123009, Control_c, 0, 67, 51
1, 123024, Control_c, 0, 64, 86
1, 123039, Control_c, 0, 64, 87
1, 123039, Control_c, 0, 67, 51
1, 123054, Control_c, 0, 67, 52
1, 123069, Control_c, 0, 67, 52
1, 123084, Control_c, 0, 67, 53
1, 123096, Note_off_c, 0, 75, 53
1, 123099, Control_c, 0, 64, 85
1, 123099, Control_c, 0, 67, 54
1, 123113, Control_c, 0, 64, 80
1, 123113, Control_c, 0, 67, 55
1, 123126, Note_on_c, 0, 76, 58
1, 123128, Control_c, 0, 64, 72
1, 123128, Control_c, 0, 67, 56
1, 123143, Control_c, 0, 64, 55
1, 123143, Control_c, 0, 67, 57
1, 123152, Note_off_c, 0, 66, 42
1, 123155, Note_on_c, 0, 73, 25
1, 123158, Control_c, 0, 64, 0
1, 123158, Control_c, 0, 67, 58
1, 123162, Note_off_c, 0, 72, 34
1, 123164, Note_on_c, 0, 68, 29
1, 123173, Control_c, 0, 67, 62
1, 123188, Control_c, 0, 67, 69
1, 123203, Control_c, 0, 64, 47
1, 123203, Control_c, 0, 67, 76
1, 123218, Control_c, 0, 64, 65
1, 123218, Control_c, 0, 67, 84
1, 123233, Control_c, 0, 64, 69
1, 123233, Control_c, 0, 67, 90
1, 123248, Control_c, 0, 64, 73
1, 123248, Control_c, 0, 67, 97
1, 123262, Control_c, 0, 64, 76
1, 123262, Control_c, 0, 67, 105
1, 123274, Note_off_c, 0, 76, 64
1, 123277, Control_c, 0, 64, 78
1, 123277, Control_c, 0, 67, 113
1, 123292, Control_c, 0, 64, 80
1, 123292, Control_c, 0, 67, 124
1, 123314, Control_c, 0, 64, 82
1, 123314, Control_c, 0, 67, 127
1, 123329, Control_c, 0, 64, 84
1, 123343, Control_c, 0, 64, 84
1, 123358, Control_c, 0, 64, 85
1, 123373, Control_c, 0, 64, 86
1, 123388, Control_c, 0, 64, 86
1, 123397, Note_off_c, 0, 73, 44
1, 123403, Control_c, 0, 64, 87
1, 123418, Control_c, 0, 64, 88
1, 123433, Control_c, 0, 64, 89
1, 123448, Control_c, 0, 64, 90
1, 123462, Control_c, 0, 64, 90
1, 123479, Note_on_c, 0, 74, 43
1, 123492, Note_on_c, 0, 80, 61
1, 123504, Note_on_c, 0, 71, 44
1, 123507, Control_c, 0, 64, 89
1, 123522, Control_c, 0, 64, 85
1, 123534, Note_off_c, 0, 68, 38
1, 123536, Control_c, 0, 64, 75
1, 123540, Note_on_c, 0, 65, 33
1, 123551, Control_c, 0, 64, 63
1, 123566, Control_c, 0, 64, 0
1, 123610, Control_c, 0, 64, 30
1, 123625, Control_c, 0, 64, 64
1, 123640, Control_c, 0, 64, 70
1, 123654, Control_c, 0, 64, 73
1, 123662, Note_off_c, 0, 80, 57
1, 123669, Control_c, 0, 64, 76
1, 123684, Control_c, 0, 64, 79
1, 123699, Control_c, 0, 64, 81
1, 123714, Control_c, 0, 64, 82
1, 123728, Control_c, 0, 64, 84
1, 123743, Control_c, 0, 64, 84
1, 123758, Control_c, 0, 64, 85
1, 123773, Control_c, 0, 64, 85
1, 123788, Control_c, 0, 64, 86
1, 123802, Control_c, 0, 64, 87
1, 123817, Control_c, 0, 64, 88
1, 123832, Control_c, 0, 64, 89
1, 123834, Note_off_c, 0, 71, 53
1, 123858, Note_on_c, 0, 75, 50
1, 123862, Control_c, 0, 64, 87
1, 123866, Note_on_c, 0, 70, 41
1, 123871, Note_on_c, 0, 66, 36
1, 123877, Control_c, 0, 64, 83
1, 123880, Note_off_c, 0, 74, 37
1, 123886, Note_off_c, 0, 65, 39
1, 123892, Control_c, 0, 64, 74
1, 123907, Control_c, 0, 64, 63
1, 123922, Control_c, 0, 64, 25
1, 123936, Control_c, 0, 64, 52
1, 123951, Control_c, 0, 64, 65
1, 123966, Control_c, 0, 64, 70
1, 123981, Control_c, 0, 64, 75
1, 123996, Control_c, 0, 64, 78
1, 124002, Note_off_c, 0, 70, 52
1, 124011, Control_c, 0, 64, 80
1, 124026, Control_c, 0, 64, 81
1, 124038, Note_off_c, 0, 75, 56
1, 124041, Control_c, 0, 64, 82
1, 124063, Control_c, 0, 64, 83
1, 124078, Control_c, 0, 64, 85
1, 124092, Control_c, 0, 64, 86
1, 124107, Control_c, 0, 64, 86
1, 124122, Control_c, 0, 64, 87
1, 124166, Control_c, 0, 64, 87
1, 124179, Note_off_c, 0, 66, 38
1, 124223, Note_on_c, 0, 78, 58
1, 124236, Note_on_c, 0, 63, 37
1, 124245, Note_on_c, 0, 69, 32
1, 124255, Control_c, 0, 64, 87
1, 124264, Note_on_c, 0, 72, 13
1, 124270, Control_c, 0, 64, 86
1, 124285, Control_c, 0, 64, 83
1, 124300, Control_c, 0, 64, 73
1, 124315, Control_c, 0, 64, 58
1, 124330, Control_c, 0, 64, 0
1, 124374, Control_c, 0, 64, 59
1, 124389, Control_c, 0, 64, 69
1, 124404, Control_c, 0, 64, 76
1, 124409, Note_off_c, 0, 69, 49
1, 124418, Control_c, 0, 64, 80
1, 124433, Control_c, 0, 64, 81
1, 124463, Control_c, 0, 64, 82
1, 124477, Note_off_c, 0, 72, 41
1, 124478, Control_c, 0, 64, 82
1, 124492, Control_c, 0, 64, 83
1, 124507, Control_c, 0, 64, 84
1, 124522, Control_c, 0, 64, 85
1, 124524, Note_off_c, 0, 63, 37
1, 124537, Control_c, 0, 64, 86
1, 124551, Control_c, 0, 64, 88
1, 124566, Control_c, 0, 64, 88
1, 124581, Control_c, 0, 64, 89
1, 124596, Control_c, 0, 64, 89
1, 124610, Control_c, 0, 64, 90
1, 124625, Control_c, 0, 64, 90
1, 124633, Note_off_c, 0, 78, 29
1, 124640, Control_c, 0, 64, 91
1, 124685, Control_c, 0, 64, 86
1, 124690, Note_on_c, 0, 76, 45
1, 124700, Control_c, 0, 64, 77
1, 124702, Note_on_c, 0, 70, 31
1, 124705, Note_on_c, 0, 61, 38
1, 124711, Note_on_c, 0, 67, 34
1, 124714, Control_c, 0, 64, 65
1, 124729, Control_c, 0, 64, 0
1, 124748, Note_off_c, 0, 76, 0
1, 124748, Note_on_c, 0, 76, 4
1, 124759, Control_c, 0, 64, 60
1, 124774, Control_c, 0, 64, 69
1, 124789, Control_c, 0, 64, 77
1, 124812, Control_c, 0, 64, 83
1, 124827, Control_c, 0, 64, 86
1, 124837, Note_off_c, 0, 76, 64
1, 124841, Control_c, 0, 64, 87
1, 124856, Control_c, 0, 64, 87
1, 124871, Control_c, 0, 64, 88
1, 124873, Note_off_c, 0, 67, 39
1, 124886, Control_c, 0, 64, 89
1, 124898, Note_off_c, 0, 70, 38
1, 124901, Control_c, 0, 64, 90
1, 124913, Note_off_c, 0, 61, 39
1, 124915, Control_c, 0, 64, 90
1, 124930, Control_c, 0, 64, 91
1, 124945, Control_c, 0, 64, 92
1, 124960, Control_c, 0, 64, 93
1, 124975, Control_c, 0, 64, 93
1, 124989, Control_c, 0, 64, 94
1, 125004, Control_c, 0, 64, 94
1, 125019, Control_c, 0, 64, 95
1, 125022, Note_on_c, 0, 70, 43
1, 125033, Control_c, 0, 64, 95
1, 125048, Control_c, 0, 64, 96
1, 125063, Control_c, 0, 64, 96
1, 125078, Control_c, 0, 64, 97
1, 125089, Note_off_c, 0, 70, 58
1, 125093, Control_c, 0, 64, 98
1, 125108, Control_c, 0, 64, 98
1, 125123, Control_c, 0, 64, 99
1, 125130, Note_on_c, 0, 76, 24
1, 125138, Control_c, 0, 64, 100
1, 125153, Control_c, 0, 64, 101
1, 125153, Note_on_c, 0, 79, 49
1, 125168, Control_c, 0, 64, 103
1, 125173, Note_off_c, 0, 76, 49
1, 125182, Control_c, 0, 64, 105
1, 125197, Control_c, 0, 64, 108
1, 125209, Note_on_c, 0, 85, 56
1, 125212, Control_c, 0, 64, 112
1, 125226, Control_c, 0, 64, 118
1, 125233, Note_off_c, 0, 79, 47
1, 125241, Control_c, 0, 64, 127
1, 125306, Note_off_c, 0, 85, 59
1, 125312, Note_on_c, 0, 35, 43
1, 125366, Note_off_c, 0, 35, 54
1, 125461, Note_on_c, 0, 40, 19
1, 125503, Note_on_c, 0, 67, 27
1, 125543, Note_off_c, 0, 67, 48
1, 125558, Note_on_c, 0, 73, 50
1, 125573, Note_on_c, 0, 47, 36
1, 125621, Note_on_c, 0, 76, 54
1, 125647, Note_off_c, 0, 73, 42
1, 125688, Note_off_c, 0, 76, 63
1, 125692, Note_on_c, 0, 82, 61
1, 125758, Note_on_c, 0, 52, 46
1, 125825, Note_off_c, 0, 82, 57
1, 125911, Note_on_c, 0, 70, 43
1, 125960, Note_off_c, 0, 70, 48
1, 125961, Note_on_c, 0, 75, 51
1, 125986, Note_off_c, 0, 75, 55
1, 126022, Note_on_c, 0, 76, 32
1, 126029, Note_on_c, 0, 79, 65
1, 126078, Note_off_c, 0, 76, 53
1, 126086, Note_on_c, 0, 85, 70
1, 126095, Note_off_c, 0, 79, 61
1, 126168, Note_off_c, 0, 85, 62
1, 126267, Note_on_c, 0, 73, 57
1, 126333, Note_off_c, 0, 73, 59
1, 126336, Note_on_c, 0, 79, 63
1, 126384, Note_on_c, 0, 82, 71
1, 126408, Note_off_c, 0, 79, 60
1, 126426, Note_on_c, 0, 88, 77
1, 126442, Note_off_c, 0, 82, 62
1, 126512, Note_off_c, 0, 52, 34
1, 126513, Note_off_c, 0, 88, 53
1, 126531, Note_off_c, 0, 47, 44
1, 126605, Note_on_c, 0, 76, 47
1, 126634, Note_off_c, 0, 76, 54
1, 126648, Note_on_c, 0, 82, 61
1, 126682, Note_on_c, 0, 85, 64
1, 126736, Note_off_c, 0, 82, 50
1, 126743, Note_on_c, 0, 90, 76
1, 126759, Note_off_c, 0, 85, 59
1, 126819, Note_off_c, 0, 90, 63
1, 126820, Note_off_c, 0, 40, 25
1, 126852, Note_on_c, 0, 35, 35
1, 126897, Note_off_c, 0, 35, 48
1, 126941, Note_on_c, 0, 40, 42
1, 126943, Note_on_c, 0, 73, 37
1, 126969, Note_off_c, 0, 73, 56
1, 126993, Note_on_c, 0, 79, 54
1, 127041, Note_on_c, 0, 82, 59
1, 127060, Note_on_c, 0, 47, 44
1, 127084, Note_off_c, 0, 79, 58
1, 127105, Note_on_c, 0, 88, 69
1, 127120, Note_off_c, 0, 82, 55
1, 127128, Note_off_c, 0, 47, 54
1, 127159, Note_off_c, 0, 88, 58
1, 127181, Note_on_c, 0, 52, 21
1, 127223, Note_off_c, 0, 52, 41
1, 127262, Note_off_c, 0, 40, 38
1, 127320, Note_on_c, 0, 70, 54
1, 127374, Note_off_c, 0, 70, 57
1, 127389, Note_on_c, 0, 76, 55
1, 127460, Note_on_c, 0, 79, 59
1, 127496, Note_off_c, 0, 76, 56
1, 127504, Note_on_c, 0, 85, 62
1, 127603, Note_on_c, 0, 35, 43
1, 127606, Control_c, 0, 64, 117
1, 127621, Control_c, 0, 64, 92
1, 127636, Control_c, 0, 64, 69
1, 127651, Control_c, 0, 64, 0
1, 127667, Note_off_c, 0, 85, 62
1, 127689, Note_on_c, 0, 42, 32
1, 127710, Control_c, 0, 64, 62
1, 127718, Note_off_c, 0, 79, 56
1, 127725, Control_c, 0, 64, 73
1, 127736, Note_on_c, 0, 71, 48
1, 127740, Control_c, 0, 64, 81
1, 127752, Note_off_c, 0, 42, 61
1, 127755, Control_c, 0, 64, 86
1, 127769, Note_off_c, 0, 35, 34
1, 127769, Control_c, 0, 64, 87
1, 127784, Control_c, 0, 64, 89
1, 127801, Note_on_c, 0, 47, 54
1, 127806, Control_c, 0, 64, 90
1, 127821, Note_off_c, 0, 71, 57
1, 127821, Control_c, 0, 64, 91
1, 127829, Note_off_c, 0, 47, 60
1, 127835, Control_c, 0, 64, 92
1, 127850, Control_c, 0, 64, 92
1, 127865, Control_c, 0, 64, 93
1, 127867, Note_on_c, 0, 78, 62
1, 127895, Control_c, 0, 64, 94
1, 127910, Control_c, 0, 64, 95
1, 127914, Note_off_c, 0, 78, 57
1, 127925, Control_c, 0, 64, 95
1, 127940, Control_c, 0, 64, 96
1, 127949, Note_on_c, 0, 54, 45
1, 127954, Control_c, 0, 64, 96
1, 127969, Control_c, 0, 64, 97
1, 127985, Control_c, 0, 64, 98
1, 127999, Control_c, 0, 64, 99
1, 128011, Note_off_c, 0, 54, 58
1, 128014, Control_c, 0, 64, 99
1, 128044, Control_c, 0, 64, 100
1, 128049, Note_on_c, 0, 59, 52
1, 128074, Control_c, 0, 64, 100
1, 128086, Note_on_c, 0, 87, 79
1, 128091, Note_off_c, 0, 59, 59
1, 128148, Control_c, 0, 64, 101
1, 128163, Control_c, 0, 67, 123
1, 128172, Note_off_c, 0, 87, 61
1, 128178, Control_c, 0, 67, 116
1, 128193, Control_c, 0, 67, 111
1, 128207, Control_c, 0, 67, 105
1, 128222, Control_c, 0, 67, 99
1, 128237, Control_c, 0, 67, 94
1, 128251, Control_c, 0, 67, 88
1, 128266, Control_c, 0, 67, 84
1, 128281, Control_c, 0, 67, 79
1, 128296, Control_c, 0, 67, 76
1, 128311, Control_c, 0, 67, 74
1, 128355, Control_c, 0, 67, 75
1, 128370, Control_c, 0, 67, 76
1, 128385, Control_c, 0, 67, 77
1, 128400, Control_c, 0, 67, 79
1, 128415, Control_c, 0, 67, 80
1, 128430, Control_c, 0, 67, 81
1, 128444, Control_c, 0, 67, 82
1, 128459, Control_c, 0, 67, 83
1, 128474, Control_c, 0, 67, 83
1, 128489, Control_c, 0, 67, 84
1, 128504, Control_c, 0, 67, 84
1, 128518, Control_c, 0, 67, 85
1, 128533, Control_c, 0, 67, 85
1, 128556, Control_c, 0, 67, 86
1, 128571, Control_c, 0, 67, 86
1, 128585, Control_c, 0, 67, 87
1, 128600, Control_c, 0, 67, 88
1, 128615, Control_c, 0, 67, 90
1, 128626, Note_on_c, 0, 71, 67
1, 128628, Note_on_c, 0, 68, 62
1, 128630, Control_c, 0, 67, 92
1, 128640, Note_on_c, 0, 65, 54
1, 128645, Control_c, 0, 64, 100
1, 128645, Control_c, 0, 67, 93
1, 128646, Note_on_c, 0, 62, 49
1, 128659, Control_c, 0, 64, 96
1, 128659, Control_c, 0, 67, 94
1, 128674, Control_c, 0, 64, 88
1, 128674, Control_c, 0, 67, 94
1, 128689, Control_c, 0, 64, 77
1, 128704, Control_c, 0, 64, 54
1, 128719, Control_c, 0, 64, 0
1, 128719, Control_c, 0, 67, 94
1, 128733, Control_c, 0, 67, 93
1, 128763, Control_c, 0, 67, 93
1, 128809, Control_c, 0, 64, 64
1, 128823, Control_c, 0, 64, 69
1, 128823, Control_c, 0, 67, 92
1, 128838, Control_c, 0, 64, 73
1, 128853, Control_c, 0, 64, 77
1, 128868, Control_c, 0, 64, 79
1, 128868, Control_c, 0, 67, 93
1, 128882, Control_c, 0, 64, 82
1, 128897, Control_c, 0, 64, 84
1, 128912, Control_c, 0, 64, 87
1, 128927, Control_c, 0, 64, 89
1, 128942, Control_c, 0, 64, 90
1, 128942, Control_c, 0, 67, 93
1, 128956, Control_c, 0, 64, 91
1, 128956, Control_c, 0, 67, 94
1, 128971, Control_c, 0, 67, 94
1, 128986, Control_c, 0, 67, 95
1, 128996, Note_off_c, 0, 71, 56
1, 129000, Note_off_c, 0, 65, 57
1, 129001, Control_c, 0, 64, 90
1, 129005, Note_off_c, 0, 68, 37
1, 129006, Note_on_c, 0, 66, 63
1, 129007, Note_on_c, 0, 58, 53
1, 129010, Note_on_c, 0, 63, 54
1, 129016, Control_c, 0, 64, 86
1, 129016, Control_c, 0, 67, 95
1, 129020, Note_off_c, 0, 62, 38
1, 129031, Control_c, 0, 64, 77
1, 129046, Control_c, 0, 64, 64
1, 129046, Control_c, 0, 67, 97
1, 129061, Control_c, 0, 64, 0
1, 129061, Control_c, 0, 67, 100
1, 129075, Control_c, 0, 67, 101
1, 129090, Control_c, 0, 64, 25
1, 129090, Control_c, 0, 67, 102
1, 129105, Control_c, 0, 64, 67
1, 129105, Control_c, 0, 67, 103
1, 129120, Control_c, 0, 64, 73
1, 129120, Control_c, 0, 67, 103
1, 129135, Control_c, 0, 64, 80
1, 129147, Control_c, 0, 64, 82
1, 129147, Control_c, 0, 67, 104
1, 129162, Control_c, 0, 64, 83
1, 129162, Control_c, 0, 67, 104
1, 129177, Control_c, 0, 64, 84
1, 129179, Note_off_c, 0, 66, 33
1, 129192, Control_c, 0, 64, 85
1, 129207, Control_c, 0, 64, 87
1, 129222, Control_c, 0, 64, 88
1, 129236, Control_c, 0, 64, 89
1, 129251, Note_off_c, 0, 58, 30
1, 129251, Control_c, 0, 64, 90
1, 129266, Control_c, 0, 64, 90
1, 129281, Control_c, 0, 64, 91
1, 129281, Control_c, 0, 67, 105
1, 129318, Control_c, 0, 64, 91
1, 129318, Control_c, 0, 67, 105
1, 129320, Note_off_c, 0, 63, 56
1, 129347, Control_c, 0, 64, 90
1, 129362, Control_c, 0, 64, 86
1, 129362, Control_c, 0, 67, 106
1, 129377, Control_c, 0, 64, 75
1, 129377, Control_c, 0, 67, 108
1, 129381, Note_on_c, 0, 69, 63
1, 129392, Control_c, 0, 64, 60
1, 129392, Control_c, 0, 67, 112
1, 129393, Note_on_c, 0, 63, 32
1, 129397, Note_on_c, 0, 60, 43
1, 129407, Control_c, 0, 64, 0
1, 129407, Control_c, 0, 67, 116
1, 129422, Control_c, 0, 67, 119
1, 129437, Control_c, 0, 67, 122
1, 129452, Control_c, 0, 67, 124
1, 129467, Control_c, 0, 64, 59
1, 129467, Control_c, 0, 67, 126
1, 129481, Control_c, 0, 64, 70
1, 129481, Control_c, 0, 67, 127
1, 129496, Control_c, 0, 64, 74
1, 129511, Control_c, 0, 64, 77
1, 129526, Control_c, 0, 64, 78
1, 129541, Control_c, 0, 64, 80
1, 129555, Control_c, 0, 64, 81
1, 129571, Control_c, 0, 64, 82
1, 129586, Control_c, 0, 64, 83
1, 129601, Control_c, 0, 64, 84
1, 129616, Control_c, 0, 64, 84
1, 129630, Control_c, 0, 64, 85
1, 129645, Control_c, 0, 64, 85
1, 129660, Control_c, 0, 64, 86
1, 129734, Control_c, 0, 64, 84
1, 129741, Note_off_c, 0, 60, 37
1, 129749, Control_c, 0, 64, 78
1, 129754, Note_off_c, 0, 69, 40
1, 129755, Note_on_c, 0, 64, 53
1, 129758, Note_on_c, 0, 56, 44
1, 129761, Note_on_c, 0, 61, 46
1, 129764, Control_c, 0, 64, 66
1, 129776, Note_off_c, 0, 63, 39
1, 129779, Control_c, 0, 64, 0
1, 129823, Control_c, 0, 64, 43
1, 129838, Control_c, 0, 64, 66
1, 129853, Control_c, 0, 64, 72
1, 129868, Control_c, 0, 64, 77
1, 129883, Control_c, 0, 64, 79
1, 129891, Note_off_c, 0, 64, 38
1, 129897, Control_c, 0, 64, 80
1, 129912, Control_c, 0, 64, 81
1, 129927, Control_c, 0, 64, 83
1, 129942, Control_c, 0, 64, 84
1, 129957, Control_c, 0, 64, 85
1, 129959, Note_off_c, 0, 61, 50
1, 129971, Control_c, 0, 64, 86
1, 129986, Control_c, 0, 64, 87
1, 130001, Control_c, 0, 64, 88
1, 130016, Control_c, 0, 64, 88
1, 130030, Control_c, 0, 64, 89
1, 130049, Note_off_c, 0, 56, 39
1, 130053, Control_c, 0, 64, 89
1, 130068, Control_c, 0, 64, 90
1, 130083, Control_c, 0, 64, 90
1, 130112, Control_c, 0, 64, 90
1, 130127, Control_c, 0, 64, 86
1, 130129, Note_on_c, 0, 68, 55
1, 130142, Control_c, 0, 64, 75
1, 130149, Note_on_c, 0, 59, 41
1, 130151, Note_on_c, 0, 62, 44
1, 130155, Note_on_c, 0, 65, 33
1, 130157, Control_c, 0, 64, 62
1, 130171, Control_c, 0, 64, 0
1, 130216, Control_c, 0, 64, 59
1, 130226, Note_off_c, 0, 65, 0
1, 130230, Control_c, 0, 64, 68
1, 130245, Control_c, 0, 64, 75
1, 130260, Control_c, 0, 64, 78
1, 130263, Poly_aftertouch_c, 0, 65, 127
1, 130275, Control_c, 0, 64, 79
1, 130290, Control_c, 0, 64, 80
1, 130304, Control_c, 0, 64, 80
1, 130319, Control_c, 0, 64, 81
1, 130334, Control_c, 0, 64, 82
1, 130349, Control_c, 0, 64, 83
1, 130363, Control_c, 0, 64, 84
1, 130378, Note_off_c, 0, 62, 33
1, 130381, Poly_aftertouch_c, 0, 65, 0
1, 130394, Control_c, 0, 64, 84
1, 130414, Note_off_c, 0, 68, 38
1, 130439, Control_c, 0, 64, 85
1, 130454, Note_off_c, 0, 59, 37
1, 130468, Control_c, 0, 64, 85
1, 130494, Note_on_c, 0, 58, 43
1, 130500, Note_on_c, 0, 63, 43
1, 130505, Note_on_c, 0, 54, 38
1, 130513, Control_c, 0, 64, 83
1, 130527, Control_c, 0, 64, 76
1, 130542, Control_c, 0, 64, 66
1, 130557, Control_c, 0, 64, 20
1, 130560, Note_off_c, 0, 63, 0
1, 130560, Note_on_c, 0, 63, 3
1, 130572, Control_c, 0, 64, 0
1, 130587, Control_c, 0, 64, 58
1, 130602, Control_c, 0, 64, 67
1, 130617, Control_c, 0, 64, 74
1, 130632, Control_c, 0, 64, 79
1, 130646, Control_c, 0, 64, 82
1, 130652, Note_off_c, 0, 63, 53
1, 130661, Control_c, 0, 64, 82
1, 130676, Control_c, 0, 64, 83
1, 130706, Control_c, 0, 64, 83
1, 130712, Note_off_c, 0, 54, 36
1, 130720, Control_c, 0, 64, 84
1, 130735, Control_c, 0, 64, 85
1, 130750, Control_c, 0, 64, 87
1, 130765, Control_c, 0, 64, 89
1, 130780, Control_c, 0, 64, 90
1, 130801, Note_off_c, 0, 58, 36
1, 130831, Control_c, 0, 64, 89
1, 130846, Control_c, 0, 64, 85
1, 130861, Control_c, 0, 64, 75
1, 130873, Note_on_c, 0, 66, 50
1, 130876, Control_c, 0, 64, 60
1, 130888, Note_on_c, 0, 57, 32
1, 130889, Note_on_c, 0, 60, 34
1, 130891, Control_c, 0, 64, 0
1, 130931, Poly_aftertouch_c, 0, 63, 127
1, 130950, Control_c, 0, 64, 61
1, 130965, Control_c, 0, 64, 68
1, 130979, Control_c, 0, 64, 72
1, 130994, Control_c, 0, 64, 75
1, 131009, Control_c, 0, 64, 78
1, 131024, Control_c, 0, 64, 80
1, 131031, Poly_aftertouch_c, 0, 63, 0
1, 131039, Control_c, 0, 64, 82
1, 131053, Control_c, 0, 64, 83
1, 131068, Control_c, 0, 64, 84
1, 131083, Control_c, 0, 64, 85
1, 131090, Note_off_c, 0, 66, 38
1, 131097, Note_off_c, 0, 60, 33
1, 131098, Control_c, 0, 64, 86
1, 131113, Control_c, 0, 64, 87
1, 131126, Note_off_c, 0, 57, 39
1, 131127, Control_c, 0, 64, 88
1, 131142, Control_c, 0, 64, 89
1, 131157, Control_c, 0, 64, 90
1, 131217, Control_c, 0, 64, 90
1, 131336, Control_c, 0, 64, 90
1, 131350, Control_c, 0, 64, 85
1, 131365, Control_c, 0, 64, 75
1, 131372, Note_on_c, 0, 64, 43
1, 131380, Control_c, 0, 64, 40
1, 131387, Note_on_c, 0, 55, 37
1, 131395, Control_c, 0, 64, 0
1, 131401, Note_on_c, 0, 60, 21
1, 131439, Control_c, 0, 64, 42
1, 131454, Control_c, 0, 64, 66
1, 131469, Control_c, 0, 64, 74
1, 131484, Control_c, 0, 64, 83
1, 131499, Control_c, 0, 64, 91
1, 131514, Control_c, 0, 64, 100
1, 131520, Note_off_c, 0, 64, 56
1, 131529, Control_c, 0, 64, 114
1, 131550, Control_c, 0, 64, 127
1, 131554, Note_off_c, 0, 60, 23
1, 131626, Note_off_c, 0, 55, 43
1, 131888, Note_on_c, 0, 72, 49
1, 131895, Note_on_c, 0, 67, 46
1, 131913, Note_on_c, 0, 64, 26
1, 132128, Note_off_c, 0, 67, 37
1, 132143, Note_off_c, 0, 64, 42
1, 132148, Note_on_c, 0, 35, 29
1, 132216, Note_on_c, 0, 40, 28
1, 132261, Note_on_c, 0, 43, 42
1, 132355, Note_on_c, 0, 67, 55
1, 132368, Note_on_c, 0, 48, 47
1, 132369, Note_on_c, 0, 64, 42
1, 132370, Note_on_c, 0, 60, 38
1, 132612, Note_off_c, 0, 72, 36
1, 132645, Note_off_c, 0, 60, 37
1, 132650, Note_off_c, 0, 67, 57
1, 132650, Note_off_c, 0, 64, 59
1, 132736, Note_on_c, 0, 72, 58
1, 132751, Note_on_c, 0, 67, 54
1, 132754, Note_on_c, 0, 64, 43
1, 132861, Note_off_c, 0, 64, 50
1, 132867, Note_off_c, 0, 67, 52
1, 132922, Control_c, 0, 67, 126
1, 132937, Control_c, 0, 67, 123
1, 132952, Control_c, 0, 67, 121
1, 132967, Control_c, 0, 67, 118
1, 132982, Control_c, 0, 67, 116
1, 132990, Note_off_c, 0, 72, 59
1, 132996, Control_c, 0, 67, 114
1, 133011, Control_c, 0, 67, 113
1, 133026, Control_c, 0, 67, 111
1, 133048, Control_c, 0, 67, 109
1, 133063, Control_c, 0, 67, 108
1, 133078, Control_c, 0, 67, 106
1, 133093, Control_c, 0, 67, 104
1, 133108, Control_c, 0, 67, 102
1, 133122, Control_c, 0, 67, 101
1, 133133, Note_on_c, 0, 76, 69
1, 133137, Control_c, 0, 67, 100
1, 133140, Note_on_c, 0, 67, 52
1, 133144, Note_on_c, 0, 72, 48
1, 133152, Control_c, 0, 67, 99
1, 133166, Control_c, 0, 67, 98
1, 133181, Control_c, 0, 67, 97
1, 133196, Control_c, 0, 67, 95
1, 133211, Control_c, 0, 67, 93
1, 133226, Control_c, 0, 67, 91
1, 133240, Control_c, 0, 67, 88
1, 133255, Control_c, 0, 67, 86
1, 133270, Control_c, 0, 67, 83
1, 133285, Control_c, 0, 67, 80
1, 133300, Control_c, 0, 67, 77
1, 133314, Control_c, 0, 67, 75
1, 133329, Control_c, 0, 67, 73
1, 133344, Control_c, 0, 67, 71
1, 133359, Control_c, 0, 67, 69
1, 133367, Note_off_c, 0, 67, 39
1, 133374, Control_c, 0, 67, 68
1, 133383, Note_off_c, 0, 72, 57
1, 133389, Control_c, 0, 67, 67
1, 133401, Note_off_c, 0, 76, 55
1, 133404, Control_c, 0, 67, 65
1, 133419, Control_c, 0, 67, 64
1, 133434, Control_c, 0, 67, 62
1, 133448, Control_c, 0, 67, 60
1, 133463, Control_c, 0, 67, 58
1, 133478, Control_c, 0, 67, 55
1, 133493, Control_c, 0, 67, 52
1, 133508, Control_c, 0, 67, 49
1, 133509, Note_on_c, 0, 79, 70
1, 133511, Note_on_c, 0, 76, 67
1, 133520, Note_on_c, 0, 72, 48
1, 133522, Control_c, 0, 67, 47
1, 133537, Control_c, 0, 67, 44
1, 133538, Note_off_c, 0, 35, 32
1, 133552, Control_c, 0, 67, 42
1, 133568, Control_c, 0, 67, 41
1, 133583, Control_c, 0, 67, 39
1, 133598, Control_c, 0, 67, 38
1, 133612, Control_c, 0, 67, 37
1, 133627, Control_c, 0, 67, 35
1, 133642, Control_c, 0, 67, 33
1, 133650, Note_off_c, 0, 40, 39
1, 133657, Control_c, 0, 67, 32
1, 133670, Note_off_c, 0, 43, 37
1, 133671, Control_c, 0, 67, 31
1, 133675, Note_off_c, 0, 72, 53
1, 133681, Note_off_c, 0, 76, 36
1, 133686, Control_c, 0, 67, 30
1, 133690, Note_off_c, 0, 48, 39
1, 133701, Control_c, 0, 67, 29
1, 133711, Note_on_c, 0, 35, 36
1, 133716, Control_c, 0, 67, 29
1, 133720, Note_off_c, 0, 79, 55
1, 133731, Control_c, 0, 67, 28
1, 133760, Control_c, 0, 67, 27
1, 133782, Note_on_c, 0, 40, 33
1, 133812, Control_c, 0, 67, 27
1, 133819, Note_on_c, 0, 43, 41
1, 133842, Control_c, 0, 64, 109
1, 133857, Note_on_c, 0, 76, 72
1, 133857, Control_c, 0, 64, 97
1, 133857, Control_c, 0, 67, 26
1, 133866, Note_on_c, 0, 48, 46
1, 133871, Control_c, 0, 64, 87
1, 133872, Note_on_c, 0, 67, 50
1, 133881, Note_on_c, 0, 72, 49
1, 133886, Control_c, 0, 64, 80
1, 133886, Control_c, 0, 67, 26
1, 133901, Control_c, 0, 64, 78
1, 133901, Control_c, 0, 67, 25
1, 133916, Control_c, 0, 67, 25
1, 133931, Control_c, 0, 67, 24
1, 133943, Note_off_c, 0, 67, 0
1, 133943, Note_on_c, 0, 67, 4
1, 133945, Control_c, 0, 64, 80
1, 133960, Control_c, 0, 64, 83
1, 133960, Control_c, 0, 67, 24
1, 133975, Control_c, 0, 64, 86
1, 133989, Control_c, 0, 64, 89
1, 133989, Control_c, 0, 67, 23
1, 133993, Note_off_c, 0, 76, 59
1, 134004, Control_c, 0, 64, 91
1, 134004, Control_c, 0, 67, 23
1, 134018, Note_off_c, 0, 72, 58
1, 134019, Control_c, 0, 64, 92
1, 134019, Control_c, 0, 67, 22
1, 134034, Control_c, 0, 64, 93
1, 134034, Control_c, 0, 67, 21
1, 134049, Control_c, 0, 64, 95
1, 134049, Control_c, 0, 67, 20
1, 134063, Control_c, 0, 64, 96
1, 134063, Control_c, 0, 67, 20
1, 134078, Control_c, 0, 64, 97
1, 134093, Control_c, 0, 64, 98
1, 134093, Control_c, 0, 67, 19
1, 134108, Control_c, 0, 64, 98
1, 134116, Note_off_c, 0, 67, 54
1, 134123, Control_c, 0, 64, 99
1, 134137, Control_c, 0, 64, 100
1, 134152, Control_c, 0, 64, 101
1, 134167, Control_c, 0, 64, 102
1, 134212, Control_c, 0, 67, 19
1, 134221, Note_on_c, 0, 72, 67
1, 134224, Note_on_c, 0, 67, 63
1, 134227, Control_c, 0, 64, 99
1, 134232, Note_on_c, 0, 64, 59
1, 134241, Control_c, 0, 64, 92
1, 134256, Control_c, 0, 64, 82
1, 134271, Control_c, 0, 64, 74
1, 134286, Control_c, 0, 64, 69
1, 134301, Control_c, 0, 64, 67
1, 134316, Control_c, 0, 64, 69
1, 134331, Control_c, 0, 64, 73
1, 134345, Control_c, 0, 64, 77
1, 134361, Control_c, 0, 64, 82
1, 134361, Control_c, 0, 67, 18
1, 134376, Control_c, 0, 64, 84
1, 134390, Control_c, 0, 64, 85
1, 134405, Control_c, 0, 64, 86
1, 134420, Control_c, 0, 64, 86
1, 134435, Control_c, 0, 64, 87
1, 134441, Note_off_c, 0, 64, 54
1, 134450, Control_c, 0, 64, 88
1, 134458, Note_off_c, 0, 72, 52
1, 134465, Control_c, 0, 64, 88
1, 134480, Control_c, 0, 64, 89
1, 134494, Control_c, 0, 64, 89
1, 134499, Note_off_c, 0, 67, 59
1, 134509, Control_c, 0, 64, 90
1, 134575, Control_c, 0, 64, 89
1, 134590, Control_c, 0, 64, 84
1, 134605, Control_c, 0, 64, 75
1, 134613, Note_on_c, 0, 72, 65
1, 134620, Control_c, 0, 64, 63
1, 134623, Note_on_c, 0, 69, 55
1, 134625, Note_on_c, 0, 65, 52
1, 134635, Control_c, 0, 64, 0
1, 134680, Control_c, 0, 64, 58
1, 134694, Control_c, 0, 64, 67
1, 134709, Control_c, 0, 64, 73
1, 134724, Control_c, 0, 64, 77
1, 134739, Control_c, 0, 64, 80
1, 134754, Control_c, 0, 64, 81
1, 134768, Control_c, 0, 64, 83
1, 134783, Control_c, 0, 64, 84
1, 134798, Control_c, 0, 64, 86
1, 134812, Control_c, 0, 64, 88
1, 134815, Note_off_c, 0, 65, 53
1, 134827, Control_c, 0, 64, 90
1, 134827, Control_c, 0, 67, 19
1, 134842, Note_off_c, 0, 69, 38
1, 134842, Control_c, 0, 64, 93
1, 134842, Control_c, 0, 67, 20
1, 134857, Control_c, 0, 64, 95
1, 134857, Control_c, 0, 67, 21
1, 134858, Note_off_c, 0, 72, 60
1, 134872, Control_c, 0, 64, 95
1, 134872, Control_c, 0, 67, 22
1, 134886, Control_c, 0, 67, 23
1, 134901, Control_c, 0, 64, 95
1, 134901, Control_c, 0, 67, 23
1, 134916, Control_c, 0, 64, 91
1, 134916, Control_c, 0, 67, 24
1, 134931, Control_c, 0, 64, 83
1, 134939, Note_on_c, 0, 69, 74
1, 134946, Note_on_c, 0, 60, 45
1, 134946, Control_c, 0, 64, 73
1, 134946, Control_c, 0, 67, 25
1, 134960, Control_c, 0, 64, 64
1, 134960, Control_c, 0, 67, 25
1, 134966, Note_on_c, 0, 65, 43
1, 134975, Control_c, 0, 64, 57
1, 134975, Control_c, 0, 67, 26
1, 134990, Control_c, 0, 64, 63
1, 134990, Control_c, 0, 67, 26
1, 134994, Note_off_c, 0, 43, 46
1, 135005, Control_c, 0, 64, 68
1, 135009, Note_off_c, 0, 60, 0
1, 135009, Note_on_c, 0, 60, 3
1, 135013, Note_off_c, 0, 40, 41
1, 135014, Note_off_c, 0, 35, 42
1, 135019, Control_c, 0, 64, 76
1, 135019, Control_c, 0, 67, 27
1, 135034, Control_c, 0, 64, 83
1, 135034, Control_c, 0, 67, 27
1, 135049, Control_c, 0, 64, 86
1, 135064, Control_c, 0, 64, 87
1, 135067, Note_off_c, 0, 69, 61
1, 135070, Note_off_c, 0, 65, 38
1, 135073, Note_off_c, 0, 48, 41
1, 135079, Control_c, 0, 67, 28
1, 135094, Control_c, 0, 64, 88
1, 135094, Control_c, 0, 67, 28
1, 135109, Control_c, 0, 64, 88
1, 135124, Control_c, 0, 64, 89
1, 135124, Control_c, 0, 67, 29
1, 135138, Note_off_c, 0, 60, 54
1, 135139, Control_c, 0, 64, 89
1, 135139, Control_c, 0, 67, 29
1, 135154, Control_c, 0, 64, 90
1, 135154, Control_c, 0, 67, 30
1, 135170, Control_c, 0, 67, 33
1, 135184, Control_c, 0, 64, 90
1, 135184, Control_c, 0, 67, 37
1, 135199, Control_c, 0, 67, 40
1, 135200, Note_on_c, 0, 35, 32
1, 135214, Control_c, 0, 64, 91
1, 135214, Control_c, 0, 67, 43
1, 135229, Control_c, 0, 64, 91
1, 135229, Control_c, 0, 67, 47
1, 135243, Control_c, 0, 67, 50
1, 135258, Control_c, 0, 67, 54
1, 135273, Control_c, 0, 67, 58
1, 135279, Note_on_c, 0, 45, 48
1, 135296, Control_c, 0, 64, 90
1, 135296, Control_c, 0, 67, 60
1, 135311, Control_c, 0, 64, 86
1, 135311, Control_c, 0, 67, 62
1, 135325, Control_c, 0, 64, 78
1, 135325, Control_c, 0, 67, 63
1, 135340, Control_c, 0, 64, 67
1, 135340, Control_c, 0, 67, 64
1, 135341, Note_on_c, 0, 65, 71
1, 135351, Note_on_c, 0, 53, 56
1, 135355, Control_c, 0, 64, 26
1, 135355, Control_c, 0, 67, 64
1, 135358, Note_on_c, 0, 57, 47
1, 135365, Note_on_c, 0, 60, 52
1, 135370, Control_c, 0, 64, 0
1, 135370, Control_c, 0, 67, 65
1, 135385, Control_c, 0, 67, 66
1, 135391, Note_on_c, 0, 48, 48
1, 135399, Control_c, 0, 67, 68
1, 135414, Control_c, 0, 64, 60
1, 135414, Control_c, 0, 67, 69
1, 135419, Note_off_c, 0, 53, 0
1, 135419, Note_on_c, 0, 53, 11
1, 135429, Control_c, 0, 64, 68
1, 135429, Control_c, 0, 67, 72
1, 135443, Control_c, 0, 64, 73
1, 135443, Control_c, 0, 67, 74
1, 135458, Control_c, 0, 64, 77
1, 135458, Control_c, 0, 67, 75
1, 135473, Control_c, 0, 64, 80
1, 135473, Control_c, 0, 67, 76
1, 135488, Control_c, 0, 64, 82
1, 135488, Control_c, 0, 67, 77
1, 135503, Control_c, 0, 64, 84
1, 135503, Control_c, 0, 67, 78
1, 135517, Control_c, 0, 64, 86
1, 135517, Control_c, 0, 67, 79
1, 135532, Control_c, 0, 64, 88
1, 135532, Control_c, 0, 67, 80
1, 135547, Control_c, 0, 64, 90
1, 135547, Control_c, 0, 67, 81
1, 135562, Control_c, 0, 64, 92
1, 135562, Control_c, 0, 67, 82
1, 135577, Control_c, 0, 64, 93
1, 135577, Control_c, 0, 67, 82
1, 135592, Control_c, 0, 64, 93
1, 135607, Control_c, 0, 67, 83
1, 135607, Note_off_c, 0, 57, 56
1, 135612, Note_off_c, 0, 60, 59
1, 135616, Note_off_c, 0, 53, 42
1, 135622, Control_c, 0, 64, 94
1, 135681, Control_c, 0, 67, 83
1, 135711, Control_c, 0, 64, 93
1, 135721, Note_on_c, 0, 60, 69
1, 135725, Control_c, 0, 64, 90
1, 135727, Note_on_c, 0, 57, 56
1, 135734, Note_on_c, 0, 53, 44
1, 135740, Control_c, 0, 64, 84
1, 135740, Control_c, 0, 67, 84
1, 135755, Control_c, 0, 64, 72
1, 135769, Control_c, 0, 64, 52
1, 135769, Control_c, 0, 67, 84
1, 135784, Control_c, 0, 64, 0
1, 135790, Note_off_c, 0, 65, 40
1, 135799, Control_c, 0, 67, 85
1, 135803, Note_off_c, 0, 53, 0
1, 135803, Note_on_c, 0, 53, 7
1, 135829, Control_c, 0, 64, 59
1, 135843, Control_c, 0, 64, 69
1, 135843, Control_c, 0, 67, 85
1, 135858, Control_c, 0, 64, 76
1, 135858, Control_c, 0, 67, 86
1, 135873, Control_c, 0, 64, 80
1, 135887, Control_c, 0, 64, 81
1, 135887, Control_c, 0, 67, 86
1, 135902, Control_c, 0, 64, 82
1, 135917, Control_c, 0, 64, 83
1, 135924, Note_off_c, 0, 60, 57
1, 135932, Control_c, 0, 64, 84
1, 135932, Control_c, 0, 67, 86
1, 135946, Control_c, 0, 64, 85
1, 135952, Note_off_c, 0, 57, 56
1, 135962, Control_c, 0, 64, 86
1, 135991, Control_c, 0, 64, 86
1, 135999, Note_off_c, 0, 53, 46
1, 136021, Control_c, 0, 64, 87
1, 136103, Note_on_c, 0, 62, 68
1, 136103, Control_c, 0, 64, 85
1, 136118, Control_c, 0, 64, 80
1, 136120, Note_on_c, 0, 53, 45
1, 136121, Note_on_c, 0, 57, 50
1, 136133, Control_c, 0, 64, 70
1, 136147, Control_c, 0, 64, 48
1, 136162, Control_c, 0, 64, 0
1, 136188, Note_off_c, 0, 53, 0
1, 136188, Note_on_c, 0, 53, 3
1, 136206, Control_c, 0, 67, 86
1, 136221, Control_c, 0, 64, 62
1, 136236, Control_c, 0, 64, 68
1, 136236, Control_c, 0, 67, 87
1, 136251, Control_c, 0, 64, 72
1, 136251, Control_c, 0, 67, 87
1, 136265, Control_c, 0, 64, 74
1, 136265, Control_c, 0, 67, 89
1, 136266, Note_off_c, 0, 45, 62
1, 136280, Control_c, 0, 64, 75
1, 136280, Control_c, 0, 67, 91
1, 136295, Control_c, 0, 64, 76
1, 136295, Control_c, 0, 67, 92
1, 136310, Control_c, 0, 64, 77
1, 136310, Control_c, 0, 67, 94
1, 136325, Control_c, 0, 64, 79
1, 136325, Control_c, 0, 67, 96
1, 136340, Control_c, 0, 64, 80
1, 136340, Control_c, 0, 67, 98
1, 136342, Note_off_c, 0, 57, 51
1, 136353, Note_off_c, 0, 48, 43
1, 136355, Control_c, 0, 64, 81
1, 136355, Control_c, 0, 67, 101
1, 136363, Note_off_c, 0, 53, 43
1, 136370, Control_c, 0, 64, 82
1, 136370, Control_c, 0, 67, 104
1, 136384, Control_c, 0, 67, 106
1, 136399, Control_c, 0, 64, 82
1, 136399, Control_c, 0, 67, 108
1, 136414, Control_c, 0, 67, 110
1, 136429, Control_c, 0, 67, 111
1, 136444, Control_c, 0, 67, 111
1, 136458, Control_c, 0, 64, 81
1, 136458, Control_c, 0, 67, 112
1, 136469, Note_on_c, 0, 57, 60
1, 136473, Control_c, 0, 64, 76
1, 136473, Control_c, 0, 67, 112
1, 136476, Note_on_c, 0, 53, 48
1, 136488, Control_c, 0, 64, 66
1, 136488, Control_c, 0, 67, 113
1, 136489, Note_off_c, 0, 62, 50
1, 136494, Note_on_c, 0, 50, 43
1, 136503, Control_c, 0, 64, 0
1, 136562, Control_c, 0, 64, 33
1, 136562, Control_c, 0, 67, 113
1, 136577, Control_c, 0, 64, 65
1, 136591, Control_c, 0, 64, 70
1, 136606, Control_c, 0, 64, 74
1, 136621, Control_c, 0, 64, 77
1, 136636, Control_c, 0, 64, 77
1, 136651, Control_c, 0, 64, 78
1, 136665, Control_c, 0, 64, 79
1, 136680, Control_c, 0, 64, 80
1, 136680, Control_c, 0, 67, 114
1, 136689, Note_off_c, 0, 35, 39
1, 136695, Control_c, 0, 64, 80
1, 136695, Control_c, 0, 67, 115
1, 136710, Control_c, 0, 64, 81
1, 136710, Control_c, 0, 67, 117
1, 136725, Control_c, 0, 67, 119
1, 136732, Note_off_c, 0, 50, 41
1, 136739, Control_c, 0, 67, 121
1, 136755, Control_c, 0, 67, 122
1, 136756, Note_off_c, 0, 57, 53
1, 136770, Control_c, 0, 67, 122
1, 136772, Note_off_c, 0, 53, 43
1, 136793, Control_c, 0, 67, 123
1, 136808, Control_c, 0, 67, 124
1, 136822, Control_c, 0, 67, 125
1, 136837, Control_c, 0, 67, 125
1, 136852, Control_c, 0, 67, 126
1, 136867, Control_c, 0, 64, 80
1, 136867, Control_c, 0, 67, 127
1, 136882, Control_c, 0, 64, 78
1, 136896, Note_on_c, 0, 57, 53
1, 136896, Control_c, 0, 64, 72
1, 136896, Control_c, 0, 67, 127
1, 136911, Control_c, 0, 64, 62
1, 136912, Note_on_c, 0, 53, 35
1, 136924, Note_on_c, 0, 41, 36
1, 136926, Note_on_c, 0, 45, 33
1, 136926, Control_c, 0, 64, 0
1, 136930, Note_on_c, 0, 48, 35
1, 136937, Note_on_c, 0, 35, 28
1, 137014, Control_c, 0, 64, 24
1, 137029, Control_c, 0, 64, 62
1, 137044, Control_c, 0, 64, 66
1, 137059, Control_c, 0, 64, 68
1, 137074, Control_c, 0, 64, 70
1, 137088, Note_off_c, 0, 48, 44
1, 137088, Control_c, 0, 64, 72
1, 137103, Control_c, 0, 64, 74
1, 137118, Control_c, 0, 64, 75
1, 137133, Control_c, 0, 64, 77
1, 137148, Control_c, 0, 64, 78
1, 137163, Control_c, 0, 64, 79
1, 137178, Control_c, 0, 64, 80
1, 137193, Control_c, 0, 64, 80
1, 137222, Control_c, 0, 67, 127
1, 137225, Note_off_c, 0, 53, 36
1, 137311, Control_c, 0, 64, 79
1, 137319, Note_off_c, 0, 57, 60
1, 137326, Control_c, 0, 64, 75
1, 137340, Control_c, 0, 64, 67
1, 137344, Note_on_c, 0, 60, 46
1, 137355, Control_c, 0, 64, 44
1, 137356, Note_on_c, 0, 52, 41
1, 137370, Control_c, 0, 64, 0
1, 137414, Control_c, 0, 67, 126
1, 137459, Control_c, 0, 64, 56
1, 137474, Control_c, 0, 64, 64
1, 137488, Control_c, 0, 64, 67
1, 137503, Control_c, 0, 64, 69
1, 137518, Control_c, 0, 64, 71
1, 137518, Control_c, 0, 67, 126
1, 137540, Control_c, 0, 64, 74
1, 137552, Note_off_c, 0, 41, 43
1, 137555, Control_c, 0, 64, 76
1, 137555, Control_c, 0, 67, 125
1, 137562, Note_off_c, 0, 35, 39
1, 137571, Control_c, 0, 64, 78
1, 137586, Control_c, 0, 64, 80
1, 137601, Control_c, 0, 64, 82
1, 137613, Note_off_c, 0, 60, 52
1, 137616, Control_c, 0, 64, 84
1, 137631, Control_c, 0, 64, 85
1, 137660, Control_c, 0, 64, 85
1, 137675, Control_c, 0, 67, 125
1, 137702, Note_off_c, 0, 45, 29
1, 137822, Note_off_c, 0, 52, 38
1, 137897, Control_c, 0, 67, 124
1, 137905, Note_on_c, 0, 59, 46
1, 137911, Control_c, 0, 64, 83
1, 137917, Note_on_c, 0, 51, 30
1, 137919, Note_on_c, 0, 42, 36
1, 137926, Control_c, 0, 64, 79
1, 137927, Note_on_c, 0, 35, 32
1, 137932, Note_on_c, 0, 57, 44
1, 137941, Control_c, 0, 64, 72
1, 137956, Control_c, 0, 64, 60
1, 137971, Control_c, 0, 64, 0
1, 137971, Control_c, 0, 67, 124
1, 138060, Control_c, 0, 64, 40
1, 138075, Control_c, 0, 64, 58
1, 138075, Control_c, 0, 67, 123
1, 138090, Control_c, 0, 64, 63
1, 138104, Control_c, 0, 64, 65
1, 138104, Control_c, 0, 67, 123
1, 138119, Control_c, 0, 64, 66
1, 138119, Control_c, 0, 67, 122
1, 138134, Control_c, 0, 64, 68
1, 138149, Control_c, 0, 64, 69
1, 138149, Control_c, 0, 67, 122
1, 138158, Note_off_c, 0, 35, 41
1, 138164, Control_c, 0, 64, 71
1, 138179, Control_c, 0, 64, 73
1, 138194, Control_c, 0, 64, 74
1, 138209, Control_c, 0, 64, 75
1, 138209, Control_c, 0, 67, 121
1, 138224, Control_c, 0, 64, 76
1, 138230, Note_off_c, 0, 42, 36
1, 138238, Control_c, 0, 67, 121
1, 138247, Note_off_c, 0, 59, 35
1, 138268, Control_c, 0, 64, 76
1, 138268, Control_c, 0, 67, 120
1, 138290, Control_c, 0, 67, 120
1, 138340, Note_off_c, 0, 57, 35
1, 138424, Control_c, 0, 67, 119
1, 138482, Note_on_c, 0, 42, 50
1, 138483, Control_c, 0, 64, 76
1, 138498, Control_c, 0, 67, 119
1, 138512, Note_off_c, 0, 51, 22
1, 138513, Control_c, 0, 64, 75
1, 138528, Control_c, 0, 64, 75
1, 138543, Control_c, 0, 64, 74
1, 138558, Control_c, 0, 64, 73
1, 138573, Control_c, 0, 64, 72
1, 138587, Control_c, 0, 64, 71
1, 138602, Control_c, 0, 64, 70
1, 138617, Control_c, 0, 64, 68
1, 138632, Control_c, 0, 64, 67
1, 138632, Control_c, 0, 67, 118
1, 138647, Control_c, 0, 64, 66
1, 138661, Control_c, 0, 64, 65
1, 138673, Note_on_c, 0, 54, 34
1, 138676, Control_c, 0, 64, 65
1, 138706, Control_c, 0, 64, 64
1, 138706, Control_c, 0, 67, 118
1, 138721, Control_c, 0, 64, 63
1, 138735, Control_c, 0, 64, 63
1, 138750, Control_c, 0, 64, 62
1, 138765, Control_c, 0, 64, 61
1, 138779, Control_c, 0, 64, 59
1, 138794, Control_c, 0, 64, 58
1, 138809, Control_c, 0, 64, 56
1, 138809, Control_c, 0, 67, 117
1, 138817, Note_off_c, 0, 42, 57
1, 138824, Control_c, 0, 64, 55
1, 138831, Note_on_c, 0, 39, 43
1, 138839, Control_c, 0, 64, 54
1, 138853, Control_c, 0, 64, 52
1, 138853, Control_c, 0, 67, 117
1, 138868, Control_c, 0, 64, 51
1, 138883, Control_c, 0, 64, 49
1, 138898, Control_c, 0, 64, 48
1, 138913, Control_c, 0, 64, 47
1, 138927, Control_c, 0, 64, 46
1, 138942, Control_c, 0, 64, 45
1, 138957, Control_c, 0, 64, 44
1, 138957, Control_c, 0, 67, 116
1, 138972, Control_c, 0, 64, 43
1, 138988, Note_on_c, 0, 51, 47
1, 139002, Control_c, 0, 64, 42
1, 139017, Note_off_c, 0, 54, 36
1, 139039, Control_c, 0, 67, 116
1, 139054, Control_c, 0, 64, 42
1, 139054, Control_c, 0, 67, 115
1, 139068, Control_c, 0, 67, 115
1, 139083, Control_c, 0, 64, 41
1, 139083, Control_c, 0, 67, 112
1, 139098, Control_c, 0, 67, 110
1, 139113, Control_c, 0, 67, 106
1, 139128, Control_c, 0, 67, 103
1, 139141, Note_on_c, 0, 42, 51
1, 139142, Control_c, 0, 67, 99
1, 139146, Note_off_c, 0, 39, 48
1, 139158, Control_c, 0, 67, 96
1, 139173, Control_c, 0, 67, 92
1, 139188, Control_c, 0, 67, 88
1, 139203, Control_c, 0, 67, 84
1, 139217, Control_c, 0, 67, 79
1, 139232, Control_c, 0, 67, 74
1, 139247, Control_c, 0, 67, 69
1, 139262, Control_c, 0, 67, 64
1, 139277, Control_c, 0, 67, 59
1, 139291, Control_c, 0, 67, 55
1, 139306, Control_c, 0, 64, 42
1, 139306, Control_c, 0, 67, 51
1, 139316, Note_on_c, 0, 54, 51
1, 139321, Control_c, 0, 67, 48
1, 139336, Control_c, 0, 64, 42
1, 139336, Control_c, 0, 67, 46
1, 139351, Control_c, 0, 67, 44
1, 139366, Control_c, 0, 67, 42
1, 139380, Control_c, 0, 67, 41
1, 139395, Control_c, 0, 64, 43
1, 139395, Control_c, 0, 67, 39
1, 139410, Control_c, 0, 67, 37
1, 139425, Control_c, 0, 67, 34
1, 139440, Control_c, 0, 67, 31
1, 139455, Control_c, 0, 64, 43
1, 139455, Control_c, 0, 67, 29
1, 139463, Note_on_c, 0, 43, 55
1, 139465, Note_off_c, 0, 42, 51
1, 139470, Control_c, 0, 67, 27
1, 139476, Note_off_c, 0, 51, 27
1, 139484, Control_c, 0, 67, 26
1, 139499, Control_c, 0, 64, 44
1, 139499, Control_c, 0, 67, 25
1, 139514, Control_c, 0, 67, 23
1, 139529, Control_c, 0, 64, 44
1, 139529, Control_c, 0, 67, 22
1, 139544, Control_c, 0, 67, 21
1, 139558, Control_c, 0, 64, 45
1, 139558, Control_c, 0, 67, 19
1, 139573, Control_c, 0, 67, 18
1, 139588, Control_c, 0, 67, 17
1, 139602, Control_c, 0, 64, 45
1, 139602, Control_c, 0, 67, 16
1, 139617, Control_c, 0, 67, 15
1, 139632, Control_c, 0, 64, 46
1, 139632, Control_c, 0, 67, 14
1, 139647, Control_c, 0, 67, 13
1, 139652, Note_on_c, 0, 55, 47
1, 139662, Control_c, 0, 67, 11
1, 139676, Control_c, 0, 64, 46
1, 139676, Control_c, 0, 67, 10
1, 139691, Control_c, 0, 67, 9
1, 139696, Note_off_c, 0, 54, 35
1, 139706, Control_c, 0, 64, 47
1, 139706, Control_c, 0, 67, 8
1, 139721, Control_c, 0, 67, 0
1, 139750, Control_c, 0, 64, 47
1, 139803, Control_c, 0, 64, 48
1, 139810, Note_on_c, 0, 47, 59
1, 139817, Control_c, 0, 64, 48
1, 139877, Control_c, 0, 64, 49
1, 139887, Note_off_c, 0, 43, 37
1, 139906, Control_c, 0, 64, 49
1, 139977, Note_on_c, 0, 59, 58
1, 139979, Note_off_c, 0, 55, 53
1, 140026, Control_c, 0, 64, 50
1, 140070, Control_c, 0, 64, 50
1, 140100, Control_c, 0, 64, 51
1, 140129, Control_c, 0, 64, 51
1, 140134, Note_on_c, 0, 43, 65
1, 140159, Control_c, 0, 64, 52
1, 140179, Note_off_c, 0, 47, 51
1, 140248, Control_c, 0, 64, 52
1, 140293, Control_c, 0, 64, 53
1, 140299, Note_on_c, 0, 55, 55
1, 140329, Note_off_c, 0, 59, 37
1, 140395, Control_c, 0, 64, 53
1, 140443, Note_on_c, 0, 42, 62
1, 140484, Control_c, 0, 64, 54
1, 140552, Note_off_c, 0, 43, 36
1, 140595, Control_c, 0, 64, 54
1, 140622, Note_on_c, 0, 54, 57
1, 140624, Note_off_c, 0, 55, 60
1, 140654, Control_c, 0, 64, 55
1, 140728, Control_c, 0, 64, 55
1, 140761, Note_on_c, 0, 39, 63
1, 140764, Note_off_c, 0, 42, 61
1, 140928, Note_on_c, 0, 51, 55
1, 140929, Note_off_c, 0, 54, 61
1, 140996, Control_c, 0, 64, 56
1, 141059, Note_off_c, 0, 39, 62
1, 141060, Note_on_c, 0, 35, 62
1, 141261, Note_off_c, 0, 51, 49
1, 141267, Note_on_c, 0, 47, 29
1, 141330, Control_c, 0, 64, 55
1, 141390, Note_on_c, 0, 39, 53
1, 141448, Control_c, 0, 64, 55
1, 141483, Note_off_c, 0, 35, 34
1, 141555, Note_on_c, 0, 51, 47
1, 141584, Note_off_c, 0, 47, 39
1, 141611, Control_c, 0, 64, 54
1, 141680, Note_on_c, 0, 42, 53
1, 141711, Note_off_c, 0, 39, 54
1, 141715, Control_c, 0, 67, 8
1, 141730, Control_c, 0, 67, 9
1, 141745, Control_c, 0, 67, 11
1, 141759, Control_c, 0, 67, 13
1, 141774, Control_c, 0, 67, 15
1, 141789, Control_c, 0, 67, 17
1, 141804, Control_c, 0, 67, 19
1, 141819, Control_c, 0, 64, 54
1, 141819, Control_c, 0, 67, 21
1, 141834, Control_c, 0, 67, 23
1, 141838, Note_on_c, 0, 54, 54
1, 141849, Control_c, 0, 67, 26
1, 141864, Control_c, 0, 67, 29
1, 141878, Control_c, 0, 67, 33
1, 141893, Control_c, 0, 67, 37
1, 141908, Control_c, 0, 67, 41
1, 141923, Control_c, 0, 67, 46
1, 141938, Control_c, 0, 67, 53
1, 141951, Note_off_c, 0, 51, 25
1, 141952, Control_c, 0, 67, 57
1, 141967, Control_c, 0, 67, 62
1, 141982, Control_c, 0, 67, 66
1, 141992, Note_on_c, 0, 43, 57
1, 141997, Control_c, 0, 67, 70
1, 142011, Control_c, 0, 67, 74
1, 142028, Note_off_c, 0, 42, 54
1, 142034, Control_c, 0, 67, 76
1, 142048, Control_c, 0, 64, 53
1, 142048, Control_c, 0, 67, 77
1, 142063, Control_c, 0, 67, 78
1, 142078, Control_c, 0, 67, 78
1, 142093, Control_c, 0, 67, 79
1, 142108, Control_c, 0, 67, 79
1, 142123, Control_c, 0, 67, 80
1, 142137, Control_c, 0, 67, 81
1, 142152, Control_c, 0, 67, 83
1, 142167, Control_c, 0, 67, 85
1, 142174, Note_on_c, 0, 55, 51
1, 142182, Control_c, 0, 67, 87
1, 142197, Control_c, 0, 67, 89
1, 142206, Note_off_c, 0, 54, 37
1, 142211, Control_c, 0, 64, 53
1, 142211, Control_c, 0, 67, 91
1, 142226, Control_c, 0, 67, 93
1, 142241, Control_c, 0, 67, 95
1, 142256, Control_c, 0, 64, 52
1, 142256, Control_c, 0, 67, 97
1, 142271, Control_c, 0, 67, 98
1, 142285, Control_c, 0, 67, 99
1, 142300, Control_c, 0, 64, 52
1, 142300, Control_c, 0, 67, 101
1, 142315, Control_c, 0, 67, 102
1, 142320, Note_on_c, 0, 42, 55
1, 142329, Control_c, 0, 64, 51
1, 142329, Control_c, 0, 67, 103
1, 142344, Control_c, 0, 64, 51
1, 142344, Control_c, 0, 67, 105
1, 142361, Control_c, 0, 67, 107
1, 142376, Control_c, 0, 64, 50
1, 142376, Control_c, 0, 67, 109
1, 142382, Note_off_c, 0, 43, 33
1, 142390, Control_c, 0, 67, 111
1, 142405, Control_c, 0, 64, 49
1, 142405, Control_c, 0, 67, 113
1, 142420, Control_c, 0, 67, 116
1, 142434, Control_c, 0, 64, 49
1, 142434, Control_c, 0, 67, 119
1, 142438, Note_off_c, 0, 55, 55
1, 142449, Control_c, 0, 64, 48
1, 142449, Control_c, 0, 67, 123
1, 142450, Note_on_c, 0, 54, 51
1, 142464, Control_c, 0, 67, 126
1, 142479, Control_c, 0, 67, 127
1, 142616, Note_on_c, 0, 39, 47
1, 142628, Note_off_c, 0, 42, 53
1, 142782, Note_on_c, 0, 51, 42
1, 142809, Note_off_c, 0, 54, 36
1, 142826, Control_c, 0, 64, 48
1, 142841, Control_c, 0, 64, 47
1, 142949, Note_on_c, 0, 36, 46
1, 142950, Note_off_c, 0, 39, 56
1, 143078, Control_c, 0, 64, 47
1, 143115, Note_on_c, 0, 48, 32
1, 143123, Note_off_c, 0, 51, 37
1, 143250, Note_on_c, 0, 35, 47
1, 143263, Note_off_c, 0, 36, 41
1, 143406, Note_on_c, 0, 47, 49
1, 143420, Note_off_c, 0, 48, 39
1, 143435, Control_c, 0, 64, 46
1, 143464, Control_c, 0, 64, 46
1, 143560, Control_c, 0, 64, 45
1, 143587, Note_on_c, 0, 31, 46
1, 143607, Note_off_c, 0, 35, 42
1, 143634, Control_c, 0, 64, 45
1, 143649, Control_c, 0, 64, 44
1, 143664, Control_c, 0, 64, 43
1, 143679, Control_c, 0, 64, 43
1, 143713, Note_off_c, 0, 47, 54
1, 143723, Control_c, 0, 64, 42
1, 143729, Note_on_c, 0, 43, 46
1, 143753, Control_c, 0, 64, 41
1, 143768, Control_c, 0, 64, 41
1, 143782, Control_c, 0, 64, 40
1, 143827, Control_c, 0, 64, 39
1, 143871, Control_c, 0, 64, 39
1, 143900, Control_c, 0, 64, 38
1, 143903, Note_off_c, 0, 31, 51
1, 143909, Note_on_c, 0, 30, 37
1, 143930, Control_c, 0, 64, 38
1, 143945, Control_c, 0, 64, 37
1, 143961, Control_c, 0, 64, 36
1, 144005, Control_c, 0, 64, 35
1, 144035, Control_c, 0, 64, 34
1, 144065, Control_c, 0, 64, 34
1, 144077, Note_off_c, 0, 43, 42
1, 144079, Note_on_c, 0, 42, 43
1, 144124, Control_c, 0, 64, 33
1, 144168, Control_c, 0, 64, 32
1, 144198, Control_c, 0, 64, 31
1, 144236, Note_on_c, 0, 36, 42
1, 144266, Note_off_c, 0, 30, 37
1, 144279, Control_c, 0, 64, 30
1, 144368, Control_c, 0, 64, 29
1, 144412, Note_on_c, 0, 48, 48
1, 144451, Note_off_c, 0, 42, 36
1, 144457, Control_c, 0, 64, 28
1, 144487, Control_c, 0, 64, 27
1, 144502, Control_c, 0, 64, 26
1, 144588, Note_on_c, 0, 35, 43
1, 144609, Note_off_c, 0, 36, 42
1, 144635, Control_c, 0, 64, 25
1, 144751, Note_off_c, 0, 48, 58
1, 144755, Control_c, 0, 64, 24
1, 144771, Note_on_c, 0, 47, 47
1, 144814, Control_c, 0, 64, 23
1, 144828, Control_c, 0, 64, 21
1, 144843, Control_c, 0, 64, 20
1, 144858, Control_c, 0, 64, 16
1, 144874, Control_c, 0, 64, 13
1, 144889, Control_c, 0, 64, 10
1, 144903, Control_c, 0, 64, 0
1, 144957, Note_on_c, 0, 31, 42
1, 144986, Note_off_c, 0, 35, 41
1, 145162, Note_on_c, 0, 43, 39
1, 145170, Note_off_c, 0, 47, 41
1, 145295, Control_c, 0, 64, 10
1, 145354, Control_c, 0, 64, 13
1, 145399, Control_c, 0, 64, 16
1, 145403, Note_on_c, 0, 30, 44
1, 145436, Note_off_c, 0, 31, 40
1, 145688, Note_on_c, 0, 42, 35
1, 145689, Note_off_c, 0, 43, 41
1, 145792, Control_c, 0, 64, 18
1, 145973, Note_on_c, 0, 35, 36
1, 145974, Note_off_c, 0, 30, 41
1, 146000, Control_c, 0, 64, 20
1, 146133, Control_c, 0, 64, 21
1, 146148, Control_c, 0, 64, 23
1, 146177, Control_c, 0, 64, 24
1, 146207, Control_c, 0, 64, 25
1, 146251, Control_c, 0, 64, 26
1, 146266, Control_c, 0, 64, 27
1, 146281, Control_c, 0, 64, 28
1, 146296, Control_c, 0, 64, 30
1, 146311, Control_c, 0, 64, 31
1, 146326, Control_c, 0, 64, 32
1, 146435, Note_on_c, 0, 47, 37
1, 146457, Note_off_c, 0, 42, 39
1, 146489, Control_c, 0, 64, 33
1, 146504, Control_c, 0, 64, 34
1, 146526, Control_c, 0, 64, 36
1, 146541, Control_c, 0, 64, 41
1, 146556, Control_c, 0, 64, 45
1, 146570, Control_c, 0, 64, 49
1, 146585, Control_c, 0, 64, 53
1, 146600, Control_c, 0, 64, 56
1, 146615, Control_c, 0, 64, 59
1, 146630, Control_c, 0, 64, 61
1, 146645, Control_c, 0, 64, 63
1, 146660, Control_c, 0, 64, 64
1, 146674, Control_c, 0, 64, 65
1, 146689, Control_c, 0, 64, 66
1, 146704, Control_c, 0, 64, 67
1, 146719, Control_c, 0, 64, 68
1, 146722, Note_off_c, 0, 35, 43
1, 146733, Control_c, 0, 64, 70
1, 146748, Control_c, 0, 64, 71
1, 146763, Control_c, 0, 64, 73
1, 146778, Control_c, 0, 64, 75
1, 146791, Note_off_c, 0, 47, 34
1, 146793, Control_c, 0, 64, 77
1, 146807, Control_c, 0, 64, 78
1, 146822, Control_c, 0, 64, 79
1, 146837, Control_c, 0, 64, 80
1, 146852, Control_c, 0, 64, 81
1, 146867, Control_c, 0, 64, 82
1, 146881, Control_c, 0, 64, 82
1, 146896, Control_c, 0, 64, 83
1, 146911, Control_c, 0, 64, 84
1, 146925, Control_c, 0, 64, 84
1, 146955, Control_c, 0, 64, 85
1, 146970, Control_c, 0, 64, 85
1, 147000, Control_c, 0, 64, 86
1, 147029, Control_c, 0, 64, 86
1, 147044, Control_c, 0, 64, 87
1, 147104, Control_c, 0, 64, 87
1, 147867, Control_c, 0, 64, 87
1, 147882, Control_c, 0, 64, 85
1, 147883, Note_on_c, 0, 31, 39
1, 147897, Control_c, 0, 64, 80
1, 147912, Control_c, 0, 64, 72
1, 147927, Control_c, 0, 64, 60
1, 147942, Control_c, 0, 64, 0
1, 148001, Control_c, 0, 64, 57
1, 148024, Control_c, 0, 64, 64
1, 148039, Control_c, 0, 64, 66
1, 148053, Control_c, 0, 64, 67
1, 148055, Note_off_c, 0, 31, 43
1, 148068, Control_c, 0, 64, 68
1, 148083, Control_c, 0, 64, 70
1, 148098, Control_c, 0, 64, 71
1, 148112, Note_on_c, 0, 38, 19
1, 148113, Control_c, 0, 64, 73
1, 148127, Control_c, 0, 64, 74
1, 148142, Control_c, 0, 64, 76
1, 148157, Control_c, 0, 64, 77
1, 148171, Control_c, 0, 64, 78
1, 148201, Control_c, 0, 64, 78
1, 148246, Control_c, 0, 64, 79
1, 148267, Note_off_c, 0, 38, 36
1, 148270, Note_on_c, 0, 71, 42
1, 148276, Control_c, 0, 64, 79
1, 148305, Note_on_c, 0, 43, 21
1, 148305, Control_c, 0, 64, 80
1, 148320, Poly_aftertouch_c, 0, 62, 127
1, 148335, Control_c, 0, 64, 80
1, 148342, Poly_aftertouch_c, 0, 67, 127
1, 148364, Control_c, 0, 64, 81
1, 148398, Poly_aftertouch_c, 0, 67, 0
1, 148404, Note_off_c, 0, 71, 22
1, 148418, Poly_aftertouch_c, 0, 62, 0
1, 148424, Control_c, 0, 64, 81
1, 148441, Note_on_c, 0, 50, 30
1, 148481, Note_off_c, 0, 43, 32
1, 148483, Control_c, 0, 64, 82
1, 148579, Note_on_c, 0, 67, 43
1, 148583, Note_on_c, 0, 62, 32
1, 148592, Note_on_c, 0, 59, 30
1, 148690, Control_c, 0, 64, 82
1, 148728, Note_off_c, 0, 59, 21
1, 148732, Note_off_c, 0, 50, 37
1, 148738, Note_on_c, 0, 43, 37
1, 148753, Note_off_c, 0, 67, 31
1, 148770, Note_off_c, 0, 62, 35
1, 148853, Note_off_c, 0, 43, 37
1, 148872, Note_on_c, 0, 71, 51
1, 148889, Note_on_c, 0, 62, 25
1, 148906, Note_on_c, 0, 38, 31
1, 148921, Control_c, 0, 64, 83
1, 148931, Note_off_c, 0, 62, 47
1, 148946, Poly_aftertouch_c, 0, 67, 127
1, 148995, Poly_aftertouch_c, 0, 67, 0
1, 148995, Control_c, 0, 64, 83
1, 148997, Note_off_c, 0, 71, 55
1, 149012, Note_off_c, 0, 38, 33
1, 149042, Note_on_c, 0, 31, 27
1, 149185, Note_on_c, 0, 74, 50
1, 149195, Note_on_c, 0, 67, 40
1, 149210, Note_on_c, 0, 71, 30
1, 149247, Note_off_c, 0, 31, 34
1, 149277, Control_c, 0, 64, 84
1, 149313, Note_off_c, 0, 67, 39
1, 149330, Note_off_c, 0, 74, 44
1, 149345, Note_off_c, 0, 71, 33
1, 149358, Note_on_c, 0, 38, 24
1, 149458, Note_off_c, 0, 38, 33
1, 149470, Note_on_c, 0, 76, 52
1, 149489, Note_on_c, 0, 71, 28
1, 149498, Note_on_c, 0, 67, 11
1, 149501, Note_on_c, 0, 43, 34
1, 149608, Note_off_c, 0, 67, 34
1, 149633, Note_off_c, 0, 71, 36
1, 149636, Note_off_c, 0, 76, 38
1, 149639, Note_on_c, 0, 50, 34
1, 149650, Note_off_c, 0, 43, 39
1, 149762, Note_on_c, 0, 74, 51
1, 149767, Note_on_c, 0, 67, 37
1, 149778, Note_on_c, 0, 71, 23
1, 149789, Control_c, 0, 64, 84
1, 149873, Note_off_c, 0, 50, 33
1, 149873, Note_off_c, 0, 74, 49
1, 149887, Note_off_c, 0, 71, 29
1, 149889, Note_on_c, 0, 43, 41
1, 149915, Note_off_c, 0, 67, 40
1, 149998, Note_off_c, 0, 43, 37
1, 150043, Note_on_c, 0, 38, 35
1, 150063, Note_on_c, 0, 71, 55
1, 150075, Note_on_c, 0, 62, 35
1, 150115, Control_c, 0, 64, 85
1, 150127, Poly_aftertouch_c, 0, 67, 127
1, 150183, Note_off_c, 0, 71, 51
1, 150185, Poly_aftertouch_c, 0, 67, 0
1, 150192, Note_off_c, 0, 38, 35
1, 150209, Note_on_c, 0, 31, 34
1, 150209, Note_off_c, 0, 62, 39
1, 150374, Note_on_c, 0, 67, 47
1, 150378, Note_on_c, 0, 62, 34
1, 150389, Note_on_c, 0, 59, 23
1, 150425, Note_off_c, 0, 31, 36
1, 150492, Note_on_c, 0, 38, 40
1, 150514, Note_off_c, 0, 59, 40
1, 150535, Note_off_c, 0, 67, 37
1, 150536, Note_off_c, 0, 62, 39
1, 150641, Control_c, 0, 64, 85
1, 150651, Note_on_c, 0, 62, 40
1, 150657, Note_on_c, 0, 71, 50
1, 150663, Note_off_c, 0, 38, 34
1, 150672, Note_on_c, 0, 67, 31
1, 150681, Note_on_c, 0, 43, 40
1, 150701, Control_c, 0, 64, 86
1, 150711, Note_off_c, 0, 62, 45
1, 150745, Control_c, 0, 64, 86
1, 150750, Note_off_c, 0, 67, 33
1, 150774, Control_c, 0, 67, 126
1, 150779, Note_off_c, 0, 71, 51
1, 150789, Control_c, 0, 67, 124
1, 150804, Control_c, 0, 67, 122
1, 150819, Control_c, 0, 67, 121
1, 150833, Control_c, 0, 67, 119
1, 150842, Note_off_c, 0, 43, 37
1, 150848, Control_c, 0, 67, 117
1, 150863, Control_c, 0, 67, 116
1, 150875, Poly_aftertouch_c, 0, 50, 127
1, 150878, Control_c, 0, 67, 114
1, 150892, Control_c, 0, 67, 113
1, 150907, Control_c, 0, 67, 112
1, 150922, Control_c, 0, 67, 111
1, 150937, Control_c, 0, 64, 87
1, 150937, Control_c, 0, 67, 110
1, 150945, Note_on_c, 0, 74, 52
1, 150952, Control_c, 0, 67, 109
1, 150966, Control_c, 0, 67, 107
1, 150975, Note_on_c, 0, 71, 24
1, 150981, Control_c, 0, 67, 106
1, 150984, Note_on_c, 0, 67, 17
1, 150996, Control_c, 0, 67, 104
1, 151018, Control_c, 0, 67, 103
1, 151033, Control_c, 0, 67, 101
1, 151048, Control_c, 0, 67, 99
1, 151063, Control_c, 0, 67, 97
1, 151078, Control_c, 0, 67, 94
1, 151086, Note_off_c, 0, 67, 36
1, 151092, Control_c, 0, 67, 91
1, 151096, Poly_aftertouch_c, 0, 50, 0
1, 151098, Note_off_c, 0, 74, 51
1, 151107, Control_c, 0, 67, 88
1, 151110, Note_on_c, 0, 43, 39
1, 151122, Control_c, 0, 67, 85
1, 151125, Note_off_c, 0, 71, 36
1, 151137, Control_c, 0, 67, 82
1, 151152, Control_c, 0, 67, 79
1, 151167, Control_c, 0, 67, 76
1, 151182, Control_c, 0, 67, 73
1, 151197, Control_c, 0, 67, 71
1, 151212, Control_c, 0, 67, 69
1, 151227, Control_c, 0, 67, 67
1, 151242, Control_c, 0, 67, 64
1, 151246, Note_on_c, 0, 76, 53
1, 151247, Note_off_c, 0, 43, 36
1, 151256, Control_c, 0, 67, 62
1, 151262, Note_on_c, 0, 71, 32
1, 151271, Control_c, 0, 67, 60
1, 151272, Note_on_c, 0, 67, 22
1, 151286, Control_c, 0, 67, 59
1, 151288, Note_on_c, 0, 38, 31
1, 151301, Control_c, 0, 67, 57
1, 151315, Control_c, 0, 67, 55
1, 151325, Note_off_c, 0, 67, 45
1, 151330, Control_c, 0, 67, 54
1, 151345, Control_c, 0, 67, 52
1, 151360, Control_c, 0, 67, 51
1, 151375, Note_off_c, 0, 71, 34
1, 151375, Control_c, 0, 67, 49
1, 151380, Note_off_c, 0, 76, 58
1, 151389, Control_c, 0, 67, 48
1, 151404, Control_c, 0, 67, 47
1, 151419, Control_c, 0, 67, 46
1, 151425, Note_off_c, 0, 38, 38
1, 151434, Control_c, 0, 67, 45
1, 151437, Note_on_c, 0, 31, 30
1, 151449, Control_c, 0, 67, 44
1, 151463, Control_c, 0, 67, 43
1, 151478, Control_c, 0, 67, 42
1, 151493, Control_c, 0, 67, 41
1, 151508, Control_c, 0, 67, 40
1, 151522, Control_c, 0, 67, 39
1, 151537, Control_c, 0, 67, 38
1, 151552, Note_on_c, 0, 79, 59
1, 151552, Control_c, 0, 67, 38
1, 151563, Note_on_c, 0, 74, 44
1, 151567, Control_c, 0, 67, 37
1, 151571, Note_on_c, 0, 71, 39
1, 151574, Note_off_c, 0, 31, 28
1, 151582, Control_c, 0, 67, 36
1, 151596, Control_c, 0, 67, 35
1, 151612, Control_c, 0, 67, 34
1, 151627, Control_c, 0, 67, 33
1, 151642, Control_c, 0, 67, 32
1, 151656, Control_c, 0, 67, 31
1, 151671, Control_c, 0, 67, 30
1, 151686, Control_c, 0, 67, 29
1, 151695, Note_off_c, 0, 79, 52
1, 151699, Note_on_c, 0, 38, 35
1, 151701, Note_off_c, 0, 71, 22
1, 151701, Control_c, 0, 67, 28
1, 151715, Control_c, 0, 67, 27
1, 151727, Note_off_c, 0, 74, 42
1, 151730, Control_c, 0, 67, 27
1, 151745, Control_c, 0, 67, 26
1, 151768, Control_c, 0, 67, 25
1, 151783, Control_c, 0, 67, 24
1, 151797, Control_c, 0, 67, 24
1, 151812, Control_c, 0, 67, 23
1, 151827, Control_c, 0, 67, 22
1, 151838, Note_on_c, 0, 74, 56
1, 151842, Control_c, 0, 67, 21
1, 151845, Note_on_c, 0, 83, 61
1, 151855, Note_off_c, 0, 38, 35
1, 151857, Control_c, 0, 67, 20
1, 151861, Note_on_c, 0, 79, 35
1, 151871, Control_c, 0, 67, 19
1, 151876, Note_on_c, 0, 43, 33
1, 151886, Control_c, 0, 67, 18
1, 151901, Control_c, 0, 67, 18
1, 151913, Note_off_c, 0, 74, 55
1, 151915, Control_c, 0, 67, 17
1, 151930, Control_c, 0, 67, 17
1, 151946, Control_c, 0, 67, 16
1, 151948, Note_off_c, 0, 79, 30
1, 151961, Control_c, 0, 67, 16
1, 151976, Control_c, 0, 67, 15
1, 151980, Note_off_c, 0, 83, 55
1, 151991, Control_c, 0, 67, 14
1, 152006, Control_c, 0, 67, 13
1, 152008, Note_on_c, 0, 50, 44
1, 152020, Control_c, 0, 67, 12
1, 152035, Control_c, 0, 67, 10
1, 152039, Note_off_c, 0, 43, 36
1, 152050, Control_c, 0, 67, 8
1, 152065, Control_c, 0, 67, 0
1, 152124, Control_c, 0, 64, 87
1, 152149, Note_on_c, 0, 86, 56
1, 152154, Control_c, 0, 64, 88
1, 152161, Note_on_c, 0, 79, 44
1, 152165, Note_on_c, 0, 83, 42
1, 152169, Control_c, 0, 64, 89
1, 152183, Control_c, 0, 64, 89
1, 152198, Control_c, 0, 64, 90
1, 152228, Control_c, 0, 64, 90
1, 152255, Note_off_c, 0, 50, 38
1, 152275, Note_on_c, 0, 43, 41
1, 152312, Note_off_c, 0, 83, 55
1, 152319, Note_off_c, 0, 86, 56
1, 152332, Note_off_c, 0, 79, 35
1, 152393, Note_off_c, 0, 43, 36
1, 152425, Note_on_c, 0, 88, 64
1, 152434, Note_on_c, 0, 38, 40
1, 152454, Note_on_c, 0, 83, 36
1, 152462, Note_on_c, 0, 79, 35
1, 152542, Note_off_c, 0, 83, 46
1, 152545, Note_off_c, 0, 79, 38
1, 152578, Note_off_c, 0, 38, 37
1, 152584, Note_off_c, 0, 88, 59
1, 152814, Control_c, 0, 64, 89
1, 152819, Note_on_c, 0, 38, 42
1, 152829, Control_c, 0, 64, 87
1, 152833, Note_on_c, 0, 90, 66
1, 152842, Note_on_c, 0, 86, 51
1, 152843, Control_c, 0, 64, 80
1, 152852, Note_on_c, 0, 81, 40
1, 152858, Control_c, 0, 64, 69
1, 152873, Control_c, 0, 64, 0
1, 152888, Control_c, 0, 67, 11
1, 152903, Control_c, 0, 67, 15
1, 152917, Control_c, 0, 67, 19
1, 152932, Control_c, 0, 67, 24
1, 152947, Control_c, 0, 67, 29
1, 152961, Control_c, 0, 64, 27
1, 152961, Control_c, 0, 67, 36
1, 152973, Note_off_c, 0, 38, 43
1, 152976, Control_c, 0, 64, 64
1, 152976, Control_c, 0, 67, 45
1, 152991, Control_c, 0, 64, 69
1, 152991, Control_c, 0, 67, 53
1, 153000, Note_on_c, 0, 45, 47
1, 153006, Control_c, 0, 64, 73
1, 153006, Control_c, 0, 67, 62
1, 153021, Control_c, 0, 64, 78
1, 153021, Control_c, 0, 67, 71
1, 153036, Control_c, 0, 64, 81
1, 153036, Control_c, 0, 67, 81
1, 153051, Control_c, 0, 64, 83
1, 153051, Control_c, 0, 67, 91
1, 153066, Control_c, 0, 64, 84
1, 153066, Control_c, 0, 67, 101
1, 153080, Control_c, 0, 64, 85
1, 153080, Control_c, 0, 67, 111
1, 153095, Control_c, 0, 64, 86
1, 153095, Control_c, 0, 67, 118
1, 153110, Control_c, 0, 64, 87
1, 153110, Control_c, 0, 67, 125
1, 153125, Control_c, 0, 64, 87
1, 153125, Control_c, 0, 67, 127
1, 153140, Control_c, 0, 64, 88
1, 153152, Note_off_c, 0, 45, 34
1, 153165, Note_on_c, 0, 50, 42
1, 153169, Control_c, 0, 64, 88
1, 153266, Control_c, 0, 64, 89
1, 153308, Note_on_c, 0, 57, 45
1, 153322, Note_off_c, 0, 50, 37
1, 153384, Control_c, 0, 64, 89
1, 153460, Note_off_c, 0, 90, 31
1, 153502, Control_c, 0, 64, 90
1, 153565, Note_off_c, 0, 81, 28
1, 153571, Note_off_c, 0, 57, 40
1, 153599, Note_off_c, 0, 86, 35
1, 153618, Note_on_c, 0, 50, 37
1, 153622, Control_c, 0, 64, 90
1, 153717, Note_off_c, 0, 50, 37
1, 153752, Note_on_c, 0, 45, 37
1, 153799, Control_c, 0, 64, 91
1, 153830, Note_off_c, 0, 45, 53
1, 153889, Note_on_c, 0, 38, 32
1, 153931, Control_c, 0, 64, 91
1, 154014, Note_on_c, 0, 93, 60
1, 154029, Note_on_c, 0, 81, 43
1, 154029, Note_on_c, 0, 90, 43
1, 154056, Note_off_c, 0, 93, 56
1, 154085, Note_off_c, 0, 90, 41
1, 154103, Note_off_c, 0, 81, 52
1, 154158, Note_on_c, 0, 45, 23
1, 154306, Note_off_c, 0, 45, 37
1, 154309, Note_on_c, 0, 50, 33
1, 154480, Note_off_c, 0, 50, 33
1, 154488, Note_on_c, 0, 62, 47
1, 154767, Note_off_c, 0, 38, 35
1, 154805, Note_on_c, 0, 50, 35
1, 154869, Note_off_c, 0, 50, 54
1, 154908, Note_on_c, 0, 45, 39
1, 155072, Note_on_c, 0, 38, 31
1, 155090, Note_off_c, 0, 45, 44
1, 155384, Note_on_c, 0, 45, 22
1, 155529, Note_on_c, 0, 50, 38
1, 155544, Note_off_c, 0, 45, 38
1, 155683, Note_on_c, 0, 57, 44
1, 155709, Note_off_c, 0, 50, 26
1, 155787, Note_off_c, 0, 62, 29
1, 156007, Note_on_c, 0, 50, 34
1, 156110, Note_off_c, 0, 38, 33
1, 156116, Note_off_c, 0, 50, 36
1, 156151, Note_on_c, 0, 45, 32
1, 156293, Note_on_c, 0, 38, 26
1, 156339, Note_off_c, 0, 45, 36
1, 156364, Control_c, 0, 64, 92
1, 156637, Note_on_c, 0, 45, 30
1, 156769, Note_off_c, 0, 45, 35
1, 156780, Note_on_c, 0, 50, 31
1, 156932, Note_off_c, 0, 50, 36
1, 156946, Note_on_c, 0, 62, 44
1, 156979, Note_off_c, 0, 57, 35
1, 157209, Note_off_c, 0, 62, 28
1, 157278, Note_on_c, 0, 50, 28
1, 157374, Note_off_c, 0, 38, 31
1, 157406, Note_off_c, 0, 50, 37
1, 157433, Note_on_c, 0, 45, 33
1, 157585, Note_off_c, 0, 45, 35
1, 157595, Note_on_c, 0, 38, 28
1, 157640, Note_off_c, 0, 38, 50
1, 157802, Control_c, 0, 64, 90
1, 157817, Control_c, 0, 64, 86
1, 157829, Note_on_c, 0, 33, 48
1, 157831, Control_c, 0, 64, 78
1, 157846, Control_c, 0, 64, 67
1, 157861, Control_c, 0, 64, 37
1, 157876, Control_c, 0, 64, 0
1, 157890, Control_c, 0, 64, 48
1, 157905, Control_c, 0, 64, 64
1, 157920, Control_c, 0, 64, 68
1, 157935, Note_off_c, 0, 33, 52
1, 157935, Control_c, 0, 64, 72
1, 157950, Control_c, 0, 64, 75
1, 157964, Control_c, 0, 64, 76
1, 157979, Control_c, 0, 64, 77
1, 157994, Control_c, 0, 64, 78
1, 158009, Control_c, 0, 64, 79
1, 158017, Note_on_c, 0, 40, 45
1, 158024, Control_c, 0, 64, 79
1, 158053, Control_c, 0, 64, 80
1, 158083, Control_c, 0, 64, 80
1, 158087, Note_off_c, 0, 40, 0
1, 158098, Control_c, 0, 64, 81
1, 158124, Poly_aftertouch_c, 0, 40, 127
1, 158142, Control_c, 0, 64, 81
1, 158187, Control_c, 0, 64, 82
1, 158187, Note_on_c, 0, 72, 54
1, 158211, Note_on_c, 0, 64, 34
1, 158211, Note_on_c, 0, 69, 42
1, 158216, Note_on_c, 0, 45, 37
1, 158246, Control_c, 0, 64, 82
1, 158271, Poly_aftertouch_c, 0, 40, 0
1, 158290, Control_c, 0, 64, 83
1, 158312, Note_off_c, 0, 72, 38
1, 158326, Note_off_c, 0, 69, 28
1, 158351, Control_c, 0, 64, 83
1, 158357, Note_on_c, 0, 52, 42
1, 158357, Note_off_c, 0, 45, 41
1, 158376, Note_off_c, 0, 64, 39
1, 158396, Control_c, 0, 64, 84
1, 158506, Control_c, 0, 64, 84
1, 158527, Note_on_c, 0, 64, 37
1, 158529, Note_on_c, 0, 69, 56
1, 158550, Note_on_c, 0, 60, 37
1, 158580, Control_c, 0, 64, 85
1, 158630, Note_off_c, 0, 52, 40
1, 158640, Control_c, 0, 64, 85
1, 158655, Note_off_c, 0, 60, 31
1, 158671, Note_on_c, 0, 45, 35
1, 158676, Note_off_c, 0, 69, 39
1, 158689, Note_off_c, 0, 64, 40
1, 158699, Control_c, 0, 64, 86
1, 158771, Note_off_c, 0, 45, 36
1, 158788, Control_c, 0, 64, 86
1, 158804, Note_on_c, 0, 64, 52
1, 158810, Note_on_c, 0, 72, 61
1, 158828, Note_on_c, 0, 69, 39
1, 158839, Note_on_c, 0, 40, 38
1, 158877, Control_c, 0, 64, 87
1, 158879, Note_off_c, 0, 64, 59
1, 158908, Note_off_c, 0, 69, 38
1, 158946, Note_off_c, 0, 40, 50
1, 158946, Note_off_c, 0, 72, 56
1, 158989, Note_on_c, 0, 33, 38
1, 159126, Note_on_c, 0, 76, 65
1, 159147, Note_on_c, 0, 69, 45
1, 159154, Note_on_c, 0, 72, 45
1, 159232, Note_off_c, 0, 33, 44
1, 159297, Note_off_c, 0, 76, 58
1, 159306, Note_off_c, 0, 72, 42
1, 159309, Note_on_c, 0, 40, 41
1, 159310, Note_off_c, 0, 69, 42
1, 159428, Note_on_c, 0, 77, 69
1, 159440, Note_on_c, 0, 69, 42
1, 159448, Note_off_c, 0, 40, 40
1, 159454, Note_on_c, 0, 72, 38
1, 159473, Note_on_c, 0, 45, 33
1, 159582, Note_off_c, 0, 69, 40
1, 159596, Note_on_c, 0, 52, 42
1, 159596, Note_off_c, 0, 72, 40
1, 159597, Note_off_c, 0, 45, 42
1, 159599, Note_off_c, 0, 77, 49
1, 159712, Note_on_c, 0, 76, 66
1, 159720, Note_on_c, 0, 69, 43
1, 159722, Note_on_c, 0, 72, 48
1, 159810, Note_off_c, 0, 72, 47
1, 159815, Note_off_c, 0, 76, 54
1, 159823, Note_off_c, 0, 52, 41
1, 159871, Note_off_c, 0, 69, 42
1, 159877, Note_on_c, 0, 45, 33
1, 159935, Note_off_c, 0, 45, 43
1, 160022, Note_on_c, 0, 40, 36
1, 160029, Note_on_c, 0, 72, 64
1, 160058, Note_on_c, 0, 64, 36
1, 160066, Note_on_c, 0, 69, 36
1, 160168, Note_off_c, 0, 72, 57
1, 160179, Note_off_c, 0, 40, 35
1, 160190, Note_on_c, 0, 33, 42
1, 160201, Note_off_c, 0, 69, 40
1, 160205, Note_off_c, 0, 64, 38
1, 160286, Control_c, 0, 64, 85
1, 160300, Control_c, 0, 64, 80
1, 160315, Control_c, 0, 64, 68
1, 160318, Note_on_c, 0, 69, 60
1, 160324, Note_on_c, 0, 64, 53
1, 160330, Control_c, 0, 64, 0
1, 160344, Note_on_c, 0, 60, 37
1, 160390, Control_c, 0, 64, 58
1, 160405, Control_c, 0, 64, 66
1, 160419, Control_c, 0, 64, 70
1, 160434, Control_c, 0, 64, 73
1, 160444, Note_off_c, 0, 33, 42
1, 160449, Control_c, 0, 64, 74
1, 160464, Control_c, 0, 64, 76
1, 160478, Control_c, 0, 64, 77
1, 160492, Note_on_c, 0, 40, 37
1, 160493, Control_c, 0, 64, 78
1, 160503, Note_off_c, 0, 69, 58
1, 160504, Note_off_c, 0, 60, 37
1, 160508, Note_off_c, 0, 64, 58
1, 160508, Control_c, 0, 64, 79
1, 160523, Control_c, 0, 64, 79
1, 160538, Control_c, 0, 64, 80
1, 160552, Control_c, 0, 64, 80
1, 160567, Control_c, 0, 64, 81
1, 160582, Control_c, 0, 64, 82
1, 160597, Control_c, 0, 64, 82
1, 160612, Note_on_c, 0, 72, 64
1, 160628, Note_on_c, 0, 64, 46
1, 160637, Note_off_c, 0, 40, 32
1, 160640, Note_on_c, 0, 69, 44
1, 160641, Control_c, 0, 64, 83
1, 160644, Note_on_c, 0, 45, 44
1, 160681, Note_off_c, 0, 64, 48
1, 160685, Control_c, 0, 64, 83
1, 160731, Control_c, 0, 64, 84
1, 160757, Note_off_c, 0, 72, 61
1, 160765, Note_on_c, 0, 52, 54
1, 160774, Note_off_c, 0, 69, 38
1, 160813, Note_off_c, 0, 45, 30
1, 160843, Control_c, 0, 64, 84
1, 160911, Note_on_c, 0, 76, 69
1, 160916, Control_c, 0, 64, 85
1, 160923, Note_on_c, 0, 72, 58
1, 160927, Note_on_c, 0, 69, 52
1, 160961, Control_c, 0, 64, 85
1, 160975, Control_c, 0, 67, 126
1, 160984, Note_off_c, 0, 69, 0
1, 160990, Control_c, 0, 64, 86
1, 160990, Control_c, 0, 67, 119
1, 161005, Control_c, 0, 67, 111
1, 161020, Control_c, 0, 64, 86
1, 161020, Control_c, 0, 67, 103
1, 161022, Poly_aftertouch_c, 0, 69, 127
1, 161035, Control_c, 0, 67, 94
1, 161049, Control_c, 0, 64, 87
1, 161049, Control_c, 0, 67, 86
1, 161052, Note_on_c, 0, 45, 47
1, 161064, Control_c, 0, 67, 78
1, 161066, Note_off_c, 0, 52, 51
1, 161079, Control_c, 0, 67, 69
1, 161084, Poly_aftertouch_c, 0, 69, 0
1, 161084, Note_off_c, 0, 76, 52
1, 161093, Control_c, 0, 67, 64
1, 161102, Note_off_c, 0, 72, 37
1, 161108, Control_c, 0, 67, 59
1, 161123, Control_c, 0, 64, 87
1, 161123, Control_c, 0, 67, 55
1, 161138, Control_c, 0, 67, 52
1, 161153, Control_c, 0, 67, 50
1, 161159, Note_off_c, 0, 45, 48
1, 161168, Control_c, 0, 67, 48
1, 161183, Control_c, 0, 67, 47
1, 161184, Note_on_c, 0, 77, 77
1, 161192, Note_on_c, 0, 40, 46
1, 161198, Control_c, 0, 67, 46
1, 161204, Note_on_c, 0, 72, 54
1, 161213, Control_c, 0, 67, 46
1, 161213, Note_on_c, 0, 69, 22
1, 161252, Note_off_c, 0, 69, 50
1, 161257, Control_c, 0, 67, 45
1, 161272, Control_c, 0, 64, 88
1, 161335, Note_off_c, 0, 72, 35
1, 161338, Note_off_c, 0, 77, 57
1, 161350, Note_on_c, 0, 33, 52
1, 161353, Note_off_c, 0, 40, 42
1, 161464, Control_c, 0, 64, 86
1, 161479, Control_c, 0, 64, 81
1, 161482, Note_on_c, 0, 81, 71
1, 161486, Note_on_c, 0, 76, 62
1, 161501, Control_c, 0, 64, 72
1, 161511, Note_on_c, 0, 72, 43
1, 161516, Control_c, 0, 64, 65
1, 161532, Control_c, 0, 64, 64
1, 161546, Control_c, 0, 64, 66
1, 161560, Note_off_c, 0, 76, 0
1, 161560, Note_on_c, 0, 76, 4
1, 161561, Control_c, 0, 64, 68
1, 161576, Control_c, 0, 64, 71
1, 161591, Control_c, 0, 64, 75
1, 161591, Control_c, 0, 67, 46
1, 161606, Control_c, 0, 64, 78
1, 161609, Note_off_c, 0, 33, 44
1, 161621, Control_c, 0, 64, 80
1, 161621, Control_c, 0, 67, 46
1, 161636, Control_c, 0, 64, 81
1, 161636, Control_c, 0, 67, 47
1, 161639, Note_on_c, 0, 40, 45
1, 161651, Control_c, 0, 64, 82
1, 161656, Note_off_c, 0, 81, 57
1, 161659, Note_off_c, 0, 76, 59
1, 161663, Note_off_c, 0, 72, 45
1, 161666, Control_c, 0, 64, 82
1, 161680, Control_c, 0, 64, 83
1, 161695, Control_c, 0, 64, 83
1, 161710, Control_c, 0, 64, 84
1, 161724, Control_c, 0, 64, 84
1, 161739, Control_c, 0, 64, 85
1, 161739, Control_c, 0, 67, 47
1, 161754, Control_c, 0, 64, 85
1, 161764, Note_on_c, 0, 84, 71
1, 161769, Control_c, 0, 64, 86
1, 161769, Control_c, 0, 67, 48
1, 161770, Note_on_c, 0, 76, 61
1, 161777, Note_on_c, 0, 81, 54
1, 161781, Note_on_c, 0, 45, 47
1, 161798, Control_c, 0, 64, 86
1, 161799, Note_off_c, 0, 40, 38
1, 161813, Control_c, 0, 64, 87
1, 161817, Note_off_c, 0, 76, 41
1, 161828, Control_c, 0, 64, 87
1, 161828, Control_c, 0, 67, 48
1, 161843, Control_c, 0, 64, 88
1, 161857, Control_c, 0, 67, 49
1, 161872, Control_c, 0, 64, 88
1, 161887, Control_c, 0, 64, 89
1, 161887, Control_c, 0, 67, 49
1, 161902, Control_c, 0, 64, 90
1, 161912, Note_off_c, 0, 84, 60
1, 161915, Note_off_c, 0, 81, 33
1, 161916, Control_c, 0, 64, 90
1, 161919, Note_on_c, 0, 52, 46
1, 161931, Control_c, 0, 64, 91
1, 161946, Control_c, 0, 64, 91
1, 161959, Note_off_c, 0, 45, 32
1, 161961, Control_c, 0, 64, 92
1, 162020, Control_c, 0, 64, 92
1, 162062, Note_on_c, 0, 88, 75
1, 162065, Control_c, 0, 64, 93
1, 162071, Note_on_c, 0, 81, 61
1, 162079, Note_on_c, 0, 84, 62
1, 162095, Control_c, 0, 64, 93
1, 162146, Note_off_c, 0, 84, 0
1, 162154, Control_c, 0, 64, 94
1, 162165, Note_on_c, 0, 84, 32
1, 162166, Note_off_c, 0, 81, 0
1, 162166, Note_on_c, 0, 81, 13
1, 162186, Note_off_c, 0, 52, 45
1, 162198, Control_c, 0, 64, 94
1, 162202, Note_on_c, 0, 45, 46
1, 162262, Note_off_c, 0, 84, 56
1, 162265, Control_c, 0, 64, 95
1, 162277, Note_off_c, 0, 81, 47
1, 162280, Control_c, 0, 67, 50
1, 162280, Note_off_c, 0, 88, 61
1, 162298, Note_off_c, 0, 45, 61
1, 162354, Note_on_c, 0, 40, 39
1, 162369, Note_on_c, 0, 90, 84
1, 162369, Control_c, 0, 67, 50
1, 162383, Note_on_c, 0, 84, 58
1, 162388, Note_on_c, 0, 81, 62
1, 162444, Control_c, 0, 67, 51
1, 162445, Note_off_c, 0, 84, 59
1, 162450, Note_off_c, 0, 81, 56
1, 162497, Note_on_c, 0, 33, 56
1, 162503, Control_c, 0, 67, 51
1, 162503, Note_off_c, 0, 40, 35
1, 162508, Note_off_c, 0, 90, 63
1, 162527, Note_off_c, 0, 33, 61
1, 162533, Control_c, 0, 67, 52
1, 162547, Control_c, 0, 67, 52
1, 162577, Control_c, 0, 67, 53
1, 162592, Control_c, 0, 67, 53
1, 162621, Control_c, 0, 67, 54
1, 162636, Control_c, 0, 67, 55
1, 162651, Control_c, 0, 67, 57
1, 162666, Control_c, 0, 67, 60
1, 162680, Control_c, 0, 67, 67
1, 162695, Control_c, 0, 64, 94
1, 162695, Control_c, 0, 67, 74
1, 162710, Control_c, 0, 64, 89
1, 162710, Control_c, 0, 67, 81
1, 162721, Note_on_c, 0, 92, 81
1, 162724, Note_on_c, 0, 40, 54
1, 162725, Control_c, 0, 64, 78
1, 162725, Control_c, 0, 67, 86
1, 162740, Control_c, 0, 64, 60
1, 162740, Control_c, 0, 67, 91
1, 162742, Note_on_c, 0, 88, 51
1, 162754, Control_c, 0, 64, 0
1, 162754, Control_c, 0, 67, 94
1, 162760, Note_on_c, 0, 83, 36
1, 162769, Control_c, 0, 67, 98
1, 162784, Control_c, 0, 67, 101
1, 162799, Control_c, 0, 67, 104
1, 162814, Control_c, 0, 67, 106
1, 162828, Control_c, 0, 67, 108
1, 162843, Control_c, 0, 67, 110
1, 162854, Note_off_c, 0, 40, 54
1, 162858, Control_c, 0, 64, 59
1, 162858, Control_c, 0, 67, 113
1, 162873, Control_c, 0, 64, 65
1, 162873, Control_c, 0, 67, 115
1, 162888, Control_c, 0, 64, 68
1, 162888, Control_c, 0, 67, 118
1, 162902, Note_on_c, 0, 47, 50
1, 162903, Control_c, 0, 64, 71
1, 162903, Control_c, 0, 67, 121
1, 162918, Control_c, 0, 64, 74
1, 162918, Control_c, 0, 67, 122
1, 162933, Control_c, 0, 64, 77
1, 162933, Control_c, 0, 67, 124
1, 162947, Control_c, 0, 64, 79
1, 162947, Control_c, 0, 67, 124
1, 162962, Control_c, 0, 64, 81
1, 162962, Control_c, 0, 67, 125
1, 162977, Control_c, 0, 64, 82
1, 162977, Control_c, 0, 67, 126
1, 162999, Control_c, 0, 64, 83
1, 162999, Control_c, 0, 67, 126
1, 163014, Control_c, 0, 64, 84
1, 163014, Control_c, 0, 67, 127
1, 163028, Control_c, 0, 64, 84
1, 163028, Control_c, 0, 67, 127
1, 163034, Note_off_c, 0, 47, 48
1, 163043, Control_c, 0, 64, 85
1, 163052, Note_on_c, 0, 52, 48
1, 163058, Control_c, 0, 64, 85
1, 163073, Control_c, 0, 64, 86
1, 163118, Control_c, 0, 64, 86
1, 163163, Control_c, 0, 64, 87
1, 163189, Note_off_c, 0, 52, 56
1, 163192, Control_c, 0, 64, 87
1, 163208, Note_on_c, 0, 59, 43
1, 163252, Control_c, 0, 64, 88
1, 163281, Control_c, 0, 64, 88
1, 163326, Control_c, 0, 64, 89
1, 163380, Note_off_c, 0, 88, 21
1, 163430, Control_c, 0, 64, 89
1, 163435, Note_off_c, 0, 92, 36
1, 163445, Note_off_c, 0, 59, 39
1, 163472, Note_on_c, 0, 52, 41
1, 163503, Control_c, 0, 64, 90
1, 163553, Note_off_c, 0, 52, 57
1, 163563, Note_off_c, 0, 83, 32
1, 163603, Note_on_c, 0, 47, 47
1, 163607, Control_c, 0, 64, 90
1, 163693, Note_off_c, 0, 47, 56
1, 163696, Control_c, 0, 64, 91
1, 163758, Note_on_c, 0, 40, 48
1, 163777, Control_c, 0, 64, 91
1, 163904, Note_on_c, 0, 95, 65
1, 163913, Note_on_c, 0, 92, 52
1, 163934, Note_on_c, 0, 83, 28
1, 163956, Control_c, 0, 64, 92
1, 163973, Note_off_c, 0, 92, 59
1, 163976, Note_off_c, 0, 95, 52
1, 164022, Note_off_c, 0, 83, 58
1, 164046, Note_on_c, 0, 47, 32
1, 164074, Control_c, 0, 64, 92
1, 164149, Control_c, 0, 64, 93
1, 164218, Note_off_c, 0, 47, 45
1, 164223, Control_c, 0, 64, 93
1, 164232, Note_on_c, 0, 52, 36
1, 164366, Note_on_c, 0, 64, 47
1, 164397, Note_off_c, 0, 52, 45
1, 164667, Note_off_c, 0, 40, 38
1, 164694, Note_on_c, 0, 52, 25
1, 164761, Note_off_c, 0, 52, 56
1, 164859, Poly_aftertouch_c, 0, 47, 127
1, 164973, Note_on_c, 0, 40, 32
1, 164986, Poly_aftertouch_c, 0, 47, 0
1, 165277, Note_on_c, 0, 47, 40
1, 165423, Note_on_c, 0, 52, 39
1, 165437, Note_off_c, 0, 47, 39
1, 165593, Note_on_c, 0, 59, 43
1, 165602, Note_off_c, 0, 52, 40
1, 165702, Note_off_c, 0, 64, 39
1, 165927, Note_on_c, 0, 52, 25
1, 166024, Note_off_c, 0, 52, 40
1, 166031, Note_off_c, 0, 40, 36
1, 166062, Note_on_c, 0, 47, 40
1, 166200, Note_on_c, 0, 40, 36
1, 166221, Note_off_c, 0, 47, 42
1, 166519, Note_on_c, 0, 47, 37
1, 166617, Control_c, 0, 67, 126
1, 166632, Control_c, 0, 67, 123
1, 166646, Control_c, 0, 67, 121
1, 166649, Note_off_c, 0, 47, 35
1, 166651, Note_on_c, 0, 52, 40
1, 166661, Control_c, 0, 67, 120
1, 166676, Control_c, 0, 67, 118
1, 166691, Control_c, 0, 67, 117
1, 166705, Control_c, 0, 67, 116
1, 166720, Control_c, 0, 67, 115
1, 166742, Control_c, 0, 67, 114
1, 166757, Control_c, 0, 67, 113
1, 166772, Control_c, 0, 67, 113
1, 166787, Control_c, 0, 67, 112
1, 166802, Control_c, 0, 67, 111
1, 166808, Note_on_c, 0, 64, 45
1, 166817, Control_c, 0, 67, 110
1, 166832, Control_c, 0, 67, 110
1, 166835, Note_off_c, 0, 52, 27
1, 166835, Note_off_c, 0, 59, 37
1, 166846, Control_c, 0, 67, 109
1, 166861, Control_c, 0, 67, 109
1, 166876, Control_c, 0, 67, 108
1, 166891, Control_c, 0, 67, 108
1, 166906, Control_c, 0, 67, 107
1, 166920, Control_c, 0, 67, 107
1, 166950, Control_c, 0, 67, 106
1, 166980, Control_c, 0, 67, 106
1, 166983, Note_off_c, 0, 40, 34
1, 167068, Control_c, 0, 67, 105
1, 167112, Note_on_c, 0, 52, 39
1, 167201, Note_off_c, 0, 64, 36
1, 167257, Note_off_c, 0, 52, 35
1, 167276, Note_on_c, 0, 47, 42
1, 167426, Note_on_c, 0, 40, 44
1, 167444, Note_off_c, 0, 47, 45
1, 167476, Note_off_c, 0, 40, 62
1, 167580, Control_c, 0, 64, 93
1, 167595, Control_c, 0, 64, 89
1, 167610, Control_c, 0, 64, 81
1, 167619, Note_on_c, 0, 36, 50
1, 167624, Control_c, 0, 64, 69
1, 167639, Control_c, 0, 64, 0
1, 167668, Control_c, 0, 67, 105
1, 167698, Control_c, 0, 64, 55
1, 167713, Control_c, 0, 64, 65
1, 167728, Control_c, 0, 64, 69
1, 167732, Note_off_c, 0, 36, 53
1, 167742, Control_c, 0, 64, 72
1, 167757, Control_c, 0, 64, 74
1, 167768, Note_on_c, 0, 43, 50
1, 167772, Control_c, 0, 64, 76
1, 167786, Control_c, 0, 64, 78
1, 167786, Control_c, 0, 67, 104
1, 167801, Control_c, 0, 64, 79
1, 167816, Control_c, 0, 64, 80
1, 167831, Control_c, 0, 64, 81
1, 167846, Control_c, 0, 64, 82
1, 167860, Control_c, 0, 64, 82
1, 167890, Control_c, 0, 64, 83
1, 167890, Control_c, 0, 67, 104
1, 167906, Control_c, 0, 67, 103
1, 167921, Note_on_c, 0, 76, 70
1, 167921, Control_c, 0, 64, 83
1, 167921, Control_c, 0, 67, 102
1, 167927, Note_off_c, 0, 43, 37
1, 167929, Note_on_c, 0, 67, 54
1, 167936, Control_c, 0, 67, 102
1, 167940, Note_on_c, 0, 72, 51
1, 167941, Note_on_c, 0, 48, 46
1, 167951, Control_c, 0, 67, 101
1, 167965, Control_c, 0, 64, 84
1, 167965, Control_c, 0, 67, 101
1, 168039, Control_c, 0, 64, 84
1, 168054, Control_c, 0, 67, 100
1, 168057, Note_off_c, 0, 76, 58
1, 168072, Note_on_c, 0, 55, 54
1, 168077, Note_off_c, 0, 72, 36
1, 168078, Note_off_c, 0, 67, 42
1, 168099, Control_c, 0, 67, 100
1, 168122, Note_off_c, 0, 48, 25
1, 168158, Control_c, 0, 64, 85
1, 168241, Note_on_c, 0, 72, 63
1, 168250, Note_on_c, 0, 67, 54
1, 168252, Note_on_c, 0, 64, 48
1, 168314, Control_c, 0, 64, 85
1, 168380, Note_on_c, 0, 48, 59
1, 168388, Note_off_c, 0, 55, 34
1, 168409, Note_off_c, 0, 64, 40
1, 168413, Note_off_c, 0, 67, 57
1, 168422, Note_off_c, 0, 72, 57
1, 168477, Control_c, 0, 67, 99
1, 168511, Note_off_c, 0, 48, 49
1, 168526, Note_on_c, 0, 76, 70
1, 168531, Note_on_c, 0, 43, 48
1, 168534, Note_on_c, 0, 67, 60
1, 168544, Note_on_c, 0, 72, 60
1, 168596, Control_c, 0, 64, 86
1, 168596, Control_c, 0, 67, 99
1, 168605, Note_off_c, 0, 67, 56
1, 168640, Control_c, 0, 64, 86
1, 168640, Control_c, 0, 67, 98
1, 168669, Note_off_c, 0, 43, 53
1, 168670, Control_c, 0, 67, 98
1, 168677, Note_off_c, 0, 72, 35
1, 168683, Note_on_c, 0, 36, 55
1, 168699, Note_off_c, 0, 76, 64
1, 168715, Control_c, 0, 64, 87
1, 168730, Control_c, 0, 64, 87
1, 168745, Control_c, 0, 64, 88
1, 168789, Control_c, 0, 64, 87
1, 168804, Control_c, 0, 64, 84
1, 168819, Control_c, 0, 64, 78
1, 168831, Note_on_c, 0, 79, 78
1, 168834, Control_c, 0, 64, 69
1, 168844, Note_on_c, 0, 76, 62
1, 168847, Note_on_c, 0, 72, 60
1, 168849, Control_c, 0, 64, 57
1, 168863, Control_c, 0, 64, 54
1, 168863, Control_c, 0, 67, 97
1, 168878, Control_c, 0, 64, 62
1, 168893, Control_c, 0, 64, 65
1, 168907, Control_c, 0, 64, 69
1, 168922, Control_c, 0, 64, 72
1, 168937, Control_c, 0, 64, 75
1, 168952, Control_c, 0, 64, 78
1, 168952, Control_c, 0, 67, 98
1, 168967, Control_c, 0, 64, 81
1, 168983, Note_off_c, 0, 36, 41
1, 168989, Control_c, 0, 64, 82
1, 169003, Note_on_c, 0, 43, 48
1, 169004, Control_c, 0, 64, 83
1, 169019, Control_c, 0, 64, 84
1, 169025, Note_off_c, 0, 72, 55
1, 169032, Note_off_c, 0, 76, 62
1, 169034, Control_c, 0, 64, 84
1, 169034, Control_c, 0, 67, 97
1, 169038, Note_off_c, 0, 79, 58
1, 169048, Control_c, 0, 64, 85
1, 169063, Control_c, 0, 64, 85
1, 169093, Control_c, 0, 64, 86
1, 169129, Note_on_c, 0, 81, 85
1, 169142, Note_on_c, 0, 48, 51
1, 169142, Note_off_c, 0, 43, 36
1, 169145, Note_on_c, 0, 72, 58
1, 169145, Note_on_c, 0, 76, 68
1, 169152, Control_c, 0, 64, 86
1, 169182, Control_c, 0, 64, 87
1, 169211, Control_c, 0, 67, 97
1, 169218, Note_off_c, 0, 72, 0
1, 169218, Note_on_c, 0, 72, 12
1, 169226, Control_c, 0, 64, 87
1, 169226, Control_c, 0, 67, 96
1, 169240, Control_c, 0, 67, 93
1, 169255, Control_c, 0, 67, 87
1, 169270, Note_off_c, 0, 48, 50
1, 169270, Control_c, 0, 64, 88
1, 169270, Control_c, 0, 67, 81
1, 169281, Note_on_c, 0, 55, 52
1, 169285, Control_c, 0, 67, 74
1, 169300, Control_c, 0, 67, 69
1, 169313, Note_off_c, 0, 72, 38
1, 169315, Control_c, 0, 64, 88
1, 169315, Control_c, 0, 67, 66
1, 169321, Note_off_c, 0, 76, 56
1, 169330, Control_c, 0, 67, 64
1, 169345, Control_c, 0, 67, 62
1, 169352, Note_off_c, 0, 81, 53
1, 169359, Control_c, 0, 64, 89
1, 169359, Control_c, 0, 67, 61
1, 169374, Control_c, 0, 67, 59
1, 169389, Control_c, 0, 67, 58
1, 169404, Control_c, 0, 67, 57
1, 169419, Control_c, 0, 67, 55
1, 169431, Note_on_c, 0, 79, 79
1, 169433, Control_c, 0, 67, 53
1, 169438, Note_on_c, 0, 72, 58
1, 169439, Note_on_c, 0, 76, 66
1, 169448, Control_c, 0, 67, 52
1, 169463, Control_c, 0, 64, 89
1, 169463, Control_c, 0, 67, 51
1, 169478, Control_c, 0, 67, 51
1, 169493, Control_c, 0, 67, 50
1, 169508, Control_c, 0, 67, 49
1, 169523, Control_c, 0, 67, 49
1, 169538, Control_c, 0, 64, 90
1, 169538, Control_c, 0, 67, 48
1, 169547, Note_off_c, 0, 79, 56
1, 169552, Note_off_c, 0, 76, 56
1, 169553, Control_c, 0, 67, 48
1, 169568, Control_c, 0, 67, 47
1, 169580, Note_on_c, 0, 48, 52
1, 169584, Note_off_c, 0, 55, 44
1, 169587, Note_off_c, 0, 72, 35
1, 169612, Control_c, 0, 64, 90
1, 169612, Control_c, 0, 67, 46
1, 169656, Control_c, 0, 67, 46
1, 169686, Control_c, 0, 67, 45
1, 169701, Control_c, 0, 67, 45
1, 169728, Note_on_c, 0, 43, 44
1, 169738, Control_c, 0, 67, 44
1, 169743, Note_off_c, 0, 48, 41
1, 169744, Note_on_c, 0, 76, 75
1, 169747, Note_on_c, 0, 67, 73
1, 169753, Control_c, 0, 67, 43
1, 169764, Note_on_c, 0, 72, 52
1, 169768, Control_c, 0, 67, 42
1, 169783, Control_c, 0, 64, 91
1, 169783, Control_c, 0, 67, 40
1, 169798, Control_c, 0, 67, 37
1, 169812, Control_c, 0, 67, 34
1, 169827, Control_c, 0, 67, 31
1, 169842, Control_c, 0, 67, 28
1, 169857, Control_c, 0, 67, 23
1, 169871, Control_c, 0, 67, 18
1, 169877, Note_on_c, 0, 36, 60
1, 169886, Control_c, 0, 67, 12
1, 169898, Note_off_c, 0, 67, 59
1, 169900, Note_off_c, 0, 72, 55
1, 169901, Note_off_c, 0, 76, 58
1, 169901, Control_c, 0, 67, 0
1, 169904, Note_off_c, 0, 43, 35
1, 170034, Control_c, 0, 64, 87
1, 170038, Note_on_c, 0, 72, 71
1, 170042, Note_on_c, 0, 64, 69
1, 170045, Note_on_c, 0, 67, 70
1, 170049, Control_c, 0, 64, 79
1, 170063, Control_c, 0, 64, 63
1, 170078, Control_c, 0, 64, 0
1, 170123, Control_c, 0, 64, 60
1, 170137, Control_c, 0, 64, 67
1, 170152, Control_c, 0, 64, 73
1, 170167, Control_c, 0, 64, 78
1, 170178, Note_off_c, 0, 36, 54
1, 170182, Control_c, 0, 64, 81
1, 170197, Control_c, 0, 64, 82
1, 170212, Control_c, 0, 64, 83
1, 170227, Control_c, 0, 64, 84
1, 170229, Note_on_c, 0, 43, 41
1, 170237, Note_off_c, 0, 64, 51
1, 170240, Note_off_c, 0, 67, 60
1, 170242, Control_c, 0, 64, 84
1, 170251, Note_off_c, 0, 72, 61
1, 170256, Control_c, 0, 64, 85
1, 170271, Control_c, 0, 64, 85
1, 170286, Control_c, 0, 64, 86
1, 170330, Note_on_c, 0, 76, 78
1, 170339, Note_on_c, 0, 67, 69
1, 170341, Note_on_c, 0, 72, 62
1, 170358, Note_on_c, 0, 48, 60
1, 170361, Control_c, 0, 64, 86
1, 170397, Note_off_c, 0, 43, 41
1, 170415, Note_off_c, 0, 67, 57
1, 170466, Note_off_c, 0, 72, 51
1, 170486, Note_on_c, 0, 55, 68
1, 170498, Note_off_c, 0, 48, 48
1, 170501, Control_c, 0, 64, 87
1, 170519, Note_off_c, 0, 76, 65
1, 170531, Control_c, 0, 64, 87
1, 170546, Control_c, 0, 64, 88
1, 170561, Control_c, 0, 64, 88
1, 170576, Control_c, 0, 64, 89
1, 170620, Control_c, 0, 64, 86
1, 170631, Note_on_c, 0, 79, 85
1, 170635, Control_c, 0, 64, 77
1, 170638, Note_on_c, 0, 76, 71
1, 170641, Note_on_c, 0, 72, 71
1, 170650, Control_c, 0, 64, 66
1, 170665, Control_c, 0, 64, 52
1, 170679, Control_c, 0, 64, 58
1, 170694, Control_c, 0, 64, 64
1, 170709, Control_c, 0, 64, 68
1, 170724, Control_c, 0, 64, 73
1, 170739, Control_c, 0, 64, 79
1, 170753, Control_c, 0, 64, 82
1, 170768, Control_c, 0, 64, 84
1, 170783, Control_c, 0, 64, 85
1, 170784, Note_on_c, 0, 48, 65
1, 170791, Note_off_c, 0, 72, 49
1, 170796, Note_off_c, 0, 55, 49
1, 170798, Control_c, 0, 64, 87
1, 170800, Note_off_c, 0, 76, 61
1, 170806, Note_off_c, 0, 79, 57
1, 170812, Control_c, 0, 64, 88
1, 170827, Control_c, 0, 64, 89
1, 170842, Control_c, 0, 64, 90
1, 170857, Control_c, 0, 64, 90
1, 170872, Control_c, 0, 64, 91
1, 170886, Control_c, 0, 64, 92
1, 170892, Note_off_c, 0, 48, 62
1, 170901, Note_on_c, 0, 81, 93
1, 170901, Control_c, 0, 64, 92
1, 170912, Note_on_c, 0, 76, 73
1, 170915, Note_on_c, 0, 72, 66
1, 170916, Note_on_c, 0, 43, 52
1, 170916, Control_c, 0, 64, 93
1, 170945, Note_off_c, 0, 72, 64
1, 170946, Control_c, 0, 64, 94
1, 170975, Control_c, 0, 64, 94
1, 171010, Note_off_c, 0, 76, 63
1, 171041, Note_on_c, 0, 36, 68
1, 171049, Note_off_c, 0, 43, 50
1, 171050, Control_c, 0, 64, 95
1, 171053, Note_off_c, 0, 81, 57
1, 171155, Control_c, 0, 64, 93
1, 171170, Control_c, 0, 64, 86
1, 171184, Control_c, 0, 64, 76
1, 171190, Note_on_c, 0, 84, 85
1, 171192, Note_on_c, 0, 76, 76
1, 171192, Note_on_c, 0, 79, 80
1, 171199, Control_c, 0, 64, 64
1, 171214, Control_c, 0, 64, 61
1, 171236, Control_c, 0, 64, 64
1, 171251, Control_c, 0, 64, 68
1, 171266, Control_c, 0, 64, 73
1, 171281, Control_c, 0, 64, 79
1, 171296, Control_c, 0, 64, 83
1, 171310, Control_c, 0, 64, 85
1, 171325, Control_c, 0, 64, 86
1, 171330, Note_off_c, 0, 36, 60
1, 171337, Note_on_c, 0, 43, 65
1, 171340, Control_c, 0, 64, 88
1, 171344, Note_off_c, 0, 76, 59
1, 171355, Control_c, 0, 64, 89
1, 171361, Note_off_c, 0, 79, 59
1, 171370, Control_c, 0, 64, 89
1, 171373, Note_off_c, 0, 84, 62
1, 171384, Control_c, 0, 64, 90
1, 171414, Control_c, 0, 64, 90
1, 171428, Control_c, 0, 64, 91
1, 171458, Control_c, 0, 64, 91
1, 171465, Note_on_c, 0, 88, 87
1, 171473, Control_c, 0, 64, 92
1, 171474, Note_on_c, 0, 79, 84
1, 171479, Note_on_c, 0, 48, 67
1, 171483, Note_on_c, 0, 84, 72
1, 171487, Note_off_c, 0, 43, 51
1, 171503, Control_c, 0, 64, 92
1, 171518, Control_c, 0, 64, 93
1, 171533, Control_c, 0, 64, 93
1, 171551, Note_off_c, 0, 79, 57
1, 171562, Control_c, 0, 64, 94
1, 171577, Control_c, 0, 64, 94
1, 171592, Control_c, 0, 64, 95
1, 171607, Control_c, 0, 64, 96
1, 171618, Note_off_c, 0, 88, 63
1, 171622, Control_c, 0, 64, 96
1, 171624, Note_off_c, 0, 84, 33
1, 171628, Note_on_c, 0, 55, 68
1, 171636, Control_c, 0, 64, 97
1, 171643, Note_off_c, 0, 48, 56
1, 171651, Control_c, 0, 64, 98
1, 171666, Note_on_c, 0, 53, 34
1, 171666, Control_c, 0, 64, 98
1, 171681, Control_c, 0, 64, 99
1, 171696, Control_c, 0, 64, 99
1, 171701, Note_off_c, 0, 53, 34
1, 171740, Control_c, 0, 64, 100
1, 171772, Note_on_c, 0, 91, 93
1, 171776, Note_on_c, 0, 88, 81
1, 171779, Note_on_c, 0, 84, 83
1, 171784, Control_c, 0, 64, 100
1, 171843, Control_c, 0, 64, 101
1, 171932, Control_c, 0, 64, 101
1, 171936, Note_on_c, 0, 48, 66
1, 171946, Note_off_c, 0, 84, 60
1, 171949, Note_off_c, 0, 55, 54
1, 171950, Note_off_c, 0, 88, 60
1, 171968, Note_off_c, 0, 91, 58
1, 172000, Control_c, 0, 64, 102
1, 172029, Control_c, 0, 64, 102
1, 172042, Note_off_c, 0, 48, 62
1, 172058, Control_c, 0, 64, 103
1, 172059, Note_on_c, 0, 93, 102
1, 172066, Note_on_c, 0, 84, 88
1, 172069, Note_on_c, 0, 88, 84
1, 172102, Note_on_c, 0, 43, 50
1, 172176, Note_off_c, 0, 88, 59
1, 172214, Note_on_c, 0, 36, 70
1, 172239, Note_off_c, 0, 43, 36
1, 172242, Note_off_c, 0, 36, 64
1, 172304, Note_off_c, 0, 93, 58
1, 172349, Note_off_c, 0, 84, 59
1, 172355, Control_c, 0, 64, 103
1, 172370, Control_c, 0, 64, 105
1, 172385, Control_c, 0, 64, 108
1, 172399, Control_c, 0, 64, 111
1, 172414, Control_c, 0, 64, 113
1, 172429, Control_c, 0, 64, 114
1, 172444, Control_c, 0, 64, 114
1, 172458, Note_on_c, 0, 91, 87
1, 172458, Control_c, 0, 64, 108
1, 172459, Note_on_c, 0, 43, 69
1, 172459, Note_on_c, 0, 95, 96
1, 172460, Note_on_c, 0, 83, 88
1, 172464, Note_on_c, 0, 86, 79
1, 172473, Control_c, 0, 64, 94
1, 172488, Control_c, 0, 64, 75
1, 172503, Control_c, 0, 64, 0
1, 172591, Control_c, 0, 64, 58
1, 172606, Control_c, 0, 64, 68
1, 172621, Control_c, 0, 64, 73
1, 172632, Note_off_c, 0, 43, 53
1, 172634, Note_on_c, 0, 50, 64
1, 172636, Control_c, 0, 64, 79
1, 172650, Control_c, 0, 64, 82
1, 172665, Control_c, 0, 64, 84
1, 172680, Control_c, 0, 64, 86
1, 172695, Control_c, 0, 64, 88
1, 172711, Control_c, 0, 64, 90
1, 172734, Control_c, 0, 64, 91
1, 172749, Control_c, 0, 64, 92
1, 172763, Control_c, 0, 64, 93
1, 172778, Control_c, 0, 64, 93
1, 172781, Note_on_c, 0, 55, 70
1, 172782, Note_off_c, 0, 50, 60
1, 172808, Control_c, 0, 64, 94
1, 172823, Control_c, 0, 64, 94
1, 172850, Note_off_c, 0, 83, 35
1, 172852, Control_c, 0, 64, 95
1, 172862, Note_off_c, 0, 95, 41
1, 172881, Control_c, 0, 64, 95
1, 172923, Note_on_c, 0, 59, 79
1, 172941, Control_c, 0, 64, 96
1, 172956, Note_off_c, 0, 91, 44
1, 172960, Note_off_c, 0, 55, 61
1, 173008, Note_off_c, 0, 86, 38
1, 173014, Control_c, 0, 64, 96
1, 173178, Control_c, 0, 64, 97
1, 173207, Note_on_c, 0, 55, 71
1, 173217, Note_off_c, 0, 59, 56
1, 173339, Note_off_c, 0, 55, 61
1, 173346, Note_on_c, 0, 50, 68
1, 173466, Note_on_c, 0, 43, 75
1, 173468, Note_off_c, 0, 50, 62
1, 173512, Control_c, 0, 64, 97
1, 173527, Control_c, 0, 64, 98
1, 173542, Control_c, 0, 64, 100
1, 173548, Note_off_c, 0, 43, 58
1, 173557, Control_c, 0, 64, 103
1, 173571, Control_c, 0, 64, 105
1, 173586, Control_c, 0, 64, 106
1, 173616, Control_c, 0, 64, 104
1, 173630, Control_c, 0, 64, 94
1, 173641, Note_on_c, 0, 95, 102
1, 173645, Control_c, 0, 64, 75
1, 173646, Note_on_c, 0, 83, 93
1, 173647, Note_on_c, 0, 88, 86
1, 173647, Note_on_c, 0, 91, 90
1, 173660, Control_c, 0, 64, 0
1, 173664, Note_on_c, 0, 40, 68
1, 173734, Control_c, 0, 64, 13
1, 173749, Control_c, 0, 64, 65
1, 173764, Control_c, 0, 64, 72
1, 173778, Control_c, 0, 64, 77
1, 173789, Note_off_c, 0, 40, 59
1, 173793, Control_c, 0, 64, 83
1, 173796, Note_on_c, 0, 47, 72
1, 173808, Control_c, 0, 64, 86
1, 173823, Control_c, 0, 64, 89
1, 173837, Control_c, 0, 64, 90
1, 173852, Control_c, 0, 64, 92
1, 173867, Control_c, 0, 64, 93
1, 173882, Control_c, 0, 64, 94
1, 173897, Control_c, 0, 64, 95
1, 173911, Control_c, 0, 64, 96
1, 173920, Note_off_c, 0, 95, 54
1, 173921, Note_off_c, 0, 83, 48
1, 173926, Control_c, 0, 64, 96
1, 173938, Note_on_c, 0, 52, 80
1, 173956, Control_c, 0, 64, 97
1, 173958, Note_off_c, 0, 47, 61
1, 173986, Control_c, 0, 64, 97
1, 174059, Note_off_c, 0, 88, 37
1, 174060, Control_c, 0, 64, 98
1, 174062, Note_off_c, 0, 91, 50
1, 174102, Note_on_c, 0, 59, 84
1, 174104, Control_c, 0, 64, 98
1, 174147, Note_off_c, 0, 52, 61
1, 174164, Control_c, 0, 64, 99
1, 174245, Control_c, 0, 64, 99
1, 174448, Note_on_c, 0, 52, 79
1, 174478, Note_off_c, 0, 59, 55
1, 174594, Note_off_c, 0, 52, 65
1, 174602, Note_on_c, 0, 47, 74
1, 174791, Note_on_c, 0, 97, 100
1, 174792, Note_off_c, 0, 47, 63
1, 174794, Note_on_c, 0, 85, 96
1, 174808, Note_on_c, 0, 40, 83
1, 174877, Note_off_c, 0, 40, 62
1, 174958, Control_c, 0, 64, 100
1, 174979, Control_c, 0, 64, 100
1, 174994, Control_c, 0, 64, 102
1, 175009, Control_c, 0, 64, 104
1, 175024, Control_c, 0, 64, 106
1, 175035, Note_off_c, 0, 85, 60
1, 175039, Note_off_c, 0, 97, 61
1, 175039, Control_c, 0, 64, 107
1, 175053, Control_c, 0, 64, 108
1, 175059, Note_on_c, 0, 35, 89
1, 175083, Control_c, 0, 64, 106
1, 175099, Control_c, 0, 64, 97
1, 175114, Control_c, 0, 64, 80
1, 175127, Note_on_c, 0, 99, 96
1, 175129, Control_c, 0, 64, 0
1, 175133, Note_on_c, 0, 87, 97
1, 175134, Note_on_c, 0, 95, 84
1, 175136, Note_on_c, 0, 90, 88
1, 175291, Control_c, 0, 64, 72
1, 175306, Control_c, 0, 64, 78
1, 175312, Note_off_c, 0, 35, 58
1, 175317, Note_on_c, 0, 42, 66
1, 175321, Control_c, 0, 64, 81
1, 175336, Control_c, 0, 64, 82
1, 175351, Control_c, 0, 64, 86
1, 175366, Control_c, 0, 64, 89
1, 175381, Control_c, 0, 64, 93
1, 175395, Control_c, 0, 64, 94
1, 175410, Control_c, 0, 64, 96
1, 175432, Note_off_c, 0, 42, 63
1, 175440, Control_c, 0, 64, 96
1, 175445, Note_on_c, 0, 47, 78
1, 175476, Note_off_c, 0, 47, 68
1, 175499, Control_c, 0, 64, 97
1, 175529, Control_c, 0, 64, 97
1, 175558, Control_c, 0, 64, 98
1, 175587, Control_c, 0, 64, 98
1, 175590, Note_on_c, 0, 54, 74
1, 175631, Control_c, 0, 64, 99
1, 175661, Control_c, 0, 64, 99
1, 175688, Note_off_c, 0, 54, 60
1, 175691, Control_c, 0, 64, 100
1, 175725, Note_on_c, 0, 66, 86
1, 175728, Control_c, 0, 64, 100
1, 175736, Note_on_c, 0, 59, 69
1, 175772, Control_c, 0, 64, 101
1, 175798, Note_off_c, 0, 66, 61
1, 175853, Note_off_c, 0, 59, 61
1, 175857, Note_on_c, 0, 54, 64
1, 175912, Note_off_c, 0, 54, 61
1, 176026, Note_on_c, 0, 47, 78
1, 176165, Note_on_c, 0, 42, 76
1, 176171, Note_off_c, 0, 47, 62
1, 176262, Control_c, 0, 64, 100
1, 176272, Note_off_c, 0, 42, 62
1, 176277, Control_c, 0, 64, 92
1, 176291, Control_c, 0, 64, 76
1, 176302, Note_on_c, 0, 35, 85
1, 176306, Control_c, 0, 64, 0
1, 176365, Control_c, 0, 64, 52
1, 176380, Control_c, 0, 64, 68
1, 176395, Control_c, 0, 64, 75
1, 176410, Control_c, 0, 64, 82
1, 176424, Control_c, 0, 64, 85
1, 176439, Control_c, 0, 64, 86
1, 176454, Control_c, 0, 64, 87
1, 176477, Control_c, 0, 64, 88
1, 176483, Note_on_c, 0, 42, 66
1, 176492, Control_c, 0, 64, 88
1, 176506, Control_c, 0, 64, 89
1, 176536, Control_c, 0, 64, 89
1, 176550, Control_c, 0, 64, 90
1, 176554, Note_off_c, 0, 35, 37
1, 176585, Note_off_c, 0, 42, 63
1, 176595, Control_c, 0, 64, 90
1, 176603, Note_on_c, 0, 47, 78
1, 176633, Note_off_c, 0, 47, 66
1, 176639, Control_c, 0, 64, 91
1, 176654, Control_c, 0, 64, 92
1, 176669, Control_c, 0, 64, 92
1, 176684, Control_c, 0, 64, 93
1, 176700, Control_c, 0, 64, 94
1, 176715, Control_c, 0, 64, 95
1, 176729, Control_c, 0, 64, 96
1, 176744, Control_c, 0, 64, 96
1, 176750, Note_on_c, 0, 54, 77
1, 176759, Control_c, 0, 64, 97
1, 176774, Control_c, 0, 64, 97
1, 176789, Control_c, 0, 64, 98
1, 176818, Control_c, 0, 64, 98
1, 176836, Note_off_c, 0, 54, 59
1, 176847, Control_c, 0, 64, 99
1, 176867, Note_on_c, 0, 66, 89
1, 176877, Note_on_c, 0, 59, 70
1, 176892, Control_c, 0, 64, 99
1, 176926, Note_off_c, 0, 66, 64
1, 176982, Note_off_c, 0, 59, 59
1, 176994, Note_on_c, 0, 54, 67
1, 177038, Note_off_c, 0, 54, 55
1, 177042, Note_off_c, 0, 99, 66
1, 177155, Note_on_c, 0, 47, 78
1, 177176, Note_off_c, 0, 87, 52
1, 177283, Note_off_c, 0, 90, 36
1, 177285, Note_off_c, 0, 47, 61
1, 177287, Note_on_c, 0, 42, 76
1, 177316, Note_off_c, 0, 95, 38
1, 177423, Note_off_c, 0, 42, 58
1, 177426, Note_on_c, 0, 35, 85
1, 177508, Control_c, 0, 64, 97
1, 177523, Control_c, 0, 64, 84
1, 177528, Note_on_c, 0, 97, 9
1, 177538, Control_c, 0, 64, 66
1, 177552, Control_c, 0, 64, 0
1, 177583, Note_on_c, 0, 42, 81
1, 177611, Control_c, 0, 64, 60
1, 177626, Control_c, 0, 64, 68
1, 177641, Control_c, 0, 64, 73
1, 177644, Note_off_c, 0, 97, 33
1, 177656, Control_c, 0, 64, 78
1, 177670, Control_c, 0, 64, 82
1, 177685, Control_c, 0, 64, 85
1, 177700, Control_c, 0, 64, 87
1, 177715, Control_c, 0, 64, 89
1, 177727, Note_off_c, 0, 35, 49
1, 177730, Control_c, 0, 64, 90
1, 177745, Control_c, 0, 64, 91
1, 177759, Note_off_c, 0, 42, 63
1, 177760, Control_c, 0, 64, 92
1, 177775, Control_c, 0, 64, 93
1, 177780, Note_on_c, 0, 99, 98
1, 177783, Note_on_c, 0, 87, 89
1, 177785, Note_on_c, 0, 47, 69
1, 177786, Note_on_c, 0, 94, 83
1, 177789, Note_on_c, 0, 90, 79
1, 177789, Control_c, 0, 64, 93
1, 177804, Control_c, 0, 64, 94
1, 177827, Note_off_c, 0, 47, 63
1, 177834, Control_c, 0, 64, 94
1, 177909, Control_c, 0, 64, 95
1, 177921, Note_off_c, 0, 94, 64
1, 177936, Note_off_c, 0, 90, 62
1, 177936, Note_off_c, 0, 99, 66
1, 177953, Control_c, 0, 64, 95
1, 177975, Control_c, 0, 64, 96
1, 177976, Note_on_c, 0, 54, 79
1, 177990, Control_c, 0, 64, 98
1, 178004, Control_c, 0, 64, 99
1, 178019, Control_c, 0, 64, 101
1, 178034, Control_c, 0, 64, 102
1, 178049, Control_c, 0, 64, 104
1, 178055, Note_off_c, 0, 87, 58
1, 178064, Control_c, 0, 64, 105
1, 178079, Control_c, 0, 64, 106
1, 178093, Control_c, 0, 64, 108
1, 178108, Control_c, 0, 64, 109
1, 178110, Note_off_c, 0, 54, 59
1, 178123, Control_c, 0, 64, 110
1, 178132, Note_on_c, 0, 85, 92
1, 178132, Note_on_c, 0, 97, 92
1, 178134, Note_on_c, 0, 88, 81
1, 178135, Note_on_c, 0, 66, 77
1, 178138, Control_c, 0, 64, 111
1, 178144, Note_on_c, 0, 94, 72
1, 178145, Note_on_c, 0, 58, 62
1, 178153, Control_c, 0, 64, 111
1, 178168, Control_c, 0, 64, 112
1, 178215, Note_off_c, 0, 66, 58
1, 178227, Control_c, 0, 64, 112
1, 178272, Note_on_c, 0, 54, 55
1, 178280, Note_off_c, 0, 58, 59
1, 178307, Note_off_c, 0, 54, 50
1, 178314, Note_on_c, 0, 55, 29
1, 178329, Note_off_c, 0, 88, 59
1, 178330, Note_off_c, 0, 85, 63
1, 178346, Note_off_c, 0, 94, 63
1, 178353, Note_off_c, 0, 55, 50
1, 178362, Note_off_c, 0, 97, 63
1, 178425, Note_on_c, 0, 99, 98
1, 178427, Note_on_c, 0, 87, 95
1, 178438, Note_on_c, 0, 90, 83
1, 178439, Note_on_c, 0, 94, 73
1, 178449, Note_on_c, 0, 48, 66
1, 178463, Note_on_c, 0, 47, 67
1, 178508, Note_off_c, 0, 47, 0
1, 178546, Poly_aftertouch_c, 0, 47, 127
1, 178556, Note_off_c, 0, 48, 63
1, 178559, Note_on_c, 0, 42, 74
1, 178600, Poly_aftertouch_c, 0, 47, 0
1, 178607, Note_off_c, 0, 87, 60
1, 178610, Note_off_c, 0, 90, 50
1, 178612, Control_c, 0, 64, 113
1, 178622, Note_off_c, 0, 99, 65
1, 178626, Control_c, 0, 64, 116
1, 178636, Note_off_c, 0, 94, 61
1, 178641, Control_c, 0, 64, 119
1, 178656, Control_c, 0, 64, 122
1, 178669, Note_off_c, 0, 42, 61
1, 178671, Control_c, 0, 64, 121
1, 178678, Note_on_c, 0, 35, 80
1, 178686, Control_c, 0, 64, 108
1, 178691, Note_on_c, 0, 100, 101
1, 178693, Note_on_c, 0, 88, 94
1, 178696, Note_on_c, 0, 91, 80
1, 178696, Note_on_c, 0, 94, 77
1, 178700, Control_c, 0, 64, 87
1, 178722, Control_c, 0, 64, 63
1, 178737, Control_c, 0, 64, 0
1, 178812, Control_c, 0, 64, 66
1, 178826, Control_c, 0, 64, 73
1, 178828, Note_on_c, 0, 42, 61
1, 178834, Note_off_c, 0, 35, 58
1, 178841, Control_c, 0, 64, 80
1, 178856, Control_c, 0, 64, 86
1, 178869, Note_off_c, 0, 100, 61
1, 178871, Control_c, 0, 64, 89
1, 178886, Control_c, 0, 64, 92
1, 178895, Note_off_c, 0, 88, 60
1, 178900, Control_c, 0, 64, 94
1, 178915, Control_c, 0, 64, 96
1, 178922, Note_off_c, 0, 91, 59
1, 178930, Control_c, 0, 64, 98
1, 178940, Note_off_c, 0, 94, 66
1, 178944, Control_c, 0, 64, 101
1, 178959, Control_c, 0, 64, 103
1, 178961, Note_off_c, 0, 42, 63
1, 178972, Note_on_c, 0, 47, 69
1, 178974, Control_c, 0, 64, 104
1, 178989, Control_c, 0, 64, 105
1, 178997, Note_on_c, 0, 99, 96
1, 179000, Note_on_c, 0, 87, 98
1, 179000, Note_off_c, 0, 47, 65
1, 179003, Note_on_c, 0, 94, 77
1, 179004, Note_on_c, 0, 90, 86
1, 179004, Control_c, 0, 64, 106
1, 179018, Control_c, 0, 64, 107
1, 179033, Control_c, 0, 64, 107
1, 179048, Control_c, 0, 64, 108
1, 179092, Note_off_c, 0, 94, 65
1, 179106, Note_off_c, 0, 90, 62
1, 179107, Note_off_c, 0, 99, 66
1, 179144, Note_on_c, 0, 54, 73
1, 179210, Note_off_c, 0, 87, 59
1, 179212, Control_c, 0, 64, 108
1, 179241, Control_c, 0, 64, 109
1, 179271, Control_c, 0, 64, 109
1, 179278, Note_off_c, 0, 54, 59
1, 179289, Note_on_c, 0, 97, 97
1, 179290, Note_on_c, 0, 85, 98
1, 179292, Note_on_c, 0, 66, 76
1, 179294, Note_on_c, 0, 88, 87
1, 179298, Note_on_c, 0, 94, 83
1, 179304, Note_on_c, 0, 58, 60
1, 179345, Control_c, 0, 64, 110
1, 179370, Note_off_c, 0, 66, 62
1, 179425, Note_off_c, 0, 58, 61
1, 179426, Note_on_c, 0, 54, 61
1, 179475, Note_off_c, 0, 85, 62
1, 179480, Note_off_c, 0, 54, 61
1, 179486, Control_c, 0, 64, 110
1, 179487, Note_off_c, 0, 88, 60
1, 179502, Note_off_c, 0, 97, 63
1, 179508, Note_off_c, 0, 94, 64
1, 179516, Control_c, 0, 64, 111
1, 179530, Control_c, 0, 64, 112
1, 179545, Control_c, 0, 64, 112
1, 179560, Control_c, 0, 64, 113
1, 179575, Control_c, 0, 64, 113
1, 179580, Note_on_c, 0, 99, 101
1, 179581, Note_on_c, 0, 87, 102
1, 179590, Control_c, 0, 64, 114
1, 179596, Note_on_c, 0, 90, 74
1, 179598, Note_on_c, 0, 94, 71
1, 179605, Control_c, 0, 64, 115
1, 179608, Note_on_c, 0, 47, 79
1, 179620, Control_c, 0, 64, 115
1, 179638, Note_off_c, 0, 94, 54
1, 179654, Note_off_c, 0, 99, 68
1, 179655, Note_off_c, 0, 90, 60
1, 179664, Control_c, 0, 64, 116
1, 179704, Note_off_c, 0, 87, 60
1, 179726, Note_on_c, 0, 42, 79
1, 179730, Note_off_c, 0, 47, 62
1, 179812, Control_c, 0, 64, 116
1, 179841, Control_c, 0, 64, 114
1, 179856, Control_c, 0, 64, 101
1, 179857, Note_on_c, 0, 35, 82
1, 179871, Control_c, 0, 64, 80
1, 179876, Note_off_c, 0, 42, 61
1, 179879, Note_on_c, 0, 95, 104
1, 179882, Note_on_c, 0, 87, 83
1, 179882, Note_on_c, 0, 83, 91
1, 179886, Control_c, 0, 64, 0
1, 179890, Note_on_c, 0, 90, 83
1, 179961, Control_c, 0, 64, 39
1, 179976, Control_c, 0, 64, 69
1, 179990, Control_c, 0, 64, 76
1, 180005, Control_c, 0, 64, 84
1, 180020, Control_c, 0, 64, 86
1, 180035, Control_c, 0, 64, 88
1, 180036, Note_on_c, 0, 42, 59
1, 180037, Note_off_c, 0, 95, 59
1, 180050, Control_c, 0, 64, 89
1, 180058, Note_off_c, 0, 35, 51
1, 180064, Note_off_c, 0, 83, 58
1, 180064, Control_c, 0, 64, 90
1, 180079, Control_c, 0, 64, 92
1, 180084, Note_off_c, 0, 90, 62
1, 180085, Note_off_c, 0, 87, 62
1, 180094, Control_c, 0, 64, 93
1, 180109, Control_c, 0, 64, 94
1, 180118, Note_off_c, 0, 42, 62
1, 180124, Control_c, 0, 64, 95
1, 180138, Control_c, 0, 64, 95
1, 180150, Note_on_c, 0, 91, 104
1, 180153, Control_c, 0, 64, 96
1, 180159, Note_on_c, 0, 83, 92
1, 180162, Note_on_c, 0, 87, 74
1, 180167, Note_on_c, 0, 47, 45
1, 180198, Note_off_c, 0, 47, 53
1, 180235, Control_c, 0, 64, 96
1, 180337, Note_on_c, 0, 54, 60
1, 180339, Control_c, 0, 64, 97
1, 180365, Note_off_c, 0, 83, 54
1, 180374, Note_off_c, 0, 87, 31
1, 180383, Control_c, 0, 64, 97
1, 180413, Control_c, 0, 64, 98
1, 180425, Note_off_c, 0, 54, 60
1, 180442, Control_c, 0, 64, 98
1, 180459, Note_on_c, 0, 66, 72
1, 180459, Note_on_c, 0, 90, 89
1, 180461, Note_on_c, 0, 83, 80
1, 180463, Note_on_c, 0, 87, 85
1, 180469, Note_on_c, 0, 59, 57
1, 180475, Note_off_c, 0, 91, 55
1, 180487, Control_c, 0, 64, 99
1, 180533, Note_off_c, 0, 66, 61
1, 180543, Note_off_c, 0, 87, 62
1, 180543, Note_off_c, 0, 90, 61
1, 180546, Control_c, 0, 64, 99
1, 180562, Note_off_c, 0, 83, 59
1, 180583, Note_off_c, 0, 59, 59
1, 180594, Note_on_c, 0, 54, 63
1, 180660, Note_off_c, 0, 54, 60
1, 180740, Control_c, 0, 64, 100
1, 180750, Note_on_c, 0, 87, 91
1, 180760, Note_on_c, 0, 78, 91
1, 180761, Note_on_c, 0, 83, 60
1, 180784, Control_c, 0, 64, 100
1, 180797, Note_off_c, 0, 83, 55
1, 180805, Note_on_c, 0, 47, 58
1, 180863, Note_off_c, 0, 87, 61
1, 180891, Note_off_c, 0, 78, 59
1, 180917, Note_off_c, 0, 47, 62
1, 180930, Note_on_c, 0, 42, 66
1, 181056, Note_on_c, 0, 35, 67
1, 181071, Note_off_c, 0, 42, 55
1, 181131, Note_on_c, 0, 83, 91
1, 181133, Control_c, 0, 64, 100
1, 181137, Note_on_c, 0, 79, 85
1, 181143, Note_on_c, 0, 75, 78
1, 181147, Control_c, 0, 64, 93
1, 181162, Control_c, 0, 64, 75
1, 181177, Control_c, 0, 64, 0
1, 181230, Note_off_c, 0, 75, 0
1, 181230, Note_on_c, 0, 75, 7
1, 181266, Control_c, 0, 64, 57
1, 181281, Control_c, 0, 64, 68
1, 181291, Note_on_c, 0, 42, 47
1, 181295, Control_c, 0, 64, 73
1, 181310, Control_c, 0, 64, 78
1, 181325, Control_c, 0, 64, 81
1, 181340, Control_c, 0, 64, 83
1, 181343, Note_off_c, 0, 35, 36
1, 181355, Control_c, 0, 64, 86
1, 181370, Control_c, 0, 64, 88
1, 181384, Control_c, 0, 64, 89
1, 181399, Control_c, 0, 64, 90
1, 181402, Note_off_c, 0, 75, 57
1, 181414, Control_c, 0, 64, 91
1, 181414, Note_off_c, 0, 42, 62
1, 181429, Control_c, 0, 64, 92
1, 181444, Note_on_c, 0, 47, 62
1, 181444, Control_c, 0, 64, 94
1, 181459, Control_c, 0, 64, 95
1, 181471, Note_off_c, 0, 47, 66
1, 181474, Control_c, 0, 64, 95
1, 181489, Control_c, 0, 64, 96
1, 181519, Control_c, 0, 64, 97
1, 181617, Note_on_c, 0, 54, 57
1, 181623, Control_c, 0, 64, 97
1, 181718, Control_c, 0, 64, 96
1, 181733, Control_c, 0, 64, 88
1, 181748, Control_c, 0, 64, 73
1, 181751, Note_off_c, 0, 54, 54
1, 181758, Note_on_c, 0, 78, 77
1, 181763, Control_c, 0, 64, 0
1, 181772, Note_on_c, 0, 75, 64
1, 181775, Note_on_c, 0, 71, 50
1, 181778, Note_on_c, 0, 66, 54
1, 181787, Note_on_c, 0, 59, 42
1, 181823, Control_c, 0, 64, 53
1, 181829, Note_off_c, 0, 83, 34
1, 181837, Control_c, 0, 64, 68
1, 181852, Control_c, 0, 64, 74
1, 181858, Note_off_c, 0, 79, 46
1, 181867, Control_c, 0, 64, 80
1, 181871, Note_off_c, 0, 66, 60
1, 181882, Control_c, 0, 64, 84
1, 181897, Control_c, 0, 64, 86
1, 181911, Control_c, 0, 64, 87
1, 181923, Note_off_c, 0, 59, 55
1, 181924, Note_on_c, 0, 54, 52
1, 181926, Control_c, 0, 64, 88
1, 181941, Control_c, 0, 64, 89
1, 181951, Note_off_c, 0, 71, 47
1, 181956, Control_c, 0, 64, 90
1, 181970, Control_c, 0, 64, 91
1, 181985, Control_c, 0, 64, 92
1, 181992, Note_off_c, 0, 54, 59
1, 182000, Control_c, 0, 64, 93
1, 182015, Control_c, 0, 64, 93
1, 182044, Control_c, 0, 64, 94
1, 182121, Note_on_c, 0, 47, 63
1, 182246, Note_off_c, 0, 47, 60
1, 182256, Note_on_c, 0, 42, 66
1, 182282, Control_c, 0, 64, 94
1, 182339, Note_off_c, 0, 75, 46
1, 182341, Control_c, 0, 64, 91
1, 182356, Control_c, 0, 64, 81
1, 182371, Control_c, 0, 64, 66
1, 182383, Note_on_c, 0, 35, 73
1, 182386, Control_c, 0, 64, 0
1, 182401, Note_off_c, 0, 42, 60
1, 182415, Control_c, 0, 64, 55
1, 182430, Control_c, 0, 64, 66
1, 182444, Note_off_c, 0, 78, 56
1, 182445, Control_c, 0, 64, 71
1, 182466, Control_c, 0, 64, 76
1, 182481, Control_c, 0, 64, 80
1, 182496, Control_c, 0, 64, 83
1, 182511, Control_c, 0, 64, 84
1, 182526, Control_c, 0, 64, 84
1, 182541, Control_c, 0, 64, 85
1, 182558, Note_on_c, 0, 42, 77
1, 182571, Control_c, 0, 64, 85
1, 182585, Control_c, 0, 64, 86
1, 182600, Control_c, 0, 64, 87
1, 182630, Control_c, 0, 64, 87
1, 182645, Control_c, 0, 64, 88
1, 182659, Control_c, 0, 64, 89
1, 182661, Note_off_c, 0, 35, 34
1, 182689, Control_c, 0, 64, 89
1, 182699, Note_on_c, 0, 87, 90
1, 182702, Note_on_c, 0, 75, 86
1, 182708, Note_on_c, 0, 78, 77
1, 182708, Note_on_c, 0, 82, 73
1, 182711, Note_off_c, 0, 42, 62
1, 182717, Note_on_c, 0, 47, 68
1, 182719, Control_c, 0, 64, 90
1, 182753, Note_off_c, 0, 47, 65
1, 182763, Control_c, 0, 64, 90
1, 182835, Note_off_c, 0, 82, 61
1, 182845, Note_off_c, 0, 87, 60
1, 182845, Note_off_c, 0, 78, 61
1, 182914, Note_on_c, 0, 54, 66
1, 182933, Note_off_c, 0, 75, 63
1, 183003, Note_off_c, 0, 54, 57
1, 183024, Note_on_c, 0, 85, 83
1, 183027, Note_on_c, 0, 73, 87
1, 183030, Note_on_c, 0, 76, 77
1, 183036, Note_on_c, 0, 82, 73
1, 183042, Note_on_c, 0, 66, 71
1, 183045, Control_c, 0, 64, 91
1, 183051, Note_on_c, 0, 58, 63
1, 183112, Note_off_c, 0, 66, 63
1, 183160, Note_on_c, 0, 54, 67
1, 183170, Note_off_c, 0, 58, 59
1, 183191, Note_off_c, 0, 73, 59
1, 183197, Note_off_c, 0, 76, 63
1, 183219, Note_off_c, 0, 54, 57
1, 183225, Note_off_c, 0, 82, 61
1, 183230, Note_off_c, 0, 85, 64
1, 183315, Note_on_c, 0, 87, 95
1, 183319, Note_on_c, 0, 75, 93
1, 183331, Note_on_c, 0, 82, 75
1, 183331, Note_on_c, 0, 78, 78
1, 183349, Note_on_c, 0, 47, 74
1, 183465, Note_on_c, 0, 42, 82
1, 183470, Note_off_c, 0, 47, 63
1, 183489, Note_off_c, 0, 87, 57
1, 183497, Note_off_c, 0, 75, 62
1, 183527, Control_c, 0, 64, 91
1, 183542, Note_off_c, 0, 82, 56
1, 183542, Control_c, 0, 64, 93
1, 183546, Note_off_c, 0, 78, 59
1, 183556, Control_c, 0, 64, 95
1, 183571, Control_c, 0, 64, 95
1, 183586, Note_on_c, 0, 35, 81
1, 183599, Note_off_c, 0, 42, 61
1, 183601, Control_c, 0, 64, 92
1, 183615, Control_c, 0, 64, 78
1, 183617, Note_on_c, 0, 88, 95
1, 183621, Note_on_c, 0, 76, 96
1, 183625, Note_on_c, 0, 79, 80
1, 183626, Note_on_c, 0, 82, 82
1, 183630, Control_c, 0, 64, 0
1, 183719, Control_c, 0, 64, 53
1, 183734, Control_c, 0, 64, 68
1, 183748, Control_c, 0, 64, 74
1, 183763, Control_c, 0, 64, 78
1, 183778, Note_on_c, 0, 42, 64
1, 183778, Control_c, 0, 64, 81
1, 183785, Note_off_c, 0, 35, 56
1, 183785, Note_off_c, 0, 88, 56
1, 183793, Control_c, 0, 64, 83
1, 183799, Note_off_c, 0, 76, 62
1, 183808, Control_c, 0, 64, 84
1, 183813, Note_off_c, 0, 79, 59
1, 183823, Control_c, 0, 64, 86
1, 183838, Control_c, 0, 64, 88
1, 183844, Note_off_c, 0, 82, 63
1, 183853, Control_c, 0, 64, 90
1, 183868, Control_c, 0, 64, 92
1, 183883, Control_c, 0, 64, 93
1, 183898, Control_c, 0, 64, 94
1, 183905, Note_off_c, 0, 42, 63
1, 183912, Control_c, 0, 64, 95
1, 183917, Note_on_c, 0, 87, 88
1, 183921, Note_on_c, 0, 75, 91
1, 183924, Note_on_c, 0, 47, 65
1, 183924, Note_on_c, 0, 82, 84
1, 183933, Note_on_c, 0, 78, 77
1, 183965, Control_c, 0, 64, 95
1, 183969, Note_off_c, 0, 47, 65
1, 184040, Note_off_c, 0, 82, 62
1, 184046, Note_off_c, 0, 87, 60
1, 184048, Note_off_c, 0, 78, 65
1, 184109, Note_on_c, 0, 54, 61
1, 184171, Note_off_c, 0, 75, 58
1, 184201, Control_c, 0, 64, 96
1, 184210, Note_off_c, 0, 54, 59
1, 184234, Note_on_c, 0, 85, 88
1, 184234, Note_on_c, 0, 73, 99
1, 184234, Note_on_c, 0, 76, 82
1, 184240, Note_on_c, 0, 82, 80
1, 184255, Note_on_c, 0, 66, 68
1, 184261, Note_on_c, 0, 58, 61
1, 184323, Note_off_c, 0, 66, 58
1, 184376, Note_off_c, 0, 58, 57
1, 184386, Note_on_c, 0, 54, 57
1, 184430, Note_off_c, 0, 54, 58
1, 184435, Note_off_c, 0, 76, 64
1, 184436, Note_off_c, 0, 73, 61
1, 184448, Note_off_c, 0, 85, 62
1, 184453, Note_off_c, 0, 82, 61
1, 184534, Note_on_c, 0, 87, 96
1, 184536, Note_on_c, 0, 75, 92
1, 184542, Note_on_c, 0, 78, 83
1, 184556, Note_on_c, 0, 82, 69
1, 184556, Control_c, 0, 64, 96
1, 184583, Note_on_c, 0, 47, 70
1, 184604, Note_off_c, 0, 82, 48
1, 184617, Control_c, 0, 64, 97
1, 184626, Note_off_c, 0, 78, 61
1, 184628, Note_off_c, 0, 87, 61
1, 184692, Note_off_c, 0, 75, 63
1, 184717, Note_off_c, 0, 47, 63
1, 184718, Note_on_c, 0, 42, 72
1, 184774, Control_c, 0, 64, 97
1, 184788, Control_c, 0, 64, 98
1, 184803, Control_c, 0, 64, 101
1, 184818, Control_c, 0, 64, 106
1, 184833, Control_c, 0, 64, 112
1, 184848, Control_c, 0, 64, 116
1, 184859, Note_on_c, 0, 35, 70
1, 184862, Control_c, 0, 64, 116
1, 184883, Note_off_c, 0, 42, 59
1, 184892, Control_c, 0, 64, 111
1, 184907, Control_c, 0, 64, 94
1, 184914, Note_on_c, 0, 83, 91
1, 184919, Note_on_c, 0, 71, 82
1, 184919, Note_on_c, 0, 75, 78
1, 184922, Control_c, 0, 64, 69
1, 184923, Note_on_c, 0, 78, 79
1, 184936, Control_c, 0, 64, 0
1, 185006, Poly_aftertouch_c, 0, 82, 127
1, 185032, Poly_aftertouch_c, 0, 82, 0
1, 185040, Control_c, 0, 64, 52
1, 185055, Control_c, 0, 64, 69
1, 185069, Control_c, 0, 64, 77
1, 185084, Control_c, 0, 64, 87
1, 185099, Control_c, 0, 64, 90
1, 185114, Control_c, 0, 64, 92
1, 185129, Control_c, 0, 64, 93
1, 185138, Note_off_c, 0, 83, 55
1, 185143, Control_c, 0, 64, 94
1, 185144, Note_on_c, 0, 42, 55
1, 185154, Note_off_c, 0, 71, 55
1, 185158, Control_c, 0, 64, 94
1, 185170, Note_off_c, 0, 78, 63
1, 185173, Control_c, 0, 64, 95
1, 185174, Note_off_c, 0, 75, 63
1, 185211, Note_off_c, 0, 35, 38
1, 185237, Note_on_c, 0, 79, 93
1, 185240, Note_off_c, 0, 42, 63
1, 185257, Note_on_c, 0, 71, 72
1, 185263, Note_on_c, 0, 75, 62
1, 185268, Note_on_c, 0, 47, 56
1, 185295, Note_off_c, 0, 47, 63
1, 185380, Control_c, 0, 64, 95
1, 185395, Control_c, 0, 64, 96
1, 185410, Control_c, 0, 64, 96
1, 185425, Control_c, 0, 64, 97
1, 185429, Note_off_c, 0, 71, 55
1, 185435, Note_on_c, 0, 54, 38
1, 185440, Control_c, 0, 64, 97
1, 185444, Note_off_c, 0, 75, 41
1, 185477, Control_c, 0, 64, 97
1, 185492, Control_c, 0, 64, 90
1, 185507, Control_c, 0, 64, 78
1, 185510, Note_off_c, 0, 54, 57
1, 185522, Control_c, 0, 64, 64
1, 185526, Note_on_c, 0, 78, 86
1, 185537, Control_c, 0, 64, 46
1, 185538, Note_on_c, 0, 75, 79
1, 185540, Note_on_c, 0, 71, 70
1, 185547, Note_on_c, 0, 66, 66
1, 185552, Note_on_c, 0, 59, 54
1, 185552, Control_c, 0, 64, 59
1, 185567, Control_c, 0, 64, 66
1, 185577, Note_off_c, 0, 79, 52
1, 185582, Control_c, 0, 64, 72
1, 185596, Control_c, 0, 64, 80
1, 185598, Note_off_c, 0, 66, 57
1, 185611, Control_c, 0, 64, 85
1, 185626, Note_off_c, 0, 75, 63
1, 185626, Control_c, 0, 64, 86
1, 185627, Note_off_c, 0, 78, 62
1, 185656, Control_c, 0, 64, 86
1, 185658, Note_off_c, 0, 59, 61
1, 185666, Note_on_c, 0, 54, 55
1, 185671, Note_off_c, 0, 71, 56
1, 185671, Control_c, 0, 64, 87
1, 185685, Control_c, 0, 64, 89
1, 185700, Control_c, 0, 64, 90
1, 185715, Control_c, 0, 64, 92
1, 185716, Note_off_c, 0, 54, 60
1, 185730, Control_c, 0, 64, 93
1, 185745, Control_c, 0, 64, 93
1, 185759, Control_c, 0, 64, 94
1, 185789, Control_c, 0, 64, 94
1, 185817, Note_on_c, 0, 75, 89
1, 185833, Control_c, 0, 64, 95
1, 185841, Note_on_c, 0, 66, 71
1, 185843, Note_on_c, 0, 71, 49
1, 185863, Control_c, 0, 64, 95
1, 185891, Note_on_c, 0, 47, 46
1, 185937, Note_off_c, 0, 71, 54
1, 185963, Note_off_c, 0, 66, 61
1, 185979, Note_off_c, 0, 75, 61
1, 186004, Note_on_c, 0, 42, 52
1, 186007, Note_off_c, 0, 47, 43
1, 186089, Note_off_c, 0, 42, 56
1, 186099, Control_c, 0, 64, 94
1, 186106, Note_on_c, 0, 35, 53
1, 186114, Control_c, 0, 64, 87
1, 186124, Note_on_c, 0, 74, 76
1, 186128, Control_c, 0, 64, 72
1, 186135, Note_on_c, 0, 71, 67
1, 186143, Control_c, 0, 64, 16
1, 186158, Control_c, 0, 64, 0
1, 186159, Note_on_c, 0, 67, 48
1, 186210, Control_c, 0, 64, 40
1, 186225, Control_c, 0, 64, 65
1, 186240, Control_c, 0, 64, 72
1, 186255, Control_c, 0, 64, 76
1, 186270, Control_c, 0, 64, 79
1, 186285, Control_c, 0, 64, 82
1, 186300, Control_c, 0, 64, 84
1, 186302, Note_on_c, 0, 42, 46
1, 186315, Control_c, 0, 64, 85
1, 186316, Note_off_c, 0, 67, 41
1, 186326, Note_off_c, 0, 71, 56
1, 186330, Control_c, 0, 64, 87
1, 186345, Control_c, 0, 64, 88
1, 186359, Control_c, 0, 64, 89
1, 186374, Control_c, 0, 64, 90
1, 186384, Note_off_c, 0, 42, 59
1, 186389, Control_c, 0, 64, 90
1, 186398, Note_off_c, 0, 35, 42
1, 186404, Control_c, 0, 64, 91
1, 186419, Control_c, 0, 64, 91
1, 186433, Note_on_c, 0, 71, 78
1, 186433, Control_c, 0, 64, 92
1, 186434, Note_on_c, 0, 47, 45
1, 186446, Note_on_c, 0, 64, 61
1, 186449, Note_on_c, 0, 67, 59
1, 186463, Control_c, 0, 64, 92
1, 186469, Note_off_c, 0, 47, 63
1, 186498, Note_off_c, 0, 74, 50
1, 186507, Control_c, 0, 64, 93
1, 186566, Control_c, 0, 64, 93
1, 186584, Note_off_c, 0, 71, 56
1, 186592, Note_on_c, 0, 54, 51
1, 186595, Note_off_c, 0, 67, 48
1, 186612, Note_off_c, 0, 64, 58
1, 186670, Control_c, 0, 64, 94
1, 186714, Control_c, 0, 64, 94
1, 186719, Note_off_c, 0, 54, 45
1, 186743, Note_on_c, 0, 71, 70
1, 186747, Note_on_c, 0, 67, 59
1, 186753, Note_on_c, 0, 62, 59
1, 186848, Control_c, 0, 64, 95
1, 186855, Note_off_c, 0, 67, 54
1, 186855, Note_off_c, 0, 62, 50
1, 186954, Note_on_c, 0, 47, 33
1, 187033, Control_c, 0, 64, 94
1, 187043, Note_on_c, 0, 67, 74
1, 187048, Control_c, 0, 64, 91
1, 187057, Note_on_c, 0, 62, 61
1, 187063, Control_c, 0, 64, 84
1, 187064, Note_on_c, 0, 59, 49
1, 187078, Control_c, 0, 64, 76
1, 187090, Note_on_c, 0, 42, 39
1, 187093, Control_c, 0, 64, 69
1, 187102, Note_off_c, 0, 47, 43
1, 187108, Control_c, 0, 64, 68
1, 187123, Control_c, 0, 64, 70
1, 187138, Control_c, 0, 64, 73
1, 187152, Control_c, 0, 64, 76
1, 187161, Note_off_c, 0, 59, 0
1, 187161, Note_on_c, 0, 59, 3
1, 187167, Control_c, 0, 64, 77
1, 187182, Note_off_c, 0, 62, 43
1, 187182, Control_c, 0, 64, 78
1, 187197, Control_c, 0, 64, 79
1, 187212, Control_c, 0, 64, 81
1, 187215, Note_off_c, 0, 67, 57
1, 187221, Note_off_c, 0, 42, 48
1, 187227, Note_off_c, 0, 71, 19
1, 187227, Control_c, 0, 64, 83
1, 187233, Note_on_c, 0, 35, 48
1, 187242, Control_c, 0, 64, 85
1, 187256, Control_c, 0, 64, 87
1, 187271, Control_c, 0, 64, 88
1, 187316, Control_c, 0, 64, 84
1, 187330, Control_c, 0, 64, 74
1, 187345, Control_c, 0, 64, 0
1, 187346, Note_on_c, 0, 71, 66
1, 187364, Note_on_c, 0, 66, 55
1, 187375, Note_on_c, 0, 63, 41
1, 187419, Control_c, 0, 67, 10
1, 187434, Control_c, 0, 64, 36
1, 187434, Control_c, 0, 67, 15
1, 187448, Control_c, 0, 64, 61
1, 187448, Control_c, 0, 67, 22
1, 187463, Control_c, 0, 64, 65
1, 187463, Control_c, 0, 67, 30
1, 187478, Control_c, 0, 64, 67
1, 187478, Control_c, 0, 67, 39
1, 187484, Note_off_c, 0, 59, 36
1, 187493, Control_c, 0, 64, 69
1, 187493, Control_c, 0, 67, 48
1, 187502, Note_off_c, 0, 66, 57
1, 187508, Control_c, 0, 64, 72
1, 187508, Control_c, 0, 67, 57
1, 187512, Note_on_c, 0, 42, 40
1, 187522, Note_off_c, 0, 63, 45
1, 187523, Control_c, 0, 64, 75
1, 187523, Control_c, 0, 67, 64
1, 187537, Control_c, 0, 64, 77
1, 187537, Control_c, 0, 67, 69
1, 187552, Control_c, 0, 64, 79
1, 187552, Control_c, 0, 67, 73
1, 187568, Control_c, 0, 64, 80
1, 187568, Control_c, 0, 67, 76
1, 187582, Control_c, 0, 64, 81
1, 187582, Control_c, 0, 67, 80
1, 187597, Control_c, 0, 64, 82
1, 187597, Control_c, 0, 67, 83
1, 187605, Note_off_c, 0, 35, 42
1, 187606, Note_off_c, 0, 42, 61
1, 187612, Control_c, 0, 64, 83
1, 187612, Control_c, 0, 67, 87
1, 187627, Control_c, 0, 64, 83
1, 187627, Control_c, 0, 67, 88
1, 187638, Note_on_c, 0, 67, 71
1, 187642, Control_c, 0, 64, 84
1, 187659, Note_on_c, 0, 47, 51
1, 187665, Note_on_c, 0, 63, 44
1, 187671, Control_c, 0, 64, 84
1, 187680, Note_on_c, 0, 59, 30
1, 187686, Control_c, 0, 64, 85
1, 187691, Note_off_c, 0, 47, 60
1, 187724, Control_c, 0, 64, 85
1, 187753, Control_c, 0, 67, 88
1, 187782, Control_c, 0, 64, 86
1, 187806, Note_off_c, 0, 59, 40
1, 187811, Note_off_c, 0, 63, 42
1, 187829, Note_on_c, 0, 54, 32
1, 187863, Note_off_c, 0, 54, 47
1, 187929, Note_on_c, 0, 66, 67
1, 187936, Note_on_c, 0, 63, 51
1, 187940, Note_on_c, 0, 59, 42
1, 187988, Note_off_c, 0, 67, 53
1, 187991, Control_c, 0, 64, 86
1, 187993, Note_off_c, 0, 71, 21
1, 188005, Control_c, 0, 64, 87
1, 188016, Note_off_c, 0, 63, 63
1, 188020, Note_off_c, 0, 66, 65
1, 188020, Control_c, 0, 64, 87
1, 188050, Control_c, 0, 64, 88
1, 188059, Note_off_c, 0, 59, 53
1, 188065, Control_c, 0, 64, 88
1, 188105, Note_on_c, 0, 47, 51
1, 188109, Control_c, 0, 64, 89
1, 188139, Control_c, 0, 64, 89
1, 188154, Control_c, 0, 64, 90
1, 188169, Control_c, 0, 64, 90
1, 188184, Control_c, 0, 64, 91
1, 188213, Control_c, 0, 64, 90
1, 188228, Control_c, 0, 64, 87
1, 188234, Note_on_c, 0, 63, 71
1, 188243, Control_c, 0, 64, 80
1, 188245, Note_on_c, 0, 59, 24
1, 188258, Control_c, 0, 64, 71
1, 188259, Note_on_c, 0, 42, 49
1, 188267, Note_on_c, 0, 54, 50
1, 188268, Note_off_c, 0, 47, 32
1, 188272, Control_c, 0, 64, 61
1, 188278, Note_off_c, 0, 59, 54
1, 188287, Control_c, 0, 64, 55
1, 188302, Control_c, 0, 64, 64
1, 188317, Control_c, 0, 64, 69
1, 188331, Control_c, 0, 64, 77
1, 188346, Control_c, 0, 64, 84
1, 188361, Control_c, 0, 64, 87
1, 188361, Control_c, 0, 67, 89
1, 188376, Control_c, 0, 64, 88
1, 188390, Note_on_c, 0, 35, 41
1, 188403, Note_off_c, 0, 42, 34
1, 188416, Note_off_c, 0, 63, 54
1, 188446, Note_off_c, 0, 54, 55
1, 188458, Control_c, 0, 64, 88
1, 188514, Note_off_c, 0, 35, 34
1, 188531, Control_c, 0, 64, 87
1, 188546, Control_c, 0, 64, 81
1, 188553, Note_on_c, 0, 62, 63
1, 188558, Note_on_c, 0, 55, 45
1, 188559, Note_on_c, 0, 59, 46
1, 188561, Control_c, 0, 64, 71
1, 188576, Control_c, 0, 64, 50
1, 188591, Control_c, 0, 64, 0
1, 188650, Control_c, 0, 64, 58
1, 188665, Control_c, 0, 64, 66
1, 188681, Control_c, 0, 64, 70
1, 188696, Control_c, 0, 64, 74
1, 188710, Control_c, 0, 64, 77
1, 188720, Note_on_c, 0, 35, 35
1, 188725, Control_c, 0, 64, 80
1, 188740, Control_c, 0, 64, 82
1, 188754, Control_c, 0, 64, 83
1, 188758, Note_off_c, 0, 55, 43
1, 188759, Note_off_c, 0, 59, 31
1, 188769, Control_c, 0, 64, 84
1, 188784, Control_c, 0, 64, 84
1, 188799, Control_c, 0, 64, 85
1, 188814, Control_c, 0, 67, 89
1, 188828, Control_c, 0, 67, 90
1, 188843, Control_c, 0, 67, 91
1, 188858, Control_c, 0, 64, 84
1, 188858, Control_c, 0, 67, 98
1, 188864, Note_on_c, 0, 59, 59
1, 188873, Control_c, 0, 64, 79
1, 188873, Control_c, 0, 67, 111
1, 188884, Note_on_c, 0, 55, 43
1, 188888, Note_on_c, 0, 50, 35
1, 188888, Control_c, 0, 64, 70
1, 188888, Control_c, 0, 67, 124
1, 188890, Note_on_c, 0, 42, 41
1, 188902, Control_c, 0, 64, 52
1, 188902, Control_c, 0, 67, 127
1, 188917, Control_c, 0, 64, 0
1, 188947, Control_c, 0, 64, 54
1, 188962, Control_c, 0, 64, 66
1, 188977, Control_c, 0, 64, 72
1, 188992, Control_c, 0, 64, 78
1, 188995, Note_off_c, 0, 50, 48
1, 189007, Control_c, 0, 64, 84
1, 189016, Note_off_c, 0, 59, 60
1, 189021, Note_off_c, 0, 62, 34
1, 189021, Control_c, 0, 64, 85
1, 189036, Control_c, 0, 64, 85
1, 189051, Control_c, 0, 64, 86
1, 189060, Note_on_c, 0, 47, 45
1, 189081, Control_c, 0, 64, 86
1, 189096, Control_c, 0, 64, 87
1, 189096, Note_off_c, 0, 55, 40
1, 189184, Control_c, 0, 64, 85
1, 189191, Note_on_c, 0, 59, 55
1, 189206, Control_c, 0, 64, 76
1, 189218, Note_on_c, 0, 51, 41
1, 189218, Note_on_c, 0, 55, 29
1, 189221, Control_c, 0, 64, 62
1, 189236, Control_c, 0, 64, 0
1, 189236, Note_off_c, 0, 42, 33
1, 189240, Note_off_c, 0, 47, 30
1, 189296, Control_c, 0, 64, 47
1, 189310, Control_c, 0, 64, 65
1, 189325, Control_c, 0, 64, 69
1, 189340, Control_c, 0, 64, 73
1, 189344, Note_off_c, 0, 55, 42
1, 189352, Note_off_c, 0, 35, 26
1, 189354, Control_c, 0, 64, 76
1, 189369, Control_c, 0, 64, 78
1, 189370, Note_off_c, 0, 59, 62
1, 189384, Control_c, 0, 64, 81
1, 189391, Note_off_c, 0, 51, 46
1, 189399, Control_c, 0, 64, 82
1, 189414, Control_c, 0, 64, 82
1, 189428, Control_c, 0, 64, 83
1, 189443, Control_c, 0, 64, 83
1, 189458, Control_c, 0, 64, 84
1, 189469, Note_on_c, 0, 47, 28
1, 189473, Control_c, 0, 64, 84
1, 189519, Control_c, 0, 64, 84
1, 189533, Control_c, 0, 64, 80
1, 189548, Control_c, 0, 64, 72
1, 189563, Control_c, 0, 64, 52
1, 189564, Note_on_c, 0, 55, 49
1, 189577, Control_c, 0, 64, 0
1, 189589, Note_on_c, 0, 52, 11
1, 189596, Note_off_c, 0, 47, 38
1, 189597, Note_on_c, 0, 42, 22
1, 189637, Control_c, 0, 64, 62
1, 189651, Control_c, 0, 64, 67
1, 189666, Control_c, 0, 64, 71
1, 189681, Control_c, 0, 64, 74
1, 189696, Control_c, 0, 64, 76
1, 189711, Control_c, 0, 64, 77
1, 189725, Control_c, 0, 64, 77
1, 189740, Control_c, 0, 64, 78
1, 189755, Control_c, 0, 64, 78
1, 189757, Note_off_c, 0, 55, 58
1, 189765, Note_off_c, 0, 42, 37
1, 189770, Control_c, 0, 64, 79
1, 189785, Note_on_c, 0, 35, 21
1, 189876, Note_off_c, 0, 52, 42
1, 189880, Note_on_c, 0, 51, 45
1, 189904, Control_c, 0, 64, 78
1, 189919, Control_c, 0, 64, 75
1, 189933, Control_c, 0, 64, 69
1, 189955, Control_c, 0, 64, 56
1, 189970, Control_c, 0, 64, 0
1, 189978, Note_on_c, 0, 54, 26
1, 190005, Note_on_c, 0, 59, 42
1, 190103, Control_c, 0, 64, 52
1, 190118, Control_c, 0, 64, 62
1, 190121, Note_on_c, 0, 42, 25
1, 190133, Control_c, 0, 64, 65
1, 190148, Control_c, 0, 64, 67
1, 190154, Note_off_c, 0, 54, 37
1, 190163, Control_c, 0, 64, 68
1, 190177, Control_c, 0, 64, 71
1, 190192, Control_c, 0, 64, 73
1, 190207, Control_c, 0, 64, 75
1, 190222, Control_c, 0, 64, 77
1, 190237, Control_c, 0, 64, 78
1, 190251, Control_c, 0, 64, 79
1, 190266, Control_c, 0, 64, 80
1, 190270, Note_on_c, 0, 47, 38
1, 190282, Control_c, 0, 64, 81
1, 190297, Control_c, 0, 64, 82
1, 190305, Note_off_c, 0, 42, 29
1, 190312, Control_c, 0, 64, 83
1, 190327, Control_c, 0, 64, 84
1, 190342, Control_c, 0, 64, 84
1, 190356, Control_c, 0, 64, 85
1, 190371, Control_c, 0, 64, 85
1, 190386, Control_c, 0, 64, 86
1, 190415, Control_c, 0, 64, 86
1, 190436, Note_off_c, 0, 47, 39
1, 190444, Note_off_c, 0, 59, 30
1, 190445, Control_c, 0, 64, 87
1, 190456, Note_on_c, 0, 54, 42
1, 190474, Control_c, 0, 64, 87
1, 190504, Control_c, 0, 64, 88
1, 190534, Control_c, 0, 64, 88
1, 190545, Note_off_c, 0, 35, 36
1, 190578, Control_c, 0, 64, 89
1, 190607, Control_c, 0, 64, 89
1, 190637, Control_c, 0, 64, 90
1, 190667, Control_c, 0, 64, 90
1, 190704, Control_c, 0, 64, 91
1, 190719, Control_c, 0, 64, 91
1, 190733, Control_c, 0, 64, 92
1, 190763, Control_c, 0, 64, 92
1, 190772, Note_on_c, 0, 47, 37
1, 190822, Control_c, 0, 64, 93
1, 190920, Note_on_c, 0, 42, 38
1, 190927, Note_off_c, 0, 47, 40
1, 190971, Note_off_c, 0, 51, 26
1, 191025, Note_off_c, 0, 42, 47
1, 191045, Control_c, 0, 64, 93
1, 191082, Note_on_c, 0, 35, 25
1, 191326, Control_c, 0, 64, 94
1, 191392, Note_on_c, 0, 42, 27
1, 191416, Note_off_c, 0, 35, 31
1, 191537, Note_off_c, 0, 42, 35
1, 191559, Note_on_c, 0, 47, 28
1, 191674, Control_c, 0, 64, 94
1, 191682, Note_off_c, 0, 54, 17
1, 191716, Note_off_c, 0, 47, 39
1, 191725, Note_on_c, 0, 59, 48
1, 192065, Note_on_c, 0, 47, 35
1, 192241, Note_on_c, 0, 42, 31
1, 192245, Note_off_c, 0, 47, 39
1, 192365, Note_off_c, 0, 59, 37
1, 192378, Note_off_c, 0, 42, 35
1, 192393, Note_on_c, 0, 35, 27
1, 192453, Control_c, 0, 64, 95
1, 192757, Note_on_c, 0, 42, 28
1, 192765, Control_c, 0, 64, 95
1, 192889, Note_on_c, 0, 47, 39
1, 192897, Note_off_c, 0, 42, 32
1, 193037, Note_off_c, 0, 47, 32
1, 193069, Note_on_c, 0, 54, 37
1, 193152, Note_off_c, 0, 35, 5
1, 193403, Note_on_c, 0, 47, 35
1, 193423, Control_c, 0, 64, 96
1, 193571, Note_off_c, 0, 47, 41
1, 193585, Note_on_c, 0, 42, 28
1, 193758, Note_off_c, 0, 42, 29
1, 193761, Note_on_c, 0, 35, 30
1, 193831, Control_c, 0, 64, 96
1, 193854, Note_off_c, 0, 54, 34
1, 194077, Note_on_c, 0, 42, 28
1, 194080, Note_off_c, 0, 35, 34
1, 194083, Control_c, 0, 64, 97
1, 194187, Control_c, 0, 64, 97
1, 194242, Note_off_c, 0, 42, 33
1, 194253, Note_on_c, 0, 47, 36
1, 194336, Control_c, 0, 64, 98
1, 194468, Note_on_c, 0, 59, 37
1, 194489, Note_off_c, 0, 47, 35
1, 194551, Control_c, 0, 64, 98
1, 194853, Note_on_c, 0, 47, 33
1, 194891, Control_c, 0, 64, 99
1, 195046, Note_off_c, 0, 47, 41
1, 195082, Note_on_c, 0, 42, 26
1, 195359, Note_off_c, 0, 42, 38
1, 195372, Note_on_c, 0, 35, 38
1, 195508, Control_c, 0, 64, 99
1, 195600, Note_off_c, 0, 35, 34
1, 195685, Control_c, 0, 64, 100
1, 195744, Control_c, 0, 64, 100
1, 195769, Note_off_c, 0, 59, 21
1, 195788, Control_c, 0, 64, 101
1, 195818, Control_c, 0, 64, 101
1, 195879, Control_c, 0, 64, 102
1, 196019, Control_c, 0, 64, 102
1, 196056, Note_on_c, 0, 47, 37
1, 196132, Note_off_c, 0, 47, 61
1, 196182, Control_c, 0, 64, 103
1, 196375, Control_c, 0, 64, 103
1, 196508, Control_c, 0, 64, 104
1, 196553, Note_on_c, 0, 59, 40
1, 196598, Note_off_c, 0, 59, 51
1, 196694, Control_c, 0, 64, 104
1, 196827, Control_c, 0, 64, 105
1, 196991, Note_on_c, 0, 71, 42
1, 197033, Note_off_c, 0, 71, 47
1, 197034, Control_c, 0, 64, 105
1, 197316, Control_c, 0, 64, 106
1, 197525, Note_on_c, 0, 83, 48
1, 197591, Control_c, 0, 64, 106
1, 197645, Note_off_c, 0, 83, 28
1, 198065, Control_c, 0, 64, 107
1, 198459, Control_c, 0, 64, 107
1, 198666, Control_c, 0, 64, 108
1, 198862, Note_on_c, 0, 95, 61
1, 198898, Note_off_c, 0, 95, 65
1, 198954, Control_c, 0, 64, 108
1, 199207, Control_c, 0, 64, 109
1, 201513, Control_c, 0, 64, 108
1, 201631, Control_c, 0, 64, 108
1, 201765, Control_c, 0, 64, 107
1, 201854, Control_c, 0, 64, 107
1, 201965, Control_c, 0, 64, 106
1, 202069, Control_c, 0, 64, 106
1, 202143, Control_c, 0, 64, 105
1, 202231, Control_c, 0, 64, 105
1, 202292, Control_c, 0, 64, 104
1, 202336, Control_c, 0, 64, 104
1, 202380, Control_c, 0, 64, 103
1, 202425, Control_c, 0, 64, 103
1, 202454, Control_c, 0, 64, 102
1, 202469, Control_c, 0, 64, 102
1, 202484, Control_c, 0, 64, 101
1, 202499, Control_c, 0, 64, 100
1, 202513, Control_c, 0, 64, 100
1, 202528, Control_c, 0, 64, 99
1, 202543, Control_c, 0, 64, 98
1, 202558, Control_c, 0, 64, 97
1, 202573, Control_c, 0, 64, 96
1, 202588, Control_c, 0, 64, 95
1, 202602, Control_c, 0, 64, 94
1, 202617, Control_c, 0, 64, 93
1, 202632, Control_c, 0, 64, 92
1, 202647, Control_c, 0, 64, 91
1, 202662, Control_c, 0, 64, 90
1, 202684, Control_c, 0, 64, 89
1, 202699, Control_c, 0, 64, 88
1, 202713, Control_c, 0, 64, 88
1, 202728, Control_c, 0, 64, 87
1, 202743, Control_c, 0, 64, 86
1, 202758, Control_c, 0, 64, 85
1, 202758, Control_c, 0, 67, 125
1, 202773, Control_c, 0, 64, 85
1, 202773, Control_c, 0, 67, 123
1, 202787, Control_c, 0, 64, 84
1, 202787, Control_c, 0, 67, 120
1, 202802, Control_c, 0, 64, 83
1, 202802, Control_c, 0, 67, 117
1, 202817, Control_c, 0, 64, 82
1, 202817, Control_c, 0, 67, 113
1, 202832, Control_c, 0, 64, 82
1, 202832, Control_c, 0, 67, 111
1, 202847, Control_c, 0, 64, 81
1, 202847, Control_c, 0, 67, 108
1, 202862, Control_c, 0, 64, 80
1, 202862, Control_c, 0, 67, 105
1, 202877, Control_c, 0, 64, 79
1, 202877, Control_c, 0, 67, 102
1, 202892, Control_c, 0, 64, 78
1, 202892, Control_c, 0, 67, 99
1, 202906, Control_c, 0, 64, 77
1, 202906, Control_c, 0, 67, 95
1, 202921, Control_c, 0, 64, 76
1, 202921, Control_c, 0, 67, 91
1, 202936, Control_c, 0, 64, 75
1, 202936, Control_c, 0, 67, 87
1, 202951, Control_c, 0, 64, 74
1, 202951, Control_c, 0, 67, 82
1, 202966, Control_c, 0, 64, 73
1, 202966, Control_c, 0, 67, 78
1, 202980, Control_c, 0, 64, 71
1, 202980, Control_c, 0, 67, 73
1, 202995, Control_c, 0, 64, 70
1, 202995, Control_c, 0, 67, 69
1, 203010, Control_c, 0, 64, 69
1, 203010, Control_c, 0, 67, 65
1, 203025, Control_c, 0, 64, 67
1, 203025, Control_c, 0, 67, 62
1, 203040, Control_c, 0, 64, 66
1, 203040, Control_c, 0, 67, 60
1, 203056, Control_c, 0, 64, 65
1, 203056, Control_c, 0, 67, 57
1, 203070, Control_c, 0, 64, 65
1, 203070, Control_c, 0, 67, 55
1, 203085, Control_c, 0, 64, 64
1, 203085, Control_c, 0, 67, 54
1, 203100, Control_c, 0, 64, 64
1, 203100, Control_c, 0, 67, 52
1, 203115, Control_c, 0, 67, 51
1, 203129, Control_c, 0, 64, 63
1, 203129, Control_c, 0, 67, 49
1, 203144, Control_c, 0, 64, 62
1, 203144, Control_c, 0, 67, 49
1, 203159, Control_c, 0, 64, 61
1, 203159, Control_c, 0, 67, 48
1, 203174, Control_c, 0, 64, 60
1, 203174, Control_c, 0, 67, 47
1, 203189, Control_c, 0, 67, 46
1, 203203, Control_c, 0, 64, 59
1, 203203, Control_c, 0, 67, 45
1, 203218, Control_c, 0, 67, 45
1, 203233, Control_c, 0, 67, 44
1, 203248, Control_c, 0, 64, 59
1, 203248, Control_c, 0, 67, 44
1, 203263, Control_c, 0, 64, 58
1, 203263, Control_c, 0, 67, 43
1, 203292, Control_c, 0, 67, 43
1, 203366, Control_c, 0, 67, 42
1, 203462, Control_c, 0, 64, 59
1, 203492, Control_c, 0, 64, 59
1, 203522, Control_c, 0, 64, 60
1, 203551, Control_c, 0, 64, 60
1, 203581, Control_c, 0, 64, 61
1, 203596, Control_c, 0, 64, 61
1, 203610, Control_c, 0, 64, 62
1, 203625, Control_c, 0, 64, 62
1, 203640, Control_c, 0, 64, 63
1, 203655, Control_c, 0, 64, 64
1, 203670, Control_c, 0, 64, 65
1, 203685, Control_c, 0, 64, 66
1, 203699, Control_c, 0, 64, 66
1, 203714, Control_c, 0, 64, 67
1, 203729, Control_c, 0, 64, 68
1, 203744, Control_c, 0, 64, 70
1, 203759, Control_c, 0, 64, 71
1, 203774, Control_c, 0, 64, 73
1, 203789, Control_c, 0, 64, 74
1, 203803, Control_c, 0, 64, 74
1, 203803, Control_c, 0, 67, 43
1, 203818, Control_c, 0, 64, 75
1, 203818, Control_c, 0, 67, 44
1, 203833, Control_c, 0, 64, 76
1, 203833, Control_c, 0, 67, 44
1, 203848, Control_c, 0, 64, 78
1, 203848, Control_c, 0, 67, 45
1, 203863, Control_c, 0, 64, 79
1, 203863, Control_c, 0, 67, 46
1, 203878, Control_c, 0, 64, 80
1, 203878, Control_c, 0, 67, 48
1, 203893, Control_c, 0, 64, 81
1, 203893, Control_c, 0, 67, 49
1, 203908, Control_c, 0, 64, 82
1, 203908, Control_c, 0, 67, 51
1, 203923, Control_c, 0, 64, 83
1, 203923, Control_c, 0, 67, 52
1, 203938, Control_c, 0, 64, 84
1, 203938, Control_c, 0, 67, 53
1, 203952, Control_c, 0, 64, 85
1, 203952, Control_c, 0, 67, 54
1, 203967, Control_c, 0, 64, 86
1, 203967, Control_c, 0, 67, 57
1, 203982, Control_c, 0, 64, 87
1, 203982, Control_c, 0, 67, 61
1, 203997, Control_c, 0, 64, 89
1, 203997, Control_c, 0, 67, 65
1, 204012, Control_c, 0, 64, 90
1, 204012, Control_c, 0, 67, 70
1, 204027, Control_c, 0, 64, 91
1, 204027, Control_c, 0, 67, 74
1, 204040, Control_c, 0, 64, 92
1, 204040, Control_c, 0, 67, 80
1, 204055, Control_c, 0, 64, 93
1, 204055, Control_c, 0, 67, 87
1, 204070, Control_c, 0, 64, 93
1, 204070, Control_c, 0, 67, 94
1, 204085, Control_c, 0, 64, 94
1, 204085, Control_c, 0, 67, 100
1, 204099, Control_c, 0, 64, 94
1, 204099, Control_c, 0, 67, 106
1, 204114, Control_c, 0, 67, 113
1, 204129, Control_c, 0, 64, 95
1, 204129, Control_c, 0, 67, 119
1, 204144, Control_c, 0, 67, 125
1, 204159, Control_c, 0, 64, 95
1, 204159, Control_c, 0, 67, 127
1, 204196, Control_c, 0, 64, 96
1, 204255, Control_c, 0, 64, 96
1, 204329, Control_c, 0, 64, 97
1, 204403, Control_c, 0, 64, 97
1, 204477, Control_c, 0, 64, 98
1, 204507, Control_c, 0, 64, 98
1, 204537, Control_c, 0, 64, 99
1, 204566, Control_c, 0, 64, 99
1, 204611, Control_c, 0, 64, 100
1, 204640, Control_c, 0, 64, 100
1, 204700, Control_c, 0, 64, 101
1, 204775, Control_c, 0, 64, 101
1, 205124, Note_on_c, 0, 59, 52
1, 205151, Note_on_c, 0, 54, 40
1, 205155, Note_on_c, 0, 51, 33
1, 205161, Note_on_c, 0, 45, 37
1, 205166, Note_on_c, 0, 47, 28
1, 205167, Control_c, 0, 64, 100
1, 205181, Control_c, 0, 64, 96
1, 205196, Control_c, 0, 64, 90
1, 205211, Control_c, 0, 64, 82
1, 205226, Control_c, 0, 64, 73
1, 205241, Control_c, 0, 64, 64
1, 205255, Control_c, 0, 64, 58
1, 205270, Control_c, 0, 64, 61
1, 205285, Control_c, 0, 64, 65
1, 205300, Control_c, 0, 64, 68
1, 205315, Control_c, 0, 64, 71
1, 205330, Control_c, 0, 64, 73
1, 205345, Control_c, 0, 64, 75
1, 205360, Control_c, 0, 64, 78
1, 205374, Control_c, 0, 64, 80
1, 205389, Control_c, 0, 64, 81
1, 205404, Control_c, 0, 64, 83
1, 205419, Control_c, 0, 64, 84
1, 205433, Control_c, 0, 64, 85
1, 205449, Control_c, 0, 64, 86
1, 205464, Control_c, 0, 64, 87
1, 205479, Control_c, 0, 64, 88
1, 205494, Control_c, 0, 64, 88
1, 205509, Control_c, 0, 64, 89
1, 205523, Control_c, 0, 64, 89
1, 205538, Control_c, 0, 64, 90
1, 205553, Note_off_c, 0, 45, 42
1, 205553, Control_c, 0, 64, 90
1, 205568, Control_c, 0, 64, 91
1, 205583, Control_c, 0, 64, 91
1, 205595, Note_off_c, 0, 54, 37
1, 205649, Note_off_c, 0, 47, 42
1, 205657, Control_c, 0, 64, 92
1, 205680, Note_off_c, 0, 51, 35
1, 205704, Note_off_c, 0, 59, 32
1, 205846, Note_on_c, 0, 59, 61
1, 205866, Note_on_c, 0, 56, 48
1, 205871, Control_c, 0, 64, 91
1, 205878, Note_on_c, 0, 47, 41
1, 205881, Note_on_c, 0, 51, 33
1, 205886, Control_c, 0, 64, 89
1, 205896, Note_on_c, 0, 44, 28
1, 205901, Control_c, 0, 64, 86
1, 205916, Control_c, 0, 64, 80
1, 205930, Control_c, 0, 64, 71
1, 205945, Control_c, 0, 64, 54
1, 205960, Control_c, 0, 64, 0
1, 205990, Control_c, 0, 64, 35
1, 206004, Control_c, 0, 64, 55
1, 206019, Control_c, 0, 64, 63
1, 206034, Control_c, 0, 64, 66
1, 206048, Control_c, 0, 64, 68
1, 206063, Control_c, 0, 64, 71
1, 206078, Control_c, 0, 64, 75
1, 206093, Control_c, 0, 64, 78
1, 206108, Control_c, 0, 64, 81
1, 206123, Control_c, 0, 64, 82
1, 206138, Control_c, 0, 64, 83
1, 206153, Control_c, 0, 64, 84
1, 206168, Control_c, 0, 64, 86
1, 206183, Control_c, 0, 64, 87
1, 206197, Control_c, 0, 64, 88
1, 206207, Note_off_c, 0, 56, 32
1, 206227, Control_c, 0, 64, 89
1, 206284, Note_off_c, 0, 47, 40
1, 206376, Note_off_c, 0, 51, 22
1, 206665, Note_off_c, 0, 44, 33
1, 206758, Note_off_c, 0, 59, 53
1, 206762, Note_on_c, 0, 61, 65
1, 206774, Note_on_c, 0, 57, 44
1, 206783, Control_c, 0, 64, 88
1, 206785, Note_on_c, 0, 47, 36
1, 206794, Note_on_c, 0, 51, 33
1, 206798, Note_on_c, 0, 42, 38
1, 206798, Control_c, 0, 64, 86
1, 206813, Control_c, 0, 64, 82
1, 206827, Control_c, 0, 64, 77
1, 206842, Control_c, 0, 64, 69
1, 206857, Control_c, 0, 64, 57
1, 206871, Control_c, 0, 64, 0
1, 206990, Control_c, 0, 64, 44
1, 207005, Control_c, 0, 64, 58
1, 207020, Control_c, 0, 64, 63
1, 207035, Control_c, 0, 64, 64
1, 207050, Control_c, 0, 64, 66
1, 207065, Control_c, 0, 64, 66
1, 207074, Note_off_c, 0, 51, 38
1, 207080, Control_c, 0, 64, 67
1, 207095, Control_c, 0, 64, 68
1, 207110, Control_c, 0, 64, 69
1, 207125, Control_c, 0, 64, 71
1, 207139, Control_c, 0, 64, 73
1, 207154, Control_c, 0, 64, 75
1, 207176, Control_c, 0, 64, 77
1, 207191, Control_c, 0, 64, 79
1, 207206, Control_c, 0, 64, 80
1, 207221, Control_c, 0, 64, 81
1, 207236, Control_c, 0, 64, 82
1, 207250, Control_c, 0, 64, 82
1, 207265, Control_c, 0, 64, 83
1, 207274, Note_off_c, 0, 57, 33
1, 207280, Control_c, 0, 64, 84
1, 207295, Control_c, 0, 64, 84
1, 207339, Control_c, 0, 64, 85
1, 207377, Note_off_c, 0, 42, 29
1, 207387, Note_off_c, 0, 47, 38
1, 207517, Note_off_c, 0, 61, 36
1, 207859, Control_c, 0, 64, 84
1, 207938, Note_on_c, 0, 59, 56
1, 207940, Control_c, 0, 64, 84
1, 207985, Control_c, 0, 64, 83
1, 207999, Control_c, 0, 64, 83
1, 208014, Control_c, 0, 64, 82
1, 208029, Control_c, 0, 64, 82
1, 208044, Control_c, 0, 64, 81
1, 208059, Control_c, 0, 64, 79
1, 208073, Control_c, 0, 64, 77
1, 208088, Control_c, 0, 64, 74
1, 208103, Control_c, 0, 64, 71
1, 208118, Control_c, 0, 64, 67
1, 208132, Control_c, 0, 64, 63
1, 208147, Control_c, 0, 64, 58
1, 208162, Control_c, 0, 64, 56
1, 208177, Control_c, 0, 64, 54
1, 208192, Control_c, 0, 64, 50
1, 208207, Control_c, 0, 64, 44
1, 208221, Control_c, 0, 64, 35
1, 208236, Control_c, 0, 64, 26
1, 208249, Note_on_c, 0, 68, 56
1, 208251, Control_c, 0, 64, 18
1, 208266, Control_c, 0, 64, 0
1, 208275, Note_off_c, 0, 59, 52
1, 208385, Control_c, 0, 64, 18
1, 208399, Control_c, 0, 64, 30
1, 208414, Control_c, 0, 64, 42
1, 208429, Control_c, 0, 64, 50
1, 208443, Control_c, 0, 64, 56
1, 208458, Control_c, 0, 64, 61
1, 208473, Control_c, 0, 64, 64
1, 208488, Control_c, 0, 64, 67
1, 208503, Control_c, 0, 64, 69
1, 208517, Control_c, 0, 64, 71
1, 208532, Control_c, 0, 64, 73
1, 208547, Control_c, 0, 64, 74
1, 208562, Control_c, 0, 64, 76
1, 208577, Control_c, 0, 64, 77
1, 208591, Control_c, 0, 64, 78
1, 208606, Control_c, 0, 64, 80
1, 208621, Control_c, 0, 64, 81
1, 208636, Control_c, 0, 64, 81
1, 208652, Control_c, 0, 64, 82
1, 208674, Control_c, 0, 64, 83
1, 208678, Note_on_c, 0, 40, 34
1, 208689, Control_c, 0, 64, 84
1, 208719, Control_c, 0, 64, 84
1, 208720, Note_on_c, 0, 47, 35
1, 208748, Control_c, 0, 64, 85
1, 208763, Control_c, 0, 64, 85
1, 208787, Note_on_c, 0, 52, 43
1, 208793, Control_c, 0, 64, 86
1, 208837, Control_c, 0, 64, 86
1, 208881, Control_c, 0, 64, 87
1, 208911, Control_c, 0, 64, 87
1, 208940, Note_on_c, 0, 56, 12
1, 208980, Note_on_c, 0, 59, 43
1, 208984, Note_off_c, 0, 56, 41
1, 209017, Note_off_c, 0, 40, 27
1, 209021, Note_on_c, 0, 64, 48
1, 209074, Control_c, 0, 64, 88
1, 209095, Note_off_c, 0, 52, 22
1, 209125, Note_off_c, 0, 59, 39
1, 209149, Note_off_c, 0, 47, 38
1, 209181, Note_off_c, 0, 64, 53
1, 209872, Note_off_c, 0, 68, 38
1, 209897, Control_c, 0, 64, 87
1, 209971, Control_c, 0, 64, 87
1, 209986, Control_c, 0, 64, 86
1, 210001, Control_c, 0, 64, 86
1, 210016, Control_c, 0, 64, 85
1, 210031, Control_c, 0, 64, 83
1, 210033, Note_on_c, 0, 69, 57
1, 210045, Control_c, 0, 64, 79
1, 210060, Control_c, 0, 64, 72
1, 210075, Control_c, 0, 64, 64
1, 210089, Control_c, 0, 64, 35
1, 210104, Control_c, 0, 64, 0
1, 210216, Control_c, 0, 64, 46
1, 210230, Control_c, 0, 64, 62
1, 210246, Control_c, 0, 64, 65
1, 210261, Control_c, 0, 64, 68
1, 210275, Control_c, 0, 64, 69
1, 210290, Control_c, 0, 64, 71
1, 210291, Note_on_c, 0, 40, 21
1, 210305, Control_c, 0, 64, 73
1, 210320, Control_c, 0, 64, 75
1, 210335, Control_c, 0, 64, 76
1, 210342, Note_on_c, 0, 49, 35
1, 210350, Control_c, 0, 64, 77
1, 210365, Control_c, 0, 64, 78
1, 210380, Control_c, 0, 64, 79
1, 210394, Control_c, 0, 64, 80
1, 210409, Control_c, 0, 64, 81
1, 210424, Control_c, 0, 64, 81
1, 210428, Note_on_c, 0, 52, 38
1, 210439, Control_c, 0, 64, 82
1, 210452, Note_off_c, 0, 49, 0
1, 210453, Control_c, 0, 64, 82
1, 210462, Note_off_c, 0, 69, 39
1, 210483, Control_c, 0, 64, 83
1, 210490, Poly_aftertouch_c, 0, 49, 127
1, 210498, Control_c, 0, 64, 83
1, 210513, Control_c, 0, 64, 84
1, 210542, Control_c, 0, 64, 84
1, 210601, Note_on_c, 0, 57, 30
1, 210616, Control_c, 0, 64, 85
1, 210652, Note_off_c, 0, 57, 42
1, 210670, Note_on_c, 0, 59, 43
1, 210755, Note_on_c, 0, 64, 43
1, 210848, Note_off_c, 0, 59, 29
1, 210872, Poly_aftertouch_c, 0, 49, 0
1, 210895, Note_off_c, 0, 52, 31
1, 211057, Note_off_c, 0, 40, 15
1, 211387, Note_off_c, 0, 64, 36
1, 211528, Control_c, 0, 64, 84
1, 211772, Control_c, 0, 64, 84
1, 211816, Control_c, 0, 64, 83
1, 211862, Control_c, 0, 64, 83
1, 211877, Control_c, 0, 64, 82
1, 211891, Note_on_c, 0, 66, 46
1, 211891, Control_c, 0, 64, 82
1, 211906, Control_c, 0, 64, 81
1, 211921, Control_c, 0, 64, 79
1, 211936, Control_c, 0, 64, 74
1, 211951, Control_c, 0, 64, 66
1, 211965, Control_c, 0, 64, 36
1, 211980, Control_c, 0, 64, 0
1, 212070, Control_c, 0, 64, 13
1, 212085, Control_c, 0, 64, 60
1, 212099, Control_c, 0, 64, 65
1, 212114, Control_c, 0, 64, 67
1, 212129, Control_c, 0, 64, 69
1, 212144, Control_c, 0, 64, 71
1, 212159, Control_c, 0, 64, 73
1, 212173, Control_c, 0, 64, 76
1, 212188, Control_c, 0, 64, 78
1, 212203, Control_c, 0, 64, 79
1, 212211, Note_on_c, 0, 40, 36
1, 212218, Control_c, 0, 64, 80
1, 212233, Control_c, 0, 64, 81
1, 212248, Note_off_c, 0, 40, 45
1, 212262, Control_c, 0, 64, 81
1, 212277, Control_c, 0, 64, 82
1, 212306, Control_c, 0, 64, 82
1, 212365, Control_c, 0, 64, 83
1, 212404, Note_on_c, 0, 54, 44
1, 212462, Control_c, 0, 64, 83
1, 212485, Note_off_c, 0, 54, 37
1, 212536, Control_c, 0, 64, 84
1, 212635, Note_on_c, 0, 57, 5
1, 212685, Note_on_c, 0, 59, 38
1, 212690, Note_off_c, 0, 57, 46
1, 212770, Note_on_c, 0, 63, 43
1, 212799, Note_off_c, 0, 59, 29
1, 213133, Note_off_c, 0, 63, 34
1, 213300, Control_c, 0, 67, 124
1, 213314, Control_c, 0, 67, 118
1, 213329, Control_c, 0, 67, 110
1, 213344, Control_c, 0, 67, 104
1, 213359, Control_c, 0, 67, 97
1, 213374, Control_c, 0, 67, 90
1, 213388, Control_c, 0, 67, 84
1, 213403, Control_c, 0, 67, 78
1, 213418, Control_c, 0, 67, 74
1, 213434, Control_c, 0, 67, 69
1, 213449, Control_c, 0, 67, 66
1, 213463, Control_c, 0, 67, 63
1, 213478, Control_c, 0, 67, 61
1, 213493, Control_c, 0, 67, 59
1, 213508, Control_c, 0, 67, 57
1, 213523, Control_c, 0, 67, 55
1, 213537, Control_c, 0, 67, 53
1, 213552, Control_c, 0, 67, 51
1, 213567, Control_c, 0, 67, 50
1, 213582, Control_c, 0, 67, 49
1, 213597, Control_c, 0, 67, 48
1, 213611, Control_c, 0, 67, 47
1, 213626, Control_c, 0, 67, 46
1, 213641, Control_c, 0, 67, 44
1, 213656, Control_c, 0, 67, 43
1, 213671, Control_c, 0, 67, 42
1, 213685, Control_c, 0, 67, 40
1, 213700, Control_c, 0, 67, 39
1, 213715, Control_c, 0, 67, 38
1, 213730, Control_c, 0, 67, 36
1, 213745, Control_c, 0, 67, 35
1, 213750, Note_on_c, 0, 40, 31
1, 213760, Control_c, 0, 67, 34
1, 213767, Note_on_c, 0, 47, 35
1, 213775, Control_c, 0, 67, 33
1, 213790, Control_c, 0, 67, 33
1, 213835, Note_on_c, 0, 52, 40
1, 213886, Note_on_c, 0, 56, 43
1, 213916, Control_c, 0, 64, 83
1, 213931, Control_c, 0, 64, 81
1, 213945, Control_c, 0, 64, 76
1, 213946, Note_on_c, 0, 59, 50
1, 213960, Note_off_c, 0, 66, 47
1, 213960, Control_c, 0, 64, 67
1, 213975, Control_c, 0, 64, 45
1, 213990, Control_c, 0, 64, 0
1, 214002, Note_on_c, 0, 64, 51
1, 214005, Control_c, 0, 64, 37
1, 214019, Control_c, 0, 64, 58
1, 214034, Control_c, 0, 64, 64
1, 214049, Control_c, 0, 64, 66
1, 214064, Control_c, 0, 64, 68
1, 214064, Note_on_c, 0, 68, 70
1, 214079, Control_c, 0, 64, 70
1, 214094, Control_c, 0, 64, 72
1, 214094, Control_c, 0, 67, 32
1, 214109, Control_c, 0, 64, 74
1, 214124, Control_c, 0, 64, 75
1, 214138, Control_c, 0, 64, 76
1, 214138, Control_c, 0, 67, 32
1, 214148, Note_off_c, 0, 59, 58
1, 214153, Control_c, 0, 64, 77
1, 214168, Control_c, 0, 64, 78
1, 214168, Control_c, 0, 67, 31
1, 214172, Note_off_c, 0, 64, 60
1, 214183, Control_c, 0, 64, 79
1, 214197, Control_c, 0, 64, 79
1, 214197, Control_c, 0, 67, 31
1, 214212, Control_c, 0, 64, 80
1, 214212, Control_c, 0, 67, 30
1, 214227, Control_c, 0, 67, 29
1, 214243, Control_c, 0, 67, 27
1, 214258, Control_c, 0, 67, 27
1, 214329, Note_off_c, 0, 47, 41
1, 214391, Note_off_c, 0, 40, 41
1, 214428, Note_off_c, 0, 56, 40
1, 214434, Note_off_c, 0, 52, 32
1, 214541, Note_off_c, 0, 68, 60
1, 214642, Control_c, 0, 64, 79
1, 214647, Note_on_c, 0, 69, 74
1, 214665, Control_c, 0, 64, 74
1, 214680, Control_c, 0, 64, 66
1, 214694, Control_c, 0, 64, 24
1, 214709, Control_c, 0, 64, 0
1, 214724, Control_c, 0, 67, 26
1, 214754, Control_c, 0, 64, 58
1, 214768, Control_c, 0, 64, 65
1, 214783, Control_c, 0, 64, 67
1, 214783, Control_c, 0, 67, 26
1, 214798, Control_c, 0, 64, 69
1, 214812, Control_c, 0, 64, 71
1, 214812, Control_c, 0, 67, 25
1, 214827, Control_c, 0, 64, 73
1, 214827, Control_c, 0, 67, 23
1, 214842, Control_c, 0, 64, 76
1, 214842, Control_c, 0, 67, 19
1, 214846, Note_on_c, 0, 40, 36
1, 214857, Control_c, 0, 64, 77
1, 214857, Control_c, 0, 67, 15
1, 214872, Control_c, 0, 64, 78
1, 214872, Control_c, 0, 67, 12
1, 214880, Note_on_c, 0, 49, 47
1, 214887, Control_c, 0, 67, 10
1, 214902, Control_c, 0, 64, 79
1, 214902, Control_c, 0, 67, 9
1, 214917, Control_c, 0, 67, 8
1, 214931, Control_c, 0, 67, 0
1, 214946, Control_c, 0, 64, 79
1, 214961, Note_on_c, 0, 52, 48
1, 215051, Control_c, 0, 64, 80
1, 215081, Control_c, 0, 64, 80
1, 215095, Control_c, 0, 64, 81
1, 215110, Note_on_c, 0, 57, 46
1, 215125, Control_c, 0, 64, 81
1, 215155, Control_c, 0, 64, 82
1, 215167, Note_off_c, 0, 69, 33
1, 215187, Note_off_c, 0, 57, 60
1, 215188, Note_on_c, 0, 59, 55
1, 215229, Control_c, 0, 64, 82
1, 215244, Note_off_c, 0, 59, 47
1, 215255, Note_on_c, 0, 64, 63
1, 215287, Control_c, 0, 64, 83
1, 215391, Control_c, 0, 64, 83
1, 215446, Note_off_c, 0, 64, 58
1, 215487, Control_c, 0, 64, 84
1, 215505, Note_off_c, 0, 49, 32
1, 215531, Control_c, 0, 64, 84
1, 215537, Note_off_c, 0, 40, 39
1, 215605, Control_c, 0, 64, 85
1, 215657, Note_on_c, 0, 69, 73
1, 215710, Note_off_c, 0, 69, 58
1, 215761, Note_off_c, 0, 52, 17
1, 215779, Note_on_c, 0, 69, 70
1, 215932, Control_c, 0, 64, 84
1, 215977, Control_c, 0, 64, 84
1, 215992, Control_c, 0, 64, 83
1, 216006, Control_c, 0, 64, 83
1, 216020, Control_c, 0, 64, 82
1, 216035, Control_c, 0, 64, 80
1, 216050, Control_c, 0, 64, 78
1, 216052, Note_on_c, 0, 73, 67
1, 216064, Control_c, 0, 64, 75
1, 216079, Control_c, 0, 64, 69
1, 216081, Note_off_c, 0, 69, 51
1, 216094, Control_c, 0, 64, 52
1, 216109, Control_c, 0, 64, 0
1, 216161, Control_c, 0, 67, 11
1, 216176, Control_c, 0, 67, 18
1, 216191, Control_c, 0, 67, 28
1, 216206, Control_c, 0, 67, 40
1, 216220, Control_c, 0, 64, 61
1, 216220, Control_c, 0, 67, 51
1, 216235, Control_c, 0, 64, 68
1, 216235, Control_c, 0, 67, 61
1, 216250, Control_c, 0, 64, 72
1, 216250, Control_c, 0, 67, 70
1, 216262, Note_on_c, 0, 40, 42
1, 216264, Control_c, 0, 64, 76
1, 216264, Control_c, 0, 67, 80
1, 216279, Control_c, 0, 64, 78
1, 216279, Control_c, 0, 67, 89
1, 216294, Control_c, 0, 64, 80
1, 216294, Control_c, 0, 67, 96
1, 216297, Note_off_c, 0, 40, 54
1, 216309, Control_c, 0, 64, 81
1, 216309, Control_c, 0, 67, 101
1, 216324, Control_c, 0, 64, 82
1, 216324, Control_c, 0, 67, 105
1, 216338, Control_c, 0, 64, 83
1, 216338, Control_c, 0, 67, 107
1, 216353, Control_c, 0, 64, 84
1, 216353, Control_c, 0, 67, 109
1, 216358, Note_off_c, 0, 73, 61
1, 216368, Control_c, 0, 64, 84
1, 216368, Control_c, 0, 67, 110
1, 216383, Note_on_c, 0, 51, 42
1, 216383, Control_c, 0, 64, 85
1, 216383, Control_c, 0, 67, 111
1, 216398, Control_c, 0, 64, 85
1, 216398, Control_c, 0, 67, 111
1, 216413, Control_c, 0, 64, 86
1, 216428, Control_c, 0, 64, 86
1, 216443, Control_c, 0, 64, 87
1, 216446, Note_off_c, 0, 51, 42
1, 216457, Control_c, 0, 67, 112
1, 216472, Control_c, 0, 64, 87
1, 216498, Note_on_c, 0, 54, 42
1, 216575, Note_off_c, 0, 54, 38
1, 216577, Note_on_c, 0, 57, 46
1, 216644, Note_off_c, 0, 57, 55
1, 216677, Note_on_c, 0, 63, 46
1, 216779, Note_on_c, 0, 66, 44
1, 216864, Note_off_c, 0, 63, 32
1, 216971, Note_off_c, 0, 66, 41
1, 217518, Control_c, 0, 64, 87
1, 217592, Control_c, 0, 64, 86
1, 217659, Control_c, 0, 64, 86
1, 217672, Note_on_c, 0, 71, 51
1, 217704, Control_c, 0, 64, 85
1, 217718, Control_c, 0, 64, 85
1, 217733, Control_c, 0, 64, 84
1, 217748, Control_c, 0, 64, 84
1, 217763, Control_c, 0, 64, 83
1, 217778, Control_c, 0, 64, 82
1, 217792, Control_c, 0, 64, 81
1, 217807, Control_c, 0, 64, 80
1, 217822, Control_c, 0, 64, 78
1, 217836, Control_c, 0, 64, 77
1, 217851, Control_c, 0, 64, 76
1, 217866, Control_c, 0, 64, 74
1, 217881, Control_c, 0, 64, 72
1, 217896, Control_c, 0, 64, 71
1, 217910, Control_c, 0, 64, 68
1, 217925, Control_c, 0, 64, 67
1, 217940, Control_c, 0, 64, 65
1, 217955, Control_c, 0, 64, 64
1, 217970, Control_c, 0, 64, 64
1, 217971, Note_on_c, 0, 68, 51
1, 217984, Control_c, 0, 64, 63
1, 217999, Control_c, 0, 64, 61
1, 218001, Note_off_c, 0, 71, 46
1, 218014, Control_c, 0, 64, 54
1, 218029, Control_c, 0, 64, 39
1, 218044, Control_c, 0, 64, 0
1, 218058, Control_c, 0, 67, 112
1, 218118, Control_c, 0, 67, 113
1, 218177, Control_c, 0, 64, 56
1, 218192, Control_c, 0, 64, 63
1, 218207, Control_c, 0, 64, 66
1, 218222, Control_c, 0, 64, 67
1, 218237, Control_c, 0, 64, 68
1, 218252, Control_c, 0, 64, 70
1, 218267, Control_c, 0, 64, 72
1, 218282, Control_c, 0, 64, 74
1, 218297, Control_c, 0, 64, 76
1, 218306, Note_on_c, 0, 40, 27
1, 218312, Control_c, 0, 64, 77
1, 218326, Control_c, 0, 64, 78
1, 218341, Control_c, 0, 64, 78
1, 218356, Control_c, 0, 64, 79
1, 218363, Note_on_c, 0, 47, 41
1, 218371, Control_c, 0, 64, 80
1, 218386, Control_c, 0, 64, 80
1, 218401, Control_c, 0, 64, 81
1, 218452, Note_on_c, 0, 52, 43
1, 218467, Control_c, 0, 64, 81
1, 218597, Note_on_c, 0, 56, 32
1, 218635, Note_off_c, 0, 56, 49
1, 218656, Note_on_c, 0, 59, 40
1, 218659, Control_c, 0, 67, 112
1, 218716, Note_off_c, 0, 68, 34
1, 218719, Control_c, 0, 67, 112
1, 218722, Note_on_c, 0, 64, 43
1, 218748, Control_c, 0, 67, 111
1, 218778, Control_c, 0, 67, 111
1, 218802, Note_off_c, 0, 59, 36
1, 218807, Control_c, 0, 67, 110
1, 218837, Control_c, 0, 67, 109
1, 218851, Control_c, 0, 67, 109
1, 218866, Control_c, 0, 67, 108
1, 218896, Control_c, 0, 67, 108
1, 218911, Control_c, 0, 67, 107
1, 218926, Control_c, 0, 67, 107
1, 218941, Control_c, 0, 67, 106
1, 218956, Control_c, 0, 67, 106
1, 218985, Control_c, 0, 67, 105
1, 218999, Note_off_c, 0, 64, 29
1, 219000, Control_c, 0, 67, 104
1, 219015, Control_c, 0, 67, 104
1, 219030, Control_c, 0, 67, 103
1, 219045, Control_c, 0, 67, 102
1, 219060, Control_c, 0, 67, 101
1, 219075, Control_c, 0, 67, 98
1, 219090, Control_c, 0, 67, 95
1, 219105, Control_c, 0, 67, 91
1, 219120, Control_c, 0, 67, 88
1, 219135, Control_c, 0, 67, 85
1, 219156, Control_c, 0, 67, 82
1, 219171, Control_c, 0, 67, 78
1, 219186, Control_c, 0, 67, 74
1, 219201, Control_c, 0, 67, 71
1, 219215, Control_c, 0, 67, 67
1, 219230, Control_c, 0, 67, 63
1, 219245, Control_c, 0, 67, 60
1, 219260, Control_c, 0, 67, 57
1, 219275, Control_c, 0, 67, 54
1, 219290, Control_c, 0, 67, 52
1, 219304, Control_c, 0, 67, 49
1, 219319, Control_c, 0, 67, 48
1, 219334, Control_c, 0, 67, 46
1, 219349, Control_c, 0, 67, 44
1, 219364, Control_c, 0, 67, 42
1, 219379, Control_c, 0, 67, 39
1, 219394, Control_c, 0, 67, 35
1, 219408, Control_c, 0, 67, 30
1, 219423, Control_c, 0, 67, 26
1, 219438, Control_c, 0, 67, 21
1, 219453, Control_c, 0, 67, 16
1, 219468, Control_c, 0, 67, 12
1, 219482, Control_c, 0, 67, 8
1, 219497, Control_c, 0, 67, 0
1, 220120, Note_on_c, 0, 68, 59
1, 220357, Note_off_c, 0, 68, 37
1, 220643, Note_on_c, 0, 68, 74
1, 220729, Note_off_c, 0, 40, 41
1, 220763, Note_off_c, 0, 47, 40
1, 220781, Note_off_c, 0, 52, 34
1, 220862, Note_on_c, 0, 40, 44
1, 220884, Note_on_c, 0, 47, 54
1, 220930, Note_on_c, 0, 52, 52
1, 221084, Note_on_c, 0, 56, 56
1, 221099, Control_c, 0, 64, 80
1, 221114, Control_c, 0, 64, 76
1, 221129, Note_off_c, 0, 68, 46
1, 221129, Control_c, 0, 64, 68
1, 221141, Note_on_c, 0, 59, 63
1, 221144, Control_c, 0, 64, 43
1, 221159, Control_c, 0, 64, 0
1, 221198, Note_on_c, 0, 64, 57
1, 221203, Control_c, 0, 64, 57
1, 221218, Control_c, 0, 64, 65
1, 221232, Note_on_c, 0, 68, 83
1, 221233, Control_c, 0, 64, 68
1, 221247, Control_c, 0, 64, 72
1, 221262, Control_c, 0, 64, 76
1, 221277, Control_c, 0, 64, 78
1, 221292, Control_c, 0, 64, 79
1, 221305, Note_off_c, 0, 59, 49
1, 221307, Control_c, 0, 64, 80
1, 221311, Note_off_c, 0, 56, 0
1, 221321, Note_off_c, 0, 64, 56
1, 221321, Control_c, 0, 64, 81
1, 221336, Control_c, 0, 64, 81
1, 221347, Poly_aftertouch_c, 0, 56, 127
1, 221366, Control_c, 0, 64, 82
1, 221418, Control_c, 0, 64, 82
1, 221434, Poly_aftertouch_c, 0, 56, 0
1, 221507, Control_c, 0, 64, 83
1, 221552, Control_c, 0, 64, 83
1, 221601, Note_off_c, 0, 47, 36
1, 221612, Control_c, 0, 64, 84
1, 221637, Note_off_c, 0, 40, 40
1, 221667, Note_off_c, 0, 52, 40
1, 221730, Control_c, 0, 64, 83
1, 221745, Control_c, 0, 64, 81
1, 221752, Note_on_c, 0, 71, 78
1, 221759, Control_c, 0, 64, 74
1, 221774, Control_c, 0, 64, 59
1, 221789, Control_c, 0, 64, 0
1, 221800, Note_off_c, 0, 68, 53
1, 221863, Control_c, 0, 64, 61
1, 221877, Control_c, 0, 64, 66
1, 221892, Control_c, 0, 64, 67
1, 221907, Control_c, 0, 64, 69
1, 221922, Note_on_c, 0, 37, 41
1, 221922, Control_c, 0, 64, 71
1, 221937, Control_c, 0, 64, 73
1, 221952, Control_c, 0, 64, 75
1, 221966, Control_c, 0, 64, 76
1, 221970, Note_on_c, 0, 46, 53
1, 221981, Control_c, 0, 64, 76
1, 221996, Control_c, 0, 64, 77
1, 222010, Control_c, 0, 64, 77
1, 222025, Control_c, 0, 64, 78
1, 222035, Note_on_c, 0, 52, 50
1, 222040, Control_c, 0, 64, 78
1, 222093, Note_off_c, 0, 71, 53
1, 222099, Control_c, 0, 64, 79
1, 222163, Note_on_c, 0, 58, 53
1, 222214, Note_on_c, 0, 64, 60
1, 222241, Control_c, 0, 64, 78
1, 222256, Control_c, 0, 64, 77
1, 222270, Control_c, 0, 64, 73
1, 222279, Note_on_c, 0, 70, 74
1, 222285, Control_c, 0, 64, 63
1, 222300, Control_c, 0, 64, 0
1, 222374, Control_c, 0, 64, 25
1, 222389, Control_c, 0, 64, 60
1, 222404, Control_c, 0, 64, 65
1, 222419, Control_c, 0, 64, 68
1, 222433, Control_c, 0, 64, 70
1, 222443, Note_off_c, 0, 64, 54
1, 222448, Control_c, 0, 64, 73
1, 222463, Control_c, 0, 64, 75
1, 222478, Control_c, 0, 64, 76
1, 222493, Control_c, 0, 64, 77
1, 222507, Control_c, 0, 64, 78
1, 222509, Note_off_c, 0, 37, 39
1, 222522, Control_c, 0, 64, 78
1, 222537, Control_c, 0, 64, 79
1, 222552, Control_c, 0, 64, 79
1, 222567, Control_c, 0, 64, 80
1, 222567, Control_c, 0, 67, 9
1, 222581, Control_c, 0, 67, 11
1, 222596, Control_c, 0, 67, 12
1, 222611, Control_c, 0, 67, 13
1, 222618, Note_off_c, 0, 46, 40
1, 222625, Control_c, 0, 67, 14
1, 222640, Control_c, 0, 67, 15
1, 222655, Control_c, 0, 64, 80
1, 222655, Control_c, 0, 67, 15
1, 222685, Control_c, 0, 67, 16
1, 222727, Note_off_c, 0, 52, 37
1, 222730, Control_c, 0, 64, 81
1, 222746, Note_off_c, 0, 70, 60
1, 222789, Control_c, 0, 67, 16
1, 222812, Note_off_c, 0, 58, 37
1, 222833, Control_c, 0, 67, 17
1, 222848, Control_c, 0, 67, 18
1, 222863, Control_c, 0, 67, 18
1, 222878, Control_c, 0, 67, 19
1, 222899, Control_c, 0, 67, 19
1, 222914, Control_c, 0, 67, 20
1, 222929, Control_c, 0, 67, 20
1, 222944, Control_c, 0, 67, 22
1, 222959, Control_c, 0, 67, 24
1, 222974, Control_c, 0, 67, 25
1, 222989, Control_c, 0, 67, 26
1, 223004, Control_c, 0, 67, 28
1, 223010, Note_on_c, 0, 63, 58
1, 223019, Control_c, 0, 64, 80
1, 223019, Control_c, 0, 67, 32
1, 223034, Control_c, 0, 64, 79
1, 223034, Control_c, 0, 67, 37
1, 223048, Control_c, 0, 64, 75
1, 223048, Control_c, 0, 67, 46
1, 223063, Control_c, 0, 64, 69
1, 223063, Control_c, 0, 67, 54
1, 223078, Control_c, 0, 64, 46
1, 223078, Control_c, 0, 67, 61
1, 223093, Control_c, 0, 64, 0
1, 223093, Control_c, 0, 67, 68
1, 223108, Control_c, 0, 67, 73
1, 223123, Control_c, 0, 67, 78
1, 223138, Control_c, 0, 67, 82
1, 223153, Control_c, 0, 67, 85
1, 223168, Control_c, 0, 67, 87
1, 223183, Control_c, 0, 64, 25
1, 223197, Control_c, 0, 64, 60
1, 223197, Control_c, 0, 67, 87
1, 223212, Control_c, 0, 64, 65
1, 223227, Control_c, 0, 64, 67
1, 223230, Note_on_c, 0, 39, 36
1, 223242, Control_c, 0, 64, 69
1, 223256, Control_c, 0, 64, 71
1, 223271, Control_c, 0, 64, 73
1, 223271, Control_c, 0, 67, 87
1, 223286, Control_c, 0, 64, 74
1, 223288, Note_off_c, 0, 39, 58
1, 223301, Control_c, 0, 64, 75
1, 223301, Control_c, 0, 67, 86
1, 223316, Control_c, 0, 64, 76
1, 223316, Control_c, 0, 67, 86
1, 223318, Note_on_c, 0, 46, 36
1, 223330, Control_c, 0, 64, 76
1, 223345, Control_c, 0, 67, 85
1, 223354, Note_on_c, 0, 49, 39
1, 223360, Control_c, 0, 64, 77
1, 223360, Control_c, 0, 67, 85
1, 223375, Control_c, 0, 67, 84
1, 223390, Control_c, 0, 67, 84
1, 223404, Control_c, 0, 67, 83
1, 223419, Control_c, 0, 64, 77
1, 223419, Control_c, 0, 67, 83
1, 223422, Note_on_c, 0, 55, 48
1, 223434, Control_c, 0, 67, 82
1, 223448, Control_c, 0, 67, 82
1, 223478, Control_c, 0, 67, 81
1, 223493, Control_c, 0, 67, 80
1, 223509, Control_c, 0, 67, 80
1, 223523, Control_c, 0, 67, 79
1, 223553, Control_c, 0, 67, 79
1, 223568, Control_c, 0, 67, 78
1, 223582, Control_c, 0, 67, 78
1, 223590, Note_on_c, 0, 58, 46
1, 223597, Control_c, 0, 67, 77
1, 223612, Control_c, 0, 67, 77
1, 223627, Control_c, 0, 67, 76
1, 223649, Control_c, 0, 67, 76
1, 223654, Note_off_c, 0, 58, 58
1, 223664, Control_c, 0, 67, 73
1, 223667, Note_on_c, 0, 61, 48
1, 223679, Control_c, 0, 67, 71
1, 223694, Control_c, 0, 67, 69
1, 223709, Control_c, 0, 67, 67
1, 223723, Control_c, 0, 67, 64
1, 223738, Control_c, 0, 67, 62
1, 223753, Control_c, 0, 67, 60
1, 223759, Note_off_c, 0, 63, 36
1, 223768, Control_c, 0, 67, 57
1, 223782, Control_c, 0, 67, 55
1, 223797, Control_c, 0, 67, 52
1, 223812, Control_c, 0, 67, 50
1, 223828, Control_c, 0, 67, 47
1, 223843, Control_c, 0, 67, 44
1, 223858, Control_c, 0, 67, 41
1, 223872, Control_c, 0, 67, 37
1, 223874, Note_off_c, 0, 61, 31
1, 223887, Control_c, 0, 67, 34
1, 223902, Control_c, 0, 67, 31
1, 223917, Control_c, 0, 67, 27
1, 223932, Control_c, 0, 67, 23
1, 223946, Control_c, 0, 67, 20
1, 223961, Control_c, 0, 67, 16
1, 223976, Control_c, 0, 67, 13
1, 223991, Control_c, 0, 67, 11
1, 224005, Control_c, 0, 67, 8
1, 224020, Control_c, 0, 67, 0
1, 224788, Note_on_c, 0, 63, 74
1, 225054, Note_off_c, 0, 46, 33
1, 225098, Note_off_c, 0, 49, 40
1, 225385, Note_off_c, 0, 55, 28
1, 225386, Note_on_c, 0, 71, 80
1, 225414, Control_c, 0, 64, 75
1, 225430, Control_c, 0, 64, 68
1, 225444, Control_c, 0, 64, 30
1, 225459, Control_c, 0, 64, 0
1, 225518, Control_c, 0, 64, 39
1, 225533, Control_c, 0, 64, 64
1, 225548, Control_c, 0, 64, 68
1, 225551, Note_on_c, 0, 44, 49
1, 225563, Control_c, 0, 64, 72
1, 225566, Note_off_c, 0, 63, 60
1, 225578, Control_c, 0, 64, 74
1, 225592, Control_c, 0, 64, 76
1, 225607, Control_c, 0, 64, 78
1, 225618, Note_on_c, 0, 51, 53
1, 225622, Control_c, 0, 64, 79
1, 225637, Control_c, 0, 64, 80
1, 225651, Control_c, 0, 64, 81
1, 225666, Control_c, 0, 64, 81
1, 225669, Note_on_c, 0, 56, 67
1, 225681, Control_c, 0, 64, 82
1, 225711, Control_c, 0, 64, 82
1, 225740, Control_c, 0, 64, 83
1, 225770, Control_c, 0, 64, 83
1, 225794, Note_on_c, 0, 59, 60
1, 225799, Note_off_c, 0, 71, 52
1, 225845, Note_on_c, 0, 63, 70
1, 225858, Control_c, 0, 64, 84
1, 225874, Note_off_c, 0, 59, 57
1, 225916, Note_on_c, 0, 68, 80
1, 225976, Note_on_c, 0, 71, 88
1, 225980, Note_off_c, 0, 63, 43
1, 226064, Note_off_c, 0, 68, 54
1, 226079, Note_off_c, 0, 51, 34
1, 226095, Note_off_c, 0, 56, 31
1, 226182, Note_off_c, 0, 44, 36
1, 226205, Note_off_c, 0, 71, 56
1, 226385, Control_c, 0, 64, 84
1, 226444, Control_c, 0, 64, 83
1, 226457, Note_on_c, 0, 75, 85
1, 226459, Control_c, 0, 64, 78
1, 226474, Control_c, 0, 64, 65
1, 226488, Control_c, 0, 64, 0
1, 226578, Control_c, 0, 64, 64
1, 226593, Control_c, 0, 64, 70
1, 226601, Note_on_c, 0, 43, 48
1, 226608, Control_c, 0, 64, 75
1, 226623, Control_c, 0, 64, 79
1, 226638, Control_c, 0, 64, 81
1, 226660, Control_c, 0, 64, 82
1, 226663, Note_off_c, 0, 43, 45
1, 226673, Note_on_c, 0, 49, 55
1, 226674, Control_c, 0, 64, 83
1, 226689, Control_c, 0, 64, 84
1, 226704, Control_c, 0, 64, 85
1, 226719, Control_c, 0, 64, 86
1, 226720, Note_on_c, 0, 53, 54
1, 226730, Note_off_c, 0, 75, 56
1, 226734, Control_c, 0, 64, 86
1, 226763, Control_c, 0, 64, 87
1, 226791, Note_on_c, 0, 59, 61
1, 226807, Control_c, 0, 64, 87
1, 226904, Note_on_c, 0, 61, 58
1, 226918, Note_off_c, 0, 59, 36
1, 226941, Control_c, 0, 64, 88
1, 226987, Note_on_c, 0, 65, 59
1, 227001, Note_off_c, 0, 53, 37
1, 227024, Note_off_c, 0, 61, 36
1, 227123, Note_on_c, 0, 73, 83
1, 227234, Note_off_c, 0, 49, 28
1, 227292, Note_off_c, 0, 65, 29
1, 227373, Note_off_c, 0, 73, 49
1, 227764, Control_c, 0, 64, 88
1, 227943, Control_c, 0, 64, 88
1, 227948, Note_on_c, 0, 66, 77
1, 227958, Control_c, 0, 64, 87
1, 227973, Control_c, 0, 64, 84
1, 227987, Control_c, 0, 64, 77
1, 228002, Control_c, 0, 64, 66
1, 228017, Control_c, 0, 64, 0
1, 228143, Control_c, 0, 64, 45
1, 228158, Control_c, 0, 64, 63
1, 228172, Control_c, 0, 64, 65
1, 228187, Control_c, 0, 64, 66
1, 228202, Control_c, 0, 64, 69
1, 228205, Note_on_c, 0, 42, 35
1, 228217, Control_c, 0, 64, 72
1, 228232, Control_c, 0, 64, 75
1, 228246, Note_off_c, 0, 42, 51
1, 228246, Control_c, 0, 64, 76
1, 228261, Control_c, 0, 64, 77
1, 228265, Note_on_c, 0, 49, 47
1, 228276, Control_c, 0, 64, 78
1, 228291, Control_c, 0, 64, 78
1, 228320, Control_c, 0, 64, 79
1, 228335, Note_on_c, 0, 52, 44
1, 228335, Control_c, 0, 64, 79
1, 228371, Note_on_c, 0, 58, 53
1, 228379, Control_c, 0, 64, 80
1, 228438, Control_c, 0, 64, 80
1, 228512, Control_c, 0, 64, 81
1, 228573, Note_on_c, 0, 61, 53
1, 228587, Control_c, 0, 64, 81
1, 228610, Note_off_c, 0, 61, 53
1, 228641, Note_on_c, 0, 64, 54
1, 228676, Control_c, 0, 64, 82
1, 228877, Note_off_c, 0, 64, 25
1, 229019, Note_off_c, 0, 58, 25
1, 229212, Note_off_c, 0, 66, 37
1, 229822, Note_on_c, 0, 66, 87
1, 230070, Note_off_c, 0, 49, 35
1, 230074, Note_off_c, 0, 52, 41
1, 230406, Note_on_c, 0, 78, 95
1, 230456, Note_off_c, 0, 66, 64
1, 230492, Note_off_c, 0, 78, 62
1, 230565, Note_on_c, 0, 78, 95
1, 230596, Control_c, 0, 64, 81
1, 230611, Control_c, 0, 64, 78
1, 230626, Control_c, 0, 64, 68
1, 230632, Note_on_c, 0, 79, 18
1, 230640, Control_c, 0, 64, 0
1, 230729, Control_c, 0, 64, 57
1, 230733, Note_off_c, 0, 79, 27
1, 230744, Control_c, 0, 64, 69
1, 230752, Note_on_c, 0, 47, 53
1, 230758, Control_c, 0, 64, 74
1, 230773, Control_c, 0, 64, 77
1, 230788, Control_c, 0, 64, 79
1, 230803, Control_c, 0, 64, 80
1, 230805, Note_on_c, 0, 54, 58
1, 230818, Control_c, 0, 64, 81
1, 230832, Control_c, 0, 64, 81
1, 230847, Control_c, 0, 64, 82
1, 230861, Note_on_c, 0, 60, 65
1, 230889, Note_off_c, 0, 78, 63
1, 230906, Control_c, 0, 64, 82
1, 230981, Control_c, 0, 64, 83
1, 231018, Note_off_c, 0, 60, 38
1, 231034, Note_on_c, 0, 64, 59
1, 231086, Note_on_c, 0, 69, 73
1, 231126, Note_off_c, 0, 54, 30
1, 231154, Note_off_c, 0, 64, 56
1, 231300, Note_off_c, 0, 47, 41
1, 231596, Note_off_c, 0, 69, 61
1, 231622, Note_on_c, 0, 76, 85
1, 231641, Control_c, 0, 64, 82
1, 231655, Control_c, 0, 64, 81
1, 231670, Control_c, 0, 64, 74
1, 231685, Control_c, 0, 64, 63
1, 231700, Control_c, 0, 64, 0
1, 231744, Control_c, 0, 64, 61
1, 231759, Control_c, 0, 64, 67
1, 231774, Control_c, 0, 64, 72
1, 231789, Control_c, 0, 64, 77
1, 231804, Control_c, 0, 64, 80
1, 231818, Note_on_c, 0, 47, 41
1, 231819, Control_c, 0, 64, 81
1, 231834, Control_c, 0, 64, 82
1, 231849, Control_c, 0, 64, 83
1, 231864, Note_off_c, 0, 76, 59
1, 231864, Control_c, 0, 64, 83
1, 231886, Control_c, 0, 64, 84
1, 231895, Note_on_c, 0, 54, 43
1, 231901, Control_c, 0, 64, 84
1, 231916, Control_c, 0, 64, 85
1, 231931, Control_c, 0, 64, 85
1, 231960, Control_c, 0, 64, 86
1, 231982, Note_on_c, 0, 57, 42
1, 231990, Control_c, 0, 64, 86
1, 232034, Control_c, 0, 64, 87
1, 232048, Note_off_c, 0, 57, 39
1, 232085, Note_on_c, 0, 60, 50
1, 232113, Note_off_c, 0, 54, 34
1, 232130, Note_off_c, 0, 60, 62
1, 232153, Note_on_c, 0, 64, 53
1, 232195, Note_off_c, 0, 64, 61
1, 232197, Note_off_c, 0, 47, 36
1, 232224, Note_on_c, 0, 66, 58
1, 232325, Note_off_c, 0, 66, 63
1, 232897, Note_on_c, 0, 72, 67
1, 232945, Note_off_c, 0, 72, 62
1, 232990, Control_c, 0, 64, 86
1, 233005, Control_c, 0, 64, 85
1, 233020, Control_c, 0, 64, 81
1, 233029, Note_on_c, 0, 72, 64
1, 233034, Control_c, 0, 64, 69
1, 233049, Control_c, 0, 64, 0
1, 233108, Control_c, 0, 64, 55
1, 233123, Control_c, 0, 64, 68
1, 233138, Control_c, 0, 64, 74
1, 233152, Control_c, 0, 64, 79
1, 233167, Control_c, 0, 64, 81
1, 233182, Control_c, 0, 64, 82
1, 233197, Control_c, 0, 64, 83
1, 233212, Control_c, 0, 64, 84
1, 233227, Control_c, 0, 64, 85
1, 233231, Note_on_c, 0, 35, 48
1, 233242, Control_c, 0, 64, 85
1, 233263, Note_off_c, 0, 35, 52
1, 233272, Control_c, 0, 64, 86
1, 233286, Note_off_c, 0, 72, 60
1, 233430, Note_on_c, 0, 54, 47
1, 233467, Note_off_c, 0, 54, 53
1, 233637, Note_on_c, 0, 57, 44
1, 233702, Note_off_c, 0, 57, 51
1, 233740, Note_on_c, 0, 63, 40
1, 233911, Note_off_c, 0, 63, 40
1, 235029, Note_on_c, 0, 71, 75
1, 235370, Note_on_c, 0, 66, 95
1, 235585, Note_off_c, 0, 71, 15
1, 235892, Note_on_c, 0, 78, 99
1, 235939, Note_off_c, 0, 66, 63
1, 235974, Note_off_c, 0, 78, 61
1, 236047, Note_on_c, 0, 78, 102
1, 236208, Control_c, 0, 64, 85
1, 236223, Control_c, 0, 64, 81
1, 236237, Control_c, 0, 64, 70
1, 236243, Note_on_c, 0, 48, 68
1, 236251, Control_c, 0, 64, 0
1, 236296, Note_on_c, 0, 54, 66
1, 236325, Control_c, 0, 64, 48
1, 236340, Control_c, 0, 64, 67
1, 236342, Note_off_c, 0, 78, 57
1, 236353, Note_on_c, 0, 60, 78
1, 236355, Control_c, 0, 64, 72
1, 236377, Control_c, 0, 64, 76
1, 236392, Control_c, 0, 64, 78
1, 236407, Control_c, 0, 64, 79
1, 236422, Control_c, 0, 64, 79
1, 236487, Note_off_c, 0, 48, 33
1, 236513, Note_off_c, 0, 60, 56
1, 236551, Note_on_c, 0, 64, 63
1, 236604, Note_off_c, 0, 54, 46
1, 236609, Note_off_c, 0, 64, 58
1, 236624, Note_on_c, 0, 69, 84
1, 236917, Note_off_c, 0, 69, 51
1, 237101, Note_on_c, 0, 76, 98
1, 237120, Control_c, 0, 64, 77
1, 237142, Control_c, 0, 64, 66
1, 237157, Control_c, 0, 64, 0
1, 237216, Control_c, 0, 64, 58
1, 237222, Note_off_c, 0, 76, 64
1, 237231, Control_c, 0, 64, 70
1, 237243, Note_on_c, 0, 45, 56
1, 237246, Control_c, 0, 64, 80
1, 237261, Control_c, 0, 64, 85
1, 237275, Control_c, 0, 64, 87
1, 237290, Control_c, 0, 64, 88
1, 237305, Control_c, 0, 64, 89
1, 237321, Note_on_c, 0, 54, 67
1, 237393, Note_on_c, 0, 57, 53
1, 237436, Note_on_c, 0, 60, 66
1, 237491, Note_on_c, 0, 64, 66
1, 237498, Note_off_c, 0, 60, 59
1, 237542, Note_off_c, 0, 64, 55
1, 237565, Note_on_c, 0, 66, 73
1, 237589, Note_off_c, 0, 66, 69
1, 237691, Note_on_c, 0, 74, 94
1, 237744, Note_off_c, 0, 74, 64
1, 237827, Note_off_c, 0, 57, 47
1, 237840, Note_off_c, 0, 54, 36
1, 237920, Note_off_c, 0, 45, 46
1, 238321, Control_c, 0, 64, 89
1, 238346, Note_on_c, 0, 72, 84
1, 238376, Note_off_c, 0, 72, 65
1, 238395, Control_c, 0, 64, 83
1, 238410, Control_c, 0, 64, 68
1, 238419, Note_on_c, 0, 72, 84
1, 238425, Control_c, 0, 64, 0
1, 238484, Control_c, 0, 64, 65
1, 238499, Control_c, 0, 64, 76
1, 238514, Control_c, 0, 64, 88
1, 238528, Control_c, 0, 64, 95
1, 238543, Control_c, 0, 64, 97
1, 238558, Control_c, 0, 64, 97
1, 238702, Note_on_c, 0, 35, 42
1, 238737, Note_off_c, 0, 35, 52
1, 238815, Note_on_c, 0, 54, 73
1, 238961, Note_off_c, 0, 72, 50
1, 239050, Note_on_c, 0, 57, 64
1, 239087, Note_off_c, 0, 57, 59
1, 239117, Note_on_c, 0, 63, 77
1, 239237, Note_off_c, 0, 54, 47
1, 239257, Note_off_c, 0, 63, 39
1, 240278, Note_on_c, 0, 71, 88
1, 240546, Note_off_c, 0, 71, 59
1, 240586, Note_on_c, 0, 73, 97
1, 240815, Note_off_c, 0, 73, 54
1, 241106, Note_on_c, 0, 71, 88
1, 241236, Note_off_c, 0, 71, 57
1, 241241, Control_c, 0, 64, 97
1, 241256, Control_c, 0, 64, 94
1, 241271, Control_c, 0, 64, 87
1, 241286, Control_c, 0, 64, 72
1, 241290, Note_on_c, 0, 80, 95
1, 241301, Control_c, 0, 64, 0
1, 241420, Control_c, 0, 64, 61
1, 241435, Control_c, 0, 64, 68
1, 241450, Control_c, 0, 64, 70
1, 241465, Control_c, 0, 64, 71
1, 241479, Control_c, 0, 64, 74
1, 241494, Control_c, 0, 64, 78
1, 241500, Note_on_c, 0, 40, 51
1, 241509, Control_c, 0, 64, 82
1, 241524, Control_c, 0, 64, 84
1, 241538, Control_c, 0, 64, 85
1, 241558, Note_off_c, 0, 40, 57
1, 241566, Note_on_c, 0, 47, 52
1, 241568, Control_c, 0, 64, 86
1, 241583, Control_c, 0, 64, 86
1, 241593, Note_off_c, 0, 47, 62
1, 241597, Control_c, 0, 64, 87
1, 241612, Control_c, 0, 64, 87
1, 241633, Note_on_c, 0, 52, 57
1, 241634, Note_off_c, 0, 80, 63
1, 241667, Note_off_c, 0, 52, 66
1, 241736, Note_on_c, 0, 56, 61
1, 241765, Note_off_c, 0, 56, 57
1, 241769, Note_on_c, 0, 64, 65
1, 241783, Control_c, 0, 64, 88
1, 241834, Note_on_c, 0, 71, 70
1, 241902, Note_off_c, 0, 64, 44
1, 242240, Note_off_c, 0, 71, 56
1, 242312, Note_on_c, 0, 76, 82
1, 242346, Control_c, 0, 64, 87
1, 242368, Control_c, 0, 64, 82
1, 242383, Control_c, 0, 64, 71
1, 242398, Control_c, 0, 64, 0
1, 242472, Control_c, 0, 64, 64
1, 242487, Control_c, 0, 64, 70
1, 242502, Control_c, 0, 64, 75
1, 242517, Control_c, 0, 64, 78
1, 242532, Note_on_c, 0, 44, 38
1, 242532, Control_c, 0, 64, 79
1, 242546, Control_c, 0, 64, 80
1, 242561, Control_c, 0, 64, 80
1, 242573, Note_off_c, 0, 44, 47
1, 242576, Control_c, 0, 64, 81
1, 242591, Control_c, 0, 64, 81
1, 242606, Control_c, 0, 64, 82
1, 242650, Control_c, 0, 64, 82
1, 242660, Note_on_c, 0, 52, 34
1, 242694, Control_c, 0, 64, 83
1, 242714, Note_on_c, 0, 56, 39
1, 242815, Note_on_c, 0, 59, 32
1, 242823, Note_off_c, 0, 52, 23
1, 242882, Note_on_c, 0, 64, 39
1, 242891, Note_off_c, 0, 56, 19
1, 242980, Note_on_c, 0, 68, 51
1, 243000, Note_off_c, 0, 64, 40
1, 243037, Note_off_c, 0, 59, 33
1, 243206, Note_off_c, 0, 68, 37
1, 243274, Note_off_c, 0, 76, 27
1, 243295, Control_c, 0, 64, 83
1, 243634, Note_on_c, 0, 72, 50
1, 243694, Control_c, 0, 64, 83
1, 243709, Control_c, 0, 64, 81
1, 243724, Control_c, 0, 64, 79
1, 243739, Control_c, 0, 64, 75
1, 243754, Control_c, 0, 64, 68
1, 243769, Control_c, 0, 64, 55
1, 243784, Control_c, 0, 64, 0
1, 243837, Note_on_c, 0, 75, 47
1, 243859, Control_c, 0, 67, 8
1, 243881, Control_c, 0, 67, 13
1, 243882, Note_off_c, 0, 72, 44
1, 243896, Control_c, 0, 67, 18
1, 243911, Control_c, 0, 67, 27
1, 243925, Control_c, 0, 67, 37
1, 243940, Control_c, 0, 67, 50
1, 243955, Control_c, 0, 64, 55
1, 243955, Control_c, 0, 67, 64
1, 243970, Control_c, 0, 64, 62
1, 243970, Control_c, 0, 67, 79
1, 243985, Control_c, 0, 64, 64
1, 243985, Control_c, 0, 67, 95
1, 243999, Control_c, 0, 64, 65
1, 243999, Control_c, 0, 67, 110
1, 244014, Control_c, 0, 67, 127
1, 244029, Control_c, 0, 64, 65
1, 244044, Control_c, 0, 64, 66
1, 244059, Control_c, 0, 64, 66
1, 244073, Control_c, 0, 64, 67
1, 244088, Control_c, 0, 64, 67
1, 244103, Control_c, 0, 64, 68
1, 244118, Control_c, 0, 64, 69
1, 244132, Control_c, 0, 64, 71
1, 244147, Control_c, 0, 64, 72
1, 244162, Control_c, 0, 64, 73
1, 244177, Control_c, 0, 64, 74
1, 244186, Note_on_c, 0, 46, 39
1, 244192, Control_c, 0, 64, 75
1, 244207, Control_c, 0, 64, 76
1, 244222, Control_c, 0, 64, 77
1, 244237, Control_c, 0, 64, 77
1, 244252, Control_c, 0, 64, 78
1, 244266, Control_c, 0, 64, 78
1, 244281, Control_c, 0, 64, 79
1, 244296, Control_c, 0, 64, 79
1, 244310, Control_c, 0, 64, 80
1, 244340, Control_c, 0, 64, 80
1, 244370, Control_c, 0, 64, 81
1, 244406, Note_on_c, 0, 52, 36
1, 244415, Note_off_c, 0, 46, 31
1, 244444, Control_c, 0, 64, 81
1, 244532, Note_on_c, 0, 55, 37
1, 244559, Note_off_c, 0, 52, 29
1, 244675, Control_c, 0, 64, 82
1, 244700, Note_on_c, 0, 61, 42
1, 244808, Control_c, 0, 64, 82
1, 244823, Note_on_c, 0, 64, 34
1, 244991, Note_off_c, 0, 64, 34
1, 245000, Control_c, 0, 64, 83
1, 245012, Note_on_c, 0, 67, 37
1, 245131, Note_off_c, 0, 75, 27
1, 245250, Note_off_c, 0, 61, 31
1, 245389, Note_off_c, 0, 55, 34
1, 245487, Note_off_c, 0, 67, 34
1, 245690, Control_c, 0, 64, 82
1, 245778, Control_c, 0, 64, 82
1, 245808, Control_c, 0, 64, 81
1, 245823, Control_c, 0, 64, 80
1, 245828, Note_on_c, 0, 73, 50
1, 245838, Control_c, 0, 64, 79
1, 245852, Control_c, 0, 64, 76
1, 245867, Control_c, 0, 64, 72
1, 245882, Control_c, 0, 64, 66
1, 245897, Control_c, 0, 64, 58
1, 245912, Control_c, 0, 64, 34
1, 245927, Control_c, 0, 64, 0
1, 246216, Control_c, 0, 64, 25
1, 246231, Control_c, 0, 64, 49
1, 246246, Control_c, 0, 64, 57
1, 246261, Control_c, 0, 64, 61
1, 246276, Control_c, 0, 64, 63
1, 246291, Control_c, 0, 64, 64
1, 246306, Control_c, 0, 64, 65
1, 246320, Control_c, 0, 64, 66
1, 246335, Control_c, 0, 64, 66
1, 246350, Control_c, 0, 64, 67
1, 246365, Control_c, 0, 64, 68
1, 246380, Control_c, 0, 64, 70
1, 246394, Control_c, 0, 64, 71
1, 246409, Control_c, 0, 64, 73
1, 246424, Control_c, 0, 64, 75
1, 246439, Control_c, 0, 64, 77
1, 246454, Control_c, 0, 64, 77
1, 246468, Control_c, 0, 64, 78
1, 246498, Control_c, 0, 64, 78
1, 246572, Control_c, 0, 64, 79
1, 246699, Note_off_c, 0, 73, 35
1, 247054, Control_c, 0, 64, 78
1, 247069, Control_c, 0, 64, 78
1, 247084, Control_c, 0, 64, 77
1, 247092, Note_on_c, 0, 67, 59
1, 247098, Control_c, 0, 64, 75
1, 247113, Control_c, 0, 64, 72
1, 247128, Control_c, 0, 64, 67
1, 247143, Control_c, 0, 64, 60
1, 247158, Control_c, 0, 64, 53
1, 247173, Control_c, 0, 64, 56
1, 247188, Control_c, 0, 64, 62
1, 247203, Control_c, 0, 64, 66
1, 247217, Control_c, 0, 64, 68
1, 247232, Control_c, 0, 64, 70
1, 247247, Control_c, 0, 64, 72
1, 247262, Control_c, 0, 64, 73
1, 247277, Control_c, 0, 64, 73
1, 247321, Control_c, 0, 67, 125
1, 247335, Control_c, 0, 64, 73
1, 247335, Control_c, 0, 67, 122
1, 247350, Control_c, 0, 64, 71
1, 247350, Control_c, 0, 67, 118
1, 247365, Control_c, 0, 64, 67
1, 247365, Control_c, 0, 67, 115
1, 247379, Note_on_c, 0, 68, 70
1, 247380, Control_c, 0, 64, 57
1, 247380, Control_c, 0, 67, 113
1, 247393, Note_off_c, 0, 67, 58
1, 247395, Control_c, 0, 64, 0
1, 247395, Control_c, 0, 67, 109
1, 247409, Control_c, 0, 67, 105
1, 247424, Control_c, 0, 67, 100
1, 247439, Control_c, 0, 64, 34
1, 247439, Control_c, 0, 67, 95
1, 247454, Control_c, 0, 64, 59
1, 247454, Control_c, 0, 67, 91
1, 247469, Control_c, 0, 64, 64
1, 247469, Control_c, 0, 67, 87
1, 247483, Control_c, 0, 64, 66
1, 247483, Control_c, 0, 67, 83
1, 247498, Control_c, 0, 64, 68
1, 247498, Control_c, 0, 67, 79
1, 247513, Control_c, 0, 64, 69
1, 247513, Control_c, 0, 67, 75
1, 247528, Control_c, 0, 64, 71
1, 247528, Control_c, 0, 67, 70
1, 247543, Control_c, 0, 64, 72
1, 247543, Control_c, 0, 67, 66
1, 247557, Control_c, 0, 64, 74
1, 247557, Control_c, 0, 67, 61
1, 247572, Control_c, 0, 64, 75
1, 247572, Control_c, 0, 67, 57
1, 247587, Control_c, 0, 64, 76
1, 247587, Control_c, 0, 67, 55
1, 247608, Note_on_c, 0, 47, 47
1, 247609, Control_c, 0, 64, 77
1, 247609, Control_c, 0, 67, 52
1, 247624, Control_c, 0, 64, 78
1, 247624, Control_c, 0, 67, 49
1, 247639, Control_c, 0, 64, 79
1, 247639, Control_c, 0, 67, 47
1, 247654, Control_c, 0, 64, 80
1, 247654, Control_c, 0, 67, 44
1, 247656, Note_off_c, 0, 68, 57
1, 247662, Note_on_c, 0, 52, 44
1, 247668, Control_c, 0, 64, 81
1, 247668, Control_c, 0, 67, 41
1, 247683, Control_c, 0, 64, 81
1, 247683, Control_c, 0, 67, 38
1, 247698, Control_c, 0, 64, 82
1, 247698, Control_c, 0, 67, 36
1, 247713, Control_c, 0, 67, 34
1, 247717, Note_on_c, 0, 56, 55
1, 247728, Control_c, 0, 64, 82
1, 247728, Control_c, 0, 67, 32
1, 247742, Control_c, 0, 67, 30
1, 247757, Control_c, 0, 64, 83
1, 247757, Control_c, 0, 67, 28
1, 247772, Control_c, 0, 64, 83
1, 247772, Control_c, 0, 67, 27
1, 247788, Control_c, 0, 67, 26
1, 247803, Note_off_c, 0, 47, 42
1, 247803, Control_c, 0, 67, 24
1, 247818, Control_c, 0, 64, 84
1, 247818, Control_c, 0, 67, 23
1, 247832, Control_c, 0, 67, 22
1, 247847, Control_c, 0, 67, 20
1, 247856, Note_on_c, 0, 59, 54
1, 247862, Control_c, 0, 67, 18
1, 247877, Control_c, 0, 67, 17
1, 247890, Note_off_c, 0, 56, 35
1, 247892, Control_c, 0, 67, 16
1, 247906, Control_c, 0, 67, 16
1, 247919, Note_on_c, 0, 64, 66
1, 247920, Note_off_c, 0, 59, 60
1, 247936, Control_c, 0, 67, 15
1, 247951, Control_c, 0, 67, 15
1, 247960, Note_on_c, 0, 68, 82
1, 247963, Note_off_c, 0, 52, 39
1, 247966, Control_c, 0, 67, 14
1, 247981, Control_c, 0, 67, 13
1, 247996, Control_c, 0, 67, 12
1, 248011, Control_c, 0, 67, 12
1, 248025, Control_c, 0, 67, 11
1, 248070, Control_c, 0, 67, 11
1, 248075, Note_off_c, 0, 64, 36
1, 248084, Control_c, 0, 64, 84
1, 248144, Control_c, 0, 67, 10
1, 248222, Note_off_c, 0, 68, 59
1, 248306, Poly_aftertouch_c, 0, 64, 127
1, 248351, Control_c, 0, 67, 11
1, 248389, Poly_aftertouch_c, 0, 64, 0
1, 248418, Control_c, 0, 64, 83
1, 248418, Control_c, 0, 67, 11
1, 248428, Note_on_c, 0, 71, 73
1, 248431, Note_on_c, 0, 68, 68
1, 248432, Control_c, 0, 64, 80
1, 248432, Control_c, 0, 67, 12
1, 248447, Control_c, 0, 64, 68
1, 248447, Control_c, 0, 67, 12
1, 248462, Control_c, 0, 64, 0
1, 248462, Control_c, 0, 67, 13
1, 248477, Control_c, 0, 67, 14
1, 248491, Control_c, 0, 67, 15
1, 248506, Control_c, 0, 67, 15
1, 248521, Control_c, 0, 67, 16
1, 248536, Control_c, 0, 67, 17
1, 248551, Control_c, 0, 67, 18
1, 248565, Control_c, 0, 64, 62
1, 248565, Control_c, 0, 67, 20
1, 248581, Control_c, 0, 64, 67
1, 248581, Control_c, 0, 67, 20
1, 248596, Control_c, 0, 64, 69
1, 248596, Control_c, 0, 67, 21
1, 248602, Note_on_c, 0, 35, 42
1, 248611, Control_c, 0, 64, 72
1, 248611, Control_c, 0, 67, 22
1, 248626, Control_c, 0, 64, 74
1, 248626, Control_c, 0, 67, 23
1, 248634, Note_off_c, 0, 35, 54
1, 248641, Note_off_c, 0, 68, 60
1, 248641, Control_c, 0, 64, 77
1, 248641, Control_c, 0, 67, 26
1, 248655, Control_c, 0, 64, 78
1, 248655, Control_c, 0, 67, 31
1, 248670, Control_c, 0, 64, 79
1, 248670, Control_c, 0, 67, 40
1, 248685, Control_c, 0, 64, 80
1, 248685, Control_c, 0, 67, 47
1, 248700, Control_c, 0, 64, 80
1, 248700, Control_c, 0, 67, 55
1, 248714, Control_c, 0, 64, 81
1, 248714, Control_c, 0, 67, 62
1, 248729, Control_c, 0, 67, 70
1, 248744, Control_c, 0, 67, 77
1, 248759, Control_c, 0, 64, 81
1, 248759, Control_c, 0, 67, 83
1, 248774, Control_c, 0, 67, 88
1, 248789, Note_off_c, 0, 71, 36
1, 248789, Control_c, 0, 67, 90
1, 248804, Control_c, 0, 67, 92
1, 248818, Control_c, 0, 67, 93
1, 248833, Control_c, 0, 67, 94
1, 248847, Note_on_c, 0, 57, 49
1, 248848, Control_c, 0, 64, 82
1, 248848, Control_c, 0, 67, 95
1, 248857, Poly_aftertouch_c, 0, 54, 0
1, 248893, Note_off_c, 0, 57, 46
1, 248903, Note_on_c, 0, 63, 55
1, 248959, Note_on_c, 0, 66, 66
1, 249009, Note_off_c, 0, 63, 39
1, 249009, Note_on_c, 0, 69, 78
1, 249026, Control_c, 0, 67, 95
1, 249085, Note_off_c, 0, 66, 36
1, 249195, Note_off_c, 0, 69, 50
1, 249256, Control_c, 0, 67, 96
1, 249300, Control_c, 0, 67, 96
1, 249314, Control_c, 0, 67, 97
1, 249329, Control_c, 0, 67, 99
1, 249344, Control_c, 0, 67, 104
1, 249359, Control_c, 0, 67, 109
1, 249374, Control_c, 0, 67, 114
1, 249390, Control_c, 0, 67, 119
1, 249404, Control_c, 0, 67, 123
1, 249419, Control_c, 0, 67, 127
1, 249622, Note_on_c, 0, 69, 67
1, 249635, Note_on_c, 0, 66, 55
1, 249641, Control_c, 0, 64, 79
1, 249656, Control_c, 0, 64, 72
1, 249671, Control_c, 0, 64, 60
1, 249686, Control_c, 0, 64, 0
1, 249745, Control_c, 0, 64, 63
1, 249760, Control_c, 0, 64, 68
1, 249775, Control_c, 0, 64, 73
1, 249790, Control_c, 0, 64, 77
1, 249805, Control_c, 0, 64, 79
1, 249820, Control_c, 0, 64, 80
1, 249835, Control_c, 0, 64, 81
1, 249835, Note_on_c, 0, 36, 30
1, 249883, Note_off_c, 0, 36, 54
1, 249886, Control_c, 0, 64, 81
1, 249916, Control_c, 0, 64, 82
1, 249960, Control_c, 0, 64, 82
1, 249982, Note_on_c, 0, 54, 45
1, 249990, Control_c, 0, 64, 83
1, 250009, Note_off_c, 0, 54, 54
1, 250064, Control_c, 0, 64, 83
1, 250206, Note_on_c, 0, 57, 49
1, 250255, Note_off_c, 0, 57, 52
1, 250303, Note_on_c, 0, 63, 43
1, 250361, Control_c, 0, 64, 84
1, 250534, Note_off_c, 0, 63, 32
1, 250568, Control_c, 0, 64, 84
1, 250679, Control_c, 0, 67, 125
1, 250694, Control_c, 0, 67, 121
1, 250709, Control_c, 0, 64, 85
1, 250709, Control_c, 0, 67, 117
1, 250724, Control_c, 0, 67, 112
1, 250739, Control_c, 0, 67, 105
1, 250753, Note_off_c, 0, 69, 40
1, 250754, Control_c, 0, 67, 100
1, 250768, Control_c, 0, 67, 95
1, 250783, Control_c, 0, 67, 92
1, 250798, Control_c, 0, 67, 90
1, 250813, Control_c, 0, 67, 87
1, 250828, Control_c, 0, 67, 84
1, 250842, Control_c, 0, 67, 81
1, 250857, Control_c, 0, 67, 77
1, 250872, Control_c, 0, 67, 74
1, 250881, Note_off_c, 0, 66, 39
1, 250887, Control_c, 0, 67, 70
1, 250902, Control_c, 0, 67, 66
1, 250917, Control_c, 0, 67, 61
1, 250932, Control_c, 0, 67, 56
1, 250947, Control_c, 0, 67, 50
1, 250961, Control_c, 0, 67, 44
1, 250977, Control_c, 0, 64, 85
1, 250977, Control_c, 0, 67, 39
1, 250991, Control_c, 0, 67, 34
1, 251006, Control_c, 0, 67, 28
1, 251021, Control_c, 0, 67, 23
1, 251036, Control_c, 0, 67, 17
1, 251051, Control_c, 0, 67, 12
1, 251066, Control_c, 0, 67, 0
1, 251155, Control_c, 0, 64, 86
1, 251199, Control_c, 0, 64, 86
1, 251228, Control_c, 0, 64, 87
1, 251302, Control_c, 0, 64, 87
1, 251580, Note_on_c, 0, 68, 80
1, 252127, Note_on_c, 0, 80, 90
1, 252177, Control_c, 0, 64, 86
1, 252189, Note_off_c, 0, 80, 64
1, 252192, Control_c, 0, 64, 80
1, 252206, Control_c, 0, 64, 67
1, 252221, Control_c, 0, 64, 0
1, 252250, Note_on_c, 0, 80, 97
1, 252280, Control_c, 0, 64, 59
1, 252295, Control_c, 0, 64, 71
1, 252310, Control_c, 0, 64, 78
1, 252324, Control_c, 0, 64, 85
1, 252339, Control_c, 0, 64, 89
1, 252354, Control_c, 0, 64, 91
1, 252369, Control_c, 0, 64, 92
1, 252384, Control_c, 0, 64, 93
1, 252398, Control_c, 0, 64, 93
1, 252413, Control_c, 0, 64, 94
1, 252428, Note_on_c, 0, 37, 52
1, 252428, Control_c, 0, 64, 94
1, 252448, Note_off_c, 0, 80, 61
1, 252458, Control_c, 0, 64, 95
1, 252468, Note_off_c, 0, 37, 64
1, 252485, Note_on_c, 0, 49, 64
1, 252517, Note_off_c, 0, 49, 63
1, 252533, Note_off_c, 0, 68, 62
1, 252618, Note_on_c, 0, 53, 54
1, 252650, Note_on_c, 0, 56, 62
1, 252696, Note_on_c, 0, 62, 70
1, 252722, Note_on_c, 0, 65, 75
1, 252722, Note_off_c, 0, 53, 53
1, 252743, Note_off_c, 0, 62, 56
1, 252769, Note_on_c, 0, 71, 85
1, 252776, Note_off_c, 0, 56, 55
1, 252780, Note_off_c, 0, 65, 63
1, 252901, Note_off_c, 0, 71, 45
1, 253029, Control_c, 0, 64, 94
1, 253202, Note_on_c, 0, 74, 93
1, 253207, Control_c, 0, 64, 90
1, 253221, Control_c, 0, 64, 81
1, 253236, Control_c, 0, 64, 65
1, 253251, Control_c, 0, 64, 0
1, 253296, Control_c, 0, 64, 60
1, 253311, Control_c, 0, 64, 69
1, 253326, Control_c, 0, 64, 76
1, 253340, Control_c, 0, 64, 81
1, 253355, Control_c, 0, 64, 83
1, 253370, Control_c, 0, 64, 84
1, 253385, Control_c, 0, 64, 85
1, 253400, Control_c, 0, 64, 86
1, 253412, Note_on_c, 0, 42, 51
1, 253445, Control_c, 0, 64, 86
1, 253478, Note_off_c, 0, 42, 57
1, 253489, Control_c, 0, 64, 87
1, 253502, Note_on_c, 0, 52, 50
1, 253531, Note_off_c, 0, 52, 65
1, 253533, Control_c, 0, 64, 87
1, 253545, Note_on_c, 0, 55, 64
1, 253563, Control_c, 0, 64, 88
1, 253573, Note_off_c, 0, 55, 67
1, 253650, Note_on_c, 0, 61, 74
1, 253683, Note_on_c, 0, 64, 70
1, 253686, Note_off_c, 0, 61, 58
1, 253732, Note_on_c, 0, 70, 84
1, 253736, Note_off_c, 0, 74, 61
1, 253745, Note_off_c, 0, 64, 62
1, 253797, Note_off_c, 0, 70, 62
1, 253807, Control_c, 0, 64, 88
1, 253984, Control_c, 0, 64, 89
1, 254160, Note_on_c, 0, 73, 84
1, 254163, Control_c, 0, 64, 89
1, 254208, Note_off_c, 0, 73, 64
1, 254208, Control_c, 0, 64, 89
1, 254223, Control_c, 0, 64, 83
1, 254238, Control_c, 0, 64, 68
1, 254244, Note_on_c, 0, 78, 97
1, 254253, Control_c, 0, 64, 0
1, 254312, Control_c, 0, 64, 56
1, 254326, Control_c, 0, 64, 74
1, 254348, Control_c, 0, 64, 89
1, 254363, Control_c, 0, 64, 104
1, 254378, Control_c, 0, 64, 111
1, 254393, Control_c, 0, 64, 112
1, 254437, Note_on_c, 0, 35, 58
1, 254468, Note_off_c, 0, 35, 64
1, 254475, Note_off_c, 0, 78, 60
1, 254482, Note_on_c, 0, 47, 71
1, 254516, Note_off_c, 0, 47, 65
1, 254601, Note_on_c, 0, 51, 72
1, 254634, Note_on_c, 0, 54, 71
1, 254680, Note_on_c, 0, 60, 81
1, 254697, Note_on_c, 0, 63, 81
1, 254725, Note_off_c, 0, 60, 61
1, 254744, Note_on_c, 0, 69, 90
1, 254754, Note_off_c, 0, 51, 56
1, 254756, Note_off_c, 0, 63, 65
1, 254763, Note_off_c, 0, 54, 56
1, 255111, Note_off_c, 0, 69, 62
1, 255112, Control_c, 0, 64, 107
1, 255127, Control_c, 0, 64, 93
1, 255142, Control_c, 0, 64, 68
1, 255154, Note_on_c, 0, 72, 98
1, 255156, Control_c, 0, 64, 0
1, 255230, Control_c, 0, 64, 51
1, 255245, Control_c, 0, 64, 71
1, 255260, Control_c, 0, 64, 81
1, 255275, Control_c, 0, 64, 94
1, 255290, Control_c, 0, 64, 107
1, 255305, Control_c, 0, 64, 127
1, 255407, Note_on_c, 0, 40, 65
1, 255445, Note_off_c, 0, 40, 62
1, 255460, Note_on_c, 0, 50, 66
1, 255490, Note_off_c, 0, 50, 64
1, 255547, Note_on_c, 0, 53, 80
1, 255606, Note_on_c, 0, 59, 78
1, 255624, Note_off_c, 0, 53, 63
1, 255642, Note_off_c, 0, 59, 62
1, 255655, Note_on_c, 0, 62, 84
1, 255678, Note_off_c, 0, 72, 63
1, 255708, Note_on_c, 0, 68, 101
1, 255721, Note_off_c, 0, 62, 63
1, 255757, Note_off_c, 0, 68, 65
1, 256412, Note_on_c, 0, 71, 93
1, 256476, Note_off_c, 0, 71, 60
1, 256513, Control_c, 0, 64, 117
1, 256518, Note_on_c, 0, 77, 102
1, 256528, Control_c, 0, 64, 92
1, 256543, Control_c, 0, 64, 69
1, 256558, Control_c, 0, 64, 0
1, 256715, Control_c, 0, 64, 65
1, 256729, Control_c, 0, 64, 69
1, 256744, Control_c, 0, 64, 71
1, 256759, Control_c, 0, 64, 75
1, 256774, Control_c, 0, 64, 81
1, 256789, Control_c, 0, 64, 85
1, 256803, Control_c, 0, 64, 89
1, 256818, Control_c, 0, 64, 94
1, 256822, Note_on_c, 0, 33, 66
1, 256833, Control_c, 0, 64, 99
1, 256847, Control_c, 0, 64, 104
1, 256849, Note_off_c, 0, 77, 61
1, 256857, Note_off_c, 0, 33, 64
1, 256862, Control_c, 0, 64, 111
1, 256875, Note_on_c, 0, 45, 68
1, 256877, Control_c, 0, 64, 117
1, 256892, Control_c, 0, 64, 124
1, 256903, Note_off_c, 0, 45, 65
1, 256907, Control_c, 0, 64, 127
1, 256983, Note_on_c, 0, 48, 66
1, 257040, Note_on_c, 0, 53, 57
1, 257078, Note_on_c, 0, 57, 80
1, 257113, Note_on_c, 0, 60, 74
1, 257136, Note_off_c, 0, 60, 69
1, 257153, Note_on_c, 0, 65, 86
1, 257199, Note_on_c, 0, 72, 98
1, 257258, Note_off_c, 0, 65, 0
1, 257296, Poly_aftertouch_c, 0, 65, 127
1, 257356, Note_off_c, 0, 57, 57
1, 257360, Poly_aftertouch_c, 0, 65, 0
1, 257365, Note_off_c, 0, 53, 59
1, 257419, Note_off_c, 0, 48, 37
1, 258763, Note_on_c, 0, 71, 89
1, 258877, Note_off_c, 0, 72, 39
1, 259149, Note_off_c, 0, 71, 58
1, 259231, Note_on_c, 0, 74, 95
1, 259448, Note_off_c, 0, 74, 64
1, 259538, Control_c, 0, 64, 117
1, 259553, Control_c, 0, 64, 106
1, 259558, Note_on_c, 0, 72, 95
1, 259568, Control_c, 0, 64, 101
1, 259583, Control_c, 0, 64, 98
1, 259679, Control_c, 0, 64, 99
1, 259694, Control_c, 0, 64, 100
1, 259709, Control_c, 0, 64, 100
1, 259723, Control_c, 0, 64, 101
1, 259773, Note_off_c, 0, 72, 62
1, 259799, Control_c, 0, 64, 101
1, 259813, Control_c, 0, 64, 99
1, 259828, Control_c, 0, 64, 98
1, 259843, Control_c, 0, 64, 98
1, 259846, Note_on_c, 0, 69, 95
1, 259917, Control_c, 0, 64, 98
1, 259932, Control_c, 0, 64, 99
1, 259946, Control_c, 0, 64, 99
1, 259961, Control_c, 0, 64, 100
1, 259976, Control_c, 0, 64, 101
1, 259991, Control_c, 0, 64, 101
1, 260000, Note_off_c, 0, 69, 64
1, 260006, Control_c, 0, 64, 102
1, 260036, Control_c, 0, 64, 102
1, 260079, Note_on_c, 0, 65, 90
1, 260095, Control_c, 0, 64, 103
1, 260139, Control_c, 0, 64, 103
1, 260169, Control_c, 0, 64, 104
1, 260184, Control_c, 0, 64, 104
1, 260199, Control_c, 0, 64, 105
1, 260199, Note_off_c, 0, 65, 65
1, 260272, Control_c, 0, 64, 105
1, 260286, Note_on_c, 0, 62, 91
1, 260313, Note_on_c, 0, 60, 50
1, 260314, Note_off_c, 0, 60, 127
1, 260412, Note_off_c, 0, 62, 62
1, 260505, Note_on_c, 0, 60, 95
1, 260629, Note_off_c, 0, 60, 60
1, 260666, Control_c, 0, 64, 105
1, 260681, Control_c, 0, 64, 98
1, 260695, Control_c, 0, 64, 82
1, 260710, Control_c, 0, 64, 65
1, 260721, Note_on_c, 0, 57, 90
1, 260725, Control_c, 0, 64, 0
1, 260769, Control_c, 0, 64, 61
1, 260784, Control_c, 0, 64, 70
1, 260799, Control_c, 0, 64, 77
1, 260814, Control_c, 0, 64, 81
1, 260829, Control_c, 0, 64, 82
1, 260871, Note_off_c, 0, 57, 58
1, 260888, Control_c, 0, 64, 83
1, 260908, Note_on_c, 0, 60, 89
1, 260933, Control_c, 0, 64, 83
1, 260957, Note_off_c, 0, 60, 63
1, 260977, Control_c, 0, 64, 84
1, 261007, Control_c, 0, 64, 84
1, 261049, Note_on_c, 0, 64, 84
1, 261051, Control_c, 0, 64, 85
1, 261081, Control_c, 0, 64, 85
1, 261103, Control_c, 0, 64, 86
1, 261115, Note_off_c, 0, 64, 63
1, 261147, Control_c, 0, 64, 86
1, 261174, Note_on_c, 0, 65, 84
1, 261192, Control_c, 0, 64, 87
1, 261221, Note_off_c, 0, 65, 66
1, 261221, Control_c, 0, 64, 87
1, 261267, Note_on_c, 0, 53, 72
1, 261269, Note_on_c, 0, 45, 68
1, 261281, Control_c, 0, 64, 88
1, 261286, Note_on_c, 0, 69, 86
1, 261290, Note_on_c, 0, 60, 81
1, 261300, Note_off_c, 0, 53, 65
1, 261308, Note_off_c, 0, 45, 63
1, 261313, Note_off_c, 0, 60, 66
1, 261331, Note_off_c, 0, 69, 64
1, 261392, Note_on_c, 0, 55, 79
1, 261393, Note_on_c, 0, 72, 91
1, 261397, Note_on_c, 0, 64, 90
1, 261401, Note_on_c, 0, 46, 66
1, 261415, Control_c, 0, 64, 88
1, 261430, Note_off_c, 0, 46, 62
1, 261433, Note_off_c, 0, 55, 63
1, 261436, Note_off_c, 0, 64, 64
1, 261438, Note_off_c, 0, 72, 66
1, 261459, Control_c, 0, 64, 89
1, 261474, Control_c, 0, 64, 87
1, 261489, Control_c, 0, 64, 81
1, 261504, Control_c, 0, 64, 68
1, 261511, Note_on_c, 0, 72, 102
1, 261513, Note_on_c, 0, 47, 81
1, 261514, Note_on_c, 0, 64, 94
1, 261517, Note_on_c, 0, 56, 82
1, 261518, Control_c, 0, 64, 0
1, 261592, Control_c, 0, 64, 61
1, 261607, Control_c, 0, 64, 69
1, 261622, Control_c, 0, 64, 76
1, 261636, Control_c, 0, 64, 79
1, 261651, Control_c, 0, 64, 79
1, 261681, Note_off_c, 0, 72, 58
1, 261681, Control_c, 0, 64, 80
1, 261685, Note_off_c, 0, 47, 57
1, 261696, Control_c, 0, 64, 80
1, 261710, Control_c, 0, 64, 81
1, 261723, Note_off_c, 0, 64, 57
1, 261740, Control_c, 0, 64, 81
1, 261755, Control_c, 0, 64, 82
1, 261770, Control_c, 0, 64, 82
1, 261784, Control_c, 0, 64, 83
1, 261804, Note_off_c, 0, 56, 60
1, 261814, Control_c, 0, 64, 83
1, 261836, Control_c, 0, 64, 84
1, 261851, Control_c, 0, 64, 84
1, 261866, Control_c, 0, 64, 85
1, 261881, Control_c, 0, 64, 86
1, 261896, Control_c, 0, 64, 87
1, 261910, Control_c, 0, 64, 88
1, 261955, Control_c, 0, 64, 87
1, 261965, Note_on_c, 0, 64, 86
1, 261966, Note_on_c, 0, 56, 84
1, 261970, Control_c, 0, 64, 81
1, 261985, Control_c, 0, 64, 68
1, 261999, Control_c, 0, 64, 0
1, 262008, Note_off_c, 0, 64, 62
1, 262029, Note_off_c, 0, 56, 62
1, 262037, Note_on_c, 0, 64, 63
1, 262041, Note_on_c, 0, 68, 96
1, 262045, Note_on_c, 0, 59, 99
1, 262058, Control_c, 0, 64, 46
1, 262073, Control_c, 0, 64, 68
1, 262088, Control_c, 0, 64, 77
1, 262103, Control_c, 0, 64, 83
1, 262117, Control_c, 0, 64, 84
1, 262132, Control_c, 0, 64, 84
1, 262147, Control_c, 0, 64, 85
1, 262163, Control_c, 0, 64, 85
1, 262252, Control_c, 0, 64, 86
1, 262311, Control_c, 0, 64, 86
1, 262340, Control_c, 0, 64, 87
1, 262355, Control_c, 0, 64, 87
1, 262385, Control_c, 0, 64, 88
1, 262414, Control_c, 0, 64, 88
1, 262444, Control_c, 0, 64, 89
1, 262474, Control_c, 0, 64, 89
1, 262489, Control_c, 0, 64, 90
1, 262504, Control_c, 0, 64, 91
1, 262519, Control_c, 0, 64, 92
1, 262533, Control_c, 0, 64, 93
1, 262548, Control_c, 0, 64, 94
1, 262558, Note_on_c, 0, 47, 97
1, 262563, Control_c, 0, 64, 94
1, 262565, Note_off_c, 0, 64, 61
1, 262593, Note_off_c, 0, 68, 57
1, 262605, Note_off_c, 0, 47, 66
1, 262626, Note_off_c, 0, 59, 53
1, 262629, Control_c, 0, 64, 94
1, 262644, Control_c, 0, 64, 88
1, 262648, Note_on_c, 0, 48, 106
1, 262659, Control_c, 0, 64, 76
1, 262674, Control_c, 0, 64, 48
1, 262686, Note_on_c, 0, 47, 39
1, 262689, Control_c, 0, 64, 0
1, 262715, Note_off_c, 0, 47, 34
1, 262940, Control_c, 0, 64, 27
1, 262955, Control_c, 0, 64, 62
1, 262971, Control_c, 0, 64, 69
1, 262975, Note_on_c, 0, 66, 99
1, 262977, Note_on_c, 0, 63, 87
1, 262983, Note_on_c, 0, 57, 72
1, 262986, Control_c, 0, 64, 81
1, 263001, Control_c, 0, 64, 91
1, 263016, Control_c, 0, 64, 96
1, 263031, Control_c, 0, 64, 99
1, 263042, Note_off_c, 0, 57, 56
1, 263045, Control_c, 0, 64, 103
1, 263060, Control_c, 0, 64, 106
1, 263064, Note_off_c, 0, 63, 61
1, 263075, Control_c, 0, 64, 108
1, 263089, Control_c, 0, 64, 109
1, 263103, Note_off_c, 0, 66, 63
1, 263104, Control_c, 0, 64, 111
1, 263119, Control_c, 0, 64, 113
1, 263134, Control_c, 0, 64, 115
1, 263149, Control_c, 0, 64, 117
1, 263163, Control_c, 0, 64, 118
1, 263178, Control_c, 0, 64, 121
1, 263194, Control_c, 0, 64, 124
1, 263209, Control_c, 0, 64, 127
1, 263292, Note_on_c, 0, 54, 71
1, 263332, Note_off_c, 0, 54, 65
1, 263344, Note_on_c, 0, 63, 78
1, 263368, Note_on_c, 0, 69, 101
1, 263391, Note_off_c, 0, 63, 66
1, 263401, Note_off_c, 0, 69, 70
1, 263789, Note_off_c, 0, 48, 62
1, 263838, Note_on_c, 0, 47, 100
1, 264043, Note_on_c, 0, 68, 100
1, 264047, Note_on_c, 0, 57, 89
1, 264051, Note_on_c, 0, 63, 85
1, 264056, Note_off_c, 0, 47, 57
1, 264189, Note_off_c, 0, 57, 58
1, 264190, Note_off_c, 0, 68, 60
1, 264262, Note_off_c, 0, 63, 57
1, 264394, Control_c, 0, 64, 95
1, 264409, Control_c, 0, 64, 59
1, 264412, Note_on_c, 0, 64, 94
1, 264412, Note_on_c, 0, 56, 99
1, 264416, Note_on_c, 0, 40, 100
1, 264417, Note_on_c, 0, 28, 91
1, 264424, Control_c, 0, 64, 0
1, 264498, Control_c, 0, 64, 56
1, 264504, Note_off_c, 0, 56, 61
1, 264513, Control_c, 0, 64, 74
1, 264528, Control_c, 0, 64, 84
1, 264543, Control_c, 0, 64, 93
1, 264558, Control_c, 0, 64, 100
1, 264565, Note_off_c, 0, 64, 63
1, 264573, Note_off_c, 0, 28, 61
1, 264573, Control_c, 0, 64, 107
1, 264588, Control_c, 0, 64, 113
1, 264602, Control_c, 0, 64, 119
1, 264605, Note_off_c, 0, 40, 56
1, 264617, Control_c, 0, 64, 127
1, 264909, Note_on_c, 0, 80, 82
1, 264912, Note_on_c, 0, 71, 66
1, 264924, Note_on_c, 0, 68, 74
1, 264974, Note_off_c, 0, 71, 59
1, 264984, Note_off_c, 0, 80, 64
1, 265054, Note_off_c, 0, 68, 64
1, 265161, Note_on_c, 0, 56, 50
1, 265164, Note_on_c, 0, 59, 47
1, 265168, Note_on_c, 0, 47, 48
1, 265172, Note_on_c, 0, 52, 43
1, 265253, Note_on_c, 0, 76, 77
1, 265259, Note_on_c, 0, 64, 68
1, 265264, Note_on_c, 0, 68, 62
1, 265286, Note_off_c, 0, 64, 68
1, 265306, Note_off_c, 0, 56, 53
1, 265312, Note_off_c, 0, 68, 62
1, 265320, Note_off_c, 0, 59, 50
1, 265323, Note_off_c, 0, 47, 44
1, 265324, Note_off_c, 0, 76, 66
1, 265325, Note_off_c, 0, 52, 54
1, 265430, Note_on_c, 0, 59, 53
1, 265433, Note_on_c, 0, 47, 46
1, 265437, Note_on_c, 0, 56, 57
1, 265441, Note_on_c, 0, 52, 35
1, 265506, Note_on_c, 0, 80, 78
1, 265513, Note_on_c, 0, 68, 82
1, 265526, Note_off_c, 0, 52, 46
1, 265526, Note_off_c, 0, 59, 54
1, 265530, Note_off_c, 0, 56, 57
1, 265544, Note_off_c, 0, 47, 37
1, 265585, Note_off_c, 0, 80, 63
1, 265618, Note_off_c, 0, 68, 61
1, 265630, Note_on_c, 0, 56, 62
1, 265630, Note_on_c, 0, 59, 61
1, 265636, Note_on_c, 0, 52, 51
1, 265639, Note_on_c, 0, 47, 54
1, 265677, Note_off_c, 0, 59, 58
1, 265684, Note_off_c, 0, 52, 56
1, 265692, Note_off_c, 0, 47, 57
1, 265692, Note_off_c, 0, 56, 62
1, 265744, Note_on_c, 0, 83, 93
1, 265748, Note_on_c, 0, 80, 65
1, 265749, Note_on_c, 0, 71, 90
1, 265755, Note_on_c, 0, 76, 67
1, 265774, Note_on_c, 0, 56, 57
1, 265777, Note_on_c, 0, 59, 63
1, 265786, Note_on_c, 0, 47, 54
1, 265802, Note_on_c, 0, 52, 46
1, 265824, Note_off_c, 0, 59, 51
1, 265827, Note_off_c, 0, 47, 54
1, 265830, Note_off_c, 0, 52, 64
1, 265830, Note_off_c, 0, 56, 61
1, 265855, Note_off_c, 0, 83, 59
1, 265866, Note_off_c, 0, 71, 62
1, 265905, Note_off_c, 0, 76, 63
1, 265906, Note_off_c, 0, 80, 63
1, 265908, Note_on_c, 0, 56, 59
1, 265911, Note_on_c, 0, 59, 61
1, 265914, Note_on_c, 0, 47, 58
1, 265915, Note_on_c, 0, 52, 62
1, 265939, Note_off_c, 0, 59, 61
1, 265950, Note_off_c, 0, 47, 60
1, 265955, Note_off_c, 0, 52, 61
1, 265956, Note_off_c, 0, 56, 63
1, 265957, Note_on_c, 0, 85, 92
1, 265960, Note_on_c, 0, 76, 69
1, 265962, Note_on_c, 0, 73, 97
1, 265968, Note_on_c, 0, 80, 65
1, 266021, Note_off_c, 0, 76, 57
1, 266038, Note_off_c, 0, 85, 66
1, 266041, Note_on_c, 0, 59, 64
1, 266045, Note_on_c, 0, 52, 62
1, 266046, Note_on_c, 0, 56, 61
1, 266050, Note_off_c, 0, 73, 62
1, 266051, Note_on_c, 0, 47, 55
1, 266074, Note_off_c, 0, 59, 62
1, 266077, Note_off_c, 0, 56, 63
1, 266087, Note_off_c, 0, 52, 63
1, 266093, Note_off_c, 0, 47, 60
1, 266145, Note_off_c, 0, 80, 0
1, 266148, Note_on_c, 0, 71, 99
1, 266150, Note_on_c, 0, 83, 87
1, 266152, Note_on_c, 0, 76, 36
1, 266155, Note_on_c, 0, 59, 73
1, 266161, Note_on_c, 0, 56, 73
1, 266161, Note_on_c, 0, 80, 37
1, 266163, Note_on_c, 0, 47, 65
1, 266174, Note_off_c, 0, 76, 56
1, 266176, Note_on_c, 0, 52, 59
1, 266188, Note_off_c, 0, 83, 64
1, 266188, Note_off_c, 0, 80, 55
1, 266195, Note_off_c, 0, 59, 51
1, 266209, Note_off_c, 0, 71, 62
1, 266227, Note_off_c, 0, 56, 62
1, 266232, Note_off_c, 0, 52, 56
1, 266285, Note_off_c, 0, 47, 58
1, 266393, Note_on_c, 0, 80, 89
1, 266395, Note_on_c, 0, 68, 101
1, 266403, Note_on_c, 0, 71, 41
1, 266420, Note_on_c, 0, 76, 26
1, 266425, Note_off_c, 0, 71, 60
1, 266444, Note_off_c, 0, 76, 46
1, 266452, Note_off_c, 0, 80, 65
1, 266555, Note_off_c, 0, 68, 39
1, 266634, Note_on_c, 0, 40, 84
1, 266636, Note_on_c, 0, 28, 84
1, 266640, Control_c, 0, 64, 114
1, 266655, Control_c, 0, 64, 88
1, 266670, Control_c, 0, 64, 67
1, 266685, Control_c, 0, 64, 0
1, 266713, Note_on_c, 0, 68, 70
1, 266714, Note_on_c, 0, 76, 84
1, 266714, Control_c, 0, 64, 29
1, 266717, Note_on_c, 0, 64, 83
1, 266729, Control_c, 0, 64, 68
1, 266734, Note_on_c, 0, 71, 57
1, 266744, Control_c, 0, 64, 81
1, 266755, Note_off_c, 0, 28, 57
1, 266759, Control_c, 0, 64, 95
1, 266768, Note_on_c, 0, 73, 39
1, 266774, Control_c, 0, 64, 106
1, 266787, Note_off_c, 0, 64, 62
1, 266787, Note_off_c, 0, 71, 53
1, 266788, Control_c, 0, 64, 112
1, 266803, Control_c, 0, 64, 116
1, 266804, Note_off_c, 0, 68, 62
1, 266808, Note_off_c, 0, 40, 56
1, 266811, Note_off_c, 0, 73, 56
1, 266818, Control_c, 0, 64, 118
1, 266830, Note_off_c, 0, 76, 65
1, 266832, Control_c, 0, 64, 119
1, 266847, Control_c, 0, 64, 120
1, 266862, Control_c, 0, 64, 121
1, 266877, Control_c, 0, 64, 122
1, 266892, Control_c, 0, 64, 125
1, 266907, Control_c, 0, 64, 127
1, 267001, Note_on_c, 0, 80, 78
1, 267006, Note_on_c, 0, 68, 86
1, 267053, Note_off_c, 0, 80, 66
1, 267109, Note_off_c, 0, 68, 60
1, 267202, Note_on_c, 0, 56, 64
1, 267204, Note_on_c, 0, 59, 60
1, 267217, Poly_aftertouch_c, 0, 80, 0
1, 267218, Note_on_c, 0, 52, 52
1, 267220, Note_on_c, 0, 47, 42
1, 267228, Note_on_c, 0, 80, 57
1, 267228, Note_on_c, 0, 83, 84
1, 267233, Note_on_c, 0, 71, 79
1, 267243, Note_on_c, 0, 76, 63
1, 267267, Note_off_c, 0, 59, 59
1, 267271, Note_off_c, 0, 47, 46
1, 267273, Note_off_c, 0, 56, 62
1, 267281, Note_off_c, 0, 71, 58
1, 267282, Note_off_c, 0, 52, 58
1, 267286, Note_off_c, 0, 83, 58
1, 267297, Note_off_c, 0, 76, 54
1, 267352, Note_on_c, 0, 56, 59
1, 267355, Note_on_c, 0, 59, 62
1, 267366, Note_on_c, 0, 47, 61
1, 267381, Note_on_c, 0, 52, 35
1, 267397, Note_off_c, 0, 59, 52
1, 267400, Note_off_c, 0, 80, 55
1, 267413, Note_off_c, 0, 56, 60
1, 267415, Note_off_c, 0, 47, 58
1, 267415, Note_off_c, 0, 52, 56
1, 267420, Note_on_c, 0, 73, 97
1, 267423, Note_on_c, 0, 85, 84
1, 267469, Note_off_c, 0, 85, 67
1, 267479, Note_off_c, 0, 73, 62
1, 267500, Note_on_c, 0, 56, 67
1, 267506, Note_on_c, 0, 59, 66
1, 267507, Note_on_c, 0, 47, 65
1, 267507, Note_on_c, 0, 52, 64
1, 267530, Note_off_c, 0, 59, 65
1, 267545, Note_off_c, 0, 47, 57
1, 267546, Note_off_c, 0, 52, 61
1, 267546, Note_off_c, 0, 56, 61
1, 267607, Note_on_c, 0, 88, 96
1, 267608, Note_on_c, 0, 76, 94
1, 267621, Note_on_c, 0, 80, 76
1, 267627, Note_on_c, 0, 59, 71
1, 267630, Note_on_c, 0, 56, 65
1, 267640, Note_on_c, 0, 47, 59
1, 267641, Note_off_c, 0, 80, 71
1, 267644, Note_off_c, 0, 76, 63
1, 267645, Note_on_c, 0, 52, 58
1, 267652, Note_off_c, 0, 59, 64
1, 267661, Note_off_c, 0, 47, 64
1, 267662, Note_off_c, 0, 88, 63
1, 267665, Note_off_c, 0, 56, 61
1, 267673, Note_off_c, 0, 52, 69
1, 267735, Note_on_c, 0, 47, 64
1, 267738, Note_on_c, 0, 56, 71
1, 267747, Note_on_c, 0, 59, 69
1, 267763, Note_on_c, 0, 52, 57
1, 267771, Note_off_c, 0, 59, 67
1, 267777, Note_off_c, 0, 47, 56
1, 267786, Note_off_c, 0, 56, 59
1, 267797, Note_on_c, 0, 80, 101
1, 267798, Note_on_c, 0, 92, 96
1, 267798, Note_off_c, 0, 52, 66
1, 267850, Note_off_c, 0, 92, 65
1, 267860, Note_off_c, 0, 80, 60
1, 267876, Note_on_c, 0, 59, 73
1, 267879, Note_on_c, 0, 56, 71
1, 267885, Note_on_c, 0, 47, 61
1, 267892, Note_on_c, 0, 52, 65
1, 267905, Note_off_c, 0, 59, 64
1, 267909, Note_on_c, 0, 92, 55
1, 267915, Note_off_c, 0, 47, 64
1, 267919, Note_off_c, 0, 56, 62
1, 267928, Note_off_c, 0, 52, 64
1, 267939, Note_off_c, 0, 92, 66
1, 267989, Note_on_c, 0, 95, 102
1, 267992, Note_on_c, 0, 83, 100
1, 267992, Note_on_c, 0, 56, 73
1, 267994, Note_on_c, 0, 88, 81
1, 267995, Note_on_c, 0, 59, 76
1, 267997, Note_on_c, 0, 92, 87
1, 268001, Note_on_c, 0, 47, 70
1, 268001, Note_on_c, 0, 52, 73
1, 268038, Note_off_c, 0, 59, 48
1, 268062, Note_off_c, 0, 47, 44
1, 268072, Note_off_c, 0, 56, 59
1, 268084, Note_off_c, 0, 52, 55
1, 268094, Note_off_c, 0, 95, 60
1, 268102, Note_off_c, 0, 83, 60
1, 268140, Note_off_c, 0, 88, 62
1, 268144, Note_off_c, 0, 92, 65
1, 268207, Note_on_c, 0, 97, 104
1, 268210, Note_on_c, 0, 85, 109
1, 268216, Note_on_c, 0, 88, 77
1, 268218, Note_on_c, 0, 92, 79
1, 268302, Note_off_c, 0, 88, 46
1, 268331, Note_off_c, 0, 92, 56
1, 268421, Note_on_c, 0, 35, 94
1, 268440, Note_off_c, 0, 97, 63
1, 268448, Note_off_c, 0, 85, 62
1, 268515, Note_on_c, 0, 95, 91
1, 268516, Note_on_c, 0, 87, 115
1, 268516, Note_on_c, 0, 99, 106
1, 268522, Note_on_c, 0, 90, 96
1, 268537, Control_c, 0, 64, 108
1, 268553, Control_c, 0, 64, 81
1, 268555, Note_on_c, 0, 94, 38
1, 268568, Control_c, 0, 64, 0
1, 268596, Note_off_c, 0, 94, 36
1, 268624, Note_off_c, 0, 90, 0
1, 268649, Control_c, 0, 64, 64
1, 268655, Note_on_c, 0, 90, 25
1, 268664, Control_c, 0, 64, 78
1, 268679, Control_c, 0, 64, 94
1, 268694, Control_c, 0, 64, 115
1, 268708, Control_c, 0, 64, 127
1, 268749, Note_off_c, 0, 35, 60
1, 268778, Note_on_c, 0, 47, 65
1, 268812, Note_off_c, 0, 47, 64
1, 268829, Note_off_c, 0, 99, 64
1, 268835, Note_off_c, 0, 95, 60
1, 268855, Note_off_c, 0, 90, 50
1, 268898, Note_on_c, 0, 42, 76
1, 268917, Note_off_c, 0, 87, 60
1, 269010, Note_on_c, 0, 54, 71
1, 269022, Note_off_c, 0, 42, 61
1, 269041, Note_off_c, 0, 54, 63
1, 269100, Note_on_c, 0, 47, 92
1, 269174, Note_off_c, 0, 47, 63
1, 269198, Note_on_c, 0, 59, 72
1, 269223, Note_off_c, 0, 59, 67
1, 269283, Note_on_c, 0, 95, 94
1, 269288, Note_on_c, 0, 83, 82
1, 269288, Note_on_c, 0, 54, 66
1, 269291, Note_on_c, 0, 87, 80
1, 269291, Note_on_c, 0, 90, 79
1, 269334, Note_off_c, 0, 83, 59
1, 269339, Note_off_c, 0, 54, 0
1, 269339, Note_on_c, 0, 54, 23
1, 269339, Note_off_c, 0, 95, 66
1, 269363, Note_off_c, 0, 87, 58
1, 269372, Note_off_c, 0, 90, 60
1, 269393, Note_on_c, 0, 66, 63
1, 269413, Note_off_c, 0, 54, 49
1, 269420, Note_off_c, 0, 66, 68
1, 269543, Note_on_c, 0, 47, 75
1, 269622, Note_off_c, 0, 47, 60
1, 269666, Note_on_c, 0, 59, 67
1, 269691, Note_off_c, 0, 59, 66
1, 269780, Note_on_c, 0, 42, 84
1, 269878, Note_on_c, 0, 54, 81
1, 269884, Note_on_c, 0, 70, 11
1, 269905, Note_off_c, 0, 70, 0
1, 269907, Note_off_c, 0, 54, 63
1, 269924, Note_on_c, 0, 70, 28
1, 269928, Note_off_c, 0, 42, 61
1, 269940, Note_on_c, 0, 63, 91
1, 269943, Note_on_c, 0, 66, 81
1, 269949, Note_on_c, 0, 71, 71
1, 269958, Note_on_c, 0, 75, 59
1, 269958, Note_off_c, 0, 63, 73
1, 269964, Note_off_c, 0, 66, 72
1, 269969, Note_off_c, 0, 70, 62
1, 269973, Note_off_c, 0, 71, 69
1, 269977, Note_off_c, 0, 75, 64
1, 270002, Note_on_c, 0, 35, 87
1, 270004, Note_on_c, 0, 75, 89
1, 270006, Control_c, 0, 64, 89
1, 270007, Note_on_c, 0, 63, 104
1, 270011, Note_on_c, 0, 66, 93
1, 270011, Note_on_c, 0, 71, 78
1, 270021, Control_c, 0, 64, 56
1, 270036, Control_c, 0, 64, 0
1, 270102, Control_c, 0, 64, 61
1, 270117, Control_c, 0, 64, 70
1, 270132, Control_c, 0, 64, 75
1, 270147, Control_c, 0, 64, 83
1, 270162, Control_c, 0, 64, 91
1, 270170, Note_off_c, 0, 35, 59
1, 270177, Control_c, 0, 64, 100
1, 270192, Control_c, 0, 64, 107
1, 270206, Note_on_c, 0, 47, 60
1, 270207, Control_c, 0, 64, 113
1, 270221, Control_c, 0, 64, 120
1, 270236, Control_c, 0, 64, 127
1, 270239, Note_off_c, 0, 47, 65
1, 270288, Note_off_c, 0, 75, 62
1, 270296, Note_off_c, 0, 71, 58
1, 270311, Note_off_c, 0, 66, 62
1, 270326, Note_off_c, 0, 63, 63
1, 270332, Note_on_c, 0, 42, 69
1, 270416, Note_off_c, 0, 42, 62
1, 270428, Note_on_c, 0, 54, 83
1, 270472, Note_off_c, 0, 54, 61
1, 270520, Note_on_c, 0, 47, 95
1, 270594, Note_on_c, 0, 59, 96
1, 270616, Note_off_c, 0, 47, 62
1, 270632, Note_off_c, 0, 59, 65
1, 270671, Note_on_c, 0, 71, 84
1, 270672, Note_on_c, 0, 66, 80
1, 270673, Note_on_c, 0, 59, 80
1, 270674, Note_on_c, 0, 63, 81
1, 270981, Note_on_c, 0, 54, 84
1, 270983, Note_on_c, 0, 42, 88
1, 271009, Note_off_c, 0, 54, 64
1, 271018, Note_off_c, 0, 42, 64
1, 271169, Note_on_c, 0, 47, 90
1, 271175, Note_on_c, 0, 35, 86
1, 271194, Note_off_c, 0, 47, 65
1, 271199, Note_on_c, 0, 45, 50
1, 271208, Note_off_c, 0, 35, 66
1, 271226, Note_off_c, 0, 45, 59
1, 271378, Note_on_c, 0, 42, 94
1, 271381, Note_on_c, 0, 30, 93
1, 271422, Note_off_c, 0, 42, 63
1, 271428, Note_off_c, 0, 59, 57
1, 271443, Note_off_c, 0, 30, 60
1, 271483, Note_off_c, 0, 63, 59
1, 271497, Note_off_c, 0, 66, 58
1, 271515, Note_off_c, 0, 71, 55
1, 271695, Note_on_c, 0, 38, 106
1, 271697, Note_on_c, 0, 26, 95
1, 271718, Control_c, 0, 64, 97
1, 271733, Control_c, 0, 64, 64
1, 271749, Control_c, 0, 64, 0
1, 271986, Control_c, 0, 64, 39
1, 272001, Control_c, 0, 64, 66
1, 272016, Control_c, 0, 64, 69
1, 272019, Note_off_c, 0, 26, 62
1, 272031, Control_c, 0, 64, 73
1, 272045, Control_c, 0, 64, 81
1, 272060, Control_c, 0, 64, 91
1, 272072, Note_off_c, 0, 38, 57
1, 272075, Control_c, 0, 64, 100
1, 272090, Control_c, 0, 64, 110
1, 272105, Control_c, 0, 64, 119
1, 272119, Control_c, 0, 64, 127
1, 272129, Note_on_c, 0, 78, 84
1, 272132, Note_on_c, 0, 69, 67
1, 272143, Note_on_c, 0, 66, 75
1, 272229, Note_off_c, 0, 69, 63
1, 272240, Note_off_c, 0, 78, 61
1, 272311, Note_off_c, 0, 66, 64
1, 272409, Note_on_c, 0, 57, 58
1, 272410, Note_on_c, 0, 54, 54
1, 272417, Note_on_c, 0, 50, 38
1, 272423, Note_on_c, 0, 45, 51
1, 272486, Note_on_c, 0, 74, 76
1, 272491, Note_on_c, 0, 62, 64
1, 272496, Note_on_c, 0, 66, 69
1, 272502, Note_on_c, 0, 69, 60
1, 272517, Note_off_c, 0, 62, 63
1, 272518, Note_off_c, 0, 45, 57
1, 272520, Note_off_c, 0, 69, 65
1, 272529, Note_off_c, 0, 57, 52
1, 272529, Note_off_c, 0, 54, 60
1, 272543, Note_off_c, 0, 66, 63
1, 272552, Note_off_c, 0, 50, 38
1, 272553, Note_off_c, 0, 74, 66
1, 272630, Note_on_c, 0, 57, 59
1, 272635, Note_on_c, 0, 54, 60
1, 272649, Note_on_c, 0, 45, 44
1, 272649, Note_on_c, 0, 68, 54
1, 272650, Note_on_c, 0, 50, 48
1, 272684, Note_off_c, 0, 68, 65
1, 272707, Note_off_c, 0, 45, 44
1, 272710, Note_off_c, 0, 50, 53
1, 272712, Note_on_c, 0, 66, 92
1, 272715, Note_on_c, 0, 78, 85
1, 272716, Note_off_c, 0, 57, 58
1, 272721, Note_off_c, 0, 54, 58
1, 272778, Note_off_c, 0, 78, 61
1, 272783, Note_off_c, 0, 66, 59
1, 272816, Note_on_c, 0, 54, 70
1, 272818, Note_on_c, 0, 45, 58
1, 272820, Note_on_c, 0, 57, 68
1, 272831, Note_on_c, 0, 50, 57
1, 272874, Note_off_c, 0, 57, 55
1, 272880, Note_off_c, 0, 50, 55
1, 272883, Note_off_c, 0, 54, 60
1, 272885, Note_off_c, 0, 45, 61
1, 272934, Note_on_c, 0, 81, 92
1, 272940, Note_on_c, 0, 69, 90
1, 272943, Note_on_c, 0, 74, 71
1, 272946, Note_on_c, 0, 78, 83
1, 272956, Note_on_c, 0, 54, 57
1, 272957, Note_on_c, 0, 57, 66
1, 272958, Note_on_c, 0, 45, 53
1, 272970, Note_on_c, 0, 50, 55
1, 273014, Note_off_c, 0, 50, 58
1, 273014, Note_off_c, 0, 57, 58
1, 273019, Note_off_c, 0, 54, 60
1, 273020, Note_off_c, 0, 45, 56
1, 273052, Note_off_c, 0, 69, 63
1, 273060, Note_off_c, 0, 81, 59
1, 273099, Note_off_c, 0, 74, 61
1, 273099, Note_off_c, 0, 78, 61
1, 273100, Note_on_c, 0, 57, 72
1, 273101, Note_on_c, 0, 54, 61
1, 273106, Note_on_c, 0, 45, 56
1, 273117, Note_on_c, 0, 50, 59
1, 273149, Note_on_c, 0, 83, 93
1, 273149, Note_on_c, 0, 71, 96
1, 273151, Note_off_c, 0, 57, 49
1, 273152, Note_on_c, 0, 74, 71
1, 273154, Note_off_c, 0, 45, 57
1, 273156, Note_on_c, 0, 78, 71
1, 273157, Note_off_c, 0, 50, 59
1, 273161, Note_off_c, 0, 54, 59
1, 273211, Note_on_c, 0, 80, 7
1, 273232, Note_off_c, 0, 71, 59
1, 273234, Note_off_c, 0, 83, 59
1, 273250, Note_on_c, 0, 57, 71
1, 273255, Note_on_c, 0, 54, 64
1, 273256, Note_on_c, 0, 45, 61
1, 273262, Note_off_c, 0, 80, 53
1, 273267, Note_on_c, 0, 50, 40
1, 273278, Note_off_c, 0, 57, 64
1, 273282, Note_off_c, 0, 54, 65
1, 273295, Note_off_c, 0, 45, 60
1, 273308, Note_off_c, 0, 50, 46
1, 273312, Note_off_c, 0, 78, 0
1, 273324, Note_on_c, 0, 81, 92
1, 273326, Note_on_c, 0, 69, 101
1, 273327, Note_on_c, 0, 78, 33
1, 273335, Note_off_c, 0, 74, 0
1, 273335, Note_on_c, 0, 74, 6
1, 273354, Note_on_c, 0, 57, 79
1, 273354, Note_off_c, 0, 74, 61
1, 273355, Note_off_c, 0, 78, 58
1, 273356, Note_on_c, 0, 54, 77
1, 273361, Note_off_c, 0, 81, 64
1, 273363, Note_on_c, 0, 45, 66
1, 273371, Note_on_c, 0, 50, 56
1, 273378, Note_off_c, 0, 57, 63
1, 273384, Note_off_c, 0, 69, 65
1, 273424, Note_off_c, 0, 50, 52
1, 273425, Note_off_c, 0, 54, 59
1, 273473, Note_off_c, 0, 45, 61
1, 273553, Note_on_c, 0, 78, 85
1, 273555, Note_on_c, 0, 66, 101
1, 273556, Note_on_c, 0, 69, 56
1, 273560, Note_on_c, 0, 74, 44
1, 273573, Note_off_c, 0, 69, 67
1, 273586, Note_off_c, 0, 74, 65
1, 273589, Note_off_c, 0, 78, 66
1, 273635, Note_off_c, 0, 66, 65
1, 273744, Note_on_c, 0, 38, 92
1, 273745, Note_on_c, 0, 26, 88
1, 273751, Control_c, 0, 64, 118
1, 273765, Control_c, 0, 64, 87
1, 273780, Control_c, 0, 64, 59
1, 273795, Control_c, 0, 64, 0
1, 273819, Note_on_c, 0, 62, 91
1, 273820, Note_on_c, 0, 66, 78
1, 273820, Note_on_c, 0, 74, 88
1, 273831, Note_on_c, 0, 69, 64
1, 273846, Control_c, 0, 64, 62
1, 273856, Note_off_c, 0, 62, 62
1, 273857, Note_off_c, 0, 26, 64
1, 273860, Note_off_c, 0, 69, 68
1, 273861, Control_c, 0, 64, 74
1, 273875, Note_off_c, 0, 66, 66
1, 273876, Control_c, 0, 64, 85
1, 273891, Control_c, 0, 64, 96
1, 273897, Note_off_c, 0, 38, 59
1, 273898, Note_off_c, 0, 74, 65
1, 273906, Control_c, 0, 64, 100
1, 273921, Control_c, 0, 64, 101
1, 273936, Control_c, 0, 64, 103
1, 273950, Control_c, 0, 64, 106
1, 273965, Control_c, 0, 64, 110
1, 273980, Control_c, 0, 64, 115
1, 273995, Control_c, 0, 64, 121
1, 274010, Control_c, 0, 64, 127
1, 274027, Note_on_c, 0, 69, 32
1, 274064, Note_off_c, 0, 69, 57
1, 274078, Note_on_c, 0, 66, 88
1, 274080, Note_on_c, 0, 78, 77
1, 274129, Note_off_c, 0, 78, 64
1, 274174, Note_off_c, 0, 66, 62
1, 274275, Note_on_c, 0, 57, 67
1, 274284, Note_on_c, 0, 54, 59
1, 274286, Note_on_c, 0, 45, 58
1, 274288, Note_on_c, 0, 50, 48
1, 274290, Note_on_c, 0, 78, 45
1, 274291, Note_on_c, 0, 81, 87
1, 274296, Note_on_c, 0, 69, 84
1, 274300, Note_on_c, 0, 74, 60
1, 274332, Note_off_c, 0, 45, 58
1, 274335, Note_off_c, 0, 54, 57
1, 274341, Note_off_c, 0, 57, 59
1, 274343, Note_off_c, 0, 50, 58
1, 274382, Note_off_c, 0, 69, 62
1, 274388, Note_off_c, 0, 81, 61
1, 274391, Note_off_c, 0, 74, 0
1, 274408, Note_off_c, 0, 78, 59
1, 274424, Note_on_c, 0, 57, 66
1, 274425, Note_on_c, 0, 54, 65
1, 274430, Note_on_c, 0, 50, 51
1, 274446, Note_on_c, 0, 45, 48
1, 274466, Note_off_c, 0, 57, 51
1, 274478, Note_off_c, 0, 45, 53
1, 274479, Poly_aftertouch_c, 0, 74, 0
1, 274484, Note_off_c, 0, 54, 55
1, 274485, Note_off_c, 0, 50, 56
1, 274490, Note_on_c, 0, 83, 84
1, 274492, Note_on_c, 0, 71, 84
1, 274493, Note_on_c, 0, 74, 38
1, 274496, Note_on_c, 0, 78, 82
1, 274520, Note_off_c, 0, 74, 58
1, 274520, Note_off_c, 0, 71, 59
1, 274541, Note_off_c, 0, 78, 63
1, 274541, Note_off_c, 0, 83, 58
1, 274585, Note_on_c, 0, 45, 62
1, 274585, Note_on_c, 0, 57, 74
1, 274593, Note_on_c, 0, 54, 72
1, 274597, Note_on_c, 0, 50, 62
1, 274636, Note_off_c, 0, 54, 54
1, 274637, Note_off_c, 0, 50, 59
1, 274639, Note_off_c, 0, 45, 58
1, 274639, Note_off_c, 0, 57, 57
1, 274642, Note_on_c, 0, 81, 45
1, 274666, Note_off_c, 0, 81, 50
1, 274693, Note_on_c, 0, 86, 93
1, 274696, Note_on_c, 0, 74, 90
1, 274698, Note_on_c, 0, 78, 87
1, 274714, Note_off_c, 0, 74, 68
1, 274718, Note_on_c, 0, 57, 73
1, 274721, Note_on_c, 0, 54, 72
1, 274722, Note_on_c, 0, 50, 64
1, 274733, Note_on_c, 0, 45, 54
1, 274737, Note_off_c, 0, 78, 62
1, 274740, Note_off_c, 0, 86, 66
1, 274748, Note_off_c, 0, 57, 61
1, 274763, Note_off_c, 0, 50, 55
1, 274764, Note_off_c, 0, 54, 60
1, 274767, Note_off_c, 0, 45, 50
1, 274826, Note_on_c, 0, 80, 23
1, 274838, Note_on_c, 0, 57, 77
1, 274843, Note_on_c, 0, 50, 64
1, 274843, Note_on_c, 0, 54, 74
1, 274848, Note_on_c, 0, 45, 68
1, 274862, Note_off_c, 0, 80, 42
1, 274873, Note_off_c, 0, 57, 58
1, 274877, Note_off_c, 0, 54, 49
1, 274892, Note_on_c, 0, 78, 99
1, 274892, Note_on_c, 0, 90, 94
1, 274895, Note_off_c, 0, 45, 59
1, 274895, Note_on_c, 0, 81, 62
1, 274905, Note_on_c, 0, 86, 62
1, 274905, Note_off_c, 0, 50, 58
1, 274913, Note_off_c, 0, 81, 61
1, 274928, Note_off_c, 0, 86, 64
1, 274943, Note_off_c, 0, 78, 66
1, 274946, Note_off_c, 0, 90, 65
1, 274979, Note_on_c, 0, 45, 73
1, 274979, Note_on_c, 0, 50, 66
1, 274981, Note_on_c, 0, 57, 74
1, 274982, Note_on_c, 0, 54, 75
1, 275013, Note_off_c, 0, 57, 56
1, 275021, Note_off_c, 0, 54, 58
1, 275030, Note_off_c, 0, 45, 57
1, 275039, Note_off_c, 0, 50, 60
1, 275076, Poly_aftertouch_c, 0, 86, 0
1, 275089, Note_on_c, 0, 86, 59
1, 275091, Note_on_c, 0, 93, 99
1, 275094, Note_on_c, 0, 81, 104
1, 275100, Note_on_c, 0, 90, 85
1, 275102, Note_on_c, 0, 57, 83
1, 275106, Note_on_c, 0, 54, 81
1, 275108, Note_on_c, 0, 50, 68
1, 275115, Note_on_c, 0, 45, 68
1, 275176, Note_off_c, 0, 57, 55
1, 275211, Note_off_c, 0, 54, 58
1, 275218, Note_off_c, 0, 50, 57
1, 275228, Note_off_c, 0, 81, 57
1, 275243, Note_off_c, 0, 45, 61
1, 275248, Note_off_c, 0, 86, 63
1, 275251, Note_off_c, 0, 90, 62
1, 275252, Note_off_c, 0, 93, 60
1, 275332, Note_on_c, 0, 95, 97
1, 275334, Note_on_c, 0, 83, 102
1, 275339, Note_on_c, 0, 90, 85
1, 275342, Note_on_c, 0, 86, 75
1, 275363, Note_off_c, 0, 86, 69
1, 275426, Note_off_c, 0, 83, 59
1, 275437, Note_off_c, 0, 90, 64
1, 275443, Note_off_c, 0, 95, 58
1, 275527, Note_on_c, 0, 33, 94
1, 275620, Note_on_c, 0, 97, 98
1, 275622, Note_on_c, 0, 85, 111
1, 275623, Note_on_c, 0, 88, 93
1, 275626, Note_on_c, 0, 92, 52
1, 275627, Note_on_c, 0, 93, 91
1, 275641, Control_c, 0, 64, 92
1, 275644, Note_on_c, 0, 96, 61
1, 275655, Control_c, 0, 64, 66
1, 275670, Control_c, 0, 64, 0
1, 275675, Note_on_c, 0, 84, 35
1, 275706, Note_off_c, 0, 84, 49
1, 275727, Note_off_c, 0, 97, 39
1, 275734, Note_off_c, 0, 96, 65
1, 275760, Control_c, 0, 64, 69
1, 275775, Control_c, 0, 64, 84
1, 275790, Control_c, 0, 64, 97
1, 275805, Control_c, 0, 64, 105
1, 275819, Control_c, 0, 64, 111
1, 275824, Note_off_c, 0, 33, 62
1, 275834, Control_c, 0, 64, 118
1, 275842, Note_on_c, 0, 45, 65
1, 275849, Control_c, 0, 64, 127
1, 275858, Note_off_c, 0, 92, 28
1, 275865, Note_on_c, 0, 97, 33
1, 275885, Note_off_c, 0, 45, 63
1, 275900, Note_off_c, 0, 97, 49
1, 275900, Note_off_c, 0, 85, 0
1, 275900, Note_on_c, 0, 85, 5
1, 275925, Note_off_c, 0, 93, 54
1, 275940, Note_off_c, 0, 88, 56
1, 275958, Note_on_c, 0, 40, 74
1, 276006, Note_off_c, 0, 85, 57
1, 276078, Note_off_c, 0, 40, 60
1, 276085, Note_on_c, 0, 52, 76
1, 276135, Note_off_c, 0, 52, 64
1, 276186, Note_on_c, 0, 45, 87
1, 276293, Note_on_c, 0, 57, 83
1, 276306, Note_off_c, 0, 45, 62
1, 276347, Note_off_c, 0, 57, 63
1, 276416, Note_on_c, 0, 93, 95
1, 276417, Note_on_c, 0, 52, 63
1, 276419, Note_on_c, 0, 81, 93
1, 276422, Note_on_c, 0, 88, 82
1, 276422, Note_on_c, 0, 85, 82
1, 276443, Note_on_c, 0, 50, 32
1, 276455, Note_off_c, 0, 81, 62
1, 276460, Note_off_c, 0, 93, 61
1, 276478, Note_off_c, 0, 50, 55
1, 276486, Note_off_c, 0, 88, 63
1, 276499, Note_off_c, 0, 85, 62
1, 276521, Note_on_c, 0, 64, 62
1, 276525, Note_off_c, 0, 52, 64
1, 276555, Note_off_c, 0, 64, 66
1, 276678, Note_on_c, 0, 45, 69
1, 276772, Note_off_c, 0, 45, 60
1, 276797, Note_on_c, 0, 57, 77
1, 276836, Note_off_c, 0, 57, 60
1, 276931, Note_on_c, 0, 40, 81
1, 277033, Note_on_c, 0, 52, 79
1, 277057, Note_off_c, 0, 40, 62
1, 277059, Note_off_c, 0, 52, 68
1, 277080, Note_on_c, 0, 61, 91
1, 277084, Note_on_c, 0, 64, 80
1, 277086, Note_on_c, 0, 69, 77
1, 277087, Note_on_c, 0, 73, 80
1, 277100, Note_off_c, 0, 61, 70
1, 277107, Note_off_c, 0, 64, 69
1, 277109, Control_c, 0, 64, 118
1, 277110, Note_off_c, 0, 69, 70
1, 277112, Note_off_c, 0, 73, 65
1, 277123, Control_c, 0, 64, 84
1, 277138, Control_c, 0, 64, 0
1, 277149, Note_on_c, 0, 73, 91
1, 277152, Note_on_c, 0, 61, 100
1, 277155, Note_on_c, 0, 64, 91
1, 277155, Note_on_c, 0, 33, 77
1, 277159, Note_on_c, 0, 69, 79
1, 277227, Control_c, 0, 64, 62
1, 277241, Control_c, 0, 64, 72
1, 277256, Control_c, 0, 64, 77
1, 277271, Control_c, 0, 64, 79
1, 277286, Control_c, 0, 64, 82
1, 277299, Note_off_c, 0, 33, 58
1, 277301, Control_c, 0, 64, 86
1, 277316, Control_c, 0, 64, 90
1, 277320, Note_on_c, 0, 45, 68
1, 277331, Control_c, 0, 64, 96
1, 277346, Control_c, 0, 64, 102
1, 277358, Note_off_c, 0, 45, 66
1, 277361, Control_c, 0, 64, 108
1, 277376, Control_c, 0, 64, 113
1, 277390, Control_c, 0, 64, 117
1, 277396, Note_off_c, 0, 69, 61
1, 277400, Note_off_c, 0, 73, 60
1, 277405, Control_c, 0, 64, 121
1, 277408, Note_off_c, 0, 64, 60
1, 277420, Control_c, 0, 64, 123
1, 277434, Note_on_c, 0, 40, 73
1, 277435, Control_c, 0, 64, 125
1, 277445, Note_off_c, 0, 61, 59
1, 277450, Control_c, 0, 64, 127
1, 277519, Note_off_c, 0, 40, 60
1, 277528, Note_on_c, 0, 52, 77
1, 277587, Note_off_c, 0, 52, 65
1, 277631, Note_on_c, 0, 45, 87
1, 277708, Note_on_c, 0, 57, 92
1, 277727, Note_off_c, 0, 45, 64
1, 277748, Note_off_c, 0, 57, 65
1, 277826, Note_on_c, 0, 69, 84
1, 277830, Note_on_c, 0, 64, 74
1, 277831, Note_on_c, 0, 57, 82
1, 277834, Note_on_c, 0, 61, 76
1, 278091, Note_on_c, 0, 52, 92
1, 278099, Note_on_c, 0, 40, 92
1, 278119, Note_off_c, 0, 52, 62
1, 278139, Note_off_c, 0, 40, 61
1, 278297, Note_on_c, 0, 45, 92
1, 278308, Note_on_c, 0, 33, 91
1, 278350, Note_off_c, 0, 45, 62
1, 278368, Note_off_c, 0, 33, 61
1, 278425, Note_off_c, 0, 57, 50
1, 278440, Note_off_c, 0, 61, 55
1, 278453, Note_off_c, 0, 64, 61
1, 278512, Note_on_c, 0, 40, 98
1, 278515, Note_on_c, 0, 28, 96
1, 278528, Note_off_c, 0, 69, 55
1, 278571, Note_off_c, 0, 40, 61
1, 278613, Note_off_c, 0, 28, 59
1, 278753, Control_c, 0, 64, 106
1, 278768, Control_c, 0, 64, 81
1, 278782, Control_c, 0, 64, 0
1, 278802, Note_on_c, 0, 36, 104
1, 278803, Note_on_c, 0, 24, 102
1, 279064, Note_off_c, 0, 24, 63
1, 279088, Control_c, 0, 64, 67
1, 279101, Note_off_c, 0, 36, 58
1, 279103, Control_c, 0, 64, 70
1, 279117, Control_c, 0, 64, 72
1, 279128, Note_on_c, 0, 76, 88
1, 279129, Note_on_c, 0, 67, 80
1, 279132, Control_c, 0, 64, 74
1, 279133, Note_on_c, 0, 64, 81
1, 279134, Note_on_c, 0, 72, 74
1, 279147, Control_c, 0, 64, 78
1, 279161, Control_c, 0, 64, 85
1, 279176, Control_c, 0, 64, 90
1, 279191, Control_c, 0, 64, 95
1, 279206, Control_c, 0, 64, 97
1, 279221, Control_c, 0, 64, 99
1, 279236, Control_c, 0, 64, 100
1, 279243, Note_off_c, 0, 76, 60
1, 279250, Control_c, 0, 64, 101
1, 279265, Control_c, 0, 64, 101
1, 279266, Note_off_c, 0, 72, 60
1, 279274, Note_off_c, 0, 67, 59
1, 279278, Note_off_c, 0, 64, 58
1, 279280, Control_c, 0, 64, 102
1, 279295, Control_c, 0, 64, 103
1, 279310, Control_c, 0, 64, 105
1, 279325, Control_c, 0, 64, 107
1, 279340, Control_c, 0, 64, 108
1, 279354, Control_c, 0, 64, 110
1, 279369, Control_c, 0, 64, 111
1, 279384, Control_c, 0, 64, 112
1, 279399, Control_c, 0, 64, 113
1, 279414, Control_c, 0, 64, 113
1, 279429, Control_c, 0, 64, 114
1, 279433, Note_on_c, 0, 48, 50
1, 279433, Note_on_c, 0, 55, 58
1, 279434, Note_on_c, 0, 72, 78
1, 279436, Note_on_c, 0, 60, 76
1, 279440, Note_on_c, 0, 43, 45
1, 279442, Note_on_c, 0, 52, 51
1, 279442, Note_on_c, 0, 64, 63
1, 279444, Control_c, 0, 64, 115
1, 279446, Note_on_c, 0, 67, 61
1, 279459, Control_c, 0, 64, 115
1, 279474, Control_c, 0, 64, 117
1, 279489, Control_c, 0, 64, 118
1, 279492, Note_off_c, 0, 52, 59
1, 279492, Note_off_c, 0, 55, 56
1, 279503, Note_off_c, 0, 48, 62
1, 279503, Control_c, 0, 64, 120
1, 279516, Note_off_c, 0, 60, 56
1, 279518, Control_c, 0, 64, 122
1, 279521, Note_off_c, 0, 43, 32
1, 279533, Control_c, 0, 64, 126
1, 279544, Note_off_c, 0, 64, 60
1, 279548, Control_c, 0, 64, 127
1, 279553, Note_off_c, 0, 67, 59
1, 279559, Note_off_c, 0, 72, 59
1, 279596, Note_on_c, 0, 48, 47
1, 279596, Note_on_c, 0, 55, 57
1, 279599, Note_on_c, 0, 52, 57
1, 279602, Note_on_c, 0, 43, 48
1, 279651, Note_off_c, 0, 55, 59
1, 279654, Note_off_c, 0, 52, 51
1, 279656, Note_off_c, 0, 48, 56
1, 279668, Note_off_c, 0, 43, 49
1, 279676, Note_on_c, 0, 76, 83
1, 279677, Note_on_c, 0, 64, 79
1, 279678, Note_on_c, 0, 67, 75
1, 279686, Note_on_c, 0, 72, 69
1, 279750, Note_off_c, 0, 64, 58
1, 279761, Note_off_c, 0, 67, 59
1, 279777, Note_on_c, 0, 52, 69
1, 279778, Note_on_c, 0, 55, 67
1, 279778, Note_off_c, 0, 72, 60
1, 279780, Note_on_c, 0, 43, 57
1, 279784, Note_on_c, 0, 48, 55
1, 279811, Note_off_c, 0, 76, 65
1, 279847, Note_off_c, 0, 55, 63
1, 279851, Note_off_c, 0, 43, 58
1, 279856, Note_off_c, 0, 52, 62
1, 279873, Note_off_c, 0, 48, 63
1, 279897, Control_c, 0, 64, 104
1, 279907, Note_on_c, 0, 79, 90
1, 279909, Note_on_c, 0, 67, 91
1, 279910, Note_on_c, 0, 76, 84
1, 279911, Note_on_c, 0, 72, 82
1, 279912, Control_c, 0, 64, 85
1, 279927, Control_c, 0, 64, 71
1, 279930, Note_on_c, 0, 55, 69
1, 279933, Note_on_c, 0, 48, 45
1, 279935, Note_on_c, 0, 52, 58
1, 279941, Control_c, 0, 64, 65
1, 279946, Note_on_c, 0, 43, 54
1, 279956, Control_c, 0, 64, 67
1, 279971, Control_c, 0, 64, 72
1, 279981, Note_off_c, 0, 55, 63
1, 279984, Note_off_c, 0, 52, 62
1, 279985, Control_c, 0, 64, 79
1, 280000, Control_c, 0, 64, 86
1, 280002, Note_off_c, 0, 48, 63
1, 280013, Note_off_c, 0, 43, 43
1, 280015, Control_c, 0, 64, 92
1, 280024, Note_off_c, 0, 67, 58
1, 280030, Control_c, 0, 64, 98
1, 280038, Note_off_c, 0, 79, 59
1, 280040, Note_off_c, 0, 72, 63
1, 280045, Control_c, 0, 64, 105
1, 280051, Note_off_c, 0, 76, 65
1, 280059, Control_c, 0, 64, 113
1, 280064, Note_on_c, 0, 55, 72
1, 280069, Note_on_c, 0, 48, 51
1, 280070, Note_on_c, 0, 52, 68
1, 280074, Control_c, 0, 64, 123
1, 280078, Note_on_c, 0, 43, 52
1, 280089, Control_c, 0, 64, 127
1, 280115, Note_off_c, 0, 55, 61
1, 280115, Note_off_c, 0, 52, 54
1, 280122, Note_on_c, 0, 81, 98
1, 280124, Note_on_c, 0, 69, 100
1, 280129, Note_on_c, 0, 76, 81
1, 280131, Note_on_c, 0, 72, 87
1, 280132, Note_off_c, 0, 43, 57
1, 280133, Note_off_c, 0, 48, 61
1, 280209, Note_on_c, 0, 55, 71
1, 280216, Note_on_c, 0, 48, 55
1, 280217, Note_on_c, 0, 52, 69
1, 280225, Note_off_c, 0, 81, 57
1, 280228, Note_on_c, 0, 43, 51
1, 280228, Note_off_c, 0, 76, 63
1, 280230, Note_off_c, 0, 69, 61
1, 280230, Note_off_c, 0, 72, 61
1, 280237, Note_off_c, 0, 55, 64
1, 280242, Note_off_c, 0, 52, 69
1, 280260, Note_off_c, 0, 43, 59
1, 280263, Note_off_c, 0, 48, 62
1, 280319, Note_on_c, 0, 67, 103
1, 280322, Note_on_c, 0, 79, 90
1, 280325, Note_on_c, 0, 76, 85
1, 280326, Note_on_c, 0, 72, 91
1, 280327, Note_on_c, 0, 55, 79
1, 280335, Note_on_c, 0, 52, 70
1, 280338, Note_on_c, 0, 43, 58
1, 280338, Note_on_c, 0, 48, 54
1, 280354, Note_off_c, 0, 55, 66
1, 280362, Note_off_c, 0, 52, 69
1, 280385, Note_off_c, 0, 48, 60
1, 280419, Note_off_c, 0, 72, 61
1, 280419, Note_off_c, 0, 43, 59
1, 280419, Note_off_c, 0, 79, 60
1, 280428, Note_off_c, 0, 76, 63
1, 280437, Note_off_c, 0, 67, 58
1, 280537, Note_on_c, 0, 64, 94
1, 280538, Note_on_c, 0, 76, 89
1, 280539, Note_on_c, 0, 67, 89
1, 280546, Note_on_c, 0, 72, 75
1, 280669, Note_off_c, 0, 76, 60
1, 280681, Note_off_c, 0, 72, 61
1, 280694, Note_off_c, 0, 67, 57
1, 280697, Note_off_c, 0, 64, 60
1, 280762, Note_on_c, 0, 24, 90
1, 280762, Note_on_c, 0, 36, 90
1, 280794, Control_c, 0, 64, 99
1, 280808, Control_c, 0, 64, 74
1, 280821, Note_on_c, 0, 72, 90
1, 280822, Note_on_c, 0, 60, 94
1, 280823, Control_c, 0, 64, 0
1, 280826, Note_on_c, 0, 64, 83
1, 280830, Note_on_c, 0, 67, 81
1, 280859, Note_off_c, 0, 24, 62
1, 280882, Control_c, 0, 64, 55
1, 280897, Control_c, 0, 64, 68
1, 280903, Note_off_c, 0, 36, 59
1, 280912, Control_c, 0, 64, 75
1, 280927, Control_c, 0, 64, 85
1, 280941, Control_c, 0, 64, 94
1, 280956, Control_c, 0, 64, 100
1, 280962, Note_off_c, 0, 60, 51
1, 280971, Control_c, 0, 64, 104
1, 280986, Control_c, 0, 64, 108
1, 281001, Control_c, 0, 64, 111
1, 281003, Note_off_c, 0, 64, 60
1, 281003, Note_off_c, 0, 67, 57
1, 281015, Control_c, 0, 64, 113
1, 281026, Note_off_c, 0, 72, 60
1, 281030, Control_c, 0, 64, 116
1, 281045, Control_c, 0, 64, 118
1, 281060, Control_c, 0, 64, 121
1, 281075, Control_c, 0, 64, 125
1, 281090, Control_c, 0, 64, 127
1, 281111, Note_on_c, 0, 67, 86
1, 281115, Note_on_c, 0, 64, 84
1, 281120, Note_on_c, 0, 76, 82
1, 281125, Note_on_c, 0, 72, 71
1, 281176, Note_off_c, 0, 64, 56
1, 281197, Note_off_c, 0, 67, 58
1, 281216, Note_off_c, 0, 72, 62
1, 281236, Note_off_c, 0, 76, 65
1, 281304, Control_c, 0, 64, 113
1, 281319, Control_c, 0, 64, 91
1, 281325, Note_on_c, 0, 79, 90
1, 281326, Note_on_c, 0, 55, 73
1, 281326, Note_on_c, 0, 67, 91
1, 281331, Note_on_c, 0, 52, 67
1, 281332, Note_on_c, 0, 76, 78
1, 281335, Control_c, 0, 64, 73
1, 281337, Note_on_c, 0, 72, 72
1, 281338, Note_on_c, 0, 43, 60
1, 281338, Note_on_c, 0, 48, 60
1, 281350, Control_c, 0, 64, 63
1, 281365, Control_c, 0, 64, 66
1, 281373, Note_off_c, 0, 55, 63
1, 281379, Control_c, 0, 64, 72
1, 281385, Note_off_c, 0, 52, 64
1, 281389, Note_off_c, 0, 43, 57
1, 281391, Note_off_c, 0, 48, 60
1, 281394, Control_c, 0, 64, 82
1, 281409, Control_c, 0, 64, 92
1, 281412, Note_off_c, 0, 67, 59
1, 281424, Control_c, 0, 64, 99
1, 281430, Note_off_c, 0, 72, 62
1, 281438, Control_c, 0, 64, 105
1, 281442, Note_off_c, 0, 76, 65
1, 281448, Note_off_c, 0, 79, 60
1, 281453, Control_c, 0, 64, 108
1, 281465, Note_on_c, 0, 52, 72
1, 281467, Note_on_c, 0, 55, 76
1, 281468, Control_c, 0, 64, 111
1, 281474, Note_on_c, 0, 43, 63
1, 281480, Note_on_c, 0, 48, 61
1, 281483, Control_c, 0, 64, 113
1, 281498, Control_c, 0, 64, 115
1, 281513, Control_c, 0, 64, 117
1, 281516, Note_off_c, 0, 55, 63
1, 281527, Note_off_c, 0, 52, 62
1, 281528, Control_c, 0, 64, 119
1, 281530, Note_on_c, 0, 83, 84
1, 281531, Note_on_c, 0, 71, 90
1, 281534, Note_on_c, 0, 76, 86
1, 281537, Note_on_c, 0, 79, 72
1, 281537, Note_off_c, 0, 43, 55
1, 281543, Control_c, 0, 64, 121
1, 281544, Note_off_c, 0, 48, 63
1, 281557, Control_c, 0, 64, 123
1, 281564, Note_on_c, 0, 77, 42
1, 281565, Note_off_c, 0, 77, 127
1, 281572, Control_c, 0, 64, 124
1, 281579, Note_on_c, 0, 81, 12
1, 281580, Note_off_c, 0, 81, 127
1, 281587, Control_c, 0, 64, 127
1, 281609, Note_on_c, 0, 52, 70
1, 281611, Note_on_c, 0, 55, 71
1, 281612, Note_on_c, 0, 48, 54
1, 281620, Note_on_c, 0, 43, 54
1, 281620, Note_off_c, 0, 71, 57
1, 281635, Note_off_c, 0, 76, 64
1, 281638, Note_off_c, 0, 55, 64
1, 281647, Note_off_c, 0, 83, 60
1, 281650, Note_off_c, 0, 79, 61
1, 281656, Note_off_c, 0, 52, 64
1, 281662, Note_off_c, 0, 43, 58
1, 281668, Note_off_c, 0, 48, 63
1, 281691, Control_c, 0, 64, 105
1, 281705, Control_c, 0, 64, 80
1, 281720, Control_c, 0, 64, 0
1, 281721, Note_on_c, 0, 84, 94
1, 281723, Note_on_c, 0, 72, 95
1, 281726, Note_on_c, 0, 76, 90
1, 281726, Note_on_c, 0, 79, 79
1, 281737, Note_on_c, 0, 55, 77
1, 281740, Note_on_c, 0, 48, 59
1, 281740, Note_on_c, 0, 52, 69
1, 281742, Note_on_c, 0, 43, 65
1, 281764, Control_c, 0, 64, 63
1, 281767, Note_off_c, 0, 55, 60
1, 281779, Control_c, 0, 64, 74
1, 281786, Note_off_c, 0, 52, 56
1, 281789, Note_off_c, 0, 43, 55
1, 281794, Control_c, 0, 64, 86
1, 281795, Note_off_c, 0, 48, 61
1, 281805, Note_off_c, 0, 72, 62
1, 281809, Control_c, 0, 64, 97
1, 281823, Note_off_c, 0, 76, 66
1, 281824, Control_c, 0, 64, 104
1, 281827, Note_off_c, 0, 79, 60
1, 281838, Control_c, 0, 64, 106
1, 281844, Note_off_c, 0, 84, 62
1, 281853, Control_c, 0, 64, 108
1, 281868, Control_c, 0, 64, 110
1, 281869, Note_on_c, 0, 52, 72
1, 281869, Note_on_c, 0, 55, 74
1, 281872, Note_on_c, 0, 43, 58
1, 281872, Note_on_c, 0, 48, 61
1, 281883, Control_c, 0, 64, 112
1, 281898, Control_c, 0, 64, 115
1, 281902, Note_off_c, 0, 55, 58
1, 281912, Control_c, 0, 64, 119
1, 281924, Note_on_c, 0, 88, 90
1, 281924, Note_on_c, 0, 76, 99
1, 281925, Note_off_c, 0, 52, 61
1, 281927, Control_c, 0, 64, 123
1, 281928, Note_on_c, 0, 79, 82
1, 281939, Note_off_c, 0, 43, 44
1, 281940, Note_on_c, 0, 86, 73
1, 281942, Control_c, 0, 64, 127
1, 281945, Note_on_c, 0, 77, 56
1, 281946, Note_off_c, 0, 77, 127
1, 281958, Note_on_c, 0, 84, 42
1, 281959, Note_off_c, 0, 86, 41
1, 281963, Note_on_c, 0, 83, 50
1, 281969, Note_off_c, 0, 48, 0
1, 281976, Note_off_c, 0, 76, 58
1, 281994, Note_on_c, 0, 48, 37
1, 281998, Note_off_c, 0, 83, 55
1, 282000, Note_on_c, 0, 52, 64
1, 282002, Note_on_c, 0, 55, 70
1, 282005, Note_off_c, 0, 79, 62
1, 282008, Note_on_c, 0, 43, 46
1, 282008, Note_off_c, 0, 84, 59
1, 282029, Note_off_c, 0, 88, 63
1, 282042, Note_off_c, 0, 55, 62
1, 282069, Note_off_c, 0, 52, 64
1, 282076, Note_off_c, 0, 43, 53
1, 282085, Note_off_c, 0, 48, 65
1, 282131, Poly_aftertouch_c, 0, 48, 0
1, 282132, Note_on_c, 0, 79, 98
1, 282133, Note_on_c, 0, 91, 103
1, 282136, Note_on_c, 0, 88, 86
1, 282139, Note_on_c, 0, 52, 70
1, 282140, Note_on_c, 0, 48, 57
1, 282141, Note_on_c, 0, 84, 75
1, 282144, Note_on_c, 0, 55, 77
1, 282152, Note_on_c, 0, 86, 59
1, 282153, Note_on_c, 0, 43, 60
1, 282180, Note_off_c, 0, 86, 47
1, 282198, Note_off_c, 0, 79, 45
1, 282233, Note_off_c, 0, 84, 49
1, 282234, Note_off_c, 0, 55, 57
1, 282236, Note_off_c, 0, 52, 63
1, 282263, Note_off_c, 0, 88, 61
1, 282266, Note_off_c, 0, 91, 58
1, 282274, Note_off_c, 0, 48, 63
1, 282288, Note_off_c, 0, 43, 60
1, 282363, Note_on_c, 0, 84, 101
1, 282363, Note_on_c, 0, 96, 101
1, 282367, Note_on_c, 0, 88, 92
1, 282371, Note_on_c, 0, 91, 82
1, 282395, Note_off_c, 0, 91, 59
1, 282441, Note_off_c, 0, 88, 61
1, 282544, Note_off_c, 0, 96, 57
1, 282559, Note_off_c, 0, 84, 60
1, 282574, Note_on_c, 0, 29, 97
1, 282632, Control_c, 0, 64, 91
1, 282645, Note_on_c, 0, 96, 102
1, 282647, Control_c, 0, 64, 64
1, 282648, Note_on_c, 0, 92, 106
1, 282654, Note_on_c, 0, 84, 86
1, 282656, Note_on_c, 0, 83, 88
1, 282658, Note_on_c, 0, 89, 78
1, 282660, Note_on_c, 0, 88, 76
1, 282661, Control_c, 0, 64, 0
1, 282726, Note_off_c, 0, 83, 58
1, 282739, Note_off_c, 0, 88, 56
1, 282765, Control_c, 0, 64, 70
1, 282780, Control_c, 0, 64, 78
1, 282795, Control_c, 0, 64, 87
1, 282817, Control_c, 0, 64, 90
1, 282832, Control_c, 0, 64, 93
1, 282833, Note_off_c, 0, 29, 60
1, 282847, Control_c, 0, 64, 95
1, 282857, Note_on_c, 0, 41, 66
1, 282861, Control_c, 0, 64, 96
1, 282876, Control_c, 0, 64, 98
1, 282891, Control_c, 0, 64, 99
1, 282893, Note_off_c, 0, 41, 66
1, 282905, Control_c, 0, 64, 100
1, 282920, Control_c, 0, 64, 101
1, 282937, Control_c, 0, 64, 103
1, 282952, Control_c, 0, 64, 106
1, 282966, Control_c, 0, 64, 112
1, 282968, Note_on_c, 0, 36, 74
1, 282981, Control_c, 0, 64, 118
1, 282996, Control_c, 0, 64, 127
1, 283064, Note_off_c, 0, 96, 59
1, 283078, Note_off_c, 0, 89, 62
1, 283078, Note_off_c, 0, 92, 62
1, 283080, Note_off_c, 0, 36, 62
1, 283087, Note_on_c, 0, 48, 74
1, 283120, Note_off_c, 0, 48, 67
1, 283173, Note_off_c, 0, 84, 57
1, 283173, Note_on_c, 0, 41, 89
1, 283263, Note_on_c, 0, 53, 80
1, 283269, Note_off_c, 0, 41, 64
1, 283282, Poly_aftertouch_c, 0, 44, 0
1, 283308, Note_off_c, 0, 53, 64
1, 283336, Control_c, 0, 64, 119
1, 283351, Control_c, 0, 64, 99
1, 283366, Control_c, 0, 64, 80
1, 283377, Note_on_c, 0, 92, 95
1, 283381, Note_on_c, 0, 48, 60
1, 283381, Control_c, 0, 64, 53
1, 283382, Note_on_c, 0, 80, 87
1, 283388, Note_on_c, 0, 89, 65
1, 283396, Control_c, 0, 64, 0
1, 283425, Control_c, 0, 64, 51
1, 283440, Control_c, 0, 64, 67
1, 283442, Note_off_c, 0, 80, 59
1, 283448, Note_off_c, 0, 89, 59
1, 283450, Note_off_c, 0, 92, 64
1, 283455, Control_c, 0, 64, 74
1, 283459, Note_on_c, 0, 60, 61
1, 283470, Control_c, 0, 64, 84
1, 283484, Control_c, 0, 64, 91
1, 283486, Note_off_c, 0, 48, 46
1, 283490, Note_off_c, 0, 60, 65
1, 283499, Control_c, 0, 64, 96
1, 283514, Control_c, 0, 64, 101
1, 283528, Control_c, 0, 64, 106
1, 283543, Control_c, 0, 64, 110
1, 283566, Control_c, 0, 64, 115
1, 283581, Control_c, 0, 64, 118
1, 283596, Control_c, 0, 64, 120
1, 283617, Note_on_c, 0, 41, 65
1, 283625, Control_c, 0, 64, 120
1, 283699, Note_off_c, 0, 41, 59
1, 283716, Note_on_c, 0, 53, 68
1, 283747, Note_off_c, 0, 53, 67
1, 283775, Control_c, 0, 64, 121
1, 283789, Control_c, 0, 64, 124
1, 283804, Control_c, 0, 64, 127
1, 283831, Note_on_c, 0, 36, 73
1, 283930, Note_on_c, 0, 48, 62
1, 283934, Note_off_c, 0, 36, 37
1, 283942, Poly_aftertouch_c, 0, 65, 0
1, 283952, Note_off_c, 0, 48, 67
1, 283988, Note_on_c, 0, 60, 78
1, 283989, Note_on_c, 0, 68, 76
1, 283991, Note_on_c, 0, 72, 69
1, 283993, Note_on_c, 0, 65, 60
1, 284009, Note_off_c, 0, 60, 70
1, 284017, Note_off_c, 0, 72, 70
1, 284026, Note_off_c, 0, 65, 66
1, 284026, Control_c, 0, 64, 100
1, 284032, Note_off_c, 0, 68, 63
1, 284041, Control_c, 0, 64, 75
1, 284056, Control_c, 0, 64, 0
1, 284074, Note_on_c, 0, 29, 50
1, 284081, Note_on_c, 0, 68, 68
1, 284081, Note_on_c, 0, 73, 85
1, 284088, Note_on_c, 0, 61, 65
1, 284096, Note_on_c, 0, 65, 62
1, 284144, Control_c, 0, 64, 63
1, 284159, Control_c, 0, 64, 68
1, 284174, Control_c, 0, 64, 71
1, 284187, Note_off_c, 0, 29, 41
1, 284189, Control_c, 0, 64, 75
1, 284204, Control_c, 0, 64, 80
1, 284211, Note_on_c, 0, 41, 58
1, 284218, Control_c, 0, 64, 86
1, 284233, Control_c, 0, 64, 92
1, 284245, Note_off_c, 0, 41, 66
1, 284248, Control_c, 0, 64, 97
1, 284263, Control_c, 0, 64, 100
1, 284278, Control_c, 0, 64, 103
1, 284293, Control_c, 0, 64, 105
1, 284312, Note_on_c, 0, 30, 57
1, 284315, Control_c, 0, 64, 106
1, 284330, Control_c, 0, 64, 107
1, 284345, Control_c, 0, 64, 108
1, 284392, Note_off_c, 0, 30, 61
1, 284393, Note_on_c, 0, 42, 62
1, 284443, Note_off_c, 0, 42, 60
1, 284443, Note_off_c, 0, 73, 61
1, 284458, Note_off_c, 0, 65, 60
1, 284470, Note_off_c, 0, 68, 61
1, 284479, Note_on_c, 0, 31, 67
1, 284537, Note_off_c, 0, 31, 61
1, 284541, Note_on_c, 0, 43, 66
1, 284546, Note_off_c, 0, 61, 55
1, 284585, Note_off_c, 0, 43, 62
1, 284616, Note_on_c, 0, 32, 76
1, 284671, Control_c, 0, 64, 108
1, 284676, Note_on_c, 0, 44, 71
1, 284686, Control_c, 0, 64, 109
1, 284693, Note_off_c, 0, 32, 62
1, 284701, Control_c, 0, 64, 109
1, 284730, Control_c, 0, 64, 107
1, 284743, Note_off_c, 0, 44, 63
1, 284745, Control_c, 0, 64, 96
1, 284759, Note_on_c, 0, 68, 80
1, 284760, Control_c, 0, 64, 80
1, 284770, Note_on_c, 0, 56, 72
1, 284770, Note_on_c, 0, 61, 70
1, 284774, Control_c, 0, 64, 61
1, 284777, Note_on_c, 0, 65, 59
1, 284789, Control_c, 0, 64, 0
1, 284792, Note_on_c, 0, 35, 57
1, 284819, Note_on_c, 0, 33, 16
1, 284834, Control_c, 0, 64, 61
1, 284837, Note_off_c, 0, 35, 63
1, 284843, Note_on_c, 0, 47, 66
1, 284849, Note_off_c, 0, 56, 61
1, 284849, Control_c, 0, 64, 68
1, 284863, Control_c, 0, 64, 73
1, 284868, Note_off_c, 0, 33, 49
1, 284878, Control_c, 0, 64, 78
1, 284879, Note_off_c, 0, 47, 65
1, 284893, Control_c, 0, 64, 81
1, 284905, Note_off_c, 0, 61, 52
1, 284908, Control_c, 0, 64, 85
1, 284923, Control_c, 0, 64, 89
1, 284927, Note_on_c, 0, 34, 76
1, 284938, Control_c, 0, 64, 91
1, 284947, Note_off_c, 0, 65, 35
1, 284953, Control_c, 0, 64, 93
1, 284967, Control_c, 0, 64, 95
1, 284982, Control_c, 0, 64, 97
1, 284988, Note_on_c, 0, 46, 80
1, 284996, Note_off_c, 0, 68, 62
1, 284997, Control_c, 0, 64, 100
1, 285005, Note_off_c, 0, 34, 62
1, 285012, Control_c, 0, 64, 103
1, 285027, Control_c, 0, 64, 106
1, 285048, Control_c, 0, 64, 112
1, 285049, Note_off_c, 0, 46, 61
1, 285063, Control_c, 0, 64, 124
1, 285078, Control_c, 0, 64, 127
1, 285080, Note_on_c, 0, 33, 82
1, 285152, Note_on_c, 0, 45, 70
1, 285158, Note_off_c, 0, 33, 64
1, 285190, Note_off_c, 0, 45, 63
1, 285231, Note_on_c, 0, 32, 89
1, 285305, Note_on_c, 0, 44, 75
1, 285308, Note_on_c, 0, 85, 87
1, 285310, Note_on_c, 0, 97, 86
1, 285320, Note_off_c, 0, 32, 59
1, 285326, Note_off_c, 0, 85, 75
1, 285329, Note_off_c, 0, 97, 72
1, 285338, Note_off_c, 0, 44, 64
1, 285371, Note_on_c, 0, 93, 29
1, 285375, Note_on_c, 0, 30, 94
1, 285375, Note_on_c, 0, 97, 103
1, 285376, Control_c, 0, 64, 106
1, 285376, Note_on_c, 0, 85, 105
1, 285381, Note_on_c, 0, 90, 104
1, 285391, Control_c, 0, 64, 71
1, 285405, Control_c, 0, 64, 0
1, 285509, Control_c, 0, 64, 69
1, 285524, Control_c, 0, 64, 79
1, 285539, Control_c, 0, 64, 89
1, 285553, Control_c, 0, 64, 95
1, 285558, Note_off_c, 0, 30, 58
1, 285567, Note_on_c, 0, 42, 66
1, 285568, Control_c, 0, 64, 100
1, 285573, Note_off_c, 0, 97, 41
1, 285583, Control_c, 0, 64, 103
1, 285597, Control_c, 0, 64, 106
1, 285601, Note_off_c, 0, 42, 64
1, 285612, Control_c, 0, 64, 108
1, 285622, Note_off_c, 0, 93, 61
1, 285627, Control_c, 0, 64, 109
1, 285641, Note_off_c, 0, 90, 57
1, 285642, Control_c, 0, 64, 110
1, 285671, Note_on_c, 0, 37, 74
1, 285687, Control_c, 0, 64, 110
1, 285693, Note_off_c, 0, 85, 61
1, 285731, Control_c, 0, 64, 111
1, 285746, Control_c, 0, 64, 111
1, 285756, Note_off_c, 0, 37, 63
1, 285757, Note_on_c, 0, 49, 79
1, 285761, Control_c, 0, 64, 112
1, 285776, Control_c, 0, 64, 115
1, 285798, Control_c, 0, 64, 124
1, 285802, Note_off_c, 0, 49, 60
1, 285813, Control_c, 0, 64, 127
1, 285853, Note_on_c, 0, 42, 88
1, 285934, Note_off_c, 0, 42, 61
1, 285937, Note_on_c, 0, 54, 76
1, 285946, Control_c, 0, 64, 103
1, 285961, Control_c, 0, 64, 77
1, 285966, Note_off_c, 0, 54, 62
1, 285976, Control_c, 0, 64, 31
1, 285988, Note_on_c, 0, 93, 96
1, 285991, Control_c, 0, 64, 0
1, 285993, Note_on_c, 0, 90, 92
1, 285995, Note_on_c, 0, 81, 89
1, 286020, Control_c, 0, 64, 64
1, 286030, Note_on_c, 0, 49, 65
1, 286035, Note_off_c, 0, 93, 61
1, 286035, Control_c, 0, 64, 74
1, 286050, Control_c, 0, 64, 84
1, 286053, Note_off_c, 0, 81, 57
1, 286065, Control_c, 0, 64, 94
1, 286078, Note_off_c, 0, 90, 63
1, 286080, Control_c, 0, 64, 98
1, 286095, Control_c, 0, 64, 101
1, 286106, Note_on_c, 0, 61, 67
1, 286110, Control_c, 0, 64, 103
1, 286125, Control_c, 0, 64, 106
1, 286135, Note_off_c, 0, 61, 65
1, 286136, Note_off_c, 0, 49, 45
1, 286140, Control_c, 0, 64, 110
1, 286154, Control_c, 0, 64, 114
1, 286169, Control_c, 0, 64, 116
1, 286184, Control_c, 0, 64, 118
1, 286199, Control_c, 0, 64, 120
1, 286214, Control_c, 0, 64, 121
1, 286229, Control_c, 0, 64, 121
1, 286238, Note_on_c, 0, 42, 71
1, 286244, Control_c, 0, 64, 122
1, 286273, Control_c, 0, 64, 123
1, 286288, Control_c, 0, 64, 124
1, 286303, Control_c, 0, 64, 127
1, 286330, Note_off_c, 0, 42, 51
1, 286337, Note_on_c, 0, 54, 63
1, 286366, Note_off_c, 0, 54, 64
1, 286457, Note_on_c, 0, 37, 64
1, 286532, Note_on_c, 0, 49, 57
1, 286542, Note_off_c, 0, 37, 54
1, 286567, Note_off_c, 0, 49, 63
1, 286593, Note_on_c, 0, 61, 68
1, 286595, Note_on_c, 0, 73, 66
1, 286602, Note_on_c, 0, 66, 61
1, 286602, Note_on_c, 0, 69, 61
1, 286621, Note_off_c, 0, 61, 65
1, 286629, Note_off_c, 0, 73, 61
1, 286634, Note_off_c, 0, 66, 66
1, 286634, Note_off_c, 0, 69, 67
1, 286635, Control_c, 0, 64, 101
1, 286650, Control_c, 0, 64, 79
1, 286665, Control_c, 0, 64, 0
1, 286697, Note_on_c, 0, 30, 56
1, 286697, Note_on_c, 0, 74, 76
1, 286703, Note_on_c, 0, 66, 67
1, 286705, Note_on_c, 0, 62, 67
1, 286706, Note_on_c, 0, 69, 70
1, 286739, Control_c, 0, 64, 43
1, 286753, Control_c, 0, 64, 68
1, 286763, Note_off_c, 0, 30, 57
1, 286768, Control_c, 0, 64, 76
1, 286773, Note_on_c, 0, 42, 55
1, 286783, Control_c, 0, 64, 84
1, 286798, Control_c, 0, 64, 89
1, 286813, Control_c, 0, 64, 92
1, 286818, Note_off_c, 0, 42, 62
1, 286828, Control_c, 0, 64, 94
1, 286843, Control_c, 0, 64, 96
1, 286858, Control_c, 0, 64, 97
1, 286864, Note_on_c, 0, 31, 65
1, 286872, Control_c, 0, 64, 99
1, 286887, Control_c, 0, 64, 101
1, 286902, Control_c, 0, 64, 102
1, 286914, Note_off_c, 0, 74, 39
1, 286917, Control_c, 0, 64, 102
1, 286930, Note_off_c, 0, 31, 57
1, 286946, Note_on_c, 0, 43, 52
1, 286947, Control_c, 0, 64, 103
1, 286980, Note_off_c, 0, 43, 61
1, 287025, Note_on_c, 0, 32, 71
1, 287031, Note_off_c, 0, 69, 63
1, 287037, Note_off_c, 0, 66, 62
1, 287101, Note_on_c, 0, 44, 66
1, 287114, Note_off_c, 0, 32, 61
1, 287115, Note_off_c, 0, 62, 52
1, 287152, Note_off_c, 0, 44, 61
1, 287186, Note_on_c, 0, 33, 66
1, 287214, Control_c, 0, 64, 104
1, 287227, Note_off_c, 0, 33, 59
1, 287229, Control_c, 0, 64, 106
1, 287242, Note_on_c, 0, 45, 66
1, 287243, Control_c, 0, 64, 108
1, 287258, Control_c, 0, 64, 108
1, 287288, Note_off_c, 0, 45, 63
1, 287288, Control_c, 0, 64, 104
1, 287311, Control_c, 0, 64, 87
1, 287323, Note_on_c, 0, 69, 88
1, 287325, Control_c, 0, 64, 68
1, 287329, Note_on_c, 0, 57, 76
1, 287337, Note_on_c, 0, 62, 59
1, 287337, Note_on_c, 0, 66, 67
1, 287340, Control_c, 0, 64, 0
1, 287344, Note_on_c, 0, 36, 69
1, 287384, Note_off_c, 0, 57, 56
1, 287384, Control_c, 0, 64, 34
1, 287399, Control_c, 0, 64, 67
1, 287406, Note_off_c, 0, 36, 57
1, 287414, Control_c, 0, 64, 73
1, 287424, Note_on_c, 0, 48, 63
1, 287429, Control_c, 0, 64, 80
1, 287444, Control_c, 0, 64, 86
1, 287458, Control_c, 0, 64, 90
1, 287459, Note_off_c, 0, 48, 63
1, 287463, Note_off_c, 0, 62, 53
1, 287473, Control_c, 0, 64, 94
1, 287488, Control_c, 0, 64, 96
1, 287501, Note_on_c, 0, 35, 73
1, 287502, Note_off_c, 0, 69, 53
1, 287502, Control_c, 0, 64, 100
1, 287517, Control_c, 0, 64, 103
1, 287530, Note_off_c, 0, 66, 57
1, 287532, Control_c, 0, 64, 106
1, 287547, Control_c, 0, 64, 110
1, 287562, Control_c, 0, 64, 113
1, 287565, Note_off_c, 0, 35, 60
1, 287566, Note_on_c, 0, 47, 69
1, 287576, Control_c, 0, 64, 118
1, 287591, Control_c, 0, 64, 127
1, 287606, Control_c, 0, 64, 127
1, 287619, Note_off_c, 0, 47, 63
1, 287648, Note_on_c, 0, 34, 84
1, 287719, Note_on_c, 0, 46, 80
1, 287737, Note_off_c, 0, 34, 63
1, 287785, Note_off_c, 0, 46, 62
1, 287816, Note_on_c, 0, 33, 74
1, 287884, Note_on_c, 0, 45, 68
1, 287891, Note_off_c, 0, 33, 63
1, 287893, Note_on_c, 0, 86, 82
1, 287899, Note_on_c, 0, 74, 69
1, 287911, Note_off_c, 0, 86, 71
1, 287914, Note_off_c, 0, 74, 69
1, 287918, Control_c, 0, 64, 127
1, 287925, Note_off_c, 0, 45, 63
1, 287933, Control_c, 0, 64, 97
1, 287948, Control_c, 0, 64, 74
1, 287958, Note_on_c, 0, 86, 95
1, 287961, Note_on_c, 0, 74, 95
1, 287961, Note_on_c, 0, 79, 76
1, 287961, Note_on_c, 0, 82, 86
1, 287963, Control_c, 0, 64, 0
1, 287964, Note_on_c, 0, 31, 84
1, 288022, Control_c, 0, 64, 65
1, 288037, Control_c, 0, 64, 73
1, 288047, Note_on_c, 0, 43, 65
1, 288049, Note_off_c, 0, 31, 62
1, 288059, Control_c, 0, 64, 81
1, 288074, Control_c, 0, 64, 87
1, 288088, Note_off_c, 0, 43, 64
1, 288089, Control_c, 0, 64, 88
1, 288104, Control_c, 0, 64, 89
1, 288119, Control_c, 0, 64, 90
1, 288125, Note_on_c, 0, 32, 85
1, 288133, Control_c, 0, 64, 91
1, 288148, Control_c, 0, 64, 92
1, 288155, Note_off_c, 0, 86, 57
1, 288163, Control_c, 0, 64, 93
1, 288178, Control_c, 0, 64, 93
1, 288189, Note_on_c, 0, 44, 77
1, 288193, Control_c, 0, 64, 94
1, 288199, Note_off_c, 0, 79, 61
1, 288202, Note_off_c, 0, 32, 62
1, 288206, Note_off_c, 0, 82, 61
1, 288207, Control_c, 0, 64, 94
1, 288232, Note_off_c, 0, 74, 63
1, 288237, Control_c, 0, 64, 95
1, 288250, Note_off_c, 0, 44, 63
1, 288252, Control_c, 0, 64, 96
1, 288267, Control_c, 0, 64, 96
1, 288269, Note_on_c, 0, 33, 89
1, 288296, Control_c, 0, 64, 97
1, 288329, Note_on_c, 0, 45, 79
1, 288329, Note_off_c, 0, 33, 62
1, 288366, Note_off_c, 0, 45, 66
1, 288370, Control_c, 0, 64, 98
1, 288385, Control_c, 0, 64, 101
1, 288399, Note_on_c, 0, 34, 86
1, 288399, Control_c, 0, 64, 107
1, 288414, Control_c, 0, 64, 118
1, 288417, Note_on_c, 0, 70, 24
1, 288429, Control_c, 0, 64, 127
1, 288452, Note_on_c, 0, 46, 88
1, 288466, Note_off_c, 0, 34, 64
1, 288473, Note_off_c, 0, 70, 48
1, 288473, Control_c, 0, 64, 122
1, 288488, Control_c, 0, 64, 101
1, 288503, Control_c, 0, 64, 77
1, 288510, Note_off_c, 0, 46, 63
1, 288519, Control_c, 0, 64, 0
1, 288533, Note_on_c, 0, 37, 90
1, 288536, Note_on_c, 0, 75, 98
1, 288539, Note_on_c, 0, 63, 104
1, 288539, Note_on_c, 0, 67, 87
1, 288542, Note_on_c, 0, 70, 90
1, 288601, Note_off_c, 0, 37, 63
1, 288604, Note_on_c, 0, 49, 85
1, 288608, Control_c, 0, 64, 65
1, 288617, Note_off_c, 0, 63, 62
1, 288622, Control_c, 0, 64, 73
1, 288624, Poly_aftertouch_c, 0, 73, 127
1, 288637, Control_c, 0, 64, 81
1, 288652, Control_c, 0, 64, 85
1, 288658, Note_off_c, 0, 49, 62
1, 288661, Note_off_c, 0, 67, 52
1, 288667, Control_c, 0, 64, 87
1, 288682, Control_c, 0, 64, 88
1, 288687, Note_on_c, 0, 36, 86
1, 288697, Control_c, 0, 64, 90
1, 288712, Control_c, 0, 64, 92
1, 288727, Control_c, 0, 64, 93
1, 288741, Control_c, 0, 64, 94
1, 288748, Note_on_c, 0, 48, 84
1, 288752, Note_off_c, 0, 70, 55
1, 288759, Note_off_c, 0, 36, 62
1, 288771, Control_c, 0, 64, 95
1, 288793, Control_c, 0, 64, 95
1, 288803, Poly_aftertouch_c, 0, 73, 0
1, 288804, Note_off_c, 0, 48, 66
1, 288808, Control_c, 0, 64, 96
1, 288822, Control_c, 0, 64, 97
1, 288823, Note_off_c, 0, 75, 58
1, 288837, Control_c, 0, 64, 98
1, 288840, Note_on_c, 0, 35, 90
1, 288852, Control_c, 0, 64, 99
1, 288867, Control_c, 0, 64, 99
1, 288882, Control_c, 0, 64, 100
1, 288901, Note_off_c, 0, 35, 64
1, 288912, Control_c, 0, 64, 100
1, 288915, Note_on_c, 0, 47, 78
1, 288941, Control_c, 0, 64, 101
1, 288962, Note_off_c, 0, 47, 62
1, 288986, Control_c, 0, 64, 101
1, 288997, Note_on_c, 0, 34, 95
1, 289016, Control_c, 0, 64, 102
1, 289030, Control_c, 0, 64, 102
1, 289045, Control_c, 0, 64, 103
1, 289060, Control_c, 0, 64, 104
1, 289075, Control_c, 0, 64, 105
1, 289082, Note_on_c, 0, 46, 87
1, 289090, Control_c, 0, 64, 106
1, 289102, Note_off_c, 0, 34, 60
1, 289104, Control_c, 0, 64, 106
1, 289119, Control_c, 0, 64, 107
1, 289163, Control_c, 0, 64, 104
1, 289166, Note_off_c, 0, 46, 61
1, 289178, Control_c, 0, 64, 90
1, 289193, Control_c, 0, 64, 67
1, 289204, Note_on_c, 0, 88, 104
1, 289207, Note_on_c, 0, 76, 102
1, 289208, Note_on_c, 0, 82, 94
1, 289208, Control_c, 0, 64, 0
1, 289209, Note_on_c, 0, 79, 89
1, 289210, Note_on_c, 0, 37, 94
1, 289307, Note_on_c, 0, 49, 81
1, 289311, Note_off_c, 0, 37, 62
1, 289312, Control_c, 0, 64, 68
1, 289327, Control_c, 0, 64, 82
1, 289342, Control_c, 0, 64, 90
1, 289357, Control_c, 0, 64, 92
1, 289362, Note_off_c, 0, 49, 60
1, 289371, Control_c, 0, 64, 92
1, 289385, Note_on_c, 0, 38, 87
1, 289386, Control_c, 0, 64, 93
1, 289402, Control_c, 0, 64, 96
1, 289417, Control_c, 0, 64, 100
1, 289432, Control_c, 0, 64, 103
1, 289446, Control_c, 0, 64, 105
1, 289452, Note_on_c, 0, 50, 78
1, 289457, Note_off_c, 0, 38, 60
1, 289476, Control_c, 0, 64, 101
1, 289491, Note_off_c, 0, 50, 63
1, 289491, Control_c, 0, 64, 87
1, 289506, Control_c, 0, 64, 67
1, 289517, Note_on_c, 0, 39, 80
1, 289520, Control_c, 0, 64, 0
1, 289558, Control_c, 0, 64, 49
1, 289572, Control_c, 0, 64, 72
1, 289587, Control_c, 0, 64, 85
1, 289596, Note_on_c, 0, 51, 85
1, 289602, Control_c, 0, 64, 104
1, 289617, Control_c, 0, 64, 111
1, 289620, Note_off_c, 0, 39, 64
1, 289632, Control_c, 0, 64, 112
1, 289646, Control_c, 0, 64, 112
1, 289649, Note_off_c, 0, 51, 62
1, 289676, Note_on_c, 0, 40, 90
1, 289676, Control_c, 0, 64, 113
1, 289690, Control_c, 0, 64, 115
1, 289705, Control_c, 0, 64, 122
1, 289720, Control_c, 0, 64, 127
1, 289731, Note_on_c, 0, 52, 79
1, 289738, Note_off_c, 0, 40, 64
1, 289759, Note_off_c, 0, 52, 69
1, 289764, Control_c, 0, 64, 121
1, 289779, Control_c, 0, 64, 97
1, 289794, Control_c, 0, 64, 71
1, 289809, Control_c, 0, 64, 0
1, 289819, Note_on_c, 0, 46, 96
1, 289854, Control_c, 0, 64, 64
1, 289868, Control_c, 0, 64, 76
1, 289879, Note_off_c, 0, 46, 58
1, 289883, Control_c, 0, 64, 94
1, 289898, Control_c, 0, 64, 107
1, 289901, Note_on_c, 0, 58, 83
1, 289913, Control_c, 0, 64, 115
1, 289928, Control_c, 0, 64, 121
1, 289943, Control_c, 0, 64, 127
1, 289947, Note_off_c, 0, 58, 62
1, 289980, Note_on_c, 0, 45, 92
1, 289987, Control_c, 0, 64, 114
1, 290002, Control_c, 0, 64, 94
1, 290003, Note_on_c, 0, 46, 55
1, 290017, Control_c, 0, 64, 73
1, 290032, Note_off_c, 0, 46, 51
1, 290032, Control_c, 0, 64, 0
1, 290041, Note_on_c, 0, 57, 76
1, 290049, Note_off_c, 0, 45, 65
1, 290061, Control_c, 0, 64, 25
1, 290076, Control_c, 0, 64, 73
1, 290082, Note_off_c, 0, 57, 59
1, 290090, Control_c, 0, 64, 89
1, 290105, Control_c, 0, 64, 114
1, 290122, Control_c, 0, 64, 127
1, 290130, Note_on_c, 0, 44, 81
1, 290150, Note_on_c, 0, 46, 56
1, 290181, Note_off_c, 0, 46, 53
1, 290198, Note_on_c, 0, 56, 76
1, 290217, Note_off_c, 0, 44, 63
1, 290232, Note_off_c, 0, 88, 47
1, 290246, Note_off_c, 0, 56, 61
1, 290286, Note_off_c, 0, 79, 55
1, 290301, Note_off_c, 0, 76, 54
1, 290302, Note_on_c, 0, 43, 85
1, 290309, Note_off_c, 0, 82, 53
1, 290394, Note_on_c, 0, 55, 78
1, 290400, Note_off_c, 0, 43, 56
1, 290461, Note_off_c, 0, 55, 61
1, 290484, Control_c, 0, 64, 125
1, 290491, Note_on_c, 0, 52, 87
1, 290499, Control_c, 0, 64, 97
1, 290513, Control_c, 0, 64, 75
1, 290528, Control_c, 0, 64, 0
1, 290587, Control_c, 0, 64, 66
1, 290602, Control_c, 0, 64, 75
1, 290617, Control_c, 0, 64, 84
1, 290632, Control_c, 0, 64, 92
1, 290647, Control_c, 0, 64, 96
1, 290650, Note_on_c, 0, 76, 74
1, 290658, Note_on_c, 0, 64, 64
1, 290662, Control_c, 0, 64, 99
1, 290676, Control_c, 0, 64, 104
1, 290691, Control_c, 0, 64, 107
1, 290706, Control_c, 0, 64, 108
1, 290721, Control_c, 0, 64, 107
1, 290721, Note_off_c, 0, 64, 63
1, 290736, Control_c, 0, 64, 100
1, 290739, Note_on_c, 0, 51, 89
1, 290751, Control_c, 0, 64, 83
1, 290754, Note_off_c, 0, 52, 61
1, 290766, Control_c, 0, 64, 65
1, 290781, Control_c, 0, 64, 0
1, 290810, Control_c, 0, 64, 64
1, 290825, Control_c, 0, 64, 74
1, 290840, Control_c, 0, 64, 87
1, 290855, Control_c, 0, 64, 98
1, 290856, Note_on_c, 0, 75, 79
1, 290865, Note_on_c, 0, 63, 67
1, 290869, Control_c, 0, 64, 108
1, 290879, Note_off_c, 0, 76, 64
1, 290884, Control_c, 0, 64, 116
1, 290897, Control_c, 0, 64, 118
1, 290912, Note_off_c, 0, 63, 58
1, 290922, Note_off_c, 0, 75, 64
1, 290928, Control_c, 0, 64, 117
1, 290930, Note_on_c, 0, 50, 92
1, 290932, Note_off_c, 0, 51, 63
1, 290942, Control_c, 0, 64, 115
1, 290957, Control_c, 0, 64, 109
1, 290972, Control_c, 0, 64, 103
1, 290987, Control_c, 0, 64, 100
1, 291013, Note_on_c, 0, 74, 85
1, 291019, Note_on_c, 0, 62, 69
1, 291054, Control_c, 0, 64, 100
1, 291056, Note_off_c, 0, 62, 66
1, 291069, Control_c, 0, 64, 101
1, 291087, Note_off_c, 0, 74, 63
1, 291092, Note_on_c, 0, 49, 89
1, 291098, Control_c, 0, 64, 102
1, 291105, Note_off_c, 0, 50, 63
1, 291142, Control_c, 0, 64, 102
1, 291153, Note_on_c, 0, 73, 83
1, 291157, Control_c, 0, 64, 103
1, 291161, Note_on_c, 0, 61, 74
1, 291172, Control_c, 0, 64, 106
1, 291183, Note_off_c, 0, 73, 59
1, 291187, Control_c, 0, 64, 110
1, 291192, Note_off_c, 0, 61, 63
1, 291202, Control_c, 0, 64, 111
1, 291216, Control_c, 0, 64, 110
1, 291231, Control_c, 0, 64, 100
1, 291239, Note_on_c, 0, 46, 88
1, 291246, Control_c, 0, 64, 85
1, 291250, Note_off_c, 0, 49, 61
1, 291261, Control_c, 0, 64, 67
1, 291276, Control_c, 0, 64, 0
1, 291293, Note_on_c, 0, 70, 82
1, 291301, Note_on_c, 0, 58, 72
1, 291320, Control_c, 0, 64, 42
1, 291329, Note_off_c, 0, 58, 67
1, 291335, Control_c, 0, 64, 67
1, 291337, Note_off_c, 0, 70, 59
1, 291350, Control_c, 0, 64, 75
1, 291362, Note_off_c, 0, 46, 61
1, 291365, Control_c, 0, 64, 84
1, 291374, Note_on_c, 0, 45, 93
1, 291380, Control_c, 0, 64, 92
1, 291395, Control_c, 0, 64, 99
1, 291409, Control_c, 0, 64, 107
1, 291424, Control_c, 0, 64, 117
1, 291432, Note_on_c, 0, 69, 80
1, 291436, Note_on_c, 0, 57, 68
1, 291439, Control_c, 0, 64, 122
1, 291454, Control_c, 0, 64, 122
1, 291460, Note_off_c, 0, 45, 62
1, 291464, Note_off_c, 0, 57, 65
1, 291465, Note_off_c, 0, 69, 58
1, 291468, Control_c, 0, 64, 119
1, 291483, Control_c, 0, 64, 105
1, 291492, Note_on_c, 0, 44, 94
1, 291498, Control_c, 0, 64, 86
1, 291513, Control_c, 0, 64, 63
1, 291528, Control_c, 0, 64, 0
1, 291557, Control_c, 0, 64, 37
1, 291568, Note_on_c, 0, 68, 86
1, 291572, Control_c, 0, 64, 69
1, 291574, Note_on_c, 0, 56, 74
1, 291587, Control_c, 0, 64, 80
1, 291602, Control_c, 0, 64, 95
1, 291603, Note_off_c, 0, 56, 63
1, 291610, Note_off_c, 0, 68, 59
1, 291616, Control_c, 0, 64, 106
1, 291621, Note_on_c, 0, 43, 96
1, 291622, Note_off_c, 0, 44, 64
1, 291631, Control_c, 0, 64, 115
1, 291646, Control_c, 0, 64, 121
1, 291660, Control_c, 0, 64, 124
1, 291675, Control_c, 0, 64, 124
1, 291687, Note_on_c, 0, 67, 84
1, 291688, Note_on_c, 0, 55, 76
1, 291688, Note_off_c, 0, 43, 62
1, 291706, Control_c, 0, 64, 114
1, 291711, Note_off_c, 0, 67, 65
1, 291716, Note_off_c, 0, 55, 68
1, 291721, Control_c, 0, 64, 97
1, 291736, Control_c, 0, 64, 77
1, 291749, Note_on_c, 0, 40, 99
1, 291751, Control_c, 0, 64, 27
1, 291765, Control_c, 0, 64, 0
1, 291803, Control_c, 0, 64, 54
1, 291818, Control_c, 0, 64, 70
1, 291833, Note_on_c, 0, 64, 83
1, 291833, Control_c, 0, 64, 81
1, 291835, Note_on_c, 0, 52, 84
1, 291847, Control_c, 0, 64, 94
1, 291849, Note_off_c, 0, 40, 63
1, 291860, Note_off_c, 0, 52, 70
1, 291862, Control_c, 0, 64, 106
1, 291865, Note_off_c, 0, 64, 62
1, 291877, Control_c, 0, 64, 115
1, 291892, Control_c, 0, 64, 121
1, 291894, Note_on_c, 0, 39, 91
1, 291907, Control_c, 0, 64, 122
1, 291936, Control_c, 0, 64, 121
1, 291951, Control_c, 0, 64, 110
1, 291961, Note_on_c, 0, 63, 84
1, 291965, Control_c, 0, 64, 92
1, 291966, Note_on_c, 0, 51, 79
1, 291980, Control_c, 0, 64, 69
1, 291986, Note_off_c, 0, 39, 62
1, 291987, Note_off_c, 0, 63, 65
1, 291994, Note_off_c, 0, 51, 65
1, 291995, Control_c, 0, 64, 0
1, 292009, Note_on_c, 0, 38, 97
1, 292069, Control_c, 0, 64, 66
1, 292084, Control_c, 0, 64, 76
1, 292087, Note_on_c, 0, 62, 85
1, 292089, Note_on_c, 0, 50, 80
1, 292098, Control_c, 0, 64, 86
1, 292107, Note_off_c, 0, 38, 62
1, 292113, Control_c, 0, 64, 93
1, 292120, Note_off_c, 0, 50, 65
1, 292128, Note_off_c, 0, 62, 57
1, 292128, Control_c, 0, 64, 96
1, 292143, Control_c, 0, 64, 99
1, 292152, Note_on_c, 0, 37, 91
1, 292158, Control_c, 0, 64, 103
1, 292173, Control_c, 0, 64, 106
1, 292188, Control_c, 0, 64, 106
1, 292216, Note_off_c, 0, 37, 63
1, 292229, Note_on_c, 0, 61, 94
1, 292235, Note_on_c, 0, 49, 89
1, 292262, Control_c, 0, 64, 106
1, 292271, Note_off_c, 0, 49, 60
1, 292276, Note_off_c, 0, 61, 62
1, 292277, Control_c, 0, 64, 102
1, 292289, Note_on_c, 0, 36, 99
1, 292291, Control_c, 0, 64, 93
1, 292306, Control_c, 0, 64, 76
1, 292321, Control_c, 0, 64, 0
1, 292372, Note_on_c, 0, 48, 95
1, 292372, Note_on_c, 0, 60, 98
1, 292411, Control_c, 0, 64, 62
1, 292420, Note_off_c, 0, 36, 63
1, 292426, Control_c, 0, 64, 77
1, 292440, Control_c, 0, 64, 96
1, 292455, Control_c, 0, 64, 127
1, 292472, Note_off_c, 0, 48, 63
1, 292481, Note_off_c, 0, 60, 61
1, 292487, Note_on_c, 0, 35, 96
1, 292582, Note_on_c, 0, 47, 94
1, 292582, Note_on_c, 0, 59, 93
1, 292596, Control_c, 0, 64, 104
1, 292611, Control_c, 0, 64, 77
1, 292626, Control_c, 0, 64, 0
1, 292631, Note_off_c, 0, 35, 65
1, 292678, Note_on_c, 0, 34, 98
1, 292692, Note_off_c, 0, 47, 64
1, 292698, Note_off_c, 0, 59, 62
1, 292700, Control_c, 0, 64, 77
1, 292715, Control_c, 0, 64, 110
1, 292730, Control_c, 0, 64, 127
1, 292796, Note_on_c, 0, 46, 100
1, 292796, Note_on_c, 0, 58, 97
1, 292834, Control_c, 0, 64, 108
1, 292849, Control_c, 0, 64, 82
1, 292863, Control_c, 0, 64, 0
1, 292917, Note_on_c, 0, 33, 101
1, 292918, Note_off_c, 0, 34, 64
1, 292941, Note_off_c, 0, 58, 61
1, 292942, Note_off_c, 0, 46, 60
1, 293028, Note_on_c, 0, 45, 95
1, 293030, Note_on_c, 0, 57, 102
1, 293041, Control_c, 0, 64, 68
1, 293056, Control_c, 0, 64, 81
1, 293070, Control_c, 0, 64, 97
1, 293076, Note_off_c, 0, 45, 63
1, 293085, Control_c, 0, 64, 113
1, 293100, Control_c, 0, 64, 118
1, 293115, Control_c, 0, 64, 120
1, 293124, Note_off_c, 0, 33, 61
1, 293130, Control_c, 0, 64, 123
1, 293144, Control_c, 0, 64, 124
1, 293153, Note_off_c, 0, 57, 53
1, 293159, Control_c, 0, 64, 126
1, 293174, Control_c, 0, 64, 127
1, 293463, Control_c, 0, 64, 103
1, 293478, Control_c, 0, 64, 72
1, 293493, Control_c, 0, 64, 0
1, 293564, Note_on_c, 0, 80, 103
1, 293565, Note_on_c, 0, 92, 115
1, 293571, Note_on_c, 0, 44, 96
1, 293572, Note_on_c, 0, 32, 92
1, 293597, Control_c, 0, 64, 71
1, 293601, Note_off_c, 0, 32, 69
1, 293602, Note_off_c, 0, 92, 65
1, 293611, Note_off_c, 0, 80, 68
1, 293611, Control_c, 0, 64, 127
1, 293619, Note_off_c, 0, 44, 60
1, 293840, Note_on_c, 0, 77, 93
1, 293842, Note_on_c, 0, 65, 94
1, 293844, Note_on_c, 0, 68, 91
1, 293847, Note_on_c, 0, 73, 81
1, 293853, Note_on_c, 0, 61, 83
1, 293854, Note_on_c, 0, 53, 66
1, 293859, Note_on_c, 0, 56, 66
1, 293884, Note_off_c, 0, 65, 65
1, 293894, Note_off_c, 0, 68, 63
1, 293898, Note_off_c, 0, 77, 58
1, 293899, Note_off_c, 0, 61, 63
1, 293901, Note_off_c, 0, 73, 61
1, 293905, Note_off_c, 0, 53, 62
1, 293905, Note_off_c, 0, 56, 59
1, 293994, Note_on_c, 0, 65, 86
1, 293994, Note_on_c, 0, 68, 86
1, 293997, Note_on_c, 0, 77, 85
1, 294000, Note_on_c, 0, 73, 76
1, 294011, Note_on_c, 0, 61, 65
1, 294018, Note_off_c, 0, 65, 68
1, 294024, Note_off_c, 0, 73, 64
1, 294025, Note_on_c, 0, 56, 49
1, 294030, Note_on_c, 0, 53, 45
1, 294030, Note_off_c, 0, 68, 57
1, 294045, Note_off_c, 0, 61, 67
1, 294048, Note_off_c, 0, 77, 58
1, 294054, Note_off_c, 0, 56, 62
1, 294063, Note_off_c, 0, 53, 58
1, 294130, Note_on_c, 0, 65, 80
1, 294131, Note_on_c, 0, 68, 83
1, 294131, Note_on_c, 0, 73, 75
1, 294133, Note_on_c, 0, 77, 75
1, 294137, Note_on_c, 0, 61, 64
1, 294140, Note_on_c, 0, 56, 57
1, 294142, Note_on_c, 0, 53, 65
1, 294149, Note_off_c, 0, 65, 70
1, 294163, Note_off_c, 0, 68, 65
1, 294164, Note_off_c, 0, 73, 63
1, 294166, Note_off_c, 0, 61, 63
1, 294169, Note_off_c, 0, 77, 59
1, 294173, Note_off_c, 0, 53, 61
1, 294178, Note_off_c, 0, 56, 60
1, 294252, Note_on_c, 0, 65, 82
1, 294253, Note_on_c, 0, 68, 87
1, 294256, Note_on_c, 0, 73, 75
1, 294256, Note_on_c, 0, 77, 74
1, 294263, Note_on_c, 0, 61, 62
1, 294265, Note_on_c, 0, 56, 59
1, 294275, Note_off_c, 0, 65, 70
1, 294276, Note_on_c, 0, 53, 53
1, 294283, Note_off_c, 0, 77, 63
1, 294289, Note_off_c, 0, 73, 60
1, 294295, Note_off_c, 0, 61, 63
1, 294297, Note_off_c, 0, 68, 61
1, 294304, Note_off_c, 0, 56, 58
1, 294370, Note_on_c, 0, 77, 79
1, 294370, Note_on_c, 0, 68, 79
1, 294373, Note_on_c, 0, 65, 65
1, 294373, Note_on_c, 0, 73, 72
1, 294378, Note_on_c, 0, 56, 59
1, 294390, Note_off_c, 0, 65, 70
1, 294396, Note_off_c, 0, 53, 57
1, 294396, Note_off_c, 0, 56, 65
1, 294398, Note_off_c, 0, 73, 66
1, 294400, Note_off_c, 0, 68, 67
1, 294417, Note_off_c, 0, 77, 64
1, 294420, Control_c, 0, 64, 107
1, 294434, Control_c, 0, 64, 78
1, 294449, Control_c, 0, 64, 0
1, 294452, Poly_aftertouch_c, 0, 61, 0
1, 294493, Control_c, 0, 64, 66
1, 294508, Note_on_c, 0, 44, 92
1, 294508, Control_c, 0, 64, 84
1, 294513, Note_on_c, 0, 80, 103
1, 294515, Note_on_c, 0, 92, 89
1, 294520, Note_on_c, 0, 32, 69
1, 294523, Control_c, 0, 64, 127
1, 294531, Note_off_c, 0, 92, 76
1, 294537, Note_off_c, 0, 44, 68
1, 294544, Note_off_c, 0, 80, 60
1, 294545, Note_off_c, 0, 32, 62
1, 294546, Note_on_c, 0, 90, 42
1, 294547, Note_off_c, 0, 90, 127
1, 294662, Note_on_c, 0, 66, 92
1, 294665, Note_on_c, 0, 78, 85
1, 294667, Note_on_c, 0, 73, 78
1, 294669, Note_on_c, 0, 70, 77
1, 294674, Note_on_c, 0, 61, 72
1, 294679, Note_on_c, 0, 54, 61
1, 294681, Note_off_c, 0, 66, 71
1, 294682, Note_on_c, 0, 58, 61
1, 294691, Note_off_c, 0, 70, 69
1, 294695, Note_off_c, 0, 73, 62
1, 294697, Note_off_c, 0, 78, 53
1, 294701, Note_off_c, 0, 61, 63
1, 294711, Note_off_c, 0, 58, 66
1, 294716, Note_off_c, 0, 54, 61
1, 294775, Note_on_c, 0, 66, 88
1, 294789, Note_on_c, 0, 70, 74
1, 294789, Note_on_c, 0, 73, 80
1, 294790, Note_on_c, 0, 78, 82
1, 294793, Note_on_c, 0, 58, 63
1, 294797, Note_on_c, 0, 61, 68
1, 294802, Note_on_c, 0, 54, 64
1, 294805, Note_off_c, 0, 66, 68
1, 294811, Note_off_c, 0, 70, 70
1, 294817, Note_off_c, 0, 78, 62
1, 294817, Note_off_c, 0, 73, 65
1, 294822, Note_off_c, 0, 61, 67
1, 294825, Note_off_c, 0, 58, 63
1, 294833, Note_off_c, 0, 54, 62
1, 294892, Note_on_c, 0, 66, 92
1, 294897, Note_on_c, 0, 70, 82
1, 294897, Note_on_c, 0, 78, 84
1, 294901, Note_on_c, 0, 73, 76
1, 294909, Note_on_c, 0, 61, 67
1, 294917, Note_on_c, 0, 58, 61
1, 294924, Note_off_c, 0, 66, 59
1, 294926, Note_off_c, 0, 73, 66
1, 294927, Note_off_c, 0, 70, 65
1, 294931, Note_on_c, 0, 54, 52
1, 294931, Note_off_c, 0, 78, 57
1, 294935, Note_off_c, 0, 61, 66
1, 294947, Note_off_c, 0, 58, 67
1, 294954, Note_off_c, 0, 54, 61
1, 295010, Note_on_c, 0, 66, 91
1, 295011, Note_on_c, 0, 78, 86
1, 295012, Note_on_c, 0, 70, 87
1, 295013, Note_on_c, 0, 73, 76
1, 295020, Note_on_c, 0, 58, 66
1, 295021, Note_on_c, 0, 61, 70
1, 295034, Note_on_c, 0, 54, 58
1, 295035, Note_off_c, 0, 66, 67
1, 295040, Note_off_c, 0, 78, 56
1, 295045, Note_off_c, 0, 73, 58
1, 295048, Note_off_c, 0, 58, 63
1, 295049, Note_off_c, 0, 70, 61
1, 295052, Note_off_c, 0, 61, 63
1, 295067, Note_off_c, 0, 54, 59
1, 295119, Note_on_c, 0, 78, 91
1, 295120, Note_on_c, 0, 70, 78
1, 295122, Note_on_c, 0, 66, 78
1, 295125, Note_on_c, 0, 73, 74
1, 295130, Note_on_c, 0, 61, 61
1, 295133, Note_off_c, 0, 66, 77
1, 295137, Note_off_c, 0, 70, 72
1, 295145, Note_off_c, 0, 61, 67
1, 295150, Note_off_c, 0, 73, 67
1, 295162, Note_on_c, 0, 58, 25
1, 295162, Note_off_c, 0, 78, 64
1, 295165, Note_on_c, 0, 54, 23
1, 295185, Note_off_c, 0, 58, 56
1, 295198, Note_off_c, 0, 54, 43
1, 295198, Control_c, 0, 64, 96
1, 295213, Control_c, 0, 64, 67
1, 295228, Control_c, 0, 64, 0
1, 295266, Note_on_c, 0, 80, 110
1, 295269, Note_on_c, 0, 92, 100
1, 295272, Note_on_c, 0, 44, 83
1, 295272, Control_c, 0, 64, 68
1, 295279, Note_on_c, 0, 32, 72
1, 295285, Note_off_c, 0, 92, 72
1, 295287, Control_c, 0, 64, 88
1, 295292, Note_off_c, 0, 80, 68
1, 295297, Note_off_c, 0, 44, 66
1, 295301, Control_c, 0, 64, 127
1, 295302, Note_off_c, 0, 32, 62
1, 295463, Note_on_c, 0, 63, 98
1, 295463, Note_on_c, 0, 75, 91
1, 295465, Note_on_c, 0, 68, 90
1, 295473, Note_on_c, 0, 60, 79
1, 295473, Note_on_c, 0, 72, 77
1, 295474, Note_on_c, 0, 56, 71
1, 295488, Note_on_c, 0, 52, 63
1, 295512, Note_off_c, 0, 63, 62
1, 295516, Note_off_c, 0, 75, 63
1, 295519, Note_off_c, 0, 52, 66
1, 295525, Note_off_c, 0, 60, 60
1, 295541, Note_off_c, 0, 72, 60
1, 295541, Note_off_c, 0, 56, 63
1, 295544, Note_off_c, 0, 68, 61
1, 295591, Control_c, 0, 64, 111
1, 295601, Note_on_c, 0, 68, 76
1, 295602, Note_on_c, 0, 63, 90
1, 295603, Note_on_c, 0, 75, 85
1, 295606, Control_c, 0, 64, 90
1, 295607, Note_on_c, 0, 72, 71
1, 295611, Note_on_c, 0, 51, 68
1, 295618, Note_on_c, 0, 56, 47
1, 295619, Note_on_c, 0, 60, 63
1, 295621, Control_c, 0, 64, 73
1, 295635, Control_c, 0, 64, 68
1, 295636, Note_off_c, 0, 63, 59
1, 295650, Note_off_c, 0, 68, 62
1, 295650, Control_c, 0, 64, 70
1, 295652, Note_off_c, 0, 56, 64
1, 295654, Note_off_c, 0, 60, 63
1, 295655, Note_off_c, 0, 51, 59
1, 295660, Note_off_c, 0, 75, 62
1, 295665, Note_off_c, 0, 72, 63
1, 295665, Control_c, 0, 64, 74
1, 295680, Control_c, 0, 64, 80
1, 295695, Control_c, 0, 64, 85
1, 295711, Control_c, 0, 64, 88
1, 295722, Note_on_c, 0, 63, 83
1, 295723, Note_on_c, 0, 75, 71
1, 295724, Note_on_c, 0, 72, 63
1, 295725, Note_on_c, 0, 68, 81
1, 295726, Control_c, 0, 64, 92
1, 295736, Note_on_c, 0, 56, 61
1, 295738, Note_on_c, 0, 51, 64
1, 295738, Note_on_c, 0, 60, 66
1, 295740, Control_c, 0, 64, 94
1, 295747, Note_off_c, 0, 63, 64
1, 295755, Control_c, 0, 64, 96
1, 295756, Note_off_c, 0, 68, 67
1, 295758, Note_off_c, 0, 75, 61
1, 295768, Note_off_c, 0, 56, 63
1, 295770, Note_off_c, 0, 60, 65
1, 295770, Control_c, 0, 64, 96
1, 295772, Note_off_c, 0, 51, 62
1, 295775, Note_off_c, 0, 72, 62
1, 295785, Control_c, 0, 64, 97
1, 295830, Note_on_c, 0, 63, 85
1, 295833, Note_on_c, 0, 72, 63
1, 295835, Note_on_c, 0, 68, 82
1, 295837, Note_on_c, 0, 75, 72
1, 295848, Note_on_c, 0, 51, 62
1, 295851, Note_on_c, 0, 60, 58
1, 295851, Note_off_c, 0, 63, 66
1, 295859, Note_on_c, 0, 56, 56
1, 295868, Note_off_c, 0, 75, 67
1, 295870, Note_off_c, 0, 68, 61
1, 295874, Control_c, 0, 64, 97
1, 295878, Note_off_c, 0, 60, 63
1, 295879, Note_off_c, 0, 72, 63
1, 295881, Note_off_c, 0, 51, 57
1, 295888, Note_off_c, 0, 56, 64
1, 295888, Control_c, 0, 64, 98
1, 295903, Control_c, 0, 64, 99
1, 295918, Control_c, 0, 64, 100
1, 295932, Control_c, 0, 64, 100
1, 295944, Note_on_c, 0, 63, 80
1, 295948, Note_on_c, 0, 75, 75
1, 295949, Note_on_c, 0, 68, 78
1, 295949, Note_on_c, 0, 72, 64
1, 295962, Control_c, 0, 64, 101
1, 295965, Note_off_c, 0, 63, 66
1, 295970, Note_on_c, 0, 56, 56
1, 295977, Control_c, 0, 64, 103
1, 295982, Note_off_c, 0, 75, 61
1, 295983, Note_off_c, 0, 68, 63
1, 295985, Note_on_c, 0, 51, 51
1, 295988, Note_on_c, 0, 60, 43
1, 295992, Control_c, 0, 64, 108
1, 295997, Note_off_c, 0, 72, 62
1, 296003, Note_off_c, 0, 56, 62
1, 296006, Control_c, 0, 64, 122
1, 296011, Note_off_c, 0, 51, 58
1, 296016, Note_off_c, 0, 60, 52
1, 296021, Control_c, 0, 64, 127
1, 296058, Note_on_c, 0, 63, 81
1, 296062, Note_on_c, 0, 75, 74
1, 296063, Note_on_c, 0, 68, 82
1, 296065, Note_on_c, 0, 72, 66
1, 296087, Note_on_c, 0, 51, 65
1, 296094, Note_off_c, 0, 63, 63
1, 296096, Note_on_c, 0, 56, 61
1, 296102, Note_off_c, 0, 75, 64
1, 296109, Note_off_c, 0, 68, 62
1, 296112, Note_on_c, 0, 60, 44
1, 296113, Note_off_c, 0, 72, 61
1, 296119, Note_off_c, 0, 51, 58
1, 296126, Note_off_c, 0, 56, 63
1, 296135, Note_off_c, 0, 60, 56
1, 296177, Note_on_c, 0, 63, 84
1, 296177, Note_on_c, 0, 68, 82
1, 296179, Note_on_c, 0, 72, 69
1, 296179, Note_on_c, 0, 75, 70
1, 296209, Note_on_c, 0, 56, 59
1, 296210, Note_off_c, 0, 63, 61
1, 296215, Note_on_c, 0, 51, 52
1, 296215, Note_off_c, 0, 75, 63
1, 296224, Note_off_c, 0, 68, 64
1, 296225, Note_on_c, 0, 60, 34
1, 296234, Note_off_c, 0, 72, 64
1, 296237, Note_off_c, 0, 56, 63
1, 296244, Note_off_c, 0, 51, 59
1, 296257, Note_off_c, 0, 60, 44
1, 296296, Note_on_c, 0, 75, 86
1, 296302, Note_on_c, 0, 68, 73
1, 296306, Note_on_c, 0, 63, 70
1, 296306, Note_on_c, 0, 72, 60
1, 296316, Note_on_c, 0, 56, 61
1, 296322, Note_off_c, 0, 63, 68
1, 296328, Note_off_c, 0, 72, 66
1, 296331, Note_off_c, 0, 68, 67
1, 296335, Note_off_c, 0, 56, 66
1, 296345, Note_on_c, 0, 51, 46
1, 296350, Note_off_c, 0, 75, 66
1, 296385, Note_off_c, 0, 51, 42
1, 296414, Control_c, 0, 64, 96
1, 296429, Control_c, 0, 64, 72
1, 296444, Control_c, 0, 64, 0
1, 296453, Note_on_c, 0, 80, 104
1, 296454, Note_on_c, 0, 92, 99
1, 296461, Note_on_c, 0, 44, 85
1, 296468, Note_on_c, 0, 32, 65
1, 296469, Note_off_c, 0, 92, 73
1, 296473, Control_c, 0, 64, 66
1, 296481, Note_off_c, 0, 80, 65
1, 296488, Control_c, 0, 64, 79
1, 296489, Note_off_c, 0, 44, 64
1, 296503, Control_c, 0, 64, 93
1, 296507, Note_off_c, 0, 32, 49
1, 296519, Control_c, 0, 64, 107
1, 296534, Control_c, 0, 64, 112
1, 296549, Control_c, 0, 64, 112
1, 296592, Note_on_c, 0, 77, 88
1, 296593, Note_on_c, 0, 65, 90
1, 296601, Note_on_c, 0, 73, 74
1, 296602, Note_on_c, 0, 68, 77
1, 296611, Note_off_c, 0, 65, 72
1, 296623, Note_on_c, 0, 61, 71
1, 296625, Note_off_c, 0, 68, 70
1, 296626, Note_on_c, 0, 56, 65
1, 296627, Note_off_c, 0, 73, 64
1, 296631, Note_on_c, 0, 53, 60
1, 296635, Note_off_c, 0, 77, 57
1, 296637, Control_c, 0, 64, 113
1, 296650, Note_off_c, 0, 61, 67
1, 296652, Control_c, 0, 64, 114
1, 296654, Note_off_c, 0, 56, 64
1, 296667, Control_c, 0, 64, 118
1, 296681, Control_c, 0, 64, 127
1, 296696, Note_off_c, 0, 53, 0
1, 296705, Note_on_c, 0, 65, 90
1, 296707, Note_on_c, 0, 68, 93
1, 296708, Note_on_c, 0, 77, 84
1, 296710, Note_on_c, 0, 73, 79
1, 296718, Note_on_c, 0, 56, 73
1, 296720, Note_on_c, 0, 61, 68
1, 296722, Note_off_c, 0, 65, 75
1, 296733, Poly_aftertouch_c, 0, 53, 127
1, 296738, Note_off_c, 0, 61, 66
1, 296739, Note_on_c, 0, 53, 22
1, 296740, Note_off_c, 0, 68, 61
1, 296745, Note_off_c, 0, 56, 66
1, 296746, Note_off_c, 0, 73, 59
1, 296756, Note_off_c, 0, 77, 64
1, 296757, Note_off_c, 0, 53, 57
1, 296815, Control_c, 0, 64, 94
1, 296829, Control_c, 0, 64, 66
1, 296844, Control_c, 0, 64, 0
1, 296867, Note_on_c, 0, 80, 108
1, 296867, Note_on_c, 0, 92, 109
1, 296874, Note_on_c, 0, 44, 87
1, 296874, Control_c, 0, 64, 47
1, 296879, Note_on_c, 0, 32, 71
1, 296888, Control_c, 0, 64, 76
1, 296897, Note_off_c, 0, 80, 67
1, 296897, Note_off_c, 0, 92, 61
1, 296898, Note_off_c, 0, 44, 67
1, 296900, Note_off_c, 0, 32, 63
1, 296903, Control_c, 0, 64, 102
1, 296918, Control_c, 0, 64, 127
1, 297020, Note_on_c, 0, 66, 94
1, 297029, Note_on_c, 0, 78, 87
1, 297034, Note_on_c, 0, 73, 76
1, 297035, Note_on_c, 0, 70, 79
1, 297043, Note_on_c, 0, 61, 77
1, 297051, Note_on_c, 0, 54, 57
1, 297052, Note_off_c, 0, 66, 61
1, 297054, Note_on_c, 0, 58, 57
1, 297057, Note_off_c, 0, 70, 70
1, 297060, Note_off_c, 0, 73, 64
1, 297068, Note_off_c, 0, 61, 66
1, 297068, Note_off_c, 0, 78, 46
1, 297081, Note_off_c, 0, 58, 67
1, 297083, Note_off_c, 0, 54, 62
1, 297140, Note_on_c, 0, 66, 94
1, 297142, Note_on_c, 0, 70, 80
1, 297143, Note_on_c, 0, 73, 82
1, 297145, Note_on_c, 0, 78, 81
1, 297155, Note_on_c, 0, 58, 67
1, 297156, Note_off_c, 0, 66, 72
1, 297157, Note_on_c, 0, 54, 68
1, 297157, Note_on_c, 0, 61, 72
1, 297166, Note_off_c, 0, 73, 62
1, 297167, Note_off_c, 0, 70, 67
1, 297169, Note_off_c, 0, 78, 63
1, 297181, Note_off_c, 0, 61, 68
1, 297184, Note_off_c, 0, 58, 67
1, 297187, Note_off_c, 0, 54, 64
1, 297249, Note_on_c, 0, 66, 90
1, 297253, Note_on_c, 0, 70, 84
1, 297254, Note_on_c, 0, 73, 83
1, 297255, Note_on_c, 0, 78, 85
1, 297262, Note_on_c, 0, 61, 71
1, 297267, Note_on_c, 0, 54, 60
1, 297270, Note_off_c, 0, 70, 68
1, 297273, Note_on_c, 0, 58, 62
1, 297276, Note_off_c, 0, 73, 67
1, 297277, Note_off_c, 0, 66, 59
1, 297280, Note_off_c, 0, 78, 61
1, 297287, Note_off_c, 0, 61, 65
1, 297301, Note_off_c, 0, 54, 60
1, 297303, Note_off_c, 0, 58, 66
1, 297365, Note_on_c, 0, 70, 82
1, 297365, Note_on_c, 0, 73, 85
1, 297366, Note_on_c, 0, 66, 85
1, 297369, Note_on_c, 0, 78, 83
1, 297377, Note_on_c, 0, 61, 66
1, 297378, Note_on_c, 0, 58, 67
1, 297385, Note_on_c, 0, 54, 60
1, 297385, Note_off_c, 0, 66, 69
1, 297389, Note_off_c, 0, 78, 66
1, 297394, Note_off_c, 0, 70, 57
1, 297399, Note_off_c, 0, 73, 59
1, 297407, Note_off_c, 0, 61, 64
1, 297409, Note_off_c, 0, 58, 64
1, 297418, Note_off_c, 0, 54, 61
1, 297471, Note_on_c, 0, 78, 89
1, 297473, Note_on_c, 0, 66, 77
1, 297473, Note_on_c, 0, 70, 83
1, 297476, Note_on_c, 0, 61, 65
1, 297476, Note_on_c, 0, 73, 75
1, 297485, Note_on_c, 0, 58, 65
1, 297487, Note_off_c, 0, 66, 72
1, 297490, Note_off_c, 0, 61, 67
1, 297492, Note_off_c, 0, 70, 70
1, 297495, Note_off_c, 0, 73, 70
1, 297498, Note_off_c, 0, 58, 72
1, 297501, Note_on_c, 0, 54, 42
1, 297514, Note_off_c, 0, 78, 66
1, 297530, Note_off_c, 0, 54, 48
1, 297533, Control_c, 0, 64, 99
1, 297548, Control_c, 0, 64, 65
1, 297563, Control_c, 0, 64, 0
1, 297604, Note_on_c, 0, 92, 107
1, 297607, Note_on_c, 0, 44, 87
1, 297607, Control_c, 0, 64, 63
1, 297608, Note_on_c, 0, 80, 95
1, 297615, Note_on_c, 0, 82, 84
1, 297616, Note_on_c, 0, 32, 69
1, 297622, Control_c, 0, 64, 81
1, 297624, Note_off_c, 0, 92, 62
1, 297628, Note_off_c, 0, 82, 71
1, 297631, Note_off_c, 0, 80, 63
1, 297633, Note_off_c, 0, 44, 66
1, 297637, Control_c, 0, 64, 127
1, 297652, Note_off_c, 0, 32, 51
1, 297765, Note_on_c, 0, 70, 109
1, 297767, Note_on_c, 0, 82, 97
1, 297771, Note_on_c, 0, 78, 90
1, 297784, Note_on_c, 0, 75, 76
1, 297790, Note_on_c, 0, 66, 77
1, 297792, Control_c, 0, 64, 96
1, 297795, Note_on_c, 0, 63, 68
1, 297796, Note_on_c, 0, 58, 60
1, 297807, Control_c, 0, 64, 73
1, 297816, Note_on_c, 0, 60, 36
1, 297822, Control_c, 0, 64, 0
1, 297835, Note_off_c, 0, 63, 58
1, 297837, Control_c, 0, 64, 57
1, 297843, Note_off_c, 0, 58, 56
1, 297845, Note_off_c, 0, 66, 60
1, 297846, Note_off_c, 0, 60, 48
1, 297850, Note_off_c, 0, 70, 57
1, 297851, Note_off_c, 0, 82, 60
1, 297851, Control_c, 0, 64, 70
1, 297862, Note_off_c, 0, 75, 60
1, 297863, Note_off_c, 0, 78, 61
1, 297866, Control_c, 0, 64, 80
1, 297881, Control_c, 0, 64, 91
1, 297896, Control_c, 0, 64, 98
1, 297911, Control_c, 0, 64, 101
1, 297920, Note_on_c, 0, 82, 97
1, 297922, Note_on_c, 0, 70, 98
1, 297923, Note_on_c, 0, 75, 69
1, 297923, Note_on_c, 0, 78, 86
1, 297926, Control_c, 0, 64, 102
1, 297937, Note_on_c, 0, 60, 51
1, 297941, Control_c, 0, 64, 102
1, 297942, Note_on_c, 0, 66, 65
1, 297943, Note_on_c, 0, 63, 65
1, 297956, Control_c, 0, 64, 103
1, 297956, Note_on_c, 0, 58, 55
1, 297967, Note_off_c, 0, 70, 63
1, 297971, Note_off_c, 0, 78, 64
1, 297971, Control_c, 0, 64, 104
1, 297976, Note_off_c, 0, 63, 64
1, 297977, Note_off_c, 0, 66, 62
1, 297977, Note_off_c, 0, 75, 64
1, 297980, Note_off_c, 0, 60, 59
1, 297982, Note_off_c, 0, 82, 58
1, 297985, Control_c, 0, 64, 105
1, 297989, Note_off_c, 0, 58, 65
1, 298015, Control_c, 0, 64, 105
1, 298044, Control_c, 0, 64, 106
1, 298057, Note_on_c, 0, 70, 93
1, 298059, Note_on_c, 0, 82, 89
1, 298059, Control_c, 0, 64, 106
1, 298062, Note_on_c, 0, 78, 82
1, 298063, Note_on_c, 0, 75, 80
1, 298074, Control_c, 0, 64, 107
1, 298083, Note_on_c, 0, 66, 59
1, 298084, Note_on_c, 0, 58, 47
1, 298087, Note_on_c, 0, 63, 50
1, 298089, Control_c, 0, 64, 108
1, 298100, Note_off_c, 0, 70, 61
1, 298105, Control_c, 0, 64, 110
1, 298108, Note_off_c, 0, 82, 61
1, 298109, Note_on_c, 0, 60, 42
1, 298113, Note_off_c, 0, 63, 62
1, 298113, Note_off_c, 0, 78, 62
1, 298114, Note_off_c, 0, 66, 65
1, 298115, Note_off_c, 0, 75, 64
1, 298120, Control_c, 0, 64, 112
1, 298131, Note_off_c, 0, 58, 58
1, 298134, Control_c, 0, 64, 113
1, 298134, Note_off_c, 0, 60, 53
1, 298149, Control_c, 0, 64, 114
1, 298164, Control_c, 0, 64, 115
1, 298179, Control_c, 0, 64, 116
1, 298188, Note_on_c, 0, 82, 91
1, 298189, Note_on_c, 0, 70, 90
1, 298194, Note_on_c, 0, 78, 80
1, 298194, Control_c, 0, 64, 118
1, 298194, Note_on_c, 0, 75, 78
1, 298208, Control_c, 0, 64, 120
1, 298209, Note_on_c, 0, 63, 50
1, 298211, Note_on_c, 0, 66, 59
1, 298223, Control_c, 0, 64, 122
1, 298233, Note_on_c, 0, 60, 45
1, 298238, Control_c, 0, 64, 125
1, 298241, Note_off_c, 0, 70, 59
1, 298242, Note_off_c, 0, 82, 61
1, 298244, Note_off_c, 0, 75, 65
1, 298246, Note_on_c, 0, 58, 31
1, 298247, Note_off_c, 0, 66, 62
1, 298248, Note_off_c, 0, 78, 63
1, 298253, Control_c, 0, 64, 127
1, 298254, Note_off_c, 0, 63, 54
1, 298272, Note_off_c, 0, 60, 46
1, 298280, Note_off_c, 0, 58, 49
1, 298325, Note_on_c, 0, 68, 100
1, 298325, Note_on_c, 0, 80, 96
1, 298330, Note_on_c, 0, 78, 85
1, 298336, Note_on_c, 0, 56, 68
1, 298341, Note_on_c, 0, 75, 70
1, 298358, Note_off_c, 0, 68, 58
1, 298359, Note_off_c, 0, 56, 66
1, 298365, Note_off_c, 0, 75, 68
1, 298382, Note_off_c, 0, 78, 62
1, 298383, Note_off_c, 0, 80, 61
1, 298586, Control_c, 0, 64, 101
1, 298593, Note_on_c, 0, 92, 93
1, 298596, Note_on_c, 0, 32, 74
1, 298596, Note_on_c, 0, 80, 92
1, 298598, Note_on_c, 0, 44, 74
1, 298601, Control_c, 0, 64, 66
1, 298605, Note_off_c, 0, 92, 77
1, 298612, Note_off_c, 0, 80, 73
1, 298615, Control_c, 0, 64, 0
1, 298620, Note_off_c, 0, 44, 64
1, 298628, Note_off_c, 0, 32, 64
1, 298645, Control_c, 0, 64, 47
1, 298657, Note_on_c, 0, 92, 114
1, 298659, Control_c, 0, 64, 77
1, 298660, Note_on_c, 0, 80, 108
1, 298671, Note_on_c, 0, 32, 92
1, 298671, Note_on_c, 0, 44, 92
1, 298674, Control_c, 0, 64, 112
1, 298689, Control_c, 0, 64, 127
1, 298693, Note_off_c, 0, 92, 67
1, 298702, Note_off_c, 0, 80, 60
1, 298704, Note_off_c, 0, 32, 66
1, 298722, Note_off_c, 0, 44, 63
1, 298927, Note_on_c, 0, 77, 100
1, 298931, Note_on_c, 0, 65, 95
1, 298935, Note_on_c, 0, 68, 89
1, 298936, Note_on_c, 0, 73, 82
1, 298946, Note_on_c, 0, 61, 81
1, 298950, Note_on_c, 0, 56, 72
1, 298951, Note_on_c, 0, 53, 69
1, 298994, Note_off_c, 0, 61, 59
1, 299014, Note_off_c, 0, 56, 58
1, 299015, Note_off_c, 0, 65, 61
1, 299018, Note_off_c, 0, 68, 62
1, 299020, Note_off_c, 0, 77, 58
1, 299021, Note_off_c, 0, 53, 59
1, 299025, Note_off_c, 0, 73, 60
1, 299112, Note_on_c, 0, 65, 88
1, 299112, Note_on_c, 0, 77, 86
1, 299115, Note_on_c, 0, 68, 82
1, 299120, Note_on_c, 0, 73, 73
1, 299121, Note_on_c, 0, 61, 69
1, 299136, Note_on_c, 0, 56, 57
1, 299141, Note_on_c, 0, 53, 50
1, 299147, Note_off_c, 0, 65, 60
1, 299150, Note_off_c, 0, 68, 61
1, 299154, Note_off_c, 0, 61, 63
1, 299156, Note_off_c, 0, 73, 61
1, 299157, Note_off_c, 0, 77, 63
1, 299168, Note_off_c, 0, 53, 59
1, 299168, Note_off_c, 0, 56, 63
1, 299248, Note_on_c, 0, 68, 81
1, 299249, Note_on_c, 0, 65, 82
1, 299250, Note_on_c, 0, 77, 76
1, 299254, Note_on_c, 0, 73, 73
1, 299259, Note_on_c, 0, 61, 54
1, 299264, Note_on_c, 0, 53, 46
1, 299267, Note_on_c, 0, 56, 58
1, 299279, Note_off_c, 0, 65, 70
1, 299292, Note_off_c, 0, 73, 63
1, 299295, Note_off_c, 0, 61, 65
1, 299295, Note_off_c, 0, 68, 61
1, 299298, Note_off_c, 0, 77, 58
1, 299306, Note_off_c, 0, 56, 64
1, 299318, Note_off_c, 0, 53, 60
1, 299380, Note_on_c, 0, 65, 74
1, 299380, Note_on_c, 0, 77, 77
1, 299383, Note_on_c, 0, 73, 72
1, 299385, Note_on_c, 0, 68, 81
1, 299388, Note_on_c, 0, 56, 57
1, 299393, Note_on_c, 0, 61, 55
1, 299399, Note_on_c, 0, 53, 51
1, 299399, Note_off_c, 0, 65, 70
1, 299405, Note_off_c, 0, 68, 71
1, 299410, Note_off_c, 0, 77, 61
1, 299413, Note_off_c, 0, 73, 64
1, 299416, Note_off_c, 0, 61, 62
1, 299422, Note_off_c, 0, 56, 62
1, 299433, Note_off_c, 0, 53, 67
1, 299494, Note_on_c, 0, 68, 78
1, 299495, Note_on_c, 0, 65, 78
1, 299500, Note_on_c, 0, 77, 73
1, 299502, Note_on_c, 0, 61, 57
1, 299503, Note_on_c, 0, 73, 70
1, 299518, Note_off_c, 0, 65, 71
1, 299521, Note_on_c, 0, 53, 49
1, 299524, Note_on_c, 0, 56, 45
1, 299527, Note_off_c, 0, 77, 62
1, 299530, Note_off_c, 0, 68, 62
1, 299530, Note_off_c, 0, 73, 66
1, 299533, Note_off_c, 0, 61, 63
1, 299546, Note_off_c, 0, 56, 60
1, 299550, Note_off_c, 0, 53, 58
1, 299617, Note_on_c, 0, 65, 75
1, 299619, Note_on_c, 0, 61, 55
1, 299619, Note_on_c, 0, 73, 68
1, 299622, Note_on_c, 0, 68, 76
1, 299622, Note_on_c, 0, 77, 70
1, 299624, Note_on_c, 0, 56, 52
1, 299640, Note_on_c, 0, 53, 52
1, 299645, Note_off_c, 0, 65, 62
1, 299649, Note_off_c, 0, 77, 61
1, 299653, Note_off_c, 0, 61, 61
1, 299653, Note_off_c, 0, 68, 62
1, 299661, Note_off_c, 0, 56, 62
1, 299663, Note_off_c, 0, 73, 61
1, 299670, Note_off_c, 0, 53, 65
1, 299745, Note_on_c, 0, 61, 62
1, 299750, Note_on_c, 0, 68, 78
1, 299751, Note_on_c, 0, 65, 73
1, 299754, Note_on_c, 0, 73, 66
1, 299758, Note_on_c, 0, 77, 64
1, 299760, Note_on_c, 0, 56, 53
1, 299772, Note_on_c, 0, 53, 45
1, 299774, Note_off_c, 0, 61, 62
1, 299779, Note_off_c, 0, 65, 68
1, 299785, Note_off_c, 0, 77, 66
1, 299789, Note_off_c, 0, 56, 62
1, 299791, Note_off_c, 0, 68, 62
1, 299792, Note_off_c, 0, 73, 54
1, 299808, Note_off_c, 0, 53, 55
1, 299881, Note_on_c, 0, 56, 59
1, 299881, Note_on_c, 0, 61, 54
1, 299887, Note_on_c, 0, 73, 67
1, 299888, Note_on_c, 0, 65, 60
1, 299888, Note_on_c, 0, 77, 73
1, 299890, Note_on_c, 0, 68, 74
1, 299903, Note_off_c, 0, 65, 70
1, 299906, Note_off_c, 0, 61, 56
1, 299911, Note_off_c, 0, 56, 64
1, 299911, Note_off_c, 0, 68, 69
1, 299919, Note_on_c, 0, 53, 22
1, 299919, Note_off_c, 0, 73, 64
1, 299941, Note_off_c, 0, 77, 63
1, 299947, Note_off_c, 0, 53, 56
1, 300069, Control_c, 0, 64, 93
1, 300084, Control_c, 0, 64, 72
1, 300099, Control_c, 0, 64, 50
1, 300108, Note_on_c, 0, 89, 94
1, 300109, Note_on_c, 0, 77, 95
1, 300111, Note_on_c, 0, 80, 92
1, 300114, Control_c, 0, 64, 61
1, 300114, Note_on_c, 0, 37, 70
1, 300115, Note_on_c, 0, 49, 72
1, 300129, Control_c, 0, 64, 70
1, 300142, Note_off_c, 0, 77, 57
1, 300144, Control_c, 0, 64, 78
1, 300147, Note_off_c, 0, 37, 66
1, 300151, Note_off_c, 0, 49, 64
1, 300154, Note_off_c, 0, 89, 65
1, 300159, Control_c, 0, 64, 87
1, 300164, Note_off_c, 0, 80, 61
1, 300173, Control_c, 0, 64, 96
1, 300188, Control_c, 0, 64, 101
1, 300203, Control_c, 0, 64, 104
1, 300205, Poly_aftertouch_c, 0, 44, 0
1, 300218, Control_c, 0, 64, 105
1, 300233, Control_c, 0, 64, 106
1, 300262, Control_c, 0, 64, 106
1, 300306, Control_c, 0, 64, 107
1, 300319, Note_on_c, 0, 61, 55
1, 300321, Note_on_c, 0, 77, 68
1, 300321, Control_c, 0, 64, 107
1, 300324, Note_on_c, 0, 68, 68
1, 300326, Note_on_c, 0, 65, 60
1, 300336, Control_c, 0, 64, 108
1, 300337, Note_on_c, 0, 56, 37
1, 300340, Note_off_c, 0, 77, 62
1, 300344, Note_on_c, 0, 49, 27
1, 300344, Note_off_c, 0, 65, 65
1, 300347, Note_off_c, 0, 61, 60
1, 300350, Note_off_c, 0, 68, 66
1, 300351, Control_c, 0, 64, 109
1, 300366, Control_c, 0, 64, 112
1, 300372, Note_off_c, 0, 56, 48
1, 300380, Control_c, 0, 64, 117
1, 300383, Note_off_c, 0, 49, 44
1, 300395, Control_c, 0, 64, 127
1, 300443, Note_on_c, 0, 77, 65
1, 300445, Note_on_c, 0, 68, 63
1, 300459, Note_on_c, 0, 49, 43
1, 300475, Note_off_c, 0, 68, 66
1, 300485, Note_off_c, 0, 77, 60
1, 300488, Note_off_c, 0, 49, 51
1, 300544, Control_c, 0, 64, 96
1, 300559, Control_c, 0, 64, 77
1, 300574, Control_c, 0, 64, 67
1, 300589, Control_c, 0, 64, 68
1, 300592, Note_on_c, 0, 49, 74
1, 300592, Note_on_c, 0, 77, 100
1, 300594, Note_on_c, 0, 89, 94
1, 300597, Note_on_c, 0, 80, 91
1, 300603, Control_c, 0, 64, 76
1, 300608, Note_on_c, 0, 37, 59
1, 300610, Note_off_c, 0, 89, 71
1, 300618, Control_c, 0, 64, 87
1, 300621, Note_off_c, 0, 77, 62
1, 300633, Control_c, 0, 64, 98
1, 300634, Note_off_c, 0, 49, 61
1, 300636, Note_off_c, 0, 37, 58
1, 300636, Note_off_c, 0, 80, 60
1, 300648, Control_c, 0, 64, 107
1, 300663, Control_c, 0, 64, 112
1, 300677, Control_c, 0, 64, 113
1, 300765, Note_on_c, 0, 65, 71
1, 300776, Note_on_c, 0, 61, 64
1, 300778, Note_on_c, 0, 77, 61
1, 300789, Control_c, 0, 64, 113
1, 300796, Note_off_c, 0, 77, 60
1, 300799, Note_off_c, 0, 65, 70
1, 300803, Control_c, 0, 64, 114
1, 300807, Note_off_c, 0, 61, 64
1, 300811, Note_on_c, 0, 56, 24
1, 300818, Control_c, 0, 64, 118
1, 300833, Control_c, 0, 64, 127
1, 300883, Note_on_c, 0, 49, 47
1, 300899, Note_on_c, 0, 68, 73
1, 300901, Note_on_c, 0, 77, 58
1, 300919, Note_off_c, 0, 68, 67
1, 300919, Note_off_c, 0, 49, 61
1, 300923, Note_off_c, 0, 56, 23
1, 300924, Note_off_c, 0, 77, 63
1, 301027, Note_on_c, 0, 77, 102
1, 301029, Note_on_c, 0, 49, 82
1, 301029, Note_on_c, 0, 89, 96
1, 301035, Note_on_c, 0, 37, 68
1, 301039, Note_on_c, 0, 80, 85
1, 301046, Note_off_c, 0, 89, 76
1, 301056, Note_off_c, 0, 49, 66
1, 301057, Note_off_c, 0, 77, 64
1, 301058, Note_off_c, 0, 80, 69
1, 301064, Note_off_c, 0, 37, 66
1, 301184, Note_on_c, 0, 77, 79
1, 301184, Note_on_c, 0, 65, 76
1, 301201, Note_on_c, 0, 68, 45
1, 301202, Note_off_c, 0, 68, 127
1, 301209, Note_on_c, 0, 61, 48
1, 301210, Note_off_c, 0, 77, 62
1, 301211, Note_off_c, 0, 65, 68
1, 301222, Note_on_c, 0, 49, 26
1, 301231, Note_off_c, 0, 61, 59
1, 301251, Note_off_c, 0, 49, 47
1, 301270, Poly_aftertouch_c, 0, 56, 127
1, 301291, Note_on_c, 0, 68, 84
1, 301301, Note_on_c, 0, 49, 65
1, 301301, Note_on_c, 0, 77, 72
1, 301316, Note_off_c, 0, 68, 69
1, 301318, Note_on_c, 0, 65, 23
1, 301319, Poly_aftertouch_c, 0, 56, 0
1, 301326, Note_off_c, 0, 49, 68
1, 301326, Note_off_c, 0, 77, 66
1, 301354, Note_off_c, 0, 65, 53
1, 301381, Control_c, 0, 64, 93
1, 301396, Control_c, 0, 64, 72
1, 301411, Control_c, 0, 64, 62
1, 301424, Note_on_c, 0, 46, 88
1, 301425, Control_c, 0, 64, 69
1, 301428, Note_on_c, 0, 34, 71
1, 301431, Note_on_c, 0, 80, 109
1, 301435, Note_on_c, 0, 92, 80
1, 301440, Control_c, 0, 64, 78
1, 301450, Note_on_c, 0, 85, 63
1, 301452, Note_off_c, 0, 46, 67
1, 301454, Note_off_c, 0, 34, 65
1, 301455, Note_off_c, 0, 92, 72
1, 301455, Control_c, 0, 64, 91
1, 301464, Note_off_c, 0, 80, 64
1, 301467, Note_off_c, 0, 85, 65
1, 301470, Control_c, 0, 64, 109
1, 301485, Control_c, 0, 64, 124
1, 301500, Control_c, 0, 64, 127
1, 301581, Note_on_c, 0, 68, 91
1, 301582, Note_on_c, 0, 80, 82
1, 301595, Note_on_c, 0, 58, 64
1, 301602, Note_off_c, 0, 68, 66
1, 301604, Note_off_c, 0, 80, 65
1, 301626, Note_off_c, 0, 58, 66
1, 301701, Note_on_c, 0, 80, 80
1, 301703, Note_on_c, 0, 46, 71
1, 301713, Note_on_c, 0, 68, 52
1, 301723, Poly_aftertouch_c, 0, 53, 127
1, 301728, Note_off_c, 0, 80, 56
1, 301729, Note_on_c, 0, 73, 30
1, 301730, Note_off_c, 0, 73, 127
1, 301730, Note_off_c, 0, 68, 67
1, 301731, Note_off_c, 0, 46, 66
1, 301750, Poly_aftertouch_c, 0, 53, 0
1, 301774, Control_c, 0, 64, 97
1, 301789, Control_c, 0, 64, 76
1, 301804, Control_c, 0, 64, 63
1, 301818, Control_c, 0, 64, 66
1, 301831, Note_on_c, 0, 34, 83
1, 301831, Note_on_c, 0, 46, 86
1, 301833, Control_c, 0, 64, 74
1, 301834, Note_on_c, 0, 79, 86
1, 301834, Note_on_c, 0, 91, 96
1, 301837, Note_on_c, 0, 77, 91
1, 301846, Note_on_c, 0, 89, 75
1, 301848, Note_off_c, 0, 91, 67
1, 301848, Control_c, 0, 64, 90
1, 301853, Note_on_c, 0, 84, 66
1, 301854, Note_off_c, 0, 77, 67
1, 301855, Note_off_c, 0, 79, 67
1, 301857, Note_off_c, 0, 34, 67
1, 301861, Note_off_c, 0, 89, 66
1, 301862, Note_off_c, 0, 46, 64
1, 301863, Control_c, 0, 64, 106
1, 301866, Note_on_c, 0, 85, 23
1, 301867, Note_off_c, 0, 85, 127
1, 301870, Note_off_c, 0, 84, 66
1, 301877, Control_c, 0, 64, 126
1, 301892, Control_c, 0, 64, 127
1, 301908, Poly_aftertouch_c, 0, 85, 0
1, 301973, Note_on_c, 0, 79, 88
1, 301975, Note_on_c, 0, 67, 87
1, 301980, Note_on_c, 0, 73, 79
1, 301996, Note_on_c, 0, 58, 63
1, 301997, Note_off_c, 0, 67, 68
1, 302004, Note_off_c, 0, 73, 69
1, 302004, Note_on_c, 0, 46, 48
1, 302011, Note_off_c, 0, 79, 50
1, 302025, Note_off_c, 0, 58, 67
1, 302025, Note_off_c, 0, 46, 61
1, 302092, Note_on_c, 0, 46, 64
1, 302108, Note_on_c, 0, 79, 92
1, 302111, Note_on_c, 0, 67, 81
1, 302112, Note_on_c, 0, 73, 81
1, 302126, Note_off_c, 0, 46, 63
1, 302129, Note_off_c, 0, 67, 72
1, 302156, Note_off_c, 0, 79, 60
1, 302160, Note_off_c, 0, 73, 63
1, 302287, Control_c, 0, 64, 102
1, 302301, Control_c, 0, 64, 74
1, 302316, Control_c, 0, 64, 0
1, 302338, Note_on_c, 0, 72, 100
1, 302338, Note_on_c, 0, 84, 104
1, 302340, Note_on_c, 0, 48, 80
1, 302341, Note_on_c, 0, 36, 69
1, 302341, Note_on_c, 0, 76, 92
1, 302349, Note_on_c, 0, 43, 64
1, 302351, Note_on_c, 0, 40, 63
1, 302375, Control_c, 0, 64, 63
1, 302383, Note_off_c, 0, 72, 0
1, 302390, Control_c, 0, 64, 77
1, 302400, Note_off_c, 0, 40, 61
1, 302403, Note_off_c, 0, 43, 57
1, 302405, Control_c, 0, 64, 95
1, 302409, Note_off_c, 0, 36, 63
1, 302420, Control_c, 0, 64, 117
1, 302421, Poly_aftertouch_c, 0, 72, 127
1, 302433, Note_off_c, 0, 84, 62
1, 302435, Control_c, 0, 64, 125
1, 302442, Poly_aftertouch_c, 0, 72, 0
1, 302445, Note_off_c, 0, 48, 63
1, 302449, Control_c, 0, 64, 126
1, 302454, Note_off_c, 0, 76, 63
1, 302574, Note_on_c, 0, 48, 55
1, 302583, Note_on_c, 0, 55, 54
1, 302592, Note_on_c, 0, 60, 71
1, 302597, Note_on_c, 0, 52, 41
1, 302600, Note_on_c, 0, 72, 54
1, 302603, Note_on_c, 0, 64, 58
1, 302609, Note_off_c, 0, 60, 68
1, 302610, Note_off_c, 0, 55, 63
1, 302616, Note_off_c, 0, 48, 61
1, 302618, Note_off_c, 0, 72, 64
1, 302625, Note_off_c, 0, 64, 64
1, 302637, Note_off_c, 0, 52, 51
1, 302707, Note_on_c, 0, 73, 73
1, 302708, Note_on_c, 0, 54, 61
1, 302709, Note_on_c, 0, 61, 66
1, 302721, Note_on_c, 0, 65, 53
1, 302732, Note_off_c, 0, 61, 64
1, 302734, Note_on_c, 0, 48, 37
1, 302734, Note_off_c, 0, 73, 62
1, 302735, Note_on_c, 0, 56, 42
1, 302740, Note_off_c, 0, 54, 62
1, 302743, Note_off_c, 0, 65, 61
1, 302756, Note_off_c, 0, 48, 62
1, 302765, Note_off_c, 0, 56, 49
1, 302818, Note_on_c, 0, 66, 81
1, 302820, Note_on_c, 0, 74, 78
1, 302820, Note_on_c, 0, 62, 75
1, 302824, Note_on_c, 0, 57, 66
1, 302825, Note_on_c, 0, 54, 55
1, 302840, Note_on_c, 0, 48, 48
1, 302843, Note_off_c, 0, 74, 71
1, 302847, Note_off_c, 0, 62, 66
1, 302850, Note_off_c, 0, 54, 61
1, 302852, Note_off_c, 0, 57, 65
1, 302865, Note_off_c, 0, 66, 66
1, 302876, Note_off_c, 0, 48, 51
1, 302918, Note_on_c, 0, 56, 76
1, 302918, Note_on_c, 0, 63, 83
1, 302925, Note_on_c, 0, 67, 71
1, 302926, Note_on_c, 0, 75, 74
1, 302941, Note_on_c, 0, 58, 54
1, 302946, Note_off_c, 0, 63, 65
1, 302952, Note_off_c, 0, 75, 68
1, 302952, Note_off_c, 0, 67, 67
1, 302962, Note_off_c, 0, 58, 63
1, 302967, Note_off_c, 0, 56, 64
1, 303033, Note_on_c, 0, 48, 39
1, 303035, Note_on_c, 0, 76, 87
1, 303037, Note_on_c, 0, 64, 86
1, 303038, Note_on_c, 0, 68, 89
1, 303045, Note_on_c, 0, 59, 65
1, 303050, Control_c, 0, 64, 127
1, 303057, Note_off_c, 0, 64, 71
1, 303063, Note_on_c, 0, 56, 47
1, 303067, Note_off_c, 0, 48, 64
1, 303073, Note_off_c, 0, 59, 65
1, 303075, Note_off_c, 0, 76, 64
1, 303081, Note_off_c, 0, 68, 64
1, 303090, Note_off_c, 0, 56, 57
1, 303124, Control_c, 0, 64, 103
1, 303139, Control_c, 0, 64, 76
1, 303139, Note_on_c, 0, 69, 98
1, 303142, Note_on_c, 0, 65, 100
1, 303142, Note_on_c, 0, 77, 97
1, 303145, Note_on_c, 0, 57, 75
1, 303151, Note_on_c, 0, 48, 63
1, 303154, Control_c, 0, 64, 0
1, 303154, Note_on_c, 0, 60, 62
1, 303218, Note_off_c, 0, 57, 61
1, 303228, Control_c, 0, 64, 52
1, 303232, Note_off_c, 0, 60, 55
1, 303235, Note_off_c, 0, 65, 61
1, 303239, Note_off_c, 0, 77, 58
1, 303243, Control_c, 0, 64, 70
1, 303245, Note_off_c, 0, 69, 63
1, 303249, Note_off_c, 0, 48, 59
1, 303257, Control_c, 0, 64, 79
1, 303272, Control_c, 0, 64, 88
1, 303287, Control_c, 0, 64, 94
1, 303302, Control_c, 0, 64, 98
1, 303317, Control_c, 0, 64, 101
1, 303330, Note_on_c, 0, 68, 83
1, 303331, Control_c, 0, 64, 105
1, 303332, Note_on_c, 0, 56, 64
1, 303334, Note_on_c, 0, 76, 69
1, 303336, Note_on_c, 0, 64, 68
1, 303341, Note_on_c, 0, 59, 55
1, 303342, Note_on_c, 0, 48, 43
1, 303346, Control_c, 0, 64, 108
1, 303351, Note_off_c, 0, 76, 68
1, 303355, Note_off_c, 0, 64, 66
1, 303361, Control_c, 0, 64, 115
1, 303363, Note_off_c, 0, 59, 62
1, 303372, Note_off_c, 0, 48, 56
1, 303376, Note_off_c, 0, 56, 60
1, 303376, Control_c, 0, 64, 127
1, 303381, Note_off_c, 0, 68, 64
1, 303438, Note_on_c, 0, 63, 86
1, 303441, Note_on_c, 0, 75, 79
1, 303442, Note_on_c, 0, 67, 72
1, 303449, Note_on_c, 0, 58, 73
1, 303456, Note_on_c, 0, 55, 69
1, 303466, Note_on_c, 0, 48, 51
1, 303479, Note_off_c, 0, 58, 66
1, 303479, Control_c, 0, 64, 114
1, 303482, Note_off_c, 0, 75, 62
1, 303485, Note_off_c, 0, 55, 65
1, 303485, Note_off_c, 0, 67, 60
1, 303485, Note_off_c, 0, 63, 63
1, 303494, Control_c, 0, 64, 92
1, 303509, Control_c, 0, 64, 74
1, 303516, Note_off_c, 0, 48, 52
1, 303524, Control_c, 0, 64, 62
1, 303539, Control_c, 0, 64, 63
1, 303554, Control_c, 0, 64, 68
1, 303559, Note_on_c, 0, 62, 80
1, 303560, Note_on_c, 0, 74, 78
1, 303561, Note_on_c, 0, 66, 85
1, 303566, Note_on_c, 0, 57, 61
1, 303569, Control_c, 0, 64, 74
1, 303579, Note_on_c, 0, 54, 50
1, 303581, Note_off_c, 0, 74, 71
1, 303581, Note_off_c, 0, 62, 69
1, 303584, Control_c, 0, 64, 81
1, 303593, Note_off_c, 0, 57, 64
1, 303598, Control_c, 0, 64, 86
1, 303604, Note_off_c, 0, 54, 58
1, 303607, Note_off_c, 0, 66, 65
1, 303613, Control_c, 0, 64, 89
1, 303626, Control_c, 0, 64, 91
1, 303640, Control_c, 0, 64, 92
1, 303655, Control_c, 0, 64, 93
1, 303661, Note_on_c, 0, 61, 86
1, 303666, Note_on_c, 0, 73, 79
1, 303667, Note_on_c, 0, 65, 74
1, 303670, Control_c, 0, 64, 94
1, 303683, Note_on_c, 0, 56, 58
1, 303685, Control_c, 0, 64, 95
1, 303687, Note_off_c, 0, 73, 71
1, 303696, Note_on_c, 0, 53, 53
1, 303698, Note_off_c, 0, 61, 60
1, 303699, Note_off_c, 0, 65, 67
1, 303701, Control_c, 0, 64, 95
1, 303716, Control_c, 0, 64, 96
1, 303721, Note_off_c, 0, 56, 62
1, 303731, Control_c, 0, 64, 96
1, 303745, Control_c, 0, 64, 97
1, 303768, Control_c, 0, 64, 99
1, 303783, Control_c, 0, 64, 100
1, 303784, Note_on_c, 0, 72, 88
1, 303785, Note_on_c, 0, 64, 79
1, 303789, Note_on_c, 0, 60, 74
1, 303798, Control_c, 0, 64, 102
1, 303799, Note_on_c, 0, 55, 72
1, 303803, Note_on_c, 0, 48, 53
1, 303804, Note_off_c, 0, 53, 48
1, 303805, Note_off_c, 0, 60, 65
1, 303807, Note_off_c, 0, 64, 71
1, 303812, Note_on_c, 0, 52, 59
1, 303813, Control_c, 0, 64, 104
1, 303827, Control_c, 0, 64, 108
1, 303828, Note_off_c, 0, 55, 65
1, 303835, Note_off_c, 0, 52, 65
1, 303841, Note_off_c, 0, 72, 67
1, 303842, Control_c, 0, 64, 114
1, 303853, Note_off_c, 0, 48, 66
1, 303857, Control_c, 0, 64, 127
1, 304005, Control_c, 0, 64, 107
1, 304019, Control_c, 0, 64, 79
1, 304034, Control_c, 0, 64, 0
1, 304036, Note_on_c, 0, 92, 106
1, 304037, Note_on_c, 0, 84, 91
1, 304039, Note_on_c, 0, 80, 103
1, 304044, Note_on_c, 0, 53, 91
1, 304046, Note_on_c, 0, 41, 84
1, 304052, Note_on_c, 0, 48, 75
1, 304078, Note_on_c, 0, 90, 34
1, 304084, Note_off_c, 0, 48, 67
1, 304090, Note_off_c, 0, 41, 64
1, 304093, Note_off_c, 0, 92, 65
1, 304093, Control_c, 0, 64, 71
1, 304102, Note_off_c, 0, 84, 64
1, 304108, Note_off_c, 0, 53, 64
1, 304108, Note_off_c, 0, 90, 34
1, 304108, Control_c, 0, 64, 85
1, 304116, Note_off_c, 0, 80, 64
1, 304123, Control_c, 0, 64, 102
1, 304138, Control_c, 0, 64, 108
1, 304244, Note_on_c, 0, 68, 76
1, 304253, Note_on_c, 0, 80, 61
1, 304256, Note_on_c, 0, 65, 55
1, 304260, Note_on_c, 0, 56, 52
1, 304262, Note_on_c, 0, 60, 52
1, 304263, Note_on_c, 0, 72, 49
1, 304267, Note_off_c, 0, 68, 70
1, 304270, Note_off_c, 0, 80, 63
1, 304275, Note_off_c, 0, 65, 63
1, 304286, Control_c, 0, 64, 109
1, 304287, Note_off_c, 0, 56, 58
1, 304287, Note_off_c, 0, 72, 57
1, 304290, Note_off_c, 0, 60, 58
1, 304301, Control_c, 0, 64, 110
1, 304316, Control_c, 0, 64, 114
1, 304331, Control_c, 0, 64, 127
1, 304349, Note_on_c, 0, 80, 79
1, 304364, Note_on_c, 0, 68, 52
1, 304369, Note_on_c, 0, 72, 44
1, 304381, Note_off_c, 0, 68, 65
1, 304383, Note_on_c, 0, 56, 47
1, 304394, Note_off_c, 0, 72, 56
1, 304406, Note_off_c, 0, 56, 59
1, 304407, Note_off_c, 0, 80, 64
1, 304449, Control_c, 0, 64, 96
1, 304463, Control_c, 0, 64, 75
1, 304478, Control_c, 0, 64, 49
1, 304494, Note_on_c, 0, 92, 109
1, 304494, Control_c, 0, 64, 55
1, 304496, Note_on_c, 0, 53, 87
1, 304497, Note_on_c, 0, 80, 96
1, 304499, Note_on_c, 0, 41, 85
1, 304505, Note_on_c, 0, 84, 79
1, 304509, Control_c, 0, 64, 70
1, 304531, Control_c, 0, 64, 84
1, 304532, Note_off_c, 0, 41, 68
1, 304533, Note_off_c, 0, 84, 71
1, 304540, Note_off_c, 0, 92, 63
1, 304546, Control_c, 0, 64, 100
1, 304552, Note_off_c, 0, 80, 64
1, 304553, Note_off_c, 0, 53, 62
1, 304561, Control_c, 0, 64, 113
1, 304576, Control_c, 0, 64, 115
1, 304660, Note_on_c, 0, 68, 84
1, 304664, Note_on_c, 0, 80, 78
1, 304676, Note_on_c, 0, 72, 58
1, 304684, Note_off_c, 0, 68, 68
1, 304684, Note_on_c, 0, 56, 50
1, 304688, Note_on_c, 0, 65, 46
1, 304692, Note_off_c, 0, 80, 60
1, 304695, Note_on_c, 0, 60, 40
1, 304707, Note_off_c, 0, 56, 60
1, 304707, Note_off_c, 0, 72, 66
1, 304713, Note_off_c, 0, 65, 57
1, 304724, Control_c, 0, 64, 116
1, 304739, Control_c, 0, 64, 120
1, 304754, Control_c, 0, 64, 127
1, 304775, Note_on_c, 0, 72, 73
1, 304779, Note_on_c, 0, 80, 76
1, 304780, Note_on_c, 0, 56, 65
1, 304783, Note_off_c, 0, 60, 0
1, 304783, Note_on_c, 0, 60, 21
1, 304792, Note_on_c, 0, 68, 23
1, 304799, Note_off_c, 0, 72, 70
1, 304810, Note_off_c, 0, 56, 64
1, 304826, Note_off_c, 0, 80, 63
1, 304827, Note_off_c, 0, 60, 21
1, 304830, Note_off_c, 0, 68, 51
1, 304857, Control_c, 0, 64, 114
1, 304872, Control_c, 0, 64, 84
1, 304887, Control_c, 0, 64, 54
1, 304901, Control_c, 0, 64, 0
1, 304913, Note_on_c, 0, 49, 95
1, 304916, Note_on_c, 0, 96, 102
1, 304922, Note_on_c, 0, 88, 79
1, 304923, Note_on_c, 0, 89, 79
1, 304924, Note_on_c, 0, 84, 80
1, 304925, Note_on_c, 0, 86, 75
1, 304928, Note_off_c, 0, 96, 75
1, 304931, Control_c, 0, 64, 67
1, 304938, Note_off_c, 0, 84, 72
1, 304938, Note_off_c, 0, 89, 71
1, 304941, Note_off_c, 0, 86, 69
1, 304944, Note_off_c, 0, 88, 68
1, 304946, Control_c, 0, 64, 81
1, 304949, Note_off_c, 0, 49, 63
1, 304961, Control_c, 0, 64, 101
1, 304976, Control_c, 0, 64, 119
1, 304991, Control_c, 0, 64, 121
1, 305014, Poly_aftertouch_c, 0, 37, 0
1, 305063, Note_on_c, 0, 76, 88
1, 305074, Note_on_c, 0, 64, 55
1, 305077, Note_on_c, 0, 58, 48
1, 305079, Note_on_c, 0, 72, 67
1, 305083, Note_on_c, 0, 84, 47
1, 305095, Note_off_c, 0, 64, 60
1, 305095, Note_off_c, 0, 72, 65
1, 305101, Note_off_c, 0, 58, 60
1, 305101, Note_off_c, 0, 76, 68
1, 305107, Note_off_c, 0, 84, 56
1, 305108, Note_on_c, 0, 56, 4
1, 305155, Control_c, 0, 64, 125
1, 305159, Note_off_c, 0, 56, 0
1, 305169, Control_c, 0, 64, 127
1, 305172, Poly_aftertouch_c, 0, 56, 0
1, 305176, Note_on_c, 0, 58, 72
1, 305176, Note_on_c, 0, 76, 90
1, 305187, Note_on_c, 0, 84, 66
1, 305189, Note_on_c, 0, 56, 23
1, 305206, Note_off_c, 0, 58, 66
1, 305209, Note_off_c, 0, 76, 66
1, 305214, Note_off_c, 0, 84, 62
1, 305225, Note_off_c, 0, 56, 44
1, 305258, Control_c, 0, 64, 109
1, 305280, Control_c, 0, 64, 81
1, 305296, Control_c, 0, 64, 0
1, 305321, Note_on_c, 0, 49, 90
1, 305321, Note_on_c, 0, 82, 106
1, 305321, Note_on_c, 0, 94, 98
1, 305333, Note_on_c, 0, 37, 64
1, 305336, Note_on_c, 0, 88, 72
1, 305339, Note_off_c, 0, 94, 67
1, 305340, Control_c, 0, 64, 66
1, 305345, Note_on_c, 0, 92, 54
1, 305346, Note_off_c, 0, 49, 63
1, 305351, Note_off_c, 0, 88, 67
1, 305355, Control_c, 0, 64, 79
1, 305358, Note_off_c, 0, 37, 58
1, 305364, Note_off_c, 0, 82, 60
1, 305368, Note_off_c, 0, 92, 55
1, 305370, Control_c, 0, 64, 97
1, 305385, Control_c, 0, 64, 119
1, 305399, Control_c, 0, 64, 120
1, 305470, Note_on_c, 0, 70, 92
1, 305475, Note_on_c, 0, 76, 84
1, 305478, Note_on_c, 0, 82, 70
1, 305485, Note_on_c, 0, 64, 54
1, 305492, Note_off_c, 0, 70, 63
1, 305494, Note_on_c, 0, 58, 37
1, 305497, Note_off_c, 0, 82, 66
1, 305500, Note_off_c, 0, 76, 64
1, 305508, Note_off_c, 0, 64, 61
1, 305509, Note_on_c, 0, 78, 33
1, 305521, Note_off_c, 0, 58, 55
1, 305541, Note_off_c, 0, 78, 41
1, 305560, Poly_aftertouch_c, 0, 56, 0
1, 305593, Control_c, 0, 64, 121
1, 305593, Note_on_c, 0, 70, 89
1, 305598, Note_on_c, 0, 58, 64
1, 305598, Poly_aftertouch_c, 0, 56, 127
1, 305602, Note_on_c, 0, 81, 85
1, 305608, Control_c, 0, 64, 121
1, 305614, Note_off_c, 0, 70, 65
1, 305616, Note_off_c, 0, 58, 64
1, 305623, Control_c, 0, 64, 123
1, 305625, Poly_aftertouch_c, 0, 56, 0
1, 305637, Note_on_c, 0, 78, 21
1, 305637, Control_c, 0, 64, 127
1, 305646, Note_off_c, 0, 81, 64
1, 305673, Note_off_c, 0, 78, 31
1, 305756, Control_c, 0, 64, 106
1, 305771, Control_c, 0, 64, 70
1, 305786, Control_c, 0, 64, 0
1, 305798, Note_on_c, 0, 87, 104
1, 305801, Note_on_c, 0, 51, 95
1, 305801, Note_on_c, 0, 79, 96
1, 305801, Note_on_c, 0, 75, 108
1, 305806, Note_on_c, 0, 39, 78
1, 305807, Note_on_c, 0, 46, 83
1, 305830, Control_c, 0, 64, 47
1, 305844, Control_c, 0, 64, 74
1, 305849, Note_off_c, 0, 87, 65
1, 305859, Note_off_c, 0, 39, 60
1, 305859, Control_c, 0, 64, 92
1, 305863, Note_off_c, 0, 79, 57
1, 305867, Note_off_c, 0, 46, 62
1, 305874, Control_c, 0, 64, 118
1, 305878, Note_off_c, 0, 51, 60
1, 305879, Note_off_c, 0, 75, 65
1, 305889, Control_c, 0, 64, 124
1, 306025, Note_on_c, 0, 63, 80
1, 306033, Note_on_c, 0, 75, 71
1, 306034, Note_on_c, 0, 58, 53
1, 306051, Note_off_c, 0, 63, 64
1, 306064, Note_off_c, 0, 75, 66
1, 306073, Note_off_c, 0, 58, 63
1, 306079, Note_on_c, 0, 51, 6
1, 306110, Note_off_c, 0, 51, 0
1, 306147, Poly_aftertouch_c, 0, 51, 127
1, 306148, Note_on_c, 0, 56, 58
1, 306151, Note_on_c, 0, 68, 74
1, 306153, Note_on_c, 0, 76, 68
1, 306155, Note_on_c, 0, 64, 60
1, 306174, Note_off_c, 0, 64, 63
1, 306175, Note_on_c, 0, 59, 31
1, 306176, Note_off_c, 0, 76, 72
1, 306180, Note_off_c, 0, 68, 65
1, 306184, Note_off_c, 0, 56, 60
1, 306206, Poly_aftertouch_c, 0, 51, 0
1, 306207, Note_off_c, 0, 59, 46
1, 306260, Note_on_c, 0, 65, 82
1, 306260, Note_on_c, 0, 69, 79
1, 306262, Note_on_c, 0, 60, 58
1, 306263, Note_on_c, 0, 57, 52
1, 306264, Note_on_c, 0, 77, 76
1, 306269, Note_on_c, 0, 51, 34
1, 306278, Note_off_c, 0, 77, 67
1, 306279, Note_off_c, 0, 65, 72
1, 306284, Note_off_c, 0, 60, 63
1, 306286, Note_off_c, 0, 57, 61
1, 306288, Note_off_c, 0, 69, 64
1, 306290, Note_off_c, 0, 51, 56
1, 306356, Note_on_c, 0, 66, 84
1, 306358, Note_on_c, 0, 78, 89
1, 306359, Note_on_c, 0, 51, 64
1, 306362, Note_on_c, 0, 58, 70
1, 306362, Note_on_c, 0, 70, 82
1, 306368, Note_on_c, 0, 61, 64
1, 306376, Note_off_c, 0, 66, 73
1, 306377, Note_off_c, 0, 78, 69
1, 306395, Note_off_c, 0, 58, 63
1, 306399, Note_off_c, 0, 61, 64
1, 306402, Note_off_c, 0, 51, 55
1, 306406, Note_off_c, 0, 70, 58
1, 306445, Control_c, 0, 64, 127
1, 306461, Note_on_c, 0, 70, 58
1, 306463, Note_on_c, 0, 67, 92
1, 306466, Note_on_c, 0, 79, 86
1, 306468, Note_on_c, 0, 51, 52
1, 306470, Note_on_c, 0, 62, 72
1, 306471, Note_on_c, 0, 71, 79
1, 306481, Note_off_c, 0, 70, 63
1, 306492, Note_off_c, 0, 67, 60
1, 306498, Note_off_c, 0, 79, 60
1, 306499, Note_off_c, 0, 62, 65
1, 306504, Note_off_c, 0, 51, 61
1, 306504, Note_off_c, 0, 71, 55
1, 306535, Control_c, 0, 64, 110
1, 306549, Control_c, 0, 64, 82
1, 306564, Control_c, 0, 64, 0
1, 306565, Note_on_c, 0, 61, 76
1, 306565, Note_on_c, 0, 80, 91
1, 306566, Note_on_c, 0, 68, 99
1, 306566, Note_on_c, 0, 72, 86
1, 306580, Note_on_c, 0, 63, 76
1, 306588, Note_on_c, 0, 51, 63
1, 306625, Note_off_c, 0, 61, 62
1, 306638, Control_c, 0, 64, 67
1, 306640, Note_off_c, 0, 80, 62
1, 306645, Note_off_c, 0, 63, 55
1, 306646, Note_off_c, 0, 68, 62
1, 306653, Control_c, 0, 64, 78
1, 306654, Note_off_c, 0, 51, 52
1, 306655, Note_off_c, 0, 72, 58
1, 306667, Control_c, 0, 64, 90
1, 306682, Control_c, 0, 64, 98
1, 306697, Control_c, 0, 64, 100
1, 306712, Control_c, 0, 64, 101
1, 306727, Control_c, 0, 64, 104
1, 306736, Note_on_c, 0, 79, 72
1, 306737, Note_on_c, 0, 67, 74
1, 306737, Note_on_c, 0, 71, 66
1, 306741, Control_c, 0, 64, 107
1, 306756, Control_c, 0, 64, 114
1, 306757, Note_on_c, 0, 62, 55
1, 306768, Note_off_c, 0, 67, 69
1, 306769, Note_on_c, 0, 59, 52
1, 306770, Note_off_c, 0, 79, 62
1, 306779, Control_c, 0, 64, 127
1, 306787, Note_on_c, 0, 51, 13
1, 306788, Note_off_c, 0, 71, 57
1, 306788, Note_off_c, 0, 62, 56
1, 306808, Note_off_c, 0, 59, 61
1, 306818, Note_off_c, 0, 51, 43
1, 306856, Note_on_c, 0, 78, 86
1, 306860, Note_on_c, 0, 66, 78
1, 306861, Note_on_c, 0, 70, 77
1, 306863, Note_on_c, 0, 58, 66
1, 306867, Note_on_c, 0, 61, 66
1, 306876, Note_off_c, 0, 78, 68
1, 306883, Note_off_c, 0, 66, 70
1, 306883, Note_on_c, 0, 51, 42
1, 306895, Note_off_c, 0, 58, 65
1, 306899, Note_off_c, 0, 61, 62
1, 306909, Note_off_c, 0, 70, 57
1, 306928, Control_c, 0, 64, 96
1, 306943, Control_c, 0, 64, 75
1, 306958, Control_c, 0, 64, 38
1, 306959, Note_off_c, 0, 51, 0
1, 306965, Note_on_c, 0, 77, 83
1, 306968, Note_on_c, 0, 65, 81
1, 306970, Note_on_c, 0, 57, 66
1, 306970, Note_on_c, 0, 69, 78
1, 306972, Control_c, 0, 64, 0
1, 306974, Note_on_c, 0, 70, 28
1, 306975, Note_off_c, 0, 70, 127
1, 306979, Note_on_c, 0, 60, 65
1, 306987, Control_c, 0, 64, 54
1, 306991, Note_off_c, 0, 65, 69
1, 306992, Note_off_c, 0, 77, 58
1, 306995, Note_off_c, 0, 69, 68
1, 306996, Poly_aftertouch_c, 0, 51, 127
1, 307000, Note_off_c, 0, 57, 64
1, 307002, Control_c, 0, 64, 68
1, 307006, Note_off_c, 0, 60, 66
1, 307017, Control_c, 0, 64, 78
1, 307032, Control_c, 0, 64, 88
1, 307046, Control_c, 0, 64, 94
1, 307061, Control_c, 0, 64, 96
1, 307065, Poly_aftertouch_c, 0, 51, 0
1, 307077, Note_on_c, 0, 68, 89
1, 307078, Note_on_c, 0, 51, 45
1, 307078, Note_on_c, 0, 64, 82
1, 307078, Note_on_c, 0, 76, 80
1, 307088, Note_on_c, 0, 59, 61
1, 307090, Control_c, 0, 64, 97
1, 307098, Note_off_c, 0, 76, 72
1, 307099, Note_off_c, 0, 64, 71
1, 307105, Note_on_c, 0, 56, 39
1, 307119, Note_off_c, 0, 68, 66
1, 307120, Control_c, 0, 64, 97
1, 307121, Note_off_c, 0, 59, 63
1, 307135, Note_off_c, 0, 56, 48
1, 307135, Control_c, 0, 64, 98
1, 307144, Note_off_c, 0, 51, 55
1, 307150, Control_c, 0, 64, 99
1, 307164, Control_c, 0, 64, 101
1, 307179, Control_c, 0, 64, 103
1, 307183, Note_on_c, 0, 75, 93
1, 307185, Note_on_c, 0, 63, 88
1, 307189, Note_on_c, 0, 51, 48
1, 307190, Note_on_c, 0, 67, 81
1, 307191, Note_on_c, 0, 55, 68
1, 307192, Note_on_c, 0, 58, 75
1, 307194, Control_c, 0, 64, 106
1, 307204, Note_off_c, 0, 63, 72
1, 307209, Control_c, 0, 64, 109
1, 307224, Control_c, 0, 64, 112
1, 307227, Note_off_c, 0, 67, 58
1, 307229, Note_off_c, 0, 55, 63
1, 307238, Control_c, 0, 64, 119
1, 307247, Note_off_c, 0, 58, 61
1, 307253, Control_c, 0, 64, 127
1, 307257, Note_off_c, 0, 75, 63
1, 307271, Note_off_c, 0, 51, 61
1, 307415, Control_c, 0, 64, 121
1, 307430, Control_c, 0, 64, 85
1, 307445, Control_c, 0, 64, 34
1, 307460, Control_c, 0, 64, 0
1, 307468, Note_on_c, 0, 57, 93
1, 307468, Note_on_c, 0, 99, 108
1, 307469, Note_on_c, 0, 85, 97
1, 307470, Note_on_c, 0, 90, 98
1, 307472, Note_on_c, 0, 51, 82
1, 307474, Note_on_c, 0, 54, 76
1, 307477, Note_on_c, 0, 45, 76
1, 307477, Note_on_c, 0, 87, 90
1, 307493, Note_on_c, 0, 97, 53
1, 307495, Note_off_c, 0, 87, 63
1, 307504, Control_c, 0, 64, 67
1, 307520, Note_off_c, 0, 45, 64
1, 307527, Note_off_c, 0, 99, 69
1, 307527, Control_c, 0, 64, 93
1, 307529, Note_off_c, 0, 97, 50
1, 307539, Note_off_c, 0, 51, 61
1, 307540, Note_off_c, 0, 57, 55
1, 307542, Control_c, 0, 64, 127
1, 307546, Note_off_c, 0, 85, 62
1, 307553, Note_off_c, 0, 54, 60
1, 307561, Note_off_c, 0, 90, 62
1, 307716, Note_on_c, 0, 87, 74
1, 307727, Note_on_c, 0, 73, 65
1, 307730, Note_on_c, 0, 78, 59
1, 307733, Note_on_c, 0, 61, 49
1, 307735, Note_on_c, 0, 66, 50
1, 307737, Note_on_c, 0, 69, 50
1, 307742, Note_off_c, 0, 87, 63
1, 307744, Note_on_c, 0, 63, 37
1, 307745, Note_off_c, 0, 73, 59
1, 307749, Note_off_c, 0, 78, 60
1, 307758, Note_off_c, 0, 66, 61
1, 307759, Note_off_c, 0, 69, 61
1, 307762, Note_off_c, 0, 61, 60
1, 307775, Note_off_c, 0, 63, 48
1, 307833, Note_on_c, 0, 78, 70
1, 307837, Note_on_c, 0, 87, 77
1, 307839, Note_on_c, 0, 73, 54
1, 307840, Note_on_c, 0, 69, 55
1, 307840, Note_on_c, 0, 75, 66
1, 307844, Note_on_c, 0, 66, 55
1, 307850, Note_on_c, 0, 61, 58
1, 307858, Note_off_c, 0, 75, 64
1, 307859, Note_off_c, 0, 73, 62
1, 307861, Note_off_c, 0, 78, 63
1, 307862, Note_off_c, 0, 87, 64
1, 307873, Note_off_c, 0, 69, 67
1, 307879, Note_off_c, 0, 66, 65
1, 307883, Note_off_c, 0, 61, 62
1, 307884, Note_on_c, 0, 63, 21
1, 307950, Note_on_c, 0, 73, 64
1, 307951, Note_on_c, 0, 87, 77
1, 307952, Note_on_c, 0, 78, 83
1, 307962, Note_off_c, 0, 63, 0
1, 307963, Note_on_c, 0, 66, 62
1, 307964, Note_on_c, 0, 61, 60
1, 307972, Note_on_c, 0, 69, 52
1, 307978, Note_on_c, 0, 75, 27
1, 307979, Note_off_c, 0, 73, 66
1, 307984, Note_on_c, 0, 63, 14
1, 307987, Note_off_c, 0, 87, 55
1, 307993, Note_off_c, 0, 66, 66
1, 307995, Note_off_c, 0, 69, 59
1, 307997, Note_off_c, 0, 78, 62
1, 308001, Note_off_c, 0, 61, 59
1, 308015, Note_off_c, 0, 75, 31
1, 308031, Note_off_c, 0, 63, 38
1, 308062, Note_on_c, 0, 78, 77
1, 308064, Note_on_c, 0, 73, 70
1, 308068, Note_on_c, 0, 87, 75
1, 308075, Note_on_c, 0, 66, 60
1, 308076, Note_on_c, 0, 69, 62
1, 308079, Note_on_c, 0, 61, 63
1, 308088, Note_off_c, 0, 73, 65
1, 308091, Note_on_c, 0, 63, 37
1, 308100, Note_off_c, 0, 87, 61
1, 308107, Note_off_c, 0, 66, 66
1, 308109, Note_off_c, 0, 78, 64
1, 308110, Note_off_c, 0, 69, 63
1, 308121, Note_off_c, 0, 63, 52
1, 308164, Note_off_c, 0, 61, 0
1, 308173, Note_on_c, 0, 78, 78
1, 308173, Note_on_c, 0, 87, 85
1, 308174, Note_on_c, 0, 66, 67
1, 308174, Note_on_c, 0, 73, 75
1, 308180, Note_on_c, 0, 63, 56
1, 308189, Note_off_c, 0, 66, 70
1, 308192, Note_off_c, 0, 73, 68
1, 308200, Note_off_c, 0, 78, 63
1, 308202, Note_off_c, 0, 63, 61
1, 308225, Note_off_c, 0, 87, 65
1, 308238, Control_c, 0, 64, 92
1, 308239, Poly_aftertouch_c, 0, 61, 0
1, 308261, Control_c, 0, 64, 52
1, 308276, Control_c, 0, 64, 0
1, 308305, Control_c, 0, 64, 61
1, 308310, Note_on_c, 0, 45, 77
1, 308311, Note_on_c, 0, 57, 76
1, 308312, Note_on_c, 0, 85, 105
1, 308314, Note_on_c, 0, 90, 100
1, 308315, Note_on_c, 0, 54, 67
1, 308315, Note_on_c, 0, 99, 98
1, 308320, Note_on_c, 0, 51, 57
1, 308320, Control_c, 0, 64, 80
1, 308324, Note_on_c, 0, 97, 75
1, 308327, Note_off_c, 0, 45, 67
1, 308335, Control_c, 0, 64, 118
1, 308335, Note_on_c, 0, 87, 62
1, 308336, Note_off_c, 0, 87, 127
1, 308337, Note_off_c, 0, 99, 71
1, 308338, Note_off_c, 0, 97, 66
1, 308342, Note_off_c, 0, 51, 60
1, 308348, Note_off_c, 0, 90, 52
1, 308350, Note_off_c, 0, 57, 52
1, 308350, Control_c, 0, 64, 127
1, 308353, Note_off_c, 0, 54, 62
1, 308356, Note_off_c, 0, 85, 61
1, 308508, Note_on_c, 0, 73, 79
1, 308523, Note_on_c, 0, 87, 60
1, 308527, Note_on_c, 0, 63, 49
1, 308529, Note_on_c, 0, 69, 50
1, 308535, Note_on_c, 0, 66, 41
1, 308536, Note_off_c, 0, 73, 59
1, 308538, Note_on_c, 0, 61, 37
1, 308540, Note_off_c, 0, 87, 58
1, 308552, Note_off_c, 0, 69, 57
1, 308553, Note_off_c, 0, 63, 58
1, 308558, Note_off_c, 0, 66, 57
1, 308565, Note_off_c, 0, 61, 51
1, 308637, Note_on_c, 0, 78, 84
1, 308638, Note_on_c, 0, 69, 57
1, 308639, Note_on_c, 0, 87, 62
1, 308641, Note_on_c, 0, 66, 55
1, 308642, Note_on_c, 0, 73, 69
1, 308645, Note_on_c, 0, 63, 50
1, 308651, Note_on_c, 0, 61, 53
1, 308659, Note_off_c, 0, 73, 64
1, 308660, Note_off_c, 0, 78, 62
1, 308665, Note_off_c, 0, 87, 68
1, 308669, Note_off_c, 0, 66, 65
1, 308675, Note_off_c, 0, 63, 57
1, 308680, Note_off_c, 0, 61, 61
1, 308681, Note_off_c, 0, 69, 60
1, 308749, Note_on_c, 0, 73, 69
1, 308749, Note_on_c, 0, 78, 84
1, 308753, Note_on_c, 0, 87, 73
1, 308761, Note_on_c, 0, 66, 57
1, 308770, Note_on_c, 0, 69, 40
1, 308771, Note_off_c, 0, 73, 69
1, 308774, Note_on_c, 0, 63, 51
1, 308777, Note_off_c, 0, 87, 68
1, 308779, Note_on_c, 0, 61, 46
1, 308785, Note_off_c, 0, 66, 65
1, 308788, Note_off_c, 0, 78, 59
1, 308795, Note_off_c, 0, 69, 57
1, 308804, Note_off_c, 0, 63, 56
1, 308808, Note_off_c, 0, 61, 54
1, 308863, Note_on_c, 0, 78, 66
1, 308863, Note_on_c, 0, 87, 70
1, 308869, Note_on_c, 0, 66, 55
1, 308883, Note_off_c, 0, 78, 64
1, 308896, Note_off_c, 0, 66, 55
1, 308908, Note_off_c, 0, 87, 63
1, 308977, Note_on_c, 0, 97, 99
1, 308980, Note_on_c, 0, 85, 95
1, 308983, Note_on_c, 0, 45, 70
1, 308984, Note_on_c, 0, 90, 90
1, 308988, Note_on_c, 0, 57, 69
1, 308999, Note_on_c, 0, 51, 52
1, 309002, Note_off_c, 0, 85, 63
1, 309003, Note_off_c, 0, 90, 68
1, 309008, Note_off_c, 0, 45, 71
1, 309022, Note_off_c, 0, 57, 66
1, 309022, Note_off_c, 0, 97, 63
1, 309037, Note_off_c, 0, 51, 63
1, 309084, Control_c, 0, 64, 85
1, 309093, Note_on_c, 0, 84, 111
1, 309093, Note_on_c, 0, 96, 104
1, 309096, Note_on_c, 0, 90, 96
1, 309099, Control_c, 0, 64, 0
1, 309106, Note_on_c, 0, 56, 85
1, 309109, Note_on_c, 0, 44, 86
1, 309113, Note_on_c, 0, 51, 68
1, 309145, Note_off_c, 0, 51, 61
1, 309158, Control_c, 0, 64, 43
1, 309161, Note_off_c, 0, 96, 57
1, 309173, Control_c, 0, 64, 78
1, 309175, Note_off_c, 0, 44, 60
1, 309182, Note_off_c, 0, 56, 61
1, 309188, Control_c, 0, 64, 100
1, 309191, Note_off_c, 0, 84, 60
1, 309200, Note_off_c, 0, 90, 63
1, 309203, Control_c, 0, 64, 127
1, 309340, Note_on_c, 0, 48, 65
1, 309346, Note_on_c, 0, 72, 66
1, 309349, Note_on_c, 0, 60, 58
1, 309349, Note_on_c, 0, 84, 57
1, 309362, Note_off_c, 0, 72, 67
1, 309368, Note_off_c, 0, 48, 67
1, 309368, Note_off_c, 0, 84, 62
1, 309368, Note_off_c, 0, 60, 62
1, 309371, Note_on_c, 0, 83, 29
1, 309405, Note_off_c, 0, 83, 32
1, 309453, Note_on_c, 0, 85, 73
1, 309455, Note_on_c, 0, 73, 68
1, 309458, Note_on_c, 0, 61, 67
1, 309468, Note_on_c, 0, 49, 54
1, 309472, Note_off_c, 0, 73, 66
1, 309475, Note_off_c, 0, 85, 70
1, 309488, Note_off_c, 0, 61, 65
1, 309492, Note_off_c, 0, 49, 57
1, 309546, Note_on_c, 0, 86, 86
1, 309549, Note_on_c, 0, 74, 82
1, 309554, Note_on_c, 0, 62, 71
1, 309566, Note_on_c, 0, 50, 55
1, 309575, Note_off_c, 0, 86, 63
1, 309577, Note_off_c, 0, 74, 64
1, 309582, Note_off_c, 0, 62, 65
1, 309593, Note_off_c, 0, 50, 53
1, 309635, Note_on_c, 0, 87, 96
1, 309639, Note_on_c, 0, 75, 86
1, 309649, Note_on_c, 0, 51, 78
1, 309652, Note_on_c, 0, 63, 77
1, 309659, Note_off_c, 0, 75, 71
1, 309677, Note_off_c, 0, 63, 70
1, 309677, Note_off_c, 0, 87, 63
1, 309680, Note_off_c, 0, 51, 63
1, 309731, Note_on_c, 0, 76, 95
1, 309731, Note_on_c, 0, 88, 98
1, 309737, Control_c, 0, 64, 107
1, 309740, Note_on_c, 0, 64, 76
1, 309746, Note_on_c, 0, 52, 70
1, 309752, Control_c, 0, 64, 77
1, 309766, Note_off_c, 0, 76, 67
1, 309767, Note_off_c, 0, 88, 62
1, 309772, Note_off_c, 0, 64, 69
1, 309774, Control_c, 0, 64, 0
1, 309775, Note_off_c, 0, 52, 67
1, 309825, Note_on_c, 0, 87, 101
1, 309827, Note_on_c, 0, 75, 98
1, 309833, Control_c, 0, 64, 70
1, 309841, Note_on_c, 0, 51, 80
1, 309841, Note_on_c, 0, 63, 81
1, 309848, Control_c, 0, 64, 91
1, 309863, Control_c, 0, 64, 127
1, 309878, Note_off_c, 0, 75, 63
1, 309881, Note_off_c, 0, 87, 61
1, 309899, Note_off_c, 0, 51, 59
1, 309904, Note_off_c, 0, 63, 60
1, 309977, Note_on_c, 0, 74, 78
1, 309978, Note_on_c, 0, 62, 64
1, 309978, Note_on_c, 0, 86, 81
1, 309987, Note_on_c, 0, 50, 51
1, 309999, Note_off_c, 0, 86, 67
1, 310003, Note_off_c, 0, 74, 65
1, 310007, Note_off_c, 0, 62, 64
1, 310013, Note_off_c, 0, 50, 57
1, 310083, Note_on_c, 0, 85, 87
1, 310089, Note_on_c, 0, 73, 81
1, 310094, Note_on_c, 0, 61, 67
1, 310099, Note_on_c, 0, 49, 74
1, 310106, Note_off_c, 0, 85, 62
1, 310109, Note_off_c, 0, 73, 70
1, 310124, Note_off_c, 0, 61, 64
1, 310131, Note_off_c, 0, 49, 64
1, 310186, Note_on_c, 0, 84, 91
1, 310187, Note_on_c, 0, 72, 91
1, 310193, Note_on_c, 0, 60, 67
1, 310198, Note_on_c, 0, 48, 62
1, 310212, Note_off_c, 0, 72, 64
1, 310212, Note_off_c, 0, 84, 63
1, 310222, Note_off_c, 0, 60, 64
1, 310225, Note_off_c, 0, 48, 66
1, 310280, Note_on_c, 0, 59, 78
1, 310287, Note_on_c, 0, 83, 94
1, 310289, Note_on_c, 0, 71, 85
1, 310293, Note_on_c, 0, 47, 66
1, 310304, Note_off_c, 0, 59, 68
1, 310306, Note_off_c, 0, 83, 65
1, 310313, Note_off_c, 0, 71, 65
1, 310315, Note_off_c, 0, 47, 61
1, 310368, Note_on_c, 0, 82, 76
1, 310374, Note_on_c, 0, 70, 98
1, 310381, Note_on_c, 0, 58, 85
1, 310386, Note_on_c, 0, 46, 82
1, 310391, Note_off_c, 0, 70, 71
1, 310434, Note_off_c, 0, 82, 62
1, 310440, Note_off_c, 0, 58, 62
1, 310451, Note_off_c, 0, 46, 61
1, 310538, Control_c, 0, 64, 109
1, 310553, Control_c, 0, 64, 75
1, 310568, Control_c, 0, 64, 0
1, 310602, Note_on_c, 0, 57, 88
1, 310602, Note_on_c, 0, 99, 109
1, 310604, Note_on_c, 0, 90, 100
1, 310606, Note_on_c, 0, 85, 97
1, 310607, Note_on_c, 0, 51, 78
1, 310608, Note_on_c, 0, 45, 80
1, 310610, Note_on_c, 0, 54, 83
1, 310617, Note_on_c, 0, 87, 83
1, 310627, Control_c, 0, 64, 73
1, 310630, Note_off_c, 0, 87, 69
1, 310642, Control_c, 0, 64, 127
1, 310652, Note_off_c, 0, 99, 69
1, 310654, Note_off_c, 0, 45, 61
1, 310677, Note_off_c, 0, 51, 60
1, 310678, Note_off_c, 0, 57, 56
1, 310684, Note_off_c, 0, 54, 59
1, 310687, Note_off_c, 0, 85, 61
1, 310702, Note_off_c, 0, 90, 60
1, 310833, Note_on_c, 0, 87, 74
1, 310839, Note_on_c, 0, 69, 64
1, 310839, Note_on_c, 0, 78, 72
1, 310845, Note_on_c, 0, 66, 53
1, 310848, Note_on_c, 0, 73, 59
1, 310848, Note_on_c, 0, 61, 53
1, 310851, Note_on_c, 0, 63, 47
1, 310862, Note_off_c, 0, 78, 70
1, 310866, Note_off_c, 0, 87, 53
1, 310868, Note_off_c, 0, 66, 64
1, 310869, Note_off_c, 0, 73, 38
1, 310870, Note_off_c, 0, 69, 66
1, 310880, Note_off_c, 0, 63, 57
1, 310884, Note_off_c, 0, 61, 63
1, 310947, Note_on_c, 0, 78, 82
1, 310949, Note_on_c, 0, 87, 80
1, 310951, Note_on_c, 0, 73, 56
1, 310952, Note_on_c, 0, 75, 56
1, 310958, Note_on_c, 0, 69, 58
1, 310958, Note_on_c, 0, 66, 58
1, 310968, Note_off_c, 0, 73, 62
1, 310970, Note_off_c, 0, 87, 68
1, 310971, Note_off_c, 0, 78, 64
1, 310973, Note_off_c, 0, 75, 60
1, 310976, Note_on_c, 0, 63, 46
1, 310976, Note_on_c, 0, 61, 49
1, 310984, Note_off_c, 0, 69, 62
1, 310991, Note_off_c, 0, 66, 66
1, 310998, Note_off_c, 0, 61, 60
1, 310998, Note_off_c, 0, 63, 58
1, 311052, Note_on_c, 0, 78, 85
1, 311054, Note_on_c, 0, 87, 85
1, 311055, Note_on_c, 0, 73, 58
1, 311063, Note_on_c, 0, 75, 52
1, 311064, Note_on_c, 0, 69, 64
1, 311071, Note_on_c, 0, 61, 63
1, 311078, Note_off_c, 0, 73, 63
1, 311078, Note_on_c, 0, 63, 56
1, 311083, Note_on_c, 0, 66, 54
1, 311083, Note_off_c, 0, 87, 57
1, 311087, Note_off_c, 0, 75, 53
1, 311093, Note_off_c, 0, 69, 68
1, 311095, Note_off_c, 0, 78, 62
1, 311105, Note_off_c, 0, 63, 61
1, 311105, Note_off_c, 0, 66, 63
1, 311107, Note_off_c, 0, 61, 60
1, 311161, Note_on_c, 0, 78, 86
1, 311165, Note_on_c, 0, 73, 66
1, 311167, Note_on_c, 0, 87, 79
1, 311175, Note_on_c, 0, 75, 58
1, 311177, Note_on_c, 0, 69, 67
1, 311185, Note_on_c, 0, 61, 61
1, 311188, Note_on_c, 0, 66, 63
1, 311189, Note_off_c, 0, 87, 68
1, 311191, Note_off_c, 0, 73, 66
1, 311197, Note_off_c, 0, 75, 51
1, 311203, Note_off_c, 0, 66, 69
1, 311204, Note_off_c, 0, 78, 63
1, 311207, Note_on_c, 0, 63, 35
1, 311210, Note_off_c, 0, 69, 68
1, 311218, Note_off_c, 0, 61, 62
1, 311230, Note_off_c, 0, 63, 58
1, 311262, Note_on_c, 0, 78, 81
1, 311263, Note_on_c, 0, 73, 81
1, 311266, Note_on_c, 0, 87, 89
1, 311280, Note_on_c, 0, 66, 71
1, 311283, Note_off_c, 0, 73, 70
1, 311306, Note_off_c, 0, 66, 68
1, 311307, Note_off_c, 0, 78, 64
1, 311314, Note_on_c, 0, 69, 11
1, 311322, Note_off_c, 0, 87, 65
1, 311330, Note_on_c, 0, 63, 13
1, 311347, Control_c, 0, 64, 120
1, 311352, Note_off_c, 0, 69, 46
1, 311362, Control_c, 0, 64, 86
1, 311368, Note_off_c, 0, 63, 51
1, 311377, Control_c, 0, 64, 59
1, 311392, Control_c, 0, 64, 0
1, 311407, Control_c, 0, 64, 63
1, 311408, Note_on_c, 0, 57, 88
1, 311409, Note_on_c, 0, 87, 101
1, 311409, Note_on_c, 0, 99, 103
1, 311411, Note_on_c, 0, 90, 99
1, 311414, Note_on_c, 0, 45, 80
1, 311414, Note_on_c, 0, 54, 79
1, 311416, Note_on_c, 0, 51, 73
1, 311417, Note_on_c, 0, 85, 88
1, 311422, Control_c, 0, 64, 88
1, 311433, Note_off_c, 0, 45, 68
1, 311437, Control_c, 0, 64, 127
1, 311444, Note_off_c, 0, 51, 66
1, 311445, Note_off_c, 0, 85, 0
1, 311447, Note_off_c, 0, 87, 61
1, 311448, Note_off_c, 0, 99, 69
1, 311451, Note_off_c, 0, 90, 58
1, 311460, Note_off_c, 0, 54, 58
1, 311460, Note_off_c, 0, 57, 58
1, 311470, Poly_aftertouch_c, 0, 85, 0
1, 311586, Note_on_c, 0, 75, 83
1, 311587, Note_on_c, 0, 87, 80
1, 311590, Note_on_c, 0, 78, 75
1, 311605, Note_on_c, 0, 69, 56
1, 311611, Note_off_c, 0, 78, 70
1, 311613, Note_off_c, 0, 75, 64
1, 311613, Note_off_c, 0, 87, 58
1, 311614, Note_on_c, 0, 66, 48
1, 311617, Note_on_c, 0, 63, 44
1, 311629, Note_off_c, 0, 69, 59
1, 311629, Note_on_c, 0, 61, 29
1, 311638, Note_off_c, 0, 66, 61
1, 311645, Note_off_c, 0, 63, 55
1, 311666, Note_off_c, 0, 61, 41
1, 311703, Note_on_c, 0, 78, 80
1, 311704, Note_on_c, 0, 87, 74
1, 311710, Note_on_c, 0, 73, 66
1, 311710, Note_on_c, 0, 69, 64
1, 311718, Note_on_c, 0, 66, 64
1, 311724, Note_off_c, 0, 87, 70
1, 311726, Note_off_c, 0, 78, 67
1, 311727, Note_off_c, 0, 73, 64
1, 311733, Note_on_c, 0, 63, 51
1, 311739, Note_off_c, 0, 69, 65
1, 311747, Note_off_c, 0, 66, 67
1, 311756, Note_off_c, 0, 63, 59
1, 311787, Poly_aftertouch_c, 0, 61, 0
1, 311799, Poly_aftertouch_c, 0, 75, 0
1, 311804, Note_on_c, 0, 73, 76
1, 311809, Note_on_c, 0, 78, 85
1, 311811, Note_on_c, 0, 87, 79
1, 311825, Poly_aftertouch_c, 0, 61, 127
1, 311826, Note_on_c, 0, 66, 65
1, 311830, Note_off_c, 0, 73, 64
1, 311833, Note_off_c, 0, 87, 67
1, 311839, Note_on_c, 0, 69, 48
1, 311839, Note_off_c, 0, 78, 58
1, 311850, Note_on_c, 0, 63, 45
1, 311855, Note_off_c, 0, 66, 67
1, 311864, Note_off_c, 0, 69, 58
1, 311871, Note_off_c, 0, 63, 60
1, 311897, Poly_aftertouch_c, 0, 61, 0
1, 311912, Note_on_c, 0, 87, 87
1, 311920, Note_on_c, 0, 78, 76
1, 311929, Note_on_c, 0, 73, 53
1, 311934, Poly_aftertouch_c, 0, 61, 127
1, 311939, Note_off_c, 0, 78, 72
1, 311951, Note_off_c, 0, 73, 59
1, 311956, Note_off_c, 0, 87, 64
1, 311975, Poly_aftertouch_c, 0, 61, 0
1, 311991, Poly_aftertouch_c, 0, 66, 127
1, 312021, Poly_aftertouch_c, 0, 66, 0
1, 312048, Note_on_c, 0, 97, 96
1, 312051, Note_on_c, 0, 85, 93
1, 312057, Note_on_c, 0, 45, 71
1, 312058, Note_on_c, 0, 90, 80
1, 312059, Note_on_c, 0, 57, 71
1, 312068, Note_on_c, 0, 51, 58
1, 312070, Note_off_c, 0, 85, 66
1, 312072, Note_off_c, 0, 97, 59
1, 312077, Note_off_c, 0, 45, 66
1, 312079, Note_off_c, 0, 90, 70
1, 312088, Note_off_c, 0, 57, 64
1, 312099, Note_off_c, 0, 51, 63
1, 312142, Control_c, 0, 64, 103
1, 312153, Note_on_c, 0, 84, 113
1, 312153, Note_on_c, 0, 96, 112
1, 312157, Control_c, 0, 64, 77
1, 312157, Note_on_c, 0, 90, 101
1, 312159, Note_on_c, 0, 56, 94
1, 312165, Note_on_c, 0, 44, 89
1, 312166, Note_on_c, 0, 51, 75
1, 312171, Control_c, 0, 64, 0
1, 312201, Control_c, 0, 64, 65
1, 312203, Note_off_c, 0, 96, 56
1, 312215, Control_c, 0, 64, 78
1, 312230, Control_c, 0, 64, 101
1, 312245, Note_off_c, 0, 51, 54
1, 312245, Control_c, 0, 64, 127
1, 312252, Note_off_c, 0, 44, 61
1, 312257, Note_off_c, 0, 56, 62
1, 312261, Note_off_c, 0, 84, 47
1, 312279, Note_off_c, 0, 90, 63
1, 312404, Note_on_c, 0, 84, 79
1, 312407, Note_on_c, 0, 72, 74
1, 312409, Note_on_c, 0, 60, 56
1, 312410, Note_on_c, 0, 48, 52
1, 312429, Note_off_c, 0, 60, 62
1, 312431, Note_off_c, 0, 72, 71
1, 312431, Note_off_c, 0, 84, 60
1, 312436, Note_off_c, 0, 48, 56
1, 312510, Note_on_c, 0, 73, 76
1, 312520, Note_on_c, 0, 85, 76
1, 312524, Note_on_c, 0, 61, 66
1, 312526, Note_on_c, 0, 49, 66
1, 312534, Note_off_c, 0, 73, 68
1, 312541, Note_off_c, 0, 85, 68
1, 312552, Note_off_c, 0, 61, 65
1, 312553, Note_off_c, 0, 49, 65
1, 312613, Note_on_c, 0, 74, 80
1, 312619, Note_on_c, 0, 86, 72
1, 312625, Note_on_c, 0, 62, 69
1, 312632, Note_on_c, 0, 50, 56
1, 312634, Note_off_c, 0, 86, 68
1, 312638, Note_off_c, 0, 74, 63
1, 312651, Note_off_c, 0, 62, 63
1, 312657, Note_off_c, 0, 50, 55
1, 312713, Note_on_c, 0, 87, 94
1, 312714, Note_on_c, 0, 75, 92
1, 312723, Note_on_c, 0, 51, 80
1, 312723, Note_on_c, 0, 63, 82
1, 312752, Note_off_c, 0, 75, 65
1, 312755, Note_off_c, 0, 87, 64
1, 312777, Note_off_c, 0, 51, 57
1, 312782, Note_off_c, 0, 63, 61
1, 312821, Note_on_c, 0, 76, 100
1, 312824, Note_on_c, 0, 88, 100
1, 312830, Note_on_c, 0, 64, 83
1, 312831, Note_on_c, 0, 52, 86
1, 312858, Note_off_c, 0, 76, 66
1, 312863, Note_off_c, 0, 88, 64
1, 312867, Note_off_c, 0, 52, 61
1, 312878, Note_off_c, 0, 64, 60
1, 312935, Control_c, 0, 64, 90
1, 312940, Note_on_c, 0, 77, 110
1, 312942, Note_on_c, 0, 89, 109
1, 312950, Control_c, 0, 64, 54
1, 312950, Note_on_c, 0, 65, 86
1, 312952, Note_on_c, 0, 53, 85
1, 312964, Control_c, 0, 64, 0
1, 313024, Control_c, 0, 64, 71
1, 313038, Control_c, 0, 64, 88
1, 313046, Note_off_c, 0, 53, 62
1, 313053, Note_off_c, 0, 65, 62
1, 313053, Note_off_c, 0, 77, 58
1, 313053, Control_c, 0, 64, 119
1, 313060, Note_off_c, 0, 89, 62
1, 313068, Control_c, 0, 64, 127
1, 313170, Note_on_c, 0, 87, 86
1, 313178, Note_on_c, 0, 75, 85
1, 313180, Note_on_c, 0, 51, 69
1, 313185, Note_on_c, 0, 63, 61
1, 313196, Note_off_c, 0, 87, 60
1, 313207, Note_off_c, 0, 75, 64
1, 313209, Note_off_c, 0, 63, 63
1, 313218, Note_off_c, 0, 51, 57
1, 313295, Note_on_c, 0, 85, 84
1, 313303, Note_on_c, 0, 73, 73
1, 313305, Note_on_c, 0, 61, 67
1, 313309, Note_on_c, 0, 49, 67
1, 313320, Note_off_c, 0, 85, 62
1, 313326, Note_off_c, 0, 73, 70
1, 313334, Note_off_c, 0, 61, 65
1, 313337, Note_off_c, 0, 49, 63
1, 313409, Note_on_c, 0, 84, 89
1, 313412, Note_on_c, 0, 72, 89
1, 313418, Note_on_c, 0, 60, 64
1, 313419, Note_on_c, 0, 48, 66
1, 313435, Note_off_c, 0, 60, 63
1, 313443, Note_off_c, 0, 72, 61
1, 313445, Note_off_c, 0, 84, 65
1, 313447, Note_off_c, 0, 48, 66
1, 313541, Note_on_c, 0, 81, 98
1, 313544, Note_on_c, 0, 69, 93
1, 313545, Note_on_c, 0, 57, 78
1, 313550, Note_on_c, 0, 45, 75
1, 313573, Note_off_c, 0, 57, 63
1, 313576, Note_off_c, 0, 45, 66
1, 313585, Note_off_c, 0, 81, 62
1, 313585, Note_off_c, 0, 69, 66
1, 313676, Note_on_c, 0, 80, 108
1, 313677, Note_on_c, 0, 68, 108
1, 313680, Note_on_c, 0, 56, 96
1, 313683, Note_on_c, 0, 44, 91
1, 313711, Note_off_c, 0, 68, 68
1, 313721, Note_off_c, 0, 56, 64
1, 313737, Note_off_c, 0, 80, 66
1, 313751, Note_off_c, 0, 44, 61
1, 313935, Control_c, 0, 64, 107
1, 313950, Control_c, 0, 64, 74
1, 313965, Control_c, 0, 64, 0
1, 313995, Note_on_c, 0, 101, 105
1, 313996, Note_on_c, 0, 89, 111
1, 313999, Note_on_c, 0, 92, 102
1, 314011, Note_on_c, 0, 37, 91
1, 314011, Note_on_c, 0, 49, 100
1, 314024, Control_c, 0, 64, 73
1, 314035, Note_on_c, 0, 98, 38
1, 314035, Note_off_c, 0, 89, 62
1, 314035, Note_off_c, 0, 101, 68
1, 314039, Control_c, 0, 64, 127
1, 314040, Note_off_c, 0, 37, 68
1, 314053, Note_on_c, 0, 97, 12
1, 314059, Note_off_c, 0, 92, 66
1, 314066, Note_off_c, 0, 49, 61
1, 314067, Note_off_c, 0, 98, 34
1, 314077, Note_off_c, 0, 97, 33
1, 314330, Note_on_c, 0, 89, 92
1, 314333, Note_on_c, 0, 77, 85
1, 314336, Note_on_c, 0, 80, 86
1, 314357, Note_on_c, 0, 56, 55
1, 314358, Note_off_c, 0, 80, 64
1, 314364, Note_off_c, 0, 77, 61
1, 314365, Note_on_c, 0, 61, 48
1, 314372, Note_off_c, 0, 89, 65
1, 314377, Note_on_c, 0, 65, 32
1, 314383, Note_off_c, 0, 56, 59
1, 314394, Note_off_c, 0, 61, 53
1, 314413, Note_off_c, 0, 65, 44
1, 314474, Note_on_c, 0, 89, 90
1, 314476, Note_on_c, 0, 77, 80
1, 314477, Note_on_c, 0, 80, 80
1, 314485, Note_on_c, 0, 56, 51
1, 314485, Note_on_c, 0, 61, 54
1, 314503, Note_off_c, 0, 77, 62
1, 314503, Note_off_c, 0, 80, 63
1, 314504, Note_on_c, 0, 65, 51
1, 314518, Note_off_c, 0, 61, 64
1, 314518, Note_off_c, 0, 89, 62
1, 314521, Note_off_c, 0, 56, 63
1, 314527, Note_off_c, 0, 65, 60
1, 314603, Note_on_c, 0, 80, 82
1, 314604, Note_on_c, 0, 89, 81
1, 314605, Note_on_c, 0, 77, 80
1, 314609, Note_on_c, 0, 61, 63
1, 314609, Note_on_c, 0, 65, 66
1, 314611, Note_on_c, 0, 56, 59
1, 314630, Note_off_c, 0, 77, 63
1, 314636, Note_off_c, 0, 65, 69
1, 314637, Note_off_c, 0, 89, 60
1, 314641, Note_off_c, 0, 61, 63
1, 314645, Note_off_c, 0, 56, 62
1, 314645, Note_off_c, 0, 80, 63
1, 314726, Note_on_c, 0, 61, 64
1, 314728, Note_on_c, 0, 65, 64
1, 314732, Note_on_c, 0, 77, 80
1, 314732, Note_on_c, 0, 80, 88
1, 314735, Note_on_c, 0, 89, 78
1, 314741, Note_on_c, 0, 56, 53
1, 314753, Note_off_c, 0, 61, 61
1, 314755, Note_off_c, 0, 77, 65
1, 314759, Note_off_c, 0, 89, 67
1, 314774, Note_off_c, 0, 65, 58
1, 314775, Note_off_c, 0, 56, 62
1, 314778, Note_off_c, 0, 80, 62
1, 314844, Note_on_c, 0, 61, 75
1, 314853, Note_on_c, 0, 89, 88
1, 314854, Note_on_c, 0, 80, 88
1, 314862, Note_on_c, 0, 56, 54
1, 314862, Note_on_c, 0, 77, 64
1, 314869, Note_off_c, 0, 61, 66
1, 314879, Note_off_c, 0, 77, 64
1, 314888, Note_off_c, 0, 56, 63
1, 314895, Note_off_c, 0, 80, 61
1, 314906, Note_off_c, 0, 89, 66
1, 315018, Control_c, 0, 64, 122
1, 315033, Control_c, 0, 64, 83
1, 315048, Control_c, 0, 64, 0
1, 315069, Note_on_c, 0, 97, 101
1, 315069, Note_on_c, 0, 89, 91
1, 315074, Note_on_c, 0, 85, 104
1, 315076, Note_on_c, 0, 49, 87
1, 315078, Control_c, 0, 64, 52
1, 315081, Note_on_c, 0, 37, 76
1, 315084, Note_on_c, 0, 44, 75
1, 315093, Control_c, 0, 64, 73
1, 315107, Control_c, 0, 64, 94
1, 315108, Note_on_c, 0, 94, 37
1, 315110, Note_off_c, 0, 37, 66
1, 315112, Note_off_c, 0, 44, 64
1, 315122, Control_c, 0, 64, 127
1, 315124, Note_off_c, 0, 97, 65
1, 315128, Note_off_c, 0, 89, 67
1, 315129, Note_off_c, 0, 49, 59
1, 315138, Note_off_c, 0, 94, 34
1, 315141, Note_off_c, 0, 85, 65
1, 315265, Note_on_c, 0, 73, 78
1, 315267, Note_on_c, 0, 77, 76
1, 315269, Note_on_c, 0, 85, 75
1, 315272, Note_on_c, 0, 65, 63
1, 315287, Note_off_c, 0, 73, 69
1, 315288, Note_on_c, 0, 56, 41
1, 315292, Note_off_c, 0, 85, 68
1, 315293, Note_off_c, 0, 77, 64
1, 315303, Note_off_c, 0, 65, 66
1, 315315, Note_off_c, 0, 56, 55
1, 315360, Note_on_c, 0, 61, 41
1, 315375, Note_on_c, 0, 85, 83
1, 315383, Note_on_c, 0, 73, 58
1, 315388, Note_off_c, 0, 61, 64
1, 315393, Note_on_c, 0, 77, 42
1, 315405, Note_off_c, 0, 73, 58
1, 315418, Note_off_c, 0, 77, 36
1, 315418, Note_off_c, 0, 85, 64
1, 315472, Poly_aftertouch_c, 0, 56, 0
1, 315495, Note_on_c, 0, 92, 103
1, 315498, Note_on_c, 0, 80, 110
1, 315502, Note_on_c, 0, 41, 84
1, 315507, Note_on_c, 0, 53, 83
1, 315512, Note_on_c, 0, 85, 73
1, 315525, Note_off_c, 0, 41, 69
1, 315529, Note_off_c, 0, 85, 69
1, 315531, Note_off_c, 0, 92, 60
1, 315532, Note_off_c, 0, 53, 70
1, 315532, Note_off_c, 0, 80, 63
1, 315652, Note_on_c, 0, 68, 88
1, 315652, Note_on_c, 0, 80, 82
1, 315662, Note_on_c, 0, 65, 71
1, 315667, Note_on_c, 0, 73, 67
1, 315674, Note_off_c, 0, 80, 64
1, 315676, Note_off_c, 0, 68, 65
1, 315678, Note_on_c, 0, 56, 43
1, 315692, Note_off_c, 0, 65, 65
1, 315695, Note_off_c, 0, 73, 67
1, 315709, Note_off_c, 0, 56, 54
1, 315761, Note_on_c, 0, 61, 45
1, 315777, Note_on_c, 0, 80, 89
1, 315779, Note_on_c, 0, 73, 80
1, 315784, Note_on_c, 0, 68, 75
1, 315793, Note_off_c, 0, 61, 63
1, 315797, Note_off_c, 0, 68, 71
1, 315837, Note_off_c, 0, 73, 61
1, 315847, Note_off_c, 0, 80, 64
1, 315881, Poly_aftertouch_c, 0, 56, 0
1, 315929, Control_c, 0, 64, 98
1, 315944, Control_c, 0, 64, 69
1, 315959, Control_c, 0, 64, 0
1, 315968, Note_on_c, 0, 96, 106
1, 315969, Note_on_c, 0, 84, 109
1, 315972, Note_on_c, 0, 88, 94
1, 315975, Note_on_c, 0, 43, 82
1, 315978, Note_on_c, 0, 55, 87
1, 315979, Note_on_c, 0, 49, 78
1, 315982, Note_on_c, 0, 89, 72
1, 315997, Note_off_c, 0, 89, 43
1, 316003, Control_c, 0, 64, 70
1, 316012, Note_off_c, 0, 84, 0
1, 316018, Control_c, 0, 64, 104
1, 316033, Control_c, 0, 64, 127
1, 316043, Note_off_c, 0, 43, 60
1, 316050, Poly_aftertouch_c, 0, 84, 127
1, 316055, Note_off_c, 0, 96, 61
1, 316056, Note_off_c, 0, 49, 60
1, 316072, Note_off_c, 0, 55, 62
1, 316072, Poly_aftertouch_c, 0, 84, 0
1, 316073, Note_off_c, 0, 88, 63
1, 316208, Note_on_c, 0, 55, 64
1, 316212, Note_on_c, 0, 84, 77
1, 316214, Note_on_c, 0, 64, 57
1, 316220, Note_on_c, 0, 74, 56
1, 316224, Note_on_c, 0, 72, 61
1, 316224, Note_on_c, 0, 76, 56
1, 316225, Note_on_c, 0, 77, 57
1, 316229, Note_on_c, 0, 61, 43
1, 316233, Note_off_c, 0, 84, 70
1, 316238, Note_off_c, 0, 74, 65
1, 316242, Note_off_c, 0, 72, 62
1, 316243, Note_off_c, 0, 64, 62
1, 316243, Note_off_c, 0, 76, 62
1, 316244, Note_off_c, 0, 77, 59
1, 316246, Note_off_c, 0, 55, 60
1, 316255, Note_off_c, 0, 61, 55
1, 316327, Note_on_c, 0, 76, 75
1, 316328, Note_on_c, 0, 72, 71
1, 316334, Note_on_c, 0, 64, 56
1, 316335, Note_on_c, 0, 55, 60
1, 316335, Note_on_c, 0, 84, 74
1, 316337, Note_on_c, 0, 61, 60
1, 316350, Note_off_c, 0, 72, 70
1, 316357, Note_off_c, 0, 84, 69
1, 316359, Note_off_c, 0, 64, 61
1, 316359, Note_off_c, 0, 76, 64
1, 316363, Note_off_c, 0, 61, 63
1, 316373, Note_off_c, 0, 55, 59
1, 316438, Note_on_c, 0, 61, 63
1, 316444, Note_on_c, 0, 64, 56
1, 316446, Note_on_c, 0, 72, 76
1, 316446, Note_on_c, 0, 76, 82
1, 316448, Note_on_c, 0, 84, 81
1, 316469, Note_off_c, 0, 72, 71
1, 316470, Note_off_c, 0, 61, 59
1, 316473, Note_off_c, 0, 76, 62
1, 316475, Note_off_c, 0, 84, 63
1, 316481, Note_off_c, 0, 64, 63
1, 316500, Note_on_c, 0, 55, 24
1, 316529, Note_off_c, 0, 55, 56
1, 316571, Note_on_c, 0, 76, 86
1, 316572, Note_on_c, 0, 72, 78
1, 316574, Note_on_c, 0, 84, 80
1, 316577, Note_on_c, 0, 64, 59
1, 316589, Note_on_c, 0, 61, 44
1, 316596, Note_off_c, 0, 72, 69
1, 316600, Note_on_c, 0, 55, 41
1, 316601, Note_off_c, 0, 84, 64
1, 316603, Note_off_c, 0, 76, 63
1, 316618, Note_off_c, 0, 61, 47
1, 316675, Note_off_c, 0, 64, 32
1, 316684, Note_on_c, 0, 76, 88
1, 316689, Note_on_c, 0, 84, 86
1, 316690, Note_on_c, 0, 72, 65
1, 316696, Note_on_c, 0, 61, 60
1, 316703, Note_off_c, 0, 76, 72
1, 316705, Note_off_c, 0, 55, 58
1, 316705, Note_off_c, 0, 72, 67
1, 316713, Note_off_c, 0, 61, 65
1, 316723, Note_on_c, 0, 82, 29
1, 316737, Note_off_c, 0, 84, 65
1, 316758, Note_off_c, 0, 82, 40
1, 316841, Control_c, 0, 64, 99
1, 316856, Control_c, 0, 64, 68
1, 316871, Control_c, 0, 64, 0
1, 316887, Note_on_c, 0, 94, 103
1, 316889, Note_on_c, 0, 43, 84
1, 316889, Note_on_c, 0, 52, 88
1, 316890, Note_on_c, 0, 55, 90
1, 316890, Note_on_c, 0, 82, 100
1, 316894, Note_on_c, 0, 85, 95
1, 316915, Control_c, 0, 64, 66
1, 316920, Note_on_c, 0, 92, 47
1, 316930, Control_c, 0, 64, 91
1, 316937, Note_off_c, 0, 94, 67
1, 316944, Note_off_c, 0, 82, 59
1, 316945, Control_c, 0, 64, 127
1, 316947, Note_off_c, 0, 92, 47
1, 316949, Note_off_c, 0, 43, 61
1, 316949, Note_off_c, 0, 85, 62
1, 316960, Note_off_c, 0, 52, 62
1, 316975, Note_off_c, 0, 55, 62
1, 317104, Note_on_c, 0, 70, 68
1, 317106, Note_on_c, 0, 82, 67
1, 317108, Note_on_c, 0, 55, 59
1, 317111, Note_on_c, 0, 61, 60
1, 317115, Note_on_c, 0, 64, 52
1, 317117, Note_on_c, 0, 73, 52
1, 317120, Note_off_c, 0, 70, 67
1, 317124, Note_off_c, 0, 82, 64
1, 317138, Note_off_c, 0, 73, 59
1, 317141, Note_off_c, 0, 64, 59
1, 317143, Note_off_c, 0, 61, 63
1, 317144, Note_off_c, 0, 55, 58
1, 317218, Note_on_c, 0, 73, 69
1, 317219, Note_on_c, 0, 70, 66
1, 317219, Note_on_c, 0, 82, 66
1, 317227, Note_on_c, 0, 61, 59
1, 317230, Note_on_c, 0, 64, 55
1, 317252, Note_off_c, 0, 70, 66
1, 317260, Note_off_c, 0, 82, 61
1, 317263, Note_off_c, 0, 73, 61
1, 317267, Note_on_c, 0, 55, 34
1, 317269, Note_off_c, 0, 61, 62
1, 317274, Note_off_c, 0, 64, 63
1, 317299, Note_off_c, 0, 55, 53
1, 317338, Control_c, 0, 64, 122
1, 317353, Control_c, 0, 64, 123
1, 317354, Note_on_c, 0, 61, 59
1, 317354, Note_on_c, 0, 70, 76
1, 317355, Note_on_c, 0, 82, 69
1, 317362, Note_on_c, 0, 73, 72
1, 317368, Control_c, 0, 64, 127
1, 317371, Note_on_c, 0, 64, 47
1, 317381, Note_off_c, 0, 70, 65
1, 317385, Note_off_c, 0, 61, 63
1, 317388, Note_on_c, 0, 55, 33
1, 317392, Note_off_c, 0, 73, 65
1, 317394, Note_off_c, 0, 64, 58
1, 317399, Note_off_c, 0, 82, 64
1, 317433, Note_off_c, 0, 55, 43
1, 317475, Note_on_c, 0, 64, 58
1, 317478, Note_on_c, 0, 61, 57
1, 317480, Note_on_c, 0, 82, 82
1, 317487, Note_on_c, 0, 73, 75
1, 317488, Note_on_c, 0, 70, 58
1, 317493, Note_off_c, 0, 64, 66
1, 317507, Note_off_c, 0, 61, 64
1, 317510, Note_off_c, 0, 73, 68
1, 317510, Note_off_c, 0, 70, 57
1, 317528, Note_off_c, 0, 82, 64
1, 317532, Poly_aftertouch_c, 0, 55, 127
1, 317573, Poly_aftertouch_c, 0, 55, 0
1, 317688, Note_on_c, 0, 82, 100
1, 317689, Note_on_c, 0, 94, 97
1, 317693, Note_on_c, 0, 85, 81
1, 317704, Note_on_c, 0, 55, 68
1, 317705, Note_on_c, 0, 52, 65
1, 317711, Note_off_c, 0, 85, 71
1, 317713, Note_on_c, 0, 43, 50
1, 317725, Note_off_c, 0, 94, 63
1, 317731, Note_off_c, 0, 82, 60
1, 317734, Note_off_c, 0, 52, 67
1, 317743, Note_off_c, 0, 43, 53
1, 317749, Note_off_c, 0, 55, 59
1, 317886, Control_c, 0, 64, 96
1, 317900, Control_c, 0, 64, 73
1, 317915, Control_c, 0, 64, 0
1, 317933, Note_on_c, 0, 54, 63
1, 317935, Note_on_c, 0, 77, 95
1, 317935, Note_on_c, 0, 89, 94
1, 317936, Note_on_c, 0, 85, 86
1, 317943, Note_on_c, 0, 56, 72
1, 317954, Note_on_c, 0, 44, 56
1, 317960, Control_c, 0, 64, 66
1, 317974, Control_c, 0, 64, 78
1, 317989, Note_off_c, 0, 44, 63
1, 317989, Control_c, 0, 64, 93
1, 317990, Note_off_c, 0, 89, 62
1, 318008, Note_off_c, 0, 54, 57
1, 318011, Control_c, 0, 64, 107
1, 318019, Note_off_c, 0, 56, 61
1, 318026, Control_c, 0, 64, 117
1, 318038, Note_off_c, 0, 85, 64
1, 318041, Control_c, 0, 64, 121
1, 318042, Note_off_c, 0, 77, 61
1, 318056, Control_c, 0, 64, 123
1, 318071, Control_c, 0, 64, 124
1, 318130, Control_c, 0, 64, 124
1, 318145, Control_c, 0, 64, 125
1, 318155, Note_on_c, 0, 77, 80
1, 318160, Note_on_c, 0, 73, 73
1, 318160, Control_c, 0, 64, 126
1, 318166, Note_on_c, 0, 61, 60
1, 318166, Note_on_c, 0, 65, 58
1, 318185, Note_off_c, 0, 73, 66
1, 318188, Note_off_c, 0, 65, 61
1, 318190, Control_c, 0, 64, 126
1, 318196, Note_off_c, 0, 61, 64
1, 318199, Note_off_c, 0, 77, 57
1, 318205, Control_c, 0, 64, 127
1, 318266, Note_on_c, 0, 61, 69
1, 318266, Note_on_c, 0, 77, 75
1, 318273, Note_on_c, 0, 73, 69
1, 318288, Note_on_c, 0, 65, 21
1, 318289, Note_off_c, 0, 61, 68
1, 318295, Note_off_c, 0, 73, 71
1, 318315, Note_off_c, 0, 77, 61
1, 318318, Note_off_c, 0, 65, 49
1, 318338, Control_c, 0, 64, 107
1, 318353, Control_c, 0, 64, 84
1, 318368, Control_c, 0, 64, 66
1, 318383, Control_c, 0, 64, 51
1, 318397, Control_c, 0, 64, 65
1, 318398, Note_on_c, 0, 77, 105
1, 318398, Note_on_c, 0, 89, 93
1, 318399, Note_on_c, 0, 56, 88
1, 318399, Note_on_c, 0, 85, 95
1, 318411, Note_on_c, 0, 44, 67
1, 318412, Control_c, 0, 64, 74
1, 318417, Note_off_c, 0, 89, 69
1, 318427, Control_c, 0, 64, 86
1, 318431, Note_off_c, 0, 44, 63
1, 318434, Note_off_c, 0, 77, 63
1, 318440, Note_off_c, 0, 56, 59
1, 318442, Note_off_c, 0, 85, 62
1, 318442, Control_c, 0, 64, 100
1, 318457, Control_c, 0, 64, 110
1, 318472, Control_c, 0, 64, 112
1, 318531, Control_c, 0, 64, 112
1, 318555, Note_on_c, 0, 73, 83
1, 318559, Note_on_c, 0, 61, 69
1, 318560, Note_on_c, 0, 77, 68
1, 318565, Note_on_c, 0, 65, 63
1, 318575, Control_c, 0, 64, 113
1, 318577, Note_on_c, 0, 76, 58
1, 318577, Note_off_c, 0, 73, 67
1, 318580, Note_off_c, 0, 77, 62
1, 318586, Note_off_c, 0, 61, 66
1, 318586, Note_off_c, 0, 65, 60
1, 318590, Control_c, 0, 64, 113
1, 318598, Note_off_c, 0, 76, 39
1, 318606, Control_c, 0, 64, 116
1, 318621, Control_c, 0, 64, 126
1, 318636, Control_c, 0, 64, 127
1, 318663, Note_on_c, 0, 77, 78
1, 318664, Note_on_c, 0, 73, 80
1, 318664, Note_on_c, 0, 61, 71
1, 318685, Note_off_c, 0, 73, 69
1, 318688, Note_off_c, 0, 61, 69
1, 318698, Note_off_c, 0, 77, 60
1, 318724, Control_c, 0, 64, 116
1, 318739, Control_c, 0, 64, 86
1, 318762, Control_c, 0, 64, 60
1, 318776, Control_c, 0, 64, 0
1, 318797, Note_on_c, 0, 80, 110
1, 318797, Note_on_c, 0, 92, 101
1, 318798, Note_on_c, 0, 56, 90
1, 318803, Note_on_c, 0, 44, 77
1, 318803, Note_on_c, 0, 84, 82
1, 318806, Control_c, 0, 64, 62
1, 318821, Note_off_c, 0, 84, 73
1, 318821, Note_off_c, 0, 92, 60
1, 318821, Control_c, 0, 64, 75
1, 318825, Note_off_c, 0, 44, 64
1, 318834, Note_on_c, 0, 51, 29
1, 318836, Control_c, 0, 64, 90
1, 318837, Note_off_c, 0, 80, 64
1, 318849, Note_off_c, 0, 56, 59
1, 318850, Control_c, 0, 64, 108
1, 318865, Control_c, 0, 64, 117
1, 318870, Note_off_c, 0, 51, 47
1, 318951, Note_on_c, 0, 72, 77
1, 318956, Note_on_c, 0, 75, 83
1, 318956, Note_on_c, 0, 63, 78
1, 318979, Note_on_c, 0, 60, 38
1, 318979, Note_off_c, 0, 72, 64
1, 318985, Control_c, 0, 64, 117
1, 318992, Note_off_c, 0, 63, 62
1, 318999, Control_c, 0, 64, 118
1, 319001, Note_off_c, 0, 75, 61
1, 319007, Note_off_c, 0, 60, 53
1, 319014, Control_c, 0, 64, 121
1, 319029, Control_c, 0, 64, 127
1, 319069, Note_on_c, 0, 75, 77
1, 319079, Note_on_c, 0, 63, 51
1, 319081, Note_on_c, 0, 72, 54
1, 319096, Note_on_c, 0, 60, 17
1, 319096, Note_off_c, 0, 63, 64
1, 319099, Note_off_c, 0, 72, 66
1, 319111, Note_off_c, 0, 75, 63
1, 319118, Control_c, 0, 64, 126
1, 319132, Note_off_c, 0, 60, 43
1, 319133, Control_c, 0, 64, 90
1, 319147, Control_c, 0, 64, 66
1, 319162, Control_c, 0, 64, 0
1, 319186, Note_on_c, 0, 90, 110
1, 319188, Note_on_c, 0, 78, 103
1, 319192, Control_c, 0, 64, 63
1, 319193, Note_on_c, 0, 56, 88
1, 319194, Note_on_c, 0, 44, 80
1, 319196, Note_on_c, 0, 84, 80
1, 319206, Control_c, 0, 64, 76
1, 319214, Note_off_c, 0, 84, 72
1, 319221, Note_off_c, 0, 44, 68
1, 319221, Control_c, 0, 64, 93
1, 319224, Note_off_c, 0, 90, 62
1, 319235, Note_on_c, 0, 80, 20
1, 319236, Note_off_c, 0, 80, 127
1, 319236, Note_off_c, 0, 78, 59
1, 319236, Control_c, 0, 64, 115
1, 319242, Note_off_c, 0, 56, 59
1, 319251, Control_c, 0, 64, 127
1, 319344, Note_on_c, 0, 72, 77
1, 319347, Note_on_c, 0, 63, 75
1, 319350, Note_on_c, 0, 75, 78
1, 319372, Note_off_c, 0, 72, 64
1, 319382, Note_off_c, 0, 75, 62
1, 319387, Note_off_c, 0, 63, 60
1, 319478, Note_on_c, 0, 63, 66
1, 319481, Note_on_c, 0, 75, 84
1, 319481, Note_on_c, 0, 60, 23
1, 319485, Note_on_c, 0, 72, 59
1, 319511, Note_off_c, 0, 72, 64
1, 319517, Note_off_c, 0, 63, 65
1, 319527, Note_off_c, 0, 60, 42
1, 319527, Note_off_c, 0, 75, 66
1, 319659, Control_c, 0, 64, 112
1, 319674, Control_c, 0, 64, 78
1, 319689, Note_on_c, 0, 85, 55
1, 319689, Control_c, 0, 64, 0
1, 319692, Note_on_c, 0, 57, 92
1, 319694, Note_on_c, 0, 51, 84
1, 319694, Note_on_c, 0, 90, 109
1, 319695, Note_on_c, 0, 45, 84
1, 319695, Note_on_c, 0, 78, 101
1, 319734, Note_off_c, 0, 78, 66
1, 319742, Note_off_c, 0, 45, 64
1, 319745, Note_off_c, 0, 57, 58
1, 319749, Control_c, 0, 64, 73
1, 319753, Note_off_c, 0, 90, 62
1, 319758, Note_off_c, 0, 85, 65
1, 319764, Control_c, 0, 64, 97
1, 319767, Note_off_c, 0, 51, 61
1, 319778, Control_c, 0, 64, 127
1, 320043, Note_on_c, 0, 75, 104
1, 320044, Note_on_c, 0, 78, 94
1, 320053, Note_on_c, 0, 63, 67
1, 320057, Note_on_c, 0, 66, 72
1, 320119, Note_off_c, 0, 75, 0
1, 320151, Note_off_c, 0, 78, 60
1, 320154, Note_off_c, 0, 66, 60
1, 320154, Poly_aftertouch_c, 0, 75, 0
1, 320172, Note_off_c, 0, 63, 58
1, 320238, Note_on_c, 0, 78, 100
1, 320250, Note_on_c, 0, 74, 85
1, 320253, Note_on_c, 0, 75, 76
1, 320259, Note_on_c, 0, 63, 56
1, 320262, Note_on_c, 0, 66, 73
1, 320274, Note_on_c, 0, 62, 51
1, 320306, Note_off_c, 0, 74, 60
1, 320323, Note_off_c, 0, 62, 59
1, 320323, Note_off_c, 0, 75, 59
1, 320327, Note_off_c, 0, 78, 60
1, 320336, Note_off_c, 0, 66, 62
1, 320346, Note_off_c, 0, 63, 62
1, 320414, Note_on_c, 0, 78, 88
1, 320419, Note_on_c, 0, 73, 79
1, 320423, Note_on_c, 0, 75, 79
1, 320429, Note_on_c, 0, 61, 64
1, 320438, Note_on_c, 0, 66, 62
1, 320440, Note_on_c, 0, 63, 54
1, 320465, Note_off_c, 0, 75, 51
1, 320467, Note_off_c, 0, 73, 59
1, 320468, Note_off_c, 0, 66, 66
1, 320477, Note_off_c, 0, 78, 60
1, 320485, Note_off_c, 0, 63, 58
1, 320497, Note_off_c, 0, 61, 55
1, 320554, Note_on_c, 0, 78, 91
1, 320562, Note_on_c, 0, 72, 75
1, 320565, Note_on_c, 0, 66, 71
1, 320569, Note_on_c, 0, 75, 75
1, 320569, Note_on_c, 0, 63, 65
1, 320577, Note_on_c, 0, 60, 54
1, 320608, Note_off_c, 0, 75, 56
1, 320613, Note_off_c, 0, 72, 63
1, 320614, Note_off_c, 0, 78, 61
1, 320617, Note_off_c, 0, 66, 60
1, 320639, Note_off_c, 0, 63, 61
1, 320640, Note_off_c, 0, 60, 49
1, 320697, Note_on_c, 0, 63, 57
1, 320697, Note_on_c, 0, 78, 91
1, 320700, Note_on_c, 0, 66, 70
1, 320700, Note_on_c, 0, 71, 81
1, 320700, Note_on_c, 0, 75, 80
1, 320701, Note_on_c, 0, 59, 66
1, 320727, Note_off_c, 0, 71, 64
1, 320745, Note_off_c, 0, 66, 58
1, 320748, Note_off_c, 0, 59, 61
1, 320751, Note_off_c, 0, 75, 64
1, 320752, Note_off_c, 0, 78, 63
1, 320760, Note_off_c, 0, 63, 63
1, 320764, Control_c, 0, 64, 109
1, 320778, Control_c, 0, 64, 88
1, 320793, Control_c, 0, 64, 71
1, 320808, Control_c, 0, 64, 10
1, 320823, Control_c, 0, 64, 36
1, 320825, Note_on_c, 0, 70, 94
1, 320826, Note_on_c, 0, 78, 93
1, 320831, Note_on_c, 0, 75, 74
1, 320838, Control_c, 0, 64, 63
1, 320841, Note_on_c, 0, 66, 77
1, 320846, Note_on_c, 0, 58, 59
1, 320849, Note_on_c, 0, 63, 52
1, 320852, Control_c, 0, 64, 72
1, 320867, Control_c, 0, 64, 82
1, 320882, Note_off_c, 0, 70, 58
1, 320882, Control_c, 0, 64, 93
1, 320897, Note_off_c, 0, 63, 58
1, 320897, Note_off_c, 0, 66, 56
1, 320897, Control_c, 0, 64, 100
1, 320898, Note_off_c, 0, 75, 62
1, 320900, Note_off_c, 0, 78, 60
1, 320904, Note_off_c, 0, 58, 58
1, 320912, Control_c, 0, 64, 102
1, 320926, Control_c, 0, 64, 103
1, 320941, Control_c, 0, 64, 104
1, 320956, Control_c, 0, 64, 106
1, 320971, Control_c, 0, 64, 107
1, 320979, Note_on_c, 0, 69, 84
1, 320980, Note_on_c, 0, 78, 89
1, 320981, Note_on_c, 0, 75, 81
1, 320986, Control_c, 0, 64, 109
1, 320989, Note_on_c, 0, 57, 57
1, 320998, Note_on_c, 0, 63, 73
1, 321008, Control_c, 0, 64, 111
1, 321023, Control_c, 0, 64, 113
1, 321026, Note_off_c, 0, 69, 66
1, 321037, Note_off_c, 0, 78, 61
1, 321038, Control_c, 0, 64, 115
1, 321043, Note_off_c, 0, 75, 63
1, 321049, Note_off_c, 0, 57, 57
1, 321052, Control_c, 0, 64, 117
1, 321054, Note_off_c, 0, 63, 63
1, 321067, Control_c, 0, 64, 120
1, 321082, Control_c, 0, 64, 122
1, 321097, Control_c, 0, 64, 124
1, 321112, Control_c, 0, 64, 126
1, 321126, Control_c, 0, 64, 127
1, 321141, Note_on_c, 0, 78, 95
1, 321141, Note_on_c, 0, 66, 104
1, 321150, Note_on_c, 0, 75, 81
1, 321159, Note_on_c, 0, 54, 67
1, 321162, Note_on_c, 0, 63, 76
1, 321241, Note_off_c, 0, 54, 59
1, 321244, Note_off_c, 0, 63, 59
1, 321257, Note_off_c, 0, 66, 61
1, 321258, Note_off_c, 0, 78, 60
1, 321281, Note_off_c, 0, 75, 62
1, 321320, Control_c, 0, 64, 98
1, 321335, Control_c, 0, 64, 68
1, 321350, Control_c, 0, 64, 0
1, 321359, Note_on_c, 0, 66, 104
1, 321359, Note_on_c, 0, 78, 106
1, 321366, Note_on_c, 0, 63, 90
1, 321366, Note_on_c, 0, 75, 89
1, 321372, Note_on_c, 0, 54, 70
1, 321409, Control_c, 0, 64, 63
1, 321424, Control_c, 0, 64, 78
1, 321439, Control_c, 0, 64, 94
1, 321454, Control_c, 0, 64, 109
1, 321466, Note_off_c, 0, 63, 55
1, 321468, Control_c, 0, 64, 112
1, 321471, Note_off_c, 0, 54, 52
1, 321483, Control_c, 0, 64, 113
1, 321498, Control_c, 0, 64, 114
1, 321513, Control_c, 0, 64, 114
1, 321516, Note_off_c, 0, 78, 59
1, 321518, Note_off_c, 0, 75, 61
1, 321519, Note_off_c, 0, 66, 60
1, 321542, Control_c, 0, 64, 115
1, 321557, Control_c, 0, 64, 116
1, 321572, Control_c, 0, 64, 117
1, 321587, Control_c, 0, 64, 118
1, 321594, Note_on_c, 0, 77, 101
1, 321595, Note_on_c, 0, 65, 95
1, 321599, Note_on_c, 0, 63, 76
1, 321602, Control_c, 0, 64, 120
1, 321603, Note_on_c, 0, 75, 85
1, 321604, Note_on_c, 0, 53, 77
1, 321617, Control_c, 0, 64, 124
1, 321624, Note_off_c, 0, 63, 67
1, 321628, Note_off_c, 0, 65, 63
1, 321632, Control_c, 0, 64, 127
1, 321651, Note_off_c, 0, 53, 67
1, 321685, Note_off_c, 0, 77, 56
1, 321699, Note_off_c, 0, 75, 63
1, 321850, Note_on_c, 0, 89, 103
1, 321851, Note_on_c, 0, 77, 108
1, 321851, Note_on_c, 0, 53, 87
1, 321856, Note_on_c, 0, 41, 80
1, 321885, Note_off_c, 0, 77, 65
1, 321895, Note_off_c, 0, 53, 66
1, 321924, Note_off_c, 0, 41, 66
1, 321961, Note_off_c, 0, 89, 65
1, 322144, Control_c, 0, 64, 109
1, 322154, Note_on_c, 0, 34, 93
1, 322154, Note_on_c, 0, 46, 106
1, 322159, Control_c, 0, 64, 72
1, 322173, Control_c, 0, 64, 0
1, 322209, Note_on_c, 0, 89, 109
1, 322210, Note_on_c, 0, 98, 94
1, 322211, Note_on_c, 0, 101, 105
1, 322215, Note_on_c, 0, 92, 100
1, 322224, Note_off_c, 0, 34, 65
1, 322247, Control_c, 0, 64, 50
1, 322262, Control_c, 0, 64, 72
1, 322268, Note_off_c, 0, 46, 61
1, 322277, Note_off_c, 0, 89, 64
1, 322277, Control_c, 0, 64, 81
1, 322283, Note_off_c, 0, 101, 64
1, 322292, Control_c, 0, 64, 93
1, 322307, Control_c, 0, 64, 103
1, 322317, Note_off_c, 0, 98, 59
1, 322322, Control_c, 0, 64, 114
1, 322336, Control_c, 0, 64, 127
1, 322346, Note_off_c, 0, 92, 63
1, 322529, Note_on_c, 0, 59, 86
1, 322530, Note_on_c, 0, 47, 88
1, 322584, Note_off_c, 0, 47, 62
1, 322585, Note_off_c, 0, 59, 63
1, 322671, Note_on_c, 0, 48, 88
1, 322673, Note_on_c, 0, 60, 90
1, 322733, Note_off_c, 0, 48, 62
1, 322742, Note_off_c, 0, 60, 53
1, 322787, Control_c, 0, 64, 96
1, 322802, Control_c, 0, 64, 69
1, 322809, Note_on_c, 0, 89, 98
1, 322813, Note_on_c, 0, 77, 112
1, 322814, Note_on_c, 0, 80, 94
1, 322814, Note_on_c, 0, 86, 87
1, 322816, Control_c, 0, 64, 0
1, 322828, Note_on_c, 0, 61, 95
1, 322828, Note_on_c, 0, 49, 90
1, 322861, Control_c, 0, 64, 20
1, 322873, Note_off_c, 0, 89, 63
1, 322877, Control_c, 0, 64, 69
1, 322885, Note_off_c, 0, 77, 61
1, 322888, Note_off_c, 0, 49, 62
1, 322892, Control_c, 0, 64, 83
1, 322899, Note_off_c, 0, 61, 60
1, 322907, Control_c, 0, 64, 100
1, 322908, Note_off_c, 0, 86, 59
1, 322921, Control_c, 0, 64, 107
1, 322935, Note_off_c, 0, 80, 61
1, 322936, Control_c, 0, 64, 108
1, 322951, Control_c, 0, 64, 109
1, 322965, Note_on_c, 0, 62, 89
1, 322966, Control_c, 0, 64, 111
1, 322968, Note_on_c, 0, 50, 85
1, 322981, Control_c, 0, 64, 116
1, 322995, Control_c, 0, 64, 126
1, 323007, Note_off_c, 0, 50, 62
1, 323010, Control_c, 0, 64, 127
1, 323014, Note_off_c, 0, 62, 61
1, 323106, Note_on_c, 0, 65, 93
1, 323108, Note_on_c, 0, 53, 90
1, 323141, Note_off_c, 0, 65, 63
1, 323170, Note_off_c, 0, 53, 65
1, 323201, Note_on_c, 0, 78, 58
1, 323268, Note_off_c, 0, 78, 0
1, 323316, Poly_aftertouch_c, 0, 78, 0
1, 323332, Note_on_c, 0, 83, 94
1, 323335, Note_on_c, 0, 73, 95
1, 323335, Note_on_c, 0, 71, 101
1, 323336, Note_on_c, 0, 76, 89
1, 323341, Note_on_c, 0, 79, 82
1, 323344, Control_c, 0, 64, 88
1, 323345, Note_on_c, 0, 51, 100
1, 323346, Note_on_c, 0, 39, 94
1, 323359, Control_c, 0, 64, 0
1, 323375, Note_on_c, 0, 81, 34
1, 323376, Note_off_c, 0, 81, 127
1, 323451, Note_off_c, 0, 39, 62
1, 323462, Control_c, 0, 64, 67
1, 323465, Note_off_c, 0, 51, 57
1, 323477, Control_c, 0, 64, 76
1, 323492, Control_c, 0, 64, 90
1, 323507, Control_c, 0, 64, 101
1, 323521, Control_c, 0, 64, 109
1, 323536, Control_c, 0, 64, 118
1, 323551, Control_c, 0, 64, 127
1, 323602, Note_on_c, 0, 61, 86
1, 323606, Note_on_c, 0, 49, 74
1, 323652, Note_off_c, 0, 49, 58
1, 323660, Note_off_c, 0, 61, 59
1, 323729, Poly_aftertouch_c, 0, 78, 0
1, 323734, Note_on_c, 0, 62, 89
1, 323740, Note_on_c, 0, 50, 80
1, 323771, Note_off_c, 0, 50, 60
1, 323791, Note_off_c, 0, 62, 60
1, 323833, Control_c, 0, 64, 111
1, 323848, Control_c, 0, 64, 87
1, 323863, Control_c, 0, 64, 58
1, 323876, Note_off_c, 0, 83, 55
1, 323877, Note_on_c, 0, 63, 97
1, 323878, Note_on_c, 0, 51, 91
1, 323878, Note_off_c, 0, 71, 50
1, 323878, Control_c, 0, 64, 0
1, 323907, Note_off_c, 0, 73, 53
1, 323922, Control_c, 0, 64, 67
1, 323937, Note_off_c, 0, 76, 33
1, 323937, Control_c, 0, 64, 79
1, 323943, Note_off_c, 0, 51, 62
1, 323943, Note_off_c, 0, 63, 63
1, 323946, Note_off_c, 0, 79, 32
1, 323952, Control_c, 0, 64, 93
1, 323967, Control_c, 0, 64, 101
1, 323982, Control_c, 0, 64, 102
1, 324010, Note_on_c, 0, 64, 90
1, 324011, Note_on_c, 0, 52, 95
1, 324048, Control_c, 0, 64, 102
1, 324068, Note_off_c, 0, 52, 66
1, 324074, Note_off_c, 0, 64, 62
1, 324077, Control_c, 0, 64, 103
1, 324092, Control_c, 0, 64, 104
1, 324093, Note_on_c, 0, 70, 100
1, 324094, Note_on_c, 0, 82, 94
1, 324102, Note_on_c, 0, 73, 81
1, 324104, Note_on_c, 0, 76, 82
1, 324107, Control_c, 0, 64, 106
1, 324122, Control_c, 0, 64, 115
1, 324127, Note_off_c, 0, 70, 66
1, 324137, Control_c, 0, 64, 127
1, 324150, Note_off_c, 0, 76, 66
1, 324152, Note_off_c, 0, 73, 64
1, 324188, Note_off_c, 0, 82, 64
1, 324194, Note_on_c, 0, 67, 103
1, 324199, Note_on_c, 0, 55, 92
1, 324233, Note_off_c, 0, 67, 64
1, 324275, Note_off_c, 0, 55, 61
1, 324339, Note_on_c, 0, 97, 18
1, 324379, Note_off_c, 0, 97, 55
1, 324433, Control_c, 0, 64, 92
1, 324448, Control_c, 0, 64, 54
1, 324464, Control_c, 0, 64, 0
1, 324466, Note_on_c, 0, 99, 102
1, 324469, Note_on_c, 0, 87, 105
1, 324473, Note_on_c, 0, 96, 97
1, 324475, Note_on_c, 0, 90, 91
1, 324481, Note_on_c, 0, 32, 92
1, 324481, Note_on_c, 0, 44, 92
1, 324508, Control_c, 0, 64, 63
1, 324509, Note_off_c, 0, 32, 68
1, 324523, Control_c, 0, 64, 77
1, 324531, Note_off_c, 0, 44, 61
1, 324534, Note_off_c, 0, 99, 70
1, 324538, Control_c, 0, 64, 94
1, 324553, Control_c, 0, 64, 105
1, 324556, Note_off_c, 0, 87, 63
1, 324564, Note_off_c, 0, 96, 61
1, 324567, Control_c, 0, 64, 106
1, 324589, Note_off_c, 0, 90, 63
1, 324597, Control_c, 0, 64, 107
1, 324626, Control_c, 0, 64, 107
1, 324641, Control_c, 0, 64, 108
1, 324656, Control_c, 0, 64, 110
1, 324671, Control_c, 0, 64, 117
1, 324685, Control_c, 0, 64, 127
1, 324688, Note_on_c, 0, 57, 86
1, 324691, Note_on_c, 0, 45, 80
1, 324722, Note_off_c, 0, 45, 66
1, 324742, Note_off_c, 0, 57, 64
1, 324829, Note_on_c, 0, 58, 94
1, 324833, Note_on_c, 0, 46, 88
1, 324888, Note_off_c, 0, 58, 59
1, 324891, Note_off_c, 0, 46, 61
1, 324900, Control_c, 0, 64, 127
1, 324915, Control_c, 0, 64, 88
1, 324930, Control_c, 0, 64, 60
1, 324945, Control_c, 0, 64, 0
1, 324951, Note_on_c, 0, 75, 103
1, 324951, Note_on_c, 0, 87, 99
1, 324958, Note_on_c, 0, 78, 91
1, 324958, Note_on_c, 0, 84, 82
1, 324963, Note_on_c, 0, 59, 90
1, 324966, Note_on_c, 0, 47, 88
1, 324997, Note_off_c, 0, 59, 62
1, 325001, Note_off_c, 0, 47, 67
1, 325004, Control_c, 0, 64, 63
1, 325019, Control_c, 0, 64, 74
1, 325034, Control_c, 0, 64, 83
1, 325044, Note_off_c, 0, 87, 66
1, 325049, Control_c, 0, 64, 88
1, 325052, Note_off_c, 0, 84, 60
1, 325064, Control_c, 0, 64, 89
1, 325071, Note_off_c, 0, 78, 59
1, 325079, Control_c, 0, 64, 90
1, 325093, Control_c, 0, 64, 92
1, 325098, Note_on_c, 0, 60, 85
1, 325102, Note_on_c, 0, 48, 80
1, 325105, Note_off_c, 0, 75, 59
1, 325108, Control_c, 0, 64, 97
1, 325123, Note_off_c, 0, 60, 64
1, 325123, Control_c, 0, 64, 102
1, 325130, Note_off_c, 0, 48, 67
1, 325137, Control_c, 0, 64, 108
1, 325152, Control_c, 0, 64, 114
1, 325167, Control_c, 0, 64, 121
1, 325182, Control_c, 0, 64, 127
1, 325219, Note_on_c, 0, 63, 89
1, 325220, Note_on_c, 0, 51, 88
1, 325239, Note_off_c, 0, 63, 72
1, 325273, Note_off_c, 0, 51, 61
1, 325331, Control_c, 0, 64, 97
1, 325347, Control_c, 0, 64, 68
1, 325361, Control_c, 0, 64, 0
1, 325368, Note_on_c, 0, 81, 101
1, 325371, Note_on_c, 0, 71, 93
1, 325371, Note_on_c, 0, 74, 87
1, 325372, Note_on_c, 0, 69, 99
1, 325374, Note_on_c, 0, 77, 92
1, 325383, Note_on_c, 0, 49, 96
1, 325386, Note_on_c, 0, 37, 86
1, 325410, Note_off_c, 0, 37, 69
1, 325419, Note_off_c, 0, 49, 62
1, 325450, Control_c, 0, 64, 66
1, 325465, Control_c, 0, 64, 74
1, 325480, Control_c, 0, 64, 78
1, 325502, Control_c, 0, 64, 81
1, 325517, Control_c, 0, 64, 84
1, 325528, Note_on_c, 0, 59, 88
1, 325532, Control_c, 0, 64, 88
1, 325533, Note_on_c, 0, 47, 87
1, 325547, Control_c, 0, 64, 92
1, 325562, Control_c, 0, 64, 95
1, 325562, Note_off_c, 0, 47, 67
1, 325570, Note_off_c, 0, 59, 62
1, 325576, Control_c, 0, 64, 97
1, 325591, Control_c, 0, 64, 98
1, 325606, Control_c, 0, 64, 99
1, 325621, Control_c, 0, 64, 100
1, 325636, Control_c, 0, 64, 102
1, 325650, Control_c, 0, 64, 104
1, 325663, Note_on_c, 0, 60, 94
1, 325665, Control_c, 0, 64, 108
1, 325667, Note_on_c, 0, 48, 89
1, 325680, Control_c, 0, 64, 113
1, 325695, Control_c, 0, 64, 120
1, 325710, Control_c, 0, 64, 126
1, 325713, Note_off_c, 0, 60, 60
1, 325717, Note_off_c, 0, 48, 63
1, 325724, Control_c, 0, 64, 127
1, 325768, Control_c, 0, 64, 110
1, 325783, Control_c, 0, 64, 82
1, 325798, Control_c, 0, 64, 0
1, 325810, Note_on_c, 0, 61, 100
1, 325812, Note_on_c, 0, 49, 96
1, 325848, Note_off_c, 0, 81, 57
1, 325851, Note_off_c, 0, 77, 59
1, 325859, Note_off_c, 0, 74, 62
1, 325872, Control_c, 0, 64, 66
1, 325887, Control_c, 0, 64, 75
1, 325890, Note_off_c, 0, 49, 61
1, 325894, Note_off_c, 0, 71, 53
1, 325895, Note_off_c, 0, 61, 61
1, 325902, Control_c, 0, 64, 82
1, 325917, Control_c, 0, 64, 85
1, 325931, Control_c, 0, 64, 85
1, 325934, Note_off_c, 0, 69, 60
1, 325946, Control_c, 0, 64, 86
1, 325961, Control_c, 0, 64, 86
1, 325967, Note_on_c, 0, 62, 91
1, 325969, Note_on_c, 0, 50, 87
1, 325976, Control_c, 0, 64, 88
1, 325991, Control_c, 0, 64, 89
1, 326006, Control_c, 0, 64, 89
1, 326018, Note_off_c, 0, 50, 61
1, 326021, Control_c, 0, 64, 91
1, 326027, Note_off_c, 0, 62, 60
1, 326035, Control_c, 0, 64, 92
1, 326050, Control_c, 0, 64, 93
1, 326057, Note_on_c, 0, 68, 103
1, 326057, Note_on_c, 0, 80, 93
1, 326063, Note_on_c, 0, 71, 78
1, 326064, Note_on_c, 0, 74, 82
1, 326066, Control_c, 0, 64, 94
1, 326080, Control_c, 0, 64, 95
1, 326095, Control_c, 0, 64, 96
1, 326099, Note_off_c, 0, 68, 67
1, 326110, Control_c, 0, 64, 97
1, 326118, Note_off_c, 0, 71, 58
1, 326125, Control_c, 0, 64, 98
1, 326132, Note_off_c, 0, 74, 64
1, 326139, Control_c, 0, 64, 99
1, 326154, Control_c, 0, 64, 101
1, 326164, Note_on_c, 0, 65, 104
1, 326169, Note_off_c, 0, 80, 65
1, 326169, Control_c, 0, 64, 104
1, 326170, Note_on_c, 0, 53, 99
1, 326183, Control_c, 0, 64, 107
1, 326194, Note_off_c, 0, 65, 70
1, 326198, Control_c, 0, 64, 111
1, 326203, Note_off_c, 0, 53, 63
1, 326213, Control_c, 0, 64, 115
1, 326228, Control_c, 0, 64, 119
1, 326250, Control_c, 0, 64, 122
1, 326265, Control_c, 0, 64, 126
1, 326280, Control_c, 0, 64, 127
1, 326413, Control_c, 0, 64, 116
1, 326428, Control_c, 0, 64, 83
1, 326443, Control_c, 0, 64, 0
1, 326475, Note_on_c, 0, 97, 109
1, 326476, Note_on_c, 0, 85, 111
1, 326478, Note_on_c, 0, 93, 96
1, 326486, Note_on_c, 0, 42, 99
1, 326487, Note_on_c, 0, 30, 92
1, 326517, Control_c, 0, 64, 75
1, 326519, Note_on_c, 0, 90, 30
1, 326520, Note_off_c, 0, 90, 127
1, 326520, Note_off_c, 0, 30, 67
1, 326527, Note_off_c, 0, 85, 65
1, 326531, Note_off_c, 0, 97, 65
1, 326532, Control_c, 0, 64, 93
1, 326538, Note_off_c, 0, 42, 63
1, 326539, Note_off_c, 0, 93, 61
1, 326546, Control_c, 0, 64, 120
1, 326561, Control_c, 0, 64, 121
1, 326739, Control_c, 0, 64, 122
1, 326754, Control_c, 0, 64, 122
1, 326837, Note_on_c, 0, 81, 108
1, 326837, Note_on_c, 0, 93, 99
1, 326842, Note_on_c, 0, 90, 98
1, 326850, Note_on_c, 0, 66, 74
1, 326856, Note_on_c, 0, 69, 72
1, 326861, Note_on_c, 0, 57, 66
1, 326948, Control_c, 0, 64, 123
1, 326959, Note_off_c, 0, 69, 58
1, 326962, Control_c, 0, 64, 124
1, 326965, Note_off_c, 0, 81, 53
1, 326971, Note_off_c, 0, 93, 60
1, 326977, Control_c, 0, 64, 127
1, 326987, Note_off_c, 0, 57, 38
1, 326994, Note_off_c, 0, 90, 62
1, 326998, Note_off_c, 0, 66, 58
1, 327043, Control_c, 0, 64, 108
1, 327058, Control_c, 0, 64, 86
1, 327064, Note_on_c, 0, 81, 100
1, 327065, Note_on_c, 0, 90, 85
1, 327066, Note_on_c, 0, 93, 97
1, 327067, Note_on_c, 0, 84, 89
1, 327070, Note_on_c, 0, 69, 80
1, 327073, Control_c, 0, 64, 60
1, 327074, Note_on_c, 0, 66, 65
1, 327085, Note_on_c, 0, 57, 56
1, 327088, Control_c, 0, 64, 0
1, 327089, Note_on_c, 0, 60, 59
1, 327133, Control_c, 0, 64, 67
1, 327148, Control_c, 0, 64, 78
1, 327155, Note_off_c, 0, 81, 60
1, 327157, Note_off_c, 0, 69, 62
1, 327158, Note_off_c, 0, 93, 61
1, 327159, Note_off_c, 0, 66, 60
1, 327159, Note_off_c, 0, 84, 63
1, 327162, Control_c, 0, 64, 91
1, 327177, Control_c, 0, 64, 99
1, 327181, Note_off_c, 0, 90, 63
1, 327192, Control_c, 0, 64, 101
1, 327195, Note_off_c, 0, 60, 58
1, 327221, Control_c, 0, 64, 101
1, 327236, Note_off_c, 0, 57, 0
1, 327236, Control_c, 0, 64, 102
1, 327242, Note_on_c, 0, 81, 102
1, 327242, Note_on_c, 0, 90, 87
1, 327245, Note_on_c, 0, 85, 88
1, 327245, Note_on_c, 0, 93, 100
1, 327251, Note_on_c, 0, 57, 34
1, 327251, Control_c, 0, 64, 103
1, 327258, Note_on_c, 0, 66, 72
1, 327260, Note_on_c, 0, 69, 70
1, 327261, Note_on_c, 0, 61, 62
1, 327266, Control_c, 0, 64, 103
1, 327281, Control_c, 0, 64, 105
1, 327291, Note_off_c, 0, 69, 62
1, 327295, Control_c, 0, 64, 108
1, 327297, Note_off_c, 0, 57, 57
1, 327301, Note_off_c, 0, 93, 60
1, 327310, Control_c, 0, 64, 114
1, 327312, Note_off_c, 0, 66, 65
1, 327315, Note_off_c, 0, 81, 60
1, 327325, Control_c, 0, 64, 123
1, 327331, Note_off_c, 0, 90, 62
1, 327334, Note_off_c, 0, 85, 64
1, 327339, Note_off_c, 0, 61, 60
1, 327339, Control_c, 0, 64, 127
1, 327399, Control_c, 0, 64, 109
1, 327413, Control_c, 0, 64, 85
1, 327417, Note_on_c, 0, 78, 99
1, 327419, Note_on_c, 0, 90, 91
1, 327420, Note_on_c, 0, 85, 91
1, 327428, Control_c, 0, 64, 65
1, 327432, Note_on_c, 0, 66, 79
1, 327440, Note_on_c, 0, 54, 59
1, 327443, Note_on_c, 0, 61, 63
1, 327443, Control_c, 0, 64, 0
1, 327473, Control_c, 0, 64, 64
1, 327487, Control_c, 0, 64, 74
1, 327499, Note_off_c, 0, 66, 62
1, 327501, Note_off_c, 0, 78, 61
1, 327502, Control_c, 0, 64, 87
1, 327508, Note_off_c, 0, 90, 62
1, 327511, Note_off_c, 0, 54, 56
1, 327511, Note_off_c, 0, 61, 55
1, 327517, Control_c, 0, 64, 94
1, 327520, Note_off_c, 0, 85, 64
1, 327532, Control_c, 0, 64, 96
1, 327547, Control_c, 0, 64, 97
1, 327587, Note_on_c, 0, 78, 95
1, 327589, Note_on_c, 0, 80, 88
1, 327589, Note_on_c, 0, 85, 74
1, 327589, Note_on_c, 0, 90, 85
1, 327592, Note_on_c, 0, 54, 58
1, 327592, Control_c, 0, 64, 97
1, 327594, Note_on_c, 0, 66, 69
1, 327602, Note_on_c, 0, 61, 57
1, 327606, Note_on_c, 0, 56, 56
1, 327606, Control_c, 0, 64, 98
1, 327621, Control_c, 0, 64, 98
1, 327636, Note_off_c, 0, 61, 59
1, 327637, Note_off_c, 0, 78, 62
1, 327640, Note_off_c, 0, 66, 59
1, 327651, Control_c, 0, 64, 99
1, 327659, Note_off_c, 0, 90, 62
1, 327659, Note_off_c, 0, 56, 54
1, 327663, Note_off_c, 0, 80, 64
1, 327668, Note_off_c, 0, 85, 63
1, 327672, Note_off_c, 0, 54, 58
1, 327681, Control_c, 0, 64, 99
1, 327696, Control_c, 0, 64, 100
1, 327711, Control_c, 0, 64, 100
1, 327720, Note_on_c, 0, 85, 73
1, 327723, Note_on_c, 0, 81, 88
1, 327723, Note_on_c, 0, 90, 81
1, 327726, Control_c, 0, 64, 101
1, 327737, Note_on_c, 0, 66, 80
1, 327740, Note_on_c, 0, 61, 68
1, 327740, Note_on_c, 0, 78, 84
1, 327748, Control_c, 0, 64, 103
1, 327749, Note_on_c, 0, 54, 50
1, 327749, Note_on_c, 0, 57, 56
1, 327759, Note_off_c, 0, 66, 71
1, 327762, Control_c, 0, 64, 104
1, 327769, Note_off_c, 0, 61, 64
1, 327777, Control_c, 0, 64, 105
1, 327780, Note_off_c, 0, 90, 64
1, 327782, Note_off_c, 0, 57, 63
1, 327782, Note_off_c, 0, 81, 61
1, 327791, Note_off_c, 0, 78, 62
1, 327792, Note_off_c, 0, 85, 64
1, 327792, Control_c, 0, 64, 108
1, 327805, Note_off_c, 0, 54, 61
1, 327807, Control_c, 0, 64, 112
1, 327822, Control_c, 0, 64, 115
1, 327836, Control_c, 0, 64, 117
1, 327874, Note_on_c, 0, 82, 83
1, 327877, Note_on_c, 0, 61, 79
1, 327877, Note_on_c, 0, 85, 84
1, 327878, Note_on_c, 0, 73, 91
1, 327888, Note_on_c, 0, 57, 58
1, 327890, Note_on_c, 0, 49, 63
1, 327924, Note_off_c, 0, 73, 61
1, 327929, Note_on_c, 0, 81, 40
1, 327930, Note_off_c, 0, 85, 63
1, 327932, Note_off_c, 0, 61, 58
1, 327941, Note_off_c, 0, 57, 47
1, 327948, Note_off_c, 0, 49, 49
1, 327951, Note_off_c, 0, 82, 61
1, 327955, Note_off_c, 0, 81, 54
1, 327985, Control_c, 0, 64, 117
1, 328004, Note_on_c, 0, 49, 45
1, 328010, Note_on_c, 0, 57, 58
1, 328011, Note_on_c, 0, 73, 85
1, 328011, Note_on_c, 0, 77, 78
1, 328012, Note_on_c, 0, 81, 76
1, 328013, Note_on_c, 0, 61, 73
1, 328016, Note_on_c, 0, 85, 77
1, 328024, Note_on_c, 0, 53, 58
1, 328030, Control_c, 0, 64, 112
1, 328044, Control_c, 0, 64, 98
1, 328047, Note_off_c, 0, 73, 58
1, 328049, Note_off_c, 0, 61, 62
1, 328058, Note_off_c, 0, 85, 59
1, 328059, Control_c, 0, 64, 81
1, 328060, Note_off_c, 0, 81, 61
1, 328063, Note_off_c, 0, 77, 62
1, 328073, Note_off_c, 0, 53, 56
1, 328074, Control_c, 0, 64, 61
1, 328080, Note_off_c, 0, 57, 57
1, 328089, Control_c, 0, 64, 0
1, 328104, Control_c, 0, 64, 54
1, 328118, Control_c, 0, 64, 69
1, 328124, Note_on_c, 0, 85, 89
1, 328125, Note_on_c, 0, 73, 89
1, 328128, Note_on_c, 0, 78, 84
1, 328128, Note_on_c, 0, 61, 78
1, 328131, Note_on_c, 0, 57, 54
1, 328133, Control_c, 0, 64, 81
1, 328135, Note_on_c, 0, 54, 65
1, 328137, Note_off_c, 0, 49, 0
1, 328148, Control_c, 0, 64, 97
1, 328151, Note_off_c, 0, 61, 68
1, 328156, Note_on_c, 0, 49, 21
1, 328161, Note_off_c, 0, 57, 64
1, 328162, Control_c, 0, 64, 116
1, 328166, Note_off_c, 0, 85, 66
1, 328169, Note_off_c, 0, 73, 66
1, 328171, Note_off_c, 0, 54, 64
1, 328173, Note_off_c, 0, 78, 62
1, 328177, Control_c, 0, 64, 127
1, 328188, Note_off_c, 0, 49, 54
1, 328250, Note_on_c, 0, 69, 93
1, 328250, Note_on_c, 0, 81, 84
1, 328253, Note_on_c, 0, 57, 70
1, 328260, Note_on_c, 0, 78, 78
1, 328265, Note_on_c, 0, 54, 65
1, 328277, Note_off_c, 0, 69, 64
1, 328281, Note_off_c, 0, 57, 62
1, 328284, Note_on_c, 0, 45, 44
1, 328290, Note_off_c, 0, 78, 61
1, 328292, Note_off_c, 0, 54, 67
1, 328295, Note_off_c, 0, 81, 58
1, 328313, Note_off_c, 0, 45, 57
1, 328340, Control_c, 0, 64, 110
1, 328354, Control_c, 0, 64, 85
1, 328369, Control_c, 0, 64, 0
1, 328376, Note_on_c, 0, 69, 87
1, 328377, Note_on_c, 0, 57, 64
1, 328380, Note_on_c, 0, 73, 78
1, 328380, Note_on_c, 0, 78, 81
1, 328382, Note_on_c, 0, 54, 50
1, 328383, Note_on_c, 0, 81, 77
1, 328397, Note_off_c, 0, 69, 67
1, 328399, Note_on_c, 0, 45, 45
1, 328407, Note_off_c, 0, 57, 62
1, 328407, Note_off_c, 0, 81, 68
1, 328415, Note_off_c, 0, 54, 62
1, 328420, Note_off_c, 0, 78, 63
1, 328422, Note_off_c, 0, 73, 63
1, 328428, Note_off_c, 0, 45, 60
1, 328455, Poly_aftertouch_c, 0, 49, 0
1, 328474, Control_c, 0, 64, 35
1, 328492, Note_on_c, 0, 78, 94
1, 328493, Note_on_c, 0, 54, 79
1, 328493, Note_on_c, 0, 69, 103
1, 328495, Note_on_c, 0, 74, 89
1, 328496, Control_c, 0, 64, 84
1, 328498, Note_on_c, 0, 50, 72
1, 328499, Note_on_c, 0, 57, 77
1, 328499, Note_on_c, 0, 81, 90
1, 328511, Control_c, 0, 64, 115
1, 328518, Note_off_c, 0, 81, 71
1, 328522, Note_off_c, 0, 74, 65
1, 328523, Note_off_c, 0, 57, 67
1, 328526, Note_off_c, 0, 69, 64
1, 328526, Control_c, 0, 64, 127
1, 328530, Note_off_c, 0, 54, 61
1, 328531, Note_off_c, 0, 50, 66
1, 328537, Note_off_c, 0, 78, 64
1, 328619, Note_on_c, 0, 66, 94
1, 328624, Note_on_c, 0, 54, 74
1, 328624, Note_on_c, 0, 74, 77
1, 328627, Note_on_c, 0, 50, 65
1, 328630, Note_on_c, 0, 78, 73
1, 328631, Note_on_c, 0, 42, 53
1, 328644, Note_off_c, 0, 66, 63
1, 328652, Note_off_c, 0, 54, 59
1, 328653, Note_off_c, 0, 78, 66
1, 328658, Note_off_c, 0, 50, 63
1, 328668, Note_off_c, 0, 42, 62
1, 328681, Note_off_c, 0, 74, 62
1, 328689, Control_c, 0, 64, 105
1, 328704, Control_c, 0, 64, 85
1, 328719, Control_c, 0, 64, 61
1, 328733, Note_on_c, 0, 66, 89
1, 328733, Control_c, 0, 64, 0
1, 328738, Note_on_c, 0, 74, 62
1, 328739, Note_on_c, 0, 54, 71
1, 328740, Note_on_c, 0, 68, 76
1, 328741, Note_on_c, 0, 50, 59
1, 328742, Note_on_c, 0, 78, 67
1, 328754, Note_on_c, 0, 42, 46
1, 328768, Note_off_c, 0, 78, 67
1, 328769, Note_off_c, 0, 66, 65
1, 328772, Note_off_c, 0, 54, 62
1, 328784, Note_off_c, 0, 42, 56
1, 328784, Note_off_c, 0, 50, 57
1, 328796, Note_off_c, 0, 68, 62
1, 328799, Note_off_c, 0, 74, 63
1, 328837, Control_c, 0, 64, 75
1, 328840, Note_on_c, 0, 69, 87
1, 328840, Poly_aftertouch_c, 0, 74, 0
1, 328841, Note_on_c, 0, 54, 91
1, 328841, Note_on_c, 0, 66, 95
1, 328842, Note_on_c, 0, 78, 95
1, 328848, Note_on_c, 0, 74, 61
1, 328850, Note_on_c, 0, 50, 66
1, 328852, Control_c, 0, 64, 127
1, 328856, Note_on_c, 0, 42, 71
1, 328864, Note_on_c, 0, 45, 60
1, 328874, Note_off_c, 0, 54, 63
1, 328874, Note_off_c, 0, 50, 66
1, 328880, Note_off_c, 0, 74, 66
1, 328880, Note_off_c, 0, 78, 60
1, 328881, Note_off_c, 0, 69, 69
1, 328888, Note_off_c, 0, 66, 68
1, 328891, Note_off_c, 0, 45, 66
1, 328902, Note_off_c, 0, 42, 64
1, 328972, Note_on_c, 0, 50, 64
1, 328972, Note_on_c, 0, 69, 82
1, 328974, Note_on_c, 0, 62, 86
1, 328981, Note_on_c, 0, 74, 71
1, 328996, Note_off_c, 0, 62, 66
1, 328998, Note_on_c, 0, 38, 40
1, 329003, Note_off_c, 0, 74, 71
1, 329004, Note_off_c, 0, 50, 63
1, 329007, Note_off_c, 0, 69, 65
1, 329037, Note_off_c, 0, 38, 46
1, 329046, Poly_aftertouch_c, 0, 45, 127
1, 329058, Control_c, 0, 64, 110
1, 329073, Control_c, 0, 64, 93
1, 329080, Note_on_c, 0, 45, 21
1, 329082, Note_on_c, 0, 69, 81
1, 329084, Note_on_c, 0, 62, 81
1, 329085, Note_on_c, 0, 65, 84
1, 329088, Control_c, 0, 64, 74
1, 329093, Note_on_c, 0, 50, 70
1, 329097, Note_on_c, 0, 74, 60
1, 329103, Control_c, 0, 64, 0
1, 329109, Note_off_c, 0, 65, 68
1, 329111, Note_off_c, 0, 62, 64
1, 329115, Note_on_c, 0, 41, 38
1, 329115, Note_off_c, 0, 74, 69
1, 329120, Note_off_c, 0, 69, 65
1, 329121, Note_on_c, 0, 38, 32
1, 329125, Note_off_c, 0, 50, 65
1, 329139, Note_off_c, 0, 45, 61
1, 329154, Note_off_c, 0, 41, 46
1, 329157, Note_off_c, 0, 38, 46
1, 329177, Control_c, 0, 64, 68
1, 329190, Note_on_c, 0, 74, 91
1, 329192, Note_on_c, 0, 62, 94
1, 329192, Control_c, 0, 64, 93
1, 329193, Note_on_c, 0, 66, 109
1, 329198, Note_on_c, 0, 50, 81
1, 329199, Note_on_c, 0, 45, 61
1, 329201, Note_on_c, 0, 42, 71
1, 329207, Control_c, 0, 64, 127
1, 329222, Note_off_c, 0, 50, 65
1, 329225, Note_off_c, 0, 45, 64
1, 329233, Note_off_c, 0, 62, 63
1, 329233, Note_off_c, 0, 74, 68
1, 329240, Note_off_c, 0, 42, 65
1, 329240, Note_off_c, 0, 66, 68
1, 329325, Note_on_c, 0, 57, 92
1, 329330, Note_on_c, 0, 45, 68
1, 329332, Note_on_c, 0, 66, 77
1, 329333, Note_on_c, 0, 69, 73
1, 329354, Note_on_c, 0, 42, 25
1, 329355, Note_off_c, 0, 69, 73
1, 329358, Note_off_c, 0, 66, 56
1, 329360, Note_off_c, 0, 45, 61
1, 329368, Note_off_c, 0, 57, 59
1, 329378, Control_c, 0, 64, 115
1, 329393, Poly_aftertouch_c, 0, 33, 127
1, 329393, Control_c, 0, 64, 103
1, 329394, Note_off_c, 0, 42, 42
1, 329407, Control_c, 0, 64, 92
1, 329422, Control_c, 0, 64, 77
1, 329437, Control_c, 0, 64, 63
1, 329442, Note_on_c, 0, 45, 69
1, 329452, Note_on_c, 0, 57, 83
1, 329452, Note_on_c, 0, 66, 78
1, 329452, Control_c, 0, 64, 0
1, 329453, Note_on_c, 0, 69, 75
1, 329455, Note_on_c, 0, 61, 77
1, 329475, Note_off_c, 0, 57, 65
1, 329477, Note_off_c, 0, 45, 61
1, 329479, Note_off_c, 0, 69, 63
1, 329480, Note_on_c, 0, 42, 35
1, 329484, Note_off_c, 0, 61, 61
1, 329489, Note_off_c, 0, 66, 65
1, 329514, Note_off_c, 0, 42, 45
1, 329541, Poly_aftertouch_c, 0, 37, 0
1, 329556, Control_c, 0, 64, 69
1, 329562, Note_on_c, 0, 57, 97
1, 329563, Note_on_c, 0, 66, 87
1, 329564, Note_on_c, 0, 62, 88
1, 329566, Note_on_c, 0, 45, 71
1, 329567, Note_on_c, 0, 69, 83
1, 329571, Note_on_c, 0, 42, 61
1, 329571, Control_c, 0, 64, 84
1, 329577, Note_on_c, 0, 38, 59
1, 329586, Control_c, 0, 64, 104
1, 329587, Note_off_c, 0, 69, 75
1, 329590, Note_off_c, 0, 45, 64
1, 329594, Note_off_c, 0, 57, 61
1, 329598, Note_off_c, 0, 62, 61
1, 329600, Control_c, 0, 64, 122
1, 329604, Note_off_c, 0, 42, 64
1, 329609, Note_off_c, 0, 66, 66
1, 329610, Note_off_c, 0, 38, 63
1, 329613, Poly_aftertouch_c, 0, 33, 0
1, 329615, Control_c, 0, 64, 127
1, 329630, Control_c, 0, 64, 127
1, 329698, Note_on_c, 0, 42, 70
1, 329702, Note_on_c, 0, 54, 83
1, 329705, Note_on_c, 0, 66, 74
1, 329708, Note_on_c, 0, 30, 55
1, 329708, Note_on_c, 0, 62, 67
1, 329714, Note_on_c, 0, 57, 60
1, 329749, Note_off_c, 0, 30, 60
1, 329759, Note_off_c, 0, 54, 58
1, 329760, Note_off_c, 0, 66, 63
1, 329771, Note_off_c, 0, 42, 62
1, 329782, Note_off_c, 0, 62, 57
1, 329785, Note_off_c, 0, 57, 36
1, 329827, Note_on_c, 0, 57, 64
1, 329834, Note_on_c, 0, 54, 87
1, 329838, Note_on_c, 0, 66, 82
1, 329840, Note_on_c, 0, 30, 52
1, 329850, Note_on_c, 0, 42, 70
1, 329855, Note_on_c, 0, 62, 50
1, 329878, Note_off_c, 0, 30, 50
1, 329893, Note_off_c, 0, 62, 53
1, 329899, Note_off_c, 0, 57, 61
1, 329905, Note_off_c, 0, 42, 63
1, 329914, Note_off_c, 0, 54, 61
1, 329917, Note_off_c, 0, 66, 63
1, 329935, Note_on_c, 0, 32, 83
1, 329993, Control_c, 0, 64, 97
1, 330001, Note_on_c, 0, 37, 65
1, 330007, Control_c, 0, 64, 75
1, 330022, Control_c, 0, 64, 0
1, 330023, Note_on_c, 0, 41, 63
1, 330054, Note_on_c, 0, 53, 100
1, 330057, Note_on_c, 0, 65, 96
1, 330063, Note_on_c, 0, 44, 96
1, 330063, Note_on_c, 0, 56, 83
1, 330065, Note_on_c, 0, 61, 74
1, 330096, Note_off_c, 0, 41, 66
1, 330098, Control_c, 0, 64, 67
1, 330112, Control_c, 0, 64, 78
1, 330127, Control_c, 0, 64, 89
1, 330132, Note_off_c, 0, 37, 58
1, 330142, Control_c, 0, 64, 96
1, 330156, Control_c, 0, 64, 101
1, 330168, Note_off_c, 0, 53, 59
1, 330171, Control_c, 0, 64, 111
1, 330175, Note_off_c, 0, 65, 62
1, 330180, Note_off_c, 0, 56, 62
1, 330186, Control_c, 0, 64, 127
1, 330189, Note_off_c, 0, 61, 60
1, 330199, Note_off_c, 0, 44, 61
1, 330200, Note_off_c, 0, 32, 61
1, 330245, Control_c, 0, 64, 113
1, 330260, Control_c, 0, 64, 89
1, 330272, Note_on_c, 0, 43, 93
1, 330273, Note_on_c, 0, 53, 89
1, 330275, Control_c, 0, 64, 64
1, 330276, Note_on_c, 0, 31, 82
1, 330276, Note_on_c, 0, 65, 85
1, 330284, Note_on_c, 0, 56, 76
1, 330284, Note_on_c, 0, 61, 71
1, 330290, Control_c, 0, 64, 0
1, 330334, Control_c, 0, 64, 67
1, 330349, Control_c, 0, 64, 79
1, 330352, Note_off_c, 0, 31, 61
1, 330358, Note_off_c, 0, 53, 62
1, 330364, Note_off_c, 0, 56, 61
1, 330364, Control_c, 0, 64, 93
1, 330364, Note_off_c, 0, 43, 61
1, 330364, Note_off_c, 0, 65, 61
1, 330370, Note_off_c, 0, 61, 61
1, 330379, Control_c, 0, 64, 105
1, 330394, Control_c, 0, 64, 109
1, 330409, Control_c, 0, 64, 109
1, 330424, Control_c, 0, 64, 106
1, 330438, Control_c, 0, 64, 94
1, 330444, Note_on_c, 0, 44, 87
1, 330444, Note_on_c, 0, 32, 83
1, 330445, Note_on_c, 0, 53, 81
1, 330445, Note_on_c, 0, 56, 73
1, 330446, Note_on_c, 0, 65, 79
1, 330450, Note_on_c, 0, 61, 72
1, 330453, Control_c, 0, 64, 78
1, 330468, Control_c, 0, 64, 55
1, 330483, Control_c, 0, 64, 0
1, 330498, Note_off_c, 0, 53, 57
1, 330498, Control_c, 0, 64, 63
1, 330503, Note_off_c, 0, 56, 64
1, 330507, Note_off_c, 0, 65, 62
1, 330512, Control_c, 0, 64, 75
1, 330515, Note_off_c, 0, 61, 63
1, 330518, Note_off_c, 0, 32, 62
1, 330527, Control_c, 0, 64, 92
1, 330540, Note_off_c, 0, 44, 62
1, 330542, Control_c, 0, 64, 117
1, 330556, Control_c, 0, 64, 127
1, 330583, Note_on_c, 0, 45, 88
1, 330585, Note_on_c, 0, 56, 76
1, 330585, Note_on_c, 0, 61, 66
1, 330586, Note_on_c, 0, 53, 81
1, 330586, Control_c, 0, 64, 104
1, 330588, Note_on_c, 0, 65, 74
1, 330589, Note_on_c, 0, 33, 78
1, 330601, Control_c, 0, 64, 85
1, 330616, Control_c, 0, 64, 68
1, 330623, Note_off_c, 0, 53, 62
1, 330630, Control_c, 0, 64, 37
1, 330634, Note_off_c, 0, 33, 64
1, 330637, Note_off_c, 0, 56, 65
1, 330639, Note_off_c, 0, 65, 60
1, 330643, Note_off_c, 0, 45, 64
1, 330645, Note_off_c, 0, 61, 63
1, 330645, Control_c, 0, 64, 61
1, 330660, Control_c, 0, 64, 73
1, 330675, Control_c, 0, 64, 85
1, 330690, Control_c, 0, 64, 101
1, 330704, Control_c, 0, 64, 123
1, 330717, Note_on_c, 0, 53, 78
1, 330717, Note_on_c, 0, 56, 78
1, 330719, Note_on_c, 0, 65, 68
1, 330719, Control_c, 0, 64, 127
1, 330721, Note_on_c, 0, 46, 89
1, 330731, Note_on_c, 0, 61, 63
1, 330738, Note_on_c, 0, 34, 80
1, 330758, Note_off_c, 0, 53, 62
1, 330760, Note_off_c, 0, 65, 61
1, 330772, Note_off_c, 0, 61, 61
1, 330773, Note_off_c, 0, 56, 64
1, 330781, Note_off_c, 0, 34, 63
1, 330796, Note_off_c, 0, 46, 58
1, 330844, Note_on_c, 0, 53, 82
1, 330844, Note_on_c, 0, 56, 75
1, 330850, Note_on_c, 0, 61, 71
1, 330853, Note_on_c, 0, 47, 81
1, 330853, Note_on_c, 0, 65, 70
1, 330856, Note_on_c, 0, 35, 79
1, 330862, Note_on_c, 0, 46, 68
1, 330876, Note_off_c, 0, 53, 63
1, 330877, Note_off_c, 0, 65, 69
1, 330879, Note_off_c, 0, 61, 62
1, 330884, Note_off_c, 0, 46, 60
1, 330886, Note_off_c, 0, 35, 64
1, 330887, Note_off_c, 0, 47, 66
1, 330895, Note_off_c, 0, 56, 63
1, 330906, Control_c, 0, 64, 123
1, 330921, Control_c, 0, 64, 95
1, 330935, Control_c, 0, 64, 73
1, 330950, Control_c, 0, 64, 0
1, 330964, Note_on_c, 0, 48, 91
1, 330966, Note_on_c, 0, 65, 80
1, 330969, Note_on_c, 0, 55, 77
1, 330969, Note_on_c, 0, 36, 79
1, 330970, Note_on_c, 0, 61, 78
1, 330972, Note_on_c, 0, 53, 75
1, 330972, Note_on_c, 0, 58, 76
1, 330994, Control_c, 0, 64, 42
1, 331008, Note_off_c, 0, 36, 66
1, 331009, Control_c, 0, 64, 71
1, 331011, Note_off_c, 0, 48, 60
1, 331011, Note_off_c, 0, 53, 63
1, 331011, Note_off_c, 0, 55, 62
1, 331023, Note_off_c, 0, 58, 61
1, 331024, Note_off_c, 0, 61, 61
1, 331024, Control_c, 0, 64, 85
1, 331025, Note_off_c, 0, 65, 61
1, 331039, Control_c, 0, 64, 104
1, 331053, Control_c, 0, 64, 127
1, 331097, Note_on_c, 0, 61, 73
1, 331097, Note_on_c, 0, 65, 74
1, 331097, Note_on_c, 0, 49, 87
1, 331097, Note_on_c, 0, 53, 71
1, 331100, Note_on_c, 0, 58, 67
1, 331100, Note_on_c, 0, 37, 78
1, 331100, Note_on_c, 0, 55, 74
1, 331124, Note_off_c, 0, 55, 61
1, 331133, Note_off_c, 0, 53, 60
1, 331140, Note_off_c, 0, 58, 61
1, 331142, Control_c, 0, 64, 122
1, 331147, Note_off_c, 0, 65, 62
1, 331148, Note_off_c, 0, 61, 62
1, 331149, Note_off_c, 0, 49, 62
1, 331154, Note_off_c, 0, 37, 63
1, 331157, Control_c, 0, 64, 111
1, 331172, Control_c, 0, 64, 109
1, 331215, Note_on_c, 0, 53, 83
1, 331215, Note_on_c, 0, 61, 74
1, 331217, Note_on_c, 0, 48, 91
1, 331217, Note_on_c, 0, 65, 74
1, 331218, Note_on_c, 0, 36, 84
1, 331218, Note_on_c, 0, 58, 75
1, 331223, Note_on_c, 0, 55, 70
1, 331231, Control_c, 0, 64, 109
1, 331246, Control_c, 0, 64, 112
1, 331252, Note_off_c, 0, 55, 64
1, 331256, Note_off_c, 0, 53, 66
1, 331259, Note_off_c, 0, 48, 63
1, 331261, Control_c, 0, 64, 114
1, 331270, Note_off_c, 0, 61, 62
1, 331270, Note_off_c, 0, 65, 62
1, 331273, Note_off_c, 0, 36, 62
1, 331273, Note_off_c, 0, 58, 64
1, 331291, Control_c, 0, 64, 110
1, 331306, Control_c, 0, 64, 94
1, 331321, Control_c, 0, 64, 75
1, 331336, Control_c, 0, 64, 0
1, 331342, Note_on_c, 0, 53, 82
1, 331343, Note_on_c, 0, 47, 91
1, 331345, Note_on_c, 0, 35, 84
1, 331345, Note_on_c, 0, 58, 70
1, 331345, Note_on_c, 0, 61, 73
1, 331345, Note_on_c, 0, 65, 71
1, 331347, Note_on_c, 0, 55, 77
1, 331380, Control_c, 0, 64, 58
1, 331385, Note_off_c, 0, 55, 56
1, 331392, Note_off_c, 0, 53, 59
1, 331395, Control_c, 0, 64, 72
1, 331401, Note_off_c, 0, 47, 62
1, 331404, Note_off_c, 0, 35, 63
1, 331406, Note_off_c, 0, 61, 62
1, 331407, Note_off_c, 0, 58, 63
1, 331410, Note_off_c, 0, 65, 63
1, 331410, Control_c, 0, 64, 83
1, 331425, Control_c, 0, 64, 100
1, 331440, Control_c, 0, 64, 113
1, 331454, Control_c, 0, 64, 124
1, 331469, Control_c, 0, 64, 127
1, 331475, Note_on_c, 0, 65, 67
1, 331484, Note_on_c, 0, 61, 70
1, 331486, Note_on_c, 0, 53, 75
1, 331486, Note_on_c, 0, 58, 66
1, 331487, Note_on_c, 0, 55, 75
1, 331492, Note_on_c, 0, 46, 87
1, 331495, Note_on_c, 0, 34, 77
1, 331543, Note_off_c, 0, 55, 56
1, 331550, Note_off_c, 0, 53, 63
1, 331553, Note_off_c, 0, 65, 63
1, 331559, Note_off_c, 0, 46, 61
1, 331559, Note_off_c, 0, 61, 62
1, 331562, Note_off_c, 0, 58, 64
1, 331566, Note_off_c, 0, 34, 63
1, 331625, Control_c, 0, 64, 126
1, 331637, Note_on_c, 0, 65, 86
1, 331640, Note_on_c, 0, 53, 91
1, 331640, Note_on_c, 0, 55, 87
1, 331640, Control_c, 0, 64, 107
1, 331642, Note_on_c, 0, 61, 80
1, 331644, Note_on_c, 0, 45, 92
1, 331644, Note_on_c, 0, 58, 76
1, 331648, Note_on_c, 0, 33, 85
1, 331655, Control_c, 0, 64, 92
1, 331670, Control_c, 0, 64, 79
1, 331685, Control_c, 0, 64, 71
1, 331699, Control_c, 0, 64, 70
1, 331714, Control_c, 0, 64, 74
1, 331715, Note_off_c, 0, 58, 61
1, 331717, Note_off_c, 0, 61, 61
1, 331729, Control_c, 0, 64, 81
1, 331738, Note_off_c, 0, 45, 63
1, 331741, Note_off_c, 0, 55, 45
1, 331744, Control_c, 0, 64, 88
1, 331745, Note_off_c, 0, 33, 64
1, 331759, Control_c, 0, 64, 96
1, 331764, Note_off_c, 0, 53, 62
1, 331774, Control_c, 0, 64, 104
1, 331789, Control_c, 0, 64, 113
1, 331793, Note_off_c, 0, 65, 51
1, 331803, Control_c, 0, 64, 121
1, 331818, Control_c, 0, 64, 121
1, 331833, Control_c, 0, 64, 121
1, 331848, Control_c, 0, 64, 110
1, 331863, Control_c, 0, 64, 91
1, 331877, Control_c, 0, 64, 68
1, 331886, Note_on_c, 0, 54, 104
1, 331886, Note_on_c, 0, 60, 22
1, 331890, Note_on_c, 0, 44, 106
1, 331892, Note_on_c, 0, 65, 87
1, 331892, Control_c, 0, 64, 0
1, 331894, Note_on_c, 0, 57, 84
1, 331895, Note_on_c, 0, 32, 88
1, 331966, Control_c, 0, 64, 41
1, 331981, Control_c, 0, 64, 70
1, 331996, Control_c, 0, 64, 80
1, 332010, Control_c, 0, 64, 88
1, 332025, Control_c, 0, 64, 93
1, 332040, Control_c, 0, 64, 100
1, 332055, Control_c, 0, 64, 108
1, 332060, Note_off_c, 0, 32, 59
1, 332063, Note_off_c, 0, 44, 61
1, 332070, Control_c, 0, 64, 126
1, 332084, Control_c, 0, 64, 127
1, 332086, Note_off_c, 0, 54, 57
1, 332096, Note_off_c, 0, 65, 60
1, 332123, Note_off_c, 0, 57, 58
1, 332139, Note_off_c, 0, 60, 50
1, 332159, Control_c, 0, 64, 99
1, 332173, Control_c, 0, 64, 77
1, 332174, Note_on_c, 0, 54, 99
1, 332181, Note_on_c, 0, 65, 84
1, 332186, Note_on_c, 0, 60, 57
1, 332188, Note_on_c, 0, 57, 66
1, 332188, Control_c, 0, 64, 0
1, 332189, Note_on_c, 0, 44, 95
1, 332192, Note_on_c, 0, 32, 89
1, 332240, Control_c, 0, 64, 55
1, 332255, Control_c, 0, 64, 71
1, 332270, Control_c, 0, 64, 80
1, 332284, Control_c, 0, 64, 94
1, 332299, Control_c, 0, 64, 109
1, 332305, Note_off_c, 0, 44, 62
1, 332305, Note_off_c, 0, 54, 61
1, 332307, Note_off_c, 0, 32, 57
1, 332314, Control_c, 0, 64, 127
1, 332319, Note_off_c, 0, 65, 61
1, 332341, Note_off_c, 0, 57, 58
1, 332358, Note_off_c, 0, 60, 56
1, 332373, Control_c, 0, 64, 103
1, 332388, Control_c, 0, 64, 80
1, 332400, Note_on_c, 0, 54, 98
1, 332403, Note_on_c, 0, 65, 83
1, 332403, Control_c, 0, 64, 55
1, 332405, Note_on_c, 0, 60, 40
1, 332408, Note_on_c, 0, 44, 97
1, 332413, Note_on_c, 0, 32, 85
1, 332415, Note_on_c, 0, 57, 54
1, 332418, Control_c, 0, 64, 0
1, 332448, Control_c, 0, 64, 65
1, 332463, Control_c, 0, 64, 78
1, 332478, Control_c, 0, 64, 99
1, 332484, Note_off_c, 0, 57, 0
1, 332493, Control_c, 0, 64, 127
1, 332495, Note_off_c, 0, 54, 60
1, 332495, Note_off_c, 0, 44, 61
1, 332501, Note_off_c, 0, 32, 61
1, 332511, Note_off_c, 0, 65, 62
1, 332521, Poly_aftertouch_c, 0, 57, 127
1, 332552, Control_c, 0, 64, 103
1, 332567, Control_c, 0, 64, 83
1, 332579, Note_on_c, 0, 54, 101
1, 332582, Note_on_c, 0, 65, 83
1, 332582, Control_c, 0, 64, 51
1, 332592, Note_on_c, 0, 44, 95
1, 332597, Control_c, 0, 64, 0
1, 332597, Note_on_c, 0, 57, 3
1, 332598, Note_on_c, 0, 32, 84
1, 332626, Control_c, 0, 64, 64
1, 332641, Control_c, 0, 64, 80
1, 332649, Note_off_c, 0, 44, 62
1, 332656, Control_c, 0, 64, 102
1, 332662, Note_off_c, 0, 54, 60
1, 332664, Note_off_c, 0, 32, 57
1, 332671, Control_c, 0, 64, 127
1, 332676, Note_off_c, 0, 65, 62
1, 332701, Note_off_c, 0, 57, 0
1, 332715, Control_c, 0, 64, 126
1, 332730, Control_c, 0, 64, 99
1, 332737, Note_on_c, 0, 57, 9
1, 332744, Note_on_c, 0, 54, 95
1, 332745, Control_c, 0, 64, 81
1, 332747, Note_on_c, 0, 65, 80
1, 332749, Note_on_c, 0, 44, 88
1, 332758, Note_on_c, 0, 32, 72
1, 332759, Control_c, 0, 64, 67
1, 332774, Control_c, 0, 64, 66
1, 332789, Control_c, 0, 64, 77
1, 332804, Note_off_c, 0, 44, 62
1, 332804, Control_c, 0, 64, 96
1, 332807, Note_off_c, 0, 32, 59
1, 332812, Note_off_c, 0, 54, 58
1, 332819, Control_c, 0, 64, 127
1, 332824, Poly_aftertouch_c, 0, 62, 127
1, 332835, Note_off_c, 0, 65, 63
1, 332877, Control_c, 0, 64, 112
1, 332886, Note_off_c, 0, 57, 0
1, 332892, Control_c, 0, 64, 96
1, 332900, Note_on_c, 0, 54, 101
1, 332901, Note_on_c, 0, 57, 40
1, 332904, Note_on_c, 0, 65, 79
1, 332907, Control_c, 0, 64, 88
1, 332911, Note_on_c, 0, 44, 82
1, 332916, Note_on_c, 0, 32, 70
1, 332917, Poly_aftertouch_c, 0, 62, 0
1, 332922, Control_c, 0, 64, 88
1, 332934, Note_off_c, 0, 57, 63
1, 332935, Note_on_c, 0, 62, 17
1, 332937, Control_c, 0, 64, 93
1, 332951, Control_c, 0, 64, 112
1, 332964, Note_off_c, 0, 44, 54
1, 332966, Control_c, 0, 64, 127
1, 332983, Note_off_c, 0, 32, 54
1, 332990, Note_off_c, 0, 54, 59
1, 333002, Note_off_c, 0, 65, 63
1, 333028, Note_off_c, 0, 60, 29
1, 333032, Control_c, 0, 64, 112
1, 333047, Control_c, 0, 64, 84
1, 333062, Control_c, 0, 64, 0
1, 333068, Note_on_c, 0, 44, 90
1, 333068, Note_on_c, 0, 54, 106
1, 333071, Note_on_c, 0, 65, 84
1, 333076, Note_on_c, 0, 60, 58
1, 333077, Note_on_c, 0, 56, 79
1, 333082, Note_on_c, 0, 32, 73
1, 333083, Note_on_c, 0, 42, 71
1, 333083, Note_on_c, 0, 36, 61
1, 333121, Control_c, 0, 64, 47
1, 333136, Control_c, 0, 64, 74
1, 333148, Note_off_c, 0, 44, 62
1, 333148, Note_off_c, 0, 54, 59
1, 333151, Control_c, 0, 64, 94
1, 333154, Note_off_c, 0, 32, 60
1, 333162, Note_off_c, 0, 65, 60
1, 333166, Control_c, 0, 64, 122
1, 333171, Note_off_c, 0, 42, 59
1, 333175, Note_off_c, 0, 56, 60
1, 333178, Note_off_c, 0, 36, 61
1, 333181, Control_c, 0, 64, 127
1, 333240, Control_c, 0, 64, 105
1, 333243, Note_off_c, 0, 62, 0
1, 333250, Note_on_c, 0, 54, 103
1, 333251, Note_on_c, 0, 65, 88
1, 333254, Note_on_c, 0, 44, 83
1, 333255, Note_on_c, 0, 56, 73
1, 333255, Control_c, 0, 64, 83
1, 333261, Note_on_c, 0, 62, 18
1, 333264, Note_on_c, 0, 32, 70
1, 333265, Note_on_c, 0, 42, 71
1, 333270, Control_c, 0, 64, 63
1, 333282, Note_on_c, 0, 36, 46
1, 333285, Control_c, 0, 64, 0
1, 333300, Control_c, 0, 64, 51
1, 333311, Note_off_c, 0, 62, 43
1, 333315, Control_c, 0, 64, 72
1, 333321, Note_off_c, 0, 44, 61
1, 333327, Note_off_c, 0, 32, 60
1, 333330, Note_off_c, 0, 54, 58
1, 333330, Control_c, 0, 64, 87
1, 333345, Note_off_c, 0, 42, 59
1, 333345, Control_c, 0, 64, 127
1, 333358, Note_off_c, 0, 56, 60
1, 333360, Note_off_c, 0, 65, 63
1, 333369, Note_off_c, 0, 36, 50
1, 333419, Control_c, 0, 64, 97
1, 333428, Note_off_c, 0, 60, 0
1, 333428, Note_on_c, 0, 60, 20
1, 333428, Note_on_c, 0, 65, 81
1, 333430, Note_on_c, 0, 54, 96
1, 333431, Note_on_c, 0, 44, 88
1, 333434, Control_c, 0, 64, 73
1, 333434, Note_on_c, 0, 56, 73
1, 333438, Note_on_c, 0, 32, 68
1, 333444, Note_on_c, 0, 36, 50
1, 333446, Note_on_c, 0, 42, 68
1, 333448, Control_c, 0, 64, 31
1, 333455, Note_on_c, 0, 62, 24
1, 333463, Control_c, 0, 64, 49
1, 333478, Control_c, 0, 64, 71
1, 333493, Control_c, 0, 64, 86
1, 333506, Note_off_c, 0, 44, 54
1, 333508, Control_c, 0, 64, 111
1, 333516, Note_off_c, 0, 32, 56
1, 333521, Note_off_c, 0, 62, 37
1, 333523, Control_c, 0, 64, 127
1, 333524, Note_off_c, 0, 54, 61
1, 333530, Note_off_c, 0, 65, 62
1, 333542, Note_off_c, 0, 42, 48
1, 333561, Note_off_c, 0, 56, 58
1, 333592, Note_off_c, 0, 60, 56
1, 333611, Control_c, 0, 64, 98
1, 333619, Note_off_c, 0, 36, 0
1, 333626, Control_c, 0, 64, 67
1, 333628, Note_on_c, 0, 54, 102
1, 333628, Note_on_c, 0, 60, 46
1, 333630, Note_on_c, 0, 63, 94
1, 333631, Note_on_c, 0, 44, 84
1, 333636, Note_on_c, 0, 32, 72
1, 333638, Note_on_c, 0, 36, 36
1, 333640, Note_on_c, 0, 56, 70
1, 333640, Note_on_c, 0, 42, 74
1, 333641, Control_c, 0, 64, 0
1, 333685, Control_c, 0, 64, 26
1, 333700, Control_c, 0, 64, 70
1, 333715, Control_c, 0, 64, 80
1, 333737, Control_c, 0, 64, 93
1, 333752, Control_c, 0, 64, 106
1, 333753, Note_off_c, 0, 54, 54
1, 333755, Note_off_c, 0, 32, 47
1, 333765, Note_off_c, 0, 44, 55
1, 333766, Note_off_c, 0, 56, 0
1, 333766, Note_on_c, 0, 56, 3
1, 333767, Control_c, 0, 64, 127
1, 333795, Note_off_c, 0, 42, 60
1, 333807, Note_off_c, 0, 63, 60
1, 333809, Note_off_c, 0, 56, 54
1, 333825, Note_off_c, 0, 36, 41
1, 333827, Note_off_c, 0, 60, 59
1, 333873, Note_on_c, 0, 44, 94
1, 333873, Note_on_c, 0, 63, 93
1, 333875, Note_on_c, 0, 54, 96
1, 333884, Note_on_c, 0, 32, 76
1, 333885, Note_on_c, 0, 42, 81
1, 333885, Control_c, 0, 64, 109
1, 333887, Note_on_c, 0, 60, 62
1, 333888, Note_on_c, 0, 56, 83
1, 333892, Note_on_c, 0, 36, 60
1, 333899, Control_c, 0, 64, 78
1, 333914, Control_c, 0, 64, 0
1, 333974, Control_c, 0, 64, 68
1, 333989, Control_c, 0, 64, 87
1, 334004, Control_c, 0, 64, 127
1, 334029, Note_off_c, 0, 32, 52
1, 334054, Note_off_c, 0, 54, 49
1, 334055, Note_off_c, 0, 44, 61
1, 334069, Note_off_c, 0, 42, 60
1, 334075, Note_off_c, 0, 56, 54
1, 334088, Note_off_c, 0, 63, 59
1, 334110, Note_off_c, 0, 60, 60
1, 334123, Control_c, 0, 64, 95
1, 334138, Control_c, 0, 64, 70
1, 334150, Note_off_c, 0, 36, 0
1, 334153, Control_c, 0, 64, 0
1, 334153, Note_on_c, 0, 54, 102
1, 334153, Note_on_c, 0, 63, 100
1, 334158, Note_on_c, 0, 44, 90
1, 334163, Note_on_c, 0, 42, 74
1, 334163, Note_on_c, 0, 56, 79
1, 334163, Note_on_c, 0, 60, 63
1, 334167, Note_on_c, 0, 36, 36
1, 334168, Note_on_c, 0, 32, 74
1, 334197, Control_c, 0, 64, 71
1, 334212, Control_c, 0, 64, 89
1, 334214, Note_off_c, 0, 44, 61
1, 334227, Control_c, 0, 64, 117
1, 334237, Note_off_c, 0, 42, 58
1, 334242, Note_off_c, 0, 36, 57
1, 334242, Control_c, 0, 64, 127
1, 334244, Note_off_c, 0, 32, 60
1, 334319, Note_off_c, 0, 60, 60
1, 334346, Note_off_c, 0, 63, 58
1, 334396, Note_off_c, 0, 56, 50
1, 334489, Note_off_c, 0, 54, 56
1, 334590, Control_c, 0, 64, 103
1, 334604, Control_c, 0, 64, 74
1, 334605, Note_on_c, 0, 53, 102
1, 334605, Note_on_c, 0, 61, 104
1, 334611, Note_on_c, 0, 37, 112
1, 334612, Note_on_c, 0, 56, 88
1, 334614, Note_on_c, 0, 25, 101
1, 334619, Control_c, 0, 64, 0
1, 334737, Note_off_c, 0, 53, 59
1, 334776, Note_off_c, 0, 56, 61
1, 334797, Control_c, 0, 64, 58
1, 334812, Control_c, 0, 64, 74
1, 334820, Note_off_c, 0, 25, 54
1, 334826, Note_off_c, 0, 61, 60
1, 334826, Control_c, 0, 64, 90
1, 334841, Control_c, 0, 64, 117
1, 334857, Control_c, 0, 64, 127
1, 334862, Note_off_c, 0, 37, 58
1, 335151, Note_on_c, 0, 77, 84
1, 335165, Note_on_c, 0, 73, 60
1, 335166, Note_on_c, 0, 65, 68
1, 335166, Note_on_c, 0, 68, 66
1, 335238, Note_off_c, 0, 77, 56
1, 335250, Note_off_c, 0, 73, 62
1, 335261, Note_off_c, 0, 68, 58
1, 335283, Note_off_c, 0, 65, 62
1, 335507, Note_on_c, 0, 53, 40
1, 335510, Note_on_c, 0, 44, 32
1, 335511, Note_on_c, 0, 49, 39
1, 335518, Note_on_c, 0, 56, 36
1, 335565, Note_on_c, 0, 73, 78
1, 335572, Note_on_c, 0, 61, 76
1, 335584, Note_on_c, 0, 68, 59
1, 335589, Note_on_c, 0, 65, 54
1, 335609, Note_off_c, 0, 65, 66
1, 335615, Note_off_c, 0, 68, 68
1, 335639, Note_off_c, 0, 44, 34
1, 335643, Note_off_c, 0, 61, 61
1, 335643, Note_off_c, 0, 73, 63
1, 335649, Note_off_c, 0, 56, 35
1, 335671, Note_off_c, 0, 49, 41
1, 335751, Note_on_c, 0, 56, 62
1, 335764, Note_on_c, 0, 44, 51
1, 335777, Note_on_c, 0, 49, 46
1, 335816, Note_off_c, 0, 56, 50
1, 335838, Note_off_c, 0, 49, 51
1, 335840, Note_on_c, 0, 77, 86
1, 335840, Note_off_c, 0, 44, 55
1, 335841, Note_on_c, 0, 65, 80
1, 335853, Note_on_c, 0, 68, 68
1, 335853, Note_on_c, 0, 73, 66
1, 335864, Note_off_c, 0, 65, 72
1, 335879, Note_on_c, 0, 75, 30
1, 335879, Note_off_c, 0, 68, 67
1, 335882, Note_off_c, 0, 73, 66
1, 335902, Note_off_c, 0, 77, 62
1, 335913, Note_off_c, 0, 75, 32
1, 335934, Note_off_c, 0, 53, 0
1, 335950, Note_on_c, 0, 53, 39
1, 335954, Note_on_c, 0, 56, 68
1, 335962, Note_on_c, 0, 44, 59
1, 335976, Note_on_c, 0, 49, 60
1, 336025, Note_off_c, 0, 56, 60
1, 336044, Note_off_c, 0, 44, 57
1, 336057, Note_off_c, 0, 49, 55
1, 336063, Note_off_c, 0, 53, 54
1, 336076, Note_on_c, 0, 80, 93
1, 336083, Note_on_c, 0, 68, 89
1, 336087, Note_on_c, 0, 73, 76
1, 336090, Note_on_c, 0, 77, 69
1, 336114, Note_on_c, 0, 53, 36
1, 336126, Note_on_c, 0, 44, 49
1, 336126, Note_on_c, 0, 49, 37
1, 336129, Note_on_c, 0, 56, 61
1, 336161, Note_off_c, 0, 56, 62
1, 336177, Note_off_c, 0, 44, 59
1, 336190, Note_off_c, 0, 68, 60
1, 336198, Note_off_c, 0, 49, 59
1, 336199, Note_off_c, 0, 53, 62
1, 336205, Note_off_c, 0, 80, 59
1, 336235, Note_off_c, 0, 73, 59
1, 336240, Poly_aftertouch_c, 0, 53, 0
1, 336251, Note_on_c, 0, 53, 47
1, 336257, Note_on_c, 0, 56, 67
1, 336268, Note_on_c, 0, 44, 55
1, 336269, Note_on_c, 0, 49, 40
1, 336285, Note_off_c, 0, 77, 0
1, 336290, Note_off_c, 0, 56, 62
1, 336293, Note_on_c, 0, 82, 91
1, 336293, Note_on_c, 0, 70, 95
1, 336296, Note_on_c, 0, 77, 40
1, 336297, Note_on_c, 0, 73, 68
1, 336311, Note_on_c, 0, 79, 23
1, 336311, Note_off_c, 0, 44, 59
1, 336315, Note_off_c, 0, 53, 63
1, 336316, Note_off_c, 0, 49, 57
1, 336382, Note_on_c, 0, 56, 67
1, 336382, Note_off_c, 0, 70, 57
1, 336384, Note_on_c, 0, 53, 57
1, 336385, Note_off_c, 0, 82, 61
1, 336396, Note_on_c, 0, 44, 57
1, 336401, Note_on_c, 0, 49, 56
1, 336409, Note_off_c, 0, 73, 55
1, 336413, Note_off_c, 0, 56, 62
1, 336427, Note_off_c, 0, 53, 63
1, 336433, Note_off_c, 0, 49, 63
1, 336436, Note_off_c, 0, 79, 36
1, 336448, Note_off_c, 0, 44, 58
1, 336472, Note_off_c, 0, 77, 0
1, 336487, Note_on_c, 0, 80, 88
1, 336488, Note_on_c, 0, 68, 96
1, 336492, Note_on_c, 0, 56, 71
1, 336498, Note_on_c, 0, 73, 71
1, 336499, Note_on_c, 0, 53, 58
1, 336501, Note_on_c, 0, 49, 68
1, 336505, Note_on_c, 0, 44, 54
1, 336510, Poly_aftertouch_c, 0, 77, 127
1, 336515, Note_off_c, 0, 56, 69
1, 336521, Note_off_c, 0, 73, 68
1, 336526, Poly_aftertouch_c, 0, 77, 0
1, 336527, Note_off_c, 0, 53, 67
1, 336533, Note_off_c, 0, 80, 65
1, 336554, Note_off_c, 0, 49, 55
1, 336569, Note_off_c, 0, 68, 64
1, 336582, Note_off_c, 0, 44, 62
1, 336660, Note_on_c, 0, 65, 93
1, 336660, Note_on_c, 0, 77, 80
1, 336675, Note_on_c, 0, 68, 72
1, 336678, Note_on_c, 0, 73, 62
1, 336697, Note_off_c, 0, 73, 67
1, 336704, Note_off_c, 0, 77, 58
1, 336722, Note_off_c, 0, 65, 63
1, 336723, Note_off_c, 0, 68, 60
1, 336836, Control_c, 0, 64, 109
1, 336851, Control_c, 0, 64, 81
1, 336866, Note_on_c, 0, 37, 81
1, 336866, Control_c, 0, 64, 0
1, 336870, Note_on_c, 0, 25, 75
1, 336910, Note_on_c, 0, 73, 86
1, 336913, Note_on_c, 0, 61, 89
1, 336913, Note_on_c, 0, 68, 76
1, 336925, Control_c, 0, 64, 54
1, 336935, Note_off_c, 0, 25, 63
1, 336939, Note_on_c, 0, 65, 27
1, 336940, Control_c, 0, 64, 71
1, 336955, Control_c, 0, 64, 84
1, 336961, Note_off_c, 0, 37, 62
1, 336970, Control_c, 0, 64, 102
1, 336973, Note_off_c, 0, 65, 47
1, 336985, Control_c, 0, 64, 111
1, 336993, Note_off_c, 0, 61, 62
1, 336999, Control_c, 0, 64, 115
1, 337014, Control_c, 0, 64, 116
1, 337029, Control_c, 0, 64, 117
1, 337033, Note_off_c, 0, 68, 62
1, 337041, Note_off_c, 0, 73, 60
1, 337147, Control_c, 0, 64, 118
1, 337150, Note_on_c, 0, 77, 81
1, 337152, Note_on_c, 0, 65, 79
1, 337162, Control_c, 0, 64, 121
1, 337166, Note_on_c, 0, 68, 57
1, 337176, Note_off_c, 0, 65, 71
1, 337177, Control_c, 0, 64, 127
1, 337190, Note_off_c, 0, 68, 58
1, 337209, Note_off_c, 0, 77, 59
1, 337340, Note_on_c, 0, 80, 88
1, 337342, Note_on_c, 0, 68, 89
1, 337346, Note_on_c, 0, 56, 74
1, 337346, Note_on_c, 0, 77, 60
1, 337351, Note_on_c, 0, 73, 71
1, 337354, Note_on_c, 0, 44, 62
1, 337362, Note_on_c, 0, 49, 57
1, 337365, Note_on_c, 0, 53, 54
1, 337383, Note_off_c, 0, 56, 59
1, 337406, Note_off_c, 0, 53, 63
1, 337408, Note_off_c, 0, 49, 59
1, 337411, Note_off_c, 0, 44, 60
1, 337417, Note_off_c, 0, 68, 60
1, 337435, Note_off_c, 0, 73, 59
1, 337457, Note_off_c, 0, 80, 57
1, 337485, Note_on_c, 0, 56, 69
1, 337487, Note_on_c, 0, 44, 54
1, 337491, Note_on_c, 0, 53, 66
1, 337500, Note_on_c, 0, 49, 52
1, 337520, Note_off_c, 0, 77, 0
1, 337527, Note_off_c, 0, 56, 51
1, 337533, Note_on_c, 0, 82, 82
1, 337534, Note_on_c, 0, 77, 24
1, 337536, Note_on_c, 0, 70, 74
1, 337539, Note_on_c, 0, 73, 70
1, 337544, Note_off_c, 0, 53, 62
1, 337544, Note_off_c, 0, 44, 61
1, 337546, Note_off_c, 0, 49, 57
1, 337558, Note_off_c, 0, 77, 52
1, 337559, Note_off_c, 0, 73, 68
1, 337562, Note_off_c, 0, 70, 65
1, 337586, Note_off_c, 0, 82, 64
1, 337631, Note_on_c, 0, 53, 59
1, 337634, Note_on_c, 0, 56, 60
1, 337637, Note_on_c, 0, 44, 50
1, 337646, Note_on_c, 0, 49, 53
1, 337656, Note_off_c, 0, 56, 62
1, 337670, Note_off_c, 0, 53, 63
1, 337676, Note_off_c, 0, 44, 49
1, 337680, Note_off_c, 0, 49, 63
1, 337697, Note_on_c, 0, 80, 48
1, 337704, Note_on_c, 0, 85, 89
1, 337708, Note_on_c, 0, 73, 90
1, 337724, Poly_aftertouch_c, 0, 77, 127
1, 337732, Note_on_c, 0, 56, 72
1, 337735, Poly_aftertouch_c, 0, 77, 0
1, 337742, Note_off_c, 0, 73, 62
1, 337743, Note_on_c, 0, 53, 64
1, 337748, Note_on_c, 0, 44, 46
1, 337752, Note_off_c, 0, 80, 64
1, 337760, Note_off_c, 0, 85, 64
1, 337761, Note_on_c, 0, 49, 55
1, 337761, Note_off_c, 0, 56, 63
1, 337769, Note_off_c, 0, 53, 69
1, 337772, Note_off_c, 0, 44, 60
1, 337790, Note_off_c, 0, 49, 62
1, 337840, Note_on_c, 0, 56, 66
1, 337846, Note_on_c, 0, 53, 69
1, 337856, Note_on_c, 0, 44, 59
1, 337867, Note_off_c, 0, 56, 64
1, 337878, Note_on_c, 0, 49, 49
1, 337878, Note_on_c, 0, 77, 92
1, 337878, Note_on_c, 0, 89, 97
1, 337886, Note_off_c, 0, 53, 63
1, 337889, Note_on_c, 0, 80, 70
1, 337891, Note_on_c, 0, 85, 66
1, 337894, Note_off_c, 0, 44, 61
1, 337895, Note_off_c, 0, 77, 69
1, 337903, Note_off_c, 0, 49, 57
1, 337905, Note_off_c, 0, 80, 68
1, 337907, Note_off_c, 0, 85, 68
1, 337920, Note_off_c, 0, 89, 67
1, 337952, Note_on_c, 0, 56, 73
1, 337957, Note_on_c, 0, 53, 67
1, 337979, Note_off_c, 0, 56, 64
1, 337981, Note_on_c, 0, 44, 48
1, 337989, Note_off_c, 0, 53, 67
1, 337996, Note_on_c, 0, 49, 46
1, 338003, Note_off_c, 0, 44, 60
1, 338025, Note_off_c, 0, 49, 48
1, 338050, Note_on_c, 0, 92, 100
1, 338052, Note_on_c, 0, 80, 103
1, 338052, Note_on_c, 0, 85, 77
1, 338055, Note_on_c, 0, 56, 81
1, 338060, Note_on_c, 0, 89, 76
1, 338061, Note_on_c, 0, 53, 62
1, 338069, Note_on_c, 0, 44, 70
1, 338070, Note_on_c, 0, 49, 54
1, 338099, Note_off_c, 0, 53, 60
1, 338113, Note_off_c, 0, 56, 40
1, 338143, Note_off_c, 0, 80, 61
1, 338149, Note_off_c, 0, 49, 53
1, 338161, Note_off_c, 0, 85, 61
1, 338166, Note_off_c, 0, 92, 56
1, 338174, Note_off_c, 0, 44, 62
1, 338186, Note_off_c, 0, 89, 58
1, 338254, Note_on_c, 0, 94, 91
1, 338255, Note_on_c, 0, 82, 97
1, 338260, Note_on_c, 0, 85, 86
1, 338280, Note_off_c, 0, 85, 68
1, 338291, Note_on_c, 0, 89, 12
1, 338323, Note_off_c, 0, 94, 64
1, 338353, Note_off_c, 0, 89, 26
1, 338359, Note_off_c, 0, 82, 60
1, 338380, Note_on_c, 0, 92, 57
1, 338414, Note_off_c, 0, 92, 66
1, 338416, Note_on_c, 0, 32, 98
1, 338439, Control_c, 0, 64, 115
1, 338453, Control_c, 0, 64, 79
1, 338467, Note_on_c, 0, 96, 101
1, 338468, Control_c, 0, 64, 0
1, 338469, Note_on_c, 0, 84, 100
1, 338469, Note_on_c, 0, 92, 95
1, 338473, Note_on_c, 0, 87, 92
1, 338557, Control_c, 0, 64, 63
1, 338571, Control_c, 0, 64, 73
1, 338586, Control_c, 0, 64, 83
1, 338601, Control_c, 0, 64, 99
1, 338616, Control_c, 0, 64, 117
1, 338631, Control_c, 0, 64, 127
1, 338700, Note_off_c, 0, 32, 55
1, 338728, Note_on_c, 0, 44, 65
1, 338751, Note_off_c, 0, 87, 57
1, 338760, Note_off_c, 0, 84, 60
1, 338764, Note_off_c, 0, 44, 63
1, 338788, Note_off_c, 0, 92, 60
1, 338788, Note_off_c, 0, 96, 57
1, 338835, Note_on_c, 0, 39, 78
1, 338937, Note_off_c, 0, 39, 62
1, 338943, Note_on_c, 0, 51, 82
1, 338992, Note_off_c, 0, 51, 60
1, 339039, Note_on_c, 0, 44, 88
1, 339117, Note_on_c, 0, 56, 82
1, 339126, Note_off_c, 0, 44, 61
1, 339154, Note_off_c, 0, 56, 61
1, 339197, Poly_aftertouch_c, 0, 96, 0
1, 339208, Note_on_c, 0, 96, 43
1, 339209, Note_on_c, 0, 92, 81
1, 339211, Note_on_c, 0, 99, 93
1, 339214, Note_on_c, 0, 87, 90
1, 339228, Note_on_c, 0, 51, 62
1, 339272, Note_off_c, 0, 87, 59
1, 339285, Note_off_c, 0, 96, 63
1, 339290, Note_off_c, 0, 99, 66
1, 339307, Note_on_c, 0, 63, 65
1, 339309, Note_off_c, 0, 92, 61
1, 339338, Note_off_c, 0, 63, 65
1, 339367, Note_off_c, 0, 51, 56
1, 339456, Note_on_c, 0, 44, 72
1, 339564, Note_on_c, 0, 56, 71
1, 339587, Note_off_c, 0, 56, 68
1, 339603, Note_off_c, 0, 44, 62
1, 339685, Note_on_c, 0, 39, 77
1, 339809, Note_on_c, 0, 51, 64
1, 339837, Note_off_c, 0, 51, 64
1, 339855, Note_off_c, 0, 39, 61
1, 339857, Note_on_c, 0, 72, 86
1, 339858, Note_on_c, 0, 60, 87
1, 339865, Note_on_c, 0, 68, 70
1, 339870, Note_on_c, 0, 63, 61
1, 339876, Note_off_c, 0, 72, 73
1, 339877, Note_off_c, 0, 60, 71
1, 339882, Note_off_c, 0, 68, 66
1, 339891, Note_off_c, 0, 63, 62
1, 339927, Note_on_c, 0, 60, 103
1, 339928, Note_on_c, 0, 72, 100
1, 339931, Note_on_c, 0, 68, 98
1, 339932, Note_on_c, 0, 63, 97
1, 339936, Control_c, 0, 64, 105
1, 339940, Note_on_c, 0, 32, 83
1, 339951, Control_c, 0, 64, 75
1, 339965, Control_c, 0, 64, 0
1, 340055, Control_c, 0, 64, 44
1, 340070, Control_c, 0, 64, 68
1, 340085, Control_c, 0, 64, 75
1, 340099, Control_c, 0, 64, 84
1, 340105, Note_on_c, 0, 44, 70
1, 340112, Note_off_c, 0, 32, 58
1, 340114, Control_c, 0, 64, 92
1, 340129, Control_c, 0, 64, 99
1, 340143, Control_c, 0, 64, 105
1, 340149, Note_off_c, 0, 44, 61
1, 340158, Control_c, 0, 64, 111
1, 340173, Control_c, 0, 64, 116
1, 340177, Note_off_c, 0, 72, 59
1, 340183, Note_off_c, 0, 68, 61
1, 340188, Control_c, 0, 64, 119
1, 340193, Note_off_c, 0, 63, 62
1, 340203, Control_c, 0, 64, 120
1, 340215, Note_on_c, 0, 39, 81
1, 340217, Control_c, 0, 64, 121
1, 340232, Control_c, 0, 64, 122
1, 340233, Note_off_c, 0, 60, 51
1, 340247, Control_c, 0, 64, 122
1, 340261, Control_c, 0, 64, 123
1, 340276, Control_c, 0, 64, 124
1, 340291, Control_c, 0, 64, 125
1, 340301, Note_off_c, 0, 39, 61
1, 340306, Control_c, 0, 64, 127
1, 340311, Note_on_c, 0, 51, 79
1, 340358, Note_off_c, 0, 51, 60
1, 340409, Note_on_c, 0, 44, 86
1, 340489, Note_on_c, 0, 56, 95
1, 340491, Note_off_c, 0, 44, 59
1, 340531, Note_off_c, 0, 56, 64
1, 340603, Note_on_c, 0, 68, 87
1, 340609, Note_on_c, 0, 63, 75
1, 340609, Note_on_c, 0, 56, 84
1, 340612, Note_on_c, 0, 60, 68
1, 340645, Note_off_c, 0, 56, 58
1, 340658, Note_off_c, 0, 60, 53
1, 340732, Note_off_c, 0, 63, 54
1, 340761, Note_off_c, 0, 68, 55
1, 340881, Note_on_c, 0, 56, 94
1, 340887, Note_on_c, 0, 44, 87
1, 340913, Note_off_c, 0, 56, 63
1, 340918, Note_off_c, 0, 44, 60
1, 341072, Note_on_c, 0, 51, 96
1, 341076, Note_on_c, 0, 39, 92
1, 341111, Note_off_c, 0, 51, 63
1, 341138, Note_off_c, 0, 39, 61
1, 341268, Note_on_c, 0, 44, 95
1, 341273, Note_on_c, 0, 32, 92
1, 341313, Note_off_c, 0, 44, 64
1, 341349, Note_off_c, 0, 32, 60
1, 341536, Control_c, 0, 64, 98
1, 341548, Note_on_c, 0, 27, 99
1, 341548, Note_on_c, 0, 39, 100
1, 341551, Control_c, 0, 64, 69
1, 341566, Control_c, 0, 64, 0
1, 341775, Note_off_c, 0, 27, 61
1, 341832, Note_off_c, 0, 39, 59
1, 341833, Control_c, 0, 64, 74
1, 341848, Control_c, 0, 64, 91
1, 341862, Control_c, 0, 64, 105
1, 341877, Note_on_c, 0, 78, 87
1, 341877, Control_c, 0, 64, 107
1, 341878, Note_on_c, 0, 75, 78
1, 341885, Note_on_c, 0, 66, 82
1, 341886, Note_on_c, 0, 70, 65
1, 341892, Control_c, 0, 64, 109
1, 341906, Control_c, 0, 64, 112
1, 341921, Control_c, 0, 64, 119
1, 341936, Control_c, 0, 64, 127
1, 341944, Note_off_c, 0, 70, 52
1, 341962, Note_off_c, 0, 75, 62
1, 341979, Note_off_c, 0, 78, 61
1, 342060, Note_off_c, 0, 66, 57
1, 342139, Note_on_c, 0, 58, 59
1, 342144, Note_on_c, 0, 46, 57
1, 342148, Note_on_c, 0, 51, 44
1, 342153, Note_on_c, 0, 54, 50
1, 342198, Note_on_c, 0, 75, 80
1, 342204, Note_on_c, 0, 63, 77
1, 342206, Note_on_c, 0, 66, 70
1, 342207, Note_on_c, 0, 70, 69
1, 342221, Note_off_c, 0, 46, 57
1, 342221, Note_off_c, 0, 58, 59
1, 342236, Note_off_c, 0, 54, 54
1, 342270, Note_off_c, 0, 63, 62
1, 342298, Note_off_c, 0, 66, 64
1, 342301, Note_off_c, 0, 51, 0
1, 342311, Note_off_c, 0, 70, 60
1, 342317, Note_on_c, 0, 51, 29
1, 342323, Note_off_c, 0, 75, 63
1, 342331, Note_on_c, 0, 58, 58
1, 342333, Note_on_c, 0, 54, 50
1, 342341, Note_on_c, 0, 46, 48
1, 342375, Note_off_c, 0, 58, 59
1, 342382, Note_off_c, 0, 54, 57
1, 342389, Note_off_c, 0, 46, 47
1, 342393, Note_off_c, 0, 51, 59
1, 342418, Note_on_c, 0, 66, 89
1, 342420, Note_on_c, 0, 78, 81
1, 342430, Note_on_c, 0, 70, 68
1, 342440, Note_on_c, 0, 75, 63
1, 342469, Note_off_c, 0, 66, 62
1, 342477, Note_off_c, 0, 70, 52
1, 342498, Note_on_c, 0, 46, 44
1, 342500, Note_off_c, 0, 75, 58
1, 342504, Note_on_c, 0, 58, 54
1, 342507, Note_on_c, 0, 54, 51
1, 342514, Note_on_c, 0, 51, 54
1, 342522, Note_off_c, 0, 78, 61
1, 342543, Note_off_c, 0, 58, 58
1, 342552, Note_off_c, 0, 54, 57
1, 342556, Note_off_c, 0, 46, 50
1, 342562, Note_off_c, 0, 51, 58
1, 342620, Note_on_c, 0, 70, 86
1, 342620, Note_on_c, 0, 82, 84
1, 342629, Note_on_c, 0, 78, 75
1, 342630, Note_on_c, 0, 75, 68
1, 342645, Note_on_c, 0, 58, 65
1, 342654, Note_on_c, 0, 54, 54
1, 342657, Note_on_c, 0, 46, 60
1, 342662, Note_on_c, 0, 51, 57
1, 342682, Note_off_c, 0, 58, 62
1, 342691, Note_off_c, 0, 54, 60
1, 342696, Note_off_c, 0, 51, 62
1, 342702, Note_off_c, 0, 46, 60
1, 342746, Note_off_c, 0, 70, 61
1, 342751, Note_off_c, 0, 82, 61
1, 342757, Note_off_c, 0, 78, 61
1, 342762, Note_off_c, 0, 75, 62
1, 342784, Note_on_c, 0, 54, 62
1, 342784, Note_on_c, 0, 58, 67
1, 342786, Note_on_c, 0, 51, 61
1, 342803, Note_on_c, 0, 46, 58
1, 342814, Note_off_c, 0, 58, 64
1, 342821, Note_off_c, 0, 51, 56
1, 342826, Note_off_c, 0, 54, 59
1, 342830, Note_on_c, 0, 83, 93
1, 342831, Note_on_c, 0, 71, 96
1, 342837, Note_off_c, 0, 46, 63
1, 342838, Note_on_c, 0, 75, 78
1, 342839, Note_on_c, 0, 78, 84
1, 342916, Note_off_c, 0, 83, 58
1, 342919, Note_off_c, 0, 71, 59
1, 342926, Note_on_c, 0, 46, 68
1, 342926, Note_on_c, 0, 58, 71
1, 342927, Note_on_c, 0, 54, 69
1, 342929, Note_on_c, 0, 51, 62
1, 342943, Note_off_c, 0, 75, 64
1, 342943, Note_off_c, 0, 78, 63
1, 342956, Note_off_c, 0, 58, 63
1, 342963, Note_off_c, 0, 51, 59
1, 342964, Note_off_c, 0, 54, 62
1, 342988, Note_off_c, 0, 46, 57
1, 343017, Note_on_c, 0, 70, 101
1, 343017, Note_on_c, 0, 82, 92
1, 343028, Note_on_c, 0, 78, 74
1, 343030, Note_on_c, 0, 75, 71
1, 343036, Note_on_c, 0, 46, 60
1, 343036, Note_on_c, 0, 58, 73
1, 343037, Note_on_c, 0, 54, 70
1, 343043, Note_on_c, 0, 51, 70
1, 343053, Note_off_c, 0, 78, 66
1, 343056, Note_off_c, 0, 75, 70
1, 343065, Note_off_c, 0, 58, 66
1, 343075, Note_off_c, 0, 82, 63
1, 343098, Note_off_c, 0, 70, 59
1, 343098, Note_off_c, 0, 54, 57
1, 343113, Note_off_c, 0, 51, 58
1, 343140, Note_off_c, 0, 46, 61
1, 343218, Note_on_c, 0, 66, 97
1, 343221, Note_on_c, 0, 78, 87
1, 343223, Note_on_c, 0, 70, 77
1, 343224, Note_on_c, 0, 75, 79
1, 343287, Note_off_c, 0, 70, 60
1, 343296, Note_off_c, 0, 75, 62
1, 343300, Note_off_c, 0, 78, 62
1, 343385, Note_off_c, 0, 66, 57
1, 343419, Control_c, 0, 64, 105
1, 343422, Note_on_c, 0, 39, 88
1, 343424, Note_on_c, 0, 27, 86
1, 343433, Control_c, 0, 64, 75
1, 343448, Control_c, 0, 64, 0
1, 343477, Note_on_c, 0, 75, 90
1, 343480, Note_on_c, 0, 63, 88
1, 343485, Note_on_c, 0, 66, 83
1, 343486, Note_on_c, 0, 70, 77
1, 343504, Note_off_c, 0, 27, 61
1, 343515, Control_c, 0, 64, 59
1, 343530, Control_c, 0, 64, 72
1, 343531, Note_off_c, 0, 39, 60
1, 343545, Control_c, 0, 64, 82
1, 343559, Control_c, 0, 64, 93
1, 343574, Control_c, 0, 64, 98
1, 343581, Note_off_c, 0, 63, 61
1, 343589, Control_c, 0, 64, 101
1, 343602, Note_off_c, 0, 66, 64
1, 343604, Control_c, 0, 64, 104
1, 343619, Control_c, 0, 64, 108
1, 343620, Note_off_c, 0, 75, 63
1, 343621, Note_off_c, 0, 70, 61
1, 343635, Control_c, 0, 64, 117
1, 343650, Control_c, 0, 64, 127
1, 343710, Note_on_c, 0, 78, 86
1, 343711, Note_on_c, 0, 66, 91
1, 343719, Note_on_c, 0, 70, 76
1, 343726, Note_on_c, 0, 75, 68
1, 343767, Note_off_c, 0, 66, 62
1, 343779, Note_off_c, 0, 70, 35
1, 343804, Note_off_c, 0, 75, 64
1, 343815, Note_off_c, 0, 78, 61
1, 343871, Control_c, 0, 64, 114
1, 343885, Note_on_c, 0, 70, 95
1, 343886, Note_on_c, 0, 82, 90
1, 343886, Control_c, 0, 64, 84
1, 343889, Note_on_c, 0, 58, 69
1, 343896, Note_on_c, 0, 46, 61
1, 343899, Note_on_c, 0, 54, 59
1, 343899, Note_on_c, 0, 75, 71
1, 343899, Note_on_c, 0, 78, 70
1, 343901, Control_c, 0, 64, 43
1, 343903, Note_on_c, 0, 51, 54
1, 343915, Control_c, 0, 64, 0
1, 343952, Note_off_c, 0, 58, 63
1, 343954, Note_off_c, 0, 54, 55
1, 343957, Note_off_c, 0, 51, 57
1, 343959, Note_off_c, 0, 46, 59
1, 343960, Control_c, 0, 64, 71
1, 343975, Control_c, 0, 64, 85
1, 343990, Control_c, 0, 64, 102
1, 343995, Note_off_c, 0, 70, 60
1, 344001, Note_off_c, 0, 82, 61
1, 344005, Control_c, 0, 64, 111
1, 344009, Note_off_c, 0, 75, 62
1, 344011, Note_off_c, 0, 78, 61
1, 344020, Control_c, 0, 64, 113
1, 344030, Note_on_c, 0, 58, 68
1, 344032, Note_on_c, 0, 46, 64
1, 344034, Control_c, 0, 64, 116
1, 344037, Note_on_c, 0, 54, 61
1, 344046, Note_on_c, 0, 51, 57
1, 344049, Control_c, 0, 64, 127
1, 344072, Note_on_c, 0, 83, 90
1, 344072, Note_off_c, 0, 58, 54
1, 344073, Note_on_c, 0, 71, 93
1, 344074, Note_on_c, 0, 78, 80
1, 344076, Note_on_c, 0, 75, 76
1, 344077, Note_off_c, 0, 54, 59
1, 344083, Note_off_c, 0, 51, 57
1, 344101, Note_off_c, 0, 46, 60
1, 344109, Note_off_c, 0, 71, 57
1, 344139, Note_off_c, 0, 75, 63
1, 344148, Note_off_c, 0, 78, 63
1, 344148, Note_off_c, 0, 83, 61
1, 344167, Note_on_c, 0, 51, 68
1, 344170, Note_on_c, 0, 46, 60
1, 344172, Note_on_c, 0, 58, 69
1, 344172, Note_on_c, 0, 54, 64
1, 344197, Control_c, 0, 64, 121
1, 344198, Note_off_c, 0, 58, 66
1, 344219, Note_off_c, 0, 54, 60
1, 344219, Control_c, 0, 64, 92
1, 344229, Note_off_c, 0, 51, 58
1, 344230, Note_off_c, 0, 46, 57
1, 344234, Control_c, 0, 64, 72
1, 344238, Note_on_c, 0, 87, 96
1, 344240, Note_on_c, 0, 75, 99
1, 344248, Note_on_c, 0, 82, 76
1, 344249, Control_c, 0, 64, 37
1, 344250, Note_on_c, 0, 78, 84
1, 344264, Control_c, 0, 64, 55
1, 344279, Control_c, 0, 64, 68
1, 344288, Note_on_c, 0, 46, 65
1, 344291, Note_on_c, 0, 58, 73
1, 344294, Control_c, 0, 64, 80
1, 344294, Note_on_c, 0, 51, 58
1, 344306, Note_on_c, 0, 54, 67
1, 344308, Control_c, 0, 64, 95
1, 344310, Note_off_c, 0, 75, 61
1, 344318, Note_off_c, 0, 78, 59
1, 344323, Control_c, 0, 64, 108
1, 344324, Note_off_c, 0, 58, 60
1, 344332, Note_off_c, 0, 54, 65
1, 344333, Note_off_c, 0, 82, 62
1, 344336, Note_off_c, 0, 87, 63
1, 344338, Control_c, 0, 64, 114
1, 344343, Note_off_c, 0, 51, 62
1, 344352, Note_off_c, 0, 46, 57
1, 344353, Control_c, 0, 64, 115
1, 344368, Control_c, 0, 64, 116
1, 344382, Control_c, 0, 64, 117
1, 344397, Control_c, 0, 64, 118
1, 344398, Note_on_c, 0, 46, 63
1, 344399, Note_on_c, 0, 54, 65
1, 344401, Note_on_c, 0, 58, 72
1, 344404, Note_on_c, 0, 51, 62
1, 344412, Note_on_c, 0, 90, 96
1, 344412, Control_c, 0, 64, 121
1, 344414, Note_on_c, 0, 78, 100
1, 344422, Note_on_c, 0, 82, 85
1, 344426, Note_on_c, 0, 87, 72
1, 344426, Note_off_c, 0, 58, 66
1, 344427, Control_c, 0, 64, 124
1, 344440, Note_off_c, 0, 54, 62
1, 344442, Note_off_c, 0, 82, 72
1, 344443, Note_off_c, 0, 51, 62
1, 344443, Note_off_c, 0, 78, 54
1, 344443, Control_c, 0, 64, 127
1, 344449, Note_off_c, 0, 87, 68
1, 344450, Note_off_c, 0, 46, 57
1, 344466, Note_off_c, 0, 90, 62
1, 344512, Note_on_c, 0, 58, 73
1, 344516, Note_on_c, 0, 46, 65
1, 344519, Note_on_c, 0, 54, 67
1, 344525, Note_on_c, 0, 51, 63
1, 344533, Note_off_c, 0, 58, 68
1, 344545, Note_off_c, 0, 54, 64
1, 344552, Note_off_c, 0, 46, 60
1, 344553, Note_off_c, 0, 51, 64
1, 344598, Note_on_c, 0, 82, 110
1, 344598, Note_on_c, 0, 94, 104
1, 344606, Note_on_c, 0, 90, 88
1, 344606, Note_on_c, 0, 87, 82
1, 344616, Note_on_c, 0, 54, 73
1, 344617, Note_on_c, 0, 46, 72
1, 344617, Note_on_c, 0, 58, 74
1, 344622, Note_on_c, 0, 51, 71
1, 344644, Note_off_c, 0, 58, 66
1, 344657, Note_off_c, 0, 51, 53
1, 344662, Note_off_c, 0, 54, 56
1, 344666, Note_off_c, 0, 82, 46
1, 344690, Note_off_c, 0, 94, 64
1, 344692, Note_off_c, 0, 87, 27
1, 344702, Note_off_c, 0, 46, 61
1, 344720, Note_off_c, 0, 90, 61
1, 344778, Note_on_c, 0, 90, 89
1, 344780, Note_on_c, 0, 84, 102
1, 344782, Note_on_c, 0, 96, 96
1, 344786, Note_on_c, 0, 87, 87
1, 344826, Note_off_c, 0, 90, 63
1, 344856, Note_off_c, 0, 87, 61
1, 344857, Note_off_c, 0, 84, 60
1, 344860, Note_off_c, 0, 96, 60
1, 344942, Note_on_c, 0, 34, 94
1, 344999, Control_c, 0, 64, 98
1, 345011, Note_on_c, 0, 89, 100
1, 345012, Note_on_c, 0, 98, 105
1, 345013, Control_c, 0, 64, 62
1, 345015, Note_on_c, 0, 86, 103
1, 345021, Note_on_c, 0, 94, 89
1, 345028, Control_c, 0, 64, 0
1, 345161, Control_c, 0, 64, 62
1, 345176, Note_off_c, 0, 34, 62
1, 345176, Control_c, 0, 64, 69
1, 345188, Note_on_c, 0, 46, 74
1, 345191, Control_c, 0, 64, 76
1, 345206, Control_c, 0, 64, 88
1, 345221, Control_c, 0, 64, 98
1, 345221, Note_off_c, 0, 46, 63
1, 345223, Note_off_c, 0, 89, 64
1, 345236, Control_c, 0, 64, 106
1, 345242, Note_off_c, 0, 94, 62
1, 345251, Control_c, 0, 64, 116
1, 345266, Control_c, 0, 64, 127
1, 345286, Note_off_c, 0, 98, 57
1, 345295, Note_on_c, 0, 41, 82
1, 345325, Note_off_c, 0, 86, 39
1, 345389, Note_on_c, 0, 97, 33
1, 345394, Note_on_c, 0, 53, 80
1, 345395, Note_off_c, 0, 41, 63
1, 345425, Note_off_c, 0, 97, 42
1, 345436, Note_off_c, 0, 53, 66
1, 345482, Note_on_c, 0, 46, 99
1, 345575, Note_on_c, 0, 58, 84
1, 345590, Note_off_c, 0, 46, 61
1, 345626, Note_off_c, 0, 58, 63
1, 345708, Note_on_c, 0, 101, 96
1, 345710, Note_on_c, 0, 89, 94
1, 345712, Note_on_c, 0, 98, 82
1, 345717, Note_on_c, 0, 94, 81
1, 345720, Note_on_c, 0, 53, 70
1, 345756, Note_off_c, 0, 89, 64
1, 345769, Note_off_c, 0, 101, 65
1, 345789, Note_off_c, 0, 53, 63
1, 345796, Note_off_c, 0, 98, 65
1, 345822, Note_off_c, 0, 94, 64
1, 345827, Note_on_c, 0, 65, 63
1, 345856, Note_off_c, 0, 65, 68
1, 345972, Note_on_c, 0, 46, 75
1, 346081, Note_on_c, 0, 58, 76
1, 346091, Note_off_c, 0, 46, 38
1, 346111, Note_off_c, 0, 58, 63
1, 346188, Note_on_c, 0, 41, 81
1, 346279, Poly_aftertouch_c, 0, 46, 127
1, 346282, Note_on_c, 0, 53, 77
1, 346285, Note_on_c, 0, 62, 93
1, 346287, Note_on_c, 0, 74, 90
1, 346289, Note_on_c, 0, 65, 88
1, 346289, Note_off_c, 0, 41, 60
1, 346296, Note_on_c, 0, 70, 77
1, 346306, Note_off_c, 0, 53, 67
1, 346312, Note_off_c, 0, 65, 68
1, 346312, Note_off_c, 0, 62, 63
1, 346318, Note_off_c, 0, 70, 69
1, 346323, Poly_aftertouch_c, 0, 46, 0
1, 346323, Note_off_c, 0, 74, 62
1, 346341, Control_c, 0, 64, 113
1, 346356, Control_c, 0, 64, 74
1, 346363, Note_on_c, 0, 62, 102
1, 346364, Note_on_c, 0, 74, 91
1, 346365, Note_on_c, 0, 70, 90
1, 346366, Note_on_c, 0, 65, 93
1, 346371, Control_c, 0, 64, 0
1, 346384, Note_on_c, 0, 34, 82
1, 346497, Control_c, 0, 64, 59
1, 346511, Control_c, 0, 64, 66
1, 346526, Control_c, 0, 64, 69
1, 346541, Control_c, 0, 64, 74
1, 346550, Note_off_c, 0, 34, 57
1, 346556, Control_c, 0, 64, 82
1, 346563, Note_on_c, 0, 46, 63
1, 346571, Control_c, 0, 64, 88
1, 346585, Control_c, 0, 64, 94
1, 346600, Note_off_c, 0, 46, 62
1, 346600, Control_c, 0, 64, 99
1, 346615, Control_c, 0, 64, 104
1, 346630, Control_c, 0, 64, 107
1, 346644, Control_c, 0, 64, 109
1, 346659, Control_c, 0, 64, 111
1, 346674, Control_c, 0, 64, 111
1, 346682, Note_on_c, 0, 41, 65
1, 346689, Control_c, 0, 64, 112
1, 346703, Note_off_c, 0, 74, 56
1, 346704, Control_c, 0, 64, 113
1, 346706, Note_off_c, 0, 70, 53
1, 346712, Note_off_c, 0, 65, 57
1, 346718, Control_c, 0, 64, 114
1, 346733, Control_c, 0, 64, 115
1, 346741, Note_off_c, 0, 62, 57
1, 346748, Control_c, 0, 64, 115
1, 346757, Note_off_c, 0, 41, 64
1, 346765, Note_on_c, 0, 53, 76
1, 346792, Control_c, 0, 64, 116
1, 346804, Note_off_c, 0, 53, 65
1, 346807, Control_c, 0, 64, 116
1, 346822, Control_c, 0, 64, 117
1, 346838, Control_c, 0, 64, 118
1, 346851, Note_on_c, 0, 46, 92
1, 346853, Control_c, 0, 64, 120
1, 346868, Control_c, 0, 64, 125
1, 346882, Control_c, 0, 64, 127
1, 346918, Note_on_c, 0, 58, 97
1, 346952, Note_off_c, 0, 46, 61
1, 346959, Note_off_c, 0, 58, 64
1, 347024, Note_on_c, 0, 70, 92
1, 347027, Note_on_c, 0, 58, 94
1, 347027, Note_on_c, 0, 62, 77
1, 347033, Note_on_c, 0, 65, 72
1, 347311, Note_on_c, 0, 53, 90
1, 347316, Note_on_c, 0, 41, 86
1, 347340, Note_off_c, 0, 53, 62
1, 347364, Note_off_c, 0, 41, 63
1, 347503, Note_on_c, 0, 46, 100
1, 347504, Note_on_c, 0, 34, 92
1, 347542, Note_off_c, 0, 46, 62
1, 347554, Note_off_c, 0, 62, 47
1, 347561, Note_off_c, 0, 58, 51
1, 347561, Note_off_c, 0, 34, 62
1, 347626, Note_off_c, 0, 65, 49
1, 347710, Note_on_c, 0, 41, 99
1, 347713, Note_on_c, 0, 29, 94
1, 347722, Note_off_c, 0, 70, 49
1, 347828, Note_off_c, 0, 29, 60
1, 347862, Note_off_c, 0, 41, 46
1, 348009, Control_c, 0, 64, 100
1, 348024, Control_c, 0, 64, 76
1, 348038, Control_c, 0, 64, 0
1, 348046, Note_on_c, 0, 42, 102
1, 348049, Note_on_c, 0, 30, 96
1, 348386, Note_off_c, 0, 30, 61
1, 348391, Note_on_c, 0, 82, 92
1, 348393, Note_on_c, 0, 70, 90
1, 348395, Note_on_c, 0, 78, 81
1, 348407, Note_on_c, 0, 73, 62
1, 348408, Control_c, 0, 64, 63
1, 348425, Control_c, 0, 64, 87
1, 348429, Note_off_c, 0, 42, 60
1, 348440, Control_c, 0, 64, 98
1, 348454, Control_c, 0, 64, 101
1, 348476, Note_off_c, 0, 73, 55
1, 348482, Note_off_c, 0, 78, 59
1, 348484, Control_c, 0, 64, 103
1, 348488, Note_off_c, 0, 82, 63
1, 348498, Control_c, 0, 64, 105
1, 348513, Control_c, 0, 64, 109
1, 348528, Control_c, 0, 64, 114
1, 348543, Control_c, 0, 64, 120
1, 348548, Note_off_c, 0, 70, 54
1, 348558, Control_c, 0, 64, 126
1, 348572, Control_c, 0, 64, 127
1, 348687, Note_on_c, 0, 61, 65
1, 348693, Note_on_c, 0, 58, 63
1, 348711, Note_on_c, 0, 54, 50
1, 348715, Note_on_c, 0, 49, 49
1, 348747, Note_on_c, 0, 78, 90
1, 348756, Note_on_c, 0, 66, 81
1, 348757, Note_on_c, 0, 70, 73
1, 348764, Note_on_c, 0, 73, 70
1, 348784, Note_off_c, 0, 49, 53
1, 348804, Note_off_c, 0, 61, 54
1, 348808, Note_off_c, 0, 66, 64
1, 348813, Note_off_c, 0, 58, 57
1, 348819, Note_off_c, 0, 54, 52
1, 348846, Note_off_c, 0, 70, 60
1, 348864, Note_off_c, 0, 73, 61
1, 348872, Note_off_c, 0, 78, 60
1, 348919, Note_on_c, 0, 61, 65
1, 348923, Note_on_c, 0, 49, 54
1, 348933, Note_on_c, 0, 58, 63
1, 348943, Note_on_c, 0, 54, 52
1, 348995, Note_on_c, 0, 82, 87
1, 348995, Note_off_c, 0, 61, 59
1, 348996, Note_on_c, 0, 70, 90
1, 349000, Note_off_c, 0, 54, 54
1, 349001, Note_off_c, 0, 49, 59
1, 349001, Note_off_c, 0, 58, 61
1, 349005, Note_on_c, 0, 73, 71
1, 349013, Note_on_c, 0, 78, 63
1, 349062, Note_off_c, 0, 70, 60
1, 349069, Note_off_c, 0, 73, 58
1, 349091, Note_off_c, 0, 78, 61
1, 349100, Note_on_c, 0, 61, 69
1, 349108, Note_on_c, 0, 58, 64
1, 349108, Note_off_c, 0, 82, 62
1, 349111, Note_on_c, 0, 54, 59
1, 349112, Note_on_c, 0, 49, 58
1, 349136, Note_off_c, 0, 61, 62
1, 349139, Note_off_c, 0, 58, 66
1, 349151, Note_off_c, 0, 49, 61
1, 349154, Note_off_c, 0, 54, 60
1, 349198, Note_on_c, 0, 85, 92
1, 349200, Note_on_c, 0, 73, 90
1, 349205, Note_on_c, 0, 78, 81
1, 349208, Note_on_c, 0, 82, 80
1, 349222, Note_on_c, 0, 61, 74
1, 349225, Note_on_c, 0, 58, 74
1, 349235, Note_on_c, 0, 49, 66
1, 349240, Note_on_c, 0, 54, 62
1, 349266, Note_off_c, 0, 61, 59
1, 349275, Note_off_c, 0, 54, 60
1, 349278, Note_off_c, 0, 49, 57
1, 349281, Note_off_c, 0, 58, 63
1, 349314, Note_off_c, 0, 73, 61
1, 349323, Note_off_c, 0, 85, 61
1, 349336, Note_off_c, 0, 78, 61
1, 349343, Note_off_c, 0, 82, 62
1, 349356, Note_on_c, 0, 61, 75
1, 349358, Note_on_c, 0, 58, 64
1, 349364, Note_on_c, 0, 49, 64
1, 349366, Note_on_c, 0, 54, 64
1, 349381, Note_off_c, 0, 61, 61
1, 349397, Note_off_c, 0, 58, 57
1, 349398, Note_on_c, 0, 87, 94
1, 349400, Note_on_c, 0, 82, 81
1, 349401, Note_on_c, 0, 75, 98
1, 349403, Note_off_c, 0, 49, 61
1, 349410, Note_on_c, 0, 78, 83
1, 349412, Note_off_c, 0, 54, 58
1, 349490, Note_on_c, 0, 61, 76
1, 349495, Note_on_c, 0, 58, 74
1, 349500, Note_off_c, 0, 75, 62
1, 349502, Note_off_c, 0, 87, 62
1, 349503, Note_on_c, 0, 54, 62
1, 349505, Note_on_c, 0, 49, 62
1, 349510, Note_off_c, 0, 78, 63
1, 349512, Note_off_c, 0, 82, 63
1, 349513, Note_off_c, 0, 61, 66
1, 349519, Note_off_c, 0, 58, 69
1, 349532, Note_off_c, 0, 54, 64
1, 349543, Note_off_c, 0, 49, 61
1, 349588, Note_on_c, 0, 85, 100
1, 349590, Note_on_c, 0, 73, 98
1, 349591, Note_on_c, 0, 61, 85
1, 349591, Note_on_c, 0, 58, 79
1, 349594, Note_on_c, 0, 54, 70
1, 349601, Note_on_c, 0, 78, 78
1, 349602, Note_on_c, 0, 49, 70
1, 349604, Note_on_c, 0, 82, 69
1, 349607, Note_off_c, 0, 61, 73
1, 349619, Note_off_c, 0, 58, 66
1, 349628, Note_off_c, 0, 78, 64
1, 349631, Note_off_c, 0, 82, 64
1, 349639, Note_off_c, 0, 54, 58
1, 349653, Note_off_c, 0, 85, 62
1, 349662, Note_off_c, 0, 49, 61
1, 349665, Note_off_c, 0, 73, 62
1, 349787, Note_on_c, 0, 70, 101
1, 349791, Note_on_c, 0, 82, 81
1, 349803, Note_on_c, 0, 80, 64
1, 349804, Note_on_c, 0, 73, 68
1, 349817, Note_on_c, 0, 77, 56
1, 349820, Note_off_c, 0, 80, 65
1, 349835, Note_off_c, 0, 82, 63
1, 349838, Note_off_c, 0, 77, 60
1, 349843, Note_off_c, 0, 70, 55
1, 349845, Note_off_c, 0, 73, 53
1, 349966, Control_c, 0, 64, 102
1, 349969, Note_on_c, 0, 42, 95
1, 349972, Note_on_c, 0, 30, 94
1, 349981, Control_c, 0, 64, 71
1, 349995, Control_c, 0, 64, 0
1, 350005, Note_on_c, 0, 78, 100
1, 350007, Note_on_c, 0, 66, 100
1, 350011, Note_on_c, 0, 73, 87
1, 350011, Note_off_c, 0, 30, 60
1, 350012, Note_on_c, 0, 70, 87
1, 350046, Note_off_c, 0, 42, 55
1, 350060, Note_on_c, 0, 68, 16
1, 350061, Note_off_c, 0, 68, 127
1, 350070, Control_c, 0, 64, 69
1, 350085, Control_c, 0, 64, 86
1, 350092, Note_off_c, 0, 66, 62
1, 350100, Control_c, 0, 64, 104
1, 350115, Control_c, 0, 64, 117
1, 350130, Control_c, 0, 64, 121
1, 350141, Note_off_c, 0, 70, 59
1, 350141, Note_off_c, 0, 78, 60
1, 350144, Control_c, 0, 64, 122
1, 350146, Note_off_c, 0, 73, 60
1, 350159, Control_c, 0, 64, 123
1, 350174, Control_c, 0, 64, 124
1, 350189, Control_c, 0, 64, 126
1, 350211, Control_c, 0, 64, 127
1, 350253, Note_on_c, 0, 82, 87
1, 350255, Note_on_c, 0, 70, 86
1, 350261, Note_on_c, 0, 73, 74
1, 350262, Note_on_c, 0, 78, 75
1, 350276, Note_off_c, 0, 70, 63
1, 350276, Note_off_c, 0, 73, 69
1, 350282, Note_off_c, 0, 78, 69
1, 350303, Note_off_c, 0, 82, 62
1, 350404, Control_c, 0, 64, 122
1, 350419, Control_c, 0, 64, 89
1, 350433, Note_on_c, 0, 61, 79
1, 350433, Control_c, 0, 64, 65
1, 350438, Note_on_c, 0, 58, 69
1, 350439, Note_on_c, 0, 85, 100
1, 350440, Note_on_c, 0, 73, 101
1, 350443, Note_on_c, 0, 49, 63
1, 350446, Note_on_c, 0, 54, 60
1, 350448, Control_c, 0, 64, 0
1, 350449, Note_on_c, 0, 78, 82
1, 350453, Note_on_c, 0, 82, 75
1, 350476, Note_off_c, 0, 58, 60
1, 350476, Note_off_c, 0, 61, 55
1, 350477, Control_c, 0, 64, 66
1, 350492, Note_off_c, 0, 49, 59
1, 350492, Note_off_c, 0, 54, 54
1, 350492, Control_c, 0, 64, 76
1, 350507, Control_c, 0, 64, 90
1, 350522, Control_c, 0, 64, 106
1, 350535, Note_off_c, 0, 73, 58
1, 350537, Control_c, 0, 64, 116
1, 350550, Note_off_c, 0, 85, 59
1, 350551, Control_c, 0, 64, 119
1, 350565, Note_off_c, 0, 78, 60
1, 350566, Control_c, 0, 64, 121
1, 350569, Note_on_c, 0, 58, 70
1, 350570, Note_on_c, 0, 49, 64
1, 350571, Note_on_c, 0, 61, 73
1, 350575, Note_off_c, 0, 82, 62
1, 350578, Note_on_c, 0, 54, 60
1, 350581, Control_c, 0, 64, 126
1, 350596, Control_c, 0, 64, 127
1, 350606, Note_off_c, 0, 61, 50
1, 350607, Note_off_c, 0, 58, 56
1, 350625, Note_off_c, 0, 54, 52
1, 350634, Note_off_c, 0, 49, 59
1, 350640, Note_on_c, 0, 87, 86
1, 350643, Note_on_c, 0, 75, 85
1, 350644, Note_on_c, 0, 82, 76
1, 350648, Note_on_c, 0, 78, 81
1, 350667, Note_off_c, 0, 75, 63
1, 350670, Note_off_c, 0, 78, 67
1, 350688, Note_off_c, 0, 82, 62
1, 350701, Note_off_c, 0, 87, 61
1, 350735, Note_on_c, 0, 58, 67
1, 350738, Note_on_c, 0, 54, 62
1, 350738, Note_on_c, 0, 61, 69
1, 350744, Note_on_c, 0, 49, 62
1, 350765, Note_off_c, 0, 61, 64
1, 350775, Note_off_c, 0, 49, 62
1, 350778, Note_off_c, 0, 58, 64
1, 350792, Note_off_c, 0, 54, 62
1, 350803, Control_c, 0, 64, 102
1, 350819, Control_c, 0, 64, 80
1, 350834, Control_c, 0, 64, 60
1, 350844, Note_on_c, 0, 90, 97
1, 350845, Note_on_c, 0, 78, 97
1, 350846, Note_on_c, 0, 82, 86
1, 350848, Note_on_c, 0, 85, 81
1, 350849, Control_c, 0, 64, 46
1, 350859, Note_on_c, 0, 61, 83
1, 350864, Control_c, 0, 64, 67
1, 350869, Note_on_c, 0, 58, 68
1, 350870, Note_on_c, 0, 49, 68
1, 350870, Note_on_c, 0, 54, 60
1, 350872, Note_off_c, 0, 78, 63
1, 350879, Control_c, 0, 64, 76
1, 350881, Note_off_c, 0, 82, 61
1, 350886, Note_off_c, 0, 61, 61
1, 350887, Note_off_c, 0, 85, 62
1, 350893, Control_c, 0, 64, 89
1, 350899, Note_off_c, 0, 58, 65
1, 350906, Note_off_c, 0, 90, 62
1, 350908, Control_c, 0, 64, 102
1, 350911, Note_off_c, 0, 54, 61
1, 350914, Note_off_c, 0, 49, 58
1, 350923, Control_c, 0, 64, 109
1, 350938, Control_c, 0, 64, 110
1, 350960, Control_c, 0, 64, 112
1, 350974, Control_c, 0, 64, 113
1, 350989, Control_c, 0, 64, 115
1, 351001, Note_on_c, 0, 61, 72
1, 351002, Note_on_c, 0, 58, 66
1, 351004, Note_on_c, 0, 54, 64
1, 351004, Control_c, 0, 64, 116
1, 351008, Note_on_c, 0, 49, 62
1, 351019, Control_c, 0, 64, 117
1, 351034, Control_c, 0, 64, 117
1, 351043, Note_off_c, 0, 61, 55
1, 351045, Note_off_c, 0, 58, 55
1, 351048, Control_c, 0, 64, 118
1, 351054, Note_off_c, 0, 54, 48
1, 351055, Note_off_c, 0, 49, 59
1, 351063, Control_c, 0, 64, 118
1, 351078, Control_c, 0, 64, 119
1, 351084, Note_on_c, 0, 82, 93
1, 351085, Note_on_c, 0, 94, 90
1, 351089, Note_on_c, 0, 90, 85
1, 351090, Note_on_c, 0, 85, 83
1, 351093, Control_c, 0, 64, 119
1, 351108, Control_c, 0, 64, 120
1, 351111, Note_off_c, 0, 85, 69
1, 351120, Note_off_c, 0, 82, 60
1, 351123, Control_c, 0, 64, 122
1, 351138, Control_c, 0, 64, 124
1, 351142, Note_off_c, 0, 90, 63
1, 351153, Control_c, 0, 64, 127
1, 351162, Note_off_c, 0, 94, 61
1, 351172, Note_on_c, 0, 61, 81
1, 351173, Note_on_c, 0, 58, 74
1, 351174, Note_on_c, 0, 49, 70
1, 351175, Note_on_c, 0, 54, 61
1, 351218, Note_off_c, 0, 61, 63
1, 351224, Note_off_c, 0, 58, 63
1, 351230, Note_off_c, 0, 54, 55
1, 351238, Note_off_c, 0, 49, 58
1, 351326, Note_on_c, 0, 61, 88
1, 351330, Note_on_c, 0, 54, 66
1, 351331, Note_on_c, 0, 58, 74
1, 351334, Note_on_c, 0, 97, 103
1, 351338, Note_on_c, 0, 85, 101
1, 351338, Note_on_c, 0, 49, 68
1, 351342, Note_on_c, 0, 90, 86
1, 351345, Note_on_c, 0, 94, 82
1, 351452, Note_off_c, 0, 61, 50
1, 351478, Note_off_c, 0, 85, 54
1, 351507, Note_off_c, 0, 58, 59
1, 351508, Note_off_c, 0, 97, 62
1, 351523, Note_off_c, 0, 94, 63
1, 351525, Note_off_c, 0, 90, 61
1, 351534, Note_off_c, 0, 49, 48
1, 351549, Note_off_c, 0, 54, 60
1, 351594, Note_on_c, 0, 99, 102
1, 351597, Note_on_c, 0, 87, 101
1, 351603, Note_on_c, 0, 90, 79
1, 351603, Note_on_c, 0, 94, 82
1, 351710, Note_off_c, 0, 94, 61
1, 351713, Note_off_c, 0, 99, 66
1, 351721, Note_off_c, 0, 90, 58
1, 351795, Note_off_c, 0, 87, 57
1, 351853, Note_on_c, 0, 42, 93
1, 351901, Control_c, 0, 64, 116
1, 351916, Control_c, 0, 64, 82
1, 351931, Control_c, 0, 64, 0
1, 351944, Note_on_c, 0, 97, 105
1, 351949, Note_on_c, 0, 93, 89
1, 351950, Note_on_c, 0, 90, 88
1, 351952, Note_on_c, 0, 85, 93
1, 352005, Control_c, 0, 64, 52
1, 352020, Control_c, 0, 64, 72
1, 352035, Control_c, 0, 64, 82
1, 352049, Control_c, 0, 64, 95
1, 352064, Control_c, 0, 64, 102
1, 352079, Control_c, 0, 64, 105
1, 352082, Note_off_c, 0, 85, 52
1, 352094, Control_c, 0, 64, 106
1, 352107, Note_on_c, 0, 49, 62
1, 352109, Control_c, 0, 64, 107
1, 352110, Note_off_c, 0, 42, 56
1, 352113, Note_off_c, 0, 97, 63
1, 352123, Control_c, 0, 64, 107
1, 352128, Note_off_c, 0, 90, 61
1, 352138, Note_off_c, 0, 93, 60
1, 352138, Control_c, 0, 64, 108
1, 352153, Control_c, 0, 64, 109
1, 352168, Control_c, 0, 64, 110
1, 352183, Control_c, 0, 64, 111
1, 352186, Note_on_c, 0, 99, 100
1, 352190, Note_on_c, 0, 93, 78
1, 352193, Note_on_c, 0, 90, 77
1, 352197, Control_c, 0, 64, 112
1, 352212, Control_c, 0, 64, 113
1, 352221, Note_on_c, 0, 54, 65
1, 352227, Control_c, 0, 64, 113
1, 352242, Control_c, 0, 64, 114
1, 352256, Control_c, 0, 64, 115
1, 352271, Control_c, 0, 64, 116
1, 352286, Control_c, 0, 64, 117
1, 352301, Control_c, 0, 64, 119
1, 352304, Note_on_c, 0, 61, 67
1, 352307, Note_off_c, 0, 99, 66
1, 352310, Note_off_c, 0, 54, 60
1, 352311, Note_off_c, 0, 90, 62
1, 352316, Control_c, 0, 64, 121
1, 352329, Note_off_c, 0, 93, 59
1, 352330, Control_c, 0, 64, 122
1, 352345, Control_c, 0, 64, 124
1, 352360, Control_c, 0, 64, 125
1, 352375, Control_c, 0, 64, 125
1, 352390, Control_c, 0, 64, 126
1, 352390, Note_off_c, 0, 49, 18
1, 352405, Control_c, 0, 64, 126
1, 352405, Note_on_c, 0, 97, 94
1, 352410, Note_on_c, 0, 93, 81
1, 352414, Note_on_c, 0, 90, 83
1, 352487, Control_c, 0, 64, 127
1, 352500, Note_off_c, 0, 61, 58
1, 352533, Note_off_c, 0, 93, 45
1, 352539, Note_off_c, 0, 90, 47
1, 352539, Note_on_c, 0, 54, 57
1, 352591, Control_c, 0, 64, 127
1, 352600, Note_off_c, 0, 54, 58
1, 352625, Note_on_c, 0, 93, 92
1, 352625, Note_on_c, 0, 85, 75
1, 352627, Note_on_c, 0, 49, 59
1, 352633, Note_on_c, 0, 90, 84
1, 352643, Note_off_c, 0, 97, 37
1, 352684, Note_off_c, 0, 93, 59
1, 352686, Note_off_c, 0, 85, 61
1, 352693, Note_off_c, 0, 90, 61
1, 352720, Note_off_c, 0, 49, 57
1, 352728, Note_on_c, 0, 42, 68
1, 352817, Note_on_c, 0, 90, 91
1, 352827, Note_on_c, 0, 81, 70
1, 352828, Note_on_c, 0, 85, 67
1, 352845, Note_off_c, 0, 81, 64
1, 352846, Note_off_c, 0, 85, 68
1, 352864, Note_off_c, 0, 90, 61
1, 352902, Note_on_c, 0, 49, 60
1, 352903, Note_off_c, 0, 42, 59
1, 353017, Note_on_c, 0, 87, 84
1, 353021, Note_on_c, 0, 81, 72
1, 353031, Note_on_c, 0, 54, 58
1, 353041, Note_off_c, 0, 49, 50
1, 353045, Note_on_c, 0, 78, 59
1, 353108, Note_off_c, 0, 78, 35
1, 353128, Note_off_c, 0, 54, 55
1, 353133, Note_off_c, 0, 81, 51
1, 353138, Note_on_c, 0, 61, 59
1, 353159, Note_off_c, 0, 87, 59
1, 353226, Note_on_c, 0, 78, 72
1, 353226, Note_on_c, 0, 85, 76
1, 353231, Note_on_c, 0, 81, 69
1, 353283, Note_off_c, 0, 61, 54
1, 353301, Note_off_c, 0, 78, 57
1, 353302, Note_off_c, 0, 81, 56
1, 353325, Note_on_c, 0, 54, 45
1, 353401, Note_off_c, 0, 54, 58
1, 353418, Note_off_c, 0, 85, 61
1, 353433, Note_on_c, 0, 87, 79
1, 353437, Note_on_c, 0, 78, 72
1, 353439, Note_on_c, 0, 49, 49
1, 353457, Note_on_c, 0, 81, 9
1, 353484, Note_off_c, 0, 87, 62
1, 353490, Note_off_c, 0, 78, 62
1, 353504, Note_off_c, 0, 81, 28
1, 353522, Note_off_c, 0, 49, 55
1, 353537, Note_on_c, 0, 42, 56
1, 353642, Note_on_c, 0, 85, 75
1, 353645, Note_on_c, 0, 81, 66
1, 353653, Note_on_c, 0, 78, 67
1, 353700, Note_off_c, 0, 42, 58
1, 353720, Note_on_c, 0, 49, 50
1, 353748, Note_off_c, 0, 81, 53
1, 353749, Note_off_c, 0, 78, 48
1, 353843, Note_on_c, 0, 81, 72
1, 353848, Note_on_c, 0, 73, 56
1, 353849, Note_on_c, 0, 54, 52
1, 353850, Note_off_c, 0, 85, 62
1, 353851, Note_off_c, 0, 49, 48
1, 353858, Note_on_c, 0, 78, 70
1, 353898, Note_off_c, 0, 81, 60
1, 353904, Note_off_c, 0, 78, 47
1, 353914, Note_off_c, 0, 73, 61
1, 353946, Note_off_c, 0, 54, 57
1, 353952, Note_on_c, 0, 61, 53
1, 354041, Note_on_c, 0, 78, 78
1, 354056, Note_on_c, 0, 69, 63
1, 354068, Note_on_c, 0, 73, 43
1, 354083, Note_off_c, 0, 78, 56
1, 354084, Note_off_c, 0, 69, 69
1, 354094, Note_off_c, 0, 73, 51
1, 354113, Note_off_c, 0, 61, 52
1, 354147, Note_on_c, 0, 54, 51
1, 354233, Note_off_c, 0, 54, 56
1, 354263, Note_on_c, 0, 75, 72
1, 354278, Note_on_c, 0, 69, 57
1, 354279, Note_on_c, 0, 66, 59
1, 354282, Note_on_c, 0, 49, 42
1, 354346, Note_off_c, 0, 66, 41
1, 354362, Note_off_c, 0, 69, 58
1, 354382, Note_off_c, 0, 49, 54
1, 354408, Note_on_c, 0, 42, 43
1, 354457, Control_c, 0, 64, 117
1, 354472, Control_c, 0, 64, 99
1, 354481, Note_off_c, 0, 75, 55
1, 354487, Control_c, 0, 64, 76
1, 354488, Note_on_c, 0, 69, 60
1, 354488, Note_on_c, 0, 73, 66
1, 354502, Control_c, 0, 64, 0
1, 354507, Note_on_c, 0, 66, 38
1, 354562, Control_c, 0, 64, 57
1, 354577, Control_c, 0, 64, 70
1, 354591, Control_c, 0, 64, 79
1, 354599, Note_off_c, 0, 42, 43
1, 354606, Control_c, 0, 64, 87
1, 354612, Note_on_c, 0, 49, 48
1, 354621, Control_c, 0, 64, 91
1, 354635, Control_c, 0, 64, 93
1, 354638, Note_off_c, 0, 66, 39
1, 354639, Note_off_c, 0, 69, 34
1, 354650, Control_c, 0, 64, 95
1, 354665, Control_c, 0, 64, 97
1, 354680, Control_c, 0, 64, 99
1, 354703, Control_c, 0, 64, 100
1, 354717, Control_c, 0, 64, 101
1, 354732, Control_c, 0, 64, 102
1, 354733, Note_on_c, 0, 75, 71
1, 354744, Note_off_c, 0, 73, 56
1, 354747, Control_c, 0, 64, 102
1, 354751, Note_on_c, 0, 66, 56
1, 354757, Note_off_c, 0, 49, 48
1, 354760, Note_on_c, 0, 69, 41
1, 354762, Control_c, 0, 64, 103
1, 354775, Note_on_c, 0, 54, 43
1, 354777, Control_c, 0, 64, 104
1, 354781, Note_off_c, 0, 69, 63
1, 354791, Control_c, 0, 64, 104
1, 354806, Control_c, 0, 64, 105
1, 354815, Note_off_c, 0, 75, 62
1, 354837, Control_c, 0, 64, 105
1, 354852, Control_c, 0, 64, 106
1, 354862, Note_off_c, 0, 54, 51
1, 354863, Note_off_c, 0, 66, 62
1, 354866, Control_c, 0, 64, 106
1, 354881, Control_c, 0, 64, 107
1, 354882, Note_on_c, 0, 61, 49
1, 354896, Control_c, 0, 64, 108
1, 354926, Control_c, 0, 64, 108
1, 354940, Control_c, 0, 64, 109
1, 354985, Control_c, 0, 64, 109
1, 355004, Note_on_c, 0, 69, 48
1, 355016, Note_on_c, 0, 73, 56
1, 355026, Note_on_c, 0, 66, 43
1, 355082, Note_off_c, 0, 61, 34
1, 355140, Note_on_c, 0, 54, 36
1, 355156, Note_off_c, 0, 66, 25
1, 355170, Note_off_c, 0, 69, 57
1, 355239, Note_off_c, 0, 54, 49
1, 355299, Note_on_c, 0, 69, 60
1, 355314, Note_on_c, 0, 49, 38
1, 355336, Note_on_c, 0, 66, 36
1, 355338, Note_on_c, 0, 61, 41
1, 355341, Note_off_c, 0, 73, 36
1, 355452, Note_off_c, 0, 49, 50
1, 355463, Note_off_c, 0, 69, 62
1, 355476, Note_on_c, 0, 42, 43
1, 355517, Note_off_c, 0, 66, 46
1, 355535, Note_off_c, 0, 42, 58
1, 355559, Note_off_c, 0, 61, 60
1, 355770, Note_on_c, 0, 37, 32
1, 355794, Control_c, 0, 64, 108
1, 355809, Control_c, 0, 64, 104
1, 355821, Note_on_c, 0, 68, 63
1, 355824, Control_c, 0, 64, 95
1, 355838, Control_c, 0, 64, 79
1, 355839, Note_on_c, 0, 65, 52
1, 355853, Control_c, 0, 64, 60
1, 355867, Note_on_c, 0, 56, 15
1, 355868, Control_c, 0, 64, 0
1, 355957, Control_c, 0, 64, 61
1, 355971, Control_c, 0, 64, 66
1, 355974, Note_on_c, 0, 44, 27
1, 355986, Control_c, 0, 64, 69
1, 356001, Control_c, 0, 64, 72
1, 356009, Note_off_c, 0, 56, 38
1, 356015, Control_c, 0, 64, 75
1, 356030, Control_c, 0, 64, 78
1, 356045, Control_c, 0, 64, 80
1, 356060, Control_c, 0, 64, 82
1, 356068, Note_off_c, 0, 44, 37
1, 356075, Control_c, 0, 64, 84
1, 356083, Note_on_c, 0, 49, 39
1, 356089, Control_c, 0, 64, 86
1, 356104, Control_c, 0, 64, 88
1, 356119, Control_c, 0, 64, 90
1, 356134, Control_c, 0, 64, 91
1, 356149, Control_c, 0, 64, 92
1, 356164, Control_c, 0, 64, 93
1, 356179, Control_c, 0, 64, 93
1, 356201, Control_c, 0, 64, 94
1, 356215, Control_c, 0, 64, 94
1, 356226, Note_on_c, 0, 56, 36
1, 356226, Note_off_c, 0, 49, 29
1, 356237, Note_off_c, 0, 37, 37
1, 356245, Control_c, 0, 64, 95
1, 356275, Control_c, 0, 64, 95
1, 356319, Control_c, 0, 64, 96
1, 356406, Note_off_c, 0, 56, 34
1, 356434, Note_off_c, 0, 65, 37
1, 356468, Note_on_c, 0, 49, 34
1, 356521, Note_off_c, 0, 68, 34
1, 356570, Note_off_c, 0, 49, 35
1, 356581, Note_on_c, 0, 44, 31
1, 356671, Note_off_c, 0, 44, 38
1, 356689, Note_on_c, 0, 37, 26
1, 356780, Control_c, 0, 64, 92
1, 356794, Control_c, 0, 64, 84
1, 356800, Note_on_c, 0, 68, 56
1, 356802, Note_on_c, 0, 66, 51
1, 356809, Control_c, 0, 64, 72
1, 356819, Note_on_c, 0, 56, 30
1, 356824, Control_c, 0, 64, 48
1, 356838, Control_c, 0, 64, 0
1, 356883, Control_c, 0, 64, 44
1, 356898, Control_c, 0, 64, 64
1, 356912, Control_c, 0, 64, 68
1, 356923, Note_on_c, 0, 44, 16
1, 356927, Control_c, 0, 64, 71
1, 356950, Control_c, 0, 64, 74
1, 356965, Control_c, 0, 64, 76
1, 356980, Control_c, 0, 64, 78
1, 356982, Note_off_c, 0, 56, 39
1, 356994, Control_c, 0, 64, 80
1, 357009, Control_c, 0, 64, 82
1, 357024, Control_c, 0, 64, 83
1, 357038, Note_on_c, 0, 46, 47
1, 357039, Control_c, 0, 64, 85
1, 357043, Note_off_c, 0, 44, 32
1, 357053, Control_c, 0, 64, 86
1, 357068, Control_c, 0, 64, 87
1, 357083, Control_c, 0, 64, 88
1, 357098, Control_c, 0, 64, 89
1, 357112, Control_c, 0, 64, 90
1, 357127, Control_c, 0, 64, 90
1, 357142, Control_c, 0, 64, 91
1, 357157, Control_c, 0, 64, 92
1, 357172, Control_c, 0, 64, 92
1, 357183, Note_off_c, 0, 46, 28
1, 357186, Control_c, 0, 64, 93
1, 357201, Note_on_c, 0, 56, 35
1, 357201, Control_c, 0, 64, 93
1, 357217, Control_c, 0, 64, 94
1, 357232, Control_c, 0, 64, 94
1, 357261, Control_c, 0, 64, 95
1, 357263, Note_off_c, 0, 37, 8
1, 357276, Control_c, 0, 64, 96
1, 357291, Control_c, 0, 64, 96
1, 357306, Control_c, 0, 64, 97
1, 357321, Control_c, 0, 64, 97
1, 357350, Control_c, 0, 64, 98
1, 357358, Note_off_c, 0, 66, 37
1, 357365, Control_c, 0, 64, 98
1, 357395, Control_c, 0, 64, 99
1, 357441, Note_on_c, 0, 46, 39
1, 357447, Note_off_c, 0, 68, 24
1, 357450, Note_off_c, 0, 56, 36
1, 357557, Note_off_c, 0, 46, 35
1, 357574, Note_on_c, 0, 44, 30
1, 357629, Note_off_c, 0, 44, 47
1, 357675, Note_on_c, 0, 37, 22
1, 357787, Control_c, 0, 64, 98
1, 357791, Note_on_c, 0, 68, 47
1, 357802, Note_on_c, 0, 63, 44
1, 357802, Control_c, 0, 64, 95
1, 357817, Control_c, 0, 64, 88
1, 357818, Note_on_c, 0, 56, 28
1, 357832, Control_c, 0, 64, 77
1, 357847, Control_c, 0, 64, 57
1, 357862, Control_c, 0, 64, 0
1, 357921, Control_c, 0, 64, 50
1, 357936, Control_c, 0, 64, 65
1, 357938, Note_on_c, 0, 44, 14
1, 357950, Control_c, 0, 64, 68
1, 357965, Control_c, 0, 64, 72
1, 357980, Control_c, 0, 64, 76
1, 357994, Control_c, 0, 64, 80
1, 358011, Control_c, 0, 64, 83
1, 358018, Note_off_c, 0, 44, 38
1, 358018, Note_off_c, 0, 56, 40
1, 358026, Control_c, 0, 64, 85
1, 358040, Control_c, 0, 64, 87
1, 358046, Note_on_c, 0, 48, 38
1, 358055, Control_c, 0, 64, 89
1, 358070, Control_c, 0, 64, 90
1, 358084, Control_c, 0, 64, 91
1, 358099, Control_c, 0, 64, 92
1, 358114, Control_c, 0, 64, 93
1, 358129, Control_c, 0, 64, 94
1, 358144, Control_c, 0, 64, 95
1, 358158, Note_on_c, 0, 56, 39
1, 358158, Control_c, 0, 64, 95
1, 358173, Control_c, 0, 64, 96
1, 358188, Control_c, 0, 64, 96
1, 358203, Control_c, 0, 64, 97
1, 358215, Note_off_c, 0, 48, 45
1, 358218, Control_c, 0, 64, 97
1, 358232, Control_c, 0, 64, 98
1, 358262, Control_c, 0, 64, 98
1, 358292, Control_c, 0, 64, 99
1, 358406, Note_off_c, 0, 56, 35
1, 358414, Note_on_c, 0, 48, 26
1, 358499, Note_off_c, 0, 48, 47
1, 358517, Note_off_c, 0, 37, 39
1, 358532, Note_on_c, 0, 44, 37
1, 358617, Note_off_c, 0, 63, 36
1, 358686, Note_on_c, 0, 37, 31
1, 358696, Note_off_c, 0, 44, 39
1, 358924, Note_on_c, 0, 44, 29
1, 358984, Note_off_c, 0, 37, 31
1, 359037, Note_off_c, 0, 44, 37
1, 359043, Note_on_c, 0, 48, 35
1, 359133, Note_off_c, 0, 68, 32
1, 359142, Note_on_c, 0, 56, 39
1, 359273, Note_off_c, 0, 48, 43
1, 359278, Note_off_c, 0, 56, 34
1, 359297, Note_on_c, 0, 37, 37
1, 359300, Control_c, 0, 64, 98
1, 359315, Control_c, 0, 64, 93
1, 359329, Control_c, 0, 64, 83
1, 359344, Control_c, 0, 64, 72
1, 359359, Note_on_c, 0, 68, 65
1, 359359, Control_c, 0, 64, 59
1, 359374, Control_c, 0, 64, 0
1, 359376, Note_on_c, 0, 65, 49
1, 359389, Control_c, 0, 64, 42
1, 359404, Control_c, 0, 64, 62
1, 359409, Note_on_c, 0, 56, 25
1, 359419, Control_c, 0, 64, 68
1, 359433, Control_c, 0, 64, 72
1, 359448, Control_c, 0, 64, 76
1, 359463, Control_c, 0, 64, 81
1, 359478, Control_c, 0, 64, 84
1, 359482, Note_on_c, 0, 44, 46
1, 359493, Control_c, 0, 64, 86
1, 359507, Control_c, 0, 64, 88
1, 359522, Control_c, 0, 64, 90
1, 359537, Control_c, 0, 64, 92
1, 359543, Note_off_c, 0, 56, 42
1, 359552, Control_c, 0, 64, 93
1, 359566, Control_c, 0, 64, 95
1, 359581, Control_c, 0, 64, 96
1, 359586, Note_off_c, 0, 37, 40
1, 359589, Note_on_c, 0, 49, 47
1, 359596, Control_c, 0, 64, 97
1, 359612, Control_c, 0, 64, 98
1, 359627, Control_c, 0, 64, 99
1, 359657, Control_c, 0, 64, 99
1, 359671, Note_on_c, 0, 56, 54
1, 359678, Note_off_c, 0, 44, 24
1, 359681, Note_off_c, 0, 65, 63
1, 359717, Note_off_c, 0, 68, 62
1, 359720, Note_off_c, 0, 56, 56
1, 359731, Control_c, 0, 64, 100
1, 359802, Note_on_c, 0, 37, 33
1, 359805, Control_c, 0, 64, 96
1, 359818, Note_on_c, 0, 68, 75
1, 359819, Control_c, 0, 64, 86
1, 359824, Note_off_c, 0, 49, 32
1, 359826, Note_on_c, 0, 66, 59
1, 359833, Note_on_c, 0, 56, 46
1, 359834, Control_c, 0, 64, 70
1, 359849, Control_c, 0, 64, 0
1, 359923, Control_c, 0, 64, 43
1, 359945, Control_c, 0, 64, 64
1, 359960, Control_c, 0, 64, 68
1, 359966, Note_on_c, 0, 44, 40
1, 359975, Control_c, 0, 64, 70
1, 359990, Control_c, 0, 64, 73
1, 360005, Control_c, 0, 64, 76
1, 360009, Note_off_c, 0, 56, 40
1, 360019, Control_c, 0, 64, 79
1, 360034, Control_c, 0, 64, 81
1, 360049, Control_c, 0, 64, 82
1, 360063, Control_c, 0, 64, 83
1, 360069, Note_on_c, 0, 46, 48
1, 360078, Control_c, 0, 64, 84
1, 360093, Control_c, 0, 64, 85
1, 360096, Note_off_c, 0, 44, 31
1, 360108, Control_c, 0, 64, 86
1, 360123, Control_c, 0, 64, 87
1, 360137, Control_c, 0, 64, 88
1, 360152, Control_c, 0, 64, 89
1, 360167, Control_c, 0, 64, 89
1, 360182, Control_c, 0, 64, 90
1, 360196, Note_on_c, 0, 56, 58
1, 360212, Control_c, 0, 64, 90
1, 360225, Note_off_c, 0, 46, 33
1, 360227, Control_c, 0, 64, 91
1, 360242, Control_c, 0, 64, 91
1, 360256, Control_c, 0, 64, 92
1, 360271, Note_off_c, 0, 66, 37
1, 360286, Control_c, 0, 64, 92
1, 360301, Control_c, 0, 64, 93
1, 360330, Control_c, 0, 64, 93
1, 360375, Control_c, 0, 64, 94
1, 360471, Note_off_c, 0, 68, 61
1, 360477, Note_on_c, 0, 46, 43
1, 360511, Note_off_c, 0, 37, 36
1, 360525, Note_off_c, 0, 56, 28
1, 360584, Note_off_c, 0, 46, 37
1, 360609, Note_on_c, 0, 44, 39
1, 360745, Note_off_c, 0, 44, 36
1, 360762, Note_on_c, 0, 37, 29
1, 360842, Control_c, 0, 64, 92
1, 360857, Control_c, 0, 64, 90
1, 360872, Control_c, 0, 64, 85
1, 360885, Note_on_c, 0, 70, 69
1, 360886, Control_c, 0, 64, 77
1, 360898, Note_on_c, 0, 66, 53
1, 360901, Control_c, 0, 64, 65
1, 360916, Control_c, 0, 64, 0
1, 360932, Note_on_c, 0, 56, 18
1, 361043, Note_on_c, 0, 44, 25
1, 361064, Control_c, 0, 64, 61
1, 361079, Control_c, 0, 64, 66
1, 361094, Control_c, 0, 64, 69
1, 361109, Control_c, 0, 64, 71
1, 361124, Control_c, 0, 64, 74
1, 361130, Note_off_c, 0, 56, 40
1, 361139, Control_c, 0, 64, 76
1, 361153, Control_c, 0, 64, 78
1, 361168, Control_c, 0, 64, 80
1, 361173, Note_on_c, 0, 48, 38
1, 361183, Control_c, 0, 64, 82
1, 361197, Note_off_c, 0, 44, 30
1, 361198, Control_c, 0, 64, 82
1, 361213, Control_c, 0, 64, 83
1, 361228, Control_c, 0, 64, 84
1, 361243, Control_c, 0, 64, 84
1, 361258, Control_c, 0, 64, 85
1, 361273, Control_c, 0, 64, 86
1, 361288, Control_c, 0, 64, 87
1, 361303, Control_c, 0, 64, 87
1, 361318, Control_c, 0, 64, 88
1, 361319, Note_off_c, 0, 48, 32
1, 361345, Note_on_c, 0, 56, 35
1, 361348, Control_c, 0, 64, 88
1, 361362, Note_off_c, 0, 70, 30
1, 361362, Control_c, 0, 64, 89
1, 361377, Control_c, 0, 64, 89
1, 361407, Control_c, 0, 64, 90
1, 361422, Control_c, 0, 64, 90
1, 361473, Control_c, 0, 64, 91
1, 361517, Control_c, 0, 64, 91
1, 361577, Control_c, 0, 64, 92
1, 361677, Note_on_c, 0, 48, 25
1, 361727, Note_off_c, 0, 37, 37
1, 361826, Note_on_c, 0, 44, 33
1, 361827, Note_off_c, 0, 48, 42
1, 361837, Note_on_c, 0, 68, 56
1, 361903, Note_off_c, 0, 66, 33
1, 362023, Note_off_c, 0, 68, 59
1, 362039, Note_on_c, 0, 37, 20
1, 362078, Note_off_c, 0, 44, 32
1, 362127, Note_off_c, 0, 56, 54
1, 362385, Control_c, 0, 64, 91
1, 362389, Note_on_c, 0, 65, 49
1, 362400, Control_c, 0, 64, 88
1, 362411, Note_on_c, 0, 56, 34
1, 362414, Control_c, 0, 64, 82
1, 362419, Note_on_c, 0, 53, 25
1, 362429, Control_c, 0, 64, 71
1, 362444, Control_c, 0, 64, 0
1, 362518, Control_c, 0, 64, 45
1, 362532, Control_c, 0, 64, 64
1, 362547, Control_c, 0, 64, 67
1, 362562, Control_c, 0, 64, 70
1, 362577, Control_c, 0, 64, 73
1, 362591, Control_c, 0, 64, 76
1, 362606, Control_c, 0, 64, 79
1, 362621, Control_c, 0, 64, 81
1, 362636, Control_c, 0, 64, 82
1, 362650, Control_c, 0, 64, 84
1, 362665, Control_c, 0, 64, 85
1, 362669, Note_on_c, 0, 44, 33
1, 362680, Control_c, 0, 64, 86
1, 362695, Control_c, 0, 64, 87
1, 362701, Note_off_c, 0, 65, 34
1, 362710, Control_c, 0, 64, 88
1, 362725, Control_c, 0, 64, 89
1, 362755, Control_c, 0, 64, 89
1, 362784, Control_c, 0, 64, 90
1, 362815, Control_c, 0, 64, 90
1, 362841, Note_off_c, 0, 37, 35
1, 362844, Control_c, 0, 64, 91
1, 362874, Control_c, 0, 64, 91
1, 362930, Note_on_c, 0, 62, 53
1, 362931, Poly_aftertouch_c, 0, 47, 127
1, 362992, Note_off_c, 0, 44, 32
1, 363098, Note_off_c, 0, 56, 18
1, 363138, Poly_aftertouch_c, 0, 47, 0
1, 363157, Note_on_c, 0, 50, 28
1, 363231, Note_off_c, 0, 53, 34
1, 363271, Note_on_c, 0, 59, 42
1, 363410, Note_on_c, 0, 47, 33
1, 363421, Note_off_c, 0, 50, 33
1, 363484, Note_off_c, 0, 47, 53
1, 363526, Note_on_c, 0, 56, 49
1, 363538, Note_on_c, 0, 44, 35
1, 363553, Note_on_c, 0, 53, 20
1, 363593, Note_off_c, 0, 59, 27
1, 363620, Note_off_c, 0, 44, 55
1, 363664, Note_off_c, 0, 56, 58
1, 363679, Note_on_c, 0, 37, 35
1, 363778, Control_c, 0, 64, 91
1, 363779, Note_on_c, 0, 55, 53
1, 363793, Control_c, 0, 64, 87
1, 363808, Control_c, 0, 64, 77
1, 363823, Control_c, 0, 64, 62
1, 363837, Control_c, 0, 64, 0
1, 363882, Control_c, 0, 64, 63
1, 363897, Control_c, 0, 64, 69
1, 363911, Control_c, 0, 64, 74
1, 363919, Note_off_c, 0, 55, 63
1, 363926, Control_c, 0, 64, 77
1, 363932, Note_on_c, 0, 44, 43
1, 363941, Control_c, 0, 64, 79
1, 363944, Note_off_c, 0, 53, 42
1, 363956, Control_c, 0, 64, 79
1, 363971, Control_c, 0, 64, 80
1, 363986, Control_c, 0, 64, 80
1, 364001, Control_c, 0, 64, 81
1, 364015, Control_c, 0, 64, 81
1, 364045, Note_on_c, 0, 56, 44
1, 364045, Control_c, 0, 64, 82
1, 364057, Note_on_c, 0, 53, 20
1, 364090, Control_c, 0, 64, 82
1, 364104, Control_c, 0, 64, 83
1, 364134, Control_c, 0, 64, 83
1, 364163, Control_c, 0, 64, 84
1, 364199, Note_on_c, 0, 50, 36
1, 364208, Control_c, 0, 64, 84
1, 364209, Note_off_c, 0, 44, 20
1, 364226, Note_off_c, 0, 62, 30
1, 364290, Note_on_c, 0, 58, 52
1, 364312, Control_c, 0, 64, 85
1, 364394, Note_off_c, 0, 37, 17
1, 364402, Control_c, 0, 64, 85
1, 364442, Note_off_c, 0, 53, 42
1, 364444, Note_off_c, 0, 58, 61
1, 364469, Note_on_c, 0, 47, 43
1, 364469, Note_off_c, 0, 56, 39
1, 364492, Note_off_c, 0, 50, 32
1, 364543, Note_on_c, 0, 59, 50
1, 364571, Note_on_c, 0, 56, 31
1, 364579, Note_on_c, 0, 53, 30
1, 364582, Note_on_c, 0, 44, 39
1, 364582, Note_off_c, 0, 47, 34
1, 364667, Note_off_c, 0, 44, 54
1, 364719, Note_on_c, 0, 37, 29
1, 364735, Control_c, 0, 64, 78
1, 364750, Control_c, 0, 64, 66
1, 364765, Control_c, 0, 64, 0
1, 364779, Note_on_c, 0, 61, 59
1, 364817, Note_off_c, 0, 56, 33
1, 364839, Control_c, 0, 64, 62
1, 364853, Control_c, 0, 64, 67
1, 364868, Control_c, 0, 64, 69
1, 364883, Control_c, 0, 64, 72
1, 364898, Control_c, 0, 64, 74
1, 364909, Note_on_c, 0, 44, 43
1, 364913, Note_off_c, 0, 61, 58
1, 364913, Control_c, 0, 64, 76
1, 364919, Note_off_c, 0, 53, 42
1, 364928, Control_c, 0, 64, 78
1, 364942, Control_c, 0, 64, 80
1, 364957, Control_c, 0, 64, 81
1, 364972, Control_c, 0, 64, 81
1, 364987, Control_c, 0, 64, 82
1, 365002, Control_c, 0, 64, 82
1, 365011, Note_off_c, 0, 59, 0
1, 365017, Control_c, 0, 64, 83
1, 365020, Note_on_c, 0, 62, 57
1, 365042, Note_on_c, 0, 53, 42
1, 365047, Note_on_c, 0, 47, 41
1, 365047, Poly_aftertouch_c, 0, 59, 127
1, 365061, Control_c, 0, 64, 83
1, 365080, Note_on_c, 0, 56, 26
1, 365098, Note_off_c, 0, 44, 33
1, 365171, Note_on_c, 0, 50, 45
1, 365218, Control_c, 0, 64, 84
1, 365232, Note_off_c, 0, 47, 34
1, 365250, Note_on_c, 0, 64, 63
1, 365261, Note_off_c, 0, 37, 26
1, 365273, Poly_aftertouch_c, 0, 59, 0
1, 365316, Note_off_c, 0, 56, 40
1, 365374, Note_off_c, 0, 64, 49
1, 365382, Note_on_c, 0, 47, 30
1, 365382, Note_off_c, 0, 53, 41
1, 365417, Note_off_c, 0, 50, 32
1, 365455, Control_c, 0, 64, 84
1, 365491, Note_on_c, 0, 65, 66
1, 365497, Note_on_c, 0, 44, 41
1, 365502, Note_on_c, 0, 59, 36
1, 365514, Control_c, 0, 64, 85
1, 365521, Note_on_c, 0, 56, 22
1, 365538, Note_off_c, 0, 59, 49
1, 365559, Note_off_c, 0, 56, 50
1, 365564, Note_off_c, 0, 44, 52
1, 365594, Note_off_c, 0, 62, 38
1, 365601, Note_on_c, 0, 37, 40
1, 365632, Control_c, 0, 64, 85
1, 365666, Note_off_c, 0, 65, 63
1, 365721, Control_c, 0, 64, 84
1, 365736, Control_c, 0, 64, 80
1, 365738, Note_on_c, 0, 67, 69
1, 365750, Control_c, 0, 64, 71
1, 365765, Control_c, 0, 64, 30
1, 365779, Control_c, 0, 64, 0
1, 365814, Note_off_c, 0, 47, 9
1, 365850, Note_on_c, 0, 44, 41
1, 365853, Control_c, 0, 64, 61
1, 365867, Control_c, 0, 64, 66
1, 365882, Control_c, 0, 64, 68
1, 365897, Control_c, 0, 64, 69
1, 365912, Control_c, 0, 64, 71
1, 365935, Control_c, 0, 64, 72
1, 365949, Control_c, 0, 64, 74
1, 365964, Control_c, 0, 64, 76
1, 365967, Note_on_c, 0, 47, 40
1, 365979, Control_c, 0, 64, 77
1, 365980, Note_on_c, 0, 68, 71
1, 365989, Note_off_c, 0, 44, 0
1, 365994, Control_c, 0, 64, 78
1, 366013, Note_off_c, 0, 67, 57
1, 366024, Control_c, 0, 64, 78
1, 366028, Poly_aftertouch_c, 0, 44, 0
1, 366125, Note_on_c, 0, 50, 49
1, 366135, Note_off_c, 0, 47, 42
1, 366230, Note_on_c, 0, 70, 72
1, 366246, Control_c, 0, 64, 77
1, 366261, Control_c, 0, 64, 74
1, 366276, Control_c, 0, 64, 69
1, 366291, Control_c, 0, 64, 63
1, 366305, Control_c, 0, 64, 59
1, 366320, Control_c, 0, 64, 62
1, 366332, Note_off_c, 0, 68, 54
1, 366335, Control_c, 0, 64, 65
1, 366350, Control_c, 0, 64, 68
1, 366365, Control_c, 0, 64, 71
1, 366379, Control_c, 0, 64, 72
1, 366385, Note_on_c, 0, 47, 40
1, 366409, Control_c, 0, 64, 70
1, 366424, Control_c, 0, 64, 64
1, 366439, Control_c, 0, 64, 0
1, 366458, Note_off_c, 0, 37, 42
1, 366484, Note_off_c, 0, 50, 20
1, 366493, Note_on_c, 0, 71, 62
1, 366496, Note_off_c, 0, 47, 51
1, 366507, Note_on_c, 0, 44, 45
1, 366513, Control_c, 0, 64, 52
1, 366528, Control_c, 0, 64, 67
1, 366543, Control_c, 0, 64, 72
1, 366558, Control_c, 0, 64, 74
1, 366572, Control_c, 0, 64, 75
1, 366587, Control_c, 0, 64, 76
1, 366602, Control_c, 0, 64, 77
1, 366646, Control_c, 0, 64, 76
1, 366654, Note_on_c, 0, 37, 43
1, 366661, Control_c, 0, 64, 75
1, 366680, Note_off_c, 0, 44, 35
1, 366683, Control_c, 0, 64, 73
1, 366698, Control_c, 0, 64, 70
1, 366713, Control_c, 0, 64, 64
1, 366728, Control_c, 0, 64, 23
1, 366743, Control_c, 0, 64, 0
1, 366775, Note_off_c, 0, 70, 13
1, 366801, Note_on_c, 0, 73, 64
1, 366827, Note_on_c, 0, 61, 40
1, 366832, Note_on_c, 0, 64, 41
1, 366857, Note_off_c, 0, 71, 45
1, 366921, Control_c, 0, 64, 57
1, 366936, Control_c, 0, 64, 65
1, 366951, Control_c, 0, 64, 67
1, 366966, Control_c, 0, 64, 70
1, 366981, Control_c, 0, 64, 72
1, 366987, Note_off_c, 0, 73, 61
1, 366995, Control_c, 0, 64, 74
1, 367010, Control_c, 0, 64, 76
1, 367025, Control_c, 0, 64, 79
1, 367040, Control_c, 0, 64, 80
1, 367041, Note_on_c, 0, 45, 40
1, 367053, Note_off_c, 0, 37, 38
1, 367054, Control_c, 0, 64, 81
1, 367069, Control_c, 0, 64, 81
1, 367152, Note_on_c, 0, 69, 63
1, 367162, Note_off_c, 0, 61, 38
1, 367195, Note_on_c, 0, 49, 44
1, 367223, Note_off_c, 0, 64, 36
1, 367288, Note_off_c, 0, 49, 48
1, 367318, Note_off_c, 0, 45, 35
1, 367323, Note_on_c, 0, 52, 39
1, 367423, Note_on_c, 0, 64, 61
1, 367561, Note_off_c, 0, 69, 23
1, 367577, Note_on_c, 0, 49, 40
1, 367585, Note_off_c, 0, 52, 38
1, 367650, Note_off_c, 0, 49, 49
1, 367682, Note_on_c, 0, 45, 44
1, 367688, Note_on_c, 0, 61, 56
1, 367699, Note_on_c, 0, 57, 38
1, 367822, Note_on_c, 0, 37, 33
1, 367828, Note_off_c, 0, 45, 35
1, 367863, Note_off_c, 0, 61, 61
1, 367866, Note_off_c, 0, 64, 51
1, 367892, Control_c, 0, 64, 80
1, 367907, Control_c, 0, 64, 77
1, 367922, Control_c, 0, 64, 68
1, 367931, Note_on_c, 0, 60, 59
1, 367937, Control_c, 0, 64, 0
1, 367995, Control_c, 0, 64, 38
1, 368007, Note_off_c, 0, 37, 42
1, 368010, Control_c, 0, 64, 65
1, 368025, Control_c, 0, 64, 68
1, 368040, Control_c, 0, 64, 70
1, 368041, Note_on_c, 0, 45, 26
1, 368055, Control_c, 0, 64, 72
1, 368063, Note_off_c, 0, 60, 62
1, 368065, Note_off_c, 0, 57, 58
1, 368069, Control_c, 0, 64, 74
1, 368084, Control_c, 0, 64, 76
1, 368099, Control_c, 0, 64, 77
1, 368114, Control_c, 0, 64, 78
1, 368129, Control_c, 0, 64, 78
1, 368144, Control_c, 0, 64, 79
1, 368159, Control_c, 0, 64, 79
1, 368179, Note_on_c, 0, 61, 56
1, 368189, Note_on_c, 0, 49, 41
1, 368210, Note_on_c, 0, 57, 34
1, 368240, Control_c, 0, 64, 78
1, 368255, Control_c, 0, 64, 72
1, 368270, Control_c, 0, 64, 63
1, 368284, Control_c, 0, 64, 50
1, 368298, Note_off_c, 0, 57, 0
1, 368298, Note_on_c, 0, 57, 3
1, 368299, Control_c, 0, 64, 62
1, 368314, Control_c, 0, 64, 67
1, 368322, Note_off_c, 0, 45, 39
1, 368329, Note_on_c, 0, 52, 42
1, 368329, Control_c, 0, 64, 72
1, 368344, Note_off_c, 0, 49, 35
1, 368344, Control_c, 0, 64, 77
1, 368359, Control_c, 0, 64, 79
1, 368374, Control_c, 0, 64, 79
1, 368418, Control_c, 0, 64, 80
1, 368424, Note_on_c, 0, 63, 61
1, 368448, Control_c, 0, 64, 80
1, 368463, Control_c, 0, 64, 81
1, 368478, Control_c, 0, 64, 82
1, 368493, Control_c, 0, 64, 82
1, 368523, Control_c, 0, 64, 83
1, 368525, Note_on_c, 0, 49, 45
1, 368555, Note_off_c, 0, 63, 59
1, 368567, Control_c, 0, 64, 83
1, 368585, Note_off_c, 0, 57, 40
1, 368611, Note_off_c, 0, 61, 49
1, 368616, Note_off_c, 0, 52, 23
1, 368626, Control_c, 0, 64, 84
1, 368639, Note_off_c, 0, 49, 53
1, 368652, Note_on_c, 0, 64, 54
1, 368663, Note_on_c, 0, 45, 46
1, 368671, Note_on_c, 0, 61, 31
1, 368698, Note_on_c, 0, 57, 43
1, 368774, Note_off_c, 0, 45, 50
1, 368789, Control_c, 0, 64, 84
1, 368806, Note_on_c, 0, 37, 45
1, 368833, Control_c, 0, 64, 83
1, 368848, Control_c, 0, 64, 71
1, 368863, Control_c, 0, 64, 0
1, 368901, Note_on_c, 0, 66, 65
1, 368945, Control_c, 0, 64, 62
1, 368959, Control_c, 0, 64, 67
1, 368974, Control_c, 0, 64, 69
1, 368989, Control_c, 0, 64, 71
1, 368993, Note_off_c, 0, 37, 49
1, 369004, Control_c, 0, 64, 72
1, 369019, Control_c, 0, 64, 74
1, 369033, Control_c, 0, 64, 75
1, 369041, Note_off_c, 0, 61, 35
1, 369042, Note_on_c, 0, 45, 41
1, 369043, Note_off_c, 0, 64, 32
1, 369048, Control_c, 0, 64, 77
1, 369063, Control_c, 0, 64, 77
1, 369070, Note_off_c, 0, 66, 66
1, 369073, Note_off_c, 0, 57, 40
1, 369078, Control_c, 0, 64, 78
1, 369093, Control_c, 0, 64, 78
1, 369145, Note_on_c, 0, 68, 69
1, 369146, Note_on_c, 0, 49, 47
1, 369156, Note_on_c, 0, 61, 51
1, 369166, Control_c, 0, 64, 79
1, 369203, Note_off_c, 0, 45, 28
1, 369270, Note_off_c, 0, 49, 49
1, 369290, Note_on_c, 0, 52, 48
1, 369317, Note_off_c, 0, 61, 59
1, 369335, Note_off_c, 0, 68, 65
1, 369359, Note_on_c, 0, 69, 72
1, 369494, Note_off_c, 0, 52, 51
1, 369509, Note_on_c, 0, 49, 41
1, 369519, Note_off_c, 0, 69, 66
1, 369565, Note_off_c, 0, 49, 56
1, 369590, Note_on_c, 0, 45, 50
1, 369608, Note_on_c, 0, 71, 71
1, 369656, Control_c, 0, 64, 78
1, 369679, Control_c, 0, 64, 78
1, 369694, Note_off_c, 0, 45, 57
1, 369694, Control_c, 0, 64, 77
1, 369709, Control_c, 0, 64, 76
1, 369716, Note_on_c, 0, 37, 49
1, 369723, Control_c, 0, 64, 75
1, 369738, Control_c, 0, 64, 73
1, 369753, Control_c, 0, 64, 72
1, 369767, Control_c, 0, 64, 70
1, 369782, Control_c, 0, 64, 68
1, 369797, Control_c, 0, 64, 66
1, 369812, Control_c, 0, 64, 65
1, 369842, Control_c, 0, 64, 65
1, 369871, Note_on_c, 0, 73, 71
1, 369871, Control_c, 0, 64, 63
1, 369886, Control_c, 0, 64, 61
1, 369901, Control_c, 0, 64, 54
1, 369916, Control_c, 0, 64, 25
1, 369917, Note_off_c, 0, 71, 54
1, 369930, Control_c, 0, 64, 0
1, 369950, Note_off_c, 0, 37, 45
1, 369960, Note_on_c, 0, 45, 35
1, 370050, Control_c, 0, 64, 48
1, 370064, Control_c, 0, 64, 65
1, 370079, Control_c, 0, 64, 67
1, 370085, Note_on_c, 0, 49, 47
1, 370094, Control_c, 0, 64, 68
1, 370109, Control_c, 0, 64, 70
1, 370114, Note_on_c, 0, 74, 65
1, 370124, Control_c, 0, 64, 72
1, 370138, Control_c, 0, 64, 73
1, 370152, Note_off_c, 0, 73, 58
1, 370153, Control_c, 0, 64, 74
1, 370198, Control_c, 0, 64, 74
1, 370213, Control_c, 0, 64, 71
1, 370228, Control_c, 0, 64, 65
1, 370243, Control_c, 0, 64, 0
1, 370244, Note_off_c, 0, 45, 41
1, 370249, Note_on_c, 0, 52, 45
1, 370253, Note_off_c, 0, 49, 37
1, 370302, Control_c, 0, 64, 60
1, 370317, Control_c, 0, 64, 66
1, 370332, Control_c, 0, 64, 69
1, 370346, Control_c, 0, 64, 71
1, 370361, Control_c, 0, 64, 72
1, 370372, Note_on_c, 0, 75, 68
1, 370376, Control_c, 0, 64, 73
1, 370418, Note_off_c, 0, 74, 61
1, 370442, Control_c, 0, 64, 72
1, 370457, Control_c, 0, 64, 72
1, 370472, Control_c, 0, 64, 71
1, 370487, Control_c, 0, 64, 69
1, 370491, Note_off_c, 0, 52, 55
1, 370502, Control_c, 0, 64, 67
1, 370507, Note_on_c, 0, 49, 45
1, 370517, Control_c, 0, 64, 67
1, 370532, Control_c, 0, 64, 66
1, 370561, Control_c, 0, 64, 66
1, 370590, Control_c, 0, 64, 65
1, 370603, Note_off_c, 0, 49, 58
1, 370605, Control_c, 0, 64, 64
1, 370620, Control_c, 0, 64, 62
1, 370621, Note_on_c, 0, 45, 46
1, 370635, Control_c, 0, 64, 56
1, 370650, Control_c, 0, 64, 35
1, 370654, Note_on_c, 0, 76, 66
1, 370664, Control_c, 0, 64, 0
1, 370779, Note_on_c, 0, 37, 38
1, 370787, Note_off_c, 0, 45, 36
1, 370799, Control_c, 0, 64, 60
1, 370814, Control_c, 0, 64, 65
1, 370821, Note_off_c, 0, 75, 20
1, 370828, Control_c, 0, 64, 67
1, 370843, Control_c, 0, 64, 69
1, 370858, Control_c, 0, 64, 72
1, 370860, Note_off_c, 0, 76, 61
1, 370873, Control_c, 0, 64, 75
1, 370888, Control_c, 0, 64, 79
1, 370902, Control_c, 0, 64, 81
1, 370917, Control_c, 0, 64, 82
1, 370947, Control_c, 0, 64, 82
1, 370962, Control_c, 0, 64, 75
1, 370967, Note_on_c, 0, 78, 68
1, 370968, Note_on_c, 0, 69, 54
1, 370976, Control_c, 0, 64, 64
1, 370982, Note_on_c, 0, 66, 39
1, 370991, Control_c, 0, 64, 0
1, 371044, Note_off_c, 0, 66, 0
1, 371051, Control_c, 0, 64, 64
1, 371062, Note_off_c, 0, 37, 42
1, 371066, Control_c, 0, 64, 69
1, 371072, Note_on_c, 0, 66, 13
1, 371081, Control_c, 0, 64, 71
1, 371095, Control_c, 0, 64, 72
1, 371098, Note_on_c, 0, 45, 45
1, 371103, Note_off_c, 0, 78, 62
1, 371110, Control_c, 0, 64, 73
1, 371125, Control_c, 0, 64, 74
1, 371140, Control_c, 0, 64, 75
1, 371155, Control_c, 0, 64, 76
1, 371177, Control_c, 0, 64, 76
1, 371221, Control_c, 0, 64, 77
1, 371272, Note_on_c, 0, 74, 58
1, 371274, Note_on_c, 0, 50, 39
1, 371288, Note_off_c, 0, 69, 38
1, 371301, Note_off_c, 0, 66, 42
1, 371399, Control_c, 0, 64, 77
1, 371422, Note_on_c, 0, 54, 47
1, 371429, Note_off_c, 0, 50, 40
1, 371526, Note_on_c, 0, 69, 59
1, 371539, Note_off_c, 0, 45, 38
1, 371617, Note_off_c, 0, 74, 28
1, 371682, Note_off_c, 0, 54, 36
1, 371703, Note_on_c, 0, 50, 27
1, 371754, Note_off_c, 0, 50, 46
1, 371799, Note_on_c, 0, 62, 39
1, 371804, Note_on_c, 0, 66, 53
1, 371820, Note_on_c, 0, 45, 34
1, 371930, Note_off_c, 0, 45, 38
1, 371965, Note_on_c, 0, 37, 36
1, 371968, Note_off_c, 0, 66, 58
1, 371980, Note_off_c, 0, 69, 27
1, 372030, Control_c, 0, 64, 77
1, 372044, Control_c, 0, 64, 73
1, 372050, Note_on_c, 0, 65, 50
1, 372059, Control_c, 0, 64, 65
1, 372074, Control_c, 0, 64, 0
1, 372118, Control_c, 0, 64, 46
1, 372133, Control_c, 0, 64, 65
1, 372148, Control_c, 0, 64, 69
1, 372152, Note_off_c, 0, 37, 48
1, 372162, Control_c, 0, 64, 72
1, 372177, Control_c, 0, 64, 74
1, 372190, Note_off_c, 0, 65, 63
1, 372192, Control_c, 0, 64, 75
1, 372193, Note_on_c, 0, 45, 49
1, 372193, Note_off_c, 0, 62, 60
1, 372207, Control_c, 0, 64, 76
1, 372222, Control_c, 0, 64, 77
1, 372237, Control_c, 0, 64, 78
1, 372252, Control_c, 0, 64, 78
1, 372267, Control_c, 0, 64, 79
1, 372309, Note_on_c, 0, 66, 53
1, 372311, Control_c, 0, 64, 76
1, 372326, Note_on_c, 0, 50, 42
1, 372326, Control_c, 0, 64, 71
1, 372341, Control_c, 0, 64, 60
1, 372356, Control_c, 0, 64, 0
1, 372370, Control_c, 0, 64, 44
1, 372373, Poly_aftertouch_c, 0, 62, 127
1, 372386, Control_c, 0, 64, 63
1, 372401, Control_c, 0, 64, 69
1, 372416, Control_c, 0, 64, 73
1, 372431, Control_c, 0, 64, 75
1, 372445, Control_c, 0, 64, 76
1, 372454, Note_on_c, 0, 54, 35
1, 372460, Control_c, 0, 64, 76
1, 372475, Control_c, 0, 64, 77
1, 372488, Note_off_c, 0, 50, 31
1, 372505, Control_c, 0, 64, 78
1, 372568, Note_on_c, 0, 68, 58
1, 372578, Control_c, 0, 64, 78
1, 372655, Note_off_c, 0, 66, 0
1, 372674, Control_c, 0, 64, 79
1, 372699, Poly_aftertouch_c, 0, 66, 127
1, 372701, Note_off_c, 0, 45, 41
1, 372715, Note_on_c, 0, 50, 33
1, 372723, Note_off_c, 0, 68, 61
1, 372732, Poly_aftertouch_c, 0, 62, 0
1, 372734, Control_c, 0, 64, 79
1, 372737, Poly_aftertouch_c, 0, 66, 0
1, 372763, Note_off_c, 0, 54, 28
1, 372763, Control_c, 0, 64, 80
1, 372778, Control_c, 0, 64, 80
1, 372792, Control_c, 0, 64, 81
1, 372803, Note_off_c, 0, 50, 36
1, 372818, Note_on_c, 0, 69, 60
1, 372837, Control_c, 0, 64, 78
1, 372852, Control_c, 0, 64, 71
1, 372853, Note_on_c, 0, 66, 37
1, 372859, Note_on_c, 0, 45, 39
1, 372866, Control_c, 0, 64, 51
1, 372875, Note_on_c, 0, 62, 9
1, 372881, Control_c, 0, 64, 0
1, 372896, Control_c, 0, 64, 37
1, 372911, Control_c, 0, 64, 62
1, 372925, Control_c, 0, 64, 67
1, 372940, Note_off_c, 0, 45, 48
1, 372940, Control_c, 0, 64, 71
1, 372955, Control_c, 0, 64, 75
1, 372970, Control_c, 0, 64, 77
1, 372985, Control_c, 0, 64, 78
1, 373000, Control_c, 0, 64, 78
1, 373008, Note_on_c, 0, 37, 20
1, 373015, Control_c, 0, 64, 79
1, 373059, Control_c, 0, 64, 79
1, 373074, Note_on_c, 0, 71, 60
1, 373080, Note_off_c, 0, 69, 52
1, 373104, Control_c, 0, 64, 80
1, 373118, Control_c, 0, 64, 80
1, 373148, Control_c, 0, 64, 81
1, 373163, Control_c, 0, 64, 81
1, 373172, Note_off_c, 0, 37, 38
1, 373176, Note_off_c, 0, 62, 25
1, 373208, Control_c, 0, 64, 82
1, 373214, Note_off_c, 0, 66, 39
1, 373217, Note_off_c, 0, 71, 59
1, 373268, Control_c, 0, 64, 82
1, 373274, Note_on_c, 0, 45, 29
1, 373297, Control_c, 0, 64, 83
1, 373330, Note_on_c, 0, 73, 58
1, 373337, Note_on_c, 0, 62, 37
1, 373342, Control_c, 0, 64, 82
1, 373356, Control_c, 0, 64, 79
1, 373357, Note_on_c, 0, 66, 23
1, 373371, Control_c, 0, 64, 73
1, 373386, Control_c, 0, 64, 64
1, 373398, Note_on_c, 0, 50, 25
1, 373401, Control_c, 0, 64, 38
1, 373423, Control_c, 0, 64, 47
1, 373438, Control_c, 0, 64, 61
1, 373453, Control_c, 0, 64, 67
1, 373468, Control_c, 0, 64, 71
1, 373483, Control_c, 0, 64, 75
1, 373483, Note_off_c, 0, 62, 37
1, 373497, Control_c, 0, 64, 78
1, 373510, Note_on_c, 0, 54, 45
1, 373512, Control_c, 0, 64, 79
1, 373527, Control_c, 0, 64, 80
1, 373539, Note_off_c, 0, 73, 63
1, 373542, Control_c, 0, 64, 81
1, 373566, Note_off_c, 0, 66, 43
1, 373578, Note_on_c, 0, 74, 57
1, 373579, Note_off_c, 0, 50, 25
1, 373615, Control_c, 0, 64, 81
1, 373660, Control_c, 0, 64, 82
1, 373699, Note_off_c, 0, 45, 40
1, 373732, Note_off_c, 0, 74, 62
1, 373755, Note_on_c, 0, 50, 30
1, 373772, Note_off_c, 0, 54, 37
1, 373793, Control_c, 0, 64, 82
1, 373843, Note_off_c, 0, 50, 45
1, 373844, Note_on_c, 0, 76, 62
1, 373889, Note_on_c, 0, 45, 36
1, 373987, Note_off_c, 0, 76, 61
1, 373993, Note_off_c, 0, 45, 52
1, 374041, Note_on_c, 0, 37, 32
1, 374091, Control_c, 0, 64, 80
1, 374106, Control_c, 0, 64, 74
1, 374108, Note_on_c, 0, 77, 63
1, 374121, Control_c, 0, 64, 64
1, 374136, Control_c, 0, 64, 0
1, 374172, Control_c, 0, 64, 38
1, 374187, Control_c, 0, 64, 64
1, 374202, Control_c, 0, 64, 71
1, 374211, Note_off_c, 0, 37, 44
1, 374217, Control_c, 0, 64, 78
1, 374232, Control_c, 0, 64, 81
1, 374246, Control_c, 0, 64, 83
1, 374261, Control_c, 0, 64, 84
1, 374267, Note_on_c, 0, 45, 42
1, 374276, Control_c, 0, 64, 85
1, 374281, Note_off_c, 0, 77, 58
1, 374291, Control_c, 0, 64, 87
1, 374306, Control_c, 0, 64, 89
1, 374320, Control_c, 0, 64, 90
1, 374380, Control_c, 0, 64, 88
1, 374380, Note_on_c, 0, 78, 66
1, 374395, Control_c, 0, 64, 83
1, 374396, Note_on_c, 0, 50, 43
1, 374410, Control_c, 0, 64, 75
1, 374425, Control_c, 0, 64, 68
1, 374439, Control_c, 0, 64, 66
1, 374454, Control_c, 0, 64, 69
1, 374469, Control_c, 0, 64, 74
1, 374484, Control_c, 0, 64, 80
1, 374499, Control_c, 0, 64, 85
1, 374513, Control_c, 0, 64, 86
1, 374520, Note_off_c, 0, 50, 0
1, 374521, Note_on_c, 0, 54, 47
1, 374528, Control_c, 0, 64, 87
1, 374543, Control_c, 0, 64, 87
1, 374552, Note_off_c, 0, 78, 59
1, 374587, Control_c, 0, 64, 87
1, 374602, Control_c, 0, 64, 83
1, 374617, Control_c, 0, 64, 75
1, 374620, Poly_aftertouch_c, 0, 50, 0
1, 374632, Control_c, 0, 64, 66
1, 374646, Control_c, 0, 64, 57
1, 374652, Note_on_c, 0, 79, 61
1, 374661, Control_c, 0, 64, 62
1, 374676, Control_c, 0, 64, 67
1, 374687, Note_off_c, 0, 45, 39
1, 374691, Control_c, 0, 64, 73
1, 374706, Control_c, 0, 64, 78
1, 374720, Control_c, 0, 64, 81
1, 374735, Control_c, 0, 64, 82
1, 374750, Control_c, 0, 64, 83
1, 374765, Control_c, 0, 64, 84
1, 374780, Control_c, 0, 64, 84
1, 374795, Control_c, 0, 64, 85
1, 374799, Note_on_c, 0, 50, 32
1, 374804, Note_off_c, 0, 54, 34
1, 374810, Control_c, 0, 64, 85
1, 374812, Note_off_c, 0, 79, 52
1, 374825, Control_c, 0, 64, 86
1, 374840, Control_c, 0, 64, 87
1, 374854, Control_c, 0, 64, 88
1, 374899, Control_c, 0, 64, 87
1, 374917, Note_off_c, 0, 50, 36
1, 374922, Control_c, 0, 64, 83
1, 374936, Control_c, 0, 64, 77
1, 374944, Note_on_c, 0, 45, 40
1, 374951, Control_c, 0, 64, 68
1, 374958, Note_on_c, 0, 80, 61
1, 374966, Control_c, 0, 64, 60
1, 374981, Control_c, 0, 64, 61
1, 374995, Control_c, 0, 64, 64
1, 375010, Control_c, 0, 64, 66
1, 375025, Control_c, 0, 64, 67
1, 375040, Control_c, 0, 64, 69
1, 375042, Note_off_c, 0, 45, 50
1, 375055, Control_c, 0, 64, 71
1, 375069, Control_c, 0, 64, 73
1, 375084, Control_c, 0, 64, 76
1, 375099, Control_c, 0, 64, 78
1, 375101, Note_on_c, 0, 37, 40
1, 375113, Note_off_c, 0, 80, 56
1, 375114, Control_c, 0, 64, 79
1, 375129, Control_c, 0, 64, 80
1, 375143, Control_c, 0, 64, 82
1, 375158, Control_c, 0, 64, 84
1, 375173, Control_c, 0, 64, 86
1, 375188, Control_c, 0, 64, 88
1, 375203, Control_c, 0, 64, 89
1, 375218, Control_c, 0, 64, 90
1, 375233, Control_c, 0, 64, 90
1, 375247, Control_c, 0, 64, 91
1, 375321, Control_c, 0, 64, 91
1, 375374, Note_on_c, 0, 81, 59
1, 375379, Note_on_c, 0, 69, 43
1, 375401, Note_on_c, 0, 72, 46
1, 375410, Control_c, 0, 64, 89
1, 375425, Control_c, 0, 64, 84
1, 375440, Control_c, 0, 64, 75
1, 375455, Control_c, 0, 64, 61
1, 375469, Control_c, 0, 64, 0
1, 375513, Control_c, 0, 64, 10
1, 375528, Control_c, 0, 64, 62
1, 375543, Control_c, 0, 64, 68
1, 375558, Control_c, 0, 64, 72
1, 375567, Note_off_c, 0, 37, 39
1, 375573, Control_c, 0, 64, 76
1, 375589, Control_c, 0, 64, 81
1, 375604, Control_c, 0, 64, 85
1, 375618, Control_c, 0, 64, 89
1, 375633, Control_c, 0, 64, 93
1, 375648, Control_c, 0, 64, 94
1, 375649, Note_on_c, 0, 45, 37
1, 375669, Note_off_c, 0, 81, 55
1, 375671, Control_c, 0, 64, 95
1, 375685, Control_c, 0, 64, 96
1, 375715, Control_c, 0, 64, 96
1, 375715, Control_c, 0, 67, 9
1, 375730, Control_c, 0, 67, 10
1, 375760, Control_c, 0, 67, 11
1, 375830, Note_on_c, 0, 78, 54
1, 375843, Note_on_c, 0, 48, 44
1, 375848, Control_c, 0, 67, 11
1, 375860, Note_off_c, 0, 45, 39
1, 375878, Control_c, 0, 67, 12
1, 375892, Control_c, 0, 67, 14
1, 375907, Control_c, 0, 67, 18
1, 375922, Control_c, 0, 67, 24
1, 375936, Control_c, 0, 67, 30
1, 375951, Control_c, 0, 67, 37
1, 375966, Control_c, 0, 67, 42
1, 375981, Control_c, 0, 67, 48
1, 375996, Control_c, 0, 67, 53
1, 376008, Note_on_c, 0, 54, 35
1, 376011, Control_c, 0, 67, 57
1, 376020, Note_off_c, 0, 48, 43
1, 376025, Control_c, 0, 67, 62
1, 376040, Control_c, 0, 67, 66
1, 376055, Control_c, 0, 67, 70
1, 376070, Control_c, 0, 67, 74
1, 376085, Control_c, 0, 67, 76
1, 376100, Control_c, 0, 67, 77
1, 376112, Note_off_c, 0, 69, 33
1, 376115, Control_c, 0, 64, 97
1, 376115, Control_c, 0, 67, 78
1, 376129, Control_c, 0, 67, 79
1, 376144, Control_c, 0, 67, 80
1, 376159, Control_c, 0, 67, 81
1, 376169, Note_on_c, 0, 75, 59
1, 376174, Control_c, 0, 67, 82
1, 376181, Note_off_c, 0, 78, 60
1, 376189, Control_c, 0, 67, 84
1, 376203, Control_c, 0, 67, 85
1, 376218, Control_c, 0, 67, 88
1, 376233, Control_c, 0, 67, 90
1, 376248, Control_c, 0, 67, 92
1, 376262, Control_c, 0, 67, 95
1, 376266, Note_off_c, 0, 72, 41
1, 376276, Control_c, 0, 67, 97
1, 376284, Note_off_c, 0, 75, 61
1, 376291, Control_c, 0, 67, 100
1, 376306, Control_c, 0, 67, 102
1, 376314, Note_on_c, 0, 48, 36
1, 376317, Note_off_c, 0, 54, 35
1, 376321, Control_c, 0, 67, 104
1, 376336, Control_c, 0, 67, 105
1, 376350, Control_c, 0, 67, 106
1, 376365, Control_c, 0, 67, 106
1, 376381, Control_c, 0, 67, 107
1, 376396, Control_c, 0, 67, 108
1, 376419, Control_c, 0, 67, 109
1, 376434, Control_c, 0, 67, 110
1, 376448, Control_c, 0, 67, 110
1, 376466, Note_on_c, 0, 72, 54
1, 376467, Note_on_c, 0, 45, 39
1, 376467, Note_off_c, 0, 48, 34
1, 376478, Control_c, 0, 67, 111
1, 376481, Note_on_c, 0, 63, 28
1, 376486, Note_on_c, 0, 66, 37
1, 376552, Control_c, 0, 67, 111
1, 376620, Note_off_c, 0, 45, 45
1, 376631, Note_on_c, 0, 37, 40
1, 376634, Note_off_c, 0, 63, 40
1, 376634, Note_off_c, 0, 66, 43
1, 376714, Control_c, 0, 64, 96
1, 376729, Control_c, 0, 64, 89
1, 376739, Note_on_c, 0, 71, 60
1, 376744, Control_c, 0, 64, 77
1, 376752, Note_on_c, 0, 66, 40
1, 376759, Control_c, 0, 64, 62
1, 376769, Note_on_c, 0, 63, 31
1, 376774, Control_c, 0, 64, 0
1, 376791, Note_off_c, 0, 72, 34
1, 376804, Control_c, 0, 64, 50
1, 376818, Control_c, 0, 64, 65
1, 376833, Control_c, 0, 64, 69
1, 376836, Note_off_c, 0, 37, 44
1, 376848, Control_c, 0, 64, 72
1, 376863, Control_c, 0, 64, 74
1, 376878, Control_c, 0, 64, 76
1, 376884, Note_off_c, 0, 66, 42
1, 376886, Note_off_c, 0, 63, 41
1, 376890, Note_on_c, 0, 45, 41
1, 376893, Control_c, 0, 64, 79
1, 376893, Control_c, 0, 67, 111
1, 376907, Control_c, 0, 64, 81
1, 376922, Control_c, 0, 64, 82
1, 376937, Control_c, 0, 64, 82
1, 376951, Control_c, 0, 64, 83
1, 376981, Control_c, 0, 64, 83
1, 377002, Note_off_c, 0, 71, 55
1, 377011, Control_c, 0, 64, 84
1, 377012, Note_on_c, 0, 72, 56
1, 377013, Note_on_c, 0, 66, 36
1, 377031, Note_on_c, 0, 63, 31
1, 377036, Note_on_c, 0, 48, 44
1, 377077, Note_off_c, 0, 63, 46
1, 377085, Control_c, 0, 64, 84
1, 377088, Note_off_c, 0, 66, 41
1, 377096, Note_off_c, 0, 45, 31
1, 377137, Note_off_c, 0, 72, 59
1, 377194, Note_on_c, 0, 54, 41
1, 377257, Control_c, 0, 64, 83
1, 377263, Note_off_c, 0, 48, 37
1, 377271, Control_c, 0, 64, 76
1, 377283, Note_on_c, 0, 74, 59
1, 377286, Control_c, 0, 64, 65
1, 377301, Control_c, 0, 64, 0
1, 377305, Note_on_c, 0, 69, 41
1, 377308, Note_on_c, 0, 66, 35
1, 377345, Control_c, 0, 64, 58
1, 377360, Control_c, 0, 64, 66
1, 377375, Control_c, 0, 64, 71
1, 377389, Control_c, 0, 64, 74
1, 377404, Control_c, 0, 64, 76
1, 377419, Control_c, 0, 64, 77
1, 377441, Note_on_c, 0, 48, 40
1, 377449, Control_c, 0, 64, 78
1, 377464, Note_off_c, 0, 54, 34
1, 377472, Note_off_c, 0, 69, 59
1, 377474, Note_off_c, 0, 66, 43
1, 377478, Control_c, 0, 64, 78
1, 377493, Control_c, 0, 64, 79
1, 377508, Control_c, 0, 64, 79
1, 377523, Control_c, 0, 64, 80
1, 377537, Control_c, 0, 64, 80
1, 377567, Control_c, 0, 64, 81
1, 377605, Note_on_c, 0, 75, 56
1, 377608, Note_on_c, 0, 66, 35
1, 377610, Note_on_c, 0, 45, 44
1, 377611, Note_off_c, 0, 48, 48
1, 377611, Control_c, 0, 64, 81
1, 377613, Note_on_c, 0, 69, 33
1, 377641, Control_c, 0, 64, 82
1, 377653, Note_off_c, 0, 69, 49
1, 377656, Control_c, 0, 64, 82
1, 377656, Control_c, 0, 67, 111
1, 377674, Note_off_c, 0, 74, 37
1, 377686, Control_c, 0, 64, 83
1, 377704, Note_off_c, 0, 75, 64
1, 377714, Note_off_c, 0, 66, 43
1, 377781, Note_off_c, 0, 45, 44
1, 377800, Note_on_c, 0, 37, 37
1, 377863, Control_c, 0, 64, 82
1, 377878, Control_c, 0, 64, 79
1, 377893, Control_c, 0, 64, 71
1, 377893, Control_c, 0, 67, 112
1, 377915, Note_on_c, 0, 77, 40
1, 377915, Control_c, 0, 64, 46
1, 377927, Note_on_c, 0, 72, 40
1, 377930, Control_c, 0, 64, 0
1, 377938, Note_on_c, 0, 69, 38
1, 377960, Control_c, 0, 67, 112
1, 378005, Control_c, 0, 64, 47
1, 378020, Control_c, 0, 64, 65
1, 378035, Control_c, 0, 64, 69
1, 378041, Note_off_c, 0, 37, 42
1, 378050, Control_c, 0, 64, 72
1, 378064, Control_c, 0, 64, 73
1, 378079, Control_c, 0, 64, 75
1, 378094, Note_off_c, 0, 69, 36
1, 378094, Control_c, 0, 64, 77
1, 378107, Note_off_c, 0, 72, 35
1, 378109, Control_c, 0, 64, 79
1, 378109, Note_on_c, 0, 45, 42
1, 378124, Control_c, 0, 64, 80
1, 378139, Control_c, 0, 64, 81
1, 378153, Control_c, 0, 64, 82
1, 378168, Control_c, 0, 64, 82
1, 378198, Control_c, 0, 64, 83
1, 378218, Note_on_c, 0, 69, 38
1, 378218, Note_on_c, 0, 78, 59
1, 378220, Note_on_c, 0, 72, 30
1, 378227, Control_c, 0, 64, 83
1, 378237, Note_on_c, 0, 48, 44
1, 378242, Control_c, 0, 64, 84
1, 378250, Note_off_c, 0, 45, 33
1, 378257, Control_c, 0, 64, 84
1, 378273, Note_off_c, 0, 77, 35
1, 378301, Control_c, 0, 64, 85
1, 378316, Control_c, 0, 64, 85
1, 378330, Control_c, 0, 64, 86
1, 378338, Note_off_c, 0, 69, 42
1, 378354, Note_off_c, 0, 72, 42
1, 378360, Control_c, 0, 64, 86
1, 378395, Note_on_c, 0, 54, 40
1, 378395, Note_off_c, 0, 78, 52
1, 378457, Note_off_c, 0, 48, 33
1, 378494, Control_c, 0, 64, 87
1, 378535, Note_on_c, 0, 80, 59
1, 378555, Note_on_c, 0, 72, 38
1, 378571, Note_on_c, 0, 75, 35
1, 378574, Note_off_c, 0, 80, 0
1, 378574, Note_on_c, 0, 80, 20
1, 378712, Note_off_c, 0, 54, 38
1, 378724, Note_on_c, 0, 48, 35
1, 378758, Note_off_c, 0, 72, 39
1, 378759, Note_off_c, 0, 75, 40
1, 378858, Note_off_c, 0, 80, 47
1, 378872, Note_on_c, 0, 81, 63
1, 378873, Note_off_c, 0, 48, 44
1, 378886, Note_on_c, 0, 45, 36
1, 378903, Note_on_c, 0, 72, 24
1, 378939, Note_on_c, 0, 75, 11
1, 378982, Note_off_c, 0, 72, 39
1, 378983, Note_off_c, 0, 75, 52
1, 378995, Note_off_c, 0, 81, 60
1, 379045, Note_off_c, 0, 45, 36
1, 379056, Note_on_c, 0, 37, 40
1, 379197, Control_c, 0, 64, 86
1, 379211, Note_on_c, 0, 83, 59
1, 379212, Control_c, 0, 64, 81
1, 379227, Control_c, 0, 64, 71
1, 379241, Note_on_c, 0, 78, 39
1, 379242, Control_c, 0, 64, 33
1, 379254, Note_on_c, 0, 75, 18
1, 379257, Control_c, 0, 64, 0
1, 379331, Control_c, 0, 64, 60
1, 379343, Note_off_c, 0, 37, 42
1, 379346, Control_c, 0, 64, 66
1, 379360, Control_c, 0, 64, 67
1, 379375, Control_c, 0, 64, 68
1, 379390, Control_c, 0, 64, 69
1, 379404, Note_on_c, 0, 45, 37
1, 379409, Note_off_c, 0, 75, 42
1, 379412, Control_c, 0, 64, 70
1, 379422, Note_off_c, 0, 78, 38
1, 379427, Control_c, 0, 64, 72
1, 379442, Control_c, 0, 64, 75
1, 379457, Control_c, 0, 64, 77
1, 379471, Control_c, 0, 64, 79
1, 379486, Control_c, 0, 64, 80
1, 379501, Control_c, 0, 64, 81
1, 379516, Control_c, 0, 64, 81
1, 379546, Control_c, 0, 64, 82
1, 379560, Control_c, 0, 64, 82
1, 379582, Note_on_c, 0, 48, 46
1, 379590, Note_on_c, 0, 84, 64
1, 379606, Control_c, 0, 64, 83
1, 379613, Note_on_c, 0, 75, 35
1, 379617, Note_on_c, 0, 78, 35
1, 379626, Note_off_c, 0, 83, 37
1, 379650, Control_c, 0, 64, 83
1, 379662, Note_off_c, 0, 78, 45
1, 379668, Note_off_c, 0, 45, 40
1, 379743, Note_off_c, 0, 75, 39
1, 379769, Control_c, 0, 64, 84
1, 379805, Note_on_c, 0, 54, 43
1, 379818, Note_off_c, 0, 84, 57
1, 379902, Control_c, 0, 64, 84
1, 379921, Note_off_c, 0, 48, 23
1, 379998, Note_on_c, 0, 86, 65
1, 380005, Control_c, 0, 64, 82
1, 380012, Note_on_c, 0, 78, 48
1, 380020, Control_c, 0, 64, 77
1, 380035, Control_c, 0, 64, 68
1, 380038, Note_on_c, 0, 81, 41
1, 380050, Control_c, 0, 64, 43
1, 380065, Control_c, 0, 64, 23
1, 380080, Control_c, 0, 64, 49
1, 380094, Control_c, 0, 64, 63
1, 380109, Control_c, 0, 64, 67
1, 380124, Control_c, 0, 64, 71
1, 380139, Control_c, 0, 64, 75
1, 380161, Control_c, 0, 64, 77
1, 380176, Control_c, 0, 64, 78
1, 380190, Control_c, 0, 64, 78
1, 380205, Control_c, 0, 64, 79
1, 380220, Control_c, 0, 64, 80
1, 380235, Control_c, 0, 64, 80
1, 380250, Control_c, 0, 64, 81
1, 380259, Note_on_c, 0, 48, 39
1, 380264, Control_c, 0, 64, 81
1, 380266, Note_off_c, 0, 54, 34
1, 380285, Note_off_c, 0, 78, 33
1, 380294, Control_c, 0, 64, 82
1, 380302, Note_off_c, 0, 81, 30
1, 380324, Control_c, 0, 64, 82
1, 380354, Control_c, 0, 64, 83
1, 380540, Note_on_c, 0, 87, 59
1, 380559, Note_on_c, 0, 78, 36
1, 380575, Note_on_c, 0, 81, 36
1, 380575, Note_off_c, 0, 48, 45
1, 380579, Note_on_c, 0, 45, 36
1, 380592, Control_c, 0, 64, 82
1, 380606, Control_c, 0, 64, 81
1, 380621, Control_c, 0, 64, 81
1, 380691, Note_off_c, 0, 45, 54
1, 380738, Note_off_c, 0, 86, 32
1, 380739, Control_c, 0, 64, 81
1, 380888, Control_c, 0, 64, 82
1, 380927, Note_on_c, 0, 37, 40
1, 381029, Note_off_c, 0, 81, 35
1, 381036, Note_off_c, 0, 37, 38
1, 381044, Control_c, 0, 64, 82
1, 381237, Control_c, 0, 64, 81
1, 381251, Note_on_c, 0, 37, 32
1, 381252, Control_c, 0, 64, 77
1, 381267, Control_c, 0, 64, 68
1, 381282, Control_c, 0, 64, 36
1, 381296, Control_c, 0, 64, 0
1, 381320, Note_off_c, 0, 37, 57
1, 381326, Control_c, 0, 64, 58
1, 381341, Control_c, 0, 64, 67
1, 381349, Note_off_c, 0, 78, 27
1, 381355, Control_c, 0, 64, 71
1, 381370, Control_c, 0, 64, 75
1, 381379, Note_on_c, 0, 44, 31
1, 381385, Control_c, 0, 64, 78
1, 381400, Control_c, 0, 64, 79
1, 381415, Control_c, 0, 64, 80
1, 381430, Control_c, 0, 64, 80
1, 381460, Control_c, 0, 64, 81
1, 381460, Control_c, 0, 67, 112
1, 381475, Control_c, 0, 64, 81
1, 381489, Control_c, 0, 64, 82
1, 381501, Note_on_c, 0, 53, 39
1, 381504, Control_c, 0, 64, 82
1, 381519, Control_c, 0, 64, 83
1, 381534, Control_c, 0, 64, 83
1, 381548, Control_c, 0, 64, 84
1, 381552, Note_off_c, 0, 87, 31
1, 381563, Control_c, 0, 64, 84
1, 381580, Note_on_c, 0, 77, 41
1, 381593, Control_c, 0, 64, 85
1, 381608, Control_c, 0, 64, 85
1, 381627, Note_off_c, 0, 77, 44
1, 381637, Control_c, 0, 64, 86
1, 381654, Note_on_c, 0, 80, 49
1, 381674, Note_off_c, 0, 44, 31
1, 381674, Control_c, 0, 64, 86
1, 381689, Control_c, 0, 64, 87
1, 381704, Control_c, 0, 64, 87
1, 381719, Control_c, 0, 64, 88
1, 381727, Note_on_c, 0, 89, 60
1, 381748, Control_c, 0, 64, 88
1, 381749, Note_off_c, 0, 80, 33
1, 381778, Control_c, 0, 64, 89
1, 381808, Control_c, 0, 64, 89
1, 381822, Control_c, 0, 64, 90
1, 381867, Control_c, 0, 64, 90
1, 381941, Control_c, 0, 64, 91
1, 381943, Note_off_c, 0, 89, 36
1, 381971, Control_c, 0, 64, 91
1, 381986, Note_off_c, 0, 53, 29
1, 382075, Control_c, 0, 64, 92
1, 382115, Note_on_c, 0, 41, 30
1, 382169, Note_off_c, 0, 41, 47
1, 382205, Note_on_c, 0, 49, 40
1, 382223, Control_c, 0, 64, 92
1, 382287, Note_on_c, 0, 56, 42
1, 382343, Note_on_c, 0, 73, 36
1, 382390, Note_off_c, 0, 73, 44
1, 382402, Note_on_c, 0, 77, 45
1, 382411, Note_off_c, 0, 49, 21
1, 382465, Note_on_c, 0, 85, 53
1, 382478, Note_off_c, 0, 56, 33
1, 382522, Note_off_c, 0, 77, 40
1, 382712, Note_off_c, 0, 85, 53
1, 382795, Note_on_c, 0, 44, 32
1, 382853, Note_off_c, 0, 44, 44
1, 382914, Note_on_c, 0, 53, 36
1, 383001, Control_c, 0, 64, 93
1, 383016, Note_on_c, 0, 61, 46
1, 383084, Note_on_c, 0, 68, 41
1, 383105, Note_off_c, 0, 53, 37
1, 383149, Note_on_c, 0, 73, 52
1, 383151, Note_off_c, 0, 68, 47
1, 383210, Note_on_c, 0, 80, 53
1, 383210, Note_off_c, 0, 61, 22
1, 383294, Note_off_c, 0, 73, 35
1, 383364, Control_c, 0, 67, 111
1, 383433, Note_off_c, 0, 80, 57
1, 383588, Note_on_c, 0, 49, 22
1, 383598, Note_on_c, 0, 56, 46
1, 383692, Note_on_c, 0, 61, 39
1, 383747, Note_on_c, 0, 65, 41
1, 383788, Note_on_c, 0, 68, 53
1, 383794, Note_off_c, 0, 65, 57
1, 383854, Note_on_c, 0, 77, 62
1, 383914, Note_off_c, 0, 49, 35
1, 383919, Note_off_c, 0, 61, 25
1, 383931, Note_off_c, 0, 68, 36
1, 383941, Note_off_c, 0, 56, 10
1, 384039, Control_c, 0, 67, 111
1, 384144, Note_off_c, 0, 77, 35
1, 384401, Note_on_c, 0, 49, 28
1, 384443, Note_on_c, 0, 55, 41
1, 384518, Note_on_c, 0, 61, 41
1, 384524, Note_on_c, 0, 64, 40
1, 384559, Control_c, 0, 64, 91
1, 384573, Control_c, 0, 64, 88
1, 384586, Note_on_c, 0, 67, 52
1, 384588, Control_c, 0, 64, 80
1, 384603, Control_c, 0, 64, 67
1, 384618, Control_c, 0, 64, 0
1, 384634, Note_on_c, 0, 76, 55
1, 384685, Control_c, 0, 64, 48
1, 384699, Control_c, 0, 64, 65
1, 384714, Control_c, 0, 64, 69
1, 384729, Control_c, 0, 64, 71
1, 384744, Control_c, 0, 64, 73
1, 384759, Control_c, 0, 64, 74
1, 384773, Control_c, 0, 64, 76
1, 384788, Control_c, 0, 64, 78
1, 384803, Control_c, 0, 64, 80
1, 384818, Control_c, 0, 64, 82
1, 384833, Control_c, 0, 64, 84
1, 384847, Control_c, 0, 64, 84
1, 384853, Note_off_c, 0, 67, 37
1, 384860, Note_off_c, 0, 55, 38
1, 384862, Control_c, 0, 64, 85
1, 384863, Note_off_c, 0, 49, 39
1, 384877, Control_c, 0, 64, 85
1, 384892, Control_c, 0, 64, 86
1, 384921, Control_c, 0, 64, 86
1, 384989, Note_off_c, 0, 64, 7
1, 385044, Note_off_c, 0, 61, 38
1, 385064, Note_off_c, 0, 76, 37
1, 385067, Note_on_c, 0, 49, 35
1, 385123, Note_on_c, 0, 56, 43
1, 385174, Control_c, 0, 64, 85
1, 385189, Control_c, 0, 64, 81
1, 385190, Note_on_c, 0, 61, 33
1, 385204, Control_c, 0, 64, 74
1, 385219, Control_c, 0, 64, 62
1, 385223, Note_on_c, 0, 65, 39
1, 385234, Control_c, 0, 64, 0
1, 385263, Control_c, 0, 64, 26
1, 385272, Note_on_c, 0, 68, 50
1, 385278, Control_c, 0, 64, 59
1, 385290, Note_on_c, 0, 77, 62
1, 385293, Control_c, 0, 64, 65
1, 385308, Control_c, 0, 64, 69
1, 385322, Control_c, 0, 64, 71
1, 385337, Control_c, 0, 64, 73
1, 385352, Control_c, 0, 64, 75
1, 385367, Control_c, 0, 64, 76
1, 385382, Control_c, 0, 64, 77
1, 385403, Control_c, 0, 64, 78
1, 385418, Control_c, 0, 64, 80
1, 385433, Control_c, 0, 64, 81
1, 385448, Control_c, 0, 64, 82
1, 385456, Note_off_c, 0, 65, 38
1, 385463, Control_c, 0, 64, 82
1, 385477, Note_off_c, 0, 56, 30
1, 385478, Control_c, 0, 64, 83
1, 385483, Note_off_c, 0, 49, 38
1, 385493, Control_c, 0, 64, 84
1, 385508, Control_c, 0, 64, 84
1, 385522, Control_c, 0, 64, 85
1, 385537, Control_c, 0, 64, 85
1, 385557, Note_off_c, 0, 68, 57
1, 385582, Control_c, 0, 64, 86
1, 385692, Note_off_c, 0, 77, 34
1, 385719, Note_on_c, 0, 49, 42
1, 385719, Note_off_c, 0, 61, 40
1, 385789, Note_on_c, 0, 58, 34
1, 385857, Note_on_c, 0, 61, 36
1, 385875, Note_on_c, 0, 66, 43
1, 385877, Control_c, 0, 64, 83
1, 385892, Control_c, 0, 64, 76
1, 385904, Note_on_c, 0, 70, 50
1, 385907, Control_c, 0, 64, 65
1, 385922, Control_c, 0, 64, 0
1, 385967, Note_on_c, 0, 78, 63
1, 385967, Control_c, 0, 64, 52
1, 385982, Control_c, 0, 64, 65
1, 385997, Control_c, 0, 64, 69
1, 386012, Control_c, 0, 64, 73
1, 386026, Control_c, 0, 64, 75
1, 386041, Control_c, 0, 64, 76
1, 386056, Note_off_c, 0, 70, 61
1, 386056, Control_c, 0, 64, 77
1, 386071, Control_c, 0, 64, 78
1, 386086, Control_c, 0, 64, 79
1, 386101, Control_c, 0, 64, 80
1, 386116, Control_c, 0, 64, 81
1, 386131, Control_c, 0, 64, 82
1, 386152, Control_c, 0, 64, 82
1, 386167, Control_c, 0, 64, 83
1, 386181, Note_off_c, 0, 49, 38
1, 386182, Control_c, 0, 64, 83
1, 386197, Control_c, 0, 64, 84
1, 386271, Control_c, 0, 64, 84
1, 386316, Control_c, 0, 67, 111
1, 386343, Note_off_c, 0, 66, 41
1, 386352, Note_off_c, 0, 58, 39
1, 386372, Note_off_c, 0, 61, 48
1, 386384, Note_on_c, 0, 49, 39
1, 386479, Note_on_c, 0, 57, 45
1, 386563, Note_on_c, 0, 64, 42
1, 386582, Control_c, 0, 64, 84
1, 386588, Note_on_c, 0, 67, 45
1, 386597, Control_c, 0, 64, 81
1, 386612, Control_c, 0, 64, 74
1, 386616, Note_off_c, 0, 78, 62
1, 386626, Control_c, 0, 64, 63
1, 386641, Control_c, 0, 64, 0
1, 386645, Note_on_c, 0, 73, 51
1, 386675, Note_off_c, 0, 67, 32
1, 386700, Control_c, 0, 64, 56
1, 386712, Note_on_c, 0, 79, 63
1, 386715, Control_c, 0, 64, 66
1, 386730, Control_c, 0, 64, 70
1, 386744, Control_c, 0, 64, 74
1, 386759, Control_c, 0, 64, 76
1, 386775, Control_c, 0, 64, 77
1, 386790, Control_c, 0, 64, 79
1, 386793, Note_off_c, 0, 49, 34
1, 386804, Control_c, 0, 64, 80
1, 386819, Control_c, 0, 64, 81
1, 386834, Control_c, 0, 64, 82
1, 386849, Control_c, 0, 64, 82
1, 386864, Control_c, 0, 64, 83
1, 386879, Control_c, 0, 64, 84
1, 386901, Note_off_c, 0, 73, 36
1, 386901, Control_c, 0, 64, 84
1, 386915, Control_c, 0, 64, 85
1, 386923, Note_off_c, 0, 64, 33
1, 386930, Control_c, 0, 64, 85
1, 386989, Control_c, 0, 64, 86
1, 387019, Note_off_c, 0, 79, 45
1, 387023, Note_off_c, 0, 57, 33
1, 387049, Control_c, 0, 64, 86
1, 387094, Note_on_c, 0, 49, 36
1, 387140, Note_off_c, 0, 49, 45
1, 387195, Note_on_c, 0, 56, 36
1, 387274, Note_on_c, 0, 65, 43
1, 387300, Control_c, 0, 67, 112
1, 387336, Note_on_c, 0, 68, 46
1, 387374, Control_c, 0, 64, 85
1, 387389, Note_on_c, 0, 73, 57
1, 387389, Control_c, 0, 64, 79
1, 387404, Control_c, 0, 64, 69
1, 387419, Control_c, 0, 64, 37
1, 387434, Control_c, 0, 64, 0
1, 387436, Note_off_c, 0, 68, 38
1, 387448, Control_c, 0, 64, 48
1, 387451, Note_on_c, 0, 80, 69
1, 387463, Control_c, 0, 64, 64
1, 387478, Control_c, 0, 64, 70
1, 387493, Control_c, 0, 64, 75
1, 387508, Control_c, 0, 64, 79
1, 387523, Control_c, 0, 64, 79
1, 387538, Control_c, 0, 64, 80
1, 387546, Note_off_c, 0, 65, 41
1, 387548, Note_off_c, 0, 73, 31
1, 387553, Control_c, 0, 64, 80
1, 387569, Control_c, 0, 64, 81
1, 387584, Control_c, 0, 64, 82
1, 387598, Control_c, 0, 64, 83
1, 387613, Control_c, 0, 64, 84
1, 387628, Control_c, 0, 64, 84
1, 387674, Note_off_c, 0, 56, 38
1, 387680, Control_c, 0, 64, 85
1, 387845, Note_on_c, 0, 49, 15
1, 387881, Note_on_c, 0, 55, 33
1, 387914, Note_on_c, 0, 58, 37
1, 387935, Note_off_c, 0, 49, 0
1, 387961, Note_on_c, 0, 64, 38
1, 387973, Poly_aftertouch_c, 0, 49, 127
1, 387975, Note_off_c, 0, 58, 0
1, 388012, Poly_aftertouch_c, 0, 58, 127
1, 388015, Note_off_c, 0, 80, 36
1, 388017, Note_on_c, 0, 67, 49
1, 388080, Control_c, 0, 64, 84
1, 388082, Note_on_c, 0, 73, 45
1, 388086, Note_off_c, 0, 67, 41
1, 388095, Control_c, 0, 64, 79
1, 388109, Control_c, 0, 64, 70
1, 388111, Note_on_c, 0, 76, 60
1, 388124, Control_c, 0, 64, 56
1, 388139, Control_c, 0, 64, 45
1, 388154, Control_c, 0, 64, 59
1, 388169, Control_c, 0, 64, 65
1, 388179, Note_on_c, 0, 82, 71
1, 388184, Control_c, 0, 64, 71
1, 388197, Poly_aftertouch_c, 0, 49, 0
1, 388198, Control_c, 0, 64, 77
1, 388213, Control_c, 0, 64, 81
1, 388218, Note_off_c, 0, 73, 34
1, 388228, Control_c, 0, 64, 82
1, 388228, Control_c, 0, 67, 112
1, 388234, Note_off_c, 0, 76, 53
1, 388243, Control_c, 0, 64, 83
1, 388257, Control_c, 0, 64, 84
1, 388272, Control_c, 0, 64, 86
1, 388287, Control_c, 0, 64, 88
1, 388302, Control_c, 0, 64, 89
1, 388310, Poly_aftertouch_c, 0, 58, 0
1, 388313, Note_off_c, 0, 64, 40
1, 388316, Control_c, 0, 64, 90
1, 388331, Control_c, 0, 64, 91
1, 388346, Control_c, 0, 64, 93
1, 388362, Control_c, 0, 64, 94
1, 388377, Control_c, 0, 64, 95
1, 388399, Control_c, 0, 64, 96
1, 388414, Control_c, 0, 64, 97
1, 388429, Control_c, 0, 64, 98
1, 388444, Control_c, 0, 64, 100
1, 388444, Note_off_c, 0, 55, 43
1, 388459, Control_c, 0, 64, 101
1, 388474, Control_c, 0, 64, 102
1, 388489, Control_c, 0, 64, 103
1, 388518, Control_c, 0, 64, 104
1, 388520, Note_on_c, 0, 49, 32
1, 388533, Control_c, 0, 64, 104
1, 388547, Control_c, 0, 64, 105
1, 388608, Note_on_c, 0, 54, 35
1, 388621, Control_c, 0, 64, 105
1, 388635, Note_off_c, 0, 82, 54
1, 388636, Control_c, 0, 67, 113
1, 388637, Note_on_c, 0, 57, 44
1, 388666, Control_c, 0, 64, 106
1, 388681, Control_c, 0, 64, 106
1, 388685, Note_on_c, 0, 63, 43
1, 388757, Note_on_c, 0, 69, 44
1, 388792, Note_on_c, 0, 75, 52
1, 388795, Note_off_c, 0, 69, 50
1, 388843, Control_c, 0, 67, 114
1, 388846, Note_on_c, 0, 78, 58
1, 388858, Control_c, 0, 67, 115
1, 388873, Control_c, 0, 67, 124
1, 388888, Control_c, 0, 64, 106
1, 388888, Control_c, 0, 67, 127
1, 388900, Note_off_c, 0, 75, 53
1, 388903, Control_c, 0, 64, 102
1, 388918, Control_c, 0, 64, 94
1, 388928, Note_on_c, 0, 84, 66
1, 388932, Control_c, 0, 64, 83
1, 388939, Note_off_c, 0, 78, 58
1, 388947, Control_c, 0, 64, 68
1, 388962, Control_c, 0, 64, 40
1, 388977, Control_c, 0, 64, 45
1, 388992, Control_c, 0, 64, 64
1, 389006, Control_c, 0, 64, 66
1, 389021, Control_c, 0, 64, 66
1, 389036, Control_c, 0, 64, 66
1, 389051, Control_c, 0, 64, 69
1, 389065, Control_c, 0, 64, 77
1, 389080, Control_c, 0, 64, 88
1, 389095, Control_c, 0, 64, 97
1, 389110, Control_c, 0, 64, 102
1, 389113, Note_off_c, 0, 57, 58
1, 389125, Control_c, 0, 64, 107
1, 389127, Note_off_c, 0, 49, 40
1, 389127, Note_off_c, 0, 63, 42
1, 389147, Control_c, 0, 64, 109
1, 389154, Note_off_c, 0, 54, 40
1, 389162, Control_c, 0, 64, 110
1, 389192, Control_c, 0, 64, 110
1, 389228, Note_off_c, 0, 84, 40
1, 389237, Control_c, 0, 64, 111
1, 389326, Note_on_c, 0, 49, 39
1, 389362, Note_on_c, 0, 53, 38
1, 389376, Note_on_c, 0, 56, 37
1, 389433, Note_on_c, 0, 61, 45
1, 389488, Note_on_c, 0, 68, 58
1, 389557, Note_on_c, 0, 77, 52
1, 389565, Note_off_c, 0, 68, 59
1, 389607, Control_c, 0, 64, 108
1, 389609, Note_on_c, 0, 80, 63
1, 389622, Control_c, 0, 64, 99
1, 389636, Control_c, 0, 64, 88
1, 389651, Control_c, 0, 64, 75
1, 389666, Control_c, 0, 64, 64
1, 389670, Note_off_c, 0, 77, 54
1, 389678, Note_on_c, 0, 85, 73
1, 389681, Control_c, 0, 64, 47
1, 389696, Control_c, 0, 64, 57
1, 389711, Control_c, 0, 64, 65
1, 389726, Control_c, 0, 64, 71
1, 389741, Control_c, 0, 64, 78
1, 389756, Control_c, 0, 64, 83
1, 389770, Control_c, 0, 64, 87
1, 389785, Control_c, 0, 64, 89
1, 389800, Control_c, 0, 64, 90
1, 389815, Control_c, 0, 64, 90
1, 389824, Note_off_c, 0, 80, 39
1, 389854, Note_off_c, 0, 53, 41
1, 389859, Control_c, 0, 64, 91
1, 389890, Note_off_c, 0, 49, 38
1, 389896, Control_c, 0, 64, 91
1, 389940, Control_c, 0, 64, 92
1, 389960, Note_off_c, 0, 56, 27
1, 389988, Note_off_c, 0, 61, 25
1, 390084, Note_on_c, 0, 49, 27
1, 390143, Note_on_c, 0, 51, 20
1, 390146, Note_on_c, 0, 56, 44
1, 390221, Note_on_c, 0, 60, 44
1, 390237, Note_off_c, 0, 56, 0
1, 390274, Poly_aftertouch_c, 0, 56, 127
1, 390295, Note_on_c, 0, 72, 51
1, 390311, Control_c, 0, 64, 89
1, 390321, Note_off_c, 0, 85, 32
1, 390326, Control_c, 0, 64, 84
1, 390341, Control_c, 0, 64, 74
1, 390343, Note_off_c, 0, 72, 50
1, 390349, Note_on_c, 0, 78, 53
1, 390356, Control_c, 0, 64, 62
1, 390371, Control_c, 0, 64, 0
1, 390400, Control_c, 0, 64, 48
1, 390411, Note_on_c, 0, 80, 62
1, 390415, Control_c, 0, 64, 64
1, 390430, Control_c, 0, 64, 69
1, 390445, Control_c, 0, 64, 74
1, 390459, Control_c, 0, 64, 79
1, 390474, Control_c, 0, 64, 82
1, 390485, Note_off_c, 0, 78, 37
1, 390489, Control_c, 0, 64, 83
1, 390491, Note_on_c, 0, 87, 67
1, 390518, Control_c, 0, 64, 84
1, 390533, Control_c, 0, 64, 84
1, 390548, Control_c, 0, 64, 85
1, 390563, Note_off_c, 0, 80, 49
1, 390563, Control_c, 0, 64, 86
1, 390578, Control_c, 0, 64, 87
1, 390592, Control_c, 0, 64, 88
1, 390600, Note_off_c, 0, 49, 38
1, 390607, Control_c, 0, 64, 89
1, 390644, Control_c, 0, 64, 89
1, 390659, Control_c, 0, 64, 90
1, 390661, Note_off_c, 0, 51, 30
1, 390674, Control_c, 0, 64, 90
1, 390689, Control_c, 0, 64, 91
1, 390703, Note_off_c, 0, 60, 31
1, 390703, Control_c, 0, 64, 91
1, 390733, Control_c, 0, 64, 92
1, 390748, Control_c, 0, 64, 92
1, 390752, Note_off_c, 0, 87, 36
1, 390763, Control_c, 0, 64, 93
1, 390790, Poly_aftertouch_c, 0, 56, 0
1, 390793, Control_c, 0, 64, 93
1, 390821, Note_on_c, 0, 49, 26
1, 390853, Control_c, 0, 64, 94
1, 390856, Note_on_c, 0, 53, 38
1, 390902, Note_on_c, 0, 56, 47
1, 390912, Control_c, 0, 64, 94
1, 390960, Note_on_c, 0, 61, 43
1, 390971, Control_c, 0, 64, 95
1, 390986, Control_c, 0, 64, 95
1, 391014, Note_on_c, 0, 73, 40
1, 391015, Control_c, 0, 64, 96
1, 391059, Control_c, 0, 64, 96
1, 391071, Note_on_c, 0, 77, 50
1, 391075, Note_off_c, 0, 73, 45
1, 391130, Note_off_c, 0, 77, 58
1, 391147, Note_on_c, 0, 80, 58
1, 391184, Note_off_c, 0, 80, 60
1, 391281, Note_on_c, 0, 89, 73
1, 391312, Control_c, 0, 64, 94
1, 391326, Control_c, 0, 64, 89
1, 391341, Control_c, 0, 64, 78
1, 391356, Control_c, 0, 64, 66
1, 391371, Control_c, 0, 64, 46
1, 391393, Control_c, 0, 64, 48
1, 391408, Control_c, 0, 64, 60
1, 391422, Control_c, 0, 64, 66
1, 391437, Control_c, 0, 64, 72
1, 391452, Control_c, 0, 64, 76
1, 391466, Note_off_c, 0, 49, 39
1, 391467, Control_c, 0, 64, 79
1, 391481, Control_c, 0, 64, 81
1, 391496, Control_c, 0, 64, 82
1, 391499, Note_off_c, 0, 53, 41
1, 391511, Control_c, 0, 64, 83
1, 391526, Control_c, 0, 64, 84
1, 391541, Control_c, 0, 64, 85
1, 391556, Control_c, 0, 64, 87
1, 391571, Control_c, 0, 64, 88
1, 391583, Note_off_c, 0, 61, 50
1, 391586, Control_c, 0, 64, 89
1, 391601, Control_c, 0, 64, 90
1, 391616, Control_c, 0, 64, 90
1, 391630, Note_on_c, 0, 49, 27
1, 391631, Note_off_c, 0, 56, 40
1, 391631, Control_c, 0, 64, 91
1, 391645, Control_c, 0, 64, 91
1, 391660, Control_c, 0, 64, 92
1, 391690, Control_c, 0, 64, 92
1, 391694, Note_off_c, 0, 89, 34
1, 391730, Note_on_c, 0, 54, 17
1, 391753, Note_on_c, 0, 56, 43
1, 391819, Note_on_c, 0, 63, 46
1, 391908, Note_on_c, 0, 75, 42
1, 391959, Note_on_c, 0, 80, 50
1, 392006, Note_off_c, 0, 75, 37
1, 392016, Control_c, 0, 64, 91
1, 392030, Note_on_c, 0, 84, 58
1, 392030, Control_c, 0, 64, 87
1, 392045, Control_c, 0, 64, 77
1, 392060, Control_c, 0, 64, 65
1, 392075, Control_c, 0, 64, 20
1, 392090, Control_c, 0, 64, 31
1, 392093, Note_off_c, 0, 80, 41
1, 392104, Control_c, 0, 64, 58
1, 392119, Control_c, 0, 64, 66
1, 392142, Note_on_c, 0, 90, 71
1, 392142, Control_c, 0, 64, 70
1, 392157, Control_c, 0, 64, 75
1, 392171, Control_c, 0, 64, 78
1, 392176, Note_off_c, 0, 54, 38
1, 392186, Control_c, 0, 64, 80
1, 392187, Note_off_c, 0, 49, 38
1, 392201, Control_c, 0, 64, 81
1, 392209, Note_off_c, 0, 84, 59
1, 392216, Control_c, 0, 64, 82
1, 392231, Control_c, 0, 64, 82
1, 392245, Control_c, 0, 64, 83
1, 392260, Control_c, 0, 64, 84
1, 392275, Control_c, 0, 64, 85
1, 392283, Note_off_c, 0, 56, 40
1, 392289, Control_c, 0, 64, 86
1, 392304, Control_c, 0, 64, 87
1, 392306, Note_off_c, 0, 63, 33
1, 392319, Control_c, 0, 64, 87
1, 392334, Control_c, 0, 64, 88
1, 392349, Control_c, 0, 64, 89
1, 392365, Control_c, 0, 64, 89
1, 392380, Control_c, 0, 64, 90
1, 392394, Control_c, 0, 64, 91
1, 392403, Note_on_c, 0, 49, 44
1, 392409, Control_c, 0, 64, 91
1, 392424, Control_c, 0, 64, 92
1, 392452, Note_off_c, 0, 49, 54
1, 392452, Note_off_c, 0, 90, 61
1, 392454, Control_c, 0, 64, 92
1, 392513, Control_c, 0, 64, 93
1, 392525, Note_on_c, 0, 56, 31
1, 392558, Control_c, 0, 64, 93
1, 392608, Note_on_c, 0, 60, 37
1, 392647, Control_c, 0, 64, 94
1, 392698, Note_on_c, 0, 66, 46
1, 392765, Control_c, 0, 64, 94
1, 392771, Note_off_c, 0, 66, 40
1, 392789, Note_on_c, 0, 72, 42
1, 392812, Note_off_c, 0, 60, 30
1, 392844, Note_off_c, 0, 72, 56
1, 392863, Note_on_c, 0, 78, 51
1, 392889, Note_off_c, 0, 56, 8
1, 392957, Note_on_c, 0, 80, 50
1, 393022, Note_off_c, 0, 78, 39
1, 393103, Note_on_c, 0, 87, 61
1, 393163, Note_off_c, 0, 80, 54
1, 393573, Control_c, 0, 64, 94
1, 393588, Control_c, 0, 64, 92
1, 393602, Control_c, 0, 64, 88
1, 393617, Control_c, 0, 64, 82
1, 393640, Control_c, 0, 64, 72
1, 393654, Control_c, 0, 64, 65
1, 393669, Control_c, 0, 64, 63
1, 393674, Note_on_c, 0, 37, 31
1, 393684, Control_c, 0, 64, 65
1, 393699, Control_c, 0, 64, 68
1, 393714, Control_c, 0, 64, 71
1, 393728, Control_c, 0, 64, 75
1, 393742, Note_off_c, 0, 37, 53
1, 393743, Control_c, 0, 64, 78
1, 393758, Control_c, 0, 64, 81
1, 393773, Control_c, 0, 64, 82
1, 393788, Control_c, 0, 64, 83
1, 393795, Note_on_c, 0, 44, 35
1, 393802, Control_c, 0, 64, 84
1, 393817, Control_c, 0, 64, 85
1, 393832, Control_c, 0, 64, 86
1, 393847, Control_c, 0, 64, 86
1, 393876, Control_c, 0, 64, 87
1, 393882, Note_on_c, 0, 53, 37
1, 393891, Control_c, 0, 64, 87
1, 393921, Control_c, 0, 64, 88
1, 393924, Note_off_c, 0, 87, 27
1, 393929, Note_on_c, 0, 77, 39
1, 393951, Control_c, 0, 64, 88
1, 393953, Note_off_c, 0, 44, 24
1, 393985, Note_on_c, 0, 80, 55
1, 393996, Control_c, 0, 64, 89
1, 394007, Note_off_c, 0, 77, 34
1, 394070, Note_on_c, 0, 89, 64
1, 394070, Control_c, 0, 64, 89
1, 394104, Note_off_c, 0, 80, 43
1, 394173, Control_c, 0, 64, 90
1, 394263, Control_c, 0, 64, 90
1, 394279, Note_off_c, 0, 53, 25
1, 394366, Control_c, 0, 64, 91
1, 394416, Note_off_c, 0, 89, 39
1, 394542, Note_on_c, 0, 41, 41
1, 394603, Note_off_c, 0, 41, 45
1, 394655, Note_on_c, 0, 49, 40
1, 394760, Note_on_c, 0, 56, 38
1, 394790, Note_on_c, 0, 73, 47
1, 394841, Note_off_c, 0, 73, 52
1, 394851, Note_on_c, 0, 77, 45
1, 394878, Control_c, 0, 64, 91
1, 394904, Note_on_c, 0, 85, 53
1, 394931, Note_off_c, 0, 49, 39
1, 394988, Note_off_c, 0, 77, 36
1, 395260, Note_off_c, 0, 85, 42
1, 395270, Note_off_c, 0, 56, 17
1, 395369, Note_on_c, 0, 44, 25
1, 395418, Note_off_c, 0, 44, 46
1, 395488, Note_on_c, 0, 53, 35
1, 395585, Note_on_c, 0, 61, 41
1, 395614, Note_on_c, 0, 68, 43
1, 395665, Note_on_c, 0, 73, 53
1, 395697, Note_off_c, 0, 68, 37
1, 395701, Note_off_c, 0, 53, 37
1, 395724, Note_on_c, 0, 80, 62
1, 395774, Note_off_c, 0, 73, 56
1, 395928, Note_off_c, 0, 61, 21
1, 396084, Note_off_c, 0, 80, 51
1, 396225, Note_on_c, 0, 49, 25
1, 396258, Note_on_c, 0, 56, 41
1, 396316, Control_c, 0, 64, 92
1, 396364, Note_on_c, 0, 61, 36
1, 396383, Note_on_c, 0, 65, 37
1, 396449, Note_on_c, 0, 68, 47
1, 396493, Note_on_c, 0, 77, 60
1, 396506, Note_off_c, 0, 65, 39
1, 396582, Note_off_c, 0, 68, 38
1, 396611, Note_off_c, 0, 61, 30
1, 396642, Note_off_c, 0, 49, 39
1, 396680, Note_off_c, 0, 56, 35
1, 396897, Note_off_c, 0, 77, 31
1, 397042, Note_on_c, 0, 49, 13
1, 397086, Note_on_c, 0, 55, 36
1, 397169, Note_on_c, 0, 61, 32
1, 397184, Control_c, 0, 64, 91
1, 397187, Note_on_c, 0, 64, 44
1, 397199, Control_c, 0, 64, 91
1, 397214, Control_c, 0, 64, 89
1, 397229, Control_c, 0, 64, 85
1, 397244, Control_c, 0, 64, 78
1, 397247, Note_on_c, 0, 67, 47
1, 397258, Control_c, 0, 64, 67
1, 397273, Control_c, 0, 64, 0
1, 397291, Note_on_c, 0, 76, 54
1, 397332, Control_c, 0, 64, 55
1, 397347, Control_c, 0, 64, 64
1, 397362, Control_c, 0, 64, 68
1, 397384, Control_c, 0, 64, 73
1, 397399, Control_c, 0, 64, 77
1, 397413, Control_c, 0, 64, 80
1, 397428, Control_c, 0, 64, 82
1, 397438, Note_off_c, 0, 55, 38
1, 397443, Control_c, 0, 64, 83
1, 397458, Control_c, 0, 64, 84
1, 397465, Note_off_c, 0, 67, 35
1, 397473, Control_c, 0, 64, 86
1, 397488, Control_c, 0, 64, 87
1, 397502, Control_c, 0, 64, 87
1, 397517, Control_c, 0, 64, 88
1, 397531, Note_off_c, 0, 49, 37
1, 397547, Control_c, 0, 64, 89
1, 397591, Control_c, 0, 64, 89
1, 397674, Note_off_c, 0, 64, 35
1, 397735, Note_off_c, 0, 61, 38
1, 397758, Note_on_c, 0, 49, 28
1, 397794, Note_on_c, 0, 56, 43
1, 397882, Note_on_c, 0, 61, 31
1, 397888, Note_off_c, 0, 76, 38
1, 397902, Control_c, 0, 64, 89
1, 397929, Note_on_c, 0, 65, 43
1, 397932, Control_c, 0, 64, 88
1, 397947, Control_c, 0, 64, 87
1, 397962, Control_c, 0, 64, 84
1, 397975, Note_on_c, 0, 68, 51
1, 397977, Control_c, 0, 64, 80
1, 397992, Control_c, 0, 64, 73
1, 398007, Control_c, 0, 64, 63
1, 398022, Control_c, 0, 64, 0
1, 398037, Note_on_c, 0, 77, 59
1, 398096, Control_c, 0, 64, 25
1, 398111, Control_c, 0, 64, 58
1, 398132, Control_c, 0, 64, 64
1, 398147, Control_c, 0, 64, 68
1, 398162, Control_c, 0, 64, 71
1, 398177, Control_c, 0, 64, 73
1, 398192, Control_c, 0, 64, 75
1, 398200, Note_off_c, 0, 56, 37
1, 398206, Control_c, 0, 64, 77
1, 398221, Control_c, 0, 64, 78
1, 398236, Control_c, 0, 64, 79
1, 398251, Control_c, 0, 64, 80
1, 398266, Control_c, 0, 64, 81
1, 398272, Note_off_c, 0, 65, 40
1, 398278, Note_off_c, 0, 68, 53
1, 398281, Control_c, 0, 64, 81
1, 398292, Note_off_c, 0, 49, 39
1, 398296, Control_c, 0, 64, 82
1, 398311, Control_c, 0, 64, 82
1, 398340, Control_c, 0, 64, 83
1, 398370, Control_c, 0, 64, 83
1, 398457, Note_off_c, 0, 61, 18
1, 398462, Note_off_c, 0, 77, 31
1, 398526, Note_on_c, 0, 49, 30
1, 398574, Note_on_c, 0, 58, 38
1, 398651, Control_c, 0, 64, 83
1, 398674, Note_on_c, 0, 61, 30
1, 398680, Control_c, 0, 64, 82
1, 398695, Note_on_c, 0, 66, 41
1, 398695, Control_c, 0, 64, 81
1, 398710, Control_c, 0, 64, 80
1, 398725, Control_c, 0, 64, 78
1, 398740, Control_c, 0, 64, 74
1, 398748, Note_on_c, 0, 70, 52
1, 398755, Control_c, 0, 64, 68
1, 398770, Control_c, 0, 64, 58
1, 398785, Control_c, 0, 64, 20
1, 398800, Control_c, 0, 64, 0
1, 398815, Note_on_c, 0, 78, 60
1, 398896, Control_c, 0, 64, 10
1, 398911, Control_c, 0, 64, 50
1, 398926, Control_c, 0, 64, 61
1, 398941, Control_c, 0, 64, 65
1, 398942, Note_off_c, 0, 70, 58
1, 398955, Control_c, 0, 64, 67
1, 398970, Control_c, 0, 64, 69
1, 398985, Control_c, 0, 64, 71
1, 399000, Control_c, 0, 64, 73
1, 399015, Control_c, 0, 64, 74
1, 399029, Control_c, 0, 64, 76
1, 399044, Control_c, 0, 64, 78
1, 399049, Note_off_c, 0, 49, 36
1, 399059, Note_off_c, 0, 58, 32
1, 399059, Control_c, 0, 64, 78
1, 399074, Control_c, 0, 64, 79
1, 399089, Control_c, 0, 64, 79
1, 399119, Control_c, 0, 64, 80
1, 399179, Note_off_c, 0, 61, 18
1, 399307, Note_off_c, 0, 66, 34
1, 399355, Control_c, 0, 64, 79
1, 399358, Note_on_c, 0, 49, 34
1, 399370, Control_c, 0, 64, 78
1, 399385, Control_c, 0, 64, 75
1, 399399, Control_c, 0, 64, 72
1, 399414, Control_c, 0, 64, 67
1, 399429, Control_c, 0, 64, 63
1, 399444, Control_c, 0, 64, 58
1, 399449, Note_on_c, 0, 57, 25
1, 399459, Control_c, 0, 64, 56
1, 399473, Control_c, 0, 64, 55
1, 399503, Control_c, 0, 64, 54
1, 399518, Control_c, 0, 64, 53
1, 399533, Control_c, 0, 64, 51
1, 399549, Control_c, 0, 64, 49
1, 399558, Note_on_c, 0, 64, 37
1, 399563, Control_c, 0, 64, 47
1, 399578, Control_c, 0, 64, 47
1, 399593, Control_c, 0, 64, 46
1, 399608, Control_c, 0, 64, 45
1, 399631, Control_c, 0, 64, 44
1, 399664, Note_on_c, 0, 67, 37
1, 399749, Control_c, 0, 64, 45
1, 399758, Note_off_c, 0, 78, 35
1, 399764, Control_c, 0, 64, 46
1, 399778, Control_c, 0, 64, 47
1, 399780, Note_on_c, 0, 73, 39
1, 399793, Control_c, 0, 64, 48
1, 399808, Control_c, 0, 64, 49
1, 399823, Control_c, 0, 64, 51
1, 399838, Control_c, 0, 64, 54
1, 399852, Control_c, 0, 64, 57
1, 399867, Control_c, 0, 64, 60
1, 399882, Control_c, 0, 64, 63
1, 399897, Control_c, 0, 64, 64
1, 399911, Control_c, 0, 64, 66
1, 399926, Control_c, 0, 64, 67
1, 399941, Control_c, 0, 64, 67
1, 399956, Control_c, 0, 64, 68
1, 399971, Control_c, 0, 64, 69
1, 399986, Control_c, 0, 64, 70
1, 400001, Control_c, 0, 64, 71
1, 400006, Note_on_c, 0, 79, 59
1, 400016, Control_c, 0, 64, 72
1, 400030, Control_c, 0, 64, 73
1, 400045, Control_c, 0, 64, 74
1, 400060, Control_c, 0, 64, 75
1, 400074, Note_off_c, 0, 67, 29
1, 400075, Control_c, 0, 64, 76
1, 400090, Control_c, 0, 64, 76
1, 400104, Control_c, 0, 64, 77
1, 400119, Control_c, 0, 64, 78
1, 400134, Control_c, 0, 64, 78
1, 400149, Control_c, 0, 64, 79
1, 400151, Note_off_c, 0, 49, 34
1, 400163, Control_c, 0, 64, 79
1, 400193, Control_c, 0, 64, 80
1, 400296, Note_off_c, 0, 64, 30
1, 400312, Control_c, 0, 64, 80
1, 400360, Note_off_c, 0, 73, 29
1, 400436, Note_off_c, 0, 57, 21
1, 400661, Control_c, 0, 64, 80
1, 400735, Control_c, 0, 64, 79
1, 400809, Control_c, 0, 64, 79
1, 400868, Control_c, 0, 64, 78
1, 400943, Control_c, 0, 64, 78
1, 401002, Control_c, 0, 64, 77
1, 401017, Control_c, 0, 64, 77
1, 401032, Control_c, 0, 64, 75
1, 401046, Control_c, 0, 64, 71
1, 401061, Control_c, 0, 64, 65
1, 401073, Note_on_c, 0, 49, 29
1, 401076, Control_c, 0, 64, 52
1, 401091, Control_c, 0, 64, 31
1, 401106, Control_c, 0, 64, 16
1, 401128, Control_c, 0, 64, 13
1, 401143, Control_c, 0, 64, 10
1, 401173, Control_c, 0, 64, 13
1, 401188, Control_c, 0, 64, 33
1, 401203, Control_c, 0, 64, 51
1, 401217, Control_c, 0, 64, 61
1, 401232, Control_c, 0, 64, 65
1, 401247, Control_c, 0, 64, 67
1, 401262, Control_c, 0, 64, 69
1, 401277, Control_c, 0, 64, 71
1, 401292, Control_c, 0, 64, 73
1, 401307, Control_c, 0, 64, 76
1, 401321, Control_c, 0, 64, 79
1, 401336, Control_c, 0, 64, 80
1, 401351, Note_on_c, 0, 56, 31
1, 401351, Control_c, 0, 64, 81
1, 401366, Control_c, 0, 64, 82
1, 401369, Note_off_c, 0, 49, 38
1, 401381, Control_c, 0, 64, 83
1, 401396, Control_c, 0, 64, 84
1, 401411, Control_c, 0, 64, 85
1, 401425, Control_c, 0, 64, 85
1, 401529, Control_c, 0, 64, 86
1, 401572, Note_on_c, 0, 65, 37
1, 401676, Control_c, 0, 64, 86
1, 401706, Control_c, 0, 64, 87
1, 401780, Control_c, 0, 64, 87
1, 401786, Note_on_c, 0, 68, 39
1, 401876, Control_c, 0, 64, 88
1, 401936, Control_c, 0, 64, 88
1, 401995, Control_c, 0, 64, 89
1, 402088, Note_on_c, 0, 73, 39
1, 402099, Control_c, 0, 64, 89
1, 402129, Note_off_c, 0, 79, 49
1, 402321, Control_c, 0, 64, 90
1, 402424, Control_c, 0, 64, 90
1, 402529, Control_c, 0, 64, 91
1, 402588, Control_c, 0, 64, 91
1, 402639, Control_c, 0, 64, 92
1, 402714, Control_c, 0, 64, 92
1, 402874, Note_on_c, 0, 80, 53
1, 403026, Control_c, 0, 64, 93
1, 403307, Control_c, 0, 64, 93
1, 403655, Control_c, 0, 64, 94
1, 404077, Note_off_c, 0, 56, 27
1, 404162, Note_off_c, 0, 65, 27
1, 406094, Control_c, 0, 64, 93
1, 406124, Control_c, 0, 64, 93
1, 406146, Note_on_c, 0, 46, 37
1, 406153, Control_c, 0, 64, 92
1, 406168, Control_c, 0, 64, 92
1, 406183, Control_c, 0, 64, 91
1, 406198, Control_c, 0, 64, 89
1, 406213, Control_c, 0, 64, 85
1, 406228, Control_c, 0, 64, 79
1, 406243, Control_c, 0, 64, 70
1, 406257, Control_c, 0, 64, 55
1, 406272, Control_c, 0, 64, 0
1, 406317, Control_c, 0, 64, 45
1, 406331, Control_c, 0, 64, 60
1, 406346, Control_c, 0, 64, 64
1, 406368, Control_c, 0, 64, 66
1, 406383, Control_c, 0, 64, 69
1, 406398, Control_c, 0, 64, 71
1, 406413, Control_c, 0, 64, 73
1, 406428, Note_on_c, 0, 53, 31
1, 406428, Control_c, 0, 64, 75
1, 406443, Control_c, 0, 64, 77
1, 406446, Note_off_c, 0, 73, 41
1, 406455, Note_off_c, 0, 68, 41
1, 406458, Control_c, 0, 64, 79
1, 406472, Control_c, 0, 64, 81
1, 406487, Control_c, 0, 64, 82
1, 406502, Control_c, 0, 64, 84
1, 406517, Control_c, 0, 64, 84
1, 406532, Control_c, 0, 64, 85
1, 406546, Control_c, 0, 64, 85
1, 406561, Control_c, 0, 64, 86
1, 406576, Control_c, 0, 64, 86
1, 406620, Control_c, 0, 64, 87
1, 406631, Note_on_c, 0, 61, 39
1, 406650, Control_c, 0, 64, 87
1, 406754, Control_c, 0, 64, 88
1, 406800, Note_on_c, 0, 70, 45
1, 406963, Note_off_c, 0, 80, 40
1, 406977, Control_c, 0, 64, 88
1, 406985, Note_on_c, 0, 77, 43
1, 407152, Note_off_c, 0, 70, 40
1, 407388, Note_on_c, 0, 85, 53
1, 407623, Control_c, 0, 64, 89
1, 407951, Note_off_c, 0, 46, 31
1, 408180, Note_off_c, 0, 61, 27
1, 408265, Note_off_c, 0, 53, 28
1, 410073, Note_on_c, 0, 41, 38
1, 410113, Control_c, 0, 64, 88
1, 410128, Control_c, 0, 64, 88
1, 410143, Control_c, 0, 64, 87
1, 410158, Control_c, 0, 64, 86
1, 410173, Control_c, 0, 64, 84
1, 410187, Control_c, 0, 64, 79
1, 410202, Control_c, 0, 64, 69
1, 410217, Control_c, 0, 64, 57
1, 410231, Control_c, 0, 64, 20
1, 410246, Control_c, 0, 64, 23
1, 410261, Control_c, 0, 64, 44
1, 410276, Control_c, 0, 64, 60
1, 410291, Control_c, 0, 64, 65
1, 410306, Control_c, 0, 64, 68
1, 410321, Control_c, 0, 64, 71
1, 410336, Control_c, 0, 64, 73
1, 410351, Control_c, 0, 64, 76
1, 410365, Control_c, 0, 64, 77
1, 410380, Control_c, 0, 64, 79
1, 410395, Note_on_c, 0, 48, 39
1, 410395, Control_c, 0, 64, 80
1, 410410, Control_c, 0, 64, 81
1, 410425, Control_c, 0, 64, 82
1, 410439, Control_c, 0, 64, 83
1, 410454, Control_c, 0, 64, 84
1, 410458, Note_off_c, 0, 77, 25
1, 410469, Control_c, 0, 64, 84
1, 410484, Control_c, 0, 64, 85
1, 410498, Control_c, 0, 64, 85
1, 410528, Note_off_c, 0, 41, 42
1, 410532, Note_off_c, 0, 48, 53
1, 410543, Control_c, 0, 64, 86
1, 410583, Note_on_c, 0, 53, 37
1, 410602, Control_c, 0, 64, 86
1, 410795, Note_on_c, 0, 56, 33
1, 410931, Note_off_c, 0, 53, 36
1, 410937, Note_on_c, 0, 72, 43
1, 411160, Note_on_c, 0, 77, 46
1, 411191, Note_off_c, 0, 72, 30
1, 411445, Note_off_c, 0, 77, 33
1, 411450, Note_off_c, 0, 85, 35
1, 411453, Note_on_c, 0, 80, 52
1, 411565, Note_off_c, 0, 80, 56
1, 412338, Note_on_c, 0, 89, 61
1, 412685, Control_c, 0, 64, 87
1, 412946, Note_off_c, 0, 56, 30
1, 413237, Note_off_c, 0, 89, 39
1, 416651, Control_c, 0, 64, 86
1, 416676, Note_on_c, 0, 32, 37
1, 416711, Control_c, 0, 64, 86
1, 416726, Control_c, 0, 64, 85
1, 416740, Control_c, 0, 64, 84
1, 416755, Control_c, 0, 64, 82
1, 416770, Control_c, 0, 64, 77
1, 416785, Control_c, 0, 64, 71
1, 416799, Control_c, 0, 64, 60
1, 416814, Control_c, 0, 64, 38
1, 416829, Control_c, 0, 64, 33
1, 416852, Control_c, 0, 64, 36
1, 416867, Control_c, 0, 64, 47
1, 416881, Control_c, 0, 64, 56
1, 416896, Control_c, 0, 64, 63
1, 416911, Control_c, 0, 64, 66
1, 416926, Control_c, 0, 64, 68
1, 416941, Control_c, 0, 64, 70
1, 416955, Control_c, 0, 64, 72
1, 416970, Control_c, 0, 64, 74
1, 416985, Control_c, 0, 64, 76
1, 416999, Control_c, 0, 64, 77
1, 417014, Control_c, 0, 64, 79
1, 417029, Control_c, 0, 64, 80
1, 417044, Control_c, 0, 64, 80
1, 417059, Control_c, 0, 64, 81
1, 417073, Control_c, 0, 64, 81
1, 417088, Control_c, 0, 64, 82
1, 417113, Note_on_c, 0, 36, 28
1, 417119, Control_c, 0, 64, 82
1, 417149, Control_c, 0, 64, 83
1, 417197, Note_off_c, 0, 32, 35
1, 417208, Control_c, 0, 64, 83
1, 417329, Note_on_c, 0, 42, 39
1, 417535, Note_on_c, 0, 44, 42
1, 417675, Note_off_c, 0, 36, 37
1, 417717, Note_on_c, 0, 48, 40
1, 417758, Note_off_c, 0, 42, 34
1, 417815, Note_off_c, 0, 44, 40
1, 417886, Note_on_c, 0, 51, 42
1, 417909, Note_off_c, 0, 48, 36
1, 418070, Note_on_c, 0, 56, 39
1, 418075, Control_c, 0, 64, 84
1, 418167, Note_off_c, 0, 51, 22
1, 418201, Note_on_c, 0, 60, 43
1, 418271, Note_off_c, 0, 56, 31
1, 418388, Note_on_c, 0, 63, 39
1, 418568, Note_on_c, 0, 66, 47
1, 418611, Note_off_c, 0, 60, 15
1, 418638, Note_off_c, 0, 66, 0
1, 418638, Note_on_c, 0, 66, 5
1, 418725, Note_on_c, 0, 68, 42
1, 418769, Note_off_c, 0, 66, 30
1, 418784, Note_off_c, 0, 63, 26
1, 418919, Note_on_c, 0, 72, 45
1, 419075, Control_c, 0, 64, 84
1, 419148, Note_on_c, 0, 78, 49
1, 419297, Note_off_c, 0, 72, 34
1, 419386, Note_off_c, 0, 68, 36
1, 419460, Note_on_c, 0, 80, 48
1, 419522, Note_off_c, 0, 80, 0
1, 419522, Note_on_c, 0, 80, 3
1, 419807, Note_off_c, 0, 78, 16
1, 419878, Note_on_c, 0, 84, 51
1, 419916, Note_off_c, 0, 80, 41
1, 420953, Note_on_c, 0, 92, 60
1, 420995, Note_off_c, 0, 92, 59
1, 424018, Note_off_c, 0, 84, 0
1, 424054, Poly_aftertouch_c, 0, 84, 127
1, 425503, Control_c, 0, 64, 84
1, 425637, Control_c, 0, 64, 83
1, 425711, Control_c, 0, 64, 83
1, 425836, Control_c, 0, 64, 82
1, 425840, Note_on_c, 0, 25, 28
1, 425851, Control_c, 0, 64, 82
1, 425866, Control_c, 0, 64, 80
1, 425881, Control_c, 0, 64, 75
1, 425896, Control_c, 0, 64, 66
1, 425912, Control_c, 0, 64, 54
1, 425927, Control_c, 0, 64, 35
1, 425941, Control_c, 0, 64, 32
1, 425956, Control_c, 0, 64, 36
1, 425971, Control_c, 0, 64, 46
1, 425985, Control_c, 0, 64, 58
1, 426000, Control_c, 0, 64, 64
1, 426015, Control_c, 0, 64, 68
1, 426030, Control_c, 0, 64, 71
1, 426045, Control_c, 0, 64, 74
1, 426060, Control_c, 0, 64, 76
1, 426075, Control_c, 0, 64, 78
1, 426090, Control_c, 0, 64, 80
1, 426092, Note_on_c, 0, 37, 41
1, 426105, Control_c, 0, 64, 81
1, 426108, Note_off_c, 0, 25, 40
1, 426120, Control_c, 0, 64, 82
1, 426134, Control_c, 0, 64, 83
1, 426149, Control_c, 0, 64, 83
1, 426164, Control_c, 0, 64, 84
1, 426178, Control_c, 0, 64, 84
1, 426193, Control_c, 0, 64, 85
1, 426223, Control_c, 0, 64, 85
1, 426257, Note_off_c, 0, 37, 35
1, 426264, Poly_aftertouch_c, 0, 84, 0
1, 426282, Control_c, 0, 64, 86
1, 426341, Control_c, 0, 64, 86
1, 426418, Note_on_c, 0, 41, 35
1, 426617, Note_on_c, 0, 44, 44
1, 426817, Note_on_c, 0, 49, 46
1, 426989, Note_off_c, 0, 41, 28
1, 426996, Note_on_c, 0, 53, 48
1, 427059, Note_off_c, 0, 44, 39
1, 427073, Note_off_c, 0, 49, 52
1, 427188, Note_off_c, 0, 53, 41
1, 427193, Note_on_c, 0, 56, 45
1, 427413, Note_on_c, 0, 61, 44
1, 427532, Note_off_c, 0, 56, 35
1, 427622, Note_on_c, 0, 65, 51
1, 427740, Note_off_c, 0, 61, 26
1, 427802, Note_on_c, 0, 68, 51
1, 428033, Note_off_c, 0, 65, 19
1, 428042, Note_on_c, 0, 73, 33
1, 428311, Note_on_c, 0, 77, 28
1, 428618, Note_on_c, 0, 80, 46
1, 428672, Note_off_c, 0, 80, 0
1, 428672, Note_on_c, 0, 80, 3
1, 429001, Note_on_c, 0, 85, 42
1, 429448, Note_on_c, 0, 89, 51
1, 429957, Note_on_c, 0, 92, 53
1, 431272, Note_on_c, 0, 97, 62
1, 434597, Note_off_c, 0, 80, 31
1, 435252, Control_c, 0, 64, 86
1, 435534, Control_c, 0, 64, 85
1, 435721, Note_off_c, 0, 77, 14
1, 435730, Note_off_c, 0, 97, 31
1, 435778, Control_c, 0, 64, 85
1, 435986, Control_c, 0, 64, 84
1, 436104, Control_c, 0, 64, 84
1, 436122, Note_off_c, 0, 89, 31
1, 436179, Note_off_c, 0, 92, 28
1, 436179, Control_c, 0, 64, 83
1, 436238, Control_c, 0, 64, 83
1, 436241, Note_off_c, 0, 73, 28
1, 436291, Note_off_c, 0, 68, 33
1, 436320, Control_c, 0, 64, 82
1, 436358, Note_off_c, 0, 85, 41
1, 436380, Control_c, 0, 64, 82
1, 436439, Control_c, 0, 64, 81
1, 436528, Control_c, 0, 64, 81
1, 436617, Control_c, 0, 64, 80
1, 436676, Control_c, 0, 64, 80
1, 436735, Control_c, 0, 64, 79
1, 436794, Control_c, 0, 64, 79
1, 436839, Control_c, 0, 64, 78
1, 436884, Control_c, 0, 64, 78
1, 436899, Control_c, 0, 64, 77
1, 436912, Control_c, 0, 64, 77
1, 436927, Control_c, 0, 64, 76
1, 436957, Control_c, 0, 64, 76
1, 436972, Control_c, 0, 64, 75
1, 436986, Control_c, 0, 64, 75
1, 437001, Control_c, 0, 64, 74
1, 437016, Control_c, 0, 64, 73
1, 437030, Control_c, 0, 64, 73
1, 437045, Control_c, 0, 64, 72
1, 437068, Control_c, 0, 64, 71
1, 437083, Control_c, 0, 64, 71
1, 437098, Control_c, 0, 64, 70
1, 437113, Control_c, 0, 64, 69
1, 437128, Control_c, 0, 64, 68
1, 437143, Control_c, 0, 64, 68
1, 437158, Control_c, 0, 64, 67
1, 437173, Control_c, 0, 64, 67
1, 437188, Control_c, 0, 64, 66
1, 437217, Control_c, 0, 64, 66
1, 437247, Control_c, 0, 64, 65
1, 437277, Control_c, 0, 64, 65
1, 437321, Control_c, 0, 64, 64
1, 437335, Control_c, 0, 64, 64
1, 437365, Control_c, 0, 64, 63
1, 437395, Control_c, 0, 64, 63
1, 437424, Control_c, 0, 64, 62
1, 437647, Control_c, 0, 64, 63
1, 437706, Control_c, 0, 64, 63
1, 437735, Control_c, 0, 64, 64
1, 437750, Control_c, 0, 64, 65
1, 437765, Control_c, 0, 64, 66
1, 437780, Control_c, 0, 64, 67
1, 437795, Control_c, 0, 64, 68
1, 437817, Control_c, 0, 64, 69
1, 437832, Control_c, 0, 64, 69
1, 437861, Control_c, 0, 64, 70
1, 437876, Control_c, 0, 64, 70
1, 437892, Control_c, 0, 64, 71
1, 437907, Control_c, 0, 64, 71
1, 437921, Control_c, 0, 64, 72
1, 437951, Control_c, 0, 64, 72
1, 437966, Control_c, 0, 64, 73
1, 437995, Control_c, 0, 64, 73
1, 438010, Control_c, 0, 64, 74
1, 438025, Control_c, 0, 64, 74
1, 438040, Control_c, 0, 64, 75
1, 438055, Control_c, 0, 64, 75
1, 438070, Control_c, 0, 64, 76
1, 438084, Control_c, 0, 64, 76
1, 438114, Control_c, 0, 64, 77
1, 438144, Control_c, 0, 64, 77
1, 438158, Control_c, 0, 64, 78
1, 438173, Control_c, 0, 64, 79
1, 438188, Control_c, 0, 64, 79
1, 438203, Control_c, 0, 64, 80
1, 438218, Control_c, 0, 64, 80
1, 438232, Control_c, 0, 64, 81
1, 438247, Control_c, 0, 64, 82
1, 438262, Control_c, 0, 64, 82
1, 438277, Control_c, 0, 64, 83
1, 438291, Control_c, 0, 64, 83
1, 438306, Control_c, 0, 64, 84
1, 438321, Control_c, 0, 64, 84
1, 438336, Control_c, 0, 64, 85
1, 438365, Control_c, 0, 64, 85
1, 438425, Control_c, 0, 64, 86
1, 439290, Note_on_c, 0, 53, 37
1, 439296, Note_on_c, 0, 44, 30
1, 439298, Note_on_c, 0, 49, 27
1, 439314, Control_c, 0, 64, 85
1, 439322, Note_on_c, 0, 37, 18
1, 439329, Control_c, 0, 64, 84
1, 439344, Control_c, 0, 64, 84
1, 439359, Control_c, 0, 64, 83
1, 439374, Control_c, 0, 64, 81
1, 439388, Control_c, 0, 64, 78
1, 439403, Control_c, 0, 64, 74
1, 439418, Control_c, 0, 64, 69
1, 439432, Control_c, 0, 64, 64
1, 439447, Control_c, 0, 64, 59
1, 439462, Control_c, 0, 64, 56
1, 439478, Control_c, 0, 64, 56
1, 439523, Control_c, 0, 64, 56
1, 439537, Control_c, 0, 64, 57
1, 439552, Control_c, 0, 64, 58
1, 439567, Control_c, 0, 64, 60
1, 439582, Control_c, 0, 64, 62
1, 439597, Control_c, 0, 64, 64
1, 439611, Control_c, 0, 64, 65
1, 439626, Control_c, 0, 64, 66
1, 439641, Control_c, 0, 64, 67
1, 439656, Control_c, 0, 64, 68
1, 439671, Control_c, 0, 64, 69
1, 439686, Control_c, 0, 64, 70
1, 439701, Control_c, 0, 64, 72
1, 439715, Control_c, 0, 64, 72
1, 439730, Control_c, 0, 64, 73
1, 439745, Control_c, 0, 64, 74
1, 439760, Control_c, 0, 64, 75
1, 439775, Control_c, 0, 64, 75
1, 439790, Control_c, 0, 64, 76
1, 439804, Control_c, 0, 64, 76
1, 439819, Control_c, 0, 64, 77
1, 439834, Control_c, 0, 64, 77
1, 439849, Control_c, 0, 64, 78
1, 439863, Control_c, 0, 64, 78
1, 439893, Control_c, 0, 64, 79
1, 439909, Control_c, 0, 64, 79
1, 439953, Control_c, 0, 64, 80
1, 440027, Control_c, 0, 64, 80
1, 440079, Control_c, 0, 64, 81
1, 440138, Control_c, 0, 64, 81
1, 440227, Control_c, 0, 64, 82
1, 440282, Note_off_c, 0, 49, 28
1, 440285, Note_off_c, 0, 53, 27
1, 440395, Note_off_c, 0, 37, 28
1, 440425, Note_off_c, 0, 44, 31
1, 440656, Control_c, 0, 64, 82
1, 441956, Note_on_c, 0, 53, 34
1, 441963, Note_on_c, 0, 44, 23
1, 441970, Note_on_c, 0, 49, 22
1, 441978, Note_on_c, 0, 37, 10
1, 442391, Note_off_c, 0, 53, 30
1, 442398, Note_off_c, 0, 49, 26
1, 442504, Note_off_c, 0, 37, 30
1, 442514, Note_off_c, 0, 44, 26
1, 443999, Control_c, 0, 64, 83
1, 444502, Note_on_c, 0, 53, 35
1, 444514, Note_on_c, 0, 44, 27
1, 444516, Note_on_c, 0, 49, 32
1, 444531, Note_on_c, 0, 37, 21
1, 445149, Control_c, 0, 64, 83
1, 445943, Control_c, 0, 64, 84
1, 446692, Control_c, 0, 64, 84
1, 447307, Control_c, 0, 64, 85
1, 448478, Control_c, 0, 64, 85
1, 450125, Control_c, 0, 64, 86
1, 451399, Control_c, 0, 64, 86
1, 455201, Control_c, 0, 64, 86
1, 455231, Control_c, 0, 64, 85
1, 455260, Control_c, 0, 64, 85
1, 455275, Control_c, 0, 64, 84
1, 455305, Control_c, 0, 64, 84
1, 455320, Control_c, 0, 64, 83
1, 455349, Control_c, 0, 64, 83
1, 455364, Control_c, 0, 64, 82
1, 455378, Control_c, 0, 64, 82
1, 455393, Control_c, 0, 64, 81
1, 455408, Control_c, 0, 64, 81
1, 455438, Control_c, 0, 64, 80
1, 455454, Control_c, 0, 64, 80
1, 455469, Control_c, 0, 64, 79
1, 455483, Control_c, 0, 64, 78
1, 455498, Control_c, 0, 64, 78
1, 455513, Control_c, 0, 64, 77
1, 455528, Control_c, 0, 64, 76
1, 455543, Control_c, 0, 64, 75
1, 455557, Control_c, 0, 64, 73
1, 455572, Control_c, 0, 64, 72
1, 455587, Control_c, 0, 64, 71
1, 455601, Control_c, 0, 64, 70
1, 455616, Control_c, 0, 64, 69
1, 455632, Control_c, 0, 64, 69
1, 455647, Control_c, 0, 64, 68
1, 455662, Control_c, 0, 64, 67
1, 455691, Control_c, 0, 64, 67
1, 455736, Control_c, 0, 64, 66
1, 455765, Control_c, 0, 64, 66
1, 455847, Control_c, 0, 64, 65
1, 455951, Control_c, 0, 64, 65
1, 456069, Control_c, 0, 64, 64
1, 456128, Control_c, 0, 64, 64
1, 456173, Control_c, 0, 64, 63
1, 456202, Control_c, 0, 64, 63
1, 456248, Control_c, 0, 64, 62
1, 456256, Note_off_c, 0, 49, 33
1, 456277, Control_c, 0, 64, 62
1, 456280, Note_off_c, 0, 37, 38
1, 456307, Control_c, 0, 64, 61
1, 456337, Control_c, 0, 64, 61
1, 456352, Control_c, 0, 64, 60
1, 456371, Note_off_c, 0, 44, 35
1, 456376, Note_off_c, 0, 53, 39
1, 456381, Control_c, 0, 64, 60
1, 456396, Control_c, 0, 64, 59
1, 456411, Control_c, 0, 64, 59
1, 456425, Control_c, 0, 64, 58
1, 456455, Control_c, 0, 64, 58
1, 456470, Control_c, 0, 64, 57
1, 456485, Control_c, 0, 64, 57
1, 456499, Control_c, 0, 64, 56
1, 456514, Control_c, 0, 64, 56
1, 456537, Control_c, 0, 64, 55
1, 456552, Control_c, 0, 64, 55
1, 456567, Control_c, 0, 64, 54
1, 456581, Control_c, 0, 64, 54
1, 456596, Control_c, 0, 64, 52
1, 456611, Control_c, 0, 64, 52
1, 456626, Control_c, 0, 64, 51
1, 456640, Control_c, 0, 64, 50
1, 456655, Control_c, 0, 64, 50
1, 456670, Control_c, 0, 64, 49
1, 456700, Control_c, 0, 64, 48
1, 456714, Control_c, 0, 64, 48
1, 456729, Control_c, 0, 64, 47
1, 456951, Control_c, 0, 64, 48
1, 457011, Control_c, 0, 64, 48
1, 457130, Control_c, 0, 64, 49
1, 457234, Control_c, 0, 64, 49
1, 457345, Control_c, 0, 64, 50
1, 457389, Control_c, 0, 64, 50
1, 457434, Control_c, 0, 64, 51
1, 457508, Control_c, 0, 64, 51
1, 457552, Control_c, 0, 64, 52
1, 457641, Control_c, 0, 64, 52
1, 457729, Control_c, 0, 64, 53
1, 457833, Control_c, 0, 64, 53
1, 457864, Control_c, 0, 64, 54
1, 457967, Control_c, 0, 64, 54
1, 458063, Control_c, 0, 64, 55
1, 458093, Control_c, 0, 64, 55
1, 458152, Control_c, 0, 64, 56
1, 458197, Control_c, 0, 64, 56
1, 458241, Control_c, 0, 64, 57
1, 458300, Control_c, 0, 64, 57
1, 458626, Control_c, 0, 64, 57
1, 458841, Control_c, 0, 64, 57
1, 459962, Control_c, 0, 64, 57
1, 459991, Control_c, 0, 64, 56
1, 460021, Control_c, 0, 64, 56
1, 460036, Control_c, 0, 64, 55
1, 460065, Control_c, 0, 64, 55
1, 460080, Control_c, 0, 64, 54
1, 460095, Control_c, 0, 64, 54
1, 460124, Control_c, 0, 64, 53
1, 460139, Control_c, 0, 64, 53
1, 460244, Control_c, 0, 64, 53
1, 460296, Control_c, 0, 64, 54
1, 460385, Control_c, 0, 64, 53
1, 460399, Control_c, 0, 64, 53
1, 460414, Control_c, 0, 64, 51
1, 460429, Control_c, 0, 64, 39
1, 460444, Control_c, 0, 64, 0
1, 460636, Control_c, 0, 67, 121
1, 460651, Control_c, 0, 67, 111
1, 460666, Control_c, 0, 67, 96
1, 460680, Control_c, 0, 67, 74
1, 460695, Control_c, 0, 67, 42
1, 460710, Control_c, 0, 67, 0
1, 460710, End_track
0, 0, End_of_file
