0, 0, Header, 0, 1, 384
1, 0, Start_track
1, 0, Title_t, "Mem. of Don Juan--Claire Huangci"
1, 0, Text_t, "2006 International Piano-e-Competition Recital Round"
1, 0, Text_t, "St. Paul, Minnesota, July 2006"
1, 0, Text_t, "http://www.piano-e-competition.com/"
1, 0, Instrument_name_t, "Yamaha Disklavier Pro Mark IV concert grand piano"
1, 0, Sequencer_specific, 39, 67, 113, 0, 1, 0, 1, 0, 82, 101, 109, 46, 32, 111, 102, 32, 68, 111, 110, 32, 74, 117, 97, 110, 67, 108, 97, 105, 114, 101, 32, 72, 117, 97, 110, 103, 99, 105, 32, 32
1, 0, Sequencer_specific, 6, 67, 113, 0, 0, 0, 69
1, 0, System_exclusive, 21, 67, 113, 126, 21, 0, 2, 2, 0, 10, 10, 12, 4, 4, 10, 14, 10, 13, 14, 7, 1, 247
1, 0, Sequencer_specific, 5, 67, 123, 12, 2, 1
1, 0, Tempo, 512820
1, 0, Time_signature, 4, 2, 24, 8
1, 0, System_exclusive, 5, 126, 127, 9, 1, 247
1, 1, System_exclusive, 8, 67, 16, 76, 0, 0, 126, 0, 247
1, 2, System_exclusive, 8, 67, 16, 76, 8, 9, 7, 1, 247
1, 3, Control_c, 0, 0, 0
1, 4, Control_c, 0, 32, 0
1, 5, Program_c, 0, 0
1, 6, Control_c, 0, 7, 100
1, 95, Control_c, 0, 64, 15
1, 184, Control_c, 0, 64, 31
1, 273, Control_c, 0, 64, 46
1, 362, Control_c, 0, 64, 63
1, 452, Control_c, 0, 64, 77
1, 541, Control_c, 0, 64, 94
1, 630, Control_c, 0, 64, 108
1, 719, Control_c, 0, 64, 127
1, 904, Note_on_c, 0, 38, 70
1, 963, Note_on_c, 0, 45, 74
1, 971, Note_off_c, 0, 38, 62
1, 995, Note_off_c, 0, 45, 66
1, 1012, Note_on_c, 0, 50, 74
1, 1083, Note_on_c, 0, 53, 91
1, 1093, Note_off_c, 0, 50, 63
1, 1128, Note_on_c, 0, 62, 96
1, 1131, Note_on_c, 0, 57, 102
1, 1134, Note_on_c, 0, 69, 97
1, 1305, Note_off_c, 0, 53, 62
1, 1796, Note_off_c, 0, 57, 51
1, 1806, Note_off_c, 0, 62, 57
1, 1813, Note_on_c, 0, 40, 66
1, 1849, Note_off_c, 0, 69, 54
1, 1882, Note_on_c, 0, 45, 69
1, 1894, Note_off_c, 0, 40, 54
1, 1931, Note_on_c, 0, 49, 80
1, 1984, Note_on_c, 0, 55, 96
1, 2014, Note_on_c, 0, 61, 96
1, 2016, Note_on_c, 0, 57, 104
1, 2020, Note_on_c, 0, 69, 97
1, 2068, Note_on_c, 0, 67, 30
1, 2091, Control_c, 0, 64, 94
1, 2106, Control_c, 0, 64, 64
1, 2120, Control_c, 0, 64, 0
1, 2121, Note_off_c, 0, 67, 41
1, 2180, Control_c, 0, 64, 49
1, 2195, Control_c, 0, 64, 69
1, 2210, Control_c, 0, 64, 83
1, 2225, Control_c, 0, 64, 127
1, 2697, Note_off_c, 0, 69, 39
1, 2717, Note_off_c, 0, 45, 40
1, 2753, Note_off_c, 0, 57, 45
1, 2833, Note_off_c, 0, 55, 27
1, 3251, Note_off_c, 0, 49, 39
1, 3254, Note_off_c, 0, 61, 54
1, 3710, Note_on_c, 0, 69, 72
1, 3721, Note_on_c, 0, 57, 58
1, 3788, Note_off_c, 0, 57, 53
1, 3861, Note_off_c, 0, 69, 56
1, 4296, Note_on_c, 0, 69, 69
1, 4302, Note_on_c, 0, 57, 64
1, 4309, Note_on_c, 0, 62, 57
1, 4309, Note_on_c, 0, 41, 43
1, 4314, Note_on_c, 0, 50, 46
1, 4315, Note_on_c, 0, 53, 45
1, 4323, Note_on_c, 0, 45, 47
1, 4352, Control_c, 0, 64, 100
1, 4367, Control_c, 0, 64, 73
1, 4381, Control_c, 0, 64, 55
1, 4396, Control_c, 0, 64, 0
1, 4440, Control_c, 0, 64, 47
1, 4455, Control_c, 0, 64, 63
1, 4470, Control_c, 0, 64, 72
1, 4485, Control_c, 0, 64, 85
1, 4499, Control_c, 0, 64, 106
1, 4514, Control_c, 0, 64, 127
1, 4612, Note_off_c, 0, 41, 38
1, 4630, Note_off_c, 0, 53, 34
1, 4631, Note_off_c, 0, 69, 55
1, 4672, Note_off_c, 0, 45, 40
1, 4697, Note_off_c, 0, 50, 59
1, 4744, Note_off_c, 0, 57, 36
1, 4839, Note_off_c, 0, 62, 51
1, 5214, Note_on_c, 0, 52, 96
1, 5215, Note_on_c, 0, 57, 92
1, 5215, Note_on_c, 0, 69, 86
1, 5220, Note_on_c, 0, 60, 82
1, 5221, Note_on_c, 0, 64, 80
1, 5223, Note_on_c, 0, 48, 82
1, 5226, Note_on_c, 0, 45, 77
1, 5230, Note_on_c, 0, 40, 73
1, 5237, Note_off_c, 0, 69, 60
1, 5263, Control_c, 0, 64, 83
1, 5278, Control_c, 0, 64, 61
1, 5293, Control_c, 0, 64, 0
1, 5337, Control_c, 0, 64, 58
1, 5353, Control_c, 0, 64, 72
1, 5368, Control_c, 0, 64, 96
1, 5383, Control_c, 0, 64, 127
1, 5386, Note_off_c, 0, 40, 54
1, 5410, Note_off_c, 0, 52, 55
1, 5617, Note_off_c, 0, 45, 48
1, 5622, Note_off_c, 0, 48, 39
1, 5651, Note_off_c, 0, 64, 58
1, 5705, Note_off_c, 0, 57, 36
1, 5748, Note_off_c, 0, 60, 61
1, 6095, Note_on_c, 0, 69, 91
1, 6098, Note_on_c, 0, 57, 95
1, 6098, Note_on_c, 0, 60, 85
1, 6100, Note_on_c, 0, 51, 93
1, 6102, Note_on_c, 0, 48, 83
1, 6108, Note_on_c, 0, 39, 77
1, 6109, Note_on_c, 0, 66, 76
1, 6110, Note_on_c, 0, 45, 77
1, 6206, Control_c, 0, 64, 117
1, 6220, Control_c, 0, 64, 78
1, 6235, Control_c, 0, 64, 49
1, 6251, Control_c, 0, 64, 0
1, 6325, Control_c, 0, 64, 49
1, 6340, Control_c, 0, 64, 69
1, 6355, Control_c, 0, 64, 87
1, 6369, Control_c, 0, 64, 127
1, 6402, Note_off_c, 0, 57, 60
1, 6542, Note_off_c, 0, 39, 54
1, 6555, Note_off_c, 0, 51, 55
1, 6568, Note_off_c, 0, 60, 51
1, 6759, Note_off_c, 0, 66, 33
1, 6765, Note_off_c, 0, 45, 28
1, 6795, Note_off_c, 0, 48, 20
1, 6819, Note_on_c, 0, 39, 50
1, 6884, Note_off_c, 0, 39, 53
1, 6902, Note_on_c, 0, 45, 53
1, 6964, Note_on_c, 0, 48, 63
1, 6965, Note_off_c, 0, 45, 58
1, 7040, Note_off_c, 0, 48, 61
1, 7063, Note_on_c, 0, 51, 59
1, 7136, Note_off_c, 0, 51, 58
1, 7151, Note_on_c, 0, 66, 56
1, 7154, Note_on_c, 0, 60, 59
1, 7230, Note_on_c, 0, 44, 54
1, 7279, Note_off_c, 0, 44, 62
1, 7298, Note_on_c, 0, 45, 68
1, 7344, Note_off_c, 0, 45, 61
1, 7349, Note_off_c, 0, 60, 35
1, 7369, Note_on_c, 0, 44, 67
1, 7384, Note_off_c, 0, 69, 32
1, 7403, Note_off_c, 0, 44, 64
1, 7421, Note_on_c, 0, 45, 75
1, 7455, Note_off_c, 0, 45, 61
1, 7469, Note_on_c, 0, 44, 76
1, 7515, Note_off_c, 0, 44, 56
1, 7515, Note_off_c, 0, 66, 31
1, 7530, Note_on_c, 0, 45, 83
1, 7581, Note_off_c, 0, 45, 64
1, 7583, Note_on_c, 0, 44, 76
1, 7641, Note_on_c, 0, 45, 83
1, 7644, Note_off_c, 0, 44, 64
1, 7698, Note_on_c, 0, 44, 79
1, 7701, Note_off_c, 0, 45, 62
1, 7763, Note_off_c, 0, 44, 65
1, 7766, Note_on_c, 0, 45, 80
1, 7820, Note_on_c, 0, 44, 81
1, 7829, Note_off_c, 0, 45, 63
1, 7892, Note_on_c, 0, 45, 74
1, 7903, Note_off_c, 0, 44, 64
1, 7954, Poly_aftertouch_c, 0, 44, 0
1, 7957, Note_on_c, 0, 48, 94
1, 7960, Note_on_c, 0, 44, 78
1, 7965, Note_on_c, 0, 39, 85
1, 7975, Note_on_c, 0, 57, 111
1, 7978, Control_c, 0, 64, 84
1, 7981, Note_off_c, 0, 45, 56
1, 7982, Note_on_c, 0, 66, 93
1, 7984, Note_on_c, 0, 69, 96
1, 7993, Control_c, 0, 64, 57
1, 8006, Note_on_c, 0, 62, 47
1, 8007, Control_c, 0, 64, 0
1, 8021, Note_on_c, 0, 42, 36
1, 8024, Note_off_c, 0, 48, 60
1, 8036, Note_off_c, 0, 62, 53
1, 8037, Control_c, 0, 64, 59
1, 8052, Control_c, 0, 64, 78
1, 8054, Note_off_c, 0, 42, 54
1, 8063, Note_off_c, 0, 44, 62
1, 8067, Control_c, 0, 64, 127
1, 8076, Note_on_c, 0, 45, 80
1, 8076, Note_off_c, 0, 39, 60
1, 8141, Note_off_c, 0, 45, 62
1, 8143, Note_on_c, 0, 44, 74
1, 8189, Note_off_c, 0, 57, 53
1, 8203, Note_on_c, 0, 45, 74
1, 8203, Note_off_c, 0, 44, 64
1, 8258, Note_on_c, 0, 44, 75
1, 8261, Note_off_c, 0, 45, 62
1, 8272, Note_off_c, 0, 69, 51
1, 8318, Note_off_c, 0, 44, 63
1, 8321, Note_on_c, 0, 45, 78
1, 8366, Note_off_c, 0, 66, 49
1, 8375, Note_on_c, 0, 44, 79
1, 8377, Note_off_c, 0, 45, 64
1, 8441, Note_off_c, 0, 44, 62
1, 8443, Note_on_c, 0, 45, 81
1, 8499, Note_on_c, 0, 44, 79
1, 8509, Note_off_c, 0, 45, 63
1, 8572, Note_off_c, 0, 44, 63
1, 8573, Note_on_c, 0, 45, 81
1, 8635, Note_on_c, 0, 44, 82
1, 8637, Note_off_c, 0, 45, 64
1, 8724, Note_on_c, 0, 45, 84
1, 8726, Note_off_c, 0, 44, 64
1, 8737, Poly_aftertouch_c, 0, 42, 127
1, 8774, Poly_aftertouch_c, 0, 42, 0
1, 8792, Note_on_c, 0, 48, 80
1, 8803, Note_on_c, 0, 39, 80
1, 8804, Note_on_c, 0, 44, 84
1, 8813, Note_on_c, 0, 57, 106
1, 8819, Note_on_c, 0, 66, 96
1, 8820, Note_on_c, 0, 69, 98
1, 8830, Control_c, 0, 64, 75
1, 8833, Note_off_c, 0, 48, 62
1, 8845, Control_c, 0, 64, 43
1, 8857, Note_on_c, 0, 62, 31
1, 8860, Control_c, 0, 64, 0
1, 8869, Note_off_c, 0, 45, 63
1, 8875, Control_c, 0, 64, 51
1, 8877, Note_on_c, 0, 42, 25
1, 8890, Control_c, 0, 64, 72
1, 8899, Note_off_c, 0, 62, 30
1, 8904, Control_c, 0, 64, 127
1, 8915, Note_off_c, 0, 42, 44
1, 8918, Note_on_c, 0, 45, 81
1, 8920, Note_off_c, 0, 44, 60
1, 8941, Note_off_c, 0, 39, 60
1, 8992, Note_on_c, 0, 44, 85
1, 8993, Note_off_c, 0, 45, 60
1, 9040, Note_off_c, 0, 57, 58
1, 9055, Note_off_c, 0, 44, 62
1, 9065, Note_on_c, 0, 45, 82
1, 9069, Note_off_c, 0, 69, 52
1, 9123, Note_on_c, 0, 44, 85
1, 9123, Note_off_c, 0, 45, 64
1, 9188, Note_off_c, 0, 44, 62
1, 9194, Note_on_c, 0, 45, 87
1, 9213, Note_off_c, 0, 66, 31
1, 9247, Note_on_c, 0, 44, 88
1, 9248, Note_off_c, 0, 45, 65
1, 9314, Note_on_c, 0, 45, 90
1, 9316, Note_off_c, 0, 44, 61
1, 9364, Note_on_c, 0, 44, 77
1, 9375, Note_off_c, 0, 45, 63
1, 9448, Note_off_c, 0, 44, 63
1, 9450, Note_on_c, 0, 45, 83
1, 9478, Note_on_c, 0, 57, 105
1, 9486, Note_on_c, 0, 69, 88
1, 9506, Note_on_c, 0, 44, 78
1, 9507, Note_on_c, 0, 66, 49
1, 9511, Note_on_c, 0, 67, 55
1, 9511, Note_off_c, 0, 67, 127
1, 9528, Note_off_c, 0, 69, 58
1, 9531, Note_off_c, 0, 66, 38
1, 9534, Poly_aftertouch_c, 0, 67, 0
1, 9537, Note_off_c, 0, 45, 62
1, 9557, Note_on_c, 0, 43, 74
1, 9566, Note_off_c, 0, 57, 59
1, 9603, Note_on_c, 0, 42, 74
1, 9610, Note_on_c, 0, 41, 75
1, 9643, Note_off_c, 0, 44, 61
1, 9658, Note_off_c, 0, 43, 62
1, 9659, Note_off_c, 0, 41, 59
1, 9668, Note_off_c, 0, 42, 64
1, 9705, Note_on_c, 0, 48, 96
1, 9708, Note_on_c, 0, 45, 96
1, 9708, Note_on_c, 0, 52, 103
1, 9710, Note_on_c, 0, 60, 96
1, 9713, Note_on_c, 0, 40, 91
1, 9713, Note_on_c, 0, 57, 94
1, 9715, Note_on_c, 0, 64, 89
1, 9745, Note_on_c, 0, 62, 54
1, 9745, Note_off_c, 0, 62, 127
1, 9770, Control_c, 0, 64, 75
1, 9785, Control_c, 0, 64, 0
1, 9787, Note_off_c, 0, 48, 55
1, 9797, Note_off_c, 0, 45, 63
1, 9844, Control_c, 0, 64, 42
1, 9859, Control_c, 0, 64, 76
1, 9874, Control_c, 0, 64, 127
1, 9881, Note_off_c, 0, 40, 63
1, 9891, Note_on_c, 0, 39, 68
1, 9941, Note_off_c, 0, 39, 59
1, 9968, Note_on_c, 0, 40, 79
1, 10016, Note_off_c, 0, 40, 58
1, 10029, Note_on_c, 0, 39, 79
1, 10079, Note_off_c, 0, 39, 59
1, 10087, Note_on_c, 0, 40, 84
1, 10148, Note_off_c, 0, 40, 55
1, 10153, Note_on_c, 0, 39, 80
1, 10217, Note_off_c, 0, 39, 60
1, 10219, Note_on_c, 0, 40, 85
1, 10275, Note_off_c, 0, 40, 55
1, 10282, Note_on_c, 0, 39, 79
1, 10336, Note_off_c, 0, 39, 60
1, 10342, Note_on_c, 0, 40, 85
1, 10395, Note_off_c, 0, 40, 56
1, 10407, Note_on_c, 0, 39, 82
1, 10462, Note_off_c, 0, 39, 59
1, 10467, Note_on_c, 0, 40, 89
1, 10524, Note_off_c, 0, 40, 57
1, 10530, Note_on_c, 0, 39, 77
1, 10586, Note_off_c, 0, 39, 60
1, 10589, Note_on_c, 0, 40, 83
1, 10634, Note_off_c, 0, 52, 44
1, 10645, Note_off_c, 0, 40, 58
1, 10656, Note_on_c, 0, 39, 77
1, 10680, Note_off_c, 0, 57, 46
1, 10698, Note_off_c, 0, 60, 51
1, 10700, Note_off_c, 0, 39, 58
1, 10709, Note_on_c, 0, 40, 73
1, 10758, Note_off_c, 0, 40, 58
1, 10780, Note_off_c, 0, 64, 39
1, 10781, Note_on_c, 0, 39, 78
1, 10812, Note_off_c, 0, 39, 59
1, 10833, Note_on_c, 0, 40, 92
1, 10881, Note_off_c, 0, 40, 56
1, 10895, Note_on_c, 0, 39, 83
1, 10944, Note_off_c, 0, 39, 59
1, 10961, Note_on_c, 0, 40, 83
1, 11008, Note_off_c, 0, 40, 56
1, 11020, Note_on_c, 0, 39, 77
1, 11077, Note_on_c, 0, 40, 72
1, 11078, Note_off_c, 0, 39, 61
1, 11099, Note_off_c, 0, 40, 67
1, 11135, Control_c, 0, 64, 78
1, 11150, Control_c, 0, 64, 46
1, 11156, Note_on_c, 0, 52, 104
1, 11159, Note_on_c, 0, 56, 94
1, 11161, Note_on_c, 0, 59, 88
1, 11161, Note_on_c, 0, 64, 93
1, 11164, Note_on_c, 0, 40, 79
1, 11165, Control_c, 0, 64, 0
1, 11165, Note_on_c, 0, 47, 96
1, 11174, Note_on_c, 0, 44, 81
1, 11194, Control_c, 0, 64, 58
1, 11209, Control_c, 0, 64, 85
1, 11211, Note_off_c, 0, 64, 65
1, 11219, Note_on_c, 0, 43, 46
1, 11224, Control_c, 0, 64, 127
1, 11230, Note_off_c, 0, 59, 61
1, 11245, Note_off_c, 0, 40, 59
1, 11253, Note_off_c, 0, 56, 59
1, 11255, Note_off_c, 0, 43, 59
1, 11256, Note_off_c, 0, 52, 60
1, 11258, Note_off_c, 0, 44, 62
1, 11266, Note_off_c, 0, 47, 63
1, 11320, Note_on_c, 0, 39, 88
1, 11346, Note_off_c, 0, 39, 68
1, 11401, Note_on_c, 0, 40, 101
1, 11432, Note_off_c, 0, 40, 63
1, 11476, Note_on_c, 0, 39, 106
1, 11506, Note_off_c, 0, 39, 64
1, 11528, Note_on_c, 0, 40, 97
1, 11563, Note_off_c, 0, 40, 67
1, 11603, Note_on_c, 0, 39, 105
1, 11629, Note_off_c, 0, 39, 66
1, 11639, Note_on_c, 0, 40, 110
1, 11642, Note_on_c, 0, 37, 33
1, 11692, Note_off_c, 0, 40, 64
1, 11692, Note_off_c, 0, 37, 49
1, 11729, Note_on_c, 0, 39, 107
1, 11756, Note_off_c, 0, 39, 67
1, 11767, Note_on_c, 0, 40, 103
1, 11847, Note_off_c, 0, 40, 53
1, 11849, Note_on_c, 0, 39, 108
1, 11882, Note_off_c, 0, 39, 67
1, 11908, Note_on_c, 0, 40, 97
1, 11977, Note_on_c, 0, 39, 123
1, 11997, Note_off_c, 0, 40, 60
1, 12005, Note_off_c, 0, 39, 65
1, 12082, Note_on_c, 0, 40, 105
1, 12092, Control_c, 0, 64, 73
1, 12107, Control_c, 0, 64, 0
1, 12116, Note_on_c, 0, 43, 43
1, 12136, Control_c, 0, 64, 39
1, 12151, Control_c, 0, 64, 63
1, 12153, Note_off_c, 0, 43, 55
1, 12166, Control_c, 0, 64, 83
1, 12181, Control_c, 0, 64, 127
1, 12202, Note_off_c, 0, 40, 58
1, 12271, Note_on_c, 0, 39, 86
1, 12337, Note_off_c, 0, 39, 60
1, 12361, Note_on_c, 0, 38, 97
1, 12387, Poly_aftertouch_c, 0, 39, 127
1, 12403, Poly_aftertouch_c, 0, 39, 0
1, 12452, Note_on_c, 0, 37, 95
1, 12454, Poly_aftertouch_c, 0, 39, 0
1, 12480, Note_off_c, 0, 38, 62
1, 12540, Note_on_c, 0, 36, 93
1, 12554, Note_off_c, 0, 37, 58
1, 12586, Note_off_c, 0, 36, 64
1, 12637, Note_on_c, 0, 35, 84
1, 12701, Note_on_c, 0, 34, 88
1, 12727, Note_off_c, 0, 35, 58
1, 12729, Note_off_c, 0, 34, 68
1, 12771, Note_on_c, 0, 33, 91
1, 12782, Control_c, 0, 64, 87
1, 12796, Control_c, 0, 64, 57
1, 12811, Control_c, 0, 64, 0
1, 12870, Control_c, 0, 64, 52
1, 12885, Control_c, 0, 64, 86
1, 12900, Control_c, 0, 64, 127
1, 12911, Note_on_c, 0, 40, 87
1, 12933, Note_off_c, 0, 33, 62
1, 12963, Note_off_c, 0, 40, 61
1, 12986, Note_on_c, 0, 45, 81
1, 13058, Note_on_c, 0, 49, 97
1, 13068, Note_off_c, 0, 45, 65
1, 13069, Note_on_c, 0, 52, 107
1, 13072, Note_on_c, 0, 57, 98
1, 13074, Note_on_c, 0, 64, 103
1, 13075, Note_on_c, 0, 61, 96
1, 13091, Note_off_c, 0, 49, 73
1, 14815, Note_off_c, 0, 52, 33
1, 15159, Note_off_c, 0, 61, 0
1, 15159, Note_on_c, 0, 61, 6
1, 15195, Note_off_c, 0, 64, 59
1, 15197, Note_off_c, 0, 57, 61
1, 15213, Note_off_c, 0, 61, 60
1, 15339, Control_c, 0, 64, 102
1, 15354, Control_c, 0, 64, 83
1, 15369, Control_c, 0, 64, 70
1, 15383, Control_c, 0, 64, 61
1, 15398, Control_c, 0, 64, 47
1, 15421, Control_c, 0, 64, 41
1, 15451, Control_c, 0, 64, 41
1, 15480, Control_c, 0, 64, 41
1, 15495, Control_c, 0, 64, 39
1, 15509, Control_c, 0, 64, 34
1, 15524, Control_c, 0, 64, 0
1, 15713, Note_on_c, 0, 35, 68
1, 15743, Note_off_c, 0, 35, 63
1, 15755, Note_on_c, 0, 43, 67
1, 15762, Control_c, 0, 64, 65
1, 15766, Note_on_c, 0, 55, 111
1, 15771, Note_on_c, 0, 62, 89
1, 15772, Note_on_c, 0, 65, 96
1, 15773, Note_on_c, 0, 67, 92
1, 15775, Note_on_c, 0, 50, 91
1, 15777, Control_c, 0, 64, 97
1, 15792, Control_c, 0, 64, 127
1, 15809, Note_off_c, 0, 55, 67
1, 15818, Note_off_c, 0, 62, 62
1, 15819, Note_off_c, 0, 65, 64
1, 15820, Note_off_c, 0, 50, 61
1, 15820, Note_off_c, 0, 67, 63
1, 15847, Note_off_c, 0, 43, 58
1, 15850, Note_on_c, 0, 36, 73
1, 15877, Note_on_c, 0, 55, 112
1, 15878, Note_off_c, 0, 36, 63
1, 15880, Note_on_c, 0, 43, 56
1, 15880, Note_on_c, 0, 64, 94
1, 15881, Note_on_c, 0, 67, 83
1, 15883, Note_on_c, 0, 60, 87
1, 15893, Note_on_c, 0, 65, 83
1, 15901, Note_on_c, 0, 38, 35
1, 15906, Note_on_c, 0, 52, 104
1, 15906, Note_off_c, 0, 65, 73
1, 15920, Note_on_c, 0, 44, 55
1, 15920, Note_off_c, 0, 44, 127
1, 15941, Note_off_c, 0, 38, 53
1, 15955, Control_c, 0, 64, 76
1, 15970, Control_c, 0, 64, 49
1, 15985, Control_c, 0, 64, 0
1, 16044, Control_c, 0, 64, 40
1, 16059, Control_c, 0, 64, 67
1, 16074, Control_c, 0, 64, 84
1, 16089, Control_c, 0, 64, 127
1, 16249, Note_off_c, 0, 52, 53
1, 16277, Note_off_c, 0, 55, 48
1, 16298, Note_off_c, 0, 67, 54
1, 16352, Note_off_c, 0, 64, 58
1, 16353, Note_off_c, 0, 60, 60
1, 16377, Note_off_c, 0, 43, 35
1, 16661, Note_on_c, 0, 36, 54
1, 16694, Note_off_c, 0, 36, 61
1, 16695, Note_on_c, 0, 43, 74
1, 16717, Note_on_c, 0, 55, 117
1, 16720, Note_on_c, 0, 63, 95
1, 16721, Note_on_c, 0, 60, 93
1, 16725, Note_on_c, 0, 51, 101
1, 16725, Note_on_c, 0, 67, 89
1, 16772, Note_on_c, 0, 65, 33
1, 16834, Poly_aftertouch_c, 0, 64, 127
1, 16837, Control_c, 0, 64, 91
1, 16852, Control_c, 0, 64, 67
1, 16867, Control_c, 0, 64, 0
1, 16869, Poly_aftertouch_c, 0, 64, 0
1, 16894, Note_off_c, 0, 65, 26
1, 16963, Control_c, 0, 64, 55
1, 16978, Control_c, 0, 64, 68
1, 16993, Control_c, 0, 64, 85
1, 17008, Control_c, 0, 64, 127
1, 17213, Note_off_c, 0, 43, 38
1, 17448, Note_off_c, 0, 51, 61
1, 17460, Note_off_c, 0, 55, 57
1, 17464, Note_off_c, 0, 67, 60
1, 17476, Note_off_c, 0, 60, 60
1, 17488, Note_off_c, 0, 63, 61
1, 17585, Control_c, 0, 64, 94
1, 17600, Control_c, 0, 64, 71
1, 17615, Control_c, 0, 64, 52
1, 17630, Control_c, 0, 64, 0
1, 17821, Note_on_c, 0, 50, 104
1, 17826, Note_on_c, 0, 47, 85
1, 17830, Note_on_c, 0, 55, 104
1, 17831, Note_on_c, 0, 62, 98
1, 17833, Note_on_c, 0, 59, 87
1, 17838, Note_on_c, 0, 67, 82
1, 17844, Note_on_c, 0, 38, 38
1, 17845, Control_c, 0, 64, 65
1, 17857, Note_off_c, 0, 50, 65
1, 17860, Control_c, 0, 64, 127
1, 17863, Note_off_c, 0, 47, 63
1, 17875, Note_on_c, 0, 64, 35
1, 17884, Note_off_c, 0, 38, 55
1, 17884, Note_off_c, 0, 67, 58
1, 17885, Note_off_c, 0, 55, 63
1, 17894, Note_off_c, 0, 59, 62
1, 17903, Note_off_c, 0, 64, 52
1, 17904, Note_off_c, 0, 62, 61
1, 18154, Note_on_c, 0, 49, 99
1, 18155, Note_on_c, 0, 58, 94
1, 18159, Note_on_c, 0, 55, 104
1, 18160, Note_on_c, 0, 61, 90
1, 18163, Note_on_c, 0, 46, 92
1, 18165, Note_on_c, 0, 67, 88
1, 18166, Note_on_c, 0, 40, 77
1, 18187, Control_c, 0, 64, 63
1, 18200, Note_on_c, 0, 63, 22
1, 18201, Control_c, 0, 64, 0
1, 18222, Note_on_c, 0, 64, 45
1, 18231, Control_c, 0, 64, 62
1, 18246, Control_c, 0, 64, 107
1, 18260, Control_c, 0, 64, 127
1, 18262, Note_off_c, 0, 40, 61
1, 18272, Note_off_c, 0, 67, 61
1, 18277, Note_off_c, 0, 55, 65
1, 18283, Note_off_c, 0, 64, 53
1, 18289, Note_off_c, 0, 49, 67
1, 18293, Note_off_c, 0, 58, 65
1, 18298, Note_off_c, 0, 46, 64
1, 18301, Note_off_c, 0, 61, 63
1, 18315, Note_off_c, 0, 63, 28
1, 18416, Control_c, 0, 64, 81
1, 18431, Control_c, 0, 64, 56
1, 18446, Control_c, 0, 64, 0
1, 18851, Note_on_c, 0, 49, 107
1, 18853, Note_on_c, 0, 55, 102
1, 18855, Note_on_c, 0, 67, 91
1, 18858, Note_on_c, 0, 61, 94
1, 18864, Note_on_c, 0, 40, 72
1, 18864, Note_on_c, 0, 58, 65
1, 18864, Note_off_c, 0, 58, 127
1, 18870, Note_on_c, 0, 59, 78
1, 18873, Note_on_c, 0, 46, 63
1, 18875, Control_c, 0, 64, 64
1, 18877, Note_on_c, 0, 45, 79
1, 18877, Note_on_c, 0, 57, 60
1, 18877, Note_off_c, 0, 57, 127
1, 18889, Note_on_c, 0, 64, 61
1, 18890, Control_c, 0, 64, 127
1, 18900, Note_off_c, 0, 40, 64
1, 18905, Note_off_c, 0, 46, 51
1, 18907, Note_off_c, 0, 67, 66
1, 18908, Note_off_c, 0, 45, 68
1, 18909, Note_off_c, 0, 55, 67
1, 18911, Note_off_c, 0, 49, 66
1, 18915, Note_off_c, 0, 64, 67
1, 18920, Note_off_c, 0, 59, 65
1, 18930, Note_off_c, 0, 61, 63
1, 19195, Control_c, 0, 64, 99
1, 19210, Control_c, 0, 64, 81
1, 19225, Control_c, 0, 64, 68
1, 19240, Control_c, 0, 64, 57
1, 19255, Control_c, 0, 64, 36
1, 19270, Control_c, 0, 64, 0
1, 20122, Control_c, 0, 64, 37
1, 20137, Control_c, 0, 64, 49
1, 20152, Control_c, 0, 64, 58
1, 20167, Control_c, 0, 64, 63
1, 20181, Control_c, 0, 64, 68
1, 20196, Control_c, 0, 64, 74
1, 20211, Control_c, 0, 64, 84
1, 20225, Control_c, 0, 64, 98
1, 20240, Control_c, 0, 64, 127
1, 20631, Note_on_c, 0, 39, 7
1, 20726, Note_on_c, 0, 43, 15
1, 20727, Note_off_c, 0, 39, 35
1, 20811, Note_on_c, 0, 48, 30
1, 20866, Note_off_c, 0, 48, 53
1, 20922, Note_on_c, 0, 55, 44
1, 20939, Note_on_c, 0, 60, 32
1, 20949, Note_on_c, 0, 67, 25
1, 20963, Note_off_c, 0, 43, 38
1, 20983, Note_on_c, 0, 42, 40
1, 21040, Note_off_c, 0, 42, 59
1, 21107, Note_on_c, 0, 43, 18
1, 21110, Note_off_c, 0, 67, 21
1, 21148, Note_on_c, 0, 42, 49
1, 21180, Note_off_c, 0, 42, 64
1, 21183, Note_off_c, 0, 43, 0
1, 21198, Note_on_c, 0, 43, 38
1, 21219, Note_off_c, 0, 55, 36
1, 21239, Note_off_c, 0, 43, 62
1, 21273, Note_on_c, 0, 42, 45
1, 21302, Note_off_c, 0, 42, 56
1, 21305, Note_on_c, 0, 43, 54
1, 21342, Note_off_c, 0, 43, 59
1, 21358, Note_on_c, 0, 42, 60
1, 21363, Note_off_c, 0, 60, 34
1, 21389, Note_off_c, 0, 42, 64
1, 21405, Note_on_c, 0, 43, 61
1, 21452, Note_off_c, 0, 43, 63
1, 21458, Note_on_c, 0, 42, 75
1, 21508, Note_on_c, 0, 43, 66
1, 21513, Note_off_c, 0, 42, 63
1, 21571, Note_on_c, 0, 55, 89
1, 21575, Note_on_c, 0, 67, 78
1, 21577, Note_on_c, 0, 42, 64
1, 21598, Note_off_c, 0, 55, 62
1, 21598, Note_off_c, 0, 67, 67
1, 21627, Note_off_c, 0, 43, 61
1, 21668, Note_on_c, 0, 38, 64
1, 21669, Note_on_c, 0, 47, 63
1, 21675, Note_off_c, 0, 42, 62
1, 21679, Note_on_c, 0, 59, 69
1, 21683, Note_on_c, 0, 67, 79
1, 21684, Note_on_c, 0, 55, 75
1, 21685, Note_on_c, 0, 62, 71
1, 21699, Note_on_c, 0, 43, 54
1, 21701, Note_off_c, 0, 55, 64
1, 21723, Control_c, 0, 64, 87
1, 21734, Note_off_c, 0, 47, 61
1, 21738, Control_c, 0, 64, 64
1, 21753, Control_c, 0, 64, 0
1, 21771, Note_off_c, 0, 38, 60
1, 21774, Note_on_c, 0, 42, 66
1, 21774, Note_off_c, 0, 43, 63
1, 21783, Control_c, 0, 64, 52
1, 21797, Control_c, 0, 64, 66
1, 21812, Control_c, 0, 64, 82
1, 21819, Note_off_c, 0, 42, 61
1, 21827, Control_c, 0, 64, 127
1, 21834, Note_on_c, 0, 43, 68
1, 21886, Note_off_c, 0, 43, 60
1, 21893, Note_on_c, 0, 42, 73
1, 21939, Note_off_c, 0, 42, 59
1, 21953, Note_on_c, 0, 43, 79
1, 21965, Note_off_c, 0, 67, 56
1, 22001, Note_off_c, 0, 43, 58
1, 22003, Note_on_c, 0, 42, 79
1, 22006, Note_off_c, 0, 59, 37
1, 22048, Note_off_c, 0, 62, 53
1, 22059, Note_off_c, 0, 42, 61
1, 22063, Note_on_c, 0, 43, 80
1, 22113, Note_on_c, 0, 42, 80
1, 22116, Note_off_c, 0, 43, 63
1, 22175, Note_off_c, 0, 42, 64
1, 22182, Note_on_c, 0, 43, 81
1, 22238, Note_on_c, 0, 42, 75
1, 22244, Note_off_c, 0, 43, 63
1, 22286, Note_off_c, 0, 42, 63
1, 22294, Note_on_c, 0, 43, 54
1, 22340, Note_on_c, 0, 37, 87
1, 22355, Note_off_c, 0, 43, 60
1, 22416, Note_off_c, 0, 37, 61
1, 22442, Control_c, 0, 64, 91
1, 22456, Note_on_c, 0, 52, 98
1, 22457, Control_c, 0, 64, 58
1, 22458, Note_on_c, 0, 55, 105
1, 22461, Note_on_c, 0, 46, 79
1, 22461, Note_on_c, 0, 64, 97
1, 22465, Note_on_c, 0, 67, 92
1, 22472, Control_c, 0, 64, 0
1, 22487, Control_c, 0, 64, 45
1, 22490, Note_on_c, 0, 61, 46
1, 22495, Note_on_c, 0, 63, 43
1, 22501, Control_c, 0, 64, 71
1, 22505, Note_off_c, 0, 52, 63
1, 22516, Control_c, 0, 64, 127
1, 22519, Note_off_c, 0, 61, 52
1, 22547, Note_on_c, 0, 42, 81
1, 22558, Note_off_c, 0, 46, 61
1, 22570, Note_off_c, 0, 55, 62
1, 22582, Note_off_c, 0, 67, 60
1, 22589, Poly_aftertouch_c, 0, 44, 0
1, 22600, Note_off_c, 0, 42, 61
1, 22629, Note_on_c, 0, 43, 72
1, 22634, Note_off_c, 0, 64, 58
1, 22649, Note_off_c, 0, 63, 51
1, 22696, Note_on_c, 0, 42, 81
1, 22696, Note_off_c, 0, 43, 61
1, 22731, Note_off_c, 0, 42, 62
1, 22767, Note_on_c, 0, 43, 74
1, 22822, Note_on_c, 0, 42, 82
1, 22822, Note_off_c, 0, 43, 61
1, 22859, Note_off_c, 0, 42, 55
1, 22903, Note_on_c, 0, 43, 74
1, 22952, Note_off_c, 0, 43, 62
1, 22953, Note_on_c, 0, 42, 82
1, 22995, Note_off_c, 0, 42, 60
1, 23026, Note_on_c, 0, 43, 78
1, 23058, Note_on_c, 0, 55, 111
1, 23064, Note_on_c, 0, 67, 92
1, 23081, Note_on_c, 0, 65, 73
1, 23082, Note_off_c, 0, 43, 65
1, 23083, Note_on_c, 0, 42, 80
1, 23121, Note_on_c, 0, 64, 14
1, 23133, Note_off_c, 0, 42, 60
1, 23148, Note_on_c, 0, 43, 73
1, 23166, Poly_aftertouch_c, 0, 63, 127
1, 23169, Note_on_c, 0, 63, 3
1, 23180, Note_off_c, 0, 67, 60
1, 23201, Note_on_c, 0, 42, 80
1, 23203, Note_off_c, 0, 43, 63
1, 23223, Note_off_c, 0, 65, 43
1, 23248, Note_off_c, 0, 42, 61
1, 23249, Note_off_c, 0, 64, 36
1, 23261, Note_off_c, 0, 55, 56
1, 23268, Note_on_c, 0, 43, 78
1, 23275, Poly_aftertouch_c, 0, 61, 127
1, 23293, Note_off_c, 0, 63, 47
1, 23313, Poly_aftertouch_c, 0, 61, 0
1, 23324, Note_on_c, 0, 42, 82
1, 23342, Note_off_c, 0, 43, 61
1, 23371, Note_off_c, 0, 42, 64
1, 23405, Note_on_c, 0, 41, 85
1, 23463, Note_off_c, 0, 41, 60
1, 23473, Note_on_c, 0, 40, 71
1, 23528, Note_on_c, 0, 39, 76
1, 23542, Note_off_c, 0, 40, 61
1, 23583, Note_on_c, 0, 45, 106
1, 23586, Note_on_c, 0, 50, 107
1, 23587, Note_on_c, 0, 57, 95
1, 23589, Note_on_c, 0, 38, 83
1, 23589, Control_c, 0, 64, 74
1, 23592, Note_on_c, 0, 55, 89
1, 23592, Note_on_c, 0, 62, 94
1, 23596, Note_on_c, 0, 43, 81
1, 23604, Control_c, 0, 64, 0
1, 23610, Note_off_c, 0, 39, 53
1, 23634, Control_c, 0, 64, 45
1, 23656, Control_c, 0, 64, 69
1, 23664, Note_off_c, 0, 45, 62
1, 23666, Note_on_c, 0, 59, 22
1, 23671, Control_c, 0, 64, 127
1, 23673, Note_off_c, 0, 43, 62
1, 23675, Note_on_c, 0, 60, 11
1, 23733, Note_off_c, 0, 38, 38
1, 23741, Note_off_c, 0, 62, 60
1, 23742, Note_off_c, 0, 50, 54
1, 23743, Note_on_c, 0, 37, 75
1, 23769, Note_off_c, 0, 60, 33
1, 23796, Note_off_c, 0, 37, 60
1, 23822, Note_off_c, 0, 59, 34
1, 23824, Note_on_c, 0, 38, 78
1, 23828, Note_off_c, 0, 55, 55
1, 23836, Note_off_c, 0, 57, 58
1, 23870, Note_off_c, 0, 38, 62
1, 23877, Note_on_c, 0, 37, 77
1, 23932, Note_off_c, 0, 37, 61
1, 23944, Note_on_c, 0, 38, 83
1, 23996, Note_off_c, 0, 38, 60
1, 24001, Note_on_c, 0, 37, 74
1, 24057, Note_off_c, 0, 37, 59
1, 24071, Note_on_c, 0, 38, 83
1, 24103, Note_off_c, 0, 38, 65
1, 24122, Note_on_c, 0, 37, 74
1, 24181, Note_off_c, 0, 37, 57
1, 24188, Note_on_c, 0, 38, 85
1, 24229, Note_off_c, 0, 38, 55
1, 24245, Note_on_c, 0, 37, 70
1, 24282, Note_off_c, 0, 37, 62
1, 24315, Note_on_c, 0, 38, 72
1, 24353, Note_off_c, 0, 38, 62
1, 24360, Note_on_c, 0, 37, 69
1, 24395, Note_off_c, 0, 37, 63
1, 24436, Control_c, 0, 64, 75
1, 24437, Note_on_c, 0, 50, 105
1, 24443, Note_on_c, 0, 45, 103
1, 24443, Note_on_c, 0, 57, 92
1, 24448, Note_on_c, 0, 54, 87
1, 24451, Control_c, 0, 64, 36
1, 24451, Note_on_c, 0, 38, 79
1, 24456, Note_on_c, 0, 42, 69
1, 24465, Control_c, 0, 64, 0
1, 24477, Note_on_c, 0, 41, 59
1, 24492, Note_off_c, 0, 42, 0
1, 24492, Note_on_c, 0, 42, 26
1, 24495, Control_c, 0, 64, 55
1, 24510, Control_c, 0, 64, 75
1, 24525, Control_c, 0, 64, 127
1, 24576, Note_off_c, 0, 38, 60
1, 24576, Note_off_c, 0, 57, 62
1, 24579, Note_off_c, 0, 45, 61
1, 24588, Note_off_c, 0, 50, 61
1, 24595, Note_off_c, 0, 42, 46
1, 24602, Note_off_c, 0, 54, 61
1, 24603, Note_off_c, 0, 41, 39
1, 24605, Note_on_c, 0, 39, 85
1, 24647, Note_off_c, 0, 39, 64
1, 24718, Note_on_c, 0, 39, 100
1, 24755, Note_off_c, 0, 39, 64
1, 24769, Note_on_c, 0, 38, 101
1, 24802, Note_off_c, 0, 38, 65
1, 24833, Note_on_c, 0, 39, 104
1, 24875, Note_off_c, 0, 39, 64
1, 24887, Note_on_c, 0, 38, 104
1, 24921, Note_off_c, 0, 38, 68
1, 24950, Note_on_c, 0, 39, 104
1, 24976, Note_on_c, 0, 42, 55
1, 25001, Note_off_c, 0, 39, 62
1, 25002, Note_on_c, 0, 38, 104
1, 25023, Note_off_c, 0, 42, 62
1, 25034, Note_off_c, 0, 38, 69
1, 25070, Note_on_c, 0, 39, 107
1, 25117, Note_off_c, 0, 39, 63
1, 25118, Note_on_c, 0, 38, 106
1, 25166, Note_off_c, 0, 38, 64
1, 25196, Note_on_c, 0, 39, 106
1, 25242, Note_on_c, 0, 38, 103
1, 25265, Note_off_c, 0, 39, 43
1, 25307, Note_off_c, 0, 38, 67
1, 25310, Poly_aftertouch_c, 0, 40, 127
1, 25313, Note_on_c, 0, 39, 101
1, 25339, Poly_aftertouch_c, 0, 40, 0
1, 25375, Poly_aftertouch_c, 0, 40, 127
1, 25384, Note_on_c, 0, 38, 119
1, 25437, Control_c, 0, 64, 99
1, 25452, Control_c, 0, 64, 64
1, 25467, Control_c, 0, 64, 0
1, 25475, Poly_aftertouch_c, 0, 40, 0
1, 25512, Control_c, 0, 64, 38
1, 25526, Control_c, 0, 64, 68
1, 25529, Note_off_c, 0, 39, 27
1, 25541, Control_c, 0, 64, 100
1, 25556, Control_c, 0, 64, 127
1, 25604, Note_on_c, 0, 37, 96
1, 25606, Note_off_c, 0, 38, 57
1, 25648, Note_off_c, 0, 37, 62
1, 25708, Note_on_c, 0, 36, 93
1, 25759, Note_off_c, 0, 36, 63
1, 25803, Note_on_c, 0, 35, 86
1, 25858, Poly_aftertouch_c, 0, 36, 127
1, 25881, Note_on_c, 0, 34, 81
1, 25899, Poly_aftertouch_c, 0, 36, 0
1, 25920, Note_off_c, 0, 35, 59
1, 25962, Note_on_c, 0, 33, 90
1, 25965, Note_off_c, 0, 34, 60
1, 26030, Note_on_c, 0, 32, 91
1, 26044, Note_off_c, 0, 33, 64
1, 26063, Note_off_c, 0, 32, 65
1, 26090, Note_on_c, 0, 31, 103
1, 26096, Control_c, 0, 64, 86
1, 26112, Control_c, 0, 64, 56
1, 26127, Control_c, 0, 64, 0
1, 26171, Control_c, 0, 64, 60
1, 26186, Control_c, 0, 64, 86
1, 26200, Control_c, 0, 64, 127
1, 26221, Note_on_c, 0, 38, 85
1, 26233, Note_off_c, 0, 31, 59
1, 26267, Note_off_c, 0, 38, 64
1, 26291, Note_on_c, 0, 43, 78
1, 26358, Note_on_c, 0, 47, 94
1, 26368, Note_off_c, 0, 43, 64
1, 26385, Note_on_c, 0, 50, 101
1, 26388, Note_on_c, 0, 55, 97
1, 26388, Note_on_c, 0, 59, 98
1, 26391, Note_on_c, 0, 62, 102
1, 26469, Poly_aftertouch_c, 0, 58, 127
1, 26518, Poly_aftertouch_c, 0, 58, 0
1, 27533, Note_off_c, 0, 50, 33
1, 28368, Note_off_c, 0, 59, 0
1, 28382, Note_on_c, 0, 59, 41
1, 28391, Note_off_c, 0, 47, 67
1, 28406, Note_off_c, 0, 55, 54
1, 28406, Note_off_c, 0, 62, 63
1, 28411, Note_off_c, 0, 59, 65
1, 28461, Control_c, 0, 64, 87
1, 28476, Control_c, 0, 64, 63
1, 28490, Control_c, 0, 64, 0
1, 29109, Note_on_c, 0, 44, 100
1, 29118, Note_on_c, 0, 50, 104
1, 29121, Note_on_c, 0, 62, 99
1, 29125, Note_on_c, 0, 41, 71
1, 29136, Note_on_c, 0, 35, 46
1, 29136, Control_c, 0, 64, 44
1, 29139, Note_on_c, 0, 60, 61
1, 29151, Control_c, 0, 64, 127
1, 29157, Note_off_c, 0, 41, 62
1, 29159, Note_off_c, 0, 44, 66
1, 29171, Note_off_c, 0, 35, 47
1, 29177, Note_off_c, 0, 60, 44
1, 29181, Note_off_c, 0, 50, 68
1, 29194, Note_off_c, 0, 62, 59
1, 29204, Note_on_c, 0, 54, 56
1, 29210, Note_on_c, 0, 56, 69
1, 29214, Note_on_c, 0, 53, 76
1, 29229, Note_off_c, 0, 54, 59
1, 29259, Note_off_c, 0, 53, 62
1, 29267, Note_on_c, 0, 62, 72
1, 29273, Note_off_c, 0, 56, 63
1, 29292, Note_off_c, 0, 62, 69
1, 29332, Note_on_c, 0, 62, 86
1, 29387, Note_on_c, 0, 65, 87
1, 29397, Note_on_c, 0, 68, 83
1, 29399, Note_off_c, 0, 62, 63
1, 29433, Note_off_c, 0, 65, 67
1, 29437, Note_on_c, 0, 74, 82
1, 29447, Note_off_c, 0, 68, 65
1, 29456, Note_off_c, 0, 74, 70
1, 29499, Note_on_c, 0, 74, 86
1, 29550, Note_on_c, 0, 77, 85
1, 29566, Note_on_c, 0, 80, 86
1, 29571, Note_off_c, 0, 74, 63
1, 29597, Note_off_c, 0, 77, 67
1, 29598, Note_on_c, 0, 86, 85
1, 29605, Note_off_c, 0, 80, 66
1, 29614, Note_off_c, 0, 86, 73
1, 29671, Note_on_c, 0, 86, 89
1, 29718, Note_on_c, 0, 89, 89
1, 29735, Note_on_c, 0, 92, 78
1, 29739, Note_off_c, 0, 86, 63
1, 29765, Note_on_c, 0, 98, 101
1, 29774, Note_on_c, 0, 62, 102
1, 29780, Note_on_c, 0, 56, 94
1, 29780, Note_off_c, 0, 89, 61
1, 29785, Note_off_c, 0, 92, 64
1, 29791, Note_on_c, 0, 53, 76
1, 29804, Note_off_c, 0, 62, 69
1, 29810, Note_on_c, 0, 50, 36
1, 29824, Note_off_c, 0, 56, 64
1, 29825, Note_off_c, 0, 53, 64
1, 29828, Note_on_c, 0, 92, 79
1, 29843, Note_off_c, 0, 50, 52
1, 29849, Note_on_c, 0, 89, 86
1, 29865, Note_off_c, 0, 98, 66
1, 29899, Note_off_c, 0, 92, 62
1, 29900, Note_off_c, 0, 89, 66
1, 29900, Note_on_c, 0, 86, 80
1, 29924, Note_off_c, 0, 86, 67
1, 29926, Note_on_c, 0, 88, 24
1, 29964, Note_off_c, 0, 88, 47
1, 29974, Note_on_c, 0, 86, 85
1, 30030, Note_on_c, 0, 80, 88
1, 30053, Note_on_c, 0, 77, 78
1, 30062, Note_off_c, 0, 86, 63
1, 30091, Note_off_c, 0, 80, 61
1, 30102, Note_on_c, 0, 74, 87
1, 30109, Note_off_c, 0, 77, 63
1, 30126, Note_off_c, 0, 74, 68
1, 30174, Note_on_c, 0, 74, 83
1, 30233, Note_on_c, 0, 68, 82
1, 30252, Note_off_c, 0, 74, 61
1, 30257, Note_on_c, 0, 65, 77
1, 30289, Note_off_c, 0, 68, 63
1, 30301, Note_on_c, 0, 62, 82
1, 30306, Note_off_c, 0, 65, 66
1, 30331, Note_off_c, 0, 62, 65
1, 30388, Note_on_c, 0, 62, 65
1, 30429, Note_on_c, 0, 56, 81
1, 30443, Note_on_c, 0, 53, 76
1, 30446, Note_off_c, 0, 62, 60
1, 30457, Control_c, 0, 64, 97
1, 30472, Control_c, 0, 64, 60
1, 30473, Note_off_c, 0, 53, 64
1, 30486, Control_c, 0, 64, 0
1, 30492, Note_on_c, 0, 44, 108
1, 30496, Note_on_c, 0, 50, 100
1, 30505, Note_on_c, 0, 41, 77
1, 30506, Note_on_c, 0, 35, 66
1, 30518, Note_off_c, 0, 56, 59
1, 30520, Note_on_c, 0, 60, 52
1, 30531, Control_c, 0, 64, 64
1, 30541, Note_off_c, 0, 35, 62
1, 30546, Note_off_c, 0, 60, 58
1, 30546, Control_c, 0, 64, 106
1, 30558, Note_off_c, 0, 44, 67
1, 30558, Note_off_c, 0, 41, 59
1, 30560, Control_c, 0, 64, 127
1, 30570, Note_on_c, 0, 53, 75
1, 30581, Note_off_c, 0, 50, 66
1, 30593, Note_on_c, 0, 56, 66
1, 30601, Poly_aftertouch_c, 0, 38, 127
1, 30632, Note_off_c, 0, 53, 64
1, 30635, Poly_aftertouch_c, 0, 38, 0
1, 30636, Note_on_c, 0, 62, 79
1, 30648, Note_off_c, 0, 56, 62
1, 30660, Note_off_c, 0, 62, 69
1, 30696, Note_on_c, 0, 62, 90
1, 30755, Note_on_c, 0, 65, 94
1, 30763, Note_off_c, 0, 62, 64
1, 30796, Note_on_c, 0, 69, 74
1, 30806, Note_off_c, 0, 65, 64
1, 30810, Note_on_c, 0, 74, 86
1, 30818, Note_off_c, 0, 69, 69
1, 30829, Note_off_c, 0, 74, 69
1, 30877, Note_on_c, 0, 74, 92
1, 30931, Note_on_c, 0, 77, 88
1, 30938, Note_off_c, 0, 74, 67
1, 30948, Note_on_c, 0, 80, 89
1, 30970, Note_on_c, 0, 86, 88
1, 30971, Note_off_c, 0, 77, 66
1, 30985, Note_off_c, 0, 80, 65
1, 30989, Note_off_c, 0, 86, 70
1, 31037, Note_on_c, 0, 86, 90
1, 31092, Note_on_c, 0, 89, 93
1, 31113, Note_on_c, 0, 92, 76
1, 31115, Note_off_c, 0, 86, 64
1, 31149, Note_on_c, 0, 98, 99
1, 31156, Note_on_c, 0, 62, 103
1, 31163, Note_on_c, 0, 56, 92
1, 31163, Note_off_c, 0, 89, 61
1, 31173, Note_off_c, 0, 92, 64
1, 31175, Note_on_c, 0, 50, 64
1, 31179, Note_on_c, 0, 53, 76
1, 31181, Note_on_c, 0, 57, 79
1, 31193, Note_off_c, 0, 62, 67
1, 31198, Note_off_c, 0, 56, 41
1, 31199, Note_off_c, 0, 50, 60
1, 31207, Note_off_c, 0, 57, 69
1, 31212, Note_on_c, 0, 92, 78
1, 31213, Note_on_c, 0, 52, 30
1, 31219, Note_off_c, 0, 53, 63
1, 31236, Note_on_c, 0, 89, 83
1, 31250, Note_off_c, 0, 98, 65
1, 31253, Note_off_c, 0, 52, 52
1, 31279, Note_off_c, 0, 92, 64
1, 31280, Note_on_c, 0, 86, 85
1, 31286, Note_off_c, 0, 89, 66
1, 31308, Note_off_c, 0, 86, 61
1, 31357, Note_on_c, 0, 86, 88
1, 31424, Note_on_c, 0, 80, 90
1, 31445, Note_on_c, 0, 77, 77
1, 31450, Note_off_c, 0, 86, 62
1, 31479, Note_off_c, 0, 80, 63
1, 31490, Note_on_c, 0, 74, 86
1, 31495, Note_off_c, 0, 77, 66
1, 31512, Note_off_c, 0, 74, 67
1, 31562, Note_on_c, 0, 74, 83
1, 31626, Note_on_c, 0, 68, 84
1, 31643, Note_off_c, 0, 74, 62
1, 31644, Note_on_c, 0, 65, 82
1, 31679, Note_off_c, 0, 68, 63
1, 31691, Note_on_c, 0, 62, 78
1, 31694, Note_off_c, 0, 65, 65
1, 31715, Note_off_c, 0, 62, 68
1, 31784, Note_on_c, 0, 62, 59
1, 31828, Note_off_c, 0, 62, 60
1, 31833, Note_on_c, 0, 53, 75
1, 31852, Note_on_c, 0, 57, 44
1, 31858, Note_off_c, 0, 53, 65
1, 31888, Note_on_c, 0, 44, 107
1, 31891, Note_off_c, 0, 57, 55
1, 31893, Note_on_c, 0, 35, 82
1, 31897, Note_on_c, 0, 41, 84
1, 31897, Note_on_c, 0, 50, 108
1, 31939, Control_c, 0, 64, 92
1, 31954, Control_c, 0, 64, 60
1, 31969, Control_c, 0, 64, 0
1, 32007, Poly_aftertouch_c, 0, 52, 0
1, 32043, Control_c, 0, 64, 68
1, 32058, Control_c, 0, 64, 88
1, 32073, Control_c, 0, 64, 127
1, 33211, Note_off_c, 0, 44, 65
1, 33217, Note_off_c, 0, 35, 60
1, 33220, Note_off_c, 0, 41, 65
1, 33229, Note_off_c, 0, 50, 66
1, 33280, Control_c, 0, 64, 87
1, 33295, Control_c, 0, 64, 63
1, 33311, Control_c, 0, 64, 0
1, 34288, Note_on_c, 0, 37, 108
1, 34298, Note_on_c, 0, 45, 110
1, 34301, Note_on_c, 0, 33, 76
1, 34302, Note_on_c, 0, 31, 66
1, 34305, Note_on_c, 0, 57, 94
1, 34315, Note_on_c, 0, 28, 52
1, 34320, Control_c, 0, 64, 72
1, 34326, Note_on_c, 0, 56, 49
1, 34326, Note_off_c, 0, 56, 127
1, 34334, Note_on_c, 0, 25, 17
1, 34335, Control_c, 0, 64, 127
1, 34335, Note_off_c, 0, 37, 65
1, 34338, Note_off_c, 0, 33, 63
1, 34341, Note_off_c, 0, 31, 63
1, 34346, Note_on_c, 0, 47, 5
1, 34346, Note_off_c, 0, 47, 127
1, 34347, Note_off_c, 0, 28, 59
1, 34354, Poly_aftertouch_c, 0, 56, 0
1, 34373, Note_on_c, 0, 54, 1
1, 34380, Note_off_c, 0, 57, 61
1, 34382, Note_on_c, 0, 52, 72
1, 34383, Note_on_c, 0, 49, 82
1, 34386, Note_off_c, 0, 45, 65
1, 34388, Note_off_c, 0, 25, 49
1, 34426, Note_off_c, 0, 49, 64
1, 34430, Note_off_c, 0, 54, 0
1, 34435, Note_on_c, 0, 57, 68
1, 34443, Note_off_c, 0, 52, 62
1, 34454, Note_off_c, 0, 57, 72
1, 34466, Poly_aftertouch_c, 0, 54, 127
1, 34501, Note_on_c, 0, 57, 89
1, 34501, Poly_aftertouch_c, 0, 54, 0
1, 34559, Note_on_c, 0, 61, 86
1, 34574, Note_on_c, 0, 64, 77
1, 34577, Note_off_c, 0, 57, 65
1, 34599, Note_off_c, 0, 61, 65
1, 34612, Note_on_c, 0, 69, 71
1, 34616, Note_off_c, 0, 64, 66
1, 34632, Note_off_c, 0, 69, 71
1, 34670, Note_on_c, 0, 69, 87
1, 34732, Note_on_c, 0, 73, 92
1, 34748, Note_on_c, 0, 76, 87
1, 34754, Note_off_c, 0, 69, 62
1, 34771, Note_off_c, 0, 73, 68
1, 34779, Note_on_c, 0, 81, 81
1, 34782, Note_off_c, 0, 76, 62
1, 34798, Note_off_c, 0, 81, 71
1, 34845, Note_on_c, 0, 81, 94
1, 34905, Note_on_c, 0, 85, 94
1, 34923, Note_off_c, 0, 81, 61
1, 34928, Note_on_c, 0, 88, 68
1, 34945, Note_off_c, 0, 85, 65
1, 34959, Note_on_c, 0, 93, 106
1, 34967, Note_on_c, 0, 55, 101
1, 34967, Note_on_c, 0, 57, 106
1, 34979, Note_off_c, 0, 88, 59
1, 34985, Note_on_c, 0, 52, 69
1, 34987, Note_on_c, 0, 49, 70
1, 35000, Note_off_c, 0, 57, 67
1, 35019, Note_off_c, 0, 55, 63
1, 35027, Note_on_c, 0, 88, 81
1, 35030, Note_off_c, 0, 49, 61
1, 35033, Note_off_c, 0, 52, 63
1, 35051, Note_on_c, 0, 85, 90
1, 35061, Note_off_c, 0, 93, 63
1, 35084, Note_off_c, 0, 88, 64
1, 35098, Note_on_c, 0, 81, 87
1, 35107, Note_off_c, 0, 85, 66
1, 35116, Note_off_c, 0, 81, 72
1, 35176, Note_on_c, 0, 81, 93
1, 35224, Note_on_c, 0, 76, 82
1, 35254, Note_on_c, 0, 78, 48
1, 35268, Note_off_c, 0, 81, 60
1, 35270, Note_on_c, 0, 73, 86
1, 35282, Note_off_c, 0, 78, 63
1, 35291, Note_off_c, 0, 76, 61
1, 35301, Note_on_c, 0, 69, 83
1, 35315, Note_off_c, 0, 73, 65
1, 35325, Note_off_c, 0, 69, 64
1, 35377, Note_on_c, 0, 69, 79
1, 35416, Note_on_c, 0, 64, 80
1, 35462, Note_on_c, 0, 61, 85
1, 35462, Note_off_c, 0, 69, 60
1, 35478, Note_off_c, 0, 64, 60
1, 35497, Note_on_c, 0, 57, 81
1, 35512, Note_off_c, 0, 61, 58
1, 35515, Note_off_c, 0, 57, 73
1, 35540, Poly_aftertouch_c, 0, 65, 0
1, 35574, Note_on_c, 0, 57, 79
1, 35596, Note_on_c, 0, 52, 76
1, 35626, Note_on_c, 0, 54, 48
1, 35660, Note_on_c, 0, 49, 60
1, 35669, Control_c, 0, 64, 94
1, 35677, Note_off_c, 0, 54, 58
1, 35683, Control_c, 0, 64, 57
1, 35686, Note_on_c, 0, 45, 103
1, 35690, Note_off_c, 0, 49, 54
1, 35692, Note_on_c, 0, 37, 98
1, 35698, Control_c, 0, 64, 0
1, 35699, Note_on_c, 0, 31, 73
1, 35702, Note_on_c, 0, 33, 81
1, 35708, Note_on_c, 0, 28, 63
1, 35708, Note_off_c, 0, 57, 0
1, 35709, Note_on_c, 0, 25, 51
1, 35729, Control_c, 0, 64, 44
1, 35744, Note_off_c, 0, 25, 52
1, 35744, Control_c, 0, 64, 69
1, 35748, Note_off_c, 0, 37, 64
1, 35754, Note_off_c, 0, 28, 62
1, 35757, Poly_aftertouch_c, 0, 57, 0
1, 35759, Control_c, 0, 64, 97
1, 35763, Note_on_c, 0, 49, 79
1, 35772, Note_off_c, 0, 31, 61
1, 35774, Control_c, 0, 64, 127
1, 35778, Note_off_c, 0, 33, 62
1, 35778, Note_off_c, 0, 45, 67
1, 35784, Note_off_c, 0, 52, 0
1, 35794, Note_on_c, 0, 52, 51
1, 35823, Note_off_c, 0, 49, 65
1, 35837, Note_off_c, 0, 52, 63
1, 35843, Note_on_c, 0, 57, 68
1, 35859, Note_off_c, 0, 57, 67
1, 35895, Note_on_c, 0, 57, 86
1, 35961, Note_on_c, 0, 61, 90
1, 35982, Note_on_c, 0, 64, 74
1, 35986, Note_off_c, 0, 57, 64
1, 36013, Note_off_c, 0, 61, 64
1, 36018, Note_on_c, 0, 69, 78
1, 36030, Note_off_c, 0, 64, 64
1, 36040, Note_off_c, 0, 69, 66
1, 36081, Note_on_c, 0, 69, 82
1, 36148, Note_on_c, 0, 73, 89
1, 36163, Note_on_c, 0, 76, 88
1, 36168, Note_off_c, 0, 69, 63
1, 36179, Note_off_c, 0, 73, 66
1, 36184, Note_on_c, 0, 81, 86
1, 36188, Note_off_c, 0, 76, 65
1, 36202, Note_off_c, 0, 81, 72
1, 36248, Note_on_c, 0, 81, 88
1, 36305, Note_on_c, 0, 85, 88
1, 36317, Note_on_c, 0, 88, 75
1, 36324, Note_off_c, 0, 81, 63
1, 36344, Note_off_c, 0, 85, 62
1, 36352, Note_on_c, 0, 93, 102
1, 36360, Note_on_c, 0, 55, 105
1, 36363, Note_on_c, 0, 57, 103
1, 36385, Note_on_c, 0, 49, 72
1, 36386, Note_on_c, 0, 52, 74
1, 36386, Note_off_c, 0, 88, 64
1, 36397, Note_off_c, 0, 57, 61
1, 36419, Note_off_c, 0, 55, 65
1, 36422, Note_off_c, 0, 49, 64
1, 36431, Note_on_c, 0, 88, 78
1, 36435, Note_off_c, 0, 52, 62
1, 36458, Note_on_c, 0, 85, 91
1, 36459, Note_off_c, 0, 93, 65
1, 36494, Note_off_c, 0, 88, 63
1, 36497, Note_on_c, 0, 81, 91
1, 36499, Poly_aftertouch_c, 0, 53, 0
1, 36511, Note_off_c, 0, 85, 67
1, 36520, Note_off_c, 0, 81, 67
1, 36578, Note_on_c, 0, 81, 91
1, 36627, Note_on_c, 0, 76, 84
1, 36650, Note_on_c, 0, 78, 53
1, 36666, Note_off_c, 0, 81, 61
1, 36669, Note_on_c, 0, 73, 89
1, 36674, Note_off_c, 0, 78, 60
1, 36695, Note_off_c, 0, 76, 63
1, 36705, Note_on_c, 0, 69, 84
1, 36716, Note_off_c, 0, 73, 65
1, 36731, Note_off_c, 0, 69, 63
1, 36777, Note_on_c, 0, 69, 76
1, 36831, Note_on_c, 0, 64, 77
1, 36840, Note_on_c, 0, 66, 57
1, 36867, Note_off_c, 0, 69, 60
1, 36869, Note_on_c, 0, 61, 85
1, 36890, Note_off_c, 0, 66, 60
1, 36893, Note_off_c, 0, 64, 61
1, 36911, Note_on_c, 0, 57, 87
1, 36917, Note_off_c, 0, 61, 65
1, 36928, Note_off_c, 0, 57, 73
1, 36991, Note_on_c, 0, 57, 69
1, 37017, Note_on_c, 0, 52, 78
1, 37039, Note_off_c, 0, 57, 61
1, 37057, Note_on_c, 0, 49, 73
1, 37072, Note_off_c, 0, 52, 61
1, 37081, Note_off_c, 0, 49, 69
1, 37107, Note_on_c, 0, 37, 103
1, 37110, Note_on_c, 0, 45, 114
1, 37115, Note_on_c, 0, 31, 76
1, 37117, Note_on_c, 0, 33, 83
1, 37126, Note_on_c, 0, 47, 76
1, 37127, Note_on_c, 0, 25, 67
1, 37131, Note_on_c, 0, 28, 66
1, 37151, Control_c, 0, 64, 78
1, 37152, Note_off_c, 0, 47, 38
1, 37166, Control_c, 0, 64, 34
1, 37169, Note_on_c, 0, 49, 25
1, 37169, Note_off_c, 0, 49, 127
1, 37180, Control_c, 0, 64, 0
1, 37215, Poly_aftertouch_c, 0, 49, 0
1, 37225, Control_c, 0, 64, 63
1, 37240, Control_c, 0, 64, 79
1, 37254, Control_c, 0, 64, 127
1, 37258, Note_off_c, 0, 25, 0
1, 37258, Note_on_c, 0, 25, 14
1, 37408, Note_off_c, 0, 25, 0
1, 37408, Note_on_c, 0, 25, 9
1, 38099, Note_off_c, 0, 25, 41
1, 38476, Note_off_c, 0, 28, 51
1, 38479, Note_off_c, 0, 31, 61
1, 38481, Note_off_c, 0, 33, 63
1, 38484, Note_off_c, 0, 37, 61
1, 38497, Note_off_c, 0, 45, 62
1, 38633, Control_c, 0, 64, 97
1, 38648, Control_c, 0, 64, 82
1, 38663, Control_c, 0, 64, 71
1, 38678, Control_c, 0, 64, 63
1, 38693, Control_c, 0, 64, 56
1, 38707, Control_c, 0, 64, 51
1, 38722, Control_c, 0, 64, 51
1, 38737, Control_c, 0, 64, 51
1, 38751, Control_c, 0, 64, 51
1, 38766, Control_c, 0, 64, 50
1, 38781, Control_c, 0, 64, 49
1, 38796, Control_c, 0, 64, 48
1, 38811, Control_c, 0, 64, 47
1, 38825, Control_c, 0, 64, 46
1, 38840, Control_c, 0, 64, 45
1, 38855, Control_c, 0, 64, 42
1, 38855, Control_c, 0, 67, 19
1, 38870, Control_c, 0, 64, 39
1, 38870, Control_c, 0, 67, 21
1, 38885, Control_c, 0, 64, 35
1, 38901, Control_c, 0, 64, 0
1, 38901, Control_c, 0, 67, 23
1, 38930, Control_c, 0, 67, 26
1, 38945, Control_c, 0, 67, 30
1, 38960, Control_c, 0, 67, 35
1, 38975, Control_c, 0, 67, 42
1, 38990, Control_c, 0, 67, 50
1, 39004, Control_c, 0, 67, 61
1, 39019, Control_c, 0, 67, 71
1, 39034, Control_c, 0, 67, 82
1, 39048, Control_c, 0, 67, 92
1, 39063, Control_c, 0, 67, 102
1, 39078, Control_c, 0, 67, 112
1, 39093, Control_c, 0, 67, 121
1, 39108, Control_c, 0, 67, 127
1, 39346, Control_c, 0, 64, 36
1, 39361, Control_c, 0, 64, 55
1, 39382, Control_c, 0, 64, 64
1, 39397, Control_c, 0, 64, 70
1, 39412, Control_c, 0, 64, 80
1, 39427, Control_c, 0, 64, 96
1, 39442, Control_c, 0, 64, 127
1, 39561, Note_on_c, 0, 38, 38
1, 39600, Note_off_c, 0, 38, 56
1, 39630, Note_on_c, 0, 45, 42
1, 39661, Note_off_c, 0, 45, 53
1, 39704, Note_on_c, 0, 50, 39
1, 39756, Note_off_c, 0, 50, 57
1, 39792, Note_on_c, 0, 53, 43
1, 39850, Note_off_c, 0, 53, 56
1, 39884, Note_on_c, 0, 69, 49
1, 39898, Note_on_c, 0, 57, 40
1, 39902, Note_on_c, 0, 62, 37
1, 39934, Note_off_c, 0, 69, 41
1, 39947, Note_off_c, 0, 62, 58
1, 40104, Note_off_c, 0, 57, 35
1, 40119, Note_on_c, 0, 58, 51
1, 40282, Note_on_c, 0, 57, 44
1, 40292, Note_off_c, 0, 58, 40
1, 40363, Note_on_c, 0, 40, 33
1, 40401, Note_off_c, 0, 40, 51
1, 40421, Note_on_c, 0, 58, 43
1, 40433, Note_off_c, 0, 57, 61
1, 40446, Note_off_c, 0, 58, 58
1, 40455, Note_on_c, 0, 45, 36
1, 40523, Note_on_c, 0, 49, 47
1, 40562, Control_c, 0, 64, 91
1, 40577, Control_c, 0, 64, 69
1, 40583, Note_on_c, 0, 69, 65
1, 40586, Note_on_c, 0, 55, 49
1, 40592, Control_c, 0, 64, 53
1, 40604, Note_on_c, 0, 61, 53
1, 40607, Note_on_c, 0, 57, 40
1, 40607, Control_c, 0, 64, 42
1, 40621, Control_c, 0, 64, 54
1, 40636, Control_c, 0, 64, 64
1, 40651, Control_c, 0, 64, 75
1, 40654, Note_off_c, 0, 61, 57
1, 40664, Note_off_c, 0, 69, 58
1, 40666, Control_c, 0, 64, 92
1, 40681, Control_c, 0, 64, 127
1, 40707, Note_off_c, 0, 55, 31
1, 40747, Note_off_c, 0, 45, 24
1, 40772, Note_off_c, 0, 57, 55
1, 40790, Note_on_c, 0, 58, 51
1, 40813, Control_c, 0, 67, 124
1, 40828, Control_c, 0, 67, 118
1, 40843, Control_c, 0, 67, 114
1, 40858, Control_c, 0, 67, 112
1, 40884, Note_off_c, 0, 58, 54
1, 40910, Note_off_c, 0, 49, 29
1, 40935, Note_on_c, 0, 57, 42
1, 40940, Control_c, 0, 67, 109
1, 40954, Control_c, 0, 67, 105
1, 40969, Control_c, 0, 67, 99
1, 40984, Control_c, 0, 67, 91
1, 40999, Control_c, 0, 67, 84
1, 41014, Control_c, 0, 67, 77
1, 41028, Control_c, 0, 67, 70
1, 41043, Control_c, 0, 67, 62
1, 41058, Control_c, 0, 67, 56
1, 41073, Control_c, 0, 67, 49
1, 41088, Control_c, 0, 67, 42
1, 41093, Note_on_c, 0, 58, 43
1, 41097, Note_off_c, 0, 57, 36
1, 41102, Control_c, 0, 67, 36
1, 41117, Control_c, 0, 67, 30
1, 41132, Control_c, 0, 67, 25
1, 41147, Control_c, 0, 67, 19
1, 41161, Control_c, 0, 67, 0
1, 41262, Note_off_c, 0, 58, 46
1, 41272, Note_on_c, 0, 57, 43
1, 41414, Note_on_c, 0, 62, 49
1, 41464, Note_off_c, 0, 62, 60
1, 41506, Note_off_c, 0, 57, 38
1, 41582, Note_on_c, 0, 69, 64
1, 41599, Note_on_c, 0, 61, 53
1, 41657, Note_off_c, 0, 61, 57
1, 41716, Note_on_c, 0, 41, 40
1, 41726, Note_on_c, 0, 58, 45
1, 41746, Note_off_c, 0, 69, 34
1, 41766, Note_off_c, 0, 58, 64
1, 41791, Note_on_c, 0, 45, 28
1, 41822, Note_on_c, 0, 57, 49
1, 41829, Note_on_c, 0, 50, 47
1, 41838, Control_c, 0, 64, 99
1, 41852, Control_c, 0, 64, 72
1, 41867, Control_c, 0, 64, 52
1, 41873, Note_on_c, 0, 62, 57
1, 41882, Control_c, 0, 64, 0
1, 41901, Note_on_c, 0, 53, 43
1, 41911, Control_c, 0, 64, 51
1, 41926, Control_c, 0, 64, 64
1, 41936, Note_on_c, 0, 69, 67
1, 41941, Control_c, 0, 64, 75
1, 41949, Note_off_c, 0, 41, 34
1, 41956, Control_c, 0, 64, 93
1, 41969, Note_off_c, 0, 62, 59
1, 41970, Control_c, 0, 64, 127
1, 42001, Note_off_c, 0, 69, 57
1, 42036, Note_off_c, 0, 53, 34
1, 42112, Note_on_c, 0, 58, 62
1, 42112, Note_off_c, 0, 50, 35
1, 42119, Note_off_c, 0, 45, 40
1, 42134, Note_off_c, 0, 57, 42
1, 42232, Note_off_c, 0, 58, 54
1, 42258, Note_on_c, 0, 57, 62
1, 42389, Note_off_c, 0, 57, 60
1, 42391, Note_on_c, 0, 58, 62
1, 42422, Note_on_c, 0, 40, 43
1, 42440, Note_off_c, 0, 58, 63
1, 42483, Note_on_c, 0, 45, 39
1, 42485, Note_on_c, 0, 57, 63
1, 42500, Note_on_c, 0, 48, 52
1, 42541, Control_c, 0, 64, 109
1, 42544, Note_on_c, 0, 64, 77
1, 42549, Note_off_c, 0, 57, 60
1, 42552, Note_on_c, 0, 52, 65
1, 42556, Control_c, 0, 64, 75
1, 42571, Control_c, 0, 64, 56
1, 42586, Control_c, 0, 64, 0
1, 42589, Note_on_c, 0, 69, 87
1, 42600, Control_c, 0, 64, 50
1, 42615, Control_c, 0, 64, 63
1, 42617, Note_off_c, 0, 64, 63
1, 42619, Note_off_c, 0, 40, 29
1, 42630, Control_c, 0, 64, 76
1, 42645, Control_c, 0, 64, 115
1, 42660, Control_c, 0, 64, 127
1, 42689, Note_off_c, 0, 52, 47
1, 42759, Note_on_c, 0, 64, 76
1, 42798, Note_off_c, 0, 48, 36
1, 42842, Note_off_c, 0, 45, 32
1, 42847, Note_off_c, 0, 64, 58
1, 42903, Note_on_c, 0, 60, 73
1, 42958, Note_off_c, 0, 60, 64
1, 43026, Note_on_c, 0, 59, 71
1, 43038, Note_on_c, 0, 39, 52
1, 43072, Note_off_c, 0, 59, 61
1, 43089, Note_on_c, 0, 45, 49
1, 43147, Note_on_c, 0, 48, 51
1, 43159, Note_off_c, 0, 69, 35
1, 43177, Note_on_c, 0, 57, 42
1, 43186, Note_on_c, 0, 59, 52
1, 43199, Note_on_c, 0, 51, 56
1, 43201, Control_c, 0, 64, 88
1, 43212, Note_on_c, 0, 66, 78
1, 43215, Control_c, 0, 64, 67
1, 43230, Control_c, 0, 64, 48
1, 43233, Note_off_c, 0, 59, 46
1, 43235, Note_off_c, 0, 57, 50
1, 43245, Control_c, 0, 64, 0
1, 43260, Control_c, 0, 64, 41
1, 43275, Control_c, 0, 64, 56
1, 43277, Note_on_c, 0, 69, 82
1, 43290, Control_c, 0, 64, 67
1, 43305, Control_c, 0, 64, 90
1, 43320, Control_c, 0, 64, 127
1, 43328, Note_off_c, 0, 66, 61
1, 43356, Note_off_c, 0, 69, 61
1, 43409, Note_off_c, 0, 51, 55
1, 43440, Note_off_c, 0, 39, 36
1, 43444, Note_on_c, 0, 59, 58
1, 43489, Note_off_c, 0, 48, 37
1, 43585, Note_off_c, 0, 59, 43
1, 43591, Note_on_c, 0, 57, 55
1, 43623, Note_off_c, 0, 45, 26
1, 43704, Note_on_c, 0, 39, 39
1, 43746, Note_off_c, 0, 39, 56
1, 43746, Note_on_c, 0, 59, 53
1, 43760, Note_on_c, 0, 45, 40
1, 43791, Note_off_c, 0, 57, 32
1, 43829, Note_on_c, 0, 48, 51
1, 43832, Note_off_c, 0, 45, 56
1, 43911, Note_off_c, 0, 48, 60
1, 43935, Note_on_c, 0, 51, 55
1, 43958, Note_off_c, 0, 59, 49
1, 43975, Note_on_c, 0, 57, 58
1, 43991, Note_off_c, 0, 51, 58
1, 44124, Note_on_c, 0, 44, 49
1, 44169, Note_off_c, 0, 44, 63
1, 44190, Note_on_c, 0, 45, 63
1, 44226, Note_on_c, 0, 66, 64
1, 44238, Note_off_c, 0, 45, 61
1, 44256, Note_on_c, 0, 44, 71
1, 44270, Note_off_c, 0, 57, 37
1, 44294, Note_off_c, 0, 44, 64
1, 44309, Note_on_c, 0, 45, 74
1, 44327, Note_off_c, 0, 66, 57
1, 44363, Note_off_c, 0, 45, 61
1, 44365, Note_on_c, 0, 44, 82
1, 44369, Note_on_c, 0, 60, 88
1, 44420, Note_off_c, 0, 44, 65
1, 44423, Note_off_c, 0, 60, 65
1, 44424, Note_on_c, 0, 45, 72
1, 44476, Note_on_c, 0, 44, 81
1, 44479, Note_off_c, 0, 45, 62
1, 44491, Note_on_c, 0, 59, 87
1, 44544, Note_on_c, 0, 45, 77
1, 44559, Note_off_c, 0, 59, 62
1, 44633, Note_off_c, 0, 45, 65
1, 44640, Control_c, 0, 64, 88
1, 44648, Note_off_c, 0, 44, 0
1, 44648, Note_on_c, 0, 44, 19
1, 44655, Control_c, 0, 64, 61
1, 44658, Note_on_c, 0, 48, 76
1, 44661, Note_on_c, 0, 57, 116
1, 44667, Note_on_c, 0, 39, 69
1, 44667, Note_on_c, 0, 66, 89
1, 44669, Note_on_c, 0, 69, 87
1, 44670, Control_c, 0, 64, 0
1, 44685, Control_c, 0, 64, 38
1, 44700, Control_c, 0, 64, 60
1, 44715, Control_c, 0, 64, 74
1, 44718, Note_off_c, 0, 48, 63
1, 44730, Control_c, 0, 64, 127
1, 44731, Note_off_c, 0, 69, 61
1, 44745, Note_off_c, 0, 39, 61
1, 44750, Note_off_c, 0, 44, 60
1, 44751, Note_on_c, 0, 45, 72
1, 44770, Note_off_c, 0, 66, 61
1, 44804, Note_off_c, 0, 57, 54
1, 44811, Note_on_c, 0, 44, 68
1, 44816, Note_off_c, 0, 45, 64
1, 44873, Note_off_c, 0, 44, 62
1, 44879, Note_on_c, 0, 45, 74
1, 44883, Note_on_c, 0, 59, 82
1, 44934, Note_off_c, 0, 45, 63
1, 44935, Note_on_c, 0, 44, 75
1, 44971, Note_off_c, 0, 59, 56
1, 44998, Note_off_c, 0, 44, 64
1, 45006, Note_on_c, 0, 45, 75
1, 45066, Note_on_c, 0, 57, 86
1, 45066, Note_off_c, 0, 45, 63
1, 45066, Note_on_c, 0, 44, 79
1, 45120, Note_off_c, 0, 57, 62
1, 45134, Note_off_c, 0, 44, 63
1, 45147, Note_on_c, 0, 45, 77
1, 45190, Note_on_c, 0, 59, 70
1, 45201, Note_on_c, 0, 44, 83
1, 45205, Note_off_c, 0, 45, 64
1, 45210, Note_off_c, 0, 59, 71
1, 45271, Note_on_c, 0, 45, 69
1, 45287, Note_off_c, 0, 44, 62
1, 45306, Note_on_c, 0, 63, 42
1, 45335, Note_off_c, 0, 63, 54
1, 45336, Note_on_c, 0, 48, 92
1, 45347, Note_on_c, 0, 39, 83
1, 45347, Note_on_c, 0, 44, 76
1, 45353, Control_c, 0, 64, 82
1, 45367, Note_on_c, 0, 57, 111
1, 45371, Note_on_c, 0, 66, 93
1, 45374, Note_on_c, 0, 69, 90
1, 45375, Control_c, 0, 64, 55
1, 45386, Note_off_c, 0, 48, 66
1, 45390, Control_c, 0, 64, 0
1, 45405, Control_c, 0, 64, 45
1, 45419, Control_c, 0, 64, 64
1, 45425, Note_off_c, 0, 45, 64
1, 45434, Note_on_c, 0, 42, 7
1, 45434, Control_c, 0, 64, 88
1, 45449, Control_c, 0, 64, 127
1, 45457, Note_off_c, 0, 39, 60
1, 45459, Note_off_c, 0, 57, 61
1, 45472, Note_off_c, 0, 44, 61
1, 45473, Note_on_c, 0, 45, 80
1, 45487, Note_off_c, 0, 42, 51
1, 45535, Note_off_c, 0, 69, 58
1, 45537, Note_off_c, 0, 66, 58
1, 45543, Note_on_c, 0, 44, 86
1, 45548, Note_off_c, 0, 45, 61
1, 45562, Note_on_c, 0, 60, 108
1, 45609, Note_on_c, 0, 45, 78
1, 45610, Note_off_c, 0, 44, 63
1, 45614, Note_off_c, 0, 60, 62
1, 45671, Note_on_c, 0, 44, 82
1, 45672, Note_off_c, 0, 45, 65
1, 45718, Note_on_c, 0, 59, 96
1, 45734, Note_on_c, 0, 45, 86
1, 45737, Note_off_c, 0, 44, 58
1, 45779, Note_off_c, 0, 45, 64
1, 45782, Note_on_c, 0, 44, 68
1, 45788, Note_off_c, 0, 59, 0
1, 45824, Poly_aftertouch_c, 0, 59, 127
1, 45835, Note_off_c, 0, 44, 63
1, 45836, Poly_aftertouch_c, 0, 59, 0
1, 45855, Note_on_c, 0, 45, 83
1, 45879, Note_on_c, 0, 57, 102
1, 45895, Note_on_c, 0, 44, 72
1, 45925, Note_off_c, 0, 45, 62
1, 45929, Note_on_c, 0, 43, 80
1, 45931, Note_off_c, 0, 57, 60
1, 45970, Note_on_c, 0, 42, 65
1, 45973, Note_on_c, 0, 41, 67
1, 45973, Poly_aftertouch_c, 0, 58, 127
1, 45996, Note_off_c, 0, 44, 59
1, 46013, Note_off_c, 0, 42, 65
1, 46014, Note_off_c, 0, 41, 61
1, 46014, Note_off_c, 0, 43, 61
1, 46040, Poly_aftertouch_c, 0, 58, 0
1, 46062, Note_on_c, 0, 48, 101
1, 46065, Note_on_c, 0, 45, 95
1, 46065, Note_on_c, 0, 52, 103
1, 46066, Note_on_c, 0, 40, 91
1, 46067, Note_on_c, 0, 57, 92
1, 46067, Note_on_c, 0, 60, 94
1, 46071, Note_on_c, 0, 64, 90
1, 46086, Control_c, 0, 64, 76
1, 46101, Control_c, 0, 64, 35
1, 46124, Control_c, 0, 64, 0
1, 46139, Control_c, 0, 64, 45
1, 46154, Control_c, 0, 64, 74
1, 46157, Note_off_c, 0, 45, 63
1, 46158, Note_off_c, 0, 48, 59
1, 46164, Note_off_c, 0, 64, 58
1, 46168, Control_c, 0, 64, 127
1, 46188, Note_off_c, 0, 57, 62
1, 46211, Note_off_c, 0, 60, 58
1, 46232, Note_off_c, 0, 40, 62
1, 46252, Note_on_c, 0, 39, 67
1, 46275, Note_off_c, 0, 52, 50
1, 46318, Note_off_c, 0, 39, 60
1, 46333, Note_on_c, 0, 40, 79
1, 46354, Note_on_c, 0, 53, 89
1, 46383, Note_off_c, 0, 40, 58
1, 46402, Note_on_c, 0, 39, 71
1, 46459, Note_off_c, 0, 39, 60
1, 46470, Note_on_c, 0, 40, 78
1, 46497, Note_off_c, 0, 53, 60
1, 46525, Note_off_c, 0, 40, 57
1, 46528, Note_on_c, 0, 39, 76
1, 46531, Note_on_c, 0, 52, 94
1, 46588, Note_off_c, 0, 39, 60
1, 46596, Note_on_c, 0, 40, 78
1, 46633, Note_off_c, 0, 52, 60
1, 46651, Note_off_c, 0, 40, 58
1, 46655, Note_on_c, 0, 39, 76
1, 46691, Note_on_c, 0, 53, 97
1, 46718, Note_off_c, 0, 39, 61
1, 46721, Note_on_c, 0, 40, 83
1, 46783, Note_on_c, 0, 39, 79
1, 46783, Note_off_c, 0, 40, 59
1, 46814, Note_off_c, 0, 53, 58
1, 46843, Note_off_c, 0, 39, 61
1, 46859, Note_on_c, 0, 40, 83
1, 46861, Note_on_c, 0, 52, 103
1, 46917, Note_off_c, 0, 40, 56
1, 46920, Note_on_c, 0, 39, 82
1, 46956, Note_off_c, 0, 52, 57
1, 46984, Note_on_c, 0, 40, 83
1, 46985, Note_off_c, 0, 39, 61
1, 47010, Note_on_c, 0, 57, 99
1, 47038, Note_on_c, 0, 39, 74
1, 47040, Note_off_c, 0, 40, 58
1, 47067, Note_off_c, 0, 57, 63
1, 47104, Note_off_c, 0, 39, 61
1, 47105, Note_on_c, 0, 40, 81
1, 47163, Note_on_c, 0, 39, 84
1, 47164, Note_on_c, 0, 55, 98
1, 47172, Note_off_c, 0, 40, 58
1, 47219, Note_off_c, 0, 55, 65
1, 47233, Note_on_c, 0, 40, 78
1, 47233, Note_off_c, 0, 39, 61
1, 47282, Note_on_c, 0, 53, 86
1, 47297, Note_on_c, 0, 39, 59
1, 47322, Note_off_c, 0, 39, 59
1, 47324, Note_off_c, 0, 40, 34
1, 47324, Note_off_c, 0, 53, 64
1, 47346, Note_on_c, 0, 40, 57
1, 47398, Note_off_c, 0, 40, 61
1, 47398, Note_on_c, 0, 39, 70
1, 47429, Note_off_c, 0, 39, 64
1, 47472, Note_on_c, 0, 59, 96
1, 47473, Note_on_c, 0, 52, 110
1, 47475, Note_on_c, 0, 47, 101
1, 47480, Control_c, 0, 64, 72
1, 47481, Note_on_c, 0, 64, 89
1, 47484, Note_on_c, 0, 40, 84
1, 47488, Note_on_c, 0, 61, 68
1, 47489, Note_on_c, 0, 44, 78
1, 47495, Control_c, 0, 64, 0
1, 47523, Note_off_c, 0, 64, 56
1, 47539, Control_c, 0, 64, 63
1, 47554, Control_c, 0, 64, 112
1, 47558, Note_off_c, 0, 61, 58
1, 47568, Note_off_c, 0, 59, 58
1, 47569, Control_c, 0, 64, 127
1, 47570, Note_off_c, 0, 47, 62
1, 47571, Note_off_c, 0, 44, 64
1, 47574, Note_off_c, 0, 40, 59
1, 47634, Note_off_c, 0, 52, 54
1, 47639, Note_on_c, 0, 39, 79
1, 47700, Note_off_c, 0, 39, 57
1, 47720, Note_on_c, 0, 40, 82
1, 47727, Note_on_c, 0, 53, 101
1, 47791, Note_off_c, 0, 40, 57
1, 47791, Note_on_c, 0, 39, 84
1, 47797, Note_off_c, 0, 53, 58
1, 47848, Note_off_c, 0, 39, 61
1, 47861, Note_on_c, 0, 40, 79
1, 47889, Note_on_c, 0, 52, 91
1, 47913, Note_off_c, 0, 40, 63
1, 47921, Note_on_c, 0, 39, 82
1, 47966, Note_off_c, 0, 52, 58
1, 47983, Note_off_c, 0, 39, 60
1, 47985, Note_on_c, 0, 40, 84
1, 48045, Note_off_c, 0, 40, 60
1, 48046, Note_on_c, 0, 39, 76
1, 48053, Note_on_c, 0, 53, 97
1, 48070, Note_off_c, 0, 39, 66
1, 48095, Note_on_c, 0, 40, 73
1, 48148, Note_on_c, 0, 39, 79
1, 48151, Note_off_c, 0, 40, 61
1, 48173, Note_off_c, 0, 53, 60
1, 48179, Note_off_c, 0, 39, 63
1, 48199, Control_c, 0, 64, 111
1, 48209, Note_on_c, 0, 40, 107
1, 48211, Note_on_c, 0, 52, 106
1, 48214, Control_c, 0, 64, 68
1, 48229, Control_c, 0, 64, 0
1, 48258, Control_c, 0, 64, 37
1, 48273, Control_c, 0, 64, 65
1, 48288, Control_c, 0, 64, 92
1, 48303, Control_c, 0, 64, 127
1, 48394, Note_off_c, 0, 52, 55
1, 48406, Poly_aftertouch_c, 0, 35, 127
1, 48414, Note_on_c, 0, 39, 87
1, 48418, Note_off_c, 0, 40, 52
1, 48435, Note_on_c, 0, 59, 102
1, 48435, Poly_aftertouch_c, 0, 35, 0
1, 48489, Note_on_c, 0, 38, 83
1, 48503, Note_off_c, 0, 39, 58
1, 48554, Note_on_c, 0, 37, 75
1, 48572, Note_off_c, 0, 38, 62
1, 48593, Note_on_c, 0, 56, 96
1, 48602, Note_off_c, 0, 37, 60
1, 48620, Note_on_c, 0, 36, 83
1, 48632, Note_off_c, 0, 59, 56
1, 48688, Note_off_c, 0, 36, 58
1, 48689, Note_on_c, 0, 35, 80
1, 48720, Note_on_c, 0, 53, 95
1, 48745, Note_on_c, 0, 34, 74
1, 48752, Note_off_c, 0, 56, 59
1, 48760, Note_off_c, 0, 53, 66
1, 48767, Note_on_c, 0, 33, 76
1, 48774, Note_off_c, 0, 35, 59
1, 48791, Note_off_c, 0, 34, 62
1, 48837, Note_on_c, 0, 40, 82
1, 48851, Note_off_c, 0, 33, 61
1, 48877, Note_off_c, 0, 40, 58
1, 48908, Note_on_c, 0, 45, 74
1, 48950, Note_on_c, 0, 52, 105
1, 48954, Note_on_c, 0, 57, 98
1, 48955, Note_on_c, 0, 61, 95
1, 48956, Note_on_c, 0, 64, 91
1, 48962, Control_c, 0, 64, 67
1, 48977, Control_c, 0, 64, 0
1, 48980, Note_on_c, 0, 48, 75
1, 48983, Note_off_c, 0, 45, 65
1, 49022, Note_on_c, 0, 47, 22
1, 49022, Note_off_c, 0, 47, 127
1, 49022, Control_c, 0, 64, 66
1, 49037, Control_c, 0, 64, 95
1, 49052, Control_c, 0, 64, 127
1, 49073, Poly_aftertouch_c, 0, 47, 0
1, 49087, Note_off_c, 0, 48, 62
1, 49095, Note_off_c, 0, 57, 60
1, 49115, Note_on_c, 0, 49, 46
1, 49117, Note_off_c, 0, 64, 58
1, 49143, Note_off_c, 0, 61, 58
1, 49213, Note_off_c, 0, 52, 51
1, 49215, Note_off_c, 0, 49, 46
1, 49249, Note_on_c, 0, 53, 93
1, 49259, Note_on_c, 0, 52, 48
1, 49275, Note_off_c, 0, 52, 69
1, 49439, Note_on_c, 0, 52, 89
1, 49463, Note_off_c, 0, 53, 56
1, 49588, Note_on_c, 0, 53, 86
1, 49619, Note_off_c, 0, 52, 62
1, 49857, Note_on_c, 0, 52, 78
1, 49907, Note_off_c, 0, 53, 57
1, 50137, Note_on_c, 0, 61, 77
1, 50310, Note_on_c, 0, 57, 79
1, 50361, Note_off_c, 0, 52, 57
1, 50376, Note_off_c, 0, 61, 58
1, 50463, Note_on_c, 0, 53, 77
1, 50507, Note_off_c, 0, 57, 62
1, 50651, Note_on_c, 0, 52, 72
1, 50718, Note_off_c, 0, 53, 50
1, 50803, Note_on_c, 0, 57, 71
1, 50880, Note_off_c, 0, 52, 37
1, 50898, Control_c, 0, 64, 115
1, 50913, Control_c, 0, 64, 106
1, 50928, Control_c, 0, 64, 99
1, 50943, Control_c, 0, 64, 94
1, 50957, Control_c, 0, 64, 89
1, 50971, Note_on_c, 0, 53, 64
1, 50972, Control_c, 0, 64, 85
1, 50987, Control_c, 0, 64, 82
1, 51002, Control_c, 0, 64, 79
1, 51015, Note_off_c, 0, 57, 39
1, 51017, Control_c, 0, 64, 77
1, 51031, Control_c, 0, 64, 76
1, 51046, Control_c, 0, 64, 74
1, 51061, Control_c, 0, 64, 72
1, 51076, Control_c, 0, 64, 71
1, 51091, Control_c, 0, 64, 70
1, 51106, Control_c, 0, 64, 69
1, 51121, Control_c, 0, 64, 69
1, 51122, Note_on_c, 0, 52, 63
1, 51150, Control_c, 0, 64, 68
1, 51162, Note_off_c, 0, 53, 54
1, 51179, Control_c, 0, 64, 68
1, 51296, Note_off_c, 0, 52, 62
1, 51320, Note_on_c, 0, 49, 60
1, 51327, Control_c, 0, 64, 67
1, 51364, Control_c, 0, 64, 67
1, 51394, Control_c, 0, 64, 66
1, 51408, Control_c, 0, 64, 66
1, 51423, Control_c, 0, 64, 65
1, 51438, Control_c, 0, 64, 64
1, 51453, Control_c, 0, 64, 64
1, 51468, Control_c, 0, 64, 63
1, 51482, Control_c, 0, 64, 62
1, 51497, Control_c, 0, 64, 62
1, 51508, Note_on_c, 0, 53, 53
1, 51512, Control_c, 0, 64, 61
1, 51527, Control_c, 0, 64, 61
1, 51542, Note_off_c, 0, 49, 37
1, 51556, Control_c, 0, 64, 60
1, 51571, Control_c, 0, 64, 60
1, 51586, Control_c, 0, 64, 59
1, 51601, Control_c, 0, 64, 58
1, 51615, Control_c, 0, 64, 57
1, 51630, Control_c, 0, 64, 56
1, 51696, Note_on_c, 0, 52, 47
1, 51705, Control_c, 0, 64, 56
1, 51720, Control_c, 0, 64, 55
1, 51747, Note_off_c, 0, 53, 37
1, 51750, Control_c, 0, 64, 55
1, 51794, Control_c, 0, 64, 54
1, 51809, Control_c, 0, 64, 53
1, 51824, Control_c, 0, 64, 53
1, 51854, Control_c, 0, 64, 52
1, 51864, Note_on_c, 0, 49, 45
1, 51868, Note_off_c, 0, 52, 53
1, 52048, Note_on_c, 0, 45, 40
1, 52048, Note_off_c, 0, 49, 51
1, 52218, Note_off_c, 0, 45, 50
1, 52230, Note_on_c, 0, 46, 47
1, 52402, Note_on_c, 0, 47, 41
1, 52408, Note_off_c, 0, 46, 50
1, 52563, Note_off_c, 0, 47, 55
1, 52571, Note_on_c, 0, 48, 44
1, 52756, Note_on_c, 0, 49, 43
1, 52882, Note_off_c, 0, 48, 37
1, 52925, Note_off_c, 0, 49, 50
1, 52932, Note_on_c, 0, 50, 51
1, 53088, Note_off_c, 0, 50, 56
1, 53109, Note_on_c, 0, 51, 46
1, 53252, Note_off_c, 0, 51, 58
1, 53264, Note_on_c, 0, 52, 49
1, 53430, Note_off_c, 0, 52, 53
1, 53439, Note_on_c, 0, 53, 43
1, 53529, Control_c, 0, 64, 53
1, 53611, Note_on_c, 0, 54, 51
1, 53671, Note_off_c, 0, 53, 36
1, 53762, Note_off_c, 0, 54, 61
1, 53780, Note_on_c, 0, 55, 55
1, 53930, Note_off_c, 0, 55, 55
1, 53940, Note_on_c, 0, 56, 49
1, 53951, Control_c, 0, 64, 52
1, 53966, Control_c, 0, 64, 52
1, 53981, Control_c, 0, 64, 51
1, 53995, Control_c, 0, 64, 50
1, 54010, Control_c, 0, 64, 50
1, 54071, Control_c, 0, 64, 51
1, 54086, Control_c, 0, 64, 54
1, 54093, Note_off_c, 0, 56, 53
1, 54100, Control_c, 0, 64, 59
1, 54115, Control_c, 0, 64, 65
1, 54119, Note_on_c, 0, 55, 34
1, 54130, Control_c, 0, 64, 74
1, 54145, Control_c, 0, 64, 97
1, 54160, Control_c, 0, 64, 127
1, 54292, Note_on_c, 0, 56, 44
1, 54304, Note_off_c, 0, 55, 48
1, 54322, Note_off_c, 0, 56, 54
1, 54350, Note_on_c, 0, 35, 35
1, 54391, Note_off_c, 0, 35, 45
1, 54434, Control_c, 0, 64, 95
1, 54449, Control_c, 0, 64, 67
1, 54458, Note_on_c, 0, 43, 26
1, 54461, Note_on_c, 0, 67, 61
1, 54464, Control_c, 0, 64, 48
1, 54474, Note_on_c, 0, 55, 37
1, 54479, Control_c, 0, 64, 45
1, 54480, Note_on_c, 0, 65, 56
1, 54494, Control_c, 0, 64, 57
1, 54495, Note_on_c, 0, 50, 53
1, 54508, Control_c, 0, 64, 67
1, 54511, Note_off_c, 0, 43, 43
1, 54522, Note_off_c, 0, 65, 61
1, 54523, Control_c, 0, 64, 82
1, 54529, Note_off_c, 0, 67, 62
1, 54535, Note_off_c, 0, 50, 61
1, 54538, Control_c, 0, 64, 127
1, 54626, Note_on_c, 0, 56, 62
1, 54643, Note_off_c, 0, 55, 41
1, 54654, Note_off_c, 0, 56, 63
1, 54655, Note_on_c, 0, 36, 43
1, 54700, Note_off_c, 0, 36, 48
1, 54748, Note_on_c, 0, 43, 37
1, 54790, Control_c, 0, 64, 92
1, 54805, Control_c, 0, 64, 69
1, 54818, Note_on_c, 0, 52, 49
1, 54819, Control_c, 0, 64, 52
1, 54822, Note_on_c, 0, 55, 56
1, 54826, Note_on_c, 0, 67, 59
1, 54834, Control_c, 0, 64, 43
1, 54835, Note_on_c, 0, 64, 51
1, 54849, Control_c, 0, 64, 53
1, 54864, Control_c, 0, 64, 63
1, 54874, Note_off_c, 0, 67, 51
1, 54880, Control_c, 0, 64, 74
1, 54893, Note_off_c, 0, 64, 57
1, 54894, Control_c, 0, 64, 97
1, 54909, Control_c, 0, 64, 127
1, 54913, Note_off_c, 0, 43, 0
1, 54945, Note_off_c, 0, 52, 33
1, 54950, Poly_aftertouch_c, 0, 43, 127
1, 54993, Note_off_c, 0, 55, 60
1, 55000, Note_on_c, 0, 56, 66
1, 55133, Note_off_c, 0, 56, 57
1, 55156, Note_on_c, 0, 55, 64
1, 55260, Poly_aftertouch_c, 0, 43, 0
1, 55303, Note_on_c, 0, 56, 69
1, 55305, Note_on_c, 0, 36, 44
1, 55321, Note_off_c, 0, 55, 55
1, 55335, Note_off_c, 0, 56, 63
1, 55342, Note_off_c, 0, 36, 59
1, 55400, Note_on_c, 0, 43, 41
1, 55464, Control_c, 0, 64, 93
1, 55472, Note_on_c, 0, 51, 59
1, 55477, Note_on_c, 0, 55, 69
1, 55479, Control_c, 0, 64, 70
1, 55485, Note_on_c, 0, 63, 65
1, 55485, Note_on_c, 0, 67, 66
1, 55494, Control_c, 0, 64, 56
1, 55500, Note_off_c, 0, 55, 60
1, 55509, Control_c, 0, 64, 46
1, 55523, Control_c, 0, 64, 54
1, 55538, Control_c, 0, 64, 62
1, 55553, Control_c, 0, 64, 69
1, 55568, Control_c, 0, 64, 81
1, 55583, Control_c, 0, 64, 106
1, 55598, Note_off_c, 0, 67, 56
1, 55598, Control_c, 0, 64, 127
1, 55662, Note_on_c, 0, 60, 66
1, 55663, Note_off_c, 0, 63, 60
1, 55796, Note_off_c, 0, 51, 37
1, 55828, Note_off_c, 0, 43, 35
1, 55837, Note_on_c, 0, 58, 71
1, 55869, Note_off_c, 0, 60, 57
1, 55989, Note_on_c, 0, 56, 83
1, 56057, Note_off_c, 0, 58, 56
1, 56139, Control_c, 0, 64, 91
1, 56153, Note_on_c, 0, 55, 77
1, 56154, Control_c, 0, 64, 67
1, 56169, Control_c, 0, 64, 50
1, 56184, Control_c, 0, 64, 0
1, 56185, Note_off_c, 0, 56, 59
1, 56213, Control_c, 0, 64, 41
1, 56228, Control_c, 0, 64, 58
1, 56243, Control_c, 0, 64, 69
1, 56256, Note_on_c, 0, 38, 36
1, 56258, Control_c, 0, 64, 82
1, 56272, Control_c, 0, 64, 105
1, 56287, Control_c, 0, 64, 127
1, 56294, Note_on_c, 0, 56, 71
1, 56301, Note_off_c, 0, 55, 61
1, 56321, Note_off_c, 0, 56, 66
1, 56357, Note_on_c, 0, 47, 39
1, 56416, Note_off_c, 0, 38, 35
1, 56421, Control_c, 0, 64, 103
1, 56436, Control_c, 0, 64, 72
1, 56450, Note_on_c, 0, 50, 51
1, 56451, Control_c, 0, 64, 57
1, 56463, Note_on_c, 0, 55, 67
1, 56463, Note_on_c, 0, 62, 66
1, 56465, Note_on_c, 0, 67, 66
1, 56466, Control_c, 0, 64, 47
1, 56481, Control_c, 0, 64, 54
1, 56495, Control_c, 0, 64, 62
1, 56510, Note_off_c, 0, 67, 51
1, 56510, Control_c, 0, 64, 69
1, 56518, Note_off_c, 0, 62, 62
1, 56519, Note_off_c, 0, 47, 56
1, 56525, Control_c, 0, 64, 83
1, 56540, Control_c, 0, 64, 127
1, 56562, Note_off_c, 0, 50, 37
1, 56596, Note_off_c, 0, 55, 56
1, 56628, Note_on_c, 0, 56, 72
1, 56656, Note_off_c, 0, 56, 65
1, 56671, Note_on_c, 0, 40, 47
1, 56743, Note_on_c, 0, 46, 49
1, 56799, Control_c, 0, 64, 119
1, 56814, Control_c, 0, 64, 80
1, 56819, Note_on_c, 0, 49, 47
1, 56824, Note_on_c, 0, 55, 71
1, 56824, Note_on_c, 0, 67, 70
1, 56829, Control_c, 0, 64, 63
1, 56838, Note_on_c, 0, 61, 53
1, 56844, Control_c, 0, 64, 0
1, 56874, Control_c, 0, 64, 48
1, 56889, Control_c, 0, 64, 62
1, 56894, Note_off_c, 0, 67, 58
1, 56901, Note_off_c, 0, 61, 50
1, 56903, Control_c, 0, 64, 75
1, 56918, Control_c, 0, 64, 100
1, 56933, Control_c, 0, 64, 127
1, 57011, Note_off_c, 0, 55, 54
1, 57013, Note_on_c, 0, 57, 67
1, 57031, Note_off_c, 0, 40, 38
1, 57046, Note_off_c, 0, 49, 32
1, 57091, Note_off_c, 0, 46, 42
1, 57169, Note_off_c, 0, 57, 39
1, 57172, Note_on_c, 0, 55, 61
1, 57310, Note_on_c, 0, 57, 59
1, 57318, Note_off_c, 0, 55, 52
1, 57319, Note_on_c, 0, 40, 38
1, 57344, Note_off_c, 0, 57, 65
1, 57419, Note_on_c, 0, 46, 38
1, 57489, Control_c, 0, 64, 103
1, 57504, Control_c, 0, 64, 76
1, 57516, Note_on_c, 0, 67, 54
1, 57518, Control_c, 0, 64, 59
1, 57527, Note_on_c, 0, 49, 32
1, 57533, Control_c, 0, 64, 0
1, 57542, Note_on_c, 0, 61, 52
1, 57548, Control_c, 0, 64, 36
1, 57563, Control_c, 0, 64, 49
1, 57577, Control_c, 0, 64, 61
1, 57592, Control_c, 0, 64, 69
1, 57607, Control_c, 0, 64, 79
1, 57622, Control_c, 0, 64, 95
1, 57628, Note_off_c, 0, 46, 0
1, 57637, Control_c, 0, 64, 114
1, 57649, Note_off_c, 0, 67, 55
1, 57652, Control_c, 0, 64, 127
1, 57664, Poly_aftertouch_c, 0, 46, 127
1, 57697, Note_off_c, 0, 61, 59
1, 57711, Note_on_c, 0, 60, 60
1, 57779, Note_off_c, 0, 40, 35
1, 57827, Note_off_c, 0, 49, 40
1, 57883, Note_off_c, 0, 60, 59
1, 57884, Note_on_c, 0, 58, 62
1, 57892, Poly_aftertouch_c, 0, 46, 0
1, 58036, Note_on_c, 0, 57, 67
1, 58048, Note_off_c, 0, 58, 53
1, 58230, Note_on_c, 0, 55, 54
1, 58237, Note_off_c, 0, 57, 51
1, 58267, Control_c, 0, 64, 117
1, 58282, Control_c, 0, 64, 112
1, 58297, Control_c, 0, 64, 104
1, 58312, Control_c, 0, 64, 96
1, 58327, Control_c, 0, 64, 84
1, 58341, Control_c, 0, 64, 68
1, 58356, Control_c, 0, 64, 53
1, 58371, Control_c, 0, 64, 0
1, 58421, Note_on_c, 0, 57, 53
1, 58430, Control_c, 0, 64, 46
1, 58437, Note_off_c, 0, 55, 51
1, 58445, Control_c, 0, 64, 61
1, 58460, Control_c, 0, 64, 69
1, 58475, Control_c, 0, 64, 78
1, 58489, Control_c, 0, 64, 88
1, 58504, Control_c, 0, 64, 94
1, 58519, Control_c, 0, 64, 99
1, 58534, Control_c, 0, 64, 104
1, 58549, Control_c, 0, 64, 108
1, 58564, Control_c, 0, 64, 111
1, 58598, Note_off_c, 0, 57, 57
1, 58606, Note_on_c, 0, 55, 51
1, 58608, Control_c, 0, 64, 113
1, 58697, Control_c, 0, 64, 115
1, 58808, Note_on_c, 0, 57, 49
1, 58812, Note_off_c, 0, 55, 53
1, 58830, Note_on_c, 0, 39, 34
1, 58846, Note_off_c, 0, 57, 59
1, 58936, Note_on_c, 0, 43, 25
1, 58987, Control_c, 0, 64, 112
1, 59002, Control_c, 0, 64, 102
1, 59016, Control_c, 0, 64, 87
1, 59031, Control_c, 0, 64, 69
1, 59046, Control_c, 0, 64, 54
1, 59060, Note_on_c, 0, 48, 34
1, 59061, Control_c, 0, 64, 37
1, 59076, Control_c, 0, 64, 44
1, 59090, Control_c, 0, 64, 55
1, 59095, Note_on_c, 0, 67, 49
1, 59105, Note_on_c, 0, 60, 43
1, 59105, Control_c, 0, 64, 64
1, 59111, Note_on_c, 0, 55, 25
1, 59120, Control_c, 0, 64, 74
1, 59135, Control_c, 0, 64, 93
1, 59139, Note_off_c, 0, 48, 41
1, 59149, Control_c, 0, 64, 127
1, 59201, Note_off_c, 0, 39, 30
1, 59210, Note_off_c, 0, 67, 35
1, 59231, Note_off_c, 0, 60, 57
1, 59232, Note_off_c, 0, 43, 40
1, 59242, Note_on_c, 0, 42, 40
1, 59312, Note_off_c, 0, 42, 59
1, 59345, Note_on_c, 0, 43, 51
1, 59375, Note_on_c, 0, 60, 58
1, 59382, Note_off_c, 0, 43, 62
1, 59415, Note_on_c, 0, 42, 55
1, 59446, Note_off_c, 0, 42, 63
1, 59470, Note_on_c, 0, 43, 59
1, 59478, Note_off_c, 0, 55, 30
1, 59497, Note_off_c, 0, 60, 53
1, 59506, Note_off_c, 0, 43, 64
1, 59521, Note_on_c, 0, 42, 69
1, 59556, Note_off_c, 0, 42, 63
1, 59562, Note_on_c, 0, 58, 67
1, 59578, Note_on_c, 0, 43, 69
1, 59612, Note_off_c, 0, 58, 61
1, 59637, Note_off_c, 0, 43, 59
1, 59646, Note_on_c, 0, 42, 72
1, 59708, Note_on_c, 0, 43, 73
1, 59711, Note_on_c, 0, 59, 49
1, 59721, Note_off_c, 0, 42, 58
1, 59736, Note_off_c, 0, 59, 57
1, 59780, Poly_aftertouch_c, 0, 57, 127
1, 59803, Note_off_c, 0, 43, 62
1, 59812, Poly_aftertouch_c, 0, 57, 0
1, 59825, Control_c, 0, 64, 124
1, 59837, Note_on_c, 0, 42, 61
1, 59840, Control_c, 0, 64, 78
1, 59843, Note_on_c, 0, 47, 75
1, 59849, Note_on_c, 0, 38, 73
1, 59855, Control_c, 0, 64, 61
1, 59859, Note_on_c, 0, 59, 62
1, 59861, Note_on_c, 0, 67, 74
1, 59862, Note_on_c, 0, 55, 81
1, 59870, Control_c, 0, 64, 37
1, 59885, Control_c, 0, 64, 40
1, 59890, Note_off_c, 0, 42, 61
1, 59898, Note_on_c, 0, 43, 72
1, 59899, Control_c, 0, 64, 55
1, 59900, Note_off_c, 0, 47, 64
1, 59914, Control_c, 0, 64, 67
1, 59929, Control_c, 0, 64, 88
1, 59944, Control_c, 0, 64, 127
1, 59953, Note_off_c, 0, 38, 57
1, 59964, Note_off_c, 0, 43, 63
1, 59965, Note_on_c, 0, 42, 67
1, 59990, Note_off_c, 0, 55, 53
1, 60003, Note_off_c, 0, 59, 60
1, 60021, Note_on_c, 0, 43, 65
1, 60024, Note_off_c, 0, 42, 62
1, 60036, Note_off_c, 0, 67, 58
1, 60053, Note_on_c, 0, 62, 83
1, 60079, Note_on_c, 0, 42, 72
1, 60079, Note_off_c, 0, 43, 61
1, 60137, Note_off_c, 0, 42, 64
1, 60140, Note_on_c, 0, 43, 78
1, 60157, Note_off_c, 0, 62, 59
1, 60193, Note_on_c, 0, 59, 90
1, 60195, Note_on_c, 0, 42, 84
1, 60203, Note_off_c, 0, 43, 60
1, 60245, Poly_aftertouch_c, 0, 62, 127
1, 60251, Note_off_c, 0, 42, 64
1, 60259, Note_on_c, 0, 43, 78
1, 60278, Note_off_c, 0, 59, 62
1, 60315, Note_on_c, 0, 42, 54
1, 60316, Note_off_c, 0, 43, 0
1, 60319, Note_on_c, 0, 55, 100
1, 60325, Poly_aftertouch_c, 0, 62, 0
1, 60331, Note_on_c, 0, 43, 50
1, 60353, Note_on_c, 0, 62, 19
1, 60355, Note_off_c, 0, 42, 52
1, 60409, Note_off_c, 0, 55, 62
1, 60415, Note_off_c, 0, 43, 63
1, 60433, Note_on_c, 0, 37, 86
1, 60483, Note_off_c, 0, 62, 45
1, 60485, Control_c, 0, 64, 91
1, 60496, Note_off_c, 0, 37, 62
1, 60500, Control_c, 0, 64, 64
1, 60509, Note_on_c, 0, 55, 109
1, 60512, Note_on_c, 0, 64, 92
1, 60514, Control_c, 0, 64, 50
1, 60520, Note_on_c, 0, 52, 92
1, 60522, Note_on_c, 0, 67, 80
1, 60529, Control_c, 0, 64, 64
1, 60544, Note_on_c, 0, 44, 46
1, 60544, Control_c, 0, 64, 84
1, 60552, Note_on_c, 0, 47, 58
1, 60559, Control_c, 0, 64, 127
1, 60570, Note_off_c, 0, 67, 57
1, 60572, Note_off_c, 0, 52, 66
1, 60577, Note_off_c, 0, 44, 54
1, 60586, Note_off_c, 0, 64, 60
1, 60612, Note_off_c, 0, 47, 62
1, 60616, Note_on_c, 0, 43, 71
1, 60619, Poly_aftertouch_c, 0, 63, 0
1, 60630, Poly_aftertouch_c, 0, 46, 0
1, 60656, Note_off_c, 0, 43, 63
1, 60673, Note_off_c, 0, 55, 58
1, 60703, Note_on_c, 0, 45, 75
1, 60730, Note_on_c, 0, 64, 93
1, 60754, Note_on_c, 0, 43, 50
1, 60758, Note_off_c, 0, 45, 58
1, 60791, Note_off_c, 0, 43, 65
1, 60835, Note_on_c, 0, 43, 69
1, 60886, Note_on_c, 0, 42, 82
1, 60887, Note_off_c, 0, 43, 62
1, 60897, Note_on_c, 0, 58, 92
1, 60922, Note_off_c, 0, 42, 62
1, 60947, Note_on_c, 0, 43, 75
1, 60951, Note_on_c, 0, 59, 36
1, 60987, Note_off_c, 0, 59, 62
1, 60993, Note_off_c, 0, 58, 62
1, 60999, Note_off_c, 0, 64, 58
1, 61002, Note_on_c, 0, 42, 83
1, 61005, Note_off_c, 0, 43, 63
1, 61035, Note_off_c, 0, 42, 64
1, 61038, Note_on_c, 0, 55, 83
1, 61064, Note_on_c, 0, 41, 80
1, 61092, Note_off_c, 0, 55, 59
1, 61125, Note_on_c, 0, 40, 82
1, 61133, Note_off_c, 0, 41, 59
1, 61176, Note_on_c, 0, 39, 67
1, 61185, Note_off_c, 0, 40, 61
1, 61187, Control_c, 0, 64, 80
1, 61202, Control_c, 0, 64, 51
1, 61214, Note_on_c, 0, 50, 103
1, 61215, Note_on_c, 0, 57, 92
1, 61216, Note_on_c, 0, 55, 87
1, 61217, Control_c, 0, 64, 39
1, 61220, Note_on_c, 0, 62, 84
1, 61222, Note_on_c, 0, 43, 78
1, 61227, Note_on_c, 0, 45, 86
1, 61229, Note_on_c, 0, 38, 77
1, 61230, Note_off_c, 0, 50, 73
1, 61232, Control_c, 0, 64, 65
1, 61247, Control_c, 0, 64, 105
1, 61263, Note_off_c, 0, 39, 61
1, 61263, Control_c, 0, 64, 127
1, 61273, Note_off_c, 0, 62, 59
1, 61289, Note_off_c, 0, 45, 60
1, 61303, Note_off_c, 0, 43, 62
1, 61359, Note_off_c, 0, 38, 60
1, 61363, Note_on_c, 0, 37, 74
1, 61404, Note_off_c, 0, 57, 59
1, 61421, Note_on_c, 0, 51, 96
1, 61425, Note_off_c, 0, 37, 62
1, 61427, Note_off_c, 0, 55, 62
1, 61438, Note_on_c, 0, 38, 81
1, 61492, Note_off_c, 0, 51, 59
1, 61493, Note_on_c, 0, 37, 81
1, 61497, Note_off_c, 0, 38, 64
1, 61556, Note_off_c, 0, 37, 59
1, 61567, Note_on_c, 0, 38, 85
1, 61580, Note_on_c, 0, 50, 106
1, 61622, Note_off_c, 0, 38, 61
1, 61625, Note_on_c, 0, 37, 83
1, 61628, Note_off_c, 0, 50, 63
1, 61648, Note_on_c, 0, 52, 32
1, 61685, Note_off_c, 0, 37, 61
1, 61687, Note_off_c, 0, 52, 49
1, 61697, Note_on_c, 0, 38, 82
1, 61723, Note_on_c, 0, 51, 103
1, 61804, Note_off_c, 0, 38, 62
1, 61819, Note_off_c, 0, 51, 57
1, 61892, Control_c, 0, 64, 98
1, 61895, Note_on_c, 0, 45, 95
1, 61904, Note_on_c, 0, 43, 81
1, 61904, Note_on_c, 0, 50, 108
1, 61906, Note_on_c, 0, 38, 76
1, 61907, Control_c, 0, 64, 64
1, 61922, Control_c, 0, 64, 0
1, 61927, Note_off_c, 0, 43, 53
1, 61938, Note_on_c, 0, 41, 37
1, 61951, Control_c, 0, 64, 47
1, 61966, Control_c, 0, 64, 67
1, 61981, Control_c, 0, 64, 92
1, 61996, Control_c, 0, 64, 127
1, 62006, Note_off_c, 0, 45, 63
1, 62007, Poly_aftertouch_c, 0, 52, 127
1, 62010, Note_off_c, 0, 38, 59
1, 62035, Note_on_c, 0, 39, 77
1, 62053, Note_off_c, 0, 41, 39
1, 62072, Note_off_c, 0, 39, 63
1, 62080, Note_off_c, 0, 50, 60
1, 62097, Poly_aftertouch_c, 0, 52, 0
1, 62120, Note_on_c, 0, 38, 75
1, 62123, Note_on_c, 0, 57, 94
1, 62184, Note_off_c, 0, 38, 61
1, 62185, Note_on_c, 0, 39, 81
1, 62239, Note_off_c, 0, 39, 58
1, 62262, Note_on_c, 0, 38, 80
1, 62271, Note_on_c, 0, 54, 90
1, 62305, Note_off_c, 0, 57, 57
1, 62307, Note_on_c, 0, 39, 76
1, 62307, Note_off_c, 0, 38, 63
1, 62328, Note_on_c, 0, 53, 36
1, 62363, Note_off_c, 0, 39, 57
1, 62365, Note_off_c, 0, 53, 51
1, 62371, Note_on_c, 0, 38, 78
1, 62389, Note_off_c, 0, 54, 61
1, 62421, Note_on_c, 0, 39, 80
1, 62421, Note_on_c, 0, 51, 91
1, 62422, Note_off_c, 0, 38, 64
1, 62441, Note_on_c, 0, 50, 81
1, 62486, Note_on_c, 0, 38, 83
1, 62487, Note_off_c, 0, 39, 60
1, 62506, Note_off_c, 0, 50, 54
1, 62507, Note_off_c, 0, 51, 36
1, 62541, Note_off_c, 0, 38, 64
1, 62544, Note_on_c, 0, 39, 73
1, 62591, Note_off_c, 0, 39, 59
1, 62606, Note_on_c, 0, 50, 102
1, 62609, Note_on_c, 0, 38, 87
1, 62657, Control_c, 0, 64, 96
1, 62663, Note_off_c, 0, 38, 62
1, 62666, Note_on_c, 0, 39, 89
1, 62672, Control_c, 0, 64, 67
1, 62686, Control_c, 0, 64, 47
1, 62701, Control_c, 0, 64, 53
1, 62716, Control_c, 0, 64, 64
1, 62723, Note_off_c, 0, 50, 55
1, 62729, Note_off_c, 0, 39, 62
1, 62731, Control_c, 0, 64, 83
1, 62732, Note_on_c, 0, 38, 84
1, 62746, Control_c, 0, 64, 127
1, 62773, Note_on_c, 0, 51, 93
1, 62794, Note_on_c, 0, 39, 72
1, 62806, Note_on_c, 0, 50, 45
1, 62816, Note_off_c, 0, 39, 60
1, 62836, Note_off_c, 0, 50, 57
1, 62851, Note_off_c, 0, 38, 0
1, 62865, Note_on_c, 0, 38, 61
1, 62902, Note_off_c, 0, 51, 61
1, 62931, Note_on_c, 0, 50, 98
1, 62943, Note_on_c, 0, 37, 85
1, 62958, Note_off_c, 0, 38, 59
1, 62987, Note_on_c, 0, 36, 52
1, 62996, Note_off_c, 0, 37, 61
1, 63007, Note_on_c, 0, 35, 40
1, 63012, Poly_aftertouch_c, 0, 55, 0
1, 63020, Note_off_c, 0, 36, 54
1, 63036, Note_off_c, 0, 35, 0
1, 63036, Note_on_c, 0, 35, 24
1, 63037, Note_off_c, 0, 50, 55
1, 63050, Poly_aftertouch_c, 0, 55, 127
1, 63065, Note_on_c, 0, 51, 86
1, 63077, Note_on_c, 0, 50, 23
1, 63098, Note_on_c, 0, 34, 70
1, 63104, Note_off_c, 0, 35, 58
1, 63105, Note_off_c, 0, 51, 64
1, 63106, Note_off_c, 0, 50, 57
1, 63113, Poly_aftertouch_c, 0, 55, 0
1, 63116, Note_on_c, 0, 33, 75
1, 63135, Note_on_c, 0, 32, 61
1, 63152, Note_on_c, 0, 31, 80
1, 63161, Note_off_c, 0, 34, 52
1, 63164, Note_off_c, 0, 33, 60
1, 63209, Note_off_c, 0, 32, 57
1, 63219, Note_on_c, 0, 38, 78
1, 63232, Note_off_c, 0, 31, 62
1, 63266, Note_off_c, 0, 38, 62
1, 63272, Note_on_c, 0, 43, 77
1, 63295, Control_c, 0, 64, 107
1, 63304, Note_on_c, 0, 50, 108
1, 63308, Note_on_c, 0, 59, 96
1, 63309, Control_c, 0, 64, 61
1, 63311, Note_on_c, 0, 62, 98
1, 63321, Note_on_c, 0, 47, 99
1, 63324, Control_c, 0, 64, 0
1, 63342, Note_off_c, 0, 43, 67
1, 63348, Note_on_c, 0, 58, 50
1, 63371, Note_on_c, 0, 60, 19
1, 63371, Note_off_c, 0, 60, 127
1, 63376, Control_c, 0, 64, 50
1, 63390, Control_c, 0, 64, 76
1, 63395, Note_off_c, 0, 58, 61
1, 63405, Note_off_c, 0, 47, 70
1, 63405, Control_c, 0, 64, 127
1, 63411, Note_off_c, 0, 62, 55
1, 63422, Note_off_c, 0, 59, 64
1, 63430, Note_on_c, 0, 47, 67
1, 63478, Note_on_c, 0, 45, 24
1, 63502, Note_off_c, 0, 47, 59
1, 63516, Note_off_c, 0, 45, 44
1, 63610, Note_on_c, 0, 59, 86
1, 63652, Note_off_c, 0, 50, 55
1, 63787, Note_on_c, 0, 55, 81
1, 63927, Note_on_c, 0, 51, 82
1, 63981, Note_off_c, 0, 59, 58
1, 64001, Note_off_c, 0, 55, 60
1, 64124, Note_on_c, 0, 50, 78
1, 64161, Note_off_c, 0, 51, 59
1, 64292, Note_on_c, 0, 55, 77
1, 64330, Note_off_c, 0, 50, 57
1, 64461, Note_on_c, 0, 50, 75
1, 64513, Note_off_c, 0, 55, 58
1, 64628, Note_on_c, 0, 48, 75
1, 64667, Note_off_c, 0, 50, 61
1, 64793, Control_c, 0, 64, 119
1, 64808, Control_c, 0, 64, 106
1, 64822, Note_on_c, 0, 47, 63
1, 64823, Control_c, 0, 64, 99
1, 64845, Control_c, 0, 64, 92
1, 64860, Control_c, 0, 64, 87
1, 64875, Control_c, 0, 64, 83
1, 64889, Control_c, 0, 64, 79
1, 64904, Control_c, 0, 64, 76
1, 64916, Note_off_c, 0, 48, 34
1, 64919, Control_c, 0, 64, 71
1, 64934, Control_c, 0, 64, 68
1, 64949, Control_c, 0, 64, 64
1, 64963, Control_c, 0, 64, 61
1, 64978, Control_c, 0, 64, 59
1, 64993, Control_c, 0, 64, 58
1, 65018, Note_on_c, 0, 51, 63
1, 65037, Control_c, 0, 64, 58
1, 65060, Note_off_c, 0, 47, 53
1, 65067, Control_c, 0, 64, 57
1, 65096, Control_c, 0, 64, 57
1, 65111, Control_c, 0, 64, 56
1, 65126, Control_c, 0, 64, 56
1, 65141, Control_c, 0, 64, 55
1, 65155, Control_c, 0, 64, 55
1, 65185, Control_c, 0, 64, 54
1, 65200, Control_c, 0, 64, 54
1, 65207, Note_on_c, 0, 50, 54
1, 65244, Control_c, 0, 64, 53
1, 65304, Control_c, 0, 64, 53
1, 65334, Control_c, 0, 64, 52
1, 65349, Control_c, 0, 64, 52
1, 65364, Control_c, 0, 64, 51
1, 65379, Note_on_c, 0, 47, 44
1, 65393, Control_c, 0, 64, 51
1, 65407, Control_c, 0, 64, 50
1, 65436, Control_c, 0, 64, 50
1, 65450, Note_off_c, 0, 51, 33
1, 65451, Control_c, 0, 64, 49
1, 65491, Note_off_c, 0, 50, 35
1, 65510, Control_c, 0, 64, 49
1, 65525, Control_c, 0, 64, 48
1, 65540, Control_c, 0, 64, 48
1, 65555, Control_c, 0, 64, 47
1, 65577, Control_c, 0, 64, 46
1, 65589, Note_off_c, 0, 47, 59
1, 65592, Control_c, 0, 64, 44
1, 65597, Note_on_c, 0, 43, 41
1, 65607, Control_c, 0, 64, 40
1, 65622, Control_c, 0, 64, 34
1, 65636, Control_c, 0, 64, 0
1, 65769, Note_off_c, 0, 43, 57
1, 65775, Note_on_c, 0, 42, 47
1, 65927, Note_off_c, 0, 42, 54
1, 65933, Control_c, 0, 64, 38
1, 65942, Note_on_c, 0, 43, 34
1, 65948, Control_c, 0, 64, 46
1, 65963, Control_c, 0, 64, 53
1, 65977, Control_c, 0, 64, 58
1, 65992, Control_c, 0, 64, 62
1, 66007, Control_c, 0, 64, 67
1, 66022, Control_c, 0, 64, 71
1, 66036, Control_c, 0, 64, 77
1, 66052, Control_c, 0, 64, 83
1, 66067, Control_c, 0, 64, 88
1, 66082, Control_c, 0, 64, 95
1, 66097, Control_c, 0, 64, 104
1, 66111, Note_on_c, 0, 42, 43
1, 66112, Control_c, 0, 64, 122
1, 66119, Note_off_c, 0, 43, 41
1, 66126, Control_c, 0, 64, 127
1, 66304, Control_c, 0, 64, 92
1, 66318, Note_on_c, 0, 43, 38
1, 66319, Note_on_c, 0, 31, 26
1, 66319, Control_c, 0, 64, 75
1, 66341, Control_c, 0, 64, 62
1, 66342, Note_off_c, 0, 42, 42
1, 66356, Control_c, 0, 64, 48
1, 66371, Control_c, 0, 64, 45
1, 66386, Control_c, 0, 64, 54
1, 66400, Control_c, 0, 64, 62
1, 66415, Control_c, 0, 64, 69
1, 66430, Control_c, 0, 64, 77
1, 66445, Control_c, 0, 64, 88
1, 66459, Control_c, 0, 64, 105
1, 66474, Control_c, 0, 64, 127
1, 66525, Note_off_c, 0, 31, 37
1, 66538, Note_on_c, 0, 30, 38
1, 66545, Note_on_c, 0, 42, 50
1, 66570, Note_off_c, 0, 43, 38
1, 66717, Note_on_c, 0, 43, 63
1, 66717, Note_off_c, 0, 42, 57
1, 66736, Note_off_c, 0, 30, 38
1, 66738, Note_on_c, 0, 31, 46
1, 66866, Note_on_c, 0, 30, 67
1, 66877, Note_on_c, 0, 42, 80
1, 66880, Note_off_c, 0, 31, 50
1, 66916, Note_off_c, 0, 43, 61
1, 67037, Note_on_c, 0, 43, 90
1, 67039, Note_on_c, 0, 31, 86
1, 67053, Control_c, 0, 64, 79
1, 67064, Note_off_c, 0, 42, 62
1, 67066, Note_off_c, 0, 30, 61
1, 67068, Control_c, 0, 64, 58
1, 67089, Control_c, 0, 64, 35
1, 67104, Control_c, 0, 64, 52
1, 67119, Control_c, 0, 64, 64
1, 67134, Control_c, 0, 64, 82
1, 67149, Control_c, 0, 64, 127
1, 67184, Note_on_c, 0, 32, 80
1, 67207, Note_on_c, 0, 44, 88
1, 67215, Note_off_c, 0, 31, 59
1, 67247, Note_off_c, 0, 43, 59
1, 67344, Note_on_c, 0, 33, 85
1, 67365, Note_on_c, 0, 45, 97
1, 67380, Note_off_c, 0, 33, 64
1, 67384, Note_off_c, 0, 32, 61
1, 67408, Note_on_c, 0, 47, 39
1, 67416, Note_off_c, 0, 44, 59
1, 67432, Note_off_c, 0, 45, 60
1, 67446, Note_off_c, 0, 47, 64
1, 67450, Poly_aftertouch_c, 0, 46, 127
1, 67469, Poly_aftertouch_c, 0, 46, 0
1, 67480, Note_on_c, 0, 46, 71
1, 67501, Note_on_c, 0, 34, 69
1, 67517, Note_off_c, 0, 46, 66
1, 67531, Note_off_c, 0, 34, 63
1, 67619, Note_on_c, 0, 35, 75
1, 67641, Note_on_c, 0, 38, 60
1, 67681, Note_on_c, 0, 41, 71
1, 67698, Note_off_c, 0, 35, 59
1, 67721, Note_on_c, 0, 44, 78
1, 67771, Note_on_c, 0, 47, 85
1, 67783, Note_on_c, 0, 86, 91
1, 67784, Note_on_c, 0, 77, 67
1, 67787, Control_c, 0, 64, 86
1, 67787, Note_on_c, 0, 74, 90
1, 67787, Note_on_c, 0, 80, 87
1, 67802, Control_c, 0, 64, 57
1, 67817, Control_c, 0, 64, 0
1, 67868, Control_c, 0, 64, 41
1, 67883, Control_c, 0, 64, 64
1, 67898, Control_c, 0, 64, 84
1, 67912, Note_off_c, 0, 47, 62
1, 67912, Control_c, 0, 64, 127
1, 67989, Note_off_c, 0, 44, 63
1, 68010, Note_on_c, 0, 48, 97
1, 68015, Note_off_c, 0, 38, 32
1, 68016, Note_on_c, 0, 36, 80
1, 68025, Note_off_c, 0, 41, 39
1, 68049, Note_off_c, 0, 48, 67
1, 68060, Note_off_c, 0, 36, 58
1, 68165, Note_on_c, 0, 47, 97
1, 68174, Note_on_c, 0, 35, 90
1, 68200, Note_off_c, 0, 35, 63
1, 68209, Note_off_c, 0, 47, 61
1, 68217, Note_off_c, 0, 74, 54
1, 68224, Note_off_c, 0, 86, 58
1, 68248, Note_off_c, 0, 77, 52
1, 68264, Note_off_c, 0, 80, 59
1, 68290, Poly_aftertouch_c, 0, 45, 0
1, 68298, Note_on_c, 0, 48, 101
1, 68326, Note_on_c, 0, 36, 48
1, 68339, Note_off_c, 0, 48, 59
1, 68344, Note_on_c, 0, 39, 35
1, 68365, Note_off_c, 0, 36, 51
1, 68376, Poly_aftertouch_c, 0, 38, 127
1, 68386, Note_off_c, 0, 39, 48
1, 68431, Note_on_c, 0, 35, 34
1, 68435, Note_on_c, 0, 41, 57
1, 68467, Note_on_c, 0, 36, 29
1, 68471, Note_on_c, 0, 44, 77
1, 68471, Note_off_c, 0, 35, 50
1, 68476, Control_c, 0, 64, 85
1, 68490, Note_off_c, 0, 36, 58
1, 68491, Control_c, 0, 64, 55
1, 68497, Note_on_c, 0, 86, 99
1, 68499, Note_on_c, 0, 80, 90
1, 68499, Note_on_c, 0, 47, 80
1, 68502, Note_on_c, 0, 74, 98
1, 68502, Note_on_c, 0, 77, 81
1, 68506, Control_c, 0, 64, 0
1, 68521, Poly_aftertouch_c, 0, 38, 0
1, 68535, Note_off_c, 0, 41, 62
1, 68535, Control_c, 0, 64, 37
1, 68548, Note_off_c, 0, 47, 65
1, 68550, Control_c, 0, 64, 61
1, 68565, Control_c, 0, 64, 79
1, 68581, Note_off_c, 0, 44, 64
1, 68588, Control_c, 0, 64, 127
1, 68660, Note_on_c, 0, 51, 91
1, 68669, Note_on_c, 0, 39, 80
1, 68688, Note_off_c, 0, 51, 62
1, 68693, Note_off_c, 0, 39, 65
1, 68824, Note_on_c, 0, 50, 86
1, 68829, Note_on_c, 0, 38, 77
1, 68845, Note_off_c, 0, 50, 69
1, 68861, Note_off_c, 0, 38, 64
1, 68967, Note_on_c, 0, 48, 86
1, 68973, Note_on_c, 0, 36, 75
1, 68991, Note_off_c, 0, 48, 64
1, 69021, Note_off_c, 0, 36, 57
1, 69120, Control_c, 0, 64, 90
1, 69135, Control_c, 0, 64, 67
1, 69140, Note_on_c, 0, 47, 75
1, 69149, Note_on_c, 0, 35, 70
1, 69150, Control_c, 0, 64, 52
1, 69165, Control_c, 0, 64, 51
1, 69179, Control_c, 0, 64, 60
1, 69194, Control_c, 0, 64, 69
1, 69209, Control_c, 0, 64, 89
1, 69216, Note_off_c, 0, 35, 59
1, 69224, Control_c, 0, 64, 127
1, 69225, Note_off_c, 0, 47, 60
1, 69305, Note_on_c, 0, 48, 91
1, 69311, Note_on_c, 0, 36, 79
1, 69353, Note_off_c, 0, 48, 60
1, 69358, Note_on_c, 0, 37, 28
1, 69362, Note_off_c, 0, 36, 58
1, 69401, Note_off_c, 0, 37, 42
1, 69458, Note_on_c, 0, 47, 102
1, 69468, Note_on_c, 0, 35, 81
1, 69496, Note_off_c, 0, 35, 66
1, 69498, Note_off_c, 0, 47, 64
1, 69514, Note_off_c, 0, 86, 46
1, 69526, Note_off_c, 0, 74, 58
1, 69551, Note_off_c, 0, 77, 56
1, 69565, Note_off_c, 0, 80, 58
1, 69577, Poly_aftertouch_c, 0, 36, 0
1, 69584, Poly_aftertouch_c, 0, 37, 0
1, 69598, Note_on_c, 0, 48, 97
1, 69616, Note_on_c, 0, 38, 65
1, 69632, Note_off_c, 0, 48, 61
1, 69641, Note_off_c, 0, 38, 61
1, 69653, Note_on_c, 0, 39, 14
1, 69677, Note_off_c, 0, 39, 0
1, 69681, Poly_aftertouch_c, 0, 36, 127
1, 69698, Poly_aftertouch_c, 0, 39, 0
1, 69717, Note_on_c, 0, 35, 67
1, 69725, Note_on_c, 0, 38, 63
1, 69741, Note_on_c, 0, 41, 51
1, 69781, Control_c, 0, 64, 102
1, 69787, Note_on_c, 0, 44, 73
1, 69790, Note_off_c, 0, 35, 54
1, 69795, Control_c, 0, 64, 65
1, 69803, Note_on_c, 0, 86, 95
1, 69805, Note_on_c, 0, 74, 93
1, 69809, Note_on_c, 0, 80, 86
1, 69810, Control_c, 0, 64, 0
1, 69811, Note_on_c, 0, 77, 78
1, 69816, Note_on_c, 0, 47, 80
1, 69823, Poly_aftertouch_c, 0, 36, 0
1, 69829, Note_off_c, 0, 38, 64
1, 69851, Note_off_c, 0, 41, 63
1, 69855, Control_c, 0, 64, 57
1, 69869, Control_c, 0, 64, 75
1, 69876, Note_off_c, 0, 47, 65
1, 69882, Note_off_c, 0, 44, 64
1, 69884, Control_c, 0, 64, 127
1, 69985, Note_on_c, 0, 52, 102
1, 69994, Note_on_c, 0, 40, 82
1, 70016, Note_off_c, 0, 40, 66
1, 70023, Note_off_c, 0, 52, 63
1, 70144, Note_on_c, 0, 50, 96
1, 70155, Note_on_c, 0, 38, 87
1, 70179, Note_off_c, 0, 38, 65
1, 70179, Note_off_c, 0, 50, 63
1, 70184, Note_on_c, 0, 39, 38
1, 70221, Note_off_c, 0, 39, 48
1, 70288, Note_on_c, 0, 48, 98
1, 70300, Note_on_c, 0, 36, 79
1, 70326, Note_off_c, 0, 36, 63
1, 70334, Note_off_c, 0, 48, 60
1, 70334, Note_off_c, 0, 74, 50
1, 70345, Note_off_c, 0, 77, 55
1, 70353, Note_off_c, 0, 80, 55
1, 70363, Poly_aftertouch_c, 0, 39, 127
1, 70405, Poly_aftertouch_c, 0, 39, 0
1, 70429, Note_on_c, 0, 38, 50
1, 70439, Note_on_c, 0, 35, 56
1, 70482, Note_off_c, 0, 35, 53
1, 70491, Note_on_c, 0, 41, 48
1, 70550, Note_off_c, 0, 86, 15
1, 70565, Note_on_c, 0, 44, 61
1, 70589, Control_c, 0, 64, 86
1, 70604, Control_c, 0, 64, 64
1, 70619, Control_c, 0, 64, 0
1, 70669, Note_on_c, 0, 47, 48
1, 70689, Note_off_c, 0, 41, 36
1, 70702, Note_on_c, 0, 86, 71
1, 70722, Note_on_c, 0, 74, 53
1, 70723, Control_c, 0, 64, 34
1, 70732, Note_on_c, 0, 80, 51
1, 70735, Note_off_c, 0, 38, 36
1, 70735, Note_on_c, 0, 77, 45
1, 70738, Control_c, 0, 64, 58
1, 70752, Control_c, 0, 64, 71
1, 70765, Note_off_c, 0, 47, 61
1, 70767, Control_c, 0, 64, 86
1, 70782, Control_c, 0, 64, 127
1, 70875, Note_off_c, 0, 44, 49
1, 70945, Note_on_c, 0, 36, 39
1, 70950, Note_on_c, 0, 48, 39
1, 70981, Note_off_c, 0, 36, 51
1, 70996, Note_off_c, 0, 48, 53
1, 71109, Note_on_c, 0, 50, 63
1, 71115, Note_on_c, 0, 38, 54
1, 71140, Note_off_c, 0, 38, 58
1, 71143, Note_off_c, 0, 50, 62
1, 71263, Note_on_c, 0, 52, 71
1, 71266, Note_on_c, 0, 40, 66
1, 71306, Note_off_c, 0, 40, 58
1, 71323, Control_c, 0, 64, 101
1, 71328, Note_off_c, 0, 52, 57
1, 71338, Control_c, 0, 64, 75
1, 71353, Control_c, 0, 64, 61
1, 71367, Control_c, 0, 64, 50
1, 71382, Control_c, 0, 64, 57
1, 71397, Control_c, 0, 64, 64
1, 71410, Note_on_c, 0, 41, 63
1, 71412, Note_on_c, 0, 53, 73
1, 71412, Control_c, 0, 64, 74
1, 71427, Control_c, 0, 64, 92
1, 71441, Control_c, 0, 64, 127
1, 71447, Note_off_c, 0, 41, 57
1, 71462, Note_off_c, 0, 53, 61
1, 71549, Note_on_c, 0, 56, 93
1, 71560, Note_on_c, 0, 44, 68
1, 71610, Note_off_c, 0, 56, 62
1, 71623, Note_off_c, 0, 44, 62
1, 71700, Note_on_c, 0, 57, 96
1, 71712, Note_on_c, 0, 45, 76
1, 71739, Note_off_c, 0, 45, 64
1, 71747, Note_off_c, 0, 57, 61
1, 71839, Note_on_c, 0, 59, 95
1, 71845, Note_on_c, 0, 47, 78
1, 71901, Note_off_c, 0, 59, 56
1, 71912, Note_off_c, 0, 47, 61
1, 72012, Control_c, 0, 64, 87
1, 72026, Note_on_c, 0, 59, 77
1, 72027, Control_c, 0, 64, 67
1, 72029, Note_on_c, 0, 47, 70
1, 72042, Control_c, 0, 64, 53
1, 72071, Control_c, 0, 64, 62
1, 72086, Control_c, 0, 64, 73
1, 72089, Note_off_c, 0, 59, 56
1, 72101, Control_c, 0, 64, 91
1, 72109, Note_off_c, 0, 47, 61
1, 72115, Control_c, 0, 64, 127
1, 72197, Note_on_c, 0, 57, 77
1, 72199, Note_on_c, 0, 45, 79
1, 72225, Note_off_c, 0, 57, 64
1, 72331, Control_c, 0, 64, 106
1, 72342, Note_off_c, 0, 45, 62
1, 72346, Control_c, 0, 64, 73
1, 72354, Note_on_c, 0, 44, 71
1, 72361, Control_c, 0, 64, 52
1, 72362, Note_on_c, 0, 56, 79
1, 72376, Control_c, 0, 64, 0
1, 72391, Control_c, 0, 64, 42
1, 72405, Control_c, 0, 64, 60
1, 72420, Control_c, 0, 64, 71
1, 72431, Note_off_c, 0, 56, 61
1, 72435, Control_c, 0, 64, 87
1, 72451, Control_c, 0, 64, 127
1, 72469, Note_off_c, 0, 44, 60
1, 72503, Note_on_c, 0, 53, 87
1, 72515, Note_on_c, 0, 41, 66
1, 72555, Note_off_c, 0, 53, 63
1, 72565, Note_off_c, 0, 41, 58
1, 72628, Control_c, 0, 64, 102
1, 72643, Control_c, 0, 64, 75
1, 72658, Control_c, 0, 64, 64
1, 72660, Note_on_c, 0, 52, 84
1, 72670, Note_on_c, 0, 40, 74
1, 72688, Control_c, 0, 64, 72
1, 72702, Control_c, 0, 64, 91
1, 72717, Note_off_c, 0, 52, 58
1, 72717, Control_c, 0, 64, 127
1, 72735, Note_off_c, 0, 40, 60
1, 72808, Note_on_c, 0, 50, 94
1, 72822, Note_off_c, 0, 86, 58
1, 72825, Note_on_c, 0, 38, 63
1, 72860, Note_off_c, 0, 38, 55
1, 72860, Note_off_c, 0, 50, 61
1, 72885, Note_off_c, 0, 80, 55
1, 72896, Note_off_c, 0, 77, 55
1, 72899, Poly_aftertouch_c, 0, 39, 127
1, 72923, Note_off_c, 0, 74, 42
1, 72938, Poly_aftertouch_c, 0, 40, 0
1, 72942, Poly_aftertouch_c, 0, 39, 0
1, 72959, Note_on_c, 0, 48, 97
1, 72971, Note_on_c, 0, 36, 78
1, 73000, Note_off_c, 0, 36, 64
1, 73001, Note_off_c, 0, 48, 58
1, 73047, Poly_aftertouch_c, 0, 37, 127
1, 73087, Poly_aftertouch_c, 0, 37, 0
1, 73106, Note_on_c, 0, 47, 86
1, 73134, Note_on_c, 0, 35, 50
1, 73141, Note_on_c, 0, 45, 33
1, 73141, Note_off_c, 0, 45, 127
1, 73166, Note_off_c, 0, 47, 64
1, 73167, Note_off_c, 0, 35, 53
1, 73236, Note_on_c, 0, 40, 59
1, 73243, Note_on_c, 0, 37, 47
1, 73245, Note_on_c, 0, 43, 55
1, 73295, Note_on_c, 0, 45, 62
1, 73317, Note_off_c, 0, 37, 59
1, 73318, Control_c, 0, 64, 79
1, 73333, Control_c, 0, 64, 58
1, 73346, Note_on_c, 0, 49, 78
1, 73348, Note_on_c, 0, 69, 96
1, 73348, Note_on_c, 0, 81, 94
1, 73348, Control_c, 0, 64, 0
1, 73354, Note_on_c, 0, 76, 80
1, 73356, Note_on_c, 0, 79, 85
1, 73377, Control_c, 0, 64, 45
1, 73392, Control_c, 0, 64, 64
1, 73407, Control_c, 0, 64, 79
1, 73422, Control_c, 0, 64, 127
1, 73425, Note_off_c, 0, 43, 61
1, 73428, Note_off_c, 0, 40, 52
1, 73458, Note_off_c, 0, 49, 62
1, 73465, Note_off_c, 0, 45, 59
1, 73540, Note_on_c, 0, 50, 81
1, 73549, Note_on_c, 0, 38, 64
1, 73578, Note_off_c, 0, 69, 51
1, 73588, Note_off_c, 0, 38, 63
1, 73594, Note_off_c, 0, 50, 61
1, 73621, Note_off_c, 0, 81, 49
1, 73704, Note_off_c, 0, 76, 33
1, 73704, Note_on_c, 0, 49, 95
1, 73713, Note_off_c, 0, 79, 37
1, 73718, Note_on_c, 0, 37, 69
1, 73745, Note_off_c, 0, 37, 64
1, 73750, Note_off_c, 0, 49, 64
1, 73850, Note_on_c, 0, 50, 84
1, 73919, Note_off_c, 0, 50, 60
1, 73977, Note_on_c, 0, 37, 66
1, 73979, Note_on_c, 0, 40, 61
1, 74002, Note_on_c, 0, 43, 48
1, 74037, Control_c, 0, 64, 107
1, 74040, Note_on_c, 0, 45, 68
1, 74047, Note_on_c, 0, 69, 101
1, 74050, Note_on_c, 0, 81, 104
1, 74053, Control_c, 0, 64, 70
1, 74056, Note_on_c, 0, 76, 79
1, 74057, Note_on_c, 0, 79, 86
1, 74057, Note_off_c, 0, 37, 62
1, 74064, Note_on_c, 0, 49, 89
1, 74067, Control_c, 0, 64, 44
1, 74082, Control_c, 0, 64, 0
1, 74094, Note_off_c, 0, 40, 59
1, 74097, Control_c, 0, 64, 52
1, 74109, Note_off_c, 0, 43, 62
1, 74112, Control_c, 0, 64, 66
1, 74121, Note_off_c, 0, 45, 63
1, 74127, Control_c, 0, 64, 86
1, 74133, Poly_aftertouch_c, 0, 78, 127
1, 74134, Note_off_c, 0, 49, 64
1, 74141, Control_c, 0, 64, 127
1, 74166, Poly_aftertouch_c, 0, 78, 0
1, 74218, Note_on_c, 0, 53, 88
1, 74232, Note_on_c, 0, 41, 64
1, 74253, Note_off_c, 0, 53, 56
1, 74258, Note_off_c, 0, 41, 61
1, 74339, Poly_aftertouch_c, 0, 43, 0
1, 74376, Note_on_c, 0, 52, 84
1, 74384, Note_on_c, 0, 40, 77
1, 74410, Note_off_c, 0, 52, 55
1, 74416, Note_off_c, 0, 40, 64
1, 74519, Note_on_c, 0, 50, 85
1, 74522, Note_on_c, 0, 38, 88
1, 74539, Note_on_c, 0, 48, 55
1, 74539, Note_off_c, 0, 48, 127
1, 74557, Note_off_c, 0, 38, 63
1, 74574, Note_off_c, 0, 50, 61
1, 74682, Control_c, 0, 64, 74
1, 74689, Note_on_c, 0, 49, 94
1, 74697, Control_c, 0, 64, 58
1, 74700, Note_on_c, 0, 37, 75
1, 74712, Control_c, 0, 64, 55
1, 74726, Control_c, 0, 64, 64
1, 74741, Control_c, 0, 64, 78
1, 74750, Note_off_c, 0, 37, 58
1, 74750, Note_off_c, 0, 49, 63
1, 74756, Control_c, 0, 64, 127
1, 74833, Note_on_c, 0, 50, 100
1, 74858, Note_on_c, 0, 38, 63
1, 74862, Note_on_c, 0, 40, 55
1, 74882, Note_off_c, 0, 38, 63
1, 74886, Note_off_c, 0, 50, 60
1, 74890, Note_on_c, 0, 39, 8
1, 74890, Note_off_c, 0, 40, 55
1, 74920, Note_off_c, 0, 39, 0
1, 74943, Poly_aftertouch_c, 0, 39, 0
1, 74960, Note_off_c, 0, 81, 48
1, 74989, Note_on_c, 0, 49, 103
1, 74999, Note_on_c, 0, 37, 83
1, 75014, Note_off_c, 0, 69, 49
1, 75036, Note_off_c, 0, 49, 65
1, 75040, Note_off_c, 0, 37, 58
1, 75063, Note_off_c, 0, 79, 37
1, 75081, Note_off_c, 0, 76, 41
1, 75120, Note_on_c, 0, 50, 98
1, 75172, Note_off_c, 0, 50, 62
1, 75173, Note_on_c, 0, 38, 22
1, 75206, Note_off_c, 0, 38, 47
1, 75228, Note_on_c, 0, 43, 33
1, 75229, Note_on_c, 0, 40, 50
1, 75238, Note_on_c, 0, 37, 61
1, 75283, Note_on_c, 0, 45, 60
1, 75290, Control_c, 0, 64, 91
1, 75303, Note_off_c, 0, 37, 62
1, 75305, Control_c, 0, 64, 60
1, 75320, Note_on_c, 0, 69, 105
1, 75325, Note_on_c, 0, 76, 94
1, 75326, Note_on_c, 0, 49, 93
1, 75326, Note_on_c, 0, 81, 103
1, 75327, Note_on_c, 0, 79, 98
1, 75328, Control_c, 0, 64, 0
1, 75348, Note_off_c, 0, 40, 62
1, 75357, Control_c, 0, 64, 61
1, 75361, Note_on_c, 0, 78, 40
1, 75361, Note_off_c, 0, 43, 63
1, 75369, Note_off_c, 0, 45, 64
1, 75372, Control_c, 0, 64, 94
1, 75378, Note_off_c, 0, 49, 64
1, 75387, Control_c, 0, 64, 127
1, 75403, Note_off_c, 0, 78, 47
1, 75482, Note_on_c, 0, 53, 98
1, 75494, Note_on_c, 0, 41, 77
1, 75513, Note_off_c, 0, 53, 59
1, 75520, Note_on_c, 0, 42, 37
1, 75521, Note_off_c, 0, 41, 64
1, 75558, Note_off_c, 0, 42, 53
1, 75558, Note_off_c, 0, 69, 54
1, 75598, Poly_aftertouch_c, 0, 46, 0
1, 75612, Note_off_c, 0, 81, 56
1, 75620, Note_off_c, 0, 76, 50
1, 75632, Note_on_c, 0, 52, 103
1, 75642, Note_on_c, 0, 40, 82
1, 75665, Note_off_c, 0, 40, 65
1, 75674, Note_off_c, 0, 52, 53
1, 75711, Note_off_c, 0, 79, 33
1, 75737, Poly_aftertouch_c, 0, 42, 0
1, 75743, Poly_aftertouch_c, 0, 44, 0
1, 75770, Note_on_c, 0, 50, 95
1, 75778, Note_on_c, 0, 38, 89
1, 75817, Note_off_c, 0, 38, 55
1, 75826, Note_off_c, 0, 50, 58
1, 76034, Note_on_c, 0, 37, 38
1, 76052, Note_on_c, 0, 49, 44
1, 76194, Control_c, 0, 64, 86
1, 76209, Control_c, 0, 64, 63
1, 76217, Note_on_c, 0, 81, 63
1, 76224, Note_on_c, 0, 69, 46
1, 76224, Control_c, 0, 64, 0
1, 76235, Note_on_c, 0, 79, 52
1, 76241, Note_on_c, 0, 76, 31
1, 76327, Control_c, 0, 64, 59
1, 76342, Control_c, 0, 64, 72
1, 76348, Note_off_c, 0, 37, 40
1, 76357, Control_c, 0, 64, 93
1, 76372, Control_c, 0, 64, 127
1, 76443, Note_off_c, 0, 49, 40
1, 76468, Note_off_c, 0, 81, 38
1, 76485, Note_off_c, 0, 69, 45
1, 76509, Note_on_c, 0, 50, 39
1, 76512, Note_on_c, 0, 38, 31
1, 76518, Note_off_c, 0, 79, 37
1, 76555, Note_off_c, 0, 38, 43
1, 76555, Note_off_c, 0, 50, 58
1, 76575, Note_off_c, 0, 76, 38
1, 76674, Note_on_c, 0, 52, 63
1, 76676, Note_on_c, 0, 40, 53
1, 76705, Note_off_c, 0, 40, 57
1, 76712, Note_off_c, 0, 52, 59
1, 76825, Note_on_c, 0, 53, 87
1, 76836, Note_on_c, 0, 41, 66
1, 76860, Note_off_c, 0, 41, 59
1, 76885, Note_off_c, 0, 53, 59
1, 76968, Note_on_c, 0, 55, 94
1, 76982, Note_on_c, 0, 43, 67
1, 77005, Note_on_c, 0, 45, 47
1, 77012, Note_off_c, 0, 43, 63
1, 77018, Note_off_c, 0, 55, 63
1, 77036, Note_off_c, 0, 45, 53
1, 77104, Note_on_c, 0, 57, 100
1, 77112, Note_on_c, 0, 45, 70
1, 77136, Note_on_c, 0, 50, 52
1, 77141, Note_off_c, 0, 45, 57
1, 77152, Note_off_c, 0, 57, 62
1, 77192, Poly_aftertouch_c, 0, 46, 127
1, 77215, Note_off_c, 0, 50, 60
1, 77251, Poly_aftertouch_c, 0, 46, 0
1, 77267, Note_on_c, 0, 46, 40
1, 77270, Control_c, 0, 64, 98
1, 77274, Note_on_c, 0, 58, 66
1, 77284, Control_c, 0, 64, 71
1, 77299, Control_c, 0, 64, 49
1, 77314, Control_c, 0, 64, 0
1, 77319, Note_off_c, 0, 46, 55
1, 77326, Note_on_c, 0, 57, 45
1, 77326, Note_on_c, 0, 69, 50
1, 77329, Control_c, 0, 64, 38
1, 77338, Note_off_c, 0, 58, 63
1, 77344, Control_c, 0, 64, 60
1, 77358, Note_on_c, 0, 67, 33
1, 77359, Control_c, 0, 64, 71
1, 77373, Control_c, 0, 64, 89
1, 77379, Note_on_c, 0, 64, 3
1, 77389, Control_c, 0, 64, 115
1, 77404, Control_c, 0, 64, 127
1, 77437, Note_on_c, 0, 61, 67
1, 77448, Note_on_c, 0, 49, 54
1, 77471, Note_off_c, 0, 61, 61
1, 77478, Note_off_c, 0, 49, 54
1, 77483, Note_off_c, 0, 69, 34
1, 77501, Note_off_c, 0, 57, 43
1, 77523, Note_off_c, 0, 67, 42
1, 77552, Control_c, 0, 64, 100
1, 77574, Control_c, 0, 64, 72
1, 77589, Control_c, 0, 64, 58
1, 77604, Control_c, 0, 64, 45
1, 77615, Note_on_c, 0, 61, 45
1, 77618, Note_off_c, 0, 64, 0
1, 77618, Control_c, 0, 64, 54
1, 77623, Note_on_c, 0, 57, 44
1, 77623, Note_on_c, 0, 69, 46
1, 77630, Note_on_c, 0, 49, 30
1, 77633, Control_c, 0, 64, 62
1, 77648, Control_c, 0, 64, 71
1, 77650, Note_off_c, 0, 61, 62
1, 77655, Note_on_c, 0, 67, 35
1, 77656, Poly_aftertouch_c, 0, 64, 127
1, 77663, Control_c, 0, 64, 92
1, 77678, Control_c, 0, 64, 127
1, 77681, Note_off_c, 0, 49, 46
1, 77695, Note_off_c, 0, 57, 54
1, 77787, Note_on_c, 0, 58, 49
1, 77800, Note_on_c, 0, 46, 39
1, 77814, Note_off_c, 0, 58, 63
1, 77817, Poly_aftertouch_c, 0, 64, 0
1, 77835, Note_off_c, 0, 46, 52
1, 77835, Note_off_c, 0, 67, 43
1, 77844, Note_off_c, 0, 69, 41
1, 77934, Note_on_c, 0, 45, 53
1, 77944, Note_on_c, 0, 57, 40
1, 77966, Note_off_c, 0, 45, 57
1, 77976, Note_off_c, 0, 57, 53
1, 78073, Note_on_c, 0, 55, 54
1, 78082, Note_on_c, 0, 43, 48
1, 78097, Note_off_c, 0, 55, 61
1, 78113, Note_off_c, 0, 43, 53
1, 78123, Control_c, 0, 64, 107
1, 78138, Control_c, 0, 64, 71
1, 78153, Control_c, 0, 64, 42
1, 78163, Note_on_c, 0, 69, 71
1, 78164, Note_on_c, 0, 81, 65
1, 78167, Control_c, 0, 64, 0
1, 78182, Note_off_c, 0, 81, 64
1, 78182, Control_c, 0, 64, 45
1, 78183, Note_off_c, 0, 69, 65
1, 78197, Control_c, 0, 64, 65
1, 78212, Control_c, 0, 64, 87
1, 78227, Control_c, 0, 64, 127
1, 78229, Note_on_c, 0, 81, 77
1, 78231, Note_on_c, 0, 69, 81
1, 78232, Note_on_c, 0, 53, 57
1, 78242, Note_off_c, 0, 81, 69
1, 78243, Note_on_c, 0, 41, 40
1, 78253, Note_off_c, 0, 69, 69
1, 78256, Note_off_c, 0, 53, 59
1, 78275, Note_off_c, 0, 41, 50
1, 78385, Note_on_c, 0, 40, 55
1, 78390, Note_on_c, 0, 52, 49
1, 78414, Note_off_c, 0, 40, 56
1, 78418, Note_off_c, 0, 52, 55
1, 78548, Note_on_c, 0, 50, 47
1, 78554, Note_on_c, 0, 38, 50
1, 78560, Note_on_c, 0, 69, 68
1, 78564, Note_on_c, 0, 57, 57
1, 78576, Note_off_c, 0, 50, 54
1, 78591, Note_off_c, 0, 38, 60
1, 78593, Note_on_c, 0, 67, 47
1, 78595, Note_on_c, 0, 64, 39
1, 78611, Note_off_c, 0, 57, 57
1, 78634, Note_off_c, 0, 67, 65
1, 78645, Note_off_c, 0, 69, 60
1, 78647, Note_off_c, 0, 64, 60
1, 78694, Note_on_c, 0, 49, 67
1, 78703, Note_on_c, 0, 37, 53
1, 78748, Note_off_c, 0, 49, 55
1, 78750, Note_off_c, 0, 37, 58
1, 78811, Control_c, 0, 64, 79
1, 78826, Control_c, 0, 64, 59
1, 78843, Control_c, 0, 64, 0
1, 78857, Control_c, 0, 64, 42
1, 78872, Control_c, 0, 64, 59
1, 78878, Note_on_c, 0, 38, 50
1, 78887, Control_c, 0, 64, 71
1, 78890, Note_on_c, 0, 58, 59
1, 78891, Note_on_c, 0, 70, 65
1, 78897, Note_on_c, 0, 50, 38
1, 78902, Control_c, 0, 64, 95
1, 78903, Note_on_c, 0, 69, 53
1, 78915, Note_off_c, 0, 38, 59
1, 78916, Control_c, 0, 64, 127
1, 78918, Note_on_c, 0, 65, 51
1, 78919, Note_off_c, 0, 58, 66
1, 78935, Note_off_c, 0, 50, 49
1, 78971, Note_off_c, 0, 65, 54
1, 79026, Note_off_c, 0, 70, 55
1, 79036, Note_off_c, 0, 69, 36
1, 79051, Note_on_c, 0, 52, 59
1, 79071, Note_on_c, 0, 40, 33
1, 79093, Note_off_c, 0, 52, 64
1, 79111, Note_off_c, 0, 40, 42
1, 79213, Note_on_c, 0, 53, 68
1, 79233, Note_on_c, 0, 41, 24
1, 79242, Note_off_c, 0, 53, 65
1, 79273, Note_off_c, 0, 41, 41
1, 79340, Note_on_c, 0, 55, 77
1, 79355, Note_on_c, 0, 43, 50
1, 79366, Note_off_c, 0, 55, 67
1, 79383, Control_c, 0, 64, 79
1, 79385, Note_off_c, 0, 43, 54
1, 79398, Control_c, 0, 64, 57
1, 79412, Control_c, 0, 64, 35
1, 79414, Note_on_c, 0, 93, 73
1, 79415, Note_on_c, 0, 81, 72
1, 79427, Control_c, 0, 64, 52
1, 79429, Note_off_c, 0, 93, 66
1, 79431, Note_off_c, 0, 81, 67
1, 79442, Control_c, 0, 64, 67
1, 79457, Control_c, 0, 64, 96
1, 79472, Control_c, 0, 64, 127
1, 79476, Note_on_c, 0, 81, 95
1, 79480, Note_on_c, 0, 93, 75
1, 79486, Note_on_c, 0, 57, 71
1, 79496, Note_off_c, 0, 93, 67
1, 79498, Note_off_c, 0, 81, 66
1, 79500, Note_on_c, 0, 45, 41
1, 79508, Note_off_c, 0, 57, 65
1, 79532, Note_on_c, 0, 50, 24
1, 79533, Note_off_c, 0, 45, 53
1, 79573, Note_off_c, 0, 50, 52
1, 79617, Note_on_c, 0, 58, 77
1, 79633, Note_on_c, 0, 46, 49
1, 79642, Note_off_c, 0, 58, 69
1, 79663, Note_off_c, 0, 46, 55
1, 79764, Note_on_c, 0, 58, 93
1, 79770, Note_on_c, 0, 61, 85
1, 79770, Note_on_c, 0, 70, 81
1, 79776, Note_on_c, 0, 49, 68
1, 79776, Note_on_c, 0, 65, 74
1, 79783, Note_off_c, 0, 58, 68
1, 79806, Note_off_c, 0, 61, 58
1, 79815, Note_off_c, 0, 49, 65
1, 79824, Note_on_c, 0, 54, 20
1, 79824, Note_off_c, 0, 65, 52
1, 79843, Note_off_c, 0, 70, 61
1, 79866, Note_off_c, 0, 54, 41
1, 79911, Note_on_c, 0, 62, 92
1, 79922, Note_on_c, 0, 50, 71
1, 79955, Note_off_c, 0, 50, 57
1, 79975, Note_off_c, 0, 62, 53
1, 80022, Poly_aftertouch_c, 0, 54, 127
1, 80070, Poly_aftertouch_c, 0, 54, 0
1, 80086, Control_c, 0, 64, 84
1, 80089, Note_on_c, 0, 51, 55
1, 80101, Control_c, 0, 64, 63
1, 80114, Note_on_c, 0, 63, 47
1, 80116, Control_c, 0, 64, 41
1, 80126, Note_on_c, 0, 71, 79
1, 80130, Control_c, 0, 64, 45
1, 80136, Note_on_c, 0, 59, 62
1, 80140, Note_on_c, 0, 69, 66
1, 80145, Control_c, 0, 64, 60
1, 80149, Note_on_c, 0, 66, 62
1, 80160, Control_c, 0, 64, 73
1, 80175, Control_c, 0, 64, 100
1, 80180, Note_off_c, 0, 59, 62
1, 80184, Note_off_c, 0, 63, 61
1, 80190, Control_c, 0, 64, 127
1, 80252, Note_off_c, 0, 51, 59
1, 80253, Note_off_c, 0, 66, 58
1, 80284, Note_off_c, 0, 71, 61
1, 80287, Note_off_c, 0, 69, 60
1, 80298, Note_on_c, 0, 60, 71
1, 80299, Note_on_c, 0, 48, 65
1, 80325, Note_off_c, 0, 60, 67
1, 80336, Note_off_c, 0, 48, 62
1, 80437, Note_on_c, 0, 59, 81
1, 80447, Note_on_c, 0, 47, 72
1, 80466, Note_off_c, 0, 59, 58
1, 80475, Note_off_c, 0, 47, 65
1, 80577, Note_on_c, 0, 57, 88
1, 80590, Note_on_c, 0, 45, 74
1, 80611, Note_off_c, 0, 57, 54
1, 80614, Control_c, 0, 64, 94
1, 80622, Note_on_c, 0, 69, 80
1, 80622, Note_off_c, 0, 45, 64
1, 80624, Note_on_c, 0, 81, 79
1, 80629, Control_c, 0, 64, 66
1, 80638, Note_off_c, 0, 81, 70
1, 80641, Note_off_c, 0, 69, 71
1, 80643, Control_c, 0, 64, 0
1, 80673, Control_c, 0, 64, 51
1, 80687, Control_c, 0, 64, 69
1, 80691, Note_on_c, 0, 81, 98
1, 80697, Note_on_c, 0, 69, 97
1, 80702, Control_c, 0, 64, 96
1, 80713, Note_on_c, 0, 55, 88
1, 80717, Control_c, 0, 64, 127
1, 80731, Note_on_c, 0, 43, 63
1, 80732, Note_off_c, 0, 81, 62
1, 80738, Note_on_c, 0, 45, 47
1, 80740, Note_off_c, 0, 55, 64
1, 80746, Note_off_c, 0, 69, 63
1, 80761, Note_off_c, 0, 43, 64
1, 80767, Note_off_c, 0, 45, 55
1, 80840, Note_on_c, 0, 54, 99
1, 80856, Note_on_c, 0, 42, 71
1, 80874, Note_on_c, 0, 44, 52
1, 80877, Note_off_c, 0, 54, 58
1, 80879, Note_off_c, 0, 42, 65
1, 80909, Note_off_c, 0, 44, 58
1, 80979, Note_on_c, 0, 52, 99
1, 80988, Note_on_c, 0, 59, 96
1, 80989, Note_on_c, 0, 71, 91
1, 80999, Note_on_c, 0, 66, 79
1, 81004, Note_on_c, 0, 40, 58
1, 81007, Note_on_c, 0, 69, 69
1, 81007, Note_on_c, 0, 41, 49
1, 81012, Note_off_c, 0, 52, 60
1, 81034, Note_off_c, 0, 40, 55
1, 81037, Note_off_c, 0, 41, 51
1, 81041, Note_on_c, 0, 42, 3
1, 81058, Note_off_c, 0, 59, 61
1, 81058, Note_off_c, 0, 71, 61
1, 81078, Note_off_c, 0, 42, 51
1, 81084, Note_off_c, 0, 69, 60
1, 81109, Note_on_c, 0, 51, 96
1, 81128, Note_on_c, 0, 40, 62
1, 81144, Note_on_c, 0, 52, 50
1, 81147, Note_on_c, 0, 42, 29
1, 81150, Note_off_c, 0, 51, 63
1, 81156, Note_off_c, 0, 40, 62
1, 81159, Note_off_c, 0, 52, 68
1, 81177, Note_off_c, 0, 42, 57
1, 81266, Control_c, 0, 64, 102
1, 81277, Note_off_c, 0, 66, 60
1, 81281, Control_c, 0, 64, 69
1, 81295, Note_on_c, 0, 40, 60
1, 81302, Control_c, 0, 64, 40
1, 81304, Note_on_c, 0, 52, 68
1, 81310, Note_on_c, 0, 60, 98
1, 81314, Note_on_c, 0, 69, 87
1, 81317, Note_on_c, 0, 72, 89
1, 81317, Control_c, 0, 64, 0
1, 81332, Control_c, 0, 64, 39
1, 81346, Note_off_c, 0, 40, 60
1, 81347, Control_c, 0, 64, 62
1, 81362, Control_c, 0, 64, 82
1, 81365, Note_off_c, 0, 52, 58
1, 81377, Note_on_c, 0, 45, 25
1, 81377, Control_c, 0, 64, 127
1, 81378, Note_off_c, 0, 60, 71
1, 81423, Note_off_c, 0, 45, 49
1, 81471, Note_on_c, 0, 54, 93
1, 81472, Note_off_c, 0, 69, 60
1, 81478, Note_off_c, 0, 72, 61
1, 81490, Note_on_c, 0, 42, 63
1, 81496, Poly_aftertouch_c, 0, 68, 0
1, 81514, Note_off_c, 0, 54, 58
1, 81515, Note_off_c, 0, 42, 64
1, 81607, Note_on_c, 0, 56, 96
1, 81618, Note_on_c, 0, 44, 76
1, 81641, Note_off_c, 0, 44, 67
1, 81652, Note_off_c, 0, 56, 57
1, 81739, Note_on_c, 0, 57, 88
1, 81749, Note_on_c, 0, 45, 69
1, 81779, Note_off_c, 0, 45, 64
1, 81788, Note_off_c, 0, 57, 60
1, 81791, Control_c, 0, 64, 74
1, 81794, Note_on_c, 0, 81, 97
1, 81798, Note_on_c, 0, 93, 81
1, 81806, Control_c, 0, 64, 51
1, 81809, Note_off_c, 0, 81, 74
1, 81818, Note_off_c, 0, 93, 72
1, 81821, Control_c, 0, 64, 34
1, 81836, Control_c, 0, 64, 54
1, 81851, Control_c, 0, 64, 71
1, 81866, Control_c, 0, 64, 112
1, 81866, Note_on_c, 0, 81, 105
1, 81868, Note_on_c, 0, 93, 91
1, 81873, Note_on_c, 0, 59, 95
1, 81880, Control_c, 0, 64, 127
1, 81881, Note_on_c, 0, 47, 81
1, 81884, Note_off_c, 0, 93, 74
1, 81906, Note_off_c, 0, 47, 68
1, 81906, Note_off_c, 0, 81, 63
1, 81908, Note_off_c, 0, 59, 56
1, 82007, Note_on_c, 0, 60, 96
1, 82026, Note_on_c, 0, 48, 62
1, 82041, Note_off_c, 0, 60, 57
1, 82056, Note_off_c, 0, 48, 61
1, 82147, Note_on_c, 0, 60, 92
1, 82149, Note_on_c, 0, 72, 85
1, 82155, Note_on_c, 0, 62, 108
1, 82158, Note_on_c, 0, 69, 72
1, 82170, Note_on_c, 0, 50, 73
1, 82182, Note_off_c, 0, 60, 66
1, 82188, Note_off_c, 0, 50, 66
1, 82199, Note_off_c, 0, 62, 61
1, 82203, Note_off_c, 0, 72, 62
1, 82206, Note_on_c, 0, 54, 26
1, 82247, Note_off_c, 0, 54, 42
1, 82256, Note_off_c, 0, 69, 46
1, 82258, Poly_aftertouch_c, 0, 71, 127
1, 82280, Note_on_c, 0, 64, 101
1, 82283, Poly_aftertouch_c, 0, 71, 0
1, 82287, Note_on_c, 0, 52, 83
1, 82364, Note_off_c, 0, 52, 56
1, 82384, Note_off_c, 0, 64, 46
1, 82436, Control_c, 0, 64, 86
1, 82450, Control_c, 0, 64, 59
1, 82462, Note_on_c, 0, 61, 96
1, 82465, Control_c, 0, 64, 38
1, 82466, Note_on_c, 0, 73, 90
1, 82469, Note_on_c, 0, 64, 77
1, 82470, Note_on_c, 0, 69, 75
1, 82476, Note_on_c, 0, 52, 73
1, 82478, Note_on_c, 0, 67, 72
1, 82480, Control_c, 0, 64, 54
1, 82495, Control_c, 0, 64, 67
1, 82510, Control_c, 0, 64, 90
1, 82518, Note_off_c, 0, 64, 59
1, 82524, Control_c, 0, 64, 127
1, 82527, Note_off_c, 0, 52, 58
1, 82535, Note_off_c, 0, 61, 63
1, 82582, Note_off_c, 0, 67, 59
1, 82599, Note_off_c, 0, 69, 56
1, 82619, Note_on_c, 0, 62, 92
1, 82628, Note_on_c, 0, 50, 79
1, 82628, Note_off_c, 0, 73, 59
1, 82659, Note_off_c, 0, 62, 57
1, 82660, Note_off_c, 0, 50, 58
1, 82754, Note_on_c, 0, 61, 96
1, 82761, Note_on_c, 0, 49, 80
1, 82772, Note_off_c, 0, 61, 69
1, 82817, Note_off_c, 0, 49, 55
1, 82817, Note_on_c, 0, 51, 10
1, 82864, Note_off_c, 0, 51, 53
1, 82885, Note_on_c, 0, 58, 90
1, 82895, Note_on_c, 0, 46, 82
1, 82934, Note_off_c, 0, 58, 64
1, 82939, Note_off_c, 0, 46, 59
1, 82954, Note_on_c, 0, 69, 90
1, 82960, Note_on_c, 0, 81, 82
1, 82963, Control_c, 0, 64, 107
1, 82975, Note_off_c, 0, 69, 69
1, 82976, Note_off_c, 0, 81, 70
1, 82978, Control_c, 0, 64, 70
1, 82993, Control_c, 0, 64, 41
1, 83008, Control_c, 0, 64, 0
1, 83023, Control_c, 0, 64, 55
1, 83027, Note_on_c, 0, 69, 96
1, 83027, Note_on_c, 0, 81, 95
1, 83028, Note_on_c, 0, 57, 97
1, 83037, Note_on_c, 0, 45, 80
1, 83037, Control_c, 0, 64, 70
1, 83052, Note_off_c, 0, 81, 65
1, 83052, Control_c, 0, 64, 127
1, 83064, Note_on_c, 0, 46, 40
1, 83067, Note_off_c, 0, 45, 65
1, 83067, Note_off_c, 0, 57, 64
1, 83089, Note_off_c, 0, 69, 61
1, 83095, Note_off_c, 0, 46, 55
1, 83115, Poly_aftertouch_c, 0, 51, 127
1, 83136, Poly_aftertouch_c, 0, 51, 0
1, 83171, Note_on_c, 0, 55, 84
1, 83171, Note_on_c, 0, 57, 83
1, 83189, Note_on_c, 0, 43, 59
1, 83189, Note_off_c, 0, 57, 73
1, 83192, Note_on_c, 0, 45, 50
1, 83192, Note_on_c, 0, 46, 42
1, 83196, Note_off_c, 0, 55, 66
1, 83216, Note_off_c, 0, 43, 58
1, 83226, Note_off_c, 0, 46, 53
1, 83236, Note_off_c, 0, 45, 42
1, 83293, Note_on_c, 0, 61, 98
1, 83297, Note_on_c, 0, 73, 91
1, 83300, Note_on_c, 0, 53, 100
1, 83309, Note_on_c, 0, 67, 68
1, 83309, Note_on_c, 0, 69, 74
1, 83311, Note_on_c, 0, 41, 76
1, 83330, Note_off_c, 0, 53, 60
1, 83338, Note_off_c, 0, 41, 62
1, 83339, Note_on_c, 0, 42, 35
1, 83350, Note_off_c, 0, 61, 63
1, 83360, Note_off_c, 0, 67, 51
1, 83375, Note_off_c, 0, 69, 61
1, 83377, Note_off_c, 0, 42, 51
1, 83399, Note_off_c, 0, 73, 57
1, 83417, Note_on_c, 0, 52, 94
1, 83428, Note_on_c, 0, 40, 78
1, 83455, Note_off_c, 0, 40, 65
1, 83474, Note_off_c, 0, 52, 58
1, 83578, Note_on_c, 0, 41, 56
1, 83613, Note_on_c, 0, 46, 61
1, 83622, Control_c, 0, 64, 88
1, 83624, Note_on_c, 0, 50, 59
1, 83638, Control_c, 0, 64, 63
1, 83653, Control_c, 0, 64, 0
1, 83685, Note_on_c, 0, 53, 75
1, 83718, Note_on_c, 0, 62, 76
1, 83721, Note_on_c, 0, 74, 77
1, 83727, Control_c, 0, 64, 41
1, 83729, Note_on_c, 0, 70, 64
1, 83732, Note_off_c, 0, 41, 41
1, 83742, Control_c, 0, 64, 70
1, 83747, Note_off_c, 0, 53, 62
1, 83757, Control_c, 0, 64, 109
1, 83768, Note_off_c, 0, 62, 59
1, 83772, Control_c, 0, 64, 127
1, 83773, Note_off_c, 0, 50, 61
1, 83773, Note_off_c, 0, 74, 60
1, 83803, Note_off_c, 0, 46, 62
1, 83816, Note_off_c, 0, 70, 58
1, 83874, Note_on_c, 0, 63, 75
1, 83879, Note_on_c, 0, 75, 73
1, 83893, Note_on_c, 0, 72, 57
1, 83896, Note_off_c, 0, 63, 70
1, 83917, Note_off_c, 0, 72, 64
1, 83934, Note_off_c, 0, 75, 61
1, 84027, Note_on_c, 0, 29, 37
1, 84032, Note_on_c, 0, 65, 78
1, 84039, Note_on_c, 0, 77, 61
1, 84051, Note_on_c, 0, 74, 45
1, 84054, Note_off_c, 0, 65, 71
1, 84057, Note_off_c, 0, 77, 65
1, 84072, Note_off_c, 0, 29, 43
1, 84077, Note_off_c, 0, 74, 56
1, 84092, Note_on_c, 0, 41, 66
1, 84123, Poly_aftertouch_c, 0, 38, 0
1, 84134, Note_off_c, 0, 41, 62
1, 84143, Note_on_c, 0, 38, 43
1, 84160, Note_on_c, 0, 67, 86
1, 84161, Note_on_c, 0, 34, 62
1, 84164, Note_on_c, 0, 79, 83
1, 84166, Note_on_c, 0, 29, 55
1, 84167, Note_on_c, 0, 75, 69
1, 84181, Note_off_c, 0, 67, 68
1, 84188, Note_off_c, 0, 79, 67
1, 84194, Note_off_c, 0, 34, 63
1, 84198, Note_off_c, 0, 75, 63
1, 84203, Note_off_c, 0, 29, 49
1, 84212, Note_off_c, 0, 38, 62
1, 84214, Note_on_c, 0, 41, 75
1, 84253, Note_off_c, 0, 41, 63
1, 84274, Note_on_c, 0, 38, 53
1, 84275, Note_on_c, 0, 34, 68
1, 84286, Note_on_c, 0, 69, 97
1, 84286, Note_on_c, 0, 29, 63
1, 84298, Note_on_c, 0, 77, 84
1, 84301, Note_on_c, 0, 81, 81
1, 84317, Note_off_c, 0, 77, 72
1, 84317, Note_off_c, 0, 81, 67
1, 84320, Note_off_c, 0, 29, 59
1, 84320, Note_off_c, 0, 69, 60
1, 84325, Note_off_c, 0, 34, 55
1, 84340, Note_on_c, 0, 41, 77
1, 84342, Note_off_c, 0, 38, 64
1, 84388, Note_off_c, 0, 41, 59
1, 84395, Note_on_c, 0, 38, 56
1, 84403, Note_on_c, 0, 34, 74
1, 84409, Note_on_c, 0, 29, 55
1, 84416, Note_on_c, 0, 70, 101
1, 84420, Note_on_c, 0, 82, 93
1, 84429, Note_on_c, 0, 79, 66
1, 84433, Note_off_c, 0, 29, 61
1, 84443, Note_off_c, 0, 70, 63
1, 84456, Note_on_c, 0, 41, 81
1, 84458, Note_off_c, 0, 34, 59
1, 84458, Note_off_c, 0, 79, 64
1, 84458, Note_off_c, 0, 82, 60
1, 84471, Note_off_c, 0, 38, 61
1, 84502, Poly_aftertouch_c, 0, 38, 0
1, 84505, Note_off_c, 0, 41, 56
1, 84515, Note_on_c, 0, 38, 45
1, 84519, Note_on_c, 0, 34, 63
1, 84522, Note_on_c, 0, 29, 55
1, 84548, Note_on_c, 0, 72, 103
1, 84552, Note_on_c, 0, 81, 99
1, 84552, Note_on_c, 0, 84, 99
1, 84555, Note_off_c, 0, 29, 54
1, 84572, Note_on_c, 0, 41, 76
1, 84572, Note_off_c, 0, 34, 60
1, 84572, Note_off_c, 0, 81, 65
1, 84576, Note_off_c, 0, 72, 59
1, 84587, Note_off_c, 0, 84, 51
1, 84590, Note_off_c, 0, 38, 62
1, 84615, Note_off_c, 0, 41, 55
1, 84632, Note_on_c, 0, 34, 54
1, 84657, Note_off_c, 0, 34, 62
1, 84663, Poly_aftertouch_c, 0, 38, 127
1, 84666, Note_on_c, 0, 41, 68
1, 84672, Note_on_c, 0, 74, 104
1, 84674, Note_on_c, 0, 86, 97
1, 84684, Note_on_c, 0, 82, 79
1, 84686, Note_on_c, 0, 29, 3
1, 84686, Note_off_c, 0, 41, 71
1, 84711, Poly_aftertouch_c, 0, 38, 0
1, 84718, Note_off_c, 0, 29, 37
1, 84745, Note_off_c, 0, 86, 59
1, 84746, Note_off_c, 0, 74, 54
1, 84777, Note_on_c, 0, 41, 12
1, 84781, Note_off_c, 0, 82, 54
1, 84792, Note_on_c, 0, 46, 70
1, 84793, Note_on_c, 0, 50, 62
1, 84802, Control_c, 0, 64, 70
1, 84817, Control_c, 0, 64, 0
1, 84820, Note_off_c, 0, 41, 38
1, 84826, Note_off_c, 0, 46, 66
1, 84838, Note_on_c, 0, 74, 114
1, 84841, Note_on_c, 0, 58, 96
1, 84841, Note_on_c, 0, 86, 105
1, 84844, Note_on_c, 0, 82, 90
1, 84847, Control_c, 0, 64, 54
1, 84861, Note_off_c, 0, 58, 71
1, 84862, Control_c, 0, 64, 76
1, 84871, Note_off_c, 0, 50, 58
1, 84877, Control_c, 0, 64, 127
1, 84884, Note_off_c, 0, 86, 65
1, 84892, Note_off_c, 0, 82, 64
1, 84912, Note_off_c, 0, 74, 57
1, 84996, Note_on_c, 0, 72, 82
1, 85003, Note_on_c, 0, 81, 66
1, 85010, Note_on_c, 0, 84, 51
1, 85027, Note_off_c, 0, 72, 56
1, 85033, Note_off_c, 0, 81, 66
1, 85034, Note_off_c, 0, 84, 58
1, 85128, Note_on_c, 0, 34, 56
1, 85142, Note_on_c, 0, 38, 49
1, 85147, Note_on_c, 0, 70, 73
1, 85150, Note_on_c, 0, 82, 68
1, 85165, Note_off_c, 0, 34, 62
1, 85171, Note_off_c, 0, 70, 70
1, 85175, Note_off_c, 0, 82, 68
1, 85180, Note_off_c, 0, 38, 64
1, 85185, Note_on_c, 0, 41, 70
1, 85219, Poly_aftertouch_c, 0, 29, 0
1, 85231, Note_off_c, 0, 41, 61
1, 85257, Note_on_c, 0, 34, 65
1, 85261, Note_on_c, 0, 38, 66
1, 85278, Note_on_c, 0, 69, 92
1, 85282, Note_on_c, 0, 81, 83
1, 85283, Note_on_c, 0, 77, 72
1, 85293, Note_off_c, 0, 34, 60
1, 85306, Note_off_c, 0, 81, 57
1, 85310, Note_off_c, 0, 77, 64
1, 85312, Note_on_c, 0, 41, 76
1, 85317, Note_off_c, 0, 38, 61
1, 85320, Note_off_c, 0, 69, 56
1, 85350, Poly_aftertouch_c, 0, 29, 0
1, 85354, Note_off_c, 0, 41, 58
1, 85380, Note_on_c, 0, 38, 53
1, 85381, Note_on_c, 0, 34, 70
1, 85409, Note_on_c, 0, 67, 105
1, 85410, Note_off_c, 0, 34, 60
1, 85413, Note_on_c, 0, 75, 89
1, 85413, Note_on_c, 0, 79, 97
1, 85434, Note_on_c, 0, 41, 79
1, 85434, Note_off_c, 0, 79, 66
1, 85440, Poly_aftertouch_c, 0, 29, 127
1, 85443, Note_off_c, 0, 38, 62
1, 85452, Note_off_c, 0, 75, 52
1, 85452, Note_off_c, 0, 67, 60
1, 85482, Note_off_c, 0, 41, 60
1, 85497, Note_on_c, 0, 38, 49
1, 85504, Note_on_c, 0, 34, 71
1, 85505, Poly_aftertouch_c, 0, 29, 0
1, 85521, Note_on_c, 0, 29, 30
1, 85529, Note_on_c, 0, 65, 112
1, 85535, Note_on_c, 0, 74, 93
1, 85544, Note_on_c, 0, 77, 73
1, 85551, Note_off_c, 0, 74, 74
1, 85552, Note_off_c, 0, 29, 48
1, 85553, Note_on_c, 0, 41, 79
1, 85556, Note_off_c, 0, 34, 51
1, 85559, Note_off_c, 0, 77, 69
1, 85565, Note_off_c, 0, 38, 60
1, 85569, Note_off_c, 0, 65, 63
1, 85596, Note_off_c, 0, 41, 61
1, 85610, Note_on_c, 0, 34, 59
1, 85628, Note_on_c, 0, 38, 16
1, 85634, Note_on_c, 0, 29, 63
1, 85648, Note_off_c, 0, 34, 61
1, 85655, Note_on_c, 0, 63, 101
1, 85662, Note_off_c, 0, 29, 60
1, 85664, Note_on_c, 0, 75, 83
1, 85669, Note_on_c, 0, 72, 76
1, 85679, Note_on_c, 0, 41, 66
1, 85686, Note_off_c, 0, 75, 70
1, 85695, Note_off_c, 0, 63, 60
1, 85700, Note_off_c, 0, 41, 60
1, 85700, Note_off_c, 0, 72, 56
1, 85709, Note_on_c, 0, 34, 67
1, 85727, Note_on_c, 0, 29, 10
1, 85735, Note_off_c, 0, 34, 65
1, 85753, Note_off_c, 0, 38, 61
1, 85756, Note_on_c, 0, 41, 77
1, 85765, Note_off_c, 0, 29, 56
1, 85780, Note_off_c, 0, 41, 66
1, 85781, Note_on_c, 0, 62, 99
1, 85789, Note_on_c, 0, 74, 86
1, 85810, Note_on_c, 0, 70, 64
1, 85832, Note_off_c, 0, 74, 52
1, 85842, Note_off_c, 0, 62, 57
1, 85857, Note_on_c, 0, 48, 78
1, 85874, Poly_aftertouch_c, 0, 72, 127
1, 85893, Note_on_c, 0, 51, 63
1, 85900, Control_c, 0, 64, 68
1, 85902, Note_off_c, 0, 70, 62
1, 85908, Poly_aftertouch_c, 0, 72, 0
1, 85915, Control_c, 0, 64, 0
1, 85924, Note_on_c, 0, 57, 102
1, 85929, Note_on_c, 0, 63, 105
1, 85933, Note_on_c, 0, 72, 75
1, 85936, Note_on_c, 0, 75, 89
1, 85944, Control_c, 0, 64, 59
1, 85952, Note_off_c, 0, 57, 65
1, 85959, Control_c, 0, 64, 94
1, 85974, Control_c, 0, 64, 127
1, 85978, Note_off_c, 0, 51, 63
1, 85980, Note_off_c, 0, 63, 66
1, 85986, Note_off_c, 0, 48, 65
1, 85996, Note_off_c, 0, 75, 64
1, 85999, Note_on_c, 0, 68, 2
1, 86000, Note_off_c, 0, 72, 60
1, 86043, Note_off_c, 0, 68, 40
1, 86080, Note_on_c, 0, 65, 95
1, 86085, Note_on_c, 0, 74, 80
1, 86088, Note_on_c, 0, 77, 74
1, 86113, Note_off_c, 0, 74, 59
1, 86116, Note_off_c, 0, 77, 59
1, 86118, Note_off_c, 0, 65, 56
1, 86215, Note_on_c, 0, 39, 56
1, 86236, Note_on_c, 0, 67, 76
1, 86244, Note_on_c, 0, 41, 70
1, 86250, Note_off_c, 0, 39, 63
1, 86253, Note_off_c, 0, 67, 70
1, 86266, Note_on_c, 0, 69, 36
1, 86271, Note_on_c, 0, 79, 21
1, 86273, Note_on_c, 0, 78, 17
1, 86279, Poly_aftertouch_c, 0, 33, 0
1, 86292, Note_off_c, 0, 69, 58
1, 86292, Note_off_c, 0, 41, 54
1, 86311, Note_off_c, 0, 78, 41
1, 86313, Note_off_c, 0, 79, 47
1, 86326, Note_on_c, 0, 39, 70
1, 86334, Poly_aftertouch_c, 0, 81, 0
1, 86337, Note_on_c, 0, 33, 41
1, 86353, Note_on_c, 0, 69, 97
1, 86356, Note_on_c, 0, 81, 72
1, 86358, Note_on_c, 0, 77, 81
1, 86361, Note_on_c, 0, 29, 23
1, 86375, Note_on_c, 0, 41, 80
1, 86376, Note_off_c, 0, 33, 51
1, 86376, Note_off_c, 0, 69, 61
1, 86377, Note_off_c, 0, 77, 69
1, 86384, Note_off_c, 0, 81, 66
1, 86387, Note_off_c, 0, 39, 61
1, 86398, Note_off_c, 0, 29, 46
1, 86435, Note_off_c, 0, 41, 59
1, 86447, Note_on_c, 0, 33, 80
1, 86462, Note_on_c, 0, 39, 48
1, 86465, Note_on_c, 0, 70, 103
1, 86468, Note_on_c, 0, 82, 98
1, 86474, Note_on_c, 0, 79, 83
1, 86490, Note_off_c, 0, 33, 56
1, 86490, Note_off_c, 0, 70, 63
1, 86498, Note_off_c, 0, 79, 63
1, 86504, Note_off_c, 0, 82, 67
1, 86506, Note_on_c, 0, 41, 75
1, 86513, Note_off_c, 0, 39, 62
1, 86558, Note_off_c, 0, 41, 59
1, 86591, Note_on_c, 0, 72, 106
1, 86594, Note_on_c, 0, 81, 103
1, 86595, Note_on_c, 0, 33, 68
1, 86596, Note_on_c, 0, 84, 97
1, 86603, Note_on_c, 0, 29, 31
1, 86620, Note_off_c, 0, 81, 57
1, 86621, Note_off_c, 0, 72, 66
1, 86628, Note_off_c, 0, 33, 62
1, 86641, Note_on_c, 0, 41, 73
1, 86641, Note_off_c, 0, 84, 55
1, 86653, Note_off_c, 0, 29, 52
1, 86673, Note_off_c, 0, 41, 64
1, 86712, Note_on_c, 0, 33, 72
1, 86718, Note_on_c, 0, 74, 104
1, 86724, Note_on_c, 0, 86, 95
1, 86727, Note_on_c, 0, 82, 90
1, 86732, Note_on_c, 0, 39, 65
1, 86740, Note_off_c, 0, 86, 71
1, 86743, Note_off_c, 0, 33, 63
1, 86754, Note_off_c, 0, 74, 58
1, 86766, Note_on_c, 0, 41, 74
1, 86774, Note_on_c, 0, 83, 52
1, 86782, Note_off_c, 0, 39, 63
1, 86787, Note_off_c, 0, 82, 33
1, 86796, Note_off_c, 0, 83, 61
1, 86799, Poly_aftertouch_c, 0, 80, 0
1, 86832, Note_off_c, 0, 41, 51
1, 86842, Note_on_c, 0, 33, 74
1, 86845, Note_on_c, 0, 75, 102
1, 86849, Note_on_c, 0, 87, 97
1, 86856, Note_on_c, 0, 84, 84
1, 86873, Note_on_c, 0, 39, 42
1, 86901, Note_on_c, 0, 29, 3
1, 86903, Note_on_c, 0, 41, 73
1, 86923, Note_off_c, 0, 75, 59
1, 86924, Note_off_c, 0, 33, 56
1, 86927, Note_off_c, 0, 87, 62
1, 86934, Note_off_c, 0, 39, 45
1, 86939, Note_off_c, 0, 29, 51
1, 86948, Note_off_c, 0, 84, 59
1, 86962, Poly_aftertouch_c, 0, 74, 0
1, 86988, Note_off_c, 0, 41, 55
1, 86990, Control_c, 0, 64, 72
1, 87000, Note_on_c, 0, 33, 53
1, 87004, Note_on_c, 0, 29, 67
1, 87005, Control_c, 0, 64, 40
1, 87006, Note_on_c, 0, 75, 104
1, 87008, Note_on_c, 0, 39, 41
1, 87011, Note_on_c, 0, 84, 91
1, 87011, Note_on_c, 0, 87, 106
1, 87020, Control_c, 0, 64, 0
1, 87035, Control_c, 0, 64, 66
1, 87049, Control_c, 0, 64, 106
1, 87064, Control_c, 0, 64, 127
1, 87065, Note_off_c, 0, 29, 56
1, 87072, Note_off_c, 0, 33, 58
1, 87078, Note_on_c, 0, 41, 80
1, 87085, Note_off_c, 0, 39, 61
1, 87086, Note_off_c, 0, 75, 64
1, 87088, Note_off_c, 0, 87, 65
1, 87110, Note_off_c, 0, 84, 60
1, 87129, Note_off_c, 0, 41, 61
1, 87181, Note_on_c, 0, 30, 77
1, 87195, Note_on_c, 0, 74, 94
1, 87198, Note_on_c, 0, 86, 92
1, 87202, Note_on_c, 0, 82, 76
1, 87221, Note_off_c, 0, 86, 60
1, 87225, Note_off_c, 0, 30, 56
1, 87235, Note_on_c, 0, 41, 75
1, 87236, Note_off_c, 0, 74, 60
1, 87236, Note_off_c, 0, 82, 52
1, 87284, Note_off_c, 0, 41, 61
1, 87314, Note_on_c, 0, 31, 85
1, 87327, Note_on_c, 0, 72, 100
1, 87332, Note_on_c, 0, 81, 89
1, 87333, Note_on_c, 0, 84, 82
1, 87353, Note_off_c, 0, 84, 72
1, 87361, Note_off_c, 0, 31, 60
1, 87362, Note_off_c, 0, 72, 60
1, 87371, Note_off_c, 0, 81, 61
1, 87377, Note_on_c, 0, 41, 73
1, 87420, Note_off_c, 0, 41, 62
1, 87438, Note_on_c, 0, 36, 35
1, 87439, Note_on_c, 0, 32, 90
1, 87439, Note_on_c, 0, 70, 103
1, 87440, Note_on_c, 0, 80, 93
1, 87440, Note_on_c, 0, 82, 91
1, 87478, Note_off_c, 0, 80, 67
1, 87493, Note_off_c, 0, 82, 65
1, 87494, Note_off_c, 0, 70, 67
1, 87497, Note_on_c, 0, 41, 77
1, 87500, Note_off_c, 0, 36, 55
1, 87503, Note_off_c, 0, 32, 58
1, 87541, Note_off_c, 0, 41, 62
1, 87568, Note_on_c, 0, 33, 89
1, 87570, Note_on_c, 0, 69, 110
1, 87576, Note_on_c, 0, 77, 85
1, 87577, Note_on_c, 0, 81, 87
1, 87607, Note_off_c, 0, 81, 52
1, 87612, Note_on_c, 0, 79, 41
1, 87612, Note_off_c, 0, 79, 127
1, 87620, Note_on_c, 0, 32, 12
1, 87625, Note_on_c, 0, 41, 84
1, 87630, Note_off_c, 0, 69, 58
1, 87631, Note_off_c, 0, 77, 63
1, 87634, Note_off_c, 0, 33, 62
1, 87641, Note_off_c, 0, 32, 53
1, 87675, Note_off_c, 0, 41, 61
1, 87699, Note_on_c, 0, 34, 86
1, 87699, Note_on_c, 0, 67, 105
1, 87702, Note_on_c, 0, 75, 94
1, 87706, Note_on_c, 0, 79, 103
1, 87729, Note_off_c, 0, 34, 67
1, 87741, Note_off_c, 0, 79, 47
1, 87757, Note_on_c, 0, 41, 87
1, 87760, Note_off_c, 0, 67, 64
1, 87762, Note_off_c, 0, 75, 64
1, 87830, Note_on_c, 0, 35, 78
1, 87830, Note_on_c, 0, 65, 110
1, 87836, Note_on_c, 0, 74, 96
1, 87840, Note_off_c, 0, 41, 54
1, 87842, Note_on_c, 0, 77, 75
1, 87854, Note_off_c, 0, 77, 73
1, 87878, Note_off_c, 0, 74, 50
1, 87892, Note_off_c, 0, 65, 62
1, 87901, Note_on_c, 0, 41, 76
1, 87924, Note_off_c, 0, 35, 60
1, 87956, Note_on_c, 0, 36, 80
1, 87959, Note_off_c, 0, 41, 60
1, 87968, Note_on_c, 0, 63, 102
1, 87971, Note_on_c, 0, 75, 92
1, 87982, Note_on_c, 0, 72, 81
1, 88019, Note_off_c, 0, 36, 60
1, 88021, Note_on_c, 0, 41, 73
1, 88024, Note_off_c, 0, 63, 65
1, 88030, Note_off_c, 0, 75, 62
1, 88047, Note_off_c, 0, 72, 63
1, 88053, Note_off_c, 0, 41, 65
1, 88187, Note_on_c, 0, 42, 53
1, 88191, Control_c, 0, 64, 92
1, 88206, Control_c, 0, 64, 67
1, 88221, Control_c, 0, 64, 0
1, 88313, Note_on_c, 0, 47, 46
1, 88385, Note_on_c, 0, 51, 39
1, 88480, Note_on_c, 0, 54, 35
1, 88518, Control_c, 0, 64, 46
1, 88533, Control_c, 0, 64, 63
1, 88547, Note_off_c, 0, 42, 22
1, 88547, Control_c, 0, 64, 73
1, 88562, Note_off_c, 0, 54, 60
1, 88562, Control_c, 0, 64, 90
1, 88577, Control_c, 0, 64, 127
1, 88589, Note_off_c, 0, 51, 38
1, 88597, Note_on_c, 0, 63, 43
1, 88602, Note_on_c, 0, 75, 35
1, 88608, Note_on_c, 0, 71, 41
1, 88614, Note_off_c, 0, 47, 41
1, 88659, Note_off_c, 0, 63, 59
1, 88659, Note_off_c, 0, 71, 57
1, 88679, Note_off_c, 0, 75, 39
1, 88780, Note_on_c, 0, 64, 56
1, 88800, Note_on_c, 0, 76, 50
1, 88811, Note_off_c, 0, 64, 58
1, 88820, Note_on_c, 0, 73, 45
1, 88825, Note_off_c, 0, 76, 57
1, 88852, Note_off_c, 0, 73, 61
1, 88944, Note_on_c, 0, 39, 42
1, 88957, Note_on_c, 0, 66, 48
1, 88966, Note_on_c, 0, 78, 42
1, 88978, Note_off_c, 0, 39, 49
1, 88979, Note_on_c, 0, 42, 56
1, 88981, Note_off_c, 0, 66, 58
1, 88985, Note_on_c, 0, 75, 20
1, 88993, Note_off_c, 0, 78, 57
1, 89022, Note_off_c, 0, 42, 61
1, 89027, Note_off_c, 0, 75, 52
1, 89047, Note_on_c, 0, 35, 49
1, 89056, Note_on_c, 0, 39, 50
1, 89076, Note_on_c, 0, 68, 76
1, 89082, Note_on_c, 0, 80, 67
1, 89088, Note_on_c, 0, 76, 62
1, 89088, Note_off_c, 0, 35, 60
1, 89096, Note_off_c, 0, 39, 62
1, 89100, Note_on_c, 0, 42, 73
1, 89102, Note_off_c, 0, 68, 64
1, 89116, Poly_aftertouch_c, 0, 30, 127
1, 89127, Note_off_c, 0, 80, 54
1, 89127, Note_off_c, 0, 76, 60
1, 89138, Note_off_c, 0, 42, 61
1, 89152, Poly_aftertouch_c, 0, 30, 0
1, 89174, Note_on_c, 0, 30, 20
1, 89178, Note_on_c, 0, 35, 62
1, 89186, Note_on_c, 0, 39, 58
1, 89213, Note_on_c, 0, 70, 86
1, 89219, Note_off_c, 0, 35, 60
1, 89220, Note_off_c, 0, 30, 41
1, 89225, Note_on_c, 0, 42, 76
1, 89227, Note_on_c, 0, 82, 56
1, 89227, Note_off_c, 0, 39, 61
1, 89231, Note_on_c, 0, 78, 60
1, 89234, Note_off_c, 0, 70, 71
1, 89248, Note_off_c, 0, 82, 41
1, 89260, Note_off_c, 0, 78, 64
1, 89268, Note_off_c, 0, 42, 54
1, 89288, Poly_aftertouch_c, 0, 80, 127
1, 89297, Note_on_c, 0, 35, 64
1, 89316, Note_on_c, 0, 39, 58
1, 89319, Note_on_c, 0, 30, 34
1, 89321, Poly_aftertouch_c, 0, 80, 0
1, 89336, Note_on_c, 0, 71, 90
1, 89339, Note_on_c, 0, 42, 79
1, 89339, Note_on_c, 0, 83, 80
1, 89339, Note_on_c, 0, 80, 56
1, 89346, Note_off_c, 0, 35, 59
1, 89351, Note_off_c, 0, 39, 62
1, 89358, Note_off_c, 0, 71, 63
1, 89365, Note_off_c, 0, 30, 41
1, 89382, Note_off_c, 0, 83, 62
1, 89395, Note_off_c, 0, 42, 61
1, 89401, Note_off_c, 0, 80, 62
1, 89411, Note_on_c, 0, 30, 48
1, 89416, Note_on_c, 0, 35, 60
1, 89444, Note_on_c, 0, 39, 62
1, 89444, Note_off_c, 0, 30, 57
1, 89451, Note_off_c, 0, 35, 60
1, 89475, Note_on_c, 0, 42, 60
1, 89476, Note_on_c, 0, 85, 88
1, 89478, Note_on_c, 0, 73, 83
1, 89488, Note_on_c, 0, 82, 64
1, 89503, Note_off_c, 0, 42, 65
1, 89503, Note_off_c, 0, 73, 62
1, 89518, Note_off_c, 0, 82, 62
1, 89524, Poly_aftertouch_c, 0, 35, 0
1, 89524, Note_off_c, 0, 85, 60
1, 89548, Note_off_c, 0, 39, 58
1, 89559, Note_on_c, 0, 42, 63
1, 89580, Note_off_c, 0, 42, 66
1, 89612, Note_on_c, 0, 75, 78
1, 89613, Note_on_c, 0, 87, 85
1, 89616, Note_on_c, 0, 83, 75
1, 89664, Note_on_c, 0, 42, 45
1, 89680, Note_off_c, 0, 75, 49
1, 89691, Note_on_c, 0, 47, 60
1, 89691, Note_off_c, 0, 87, 61
1, 89694, Note_off_c, 0, 42, 56
1, 89703, Control_c, 0, 64, 74
1, 89710, Note_off_c, 0, 83, 58
1, 89716, Note_off_c, 0, 47, 63
1, 89718, Control_c, 0, 64, 37
1, 89719, Note_on_c, 0, 51, 58
1, 89733, Control_c, 0, 64, 0
1, 89753, Note_on_c, 0, 59, 78
1, 89762, Control_c, 0, 64, 60
1, 89770, Note_on_c, 0, 75, 80
1, 89773, Note_on_c, 0, 87, 77
1, 89774, Note_on_c, 0, 83, 68
1, 89777, Control_c, 0, 64, 82
1, 89780, Note_off_c, 0, 51, 55
1, 89780, Note_off_c, 0, 59, 65
1, 89792, Control_c, 0, 64, 127
1, 89808, Note_off_c, 0, 87, 59
1, 89809, Note_off_c, 0, 75, 47
1, 89816, Note_off_c, 0, 83, 58
1, 89903, Note_on_c, 0, 73, 75
1, 89905, Note_on_c, 0, 85, 68
1, 89920, Note_on_c, 0, 82, 56
1, 89940, Note_off_c, 0, 85, 59
1, 89956, Note_off_c, 0, 82, 62
1, 89956, Note_off_c, 0, 73, 52
1, 90050, Note_on_c, 0, 35, 34
1, 90058, Note_on_c, 0, 71, 62
1, 90061, Note_on_c, 0, 83, 56
1, 90067, Note_on_c, 0, 39, 45
1, 90076, Note_off_c, 0, 71, 64
1, 90081, Note_off_c, 0, 83, 61
1, 90090, Note_off_c, 0, 35, 48
1, 90097, Note_on_c, 0, 42, 65
1, 90105, Note_off_c, 0, 39, 58
1, 90124, Poly_aftertouch_c, 0, 80, 127
1, 90138, Note_off_c, 0, 42, 60
1, 90156, Poly_aftertouch_c, 0, 80, 0
1, 90173, Note_on_c, 0, 35, 66
1, 90178, Note_on_c, 0, 39, 49
1, 90187, Note_on_c, 0, 70, 76
1, 90191, Note_on_c, 0, 82, 69
1, 90209, Note_off_c, 0, 82, 67
1, 90212, Note_off_c, 0, 35, 59
1, 90212, Note_off_c, 0, 70, 68
1, 90225, Note_on_c, 0, 42, 71
1, 90230, Note_off_c, 0, 39, 62
1, 90266, Poly_aftertouch_c, 0, 78, 127
1, 90278, Note_off_c, 0, 42, 56
1, 90302, Note_on_c, 0, 35, 71
1, 90311, Poly_aftertouch_c, 0, 78, 0
1, 90312, Note_on_c, 0, 39, 54
1, 90319, Note_on_c, 0, 68, 84
1, 90325, Note_on_c, 0, 76, 72
1, 90326, Note_on_c, 0, 80, 72
1, 90340, Note_off_c, 0, 68, 67
1, 90345, Note_off_c, 0, 35, 59
1, 90349, Note_off_c, 0, 80, 68
1, 90358, Note_off_c, 0, 76, 60
1, 90366, Note_on_c, 0, 42, 69
1, 90366, Poly_aftertouch_c, 0, 30, 127
1, 90368, Note_off_c, 0, 39, 61
1, 90396, Note_off_c, 0, 42, 63
1, 90418, Poly_aftertouch_c, 0, 30, 0
1, 90419, Note_on_c, 0, 39, 43
1, 90426, Note_on_c, 0, 35, 67
1, 90441, Note_on_c, 0, 30, 15
1, 90442, Note_on_c, 0, 78, 86
1, 90443, Note_on_c, 0, 66, 88
1, 90451, Note_on_c, 0, 75, 72
1, 90472, Note_off_c, 0, 35, 58
1, 90485, Note_off_c, 0, 78, 64
1, 90487, Note_on_c, 0, 42, 72
1, 90487, Note_off_c, 0, 75, 52
1, 90489, Note_off_c, 0, 30, 52
1, 90491, Note_off_c, 0, 39, 61
1, 90491, Note_off_c, 0, 66, 58
1, 90517, Note_off_c, 0, 42, 61
1, 90555, Note_on_c, 0, 35, 60
1, 90558, Note_on_c, 0, 30, 46
1, 90563, Note_on_c, 0, 39, 35
1, 90573, Note_on_c, 0, 64, 89
1, 90579, Note_on_c, 0, 76, 78
1, 90582, Note_on_c, 0, 73, 74
1, 90588, Note_off_c, 0, 35, 63
1, 90594, Note_off_c, 0, 64, 64
1, 90594, Note_off_c, 0, 76, 64
1, 90595, Note_off_c, 0, 30, 47
1, 90599, Note_on_c, 0, 42, 78
1, 90611, Note_off_c, 0, 39, 61
1, 90625, Note_off_c, 0, 73, 59
1, 90630, Note_off_c, 0, 42, 64
1, 90664, Poly_aftertouch_c, 0, 75, 0
1, 90675, Poly_aftertouch_c, 0, 75, 0
1, 90695, Note_on_c, 0, 63, 85
1, 90695, Note_on_c, 0, 75, 43
1, 90713, Note_on_c, 0, 71, 58
1, 90717, Note_off_c, 0, 63, 64
1, 90722, Note_on_c, 0, 42, 63
1, 90746, Note_off_c, 0, 75, 64
1, 90758, Note_off_c, 0, 71, 51
1, 90764, Note_off_c, 0, 42, 62
1, 90776, Note_on_c, 0, 49, 64
1, 90809, Note_on_c, 0, 52, 75
1, 90823, Control_c, 0, 64, 69
1, 90838, Control_c, 0, 64, 0
1, 90853, Note_off_c, 0, 49, 65
1, 90864, Note_on_c, 0, 64, 84
1, 90868, Note_on_c, 0, 76, 84
1, 90868, Note_on_c, 0, 58, 84
1, 90883, Note_on_c, 0, 73, 64
1, 90883, Note_off_c, 0, 64, 70
1, 90895, Note_off_c, 0, 76, 57
1, 90897, Note_off_c, 0, 58, 65
1, 90898, Control_c, 0, 64, 63
1, 90913, Control_c, 0, 64, 91
1, 90914, Note_off_c, 0, 52, 59
1, 90916, Note_off_c, 0, 73, 62
1, 90928, Control_c, 0, 64, 127
1, 91006, Note_on_c, 0, 66, 76
1, 91008, Note_on_c, 0, 78, 68
1, 91040, Note_off_c, 0, 66, 64
1, 91045, Note_off_c, 0, 78, 61
1, 91110, Poly_aftertouch_c, 0, 75, 0
1, 91142, Poly_aftertouch_c, 0, 75, 0
1, 91143, Note_on_c, 0, 34, 45
1, 91148, Note_on_c, 0, 30, 43
1, 91154, Note_on_c, 0, 80, 70
1, 91159, Note_on_c, 0, 76, 62
1, 91160, Note_on_c, 0, 68, 57
1, 91181, Note_off_c, 0, 68, 64
1, 91184, Note_off_c, 0, 80, 63
1, 91184, Note_off_c, 0, 30, 49
1, 91187, Note_off_c, 0, 34, 60
1, 91192, Note_off_c, 0, 76, 64
1, 91195, Note_on_c, 0, 42, 66
1, 91238, Note_off_c, 0, 42, 64
1, 91266, Note_on_c, 0, 30, 65
1, 91279, Note_on_c, 0, 34, 60
1, 91285, Note_on_c, 0, 70, 85
1, 91288, Note_on_c, 0, 82, 81
1, 91300, Note_off_c, 0, 30, 63
1, 91303, Note_off_c, 0, 70, 72
1, 91304, Note_on_c, 0, 78, 53
1, 91308, Note_off_c, 0, 82, 71
1, 91312, Note_off_c, 0, 34, 63
1, 91319, Note_on_c, 0, 42, 77
1, 91327, Note_off_c, 0, 78, 65
1, 91366, Note_off_c, 0, 42, 60
1, 91390, Note_on_c, 0, 30, 67
1, 91390, Note_on_c, 0, 34, 68
1, 91408, Note_on_c, 0, 71, 95
1, 91411, Note_on_c, 0, 83, 87
1, 91414, Note_on_c, 0, 80, 79
1, 91424, Note_off_c, 0, 30, 63
1, 91425, Note_off_c, 0, 71, 69
1, 91431, Note_off_c, 0, 83, 65
1, 91441, Note_off_c, 0, 34, 51
1, 91450, Note_off_c, 0, 80, 59
1, 91451, Note_on_c, 0, 42, 71
1, 91485, Note_off_c, 0, 42, 66
1, 91518, Note_on_c, 0, 34, 63
1, 91521, Note_on_c, 0, 30, 61
1, 91528, Note_on_c, 0, 73, 103
1, 91533, Note_on_c, 0, 85, 89
1, 91536, Note_on_c, 0, 82, 82
1, 91549, Note_off_c, 0, 73, 60
1, 91554, Note_off_c, 0, 30, 62
1, 91573, Note_off_c, 0, 34, 59
1, 91575, Note_on_c, 0, 42, 76
1, 91575, Note_off_c, 0, 85, 60
1, 91597, Note_off_c, 0, 82, 60
1, 91625, Note_off_c, 0, 42, 62
1, 91652, Note_on_c, 0, 30, 62
1, 91654, Note_on_c, 0, 75, 91
1, 91655, Note_on_c, 0, 34, 60
1, 91657, Note_on_c, 0, 87, 94
1, 91659, Note_on_c, 0, 83, 88
1, 91687, Note_off_c, 0, 30, 62
1, 91691, Note_off_c, 0, 34, 56
1, 91693, Note_off_c, 0, 75, 49
1, 91700, Note_off_c, 0, 87, 65
1, 91718, Note_on_c, 0, 42, 72
1, 91721, Note_off_c, 0, 83, 60
1, 91763, Note_off_c, 0, 42, 57
1, 91780, Note_on_c, 0, 76, 94
1, 91780, Note_on_c, 0, 85, 87
1, 91791, Note_on_c, 0, 88, 89
1, 91799, Note_on_c, 0, 30, 62
1, 91800, Note_on_c, 0, 34, 65
1, 91807, Note_on_c, 0, 36, 38
1, 91842, Note_off_c, 0, 30, 55
1, 91845, Note_off_c, 0, 88, 58
1, 91863, Note_off_c, 0, 76, 59
1, 91864, Note_on_c, 0, 42, 74
1, 91870, Note_off_c, 0, 34, 58
1, 91882, Note_off_c, 0, 85, 62
1, 91905, Control_c, 0, 64, 82
1, 91920, Control_c, 0, 64, 53
1, 91935, Control_c, 0, 64, 0
1, 91941, Note_off_c, 0, 42, 63
1, 91947, Note_on_c, 0, 30, 61
1, 91965, Control_c, 0, 64, 40
1, 91968, Note_on_c, 0, 88, 72
1, 91971, Note_on_c, 0, 76, 76
1, 91980, Control_c, 0, 64, 61
1, 91980, Note_on_c, 0, 34, 23
1, 91985, Note_on_c, 0, 85, 57
1, 91995, Note_off_c, 0, 76, 68
1, 91995, Control_c, 0, 64, 76
1, 91998, Note_off_c, 0, 88, 57
1, 92010, Control_c, 0, 64, 127
1, 92021, Note_off_c, 0, 34, 50
1, 92029, Note_off_c, 0, 85, 57
1, 92037, Note_on_c, 0, 42, 64
1, 92049, Note_off_c, 0, 30, 38
1, 92087, Note_off_c, 0, 42, 57
1, 92114, Note_on_c, 0, 31, 67
1, 92119, Note_on_c, 0, 75, 81
1, 92126, Note_on_c, 0, 87, 74
1, 92129, Note_on_c, 0, 83, 75
1, 92147, Note_off_c, 0, 31, 63
1, 92149, Note_off_c, 0, 87, 70
1, 92158, Note_off_c, 0, 75, 53
1, 92172, Note_on_c, 0, 42, 67
1, 92174, Note_off_c, 0, 83, 60
1, 92205, Note_off_c, 0, 36, 18
1, 92205, Note_off_c, 0, 42, 64
1, 92233, Note_on_c, 0, 32, 79
1, 92251, Note_on_c, 0, 73, 93
1, 92251, Note_on_c, 0, 85, 92
1, 92261, Note_on_c, 0, 82, 76
1, 92271, Note_off_c, 0, 85, 70
1, 92275, Note_off_c, 0, 73, 63
1, 92281, Note_off_c, 0, 32, 56
1, 92286, Note_off_c, 0, 82, 66
1, 92293, Note_on_c, 0, 42, 72
1, 92332, Note_off_c, 0, 42, 63
1, 92355, Note_on_c, 0, 33, 79
1, 92366, Note_on_c, 0, 71, 96
1, 92372, Note_on_c, 0, 83, 85
1, 92376, Note_on_c, 0, 80, 75
1, 92388, Note_on_c, 0, 82, 54
1, 92391, Note_off_c, 0, 33, 61
1, 92391, Note_off_c, 0, 83, 71
1, 92394, Note_on_c, 0, 72, 48
1, 92394, Note_off_c, 0, 72, 127
1, 92401, Note_off_c, 0, 71, 56
1, 92403, Note_on_c, 0, 42, 81
1, 92409, Note_off_c, 0, 82, 62
1, 92419, Note_off_c, 0, 80, 59
1, 92459, Note_off_c, 0, 42, 60
1, 92484, Note_on_c, 0, 34, 72
1, 92491, Note_on_c, 0, 70, 100
1, 92491, Note_on_c, 0, 82, 95
1, 92499, Note_on_c, 0, 78, 78
1, 92523, Note_off_c, 0, 78, 62
1, 92537, Note_on_c, 0, 42, 77
1, 92539, Note_off_c, 0, 82, 63
1, 92544, Note_off_c, 0, 70, 62
1, 92547, Note_off_c, 0, 34, 59
1, 92589, Note_off_c, 0, 42, 60
1, 92608, Note_on_c, 0, 35, 78
1, 92621, Note_on_c, 0, 68, 98
1, 92624, Note_on_c, 0, 80, 89
1, 92627, Note_on_c, 0, 76, 82
1, 92652, Note_off_c, 0, 35, 58
1, 92658, Note_off_c, 0, 76, 56
1, 92658, Note_off_c, 0, 80, 58
1, 92660, Note_on_c, 0, 42, 73
1, 92662, Note_off_c, 0, 68, 58
1, 92716, Note_off_c, 0, 42, 57
1, 92740, Note_on_c, 0, 66, 96
1, 92741, Note_on_c, 0, 36, 56
1, 92745, Note_on_c, 0, 78, 84
1, 92749, Note_on_c, 0, 75, 73
1, 92771, Note_off_c, 0, 78, 62
1, 92784, Note_off_c, 0, 36, 61
1, 92785, Note_off_c, 0, 66, 63
1, 92786, Note_on_c, 0, 37, 66
1, 92803, Note_off_c, 0, 75, 63
1, 92814, Note_on_c, 0, 42, 86
1, 92824, Note_off_c, 0, 37, 61
1, 92840, Note_off_c, 0, 42, 69
1, 92863, Note_on_c, 0, 64, 95
1, 92870, Note_on_c, 0, 76, 85
1, 92878, Note_on_c, 0, 73, 66
1, 92889, Note_off_c, 0, 76, 64
1, 92906, Note_off_c, 0, 73, 66
1, 92908, Note_off_c, 0, 64, 55
1, 92951, Note_on_c, 0, 48, 59
1, 92966, Control_c, 0, 64, 78
1, 92978, Note_off_c, 0, 48, 61
1, 92981, Note_on_c, 0, 52, 65
1, 92981, Control_c, 0, 64, 36
1, 92995, Control_c, 0, 64, 0
1, 92999, Note_on_c, 0, 58, 105
1, 93002, Note_on_c, 0, 64, 112
1, 93006, Note_on_c, 0, 70, 100
1, 93009, Note_on_c, 0, 76, 78
1, 93010, Note_on_c, 0, 73, 83
1, 93010, Control_c, 0, 64, 35
1, 93019, Note_on_c, 0, 51, 26
1, 93022, Note_on_c, 0, 74, 73
1, 93025, Control_c, 0, 64, 70
1, 93026, Note_off_c, 0, 73, 67
1, 93028, Note_on_c, 0, 72, 68
1, 93028, Note_off_c, 0, 58, 64
1, 93039, Control_c, 0, 64, 127
1, 93041, Note_off_c, 0, 74, 61
1, 93045, Note_off_c, 0, 52, 62
1, 93046, Note_off_c, 0, 51, 52
1, 93057, Note_off_c, 0, 76, 65
1, 93058, Note_off_c, 0, 64, 55
1, 93063, Note_off_c, 0, 72, 58
1, 93081, Note_off_c, 0, 70, 61
1, 93163, Note_on_c, 0, 65, 76
1, 93174, Note_on_c, 0, 77, 63
1, 93181, Note_on_c, 0, 76, 54
1, 93184, Note_on_c, 0, 64, 45
1, 93189, Note_off_c, 0, 65, 68
1, 93195, Note_off_c, 0, 77, 64
1, 93201, Note_off_c, 0, 64, 69
1, 93205, Note_off_c, 0, 76, 59
1, 93268, Note_on_c, 0, 31, 53
1, 93274, Note_on_c, 0, 34, 53
1, 93297, Note_on_c, 0, 37, 42
1, 93307, Note_on_c, 0, 67, 87
1, 93311, Note_off_c, 0, 31, 56
1, 93314, Note_on_c, 0, 79, 83
1, 93318, Note_off_c, 0, 34, 60
1, 93326, Note_on_c, 0, 43, 74
1, 93329, Note_off_c, 0, 67, 68
1, 93334, Note_off_c, 0, 79, 71
1, 93336, Note_off_c, 0, 37, 56
1, 93366, Note_off_c, 0, 43, 62
1, 93403, Note_on_c, 0, 34, 61
1, 93405, Note_on_c, 0, 31, 57
1, 93418, Note_on_c, 0, 37, 44
1, 93426, Note_on_c, 0, 68, 96
1, 93429, Note_on_c, 0, 80, 89
1, 93438, Note_off_c, 0, 31, 61
1, 93441, Note_off_c, 0, 34, 58
1, 93459, Note_off_c, 0, 37, 60
1, 93461, Note_on_c, 0, 43, 73
1, 93464, Note_on_c, 0, 78, 29
1, 93467, Note_off_c, 0, 68, 60
1, 93473, Note_off_c, 0, 80, 62
1, 93492, Note_off_c, 0, 43, 66
1, 93500, Note_off_c, 0, 78, 43
1, 93527, Note_on_c, 0, 31, 58
1, 93530, Note_on_c, 0, 34, 66
1, 93536, Note_on_c, 0, 37, 47
1, 93552, Note_on_c, 0, 70, 98
1, 93554, Note_on_c, 0, 82, 95
1, 93559, Note_off_c, 0, 31, 60
1, 93579, Note_off_c, 0, 34, 57
1, 93579, Note_off_c, 0, 70, 63
1, 93581, Note_on_c, 0, 43, 67
1, 93581, Note_off_c, 0, 37, 58
1, 93592, Note_off_c, 0, 82, 66
1, 93602, Note_on_c, 0, 78, 8
1, 93602, Note_off_c, 0, 78, 127
1, 93616, Note_off_c, 0, 43, 63
1, 93644, Note_on_c, 0, 31, 64
1, 93644, Poly_aftertouch_c, 0, 80, 127
1, 93646, Note_on_c, 0, 37, 63
1, 93664, Note_on_c, 0, 34, 43
1, 93666, Note_on_c, 0, 72, 101
1, 93670, Note_on_c, 0, 84, 94
1, 93672, Poly_aftertouch_c, 0, 80, 0
1, 93673, Note_off_c, 0, 31, 66
1, 93688, Note_on_c, 0, 82, 67
1, 93691, Note_off_c, 0, 34, 62
1, 93697, Note_on_c, 0, 43, 71
1, 93697, Note_off_c, 0, 72, 60
1, 93698, Note_off_c, 0, 84, 57
1, 93706, Note_off_c, 0, 82, 64
1, 93717, Note_off_c, 0, 37, 60
1, 93732, Note_off_c, 0, 43, 59
1, 93760, Note_on_c, 0, 37, 37
1, 93760, Note_on_c, 0, 34, 65
1, 93767, Note_on_c, 0, 31, 44
1, 93788, Note_on_c, 0, 73, 95
1, 93790, Note_on_c, 0, 85, 97
1, 93800, Note_off_c, 0, 34, 57
1, 93807, Note_off_c, 0, 31, 46
1, 93810, Note_on_c, 0, 43, 73
1, 93819, Note_on_c, 0, 82, 36
1, 93819, Note_off_c, 0, 82, 127
1, 93821, Note_off_c, 0, 73, 62
1, 93823, Note_off_c, 0, 37, 56
1, 93826, Note_off_c, 0, 85, 66
1, 93843, Note_off_c, 0, 43, 62
1, 93903, Note_on_c, 0, 76, 99
1, 93906, Note_on_c, 0, 88, 97
1, 93921, Note_on_c, 0, 42, 58
1, 93931, Note_on_c, 0, 44, 56
1, 93938, Note_off_c, 0, 76, 62
1, 93953, Note_off_c, 0, 42, 62
1, 93965, Note_off_c, 0, 88, 63
1, 93985, Note_on_c, 0, 48, 62
1, 93995, Control_c, 0, 64, 77
1, 94005, Note_off_c, 0, 44, 62
1, 94011, Control_c, 0, 64, 38
1, 94026, Note_on_c, 0, 56, 103
1, 94026, Control_c, 0, 64, 0
1, 94040, Note_on_c, 0, 77, 104
1, 94041, Note_on_c, 0, 84, 105
1, 94044, Note_on_c, 0, 89, 108
1, 94063, Note_on_c, 0, 85, 60
1, 94063, Note_off_c, 0, 85, 127
1, 94063, Control_c, 0, 64, 66
1, 94067, Note_on_c, 0, 50, 46
1, 94067, Note_off_c, 0, 56, 65
1, 94078, Control_c, 0, 64, 127
1, 94081, Note_off_c, 0, 89, 54
1, 94089, Note_off_c, 0, 77, 54
1, 94092, Note_off_c, 0, 48, 65
1, 94096, Note_off_c, 0, 50, 53
1, 94111, Note_off_c, 0, 84, 64
1, 94148, Poly_aftertouch_c, 0, 51, 0
1, 94178, Note_on_c, 0, 75, 92
1, 94180, Note_on_c, 0, 87, 88
1, 94226, Note_off_c, 0, 75, 60
1, 94229, Note_off_c, 0, 87, 62
1, 94269, Note_on_c, 0, 37, 51
1, 94303, Note_on_c, 0, 73, 94
1, 94308, Note_on_c, 0, 44, 81
1, 94309, Note_on_c, 0, 85, 92
1, 94310, Note_off_c, 0, 37, 56
1, 94331, Note_off_c, 0, 85, 69
1, 94343, Note_off_c, 0, 73, 60
1, 94359, Note_off_c, 0, 44, 63
1, 94389, Note_on_c, 0, 36, 60
1, 94399, Note_on_c, 0, 32, 58
1, 94415, Note_on_c, 0, 72, 101
1, 94417, Poly_aftertouch_c, 0, 82, 0
1, 94420, Note_on_c, 0, 84, 93
1, 94428, Note_off_c, 0, 32, 58
1, 94435, Note_on_c, 0, 44, 77
1, 94436, Note_off_c, 0, 84, 71
1, 94438, Note_off_c, 0, 36, 61
1, 94452, Note_off_c, 0, 72, 62
1, 94473, Note_off_c, 0, 44, 59
1, 94504, Note_on_c, 0, 32, 70
1, 94505, Note_on_c, 0, 36, 67
1, 94531, Note_on_c, 0, 70, 97
1, 94535, Note_off_c, 0, 32, 62
1, 94539, Note_on_c, 0, 82, 76
1, 94549, Note_on_c, 0, 80, 74
1, 94551, Note_on_c, 0, 44, 81
1, 94554, Note_off_c, 0, 82, 68
1, 94557, Note_off_c, 0, 36, 60
1, 94566, Note_off_c, 0, 70, 56
1, 94566, Note_off_c, 0, 80, 65
1, 94573, Note_on_c, 0, 69, 36
1, 94584, Note_off_c, 0, 44, 63
1, 94603, Note_off_c, 0, 69, 57
1, 94615, Note_on_c, 0, 36, 63
1, 94624, Note_on_c, 0, 32, 62
1, 94639, Note_on_c, 0, 80, 88
1, 94642, Note_on_c, 0, 68, 95
1, 94651, Note_off_c, 0, 32, 62
1, 94670, Note_on_c, 0, 44, 80
1, 94678, Note_off_c, 0, 80, 66
1, 94679, Note_off_c, 0, 36, 60
1, 94681, Note_off_c, 0, 68, 64
1, 94682, Note_on_c, 0, 78, 29
1, 94694, Poly_aftertouch_c, 0, 38, 127
1, 94706, Note_off_c, 0, 44, 62
1, 94716, Note_off_c, 0, 78, 46
1, 94730, Note_on_c, 0, 36, 58
1, 94732, Note_on_c, 0, 32, 66
1, 94761, Note_off_c, 0, 32, 62
1, 94762, Note_on_c, 0, 67, 104
1, 94771, Note_on_c, 0, 79, 86
1, 94786, Note_on_c, 0, 44, 87
1, 94794, Note_on_c, 0, 75, 52
1, 94796, Note_off_c, 0, 36, 61
1, 94798, Note_off_c, 0, 79, 73
1, 94800, Note_on_c, 0, 77, 52
1, 94800, Note_off_c, 0, 77, 127
1, 94807, Note_off_c, 0, 67, 62
1, 94818, Note_off_c, 0, 44, 68
1, 94818, Note_off_c, 0, 75, 60
1, 94819, Poly_aftertouch_c, 0, 38, 0
1, 94883, Note_on_c, 0, 65, 100
1, 94889, Note_on_c, 0, 77, 79
1, 94898, Note_on_c, 0, 75, 64
1, 94912, Note_on_c, 0, 45, 39
1, 94922, Note_off_c, 0, 77, 51
1, 94930, Note_off_c, 0, 75, 61
1, 94931, Note_off_c, 0, 65, 63
1, 94934, Note_on_c, 0, 74, 47
1, 94946, Note_off_c, 0, 45, 49
1, 94947, Note_on_c, 0, 52, 61
1, 94961, Note_off_c, 0, 74, 62
1, 94973, Note_on_c, 0, 51, 3
1, 94975, Control_c, 0, 64, 86
1, 94988, Note_on_c, 0, 55, 76
1, 94989, Control_c, 0, 64, 49
1, 95003, Note_off_c, 0, 52, 61
1, 95004, Control_c, 0, 64, 0
1, 95005, Note_on_c, 0, 60, 99
1, 95008, Note_on_c, 0, 66, 109
1, 95012, Note_on_c, 0, 75, 82
1, 95013, Note_on_c, 0, 78, 92
1, 95013, Note_off_c, 0, 51, 42
1, 95014, Note_on_c, 0, 72, 88
1, 95034, Control_c, 0, 64, 63
1, 95035, Note_off_c, 0, 60, 67
1, 95038, Note_on_c, 0, 56, 30
1, 95038, Note_off_c, 0, 56, 127
1, 95042, Note_off_c, 0, 55, 65
1, 95049, Control_c, 0, 64, 127
1, 95060, Note_off_c, 0, 66, 65
1, 95073, Note_off_c, 0, 78, 63
1, 95084, Note_off_c, 0, 72, 62
1, 95089, Note_off_c, 0, 75, 62
1, 95156, Note_on_c, 0, 67, 90
1, 95161, Note_on_c, 0, 79, 86
1, 95177, Note_off_c, 0, 67, 66
1, 95185, Note_off_c, 0, 79, 65
1, 95235, Note_on_c, 0, 36, 52
1, 95241, Note_on_c, 0, 33, 48
1, 95277, Note_off_c, 0, 33, 50
1, 95278, Note_on_c, 0, 69, 93
1, 95283, Note_on_c, 0, 81, 82
1, 95283, Note_off_c, 0, 36, 57
1, 95285, Note_on_c, 0, 45, 76
1, 95303, Note_off_c, 0, 81, 70
1, 95304, Note_off_c, 0, 69, 62
1, 95316, Note_off_c, 0, 45, 66
1, 95324, Note_on_c, 0, 78, 8
1, 95361, Note_on_c, 0, 33, 63
1, 95361, Note_on_c, 0, 36, 68
1, 95373, Note_off_c, 0, 78, 51
1, 95388, Note_on_c, 0, 70, 90
1, 95389, Note_on_c, 0, 82, 94
1, 95392, Note_off_c, 0, 33, 64
1, 95408, Note_off_c, 0, 36, 59
1, 95410, Note_off_c, 0, 70, 68
1, 95412, Note_on_c, 0, 45, 73
1, 95412, Note_off_c, 0, 82, 62
1, 95435, Note_off_c, 0, 45, 69
1, 95474, Note_on_c, 0, 33, 63
1, 95478, Note_on_c, 0, 36, 68
1, 95497, Note_on_c, 0, 84, 99
1, 95498, Note_on_c, 0, 72, 95
1, 95506, Note_off_c, 0, 33, 62
1, 95509, Note_on_c, 0, 74, 70
1, 95517, Note_off_c, 0, 72, 67
1, 95524, Note_on_c, 0, 45, 77
1, 95533, Note_off_c, 0, 74, 66
1, 95535, Note_off_c, 0, 84, 54
1, 95543, Note_off_c, 0, 36, 59
1, 95563, Note_off_c, 0, 45, 61
1, 95569, Poly_aftertouch_c, 0, 38, 127
1, 95587, Note_on_c, 0, 36, 61
1, 95601, Note_on_c, 0, 33, 62
1, 95609, Note_on_c, 0, 74, 95
1, 95616, Note_on_c, 0, 86, 99
1, 95634, Note_off_c, 0, 86, 70
1, 95639, Note_off_c, 0, 74, 66
1, 95640, Note_off_c, 0, 33, 51
1, 95655, Note_off_c, 0, 36, 60
1, 95666, Note_on_c, 0, 45, 57
1, 95690, Note_off_c, 0, 45, 59
1, 95691, Poly_aftertouch_c, 0, 38, 0
1, 95693, Note_on_c, 0, 36, 59
1, 95720, Note_on_c, 0, 75, 92
1, 95722, Note_on_c, 0, 87, 97
1, 95727, Note_off_c, 0, 36, 63
1, 95747, Note_on_c, 0, 45, 56
1, 95756, Note_off_c, 0, 75, 63
1, 95757, Note_on_c, 0, 85, 35
1, 95761, Note_off_c, 0, 87, 64
1, 95774, Note_off_c, 0, 45, 57
1, 95789, Note_off_c, 0, 85, 56
1, 95823, Note_on_c, 0, 78, 100
1, 95826, Note_on_c, 0, 90, 96
1, 95846, Note_on_c, 0, 46, 73
1, 95859, Note_off_c, 0, 78, 64
1, 95870, Note_off_c, 0, 90, 64
1, 95887, Control_c, 0, 64, 88
1, 95902, Control_c, 0, 64, 49
1, 95907, Note_on_c, 0, 50, 53
1, 95912, Note_off_c, 0, 46, 64
1, 95917, Control_c, 0, 64, 0
1, 95927, Note_on_c, 0, 58, 97
1, 95931, Control_c, 0, 64, 41
1, 95934, Note_on_c, 0, 79, 105
1, 95935, Note_on_c, 0, 86, 102
1, 95939, Note_on_c, 0, 91, 99
1, 95946, Control_c, 0, 64, 69
1, 95947, Note_on_c, 0, 90, 80
1, 95954, Note_off_c, 0, 58, 65
1, 95961, Control_c, 0, 64, 127
1, 95962, Note_off_c, 0, 90, 43
1, 95980, Note_off_c, 0, 50, 63
1, 95986, Note_off_c, 0, 91, 64
1, 95999, Note_off_c, 0, 79, 67
1, 96001, Note_off_c, 0, 86, 64
1, 96080, Note_on_c, 0, 77, 87
1, 96082, Note_on_c, 0, 89, 78
1, 96102, Note_off_c, 0, 77, 66
1, 96104, Note_off_c, 0, 89, 71
1, 96147, Note_on_c, 0, 34, 55
1, 96147, Note_on_c, 0, 38, 57
1, 96177, Note_on_c, 0, 87, 72
1, 96181, Note_off_c, 0, 34, 61
1, 96183, Note_on_c, 0, 75, 93
1, 96194, Note_on_c, 0, 46, 77
1, 96206, Note_off_c, 0, 38, 60
1, 96207, Note_off_c, 0, 75, 62
1, 96210, Note_on_c, 0, 82, 40
1, 96210, Note_off_c, 0, 82, 127
1, 96215, Note_off_c, 0, 87, 62
1, 96219, Note_on_c, 0, 85, 25
1, 96231, Note_on_c, 0, 88, 18
1, 96244, Note_off_c, 0, 46, 61
1, 96258, Note_on_c, 0, 38, 59
1, 96260, Note_off_c, 0, 85, 56
1, 96266, Note_on_c, 0, 34, 66
1, 96281, Note_off_c, 0, 88, 43
1, 96297, Note_on_c, 0, 74, 100
1, 96301, Note_on_c, 0, 86, 88
1, 96306, Note_off_c, 0, 34, 61
1, 96320, Note_off_c, 0, 86, 70
1, 96323, Note_off_c, 0, 74, 58
1, 96324, Note_on_c, 0, 46, 77
1, 96333, Note_off_c, 0, 38, 61
1, 96365, Note_off_c, 0, 46, 56
1, 96370, Poly_aftertouch_c, 0, 38, 0
1, 96380, Note_on_c, 0, 38, 56
1, 96388, Note_on_c, 0, 34, 61
1, 96400, Note_on_c, 0, 72, 100
1, 96408, Note_on_c, 0, 84, 89
1, 96424, Note_off_c, 0, 34, 62
1, 96427, Note_off_c, 0, 84, 72
1, 96432, Note_off_c, 0, 72, 59
1, 96443, Note_on_c, 0, 46, 76
1, 96449, Note_off_c, 0, 38, 62
1, 96483, Poly_aftertouch_c, 0, 38, 0
1, 96484, Note_off_c, 0, 46, 57
1, 96493, Note_on_c, 0, 38, 49
1, 96504, Note_on_c, 0, 70, 91
1, 96504, Note_on_c, 0, 82, 87
1, 96506, Note_on_c, 0, 34, 59
1, 96537, Note_off_c, 0, 34, 63
1, 96539, Note_off_c, 0, 82, 60
1, 96541, Note_off_c, 0, 70, 60
1, 96550, Poly_aftertouch_c, 0, 40, 127
1, 96561, Note_on_c, 0, 46, 70
1, 96584, Note_off_c, 0, 46, 67
1, 96594, Poly_aftertouch_c, 0, 40, 0
1, 96607, Note_on_c, 0, 69, 95
1, 96619, Note_on_c, 0, 81, 75
1, 96627, Note_on_c, 0, 34, 24
1, 96630, Note_off_c, 0, 38, 49
1, 96633, Note_off_c, 0, 81, 69
1, 96636, Note_off_c, 0, 69, 60
1, 96651, Note_on_c, 0, 46, 45
1, 96651, Note_off_c, 0, 34, 60
1, 96675, Note_off_c, 0, 46, 60
1, 96708, Note_on_c, 0, 67, 97
1, 96720, Note_on_c, 0, 79, 76
1, 96742, Note_off_c, 0, 79, 61
1, 96750, Note_on_c, 0, 53, 65
1, 96752, Note_off_c, 0, 67, 63
1, 96776, Note_on_c, 0, 75, 31
1, 96795, Note_on_c, 0, 56, 76
1, 96799, Control_c, 0, 64, 62
1, 96813, Control_c, 0, 64, 0
1, 96815, Note_on_c, 0, 62, 100
1, 96815, Note_off_c, 0, 75, 47
1, 96822, Note_on_c, 0, 68, 108
1, 96824, Note_on_c, 0, 77, 78
1, 96825, Note_on_c, 0, 74, 85
1, 96825, Note_on_c, 0, 80, 95
1, 96826, Note_off_c, 0, 53, 63
1, 96829, Note_on_c, 0, 55, 58
1, 96829, Note_off_c, 0, 55, 127
1, 96835, Note_off_c, 0, 62, 68
1, 96843, Control_c, 0, 64, 58
1, 96856, Poly_aftertouch_c, 0, 55, 0
1, 96857, Control_c, 0, 64, 92
1, 96866, Note_off_c, 0, 56, 62
1, 96872, Control_c, 0, 64, 127
1, 96878, Note_off_c, 0, 68, 66
1, 96883, Note_off_c, 0, 80, 64
1, 96892, Note_off_c, 0, 77, 62
1, 96900, Note_off_c, 0, 74, 61
1, 96978, Note_on_c, 0, 69, 97
1, 96984, Note_on_c, 0, 81, 85
1, 97003, Note_off_c, 0, 81, 70
1, 97004, Note_off_c, 0, 69, 61
1, 97031, Note_on_c, 0, 78, 10
1, 97031, Note_off_c, 0, 78, 127
1, 97082, Note_on_c, 0, 44, 107
1, 97087, Note_on_c, 0, 41, 82
1, 97096, Note_on_c, 0, 70, 100
1, 97098, Note_on_c, 0, 82, 98
1, 97101, Note_on_c, 0, 35, 59
1, 97101, Note_off_c, 0, 35, 127
1, 97113, Note_off_c, 0, 44, 57
1, 97114, Note_off_c, 0, 41, 63
1, 97126, Note_on_c, 0, 75, 45
1, 97126, Note_off_c, 0, 75, 127
1, 97126, Note_on_c, 0, 80, 44
1, 97131, Note_off_c, 0, 70, 62
1, 97134, Note_off_c, 0, 82, 64
1, 97152, Note_off_c, 0, 80, 56
1, 97208, Note_on_c, 0, 71, 94
1, 97210, Note_on_c, 0, 83, 91
1, 97224, Note_on_c, 0, 80, 59
1, 97228, Note_off_c, 0, 71, 64
1, 97246, Note_off_c, 0, 80, 62
1, 97247, Note_off_c, 0, 83, 57
1, 97280, Control_c, 0, 64, 94
1, 97295, Control_c, 0, 64, 54
1, 97309, Note_on_c, 0, 62, 99
1, 97310, Control_c, 0, 64, 0
1, 97313, Note_on_c, 0, 72, 93
1, 97313, Note_on_c, 0, 56, 91
1, 97321, Note_on_c, 0, 84, 96
1, 97325, Control_c, 0, 64, 41
1, 97325, Note_on_c, 0, 53, 69
1, 97329, Note_off_c, 0, 62, 69
1, 97334, Note_on_c, 0, 80, 56
1, 97334, Note_off_c, 0, 80, 127
1, 97336, Note_on_c, 0, 82, 65
1, 97340, Control_c, 0, 64, 69
1, 97346, Note_off_c, 0, 84, 63
1, 97349, Note_on_c, 0, 78, 38
1, 97349, Note_off_c, 0, 78, 127
1, 97351, Note_off_c, 0, 72, 65
1, 97352, Note_off_c, 0, 82, 65
1, 97354, Control_c, 0, 64, 127
1, 97356, Note_off_c, 0, 53, 65
1, 97358, Note_off_c, 0, 56, 60
1, 97365, Note_on_c, 0, 83, 27
1, 97365, Note_off_c, 0, 83, 127
1, 97397, Poly_aftertouch_c, 0, 83, 0
1, 97429, Note_on_c, 0, 73, 87
1, 97433, Note_on_c, 0, 85, 84
1, 97448, Note_off_c, 0, 73, 72
1, 97453, Note_off_c, 0, 85, 70
1, 97473, Note_on_c, 0, 72, 39
1, 97494, Poly_aftertouch_c, 0, 82, 127
1, 97504, Note_off_c, 0, 72, 49
1, 97522, Poly_aftertouch_c, 0, 82, 0
1, 97524, Note_on_c, 0, 44, 116
1, 97527, Note_on_c, 0, 74, 103
1, 97533, Note_on_c, 0, 86, 96
1, 97534, Note_on_c, 0, 41, 78
1, 97535, Poly_aftertouch_c, 0, 82, 0
1, 97539, Note_on_c, 0, 35, 75
1, 97545, Note_off_c, 0, 44, 67
1, 97554, Note_off_c, 0, 86, 66
1, 97560, Note_off_c, 0, 74, 66
1, 97560, Note_off_c, 0, 41, 63
1, 97562, Note_off_c, 0, 35, 60
1, 97623, Poly_aftertouch_c, 0, 37, 0
1, 97631, Note_on_c, 0, 75, 93
1, 97632, Note_on_c, 0, 87, 95
1, 97643, Poly_aftertouch_c, 0, 37, 0
1, 97650, Note_off_c, 0, 87, 68
1, 97653, Note_off_c, 0, 75, 65
1, 97664, Note_on_c, 0, 85, 34
1, 97697, Note_off_c, 0, 85, 50
1, 97724, Note_on_c, 0, 50, 105
1, 97724, Note_on_c, 0, 76, 105
1, 97728, Note_on_c, 0, 88, 97
1, 97730, Note_on_c, 0, 44, 89
1, 97740, Note_on_c, 0, 41, 61
1, 97744, Note_off_c, 0, 50, 69
1, 97751, Note_off_c, 0, 88, 66
1, 97752, Note_off_c, 0, 44, 66
1, 97753, Note_off_c, 0, 76, 59
1, 97760, Note_off_c, 0, 41, 61
1, 97814, Poly_aftertouch_c, 0, 42, 127
1, 97829, Note_on_c, 0, 77, 67
1, 97840, Note_on_c, 0, 89, 89
1, 97851, Poly_aftertouch_c, 0, 42, 0
1, 97855, Note_off_c, 0, 77, 69
1, 97857, Note_off_c, 0, 89, 73
1, 97912, Note_on_c, 0, 44, 104
1, 97921, Note_on_c, 0, 41, 67
1, 97924, Note_on_c, 0, 78, 97
1, 97926, Note_on_c, 0, 90, 93
1, 97932, Note_on_c, 0, 35, 67
1, 97935, Note_off_c, 0, 44, 67
1, 97947, Note_off_c, 0, 41, 63
1, 97960, Note_off_c, 0, 78, 64
1, 97963, Note_off_c, 0, 90, 66
1, 97965, Note_off_c, 0, 35, 54
1, 98001, Poly_aftertouch_c, 0, 37, 0
1, 98013, Note_on_c, 0, 79, 105
1, 98020, Note_on_c, 0, 91, 89
1, 98037, Note_off_c, 0, 91, 72
1, 98042, Poly_aftertouch_c, 0, 37, 0
1, 98043, Note_off_c, 0, 79, 64
1, 98045, Control_c, 0, 64, 73
1, 98059, Control_c, 0, 64, 0
1, 98062, Note_on_c, 0, 87, 7
1, 98062, Note_off_c, 0, 87, 127
1, 98089, Control_c, 0, 64, 55
1, 98099, Note_on_c, 0, 62, 103
1, 98103, Note_on_c, 0, 80, 102
1, 98104, Note_on_c, 0, 56, 88
1, 98104, Control_c, 0, 64, 85
1, 98107, Note_on_c, 0, 86, 85
1, 98107, Note_on_c, 0, 92, 98
1, 98109, Note_on_c, 0, 53, 81
1, 98117, Note_off_c, 0, 62, 70
1, 98119, Control_c, 0, 64, 127
1, 98129, Note_off_c, 0, 53, 68
1, 98133, Note_off_c, 0, 86, 59
1, 98137, Note_off_c, 0, 80, 67
1, 98138, Note_off_c, 0, 56, 58
1, 98141, Note_off_c, 0, 92, 67
1, 98203, Note_on_c, 0, 81, 101
1, 98210, Note_on_c, 0, 93, 82
1, 98220, Note_off_c, 0, 81, 68
1, 98228, Note_off_c, 0, 93, 72
1, 98290, Note_on_c, 0, 44, 95
1, 98295, Note_on_c, 0, 82, 100
1, 98300, Note_on_c, 0, 94, 91
1, 98305, Note_on_c, 0, 41, 62
1, 98312, Note_off_c, 0, 44, 71
1, 98320, Note_on_c, 0, 35, 41
1, 98321, Note_off_c, 0, 82, 57
1, 98323, Note_off_c, 0, 94, 67
1, 98329, Note_off_c, 0, 41, 59
1, 98335, Note_on_c, 0, 92, 35
1, 98354, Note_off_c, 0, 35, 54
1, 98382, Note_on_c, 0, 83, 84
1, 98385, Note_on_c, 0, 93, 86
1, 98386, Note_on_c, 0, 81, 87
1, 98386, Control_c, 0, 64, 72
1, 98400, Note_off_c, 0, 83, 71
1, 98400, Control_c, 0, 64, 36
1, 98402, Note_off_c, 0, 81, 74
1, 98402, Note_off_c, 0, 93, 72
1, 98415, Control_c, 0, 64, 0
1, 98430, Control_c, 0, 64, 50
1, 98445, Control_c, 0, 64, 78
1, 98448, Note_off_c, 0, 92, 20
1, 98459, Control_c, 0, 64, 127
1, 98465, Note_on_c, 0, 84, 103
1, 98468, Note_on_c, 0, 62, 101
1, 98469, Poly_aftertouch_c, 0, 92, 0
1, 98472, Note_on_c, 0, 96, 93
1, 98473, Note_on_c, 0, 56, 90
1, 98480, Note_on_c, 0, 53, 78
1, 98481, Note_on_c, 0, 94, 69
1, 98485, Note_off_c, 0, 62, 72
1, 98488, Note_off_c, 0, 84, 65
1, 98489, Note_off_c, 0, 96, 74
1, 98497, Note_off_c, 0, 94, 68
1, 98503, Note_off_c, 0, 53, 69
1, 98508, Note_off_c, 0, 56, 56
1, 98515, Note_on_c, 0, 95, 13
1, 98515, Note_off_c, 0, 95, 127
1, 98568, Note_on_c, 0, 85, 99
1, 98569, Note_on_c, 0, 97, 99
1, 98585, Note_off_c, 0, 85, 69
1, 98590, Note_on_c, 0, 94, 49
1, 98590, Note_off_c, 0, 94, 127
1, 98591, Note_off_c, 0, 97, 66
1, 98652, Note_on_c, 0, 86, 98
1, 98658, Note_on_c, 0, 98, 85
1, 98663, Note_on_c, 0, 44, 102
1, 98672, Note_off_c, 0, 86, 65
1, 98674, Note_on_c, 0, 41, 73
1, 98676, Note_off_c, 0, 98, 75
1, 98679, Note_on_c, 0, 35, 70
1, 98683, Note_off_c, 0, 44, 72
1, 98696, Note_off_c, 0, 41, 62
1, 98700, Note_on_c, 0, 94, 14
1, 98700, Note_off_c, 0, 94, 127
1, 98705, Note_off_c, 0, 35, 58
1, 98738, Note_on_c, 0, 87, 99
1, 98744, Note_on_c, 0, 99, 89
1, 98756, Poly_aftertouch_c, 0, 37, 0
1, 98776, Note_off_c, 0, 87, 61
1, 98785, Note_off_c, 0, 99, 62
1, 98826, Note_on_c, 0, 88, 102
1, 98830, Note_on_c, 0, 100, 92
1, 98839, Note_on_c, 0, 50, 95
1, 98841, Note_on_c, 0, 44, 87
1, 98851, Note_off_c, 0, 100, 70
1, 98856, Note_on_c, 0, 99, 26
1, 98856, Note_off_c, 0, 50, 73
1, 98857, Note_off_c, 0, 88, 62
1, 98867, Note_off_c, 0, 44, 62
1, 98895, Note_off_c, 0, 99, 46
1, 98916, Note_on_c, 0, 89, 106
1, 98923, Note_on_c, 0, 98, 84
1, 98924, Note_on_c, 0, 101, 80
1, 98933, Note_off_c, 0, 89, 68
1, 98940, Note_off_c, 0, 101, 71
1, 98952, Note_off_c, 0, 98, 64
1, 99000, Note_on_c, 0, 90, 103
1, 99003, Note_on_c, 0, 56, 100
1, 99005, Note_on_c, 0, 101, 87
1, 99008, Note_on_c, 0, 98, 85
1, 99018, Note_on_c, 0, 53, 66
1, 99022, Note_off_c, 0, 56, 69
1, 99030, Note_off_c, 0, 101, 64
1, 99032, Note_on_c, 0, 47, 39
1, 99032, Note_off_c, 0, 47, 127
1, 99035, Note_off_c, 0, 98, 60
1, 99036, Note_off_c, 0, 90, 67
1, 99036, Note_off_c, 0, 53, 65
1, 99061, Poly_aftertouch_c, 0, 47, 0
1, 99092, Note_on_c, 0, 91, 95
1, 99094, Note_on_c, 0, 101, 92
1, 99101, Note_on_c, 0, 98, 80
1, 99114, Note_off_c, 0, 91, 63
1, 99115, Note_off_c, 0, 101, 66
1, 99122, Note_off_c, 0, 98, 69
1, 99134, Control_c, 0, 64, 74
1, 99149, Control_c, 0, 64, 0
1, 99164, Note_on_c, 0, 92, 109
1, 99170, Note_on_c, 0, 62, 99
1, 99170, Note_on_c, 0, 101, 106
1, 99171, Note_on_c, 0, 98, 99
1, 99175, Note_on_c, 0, 56, 91
1, 99179, Control_c, 0, 64, 39
1, 99182, Note_on_c, 0, 53, 65
1, 99193, Control_c, 0, 64, 74
1, 99206, Note_off_c, 0, 101, 66
1, 99207, Note_on_c, 0, 54, 42
1, 99208, Control_c, 0, 64, 127
1, 99214, Note_off_c, 0, 53, 64
1, 99215, Note_off_c, 0, 62, 59
1, 99215, Note_off_c, 0, 92, 68
1, 99217, Note_on_c, 0, 99, 16
1, 99217, Note_off_c, 0, 99, 127
1, 99224, Note_off_c, 0, 98, 68
1, 99240, Note_off_c, 0, 54, 61
1, 99280, Note_off_c, 0, 56, 58
1, 99829, Note_on_c, 0, 49, 61
1, 99838, Control_c, 0, 64, 78
1, 99853, Control_c, 0, 64, 0
1, 99867, Note_on_c, 0, 55, 49
1, 99873, Note_on_c, 0, 75, 8
1, 99899, Note_off_c, 0, 49, 61
1, 99903, Note_on_c, 0, 57, 96
1, 99912, Control_c, 0, 64, 54
1, 99913, Note_on_c, 0, 69, 104
1, 99915, Note_on_c, 0, 76, 102
1, 99915, Note_off_c, 0, 75, 0
1, 99921, Note_on_c, 0, 81, 97
1, 99921, Note_off_c, 0, 57, 71
1, 99927, Control_c, 0, 64, 120
1, 99929, Note_off_c, 0, 55, 64
1, 99933, Note_on_c, 0, 78, 68
1, 99942, Control_c, 0, 64, 127
1, 99948, Note_off_c, 0, 78, 67
1, 99948, Note_off_c, 0, 81, 51
1, 99951, Note_off_c, 0, 69, 64
1, 99972, Note_off_c, 0, 76, 60
1, 99975, Poly_aftertouch_c, 0, 75, 0
1, 100045, Note_on_c, 0, 70, 93
1, 100046, Note_on_c, 0, 82, 89
1, 100064, Note_off_c, 0, 82, 71
1, 100066, Note_off_c, 0, 70, 68
1, 100138, Note_on_c, 0, 71, 101
1, 100139, Note_on_c, 0, 45, 82
1, 100141, Note_on_c, 0, 43, 77
1, 100145, Note_on_c, 0, 83, 79
1, 100156, Note_off_c, 0, 71, 69
1, 100162, Note_off_c, 0, 45, 65
1, 100163, Note_off_c, 0, 83, 72
1, 100168, Note_off_c, 0, 43, 66
1, 100172, Note_on_c, 0, 78, 32
1, 100172, Note_off_c, 0, 78, 127
1, 100228, Note_on_c, 0, 72, 101
1, 100236, Note_on_c, 0, 84, 88
1, 100246, Note_off_c, 0, 72, 68
1, 100253, Note_off_c, 0, 84, 73
1, 100261, Note_on_c, 0, 82, 37
1, 100261, Note_off_c, 0, 82, 127
1, 100276, Control_c, 0, 64, 80
1, 100291, Control_c, 0, 64, 0
1, 100314, Note_on_c, 0, 73, 100
1, 100315, Note_on_c, 0, 57, 91
1, 100317, Note_on_c, 0, 55, 96
1, 100317, Note_on_c, 0, 85, 101
1, 100320, Control_c, 0, 64, 55
1, 100320, Note_on_c, 0, 49, 80
1, 100332, Note_off_c, 0, 57, 73
1, 100335, Note_off_c, 0, 55, 73
1, 100335, Control_c, 0, 64, 81
1, 100340, Note_on_c, 0, 80, 52
1, 100340, Note_off_c, 0, 80, 127
1, 100343, Note_off_c, 0, 85, 64
1, 100344, Note_off_c, 0, 49, 72
1, 100347, Note_off_c, 0, 73, 62
1, 100349, Control_c, 0, 64, 127
1, 100406, Note_on_c, 0, 74, 99
1, 100412, Note_on_c, 0, 86, 90
1, 100421, Poly_aftertouch_c, 0, 78, 0
1, 100425, Note_off_c, 0, 74, 67
1, 100428, Note_off_c, 0, 86, 73
1, 100484, Note_on_c, 0, 45, 97
1, 100488, Note_on_c, 0, 37, 88
1, 100493, Note_on_c, 0, 75, 94
1, 100497, Note_on_c, 0, 87, 95
1, 100504, Note_off_c, 0, 45, 72
1, 100511, Note_off_c, 0, 37, 63
1, 100522, Note_off_c, 0, 87, 64
1, 100523, Note_off_c, 0, 75, 61
1, 100578, Note_on_c, 0, 76, 101
1, 100582, Note_on_c, 0, 88, 91
1, 100596, Note_off_c, 0, 76, 67
1, 100601, Note_off_c, 0, 88, 69
1, 100664, Note_on_c, 0, 52, 89
1, 100666, Note_on_c, 0, 77, 99
1, 100669, Note_on_c, 0, 45, 83
1, 100673, Note_on_c, 0, 43, 77
1, 100674, Note_on_c, 0, 89, 86
1, 100681, Note_off_c, 0, 77, 74
1, 100684, Note_off_c, 0, 52, 71
1, 100686, Note_on_c, 0, 87, 61
1, 100691, Note_off_c, 0, 45, 68
1, 100691, Note_off_c, 0, 89, 73
1, 100702, Note_off_c, 0, 43, 68
1, 100707, Note_off_c, 0, 87, 62
1, 100753, Note_on_c, 0, 78, 100
1, 100756, Note_on_c, 0, 90, 93
1, 100768, Note_off_c, 0, 78, 72
1, 100778, Note_off_c, 0, 90, 73
1, 100784, Note_on_c, 0, 87, 58
1, 100784, Note_off_c, 0, 87, 127
1, 100842, Note_on_c, 0, 45, 71
1, 100842, Note_on_c, 0, 79, 96
1, 100846, Note_on_c, 0, 37, 79
1, 100848, Note_on_c, 0, 43, 73
1, 100852, Note_on_c, 0, 91, 78
1, 100859, Note_off_c, 0, 79, 72
1, 100861, Note_off_c, 0, 45, 73
1, 100867, Note_off_c, 0, 37, 70
1, 100873, Note_off_c, 0, 91, 71
1, 100878, Note_off_c, 0, 43, 64
1, 100927, Note_on_c, 0, 80, 99
1, 100931, Note_on_c, 0, 92, 95
1, 100946, Note_off_c, 0, 80, 67
1, 100947, Note_off_c, 0, 92, 73
1, 100950, Control_c, 0, 64, 74
1, 100965, Control_c, 0, 64, 39
1, 100979, Control_c, 0, 64, 0
1, 100994, Control_c, 0, 64, 62
1, 101008, Note_on_c, 0, 81, 96
1, 101009, Control_c, 0, 64, 90
1, 101014, Note_on_c, 0, 93, 94
1, 101015, Note_on_c, 0, 57, 93
1, 101018, Note_on_c, 0, 55, 93
1, 101024, Note_on_c, 0, 49, 79
1, 101024, Control_c, 0, 64, 127
1, 101029, Note_off_c, 0, 81, 66
1, 101032, Note_off_c, 0, 93, 70
1, 101033, Note_off_c, 0, 57, 72
1, 101036, Note_off_c, 0, 55, 73
1, 101048, Note_off_c, 0, 49, 67
1, 101094, Note_on_c, 0, 82, 98
1, 101098, Note_on_c, 0, 94, 94
1, 101126, Note_off_c, 0, 82, 66
1, 101132, Note_off_c, 0, 94, 66
1, 101149, Note_on_c, 0, 92, 14
1, 101163, Note_off_c, 0, 92, 37
1, 101182, Note_on_c, 0, 83, 103
1, 101185, Note_on_c, 0, 95, 95
1, 101188, Note_on_c, 0, 37, 85
1, 101190, Note_on_c, 0, 45, 83
1, 101195, Note_on_c, 0, 43, 77
1, 101206, Poly_aftertouch_c, 0, 92, 0
1, 101212, Note_off_c, 0, 45, 71
1, 101215, Note_off_c, 0, 95, 64
1, 101215, Note_off_c, 0, 37, 64
1, 101216, Note_off_c, 0, 83, 62
1, 101227, Note_off_c, 0, 43, 64
1, 101271, Note_on_c, 0, 84, 87
1, 101277, Control_c, 0, 64, 100
1, 101279, Note_on_c, 0, 96, 93
1, 101292, Control_c, 0, 64, 66
1, 101295, Note_off_c, 0, 96, 73
1, 101298, Note_on_c, 0, 94, 52
1, 101301, Note_off_c, 0, 84, 63
1, 101307, Control_c, 0, 64, 48
1, 101320, Note_on_c, 0, 92, 20
1, 101320, Note_off_c, 0, 92, 127
1, 101320, Note_off_c, 0, 94, 61
1, 101322, Control_c, 0, 64, 62
1, 101337, Control_c, 0, 64, 85
1, 101351, Control_c, 0, 64, 127
1, 101363, Note_on_c, 0, 85, 101
1, 101365, Note_on_c, 0, 57, 93
1, 101365, Note_on_c, 0, 97, 106
1, 101371, Note_on_c, 0, 55, 84
1, 101374, Note_on_c, 0, 49, 83
1, 101379, Note_on_c, 0, 94, 75
1, 101379, Note_off_c, 0, 94, 127
1, 101382, Note_off_c, 0, 57, 74
1, 101392, Note_off_c, 0, 85, 66
1, 101394, Note_off_c, 0, 55, 69
1, 101397, Note_off_c, 0, 49, 69
1, 101398, Note_off_c, 0, 97, 65
1, 101449, Note_on_c, 0, 86, 101
1, 101453, Note_on_c, 0, 98, 95
1, 101474, Note_off_c, 0, 98, 68
1, 101480, Note_off_c, 0, 86, 61
1, 101550, Note_on_c, 0, 45, 93
1, 101552, Note_on_c, 0, 87, 97
1, 101555, Note_on_c, 0, 37, 78
1, 101555, Note_on_c, 0, 99, 97
1, 101570, Note_off_c, 0, 45, 72
1, 101575, Note_off_c, 0, 37, 65
1, 101588, Note_off_c, 0, 87, 67
1, 101593, Note_off_c, 0, 99, 66
1, 101593, Note_on_c, 0, 43, 18
1, 101633, Note_off_c, 0, 43, 50
1, 101641, Note_on_c, 0, 88, 95
1, 101644, Note_on_c, 0, 100, 96
1, 101665, Note_off_c, 0, 88, 63
1, 101672, Note_off_c, 0, 100, 67
1, 101740, Note_on_c, 0, 52, 97
1, 101741, Note_on_c, 0, 89, 99
1, 101742, Note_on_c, 0, 101, 98
1, 101744, Note_on_c, 0, 45, 88
1, 101745, Note_on_c, 0, 43, 80
1, 101749, Note_on_c, 0, 91, 76
1, 101759, Note_off_c, 0, 52, 71
1, 101762, Note_off_c, 0, 45, 72
1, 101763, Note_off_c, 0, 101, 64
1, 101765, Note_on_c, 0, 99, 49
1, 101765, Note_off_c, 0, 99, 127
1, 101765, Note_off_c, 0, 91, 42
1, 101766, Note_off_c, 0, 89, 62
1, 101766, Note_off_c, 0, 43, 64
1, 101837, Note_on_c, 0, 90, 95
1, 101838, Note_on_c, 0, 102, 91
1, 101853, Note_on_c, 0, 103, 81
1, 101854, Note_off_c, 0, 90, 71
1, 101865, Note_on_c, 0, 99, 45
1, 101865, Note_off_c, 0, 99, 127
1, 101866, Note_off_c, 0, 103, 71
1, 101869, Note_off_c, 0, 102, 61
1, 101871, Note_on_c, 0, 92, 44
1, 101871, Note_off_c, 0, 92, 127
1, 101933, Note_on_c, 0, 57, 92
1, 101942, Note_on_c, 0, 91, 96
1, 101945, Note_on_c, 0, 55, 69
1, 101946, Note_on_c, 0, 49, 62
1, 101946, Note_on_c, 0, 103, 90
1, 101953, Note_off_c, 0, 57, 70
1, 101961, Note_on_c, 0, 99, 61
1, 101961, Note_off_c, 0, 99, 127
1, 101966, Note_off_c, 0, 103, 69
1, 101966, Note_off_c, 0, 49, 66
1, 101967, Note_on_c, 0, 102, 65
1, 101972, Note_off_c, 0, 91, 68
1, 101974, Note_off_c, 0, 55, 63
1, 101989, Note_on_c, 0, 54, 2
1, 101989, Note_off_c, 0, 102, 62
1, 102032, Note_off_c, 0, 54, 37
1, 102045, Note_on_c, 0, 92, 103
1, 102047, Note_on_c, 0, 104, 98
1, 102100, Note_off_c, 0, 92, 64
1, 102104, Note_off_c, 0, 104, 67
1, 102175, Note_on_c, 0, 67, 99
1, 102175, Note_on_c, 0, 69, 101
1, 102177, Note_on_c, 0, 93, 112
1, 102177, Note_on_c, 0, 100, 108
1, 102180, Note_on_c, 0, 64, 83
1, 102181, Note_on_c, 0, 105, 108
1, 102184, Note_on_c, 0, 61, 74
1, 102190, Note_on_c, 0, 104, 82
1, 102204, Control_c, 0, 64, 84
1, 102206, Note_off_c, 0, 104, 67
1, 102216, Note_on_c, 0, 102, 43
1, 102218, Control_c, 0, 64, 50
1, 102233, Control_c, 0, 64, 0
1, 102237, Note_on_c, 0, 103, 47
1, 102252, Note_off_c, 0, 102, 49
1, 102285, Control_c, 0, 64, 58
1, 102300, Control_c, 0, 64, 98
1, 102315, Control_c, 0, 64, 127
1, 102378, Note_off_c, 0, 103, 21
1, 102379, Note_off_c, 0, 105, 56
1, 102458, Note_off_c, 0, 100, 53
1, 102623, Note_off_c, 0, 93, 58
1, 102675, Note_off_c, 0, 61, 38
1, 102695, Note_off_c, 0, 64, 30
1, 102697, Note_off_c, 0, 69, 49
1, 102728, Note_off_c, 0, 67, 37
1, 103182, Control_c, 0, 64, 94
1, 103197, Control_c, 0, 64, 78
1, 103212, Control_c, 0, 64, 67
1, 103227, Control_c, 0, 64, 58
1, 103242, Control_c, 0, 64, 47
1, 103257, Control_c, 0, 64, 39
1, 103272, Control_c, 0, 64, 36
1, 103286, Control_c, 0, 64, 34
1, 103301, Control_c, 0, 64, 0
1, 103705, Note_on_c, 0, 69, 102
1, 103706, Note_on_c, 0, 57, 108
1, 103813, Control_c, 0, 64, 37
1, 103828, Control_c, 0, 64, 59
1, 103843, Control_c, 0, 64, 69
1, 103858, Control_c, 0, 64, 80
1, 103872, Control_c, 0, 64, 127
1, 104048, Note_off_c, 0, 57, 50
1, 104302, Note_off_c, 0, 69, 42
1, 105072, Note_on_c, 0, 66, 108
1, 105082, Note_on_c, 0, 54, 114
1, 105119, Note_on_c, 0, 69, 41
1, 105142, Note_on_c, 0, 53, 23
1, 105196, Poly_aftertouch_c, 0, 52, 127
1, 105199, Control_c, 0, 64, 96
1, 105206, Note_off_c, 0, 53, 39
1, 105214, Control_c, 0, 64, 68
1, 105229, Control_c, 0, 64, 0
1, 105237, Poly_aftertouch_c, 0, 52, 0
1, 105245, Note_off_c, 0, 69, 37
1, 105311, Control_c, 0, 64, 57
1, 105325, Control_c, 0, 64, 70
1, 105340, Control_c, 0, 64, 84
1, 105355, Control_c, 0, 64, 127
1, 105553, Note_off_c, 0, 54, 44
1, 106342, Note_on_c, 0, 50, 100
1, 106342, Note_on_c, 0, 62, 107
1, 106352, Note_off_c, 0, 66, 25
1, 106445, Control_c, 0, 64, 96
1, 106460, Control_c, 0, 64, 72
1, 106474, Control_c, 0, 64, 57
1, 106489, Control_c, 0, 64, 0
1, 106667, Control_c, 0, 64, 45
1, 106682, Control_c, 0, 64, 60
1, 106697, Control_c, 0, 64, 68
1, 106711, Control_c, 0, 64, 77
1, 106726, Control_c, 0, 64, 90
1, 106741, Control_c, 0, 64, 119
1, 106763, Control_c, 0, 64, 127
1, 106920, Note_off_c, 0, 50, 56
1, 107016, Note_off_c, 0, 62, 57
1, 107786, Note_on_c, 0, 70, 112
1, 107792, Note_on_c, 0, 58, 112
1, 107809, Control_c, 0, 64, 74
1, 107824, Control_c, 0, 64, 45
1, 107838, Control_c, 0, 64, 0
1, 107868, Control_c, 0, 64, 59
1, 107883, Control_c, 0, 64, 74
1, 107898, Control_c, 0, 64, 127
1, 108007, Note_off_c, 0, 58, 46
1, 108235, Note_off_c, 0, 70, 57
1, 108739, Note_on_c, 0, 58, 101
1, 108747, Note_on_c, 0, 70, 82
1, 108764, Note_on_c, 0, 68, 58
1, 108765, Note_on_c, 0, 71, 64
1, 108780, Note_off_c, 0, 70, 47
1, 108783, Note_off_c, 0, 71, 65
1, 108789, Note_off_c, 0, 68, 55
1, 108817, Note_off_c, 0, 58, 64
1, 109138, Note_on_c, 0, 51, 106
1, 109142, Note_on_c, 0, 30, 91
1, 109144, Note_on_c, 0, 63, 98
1, 109158, Note_on_c, 0, 32, 66
1, 109174, Note_on_c, 0, 31, 56
1, 109183, Note_on_c, 0, 61, 37
1, 109188, Control_c, 0, 64, 75
1, 109193, Note_off_c, 0, 32, 56
1, 109203, Control_c, 0, 64, 36
1, 109208, Note_off_c, 0, 31, 53
1, 109216, Note_off_c, 0, 61, 51
1, 109217, Control_c, 0, 64, 0
1, 109247, Control_c, 0, 64, 45
1, 109262, Control_c, 0, 64, 70
1, 109277, Control_c, 0, 64, 96
1, 109291, Control_c, 0, 64, 127
1, 109344, Note_off_c, 0, 30, 53
1, 109376, Note_on_c, 0, 31, 74
1, 109388, Note_off_c, 0, 51, 56
1, 109410, Note_on_c, 0, 60, 52
1, 109421, Note_on_c, 0, 57, 47
1, 109451, Note_off_c, 0, 60, 63
1, 109451, Note_off_c, 0, 31, 59
1, 109456, Note_off_c, 0, 57, 63
1, 109479, Note_on_c, 0, 32, 88
1, 109490, Note_on_c, 0, 51, 71
1, 109537, Note_off_c, 0, 32, 61
1, 109560, Note_off_c, 0, 51, 58
1, 109564, Note_on_c, 0, 57, 63
1, 109569, Note_on_c, 0, 60, 55
1, 109570, Note_on_c, 0, 33, 99
1, 109603, Note_off_c, 0, 57, 61
1, 109603, Note_off_c, 0, 60, 65
1, 109614, Note_off_c, 0, 33, 64
1, 109617, Control_c, 0, 64, 111
1, 109632, Control_c, 0, 64, 73
1, 109636, Note_on_c, 0, 51, 67
1, 109647, Control_c, 0, 64, 48
1, 109661, Note_on_c, 0, 34, 87
1, 109661, Control_c, 0, 64, 42
1, 109676, Control_c, 0, 64, 58
1, 109691, Control_c, 0, 64, 71
1, 109698, Note_off_c, 0, 51, 61
1, 109704, Note_on_c, 0, 60, 53
1, 109705, Note_off_c, 0, 34, 64
1, 109706, Control_c, 0, 64, 100
1, 109710, Note_on_c, 0, 57, 72
1, 109719, Note_off_c, 0, 63, 0
1, 109721, Control_c, 0, 64, 127
1, 109744, Note_off_c, 0, 60, 64
1, 109745, Note_off_c, 0, 57, 62
1, 109763, Poly_aftertouch_c, 0, 63, 127
1, 109768, Note_on_c, 0, 35, 93
1, 109785, Note_on_c, 0, 63, 15
1, 109792, Note_on_c, 0, 51, 71
1, 109810, Note_off_c, 0, 35, 62
1, 109850, Note_off_c, 0, 51, 57
1, 109864, Note_on_c, 0, 57, 66
1, 109865, Note_on_c, 0, 36, 91
1, 109869, Note_off_c, 0, 63, 0
1, 109870, Note_on_c, 0, 60, 50
1, 109889, Note_off_c, 0, 57, 69
1, 109894, Note_off_c, 0, 60, 62
1, 109907, Poly_aftertouch_c, 0, 63, 127
1, 109917, Note_off_c, 0, 36, 62
1, 109922, Note_on_c, 0, 51, 63
1, 109964, Note_off_c, 0, 51, 53
1, 109970, Note_on_c, 0, 38, 78
1, 109972, Note_on_c, 0, 57, 66
1, 109978, Poly_aftertouch_c, 0, 63, 0
1, 109984, Note_on_c, 0, 60, 43
1, 110001, Note_off_c, 0, 38, 64
1, 110015, Note_off_c, 0, 60, 53
1, 110020, Note_off_c, 0, 57, 59
1, 110026, Control_c, 0, 64, 84
1, 110026, Poly_aftertouch_c, 0, 37, 127
1, 110038, Note_on_c, 0, 51, 100
1, 110040, Control_c, 0, 64, 53
1, 110042, Note_on_c, 0, 63, 89
1, 110050, Note_on_c, 0, 38, 106
1, 110055, Control_c, 0, 64, 0
1, 110061, Poly_aftertouch_c, 0, 37, 0
1, 110084, Control_c, 0, 64, 44
1, 110093, Note_off_c, 0, 38, 66
1, 110099, Control_c, 0, 64, 66
1, 110114, Control_c, 0, 64, 87
1, 110129, Control_c, 0, 64, 127
1, 110153, Note_on_c, 0, 60, 65
1, 110154, Note_on_c, 0, 39, 94
1, 110154, Note_off_c, 0, 51, 60
1, 110162, Note_on_c, 0, 57, 66
1, 110199, Note_off_c, 0, 39, 64
1, 110217, Note_off_c, 0, 57, 59
1, 110223, Note_off_c, 0, 60, 58
1, 110243, Note_on_c, 0, 51, 76
1, 110259, Note_on_c, 0, 40, 97
1, 110297, Note_off_c, 0, 40, 63
1, 110315, Note_off_c, 0, 51, 61
1, 110329, Note_on_c, 0, 57, 66
1, 110338, Note_on_c, 0, 60, 56
1, 110354, Note_off_c, 0, 57, 66
1, 110356, Note_on_c, 0, 41, 89
1, 110365, Note_off_c, 0, 60, 64
1, 110383, Note_off_c, 0, 63, 0
1, 110393, Note_on_c, 0, 51, 68
1, 110420, Poly_aftertouch_c, 0, 63, 127
1, 110450, Note_off_c, 0, 51, 62
1, 110451, Note_off_c, 0, 41, 61
1, 110457, Note_on_c, 0, 57, 67
1, 110457, Note_on_c, 0, 60, 48
1, 110467, Poly_aftertouch_c, 0, 63, 0
1, 110479, Note_off_c, 0, 60, 62
1, 110492, Note_on_c, 0, 42, 102
1, 110492, Note_on_c, 0, 48, 100
1, 110496, Note_on_c, 0, 51, 92
1, 110497, Note_on_c, 0, 63, 83
1, 110500, Control_c, 0, 64, 99
1, 110516, Note_off_c, 0, 57, 39
1, 110522, Control_c, 0, 64, 64
1, 110537, Control_c, 0, 64, 0
1, 110581, Control_c, 0, 64, 60
1, 110587, Note_off_c, 0, 48, 65
1, 110596, Control_c, 0, 64, 91
1, 110608, Note_off_c, 0, 51, 62
1, 110610, Note_off_c, 0, 42, 63
1, 110611, Control_c, 0, 64, 127
1, 110617, Note_on_c, 0, 57, 66
1, 110619, Note_on_c, 0, 60, 58
1, 110620, Poly_aftertouch_c, 0, 41, 0
1, 110658, Note_off_c, 0, 57, 61
1, 110667, Note_off_c, 0, 60, 53
1, 110688, Note_on_c, 0, 51, 79
1, 110745, Note_off_c, 0, 51, 61
1, 110748, Note_on_c, 0, 60, 48
1, 110753, Note_on_c, 0, 57, 67
1, 110781, Note_off_c, 0, 57, 64
1, 110787, Note_off_c, 0, 60, 63
1, 110808, Note_on_c, 0, 51, 60
1, 110848, Note_off_c, 0, 51, 59
1, 110893, Note_on_c, 0, 57, 36
1, 110909, Note_on_c, 0, 51, 59
1, 110920, Poly_aftertouch_c, 0, 60, 127
1, 110933, Note_off_c, 0, 57, 0
1, 110944, Note_off_c, 0, 51, 63
1, 110953, Note_off_c, 0, 63, 62
1, 110953, Note_on_c, 0, 57, 42
1, 110994, Note_on_c, 0, 48, 96
1, 110998, Note_on_c, 0, 43, 94
1, 111001, Note_off_c, 0, 57, 43
1, 111004, Note_on_c, 0, 50, 101
1, 111007, Note_on_c, 0, 62, 95
1, 111016, Poly_aftertouch_c, 0, 60, 0
1, 111027, Control_c, 0, 64, 98
1, 111028, Note_on_c, 0, 56, 56
1, 111034, Note_on_c, 0, 60, 28
1, 111041, Control_c, 0, 64, 60
1, 111052, Note_off_c, 0, 56, 55
1, 111056, Control_c, 0, 64, 0
1, 111064, Note_off_c, 0, 60, 54
1, 111100, Control_c, 0, 64, 41
1, 111111, Note_off_c, 0, 62, 61
1, 111114, Control_c, 0, 64, 71
1, 111129, Control_c, 0, 64, 112
1, 111144, Control_c, 0, 64, 127
1, 111156, Note_off_c, 0, 48, 55
1, 111198, Note_on_c, 0, 42, 73
1, 111200, Note_off_c, 0, 50, 49
1, 111213, Note_on_c, 0, 55, 61
1, 111224, Note_on_c, 0, 60, 55
1, 111227, Note_off_c, 0, 43, 60
1, 111245, Note_off_c, 0, 55, 63
1, 111264, Note_off_c, 0, 60, 67
1, 111269, Note_off_c, 0, 42, 63
1, 111293, Note_on_c, 0, 50, 70
1, 111309, Note_on_c, 0, 41, 85
1, 111353, Note_off_c, 0, 50, 52
1, 111361, Note_on_c, 0, 60, 62
1, 111364, Note_off_c, 0, 41, 60
1, 111374, Note_on_c, 0, 55, 61
1, 111395, Note_off_c, 0, 60, 63
1, 111401, Note_on_c, 0, 40, 92
1, 111403, Note_off_c, 0, 55, 63
1, 111422, Note_on_c, 0, 50, 70
1, 111458, Note_off_c, 0, 40, 62
1, 111463, Control_c, 0, 64, 94
1, 111478, Control_c, 0, 64, 69
1, 111489, Note_off_c, 0, 50, 54
1, 111493, Control_c, 0, 64, 59
1, 111496, Note_on_c, 0, 60, 65
1, 111499, Note_on_c, 0, 39, 90
1, 111505, Note_on_c, 0, 55, 60
1, 111507, Control_c, 0, 64, 62
1, 111522, Control_c, 0, 64, 69
1, 111525, Note_off_c, 0, 60, 66
1, 111535, Note_off_c, 0, 55, 65
1, 111537, Control_c, 0, 64, 89
1, 111551, Note_off_c, 0, 39, 61
1, 111552, Control_c, 0, 64, 127
1, 111561, Note_on_c, 0, 50, 67
1, 111597, Note_on_c, 0, 38, 83
1, 111622, Note_off_c, 0, 50, 57
1, 111624, Note_on_c, 0, 60, 66
1, 111626, Note_on_c, 0, 55, 62
1, 111650, Note_off_c, 0, 38, 63
1, 111657, Note_off_c, 0, 60, 66
1, 111670, Note_off_c, 0, 55, 60
1, 111682, Note_on_c, 0, 50, 63
1, 111711, Note_on_c, 0, 37, 89
1, 111739, Note_on_c, 0, 60, 65
1, 111740, Note_off_c, 0, 50, 62
1, 111759, Note_on_c, 0, 55, 59
1, 111764, Note_off_c, 0, 37, 58
1, 111765, Note_off_c, 0, 60, 65
1, 111793, Note_off_c, 0, 55, 63
1, 111806, Note_on_c, 0, 36, 85
1, 111806, Note_on_c, 0, 50, 58
1, 111860, Note_on_c, 0, 60, 65
1, 111861, Note_off_c, 0, 50, 59
1, 111865, Note_off_c, 0, 36, 59
1, 111878, Note_on_c, 0, 55, 44
1, 111920, Note_off_c, 0, 55, 59
1, 111920, Note_off_c, 0, 60, 60
1, 111923, Control_c, 0, 64, 75
1, 111931, Note_on_c, 0, 47, 99
1, 111937, Control_c, 0, 64, 47
1, 111940, Note_on_c, 0, 35, 89
1, 111946, Note_on_c, 0, 50, 69
1, 111952, Control_c, 0, 64, 0
1, 111982, Control_c, 0, 64, 51
1, 111997, Control_c, 0, 64, 71
1, 111998, Note_off_c, 0, 35, 56
1, 112017, Note_off_c, 0, 47, 62
1, 112019, Control_c, 0, 64, 98
1, 112029, Note_off_c, 0, 50, 59
1, 112034, Note_on_c, 0, 55, 57
1, 112034, Control_c, 0, 64, 127
1, 112035, Note_on_c, 0, 59, 60
1, 112071, Note_off_c, 0, 55, 60
1, 112073, Note_off_c, 0, 59, 59
1, 112078, Note_on_c, 0, 34, 80
1, 112105, Note_on_c, 0, 50, 74
1, 112150, Note_off_c, 0, 34, 61
1, 112182, Note_on_c, 0, 59, 66
1, 112187, Note_off_c, 0, 50, 57
1, 112189, Note_on_c, 0, 55, 60
1, 112197, Note_on_c, 0, 33, 79
1, 112230, Note_off_c, 0, 55, 59
1, 112232, Note_off_c, 0, 59, 59
1, 112248, Note_on_c, 0, 50, 56
1, 112294, Note_off_c, 0, 33, 56
1, 112298, Note_on_c, 0, 32, 76
1, 112327, Note_on_c, 0, 55, 56
1, 112327, Note_on_c, 0, 59, 61
1, 112338, Note_off_c, 0, 50, 0
1, 112355, Note_off_c, 0, 55, 66
1, 112357, Note_on_c, 0, 50, 35
1, 112357, Note_off_c, 0, 59, 64
1, 112384, Note_off_c, 0, 32, 58
1, 112399, Note_on_c, 0, 31, 72
1, 112432, Note_on_c, 0, 59, 65
1, 112435, Control_c, 0, 64, 103
1, 112450, Control_c, 0, 64, 85
1, 112465, Control_c, 0, 64, 70
1, 112466, Note_off_c, 0, 59, 61
1, 112468, Note_on_c, 0, 55, 44
1, 112474, Note_on_c, 0, 38, 73
1, 112477, Note_off_c, 0, 31, 62
1, 112479, Control_c, 0, 64, 53
1, 112494, Note_off_c, 0, 55, 58
1, 112494, Control_c, 0, 64, 0
1, 112495, Note_off_c, 0, 50, 35
1, 112533, Note_on_c, 0, 46, 111
1, 112539, Note_on_c, 0, 50, 94
1, 112545, Note_on_c, 0, 58, 86
1, 112545, Note_off_c, 0, 38, 64
1, 112548, Note_on_c, 0, 55, 82
1, 112553, Control_c, 0, 64, 45
1, 112560, Note_on_c, 0, 39, 45
1, 112568, Control_c, 0, 64, 77
1, 112575, Note_off_c, 0, 46, 62
1, 112578, Note_off_c, 0, 55, 65
1, 112578, Note_on_c, 0, 56, 32
1, 112578, Note_off_c, 0, 56, 127
1, 112580, Note_off_c, 0, 50, 65
1, 112583, Control_c, 0, 64, 127
1, 112596, Note_off_c, 0, 39, 52
1, 112602, Note_off_c, 0, 58, 65
1, 112629, Poly_aftertouch_c, 0, 47, 0
1, 112657, Poly_aftertouch_c, 0, 47, 0
1, 113153, Control_c, 0, 64, 116
1, 113168, Control_c, 0, 64, 106
1, 113183, Control_c, 0, 64, 100
1, 113198, Control_c, 0, 64, 94
1, 113213, Control_c, 0, 64, 91
1, 113228, Control_c, 0, 64, 88
1, 113243, Control_c, 0, 64, 86
1, 113258, Control_c, 0, 64, 85
1, 113273, Control_c, 0, 64, 84
1, 113287, Control_c, 0, 64, 84
1, 113302, Control_c, 0, 64, 83
1, 113317, Control_c, 0, 64, 82
1, 113332, Control_c, 0, 64, 79
1, 113347, Control_c, 0, 64, 77
1, 113362, Control_c, 0, 64, 75
1, 113377, Control_c, 0, 64, 73
1, 113392, Control_c, 0, 64, 71
1, 113407, Control_c, 0, 64, 69
1, 113422, Control_c, 0, 64, 66
1, 113436, Control_c, 0, 64, 63
1, 113451, Control_c, 0, 64, 60
1, 113466, Control_c, 0, 64, 58
1, 113481, Control_c, 0, 64, 57
1, 113496, Control_c, 0, 64, 56
1, 113517, Control_c, 0, 64, 55
1, 113532, Control_c, 0, 64, 54
1, 113547, Control_c, 0, 64, 53
1, 113562, Control_c, 0, 64, 52
1, 113577, Control_c, 0, 64, 51
1, 113591, Control_c, 0, 64, 49
1, 113606, Control_c, 0, 64, 48
1, 113621, Control_c, 0, 64, 46
1, 113636, Control_c, 0, 64, 44
1, 113651, Control_c, 0, 64, 42
1, 113666, Control_c, 0, 64, 39
1, 113681, Control_c, 0, 64, 35
1, 113696, Control_c, 0, 64, 0
1, 113843, Control_c, 0, 64, 39
1, 113858, Control_c, 0, 64, 50
1, 113873, Control_c, 0, 64, 58
1, 113888, Control_c, 0, 64, 64
1, 113902, Control_c, 0, 64, 69
1, 113917, Control_c, 0, 64, 74
1, 113932, Control_c, 0, 64, 78
1, 113947, Control_c, 0, 64, 82
1, 113961, Control_c, 0, 64, 87
1, 113978, Control_c, 0, 64, 94
1, 113993, Control_c, 0, 64, 106
1, 114007, Control_c, 0, 64, 127
1, 114171, Note_on_c, 0, 63, 34
1, 114194, Note_on_c, 0, 51, 32
1, 114326, Control_c, 0, 64, 109
1, 114340, Control_c, 0, 64, 95
1, 114355, Control_c, 0, 64, 84
1, 114370, Control_c, 0, 64, 74
1, 114385, Control_c, 0, 64, 65
1, 114400, Control_c, 0, 64, 57
1, 114414, Control_c, 0, 64, 51
1, 114429, Control_c, 0, 64, 53
1, 114444, Control_c, 0, 64, 58
1, 114459, Control_c, 0, 64, 61
1, 114474, Control_c, 0, 64, 63
1, 114489, Control_c, 0, 64, 65
1, 114504, Control_c, 0, 64, 70
1, 114519, Control_c, 0, 64, 80
1, 114533, Control_c, 0, 64, 98
1, 114548, Control_c, 0, 64, 127
1, 115365, Note_on_c, 0, 58, 33
1, 115374, Note_on_c, 0, 70, 43
1, 115445, Control_c, 0, 64, 103
1, 115452, Note_off_c, 0, 51, 38
1, 115460, Control_c, 0, 64, 86
1, 115474, Control_c, 0, 64, 73
1, 115489, Control_c, 0, 64, 63
1, 115498, Note_off_c, 0, 63, 40
1, 115504, Control_c, 0, 64, 49
1, 115519, Control_c, 0, 64, 37
1, 115534, Control_c, 0, 64, 37
1, 115548, Control_c, 0, 64, 40
1, 115563, Control_c, 0, 64, 45
1, 115579, Control_c, 0, 64, 51
1, 115594, Control_c, 0, 64, 57
1, 115609, Control_c, 0, 64, 61
1, 115623, Control_c, 0, 64, 66
1, 115638, Control_c, 0, 64, 71
1, 115653, Control_c, 0, 64, 79
1, 115668, Control_c, 0, 64, 88
1, 115683, Control_c, 0, 64, 96
1, 115697, Control_c, 0, 64, 106
1, 115712, Control_c, 0, 64, 127
1, 115866, Note_off_c, 0, 58, 43
1, 115901, Note_off_c, 0, 70, 35
1, 116358, Note_on_c, 0, 70, 36
1, 116379, Note_on_c, 0, 58, 29
1, 116602, Note_off_c, 0, 58, 38
1, 116610, Note_off_c, 0, 70, 39
1, 116624, Note_on_c, 0, 61, 36
1, 116637, Note_on_c, 0, 49, 33
1, 116706, Control_c, 0, 64, 101
1, 116721, Control_c, 0, 64, 87
1, 116735, Control_c, 0, 64, 77
1, 116750, Control_c, 0, 64, 68
1, 116765, Control_c, 0, 64, 60
1, 116779, Control_c, 0, 64, 48
1, 116794, Control_c, 0, 64, 37
1, 116809, Control_c, 0, 64, 0
1, 116898, Control_c, 0, 64, 35
1, 116913, Control_c, 0, 64, 42
1, 116927, Control_c, 0, 64, 48
1, 116942, Control_c, 0, 64, 55
1, 116957, Control_c, 0, 64, 62
1, 116972, Control_c, 0, 64, 66
1, 116987, Control_c, 0, 64, 70
1, 117002, Control_c, 0, 64, 75
1, 117017, Control_c, 0, 64, 80
1, 117031, Control_c, 0, 64, 86
1, 117046, Control_c, 0, 64, 96
1, 117061, Control_c, 0, 64, 111
1, 117076, Control_c, 0, 64, 127
1, 117816, Note_on_c, 0, 65, 43
1, 117818, Note_on_c, 0, 53, 36
1, 117884, Control_c, 0, 64, 106
1, 117899, Control_c, 0, 64, 90
1, 117913, Control_c, 0, 64, 73
1, 117928, Control_c, 0, 64, 60
1, 117943, Control_c, 0, 64, 36
1, 117950, Note_off_c, 0, 49, 44
1, 117957, Note_off_c, 0, 61, 36
1, 117958, Control_c, 0, 64, 0
1, 118025, Control_c, 0, 64, 40
1, 118040, Control_c, 0, 64, 52
1, 118055, Control_c, 0, 64, 63
1, 118070, Control_c, 0, 64, 69
1, 118085, Control_c, 0, 64, 76
1, 118099, Control_c, 0, 64, 83
1, 118114, Control_c, 0, 64, 89
1, 118129, Control_c, 0, 64, 95
1, 118144, Control_c, 0, 64, 106
1, 118159, Control_c, 0, 64, 127
1, 118227, Note_off_c, 0, 53, 40
1, 118352, Note_off_c, 0, 65, 41
1, 119190, Control_c, 0, 64, 96
1, 119204, Control_c, 0, 64, 70
1, 119219, Control_c, 0, 64, 53
1, 119227, Note_on_c, 0, 59, 51
1, 119231, Note_on_c, 0, 32, 30
1, 119234, Control_c, 0, 64, 0
1, 119246, Note_on_c, 0, 35, 24
1, 119249, Control_c, 0, 64, 36
1, 119257, Note_on_c, 0, 47, 24
1, 119264, Control_c, 0, 64, 51
1, 119279, Control_c, 0, 64, 63
1, 119294, Control_c, 0, 64, 72
1, 119309, Control_c, 0, 64, 90
1, 119322, Control_c, 0, 64, 114
1, 119327, Note_off_c, 0, 59, 61
1, 119337, Control_c, 0, 64, 127
1, 119398, Note_off_c, 0, 32, 41
1, 119407, Note_off_c, 0, 35, 38
1, 119413, Note_off_c, 0, 47, 40
1, 119443, Note_on_c, 0, 53, 46
1, 119452, Note_on_c, 0, 36, 38
1, 119472, Note_off_c, 0, 53, 59
1, 119474, Poly_aftertouch_c, 0, 33, 127
1, 119512, Poly_aftertouch_c, 0, 50, 127
1, 119515, Poly_aftertouch_c, 0, 33, 0
1, 119519, Note_on_c, 0, 47, 48
1, 119520, Poly_aftertouch_c, 0, 50, 0
1, 119550, Note_off_c, 0, 47, 60
1, 119558, Poly_aftertouch_c, 0, 50, 127
1, 119564, Note_off_c, 0, 36, 53
1, 119571, Note_on_c, 0, 53, 55
1, 119583, Note_on_c, 0, 37, 49
1, 119591, Note_on_c, 0, 34, 34
1, 119600, Note_off_c, 0, 53, 56
1, 119625, Poly_aftertouch_c, 0, 50, 0
1, 119630, Note_off_c, 0, 34, 51
1, 119633, Note_on_c, 0, 47, 49
1, 119645, Note_off_c, 0, 37, 54
1, 119655, Note_off_c, 0, 47, 63
1, 119669, Note_on_c, 0, 50, 39
1, 119673, Note_on_c, 0, 53, 51
1, 119677, Note_on_c, 0, 38, 60
1, 119684, Note_on_c, 0, 35, 43
1, 119696, Note_off_c, 0, 53, 59
1, 119701, Note_off_c, 0, 50, 56
1, 119723, Note_off_c, 0, 35, 46
1, 119724, Note_on_c, 0, 47, 64
1, 119724, Note_off_c, 0, 38, 62
1, 119753, Note_off_c, 0, 47, 67
1, 119774, Note_on_c, 0, 53, 62
1, 119777, Note_on_c, 0, 39, 72
1, 119779, Note_on_c, 0, 36, 64
1, 119782, Note_on_c, 0, 50, 46
1, 119801, Note_off_c, 0, 53, 62
1, 119809, Note_off_c, 0, 50, 59
1, 119816, Note_off_c, 0, 36, 61
1, 119819, Control_c, 0, 64, 108
1, 119828, Note_off_c, 0, 39, 58
1, 119831, Note_on_c, 0, 47, 65
1, 119834, Control_c, 0, 64, 82
1, 119849, Control_c, 0, 64, 67
1, 119863, Note_off_c, 0, 47, 65
1, 119863, Control_c, 0, 64, 61
1, 119874, Note_on_c, 0, 37, 68
1, 119878, Note_on_c, 0, 40, 76
1, 119878, Control_c, 0, 64, 66
1, 119879, Note_on_c, 0, 50, 54
1, 119881, Note_on_c, 0, 53, 59
1, 119893, Control_c, 0, 64, 78
1, 119908, Control_c, 0, 64, 127
1, 119909, Note_off_c, 0, 53, 62
1, 119914, Note_off_c, 0, 40, 63
1, 119915, Note_off_c, 0, 37, 62
1, 119916, Note_off_c, 0, 50, 64
1, 119934, Note_on_c, 0, 47, 62
1, 119963, Note_off_c, 0, 47, 66
1, 119972, Note_on_c, 0, 53, 54
1, 119978, Note_on_c, 0, 41, 86
1, 119987, Note_on_c, 0, 38, 75
1, 119988, Note_on_c, 0, 50, 48
1, 119999, Note_off_c, 0, 53, 63
1, 120015, Note_off_c, 0, 50, 57
1, 120022, Note_off_c, 0, 41, 61
1, 120033, Note_off_c, 0, 38, 56
1, 120033, Note_on_c, 0, 47, 67
1, 120055, Note_off_c, 0, 47, 70
1, 120067, Note_on_c, 0, 53, 60
1, 120071, Note_on_c, 0, 50, 52
1, 120075, Note_on_c, 0, 42, 82
1, 120083, Note_on_c, 0, 39, 75
1, 120097, Note_off_c, 0, 50, 57
1, 120097, Note_off_c, 0, 53, 63
1, 120124, Note_off_c, 0, 39, 59
1, 120129, Note_off_c, 0, 42, 63
1, 120174, Note_on_c, 0, 43, 92
1, 120181, Note_on_c, 0, 40, 80
1, 120185, Note_on_c, 0, 52, 97
1, 120185, Note_on_c, 0, 64, 92
1, 120211, Note_off_c, 0, 40, 62
1, 120229, Note_off_c, 0, 43, 60
1, 120279, Note_on_c, 0, 59, 75
1, 120279, Note_off_c, 0, 52, 60
1, 120298, Note_on_c, 0, 56, 72
1, 120298, Note_on_c, 0, 41, 69
1, 120306, Note_on_c, 0, 45, 54
1, 120320, Note_on_c, 0, 44, 40
1, 120342, Note_off_c, 0, 45, 63
1, 120342, Note_off_c, 0, 59, 62
1, 120349, Note_off_c, 0, 56, 53
1, 120354, Note_off_c, 0, 41, 57
1, 120357, Note_off_c, 0, 44, 58
1, 120367, Note_on_c, 0, 52, 86
1, 120411, Note_on_c, 0, 45, 98
1, 120415, Note_on_c, 0, 42, 76
1, 120439, Note_on_c, 0, 59, 75
1, 120441, Note_off_c, 0, 52, 62
1, 120447, Note_on_c, 0, 56, 81
1, 120450, Control_c, 0, 64, 113
1, 120451, Note_off_c, 0, 45, 52
1, 120452, Note_off_c, 0, 42, 65
1, 120465, Control_c, 0, 64, 75
1, 120477, Note_off_c, 0, 59, 59
1, 120480, Control_c, 0, 64, 53
1, 120490, Note_off_c, 0, 56, 52
1, 120494, Control_c, 0, 64, 0
1, 120507, Note_on_c, 0, 52, 83
1, 120516, Note_on_c, 0, 46, 87
1, 120528, Note_on_c, 0, 43, 65
1, 120562, Note_off_c, 0, 43, 61
1, 120573, Note_off_c, 0, 46, 64
1, 120576, Note_on_c, 0, 59, 72
1, 120576, Note_off_c, 0, 52, 62
1, 120582, Note_on_c, 0, 56, 72
1, 120616, Note_off_c, 0, 59, 62
1, 120619, Note_off_c, 0, 56, 58
1, 120638, Note_on_c, 0, 47, 102
1, 120646, Note_on_c, 0, 52, 82
1, 120649, Note_on_c, 0, 44, 79
1, 120657, Control_c, 0, 64, 70
1, 120659, Note_off_c, 0, 47, 69
1, 120672, Control_c, 0, 64, 127
1, 120687, Note_off_c, 0, 44, 63
1, 120700, Note_off_c, 0, 52, 62
1, 120702, Note_on_c, 0, 59, 63
1, 120709, Note_on_c, 0, 56, 75
1, 120736, Note_off_c, 0, 59, 64
1, 120744, Note_off_c, 0, 56, 56
1, 120763, Note_on_c, 0, 52, 71
1, 120814, Note_off_c, 0, 52, 60
1, 120823, Note_on_c, 0, 59, 50
1, 120844, Note_on_c, 0, 56, 43
1, 120855, Note_off_c, 0, 59, 64
1, 120865, Note_off_c, 0, 56, 59
1, 120881, Note_on_c, 0, 52, 61
1, 120909, Note_off_c, 0, 52, 68
1, 120918, Note_off_c, 0, 64, 33
1, 120936, Note_on_c, 0, 56, 53
1, 120960, Note_off_c, 0, 56, 58
1, 120996, Poly_aftertouch_c, 0, 59, 0
1, 121021, Note_on_c, 0, 50, 97
1, 121021, Note_on_c, 0, 62, 90
1, 121023, Poly_aftertouch_c, 0, 59, 0
1, 121041, Note_off_c, 0, 50, 68
1, 121044, Note_off_c, 0, 62, 63
1, 121113, Note_on_c, 0, 45, 102
1, 121113, Note_on_c, 0, 60, 77
1, 121121, Note_on_c, 0, 48, 103
1, 121134, Note_on_c, 0, 50, 70
1, 121152, Note_off_c, 0, 50, 41
1, 121184, Control_c, 0, 64, 93
1, 121199, Control_c, 0, 64, 59
1, 121214, Control_c, 0, 64, 0
1, 121229, Note_off_c, 0, 48, 56
1, 121258, Control_c, 0, 64, 42
1, 121273, Control_c, 0, 64, 70
1, 121286, Note_on_c, 0, 52, 69
1, 121288, Control_c, 0, 64, 101
1, 121301, Note_off_c, 0, 45, 63
1, 121303, Control_c, 0, 64, 127
1, 121317, Note_off_c, 0, 60, 52
1, 121333, Note_on_c, 0, 44, 71
1, 121336, Note_on_c, 0, 47, 78
1, 121347, Note_off_c, 0, 52, 60
1, 121353, Note_on_c, 0, 48, 69
1, 121384, Note_off_c, 0, 44, 59
1, 121386, Note_off_c, 0, 48, 66
1, 121390, Note_off_c, 0, 47, 62
1, 121425, Note_on_c, 0, 52, 69
1, 121428, Note_on_c, 0, 46, 79
1, 121431, Note_on_c, 0, 43, 65
1, 121458, Note_off_c, 0, 46, 67
1, 121462, Note_off_c, 0, 43, 63
1, 121465, Note_off_c, 0, 52, 63
1, 121474, Note_on_c, 0, 48, 64
1, 121506, Note_off_c, 0, 48, 65
1, 121506, Note_on_c, 0, 45, 91
1, 121515, Note_on_c, 0, 42, 73
1, 121516, Note_on_c, 0, 52, 69
1, 121549, Note_off_c, 0, 42, 65
1, 121554, Note_off_c, 0, 45, 63
1, 121554, Note_off_c, 0, 52, 61
1, 121571, Note_on_c, 0, 48, 69
1, 121598, Note_on_c, 0, 44, 78
1, 121599, Note_off_c, 0, 48, 68
1, 121600, Note_on_c, 0, 41, 70
1, 121608, Note_on_c, 0, 52, 70
1, 121614, Control_c, 0, 64, 105
1, 121629, Control_c, 0, 64, 69
1, 121640, Note_off_c, 0, 41, 61
1, 121643, Control_c, 0, 64, 0
1, 121646, Note_off_c, 0, 44, 62
1, 121661, Note_off_c, 0, 52, 61
1, 121669, Note_on_c, 0, 48, 68
1, 121680, Note_on_c, 0, 43, 87
1, 121688, Control_c, 0, 64, 51
1, 121694, Note_on_c, 0, 40, 59
1, 121697, Note_off_c, 0, 48, 65
1, 121702, Control_c, 0, 64, 71
1, 121716, Note_on_c, 0, 52, 60
1, 121717, Control_c, 0, 64, 95
1, 121740, Control_c, 0, 64, 127
1, 121754, Note_off_c, 0, 40, 52
1, 121774, Note_off_c, 0, 52, 61
1, 121777, Note_on_c, 0, 42, 81
1, 121781, Note_on_c, 0, 48, 69
1, 121783, Note_on_c, 0, 39, 72
1, 121816, Note_off_c, 0, 48, 64
1, 121825, Note_off_c, 0, 39, 60
1, 121826, Note_off_c, 0, 43, 25
1, 121828, Note_off_c, 0, 42, 62
1, 121828, Note_on_c, 0, 52, 61
1, 121866, Note_on_c, 0, 41, 87
1, 121873, Note_on_c, 0, 38, 68
1, 121884, Note_off_c, 0, 52, 61
1, 121887, Note_on_c, 0, 48, 68
1, 121904, Note_off_c, 0, 41, 61
1, 121905, Note_off_c, 0, 38, 63
1, 121917, Note_off_c, 0, 48, 65
1, 121930, Note_on_c, 0, 52, 63
1, 121953, Note_on_c, 0, 40, 93
1, 121987, Note_on_c, 0, 37, 51
1, 121988, Note_off_c, 0, 52, 62
1, 121995, Note_on_c, 0, 48, 63
1, 122008, Note_off_c, 0, 40, 60
1, 122021, Note_off_c, 0, 37, 52
1, 122024, Note_off_c, 0, 48, 63
1, 122040, Note_on_c, 0, 52, 67
1, 122053, Note_on_c, 0, 36, 76
1, 122053, Note_on_c, 0, 39, 82
1, 122088, Note_off_c, 0, 36, 65
1, 122096, Note_off_c, 0, 52, 62
1, 122096, Control_c, 0, 64, 100
1, 122100, Note_off_c, 0, 39, 57
1, 122105, Note_on_c, 0, 48, 68
1, 122111, Control_c, 0, 64, 77
1, 122126, Control_c, 0, 64, 61
1, 122141, Note_off_c, 0, 48, 65
1, 122141, Control_c, 0, 64, 0
1, 122147, Note_on_c, 0, 38, 86
1, 122147, Note_on_c, 0, 52, 63
1, 122208, Note_off_c, 0, 52, 62
1, 122218, Note_on_c, 0, 48, 68
1, 122218, Note_off_c, 0, 38, 60
1, 122220, Note_on_c, 0, 37, 78
1, 122254, Note_off_c, 0, 37, 64
1, 122258, Note_off_c, 0, 48, 64
1, 122260, Poly_aftertouch_c, 0, 33, 127
1, 122263, Note_on_c, 0, 52, 63
1, 122290, Poly_aftertouch_c, 0, 33, 0
1, 122307, Note_on_c, 0, 36, 31
1, 122309, Note_on_c, 0, 33, 40
1, 122320, Note_off_c, 0, 52, 61
1, 122333, Note_on_c, 0, 48, 61
1, 122344, Note_off_c, 0, 33, 64
1, 122346, Control_c, 0, 64, 53
1, 122355, Note_off_c, 0, 36, 62
1, 122361, Control_c, 0, 64, 80
1, 122370, Note_off_c, 0, 48, 65
1, 122376, Control_c, 0, 64, 127
1, 122382, Note_on_c, 0, 52, 55
1, 122432, Note_off_c, 0, 52, 60
1, 122455, Note_on_c, 0, 48, 58
1, 122494, Note_off_c, 0, 48, 66
1, 122522, Note_on_c, 0, 52, 46
1, 122564, Note_off_c, 0, 52, 60
1, 122576, Note_on_c, 0, 48, 54
1, 122607, Note_off_c, 0, 48, 65
1, 122637, Note_on_c, 0, 52, 56
1, 122653, Note_on_c, 0, 69, 85
1, 122658, Note_on_c, 0, 57, 69
1, 122668, Note_off_c, 0, 52, 65
1, 122673, Note_off_c, 0, 69, 71
1, 122676, Note_off_c, 0, 57, 63
1, 122677, Note_on_c, 0, 48, 64
1, 122710, Note_off_c, 0, 48, 63
1, 122716, Note_on_c, 0, 69, 96
1, 122734, Note_on_c, 0, 52, 72
1, 122736, Note_on_c, 0, 57, 71
1, 122750, Note_off_c, 0, 69, 66
1, 122752, Note_off_c, 0, 57, 68
1, 122766, Note_off_c, 0, 52, 66
1, 122795, Note_on_c, 0, 48, 59
1, 122815, Note_off_c, 0, 48, 66
1, 122846, Note_on_c, 0, 52, 62
1, 122871, Note_off_c, 0, 52, 67
1, 122915, Note_on_c, 0, 47, 38
1, 122915, Note_on_c, 0, 48, 29
1, 122948, Note_off_c, 0, 47, 50
1, 122949, Note_off_c, 0, 48, 48
1, 122965, Note_on_c, 0, 52, 44
1, 122987, Note_off_c, 0, 52, 60
1, 123021, Control_c, 0, 64, 86
1, 123025, Note_on_c, 0, 48, 45
1, 123036, Control_c, 0, 64, 63
1, 123049, Note_off_c, 0, 48, 60
1, 123051, Control_c, 0, 64, 0
1, 123064, Note_on_c, 0, 52, 51
1, 123075, Note_on_c, 0, 57, 69
1, 123082, Control_c, 0, 64, 54
1, 123089, Note_on_c, 0, 45, 58
1, 123095, Note_off_c, 0, 52, 62
1, 123096, Control_c, 0, 64, 71
1, 123102, Note_off_c, 0, 57, 65
1, 123111, Control_c, 0, 64, 87
1, 123115, Note_off_c, 0, 45, 62
1, 123124, Note_on_c, 0, 48, 52
1, 123126, Control_c, 0, 64, 127
1, 123152, Note_off_c, 0, 48, 57
1, 123171, Note_on_c, 0, 52, 49
1, 123209, Note_off_c, 0, 52, 48
1, 123217, Note_on_c, 0, 48, 58
1, 123262, Note_off_c, 0, 48, 61
1, 123281, Control_c, 0, 64, 98
1, 123290, Note_on_c, 0, 52, 18
1, 123296, Control_c, 0, 64, 73
1, 123311, Control_c, 0, 64, 55
1, 123314, Note_on_c, 0, 36, 40
1, 123319, Note_off_c, 0, 52, 45
1, 123326, Control_c, 0, 64, 0
1, 123379, Note_off_c, 0, 36, 50
1, 123387, Note_on_c, 0, 40, 36
1, 123400, Control_c, 0, 64, 54
1, 123414, Control_c, 0, 64, 67
1, 123422, Note_on_c, 0, 48, 27
1, 123429, Control_c, 0, 64, 77
1, 123436, Note_off_c, 0, 40, 59
1, 123444, Control_c, 0, 64, 95
1, 123459, Control_c, 0, 64, 127
1, 123476, Note_off_c, 0, 48, 54
1, 123503, Note_on_c, 0, 45, 39
1, 123503, Note_on_c, 0, 52, 14
1, 123545, Note_on_c, 0, 57, 49
1, 123548, Note_off_c, 0, 52, 51
1, 123572, Note_off_c, 0, 57, 59
1, 123652, Note_off_c, 0, 45, 35
1, 123725, Note_on_c, 0, 46, 35
1, 123765, Note_on_c, 0, 58, 43
1, 123770, Note_off_c, 0, 46, 50
1, 123793, Note_off_c, 0, 58, 58
1, 123795, Note_on_c, 0, 47, 43
1, 123841, Note_off_c, 0, 47, 51
1, 123850, Note_on_c, 0, 59, 45
1, 123870, Note_on_c, 0, 48, 45
1, 123884, Note_off_c, 0, 59, 63
1, 123898, Note_on_c, 0, 60, 67
1, 123905, Note_off_c, 0, 48, 58
1, 123926, Note_on_c, 0, 49, 54
1, 123934, Note_off_c, 0, 60, 62
1, 123947, Note_on_c, 0, 61, 58
1, 123959, Note_off_c, 0, 49, 64
1, 123969, Note_off_c, 0, 61, 60
1, 123988, Note_on_c, 0, 50, 62
1, 123999, Note_on_c, 0, 62, 77
1, 124027, Note_off_c, 0, 50, 59
1, 124040, Note_on_c, 0, 51, 76
1, 124049, Note_on_c, 0, 63, 83
1, 124050, Note_off_c, 0, 62, 58
1, 124080, Note_off_c, 0, 63, 63
1, 124091, Note_off_c, 0, 51, 44
1, 124100, Note_on_c, 0, 52, 80
1, 124110, Note_on_c, 0, 64, 81
1, 124159, Note_on_c, 0, 53, 85
1, 124160, Note_on_c, 0, 65, 89
1, 124183, Note_off_c, 0, 64, 62
1, 124198, Note_on_c, 0, 66, 79
1, 124219, Note_off_c, 0, 65, 63
1, 124221, Note_on_c, 0, 54, 83
1, 124221, Note_off_c, 0, 66, 59
1, 124240, Note_off_c, 0, 53, 59
1, 124251, Note_off_c, 0, 52, 34
1, 124256, Note_on_c, 0, 67, 78
1, 124274, Note_off_c, 0, 54, 63
1, 124278, Note_on_c, 0, 55, 78
1, 124311, Note_off_c, 0, 67, 62
1, 124314, Note_on_c, 0, 68, 86
1, 124341, Note_off_c, 0, 68, 64
1, 124347, Note_on_c, 0, 56, 77
1, 124348, Note_off_c, 0, 55, 62
1, 124376, Note_off_c, 0, 56, 63
1, 124401, Control_c, 0, 64, 102
1, 124416, Control_c, 0, 64, 73
1, 124431, Control_c, 0, 64, 48
1, 124446, Control_c, 0, 64, 0
1, 124466, Note_on_c, 0, 57, 52
1, 124469, Note_on_c, 0, 81, 71
1, 124472, Note_on_c, 0, 69, 62
1, 124488, Note_on_c, 0, 48, 27
1, 124490, Note_off_c, 0, 57, 60
1, 124490, Note_off_c, 0, 69, 63
1, 124491, Note_off_c, 0, 81, 66
1, 124507, Note_on_c, 0, 52, 3
1, 124554, Note_on_c, 0, 81, 69
1, 124561, Note_off_c, 0, 48, 0
1, 124561, Note_on_c, 0, 48, 10
1, 124564, Control_c, 0, 64, 34
1, 124574, Note_on_c, 0, 69, 51
1, 124579, Note_off_c, 0, 81, 65
1, 124579, Control_c, 0, 64, 56
1, 124582, Note_on_c, 0, 57, 46
1, 124594, Control_c, 0, 64, 68
1, 124609, Control_c, 0, 64, 77
1, 124624, Control_c, 0, 64, 94
1, 124628, Note_off_c, 0, 48, 47
1, 124636, Note_off_c, 0, 52, 40
1, 124639, Control_c, 0, 64, 127
1, 124738, Note_off_c, 0, 57, 59
1, 124740, Note_off_c, 0, 69, 58
1, 124749, Note_on_c, 0, 68, 57
1, 124767, Note_on_c, 0, 56, 50
1, 124809, Note_off_c, 0, 68, 51
1, 124816, Note_off_c, 0, 56, 56
1, 124818, Note_on_c, 0, 67, 55
1, 124828, Note_on_c, 0, 55, 48
1, 124866, Note_off_c, 0, 55, 62
1, 124867, Note_on_c, 0, 66, 60
1, 124869, Note_off_c, 0, 67, 56
1, 124870, Note_on_c, 0, 54, 59
1, 124901, Note_off_c, 0, 54, 65
1, 124903, Note_off_c, 0, 66, 61
1, 124917, Note_on_c, 0, 65, 67
1, 124923, Note_on_c, 0, 53, 67
1, 124979, Note_off_c, 0, 65, 61
1, 124979, Note_on_c, 0, 64, 70
1, 124986, Note_on_c, 0, 52, 74
1, 125017, Control_c, 0, 64, 109
1, 125022, Note_on_c, 0, 63, 79
1, 125030, Note_on_c, 0, 51, 75
1, 125032, Control_c, 0, 64, 73
1, 125036, Note_off_c, 0, 53, 30
1, 125039, Note_off_c, 0, 52, 62
1, 125046, Control_c, 0, 64, 46
1, 125054, Note_off_c, 0, 64, 64
1, 125061, Control_c, 0, 64, 0
1, 125076, Note_on_c, 0, 62, 84
1, 125079, Note_off_c, 0, 51, 59
1, 125085, Note_off_c, 0, 63, 63
1, 125088, Note_on_c, 0, 50, 80
1, 125091, Control_c, 0, 64, 62
1, 125106, Control_c, 0, 64, 77
1, 125120, Control_c, 0, 64, 115
1, 125135, Control_c, 0, 64, 127
1, 125143, Note_on_c, 0, 61, 81
1, 125151, Note_on_c, 0, 49, 84
1, 125151, Note_off_c, 0, 50, 64
1, 125156, Note_off_c, 0, 62, 60
1, 125201, Note_on_c, 0, 60, 79
1, 125207, Note_off_c, 0, 49, 63
1, 125228, Note_on_c, 0, 48, 76
1, 125239, Poly_aftertouch_c, 0, 63, 127
1, 125255, Note_off_c, 0, 61, 58
1, 125258, Note_off_c, 0, 60, 64
1, 125263, Note_on_c, 0, 59, 77
1, 125276, Poly_aftertouch_c, 0, 63, 0
1, 125294, Note_off_c, 0, 48, 63
1, 125297, Note_off_c, 0, 59, 62
1, 125301, Note_on_c, 0, 47, 71
1, 125335, Note_off_c, 0, 47, 64
1, 125337, Note_on_c, 0, 46, 78
1, 125339, Note_on_c, 0, 58, 73
1, 125343, Control_c, 0, 64, 90
1, 125358, Control_c, 0, 64, 66
1, 125362, Note_off_c, 0, 46, 66
1, 125373, Control_c, 0, 64, 0
1, 125395, Note_off_c, 0, 58, 63
1, 125454, Note_on_c, 0, 57, 63
1, 125455, Note_on_c, 0, 36, 62
1, 125458, Note_on_c, 0, 45, 52
1, 125464, Note_on_c, 0, 52, 43
1, 125475, Note_off_c, 0, 57, 63
1, 125492, Note_off_c, 0, 45, 57
1, 125495, Note_off_c, 0, 36, 63
1, 125501, Note_off_c, 0, 52, 53
1, 125554, Note_on_c, 0, 58, 51
1, 125572, Note_on_c, 0, 46, 61
1, 125573, Note_on_c, 0, 53, 37
1, 125576, Note_on_c, 0, 57, 43
1, 125612, Note_off_c, 0, 53, 54
1, 125617, Control_c, 0, 64, 43
1, 125632, Control_c, 0, 64, 60
1, 125643, Note_off_c, 0, 57, 40
1, 125647, Poly_aftertouch_c, 0, 38, 127
1, 125647, Control_c, 0, 64, 68
1, 125661, Control_c, 0, 64, 78
1, 125676, Control_c, 0, 64, 96
1, 125688, Note_off_c, 0, 46, 46
1, 125690, Poly_aftertouch_c, 0, 38, 0
1, 125691, Control_c, 0, 64, 127
1, 125695, Note_off_c, 0, 58, 55
1, 125742, Note_on_c, 0, 47, 47
1, 125783, Note_on_c, 0, 59, 30
1, 125797, Note_off_c, 0, 47, 46
1, 125819, Note_off_c, 0, 59, 53
1, 125828, Note_on_c, 0, 48, 51
1, 125832, Note_on_c, 0, 60, 56
1, 125864, Note_off_c, 0, 48, 64
1, 125868, Note_off_c, 0, 60, 64
1, 125893, Note_on_c, 0, 61, 50
1, 125894, Note_on_c, 0, 49, 46
1, 125918, Note_off_c, 0, 61, 59
1, 125925, Note_off_c, 0, 49, 56
1, 125938, Note_on_c, 0, 50, 64
1, 125950, Note_on_c, 0, 62, 62
1, 125976, Note_off_c, 0, 50, 59
1, 125988, Note_off_c, 0, 62, 60
1, 126005, Note_on_c, 0, 63, 72
1, 126015, Note_on_c, 0, 51, 56
1, 126028, Note_off_c, 0, 63, 69
1, 126045, Note_off_c, 0, 51, 63
1, 126067, Note_on_c, 0, 52, 66
1, 126070, Note_on_c, 0, 64, 68
1, 126105, Note_off_c, 0, 52, 49
1, 126125, Note_on_c, 0, 53, 75
1, 126127, Note_on_c, 0, 65, 82
1, 126127, Note_off_c, 0, 64, 61
1, 126162, Note_on_c, 0, 66, 77
1, 126169, Note_off_c, 0, 65, 61
1, 126182, Note_off_c, 0, 53, 62
1, 126184, Note_off_c, 0, 66, 69
1, 126195, Note_on_c, 0, 54, 62
1, 126224, Note_on_c, 0, 67, 80
1, 126233, Note_off_c, 0, 54, 65
1, 126245, Note_on_c, 0, 55, 70
1, 126267, Note_off_c, 0, 67, 58
1, 126277, Note_on_c, 0, 68, 83
1, 126299, Note_off_c, 0, 55, 58
1, 126304, Note_off_c, 0, 68, 64
1, 126308, Note_on_c, 0, 56, 76
1, 126344, Note_off_c, 0, 56, 59
1, 126348, Note_on_c, 0, 69, 77
1, 126383, Note_off_c, 0, 69, 61
1, 126394, Note_on_c, 0, 57, 69
1, 126436, Note_on_c, 0, 81, 96
1, 126437, Note_on_c, 0, 70, 92
1, 126442, Note_on_c, 0, 53, 71
1, 126448, Note_on_c, 0, 50, 50
1, 126455, Note_off_c, 0, 70, 71
1, 126457, Note_off_c, 0, 81, 67
1, 126457, Note_off_c, 0, 57, 63
1, 126470, Control_c, 0, 64, 88
1, 126472, Note_off_c, 0, 53, 66
1, 126473, Note_off_c, 0, 50, 57
1, 126484, Control_c, 0, 64, 58
1, 126499, Control_c, 0, 64, 0
1, 126515, Note_on_c, 0, 81, 101
1, 126516, Note_on_c, 0, 71, 101
1, 126527, Note_on_c, 0, 51, 76
1, 126530, Note_on_c, 0, 59, 82
1, 126534, Note_on_c, 0, 54, 71
1, 126570, Note_off_c, 0, 81, 64
1, 126573, Control_c, 0, 64, 48
1, 126588, Control_c, 0, 64, 69
1, 126603, Control_c, 0, 64, 91
1, 126618, Control_c, 0, 64, 127
1, 126628, Note_off_c, 0, 59, 54
1, 126630, Note_off_c, 0, 51, 52
1, 126684, Note_off_c, 0, 71, 43
1, 126693, Note_off_c, 0, 54, 55
1, 126703, Note_on_c, 0, 70, 64
1, 126704, Note_on_c, 0, 58, 58
1, 126737, Note_off_c, 0, 58, 65
1, 126764, Note_on_c, 0, 69, 71
1, 126776, Note_on_c, 0, 57, 67
1, 126818, Note_on_c, 0, 68, 77
1, 126826, Note_off_c, 0, 57, 58
1, 126826, Note_off_c, 0, 69, 60
1, 126832, Note_off_c, 0, 70, 28
1, 126839, Note_on_c, 0, 56, 72
1, 126863, Note_off_c, 0, 68, 64
1, 126868, Note_on_c, 0, 67, 72
1, 126889, Note_on_c, 0, 55, 73
1, 126891, Note_off_c, 0, 56, 61
1, 126933, Note_on_c, 0, 54, 77
1, 126934, Note_on_c, 0, 66, 77
1, 126937, Note_off_c, 0, 67, 62
1, 126951, Note_off_c, 0, 55, 62
1, 126971, Note_off_c, 0, 54, 61
1, 126997, Note_on_c, 0, 65, 86
1, 127007, Note_on_c, 0, 53, 79
1, 127011, Control_c, 0, 64, 115
1, 127026, Control_c, 0, 64, 74
1, 127041, Control_c, 0, 64, 51
1, 127048, Note_off_c, 0, 66, 48
1, 127056, Note_on_c, 0, 64, 84
1, 127056, Control_c, 0, 64, 0
1, 127059, Note_off_c, 0, 65, 66
1, 127070, Note_on_c, 0, 52, 81
1, 127070, Note_off_c, 0, 53, 62
1, 127071, Control_c, 0, 64, 45
1, 127086, Control_c, 0, 64, 65
1, 127101, Control_c, 0, 64, 82
1, 127110, Note_on_c, 0, 51, 80
1, 127115, Control_c, 0, 64, 127
1, 127119, Note_on_c, 0, 63, 88
1, 127119, Note_off_c, 0, 52, 63
1, 127139, Note_off_c, 0, 64, 56
1, 127153, Note_off_c, 0, 51, 60
1, 127164, Note_on_c, 0, 62, 82
1, 127170, Note_on_c, 0, 50, 82
1, 127220, Note_on_c, 0, 61, 89
1, 127233, Note_on_c, 0, 49, 84
1, 127234, Note_off_c, 0, 50, 62
1, 127256, Note_off_c, 0, 63, 59
1, 127262, Note_off_c, 0, 62, 60
1, 127274, Note_on_c, 0, 60, 82
1, 127281, Note_off_c, 0, 49, 62
1, 127295, Note_off_c, 0, 61, 62
1, 127301, Note_on_c, 0, 48, 76
1, 127307, Note_off_c, 0, 60, 63
1, 127350, Note_off_c, 0, 48, 60
1, 127381, Control_c, 0, 64, 102
1, 127382, Note_on_c, 0, 54, 92
1, 127386, Note_on_c, 0, 47, 82
1, 127387, Note_on_c, 0, 59, 71
1, 127387, Note_on_c, 0, 39, 76
1, 127389, Note_on_c, 0, 57, 73
1, 127396, Control_c, 0, 64, 68
1, 127406, Note_off_c, 0, 54, 67
1, 127411, Control_c, 0, 64, 0
1, 127420, Note_off_c, 0, 39, 64
1, 127420, Note_off_c, 0, 57, 64
1, 127423, Note_off_c, 0, 47, 62
1, 127426, Note_off_c, 0, 59, 63
1, 127471, Note_on_c, 0, 60, 99
1, 127475, Note_on_c, 0, 48, 86
1, 127482, Note_on_c, 0, 40, 66
1, 127482, Note_on_c, 0, 57, 89
1, 127485, Control_c, 0, 64, 51
1, 127497, Note_on_c, 0, 38, 49
1, 127500, Control_c, 0, 64, 77
1, 127515, Control_c, 0, 64, 127
1, 127531, Note_off_c, 0, 38, 56
1, 127535, Note_off_c, 0, 40, 60
1, 127537, Note_off_c, 0, 57, 63
1, 127569, Note_off_c, 0, 60, 58
1, 127621, Note_off_c, 0, 48, 39
1, 127624, Note_on_c, 0, 49, 70
1, 127625, Note_on_c, 0, 61, 71
1, 127652, Note_off_c, 0, 61, 67
1, 127657, Note_off_c, 0, 49, 64
1, 127701, Note_on_c, 0, 50, 72
1, 127705, Note_on_c, 0, 62, 78
1, 127760, Note_off_c, 0, 50, 50
1, 127769, Note_on_c, 0, 51, 75
1, 127775, Note_on_c, 0, 63, 82
1, 127776, Note_off_c, 0, 62, 60
1, 127800, Note_off_c, 0, 51, 63
1, 127815, Note_off_c, 0, 63, 61
1, 127836, Note_on_c, 0, 52, 73
1, 127843, Note_on_c, 0, 64, 83
1, 127885, Note_on_c, 0, 53, 84
1, 127888, Note_off_c, 0, 52, 59
1, 127901, Note_on_c, 0, 65, 91
1, 127924, Note_off_c, 0, 64, 61
1, 127946, Note_on_c, 0, 66, 80
1, 127949, Note_on_c, 0, 54, 83
1, 127951, Note_off_c, 0, 53, 63
1, 127953, Note_off_c, 0, 65, 65
1, 127967, Note_off_c, 0, 66, 70
1, 128000, Note_off_c, 0, 54, 65
1, 128003, Note_on_c, 0, 67, 86
1, 128008, Note_on_c, 0, 55, 80
1, 128063, Note_on_c, 0, 68, 90
1, 128063, Note_off_c, 0, 67, 61
1, 128070, Note_on_c, 0, 56, 84
1, 128074, Note_off_c, 0, 55, 62
1, 128094, Note_off_c, 0, 68, 63
1, 128120, Note_on_c, 0, 69, 80
1, 128120, Note_off_c, 0, 56, 58
1, 128141, Note_on_c, 0, 57, 72
1, 128170, Note_off_c, 0, 69, 62
1, 128174, Note_on_c, 0, 70, 86
1, 128198, Note_off_c, 0, 70, 68
1, 128199, Note_off_c, 0, 57, 57
1, 128201, Note_on_c, 0, 58, 79
1, 128231, Note_on_c, 0, 71, 89
1, 128261, Note_on_c, 0, 59, 71
1, 128269, Note_off_c, 0, 71, 65
1, 128287, Note_off_c, 0, 58, 61
1, 128293, Control_c, 0, 64, 98
1, 128309, Control_c, 0, 64, 67
1, 128312, Note_on_c, 0, 60, 78
1, 128316, Note_on_c, 0, 72, 107
1, 128322, Note_on_c, 0, 81, 94
1, 128324, Control_c, 0, 64, 0
1, 128339, Note_off_c, 0, 81, 69
1, 128344, Note_off_c, 0, 60, 67
1, 128345, Note_on_c, 0, 52, 39
1, 128345, Note_off_c, 0, 59, 62
1, 128346, Note_off_c, 0, 72, 69
1, 128383, Note_off_c, 0, 52, 0
1, 128398, Note_on_c, 0, 52, 55
1, 128398, Note_on_c, 0, 81, 96
1, 128399, Note_on_c, 0, 61, 100
1, 128399, Note_on_c, 0, 73, 98
1, 128408, Note_on_c, 0, 55, 70
1, 128427, Note_on_c, 0, 72, 41
1, 128427, Note_off_c, 0, 72, 127
1, 128458, Control_c, 0, 64, 56
1, 128473, Control_c, 0, 64, 89
1, 128495, Control_c, 0, 64, 127
1, 128499, Note_off_c, 0, 52, 52
1, 128533, Note_off_c, 0, 55, 60
1, 128536, Note_off_c, 0, 61, 57
1, 128537, Note_off_c, 0, 81, 58
1, 128553, Note_on_c, 0, 72, 74
1, 128559, Note_off_c, 0, 73, 59
1, 128570, Note_on_c, 0, 60, 73
1, 128602, Note_off_c, 0, 72, 63
1, 128635, Note_on_c, 0, 59, 77
1, 128636, Note_on_c, 0, 71, 79
1, 128656, Note_off_c, 0, 60, 42
1, 128681, Note_on_c, 0, 58, 79
1, 128689, Note_on_c, 0, 70, 77
1, 128691, Note_off_c, 0, 59, 62
1, 128716, Note_off_c, 0, 71, 62
1, 128740, Note_off_c, 0, 58, 60
1, 128741, Note_on_c, 0, 69, 82
1, 128749, Note_off_c, 0, 70, 62
1, 128755, Note_on_c, 0, 57, 83
1, 128803, Note_on_c, 0, 68, 82
1, 128808, Note_off_c, 0, 69, 61
1, 128818, Note_on_c, 0, 56, 88
1, 128833, Note_off_c, 0, 57, 60
1, 128854, Note_on_c, 0, 67, 84
1, 128862, Note_on_c, 0, 55, 77
1, 128905, Note_off_c, 0, 56, 60
1, 128907, Note_on_c, 0, 54, 79
1, 128919, Note_on_c, 0, 66, 89
1, 128930, Note_off_c, 0, 55, 62
1, 128947, Note_off_c, 0, 68, 32
1, 128950, Note_off_c, 0, 67, 64
1, 128950, Note_off_c, 0, 54, 63
1, 128973, Note_on_c, 0, 65, 87
1, 128975, Note_on_c, 0, 53, 88
1, 128982, Note_off_c, 0, 66, 64
1, 129015, Note_off_c, 0, 65, 64
1, 129042, Note_on_c, 0, 64, 81
1, 129044, Note_on_c, 0, 52, 86
1, 129053, Note_off_c, 0, 53, 59
1, 129083, Note_on_c, 0, 51, 77
1, 129098, Note_on_c, 0, 63, 81
1, 129110, Note_off_c, 0, 52, 60
1, 129125, Note_off_c, 0, 64, 63
1, 129138, Note_off_c, 0, 51, 61
1, 129159, Note_on_c, 0, 50, 82
1, 129162, Note_on_c, 0, 62, 81
1, 129179, Note_off_c, 0, 63, 63
1, 129191, Note_off_c, 0, 50, 64
1, 129210, Note_off_c, 0, 62, 59
1, 129259, Control_c, 0, 64, 91
1, 129274, Note_on_c, 0, 57, 92
1, 129274, Control_c, 0, 64, 64
1, 129280, Note_on_c, 0, 49, 94
1, 129280, Note_on_c, 0, 62, 64
1, 129289, Note_on_c, 0, 40, 73
1, 129289, Control_c, 0, 64, 0
1, 129298, Note_off_c, 0, 57, 62
1, 129305, Note_off_c, 0, 49, 64
1, 129311, Note_off_c, 0, 62, 65
1, 129316, Note_off_c, 0, 40, 66
1, 129372, Note_on_c, 0, 50, 93
1, 129373, Note_on_c, 0, 41, 81
1, 129374, Note_on_c, 0, 62, 99
1, 129378, Note_on_c, 0, 57, 94
1, 129405, Note_on_c, 0, 59, 40
1, 129405, Note_off_c, 0, 59, 127
1, 129411, Note_on_c, 0, 64, 24
1, 129411, Note_off_c, 0, 64, 127
1, 129419, Note_off_c, 0, 41, 62
1, 129422, Control_c, 0, 64, 71
1, 129432, Note_off_c, 0, 57, 61
1, 129436, Control_c, 0, 64, 127
1, 129465, Note_off_c, 0, 62, 59
1, 129510, Note_off_c, 0, 50, 44
1, 129522, Note_on_c, 0, 51, 67
1, 129535, Note_on_c, 0, 63, 73
1, 129559, Note_off_c, 0, 63, 69
1, 129586, Note_off_c, 0, 51, 61
1, 129591, Note_on_c, 0, 52, 70
1, 129592, Note_on_c, 0, 64, 62
1, 129626, Note_off_c, 0, 52, 62
1, 129655, Note_on_c, 0, 53, 70
1, 129661, Note_on_c, 0, 65, 83
1, 129664, Note_off_c, 0, 64, 63
1, 129716, Note_off_c, 0, 53, 56
1, 129717, Note_on_c, 0, 66, 72
1, 129721, Note_off_c, 0, 65, 64
1, 129724, Note_on_c, 0, 54, 74
1, 129746, Note_off_c, 0, 66, 62
1, 129772, Note_on_c, 0, 67, 79
1, 129776, Note_on_c, 0, 55, 77
1, 129783, Note_off_c, 0, 54, 61
1, 129827, Note_on_c, 0, 68, 88
1, 129829, Note_on_c, 0, 56, 87
1, 129840, Note_off_c, 0, 55, 63
1, 129842, Note_off_c, 0, 67, 57
1, 129876, Note_on_c, 0, 69, 82
1, 129892, Note_off_c, 0, 56, 62
1, 129893, Note_on_c, 0, 57, 81
1, 129897, Note_off_c, 0, 68, 62
1, 129921, Note_on_c, 0, 70, 76
1, 129939, Note_off_c, 0, 69, 64
1, 129949, Note_on_c, 0, 58, 81
1, 129949, Note_off_c, 0, 57, 61
1, 129968, Note_off_c, 0, 70, 62
1, 129992, Note_on_c, 0, 71, 82
1, 130013, Note_on_c, 0, 59, 76
1, 130027, Note_off_c, 0, 58, 62
1, 130056, Note_on_c, 0, 72, 86
1, 130066, Note_off_c, 0, 59, 63
1, 130074, Note_on_c, 0, 60, 80
1, 130078, Note_off_c, 0, 71, 62
1, 130114, Note_on_c, 0, 73, 85
1, 130125, Note_off_c, 0, 72, 62
1, 130137, Note_on_c, 0, 61, 81
1, 130137, Note_off_c, 0, 60, 61
1, 130144, Note_off_c, 0, 73, 65
1, 130171, Note_on_c, 0, 74, 83
1, 130183, Note_off_c, 0, 61, 53
1, 130201, Note_on_c, 0, 62, 80
1, 130227, Note_off_c, 0, 74, 62
1, 130229, Note_on_c, 0, 75, 84
1, 130248, Note_on_c, 0, 63, 83
1, 130251, Note_off_c, 0, 75, 69
1, 130252, Note_off_c, 0, 62, 62
1, 130283, Note_on_c, 0, 76, 92
1, 130288, Control_c, 0, 64, 89
1, 130302, Note_on_c, 0, 64, 78
1, 130303, Control_c, 0, 64, 62
1, 130318, Control_c, 0, 64, 0
1, 130320, Note_off_c, 0, 63, 63
1, 130350, Note_on_c, 0, 77, 87
1, 130362, Note_off_c, 0, 64, 63
1, 130362, Control_c, 0, 64, 61
1, 130365, Note_on_c, 0, 65, 85
1, 130373, Note_off_c, 0, 76, 64
1, 130377, Control_c, 0, 64, 77
1, 130392, Control_c, 0, 64, 127
1, 130404, Note_on_c, 0, 78, 91
1, 130422, Note_off_c, 0, 77, 64
1, 130429, Note_off_c, 0, 78, 66
1, 130432, Note_on_c, 0, 66, 79
1, 130457, Note_off_c, 0, 65, 42
1, 130460, Note_on_c, 0, 79, 88
1, 130477, Note_on_c, 0, 67, 78
1, 130509, Note_off_c, 0, 66, 61
1, 130520, Note_on_c, 0, 80, 90
1, 130522, Note_on_c, 0, 68, 89
1, 130539, Note_off_c, 0, 79, 65
1, 130539, Note_off_c, 0, 67, 65
1, 130575, Note_on_c, 0, 81, 87
1, 130579, Note_off_c, 0, 68, 63
1, 130583, Note_on_c, 0, 69, 75
1, 130610, Note_off_c, 0, 80, 62
1, 130616, Note_on_c, 0, 82, 83
1, 130640, Note_off_c, 0, 81, 66
1, 130644, Note_on_c, 0, 70, 81
1, 130649, Note_off_c, 0, 69, 61
1, 130663, Note_off_c, 0, 82, 67
1, 130687, Note_on_c, 0, 83, 87
1, 130688, Note_on_c, 0, 71, 76
1, 130717, Note_off_c, 0, 70, 58
1, 130748, Note_off_c, 0, 71, 63
1, 130758, Note_on_c, 0, 72, 79
1, 130767, Note_on_c, 0, 84, 95
1, 130806, Note_on_c, 0, 73, 83
1, 130809, Note_off_c, 0, 72, 64
1, 130810, Note_off_c, 0, 83, 42
1, 130811, Note_on_c, 0, 85, 86
1, 130839, Note_off_c, 0, 84, 63
1, 130845, Control_c, 0, 64, 78
1, 130860, Control_c, 0, 64, 41
1, 130863, Note_on_c, 0, 74, 106
1, 130863, Note_on_c, 0, 86, 93
1, 130874, Control_c, 0, 64, 0
1, 130889, Note_off_c, 0, 73, 62
1, 130905, Note_off_c, 0, 85, 66
1, 130934, Control_c, 0, 64, 67
1, 130948, Control_c, 0, 64, 100
1, 130963, Control_c, 0, 64, 127
1, 130983, Note_off_c, 0, 74, 58
1, 130988, Note_on_c, 0, 73, 79
1, 130988, Note_on_c, 0, 85, 88
1, 131013, Note_off_c, 0, 86, 60
1, 131048, Note_off_c, 0, 73, 58
1, 131054, Note_on_c, 0, 84, 88
1, 131060, Note_on_c, 0, 72, 62
1, 131080, Note_off_c, 0, 85, 62
1, 131107, Note_on_c, 0, 83, 83
1, 131110, Note_off_c, 0, 84, 62
1, 131116, Note_off_c, 0, 72, 63
1, 131123, Note_on_c, 0, 71, 77
1, 131165, Note_on_c, 0, 70, 75
1, 131170, Note_off_c, 0, 71, 61
1, 131173, Note_on_c, 0, 82, 86
1, 131186, Note_off_c, 0, 83, 55
1, 131192, Note_off_c, 0, 70, 67
1, 131221, Note_on_c, 0, 69, 81
1, 131226, Note_on_c, 0, 81, 86
1, 131280, Note_on_c, 0, 80, 87
1, 131292, Note_on_c, 0, 68, 82
1, 131297, Note_off_c, 0, 69, 59
1, 131301, Note_off_c, 0, 82, 38
1, 131311, Note_off_c, 0, 81, 64
1, 131335, Note_on_c, 0, 67, 71
1, 131338, Note_on_c, 0, 79, 88
1, 131344, Note_off_c, 0, 80, 64
1, 131361, Note_off_c, 0, 68, 62
1, 131386, Note_on_c, 0, 66, 68
1, 131396, Note_off_c, 0, 67, 63
1, 131400, Note_on_c, 0, 78, 84
1, 131405, Note_off_c, 0, 79, 63
1, 131411, Note_off_c, 0, 66, 67
1, 131444, Note_on_c, 0, 65, 81
1, 131458, Note_on_c, 0, 77, 77
1, 131519, Note_on_c, 0, 64, 80
1, 131519, Note_off_c, 0, 65, 62
1, 131519, Poly_aftertouch_c, 0, 80, 0
1, 131522, Note_off_c, 0, 78, 63
1, 131524, Note_on_c, 0, 76, 87
1, 131528, Note_off_c, 0, 77, 66
1, 131566, Note_on_c, 0, 63, 73
1, 131571, Note_off_c, 0, 64, 63
1, 131581, Note_on_c, 0, 75, 86
1, 131590, Note_off_c, 0, 76, 62
1, 131593, Note_off_c, 0, 63, 66
1, 131622, Note_on_c, 0, 62, 81
1, 131635, Note_on_c, 0, 74, 85
1, 131680, Note_on_c, 0, 61, 81
1, 131680, Note_off_c, 0, 62, 63
1, 131683, Note_off_c, 0, 75, 48
1, 131694, Note_on_c, 0, 73, 90
1, 131720, Note_off_c, 0, 61, 59
1, 131727, Note_off_c, 0, 74, 63
1, 131747, Note_on_c, 0, 60, 83
1, 131749, Note_on_c, 0, 72, 86
1, 131760, Note_off_c, 0, 73, 63
1, 131787, Control_c, 0, 64, 110
1, 131802, Control_c, 0, 64, 74
1, 131812, Note_on_c, 0, 71, 84
1, 131817, Control_c, 0, 64, 43
1, 131820, Note_on_c, 0, 59, 75
1, 131820, Note_off_c, 0, 60, 65
1, 131831, Control_c, 0, 64, 0
1, 131866, Note_on_c, 0, 70, 81
1, 131868, Note_on_c, 0, 58, 78
1, 131884, Note_off_c, 0, 72, 28
1, 131886, Note_off_c, 0, 59, 61
1, 131897, Note_off_c, 0, 71, 65
1, 131924, Note_on_c, 0, 69, 83
1, 131926, Note_off_c, 0, 58, 62
1, 131935, Control_c, 0, 64, 65
1, 131936, Note_off_c, 0, 70, 64
1, 131937, Note_on_c, 0, 57, 82
1, 131949, Control_c, 0, 64, 87
1, 131964, Control_c, 0, 64, 127
1, 131990, Note_on_c, 0, 68, 86
1, 131999, Note_off_c, 0, 69, 58
1, 132007, Note_on_c, 0, 56, 83
1, 132017, Note_off_c, 0, 57, 58
1, 132044, Note_on_c, 0, 55, 72
1, 132045, Note_on_c, 0, 67, 81
1, 132083, Note_off_c, 0, 56, 59
1, 132085, Note_on_c, 0, 54, 75
1, 132095, Note_off_c, 0, 55, 61
1, 132105, Note_on_c, 0, 66, 85
1, 132110, Note_off_c, 0, 54, 70
1, 132140, Note_off_c, 0, 68, 58
1, 132146, Note_on_c, 0, 53, 82
1, 132147, Note_off_c, 0, 67, 61
1, 132156, Note_on_c, 0, 65, 79
1, 132162, Note_off_c, 0, 66, 65
1, 132204, Note_off_c, 0, 65, 63
1, 132234, Note_off_c, 0, 53, 59
1, 132235, Note_on_c, 0, 52, 72
1, 132251, Note_on_c, 0, 51, 68
1, 132251, Note_on_c, 0, 64, 72
1, 132264, Note_off_c, 0, 52, 65
1, 132279, Note_off_c, 0, 51, 64
1, 132303, Note_on_c, 0, 63, 83
1, 132323, Note_off_c, 0, 64, 62
1, 132342, Control_c, 0, 64, 120
1, 132348, Note_off_c, 0, 63, 62
1, 132358, Control_c, 0, 64, 67
1, 132371, Note_on_c, 0, 41, 33
1, 132371, Note_on_c, 0, 50, 77
1, 132373, Note_on_c, 0, 43, 52
1, 132373, Control_c, 0, 64, 0
1, 132387, Note_on_c, 0, 62, 103
1, 132401, Note_on_c, 0, 58, 104
1, 132401, Note_off_c, 0, 43, 54
1, 132402, Control_c, 0, 64, 46
1, 132410, Note_off_c, 0, 41, 32
1, 132411, Note_off_c, 0, 50, 61
1, 132417, Control_c, 0, 64, 73
1, 132420, Note_on_c, 0, 51, 42
1, 132420, Note_on_c, 0, 66, 42
1, 132432, Control_c, 0, 64, 127
1, 132436, Note_off_c, 0, 58, 61
1, 132451, Note_off_c, 0, 66, 36
1, 132455, Note_off_c, 0, 51, 32
1, 132470, Note_off_c, 0, 62, 60
1, 132505, Poly_aftertouch_c, 0, 63, 0
1, 132517, Note_on_c, 0, 60, 67
1, 132521, Note_on_c, 0, 63, 42
1, 132569, Note_off_c, 0, 60, 60
1, 132571, Note_on_c, 0, 61, 66
1, 132592, Note_on_c, 0, 64, 52
1, 132605, Note_off_c, 0, 63, 61
1, 132613, Note_off_c, 0, 61, 60
1, 132629, Note_off_c, 0, 64, 63
1, 132631, Note_on_c, 0, 65, 67
1, 132658, Note_on_c, 0, 62, 61
1, 132686, Note_off_c, 0, 65, 62
1, 132702, Note_on_c, 0, 63, 70
1, 132702, Note_on_c, 0, 66, 62
1, 132703, Note_off_c, 0, 62, 58
1, 132744, Note_off_c, 0, 63, 61
1, 132745, Note_on_c, 0, 67, 78
1, 132762, Note_off_c, 0, 66, 62
1, 132813, Note_on_c, 0, 68, 82
1, 132816, Note_off_c, 0, 67, 62
1, 132817, Note_on_c, 0, 65, 73
1, 132854, Note_off_c, 0, 65, 59
1, 132868, Note_on_c, 0, 66, 71
1, 132881, Note_on_c, 0, 69, 77
1, 132893, Note_off_c, 0, 66, 65
1, 132902, Note_off_c, 0, 68, 63
1, 132941, Note_on_c, 0, 67, 79
1, 132949, Note_off_c, 0, 69, 64
1, 132950, Note_on_c, 0, 70, 80
1, 133007, Note_on_c, 0, 68, 79
1, 133007, Note_off_c, 0, 67, 63
1, 133026, Note_on_c, 0, 71, 73
1, 133062, Note_off_c, 0, 70, 63
1, 133066, Note_off_c, 0, 68, 64
1, 133081, Note_on_c, 0, 72, 81
1, 133087, Note_on_c, 0, 69, 76
1, 133098, Note_off_c, 0, 71, 63
1, 133137, Note_off_c, 0, 72, 61
1, 133150, Note_on_c, 0, 73, 75
1, 133153, Note_on_c, 0, 70, 78
1, 133161, Note_off_c, 0, 69, 61
1, 133200, Note_on_c, 0, 74, 80
1, 133203, Note_off_c, 0, 70, 63
1, 133223, Note_off_c, 0, 73, 64
1, 133272, Note_on_c, 0, 72, 77
1, 133272, Note_on_c, 0, 75, 83
1, 133275, Note_off_c, 0, 74, 63
1, 133316, Note_off_c, 0, 72, 62
1, 133324, Note_on_c, 0, 73, 79
1, 133341, Note_on_c, 0, 76, 79
1, 133377, Note_off_c, 0, 73, 63
1, 133377, Note_off_c, 0, 75, 62
1, 133400, Note_on_c, 0, 77, 79
1, 133408, Note_on_c, 0, 74, 76
1, 133414, Note_off_c, 0, 76, 63
1, 133452, Note_off_c, 0, 77, 60
1, 133465, Note_on_c, 0, 78, 77
1, 133465, Note_on_c, 0, 75, 77
1, 133471, Note_off_c, 0, 74, 63
1, 133519, Note_off_c, 0, 75, 64
1, 133523, Note_on_c, 0, 79, 80
1, 133537, Note_off_c, 0, 78, 66
1, 133588, Note_on_c, 0, 77, 71
1, 133591, Note_on_c, 0, 80, 81
1, 133593, Note_off_c, 0, 79, 67
1, 133632, Note_off_c, 0, 77, 63
1, 133643, Note_on_c, 0, 78, 78
1, 133663, Note_on_c, 0, 81, 85
1, 133680, Note_off_c, 0, 78, 58
1, 133682, Note_off_c, 0, 80, 63
1, 133731, Note_on_c, 0, 79, 82
1, 133737, Note_off_c, 0, 81, 65
1, 133741, Note_on_c, 0, 82, 80
1, 133778, Note_off_c, 0, 79, 62
1, 133784, Note_on_c, 0, 80, 81
1, 133802, Note_on_c, 0, 83, 80
1, 133835, Note_off_c, 0, 82, 49
1, 133837, Note_off_c, 0, 80, 64
1, 133856, Note_on_c, 0, 81, 93
1, 133856, Control_c, 0, 64, 124
1, 133866, Note_on_c, 0, 84, 77
1, 133870, Control_c, 0, 64, 69
1, 133877, Note_off_c, 0, 83, 64
1, 133885, Control_c, 0, 64, 0
1, 133926, Note_off_c, 0, 84, 66
1, 133928, Note_on_c, 0, 82, 85
1, 133930, Note_on_c, 0, 85, 79
1, 133936, Note_off_c, 0, 81, 61
1, 133975, Control_c, 0, 64, 42
1, 133980, Note_off_c, 0, 82, 64
1, 133989, Note_on_c, 0, 86, 78
1, 133990, Control_c, 0, 64, 72
1, 133995, Note_off_c, 0, 85, 66
1, 134005, Control_c, 0, 64, 127
1, 134023, Note_on_c, 0, 83, 39
1, 134055, Note_on_c, 0, 87, 92
1, 134063, Note_off_c, 0, 83, 0
1, 134063, Note_on_c, 0, 83, 26
1, 134076, Note_off_c, 0, 86, 63
1, 134081, Note_on_c, 0, 84, 32
1, 134097, Note_on_c, 0, 58, 118
1, 134100, Note_off_c, 0, 83, 61
1, 134101, Note_on_c, 0, 85, 85
1, 134118, Note_off_c, 0, 84, 53
1, 134120, Note_off_c, 0, 58, 70
1, 134130, Note_on_c, 0, 88, 72
1, 134169, Note_off_c, 0, 87, 61
1, 134184, Note_on_c, 0, 89, 92
1, 134186, Note_off_c, 0, 85, 63
1, 134208, Note_on_c, 0, 86, 63
1, 134209, Note_off_c, 0, 88, 65
1, 134249, Note_off_c, 0, 89, 63
1, 134255, Note_on_c, 0, 90, 77
1, 134263, Note_on_c, 0, 87, 82
1, 134275, Note_off_c, 0, 86, 62
1, 134308, Note_on_c, 0, 91, 84
1, 134313, Note_off_c, 0, 87, 64
1, 134336, Note_off_c, 0, 90, 65
1, 134381, Note_on_c, 0, 92, 86
1, 134383, Note_off_c, 0, 91, 64
1, 134389, Note_on_c, 0, 89, 75
1, 134433, Note_on_c, 0, 90, 80
1, 134435, Note_off_c, 0, 89, 62
1, 134452, Note_on_c, 0, 93, 80
1, 134463, Note_on_c, 0, 41, 64
1, 134480, Note_off_c, 0, 90, 57
1, 134485, Control_c, 0, 64, 88
1, 134489, Note_off_c, 0, 92, 64
1, 134500, Control_c, 0, 64, 59
1, 134514, Control_c, 0, 64, 0
1, 134523, Note_on_c, 0, 91, 82
1, 134525, Note_on_c, 0, 48, 70
1, 134537, Note_off_c, 0, 93, 64
1, 134538, Note_off_c, 0, 41, 59
1, 134544, Control_c, 0, 64, 45
1, 134550, Note_on_c, 0, 94, 74
1, 134559, Note_on_c, 0, 45, 21
1, 134559, Control_c, 0, 64, 73
1, 134561, Note_on_c, 0, 51, 81
1, 134574, Control_c, 0, 64, 127
1, 134575, Note_off_c, 0, 91, 66
1, 134579, Note_off_c, 0, 45, 0
1, 134583, Note_on_c, 0, 92, 81
1, 134595, Note_off_c, 0, 48, 63
1, 134604, Poly_aftertouch_c, 0, 45, 0
1, 134615, Note_on_c, 0, 57, 85
1, 134629, Note_off_c, 0, 51, 59
1, 134632, Note_on_c, 0, 95, 39
1, 134637, Note_off_c, 0, 94, 64
1, 134640, Note_off_c, 0, 57, 68
1, 134644, Note_on_c, 0, 96, 77
1, 134645, Note_off_c, 0, 92, 64
1, 134653, Note_on_c, 0, 93, 84
1, 134659, Note_off_c, 0, 95, 55
1, 134709, Note_off_c, 0, 93, 67
1, 134711, Note_on_c, 0, 97, 79
1, 134715, Note_on_c, 0, 94, 77
1, 134717, Note_off_c, 0, 96, 66
1, 134783, Note_on_c, 0, 98, 84
1, 134783, Note_on_c, 0, 95, 79
1, 134791, Note_off_c, 0, 94, 66
1, 134792, Note_off_c, 0, 97, 65
1, 134846, Note_on_c, 0, 60, 114
1, 134851, Note_on_c, 0, 99, 90
1, 134855, Note_on_c, 0, 96, 89
1, 134863, Note_off_c, 0, 95, 64
1, 134875, Note_off_c, 0, 98, 65
1, 134926, Note_off_c, 0, 99, 64
1, 134934, Note_off_c, 0, 96, 64
1, 134945, Note_on_c, 0, 95, 67
1, 134946, Note_on_c, 0, 98, 64
1, 134994, Note_on_c, 0, 97, 75
1, 134996, Note_off_c, 0, 95, 66
1, 135001, Note_on_c, 0, 94, 79
1, 135014, Note_off_c, 0, 98, 64
1, 135039, Note_off_c, 0, 97, 64
1, 135042, Note_off_c, 0, 60, 59
1, 135057, Note_off_c, 0, 94, 46
1, 135071, Note_on_c, 0, 93, 70
1, 135077, Note_on_c, 0, 96, 78
1, 135107, Note_off_c, 0, 93, 58
1, 135114, Note_on_c, 0, 95, 73
1, 135135, Note_on_c, 0, 92, 83
1, 135151, Note_on_c, 0, 94, 82
1, 135159, Note_off_c, 0, 96, 65
1, 135170, Note_off_c, 0, 94, 71
1, 135171, Note_off_c, 0, 95, 65
1, 135191, Note_off_c, 0, 92, 55
1, 135234, Note_on_c, 0, 93, 80
1, 135241, Note_on_c, 0, 89, 58
1, 135279, Note_off_c, 0, 89, 50
1, 135287, Note_on_c, 0, 92, 83
1, 135295, Note_on_c, 0, 95, 35
1, 135298, Note_on_c, 0, 90, 79
1, 135309, Note_off_c, 0, 93, 64
1, 135324, Note_off_c, 0, 92, 64
1, 135328, Note_off_c, 0, 90, 58
1, 135329, Note_off_c, 0, 95, 51
1, 135365, Note_on_c, 0, 91, 82
1, 135370, Note_on_c, 0, 88, 74
1, 135416, Note_on_c, 0, 87, 85
1, 135416, Note_on_c, 0, 90, 82
1, 135421, Note_off_c, 0, 88, 65
1, 135433, Note_off_c, 0, 91, 61
1, 135459, Note_off_c, 0, 90, 63
1, 135470, Note_off_c, 0, 87, 64
1, 135492, Note_on_c, 0, 86, 87
1, 135495, Note_on_c, 0, 89, 84
1, 135541, Note_on_c, 0, 88, 77
1, 135553, Note_off_c, 0, 86, 62
1, 135555, Note_on_c, 0, 85, 84
1, 135588, Note_on_c, 0, 87, 78
1, 135593, Note_off_c, 0, 89, 61
1, 135607, Note_off_c, 0, 88, 65
1, 135614, Note_off_c, 0, 85, 66
1, 135629, Note_off_c, 0, 87, 65
1, 135660, Note_on_c, 0, 83, 74
1, 135664, Note_on_c, 0, 86, 85
1, 135721, Note_on_c, 0, 85, 75
1, 135726, Note_on_c, 0, 82, 83
1, 135731, Note_off_c, 0, 86, 62
1, 135780, Note_off_c, 0, 83, 0
1, 135798, Note_off_c, 0, 82, 32
1, 135800, Note_off_c, 0, 85, 62
1, 135804, Note_on_c, 0, 86, 68
1, 135805, Note_on_c, 0, 83, 12
1, 135820, Note_on_c, 0, 81, 53
1, 135852, Note_on_c, 0, 84, 74
1, 135856, Note_off_c, 0, 81, 65
1, 135859, Note_off_c, 0, 83, 0
1, 135871, Note_on_c, 0, 80, 75
1, 135875, Note_on_c, 0, 83, 45
1, 135896, Note_off_c, 0, 86, 63
1, 135906, Note_on_c, 0, 82, 80
1, 135910, Note_off_c, 0, 84, 62
1, 135915, Note_off_c, 0, 83, 48
1, 135929, Note_off_c, 0, 80, 63
1, 135935, Note_off_c, 0, 82, 61
1, 135940, Note_on_c, 0, 79, 53
1, 135975, Note_off_c, 0, 79, 58
1, 135987, Note_on_c, 0, 81, 82
1, 136029, Note_on_c, 0, 83, 45
1, 136038, Note_on_c, 0, 80, 77
1, 136043, Note_on_c, 0, 78, 79
1, 136055, Note_off_c, 0, 81, 61
1, 136055, Note_off_c, 0, 83, 54
1, 136059, Poly_aftertouch_c, 0, 77, 127
1, 136071, Note_off_c, 0, 80, 62
1, 136085, Poly_aftertouch_c, 0, 77, 0
1, 136104, Note_off_c, 0, 78, 52
1, 136118, Note_on_c, 0, 79, 80
1, 136121, Note_on_c, 0, 76, 74
1, 136170, Note_off_c, 0, 76, 66
1, 136175, Note_on_c, 0, 75, 73
1, 136178, Note_on_c, 0, 78, 65
1, 136181, Note_off_c, 0, 79, 64
1, 136207, Note_off_c, 0, 78, 66
1, 136244, Note_off_c, 0, 75, 54
1, 136250, Note_on_c, 0, 77, 79
1, 136252, Note_on_c, 0, 74, 76
1, 136297, Note_on_c, 0, 76, 74
1, 136303, Note_off_c, 0, 74, 63
1, 136309, Control_c, 0, 64, 100
1, 136315, Note_on_c, 0, 73, 78
1, 136323, Control_c, 0, 64, 64
1, 136338, Control_c, 0, 64, 0
1, 136357, Note_on_c, 0, 75, 82
1, 136369, Control_c, 0, 64, 58
1, 136373, Note_off_c, 0, 77, 61
1, 136381, Note_off_c, 0, 76, 64
1, 136383, Control_c, 0, 64, 78
1, 136387, Note_on_c, 0, 51, 113
1, 136392, Note_off_c, 0, 73, 64
1, 136398, Control_c, 0, 64, 127
1, 136404, Note_off_c, 0, 75, 66
1, 136419, Note_off_c, 0, 51, 68
1, 136446, Note_on_c, 0, 74, 80
1, 136452, Note_on_c, 0, 71, 61
1, 136510, Note_on_c, 0, 73, 72
1, 136513, Note_on_c, 0, 70, 81
1, 136517, Note_off_c, 0, 74, 62
1, 136518, Note_off_c, 0, 71, 65
1, 136565, Note_off_c, 0, 73, 60
1, 136566, Note_off_c, 0, 70, 60
1, 136588, Note_on_c, 0, 69, 74
1, 136588, Note_on_c, 0, 72, 78
1, 136643, Note_on_c, 0, 71, 77
1, 136650, Note_off_c, 0, 69, 53
1, 136680, Note_on_c, 0, 68, 72
1, 136698, Note_on_c, 0, 70, 78
1, 136699, Note_off_c, 0, 72, 62
1, 136727, Note_off_c, 0, 71, 65
1, 136739, Note_off_c, 0, 68, 63
1, 136753, Note_off_c, 0, 70, 65
1, 136789, Note_on_c, 0, 69, 78
1, 136808, Note_on_c, 0, 65, 48
1, 136851, Note_off_c, 0, 65, 48
1, 136851, Note_on_c, 0, 68, 86
1, 136873, Note_off_c, 0, 69, 62
1, 136881, Note_on_c, 0, 66, 66
1, 136904, Note_off_c, 0, 68, 66
1, 136941, Note_on_c, 0, 67, 85
1, 136948, Note_on_c, 0, 64, 66
1, 136949, Note_off_c, 0, 66, 57
1, 136992, Note_on_c, 0, 40, 61
1, 137009, Note_on_c, 0, 66, 70
1, 137015, Note_off_c, 0, 64, 62
1, 137024, Note_on_c, 0, 63, 76
1, 137029, Note_off_c, 0, 67, 61
1, 137049, Note_on_c, 0, 45, 68
1, 137066, Note_off_c, 0, 66, 63
1, 137087, Note_off_c, 0, 63, 63
1, 137092, Note_off_c, 0, 40, 55
1, 137102, Note_on_c, 0, 48, 79
1, 137102, Note_on_c, 0, 65, 82
1, 137103, Note_on_c, 0, 62, 69
1, 137153, Note_off_c, 0, 62, 44
1, 137164, Note_on_c, 0, 64, 71
1, 137176, Note_off_c, 0, 45, 57
1, 137183, Note_on_c, 0, 61, 77
1, 137206, Control_c, 0, 64, 112
1, 137207, Note_off_c, 0, 65, 63
1, 137209, Note_on_c, 0, 63, 76
1, 137221, Control_c, 0, 64, 87
1, 137230, Note_off_c, 0, 64, 63
1, 137236, Control_c, 0, 64, 68
1, 137239, Note_off_c, 0, 61, 62
1, 137241, Note_off_c, 0, 63, 60
1, 137242, Note_off_c, 0, 48, 63
1, 137250, Control_c, 0, 64, 0
1, 137260, Note_on_c, 0, 52, 80
1, 137284, Note_on_c, 0, 64, 82
1, 137286, Note_on_c, 0, 57, 92
1, 137293, Note_on_c, 0, 60, 78
1, 137332, Note_off_c, 0, 57, 61
1, 137354, Control_c, 0, 64, 61
1, 137355, Note_off_c, 0, 60, 64
1, 137368, Control_c, 0, 64, 94
1, 137376, Note_off_c, 0, 64, 64
1, 137383, Control_c, 0, 64, 127
1, 137420, Note_off_c, 0, 52, 40
1, 137438, Note_on_c, 0, 53, 68
1, 137454, Note_on_c, 0, 65, 65
1, 137516, Note_off_c, 0, 53, 62
1, 137516, Note_off_c, 0, 65, 64
1, 137518, Note_on_c, 0, 66, 80
1, 137519, Note_on_c, 0, 54, 73
1, 137551, Note_off_c, 0, 54, 65
1, 137551, Note_off_c, 0, 66, 62
1, 137580, Note_on_c, 0, 55, 72
1, 137594, Note_on_c, 0, 67, 75
1, 137633, Note_on_c, 0, 56, 82
1, 137635, Note_off_c, 0, 55, 61
1, 137641, Note_on_c, 0, 68, 85
1, 137642, Note_off_c, 0, 67, 64
1, 137671, Note_off_c, 0, 68, 63
1, 137689, Note_off_c, 0, 56, 57
1, 137701, Note_on_c, 0, 57, 79
1, 137711, Note_on_c, 0, 69, 86
1, 137757, Note_on_c, 0, 58, 82
1, 137757, Note_off_c, 0, 57, 63
1, 137762, Note_on_c, 0, 70, 86
1, 137762, Note_off_c, 0, 69, 65
1, 137799, Note_off_c, 0, 70, 66
1, 137799, Note_off_c, 0, 58, 51
1, 137817, Note_on_c, 0, 59, 77
1, 137832, Note_on_c, 0, 71, 92
1, 137881, Note_on_c, 0, 60, 80
1, 137883, Note_off_c, 0, 59, 62
1, 137888, Note_on_c, 0, 72, 82
1, 137900, Note_off_c, 0, 71, 62
1, 137924, Note_on_c, 0, 73, 85
1, 137931, Note_off_c, 0, 60, 63
1, 137934, Note_off_c, 0, 72, 63
1, 137936, Note_on_c, 0, 61, 73
1, 137958, Note_off_c, 0, 73, 63
1, 137979, Note_off_c, 0, 61, 60
1, 137984, Note_on_c, 0, 62, 76
1, 137990, Note_on_c, 0, 74, 83
1, 138033, Note_on_c, 0, 75, 81
1, 138035, Note_off_c, 0, 74, 64
1, 138037, Note_on_c, 0, 63, 81
1, 138039, Note_off_c, 0, 62, 61
1, 138053, Note_off_c, 0, 75, 72
1, 138059, Control_c, 0, 64, 72
1, 138073, Control_c, 0, 64, 0
1, 138088, Note_on_c, 0, 76, 109
1, 138089, Note_on_c, 0, 64, 108
1, 138113, Note_off_c, 0, 63, 63
1, 138162, Control_c, 0, 64, 61
1, 138177, Control_c, 0, 64, 91
1, 138191, Control_c, 0, 64, 127
1, 138206, Note_off_c, 0, 64, 58
1, 138221, Note_on_c, 0, 63, 74
1, 138224, Note_on_c, 0, 77, 67
1, 138251, Note_off_c, 0, 76, 58
1, 138263, Note_off_c, 0, 63, 54
1, 138267, Note_on_c, 0, 78, 78
1, 138279, Note_off_c, 0, 77, 62
1, 138291, Note_on_c, 0, 62, 75
1, 138312, Note_off_c, 0, 78, 51
1, 138341, Note_on_c, 0, 79, 80
1, 138354, Note_off_c, 0, 62, 60
1, 138363, Note_on_c, 0, 61, 70
1, 138392, Note_off_c, 0, 61, 65
1, 138402, Note_on_c, 0, 80, 76
1, 138421, Note_off_c, 0, 79, 52
1, 138426, Note_on_c, 0, 60, 71
1, 138446, Note_on_c, 0, 81, 80
1, 138482, Note_off_c, 0, 80, 59
1, 138485, Note_off_c, 0, 60, 65
1, 138488, Note_on_c, 0, 59, 72
1, 138488, Note_on_c, 0, 82, 78
1, 138504, Note_off_c, 0, 81, 63
1, 138530, Note_off_c, 0, 82, 65
1, 138535, Note_on_c, 0, 58, 69
1, 138536, Note_off_c, 0, 59, 62
1, 138558, Note_on_c, 0, 83, 80
1, 138577, Note_off_c, 0, 58, 60
1, 138597, Note_on_c, 0, 57, 75
1, 138628, Note_on_c, 0, 84, 86
1, 138639, Note_off_c, 0, 83, 63
1, 138658, Note_off_c, 0, 57, 64
1, 138660, Note_on_c, 0, 56, 80
1, 138664, Note_on_c, 0, 85, 83
1, 138670, Note_off_c, 0, 84, 66
1, 138683, Note_off_c, 0, 85, 73
1, 138702, Note_on_c, 0, 55, 69
1, 138726, Note_on_c, 0, 86, 77
1, 138737, Note_off_c, 0, 56, 57
1, 138751, Note_on_c, 0, 54, 77
1, 138770, Note_off_c, 0, 55, 61
1, 138776, Note_off_c, 0, 86, 65
1, 138784, Note_on_c, 0, 87, 82
1, 138801, Note_off_c, 0, 54, 62
1, 138804, Note_off_c, 0, 87, 72
1, 138824, Note_on_c, 0, 53, 79
1, 138846, Note_on_c, 0, 88, 91
1, 138852, Control_c, 0, 64, 100
1, 138867, Control_c, 0, 64, 68
1, 138882, Control_c, 0, 64, 0
1, 138884, Note_off_c, 0, 53, 64
1, 138888, Note_on_c, 0, 52, 76
1, 138910, Note_on_c, 0, 89, 87
1, 138929, Note_on_c, 0, 51, 73
1, 138936, Note_off_c, 0, 52, 60
1, 138953, Note_off_c, 0, 88, 65
1, 138957, Note_on_c, 0, 90, 84
1, 138974, Note_off_c, 0, 89, 64
1, 138980, Note_off_c, 0, 51, 60
1, 138991, Note_off_c, 0, 90, 67
1, 138993, Control_c, 0, 64, 54
1, 139006, Note_on_c, 0, 50, 76
1, 139008, Control_c, 0, 64, 76
1, 139022, Control_c, 0, 64, 127
1, 139035, Note_on_c, 0, 91, 82
1, 139072, Note_off_c, 0, 50, 61
1, 139073, Note_on_c, 0, 49, 80
1, 139092, Note_on_c, 0, 92, 85
1, 139113, Note_off_c, 0, 91, 56
1, 139116, Note_off_c, 0, 49, 57
1, 139135, Note_on_c, 0, 48, 81
1, 139141, Note_on_c, 0, 93, 81
1, 139172, Note_off_c, 0, 92, 65
1, 139180, Note_on_c, 0, 94, 75
1, 139197, Note_off_c, 0, 48, 65
1, 139199, Note_off_c, 0, 93, 65
1, 139200, Note_on_c, 0, 47, 78
1, 139200, Note_off_c, 0, 94, 70
1, 139233, Note_off_c, 0, 47, 64
1, 139239, Note_on_c, 0, 46, 73
1, 139249, Note_on_c, 0, 95, 86
1, 139269, Note_off_c, 0, 46, 63
1, 139306, Note_on_c, 0, 45, 77
1, 139313, Note_on_c, 0, 96, 83
1, 139316, Note_off_c, 0, 95, 62
1, 139341, Note_on_c, 0, 97, 78
1, 139346, Note_off_c, 0, 45, 61
1, 139355, Note_off_c, 0, 96, 64
1, 139361, Note_on_c, 0, 44, 73
1, 139372, Note_off_c, 0, 97, 65
1, 139404, Note_on_c, 0, 98, 78
1, 139420, Note_on_c, 0, 43, 68
1, 139453, Note_off_c, 0, 44, 59
1, 139453, Note_off_c, 0, 43, 64
1, 139458, Note_on_c, 0, 99, 81
1, 139480, Note_off_c, 0, 98, 60
1, 139482, Note_off_c, 0, 99, 66
1, 139535, Note_on_c, 0, 45, 89
1, 139536, Note_on_c, 0, 48, 94
1, 139537, Note_on_c, 0, 52, 106
1, 139543, Note_on_c, 0, 96, 99
1, 139543, Note_on_c, 0, 100, 104
1, 139545, Note_on_c, 0, 93, 98
1, 139546, Note_on_c, 0, 88, 101
1, 139549, Note_on_c, 0, 40, 75
1, 139551, Note_on_c, 0, 89, 91
1, 139566, Note_on_c, 0, 42, 47
1, 139610, Note_off_c, 0, 42, 49
1, 139616, Control_c, 0, 64, 98
1, 139630, Note_off_c, 0, 89, 29
1, 139630, Control_c, 0, 64, 62
1, 139645, Control_c, 0, 64, 0
1, 139659, Poly_aftertouch_c, 0, 41, 0
1, 139742, Control_c, 0, 64, 54
1, 139757, Control_c, 0, 64, 70
1, 139771, Control_c, 0, 64, 85
1, 139786, Control_c, 0, 64, 127
1, 139827, Note_off_c, 0, 52, 54
1, 139828, Note_off_c, 0, 40, 56
1, 139847, Note_off_c, 0, 100, 61
1, 139847, Note_off_c, 0, 88, 61
1, 139870, Note_off_c, 0, 48, 60
1, 139873, Note_off_c, 0, 96, 61
1, 139878, Note_off_c, 0, 93, 63
1, 139885, Note_off_c, 0, 45, 56
1, 139934, Control_c, 0, 64, 88
1, 139949, Control_c, 0, 64, 67
1, 139959, Note_on_c, 0, 38, 69
1, 139964, Control_c, 0, 64, 40
1, 139978, Control_c, 0, 64, 0
1, 140028, Note_off_c, 0, 38, 61
1, 140035, Note_on_c, 0, 45, 71
1, 140084, Note_on_c, 0, 48, 71
1, 140108, Note_on_c, 0, 53, 101
1, 140109, Note_on_c, 0, 96, 110
1, 140110, Note_on_c, 0, 93, 99
1, 140110, Note_on_c, 0, 89, 108
1, 140110, Note_on_c, 0, 101, 107
1, 140112, Control_c, 0, 64, 53
1, 140127, Control_c, 0, 64, 127
1, 140146, Note_off_c, 0, 45, 60
1, 140153, Note_on_c, 0, 98, 49
1, 140154, Note_on_c, 0, 99, 14
1, 140154, Note_off_c, 0, 99, 127
1, 140187, Note_off_c, 0, 98, 50
1, 140193, Note_off_c, 0, 89, 62
1, 140227, Note_on_c, 0, 45, 15
1, 140288, Note_off_c, 0, 101, 0
1, 140288, Note_on_c, 0, 101, 26
1, 141043, Note_off_c, 0, 101, 27
1, 141263, Note_off_c, 0, 53, 57
1, 141271, Note_off_c, 0, 48, 62
1, 141292, Note_off_c, 0, 45, 40
1, 141294, Note_off_c, 0, 93, 60
1, 141311, Note_off_c, 0, 96, 41
1, 141432, Control_c, 0, 64, 115
1, 141447, Control_c, 0, 64, 95
1, 141461, Control_c, 0, 64, 85
1, 141476, Control_c, 0, 64, 78
1, 141491, Control_c, 0, 64, 73
1, 141506, Control_c, 0, 64, 69
1, 141521, Control_c, 0, 64, 66
1, 141535, Control_c, 0, 64, 64
1, 141550, Control_c, 0, 64, 64
1, 141565, Control_c, 0, 64, 63
1, 141580, Control_c, 0, 64, 63
1, 141609, Control_c, 0, 64, 62
1, 141624, Control_c, 0, 64, 62
1, 141654, Control_c, 0, 64, 61
1, 141669, Control_c, 0, 64, 61
1, 141683, Control_c, 0, 64, 60
1, 141698, Control_c, 0, 64, 59
1, 141713, Control_c, 0, 64, 58
1, 141728, Control_c, 0, 64, 57
1, 141743, Control_c, 0, 64, 56
1, 141758, Control_c, 0, 64, 55
1, 141773, Control_c, 0, 64, 53
1, 141788, Control_c, 0, 64, 51
1, 141803, Control_c, 0, 64, 50
1, 141817, Control_c, 0, 64, 48
1, 141832, Control_c, 0, 64, 46
1, 141847, Control_c, 0, 64, 45
1, 141861, Control_c, 0, 64, 44
1, 141876, Control_c, 0, 64, 42
1, 141891, Control_c, 0, 64, 39
1, 141906, Control_c, 0, 64, 36
1, 141921, Control_c, 0, 64, 0
1, 142270, Control_c, 0, 67, 20
1, 142284, Control_c, 0, 67, 24
1, 142299, Control_c, 0, 67, 29
1, 142314, Control_c, 0, 67, 36
1, 142329, Control_c, 0, 67, 47
1, 142344, Control_c, 0, 67, 60
1, 142358, Control_c, 0, 67, 76
1, 142373, Control_c, 0, 64, 41
1, 142373, Control_c, 0, 67, 91
1, 142388, Control_c, 0, 64, 50
1, 142388, Control_c, 0, 67, 107
1, 142403, Control_c, 0, 64, 57
1, 142403, Control_c, 0, 67, 123
1, 142418, Control_c, 0, 64, 62
1, 142418, Control_c, 0, 67, 127
1, 142432, Control_c, 0, 64, 65
1, 142447, Control_c, 0, 64, 67
1, 142462, Control_c, 0, 64, 70
1, 142476, Control_c, 0, 64, 74
1, 142491, Control_c, 0, 64, 78
1, 142506, Control_c, 0, 64, 82
1, 142521, Control_c, 0, 64, 89
1, 142536, Control_c, 0, 64, 95
1, 142551, Control_c, 0, 64, 104
1, 142566, Control_c, 0, 64, 120
1, 142581, Control_c, 0, 64, 127
1, 143081, Note_on_c, 0, 39, 26
1, 143185, Note_on_c, 0, 47, 16
1, 143234, Note_on_c, 0, 54, 33
1, 143253, Note_off_c, 0, 47, 42
1, 143292, Note_off_c, 0, 54, 41
1, 143293, Note_on_c, 0, 57, 46
1, 143299, Note_off_c, 0, 39, 39
1, 143375, Note_off_c, 0, 57, 48
1, 143383, Note_on_c, 0, 59, 52
1, 143500, Control_c, 0, 67, 122
1, 143514, Control_c, 0, 67, 114
1, 143529, Control_c, 0, 67, 106
1, 143545, Control_c, 0, 67, 99
1, 143560, Control_c, 0, 67, 91
1, 143575, Control_c, 0, 67, 84
1, 143590, Control_c, 0, 67, 79
1, 143605, Control_c, 0, 67, 75
1, 143619, Control_c, 0, 67, 72
1, 143634, Control_c, 0, 67, 70
1, 143649, Control_c, 0, 67, 69
1, 143663, Control_c, 0, 67, 68
1, 143678, Control_c, 0, 67, 67
1, 143693, Control_c, 0, 67, 66
1, 143708, Control_c, 0, 67, 66
1, 143723, Control_c, 0, 67, 65
1, 143752, Control_c, 0, 67, 65
1, 143762, Note_off_c, 0, 59, 37
1, 143767, Note_on_c, 0, 48, 36
1, 143767, Control_c, 0, 67, 64
1, 143782, Control_c, 0, 67, 64
1, 143797, Control_c, 0, 67, 63
1, 143812, Control_c, 0, 67, 62
1, 143827, Control_c, 0, 67, 61
1, 143842, Control_c, 0, 67, 60
1, 143856, Control_c, 0, 67, 60
1, 143886, Control_c, 0, 67, 59
1, 143967, Note_off_c, 0, 48, 39
1, 143976, Note_on_c, 0, 47, 40
1, 144080, Note_off_c, 0, 47, 52
1, 144105, Note_on_c, 0, 48, 42
1, 144109, Control_c, 0, 67, 59
1, 144182, Control_c, 0, 67, 58
1, 144220, Note_off_c, 0, 48, 58
1, 144274, Note_on_c, 0, 47, 34
1, 144427, Note_on_c, 0, 52, 51
1, 144446, Note_off_c, 0, 47, 41
1, 144582, Note_on_c, 0, 50, 56
1, 144629, Note_off_c, 0, 52, 34
1, 144700, Note_off_c, 0, 50, 59
1, 144720, Note_on_c, 0, 48, 53
1, 144813, Note_on_c, 0, 40, 31
1, 144855, Note_off_c, 0, 48, 36
1, 144872, Control_c, 0, 64, 99
1, 144872, Control_c, 0, 67, 59
1, 144876, Note_on_c, 0, 47, 38
1, 144886, Control_c, 0, 64, 81
1, 144901, Control_c, 0, 64, 64
1, 144912, Note_on_c, 0, 52, 37
1, 144916, Control_c, 0, 64, 39
1, 144931, Control_c, 0, 64, 0
1, 144965, Note_on_c, 0, 57, 52
1, 145012, Control_c, 0, 64, 33
1, 145012, Control_c, 0, 67, 57
1, 145021, Note_on_c, 0, 59, 57
1, 145027, Control_c, 0, 64, 53
1, 145027, Control_c, 0, 67, 57
1, 145042, Control_c, 0, 64, 64
1, 145042, Control_c, 0, 67, 55
1, 145057, Control_c, 0, 64, 71
1, 145057, Control_c, 0, 67, 47
1, 145072, Control_c, 0, 64, 80
1, 145072, Control_c, 0, 67, 38
1, 145086, Control_c, 0, 64, 90
1, 145086, Control_c, 0, 67, 30
1, 145101, Control_c, 0, 64, 100
1, 145101, Control_c, 0, 67, 19
1, 145116, Control_c, 0, 64, 127
1, 145116, Control_c, 0, 67, 0
1, 145149, Note_off_c, 0, 47, 42
1, 145195, Note_off_c, 0, 40, 34
1, 145236, Note_off_c, 0, 57, 47
1, 145249, Note_off_c, 0, 59, 48
1, 145278, Note_off_c, 0, 52, 40
1, 145306, Note_on_c, 0, 48, 35
1, 145464, Note_off_c, 0, 48, 36
1, 145467, Note_on_c, 0, 47, 36
1, 145553, Note_off_c, 0, 47, 51
1, 145589, Note_on_c, 0, 48, 42
1, 145757, Note_off_c, 0, 48, 37
1, 145784, Note_on_c, 0, 47, 38
1, 145938, Note_on_c, 0, 52, 40
1, 145952, Note_off_c, 0, 47, 38
1, 146101, Note_on_c, 0, 50, 48
1, 146110, Note_off_c, 0, 52, 37
1, 146253, Note_off_c, 0, 50, 53
1, 146317, Note_on_c, 0, 48, 40
1, 146435, Note_off_c, 0, 48, 34
1, 146458, Note_on_c, 0, 59, 43
1, 146465, Note_on_c, 0, 57, 44
1, 146535, Note_off_c, 0, 57, 47
1, 146538, Note_on_c, 0, 41, 28
1, 146614, Note_off_c, 0, 59, 32
1, 146694, Note_on_c, 0, 47, 26
1, 146703, Control_c, 0, 64, 111
1, 146718, Control_c, 0, 64, 101
1, 146734, Control_c, 0, 64, 91
1, 146748, Control_c, 0, 64, 81
1, 146763, Control_c, 0, 64, 72
1, 146778, Control_c, 0, 64, 63
1, 146793, Control_c, 0, 64, 48
1, 146794, Note_on_c, 0, 59, 37
1, 146808, Control_c, 0, 64, 0
1, 146814, Note_on_c, 0, 50, 13
1, 146835, Note_on_c, 0, 57, 23
1, 146897, Control_c, 0, 64, 40
1, 146912, Control_c, 0, 64, 59
1, 146927, Control_c, 0, 64, 68
1, 146942, Control_c, 0, 64, 76
1, 146956, Control_c, 0, 64, 88
1, 146971, Control_c, 0, 64, 101
1, 146983, Note_off_c, 0, 50, 39
1, 146986, Control_c, 0, 64, 127
1, 147043, Note_off_c, 0, 41, 34
1, 147060, Note_off_c, 0, 57, 41
1, 147064, Note_off_c, 0, 47, 38
1, 147072, Note_off_c, 0, 59, 34
1, 147090, Note_on_c, 0, 48, 41
1, 147277, Note_off_c, 0, 48, 36
1, 147298, Note_on_c, 0, 47, 28
1, 147418, Note_on_c, 0, 48, 40
1, 147422, Note_off_c, 0, 47, 34
1, 147540, Note_off_c, 0, 48, 54
1, 147592, Note_on_c, 0, 47, 41
1, 147750, Note_on_c, 0, 52, 51
1, 147772, Note_off_c, 0, 47, 36
1, 147905, Note_on_c, 0, 50, 61
1, 147938, Note_off_c, 0, 52, 35
1, 148049, Note_on_c, 0, 48, 62
1, 148072, Note_off_c, 0, 50, 51
1, 148211, Note_on_c, 0, 47, 63
1, 148253, Note_off_c, 0, 48, 34
1, 148358, Note_on_c, 0, 52, 67
1, 148363, Note_off_c, 0, 47, 59
1, 148511, Note_on_c, 0, 50, 73
1, 148591, Note_off_c, 0, 52, 37
1, 148630, Note_off_c, 0, 50, 60
1, 148647, Note_on_c, 0, 48, 72
1, 148661, Note_on_c, 0, 41, 38
1, 148757, Control_c, 0, 64, 106
1, 148771, Control_c, 0, 64, 97
1, 148781, Note_on_c, 0, 47, 37
1, 148786, Control_c, 0, 64, 90
1, 148801, Control_c, 0, 64, 81
1, 148816, Control_c, 0, 64, 73
1, 148831, Control_c, 0, 64, 65
1, 148845, Control_c, 0, 64, 55
1, 148860, Control_c, 0, 64, 34
1, 148871, Note_on_c, 0, 51, 43
1, 148875, Control_c, 0, 64, 0
1, 148881, Note_off_c, 0, 48, 38
1, 148890, Note_on_c, 0, 59, 51
1, 148896, Note_on_c, 0, 57, 51
1, 149052, Control_c, 0, 64, 39
1, 149067, Control_c, 0, 64, 60
1, 149082, Control_c, 0, 64, 69
1, 149097, Control_c, 0, 64, 80
1, 149112, Control_c, 0, 64, 95
1, 149118, Note_off_c, 0, 51, 56
1, 149128, Control_c, 0, 64, 122
1, 149130, Note_on_c, 0, 48, 45
1, 149139, Note_off_c, 0, 57, 57
1, 149143, Control_c, 0, 64, 127
1, 149160, Note_off_c, 0, 47, 41
1, 149180, Note_off_c, 0, 59, 38
1, 149190, Note_off_c, 0, 41, 37
1, 149334, Note_off_c, 0, 48, 50
1, 149350, Note_on_c, 0, 47, 42
1, 149590, Note_off_c, 0, 47, 48
1, 149609, Note_on_c, 0, 48, 45
1, 149672, Note_off_c, 0, 48, 56
1, 149847, Control_c, 0, 67, 19
1, 149876, Control_c, 0, 67, 22
1, 149891, Control_c, 0, 67, 24
1, 149922, Control_c, 0, 67, 27
1, 149951, Control_c, 0, 67, 30
1, 149953, Note_on_c, 0, 40, 27
1, 149966, Control_c, 0, 67, 33
1, 149981, Control_c, 0, 67, 38
1, 149996, Control_c, 0, 67, 48
1, 150011, Control_c, 0, 67, 57
1, 150025, Control_c, 0, 64, 112
1, 150025, Control_c, 0, 67, 67
1, 150035, Note_on_c, 0, 44, 34
1, 150040, Control_c, 0, 64, 101
1, 150040, Control_c, 0, 67, 75
1, 150055, Control_c, 0, 64, 92
1, 150055, Control_c, 0, 67, 82
1, 150070, Control_c, 0, 64, 84
1, 150070, Control_c, 0, 67, 88
1, 150085, Control_c, 0, 64, 74
1, 150085, Control_c, 0, 67, 94
1, 150099, Control_c, 0, 64, 64
1, 150099, Control_c, 0, 67, 100
1, 150113, Note_on_c, 0, 47, 27
1, 150114, Control_c, 0, 64, 52
1, 150114, Control_c, 0, 67, 105
1, 150129, Control_c, 0, 64, 0
1, 150129, Control_c, 0, 67, 110
1, 150143, Control_c, 0, 67, 115
1, 150149, Note_on_c, 0, 52, 34
1, 150158, Control_c, 0, 67, 119
1, 150173, Control_c, 0, 67, 123
1, 150188, Control_c, 0, 67, 127
1, 150217, Note_on_c, 0, 56, 39
1, 150289, Note_on_c, 0, 59, 39
1, 150329, Control_c, 0, 64, 48
1, 150344, Control_c, 0, 64, 60
1, 150358, Control_c, 0, 64, 64
1, 150373, Control_c, 0, 64, 67
1, 150388, Control_c, 0, 64, 70
1, 150403, Control_c, 0, 64, 75
1, 150418, Control_c, 0, 64, 81
1, 150432, Control_c, 0, 64, 89
1, 150447, Control_c, 0, 64, 100
1, 150462, Control_c, 0, 64, 127
1, 150504, Note_off_c, 0, 40, 28
1, 150674, Note_off_c, 0, 47, 14
1, 150772, Note_off_c, 0, 44, 29
1, 150856, Note_off_c, 0, 52, 3
1, 150948, Note_off_c, 0, 59, 37
1, 151044, Note_off_c, 0, 56, 28
1, 151432, Control_c, 0, 64, 119
1, 151446, Control_c, 0, 64, 106
1, 151461, Control_c, 0, 64, 97
1, 151476, Control_c, 0, 64, 89
1, 151491, Control_c, 0, 64, 81
1, 151506, Control_c, 0, 64, 74
1, 151523, Control_c, 0, 64, 67
1, 151537, Control_c, 0, 64, 62
1, 151552, Control_c, 0, 64, 58
1, 151567, Control_c, 0, 64, 56
1, 151582, Control_c, 0, 64, 55
1, 151596, Control_c, 0, 64, 54
1, 151611, Control_c, 0, 64, 50
1, 151626, Control_c, 0, 64, 44
1, 151641, Control_c, 0, 64, 39
1, 151656, Control_c, 0, 64, 36
1, 151670, Control_c, 0, 64, 35
1, 151693, Control_c, 0, 64, 0
1, 152137, Control_c, 0, 64, 42
1, 152152, Control_c, 0, 64, 54
1, 152167, Control_c, 0, 64, 60
1, 152182, Control_c, 0, 64, 63
1, 152196, Control_c, 0, 64, 64
1, 152211, Control_c, 0, 64, 67
1, 152226, Control_c, 0, 64, 70
1, 152241, Control_c, 0, 64, 74
1, 152256, Control_c, 0, 64, 79
1, 152270, Control_c, 0, 64, 85
1, 152285, Control_c, 0, 64, 91
1, 152300, Control_c, 0, 64, 98
1, 152316, Control_c, 0, 64, 104
1, 152331, Control_c, 0, 64, 111
1, 152345, Control_c, 0, 64, 115
1, 152360, Control_c, 0, 64, 120
1, 152375, Control_c, 0, 64, 124
1, 152390, Control_c, 0, 64, 127
1, 152489, Note_on_c, 0, 71, 57
1, 152510, Note_on_c, 0, 68, 37
1, 152531, Control_c, 0, 67, 123
1, 152545, Control_c, 0, 67, 109
1, 152549, Note_off_c, 0, 68, 49
1, 152560, Control_c, 0, 67, 90
1, 152575, Control_c, 0, 67, 69
1, 152590, Control_c, 0, 67, 51
1, 152605, Control_c, 0, 67, 35
1, 152619, Control_c, 0, 67, 20
1, 152634, Control_c, 0, 67, 0
1, 152969, Note_on_c, 0, 68, 45
1, 152981, Note_on_c, 0, 64, 19
1, 152990, Control_c, 0, 67, 21
1, 153005, Control_c, 0, 67, 24
1, 153019, Control_c, 0, 67, 28
1, 153034, Control_c, 0, 67, 32
1, 153049, Control_c, 0, 67, 40
1, 153063, Control_c, 0, 64, 119
1, 153063, Control_c, 0, 67, 49
1, 153078, Control_c, 0, 64, 111
1, 153078, Control_c, 0, 67, 60
1, 153093, Control_c, 0, 64, 106
1, 153093, Control_c, 0, 67, 70
1, 153106, Note_off_c, 0, 64, 38
1, 153108, Control_c, 0, 64, 100
1, 153108, Control_c, 0, 67, 77
1, 153124, Control_c, 0, 64, 94
1, 153124, Control_c, 0, 67, 84
1, 153131, Note_off_c, 0, 68, 55
1, 153139, Control_c, 0, 64, 88
1, 153139, Control_c, 0, 67, 89
1, 153149, Note_off_c, 0, 71, 36
1, 153154, Control_c, 0, 64, 83
1, 153154, Control_c, 0, 67, 96
1, 153168, Control_c, 0, 64, 77
1, 153168, Control_c, 0, 67, 101
1, 153190, Control_c, 0, 64, 69
1, 153190, Control_c, 0, 67, 107
1, 153205, Control_c, 0, 64, 63
1, 153205, Control_c, 0, 67, 114
1, 153220, Control_c, 0, 64, 57
1, 153220, Control_c, 0, 67, 120
1, 153235, Control_c, 0, 64, 52
1, 153235, Control_c, 0, 67, 127
1, 153249, Control_c, 0, 64, 46
1, 153264, Control_c, 0, 64, 38
1, 153279, Control_c, 0, 64, 0
1, 153398, Control_c, 0, 64, 33
1, 153413, Control_c, 0, 64, 44
1, 153428, Control_c, 0, 64, 54
1, 153442, Control_c, 0, 64, 60
1, 153457, Control_c, 0, 64, 64
1, 153472, Control_c, 0, 64, 66
1, 153486, Control_c, 0, 64, 69
1, 153501, Control_c, 0, 64, 72
1, 153516, Control_c, 0, 64, 74
1, 153531, Control_c, 0, 64, 77
1, 153546, Control_c, 0, 64, 80
1, 153560, Control_c, 0, 64, 83
1, 153575, Control_c, 0, 64, 88
1, 153590, Control_c, 0, 64, 92
1, 153605, Control_c, 0, 64, 97
1, 153620, Control_c, 0, 64, 101
1, 153634, Control_c, 0, 64, 104
1, 153649, Control_c, 0, 64, 108
1, 153658, Note_on_c, 0, 74, 52
1, 153664, Control_c, 0, 64, 116
1, 153679, Control_c, 0, 64, 127
1, 153681, Note_on_c, 0, 71, 42
1, 153961, Note_off_c, 0, 74, 61
1, 153964, Note_off_c, 0, 71, 42
1, 154535, Note_on_c, 0, 73, 42
1, 154543, Note_on_c, 0, 76, 51
1, 154583, Note_off_c, 0, 73, 59
1, 154591, Control_c, 0, 64, 112
1, 154606, Control_c, 0, 64, 100
1, 154618, Note_off_c, 0, 76, 50
1, 154619, Note_on_c, 0, 74, 53
1, 154621, Note_on_c, 0, 71, 43
1, 154621, Control_c, 0, 64, 88
1, 154636, Control_c, 0, 64, 77
1, 154650, Control_c, 0, 64, 68
1, 154665, Control_c, 0, 64, 58
1, 154676, Note_off_c, 0, 71, 50
1, 154680, Control_c, 0, 64, 45
1, 154700, Note_off_c, 0, 74, 58
1, 154701, Note_on_c, 0, 73, 58
1, 154703, Control_c, 0, 64, 0
1, 154714, Note_on_c, 0, 69, 35
1, 154758, Note_off_c, 0, 69, 51
1, 154786, Note_off_c, 0, 73, 57
1, 154809, Note_on_c, 0, 68, 44
1, 154815, Note_on_c, 0, 71, 46
1, 154955, Control_c, 0, 64, 41
1, 154970, Control_c, 0, 64, 55
1, 154985, Control_c, 0, 64, 60
1, 155000, Control_c, 0, 64, 63
1, 155014, Control_c, 0, 64, 65
1, 155029, Control_c, 0, 64, 68
1, 155033, Note_off_c, 0, 68, 41
1, 155044, Control_c, 0, 64, 71
1, 155059, Control_c, 0, 64, 75
1, 155074, Control_c, 0, 64, 80
1, 155089, Control_c, 0, 64, 84
1, 155104, Control_c, 0, 64, 88
1, 155118, Control_c, 0, 64, 91
1, 155133, Control_c, 0, 64, 94
1, 155148, Control_c, 0, 64, 98
1, 155163, Control_c, 0, 64, 100
1, 155178, Control_c, 0, 64, 103
1, 155193, Control_c, 0, 64, 105
1, 155224, Note_off_c, 0, 71, 34
1, 155237, Control_c, 0, 64, 107
1, 155384, Control_c, 0, 64, 105
1, 155399, Control_c, 0, 64, 103
1, 155414, Control_c, 0, 64, 100
1, 155436, Control_c, 0, 64, 98
1, 155451, Control_c, 0, 64, 96
1, 155465, Control_c, 0, 64, 94
1, 155480, Control_c, 0, 64, 92
1, 155495, Control_c, 0, 64, 90
1, 155511, Control_c, 0, 64, 87
1, 155526, Control_c, 0, 64, 86
1, 155541, Control_c, 0, 64, 84
1, 155556, Control_c, 0, 64, 84
1, 155570, Control_c, 0, 64, 83
1, 155585, Control_c, 0, 64, 82
1, 155600, Control_c, 0, 64, 80
1, 155615, Control_c, 0, 64, 78
1, 155630, Control_c, 0, 64, 76
1, 155644, Control_c, 0, 64, 74
1, 155659, Control_c, 0, 64, 72
1, 155674, Control_c, 0, 64, 69
1, 155688, Control_c, 0, 64, 65
1, 155703, Control_c, 0, 64, 59
1, 155718, Control_c, 0, 64, 50
1, 155733, Control_c, 0, 64, 38
1, 155748, Control_c, 0, 64, 0
1, 155852, Control_c, 0, 64, 37
1, 155867, Control_c, 0, 64, 46
1, 155882, Control_c, 0, 64, 52
1, 155896, Control_c, 0, 64, 59
1, 155911, Control_c, 0, 64, 63
1, 155926, Control_c, 0, 64, 65
1, 155941, Control_c, 0, 64, 68
1, 155956, Control_c, 0, 64, 71
1, 155970, Control_c, 0, 64, 74
1, 155985, Control_c, 0, 64, 77
1, 156000, Control_c, 0, 64, 81
1, 156015, Control_c, 0, 64, 84
1, 156030, Control_c, 0, 64, 88
1, 156044, Control_c, 0, 64, 94
1, 156059, Control_c, 0, 64, 98
1, 156074, Control_c, 0, 64, 104
1, 156088, Control_c, 0, 64, 109
1, 156103, Control_c, 0, 64, 114
1, 156118, Control_c, 0, 64, 120
1, 156133, Control_c, 0, 64, 127
1, 156295, Note_on_c, 0, 74, 43
1, 156344, Note_on_c, 0, 71, 23
1, 156490, Note_off_c, 0, 71, 42
1, 156739, Note_on_c, 0, 71, 42
1, 156765, Note_on_c, 0, 68, 34
1, 156818, Note_off_c, 0, 71, 39
1, 156845, Note_off_c, 0, 68, 39
1, 156864, Note_off_c, 0, 74, 59
1, 156993, Control_c, 0, 64, 109
1, 157008, Control_c, 0, 64, 102
1, 157023, Control_c, 0, 64, 96
1, 157038, Control_c, 0, 64, 91
1, 157053, Control_c, 0, 64, 85
1, 157068, Control_c, 0, 64, 77
1, 157083, Control_c, 0, 64, 70
1, 157098, Control_c, 0, 64, 64
1, 157113, Control_c, 0, 64, 58
1, 157128, Control_c, 0, 64, 54
1, 157142, Control_c, 0, 64, 51
1, 157157, Control_c, 0, 64, 47
1, 157172, Control_c, 0, 64, 40
1, 157187, Control_c, 0, 64, 0
1, 157291, Control_c, 0, 64, 40
1, 157306, Control_c, 0, 64, 48
1, 157321, Control_c, 0, 64, 54
1, 157335, Control_c, 0, 64, 59
1, 157350, Control_c, 0, 64, 62
1, 157365, Control_c, 0, 64, 65
1, 157380, Control_c, 0, 64, 68
1, 157395, Control_c, 0, 64, 71
1, 157409, Control_c, 0, 64, 74
1, 157419, Note_on_c, 0, 78, 42
1, 157424, Control_c, 0, 64, 78
1, 157431, Note_on_c, 0, 74, 33
1, 157439, Control_c, 0, 64, 82
1, 157453, Control_c, 0, 64, 86
1, 157468, Control_c, 0, 64, 91
1, 157483, Control_c, 0, 64, 94
1, 157498, Control_c, 0, 64, 98
1, 157513, Control_c, 0, 64, 102
1, 157528, Control_c, 0, 64, 108
1, 157542, Control_c, 0, 64, 115
1, 157557, Control_c, 0, 64, 127
1, 157655, Note_off_c, 0, 74, 40
1, 157746, Note_off_c, 0, 78, 55
1, 158251, Note_on_c, 0, 80, 54
1, 158275, Note_on_c, 0, 76, 25
1, 158311, Note_off_c, 0, 80, 52
1, 158315, Note_off_c, 0, 76, 41
1, 158326, Note_on_c, 0, 74, 44
1, 158328, Note_on_c, 0, 78, 56
1, 158354, Note_off_c, 0, 74, 58
1, 158357, Note_off_c, 0, 78, 65
1, 158365, Control_c, 0, 64, 120
1, 158380, Control_c, 0, 64, 104
1, 158383, Note_on_c, 0, 73, 52
1, 158392, Note_on_c, 0, 76, 55
1, 158395, Control_c, 0, 64, 91
1, 158409, Control_c, 0, 64, 79
1, 158418, Note_off_c, 0, 76, 56
1, 158424, Control_c, 0, 64, 66
1, 158435, Note_off_c, 0, 73, 59
1, 158447, Control_c, 0, 64, 52
1, 158462, Control_c, 0, 64, 0
1, 158469, Note_on_c, 0, 78, 44
1, 158469, Note_on_c, 0, 83, 57
1, 158472, Note_on_c, 0, 74, 50
1, 158536, Control_c, 0, 64, 38
1, 158551, Control_c, 0, 64, 51
1, 158565, Control_c, 0, 64, 62
1, 158580, Control_c, 0, 64, 66
1, 158595, Control_c, 0, 64, 70
1, 158595, Control_c, 0, 67, 118
1, 158609, Control_c, 0, 64, 75
1, 158609, Control_c, 0, 67, 95
1, 158624, Control_c, 0, 64, 78
1, 158624, Control_c, 0, 67, 70
1, 158639, Control_c, 0, 64, 82
1, 158639, Control_c, 0, 67, 47
1, 158654, Control_c, 0, 64, 86
1, 158654, Control_c, 0, 67, 21
1, 158669, Control_c, 0, 64, 94
1, 158669, Control_c, 0, 67, 0
1, 158684, Control_c, 0, 64, 102
1, 158698, Control_c, 0, 64, 115
1, 158714, Control_c, 0, 64, 127
1, 158825, Note_off_c, 0, 74, 61
1, 158833, Note_off_c, 0, 83, 50
1, 158833, Control_c, 0, 67, 20
1, 158848, Control_c, 0, 67, 25
1, 158862, Control_c, 0, 67, 32
1, 158865, Note_off_c, 0, 78, 57
1, 158877, Control_c, 0, 67, 42
1, 158892, Control_c, 0, 67, 58
1, 158907, Control_c, 0, 67, 76
1, 158922, Control_c, 0, 67, 95
1, 158937, Control_c, 0, 67, 113
1, 158952, Control_c, 0, 67, 127
1, 159249, Note_on_c, 0, 85, 56
1, 159265, Note_on_c, 0, 80, 40
1, 159271, Note_on_c, 0, 76, 35
1, 159304, Note_off_c, 0, 80, 50
1, 159310, Note_off_c, 0, 76, 52
1, 159325, Note_on_c, 0, 78, 41
1, 159340, Note_on_c, 0, 83, 61
1, 159348, Note_on_c, 0, 74, 43
1, 159351, Note_off_c, 0, 78, 57
1, 159359, Note_off_c, 0, 85, 42
1, 159394, Note_off_c, 0, 74, 51
1, 159410, Note_on_c, 0, 81, 64
1, 159417, Note_off_c, 0, 83, 55
1, 159423, Note_on_c, 0, 73, 51
1, 159423, Note_on_c, 0, 76, 45
1, 159455, Note_off_c, 0, 76, 53
1, 159462, Control_c, 0, 64, 114
1, 159477, Control_c, 0, 64, 95
1, 159492, Control_c, 0, 64, 80
1, 159500, Note_off_c, 0, 81, 62
1, 159508, Control_c, 0, 64, 68
1, 159510, Note_off_c, 0, 73, 38
1, 159515, Note_on_c, 0, 86, 57
1, 159523, Control_c, 0, 64, 56
1, 159529, Note_on_c, 0, 80, 49
1, 159537, Control_c, 0, 64, 38
1, 159552, Control_c, 0, 64, 0
1, 159555, Note_on_c, 0, 71, 36
1, 159626, Control_c, 0, 64, 42
1, 159641, Control_c, 0, 64, 52
1, 159655, Control_c, 0, 64, 61
1, 159670, Control_c, 0, 64, 66
1, 159685, Control_c, 0, 64, 69
1, 159700, Control_c, 0, 64, 74
1, 159715, Control_c, 0, 64, 78
1, 159730, Control_c, 0, 64, 84
1, 159745, Control_c, 0, 64, 90
1, 159759, Note_off_c, 0, 86, 49
1, 159760, Control_c, 0, 64, 100
1, 159775, Control_c, 0, 64, 111
1, 159790, Control_c, 0, 64, 127
1, 159824, Note_off_c, 0, 71, 42
1, 159828, Note_off_c, 0, 80, 38
1, 160673, Note_on_c, 0, 73, 35
1, 160695, Note_on_c, 0, 88, 44
1, 160770, Note_off_c, 0, 88, 49
1, 160812, Note_off_c, 0, 73, 32
1, 160871, Note_on_c, 0, 86, 37
1, 160917, Note_on_c, 0, 71, 20
1, 161062, Note_off_c, 0, 86, 33
1, 161081, Note_on_c, 0, 85, 45
1, 161098, Note_off_c, 0, 71, 34
1, 161101, Note_on_c, 0, 69, 26
1, 161178, Note_off_c, 0, 69, 40
1, 161238, Note_off_c, 0, 85, 27
1, 161565, Note_on_c, 0, 90, 42
1, 161572, Note_on_c, 0, 62, 18
1, 161576, Note_on_c, 0, 68, 34
1, 161586, Note_on_c, 0, 83, 34
1, 161664, Control_c, 0, 64, 114
1, 161679, Control_c, 0, 64, 106
1, 161694, Control_c, 0, 64, 100
1, 161709, Control_c, 0, 64, 95
1, 161724, Control_c, 0, 64, 89
1, 161739, Control_c, 0, 64, 82
1, 161753, Control_c, 0, 64, 74
1, 161768, Control_c, 0, 64, 67
1, 161783, Control_c, 0, 64, 63
1, 161798, Control_c, 0, 64, 58
1, 161813, Control_c, 0, 64, 54
1, 161827, Control_c, 0, 64, 51
1, 161842, Control_c, 0, 64, 49
1, 161857, Control_c, 0, 64, 46
1, 161872, Control_c, 0, 64, 43
1, 161887, Control_c, 0, 64, 40
1, 161903, Control_c, 0, 64, 40
1, 161932, Control_c, 0, 64, 41
1, 161947, Control_c, 0, 64, 43
1, 161962, Control_c, 0, 64, 46
1, 161977, Control_c, 0, 64, 52
1, 161992, Control_c, 0, 64, 56
1, 162007, Control_c, 0, 64, 61
1, 162022, Control_c, 0, 64, 64
1, 162037, Control_c, 0, 64, 68
1, 162051, Control_c, 0, 64, 72
1, 162066, Control_c, 0, 64, 76
1, 162081, Control_c, 0, 64, 80
1, 162096, Control_c, 0, 64, 85
1, 162111, Control_c, 0, 64, 89
1, 162125, Control_c, 0, 64, 94
1, 162140, Control_c, 0, 64, 100
1, 162155, Control_c, 0, 64, 106
1, 162177, Control_c, 0, 64, 111
1, 162207, Control_c, 0, 64, 114
1, 162311, Control_c, 0, 64, 116
1, 162326, Control_c, 0, 64, 119
1, 162340, Control_c, 0, 64, 122
1, 162355, Control_c, 0, 64, 124
1, 162356, Note_off_c, 0, 90, 38
1, 162374, Note_off_c, 0, 68, 32
1, 162383, Note_off_c, 0, 83, 25
1, 162414, Control_c, 0, 64, 127
1, 162516, Note_off_c, 0, 62, 31
1, 163341, Control_c, 0, 64, 124
1, 163355, Control_c, 0, 64, 116
1, 163370, Control_c, 0, 64, 111
1, 163385, Control_c, 0, 64, 105
1, 163399, Control_c, 0, 64, 100
1, 163403, Note_on_c, 0, 61, 30
1, 163414, Note_on_c, 0, 89, 45
1, 163414, Control_c, 0, 64, 95
1, 163429, Note_on_c, 0, 68, 18
1, 163429, Control_c, 0, 64, 90
1, 163438, Note_on_c, 0, 83, 20
1, 163444, Control_c, 0, 64, 83
1, 163459, Control_c, 0, 64, 78
1, 163474, Note_off_c, 0, 61, 53
1, 163474, Control_c, 0, 64, 72
1, 163480, Note_off_c, 0, 68, 46
1, 163483, Note_off_c, 0, 83, 48
1, 163489, Control_c, 0, 64, 66
1, 163504, Control_c, 0, 64, 59
1, 163511, Note_off_c, 0, 89, 34
1, 163519, Control_c, 0, 64, 53
1, 163534, Control_c, 0, 64, 49
1, 163563, Control_c, 0, 64, 49
1, 163578, Control_c, 0, 64, 48
1, 163593, Control_c, 0, 64, 47
1, 163608, Control_c, 0, 64, 45
1, 163622, Control_c, 0, 64, 43
1, 163637, Control_c, 0, 64, 42
1, 163652, Control_c, 0, 64, 41
1, 163660, Note_on_c, 0, 61, 39
1, 163674, Control_c, 0, 64, 41
1, 163682, Note_on_c, 0, 89, 47
1, 163689, Control_c, 0, 64, 40
1, 163706, Note_on_c, 0, 68, 24
1, 163709, Note_off_c, 0, 61, 60
1, 163712, Note_off_c, 0, 89, 52
1, 163718, Control_c, 0, 64, 40
1, 163730, Poly_aftertouch_c, 0, 83, 127
1, 163743, Note_off_c, 0, 68, 51
1, 163774, Poly_aftertouch_c, 0, 83, 0
1, 163886, Note_on_c, 0, 83, 54
1, 163888, Note_on_c, 0, 88, 58
1, 163893, Note_on_c, 0, 73, 46
1, 163904, Note_on_c, 0, 67, 32
1, 163923, Note_off_c, 0, 88, 60
1, 163924, Note_off_c, 0, 83, 60
1, 163926, Note_off_c, 0, 73, 53
1, 163939, Note_off_c, 0, 67, 55
1, 164064, Note_on_c, 0, 67, 44
1, 164070, Note_on_c, 0, 88, 66
1, 164075, Note_on_c, 0, 83, 48
1, 164077, Note_on_c, 0, 73, 42
1, 164097, Note_off_c, 0, 83, 55
1, 164102, Note_off_c, 0, 88, 59
1, 164103, Note_off_c, 0, 67, 62
1, 164107, Note_off_c, 0, 73, 53
1, 164148, Control_c, 0, 67, 105
1, 164162, Control_c, 0, 67, 76
1, 164177, Control_c, 0, 67, 50
1, 164192, Control_c, 0, 67, 28
1, 164207, Control_c, 0, 67, 0
1, 164228, Note_on_c, 0, 88, 70
1, 164237, Note_on_c, 0, 82, 63
1, 164249, Note_on_c, 0, 66, 51
1, 164255, Note_on_c, 0, 73, 40
1, 164266, Note_off_c, 0, 82, 61
1, 164267, Note_off_c, 0, 88, 56
1, 164279, Note_off_c, 0, 66, 57
1, 164288, Note_off_c, 0, 73, 52
1, 164396, Note_on_c, 0, 66, 45
1, 164423, Note_on_c, 0, 73, 44
1, 164426, Note_on_c, 0, 88, 76
1, 164431, Note_off_c, 0, 66, 60
1, 164437, Note_on_c, 0, 82, 60
1, 164452, Note_off_c, 0, 73, 59
1, 164455, Note_off_c, 0, 82, 63
1, 164461, Note_off_c, 0, 88, 59
1, 164625, Note_on_c, 0, 72, 46
1, 164646, Note_on_c, 0, 88, 76
1, 164652, Note_on_c, 0, 81, 67
1, 164660, Note_off_c, 0, 72, 64
1, 164673, Note_off_c, 0, 81, 63
1, 164674, Note_on_c, 0, 78, 9
1, 164675, Control_c, 0, 64, 39
1, 164700, Note_off_c, 0, 78, 48
1, 164705, Control_c, 0, 64, 38
1, 164717, Note_off_c, 0, 88, 57
1, 164719, Control_c, 0, 64, 38
1, 164734, Control_c, 0, 64, 37
1, 164775, Note_on_c, 0, 72, 43
1, 164793, Control_c, 0, 64, 38
1, 164808, Control_c, 0, 64, 42
1, 164823, Control_c, 0, 64, 47
1, 164838, Control_c, 0, 64, 54
1, 164852, Control_c, 0, 64, 60
1, 164867, Note_on_c, 0, 78, 39
1, 164867, Control_c, 0, 64, 64
1, 164882, Control_c, 0, 64, 68
1, 164897, Control_c, 0, 64, 73
1, 164912, Control_c, 0, 64, 78
1, 164926, Control_c, 0, 64, 83
1, 164941, Control_c, 0, 64, 91
1, 164949, Note_on_c, 0, 81, 58
1, 164956, Control_c, 0, 64, 102
1, 164970, Control_c, 0, 64, 127
1, 165053, Note_off_c, 0, 72, 32
1, 165085, Note_off_c, 0, 78, 31
1, 165271, Note_on_c, 0, 88, 81
1, 165287, Note_off_c, 0, 81, 57
1, 165438, Control_c, 0, 67, 20
1, 165453, Control_c, 0, 67, 22
1, 165468, Control_c, 0, 67, 25
1, 165483, Control_c, 0, 67, 28
1, 165498, Control_c, 0, 67, 31
1, 165513, Control_c, 0, 67, 35
1, 165527, Control_c, 0, 67, 40
1, 165542, Control_c, 0, 67, 46
1, 165557, Control_c, 0, 67, 54
1, 165572, Control_c, 0, 67, 65
1, 165587, Control_c, 0, 67, 75
1, 165601, Control_c, 0, 67, 83
1, 165616, Control_c, 0, 67, 91
1, 165631, Control_c, 0, 67, 98
1, 165646, Control_c, 0, 67, 104
1, 165661, Control_c, 0, 67, 111
1, 165675, Control_c, 0, 67, 117
1, 165690, Control_c, 0, 67, 120
1, 165705, Control_c, 0, 67, 122
1, 165719, Control_c, 0, 67, 126
1, 166683, Note_on_c, 0, 71, 27
1, 166688, Note_on_c, 0, 78, 23
1, 166716, Note_on_c, 0, 87, 52
1, 166741, Note_on_c, 0, 81, 18
1, 166746, Note_off_c, 0, 88, 37
1, 166789, Note_off_c, 0, 87, 61
1, 166826, Note_off_c, 0, 78, 42
1, 166832, Note_off_c, 0, 81, 39
1, 166843, Note_off_c, 0, 71, 39
1, 167111, Note_on_c, 0, 71, 35
1, 167125, Note_on_c, 0, 86, 46
1, 167126, Note_on_c, 0, 77, 31
1, 167129, Control_c, 0, 64, 103
1, 167137, Note_on_c, 0, 80, 37
1, 167144, Control_c, 0, 64, 83
1, 167159, Control_c, 0, 64, 69
1, 167173, Control_c, 0, 64, 59
1, 167188, Control_c, 0, 64, 55
1, 167203, Control_c, 0, 64, 58
1, 167218, Control_c, 0, 64, 61
1, 167233, Control_c, 0, 64, 65
1, 167248, Control_c, 0, 64, 70
1, 167263, Control_c, 0, 64, 77
1, 167278, Control_c, 0, 64, 85
1, 167292, Control_c, 0, 64, 92
1, 167307, Control_c, 0, 64, 96
1, 167322, Control_c, 0, 64, 101
1, 167334, Note_off_c, 0, 71, 38
1, 167337, Control_c, 0, 64, 104
1, 167340, Note_off_c, 0, 77, 38
1, 167352, Control_c, 0, 64, 108
1, 167366, Control_c, 0, 64, 112
1, 167367, Note_off_c, 0, 86, 28
1, 167381, Control_c, 0, 64, 115
1, 167396, Control_c, 0, 64, 117
1, 167430, Note_on_c, 0, 79, 38
1, 167432, Note_on_c, 0, 76, 16
1, 167433, Note_on_c, 0, 72, 7
1, 167447, Control_c, 0, 64, 122
1, 167462, Control_c, 0, 64, 127
1, 167465, Note_off_c, 0, 80, 42
1, 167476, Note_off_c, 0, 79, 47
1, 167477, Note_off_c, 0, 76, 48
1, 167486, Note_off_c, 0, 72, 51
1, 167567, Control_c, 0, 64, 117
1, 167582, Control_c, 0, 64, 98
1, 167596, Control_c, 0, 64, 82
1, 167602, Note_on_c, 0, 79, 46
1, 167603, Note_on_c, 0, 85, 57
1, 167611, Control_c, 0, 64, 69
1, 167614, Note_on_c, 0, 76, 26
1, 167625, Note_on_c, 0, 70, 31
1, 167626, Control_c, 0, 64, 57
1, 167641, Control_c, 0, 64, 54
1, 167656, Control_c, 0, 64, 57
1, 167671, Control_c, 0, 64, 61
1, 167686, Control_c, 0, 64, 65
1, 167701, Control_c, 0, 64, 71
1, 167715, Control_c, 0, 64, 80
1, 167730, Control_c, 0, 64, 90
1, 167740, Note_off_c, 0, 76, 41
1, 167743, Note_off_c, 0, 70, 36
1, 167745, Control_c, 0, 64, 96
1, 167748, Note_off_c, 0, 79, 61
1, 167760, Note_on_c, 0, 75, 40
1, 167760, Control_c, 0, 64, 100
1, 167769, Note_on_c, 0, 71, 35
1, 167771, Note_off_c, 0, 85, 38
1, 167773, Note_on_c, 0, 78, 51
1, 167775, Control_c, 0, 64, 104
1, 167788, Note_off_c, 0, 75, 58
1, 167790, Control_c, 0, 64, 108
1, 167800, Note_off_c, 0, 71, 49
1, 167805, Note_off_c, 0, 78, 55
1, 167819, Control_c, 0, 64, 110
1, 167864, Control_c, 0, 64, 106
1, 167878, Control_c, 0, 64, 94
1, 167893, Control_c, 0, 64, 79
1, 167908, Control_c, 0, 64, 66
1, 167911, Note_on_c, 0, 74, 43
1, 167918, Note_on_c, 0, 83, 52
1, 167922, Control_c, 0, 64, 53
1, 167928, Note_on_c, 0, 68, 38
1, 167936, Note_on_c, 0, 77, 31
1, 167937, Control_c, 0, 64, 53
1, 167952, Control_c, 0, 64, 56
1, 167967, Control_c, 0, 64, 60
1, 167982, Control_c, 0, 64, 64
1, 167990, Note_off_c, 0, 74, 46
1, 167996, Control_c, 0, 64, 69
1, 167999, Note_off_c, 0, 68, 50
1, 168011, Control_c, 0, 64, 75
1, 168026, Control_c, 0, 64, 82
1, 168035, Note_off_c, 0, 83, 54
1, 168041, Control_c, 0, 64, 86
1, 168049, Note_on_c, 0, 73, 43
1, 168050, Note_on_c, 0, 69, 41
1, 168056, Control_c, 0, 64, 89
1, 168060, Note_off_c, 0, 77, 28
1, 168067, Note_on_c, 0, 76, 49
1, 168070, Control_c, 0, 64, 92
1, 168076, Note_off_c, 0, 69, 59
1, 168082, Note_off_c, 0, 73, 61
1, 168085, Control_c, 0, 64, 95
1, 168100, Note_off_c, 0, 76, 52
1, 168100, Control_c, 0, 64, 98
1, 168196, Control_c, 0, 64, 87
1, 168211, Control_c, 0, 64, 75
1, 168222, Note_on_c, 0, 81, 53
1, 168224, Note_on_c, 0, 72, 41
1, 168226, Control_c, 0, 64, 62
1, 168229, Note_on_c, 0, 76, 40
1, 168236, Note_on_c, 0, 66, 24
1, 168241, Control_c, 0, 64, 51
1, 168256, Control_c, 0, 64, 50
1, 168270, Control_c, 0, 64, 54
1, 168285, Control_c, 0, 64, 58
1, 168301, Control_c, 0, 64, 61
1, 168316, Control_c, 0, 64, 65
1, 168331, Control_c, 0, 64, 72
1, 168345, Control_c, 0, 64, 80
1, 168360, Control_c, 0, 64, 86
1, 168364, Note_off_c, 0, 81, 54
1, 168369, Note_off_c, 0, 76, 49
1, 168371, Note_off_c, 0, 66, 39
1, 168375, Control_c, 0, 64, 88
1, 168376, Note_off_c, 0, 72, 36
1, 168380, Note_on_c, 0, 71, 42
1, 168390, Control_c, 0, 64, 89
1, 168401, Note_on_c, 0, 74, 42
1, 168403, Note_on_c, 0, 67, 17
1, 168405, Control_c, 0, 64, 91
1, 168410, Note_off_c, 0, 71, 58
1, 168419, Control_c, 0, 64, 92
1, 168434, Control_c, 0, 64, 93
1, 168440, Note_off_c, 0, 74, 47
1, 168443, Note_off_c, 0, 67, 42
1, 168449, Control_c, 0, 64, 93
1, 168553, Control_c, 0, 64, 93
1, 168568, Control_c, 0, 64, 90
1, 168583, Control_c, 0, 64, 84
1, 168593, Note_on_c, 0, 64, 39
1, 168598, Control_c, 0, 64, 76
1, 168613, Control_c, 0, 64, 67
1, 168619, Note_on_c, 0, 79, 42
1, 168625, Note_on_c, 0, 70, 32
1, 168627, Control_c, 0, 64, 53
1, 168642, Note_on_c, 0, 74, 22
1, 168642, Control_c, 0, 64, 39
1, 168657, Control_c, 0, 64, 38
1, 168672, Control_c, 0, 64, 41
1, 168686, Control_c, 0, 64, 45
1, 168701, Control_c, 0, 64, 49
1, 168716, Control_c, 0, 64, 55
1, 168731, Control_c, 0, 64, 62
1, 168745, Control_c, 0, 64, 67
1, 168760, Control_c, 0, 64, 72
1, 168770, Note_off_c, 0, 64, 59
1, 168775, Control_c, 0, 64, 77
1, 168790, Control_c, 0, 64, 79
1, 168805, Control_c, 0, 64, 80
1, 168819, Note_on_c, 0, 65, 38
1, 168819, Control_c, 0, 64, 82
1, 168831, Note_on_c, 0, 72, 42
1, 168832, Note_on_c, 0, 69, 27
1, 168834, Control_c, 0, 64, 83
1, 168840, Note_off_c, 0, 70, 40
1, 168849, Control_c, 0, 64, 85
1, 168860, Note_off_c, 0, 79, 30
1, 168864, Control_c, 0, 64, 86
1, 168868, Note_off_c, 0, 65, 45
1, 168879, Control_c, 0, 64, 86
1, 168884, Note_off_c, 0, 72, 55
1, 168895, Note_off_c, 0, 74, 34
1, 168943, Note_off_c, 0, 69, 31
1, 168975, Control_c, 0, 64, 86
1, 168990, Control_c, 0, 64, 83
1, 169005, Control_c, 0, 64, 80
1, 169019, Control_c, 0, 64, 74
1, 169034, Control_c, 0, 64, 69
1, 169049, Control_c, 0, 64, 63
1, 169057, Note_on_c, 0, 62, 32
1, 169064, Control_c, 0, 64, 53
1, 169078, Control_c, 0, 64, 41
1, 169095, Control_c, 0, 64, 0
1, 169168, Control_c, 0, 64, 36
1, 169171, Note_on_c, 0, 69, 35
1, 169183, Control_c, 0, 64, 49
1, 169198, Control_c, 0, 64, 58
1, 169213, Control_c, 0, 64, 64
1, 169228, Control_c, 0, 64, 69
1, 169242, Control_c, 0, 64, 73
1, 169257, Control_c, 0, 64, 78
1, 169268, Note_on_c, 0, 71, 39
1, 169272, Control_c, 0, 64, 82
1, 169287, Control_c, 0, 64, 86
1, 169302, Control_c, 0, 64, 91
1, 169316, Control_c, 0, 64, 98
1, 169331, Control_c, 0, 64, 106
1, 169346, Note_off_c, 0, 62, 32
1, 169346, Control_c, 0, 64, 117
1, 169361, Control_c, 0, 64, 127
1, 169387, Note_off_c, 0, 69, 40
1, 169632, Note_off_c, 0, 71, 0
1, 169677, Poly_aftertouch_c, 0, 71, 127
1, 169706, Note_on_c, 0, 79, 37
1, 169811, Poly_aftertouch_c, 0, 71, 0
1, 169841, Note_off_c, 0, 79, 44
1, 170219, Note_on_c, 0, 77, 37
1, 170229, Control_c, 0, 64, 122
1, 170237, Note_on_c, 0, 62, 28
1, 170244, Control_c, 0, 64, 100
1, 170250, Note_on_c, 0, 69, 21
1, 170250, Note_on_c, 0, 71, 28
1, 170258, Control_c, 0, 64, 87
1, 170273, Control_c, 0, 64, 76
1, 170288, Control_c, 0, 64, 67
1, 170293, Note_off_c, 0, 77, 52
1, 170295, Note_off_c, 0, 71, 46
1, 170296, Note_off_c, 0, 62, 43
1, 170303, Control_c, 0, 64, 58
1, 170314, Note_off_c, 0, 69, 41
1, 170317, Control_c, 0, 64, 43
1, 170332, Control_c, 0, 64, 34
1, 170347, Control_c, 0, 64, 0
1, 170511, Note_on_c, 0, 76, 42
1, 170524, Note_on_c, 0, 64, 23
1, 170527, Note_on_c, 0, 69, 20
1, 170559, Note_off_c, 0, 76, 53
1, 170561, Poly_aftertouch_c, 0, 71, 127
1, 170564, Note_off_c, 0, 64, 50
1, 170581, Note_off_c, 0, 69, 44
1, 170600, Poly_aftertouch_c, 0, 71, 0
1, 170726, Control_c, 0, 64, 39
1, 170740, Control_c, 0, 64, 46
1, 170755, Control_c, 0, 64, 51
1, 170770, Control_c, 0, 64, 57
1, 170785, Control_c, 0, 64, 62
1, 170800, Control_c, 0, 64, 65
1, 170814, Control_c, 0, 64, 68
1, 170829, Control_c, 0, 64, 71
1, 170844, Control_c, 0, 64, 74
1, 170859, Control_c, 0, 64, 76
1, 170873, Control_c, 0, 64, 78
1, 170880, Note_on_c, 0, 65, 24
1, 170888, Control_c, 0, 64, 79
1, 170893, Note_on_c, 0, 74, 32
1, 170895, Note_on_c, 0, 71, 19
1, 170903, Control_c, 0, 64, 79
1, 170910, Note_on_c, 0, 69, 10
1, 170918, Control_c, 0, 64, 80
1, 170956, Note_off_c, 0, 65, 51
1, 170962, Control_c, 0, 64, 79
1, 170964, Note_off_c, 0, 74, 54
1, 170971, Note_off_c, 0, 69, 44
1, 170977, Control_c, 0, 64, 78
1, 170980, Note_off_c, 0, 71, 46
1, 170992, Control_c, 0, 64, 76
1, 171007, Control_c, 0, 64, 72
1, 171022, Control_c, 0, 64, 69
1, 171036, Control_c, 0, 64, 66
1, 171051, Control_c, 0, 64, 62
1, 171066, Control_c, 0, 64, 58
1, 171081, Control_c, 0, 64, 55
1, 171096, Control_c, 0, 64, 54
1, 171207, Control_c, 0, 64, 54
1, 171221, Control_c, 0, 64, 53
1, 171236, Control_c, 0, 64, 52
1, 171251, Control_c, 0, 64, 51
1, 171281, Control_c, 0, 64, 51
1, 171296, Control_c, 0, 64, 50
1, 171311, Control_c, 0, 64, 50
1, 171326, Control_c, 0, 64, 49
1, 171385, Control_c, 0, 64, 50
1, 171845, Control_c, 0, 64, 50
1, 171875, Control_c, 0, 64, 52
1, 171889, Control_c, 0, 64, 55
1, 171904, Control_c, 0, 64, 59
1, 171927, Control_c, 0, 64, 62
1, 171942, Control_c, 0, 64, 65
1, 171957, Control_c, 0, 64, 69
1, 171971, Control_c, 0, 64, 73
1, 171986, Control_c, 0, 64, 79
1, 172001, Control_c, 0, 64, 84
1, 172016, Control_c, 0, 64, 92
1, 172031, Control_c, 0, 64, 101
1, 172045, Control_c, 0, 64, 115
1, 172060, Control_c, 0, 64, 127
1, 172214, Note_on_c, 0, 62, 25
1, 172339, Note_on_c, 0, 69, 30
1, 172459, Note_off_c, 0, 62, 40
1, 172467, Note_on_c, 0, 71, 26
1, 172482, Note_off_c, 0, 69, 40
1, 172565, Control_c, 0, 67, 115
1, 172580, Control_c, 0, 67, 102
1, 172594, Control_c, 0, 67, 89
1, 172609, Control_c, 0, 67, 79
1, 172624, Control_c, 0, 67, 69
1, 172639, Control_c, 0, 67, 61
1, 172654, Control_c, 0, 67, 54
1, 172676, Control_c, 0, 67, 47
1, 172691, Control_c, 0, 67, 42
1, 172706, Control_c, 0, 67, 35
1, 172720, Control_c, 0, 67, 29
1, 172735, Control_c, 0, 67, 21
1, 172750, Control_c, 0, 67, 0
1, 172974, Note_on_c, 0, 80, 44
1, 173171, Note_off_c, 0, 71, 32
1, 173263, Note_off_c, 0, 80, 42
1, 173664, Note_on_c, 0, 69, 23
1, 173671, Note_on_c, 0, 62, 14
1, 173698, Note_on_c, 0, 78, 52
1, 173731, Note_on_c, 0, 71, 31
1, 173861, Note_off_c, 0, 78, 63
1, 173905, Note_off_c, 0, 69, 40
1, 174113, Note_off_c, 0, 71, 0
1, 174121, Control_c, 0, 64, 119
1, 174126, Note_on_c, 0, 76, 69
1, 174134, Note_on_c, 0, 71, 23
1, 174136, Control_c, 0, 64, 89
1, 174144, Note_on_c, 0, 64, 32
1, 174146, Note_on_c, 0, 69, 28
1, 174157, Control_c, 0, 64, 72
1, 174172, Control_c, 0, 64, 62
1, 174187, Control_c, 0, 64, 56
1, 174202, Control_c, 0, 64, 58
1, 174203, Note_off_c, 0, 62, 40
1, 174217, Control_c, 0, 64, 63
1, 174232, Control_c, 0, 64, 68
1, 174247, Control_c, 0, 64, 75
1, 174262, Control_c, 0, 64, 84
1, 174277, Control_c, 0, 64, 91
1, 174291, Control_c, 0, 64, 98
1, 174306, Control_c, 0, 64, 104
1, 174312, Note_off_c, 0, 69, 41
1, 174321, Control_c, 0, 64, 108
1, 174336, Control_c, 0, 64, 113
1, 174350, Note_off_c, 0, 76, 58
1, 174351, Control_c, 0, 64, 120
1, 174365, Control_c, 0, 64, 127
1, 174401, Note_off_c, 0, 71, 40
1, 174469, Control_c, 0, 64, 109
1, 174483, Control_c, 0, 64, 89
1, 174498, Control_c, 0, 64, 72
1, 174509, Note_on_c, 0, 66, 33
1, 174513, Control_c, 0, 64, 63
1, 174528, Control_c, 0, 64, 59
1, 174543, Control_c, 0, 64, 61
1, 174545, Note_on_c, 0, 69, 18
1, 174551, Note_off_c, 0, 64, 46
1, 174557, Control_c, 0, 64, 64
1, 174563, Note_on_c, 0, 74, 64
1, 174572, Control_c, 0, 64, 70
1, 174581, Note_on_c, 0, 71, 53
1, 174587, Control_c, 0, 64, 78
1, 174602, Control_c, 0, 64, 92
1, 174617, Control_c, 0, 64, 105
1, 174622, Note_off_c, 0, 69, 53
1, 174631, Control_c, 0, 64, 127
1, 174662, Note_off_c, 0, 71, 57
1, 174697, Note_off_c, 0, 66, 62
1, 174856, Note_on_c, 0, 66, 59
1, 174988, Note_on_c, 0, 68, 72
1, 175070, Note_off_c, 0, 74, 39
1, 175085, Note_on_c, 0, 71, 78
1, 175307, Control_c, 0, 64, 111
1, 175322, Control_c, 0, 64, 101
1, 175337, Control_c, 0, 64, 94
1, 175352, Control_c, 0, 64, 89
1, 175367, Control_c, 0, 64, 83
1, 175381, Control_c, 0, 64, 78
1, 175394, Note_on_c, 0, 74, 61
1, 175396, Control_c, 0, 64, 71
1, 175411, Control_c, 0, 64, 66
1, 175426, Control_c, 0, 64, 61
1, 175440, Control_c, 0, 64, 56
1, 175455, Control_c, 0, 64, 52
1, 175470, Control_c, 0, 64, 50
1, 175486, Control_c, 0, 64, 48
1, 175501, Control_c, 0, 64, 45
1, 175516, Control_c, 0, 64, 40
1, 175530, Control_c, 0, 64, 34
1, 175545, Control_c, 0, 64, 0
1, 175908, Control_c, 0, 64, 36
1, 175923, Control_c, 0, 64, 50
1, 175937, Control_c, 0, 64, 60
1, 175952, Control_c, 0, 64, 63
1, 175967, Control_c, 0, 64, 65
1, 175982, Control_c, 0, 64, 67
1, 175997, Control_c, 0, 64, 71
1, 176012, Control_c, 0, 64, 75
1, 176026, Control_c, 0, 64, 80
1, 176041, Control_c, 0, 64, 84
1, 176056, Control_c, 0, 64, 89
1, 176071, Control_c, 0, 64, 95
1, 176086, Control_c, 0, 64, 102
1, 176101, Control_c, 0, 64, 127
1, 176426, Note_off_c, 0, 66, 31
1, 176772, Note_on_c, 0, 65, 40
1, 176867, Note_off_c, 0, 74, 40
1, 176870, Note_off_c, 0, 68, 41
1, 176930, Note_off_c, 0, 65, 35
1, 177137, Note_off_c, 0, 71, 9
1, 177171, Note_on_c, 0, 73, 44
1, 177193, Note_on_c, 0, 64, 30
1, 177198, Note_on_c, 0, 68, 36
1, 177258, Control_c, 0, 64, 109
1, 177273, Control_c, 0, 64, 92
1, 177288, Control_c, 0, 64, 78
1, 177303, Control_c, 0, 64, 64
1, 177317, Control_c, 0, 64, 45
1, 177332, Control_c, 0, 64, 0
1, 177407, Control_c, 0, 64, 39
1, 177422, Control_c, 0, 64, 52
1, 177436, Control_c, 0, 64, 63
1, 177451, Control_c, 0, 64, 68
1, 177466, Control_c, 0, 64, 72
1, 177481, Control_c, 0, 64, 77
1, 177496, Control_c, 0, 64, 83
1, 177510, Control_c, 0, 64, 89
1, 177512, Note_off_c, 0, 64, 51
1, 177525, Control_c, 0, 64, 95
1, 177540, Control_c, 0, 64, 102
1, 177550, Note_off_c, 0, 68, 42
1, 177555, Control_c, 0, 64, 110
1, 177570, Control_c, 0, 64, 124
1, 177584, Control_c, 0, 64, 127
1, 177848, Note_on_c, 0, 63, 21
1, 177854, Note_on_c, 0, 68, 29
1, 177858, Note_on_c, 0, 72, 20
1, 177881, Control_c, 0, 64, 122
1, 177903, Control_c, 0, 64, 109
1, 177918, Control_c, 0, 64, 99
1, 177928, Note_off_c, 0, 73, 38
1, 177932, Control_c, 0, 64, 88
1, 177947, Control_c, 0, 64, 78
1, 177962, Control_c, 0, 64, 68
1, 177977, Control_c, 0, 64, 58
1, 177992, Control_c, 0, 64, 38
1, 178006, Control_c, 0, 64, 0
1, 178051, Control_c, 0, 64, 36
1, 178065, Control_c, 0, 64, 41
1, 178080, Control_c, 0, 64, 48
1, 178095, Control_c, 0, 64, 58
1, 178110, Control_c, 0, 64, 64
1, 178125, Control_c, 0, 64, 70
1, 178140, Control_c, 0, 64, 75
1, 178155, Control_c, 0, 64, 79
1, 178170, Control_c, 0, 64, 83
1, 178184, Control_c, 0, 64, 88
1, 178191, Note_off_c, 0, 72, 35
1, 178199, Control_c, 0, 64, 92
1, 178214, Control_c, 0, 64, 97
1, 178229, Control_c, 0, 64, 103
1, 178244, Control_c, 0, 64, 110
1, 178258, Control_c, 0, 64, 117
1, 178273, Control_c, 0, 64, 124
1, 178288, Control_c, 0, 64, 127
1, 178289, Note_off_c, 0, 68, 36
1, 178301, Note_off_c, 0, 63, 38
1, 178436, Control_c, 0, 64, 124
1, 178450, Control_c, 0, 64, 115
1, 178465, Control_c, 0, 64, 111
1, 178480, Control_c, 0, 64, 105
1, 178495, Control_c, 0, 64, 100
1, 178510, Control_c, 0, 64, 95
1, 178524, Control_c, 0, 64, 90
1, 178539, Control_c, 0, 64, 85
1, 178554, Control_c, 0, 64, 80
1, 178568, Control_c, 0, 64, 76
1, 178583, Control_c, 0, 64, 71
1, 178598, Control_c, 0, 64, 67
1, 178613, Control_c, 0, 64, 64
1, 178628, Control_c, 0, 64, 60
1, 178643, Control_c, 0, 64, 58
1, 178665, Control_c, 0, 64, 57
1, 178680, Control_c, 0, 64, 57
1, 178695, Control_c, 0, 64, 55
1, 178710, Control_c, 0, 64, 52
1, 178725, Control_c, 0, 64, 45
1, 178740, Control_c, 0, 64, 38
1, 178754, Control_c, 0, 64, 0
1, 178814, Control_c, 0, 64, 34
1, 178829, Control_c, 0, 64, 38
1, 178843, Control_c, 0, 64, 45
1, 178858, Control_c, 0, 64, 52
1, 178873, Control_c, 0, 64, 59
1, 178888, Control_c, 0, 64, 65
1, 178903, Control_c, 0, 64, 69
1, 178918, Control_c, 0, 64, 74
1, 178933, Control_c, 0, 64, 80
1, 178947, Control_c, 0, 64, 89
1, 178962, Control_c, 0, 64, 104
1, 178977, Control_c, 0, 64, 127
1, 179753, Note_on_c, 0, 62, 38
1, 179758, Note_on_c, 0, 71, 40
1, 179765, Note_on_c, 0, 52, 39
1, 179784, Note_on_c, 0, 68, 35
1, 180031, Note_on_c, 0, 45, 33
1, 180138, Note_on_c, 0, 49, 39
1, 180158, Note_off_c, 0, 71, 38
1, 180177, Control_c, 0, 64, 106
1, 180192, Control_c, 0, 64, 88
1, 180207, Control_c, 0, 64, 74
1, 180222, Control_c, 0, 64, 63
1, 180233, Note_off_c, 0, 68, 48
1, 180236, Control_c, 0, 64, 43
1, 180246, Note_off_c, 0, 52, 48
1, 180248, Note_on_c, 0, 57, 55
1, 180251, Control_c, 0, 64, 0
1, 180326, Control_c, 0, 64, 44
1, 180339, Note_off_c, 0, 62, 33
1, 180341, Control_c, 0, 64, 59
1, 180356, Control_c, 0, 64, 67
1, 180370, Control_c, 0, 64, 74
1, 180382, Note_off_c, 0, 45, 38
1, 180385, Control_c, 0, 64, 83
1, 180400, Control_c, 0, 64, 92
1, 180415, Control_c, 0, 64, 102
1, 180430, Control_c, 0, 64, 127
1, 180489, Note_off_c, 0, 49, 47
1, 180599, Note_off_c, 0, 57, 61
1, 180779, Note_on_c, 0, 61, 39
1, 180781, Note_on_c, 0, 57, 60
1, 180782, Note_on_c, 0, 69, 43
1, 180783, Note_on_c, 0, 64, 44
1, 180930, Note_off_c, 0, 61, 51
1, 180951, Note_off_c, 0, 57, 63
1, 180972, Note_on_c, 0, 59, 68
1, 181038, Note_off_c, 0, 59, 58
1, 181143, Note_on_c, 0, 45, 46
1, 181204, Note_on_c, 0, 52, 44
1, 181223, Control_c, 0, 64, 111
1, 181231, Note_off_c, 0, 69, 34
1, 181236, Note_on_c, 0, 61, 63
1, 181238, Control_c, 0, 64, 85
1, 181253, Control_c, 0, 64, 68
1, 181267, Control_c, 0, 64, 51
1, 181282, Control_c, 0, 64, 0
1, 181350, Note_off_c, 0, 64, 54
1, 181371, Control_c, 0, 64, 44
1, 181386, Control_c, 0, 64, 59
1, 181401, Control_c, 0, 64, 67
1, 181416, Control_c, 0, 64, 74
1, 181431, Control_c, 0, 64, 82
1, 181446, Control_c, 0, 64, 90
1, 181461, Control_c, 0, 64, 101
1, 181475, Control_c, 0, 64, 127
1, 181500, Note_off_c, 0, 61, 37
1, 181583, Note_off_c, 0, 45, 36
1, 181671, Note_on_c, 0, 57, 69
1, 181677, Note_on_c, 0, 61, 46
1, 181686, Note_on_c, 0, 69, 40
1, 181715, Note_off_c, 0, 69, 55
1, 181744, Note_off_c, 0, 57, 62
1, 181754, Note_off_c, 0, 61, 54
1, 181780, Note_off_c, 0, 52, 61
1, 182057, Note_on_c, 0, 38, 35
1, 182091, Control_c, 0, 64, 103
1, 182105, Control_c, 0, 64, 78
1, 182120, Control_c, 0, 64, 62
1, 182135, Control_c, 0, 64, 0
1, 182141, Note_on_c, 0, 54, 55
1, 182194, Control_c, 0, 64, 37
1, 182209, Control_c, 0, 64, 51
1, 182224, Control_c, 0, 64, 60
1, 182238, Note_off_c, 0, 38, 56
1, 182239, Control_c, 0, 64, 68
1, 182254, Control_c, 0, 64, 76
1, 182269, Control_c, 0, 64, 92
1, 182284, Control_c, 0, 64, 112
1, 182289, Note_off_c, 0, 54, 62
1, 182298, Control_c, 0, 64, 127
1, 182641, Note_on_c, 0, 59, 64
1, 182647, Control_c, 0, 64, 101
1, 182656, Note_on_c, 0, 62, 36
1, 182659, Note_on_c, 0, 71, 43
1, 182662, Control_c, 0, 64, 74
1, 182677, Control_c, 0, 64, 55
1, 182687, Note_on_c, 0, 66, 25
1, 182692, Control_c, 0, 64, 36
1, 182707, Control_c, 0, 64, 42
1, 182722, Control_c, 0, 64, 51
1, 182736, Control_c, 0, 64, 58
1, 182751, Control_c, 0, 64, 64
1, 182766, Control_c, 0, 64, 77
1, 182781, Control_c, 0, 64, 102
1, 182796, Control_c, 0, 64, 127
1, 182807, Note_off_c, 0, 59, 64
1, 183093, Note_on_c, 0, 39, 41
1, 183209, Note_off_c, 0, 39, 50
1, 183213, Note_off_c, 0, 62, 42
1, 183225, Note_off_c, 0, 66, 48
1, 183408, Note_off_c, 0, 71, 35
1, 183528, Note_on_c, 0, 57, 62
1, 183555, Note_on_c, 0, 66, 43
1, 183568, Note_on_c, 0, 59, 35
1, 183639, Note_off_c, 0, 57, 63
1, 183651, Note_off_c, 0, 66, 58
1, 183699, Note_off_c, 0, 59, 58
1, 183937, Control_c, 0, 64, 82
1, 183948, Note_on_c, 0, 40, 29
1, 183952, Control_c, 0, 64, 62
1, 183967, Control_c, 0, 64, 0
1, 183974, Note_on_c, 0, 56, 64
1, 184011, Control_c, 0, 64, 40
1, 184026, Control_c, 0, 64, 57
1, 184041, Control_c, 0, 64, 67
1, 184056, Control_c, 0, 64, 76
1, 184070, Control_c, 0, 64, 93
1, 184085, Control_c, 0, 64, 113
1, 184100, Control_c, 0, 64, 127
1, 184129, Note_off_c, 0, 56, 55
1, 184148, Note_off_c, 0, 40, 39
1, 184273, Note_on_c, 0, 56, 44
1, 184311, Note_off_c, 0, 56, 53
1, 184334, Note_on_c, 0, 59, 47
1, 184382, Note_on_c, 0, 64, 52
1, 184404, Note_off_c, 0, 59, 43
1, 184419, Note_on_c, 0, 68, 54
1, 184557, Note_off_c, 0, 68, 51
1, 184599, Note_on_c, 0, 56, 77
1, 184746, Note_off_c, 0, 56, 57
1, 184805, Note_on_c, 0, 47, 44
1, 184817, Note_on_c, 0, 57, 76
1, 184823, Note_off_c, 0, 64, 28
1, 184834, Control_c, 0, 64, 99
1, 184849, Control_c, 0, 64, 75
1, 184864, Control_c, 0, 64, 53
1, 184878, Control_c, 0, 64, 0
1, 184923, Control_c, 0, 64, 40
1, 184938, Control_c, 0, 64, 55
1, 184952, Control_c, 0, 64, 65
1, 184967, Control_c, 0, 64, 75
1, 184982, Control_c, 0, 64, 86
1, 184997, Control_c, 0, 64, 97
1, 185012, Control_c, 0, 64, 107
1, 185026, Control_c, 0, 64, 127
1, 185065, Note_off_c, 0, 57, 49
1, 185199, Note_on_c, 0, 59, 74
1, 185205, Control_c, 0, 64, 91
1, 185220, Control_c, 0, 64, 70
1, 185226, Note_on_c, 0, 66, 36
1, 185234, Control_c, 0, 64, 52
1, 185249, Control_c, 0, 64, 35
1, 185252, Note_on_c, 0, 63, 29
1, 185264, Control_c, 0, 64, 48
1, 185279, Control_c, 0, 64, 58
1, 185294, Control_c, 0, 64, 65
1, 185309, Control_c, 0, 64, 75
1, 185324, Control_c, 0, 64, 93
1, 185339, Control_c, 0, 64, 127
1, 185345, Note_off_c, 0, 59, 64
1, 185349, Note_off_c, 0, 47, 63
1, 185417, Note_off_c, 0, 63, 39
1, 185628, Control_c, 0, 64, 99
1, 185634, Note_on_c, 0, 40, 51
1, 185638, Note_on_c, 0, 52, 48
1, 185642, Control_c, 0, 64, 74
1, 185657, Control_c, 0, 64, 52
1, 185659, Note_on_c, 0, 64, 47
1, 185672, Control_c, 0, 64, 0
1, 185683, Note_on_c, 0, 56, 41
1, 185687, Note_off_c, 0, 66, 36
1, 185701, Control_c, 0, 64, 37
1, 185716, Control_c, 0, 64, 53
1, 185728, Note_off_c, 0, 40, 61
1, 185731, Control_c, 0, 64, 64
1, 185746, Control_c, 0, 64, 73
1, 185747, Note_off_c, 0, 56, 61
1, 185761, Control_c, 0, 64, 88
1, 185775, Control_c, 0, 64, 101
1, 185780, Note_off_c, 0, 64, 62
1, 185790, Control_c, 0, 64, 111
1, 185805, Control_c, 0, 64, 127
1, 186072, Control_c, 0, 64, 101
1, 186087, Control_c, 0, 64, 79
1, 186102, Control_c, 0, 64, 63
1, 186107, Note_on_c, 0, 64, 33
1, 186110, Note_on_c, 0, 76, 58
1, 186111, Note_on_c, 0, 59, 37
1, 186114, Note_on_c, 0, 56, 36
1, 186114, Note_on_c, 0, 74, 44
1, 186117, Control_c, 0, 64, 38
1, 186120, Note_on_c, 0, 71, 43
1, 186139, Control_c, 0, 64, 0
1, 186169, Control_c, 0, 64, 36
1, 186184, Control_c, 0, 64, 52
1, 186198, Control_c, 0, 64, 63
1, 186213, Control_c, 0, 64, 70
1, 186214, Note_off_c, 0, 59, 59
1, 186227, Note_off_c, 0, 71, 59
1, 186228, Control_c, 0, 64, 78
1, 186243, Control_c, 0, 64, 86
1, 186258, Control_c, 0, 64, 93
1, 186263, Note_off_c, 0, 74, 57
1, 186272, Control_c, 0, 64, 99
1, 186287, Control_c, 0, 64, 107
1, 186302, Control_c, 0, 64, 127
1, 186424, Note_off_c, 0, 56, 39
1, 186495, Control_c, 0, 64, 87
1, 186509, Control_c, 0, 64, 69
1, 186510, Note_on_c, 0, 61, 33
1, 186524, Control_c, 0, 64, 55
1, 186536, Note_on_c, 0, 57, 21
1, 186539, Control_c, 0, 64, 45
1, 186543, Note_on_c, 0, 69, 10
1, 186554, Control_c, 0, 64, 51
1, 186555, Note_on_c, 0, 73, 40
1, 186569, Control_c, 0, 64, 58
1, 186575, Note_off_c, 0, 76, 51
1, 186584, Control_c, 0, 64, 63
1, 186598, Control_c, 0, 64, 70
1, 186599, Note_off_c, 0, 57, 59
1, 186601, Note_off_c, 0, 52, 45
1, 186612, Note_off_c, 0, 64, 55
1, 186613, Control_c, 0, 64, 80
1, 186628, Control_c, 0, 64, 93
1, 186642, Control_c, 0, 64, 106
1, 186659, Control_c, 0, 64, 127
1, 186660, Note_off_c, 0, 61, 34
1, 186662, Note_off_c, 0, 69, 37
1, 186666, Note_off_c, 0, 73, 52
1, 186742, Note_on_c, 0, 62, 44
1, 186757, Note_on_c, 0, 52, 36
1, 186792, Control_c, 0, 64, 91
1, 186802, Note_off_c, 0, 62, 52
1, 186806, Note_on_c, 0, 68, 49
1, 186807, Control_c, 0, 64, 74
1, 186821, Control_c, 0, 64, 62
1, 186836, Control_c, 0, 64, 54
1, 186851, Control_c, 0, 64, 57
1, 186852, Note_off_c, 0, 52, 42
1, 186866, Control_c, 0, 64, 63
1, 186888, Control_c, 0, 64, 69
1, 186892, Note_on_c, 0, 59, 13
1, 186903, Control_c, 0, 64, 78
1, 186911, Note_on_c, 0, 71, 31
1, 186918, Control_c, 0, 64, 89
1, 186933, Control_c, 0, 64, 99
1, 186947, Control_c, 0, 64, 108
1, 186962, Control_c, 0, 64, 127
1, 187007, Note_on_c, 0, 64, 33
1, 187034, Note_off_c, 0, 68, 35
1, 187073, Note_off_c, 0, 64, 55
1, 187089, Note_on_c, 0, 76, 46
1, 187109, Note_off_c, 0, 59, 42
1, 187204, Note_off_c, 0, 76, 37
1, 187279, Note_off_c, 0, 71, 39
1, 187430, Note_on_c, 0, 45, 46
1, 187467, Control_c, 0, 64, 109
1, 187482, Control_c, 0, 64, 76
1, 187485, Note_on_c, 0, 49, 57
1, 187497, Control_c, 0, 64, 56
1, 187512, Control_c, 0, 64, 0
1, 187551, Note_on_c, 0, 57, 84
1, 187557, Control_c, 0, 64, 57
1, 187571, Control_c, 0, 64, 70
1, 187586, Control_c, 0, 64, 84
1, 187601, Note_off_c, 0, 45, 46
1, 187601, Control_c, 0, 64, 114
1, 187616, Control_c, 0, 64, 127
1, 187685, Note_off_c, 0, 49, 60
1, 187846, Note_off_c, 0, 57, 61
1, 188047, Note_on_c, 0, 57, 77
1, 188096, Note_on_c, 0, 69, 38
1, 188106, Note_on_c, 0, 61, 15
1, 188112, Note_on_c, 0, 64, 40
1, 188156, Note_off_c, 0, 61, 49
1, 188240, Note_off_c, 0, 57, 60
1, 188245, Note_on_c, 0, 59, 81
1, 188353, Note_off_c, 0, 59, 56
1, 188428, Note_on_c, 0, 45, 50
1, 188505, Note_on_c, 0, 52, 50
1, 188517, Note_on_c, 0, 61, 80
1, 188549, Control_c, 0, 64, 92
1, 188564, Control_c, 0, 64, 70
1, 188579, Control_c, 0, 64, 49
1, 188593, Control_c, 0, 64, 0
1, 188599, Note_off_c, 0, 69, 36
1, 188645, Note_off_c, 0, 64, 38
1, 188653, Control_c, 0, 64, 56
1, 188667, Control_c, 0, 64, 68
1, 188682, Control_c, 0, 64, 79
1, 188697, Control_c, 0, 64, 98
1, 188711, Control_c, 0, 64, 127
1, 188800, Note_off_c, 0, 61, 48
1, 188829, Note_off_c, 0, 45, 57
1, 188953, Note_on_c, 0, 57, 77
1, 188961, Note_on_c, 0, 61, 43
1, 188975, Note_on_c, 0, 69, 37
1, 189003, Note_off_c, 0, 69, 53
1, 189029, Note_off_c, 0, 57, 62
1, 189041, Note_off_c, 0, 61, 57
1, 189064, Note_off_c, 0, 52, 61
1, 189358, Note_on_c, 0, 38, 38
1, 189387, Control_c, 0, 64, 92
1, 189402, Control_c, 0, 64, 69
1, 189410, Note_on_c, 0, 54, 72
1, 189416, Control_c, 0, 64, 51
1, 189431, Control_c, 0, 64, 0
1, 189475, Control_c, 0, 64, 47
1, 189488, Note_off_c, 0, 38, 57
1, 189490, Control_c, 0, 64, 62
1, 189505, Control_c, 0, 64, 73
1, 189520, Control_c, 0, 64, 90
1, 189534, Control_c, 0, 64, 127
1, 189551, Note_off_c, 0, 54, 62
1, 189967, Note_on_c, 0, 59, 75
1, 189986, Note_on_c, 0, 62, 29
1, 189993, Note_on_c, 0, 71, 36
1, 190030, Note_on_c, 0, 66, 30
1, 190090, Note_off_c, 0, 59, 63
1, 190377, Note_on_c, 0, 38, 36
1, 190442, Note_off_c, 0, 38, 59
1, 190496, Note_off_c, 0, 71, 41
1, 190514, Note_off_c, 0, 62, 40
1, 190517, Note_off_c, 0, 66, 41
1, 190793, Note_on_c, 0, 57, 67
1, 190821, Note_off_c, 0, 57, 66
1, 190842, Note_on_c, 0, 71, 40
1, 190845, Note_on_c, 0, 62, 16
1, 190922, Poly_aftertouch_c, 0, 66, 127
1, 191020, Note_on_c, 0, 40, 45
1, 191056, Note_off_c, 0, 40, 61
1, 191104, Note_off_c, 0, 71, 35
1, 191151, Note_off_c, 0, 62, 40
1, 191247, Note_on_c, 0, 57, 57
1, 191295, Poly_aftertouch_c, 0, 66, 0
1, 191470, Note_off_c, 0, 57, 58
1, 191476, Note_on_c, 0, 56, 76
1, 191503, Note_off_c, 0, 56, 66
1, 191575, Control_c, 0, 64, 104
1, 191590, Control_c, 0, 64, 91
1, 191604, Control_c, 0, 64, 79
1, 191619, Control_c, 0, 64, 67
1, 191634, Control_c, 0, 64, 52
1, 191649, Control_c, 0, 64, 0
1, 191679, Note_on_c, 0, 54, 60
1, 191703, Note_on_c, 0, 59, 49
1, 191713, Note_on_c, 0, 68, 50
1, 191728, Note_off_c, 0, 54, 55
1, 191840, Note_on_c, 0, 52, 60
1, 191871, Note_off_c, 0, 52, 64
1, 191930, Control_c, 0, 64, 53
1, 191945, Control_c, 0, 64, 63
1, 191959, Control_c, 0, 64, 68
1, 191969, Note_on_c, 0, 40, 52
1, 191974, Control_c, 0, 64, 74
1, 191989, Control_c, 0, 64, 83
1, 192001, Note_off_c, 0, 40, 64
1, 192004, Control_c, 0, 64, 94
1, 192019, Control_c, 0, 64, 108
1, 192034, Control_c, 0, 64, 127
1, 192075, Note_on_c, 0, 52, 52
1, 192186, Note_off_c, 0, 52, 60
1, 192202, Note_on_c, 0, 54, 60
1, 192278, Note_off_c, 0, 54, 62
1, 192281, Note_off_c, 0, 68, 35
1, 192290, Note_off_c, 0, 59, 36
1, 192293, Note_on_c, 0, 52, 69
1, 192356, Note_off_c, 0, 52, 61
1, 192358, Note_on_c, 0, 51, 73
1, 192368, Control_c, 0, 64, 100
1, 192383, Control_c, 0, 64, 85
1, 192398, Control_c, 0, 64, 72
1, 192413, Control_c, 0, 64, 59
1, 192427, Control_c, 0, 64, 0
1, 192436, Note_on_c, 0, 52, 68
1, 192437, Note_off_c, 0, 51, 61
1, 192512, Note_off_c, 0, 52, 61
1, 192526, Note_on_c, 0, 54, 71
1, 192533, Note_on_c, 0, 64, 45
1, 192551, Note_off_c, 0, 54, 66
1, 192559, Note_on_c, 0, 59, 17
1, 192578, Note_on_c, 0, 62, 18
1, 192723, Note_on_c, 0, 56, 65
1, 192768, Note_off_c, 0, 56, 57
1, 192851, Note_off_c, 0, 62, 51
1, 192883, Note_off_c, 0, 64, 57
1, 193024, Note_on_c, 0, 57, 31
1, 193027, Note_on_c, 0, 64, 43
1, 193030, Note_on_c, 0, 45, 26
1, 193051, Note_on_c, 0, 61, 31
1, 193086, Control_c, 0, 64, 50
1, 193101, Control_c, 0, 64, 62
1, 193113, Note_off_c, 0, 45, 40
1, 193116, Control_c, 0, 64, 69
1, 193124, Note_off_c, 0, 59, 39
1, 193131, Control_c, 0, 64, 80
1, 193146, Control_c, 0, 64, 96
1, 193161, Control_c, 0, 64, 127
1, 193187, Note_off_c, 0, 57, 57
1, 193196, Note_off_c, 0, 64, 61
1, 193206, Note_off_c, 0, 61, 37
1, 193498, Note_on_c, 0, 64, 32
1, 193510, Note_on_c, 0, 88, 65
1, 193519, Note_on_c, 0, 61, 25
1, 193519, Note_on_c, 0, 76, 53
1, 193563, Note_off_c, 0, 64, 56
1, 193684, Note_off_c, 0, 88, 60
1, 193805, Note_off_c, 0, 76, 37
1, 193924, Control_c, 0, 64, 124
1, 193939, Control_c, 0, 64, 81
1, 193948, Note_off_c, 0, 61, 39
1, 193954, Control_c, 0, 64, 67
1, 193960, Note_on_c, 0, 66, 32
1, 193969, Control_c, 0, 64, 58
1, 193978, Note_on_c, 0, 86, 47
1, 193983, Note_on_c, 0, 74, 41
1, 193983, Control_c, 0, 64, 56
1, 193985, Note_on_c, 0, 59, 15
1, 193987, Note_on_c, 0, 78, 31
1, 193998, Control_c, 0, 64, 60
1, 194013, Control_c, 0, 64, 65
1, 194017, Note_off_c, 0, 59, 48
1, 194028, Control_c, 0, 64, 73
1, 194043, Control_c, 0, 64, 84
1, 194057, Control_c, 0, 64, 101
1, 194072, Control_c, 0, 64, 127
1, 194081, Note_off_c, 0, 66, 60
1, 194100, Note_off_c, 0, 86, 55
1, 194156, Note_off_c, 0, 78, 44
1, 194167, Note_off_c, 0, 74, 59
1, 194260, Note_on_c, 0, 52, 22
1, 194300, Note_off_c, 0, 52, 42
1, 194509, Control_c, 0, 64, 91
1, 194523, Control_c, 0, 64, 70
1, 194534, Note_on_c, 0, 68, 30
1, 194538, Control_c, 0, 64, 60
1, 194548, Note_on_c, 0, 83, 43
1, 194553, Control_c, 0, 64, 53
1, 194568, Note_on_c, 0, 71, 26
1, 194568, Control_c, 0, 64, 55
1, 194583, Control_c, 0, 64, 58
1, 194598, Control_c, 0, 64, 60
1, 194612, Control_c, 0, 64, 64
1, 194625, Poly_aftertouch_c, 0, 74, 127
1, 194627, Note_off_c, 0, 83, 63
1, 194627, Control_c, 0, 64, 72
1, 194632, Note_off_c, 0, 68, 59
1, 194636, Note_off_c, 0, 71, 55
1, 194642, Control_c, 0, 64, 84
1, 194658, Control_c, 0, 64, 100
1, 194669, Poly_aftertouch_c, 0, 74, 0
1, 194672, Control_c, 0, 64, 116
1, 194687, Control_c, 0, 64, 127
1, 195080, Note_on_c, 0, 64, 35
1, 195203, Note_on_c, 0, 45, 29
1, 195228, Control_c, 0, 64, 90
1, 195230, Note_on_c, 0, 69, 41
1, 195233, Note_off_c, 0, 64, 34
1, 195243, Control_c, 0, 64, 73
1, 195258, Control_c, 0, 64, 59
1, 195273, Control_c, 0, 64, 37
1, 195287, Control_c, 0, 64, 0
1, 195302, Control_c, 0, 64, 38
1, 195317, Control_c, 0, 64, 46
1, 195331, Control_c, 0, 64, 56
1, 195346, Control_c, 0, 64, 63
1, 195361, Control_c, 0, 64, 71
1, 195376, Control_c, 0, 64, 82
1, 195391, Control_c, 0, 64, 97
1, 195405, Control_c, 0, 64, 114
1, 195420, Control_c, 0, 64, 127
1, 195470, Note_off_c, 0, 45, 32
1, 195587, Note_off_c, 0, 69, 34
1, 195658, Note_on_c, 0, 52, 19
1, 195676, Note_on_c, 0, 64, 40
1, 195686, Note_on_c, 0, 61, 28
1, 195686, Poly_aftertouch_c, 0, 57, 127
1, 195714, Note_off_c, 0, 52, 45
1, 195732, Poly_aftertouch_c, 0, 57, 0
1, 195844, Note_off_c, 0, 61, 40
1, 195865, Note_on_c, 0, 71, 63
1, 195935, Note_off_c, 0, 71, 58
1, 196088, Note_on_c, 0, 33, 29
1, 196110, Control_c, 0, 64, 84
1, 196125, Control_c, 0, 64, 62
1, 196131, Note_off_c, 0, 64, 33
1, 196140, Control_c, 0, 64, 40
1, 196154, Note_on_c, 0, 73, 56
1, 196154, Control_c, 0, 64, 39
1, 196169, Control_c, 0, 64, 48
1, 196184, Control_c, 0, 64, 56
1, 196199, Control_c, 0, 64, 62
1, 196214, Control_c, 0, 64, 69
1, 196228, Control_c, 0, 64, 84
1, 196243, Note_off_c, 0, 33, 54
1, 196244, Control_c, 0, 64, 122
1, 196259, Control_c, 0, 64, 127
1, 196452, Note_off_c, 0, 73, 34
1, 196560, Note_on_c, 0, 52, 20
1, 196560, Note_on_c, 0, 57, 27
1, 196590, Note_on_c, 0, 61, 34
1, 196592, Note_on_c, 0, 64, 27
1, 196601, Note_off_c, 0, 57, 50
1, 196669, Note_off_c, 0, 52, 37
1, 196780, Note_on_c, 0, 69, 51
1, 196786, Note_off_c, 0, 61, 37
1, 196791, Note_off_c, 0, 64, 38
1, 196933, Control_c, 0, 64, 97
1, 196948, Control_c, 0, 64, 73
1, 196963, Control_c, 0, 64, 54
1, 196977, Control_c, 0, 64, 0
1, 196980, Note_off_c, 0, 69, 52
1, 196985, Note_on_c, 0, 38, 29
1, 197017, Note_on_c, 0, 66, 44
1, 197022, Control_c, 0, 64, 45
1, 197037, Control_c, 0, 64, 58
1, 197051, Note_off_c, 0, 38, 57
1, 197053, Control_c, 0, 64, 68
1, 197068, Control_c, 0, 64, 79
1, 197082, Control_c, 0, 64, 95
1, 197097, Control_c, 0, 64, 112
1, 197110, Note_off_c, 0, 66, 60
1, 197112, Control_c, 0, 64, 127
1, 197291, Note_on_c, 0, 54, 36
1, 197398, Note_on_c, 0, 59, 38
1, 197434, Note_on_c, 0, 62, 43
1, 197465, Note_off_c, 0, 59, 58
1, 197527, Note_on_c, 0, 71, 64
1, 197534, Note_off_c, 0, 62, 52
1, 197541, Note_off_c, 0, 54, 40
1, 197801, Control_c, 0, 64, 94
1, 197816, Control_c, 0, 64, 71
1, 197831, Control_c, 0, 64, 60
1, 197847, Control_c, 0, 64, 56
1, 197862, Control_c, 0, 64, 61
1, 197877, Control_c, 0, 64, 68
1, 197885, Note_on_c, 0, 39, 46
1, 197891, Control_c, 0, 64, 78
1, 197906, Control_c, 0, 64, 100
1, 197921, Control_c, 0, 64, 127
1, 197964, Note_off_c, 0, 39, 59
1, 198280, Note_off_c, 0, 71, 58
1, 198285, Note_on_c, 0, 69, 63
1, 198288, Note_on_c, 0, 59, 31
1, 198288, Note_on_c, 0, 51, 41
1, 198325, Note_on_c, 0, 66, 40
1, 198332, Note_off_c, 0, 59, 52
1, 198407, Note_off_c, 0, 51, 46
1, 198411, Note_off_c, 0, 66, 0
1, 198411, Note_on_c, 0, 66, 7
1, 198684, Control_c, 0, 64, 89
1, 198686, Note_on_c, 0, 40, 44
1, 198699, Control_c, 0, 64, 68
1, 198699, Note_off_c, 0, 69, 54
1, 198713, Control_c, 0, 64, 42
1, 198715, Note_on_c, 0, 68, 62
1, 198728, Control_c, 0, 64, 0
1, 198739, Note_off_c, 0, 66, 55
1, 198758, Control_c, 0, 64, 34
1, 198772, Control_c, 0, 64, 51
1, 198787, Control_c, 0, 64, 64
1, 198802, Control_c, 0, 64, 76
1, 198817, Control_c, 0, 64, 108
1, 198832, Control_c, 0, 64, 127
1, 198835, Note_off_c, 0, 40, 58
1, 199054, Note_off_c, 0, 68, 36
1, 199094, Note_on_c, 0, 56, 51
1, 199096, Note_on_c, 0, 52, 46
1, 199105, Note_on_c, 0, 59, 52
1, 199108, Note_on_c, 0, 64, 41
1, 199130, Note_off_c, 0, 56, 62
1, 199152, Note_off_c, 0, 52, 58
1, 199245, Note_off_c, 0, 59, 52
1, 199272, Note_on_c, 0, 68, 80
1, 199294, Note_off_c, 0, 64, 61
1, 199459, Note_on_c, 0, 35, 46
1, 199462, Control_c, 0, 64, 106
1, 199477, Control_c, 0, 64, 75
1, 199492, Control_c, 0, 64, 58
1, 199504, Note_on_c, 0, 69, 77
1, 199507, Control_c, 0, 64, 34
1, 199521, Control_c, 0, 64, 44
1, 199536, Control_c, 0, 64, 56
1, 199537, Note_off_c, 0, 68, 63
1, 199551, Control_c, 0, 64, 65
1, 199563, Note_off_c, 0, 35, 59
1, 199566, Control_c, 0, 64, 78
1, 199581, Control_c, 0, 64, 114
1, 199595, Control_c, 0, 64, 127
1, 199707, Note_off_c, 0, 69, 37
1, 199735, Note_on_c, 0, 47, 48
1, 199814, Note_on_c, 0, 57, 51
1, 199823, Note_on_c, 0, 54, 45
1, 199848, Note_on_c, 0, 63, 65
1, 199852, Note_off_c, 0, 57, 62
1, 199853, Note_off_c, 0, 47, 62
1, 199866, Note_off_c, 0, 54, 62
1, 199895, Note_on_c, 0, 71, 84
1, 199908, Note_off_c, 0, 63, 62
1, 199987, Note_off_c, 0, 71, 61
1, 200052, Note_on_c, 0, 40, 43
1, 200145, Note_on_c, 0, 47, 40
1, 200160, Note_on_c, 0, 56, 48
1, 200210, Note_off_c, 0, 56, 61
1, 200214, Note_on_c, 0, 52, 42
1, 200241, Control_c, 0, 64, 86
1, 200246, Note_on_c, 0, 64, 52
1, 200256, Control_c, 0, 64, 66
1, 200271, Control_c, 0, 64, 39
1, 200285, Control_c, 0, 64, 0
1, 200288, Note_off_c, 0, 40, 38
1, 200315, Control_c, 0, 64, 39
1, 200318, Note_on_c, 0, 71, 75
1, 200330, Control_c, 0, 64, 58
1, 200333, Note_off_c, 0, 64, 61
1, 200345, Control_c, 0, 64, 68
1, 200367, Control_c, 0, 64, 78
1, 200379, Note_off_c, 0, 47, 53
1, 200382, Control_c, 0, 64, 95
1, 200397, Control_c, 0, 64, 127
1, 200427, Note_off_c, 0, 52, 62
1, 200524, Note_on_c, 0, 64, 61
1, 200537, Note_off_c, 0, 71, 60
1, 200545, Note_off_c, 0, 64, 64
1, 200683, Note_on_c, 0, 52, 38
1, 200767, Note_on_c, 0, 56, 32
1, 200804, Note_on_c, 0, 59, 30
1, 200826, Control_c, 0, 64, 101
1, 200841, Control_c, 0, 64, 79
1, 200845, Note_on_c, 0, 76, 69
1, 200856, Control_c, 0, 64, 62
1, 200863, Note_on_c, 0, 74, 49
1, 200870, Control_c, 0, 64, 0
1, 200878, Note_on_c, 0, 64, 18
1, 200944, Control_c, 0, 64, 53
1, 200959, Control_c, 0, 64, 66
1, 200968, Note_off_c, 0, 59, 53
1, 200974, Control_c, 0, 64, 75
1, 200989, Control_c, 0, 64, 88
1, 201004, Control_c, 0, 64, 101
1, 201018, Control_c, 0, 64, 111
1, 201034, Control_c, 0, 64, 127
1, 201048, Note_off_c, 0, 74, 62
1, 201055, Note_off_c, 0, 56, 48
1, 201190, Control_c, 0, 64, 107
1, 201205, Control_c, 0, 64, 79
1, 201220, Control_c, 0, 64, 65
1, 201235, Control_c, 0, 64, 55
1, 201249, Control_c, 0, 64, 54
1, 201264, Control_c, 0, 64, 59
1, 201275, Note_on_c, 0, 61, 33
1, 201279, Control_c, 0, 64, 63
1, 201281, Note_on_c, 0, 57, 25
1, 201293, Control_c, 0, 64, 69
1, 201302, Note_off_c, 0, 76, 57
1, 201308, Note_on_c, 0, 73, 45
1, 201308, Control_c, 0, 64, 78
1, 201323, Control_c, 0, 64, 87
1, 201335, Note_off_c, 0, 52, 41
1, 201338, Control_c, 0, 64, 94
1, 201343, Note_off_c, 0, 64, 39
1, 201353, Control_c, 0, 64, 100
1, 201365, Note_off_c, 0, 61, 38
1, 201367, Control_c, 0, 64, 106
1, 201368, Poly_aftertouch_c, 0, 69, 127
1, 201382, Control_c, 0, 64, 111
1, 201397, Control_c, 0, 64, 122
1, 201406, Note_off_c, 0, 57, 35
1, 201410, Poly_aftertouch_c, 0, 69, 0
1, 201412, Control_c, 0, 64, 127
1, 201422, Note_off_c, 0, 73, 0
1, 201457, Poly_aftertouch_c, 0, 73, 0
1, 201464, Note_on_c, 0, 62, 38
1, 201477, Note_on_c, 0, 52, 36
1, 201501, Control_c, 0, 64, 107
1, 201516, Control_c, 0, 64, 88
1, 201517, Note_off_c, 0, 62, 43
1, 201531, Control_c, 0, 64, 72
1, 201536, Note_on_c, 0, 68, 51
1, 201546, Control_c, 0, 64, 59
1, 201560, Control_c, 0, 64, 36
1, 201575, Control_c, 0, 64, 0
1, 201590, Control_c, 0, 64, 39
1, 201605, Control_c, 0, 64, 55
1, 201620, Control_c, 0, 64, 64
1, 201622, Note_on_c, 0, 71, 38
1, 201635, Control_c, 0, 64, 71
1, 201649, Control_c, 0, 64, 80
1, 201650, Note_off_c, 0, 52, 42
1, 201656, Note_on_c, 0, 59, 16
1, 201664, Control_c, 0, 64, 90
1, 201679, Control_c, 0, 64, 100
1, 201693, Control_c, 0, 64, 120
1, 201695, Note_off_c, 0, 68, 27
1, 201708, Control_c, 0, 64, 127
1, 201770, Note_on_c, 0, 64, 28
1, 201875, Note_on_c, 0, 76, 43
1, 201892, Note_off_c, 0, 64, 51
1, 201905, Note_off_c, 0, 76, 60
1, 201919, Note_off_c, 0, 71, 40
1, 201932, Note_off_c, 0, 59, 41
1, 202290, Note_on_c, 0, 64, 29
1, 202369, Note_on_c, 0, 45, 26
1, 202383, Control_c, 0, 64, 124
1, 202398, Control_c, 0, 64, 85
1, 202407, Note_on_c, 0, 69, 43
1, 202413, Control_c, 0, 64, 69
1, 202422, Note_off_c, 0, 64, 38
1, 202428, Control_c, 0, 64, 54
1, 202443, Control_c, 0, 64, 38
1, 202458, Control_c, 0, 64, 43
1, 202473, Control_c, 0, 64, 54
1, 202488, Control_c, 0, 64, 63
1, 202503, Control_c, 0, 64, 71
1, 202517, Control_c, 0, 64, 82
1, 202532, Control_c, 0, 64, 95
1, 202547, Control_c, 0, 64, 109
1, 202562, Control_c, 0, 64, 127
1, 202688, Note_off_c, 0, 69, 51
1, 202700, Note_off_c, 0, 45, 30
1, 202817, Note_on_c, 0, 57, 25
1, 202822, Note_on_c, 0, 52, 30
1, 202837, Note_on_c, 0, 64, 36
1, 202844, Note_on_c, 0, 61, 32
1, 202870, Note_off_c, 0, 57, 46
1, 202899, Note_off_c, 0, 52, 55
1, 202998, Note_off_c, 0, 61, 36
1, 203051, Note_on_c, 0, 71, 56
1, 203094, Note_off_c, 0, 71, 61
1, 203251, Control_c, 0, 64, 101
1, 203265, Control_c, 0, 64, 78
1, 203275, Note_off_c, 0, 64, 37
1, 203280, Control_c, 0, 64, 63
1, 203290, Note_on_c, 0, 73, 57
1, 203295, Control_c, 0, 64, 42
1, 203296, Note_on_c, 0, 33, 19
1, 203310, Control_c, 0, 64, 39
1, 203325, Control_c, 0, 64, 46
1, 203339, Control_c, 0, 64, 55
1, 203361, Control_c, 0, 64, 61
1, 203376, Control_c, 0, 64, 67
1, 203391, Control_c, 0, 64, 79
1, 203406, Control_c, 0, 64, 109
1, 203415, Note_off_c, 0, 33, 54
1, 203421, Control_c, 0, 64, 127
1, 203425, Note_off_c, 0, 73, 58
1, 203713, Note_on_c, 0, 52, 29
1, 203713, Note_on_c, 0, 69, 51
1, 203713, Note_on_c, 0, 57, 30
1, 203725, Note_on_c, 0, 61, 37
1, 203742, Note_on_c, 0, 64, 34
1, 203782, Note_off_c, 0, 57, 42
1, 203822, Note_off_c, 0, 52, 49
1, 203965, Note_off_c, 0, 61, 27
1, 203987, Note_off_c, 0, 64, 30
1, 204088, Control_c, 0, 64, 82
1, 204110, Control_c, 0, 64, 64
1, 204122, Note_off_c, 0, 69, 37
1, 204125, Control_c, 0, 64, 44
1, 204140, Control_c, 0, 64, 36
1, 204142, Note_on_c, 0, 38, 29
1, 204145, Note_on_c, 0, 66, 41
1, 204155, Control_c, 0, 64, 46
1, 204169, Control_c, 0, 64, 57
1, 204184, Control_c, 0, 64, 65
1, 204199, Control_c, 0, 64, 78
1, 204214, Note_off_c, 0, 38, 57
1, 204214, Control_c, 0, 64, 97
1, 204229, Control_c, 0, 64, 127
1, 204245, Note_off_c, 0, 66, 61
1, 204447, Note_on_c, 0, 54, 37
1, 204528, Note_on_c, 0, 59, 32
1, 204542, Note_on_c, 0, 62, 44
1, 204597, Note_off_c, 0, 59, 54
1, 204607, Note_off_c, 0, 62, 49
1, 204626, Note_on_c, 0, 71, 62
1, 204664, Note_off_c, 0, 54, 39
1, 204948, Control_c, 0, 64, 90
1, 204963, Control_c, 0, 64, 70
1, 204978, Control_c, 0, 64, 58
1, 204992, Control_c, 0, 64, 58
1, 205007, Control_c, 0, 64, 64
1, 205015, Note_on_c, 0, 38, 45
1, 205022, Control_c, 0, 64, 74
1, 205038, Control_c, 0, 64, 96
1, 205053, Control_c, 0, 64, 127
1, 205108, Note_off_c, 0, 38, 59
1, 205423, Note_on_c, 0, 69, 57
1, 205433, Note_on_c, 0, 50, 42
1, 205437, Note_off_c, 0, 71, 37
1, 205443, Note_on_c, 0, 59, 31
1, 205477, Note_on_c, 0, 66, 26
1, 205490, Note_off_c, 0, 59, 47
1, 205534, Note_off_c, 0, 50, 54
1, 205536, Note_off_c, 0, 66, 0
1, 205536, Note_on_c, 0, 66, 9
1, 205545, Note_off_c, 0, 69, 57
1, 205832, Control_c, 0, 64, 95
1, 205833, Note_on_c, 0, 40, 42
1, 205847, Control_c, 0, 64, 72
1, 205862, Control_c, 0, 64, 55
1, 205877, Control_c, 0, 64, 0
1, 205882, Note_on_c, 0, 69, 50
1, 205887, Note_off_c, 0, 66, 53
1, 205906, Control_c, 0, 64, 47
1, 205921, Control_c, 0, 64, 60
1, 205936, Control_c, 0, 64, 69
1, 205951, Control_c, 0, 64, 80
1, 205957, Note_off_c, 0, 40, 58
1, 205965, Control_c, 0, 64, 98
1, 205980, Control_c, 0, 64, 127
1, 206079, Note_on_c, 0, 68, 66
1, 206107, Note_off_c, 0, 68, 67
1, 206117, Note_off_c, 0, 69, 36
1, 206277, Control_c, 0, 64, 87
1, 206287, Note_on_c, 0, 56, 35
1, 206290, Note_on_c, 0, 66, 65
1, 206291, Control_c, 0, 64, 67
1, 206306, Control_c, 0, 64, 48
1, 206311, Note_on_c, 0, 59, 39
1, 206318, Note_on_c, 0, 52, 44
1, 206321, Control_c, 0, 64, 35
1, 206336, Control_c, 0, 64, 44
1, 206348, Note_on_c, 0, 62, 6
1, 206351, Control_c, 0, 64, 55
1, 206372, Control_c, 0, 64, 64
1, 206387, Control_c, 0, 64, 75
1, 206391, Note_off_c, 0, 56, 48
1, 206400, Note_off_c, 0, 52, 61
1, 206402, Control_c, 0, 64, 93
1, 206407, Note_off_c, 0, 62, 40
1, 206417, Control_c, 0, 64, 127
1, 206471, Note_on_c, 0, 64, 70
1, 206505, Note_off_c, 0, 66, 46
1, 206575, Note_off_c, 0, 64, 59
1, 206640, Control_c, 0, 64, 115
1, 206655, Control_c, 0, 64, 78
1, 206656, Note_off_c, 0, 59, 20
1, 206665, Note_on_c, 0, 40, 48
1, 206670, Control_c, 0, 64, 61
1, 206685, Control_c, 0, 64, 0
1, 206696, Note_on_c, 0, 64, 55
1, 206700, Control_c, 0, 64, 34
1, 206714, Control_c, 0, 64, 47
1, 206729, Control_c, 0, 64, 57
1, 206744, Control_c, 0, 64, 65
1, 206759, Control_c, 0, 64, 74
1, 206774, Control_c, 0, 64, 90
1, 206778, Note_off_c, 0, 40, 61
1, 206788, Control_c, 0, 64, 127
1, 206798, Note_off_c, 0, 64, 58
1, 206803, Note_on_c, 0, 66, 64
1, 206882, Note_on_c, 0, 64, 56
1, 206914, Note_off_c, 0, 66, 57
1, 206923, Note_on_c, 0, 63, 71
1, 206923, Note_off_c, 0, 64, 64
1, 206989, Note_on_c, 0, 64, 66
1, 207014, Note_off_c, 0, 63, 54
1, 207023, Control_c, 0, 64, 115
1, 207038, Control_c, 0, 64, 79
1, 207053, Control_c, 0, 64, 60
1, 207068, Note_on_c, 0, 66, 69
1, 207068, Control_c, 0, 64, 0
1, 207069, Note_on_c, 0, 52, 49
1, 207073, Note_on_c, 0, 62, 56
1, 207078, Note_on_c, 0, 59, 41
1, 207108, Note_off_c, 0, 64, 57
1, 207135, Control_c, 0, 64, 39
1, 207135, Note_off_c, 0, 59, 60
1, 207150, Control_c, 0, 64, 58
1, 207165, Control_c, 0, 64, 69
1, 207178, Note_off_c, 0, 52, 62
1, 207180, Control_c, 0, 64, 83
1, 207194, Control_c, 0, 64, 102
1, 207209, Control_c, 0, 64, 127
1, 207240, Note_off_c, 0, 66, 57
1, 207266, Note_on_c, 0, 68, 85
1, 207287, Note_off_c, 0, 62, 51
1, 207305, Note_off_c, 0, 68, 59
1, 207444, Note_on_c, 0, 37, 55
1, 207461, Control_c, 0, 64, 108
1, 207476, Control_c, 0, 64, 72
1, 207491, Control_c, 0, 64, 53
1, 207503, Note_on_c, 0, 69, 79
1, 207506, Control_c, 0, 64, 0
1, 207535, Control_c, 0, 64, 44
1, 207550, Control_c, 0, 64, 58
1, 207564, Note_off_c, 0, 37, 60
1, 207565, Control_c, 0, 64, 67
1, 207580, Control_c, 0, 64, 86
1, 207595, Control_c, 0, 64, 127
1, 207641, Note_off_c, 0, 69, 53
1, 207702, Note_on_c, 0, 73, 91
1, 207789, Note_off_c, 0, 73, 58
1, 207865, Note_on_c, 0, 52, 37
1, 207895, Note_on_c, 0, 57, 49
1, 207958, Note_on_c, 0, 61, 48
1, 207973, Control_c, 0, 64, 93
1, 207988, Note_on_c, 0, 76, 95
1, 207988, Control_c, 0, 64, 67
1, 207999, Note_on_c, 0, 64, 68
1, 208003, Control_c, 0, 64, 51
1, 208018, Control_c, 0, 64, 0
1, 208047, Control_c, 0, 64, 36
1, 208062, Control_c, 0, 64, 53
1, 208077, Control_c, 0, 64, 64
1, 208080, Note_off_c, 0, 61, 61
1, 208092, Control_c, 0, 64, 72
1, 208103, Note_off_c, 0, 57, 61
1, 208107, Control_c, 0, 64, 87
1, 208118, Note_off_c, 0, 52, 58
1, 208122, Control_c, 0, 64, 127
1, 208374, Control_c, 0, 64, 76
1, 208384, Note_on_c, 0, 32, 72
1, 208389, Control_c, 0, 64, 59
1, 208403, Control_c, 0, 64, 39
1, 208418, Control_c, 0, 64, 35
1, 208433, Control_c, 0, 64, 45
1, 208448, Control_c, 0, 64, 61
1, 208463, Control_c, 0, 64, 72
1, 208475, Note_off_c, 0, 32, 61
1, 208477, Control_c, 0, 64, 100
1, 208483, Note_off_c, 0, 76, 63
1, 208492, Control_c, 0, 64, 127
1, 208578, Note_off_c, 0, 64, 58
1, 208810, Note_on_c, 0, 71, 89
1, 208818, Note_on_c, 0, 52, 48
1, 208826, Note_on_c, 0, 64, 67
1, 208835, Note_on_c, 0, 62, 53
1, 208844, Note_on_c, 0, 57, 39
1, 208859, Note_off_c, 0, 62, 59
1, 208876, Note_off_c, 0, 57, 51
1, 208905, Note_off_c, 0, 64, 60
1, 208911, Note_off_c, 0, 52, 61
1, 208954, Note_off_c, 0, 71, 62
1, 209180, Note_on_c, 0, 33, 52
1, 209255, Control_c, 0, 64, 85
1, 209257, Note_on_c, 0, 74, 78
1, 209270, Control_c, 0, 64, 62
1, 209285, Control_c, 0, 64, 0
1, 209329, Control_c, 0, 64, 50
1, 209352, Control_c, 0, 64, 64
1, 209367, Control_c, 0, 64, 75
1, 209381, Control_c, 0, 64, 98
1, 209396, Control_c, 0, 64, 127
1, 209405, Note_off_c, 0, 33, 59
1, 209502, Note_on_c, 0, 73, 82
1, 209525, Note_off_c, 0, 74, 60
1, 209556, Note_off_c, 0, 73, 60
1, 209671, Note_on_c, 0, 52, 45
1, 209707, Control_c, 0, 64, 94
1, 209722, Control_c, 0, 64, 70
1, 209723, Note_on_c, 0, 71, 70
1, 209726, Note_on_c, 0, 57, 48
1, 209737, Control_c, 0, 64, 50
1, 209740, Note_on_c, 0, 64, 42
1, 209746, Note_on_c, 0, 61, 57
1, 209751, Control_c, 0, 64, 0
1, 209766, Control_c, 0, 64, 35
1, 209773, Note_off_c, 0, 57, 61
1, 209781, Control_c, 0, 64, 53
1, 209796, Control_c, 0, 64, 64
1, 209811, Control_c, 0, 64, 74
1, 209827, Control_c, 0, 64, 89
1, 209830, Note_off_c, 0, 52, 58
1, 209842, Control_c, 0, 64, 113
1, 209854, Note_off_c, 0, 61, 57
1, 209856, Control_c, 0, 64, 127
1, 209875, Note_off_c, 0, 64, 63
1, 209910, Note_on_c, 0, 69, 73
1, 209964, Note_off_c, 0, 71, 52
1, 210045, Note_off_c, 0, 69, 57
1, 210135, Note_on_c, 0, 40, 42
1, 210146, Control_c, 0, 64, 101
1, 210161, Control_c, 0, 64, 75
1, 210176, Control_c, 0, 64, 57
1, 210190, Control_c, 0, 64, 46
1, 210205, Control_c, 0, 64, 49
1, 210216, Note_on_c, 0, 69, 53
1, 210220, Control_c, 0, 64, 53
1, 210235, Control_c, 0, 64, 58
1, 210250, Control_c, 0, 64, 63
1, 210264, Control_c, 0, 64, 71
1, 210279, Control_c, 0, 64, 86
1, 210294, Control_c, 0, 64, 106
1, 210297, Note_off_c, 0, 40, 58
1, 210298, Note_off_c, 0, 69, 56
1, 210309, Control_c, 0, 64, 127
1, 210408, Note_on_c, 0, 69, 61
1, 210446, Note_off_c, 0, 69, 54
1, 210494, Note_on_c, 0, 71, 64
1, 210574, Note_on_c, 0, 69, 68
1, 210576, Note_off_c, 0, 71, 57
1, 210659, Note_on_c, 0, 68, 78
1, 210659, Note_off_c, 0, 69, 57
1, 210670, Note_on_c, 0, 52, 40
1, 210741, Note_off_c, 0, 68, 61
1, 210755, Note_on_c, 0, 69, 72
1, 210769, Control_c, 0, 64, 109
1, 210784, Control_c, 0, 64, 100
1, 210798, Control_c, 0, 64, 93
1, 210799, Note_on_c, 0, 56, 49
1, 210813, Control_c, 0, 64, 87
1, 210828, Control_c, 0, 64, 82
1, 210850, Control_c, 0, 64, 76
1, 210865, Control_c, 0, 64, 69
1, 210879, Control_c, 0, 64, 64
1, 210894, Control_c, 0, 64, 58
1, 210909, Control_c, 0, 64, 52
1, 210924, Control_c, 0, 64, 48
1, 210939, Control_c, 0, 64, 46
1, 210954, Control_c, 0, 64, 42
1, 210969, Control_c, 0, 64, 0
1, 211036, Note_on_c, 0, 64, 23
1, 211118, Note_on_c, 0, 73, 57
1, 211122, Note_off_c, 0, 69, 55
1, 211127, Note_on_c, 0, 62, 43
1, 211353, Control_c, 0, 64, 48
1, 211368, Control_c, 0, 64, 63
1, 211383, Control_c, 0, 64, 68
1, 211398, Control_c, 0, 64, 73
1, 211404, Note_off_c, 0, 52, 37
1, 211407, Note_off_c, 0, 64, 48
1, 211413, Control_c, 0, 64, 79
1, 211428, Control_c, 0, 64, 87
1, 211443, Control_c, 0, 64, 98
1, 211458, Control_c, 0, 64, 127
1, 211490, Note_off_c, 0, 73, 58
1, 211496, Note_off_c, 0, 56, 57
1, 211690, Note_off_c, 0, 62, 42
1, 211767, Note_on_c, 0, 71, 37
1, 211776, Control_c, 0, 64, 93
1, 211791, Control_c, 0, 64, 73
1, 211806, Control_c, 0, 64, 57
1, 211820, Note_on_c, 0, 45, 25
1, 211821, Control_c, 0, 64, 0
1, 211824, Note_off_c, 0, 71, 43
1, 211863, Note_off_c, 0, 45, 50
1, 211869, Note_on_c, 0, 52, 24
1, 211881, Control_c, 0, 64, 51
1, 211896, Control_c, 0, 64, 65
1, 211905, Note_off_c, 0, 52, 53
1, 211907, Note_on_c, 0, 69, 39
1, 211910, Control_c, 0, 64, 74
1, 211923, Note_on_c, 0, 61, 21
1, 211925, Control_c, 0, 64, 85
1, 211931, Note_on_c, 0, 57, 7
1, 211940, Control_c, 0, 64, 99
1, 211954, Control_c, 0, 64, 111
1, 211964, Note_off_c, 0, 61, 40
1, 211969, Control_c, 0, 64, 127
1, 211970, Note_off_c, 0, 69, 57
1, 211985, Note_off_c, 0, 57, 49
1, 212126, Note_on_c, 0, 57, 32
1, 212161, Note_off_c, 0, 57, 50
1, 212245, Note_on_c, 0, 64, 13
1, 212300, Note_on_c, 0, 97, 69
1, 212310, Note_on_c, 0, 73, 40
1, 212318, Note_on_c, 0, 88, 50
1, 212325, Control_c, 0, 64, 90
1, 212326, Note_off_c, 0, 97, 66
1, 212332, Note_on_c, 0, 85, 25
1, 212347, Note_off_c, 0, 73, 55
1, 212348, Control_c, 0, 64, 69
1, 212349, Note_off_c, 0, 88, 62
1, 212362, Note_off_c, 0, 85, 53
1, 212363, Control_c, 0, 64, 44
1, 212377, Control_c, 0, 64, 0
1, 212401, Note_off_c, 0, 64, 40
1, 212422, Control_c, 0, 64, 48
1, 212437, Control_c, 0, 64, 57
1, 212451, Control_c, 0, 64, 64
1, 212466, Control_c, 0, 64, 71
1, 212481, Control_c, 0, 64, 80
1, 212486, Note_on_c, 0, 57, 11
1, 212496, Control_c, 0, 64, 92
1, 212511, Control_c, 0, 64, 107
1, 212525, Control_c, 0, 64, 127
1, 212536, Note_off_c, 0, 57, 50
1, 212538, Note_on_c, 0, 61, 44
1, 212615, Note_off_c, 0, 61, 50
1, 212636, Note_on_c, 0, 69, 32
1, 212669, Note_off_c, 0, 69, 53
1, 212749, Note_on_c, 0, 93, 60
1, 212758, Note_on_c, 0, 81, 49
1, 212769, Note_on_c, 0, 85, 48
1, 212804, Note_off_c, 0, 93, 57
1, 212807, Note_off_c, 0, 81, 43
1, 212817, Note_off_c, 0, 85, 58
1, 213379, Control_c, 0, 64, 115
1, 213393, Control_c, 0, 64, 84
1, 213408, Control_c, 0, 64, 65
1, 213423, Control_c, 0, 64, 34
1, 213438, Control_c, 0, 64, 0
1, 213526, Control_c, 0, 64, 34
1, 213541, Control_c, 0, 64, 57
1, 213556, Control_c, 0, 64, 69
1, 213571, Control_c, 0, 64, 78
1, 213586, Control_c, 0, 64, 89
1, 213601, Control_c, 0, 64, 103
1, 213616, Control_c, 0, 64, 127
1, 213738, Note_on_c, 0, 40, 40
1, 213765, Note_on_c, 0, 59, 88
1, 213784, Note_on_c, 0, 56, 60
1, 213786, Note_off_c, 0, 40, 59
1, 213827, Note_off_c, 0, 56, 55
1, 214235, Note_on_c, 0, 64, 37
1, 214246, Note_on_c, 0, 71, 46
1, 214247, Note_on_c, 0, 68, 46
1, 214253, Note_on_c, 0, 56, 80
1, 214271, Note_off_c, 0, 71, 59
1, 214295, Note_off_c, 0, 59, 59
1, 214295, Note_off_c, 0, 64, 57
1, 214301, Note_off_c, 0, 68, 59
1, 214423, Note_on_c, 0, 52, 87
1, 214443, Note_off_c, 0, 56, 57
1, 214608, Control_c, 0, 64, 104
1, 214624, Control_c, 0, 64, 75
1, 214625, Note_off_c, 0, 52, 56
1, 214639, Control_c, 0, 64, 54
1, 214653, Control_c, 0, 64, 0
1, 214656, Note_on_c, 0, 40, 46
1, 214665, Note_on_c, 0, 61, 77
1, 214675, Note_on_c, 0, 57, 54
1, 214698, Control_c, 0, 64, 51
1, 214713, Control_c, 0, 64, 67
1, 214728, Control_c, 0, 64, 80
1, 214742, Control_c, 0, 64, 104
1, 214745, Note_off_c, 0, 40, 61
1, 214750, Note_off_c, 0, 57, 60
1, 214757, Control_c, 0, 64, 127
1, 214833, Note_off_c, 0, 61, 60
1, 215067, Note_on_c, 0, 64, 67
1, 215076, Note_on_c, 0, 73, 51
1, 215086, Note_on_c, 0, 61, 50
1, 215094, Note_on_c, 0, 69, 44
1, 215109, Note_off_c, 0, 73, 63
1, 215135, Note_off_c, 0, 61, 56
1, 215136, Note_off_c, 0, 69, 62
1, 215239, Note_on_c, 0, 61, 77
1, 215252, Note_on_c, 0, 57, 62
1, 215267, Note_off_c, 0, 64, 59
1, 215308, Note_off_c, 0, 61, 60
1, 215402, Control_c, 0, 64, 99
1, 215418, Control_c, 0, 64, 71
1, 215433, Control_c, 0, 64, 43
1, 215448, Control_c, 0, 64, 0
1, 215474, Note_on_c, 0, 59, 75
1, 215487, Note_off_c, 0, 57, 56
1, 215489, Note_on_c, 0, 40, 56
1, 215491, Note_on_c, 0, 56, 62
1, 215507, Control_c, 0, 64, 45
1, 215521, Control_c, 0, 64, 65
1, 215529, Note_off_c, 0, 40, 61
1, 215536, Control_c, 0, 64, 78
1, 215551, Control_c, 0, 64, 124
1, 215565, Note_off_c, 0, 56, 56
1, 215566, Control_c, 0, 64, 127
1, 215589, Note_off_c, 0, 59, 56
1, 215750, Note_on_c, 0, 59, 37
1, 215782, Note_off_c, 0, 59, 57
1, 215817, Note_on_c, 0, 68, 68
1, 215845, Note_off_c, 0, 68, 65
1, 215867, Note_on_c, 0, 76, 83
1, 215890, Note_off_c, 0, 76, 69
1, 216027, Note_on_c, 0, 56, 69
1, 216033, Note_on_c, 0, 52, 67
1, 216097, Note_on_c, 0, 64, 49
1, 216123, Note_off_c, 0, 56, 52
1, 216128, Note_off_c, 0, 64, 61
1, 216151, Control_c, 0, 64, 89
1, 216164, Note_on_c, 0, 71, 58
1, 216166, Control_c, 0, 64, 68
1, 216181, Control_c, 0, 64, 51
1, 216195, Control_c, 0, 64, 40
1, 216210, Control_c, 0, 64, 53
1, 216226, Control_c, 0, 64, 64
1, 216235, Note_on_c, 0, 59, 81
1, 216235, Note_off_c, 0, 71, 60
1, 216241, Control_c, 0, 64, 77
1, 216244, Note_on_c, 0, 80, 80
1, 216256, Note_on_c, 0, 56, 63
1, 216256, Control_c, 0, 64, 124
1, 216271, Control_c, 0, 64, 127
1, 216287, Note_off_c, 0, 52, 57
1, 216297, Note_off_c, 0, 80, 60
1, 216354, Note_off_c, 0, 56, 57
1, 216392, Note_off_c, 0, 59, 58
1, 216462, Note_on_c, 0, 68, 58
1, 216503, Note_off_c, 0, 68, 59
1, 216534, Note_on_c, 0, 76, 63
1, 216614, Note_on_c, 0, 83, 77
1, 216624, Note_off_c, 0, 76, 62
1, 216633, Note_off_c, 0, 83, 71
1, 216939, Note_on_c, 0, 71, 66
1, 216976, Note_off_c, 0, 71, 62
1, 217226, Note_on_c, 0, 51, 27
1, 217285, Control_c, 0, 64, 108
1, 217300, Control_c, 0, 64, 94
1, 217310, Note_on_c, 0, 59, 25
1, 217315, Control_c, 0, 64, 84
1, 217325, Note_on_c, 0, 70, 50
1, 217330, Control_c, 0, 64, 74
1, 217342, Note_on_c, 0, 66, 31
1, 217345, Control_c, 0, 64, 66
1, 217360, Control_c, 0, 64, 59
1, 217375, Control_c, 0, 64, 50
1, 217390, Control_c, 0, 64, 41
1, 217404, Control_c, 0, 64, 0
1, 217609, Note_on_c, 0, 71, 61
1, 217634, Control_c, 0, 64, 49
1, 217648, Control_c, 0, 64, 62
1, 217654, Note_off_c, 0, 70, 58
1, 217663, Control_c, 0, 64, 66
1, 217678, Control_c, 0, 64, 67
1, 217692, Control_c, 0, 64, 68
1, 217707, Control_c, 0, 64, 68
1, 217750, Note_off_c, 0, 71, 56
1, 217796, Control_c, 0, 64, 67
1, 217812, Control_c, 0, 64, 64
1, 217827, Control_c, 0, 64, 59
1, 217832, Note_on_c, 0, 73, 59
1, 217842, Control_c, 0, 64, 44
1, 217857, Control_c, 0, 64, 0
1, 217930, Control_c, 0, 64, 43
1, 217945, Control_c, 0, 64, 61
1, 217960, Control_c, 0, 64, 68
1, 217975, Control_c, 0, 64, 73
1, 217989, Control_c, 0, 64, 75
1, 218004, Control_c, 0, 64, 76
1, 218011, Note_on_c, 0, 71, 62
1, 218019, Control_c, 0, 64, 76
1, 218034, Control_c, 0, 64, 77
1, 218045, Note_off_c, 0, 73, 52
1, 218123, Control_c, 0, 64, 76
1, 218135, Note_off_c, 0, 71, 54
1, 218138, Control_c, 0, 64, 72
1, 218153, Control_c, 0, 64, 65
1, 218168, Control_c, 0, 64, 52
1, 218182, Control_c, 0, 64, 0
1, 218191, Note_on_c, 0, 70, 50
1, 218242, Control_c, 0, 64, 36
1, 218257, Control_c, 0, 64, 53
1, 218272, Control_c, 0, 64, 64
1, 218287, Control_c, 0, 64, 69
1, 218302, Control_c, 0, 64, 75
1, 218316, Control_c, 0, 64, 79
1, 218338, Control_c, 0, 64, 82
1, 218353, Control_c, 0, 64, 85
1, 218363, Note_off_c, 0, 70, 58
1, 218368, Control_c, 0, 64, 89
1, 218374, Note_on_c, 0, 71, 60
1, 218383, Control_c, 0, 64, 91
1, 218397, Control_c, 0, 64, 93
1, 218409, Note_off_c, 0, 66, 57
1, 218412, Control_c, 0, 64, 93
1, 218427, Control_c, 0, 64, 94
1, 218501, Control_c, 0, 64, 91
1, 218516, Control_c, 0, 64, 82
1, 218531, Control_c, 0, 64, 70
1, 218546, Note_off_c, 0, 71, 43
1, 218546, Control_c, 0, 64, 55
1, 218553, Note_on_c, 0, 69, 42
1, 218561, Control_c, 0, 64, 0
1, 218615, Note_off_c, 0, 59, 42
1, 218621, Control_c, 0, 64, 46
1, 218636, Control_c, 0, 64, 62
1, 218650, Control_c, 0, 64, 68
1, 218665, Control_c, 0, 64, 73
1, 218670, Note_off_c, 0, 69, 55
1, 218680, Control_c, 0, 64, 76
1, 218695, Control_c, 0, 64, 79
1, 218710, Control_c, 0, 64, 81
1, 218718, Note_on_c, 0, 66, 45
1, 218725, Control_c, 0, 64, 85
1, 218739, Control_c, 0, 64, 88
1, 218754, Control_c, 0, 64, 89
1, 218769, Control_c, 0, 64, 91
1, 218783, Note_off_c, 0, 66, 47
1, 218784, Control_c, 0, 64, 92
1, 218799, Control_c, 0, 64, 93
1, 218828, Control_c, 0, 64, 91
1, 218843, Control_c, 0, 64, 81
1, 218857, Control_c, 0, 64, 68
1, 218871, Note_off_c, 0, 51, 43
1, 218872, Control_c, 0, 64, 53
1, 218887, Control_c, 0, 64, 0
1, 218914, Note_on_c, 0, 52, 29
1, 218929, Note_on_c, 0, 68, 47
1, 218931, Control_c, 0, 64, 52
1, 218932, Note_on_c, 0, 64, 31
1, 218946, Control_c, 0, 64, 64
1, 218947, Note_off_c, 0, 52, 50
1, 218955, Note_on_c, 0, 59, 3
1, 218961, Control_c, 0, 64, 72
1, 218963, Note_off_c, 0, 64, 53
1, 218965, Note_off_c, 0, 59, 47
1, 218976, Control_c, 0, 64, 82
1, 218982, Note_off_c, 0, 68, 62
1, 218991, Control_c, 0, 64, 93
1, 219005, Control_c, 0, 64, 104
1, 219020, Control_c, 0, 64, 127
1, 219201, Poly_aftertouch_c, 0, 64, 0
1, 219223, Poly_aftertouch_c, 0, 64, 0
1, 219228, Note_on_c, 0, 71, 46
1, 219298, Note_on_c, 0, 92, 61
1, 219299, Note_on_c, 0, 88, 44
1, 219317, Note_on_c, 0, 80, 12
1, 219332, Note_off_c, 0, 88, 51
1, 219354, Control_c, 0, 64, 100
1, 219365, Note_off_c, 0, 92, 57
1, 219369, Control_c, 0, 64, 82
1, 219375, Note_off_c, 0, 80, 51
1, 219380, Note_on_c, 0, 90, 53
1, 219380, Note_on_c, 0, 93, 50
1, 219384, Control_c, 0, 64, 69
1, 219399, Control_c, 0, 64, 56
1, 219400, Note_off_c, 0, 71, 25
1, 219414, Control_c, 0, 64, 0
1, 219419, Note_off_c, 0, 90, 50
1, 219420, Note_off_c, 0, 93, 55
1, 219445, Note_on_c, 0, 95, 56
1, 219451, Note_on_c, 0, 92, 44
1, 219464, Note_on_c, 0, 64, 32
1, 219502, Note_off_c, 0, 92, 59
1, 219509, Note_off_c, 0, 64, 45
1, 219518, Note_on_c, 0, 90, 56
1, 219518, Note_on_c, 0, 93, 62
1, 219542, Note_off_c, 0, 95, 47
1, 219546, Note_on_c, 0, 68, 41
1, 219586, Note_off_c, 0, 90, 51
1, 219592, Control_c, 0, 64, 37
1, 219607, Control_c, 0, 64, 46
1, 219622, Control_c, 0, 64, 53
1, 219622, Note_on_c, 0, 92, 59
1, 219636, Control_c, 0, 64, 59
1, 219637, Note_off_c, 0, 93, 35
1, 219645, Note_on_c, 0, 88, 46
1, 219648, Note_on_c, 0, 76, 41
1, 219651, Control_c, 0, 64, 66
1, 219666, Control_c, 0, 64, 73
1, 219680, Control_c, 0, 64, 80
1, 219695, Control_c, 0, 64, 88
1, 219701, Note_off_c, 0, 76, 44
1, 219703, Note_off_c, 0, 88, 53
1, 219710, Control_c, 0, 64, 96
1, 219724, Note_off_c, 0, 92, 59
1, 219725, Control_c, 0, 64, 127
1, 219765, Note_off_c, 0, 68, 33
1, 220266, Control_c, 0, 64, 99
1, 220281, Control_c, 0, 64, 82
1, 220296, Control_c, 0, 64, 69
1, 220311, Control_c, 0, 64, 55
1, 220326, Control_c, 0, 64, 0
1, 220445, Control_c, 0, 64, 34
1, 220460, Control_c, 0, 64, 53
1, 220475, Control_c, 0, 64, 65
1, 220490, Control_c, 0, 64, 72
1, 220505, Control_c, 0, 64, 81
1, 220519, Control_c, 0, 64, 92
1, 220534, Control_c, 0, 64, 115
1, 220549, Control_c, 0, 64, 127
1, 220554, Note_on_c, 0, 40, 45
1, 220580, Note_on_c, 0, 59, 89
1, 220600, Note_on_c, 0, 56, 70
1, 220606, Note_off_c, 0, 40, 61
1, 220685, Note_off_c, 0, 56, 54
1, 221029, Note_on_c, 0, 64, 45
1, 221032, Note_on_c, 0, 71, 54
1, 221057, Note_on_c, 0, 68, 51
1, 221063, Note_off_c, 0, 71, 66
1, 221065, Note_on_c, 0, 56, 79
1, 221097, Note_off_c, 0, 68, 63
1, 221104, Note_off_c, 0, 64, 62
1, 221123, Note_off_c, 0, 59, 58
1, 221238, Note_on_c, 0, 52, 81
1, 221252, Note_off_c, 0, 56, 58
1, 221393, Control_c, 0, 64, 94
1, 221408, Control_c, 0, 64, 70
1, 221422, Control_c, 0, 64, 49
1, 221426, Note_off_c, 0, 52, 58
1, 221437, Control_c, 0, 64, 0
1, 221443, Note_on_c, 0, 40, 51
1, 221452, Control_c, 0, 64, 45
1, 221466, Control_c, 0, 64, 59
1, 221481, Control_c, 0, 64, 68
1, 221489, Note_on_c, 0, 61, 73
1, 221496, Control_c, 0, 64, 80
1, 221506, Note_off_c, 0, 40, 60
1, 221511, Control_c, 0, 64, 100
1, 221526, Control_c, 0, 64, 127
1, 221539, Poly_aftertouch_c, 0, 57, 127
1, 221554, Note_off_c, 0, 61, 59
1, 221586, Poly_aftertouch_c, 0, 57, 0
1, 221657, Note_on_c, 0, 61, 67
1, 221669, Note_on_c, 0, 57, 59
1, 221703, Note_off_c, 0, 57, 65
1, 221718, Note_on_c, 0, 63, 76
1, 221720, Note_off_c, 0, 61, 61
1, 221733, Note_on_c, 0, 60, 64
1, 221786, Note_off_c, 0, 60, 59
1, 221790, Note_on_c, 0, 57, 61
1, 221795, Note_on_c, 0, 61, 72
1, 221822, Note_off_c, 0, 63, 59
1, 221831, Note_off_c, 0, 57, 64
1, 221842, Note_on_c, 0, 60, 66
1, 221846, Note_off_c, 0, 61, 61
1, 221856, Note_on_c, 0, 56, 71
1, 221903, Note_off_c, 0, 56, 61
1, 221910, Note_on_c, 0, 61, 72
1, 221923, Note_off_c, 0, 60, 64
1, 221953, Note_off_c, 0, 61, 60
1, 221986, Note_on_c, 0, 64, 26
1, 222020, Note_off_c, 0, 64, 54
1, 222022, Note_on_c, 0, 61, 62
1, 222060, Control_c, 0, 64, 98
1, 222081, Control_c, 0, 64, 77
1, 222096, Control_c, 0, 64, 64
1, 222111, Control_c, 0, 64, 42
1, 222123, Note_off_c, 0, 61, 60
1, 222126, Control_c, 0, 64, 0
1, 222140, Note_on_c, 0, 64, 58
1, 222162, Note_on_c, 0, 73, 45
1, 222192, Note_on_c, 0, 69, 19
1, 222275, Control_c, 0, 64, 52
1, 222289, Control_c, 0, 64, 66
1, 222304, Control_c, 0, 64, 76
1, 222319, Control_c, 0, 64, 96
1, 222333, Note_off_c, 0, 73, 62
1, 222334, Control_c, 0, 64, 127
1, 222343, Note_off_c, 0, 69, 56
1, 222484, Note_on_c, 0, 61, 69
1, 222503, Note_on_c, 0, 57, 56
1, 222513, Note_off_c, 0, 64, 60
1, 222554, Note_off_c, 0, 61, 59
1, 222676, Control_c, 0, 64, 112
1, 222691, Control_c, 0, 64, 76
1, 222705, Control_c, 0, 64, 53
1, 222714, Note_on_c, 0, 59, 65
1, 222720, Control_c, 0, 64, 0
1, 222734, Note_on_c, 0, 40, 51
1, 222750, Control_c, 0, 64, 34
1, 222758, Note_off_c, 0, 57, 36
1, 222761, Note_on_c, 0, 56, 33
1, 222765, Control_c, 0, 64, 60
1, 222771, Note_off_c, 0, 40, 62
1, 222779, Control_c, 0, 64, 72
1, 222794, Control_c, 0, 64, 89
1, 222797, Note_off_c, 0, 56, 50
1, 222801, Note_off_c, 0, 59, 61
1, 222809, Control_c, 0, 64, 127
1, 222979, Note_on_c, 0, 58, 43
1, 223031, Note_off_c, 0, 58, 62
1, 223126, Note_on_c, 0, 76, 80
1, 223153, Note_off_c, 0, 76, 66
1, 223297, Note_on_c, 0, 56, 64
1, 223302, Note_on_c, 0, 52, 65
1, 223338, Note_on_c, 0, 64, 53
1, 223372, Note_off_c, 0, 64, 64
1, 223391, Note_off_c, 0, 56, 50
1, 223417, Note_on_c, 0, 71, 59
1, 223440, Control_c, 0, 64, 81
1, 223454, Control_c, 0, 64, 62
1, 223469, Control_c, 0, 64, 0
1, 223485, Note_off_c, 0, 71, 51
1, 223486, Note_on_c, 0, 59, 78
1, 223497, Note_on_c, 0, 80, 77
1, 223499, Control_c, 0, 64, 37
1, 223514, Control_c, 0, 64, 55
1, 223515, Note_on_c, 0, 56, 63
1, 223528, Control_c, 0, 64, 66
1, 223536, Note_off_c, 0, 52, 26
1, 223543, Control_c, 0, 64, 77
1, 223558, Control_c, 0, 64, 101
1, 223564, Note_off_c, 0, 80, 61
1, 223581, Control_c, 0, 64, 127
1, 223637, Note_off_c, 0, 56, 57
1, 223660, Note_off_c, 0, 59, 59
1, 223744, Note_on_c, 0, 68, 39
1, 223774, Note_off_c, 0, 68, 54
1, 223799, Note_on_c, 0, 76, 60
1, 223881, Note_off_c, 0, 76, 62
1, 223883, Note_on_c, 0, 83, 75
1, 223914, Note_off_c, 0, 83, 63
1, 224125, Note_on_c, 0, 71, 84
1, 224545, Note_on_c, 0, 59, 38
1, 224556, Note_on_c, 0, 51, 34
1, 224561, Note_on_c, 0, 66, 42
1, 224580, Control_c, 0, 64, 85
1, 224595, Control_c, 0, 64, 66
1, 224609, Control_c, 0, 64, 40
1, 224624, Control_c, 0, 64, 0
1, 224654, Control_c, 0, 64, 42
1, 224669, Control_c, 0, 64, 53
1, 224684, Control_c, 0, 64, 61
1, 224699, Control_c, 0, 64, 67
1, 224714, Control_c, 0, 64, 77
1, 224728, Control_c, 0, 64, 88
1, 224743, Control_c, 0, 64, 98
1, 224758, Control_c, 0, 64, 108
1, 224773, Control_c, 0, 64, 127
1, 224819, Note_off_c, 0, 71, 52
1, 225069, Note_on_c, 0, 71, 47
1, 225128, Note_off_c, 0, 71, 54
1, 225277, Note_on_c, 0, 71, 70
1, 225362, Note_off_c, 0, 71, 55
1, 225447, Note_on_c, 0, 70, 73
1, 225447, Control_c, 0, 64, 88
1, 225462, Control_c, 0, 64, 69
1, 225477, Control_c, 0, 64, 48
1, 225492, Control_c, 0, 64, 0
1, 225521, Control_c, 0, 64, 37
1, 225536, Control_c, 0, 64, 57
1, 225551, Control_c, 0, 64, 67
1, 225566, Control_c, 0, 64, 74
1, 225581, Control_c, 0, 64, 82
1, 225596, Control_c, 0, 64, 86
1, 225609, Note_on_c, 0, 71, 75
1, 225611, Control_c, 0, 64, 88
1, 225625, Control_c, 0, 64, 91
1, 225640, Control_c, 0, 64, 92
1, 225642, Note_off_c, 0, 70, 28
1, 225656, Control_c, 0, 64, 93
1, 225670, Control_c, 0, 64, 93
1, 225701, Note_off_c, 0, 71, 60
1, 225715, Control_c, 0, 64, 91
1, 225730, Control_c, 0, 64, 81
1, 225744, Control_c, 0, 64, 68
1, 225759, Control_c, 0, 64, 54
1, 225763, Note_on_c, 0, 69, 69
1, 225774, Control_c, 0, 64, 0
1, 225805, Control_c, 0, 64, 38
1, 225817, Note_off_c, 0, 59, 38
1, 225827, Control_c, 0, 64, 57
1, 225842, Control_c, 0, 64, 65
1, 225856, Control_c, 0, 64, 72
1, 225871, Control_c, 0, 64, 77
1, 225886, Control_c, 0, 64, 81
1, 225901, Control_c, 0, 64, 83
1, 225911, Note_off_c, 0, 69, 49
1, 225916, Control_c, 0, 64, 86
1, 225924, Note_on_c, 0, 71, 72
1, 225930, Control_c, 0, 64, 89
1, 225945, Control_c, 0, 64, 93
1, 225960, Control_c, 0, 64, 95
1, 225989, Control_c, 0, 64, 97
1, 226092, Note_off_c, 0, 71, 37
1, 226109, Control_c, 0, 64, 95
1, 226110, Note_off_c, 0, 66, 28
1, 226124, Control_c, 0, 64, 91
1, 226127, Note_on_c, 0, 68, 52
1, 226129, Note_on_c, 0, 59, 33
1, 226130, Note_on_c, 0, 52, 32
1, 226138, Control_c, 0, 64, 83
1, 226147, Note_on_c, 0, 64, 39
1, 226153, Control_c, 0, 64, 72
1, 226162, Note_off_c, 0, 51, 39
1, 226168, Control_c, 0, 64, 61
1, 226182, Control_c, 0, 64, 34
1, 226197, Control_c, 0, 64, 0
1, 226271, Control_c, 0, 64, 36
1, 226286, Control_c, 0, 64, 57
1, 226301, Control_c, 0, 64, 68
1, 226316, Control_c, 0, 64, 78
1, 226330, Control_c, 0, 64, 87
1, 226345, Control_c, 0, 64, 94
1, 226360, Control_c, 0, 64, 101
1, 226374, Control_c, 0, 64, 112
1, 226379, Note_on_c, 0, 71, 72
1, 226389, Control_c, 0, 64, 127
1, 226451, Note_off_c, 0, 71, 60
1, 226500, Note_off_c, 0, 59, 41
1, 226538, Note_on_c, 0, 71, 76
1, 226616, Note_off_c, 0, 71, 61
1, 226692, Note_on_c, 0, 71, 76
1, 226760, Note_off_c, 0, 64, 32
1, 226794, Note_off_c, 0, 71, 59
1, 226851, Note_on_c, 0, 70, 71
1, 226861, Note_on_c, 0, 51, 37
1, 226864, Note_on_c, 0, 59, 33
1, 226866, Note_on_c, 0, 66, 57
1, 226871, Note_off_c, 0, 68, 41
1, 226872, Control_c, 0, 64, 93
1, 226887, Control_c, 0, 64, 72
1, 226902, Control_c, 0, 64, 51
1, 226916, Control_c, 0, 64, 0
1, 226958, Note_off_c, 0, 52, 49
1, 227005, Control_c, 0, 64, 51
1, 227009, Note_on_c, 0, 71, 76
1, 227020, Control_c, 0, 64, 65
1, 227035, Control_c, 0, 64, 72
1, 227049, Note_off_c, 0, 70, 56
1, 227050, Control_c, 0, 64, 75
1, 227065, Control_c, 0, 64, 75
1, 227101, Note_off_c, 0, 71, 61
1, 227109, Control_c, 0, 64, 72
1, 227123, Control_c, 0, 64, 64
1, 227138, Control_c, 0, 64, 50
1, 227153, Control_c, 0, 64, 0
1, 227162, Note_on_c, 0, 69, 69
1, 227212, Control_c, 0, 64, 43
1, 227227, Control_c, 0, 64, 57
1, 227242, Control_c, 0, 64, 65
1, 227257, Control_c, 0, 64, 71
1, 227271, Control_c, 0, 64, 75
1, 227286, Control_c, 0, 64, 77
1, 227297, Note_on_c, 0, 71, 76
1, 227298, Note_off_c, 0, 59, 41
1, 227301, Control_c, 0, 64, 80
1, 227304, Note_off_c, 0, 69, 49
1, 227323, Control_c, 0, 64, 82
1, 227338, Control_c, 0, 64, 84
1, 227353, Control_c, 0, 64, 86
1, 227368, Control_c, 0, 64, 86
1, 227383, Control_c, 0, 64, 87
1, 227414, Control_c, 0, 64, 87
1, 227472, Note_off_c, 0, 71, 38
1, 227473, Control_c, 0, 64, 87
1, 227484, Note_on_c, 0, 52, 40
1, 227488, Control_c, 0, 64, 85
1, 227496, Note_on_c, 0, 59, 34
1, 227499, Note_on_c, 0, 68, 53
1, 227502, Control_c, 0, 64, 76
1, 227506, Note_off_c, 0, 66, 37
1, 227517, Control_c, 0, 64, 65
1, 227518, Note_on_c, 0, 64, 42
1, 227527, Note_off_c, 0, 51, 44
1, 227532, Control_c, 0, 64, 50
1, 227547, Control_c, 0, 64, 0
1, 227635, Control_c, 0, 64, 55
1, 227650, Control_c, 0, 64, 67
1, 227665, Control_c, 0, 64, 76
1, 227680, Control_c, 0, 64, 88
1, 227694, Control_c, 0, 64, 99
1, 227709, Note_on_c, 0, 71, 71
1, 227709, Control_c, 0, 64, 116
1, 227724, Control_c, 0, 64, 127
1, 227775, Note_off_c, 0, 71, 58
1, 227828, Control_c, 0, 67, 21
1, 227856, Note_off_c, 0, 59, 40
1, 227858, Control_c, 0, 67, 23
1, 227888, Control_c, 0, 67, 28
1, 227890, Note_on_c, 0, 71, 72
1, 227902, Control_c, 0, 67, 31
1, 227917, Control_c, 0, 67, 34
1, 227932, Control_c, 0, 67, 43
1, 227946, Control_c, 0, 67, 53
1, 227957, Note_off_c, 0, 71, 60
1, 227961, Control_c, 0, 67, 60
1, 227976, Control_c, 0, 67, 65
1, 227991, Control_c, 0, 67, 69
1, 228006, Control_c, 0, 67, 73
1, 228020, Control_c, 0, 67, 77
1, 228035, Control_c, 0, 67, 81
1, 228050, Control_c, 0, 67, 84
1, 228065, Control_c, 0, 67, 85
1, 228082, Note_off_c, 0, 68, 41
1, 228088, Control_c, 0, 67, 86
1, 228090, Note_on_c, 0, 71, 63
1, 228130, Note_off_c, 0, 71, 56
1, 228133, Note_off_c, 0, 64, 26
1, 228146, Control_c, 0, 67, 86
1, 228228, Note_on_c, 0, 51, 34
1, 228237, Control_c, 0, 67, 87
1, 228266, Control_c, 0, 67, 88
1, 228274, Note_on_c, 0, 59, 19
1, 228296, Control_c, 0, 67, 90
1, 228311, Control_c, 0, 67, 94
1, 228318, Note_off_c, 0, 52, 30
1, 228325, Control_c, 0, 67, 97
1, 228355, Control_c, 0, 67, 99
1, 228384, Control_c, 0, 64, 106
1, 228399, Control_c, 0, 64, 96
1, 228405, Note_on_c, 0, 70, 45
1, 228414, Control_c, 0, 64, 87
1, 228420, Note_on_c, 0, 66, 35
1, 228429, Control_c, 0, 64, 80
1, 228429, Control_c, 0, 67, 101
1, 228443, Control_c, 0, 64, 72
1, 228443, Control_c, 0, 67, 103
1, 228458, Control_c, 0, 64, 65
1, 228458, Control_c, 0, 67, 105
1, 228473, Control_c, 0, 64, 58
1, 228473, Control_c, 0, 67, 107
1, 228488, Control_c, 0, 64, 51
1, 228503, Control_c, 0, 64, 48
1, 228503, Control_c, 0, 67, 111
1, 228517, Control_c, 0, 64, 47
1, 228532, Control_c, 0, 64, 45
1, 228532, Control_c, 0, 67, 114
1, 228547, Control_c, 0, 64, 41
1, 228562, Control_c, 0, 64, 34
1, 228562, Control_c, 0, 67, 117
1, 228575, Note_on_c, 0, 73, 53
1, 228577, Control_c, 0, 64, 0
1, 228577, Control_c, 0, 67, 119
1, 228592, Control_c, 0, 67, 122
1, 228607, Control_c, 0, 67, 125
1, 228627, Note_off_c, 0, 70, 36
1, 228636, Control_c, 0, 67, 127
1, 228721, Note_on_c, 0, 71, 55
1, 228779, Note_off_c, 0, 73, 36
1, 228944, Note_on_c, 0, 69, 38
1, 228964, Note_off_c, 0, 71, 36
1, 229119, Control_c, 0, 64, 51
1, 229134, Control_c, 0, 64, 61
1, 229148, Control_c, 0, 64, 63
1, 229163, Control_c, 0, 64, 66
1, 229178, Control_c, 0, 64, 69
1, 229192, Control_c, 0, 64, 74
1, 229207, Control_c, 0, 64, 82
1, 229222, Control_c, 0, 64, 91
1, 229237, Control_c, 0, 64, 101
1, 229252, Control_c, 0, 64, 119
1, 229266, Control_c, 0, 64, 127
1, 229301, Note_on_c, 0, 73, 42
1, 229313, Note_off_c, 0, 51, 41
1, 229316, Note_off_c, 0, 59, 39
1, 229428, Note_off_c, 0, 69, 36
1, 229435, Note_off_c, 0, 73, 35
1, 229463, Note_off_c, 0, 66, 39
1, 229701, Note_on_c, 0, 71, 47
1, 229786, Note_on_c, 0, 52, 40
1, 229793, Control_c, 0, 64, 90
1, 229808, Control_c, 0, 64, 70
1, 229811, Note_on_c, 0, 59, 28
1, 229823, Control_c, 0, 64, 52
1, 229829, Note_on_c, 0, 68, 45
1, 229838, Control_c, 0, 64, 0
1, 229839, Note_on_c, 0, 64, 25
1, 229849, Note_off_c, 0, 71, 35
1, 229868, Control_c, 0, 64, 46
1, 229882, Control_c, 0, 64, 60
1, 229897, Control_c, 0, 64, 70
1, 229912, Control_c, 0, 64, 83
1, 229927, Control_c, 0, 64, 127
1, 229927, Control_c, 0, 67, 121
1, 229937, Note_off_c, 0, 64, 37
1, 229941, Control_c, 0, 67, 101
1, 229956, Control_c, 0, 67, 71
1, 229971, Control_c, 0, 67, 37
1, 229986, Control_c, 0, 67, 0
1, 230203, Note_on_c, 0, 56, 44
1, 230208, Note_off_c, 0, 59, 40
1, 230219, Note_on_c, 0, 64, 58
1, 230245, Note_off_c, 0, 56, 58
1, 230253, Note_off_c, 0, 52, 37
1, 230259, Note_off_c, 0, 68, 57
1, 230260, Note_off_c, 0, 64, 63
1, 230575, Note_on_c, 0, 40, 49
1, 230586, Control_c, 0, 64, 93
1, 230601, Control_c, 0, 64, 64
1, 230616, Note_on_c, 0, 59, 85
1, 230616, Control_c, 0, 64, 40
1, 230631, Control_c, 0, 64, 41
1, 230638, Note_on_c, 0, 56, 63
1, 230646, Control_c, 0, 64, 54
1, 230660, Control_c, 0, 64, 65
1, 230675, Control_c, 0, 64, 77
1, 230690, Control_c, 0, 64, 127
1, 230708, Note_off_c, 0, 40, 61
1, 230718, Note_off_c, 0, 56, 52
1, 231020, Note_on_c, 0, 71, 56
1, 231031, Note_on_c, 0, 68, 53
1, 231045, Note_off_c, 0, 71, 65
1, 231051, Note_on_c, 0, 56, 78
1, 231078, Note_off_c, 0, 68, 64
1, 231079, Note_on_c, 0, 52, 63
1, 231099, Note_off_c, 0, 59, 59
1, 231155, Note_off_c, 0, 52, 59
1, 231325, Note_off_c, 0, 56, 51
1, 231335, Control_c, 0, 64, 79
1, 231350, Control_c, 0, 64, 58
1, 231364, Control_c, 0, 64, 0
1, 231382, Note_on_c, 0, 40, 63
1, 231395, Control_c, 0, 64, 58
1, 231410, Control_c, 0, 64, 72
1, 231425, Control_c, 0, 64, 98
1, 231437, Note_off_c, 0, 40, 60
1, 231440, Control_c, 0, 64, 127
1, 231450, Note_on_c, 0, 62, 87
1, 231471, Note_on_c, 0, 59, 62
1, 231741, Note_on_c, 0, 74, 86
1, 231760, Note_on_c, 0, 71, 66
1, 231852, Note_off_c, 0, 71, 62
1, 231886, Note_off_c, 0, 74, 67
1, 231934, Note_off_c, 0, 59, 54
1, 232087, Note_on_c, 0, 76, 60
1, 232090, Note_on_c, 0, 73, 67
1, 232108, Note_off_c, 0, 76, 63
1, 232116, Note_off_c, 0, 73, 69
1, 232179, Note_on_c, 0, 74, 67
1, 232191, Note_on_c, 0, 71, 55
1, 232231, Note_off_c, 0, 74, 45
1, 232236, Note_off_c, 0, 71, 60
1, 232246, Note_on_c, 0, 69, 58
1, 232248, Control_c, 0, 64, 108
1, 232251, Note_on_c, 0, 73, 74
1, 232263, Control_c, 0, 64, 77
1, 232278, Control_c, 0, 64, 58
1, 232292, Control_c, 0, 64, 0
1, 232310, Note_off_c, 0, 73, 60
1, 232312, Note_off_c, 0, 69, 52
1, 232351, Control_c, 0, 64, 38
1, 232354, Note_on_c, 0, 71, 58
1, 232366, Control_c, 0, 64, 58
1, 232372, Note_on_c, 0, 59, 48
1, 232374, Note_on_c, 0, 68, 54
1, 232381, Control_c, 0, 64, 67
1, 232385, Note_off_c, 0, 71, 65
1, 232389, Note_off_c, 0, 62, 58
1, 232395, Control_c, 0, 64, 72
1, 232396, Note_off_c, 0, 68, 64
1, 232397, Note_on_c, 0, 52, 40
1, 232410, Control_c, 0, 64, 74
1, 232425, Control_c, 0, 64, 75
1, 232455, Control_c, 0, 64, 75
1, 232499, Control_c, 0, 64, 75
1, 232514, Control_c, 0, 64, 74
1, 232529, Control_c, 0, 64, 70
1, 232543, Control_c, 0, 64, 64
1, 232565, Control_c, 0, 64, 55
1, 232580, Control_c, 0, 64, 38
1, 232595, Control_c, 0, 64, 0
1, 232598, Note_on_c, 0, 74, 58
1, 232602, Note_on_c, 0, 66, 52
1, 232624, Note_off_c, 0, 66, 62
1, 232625, Note_off_c, 0, 74, 59
1, 232809, Note_on_c, 0, 64, 46
1, 232813, Note_on_c, 0, 73, 51
1, 232848, Note_off_c, 0, 73, 62
1, 232851, Note_off_c, 0, 64, 62
1, 233051, Note_on_c, 0, 62, 43
1, 233053, Note_on_c, 0, 71, 50
1, 233092, Note_off_c, 0, 62, 60
1, 233105, Note_off_c, 0, 71, 59
1, 233383, Note_off_c, 0, 59, 47
1, 233399, Note_on_c, 0, 69, 38
1, 233413, Note_off_c, 0, 52, 39
1, 233416, Note_on_c, 0, 57, 37
1, 233418, Note_on_c, 0, 61, 32
1, 233448, Control_c, 0, 64, 42
1, 233463, Control_c, 0, 64, 52
1, 233478, Control_c, 0, 64, 60
1, 233492, Control_c, 0, 64, 68
1, 233507, Control_c, 0, 64, 76
1, 233522, Control_c, 0, 64, 87
1, 233537, Control_c, 0, 64, 105
1, 233552, Control_c, 0, 64, 127
1, 233638, Note_off_c, 0, 61, 41
1, 233652, Note_off_c, 0, 57, 54
1, 233695, Note_off_c, 0, 69, 36
1, 233831, Note_on_c, 0, 61, 34
1, 233836, Note_on_c, 0, 69, 42
1, 233861, Note_off_c, 0, 69, 58
1, 233864, Note_on_c, 0, 57, 72
1, 233866, Note_on_c, 0, 64, 24
1, 233904, Note_off_c, 0, 64, 45
1, 233907, Note_off_c, 0, 61, 53
1, 234036, Note_on_c, 0, 59, 81
1, 234082, Note_off_c, 0, 57, 63
1, 234246, Note_on_c, 0, 45, 44
1, 234271, Control_c, 0, 64, 87
1, 234286, Control_c, 0, 64, 65
1, 234295, Note_on_c, 0, 61, 71
1, 234299, Note_off_c, 0, 59, 59
1, 234301, Control_c, 0, 64, 34
1, 234315, Control_c, 0, 64, 0
1, 234360, Control_c, 0, 64, 44
1, 234375, Control_c, 0, 64, 64
1, 234390, Control_c, 0, 64, 76
1, 234404, Control_c, 0, 64, 105
1, 234419, Control_c, 0, 64, 127
1, 234434, Note_off_c, 0, 45, 52
1, 234551, Note_off_c, 0, 61, 36
1, 234686, Note_on_c, 0, 61, 21
1, 234700, Note_on_c, 0, 57, 75
1, 234703, Note_on_c, 0, 69, 47
1, 234722, Note_on_c, 0, 64, 39
1, 234756, Note_off_c, 0, 69, 58
1, 234783, Note_off_c, 0, 64, 56
1, 234834, Note_off_c, 0, 61, 50
1, 235109, Control_c, 0, 64, 115
1, 235120, Note_on_c, 0, 38, 34
1, 235124, Control_c, 0, 64, 83
1, 235138, Control_c, 0, 64, 64
1, 235153, Control_c, 0, 64, 0
1, 235156, Note_on_c, 0, 54, 70
1, 235185, Note_off_c, 0, 57, 56
1, 235198, Control_c, 0, 64, 44
1, 235212, Control_c, 0, 64, 60
1, 235227, Control_c, 0, 64, 69
1, 235242, Control_c, 0, 64, 79
1, 235257, Control_c, 0, 64, 96
1, 235272, Control_c, 0, 64, 127
1, 235277, Note_off_c, 0, 38, 52
1, 235372, Note_off_c, 0, 54, 54
1, 235591, Control_c, 0, 64, 112
1, 235606, Control_c, 0, 64, 80
1, 235610, Note_on_c, 0, 62, 43
1, 235613, Note_on_c, 0, 71, 48
1, 235614, Note_on_c, 0, 66, 41
1, 235621, Control_c, 0, 64, 63
1, 235625, Note_on_c, 0, 59, 67
1, 235635, Control_c, 0, 64, 43
1, 235650, Control_c, 0, 64, 39
1, 235665, Control_c, 0, 64, 51
1, 235680, Control_c, 0, 64, 61
1, 235694, Control_c, 0, 64, 68
1, 235709, Control_c, 0, 64, 79
1, 235724, Control_c, 0, 64, 101
1, 235739, Control_c, 0, 64, 127
1, 235750, Note_off_c, 0, 71, 63
1, 235758, Note_off_c, 0, 62, 58
1, 235782, Note_off_c, 0, 66, 63
1, 236020, Control_c, 0, 64, 108
1, 236035, Control_c, 0, 64, 76
1, 236050, Control_c, 0, 64, 60
1, 236065, Control_c, 0, 64, 46
1, 236079, Control_c, 0, 64, 52
1, 236094, Control_c, 0, 64, 58
1, 236109, Control_c, 0, 64, 64
1, 236124, Control_c, 0, 64, 73
1, 236139, Control_c, 0, 64, 90
1, 236153, Control_c, 0, 64, 127
1, 236182, Note_on_c, 0, 39, 23
1, 236208, Note_off_c, 0, 39, 0
1, 236228, Poly_aftertouch_c, 0, 39, 0
1, 236288, Note_off_c, 0, 59, 27
1, 236516, Note_on_c, 0, 51, 34
1, 236518, Note_on_c, 0, 54, 26
1, 236536, Note_on_c, 0, 66, 36
1, 236545, Note_on_c, 0, 69, 57
1, 236552, Note_on_c, 0, 59, 35
1, 236638, Note_off_c, 0, 54, 40
1, 236657, Note_off_c, 0, 51, 36
1, 236837, Note_off_c, 0, 59, 41
1, 236969, Note_on_c, 0, 40, 38
1, 236998, Note_off_c, 0, 69, 52
1, 237007, Control_c, 0, 64, 94
1, 237010, Note_on_c, 0, 68, 53
1, 237010, Note_off_c, 0, 66, 47
1, 237022, Control_c, 0, 64, 71
1, 237037, Control_c, 0, 64, 55
1, 237058, Control_c, 0, 64, 35
1, 237073, Control_c, 0, 64, 40
1, 237088, Control_c, 0, 64, 53
1, 237103, Control_c, 0, 64, 64
1, 237118, Control_c, 0, 64, 74
1, 237132, Control_c, 0, 64, 93
1, 237147, Control_c, 0, 64, 127
1, 237171, Note_off_c, 0, 40, 60
1, 237341, Note_off_c, 0, 68, 52
1, 237406, Note_on_c, 0, 52, 38
1, 237420, Note_on_c, 0, 56, 36
1, 237426, Note_on_c, 0, 64, 25
1, 237428, Note_on_c, 0, 59, 31
1, 237451, Note_off_c, 0, 56, 54
1, 237455, Note_off_c, 0, 52, 59
1, 237597, Note_on_c, 0, 68, 69
1, 237609, Note_off_c, 0, 59, 39
1, 237639, Note_off_c, 0, 64, 40
1, 237768, Note_on_c, 0, 35, 48
1, 237770, Control_c, 0, 64, 82
1, 237785, Control_c, 0, 64, 64
1, 237808, Control_c, 0, 64, 45
1, 237819, Note_off_c, 0, 68, 59
1, 237823, Control_c, 0, 64, 41
1, 237837, Control_c, 0, 64, 49
1, 237850, Note_on_c, 0, 69, 61
1, 237852, Control_c, 0, 64, 60
1, 237867, Control_c, 0, 64, 70
1, 237881, Note_off_c, 0, 35, 58
1, 237881, Control_c, 0, 64, 83
1, 237896, Control_c, 0, 64, 107
1, 237911, Control_c, 0, 64, 127
1, 237955, Note_off_c, 0, 69, 52
1, 238061, Note_on_c, 0, 47, 44
1, 238131, Note_on_c, 0, 57, 44
1, 238135, Note_on_c, 0, 54, 43
1, 238135, Note_off_c, 0, 47, 59
1, 238160, Note_on_c, 0, 63, 63
1, 238163, Note_off_c, 0, 57, 54
1, 238169, Note_off_c, 0, 54, 61
1, 238217, Note_on_c, 0, 71, 75
1, 238225, Note_off_c, 0, 63, 61
1, 238281, Note_off_c, 0, 71, 61
1, 238355, Note_on_c, 0, 40, 45
1, 238432, Note_on_c, 0, 47, 48
1, 238461, Note_on_c, 0, 56, 59
1, 238488, Control_c, 0, 64, 78
1, 238500, Note_off_c, 0, 56, 61
1, 238503, Control_c, 0, 64, 57
1, 238505, Note_on_c, 0, 52, 56
1, 238518, Control_c, 0, 64, 0
1, 238522, Note_on_c, 0, 64, 61
1, 238552, Note_off_c, 0, 40, 38
1, 238570, Control_c, 0, 64, 62
1, 238586, Control_c, 0, 64, 77
1, 238590, Note_on_c, 0, 71, 81
1, 238600, Note_off_c, 0, 47, 61
1, 238601, Control_c, 0, 64, 124
1, 238616, Control_c, 0, 64, 127
1, 238628, Note_off_c, 0, 64, 59
1, 238644, Note_off_c, 0, 52, 62
1, 238777, Note_on_c, 0, 64, 73
1, 238797, Note_off_c, 0, 64, 71
1, 238813, Note_off_c, 0, 71, 61
1, 238895, Note_on_c, 0, 52, 48
1, 238963, Note_on_c, 0, 56, 46
1, 239006, Note_on_c, 0, 59, 44
1, 239032, Note_on_c, 0, 86, 89
1, 239040, Note_on_c, 0, 74, 74
1, 239045, Control_c, 0, 64, 79
1, 239047, Note_on_c, 0, 83, 69
1, 239060, Control_c, 0, 64, 60
1, 239075, Control_c, 0, 64, 51
1, 239090, Control_c, 0, 64, 56
1, 239104, Control_c, 0, 64, 62
1, 239119, Control_c, 0, 64, 69
1, 239134, Control_c, 0, 64, 81
1, 239149, Control_c, 0, 64, 112
1, 239164, Control_c, 0, 64, 127
1, 239166, Note_off_c, 0, 59, 55
1, 239172, Note_off_c, 0, 74, 53
1, 239197, Note_off_c, 0, 86, 63
1, 239210, Note_off_c, 0, 83, 63
1, 239329, Note_off_c, 0, 56, 38
1, 239439, Note_on_c, 0, 85, 88
1, 239444, Note_on_c, 0, 73, 81
1, 239451, Note_on_c, 0, 61, 58
1, 239452, Note_on_c, 0, 57, 49
1, 239453, Control_c, 0, 64, 86
1, 239454, Note_on_c, 0, 81, 73
1, 239468, Control_c, 0, 64, 65
1, 239483, Control_c, 0, 64, 56
1, 239498, Control_c, 0, 64, 59
1, 239513, Control_c, 0, 64, 63
1, 239527, Control_c, 0, 64, 68
1, 239542, Control_c, 0, 64, 79
1, 239557, Control_c, 0, 64, 122
1, 239567, Note_off_c, 0, 52, 61
1, 239572, Control_c, 0, 64, 127
1, 239574, Note_off_c, 0, 81, 60
1, 239585, Note_off_c, 0, 61, 56
1, 239587, Note_off_c, 0, 85, 64
1, 239592, Note_off_c, 0, 57, 53
1, 239620, Note_off_c, 0, 73, 61
1, 239797, Note_on_c, 0, 52, 57
1, 239845, Note_on_c, 0, 83, 88
1, 239849, Note_on_c, 0, 56, 62
1, 239853, Control_c, 0, 64, 112
1, 239854, Note_on_c, 0, 71, 70
1, 239860, Note_on_c, 0, 80, 70
1, 239868, Control_c, 0, 64, 75
1, 239870, Note_on_c, 0, 62, 65
1, 239883, Control_c, 0, 64, 57
1, 239898, Control_c, 0, 64, 45
1, 239913, Control_c, 0, 64, 53
1, 239927, Control_c, 0, 64, 62
1, 239942, Control_c, 0, 64, 70
1, 239946, Note_off_c, 0, 62, 63
1, 239957, Control_c, 0, 64, 94
1, 239971, Note_off_c, 0, 52, 62
1, 239972, Control_c, 0, 64, 127
1, 239972, Note_off_c, 0, 56, 61
1, 240073, Note_off_c, 0, 71, 60
1, 240116, Poly_aftertouch_c, 0, 78, 127
1, 240165, Note_off_c, 0, 83, 59
1, 240166, Note_on_c, 0, 45, 61
1, 240219, Note_on_c, 0, 49, 69
1, 240221, Note_off_c, 0, 80, 54
1, 240277, Poly_aftertouch_c, 0, 78, 0
1, 240291, Control_c, 0, 64, 99
1, 240295, Note_on_c, 0, 57, 91
1, 240306, Control_c, 0, 64, 68
1, 240321, Control_c, 0, 64, 37
1, 240336, Control_c, 0, 64, 0
1, 240350, Control_c, 0, 64, 34
1, 240365, Control_c, 0, 64, 62
1, 240380, Control_c, 0, 64, 83
1, 240395, Control_c, 0, 64, 127
1, 240413, Note_off_c, 0, 45, 61
1, 240462, Note_off_c, 0, 49, 65
1, 240629, Note_off_c, 0, 57, 63
1, 240747, Note_on_c, 0, 69, 70
1, 240750, Note_on_c, 0, 57, 93
1, 240754, Note_on_c, 0, 64, 63
1, 240765, Note_on_c, 0, 61, 55
1, 240864, Note_off_c, 0, 61, 52
1, 240931, Note_off_c, 0, 57, 66
1, 240946, Note_on_c, 0, 59, 94
1, 241040, Note_off_c, 0, 59, 61
1, 241129, Note_on_c, 0, 45, 48
1, 241194, Note_on_c, 0, 52, 64
1, 241232, Note_on_c, 0, 61, 93
1, 241263, Control_c, 0, 64, 96
1, 241278, Control_c, 0, 64, 71
1, 241293, Control_c, 0, 64, 49
1, 241298, Note_off_c, 0, 64, 56
1, 241307, Control_c, 0, 64, 0
1, 241323, Note_off_c, 0, 69, 39
1, 241352, Control_c, 0, 64, 41
1, 241367, Control_c, 0, 64, 59
1, 241381, Control_c, 0, 64, 70
1, 241392, Note_off_c, 0, 45, 54
1, 241396, Control_c, 0, 64, 85
1, 241411, Control_c, 0, 64, 127
1, 241555, Note_off_c, 0, 61, 52
1, 241560, Poly_aftertouch_c, 0, 67, 127
1, 241625, Poly_aftertouch_c, 0, 67, 0
1, 241674, Note_on_c, 0, 57, 83
1, 241687, Note_on_c, 0, 61, 59
1, 241693, Note_on_c, 0, 69, 60
1, 241707, Note_off_c, 0, 52, 62
1, 241714, Note_off_c, 0, 57, 60
1, 241728, Note_off_c, 0, 69, 62
1, 241738, Note_off_c, 0, 61, 50
1, 241849, Control_c, 0, 64, 83
1, 241852, Note_on_c, 0, 42, 76
1, 241863, Control_c, 0, 64, 62
1, 241878, Control_c, 0, 64, 38
1, 241893, Control_c, 0, 64, 45
1, 241908, Control_c, 0, 64, 58
1, 241922, Control_c, 0, 64, 66
1, 241937, Control_c, 0, 64, 77
1, 241952, Control_c, 0, 64, 104
1, 241959, Note_off_c, 0, 42, 64
1, 241967, Control_c, 0, 64, 127
1, 242010, Note_on_c, 0, 57, 89
1, 242115, Note_off_c, 0, 57, 60
1, 242158, Note_on_c, 0, 62, 83
1, 242325, Note_on_c, 0, 69, 85
1, 242772, Note_on_c, 0, 74, 92
1, 244109, Note_off_c, 0, 74, 54
1, 244325, Note_off_c, 0, 62, 36
1, 244614, Note_on_c, 0, 74, 46
1, 244689, Note_off_c, 0, 69, 40
1, 244703, Note_off_c, 0, 74, 45
1, 244760, Note_on_c, 0, 52, 30
1, 244988, Note_on_c, 0, 59, 29
1, 245025, Note_on_c, 0, 74, 43
1, 245046, Note_on_c, 0, 62, 34
1, 245046, Note_on_c, 0, 64, 28
1, 245096, Control_c, 0, 64, 100
1, 245111, Control_c, 0, 64, 78
1, 245126, Control_c, 0, 64, 63
1, 245140, Control_c, 0, 64, 34
1, 245155, Control_c, 0, 64, 0
1, 245229, Control_c, 0, 64, 43
1, 245244, Control_c, 0, 64, 55
1, 245259, Control_c, 0, 64, 63
1, 245273, Control_c, 0, 64, 70
1, 245296, Control_c, 0, 64, 78
1, 245311, Control_c, 0, 64, 90
1, 245325, Control_c, 0, 64, 111
1, 245340, Control_c, 0, 64, 127
1, 245368, Note_on_c, 0, 68, 51
1, 245441, Note_off_c, 0, 68, 51
1, 245575, Note_on_c, 0, 68, 61
1, 245626, Note_off_c, 0, 68, 49
1, 245744, Note_off_c, 0, 74, 53
1, 245758, Note_on_c, 0, 68, 55
1, 245783, Note_off_c, 0, 68, 63
1, 245820, Note_off_c, 0, 64, 37
1, 245839, Note_off_c, 0, 62, 39
1, 245921, Note_on_c, 0, 68, 55
1, 245946, Note_off_c, 0, 68, 64
1, 246026, Note_on_c, 0, 68, 64
1, 246066, Note_off_c, 0, 68, 63
1, 246099, Note_on_c, 0, 69, 60
1, 246146, Note_off_c, 0, 69, 57
1, 246156, Note_on_c, 0, 68, 60
1, 246185, Note_off_c, 0, 68, 66
1, 246196, Note_on_c, 0, 66, 59
1, 246236, Note_off_c, 0, 66, 59
1, 246238, Control_c, 0, 64, 96
1, 246251, Note_on_c, 0, 68, 64
1, 246253, Control_c, 0, 64, 75
1, 246268, Control_c, 0, 64, 60
1, 246283, Note_off_c, 0, 68, 60
1, 246283, Control_c, 0, 64, 0
1, 246316, Note_on_c, 0, 69, 55
1, 246356, Control_c, 0, 64, 38
1, 246371, Control_c, 0, 64, 55
1, 246386, Control_c, 0, 64, 66
1, 246401, Control_c, 0, 64, 75
1, 246415, Control_c, 0, 64, 86
1, 246430, Control_c, 0, 64, 100
1, 246445, Control_c, 0, 64, 117
1, 246450, Note_off_c, 0, 52, 52
1, 246460, Control_c, 0, 64, 127
1, 246492, Note_off_c, 0, 69, 59
1, 246495, Note_off_c, 0, 59, 50
1, 246505, Note_on_c, 0, 71, 59
1, 246659, Note_off_c, 0, 71, 54
1, 246683, Control_c, 0, 64, 87
1, 246692, Note_on_c, 0, 45, 41
1, 246698, Control_c, 0, 64, 69
1, 246706, Note_on_c, 0, 69, 52
1, 246712, Control_c, 0, 64, 56
1, 246727, Control_c, 0, 64, 48
1, 246732, Note_on_c, 0, 61, 38
1, 246742, Control_c, 0, 64, 57
1, 246757, Control_c, 0, 64, 63
1, 246771, Control_c, 0, 64, 69
1, 246793, Control_c, 0, 64, 79
1, 246808, Control_c, 0, 64, 96
1, 246816, Note_off_c, 0, 69, 61
1, 246823, Control_c, 0, 64, 127
1, 246883, Note_off_c, 0, 45, 47
1, 246892, Note_on_c, 0, 57, 80
1, 246919, Note_off_c, 0, 61, 37
1, 246966, Note_off_c, 0, 57, 61
1, 247063, Note_on_c, 0, 57, 88
1, 247079, Note_on_c, 0, 64, 66
1, 247082, Note_on_c, 0, 61, 64
1, 247084, Note_on_c, 0, 69, 63
1, 247172, Note_off_c, 0, 61, 54
1, 247204, Note_off_c, 0, 57, 61
1, 247216, Note_on_c, 0, 59, 87
1, 247318, Note_off_c, 0, 59, 61
1, 247383, Note_off_c, 0, 69, 32
1, 247388, Note_on_c, 0, 45, 55
1, 247451, Note_on_c, 0, 52, 68
1, 247460, Note_on_c, 0, 61, 85
1, 247506, Control_c, 0, 64, 83
1, 247520, Control_c, 0, 64, 62
1, 247542, Control_c, 0, 64, 40
1, 247557, Control_c, 0, 64, 0
1, 247587, Control_c, 0, 64, 39
1, 247601, Control_c, 0, 64, 56
1, 247616, Control_c, 0, 64, 66
1, 247631, Control_c, 0, 64, 83
1, 247646, Control_c, 0, 64, 127
1, 247678, Note_off_c, 0, 64, 36
1, 247726, Note_off_c, 0, 45, 59
1, 247731, Note_off_c, 0, 61, 53
1, 247831, Note_on_c, 0, 57, 77
1, 247837, Note_on_c, 0, 61, 75
1, 247843, Note_on_c, 0, 69, 65
1, 247846, Note_off_c, 0, 52, 61
1, 247854, Note_off_c, 0, 57, 70
1, 247863, Note_off_c, 0, 61, 63
1, 247869, Note_off_c, 0, 69, 67
1, 247950, Note_on_c, 0, 42, 82
1, 247972, Control_c, 0, 64, 84
1, 247986, Control_c, 0, 64, 62
1, 248001, Control_c, 0, 64, 42
1, 248006, Note_off_c, 0, 42, 64
1, 248016, Control_c, 0, 64, 50
1, 248031, Control_c, 0, 64, 62
1, 248040, Note_on_c, 0, 57, 81
1, 248046, Control_c, 0, 64, 73
1, 248060, Control_c, 0, 64, 100
1, 248074, Note_off_c, 0, 57, 63
1, 248075, Control_c, 0, 64, 127
1, 248104, Note_on_c, 0, 62, 79
1, 248155, Note_on_c, 0, 69, 75
1, 248170, Note_off_c, 0, 62, 62
1, 248208, Note_on_c, 0, 74, 83
1, 248209, Note_off_c, 0, 69, 65
1, 248226, Note_off_c, 0, 74, 72
1, 248307, Note_on_c, 0, 78, 87
1, 248398, Note_off_c, 0, 78, 58
1, 248477, Note_on_c, 0, 90, 102
1, 248603, Note_off_c, 0, 90, 58
1, 249160, Note_on_c, 0, 71, 60
1, 249168, Note_on_c, 0, 62, 54
1, 249424, Note_off_c, 0, 71, 61
1, 249451, Note_off_c, 0, 62, 59
1, 249474, Note_on_c, 0, 90, 71
1, 249480, Note_on_c, 0, 78, 58
1, 249502, Note_off_c, 0, 78, 61
1, 249506, Note_off_c, 0, 90, 55
1, 249641, Note_on_c, 0, 78, 85
1, 249641, Note_on_c, 0, 90, 85
1, 249673, Note_off_c, 0, 78, 58
1, 249683, Note_off_c, 0, 90, 61
1, 249765, Note_on_c, 0, 69, 76
1, 249770, Note_on_c, 0, 61, 72
1, 249776, Note_on_c, 0, 78, 90
1, 249777, Note_on_c, 0, 90, 93
1, 249792, Note_off_c, 0, 69, 70
1, 249801, Note_off_c, 0, 61, 67
1, 249822, Note_off_c, 0, 90, 64
1, 249825, Note_off_c, 0, 78, 61
1, 249903, Note_on_c, 0, 90, 98
1, 249906, Note_on_c, 0, 78, 92
1, 249944, Note_off_c, 0, 78, 57
1, 249945, Note_off_c, 0, 90, 65
1, 250010, Control_c, 0, 64, 79
1, 250015, Note_on_c, 0, 52, 57
1, 250025, Control_c, 0, 64, 48
1, 250031, Note_on_c, 0, 78, 91
1, 250031, Note_on_c, 0, 90, 92
1, 250040, Control_c, 0, 64, 0
1, 250069, Control_c, 0, 64, 52
1, 250070, Note_off_c, 0, 52, 57
1, 250081, Note_on_c, 0, 59, 58
1, 250084, Control_c, 0, 64, 66
1, 250091, Note_off_c, 0, 78, 56
1, 250099, Control_c, 0, 64, 86
1, 250102, Note_off_c, 0, 90, 62
1, 250114, Note_off_c, 0, 59, 66
1, 250114, Control_c, 0, 64, 127
1, 250157, Note_on_c, 0, 62, 52
1, 250193, Note_on_c, 0, 78, 80
1, 250195, Note_on_c, 0, 90, 86
1, 250206, Note_off_c, 0, 62, 54
1, 250215, Note_off_c, 0, 78, 66
1, 250259, Note_on_c, 0, 68, 57
1, 250266, Note_off_c, 0, 90, 62
1, 250268, Poly_aftertouch_c, 0, 87, 127
1, 250296, Note_on_c, 0, 80, 74
1, 250318, Note_off_c, 0, 80, 68
1, 250320, Poly_aftertouch_c, 0, 87, 0
1, 250349, Note_on_c, 0, 90, 57
1, 250370, Note_off_c, 0, 90, 61
1, 250414, Note_on_c, 0, 92, 79
1, 250435, Note_off_c, 0, 92, 70
1, 250452, Note_on_c, 0, 102, 94
1, 250468, Note_off_c, 0, 68, 31
1, 250497, Note_off_c, 0, 102, 62
1, 250525, Note_on_c, 0, 94, 25
1, 250573, Note_off_c, 0, 94, 31
1, 250587, Note_on_c, 0, 90, 84
1, 250638, Note_off_c, 0, 90, 60
1, 250641, Note_on_c, 0, 80, 81
1, 250685, Note_off_c, 0, 80, 63
1, 250709, Note_on_c, 0, 90, 81
1, 250731, Note_off_c, 0, 90, 66
1, 250752, Note_on_c, 0, 80, 72
1, 250776, Note_off_c, 0, 80, 67
1, 250829, Note_on_c, 0, 78, 77
1, 250893, Note_off_c, 0, 78, 59
1, 250897, Note_on_c, 0, 68, 77
1, 250934, Note_off_c, 0, 68, 59
1, 250978, Note_on_c, 0, 40, 37
1, 250997, Note_on_c, 0, 68, 60
1, 251013, Note_off_c, 0, 40, 59
1, 251029, Note_on_c, 0, 47, 51
1, 251044, Note_off_c, 0, 68, 61
1, 251073, Note_off_c, 0, 47, 63
1, 251083, Note_on_c, 0, 68, 52
1, 251101, Note_off_c, 0, 68, 62
1, 251125, Note_on_c, 0, 50, 60
1, 251148, Note_on_c, 0, 68, 77
1, 251166, Note_off_c, 0, 68, 72
1, 251173, Note_off_c, 0, 50, 58
1, 251209, Note_on_c, 0, 68, 73
1, 251230, Note_off_c, 0, 68, 68
1, 251238, Note_on_c, 0, 56, 60
1, 251336, Note_on_c, 0, 68, 72
1, 251358, Note_off_c, 0, 68, 70
1, 251359, Note_on_c, 0, 62, 48
1, 251365, Note_on_c, 0, 64, 39
1, 251393, Note_off_c, 0, 62, 51
1, 251396, Note_off_c, 0, 64, 54
1, 251427, Note_on_c, 0, 68, 71
1, 251467, Note_off_c, 0, 68, 62
1, 251482, Note_on_c, 0, 69, 72
1, 251532, Note_on_c, 0, 68, 56
1, 251539, Note_off_c, 0, 69, 62
1, 251555, Note_off_c, 0, 68, 69
1, 251557, Note_on_c, 0, 67, 78
1, 251615, Note_off_c, 0, 67, 62
1, 251616, Note_on_c, 0, 68, 80
1, 251637, Note_off_c, 0, 68, 70
1, 251673, Note_on_c, 0, 69, 72
1, 251712, Note_off_c, 0, 69, 58
1, 251722, Note_on_c, 0, 70, 76
1, 251734, Note_on_c, 0, 50, 25
1, 251744, Note_off_c, 0, 70, 71
1, 251771, Note_on_c, 0, 71, 77
1, 251819, Note_on_c, 0, 72, 82
1, 251823, Note_off_c, 0, 71, 64
1, 251864, Note_on_c, 0, 73, 83
1, 251873, Note_off_c, 0, 72, 61
1, 251882, Note_off_c, 0, 73, 72
1, 251917, Note_on_c, 0, 74, 78
1, 251948, Note_off_c, 0, 74, 58
1, 251965, Note_on_c, 0, 75, 79
1, 251983, Control_c, 0, 64, 124
1, 251985, Note_off_c, 0, 75, 70
1, 251998, Control_c, 0, 64, 112
1, 252011, Note_on_c, 0, 76, 86
1, 252012, Control_c, 0, 64, 107
1, 252034, Control_c, 0, 64, 102
1, 252049, Control_c, 0, 64, 98
1, 252061, Note_on_c, 0, 77, 79
1, 252064, Control_c, 0, 64, 94
1, 252066, Note_off_c, 0, 76, 65
1, 252079, Control_c, 0, 64, 90
1, 252093, Control_c, 0, 64, 85
1, 252108, Control_c, 0, 64, 79
1, 252111, Note_on_c, 0, 78, 77
1, 252113, Note_off_c, 0, 77, 65
1, 252123, Control_c, 0, 64, 73
1, 252132, Note_off_c, 0, 78, 71
1, 252138, Control_c, 0, 64, 69
1, 252153, Control_c, 0, 64, 65
1, 252161, Note_on_c, 0, 79, 80
1, 252169, Control_c, 0, 64, 62
1, 252183, Control_c, 0, 64, 59
1, 252198, Control_c, 0, 64, 57
1, 252208, Note_off_c, 0, 79, 65
1, 252209, Note_on_c, 0, 80, 80
1, 252213, Control_c, 0, 64, 55
1, 252228, Control_c, 0, 64, 54
1, 252243, Control_c, 0, 64, 53
1, 252252, Note_on_c, 0, 81, 82
1, 252257, Note_off_c, 0, 80, 63
1, 252258, Control_c, 0, 64, 53
1, 252272, Control_c, 0, 64, 51
1, 252284, Note_on_c, 0, 82, 80
1, 252287, Control_c, 0, 64, 51
1, 252295, Note_off_c, 0, 81, 62
1, 252322, Note_off_c, 0, 82, 63
1, 252347, Note_on_c, 0, 83, 79
1, 252394, Note_on_c, 0, 84, 84
1, 252396, Note_off_c, 0, 83, 65
1, 252406, Control_c, 0, 64, 51
1, 252436, Control_c, 0, 64, 52
1, 252442, Note_off_c, 0, 84, 64
1, 252443, Note_on_c, 0, 85, 76
1, 252463, Note_off_c, 0, 85, 72
1, 252480, Control_c, 0, 64, 52
1, 252486, Note_on_c, 0, 86, 81
1, 252509, Control_c, 0, 64, 53
1, 252524, Control_c, 0, 64, 53
1, 252525, Note_off_c, 0, 86, 63
1, 252542, Note_on_c, 0, 87, 81
1, 252562, Note_off_c, 0, 87, 72
1, 252582, Note_on_c, 0, 88, 85
1, 252598, Control_c, 0, 64, 54
1, 252613, Control_c, 0, 64, 54
1, 252635, Note_on_c, 0, 89, 85
1, 252635, Note_off_c, 0, 88, 66
1, 252680, Note_on_c, 0, 90, 80
1, 252685, Note_off_c, 0, 89, 65
1, 252700, Note_off_c, 0, 90, 70
1, 252701, Control_c, 0, 64, 55
1, 252726, Note_on_c, 0, 91, 82
1, 252784, Note_off_c, 0, 91, 66
1, 252785, Note_on_c, 0, 92, 87
1, 252830, Note_on_c, 0, 93, 79
1, 252842, Control_c, 0, 64, 55
1, 252861, Note_on_c, 0, 94, 81
1, 252862, Note_off_c, 0, 92, 64
1, 252871, Note_off_c, 0, 93, 66
1, 252900, Note_off_c, 0, 94, 64
1, 252902, Control_c, 0, 64, 56
1, 252918, Note_on_c, 0, 95, 81
1, 252967, Note_on_c, 0, 96, 84
1, 252969, Note_off_c, 0, 95, 64
1, 252977, Control_c, 0, 64, 56
1, 253006, Control_c, 0, 64, 57
1, 253007, Note_on_c, 0, 97, 74
1, 253010, Note_off_c, 0, 96, 64
1, 253021, Control_c, 0, 64, 57
1, 253030, Note_off_c, 0, 97, 70
1, 253036, Control_c, 0, 64, 58
1, 253049, Note_on_c, 0, 98, 84
1, 253080, Control_c, 0, 64, 58
1, 253085, Note_off_c, 0, 98, 62
1, 253100, Note_on_c, 0, 99, 78
1, 253121, Note_off_c, 0, 99, 70
1, 253125, Control_c, 0, 64, 59
1, 253144, Note_on_c, 0, 100, 85
1, 253154, Control_c, 0, 64, 59
1, 253184, Control_c, 0, 64, 60
1, 253187, Note_on_c, 0, 101, 85
1, 253193, Note_off_c, 0, 100, 67
1, 253217, Note_on_c, 0, 102, 98
1, 253229, Control_c, 0, 64, 60
1, 253235, Note_off_c, 0, 101, 65
1, 253244, Control_c, 0, 64, 61
1, 253257, Note_off_c, 0, 102, 68
1, 253273, Control_c, 0, 64, 61
1, 253303, Control_c, 0, 64, 62
1, 253318, Control_c, 0, 64, 62
1, 253465, Control_c, 0, 64, 62
1, 253547, Control_c, 0, 64, 61
1, 253576, Note_off_c, 0, 56, 32
1, 253577, Control_c, 0, 64, 61
1, 253636, Control_c, 0, 64, 60
1, 253710, Control_c, 0, 64, 60
1, 253770, Control_c, 0, 64, 59
1, 253785, Control_c, 0, 64, 59
1, 253800, Note_off_c, 0, 50, 55
1, 253829, Control_c, 0, 64, 58
1, 253844, Control_c, 0, 64, 57
1, 253859, Control_c, 0, 64, 56
1, 253874, Control_c, 0, 64, 55
1, 253888, Control_c, 0, 64, 54
1, 253903, Control_c, 0, 64, 52
1, 253918, Control_c, 0, 64, 49
1, 253933, Control_c, 0, 64, 43
1, 253948, Control_c, 0, 64, 34
1, 253962, Control_c, 0, 64, 0
1, 254040, Note_on_c, 0, 68, 82
1, 254043, Note_on_c, 0, 62, 77
1, 254049, Note_on_c, 0, 52, 75
1, 254109, Note_off_c, 0, 52, 62
1, 254129, Note_on_c, 0, 45, 64
1, 254148, Note_off_c, 0, 68, 58
1, 254162, Note_off_c, 0, 45, 63
1, 254178, Note_off_c, 0, 62, 60
1, 254180, Note_on_c, 0, 52, 66
1, 254200, Control_c, 0, 64, 65
1, 254214, Control_c, 0, 64, 127
1, 254219, Note_on_c, 0, 61, 95
1, 254224, Note_on_c, 0, 69, 110
1, 254225, Note_off_c, 0, 52, 61
1, 254244, Note_off_c, 0, 61, 61
1, 254402, Note_on_c, 0, 40, 88
1, 254439, Note_off_c, 0, 40, 61
1, 254569, Note_on_c, 0, 57, 93
1, 254581, Note_on_c, 0, 49, 77
1, 254585, Note_on_c, 0, 52, 63
1, 254591, Note_on_c, 0, 53, 57
1, 254593, Note_off_c, 0, 57, 66
1, 254615, Note_off_c, 0, 52, 66
1, 254616, Note_off_c, 0, 53, 62
1, 254636, Note_off_c, 0, 49, 63
1, 254655, Note_off_c, 0, 69, 52
1, 254712, Note_on_c, 0, 52, 93
1, 254730, Note_on_c, 0, 41, 53
1, 254752, Note_off_c, 0, 52, 62
1, 254755, Note_off_c, 0, 41, 57
1, 254833, Note_on_c, 0, 52, 67
1, 254874, Control_c, 0, 64, 96
1, 254875, Note_on_c, 0, 56, 78
1, 254889, Control_c, 0, 64, 62
1, 254904, Control_c, 0, 64, 0
1, 254907, Note_on_c, 0, 62, 100
1, 254934, Control_c, 0, 64, 52
1, 254949, Control_c, 0, 64, 75
1, 254958, Note_off_c, 0, 62, 64
1, 254964, Control_c, 0, 64, 127
1, 254982, Note_off_c, 0, 56, 63
1, 254991, Note_off_c, 0, 52, 62
1, 255074, Note_on_c, 0, 40, 73
1, 255103, Note_off_c, 0, 40, 64
1, 255241, Note_on_c, 0, 48, 59
1, 255242, Note_on_c, 0, 50, 55
1, 255265, Note_off_c, 0, 50, 59
1, 255266, Note_off_c, 0, 48, 61
1, 255331, Note_on_c, 0, 40, 75
1, 255354, Note_off_c, 0, 40, 63
1, 255397, Note_on_c, 0, 76, 81
1, 255422, Note_on_c, 0, 54, 37
1, 255423, Note_on_c, 0, 71, 39
1, 255424, Note_on_c, 0, 56, 66
1, 255432, Note_on_c, 0, 64, 29
1, 255445, Note_off_c, 0, 56, 62
1, 255451, Note_off_c, 0, 54, 54
1, 255451, Note_off_c, 0, 71, 53
1, 255453, Note_off_c, 0, 76, 61
1, 255470, Note_off_c, 0, 64, 44
1, 255519, Note_on_c, 0, 43, 34
1, 255524, Note_on_c, 0, 45, 49
1, 255549, Control_c, 0, 64, 102
1, 255559, Note_off_c, 0, 43, 60
1, 255562, Note_off_c, 0, 45, 57
1, 255564, Control_c, 0, 64, 69
1, 255565, Note_on_c, 0, 49, 64
1, 255579, Control_c, 0, 64, 0
1, 255592, Note_on_c, 0, 52, 68
1, 255630, Note_on_c, 0, 69, 17
1, 255630, Note_on_c, 0, 75, 72
1, 255637, Note_on_c, 0, 61, 49
1, 255638, Control_c, 0, 64, 45
1, 255646, Note_on_c, 0, 57, 63
1, 255652, Control_c, 0, 64, 64
1, 255667, Note_off_c, 0, 49, 59
1, 255667, Control_c, 0, 64, 77
1, 255678, Note_off_c, 0, 61, 45
1, 255682, Control_c, 0, 64, 106
1, 255697, Control_c, 0, 64, 127
1, 255703, Note_off_c, 0, 52, 59
1, 255724, Note_off_c, 0, 57, 62
1, 255733, Note_off_c, 0, 75, 62
1, 255796, Note_on_c, 0, 76, 87
1, 255806, Note_off_c, 0, 69, 41
1, 255847, Note_off_c, 0, 76, 61
1, 255942, Control_c, 0, 64, 95
1, 255956, Control_c, 0, 64, 69
1, 255958, Note_on_c, 0, 61, 36
1, 255971, Control_c, 0, 64, 47
1, 255973, Note_on_c, 0, 78, 66
1, 255974, Note_on_c, 0, 64, 44
1, 255977, Note_on_c, 0, 69, 52
1, 255986, Control_c, 0, 64, 0
1, 256001, Control_c, 0, 64, 37
1, 256016, Control_c, 0, 64, 58
1, 256031, Control_c, 0, 64, 70
1, 256046, Control_c, 0, 64, 86
1, 256060, Control_c, 0, 64, 127
1, 256077, Note_off_c, 0, 78, 64
1, 256144, Note_on_c, 0, 76, 84
1, 256254, Control_c, 0, 64, 106
1, 256269, Control_c, 0, 64, 72
1, 256283, Control_c, 0, 64, 46
1, 256298, Control_c, 0, 64, 0
1, 256312, Note_on_c, 0, 75, 77
1, 256328, Control_c, 0, 64, 45
1, 256341, Note_off_c, 0, 76, 51
1, 256343, Control_c, 0, 64, 65
1, 256358, Control_c, 0, 64, 80
1, 256373, Control_c, 0, 64, 127
1, 256434, Note_off_c, 0, 69, 58
1, 256456, Note_on_c, 0, 76, 86
1, 256487, Note_off_c, 0, 75, 62
1, 256529, Note_off_c, 0, 76, 63
1, 256602, Control_c, 0, 64, 108
1, 256606, Note_on_c, 0, 59, 43
1, 256612, Note_on_c, 0, 56, 51
1, 256617, Control_c, 0, 64, 76
1, 256627, Note_off_c, 0, 64, 24
1, 256632, Control_c, 0, 64, 59
1, 256647, Note_off_c, 0, 61, 59
1, 256647, Control_c, 0, 64, 40
1, 256652, Note_on_c, 0, 74, 81
1, 256662, Control_c, 0, 64, 50
1, 256663, Note_on_c, 0, 64, 46
1, 256663, Note_off_c, 0, 59, 62
1, 256676, Control_c, 0, 64, 62
1, 256679, Note_off_c, 0, 56, 63
1, 256691, Control_c, 0, 64, 72
1, 256706, Control_c, 0, 64, 88
1, 256721, Control_c, 0, 64, 127
1, 256794, Note_on_c, 0, 71, 82
1, 256815, Note_off_c, 0, 74, 60
1, 256832, Note_on_c, 0, 45, 58
1, 256857, Note_off_c, 0, 64, 24
1, 256877, Note_off_c, 0, 45, 62
1, 256891, Note_on_c, 0, 52, 71
1, 256913, Control_c, 0, 64, 84
1, 256925, Note_off_c, 0, 71, 62
1, 256928, Control_c, 0, 64, 60
1, 256943, Control_c, 0, 64, 0
1, 256964, Note_on_c, 0, 61, 91
1, 256973, Control_c, 0, 64, 62
1, 256975, Note_off_c, 0, 52, 63
1, 256987, Note_on_c, 0, 73, 103
1, 256988, Control_c, 0, 64, 92
1, 256992, Note_on_c, 0, 64, 79
1, 256997, Note_on_c, 0, 69, 73
1, 257000, Note_off_c, 0, 61, 61
1, 257003, Control_c, 0, 64, 127
1, 257139, Note_on_c, 0, 40, 89
1, 257189, Note_off_c, 0, 40, 60
1, 257328, Note_on_c, 0, 57, 80
1, 257328, Note_on_c, 0, 52, 83
1, 257342, Note_off_c, 0, 64, 43
1, 257346, Note_on_c, 0, 49, 63
1, 257351, Note_off_c, 0, 57, 70
1, 257370, Note_off_c, 0, 52, 58
1, 257390, Note_off_c, 0, 49, 57
1, 257475, Note_off_c, 0, 73, 44
1, 257477, Note_off_c, 0, 69, 37
1, 257480, Note_on_c, 0, 52, 84
1, 257503, Note_off_c, 0, 52, 62
1, 257605, Note_on_c, 0, 52, 63
1, 257632, Control_c, 0, 64, 112
1, 257647, Control_c, 0, 64, 69
1, 257648, Note_on_c, 0, 56, 75
1, 257662, Control_c, 0, 64, 0
1, 257684, Note_on_c, 0, 62, 98
1, 257706, Control_c, 0, 64, 40
1, 257721, Control_c, 0, 64, 64
1, 257736, Control_c, 0, 64, 87
1, 257736, Note_off_c, 0, 62, 65
1, 257751, Control_c, 0, 64, 127
1, 257763, Note_off_c, 0, 56, 63
1, 257776, Note_off_c, 0, 52, 62
1, 257869, Note_on_c, 0, 40, 53
1, 257894, Note_off_c, 0, 40, 57
1, 258004, Note_on_c, 0, 50, 77
1, 258035, Note_off_c, 0, 50, 68
1, 258125, Note_on_c, 0, 40, 61
1, 258146, Note_off_c, 0, 40, 61
1, 258150, Note_on_c, 0, 41, 44
1, 258181, Note_off_c, 0, 41, 50
1, 258199, Note_on_c, 0, 76, 84
1, 258209, Note_on_c, 0, 71, 66
1, 258210, Note_on_c, 0, 56, 59
1, 258220, Note_on_c, 0, 64, 37
1, 258242, Note_off_c, 0, 56, 63
1, 258245, Note_off_c, 0, 64, 57
1, 258271, Note_off_c, 0, 76, 60
1, 258290, Note_off_c, 0, 71, 53
1, 258318, Note_on_c, 0, 45, 60
1, 258366, Control_c, 0, 64, 109
1, 258379, Note_off_c, 0, 45, 58
1, 258380, Control_c, 0, 64, 75
1, 258391, Note_on_c, 0, 49, 54
1, 258395, Control_c, 0, 64, 45
1, 258410, Control_c, 0, 64, 0
1, 258421, Note_on_c, 0, 52, 51
1, 258463, Note_off_c, 0, 49, 59
1, 258484, Control_c, 0, 64, 55
1, 258493, Note_on_c, 0, 57, 58
1, 258499, Control_c, 0, 64, 69
1, 258500, Note_on_c, 0, 61, 60
1, 258507, Note_on_c, 0, 69, 63
1, 258514, Control_c, 0, 64, 87
1, 258521, Note_off_c, 0, 61, 62
1, 258529, Control_c, 0, 64, 127
1, 258548, Note_off_c, 0, 52, 57
1, 258572, Note_off_c, 0, 57, 59
1, 258573, Note_off_c, 0, 69, 62
1, 258791, Note_on_c, 0, 88, 76
1, 258791, Note_on_c, 0, 76, 75
1, 258833, Note_off_c, 0, 76, 51
1, 258841, Note_off_c, 0, 88, 46
1, 258955, Note_on_c, 0, 88, 94
1, 258960, Note_on_c, 0, 76, 89
1, 258967, Control_c, 0, 64, 104
1, 258982, Control_c, 0, 64, 70
1, 258997, Control_c, 0, 64, 57
1, 259012, Control_c, 0, 64, 58
1, 259027, Control_c, 0, 64, 65
1, 259033, Note_off_c, 0, 88, 64
1, 259042, Control_c, 0, 64, 75
1, 259044, Note_off_c, 0, 76, 62
1, 259057, Control_c, 0, 64, 99
1, 259064, Note_on_c, 0, 56, 60
1, 259071, Control_c, 0, 64, 127
1, 259097, Note_on_c, 0, 88, 99
1, 259105, Note_on_c, 0, 76, 76
1, 259134, Note_off_c, 0, 56, 60
1, 259140, Note_off_c, 0, 76, 58
1, 259147, Note_on_c, 0, 64, 55
1, 259233, Note_on_c, 0, 71, 60
1, 259256, Note_on_c, 0, 87, 89
1, 259266, Note_on_c, 0, 75, 77
1, 259279, Note_off_c, 0, 71, 60
1, 259286, Note_off_c, 0, 88, 59
1, 259330, Note_off_c, 0, 75, 61
1, 259353, Note_off_c, 0, 87, 62
1, 259373, Note_off_c, 0, 64, 36
1, 259405, Note_on_c, 0, 88, 95
1, 259413, Note_on_c, 0, 76, 76
1, 259453, Note_off_c, 0, 88, 66
1, 259471, Note_off_c, 0, 76, 61
1, 259495, Poly_aftertouch_c, 0, 87, 0
1, 259551, Note_on_c, 0, 86, 91
1, 259560, Note_on_c, 0, 74, 80
1, 259608, Note_on_c, 0, 57, 42
1, 259613, Note_off_c, 0, 74, 59
1, 259615, Note_off_c, 0, 86, 63
1, 259665, Note_off_c, 0, 57, 59
1, 259701, Note_on_c, 0, 88, 97
1, 259707, Note_on_c, 0, 76, 85
1, 259739, Note_on_c, 0, 64, 45
1, 259822, Note_off_c, 0, 88, 56
1, 259849, Control_c, 0, 64, 97
1, 259864, Control_c, 0, 64, 72
1, 259867, Note_on_c, 0, 73, 50
1, 259879, Note_off_c, 0, 76, 53
1, 259879, Control_c, 0, 64, 51
1, 259894, Control_c, 0, 64, 0
1, 259909, Control_c, 0, 64, 34
1, 259924, Control_c, 0, 64, 46
1, 259939, Control_c, 0, 64, 57
1, 259953, Control_c, 0, 64, 67
1, 259963, Note_on_c, 0, 88, 75
1, 259968, Control_c, 0, 64, 82
1, 259977, Note_on_c, 0, 76, 69
1, 259983, Control_c, 0, 64, 127
1, 259990, Note_off_c, 0, 73, 61
1, 259993, Note_off_c, 0, 88, 62
1, 260014, Note_off_c, 0, 76, 58
1, 260082, Note_off_c, 0, 64, 35
1, 260189, Note_on_c, 0, 85, 81
1, 260193, Note_on_c, 0, 73, 74
1, 260245, Note_off_c, 0, 85, 63
1, 260255, Note_off_c, 0, 73, 57
1, 260332, Control_c, 0, 64, 94
1, 260335, Note_on_c, 0, 85, 90
1, 260346, Note_on_c, 0, 73, 71
1, 260347, Control_c, 0, 64, 68
1, 260362, Control_c, 0, 64, 47
1, 260376, Control_c, 0, 64, 45
1, 260391, Control_c, 0, 64, 58
1, 260397, Note_on_c, 0, 53, 47
1, 260406, Note_off_c, 0, 85, 64
1, 260406, Control_c, 0, 64, 69
1, 260416, Note_off_c, 0, 73, 59
1, 260421, Control_c, 0, 64, 85
1, 260436, Note_off_c, 0, 53, 61
1, 260436, Control_c, 0, 64, 127
1, 260473, Note_on_c, 0, 85, 86
1, 260479, Note_on_c, 0, 73, 67
1, 260501, Note_on_c, 0, 61, 46
1, 260549, Note_off_c, 0, 73, 61
1, 260549, Note_off_c, 0, 85, 64
1, 260589, Note_on_c, 0, 68, 49
1, 260620, Note_on_c, 0, 84, 86
1, 260626, Note_on_c, 0, 72, 72
1, 260645, Note_off_c, 0, 68, 55
1, 260655, Note_off_c, 0, 72, 63
1, 260671, Note_off_c, 0, 84, 64
1, 260693, Poly_aftertouch_c, 0, 82, 127
1, 260728, Poly_aftertouch_c, 0, 82, 0
1, 260754, Note_on_c, 0, 85, 94
1, 260763, Note_on_c, 0, 73, 82
1, 260792, Note_off_c, 0, 61, 32
1, 260804, Note_off_c, 0, 85, 64
1, 260808, Note_off_c, 0, 73, 56
1, 260898, Note_on_c, 0, 83, 84
1, 260899, Note_on_c, 0, 71, 77
1, 260926, Note_off_c, 0, 71, 65
1, 260945, Note_off_c, 0, 83, 66
1, 260982, Note_on_c, 0, 54, 42
1, 261039, Note_on_c, 0, 85, 90
1, 261045, Note_on_c, 0, 73, 80
1, 261069, Note_off_c, 0, 54, 57
1, 261103, Note_on_c, 0, 61, 48
1, 261142, Note_off_c, 0, 73, 47
1, 261146, Note_off_c, 0, 85, 60
1, 261213, Note_on_c, 0, 69, 45
1, 261214, Control_c, 0, 64, 94
1, 261229, Control_c, 0, 64, 69
1, 261244, Control_c, 0, 64, 47
1, 261255, Note_on_c, 0, 85, 80
1, 261259, Control_c, 0, 64, 0
1, 261273, Control_c, 0, 64, 42
1, 261278, Note_on_c, 0, 73, 61
1, 261288, Control_c, 0, 64, 53
1, 261303, Control_c, 0, 64, 63
1, 261316, Note_off_c, 0, 69, 35
1, 261317, Control_c, 0, 64, 74
1, 261332, Control_c, 0, 64, 102
1, 261338, Note_off_c, 0, 85, 65
1, 261347, Control_c, 0, 64, 127
1, 261371, Note_off_c, 0, 73, 61
1, 261444, Note_off_c, 0, 61, 35
1, 261484, Note_on_c, 0, 81, 84
1, 261487, Note_on_c, 0, 69, 74
1, 261537, Note_off_c, 0, 81, 58
1, 261555, Note_off_c, 0, 69, 45
1, 261652, Note_on_c, 0, 81, 88
1, 261659, Note_on_c, 0, 69, 77
1, 261703, Control_c, 0, 64, 114
1, 261717, Control_c, 0, 64, 77
1, 261724, Note_off_c, 0, 81, 61
1, 261732, Control_c, 0, 64, 59
1, 261739, Note_off_c, 0, 69, 57
1, 261748, Control_c, 0, 64, 45
1, 261770, Control_c, 0, 64, 53
1, 261785, Control_c, 0, 64, 61
1, 261787, Note_on_c, 0, 49, 43
1, 261800, Control_c, 0, 64, 67
1, 261815, Control_c, 0, 64, 78
1, 261818, Note_on_c, 0, 81, 90
1, 261819, Note_on_c, 0, 69, 66
1, 261829, Control_c, 0, 64, 99
1, 261844, Control_c, 0, 64, 127
1, 261847, Note_off_c, 0, 49, 57
1, 261876, Note_off_c, 0, 69, 58
1, 261883, Note_on_c, 0, 57, 42
1, 261990, Note_on_c, 0, 64, 45
1, 262036, Note_on_c, 0, 80, 74
1, 262042, Note_on_c, 0, 68, 61
1, 262042, Note_off_c, 0, 64, 52
1, 262046, Note_off_c, 0, 81, 48
1, 262085, Note_off_c, 0, 68, 60
1, 262151, Note_off_c, 0, 80, 60
1, 262212, Note_on_c, 0, 83, 88
1, 262216, Note_on_c, 0, 71, 73
1, 262255, Note_off_c, 0, 83, 64
1, 262273, Note_off_c, 0, 71, 61
1, 262360, Note_on_c, 0, 81, 84
1, 262376, Note_on_c, 0, 69, 63
1, 262432, Note_off_c, 0, 81, 56
1, 262449, Poly_aftertouch_c, 0, 49, 127
1, 262457, Note_off_c, 0, 69, 59
1, 262577, Note_off_c, 0, 57, 0
1, 262578, Control_c, 0, 64, 100
1, 262593, Control_c, 0, 64, 74
1, 262608, Control_c, 0, 64, 58
1, 262615, Note_on_c, 0, 79, 66
1, 262615, Poly_aftertouch_c, 0, 57, 127
1, 262620, Note_on_c, 0, 67, 50
1, 262623, Control_c, 0, 64, 0
1, 262652, Control_c, 0, 64, 37
1, 262667, Control_c, 0, 64, 53
1, 262682, Control_c, 0, 64, 64
1, 262697, Control_c, 0, 64, 74
1, 262712, Control_c, 0, 64, 93
1, 262723, Note_off_c, 0, 67, 60
1, 262726, Control_c, 0, 64, 127
1, 262745, Note_off_c, 0, 79, 66
1, 262844, Poly_aftertouch_c, 0, 49, 0
1, 262937, Poly_aftertouch_c, 0, 57, 0
1, 262977, Note_on_c, 0, 83, 56
1, 263001, Note_on_c, 0, 71, 29
1, 263057, Note_off_c, 0, 83, 61
1, 263129, Note_off_c, 0, 71, 41
1, 263282, Control_c, 0, 64, 76
1, 263286, Note_on_c, 0, 81, 71
1, 263292, Note_on_c, 0, 69, 51
1, 263296, Control_c, 0, 64, 56
1, 263311, Control_c, 0, 64, 37
1, 263315, Note_on_c, 0, 50, 33
1, 263326, Control_c, 0, 64, 49
1, 263342, Control_c, 0, 64, 62
1, 263346, Note_off_c, 0, 50, 49
1, 263357, Control_c, 0, 64, 71
1, 263372, Control_c, 0, 64, 93
1, 263385, Note_on_c, 0, 57, 46
1, 263387, Control_c, 0, 64, 127
1, 263424, Note_off_c, 0, 81, 56
1, 263430, Note_off_c, 0, 57, 47
1, 263471, Note_off_c, 0, 69, 36
1, 263476, Note_on_c, 0, 66, 42
1, 263531, Note_off_c, 0, 66, 61
1, 263587, Note_on_c, 0, 81, 73
1, 263593, Note_on_c, 0, 69, 57
1, 263614, Note_off_c, 0, 81, 63
1, 263637, Note_off_c, 0, 69, 50
1, 263830, Note_on_c, 0, 78, 83
1, 263843, Note_on_c, 0, 66, 60
1, 263923, Note_off_c, 0, 66, 38
1, 263933, Note_off_c, 0, 78, 61
1, 263948, Control_c, 0, 64, 87
1, 263952, Note_on_c, 0, 50, 39
1, 263956, Note_on_c, 0, 57, 44
1, 263963, Control_c, 0, 64, 62
1, 263978, Control_c, 0, 64, 43
1, 263984, Note_off_c, 0, 50, 49
1, 263993, Control_c, 0, 64, 49
1, 264015, Control_c, 0, 64, 62
1, 264019, Note_on_c, 0, 78, 84
1, 264022, Note_off_c, 0, 57, 62
1, 264027, Note_on_c, 0, 74, 72
1, 264030, Control_c, 0, 64, 73
1, 264032, Note_on_c, 0, 66, 65
1, 264044, Control_c, 0, 64, 93
1, 264058, Note_off_c, 0, 74, 59
1, 264059, Control_c, 0, 64, 127
1, 264073, Note_off_c, 0, 78, 64
1, 264093, Note_on_c, 0, 47, 46
1, 264103, Note_off_c, 0, 66, 58
1, 264125, Note_off_c, 0, 47, 54
1, 264146, Note_on_c, 0, 54, 61
1, 264223, Note_on_c, 0, 62, 65
1, 264297, Control_c, 0, 64, 91
1, 264312, Control_c, 0, 64, 68
1, 264327, Control_c, 0, 64, 46
1, 264341, Note_on_c, 0, 74, 86
1, 264342, Control_c, 0, 64, 0
1, 264348, Note_on_c, 0, 66, 74
1, 264357, Control_c, 0, 64, 49
1, 264372, Control_c, 0, 64, 62
1, 264386, Control_c, 0, 64, 74
1, 264392, Note_off_c, 0, 62, 57
1, 264394, Note_off_c, 0, 54, 50
1, 264401, Control_c, 0, 64, 105
1, 264416, Control_c, 0, 64, 127
1, 264428, Note_off_c, 0, 74, 63
1, 264457, Note_off_c, 0, 66, 61
1, 264717, Note_on_c, 0, 62, 87
1, 264741, Control_c, 0, 64, 82
1, 264764, Control_c, 0, 64, 58
1, 264779, Control_c, 0, 64, 0
1, 264809, Control_c, 0, 64, 37
1, 264823, Control_c, 0, 64, 53
1, 264838, Control_c, 0, 64, 64
1, 264853, Control_c, 0, 64, 74
1, 264867, Control_c, 0, 64, 97
1, 264882, Control_c, 0, 64, 127
1, 265002, Note_off_c, 0, 62, 55
1, 265289, Note_on_c, 0, 62, 53
1, 265313, Control_c, 0, 64, 94
1, 265328, Control_c, 0, 64, 71
1, 265343, Control_c, 0, 64, 53
1, 265357, Control_c, 0, 64, 0
1, 265372, Control_c, 0, 64, 35
1, 265387, Control_c, 0, 64, 47
1, 265402, Control_c, 0, 64, 56
1, 265417, Control_c, 0, 64, 63
1, 265432, Control_c, 0, 64, 71
1, 265446, Control_c, 0, 64, 84
1, 265461, Control_c, 0, 64, 127
1, 265540, Note_on_c, 0, 56, 53
1, 265585, Note_off_c, 0, 56, 56
1, 265617, Poly_aftertouch_c, 0, 52, 127
1, 265653, Note_on_c, 0, 59, 34
1, 265656, Poly_aftertouch_c, 0, 52, 0
1, 265706, Note_on_c, 0, 56, 66
1, 265708, Note_on_c, 0, 68, 52
1, 265731, Note_off_c, 0, 68, 59
1, 265734, Note_off_c, 0, 56, 65
1, 265756, Note_off_c, 0, 62, 57
1, 265760, Note_off_c, 0, 59, 27
1, 265890, Note_on_c, 0, 49, 39
1, 265931, Note_off_c, 0, 49, 53
1, 265940, Note_on_c, 0, 56, 62
1, 265943, Control_c, 0, 64, 104
1, 265958, Control_c, 0, 64, 71
1, 265973, Control_c, 0, 64, 52
1, 265987, Control_c, 0, 64, 36
1, 266002, Note_on_c, 0, 64, 54
1, 266002, Control_c, 0, 64, 44
1, 266017, Control_c, 0, 64, 54
1, 266032, Control_c, 0, 64, 61
1, 266047, Control_c, 0, 64, 69
1, 266062, Control_c, 0, 64, 88
1, 266066, Note_on_c, 0, 76, 78
1, 266074, Note_off_c, 0, 56, 59
1, 266077, Control_c, 0, 64, 127
1, 266079, Note_off_c, 0, 64, 61
1, 266080, Note_on_c, 0, 68, 68
1, 266122, Note_off_c, 0, 76, 64
1, 266140, Note_off_c, 0, 68, 61
1, 266410, Control_c, 0, 64, 105
1, 266417, Note_on_c, 0, 64, 82
1, 266425, Control_c, 0, 64, 74
1, 266440, Control_c, 0, 64, 57
1, 266455, Control_c, 0, 64, 0
1, 266485, Control_c, 0, 64, 48
1, 266500, Control_c, 0, 64, 60
1, 266514, Control_c, 0, 64, 68
1, 266529, Control_c, 0, 64, 81
1, 266545, Control_c, 0, 64, 104
1, 266560, Control_c, 0, 64, 127
1, 266655, Note_off_c, 0, 64, 55
1, 266900, Control_c, 0, 64, 88
1, 266915, Control_c, 0, 64, 68
1, 266917, Note_on_c, 0, 64, 39
1, 266929, Control_c, 0, 64, 54
1, 266944, Control_c, 0, 64, 47
1, 266959, Control_c, 0, 64, 53
1, 266974, Control_c, 0, 64, 60
1, 266989, Control_c, 0, 64, 66
1, 267011, Control_c, 0, 64, 74
1, 267026, Control_c, 0, 64, 84
1, 267041, Control_c, 0, 64, 96
1, 267056, Control_c, 0, 64, 105
1, 267070, Control_c, 0, 64, 111
1, 267085, Control_c, 0, 64, 113
1, 267115, Control_c, 0, 64, 120
1, 267130, Control_c, 0, 64, 127
1, 267132, Note_on_c, 0, 57, 50
1, 267176, Note_off_c, 0, 57, 60
1, 267189, Control_c, 0, 64, 114
1, 267190, Note_on_c, 0, 54, 36
1, 267204, Control_c, 0, 64, 89
1, 267218, Control_c, 0, 64, 72
1, 267229, Note_off_c, 0, 54, 52
1, 267233, Control_c, 0, 64, 61
1, 267237, Note_off_c, 0, 64, 23
1, 267248, Control_c, 0, 64, 55
1, 267254, Note_on_c, 0, 61, 43
1, 267263, Control_c, 0, 64, 57
1, 267278, Control_c, 0, 64, 60
1, 267293, Control_c, 0, 64, 64
1, 267308, Control_c, 0, 64, 69
1, 267323, Control_c, 0, 64, 78
1, 267338, Note_on_c, 0, 69, 47
1, 267338, Control_c, 0, 64, 92
1, 267353, Control_c, 0, 64, 116
1, 267361, Note_off_c, 0, 69, 59
1, 267367, Note_on_c, 0, 57, 52
1, 267367, Control_c, 0, 64, 127
1, 267409, Note_off_c, 0, 61, 34
1, 267424, Note_off_c, 0, 57, 54
1, 267606, Note_on_c, 0, 50, 36
1, 267641, Note_off_c, 0, 50, 47
1, 267684, Note_on_c, 0, 57, 48
1, 267789, Control_c, 0, 64, 106
1, 267791, Note_on_c, 0, 66, 36
1, 267804, Control_c, 0, 64, 79
1, 267819, Control_c, 0, 64, 63
1, 267833, Control_c, 0, 64, 44
1, 267848, Control_c, 0, 64, 40
1, 267862, Note_off_c, 0, 57, 37
1, 267863, Control_c, 0, 64, 51
1, 267874, Note_on_c, 0, 69, 40
1, 267877, Note_on_c, 0, 78, 49
1, 267878, Control_c, 0, 64, 58
1, 267892, Control_c, 0, 64, 63
1, 267907, Control_c, 0, 64, 71
1, 267922, Control_c, 0, 64, 86
1, 267937, Control_c, 0, 64, 127
1, 267950, Note_off_c, 0, 66, 40
1, 267967, Note_off_c, 0, 69, 57
1, 268018, Note_off_c, 0, 78, 62
1, 268328, Note_on_c, 0, 90, 60
1, 268339, Note_on_c, 0, 78, 48
1, 268353, Control_c, 0, 64, 77
1, 268368, Control_c, 0, 64, 62
1, 268382, Control_c, 0, 64, 49
1, 268397, Control_c, 0, 64, 50
1, 268412, Control_c, 0, 64, 53
1, 268426, Control_c, 0, 64, 58
1, 268441, Control_c, 0, 64, 63
1, 268456, Control_c, 0, 64, 68
1, 268471, Control_c, 0, 64, 80
1, 268486, Control_c, 0, 64, 109
1, 268508, Control_c, 0, 64, 127
1, 268570, Note_off_c, 0, 90, 61
1, 268614, Note_off_c, 0, 78, 38
1, 268724, Note_on_c, 0, 44, 32
1, 268767, Note_off_c, 0, 44, 51
1, 268826, Note_on_c, 0, 52, 36
1, 268885, Note_on_c, 0, 59, 39
1, 268942, Note_off_c, 0, 59, 60
1, 268947, Note_on_c, 0, 88, 50
1, 268950, Note_on_c, 0, 76, 38
1, 269020, Note_off_c, 0, 76, 47
1, 269324, Note_on_c, 0, 87, 54
1, 269346, Note_on_c, 0, 75, 35
1, 269365, Note_off_c, 0, 88, 32
1, 269421, Note_off_c, 0, 87, 63
1, 269454, Poly_aftertouch_c, 0, 44, 127
1, 269472, Note_off_c, 0, 75, 37
1, 269806, Note_on_c, 0, 74, 43
1, 269813, Note_on_c, 0, 86, 45
1, 269836, Control_c, 0, 64, 111
1, 269851, Control_c, 0, 64, 79
1, 269866, Control_c, 0, 64, 63
1, 269880, Control_c, 0, 64, 44
1, 269895, Control_c, 0, 64, 41
1, 269910, Control_c, 0, 64, 49
1, 269925, Control_c, 0, 64, 56
1, 269940, Control_c, 0, 64, 63
1, 269955, Control_c, 0, 64, 70
1, 269970, Control_c, 0, 64, 85
1, 269985, Control_c, 0, 64, 127
1, 270012, Note_off_c, 0, 74, 51
1, 270116, Note_off_c, 0, 86, 58
1, 270552, Note_on_c, 0, 86, 42
1, 270706, Note_off_c, 0, 86, 35
1, 270715, Note_on_c, 0, 88, 48
1, 270825, Note_on_c, 0, 86, 55
1, 270851, Note_off_c, 0, 88, 38
1, 270918, Note_off_c, 0, 86, 63
1, 270933, Note_on_c, 0, 85, 58
1, 270969, Note_off_c, 0, 85, 66
1, 271016, Note_on_c, 0, 86, 58
1, 271094, Note_off_c, 0, 86, 0
1, 271120, Note_on_c, 0, 97, 55
1, 271131, Poly_aftertouch_c, 0, 86, 127
1, 271141, Note_off_c, 0, 97, 62
1, 271185, Poly_aftertouch_c, 0, 86, 0
1, 271202, Note_on_c, 0, 95, 57
1, 271261, Note_on_c, 0, 92, 61
1, 271275, Note_off_c, 0, 95, 61
1, 271288, Note_off_c, 0, 92, 67
1, 271299, Note_on_c, 0, 86, 62
1, 271336, Note_off_c, 0, 86, 59
1, 271366, Note_on_c, 0, 87, 63
1, 271395, Note_off_c, 0, 87, 67
1, 271410, Note_on_c, 0, 88, 69
1, 271445, Note_off_c, 0, 88, 65
1, 271448, Note_on_c, 0, 89, 76
1, 271487, Note_on_c, 0, 92, 85
1, 271490, Note_off_c, 0, 89, 61
1, 271532, Note_on_c, 0, 90, 78
1, 271567, Note_on_c, 0, 86, 74
1, 271573, Note_off_c, 0, 92, 65
1, 271600, Note_off_c, 0, 90, 64
1, 271615, Note_off_c, 0, 86, 62
1, 271622, Note_on_c, 0, 80, 78
1, 271670, Note_off_c, 0, 80, 63
1, 271680, Note_on_c, 0, 81, 70
1, 271731, Note_on_c, 0, 82, 74
1, 271734, Note_off_c, 0, 81, 63
1, 271761, Note_off_c, 0, 82, 63
1, 271773, Note_on_c, 0, 85, 70
1, 271815, Note_on_c, 0, 83, 69
1, 271845, Note_off_c, 0, 85, 59
1, 271859, Note_on_c, 0, 80, 64
1, 271871, Note_off_c, 0, 83, 59
1, 271884, Note_off_c, 0, 80, 66
1, 271910, Note_on_c, 0, 74, 71
1, 271954, Note_off_c, 0, 74, 58
1, 271967, Note_on_c, 0, 75, 66
1, 272002, Note_off_c, 0, 75, 60
1, 272032, Note_on_c, 0, 76, 64
1, 272038, Control_c, 0, 64, 105
1, 272053, Control_c, 0, 64, 83
1, 272063, Note_off_c, 0, 76, 63
1, 272068, Control_c, 0, 64, 67
1, 272077, Note_on_c, 0, 77, 56
1, 272082, Control_c, 0, 64, 49
1, 272097, Control_c, 0, 64, 0
1, 272118, Note_off_c, 0, 77, 63
1, 272134, Note_on_c, 0, 80, 63
1, 272174, Note_on_c, 0, 78, 64
1, 272204, Note_off_c, 0, 80, 53
1, 272216, Control_c, 0, 64, 53
1, 272231, Control_c, 0, 64, 65
1, 272232, Note_on_c, 0, 74, 61
1, 272238, Note_off_c, 0, 78, 62
1, 272253, Control_c, 0, 64, 71
1, 272268, Control_c, 0, 64, 75
1, 272272, Note_off_c, 0, 74, 66
1, 272283, Control_c, 0, 64, 76
1, 272310, Note_on_c, 0, 68, 54
1, 272328, Control_c, 0, 64, 75
1, 272336, Note_off_c, 0, 68, 66
1, 272342, Control_c, 0, 64, 67
1, 272357, Note_on_c, 0, 69, 59
1, 272357, Control_c, 0, 64, 56
1, 272372, Control_c, 0, 64, 0
1, 272415, Note_off_c, 0, 69, 61
1, 272417, Note_on_c, 0, 70, 64
1, 272446, Control_c, 0, 64, 43
1, 272453, Note_off_c, 0, 70, 63
1, 272460, Note_on_c, 0, 73, 62
1, 272461, Control_c, 0, 64, 62
1, 272475, Control_c, 0, 64, 73
1, 272488, Note_off_c, 0, 73, 65
1, 272490, Control_c, 0, 64, 86
1, 272502, Note_on_c, 0, 71, 73
1, 272505, Control_c, 0, 64, 104
1, 272520, Control_c, 0, 64, 127
1, 272536, Note_off_c, 0, 71, 65
1, 272550, Note_on_c, 0, 74, 75
1, 272572, Note_off_c, 0, 52, 40
1, 272573, Note_off_c, 0, 74, 69
1, 272574, Poly_aftertouch_c, 0, 44, 0
1, 272576, Note_on_c, 0, 78, 79
1, 272597, Note_off_c, 0, 78, 70
1, 272638, Note_on_c, 0, 75, 77
1, 272679, Note_on_c, 0, 76, 82
1, 272688, Note_off_c, 0, 75, 61
1, 272715, Note_on_c, 0, 80, 72
1, 272726, Note_off_c, 0, 76, 64
1, 272757, Note_on_c, 0, 85, 81
1, 272763, Note_off_c, 0, 80, 62
1, 272779, Note_off_c, 0, 85, 67
1, 272821, Note_on_c, 0, 82, 79
1, 272858, Note_on_c, 0, 83, 87
1, 272868, Note_off_c, 0, 82, 62
1, 272889, Note_on_c, 0, 86, 73
1, 272904, Note_off_c, 0, 83, 64
1, 272905, Control_c, 0, 64, 91
1, 272921, Control_c, 0, 64, 63
1, 272924, Note_on_c, 0, 90, 79
1, 272930, Note_off_c, 0, 86, 64
1, 272936, Control_c, 0, 64, 0
1, 272946, Note_off_c, 0, 90, 67
1, 272965, Control_c, 0, 64, 52
1, 272980, Control_c, 0, 64, 66
1, 272980, Note_on_c, 0, 87, 80
1, 273002, Control_c, 0, 64, 80
1, 273017, Control_c, 0, 64, 112
1, 273027, Note_on_c, 0, 88, 88
1, 273031, Control_c, 0, 64, 127
1, 273045, Note_off_c, 0, 87, 62
1, 273061, Note_on_c, 0, 92, 77
1, 273073, Note_off_c, 0, 88, 65
1, 273097, Note_on_c, 0, 97, 82
1, 273107, Note_off_c, 0, 92, 66
1, 273117, Note_off_c, 0, 97, 66
1, 273162, Note_on_c, 0, 94, 88
1, 273197, Note_off_c, 0, 94, 62
1, 273198, Note_on_c, 0, 95, 86
1, 273224, Control_c, 0, 64, 78
1, 273237, Note_on_c, 0, 98, 83
1, 273239, Control_c, 0, 64, 50
1, 273254, Control_c, 0, 64, 0
1, 273258, Note_off_c, 0, 95, 66
1, 273274, Note_on_c, 0, 101, 86
1, 273293, Note_off_c, 0, 98, 65
1, 273311, Note_on_c, 0, 94, 87
1, 273313, Control_c, 0, 64, 55
1, 273328, Control_c, 0, 64, 71
1, 273332, Note_off_c, 0, 101, 51
1, 273343, Control_c, 0, 64, 90
1, 273350, Note_on_c, 0, 95, 88
1, 273358, Control_c, 0, 64, 127
1, 273371, Note_off_c, 0, 94, 65
1, 273400, Note_on_c, 0, 98, 86
1, 273427, Note_off_c, 0, 95, 65
1, 273428, Note_on_c, 0, 100, 87
1, 273467, Note_off_c, 0, 98, 65
1, 273472, Note_on_c, 0, 94, 91
1, 273510, Note_on_c, 0, 95, 86
1, 273510, Note_off_c, 0, 100, 68
1, 273547, Note_off_c, 0, 94, 58
1, 273556, Note_on_c, 0, 98, 90
1, 273588, Note_on_c, 0, 101, 91
1, 273588, Note_off_c, 0, 95, 64
1, 273624, Note_off_c, 0, 98, 66
1, 273633, Note_on_c, 0, 94, 90
1, 273666, Note_on_c, 0, 95, 87
1, 273666, Note_off_c, 0, 101, 62
1, 273720, Note_off_c, 0, 94, 62
1, 273722, Note_on_c, 0, 98, 82
1, 273766, Note_off_c, 0, 95, 65
1, 273768, Note_on_c, 0, 100, 93
1, 273786, Note_on_c, 0, 99, 56
1, 273809, Note_on_c, 0, 94, 93
1, 273813, Note_off_c, 0, 99, 57
1, 273814, Note_off_c, 0, 98, 65
1, 273853, Note_off_c, 0, 100, 68
1, 273861, Note_on_c, 0, 95, 82
1, 273875, Note_on_c, 0, 96, 55
1, 273901, Note_off_c, 0, 94, 65
1, 273902, Note_on_c, 0, 98, 91
1, 273904, Note_off_c, 0, 96, 55
1, 273935, Note_off_c, 0, 95, 64
1, 273937, Note_on_c, 0, 101, 91
1, 273976, Note_off_c, 0, 98, 65
1, 273981, Note_on_c, 0, 94, 89
1, 274015, Note_off_c, 0, 101, 64
1, 274021, Note_on_c, 0, 95, 86
1, 274073, Note_on_c, 0, 98, 93
1, 274075, Note_off_c, 0, 94, 64
1, 274101, Note_off_c, 0, 95, 66
1, 274105, Note_on_c, 0, 100, 83
1, 274140, Note_on_c, 0, 99, 27
1, 274154, Note_on_c, 0, 94, 91
1, 274155, Note_off_c, 0, 98, 65
1, 274170, Note_off_c, 0, 99, 49
1, 274198, Note_on_c, 0, 95, 87
1, 274200, Note_off_c, 0, 100, 69
1, 274245, Note_off_c, 0, 94, 62
1, 274250, Note_on_c, 0, 98, 93
1, 274280, Note_off_c, 0, 95, 66
1, 274289, Note_on_c, 0, 101, 88
1, 274333, Note_on_c, 0, 94, 85
1, 274333, Note_off_c, 0, 98, 65
1, 274366, Note_off_c, 0, 101, 64
1, 274378, Note_on_c, 0, 95, 86
1, 274414, Note_off_c, 0, 94, 57
1, 274435, Note_on_c, 0, 98, 87
1, 274465, Note_off_c, 0, 95, 66
1, 274471, Note_on_c, 0, 100, 87
1, 274512, Note_on_c, 0, 99, 39
1, 274524, Note_off_c, 0, 98, 64
1, 274527, Note_on_c, 0, 94, 83
1, 274548, Note_off_c, 0, 99, 50
1, 274576, Note_on_c, 0, 95, 81
1, 274578, Note_off_c, 0, 100, 64
1, 274620, Note_off_c, 0, 94, 55
1, 274626, Note_on_c, 0, 98, 77
1, 274631, Note_off_c, 0, 95, 65
1, 274660, Note_on_c, 0, 101, 94
1, 274678, Note_off_c, 0, 98, 65
1, 274752, Note_on_c, 0, 99, 86
1, 274762, Note_off_c, 0, 101, 63
1, 274808, Note_on_c, 0, 100, 79
1, 274822, Note_off_c, 0, 99, 61
1, 274854, Note_off_c, 0, 100, 66
1, 274859, Note_on_c, 0, 98, 73
1, 274883, Note_off_c, 0, 98, 65
1, 274926, Note_on_c, 0, 99, 76
1, 274955, Note_on_c, 0, 97, 80
1, 274969, Note_off_c, 0, 99, 60
1, 275003, Note_on_c, 0, 98, 69
1, 275003, Note_off_c, 0, 97, 64
1, 275029, Note_off_c, 0, 98, 69
1, 275040, Note_on_c, 0, 96, 76
1, 275063, Note_off_c, 0, 96, 71
1, 275100, Note_on_c, 0, 97, 82
1, 275144, Note_on_c, 0, 95, 76
1, 275145, Note_off_c, 0, 97, 63
1, 275193, Note_on_c, 0, 96, 81
1, 275193, Note_off_c, 0, 95, 63
1, 275233, Note_on_c, 0, 94, 81
1, 275234, Note_off_c, 0, 96, 60
1, 275274, Note_on_c, 0, 95, 76
1, 275294, Note_off_c, 0, 94, 62
1, 275323, Note_off_c, 0, 95, 64
1, 275326, Note_on_c, 0, 93, 79
1, 275380, Note_off_c, 0, 93, 54
1, 275383, Note_on_c, 0, 94, 83
1, 275425, Note_on_c, 0, 92, 84
1, 275425, Note_off_c, 0, 94, 66
1, 275467, Note_on_c, 0, 93, 79
1, 275475, Note_off_c, 0, 92, 65
1, 275511, Note_off_c, 0, 93, 66
1, 275514, Note_on_c, 0, 91, 82
1, 275570, Note_off_c, 0, 91, 41
1, 275572, Note_on_c, 0, 92, 84
1, 275618, Note_on_c, 0, 90, 81
1, 275619, Note_off_c, 0, 92, 66
1, 275660, Note_on_c, 0, 91, 85
1, 275664, Note_off_c, 0, 90, 60
1, 275702, Note_off_c, 0, 91, 63
1, 275705, Note_on_c, 0, 89, 78
1, 275745, Note_off_c, 0, 89, 0
1, 275765, Note_on_c, 0, 90, 81
1, 275777, Poly_aftertouch_c, 0, 89, 0
1, 275811, Note_on_c, 0, 88, 79
1, 275811, Note_off_c, 0, 90, 65
1, 275833, Note_off_c, 0, 88, 62
1, 275864, Note_on_c, 0, 89, 77
1, 275905, Note_off_c, 0, 89, 61
1, 275913, Note_on_c, 0, 87, 82
1, 275949, Note_on_c, 0, 88, 77
1, 275958, Note_off_c, 0, 87, 64
1, 276002, Note_off_c, 0, 88, 65
1, 276008, Note_on_c, 0, 86, 77
1, 276064, Note_on_c, 0, 87, 85
1, 276065, Note_off_c, 0, 86, 59
1, 276105, Note_off_c, 0, 87, 67
1, 276115, Note_on_c, 0, 85, 79
1, 276161, Note_off_c, 0, 85, 65
1, 276163, Note_on_c, 0, 86, 71
1, 276190, Control_c, 0, 64, 87
1, 276197, Note_off_c, 0, 86, 63
1, 276205, Control_c, 0, 64, 67
1, 276208, Note_on_c, 0, 84, 80
1, 276220, Control_c, 0, 64, 34
1, 276235, Control_c, 0, 64, 0
1, 276259, Note_off_c, 0, 84, 42
1, 276268, Note_on_c, 0, 85, 79
1, 276315, Note_off_c, 0, 85, 65
1, 276323, Control_c, 0, 64, 58
1, 276325, Note_on_c, 0, 83, 75
1, 276338, Control_c, 0, 64, 70
1, 276346, Note_off_c, 0, 83, 69
1, 276353, Control_c, 0, 64, 77
1, 276366, Note_on_c, 0, 84, 80
1, 276367, Control_c, 0, 64, 81
1, 276382, Control_c, 0, 64, 81
1, 276397, Control_c, 0, 64, 82
1, 276407, Note_off_c, 0, 84, 57
1, 276412, Control_c, 0, 64, 83
1, 276427, Note_on_c, 0, 82, 81
1, 276427, Control_c, 0, 64, 84
1, 276441, Control_c, 0, 64, 85
1, 276460, Note_on_c, 0, 83, 74
1, 276466, Note_off_c, 0, 82, 58
1, 276471, Control_c, 0, 64, 84
1, 276486, Control_c, 0, 64, 76
1, 276498, Note_off_c, 0, 83, 62
1, 276501, Control_c, 0, 64, 64
1, 276513, Note_on_c, 0, 81, 74
1, 276516, Control_c, 0, 64, 35
1, 276531, Control_c, 0, 64, 0
1, 276563, Note_off_c, 0, 81, 53
1, 276570, Note_on_c, 0, 82, 78
1, 276605, Control_c, 0, 64, 46
1, 276617, Note_on_c, 0, 80, 75
1, 276617, Note_off_c, 0, 82, 64
1, 276620, Control_c, 0, 64, 63
1, 276635, Control_c, 0, 64, 65
1, 276650, Control_c, 0, 64, 60
1, 276662, Note_on_c, 0, 81, 75
1, 276663, Note_off_c, 0, 80, 62
1, 276665, Control_c, 0, 64, 46
1, 276680, Control_c, 0, 64, 0
1, 276694, Note_off_c, 0, 81, 63
1, 276709, Control_c, 0, 64, 39
1, 276715, Note_on_c, 0, 79, 70
1, 276724, Control_c, 0, 64, 62
1, 276746, Control_c, 0, 64, 72
1, 276761, Control_c, 0, 64, 86
1, 276771, Note_off_c, 0, 79, 57
1, 276775, Control_c, 0, 64, 107
1, 276777, Note_on_c, 0, 80, 79
1, 276790, Control_c, 0, 64, 127
1, 276825, Note_on_c, 0, 78, 76
1, 276825, Note_off_c, 0, 80, 63
1, 276872, Note_off_c, 0, 78, 63
1, 276879, Note_on_c, 0, 79, 70
1, 276898, Note_off_c, 0, 79, 66
1, 276920, Note_on_c, 0, 77, 65
1, 276969, Note_off_c, 0, 77, 42
1, 276980, Note_on_c, 0, 78, 75
1, 277027, Note_off_c, 0, 78, 62
1, 277038, Note_on_c, 0, 76, 62
1, 277057, Note_off_c, 0, 76, 64
1, 277081, Note_on_c, 0, 77, 68
1, 277117, Note_off_c, 0, 77, 60
1, 277133, Note_on_c, 0, 75, 65
1, 277165, Note_off_c, 0, 75, 62
1, 277167, Note_on_c, 0, 76, 58
1, 277198, Note_off_c, 0, 76, 64
1, 277216, Note_on_c, 0, 74, 59
1, 277248, Note_off_c, 0, 74, 52
1, 277273, Note_on_c, 0, 76, 59
1, 277292, Note_off_c, 0, 76, 65
1, 277303, Note_on_c, 0, 73, 68
1, 277340, Note_off_c, 0, 73, 61
1, 277359, Note_on_c, 0, 76, 74
1, 277397, Note_off_c, 0, 76, 59
1, 277410, Note_on_c, 0, 74, 66
1, 277458, Control_c, 0, 64, 101
1, 277465, Note_on_c, 0, 76, 63
1, 277468, Note_off_c, 0, 74, 61
1, 277473, Control_c, 0, 64, 89
1, 277495, Control_c, 0, 64, 81
1, 277508, Note_off_c, 0, 76, 63
1, 277510, Control_c, 0, 64, 75
1, 277518, Note_on_c, 0, 70, 64
1, 277524, Control_c, 0, 64, 70
1, 277539, Control_c, 0, 64, 66
1, 277554, Control_c, 0, 64, 62
1, 277555, Note_off_c, 0, 70, 58
1, 277569, Control_c, 0, 64, 57
1, 277572, Note_on_c, 0, 76, 61
1, 277584, Control_c, 0, 64, 53
1, 277598, Control_c, 0, 64, 51
1, 277607, Note_off_c, 0, 76, 64
1, 277622, Note_on_c, 0, 71, 60
1, 277643, Control_c, 0, 64, 50
1, 277657, Note_off_c, 0, 71, 62
1, 277658, Control_c, 0, 64, 49
1, 277666, Note_on_c, 0, 76, 61
1, 277672, Control_c, 0, 64, 49
1, 277702, Note_off_c, 0, 76, 65
1, 277717, Note_on_c, 0, 73, 65
1, 277763, Note_off_c, 0, 73, 61
1, 277773, Note_on_c, 0, 76, 64
1, 277777, Control_c, 0, 64, 49
1, 277806, Note_off_c, 0, 76, 63
1, 277827, Note_on_c, 0, 74, 56
1, 277885, Note_on_c, 0, 76, 67
1, 277892, Note_off_c, 0, 74, 62
1, 277917, Note_off_c, 0, 76, 63
1, 277944, Note_on_c, 0, 70, 47
1, 277973, Note_off_c, 0, 70, 56
1, 277985, Note_on_c, 0, 76, 57
1, 278023, Note_off_c, 0, 76, 61
1, 278043, Note_on_c, 0, 71, 56
1, 278069, Note_off_c, 0, 71, 57
1, 278087, Note_on_c, 0, 76, 53
1, 278125, Note_off_c, 0, 76, 64
1, 278149, Note_on_c, 0, 73, 56
1, 278183, Note_off_c, 0, 73, 64
1, 278205, Note_on_c, 0, 76, 55
1, 278250, Note_off_c, 0, 76, 63
1, 278274, Note_on_c, 0, 74, 55
1, 278330, Note_off_c, 0, 74, 56
1, 278342, Note_on_c, 0, 76, 59
1, 278379, Note_off_c, 0, 76, 63
1, 278412, Note_on_c, 0, 70, 49
1, 278447, Note_off_c, 0, 70, 62
1, 278471, Note_on_c, 0, 76, 50
1, 278514, Note_off_c, 0, 76, 61
1, 278543, Note_on_c, 0, 71, 47
1, 278575, Note_off_c, 0, 71, 54
1, 278626, Note_on_c, 0, 76, 41
1, 278643, Control_c, 0, 64, 49
1, 278656, Note_off_c, 0, 76, 56
1, 278680, Note_on_c, 0, 72, 48
1, 278713, Note_off_c, 0, 72, 59
1, 278761, Control_c, 0, 64, 48
1, 278763, Note_on_c, 0, 76, 42
1, 278803, Note_off_c, 0, 76, 53
1, 278838, Note_on_c, 0, 73, 50
1, 278851, Control_c, 0, 64, 48
1, 278884, Note_off_c, 0, 73, 59
1, 278916, Note_on_c, 0, 76, 48
1, 278925, Control_c, 0, 64, 47
1, 278966, Note_off_c, 0, 76, 57
1, 278992, Control_c, 0, 64, 47
1, 279014, Note_on_c, 0, 74, 48
1, 279037, Control_c, 0, 64, 46
1, 279067, Note_off_c, 0, 74, 58
1, 279081, Control_c, 0, 64, 46
1, 279098, Note_on_c, 0, 76, 49
1, 279184, Control_c, 0, 64, 45
1, 279195, Note_off_c, 0, 76, 57
1, 279209, Note_on_c, 0, 70, 46
1, 279214, Control_c, 0, 64, 45
1, 279273, Control_c, 0, 64, 44
1, 279288, Control_c, 0, 64, 41
1, 279297, Note_off_c, 0, 70, 48
1, 279303, Control_c, 0, 64, 37
1, 279318, Control_c, 0, 64, 36
1, 279333, Control_c, 0, 64, 36
1, 279341, Note_on_c, 0, 76, 45
1, 279392, Control_c, 0, 64, 36
1, 279422, Control_c, 0, 64, 38
1, 279437, Control_c, 0, 64, 41
1, 279439, Note_off_c, 0, 76, 53
1, 279452, Control_c, 0, 64, 47
1, 279467, Control_c, 0, 64, 52
1, 279482, Control_c, 0, 64, 56
1, 279485, Note_on_c, 0, 71, 42
1, 279497, Control_c, 0, 64, 62
1, 279511, Control_c, 0, 64, 69
1, 279526, Control_c, 0, 64, 79
1, 279541, Control_c, 0, 64, 96
1, 279556, Control_c, 0, 64, 127
1, 279643, Note_off_c, 0, 71, 46
1, 279666, Note_on_c, 0, 76, 50
1, 279789, Note_on_c, 0, 56, 41
1, 279796, Note_off_c, 0, 76, 38
1, 279834, Note_off_c, 0, 56, 59
1, 279886, Note_on_c, 0, 72, 59
1, 279903, Note_on_c, 0, 64, 39
1, 279920, Note_off_c, 0, 72, 62
1, 279962, Note_off_c, 0, 64, 39
1, 280017, Note_on_c, 0, 45, 36
1, 280087, Note_on_c, 0, 52, 38
1, 280156, Control_c, 0, 64, 115
1, 280161, Note_on_c, 0, 57, 43
1, 280171, Control_c, 0, 64, 82
1, 280186, Control_c, 0, 64, 64
1, 280201, Control_c, 0, 64, 0
1, 280210, Note_on_c, 0, 73, 60
1, 280230, Note_on_c, 0, 64, 45
1, 280260, Control_c, 0, 64, 44
1, 280275, Control_c, 0, 64, 59
1, 280290, Control_c, 0, 64, 68
1, 280304, Control_c, 0, 64, 86
1, 280319, Control_c, 0, 64, 127
1, 280340, Note_off_c, 0, 73, 62
1, 280352, Note_off_c, 0, 57, 42
1, 280397, Note_off_c, 0, 64, 50
1, 280405, Note_on_c, 0, 61, 50
1, 280453, Note_off_c, 0, 61, 58
1, 280530, Note_on_c, 0, 71, 79
1, 280540, Note_on_c, 0, 56, 53
1, 280550, Note_on_c, 0, 64, 50
1, 280575, Note_off_c, 0, 64, 63
1, 280586, Note_off_c, 0, 71, 63
1, 280614, Note_off_c, 0, 56, 58
1, 280682, Control_c, 0, 64, 103
1, 280686, Note_on_c, 0, 64, 55
1, 280686, Note_on_c, 0, 73, 77
1, 280689, Note_on_c, 0, 57, 44
1, 280697, Control_c, 0, 64, 68
1, 280712, Control_c, 0, 64, 45
1, 280727, Control_c, 0, 64, 0
1, 280756, Note_off_c, 0, 45, 42
1, 280756, Control_c, 0, 64, 43
1, 280760, Note_off_c, 0, 64, 62
1, 280771, Control_c, 0, 64, 58
1, 280785, Note_off_c, 0, 52, 54
1, 280786, Control_c, 0, 64, 65
1, 280801, Control_c, 0, 64, 77
1, 280811, Note_off_c, 0, 57, 60
1, 280815, Control_c, 0, 64, 92
1, 280830, Control_c, 0, 64, 127
1, 280842, Note_on_c, 0, 61, 56
1, 280880, Note_off_c, 0, 61, 63
1, 280889, Note_off_c, 0, 73, 54
1, 280943, Note_on_c, 0, 59, 39
1, 280973, Note_on_c, 0, 74, 62
1, 280995, Note_on_c, 0, 64, 34
1, 281038, Control_c, 0, 64, 88
1, 281045, Note_off_c, 0, 64, 45
1, 281053, Control_c, 0, 64, 69
1, 281068, Control_c, 0, 64, 51
1, 281082, Control_c, 0, 64, 0
1, 281089, Note_off_c, 0, 59, 35
1, 281137, Note_on_c, 0, 56, 44
1, 281142, Control_c, 0, 64, 34
1, 281143, Note_off_c, 0, 74, 32
1, 281150, Note_on_c, 0, 71, 50
1, 281157, Control_c, 0, 64, 50
1, 281159, Note_on_c, 0, 64, 43
1, 281172, Control_c, 0, 64, 61
1, 281187, Control_c, 0, 64, 70
1, 281202, Control_c, 0, 64, 83
1, 281202, Note_off_c, 0, 56, 56
1, 281217, Control_c, 0, 64, 99
1, 281217, Note_off_c, 0, 64, 41
1, 281238, Control_c, 0, 64, 127
1, 281264, Note_off_c, 0, 71, 30
1, 281352, Note_on_c, 0, 56, 40
1, 281373, Note_on_c, 0, 52, 43
1, 281376, Note_on_c, 0, 76, 67
1, 281384, Note_on_c, 0, 64, 39
1, 281416, Control_c, 0, 64, 106
1, 281431, Control_c, 0, 64, 78
1, 281446, Control_c, 0, 64, 60
1, 281461, Control_c, 0, 64, 0
1, 281466, Note_off_c, 0, 52, 51
1, 281503, Note_off_c, 0, 56, 60
1, 281515, Note_on_c, 0, 57, 64
1, 281528, Note_on_c, 0, 54, 46
1, 281579, Control_c, 0, 64, 44
1, 281594, Control_c, 0, 64, 62
1, 281609, Control_c, 0, 64, 70
1, 281624, Control_c, 0, 64, 80
1, 281629, Note_off_c, 0, 54, 56
1, 281638, Control_c, 0, 64, 92
1, 281648, Note_off_c, 0, 57, 60
1, 281653, Control_c, 0, 64, 105
1, 281656, Note_on_c, 0, 59, 71
1, 281663, Note_off_c, 0, 64, 38
1, 281668, Control_c, 0, 64, 127
1, 281689, Note_on_c, 0, 56, 37
1, 281723, Note_off_c, 0, 56, 49
1, 281775, Note_off_c, 0, 59, 40
1, 281786, Note_on_c, 0, 61, 70
1, 281792, Note_on_c, 0, 57, 53
1, 281818, Note_off_c, 0, 76, 36
1, 281878, Note_off_c, 0, 61, 58
1, 281878, Note_off_c, 0, 57, 57
1, 281909, Note_on_c, 0, 56, 66
1, 281914, Note_on_c, 0, 71, 76
1, 281920, Note_on_c, 0, 62, 52
1, 281931, Note_on_c, 0, 64, 54
1, 281935, Note_off_c, 0, 56, 63
1, 281942, Note_off_c, 0, 71, 63
1, 281945, Note_off_c, 0, 62, 57
1, 282017, Note_off_c, 0, 64, 37
1, 282092, Control_c, 0, 64, 106
1, 282106, Control_c, 0, 64, 73
1, 282120, Note_on_c, 0, 73, 74
1, 282121, Control_c, 0, 64, 54
1, 282129, Note_on_c, 0, 64, 32
1, 282136, Note_on_c, 0, 57, 36
1, 282136, Control_c, 0, 64, 0
1, 282137, Note_on_c, 0, 52, 33
1, 282138, Note_on_c, 0, 45, 25
1, 282195, Control_c, 0, 64, 52
1, 282210, Control_c, 0, 64, 64
1, 282225, Control_c, 0, 64, 73
1, 282239, Control_c, 0, 64, 87
1, 282254, Note_off_c, 0, 57, 54
1, 282254, Control_c, 0, 64, 106
1, 282264, Note_off_c, 0, 73, 61
1, 282269, Control_c, 0, 64, 127
1, 282289, Note_off_c, 0, 64, 57
1, 282290, Note_on_c, 0, 61, 64
1, 282356, Note_off_c, 0, 61, 60
1, 282424, Note_on_c, 0, 71, 83
1, 282428, Note_on_c, 0, 56, 56
1, 282432, Note_on_c, 0, 64, 64
1, 282465, Note_off_c, 0, 64, 62
1, 282479, Note_off_c, 0, 71, 62
1, 282519, Note_off_c, 0, 56, 58
1, 282565, Note_on_c, 0, 73, 88
1, 282566, Control_c, 0, 64, 81
1, 282568, Note_on_c, 0, 57, 54
1, 282573, Note_on_c, 0, 64, 71
1, 282581, Control_c, 0, 64, 62
1, 282596, Note_off_c, 0, 45, 46
1, 282596, Control_c, 0, 64, 0
1, 282625, Control_c, 0, 64, 38
1, 282640, Control_c, 0, 64, 56
1, 282647, Note_off_c, 0, 64, 63
1, 282654, Control_c, 0, 64, 66
1, 282656, Note_off_c, 0, 52, 56
1, 282669, Control_c, 0, 64, 77
1, 282683, Note_off_c, 0, 57, 62
1, 282684, Control_c, 0, 64, 101
1, 282699, Control_c, 0, 64, 127
1, 282717, Note_on_c, 0, 61, 64
1, 282755, Note_off_c, 0, 61, 66
1, 282767, Note_off_c, 0, 73, 57
1, 282830, Note_on_c, 0, 59, 47
1, 282850, Note_on_c, 0, 74, 78
1, 282855, Control_c, 0, 64, 96
1, 282858, Note_on_c, 0, 64, 59
1, 282869, Control_c, 0, 64, 72
1, 282884, Control_c, 0, 64, 52
1, 282899, Control_c, 0, 64, 0
1, 282904, Note_off_c, 0, 64, 60
1, 282970, Note_off_c, 0, 59, 47
1, 282996, Note_on_c, 0, 56, 45
1, 283011, Note_on_c, 0, 71, 68
1, 283017, Control_c, 0, 64, 52
1, 283021, Note_off_c, 0, 74, 54
1, 283022, Note_on_c, 0, 64, 47
1, 283032, Control_c, 0, 64, 64
1, 283047, Control_c, 0, 64, 71
1, 283052, Note_off_c, 0, 56, 59
1, 283057, Note_off_c, 0, 64, 52
1, 283062, Control_c, 0, 64, 79
1, 283077, Control_c, 0, 64, 85
1, 283092, Control_c, 0, 64, 90
1, 283107, Control_c, 0, 64, 94
1, 283121, Control_c, 0, 64, 97
1, 283136, Control_c, 0, 64, 100
1, 283166, Control_c, 0, 64, 102
1, 283189, Note_off_c, 0, 71, 36
1, 283195, Note_on_c, 0, 56, 43
1, 283214, Note_on_c, 0, 52, 40
1, 283214, Note_on_c, 0, 76, 82
1, 283232, Note_on_c, 0, 64, 50
1, 283240, Control_c, 0, 64, 93
1, 283255, Control_c, 0, 64, 81
1, 283269, Control_c, 0, 64, 67
1, 283284, Control_c, 0, 64, 48
1, 283299, Control_c, 0, 64, 0
1, 283302, Note_off_c, 0, 52, 51
1, 283334, Note_off_c, 0, 56, 53
1, 283347, Note_on_c, 0, 57, 59
1, 283359, Note_on_c, 0, 54, 45
1, 283445, Note_off_c, 0, 54, 58
1, 283466, Note_off_c, 0, 57, 63
1, 283481, Note_on_c, 0, 56, 51
1, 283485, Control_c, 0, 64, 40
1, 283492, Note_on_c, 0, 59, 60
1, 283500, Control_c, 0, 64, 62
1, 283515, Control_c, 0, 64, 69
1, 283520, Note_off_c, 0, 56, 63
1, 283530, Control_c, 0, 64, 75
1, 283545, Control_c, 0, 64, 82
1, 283559, Control_c, 0, 64, 88
1, 283574, Control_c, 0, 64, 97
1, 283589, Note_off_c, 0, 59, 39
1, 283589, Control_c, 0, 64, 112
1, 283589, Note_off_c, 0, 64, 38
1, 283604, Control_c, 0, 64, 127
1, 283608, Note_on_c, 0, 61, 64
1, 283616, Note_on_c, 0, 57, 55
1, 283676, Note_off_c, 0, 76, 38
1, 283687, Note_off_c, 0, 61, 56
1, 283715, Note_off_c, 0, 57, 53
1, 283738, Note_on_c, 0, 62, 54
1, 283757, Note_on_c, 0, 71, 68
1, 283759, Note_on_c, 0, 56, 45
1, 283771, Note_on_c, 0, 64, 48
1, 283797, Note_off_c, 0, 64, 57
1, 283826, Control_c, 0, 64, 107
1, 283840, Control_c, 0, 64, 81
1, 283847, Note_off_c, 0, 56, 52
1, 283855, Control_c, 0, 64, 64
1, 283862, Note_off_c, 0, 71, 55
1, 283868, Note_off_c, 0, 62, 50
1, 283870, Control_c, 0, 64, 0
1, 283897, Note_on_c, 0, 57, 36
1, 283923, Note_on_c, 0, 61, 43
1, 283928, Note_on_c, 0, 73, 67
1, 283940, Note_on_c, 0, 69, 52
1, 283944, Note_on_c, 0, 64, 24
1, 283944, Control_c, 0, 64, 39
1, 283959, Control_c, 0, 64, 60
1, 283973, Note_off_c, 0, 57, 59
1, 283974, Control_c, 0, 64, 71
1, 283980, Note_off_c, 0, 61, 59
1, 283980, Note_off_c, 0, 64, 50
1, 283986, Note_off_c, 0, 69, 57
1, 283989, Control_c, 0, 64, 89
1, 284003, Note_off_c, 0, 73, 60
1, 284003, Control_c, 0, 64, 124
1, 284018, Control_c, 0, 64, 127
1, 284081, Note_on_c, 0, 76, 74
1, 284100, Note_on_c, 0, 73, 68
1, 284124, Note_on_c, 0, 50, 48
1, 284135, Note_off_c, 0, 73, 61
1, 284152, Note_off_c, 0, 50, 57
1, 284212, Note_on_c, 0, 73, 76
1, 284230, Note_on_c, 0, 69, 60
1, 284234, Note_on_c, 0, 62, 49
1, 284242, Note_off_c, 0, 76, 54
1, 284260, Note_off_c, 0, 69, 64
1, 284311, Note_off_c, 0, 73, 62
1, 284338, Control_c, 0, 64, 84
1, 284353, Control_c, 0, 64, 64
1, 284357, Note_on_c, 0, 74, 74
1, 284364, Note_on_c, 0, 71, 58
1, 284368, Control_c, 0, 64, 37
1, 284369, Note_off_c, 0, 62, 31
1, 284373, Note_on_c, 0, 66, 58
1, 284382, Control_c, 0, 64, 0
1, 284397, Control_c, 0, 64, 46
1, 284412, Control_c, 0, 64, 61
1, 284415, Note_off_c, 0, 71, 51
1, 284418, Note_off_c, 0, 74, 61
1, 284427, Control_c, 0, 64, 70
1, 284439, Note_off_c, 0, 66, 60
1, 284442, Control_c, 0, 64, 83
1, 284457, Control_c, 0, 64, 111
1, 284472, Control_c, 0, 64, 127
1, 284492, Note_on_c, 0, 78, 73
1, 284493, Note_on_c, 0, 74, 78
1, 284502, Note_on_c, 0, 59, 49
1, 284504, Note_on_c, 0, 62, 57
1, 284528, Note_off_c, 0, 59, 60
1, 284547, Note_off_c, 0, 62, 56
1, 284549, Note_off_c, 0, 74, 60
1, 284550, Note_off_c, 0, 78, 62
1, 284618, Note_on_c, 0, 74, 77
1, 284625, Note_on_c, 0, 71, 73
1, 284634, Note_on_c, 0, 62, 43
1, 284636, Note_on_c, 0, 66, 50
1, 284656, Note_off_c, 0, 66, 62
1, 284660, Note_off_c, 0, 62, 58
1, 284711, Note_off_c, 0, 71, 60
1, 284722, Note_off_c, 0, 74, 52
1, 284723, Control_c, 0, 64, 86
1, 284738, Control_c, 0, 64, 63
1, 284752, Note_on_c, 0, 73, 72
1, 284753, Control_c, 0, 64, 0
1, 284761, Note_on_c, 0, 69, 63
1, 284780, Note_on_c, 0, 64, 44
1, 284784, Note_on_c, 0, 52, 48
1, 284805, Note_off_c, 0, 64, 55
1, 284812, Control_c, 0, 64, 48
1, 284826, Control_c, 0, 64, 64
1, 284841, Control_c, 0, 64, 76
1, 284844, Note_off_c, 0, 52, 43
1, 284856, Control_c, 0, 64, 100
1, 284871, Control_c, 0, 64, 127
1, 284910, Note_off_c, 0, 73, 61
1, 284926, Note_off_c, 0, 69, 60
1, 284934, Note_on_c, 0, 57, 45
1, 284934, Note_on_c, 0, 61, 48
1, 284963, Note_off_c, 0, 61, 57
1, 285038, Note_off_c, 0, 57, 0
1, 285057, Note_on_c, 0, 61, 56
1, 285062, Note_on_c, 0, 64, 37
1, 285067, Poly_aftertouch_c, 0, 57, 0
1, 285078, Note_off_c, 0, 61, 63
1, 285092, Note_off_c, 0, 64, 50
1, 285161, Control_c, 0, 64, 110
1, 285176, Control_c, 0, 64, 76
1, 285191, Control_c, 0, 64, 53
1, 285205, Control_c, 0, 64, 0
1, 285220, Control_c, 0, 64, 39
1, 285231, Note_on_c, 0, 40, 55
1, 285235, Control_c, 0, 64, 56
1, 285236, Note_on_c, 0, 71, 64
1, 285250, Control_c, 0, 64, 66
1, 285262, Note_on_c, 0, 64, 22
1, 285265, Control_c, 0, 64, 78
1, 285268, Note_on_c, 0, 62, 26
1, 285280, Control_c, 0, 64, 105
1, 285281, Note_off_c, 0, 40, 61
1, 285294, Control_c, 0, 64, 127
1, 285314, Note_off_c, 0, 64, 44
1, 285318, Note_off_c, 0, 62, 46
1, 285327, Note_off_c, 0, 71, 59
1, 285418, Note_on_c, 0, 74, 66
1, 285422, Note_on_c, 0, 59, 59
1, 285430, Note_on_c, 0, 71, 66
1, 285444, Note_on_c, 0, 52, 31
1, 285453, Note_off_c, 0, 59, 66
1, 285468, Note_off_c, 0, 74, 56
1, 285478, Note_off_c, 0, 52, 53
1, 285483, Note_off_c, 0, 71, 53
1, 285551, Note_on_c, 0, 71, 58
1, 285554, Note_on_c, 0, 59, 56
1, 285563, Note_on_c, 0, 62, 48
1, 285576, Note_on_c, 0, 68, 60
1, 285584, Note_off_c, 0, 59, 64
1, 285587, Note_off_c, 0, 62, 57
1, 285649, Control_c, 0, 64, 84
1, 285657, Note_off_c, 0, 71, 61
1, 285661, Note_off_c, 0, 68, 57
1, 285664, Control_c, 0, 64, 63
1, 285679, Control_c, 0, 64, 0
1, 285708, Note_on_c, 0, 69, 64
1, 285709, Note_on_c, 0, 61, 59
1, 285710, Control_c, 0, 64, 51
1, 285733, Control_c, 0, 64, 65
1, 285742, Note_off_c, 0, 61, 63
1, 285748, Control_c, 0, 64, 75
1, 285750, Note_off_c, 0, 69, 61
1, 285756, Note_on_c, 0, 57, 11
1, 285762, Control_c, 0, 64, 92
1, 285777, Control_c, 0, 64, 127
1, 285787, Poly_aftertouch_c, 0, 45, 0
1, 285801, Note_off_c, 0, 57, 54
1, 285874, Note_on_c, 0, 73, 78
1, 285875, Note_on_c, 0, 81, 77
1, 285882, Note_on_c, 0, 64, 55
1, 285953, Note_off_c, 0, 64, 53
1, 285978, Note_off_c, 0, 81, 50
1, 285988, Note_on_c, 0, 75, 65
1, 285995, Note_on_c, 0, 66, 50
1, 286011, Note_off_c, 0, 73, 36
1, 286043, Control_c, 0, 64, 92
1, 286058, Control_c, 0, 64, 70
1, 286073, Control_c, 0, 64, 53
1, 286087, Control_c, 0, 64, 0
1, 286096, Note_off_c, 0, 66, 60
1, 286097, Note_off_c, 0, 75, 57
1, 286125, Note_on_c, 0, 68, 44
1, 286132, Control_c, 0, 64, 45
1, 286134, Note_on_c, 0, 80, 73
1, 286147, Control_c, 0, 64, 56
1, 286158, Note_on_c, 0, 76, 50
1, 286162, Control_c, 0, 64, 66
1, 286177, Control_c, 0, 64, 78
1, 286186, Note_off_c, 0, 76, 59
1, 286192, Control_c, 0, 64, 111
1, 286204, Note_off_c, 0, 68, 52
1, 286206, Control_c, 0, 64, 127
1, 286213, Note_off_c, 0, 80, 56
1, 286263, Note_on_c, 0, 67, 51
1, 286268, Note_on_c, 0, 76, 73
1, 286282, Note_on_c, 0, 71, 52
1, 286325, Note_off_c, 0, 76, 48
1, 286328, Note_off_c, 0, 71, 56
1, 286331, Note_off_c, 0, 67, 57
1, 286401, Note_on_c, 0, 79, 75
1, 286408, Note_on_c, 0, 64, 45
1, 286425, Note_on_c, 0, 73, 53
1, 286442, Note_off_c, 0, 79, 61
1, 286507, Note_off_c, 0, 73, 40
1, 286525, Note_off_c, 0, 64, 61
1, 286540, Control_c, 0, 64, 105
1, 286555, Control_c, 0, 64, 78
1, 286570, Control_c, 0, 64, 61
1, 286578, Note_on_c, 0, 62, 43
1, 286584, Control_c, 0, 64, 0
1, 286591, Note_on_c, 0, 78, 57
1, 286602, Note_on_c, 0, 74, 50
1, 286628, Control_c, 0, 64, 41
1, 286643, Control_c, 0, 64, 53
1, 286647, Note_off_c, 0, 74, 61
1, 286658, Control_c, 0, 64, 64
1, 286666, Note_off_c, 0, 62, 61
1, 286673, Control_c, 0, 64, 74
1, 286688, Control_c, 0, 64, 98
1, 286702, Control_c, 0, 64, 127
1, 286728, Note_off_c, 0, 78, 37
1, 286736, Note_on_c, 0, 70, 49
1, 286741, Note_on_c, 0, 65, 46
1, 286746, Note_on_c, 0, 74, 47
1, 286784, Note_off_c, 0, 70, 60
1, 286819, Note_off_c, 0, 74, 39
1, 286821, Note_off_c, 0, 65, 46
1, 286911, Note_on_c, 0, 77, 61
1, 286913, Note_on_c, 0, 60, 37
1, 286946, Note_off_c, 0, 60, 52
1, 286950, Note_off_c, 0, 77, 57
1, 286965, Note_on_c, 0, 69, 19
1, 287050, Note_off_c, 0, 69, 38
1, 287074, Control_c, 0, 64, 84
1, 287089, Control_c, 0, 64, 65
1, 287103, Note_on_c, 0, 59, 36
1, 287103, Control_c, 0, 64, 46
1, 287105, Note_on_c, 0, 76, 58
1, 287118, Control_c, 0, 64, 36
1, 287131, Note_on_c, 0, 68, 38
1, 287133, Control_c, 0, 64, 43
1, 287147, Control_c, 0, 64, 53
1, 287152, Note_off_c, 0, 76, 52
1, 287162, Control_c, 0, 64, 61
1, 287177, Control_c, 0, 64, 70
1, 287192, Control_c, 0, 64, 82
1, 287199, Note_off_c, 0, 68, 42
1, 287207, Control_c, 0, 64, 101
1, 287229, Control_c, 0, 64, 127
1, 287252, Note_on_c, 0, 71, 61
1, 287262, Note_on_c, 0, 64, 44
1, 287263, Note_off_c, 0, 59, 30
1, 287271, Note_on_c, 0, 56, 49
1, 287282, Note_off_c, 0, 71, 67
1, 287289, Note_off_c, 0, 64, 55
1, 287333, Note_off_c, 0, 56, 54
1, 287355, Note_on_c, 0, 52, 43
1, 287365, Note_on_c, 0, 68, 62
1, 287386, Note_off_c, 0, 52, 52
1, 287387, Note_off_c, 0, 68, 66
1, 287426, Note_on_c, 0, 83, 82
1, 287471, Note_on_c, 0, 45, 48
1, 287488, Note_off_c, 0, 83, 61
1, 287500, Note_off_c, 0, 45, 53
1, 287524, Note_on_c, 0, 52, 49
1, 287561, Note_off_c, 0, 52, 64
1, 287569, Note_on_c, 0, 69, 64
1, 287587, Note_off_c, 0, 69, 65
1, 287600, Control_c, 0, 64, 122
1, 287611, Note_on_c, 0, 61, 59
1, 287615, Control_c, 0, 64, 79
1, 287630, Control_c, 0, 64, 61
1, 287645, Control_c, 0, 64, 37
1, 287655, Note_on_c, 0, 85, 93
1, 287659, Control_c, 0, 64, 45
1, 287674, Control_c, 0, 64, 60
1, 287680, Note_off_c, 0, 61, 50
1, 287689, Control_c, 0, 64, 71
1, 287704, Control_c, 0, 64, 93
1, 287719, Control_c, 0, 64, 127
1, 287739, Note_off_c, 0, 85, 64
1, 287759, Note_on_c, 0, 52, 51
1, 287868, Note_off_c, 0, 52, 58
1, 287875, Note_on_c, 0, 68, 69
1, 287897, Note_off_c, 0, 68, 66
1, 287903, Note_on_c, 0, 59, 52
1, 287909, Note_on_c, 0, 56, 59
1, 287924, Note_on_c, 0, 83, 81
1, 287932, Note_off_c, 0, 59, 64
1, 287956, Note_off_c, 0, 83, 59
1, 288007, Control_c, 0, 64, 82
1, 288021, Note_off_c, 0, 56, 56
1, 288022, Control_c, 0, 64, 61
1, 288037, Note_on_c, 0, 69, 70
1, 288037, Control_c, 0, 64, 37
1, 288052, Control_c, 0, 64, 49
1, 288058, Note_off_c, 0, 69, 64
1, 288067, Control_c, 0, 64, 62
1, 288080, Note_on_c, 0, 61, 61
1, 288082, Control_c, 0, 64, 77
1, 288097, Control_c, 0, 64, 127
1, 288101, Note_on_c, 0, 57, 36
1, 288105, Note_on_c, 0, 85, 89
1, 288120, Note_off_c, 0, 61, 58
1, 288138, Note_off_c, 0, 57, 51
1, 288149, Note_off_c, 0, 85, 65
1, 288195, Note_on_c, 0, 52, 53
1, 288243, Note_off_c, 0, 52, 55
1, 288299, Note_on_c, 0, 71, 76
1, 288302, Note_on_c, 0, 62, 45
1, 288322, Note_off_c, 0, 71, 71
1, 288328, Note_off_c, 0, 62, 56
1, 288354, Note_on_c, 0, 86, 84
1, 288390, Note_off_c, 0, 86, 61
1, 288408, Control_c, 0, 64, 112
1, 288418, Note_on_c, 0, 45, 57
1, 288423, Control_c, 0, 64, 73
1, 288438, Control_c, 0, 64, 51
1, 288447, Note_off_c, 0, 45, 56
1, 288453, Control_c, 0, 64, 0
1, 288468, Control_c, 0, 64, 47
1, 288481, Note_on_c, 0, 68, 72
1, 288482, Control_c, 0, 64, 62
1, 288493, Note_on_c, 0, 52, 34
1, 288497, Control_c, 0, 64, 74
1, 288503, Note_off_c, 0, 68, 68
1, 288512, Control_c, 0, 64, 101
1, 288527, Note_off_c, 0, 52, 44
1, 288527, Control_c, 0, 64, 127
1, 288529, Note_on_c, 0, 83, 84
1, 288536, Note_on_c, 0, 59, 27
1, 288570, Note_off_c, 0, 83, 63
1, 288572, Note_off_c, 0, 59, 48
1, 288705, Note_on_c, 0, 76, 84
1, 288705, Note_on_c, 0, 88, 84
1, 288708, Note_on_c, 0, 64, 28
1, 288711, Note_on_c, 0, 56, 50
1, 288749, Note_off_c, 0, 64, 51
1, 288764, Note_on_c, 0, 52, 3
1, 288771, Control_c, 0, 64, 93
1, 288786, Control_c, 0, 64, 66
1, 288800, Note_off_c, 0, 52, 46
1, 288801, Control_c, 0, 64, 35
1, 288815, Note_off_c, 0, 56, 60
1, 288815, Control_c, 0, 64, 0
1, 288853, Note_on_c, 0, 57, 61
1, 288854, Note_on_c, 0, 54, 51
1, 288860, Control_c, 0, 64, 36
1, 288875, Control_c, 0, 64, 58
1, 288889, Control_c, 0, 64, 71
1, 288905, Note_off_c, 0, 88, 62
1, 288905, Control_c, 0, 64, 93
1, 288920, Control_c, 0, 64, 127
1, 288946, Note_off_c, 0, 54, 57
1, 288949, Note_off_c, 0, 57, 60
1, 288972, Note_on_c, 0, 56, 51
1, 288978, Note_off_c, 0, 76, 60
1, 288982, Note_on_c, 0, 59, 61
1, 289000, Note_off_c, 0, 56, 61
1, 289039, Note_off_c, 0, 59, 55
1, 289094, Note_on_c, 0, 61, 61
1, 289101, Note_on_c, 0, 57, 47
1, 289144, Note_off_c, 0, 57, 59
1, 289146, Note_off_c, 0, 61, 54
1, 289162, Note_on_c, 0, 68, 75
1, 289184, Note_on_c, 0, 62, 68
1, 289194, Note_on_c, 0, 59, 53
1, 289195, Note_off_c, 0, 68, 63
1, 289212, Note_off_c, 0, 59, 64
1, 289212, Note_off_c, 0, 62, 67
1, 289215, Note_on_c, 0, 76, 67
1, 289248, Note_on_c, 0, 83, 74
1, 289260, Note_off_c, 0, 76, 61
1, 289270, Note_off_c, 0, 83, 69
1, 289306, Control_c, 0, 64, 117
1, 289321, Control_c, 0, 64, 75
1, 289327, Note_on_c, 0, 45, 49
1, 289327, Note_on_c, 0, 69, 73
1, 289336, Control_c, 0, 64, 52
1, 289349, Note_off_c, 0, 69, 70
1, 289350, Control_c, 0, 64, 0
1, 289357, Note_off_c, 0, 45, 52
1, 289362, Note_on_c, 0, 76, 72
1, 289375, Note_on_c, 0, 52, 51
1, 289380, Control_c, 0, 64, 46
1, 289395, Control_c, 0, 64, 64
1, 289405, Note_off_c, 0, 52, 59
1, 289410, Control_c, 0, 64, 77
1, 289417, Note_on_c, 0, 85, 88
1, 289424, Control_c, 0, 64, 105
1, 289426, Note_off_c, 0, 76, 62
1, 289432, Note_on_c, 0, 61, 64
1, 289432, Note_on_c, 0, 79, 39
1, 289439, Control_c, 0, 64, 127
1, 289480, Note_off_c, 0, 61, 59
1, 289489, Note_off_c, 0, 79, 44
1, 289493, Note_off_c, 0, 85, 64
1, 289548, Note_on_c, 0, 52, 45
1, 289551, Poly_aftertouch_c, 0, 82, 0
1, 289616, Note_on_c, 0, 68, 76
1, 289637, Note_off_c, 0, 68, 69
1, 289651, Note_off_c, 0, 52, 51
1, 289654, Note_on_c, 0, 76, 72
1, 289674, Note_on_c, 0, 59, 50
1, 289681, Note_on_c, 0, 56, 57
1, 289690, Note_on_c, 0, 83, 75
1, 289697, Note_off_c, 0, 76, 59
1, 289709, Note_off_c, 0, 59, 64
1, 289712, Note_off_c, 0, 83, 67
1, 289715, Control_c, 0, 64, 97
1, 289729, Control_c, 0, 64, 69
1, 289744, Control_c, 0, 64, 0
1, 289772, Note_on_c, 0, 69, 70
1, 289781, Note_off_c, 0, 56, 56
1, 289788, Control_c, 0, 64, 35
1, 289792, Note_on_c, 0, 76, 60
1, 289796, Note_off_c, 0, 69, 69
1, 289803, Control_c, 0, 64, 58
1, 289818, Control_c, 0, 64, 72
1, 289831, Note_on_c, 0, 61, 60
1, 289833, Control_c, 0, 64, 93
1, 289837, Note_on_c, 0, 57, 52
1, 289847, Note_on_c, 0, 79, 62
1, 289847, Control_c, 0, 64, 127
1, 289855, Note_off_c, 0, 76, 63
1, 289858, Note_on_c, 0, 85, 65
1, 289867, Note_off_c, 0, 79, 65
1, 289876, Note_off_c, 0, 57, 63
1, 289878, Note_off_c, 0, 85, 41
1, 289888, Note_off_c, 0, 61, 55
1, 289894, Note_on_c, 0, 84, 43
1, 289921, Note_off_c, 0, 84, 53
1, 289936, Poly_aftertouch_c, 0, 82, 127
1, 289945, Note_on_c, 0, 52, 51
1, 289969, Poly_aftertouch_c, 0, 82, 0
1, 289983, Note_off_c, 0, 52, 58
1, 290017, Note_on_c, 0, 71, 57
1, 290033, Note_on_c, 0, 62, 47
1, 290035, Note_on_c, 0, 76, 72
1, 290039, Note_off_c, 0, 71, 61
1, 290041, Note_on_c, 0, 59, 24
1, 290059, Note_off_c, 0, 62, 57
1, 290064, Note_off_c, 0, 76, 60
1, 290073, Note_on_c, 0, 86, 80
1, 290079, Note_off_c, 0, 59, 46
1, 290093, Note_off_c, 0, 86, 71
1, 290144, Control_c, 0, 64, 82
1, 290151, Note_on_c, 0, 45, 60
1, 290159, Control_c, 0, 64, 56
1, 290173, Control_c, 0, 64, 0
1, 290180, Note_off_c, 0, 45, 56
1, 290201, Note_on_c, 0, 68, 53
1, 290203, Control_c, 0, 64, 52
1, 290209, Note_on_c, 0, 52, 45
1, 290210, Note_on_c, 0, 76, 67
1, 290225, Control_c, 0, 64, 65
1, 290234, Note_off_c, 0, 68, 37
1, 290240, Note_on_c, 0, 59, 55
1, 290240, Control_c, 0, 64, 77
1, 290244, Note_off_c, 0, 52, 57
1, 290251, Note_on_c, 0, 83, 84
1, 290255, Control_c, 0, 64, 100
1, 290258, Note_off_c, 0, 76, 63
1, 290270, Control_c, 0, 64, 127
1, 290273, Note_off_c, 0, 59, 64
1, 290282, Note_off_c, 0, 83, 63
1, 290420, Note_on_c, 0, 56, 54
1, 290422, Note_on_c, 0, 64, 28
1, 290422, Note_on_c, 0, 88, 86
1, 290428, Note_on_c, 0, 76, 77
1, 290431, Note_on_c, 0, 52, 29
1, 290459, Note_off_c, 0, 64, 44
1, 290462, Control_c, 0, 64, 90
1, 290477, Control_c, 0, 64, 63
1, 290480, Note_off_c, 0, 52, 55
1, 290493, Control_c, 0, 64, 0
1, 290536, Note_off_c, 0, 56, 59
1, 290576, Note_on_c, 0, 57, 55
1, 290582, Control_c, 0, 64, 55
1, 290589, Note_on_c, 0, 54, 43
1, 290596, Control_c, 0, 64, 68
1, 290611, Control_c, 0, 64, 83
1, 290618, Note_off_c, 0, 88, 62
1, 290626, Control_c, 0, 64, 127
1, 290642, Note_off_c, 0, 54, 57
1, 290667, Note_off_c, 0, 57, 54
1, 290681, Note_off_c, 0, 76, 59
1, 290687, Note_on_c, 0, 56, 52
1, 290705, Note_on_c, 0, 59, 56
1, 290718, Note_off_c, 0, 56, 61
1, 290753, Note_off_c, 0, 59, 52
1, 290837, Note_on_c, 0, 61, 39
1, 290879, Poly_aftertouch_c, 0, 57, 127
1, 290885, Note_off_c, 0, 61, 44
1, 290889, Note_on_c, 0, 68, 68
1, 290912, Note_on_c, 0, 59, 52
1, 290913, Note_on_c, 0, 62, 56
1, 290916, Note_off_c, 0, 68, 67
1, 290928, Poly_aftertouch_c, 0, 57, 0
1, 290936, Note_off_c, 0, 59, 64
1, 290937, Note_off_c, 0, 62, 62
1, 290940, Note_on_c, 0, 76, 60
1, 290989, Note_on_c, 0, 83, 66
1, 291008, Note_off_c, 0, 76, 61
1, 291013, Note_off_c, 0, 83, 68
1, 291018, Control_c, 0, 64, 95
1, 291033, Control_c, 0, 64, 67
1, 291048, Control_c, 0, 64, 0
1, 291076, Note_on_c, 0, 69, 61
1, 291092, Control_c, 0, 64, 51
1, 291094, Note_off_c, 0, 69, 65
1, 291107, Control_c, 0, 64, 66
1, 291121, Control_c, 0, 64, 80
1, 291127, Note_on_c, 0, 76, 59
1, 291136, Control_c, 0, 64, 117
1, 291151, Control_c, 0, 64, 127
1, 291167, Note_off_c, 0, 76, 59
1, 291186, Note_on_c, 0, 61, 60
1, 291190, Note_on_c, 0, 85, 82
1, 291221, Note_off_c, 0, 61, 64
1, 291282, Note_off_c, 0, 85, 57
1, 291348, Note_on_c, 0, 64, 55
1, 291383, Note_off_c, 0, 64, 64
1, 291431, Note_on_c, 0, 61, 40
1, 291438, Note_on_c, 0, 57, 44
1, 291456, Note_off_c, 0, 61, 59
1, 291468, Note_off_c, 0, 57, 54
1, 291478, Control_c, 0, 64, 91
1, 291492, Control_c, 0, 64, 65
1, 291507, Control_c, 0, 64, 0
1, 291528, Note_on_c, 0, 50, 60
1, 291534, Note_on_c, 0, 71, 51
1, 291538, Control_c, 0, 64, 43
1, 291551, Note_off_c, 0, 50, 59
1, 291552, Control_c, 0, 64, 62
1, 291558, Note_off_c, 0, 71, 60
1, 291559, Note_on_c, 0, 78, 40
1, 291567, Control_c, 0, 64, 75
1, 291569, Note_on_c, 0, 62, 60
1, 291582, Control_c, 0, 64, 97
1, 291587, Note_off_c, 0, 78, 52
1, 291593, Note_on_c, 0, 86, 72
1, 291597, Control_c, 0, 64, 127
1, 291607, Note_off_c, 0, 62, 60
1, 291620, Note_off_c, 0, 86, 64
1, 291662, Note_on_c, 0, 74, 52
1, 291683, Note_on_c, 0, 66, 50
1, 291686, Note_off_c, 0, 74, 59
1, 291717, Note_on_c, 0, 90, 86
1, 291733, Note_off_c, 0, 66, 48
1, 291742, Note_off_c, 0, 90, 71
1, 291761, Note_on_c, 0, 59, 45
1, 291787, Note_off_c, 0, 59, 61
1, 291789, Note_on_c, 0, 62, 38
1, 291819, Note_on_c, 0, 71, 68
1, 291826, Note_on_c, 0, 66, 61
1, 291837, Note_off_c, 0, 71, 63
1, 291849, Note_off_c, 0, 62, 63
1, 291860, Note_off_c, 0, 66, 62
1, 291870, Note_on_c, 0, 86, 88
1, 291889, Note_off_c, 0, 86, 69
1, 291962, Note_on_c, 0, 69, 63
1, 291981, Note_off_c, 0, 69, 63
1, 292000, Note_on_c, 0, 52, 50
1, 292004, Control_c, 0, 64, 82
1, 292017, Note_on_c, 0, 61, 48
1, 292019, Control_c, 0, 64, 61
1, 292034, Control_c, 0, 64, 0
1, 292043, Poly_aftertouch_c, 0, 64, 0
1, 292049, Note_on_c, 0, 85, 80
1, 292060, Note_off_c, 0, 61, 60
1, 292064, Control_c, 0, 64, 49
1, 292079, Control_c, 0, 64, 61
1, 292094, Control_c, 0, 64, 72
1, 292109, Control_c, 0, 64, 91
1, 292124, Control_c, 0, 64, 127
1, 292127, Note_off_c, 0, 52, 52
1, 292168, Note_on_c, 0, 61, 56
1, 292184, Note_on_c, 0, 57, 53
1, 292184, Note_off_c, 0, 85, 54
1, 292203, Note_off_c, 0, 61, 61
1, 292308, Note_off_c, 0, 57, 30
1, 292316, Note_on_c, 0, 61, 39
1, 292319, Note_on_c, 0, 64, 27
1, 292351, Note_off_c, 0, 61, 51
1, 292354, Note_off_c, 0, 64, 44
1, 292419, Control_c, 0, 64, 92
1, 292428, Note_on_c, 0, 68, 59
1, 292434, Control_c, 0, 64, 67
1, 292449, Control_c, 0, 64, 41
1, 292458, Note_off_c, 0, 68, 66
1, 292471, Control_c, 0, 64, 38
1, 292486, Control_c, 0, 64, 52
1, 292495, Note_on_c, 0, 76, 48
1, 292501, Control_c, 0, 64, 64
1, 292516, Control_c, 0, 64, 75
1, 292530, Control_c, 0, 64, 96
1, 292532, Note_on_c, 0, 40, 30
1, 292541, Note_on_c, 0, 83, 60
1, 292545, Control_c, 0, 64, 127
1, 292547, Note_off_c, 0, 76, 58
1, 292571, Note_off_c, 0, 40, 57
1, 292581, Note_off_c, 0, 83, 52
1, 292668, Note_on_c, 0, 71, 48
1, 292694, Note_off_c, 0, 71, 59
1, 292709, Note_on_c, 0, 59, 43
1, 292730, Note_on_c, 0, 86, 70
1, 292740, Note_off_c, 0, 59, 57
1, 292753, Note_off_c, 0, 86, 68
1, 292757, Poly_aftertouch_c, 0, 52, 127
1, 292793, Poly_aftertouch_c, 0, 52, 0
1, 292856, Note_on_c, 0, 59, 45
1, 292866, Note_on_c, 0, 68, 64
1, 292884, Note_off_c, 0, 59, 64
1, 292887, Note_off_c, 0, 68, 65
1, 292921, Poly_aftertouch_c, 0, 62, 127
1, 292935, Note_on_c, 0, 83, 68
1, 292951, Poly_aftertouch_c, 0, 62, 0
1, 292963, Note_off_c, 0, 83, 64
1, 293030, Note_on_c, 0, 45, 18
1, 293063, Control_c, 0, 64, 104
1, 293073, Note_off_c, 0, 45, 53
1, 293078, Control_c, 0, 64, 76
1, 293086, Note_on_c, 0, 52, 42
1, 293093, Control_c, 0, 64, 58
1, 293108, Control_c, 0, 64, 0
1, 293152, Control_c, 0, 64, 44
1, 293167, Control_c, 0, 64, 56
1, 293168, Note_off_c, 0, 52, 53
1, 293171, Note_on_c, 0, 61, 43
1, 293182, Control_c, 0, 64, 65
1, 293197, Control_c, 0, 64, 71
1, 293202, Note_on_c, 0, 69, 40
1, 293219, Control_c, 0, 64, 80
1, 293233, Note_off_c, 0, 61, 53
1, 293234, Control_c, 0, 64, 89
1, 293249, Control_c, 0, 64, 96
1, 293261, Note_off_c, 0, 69, 46
1, 293264, Control_c, 0, 64, 114
1, 293274, Note_on_c, 0, 73, 51
1, 293278, Control_c, 0, 64, 127
1, 293314, Note_off_c, 0, 73, 65
1, 293348, Note_on_c, 0, 81, 52
1, 293427, Note_off_c, 0, 81, 61
1, 293709, Control_c, 0, 64, 112
1, 293724, Control_c, 0, 64, 101
1, 293738, Control_c, 0, 64, 92
1, 293753, Control_c, 0, 64, 79
1, 293768, Control_c, 0, 64, 65
1, 293783, Control_c, 0, 64, 0
1, 294306, Note_on_c, 0, 76, 43
1, 294312, Note_on_c, 0, 85, 51
1, 294334, Note_off_c, 0, 85, 62
1, 294335, Note_off_c, 0, 76, 48
1, 294341, Note_on_c, 0, 86, 68
1, 294372, Note_on_c, 0, 57, 57
1, 294376, Note_on_c, 0, 85, 75
1, 294377, Note_on_c, 0, 67, 50
1, 294378, Note_on_c, 0, 69, 56
1, 294389, Note_on_c, 0, 76, 67
1, 294391, Note_off_c, 0, 86, 63
1, 294395, Note_off_c, 0, 57, 61
1, 294399, Note_off_c, 0, 85, 70
1, 294400, Note_off_c, 0, 69, 60
1, 294401, Note_off_c, 0, 67, 57
1, 294406, Note_off_c, 0, 76, 65
1, 294595, Note_on_c, 0, 83, 61
1, 294613, Note_off_c, 0, 83, 67
1, 294618, Note_on_c, 0, 74, 16
1, 294636, Note_off_c, 0, 74, 37
1, 294662, Note_on_c, 0, 57, 54
1, 294662, Note_on_c, 0, 85, 77
1, 294666, Note_on_c, 0, 67, 44
1, 294682, Note_off_c, 0, 85, 72
1, 294685, Note_on_c, 0, 76, 27
1, 294685, Note_off_c, 0, 57, 59
1, 294689, Note_on_c, 0, 69, 39
1, 294691, Note_off_c, 0, 67, 57
1, 294726, Note_off_c, 0, 69, 51
1, 294730, Note_off_c, 0, 76, 31
1, 294862, Note_on_c, 0, 86, 78
1, 294865, Note_on_c, 0, 78, 63
1, 294875, Note_on_c, 0, 69, 53
1, 294876, Note_on_c, 0, 66, 44
1, 294877, Note_on_c, 0, 62, 54
1, 294884, Note_off_c, 0, 86, 67
1, 294885, Note_off_c, 0, 78, 62
1, 294894, Note_off_c, 0, 69, 61
1, 294899, Note_off_c, 0, 62, 60
1, 294899, Note_off_c, 0, 66, 59
1, 295060, Note_on_c, 0, 88, 74
1, 295081, Note_off_c, 0, 88, 68
1, 295125, Note_on_c, 0, 66, 46
1, 295131, Note_on_c, 0, 69, 52
1, 295135, Note_on_c, 0, 62, 44
1, 295152, Note_on_c, 0, 78, 66
1, 295152, Note_off_c, 0, 69, 62
1, 295153, Note_off_c, 0, 66, 62
1, 295159, Note_on_c, 0, 86, 57
1, 295162, Note_off_c, 0, 62, 52
1, 295172, Note_off_c, 0, 78, 66
1, 295179, Note_off_c, 0, 86, 61
1, 295253, Note_on_c, 0, 85, 61
1, 295281, Note_off_c, 0, 85, 67
1, 295289, Note_on_c, 0, 86, 53
1, 295341, Note_on_c, 0, 85, 77
1, 295346, Note_on_c, 0, 76, 73
1, 295353, Note_off_c, 0, 86, 63
1, 295361, Note_off_c, 0, 85, 72
1, 295364, Note_off_c, 0, 76, 67
1, 295368, Note_on_c, 0, 57, 43
1, 295383, Note_on_c, 0, 69, 25
1, 295398, Note_off_c, 0, 57, 53
1, 295400, Note_on_c, 0, 67, 2
1, 295421, Note_off_c, 0, 69, 42
1, 295432, Note_off_c, 0, 67, 28
1, 295608, Note_on_c, 0, 74, 38
1, 295613, Note_on_c, 0, 83, 36
1, 295639, Note_off_c, 0, 74, 33
1, 295641, Note_off_c, 0, 83, 47
1, 295661, Note_on_c, 0, 57, 48
1, 295669, Note_on_c, 0, 85, 84
1, 295681, Note_on_c, 0, 76, 57
1, 295687, Note_off_c, 0, 57, 55
1, 295693, Note_off_c, 0, 85, 64
1, 295703, Note_off_c, 0, 76, 58
1, 295710, Note_on_c, 0, 69, 10
1, 295757, Note_off_c, 0, 69, 27
1, 295902, Note_on_c, 0, 62, 37
1, 295960, Note_on_c, 0, 66, 46
1, 295976, Note_off_c, 0, 62, 63
1, 295984, Control_c, 0, 64, 47
1, 295989, Note_on_c, 0, 69, 26
1, 295993, Note_on_c, 0, 86, 61
1, 295996, Note_off_c, 0, 66, 64
1, 295999, Note_on_c, 0, 78, 46
1, 295999, Control_c, 0, 64, 68
1, 296011, Note_off_c, 0, 86, 63
1, 296014, Control_c, 0, 64, 81
1, 296023, Note_off_c, 0, 78, 55
1, 296025, Note_off_c, 0, 69, 42
1, 296029, Control_c, 0, 64, 127
1, 296319, Control_c, 0, 64, 79
1, 296334, Control_c, 0, 64, 58
1, 296348, Control_c, 0, 64, 0
1, 296388, Note_on_c, 0, 98, 84
1, 296408, Control_c, 0, 64, 42
1, 296417, Note_on_c, 0, 97, 91
1, 296422, Control_c, 0, 64, 65
1, 296437, Control_c, 0, 64, 90
1, 296452, Note_on_c, 0, 95, 84
1, 296452, Control_c, 0, 64, 127
1, 296474, Note_off_c, 0, 98, 64
1, 296491, Note_on_c, 0, 93, 85
1, 296492, Note_on_c, 0, 92, 86
1, 296500, Note_off_c, 0, 97, 66
1, 296506, Note_off_c, 0, 95, 66
1, 296524, Note_on_c, 0, 90, 77
1, 296527, Note_off_c, 0, 93, 65
1, 296550, Note_off_c, 0, 92, 65
1, 296552, Note_on_c, 0, 88, 79
1, 296571, Note_off_c, 0, 88, 72
1, 296573, Note_off_c, 0, 90, 66
1, 296621, Note_on_c, 0, 86, 74
1, 296661, Note_on_c, 0, 85, 74
1, 296670, Note_off_c, 0, 86, 60
1, 296689, Control_c, 0, 64, 92
1, 296704, Control_c, 0, 64, 68
1, 296707, Note_on_c, 0, 83, 65
1, 296711, Note_off_c, 0, 85, 65
1, 296719, Control_c, 0, 64, 47
1, 296733, Control_c, 0, 64, 0
1, 296735, Note_off_c, 0, 83, 52
1, 296773, Note_on_c, 0, 81, 61
1, 296837, Control_c, 0, 64, 41
1, 296852, Control_c, 0, 64, 54
1, 296866, Control_c, 0, 64, 60
1, 296882, Control_c, 0, 64, 65
1, 296897, Control_c, 0, 64, 73
1, 296912, Control_c, 0, 64, 85
1, 296927, Control_c, 0, 64, 124
1, 296942, Control_c, 0, 64, 127
1, 296983, Note_off_c, 0, 81, 62
1, 297534, Note_on_c, 0, 52, 41
1, 297567, Note_off_c, 0, 52, 51
1, 297601, Note_on_c, 0, 61, 53
1, 297621, Note_on_c, 0, 73, 83
1, 297622, Note_on_c, 0, 81, 90
1, 297624, Note_off_c, 0, 61, 58
1, 297628, Note_on_c, 0, 64, 51
1, 297630, Control_c, 0, 64, 81
1, 297640, Note_off_c, 0, 73, 71
1, 297643, Note_off_c, 0, 81, 68
1, 297645, Control_c, 0, 64, 54
1, 297652, Note_off_c, 0, 64, 57
1, 297660, Control_c, 0, 64, 0
1, 297842, Note_on_c, 0, 83, 65
1, 297853, Note_on_c, 0, 74, 43
1, 297859, Note_off_c, 0, 83, 64
1, 297880, Note_off_c, 0, 74, 35
1, 297899, Note_on_c, 0, 64, 67
1, 297916, Note_on_c, 0, 52, 48
1, 297916, Note_on_c, 0, 61, 55
1, 297916, Note_on_c, 0, 81, 73
1, 297916, Note_on_c, 0, 73, 72
1, 297916, Note_off_c, 0, 64, 66
1, 297939, Note_off_c, 0, 61, 59
1, 297942, Note_off_c, 0, 73, 65
1, 297944, Note_off_c, 0, 81, 63
1, 297945, Note_off_c, 0, 52, 55
1, 298044, Note_on_c, 0, 80, 54
1, 298068, Note_off_c, 0, 80, 65
1, 298091, Note_on_c, 0, 81, 48
1, 298115, Note_on_c, 0, 80, 82
1, 298117, Note_on_c, 0, 71, 78
1, 298130, Note_off_c, 0, 81, 65
1, 298132, Note_on_c, 0, 64, 50
1, 298134, Note_on_c, 0, 62, 52
1, 298136, Note_on_c, 0, 52, 33
1, 298140, Note_off_c, 0, 80, 63
1, 298140, Note_off_c, 0, 71, 67
1, 298141, Note_on_c, 0, 59, 43
1, 298156, Note_off_c, 0, 64, 57
1, 298159, Note_off_c, 0, 62, 58
1, 298168, Note_off_c, 0, 59, 54
1, 298168, Note_off_c, 0, 52, 47
1, 298348, Note_on_c, 0, 78, 42
1, 298356, Note_on_c, 0, 69, 34
1, 298375, Note_off_c, 0, 78, 52
1, 298388, Note_off_c, 0, 69, 33
1, 298394, Note_on_c, 0, 59, 34
1, 298399, Note_on_c, 0, 64, 55
1, 298399, Note_on_c, 0, 80, 85
1, 298410, Note_on_c, 0, 71, 58
1, 298416, Note_on_c, 0, 62, 28
1, 298419, Note_off_c, 0, 80, 69
1, 298422, Note_off_c, 0, 59, 49
1, 298431, Note_off_c, 0, 64, 64
1, 298431, Note_off_c, 0, 71, 62
1, 298461, Note_off_c, 0, 62, 40
1, 298616, Note_on_c, 0, 57, 4
1, 298632, Note_on_c, 0, 69, 73
1, 298634, Note_on_c, 0, 61, 62
1, 298640, Control_c, 0, 64, 51
1, 298643, Note_on_c, 0, 81, 82
1, 298649, Note_off_c, 0, 69, 68
1, 298652, Note_on_c, 0, 73, 60
1, 298655, Note_off_c, 0, 61, 62
1, 298655, Control_c, 0, 64, 90
1, 298661, Note_off_c, 0, 81, 72
1, 298666, Note_off_c, 0, 57, 37
1, 298669, Control_c, 0, 64, 127
1, 298673, Note_off_c, 0, 73, 63
1, 298726, Poly_aftertouch_c, 0, 64, 0
1, 298867, Note_on_c, 0, 90, 89
1, 298878, Note_on_c, 0, 86, 78
1, 298887, Note_on_c, 0, 85, 85
1, 298895, Note_on_c, 0, 83, 82
1, 298922, Note_on_c, 0, 81, 88
1, 298929, Note_off_c, 0, 90, 64
1, 298930, Note_off_c, 0, 86, 63
1, 298935, Note_off_c, 0, 83, 66
1, 298937, Note_on_c, 0, 80, 74
1, 298946, Note_off_c, 0, 85, 67
1, 298959, Note_off_c, 0, 81, 67
1, 298989, Note_off_c, 0, 80, 65
1, 299004, Note_on_c, 0, 74, 70
1, 299005, Note_on_c, 0, 77, 40
1, 299009, Note_on_c, 0, 76, 48
1, 299029, Note_off_c, 0, 74, 66
1, 299035, Note_off_c, 0, 76, 55
1, 299035, Note_off_c, 0, 77, 52
1, 299077, Poly_aftertouch_c, 0, 79, 0
1, 299154, Note_on_c, 0, 73, 68
1, 299164, Note_on_c, 0, 64, 53
1, 299180, Note_off_c, 0, 73, 69
1, 299185, Note_off_c, 0, 64, 61
1, 299186, Note_on_c, 0, 74, 72
1, 299224, Control_c, 0, 64, 77
1, 299239, Control_c, 0, 64, 0
1, 299249, Note_on_c, 0, 57, 65
1, 299249, Note_on_c, 0, 73, 68
1, 299251, Note_on_c, 0, 64, 73
1, 299254, Note_off_c, 0, 74, 64
1, 299256, Note_on_c, 0, 45, 56
1, 299268, Note_on_c, 0, 55, 42
1, 299269, Note_off_c, 0, 57, 63
1, 299270, Note_off_c, 0, 73, 70
1, 299271, Note_off_c, 0, 64, 66
1, 299281, Note_off_c, 0, 45, 59
1, 299302, Note_off_c, 0, 55, 34
1, 299480, Note_on_c, 0, 71, 42
1, 299487, Note_on_c, 0, 62, 22
1, 299507, Note_off_c, 0, 71, 51
1, 299528, Note_off_c, 0, 62, 30
1, 299538, Note_on_c, 0, 45, 54
1, 299542, Note_on_c, 0, 73, 71
1, 299546, Note_on_c, 0, 64, 48
1, 299552, Note_on_c, 0, 55, 41
1, 299555, Note_on_c, 0, 57, 39
1, 299564, Note_off_c, 0, 45, 56
1, 299567, Note_off_c, 0, 73, 68
1, 299570, Note_off_c, 0, 64, 57
1, 299582, Note_off_c, 0, 55, 51
1, 299586, Note_off_c, 0, 57, 53
1, 299724, Note_on_c, 0, 74, 80
1, 299728, Note_on_c, 0, 57, 59
1, 299731, Note_on_c, 0, 66, 62
1, 299739, Note_on_c, 0, 54, 52
1, 299740, Note_on_c, 0, 50, 47
1, 299750, Note_off_c, 0, 66, 61
1, 299752, Note_off_c, 0, 57, 63
1, 299756, Note_off_c, 0, 74, 56
1, 299767, Note_off_c, 0, 54, 63
1, 299767, Note_off_c, 0, 50, 54
1, 299925, Note_on_c, 0, 76, 69
1, 299940, Note_on_c, 0, 67, 42
1, 299942, Note_off_c, 0, 76, 66
1, 299972, Note_off_c, 0, 67, 39
1, 299996, Note_on_c, 0, 54, 52
1, 300010, Note_on_c, 0, 50, 22
1, 300011, Note_on_c, 0, 66, 69
1, 300014, Note_on_c, 0, 74, 69
1, 300021, Note_off_c, 0, 54, 53
1, 300038, Note_off_c, 0, 66, 68
1, 300043, Note_off_c, 0, 74, 64
1, 300050, Note_off_c, 0, 50, 43
1, 300143, Note_on_c, 0, 73, 67
1, 300170, Note_off_c, 0, 73, 67
1, 300181, Note_on_c, 0, 74, 67
1, 300215, Note_on_c, 0, 64, 54
1, 300224, Note_on_c, 0, 73, 69
1, 300226, Note_on_c, 0, 45, 55
1, 300229, Note_on_c, 0, 55, 43
1, 300235, Note_off_c, 0, 74, 64
1, 300241, Note_on_c, 0, 57, 42
1, 300250, Note_off_c, 0, 64, 65
1, 300250, Note_off_c, 0, 73, 66
1, 300251, Note_off_c, 0, 45, 58
1, 300257, Note_off_c, 0, 55, 54
1, 300271, Note_off_c, 0, 57, 53
1, 300446, Note_on_c, 0, 71, 58
1, 300453, Note_on_c, 0, 62, 37
1, 300469, Note_off_c, 0, 71, 65
1, 300487, Note_off_c, 0, 62, 47
1, 300508, Note_on_c, 0, 45, 45
1, 300524, Note_on_c, 0, 73, 66
1, 300526, Note_on_c, 0, 55, 26
1, 300528, Note_on_c, 0, 57, 43
1, 300540, Note_off_c, 0, 45, 46
1, 300553, Note_off_c, 0, 73, 63
1, 300557, Note_off_c, 0, 55, 44
1, 300558, Note_off_c, 0, 57, 52
1, 300777, Note_on_c, 0, 50, 32
1, 300806, Note_on_c, 0, 54, 51
1, 300810, Note_off_c, 0, 50, 60
1, 300816, Note_on_c, 0, 57, 49
1, 300827, Control_c, 0, 64, 34
1, 300837, Note_off_c, 0, 54, 63
1, 300841, Note_off_c, 0, 57, 57
1, 300841, Control_c, 0, 64, 67
1, 300844, Note_on_c, 0, 74, 48
1, 300846, Note_on_c, 0, 66, 37
1, 300856, Control_c, 0, 64, 85
1, 300868, Note_off_c, 0, 74, 58
1, 300871, Control_c, 0, 64, 127
1, 300876, Note_off_c, 0, 66, 34
1, 301077, Poly_aftertouch_c, 0, 81, 127
1, 301138, Note_on_c, 0, 93, 79
1, 301159, Note_off_c, 0, 93, 71
1, 301162, Poly_aftertouch_c, 0, 81, 0
1, 301174, Note_on_c, 0, 89, 43
1, 301180, Note_on_c, 0, 86, 76
1, 301201, Note_off_c, 0, 89, 56
1, 301206, Note_on_c, 0, 85, 73
1, 301227, Note_on_c, 0, 83, 79
1, 301239, Note_off_c, 0, 86, 63
1, 301248, Note_off_c, 0, 85, 65
1, 301248, Note_off_c, 0, 83, 69
1, 301266, Note_on_c, 0, 81, 60
1, 301273, Poly_aftertouch_c, 0, 88, 127
1, 301284, Note_off_c, 0, 81, 62
1, 301290, Poly_aftertouch_c, 0, 88, 0
1, 301311, Note_on_c, 0, 80, 75
1, 301359, Note_off_c, 0, 80, 61
1, 301363, Note_on_c, 0, 78, 69
1, 301403, Note_on_c, 0, 76, 62
1, 301409, Note_off_c, 0, 78, 65
1, 301424, Note_on_c, 0, 74, 67
1, 301454, Note_off_c, 0, 76, 63
1, 301489, Note_on_c, 0, 73, 17
1, 301508, Note_off_c, 0, 74, 59
1, 301528, Note_on_c, 0, 71, 65
1, 301530, Control_c, 0, 64, 100
1, 301534, Note_off_c, 0, 73, 41
1, 301545, Control_c, 0, 64, 79
1, 301560, Control_c, 0, 64, 64
1, 301567, Note_off_c, 0, 71, 63
1, 301575, Control_c, 0, 64, 40
1, 301584, Note_on_c, 0, 69, 60
1, 301589, Control_c, 0, 64, 0
1, 301724, Control_c, 0, 64, 47
1, 301739, Control_c, 0, 64, 60
1, 301753, Control_c, 0, 64, 67
1, 301768, Control_c, 0, 64, 75
1, 301783, Control_c, 0, 64, 87
1, 301798, Control_c, 0, 64, 105
1, 301813, Control_c, 0, 64, 127
1, 301895, Note_off_c, 0, 69, 60
1, 302318, Note_on_c, 0, 40, 46
1, 302351, Note_off_c, 0, 40, 53
1, 302374, Note_on_c, 0, 49, 62
1, 302386, Note_on_c, 0, 52, 71
1, 302386, Note_on_c, 0, 61, 96
1, 302388, Note_on_c, 0, 69, 91
1, 302397, Note_off_c, 0, 49, 61
1, 302407, Note_off_c, 0, 52, 65
1, 302413, Control_c, 0, 64, 94
1, 302414, Note_off_c, 0, 61, 60
1, 302427, Note_off_c, 0, 69, 58
1, 302428, Control_c, 0, 64, 64
1, 302443, Control_c, 0, 64, 0
1, 302598, Note_on_c, 0, 71, 79
1, 302617, Note_on_c, 0, 62, 43
1, 302617, Note_off_c, 0, 62, 127
1, 302621, Note_off_c, 0, 71, 70
1, 302663, Note_on_c, 0, 52, 74
1, 302667, Note_on_c, 0, 61, 80
1, 302670, Note_on_c, 0, 69, 77
1, 302672, Note_on_c, 0, 49, 64
1, 302683, Note_off_c, 0, 52, 65
1, 302691, Note_off_c, 0, 61, 67
1, 302695, Note_on_c, 0, 40, 21
1, 302696, Note_off_c, 0, 49, 65
1, 302699, Note_off_c, 0, 69, 57
1, 302739, Note_off_c, 0, 40, 29
1, 302797, Note_on_c, 0, 68, 68
1, 302822, Note_off_c, 0, 68, 68
1, 302835, Note_on_c, 0, 69, 55
1, 302863, Note_on_c, 0, 59, 85
1, 302864, Note_on_c, 0, 68, 89
1, 302877, Note_on_c, 0, 50, 76
1, 302883, Note_on_c, 0, 47, 67
1, 302886, Note_on_c, 0, 40, 55
1, 302891, Note_off_c, 0, 69, 63
1, 302895, Note_on_c, 0, 52, 58
1, 302897, Note_off_c, 0, 50, 64
1, 302905, Note_off_c, 0, 59, 61
1, 302914, Note_off_c, 0, 47, 63
1, 302914, Note_off_c, 0, 68, 65
1, 302915, Note_off_c, 0, 40, 61
1, 302920, Note_off_c, 0, 52, 59
1, 303096, Note_on_c, 0, 57, 58
1, 303100, Note_on_c, 0, 66, 44
1, 303118, Note_off_c, 0, 57, 60
1, 303124, Note_off_c, 0, 66, 56
1, 303144, Note_on_c, 0, 68, 89
1, 303147, Note_on_c, 0, 59, 74
1, 303152, Note_on_c, 0, 47, 42
1, 303156, Note_on_c, 0, 52, 57
1, 303157, Note_on_c, 0, 50, 44
1, 303171, Note_off_c, 0, 59, 66
1, 303181, Note_off_c, 0, 52, 62
1, 303183, Note_off_c, 0, 47, 53
1, 303186, Note_off_c, 0, 50, 52
1, 303199, Note_off_c, 0, 68, 62
1, 303339, Note_on_c, 0, 57, 88
1, 303346, Note_on_c, 0, 49, 64
1, 303347, Note_on_c, 0, 61, 88
1, 303347, Note_on_c, 0, 69, 86
1, 303350, Note_on_c, 0, 52, 46
1, 303358, Note_off_c, 0, 57, 72
1, 303365, Note_off_c, 0, 61, 71
1, 303371, Control_c, 0, 64, 45
1, 303375, Note_off_c, 0, 49, 66
1, 303379, Note_off_c, 0, 52, 51
1, 303380, Note_off_c, 0, 69, 64
1, 303386, Control_c, 0, 64, 69
1, 303400, Control_c, 0, 64, 82
1, 303415, Control_c, 0, 64, 127
1, 303580, Note_on_c, 0, 97, 96
1, 303582, Note_on_c, 0, 93, 96
1, 303607, Note_on_c, 0, 92, 73
1, 303651, Note_on_c, 0, 90, 90
1, 303654, Note_on_c, 0, 91, 58
1, 303668, Note_off_c, 0, 93, 61
1, 303676, Note_off_c, 0, 91, 61
1, 303684, Note_off_c, 0, 92, 63
1, 303685, Note_off_c, 0, 97, 64
1, 303686, Note_on_c, 0, 88, 86
1, 303713, Note_off_c, 0, 90, 66
1, 303716, Note_on_c, 0, 86, 85
1, 303727, Note_off_c, 0, 88, 63
1, 303734, Note_on_c, 0, 85, 82
1, 303752, Note_off_c, 0, 85, 74
1, 303753, Note_off_c, 0, 86, 61
1, 303769, Note_on_c, 0, 83, 76
1, 303788, Note_off_c, 0, 83, 71
1, 303792, Note_on_c, 0, 84, 32
1, 303824, Note_off_c, 0, 84, 53
1, 303836, Note_on_c, 0, 81, 90
1, 303878, Note_on_c, 0, 80, 82
1, 303897, Note_off_c, 0, 81, 60
1, 303904, Note_on_c, 0, 78, 93
1, 303936, Note_off_c, 0, 80, 64
1, 303954, Note_off_c, 0, 78, 65
1, 303960, Note_on_c, 0, 76, 71
1, 303964, Note_on_c, 0, 74, 92
1, 303976, Note_off_c, 0, 76, 68
1, 304005, Note_on_c, 0, 73, 71
1, 304014, Note_off_c, 0, 74, 65
1, 304021, Note_off_c, 0, 73, 67
1, 304026, Note_on_c, 0, 72, 85
1, 304048, Note_on_c, 0, 71, 81
1, 304051, Note_off_c, 0, 72, 67
1, 304068, Note_off_c, 0, 71, 72
1, 304122, Note_on_c, 0, 69, 51
1, 304123, Note_on_c, 0, 68, 81
1, 304140, Note_on_c, 0, 66, 78
1, 304143, Note_off_c, 0, 69, 64
1, 304146, Note_off_c, 0, 68, 67
1, 304161, Note_off_c, 0, 66, 70
1, 304203, Note_on_c, 0, 64, 110
1, 304208, Note_on_c, 0, 76, 101
1, 304211, Note_on_c, 0, 73, 80
1, 304223, Control_c, 0, 64, 120
1, 304228, Note_off_c, 0, 73, 63
1, 304232, Note_on_c, 0, 65, 50
1, 304232, Note_off_c, 0, 65, 127
1, 304238, Control_c, 0, 64, 74
1, 304241, Note_off_c, 0, 76, 62
1, 304243, Note_on_c, 0, 74, 46
1, 304246, Note_off_c, 0, 64, 63
1, 304253, Control_c, 0, 64, 51
1, 304268, Control_c, 0, 64, 0
1, 304273, Note_off_c, 0, 74, 55
1, 304399, Note_on_c, 0, 52, 96
1, 304399, Note_on_c, 0, 61, 100
1, 304399, Note_on_c, 0, 69, 88
1, 304401, Note_on_c, 0, 73, 88
1, 304402, Note_on_c, 0, 49, 90
1, 304423, Note_on_c, 0, 40, 47
1, 304427, Note_off_c, 0, 52, 58
1, 304434, Note_off_c, 0, 61, 67
1, 304462, Note_off_c, 0, 40, 48
1, 304464, Note_off_c, 0, 49, 58
1, 304468, Note_off_c, 0, 73, 61
1, 304492, Note_off_c, 0, 69, 58
1, 304614, Note_on_c, 0, 62, 80
1, 304620, Note_on_c, 0, 70, 68
1, 304629, Note_on_c, 0, 74, 53
1, 304629, Note_off_c, 0, 74, 127
1, 304635, Note_off_c, 0, 62, 70
1, 304645, Note_off_c, 0, 70, 69
1, 304683, Note_on_c, 0, 52, 91
1, 304683, Note_on_c, 0, 70, 90
1, 304685, Note_on_c, 0, 61, 94
1, 304686, Note_on_c, 0, 49, 82
1, 304694, Note_on_c, 0, 73, 80
1, 304700, Note_on_c, 0, 40, 57
1, 304706, Note_off_c, 0, 52, 64
1, 304722, Note_off_c, 0, 73, 64
1, 304730, Note_off_c, 0, 40, 56
1, 304735, Note_off_c, 0, 70, 64
1, 304737, Note_off_c, 0, 61, 61
1, 304745, Note_off_c, 0, 49, 61
1, 304878, Note_on_c, 0, 59, 107
1, 304879, Note_on_c, 0, 47, 78
1, 304879, Note_on_c, 0, 50, 83
1, 304880, Note_on_c, 0, 52, 84
1, 304881, Note_on_c, 0, 68, 96
1, 304885, Note_on_c, 0, 71, 90
1, 304894, Note_on_c, 0, 40, 48
1, 304897, Note_off_c, 0, 59, 66
1, 304899, Note_off_c, 0, 71, 72
1, 304903, Note_off_c, 0, 52, 68
1, 304906, Note_off_c, 0, 50, 60
1, 304906, Note_off_c, 0, 68, 59
1, 304926, Note_off_c, 0, 40, 46
1, 304948, Note_off_c, 0, 47, 57
1, 305072, Note_on_c, 0, 57, 91
1, 305085, Note_on_c, 0, 66, 59
1, 305085, Note_on_c, 0, 69, 61
1, 305089, Note_off_c, 0, 57, 73
1, 305103, Note_off_c, 0, 66, 60
1, 305103, Note_off_c, 0, 69, 64
1, 305134, Note_on_c, 0, 50, 72
1, 305135, Note_on_c, 0, 47, 62
1, 305135, Note_on_c, 0, 52, 76
1, 305141, Note_on_c, 0, 59, 90
1, 305145, Note_on_c, 0, 71, 81
1, 305161, Note_off_c, 0, 50, 66
1, 305164, Note_off_c, 0, 47, 65
1, 305165, Note_off_c, 0, 59, 57
1, 305169, Note_off_c, 0, 52, 61
1, 305172, Note_off_c, 0, 71, 59
1, 305189, Note_on_c, 0, 68, 11
1, 305249, Note_off_c, 0, 68, 27
1, 305317, Note_on_c, 0, 57, 96
1, 305325, Note_on_c, 0, 61, 99
1, 305326, Note_on_c, 0, 49, 74
1, 305329, Note_on_c, 0, 73, 93
1, 305330, Note_on_c, 0, 52, 71
1, 305330, Note_on_c, 0, 69, 80
1, 305341, Note_off_c, 0, 61, 74
1, 305347, Note_off_c, 0, 57, 66
1, 305350, Note_off_c, 0, 49, 66
1, 305356, Note_off_c, 0, 69, 63
1, 305359, Note_off_c, 0, 52, 66
1, 305365, Control_c, 0, 64, 61
1, 305380, Control_c, 0, 64, 90
1, 305382, Note_off_c, 0, 73, 66
1, 305395, Control_c, 0, 64, 127
1, 305529, Note_on_c, 0, 100, 101
1, 305532, Note_on_c, 0, 97, 90
1, 305573, Note_off_c, 0, 97, 64
1, 305591, Note_off_c, 0, 100, 66
1, 305592, Note_on_c, 0, 93, 82
1, 305618, Note_off_c, 0, 93, 65
1, 305649, Note_on_c, 0, 92, 83
1, 305708, Note_on_c, 0, 89, 78
1, 305708, Note_on_c, 0, 90, 44
1, 305717, Note_off_c, 0, 92, 63
1, 305725, Note_on_c, 0, 86, 78
1, 305731, Note_on_c, 0, 88, 88
1, 305731, Note_off_c, 0, 89, 68
1, 305732, Note_off_c, 0, 90, 59
1, 305758, Note_on_c, 0, 85, 80
1, 305758, Note_off_c, 0, 86, 61
1, 305765, Note_off_c, 0, 88, 63
1, 305776, Note_off_c, 0, 85, 74
1, 305796, Note_on_c, 0, 84, 64
1, 305798, Note_on_c, 0, 83, 78
1, 305812, Note_off_c, 0, 83, 69
1, 305814, Note_off_c, 0, 84, 63
1, 305853, Note_on_c, 0, 81, 86
1, 305890, Note_on_c, 0, 80, 81
1, 305907, Note_off_c, 0, 81, 62
1, 305934, Note_on_c, 0, 79, 85
1, 305962, Note_off_c, 0, 80, 55
1, 305966, Poly_aftertouch_c, 0, 83, 0
1, 305972, Note_off_c, 0, 79, 64
1, 305973, Note_on_c, 0, 76, 85
1, 305994, Note_on_c, 0, 74, 85
1, 305997, Note_off_c, 0, 76, 67
1, 306034, Note_on_c, 0, 73, 82
1, 306052, Note_off_c, 0, 73, 72
1, 306059, Note_off_c, 0, 74, 62
1, 306062, Note_on_c, 0, 72, 85
1, 306078, Note_on_c, 0, 71, 83
1, 306096, Note_off_c, 0, 71, 73
1, 306100, Note_off_c, 0, 72, 62
1, 306127, Note_on_c, 0, 69, 73
1, 306170, Note_off_c, 0, 69, 62
1, 306229, Note_on_c, 0, 64, 104
1, 306231, Note_on_c, 0, 76, 101
1, 306245, Note_on_c, 0, 73, 63
1, 306247, Control_c, 0, 64, 85
1, 306254, Note_on_c, 0, 65, 60
1, 306254, Note_off_c, 0, 65, 127
1, 306256, Note_off_c, 0, 76, 62
1, 306262, Control_c, 0, 64, 62
1, 306268, Note_off_c, 0, 73, 41
1, 306271, Note_off_c, 0, 64, 62
1, 306277, Control_c, 0, 64, 0
1, 306408, Note_on_c, 0, 52, 93
1, 306411, Note_on_c, 0, 49, 91
1, 306411, Note_on_c, 0, 61, 103
1, 306414, Note_on_c, 0, 73, 97
1, 306416, Note_on_c, 0, 69, 88
1, 306417, Note_on_c, 0, 40, 65
1, 306429, Note_off_c, 0, 52, 68
1, 306431, Note_on_c, 0, 68, 36
1, 306444, Note_off_c, 0, 68, 43
1, 306447, Note_off_c, 0, 40, 62
1, 306456, Note_off_c, 0, 49, 60
1, 306465, Note_off_c, 0, 61, 56
1, 306472, Note_off_c, 0, 73, 61
1, 306482, Note_off_c, 0, 69, 55
1, 306621, Note_on_c, 0, 62, 90
1, 306636, Note_on_c, 0, 74, 58
1, 306637, Note_on_c, 0, 69, 54
1, 306639, Note_off_c, 0, 62, 72
1, 306659, Note_off_c, 0, 69, 59
1, 306660, Note_off_c, 0, 74, 40
1, 306696, Note_on_c, 0, 52, 92
1, 306696, Note_on_c, 0, 61, 95
1, 306697, Note_on_c, 0, 73, 89
1, 306697, Note_on_c, 0, 49, 83
1, 306709, Note_on_c, 0, 69, 71
1, 306715, Note_off_c, 0, 52, 71
1, 306730, Note_off_c, 0, 73, 60
1, 306735, Note_off_c, 0, 69, 64
1, 306739, Note_on_c, 0, 40, 13
1, 306749, Note_off_c, 0, 49, 56
1, 306750, Note_off_c, 0, 61, 59
1, 306791, Note_off_c, 0, 40, 29
1, 306891, Note_on_c, 0, 50, 84
1, 306893, Note_on_c, 0, 52, 86
1, 306894, Note_on_c, 0, 47, 73
1, 306895, Note_on_c, 0, 59, 105
1, 306899, Note_on_c, 0, 40, 57
1, 306899, Note_on_c, 0, 68, 90
1, 306903, Note_on_c, 0, 71, 90
1, 306915, Note_off_c, 0, 59, 67
1, 306921, Note_off_c, 0, 68, 64
1, 306921, Note_off_c, 0, 52, 59
1, 306921, Note_off_c, 0, 71, 71
1, 306924, Note_off_c, 0, 50, 60
1, 306928, Note_off_c, 0, 40, 61
1, 306931, Note_on_c, 0, 66, 37
1, 306931, Note_off_c, 0, 66, 127
1, 306960, Note_off_c, 0, 47, 50
1, 307094, Note_on_c, 0, 57, 93
1, 307109, Note_on_c, 0, 66, 55
1, 307112, Note_on_c, 0, 69, 57
1, 307112, Note_off_c, 0, 57, 73
1, 307130, Note_off_c, 0, 66, 59
1, 307135, Note_off_c, 0, 69, 40
1, 307148, Note_on_c, 0, 50, 60
1, 307148, Note_on_c, 0, 52, 66
1, 307150, Note_on_c, 0, 47, 44
1, 307163, Note_on_c, 0, 59, 86
1, 307171, Note_on_c, 0, 71, 77
1, 307177, Note_off_c, 0, 47, 52
1, 307178, Note_off_c, 0, 50, 64
1, 307183, Note_off_c, 0, 52, 62
1, 307193, Note_off_c, 0, 71, 68
1, 307196, Note_off_c, 0, 59, 49
1, 307203, Note_on_c, 0, 68, 36
1, 307258, Note_off_c, 0, 68, 41
1, 307317, Note_on_c, 0, 57, 96
1, 307323, Note_on_c, 0, 52, 73
1, 307324, Note_on_c, 0, 49, 75
1, 307324, Note_on_c, 0, 61, 100
1, 307328, Note_on_c, 0, 69, 87
1, 307330, Note_on_c, 0, 73, 87
1, 307336, Control_c, 0, 64, 61
1, 307347, Note_off_c, 0, 49, 67
1, 307348, Note_off_c, 0, 61, 61
1, 307348, Note_off_c, 0, 52, 67
1, 307351, Control_c, 0, 64, 111
1, 307357, Note_off_c, 0, 69, 58
1, 307359, Note_on_c, 0, 72, 69
1, 307362, Note_off_c, 0, 57, 65
1, 307366, Control_c, 0, 64, 127
1, 307371, Note_off_c, 0, 73, 44
1, 307381, Note_on_c, 0, 60, 8
1, 307381, Note_off_c, 0, 60, 127
1, 307384, Note_off_c, 0, 72, 68
1, 307425, Poly_aftertouch_c, 0, 70, 0
1, 307435, Poly_aftertouch_c, 0, 60, 0
1, 307550, Note_on_c, 0, 75, 88
1, 307552, Note_on_c, 0, 66, 84
1, 307590, Note_off_c, 0, 75, 66
1, 307598, Note_off_c, 0, 66, 62
1, 307627, Note_on_c, 0, 64, 75
1, 307631, Note_on_c, 0, 76, 81
1, 307679, Note_off_c, 0, 64, 56
1, 307684, Note_on_c, 0, 62, 79
1, 307684, Note_on_c, 0, 78, 86
1, 307690, Note_off_c, 0, 76, 63
1, 307728, Note_on_c, 0, 61, 81
1, 307733, Note_off_c, 0, 62, 63
1, 307738, Note_on_c, 0, 80, 75
1, 307741, Note_off_c, 0, 78, 66
1, 307759, Note_off_c, 0, 80, 69
1, 307768, Note_off_c, 0, 61, 57
1, 307790, Note_on_c, 0, 81, 82
1, 307791, Note_on_c, 0, 59, 77
1, 307845, Note_off_c, 0, 59, 57
1, 307845, Note_on_c, 0, 83, 88
1, 307848, Note_on_c, 0, 57, 85
1, 307871, Note_off_c, 0, 81, 62
1, 307879, Note_on_c, 0, 85, 81
1, 307892, Control_c, 0, 64, 68
1, 307895, Note_on_c, 0, 56, 76
1, 307901, Note_off_c, 0, 57, 64
1, 307907, Control_c, 0, 64, 0
1, 307912, Note_off_c, 0, 83, 64
1, 307923, Note_on_c, 0, 86, 76
1, 307930, Note_on_c, 0, 54, 71
1, 307937, Control_c, 0, 64, 33
1, 307942, Note_off_c, 0, 85, 66
1, 307942, Note_off_c, 0, 86, 70
1, 307946, Note_off_c, 0, 56, 63
1, 307951, Control_c, 0, 64, 61
1, 307955, Note_off_c, 0, 54, 66
1, 307966, Control_c, 0, 64, 82
1, 307981, Control_c, 0, 64, 127
1, 307986, Note_on_c, 0, 88, 93
1, 307991, Note_on_c, 0, 52, 79
1, 308044, Note_on_c, 0, 90, 87
1, 308052, Note_on_c, 0, 50, 81
1, 308055, Note_off_c, 0, 88, 59
1, 308057, Note_off_c, 0, 52, 54
1, 308090, Note_on_c, 0, 92, 83
1, 308091, Note_on_c, 0, 49, 74
1, 308103, Note_off_c, 0, 50, 61
1, 308105, Note_off_c, 0, 90, 66
1, 308112, Note_off_c, 0, 92, 70
1, 308118, Note_off_c, 0, 49, 67
1, 308148, Note_on_c, 0, 93, 86
1, 308152, Note_on_c, 0, 47, 68
1, 308209, Note_on_c, 0, 45, 86
1, 308212, Note_off_c, 0, 47, 61
1, 308213, Note_on_c, 0, 95, 80
1, 308228, Note_on_c, 0, 98, 66
1, 308233, Note_on_c, 0, 44, 74
1, 308233, Note_off_c, 0, 95, 61
1, 308235, Note_off_c, 0, 45, 70
1, 308236, Note_off_c, 0, 93, 68
1, 308243, Note_on_c, 0, 97, 49
1, 308248, Note_off_c, 0, 98, 67
1, 308256, Note_on_c, 0, 42, 61
1, 308259, Note_off_c, 0, 44, 66
1, 308268, Note_off_c, 0, 97, 58
1, 308295, Note_on_c, 0, 88, 111
1, 308296, Note_on_c, 0, 52, 95
1, 308298, Note_on_c, 0, 93, 98
1, 308305, Note_on_c, 0, 45, 79
1, 308307, Note_on_c, 0, 98, 79
1, 308311, Note_on_c, 0, 97, 72
1, 308313, Note_on_c, 0, 49, 71
1, 308324, Note_off_c, 0, 52, 53
1, 308348, Note_off_c, 0, 98, 66
1, 308367, Note_off_c, 0, 88, 61
1, 308375, Note_off_c, 0, 49, 57
1, 308385, Note_off_c, 0, 97, 63
1, 308389, Control_c, 0, 64, 101
1, 308398, Note_off_c, 0, 42, 32
1, 308404, Control_c, 0, 64, 74
1, 308414, Note_off_c, 0, 93, 59
1, 308419, Control_c, 0, 64, 54
1, 308434, Control_c, 0, 64, 0
1, 308439, Note_off_c, 0, 45, 32
1, 308492, Note_on_c, 0, 88, 116
1, 308492, Note_on_c, 0, 49, 91
1, 308492, Note_on_c, 0, 97, 107
1, 308493, Note_on_c, 0, 52, 102
1, 308495, Note_on_c, 0, 100, 102
1, 308495, Note_on_c, 0, 93, 105
1, 308496, Note_on_c, 0, 45, 79
1, 308504, Note_on_c, 0, 99, 78
1, 308505, Note_on_c, 0, 94, 54
1, 308508, Control_c, 0, 64, 68
1, 308522, Control_c, 0, 64, 127
1, 308525, Note_on_c, 0, 40, 43
1, 308528, Note_off_c, 0, 94, 61
1, 308528, Note_off_c, 0, 99, 58
1, 308532, Note_on_c, 0, 98, 46
1, 308535, Note_off_c, 0, 52, 57
1, 308551, Note_off_c, 0, 93, 62
1, 308553, Note_off_c, 0, 45, 61
1, 308556, Note_off_c, 0, 49, 64
1, 308560, Note_off_c, 0, 40, 50
1, 308573, Note_off_c, 0, 100, 64
1, 308581, Note_off_c, 0, 88, 58
1, 308584, Note_off_c, 0, 98, 55
1, 308608, Note_off_c, 0, 97, 61
1, 308690, Note_on_c, 0, 88, 95
1, 308691, Note_on_c, 0, 45, 77
1, 308692, Note_on_c, 0, 100, 94
1, 308693, Note_on_c, 0, 47, 68
1, 308695, Note_on_c, 0, 95, 84
1, 308698, Note_on_c, 0, 52, 76
1, 308708, Note_off_c, 0, 88, 69
1, 308710, Note_off_c, 0, 100, 73
1, 308713, Note_off_c, 0, 95, 74
1, 308716, Note_off_c, 0, 52, 71
1, 308721, Note_off_c, 0, 45, 67
1, 308723, Note_off_c, 0, 47, 65
1, 308756, Note_on_c, 0, 88, 102
1, 308758, Note_on_c, 0, 97, 79
1, 308760, Control_c, 0, 64, 76
1, 308762, Note_on_c, 0, 100, 92
1, 308763, Note_on_c, 0, 52, 70
1, 308766, Note_on_c, 0, 45, 64
1, 308769, Note_on_c, 0, 49, 74
1, 308774, Control_c, 0, 64, 50
1, 308775, Note_on_c, 0, 98, 54
1, 308783, Note_off_c, 0, 52, 63
1, 308789, Control_c, 0, 64, 0
1, 308794, Note_off_c, 0, 45, 65
1, 308799, Note_off_c, 0, 49, 60
1, 308813, Note_off_c, 0, 98, 51
1, 308816, Note_off_c, 0, 100, 65
1, 308823, Note_off_c, 0, 88, 63
1, 308847, Note_off_c, 0, 97, 62
1, 308953, Note_on_c, 0, 88, 106
1, 308954, Note_on_c, 0, 52, 98
1, 308954, Note_on_c, 0, 92, 98
1, 308955, Note_on_c, 0, 95, 106
1, 308957, Note_on_c, 0, 47, 88
1, 308958, Note_on_c, 0, 44, 87
1, 308958, Note_on_c, 0, 100, 99
1, 308960, Control_c, 0, 64, 56
1, 308969, Note_on_c, 0, 97, 80
1, 308975, Control_c, 0, 64, 127
1, 308979, Note_on_c, 0, 98, 67
1, 308979, Note_off_c, 0, 98, 127
1, 308986, Note_off_c, 0, 52, 59
1, 308996, Note_off_c, 0, 47, 62
1, 308997, Note_on_c, 0, 40, 24
1, 309014, Note_off_c, 0, 100, 68
1, 309019, Note_off_c, 0, 44, 62
1, 309028, Note_off_c, 0, 88, 63
1, 309038, Note_off_c, 0, 92, 62
1, 309040, Note_off_c, 0, 40, 41
1, 309049, Note_off_c, 0, 97, 59
1, 309061, Note_off_c, 0, 95, 59
1, 309157, Note_on_c, 0, 45, 85
1, 309160, Note_on_c, 0, 52, 72
1, 309167, Note_on_c, 0, 93, 73
1, 309174, Note_on_c, 0, 88, 67
1, 309178, Note_off_c, 0, 52, 72
1, 309181, Note_off_c, 0, 45, 69
1, 309182, Note_on_c, 0, 100, 54
1, 309185, Note_on_c, 0, 40, 37
1, 309185, Note_off_c, 0, 93, 68
1, 309191, Note_off_c, 0, 88, 64
1, 309207, Note_off_c, 0, 100, 63
1, 309222, Note_off_c, 0, 40, 45
1, 309225, Note_on_c, 0, 95, 40
1, 309230, Note_on_c, 0, 100, 85
1, 309233, Note_on_c, 0, 52, 80
1, 309233, Note_on_c, 0, 88, 93
1, 309242, Note_on_c, 0, 44, 83
1, 309246, Note_on_c, 0, 47, 62
1, 309250, Note_off_c, 0, 88, 75
1, 309257, Control_c, 0, 64, 95
1, 309261, Note_off_c, 0, 52, 66
1, 309264, Note_off_c, 0, 44, 70
1, 309266, Note_on_c, 0, 89, 40
1, 309266, Note_off_c, 0, 89, 127
1, 309266, Note_off_c, 0, 47, 65
1, 309269, Note_off_c, 0, 95, 66
1, 309271, Control_c, 0, 64, 65
1, 309283, Note_off_c, 0, 100, 69
1, 309286, Control_c, 0, 64, 0
1, 309452, Note_on_c, 0, 33, 42
1, 309463, Note_on_c, 0, 37, 77
1, 309465, Note_on_c, 0, 40, 76
1, 309472, Note_on_c, 0, 45, 97
1, 309472, Note_on_c, 0, 93, 110
1, 309472, Note_on_c, 0, 100, 104
1, 309473, Note_on_c, 0, 97, 100
1, 309476, Note_on_c, 0, 105, 103
1, 309479, Control_c, 0, 64, 69
1, 309493, Note_off_c, 0, 33, 42
1, 309493, Control_c, 0, 64, 127
1, 309496, Note_on_c, 0, 102, 52
1, 309506, Note_off_c, 0, 40, 62
1, 309511, Note_on_c, 0, 103, 49
1, 309511, Note_off_c, 0, 37, 61
1, 309517, Note_off_c, 0, 45, 66
1, 309533, Note_off_c, 0, 105, 66
1, 309535, Note_off_c, 0, 103, 61
1, 309544, Note_off_c, 0, 93, 67
1, 309556, Note_off_c, 0, 100, 68
1, 309568, Note_off_c, 0, 97, 65
1, 309574, Note_off_c, 0, 102, 38
1, 310317, Control_c, 0, 64, 91
1, 310332, Control_c, 0, 64, 72
1, 310346, Control_c, 0, 64, 58
1, 310361, Control_c, 0, 64, 0
1, 310376, Control_c, 0, 67, 21
1, 310391, Control_c, 0, 67, 28
1, 310406, Control_c, 0, 67, 40
1, 310421, Control_c, 0, 67, 57
1, 310443, Control_c, 0, 67, 78
1, 310458, Control_c, 0, 67, 97
1, 310474, Control_c, 0, 67, 115
1, 310489, Control_c, 0, 67, 127
1, 310704, Note_on_c, 0, 52, 52
1, 310706, Note_on_c, 0, 64, 50
1, 310722, Note_on_c, 0, 68, 49
1, 310729, Note_off_c, 0, 64, 59
1, 310731, Note_on_c, 0, 71, 36
1, 310734, Note_off_c, 0, 52, 61
1, 310746, Note_off_c, 0, 68, 55
1, 310760, Note_off_c, 0, 71, 50
1, 310951, Note_on_c, 0, 52, 49
1, 310953, Note_on_c, 0, 69, 56
1, 310957, Note_on_c, 0, 64, 40
1, 310961, Note_on_c, 0, 66, 47
1, 310975, Note_off_c, 0, 52, 59
1, 310978, Note_off_c, 0, 69, 65
1, 310984, Note_off_c, 0, 64, 51
1, 310984, Note_off_c, 0, 66, 58
1, 311023, Note_on_c, 0, 71, 65
1, 311041, Note_off_c, 0, 71, 67
1, 311046, Note_on_c, 0, 64, 14
1, 311048, Note_on_c, 0, 52, 30
1, 311053, Note_off_c, 0, 52, 41
1, 311085, Note_off_c, 0, 64, 29
1, 311237, Control_c, 0, 67, 125
1, 311251, Control_c, 0, 67, 77
1, 311254, Note_on_c, 0, 64, 48
1, 311254, Note_on_c, 0, 69, 59
1, 311254, Note_on_c, 0, 73, 65
1, 311257, Note_on_c, 0, 57, 53
1, 311267, Control_c, 0, 67, 0
1, 311276, Note_off_c, 0, 69, 65
1, 311278, Note_off_c, 0, 64, 58
1, 311282, Note_off_c, 0, 73, 67
1, 311282, Note_off_c, 0, 57, 61
1, 311482, Note_on_c, 0, 71, 53
1, 311488, Note_on_c, 0, 57, 46
1, 311505, Note_off_c, 0, 71, 59
1, 311506, Note_on_c, 0, 74, 23
1, 311541, Note_on_c, 0, 73, 69
1, 311545, Note_on_c, 0, 69, 62
1, 311545, Poly_aftertouch_c, 0, 64, 127
1, 311549, Note_off_c, 0, 74, 61
1, 311550, Note_off_c, 0, 57, 0
1, 311565, Note_off_c, 0, 73, 68
1, 311567, Note_on_c, 0, 57, 31
1, 311569, Note_off_c, 0, 69, 65
1, 311574, Poly_aftertouch_c, 0, 64, 0
1, 311601, Note_off_c, 0, 57, 48
1, 311768, Note_on_c, 0, 71, 60
1, 311769, Note_on_c, 0, 68, 62
1, 311781, Note_on_c, 0, 52, 42
1, 311786, Note_on_c, 0, 62, 28
1, 311791, Note_on_c, 0, 64, 25
1, 311796, Note_off_c, 0, 68, 66
1, 311800, Note_off_c, 0, 71, 64
1, 311812, Note_off_c, 0, 52, 50
1, 311822, Note_off_c, 0, 62, 32
1, 311831, Note_off_c, 0, 64, 31
1, 312008, Note_on_c, 0, 69, 57
1, 312019, Note_on_c, 0, 66, 41
1, 312026, Note_on_c, 0, 52, 40
1, 312028, Note_off_c, 0, 69, 63
1, 312046, Note_off_c, 0, 66, 48
1, 312078, Note_off_c, 0, 52, 0
1, 312078, Note_on_c, 0, 52, 36
1, 312078, Note_on_c, 0, 64, 67
1, 312084, Note_on_c, 0, 71, 68
1, 312090, Note_on_c, 0, 68, 55
1, 312092, Poly_aftertouch_c, 0, 62, 127
1, 312097, Note_off_c, 0, 64, 63
1, 312107, Note_off_c, 0, 52, 55
1, 312110, Note_off_c, 0, 71, 66
1, 312111, Note_off_c, 0, 68, 61
1, 312112, Poly_aftertouch_c, 0, 62, 0
1, 312368, Note_on_c, 0, 61, 42
1, 312379, Note_on_c, 0, 57, 33
1, 312393, Note_on_c, 0, 69, 41
1, 312400, Note_on_c, 0, 64, 37
1, 312400, Control_c, 0, 64, 40
1, 312415, Control_c, 0, 64, 61
1, 312430, Control_c, 0, 64, 66
1, 312445, Control_c, 0, 64, 72
1, 312459, Control_c, 0, 64, 80
1, 312474, Control_c, 0, 64, 93
1, 312484, Note_off_c, 0, 64, 54
1, 312489, Control_c, 0, 64, 127
1, 312528, Note_off_c, 0, 61, 31
1, 312538, Note_off_c, 0, 57, 36
1, 312575, Note_off_c, 0, 69, 32
1, 312764, Control_c, 0, 64, 104
1, 312778, Control_c, 0, 64, 80
1, 312793, Control_c, 0, 64, 63
1, 312808, Control_c, 0, 64, 36
1, 312823, Control_c, 0, 64, 0
1, 312954, Note_on_c, 0, 52, 97
1, 312957, Note_on_c, 0, 47, 90
1, 312957, Note_on_c, 0, 76, 105
1, 312957, Control_c, 0, 64, 53
1, 312958, Note_on_c, 0, 83, 98
1, 312961, Note_on_c, 0, 80, 92
1, 312961, Note_on_c, 0, 88, 102
1, 312962, Note_on_c, 0, 44, 85
1, 312970, Note_on_c, 0, 77, 76
1, 312972, Control_c, 0, 64, 127
1, 312976, Note_on_c, 0, 40, 53
1, 312986, Note_off_c, 0, 77, 42
1, 312990, Note_off_c, 0, 52, 60
1, 312998, Note_on_c, 0, 86, 37
1, 313001, Note_on_c, 0, 84, 19
1, 313001, Note_off_c, 0, 84, 127
1, 313002, Note_off_c, 0, 47, 64
1, 313006, Note_off_c, 0, 40, 55
1, 313012, Note_off_c, 0, 44, 65
1, 313018, Note_off_c, 0, 88, 64
1, 313020, Note_off_c, 0, 76, 55
1, 313029, Note_off_c, 0, 80, 60
1, 313030, Note_off_c, 0, 86, 49
1, 313127, Note_off_c, 0, 83, 57
1, 313183, Note_on_c, 0, 45, 89
1, 313184, Note_on_c, 0, 81, 83
1, 313187, Note_on_c, 0, 76, 92
1, 313190, Note_on_c, 0, 52, 70
1, 313193, Note_on_c, 0, 88, 80
1, 313205, Note_off_c, 0, 76, 73
1, 313205, Note_off_c, 0, 81, 70
1, 313205, Note_off_c, 0, 45, 71
1, 313208, Note_off_c, 0, 88, 70
1, 313214, Note_off_c, 0, 52, 69
1, 313246, Note_on_c, 0, 76, 112
1, 313249, Note_on_c, 0, 83, 100
1, 313250, Note_on_c, 0, 88, 101
1, 313251, Note_on_c, 0, 52, 85
1, 313258, Note_on_c, 0, 44, 88
1, 313259, Note_on_c, 0, 47, 78
1, 313267, Poly_aftertouch_c, 0, 50, 0
1, 313267, Poly_aftertouch_c, 0, 40, 0
1, 313280, Note_off_c, 0, 44, 70
1, 313280, Note_off_c, 0, 47, 70
1, 313283, Control_c, 0, 64, 97
1, 313291, Note_off_c, 0, 52, 61
1, 313293, Poly_aftertouch_c, 0, 50, 0
1, 313297, Poly_aftertouch_c, 0, 40, 0
1, 313298, Note_off_c, 0, 88, 60
1, 313298, Control_c, 0, 64, 67
1, 313313, Control_c, 0, 64, 0
1, 313317, Note_off_c, 0, 76, 56
1, 313327, Note_off_c, 0, 83, 56
1, 313457, Note_on_c, 0, 76, 110
1, 313458, Note_on_c, 0, 52, 112
1, 313458, Note_on_c, 0, 81, 98
1, 313462, Note_on_c, 0, 85, 98
1, 313463, Note_on_c, 0, 49, 88
1, 313464, Note_on_c, 0, 88, 97
1, 313469, Control_c, 0, 64, 55
1, 313482, Note_on_c, 0, 45, 67
1, 313484, Control_c, 0, 64, 127
1, 313510, Note_off_c, 0, 81, 60
1, 313515, Note_off_c, 0, 45, 63
1, 313518, Note_off_c, 0, 52, 54
1, 313548, Note_off_c, 0, 88, 58
1, 313550, Note_off_c, 0, 76, 56
1, 313551, Note_off_c, 0, 49, 61
1, 313572, Note_off_c, 0, 85, 59
1, 313668, Note_on_c, 0, 76, 91
1, 313670, Note_on_c, 0, 83, 89
1, 313671, Note_on_c, 0, 52, 84
1, 313671, Note_on_c, 0, 88, 82
1, 313679, Note_on_c, 0, 50, 67
1, 313684, Note_on_c, 0, 47, 59
1, 313685, Note_off_c, 0, 76, 74
1, 313686, Note_off_c, 0, 88, 70
1, 313688, Note_off_c, 0, 83, 71
1, 313691, Note_off_c, 0, 52, 69
1, 313704, Note_off_c, 0, 50, 65
1, 313713, Note_off_c, 0, 47, 65
1, 313734, Note_on_c, 0, 52, 78
1, 313734, Note_on_c, 0, 85, 80
1, 313734, Note_on_c, 0, 88, 101
1, 313735, Note_on_c, 0, 76, 117
1, 313741, Note_on_c, 0, 81, 95
1, 313746, Note_on_c, 0, 45, 69
1, 313762, Note_on_c, 0, 48, 56
1, 313764, Note_off_c, 0, 52, 64
1, 313774, Note_off_c, 0, 81, 50
1, 313777, Note_off_c, 0, 45, 63
1, 313780, Control_c, 0, 64, 80
1, 313786, Note_off_c, 0, 48, 60
1, 313794, Note_off_c, 0, 88, 63
1, 313795, Control_c, 0, 64, 57
1, 313807, Note_off_c, 0, 76, 55
1, 313810, Control_c, 0, 64, 0
1, 313822, Note_off_c, 0, 85, 61
1, 313943, Note_on_c, 0, 52, 105
1, 313946, Note_on_c, 0, 47, 84
1, 313949, Note_on_c, 0, 76, 107
1, 313949, Note_on_c, 0, 80, 98
1, 313949, Note_on_c, 0, 83, 100
1, 313950, Note_on_c, 0, 44, 84
1, 313956, Note_on_c, 0, 88, 97
1, 313959, Control_c, 0, 64, 72
1, 313971, Note_on_c, 0, 40, 52
1, 313974, Control_c, 0, 64, 127
1, 313980, Note_off_c, 0, 52, 64
1, 313986, Note_off_c, 0, 47, 62
1, 313992, Note_on_c, 0, 86, 41
1, 314001, Note_off_c, 0, 40, 53
1, 314001, Note_off_c, 0, 44, 65
1, 314014, Note_off_c, 0, 88, 64
1, 314017, Note_off_c, 0, 76, 60
1, 314020, Note_off_c, 0, 86, 58
1, 314027, Note_off_c, 0, 80, 61
1, 314097, Note_off_c, 0, 83, 48
1, 314159, Note_on_c, 0, 81, 89
1, 314160, Note_on_c, 0, 45, 94
1, 314162, Note_on_c, 0, 76, 92
1, 314164, Note_on_c, 0, 52, 80
1, 314170, Note_on_c, 0, 88, 84
1, 314185, Note_off_c, 0, 76, 74
1, 314188, Note_off_c, 0, 52, 74
1, 314190, Note_off_c, 0, 45, 71
1, 314190, Note_off_c, 0, 88, 71
1, 314201, Note_off_c, 0, 81, 58
1, 314204, Note_on_c, 0, 40, 27
1, 314241, Note_on_c, 0, 76, 103
1, 314243, Note_on_c, 0, 88, 93
1, 314245, Note_off_c, 0, 40, 43
1, 314247, Note_on_c, 0, 52, 88
1, 314247, Note_on_c, 0, 83, 86
1, 314254, Note_on_c, 0, 47, 70
1, 314257, Note_on_c, 0, 44, 72
1, 314261, Note_off_c, 0, 76, 66
1, 314276, Note_off_c, 0, 52, 64
1, 314281, Note_off_c, 0, 47, 69
1, 314282, Note_off_c, 0, 44, 69
1, 314288, Note_off_c, 0, 83, 64
1, 314290, Note_on_c, 0, 85, 24
1, 314297, Note_off_c, 0, 88, 67
1, 314321, Control_c, 0, 64, 94
1, 314332, Note_off_c, 0, 85, 42
1, 314336, Control_c, 0, 64, 68
1, 314351, Control_c, 0, 64, 43
1, 314366, Control_c, 0, 64, 0
1, 314460, Note_on_c, 0, 33, 59
1, 314498, Note_on_c, 0, 37, 57
1, 314507, Note_on_c, 0, 40, 83
1, 314512, Note_on_c, 0, 81, 107
1, 314512, Note_on_c, 0, 88, 102
1, 314513, Note_on_c, 0, 85, 101
1, 314516, Note_on_c, 0, 93, 104
1, 314519, Note_on_c, 0, 45, 104
1, 314542, Note_on_c, 0, 91, 58
1, 314582, Note_off_c, 0, 91, 42
1, 314604, Control_c, 0, 64, 71
1, 314618, Control_c, 0, 64, 127
1, 315149, Note_off_c, 0, 33, 32
1, 315490, Poly_aftertouch_c, 0, 33, 127
1, 315538, Poly_aftertouch_c, 0, 33, 0
1, 315547, Note_off_c, 0, 93, 7
1, 315550, Note_off_c, 0, 40, 51
1, 315551, Note_off_c, 0, 81, 59
1, 315554, Note_off_c, 0, 37, 51
1, 315560, Note_off_c, 0, 88, 63
1, 315563, Note_off_c, 0, 45, 41
1, 315573, Note_off_c, 0, 85, 58
1, 315604, Control_c, 0, 64, 84
1, 315619, Control_c, 0, 64, 64
1, 315634, Control_c, 0, 64, 0
1, 315700, Control_c, 0, 67, 21
1, 315715, Control_c, 0, 67, 28
1, 315730, Control_c, 0, 67, 38
1, 315745, Control_c, 0, 67, 54
1, 315759, Control_c, 0, 67, 75
1, 315774, Control_c, 0, 67, 99
1, 315789, Control_c, 0, 67, 118
1, 315804, Control_c, 0, 67, 127
1, 315834, Control_c, 0, 64, 38
1, 315849, Control_c, 0, 64, 55
1, 315864, Control_c, 0, 64, 62
1, 315879, Control_c, 0, 64, 64
1, 315893, Control_c, 0, 64, 66
1, 315908, Control_c, 0, 64, 69
1, 315923, Control_c, 0, 64, 74
1, 315938, Control_c, 0, 64, 81
1, 315952, Control_c, 0, 64, 91
1, 315967, Control_c, 0, 64, 104
1, 315982, Control_c, 0, 64, 127
1, 316367, Note_on_c, 0, 52, 48
1, 316595, Note_on_c, 0, 45, 32
1, 316677, Note_off_c, 0, 45, 39
1, 316699, Note_on_c, 0, 49, 43
1, 316769, Note_off_c, 0, 49, 58
1, 316783, Note_off_c, 0, 52, 40
1, 316825, Note_on_c, 0, 57, 48
1, 316967, Note_off_c, 0, 57, 62
1, 316988, Note_on_c, 0, 59, 61
1, 317104, Note_off_c, 0, 59, 62
1, 317107, Note_on_c, 0, 57, 68
1, 317162, Control_c, 0, 64, 108
1, 317184, Control_c, 0, 64, 78
1, 317199, Control_c, 0, 64, 60
1, 317214, Control_c, 0, 64, 0
1, 317240, Note_on_c, 0, 56, 67
1, 317244, Note_off_c, 0, 57, 58
1, 317253, Note_on_c, 0, 69, 45
1, 317258, Note_on_c, 0, 64, 41
1, 317262, Note_on_c, 0, 61, 35
1, 317273, Control_c, 0, 64, 52
1, 317288, Control_c, 0, 64, 64
1, 317303, Control_c, 0, 64, 70
1, 317318, Control_c, 0, 64, 78
1, 317332, Control_c, 0, 64, 85
1, 317347, Control_c, 0, 64, 91
1, 317362, Control_c, 0, 64, 96
1, 317373, Note_on_c, 0, 57, 69
1, 317377, Control_c, 0, 64, 107
1, 317389, Note_off_c, 0, 56, 54
1, 317391, Control_c, 0, 64, 127
1, 317412, Note_off_c, 0, 61, 39
1, 317430, Note_off_c, 0, 57, 62
1, 317464, Note_on_c, 0, 59, 61
1, 317500, Note_off_c, 0, 59, 61
1, 317554, Control_c, 0, 64, 97
1, 317569, Control_c, 0, 64, 71
1, 317584, Control_c, 0, 64, 43
1, 317587, Note_on_c, 0, 45, 49
1, 317599, Control_c, 0, 64, 0
1, 317628, Control_c, 0, 64, 52
1, 317629, Note_off_c, 0, 45, 62
1, 317631, Note_on_c, 0, 52, 39
1, 317643, Control_c, 0, 64, 64
1, 317645, Note_off_c, 0, 69, 29
1, 317656, Note_on_c, 0, 61, 64
1, 317659, Control_c, 0, 64, 72
1, 317660, Note_off_c, 0, 52, 55
1, 317673, Control_c, 0, 64, 82
1, 317688, Control_c, 0, 64, 93
1, 317703, Control_c, 0, 64, 100
1, 317718, Control_c, 0, 64, 107
1, 317733, Control_c, 0, 64, 112
1, 317741, Note_off_c, 0, 64, 54
1, 317748, Control_c, 0, 64, 122
1, 317760, Note_on_c, 0, 60, 71
1, 317762, Note_off_c, 0, 61, 55
1, 317762, Control_c, 0, 64, 127
1, 317842, Note_off_c, 0, 60, 61
1, 317869, Note_on_c, 0, 62, 76
1, 317948, Control_c, 0, 64, 105
1, 317962, Control_c, 0, 64, 83
1, 317977, Control_c, 0, 64, 64
1, 317990, Note_off_c, 0, 62, 59
1, 317992, Control_c, 0, 64, 36
1, 318007, Control_c, 0, 64, 0
1, 318010, Note_on_c, 0, 61, 60
1, 318026, Note_on_c, 0, 69, 47
1, 318043, Note_on_c, 0, 64, 37
1, 318052, Control_c, 0, 64, 46
1, 318067, Control_c, 0, 64, 57
1, 318081, Control_c, 0, 64, 65
1, 318095, Note_off_c, 0, 61, 60
1, 318096, Control_c, 0, 64, 71
1, 318111, Control_c, 0, 64, 78
1, 318126, Control_c, 0, 64, 82
1, 318136, Note_on_c, 0, 59, 51
1, 318141, Control_c, 0, 64, 87
1, 318155, Control_c, 0, 64, 92
1, 318170, Control_c, 0, 64, 97
1, 318185, Control_c, 0, 64, 100
1, 318200, Control_c, 0, 64, 102
1, 318229, Control_c, 0, 64, 104
1, 318250, Note_on_c, 0, 57, 60
1, 318251, Note_off_c, 0, 69, 29
1, 318266, Note_off_c, 0, 59, 35
1, 318288, Control_c, 0, 64, 99
1, 318303, Control_c, 0, 64, 83
1, 318318, Control_c, 0, 64, 68
1, 318322, Note_off_c, 0, 64, 32
1, 318329, Note_off_c, 0, 57, 61
1, 318333, Control_c, 0, 64, 53
1, 318348, Control_c, 0, 64, 0
1, 318376, Note_on_c, 0, 54, 49
1, 318396, Note_on_c, 0, 50, 40
1, 318421, Control_c, 0, 64, 44
1, 318436, Control_c, 0, 64, 61
1, 318452, Control_c, 0, 64, 72
1, 318467, Control_c, 0, 64, 86
1, 318482, Control_c, 0, 64, 113
1, 318496, Control_c, 0, 64, 127
1, 318527, Note_off_c, 0, 54, 59
1, 318529, Note_on_c, 0, 56, 66
1, 318545, Note_off_c, 0, 50, 35
1, 318626, Note_off_c, 0, 56, 57
1, 318642, Note_on_c, 0, 54, 64
1, 318726, Control_c, 0, 64, 101
1, 318741, Control_c, 0, 64, 75
1, 318749, Note_off_c, 0, 54, 57
1, 318756, Control_c, 0, 64, 59
1, 318767, Note_on_c, 0, 71, 51
1, 318769, Note_on_c, 0, 62, 47
1, 318771, Control_c, 0, 64, 0
1, 318772, Note_on_c, 0, 53, 58
1, 318786, Note_on_c, 0, 66, 35
1, 318815, Control_c, 0, 64, 40
1, 318830, Control_c, 0, 64, 56
1, 318845, Control_c, 0, 64, 66
1, 318859, Control_c, 0, 64, 75
1, 318874, Control_c, 0, 64, 86
1, 318879, Note_off_c, 0, 53, 57
1, 318884, Note_on_c, 0, 54, 62
1, 318889, Control_c, 0, 64, 94
1, 318904, Control_c, 0, 64, 102
1, 318919, Control_c, 0, 64, 116
1, 318934, Control_c, 0, 64, 127
1, 318979, Note_off_c, 0, 54, 62
1, 318996, Note_on_c, 0, 58, 65
1, 319044, Note_off_c, 0, 62, 37
1, 319067, Control_c, 0, 64, 88
1, 319082, Control_c, 0, 64, 65
1, 319097, Control_c, 0, 64, 38
1, 319107, Note_off_c, 0, 58, 63
1, 319111, Control_c, 0, 64, 0
1, 319125, Note_on_c, 0, 51, 58
1, 319134, Note_on_c, 0, 59, 53
1, 319138, Note_off_c, 0, 66, 31
1, 319141, Control_c, 0, 64, 49
1, 319155, Control_c, 0, 64, 63
1, 319166, Note_off_c, 0, 51, 60
1, 319169, Note_off_c, 0, 71, 30
1, 319170, Control_c, 0, 64, 74
1, 319185, Control_c, 0, 64, 85
1, 319200, Control_c, 0, 64, 100
1, 319200, Control_c, 0, 67, 118
1, 319215, Control_c, 0, 64, 112
1, 319215, Control_c, 0, 67, 90
1, 319229, Control_c, 0, 64, 127
1, 319229, Control_c, 0, 67, 51
1, 319244, Control_c, 0, 67, 0
1, 319264, Note_on_c, 0, 61, 76
1, 319267, Note_off_c, 0, 59, 63
1, 319351, Note_off_c, 0, 61, 57
1, 319358, Note_on_c, 0, 59, 77
1, 319446, Control_c, 0, 64, 92
1, 319460, Control_c, 0, 64, 71
1, 319475, Control_c, 0, 64, 42
1, 319490, Control_c, 0, 64, 0
1, 319502, Note_on_c, 0, 71, 64
1, 319521, Note_on_c, 0, 58, 61
1, 319522, Note_off_c, 0, 59, 56
1, 319523, Note_on_c, 0, 69, 48
1, 319524, Note_on_c, 0, 66, 41
1, 319549, Control_c, 0, 64, 51
1, 319564, Control_c, 0, 64, 64
1, 319578, Control_c, 0, 64, 72
1, 319593, Control_c, 0, 64, 80
1, 319608, Control_c, 0, 64, 86
1, 319614, Note_off_c, 0, 58, 61
1, 319623, Control_c, 0, 64, 90
1, 319638, Control_c, 0, 64, 92
1, 319651, Note_on_c, 0, 59, 62
1, 319652, Control_c, 0, 64, 95
1, 319667, Control_c, 0, 64, 98
1, 319703, Note_off_c, 0, 66, 40
1, 319757, Control_c, 0, 64, 95
1, 319760, Note_off_c, 0, 59, 58
1, 319763, Note_off_c, 0, 71, 32
1, 319764, Note_on_c, 0, 57, 67
1, 319772, Control_c, 0, 64, 79
1, 319786, Control_c, 0, 64, 64
1, 319801, Control_c, 0, 64, 0
1, 319851, Note_off_c, 0, 57, 63
1, 319875, Control_c, 0, 64, 39
1, 319875, Control_c, 0, 67, 21
1, 319876, Note_off_c, 0, 69, 30
1, 319882, Note_on_c, 0, 56, 63
1, 319890, Control_c, 0, 64, 60
1, 319890, Control_c, 0, 67, 28
1, 319900, Note_on_c, 0, 52, 37
1, 319905, Control_c, 0, 64, 70
1, 319905, Control_c, 0, 67, 38
1, 319920, Control_c, 0, 64, 80
1, 319920, Control_c, 0, 67, 53
1, 319934, Control_c, 0, 64, 90
1, 319934, Control_c, 0, 67, 70
1, 319936, Note_off_c, 0, 52, 46
1, 319949, Control_c, 0, 64, 97
1, 319949, Control_c, 0, 67, 87
1, 319964, Control_c, 0, 64, 104
1, 319964, Control_c, 0, 67, 101
1, 319978, Control_c, 0, 64, 109
1, 319978, Control_c, 0, 67, 114
1, 319993, Control_c, 0, 64, 116
1, 319993, Control_c, 0, 67, 125
1, 319995, Note_off_c, 0, 56, 62
1, 320008, Control_c, 0, 64, 122
1, 320008, Control_c, 0, 67, 127
1, 320023, Note_on_c, 0, 66, 71
1, 320023, Control_c, 0, 64, 127
1, 320078, Note_off_c, 0, 66, 60
1, 320123, Note_on_c, 0, 64, 74
1, 320195, Control_c, 0, 64, 96
1, 320209, Control_c, 0, 64, 75
1, 320224, Control_c, 0, 64, 58
1, 320239, Control_c, 0, 64, 0
1, 320258, Note_off_c, 0, 64, 61
1, 320263, Note_on_c, 0, 63, 65
1, 320271, Note_on_c, 0, 71, 56
1, 320286, Note_on_c, 0, 68, 49
1, 320299, Control_c, 0, 64, 46
1, 320314, Control_c, 0, 64, 62
1, 320327, Note_off_c, 0, 63, 63
1, 320329, Control_c, 0, 64, 69
1, 320344, Control_c, 0, 64, 76
1, 320358, Control_c, 0, 64, 84
1, 320373, Control_c, 0, 64, 90
1, 320383, Note_on_c, 0, 64, 58
1, 320388, Control_c, 0, 64, 94
1, 320402, Control_c, 0, 64, 99
1, 320417, Control_c, 0, 64, 103
1, 320432, Control_c, 0, 64, 106
1, 320447, Control_c, 0, 64, 109
1, 320456, Note_off_c, 0, 64, 51
1, 320462, Control_c, 0, 64, 116
1, 320476, Control_c, 0, 64, 127
1, 320483, Note_on_c, 0, 56, 63
1, 320519, Note_off_c, 0, 56, 63
1, 320550, Control_c, 0, 64, 114
1, 320565, Control_c, 0, 64, 85
1, 320580, Control_c, 0, 64, 67
1, 320594, Control_c, 0, 64, 45
1, 320609, Control_c, 0, 64, 0
1, 320613, Note_off_c, 0, 71, 37
1, 320616, Note_on_c, 0, 57, 69
1, 320627, Note_on_c, 0, 47, 51
1, 320635, Note_on_c, 0, 51, 48
1, 320639, Control_c, 0, 64, 48
1, 320654, Note_off_c, 0, 57, 56
1, 320654, Control_c, 0, 64, 62
1, 320657, Note_off_c, 0, 47, 57
1, 320669, Control_c, 0, 64, 71
1, 320684, Control_c, 0, 64, 77
1, 320686, Note_off_c, 0, 51, 59
1, 320699, Control_c, 0, 64, 83
1, 320714, Control_c, 0, 64, 86
1, 320728, Control_c, 0, 64, 89
1, 320731, Note_off_c, 0, 68, 49
1, 320741, Note_on_c, 0, 60, 72
1, 320742, Control_c, 0, 64, 92
1, 320757, Control_c, 0, 64, 94
1, 320772, Control_c, 0, 64, 97
1, 320787, Control_c, 0, 64, 100
1, 320801, Control_c, 0, 64, 103
1, 320816, Control_c, 0, 64, 106
1, 320848, Note_on_c, 0, 59, 78
1, 320849, Note_off_c, 0, 60, 64
1, 320928, Control_c, 0, 64, 92
1, 320943, Control_c, 0, 64, 75
1, 320958, Control_c, 0, 64, 61
1, 320964, Note_off_c, 0, 59, 61
1, 320973, Control_c, 0, 64, 0
1, 320980, Note_on_c, 0, 58, 65
1, 320988, Note_on_c, 0, 71, 56
1, 321001, Note_on_c, 0, 63, 45
1, 321018, Control_c, 0, 64, 34
1, 321032, Control_c, 0, 64, 56
1, 321042, Note_on_c, 0, 69, 14
1, 321043, Note_off_c, 0, 58, 63
1, 321047, Control_c, 0, 64, 66
1, 321062, Control_c, 0, 64, 74
1, 321065, Poly_aftertouch_c, 0, 66, 127
1, 321077, Control_c, 0, 64, 83
1, 321092, Control_c, 0, 64, 89
1, 321103, Note_on_c, 0, 59, 56
1, 321106, Control_c, 0, 64, 92
1, 321121, Control_c, 0, 64, 94
1, 321136, Control_c, 0, 64, 97
1, 321150, Control_c, 0, 64, 100
1, 321152, Poly_aftertouch_c, 0, 66, 0
1, 321165, Control_c, 0, 64, 107
1, 321180, Control_c, 0, 64, 115
1, 321189, Note_off_c, 0, 59, 51
1, 321190, Poly_aftertouch_c, 0, 66, 127
1, 321195, Control_c, 0, 64, 127
1, 321221, Note_on_c, 0, 51, 64
1, 321250, Note_off_c, 0, 51, 62
1, 321269, Control_c, 0, 64, 109
1, 321284, Control_c, 0, 64, 86
1, 321298, Control_c, 0, 64, 68
1, 321308, Note_off_c, 0, 63, 55
1, 321313, Control_c, 0, 64, 48
1, 321328, Control_c, 0, 64, 0
1, 321354, Note_on_c, 0, 40, 58
1, 321357, Control_c, 0, 64, 53
1, 321358, Note_on_c, 0, 52, 58
1, 321372, Control_c, 0, 64, 65
1, 321380, Note_off_c, 0, 40, 56
1, 321387, Control_c, 0, 64, 74
1, 321402, Control_c, 0, 64, 85
1, 321411, Note_off_c, 0, 69, 39
1, 321411, Note_off_c, 0, 71, 37
1, 321412, Poly_aftertouch_c, 0, 66, 0
1, 321417, Control_c, 0, 64, 96
1, 321432, Control_c, 0, 64, 104
1, 321447, Control_c, 0, 64, 111
1, 321453, Note_off_c, 0, 52, 60
1, 321462, Control_c, 0, 64, 116
1, 321462, Control_c, 0, 67, 115
1, 321477, Control_c, 0, 64, 124
1, 321477, Control_c, 0, 67, 83
1, 321491, Control_c, 0, 64, 127
1, 321491, Control_c, 0, 67, 59
1, 321501, Note_on_c, 0, 56, 67
1, 321506, Control_c, 0, 67, 41
1, 321521, Control_c, 0, 67, 29
1, 321536, Control_c, 0, 67, 0
1, 321581, Note_off_c, 0, 56, 59
1, 321608, Note_on_c, 0, 59, 61
1, 321677, Control_c, 0, 64, 97
1, 321692, Control_c, 0, 64, 76
1, 321700, Note_off_c, 0, 59, 61
1, 321707, Control_c, 0, 64, 61
1, 321722, Control_c, 0, 64, 0
1, 321729, Note_on_c, 0, 56, 48
1, 321742, Note_on_c, 0, 64, 50
1, 321755, Note_on_c, 0, 52, 27
1, 321766, Control_c, 0, 64, 40
1, 321781, Control_c, 0, 64, 58
1, 321796, Control_c, 0, 64, 67
1, 321803, Note_off_c, 0, 64, 52
1, 321811, Control_c, 0, 64, 76
1, 321818, Note_off_c, 0, 52, 40
1, 321825, Control_c, 0, 64, 87
1, 321840, Control_c, 0, 64, 95
1, 321852, Note_on_c, 0, 78, 76
1, 321855, Control_c, 0, 64, 100
1, 321859, Note_on_c, 0, 68, 65
1, 321870, Control_c, 0, 64, 105
1, 321885, Control_c, 0, 64, 109
1, 321900, Control_c, 0, 64, 111
1, 321903, Note_off_c, 0, 78, 64
1, 321922, Note_off_c, 0, 68, 58
1, 321929, Control_c, 0, 67, 19
1, 321944, Control_c, 0, 67, 21
1, 321957, Note_on_c, 0, 76, 79
1, 321959, Control_c, 0, 67, 23
1, 321973, Control_c, 0, 67, 27
1, 321988, Control_c, 0, 67, 34
1, 322003, Control_c, 0, 64, 104
1, 322003, Control_c, 0, 67, 44
1, 322018, Control_c, 0, 64, 91
1, 322018, Control_c, 0, 67, 58
1, 322033, Control_c, 0, 64, 78
1, 322033, Control_c, 0, 67, 73
1, 322047, Control_c, 0, 64, 64
1, 322047, Control_c, 0, 67, 89
1, 322058, Note_off_c, 0, 56, 40
1, 322062, Control_c, 0, 64, 0
1, 322062, Control_c, 0, 67, 105
1, 322077, Control_c, 0, 67, 122
1, 322079, Note_on_c, 0, 53, 45
1, 322080, Note_on_c, 0, 75, 67
1, 322092, Control_c, 0, 67, 127
1, 322094, Note_on_c, 0, 69, 54
1, 322108, Note_off_c, 0, 76, 58
1, 322118, Note_on_c, 0, 60, 14
1, 322135, Note_off_c, 0, 75, 60
1, 322142, Note_off_c, 0, 69, 59
1, 322143, Note_off_c, 0, 53, 55
1, 322163, Note_off_c, 0, 60, 51
1, 322206, Note_on_c, 0, 54, 49
1, 322207, Note_on_c, 0, 74, 53
1, 322304, Note_off_c, 0, 54, 63
1, 322329, Note_on_c, 0, 65, 52
1, 322349, Note_on_c, 0, 59, 37
1, 322370, Note_off_c, 0, 65, 62
1, 322374, Note_on_c, 0, 55, 29
1, 322438, Note_off_c, 0, 55, 56
1, 322456, Control_c, 0, 64, 37
1, 322470, Control_c, 0, 64, 59
1, 322485, Control_c, 0, 64, 66
1, 322498, Note_on_c, 0, 64, 39
1, 322500, Control_c, 0, 64, 71
1, 322509, Note_on_c, 0, 56, 39
1, 322515, Control_c, 0, 64, 77
1, 322530, Control_c, 0, 64, 83
1, 322545, Control_c, 0, 64, 90
1, 322559, Control_c, 0, 64, 100
1, 322574, Control_c, 0, 64, 112
1, 322589, Control_c, 0, 64, 127
1, 322594, Note_off_c, 0, 74, 48
1, 322607, Note_off_c, 0, 64, 36
1, 322619, Note_off_c, 0, 56, 45
1, 322636, Note_on_c, 0, 71, 43
1, 322643, Note_on_c, 0, 68, 38
1, 322679, Note_on_c, 0, 62, 40
1, 322682, Note_on_c, 0, 52, 5
1, 322697, Note_off_c, 0, 59, 31
1, 322728, Note_off_c, 0, 62, 51
1, 322729, Note_off_c, 0, 52, 49
1, 322842, Note_on_c, 0, 73, 46
1, 322925, Poly_aftertouch_c, 0, 64, 0
1, 322944, Control_c, 0, 64, 117
1, 322959, Control_c, 0, 64, 87
1, 322974, Control_c, 0, 64, 69
1, 322989, Control_c, 0, 64, 52
1, 322998, Note_on_c, 0, 45, 48
1, 323003, Control_c, 0, 64, 0
1, 323007, Note_off_c, 0, 71, 44
1, 323033, Control_c, 0, 64, 49
1, 323046, Note_off_c, 0, 45, 58
1, 323048, Control_c, 0, 64, 62
1, 323049, Note_on_c, 0, 49, 52
1, 323049, Note_off_c, 0, 73, 62
1, 323053, Note_off_c, 0, 68, 40
1, 323063, Control_c, 0, 64, 72
1, 323077, Control_c, 0, 64, 83
1, 323077, Control_c, 0, 67, 109
1, 323092, Control_c, 0, 64, 96
1, 323092, Control_c, 0, 67, 82
1, 323101, Note_off_c, 0, 49, 62
1, 323107, Control_c, 0, 64, 108
1, 323107, Control_c, 0, 67, 47
1, 323122, Control_c, 0, 64, 127
1, 323122, Control_c, 0, 67, 0
1, 323126, Note_on_c, 0, 57, 61
1, 323259, Note_on_c, 0, 59, 76
1, 323262, Note_off_c, 0, 57, 61
1, 323383, Note_on_c, 0, 57, 82
1, 323390, Note_off_c, 0, 59, 63
1, 323441, Control_c, 0, 64, 96
1, 323456, Control_c, 0, 64, 71
1, 323471, Control_c, 0, 64, 51
1, 323486, Control_c, 0, 64, 0
1, 323501, Note_on_c, 0, 64, 53
1, 323501, Note_on_c, 0, 69, 53
1, 323503, Note_on_c, 0, 61, 53
1, 323512, Note_on_c, 0, 56, 78
1, 323533, Note_off_c, 0, 57, 61
1, 323560, Control_c, 0, 64, 44
1, 323575, Control_c, 0, 64, 62
1, 323590, Control_c, 0, 64, 71
1, 323605, Control_c, 0, 64, 81
1, 323619, Control_c, 0, 64, 92
1, 323634, Control_c, 0, 64, 103
1, 323640, Note_on_c, 0, 57, 86
1, 323649, Control_c, 0, 64, 127
1, 323671, Note_off_c, 0, 61, 42
1, 323675, Note_off_c, 0, 56, 59
1, 323711, Note_off_c, 0, 57, 64
1, 323749, Note_on_c, 0, 59, 66
1, 323778, Note_off_c, 0, 59, 63
1, 323812, Control_c, 0, 64, 94
1, 323826, Control_c, 0, 64, 70
1, 323841, Control_c, 0, 64, 49
1, 323846, Note_on_c, 0, 45, 60
1, 323856, Control_c, 0, 64, 0
1, 323871, Control_c, 0, 64, 35
1, 323886, Control_c, 0, 64, 50
1, 323897, Note_off_c, 0, 45, 61
1, 323897, Note_on_c, 0, 52, 54
1, 323900, Control_c, 0, 64, 59
1, 323910, Note_on_c, 0, 61, 69
1, 323923, Control_c, 0, 64, 66
1, 323938, Note_off_c, 0, 52, 63
1, 323938, Control_c, 0, 64, 74
1, 323952, Control_c, 0, 64, 85
1, 323967, Control_c, 0, 64, 99
1, 323971, Note_off_c, 0, 64, 59
1, 323982, Control_c, 0, 64, 117
1, 323997, Control_c, 0, 64, 127
1, 324031, Note_off_c, 0, 61, 56
1, 324043, Note_on_c, 0, 60, 77
1, 324062, Note_off_c, 0, 69, 32
1, 324142, Note_off_c, 0, 60, 59
1, 324143, Note_on_c, 0, 62, 79
1, 324220, Control_c, 0, 64, 90
1, 324235, Control_c, 0, 64, 70
1, 324249, Control_c, 0, 64, 54
1, 324264, Control_c, 0, 64, 0
1, 324271, Note_off_c, 0, 62, 60
1, 324273, Note_on_c, 0, 61, 65
1, 324279, Note_on_c, 0, 69, 58
1, 324299, Note_on_c, 0, 64, 49
1, 324309, Control_c, 0, 64, 47
1, 324323, Control_c, 0, 64, 58
1, 324338, Control_c, 0, 64, 65
1, 324353, Control_c, 0, 64, 75
1, 324363, Note_off_c, 0, 61, 61
1, 324368, Control_c, 0, 64, 88
1, 324383, Control_c, 0, 64, 105
1, 324388, Note_on_c, 0, 59, 69
1, 324398, Control_c, 0, 64, 127
1, 324491, Note_off_c, 0, 64, 53
1, 324502, Note_on_c, 0, 57, 74
1, 324514, Note_off_c, 0, 69, 48
1, 324536, Note_off_c, 0, 59, 59
1, 324590, Control_c, 0, 64, 100
1, 324605, Control_c, 0, 64, 77
1, 324620, Control_c, 0, 64, 61
1, 324630, Note_on_c, 0, 50, 57
1, 324635, Note_off_c, 0, 57, 62
1, 324635, Control_c, 0, 64, 0
1, 324645, Note_on_c, 0, 54, 60
1, 324701, Control_c, 0, 64, 49
1, 324716, Control_c, 0, 64, 62
1, 324731, Control_c, 0, 64, 71
1, 324746, Control_c, 0, 64, 82
1, 324761, Control_c, 0, 64, 100
1, 324775, Control_c, 0, 64, 113
1, 324783, Note_on_c, 0, 56, 80
1, 324787, Note_off_c, 0, 50, 61
1, 324790, Control_c, 0, 64, 127
1, 324791, Note_off_c, 0, 54, 61
1, 324881, Note_on_c, 0, 54, 73
1, 324902, Note_off_c, 0, 56, 59
1, 324954, Control_c, 0, 64, 117
1, 324969, Control_c, 0, 64, 86
1, 324984, Control_c, 0, 64, 67
1, 324993, Note_off_c, 0, 54, 61
1, 324998, Control_c, 0, 64, 42
1, 325005, Note_on_c, 0, 53, 63
1, 325013, Control_c, 0, 64, 0
1, 325030, Note_on_c, 0, 71, 55
1, 325049, Note_on_c, 0, 66, 35
1, 325051, Note_on_c, 0, 62, 36
1, 325087, Control_c, 0, 64, 34
1, 325102, Control_c, 0, 64, 55
1, 325116, Control_c, 0, 64, 66
1, 325121, Note_off_c, 0, 53, 62
1, 325125, Note_on_c, 0, 54, 70
1, 325131, Control_c, 0, 64, 72
1, 325146, Control_c, 0, 64, 78
1, 325161, Control_c, 0, 64, 82
1, 325176, Control_c, 0, 64, 86
1, 325191, Control_c, 0, 64, 90
1, 325206, Control_c, 0, 64, 93
1, 325221, Control_c, 0, 64, 95
1, 325229, Note_off_c, 0, 54, 62
1, 325234, Note_on_c, 0, 58, 72
1, 325236, Control_c, 0, 64, 95
1, 325265, Control_c, 0, 64, 95
1, 325271, Note_off_c, 0, 62, 38
1, 325280, Control_c, 0, 64, 91
1, 325295, Control_c, 0, 64, 79
1, 325301, Note_off_c, 0, 71, 32
1, 325310, Control_c, 0, 64, 65
1, 325325, Control_c, 0, 64, 36
1, 325340, Control_c, 0, 64, 0
1, 325351, Note_off_c, 0, 58, 62
1, 325355, Control_c, 0, 67, 21
1, 325368, Note_on_c, 0, 59, 55
1, 325370, Control_c, 0, 67, 27
1, 325385, Control_c, 0, 64, 42
1, 325385, Control_c, 0, 67, 35
1, 325388, Note_on_c, 0, 50, 27
1, 325399, Control_c, 0, 64, 60
1, 325399, Control_c, 0, 67, 47
1, 325421, Control_c, 0, 64, 68
1, 325421, Control_c, 0, 67, 64
1, 325435, Note_off_c, 0, 50, 41
1, 325435, Note_off_c, 0, 66, 29
1, 325436, Control_c, 0, 64, 76
1, 325436, Control_c, 0, 67, 81
1, 325451, Control_c, 0, 64, 87
1, 325451, Control_c, 0, 67, 98
1, 325466, Control_c, 0, 64, 94
1, 325466, Control_c, 0, 67, 112
1, 325480, Control_c, 0, 64, 98
1, 325480, Control_c, 0, 67, 126
1, 325495, Control_c, 0, 64, 100
1, 325507, Note_off_c, 0, 59, 63
1, 325510, Control_c, 0, 64, 102
1, 325511, Note_on_c, 0, 61, 71
1, 325525, Control_c, 0, 64, 104
1, 325540, Control_c, 0, 64, 106
1, 325569, Control_c, 0, 64, 109
1, 325584, Control_c, 0, 64, 111
1, 325590, Note_off_c, 0, 61, 60
1, 325623, Note_on_c, 0, 59, 73
1, 325689, Control_c, 0, 64, 103
1, 325704, Control_c, 0, 64, 86
1, 325719, Control_c, 0, 64, 70
1, 325733, Control_c, 0, 64, 49
1, 325742, Note_off_c, 0, 59, 50
1, 325748, Control_c, 0, 64, 0
1, 325770, Note_on_c, 0, 71, 57
1, 325772, Note_on_c, 0, 62, 54
1, 325773, Note_on_c, 0, 58, 56
1, 325808, Control_c, 0, 64, 45
1, 325819, Note_on_c, 0, 66, 21
1, 325822, Control_c, 0, 64, 61
1, 325837, Control_c, 0, 64, 69
1, 325838, Note_off_c, 0, 58, 57
1, 325852, Control_c, 0, 64, 77
1, 325867, Control_c, 0, 64, 85
1, 325882, Control_c, 0, 64, 89
1, 325896, Control_c, 0, 64, 91
1, 325897, Note_on_c, 0, 59, 42
1, 325911, Control_c, 0, 64, 93
1, 325926, Control_c, 0, 64, 94
1, 325940, Control_c, 0, 64, 95
1, 325955, Control_c, 0, 64, 96
1, 325963, Note_off_c, 0, 59, 54
1, 325979, Note_on_c, 0, 57, 61
1, 325999, Control_c, 0, 64, 98
1, 326004, Note_off_c, 0, 57, 64
1, 326103, Control_c, 0, 64, 100
1, 326106, Note_on_c, 0, 40, 60
1, 326131, Note_off_c, 0, 40, 60
1, 326147, Control_c, 0, 64, 102
1, 326209, Note_on_c, 0, 57, 64
1, 326242, Note_off_c, 0, 71, 37
1, 326243, Control_c, 0, 64, 104
1, 326246, Note_off_c, 0, 66, 36
1, 326276, Note_off_c, 0, 62, 37
1, 326333, Control_c, 0, 64, 106
1, 326334, Note_on_c, 0, 56, 79
1, 326336, Note_off_c, 0, 57, 63
1, 326425, Note_on_c, 0, 54, 82
1, 326441, Note_off_c, 0, 56, 61
1, 326482, Control_c, 0, 64, 104
1, 326493, Note_off_c, 0, 54, 56
1, 326497, Control_c, 0, 64, 91
1, 326511, Control_c, 0, 64, 74
1, 326526, Control_c, 0, 64, 60
1, 326541, Control_c, 0, 64, 0
1, 326551, Note_on_c, 0, 54, 56
1, 326569, Note_on_c, 0, 71, 63
1, 326585, Note_on_c, 0, 62, 49
1, 326600, Control_c, 0, 64, 47
1, 326607, Note_on_c, 0, 68, 41
1, 326615, Control_c, 0, 64, 62
1, 326630, Control_c, 0, 64, 69
1, 326640, Note_off_c, 0, 54, 62
1, 326644, Control_c, 0, 64, 78
1, 326658, Poly_aftertouch_c, 0, 64, 127
1, 326659, Control_c, 0, 64, 83
1, 326674, Control_c, 0, 64, 87
1, 326687, Note_on_c, 0, 52, 60
1, 326688, Control_c, 0, 64, 91
1, 326703, Control_c, 0, 64, 95
1, 326718, Control_c, 0, 64, 103
1, 326733, Control_c, 0, 64, 124
1, 326748, Control_c, 0, 64, 127
1, 326771, Note_off_c, 0, 52, 60
1, 326779, Note_on_c, 0, 51, 65
1, 326804, Note_off_c, 0, 51, 64
1, 326851, Control_c, 0, 64, 94
1, 326866, Control_c, 0, 64, 72
1, 326881, Control_c, 0, 64, 54
1, 326896, Control_c, 0, 64, 0
1, 326903, Note_on_c, 0, 40, 57
1, 326923, Note_on_c, 0, 50, 53
1, 326933, Control_c, 0, 64, 39
1, 326939, Note_off_c, 0, 40, 61
1, 326948, Control_c, 0, 64, 60
1, 326963, Control_c, 0, 64, 68
1, 326968, Note_off_c, 0, 62, 58
1, 326969, Note_off_c, 0, 68, 40
1, 326977, Control_c, 0, 64, 75
1, 326982, Poly_aftertouch_c, 0, 64, 0
1, 326984, Note_off_c, 0, 71, 62
1, 326992, Control_c, 0, 64, 83
1, 326998, Note_off_c, 0, 50, 60
1, 327007, Control_c, 0, 64, 90
1, 327022, Control_c, 0, 64, 95
1, 327036, Control_c, 0, 64, 101
1, 327051, Control_c, 0, 64, 106
1, 327063, Note_on_c, 0, 52, 57
1, 327066, Control_c, 0, 64, 109
1, 327081, Control_c, 0, 64, 111
1, 327096, Control_c, 0, 64, 115
1, 327111, Control_c, 0, 64, 117
1, 327117, Note_off_c, 0, 52, 58
1, 327140, Control_c, 0, 64, 120
1, 327155, Control_c, 0, 64, 122
1, 327170, Control_c, 0, 64, 124
1, 327182, Note_on_c, 0, 53, 54
1, 327185, Control_c, 0, 64, 127
1, 327245, Control_c, 0, 64, 124
1, 327260, Control_c, 0, 64, 112
1, 327274, Note_off_c, 0, 53, 61
1, 327275, Control_c, 0, 64, 95
1, 327289, Control_c, 0, 64, 79
1, 327304, Control_c, 0, 64, 64
1, 327319, Note_on_c, 0, 54, 45
1, 327319, Control_c, 0, 64, 38
1, 327334, Control_c, 0, 64, 0
1, 327341, Note_on_c, 0, 76, 54
1, 327359, Note_on_c, 0, 64, 27
1, 327363, Note_on_c, 0, 62, 35
1, 327393, Control_c, 0, 64, 54
1, 327394, Note_on_c, 0, 71, 21
1, 327408, Control_c, 0, 64, 66
1, 327423, Control_c, 0, 64, 76
1, 327424, Note_off_c, 0, 54, 61
1, 327438, Control_c, 0, 64, 91
1, 327453, Control_c, 0, 64, 103
1, 327464, Note_off_c, 0, 76, 55
1, 327465, Note_on_c, 0, 55, 51
1, 327467, Control_c, 0, 64, 109
1, 327483, Control_c, 0, 64, 113
1, 327498, Control_c, 0, 64, 115
1, 327512, Control_c, 0, 64, 119
1, 327527, Control_c, 0, 64, 122
1, 327537, Note_off_c, 0, 64, 37
1, 327542, Control_c, 0, 64, 127
1, 327553, Note_off_c, 0, 62, 36
1, 327557, Note_off_c, 0, 55, 49
1, 327562, Note_off_c, 0, 71, 49
1, 327596, Note_on_c, 0, 56, 48
1, 327623, Note_off_c, 0, 56, 55
1, 327780, Note_on_c, 0, 45, 45
1, 327787, Control_c, 0, 64, 110
1, 327801, Control_c, 0, 64, 90
1, 327816, Control_c, 0, 64, 73
1, 327831, Control_c, 0, 64, 59
1, 327845, Control_c, 0, 64, 0
1, 327847, Note_on_c, 0, 52, 38
1, 327855, Note_off_c, 0, 45, 51
1, 327875, Control_c, 0, 64, 40
1, 327890, Control_c, 0, 64, 56
1, 327905, Control_c, 0, 64, 65
1, 327919, Note_on_c, 0, 61, 36
1, 327919, Control_c, 0, 64, 72
1, 327924, Note_off_c, 0, 52, 57
1, 327933, Note_on_c, 0, 57, 37
1, 327934, Control_c, 0, 64, 83
1, 327944, Note_on_c, 0, 69, 43
1, 327949, Control_c, 0, 64, 102
1, 327951, Note_off_c, 0, 61, 51
1, 327964, Control_c, 0, 64, 116
1, 327979, Note_off_c, 0, 57, 60
1, 327979, Control_c, 0, 64, 127
1, 328043, Note_off_c, 0, 69, 55
1, 328166, Note_on_c, 0, 61, 39
1, 328174, Note_on_c, 0, 64, 44
1, 328184, Note_on_c, 0, 69, 53
1, 328185, Note_on_c, 0, 76, 59
1, 328211, Note_off_c, 0, 64, 55
1, 328213, Note_off_c, 0, 69, 59
1, 328217, Note_off_c, 0, 61, 58
1, 328217, Note_off_c, 0, 76, 61
1, 328306, Note_on_c, 0, 76, 74
1, 328309, Note_on_c, 0, 69, 58
1, 328319, Note_on_c, 0, 64, 45
1, 328321, Control_c, 0, 67, 116
1, 328331, Note_on_c, 0, 61, 47
1, 328335, Control_c, 0, 67, 87
1, 328344, Note_off_c, 0, 64, 57
1, 328345, Note_off_c, 0, 69, 61
1, 328348, Note_off_c, 0, 76, 57
1, 328350, Control_c, 0, 67, 54
1, 328357, Note_off_c, 0, 61, 59
1, 328365, Control_c, 0, 67, 0
1, 328431, Note_on_c, 0, 76, 78
1, 328431, Note_on_c, 0, 64, 57
1, 328437, Note_on_c, 0, 69, 63
1, 328448, Note_on_c, 0, 61, 53
1, 328452, Note_off_c, 0, 64, 65
1, 328467, Note_off_c, 0, 69, 64
1, 328479, Note_off_c, 0, 61, 59
1, 328483, Note_off_c, 0, 76, 63
1, 328539, Note_on_c, 0, 75, 71
1, 328543, Note_on_c, 0, 69, 67
1, 328547, Note_on_c, 0, 66, 65
1, 328551, Note_on_c, 0, 60, 58
1, 328569, Note_off_c, 0, 66, 62
1, 328577, Note_off_c, 0, 75, 59
1, 328580, Control_c, 0, 64, 107
1, 328581, Note_off_c, 0, 69, 55
1, 328587, Note_off_c, 0, 60, 64
1, 328595, Control_c, 0, 64, 83
1, 328610, Control_c, 0, 64, 66
1, 328610, Control_c, 0, 67, 23
1, 328624, Control_c, 0, 64, 46
1, 328624, Control_c, 0, 67, 30
1, 328639, Control_c, 0, 64, 0
1, 328639, Control_c, 0, 67, 40
1, 328643, Note_on_c, 0, 75, 75
1, 328654, Control_c, 0, 67, 55
1, 328658, Note_on_c, 0, 66, 58
1, 328659, Note_on_c, 0, 69, 55
1, 328668, Control_c, 0, 67, 72
1, 328673, Note_on_c, 0, 60, 49
1, 328682, Note_off_c, 0, 66, 55
1, 328683, Control_c, 0, 67, 89
1, 328685, Note_off_c, 0, 75, 59
1, 328697, Note_off_c, 0, 69, 63
1, 328698, Control_c, 0, 67, 108
1, 328703, Note_off_c, 0, 60, 61
1, 328713, Control_c, 0, 67, 125
1, 328728, Control_c, 0, 67, 127
1, 328751, Note_on_c, 0, 75, 67
1, 328762, Note_on_c, 0, 66, 64
1, 328771, Note_on_c, 0, 69, 55
1, 328789, Note_off_c, 0, 75, 59
1, 328798, Note_off_c, 0, 66, 60
1, 328804, Note_off_c, 0, 69, 65
1, 328872, Poly_aftertouch_c, 0, 60, 0
1, 328878, Note_on_c, 0, 74, 72
1, 328887, Note_on_c, 0, 69, 55
1, 328890, Note_on_c, 0, 59, 50
1, 328893, Note_on_c, 0, 65, 54
1, 328915, Note_off_c, 0, 59, 61
1, 328918, Note_off_c, 0, 74, 57
1, 328923, Note_off_c, 0, 69, 64
1, 328927, Note_off_c, 0, 65, 64
1, 329007, Note_on_c, 0, 59, 53
1, 329010, Note_on_c, 0, 69, 55
1, 329015, Note_on_c, 0, 74, 53
1, 329021, Note_on_c, 0, 65, 55
1, 329042, Note_off_c, 0, 74, 59
1, 329043, Note_off_c, 0, 69, 59
1, 329045, Note_off_c, 0, 65, 61
1, 329050, Note_off_c, 0, 59, 59
1, 329134, Note_on_c, 0, 74, 62
1, 329135, Note_on_c, 0, 65, 56
1, 329145, Note_on_c, 0, 69, 46
1, 329152, Note_on_c, 0, 59, 32
1, 329166, Note_off_c, 0, 65, 65
1, 329178, Note_off_c, 0, 69, 60
1, 329180, Control_c, 0, 64, 45
1, 329187, Note_off_c, 0, 59, 51
1, 329195, Control_c, 0, 64, 61
1, 329210, Control_c, 0, 64, 67
1, 329225, Control_c, 0, 64, 73
1, 329239, Control_c, 0, 64, 77
1, 329269, Control_c, 0, 64, 73
1, 329278, Note_off_c, 0, 74, 58
1, 329284, Control_c, 0, 64, 66
1, 329294, Note_on_c, 0, 71, 57
1, 329299, Note_on_c, 0, 62, 42
1, 329299, Control_c, 0, 64, 59
1, 329305, Note_on_c, 0, 52, 35
1, 329305, Note_on_c, 0, 68, 48
1, 329313, Control_c, 0, 64, 60
1, 329326, Note_off_c, 0, 62, 57
1, 329328, Control_c, 0, 64, 64
1, 329334, Note_off_c, 0, 68, 60
1, 329337, Note_off_c, 0, 52, 46
1, 329343, Control_c, 0, 64, 71
1, 329358, Control_c, 0, 64, 80
1, 329373, Control_c, 0, 64, 91
1, 329388, Control_c, 0, 64, 100
1, 329403, Control_c, 0, 64, 106
1, 329417, Note_off_c, 0, 71, 58
1, 329418, Control_c, 0, 64, 109
1, 329433, Control_c, 0, 64, 112
1, 329441, Note_on_c, 0, 52, 47
1, 329447, Control_c, 0, 64, 115
1, 329452, Note_on_c, 0, 64, 32
1, 329457, Note_on_c, 0, 73, 60
1, 329462, Note_on_c, 0, 68, 44
1, 329462, Control_c, 0, 64, 120
1, 329468, Note_off_c, 0, 52, 59
1, 329477, Control_c, 0, 64, 127
1, 329484, Note_off_c, 0, 64, 48
1, 329492, Note_off_c, 0, 73, 61
1, 329497, Note_off_c, 0, 68, 62
1, 329625, Note_on_c, 0, 45, 37
1, 329635, Note_on_c, 0, 52, 16
1, 329641, Control_c, 0, 64, 117
1, 329656, Control_c, 0, 64, 93
1, 329670, Control_c, 0, 64, 75
1, 329685, Control_c, 0, 64, 59
1, 329695, Note_on_c, 0, 57, 38
1, 329700, Control_c, 0, 64, 0
1, 329713, Note_off_c, 0, 45, 33
1, 329714, Note_on_c, 0, 69, 44
1, 329714, Control_c, 0, 67, 112
1, 329725, Note_on_c, 0, 61, 30
1, 329729, Control_c, 0, 64, 45
1, 329729, Control_c, 0, 67, 83
1, 329744, Control_c, 0, 64, 61
1, 329744, Control_c, 0, 67, 50
1, 329759, Control_c, 0, 64, 70
1, 329759, Control_c, 0, 67, 0
1, 329774, Control_c, 0, 64, 83
1, 329788, Control_c, 0, 64, 104
1, 329789, Note_off_c, 0, 61, 43
1, 329803, Control_c, 0, 64, 127
1, 329814, Note_off_c, 0, 52, 40
1, 329815, Note_off_c, 0, 57, 59
1, 329889, Note_on_c, 0, 71, 49
1, 329892, Note_off_c, 0, 69, 36
1, 330010, Note_on_c, 0, 69, 53
1, 330081, Note_on_c, 0, 57, 36
1, 330111, Note_on_c, 0, 64, 42
1, 330124, Note_on_c, 0, 61, 33
1, 330137, Note_on_c, 0, 68, 59
1, 330143, Note_off_c, 0, 71, 15
1, 330156, Note_off_c, 0, 64, 60
1, 330179, Note_off_c, 0, 69, 32
1, 330181, Note_off_c, 0, 57, 51
1, 330193, Note_off_c, 0, 68, 56
1, 330199, Note_off_c, 0, 61, 55
1, 330237, Note_on_c, 0, 69, 61
1, 330318, Note_off_c, 0, 69, 59
1, 330345, Note_on_c, 0, 71, 62
1, 330383, Note_off_c, 0, 71, 61
1, 330390, Note_on_c, 0, 73, 63
1, 330450, Note_on_c, 0, 74, 70
1, 330453, Note_off_c, 0, 73, 61
1, 330463, Control_c, 0, 64, 119
1, 330478, Control_c, 0, 64, 82
1, 330493, Control_c, 0, 64, 64
1, 330508, Control_c, 0, 64, 0
1, 330519, Note_on_c, 0, 45, 34
1, 330542, Note_on_c, 0, 64, 44
1, 330553, Note_off_c, 0, 74, 58
1, 330565, Note_on_c, 0, 73, 69
1, 330569, Note_on_c, 0, 69, 22
1, 330597, Control_c, 0, 64, 53
1, 330611, Control_c, 0, 64, 66
1, 330618, Note_off_c, 0, 45, 62
1, 330626, Control_c, 0, 64, 77
1, 330641, Control_c, 0, 64, 89
1, 330663, Control_c, 0, 64, 99
1, 330678, Control_c, 0, 64, 107
1, 330685, Note_off_c, 0, 64, 38
1, 330693, Control_c, 0, 64, 122
1, 330697, Note_on_c, 0, 72, 77
1, 330700, Note_off_c, 0, 73, 62
1, 330708, Control_c, 0, 64, 127
1, 330741, Note_off_c, 0, 69, 37
1, 330803, Note_on_c, 0, 74, 82
1, 330809, Note_off_c, 0, 72, 59
1, 330918, Note_on_c, 0, 61, 45
1, 330918, Note_on_c, 0, 73, 73
1, 330921, Note_on_c, 0, 57, 48
1, 330932, Note_on_c, 0, 52, 34
1, 330944, Note_off_c, 0, 61, 57
1, 330959, Note_off_c, 0, 57, 64
1, 330972, Note_off_c, 0, 52, 50
1, 331015, Note_off_c, 0, 74, 61
1, 331021, Note_on_c, 0, 71, 83
1, 331066, Note_off_c, 0, 73, 60
1, 331125, Note_on_c, 0, 69, 84
1, 331181, Control_c, 0, 64, 86
1, 331196, Control_c, 0, 64, 64
1, 331211, Control_c, 0, 64, 0
1, 331223, Note_off_c, 0, 71, 34
1, 331224, Note_on_c, 0, 38, 51
1, 331253, Note_off_c, 0, 69, 41
1, 331257, Control_c, 0, 64, 46
1, 331259, Note_on_c, 0, 68, 79
1, 331266, Note_off_c, 0, 38, 61
1, 331272, Control_c, 0, 64, 64
1, 331286, Control_c, 0, 64, 75
1, 331301, Control_c, 0, 64, 96
1, 331312, Note_off_c, 0, 68, 64
1, 331316, Control_c, 0, 64, 127
1, 331373, Note_on_c, 0, 66, 72
1, 331433, Note_off_c, 0, 66, 63
1, 331469, Note_on_c, 0, 50, 50
1, 331504, Note_on_c, 0, 80, 75
1, 331504, Note_off_c, 0, 50, 50
1, 331559, Note_off_c, 0, 80, 61
1, 331569, Note_on_c, 0, 57, 31
1, 331586, Note_on_c, 0, 59, 48
1, 331622, Note_on_c, 0, 78, 80
1, 331659, Note_on_c, 0, 66, 52
1, 331680, Note_off_c, 0, 57, 27
1, 331697, Note_off_c, 0, 78, 63
1, 331735, Note_off_c, 0, 66, 56
1, 331753, Note_on_c, 0, 92, 84
1, 331856, Note_off_c, 0, 92, 63
1, 331864, Note_on_c, 0, 90, 86
1, 331951, Note_off_c, 0, 59, 37
1, 332063, Note_on_c, 0, 97, 70
1, 332077, Note_off_c, 0, 90, 63
1, 332227, Note_on_c, 0, 95, 75
1, 332258, Note_on_c, 0, 51, 46
1, 332302, Note_off_c, 0, 51, 60
1, 332333, Note_on_c, 0, 59, 52
1, 332344, Note_on_c, 0, 90, 80
1, 332359, Note_off_c, 0, 97, 37
1, 332422, Note_on_c, 0, 66, 60
1, 332427, Note_off_c, 0, 95, 63
1, 332450, Note_off_c, 0, 66, 66
1, 332452, Note_on_c, 0, 85, 87
1, 332461, Note_off_c, 0, 90, 62
1, 332485, Note_off_c, 0, 85, 63
1, 332535, Note_off_c, 0, 59, 22
1, 332558, Note_on_c, 0, 83, 83
1, 332590, Note_on_c, 0, 52, 51
1, 332625, Note_off_c, 0, 52, 61
1, 332661, Note_on_c, 0, 81, 87
1, 332673, Note_on_c, 0, 59, 55
1, 332678, Note_on_c, 0, 78, 71
1, 332718, Note_off_c, 0, 78, 57
1, 332739, Control_c, 0, 64, 86
1, 332753, Control_c, 0, 64, 62
1, 332768, Control_c, 0, 64, 0
1, 332774, Note_on_c, 0, 68, 69
1, 332787, Note_on_c, 0, 80, 83
1, 332797, Note_on_c, 0, 78, 74
1, 332798, Control_c, 0, 64, 51
1, 332807, Note_off_c, 0, 83, 47
1, 332813, Control_c, 0, 64, 67
1, 332829, Control_c, 0, 64, 84
1, 332838, Note_off_c, 0, 81, 50
1, 332843, Note_off_c, 0, 68, 63
1, 332844, Control_c, 0, 64, 127
1, 332888, Note_off_c, 0, 78, 62
1, 332894, Note_off_c, 0, 80, 59
1, 332918, Note_off_c, 0, 59, 37
1, 332919, Note_on_c, 0, 76, 73
1, 332968, Note_off_c, 0, 76, 62
1, 333037, Note_on_c, 0, 73, 68
1, 333124, Note_on_c, 0, 59, 44
1, 333126, Note_on_c, 0, 56, 48
1, 333147, Note_on_c, 0, 71, 69
1, 333174, Note_off_c, 0, 73, 58
1, 333186, Note_off_c, 0, 59, 59
1, 333216, Note_off_c, 0, 56, 60
1, 333249, Note_on_c, 0, 66, 67
1, 333268, Note_off_c, 0, 71, 61
1, 333300, Note_off_c, 0, 66, 58
1, 333372, Note_on_c, 0, 68, 79
1, 333392, Note_on_c, 0, 64, 49
1, 333454, Note_off_c, 0, 68, 62
1, 333458, Control_c, 0, 64, 81
1, 333460, Note_off_c, 0, 64, 58
1, 333473, Control_c, 0, 64, 59
1, 333487, Note_on_c, 0, 47, 57
1, 333488, Control_c, 0, 64, 0
1, 333503, Note_on_c, 0, 69, 80
1, 333518, Control_c, 0, 64, 48
1, 333519, Note_on_c, 0, 66, 69
1, 333526, Note_off_c, 0, 47, 62
1, 333532, Control_c, 0, 64, 65
1, 333547, Control_c, 0, 64, 79
1, 333562, Control_c, 0, 64, 111
1, 333576, Control_c, 0, 64, 127
1, 333590, Note_off_c, 0, 69, 62
1, 333604, Note_off_c, 0, 66, 59
1, 333617, Note_on_c, 0, 60, 69
1, 333675, Note_off_c, 0, 60, 44
1, 333767, Note_on_c, 0, 63, 55
1, 333780, Note_on_c, 0, 60, 46
1, 333783, Note_on_c, 0, 59, 48
1, 333827, Note_on_c, 0, 66, 67
1, 333838, Note_on_c, 0, 71, 93
1, 333853, Note_off_c, 0, 63, 48
1, 333868, Note_off_c, 0, 71, 65
1, 333868, Note_on_c, 0, 57, 71
1, 333877, Note_off_c, 0, 60, 58
1, 333888, Note_off_c, 0, 66, 61
1, 333970, Note_off_c, 0, 57, 59
1, 333976, Note_off_c, 0, 59, 37
1, 333986, Note_on_c, 0, 54, 64
1, 334077, Note_on_c, 0, 51, 68
1, 334105, Note_on_c, 0, 40, 65
1, 334107, Note_off_c, 0, 54, 32
1, 334149, Control_c, 0, 64, 89
1, 334151, Note_off_c, 0, 51, 61
1, 334160, Note_on_c, 0, 44, 78
1, 334163, Control_c, 0, 64, 62
1, 334178, Control_c, 0, 64, 0
1, 334185, Note_off_c, 0, 40, 62
1, 334220, Control_c, 0, 64, 59
1, 334229, Note_off_c, 0, 44, 63
1, 334235, Control_c, 0, 64, 75
1, 334238, Note_on_c, 0, 52, 78
1, 334250, Control_c, 0, 64, 115
1, 334265, Control_c, 0, 64, 127
1, 334354, Note_on_c, 0, 56, 81
1, 334355, Note_off_c, 0, 52, 48
1, 334466, Note_on_c, 0, 59, 77
1, 334476, Note_off_c, 0, 56, 59
1, 334607, Note_on_c, 0, 56, 66
1, 334607, Note_on_c, 0, 64, 79
1, 334614, Control_c, 0, 64, 98
1, 334622, Note_on_c, 0, 52, 52
1, 334628, Note_off_c, 0, 59, 59
1, 334628, Control_c, 0, 64, 68
1, 334643, Control_c, 0, 64, 41
1, 334658, Control_c, 0, 64, 0
1, 334688, Control_c, 0, 64, 53
1, 334694, Note_off_c, 0, 52, 60
1, 334703, Control_c, 0, 64, 67
1, 334708, Note_off_c, 0, 64, 60
1, 334718, Control_c, 0, 64, 86
1, 334727, Note_on_c, 0, 68, 83
1, 334731, Note_on_c, 0, 78, 84
1, 334733, Control_c, 0, 64, 127
1, 334789, Note_off_c, 0, 78, 64
1, 334798, Note_off_c, 0, 68, 63
1, 334845, Note_on_c, 0, 76, 89
1, 334927, Note_off_c, 0, 56, 50
1, 334960, Note_on_c, 0, 75, 73
1, 334974, Note_on_c, 0, 69, 66
1, 334989, Note_on_c, 0, 53, 31
1, 334989, Note_off_c, 0, 76, 58
1, 335004, Note_on_c, 0, 60, 39
1, 335015, Control_c, 0, 64, 114
1, 335029, Control_c, 0, 64, 73
1, 335033, Note_off_c, 0, 75, 62
1, 335037, Note_off_c, 0, 53, 57
1, 335037, Note_off_c, 0, 69, 62
1, 335040, Note_off_c, 0, 60, 57
1, 335044, Control_c, 0, 64, 38
1, 335059, Control_c, 0, 64, 0
1, 335083, Note_on_c, 0, 74, 69
1, 335087, Note_on_c, 0, 54, 50
1, 335171, Note_off_c, 0, 54, 63
1, 335217, Note_on_c, 0, 65, 57
1, 335250, Note_on_c, 0, 55, 39
1, 335251, Note_on_c, 0, 59, 27
1, 335260, Note_off_c, 0, 65, 60
1, 335305, Note_off_c, 0, 55, 61
1, 335374, Note_on_c, 0, 64, 44
1, 335383, Note_on_c, 0, 56, 34
1, 335441, Note_off_c, 0, 64, 45
1, 335452, Note_off_c, 0, 74, 52
1, 335457, Note_off_c, 0, 56, 49
1, 335470, Note_off_c, 0, 59, 35
1, 335493, Note_on_c, 0, 71, 46
1, 335497, Control_c, 0, 64, 43
1, 335503, Note_on_c, 0, 68, 38
1, 335512, Control_c, 0, 64, 62
1, 335526, Control_c, 0, 64, 68
1, 335541, Control_c, 0, 64, 72
1, 335556, Control_c, 0, 64, 76
1, 335570, Control_c, 0, 64, 81
1, 335585, Control_c, 0, 64, 87
1, 335594, Poly_aftertouch_c, 0, 62, 0
1, 335600, Control_c, 0, 64, 96
1, 335615, Control_c, 0, 64, 113
1, 335630, Control_c, 0, 64, 127
1, 335645, Note_on_c, 0, 73, 58
1, 335651, Note_off_c, 0, 68, 0
1, 335651, Poly_aftertouch_c, 0, 56, 127
1, 335663, Note_on_c, 0, 64, 33
1, 335673, Note_off_c, 0, 71, 36
1, 335678, Note_off_c, 0, 73, 65
1, 335690, Poly_aftertouch_c, 0, 56, 0
1, 335695, Note_off_c, 0, 64, 49
1, 335717, Poly_aftertouch_c, 0, 68, 0
1, 335830, Note_on_c, 0, 45, 35
1, 335852, Control_c, 0, 64, 89
1, 335867, Control_c, 0, 64, 69
1, 335876, Note_on_c, 0, 52, 22
1, 335882, Control_c, 0, 64, 52
1, 335889, Note_off_c, 0, 45, 40
1, 335904, Control_c, 0, 64, 39
1, 335907, Note_on_c, 0, 57, 33
1, 335919, Control_c, 0, 64, 43
1, 335924, Note_on_c, 0, 69, 39
1, 335928, Note_on_c, 0, 61, 28
1, 335934, Control_c, 0, 64, 52
1, 335949, Control_c, 0, 64, 60
1, 335964, Control_c, 0, 64, 68
1, 335978, Control_c, 0, 64, 77
1, 335993, Control_c, 0, 64, 92
1, 336003, Note_off_c, 0, 61, 40
1, 336005, Note_off_c, 0, 52, 39
1, 336008, Control_c, 0, 64, 127
1, 336035, Note_off_c, 0, 57, 40
1, 336089, Note_on_c, 0, 71, 44
1, 336098, Note_off_c, 0, 69, 32
1, 336164, Note_off_c, 0, 71, 49
1, 336197, Note_on_c, 0, 69, 41
1, 336294, Note_on_c, 0, 57, 40
1, 336319, Note_on_c, 0, 61, 28
1, 336329, Note_on_c, 0, 64, 30
1, 336340, Note_on_c, 0, 68, 48
1, 336367, Note_off_c, 0, 64, 59
1, 336388, Note_off_c, 0, 57, 53
1, 336390, Note_off_c, 0, 69, 27
1, 336403, Note_off_c, 0, 68, 57
1, 336444, Note_off_c, 0, 61, 36
1, 336448, Note_on_c, 0, 69, 42
1, 336510, Note_off_c, 0, 69, 58
1, 336536, Note_on_c, 0, 71, 60
1, 336569, Note_off_c, 0, 71, 64
1, 336578, Note_on_c, 0, 73, 61
1, 336623, Note_off_c, 0, 73, 53
1, 336626, Note_on_c, 0, 74, 65
1, 336652, Control_c, 0, 64, 113
1, 336667, Control_c, 0, 64, 81
1, 336682, Control_c, 0, 64, 62
1, 336697, Control_c, 0, 64, 0
1, 336714, Note_off_c, 0, 74, 59
1, 336718, Note_on_c, 0, 45, 32
1, 336738, Note_on_c, 0, 73, 56
1, 336743, Note_on_c, 0, 64, 23
1, 336771, Control_c, 0, 64, 56
1, 336786, Control_c, 0, 64, 68
1, 336795, Note_off_c, 0, 45, 59
1, 336796, Poly_aftertouch_c, 0, 69, 127
1, 336800, Control_c, 0, 64, 79
1, 336815, Control_c, 0, 64, 97
1, 336831, Control_c, 0, 64, 120
1, 336832, Note_off_c, 0, 64, 33
1, 336844, Note_off_c, 0, 73, 54
1, 336846, Control_c, 0, 64, 127
1, 336870, Note_on_c, 0, 72, 57
1, 336881, Poly_aftertouch_c, 0, 69, 0
1, 336968, Note_off_c, 0, 72, 58
1, 336973, Note_on_c, 0, 74, 64
1, 337094, Note_on_c, 0, 73, 65
1, 337110, Note_on_c, 0, 61, 20
1, 337111, Note_on_c, 0, 52, 20
1, 337151, Note_off_c, 0, 61, 40
1, 337151, Poly_aftertouch_c, 0, 57, 127
1, 337158, Note_off_c, 0, 52, 46
1, 337158, Note_off_c, 0, 74, 36
1, 337200, Poly_aftertouch_c, 0, 57, 0
1, 337201, Control_c, 0, 67, 20
1, 337210, Note_on_c, 0, 71, 60
1, 337216, Control_c, 0, 67, 27
1, 337231, Control_c, 0, 67, 34
1, 337246, Control_c, 0, 67, 42
1, 337257, Note_off_c, 0, 73, 35
1, 337261, Control_c, 0, 67, 52
1, 337275, Control_c, 0, 67, 63
1, 337290, Control_c, 0, 67, 76
1, 337294, Note_off_c, 0, 71, 56
1, 337305, Control_c, 0, 67, 90
1, 337319, Note_on_c, 0, 69, 53
1, 337320, Control_c, 0, 67, 104
1, 337335, Control_c, 0, 67, 118
1, 337349, Control_c, 0, 67, 127
1, 337364, Control_c, 0, 64, 101
1, 337379, Control_c, 0, 64, 73
1, 337401, Note_off_c, 0, 69, 58
1, 337401, Control_c, 0, 64, 51
1, 337416, Control_c, 0, 64, 0
1, 337432, Note_on_c, 0, 38, 43
1, 337458, Note_on_c, 0, 68, 56
1, 337460, Control_c, 0, 64, 57
1, 337467, Note_off_c, 0, 38, 59
1, 337475, Control_c, 0, 64, 68
1, 337490, Control_c, 0, 64, 79
1, 337497, Note_off_c, 0, 68, 63
1, 337505, Control_c, 0, 64, 101
1, 337520, Control_c, 0, 64, 127
1, 337566, Note_on_c, 0, 66, 54
1, 337612, Note_off_c, 0, 66, 58
1, 337675, Note_on_c, 0, 50, 31
1, 337708, Note_on_c, 0, 80, 54
1, 337713, Note_off_c, 0, 50, 51
1, 337743, Note_off_c, 0, 80, 52
1, 337764, Note_on_c, 0, 59, 43
1, 337851, Note_on_c, 0, 78, 50
1, 337875, Note_on_c, 0, 66, 37
1, 337881, Note_off_c, 0, 78, 66
1, 337928, Note_off_c, 0, 66, 43
1, 337961, Note_off_c, 0, 59, 18
1, 338006, Note_on_c, 0, 92, 47
1, 338069, Note_off_c, 0, 92, 49
1, 338122, Note_on_c, 0, 90, 42
1, 338238, Note_off_c, 0, 90, 61
1, 338296, Note_on_c, 0, 97, 56
1, 338458, Note_off_c, 0, 97, 35
1, 338472, Note_on_c, 0, 95, 42
1, 338473, Note_on_c, 0, 50, 42
1, 338504, Note_off_c, 0, 50, 54
1, 338578, Note_on_c, 0, 59, 39
1, 338578, Note_on_c, 0, 90, 58
1, 338620, Note_off_c, 0, 95, 42
1, 338641, Note_off_c, 0, 59, 50
1, 338662, Note_off_c, 0, 90, 59
1, 338674, Note_on_c, 0, 85, 67
1, 338682, Note_on_c, 0, 66, 39
1, 338701, Note_off_c, 0, 85, 65
1, 338712, Note_off_c, 0, 66, 50
1, 338793, Note_on_c, 0, 83, 63
1, 338908, Note_on_c, 0, 81, 62
1, 338918, Note_on_c, 0, 78, 49
1, 338919, Note_off_c, 0, 83, 37
1, 338932, Note_off_c, 0, 81, 62
1, 338940, Note_off_c, 0, 78, 62
1, 338944, Control_c, 0, 64, 84
1, 338959, Control_c, 0, 64, 61
1, 338974, Control_c, 0, 64, 0
1, 338992, Note_on_c, 0, 40, 40
1, 339003, Control_c, 0, 64, 45
1, 339018, Control_c, 0, 64, 64
1, 339022, Note_off_c, 0, 40, 48
1, 339028, Note_on_c, 0, 81, 67
1, 339033, Control_c, 0, 64, 76
1, 339043, Note_on_c, 0, 71, 50
1, 339048, Control_c, 0, 64, 96
1, 339054, Note_on_c, 0, 74, 49
1, 339063, Control_c, 0, 64, 127
1, 339082, Note_off_c, 0, 71, 48
1, 339106, Note_off_c, 0, 81, 59
1, 339130, Note_on_c, 0, 80, 64
1, 339135, Note_off_c, 0, 74, 58
1, 339156, Note_off_c, 0, 80, 68
1, 339196, Note_on_c, 0, 52, 42
1, 339228, Note_off_c, 0, 52, 53
1, 339231, Note_on_c, 0, 59, 52
1, 339262, Note_off_c, 0, 59, 65
1, 339267, Note_on_c, 0, 80, 61
1, 339279, Note_on_c, 0, 90, 56
1, 339291, Note_off_c, 0, 80, 59
1, 339291, Note_on_c, 0, 62, 52
1, 339305, Note_off_c, 0, 90, 54
1, 339333, Note_off_c, 0, 62, 59
1, 339367, Note_on_c, 0, 68, 64
1, 339371, Note_on_c, 0, 88, 72
1, 339387, Note_off_c, 0, 68, 66
1, 339392, Note_off_c, 0, 88, 70
1, 339495, Note_on_c, 0, 85, 78
1, 339506, Note_on_c, 0, 74, 60
1, 339506, Note_on_c, 0, 80, 59
1, 339527, Note_off_c, 0, 74, 60
1, 339539, Note_off_c, 0, 80, 57
1, 339551, Note_off_c, 0, 85, 57
1, 339595, Note_on_c, 0, 83, 74
1, 339616, Note_off_c, 0, 83, 68
1, 339663, Control_c, 0, 64, 78
1, 339678, Control_c, 0, 64, 54
1, 339684, Note_on_c, 0, 40, 59
1, 339693, Control_c, 0, 64, 0
1, 339708, Control_c, 0, 64, 44
1, 339723, Control_c, 0, 64, 63
1, 339725, Note_on_c, 0, 81, 73
1, 339732, Note_off_c, 0, 40, 57
1, 339738, Control_c, 0, 64, 77
1, 339743, Note_on_c, 0, 71, 41
1, 339749, Note_on_c, 0, 74, 37
1, 339752, Control_c, 0, 64, 110
1, 339767, Control_c, 0, 64, 127
1, 339771, Note_off_c, 0, 81, 47
1, 339772, Note_off_c, 0, 71, 55
1, 339780, Note_off_c, 0, 74, 52
1, 339816, Note_on_c, 0, 80, 74
1, 339844, Note_off_c, 0, 80, 64
1, 339946, Note_on_c, 0, 78, 61
1, 339949, Note_on_c, 0, 71, 60
1, 339950, Note_on_c, 0, 59, 51
1, 339964, Poly_aftertouch_c, 0, 52, 127
1, 339970, Note_on_c, 0, 68, 25
1, 339976, Note_off_c, 0, 78, 58
1, 339984, Note_off_c, 0, 71, 62
1, 339988, Note_off_c, 0, 59, 65
1, 339992, Note_on_c, 0, 62, 68
1, 339997, Poly_aftertouch_c, 0, 52, 0
1, 340008, Note_off_c, 0, 68, 46
1, 340039, Note_on_c, 0, 76, 79
1, 340039, Note_off_c, 0, 62, 60
1, 340061, Note_on_c, 0, 64, 58
1, 340070, Note_off_c, 0, 76, 58
1, 340082, Note_off_c, 0, 64, 63
1, 340149, Note_on_c, 0, 78, 67
1, 340164, Note_on_c, 0, 71, 55
1, 340201, Note_off_c, 0, 71, 60
1, 340206, Note_on_c, 0, 45, 46
1, 340236, Note_off_c, 0, 45, 53
1, 340257, Control_c, 0, 64, 117
1, 340258, Note_on_c, 0, 80, 75
1, 340262, Note_on_c, 0, 52, 56
1, 340272, Control_c, 0, 64, 74
1, 340287, Control_c, 0, 64, 52
1, 340294, Note_off_c, 0, 78, 62
1, 340294, Note_off_c, 0, 80, 56
1, 340299, Note_off_c, 0, 52, 65
1, 340301, Control_c, 0, 64, 0
1, 340316, Control_c, 0, 64, 53
1, 340331, Control_c, 0, 64, 68
1, 340346, Control_c, 0, 64, 87
1, 340361, Control_c, 0, 64, 127
1, 340361, Control_c, 0, 67, 96
1, 340367, Note_on_c, 0, 81, 82
1, 340375, Note_on_c, 0, 73, 64
1, 340376, Control_c, 0, 67, 56
1, 340398, Control_c, 0, 67, 0
1, 340407, Note_off_c, 0, 73, 65
1, 340415, Note_off_c, 0, 81, 61
1, 340478, Note_on_c, 0, 85, 85
1, 340480, Note_on_c, 0, 73, 76
1, 340480, Note_on_c, 0, 76, 80
1, 340509, Note_on_c, 0, 69, 48
1, 340518, Note_off_c, 0, 76, 57
1, 340525, Note_off_c, 0, 73, 61
1, 340549, Note_off_c, 0, 69, 62
1, 340568, Note_on_c, 0, 81, 83
1, 340569, Note_off_c, 0, 85, 0
1, 340572, Note_on_c, 0, 88, 86
1, 340588, Note_off_c, 0, 81, 70
1, 340592, Note_on_c, 0, 61, 63
1, 340609, Poly_aftertouch_c, 0, 85, 0
1, 340611, Note_off_c, 0, 88, 65
1, 340623, Note_off_c, 0, 61, 66
1, 340645, Note_on_c, 0, 69, 62
1, 340670, Note_on_c, 0, 76, 79
1, 340677, Note_on_c, 0, 93, 92
1, 340686, Note_off_c, 0, 76, 68
1, 340689, Note_on_c, 0, 85, 82
1, 340704, Note_off_c, 0, 85, 71
1, 340714, Note_off_c, 0, 69, 56
1, 340727, Note_off_c, 0, 93, 67
1, 340772, Note_on_c, 0, 88, 73
1, 340774, Note_on_c, 0, 97, 97
1, 340794, Note_off_c, 0, 88, 70
1, 340825, Note_off_c, 0, 97, 67
1, 340859, Control_c, 0, 67, 19
1, 340871, Note_on_c, 0, 44, 61
1, 340879, Note_on_c, 0, 100, 98
1, 340886, Note_on_c, 0, 93, 85
1, 340888, Control_c, 0, 67, 21
1, 340917, Control_c, 0, 67, 24
1, 340932, Control_c, 0, 67, 28
1, 340945, Note_on_c, 0, 52, 58
1, 340947, Control_c, 0, 64, 87
1, 340947, Control_c, 0, 67, 32
1, 340960, Note_off_c, 0, 44, 64
1, 340961, Control_c, 0, 64, 63
1, 340961, Control_c, 0, 67, 36
1, 340962, Note_off_c, 0, 100, 69
1, 340968, Note_off_c, 0, 93, 65
1, 340976, Control_c, 0, 64, 44
1, 340976, Control_c, 0, 67, 39
1, 340981, Note_off_c, 0, 52, 65
1, 340990, Control_c, 0, 64, 58
1, 340990, Control_c, 0, 67, 41
1, 340995, Note_on_c, 0, 56, 60
1, 341005, Control_c, 0, 64, 71
1, 341005, Control_c, 0, 67, 42
1, 341009, Poly_aftertouch_c, 0, 100, 0
1, 341014, Note_on_c, 0, 100, 96
1, 341016, Note_on_c, 0, 95, 95
1, 341017, Note_off_c, 0, 56, 59
1, 341020, Control_c, 0, 64, 96
1, 341035, Control_c, 0, 64, 127
1, 341035, Control_c, 0, 67, 43
1, 341050, Control_c, 0, 67, 42
1, 341079, Control_c, 0, 67, 41
1, 341094, Control_c, 0, 67, 40
1, 341109, Control_c, 0, 67, 38
1, 341124, Control_c, 0, 67, 37
1, 341130, Note_off_c, 0, 100, 67
1, 341146, Control_c, 0, 67, 36
1, 341161, Control_c, 0, 67, 36
1, 341162, Note_on_c, 0, 88, 86
1, 341169, Note_off_c, 0, 95, 59
1, 341176, Control_c, 0, 67, 35
1, 341177, Note_on_c, 0, 64, 57
1, 341186, Note_on_c, 0, 71, 69
1, 341188, Note_on_c, 0, 76, 65
1, 341191, Control_c, 0, 67, 34
1, 341204, Note_off_c, 0, 76, 65
1, 341205, Control_c, 0, 67, 33
1, 341208, Note_off_c, 0, 88, 66
1, 341218, Note_off_c, 0, 71, 66
1, 341225, Note_off_c, 0, 64, 60
1, 341235, Control_c, 0, 67, 27
1, 341250, Control_c, 0, 67, 0
1, 341252, Note_on_c, 0, 95, 103
1, 341263, Note_on_c, 0, 88, 94
1, 341297, Note_on_c, 0, 93, 32
1, 341297, Note_off_c, 0, 93, 127
1, 341350, Note_off_c, 0, 95, 65
1, 341359, Note_on_c, 0, 83, 95
1, 341374, Note_off_c, 0, 88, 62
1, 341409, Note_off_c, 0, 83, 66
1, 341416, Note_on_c, 0, 59, 60
1, 341425, Note_on_c, 0, 68, 66
1, 341426, Note_on_c, 0, 71, 46
1, 341452, Note_off_c, 0, 68, 67
1, 341455, Note_off_c, 0, 71, 56
1, 341458, Note_on_c, 0, 88, 101
1, 341464, Note_off_c, 0, 59, 62
1, 341476, Note_on_c, 0, 83, 70
1, 341501, Note_on_c, 0, 81, 38
1, 341510, Note_off_c, 0, 83, 54
1, 341534, Note_off_c, 0, 81, 53
1, 341553, Note_on_c, 0, 83, 55
1, 341565, Note_on_c, 0, 76, 79
1, 341596, Note_off_c, 0, 88, 57
1, 341640, Note_off_c, 0, 76, 57
1, 341651, Control_c, 0, 67, 23
1, 341666, Control_c, 0, 64, 77
1, 341666, Control_c, 0, 67, 29
1, 341678, Note_on_c, 0, 45, 61
1, 341679, Note_off_c, 0, 83, 63
1, 341681, Control_c, 0, 64, 49
1, 341681, Control_c, 0, 67, 39
1, 341695, Control_c, 0, 64, 0
1, 341695, Control_c, 0, 67, 57
1, 341710, Note_on_c, 0, 88, 89
1, 341710, Control_c, 0, 64, 35
1, 341710, Control_c, 0, 67, 80
1, 341722, Note_on_c, 0, 76, 78
1, 341725, Control_c, 0, 64, 60
1, 341725, Control_c, 0, 67, 102
1, 341729, Note_on_c, 0, 86, 74
1, 341739, Control_c, 0, 64, 74
1, 341739, Control_c, 0, 67, 127
1, 341742, Note_off_c, 0, 45, 64
1, 341754, Control_c, 0, 64, 104
1, 341769, Control_c, 0, 64, 127
1, 341821, Note_on_c, 0, 85, 85
1, 341852, Note_off_c, 0, 88, 64
1, 341854, Note_off_c, 0, 86, 63
1, 341885, Note_off_c, 0, 85, 64
1, 341912, Note_off_c, 0, 76, 32
1, 341920, Note_on_c, 0, 64, 55
1, 341930, Note_on_c, 0, 72, 61
1, 341938, Note_on_c, 0, 76, 75
1, 341939, Note_on_c, 0, 84, 88
1, 341940, Note_on_c, 0, 88, 89
1, 341985, Note_off_c, 0, 72, 62
1, 341985, Note_off_c, 0, 64, 63
1, 342000, Note_off_c, 0, 76, 53
1, 342037, Note_on_c, 0, 83, 86
1, 342041, Note_on_c, 0, 71, 79
1, 342048, Note_on_c, 0, 63, 64
1, 342059, Note_off_c, 0, 88, 63
1, 342062, Note_off_c, 0, 84, 62
1, 342063, Note_off_c, 0, 71, 68
1, 342075, Note_off_c, 0, 63, 67
1, 342090, Note_off_c, 0, 83, 65
1, 342148, Note_on_c, 0, 70, 77
1, 342152, Note_on_c, 0, 88, 97
1, 342160, Note_on_c, 0, 76, 79
1, 342160, Note_on_c, 0, 82, 87
1, 342173, Note_off_c, 0, 70, 63
1, 342174, Note_on_c, 0, 62, 33
1, 342208, Note_off_c, 0, 62, 49
1, 342209, Note_off_c, 0, 76, 61
1, 342215, Note_on_c, 0, 69, 66
1, 342226, Note_on_c, 0, 61, 65
1, 342229, Note_on_c, 0, 63, 3
1, 342241, Note_off_c, 0, 69, 68
1, 342251, Poly_aftertouch_c, 0, 83, 127
1, 342257, Note_off_c, 0, 61, 64
1, 342262, Note_on_c, 0, 81, 101
1, 342266, Note_off_c, 0, 63, 52
1, 342275, Note_off_c, 0, 82, 34
1, 342287, Poly_aftertouch_c, 0, 83, 0
1, 342322, Note_off_c, 0, 88, 56
1, 342335, Note_on_c, 0, 52, 63
1, 342344, Note_off_c, 0, 81, 58
1, 342357, Note_off_c, 0, 52, 60
1, 342399, Control_c, 0, 64, 83
1, 342415, Control_c, 0, 64, 60
1, 342429, Control_c, 0, 64, 0
1, 342432, Note_on_c, 0, 88, 86
1, 342442, Note_on_c, 0, 76, 75
1, 342446, Note_on_c, 0, 81, 71
1, 342449, Note_on_c, 0, 69, 60
1, 342467, Note_off_c, 0, 81, 66
1, 342489, Control_c, 0, 64, 50
1, 342504, Control_c, 0, 64, 65
1, 342518, Control_c, 0, 64, 74
1, 342533, Control_c, 0, 64, 85
1, 342548, Control_c, 0, 64, 94
1, 342558, Note_off_c, 0, 69, 58
1, 342562, Control_c, 0, 64, 97
1, 342565, Note_on_c, 0, 60, 47
1, 342577, Control_c, 0, 64, 99
1, 342578, Note_off_c, 0, 76, 37
1, 342586, Note_on_c, 0, 68, 58
1, 342587, Note_on_c, 0, 80, 75
1, 342607, Control_c, 0, 64, 102
1, 342614, Note_off_c, 0, 88, 59
1, 342623, Note_off_c, 0, 80, 53
1, 342694, Note_off_c, 0, 60, 56
1, 342716, Note_off_c, 0, 68, 57
1, 342718, Control_c, 0, 64, 96
1, 342733, Control_c, 0, 64, 84
1, 342748, Control_c, 0, 64, 71
1, 342754, Note_on_c, 0, 61, 44
1, 342762, Control_c, 0, 64, 58
1, 342777, Control_c, 0, 64, 0
1, 342799, Note_on_c, 0, 69, 23
1, 342816, Note_on_c, 0, 88, 58
1, 342829, Note_on_c, 0, 76, 43
1, 342831, Note_off_c, 0, 61, 61
1, 342836, Note_on_c, 0, 81, 41
1, 342851, Control_c, 0, 64, 43
1, 342866, Control_c, 0, 64, 61
1, 342881, Control_c, 0, 64, 75
1, 342895, Control_c, 0, 64, 89
1, 342910, Control_c, 0, 64, 108
1, 342925, Control_c, 0, 64, 127
1, 342980, Note_off_c, 0, 76, 57
1, 343046, Note_off_c, 0, 69, 40
1, 343081, Note_on_c, 0, 73, 41
1, 343100, Note_on_c, 0, 64, 24
1, 343109, Note_on_c, 0, 85, 60
1, 343139, Note_off_c, 0, 81, 40
1, 343141, Note_off_c, 0, 64, 49
1, 343158, Note_off_c, 0, 88, 33
1, 343165, Note_off_c, 0, 73, 62
1, 343212, Note_off_c, 0, 85, 55
1, 343371, Control_c, 0, 64, 97
1, 343393, Control_c, 0, 64, 77
1, 343408, Control_c, 0, 64, 63
1, 343423, Control_c, 0, 64, 38
1, 343429, Note_on_c, 0, 63, 42
1, 343438, Control_c, 0, 64, 0
1, 343447, Note_on_c, 0, 72, 28
1, 343461, Note_on_c, 0, 88, 55
1, 343473, Note_on_c, 0, 76, 37
1, 343482, Control_c, 0, 64, 39
1, 343488, Note_off_c, 0, 63, 58
1, 343496, Note_off_c, 0, 72, 58
1, 343497, Control_c, 0, 64, 55
1, 343509, Poly_aftertouch_c, 0, 68, 127
1, 343512, Control_c, 0, 64, 65
1, 343526, Control_c, 0, 64, 73
1, 343541, Control_c, 0, 64, 81
1, 343556, Control_c, 0, 64, 87
1, 343571, Control_c, 0, 64, 90
1, 343586, Control_c, 0, 64, 92
1, 343587, Poly_aftertouch_c, 0, 68, 0
1, 343601, Control_c, 0, 64, 92
1, 343633, Note_on_c, 0, 62, 25
1, 343646, Control_c, 0, 64, 93
1, 343653, Note_on_c, 0, 71, 26
1, 343655, Note_on_c, 0, 83, 44
1, 343659, Note_off_c, 0, 76, 39
1, 343673, Note_off_c, 0, 62, 51
1, 343675, Control_c, 0, 64, 93
1, 343676, Note_off_c, 0, 88, 35
1, 343686, Note_off_c, 0, 83, 50
1, 343689, Note_off_c, 0, 71, 54
1, 343690, Control_c, 0, 64, 94
1, 343705, Control_c, 0, 64, 94
1, 343734, Control_c, 0, 64, 90
1, 343749, Control_c, 0, 64, 78
1, 343764, Control_c, 0, 64, 65
1, 343779, Control_c, 0, 64, 49
1, 343792, Note_on_c, 0, 57, 16
1, 343793, Control_c, 0, 64, 35
1, 343808, Control_c, 0, 64, 45
1, 343814, Note_on_c, 0, 64, 38
1, 343823, Control_c, 0, 64, 58
1, 343837, Control_c, 0, 64, 66
1, 343839, Note_off_c, 0, 57, 40
1, 343840, Note_off_c, 0, 64, 49
1, 343852, Control_c, 0, 64, 73
1, 343862, Note_on_c, 0, 88, 44
1, 343867, Control_c, 0, 64, 82
1, 343881, Note_on_c, 0, 69, 47
1, 343882, Control_c, 0, 64, 89
1, 343889, Note_off_c, 0, 88, 55
1, 343897, Control_c, 0, 64, 92
1, 343910, Note_off_c, 0, 69, 60
1, 343911, Control_c, 0, 64, 93
1, 343926, Control_c, 0, 64, 94
1, 343941, Control_c, 0, 64, 94
1, 343956, Control_c, 0, 64, 95
1, 343960, Note_on_c, 0, 69, 46
1, 343971, Control_c, 0, 64, 96
1, 343986, Note_off_c, 0, 69, 56
1, 344016, Control_c, 0, 64, 99
1, 344043, Note_on_c, 0, 85, 62
1, 344076, Control_c, 0, 64, 91
1, 344090, Control_c, 0, 64, 77
1, 344105, Control_c, 0, 64, 64
1, 344120, Note_on_c, 0, 45, 47
1, 344120, Control_c, 0, 64, 49
1, 344125, Note_off_c, 0, 85, 58
1, 344142, Control_c, 0, 64, 48
1, 344155, Note_off_c, 0, 45, 53
1, 344157, Control_c, 0, 64, 55
1, 344172, Control_c, 0, 64, 63
1, 344178, Note_on_c, 0, 73, 65
1, 344187, Control_c, 0, 64, 71
1, 344202, Control_c, 0, 64, 81
1, 344203, Note_off_c, 0, 73, 69
1, 344206, Note_on_c, 0, 52, 6
1, 344216, Control_c, 0, 64, 91
1, 344231, Control_c, 0, 64, 97
1, 344246, Control_c, 0, 64, 102
1, 344254, Note_off_c, 0, 52, 50
1, 344261, Control_c, 0, 64, 104
1, 344265, Note_on_c, 0, 88, 66
1, 344275, Control_c, 0, 64, 106
1, 344289, Poly_aftertouch_c, 0, 61, 127
1, 344290, Control_c, 0, 64, 110
1, 344292, Note_off_c, 0, 88, 65
1, 344317, Poly_aftertouch_c, 0, 61, 0
1, 344320, Control_c, 0, 64, 112
1, 344335, Note_on_c, 0, 76, 65
1, 344352, Note_off_c, 0, 76, 64
1, 344364, Control_c, 0, 64, 106
1, 344379, Control_c, 0, 64, 93
1, 344394, Control_c, 0, 64, 81
1, 344409, Control_c, 0, 64, 71
1, 344415, Note_on_c, 0, 57, 48
1, 344424, Control_c, 0, 64, 63
1, 344436, Note_on_c, 0, 97, 72
1, 344439, Control_c, 0, 64, 52
1, 344447, Note_off_c, 0, 57, 61
1, 344453, Control_c, 0, 64, 40
1, 344458, Note_off_c, 0, 97, 68
1, 344468, Control_c, 0, 64, 0
1, 344495, Note_on_c, 0, 64, 49
1, 344572, Control_c, 0, 64, 53
1, 344587, Control_c, 0, 64, 72
1, 344590, Note_on_c, 0, 73, 54
1, 344597, Note_off_c, 0, 64, 62
1, 344598, Note_on_c, 0, 81, 56
1, 344598, Note_on_c, 0, 88, 58
1, 344599, Note_on_c, 0, 93, 57
1, 344602, Control_c, 0, 64, 92
1, 344611, Note_off_c, 0, 73, 61
1, 344616, Note_off_c, 0, 88, 63
1, 344616, Control_c, 0, 64, 127
1, 344619, Note_off_c, 0, 81, 61
1, 344619, Note_off_c, 0, 93, 62
1, 344631, Control_c, 0, 67, 101
1, 344646, Control_c, 0, 67, 60
1, 344660, Control_c, 0, 67, 22
1, 344675, Control_c, 0, 67, 0
1, 345454, Control_c, 0, 64, 83
1, 345469, Control_c, 0, 64, 56
1, 345483, Control_c, 0, 64, 0
1, 345649, Note_on_c, 0, 51, 80
1, 345744, Control_c, 0, 64, 51
1, 345759, Control_c, 0, 64, 63
1, 345774, Control_c, 0, 64, 70
1, 345788, Control_c, 0, 64, 78
1, 345803, Control_c, 0, 64, 91
1, 345818, Control_c, 0, 64, 127
1, 345828, Note_on_c, 0, 52, 87
1, 345877, Note_off_c, 0, 51, 59
1, 345959, Note_on_c, 0, 61, 86
1, 345962, Note_on_c, 0, 57, 76
1, 345981, Note_off_c, 0, 52, 58
1, 346067, Note_off_c, 0, 61, 62
1, 346068, Note_off_c, 0, 57, 55
1, 346111, Note_on_c, 0, 40, 47
1, 346144, Control_c, 0, 64, 87
1, 346159, Control_c, 0, 64, 63
1, 346167, Note_on_c, 0, 59, 75
1, 346173, Control_c, 0, 64, 0
1, 346188, Note_on_c, 0, 56, 53
1, 346222, Note_off_c, 0, 56, 63
1, 346234, Note_off_c, 0, 40, 63
1, 346247, Control_c, 0, 64, 52
1, 346262, Control_c, 0, 64, 71
1, 346277, Control_c, 0, 64, 103
1, 346292, Control_c, 0, 64, 127
1, 346304, Note_on_c, 0, 56, 78
1, 346328, Note_on_c, 0, 52, 62
1, 346340, Note_off_c, 0, 59, 60
1, 346373, Note_off_c, 0, 52, 56
1, 346428, Note_on_c, 0, 54, 70
1, 346433, Note_off_c, 0, 56, 59
1, 346433, Note_on_c, 0, 57, 68
1, 346532, Note_on_c, 0, 71, 67
1, 346534, Note_off_c, 0, 54, 61
1, 346535, Note_on_c, 0, 59, 68
1, 346536, Note_on_c, 0, 56, 72
1, 346543, Note_on_c, 0, 68, 55
1, 346559, Note_off_c, 0, 57, 61
1, 346560, Note_off_c, 0, 56, 68
1, 346573, Note_off_c, 0, 59, 60
1, 346578, Note_off_c, 0, 68, 64
1, 346580, Note_off_c, 0, 71, 60
1, 346653, Note_on_c, 0, 64, 58
1, 346655, Note_on_c, 0, 61, 72
1, 346656, Note_on_c, 0, 57, 67
1, 346661, Note_on_c, 0, 68, 48
1, 346672, Note_off_c, 0, 64, 63
1, 346692, Note_off_c, 0, 68, 54
1, 346737, Note_off_c, 0, 57, 0
1, 346739, Note_on_c, 0, 63, 75
1, 346744, Control_c, 0, 64, 95
1, 346749, Note_on_c, 0, 59, 69
1, 346759, Control_c, 0, 64, 67
1, 346773, Note_off_c, 0, 61, 60
1, 346774, Poly_aftertouch_c, 0, 57, 127
1, 346774, Control_c, 0, 64, 0
1, 346805, Poly_aftertouch_c, 0, 57, 0
1, 346823, Note_off_c, 0, 59, 54
1, 346853, Note_on_c, 0, 52, 63
1, 346861, Note_on_c, 0, 61, 65
1, 346862, Note_on_c, 0, 64, 64
1, 346897, Note_off_c, 0, 61, 63
1, 346898, Note_off_c, 0, 63, 61
1, 346907, Control_c, 0, 64, 52
1, 346916, Note_off_c, 0, 52, 63
1, 346922, Control_c, 0, 64, 66
1, 346929, Note_off_c, 0, 64, 62
1, 346937, Control_c, 0, 64, 76
1, 346951, Control_c, 0, 64, 94
1, 346966, Control_c, 0, 64, 127
1, 346968, Note_on_c, 0, 63, 71
1, 346976, Note_on_c, 0, 59, 61
1, 347005, Note_off_c, 0, 59, 67
1, 347014, Note_off_c, 0, 63, 59
1, 347071, Note_on_c, 0, 66, 75
1, 347079, Note_on_c, 0, 63, 51
1, 347116, Note_off_c, 0, 63, 63
1, 347143, Note_off_c, 0, 66, 62
1, 347145, Note_on_c, 0, 59, 22
1, 347181, Control_c, 0, 64, 79
1, 347191, Note_on_c, 0, 76, 70
1, 347193, Note_off_c, 0, 59, 54
1, 347196, Control_c, 0, 64, 56
1, 347201, Note_on_c, 0, 64, 70
1, 347210, Note_on_c, 0, 61, 68
1, 347212, Control_c, 0, 64, 0
1, 347224, Note_on_c, 0, 73, 34
1, 347253, Note_off_c, 0, 73, 50
1, 347253, Note_off_c, 0, 76, 63
1, 347256, Note_off_c, 0, 61, 60
1, 347256, Control_c, 0, 64, 53
1, 347271, Control_c, 0, 64, 68
1, 347285, Control_c, 0, 64, 79
1, 347299, Note_on_c, 0, 59, 76
1, 347300, Control_c, 0, 64, 98
1, 347305, Note_on_c, 0, 63, 68
1, 347315, Control_c, 0, 64, 127
1, 347317, Note_on_c, 0, 69, 59
1, 347336, Note_off_c, 0, 69, 63
1, 347366, Note_off_c, 0, 64, 35
1, 347401, Note_on_c, 0, 57, 79
1, 347402, Note_off_c, 0, 59, 40
1, 347412, Note_on_c, 0, 61, 68
1, 347422, Note_off_c, 0, 63, 60
1, 347442, Note_off_c, 0, 61, 63
1, 347464, Control_c, 0, 64, 95
1, 347472, Note_off_c, 0, 57, 63
1, 347479, Control_c, 0, 64, 65
1, 347493, Control_c, 0, 64, 0
1, 347528, Note_on_c, 0, 55, 66
1, 347528, Note_on_c, 0, 58, 68
1, 347530, Note_on_c, 0, 40, 58
1, 347566, Note_off_c, 0, 55, 62
1, 347608, Note_off_c, 0, 40, 61
1, 347623, Note_on_c, 0, 59, 53
1, 347631, Note_on_c, 0, 56, 66
1, 347641, Control_c, 0, 64, 62
1, 347655, Note_off_c, 0, 58, 26
1, 347656, Control_c, 0, 64, 74
1, 347662, Note_off_c, 0, 56, 63
1, 347671, Control_c, 0, 64, 95
1, 347685, Control_c, 0, 64, 127
1, 347729, Note_on_c, 0, 56, 75
1, 347730, Note_on_c, 0, 52, 63
1, 347752, Note_off_c, 0, 59, 56
1, 347763, Note_off_c, 0, 52, 65
1, 347768, Note_off_c, 0, 56, 62
1, 347855, Note_on_c, 0, 71, 58
1, 347858, Note_on_c, 0, 56, 71
1, 347861, Note_on_c, 0, 59, 63
1, 347867, Note_on_c, 0, 68, 51
1, 347883, Note_off_c, 0, 71, 64
1, 347890, Note_off_c, 0, 56, 65
1, 347891, Note_off_c, 0, 59, 70
1, 347899, Note_off_c, 0, 68, 60
1, 347954, Note_on_c, 0, 59, 76
1, 347955, Note_on_c, 0, 64, 72
1, 347974, Note_off_c, 0, 59, 71
1, 348001, Note_off_c, 0, 64, 60
1, 348065, Control_c, 0, 64, 107
1, 348070, Note_on_c, 0, 64, 57
1, 348075, Note_on_c, 0, 68, 75
1, 348080, Control_c, 0, 64, 70
1, 348095, Control_c, 0, 64, 0
1, 348103, Note_off_c, 0, 64, 63
1, 348106, Note_off_c, 0, 68, 60
1, 348154, Control_c, 0, 64, 37
1, 348169, Control_c, 0, 64, 63
1, 348172, Note_on_c, 0, 71, 77
1, 348176, Note_on_c, 0, 68, 72
1, 348183, Control_c, 0, 64, 74
1, 348192, Note_off_c, 0, 71, 71
1, 348198, Control_c, 0, 64, 92
1, 348203, Note_off_c, 0, 68, 67
1, 348213, Control_c, 0, 64, 127
1, 348278, Note_on_c, 0, 71, 67
1, 348284, Note_on_c, 0, 76, 74
1, 348301, Note_off_c, 0, 71, 69
1, 348308, Note_off_c, 0, 76, 69
1, 348376, Control_c, 0, 64, 87
1, 348376, Control_c, 0, 67, 23
1, 348385, Note_on_c, 0, 80, 69
1, 348391, Control_c, 0, 64, 64
1, 348391, Control_c, 0, 67, 35
1, 348406, Control_c, 0, 64, 0
1, 348406, Control_c, 0, 67, 51
1, 348413, Note_off_c, 0, 80, 65
1, 348421, Control_c, 0, 67, 74
1, 348435, Control_c, 0, 67, 100
1, 348448, Control_c, 0, 67, 127
1, 348488, Note_on_c, 0, 83, 42
1, 348502, Note_on_c, 0, 80, 61
1, 348522, Note_off_c, 0, 80, 65
1, 348525, Note_off_c, 0, 83, 66
1, 348597, Note_on_c, 0, 83, 58
1, 348606, Note_on_c, 0, 80, 53
1, 348633, Note_off_c, 0, 80, 62
1, 348633, Note_off_c, 0, 83, 66
1, 348678, Control_c, 0, 64, 56
1, 348693, Control_c, 0, 64, 65
1, 348707, Control_c, 0, 64, 72
1, 348710, Note_on_c, 0, 83, 54
1, 348719, Note_on_c, 0, 80, 51
1, 348722, Control_c, 0, 64, 79
1, 348737, Control_c, 0, 64, 86
1, 348740, Note_off_c, 0, 83, 67
1, 348741, Note_off_c, 0, 80, 62
1, 348752, Control_c, 0, 64, 94
1, 348767, Control_c, 0, 64, 106
1, 348777, Note_on_c, 0, 51, 41
1, 348782, Control_c, 0, 64, 127
1, 348821, Note_off_c, 0, 51, 61
1, 348854, Note_on_c, 0, 83, 64
1, 348867, Note_on_c, 0, 80, 41
1, 348883, Note_off_c, 0, 83, 65
1, 348895, Note_off_c, 0, 80, 56
1, 348966, Note_on_c, 0, 80, 69
1, 348974, Note_on_c, 0, 83, 69
1, 348979, Note_on_c, 0, 71, 58
1, 348981, Note_on_c, 0, 59, 50
1, 348992, Note_off_c, 0, 80, 66
1, 348996, Note_on_c, 0, 66, 47
1, 348998, Note_off_c, 0, 83, 69
1, 349003, Note_off_c, 0, 71, 54
1, 349012, Note_off_c, 0, 59, 52
1, 349026, Note_off_c, 0, 66, 57
1, 349050, Control_c, 0, 64, 96
1, 349064, Control_c, 0, 64, 65
1, 349070, Note_on_c, 0, 83, 72
1, 349071, Note_on_c, 0, 80, 70
1, 349079, Control_c, 0, 64, 0
1, 349095, Note_off_c, 0, 80, 69
1, 349096, Note_off_c, 0, 83, 66
1, 349137, Note_on_c, 0, 71, 53
1, 349144, Note_on_c, 0, 59, 42
1, 349144, Note_on_c, 0, 66, 52
1, 349153, Control_c, 0, 67, 118
1, 349165, Note_on_c, 0, 80, 70
1, 349168, Note_on_c, 0, 83, 73
1, 349168, Control_c, 0, 64, 58
1, 349168, Control_c, 0, 67, 58
1, 349169, Note_off_c, 0, 71, 58
1, 349177, Note_off_c, 0, 59, 54
1, 349183, Control_c, 0, 64, 69
1, 349183, Control_c, 0, 67, 0
1, 349185, Note_off_c, 0, 66, 61
1, 349198, Control_c, 0, 64, 78
1, 349201, Note_off_c, 0, 80, 59
1, 349212, Control_c, 0, 64, 89
1, 349217, Note_off_c, 0, 83, 63
1, 349227, Control_c, 0, 64, 98
1, 349242, Control_c, 0, 64, 104
1, 349256, Control_c, 0, 64, 112
1, 349262, Note_on_c, 0, 81, 79
1, 349262, Note_on_c, 0, 85, 75
1, 349271, Control_c, 0, 64, 127
1, 349274, Note_on_c, 0, 71, 54
1, 349274, Note_on_c, 0, 59, 41
1, 349289, Note_on_c, 0, 66, 47
1, 349295, Note_off_c, 0, 71, 60
1, 349306, Note_off_c, 0, 59, 51
1, 349311, Note_off_c, 0, 81, 62
1, 349318, Note_off_c, 0, 66, 53
1, 349359, Note_on_c, 0, 80, 80
1, 349360, Note_on_c, 0, 83, 67
1, 349372, Note_off_c, 0, 85, 52
1, 349398, Note_off_c, 0, 83, 63
1, 349418, Note_off_c, 0, 80, 63
1, 349427, Control_c, 0, 64, 87
1, 349442, Control_c, 0, 64, 64
1, 349450, Note_on_c, 0, 59, 35
1, 349456, Control_c, 0, 64, 0
1, 349463, Note_on_c, 0, 70, 40
1, 349468, Note_on_c, 0, 66, 22
1, 349477, Note_on_c, 0, 82, 79
1, 349506, Note_off_c, 0, 70, 65
1, 349507, Note_on_c, 0, 79, 46
1, 349512, Note_off_c, 0, 66, 52
1, 349516, Control_c, 0, 64, 51
1, 349530, Control_c, 0, 64, 66
1, 349539, Note_off_c, 0, 79, 56
1, 349542, Note_off_c, 0, 82, 57
1, 349545, Control_c, 0, 64, 77
1, 349554, Note_off_c, 0, 59, 42
1, 349560, Control_c, 0, 64, 99
1, 349575, Control_c, 0, 64, 127
1, 349575, Note_on_c, 0, 80, 77
1, 349585, Note_on_c, 0, 83, 70
1, 349611, Note_on_c, 0, 71, 64
1, 349623, Note_on_c, 0, 66, 54
1, 349633, Note_off_c, 0, 80, 62
1, 349639, Note_off_c, 0, 71, 66
1, 349666, Note_off_c, 0, 66, 59
1, 349670, Note_on_c, 0, 82, 71
1, 349678, Note_on_c, 0, 79, 77
1, 349701, Note_off_c, 0, 83, 61
1, 349702, Note_off_c, 0, 79, 70
1, 349724, Note_off_c, 0, 82, 63
1, 349757, Note_on_c, 0, 69, 53
1, 349759, Note_on_c, 0, 66, 59
1, 349773, Note_on_c, 0, 81, 85
1, 349782, Note_on_c, 0, 78, 76
1, 349782, Note_off_c, 0, 69, 60
1, 349799, Note_off_c, 0, 66, 59
1, 349820, Poly_aftertouch_c, 0, 59, 127
1, 349829, Note_off_c, 0, 81, 62
1, 349833, Note_off_c, 0, 78, 62
1, 349862, Note_on_c, 0, 71, 66
1, 349871, Note_on_c, 0, 80, 84
1, 349874, Note_on_c, 0, 83, 77
1, 349880, Note_off_c, 0, 71, 64
1, 349883, Note_on_c, 0, 66, 32
1, 349902, Poly_aftertouch_c, 0, 59, 0
1, 349912, Note_off_c, 0, 66, 51
1, 349947, Control_c, 0, 64, 112
1, 349954, Note_on_c, 0, 81, 79
1, 349960, Note_on_c, 0, 78, 76
1, 349961, Control_c, 0, 64, 73
1, 349971, Note_off_c, 0, 80, 33
1, 349976, Control_c, 0, 64, 45
1, 349986, Note_on_c, 0, 52, 49
1, 349990, Note_off_c, 0, 83, 58
1, 349991, Control_c, 0, 64, 0
1, 350010, Note_off_c, 0, 52, 57
1, 350021, Note_on_c, 0, 59, 60
1, 350023, Note_off_c, 0, 78, 57
1, 350035, Control_c, 0, 64, 39
1, 350050, Control_c, 0, 64, 64
1, 350057, Note_on_c, 0, 80, 72
1, 350058, Note_off_c, 0, 59, 66
1, 350061, Note_off_c, 0, 81, 62
1, 350065, Control_c, 0, 64, 83
1, 350066, Note_on_c, 0, 76, 50
1, 350073, Note_off_c, 0, 80, 68
1, 350079, Note_on_c, 0, 68, 65
1, 350079, Control_c, 0, 64, 127
1, 350090, Note_off_c, 0, 76, 57
1, 350099, Note_off_c, 0, 68, 65
1, 350183, Note_on_c, 0, 92, 86
1, 350183, Note_on_c, 0, 95, 79
1, 350232, Note_off_c, 0, 92, 63
1, 350268, Note_on_c, 0, 93, 83
1, 350271, Note_on_c, 0, 90, 86
1, 350353, Note_on_c, 0, 92, 76
1, 350356, Note_off_c, 0, 95, 37
1, 350358, Note_on_c, 0, 71, 81
1, 350359, Note_on_c, 0, 88, 80
1, 350366, Note_off_c, 0, 90, 65
1, 350367, Note_off_c, 0, 93, 66
1, 350372, Note_on_c, 0, 64, 52
1, 350373, Note_on_c, 0, 68, 73
1, 350377, Note_off_c, 0, 71, 73
1, 350377, Note_off_c, 0, 92, 70
1, 350383, Note_off_c, 0, 88, 69
1, 350393, Note_off_c, 0, 68, 72
1, 350395, Note_off_c, 0, 64, 58
1, 350479, Note_on_c, 0, 83, 77
1, 350481, Note_on_c, 0, 80, 82
1, 350559, Note_on_c, 0, 81, 88
1, 350568, Note_on_c, 0, 78, 85
1, 350591, Note_off_c, 0, 83, 62
1, 350612, Note_off_c, 0, 80, 25
1, 350615, Note_off_c, 0, 81, 60
1, 350625, Note_off_c, 0, 78, 66
1, 350666, Note_on_c, 0, 76, 83
1, 350669, Note_on_c, 0, 80, 85
1, 350685, Note_off_c, 0, 76, 72
1, 350685, Note_off_c, 0, 80, 72
1, 350775, Note_on_c, 0, 68, 86
1, 350778, Note_on_c, 0, 71, 76
1, 350863, Note_on_c, 0, 69, 77
1, 350865, Note_on_c, 0, 66, 80
1, 350881, Control_c, 0, 64, 83
1, 350885, Note_off_c, 0, 68, 60
1, 350896, Control_c, 0, 64, 59
1, 350910, Control_c, 0, 64, 0
1, 350940, Control_c, 0, 64, 57
1, 350955, Control_c, 0, 64, 78
1, 350961, Note_on_c, 0, 68, 77
1, 350964, Note_off_c, 0, 71, 62
1, 350964, Note_on_c, 0, 64, 76
1, 350970, Note_off_c, 0, 66, 63
1, 350970, Control_c, 0, 64, 127
1, 350971, Note_off_c, 0, 69, 62
1, 350983, Note_off_c, 0, 68, 70
1, 350988, Note_off_c, 0, 64, 69
1, 351097, Note_on_c, 0, 52, 77
1, 351097, Note_on_c, 0, 56, 85
1, 351194, Note_on_c, 0, 54, 79
1, 351196, Note_on_c, 0, 57, 75
1, 351212, Note_off_c, 0, 56, 53
1, 351227, Note_off_c, 0, 52, 28
1, 351282, Control_c, 0, 64, 91
1, 351294, Note_on_c, 0, 40, 53
1, 351297, Control_c, 0, 64, 71
1, 351312, Control_c, 0, 64, 52
1, 351324, Note_off_c, 0, 54, 58
1, 351326, Control_c, 0, 64, 0
1, 351348, Note_on_c, 0, 59, 75
1, 351357, Note_on_c, 0, 56, 68
1, 351408, Note_off_c, 0, 57, 56
1, 351420, Note_off_c, 0, 56, 62
1, 351459, Control_c, 0, 64, 39
1, 351474, Control_c, 0, 64, 63
1, 351479, Note_off_c, 0, 40, 62
1, 351485, Note_on_c, 0, 56, 72
1, 351488, Control_c, 0, 64, 75
1, 351494, Note_on_c, 0, 52, 67
1, 351500, Note_off_c, 0, 59, 61
1, 351503, Control_c, 0, 64, 98
1, 351518, Control_c, 0, 64, 127
1, 351548, Note_off_c, 0, 52, 57
1, 351585, Note_on_c, 0, 57, 71
1, 351593, Note_on_c, 0, 54, 74
1, 351682, Note_on_c, 0, 59, 74
1, 351692, Note_off_c, 0, 56, 0
1, 351693, Note_off_c, 0, 54, 61
1, 351694, Note_on_c, 0, 71, 75
1, 351704, Note_on_c, 0, 68, 59
1, 351712, Note_off_c, 0, 57, 62
1, 351718, Note_off_c, 0, 59, 60
1, 351724, Note_off_c, 0, 71, 62
1, 351729, Poly_aftertouch_c, 0, 56, 127
1, 351734, Note_off_c, 0, 68, 66
1, 351767, Poly_aftertouch_c, 0, 56, 0
1, 351807, Note_on_c, 0, 57, 80
1, 351813, Note_on_c, 0, 61, 77
1, 351819, Note_on_c, 0, 64, 71
1, 351823, Note_on_c, 0, 68, 64
1, 351845, Note_off_c, 0, 68, 64
1, 351846, Note_off_c, 0, 64, 68
1, 351873, Note_off_c, 0, 57, 0
1, 351894, Note_on_c, 0, 63, 76
1, 351903, Note_on_c, 0, 59, 72
1, 351911, Poly_aftertouch_c, 0, 57, 127
1, 351925, Control_c, 0, 64, 85
1, 351926, Note_off_c, 0, 61, 59
1, 351940, Control_c, 0, 64, 61
1, 351955, Control_c, 0, 64, 0
1, 351972, Poly_aftertouch_c, 0, 57, 0
1, 351987, Note_off_c, 0, 59, 55
1, 352013, Note_on_c, 0, 61, 76
1, 352014, Note_on_c, 0, 64, 63
1, 352031, Note_on_c, 0, 52, 62
1, 352052, Note_off_c, 0, 63, 61
1, 352060, Control_c, 0, 64, 47
1, 352061, Note_off_c, 0, 61, 60
1, 352074, Control_c, 0, 64, 65
1, 352082, Note_off_c, 0, 52, 58
1, 352083, Note_off_c, 0, 64, 62
1, 352089, Control_c, 0, 64, 76
1, 352104, Control_c, 0, 64, 92
1, 352119, Control_c, 0, 64, 127
1, 352122, Note_on_c, 0, 63, 66
1, 352126, Note_on_c, 0, 59, 67
1, 352155, Note_off_c, 0, 59, 66
1, 352157, Note_off_c, 0, 63, 60
1, 352221, Note_on_c, 0, 66, 74
1, 352222, Note_on_c, 0, 63, 61
1, 352258, Note_off_c, 0, 63, 58
1, 352284, Note_off_c, 0, 66, 61
1, 352341, Control_c, 0, 64, 105
1, 352344, Note_on_c, 0, 64, 71
1, 352348, Note_on_c, 0, 61, 70
1, 352352, Note_on_c, 0, 77, 53
1, 352356, Control_c, 0, 64, 72
1, 352358, Note_on_c, 0, 76, 56
1, 352378, Control_c, 0, 64, 50
1, 352390, Note_off_c, 0, 77, 55
1, 352393, Control_c, 0, 64, 0
1, 352394, Note_off_c, 0, 76, 51
1, 352406, Note_off_c, 0, 61, 57
1, 352422, Control_c, 0, 64, 53
1, 352437, Control_c, 0, 64, 64
1, 352452, Control_c, 0, 64, 77
1, 352456, Note_on_c, 0, 59, 72
1, 352458, Note_on_c, 0, 63, 72
1, 352467, Control_c, 0, 64, 98
1, 352472, Note_on_c, 0, 73, 76
1, 352478, Note_on_c, 0, 69, 68
1, 352481, Control_c, 0, 64, 127
1, 352493, Note_off_c, 0, 73, 71
1, 352503, Note_off_c, 0, 69, 68
1, 352523, Note_off_c, 0, 59, 59
1, 352524, Note_off_c, 0, 64, 36
1, 352560, Note_on_c, 0, 61, 71
1, 352562, Note_on_c, 0, 57, 73
1, 352585, Note_off_c, 0, 63, 56
1, 352604, Note_off_c, 0, 61, 58
1, 352621, Note_off_c, 0, 57, 63
1, 352660, Control_c, 0, 64, 75
1, 352674, Control_c, 0, 64, 46
1, 352689, Control_c, 0, 64, 0
1, 352693, Note_on_c, 0, 58, 66
1, 352696, Note_on_c, 0, 40, 61
1, 352698, Note_on_c, 0, 55, 57
1, 352728, Note_off_c, 0, 55, 65
1, 352747, Note_off_c, 0, 58, 58
1, 352748, Control_c, 0, 64, 49
1, 352752, Note_off_c, 0, 40, 58
1, 352763, Control_c, 0, 64, 67
1, 352778, Control_c, 0, 64, 78
1, 352793, Control_c, 0, 64, 98
1, 352796, Note_on_c, 0, 56, 66
1, 352802, Note_on_c, 0, 59, 52
1, 352809, Control_c, 0, 64, 127
1, 352827, Note_off_c, 0, 56, 63
1, 352845, Note_off_c, 0, 59, 57
1, 352894, Note_on_c, 0, 52, 64
1, 352907, Note_on_c, 0, 56, 62
1, 352926, Note_off_c, 0, 52, 64
1, 352931, Note_off_c, 0, 56, 62
1, 353011, Note_on_c, 0, 56, 68
1, 353015, Note_on_c, 0, 59, 64
1, 353017, Note_on_c, 0, 71, 69
1, 353030, Note_on_c, 0, 68, 56
1, 353035, Note_off_c, 0, 71, 67
1, 353040, Note_off_c, 0, 56, 63
1, 353046, Note_off_c, 0, 59, 65
1, 353052, Note_off_c, 0, 68, 63
1, 353113, Note_on_c, 0, 59, 70
1, 353125, Note_on_c, 0, 64, 65
1, 353140, Note_off_c, 0, 59, 71
1, 353149, Note_off_c, 0, 64, 67
1, 353217, Control_c, 0, 64, 88
1, 353231, Control_c, 0, 64, 64
1, 353237, Note_on_c, 0, 68, 68
1, 353243, Note_on_c, 0, 64, 57
1, 353246, Control_c, 0, 64, 0
1, 353266, Note_off_c, 0, 68, 66
1, 353272, Note_off_c, 0, 64, 66
1, 353305, Control_c, 0, 64, 56
1, 353320, Control_c, 0, 64, 67
1, 353335, Control_c, 0, 64, 76
1, 353340, Note_on_c, 0, 71, 63
1, 353342, Note_on_c, 0, 68, 69
1, 353349, Control_c, 0, 64, 94
1, 353358, Note_off_c, 0, 71, 65
1, 353364, Control_c, 0, 64, 122
1, 353368, Note_off_c, 0, 68, 68
1, 353379, Control_c, 0, 64, 127
1, 353434, Note_on_c, 0, 71, 68
1, 353449, Note_on_c, 0, 76, 63
1, 353461, Note_off_c, 0, 71, 67
1, 353477, Note_off_c, 0, 76, 66
1, 353512, Control_c, 0, 67, 30
1, 353527, Control_c, 0, 64, 94
1, 353527, Control_c, 0, 67, 48
1, 353542, Control_c, 0, 64, 66
1, 353542, Control_c, 0, 67, 77
1, 353548, Note_on_c, 0, 76, 69
1, 353550, Note_on_c, 0, 80, 64
1, 353557, Control_c, 0, 64, 0
1, 353557, Control_c, 0, 67, 106
1, 353572, Note_off_c, 0, 76, 69
1, 353572, Control_c, 0, 67, 127
1, 353575, Note_off_c, 0, 80, 57
1, 353661, Note_on_c, 0, 83, 54
1, 353663, Note_on_c, 0, 80, 54
1, 353688, Note_off_c, 0, 80, 64
1, 353696, Note_off_c, 0, 83, 66
1, 353763, Note_on_c, 0, 83, 57
1, 353779, Note_on_c, 0, 80, 52
1, 353802, Note_off_c, 0, 80, 61
1, 353805, Note_off_c, 0, 83, 57
1, 353810, Control_c, 0, 64, 37
1, 353825, Control_c, 0, 64, 58
1, 353840, Control_c, 0, 64, 69
1, 353854, Control_c, 0, 64, 77
1, 353873, Note_on_c, 0, 83, 51
1, 353876, Control_c, 0, 64, 86
1, 353891, Control_c, 0, 64, 95
1, 353894, Note_on_c, 0, 80, 55
1, 353906, Control_c, 0, 64, 106
1, 353914, Note_off_c, 0, 80, 61
1, 353920, Note_off_c, 0, 83, 62
1, 353921, Control_c, 0, 64, 127
1, 353970, Note_on_c, 0, 51, 41
1, 354014, Note_off_c, 0, 51, 60
1, 354038, Note_on_c, 0, 83, 61
1, 354040, Note_on_c, 0, 80, 40
1, 354063, Note_off_c, 0, 83, 65
1, 354067, Note_off_c, 0, 80, 57
1, 354142, Note_on_c, 0, 80, 69
1, 354143, Note_on_c, 0, 83, 71
1, 354168, Note_on_c, 0, 71, 48
1, 354170, Note_on_c, 0, 59, 44
1, 354172, Note_off_c, 0, 80, 61
1, 354178, Note_off_c, 0, 83, 60
1, 354184, Note_on_c, 0, 66, 43
1, 354194, Note_off_c, 0, 71, 54
1, 354199, Note_off_c, 0, 59, 53
1, 354216, Note_off_c, 0, 66, 56
1, 354232, Control_c, 0, 67, 109
1, 354246, Control_c, 0, 67, 78
1, 354252, Note_on_c, 0, 83, 70
1, 354258, Note_on_c, 0, 80, 63
1, 354261, Control_c, 0, 67, 40
1, 354276, Control_c, 0, 67, 0
1, 354278, Note_off_c, 0, 80, 66
1, 354283, Note_off_c, 0, 83, 64
1, 354290, Control_c, 0, 64, 99
1, 354305, Control_c, 0, 64, 71
1, 354320, Control_c, 0, 64, 46
1, 354334, Note_on_c, 0, 66, 51
1, 354335, Control_c, 0, 64, 0
1, 354336, Note_on_c, 0, 71, 41
1, 354338, Note_on_c, 0, 59, 31
1, 354346, Note_on_c, 0, 83, 72
1, 354349, Note_on_c, 0, 80, 71
1, 354350, Control_c, 0, 64, 43
1, 354365, Note_off_c, 0, 71, 53
1, 354365, Control_c, 0, 64, 62
1, 354368, Note_off_c, 0, 59, 55
1, 354380, Control_c, 0, 64, 73
1, 354386, Note_off_c, 0, 80, 59
1, 354386, Note_off_c, 0, 66, 57
1, 354395, Control_c, 0, 64, 91
1, 354400, Note_off_c, 0, 83, 64
1, 354410, Control_c, 0, 64, 127
1, 354444, Note_on_c, 0, 81, 83
1, 354445, Note_on_c, 0, 85, 79
1, 354456, Note_on_c, 0, 71, 64
1, 354474, Note_on_c, 0, 59, 31
1, 354478, Note_off_c, 0, 71, 66
1, 354492, Note_off_c, 0, 81, 63
1, 354511, Note_off_c, 0, 59, 52
1, 354533, Note_on_c, 0, 83, 78
1, 354538, Note_on_c, 0, 80, 83
1, 354563, Note_off_c, 0, 85, 63
1, 354571, Poly_aftertouch_c, 0, 66, 0
1, 354580, Note_off_c, 0, 83, 63
1, 354590, Note_off_c, 0, 80, 62
1, 354625, Control_c, 0, 64, 107
1, 354633, Note_on_c, 0, 59, 52
1, 354640, Control_c, 0, 64, 70
1, 354655, Control_c, 0, 64, 46
1, 354656, Note_on_c, 0, 82, 75
1, 354660, Note_on_c, 0, 79, 75
1, 354662, Note_on_c, 0, 70, 42
1, 354670, Control_c, 0, 64, 0
1, 354681, Note_on_c, 0, 66, 34
1, 354699, Control_c, 0, 64, 39
1, 354702, Note_off_c, 0, 70, 65
1, 354713, Note_off_c, 0, 66, 55
1, 354714, Control_c, 0, 64, 59
1, 354714, Control_c, 0, 67, 21
1, 354719, Note_off_c, 0, 79, 62
1, 354723, Note_off_c, 0, 59, 50
1, 354729, Control_c, 0, 64, 72
1, 354729, Control_c, 0, 67, 25
1, 354744, Control_c, 0, 64, 90
1, 354744, Control_c, 0, 67, 32
1, 354758, Control_c, 0, 64, 127
1, 354758, Control_c, 0, 67, 44
1, 354764, Note_on_c, 0, 80, 79
1, 354773, Note_on_c, 0, 83, 61
1, 354773, Note_off_c, 0, 82, 0
1, 354773, Control_c, 0, 67, 63
1, 354788, Control_c, 0, 67, 77
1, 354803, Control_c, 0, 67, 87
1, 354806, Note_on_c, 0, 71, 65
1, 354809, Poly_aftertouch_c, 0, 82, 127
1, 354816, Note_off_c, 0, 80, 62
1, 354818, Control_c, 0, 67, 96
1, 354822, Note_on_c, 0, 66, 45
1, 354827, Note_on_c, 0, 59, 34
1, 354833, Control_c, 0, 67, 104
1, 354834, Note_off_c, 0, 71, 66
1, 354839, Poly_aftertouch_c, 0, 82, 0
1, 354848, Control_c, 0, 67, 110
1, 354854, Note_on_c, 0, 82, 55
1, 354855, Note_off_c, 0, 59, 57
1, 354863, Control_c, 0, 67, 114
1, 354870, Note_on_c, 0, 79, 77
1, 354878, Note_off_c, 0, 66, 47
1, 354881, Note_off_c, 0, 83, 61
1, 354893, Note_off_c, 0, 79, 71
1, 354911, Note_off_c, 0, 82, 64
1, 354951, Control_c, 0, 64, 98
1, 354961, Note_on_c, 0, 59, 43
1, 354964, Note_on_c, 0, 69, 56
1, 354966, Control_c, 0, 64, 72
1, 354967, Note_on_c, 0, 81, 79
1, 354972, Note_on_c, 0, 78, 74
1, 354981, Control_c, 0, 64, 49
1, 354986, Note_off_c, 0, 69, 58
1, 354988, Note_on_c, 0, 66, 37
1, 354988, Note_off_c, 0, 59, 56
1, 354995, Control_c, 0, 64, 0
1, 355010, Control_c, 0, 64, 37
1, 355015, Note_off_c, 0, 78, 57
1, 355018, Note_off_c, 0, 66, 53
1, 355022, Note_off_c, 0, 81, 62
1, 355025, Control_c, 0, 64, 61
1, 355040, Control_c, 0, 64, 74
1, 355055, Control_c, 0, 64, 90
1, 355065, Note_on_c, 0, 80, 78
1, 355069, Control_c, 0, 64, 107
1, 355077, Note_on_c, 0, 83, 64
1, 355083, Note_on_c, 0, 71, 61
1, 355084, Control_c, 0, 64, 112
1, 355099, Control_c, 0, 67, 112
1, 355102, Note_off_c, 0, 71, 63
1, 355120, Note_off_c, 0, 80, 58
1, 355139, Poly_aftertouch_c, 0, 59, 127
1, 355143, Control_c, 0, 64, 109
1, 355158, Note_on_c, 0, 81, 73
1, 355158, Control_c, 0, 64, 94
1, 355164, Note_on_c, 0, 78, 72
1, 355173, Control_c, 0, 64, 75
1, 355174, Poly_aftertouch_c, 0, 59, 0
1, 355188, Control_c, 0, 64, 58
1, 355203, Control_c, 0, 64, 0
1, 355203, Control_c, 0, 67, 110
1, 355207, Note_off_c, 0, 83, 53
1, 355212, Note_off_c, 0, 78, 58
1, 355216, Note_off_c, 0, 81, 62
1, 355232, Control_c, 0, 64, 46
1, 355232, Control_c, 0, 67, 108
1, 355247, Control_c, 0, 64, 65
1, 355259, Note_on_c, 0, 80, 68
1, 355262, Control_c, 0, 64, 78
1, 355262, Control_c, 0, 67, 106
1, 355268, Note_on_c, 0, 52, 45
1, 355277, Control_c, 0, 64, 104
1, 355277, Control_c, 0, 67, 103
1, 355279, Note_on_c, 0, 76, 48
1, 355283, Note_off_c, 0, 80, 67
1, 355292, Control_c, 0, 64, 127
1, 355292, Control_c, 0, 67, 97
1, 355301, Note_off_c, 0, 52, 54
1, 355304, Note_off_c, 0, 76, 56
1, 355307, Control_c, 0, 67, 81
1, 355322, Control_c, 0, 67, 55
1, 355337, Control_c, 0, 67, 29
1, 355351, Control_c, 0, 67, 0
1, 355401, Note_on_c, 0, 83, 81
1, 355405, Note_on_c, 0, 95, 68
1, 355408, Note_on_c, 0, 92, 68
1, 355419, Note_off_c, 0, 83, 71
1, 355420, Note_off_c, 0, 95, 65
1, 355424, Note_off_c, 0, 92, 67
1, 355434, Note_on_c, 0, 71, 49
1, 355435, Note_on_c, 0, 68, 58
1, 355459, Note_off_c, 0, 71, 59
1, 355474, Note_off_c, 0, 68, 46
1, 355501, Note_on_c, 0, 92, 71
1, 355502, Note_on_c, 0, 95, 62
1, 355507, Note_on_c, 0, 83, 79
1, 355520, Note_off_c, 0, 83, 71
1, 355520, Note_off_c, 0, 95, 63
1, 355527, Note_off_c, 0, 92, 68
1, 355575, Note_on_c, 0, 68, 64
1, 355585, Note_on_c, 0, 71, 34
1, 355588, Note_on_c, 0, 92, 82
1, 355592, Note_on_c, 0, 83, 72
1, 355594, Note_on_c, 0, 95, 70
1, 355603, Note_on_c, 0, 59, 11
1, 355609, Note_off_c, 0, 83, 68
1, 355616, Note_off_c, 0, 95, 69
1, 355618, Note_off_c, 0, 71, 51
1, 355623, Note_on_c, 0, 84, 44
1, 355632, Note_off_c, 0, 92, 66
1, 355636, Note_off_c, 0, 68, 59
1, 355650, Note_off_c, 0, 59, 53
1, 355653, Note_off_c, 0, 84, 54
1, 355689, Note_on_c, 0, 85, 91
1, 355689, Note_on_c, 0, 97, 88
1, 355697, Note_on_c, 0, 93, 71
1, 355700, Note_on_c, 0, 71, 54
1, 355706, Note_off_c, 0, 85, 73
1, 355706, Note_off_c, 0, 97, 71
1, 355712, Note_on_c, 0, 68, 43
1, 355720, Note_off_c, 0, 93, 68
1, 355721, Note_on_c, 0, 59, 43
1, 355721, Note_off_c, 0, 71, 62
1, 355735, Note_off_c, 0, 68, 59
1, 355748, Note_off_c, 0, 59, 55
1, 355783, Note_on_c, 0, 92, 83
1, 355787, Note_on_c, 0, 83, 84
1, 355794, Note_on_c, 0, 95, 67
1, 355803, Control_c, 0, 67, 21
1, 355811, Note_off_c, 0, 95, 67
1, 355814, Note_off_c, 0, 83, 59
1, 355817, Control_c, 0, 64, 89
1, 355817, Control_c, 0, 67, 26
1, 355829, Note_off_c, 0, 92, 66
1, 355832, Control_c, 0, 64, 61
1, 355832, Control_c, 0, 67, 35
1, 355847, Control_c, 0, 64, 0
1, 355847, Control_c, 0, 67, 51
1, 355862, Control_c, 0, 64, 43
1, 355862, Control_c, 0, 67, 73
1, 355866, Note_on_c, 0, 51, 67
1, 355876, Control_c, 0, 64, 62
1, 355876, Control_c, 0, 67, 96
1, 355885, Note_on_c, 0, 82, 88
1, 355888, Note_on_c, 0, 91, 80
1, 355888, Note_on_c, 0, 94, 80
1, 355891, Control_c, 0, 64, 76
1, 355891, Control_c, 0, 67, 120
1, 355901, Note_off_c, 0, 51, 66
1, 355906, Control_c, 0, 64, 110
1, 355906, Control_c, 0, 67, 127
1, 355921, Control_c, 0, 64, 127
1, 355927, Note_off_c, 0, 94, 63
1, 355932, Note_off_c, 0, 82, 62
1, 355934, Note_off_c, 0, 91, 63
1, 355991, Note_on_c, 0, 83, 82
1, 355998, Note_on_c, 0, 95, 69
1, 355999, Note_on_c, 0, 92, 72
1, 356013, Note_off_c, 0, 95, 64
1, 356016, Note_on_c, 0, 91, 37
1, 356020, Note_off_c, 0, 83, 60
1, 356025, Note_off_c, 0, 92, 67
1, 356040, Note_on_c, 0, 70, 65
1, 356044, Note_off_c, 0, 91, 49
1, 356051, Note_on_c, 0, 59, 50
1, 356057, Note_on_c, 0, 66, 46
1, 356076, Note_off_c, 0, 70, 61
1, 356080, Note_off_c, 0, 59, 55
1, 356091, Note_off_c, 0, 66, 49
1, 356095, Note_on_c, 0, 82, 78
1, 356095, Note_on_c, 0, 94, 79
1, 356106, Note_on_c, 0, 91, 66
1, 356124, Note_off_c, 0, 82, 68
1, 356130, Note_off_c, 0, 91, 66
1, 356145, Note_off_c, 0, 94, 63
1, 356182, Control_c, 0, 67, 99
1, 356197, Control_c, 0, 67, 27
1, 356208, Note_on_c, 0, 71, 57
1, 356210, Note_on_c, 0, 90, 74
1, 356210, Note_on_c, 0, 81, 79
1, 356212, Control_c, 0, 67, 0
1, 356214, Note_on_c, 0, 93, 74
1, 356220, Note_on_c, 0, 66, 43
1, 356226, Note_off_c, 0, 81, 68
1, 356233, Note_off_c, 0, 71, 60
1, 356238, Note_off_c, 0, 93, 70
1, 356249, Note_off_c, 0, 90, 59
1, 356259, Poly_aftertouch_c, 0, 59, 127
1, 356261, Note_off_c, 0, 66, 55
1, 356288, Poly_aftertouch_c, 0, 59, 0
1, 356313, Note_on_c, 0, 95, 80
1, 356317, Note_on_c, 0, 83, 85
1, 356317, Note_on_c, 0, 92, 81
1, 356326, Note_on_c, 0, 69, 60
1, 356332, Note_off_c, 0, 95, 71
1, 356339, Note_off_c, 0, 92, 70
1, 356342, Note_on_c, 0, 59, 34
1, 356343, Note_off_c, 0, 83, 60
1, 356344, Note_off_c, 0, 69, 64
1, 356372, Note_off_c, 0, 59, 53
1, 356417, Note_on_c, 0, 93, 84
1, 356419, Note_on_c, 0, 81, 79
1, 356423, Note_on_c, 0, 90, 74
1, 356443, Note_off_c, 0, 81, 57
1, 356460, Note_off_c, 0, 93, 59
1, 356461, Note_on_c, 0, 83, 28
1, 356464, Control_c, 0, 64, 75
1, 356478, Control_c, 0, 64, 45
1, 356479, Note_off_c, 0, 90, 60
1, 356493, Control_c, 0, 64, 0
1, 356494, Note_off_c, 0, 83, 47
1, 356516, Note_on_c, 0, 52, 83
1, 356523, Control_c, 0, 64, 54
1, 356532, Note_on_c, 0, 80, 86
1, 356538, Control_c, 0, 64, 75
1, 356538, Note_on_c, 0, 92, 84
1, 356541, Note_on_c, 0, 88, 67
1, 356549, Note_off_c, 0, 52, 64
1, 356553, Note_off_c, 0, 80, 68
1, 356553, Control_c, 0, 64, 127
1, 356567, Note_off_c, 0, 88, 68
1, 356577, Note_off_c, 0, 92, 58
1, 356655, Note_on_c, 0, 95, 71
1, 356657, Note_on_c, 0, 92, 73
1, 356658, Note_on_c, 0, 83, 77
1, 356671, Note_off_c, 0, 95, 67
1, 356673, Note_off_c, 0, 83, 70
1, 356682, Note_off_c, 0, 92, 68
1, 356690, Note_on_c, 0, 68, 76
1, 356703, Note_on_c, 0, 71, 49
1, 356727, Note_off_c, 0, 71, 59
1, 356750, Note_off_c, 0, 68, 37
1, 356756, Note_on_c, 0, 83, 81
1, 356756, Note_on_c, 0, 95, 71
1, 356757, Note_on_c, 0, 92, 75
1, 356777, Note_off_c, 0, 83, 66
1, 356779, Note_off_c, 0, 95, 66
1, 356783, Note_off_c, 0, 92, 65
1, 356860, Note_on_c, 0, 68, 69
1, 356861, Note_on_c, 0, 95, 72
1, 356871, Note_on_c, 0, 83, 89
1, 356872, Note_on_c, 0, 92, 78
1, 356878, Note_on_c, 0, 59, 41
1, 356888, Note_off_c, 0, 83, 72
1, 356891, Note_off_c, 0, 95, 68
1, 356902, Note_off_c, 0, 92, 62
1, 356905, Note_off_c, 0, 59, 56
1, 356923, Poly_aftertouch_c, 0, 71, 127
1, 356924, Note_off_c, 0, 68, 58
1, 356950, Poly_aftertouch_c, 0, 71, 0
1, 356966, Note_on_c, 0, 85, 94
1, 356968, Note_on_c, 0, 97, 90
1, 356977, Note_on_c, 0, 93, 70
1, 356986, Note_off_c, 0, 85, 66
1, 356995, Note_off_c, 0, 97, 63
1, 356997, Note_on_c, 0, 59, 53
1, 357001, Note_off_c, 0, 93, 68
1, 357006, Note_on_c, 0, 68, 41
1, 357030, Note_off_c, 0, 59, 64
1, 357038, Note_off_c, 0, 68, 49
1, 357069, Note_on_c, 0, 95, 82
1, 357070, Note_on_c, 0, 83, 88
1, 357074, Note_on_c, 0, 92, 79
1, 357109, Note_off_c, 0, 95, 61
1, 357113, Note_off_c, 0, 83, 63
1, 357127, Note_off_c, 0, 92, 61
1, 357153, Control_c, 0, 64, 106
1, 357168, Control_c, 0, 64, 70
1, 357179, Note_on_c, 0, 51, 82
1, 357183, Control_c, 0, 64, 40
1, 357191, Note_on_c, 0, 94, 83
1, 357194, Note_on_c, 0, 82, 85
1, 357194, Note_on_c, 0, 91, 82
1, 357197, Control_c, 0, 64, 0
1, 357212, Control_c, 0, 64, 53
1, 357224, Note_off_c, 0, 51, 57
1, 357227, Control_c, 0, 64, 72
1, 357237, Note_off_c, 0, 94, 66
1, 357239, Note_off_c, 0, 82, 62
1, 357242, Control_c, 0, 64, 95
1, 357257, Control_c, 0, 64, 127
1, 357259, Note_off_c, 0, 91, 59
1, 357307, Note_on_c, 0, 83, 85
1, 357313, Note_on_c, 0, 95, 71
1, 357316, Note_on_c, 0, 92, 71
1, 357339, Note_off_c, 0, 95, 65
1, 357345, Note_on_c, 0, 91, 23
1, 357353, Note_off_c, 0, 83, 63
1, 357364, Note_off_c, 0, 92, 58
1, 357373, Note_on_c, 0, 70, 63
1, 357385, Note_off_c, 0, 91, 53
1, 357395, Note_on_c, 0, 66, 40
1, 357406, Note_off_c, 0, 70, 63
1, 357423, Note_off_c, 0, 66, 54
1, 357431, Note_on_c, 0, 94, 83
1, 357433, Note_on_c, 0, 82, 80
1, 357456, Note_on_c, 0, 91, 52
1, 357476, Note_off_c, 0, 82, 62
1, 357477, Note_off_c, 0, 94, 65
1, 357478, Note_off_c, 0, 91, 61
1, 357552, Note_on_c, 0, 81, 84
1, 357555, Note_on_c, 0, 93, 80
1, 357556, Note_on_c, 0, 71, 60
1, 357561, Note_on_c, 0, 90, 72
1, 357574, Note_off_c, 0, 81, 57
1, 357576, Note_off_c, 0, 93, 67
1, 357578, Note_off_c, 0, 71, 65
1, 357587, Note_on_c, 0, 59, 4
1, 357587, Note_on_c, 0, 66, 33
1, 357617, Note_off_c, 0, 90, 60
1, 357628, Note_off_c, 0, 59, 0
1, 357629, Note_off_c, 0, 66, 50
1, 357686, Note_on_c, 0, 95, 90
1, 357687, Note_on_c, 0, 69, 65
1, 357689, Note_on_c, 0, 83, 87
1, 357699, Note_on_c, 0, 92, 70
1, 357707, Note_off_c, 0, 69, 66
1, 357708, Poly_aftertouch_c, 0, 59, 0
1, 357710, Note_on_c, 0, 66, 38
1, 357718, Note_off_c, 0, 92, 67
1, 357722, Note_off_c, 0, 95, 56
1, 357733, Note_off_c, 0, 83, 43
1, 357739, Note_off_c, 0, 66, 51
1, 357764, Poly_aftertouch_c, 0, 59, 0
1, 357824, Note_on_c, 0, 90, 55
1, 357838, Note_on_c, 0, 52, 60
1, 357873, Control_c, 0, 64, 85
1, 357887, Control_c, 0, 64, 61
1, 357902, Control_c, 0, 64, 0
1, 357912, Note_off_c, 0, 52, 60
1, 357916, Note_on_c, 0, 93, 43
1, 357936, Note_on_c, 0, 88, 69
1, 357946, Control_c, 0, 64, 39
1, 357961, Control_c, 0, 64, 62
1, 357964, Note_on_c, 0, 59, 47
1, 357967, Note_on_c, 0, 92, 49
1, 357976, Control_c, 0, 64, 78
1, 357990, Note_off_c, 0, 90, 25
1, 357990, Note_off_c, 0, 93, 65
1, 357991, Control_c, 0, 64, 127
1, 357993, Note_off_c, 0, 92, 55
1, 358002, Note_off_c, 0, 88, 62
1, 358049, Note_on_c, 0, 92, 86
1, 358055, Note_on_c, 0, 68, 88
1, 358062, Note_on_c, 0, 80, 83
1, 358064, Note_on_c, 0, 88, 59
1, 358076, Note_off_c, 0, 68, 69
1, 358096, Note_off_c, 0, 88, 66
1, 358097, Note_off_c, 0, 80, 61
1, 358106, Note_off_c, 0, 59, 59
1, 358109, Note_off_c, 0, 92, 66
1, 358398, Note_on_c, 0, 56, 78
1, 358482, Note_off_c, 0, 56, 52
1, 358510, Note_on_c, 0, 40, 56
1, 358528, Note_on_c, 0, 47, 48
1, 358547, Note_off_c, 0, 40, 60
1, 358563, Note_off_c, 0, 47, 65
1, 358606, Note_on_c, 0, 56, 78
1, 358692, Note_on_c, 0, 55, 81
1, 358780, Note_on_c, 0, 54, 87
1, 358831, Note_off_c, 0, 55, 61
1, 358866, Note_off_c, 0, 54, 59
1, 358866, Note_off_c, 0, 56, 0
1, 358872, Note_on_c, 0, 68, 78
1, 358877, Note_on_c, 0, 53, 85
1, 358880, Note_on_c, 0, 59, 65
1, 358895, Note_off_c, 0, 68, 68
1, 358914, Note_off_c, 0, 59, 66
1, 358938, Poly_aftertouch_c, 0, 56, 0
1, 358968, Note_off_c, 0, 53, 58
1, 358968, Note_on_c, 0, 52, 73
1, 358995, Note_off_c, 0, 52, 67
1, 359068, Note_on_c, 0, 59, 63
1, 359083, Note_on_c, 0, 56, 80
1, 359102, Note_on_c, 0, 58, 48
1, 359136, Note_off_c, 0, 59, 59
1, 359148, Note_off_c, 0, 58, 64
1, 359148, Control_c, 0, 64, 119
1, 359153, Note_off_c, 0, 56, 62
1, 359163, Control_c, 0, 64, 73
1, 359164, Note_on_c, 0, 40, 76
1, 359173, Note_on_c, 0, 47, 67
1, 359177, Control_c, 0, 64, 43
1, 359182, Note_on_c, 0, 55, 82
1, 359193, Control_c, 0, 64, 0
1, 359200, Note_off_c, 0, 40, 62
1, 359200, Note_on_c, 0, 57, 78
1, 359206, Note_off_c, 0, 47, 68
1, 359223, Control_c, 0, 64, 52
1, 359228, Note_off_c, 0, 55, 63
1, 359238, Control_c, 0, 64, 67
1, 359253, Control_c, 0, 64, 81
1, 359267, Control_c, 0, 64, 122
1, 359275, Note_on_c, 0, 54, 86
1, 359282, Control_c, 0, 64, 127
1, 359313, Note_on_c, 0, 56, 69
1, 359319, Note_off_c, 0, 57, 62
1, 359360, Note_off_c, 0, 54, 61
1, 359380, Note_on_c, 0, 53, 68
1, 359431, Note_off_c, 0, 53, 59
1, 359455, Note_off_c, 0, 56, 61
1, 359465, Note_on_c, 0, 74, 99
1, 359470, Note_on_c, 0, 71, 87
1, 359490, Note_on_c, 0, 64, 38
1, 359498, Note_off_c, 0, 74, 64
1, 359504, Control_c, 0, 64, 78
1, 359514, Note_on_c, 0, 59, 85
1, 359516, Note_off_c, 0, 64, 56
1, 359519, Control_c, 0, 64, 52
1, 359528, Note_on_c, 0, 62, 71
1, 359534, Control_c, 0, 64, 37
1, 359534, Note_off_c, 0, 71, 66
1, 359549, Control_c, 0, 64, 55
1, 359564, Control_c, 0, 64, 67
1, 359579, Control_c, 0, 64, 85
1, 359584, Note_on_c, 0, 61, 79
1, 359591, Note_off_c, 0, 59, 63
1, 359593, Control_c, 0, 64, 127
1, 359597, Note_on_c, 0, 58, 79
1, 359602, Note_off_c, 0, 62, 60
1, 359644, Note_off_c, 0, 61, 61
1, 359658, Note_off_c, 0, 58, 62
1, 359673, Note_on_c, 0, 57, 93
1, 359673, Note_on_c, 0, 60, 75
1, 359740, Note_on_c, 0, 59, 79
1, 359757, Note_off_c, 0, 57, 61
1, 359773, Note_on_c, 0, 55, 72
1, 359778, Note_off_c, 0, 60, 55
1, 359787, Note_on_c, 0, 56, 4
1, 359799, Note_off_c, 0, 55, 67
1, 359813, Note_off_c, 0, 59, 63
1, 359835, Note_on_c, 0, 66, 87
1, 359837, Note_off_c, 0, 56, 50
1, 359848, Note_on_c, 0, 62, 70
1, 359865, Note_off_c, 0, 66, 68
1, 359881, Control_c, 0, 64, 87
1, 359896, Control_c, 0, 64, 62
1, 359897, Note_off_c, 0, 62, 54
1, 359910, Control_c, 0, 64, 0
1, 359917, Note_on_c, 0, 64, 70
1, 359925, Note_on_c, 0, 61, 62
1, 359996, Note_on_c, 0, 63, 81
1, 359996, Note_off_c, 0, 64, 63
1, 360001, Note_on_c, 0, 60, 66
1, 360003, Note_off_c, 0, 61, 61
1, 360064, Note_on_c, 0, 62, 81
1, 360078, Note_on_c, 0, 59, 67
1, 360079, Note_off_c, 0, 63, 62
1, 360094, Note_off_c, 0, 62, 67
1, 360097, Note_off_c, 0, 60, 65
1, 360103, Note_off_c, 0, 59, 67
1, 360121, Note_on_c, 0, 71, 88
1, 360124, Note_on_c, 0, 68, 87
1, 360196, Note_on_c, 0, 67, 84
1, 360199, Note_off_c, 0, 68, 64
1, 360203, Note_on_c, 0, 70, 70
1, 360204, Note_off_c, 0, 71, 64
1, 360208, Control_c, 0, 64, 68
1, 360222, Control_c, 0, 64, 92
1, 360227, Note_off_c, 0, 70, 69
1, 360230, Note_off_c, 0, 67, 64
1, 360237, Control_c, 0, 64, 127
1, 360276, Note_on_c, 0, 69, 81
1, 360278, Note_on_c, 0, 66, 82
1, 360334, Note_on_c, 0, 65, 76
1, 360348, Note_on_c, 0, 68, 83
1, 360350, Note_off_c, 0, 66, 62
1, 360358, Note_off_c, 0, 65, 70
1, 360367, Note_off_c, 0, 68, 71
1, 360381, Note_on_c, 0, 67, 72
1, 360396, Note_off_c, 0, 69, 41
1, 360400, Note_on_c, 0, 71, 85
1, 360401, Note_on_c, 0, 74, 83
1, 360405, Note_off_c, 0, 67, 69
1, 360456, Note_off_c, 0, 74, 60
1, 360471, Note_on_c, 0, 70, 76
1, 360473, Note_on_c, 0, 73, 80
1, 360473, Note_off_c, 0, 71, 64
1, 360491, Note_off_c, 0, 70, 72
1, 360497, Note_off_c, 0, 73, 65
1, 360544, Note_on_c, 0, 72, 86
1, 360550, Note_on_c, 0, 70, 74
1, 360566, Note_off_c, 0, 70, 69
1, 360587, Note_on_c, 0, 69, 69
1, 360633, Note_off_c, 0, 72, 61
1, 360634, Note_on_c, 0, 71, 82
1, 360642, Note_on_c, 0, 68, 82
1, 360646, Control_c, 0, 64, 81
1, 360652, Note_off_c, 0, 69, 62
1, 360659, Note_off_c, 0, 71, 69
1, 360660, Control_c, 0, 64, 51
1, 360663, Note_off_c, 0, 68, 70
1, 360675, Control_c, 0, 64, 0
1, 360687, Note_on_c, 0, 74, 98
1, 360705, Control_c, 0, 64, 46
1, 360713, Note_on_c, 0, 79, 55
1, 360716, Note_off_c, 0, 74, 67
1, 360720, Control_c, 0, 64, 71
1, 360734, Control_c, 0, 64, 106
1, 360735, Note_off_c, 0, 79, 60
1, 360749, Control_c, 0, 64, 127
1, 360757, Note_on_c, 0, 76, 85
1, 360774, Note_on_c, 0, 73, 62
1, 360783, Poly_aftertouch_c, 0, 78, 0
1, 360798, Note_off_c, 0, 73, 39
1, 360826, Note_off_c, 0, 76, 40
1, 360828, Note_on_c, 0, 75, 87
1, 360851, Note_on_c, 0, 72, 66
1, 360892, Note_off_c, 0, 72, 0
1, 360898, Note_on_c, 0, 74, 88
1, 360905, Note_on_c, 0, 72, 58
1, 360908, Note_off_c, 0, 75, 56
1, 360926, Note_off_c, 0, 72, 65
1, 360936, Note_off_c, 0, 74, 67
1, 360977, Note_on_c, 0, 83, 81
1, 361046, Note_off_c, 0, 83, 63
1, 361048, Note_on_c, 0, 82, 89
1, 361063, Poly_aftertouch_c, 0, 84, 0
1, 361116, Note_off_c, 0, 82, 40
1, 361137, Note_on_c, 0, 81, 68
1, 361158, Note_on_c, 0, 78, 61
1, 361208, Note_on_c, 0, 80, 87
1, 361212, Note_off_c, 0, 81, 65
1, 361224, Control_c, 0, 64, 82
1, 361227, Note_on_c, 0, 77, 75
1, 361239, Control_c, 0, 64, 52
1, 361250, Note_off_c, 0, 77, 70
1, 361251, Note_off_c, 0, 78, 60
1, 361254, Control_c, 0, 64, 0
1, 361262, Note_off_c, 0, 80, 67
1, 361270, Note_on_c, 0, 83, 102
1, 361275, Note_on_c, 0, 86, 85
1, 361283, Control_c, 0, 64, 51
1, 361298, Control_c, 0, 64, 69
1, 361313, Control_c, 0, 64, 92
1, 361328, Control_c, 0, 64, 127
1, 361329, Note_on_c, 0, 85, 86
1, 361339, Note_off_c, 0, 83, 63
1, 361344, Note_on_c, 0, 82, 84
1, 361349, Note_off_c, 0, 86, 62
1, 361389, Note_off_c, 0, 85, 63
1, 361406, Note_off_c, 0, 82, 62
1, 361412, Note_on_c, 0, 81, 90
1, 361425, Note_on_c, 0, 84, 73
1, 361472, Note_on_c, 0, 83, 76
1, 361483, Note_on_c, 0, 80, 79
1, 361483, Note_off_c, 0, 81, 64
1, 361496, Note_off_c, 0, 80, 70
1, 361508, Note_off_c, 0, 84, 61
1, 361510, Note_on_c, 0, 79, 65
1, 361526, Note_off_c, 0, 83, 64
1, 361531, Note_off_c, 0, 79, 64
1, 361557, Note_on_c, 0, 90, 99
1, 361564, Note_on_c, 0, 86, 84
1, 361591, Note_off_c, 0, 90, 68
1, 361624, Note_off_c, 0, 86, 60
1, 361635, Note_on_c, 0, 85, 77
1, 361638, Note_on_c, 0, 88, 74
1, 361704, Note_off_c, 0, 88, 62
1, 361705, Note_off_c, 0, 85, 64
1, 361706, Note_on_c, 0, 84, 74
1, 361708, Note_on_c, 0, 87, 84
1, 361771, Note_on_c, 0, 86, 83
1, 361778, Note_on_c, 0, 83, 69
1, 361783, Note_off_c, 0, 87, 64
1, 361788, Note_off_c, 0, 86, 72
1, 361793, Note_off_c, 0, 83, 68
1, 361795, Control_c, 0, 64, 112
1, 361797, Note_off_c, 0, 84, 66
1, 361810, Control_c, 0, 64, 64
1, 361825, Control_c, 0, 64, 0
1, 361826, Note_on_c, 0, 95, 93
1, 361827, Note_on_c, 0, 92, 93
1, 361869, Control_c, 0, 64, 53
1, 361877, Note_off_c, 0, 92, 62
1, 361884, Note_on_c, 0, 91, 87
1, 361884, Control_c, 0, 64, 72
1, 361898, Note_on_c, 0, 94, 79
1, 361899, Control_c, 0, 64, 100
1, 361903, Note_off_c, 0, 95, 65
1, 361913, Control_c, 0, 64, 127
1, 361916, Note_off_c, 0, 94, 72
1, 361928, Note_off_c, 0, 91, 65
1, 361967, Note_on_c, 0, 90, 76
1, 361970, Note_on_c, 0, 93, 78
1, 362013, Note_on_c, 0, 89, 76
1, 362032, Note_off_c, 0, 90, 62
1, 362033, Note_off_c, 0, 89, 71
1, 362034, Note_on_c, 0, 92, 82
1, 362038, Note_off_c, 0, 93, 65
1, 362053, Note_off_c, 0, 92, 72
1, 362098, Note_on_c, 0, 93, 108
1, 362100, Note_on_c, 0, 98, 101
1, 362113, Control_c, 0, 64, 92
1, 362115, Note_on_c, 0, 89, 70
1, 362128, Control_c, 0, 64, 64
1, 362130, Note_off_c, 0, 89, 66
1, 362143, Control_c, 0, 64, 0
1, 362173, Note_on_c, 0, 97, 76
1, 362175, Note_off_c, 0, 93, 69
1, 362178, Note_on_c, 0, 92, 81
1, 362180, Note_off_c, 0, 98, 62
1, 362187, Note_on_c, 0, 89, 63
1, 362207, Note_off_c, 0, 89, 59
1, 362212, Note_off_c, 0, 97, 63
1, 362214, Note_on_c, 0, 88, 31
1, 362230, Note_off_c, 0, 92, 64
1, 362242, Note_off_c, 0, 88, 0
1, 362242, Note_on_c, 0, 88, 24
1, 362250, Note_on_c, 0, 91, 82
1, 362258, Note_on_c, 0, 96, 72
1, 362298, Note_on_c, 0, 87, 73
1, 362301, Note_off_c, 0, 88, 64
1, 362312, Note_on_c, 0, 95, 75
1, 362312, Note_off_c, 0, 91, 63
1, 362321, Note_on_c, 0, 90, 77
1, 362327, Note_off_c, 0, 96, 59
1, 362327, Note_off_c, 0, 87, 63
1, 362360, Note_off_c, 0, 95, 61
1, 362363, Note_off_c, 0, 90, 59
1, 362373, Note_on_c, 0, 86, 74
1, 362377, Note_on_c, 0, 94, 77
1, 362397, Note_off_c, 0, 94, 72
1, 362410, Note_off_c, 0, 86, 63
1, 362421, Note_on_c, 0, 89, 31
1, 362442, Note_on_c, 0, 85, 74
1, 362446, Note_off_c, 0, 89, 35
1, 362452, Note_on_c, 0, 93, 62
1, 362457, Note_on_c, 0, 88, 65
1, 362463, Note_off_c, 0, 85, 70
1, 362500, Control_c, 0, 64, 45
1, 362501, Note_on_c, 0, 84, 79
1, 362502, Note_off_c, 0, 93, 65
1, 362504, Note_on_c, 0, 92, 70
1, 362505, Note_off_c, 0, 88, 65
1, 362507, Note_on_c, 0, 87, 71
1, 362515, Control_c, 0, 64, 71
1, 362529, Note_off_c, 0, 92, 68
1, 362529, Control_c, 0, 64, 106
1, 362544, Control_c, 0, 64, 127
1, 362551, Note_off_c, 0, 84, 52
1, 362565, Note_off_c, 0, 87, 63
1, 362568, Note_on_c, 0, 83, 77
1, 362577, Note_on_c, 0, 86, 74
1, 362584, Note_on_c, 0, 91, 62
1, 362620, Note_off_c, 0, 83, 64
1, 362625, Note_on_c, 0, 82, 78
1, 362629, Note_off_c, 0, 86, 65
1, 362631, Note_on_c, 0, 90, 74
1, 362636, Note_on_c, 0, 85, 78
1, 362655, Note_off_c, 0, 91, 39
1, 362664, Note_off_c, 0, 82, 56
1, 362673, Note_off_c, 0, 90, 62
1, 362694, Note_on_c, 0, 81, 84
1, 362697, Note_on_c, 0, 84, 82
1, 362697, Note_off_c, 0, 85, 64
1, 362700, Note_on_c, 0, 89, 76
1, 362716, Note_off_c, 0, 84, 71
1, 362717, Note_off_c, 0, 89, 68
1, 362756, Note_off_c, 0, 81, 47
1, 362768, Note_on_c, 0, 80, 84
1, 362768, Note_on_c, 0, 88, 92
1, 362771, Note_on_c, 0, 83, 89
1, 362822, Note_on_c, 0, 79, 76
1, 362823, Note_off_c, 0, 80, 63
1, 362827, Note_on_c, 0, 87, 78
1, 362830, Note_off_c, 0, 83, 67
1, 362832, Note_off_c, 0, 88, 63
1, 362834, Note_on_c, 0, 82, 84
1, 362847, Note_off_c, 0, 87, 72
1, 362890, Note_off_c, 0, 79, 64
1, 362891, Note_on_c, 0, 78, 80
1, 362906, Note_off_c, 0, 82, 42
1, 362908, Note_on_c, 0, 86, 83
1, 362908, Note_on_c, 0, 81, 87
1, 362935, Note_off_c, 0, 78, 64
1, 362966, Note_on_c, 0, 85, 80
1, 362970, Note_on_c, 0, 77, 78
1, 362972, Note_off_c, 0, 81, 66
1, 362973, Note_on_c, 0, 80, 87
1, 362973, Note_off_c, 0, 86, 61
1, 363004, Note_off_c, 0, 85, 64
1, 363016, Note_off_c, 0, 80, 63
1, 363022, Note_off_c, 0, 77, 61
1, 363033, Note_on_c, 0, 76, 77
1, 363044, Note_on_c, 0, 79, 91
1, 363047, Note_on_c, 0, 84, 78
1, 363060, Note_on_c, 0, 77, 20
1, 363093, Note_on_c, 0, 75, 81
1, 363096, Note_off_c, 0, 77, 56
1, 363101, Note_off_c, 0, 76, 63
1, 363105, Note_on_c, 0, 83, 77
1, 363108, Note_off_c, 0, 79, 65
1, 363117, Note_on_c, 0, 78, 79
1, 363138, Note_off_c, 0, 84, 59
1, 363147, Note_off_c, 0, 75, 62
1, 363172, Note_off_c, 0, 83, 64
1, 363175, Note_on_c, 0, 74, 87
1, 363175, Note_on_c, 0, 82, 84
1, 363182, Note_off_c, 0, 78, 65
1, 363194, Note_off_c, 0, 82, 72
1, 363194, Note_on_c, 0, 77, 51
1, 363215, Note_off_c, 0, 77, 63
1, 363232, Note_off_c, 0, 74, 59
1, 363247, Control_c, 0, 64, 102
1, 363248, Note_on_c, 0, 76, 79
1, 363248, Note_on_c, 0, 73, 86
1, 363248, Note_on_c, 0, 81, 80
1, 363262, Control_c, 0, 64, 68
1, 363277, Control_c, 0, 64, 0
1, 363287, Note_off_c, 0, 73, 61
1, 363307, Note_off_c, 0, 81, 64
1, 363312, Note_on_c, 0, 80, 73
1, 363314, Note_off_c, 0, 76, 66
1, 363316, Note_on_c, 0, 75, 75
1, 363320, Note_on_c, 0, 72, 76
1, 363335, Note_off_c, 0, 80, 67
1, 363336, Control_c, 0, 64, 54
1, 363351, Control_c, 0, 64, 69
1, 363360, Note_off_c, 0, 75, 62
1, 363365, Control_c, 0, 64, 84
1, 363376, Note_off_c, 0, 72, 61
1, 363380, Control_c, 0, 64, 127
1, 363385, Note_on_c, 0, 71, 79
1, 363390, Note_on_c, 0, 74, 78
1, 363394, Note_on_c, 0, 79, 73
1, 363451, Note_off_c, 0, 74, 63
1, 363451, Note_on_c, 0, 78, 73
1, 363453, Note_on_c, 0, 70, 77
1, 363454, Note_off_c, 0, 71, 62
1, 363459, Note_off_c, 0, 79, 62
1, 363461, Note_on_c, 0, 73, 78
1, 363499, Note_off_c, 0, 78, 64
1, 363507, Note_off_c, 0, 70, 62
1, 363522, Note_off_c, 0, 73, 63
1, 363523, Note_on_c, 0, 72, 78
1, 363525, Note_on_c, 0, 77, 62
1, 363534, Note_on_c, 0, 69, 76
1, 363549, Note_off_c, 0, 77, 67
1, 363552, Note_off_c, 0, 72, 62
1, 363586, Note_off_c, 0, 69, 60
1, 363624, Note_on_c, 0, 68, 70
1, 363625, Note_on_c, 0, 76, 75
1, 363630, Note_on_c, 0, 71, 72
1, 363679, Note_off_c, 0, 68, 62
1, 363686, Note_on_c, 0, 75, 73
1, 363695, Note_off_c, 0, 76, 60
1, 363695, Note_off_c, 0, 71, 61
1, 363697, Note_on_c, 0, 67, 53
1, 363705, Note_on_c, 0, 70, 74
1, 363729, Control_c, 0, 64, 95
1, 363740, Note_off_c, 0, 75, 64
1, 363744, Control_c, 0, 64, 70
1, 363755, Note_off_c, 0, 67, 60
1, 363758, Control_c, 0, 64, 48
1, 363761, Note_off_c, 0, 70, 59
1, 363773, Control_c, 0, 64, 0
1, 363803, Control_c, 0, 64, 44
1, 363807, Note_on_c, 0, 66, 43
1, 363817, Control_c, 0, 64, 63
1, 363826, Note_on_c, 0, 74, 63
1, 363829, Note_on_c, 0, 69, 57
1, 363832, Control_c, 0, 64, 78
1, 363847, Control_c, 0, 64, 120
1, 363859, Note_off_c, 0, 66, 60
1, 363862, Note_off_c, 0, 74, 61
1, 363862, Control_c, 0, 64, 127
1, 363863, Note_off_c, 0, 69, 62
1, 363972, Note_on_c, 0, 65, 72
1, 363974, Note_on_c, 0, 69, 73
1, 363975, Note_on_c, 0, 74, 71
1, 363992, Note_off_c, 0, 74, 68
1, 363995, Note_off_c, 0, 69, 70
1, 363998, Note_off_c, 0, 65, 66
1, 364046, Note_on_c, 0, 74, 88
1, 364050, Note_on_c, 0, 69, 74
1, 364060, Note_on_c, 0, 65, 80
1, 364065, Note_off_c, 0, 74, 68
1, 364073, Note_off_c, 0, 69, 65
1, 364089, Note_off_c, 0, 65, 66
1, 364123, Note_on_c, 0, 74, 89
1, 364127, Note_on_c, 0, 69, 75
1, 364138, Note_on_c, 0, 65, 81
1, 364156, Note_off_c, 0, 69, 64
1, 364174, Note_off_c, 0, 65, 57
1, 364196, Note_on_c, 0, 69, 68
1, 364202, Note_on_c, 0, 73, 85
1, 364202, Note_off_c, 0, 74, 66
1, 364209, Note_on_c, 0, 64, 72
1, 364231, Note_off_c, 0, 69, 56
1, 364235, Note_off_c, 0, 64, 65
1, 364243, Note_off_c, 0, 73, 58
1, 364277, Note_on_c, 0, 73, 66
1, 364285, Note_on_c, 0, 69, 67
1, 364303, Note_on_c, 0, 64, 49
1, 364313, Note_off_c, 0, 73, 61
1, 364315, Note_off_c, 0, 69, 63
1, 364324, Note_off_c, 0, 64, 60
1, 364389, Note_on_c, 0, 69, 65
1, 364389, Note_on_c, 0, 73, 73
1, 364399, Note_on_c, 0, 64, 65
1, 364426, Note_off_c, 0, 69, 62
1, 364428, Note_off_c, 0, 64, 62
1, 364437, Note_off_c, 0, 73, 60
1, 364448, Control_c, 0, 64, 87
1, 364463, Control_c, 0, 64, 66
1, 364478, Control_c, 0, 64, 41
1, 364488, Note_on_c, 0, 63, 64
1, 364491, Note_on_c, 0, 69, 52
1, 364493, Control_c, 0, 64, 0
1, 364494, Note_on_c, 0, 78, 74
1, 364500, Note_on_c, 0, 72, 63
1, 364516, Note_off_c, 0, 69, 55
1, 364519, Note_off_c, 0, 63, 62
1, 364523, Note_off_c, 0, 78, 59
1, 364529, Note_off_c, 0, 72, 66
1, 364601, Note_on_c, 0, 69, 56
1, 364611, Note_on_c, 0, 72, 48
1, 364616, Note_on_c, 0, 63, 53
1, 364618, Note_on_c, 0, 78, 54
1, 364630, Note_off_c, 0, 69, 61
1, 364636, Note_off_c, 0, 72, 59
1, 364638, Note_off_c, 0, 78, 62
1, 364643, Note_off_c, 0, 63, 58
1, 364714, Note_on_c, 0, 78, 58
1, 364718, Note_on_c, 0, 69, 52
1, 364726, Note_on_c, 0, 63, 46
1, 364745, Note_off_c, 0, 78, 65
1, 364746, Note_off_c, 0, 69, 57
1, 364751, Note_off_c, 0, 63, 60
1, 364826, Note_on_c, 0, 78, 62
1, 364828, Note_on_c, 0, 71, 57
1, 364839, Note_on_c, 0, 62, 42
1, 364841, Note_on_c, 0, 68, 47
1, 364855, Note_off_c, 0, 78, 65
1, 364865, Note_off_c, 0, 71, 62
1, 364866, Note_off_c, 0, 62, 59
1, 364867, Note_off_c, 0, 68, 60
1, 364948, Note_on_c, 0, 78, 55
1, 364953, Note_on_c, 0, 62, 52
1, 364962, Note_on_c, 0, 68, 43
1, 364965, Note_on_c, 0, 71, 42
1, 364973, Note_off_c, 0, 78, 60
1, 364990, Note_off_c, 0, 68, 58
1, 364994, Note_off_c, 0, 71, 56
1, 364995, Note_off_c, 0, 62, 60
1, 365069, Note_on_c, 0, 78, 47
1, 365089, Note_on_c, 0, 68, 41
1, 365090, Note_on_c, 0, 71, 48
1, 365095, Note_on_c, 0, 62, 43
1, 365108, Control_c, 0, 64, 53
1, 365123, Control_c, 0, 64, 65
1, 365138, Control_c, 0, 64, 72
1, 365153, Control_c, 0, 64, 79
1, 365168, Control_c, 0, 64, 86
1, 365170, Note_off_c, 0, 62, 57
1, 365182, Control_c, 0, 64, 94
1, 365187, Note_off_c, 0, 78, 46
1, 365197, Control_c, 0, 64, 103
1, 365212, Control_c, 0, 64, 115
1, 365221, Note_off_c, 0, 71, 27
1, 365227, Control_c, 0, 64, 127
1, 365235, Note_off_c, 0, 68, 43
1, 365338, Note_on_c, 0, 71, 36
1, 365338, Note_on_c, 0, 77, 44
1, 365345, Control_c, 0, 64, 102
1, 365360, Control_c, 0, 64, 81
1, 365361, Note_on_c, 0, 68, 41
1, 365369, Note_on_c, 0, 61, 31
1, 365374, Control_c, 0, 64, 64
1, 365389, Control_c, 0, 64, 40
1, 365404, Control_c, 0, 64, 0
1, 365419, Control_c, 0, 64, 40
1, 365434, Control_c, 0, 64, 54
1, 365448, Control_c, 0, 64, 63
1, 365463, Control_c, 0, 64, 70
1, 365478, Control_c, 0, 64, 78
1, 365493, Note_off_c, 0, 61, 51
1, 365493, Control_c, 0, 64, 92
1, 365501, Note_off_c, 0, 68, 59
1, 365508, Control_c, 0, 64, 104
1, 365519, Note_off_c, 0, 77, 38
1, 365523, Control_c, 0, 64, 124
1, 365537, Control_c, 0, 64, 127
1, 365646, Note_off_c, 0, 71, 38
1, 365672, Control_c, 0, 64, 124
1, 365686, Control_c, 0, 64, 91
1, 365695, Note_on_c, 0, 76, 48
1, 365699, Note_on_c, 0, 58, 41
1, 365701, Control_c, 0, 64, 71
1, 365710, Note_on_c, 0, 73, 31
1, 365716, Note_on_c, 0, 67, 26
1, 365716, Control_c, 0, 64, 56
1, 365731, Control_c, 0, 64, 35
1, 365746, Control_c, 0, 64, 39
1, 365761, Control_c, 0, 64, 50
1, 365776, Control_c, 0, 64, 59
1, 365791, Control_c, 0, 64, 65
1, 365805, Control_c, 0, 64, 70
1, 365820, Control_c, 0, 64, 77
1, 365824, Note_off_c, 0, 58, 50
1, 365835, Control_c, 0, 64, 83
1, 365857, Control_c, 0, 64, 87
1, 365872, Control_c, 0, 64, 91
1, 365886, Control_c, 0, 64, 93
1, 365889, Note_off_c, 0, 76, 37
1, 365901, Control_c, 0, 64, 95
1, 365916, Control_c, 0, 64, 97
1, 365931, Control_c, 0, 64, 100
1, 365961, Control_c, 0, 64, 102
1, 365965, Note_off_c, 0, 73, 33
1, 366005, Control_c, 0, 64, 98
1, 366006, Note_off_c, 0, 67, 39
1, 366020, Note_on_c, 0, 59, 34
1, 366020, Control_c, 0, 64, 88
1, 366030, Note_on_c, 0, 66, 38
1, 366032, Note_on_c, 0, 75, 42
1, 366035, Control_c, 0, 64, 75
1, 366050, Control_c, 0, 64, 64
1, 366055, Note_on_c, 0, 71, 26
1, 366065, Control_c, 0, 64, 50
1, 366079, Control_c, 0, 64, 42
1, 366094, Control_c, 0, 64, 47
1, 366109, Control_c, 0, 64, 53
1, 366124, Control_c, 0, 64, 59
1, 366125, Note_off_c, 0, 66, 58
1, 366139, Control_c, 0, 64, 65
1, 366153, Control_c, 0, 64, 74
1, 366168, Control_c, 0, 64, 89
1, 366183, Control_c, 0, 64, 112
1, 366197, Note_off_c, 0, 71, 49
1, 366198, Control_c, 0, 64, 127
1, 366238, Note_off_c, 0, 75, 50
1, 366465, Control_c, 0, 64, 107
1, 366471, Note_on_c, 0, 62, 26
1, 366480, Control_c, 0, 64, 91
1, 366491, Note_on_c, 0, 66, 19
1, 366491, Note_on_c, 0, 74, 33
1, 366495, Control_c, 0, 64, 74
1, 366497, Note_on_c, 0, 72, 31
1, 366505, Note_on_c, 0, 57, 24
1, 366508, Note_off_c, 0, 59, 30
1, 366509, Control_c, 0, 64, 63
1, 366524, Control_c, 0, 64, 46
1, 366539, Control_c, 0, 64, 0
1, 366569, Control_c, 0, 64, 38
1, 366584, Control_c, 0, 64, 48
1, 366606, Control_c, 0, 64, 56
1, 366621, Control_c, 0, 64, 64
1, 366635, Control_c, 0, 64, 72
1, 366650, Control_c, 0, 64, 83
1, 366665, Control_c, 0, 64, 93
1, 366680, Control_c, 0, 64, 100
1, 366685, Note_off_c, 0, 62, 39
1, 366695, Control_c, 0, 64, 109
1, 366709, Control_c, 0, 64, 119
1, 366724, Control_c, 0, 64, 127
1, 366742, Note_off_c, 0, 66, 38
1, 366756, Note_off_c, 0, 74, 37
1, 366847, Note_off_c, 0, 72, 32
1, 367072, Note_on_c, 0, 55, 32
1, 367083, Note_on_c, 0, 62, 25
1, 367095, Control_c, 0, 64, 119
1, 367109, Control_c, 0, 64, 105
1, 367118, Note_on_c, 0, 74, 16
1, 367120, Note_on_c, 0, 67, 12
1, 367124, Control_c, 0, 64, 94
1, 367132, Note_on_c, 0, 72, 12
1, 367139, Control_c, 0, 64, 84
1, 367140, Note_off_c, 0, 57, 38
1, 367153, Control_c, 0, 64, 74
1, 367170, Control_c, 0, 64, 65
1, 367185, Control_c, 0, 64, 55
1, 367199, Control_c, 0, 64, 50
1, 367214, Control_c, 0, 64, 51
1, 367229, Control_c, 0, 64, 51
1, 367258, Control_c, 0, 64, 52
1, 367273, Control_c, 0, 64, 56
1, 367288, Control_c, 0, 64, 63
1, 367303, Control_c, 0, 64, 69
1, 367317, Control_c, 0, 64, 76
1, 367332, Control_c, 0, 64, 82
1, 367355, Control_c, 0, 64, 84
1, 367361, Note_off_c, 0, 62, 40
1, 367366, Note_off_c, 0, 55, 39
1, 367370, Control_c, 0, 64, 85
1, 367384, Control_c, 0, 64, 86
1, 367399, Control_c, 0, 64, 87
1, 367414, Control_c, 0, 64, 89
1, 367419, Note_off_c, 0, 72, 34
1, 367429, Control_c, 0, 64, 91
1, 367444, Control_c, 0, 64, 93
1, 367458, Control_c, 0, 64, 93
1, 367473, Control_c, 0, 64, 95
1, 367476, Note_off_c, 0, 74, 29
1, 367488, Control_c, 0, 64, 97
1, 367518, Control_c, 0, 64, 99
1, 367571, Note_off_c, 0, 67, 17
1, 367788, Poly_aftertouch_c, 0, 67, 127
1, 367792, Note_on_c, 0, 74, 28
1, 367793, Note_on_c, 0, 55, 18
1, 367795, Note_on_c, 0, 62, 16
1, 367799, Control_c, 0, 64, 94
1, 367814, Control_c, 0, 64, 89
1, 367829, Control_c, 0, 64, 82
1, 367830, Note_on_c, 0, 71, 17
1, 367844, Control_c, 0, 64, 73
1, 367858, Control_c, 0, 64, 64
1, 367873, Control_c, 0, 64, 53
1, 367888, Control_c, 0, 64, 41
1, 367903, Control_c, 0, 64, 40
1, 367918, Control_c, 0, 64, 44
1, 367930, Note_off_c, 0, 71, 0
1, 367932, Control_c, 0, 64, 49
1, 367947, Control_c, 0, 64, 52
1, 367962, Control_c, 0, 64, 57
1, 367968, Poly_aftertouch_c, 0, 71, 127
1, 367978, Control_c, 0, 64, 63
1, 367993, Control_c, 0, 64, 68
1, 368007, Control_c, 0, 64, 74
1, 368022, Control_c, 0, 64, 79
1, 368037, Control_c, 0, 64, 82
1, 368052, Control_c, 0, 64, 85
1, 368066, Control_c, 0, 64, 88
1, 368071, Note_off_c, 0, 62, 40
1, 368081, Control_c, 0, 64, 92
1, 368104, Note_off_c, 0, 55, 39
1, 368104, Control_c, 0, 64, 95
1, 368134, Control_c, 0, 64, 98
1, 368148, Control_c, 0, 64, 100
1, 368150, Poly_aftertouch_c, 0, 67, 0
1, 368163, Control_c, 0, 64, 102
1, 368178, Control_c, 0, 64, 104
1, 368198, Poly_aftertouch_c, 0, 71, 0
1, 368206, Note_off_c, 0, 74, 32
1, 368207, Control_c, 0, 64, 106
1, 368252, Control_c, 0, 64, 109
1, 368296, Control_c, 0, 64, 111
1, 368444, Control_c, 0, 64, 109
1, 368459, Control_c, 0, 64, 105
1, 368474, Control_c, 0, 64, 100
1, 368489, Control_c, 0, 64, 94
1, 368503, Control_c, 0, 64, 90
1, 368518, Control_c, 0, 64, 87
1, 368533, Control_c, 0, 64, 85
1, 368548, Control_c, 0, 64, 81
1, 368563, Control_c, 0, 64, 76
1, 368578, Control_c, 0, 64, 70
1, 368593, Control_c, 0, 64, 64
1, 368607, Control_c, 0, 64, 59
1, 368622, Control_c, 0, 64, 55
1, 368637, Control_c, 0, 64, 51
1, 368652, Control_c, 0, 64, 47
1, 368667, Control_c, 0, 64, 43
1, 368682, Control_c, 0, 64, 41
1, 368697, Control_c, 0, 64, 40
1, 368712, Control_c, 0, 64, 39
1, 368726, Control_c, 0, 64, 37
1, 368741, Control_c, 0, 64, 36
1, 368756, Control_c, 0, 64, 34
1, 368772, Control_c, 0, 64, 34
1, 368787, Control_c, 0, 64, 0
1, 368802, Control_c, 0, 67, 19
1, 368816, Control_c, 0, 67, 25
1, 368831, Control_c, 0, 67, 36
1, 368853, Control_c, 0, 67, 52
1, 368868, Control_c, 0, 67, 69
1, 368883, Control_c, 0, 67, 86
1, 368898, Control_c, 0, 67, 100
1, 368912, Control_c, 0, 67, 113
1, 368927, Control_c, 0, 67, 127
1, 368934, Note_on_c, 0, 74, 42
1, 368942, Note_on_c, 0, 59, 28
1, 368962, Note_on_c, 0, 67, 11
1, 368972, Note_off_c, 0, 74, 58
1, 368977, Note_off_c, 0, 59, 50
1, 368992, Note_off_c, 0, 67, 45
1, 369019, Poly_aftertouch_c, 0, 53, 0
1, 369115, Note_on_c, 0, 67, 38
1, 369124, Note_on_c, 0, 52, 39
1, 369129, Note_on_c, 0, 79, 39
1, 369134, Note_on_c, 0, 60, 33
1, 369154, Note_off_c, 0, 67, 50
1, 369158, Note_off_c, 0, 52, 53
1, 369162, Note_off_c, 0, 79, 54
1, 369172, Note_off_c, 0, 60, 52
1, 369311, Note_on_c, 0, 74, 45
1, 369317, Note_on_c, 0, 59, 35
1, 369320, Note_on_c, 0, 67, 30
1, 369325, Note_on_c, 0, 53, 31
1, 369349, Note_off_c, 0, 74, 62
1, 369351, Note_off_c, 0, 59, 53
1, 369355, Note_off_c, 0, 67, 51
1, 369365, Note_off_c, 0, 53, 48
1, 369549, Control_c, 0, 64, 37
1, 369564, Control_c, 0, 64, 50
1, 369580, Control_c, 0, 64, 59
1, 369602, Control_c, 0, 64, 62
1, 369617, Control_c, 0, 64, 64
1, 369627, Note_on_c, 0, 67, 26
1, 369629, Note_on_c, 0, 52, 29
1, 369632, Control_c, 0, 64, 66
1, 369647, Note_on_c, 0, 79, 26
1, 369647, Control_c, 0, 64, 68
1, 369657, Note_on_c, 0, 60, 16
1, 369661, Control_c, 0, 64, 72
1, 369676, Control_c, 0, 64, 75
1, 369691, Control_c, 0, 64, 79
1, 369706, Control_c, 0, 64, 82
1, 369721, Control_c, 0, 64, 85
1, 369733, Note_off_c, 0, 52, 53
1, 369735, Note_off_c, 0, 60, 48
1, 369735, Control_c, 0, 64, 88
1, 369750, Control_c, 0, 64, 90
1, 369764, Note_off_c, 0, 67, 36
1, 369765, Control_c, 0, 64, 93
1, 369767, Note_off_c, 0, 79, 40
1, 369779, Control_c, 0, 64, 95
1, 369824, Control_c, 0, 64, 97
1, 369987, Control_c, 0, 64, 94
1, 370002, Control_c, 0, 64, 92
1, 370017, Control_c, 0, 64, 90
1, 370032, Control_c, 0, 64, 89
1, 370046, Control_c, 0, 64, 87
1, 370061, Control_c, 0, 64, 86
1, 370076, Control_c, 0, 64, 85
1, 370091, Control_c, 0, 64, 85
1, 370106, Control_c, 0, 64, 84
1, 370120, Control_c, 0, 64, 83
1, 370135, Control_c, 0, 64, 81
1, 370150, Control_c, 0, 64, 80
1, 370164, Control_c, 0, 64, 79
1, 370179, Control_c, 0, 64, 77
1, 370194, Control_c, 0, 64, 74
1, 370209, Control_c, 0, 64, 72
1, 370223, Control_c, 0, 64, 70
1, 370238, Control_c, 0, 64, 69
1, 370253, Control_c, 0, 64, 67
1, 370268, Control_c, 0, 64, 65
1, 370283, Control_c, 0, 64, 63
1, 370297, Control_c, 0, 64, 62
1, 370312, Control_c, 0, 64, 60
1, 370327, Control_c, 0, 64, 58
1, 370349, Control_c, 0, 64, 57
1, 370364, Control_c, 0, 64, 56
1, 370380, Control_c, 0, 64, 55
1, 370395, Control_c, 0, 64, 54
1, 370409, Control_c, 0, 64, 53
1, 370424, Control_c, 0, 64, 52
1, 370439, Control_c, 0, 64, 51
1, 370454, Control_c, 0, 64, 50
1, 370469, Control_c, 0, 64, 48
1, 370483, Control_c, 0, 64, 47
1, 370498, Control_c, 0, 64, 45
1, 370513, Control_c, 0, 64, 43
1, 370528, Control_c, 0, 64, 40
1, 370543, Control_c, 0, 64, 35
1, 370557, Control_c, 0, 64, 0
1, 370662, Control_c, 0, 64, 37
1, 370676, Control_c, 0, 64, 48
1, 370691, Control_c, 0, 64, 57
1, 370706, Control_c, 0, 64, 63
1, 370720, Control_c, 0, 64, 67
1, 370720, Control_c, 0, 67, 103
1, 370735, Control_c, 0, 64, 72
1, 370735, Control_c, 0, 67, 83
1, 370750, Control_c, 0, 64, 76
1, 370750, Control_c, 0, 67, 67
1, 370765, Control_c, 0, 64, 81
1, 370765, Control_c, 0, 67, 47
1, 370780, Control_c, 0, 64, 88
1, 370780, Control_c, 0, 67, 26
1, 370794, Control_c, 0, 64, 97
1, 370794, Control_c, 0, 67, 0
1, 370809, Control_c, 0, 64, 109
1, 370824, Control_c, 0, 64, 127
1, 370885, Note_on_c, 0, 40, 25
1, 370954, Note_on_c, 0, 68, 60
1, 370972, Note_on_c, 0, 64, 25
1, 370973, Note_on_c, 0, 62, 39
1, 371067, Note_off_c, 0, 40, 40
1, 371131, Note_off_c, 0, 68, 54
1, 371260, Note_on_c, 0, 68, 79
1, 371410, Note_on_c, 0, 69, 79
1, 371431, Note_off_c, 0, 68, 61
1, 371515, Note_on_c, 0, 68, 85
1, 371566, Note_off_c, 0, 69, 56
1, 371596, Note_on_c, 0, 66, 83
1, 371601, Note_off_c, 0, 68, 63
1, 371678, Note_on_c, 0, 68, 88
1, 371716, Note_off_c, 0, 66, 58
1, 371805, Note_on_c, 0, 56, 44
1, 371877, Control_c, 0, 64, 104
1, 371892, Control_c, 0, 64, 86
1, 371907, Control_c, 0, 64, 71
1, 371922, Control_c, 0, 64, 59
1, 371937, Control_c, 0, 64, 0
1, 371952, Note_on_c, 0, 71, 78
1, 371985, Note_off_c, 0, 68, 63
1, 372041, Control_c, 0, 64, 51
1, 372056, Control_c, 0, 64, 64
1, 372071, Control_c, 0, 64, 72
1, 372086, Control_c, 0, 64, 85
1, 372101, Control_c, 0, 64, 101
1, 372115, Control_c, 0, 64, 127
1, 372135, Note_off_c, 0, 71, 59
1, 372144, Note_off_c, 0, 56, 57
1, 372364, Note_off_c, 0, 62, 41
1, 372364, Note_on_c, 0, 71, 80
1, 372370, Note_off_c, 0, 64, 41
1, 373112, Note_on_c, 0, 72, 53
1, 373204, Control_c, 0, 67, 21
1, 373219, Note_off_c, 0, 71, 53
1, 373219, Control_c, 0, 67, 25
1, 373234, Control_c, 0, 67, 29
1, 373249, Control_c, 0, 67, 36
1, 373264, Control_c, 0, 67, 47
1, 373279, Control_c, 0, 67, 62
1, 373294, Control_c, 0, 67, 77
1, 373309, Control_c, 0, 67, 93
1, 373323, Control_c, 0, 67, 106
1, 373345, Control_c, 0, 67, 118
1, 373360, Control_c, 0, 67, 127
1, 373404, Note_on_c, 0, 45, 44
1, 373411, Note_on_c, 0, 57, 50
1, 373419, Note_off_c, 0, 72, 36
1, 373434, Note_off_c, 0, 45, 51
1, 373452, Note_off_c, 0, 57, 61
1, 373479, Control_c, 0, 64, 102
1, 373493, Control_c, 0, 64, 82
1, 373508, Control_c, 0, 64, 68
1, 373523, Control_c, 0, 64, 52
1, 373538, Control_c, 0, 64, 0
1, 373565, Note_on_c, 0, 59, 58
1, 373574, Note_on_c, 0, 47, 48
1, 373590, Note_off_c, 0, 59, 64
1, 373601, Note_off_c, 0, 47, 57
1, 373669, Note_on_c, 0, 57, 64
1, 373679, Note_on_c, 0, 45, 58
1, 373692, Note_off_c, 0, 57, 64
1, 373705, Note_off_c, 0, 45, 60
1, 373780, Note_on_c, 0, 56, 62
1, 373787, Note_on_c, 0, 44, 52
1, 373791, Control_c, 0, 64, 57
1, 373792, Note_on_c, 0, 73, 65
1, 373798, Note_on_c, 0, 61, 54
1, 373806, Control_c, 0, 64, 68
1, 373811, Note_off_c, 0, 56, 63
1, 373814, Note_off_c, 0, 44, 61
1, 373820, Control_c, 0, 64, 77
1, 373821, Note_off_c, 0, 61, 59
1, 373835, Control_c, 0, 64, 88
1, 373850, Control_c, 0, 64, 98
1, 373864, Control_c, 0, 64, 107
1, 373879, Control_c, 0, 64, 115
1, 373893, Note_on_c, 0, 57, 65
1, 373894, Note_off_c, 0, 73, 59
1, 373894, Control_c, 0, 64, 127
1, 373905, Note_on_c, 0, 45, 48
1, 373914, Note_on_c, 0, 62, 49
1, 373916, Note_on_c, 0, 68, 65
1, 373917, Note_off_c, 0, 57, 65
1, 373935, Note_off_c, 0, 45, 55
1, 373942, Note_off_c, 0, 62, 54
1, 373982, Note_off_c, 0, 68, 55
1, 373996, Note_on_c, 0, 59, 76
1, 374006, Note_on_c, 0, 47, 59
1, 374017, Note_off_c, 0, 59, 71
1, 374027, Control_c, 0, 64, 98
1, 374030, Note_off_c, 0, 47, 59
1, 374042, Control_c, 0, 64, 76
1, 374057, Control_c, 0, 64, 54
1, 374072, Control_c, 0, 64, 0
1, 374100, Note_on_c, 0, 61, 68
1, 374111, Note_on_c, 0, 49, 49
1, 374126, Note_off_c, 0, 61, 65
1, 374138, Note_off_c, 0, 49, 60
1, 374191, Note_on_c, 0, 60, 71
1, 374199, Note_on_c, 0, 48, 65
1, 374215, Note_off_c, 0, 60, 69
1, 374222, Note_off_c, 0, 48, 61
1, 374284, Note_on_c, 0, 62, 75
1, 374301, Note_on_c, 0, 50, 50
1, 374307, Note_off_c, 0, 62, 69
1, 374328, Note_off_c, 0, 50, 56
1, 374361, Control_c, 0, 64, 36
1, 374376, Control_c, 0, 64, 66
1, 374378, Note_on_c, 0, 61, 71
1, 374381, Note_on_c, 0, 69, 53
1, 374382, Note_on_c, 0, 64, 60
1, 374390, Note_on_c, 0, 49, 51
1, 374391, Control_c, 0, 64, 81
1, 374406, Note_off_c, 0, 69, 56
1, 374406, Note_off_c, 0, 61, 66
1, 374406, Control_c, 0, 64, 122
1, 374417, Note_off_c, 0, 49, 60
1, 374421, Note_off_c, 0, 64, 60
1, 374421, Control_c, 0, 64, 127
1, 374478, Note_on_c, 0, 59, 78
1, 374493, Note_on_c, 0, 47, 60
1, 374500, Note_off_c, 0, 59, 70
1, 374511, Note_on_c, 0, 73, 67
1, 374513, Note_on_c, 0, 69, 35
1, 374516, Note_off_c, 0, 47, 63
1, 374540, Note_off_c, 0, 73, 64
1, 374544, Note_off_c, 0, 69, 52
1, 374573, Note_on_c, 0, 57, 79
1, 374579, Poly_aftertouch_c, 0, 64, 0
1, 374595, Note_off_c, 0, 57, 71
1, 374596, Note_on_c, 0, 45, 52
1, 374600, Poly_aftertouch_c, 0, 64, 0
1, 374614, Control_c, 0, 67, 103
1, 374623, Note_off_c, 0, 45, 56
1, 374629, Control_c, 0, 67, 33
1, 374643, Control_c, 0, 64, 113
1, 374643, Control_c, 0, 67, 0
1, 374658, Control_c, 0, 64, 76
1, 374664, Note_on_c, 0, 54, 86
1, 374673, Control_c, 0, 64, 46
1, 374685, Note_off_c, 0, 54, 71
1, 374687, Control_c, 0, 64, 0
1, 374694, Note_on_c, 0, 42, 32
1, 374694, Note_off_c, 0, 42, 127
1, 374695, Note_on_c, 0, 64, 51
1, 374722, Note_off_c, 0, 64, 56
1, 374730, Note_on_c, 0, 70, 62
1, 374765, Note_on_c, 0, 56, 71
1, 374765, Note_on_c, 0, 78, 77
1, 374773, Note_on_c, 0, 44, 42
1, 374790, Note_off_c, 0, 56, 67
1, 374791, Control_c, 0, 67, 24
1, 374804, Note_off_c, 0, 44, 55
1, 374806, Control_c, 0, 67, 39
1, 374821, Control_c, 0, 67, 66
1, 374843, Control_c, 0, 67, 104
1, 374858, Control_c, 0, 67, 127
1, 374868, Note_off_c, 0, 78, 62
1, 374873, Control_c, 0, 64, 47
1, 374875, Note_on_c, 0, 54, 71
1, 374884, Note_on_c, 0, 42, 53
1, 374888, Control_c, 0, 64, 65
1, 374900, Note_on_c, 0, 44, 33
1, 374900, Note_off_c, 0, 44, 127
1, 374901, Note_off_c, 0, 54, 66
1, 374902, Control_c, 0, 64, 77
1, 374912, Note_off_c, 0, 42, 54
1, 374917, Control_c, 0, 64, 98
1, 374932, Control_c, 0, 64, 127
1, 374939, Poly_aftertouch_c, 0, 44, 0
1, 374960, Note_off_c, 0, 70, 61
1, 374973, Note_on_c, 0, 53, 73
1, 374984, Note_on_c, 0, 41, 46
1, 374999, Note_off_c, 0, 53, 68
1, 375014, Note_off_c, 0, 41, 52
1, 375061, Note_on_c, 0, 42, 44
1, 375062, Note_on_c, 0, 54, 75
1, 375088, Note_off_c, 0, 54, 68
1, 375091, Note_off_c, 0, 42, 55
1, 375100, Note_on_c, 0, 63, 60
1, 375100, Note_on_c, 0, 71, 63
1, 375120, Note_off_c, 0, 71, 66
1, 375134, Note_off_c, 0, 63, 66
1, 375154, Control_c, 0, 64, 84
1, 375166, Note_on_c, 0, 58, 75
1, 375170, Note_on_c, 0, 46, 72
1, 375170, Control_c, 0, 64, 51
1, 375170, Control_c, 0, 67, 113
1, 375185, Control_c, 0, 64, 0
1, 375185, Control_c, 0, 67, 46
1, 375190, Note_off_c, 0, 46, 63
1, 375190, Note_off_c, 0, 58, 69
1, 375199, Control_c, 0, 67, 0
1, 375260, Note_on_c, 0, 59, 77
1, 375280, Note_off_c, 0, 59, 71
1, 375282, Note_on_c, 0, 47, 35
1, 375282, Note_off_c, 0, 47, 127
1, 375348, Note_on_c, 0, 49, 67
1, 375348, Note_on_c, 0, 61, 75
1, 375373, Note_off_c, 0, 61, 69
1, 375376, Note_off_c, 0, 49, 65
1, 375439, Note_on_c, 0, 59, 70
1, 375441, Note_on_c, 0, 47, 61
1, 375464, Note_off_c, 0, 59, 69
1, 375470, Note_off_c, 0, 47, 65
1, 375519, Note_on_c, 0, 63, 66
1, 375520, Note_on_c, 0, 71, 66
1, 375525, Note_on_c, 0, 58, 78
1, 375536, Note_on_c, 0, 66, 47
1, 375541, Note_on_c, 0, 46, 54
1, 375548, Note_off_c, 0, 58, 68
1, 375548, Note_off_c, 0, 63, 66
1, 375550, Note_off_c, 0, 71, 65
1, 375563, Note_off_c, 0, 66, 55
1, 375570, Note_off_c, 0, 46, 62
1, 375634, Note_on_c, 0, 59, 76
1, 375640, Note_on_c, 0, 47, 64
1, 375655, Note_off_c, 0, 59, 70
1, 375662, Note_off_c, 0, 47, 63
1, 375666, Control_c, 0, 64, 57
1, 375669, Note_on_c, 0, 63, 62
1, 375669, Note_on_c, 0, 71, 71
1, 375681, Control_c, 0, 64, 67
1, 375693, Note_off_c, 0, 71, 70
1, 375696, Control_c, 0, 64, 73
1, 375698, Note_off_c, 0, 63, 67
1, 375710, Control_c, 0, 64, 80
1, 375725, Control_c, 0, 64, 85
1, 375729, Note_on_c, 0, 57, 83
1, 375740, Control_c, 0, 64, 92
1, 375754, Note_off_c, 0, 57, 68
1, 375755, Control_c, 0, 64, 99
1, 375761, Note_on_c, 0, 45, 39
1, 375770, Control_c, 0, 64, 104
1, 375784, Control_c, 0, 64, 108
1, 375795, Note_off_c, 0, 45, 47
1, 375799, Control_c, 0, 64, 111
1, 375814, Control_c, 0, 64, 114
1, 375826, Note_on_c, 0, 56, 84
1, 375845, Note_on_c, 0, 44, 42
1, 375847, Note_off_c, 0, 56, 69
1, 375862, Note_on_c, 0, 64, 71
1, 375863, Note_on_c, 0, 76, 78
1, 375863, Note_on_c, 0, 71, 68
1, 375873, Control_c, 0, 64, 100
1, 375873, Control_c, 0, 67, 23
1, 375879, Note_off_c, 0, 44, 59
1, 375879, Note_off_c, 0, 64, 67
1, 375888, Control_c, 0, 64, 79
1, 375888, Control_c, 0, 67, 31
1, 375903, Control_c, 0, 64, 61
1, 375903, Control_c, 0, 67, 42
1, 375917, Control_c, 0, 64, 0
1, 375917, Control_c, 0, 67, 58
1, 375932, Control_c, 0, 67, 79
1, 375938, Note_on_c, 0, 66, 67
1, 375947, Control_c, 0, 67, 104
1, 375953, Note_on_c, 0, 54, 49
1, 375954, Note_off_c, 0, 66, 66
1, 375963, Control_c, 0, 67, 125
1, 375978, Control_c, 0, 67, 127
1, 375980, Note_off_c, 0, 54, 38
1, 376034, Note_on_c, 0, 64, 81
1, 376054, Note_on_c, 0, 52, 54
1, 376057, Note_off_c, 0, 64, 69
1, 376081, Note_off_c, 0, 52, 37
1, 376121, Note_on_c, 0, 63, 87
1, 376128, Note_on_c, 0, 51, 67
1, 376149, Note_off_c, 0, 63, 63
1, 376161, Note_off_c, 0, 51, 65
1, 376215, Control_c, 0, 64, 51
1, 376221, Note_on_c, 0, 64, 74
1, 376221, Note_off_c, 0, 76, 29
1, 376230, Control_c, 0, 64, 67
1, 376239, Note_on_c, 0, 52, 50
1, 376245, Control_c, 0, 64, 77
1, 376254, Note_off_c, 0, 64, 0
1, 376260, Control_c, 0, 64, 93
1, 376263, Note_off_c, 0, 52, 57
1, 376266, Note_on_c, 0, 68, 66
1, 376275, Control_c, 0, 64, 101
1, 376275, Note_off_c, 0, 71, 40
1, 376290, Control_c, 0, 64, 110
1, 376293, Note_off_c, 0, 68, 68
1, 376297, Poly_aftertouch_c, 0, 64, 0
1, 376304, Control_c, 0, 64, 115
1, 376319, Control_c, 0, 64, 120
1, 376341, Control_c, 0, 64, 122
1, 376347, Note_on_c, 0, 56, 56
1, 376350, Note_on_c, 0, 44, 57
1, 376370, Note_off_c, 0, 56, 58
1, 376371, Control_c, 0, 64, 120
1, 376377, Note_off_c, 0, 44, 58
1, 376386, Control_c, 0, 64, 110
1, 376401, Control_c, 0, 64, 91
1, 376415, Control_c, 0, 64, 72
1, 376428, Note_on_c, 0, 54, 70
1, 376430, Control_c, 0, 64, 51
1, 376437, Note_on_c, 0, 42, 52
1, 376445, Control_c, 0, 64, 0
1, 376458, Note_off_c, 0, 54, 67
1, 376464, Note_on_c, 0, 57, 57
1, 376465, Note_off_c, 0, 42, 57
1, 376486, Note_off_c, 0, 57, 61
1, 376529, Note_on_c, 0, 64, 44
1, 376540, Note_on_c, 0, 56, 62
1, 376547, Note_on_c, 0, 44, 50
1, 376560, Note_on_c, 0, 72, 64
1, 376560, Note_off_c, 0, 56, 62
1, 376579, Note_off_c, 0, 44, 57
1, 376633, Note_on_c, 0, 54, 67
1, 376642, Note_off_c, 0, 72, 60
1, 376644, Note_on_c, 0, 42, 61
1, 376653, Control_c, 0, 64, 39
1, 376659, Note_off_c, 0, 64, 23
1, 376660, Note_off_c, 0, 54, 66
1, 376667, Control_c, 0, 64, 62
1, 376669, Note_off_c, 0, 42, 64
1, 376682, Control_c, 0, 64, 72
1, 376697, Control_c, 0, 64, 87
1, 376712, Control_c, 0, 64, 127
1, 376726, Note_on_c, 0, 53, 80
1, 376733, Note_on_c, 0, 41, 58
1, 376749, Note_off_c, 0, 53, 69
1, 376756, Note_off_c, 0, 41, 60
1, 376787, Control_c, 0, 67, 110
1, 376802, Control_c, 0, 67, 51
1, 376815, Note_on_c, 0, 54, 85
1, 376817, Control_c, 0, 67, 0
1, 376826, Note_on_c, 0, 42, 66
1, 376835, Note_off_c, 0, 54, 72
1, 376858, Note_off_c, 0, 42, 63
1, 376862, Note_on_c, 0, 59, 68
1, 376863, Note_on_c, 0, 71, 73
1, 376874, Note_on_c, 0, 57, 76
1, 376881, Note_off_c, 0, 71, 69
1, 376886, Note_on_c, 0, 63, 32
1, 376892, Note_off_c, 0, 57, 67
1, 376897, Note_off_c, 0, 59, 65
1, 376918, Note_off_c, 0, 63, 52
1, 376931, Note_on_c, 0, 47, 77
1, 376932, Note_on_c, 0, 35, 69
1, 376948, Control_c, 0, 64, 75
1, 376957, Note_off_c, 0, 47, 68
1, 376959, Note_off_c, 0, 35, 55
1, 376963, Control_c, 0, 64, 0
1, 376993, Control_c, 0, 67, 20
1, 377008, Control_c, 0, 67, 26
1, 377023, Control_c, 0, 67, 31
1, 377029, Note_on_c, 0, 40, 65
1, 377029, Note_on_c, 0, 52, 81
1, 377037, Control_c, 0, 67, 37
1, 377052, Control_c, 0, 67, 42
1, 377060, Note_off_c, 0, 52, 66
1, 377066, Note_off_c, 0, 40, 61
1, 377067, Control_c, 0, 67, 46
1, 377088, Control_c, 0, 67, 46
1, 377132, Note_on_c, 0, 56, 71
1, 377136, Note_on_c, 0, 44, 58
1, 377166, Note_off_c, 0, 56, 61
1, 377178, Control_c, 0, 67, 46
1, 377179, Note_off_c, 0, 44, 62
1, 377193, Control_c, 0, 67, 45
1, 377217, Note_on_c, 0, 47, 60
1, 377217, Note_on_c, 0, 59, 62
1, 377258, Note_off_c, 0, 47, 63
1, 377264, Note_off_c, 0, 59, 60
1, 377321, Note_on_c, 0, 56, 58
1, 377326, Note_on_c, 0, 52, 58
1, 377326, Note_on_c, 0, 64, 58
1, 377344, Note_off_c, 0, 56, 58
1, 377346, Note_off_c, 0, 64, 64
1, 377365, Note_off_c, 0, 52, 64
1, 377424, Note_on_c, 0, 56, 60
1, 377436, Note_on_c, 0, 68, 72
1, 377456, Note_off_c, 0, 68, 62
1, 377472, Note_off_c, 0, 56, 58
1, 377528, Note_on_c, 0, 59, 52
1, 377533, Note_on_c, 0, 71, 65
1, 377564, Control_c, 0, 67, 44
1, 377568, Note_off_c, 0, 59, 63
1, 377578, Control_c, 0, 67, 43
1, 377593, Note_off_c, 0, 71, 60
1, 377593, Control_c, 0, 67, 43
1, 377608, Control_c, 0, 67, 42
1, 377623, Control_c, 0, 64, 54
1, 377623, Control_c, 0, 67, 41
1, 377638, Control_c, 0, 64, 69
1, 377638, Control_c, 0, 67, 41
1, 377640, Note_on_c, 0, 76, 69
1, 377652, Control_c, 0, 64, 85
1, 377652, Control_c, 0, 67, 40
1, 377657, Note_on_c, 0, 64, 50
1, 377660, Note_off_c, 0, 76, 66
1, 377667, Control_c, 0, 64, 104
1, 377680, Note_off_c, 0, 64, 61
1, 377682, Control_c, 0, 64, 127
1, 377682, Control_c, 0, 67, 39
1, 377697, Control_c, 0, 67, 38
1, 377711, Control_c, 0, 67, 38
1, 377726, Control_c, 0, 67, 37
1, 377753, Note_on_c, 0, 64, 67
1, 377756, Note_on_c, 0, 52, 63
1, 377768, Note_on_c, 0, 76, 68
1, 377770, Note_on_c, 0, 80, 75
1, 377771, Note_on_c, 0, 88, 77
1, 377777, Note_off_c, 0, 52, 62
1, 377783, Note_off_c, 0, 64, 64
1, 377786, Note_off_c, 0, 76, 67
1, 377786, Note_off_c, 0, 88, 68
1, 377790, Note_off_c, 0, 80, 70
1, 377796, Note_on_c, 0, 59, 20
1, 377816, Control_c, 0, 67, 38
1, 377834, Note_off_c, 0, 59, 0
1, 377852, Note_on_c, 0, 63, 87
1, 377856, Note_on_c, 0, 87, 95
1, 377858, Note_on_c, 0, 75, 93
1, 377871, Poly_aftertouch_c, 0, 59, 127
1, 377874, Note_off_c, 0, 87, 72
1, 377875, Note_off_c, 0, 75, 73
1, 377883, Note_off_c, 0, 63, 55
1, 377931, Poly_aftertouch_c, 0, 59, 0
1, 377943, Note_on_c, 0, 54, 82
1, 377946, Note_on_c, 0, 81, 88
1, 377948, Note_on_c, 0, 60, 72
1, 377949, Note_on_c, 0, 74, 90
1, 377950, Note_on_c, 0, 86, 82
1, 377956, Control_c, 0, 67, 37
1, 377966, Note_off_c, 0, 74, 72
1, 377969, Note_off_c, 0, 81, 65
1, 377969, Note_off_c, 0, 86, 72
1, 377971, Control_c, 0, 67, 37
1, 377981, Note_on_c, 0, 62, 20
1, 378001, Control_c, 0, 67, 36
1, 378022, Note_on_c, 0, 59, 75
1, 378023, Note_off_c, 0, 62, 45
1, 378031, Note_on_c, 0, 77, 84
1, 378034, Note_off_c, 0, 54, 58
1, 378036, Note_on_c, 0, 86, 77
1, 378037, Note_on_c, 0, 74, 86
1, 378048, Note_off_c, 0, 77, 73
1, 378050, Note_off_c, 0, 86, 69
1, 378053, Note_off_c, 0, 74, 70
1, 378058, Note_off_c, 0, 60, 36
1, 378075, Control_c, 0, 67, 39
1, 378090, Control_c, 0, 67, 43
1, 378099, Note_on_c, 0, 62, 79
1, 378102, Note_off_c, 0, 59, 41
1, 378105, Control_c, 0, 67, 49
1, 378105, Note_on_c, 0, 56, 76
1, 378119, Control_c, 0, 67, 62
1, 378120, Note_off_c, 0, 62, 70
1, 378121, Note_on_c, 0, 83, 79
1, 378122, Note_on_c, 0, 71, 79
1, 378129, Note_off_c, 0, 56, 67
1, 378134, Control_c, 0, 64, 72
1, 378134, Control_c, 0, 67, 96
1, 378135, Note_off_c, 0, 83, 68
1, 378138, Note_off_c, 0, 71, 68
1, 378147, Note_on_c, 0, 75, 32
1, 378149, Control_c, 0, 64, 0
1, 378149, Control_c, 0, 67, 127
1, 378170, Note_off_c, 0, 75, 36
1, 378212, Note_on_c, 0, 57, 82
1, 378226, Note_on_c, 0, 45, 59
1, 378233, Note_off_c, 0, 57, 71
1, 378255, Note_off_c, 0, 45, 38
1, 378311, Note_on_c, 0, 59, 76
1, 378323, Note_on_c, 0, 47, 62
1, 378332, Note_off_c, 0, 59, 71
1, 378344, Note_off_c, 0, 47, 64
1, 378357, Control_c, 0, 67, 70
1, 378372, Control_c, 0, 67, 0
1, 378402, Note_on_c, 0, 57, 74
1, 378410, Note_on_c, 0, 45, 60
1, 378427, Note_off_c, 0, 57, 69
1, 378435, Note_off_c, 0, 45, 60
1, 378491, Control_c, 0, 64, 35
1, 378495, Note_on_c, 0, 56, 76
1, 378498, Note_on_c, 0, 73, 75
1, 378504, Note_on_c, 0, 44, 56
1, 378506, Control_c, 0, 64, 65
1, 378509, Note_on_c, 0, 61, 57
1, 378509, Note_on_c, 0, 64, 48
1, 378519, Note_off_c, 0, 56, 65
1, 378521, Control_c, 0, 64, 82
1, 378531, Note_off_c, 0, 44, 59
1, 378531, Note_off_c, 0, 61, 60
1, 378532, Note_off_c, 0, 64, 59
1, 378535, Control_c, 0, 64, 127
1, 378604, Note_on_c, 0, 57, 73
1, 378617, Note_on_c, 0, 68, 67
1, 378620, Note_on_c, 0, 45, 34
1, 378623, Note_on_c, 0, 64, 47
1, 378624, Note_off_c, 0, 73, 59
1, 378630, Note_off_c, 0, 57, 67
1, 378645, Note_off_c, 0, 64, 60
1, 378646, Note_on_c, 0, 62, 23
1, 378656, Note_off_c, 0, 45, 52
1, 378683, Note_off_c, 0, 62, 49
1, 378704, Note_on_c, 0, 59, 80
1, 378716, Note_off_c, 0, 68, 29
1, 378721, Control_c, 0, 64, 97
1, 378721, Control_c, 0, 67, 20
1, 378725, Note_off_c, 0, 59, 72
1, 378735, Control_c, 0, 64, 69
1, 378735, Control_c, 0, 67, 27
1, 378746, Note_on_c, 0, 47, 4
1, 378750, Control_c, 0, 64, 0
1, 378750, Control_c, 0, 67, 42
1, 378765, Control_c, 0, 67, 68
1, 378780, Control_c, 0, 67, 99
1, 378791, Note_on_c, 0, 61, 75
1, 378795, Control_c, 0, 67, 127
1, 378797, Note_off_c, 0, 47, 35
1, 378800, Note_on_c, 0, 49, 58
1, 378805, Poly_aftertouch_c, 0, 54, 0
1, 378814, Note_off_c, 0, 61, 68
1, 378831, Note_off_c, 0, 49, 64
1, 378874, Note_on_c, 0, 60, 77
1, 378882, Note_on_c, 0, 48, 63
1, 378898, Note_off_c, 0, 60, 71
1, 378903, Note_off_c, 0, 48, 62
1, 378964, Note_on_c, 0, 62, 82
1, 378975, Note_on_c, 0, 50, 66
1, 378985, Note_off_c, 0, 62, 71
1, 378996, Note_off_c, 0, 50, 63
1, 379059, Note_on_c, 0, 61, 72
1, 379061, Control_c, 0, 64, 61
1, 379066, Note_on_c, 0, 49, 62
1, 379076, Control_c, 0, 64, 74
1, 379078, Note_on_c, 0, 69, 53
1, 379083, Note_off_c, 0, 61, 67
1, 379089, Note_off_c, 0, 49, 64
1, 379091, Note_on_c, 0, 64, 19
1, 379091, Control_c, 0, 64, 93
1, 379099, Note_off_c, 0, 69, 63
1, 379106, Control_c, 0, 64, 127
1, 379127, Note_off_c, 0, 64, 43
1, 379157, Note_on_c, 0, 59, 85
1, 379166, Note_on_c, 0, 47, 69
1, 379177, Note_off_c, 0, 59, 71
1, 379182, Note_on_c, 0, 73, 82
1, 379196, Note_off_c, 0, 47, 67
1, 379203, Note_on_c, 0, 64, 38
1, 379232, Note_off_c, 0, 64, 52
1, 379244, Note_off_c, 0, 73, 52
1, 379252, Note_on_c, 0, 57, 87
1, 379268, Note_on_c, 0, 45, 65
1, 379270, Note_off_c, 0, 57, 72
1, 379292, Note_off_c, 0, 45, 64
1, 379353, Note_on_c, 0, 54, 91
1, 379360, Note_on_c, 0, 42, 70
1, 379375, Note_off_c, 0, 54, 67
1, 379387, Note_off_c, 0, 42, 66
1, 379452, Note_on_c, 0, 57, 90
1, 379466, Note_on_c, 0, 47, 56
1, 379471, Note_off_c, 0, 57, 69
1, 379485, Note_off_c, 0, 47, 64
1, 379514, Control_c, 0, 64, 104
1, 379529, Control_c, 0, 64, 79
1, 379544, Control_c, 0, 64, 54
1, 379557, Note_on_c, 0, 64, 83
1, 379558, Control_c, 0, 64, 0
1, 379577, Note_off_c, 0, 64, 71
1, 379586, Note_on_c, 0, 52, 29
1, 379629, Note_off_c, 0, 52, 32
1, 379633, Note_on_c, 0, 74, 91
1, 379644, Note_on_c, 0, 69, 67
1, 379653, Note_on_c, 0, 66, 84
1, 379655, Note_on_c, 0, 54, 60
1, 379664, Note_off_c, 0, 69, 66
1, 379672, Note_off_c, 0, 66, 71
1, 379677, Note_off_c, 0, 54, 65
1, 379741, Note_on_c, 0, 69, 73
1, 379753, Note_on_c, 0, 57, 67
1, 379765, Control_c, 0, 67, 113
1, 379780, Control_c, 0, 67, 68
1, 379784, Note_off_c, 0, 57, 65
1, 379790, Note_off_c, 0, 69, 60
1, 379791, Note_off_c, 0, 74, 59
1, 379795, Control_c, 0, 67, 19
1, 379810, Control_c, 0, 67, 0
1, 379842, Note_on_c, 0, 73, 73
1, 379851, Note_on_c, 0, 61, 71
1, 379887, Note_off_c, 0, 61, 59
1, 379919, Note_off_c, 0, 73, 57
1, 379959, Control_c, 0, 64, 45
1, 379967, Note_on_c, 0, 74, 66
1, 379974, Control_c, 0, 64, 65
1, 379983, Note_off_c, 0, 74, 64
1, 379984, Note_on_c, 0, 62, 59
1, 379989, Control_c, 0, 64, 77
1, 380004, Control_c, 0, 64, 105
1, 380019, Control_c, 0, 64, 127
1, 380019, Note_off_c, 0, 62, 65
1, 380070, Note_on_c, 0, 74, 83
1, 380088, Note_on_c, 0, 86, 73
1, 380099, Note_off_c, 0, 74, 67
1, 380103, Note_off_c, 0, 86, 67
1, 380144, Control_c, 0, 67, 22
1, 380159, Control_c, 0, 67, 28
1, 380174, Note_on_c, 0, 86, 78
1, 380174, Control_c, 0, 67, 34
1, 380181, Note_on_c, 0, 74, 82
1, 380189, Control_c, 0, 67, 41
1, 380193, Note_off_c, 0, 86, 71
1, 380202, Note_off_c, 0, 74, 70
1, 380203, Control_c, 0, 67, 46
1, 380218, Control_c, 0, 67, 47
1, 380262, Note_on_c, 0, 86, 84
1, 380263, Note_on_c, 0, 74, 86
1, 380281, Note_off_c, 0, 86, 69
1, 380287, Note_off_c, 0, 74, 67
1, 380322, Control_c, 0, 67, 47
1, 380337, Control_c, 0, 67, 46
1, 380354, Note_on_c, 0, 74, 77
1, 380354, Note_on_c, 0, 86, 84
1, 380373, Note_off_c, 0, 86, 70
1, 380377, Note_off_c, 0, 74, 67
1, 380396, Control_c, 0, 64, 115
1, 380396, Control_c, 0, 67, 46
1, 380411, Control_c, 0, 64, 76
1, 380425, Control_c, 0, 64, 55
1, 380425, Control_c, 0, 67, 45
1, 380436, Note_on_c, 0, 86, 73
1, 380440, Note_on_c, 0, 74, 71
1, 380440, Control_c, 0, 64, 0
1, 380455, Control_c, 0, 64, 45
1, 380455, Control_c, 0, 67, 45
1, 380457, Note_off_c, 0, 86, 68
1, 380458, Note_off_c, 0, 74, 67
1, 380470, Control_c, 0, 64, 63
1, 380485, Control_c, 0, 64, 74
1, 380485, Control_c, 0, 67, 45
1, 380499, Control_c, 0, 64, 92
1, 380499, Control_c, 0, 67, 46
1, 380514, Control_c, 0, 64, 127
1, 380514, Control_c, 0, 67, 49
1, 380521, Note_on_c, 0, 74, 72
1, 380529, Control_c, 0, 67, 54
1, 380534, Note_on_c, 0, 86, 65
1, 380544, Note_off_c, 0, 74, 69
1, 380544, Control_c, 0, 67, 69
1, 380552, Note_off_c, 0, 86, 64
1, 380559, Control_c, 0, 67, 89
1, 380574, Control_c, 0, 67, 106
1, 380588, Control_c, 0, 67, 119
1, 380603, Control_c, 0, 67, 127
1, 380649, Note_on_c, 0, 80, 66
1, 380652, Note_on_c, 0, 68, 70
1, 380667, Note_off_c, 0, 80, 66
1, 380672, Note_off_c, 0, 68, 67
1, 380679, Note_on_c, 0, 59, 29
1, 380680, Note_on_c, 0, 52, 23
1, 380682, Note_on_c, 0, 62, 27
1, 380719, Note_off_c, 0, 52, 52
1, 380719, Note_off_c, 0, 62, 50
1, 380725, Note_off_c, 0, 59, 49
1, 380740, Note_on_c, 0, 68, 69
1, 380740, Note_on_c, 0, 80, 70
1, 380776, Note_off_c, 0, 68, 57
1, 380776, Note_off_c, 0, 80, 58
1, 380816, Note_on_c, 0, 62, 52
1, 380835, Note_on_c, 0, 52, 50
1, 380842, Note_on_c, 0, 59, 51
1, 380852, Note_on_c, 0, 68, 65
1, 380856, Note_on_c, 0, 80, 71
1, 380862, Note_off_c, 0, 52, 60
1, 380865, Note_off_c, 0, 62, 58
1, 380879, Note_off_c, 0, 59, 62
1, 380881, Note_off_c, 0, 80, 66
1, 380886, Note_off_c, 0, 68, 64
1, 380953, Note_on_c, 0, 80, 70
1, 380955, Note_on_c, 0, 68, 71
1, 380976, Note_on_c, 0, 52, 50
1, 380978, Note_off_c, 0, 80, 66
1, 380982, Note_off_c, 0, 68, 66
1, 380987, Note_on_c, 0, 62, 51
1, 380990, Note_on_c, 0, 59, 54
1, 381011, Control_c, 0, 64, 88
1, 381013, Note_off_c, 0, 62, 59
1, 381018, Note_off_c, 0, 52, 57
1, 381026, Control_c, 0, 64, 65
1, 381038, Note_off_c, 0, 59, 51
1, 381041, Control_c, 0, 64, 0
1, 381061, Note_on_c, 0, 80, 68
1, 381074, Note_on_c, 0, 68, 59
1, 381085, Control_c, 0, 64, 51
1, 381086, Note_off_c, 0, 80, 67
1, 381096, Note_off_c, 0, 68, 61
1, 381100, Control_c, 0, 64, 66
1, 381110, Note_on_c, 0, 62, 51
1, 381115, Control_c, 0, 64, 78
1, 381129, Note_on_c, 0, 59, 35
1, 381129, Control_c, 0, 64, 98
1, 381134, Note_on_c, 0, 52, 51
1, 381135, Note_off_c, 0, 62, 63
1, 381144, Control_c, 0, 64, 127
1, 381156, Note_off_c, 0, 59, 55
1, 381160, Note_on_c, 0, 80, 66
1, 381162, Note_off_c, 0, 52, 55
1, 381175, Note_on_c, 0, 68, 63
1, 381189, Note_off_c, 0, 80, 60
1, 381199, Note_off_c, 0, 68, 63
1, 381280, Note_on_c, 0, 68, 60
1, 381290, Note_on_c, 0, 80, 49
1, 381303, Note_off_c, 0, 68, 60
1, 381315, Note_off_c, 0, 80, 57
1, 381364, Note_on_c, 0, 47, 54
1, 381390, Note_on_c, 0, 68, 59
1, 381392, Note_on_c, 0, 80, 56
1, 381393, Note_off_c, 0, 47, 64
1, 381417, Note_off_c, 0, 68, 56
1, 381417, Note_off_c, 0, 80, 56
1, 381422, Note_on_c, 0, 50, 60
1, 381451, Note_off_c, 0, 50, 64
1, 381500, Note_on_c, 0, 80, 60
1, 381500, Note_on_c, 0, 56, 54
1, 381505, Note_on_c, 0, 68, 60
1, 381524, Note_off_c, 0, 56, 57
1, 381530, Note_off_c, 0, 80, 65
1, 381531, Note_off_c, 0, 68, 65
1, 381616, Note_on_c, 0, 81, 75
1, 381618, Note_on_c, 0, 69, 71
1, 381637, Note_off_c, 0, 69, 65
1, 381639, Note_off_c, 0, 81, 68
1, 381707, Note_on_c, 0, 83, 87
1, 381709, Note_on_c, 0, 71, 80
1, 381725, Note_off_c, 0, 83, 72
1, 381736, Note_off_c, 0, 71, 66
1, 381760, Control_c, 0, 67, 94
1, 381775, Control_c, 0, 67, 44
1, 381790, Control_c, 0, 64, 107
1, 381790, Control_c, 0, 67, 0
1, 381803, Note_on_c, 0, 57, 93
1, 381804, Control_c, 0, 64, 71
1, 381813, Note_on_c, 0, 45, 74
1, 381819, Control_c, 0, 64, 0
1, 381822, Note_off_c, 0, 57, 72
1, 381833, Note_off_c, 0, 45, 63
1, 381906, Note_on_c, 0, 59, 86
1, 381914, Poly_aftertouch_c, 0, 51, 0
1, 381915, Note_on_c, 0, 47, 76
1, 381926, Note_off_c, 0, 59, 68
1, 381938, Note_off_c, 0, 47, 68
1, 381995, Note_on_c, 0, 57, 82
1, 382011, Note_on_c, 0, 45, 56
1, 382016, Note_off_c, 0, 57, 70
1, 382037, Note_off_c, 0, 45, 58
1, 382083, Note_on_c, 0, 56, 78
1, 382088, Note_on_c, 0, 61, 74
1, 382090, Note_on_c, 0, 44, 64
1, 382099, Note_on_c, 0, 64, 48
1, 382104, Note_off_c, 0, 56, 66
1, 382107, Note_on_c, 0, 72, 59
1, 382112, Note_off_c, 0, 61, 68
1, 382116, Control_c, 0, 64, 56
1, 382120, Note_off_c, 0, 44, 66
1, 382123, Note_off_c, 0, 64, 60
1, 382131, Control_c, 0, 64, 80
1, 382146, Control_c, 0, 64, 127
1, 382154, Note_off_c, 0, 72, 53
1, 382177, Note_on_c, 0, 57, 88
1, 382184, Note_on_c, 0, 45, 69
1, 382195, Note_on_c, 0, 68, 69
1, 382198, Note_off_c, 0, 57, 70
1, 382206, Note_off_c, 0, 45, 61
1, 382207, Note_on_c, 0, 64, 41
1, 382211, Note_on_c, 0, 62, 47
1, 382231, Note_off_c, 0, 64, 57
1, 382233, Note_off_c, 0, 68, 57
1, 382237, Note_off_c, 0, 62, 57
1, 382281, Note_on_c, 0, 59, 87
1, 382299, Note_off_c, 0, 59, 73
1, 382305, Note_on_c, 0, 47, 44
1, 382343, Note_off_c, 0, 47, 58
1, 382377, Note_on_c, 0, 61, 90
1, 382377, Control_c, 0, 64, 97
1, 382383, Note_on_c, 0, 49, 72
1, 382391, Control_c, 0, 64, 68
1, 382400, Note_off_c, 0, 61, 65
1, 382406, Control_c, 0, 64, 0
1, 382414, Note_off_c, 0, 49, 67
1, 382424, Poly_aftertouch_c, 0, 54, 0
1, 382469, Note_on_c, 0, 60, 87
1, 382484, Note_on_c, 0, 48, 65
1, 382493, Note_off_c, 0, 60, 69
1, 382507, Note_off_c, 0, 48, 61
1, 382556, Note_on_c, 0, 62, 87
1, 382576, Note_on_c, 0, 50, 37
1, 382579, Note_on_c, 0, 52, 49
1, 382579, Note_off_c, 0, 62, 68
1, 382606, Note_off_c, 0, 50, 51
1, 382607, Note_off_c, 0, 52, 56
1, 382648, Note_on_c, 0, 61, 88
1, 382657, Control_c, 0, 64, 60
1, 382659, Note_on_c, 0, 49, 66
1, 382663, Note_on_c, 0, 64, 70
1, 382668, Note_on_c, 0, 69, 65
1, 382670, Note_off_c, 0, 61, 68
1, 382672, Control_c, 0, 64, 77
1, 382687, Control_c, 0, 64, 105
1, 382689, Note_off_c, 0, 49, 65
1, 382691, Note_off_c, 0, 64, 65
1, 382695, Note_off_c, 0, 69, 68
1, 382701, Control_c, 0, 64, 127
1, 382742, Poly_aftertouch_c, 0, 51, 0
1, 382750, Note_on_c, 0, 59, 90
1, 382761, Note_on_c, 0, 47, 72
1, 382773, Note_on_c, 0, 73, 89
1, 382773, Note_off_c, 0, 59, 64
1, 382776, Poly_aftertouch_c, 0, 51, 0
1, 382785, Note_on_c, 0, 64, 59
1, 382789, Note_off_c, 0, 47, 66
1, 382802, Note_off_c, 0, 64, 67
1, 382826, Poly_aftertouch_c, 0, 51, 0
1, 382836, Note_off_c, 0, 73, 59
1, 382844, Note_on_c, 0, 57, 90
1, 382865, Note_off_c, 0, 57, 69
1, 382880, Control_c, 0, 64, 90
1, 382881, Note_on_c, 0, 45, 40
1, 382895, Control_c, 0, 64, 62
1, 382909, Control_c, 0, 64, 0
1, 382912, Note_off_c, 0, 45, 49
1, 382930, Poly_aftertouch_c, 0, 47, 0
1, 382937, Note_on_c, 0, 54, 86
1, 382939, Control_c, 0, 64, 53
1, 382943, Note_on_c, 0, 42, 68
1, 382953, Control_c, 0, 64, 69
1, 382958, Note_off_c, 0, 54, 70
1, 382968, Control_c, 0, 64, 95
1, 382970, Note_off_c, 0, 42, 66
1, 382983, Control_c, 0, 64, 127
1, 383039, Note_on_c, 0, 57, 87
1, 383045, Note_on_c, 0, 47, 67
1, 383059, Note_on_c, 0, 59, 50
1, 383059, Note_off_c, 0, 59, 127
1, 383065, Note_off_c, 0, 57, 66
1, 383066, Note_off_c, 0, 47, 63
1, 383131, Note_on_c, 0, 69, 77
1, 383143, Note_on_c, 0, 62, 93
1, 383162, Note_on_c, 0, 50, 57
1, 383167, Note_off_c, 0, 62, 66
1, 383186, Note_off_c, 0, 50, 59
1, 383190, Note_off_c, 0, 69, 62
1, 383246, Note_on_c, 0, 78, 100
1, 383250, Note_on_c, 0, 54, 74
1, 383254, Note_on_c, 0, 63, 59
1, 383254, Note_off_c, 0, 63, 127
1, 383258, Note_on_c, 0, 65, 62
1, 383265, Note_off_c, 0, 54, 69
1, 383272, Note_on_c, 0, 64, 33
1, 383282, Note_off_c, 0, 65, 61
1, 383307, Note_off_c, 0, 64, 46
1, 383343, Note_on_c, 0, 69, 87
1, 383351, Note_on_c, 0, 57, 75
1, 383388, Note_off_c, 0, 78, 58
1, 383396, Note_off_c, 0, 57, 48
1, 383432, Note_on_c, 0, 74, 84
1, 383438, Note_on_c, 0, 62, 82
1, 383444, Note_off_c, 0, 69, 52
1, 383450, Control_c, 0, 64, 83
1, 383465, Control_c, 0, 64, 55
1, 383480, Control_c, 0, 64, 0
1, 383489, Note_off_c, 0, 62, 64
1, 383507, Note_off_c, 0, 74, 55
1, 383524, Control_c, 0, 64, 48
1, 383529, Note_on_c, 0, 66, 90
1, 383530, Note_on_c, 0, 78, 82
1, 383539, Control_c, 0, 64, 70
1, 383547, Note_off_c, 0, 66, 70
1, 383549, Note_off_c, 0, 78, 72
1, 383554, Control_c, 0, 64, 102
1, 383569, Control_c, 0, 64, 127
1, 383626, Note_on_c, 0, 78, 81
1, 383637, Note_on_c, 0, 90, 75
1, 383645, Note_off_c, 0, 78, 72
1, 383658, Note_off_c, 0, 90, 66
1, 383706, Note_on_c, 0, 90, 86
1, 383709, Note_on_c, 0, 78, 80
1, 383722, Note_off_c, 0, 90, 73
1, 383730, Note_off_c, 0, 78, 68
1, 383784, Note_on_c, 0, 78, 77
1, 383788, Note_on_c, 0, 90, 80
1, 383804, Note_off_c, 0, 78, 70
1, 383807, Note_off_c, 0, 90, 71
1, 383867, Note_on_c, 0, 71, 77
1, 383873, Note_on_c, 0, 78, 81
1, 383875, Note_on_c, 0, 90, 82
1, 383876, Note_on_c, 0, 62, 60
1, 383894, Note_off_c, 0, 78, 70
1, 383894, Note_off_c, 0, 90, 68
1, 383894, Note_off_c, 0, 71, 60
1, 383922, Note_off_c, 0, 62, 55
1, 383957, Note_on_c, 0, 78, 87
1, 383960, Note_on_c, 0, 90, 87
1, 383980, Note_off_c, 0, 78, 66
1, 383986, Note_off_c, 0, 90, 57
1, 384009, Note_on_c, 0, 61, 66
1, 384019, Note_on_c, 0, 69, 52
1, 384034, Note_on_c, 0, 90, 88
1, 384034, Note_on_c, 0, 78, 84
1, 384035, Note_off_c, 0, 61, 63
1, 384060, Note_off_c, 0, 69, 49
1, 384064, Note_off_c, 0, 78, 60
1, 384067, Control_c, 0, 64, 92
1, 384075, Note_off_c, 0, 90, 66
1, 384082, Control_c, 0, 64, 63
1, 384097, Control_c, 0, 64, 0
1, 384107, Poly_aftertouch_c, 0, 90, 0
1, 384114, Note_on_c, 0, 90, 73
1, 384117, Note_on_c, 0, 78, 70
1, 384126, Control_c, 0, 64, 61
1, 384141, Control_c, 0, 64, 86
1, 384142, Note_off_c, 0, 78, 66
1, 384156, Note_on_c, 0, 68, 74
1, 384156, Control_c, 0, 64, 127
1, 384161, Note_off_c, 0, 90, 61
1, 384168, Note_on_c, 0, 59, 62
1, 384179, Note_off_c, 0, 68, 69
1, 384184, Note_on_c, 0, 90, 68
1, 384189, Note_on_c, 0, 78, 86
1, 384190, Note_on_c, 0, 62, 35
1, 384194, Note_off_c, 0, 59, 66
1, 384221, Note_off_c, 0, 90, 66
1, 384224, Note_off_c, 0, 62, 53
1, 384230, Note_off_c, 0, 78, 63
1, 384327, Note_on_c, 0, 70, 65
1, 384338, Note_on_c, 0, 80, 48
1, 384339, Note_on_c, 0, 40, 50
1, 384344, Note_off_c, 0, 70, 64
1, 384362, Note_off_c, 0, 80, 58
1, 384404, Note_on_c, 0, 47, 67
1, 384404, Note_off_c, 0, 40, 59
1, 384417, Note_on_c, 0, 68, 78
1, 384424, Note_on_c, 0, 80, 70
1, 384432, Note_off_c, 0, 47, 66
1, 384442, Note_off_c, 0, 68, 68
1, 384442, Note_off_c, 0, 80, 67
1, 384466, Note_on_c, 0, 50, 62
1, 384493, Note_off_c, 0, 50, 64
1, 384502, Note_on_c, 0, 80, 86
1, 384510, Note_on_c, 0, 68, 82
1, 384524, Note_on_c, 0, 56, 78
1, 384526, Note_off_c, 0, 80, 63
1, 384533, Note_off_c, 0, 68, 70
1, 384550, Note_off_c, 0, 56, 67
1, 384601, Note_on_c, 0, 68, 83
1, 384602, Note_on_c, 0, 80, 83
1, 384619, Note_off_c, 0, 68, 73
1, 384620, Note_off_c, 0, 80, 72
1, 384675, Note_on_c, 0, 68, 82
1, 384677, Note_on_c, 0, 80, 89
1, 384699, Note_off_c, 0, 68, 67
1, 384699, Note_off_c, 0, 80, 60
1, 384755, Note_on_c, 0, 68, 80
1, 384761, Note_on_c, 0, 80, 79
1, 384777, Note_off_c, 0, 68, 62
1, 384783, Note_off_c, 0, 80, 68
1, 384833, Note_on_c, 0, 68, 60
1, 384834, Note_on_c, 0, 80, 83
1, 384854, Note_off_c, 0, 68, 60
1, 384881, Note_off_c, 0, 80, 63
1, 384936, Note_on_c, 0, 80, 72
1, 384939, Note_on_c, 0, 68, 74
1, 384968, Note_off_c, 0, 80, 62
1, 384991, Note_off_c, 0, 68, 63
1, 385005, Note_on_c, 0, 81, 88
1, 385016, Note_on_c, 0, 69, 68
1, 385059, Note_off_c, 0, 81, 62
1, 385064, Note_on_c, 0, 82, 90
1, 385076, Note_on_c, 0, 70, 81
1, 385079, Note_off_c, 0, 69, 57
1, 385101, Note_off_c, 0, 82, 64
1, 385119, Note_off_c, 0, 70, 60
1, 385127, Note_on_c, 0, 83, 93
1, 385134, Note_on_c, 0, 71, 83
1, 385179, Note_on_c, 0, 84, 94
1, 385188, Note_on_c, 0, 72, 85
1, 385189, Note_off_c, 0, 71, 64
1, 385207, Note_off_c, 0, 83, 64
1, 385231, Note_on_c, 0, 85, 86
1, 385241, Note_off_c, 0, 84, 63
1, 385253, Note_on_c, 0, 73, 77
1, 385254, Note_off_c, 0, 72, 64
1, 385256, Note_off_c, 0, 85, 67
1, 385283, Note_on_c, 0, 86, 89
1, 385289, Note_off_c, 0, 73, 64
1, 385294, Note_on_c, 0, 74, 78
1, 385331, Note_off_c, 0, 86, 63
1, 385350, Note_on_c, 0, 87, 84
1, 385363, Note_off_c, 0, 74, 61
1, 385368, Note_on_c, 0, 75, 74
1, 385370, Control_c, 0, 64, 104
1, 385372, Note_off_c, 0, 87, 69
1, 385385, Control_c, 0, 64, 82
1, 385399, Note_on_c, 0, 88, 87
1, 385400, Control_c, 0, 64, 66
1, 385401, Note_off_c, 0, 75, 62
1, 385415, Control_c, 0, 64, 46
1, 385427, Note_on_c, 0, 76, 72
1, 385429, Control_c, 0, 64, 0
1, 385448, Note_on_c, 0, 89, 84
1, 385466, Note_on_c, 0, 77, 75
1, 385468, Note_off_c, 0, 76, 0
1, 385485, Note_off_c, 0, 88, 37
1, 385491, Note_on_c, 0, 90, 98
1, 385502, Poly_aftertouch_c, 0, 76, 0
1, 385503, Note_off_c, 0, 89, 64
1, 385504, Control_c, 0, 64, 54
1, 385508, Note_on_c, 0, 78, 82
1, 385509, Note_off_c, 0, 77, 65
1, 385518, Note_off_c, 0, 90, 67
1, 385518, Control_c, 0, 64, 84
1, 385527, Note_off_c, 0, 78, 73
1, 385533, Control_c, 0, 64, 127
1, 385829, Note_on_c, 0, 66, 91
1, 385834, Note_on_c, 0, 78, 89
1, 385860, Control_c, 0, 64, 94
1, 385875, Control_c, 0, 64, 65
1, 385891, Control_c, 0, 64, 0
1, 385920, Control_c, 0, 64, 61
1, 385935, Control_c, 0, 64, 80
1, 385950, Control_c, 0, 64, 127
1, 386016, Note_off_c, 0, 66, 60
1, 386234, Note_on_c, 0, 68, 90
1, 386237, Note_on_c, 0, 80, 88
1, 386285, Note_off_c, 0, 78, 62
1, 386335, Note_on_c, 0, 45, 57
1, 386375, Note_off_c, 0, 45, 63
1, 386388, Control_c, 0, 64, 81
1, 386402, Control_c, 0, 64, 59
1, 386404, Note_on_c, 0, 52, 64
1, 386414, Note_on_c, 0, 78, 23
1, 386416, Note_on_c, 0, 74, 20
1, 386417, Control_c, 0, 64, 0
1, 386447, Control_c, 0, 64, 53
1, 386452, Note_off_c, 0, 68, 62
1, 386462, Control_c, 0, 64, 68
1, 386463, Note_off_c, 0, 80, 60
1, 386476, Control_c, 0, 64, 85
1, 386481, Note_off_c, 0, 74, 42
1, 386481, Note_off_c, 0, 78, 39
1, 386491, Control_c, 0, 64, 127
1, 386502, Note_on_c, 0, 61, 72
1, 386529, Note_off_c, 0, 61, 67
1, 386540, Note_off_c, 0, 52, 59
1, 386545, Note_on_c, 0, 81, 84
1, 386547, Note_on_c, 0, 69, 81
1, 386565, Note_off_c, 0, 81, 70
1, 386580, Note_off_c, 0, 69, 60
1, 386678, Note_on_c, 0, 75, 72
1, 386679, Note_on_c, 0, 63, 80
1, 386706, Note_off_c, 0, 63, 63
1, 386707, Note_on_c, 0, 40, 84
1, 386709, Note_off_c, 0, 75, 60
1, 386750, Note_off_c, 0, 40, 60
1, 386784, Note_on_c, 0, 64, 81
1, 386786, Note_on_c, 0, 76, 83
1, 386808, Note_off_c, 0, 64, 63
1, 386809, Note_off_c, 0, 76, 67
1, 386891, Note_on_c, 0, 57, 90
1, 386893, Note_on_c, 0, 78, 96
1, 386897, Note_on_c, 0, 52, 70
1, 386899, Note_on_c, 0, 66, 88
1, 386899, Note_on_c, 0, 73, 44
1, 386902, Note_on_c, 0, 49, 78
1, 386902, Poly_aftertouch_c, 0, 69, 0
1, 386905, Note_on_c, 0, 70, 67
1, 386920, Note_off_c, 0, 57, 63
1, 386925, Note_off_c, 0, 70, 57
1, 386926, Note_off_c, 0, 52, 65
1, 386928, Note_off_c, 0, 78, 66
1, 386938, Poly_aftertouch_c, 0, 69, 127
1, 386947, Note_off_c, 0, 66, 63
1, 386952, Note_off_c, 0, 73, 61
1, 386954, Note_off_c, 0, 49, 64
1, 386989, Poly_aftertouch_c, 0, 69, 0
1, 387012, Note_on_c, 0, 52, 89
1, 387015, Note_on_c, 0, 75, 85
1, 387022, Note_on_c, 0, 63, 76
1, 387041, Note_off_c, 0, 63, 65
1, 387048, Note_off_c, 0, 75, 59
1, 387059, Note_off_c, 0, 52, 57
1, 387116, Note_on_c, 0, 76, 86
1, 387119, Note_on_c, 0, 64, 58
1, 387125, Note_on_c, 0, 52, 60
1, 387135, Note_off_c, 0, 64, 66
1, 387151, Control_c, 0, 64, 94
1, 387158, Note_off_c, 0, 76, 65
1, 387166, Control_c, 0, 64, 63
1, 387177, Note_on_c, 0, 56, 74
1, 387181, Control_c, 0, 64, 0
1, 387211, Control_c, 0, 64, 44
1, 387221, Note_on_c, 0, 62, 99
1, 387225, Control_c, 0, 64, 71
1, 387240, Control_c, 0, 64, 127
1, 387258, Note_off_c, 0, 62, 66
1, 387280, Note_off_c, 0, 56, 63
1, 387292, Note_off_c, 0, 52, 62
1, 387330, Note_on_c, 0, 75, 83
1, 387331, Note_on_c, 0, 87, 85
1, 387359, Note_on_c, 0, 40, 80
1, 387372, Note_off_c, 0, 75, 60
1, 387373, Note_off_c, 0, 87, 66
1, 387388, Note_off_c, 0, 40, 63
1, 387429, Note_on_c, 0, 88, 90
1, 387429, Note_on_c, 0, 76, 90
1, 387444, Poly_aftertouch_c, 0, 83, 0
1, 387453, Note_off_c, 0, 76, 61
1, 387462, Note_on_c, 0, 83, 30
1, 387470, Note_off_c, 0, 88, 66
1, 387496, Note_off_c, 0, 83, 53
1, 387524, Note_on_c, 0, 56, 105
1, 387531, Note_on_c, 0, 90, 96
1, 387533, Note_on_c, 0, 50, 78
1, 387534, Note_on_c, 0, 78, 91
1, 387536, Note_on_c, 0, 83, 75
1, 387574, Note_off_c, 0, 56, 63
1, 387575, Note_on_c, 0, 87, 34
1, 387576, Note_off_c, 0, 90, 67
1, 387579, Note_off_c, 0, 50, 60
1, 387581, Note_off_c, 0, 78, 65
1, 387604, Note_off_c, 0, 83, 61
1, 387608, Note_off_c, 0, 87, 50
1, 387650, Note_on_c, 0, 75, 92
1, 387656, Note_on_c, 0, 87, 91
1, 387656, Note_on_c, 0, 40, 67
1, 387671, Note_off_c, 0, 75, 63
1, 387677, Note_on_c, 0, 39, 24
1, 387680, Note_off_c, 0, 87, 63
1, 387686, Note_off_c, 0, 40, 62
1, 387686, Note_on_c, 0, 82, 31
1, 387721, Note_off_c, 0, 39, 40
1, 387727, Note_off_c, 0, 82, 49
1, 387754, Note_on_c, 0, 76, 95
1, 387754, Note_on_c, 0, 88, 98
1, 387784, Note_off_c, 0, 76, 63
1, 387826, Note_off_c, 0, 88, 66
1, 387855, Control_c, 0, 64, 101
1, 387869, Control_c, 0, 64, 62
1, 387878, Note_on_c, 0, 57, 101
1, 387882, Poly_aftertouch_c, 0, 86, 0
1, 387884, Control_c, 0, 64, 0
1, 387885, Note_on_c, 0, 52, 85
1, 387887, Note_on_c, 0, 49, 85
1, 387896, Note_on_c, 0, 45, 62
1, 387914, Control_c, 0, 64, 42
1, 387926, Note_off_c, 0, 45, 63
1, 387929, Control_c, 0, 64, 73
1, 387945, Control_c, 0, 64, 127
1, 387954, Note_off_c, 0, 49, 64
1, 387956, Note_off_c, 0, 52, 63
1, 387973, Note_off_c, 0, 57, 66
1, 388061, Note_on_c, 0, 88, 94
1, 388067, Note_on_c, 0, 100, 82
1, 388072, Note_on_c, 0, 97, 69
1, 388091, Note_off_c, 0, 100, 71
1, 388097, Note_off_c, 0, 97, 67
1, 388104, Note_off_c, 0, 88, 60
1, 388118, Note_on_c, 0, 76, 63
1, 388121, Note_on_c, 0, 73, 61
1, 388171, Note_off_c, 0, 76, 37
1, 388177, Note_on_c, 0, 100, 86
1, 388177, Note_on_c, 0, 88, 85
1, 388180, Poly_aftertouch_c, 0, 64, 127
1, 388181, Note_on_c, 0, 97, 74
1, 388198, Note_off_c, 0, 100, 70
1, 388201, Note_off_c, 0, 88, 61
1, 388203, Note_off_c, 0, 73, 61
1, 388203, Note_off_c, 0, 97, 71
1, 388215, Poly_aftertouch_c, 0, 64, 0
1, 388275, Note_on_c, 0, 88, 89
1, 388277, Note_on_c, 0, 100, 80
1, 388279, Note_on_c, 0, 97, 77
1, 388285, Note_on_c, 0, 76, 75
1, 388287, Note_on_c, 0, 73, 65
1, 388301, Note_off_c, 0, 76, 63
1, 388301, Note_off_c, 0, 100, 69
1, 388304, Note_off_c, 0, 97, 66
1, 388318, Note_off_c, 0, 88, 48
1, 388345, Note_off_c, 0, 73, 57
1, 388375, Note_on_c, 0, 88, 89
1, 388381, Note_on_c, 0, 100, 85
1, 388389, Note_on_c, 0, 73, 57
1, 388389, Note_on_c, 0, 97, 72
1, 388391, Note_on_c, 0, 76, 56
1, 388411, Note_off_c, 0, 76, 61
1, 388416, Note_off_c, 0, 73, 67
1, 388428, Note_off_c, 0, 97, 54
1, 388429, Note_off_c, 0, 100, 66
1, 388433, Note_off_c, 0, 88, 63
1, 388478, Note_on_c, 0, 100, 67
1, 388479, Note_on_c, 0, 88, 75
1, 388496, Note_on_c, 0, 97, 67
1, 388532, Note_off_c, 0, 88, 64
1, 388559, Control_c, 0, 64, 82
1, 388562, Note_on_c, 0, 56, 70
1, 388568, Note_off_c, 0, 100, 61
1, 388574, Control_c, 0, 64, 59
1, 388588, Note_off_c, 0, 97, 56
1, 388589, Control_c, 0, 64, 0
1, 388604, Control_c, 0, 64, 51
1, 388610, Note_on_c, 0, 87, 84
1, 388610, Note_on_c, 0, 99, 77
1, 388616, Note_on_c, 0, 96, 73
1, 388619, Control_c, 0, 64, 69
1, 388627, Note_off_c, 0, 56, 62
1, 388633, Control_c, 0, 64, 92
1, 388648, Control_c, 0, 64, 127
1, 388660, Note_off_c, 0, 87, 64
1, 388671, Note_off_c, 0, 96, 61
1, 388678, Note_off_c, 0, 99, 62
1, 388720, Note_on_c, 0, 88, 91
1, 388722, Note_on_c, 0, 100, 81
1, 388732, Note_on_c, 0, 97, 79
1, 388751, Note_on_c, 0, 72, 63
1, 388755, Note_on_c, 0, 75, 69
1, 388763, Note_off_c, 0, 88, 62
1, 388768, Note_off_c, 0, 100, 66
1, 388782, Note_off_c, 0, 97, 64
1, 388785, Note_on_c, 0, 64, 30
1, 388794, Note_off_c, 0, 72, 58
1, 388812, Note_off_c, 0, 75, 63
1, 388818, Note_off_c, 0, 64, 45
1, 388828, Note_on_c, 0, 99, 79
1, 388830, Note_on_c, 0, 87, 95
1, 388835, Note_on_c, 0, 96, 79
1, 388872, Note_off_c, 0, 96, 56
1, 388878, Note_off_c, 0, 87, 62
1, 388881, Note_off_c, 0, 99, 63
1, 388916, Note_on_c, 0, 73, 72
1, 388917, Note_on_c, 0, 76, 61
1, 388922, Note_on_c, 0, 88, 86
1, 388926, Note_on_c, 0, 100, 79
1, 388935, Note_on_c, 0, 99, 39
1, 388936, Note_on_c, 0, 97, 70
1, 388938, Note_off_c, 0, 76, 65
1, 388945, Note_off_c, 0, 88, 63
1, 388946, Note_off_c, 0, 100, 69
1, 388961, Note_off_c, 0, 97, 69
1, 388964, Note_off_c, 0, 99, 58
1, 388969, Note_off_c, 0, 73, 61
1, 389000, Note_on_c, 0, 74, 81
1, 389018, Note_on_c, 0, 86, 93
1, 389018, Note_on_c, 0, 95, 83
1, 389020, Note_off_c, 0, 74, 71
1, 389023, Note_on_c, 0, 71, 63
1, 389026, Note_on_c, 0, 98, 74
1, 389036, Note_on_c, 0, 64, 61
1, 389041, Note_off_c, 0, 71, 66
1, 389042, Note_off_c, 0, 86, 59
1, 389042, Note_off_c, 0, 98, 70
1, 389055, Note_off_c, 0, 64, 63
1, 389070, Note_off_c, 0, 95, 65
1, 389122, Note_on_c, 0, 88, 99
1, 389127, Note_on_c, 0, 100, 86
1, 389130, Control_c, 0, 64, 107
1, 389135, Note_on_c, 0, 97, 76
1, 389144, Note_off_c, 0, 100, 74
1, 389145, Control_c, 0, 64, 65
1, 389157, Note_off_c, 0, 97, 70
1, 389160, Control_c, 0, 64, 0
1, 389162, Note_off_c, 0, 88, 67
1, 389190, Control_c, 0, 64, 57
1, 389198, Note_on_c, 0, 45, 55
1, 389204, Control_c, 0, 64, 75
1, 389218, Note_on_c, 0, 52, 75
1, 389219, Control_c, 0, 64, 127
1, 389224, Note_off_c, 0, 45, 54
1, 389258, Note_on_c, 0, 61, 95
1, 389287, Note_off_c, 0, 61, 59
1, 389295, Poly_aftertouch_c, 0, 50, 0
1, 389301, Note_off_c, 0, 52, 60
1, 389325, Poly_aftertouch_c, 0, 50, 0
1, 389367, Note_on_c, 0, 63, 78
1, 389385, Note_on_c, 0, 73, 49
1, 389385, Poly_aftertouch_c, 0, 51, 0
1, 389388, Note_off_c, 0, 63, 71
1, 389400, Note_on_c, 0, 40, 90
1, 389409, Note_off_c, 0, 73, 59
1, 389450, Note_off_c, 0, 40, 59
1, 389467, Note_on_c, 0, 64, 83
1, 389477, Note_on_c, 0, 76, 77
1, 389486, Note_off_c, 0, 64, 70
1, 389498, Note_off_c, 0, 76, 70
1, 389549, Poly_aftertouch_c, 0, 73, 0
1, 389564, Note_on_c, 0, 57, 93
1, 389566, Note_on_c, 0, 66, 90
1, 389567, Note_on_c, 0, 73, 37
1, 389567, Note_on_c, 0, 78, 90
1, 389577, Note_on_c, 0, 49, 70
1, 389583, Note_on_c, 0, 69, 17
1, 389584, Note_on_c, 0, 52, 60
1, 389585, Note_on_c, 0, 53, 60
1, 389588, Note_off_c, 0, 57, 67
1, 389590, Note_off_c, 0, 78, 66
1, 389610, Note_off_c, 0, 53, 61
1, 389614, Note_off_c, 0, 52, 64
1, 389614, Note_off_c, 0, 73, 65
1, 389616, Note_off_c, 0, 66, 61
1, 389627, Note_off_c, 0, 49, 61
1, 389627, Note_off_c, 0, 69, 48
1, 389659, Poly_aftertouch_c, 0, 70, 0
1, 389676, Note_on_c, 0, 75, 77
1, 389682, Note_on_c, 0, 63, 90
1, 389686, Note_on_c, 0, 52, 90
1, 389698, Note_off_c, 0, 63, 74
1, 389718, Note_off_c, 0, 75, 61
1, 389733, Note_off_c, 0, 52, 59
1, 389756, Poly_aftertouch_c, 0, 69, 127
1, 389784, Note_on_c, 0, 76, 85
1, 389785, Note_on_c, 0, 64, 78
1, 389789, Poly_aftertouch_c, 0, 69, 0
1, 389799, Note_on_c, 0, 52, 62
1, 389800, Note_off_c, 0, 64, 71
1, 389830, Note_on_c, 0, 73, 26
1, 389830, Note_off_c, 0, 76, 66
1, 389835, Control_c, 0, 64, 89
1, 389850, Control_c, 0, 64, 55
1, 389857, Note_on_c, 0, 56, 75
1, 389864, Control_c, 0, 64, 0
1, 389865, Note_off_c, 0, 73, 47
1, 389894, Control_c, 0, 64, 34
1, 389897, Note_on_c, 0, 62, 94
1, 389909, Control_c, 0, 64, 68
1, 389924, Control_c, 0, 64, 107
1, 389935, Note_off_c, 0, 62, 63
1, 389939, Control_c, 0, 64, 127
1, 389949, Note_off_c, 0, 56, 62
1, 389964, Note_off_c, 0, 52, 63
1, 389973, Poly_aftertouch_c, 0, 57, 127
1, 389999, Note_on_c, 0, 87, 93
1, 389999, Note_on_c, 0, 75, 88
1, 390018, Poly_aftertouch_c, 0, 57, 0
1, 390040, Note_off_c, 0, 75, 62
1, 390040, Note_off_c, 0, 87, 65
1, 390043, Note_on_c, 0, 40, 59
1, 390063, Note_on_c, 0, 41, 34
1, 390070, Note_off_c, 0, 40, 56
1, 390094, Note_on_c, 0, 76, 97
1, 390097, Note_on_c, 0, 88, 89
1, 390098, Note_off_c, 0, 41, 43
1, 390122, Note_on_c, 0, 83, 49
1, 390134, Note_off_c, 0, 76, 61
1, 390139, Note_off_c, 0, 88, 62
1, 390151, Note_off_c, 0, 83, 56
1, 390187, Note_on_c, 0, 56, 100
1, 390191, Note_on_c, 0, 50, 73
1, 390196, Note_on_c, 0, 90, 98
1, 390198, Note_on_c, 0, 78, 93
1, 390207, Note_on_c, 0, 83, 80
1, 390212, Note_on_c, 0, 87, 12
1, 390224, Note_off_c, 0, 56, 64
1, 390230, Note_off_c, 0, 90, 69
1, 390236, Note_off_c, 0, 78, 64
1, 390239, Note_off_c, 0, 50, 61
1, 390258, Note_off_c, 0, 83, 60
1, 390263, Note_off_c, 0, 87, 38
1, 390300, Note_on_c, 0, 75, 91
1, 390300, Note_on_c, 0, 87, 88
1, 390301, Note_on_c, 0, 83, 59
1, 390303, Note_on_c, 0, 40, 75
1, 390320, Note_off_c, 0, 83, 62
1, 390329, Note_off_c, 0, 40, 65
1, 390343, Note_off_c, 0, 75, 59
1, 390343, Note_off_c, 0, 87, 63
1, 390408, Note_on_c, 0, 88, 99
1, 390409, Note_on_c, 0, 76, 101
1, 390432, Note_off_c, 0, 76, 57
1, 390470, Note_off_c, 0, 88, 65
1, 390502, Control_c, 0, 64, 85
1, 390517, Control_c, 0, 64, 47
1, 390522, Note_on_c, 0, 57, 102
1, 390524, Note_on_c, 0, 52, 89
1, 390529, Note_on_c, 0, 49, 81
1, 390531, Note_on_c, 0, 45, 69
1, 390532, Control_c, 0, 64, 0
1, 390566, Note_off_c, 0, 45, 65
1, 390568, Control_c, 0, 64, 63
1, 390583, Control_c, 0, 64, 106
1, 390598, Control_c, 0, 64, 127
1, 390602, Note_on_c, 0, 94, 48
1, 390605, Note_off_c, 0, 52, 64
1, 390609, Note_off_c, 0, 49, 64
1, 390616, Note_off_c, 0, 57, 64
1, 390633, Note_off_c, 0, 94, 58
1, 390643, Poly_aftertouch_c, 0, 46, 0
1, 390663, Poly_aftertouch_c, 0, 88, 0
1, 390714, Note_on_c, 0, 88, 73
1, 390718, Note_on_c, 0, 100, 73
1, 390723, Note_on_c, 0, 97, 68
1, 390736, Note_off_c, 0, 100, 70
1, 390739, Note_off_c, 0, 88, 66
1, 390750, Note_off_c, 0, 97, 67
1, 390761, Note_on_c, 0, 89, 4
1, 390778, Note_on_c, 0, 73, 64
1, 390783, Note_on_c, 0, 76, 59
1, 390820, Note_on_c, 0, 88, 89
1, 390820, Note_off_c, 0, 89, 33
1, 390821, Note_on_c, 0, 100, 74
1, 390824, Note_off_c, 0, 76, 59
1, 390834, Note_on_c, 0, 97, 66
1, 390841, Note_off_c, 0, 73, 57
1, 390848, Note_off_c, 0, 100, 66
1, 390853, Note_off_c, 0, 97, 68
1, 390854, Note_off_c, 0, 88, 59
1, 390928, Note_on_c, 0, 88, 87
1, 390930, Note_on_c, 0, 97, 71
1, 390931, Note_on_c, 0, 100, 82
1, 390935, Note_on_c, 0, 76, 76
1, 390938, Note_on_c, 0, 73, 74
1, 390947, Note_off_c, 0, 100, 71
1, 390950, Note_off_c, 0, 76, 68
1, 390951, Note_off_c, 0, 88, 65
1, 390953, Note_off_c, 0, 97, 70
1, 390978, Note_off_c, 0, 73, 57
1, 391015, Note_on_c, 0, 100, 83
1, 391021, Note_on_c, 0, 88, 91
1, 391026, Note_on_c, 0, 97, 81
1, 391035, Note_on_c, 0, 73, 67
1, 391047, Note_off_c, 0, 88, 61
1, 391047, Note_off_c, 0, 97, 71
1, 391057, Note_on_c, 0, 64, 33
1, 391057, Note_off_c, 0, 100, 64
1, 391060, Note_on_c, 0, 76, 11
1, 391060, Note_off_c, 0, 73, 68
1, 391093, Note_off_c, 0, 64, 41
1, 391109, Note_off_c, 0, 76, 36
1, 391116, Note_on_c, 0, 100, 83
1, 391117, Note_on_c, 0, 88, 92
1, 391128, Note_on_c, 0, 97, 84
1, 391163, Note_off_c, 0, 88, 64
1, 391191, Note_off_c, 0, 100, 65
1, 391191, Control_c, 0, 64, 86
1, 391206, Control_c, 0, 64, 55
1, 391207, Note_off_c, 0, 97, 64
1, 391209, Note_on_c, 0, 56, 64
1, 391211, Poly_aftertouch_c, 0, 89, 0
1, 391221, Control_c, 0, 64, 0
1, 391236, Control_c, 0, 64, 44
1, 391245, Note_on_c, 0, 99, 77
1, 391248, Note_on_c, 0, 87, 82
1, 391251, Note_on_c, 0, 96, 67
1, 391251, Control_c, 0, 64, 65
1, 391262, Note_off_c, 0, 56, 60
1, 391265, Control_c, 0, 64, 85
1, 391280, Control_c, 0, 64, 127
1, 391295, Note_off_c, 0, 96, 51
1, 391298, Note_off_c, 0, 87, 64
1, 391319, Note_off_c, 0, 99, 62
1, 391376, Note_on_c, 0, 100, 82
1, 391376, Note_on_c, 0, 88, 76
1, 391379, Note_on_c, 0, 97, 71
1, 391394, Note_on_c, 0, 72, 64
1, 391400, Note_on_c, 0, 89, 53
1, 391403, Note_on_c, 0, 75, 59
1, 391408, Note_off_c, 0, 88, 64
1, 391411, Note_off_c, 0, 100, 62
1, 391414, Note_off_c, 0, 97, 55
1, 391420, Note_on_c, 0, 64, 33
1, 391424, Note_off_c, 0, 89, 58
1, 391453, Note_off_c, 0, 64, 50
1, 391458, Note_off_c, 0, 72, 59
1, 391466, Note_off_c, 0, 75, 60
1, 391485, Note_on_c, 0, 87, 88
1, 391486, Note_on_c, 0, 99, 77
1, 391490, Note_on_c, 0, 96, 72
1, 391515, Note_off_c, 0, 96, 67
1, 391516, Note_off_c, 0, 99, 61
1, 391540, Note_off_c, 0, 87, 60
1, 391568, Note_on_c, 0, 76, 72
1, 391577, Note_on_c, 0, 73, 68
1, 391578, Note_on_c, 0, 88, 80
1, 391593, Note_on_c, 0, 100, 48
1, 391594, Note_on_c, 0, 97, 54
1, 391595, Note_off_c, 0, 76, 63
1, 391599, Note_off_c, 0, 88, 68
1, 391608, Note_on_c, 0, 98, 35
1, 391614, Note_off_c, 0, 97, 65
1, 391619, Note_off_c, 0, 100, 60
1, 391629, Note_off_c, 0, 73, 58
1, 391643, Note_off_c, 0, 98, 53
1, 391673, Note_on_c, 0, 86, 85
1, 391677, Note_on_c, 0, 74, 72
1, 391677, Note_on_c, 0, 95, 75
1, 391684, Note_on_c, 0, 98, 62
1, 391686, Note_on_c, 0, 71, 62
1, 391693, Note_off_c, 0, 74, 67
1, 391695, Note_off_c, 0, 86, 61
1, 391704, Note_on_c, 0, 64, 38
1, 391704, Note_off_c, 0, 71, 65
1, 391704, Note_off_c, 0, 98, 65
1, 391721, Note_off_c, 0, 95, 62
1, 391731, Note_off_c, 0, 64, 51
1, 391778, Note_on_c, 0, 88, 96
1, 391778, Note_on_c, 0, 100, 87
1, 391786, Note_on_c, 0, 97, 68
1, 391820, Note_off_c, 0, 97, 60
1, 391823, Note_off_c, 0, 100, 67
1, 391829, Note_off_c, 0, 88, 61
1, 391850, Control_c, 0, 64, 76
1, 391865, Control_c, 0, 64, 51
1, 391873, Note_on_c, 0, 57, 81
1, 391880, Control_c, 0, 64, 0
1, 391895, Control_c, 0, 64, 54
1, 391900, Note_on_c, 0, 88, 88
1, 391902, Note_on_c, 0, 100, 80
1, 391909, Control_c, 0, 64, 69
1, 391915, Note_on_c, 0, 97, 62
1, 391924, Note_off_c, 0, 57, 64
1, 391924, Control_c, 0, 64, 92
1, 391926, Note_off_c, 0, 100, 68
1, 391936, Note_off_c, 0, 97, 66
1, 391939, Control_c, 0, 64, 127
1, 391948, Note_off_c, 0, 88, 66
1, 392025, Note_on_c, 0, 97, 70
1, 392026, Note_on_c, 0, 85, 84
1, 392033, Note_on_c, 0, 93, 69
1, 392052, Note_off_c, 0, 97, 66
1, 392067, Note_off_c, 0, 93, 68
1, 392073, Note_on_c, 0, 69, 57
1, 392075, Note_on_c, 0, 73, 61
1, 392076, Note_off_c, 0, 85, 56
1, 392079, Note_on_c, 0, 64, 42
1, 392110, Note_off_c, 0, 64, 54
1, 392115, Note_off_c, 0, 73, 57
1, 392145, Note_on_c, 0, 85, 74
1, 392145, Note_off_c, 0, 69, 44
1, 392152, Note_on_c, 0, 93, 68
1, 392152, Note_on_c, 0, 97, 67
1, 392169, Note_off_c, 0, 85, 69
1, 392169, Note_off_c, 0, 97, 67
1, 392181, Note_off_c, 0, 93, 67
1, 392237, Note_on_c, 0, 64, 50
1, 392241, Note_on_c, 0, 93, 82
1, 392243, Note_on_c, 0, 73, 64
1, 392245, Note_on_c, 0, 85, 80
1, 392249, Note_on_c, 0, 97, 64
1, 392252, Note_on_c, 0, 69, 58
1, 392268, Note_off_c, 0, 97, 66
1, 392269, Note_off_c, 0, 85, 62
1, 392271, Note_off_c, 0, 73, 66
1, 392273, Note_off_c, 0, 93, 59
1, 392282, Note_off_c, 0, 64, 58
1, 392284, Note_off_c, 0, 69, 59
1, 392341, Note_on_c, 0, 97, 78
1, 392351, Note_on_c, 0, 85, 77
1, 392352, Note_on_c, 0, 93, 63
1, 392357, Note_on_c, 0, 73, 68
1, 392366, Note_off_c, 0, 97, 63
1, 392374, Note_off_c, 0, 93, 66
1, 392375, Note_off_c, 0, 85, 68
1, 392381, Note_off_c, 0, 73, 68
1, 392400, Note_on_c, 0, 69, 18
1, 392442, Note_off_c, 0, 69, 43
1, 392443, Note_on_c, 0, 97, 81
1, 392445, Note_on_c, 0, 85, 79
1, 392452, Note_on_c, 0, 93, 69
1, 392461, Poly_aftertouch_c, 0, 64, 0
1, 392470, Note_off_c, 0, 85, 66
1, 392483, Note_off_c, 0, 93, 63
1, 392485, Note_off_c, 0, 97, 63
1, 392495, Control_c, 0, 64, 91
1, 392510, Control_c, 0, 64, 64
1, 392525, Control_c, 0, 64, 34
1, 392539, Note_on_c, 0, 53, 65
1, 392539, Control_c, 0, 64, 41
1, 392554, Note_on_c, 0, 96, 77
1, 392554, Control_c, 0, 64, 59
1, 392556, Note_on_c, 0, 84, 76
1, 392569, Control_c, 0, 64, 68
1, 392572, Note_on_c, 0, 92, 69
1, 392577, Note_on_c, 0, 86, 59
1, 392583, Control_c, 0, 64, 87
1, 392589, Note_off_c, 0, 96, 60
1, 392591, Note_off_c, 0, 53, 56
1, 392596, Note_off_c, 0, 84, 63
1, 392598, Note_off_c, 0, 86, 60
1, 392598, Control_c, 0, 64, 127
1, 392624, Note_off_c, 0, 92, 64
1, 392672, Note_on_c, 0, 85, 82
1, 392672, Note_on_c, 0, 97, 79
1, 392690, Note_on_c, 0, 93, 57
1, 392692, Note_off_c, 0, 85, 71
1, 392705, Note_on_c, 0, 72, 69
1, 392709, Note_on_c, 0, 68, 65
1, 392710, Note_off_c, 0, 97, 59
1, 392715, Note_off_c, 0, 93, 66
1, 392730, Note_on_c, 0, 61, 38
1, 392732, Note_off_c, 0, 72, 68
1, 392757, Note_off_c, 0, 68, 54
1, 392763, Note_off_c, 0, 61, 53
1, 392774, Note_on_c, 0, 84, 79
1, 392780, Note_on_c, 0, 96, 66
1, 392781, Note_on_c, 0, 92, 66
1, 392797, Note_off_c, 0, 84, 68
1, 392809, Note_off_c, 0, 96, 65
1, 392826, Note_off_c, 0, 92, 64
1, 392883, Note_on_c, 0, 73, 65
1, 392884, Note_on_c, 0, 93, 69
1, 392884, Note_on_c, 0, 69, 62
1, 392884, Note_on_c, 0, 85, 82
1, 392885, Note_on_c, 0, 97, 82
1, 392905, Note_off_c, 0, 85, 71
1, 392909, Note_off_c, 0, 97, 66
1, 392911, Note_off_c, 0, 93, 67
1, 392912, Note_off_c, 0, 73, 64
1, 392918, Note_off_c, 0, 69, 62
1, 392989, Note_on_c, 0, 83, 88
1, 392994, Note_on_c, 0, 95, 65
1, 392995, Note_on_c, 0, 92, 73
1, 393010, Note_on_c, 0, 71, 60
1, 393012, Note_off_c, 0, 83, 64
1, 393015, Note_off_c, 0, 95, 62
1, 393016, Note_on_c, 0, 61, 65
1, 393027, Note_on_c, 0, 68, 49
1, 393029, Note_off_c, 0, 71, 64
1, 393036, Note_off_c, 0, 92, 61
1, 393045, Note_off_c, 0, 61, 66
1, 393047, Note_off_c, 0, 68, 63
1, 393085, Note_on_c, 0, 85, 88
1, 393087, Note_on_c, 0, 93, 60
1, 393091, Note_on_c, 0, 97, 78
1, 393117, Note_off_c, 0, 97, 62
1, 393131, Note_off_c, 0, 85, 54
1, 393151, Note_off_c, 0, 93, 60
1, 393155, Control_c, 0, 64, 96
1, 393170, Control_c, 0, 64, 66
1, 393185, Control_c, 0, 64, 0
1, 393193, Note_on_c, 0, 54, 55
1, 393200, Control_c, 0, 64, 35
1, 393204, Note_on_c, 0, 97, 81
1, 393209, Note_on_c, 0, 93, 63
1, 393210, Note_on_c, 0, 85, 72
1, 393214, Control_c, 0, 64, 55
1, 393229, Control_c, 0, 64, 66
1, 393234, Note_off_c, 0, 85, 70
1, 393238, Note_off_c, 0, 93, 68
1, 393239, Note_off_c, 0, 97, 64
1, 393244, Control_c, 0, 64, 84
1, 393259, Control_c, 0, 64, 127
1, 393274, Note_off_c, 0, 54, 59
1, 393335, Note_on_c, 0, 81, 76
1, 393337, Note_on_c, 0, 93, 66
1, 393347, Note_on_c, 0, 90, 56
1, 393355, Note_off_c, 0, 81, 58
1, 393364, Note_off_c, 0, 93, 67
1, 393368, Note_off_c, 0, 90, 64
1, 393387, Note_on_c, 0, 61, 49
1, 393394, Note_on_c, 0, 69, 37
1, 393407, Note_on_c, 0, 66, 31
1, 393419, Note_off_c, 0, 61, 58
1, 393427, Note_off_c, 0, 69, 50
1, 393445, Note_on_c, 0, 81, 69
1, 393445, Note_off_c, 0, 66, 49
1, 393446, Note_on_c, 0, 93, 68
1, 393452, Note_on_c, 0, 90, 61
1, 393473, Note_off_c, 0, 81, 54
1, 393474, Note_off_c, 0, 93, 67
1, 393478, Note_off_c, 0, 90, 66
1, 393548, Note_on_c, 0, 93, 68
1, 393549, Note_on_c, 0, 81, 73
1, 393564, Note_on_c, 0, 90, 63
1, 393573, Note_on_c, 0, 66, 46
1, 393574, Note_on_c, 0, 69, 42
1, 393581, Note_on_c, 0, 61, 40
1, 393585, Note_off_c, 0, 93, 64
1, 393588, Note_off_c, 0, 81, 55
1, 393590, Note_off_c, 0, 90, 68
1, 393600, Note_off_c, 0, 69, 57
1, 393618, Note_off_c, 0, 61, 52
1, 393621, Note_off_c, 0, 66, 57
1, 393669, Note_on_c, 0, 81, 73
1, 393670, Note_on_c, 0, 93, 65
1, 393671, Note_on_c, 0, 90, 62
1, 393687, Note_off_c, 0, 81, 62
1, 393694, Note_off_c, 0, 93, 66
1, 393698, Note_off_c, 0, 90, 67
1, 393746, Poly_aftertouch_c, 0, 69, 0
1, 393769, Note_on_c, 0, 81, 65
1, 393770, Note_on_c, 0, 93, 71
1, 393776, Poly_aftertouch_c, 0, 61, 0
1, 393776, Poly_aftertouch_c, 0, 69, 0
1, 393781, Note_on_c, 0, 90, 61
1, 393801, Note_off_c, 0, 81, 55
1, 393802, Poly_aftertouch_c, 0, 61, 0
1, 393808, Note_off_c, 0, 90, 66
1, 393830, Control_c, 0, 64, 115
1, 393844, Control_c, 0, 64, 74
1, 393848, Note_off_c, 0, 93, 58
1, 393859, Control_c, 0, 64, 54
1, 393874, Control_c, 0, 64, 43
1, 393880, Note_on_c, 0, 49, 59
1, 393889, Control_c, 0, 64, 57
1, 393900, Note_on_c, 0, 92, 69
1, 393904, Control_c, 0, 64, 64
1, 393906, Note_on_c, 0, 80, 60
1, 393913, Note_on_c, 0, 89, 53
1, 393919, Control_c, 0, 64, 75
1, 393925, Note_off_c, 0, 49, 62
1, 393934, Control_c, 0, 64, 104
1, 393944, Note_off_c, 0, 80, 62
1, 393948, Note_off_c, 0, 89, 58
1, 393948, Control_c, 0, 64, 127
1, 393955, Note_off_c, 0, 92, 62
1, 394030, Note_on_c, 0, 81, 70
1, 394034, Note_on_c, 0, 93, 62
1, 394044, Note_on_c, 0, 90, 57
1, 394056, Note_off_c, 0, 81, 54
1, 394068, Note_off_c, 0, 93, 54
1, 394070, Note_on_c, 0, 65, 53
1, 394076, Note_on_c, 0, 68, 52
1, 394079, Note_off_c, 0, 90, 63
1, 394103, Note_on_c, 0, 57, 25
1, 394129, Note_off_c, 0, 68, 61
1, 394130, Note_off_c, 0, 65, 59
1, 394167, Note_on_c, 0, 92, 71
1, 394167, Note_off_c, 0, 57, 42
1, 394175, Note_on_c, 0, 80, 60
1, 394180, Note_on_c, 0, 89, 54
1, 394208, Note_off_c, 0, 89, 64
1, 394212, Note_off_c, 0, 80, 60
1, 394226, Note_off_c, 0, 92, 63
1, 394288, Note_on_c, 0, 81, 64
1, 394290, Note_on_c, 0, 93, 56
1, 394300, Note_on_c, 0, 66, 62
1, 394323, Note_off_c, 0, 93, 54
1, 394324, Note_off_c, 0, 81, 60
1, 394326, Note_on_c, 0, 69, 20
1, 394364, Poly_aftertouch_c, 0, 90, 127
1, 394369, Note_off_c, 0, 69, 51
1, 394372, Note_off_c, 0, 66, 60
1, 394401, Poly_aftertouch_c, 0, 90, 0
1, 394414, Note_on_c, 0, 79, 74
1, 394418, Note_on_c, 0, 91, 58
1, 394434, Note_off_c, 0, 79, 63
1, 394440, Note_on_c, 0, 88, 39
1, 394442, Note_on_c, 0, 57, 33
1, 394443, Note_off_c, 0, 91, 59
1, 394454, Note_on_c, 0, 64, 5
1, 394469, Note_off_c, 0, 88, 56
1, 394476, Note_off_c, 0, 57, 51
1, 394506, Note_off_c, 0, 64, 35
1, 394521, Note_on_c, 0, 93, 76
1, 394522, Note_on_c, 0, 81, 75
1, 394535, Control_c, 0, 64, 100
1, 394550, Control_c, 0, 64, 65
1, 394551, Note_on_c, 0, 90, 41
1, 394558, Note_off_c, 0, 81, 60
1, 394565, Control_c, 0, 64, 0
1, 394566, Note_off_c, 0, 93, 58
1, 394581, Note_off_c, 0, 90, 51
1, 394605, Note_on_c, 0, 50, 13
1, 394609, Control_c, 0, 64, 55
1, 394612, Note_on_c, 0, 52, 11
1, 394622, Note_on_c, 0, 57, 46
1, 394624, Control_c, 0, 64, 76
1, 394637, Note_off_c, 0, 50, 35
1, 394637, Note_on_c, 0, 93, 86
1, 394639, Note_on_c, 0, 81, 92
1, 394639, Control_c, 0, 64, 127
1, 394642, Note_on_c, 0, 90, 84
1, 394647, Note_on_c, 0, 66, 61
1, 394664, Note_off_c, 0, 52, 32
1, 394665, Note_off_c, 0, 66, 41
1, 394673, Note_off_c, 0, 90, 58
1, 394680, Note_off_c, 0, 93, 64
1, 394682, Note_off_c, 0, 81, 65
1, 394708, Note_off_c, 0, 57, 34
1, 394726, Poly_aftertouch_c, 0, 58, 0
1, 394751, Note_on_c, 0, 90, 70
1, 394768, Note_on_c, 0, 86, 51
1, 394774, Note_off_c, 0, 90, 69
1, 394792, Note_off_c, 0, 86, 55
1, 394807, Note_on_c, 0, 38, 60
1, 394855, Note_on_c, 0, 85, 80
1, 394860, Note_on_c, 0, 90, 77
1, 394900, Note_off_c, 0, 90, 63
1, 394904, Note_off_c, 0, 38, 61
1, 394912, Note_off_c, 0, 85, 61
1, 394948, Note_on_c, 0, 45, 63
1, 394953, Note_on_c, 0, 81, 76
1, 394961, Note_on_c, 0, 78, 65
1, 394981, Note_off_c, 0, 45, 62
1, 394981, Note_off_c, 0, 78, 67
1, 394995, Note_off_c, 0, 81, 61
1, 395023, Note_on_c, 0, 54, 68
1, 395034, Note_on_c, 0, 86, 72
1, 395034, Note_on_c, 0, 90, 72
1, 395058, Note_off_c, 0, 54, 67
1, 395061, Note_off_c, 0, 90, 71
1, 395073, Note_off_c, 0, 86, 62
1, 395130, Note_on_c, 0, 47, 52
1, 395142, Note_on_c, 0, 78, 69
1, 395147, Note_on_c, 0, 74, 69
1, 395164, Note_off_c, 0, 74, 64
1, 395165, Note_off_c, 0, 47, 62
1, 395174, Note_off_c, 0, 78, 61
1, 395180, Note_on_c, 0, 54, 72
1, 395194, Control_c, 0, 64, 90
1, 395209, Control_c, 0, 64, 59
1, 395222, Poly_aftertouch_c, 0, 77, 0
1, 395224, Control_c, 0, 64, 0
1, 395236, Note_on_c, 0, 62, 73
1, 395254, Note_off_c, 0, 54, 61
1, 395254, Control_c, 0, 64, 60
1, 395254, Note_on_c, 0, 98, 109
1, 395261, Note_off_c, 0, 62, 68
1, 395264, Note_on_c, 0, 95, 93
1, 395269, Control_c, 0, 64, 83
1, 395283, Control_c, 0, 64, 127
1, 395317, Note_on_c, 0, 94, 3
1, 395317, Note_off_c, 0, 94, 127
1, 395370, Note_on_c, 0, 86, 77
1, 395381, Note_off_c, 0, 98, 58
1, 395389, Note_on_c, 0, 91, 54
1, 395400, Note_off_c, 0, 95, 63
1, 395404, Note_on_c, 0, 35, 55
1, 395410, Note_off_c, 0, 91, 65
1, 395424, Note_off_c, 0, 86, 61
1, 395473, Note_on_c, 0, 98, 83
1, 395475, Note_on_c, 0, 95, 75
1, 395496, Note_off_c, 0, 98, 62
1, 395498, Note_off_c, 0, 95, 67
1, 395532, Note_on_c, 0, 96, 11
1, 395534, Note_off_c, 0, 35, 37
1, 395555, Note_on_c, 0, 42, 68
1, 395567, Note_on_c, 0, 86, 79
1, 395572, Note_on_c, 0, 83, 78
1, 395588, Note_off_c, 0, 86, 70
1, 395594, Note_off_c, 0, 83, 68
1, 395598, Note_off_c, 0, 96, 47
1, 395616, Note_off_c, 0, 42, 62
1, 395639, Note_on_c, 0, 50, 64
1, 395662, Note_off_c, 0, 50, 60
1, 395665, Note_on_c, 0, 98, 74
1, 395668, Note_on_c, 0, 95, 73
1, 395682, Note_off_c, 0, 98, 69
1, 395684, Note_on_c, 0, 96, 52
1, 395690, Note_off_c, 0, 95, 70
1, 395707, Note_off_c, 0, 96, 60
1, 395743, Note_on_c, 0, 52, 58
1, 395771, Note_on_c, 0, 83, 82
1, 395785, Note_on_c, 0, 78, 69
1, 395786, Note_off_c, 0, 52, 61
1, 395806, Note_off_c, 0, 83, 58
1, 395815, Note_on_c, 0, 59, 62
1, 395815, Note_off_c, 0, 78, 66
1, 395823, Control_c, 0, 64, 74
1, 395838, Control_c, 0, 64, 0
1, 395868, Control_c, 0, 64, 40
1, 395871, Note_on_c, 0, 68, 94
1, 395882, Note_on_c, 0, 74, 105
1, 395883, Control_c, 0, 64, 68
1, 395886, Note_off_c, 0, 68, 75
1, 395887, Note_on_c, 0, 86, 81
1, 395889, Note_on_c, 0, 83, 92
1, 395898, Control_c, 0, 64, 101
1, 395907, Note_on_c, 0, 84, 66
1, 395910, Note_off_c, 0, 59, 54
1, 395913, Control_c, 0, 64, 127
1, 395919, Note_off_c, 0, 74, 62
1, 395928, Note_off_c, 0, 84, 62
1, 395958, Note_off_c, 0, 83, 62
1, 395960, Note_off_c, 0, 86, 56
1, 396006, Note_on_c, 0, 80, 72
1, 396010, Note_on_c, 0, 76, 46
1, 396029, Note_off_c, 0, 80, 68
1, 396036, Note_off_c, 0, 76, 56
1, 396038, Note_on_c, 0, 40, 61
1, 396107, Note_on_c, 0, 92, 88
1, 396132, Note_on_c, 0, 88, 69
1, 396162, Note_off_c, 0, 92, 66
1, 396167, Note_off_c, 0, 40, 57
1, 396171, Note_off_c, 0, 88, 52
1, 396205, Poly_aftertouch_c, 0, 90, 127
1, 396206, Note_on_c, 0, 83, 77
1, 396207, Note_on_c, 0, 47, 68
1, 396208, Note_on_c, 0, 80, 85
1, 396238, Poly_aftertouch_c, 0, 90, 0
1, 396259, Note_off_c, 0, 47, 62
1, 396262, Note_off_c, 0, 80, 61
1, 396268, Note_off_c, 0, 83, 65
1, 396295, Note_on_c, 0, 56, 78
1, 396301, Note_on_c, 0, 88, 80
1, 396306, Note_on_c, 0, 92, 82
1, 396326, Note_off_c, 0, 92, 71
1, 396345, Note_off_c, 0, 88, 61
1, 396349, Note_off_c, 0, 56, 60
1, 396385, Note_on_c, 0, 49, 65
1, 396406, Note_on_c, 0, 76, 77
1, 396408, Note_on_c, 0, 80, 80
1, 396426, Note_off_c, 0, 76, 70
1, 396433, Note_off_c, 0, 80, 64
1, 396444, Note_on_c, 0, 56, 79
1, 396447, Control_c, 0, 64, 79
1, 396455, Note_off_c, 0, 49, 62
1, 396462, Control_c, 0, 64, 48
1, 396477, Control_c, 0, 64, 0
1, 396492, Control_c, 0, 64, 45
1, 396504, Note_on_c, 0, 64, 81
1, 396506, Control_c, 0, 64, 67
1, 396521, Control_c, 0, 64, 114
1, 396524, Note_on_c, 0, 100, 109
1, 396524, Note_off_c, 0, 64, 72
1, 396532, Note_on_c, 0, 97, 100
1, 396536, Control_c, 0, 64, 127
1, 396552, Note_off_c, 0, 56, 62
1, 396639, Note_on_c, 0, 88, 86
1, 396639, Note_on_c, 0, 92, 84
1, 396643, Note_off_c, 0, 100, 64
1, 396651, Note_off_c, 0, 97, 62
1, 396676, Note_on_c, 0, 37, 63
1, 396697, Note_off_c, 0, 92, 66
1, 396701, Note_off_c, 0, 88, 65
1, 396740, Note_on_c, 0, 100, 87
1, 396743, Note_on_c, 0, 97, 86
1, 396746, Poly_aftertouch_c, 0, 39, 127
1, 396762, Note_off_c, 0, 37, 58
1, 396767, Note_off_c, 0, 100, 69
1, 396775, Note_off_c, 0, 97, 62
1, 396795, Poly_aftertouch_c, 0, 39, 0
1, 396840, Note_on_c, 0, 85, 92
1, 396840, Note_on_c, 0, 88, 86
1, 396845, Note_on_c, 0, 44, 74
1, 396861, Note_off_c, 0, 85, 67
1, 396868, Note_off_c, 0, 88, 64
1, 396906, Note_off_c, 0, 44, 62
1, 396916, Note_on_c, 0, 52, 82
1, 396934, Note_on_c, 0, 98, 78
1, 396939, Note_off_c, 0, 52, 69
1, 396944, Note_on_c, 0, 96, 68
1, 396956, Note_off_c, 0, 98, 71
1, 396971, Note_off_c, 0, 96, 68
1, 397041, Note_on_c, 0, 54, 63
1, 397046, Note_on_c, 0, 85, 93
1, 397058, Note_on_c, 0, 78, 61
1, 397069, Note_off_c, 0, 85, 57
1, 397077, Note_off_c, 0, 78, 65
1, 397078, Control_c, 0, 64, 87
1, 397093, Control_c, 0, 64, 54
1, 397096, Note_on_c, 0, 61, 59
1, 397107, Note_off_c, 0, 54, 63
1, 397108, Control_c, 0, 64, 0
1, 397137, Control_c, 0, 64, 61
1, 397138, Note_on_c, 0, 69, 90
1, 397142, Note_on_c, 0, 76, 107
1, 397149, Note_on_c, 0, 85, 93
1, 397152, Control_c, 0, 64, 84
1, 397156, Note_off_c, 0, 69, 73
1, 397158, Note_on_c, 0, 88, 64
1, 397167, Control_c, 0, 64, 127
1, 397174, Note_off_c, 0, 76, 56
1, 397175, Note_off_c, 0, 88, 68
1, 397177, Note_on_c, 0, 80, 34
1, 397177, Note_off_c, 0, 80, 127
1, 397179, Note_on_c, 0, 82, 30
1, 397179, Note_off_c, 0, 82, 127
1, 397180, Note_on_c, 0, 86, 46
1, 397199, Note_off_c, 0, 61, 59
1, 397213, Note_off_c, 0, 85, 64
1, 397215, Note_off_c, 0, 86, 45
1, 397254, Note_on_c, 0, 78, 78
1, 397270, Note_on_c, 0, 81, 47
1, 397274, Note_off_c, 0, 78, 71
1, 397305, Note_off_c, 0, 81, 56
1, 397323, Note_on_c, 0, 42, 66
1, 397359, Note_on_c, 0, 93, 91
1, 397367, Note_on_c, 0, 90, 86
1, 397430, Note_off_c, 0, 90, 59
1, 397436, Note_off_c, 0, 93, 55
1, 397451, Note_off_c, 0, 42, 60
1, 397454, Note_on_c, 0, 49, 73
1, 397457, Note_on_c, 0, 81, 89
1, 397475, Note_on_c, 0, 85, 49
1, 397499, Note_off_c, 0, 85, 60
1, 397501, Note_off_c, 0, 81, 60
1, 397516, Note_off_c, 0, 49, 62
1, 397534, Note_on_c, 0, 57, 77
1, 397552, Note_on_c, 0, 93, 81
1, 397555, Note_on_c, 0, 90, 81
1, 397564, Note_off_c, 0, 57, 62
1, 397574, Note_off_c, 0, 93, 69
1, 397580, Note_off_c, 0, 90, 63
1, 397623, Note_on_c, 0, 50, 73
1, 397642, Note_on_c, 0, 82, 88
1, 397657, Note_off_c, 0, 82, 59
1, 397669, Note_on_c, 0, 81, 61
1, 397672, Note_on_c, 0, 57, 80
1, 397673, Note_on_c, 0, 78, 47
1, 397673, Note_off_c, 0, 50, 61
1, 397688, Note_off_c, 0, 81, 63
1, 397693, Control_c, 0, 64, 109
1, 397697, Note_off_c, 0, 78, 61
1, 397708, Control_c, 0, 64, 66
1, 397723, Control_c, 0, 64, 0
1, 397728, Poly_aftertouch_c, 0, 80, 0
1, 397738, Note_off_c, 0, 57, 60
1, 397743, Note_on_c, 0, 65, 96
1, 397752, Control_c, 0, 64, 64
1, 397761, Note_off_c, 0, 65, 73
1, 397763, Note_on_c, 0, 101, 111
1, 397767, Control_c, 0, 64, 99
1, 397770, Note_on_c, 0, 98, 99
1, 397782, Control_c, 0, 64, 127
1, 397788, Poly_aftertouch_c, 0, 57, 0
1, 397840, Poly_aftertouch_c, 0, 57, 0
1, 397859, Note_off_c, 0, 101, 57
1, 397873, Note_on_c, 0, 93, 89
1, 397883, Note_on_c, 0, 89, 87
1, 397901, Note_on_c, 0, 38, 68
1, 397904, Note_off_c, 0, 98, 58
1, 397931, Note_off_c, 0, 93, 66
1, 397940, Note_off_c, 0, 89, 62
1, 397979, Note_on_c, 0, 101, 94
1, 397987, Note_on_c, 0, 98, 84
1, 398008, Note_off_c, 0, 98, 65
1, 398016, Note_off_c, 0, 101, 66
1, 398027, Note_off_c, 0, 38, 57
1, 398075, Note_on_c, 0, 45, 69
1, 398083, Note_on_c, 0, 86, 88
1, 398083, Note_on_c, 0, 89, 94
1, 398110, Note_off_c, 0, 89, 63
1, 398112, Note_off_c, 0, 45, 64
1, 398125, Note_off_c, 0, 86, 60
1, 398166, Note_on_c, 0, 53, 75
1, 398178, Note_on_c, 0, 101, 91
1, 398181, Note_on_c, 0, 98, 88
1, 398199, Note_off_c, 0, 101, 68
1, 398219, Note_off_c, 0, 98, 63
1, 398227, Note_off_c, 0, 53, 62
1, 398284, Note_on_c, 0, 44, 70
1, 398295, Note_on_c, 0, 81, 86
1, 398295, Note_on_c, 0, 86, 92
1, 398313, Note_off_c, 0, 81, 72
1, 398333, Note_off_c, 0, 86, 61
1, 398339, Control_c, 0, 64, 108
1, 398354, Control_c, 0, 64, 65
1, 398356, Note_off_c, 0, 44, 65
1, 398358, Note_on_c, 0, 52, 64
1, 398369, Control_c, 0, 64, 0
1, 398398, Control_c, 0, 64, 61
1, 398403, Note_on_c, 0, 59, 77
1, 398413, Control_c, 0, 64, 88
1, 398416, Note_on_c, 0, 88, 107
1, 398417, Note_on_c, 0, 95, 95
1, 398417, Note_on_c, 0, 100, 95
1, 398423, Note_on_c, 0, 98, 85
1, 398423, Note_off_c, 0, 59, 72
1, 398427, Control_c, 0, 64, 127
1, 398434, Note_off_c, 0, 88, 66
1, 398435, Note_off_c, 0, 52, 58
1, 398441, Note_on_c, 0, 94, 54
1, 398441, Note_off_c, 0, 94, 127
1, 398443, Note_off_c, 0, 98, 70
1, 398457, Note_off_c, 0, 100, 68
1, 398467, Note_off_c, 0, 95, 63
1, 398515, Note_on_c, 0, 99, 89
1, 398577, Note_off_c, 0, 99, 63
1, 398611, Note_on_c, 0, 32, 66
1, 398617, Note_on_c, 0, 100, 90
1, 398664, Note_off_c, 0, 32, 58
1, 398680, Note_on_c, 0, 35, 73
1, 398695, Note_on_c, 0, 98, 89
1, 398709, Note_off_c, 0, 100, 66
1, 398737, Note_off_c, 0, 98, 66
1, 398752, Note_off_c, 0, 35, 60
1, 398758, Note_on_c, 0, 32, 81
1, 398766, Note_on_c, 0, 100, 83
1, 398830, Note_on_c, 0, 38, 85
1, 398834, Note_off_c, 0, 32, 53
1, 398849, Note_on_c, 0, 95, 94
1, 398853, Note_off_c, 0, 100, 67
1, 398895, Note_off_c, 0, 38, 62
1, 398897, Note_off_c, 0, 95, 64
1, 398915, Note_on_c, 0, 32, 78
1, 398918, Note_on_c, 0, 100, 96
1, 398971, Note_on_c, 0, 40, 87
1, 398981, Note_off_c, 0, 32, 56
1, 398983, Note_on_c, 0, 92, 98
1, 398998, Note_off_c, 0, 100, 67
1, 399042, Control_c, 0, 64, 84
1, 399046, Note_off_c, 0, 40, 54
1, 399050, Note_off_c, 0, 92, 62
1, 399057, Control_c, 0, 64, 51
1, 399061, Note_on_c, 0, 32, 70
1, 399068, Note_on_c, 0, 100, 93
1, 399072, Control_c, 0, 64, 0
1, 399090, Note_off_c, 0, 32, 67
1, 399115, Note_on_c, 0, 44, 85
1, 399123, Note_off_c, 0, 100, 69
1, 399132, Control_c, 0, 64, 50
1, 399133, Note_on_c, 0, 88, 99
1, 399147, Control_c, 0, 64, 76
1, 399162, Control_c, 0, 64, 127
1, 399168, Note_off_c, 0, 44, 64
1, 399187, Note_off_c, 0, 88, 66
1, 399196, Note_on_c, 0, 32, 78
1, 399211, Note_on_c, 0, 100, 98
1, 399220, Note_off_c, 0, 32, 66
1, 399247, Note_off_c, 0, 100, 70
1, 399268, Note_on_c, 0, 47, 62
1, 399271, Note_on_c, 0, 98, 37
1, 399286, Note_on_c, 0, 84, 94
1, 399292, Note_on_c, 0, 48, 35
1, 399295, Note_off_c, 0, 47, 65
1, 399302, Note_off_c, 0, 98, 56
1, 399320, Note_off_c, 0, 84, 65
1, 399329, Note_on_c, 0, 86, 34
1, 399329, Note_off_c, 0, 48, 51
1, 399349, Note_on_c, 0, 32, 78
1, 399363, Note_off_c, 0, 86, 41
1, 399371, Note_on_c, 0, 100, 85
1, 399385, Note_off_c, 0, 32, 63
1, 399389, Note_off_c, 0, 100, 78
1, 399434, Note_on_c, 0, 83, 92
1, 399437, Note_on_c, 0, 52, 78
1, 399450, Note_on_c, 0, 50, 64
1, 399462, Note_off_c, 0, 52, 68
1, 399466, Note_off_c, 0, 83, 69
1, 399472, Note_off_c, 0, 50, 62
1, 399478, Note_on_c, 0, 81, 10
1, 399478, Note_off_c, 0, 81, 127
1, 399523, Note_on_c, 0, 32, 79
1, 399523, Note_on_c, 0, 98, 99
1, 399553, Note_off_c, 0, 98, 68
1, 399570, Note_off_c, 0, 32, 62
1, 399604, Note_on_c, 0, 80, 98
1, 399617, Poly_aftertouch_c, 0, 31, 127
1, 399625, Note_on_c, 0, 52, 60
1, 399629, Note_on_c, 0, 53, 58
1, 399641, Note_off_c, 0, 80, 67
1, 399649, Note_off_c, 0, 53, 62
1, 399651, Note_off_c, 0, 52, 66
1, 399652, Poly_aftertouch_c, 0, 31, 0
1, 399699, Note_on_c, 0, 32, 80
1, 399701, Note_on_c, 0, 100, 102
1, 399719, Note_off_c, 0, 100, 73
1, 399720, Note_off_c, 0, 32, 72
1, 399788, Note_on_c, 0, 76, 97
1, 399809, Note_on_c, 0, 56, 56
1, 399817, Note_off_c, 0, 76, 71
1, 399839, Note_off_c, 0, 56, 63
1, 399893, Note_on_c, 0, 100, 94
1, 399908, Note_off_c, 0, 100, 76
1, 399973, Poly_aftertouch_c, 0, 31, 0
1, 399988, Note_on_c, 0, 74, 99
1, 399991, Note_on_c, 0, 59, 81
1, 400000, Poly_aftertouch_c, 0, 31, 0
1, 400009, Note_off_c, 0, 59, 71
1, 400019, Note_off_c, 0, 74, 70
1, 400092, Note_on_c, 0, 32, 88
1, 400095, Note_on_c, 0, 100, 99
1, 400111, Note_off_c, 0, 100, 76
1, 400115, Note_off_c, 0, 32, 67
1, 400207, Note_on_c, 0, 62, 89
1, 400208, Note_on_c, 0, 71, 96
1, 400227, Note_off_c, 0, 62, 69
1, 400239, Note_off_c, 0, 71, 70
1, 400339, Note_on_c, 0, 32, 86
1, 400339, Note_on_c, 0, 98, 85
1, 400342, Note_on_c, 0, 100, 79
1, 400357, Note_off_c, 0, 100, 71
1, 400359, Note_off_c, 0, 32, 71
1, 400359, Note_off_c, 0, 98, 70
1, 400462, Note_on_c, 0, 64, 96
1, 400465, Note_on_c, 0, 70, 79
1, 400465, Note_on_c, 0, 68, 97
1, 400480, Note_off_c, 0, 68, 75
1, 400489, Note_off_c, 0, 70, 67
1, 400495, Note_off_c, 0, 64, 66
1, 400646, Note_on_c, 0, 97, 16
1, 400658, Control_c, 0, 64, 83
1, 400673, Control_c, 0, 64, 0
1, 400678, Note_on_c, 0, 32, 88
1, 400691, Note_on_c, 0, 100, 116
1, 400691, Note_off_c, 0, 97, 38
1, 400703, Control_c, 0, 64, 42
1, 400718, Control_c, 0, 64, 79
1, 400725, Note_off_c, 0, 32, 62
1, 400733, Control_c, 0, 64, 127
1, 400742, Note_off_c, 0, 100, 70
1, 401541, Control_c, 0, 64, 85
1, 401556, Control_c, 0, 64, 57
1, 401571, Control_c, 0, 64, 0
1, 401666, Note_on_c, 0, 56, 79
1, 401731, Note_off_c, 0, 56, 62
1, 401735, Control_c, 0, 64, 66
1, 401743, Note_on_c, 0, 65, 99
1, 401749, Control_c, 0, 64, 127
1, 401752, Note_on_c, 0, 71, 91
1, 401759, Note_on_c, 0, 69, 67
1, 401768, Note_off_c, 0, 71, 74
1, 401784, Note_off_c, 0, 69, 67
1, 401833, Note_on_c, 0, 64, 59
1, 401860, Note_off_c, 0, 65, 60
1, 401890, Control_c, 0, 64, 86
1, 401905, Control_c, 0, 64, 58
1, 401919, Control_c, 0, 64, 0
1, 401926, Note_on_c, 0, 65, 78
1, 401934, Note_off_c, 0, 64, 64
1, 401936, Note_on_c, 0, 57, 70
1, 401964, Note_off_c, 0, 57, 68
1, 401979, Control_c, 0, 64, 52
1, 401987, Note_off_c, 0, 65, 64
1, 401994, Control_c, 0, 64, 81
1, 402005, Note_on_c, 0, 64, 80
1, 402009, Note_on_c, 0, 72, 110
1, 402009, Control_c, 0, 64, 127
1, 402030, Note_off_c, 0, 72, 67
1, 402063, Note_off_c, 0, 64, 63
1, 402065, Note_on_c, 0, 65, 82
1, 402104, Note_off_c, 0, 65, 63
1, 402122, Note_on_c, 0, 64, 71
1, 402171, Note_off_c, 0, 64, 59
1, 402177, Note_on_c, 0, 66, 72
1, 402211, Note_off_c, 0, 66, 58
1, 402230, Note_on_c, 0, 64, 63
1, 402268, Note_off_c, 0, 64, 62
1, 402271, Note_on_c, 0, 66, 73
1, 402317, Note_on_c, 0, 58, 54
1, 402325, Note_on_c, 0, 64, 69
1, 402325, Note_off_c, 0, 66, 60
1, 402338, Note_on_c, 0, 61, 36
1, 402343, Note_off_c, 0, 58, 66
1, 402371, Note_off_c, 0, 61, 55
1, 402375, Note_on_c, 0, 73, 102
1, 402378, Note_on_c, 0, 67, 79
1, 402381, Note_off_c, 0, 64, 44
1, 402412, Note_off_c, 0, 73, 65
1, 402417, Note_off_c, 0, 67, 61
1, 402423, Note_on_c, 0, 64, 60
1, 402438, Poly_aftertouch_c, 0, 63, 127
1, 402439, Control_c, 0, 64, 72
1, 402454, Control_c, 0, 64, 0
1, 402463, Poly_aftertouch_c, 0, 65, 127
1, 402481, Note_on_c, 0, 67, 65
1, 402487, Note_off_c, 0, 64, 60
1, 402513, Control_c, 0, 64, 38
1, 402518, Note_off_c, 0, 67, 61
1, 402527, Note_on_c, 0, 64, 45
1, 402527, Poly_aftertouch_c, 0, 63, 0
1, 402527, Control_c, 0, 64, 66
1, 402536, Note_on_c, 0, 59, 64
1, 402550, Control_c, 0, 64, 95
1, 402565, Control_c, 0, 64, 127
1, 402572, Note_on_c, 0, 60, 43
1, 402572, Note_off_c, 0, 59, 66
1, 402576, Note_on_c, 0, 67, 61
1, 402581, Note_off_c, 0, 64, 61
1, 402602, Note_off_c, 0, 60, 54
1, 402608, Note_off_c, 0, 67, 61
1, 402609, Note_on_c, 0, 74, 101
1, 402610, Poly_aftertouch_c, 0, 65, 0
1, 402623, Note_on_c, 0, 64, 61
1, 402635, Note_off_c, 0, 74, 69
1, 402685, Note_off_c, 0, 64, 59
1, 402691, Note_on_c, 0, 68, 67
1, 402720, Note_off_c, 0, 68, 66
1, 402727, Note_on_c, 0, 64, 55
1, 402784, Note_on_c, 0, 68, 64
1, 402790, Note_off_c, 0, 64, 61
1, 402818, Note_off_c, 0, 68, 66
1, 402828, Note_on_c, 0, 64, 51
1, 402858, Note_on_c, 0, 59, 64
1, 402882, Note_off_c, 0, 59, 69
1, 402884, Note_on_c, 0, 68, 80
1, 402890, Note_off_c, 0, 64, 63
1, 402917, Note_on_c, 0, 74, 96
1, 402925, Note_on_c, 0, 64, 58
1, 402933, Note_off_c, 0, 68, 64
1, 402948, Note_off_c, 0, 74, 65
1, 402985, Note_on_c, 0, 68, 70
1, 402994, Note_off_c, 0, 64, 61
1, 402994, Control_c, 0, 64, 89
1, 403009, Control_c, 0, 64, 60
1, 403024, Control_c, 0, 64, 0
1, 403038, Note_off_c, 0, 68, 65
1, 403039, Note_on_c, 0, 64, 58
1, 403068, Control_c, 0, 64, 54
1, 403077, Note_on_c, 0, 60, 81
1, 403083, Control_c, 0, 64, 73
1, 403092, Note_on_c, 0, 68, 57
1, 403097, Note_off_c, 0, 64, 58
1, 403098, Control_c, 0, 64, 127
1, 403099, Note_off_c, 0, 60, 73
1, 403132, Note_on_c, 0, 64, 54
1, 403139, Note_off_c, 0, 68, 60
1, 403142, Note_on_c, 0, 75, 100
1, 403179, Note_off_c, 0, 75, 64
1, 403198, Note_on_c, 0, 69, 69
1, 403205, Note_on_c, 0, 66, 66
1, 403206, Note_off_c, 0, 64, 63
1, 403240, Note_off_c, 0, 66, 60
1, 403242, Note_off_c, 0, 69, 59
1, 403249, Note_on_c, 0, 64, 55
1, 403308, Note_on_c, 0, 69, 60
1, 403320, Note_on_c, 0, 66, 51
1, 403335, Note_off_c, 0, 64, 0
1, 403344, Note_off_c, 0, 69, 56
1, 403350, Note_on_c, 0, 64, 39
1, 403363, Note_off_c, 0, 66, 53
1, 403382, Note_on_c, 0, 61, 69
1, 403428, Note_off_c, 0, 61, 61
1, 403430, Note_off_c, 0, 64, 62
1, 403449, Note_on_c, 0, 69, 26
1, 403449, Note_on_c, 0, 76, 108
1, 403466, Note_on_c, 0, 64, 58
1, 403475, Note_on_c, 0, 67, 25
1, 403484, Note_off_c, 0, 69, 48
1, 403485, Note_off_c, 0, 76, 68
1, 403525, Note_off_c, 0, 67, 0
1, 403541, Note_on_c, 0, 67, 38
1, 403541, Note_on_c, 0, 70, 66
1, 403558, Note_off_c, 0, 64, 0
1, 403565, Control_c, 0, 64, 81
1, 403571, Note_off_c, 0, 70, 66
1, 403576, Note_off_c, 0, 67, 63
1, 403580, Note_on_c, 0, 64, 44
1, 403580, Control_c, 0, 64, 50
1, 403589, Note_on_c, 0, 62, 73
1, 403595, Control_c, 0, 64, 0
1, 403624, Control_c, 0, 64, 44
1, 403635, Note_on_c, 0, 63, 20
1, 403639, Control_c, 0, 64, 67
1, 403647, Note_off_c, 0, 62, 63
1, 403654, Control_c, 0, 64, 108
1, 403657, Note_off_c, 0, 64, 60
1, 403661, Note_on_c, 0, 70, 57
1, 403663, Note_on_c, 0, 67, 41
1, 403668, Control_c, 0, 64, 127
1, 403680, Note_off_c, 0, 63, 37
1, 403685, Note_on_c, 0, 77, 107
1, 403686, Note_off_c, 0, 70, 64
1, 403694, Note_off_c, 0, 67, 54
1, 403702, Note_on_c, 0, 65, 82
1, 403713, Note_off_c, 0, 77, 72
1, 403750, Note_on_c, 0, 70, 79
1, 403751, Note_off_c, 0, 65, 63
1, 403779, Note_off_c, 0, 70, 60
1, 403803, Note_on_c, 0, 65, 69
1, 403846, Note_off_c, 0, 65, 59
1, 403849, Note_on_c, 0, 70, 71
1, 403878, Note_off_c, 0, 70, 66
1, 403904, Note_on_c, 0, 65, 71
1, 403950, Note_off_c, 0, 65, 56
1, 403957, Note_on_c, 0, 70, 69
1, 403985, Note_off_c, 0, 70, 66
1, 404011, Note_on_c, 0, 65, 75
1, 404064, Note_on_c, 0, 70, 76
1, 404066, Note_off_c, 0, 65, 62
1, 404092, Control_c, 0, 64, 69
1, 404097, Note_off_c, 0, 70, 61
1, 404107, Control_c, 0, 64, 41
1, 404116, Note_on_c, 0, 62, 106
1, 404117, Note_on_c, 0, 65, 87
1, 404122, Control_c, 0, 64, 46
1, 404137, Control_c, 0, 64, 64
1, 404152, Control_c, 0, 64, 92
1, 404167, Control_c, 0, 64, 127
1, 404173, Note_off_c, 0, 62, 60
1, 404188, Note_on_c, 0, 70, 78
1, 404192, Note_off_c, 0, 65, 63
1, 404227, Note_off_c, 0, 70, 60
1, 404230, Note_on_c, 0, 65, 68
1, 404280, Note_on_c, 0, 77, 112
1, 404293, Note_on_c, 0, 70, 72
1, 404300, Note_on_c, 0, 68, 78
1, 404304, Note_off_c, 0, 77, 72
1, 404307, Note_off_c, 0, 65, 64
1, 404334, Note_off_c, 0, 70, 61
1, 404349, Note_off_c, 0, 68, 61
1, 404349, Note_on_c, 0, 65, 76
1, 404411, Note_on_c, 0, 68, 70
1, 404417, Note_off_c, 0, 65, 63
1, 404423, Note_on_c, 0, 70, 58
1, 404447, Note_off_c, 0, 70, 65
1, 404456, Note_off_c, 0, 68, 62
1, 404465, Note_on_c, 0, 65, 69
1, 404520, Note_off_c, 0, 65, 62
1, 404524, Note_on_c, 0, 70, 68
1, 404525, Note_on_c, 0, 68, 62
1, 404557, Note_off_c, 0, 70, 65
1, 404559, Note_off_c, 0, 68, 58
1, 404581, Note_on_c, 0, 65, 70
1, 404626, Control_c, 0, 64, 92
1, 404629, Note_off_c, 0, 65, 61
1, 404634, Note_on_c, 0, 70, 69
1, 404640, Control_c, 0, 64, 63
1, 404647, Note_on_c, 0, 68, 58
1, 404655, Control_c, 0, 64, 36
1, 404659, Note_off_c, 0, 70, 63
1, 404668, Note_off_c, 0, 68, 66
1, 404670, Control_c, 0, 64, 57
1, 404684, Control_c, 0, 64, 72
1, 404686, Note_on_c, 0, 65, 70
1, 404699, Control_c, 0, 64, 127
1, 404700, Note_on_c, 0, 63, 97
1, 404741, Note_on_c, 0, 70, 61
1, 404742, Note_off_c, 0, 65, 60
1, 404745, Note_off_c, 0, 63, 62
1, 404748, Note_on_c, 0, 68, 65
1, 404775, Note_off_c, 0, 70, 66
1, 404780, Note_off_c, 0, 68, 63
1, 404793, Note_on_c, 0, 65, 64
1, 404842, Note_on_c, 0, 70, 54
1, 404856, Note_off_c, 0, 65, 0
1, 404879, Note_off_c, 0, 70, 61
1, 404888, Note_on_c, 0, 65, 28
1, 404913, Poly_aftertouch_c, 0, 68, 127
1, 404915, Note_on_c, 0, 78, 115
1, 404934, Note_off_c, 0, 78, 72
1, 404936, Note_on_c, 0, 70, 69
1, 404945, Note_off_c, 0, 65, 64
1, 404975, Poly_aftertouch_c, 0, 68, 0
1, 404990, Note_off_c, 0, 70, 63
1, 404995, Note_on_c, 0, 66, 68
1, 405024, Poly_aftertouch_c, 0, 80, 0
1, 405032, Poly_aftertouch_c, 0, 70, 0
1, 405037, Note_off_c, 0, 66, 50
1, 405038, Note_on_c, 0, 70, 57
1, 405092, Note_off_c, 0, 70, 64
1, 405094, Note_on_c, 0, 66, 74
1, 405138, Note_on_c, 0, 70, 66
1, 405142, Note_off_c, 0, 66, 58
1, 405189, Note_off_c, 0, 70, 62
1, 405192, Note_on_c, 0, 66, 63
1, 405232, Poly_aftertouch_c, 0, 70, 0
1, 405239, Note_on_c, 0, 70, 66
1, 405242, Note_off_c, 0, 66, 59
1, 405270, Control_c, 0, 64, 94
1, 405285, Control_c, 0, 64, 64
1, 405291, Note_off_c, 0, 70, 64
1, 405294, Note_on_c, 0, 66, 60
1, 405300, Control_c, 0, 64, 47
1, 405315, Control_c, 0, 64, 60
1, 405330, Control_c, 0, 64, 74
1, 405330, Poly_aftertouch_c, 0, 70, 0
1, 405338, Note_on_c, 0, 70, 66
1, 405344, Control_c, 0, 64, 127
1, 405346, Note_off_c, 0, 66, 61
1, 405355, Note_on_c, 0, 63, 105
1, 405385, Note_on_c, 0, 66, 52
1, 405389, Note_off_c, 0, 63, 52
1, 405390, Note_off_c, 0, 70, 64
1, 405437, Note_on_c, 0, 70, 70
1, 405449, Note_off_c, 0, 66, 59
1, 405486, Note_on_c, 0, 66, 60
1, 405497, Note_off_c, 0, 70, 62
1, 405558, Note_on_c, 0, 70, 67
1, 405573, Note_off_c, 0, 66, 62
1, 405580, Note_off_c, 0, 70, 60
1, 405582, Note_on_c, 0, 71, 75
1, 405585, Note_on_c, 0, 69, 70
1, 405617, Note_on_c, 0, 78, 126
1, 405619, Note_on_c, 0, 66, 77
1, 405636, Note_off_c, 0, 78, 73
1, 405638, Note_off_c, 0, 69, 62
1, 405640, Note_off_c, 0, 71, 63
1, 405648, Note_on_c, 0, 80, 47
1, 405648, Note_off_c, 0, 80, 127
1, 405693, Note_off_c, 0, 66, 57
1, 405697, Note_on_c, 0, 69, 66
1, 405697, Note_on_c, 0, 71, 59
1, 405726, Note_off_c, 0, 71, 65
1, 405744, Note_off_c, 0, 69, 59
1, 405759, Note_on_c, 0, 66, 67
1, 405810, Note_off_c, 0, 66, 58
1, 405812, Note_on_c, 0, 71, 66
1, 405815, Note_on_c, 0, 69, 58
1, 405842, Note_off_c, 0, 71, 64
1, 405848, Note_off_c, 0, 69, 56
1, 405866, Note_on_c, 0, 66, 67
1, 405914, Note_on_c, 0, 71, 62
1, 405917, Note_off_c, 0, 66, 59
1, 405931, Note_on_c, 0, 69, 65
1, 405943, Note_off_c, 0, 71, 63
1, 405962, Note_off_c, 0, 69, 62
1, 405968, Note_on_c, 0, 66, 66
1, 406006, Note_on_c, 0, 71, 68
1, 406015, Note_off_c, 0, 66, 60
1, 406036, Note_on_c, 0, 69, 44
1, 406050, Note_off_c, 0, 71, 0
1, 406057, Note_off_c, 0, 69, 60
1, 406087, Poly_aftertouch_c, 0, 71, 127
1, 406128, Note_on_c, 0, 66, 48
1, 406128, Note_on_c, 0, 69, 76
1, 406151, Note_off_c, 0, 69, 69
1, 406151, Poly_aftertouch_c, 0, 71, 0
1, 406159, Note_off_c, 0, 66, 63
1, 406181, Control_c, 0, 64, 73
1, 406196, Control_c, 0, 64, 0
1, 406209, Note_on_c, 0, 69, 102
1, 406210, Note_on_c, 0, 71, 99
1, 406225, Control_c, 0, 64, 37
1, 406238, Note_on_c, 0, 67, 55
1, 406238, Note_off_c, 0, 67, 127
1, 406240, Control_c, 0, 64, 66
1, 406255, Control_c, 0, 64, 109
1, 406269, Control_c, 0, 64, 127
1, 406292, Note_off_c, 0, 69, 43
1, 406295, Note_off_c, 0, 71, 66
1, 406349, Note_on_c, 0, 65, 89
1, 406371, Note_off_c, 0, 65, 69
1, 406408, Note_on_c, 0, 71, 97
1, 406410, Note_on_c, 0, 69, 88
1, 406424, Note_off_c, 0, 69, 74
1, 406427, Note_off_c, 0, 71, 72
1, 406471, Note_on_c, 0, 65, 102
1, 406492, Note_off_c, 0, 65, 70
1, 406516, Note_on_c, 0, 69, 98
1, 406516, Note_on_c, 0, 71, 108
1, 406533, Note_off_c, 0, 71, 73
1, 406538, Note_off_c, 0, 69, 67
1, 406571, Note_on_c, 0, 65, 104
1, 406596, Note_off_c, 0, 65, 67
1, 406621, Note_on_c, 0, 71, 107
1, 406623, Note_on_c, 0, 69, 101
1, 406635, Note_off_c, 0, 71, 74
1, 406638, Note_off_c, 0, 69, 73
1, 406674, Note_on_c, 0, 65, 112
1, 406701, Note_off_c, 0, 65, 67
1, 406725, Note_on_c, 0, 69, 99
1, 406725, Note_on_c, 0, 71, 108
1, 406738, Note_off_c, 0, 69, 74
1, 406740, Note_off_c, 0, 71, 76
1, 406774, Note_on_c, 0, 65, 108
1, 406797, Note_off_c, 0, 65, 71
1, 406828, Note_on_c, 0, 69, 101
1, 406828, Note_on_c, 0, 71, 107
1, 406841, Note_off_c, 0, 71, 76
1, 406844, Note_off_c, 0, 69, 71
1, 406878, Note_on_c, 0, 65, 103
1, 406900, Note_off_c, 0, 65, 69
1, 406933, Note_on_c, 0, 69, 103
1, 406933, Note_on_c, 0, 71, 105
1, 406945, Note_off_c, 0, 71, 79
1, 406948, Note_off_c, 0, 69, 70
1, 406978, Note_on_c, 0, 65, 112
1, 407002, Note_off_c, 0, 65, 72
1, 407042, Note_on_c, 0, 69, 101
1, 407042, Note_on_c, 0, 71, 100
1, 407056, Note_off_c, 0, 71, 77
1, 407057, Note_off_c, 0, 69, 75
1, 407088, Note_on_c, 0, 65, 113
1, 407112, Note_off_c, 0, 65, 74
1, 407145, Note_on_c, 0, 69, 98
1, 407145, Note_on_c, 0, 71, 103
1, 407158, Note_off_c, 0, 69, 75
1, 407158, Note_off_c, 0, 71, 79
1, 407192, Note_on_c, 0, 65, 108
1, 407217, Note_off_c, 0, 65, 67
1, 407248, Note_on_c, 0, 71, 108
1, 407249, Note_on_c, 0, 69, 103
1, 407262, Note_off_c, 0, 69, 74
1, 407262, Note_off_c, 0, 71, 73
1, 407279, Note_on_c, 0, 76, 45
1, 407279, Note_off_c, 0, 76, 127
1, 407279, Note_on_c, 0, 72, 31
1, 407294, Note_on_c, 0, 65, 115
1, 407315, Note_off_c, 0, 72, 46
1, 407318, Note_off_c, 0, 65, 74
1, 407354, Note_on_c, 0, 69, 99
1, 407355, Note_on_c, 0, 71, 107
1, 407368, Note_off_c, 0, 71, 77
1, 407371, Note_off_c, 0, 69, 70
1, 407398, Note_on_c, 0, 65, 108
1, 407427, Note_off_c, 0, 65, 69
1, 407458, Note_on_c, 0, 69, 99
1, 407458, Note_on_c, 0, 71, 103
1, 407472, Note_off_c, 0, 71, 74
1, 407473, Note_off_c, 0, 69, 71
1, 407497, Note_on_c, 0, 76, 38
1, 407497, Note_off_c, 0, 76, 127
1, 407500, Note_on_c, 0, 73, 29
1, 407500, Note_off_c, 0, 73, 127
1, 407506, Note_on_c, 0, 65, 115
1, 407535, Poly_aftertouch_c, 0, 76, 0
1, 407537, Note_off_c, 0, 65, 70
1, 407561, Note_on_c, 0, 69, 107
1, 407562, Note_on_c, 0, 71, 111
1, 407582, Note_off_c, 0, 71, 65
1, 407583, Note_off_c, 0, 69, 64
1, 407620, Note_on_c, 0, 65, 113
1, 407646, Note_off_c, 0, 65, 71
1, 407668, Note_on_c, 0, 69, 104
1, 407669, Note_on_c, 0, 71, 102
1, 407691, Note_off_c, 0, 71, 64
1, 407734, Note_on_c, 0, 65, 105
1, 407755, Note_off_c, 0, 69, 57
1, 407771, Note_off_c, 0, 65, 66
1, 407825, Note_on_c, 0, 76, 77
1, 407828, Note_on_c, 0, 68, 96
1, 407833, Note_on_c, 0, 74, 80
1, 407838, Note_on_c, 0, 64, 88
1, 407857, Note_on_c, 0, 69, 47
1, 407864, Control_c, 0, 64, 71
1, 407877, Note_off_c, 0, 69, 62
1, 407879, Control_c, 0, 64, 0
1, 407933, Note_off_c, 0, 64, 62
1, 407939, Control_c, 0, 64, 59
1, 407940, Note_off_c, 0, 68, 60
1, 407954, Control_c, 0, 64, 81
1, 407963, Note_off_c, 0, 74, 52
1, 407965, Note_on_c, 0, 65, 73
1, 407967, Note_on_c, 0, 69, 65
1, 407969, Control_c, 0, 64, 127
1, 407999, Note_off_c, 0, 65, 60
1, 408029, Note_off_c, 0, 69, 63
1, 408033, Note_on_c, 0, 70, 79
1, 408054, Note_off_c, 0, 70, 72
1, 408066, Note_on_c, 0, 65, 47
1, 408067, Note_off_c, 0, 76, 38
1, 408088, Note_on_c, 0, 67, 75
1, 408095, Note_on_c, 0, 66, 7
1, 408096, Note_off_c, 0, 65, 57
1, 408096, Note_on_c, 0, 71, 83
1, 408138, Note_off_c, 0, 67, 66
1, 408139, Note_on_c, 0, 68, 80
1, 408141, Note_off_c, 0, 66, 49
1, 408145, Note_on_c, 0, 72, 77
1, 408152, Note_off_c, 0, 71, 63
1, 408182, Note_off_c, 0, 68, 67
1, 408188, Note_on_c, 0, 73, 77
1, 408189, Note_off_c, 0, 72, 65
1, 408199, Note_on_c, 0, 69, 71
1, 408209, Note_off_c, 0, 73, 70
1, 408244, Note_on_c, 0, 74, 85
1, 408247, Note_on_c, 0, 70, 83
1, 408247, Note_off_c, 0, 69, 58
1, 408265, Control_c, 0, 64, 82
1, 408278, Note_off_c, 0, 74, 58
1, 408280, Control_c, 0, 64, 59
1, 408291, Note_on_c, 0, 75, 74
1, 408295, Control_c, 0, 64, 0
1, 408298, Note_on_c, 0, 71, 66
1, 408302, Note_off_c, 0, 70, 64
1, 408313, Note_off_c, 0, 75, 68
1, 408328, Note_off_c, 0, 71, 67
1, 408346, Note_on_c, 0, 72, 73
1, 408348, Note_on_c, 0, 76, 84
1, 408379, Note_off_c, 0, 72, 52
1, 408395, Note_off_c, 0, 76, 65
1, 408403, Note_on_c, 0, 73, 80
1, 408408, Note_on_c, 0, 77, 66
1, 408424, Note_off_c, 0, 77, 67
1, 408425, Note_on_c, 0, 78, 66
1, 408438, Note_off_c, 0, 73, 63
1, 408442, Note_off_c, 0, 78, 65
1, 408459, Note_on_c, 0, 74, 78
1, 408468, Note_on_c, 0, 79, 82
1, 408486, Note_off_c, 0, 74, 57
1, 408510, Note_on_c, 0, 75, 62
1, 408516, Note_on_c, 0, 88, 91
1, 408522, Note_on_c, 0, 76, 82
1, 408522, Note_on_c, 0, 80, 88
1, 408526, Note_on_c, 0, 86, 86
1, 408544, Note_off_c, 0, 79, 63
1, 408546, Note_off_c, 0, 75, 0
1, 408546, Note_on_c, 0, 75, 34
1, 408554, Control_c, 0, 64, 69
1, 408555, Note_on_c, 0, 77, 56
1, 408569, Control_c, 0, 64, 112
1, 408576, Note_off_c, 0, 75, 55
1, 408584, Note_off_c, 0, 77, 55
1, 408584, Control_c, 0, 64, 127
1, 408597, Note_off_c, 0, 80, 61
1, 408603, Note_off_c, 0, 76, 66
1, 408627, Note_on_c, 0, 81, 82
1, 408629, Note_on_c, 0, 77, 71
1, 408670, Note_off_c, 0, 86, 37
1, 408679, Note_off_c, 0, 81, 63
1, 408680, Note_on_c, 0, 82, 82
1, 408685, Note_off_c, 0, 88, 63
1, 408692, Note_on_c, 0, 78, 76
1, 408696, Note_off_c, 0, 77, 62
1, 408698, Note_off_c, 0, 82, 72
1, 408732, Note_on_c, 0, 79, 78
1, 408740, Note_on_c, 0, 83, 84
1, 408755, Note_off_c, 0, 78, 62
1, 408781, Note_on_c, 0, 80, 82
1, 408785, Note_off_c, 0, 79, 65
1, 408790, Note_on_c, 0, 84, 82
1, 408797, Note_off_c, 0, 83, 65
1, 408826, Note_on_c, 0, 85, 80
1, 408827, Note_off_c, 0, 80, 62
1, 408831, Note_off_c, 0, 84, 65
1, 408833, Note_on_c, 0, 81, 80
1, 408844, Note_off_c, 0, 85, 73
1, 408883, Note_on_c, 0, 82, 84
1, 408883, Note_on_c, 0, 86, 87
1, 408895, Note_off_c, 0, 81, 61
1, 408924, Note_off_c, 0, 86, 61
1, 408926, Note_on_c, 0, 83, 79
1, 408930, Note_on_c, 0, 87, 88
1, 408942, Note_off_c, 0, 82, 63
1, 408954, Note_off_c, 0, 87, 68
1, 408970, Note_off_c, 0, 83, 66
1, 408991, Note_on_c, 0, 88, 89
1, 408992, Note_on_c, 0, 84, 75
1, 409040, Note_off_c, 0, 88, 65
1, 409042, Note_off_c, 0, 84, 53
1, 409043, Note_on_c, 0, 89, 76
1, 409046, Note_on_c, 0, 85, 82
1, 409064, Note_off_c, 0, 89, 70
1, 409073, Note_on_c, 0, 90, 65
1, 409088, Note_off_c, 0, 90, 64
1, 409090, Note_off_c, 0, 85, 66
1, 409112, Note_on_c, 0, 86, 79
1, 409118, Note_on_c, 0, 91, 82
1, 409118, Control_c, 0, 64, 77
1, 409133, Control_c, 0, 64, 0
1, 409136, Note_off_c, 0, 86, 62
1, 409160, Note_on_c, 0, 100, 89
1, 409163, Note_on_c, 0, 87, 83
1, 409166, Note_on_c, 0, 92, 92
1, 409169, Note_on_c, 0, 98, 83
1, 409175, Note_off_c, 0, 91, 62
1, 409193, Control_c, 0, 64, 59
1, 409195, Note_off_c, 0, 87, 62
1, 409199, Note_on_c, 0, 88, 60
1, 409207, Control_c, 0, 64, 86
1, 409220, Note_off_c, 0, 92, 63
1, 409222, Control_c, 0, 64, 127
1, 409246, Note_on_c, 0, 93, 84
1, 409276, Note_off_c, 0, 98, 38
1, 409296, Note_on_c, 0, 90, 81
1, 409306, Note_off_c, 0, 93, 65
1, 409307, Note_on_c, 0, 94, 85
1, 409307, Note_off_c, 0, 100, 60
1, 409338, Note_on_c, 0, 91, 77
1, 409339, Note_off_c, 0, 88, 34
1, 409342, Note_off_c, 0, 94, 64
1, 409359, Note_off_c, 0, 90, 62
1, 409372, Note_on_c, 0, 95, 79
1, 409375, Note_on_c, 0, 92, 81
1, 409381, Note_off_c, 0, 91, 64
1, 409416, Note_off_c, 0, 92, 67
1, 409418, Note_on_c, 0, 96, 80
1, 409419, Note_off_c, 0, 95, 64
1, 409437, Note_on_c, 0, 93, 73
1, 409437, Note_off_c, 0, 96, 71
1, 409441, Note_on_c, 0, 97, 65
1, 409458, Note_off_c, 0, 97, 66
1, 409481, Note_on_c, 0, 98, 105
1, 409482, Note_on_c, 0, 94, 96
1, 409484, Note_on_c, 0, 100, 102
1, 409498, Note_off_c, 0, 93, 59
1, 409515, Note_on_c, 0, 99, 44
1, 409536, Note_on_c, 0, 95, 83
1, 409542, Note_off_c, 0, 94, 61
1, 409545, Note_on_c, 0, 97, 77
1, 409546, Note_off_c, 0, 98, 55
1, 409589, Note_on_c, 0, 94, 58
1, 409589, Note_on_c, 0, 96, 75
1, 409591, Note_off_c, 0, 100, 67
1, 409594, Note_off_c, 0, 95, 56
1, 409605, Note_off_c, 0, 99, 33
1, 409616, Note_on_c, 0, 93, 65
1, 409630, Note_off_c, 0, 97, 64
1, 409640, Note_off_c, 0, 96, 63
1, 409643, Note_off_c, 0, 94, 64
1, 409647, Note_on_c, 0, 95, 68
1, 409661, Note_on_c, 0, 92, 75
1, 409670, Note_off_c, 0, 93, 65
1, 409693, Note_off_c, 0, 92, 67
1, 409702, Note_off_c, 0, 95, 60
1, 409709, Note_on_c, 0, 94, 73
1, 409718, Note_on_c, 0, 91, 78
1, 409753, Note_off_c, 0, 91, 59
1, 409759, Note_off_c, 0, 94, 65
1, 409761, Note_on_c, 0, 93, 77
1, 409779, Control_c, 0, 64, 73
1, 409780, Note_on_c, 0, 90, 80
1, 409793, Control_c, 0, 64, 0
1, 409809, Note_on_c, 0, 100, 77
1, 409813, Note_off_c, 0, 93, 67
1, 409816, Note_on_c, 0, 92, 82
1, 409817, Note_on_c, 0, 88, 78
1, 409821, Note_on_c, 0, 98, 68
1, 409830, Note_off_c, 0, 90, 65
1, 409837, Control_c, 0, 64, 59
1, 409852, Control_c, 0, 64, 81
1, 409858, Note_off_c, 0, 92, 63
1, 409860, Note_off_c, 0, 98, 47
1, 409865, Poly_aftertouch_c, 0, 90, 0
1, 409866, Control_c, 0, 64, 127
1, 409872, Note_on_c, 0, 93, 86
1, 409873, Note_on_c, 0, 90, 71
1, 409877, Note_off_c, 0, 88, 63
1, 409917, Note_off_c, 0, 90, 64
1, 409929, Note_on_c, 0, 91, 63
1, 409930, Note_off_c, 0, 93, 64
1, 409933, Note_on_c, 0, 94, 85
1, 409959, Note_off_c, 0, 94, 66
1, 409959, Note_off_c, 0, 100, 31
1, 409988, Note_off_c, 0, 91, 63
1, 409990, Note_on_c, 0, 92, 72
1, 409994, Note_on_c, 0, 95, 85
1, 410039, Note_on_c, 0, 93, 82
1, 410054, Note_on_c, 0, 96, 74
1, 410056, Note_off_c, 0, 95, 64
1, 410069, Note_off_c, 0, 92, 64
1, 410071, Note_off_c, 0, 96, 68
1, 410072, Note_on_c, 0, 97, 63
1, 410075, Note_on_c, 0, 94, 85
1, 410081, Note_off_c, 0, 93, 66
1, 410088, Note_off_c, 0, 97, 0
1, 410107, Note_on_c, 0, 100, 97
1, 410108, Note_on_c, 0, 98, 100
1, 410119, Note_on_c, 0, 95, 79
1, 410119, Note_on_c, 0, 97, 17
1, 410120, Note_off_c, 0, 94, 67
1, 410137, Note_on_c, 0, 99, 42
1, 410160, Note_off_c, 0, 97, 0
1, 410177, Note_on_c, 0, 94, 71
1, 410179, Note_on_c, 0, 97, 53
1, 410180, Note_off_c, 0, 98, 62
1, 410184, Note_off_c, 0, 95, 52
1, 410202, Note_on_c, 0, 93, 75
1, 410210, Note_off_c, 0, 100, 68
1, 410213, Note_off_c, 0, 99, 45
1, 410227, Note_on_c, 0, 96, 59
1, 410242, Note_off_c, 0, 94, 64
1, 410255, Note_on_c, 0, 92, 73
1, 410255, Note_off_c, 0, 96, 52
1, 410257, Note_off_c, 0, 97, 63
1, 410260, Note_off_c, 0, 93, 65
1, 410275, Note_on_c, 0, 95, 74
1, 410283, Note_off_c, 0, 92, 68
1, 410323, Note_on_c, 0, 91, 69
1, 410323, Note_off_c, 0, 95, 50
1, 410340, Note_on_c, 0, 94, 77
1, 410371, Note_off_c, 0, 91, 49
1, 410385, Note_off_c, 0, 94, 62
1, 410388, Note_on_c, 0, 90, 75
1, 410394, Note_on_c, 0, 93, 71
1, 410408, Control_c, 0, 64, 73
1, 410423, Control_c, 0, 64, 0
1, 410439, Note_off_c, 0, 90, 62
1, 410442, Note_off_c, 0, 93, 63
1, 410445, Note_on_c, 0, 88, 74
1, 410448, Note_on_c, 0, 100, 58
1, 410460, Note_on_c, 0, 98, 42
1, 410461, Note_on_c, 0, 92, 70
1, 410482, Control_c, 0, 64, 60
1, 410488, Note_off_c, 0, 92, 67
1, 410492, Note_off_c, 0, 98, 53
1, 410497, Control_c, 0, 64, 82
1, 410500, Note_off_c, 0, 88, 65
1, 410504, Note_on_c, 0, 90, 62
1, 410508, Note_on_c, 0, 93, 76
1, 410512, Control_c, 0, 64, 127
1, 410531, Note_off_c, 0, 90, 68
1, 410541, Note_on_c, 0, 91, 70
1, 410565, Note_off_c, 0, 93, 64
1, 410566, Note_on_c, 0, 94, 86
1, 410577, Note_off_c, 0, 100, 32
1, 410586, Note_off_c, 0, 94, 67
1, 410608, Note_off_c, 0, 91, 56
1, 410623, Note_on_c, 0, 92, 61
1, 410636, Note_on_c, 0, 95, 77
1, 410659, Note_on_c, 0, 93, 72
1, 410659, Note_off_c, 0, 92, 60
1, 410686, Note_off_c, 0, 95, 64
1, 410689, Note_on_c, 0, 96, 77
1, 410699, Note_on_c, 0, 94, 81
1, 410704, Note_off_c, 0, 93, 66
1, 410708, Note_on_c, 0, 97, 73
1, 410710, Note_off_c, 0, 96, 71
1, 410731, Note_off_c, 0, 97, 70
1, 410745, Note_off_c, 0, 94, 66
1, 410757, Note_on_c, 0, 98, 84
1, 410760, Note_on_c, 0, 95, 65
1, 410813, Note_on_c, 0, 96, 86
1, 410813, Note_on_c, 0, 99, 86
1, 410820, Note_off_c, 0, 95, 65
1, 410832, Note_off_c, 0, 98, 64
1, 410856, Note_on_c, 0, 97, 80
1, 410859, Note_on_c, 0, 100, 56
1, 410865, Note_off_c, 0, 96, 65
1, 410879, Note_on_c, 0, 101, 104
1, 410898, Note_off_c, 0, 99, 61
1, 410898, Note_on_c, 0, 98, 80
1, 410904, Note_off_c, 0, 97, 66
1, 410910, Note_off_c, 0, 100, 67
1, 410949, Note_on_c, 0, 100, 59
1, 410952, Note_on_c, 0, 97, 71
1, 410966, Note_on_c, 0, 96, 31
1, 410981, Note_off_c, 0, 98, 56
1, 411002, Note_on_c, 0, 99, 82
1, 411004, Note_off_c, 0, 97, 66
1, 411023, Note_off_c, 0, 96, 65
1, 411033, Note_off_c, 0, 100, 68
1, 411034, Note_off_c, 0, 101, 64
1, 411059, Note_off_c, 0, 99, 64
1, 411074, Note_on_c, 0, 98, 50
1, 411075, Note_on_c, 0, 95, 61
1, 411096, Note_off_c, 0, 95, 62
1, 411101, Note_off_c, 0, 98, 60
1, 411123, Note_on_c, 0, 92, 77
1, 411133, Note_on_c, 0, 95, 68
1, 411145, Note_off_c, 0, 92, 70
1, 411154, Note_on_c, 0, 89, 81
1, 411173, Note_off_c, 0, 89, 72
1, 411187, Note_on_c, 0, 92, 88
1, 411217, Note_off_c, 0, 95, 49
1, 411223, Note_on_c, 0, 89, 70
1, 411240, Note_on_c, 0, 86, 66
1, 411247, Note_off_c, 0, 92, 63
1, 411253, Note_off_c, 0, 89, 63
1, 411263, Note_on_c, 0, 88, 74
1, 411277, Note_off_c, 0, 86, 49
1, 411290, Note_off_c, 0, 88, 65
1, 411300, Note_on_c, 0, 85, 61
1, 411312, Note_on_c, 0, 84, 66
1, 411320, Note_off_c, 0, 85, 66
1, 411336, Note_on_c, 0, 87, 68
1, 411348, Note_off_c, 0, 84, 62
1, 411366, Note_on_c, 0, 83, 72
1, 411366, Note_off_c, 0, 87, 66
1, 411390, Note_on_c, 0, 86, 59
1, 411394, Control_c, 0, 64, 82
1, 411408, Control_c, 0, 64, 55
1, 411423, Control_c, 0, 64, 0
1, 411425, Note_on_c, 0, 87, 69
1, 411425, Note_off_c, 0, 86, 51
1, 411427, Note_on_c, 0, 84, 82
1, 411427, Note_off_c, 0, 83, 63
1, 411453, Note_on_c, 0, 88, 71
1, 411465, Note_on_c, 0, 85, 80
1, 411468, Control_c, 0, 64, 46
1, 411471, Note_off_c, 0, 84, 63
1, 411482, Control_c, 0, 64, 70
1, 411488, Note_on_c, 0, 89, 98
1, 411488, Note_off_c, 0, 87, 60
1, 411497, Control_c, 0, 64, 114
1, 411500, Note_on_c, 0, 86, 88
1, 411509, Note_off_c, 0, 85, 63
1, 411512, Note_off_c, 0, 88, 63
1, 411512, Control_c, 0, 64, 127
1, 411565, Note_on_c, 0, 88, 72
1, 411569, Note_on_c, 0, 85, 76
1, 411598, Note_off_c, 0, 86, 60
1, 411602, Note_on_c, 0, 84, 81
1, 411613, Note_on_c, 0, 87, 82
1, 411631, Note_off_c, 0, 85, 65
1, 411641, Note_off_c, 0, 84, 63
1, 411643, Note_off_c, 0, 88, 65
1, 411649, Note_off_c, 0, 89, 56
1, 411678, Note_off_c, 0, 87, 63
1, 411682, Note_on_c, 0, 86, 50
1, 411683, Note_on_c, 0, 83, 73
1, 411708, Note_off_c, 0, 86, 57
1, 411735, Note_on_c, 0, 80, 83
1, 411765, Note_off_c, 0, 80, 62
1, 411777, Note_on_c, 0, 77, 67
1, 411801, Note_off_c, 0, 77, 69
1, 411802, Note_on_c, 0, 80, 71
1, 411813, Note_off_c, 0, 83, 60
1, 411852, Note_off_c, 0, 80, 65
1, 411855, Note_on_c, 0, 74, 66
1, 411857, Note_on_c, 0, 77, 48
1, 411877, Note_off_c, 0, 77, 64
1, 411891, Note_on_c, 0, 76, 74
1, 411905, Note_off_c, 0, 74, 60
1, 411913, Note_on_c, 0, 73, 74
1, 411915, Note_off_c, 0, 76, 70
1, 411946, Note_on_c, 0, 72, 64
1, 411965, Note_off_c, 0, 73, 48
1, 411986, Note_off_c, 0, 72, 59
1, 412002, Note_on_c, 0, 71, 68
1, 412006, Note_on_c, 0, 74, 17
1, 412024, Control_c, 0, 64, 75
1, 412039, Control_c, 0, 64, 42
1, 412048, Note_on_c, 0, 72, 27
1, 412054, Control_c, 0, 64, 0
1, 412062, Note_off_c, 0, 71, 60
1, 412084, Note_on_c, 0, 76, 69
1, 412088, Note_off_c, 0, 72, 65
1, 412090, Note_on_c, 0, 73, 67
1, 412099, Control_c, 0, 64, 42
1, 412114, Control_c, 0, 64, 64
1, 412117, Note_off_c, 0, 73, 66
1, 412123, Note_off_c, 0, 74, 0
1, 412123, Note_on_c, 0, 74, 29
1, 412125, Note_on_c, 0, 77, 78
1, 412129, Control_c, 0, 64, 79
1, 412136, Note_off_c, 0, 76, 60
1, 412144, Control_c, 0, 64, 95
1, 412159, Control_c, 0, 64, 106
1, 412168, Note_off_c, 0, 74, 63
1, 412173, Control_c, 0, 64, 110
1, 412179, Note_on_c, 0, 73, 67
1, 412188, Control_c, 0, 64, 112
1, 412192, Note_on_c, 0, 76, 68
1, 412203, Control_c, 0, 64, 115
1, 412203, Note_off_c, 0, 73, 71
1, 412207, Note_on_c, 0, 71, 68
1, 412233, Note_on_c, 0, 74, 73
1, 412239, Note_off_c, 0, 77, 53
1, 412247, Control_c, 0, 64, 102
1, 412257, Note_off_c, 0, 76, 62
1, 412260, Note_off_c, 0, 74, 65
1, 412262, Control_c, 0, 64, 80
1, 412265, Note_off_c, 0, 71, 0
1, 412268, Note_on_c, 0, 68, 65
1, 412284, Control_c, 0, 64, 62
1, 412291, Note_on_c, 0, 71, 44
1, 412299, Control_c, 0, 64, 0
1, 412332, Note_off_c, 0, 68, 63
1, 412344, Control_c, 0, 64, 47
1, 412350, Note_on_c, 0, 74, 71
1, 412358, Control_c, 0, 64, 67
1, 412373, Control_c, 0, 64, 82
1, 412381, Note_on_c, 0, 73, 68
1, 412388, Note_on_c, 0, 76, 61
1, 412388, Control_c, 0, 64, 107
1, 412390, Note_off_c, 0, 71, 63
1, 412398, Note_off_c, 0, 74, 0
1, 412403, Control_c, 0, 64, 127
1, 412409, Note_on_c, 0, 77, 80
1, 412415, Note_off_c, 0, 73, 64
1, 412416, Note_on_c, 0, 74, 60
1, 412418, Note_off_c, 0, 76, 64
1, 412453, Note_off_c, 0, 74, 63
1, 412475, Note_off_c, 0, 77, 64
1, 412477, Note_on_c, 0, 73, 65
1, 412493, Note_on_c, 0, 74, 74
1, 412496, Note_on_c, 0, 76, 48
1, 412505, Note_off_c, 0, 73, 67
1, 412509, Note_on_c, 0, 71, 70
1, 412526, Note_off_c, 0, 76, 53
1, 412545, Note_off_c, 0, 74, 56
1, 412551, Control_c, 0, 64, 77
1, 412563, Note_off_c, 0, 71, 62
1, 412565, Control_c, 0, 64, 53
1, 412576, Note_on_c, 0, 64, 58
1, 412579, Note_on_c, 0, 68, 65
1, 412580, Control_c, 0, 64, 0
1, 412595, Control_c, 0, 64, 48
1, 412610, Control_c, 0, 64, 64
1, 412615, Note_off_c, 0, 64, 60
1, 412616, Note_off_c, 0, 68, 59
1, 412625, Control_c, 0, 64, 79
1, 412636, Note_on_c, 0, 71, 51
1, 412638, Note_on_c, 0, 74, 53
1, 412639, Control_c, 0, 64, 99
1, 412654, Control_c, 0, 64, 127
1, 412672, Note_off_c, 0, 71, 65
1, 412675, Note_on_c, 0, 73, 71
1, 412696, Note_on_c, 0, 76, 55
1, 412719, Note_off_c, 0, 73, 58
1, 412719, Note_off_c, 0, 76, 62
1, 412722, Note_on_c, 0, 77, 66
1, 412770, Note_off_c, 0, 74, 0
1, 412778, Note_off_c, 0, 77, 62
1, 412788, Note_on_c, 0, 76, 51
1, 412796, Note_on_c, 0, 73, 9
1, 412800, Note_on_c, 0, 74, 4
1, 412812, Note_off_c, 0, 76, 57
1, 412817, Note_on_c, 0, 71, 52
1, 412844, Note_off_c, 0, 71, 63
1, 412844, Note_off_c, 0, 73, 52
1, 412862, Control_c, 0, 64, 96
1, 412868, Note_off_c, 0, 74, 53
1, 412877, Control_c, 0, 64, 71
1, 412880, Note_on_c, 0, 66, 57
1, 412892, Control_c, 0, 64, 51
1, 412899, Note_on_c, 0, 69, 54
1, 412907, Control_c, 0, 64, 0
1, 412922, Control_c, 0, 64, 50
1, 412926, Note_off_c, 0, 66, 54
1, 412937, Control_c, 0, 64, 64
1, 412952, Control_c, 0, 64, 76
1, 412957, Note_off_c, 0, 69, 61
1, 412967, Note_on_c, 0, 74, 59
1, 412967, Control_c, 0, 64, 99
1, 412969, Note_on_c, 0, 71, 44
1, 412981, Control_c, 0, 64, 127
1, 413006, Note_off_c, 0, 71, 53
1, 413010, Note_off_c, 0, 74, 59
1, 413039, Note_on_c, 0, 73, 52
1, 413056, Note_on_c, 0, 76, 35
1, 413068, Note_off_c, 0, 73, 64
1, 413083, Note_on_c, 0, 78, 57
1, 413085, Note_on_c, 0, 74, 50
1, 413096, Note_off_c, 0, 76, 39
1, 413124, Note_off_c, 0, 74, 52
1, 413141, Note_off_c, 0, 78, 60
1, 413145, Note_on_c, 0, 76, 35
1, 413151, Note_on_c, 0, 73, 54
1, 413164, Note_on_c, 0, 74, 54
1, 413175, Note_off_c, 0, 73, 60
1, 413179, Note_off_c, 0, 76, 47
1, 413180, Note_on_c, 0, 71, 50
1, 413213, Note_off_c, 0, 71, 62
1, 413226, Control_c, 0, 64, 85
1, 413226, Note_off_c, 0, 74, 62
1, 413239, Note_on_c, 0, 70, 58
1, 413241, Control_c, 0, 64, 65
1, 413247, Note_on_c, 0, 67, 44
1, 413255, Control_c, 0, 64, 0
1, 413288, Note_off_c, 0, 67, 62
1, 413300, Control_c, 0, 64, 37
1, 413300, Note_off_c, 0, 70, 61
1, 413315, Control_c, 0, 64, 55
1, 413324, Note_on_c, 0, 71, 40
1, 413326, Note_on_c, 0, 74, 41
1, 413329, Control_c, 0, 64, 70
1, 413344, Control_c, 0, 64, 86
1, 413358, Note_off_c, 0, 71, 56
1, 413359, Control_c, 0, 64, 127
1, 413371, Note_off_c, 0, 74, 58
1, 413376, Note_on_c, 0, 73, 55
1, 413386, Note_on_c, 0, 76, 55
1, 413412, Note_off_c, 0, 73, 65
1, 413425, Note_off_c, 0, 76, 63
1, 413444, Note_on_c, 0, 74, 53
1, 413447, Note_on_c, 0, 78, 59
1, 413476, Note_off_c, 0, 74, 59
1, 413515, Note_on_c, 0, 73, 56
1, 413518, Note_on_c, 0, 76, 49
1, 413538, Note_off_c, 0, 78, 51
1, 413548, Note_off_c, 0, 73, 64
1, 413563, Note_off_c, 0, 76, 56
1, 413572, Note_on_c, 0, 74, 58
1, 413573, Note_on_c, 0, 71, 43
1, 413602, Note_off_c, 0, 71, 59
1, 413655, Control_c, 0, 64, 89
1, 413670, Control_c, 0, 64, 69
1, 413671, Note_on_c, 0, 68, 43
1, 413685, Control_c, 0, 64, 48
1, 413688, Note_off_c, 0, 74, 36
1, 413700, Control_c, 0, 64, 0
1, 413708, Note_on_c, 0, 71, 51
1, 413756, Note_off_c, 0, 71, 61
1, 413759, Control_c, 0, 64, 50
1, 413781, Control_c, 0, 64, 65
1, 413796, Control_c, 0, 64, 76
1, 413810, Control_c, 0, 64, 96
1, 413825, Control_c, 0, 64, 127
1, 413855, Note_off_c, 0, 68, 43
1, 413868, Note_on_c, 0, 71, 42
1, 413874, Note_on_c, 0, 74, 48
1, 413931, Note_off_c, 0, 74, 41
1, 413977, Note_on_c, 0, 78, 51
1, 413984, Note_off_c, 0, 71, 37
1, 413995, Note_on_c, 0, 74, 44
1, 414007, Note_off_c, 0, 78, 64
1, 414045, Note_on_c, 0, 76, 66
1, 414058, Note_off_c, 0, 74, 57
1, 414096, Note_off_c, 0, 76, 59
1, 414100, Note_on_c, 0, 77, 66
1, 414128, Note_on_c, 0, 76, 60
1, 414132, Note_off_c, 0, 77, 63
1, 414183, Note_off_c, 0, 76, 63
1, 414189, Note_on_c, 0, 78, 80
1, 414249, Note_on_c, 0, 76, 76
1, 414251, Note_off_c, 0, 78, 64
1, 414300, Note_on_c, 0, 77, 78
1, 414300, Note_off_c, 0, 76, 63
1, 414356, Note_off_c, 0, 77, 64
1, 414357, Note_on_c, 0, 76, 67
1, 414403, Note_on_c, 0, 78, 78
1, 414405, Note_off_c, 0, 76, 63
1, 414463, Note_on_c, 0, 76, 62
1, 414463, Note_off_c, 0, 78, 62
1, 414504, Note_off_c, 0, 76, 63
1, 414517, Note_on_c, 0, 77, 68
1, 414568, Note_off_c, 0, 77, 58
1, 414585, Note_on_c, 0, 76, 55
1, 414618, Note_off_c, 0, 76, 64
1, 414627, Note_on_c, 0, 78, 67
1, 414675, Note_off_c, 0, 78, 58
1, 414696, Note_on_c, 0, 76, 60
1, 414723, Note_off_c, 0, 76, 65
1, 414744, Note_on_c, 0, 77, 56
1, 414773, Note_off_c, 0, 77, 62
1, 414812, Note_on_c, 0, 76, 55
1, 414837, Note_off_c, 0, 76, 63
1, 414850, Note_on_c, 0, 78, 61
1, 414886, Note_off_c, 0, 78, 58
1, 414922, Note_on_c, 0, 76, 52
1, 414944, Note_off_c, 0, 76, 64
1, 414977, Note_on_c, 0, 77, 43
1, 415004, Note_off_c, 0, 77, 58
1, 415034, Note_on_c, 0, 76, 59
1, 415059, Note_off_c, 0, 76, 63
1, 415082, Note_on_c, 0, 78, 58
1, 415118, Note_off_c, 0, 78, 59
1, 415149, Note_on_c, 0, 76, 57
1, 415178, Note_off_c, 0, 76, 62
1, 415215, Note_on_c, 0, 77, 47
1, 415242, Note_off_c, 0, 77, 60
1, 415280, Note_on_c, 0, 76, 53
1, 415307, Note_off_c, 0, 76, 62
1, 415325, Note_on_c, 0, 78, 60
1, 415360, Note_off_c, 0, 78, 59
1, 415387, Note_on_c, 0, 76, 58
1, 415410, Note_off_c, 0, 76, 65
1, 415438, Note_on_c, 0, 77, 60
1, 415463, Note_off_c, 0, 77, 66
1, 415485, Note_on_c, 0, 76, 68
1, 415514, Note_off_c, 0, 76, 65
1, 415532, Note_on_c, 0, 78, 69
1, 415565, Note_off_c, 0, 78, 59
1, 415579, Note_on_c, 0, 76, 64
1, 415605, Control_c, 0, 64, 80
1, 415614, Note_off_c, 0, 76, 65
1, 415620, Control_c, 0, 64, 53
1, 415629, Note_on_c, 0, 78, 69
1, 415635, Control_c, 0, 64, 0
1, 415661, Note_off_c, 0, 78, 61
1, 415664, Control_c, 0, 64, 53
1, 415679, Control_c, 0, 64, 66
1, 415689, Note_on_c, 0, 76, 63
1, 415694, Control_c, 0, 64, 78
1, 415709, Control_c, 0, 64, 113
1, 415714, Note_off_c, 0, 76, 62
1, 415724, Control_c, 0, 64, 127
1, 415726, Note_on_c, 0, 78, 71
1, 415763, Note_off_c, 0, 78, 58
1, 415784, Note_on_c, 0, 76, 65
1, 415816, Note_off_c, 0, 76, 64
1, 415827, Note_on_c, 0, 78, 69
1, 415861, Note_off_c, 0, 78, 56
1, 415873, Note_on_c, 0, 76, 68
1, 415917, Note_off_c, 0, 76, 59
1, 415928, Note_on_c, 0, 78, 70
1, 415971, Note_off_c, 0, 78, 57
1, 415980, Note_on_c, 0, 76, 61
1, 416015, Note_off_c, 0, 76, 59
1, 416036, Note_on_c, 0, 78, 66
1, 416075, Note_off_c, 0, 78, 59
1, 416082, Note_on_c, 0, 76, 61
1, 416129, Note_off_c, 0, 76, 59
1, 416141, Note_on_c, 0, 78, 65
1, 416186, Note_off_c, 0, 78, 58
1, 416193, Note_on_c, 0, 76, 63
1, 416232, Note_off_c, 0, 76, 54
1, 416251, Note_on_c, 0, 78, 58
1, 416283, Note_off_c, 0, 78, 62
1, 416294, Note_on_c, 0, 76, 57
1, 416332, Note_off_c, 0, 76, 61
1, 416354, Control_c, 0, 67, 19
1, 416363, Note_on_c, 0, 78, 53
1, 416369, Control_c, 0, 67, 24
1, 416384, Control_c, 0, 67, 29
1, 416386, Note_off_c, 0, 78, 61
1, 416398, Control_c, 0, 67, 35
1, 416404, Note_on_c, 0, 76, 61
1, 416413, Control_c, 0, 67, 44
1, 416428, Control_c, 0, 67, 56
1, 416437, Note_off_c, 0, 76, 62
1, 416443, Control_c, 0, 67, 69
1, 416458, Control_c, 0, 67, 83
1, 416464, Note_on_c, 0, 78, 58
1, 416472, Control_c, 0, 67, 96
1, 416487, Note_off_c, 0, 78, 60
1, 416487, Control_c, 0, 67, 109
1, 416502, Control_c, 0, 67, 119
1, 416511, Note_on_c, 0, 76, 59
1, 416517, Control_c, 0, 67, 127
1, 416544, Note_off_c, 0, 76, 60
1, 416565, Note_on_c, 0, 78, 58
1, 416593, Note_off_c, 0, 78, 58
1, 416615, Note_on_c, 0, 76, 56
1, 416651, Note_off_c, 0, 76, 63
1, 416673, Note_on_c, 0, 78, 61
1, 416705, Note_off_c, 0, 78, 61
1, 416740, Note_on_c, 0, 76, 53
1, 416763, Note_off_c, 0, 76, 61
1, 416814, Note_on_c, 0, 78, 39
1, 416841, Note_off_c, 0, 78, 52
1, 416842, Note_on_c, 0, 76, 55
1, 416901, Note_on_c, 0, 78, 49
1, 416905, Note_off_c, 0, 76, 0
1, 416926, Note_off_c, 0, 78, 60
1, 416943, Poly_aftertouch_c, 0, 76, 127
1, 416965, Poly_aftertouch_c, 0, 76, 0
1, 417012, Note_on_c, 0, 78, 44
1, 417036, Note_off_c, 0, 78, 56
1, 417047, Note_on_c, 0, 76, 52
1, 417103, Note_on_c, 0, 56, 42
1, 417198, Note_off_c, 0, 76, 57
1, 417213, Note_on_c, 0, 83, 57
1, 417234, Note_on_c, 0, 71, 17
1, 417298, Note_off_c, 0, 71, 41
1, 417313, Note_off_c, 0, 56, 58
1, 417324, Note_off_c, 0, 83, 61
1, 417340, Note_on_c, 0, 64, 36
1, 417360, Note_on_c, 0, 76, 44
1, 417371, Note_off_c, 0, 64, 48
1, 417387, Note_off_c, 0, 76, 52
1, 417527, Control_c, 0, 64, 104
1, 417532, Note_on_c, 0, 45, 40
1, 417542, Control_c, 0, 64, 76
1, 417557, Control_c, 0, 64, 60
1, 417569, Note_on_c, 0, 85, 51
1, 417571, Control_c, 0, 64, 42
1, 417586, Control_c, 0, 64, 47
1, 417593, Note_on_c, 0, 73, 33
1, 417601, Control_c, 0, 64, 56
1, 417616, Control_c, 0, 64, 66
1, 417631, Control_c, 0, 64, 76
1, 417645, Control_c, 0, 64, 91
1, 417648, Note_off_c, 0, 45, 50
1, 417659, Note_off_c, 0, 85, 63
1, 417660, Control_c, 0, 64, 127
1, 417669, Note_off_c, 0, 73, 59
1, 417681, Note_on_c, 0, 52, 35
1, 417698, Note_on_c, 0, 76, 54
1, 417713, Note_off_c, 0, 52, 51
1, 417741, Note_off_c, 0, 76, 59
1, 417744, Note_on_c, 0, 57, 43
1, 417769, Note_on_c, 0, 78, 58
1, 417773, Note_off_c, 0, 57, 54
1, 417831, Note_on_c, 0, 64, 42
1, 417838, Note_off_c, 0, 78, 58
1, 417855, Note_on_c, 0, 76, 47
1, 417857, Note_off_c, 0, 64, 54
1, 417880, Note_off_c, 0, 76, 57
1, 417909, Note_on_c, 0, 56, 55
1, 417912, Note_on_c, 0, 83, 74
1, 417921, Note_on_c, 0, 71, 52
1, 417933, Note_off_c, 0, 56, 59
1, 417944, Note_off_c, 0, 71, 60
1, 417963, Note_on_c, 0, 64, 44
1, 417970, Note_off_c, 0, 83, 63
1, 417985, Note_off_c, 0, 64, 58
1, 417989, Note_on_c, 0, 76, 49
1, 418013, Note_off_c, 0, 76, 62
1, 418060, Control_c, 0, 64, 102
1, 418075, Control_c, 0, 64, 76
1, 418088, Control_c, 0, 64, 59
1, 418096, Note_on_c, 0, 85, 72
1, 418100, Note_on_c, 0, 45, 49
1, 418103, Control_c, 0, 64, 34
1, 418104, Note_on_c, 0, 73, 60
1, 418118, Control_c, 0, 64, 42
1, 418133, Control_c, 0, 64, 54
1, 418144, Note_off_c, 0, 45, 60
1, 418148, Control_c, 0, 64, 64
1, 418163, Control_c, 0, 64, 72
1, 418171, Note_off_c, 0, 85, 62
1, 418172, Note_off_c, 0, 73, 58
1, 418176, Note_on_c, 0, 52, 29
1, 418177, Control_c, 0, 64, 85
1, 418192, Control_c, 0, 64, 105
1, 418200, Note_on_c, 0, 76, 60
1, 418207, Control_c, 0, 64, 127
1, 418213, Note_off_c, 0, 52, 53
1, 418221, Note_on_c, 0, 57, 48
1, 418232, Note_off_c, 0, 76, 64
1, 418248, Note_off_c, 0, 57, 56
1, 418268, Note_on_c, 0, 78, 56
1, 418300, Note_off_c, 0, 78, 64
1, 418317, Note_on_c, 0, 64, 39
1, 418344, Note_off_c, 0, 64, 53
1, 418374, Note_on_c, 0, 59, 56
1, 418385, Note_on_c, 0, 86, 72
1, 418394, Note_on_c, 0, 74, 67
1, 418398, Note_off_c, 0, 86, 68
1, 418408, Note_off_c, 0, 59, 63
1, 418433, Note_off_c, 0, 74, 59
1, 418444, Note_on_c, 0, 64, 58
1, 418453, Control_c, 0, 64, 90
1, 418467, Control_c, 0, 64, 68
1, 418481, Note_on_c, 0, 76, 51
1, 418482, Control_c, 0, 64, 47
1, 418497, Control_c, 0, 64, 38
1, 418507, Note_off_c, 0, 76, 63
1, 418511, Note_off_c, 0, 64, 59
1, 418512, Control_c, 0, 64, 50
1, 418526, Control_c, 0, 64, 61
1, 418539, Note_on_c, 0, 83, 70
1, 418541, Note_on_c, 0, 56, 50
1, 418541, Control_c, 0, 64, 69
1, 418545, Note_on_c, 0, 71, 59
1, 418556, Control_c, 0, 64, 80
1, 418571, Control_c, 0, 64, 91
1, 418580, Note_off_c, 0, 56, 60
1, 418580, Note_off_c, 0, 71, 64
1, 418586, Control_c, 0, 64, 99
1, 418600, Control_c, 0, 64, 104
1, 418607, Note_off_c, 0, 83, 62
1, 418615, Control_c, 0, 64, 106
1, 418639, Note_on_c, 0, 64, 7
1, 418645, Control_c, 0, 64, 110
1, 418660, Control_c, 0, 64, 112
1, 418675, Poly_aftertouch_c, 0, 76, 0
1, 418685, Note_off_c, 0, 64, 37
1, 418689, Note_on_c, 0, 52, 45
1, 418707, Note_on_c, 0, 88, 72
1, 418716, Note_off_c, 0, 52, 56
1, 418749, Control_c, 0, 64, 100
1, 418764, Control_c, 0, 64, 85
1, 418767, Note_on_c, 0, 76, 77
1, 418768, Note_on_c, 0, 68, 54
1, 418779, Control_c, 0, 64, 71
1, 418791, Note_off_c, 0, 68, 59
1, 418793, Control_c, 0, 64, 52
1, 418808, Control_c, 0, 64, 0
1, 418819, Note_off_c, 0, 76, 58
1, 418830, Note_on_c, 0, 53, 67
1, 418834, Note_on_c, 0, 81, 74
1, 418851, Note_off_c, 0, 53, 64
1, 418862, Note_off_c, 0, 81, 62
1, 418896, Note_on_c, 0, 69, 60
1, 418901, Note_on_c, 0, 76, 80
1, 418914, Note_off_c, 0, 69, 59
1, 418945, Note_off_c, 0, 76, 56
1, 418958, Note_on_c, 0, 54, 71
1, 418963, Note_on_c, 0, 82, 80
1, 418985, Note_off_c, 0, 54, 67
1, 419022, Note_on_c, 0, 70, 78
1, 419039, Note_on_c, 0, 76, 79
1, 419042, Note_off_c, 0, 70, 71
1, 419042, Note_off_c, 0, 82, 62
1, 419068, Note_off_c, 0, 76, 57
1, 419082, Control_c, 0, 64, 33
1, 419096, Note_on_c, 0, 55, 59
1, 419098, Control_c, 0, 64, 60
1, 419104, Note_on_c, 0, 83, 74
1, 419113, Control_c, 0, 64, 68
1, 419117, Note_off_c, 0, 55, 61
1, 419128, Control_c, 0, 64, 73
1, 419143, Control_c, 0, 64, 77
1, 419152, Note_on_c, 0, 71, 75
1, 419157, Control_c, 0, 64, 80
1, 419167, Note_on_c, 0, 76, 77
1, 419170, Note_off_c, 0, 83, 63
1, 419172, Control_c, 0, 64, 83
1, 419173, Note_off_c, 0, 71, 71
1, 419187, Control_c, 0, 64, 87
1, 419192, Note_off_c, 0, 76, 63
1, 419202, Control_c, 0, 64, 93
1, 419215, Note_off_c, 0, 88, 0
1, 419217, Control_c, 0, 64, 101
1, 419221, Note_on_c, 0, 58, 66
1, 419231, Control_c, 0, 64, 115
1, 419246, Control_c, 0, 64, 127
1, 419250, Note_on_c, 0, 84, 69
1, 419252, Note_off_c, 0, 58, 67
1, 419252, Poly_aftertouch_c, 0, 88, 127
1, 419286, Poly_aftertouch_c, 0, 88, 0
1, 419291, Note_on_c, 0, 72, 69
1, 419293, Note_on_c, 0, 76, 66
1, 419308, Note_off_c, 0, 84, 62
1, 419311, Note_off_c, 0, 72, 67
1, 419320, Note_off_c, 0, 76, 68
1, 419364, Control_c, 0, 64, 112
1, 419379, Control_c, 0, 64, 78
1, 419394, Control_c, 0, 64, 53
1, 419409, Control_c, 0, 64, 0
1, 419419, Note_on_c, 0, 85, 72
1, 419430, Note_on_c, 0, 45, 58
1, 419437, Note_on_c, 0, 73, 53
1, 419438, Control_c, 0, 64, 54
1, 419453, Control_c, 0, 64, 67
1, 419468, Control_c, 0, 64, 78
1, 419473, Note_off_c, 0, 73, 59
1, 419477, Note_off_c, 0, 45, 61
1, 419477, Note_off_c, 0, 85, 62
1, 419483, Control_c, 0, 64, 100
1, 419498, Control_c, 0, 64, 127
1, 419504, Note_on_c, 0, 52, 35
1, 419510, Note_on_c, 0, 76, 63
1, 419536, Note_off_c, 0, 52, 53
1, 419540, Note_on_c, 0, 57, 52
1, 419542, Control_c, 0, 67, 85
1, 419543, Note_off_c, 0, 76, 61
1, 419557, Control_c, 0, 67, 32
1, 419566, Note_off_c, 0, 57, 58
1, 419572, Control_c, 0, 67, 0
1, 419574, Note_on_c, 0, 78, 64
1, 419618, Note_on_c, 0, 64, 50
1, 419640, Note_off_c, 0, 78, 60
1, 419641, Note_on_c, 0, 76, 53
1, 419641, Note_off_c, 0, 64, 59
1, 419662, Note_off_c, 0, 76, 64
1, 419697, Note_on_c, 0, 56, 60
1, 419698, Note_on_c, 0, 83, 90
1, 419705, Note_on_c, 0, 71, 71
1, 419722, Note_off_c, 0, 71, 67
1, 419727, Note_off_c, 0, 56, 63
1, 419746, Note_on_c, 0, 64, 56
1, 419774, Note_off_c, 0, 83, 64
1, 419779, Note_off_c, 0, 64, 63
1, 419787, Note_on_c, 0, 76, 56
1, 419811, Note_off_c, 0, 76, 64
1, 419861, Control_c, 0, 64, 90
1, 419875, Control_c, 0, 64, 66
1, 419885, Note_on_c, 0, 85, 72
1, 419891, Note_on_c, 0, 45, 39
1, 419891, Control_c, 0, 64, 0
1, 419899, Note_on_c, 0, 73, 49
1, 419921, Note_off_c, 0, 45, 53
1, 419921, Control_c, 0, 64, 47
1, 419921, Control_c, 0, 67, 21
1, 419936, Control_c, 0, 64, 63
1, 419936, Control_c, 0, 67, 30
1, 419949, Note_off_c, 0, 73, 61
1, 419951, Control_c, 0, 64, 72
1, 419951, Control_c, 0, 67, 50
1, 419954, Note_off_c, 0, 85, 63
1, 419966, Control_c, 0, 64, 86
1, 419966, Control_c, 0, 67, 76
1, 419972, Note_on_c, 0, 76, 64
1, 419979, Note_on_c, 0, 57, 59
1, 419980, Control_c, 0, 64, 110
1, 419980, Control_c, 0, 67, 103
1, 419995, Note_off_c, 0, 76, 65
1, 419995, Control_c, 0, 64, 127
1, 419995, Control_c, 0, 67, 127
1, 420010, Note_off_c, 0, 57, 65
1, 420022, Poly_aftertouch_c, 0, 52, 0
1, 420025, Note_on_c, 0, 78, 69
1, 420055, Note_on_c, 0, 64, 56
1, 420076, Note_off_c, 0, 78, 61
1, 420079, Note_off_c, 0, 64, 61
1, 420089, Note_on_c, 0, 76, 29
1, 420124, Note_on_c, 0, 59, 60
1, 420124, Note_off_c, 0, 76, 45
1, 420140, Note_on_c, 0, 86, 84
1, 420148, Note_on_c, 0, 74, 78
1, 420154, Note_off_c, 0, 86, 71
1, 420155, Note_off_c, 0, 59, 67
1, 420174, Note_off_c, 0, 74, 62
1, 420182, Note_on_c, 0, 64, 58
1, 420202, Control_c, 0, 64, 94
1, 420217, Control_c, 0, 64, 68
1, 420223, Note_on_c, 0, 76, 66
1, 420232, Control_c, 0, 64, 42
1, 420237, Note_off_c, 0, 64, 59
1, 420246, Control_c, 0, 64, 0
1, 420249, Note_off_c, 0, 76, 68
1, 420261, Control_c, 0, 64, 40
1, 420273, Note_on_c, 0, 56, 60
1, 420276, Control_c, 0, 64, 59
1, 420284, Note_on_c, 0, 83, 77
1, 420291, Control_c, 0, 64, 72
1, 420294, Note_on_c, 0, 71, 56
1, 420306, Control_c, 0, 64, 88
1, 420309, Note_off_c, 0, 56, 63
1, 420315, Note_off_c, 0, 71, 63
1, 420320, Control_c, 0, 64, 124
1, 420335, Control_c, 0, 64, 127
1, 420352, Note_on_c, 0, 64, 51
1, 420356, Note_off_c, 0, 83, 63
1, 420374, Note_off_c, 0, 64, 60
1, 420417, Note_on_c, 0, 52, 51
1, 420432, Note_on_c, 0, 88, 84
1, 420440, Note_off_c, 0, 52, 59
1, 420456, Note_on_c, 0, 80, 50
1, 420478, Note_off_c, 0, 80, 59
1, 420481, Note_on_c, 0, 68, 75
1, 420497, Control_c, 0, 64, 88
1, 420503, Note_off_c, 0, 68, 70
1, 420505, Note_on_c, 0, 76, 68
1, 420520, Control_c, 0, 64, 67
1, 420534, Note_off_c, 0, 76, 57
1, 420535, Control_c, 0, 64, 42
1, 420550, Control_c, 0, 64, 0
1, 420561, Note_on_c, 0, 53, 69
1, 420563, Note_on_c, 0, 81, 77
1, 420564, Control_c, 0, 67, 66
1, 420579, Control_c, 0, 67, 0
1, 420589, Note_off_c, 0, 81, 63
1, 420589, Note_off_c, 0, 53, 67
1, 420618, Note_on_c, 0, 69, 63
1, 420625, Note_on_c, 0, 76, 82
1, 420636, Note_off_c, 0, 69, 62
1, 420665, Note_off_c, 0, 76, 60
1, 420680, Note_on_c, 0, 54, 74
1, 420684, Note_on_c, 0, 82, 87
1, 420705, Note_off_c, 0, 54, 67
1, 420744, Note_on_c, 0, 70, 68
1, 420752, Note_on_c, 0, 76, 81
1, 420755, Note_off_c, 0, 82, 62
1, 420762, Note_off_c, 0, 70, 67
1, 420776, Note_off_c, 0, 76, 62
1, 420787, Control_c, 0, 67, 22
1, 420802, Control_c, 0, 67, 31
1, 420809, Note_on_c, 0, 55, 55
1, 420815, Note_on_c, 0, 83, 76
1, 420817, Control_c, 0, 67, 46
1, 420832, Control_c, 0, 64, 56
1, 420832, Control_c, 0, 67, 71
1, 420833, Note_off_c, 0, 55, 60
1, 420847, Control_c, 0, 64, 67
1, 420847, Control_c, 0, 67, 104
1, 420861, Control_c, 0, 64, 74
1, 420861, Control_c, 0, 67, 127
1, 420869, Note_on_c, 0, 76, 79
1, 420876, Note_on_c, 0, 71, 57
1, 420876, Control_c, 0, 64, 82
1, 420877, Note_off_c, 0, 83, 64
1, 420891, Control_c, 0, 64, 86
1, 420897, Note_off_c, 0, 71, 61
1, 420900, Note_off_c, 0, 76, 55
1, 420906, Control_c, 0, 64, 90
1, 420920, Control_c, 0, 64, 96
1, 420932, Note_off_c, 0, 88, 0
1, 420935, Control_c, 0, 64, 109
1, 420938, Note_on_c, 0, 56, 65
1, 420947, Note_on_c, 0, 84, 76
1, 420950, Control_c, 0, 64, 127
1, 420953, Note_on_c, 0, 88, 21
1, 420958, Note_off_c, 0, 56, 63
1, 420984, Note_off_c, 0, 88, 45
1, 420993, Note_off_c, 0, 84, 60
1, 420994, Note_on_c, 0, 76, 73
1, 421006, Note_on_c, 0, 72, 59
1, 421019, Note_off_c, 0, 76, 67
1, 421026, Note_off_c, 0, 72, 62
1, 421084, Control_c, 0, 64, 83
1, 421098, Control_c, 0, 64, 60
1, 421113, Control_c, 0, 64, 0
1, 421124, Note_on_c, 0, 45, 64
1, 421128, Note_on_c, 0, 73, 65
1, 421128, Note_on_c, 0, 85, 73
1, 421143, Control_c, 0, 64, 46
1, 421150, Note_off_c, 0, 73, 58
1, 421151, Note_off_c, 0, 45, 65
1, 421158, Control_c, 0, 64, 64
1, 421173, Control_c, 0, 64, 77
1, 421173, Control_c, 0, 67, 100
1, 421182, Note_on_c, 0, 52, 53
1, 421187, Control_c, 0, 64, 117
1, 421187, Control_c, 0, 67, 37
1, 421202, Control_c, 0, 64, 127
1, 421202, Control_c, 0, 67, 0
1, 421206, Note_on_c, 0, 76, 69
1, 421206, Note_off_c, 0, 52, 57
1, 421219, Note_off_c, 0, 85, 62
1, 421233, Note_on_c, 0, 61, 56
1, 421265, Note_off_c, 0, 61, 61
1, 421266, Note_off_c, 0, 76, 60
1, 421283, Control_c, 0, 67, 20
1, 421289, Note_on_c, 0, 78, 55
1, 421298, Control_c, 0, 67, 33
1, 421313, Control_c, 0, 67, 52
1, 421325, Note_on_c, 0, 64, 55
1, 421328, Control_c, 0, 67, 78
1, 421328, Note_on_c, 0, 76, 51
1, 421343, Control_c, 0, 67, 103
1, 421358, Control_c, 0, 67, 125
1, 421361, Note_off_c, 0, 64, 64
1, 421361, Note_off_c, 0, 76, 65
1, 421370, Note_off_c, 0, 78, 58
1, 421373, Control_c, 0, 67, 127
1, 421390, Note_on_c, 0, 73, 58
1, 421391, Note_on_c, 0, 57, 50
1, 421419, Note_off_c, 0, 73, 67
1, 421424, Note_off_c, 0, 57, 64
1, 421435, Note_on_c, 0, 61, 54
1, 421443, Note_on_c, 0, 76, 62
1, 421458, Note_off_c, 0, 61, 60
1, 421462, Note_off_c, 0, 76, 63
1, 421492, Control_c, 0, 64, 79
1, 421507, Control_c, 0, 64, 58
1, 421522, Control_c, 0, 64, 0
1, 421534, Note_on_c, 0, 50, 59
1, 421536, Control_c, 0, 64, 38
1, 421536, Control_c, 0, 67, 82
1, 421537, Note_on_c, 0, 86, 70
1, 421548, Note_on_c, 0, 74, 53
1, 421551, Control_c, 0, 64, 56
1, 421551, Control_c, 0, 67, 0
1, 421566, Control_c, 0, 64, 67
1, 421570, Note_off_c, 0, 50, 60
1, 421571, Note_off_c, 0, 74, 58
1, 421571, Note_off_c, 0, 86, 52
1, 421581, Control_c, 0, 64, 81
1, 421586, Note_on_c, 0, 59, 60
1, 421593, Note_on_c, 0, 78, 49
1, 421596, Control_c, 0, 64, 127
1, 421614, Note_off_c, 0, 59, 67
1, 421616, Note_off_c, 0, 78, 59
1, 421655, Control_c, 0, 67, 24
1, 421664, Note_on_c, 0, 90, 81
1, 421665, Note_on_c, 0, 62, 49
1, 421670, Control_c, 0, 67, 40
1, 421673, Note_on_c, 0, 80, 70
1, 421683, Note_off_c, 0, 90, 72
1, 421684, Control_c, 0, 67, 64
1, 421688, Note_off_c, 0, 80, 68
1, 421699, Control_c, 0, 67, 96
1, 421707, Note_off_c, 0, 62, 51
1, 421714, Control_c, 0, 67, 127
1, 421718, Note_on_c, 0, 66, 72
1, 421743, Note_off_c, 0, 66, 66
1, 421744, Note_on_c, 0, 78, 58
1, 421765, Note_off_c, 0, 78, 64
1, 421796, Note_on_c, 0, 59, 60
1, 421801, Note_on_c, 0, 86, 85
1, 421815, Note_on_c, 0, 83, 69
1, 421826, Note_off_c, 0, 59, 66
1, 421835, Note_on_c, 0, 74, 61
1, 421838, Note_off_c, 0, 83, 70
1, 421845, Note_off_c, 0, 86, 61
1, 421856, Note_on_c, 0, 78, 71
1, 421864, Note_off_c, 0, 74, 66
1, 421874, Note_on_c, 0, 62, 60
1, 421897, Note_off_c, 0, 78, 60
1, 421902, Note_off_c, 0, 62, 64
1, 421922, Control_c, 0, 64, 88
1, 421936, Control_c, 0, 64, 63
1, 421941, Note_on_c, 0, 85, 77
1, 421946, Note_on_c, 0, 52, 61
1, 421946, Note_on_c, 0, 73, 72
1, 421951, Control_c, 0, 64, 0
1, 421970, Note_on_c, 0, 81, 27
1, 421974, Note_off_c, 0, 73, 64
1, 421978, Note_off_c, 0, 52, 65
1, 421981, Control_c, 0, 64, 54
1, 421996, Control_c, 0, 64, 69
1, 421996, Control_c, 0, 67, 69
1, 422015, Note_on_c, 0, 76, 66
1, 422017, Note_off_c, 0, 85, 63
1, 422018, Control_c, 0, 64, 88
1, 422018, Control_c, 0, 67, 0
1, 422019, Note_off_c, 0, 81, 40
1, 422032, Note_on_c, 0, 61, 67
1, 422033, Note_off_c, 0, 76, 65
1, 422033, Control_c, 0, 64, 127
1, 422052, Note_off_c, 0, 61, 65
1, 422085, Note_on_c, 0, 88, 85
1, 422092, Note_on_c, 0, 78, 81
1, 422096, Note_on_c, 0, 69, 66
1, 422102, Note_off_c, 0, 88, 69
1, 422107, Control_c, 0, 67, 29
1, 422122, Note_off_c, 0, 78, 56
1, 422122, Control_c, 0, 67, 51
1, 422137, Control_c, 0, 67, 89
1, 422151, Control_c, 0, 67, 127
1, 422154, Note_off_c, 0, 69, 55
1, 422172, Note_on_c, 0, 76, 70
1, 422215, Note_on_c, 0, 63, 51
1, 422217, Note_off_c, 0, 76, 52
1, 422223, Note_on_c, 0, 85, 81
1, 422240, Poly_aftertouch_c, 0, 73, 0
1, 422249, Note_on_c, 0, 81, 66
1, 422259, Note_on_c, 0, 73, 38
1, 422271, Note_off_c, 0, 85, 65
1, 422279, Note_off_c, 0, 81, 64
1, 422287, Note_off_c, 0, 63, 37
1, 422287, Note_off_c, 0, 73, 60
1, 422307, Note_on_c, 0, 84, 25
1, 422309, Note_on_c, 0, 71, 25
1, 422323, Note_on_c, 0, 76, 68
1, 422345, Note_off_c, 0, 84, 48
1, 422347, Note_off_c, 0, 71, 49
1, 422351, Note_off_c, 0, 76, 63
1, 422359, Control_c, 0, 64, 77
1, 422374, Control_c, 0, 64, 53
1, 422384, Note_on_c, 0, 52, 56
1, 422389, Control_c, 0, 64, 0
1, 422398, Note_on_c, 0, 83, 72
1, 422400, Note_on_c, 0, 80, 61
1, 422413, Note_off_c, 0, 52, 63
1, 422416, Note_on_c, 0, 71, 37
1, 422434, Control_c, 0, 64, 55
1, 422446, Note_off_c, 0, 71, 53
1, 422449, Control_c, 0, 64, 68
1, 422455, Note_off_c, 0, 80, 45
1, 422455, Note_on_c, 0, 76, 71
1, 422457, Note_on_c, 0, 62, 49
1, 422461, Note_off_c, 0, 83, 62
1, 422464, Control_c, 0, 64, 79
1, 422479, Note_off_c, 0, 76, 69
1, 422479, Control_c, 0, 64, 99
1, 422482, Note_off_c, 0, 62, 58
1, 422493, Control_c, 0, 64, 127
1, 422538, Note_on_c, 0, 68, 58
1, 422546, Note_on_c, 0, 86, 77
1, 422553, Note_on_c, 0, 77, 66
1, 422565, Note_off_c, 0, 68, 61
1, 422565, Note_off_c, 0, 86, 71
1, 422569, Note_off_c, 0, 77, 67
1, 422614, Note_on_c, 0, 71, 61
1, 422634, Note_on_c, 0, 76, 68
1, 422644, Note_off_c, 0, 71, 64
1, 422675, Note_off_c, 0, 76, 56
1, 422681, Note_on_c, 0, 62, 49
1, 422711, Note_on_c, 0, 83, 74
1, 422719, Note_off_c, 0, 62, 63
1, 422720, Note_on_c, 0, 71, 69
1, 422729, Note_on_c, 0, 80, 54
1, 422744, Note_on_c, 0, 68, 38
1, 422777, Note_off_c, 0, 68, 57
1, 422782, Note_off_c, 0, 71, 36
1, 422788, Note_off_c, 0, 83, 58
1, 422792, Note_off_c, 0, 80, 42
1, 422797, Control_c, 0, 64, 83
1, 422812, Control_c, 0, 64, 63
1, 422824, Note_on_c, 0, 76, 43
1, 422827, Control_c, 0, 64, 0
1, 422854, Note_off_c, 0, 76, 60
1, 422871, Control_c, 0, 64, 41
1, 422885, Note_on_c, 0, 61, 47
1, 422886, Control_c, 0, 64, 62
1, 422886, Control_c, 0, 67, 101
1, 422890, Note_on_c, 0, 81, 70
1, 422896, Note_on_c, 0, 69, 60
1, 422898, Note_on_c, 0, 57, 13
1, 422900, Control_c, 0, 64, 70
1, 422900, Control_c, 0, 67, 39
1, 422915, Control_c, 0, 64, 79
1, 422915, Control_c, 0, 67, 0
1, 422925, Note_off_c, 0, 57, 0
1, 422930, Note_off_c, 0, 69, 52
1, 422930, Control_c, 0, 64, 91
1, 422935, Note_off_c, 0, 61, 63
1, 422944, Poly_aftertouch_c, 0, 57, 0
1, 422945, Control_c, 0, 64, 104
1, 422953, Note_on_c, 0, 64, 42
1, 422960, Control_c, 0, 64, 127
1, 422980, Note_off_c, 0, 64, 53
1, 423005, Note_off_c, 0, 81, 59
1, 423045, Poly_aftertouch_c, 0, 73, 0
1, 423050, Poly_aftertouch_c, 0, 77, 127
1, 423086, Poly_aftertouch_c, 0, 77, 0
1, 423097, Note_on_c, 0, 81, 56
1, 423112, Note_on_c, 0, 74, 50
1, 423118, Note_off_c, 0, 81, 60
1, 423140, Note_off_c, 0, 74, 56
1, 423160, Note_on_c, 0, 93, 71
1, 423164, Note_on_c, 0, 85, 65
1, 423167, Note_on_c, 0, 76, 62
1, 423179, Poly_aftertouch_c, 0, 83, 0
1, 423185, Note_off_c, 0, 85, 62
1, 423200, Note_off_c, 0, 76, 65
1, 423222, Note_off_c, 0, 93, 64
1, 423230, Note_on_c, 0, 87, 74
1, 423239, Note_on_c, 0, 77, 43
1, 423255, Note_off_c, 0, 87, 68
1, 423266, Note_off_c, 0, 77, 56
1, 423266, Note_on_c, 0, 80, 75
1, 423286, Control_c, 0, 67, 21
1, 423288, Note_off_c, 0, 80, 69
1, 423298, Note_on_c, 0, 92, 90
1, 423301, Control_c, 0, 67, 25
1, 423303, Note_on_c, 0, 88, 79
1, 423316, Control_c, 0, 67, 30
1, 423325, Note_off_c, 0, 88, 66
1, 423331, Control_c, 0, 64, 94
1, 423331, Control_c, 0, 67, 41
1, 423340, Note_on_c, 0, 76, 62
1, 423340, Note_off_c, 0, 92, 65
1, 423346, Control_c, 0, 64, 70
1, 423346, Control_c, 0, 67, 56
1, 423358, Note_on_c, 0, 83, 72
1, 423361, Control_c, 0, 64, 51
1, 423361, Control_c, 0, 67, 73
1, 423376, Control_c, 0, 64, 0
1, 423376, Control_c, 0, 67, 89
1, 423378, Note_off_c, 0, 76, 64
1, 423379, Note_off_c, 0, 83, 71
1, 423390, Control_c, 0, 67, 101
1, 423405, Control_c, 0, 67, 116
1, 423413, Note_on_c, 0, 71, 62
1, 423420, Control_c, 0, 67, 127
1, 423422, Note_on_c, 0, 88, 78
1, 423438, Note_on_c, 0, 80, 61
1, 423456, Note_off_c, 0, 80, 64
1, 423462, Note_off_c, 0, 71, 62
1, 423471, Note_on_c, 0, 73, 73
1, 423483, Note_on_c, 0, 81, 84
1, 423484, Note_off_c, 0, 88, 64
1, 423522, Note_off_c, 0, 81, 61
1, 423532, Note_off_c, 0, 73, 61
1, 423535, Note_on_c, 0, 74, 65
1, 423546, Control_c, 0, 64, 34
1, 423561, Control_c, 0, 64, 56
1, 423562, Note_off_c, 0, 74, 67
1, 423572, Note_on_c, 0, 83, 74
1, 423576, Control_c, 0, 64, 65
1, 423576, Note_on_c, 0, 91, 82
1, 423590, Note_on_c, 0, 76, 70
1, 423590, Control_c, 0, 64, 71
1, 423599, Note_off_c, 0, 83, 57
1, 423605, Control_c, 0, 64, 76
1, 423620, Control_c, 0, 64, 81
1, 423623, Note_off_c, 0, 91, 65
1, 423632, Note_off_c, 0, 76, 55
1, 423633, Note_on_c, 0, 85, 54
1, 423635, Control_c, 0, 64, 88
1, 423649, Control_c, 0, 64, 100
1, 423654, Note_off_c, 0, 85, 61
1, 423664, Control_c, 0, 64, 127
1, 423674, Note_on_c, 0, 78, 65
1, 423693, Note_off_c, 0, 78, 66
1, 423697, Note_on_c, 0, 90, 88
1, 423701, Note_on_c, 0, 86, 79
1, 423746, Note_on_c, 0, 76, 58
1, 423746, Note_off_c, 0, 86, 58
1, 423750, Note_off_c, 0, 90, 63
1, 423762, Note_on_c, 0, 81, 63
1, 423772, Note_off_c, 0, 76, 60
1, 423781, Note_off_c, 0, 81, 63
1, 423797, Control_c, 0, 64, 116
1, 423812, Control_c, 0, 64, 78
1, 423827, Control_c, 0, 64, 58
1, 423832, Note_on_c, 0, 86, 78
1, 423838, Note_on_c, 0, 77, 58
1, 423841, Control_c, 0, 64, 0
1, 423856, Note_off_c, 0, 77, 65
1, 423871, Control_c, 0, 64, 37
1, 423884, Note_off_c, 0, 86, 55
1, 423887, Control_c, 0, 64, 61
1, 423899, Note_on_c, 0, 74, 76
1, 423902, Control_c, 0, 64, 69
1, 423917, Control_c, 0, 64, 75
1, 423920, Note_off_c, 0, 74, 67
1, 423932, Control_c, 0, 64, 80
1, 423946, Control_c, 0, 64, 82
1, 423961, Control_c, 0, 64, 85
1, 423976, Control_c, 0, 64, 87
1, 423990, Note_on_c, 0, 89, 80
1, 423991, Control_c, 0, 64, 89
1, 423999, Note_on_c, 0, 64, 44
1, 423999, Note_on_c, 0, 82, 70
1, 424006, Control_c, 0, 64, 90
1, 424017, Note_off_c, 0, 82, 62
1, 424020, Control_c, 0, 64, 91
1, 424026, Note_off_c, 0, 64, 54
1, 424035, Control_c, 0, 64, 93
1, 424037, Note_off_c, 0, 89, 61
1, 424050, Control_c, 0, 64, 97
1, 424061, Note_on_c, 0, 81, 70
1, 424064, Control_c, 0, 64, 100
1, 424077, Note_on_c, 0, 62, 49
1, 424079, Note_off_c, 0, 81, 67
1, 424079, Control_c, 0, 64, 102
1, 424109, Note_off_c, 0, 62, 54
1, 424138, Control_c, 0, 64, 94
1, 424140, Note_on_c, 0, 80, 83
1, 424146, Note_on_c, 0, 88, 80
1, 424153, Control_c, 0, 64, 76
1, 424168, Control_c, 0, 64, 62
1, 424181, Note_off_c, 0, 88, 59
1, 424183, Control_c, 0, 64, 46
1, 424198, Control_c, 0, 64, 57
1, 424206, Note_off_c, 0, 80, 62
1, 424212, Note_on_c, 0, 76, 63
1, 424212, Control_c, 0, 64, 65
1, 424227, Control_c, 0, 64, 75
1, 424233, Note_off_c, 0, 76, 67
1, 424234, Note_on_c, 0, 64, 49
1, 424242, Control_c, 0, 64, 93
1, 424264, Control_c, 0, 64, 127
1, 424280, Note_off_c, 0, 64, 50
1, 424320, Note_on_c, 0, 83, 78
1, 424328, Note_on_c, 0, 56, 52
1, 424336, Note_on_c, 0, 71, 60
1, 424364, Note_off_c, 0, 56, 62
1, 424371, Note_off_c, 0, 71, 46
1, 424394, Note_off_c, 0, 83, 62
1, 424406, Note_on_c, 0, 64, 50
1, 424423, Note_on_c, 0, 76, 58
1, 424440, Note_off_c, 0, 64, 54
1, 424455, Note_off_c, 0, 76, 63
1, 424494, Note_on_c, 0, 56, 45
1, 424497, Note_on_c, 0, 84, 85
1, 424500, Note_on_c, 0, 72, 70
1, 424531, Note_off_c, 0, 56, 62
1, 424563, Note_on_c, 0, 64, 44
1, 424564, Note_off_c, 0, 72, 56
1, 424575, Note_off_c, 0, 84, 60
1, 424586, Note_off_c, 0, 64, 58
1, 424595, Note_on_c, 0, 76, 55
1, 424709, Control_c, 0, 64, 108
1, 424717, Note_off_c, 0, 76, 61
1, 424724, Note_on_c, 0, 45, 42
1, 424724, Control_c, 0, 64, 78
1, 424739, Control_c, 0, 64, 60
1, 424753, Note_on_c, 0, 73, 59
1, 424754, Control_c, 0, 64, 0
1, 424756, Note_on_c, 0, 85, 64
1, 424768, Control_c, 0, 64, 38
1, 424783, Control_c, 0, 64, 57
1, 424787, Note_off_c, 0, 45, 59
1, 424798, Control_c, 0, 64, 68
1, 424813, Control_c, 0, 64, 85
1, 424818, Note_on_c, 0, 52, 28
1, 424829, Control_c, 0, 64, 127
1, 424831, Note_off_c, 0, 73, 61
1, 424834, Note_off_c, 0, 85, 62
1, 424849, Note_on_c, 0, 76, 62
1, 424855, Note_off_c, 0, 52, 53
1, 424866, Note_on_c, 0, 57, 52
1, 424873, Control_c, 0, 67, 99
1, 424881, Note_off_c, 0, 76, 64
1, 424886, Note_on_c, 0, 78, 63
1, 424887, Control_c, 0, 67, 49
1, 424892, Note_off_c, 0, 57, 56
1, 424902, Control_c, 0, 67, 0
1, 424942, Note_on_c, 0, 64, 57
1, 424965, Note_off_c, 0, 64, 64
1, 424971, Note_on_c, 0, 76, 60
1, 424974, Note_off_c, 0, 78, 59
1, 425023, Note_off_c, 0, 76, 54
1, 425030, Note_on_c, 0, 56, 64
1, 425030, Note_on_c, 0, 83, 90
1, 425047, Note_on_c, 0, 71, 53
1, 425057, Note_off_c, 0, 56, 64
1, 425071, Note_off_c, 0, 71, 59
1, 425103, Note_on_c, 0, 62, 46
1, 425111, Note_off_c, 0, 83, 64
1, 425112, Note_on_c, 0, 76, 67
1, 425132, Note_off_c, 0, 62, 52
1, 425138, Note_off_c, 0, 76, 66
1, 425176, Control_c, 0, 64, 89
1, 425191, Control_c, 0, 64, 65
1, 425192, Note_on_c, 0, 85, 90
1, 425193, Note_on_c, 0, 73, 78
1, 425206, Control_c, 0, 64, 35
1, 425207, Note_on_c, 0, 45, 53
1, 425221, Control_c, 0, 64, 0
1, 425236, Control_c, 0, 64, 55
1, 425236, Control_c, 0, 67, 21
1, 425247, Note_off_c, 0, 45, 63
1, 425251, Control_c, 0, 64, 68
1, 425251, Control_c, 0, 67, 32
1, 425260, Note_off_c, 0, 73, 61
1, 425265, Note_on_c, 0, 52, 38
1, 425266, Control_c, 0, 64, 83
1, 425266, Control_c, 0, 67, 49
1, 425273, Note_off_c, 0, 85, 65
1, 425278, Note_on_c, 0, 76, 63
1, 425280, Control_c, 0, 64, 127
1, 425280, Control_c, 0, 67, 72
1, 425295, Note_off_c, 0, 52, 49
1, 425295, Control_c, 0, 67, 97
1, 425310, Control_c, 0, 67, 118
1, 425311, Note_off_c, 0, 76, 62
1, 425325, Control_c, 0, 67, 127
1, 425328, Note_on_c, 0, 57, 34
1, 425338, Note_on_c, 0, 78, 71
1, 425362, Note_off_c, 0, 57, 52
1, 425373, Note_off_c, 0, 78, 60
1, 425387, Note_on_c, 0, 64, 60
1, 425420, Note_off_c, 0, 64, 63
1, 425446, Note_on_c, 0, 86, 90
1, 425455, Note_on_c, 0, 59, 55
1, 425460, Note_on_c, 0, 74, 70
1, 425477, Note_off_c, 0, 86, 55
1, 425489, Note_off_c, 0, 74, 51
1, 425490, Note_off_c, 0, 59, 63
1, 425518, Control_c, 0, 64, 78
1, 425533, Control_c, 0, 64, 58
1, 425534, Note_on_c, 0, 76, 60
1, 425536, Note_on_c, 0, 64, 58
1, 425548, Control_c, 0, 64, 0
1, 425563, Control_c, 0, 64, 34
1, 425564, Note_off_c, 0, 76, 64
1, 425577, Control_c, 0, 64, 56
1, 425590, Note_off_c, 0, 64, 60
1, 425592, Control_c, 0, 64, 67
1, 425596, Note_on_c, 0, 83, 78
1, 425607, Control_c, 0, 64, 80
1, 425612, Note_on_c, 0, 56, 60
1, 425612, Note_on_c, 0, 71, 57
1, 425622, Control_c, 0, 64, 101
1, 425622, Control_c, 0, 67, 122
1, 425636, Control_c, 0, 64, 127
1, 425636, Control_c, 0, 67, 74
1, 425638, Note_off_c, 0, 71, 54
1, 425651, Control_c, 0, 67, 0
1, 425653, Note_off_c, 0, 56, 58
1, 425668, Note_off_c, 0, 83, 63
1, 425763, Note_on_c, 0, 88, 82
1, 425773, Note_on_c, 0, 52, 38
1, 425776, Note_on_c, 0, 80, 62
1, 425792, Control_c, 0, 64, 100
1, 425792, Control_c, 0, 67, 26
1, 425793, Note_off_c, 0, 80, 64
1, 425807, Control_c, 0, 64, 73
1, 425807, Control_c, 0, 67, 38
1, 425808, Note_off_c, 0, 52, 50
1, 425822, Control_c, 0, 64, 55
1, 425822, Control_c, 0, 67, 57
1, 425831, Note_on_c, 0, 68, 66
1, 425835, Note_on_c, 0, 76, 74
1, 425836, Control_c, 0, 64, 0
1, 425836, Control_c, 0, 67, 81
1, 425848, Note_off_c, 0, 68, 65
1, 425849, Note_off_c, 0, 88, 0
1, 425851, Control_c, 0, 67, 113
1, 425866, Control_c, 0, 67, 127
1, 425870, Note_on_c, 0, 88, 39
1, 425880, Note_off_c, 0, 76, 56
1, 425893, Note_on_c, 0, 81, 80
1, 425899, Note_on_c, 0, 53, 65
1, 425919, Note_off_c, 0, 53, 62
1, 425919, Note_off_c, 0, 81, 63
1, 425964, Note_on_c, 0, 69, 57
1, 425966, Note_on_c, 0, 76, 85
1, 425983, Note_off_c, 0, 69, 61
1, 426014, Note_off_c, 0, 76, 54
1, 426025, Note_on_c, 0, 54, 70
1, 426025, Note_on_c, 0, 82, 81
1, 426049, Note_off_c, 0, 54, 66
1, 426092, Note_on_c, 0, 76, 79
1, 426095, Note_off_c, 0, 82, 59
1, 426100, Note_on_c, 0, 70, 53
1, 426117, Note_on_c, 0, 68, 21
1, 426123, Note_off_c, 0, 76, 52
1, 426124, Note_off_c, 0, 70, 39
1, 426149, Note_off_c, 0, 68, 40
1, 426156, Note_on_c, 0, 83, 76
1, 426157, Note_on_c, 0, 55, 56
1, 426163, Control_c, 0, 64, 52
1, 426177, Control_c, 0, 64, 65
1, 426178, Note_off_c, 0, 55, 60
1, 426192, Control_c, 0, 64, 70
1, 426207, Control_c, 0, 64, 75
1, 426216, Note_on_c, 0, 76, 81
1, 426222, Note_off_c, 0, 83, 64
1, 426222, Control_c, 0, 64, 80
1, 426225, Note_on_c, 0, 71, 60
1, 426236, Control_c, 0, 64, 85
1, 426243, Note_off_c, 0, 76, 57
1, 426244, Note_off_c, 0, 71, 62
1, 426251, Control_c, 0, 64, 93
1, 426266, Control_c, 0, 64, 104
1, 426282, Control_c, 0, 64, 127
1, 426293, Note_on_c, 0, 56, 69
1, 426293, Note_on_c, 0, 84, 76
1, 426311, Note_on_c, 0, 58, 37
1, 426315, Note_off_c, 0, 56, 63
1, 426333, Note_off_c, 0, 88, 23
1, 426342, Note_on_c, 0, 76, 69
1, 426342, Note_off_c, 0, 58, 52
1, 426350, Note_off_c, 0, 84, 62
1, 426370, Note_off_c, 0, 76, 66
1, 426400, Control_c, 0, 64, 108
1, 426415, Control_c, 0, 64, 75
1, 426430, Control_c, 0, 64, 54
1, 426445, Control_c, 0, 64, 0
1, 426458, Note_on_c, 0, 85, 80
1, 426459, Control_c, 0, 64, 34
1, 426467, Note_on_c, 0, 73, 65
1, 426474, Control_c, 0, 64, 60
1, 426489, Control_c, 0, 64, 71
1, 426491, Note_on_c, 0, 45, 54
1, 426512, Control_c, 0, 64, 86
1, 426523, Note_off_c, 0, 73, 48
1, 426525, Note_off_c, 0, 85, 64
1, 426527, Control_c, 0, 64, 127
1, 426539, Note_off_c, 0, 45, 62
1, 426558, Note_on_c, 0, 52, 45
1, 426565, Note_on_c, 0, 76, 63
1, 426571, Control_c, 0, 67, 111
1, 426586, Control_c, 0, 67, 59
1, 426586, Note_off_c, 0, 52, 55
1, 426599, Note_off_c, 0, 76, 64
1, 426601, Control_c, 0, 67, 0
1, 426611, Note_on_c, 0, 57, 34
1, 426618, Note_on_c, 0, 78, 66
1, 426646, Note_off_c, 0, 57, 53
1, 426673, Note_on_c, 0, 64, 55
1, 426687, Note_on_c, 0, 76, 62
1, 426696, Note_off_c, 0, 78, 59
1, 426700, Note_off_c, 0, 64, 64
1, 426716, Note_off_c, 0, 76, 66
1, 426747, Note_on_c, 0, 83, 90
1, 426751, Note_on_c, 0, 56, 66
1, 426755, Note_on_c, 0, 71, 71
1, 426774, Note_off_c, 0, 71, 65
1, 426781, Note_off_c, 0, 56, 63
1, 426807, Note_on_c, 0, 64, 55
1, 426818, Note_off_c, 0, 83, 65
1, 426826, Note_on_c, 0, 76, 63
1, 426826, Note_off_c, 0, 64, 64
1, 426857, Note_off_c, 0, 76, 64
1, 426896, Control_c, 0, 64, 112
1, 426911, Control_c, 0, 64, 76
1, 426921, Note_on_c, 0, 85, 87
1, 426925, Note_on_c, 0, 73, 72
1, 426926, Control_c, 0, 64, 56
1, 426941, Control_c, 0, 64, 0
1, 426942, Note_on_c, 0, 45, 49
1, 426956, Control_c, 0, 67, 19
1, 426968, Note_off_c, 0, 45, 59
1, 426971, Control_c, 0, 64, 48
1, 426971, Control_c, 0, 67, 30
1, 426985, Control_c, 0, 64, 64
1, 426985, Control_c, 0, 67, 45
1, 426990, Note_off_c, 0, 73, 59
1, 427000, Control_c, 0, 64, 74
1, 427000, Control_c, 0, 67, 69
1, 427010, Note_off_c, 0, 85, 65
1, 427015, Control_c, 0, 64, 90
1, 427015, Control_c, 0, 67, 98
1, 427016, Note_on_c, 0, 76, 70
1, 427030, Control_c, 0, 64, 116
1, 427030, Control_c, 0, 67, 125
1, 427045, Control_c, 0, 64, 127
1, 427045, Control_c, 0, 67, 127
1, 427047, Note_off_c, 0, 76, 62
1, 427049, Note_on_c, 0, 57, 35
1, 427052, Poly_aftertouch_c, 0, 52, 127
1, 427065, Note_on_c, 0, 78, 71
1, 427081, Poly_aftertouch_c, 0, 52, 0
1, 427083, Note_off_c, 0, 57, 54
1, 427119, Note_off_c, 0, 78, 61
1, 427123, Note_on_c, 0, 64, 56
1, 427145, Note_off_c, 0, 64, 61
1, 427183, Note_on_c, 0, 86, 89
1, 427192, Note_on_c, 0, 59, 51
1, 427196, Note_on_c, 0, 74, 76
1, 427223, Note_off_c, 0, 59, 64
1, 427223, Note_off_c, 0, 86, 62
1, 427224, Control_c, 0, 64, 102
1, 427239, Control_c, 0, 64, 72
1, 427246, Note_off_c, 0, 74, 60
1, 427257, Note_on_c, 0, 64, 52
1, 427261, Control_c, 0, 64, 50
1, 427276, Control_c, 0, 64, 0
1, 427283, Note_on_c, 0, 76, 66
1, 427290, Control_c, 0, 64, 35
1, 427304, Note_off_c, 0, 64, 57
1, 427305, Note_off_c, 0, 76, 63
1, 427305, Control_c, 0, 64, 56
1, 427320, Control_c, 0, 64, 68
1, 427335, Control_c, 0, 64, 78
1, 427342, Note_on_c, 0, 83, 83
1, 427347, Note_on_c, 0, 56, 60
1, 427349, Note_on_c, 0, 71, 69
1, 427350, Control_c, 0, 64, 91
1, 427364, Control_c, 0, 64, 101
1, 427379, Control_c, 0, 64, 106
1, 427382, Note_off_c, 0, 56, 61
1, 427393, Note_off_c, 0, 71, 43
1, 427415, Note_off_c, 0, 83, 63
1, 427424, Control_c, 0, 64, 109
1, 427435, Note_on_c, 0, 64, 40
1, 427439, Control_c, 0, 64, 115
1, 427454, Control_c, 0, 64, 127
1, 427463, Note_off_c, 0, 64, 53
1, 427482, Poly_aftertouch_c, 0, 76, 0
1, 427496, Note_on_c, 0, 52, 43
1, 427499, Note_on_c, 0, 88, 85
1, 427524, Note_off_c, 0, 52, 55
1, 427532, Note_on_c, 0, 80, 40
1, 427557, Control_c, 0, 64, 95
1, 427562, Note_off_c, 0, 80, 55
1, 427564, Note_on_c, 0, 68, 64
1, 427572, Note_on_c, 0, 76, 83
1, 427572, Control_c, 0, 64, 71
1, 427584, Note_off_c, 0, 68, 62
1, 427587, Control_c, 0, 64, 52
1, 427602, Control_c, 0, 64, 0
1, 427617, Note_off_c, 0, 76, 52
1, 427633, Note_on_c, 0, 81, 82
1, 427635, Note_on_c, 0, 53, 77
1, 427658, Note_off_c, 0, 53, 66
1, 427671, Note_off_c, 0, 81, 55
1, 427707, Note_on_c, 0, 76, 85
1, 427713, Note_on_c, 0, 69, 55
1, 427734, Note_off_c, 0, 69, 59
1, 427748, Note_off_c, 0, 76, 58
1, 427770, Note_on_c, 0, 54, 72
1, 427773, Note_on_c, 0, 82, 81
1, 427795, Note_off_c, 0, 54, 66
1, 427833, Note_off_c, 0, 82, 57
1, 427839, Note_on_c, 0, 76, 84
1, 427852, Note_on_c, 0, 70, 44
1, 427865, Note_off_c, 0, 70, 48
1, 427867, Note_off_c, 0, 76, 54
1, 427867, Poly_aftertouch_c, 0, 83, 0
1, 427898, Note_on_c, 0, 83, 45
1, 427899, Note_on_c, 0, 55, 65
1, 427919, Note_off_c, 0, 55, 63
1, 427928, Control_c, 0, 64, 53
1, 427943, Control_c, 0, 64, 65
1, 427958, Control_c, 0, 64, 72
1, 427967, Note_on_c, 0, 76, 80
1, 427972, Control_c, 0, 64, 79
1, 427975, Note_off_c, 0, 83, 65
1, 427981, Note_on_c, 0, 71, 34
1, 427987, Control_c, 0, 64, 86
1, 428008, Note_off_c, 0, 76, 50
1, 428010, Control_c, 0, 64, 96
1, 428020, Note_off_c, 0, 71, 56
1, 428025, Note_off_c, 0, 88, 0
1, 428025, Control_c, 0, 64, 108
1, 428039, Control_c, 0, 64, 127
1, 428040, Note_on_c, 0, 56, 75
1, 428049, Note_on_c, 0, 88, 15
1, 428050, Note_on_c, 0, 84, 73
1, 428066, Note_off_c, 0, 56, 67
1, 428077, Note_off_c, 0, 88, 48
1, 428080, Note_off_c, 0, 84, 64
1, 428106, Note_on_c, 0, 76, 62
1, 428126, Note_off_c, 0, 76, 63
1, 428130, Note_on_c, 0, 72, 26
1, 428167, Note_off_c, 0, 72, 48
1, 428187, Control_c, 0, 64, 100
1, 428202, Control_c, 0, 64, 71
1, 428217, Control_c, 0, 64, 48
1, 428226, Note_on_c, 0, 85, 75
1, 428232, Control_c, 0, 64, 0
1, 428233, Note_on_c, 0, 45, 53
1, 428236, Note_on_c, 0, 73, 53
1, 428259, Note_off_c, 0, 45, 57
1, 428262, Note_off_c, 0, 73, 56
1, 428262, Control_c, 0, 64, 56
1, 428277, Control_c, 0, 64, 69
1, 428291, Control_c, 0, 64, 86
1, 428306, Control_c, 0, 64, 127
1, 428309, Note_on_c, 0, 52, 18
1, 428313, Note_on_c, 0, 76, 66
1, 428321, Control_c, 0, 67, 82
1, 428329, Note_off_c, 0, 85, 53
1, 428336, Control_c, 0, 67, 0
1, 428338, Note_on_c, 0, 61, 52
1, 428344, Note_off_c, 0, 76, 62
1, 428348, Note_off_c, 0, 52, 50
1, 428361, Note_off_c, 0, 61, 59
1, 428381, Note_on_c, 0, 78, 58
1, 428421, Note_on_c, 0, 64, 63
1, 428425, Note_on_c, 0, 76, 63
1, 428454, Control_c, 0, 67, 20
1, 428460, Note_off_c, 0, 76, 63
1, 428464, Note_off_c, 0, 64, 61
1, 428469, Control_c, 0, 67, 25
1, 428475, Note_off_c, 0, 78, 48
1, 428484, Control_c, 0, 67, 34
1, 428487, Note_on_c, 0, 73, 63
1, 428494, Note_on_c, 0, 57, 57
1, 428499, Control_c, 0, 67, 49
1, 428513, Control_c, 0, 67, 64
1, 428515, Note_off_c, 0, 73, 68
1, 428528, Control_c, 0, 67, 76
1, 428531, Note_off_c, 0, 57, 64
1, 428543, Control_c, 0, 67, 85
1, 428548, Note_on_c, 0, 61, 57
1, 428551, Note_on_c, 0, 76, 58
1, 428557, Control_c, 0, 67, 90
1, 428568, Note_off_c, 0, 61, 61
1, 428569, Note_off_c, 0, 76, 63
1, 428572, Control_c, 0, 67, 92
1, 428587, Control_c, 0, 67, 92
1, 428602, Control_c, 0, 67, 94
1, 428617, Control_c, 0, 64, 85
1, 428617, Control_c, 0, 67, 99
1, 428631, Control_c, 0, 64, 62
1, 428631, Control_c, 0, 67, 107
1, 428636, Note_on_c, 0, 86, 73
1, 428646, Control_c, 0, 64, 0
1, 428646, Control_c, 0, 67, 115
1, 428647, Note_on_c, 0, 74, 54
1, 428653, Note_on_c, 0, 50, 37
1, 428661, Control_c, 0, 67, 125
1, 428669, Note_off_c, 0, 74, 59
1, 428677, Control_c, 0, 64, 54
1, 428677, Control_c, 0, 67, 127
1, 428686, Note_off_c, 0, 50, 47
1, 428688, Note_off_c, 0, 86, 56
1, 428692, Control_c, 0, 64, 67
1, 428703, Note_on_c, 0, 59, 59
1, 428707, Control_c, 0, 64, 82
1, 428718, Note_on_c, 0, 78, 19
1, 428722, Control_c, 0, 64, 127
1, 428733, Note_off_c, 0, 59, 65
1, 428762, Note_off_c, 0, 78, 55
1, 428775, Note_on_c, 0, 90, 79
1, 428777, Note_on_c, 0, 62, 67
1, 428777, Note_on_c, 0, 80, 74
1, 428792, Note_off_c, 0, 90, 72
1, 428798, Note_off_c, 0, 80, 62
1, 428833, Note_off_c, 0, 62, 57
1, 428845, Note_on_c, 0, 66, 70
1, 428865, Note_on_c, 0, 79, 56
1, 428880, Note_off_c, 0, 66, 59
1, 428886, Note_off_c, 0, 79, 65
1, 428917, Note_on_c, 0, 86, 81
1, 428926, Note_on_c, 0, 59, 65
1, 428926, Note_on_c, 0, 83, 72
1, 428950, Note_off_c, 0, 83, 64
1, 428954, Note_on_c, 0, 74, 57
1, 428956, Note_off_c, 0, 59, 65
1, 428968, Note_off_c, 0, 86, 61
1, 428985, Note_on_c, 0, 78, 74
1, 428985, Note_off_c, 0, 74, 62
1, 428995, Note_on_c, 0, 62, 63
1, 429025, Note_off_c, 0, 62, 62
1, 429034, Note_off_c, 0, 78, 58
1, 429040, Control_c, 0, 64, 95
1, 429055, Control_c, 0, 64, 67
1, 429066, Note_on_c, 0, 85, 78
1, 429069, Control_c, 0, 64, 0
1, 429075, Note_on_c, 0, 73, 71
1, 429081, Note_on_c, 0, 81, 50
1, 429098, Note_off_c, 0, 73, 70
1, 429099, Control_c, 0, 64, 41
1, 429108, Note_off_c, 0, 81, 56
1, 429114, Control_c, 0, 64, 61
1, 429129, Control_c, 0, 64, 74
1, 429139, Note_on_c, 0, 76, 58
1, 429142, Note_off_c, 0, 85, 60
1, 429144, Control_c, 0, 64, 91
1, 429159, Control_c, 0, 64, 127
1, 429160, Note_off_c, 0, 76, 59
1, 429214, Note_on_c, 0, 88, 79
1, 429218, Note_on_c, 0, 78, 85
1, 429227, Note_off_c, 0, 88, 71
1, 429228, Note_on_c, 0, 69, 56
1, 429262, Note_off_c, 0, 78, 47
1, 429280, Note_off_c, 0, 69, 52
1, 429290, Note_on_c, 0, 73, 72
1, 429303, Note_on_c, 0, 76, 63
1, 429319, Note_off_c, 0, 73, 65
1, 429361, Note_on_c, 0, 85, 76
1, 429361, Note_off_c, 0, 76, 56
1, 429367, Note_on_c, 0, 64, 59
1, 429379, Note_on_c, 0, 81, 62
1, 429399, Note_on_c, 0, 73, 48
1, 429399, Note_off_c, 0, 85, 62
1, 429404, Note_off_c, 0, 64, 62
1, 429411, Note_off_c, 0, 81, 50
1, 429422, Note_off_c, 0, 73, 64
1, 429433, Note_on_c, 0, 69, 59
1, 429433, Note_on_c, 0, 84, 28
1, 429454, Note_off_c, 0, 69, 65
1, 429461, Note_on_c, 0, 76, 67
1, 429466, Note_off_c, 0, 84, 46
1, 429508, Control_c, 0, 64, 84
1, 429514, Note_off_c, 0, 76, 52
1, 429523, Control_c, 0, 64, 62
1, 429538, Control_c, 0, 64, 0
1, 429557, Note_on_c, 0, 83, 72
1, 429558, Note_on_c, 0, 52, 47
1, 429558, Note_on_c, 0, 80, 55
1, 429567, Control_c, 0, 64, 39
1, 429571, Note_on_c, 0, 71, 38
1, 429582, Control_c, 0, 64, 59
1, 429597, Control_c, 0, 64, 68
1, 429601, Note_off_c, 0, 52, 63
1, 429601, Note_off_c, 0, 71, 52
1, 429612, Control_c, 0, 64, 79
1, 429627, Control_c, 0, 64, 92
1, 429628, Note_on_c, 0, 62, 56
1, 429628, Note_on_c, 0, 76, 69
1, 429642, Note_off_c, 0, 80, 33
1, 429642, Note_off_c, 0, 83, 60
1, 429642, Control_c, 0, 64, 106
1, 429652, Note_off_c, 0, 76, 69
1, 429657, Control_c, 0, 64, 127
1, 429671, Note_off_c, 0, 62, 59
1, 429735, Note_on_c, 0, 86, 70
1, 429737, Note_on_c, 0, 77, 63
1, 429749, Note_on_c, 0, 68, 45
1, 429750, Note_off_c, 0, 86, 67
1, 429756, Note_off_c, 0, 77, 66
1, 429776, Note_off_c, 0, 68, 61
1, 429816, Note_on_c, 0, 71, 58
1, 429832, Note_on_c, 0, 76, 67
1, 429865, Note_off_c, 0, 71, 55
1, 429925, Note_on_c, 0, 62, 38
1, 429949, Note_off_c, 0, 76, 58
1, 429955, Note_on_c, 0, 83, 51
1, 429992, Note_on_c, 0, 71, 37
1, 430003, Note_off_c, 0, 62, 60
1, 430014, Note_on_c, 0, 68, 42
1, 430030, Poly_aftertouch_c, 0, 81, 127
1, 430041, Note_off_c, 0, 71, 47
1, 430046, Note_off_c, 0, 68, 52
1, 430068, Note_on_c, 0, 76, 62
1, 430071, Note_off_c, 0, 83, 55
1, 430076, Poly_aftertouch_c, 0, 81, 0
1, 430087, Note_off_c, 0, 76, 65
1, 430160, Control_c, 0, 64, 108
1, 430175, Control_c, 0, 64, 86
1, 430190, Control_c, 0, 64, 70
1, 430204, Control_c, 0, 64, 54
1, 430219, Control_c, 0, 64, 0
1, 430265, Note_on_c, 0, 52, 39
1, 430331, Control_c, 0, 64, 53
1, 430346, Control_c, 0, 64, 64
1, 430348, Note_on_c, 0, 81, 57
1, 430357, Note_off_c, 0, 52, 52
1, 430361, Control_c, 0, 64, 70
1, 430376, Control_c, 0, 64, 75
1, 430377, Note_on_c, 0, 61, 37
1, 430384, Note_on_c, 0, 73, 28
1, 430390, Control_c, 0, 64, 80
1, 430393, Note_on_c, 0, 69, 13
1, 430405, Control_c, 0, 64, 87
1, 430420, Control_c, 0, 64, 96
1, 430433, Note_off_c, 0, 61, 42
1, 430435, Control_c, 0, 64, 109
1, 430450, Control_c, 0, 64, 127
1, 430459, Note_off_c, 0, 69, 40
1, 430518, Note_off_c, 0, 81, 37
1, 430551, Note_off_c, 0, 73, 27
1, 430627, Control_c, 0, 67, 125
1, 430642, Control_c, 0, 67, 106
1, 430657, Control_c, 0, 67, 87
1, 430672, Control_c, 0, 67, 68
1, 430687, Control_c, 0, 67, 54
1, 430701, Control_c, 0, 67, 44
1, 430716, Control_c, 0, 67, 36
1, 430731, Control_c, 0, 67, 27
1, 430746, Control_c, 0, 67, 0
1, 430864, Control_c, 0, 64, 108
1, 430879, Control_c, 0, 64, 70
1, 430894, Control_c, 0, 64, 0
1, 431117, Note_on_c, 0, 73, 92
1, 431137, Note_off_c, 0, 73, 70
1, 431293, Note_on_c, 0, 57, 47
1, 431334, Note_off_c, 0, 57, 56
1, 431350, Note_on_c, 0, 64, 61
1, 431384, Note_on_c, 0, 67, 74
1, 431385, Note_off_c, 0, 64, 62
1, 431406, Note_off_c, 0, 67, 70
1, 431406, Control_c, 0, 64, 73
1, 431412, Note_on_c, 0, 73, 96
1, 431421, Control_c, 0, 64, 127
1, 431428, Note_off_c, 0, 73, 69
1, 431484, Note_on_c, 0, 81, 68
1, 431536, Note_on_c, 0, 85, 73
1, 431550, Note_off_c, 0, 81, 62
1, 431575, Note_off_c, 0, 85, 63
1, 431585, Note_on_c, 0, 93, 60
1, 431603, Note_off_c, 0, 93, 65
1, 431653, Note_on_c, 0, 71, 58
1, 431657, Control_c, 0, 64, 120
1, 431666, Note_on_c, 0, 93, 77
1, 431672, Control_c, 0, 64, 78
1, 431687, Control_c, 0, 64, 59
1, 431702, Control_c, 0, 64, 0
1, 431708, Note_off_c, 0, 93, 60
1, 431711, Note_on_c, 0, 97, 77
1, 431714, Note_off_c, 0, 71, 64
1, 431719, Note_on_c, 0, 73, 71
1, 431752, Note_off_c, 0, 73, 69
1, 431756, Note_off_c, 0, 97, 62
1, 431764, Note_on_c, 0, 105, 84
1, 431812, Note_off_c, 0, 105, 65
1, 431828, Note_on_c, 0, 93, 76
1, 431857, Note_off_c, 0, 93, 63
1, 431865, Note_on_c, 0, 62, 50
1, 431924, Note_on_c, 0, 66, 67
1, 431925, Note_off_c, 0, 62, 61
1, 431947, Control_c, 0, 64, 64
1, 431949, Note_on_c, 0, 74, 100
1, 431962, Control_c, 0, 64, 127
1, 431970, Note_off_c, 0, 66, 58
1, 431984, Note_off_c, 0, 74, 67
1, 432055, Note_on_c, 0, 81, 78
1, 432090, Note_on_c, 0, 86, 71
1, 432103, Note_off_c, 0, 81, 63
1, 432135, Note_off_c, 0, 86, 64
1, 432139, Note_on_c, 0, 93, 72
1, 432162, Note_off_c, 0, 93, 69
1, 432172, Note_on_c, 0, 76, 70
1, 432213, Note_on_c, 0, 93, 83
1, 432218, Note_off_c, 0, 76, 63
1, 432221, Note_on_c, 0, 74, 73
1, 432229, Control_c, 0, 64, 108
1, 432241, Note_off_c, 0, 74, 67
1, 432244, Control_c, 0, 64, 74
1, 432259, Control_c, 0, 64, 58
1, 432265, Note_off_c, 0, 93, 65
1, 432268, Note_on_c, 0, 98, 82
1, 432273, Control_c, 0, 64, 0
1, 432298, Note_on_c, 0, 105, 84
1, 432313, Note_off_c, 0, 98, 63
1, 432347, Note_off_c, 0, 105, 65
1, 432368, Note_on_c, 0, 93, 74
1, 432390, Note_on_c, 0, 57, 39
1, 432393, Note_off_c, 0, 93, 70
1, 432420, Note_off_c, 0, 57, 51
1, 432421, Control_c, 0, 64, 56
1, 432436, Control_c, 0, 64, 78
1, 432437, Note_on_c, 0, 64, 59
1, 432451, Control_c, 0, 64, 127
1, 432453, Note_on_c, 0, 67, 71
1, 432456, Note_off_c, 0, 64, 63
1, 432476, Note_on_c, 0, 73, 100
1, 432476, Note_off_c, 0, 67, 67
1, 432518, Note_off_c, 0, 73, 57
1, 432584, Note_on_c, 0, 81, 78
1, 432614, Note_on_c, 0, 85, 77
1, 432637, Note_off_c, 0, 81, 62
1, 432663, Note_off_c, 0, 85, 66
1, 432672, Note_on_c, 0, 93, 71
1, 432694, Note_off_c, 0, 93, 69
1, 432721, Note_on_c, 0, 71, 56
1, 432741, Control_c, 0, 64, 116
1, 432753, Note_on_c, 0, 93, 74
1, 432755, Control_c, 0, 64, 82
1, 432770, Control_c, 0, 64, 66
1, 432777, Note_off_c, 0, 71, 64
1, 432780, Note_on_c, 0, 73, 65
1, 432785, Control_c, 0, 64, 47
1, 432800, Control_c, 0, 64, 0
1, 432802, Note_off_c, 0, 93, 64
1, 432804, Note_on_c, 0, 97, 78
1, 432807, Note_off_c, 0, 73, 66
1, 432858, Note_on_c, 0, 105, 78
1, 432862, Note_off_c, 0, 97, 66
1, 432912, Note_off_c, 0, 105, 65
1, 432929, Note_on_c, 0, 93, 68
1, 432957, Note_off_c, 0, 93, 67
1, 433004, Note_on_c, 0, 62, 49
1, 433095, Note_off_c, 0, 62, 48
1, 433096, Control_c, 0, 64, 38
1, 433111, Control_c, 0, 64, 64
1, 433117, Note_on_c, 0, 66, 34
1, 433126, Control_c, 0, 64, 82
1, 433126, Control_c, 0, 67, 22
1, 433141, Control_c, 0, 64, 127
1, 433141, Control_c, 0, 67, 34
1, 433153, Note_off_c, 0, 66, 55
1, 433155, Control_c, 0, 67, 55
1, 433162, Note_on_c, 0, 74, 61
1, 433170, Control_c, 0, 67, 83
1, 433184, Note_off_c, 0, 74, 62
1, 433185, Control_c, 0, 67, 120
1, 433200, Control_c, 0, 67, 127
1, 433534, Control_c, 0, 64, 109
1, 433549, Control_c, 0, 64, 78
1, 433564, Control_c, 0, 64, 61
1, 433578, Control_c, 0, 64, 0
1, 433588, Note_on_c, 0, 66, 35
1, 433623, Control_c, 0, 64, 38
1, 433630, Note_off_c, 0, 66, 51
1, 433638, Note_on_c, 0, 69, 10
1, 433638, Control_c, 0, 64, 57
1, 433652, Control_c, 0, 64, 67
1, 433666, Note_off_c, 0, 69, 45
1, 433667, Control_c, 0, 64, 72
1, 433682, Control_c, 0, 64, 76
1, 433697, Control_c, 0, 64, 79
1, 433712, Control_c, 0, 64, 81
1, 433726, Control_c, 0, 64, 82
1, 433741, Control_c, 0, 64, 83
1, 433756, Control_c, 0, 64, 83
1, 433767, Note_on_c, 0, 71, 59
1, 433770, Control_c, 0, 64, 84
1, 433798, Note_on_c, 0, 67, 28
1, 433810, Note_off_c, 0, 71, 61
1, 433822, Note_on_c, 0, 73, 66
1, 433830, Control_c, 0, 64, 82
1, 433830, Control_c, 0, 67, 125
1, 433832, Note_off_c, 0, 67, 43
1, 433836, Note_on_c, 0, 69, 44
1, 433844, Control_c, 0, 64, 74
1, 433844, Control_c, 0, 67, 109
1, 433846, Note_off_c, 0, 73, 69
1, 433859, Control_c, 0, 64, 65
1, 433859, Control_c, 0, 67, 95
1, 433862, Note_off_c, 0, 69, 53
1, 433874, Control_c, 0, 64, 52
1, 433874, Control_c, 0, 67, 86
1, 433884, Note_on_c, 0, 74, 74
1, 433886, Note_on_c, 0, 71, 44
1, 433888, Control_c, 0, 64, 0
1, 433888, Control_c, 0, 67, 85
1, 433921, Note_off_c, 0, 71, 48
1, 433931, Note_on_c, 0, 76, 79
1, 433933, Control_c, 0, 67, 84
1, 433934, Note_on_c, 0, 73, 73
1, 433936, Note_off_c, 0, 74, 63
1, 433948, Control_c, 0, 67, 84
1, 433963, Control_c, 0, 67, 83
1, 433965, Note_on_c, 0, 78, 77
1, 433967, Note_off_c, 0, 76, 64
1, 433977, Control_c, 0, 67, 82
1, 433981, Note_on_c, 0, 74, 67
1, 433985, Note_off_c, 0, 78, 71
1, 433996, Note_off_c, 0, 73, 63
1, 434000, Control_c, 0, 67, 77
1, 434015, Control_c, 0, 67, 71
1, 434024, Note_off_c, 0, 74, 64
1, 434030, Control_c, 0, 67, 67
1, 434035, Note_on_c, 0, 79, 80
1, 434045, Control_c, 0, 67, 65
1, 434064, Note_on_c, 0, 76, 63
1, 434083, Note_off_c, 0, 76, 62
1, 434089, Note_on_c, 0, 81, 78
1, 434095, Note_off_c, 0, 79, 63
1, 434103, Control_c, 0, 67, 66
1, 434118, Control_c, 0, 67, 66
1, 434119, Note_on_c, 0, 83, 76
1, 434130, Note_on_c, 0, 78, 57
1, 434135, Note_off_c, 0, 81, 62
1, 434158, Note_on_c, 0, 85, 69
1, 434158, Note_off_c, 0, 83, 63
1, 434167, Note_off_c, 0, 78, 64
1, 434177, Note_on_c, 0, 79, 50
1, 434177, Control_c, 0, 67, 67
1, 434181, Note_off_c, 0, 85, 69
1, 434202, Note_off_c, 0, 79, 60
1, 434207, Control_c, 0, 67, 68
1, 434212, Note_on_c, 0, 81, 45
1, 434229, Note_on_c, 0, 86, 66
1, 434237, Control_c, 0, 67, 68
1, 434240, Note_off_c, 0, 81, 53
1, 434251, Control_c, 0, 67, 69
1, 434266, Control_c, 0, 67, 69
1, 434282, Control_c, 0, 67, 70
1, 434285, Note_off_c, 0, 86, 62
1, 434301, Note_on_c, 0, 88, 55
1, 434312, Control_c, 0, 67, 70
1, 434340, Note_off_c, 0, 88, 62
1, 434342, Note_on_c, 0, 85, 32
1, 434362, Note_on_c, 0, 90, 55
1, 434369, Note_off_c, 0, 85, 51
1, 434399, Note_on_c, 0, 86, 43
1, 434400, Control_c, 0, 67, 71
1, 434415, Control_c, 0, 64, 40
1, 434430, Control_c, 0, 64, 53
1, 434445, Control_c, 0, 64, 62
1, 434445, Control_c, 0, 67, 71
1, 434460, Control_c, 0, 64, 66
1, 434474, Control_c, 0, 64, 70
1, 434474, Control_c, 0, 67, 72
1, 434489, Control_c, 0, 64, 75
1, 434502, Note_off_c, 0, 86, 57
1, 434504, Control_c, 0, 64, 81
1, 434519, Control_c, 0, 64, 89
1, 434520, Note_off_c, 0, 90, 49
1, 434533, Control_c, 0, 64, 100
1, 434548, Control_c, 0, 64, 111
1, 434563, Control_c, 0, 64, 127
1, 434882, Control_c, 0, 67, 71
1, 434897, Control_c, 0, 67, 70
1, 434912, Control_c, 0, 67, 69
1, 434926, Control_c, 0, 67, 68
1, 434941, Control_c, 0, 64, 80
1, 434941, Control_c, 0, 67, 68
1, 434956, Control_c, 0, 64, 60
1, 434956, Control_c, 0, 67, 67
1, 434971, Control_c, 0, 64, 0
1, 434986, Control_c, 0, 67, 66
1, 435015, Control_c, 0, 67, 66
1, 435105, Control_c, 0, 67, 65
1, 435120, Control_c, 0, 67, 63
1, 435135, Control_c, 0, 67, 58
1, 435141, Note_on_c, 0, 52, 37
1, 435149, Control_c, 0, 67, 40
1, 435164, Control_c, 0, 64, 54
1, 435164, Control_c, 0, 67, 0
1, 435174, Note_off_c, 0, 52, 46
1, 435178, Note_on_c, 0, 61, 69
1, 435179, Control_c, 0, 64, 95
1, 435194, Control_c, 0, 64, 127
1, 435206, Note_off_c, 0, 61, 65
1, 435210, Note_on_c, 0, 69, 77
1, 435222, Note_on_c, 0, 71, 73
1, 435229, Note_off_c, 0, 69, 62
1, 435240, Note_off_c, 0, 71, 42
1, 435294, Note_on_c, 0, 76, 70
1, 435338, Note_on_c, 0, 81, 74
1, 435339, Note_off_c, 0, 76, 61
1, 435362, Note_off_c, 0, 81, 69
1, 435369, Note_on_c, 0, 88, 73
1, 435393, Note_off_c, 0, 88, 70
1, 435428, Note_on_c, 0, 71, 72
1, 435448, Note_on_c, 0, 88, 91
1, 435477, Note_off_c, 0, 71, 63
1, 435478, Note_on_c, 0, 69, 78
1, 435502, Note_on_c, 0, 93, 83
1, 435506, Note_off_c, 0, 88, 65
1, 435508, Note_off_c, 0, 69, 69
1, 435512, Control_c, 0, 64, 98
1, 435527, Control_c, 0, 64, 76
1, 435533, Note_on_c, 0, 100, 89
1, 435541, Control_c, 0, 64, 59
1, 435554, Note_off_c, 0, 93, 65
1, 435556, Control_c, 0, 64, 0
1, 435587, Note_off_c, 0, 100, 69
1, 435595, Note_on_c, 0, 88, 88
1, 435638, Note_off_c, 0, 88, 65
1, 435648, Note_on_c, 0, 52, 37
1, 435678, Note_off_c, 0, 52, 53
1, 435692, Note_on_c, 0, 59, 62
1, 435705, Control_c, 0, 64, 48
1, 435711, Note_on_c, 0, 62, 69
1, 435720, Note_off_c, 0, 59, 67
1, 435720, Control_c, 0, 64, 83
1, 435732, Note_on_c, 0, 68, 105
1, 435735, Control_c, 0, 64, 127
1, 435738, Note_off_c, 0, 62, 67
1, 435759, Note_off_c, 0, 68, 69
1, 435830, Note_on_c, 0, 76, 77
1, 435869, Note_on_c, 0, 80, 79
1, 435884, Note_off_c, 0, 76, 63
1, 435912, Note_off_c, 0, 80, 66
1, 435920, Note_on_c, 0, 88, 69
1, 435944, Note_off_c, 0, 88, 69
1, 435964, Note_on_c, 0, 66, 64
1, 436000, Note_on_c, 0, 88, 82
1, 436029, Note_off_c, 0, 66, 62
1, 436032, Note_on_c, 0, 68, 74
1, 436033, Note_off_c, 0, 88, 59
1, 436046, Note_on_c, 0, 92, 69
1, 436056, Note_off_c, 0, 68, 67
1, 436063, Note_off_c, 0, 92, 65
1, 436089, Note_on_c, 0, 100, 64
1, 436091, Note_on_c, 0, 101, 64
1, 436095, Poly_aftertouch_c, 0, 89, 0
1, 436110, Note_off_c, 0, 101, 63
1, 436120, Control_c, 0, 64, 122
1, 436132, Note_off_c, 0, 100, 61
1, 436135, Control_c, 0, 64, 93
1, 436140, Note_on_c, 0, 88, 84
1, 436150, Control_c, 0, 64, 75
1, 436164, Control_c, 0, 64, 56
1, 436173, Note_off_c, 0, 88, 64
1, 436175, Note_on_c, 0, 57, 48
1, 436179, Control_c, 0, 64, 0
1, 436219, Note_on_c, 0, 61, 75
1, 436223, Note_off_c, 0, 57, 65
1, 436247, Note_on_c, 0, 69, 97
1, 436261, Control_c, 0, 64, 58
1, 436272, Note_off_c, 0, 61, 61
1, 436274, Note_off_c, 0, 69, 65
1, 436276, Control_c, 0, 64, 84
1, 436291, Control_c, 0, 64, 127
1, 436504, Note_on_c, 0, 90, 61
1, 436504, Note_on_c, 0, 98, 66
1, 436530, Note_off_c, 0, 90, 67
1, 436541, Note_on_c, 0, 97, 71
1, 436543, Note_off_c, 0, 98, 58
1, 436560, Note_on_c, 0, 88, 70
1, 436580, Note_on_c, 0, 95, 59
1, 436588, Note_off_c, 0, 97, 62
1, 436599, Note_off_c, 0, 88, 60
1, 436605, Note_on_c, 0, 93, 72
1, 436606, Note_off_c, 0, 95, 66
1, 436616, Control_c, 0, 64, 92
1, 436620, Note_on_c, 0, 86, 68
1, 436629, Note_off_c, 0, 93, 66
1, 436631, Control_c, 0, 64, 62
1, 436646, Control_c, 0, 64, 0
1, 436650, Note_off_c, 0, 86, 63
1, 436653, Note_on_c, 0, 85, 77
1, 436677, Note_on_c, 0, 92, 70
1, 436684, Note_off_c, 0, 85, 66
1, 436692, Control_c, 0, 64, 47
1, 436707, Control_c, 0, 64, 67
1, 436715, Note_on_c, 0, 90, 71
1, 436719, Note_on_c, 0, 83, 69
1, 436721, Control_c, 0, 64, 87
1, 436736, Control_c, 0, 64, 127
1, 436742, Note_off_c, 0, 92, 63
1, 436750, Note_on_c, 0, 88, 73
1, 436761, Note_off_c, 0, 83, 60
1, 436768, Note_on_c, 0, 81, 79
1, 436780, Note_off_c, 0, 90, 63
1, 436785, Note_off_c, 0, 88, 62
1, 436799, Note_off_c, 0, 81, 60
1, 436805, Note_on_c, 0, 86, 66
1, 436808, Note_on_c, 0, 80, 72
1, 436830, Note_off_c, 0, 86, 68
1, 436842, Note_off_c, 0, 80, 63
1, 436846, Note_on_c, 0, 78, 62
1, 436859, Note_on_c, 0, 85, 74
1, 436864, Note_off_c, 0, 78, 63
1, 436900, Note_on_c, 0, 76, 79
1, 436912, Note_on_c, 0, 83, 73
1, 436931, Note_off_c, 0, 85, 65
1, 436948, Note_off_c, 0, 76, 60
1, 436948, Note_off_c, 0, 83, 62
1, 436955, Note_on_c, 0, 81, 74
1, 436956, Note_on_c, 0, 74, 78
1, 436996, Note_off_c, 0, 81, 59
1, 436999, Note_off_c, 0, 74, 61
1, 437001, Note_on_c, 0, 73, 76
1, 437022, Note_off_c, 0, 73, 71
1, 437028, Note_on_c, 0, 80, 76
1, 437060, Note_on_c, 0, 71, 80
1, 437065, Note_on_c, 0, 78, 76
1, 437106, Note_off_c, 0, 71, 64
1, 437108, Note_on_c, 0, 76, 69
1, 437110, Note_on_c, 0, 69, 78
1, 437115, Note_off_c, 0, 80, 62
1, 437145, Note_off_c, 0, 78, 62
1, 437146, Note_on_c, 0, 68, 78
1, 437152, Note_on_c, 0, 74, 79
1, 437158, Note_off_c, 0, 69, 63
1, 437158, Note_off_c, 0, 76, 63
1, 437162, Note_off_c, 0, 68, 69
1, 437203, Note_off_c, 0, 74, 61
1, 437260, Poly_aftertouch_c, 0, 66, 0
1, 437261, Control_c, 0, 64, 85
1, 437276, Control_c, 0, 64, 57
1, 437291, Control_c, 0, 64, 0
1, 437293, Note_on_c, 0, 45, 68
1, 437321, Control_c, 0, 64, 55
1, 437321, Note_off_c, 0, 45, 64
1, 437331, Note_on_c, 0, 52, 60
1, 437335, Control_c, 0, 64, 77
1, 437336, Note_on_c, 0, 54, 51
1, 437348, Note_on_c, 0, 55, 83
1, 437350, Control_c, 0, 64, 127
1, 437361, Note_off_c, 0, 52, 64
1, 437364, Note_off_c, 0, 54, 55
1, 437369, Note_off_c, 0, 55, 70
1, 437374, Note_on_c, 0, 61, 103
1, 437384, Note_on_c, 0, 69, 73
1, 437410, Note_off_c, 0, 61, 58
1, 437425, Note_on_c, 0, 73, 72
1, 437441, Note_off_c, 0, 69, 60
1, 437498, Note_off_c, 0, 73, 60
1, 437551, Note_on_c, 0, 81, 8
1, 437607, Note_on_c, 0, 59, 61
1, 437637, Note_on_c, 0, 73, 72
1, 437641, Note_off_c, 0, 81, 56
1, 437667, Note_off_c, 0, 59, 63
1, 437672, Note_on_c, 0, 61, 68
1, 437685, Note_off_c, 0, 73, 59
1, 437686, Note_off_c, 0, 61, 70
1, 437693, Note_on_c, 0, 69, 72
1, 437708, Control_c, 0, 64, 94
1, 437714, Note_off_c, 0, 69, 70
1, 437723, Control_c, 0, 64, 66
1, 437744, Control_c, 0, 64, 0
1, 437766, Note_on_c, 0, 61, 67
1, 437798, Note_off_c, 0, 61, 66
1, 437823, Note_on_c, 0, 50, 53
1, 437886, Note_on_c, 0, 54, 67
1, 437900, Note_off_c, 0, 50, 62
1, 437917, Note_on_c, 0, 62, 101
1, 437938, Control_c, 0, 64, 91
1, 437938, Note_off_c, 0, 54, 65
1, 437952, Note_off_c, 0, 62, 64
1, 437952, Control_c, 0, 64, 127
1, 438005, Note_on_c, 0, 69, 72
1, 438035, Note_on_c, 0, 74, 75
1, 438046, Note_off_c, 0, 69, 59
1, 438090, Note_off_c, 0, 74, 61
1, 438096, Note_on_c, 0, 81, 78
1, 438118, Note_off_c, 0, 81, 69
1, 438153, Note_on_c, 0, 64, 63
1, 438176, Note_on_c, 0, 81, 83
1, 438186, Note_off_c, 0, 64, 66
1, 438195, Note_on_c, 0, 62, 79
1, 438204, Control_c, 0, 64, 89
1, 438215, Note_off_c, 0, 62, 71
1, 438218, Control_c, 0, 64, 65
1, 438224, Note_off_c, 0, 81, 62
1, 438233, Control_c, 0, 64, 0
1, 438242, Note_on_c, 0, 74, 41
1, 438254, Note_on_c, 0, 72, 46
1, 438270, Note_off_c, 0, 74, 53
1, 438279, Note_off_c, 0, 72, 53
1, 438280, Note_on_c, 0, 69, 64
1, 438299, Note_off_c, 0, 69, 65
1, 438345, Note_on_c, 0, 45, 55
1, 438353, Note_on_c, 0, 64, 60
1, 438372, Note_off_c, 0, 64, 62
1, 438382, Note_off_c, 0, 45, 62
1, 438400, Note_on_c, 0, 52, 70
1, 438430, Note_off_c, 0, 52, 65
1, 438435, Note_on_c, 0, 55, 68
1, 438456, Control_c, 0, 64, 39
1, 438461, Note_off_c, 0, 55, 66
1, 438463, Note_on_c, 0, 61, 96
1, 438471, Control_c, 0, 64, 69
1, 438493, Control_c, 0, 64, 91
1, 438502, Note_off_c, 0, 61, 57
1, 438508, Control_c, 0, 64, 127
1, 438549, Note_on_c, 0, 69, 66
1, 438576, Note_on_c, 0, 73, 75
1, 438578, Note_off_c, 0, 69, 61
1, 438635, Note_on_c, 0, 81, 64
1, 438635, Note_off_c, 0, 73, 60
1, 438654, Note_off_c, 0, 81, 64
1, 438699, Note_on_c, 0, 59, 55
1, 438701, Control_c, 0, 64, 99
1, 438716, Control_c, 0, 64, 76
1, 438716, Note_on_c, 0, 81, 69
1, 438731, Control_c, 0, 64, 57
1, 438745, Control_c, 0, 64, 0
1, 438752, Note_off_c, 0, 59, 62
1, 438753, Note_off_c, 0, 81, 53
1, 438767, Note_on_c, 0, 61, 55
1, 438781, Note_on_c, 0, 73, 61
1, 438790, Note_off_c, 0, 61, 60
1, 438811, Note_off_c, 0, 73, 67
1, 438838, Note_on_c, 0, 69, 60
1, 438859, Note_off_c, 0, 69, 65
1, 438924, Note_on_c, 0, 61, 64
1, 438958, Note_off_c, 0, 61, 63
1, 439003, Note_on_c, 0, 50, 48
1, 439073, Note_on_c, 0, 54, 51
1, 439076, Note_off_c, 0, 50, 58
1, 439115, Control_c, 0, 64, 38
1, 439130, Control_c, 0, 64, 67
1, 439139, Note_off_c, 0, 54, 63
1, 439143, Note_on_c, 0, 62, 87
1, 439145, Control_c, 0, 64, 88
1, 439160, Control_c, 0, 64, 127
1, 439165, Note_off_c, 0, 62, 70
1, 439627, Control_c, 0, 64, 116
1, 439641, Control_c, 0, 64, 105
1, 439656, Control_c, 0, 64, 92
1, 439671, Control_c, 0, 64, 76
1, 439681, Note_on_c, 0, 66, 34
1, 439686, Control_c, 0, 64, 63
1, 439690, Note_on_c, 0, 69, 40
1, 439701, Control_c, 0, 64, 40
1, 439715, Control_c, 0, 64, 0
1, 439745, Control_c, 0, 64, 34
1, 439760, Control_c, 0, 64, 48
1, 439775, Control_c, 0, 64, 60
1, 439789, Note_off_c, 0, 66, 52
1, 439789, Control_c, 0, 64, 68
1, 439805, Control_c, 0, 64, 76
1, 439806, Note_off_c, 0, 69, 57
1, 439820, Control_c, 0, 64, 86
1, 439834, Control_c, 0, 64, 91
1, 439849, Control_c, 0, 64, 92
1, 439886, Note_on_c, 0, 70, 42
1, 439893, Note_on_c, 0, 67, 9
1, 439895, Control_c, 0, 64, 91
1, 439910, Control_c, 0, 64, 90
1, 439913, Note_off_c, 0, 70, 58
1, 439925, Control_c, 0, 64, 86
1, 439935, Note_on_c, 0, 68, 54
1, 439939, Control_c, 0, 64, 81
1, 439941, Note_off_c, 0, 67, 37
1, 439954, Control_c, 0, 64, 75
1, 439960, Note_on_c, 0, 71, 52
1, 439969, Control_c, 0, 64, 69
1, 439972, Note_off_c, 0, 68, 65
1, 439991, Control_c, 0, 64, 63
1, 440006, Control_c, 0, 64, 56
1, 440009, Note_off_c, 0, 71, 63
1, 440018, Note_on_c, 0, 69, 46
1, 440018, Note_on_c, 0, 72, 68
1, 440021, Control_c, 0, 64, 49
1, 440036, Control_c, 0, 64, 47
1, 440050, Note_off_c, 0, 69, 56
1, 440063, Note_on_c, 0, 70, 56
1, 440063, Note_off_c, 0, 72, 60
1, 440069, Note_on_c, 0, 73, 72
1, 440080, Control_c, 0, 64, 47
1, 440093, Note_off_c, 0, 73, 70
1, 440095, Control_c, 0, 64, 46
1, 440110, Control_c, 0, 64, 46
1, 440111, Note_off_c, 0, 70, 62
1, 440115, Note_on_c, 0, 71, 67
1, 440123, Note_on_c, 0, 74, 74
1, 440125, Control_c, 0, 64, 45
1, 440139, Control_c, 0, 64, 44
1, 440140, Note_off_c, 0, 71, 69
1, 440154, Control_c, 0, 64, 43
1, 440161, Note_off_c, 0, 74, 60
1, 440169, Control_c, 0, 64, 42
1, 440173, Note_on_c, 0, 75, 79
1, 440176, Note_on_c, 0, 72, 65
1, 440194, Note_off_c, 0, 75, 71
1, 440212, Note_off_c, 0, 72, 53
1, 440226, Note_on_c, 0, 76, 79
1, 440229, Note_on_c, 0, 73, 70
1, 440265, Note_off_c, 0, 73, 59
1, 440275, Note_on_c, 0, 77, 80
1, 440279, Note_off_c, 0, 76, 64
1, 440290, Note_on_c, 0, 74, 75
1, 440315, Note_on_c, 0, 78, 76
1, 440321, Note_off_c, 0, 77, 63
1, 440336, Note_off_c, 0, 74, 62
1, 440336, Note_off_c, 0, 78, 71
1, 440340, Note_on_c, 0, 75, 66
1, 440373, Note_on_c, 0, 79, 77
1, 440393, Note_on_c, 0, 76, 70
1, 440395, Note_off_c, 0, 75, 63
1, 440424, Note_off_c, 0, 79, 62
1, 440428, Note_off_c, 0, 76, 64
1, 440431, Note_on_c, 0, 80, 78
1, 440448, Note_on_c, 0, 77, 64
1, 440462, Note_on_c, 0, 81, 75
1, 440462, Note_off_c, 0, 80, 60
1, 440506, Note_off_c, 0, 81, 62
1, 440509, Note_on_c, 0, 82, 74
1, 440515, Note_off_c, 0, 77, 64
1, 440522, Note_on_c, 0, 78, 65
1, 440545, Note_off_c, 0, 82, 63
1, 440556, Note_on_c, 0, 79, 62
1, 440558, Note_off_c, 0, 78, 58
1, 440582, Note_on_c, 0, 83, 67
1, 440591, Note_off_c, 0, 79, 66
1, 440598, Note_on_c, 0, 80, 65
1, 440622, Note_off_c, 0, 83, 58
1, 440636, Note_off_c, 0, 80, 62
1, 440640, Note_on_c, 0, 84, 65
1, 440671, Note_off_c, 0, 84, 64
1, 440673, Note_on_c, 0, 81, 46
1, 440677, Note_on_c, 0, 85, 67
1, 440688, Control_c, 0, 64, 42
1, 440703, Note_off_c, 0, 85, 70
1, 440713, Note_off_c, 0, 81, 53
1, 440724, Note_on_c, 0, 82, 52
1, 440745, Note_on_c, 0, 86, 60
1, 440760, Note_off_c, 0, 82, 57
1, 440770, Note_off_c, 0, 86, 61
1, 440772, Note_on_c, 0, 83, 54
1, 440794, Note_off_c, 0, 83, 64
1, 440798, Note_on_c, 0, 87, 66
1, 440826, Note_off_c, 0, 87, 68
1, 440842, Note_on_c, 0, 84, 46
1, 440862, Note_on_c, 0, 88, 48
1, 440879, Note_off_c, 0, 84, 51
1, 440888, Note_off_c, 0, 88, 58
1, 440903, Control_c, 0, 64, 43
1, 440909, Note_on_c, 0, 85, 42
1, 440911, Note_on_c, 0, 89, 50
1, 440962, Control_c, 0, 64, 43
1, 440966, Note_off_c, 0, 89, 48
1, 440977, Control_c, 0, 64, 44
1, 440992, Control_c, 0, 64, 45
1, 440995, Note_on_c, 0, 90, 50
1, 441006, Control_c, 0, 64, 48
1, 441008, Note_off_c, 0, 85, 37
1, 441021, Control_c, 0, 64, 52
1, 441025, Note_on_c, 0, 86, 37
1, 441036, Control_c, 0, 64, 58
1, 441051, Control_c, 0, 64, 63
1, 441066, Control_c, 0, 64, 67
1, 441080, Control_c, 0, 64, 71
1, 441095, Control_c, 0, 64, 78
1, 441110, Control_c, 0, 64, 88
1, 441125, Control_c, 0, 64, 104
1, 441136, Note_off_c, 0, 86, 45
1, 441140, Control_c, 0, 64, 127
1, 441154, Note_off_c, 0, 90, 45
1, 441637, Control_c, 0, 64, 107
1, 441652, Control_c, 0, 64, 77
1, 441667, Control_c, 0, 64, 58
1, 441682, Control_c, 0, 64, 0
1, 441779, Note_on_c, 0, 40, 55
1, 441811, Note_off_c, 0, 40, 63
1, 441830, Control_c, 0, 64, 56
1, 441841, Note_on_c, 0, 49, 77
1, 441844, Control_c, 0, 64, 101
1, 441859, Control_c, 0, 64, 127
1, 441867, Note_on_c, 0, 57, 99
1, 441875, Note_off_c, 0, 49, 63
1, 441887, Note_off_c, 0, 57, 70
1, 441927, Poly_aftertouch_c, 0, 45, 0
1, 441930, Note_on_c, 0, 64, 67
1, 441961, Note_off_c, 0, 64, 65
1, 441972, Note_on_c, 0, 69, 65
1, 442024, Note_off_c, 0, 69, 60
1, 442036, Note_on_c, 0, 76, 70
1, 442060, Note_off_c, 0, 76, 66
1, 442098, Note_on_c, 0, 59, 69
1, 442111, Note_on_c, 0, 76, 76
1, 442137, Note_off_c, 0, 59, 62
1, 442152, Note_on_c, 0, 57, 79
1, 442160, Note_on_c, 0, 69, 76
1, 442169, Note_off_c, 0, 76, 62
1, 442170, Control_c, 0, 64, 89
1, 442176, Note_off_c, 0, 57, 69
1, 442185, Control_c, 0, 64, 67
1, 442200, Control_c, 0, 64, 34
1, 442206, Note_off_c, 0, 69, 62
1, 442209, Note_on_c, 0, 64, 73
1, 442215, Control_c, 0, 64, 0
1, 442238, Note_off_c, 0, 64, 70
1, 442297, Note_on_c, 0, 57, 63
1, 442298, Note_on_c, 0, 40, 55
1, 442317, Note_off_c, 0, 57, 64
1, 442337, Note_off_c, 0, 40, 61
1, 442359, Note_on_c, 0, 47, 70
1, 442386, Control_c, 0, 64, 63
1, 442388, Note_on_c, 0, 50, 67
1, 442395, Note_off_c, 0, 47, 62
1, 442401, Control_c, 0, 64, 97
1, 442415, Control_c, 0, 64, 127
1, 442416, Note_on_c, 0, 56, 102
1, 442419, Note_off_c, 0, 50, 66
1, 442449, Note_off_c, 0, 56, 64
1, 442491, Note_on_c, 0, 64, 71
1, 442520, Note_on_c, 0, 68, 74
1, 442529, Note_off_c, 0, 64, 60
1, 442579, Note_on_c, 0, 51, 28
1, 442582, Note_off_c, 0, 68, 63
1, 442592, Note_on_c, 0, 76, 62
1, 442611, Note_off_c, 0, 76, 63
1, 442646, Note_off_c, 0, 51, 42
1, 442659, Note_on_c, 0, 76, 76
1, 442673, Note_on_c, 0, 53, 52
1, 442682, Control_c, 0, 64, 92
1, 442697, Control_c, 0, 64, 69
1, 442701, Note_on_c, 0, 56, 76
1, 442702, Note_off_c, 0, 53, 62
1, 442712, Control_c, 0, 64, 41
1, 442713, Note_off_c, 0, 76, 63
1, 442719, Note_on_c, 0, 68, 69
1, 442724, Note_off_c, 0, 56, 67
1, 442727, Control_c, 0, 64, 0
1, 442742, Note_off_c, 0, 68, 69
1, 442770, Note_on_c, 0, 64, 58
1, 442789, Note_off_c, 0, 64, 63
1, 442838, Note_on_c, 0, 56, 63
1, 442859, Note_on_c, 0, 45, 56
1, 442867, Note_off_c, 0, 56, 61
1, 442922, Note_on_c, 0, 49, 68
1, 442932, Note_off_c, 0, 45, 64
1, 442954, Note_on_c, 0, 57, 112
1, 442963, Control_c, 0, 64, 54
1, 442983, Note_off_c, 0, 49, 66
1, 442985, Control_c, 0, 64, 75
1, 442987, Note_off_c, 0, 57, 69
1, 443000, Control_c, 0, 64, 97
1, 443015, Control_c, 0, 64, 127
1, 443270, Note_on_c, 0, 90, 57
1, 443290, Note_off_c, 0, 90, 63
1, 443291, Note_on_c, 0, 98, 55
1, 443312, Note_on_c, 0, 89, 76
1, 443312, Control_c, 0, 64, 95
1, 443321, Note_off_c, 0, 98, 67
1, 443327, Control_c, 0, 64, 74
1, 443328, Note_on_c, 0, 97, 73
1, 443342, Control_c, 0, 64, 61
1, 443356, Note_off_c, 0, 89, 61
1, 443357, Control_c, 0, 64, 40
1, 443362, Note_on_c, 0, 96, 68
1, 443372, Control_c, 0, 64, 0
1, 443374, Note_on_c, 0, 88, 62
1, 443376, Note_off_c, 0, 97, 66
1, 443389, Note_off_c, 0, 96, 68
1, 443402, Note_off_c, 0, 88, 68
1, 443404, Note_on_c, 0, 95, 68
1, 443406, Note_on_c, 0, 87, 69
1, 443432, Note_off_c, 0, 87, 68
1, 443436, Note_off_c, 0, 95, 54
1, 443452, Note_on_c, 0, 86, 75
1, 443475, Note_on_c, 0, 94, 67
1, 443503, Note_off_c, 0, 86, 60
1, 443509, Note_on_c, 0, 93, 78
1, 443516, Note_on_c, 0, 85, 81
1, 443528, Note_off_c, 0, 94, 62
1, 443536, Note_off_c, 0, 85, 72
1, 443560, Note_on_c, 0, 92, 73
1, 443560, Note_off_c, 0, 93, 66
1, 443564, Control_c, 0, 64, 45
1, 443572, Note_on_c, 0, 84, 81
1, 443579, Control_c, 0, 64, 63
1, 443591, Note_off_c, 0, 92, 65
1, 443594, Control_c, 0, 64, 80
1, 443598, Note_on_c, 0, 91, 75
1, 443608, Control_c, 0, 64, 127
1, 443622, Note_off_c, 0, 84, 63
1, 443626, Note_on_c, 0, 83, 81
1, 443637, Note_off_c, 0, 91, 44
1, 443653, Note_on_c, 0, 90, 74
1, 443664, Note_on_c, 0, 82, 80
1, 443670, Note_off_c, 0, 83, 65
1, 443688, Note_off_c, 0, 82, 65
1, 443697, Note_on_c, 0, 89, 85
1, 443712, Note_on_c, 0, 81, 85
1, 443719, Note_off_c, 0, 90, 61
1, 443753, Note_off_c, 0, 89, 62
1, 443762, Note_on_c, 0, 88, 82
1, 443782, Note_off_c, 0, 81, 65
1, 443783, Note_on_c, 0, 80, 86
1, 443813, Note_off_c, 0, 88, 61
1, 443813, Note_on_c, 0, 87, 82
1, 443816, Note_on_c, 0, 79, 82
1, 443852, Note_off_c, 0, 80, 62
1, 443854, Control_c, 0, 64, 81
1, 443861, Note_on_c, 0, 78, 77
1, 443864, Note_on_c, 0, 86, 80
1, 443869, Control_c, 0, 64, 59
1, 443873, Note_off_c, 0, 79, 65
1, 443884, Control_c, 0, 64, 0
1, 443887, Note_off_c, 0, 78, 67
1, 443907, Note_off_c, 0, 87, 48
1, 443908, Note_on_c, 0, 85, 83
1, 443913, Control_c, 0, 64, 63
1, 443915, Note_on_c, 0, 77, 79
1, 443928, Control_c, 0, 64, 81
1, 443931, Note_off_c, 0, 86, 64
1, 443943, Control_c, 0, 64, 127
1, 443956, Note_on_c, 0, 84, 83
1, 443959, Note_off_c, 0, 85, 66
1, 443981, Note_on_c, 0, 76, 85
1, 443983, Note_off_c, 0, 77, 62
1, 444010, Note_on_c, 0, 75, 75
1, 444014, Note_off_c, 0, 84, 59
1, 444022, Note_on_c, 0, 83, 74
1, 444023, Note_off_c, 0, 76, 64
1, 444042, Note_off_c, 0, 75, 61
1, 444061, Note_on_c, 0, 82, 81
1, 444068, Note_on_c, 0, 74, 82
1, 444086, Note_off_c, 0, 83, 63
1, 444110, Note_on_c, 0, 81, 80
1, 444112, Note_off_c, 0, 82, 63
1, 444123, Note_off_c, 0, 74, 63
1, 444129, Note_on_c, 0, 73, 87
1, 444165, Note_off_c, 0, 81, 53
1, 444171, Note_on_c, 0, 80, 80
1, 444173, Note_off_c, 0, 73, 60
1, 444195, Note_on_c, 0, 72, 83
1, 444218, Note_on_c, 0, 79, 78
1, 444251, Note_on_c, 0, 71, 83
1, 444252, Note_off_c, 0, 72, 61
1, 444254, Note_on_c, 0, 78, 78
1, 444260, Note_off_c, 0, 80, 58
1, 444269, Note_off_c, 0, 79, 65
1, 444290, Note_on_c, 0, 77, 75
1, 444290, Note_off_c, 0, 78, 61
1, 444292, Note_on_c, 0, 70, 79
1, 444304, Note_off_c, 0, 71, 64
1, 444317, Note_off_c, 0, 77, 55
1, 444333, Note_on_c, 0, 68, 50
1, 444338, Note_off_c, 0, 70, 61
1, 444353, Note_on_c, 0, 76, 75
1, 444357, Note_off_c, 0, 68, 57
1, 444379, Note_on_c, 0, 75, 75
1, 444382, Note_on_c, 0, 67, 64
1, 444385, Note_on_c, 0, 69, 60
1, 444402, Note_off_c, 0, 76, 63
1, 444421, Note_on_c, 0, 74, 87
1, 444427, Note_off_c, 0, 75, 62
1, 444433, Note_on_c, 0, 66, 70
1, 444434, Note_off_c, 0, 69, 53
1, 444483, Note_on_c, 0, 76, 90
1, 444485, Note_on_c, 0, 64, 73
1, 444490, Note_off_c, 0, 66, 42
1, 444490, Note_off_c, 0, 74, 66
1, 444491, Note_on_c, 0, 73, 83
1, 444491, Note_off_c, 0, 67, 63
1, 444505, Note_off_c, 0, 64, 70
1, 444513, Note_off_c, 0, 73, 67
1, 444522, Note_off_c, 0, 76, 61
1, 444602, Control_c, 0, 64, 111
1, 444617, Control_c, 0, 64, 72
1, 444631, Control_c, 0, 64, 0
1, 444639, Note_on_c, 0, 40, 49
1, 444671, Note_off_c, 0, 40, 50
1, 444707, Control_c, 0, 64, 65
1, 444707, Note_on_c, 0, 49, 58
1, 444722, Control_c, 0, 64, 105
1, 444726, Note_on_c, 0, 57, 100
1, 444730, Note_on_c, 0, 61, 92
1, 444732, Note_on_c, 0, 69, 76
1, 444735, Note_off_c, 0, 49, 65
1, 444736, Control_c, 0, 64, 127
1, 444737, Note_on_c, 0, 73, 77
1, 444746, Note_off_c, 0, 57, 71
1, 444787, Note_off_c, 0, 61, 60
1, 444804, Note_off_c, 0, 73, 60
1, 444810, Note_off_c, 0, 69, 60
1, 444815, Note_on_c, 0, 64, 76
1, 444821, Note_on_c, 0, 62, 40
1, 444854, Note_off_c, 0, 62, 51
1, 444856, Note_off_c, 0, 64, 60
1, 444864, Note_on_c, 0, 73, 82
1, 444890, Note_off_c, 0, 73, 66
1, 444922, Note_on_c, 0, 59, 69
1, 444925, Note_on_c, 0, 62, 74
1, 444958, Note_on_c, 0, 76, 79
1, 444983, Note_off_c, 0, 76, 63
1, 444996, Note_on_c, 0, 61, 87
1, 445002, Note_on_c, 0, 57, 77
1, 445003, Note_on_c, 0, 85, 98
1, 445004, Note_off_c, 0, 62, 63
1, 445009, Note_on_c, 0, 81, 84
1, 445015, Note_off_c, 0, 59, 60
1, 445025, Note_off_c, 0, 57, 71
1, 445029, Note_off_c, 0, 61, 58
1, 445032, Note_on_c, 0, 82, 53
1, 445032, Control_c, 0, 64, 110
1, 445040, Note_off_c, 0, 81, 61
1, 445047, Control_c, 0, 64, 72
1, 445048, Note_off_c, 0, 85, 66
1, 445054, Note_off_c, 0, 82, 61
1, 445062, Control_c, 0, 64, 46
1, 445077, Control_c, 0, 64, 0
1, 445207, Note_on_c, 0, 59, 101
1, 445210, Note_on_c, 0, 56, 67
1, 445218, Note_on_c, 0, 71, 104
1, 445231, Note_on_c, 0, 80, 84
1, 445233, Note_on_c, 0, 83, 87
1, 445233, Control_c, 0, 64, 66
1, 445248, Control_c, 0, 64, 127
1, 445254, Note_on_c, 0, 57, 29
1, 445254, Note_off_c, 0, 57, 127
1, 445277, Note_off_c, 0, 83, 54
1, 445292, Note_on_c, 0, 55, 14
1, 445292, Note_off_c, 0, 80, 61
1, 445297, Note_off_c, 0, 71, 67
1, 445298, Note_on_c, 0, 76, 81
1, 445328, Note_off_c, 0, 59, 57
1, 445332, Poly_aftertouch_c, 0, 78, 0
1, 445347, Note_off_c, 0, 76, 64
1, 445351, Note_off_c, 0, 55, 46
1, 445356, Note_on_c, 0, 83, 72
1, 445358, Note_off_c, 0, 56, 56
1, 445360, Note_on_c, 0, 80, 55
1, 445374, Note_off_c, 0, 83, 68
1, 445383, Note_off_c, 0, 80, 59
1, 445402, Note_on_c, 0, 54, 58
1, 445411, Note_on_c, 0, 57, 65
1, 445432, Note_on_c, 0, 88, 91
1, 445479, Note_on_c, 0, 56, 78
1, 445481, Note_off_c, 0, 54, 60
1, 445488, Note_on_c, 0, 95, 92
1, 445493, Note_on_c, 0, 59, 83
1, 445494, Note_on_c, 0, 92, 89
1, 445499, Note_off_c, 0, 88, 66
1, 445503, Note_off_c, 0, 57, 61
1, 445506, Note_off_c, 0, 56, 64
1, 445524, Note_off_c, 0, 95, 65
1, 445528, Note_off_c, 0, 92, 64
1, 445536, Note_off_c, 0, 59, 61
1, 445545, Control_c, 0, 64, 104
1, 445560, Control_c, 0, 64, 73
1, 445575, Control_c, 0, 64, 53
1, 445590, Control_c, 0, 64, 0
1, 445608, Note_on_c, 0, 45, 66
1, 445641, Note_off_c, 0, 45, 64
1, 445667, Note_on_c, 0, 52, 65
1, 445689, Note_on_c, 0, 61, 96
1, 445693, Control_c, 0, 64, 50
1, 445694, Note_on_c, 0, 93, 83
1, 445696, Note_on_c, 0, 85, 101
1, 445696, Note_on_c, 0, 97, 101
1, 445706, Note_off_c, 0, 61, 73
1, 445708, Control_c, 0, 64, 96
1, 445709, Note_off_c, 0, 85, 79
1, 445723, Note_on_c, 0, 94, 43
1, 445723, Note_off_c, 0, 94, 127
1, 445723, Control_c, 0, 64, 127
1, 445724, Note_off_c, 0, 52, 60
1, 445733, Note_off_c, 0, 93, 63
1, 445762, Note_off_c, 0, 97, 63
1, 445899, Note_on_c, 0, 33, 81
1, 445900, Control_c, 0, 64, 86
1, 445903, Note_on_c, 0, 100, 100
1, 445904, Note_on_c, 0, 97, 100
1, 445915, Control_c, 0, 64, 49
1, 445930, Control_c, 0, 64, 0
1, 445944, Note_on_c, 0, 35, 69
1, 445957, Note_off_c, 0, 33, 58
1, 445959, Control_c, 0, 64, 52
1, 445961, Note_on_c, 0, 37, 73
1, 445962, Note_on_c, 0, 95, 78
1, 445982, Control_c, 0, 64, 90
1, 445997, Control_c, 0, 64, 127
1, 445998, Note_off_c, 0, 35, 61
1, 446000, Note_on_c, 0, 38, 70
1, 446004, Note_off_c, 0, 97, 63
1, 446007, Note_off_c, 0, 100, 68
1, 446023, Note_on_c, 0, 93, 76
1, 446032, Note_off_c, 0, 95, 66
1, 446046, Note_off_c, 0, 37, 58
1, 446050, Note_on_c, 0, 40, 75
1, 446052, Note_off_c, 0, 38, 61
1, 446052, Note_off_c, 0, 93, 66
1, 446093, Note_on_c, 0, 92, 90
1, 446115, Note_off_c, 0, 40, 52
1, 446117, Note_on_c, 0, 42, 80
1, 446137, Note_on_c, 0, 90, 78
1, 446170, Note_on_c, 0, 44, 74
1, 446170, Note_on_c, 0, 88, 80
1, 446175, Note_off_c, 0, 92, 66
1, 446188, Note_off_c, 0, 42, 62
1, 446204, Note_off_c, 0, 90, 64
1, 446220, Note_on_c, 0, 86, 77
1, 446222, Note_off_c, 0, 88, 65
1, 446226, Note_off_c, 0, 44, 63
1, 446230, Note_on_c, 0, 45, 70
1, 446245, Note_off_c, 0, 86, 63
1, 446263, Note_off_c, 0, 45, 61
1, 446281, Note_on_c, 0, 85, 84
1, 446289, Note_on_c, 0, 47, 76
1, 446332, Note_on_c, 0, 83, 76
1, 446334, Note_on_c, 0, 49, 78
1, 446361, Note_off_c, 0, 47, 61
1, 446363, Note_off_c, 0, 85, 65
1, 446369, Note_on_c, 0, 50, 74
1, 446380, Note_on_c, 0, 81, 88
1, 446382, Note_off_c, 0, 83, 65
1, 446394, Note_off_c, 0, 49, 63
1, 446409, Note_off_c, 0, 50, 60
1, 446412, Control_c, 0, 64, 109
1, 446418, Note_on_c, 0, 52, 70
1, 446421, Note_off_c, 0, 81, 59
1, 446427, Control_c, 0, 64, 66
1, 446440, Note_on_c, 0, 80, 79
1, 446442, Control_c, 0, 64, 0
1, 446472, Note_on_c, 0, 54, 82
1, 446485, Note_off_c, 0, 52, 56
1, 446487, Note_on_c, 0, 79, 75
1, 446487, Control_c, 0, 64, 40
1, 446501, Control_c, 0, 64, 69
1, 446510, Note_on_c, 0, 76, 76
1, 446516, Control_c, 0, 64, 101
1, 446520, Note_off_c, 0, 80, 62
1, 446523, Note_on_c, 0, 56, 78
1, 446531, Control_c, 0, 64, 127
1, 446538, Note_off_c, 0, 79, 66
1, 446543, Note_off_c, 0, 54, 62
1, 446552, Note_on_c, 0, 74, 80
1, 446558, Note_off_c, 0, 76, 63
1, 446574, Note_off_c, 0, 56, 61
1, 446580, Note_off_c, 0, 74, 58
1, 446597, Note_on_c, 0, 57, 59
1, 446623, Note_on_c, 0, 73, 68
1, 446632, Note_on_c, 0, 59, 65
1, 446638, Note_on_c, 0, 72, 71
1, 446644, Note_off_c, 0, 73, 61
1, 446663, Note_off_c, 0, 57, 38
1, 446673, Note_off_c, 0, 72, 63
1, 446676, Note_on_c, 0, 69, 45
1, 446685, Note_on_c, 0, 71, 60
1, 446695, Note_on_c, 0, 61, 75
1, 446704, Note_off_c, 0, 71, 62
1, 446708, Note_off_c, 0, 59, 61
1, 446737, Note_off_c, 0, 69, 62
1, 446752, Note_off_c, 0, 61, 59
1, 446758, Note_on_c, 0, 62, 71
1, 446765, Note_on_c, 0, 68, 75
1, 446791, Note_on_c, 0, 66, 82
1, 446799, Note_off_c, 0, 68, 61
1, 446805, Note_on_c, 0, 63, 74
1, 446808, Note_off_c, 0, 62, 61
1, 446812, Note_off_c, 0, 66, 68
1, 446829, Note_off_c, 0, 63, 68
1, 446862, Note_on_c, 0, 64, 97
1, 446864, Control_c, 0, 64, 117
1, 446870, Note_on_c, 0, 76, 85
1, 446875, Note_on_c, 0, 73, 76
1, 446879, Control_c, 0, 64, 67
1, 446891, Note_off_c, 0, 76, 67
1, 446894, Control_c, 0, 64, 0
1, 446899, Note_off_c, 0, 73, 65
1, 446910, Note_off_c, 0, 64, 63
1, 446958, Note_on_c, 0, 40, 42
1, 446964, Note_on_c, 0, 41, 45
1, 446987, Note_off_c, 0, 40, 51
1, 447000, Note_off_c, 0, 41, 61
1, 447029, Note_on_c, 0, 49, 53
1, 447038, Note_on_c, 0, 46, 23
1, 447041, Control_c, 0, 64, 59
1, 447057, Control_c, 0, 64, 127
1, 447059, Note_off_c, 0, 49, 54
1, 447060, Note_on_c, 0, 57, 97
1, 447070, Note_on_c, 0, 61, 91
1, 447070, Note_on_c, 0, 69, 81
1, 447074, Note_on_c, 0, 73, 84
1, 447084, Note_off_c, 0, 46, 54
1, 447091, Note_off_c, 0, 57, 66
1, 447102, Note_on_c, 0, 68, 30
1, 447102, Note_off_c, 0, 68, 127
1, 447119, Note_off_c, 0, 61, 57
1, 447132, Note_off_c, 0, 73, 50
1, 447149, Note_on_c, 0, 64, 78
1, 447149, Note_off_c, 0, 69, 61
1, 447153, Poly_aftertouch_c, 0, 60, 127
1, 447195, Note_off_c, 0, 64, 65
1, 447195, Poly_aftertouch_c, 0, 60, 0
1, 447210, Poly_aftertouch_c, 0, 62, 127
1, 447211, Note_on_c, 0, 73, 82
1, 447231, Note_off_c, 0, 73, 69
1, 447237, Poly_aftertouch_c, 0, 62, 0
1, 447261, Note_on_c, 0, 59, 72
1, 447273, Note_on_c, 0, 62, 55
1, 447303, Note_on_c, 0, 76, 86
1, 447340, Note_on_c, 0, 61, 86
1, 447347, Note_on_c, 0, 57, 74
1, 447351, Note_on_c, 0, 85, 97
1, 447351, Note_off_c, 0, 62, 63
1, 447354, Note_on_c, 0, 81, 87
1, 447361, Note_off_c, 0, 76, 64
1, 447364, Note_off_c, 0, 59, 61
1, 447366, Note_off_c, 0, 57, 73
1, 447370, Note_off_c, 0, 61, 63
1, 447377, Note_off_c, 0, 81, 66
1, 447392, Note_off_c, 0, 85, 65
1, 447398, Control_c, 0, 64, 76
1, 447413, Control_c, 0, 64, 51
1, 447428, Control_c, 0, 64, 0
1, 447560, Note_on_c, 0, 59, 97
1, 447569, Control_c, 0, 64, 65
1, 447570, Note_on_c, 0, 56, 80
1, 447573, Note_on_c, 0, 71, 101
1, 447578, Note_on_c, 0, 83, 88
1, 447583, Note_on_c, 0, 80, 70
1, 447583, Control_c, 0, 64, 106
1, 447594, Note_on_c, 0, 52, 46
1, 447598, Control_c, 0, 64, 127
1, 447599, Note_on_c, 0, 81, 62
1, 447609, Note_off_c, 0, 80, 54
1, 447619, Note_off_c, 0, 81, 62
1, 447622, Note_off_c, 0, 52, 55
1, 447623, Note_off_c, 0, 83, 59
1, 447646, Note_on_c, 0, 76, 80
1, 447652, Note_off_c, 0, 71, 66
1, 447666, Note_off_c, 0, 59, 57
1, 447701, Note_off_c, 0, 76, 64
1, 447702, Note_on_c, 0, 81, 72
1, 447725, Note_off_c, 0, 81, 67
1, 447739, Note_off_c, 0, 56, 57
1, 447750, Note_on_c, 0, 57, 70
1, 447752, Note_on_c, 0, 54, 59
1, 447788, Note_on_c, 0, 88, 91
1, 447829, Note_off_c, 0, 54, 61
1, 447837, Note_off_c, 0, 57, 57
1, 447840, Note_on_c, 0, 56, 72
1, 447840, Note_on_c, 0, 95, 87
1, 447845, Note_on_c, 0, 59, 75
1, 447849, Note_on_c, 0, 92, 82
1, 447849, Note_off_c, 0, 88, 65
1, 447866, Note_off_c, 0, 56, 68
1, 447870, Note_off_c, 0, 92, 70
1, 447879, Note_off_c, 0, 59, 65
1, 447882, Note_off_c, 0, 95, 63
1, 447910, Control_c, 0, 64, 91
1, 447925, Control_c, 0, 64, 68
1, 447940, Control_c, 0, 64, 40
1, 447954, Control_c, 0, 64, 0
1, 447956, Note_on_c, 0, 45, 66
1, 447994, Note_off_c, 0, 45, 65
1, 448022, Note_on_c, 0, 94, 95
1, 448022, Note_on_c, 0, 52, 77
1, 448028, Control_c, 0, 64, 36
1, 448029, Note_on_c, 0, 85, 109
1, 448035, Note_on_c, 0, 97, 80
1, 448040, Note_on_c, 0, 61, 97
1, 448043, Control_c, 0, 64, 72
1, 448047, Note_off_c, 0, 52, 68
1, 448054, Note_off_c, 0, 94, 69
1, 448054, Note_off_c, 0, 97, 72
1, 448058, Control_c, 0, 64, 127
1, 448061, Note_off_c, 0, 61, 70
1, 448071, Note_off_c, 0, 85, 69
1, 448277, Note_on_c, 0, 66, 90
1, 448284, Note_on_c, 0, 75, 93
1, 448344, Note_off_c, 0, 75, 63
1, 448350, Note_off_c, 0, 66, 63
1, 448373, Note_on_c, 0, 64, 81
1, 448375, Note_on_c, 0, 76, 67
1, 448440, Note_off_c, 0, 64, 62
1, 448441, Note_on_c, 0, 62, 80
1, 448447, Note_on_c, 0, 78, 85
1, 448463, Note_off_c, 0, 76, 55
1, 448465, Control_c, 0, 64, 101
1, 448479, Control_c, 0, 64, 69
1, 448486, Note_on_c, 0, 61, 75
1, 448494, Control_c, 0, 64, 0
1, 448495, Note_on_c, 0, 80, 81
1, 448498, Note_off_c, 0, 62, 63
1, 448510, Note_off_c, 0, 78, 64
1, 448523, Note_off_c, 0, 80, 66
1, 448538, Note_off_c, 0, 61, 61
1, 448553, Control_c, 0, 64, 62
1, 448561, Note_on_c, 0, 81, 88
1, 448563, Note_on_c, 0, 59, 74
1, 448568, Control_c, 0, 64, 81
1, 448583, Control_c, 0, 64, 127
1, 448612, Note_off_c, 0, 59, 62
1, 448615, Note_on_c, 0, 57, 80
1, 448617, Note_on_c, 0, 83, 85
1, 448645, Note_off_c, 0, 81, 65
1, 448648, Note_on_c, 0, 85, 83
1, 448662, Note_on_c, 0, 56, 73
1, 448681, Note_off_c, 0, 83, 64
1, 448686, Note_on_c, 0, 86, 74
1, 448688, Note_off_c, 0, 57, 63
1, 448697, Note_on_c, 0, 54, 73
1, 448708, Note_off_c, 0, 86, 68
1, 448710, Note_off_c, 0, 85, 65
1, 448721, Note_off_c, 0, 56, 60
1, 448726, Note_off_c, 0, 54, 68
1, 448754, Note_on_c, 0, 88, 91
1, 448766, Note_on_c, 0, 52, 79
1, 448812, Note_on_c, 0, 90, 88
1, 448827, Note_on_c, 0, 50, 80
1, 448828, Note_off_c, 0, 52, 62
1, 448833, Note_off_c, 0, 88, 63
1, 448855, Note_on_c, 0, 92, 86
1, 448860, Note_off_c, 0, 50, 63
1, 448865, Note_on_c, 0, 49, 69
1, 448877, Note_off_c, 0, 90, 65
1, 448892, Note_off_c, 0, 49, 65
1, 448894, Note_off_c, 0, 92, 64
1, 448921, Note_on_c, 0, 93, 82
1, 448930, Note_on_c, 0, 47, 71
1, 448979, Note_on_c, 0, 45, 78
1, 448983, Note_off_c, 0, 47, 61
1, 448989, Note_on_c, 0, 95, 73
1, 448990, Note_on_c, 0, 98, 80
1, 448993, Note_off_c, 0, 93, 66
1, 449005, Note_on_c, 0, 44, 76
1, 449010, Note_off_c, 0, 95, 71
1, 449011, Note_off_c, 0, 45, 67
1, 449015, Note_off_c, 0, 98, 66
1, 449033, Note_off_c, 0, 44, 66
1, 449047, Note_on_c, 0, 42, 47
1, 449058, Note_on_c, 0, 100, 108
1, 449060, Note_on_c, 0, 88, 111
1, 449068, Note_on_c, 0, 52, 96
1, 449068, Note_on_c, 0, 93, 84
1, 449077, Note_on_c, 0, 97, 73
1, 449077, Note_on_c, 0, 98, 65
1, 449080, Note_on_c, 0, 45, 76
1, 449086, Note_off_c, 0, 52, 72
1, 449090, Note_on_c, 0, 89, 44
1, 449090, Note_off_c, 0, 89, 127
1, 449097, Note_on_c, 0, 48, 49
1, 449101, Note_off_c, 0, 42, 54
1, 449114, Note_off_c, 0, 97, 55
1, 449116, Note_off_c, 0, 100, 65
1, 449117, Note_off_c, 0, 98, 51
1, 449119, Note_off_c, 0, 88, 62
1, 449125, Control_c, 0, 64, 89
1, 449125, Note_off_c, 0, 48, 60
1, 449140, Control_c, 0, 64, 68
1, 449154, Control_c, 0, 64, 50
1, 449161, Note_off_c, 0, 93, 46
1, 449169, Control_c, 0, 64, 0
1, 449208, Note_off_c, 0, 45, 29
1, 449256, Note_on_c, 0, 45, 73
1, 449258, Note_on_c, 0, 49, 96
1, 449258, Note_on_c, 0, 52, 92
1, 449261, Note_on_c, 0, 88, 114
1, 449262, Note_on_c, 0, 93, 103
1, 449262, Note_on_c, 0, 97, 103
1, 449265, Note_on_c, 0, 100, 113
1, 449273, Control_c, 0, 64, 60
1, 449280, Note_on_c, 0, 98, 73
1, 449288, Control_c, 0, 64, 127
1, 449290, Note_on_c, 0, 40, 45
1, 449298, Note_off_c, 0, 52, 61
1, 449322, Note_off_c, 0, 93, 64
1, 449325, Note_off_c, 0, 40, 51
1, 449333, Note_off_c, 0, 49, 62
1, 449334, Note_off_c, 0, 100, 64
1, 449335, Note_off_c, 0, 45, 61
1, 449343, Note_off_c, 0, 88, 58
1, 449361, Note_off_c, 0, 98, 30
1, 449382, Note_off_c, 0, 97, 63
1, 449465, Note_on_c, 0, 45, 70
1, 449468, Note_on_c, 0, 47, 71
1, 449473, Note_on_c, 0, 95, 88
1, 449474, Note_on_c, 0, 52, 67
1, 449476, Note_on_c, 0, 88, 94
1, 449479, Note_on_c, 0, 100, 80
1, 449491, Note_off_c, 0, 88, 77
1, 449492, Note_off_c, 0, 95, 68
1, 449493, Note_off_c, 0, 100, 71
1, 449495, Note_off_c, 0, 47, 66
1, 449496, Note_off_c, 0, 52, 64
1, 449504, Note_off_c, 0, 45, 65
1, 449536, Note_on_c, 0, 97, 18
1, 449536, Poly_aftertouch_c, 0, 45, 0
1, 449539, Note_on_c, 0, 88, 106
1, 449539, Note_on_c, 0, 100, 100
1, 449540, Note_on_c, 0, 45, 70
1, 449542, Note_on_c, 0, 49, 81
1, 449547, Note_on_c, 0, 52, 74
1, 449554, Control_c, 0, 64, 95
1, 449556, Poly_aftertouch_c, 0, 94, 0
1, 449565, Note_off_c, 0, 52, 67
1, 449566, Note_on_c, 0, 94, 4
1, 449566, Note_off_c, 0, 94, 127
1, 449566, Note_off_c, 0, 45, 68
1, 449569, Control_c, 0, 64, 66
1, 449583, Note_off_c, 0, 100, 67
1, 449584, Control_c, 0, 64, 0
1, 449588, Note_off_c, 0, 49, 61
1, 449599, Note_off_c, 0, 88, 61
1, 449636, Note_off_c, 0, 97, 59
1, 449739, Note_on_c, 0, 52, 99
1, 449741, Note_on_c, 0, 95, 104
1, 449742, Note_on_c, 0, 88, 106
1, 449742, Note_on_c, 0, 92, 101
1, 449743, Note_on_c, 0, 47, 88
1, 449746, Note_on_c, 0, 44, 86
1, 449747, Note_on_c, 0, 100, 97
1, 449754, Note_on_c, 0, 97, 86
1, 449754, Control_c, 0, 64, 81
1, 449759, Note_on_c, 0, 98, 85
1, 449769, Control_c, 0, 64, 127
1, 449771, Note_on_c, 0, 40, 40
1, 449780, Note_off_c, 0, 52, 55
1, 449781, Note_off_c, 0, 98, 55
1, 449790, Note_off_c, 0, 47, 64
1, 449802, Note_off_c, 0, 100, 67
1, 449807, Note_off_c, 0, 40, 49
1, 449813, Note_off_c, 0, 44, 61
1, 449814, Note_off_c, 0, 88, 64
1, 449825, Note_off_c, 0, 92, 63
1, 449834, Note_off_c, 0, 97, 63
1, 449846, Note_off_c, 0, 95, 60
1, 449950, Note_on_c, 0, 45, 88
1, 449954, Note_on_c, 0, 52, 72
1, 449958, Note_on_c, 0, 93, 84
1, 449963, Note_on_c, 0, 88, 90
1, 449971, Note_on_c, 0, 40, 45
1, 449971, Note_on_c, 0, 100, 66
1, 449972, Note_off_c, 0, 52, 72
1, 449974, Note_off_c, 0, 45, 69
1, 449977, Note_off_c, 0, 93, 71
1, 449980, Note_off_c, 0, 88, 73
1, 449989, Note_off_c, 0, 100, 68
1, 449990, Note_on_c, 0, 50, 29
1, 450000, Note_off_c, 0, 40, 56
1, 450023, Note_on_c, 0, 88, 89
1, 450028, Note_on_c, 0, 100, 87
1, 450029, Note_on_c, 0, 95, 78
1, 450031, Note_on_c, 0, 52, 76
1, 450031, Note_on_c, 0, 96, 76
1, 450032, Note_on_c, 0, 44, 87
1, 450036, Note_on_c, 0, 94, 62
1, 450036, Control_c, 0, 64, 97
1, 450037, Note_off_c, 0, 50, 43
1, 450039, Note_on_c, 0, 89, 72
1, 450044, Note_on_c, 0, 47, 55
1, 450050, Control_c, 0, 64, 68
1, 450052, Note_off_c, 0, 52, 61
1, 450053, Note_off_c, 0, 44, 72
1, 450054, Note_off_c, 0, 94, 41
1, 450057, Note_off_c, 0, 89, 64
1, 450065, Control_c, 0, 64, 39
1, 450069, Note_off_c, 0, 47, 59
1, 450071, Note_off_c, 0, 88, 65
1, 450076, Note_off_c, 0, 100, 60
1, 450080, Control_c, 0, 64, 0
1, 450094, Note_off_c, 0, 96, 56
1, 450097, Note_off_c, 0, 95, 61
1, 450242, Note_on_c, 0, 93, 103
1, 450243, Note_on_c, 0, 88, 107
1, 450244, Note_on_c, 0, 45, 101
1, 450246, Note_on_c, 0, 40, 86
1, 450246, Note_on_c, 0, 97, 105
1, 450248, Note_on_c, 0, 100, 113
1, 450249, Note_on_c, 0, 37, 82
1, 450251, Note_on_c, 0, 33, 79
1, 450259, Control_c, 0, 64, 36
1, 450273, Control_c, 0, 64, 95
1, 450289, Control_c, 0, 64, 127
1, 450296, Note_on_c, 0, 35, 32
1, 450344, Note_off_c, 0, 35, 39
1, 450377, Poly_aftertouch_c, 0, 96, 0
1, 450663, Note_off_c, 0, 100, 50
1, 450696, Note_off_c, 0, 33, 34
1, 450699, Note_off_c, 0, 45, 0
1, 450736, Poly_aftertouch_c, 0, 45, 127
1, 450754, Note_off_c, 0, 93, 46
1, 450769, Note_off_c, 0, 97, 23
1, 450845, Note_off_c, 0, 88, 49
1, 450879, Note_off_c, 0, 37, 58
1, 450881, Poly_aftertouch_c, 0, 45, 0
1, 450905, Note_off_c, 0, 40, 37
1, 450948, Control_c, 0, 64, 102
1, 450963, Control_c, 0, 64, 71
1, 450963, Control_c, 0, 67, 21
1, 450978, Control_c, 0, 64, 35
1, 450978, Control_c, 0, 67, 32
1, 450992, Control_c, 0, 64, 0
1, 450992, Control_c, 0, 67, 49
1, 451007, Control_c, 0, 67, 74
1, 451022, Control_c, 0, 67, 95
1, 451037, Control_c, 0, 67, 116
1, 451053, Control_c, 0, 67, 127
1, 451507, Note_on_c, 0, 68, 54
1, 451509, Note_on_c, 0, 52, 44
1, 451511, Note_on_c, 0, 64, 39
1, 451519, Note_on_c, 0, 71, 43
1, 451528, Note_off_c, 0, 68, 63
1, 451536, Note_off_c, 0, 52, 57
1, 451539, Note_off_c, 0, 64, 48
1, 451544, Note_off_c, 0, 71, 53
1, 451733, Note_on_c, 0, 69, 58
1, 451745, Note_on_c, 0, 66, 41
1, 451748, Note_on_c, 0, 52, 44
1, 451763, Note_off_c, 0, 69, 67
1, 451770, Note_off_c, 0, 66, 56
1, 451799, Note_on_c, 0, 64, 35
1, 451812, Note_off_c, 0, 52, 0
1, 451813, Note_on_c, 0, 71, 59
1, 451816, Note_on_c, 0, 68, 53
1, 451827, Note_on_c, 0, 52, 27
1, 451832, Note_off_c, 0, 64, 64
1, 451833, Note_off_c, 0, 71, 63
1, 451840, Note_off_c, 0, 68, 59
1, 451859, Note_off_c, 0, 52, 45
1, 452041, Note_on_c, 0, 73, 61
1, 452043, Note_on_c, 0, 57, 54
1, 452043, Note_on_c, 0, 64, 50
1, 452044, Note_on_c, 0, 69, 49
1, 452066, Note_off_c, 0, 64, 60
1, 452067, Note_off_c, 0, 69, 59
1, 452070, Note_off_c, 0, 73, 65
1, 452073, Note_off_c, 0, 57, 64
1, 452276, Note_on_c, 0, 57, 48
1, 452282, Note_on_c, 0, 71, 34
1, 452285, Note_on_c, 0, 64, 25
1, 452285, Note_on_c, 0, 74, 34
1, 452301, Note_off_c, 0, 57, 56
1, 452314, Note_off_c, 0, 71, 53
1, 452322, Note_off_c, 0, 64, 0
1, 452322, Note_on_c, 0, 64, 13
1, 452341, Note_on_c, 0, 69, 58
1, 452341, Note_on_c, 0, 73, 60
1, 452349, Note_on_c, 0, 57, 45
1, 452356, Note_off_c, 0, 74, 38
1, 452361, Note_off_c, 0, 69, 63
1, 452364, Note_off_c, 0, 64, 63
1, 452364, Note_off_c, 0, 73, 64
1, 452380, Note_off_c, 0, 57, 50
1, 452550, Control_c, 0, 67, 83
1, 452565, Control_c, 0, 67, 0
1, 452569, Note_on_c, 0, 71, 59
1, 452572, Note_on_c, 0, 68, 55
1, 452584, Note_on_c, 0, 62, 28
1, 452589, Note_on_c, 0, 64, 29
1, 452594, Note_off_c, 0, 68, 61
1, 452601, Note_off_c, 0, 71, 63
1, 452608, Note_on_c, 0, 52, 3
1, 452608, Note_off_c, 0, 52, 127
1, 452625, Note_off_c, 0, 62, 30
1, 452625, Note_off_c, 0, 64, 32
1, 452792, Note_on_c, 0, 69, 59
1, 452809, Note_on_c, 0, 66, 37
1, 452818, Note_off_c, 0, 69, 65
1, 452835, Note_on_c, 0, 52, 16
1, 452836, Note_off_c, 0, 66, 47
1, 452859, Note_on_c, 0, 62, 32
1, 452859, Note_on_c, 0, 64, 49
1, 452870, Note_on_c, 0, 71, 67
1, 452880, Note_on_c, 0, 68, 48
1, 452889, Note_off_c, 0, 52, 60
1, 452897, Note_off_c, 0, 71, 68
1, 452899, Note_off_c, 0, 62, 63
1, 452899, Note_off_c, 0, 64, 64
1, 452904, Note_off_c, 0, 68, 57
1, 453169, Note_on_c, 0, 61, 41
1, 453187, Note_on_c, 0, 69, 43
1, 453190, Note_on_c, 0, 57, 33
1, 453191, Note_on_c, 0, 64, 41
1, 453239, Control_c, 0, 64, 55
1, 453254, Control_c, 0, 64, 66
1, 453258, Note_off_c, 0, 57, 51
1, 453269, Control_c, 0, 64, 75
1, 453274, Note_off_c, 0, 64, 47
1, 453283, Control_c, 0, 64, 84
1, 453292, Note_off_c, 0, 61, 57
1, 453298, Control_c, 0, 64, 93
1, 453313, Control_c, 0, 64, 103
1, 453328, Control_c, 0, 64, 127
1, 453372, Note_off_c, 0, 69, 26
1, 453543, Control_c, 0, 64, 92
1, 453558, Control_c, 0, 64, 74
1, 453573, Control_c, 0, 64, 57
1, 453588, Control_c, 0, 64, 0
1, 453754, Note_on_c, 0, 50, 91
1, 453756, Note_on_c, 0, 83, 103
1, 453757, Note_on_c, 0, 76, 109
1, 453758, Note_on_c, 0, 80, 97
1, 453759, Note_on_c, 0, 88, 105
1, 453760, Note_on_c, 0, 45, 77
1, 453766, Control_c, 0, 64, 84
1, 453775, Note_off_c, 0, 50, 71
1, 453781, Control_c, 0, 64, 127
1, 453788, Note_off_c, 0, 45, 66
1, 453800, Note_on_c, 0, 38, 16
1, 453813, Note_off_c, 0, 76, 58
1, 453817, Note_off_c, 0, 88, 61
1, 453835, Poly_aftertouch_c, 0, 42, 127
1, 453837, Note_off_c, 0, 38, 0
1, 453841, Note_off_c, 0, 80, 57
1, 453851, Poly_aftertouch_c, 0, 38, 0
1, 453867, Poly_aftertouch_c, 0, 42, 0
1, 453934, Note_off_c, 0, 83, 58
1, 453978, Poly_aftertouch_c, 0, 46, 127
1, 453987, Note_on_c, 0, 81, 96
1, 453993, Note_on_c, 0, 46, 28
1, 453993, Note_on_c, 0, 76, 101
1, 453995, Note_on_c, 0, 88, 94
1, 453997, Note_on_c, 0, 52, 88
1, 454004, Note_on_c, 0, 44, 72
1, 454006, Note_on_c, 0, 40, 62
1, 454006, Note_off_c, 0, 76, 77
1, 454012, Note_off_c, 0, 88, 73
1, 454017, Note_off_c, 0, 52, 71
1, 454023, Note_off_c, 0, 81, 64
1, 454026, Note_off_c, 0, 46, 58
1, 454029, Note_off_c, 0, 44, 66
1, 454032, Note_off_c, 0, 40, 58
1, 454053, Note_on_c, 0, 83, 82
1, 454058, Note_on_c, 0, 76, 109
1, 454061, Control_c, 0, 64, 75
1, 454062, Note_on_c, 0, 88, 94
1, 454065, Note_on_c, 0, 52, 88
1, 454073, Note_on_c, 0, 81, 54
1, 454073, Note_on_c, 0, 53, 76
1, 454073, Note_off_c, 0, 53, 127
1, 454076, Control_c, 0, 64, 43
1, 454078, Note_on_c, 0, 85, 65
1, 454091, Control_c, 0, 64, 0
1, 454092, Note_off_c, 0, 81, 63
1, 454094, Note_on_c, 0, 45, 40
1, 454098, Note_off_c, 0, 85, 63
1, 454108, Note_off_c, 0, 52, 62
1, 454108, Note_off_c, 0, 88, 58
1, 454119, Note_off_c, 0, 45, 60
1, 454121, Note_off_c, 0, 76, 60
1, 454136, Note_off_c, 0, 83, 57
1, 454276, Note_on_c, 0, 76, 112
1, 454276, Note_on_c, 0, 52, 102
1, 454279, Note_on_c, 0, 88, 114
1, 454280, Note_on_c, 0, 81, 99
1, 454283, Note_on_c, 0, 49, 84
1, 454284, Note_on_c, 0, 85, 83
1, 454286, Note_on_c, 0, 45, 61
1, 454292, Control_c, 0, 64, 67
1, 454295, Note_on_c, 0, 86, 78
1, 454299, Note_off_c, 0, 81, 65
1, 454307, Control_c, 0, 64, 127
1, 454330, Note_off_c, 0, 52, 56
1, 454333, Note_off_c, 0, 45, 58
1, 454342, Note_off_c, 0, 49, 62
1, 454356, Note_off_c, 0, 86, 56
1, 454362, Note_off_c, 0, 76, 54
1, 454373, Note_off_c, 0, 88, 51
1, 454379, Poly_aftertouch_c, 0, 50, 0
1, 454380, Note_off_c, 0, 85, 27
1, 454479, Note_on_c, 0, 50, 82
1, 454480, Note_on_c, 0, 83, 91
1, 454481, Note_on_c, 0, 52, 83
1, 454485, Note_on_c, 0, 76, 85
1, 454485, Note_on_c, 0, 88, 76
1, 454491, Note_on_c, 0, 47, 57
1, 454497, Note_off_c, 0, 52, 72
1, 454497, Note_off_c, 0, 83, 69
1, 454500, Note_off_c, 0, 88, 68
1, 454505, Note_off_c, 0, 76, 72
1, 454506, Note_off_c, 0, 50, 65
1, 454519, Note_off_c, 0, 47, 65
1, 454547, Note_on_c, 0, 49, 82
1, 454548, Note_on_c, 0, 76, 105
1, 454549, Note_on_c, 0, 88, 98
1, 454552, Note_on_c, 0, 85, 93
1, 454553, Note_on_c, 0, 45, 73
1, 454557, Note_on_c, 0, 52, 62
1, 454559, Control_c, 0, 64, 102
1, 454573, Note_off_c, 0, 52, 68
1, 454574, Note_off_c, 0, 49, 67
1, 454574, Control_c, 0, 64, 69
1, 454580, Note_off_c, 0, 45, 66
1, 454589, Control_c, 0, 64, 37
1, 454597, Note_off_c, 0, 88, 64
1, 454604, Control_c, 0, 64, 0
1, 454607, Note_off_c, 0, 76, 56
1, 454617, Note_off_c, 0, 85, 64
1, 454754, Note_on_c, 0, 52, 98
1, 454757, Note_on_c, 0, 47, 88
1, 454758, Note_on_c, 0, 44, 87
1, 454758, Note_on_c, 0, 76, 109
1, 454758, Note_on_c, 0, 80, 98
1, 454758, Note_on_c, 0, 83, 104
1, 454764, Note_on_c, 0, 88, 94
1, 454766, Control_c, 0, 64, 57
1, 454771, Note_on_c, 0, 40, 60
1, 454780, Note_off_c, 0, 52, 64
1, 454781, Control_c, 0, 64, 127
1, 454783, Note_off_c, 0, 47, 70
1, 454798, Note_off_c, 0, 40, 57
1, 454804, Note_off_c, 0, 44, 65
1, 454826, Note_off_c, 0, 88, 61
1, 454829, Note_off_c, 0, 76, 58
1, 454836, Note_off_c, 0, 80, 58
1, 454907, Note_off_c, 0, 83, 54
1, 454972, Note_on_c, 0, 45, 94
1, 454975, Note_on_c, 0, 81, 90
1, 454979, Note_on_c, 0, 76, 90
1, 454979, Note_on_c, 0, 52, 75
1, 454990, Note_on_c, 0, 88, 73
1, 454994, Note_off_c, 0, 76, 75
1, 454994, Note_off_c, 0, 45, 71
1, 454998, Note_off_c, 0, 52, 71
1, 455008, Note_off_c, 0, 88, 66
1, 455010, Note_off_c, 0, 81, 59
1, 455046, Note_on_c, 0, 82, 101
1, 455050, Note_on_c, 0, 52, 82
1, 455052, Note_on_c, 0, 76, 101
1, 455053, Poly_aftertouch_c, 0, 40, 0
1, 455057, Note_on_c, 0, 44, 82
1, 455063, Note_on_c, 0, 88, 77
1, 455067, Note_on_c, 0, 47, 54
1, 455069, Note_off_c, 0, 76, 74
1, 455075, Note_off_c, 0, 52, 69
1, 455080, Note_off_c, 0, 44, 71
1, 455084, Note_on_c, 0, 86, 55
1, 455086, Control_c, 0, 64, 88
1, 455087, Note_off_c, 0, 82, 67
1, 455089, Poly_aftertouch_c, 0, 40, 0
1, 455092, Note_off_c, 0, 47, 61
1, 455101, Control_c, 0, 64, 64
1, 455107, Note_off_c, 0, 86, 58
1, 455110, Note_off_c, 0, 88, 52
1, 455115, Control_c, 0, 64, 0
1, 455263, Note_on_c, 0, 33, 60
1, 455294, Note_on_c, 0, 37, 69
1, 455302, Note_off_c, 0, 33, 64
1, 455307, Note_on_c, 0, 40, 83
1, 455313, Note_on_c, 0, 85, 103
1, 455314, Note_on_c, 0, 45, 98
1, 455314, Note_on_c, 0, 88, 102
1, 455315, Note_on_c, 0, 81, 107
1, 455320, Note_on_c, 0, 93, 98
1, 455322, Control_c, 0, 64, 127
1, 455334, Note_off_c, 0, 93, 77
1, 455344, Note_off_c, 0, 40, 63
1, 455347, Note_off_c, 0, 37, 63
1, 455348, Note_on_c, 0, 91, 47
1, 455349, Note_off_c, 0, 45, 67
1, 455364, Note_off_c, 0, 88, 68
1, 455371, Note_off_c, 0, 85, 66
1, 455372, Note_off_c, 0, 91, 60
1, 455373, Note_off_c, 0, 81, 68
1, 455749, Note_on_c, 0, 69, 85
1, 455768, Note_off_c, 0, 69, 69
1, 455805, Control_c, 0, 64, 109
1, 455811, Note_on_c, 0, 71, 92
1, 455820, Control_c, 0, 64, 70
1, 455835, Control_c, 0, 64, 0
1, 455850, Note_off_c, 0, 71, 59
1, 456023, Note_on_c, 0, 73, 94
1, 456083, Note_off_c, 0, 73, 60
1, 456249, Note_on_c, 0, 69, 73
1, 456286, Note_off_c, 0, 69, 58
1, 456309, Note_on_c, 0, 68, 83
1, 456330, Note_off_c, 0, 68, 70
1, 456523, Note_on_c, 0, 66, 91
1, 456552, Note_off_c, 0, 66, 63
1, 456759, Note_on_c, 0, 62, 59
1, 456810, Note_off_c, 0, 62, 57
1, 456811, Note_on_c, 0, 64, 81
1, 456812, Note_on_c, 0, 71, 102
1, 456830, Note_off_c, 0, 64, 72
1, 457009, Note_on_c, 0, 66, 97
1, 457049, Note_off_c, 0, 66, 60
1, 457213, Control_c, 0, 67, 19
1, 457228, Control_c, 0, 67, 24
1, 457243, Control_c, 0, 67, 29
1, 457258, Note_on_c, 0, 61, 50
1, 457258, Control_c, 0, 67, 38
1, 457273, Control_c, 0, 67, 51
1, 457285, Note_off_c, 0, 61, 61
1, 457287, Control_c, 0, 67, 66
1, 457298, Note_on_c, 0, 69, 73
1, 457301, Note_off_c, 0, 71, 53
1, 457302, Control_c, 0, 67, 83
1, 457312, Note_on_c, 0, 63, 71
1, 457317, Control_c, 0, 67, 104
1, 457320, Note_off_c, 0, 69, 69
1, 457332, Control_c, 0, 67, 121
1, 457338, Note_off_c, 0, 63, 67
1, 457347, Control_c, 0, 67, 127
1, 457466, Control_c, 0, 67, 67
1, 457481, Control_c, 0, 67, 0
1, 457503, Note_on_c, 0, 68, 69
1, 457509, Note_on_c, 0, 66, 58
1, 457515, Note_on_c, 0, 59, 59
1, 457528, Note_off_c, 0, 68, 67
1, 457528, Note_off_c, 0, 66, 63
1, 457546, Note_off_c, 0, 59, 65
1, 457750, Note_on_c, 0, 56, 49
1, 457776, Note_off_c, 0, 56, 57
1, 457790, Note_on_c, 0, 68, 62
1, 457792, Note_on_c, 0, 64, 54
1, 457795, Note_on_c, 0, 61, 68
1, 457811, Note_off_c, 0, 68, 66
1, 457813, Note_off_c, 0, 64, 63
1, 457825, Note_off_c, 0, 61, 64
1, 458003, Note_on_c, 0, 69, 72
1, 458011, Note_on_c, 0, 64, 54
1, 458013, Note_on_c, 0, 60, 38
1, 458036, Note_off_c, 0, 69, 57
1, 458039, Note_off_c, 0, 64, 64
1, 458046, Note_off_c, 0, 60, 53
1, 458245, Note_on_c, 0, 54, 44
1, 458284, Note_off_c, 0, 54, 64
1, 458293, Note_on_c, 0, 47, 65
1, 458300, Note_on_c, 0, 71, 54
1, 458305, Note_on_c, 0, 59, 45
1, 458313, Note_on_c, 0, 63, 41
1, 458315, Note_off_c, 0, 47, 63
1, 458323, Note_off_c, 0, 71, 60
1, 458336, Note_off_c, 0, 59, 55
1, 458342, Note_off_c, 0, 63, 52
1, 458492, Note_on_c, 0, 40, 76
1, 458502, Note_on_c, 0, 64, 65
1, 458504, Note_on_c, 0, 56, 59
1, 458512, Control_c, 0, 64, 70
1, 458521, Note_off_c, 0, 40, 65
1, 458526, Note_off_c, 0, 56, 60
1, 458527, Control_c, 0, 64, 127
1, 458529, Note_off_c, 0, 64, 68
1, 458698, Note_on_c, 0, 68, 88
1, 458723, Note_off_c, 0, 68, 73
1, 458726, Control_c, 0, 64, 70
1, 458727, Note_on_c, 0, 59, 50
1, 458729, Note_on_c, 0, 52, 54
1, 458741, Control_c, 0, 64, 0
1, 458753, Note_off_c, 0, 59, 57
1, 458756, Note_off_c, 0, 52, 56
1, 458771, Note_on_c, 0, 75, 79
1, 458774, Note_on_c, 0, 69, 83
1, 458782, Note_on_c, 0, 59, 60
1, 458783, Note_on_c, 0, 76, 14
1, 458786, Note_on_c, 0, 53, 75
1, 458798, Note_off_c, 0, 76, 54
1, 458800, Note_off_c, 0, 69, 60
1, 458807, Note_off_c, 0, 59, 68
1, 458812, Note_off_c, 0, 53, 67
1, 458824, Note_off_c, 0, 75, 63
1, 458974, Note_on_c, 0, 74, 90
1, 458975, Note_on_c, 0, 54, 74
1, 458977, Note_on_c, 0, 69, 82
1, 458978, Note_on_c, 0, 60, 68
1, 458995, Note_off_c, 0, 69, 72
1, 459000, Note_off_c, 0, 54, 67
1, 459004, Note_off_c, 0, 60, 69
1, 459005, Note_off_c, 0, 74, 61
1, 459193, Note_on_c, 0, 59, 47
1, 459196, Note_on_c, 0, 74, 58
1, 459199, Note_on_c, 0, 65, 59
1, 459203, Note_on_c, 0, 55, 48
1, 459216, Note_off_c, 0, 74, 61
1, 459218, Note_off_c, 0, 59, 62
1, 459221, Note_off_c, 0, 65, 61
1, 459238, Note_off_c, 0, 55, 64
1, 459251, Note_on_c, 0, 71, 81
1, 459253, Note_on_c, 0, 64, 75
1, 459254, Note_on_c, 0, 62, 74
1, 459263, Note_on_c, 0, 56, 69
1, 459277, Note_off_c, 0, 64, 67
1, 459278, Note_off_c, 0, 62, 69
1, 459278, Note_off_c, 0, 71, 60
1, 459295, Note_off_c, 0, 56, 59
1, 459442, Note_on_c, 0, 61, 77
1, 459447, Note_on_c, 0, 64, 80
1, 459447, Note_on_c, 0, 69, 84
1, 459460, Note_on_c, 0, 57, 65
1, 459474, Note_off_c, 0, 61, 67
1, 459475, Note_off_c, 0, 64, 71
1, 459475, Control_c, 0, 64, 59
1, 459487, Note_off_c, 0, 57, 66
1, 459487, Note_off_c, 0, 69, 62
1, 459490, Control_c, 0, 64, 86
1, 459504, Control_c, 0, 64, 127
1, 459650, Note_on_c, 0, 69, 85
1, 459662, Note_on_c, 0, 81, 68
1, 459665, Note_off_c, 0, 69, 75
1, 459678, Note_off_c, 0, 81, 65
1, 459682, Control_c, 0, 64, 95
1, 459697, Control_c, 0, 64, 66
1, 459712, Control_c, 0, 64, 0
1, 459724, Note_on_c, 0, 71, 92
1, 459725, Note_on_c, 0, 83, 87
1, 459742, Note_off_c, 0, 71, 71
1, 459752, Note_off_c, 0, 83, 62
1, 459842, Note_on_c, 0, 45, 57
1, 459883, Note_off_c, 0, 45, 64
1, 459890, Note_on_c, 0, 52, 67
1, 459920, Control_c, 0, 64, 64
1, 459927, Note_on_c, 0, 73, 108
1, 459929, Note_on_c, 0, 85, 101
1, 459935, Control_c, 0, 64, 127
1, 459938, Note_on_c, 0, 61, 100
1, 459947, Note_off_c, 0, 52, 62
1, 459958, Note_off_c, 0, 61, 70
1, 459961, Note_off_c, 0, 85, 70
1, 459970, Note_on_c, 0, 82, 17
1, 459970, Note_off_c, 0, 82, 127
1, 459971, Note_off_c, 0, 73, 61
1, 460125, Note_on_c, 0, 69, 83
1, 460131, Note_on_c, 0, 81, 70
1, 460144, Note_off_c, 0, 69, 73
1, 460148, Note_off_c, 0, 81, 66
1, 460187, Control_c, 0, 64, 91
1, 460204, Note_on_c, 0, 80, 91
1, 460208, Note_on_c, 0, 68, 92
1, 460210, Control_c, 0, 64, 65
1, 460225, Control_c, 0, 64, 0
1, 460242, Note_off_c, 0, 68, 60
1, 460247, Note_off_c, 0, 80, 64
1, 460343, Control_c, 0, 64, 35
1, 460357, Control_c, 0, 64, 64
1, 460372, Control_c, 0, 64, 82
1, 460387, Control_c, 0, 64, 127
1, 460416, Note_on_c, 0, 66, 91
1, 460419, Note_on_c, 0, 78, 93
1, 460437, Note_off_c, 0, 66, 65
1, 460456, Note_off_c, 0, 78, 60
1, 460611, Note_on_c, 0, 50, 76
1, 460614, Note_on_c, 0, 62, 75
1, 460632, Note_off_c, 0, 62, 67
1, 460636, Note_off_c, 0, 50, 65
1, 460670, Control_c, 0, 64, 106
1, 460673, Note_on_c, 0, 71, 101
1, 460675, Note_on_c, 0, 83, 104
1, 460682, Poly_aftertouch_c, 0, 56, 0
1, 460684, Note_on_c, 0, 64, 98
1, 460685, Control_c, 0, 64, 73
1, 460697, Note_on_c, 0, 52, 67
1, 460700, Control_c, 0, 64, 47
1, 460703, Note_on_c, 0, 62, 45
1, 460703, Note_off_c, 0, 62, 127
1, 460713, Note_off_c, 0, 64, 63
1, 460715, Control_c, 0, 64, 0
1, 460717, Note_off_c, 0, 52, 64
1, 460719, Poly_aftertouch_c, 0, 56, 127
1, 460768, Poly_aftertouch_c, 0, 56, 0
1, 460786, Poly_aftertouch_c, 0, 59, 127
1, 460842, Poly_aftertouch_c, 0, 59, 0
1, 460890, Note_on_c, 0, 66, 109
1, 460892, Control_c, 0, 64, 65
1, 460906, Note_on_c, 0, 54, 76
1, 460907, Control_c, 0, 64, 93
1, 460921, Control_c, 0, 64, 127
1, 460923, Note_off_c, 0, 66, 62
1, 460932, Note_off_c, 0, 83, 61
1, 460934, Note_off_c, 0, 54, 65
1, 460990, Note_off_c, 0, 71, 56
1, 461116, Note_on_c, 0, 61, 63
1, 461126, Note_on_c, 0, 49, 52
1, 461147, Note_off_c, 0, 61, 63
1, 461153, Note_off_c, 0, 49, 62
1, 461204, Note_on_c, 0, 62, 77
1, 461207, Note_on_c, 0, 69, 84
1, 461210, Note_on_c, 0, 81, 86
1, 461222, Note_on_c, 0, 50, 52
1, 461225, Control_c, 0, 64, 96
1, 461227, Note_off_c, 0, 62, 69
1, 461230, Note_off_c, 0, 69, 64
1, 461234, Note_off_c, 0, 81, 61
1, 461240, Control_c, 0, 64, 67
1, 461248, Note_off_c, 0, 50, 55
1, 461254, Control_c, 0, 64, 38
1, 461269, Control_c, 0, 64, 0
1, 461429, Note_on_c, 0, 59, 61
1, 461440, Note_on_c, 0, 52, 50
1, 461448, Note_on_c, 0, 69, 70
1, 461448, Control_c, 0, 64, 76
1, 461449, Note_on_c, 0, 81, 73
1, 461451, Note_off_c, 0, 59, 65
1, 461452, Note_on_c, 0, 74, 65
1, 461463, Control_c, 0, 64, 127
1, 461465, Note_off_c, 0, 81, 67
1, 461468, Note_off_c, 0, 52, 54
1, 461469, Note_off_c, 0, 69, 66
1, 461484, Note_off_c, 0, 74, 61
1, 461636, Note_on_c, 0, 80, 71
1, 461639, Note_on_c, 0, 40, 58
1, 461639, Note_on_c, 0, 68, 72
1, 461646, Note_on_c, 0, 52, 61
1, 461650, Note_on_c, 0, 74, 57
1, 461652, Note_off_c, 0, 80, 67
1, 461656, Note_off_c, 0, 68, 67
1, 461658, Note_on_c, 0, 47, 42
1, 461666, Note_off_c, 0, 40, 57
1, 461669, Note_off_c, 0, 74, 64
1, 461674, Note_off_c, 0, 52, 55
1, 461679, Note_off_c, 0, 47, 0
1, 461684, Control_c, 0, 64, 85
1, 461706, Note_on_c, 0, 47, 50
1, 461707, Control_c, 0, 64, 59
1, 461711, Note_on_c, 0, 54, 87
1, 461717, Note_on_c, 0, 66, 85
1, 461722, Control_c, 0, 64, 0
1, 461733, Note_on_c, 0, 78, 51
1, 461733, Note_off_c, 0, 78, 127
1, 461734, Note_on_c, 0, 73, 53
1, 461743, Note_off_c, 0, 47, 65
1, 461755, Note_off_c, 0, 73, 59
1, 461757, Note_off_c, 0, 54, 49
1, 461767, Note_on_c, 0, 65, 42
1, 461776, Note_off_c, 0, 66, 61
1, 461794, Note_off_c, 0, 65, 53
1, 461901, Note_on_c, 0, 56, 95
1, 461907, Note_on_c, 0, 64, 97
1, 461910, Note_on_c, 0, 47, 62
1, 461913, Note_on_c, 0, 76, 87
1, 461914, Note_on_c, 0, 74, 81
1, 461919, Note_off_c, 0, 56, 70
1, 461928, Control_c, 0, 64, 52
1, 461933, Note_off_c, 0, 64, 63
1, 461936, Note_on_c, 0, 44, 37
1, 461939, Note_off_c, 0, 47, 66
1, 461943, Control_c, 0, 64, 127
1, 461945, Note_off_c, 0, 74, 64
1, 461951, Note_off_c, 0, 76, 60
1, 461973, Note_off_c, 0, 44, 56
1, 462038, Note_on_c, 0, 47, 36
1, 462086, Note_on_c, 0, 51, 73
1, 462091, Note_off_c, 0, 47, 0
1, 462091, Note_on_c, 0, 47, 30
1, 462093, Note_on_c, 0, 66, 78
1, 462098, Note_on_c, 0, 78, 75
1, 462104, Note_on_c, 0, 39, 44
1, 462110, Note_off_c, 0, 66, 67
1, 462114, Note_off_c, 0, 51, 65
1, 462119, Note_off_c, 0, 78, 71
1, 462124, Note_off_c, 0, 47, 60
1, 462140, Note_off_c, 0, 39, 47
1, 462151, Control_c, 0, 64, 105
1, 462158, Note_on_c, 0, 52, 88
1, 462166, Control_c, 0, 64, 68
1, 462170, Note_on_c, 0, 68, 86
1, 462174, Note_on_c, 0, 40, 66
1, 462177, Note_on_c, 0, 80, 80
1, 462181, Control_c, 0, 64, 0
1, 462189, Note_off_c, 0, 52, 63
1, 462195, Note_on_c, 0, 78, 61
1, 462197, Note_on_c, 0, 50, 38
1, 462197, Note_off_c, 0, 50, 127
1, 462197, Note_off_c, 0, 40, 62
1, 462199, Note_on_c, 0, 67, 55
1, 462205, Note_off_c, 0, 68, 57
1, 462214, Note_off_c, 0, 80, 59
1, 462223, Note_off_c, 0, 67, 61
1, 462231, Note_off_c, 0, 78, 56
1, 462307, Poly_aftertouch_c, 0, 75, 0
1, 462360, Note_on_c, 0, 40, 35
1, 462361, Note_on_c, 0, 49, 84
1, 462363, Note_on_c, 0, 37, 57
1, 462363, Note_on_c, 0, 69, 88
1, 462365, Note_on_c, 0, 76, 84
1, 462367, Note_on_c, 0, 81, 86
1, 462372, Note_on_c, 0, 73, 69
1, 462373, Control_c, 0, 64, 73
1, 462376, Note_on_c, 0, 45, 49
1, 462387, Note_off_c, 0, 69, 56
1, 462388, Control_c, 0, 64, 127
1, 462390, Note_off_c, 0, 40, 53
1, 462395, Note_off_c, 0, 73, 69
1, 462396, Note_off_c, 0, 76, 56
1, 462397, Note_off_c, 0, 37, 51
1, 462404, Note_off_c, 0, 49, 59
1, 462407, Note_off_c, 0, 45, 52
1, 462415, Note_off_c, 0, 81, 63
1, 462536, Note_on_c, 0, 61, 99
1, 462539, Note_on_c, 0, 73, 103
1, 462541, Note_on_c, 0, 85, 101
1, 462548, Note_on_c, 0, 52, 70
1, 462566, Note_off_c, 0, 52, 65
1, 462566, Note_off_c, 0, 73, 60
1, 462573, Control_c, 0, 64, 124
1, 462575, Note_off_c, 0, 61, 46
1, 462586, Note_off_c, 0, 85, 62
1, 462588, Control_c, 0, 64, 76
1, 462603, Control_c, 0, 64, 53
1, 462618, Control_c, 0, 64, 0
1, 462736, Note_on_c, 0, 64, 91
1, 462736, Control_c, 0, 64, 40
1, 462742, Note_on_c, 0, 82, 69
1, 462742, Note_on_c, 0, 76, 108
1, 462743, Note_on_c, 0, 88, 102
1, 462745, Note_on_c, 0, 57, 75
1, 462746, Note_on_c, 0, 61, 84
1, 462746, Note_on_c, 0, 81, 100
1, 462751, Note_on_c, 0, 85, 79
1, 462751, Control_c, 0, 64, 97
1, 462756, Note_on_c, 0, 77, 72
1, 462758, Note_off_c, 0, 64, 64
1, 462759, Note_off_c, 0, 82, 64
1, 462766, Control_c, 0, 64, 127
1, 462769, Note_off_c, 0, 57, 70
1, 462772, Note_on_c, 0, 86, 63
1, 462774, Note_off_c, 0, 77, 43
1, 462776, Note_off_c, 0, 61, 61
1, 462789, Note_off_c, 0, 85, 0
1, 462789, Note_on_c, 0, 85, 41
1, 462812, Note_off_c, 0, 76, 59
1, 462814, Note_off_c, 0, 88, 63
1, 462822, Note_off_c, 0, 81, 61
1, 462858, Note_off_c, 0, 86, 55
1, 462888, Note_off_c, 0, 85, 41
1, 462963, Note_on_c, 0, 44, 62
1, 463007, Note_off_c, 0, 44, 65
1, 463028, Note_on_c, 0, 52, 51
1, 463069, Note_off_c, 0, 52, 57
1, 463079, Control_c, 0, 64, 87
1, 463080, Note_on_c, 0, 59, 70
1, 463087, Note_on_c, 0, 88, 87
1, 463089, Note_on_c, 0, 76, 83
1, 463092, Note_on_c, 0, 83, 74
1, 463093, Control_c, 0, 64, 63
1, 463105, Note_off_c, 0, 59, 68
1, 463108, Control_c, 0, 64, 0
1, 463115, Note_off_c, 0, 76, 60
1, 463144, Note_off_c, 0, 88, 63
1, 463155, Note_off_c, 0, 83, 49
1, 463171, Note_on_c, 0, 45, 64
1, 463207, Note_off_c, 0, 45, 65
1, 463231, Note_on_c, 0, 52, 57
1, 463271, Note_on_c, 0, 60, 70
1, 463272, Note_on_c, 0, 76, 97
1, 463277, Note_on_c, 0, 84, 85
1, 463278, Note_on_c, 0, 88, 85
1, 463296, Note_off_c, 0, 60, 70
1, 463299, Note_off_c, 0, 76, 63
1, 463307, Note_off_c, 0, 52, 34
1, 463311, Note_off_c, 0, 84, 58
1, 463331, Note_off_c, 0, 88, 57
1, 463360, Note_on_c, 0, 45, 65
1, 463386, Note_off_c, 0, 45, 65
1, 463394, Note_on_c, 0, 52, 61
1, 463433, Note_off_c, 0, 52, 64
1, 463456, Control_c, 0, 64, 46
1, 463458, Note_on_c, 0, 62, 82
1, 463469, Note_on_c, 0, 76, 97
1, 463470, Note_on_c, 0, 88, 92
1, 463471, Note_on_c, 0, 86, 89
1, 463471, Control_c, 0, 64, 96
1, 463486, Control_c, 0, 64, 127
1, 463499, Note_off_c, 0, 62, 63
1, 463517, Note_off_c, 0, 76, 60
1, 463522, Note_off_c, 0, 88, 64
1, 463541, Note_off_c, 0, 86, 59
1, 463643, Note_on_c, 0, 61, 71
1, 463657, Note_on_c, 0, 76, 90
1, 463663, Note_on_c, 0, 88, 74
1, 463666, Note_on_c, 0, 52, 44
1, 463668, Note_on_c, 0, 85, 60
1, 463668, Note_off_c, 0, 61, 68
1, 463676, Note_off_c, 0, 76, 71
1, 463680, Note_off_c, 0, 88, 41
1, 463688, Note_off_c, 0, 85, 65
1, 463718, Note_on_c, 0, 59, 78
1, 463722, Control_c, 0, 64, 96
1, 463729, Note_on_c, 0, 88, 86
1, 463731, Note_on_c, 0, 76, 83
1, 463736, Note_on_c, 0, 83, 76
1, 463737, Control_c, 0, 64, 62
1, 463743, Note_off_c, 0, 59, 66
1, 463752, Control_c, 0, 64, 0
1, 463755, Note_off_c, 0, 88, 49
1, 463758, Note_off_c, 0, 52, 27
1, 463769, Note_off_c, 0, 83, 58
1, 463778, Note_off_c, 0, 76, 57
1, 463862, Note_on_c, 0, 40, 59
1, 463892, Note_off_c, 0, 40, 61
1, 463907, Poly_aftertouch_c, 0, 42, 127
1, 463931, Note_on_c, 0, 48, 59
1, 463931, Control_c, 0, 64, 59
1, 463952, Note_on_c, 0, 76, 109
1, 463952, Note_on_c, 0, 81, 100
1, 463952, Control_c, 0, 64, 127
1, 463956, Note_on_c, 0, 88, 104
1, 463961, Poly_aftertouch_c, 0, 42, 0
1, 463962, Note_off_c, 0, 48, 58
1, 463970, Note_on_c, 0, 55, 58
1, 463988, Note_on_c, 0, 57, 47
1, 463991, Note_off_c, 0, 55, 65
1, 463993, Note_on_c, 0, 85, 34
1, 463997, Note_off_c, 0, 88, 65
1, 464007, Note_off_c, 0, 76, 52
1, 464011, Note_off_c, 0, 57, 60
1, 464028, Note_off_c, 0, 85, 31
1, 464101, Note_off_c, 0, 81, 29
1, 464155, Note_on_c, 0, 61, 89
1, 464167, Note_on_c, 0, 52, 65
1, 464171, Note_on_c, 0, 56, 62
1, 464173, Note_on_c, 0, 76, 96
1, 464174, Note_off_c, 0, 61, 71
1, 464181, Note_on_c, 0, 85, 71
1, 464186, Note_on_c, 0, 88, 69
1, 464186, Note_off_c, 0, 88, 127
1, 464188, Note_off_c, 0, 76, 76
1, 464196, Note_off_c, 0, 56, 63
1, 464196, Note_off_c, 0, 85, 70
1, 464214, Note_off_c, 0, 52, 0
1, 464219, Control_c, 0, 64, 110
1, 464231, Note_on_c, 0, 59, 93
1, 464234, Control_c, 0, 64, 68
1, 464238, Note_on_c, 0, 56, 81
1, 464238, Note_on_c, 0, 52, 34
1, 464238, Note_on_c, 0, 76, 105
1, 464246, Note_on_c, 0, 83, 86
1, 464247, Note_on_c, 0, 50, 71
1, 464248, Poly_aftertouch_c, 0, 82, 0
1, 464249, Note_on_c, 0, 88, 88
1, 464249, Control_c, 0, 64, 0
1, 464250, Note_off_c, 0, 59, 70
1, 464261, Note_off_c, 0, 56, 67
1, 464272, Note_off_c, 0, 50, 65
1, 464277, Note_on_c, 0, 85, 44
1, 464277, Note_off_c, 0, 52, 61
1, 464301, Note_off_c, 0, 88, 62
1, 464304, Note_off_c, 0, 85, 56
1, 464321, Note_off_c, 0, 76, 53
1, 464378, Note_off_c, 0, 83, 39
1, 464397, Poly_aftertouch_c, 0, 82, 0
1, 464430, Note_on_c, 0, 57, 97
1, 464435, Note_on_c, 0, 52, 78
1, 464437, Note_on_c, 0, 49, 81
1, 464438, Note_on_c, 0, 76, 104
1, 464438, Note_on_c, 0, 81, 94
1, 464441, Control_c, 0, 64, 66
1, 464442, Note_on_c, 0, 88, 102
1, 464448, Note_off_c, 0, 57, 73
1, 464450, Note_on_c, 0, 45, 71
1, 464456, Control_c, 0, 64, 127
1, 464458, Note_off_c, 0, 52, 68
1, 464473, Note_off_c, 0, 49, 63
1, 464475, Note_off_c, 0, 45, 66
1, 464578, Poly_aftertouch_c, 0, 86, 127
1, 464667, Note_on_c, 0, 45, 90
1, 464678, Note_on_c, 0, 33, 67
1, 464696, Note_off_c, 0, 45, 66
1, 464711, Note_off_c, 0, 33, 62
1, 464748, Note_on_c, 0, 47, 98
1, 464755, Poly_aftertouch_c, 0, 39, 0
1, 464769, Note_on_c, 0, 35, 64
1, 464771, Note_on_c, 0, 36, 61
1, 464778, Poly_aftertouch_c, 0, 37, 0
1, 464792, Poly_aftertouch_c, 0, 39, 0
1, 464796, Note_off_c, 0, 35, 57
1, 464798, Note_off_c, 0, 36, 59
1, 464816, Note_off_c, 0, 47, 59
1, 464816, Poly_aftertouch_c, 0, 37, 127
1, 464838, Poly_aftertouch_c, 0, 37, 0
1, 464852, Note_on_c, 0, 43, 34
1, 464879, Control_c, 0, 64, 85
1, 464894, Control_c, 0, 64, 62
1, 464901, Note_off_c, 0, 76, 54
1, 464905, Note_off_c, 0, 88, 54
1, 464909, Control_c, 0, 64, 0
1, 464938, Poly_aftertouch_c, 0, 86, 0
1, 464961, Note_off_c, 0, 43, 0
1, 464965, Note_off_c, 0, 81, 51
1, 464968, Note_on_c, 0, 49, 105
1, 464980, Note_on_c, 0, 37, 79
1, 464983, Control_c, 0, 64, 64
1, 464986, Poly_aftertouch_c, 0, 43, 0
1, 464998, Control_c, 0, 64, 127
1, 465007, Note_off_c, 0, 49, 68
1, 465015, Note_off_c, 0, 37, 64
1, 465058, Poly_aftertouch_c, 0, 39, 0
1, 465097, Poly_aftertouch_c, 0, 39, 0
1, 465203, Note_on_c, 0, 45, 78
1, 465212, Note_on_c, 0, 33, 67
1, 465228, Note_off_c, 0, 45, 66
1, 465244, Note_off_c, 0, 33, 62
1, 465305, Note_on_c, 0, 41, 69
1, 465314, Note_on_c, 0, 29, 62
1, 465332, Note_off_c, 0, 41, 63
1, 465332, Note_on_c, 0, 40, 42
1, 465348, Note_off_c, 0, 29, 63
1, 465353, Control_c, 0, 64, 86
1, 465367, Note_off_c, 0, 40, 52
1, 465368, Control_c, 0, 64, 63
1, 465383, Control_c, 0, 64, 0
1, 465710, Note_on_c, 0, 40, 47
1, 465711, Note_on_c, 0, 71, 67
1, 465717, Note_on_c, 0, 83, 52
1, 465717, Control_c, 0, 64, 59
1, 465720, Note_on_c, 0, 80, 58
1, 465729, Note_off_c, 0, 71, 66
1, 465732, Control_c, 0, 64, 127
1, 465738, Note_off_c, 0, 83, 60
1, 465740, Note_off_c, 0, 40, 53
1, 465743, Note_off_c, 0, 80, 64
1, 465768, Poly_aftertouch_c, 0, 28, 0
1, 465994, Note_on_c, 0, 59, 43
1, 466015, Note_on_c, 0, 64, 31
1, 466024, Note_on_c, 0, 66, 54
1, 466026, Note_on_c, 0, 68, 39
1, 466033, Note_on_c, 0, 56, 17
1, 466048, Note_off_c, 0, 64, 45
1, 466052, Note_off_c, 0, 68, 60
1, 466055, Note_off_c, 0, 66, 64
1, 466058, Control_c, 0, 64, 116
1, 466061, Note_off_c, 0, 59, 41
1, 466067, Note_on_c, 0, 71, 69
1, 466073, Control_c, 0, 64, 73
1, 466086, Note_on_c, 0, 69, 40
1, 466087, Note_on_c, 0, 52, 57
1, 466088, Control_c, 0, 64, 34
1, 466102, Control_c, 0, 64, 0
1, 466114, Note_off_c, 0, 56, 49
1, 466119, Note_off_c, 0, 52, 64
1, 466121, Note_on_c, 0, 68, 74
1, 466123, Note_off_c, 0, 69, 63
1, 466132, Note_off_c, 0, 71, 63
1, 466144, Note_off_c, 0, 68, 66
1, 466358, Note_on_c, 0, 52, 50
1, 466361, Note_on_c, 0, 40, 5
1, 466361, Note_on_c, 0, 76, 68
1, 466366, Note_on_c, 0, 88, 53
1, 466368, Note_on_c, 0, 85, 63
1, 466370, Note_on_c, 0, 45, 23
1, 466378, Control_c, 0, 64, 61
1, 466378, Note_off_c, 0, 76, 66
1, 466383, Note_off_c, 0, 52, 56
1, 466386, Note_off_c, 0, 85, 67
1, 466389, Note_off_c, 0, 88, 37
1, 466392, Control_c, 0, 64, 127
1, 466413, Note_off_c, 0, 45, 54
1, 466414, Note_off_c, 0, 40, 26
1, 466629, Note_on_c, 0, 69, 60
1, 466644, Note_on_c, 0, 73, 58
1, 466645, Note_on_c, 0, 64, 27
1, 466652, Note_on_c, 0, 61, 42
1, 466653, Note_on_c, 0, 71, 54
1, 466659, Note_off_c, 0, 69, 64
1, 466685, Note_off_c, 0, 71, 65
1, 466689, Note_off_c, 0, 73, 61
1, 466694, Note_on_c, 0, 75, 64
1, 466698, Note_on_c, 0, 76, 76
1, 466718, Control_c, 0, 64, 115
1, 466724, Note_off_c, 0, 64, 37
1, 466728, Note_on_c, 0, 57, 46
1, 466733, Control_c, 0, 64, 73
1, 466734, Note_off_c, 0, 61, 60
1, 466743, Note_on_c, 0, 73, 61
1, 466748, Control_c, 0, 64, 41
1, 466754, Note_off_c, 0, 76, 63
1, 466757, Note_off_c, 0, 57, 52
1, 466757, Note_off_c, 0, 75, 65
1, 466760, Note_on_c, 0, 69, 28
1, 466763, Control_c, 0, 64, 0
1, 466771, Note_off_c, 0, 73, 66
1, 466798, Note_off_c, 0, 69, 30
1, 466963, Control_c, 0, 64, 53
1, 466966, Note_on_c, 0, 71, 66
1, 466967, Note_on_c, 0, 83, 62
1, 466969, Note_on_c, 0, 47, 45
1, 466969, Note_on_c, 0, 80, 68
1, 466971, Note_on_c, 0, 52, 49
1, 466978, Control_c, 0, 64, 83
1, 466984, Note_off_c, 0, 71, 66
1, 466987, Note_off_c, 0, 83, 63
1, 466990, Note_off_c, 0, 80, 67
1, 466992, Control_c, 0, 64, 127
1, 466998, Note_off_c, 0, 47, 53
1, 467001, Note_off_c, 0, 52, 52
1, 467022, Control_c, 0, 67, 24
1, 467031, Poly_aftertouch_c, 0, 40, 0
1, 467037, Control_c, 0, 67, 36
1, 467052, Control_c, 0, 67, 59
1, 467067, Control_c, 0, 67, 91
1, 467082, Control_c, 0, 67, 123
1, 467097, Control_c, 0, 67, 127
1, 467183, Note_on_c, 0, 68, 62
1, 467186, Control_c, 0, 64, 94
1, 467195, Note_on_c, 0, 64, 38
1, 467200, Note_on_c, 0, 56, 44
1, 467201, Control_c, 0, 64, 64
1, 467204, Note_on_c, 0, 59, 29
1, 467206, Note_off_c, 0, 68, 59
1, 467215, Control_c, 0, 64, 0
1, 467222, Note_off_c, 0, 64, 47
1, 467228, Note_off_c, 0, 56, 55
1, 467230, Control_c, 0, 67, 109
1, 467233, Note_on_c, 0, 70, 67
1, 467245, Control_c, 0, 67, 34
1, 467260, Note_on_c, 0, 71, 74
1, 467260, Control_c, 0, 67, 0
1, 467270, Note_off_c, 0, 59, 36
1, 467285, Note_off_c, 0, 70, 65
1, 467287, Note_on_c, 0, 68, 72
1, 467294, Note_on_c, 0, 52, 35
1, 467309, Note_off_c, 0, 68, 70
1, 467309, Note_off_c, 0, 71, 63
1, 467323, Note_on_c, 0, 56, 14
1, 467335, Note_off_c, 0, 52, 42
1, 467381, Note_off_c, 0, 56, 25
1, 467461, Note_on_c, 0, 80, 68
1, 467467, Note_on_c, 0, 76, 57
1, 467469, Note_on_c, 0, 71, 53
1, 467481, Note_on_c, 0, 68, 28
1, 467489, Note_off_c, 0, 76, 63
1, 467494, Note_off_c, 0, 71, 58
1, 467501, Note_on_c, 0, 78, 71
1, 467501, Note_off_c, 0, 80, 61
1, 467514, Note_off_c, 0, 68, 51
1, 467529, Note_on_c, 0, 81, 44
1, 467538, Note_off_c, 0, 78, 55
1, 467547, Note_on_c, 0, 83, 68
1, 467571, Note_on_c, 0, 80, 69
1, 467579, Note_on_c, 0, 76, 49
1, 467580, Note_off_c, 0, 83, 63
1, 467585, Note_on_c, 0, 71, 58
1, 467586, Note_on_c, 0, 64, 44
1, 467586, Note_off_c, 0, 81, 47
1, 467593, Note_off_c, 0, 80, 66
1, 467606, Note_off_c, 0, 76, 54
1, 467608, Note_off_c, 0, 64, 55
1, 467614, Note_off_c, 0, 71, 65
1, 467754, Note_on_c, 0, 92, 58
1, 467772, Note_on_c, 0, 83, 53
1, 467775, Note_off_c, 0, 92, 66
1, 467779, Note_on_c, 0, 76, 24
1, 467780, Note_on_c, 0, 93, 69
1, 467793, Note_off_c, 0, 83, 61
1, 467818, Note_off_c, 0, 76, 39
1, 467841, Note_off_c, 0, 93, 62
1, 467847, Note_on_c, 0, 94, 72
1, 467860, Note_on_c, 0, 91, 52
1, 467888, Note_off_c, 0, 91, 50
1, 467890, Control_c, 0, 67, 21
1, 467905, Control_c, 0, 67, 29
1, 467906, Note_on_c, 0, 95, 65
1, 467909, Note_off_c, 0, 94, 64
1, 467911, Note_on_c, 0, 83, 44
1, 467912, Note_on_c, 0, 75, 60
1, 467912, Note_on_c, 0, 90, 70
1, 467920, Control_c, 0, 67, 37
1, 467934, Control_c, 0, 64, 65
1, 467934, Control_c, 0, 67, 43
1, 467935, Note_off_c, 0, 75, 66
1, 467935, Note_off_c, 0, 90, 69
1, 467937, Note_off_c, 0, 83, 52
1, 467941, Note_off_c, 0, 95, 63
1, 467949, Control_c, 0, 64, 82
1, 467949, Control_c, 0, 67, 45
1, 467964, Control_c, 0, 64, 127
1, 467979, Control_c, 0, 67, 44
1, 467994, Control_c, 0, 67, 43
1, 468009, Control_c, 0, 67, 41
1, 468039, Control_c, 0, 67, 41
1, 468071, Note_on_c, 0, 71, 64
1, 468104, Note_off_c, 0, 71, 66
1, 468129, Note_on_c, 0, 72, 53
1, 468142, Control_c, 0, 67, 41
1, 468146, Note_on_c, 0, 83, 77
1, 468149, Note_on_c, 0, 95, 71
1, 468152, Note_off_c, 0, 72, 63
1, 468157, Control_c, 0, 67, 43
1, 468160, Note_off_c, 0, 83, 70
1, 468164, Note_off_c, 0, 95, 66
1, 468171, Control_c, 0, 67, 45
1, 468174, Note_on_c, 0, 73, 77
1, 468186, Control_c, 0, 64, 90
1, 468186, Control_c, 0, 67, 48
1, 468201, Control_c, 0, 64, 64
1, 468201, Control_c, 0, 67, 57
1, 468212, Note_on_c, 0, 83, 90
1, 468215, Note_on_c, 0, 95, 93
1, 468216, Control_c, 0, 64, 0
1, 468216, Control_c, 0, 67, 79
1, 468217, Note_on_c, 0, 88, 59
1, 468218, Note_off_c, 0, 73, 58
1, 468221, Note_on_c, 0, 72, 74
1, 468231, Control_c, 0, 67, 106
1, 468237, Note_off_c, 0, 72, 69
1, 468245, Control_c, 0, 67, 127
1, 468252, Note_off_c, 0, 88, 63
1, 468252, Note_off_c, 0, 95, 58
1, 468257, Note_off_c, 0, 83, 60
1, 468376, Note_on_c, 0, 61, 52
1, 468396, Note_on_c, 0, 94, 83
1, 468403, Note_on_c, 0, 83, 56
1, 468408, Note_on_c, 0, 88, 49
1, 468417, Note_off_c, 0, 61, 63
1, 468427, Note_off_c, 0, 83, 56
1, 468450, Note_off_c, 0, 88, 52
1, 468450, Note_off_c, 0, 94, 62
1, 468457, Note_on_c, 0, 62, 46
1, 468492, Note_off_c, 0, 62, 64
1, 468509, Note_on_c, 0, 63, 67
1, 468543, Note_off_c, 0, 63, 65
1, 468563, Note_on_c, 0, 62, 44
1, 468572, Note_on_c, 0, 95, 73
1, 468577, Note_on_c, 0, 83, 62
1, 468579, Note_on_c, 0, 88, 55
1, 468593, Note_off_c, 0, 62, 52
1, 468595, Note_off_c, 0, 95, 69
1, 468601, Note_off_c, 0, 88, 60
1, 468602, Note_off_c, 0, 83, 53
1, 468735, Note_on_c, 0, 49, 37
1, 468769, Note_off_c, 0, 49, 57
1, 468772, Note_on_c, 0, 93, 68
1, 468780, Note_on_c, 0, 87, 49
1, 468784, Note_on_c, 0, 83, 39
1, 468794, Note_off_c, 0, 93, 67
1, 468796, Note_on_c, 0, 50, 53
1, 468802, Note_off_c, 0, 87, 59
1, 468809, Note_off_c, 0, 83, 51
1, 468841, Note_off_c, 0, 50, 62
1, 468877, Note_on_c, 0, 51, 41
1, 468925, Note_off_c, 0, 51, 61
1, 468944, Note_on_c, 0, 52, 64
1, 468944, Note_on_c, 0, 92, 78
1, 468949, Note_on_c, 0, 83, 70
1, 468950, Control_c, 0, 67, 61
1, 468958, Note_on_c, 0, 88, 47
1, 468960, Note_off_c, 0, 92, 71
1, 468965, Note_off_c, 0, 83, 68
1, 468965, Control_c, 0, 67, 0
1, 468976, Note_off_c, 0, 52, 64
1, 468980, Control_c, 0, 64, 76
1, 468984, Note_off_c, 0, 88, 56
1, 468994, Control_c, 0, 64, 127
1, 469166, Note_on_c, 0, 64, 47
1, 469207, Note_on_c, 0, 68, 73
1, 469208, Note_off_c, 0, 64, 59
1, 469225, Note_on_c, 0, 66, 69
1, 469234, Note_off_c, 0, 68, 66
1, 469254, Note_on_c, 0, 69, 54
1, 469267, Note_off_c, 0, 66, 59
1, 469291, Note_on_c, 0, 71, 72
1, 469291, Note_off_c, 0, 69, 0
1, 469310, Note_on_c, 0, 68, 52
1, 469310, Note_on_c, 0, 70, 36
1, 469322, Note_on_c, 0, 66, 74
1, 469327, Poly_aftertouch_c, 0, 69, 127
1, 469329, Note_off_c, 0, 68, 65
1, 469344, Note_off_c, 0, 70, 48
1, 469344, Note_off_c, 0, 71, 66
1, 469349, Note_off_c, 0, 66, 66
1, 469365, Poly_aftertouch_c, 0, 69, 0
1, 469377, Note_on_c, 0, 64, 77
1, 469390, Note_on_c, 0, 68, 67
1, 469411, Note_off_c, 0, 68, 64
1, 469421, Note_on_c, 0, 69, 85
1, 469443, Note_off_c, 0, 64, 61
1, 469446, Note_on_c, 0, 63, 84
1, 469477, Note_on_c, 0, 71, 84
1, 469479, Note_on_c, 0, 61, 80
1, 469491, Control_c, 0, 64, 82
1, 469495, Note_off_c, 0, 63, 64
1, 469502, Note_off_c, 0, 69, 63
1, 469505, Note_on_c, 0, 73, 80
1, 469506, Control_c, 0, 64, 48
1, 469512, Note_off_c, 0, 61, 61
1, 469521, Control_c, 0, 64, 0
1, 469529, Note_on_c, 0, 75, 74
1, 469531, Note_off_c, 0, 71, 67
1, 469541, Note_on_c, 0, 59, 79
1, 469550, Note_off_c, 0, 73, 64
1, 469550, Control_c, 0, 64, 41
1, 469553, Note_off_c, 0, 75, 67
1, 469565, Control_c, 0, 64, 68
1, 469580, Control_c, 0, 64, 95
1, 469583, Note_on_c, 0, 76, 90
1, 469595, Control_c, 0, 64, 127
1, 469601, Note_off_c, 0, 59, 64
1, 469602, Note_on_c, 0, 57, 84
1, 469639, Note_on_c, 0, 78, 89
1, 469647, Note_on_c, 0, 56, 78
1, 469661, Note_off_c, 0, 76, 61
1, 469666, Note_on_c, 0, 80, 87
1, 469668, Note_off_c, 0, 57, 63
1, 469677, Note_on_c, 0, 54, 72
1, 469691, Note_off_c, 0, 78, 67
1, 469694, Note_off_c, 0, 56, 61
1, 469702, Note_off_c, 0, 54, 69
1, 469705, Note_off_c, 0, 80, 65
1, 469736, Note_on_c, 0, 81, 99
1, 469742, Note_on_c, 0, 52, 82
1, 469786, Note_on_c, 0, 83, 83
1, 469799, Note_on_c, 0, 51, 84
1, 469800, Note_off_c, 0, 52, 62
1, 469806, Note_off_c, 0, 81, 61
1, 469812, Note_on_c, 0, 85, 89
1, 469830, Note_on_c, 0, 49, 76
1, 469835, Note_off_c, 0, 83, 67
1, 469839, Note_on_c, 0, 87, 68
1, 469845, Note_off_c, 0, 51, 61
1, 469853, Note_off_c, 0, 85, 63
1, 469856, Note_off_c, 0, 87, 66
1, 469857, Note_off_c, 0, 49, 66
1, 469887, Note_on_c, 0, 88, 92
1, 469895, Note_on_c, 0, 47, 75
1, 469945, Note_on_c, 0, 90, 88
1, 469952, Note_off_c, 0, 88, 65
1, 469956, Note_off_c, 0, 47, 0
1, 469957, Note_on_c, 0, 45, 74
1, 469983, Note_off_c, 0, 45, 58
1, 469988, Note_on_c, 0, 92, 68
1, 469994, Note_on_c, 0, 93, 87
1, 470000, Note_on_c, 0, 42, 66
1, 470006, Poly_aftertouch_c, 0, 47, 0
1, 470009, Note_on_c, 0, 47, 3
1, 470011, Note_off_c, 0, 90, 64
1, 470016, Note_off_c, 0, 92, 68
1, 470017, Control_c, 0, 64, 98
1, 470029, Note_off_c, 0, 93, 63
1, 470032, Control_c, 0, 64, 61
1, 470038, Note_off_c, 0, 42, 61
1, 470041, Note_off_c, 0, 47, 52
1, 470047, Control_c, 0, 64, 0
1, 470083, Note_on_c, 0, 52, 95
1, 470087, Note_on_c, 0, 47, 77
1, 470087, Note_on_c, 0, 92, 113
1, 470089, Note_on_c, 0, 83, 109
1, 470091, Control_c, 0, 64, 66
1, 470106, Control_c, 0, 64, 127
1, 470111, Note_on_c, 0, 40, 38
1, 470111, Note_off_c, 0, 40, 127
1, 470111, Note_off_c, 0, 47, 69
1, 470111, Note_off_c, 0, 83, 67
1, 470111, Note_on_c, 0, 90, 62
1, 470118, Note_off_c, 0, 92, 66
1, 470127, Note_off_c, 0, 52, 65
1, 470131, Note_off_c, 0, 90, 64
1, 470148, Poly_aftertouch_c, 0, 40, 0
1, 470353, Note_on_c, 0, 56, 58
1, 470356, Note_on_c, 0, 59, 51
1, 470373, Note_on_c, 0, 68, 66
1, 470390, Note_on_c, 0, 64, 51
1, 470394, Note_off_c, 0, 56, 59
1, 470416, Note_off_c, 0, 64, 61
1, 470422, Note_off_c, 0, 68, 60
1, 470432, Control_c, 0, 64, 94
1, 470446, Note_on_c, 0, 71, 67
1, 470447, Control_c, 0, 64, 68
1, 470448, Note_on_c, 0, 69, 48
1, 470456, Note_off_c, 0, 59, 34
1, 470462, Control_c, 0, 64, 41
1, 470477, Control_c, 0, 64, 0
1, 470481, Note_on_c, 0, 56, 53
1, 470498, Note_off_c, 0, 69, 63
1, 470499, Note_on_c, 0, 68, 65
1, 470506, Note_off_c, 0, 71, 64
1, 470507, Note_off_c, 0, 56, 56
1, 470516, Note_on_c, 0, 64, 12
1, 470516, Note_on_c, 0, 52, 3
1, 470519, Note_off_c, 0, 68, 65
1, 470547, Note_off_c, 0, 64, 35
1, 470549, Note_off_c, 0, 52, 27
1, 470793, Note_on_c, 0, 88, 49
1, 470797, Note_on_c, 0, 76, 43
1, 470805, Note_on_c, 0, 85, 45
1, 470811, Control_c, 0, 64, 71
1, 470817, Note_off_c, 0, 88, 59
1, 470819, Note_on_c, 0, 52, 21
1, 470826, Control_c, 0, 64, 127
1, 470826, Note_off_c, 0, 76, 54
1, 470830, Note_off_c, 0, 85, 58
1, 470844, Note_off_c, 0, 52, 0
1, 470863, Poly_aftertouch_c, 0, 52, 0
1, 470930, Control_c, 0, 67, 25
1, 470945, Control_c, 0, 67, 33
1, 470959, Control_c, 0, 67, 43
1, 470974, Control_c, 0, 67, 59
1, 470989, Control_c, 0, 67, 75
1, 471004, Control_c, 0, 67, 90
1, 471020, Control_c, 0, 67, 106
1, 471035, Control_c, 0, 67, 123
1, 471049, Control_c, 0, 67, 127
1, 471069, Note_on_c, 0, 71, 59
1, 471079, Note_on_c, 0, 69, 41
1, 471084, Note_on_c, 0, 64, 43
1, 471090, Note_on_c, 0, 73, 46
1, 471094, Control_c, 0, 64, 78
1, 471094, Control_c, 0, 67, 112
1, 471104, Note_off_c, 0, 71, 65
1, 471106, Note_off_c, 0, 69, 53
1, 471108, Control_c, 0, 64, 0
1, 471108, Control_c, 0, 67, 49
1, 471110, Note_on_c, 0, 61, 31
1, 471115, Note_off_c, 0, 73, 56
1, 471119, Note_on_c, 0, 75, 58
1, 471123, Control_c, 0, 67, 0
1, 471127, Note_off_c, 0, 64, 47
1, 471133, Note_on_c, 0, 76, 71
1, 471174, Note_off_c, 0, 76, 63
1, 471179, Note_off_c, 0, 61, 53
1, 471181, Note_off_c, 0, 75, 64
1, 471184, Note_on_c, 0, 73, 62
1, 471203, Note_off_c, 0, 73, 66
1, 471397, Note_on_c, 0, 71, 59
1, 471398, Note_on_c, 0, 83, 54
1, 471402, Note_on_c, 0, 40, 32
1, 471403, Note_on_c, 0, 80, 58
1, 471404, Note_on_c, 0, 47, 43
1, 471410, Note_on_c, 0, 52, 25
1, 471416, Note_off_c, 0, 71, 64
1, 471418, Note_off_c, 0, 83, 61
1, 471419, Control_c, 0, 64, 56
1, 471423, Note_off_c, 0, 80, 63
1, 471439, Note_off_c, 0, 47, 52
1, 471441, Control_c, 0, 64, 103
1, 471455, Note_off_c, 0, 40, 31
1, 471456, Control_c, 0, 64, 127
1, 471458, Note_off_c, 0, 52, 30
1, 471634, Note_on_c, 0, 68, 56
1, 471652, Note_on_c, 0, 59, 48
1, 471658, Note_on_c, 0, 66, 58
1, 471667, Note_on_c, 0, 64, 27
1, 471672, Note_on_c, 0, 56, 39
1, 471674, Note_off_c, 0, 68, 63
1, 471690, Note_off_c, 0, 59, 62
1, 471691, Note_off_c, 0, 66, 65
1, 471693, Control_c, 0, 64, 89
1, 471701, Note_off_c, 0, 64, 43
1, 471704, Note_on_c, 0, 69, 55
1, 471705, Note_off_c, 0, 56, 52
1, 471708, Control_c, 0, 64, 54
1, 471710, Note_on_c, 0, 71, 65
1, 471723, Control_c, 0, 64, 0
1, 471745, Note_on_c, 0, 68, 69
1, 471750, Note_off_c, 0, 69, 63
1, 471759, Note_off_c, 0, 71, 61
1, 471768, Note_off_c, 0, 68, 68
1, 471786, Note_on_c, 0, 52, 3
1, 471786, Note_off_c, 0, 52, 127
1, 471926, Note_on_c, 0, 80, 68
1, 471935, Note_on_c, 0, 71, 50
1, 471936, Note_on_c, 0, 76, 45
1, 471960, Note_off_c, 0, 71, 60
1, 471963, Note_off_c, 0, 76, 49
1, 471971, Note_on_c, 0, 78, 65
1, 471974, Note_off_c, 0, 80, 61
1, 472007, Poly_aftertouch_c, 0, 68, 0
1, 472009, Note_on_c, 0, 81, 38
1, 472021, Note_on_c, 0, 83, 70
1, 472036, Note_off_c, 0, 78, 43
1, 472038, Note_on_c, 0, 76, 58
1, 472039, Note_on_c, 0, 80, 72
1, 472050, Note_off_c, 0, 81, 60
1, 472052, Note_off_c, 0, 83, 65
1, 472057, Note_on_c, 0, 71, 57
1, 472059, Note_off_c, 0, 76, 60
1, 472060, Note_on_c, 0, 64, 47
1, 472062, Note_off_c, 0, 80, 68
1, 472083, Note_off_c, 0, 64, 58
1, 472088, Note_off_c, 0, 71, 66
1, 472221, Note_on_c, 0, 92, 56
1, 472240, Note_on_c, 0, 83, 56
1, 472248, Note_on_c, 0, 93, 66
1, 472249, Note_off_c, 0, 92, 67
1, 472251, Note_on_c, 0, 76, 35
1, 472260, Note_off_c, 0, 83, 61
1, 472283, Note_off_c, 0, 76, 43
1, 472285, Note_on_c, 0, 90, 9
1, 472296, Note_off_c, 0, 93, 47
1, 472301, Note_off_c, 0, 90, 34
1, 472315, Note_on_c, 0, 94, 66
1, 472333, Note_on_c, 0, 91, 47
1, 472361, Note_off_c, 0, 91, 50
1, 472373, Note_off_c, 0, 94, 62
1, 472376, Note_on_c, 0, 95, 72
1, 472381, Note_on_c, 0, 83, 39
1, 472388, Note_on_c, 0, 90, 60
1, 472390, Note_on_c, 0, 75, 53
1, 472405, Note_off_c, 0, 83, 55
1, 472405, Note_off_c, 0, 95, 62
1, 472407, Note_off_c, 0, 90, 65
1, 472412, Note_off_c, 0, 75, 61
1, 472427, Control_c, 0, 64, 54
1, 472442, Control_c, 0, 64, 79
1, 472456, Control_c, 0, 64, 127
1, 472554, Note_on_c, 0, 71, 64
1, 472584, Note_off_c, 0, 71, 66
1, 472608, Note_on_c, 0, 72, 57
1, 472623, Note_on_c, 0, 95, 66
1, 472628, Note_on_c, 0, 83, 61
1, 472637, Note_off_c, 0, 72, 66
1, 472642, Note_off_c, 0, 95, 63
1, 472647, Note_off_c, 0, 83, 63
1, 472650, Control_c, 0, 64, 104
1, 472659, Note_on_c, 0, 73, 77
1, 472665, Control_c, 0, 64, 69
1, 472665, Control_c, 0, 67, 24
1, 472679, Control_c, 0, 64, 0
1, 472679, Control_c, 0, 67, 34
1, 472686, Note_on_c, 0, 95, 81
1, 472686, Note_on_c, 0, 83, 69
1, 472689, Poly_aftertouch_c, 0, 87, 0
1, 472690, Note_on_c, 0, 88, 70
1, 472692, Note_off_c, 0, 73, 64
1, 472694, Control_c, 0, 67, 59
1, 472701, Note_on_c, 0, 72, 76
1, 472704, Note_off_c, 0, 95, 67
1, 472709, Note_off_c, 0, 83, 56
1, 472709, Control_c, 0, 67, 90
1, 472717, Note_off_c, 0, 72, 69
1, 472719, Note_off_c, 0, 88, 64
1, 472724, Control_c, 0, 67, 121
1, 472739, Control_c, 0, 67, 127
1, 472855, Note_on_c, 0, 61, 59
1, 472870, Note_on_c, 0, 94, 84
1, 472884, Note_on_c, 0, 83, 52
1, 472898, Note_off_c, 0, 61, 61
1, 472900, Note_off_c, 0, 94, 58
1, 472904, Note_off_c, 0, 83, 60
1, 472925, Note_on_c, 0, 62, 60
1, 472971, Note_off_c, 0, 62, 62
1, 472971, Poly_aftertouch_c, 0, 88, 0
1, 472996, Note_on_c, 0, 63, 62
1, 473026, Note_off_c, 0, 63, 66
1, 473035, Note_on_c, 0, 62, 58
1, 473041, Note_on_c, 0, 95, 73
1, 473042, Note_on_c, 0, 83, 58
1, 473052, Note_on_c, 0, 88, 51
1, 473058, Note_off_c, 0, 62, 61
1, 473065, Note_off_c, 0, 95, 64
1, 473074, Note_off_c, 0, 88, 61
1, 473084, Note_off_c, 0, 83, 43
1, 473216, Note_on_c, 0, 49, 37
1, 473218, Note_on_c, 0, 93, 73
1, 473232, Note_on_c, 0, 83, 46
1, 473236, Note_on_c, 0, 87, 42
1, 473243, Note_off_c, 0, 93, 64
1, 473249, Note_off_c, 0, 49, 56
1, 473258, Note_off_c, 0, 83, 56
1, 473264, Note_off_c, 0, 87, 52
1, 473275, Note_on_c, 0, 50, 51
1, 473325, Note_off_c, 0, 50, 62
1, 473350, Note_on_c, 0, 51, 48
1, 473392, Note_off_c, 0, 51, 59
1, 473416, Note_on_c, 0, 92, 80
1, 473424, Note_on_c, 0, 52, 56
1, 473428, Note_on_c, 0, 83, 61
1, 473429, Control_c, 0, 64, 38
1, 473429, Control_c, 0, 67, 98
1, 473436, Note_off_c, 0, 92, 71
1, 473443, Control_c, 0, 64, 77
1, 473443, Control_c, 0, 67, 0
1, 473446, Note_off_c, 0, 83, 64
1, 473446, Note_off_c, 0, 52, 59
1, 473458, Control_c, 0, 64, 127
1, 473580, Note_on_c, 0, 59, 61
1, 473619, Note_off_c, 0, 59, 63
1, 473634, Note_on_c, 0, 60, 66
1, 473652, Note_on_c, 0, 83, 72
1, 473654, Note_on_c, 0, 75, 61
1, 473655, Note_on_c, 0, 71, 64
1, 473668, Note_off_c, 0, 83, 66
1, 473670, Note_off_c, 0, 60, 65
1, 473674, Note_off_c, 0, 71, 64
1, 473675, Note_off_c, 0, 75, 66
1, 473698, Note_on_c, 0, 61, 78
1, 473703, Control_c, 0, 64, 100
1, 473717, Control_c, 0, 64, 70
1, 473729, Note_on_c, 0, 71, 84
1, 473729, Note_on_c, 0, 83, 86
1, 473732, Control_c, 0, 64, 0
1, 473735, Note_on_c, 0, 60, 68
1, 473735, Note_on_c, 0, 76, 69
1, 473740, Note_off_c, 0, 61, 59
1, 473748, Note_off_c, 0, 83, 65
1, 473758, Note_off_c, 0, 71, 61
1, 473759, Note_off_c, 0, 60, 67
1, 473762, Note_off_c, 0, 76, 66
1, 473792, Control_c, 0, 67, 20
1, 473807, Control_c, 0, 67, 26
1, 473822, Control_c, 0, 67, 34
1, 473836, Control_c, 0, 67, 45
1, 473851, Control_c, 0, 67, 61
1, 473866, Control_c, 0, 67, 79
1, 473881, Control_c, 0, 67, 96
1, 473892, Note_on_c, 0, 49, 61
1, 473896, Control_c, 0, 67, 110
1, 473910, Note_on_c, 0, 82, 75
1, 473910, Control_c, 0, 67, 124
1, 473923, Note_on_c, 0, 71, 48
1, 473925, Control_c, 0, 67, 127
1, 473935, Note_off_c, 0, 49, 62
1, 473945, Note_off_c, 0, 82, 56
1, 473949, Note_off_c, 0, 71, 54
1, 473974, Note_on_c, 0, 50, 54
1, 474003, Poly_aftertouch_c, 0, 76, 0
1, 474007, Note_off_c, 0, 50, 64
1, 474024, Note_on_c, 0, 51, 59
1, 474065, Note_off_c, 0, 51, 64
1, 474087, Note_on_c, 0, 50, 56
1, 474093, Note_on_c, 0, 71, 57
1, 474093, Note_on_c, 0, 83, 65
1, 474106, Note_on_c, 0, 76, 43
1, 474110, Note_off_c, 0, 50, 59
1, 474110, Note_off_c, 0, 83, 64
1, 474124, Note_off_c, 0, 71, 49
1, 474131, Note_off_c, 0, 76, 50
1, 474260, Note_on_c, 0, 37, 47
1, 474285, Note_on_c, 0, 75, 48
1, 474285, Note_on_c, 0, 81, 53
1, 474292, Note_on_c, 0, 71, 36
1, 474302, Note_off_c, 0, 37, 60
1, 474309, Note_off_c, 0, 81, 58
1, 474313, Note_off_c, 0, 75, 55
1, 474323, Note_off_c, 0, 71, 49
1, 474342, Note_on_c, 0, 38, 51
1, 474392, Note_off_c, 0, 38, 63
1, 474444, Note_on_c, 0, 39, 33
1, 474481, Note_off_c, 0, 39, 58
1, 474522, Note_on_c, 0, 40, 51
1, 474540, Control_c, 0, 67, 79
1, 474542, Note_on_c, 0, 80, 54
1, 474543, Note_on_c, 0, 71, 54
1, 474550, Note_off_c, 0, 40, 60
1, 474555, Control_c, 0, 64, 43
1, 474555, Control_c, 0, 67, 0
1, 474564, Note_off_c, 0, 80, 60
1, 474564, Note_off_c, 0, 71, 61
1, 474567, Note_on_c, 0, 76, 12
1, 474570, Control_c, 0, 64, 90
1, 474585, Control_c, 0, 64, 127
1, 474609, Note_off_c, 0, 76, 35
1, 474834, Note_on_c, 0, 58, 100
1, 474847, Note_on_c, 0, 46, 77
1, 474870, Note_off_c, 0, 58, 68
1, 474874, Note_off_c, 0, 46, 68
1, 474881, Control_c, 0, 64, 101
1, 474896, Control_c, 0, 64, 64
1, 474911, Control_c, 0, 64, 0
1, 474979, Note_on_c, 0, 59, 62
1, 474984, Note_on_c, 0, 63, 60
1, 474985, Note_on_c, 0, 71, 64
1, 474999, Note_off_c, 0, 59, 65
1, 475005, Note_off_c, 0, 71, 63
1, 475019, Note_off_c, 0, 63, 65
1, 475051, Note_on_c, 0, 57, 73
1, 475052, Note_on_c, 0, 45, 56
1, 475077, Note_off_c, 0, 45, 57
1, 475079, Note_off_c, 0, 57, 65
1, 475136, Note_on_c, 0, 59, 59
1, 475141, Note_on_c, 0, 64, 58
1, 475144, Note_on_c, 0, 71, 48
1, 475157, Note_off_c, 0, 59, 64
1, 475169, Note_off_c, 0, 71, 56
1, 475179, Note_off_c, 0, 64, 67
1, 475197, Note_on_c, 0, 56, 81
1, 475211, Note_on_c, 0, 44, 61
1, 475220, Note_off_c, 0, 56, 67
1, 475242, Note_off_c, 0, 44, 65
1, 475269, Note_on_c, 0, 59, 60
1, 475273, Note_on_c, 0, 70, 69
1, 475277, Note_on_c, 0, 64, 55
1, 475289, Note_off_c, 0, 59, 62
1, 475298, Note_off_c, 0, 70, 68
1, 475312, Note_off_c, 0, 64, 63
1, 475325, Note_on_c, 0, 55, 95
1, 475337, Note_on_c, 0, 43, 70
1, 475350, Note_off_c, 0, 55, 68
1, 475365, Note_off_c, 0, 43, 65
1, 475392, Note_on_c, 0, 59, 65
1, 475402, Note_on_c, 0, 64, 67
1, 475404, Note_on_c, 0, 71, 66
1, 475419, Note_off_c, 0, 59, 64
1, 475425, Note_off_c, 0, 71, 63
1, 475427, Note_off_c, 0, 64, 68
1, 475449, Note_on_c, 0, 54, 93
1, 475462, Note_on_c, 0, 42, 70
1, 475469, Note_off_c, 0, 54, 71
1, 475500, Note_off_c, 0, 42, 64
1, 475521, Note_on_c, 0, 59, 73
1, 475524, Note_on_c, 0, 71, 68
1, 475527, Note_on_c, 0, 63, 71
1, 475543, Note_off_c, 0, 59, 70
1, 475551, Note_off_c, 0, 63, 68
1, 475565, Note_off_c, 0, 71, 65
1, 475572, Note_on_c, 0, 69, 7
1, 475592, Note_on_c, 0, 40, 74
1, 475618, Note_off_c, 0, 69, 27
1, 475625, Note_on_c, 0, 52, 109
1, 475630, Control_c, 0, 64, 74
1, 475637, Note_on_c, 0, 68, 109
1, 475639, Note_off_c, 0, 40, 58
1, 475642, Note_on_c, 0, 80, 97
1, 475644, Note_off_c, 0, 52, 68
1, 475645, Control_c, 0, 64, 127
1, 475646, Note_on_c, 0, 76, 85
1, 475657, Note_off_c, 0, 80, 75
1, 475664, Note_off_c, 0, 76, 73
1, 475683, Note_off_c, 0, 68, 60
1, 475739, Poly_aftertouch_c, 0, 46, 0
1, 475841, Note_on_c, 0, 57, 61
1, 475845, Note_on_c, 0, 56, 34
1, 475855, Note_on_c, 0, 52, 74
1, 475867, Note_off_c, 0, 57, 64
1, 475876, Note_off_c, 0, 52, 70
1, 475878, Note_on_c, 0, 63, 42
1, 475882, Note_off_c, 0, 56, 53
1, 475934, Note_off_c, 0, 63, 46
1, 475945, Note_on_c, 0, 68, 84
1, 476013, Note_on_c, 0, 64, 69
1, 476022, Note_off_c, 0, 68, 63
1, 476037, Note_off_c, 0, 64, 69
1, 476075, Note_on_c, 0, 79, 89
1, 476128, Note_on_c, 0, 76, 89
1, 476131, Note_off_c, 0, 79, 66
1, 476163, Note_off_c, 0, 76, 63
1, 476205, Note_on_c, 0, 92, 95
1, 476231, Note_on_c, 0, 93, 65
1, 476247, Note_off_c, 0, 92, 67
1, 476254, Note_off_c, 0, 93, 68
1, 476256, Note_on_c, 0, 91, 47
1, 476257, Note_on_c, 0, 88, 74
1, 476278, Note_off_c, 0, 88, 71
1, 476284, Note_off_c, 0, 91, 35
1, 476318, Note_on_c, 0, 69, 66
1, 476358, Note_off_c, 0, 69, 63
1, 476391, Note_on_c, 0, 64, 43
1, 476391, Note_off_c, 0, 64, 127
1, 476394, Control_c, 0, 64, 91
1, 476409, Control_c, 0, 64, 54
1, 476412, Poly_aftertouch_c, 0, 68, 0
1, 476424, Control_c, 0, 64, 0
1, 476469, Control_c, 0, 64, 61
1, 476473, Note_on_c, 0, 47, 86
1, 476474, Note_on_c, 0, 52, 90
1, 476481, Note_on_c, 0, 71, 114
1, 476484, Control_c, 0, 64, 127
1, 476487, Note_on_c, 0, 80, 95
1, 476488, Note_on_c, 0, 40, 42
1, 476490, Note_on_c, 0, 83, 88
1, 476493, Note_off_c, 0, 47, 72
1, 476493, Note_off_c, 0, 52, 72
1, 476500, Note_off_c, 0, 80, 74
1, 476501, Note_off_c, 0, 83, 43
1, 476507, Note_off_c, 0, 71, 63
1, 476508, Note_on_c, 0, 78, 44
1, 476508, Note_off_c, 0, 78, 127
1, 476522, Note_off_c, 0, 40, 54
1, 476652, Note_on_c, 0, 56, 80
1, 476655, Note_on_c, 0, 59, 64
1, 476701, Note_off_c, 0, 56, 68
1, 476710, Note_on_c, 0, 52, 65
1, 476719, Note_off_c, 0, 59, 41
1, 476730, Note_off_c, 0, 52, 65
1, 476769, Note_on_c, 0, 65, 38
1, 476795, Note_on_c, 0, 71, 88
1, 476800, Note_off_c, 0, 65, 53
1, 476801, Note_on_c, 0, 68, 67
1, 476850, Note_off_c, 0, 71, 65
1, 476852, Note_on_c, 0, 64, 70
1, 476875, Note_off_c, 0, 64, 70
1, 476883, Note_off_c, 0, 68, 64
1, 476931, Note_on_c, 0, 83, 100
1, 476937, Note_on_c, 0, 80, 82
1, 476974, Note_on_c, 0, 81, 46
1, 477002, Note_on_c, 0, 76, 90
1, 477008, Note_off_c, 0, 81, 51
1, 477016, Note_off_c, 0, 83, 64
1, 477020, Note_off_c, 0, 80, 61
1, 477044, Note_off_c, 0, 76, 67
1, 477084, Note_on_c, 0, 95, 96
1, 477151, Note_on_c, 0, 92, 95
1, 477155, Note_off_c, 0, 95, 69
1, 477166, Note_off_c, 0, 92, 75
1, 477185, Note_on_c, 0, 94, 26
1, 477185, Note_off_c, 0, 94, 127
1, 477222, Note_on_c, 0, 68, 77
1, 477235, Note_on_c, 0, 71, 51
1, 477238, Note_on_c, 0, 72, 51
1, 477262, Poly_aftertouch_c, 0, 91, 0
1, 477280, Note_off_c, 0, 72, 57
1, 477292, Note_off_c, 0, 71, 58
1, 477294, Note_on_c, 0, 64, 63
1, 477297, Note_off_c, 0, 68, 62
1, 477314, Note_off_c, 0, 64, 65
1, 477377, Note_on_c, 0, 40, 71
1, 477378, Control_c, 0, 64, 107
1, 477394, Control_c, 0, 64, 65
1, 477409, Control_c, 0, 64, 0
1, 477441, Note_on_c, 0, 44, 69
1, 477454, Note_off_c, 0, 40, 63
1, 477456, Note_on_c, 0, 47, 82
1, 477470, Note_on_c, 0, 52, 97
1, 477476, Note_on_c, 0, 74, 108
1, 477476, Control_c, 0, 64, 45
1, 477479, Note_on_c, 0, 83, 98
1, 477481, Note_on_c, 0, 80, 96
1, 477481, Note_on_c, 0, 86, 89
1, 477485, Note_off_c, 0, 47, 67
1, 477491, Control_c, 0, 64, 127
1, 477494, Note_off_c, 0, 44, 64
1, 477499, Note_off_c, 0, 52, 67
1, 477499, Note_off_c, 0, 86, 69
1, 477508, Note_off_c, 0, 74, 68
1, 477521, Note_off_c, 0, 83, 66
1, 477529, Note_off_c, 0, 80, 64
1, 477864, Note_on_c, 0, 88, 110
1, 477869, Note_on_c, 0, 85, 94
1, 477892, Note_on_c, 0, 87, 56
1, 477916, Note_off_c, 0, 87, 56
1, 477988, Note_off_c, 0, 88, 50
1, 478014, Note_off_c, 0, 85, 56
1, 478026, Note_on_c, 0, 100, 93
1, 478036, Note_on_c, 0, 97, 82
1, 478078, Note_on_c, 0, 96, 34
1, 478081, Note_off_c, 0, 97, 66
1, 478087, Note_off_c, 0, 100, 68
1, 478097, Note_on_c, 0, 86, 89
1, 478108, Note_on_c, 0, 83, 79
1, 478114, Note_off_c, 0, 96, 56
1, 478138, Note_on_c, 0, 98, 88
1, 478140, Note_on_c, 0, 95, 89
1, 478162, Note_off_c, 0, 83, 60
1, 478164, Note_off_c, 0, 86, 61
1, 478198, Note_off_c, 0, 95, 66
1, 478210, Note_off_c, 0, 98, 64
1, 478211, Note_on_c, 0, 85, 91
1, 478219, Note_on_c, 0, 81, 78
1, 478239, Note_off_c, 0, 81, 71
1, 478242, Note_on_c, 0, 93, 94
1, 478242, Note_on_c, 0, 97, 91
1, 478246, Note_off_c, 0, 85, 66
1, 478286, Note_off_c, 0, 93, 66
1, 478293, Note_off_c, 0, 97, 66
1, 478313, Note_on_c, 0, 83, 106
1, 478329, Note_on_c, 0, 80, 64
1, 478335, Note_on_c, 0, 81, 71
1, 478347, Note_on_c, 0, 78, 44
1, 478353, Note_off_c, 0, 83, 65
1, 478355, Note_on_c, 0, 95, 95
1, 478356, Note_on_c, 0, 92, 96
1, 478359, Note_off_c, 0, 80, 51
1, 478364, Note_off_c, 0, 81, 59
1, 478373, Note_off_c, 0, 78, 59
1, 478381, Note_off_c, 0, 92, 66
1, 478393, Note_off_c, 0, 95, 64
1, 478422, Note_on_c, 0, 81, 112
1, 478433, Note_on_c, 0, 78, 89
1, 478466, Note_on_c, 0, 86, 98
1, 478466, Note_on_c, 0, 90, 91
1, 478466, Note_on_c, 0, 98, 94
1, 478472, Note_off_c, 0, 81, 59
1, 478478, Note_off_c, 0, 90, 72
1, 478480, Note_off_c, 0, 86, 76
1, 478484, Note_off_c, 0, 98, 73
1, 478493, Note_off_c, 0, 78, 58
1, 478502, Note_on_c, 0, 89, 43
1, 478516, Note_on_c, 0, 96, 14
1, 478516, Note_off_c, 0, 96, 127
1, 478534, Note_on_c, 0, 80, 71
1, 478535, Note_off_c, 0, 89, 58
1, 478535, Note_on_c, 0, 76, 74
1, 478551, Control_c, 0, 64, 103
1, 478564, Note_on_c, 0, 85, 95
1, 478566, Control_c, 0, 64, 72
1, 478572, Note_on_c, 0, 97, 65
1, 478572, Note_off_c, 0, 97, 127
1, 478581, Note_off_c, 0, 85, 75
1, 478581, Control_c, 0, 64, 56
1, 478588, Note_on_c, 0, 88, 43
1, 478596, Control_c, 0, 64, 0
1, 478599, Note_off_c, 0, 76, 60
1, 478605, Note_off_c, 0, 80, 62
1, 478609, Note_on_c, 0, 84, 44
1, 478614, Note_off_c, 0, 88, 52
1, 478619, Poly_aftertouch_c, 0, 96, 0
1, 478631, Note_off_c, 0, 84, 40
1, 478641, Note_on_c, 0, 74, 72
1, 478643, Note_on_c, 0, 78, 82
1, 478671, Note_off_c, 0, 74, 66
1, 478671, Note_off_c, 0, 78, 64
1, 478681, Note_on_c, 0, 95, 78
1, 478681, Note_on_c, 0, 83, 80
1, 478684, Note_on_c, 0, 86, 64
1, 478685, Control_c, 0, 64, 34
1, 478695, Note_off_c, 0, 95, 69
1, 478699, Control_c, 0, 64, 37
1, 478701, Note_off_c, 0, 83, 71
1, 478702, Note_off_c, 0, 86, 67
1, 478714, Control_c, 0, 64, 37
1, 478747, Note_on_c, 0, 76, 88
1, 478756, Note_on_c, 0, 73, 76
1, 478773, Control_c, 0, 64, 37
1, 478786, Note_on_c, 0, 81, 90
1, 478787, Note_on_c, 0, 93, 89
1, 478788, Note_off_c, 0, 76, 56
1, 478789, Note_off_c, 0, 73, 57
1, 478799, Note_on_c, 0, 85, 63
1, 478804, Note_off_c, 0, 81, 72
1, 478806, Note_off_c, 0, 93, 73
1, 478816, Note_off_c, 0, 85, 65
1, 478819, Note_on_c, 0, 83, 38
1, 478819, Note_off_c, 0, 83, 127
1, 478832, Control_c, 0, 64, 39
1, 478847, Control_c, 0, 64, 50
1, 478860, Note_on_c, 0, 74, 82
1, 478862, Control_c, 0, 64, 66
1, 478868, Note_on_c, 0, 71, 70
1, 478877, Control_c, 0, 64, 84
1, 478891, Control_c, 0, 64, 127
1, 478896, Note_on_c, 0, 80, 81
1, 478898, Note_off_c, 0, 71, 60
1, 478901, Note_on_c, 0, 83, 73
1, 478902, Note_on_c, 0, 92, 62
1, 478923, Note_off_c, 0, 74, 60
1, 478925, Note_off_c, 0, 80, 69
1, 478929, Note_off_c, 0, 92, 63
1, 478931, Note_off_c, 0, 83, 69
1, 478967, Note_on_c, 0, 73, 86
1, 478973, Note_on_c, 0, 69, 69
1, 478994, Note_off_c, 0, 73, 64
1, 478999, Note_off_c, 0, 69, 69
1, 479000, Note_on_c, 0, 90, 70
1, 479002, Note_on_c, 0, 78, 85
1, 479020, Note_on_c, 0, 81, 64
1, 479021, Note_off_c, 0, 78, 69
1, 479022, Note_off_c, 0, 90, 69
1, 479038, Note_off_c, 0, 81, 65
1, 479075, Note_on_c, 0, 71, 91
1, 479086, Note_on_c, 0, 68, 80
1, 479116, Note_off_c, 0, 71, 61
1, 479119, Note_off_c, 0, 68, 52
1, 479125, Note_on_c, 0, 76, 95
1, 479125, Note_on_c, 0, 88, 93
1, 479128, Note_on_c, 0, 80, 81
1, 479137, Control_c, 0, 64, 113
1, 479143, Note_off_c, 0, 88, 71
1, 479143, Note_off_c, 0, 76, 69
1, 479149, Note_off_c, 0, 80, 69
1, 479152, Control_c, 0, 64, 71
1, 479166, Control_c, 0, 64, 36
1, 479181, Control_c, 0, 64, 0
1, 479187, Note_on_c, 0, 69, 95
1, 479196, Control_c, 0, 64, 39
1, 479199, Note_on_c, 0, 66, 76
1, 479211, Control_c, 0, 64, 61
1, 479226, Control_c, 0, 64, 81
1, 479232, Note_off_c, 0, 69, 59
1, 479238, Note_on_c, 0, 78, 86
1, 479238, Note_on_c, 0, 86, 92
1, 479238, Note_on_c, 0, 74, 89
1, 479241, Control_c, 0, 64, 127
1, 479253, Note_off_c, 0, 86, 74
1, 479255, Note_off_c, 0, 74, 74
1, 479256, Note_off_c, 0, 78, 72
1, 479260, Note_off_c, 0, 66, 58
1, 479302, Note_on_c, 0, 68, 87
1, 479304, Note_on_c, 0, 64, 78
1, 479336, Note_on_c, 0, 73, 94
1, 479342, Note_on_c, 0, 85, 81
1, 479345, Note_on_c, 0, 76, 40
1, 479355, Note_off_c, 0, 85, 72
1, 479366, Note_off_c, 0, 64, 59
1, 479369, Note_off_c, 0, 68, 60
1, 479373, Note_off_c, 0, 73, 63
1, 479373, Note_off_c, 0, 76, 63
1, 479390, Note_on_c, 0, 84, 29
1, 479405, Note_on_c, 0, 62, 74
1, 479406, Note_on_c, 0, 66, 84
1, 479426, Note_off_c, 0, 84, 57
1, 479438, Note_off_c, 0, 62, 63
1, 479447, Note_on_c, 0, 71, 87
1, 479447, Note_on_c, 0, 74, 79
1, 479447, Note_on_c, 0, 83, 82
1, 479449, Note_off_c, 0, 66, 61
1, 479462, Note_off_c, 0, 83, 69
1, 479468, Note_off_c, 0, 71, 66
1, 479471, Note_off_c, 0, 74, 67
1, 479507, Control_c, 0, 64, 75
1, 479514, Note_on_c, 0, 64, 98
1, 479521, Control_c, 0, 64, 43
1, 479522, Note_on_c, 0, 61, 84
1, 479536, Control_c, 0, 64, 0
1, 479563, Note_off_c, 0, 64, 61
1, 479566, Note_on_c, 0, 69, 92
1, 479566, Control_c, 0, 64, 56
1, 479567, Note_on_c, 0, 73, 89
1, 479571, Note_on_c, 0, 81, 82
1, 479581, Control_c, 0, 64, 76
1, 479585, Note_off_c, 0, 61, 55
1, 479585, Note_off_c, 0, 69, 67
1, 479590, Note_off_c, 0, 81, 72
1, 479593, Note_off_c, 0, 73, 60
1, 479596, Control_c, 0, 64, 127
1, 479634, Note_on_c, 0, 62, 88
1, 479637, Note_on_c, 0, 59, 78
1, 479684, Note_on_c, 0, 68, 91
1, 479685, Note_on_c, 0, 71, 76
1, 479685, Note_on_c, 0, 80, 84
1, 479706, Note_off_c, 0, 59, 58
1, 479707, Note_off_c, 0, 62, 57
1, 479709, Note_off_c, 0, 71, 67
1, 479717, Note_off_c, 0, 80, 56
1, 479719, Note_off_c, 0, 68, 51
1, 479750, Note_on_c, 0, 61, 84
1, 479757, Note_on_c, 0, 57, 74
1, 479783, Note_off_c, 0, 57, 68
1, 479792, Note_on_c, 0, 66, 91
1, 479796, Note_off_c, 0, 61, 62
1, 479800, Note_on_c, 0, 69, 75
1, 479813, Note_on_c, 0, 77, 68
1, 479833, Note_off_c, 0, 77, 68
1, 479834, Note_off_c, 0, 66, 63
1, 479840, Note_off_c, 0, 69, 56
1, 479856, Control_c, 0, 64, 76
1, 479867, Note_on_c, 0, 59, 101
1, 479870, Control_c, 0, 64, 0
1, 479880, Note_on_c, 0, 56, 83
1, 479908, Note_off_c, 0, 59, 63
1, 479914, Note_on_c, 0, 68, 92
1, 479915, Note_on_c, 0, 64, 89
1, 479915, Note_on_c, 0, 76, 93
1, 479915, Control_c, 0, 64, 49
1, 479924, Note_off_c, 0, 56, 50
1, 479930, Control_c, 0, 64, 72
1, 479939, Note_off_c, 0, 76, 60
1, 479941, Note_off_c, 0, 64, 60
1, 479945, Control_c, 0, 64, 106
1, 479948, Note_off_c, 0, 68, 61
1, 479959, Note_on_c, 0, 65, 28
1, 479959, Note_off_c, 0, 65, 127
1, 479959, Control_c, 0, 64, 127
1, 479984, Note_on_c, 0, 57, 108
1, 479997, Note_on_c, 0, 54, 76
1, 479997, Poly_aftertouch_c, 0, 65, 0
1, 480026, Note_off_c, 0, 57, 63
1, 480031, Note_on_c, 0, 63, 94
1, 480039, Note_on_c, 0, 73, 80
1, 480042, Note_on_c, 0, 66, 76
1, 480051, Note_on_c, 0, 74, 77
1, 480053, Note_off_c, 0, 63, 66
1, 480053, Note_off_c, 0, 73, 70
1, 480064, Note_off_c, 0, 54, 60
1, 480071, Note_off_c, 0, 74, 71
1, 480072, Note_off_c, 0, 66, 55
1, 480093, Control_c, 0, 64, 80
1, 480105, Note_on_c, 0, 57, 105
1, 480108, Control_c, 0, 64, 55
1, 480111, Note_on_c, 0, 53, 72
1, 480122, Control_c, 0, 64, 44
1, 480137, Control_c, 0, 64, 65
1, 480145, Note_on_c, 0, 62, 91
1, 480147, Note_on_c, 0, 65, 79
1, 480147, Note_off_c, 0, 57, 62
1, 480149, Note_on_c, 0, 74, 83
1, 480152, Control_c, 0, 64, 86
1, 480163, Note_off_c, 0, 53, 61
1, 480166, Note_on_c, 0, 72, 65
1, 480167, Control_c, 0, 64, 127
1, 480168, Note_off_c, 0, 62, 64
1, 480169, Note_off_c, 0, 74, 67
1, 480186, Note_off_c, 0, 72, 64
1, 480198, Note_off_c, 0, 65, 64
1, 480225, Note_on_c, 0, 57, 104
1, 480225, Note_on_c, 0, 52, 90
1, 480261, Note_off_c, 0, 57, 67
1, 480266, Note_on_c, 0, 73, 93
1, 480269, Note_off_c, 0, 52, 63
1, 480272, Note_on_c, 0, 65, 78
1, 480276, Note_on_c, 0, 62, 73
1, 480302, Note_off_c, 0, 65, 63
1, 480306, Note_off_c, 0, 62, 64
1, 480315, Note_off_c, 0, 73, 64
1, 480337, Note_on_c, 0, 57, 106
1, 480342, Note_on_c, 0, 51, 104
1, 480372, Note_off_c, 0, 57, 66
1, 480382, Note_off_c, 0, 51, 62
1, 480393, Note_on_c, 0, 60, 101
1, 480395, Note_on_c, 0, 66, 92
1, 480397, Note_on_c, 0, 72, 95
1, 480421, Poly_aftertouch_c, 0, 49, 127
1, 480436, Note_on_c, 0, 70, 36
1, 480441, Note_off_c, 0, 72, 45
1, 480453, Note_off_c, 0, 60, 56
1, 480458, Poly_aftertouch_c, 0, 49, 0
1, 480468, Note_off_c, 0, 70, 49
1, 480468, Note_off_c, 0, 66, 56
1, 480478, Note_on_c, 0, 50, 98
1, 480484, Note_on_c, 0, 52, 88
1, 480486, Note_on_c, 0, 42, 78
1, 480490, Note_on_c, 0, 44, 70
1, 480493, Note_on_c, 0, 40, 69
1, 480498, Note_on_c, 0, 48, 66
1, 480504, Note_off_c, 0, 50, 62
1, 480507, Note_on_c, 0, 46, 42
1, 480507, Note_off_c, 0, 46, 127
1, 480508, Note_off_c, 0, 52, 66
1, 480513, Note_off_c, 0, 44, 63
1, 480514, Note_off_c, 0, 42, 64
1, 480522, Note_off_c, 0, 48, 66
1, 480523, Note_off_c, 0, 40, 62
1, 480540, Poly_aftertouch_c, 0, 46, 0
1, 480548, Note_on_c, 0, 59, 96
1, 480550, Note_on_c, 0, 64, 87
1, 480554, Note_on_c, 0, 71, 88
1, 480573, Note_off_c, 0, 71, 65
1, 480592, Note_off_c, 0, 59, 59
1, 480599, Note_off_c, 0, 64, 59
1, 480617, Note_on_c, 0, 40, 38
1, 480634, Control_c, 0, 64, 71
1, 480639, Note_off_c, 0, 40, 60
1, 480649, Control_c, 0, 64, 0
1, 480666, Note_on_c, 0, 45, 108
1, 480672, Note_on_c, 0, 57, 104
1, 480675, Note_on_c, 0, 61, 90
1, 480677, Note_on_c, 0, 69, 88
1, 480679, Note_on_c, 0, 40, 76
1, 480687, Note_on_c, 0, 33, 51
1, 480687, Note_off_c, 0, 33, 127
1, 480689, Note_off_c, 0, 57, 69
1, 480693, Control_c, 0, 64, 49
1, 480700, Note_on_c, 0, 34, 37
1, 480700, Note_off_c, 0, 34, 127
1, 480702, Note_on_c, 0, 66, 52
1, 480708, Note_off_c, 0, 40, 65
1, 480708, Control_c, 0, 64, 83
1, 480717, Note_on_c, 0, 37, 7
1, 480717, Note_off_c, 0, 45, 66
1, 480720, Note_off_c, 0, 61, 50
1, 480722, Note_on_c, 0, 36, 10
1, 480723, Note_on_c, 0, 60, 26
1, 480723, Control_c, 0, 64, 127
1, 480727, Note_off_c, 0, 66, 62
1, 480731, Note_off_c, 0, 69, 65
1, 480755, Note_off_c, 0, 60, 56
1, 480771, Note_off_c, 0, 37, 46
1, 480773, Note_off_c, 0, 36, 48
1, 480781, Poly_aftertouch_c, 0, 63, 0
1, 480786, Poly_aftertouch_c, 0, 67, 0
1, 480875, Note_on_c, 0, 69, 100
1, 480883, Note_on_c, 0, 81, 85
1, 480892, Note_off_c, 0, 69, 70
1, 480895, Note_off_c, 0, 81, 73
1, 480958, Note_on_c, 0, 71, 89
1, 480959, Note_on_c, 0, 83, 91
1, 480960, Control_c, 0, 64, 104
1, 480966, Note_on_c, 0, 72, 82
1, 480975, Control_c, 0, 64, 77
1, 480979, Note_off_c, 0, 71, 68
1, 480979, Poly_aftertouch_c, 0, 78, 0
1, 480981, Note_off_c, 0, 72, 70
1, 480987, Note_off_c, 0, 83, 56
1, 480991, Control_c, 0, 64, 62
1, 481006, Control_c, 0, 64, 40
1, 481006, Note_on_c, 0, 45, 59
1, 481020, Control_c, 0, 64, 0
1, 481066, Note_on_c, 0, 82, 24
1, 481068, Note_off_c, 0, 45, 62
1, 481068, Note_on_c, 0, 52, 70
1, 481089, Note_off_c, 0, 82, 51
1, 481137, Note_on_c, 0, 61, 111
1, 481142, Note_off_c, 0, 52, 64
1, 481148, Note_on_c, 0, 73, 103
1, 481150, Note_on_c, 0, 85, 98
1, 481153, Control_c, 0, 64, 59
1, 481176, Control_c, 0, 64, 127
1, 481179, Note_on_c, 0, 75, 57
1, 481179, Note_off_c, 0, 75, 127
1, 481179, Note_off_c, 0, 61, 56
1, 481199, Note_off_c, 0, 85, 68
1, 481213, Note_off_c, 0, 73, 60
1, 481238, Poly_aftertouch_c, 0, 82, 127
1, 481272, Poly_aftertouch_c, 0, 82, 0
1, 481360, Note_on_c, 0, 69, 88
1, 481377, Note_off_c, 0, 69, 73
1, 481379, Note_on_c, 0, 81, 52
1, 481405, Note_off_c, 0, 81, 59
1, 481431, Note_on_c, 0, 80, 88
1, 481446, Note_on_c, 0, 68, 59
1, 481446, Note_off_c, 0, 68, 127
1, 481450, Note_on_c, 0, 70, 61
1, 481471, Note_off_c, 0, 70, 41
1, 481474, Note_on_c, 0, 81, 28
1, 481474, Note_off_c, 0, 81, 127
1, 481478, Note_on_c, 0, 69, 39
1, 481488, Note_off_c, 0, 80, 61
1, 481496, Note_off_c, 0, 69, 65
1, 481517, Control_c, 0, 64, 122
1, 481532, Control_c, 0, 64, 73
1, 481547, Control_c, 0, 64, 0
1, 481606, Control_c, 0, 64, 62
1, 481617, Note_on_c, 0, 66, 99
1, 481620, Note_on_c, 0, 78, 98
1, 481621, Control_c, 0, 64, 88
1, 481636, Control_c, 0, 64, 127
1, 481642, Note_off_c, 0, 66, 64
1, 481670, Note_off_c, 0, 78, 62
1, 481815, Note_on_c, 0, 62, 85
1, 481819, Note_on_c, 0, 50, 78
1, 481836, Note_off_c, 0, 50, 65
1, 481836, Note_off_c, 0, 62, 70
1, 481879, Note_on_c, 0, 71, 106
1, 481883, Note_on_c, 0, 83, 103
1, 481884, Poly_aftertouch_c, 0, 56, 0
1, 481888, Note_on_c, 0, 64, 98
1, 481902, Control_c, 0, 64, 84
1, 481906, Note_on_c, 0, 52, 61
1, 481922, Note_off_c, 0, 64, 61
1, 481924, Control_c, 0, 64, 64
1, 481925, Note_on_c, 0, 54, 27
1, 481928, Poly_aftertouch_c, 0, 56, 127
1, 481938, Note_off_c, 0, 52, 38
1, 481939, Control_c, 0, 64, 0
1, 481959, Note_on_c, 0, 59, 5
1, 481960, Note_off_c, 0, 54, 46
1, 481966, Poly_aftertouch_c, 0, 56, 0
1, 481998, Poly_aftertouch_c, 0, 60, 127
1, 482019, Note_off_c, 0, 59, 35
1, 482036, Poly_aftertouch_c, 0, 60, 0
1, 482088, Note_on_c, 0, 66, 105
1, 482088, Control_c, 0, 64, 37
1, 482101, Note_on_c, 0, 54, 75
1, 482102, Control_c, 0, 64, 78
1, 482117, Control_c, 0, 64, 127
1, 482121, Note_off_c, 0, 66, 63
1, 482127, Note_off_c, 0, 83, 57
1, 482130, Note_off_c, 0, 54, 66
1, 482194, Note_off_c, 0, 71, 56
1, 482293, Note_on_c, 0, 61, 56
1, 482316, Note_off_c, 0, 61, 59
1, 482320, Note_on_c, 0, 49, 8
1, 482361, Note_on_c, 0, 63, 93
1, 482370, Note_on_c, 0, 69, 90
1, 482370, Note_off_c, 0, 49, 53
1, 482371, Note_on_c, 0, 51, 75
1, 482376, Note_on_c, 0, 81, 79
1, 482380, Note_off_c, 0, 63, 68
1, 482389, Note_off_c, 0, 81, 69
1, 482392, Note_on_c, 0, 78, 51
1, 482392, Note_off_c, 0, 69, 61
1, 482399, Control_c, 0, 64, 94
1, 482401, Note_off_c, 0, 51, 64
1, 482414, Control_c, 0, 64, 67
1, 482416, Note_off_c, 0, 78, 58
1, 482429, Control_c, 0, 64, 0
1, 482547, Control_c, 0, 64, 48
1, 482559, Note_on_c, 0, 59, 86
1, 482562, Control_c, 0, 64, 95
1, 482563, Note_on_c, 0, 68, 94
1, 482568, Note_on_c, 0, 80, 85
1, 482572, Note_on_c, 0, 47, 58
1, 482577, Control_c, 0, 64, 127
1, 482577, Note_on_c, 0, 78, 73
1, 482581, Note_off_c, 0, 59, 68
1, 482594, Note_off_c, 0, 47, 62
1, 482612, Note_off_c, 0, 68, 61
1, 482626, Note_off_c, 0, 80, 57
1, 482636, Note_off_c, 0, 78, 48
1, 482762, Note_on_c, 0, 56, 71
1, 482781, Note_off_c, 0, 56, 65
1, 482782, Note_on_c, 0, 44, 41
1, 482816, Note_off_c, 0, 44, 54
1, 482831, Note_on_c, 0, 68, 93
1, 482839, Note_on_c, 0, 76, 77
1, 482839, Note_on_c, 0, 80, 82
1, 482841, Note_on_c, 0, 61, 94
1, 482854, Note_off_c, 0, 68, 60
1, 482863, Note_off_c, 0, 76, 66
1, 482864, Note_on_c, 0, 49, 46
1, 482872, Note_off_c, 0, 80, 53
1, 482879, Note_off_c, 0, 61, 58
1, 482893, Note_off_c, 0, 49, 57
1, 482910, Control_c, 0, 64, 76
1, 482924, Control_c, 0, 64, 51
1, 482937, Poly_aftertouch_c, 0, 48, 0
1, 482938, Poly_aftertouch_c, 0, 56, 0
1, 482939, Control_c, 0, 64, 0
1, 482955, Poly_aftertouch_c, 0, 51, 0
1, 483015, Control_c, 0, 64, 59
1, 483029, Control_c, 0, 64, 107
1, 483032, Note_on_c, 0, 60, 94
1, 483035, Note_on_c, 0, 69, 98
1, 483036, Note_on_c, 0, 76, 93
1, 483040, Note_on_c, 0, 81, 93
1, 483041, Note_on_c, 0, 48, 73
1, 483044, Control_c, 0, 64, 127
1, 483051, Note_off_c, 0, 60, 70
1, 483066, Note_on_c, 0, 78, 50
1, 483068, Note_off_c, 0, 48, 66
1, 483072, Note_off_c, 0, 76, 57
1, 483076, Note_off_c, 0, 69, 61
1, 483091, Note_off_c, 0, 78, 57
1, 483098, Note_off_c, 0, 81, 62
1, 483111, Note_on_c, 0, 59, 3
1, 483148, Note_off_c, 0, 59, 45
1, 483184, Note_on_c, 0, 78, 44
1, 483204, Note_on_c, 0, 54, 78
1, 483217, Note_on_c, 0, 42, 68
1, 483226, Note_off_c, 0, 54, 69
1, 483228, Note_off_c, 0, 78, 51
1, 483249, Note_off_c, 0, 42, 64
1, 483296, Note_on_c, 0, 71, 85
1, 483299, Note_on_c, 0, 83, 91
1, 483300, Note_on_c, 0, 47, 97
1, 483301, Note_on_c, 0, 75, 75
1, 483304, Note_on_c, 0, 69, 87
1, 483315, Note_off_c, 0, 83, 73
1, 483321, Note_on_c, 0, 35, 56
1, 483322, Note_on_c, 0, 78, 43
1, 483322, Note_off_c, 0, 78, 127
1, 483322, Note_off_c, 0, 75, 69
1, 483334, Note_on_c, 0, 72, 29
1, 483334, Note_off_c, 0, 72, 127
1, 483342, Note_off_c, 0, 47, 60
1, 483348, Note_off_c, 0, 69, 58
1, 483349, Note_off_c, 0, 71, 59
1, 483351, Note_off_c, 0, 35, 57
1, 483373, Poly_aftertouch_c, 0, 72, 0
1, 483466, Control_c, 0, 64, 74
1, 483481, Control_c, 0, 64, 0
1, 483498, Note_on_c, 0, 47, 72
1, 483500, Note_on_c, 0, 52, 100
1, 483501, Note_on_c, 0, 44, 83
1, 483504, Note_on_c, 0, 64, 96
1, 483506, Note_on_c, 0, 68, 88
1, 483511, Note_on_c, 0, 76, 80
1, 483521, Note_on_c, 0, 40, 57
1, 483522, Note_off_c, 0, 64, 71
1, 483524, Note_on_c, 0, 73, 63
1, 483526, Control_c, 0, 64, 60
1, 483528, Note_off_c, 0, 68, 55
1, 483533, Note_on_c, 0, 67, 55
1, 483533, Note_off_c, 0, 67, 127
1, 483539, Note_on_c, 0, 74, 48
1, 483539, Note_off_c, 0, 74, 127
1, 483540, Control_c, 0, 64, 89
1, 483549, Note_off_c, 0, 40, 54
1, 483550, Note_off_c, 0, 73, 68
1, 483555, Control_c, 0, 64, 127
1, 483556, Note_off_c, 0, 52, 56
1, 483563, Note_off_c, 0, 76, 65
1, 483590, Note_off_c, 0, 47, 62
1, 483648, Note_off_c, 0, 44, 61
1, 483697, Note_on_c, 0, 52, 90
1, 483700, Note_on_c, 0, 40, 64
1, 483700, Note_on_c, 0, 76, 98
1, 483706, Note_on_c, 0, 88, 89
1, 483715, Note_off_c, 0, 52, 73
1, 483715, Note_off_c, 0, 76, 75
1, 483724, Note_off_c, 0, 88, 72
1, 483729, Note_off_c, 0, 40, 58
1, 483733, Note_on_c, 0, 42, 32
1, 483765, Note_off_c, 0, 42, 0
1, 483767, Note_on_c, 0, 77, 100
1, 483771, Note_on_c, 0, 51, 98
1, 483773, Note_on_c, 0, 89, 90
1, 483776, Note_on_c, 0, 84, 88
1, 483778, Poly_aftertouch_c, 0, 42, 0
1, 483783, Note_on_c, 0, 87, 23
1, 483786, Note_on_c, 0, 39, 78
1, 483792, Note_off_c, 0, 87, 49
1, 483804, Note_on_c, 0, 88, 53
1, 483804, Note_off_c, 0, 88, 127
1, 483807, Note_on_c, 0, 44, 46
1, 483811, Note_off_c, 0, 51, 63
1, 483823, Note_off_c, 0, 39, 59
1, 483823, Poly_aftertouch_c, 0, 85, 0
1, 483826, Note_off_c, 0, 77, 49
1, 483829, Note_off_c, 0, 44, 64
1, 483840, Note_off_c, 0, 89, 59
1, 483846, Note_off_c, 0, 84, 60
1, 483942, Control_c, 0, 64, 72
1, 483957, Control_c, 0, 64, 0
1, 483969, Note_on_c, 0, 50, 107
1, 483975, Note_on_c, 0, 77, 106
1, 483975, Note_on_c, 0, 86, 95
1, 483976, Note_on_c, 0, 82, 98
1, 483979, Note_on_c, 0, 89, 100
1, 483980, Note_on_c, 0, 38, 84
1, 483999, Note_on_c, 0, 40, 43
1, 484001, Control_c, 0, 64, 61
1, 484004, Note_off_c, 0, 38, 66
1, 484016, Control_c, 0, 64, 95
1, 484019, Note_on_c, 0, 88, 21
1, 484031, Control_c, 0, 64, 127
1, 484033, Note_off_c, 0, 50, 58
1, 484034, Note_off_c, 0, 77, 58
1, 484035, Note_off_c, 0, 82, 61
1, 484037, Note_off_c, 0, 40, 47
1, 484052, Note_off_c, 0, 88, 45
1, 484053, Note_off_c, 0, 86, 61
1, 484058, Note_off_c, 0, 89, 63
1, 484061, Poly_aftertouch_c, 0, 44, 0
1, 484178, Note_on_c, 0, 53, 96
1, 484185, Note_on_c, 0, 86, 89
1, 484188, Note_on_c, 0, 79, 93
1, 484189, Note_on_c, 0, 41, 65
1, 484197, Note_off_c, 0, 53, 72
1, 484198, Note_on_c, 0, 91, 72
1, 484203, Note_off_c, 0, 79, 77
1, 484209, Note_off_c, 0, 86, 64
1, 484216, Note_off_c, 0, 91, 66
1, 484218, Note_off_c, 0, 41, 62
1, 484228, Note_on_c, 0, 87, 15
1, 484228, Note_off_c, 0, 87, 127
1, 484253, Note_on_c, 0, 52, 100
1, 484257, Note_on_c, 0, 80, 102
1, 484264, Note_on_c, 0, 40, 80
1, 484264, Note_on_c, 0, 92, 92
1, 484274, Note_on_c, 0, 93, 80
1, 484274, Note_off_c, 0, 52, 69
1, 484277, Poly_aftertouch_c, 0, 87, 0
1, 484288, Note_off_c, 0, 40, 65
1, 484296, Note_on_c, 0, 89, 37
1, 484296, Note_off_c, 0, 93, 52
1, 484307, Note_off_c, 0, 80, 64
1, 484307, Note_off_c, 0, 92, 63
1, 484329, Note_off_c, 0, 89, 51
1, 484329, Poly_aftertouch_c, 0, 90, 127
1, 484371, Note_on_c, 0, 40, 54
1, 484371, Poly_aftertouch_c, 0, 91, 0
1, 484374, Poly_aftertouch_c, 0, 90, 0
1, 484423, Control_c, 0, 64, 88
1, 484425, Note_off_c, 0, 40, 54
1, 484437, Control_c, 0, 64, 51
1, 484452, Control_c, 0, 64, 0
1, 484457, Note_on_c, 0, 37, 61
1, 484457, Note_on_c, 0, 45, 105
1, 484459, Note_on_c, 0, 40, 70
1, 484464, Note_on_c, 0, 81, 108
1, 484464, Note_on_c, 0, 88, 104
1, 484464, Note_on_c, 0, 85, 95
1, 484468, Note_on_c, 0, 93, 108
1, 484473, Note_on_c, 0, 33, 53
1, 484482, Control_c, 0, 64, 58
1, 484490, Note_on_c, 0, 90, 33
1, 484496, Control_c, 0, 64, 127
1, 484499, Note_off_c, 0, 40, 64
1, 484501, Note_off_c, 0, 37, 63
1, 484508, Note_off_c, 0, 33, 55
1, 484512, Note_off_c, 0, 45, 68
1, 484514, Note_off_c, 0, 93, 63
1, 484526, Note_off_c, 0, 81, 69
1, 484532, Note_off_c, 0, 90, 46
1, 484547, Note_off_c, 0, 88, 63
1, 484563, Note_off_c, 0, 85, 63
1, 484678, Poly_aftertouch_c, 0, 49, 127
1, 484723, Note_on_c, 0, 57, 97
1, 484727, Poly_aftertouch_c, 0, 49, 0
1, 484729, Note_on_c, 0, 45, 76
1, 484732, Poly_aftertouch_c, 0, 51, 0
1, 484742, Note_off_c, 0, 57, 69
1, 484745, Note_off_c, 0, 45, 69
1, 484756, Note_on_c, 0, 46, 38
1, 484771, Note_on_c, 0, 51, 5
1, 484790, Note_off_c, 0, 46, 52
1, 484802, Note_off_c, 0, 51, 52
1, 484815, Note_on_c, 0, 59, 94
1, 484818, Note_on_c, 0, 57, 84
1, 484827, Note_on_c, 0, 47, 73
1, 484846, Note_off_c, 0, 47, 63
1, 484859, Note_off_c, 0, 59, 62
1, 484863, Note_off_c, 0, 57, 62
1, 484919, Note_on_c, 0, 55, 4
1, 484988, Note_off_c, 0, 55, 42
1, 485009, Control_c, 0, 64, 116
1, 485010, Note_on_c, 0, 61, 108
1, 485018, Note_on_c, 0, 69, 107
1, 485019, Note_on_c, 0, 76, 104
1, 485020, Note_on_c, 0, 73, 91
1, 485023, Note_on_c, 0, 49, 87
1, 485024, Control_c, 0, 64, 63
1, 485024, Note_on_c, 0, 81, 98
1, 485038, Control_c, 0, 64, 0
1, 485045, Note_on_c, 0, 58, 40
1, 485045, Note_off_c, 0, 58, 127
1, 485048, Note_off_c, 0, 61, 67
1, 485054, Note_on_c, 0, 78, 40
1, 485072, Note_off_c, 0, 49, 60
1, 485083, Control_c, 0, 64, 53
1, 485097, Note_off_c, 0, 78, 45
1, 485098, Control_c, 0, 64, 76
1, 485112, Control_c, 0, 64, 127
1, 485239, Note_on_c, 0, 57, 88
1, 485252, Note_off_c, 0, 69, 55
1, 485258, Note_off_c, 0, 57, 72
1, 485265, Note_on_c, 0, 45, 44
1, 485298, Note_off_c, 0, 45, 51
1, 485318, Note_on_c, 0, 56, 105
1, 485326, Note_off_c, 0, 73, 57
1, 485332, Note_on_c, 0, 44, 81
1, 485337, Note_off_c, 0, 76, 47
1, 485355, Note_off_c, 0, 81, 55
1, 485364, Note_off_c, 0, 44, 63
1, 485364, Note_off_c, 0, 56, 63
1, 485367, Note_on_c, 0, 46, 31
1, 485412, Note_off_c, 0, 46, 50
1, 485529, Control_c, 0, 64, 107
1, 485532, Poly_aftertouch_c, 0, 48, 127
1, 485543, Control_c, 0, 64, 64
1, 485558, Control_c, 0, 64, 0
1, 485567, Poly_aftertouch_c, 0, 48, 0
1, 485575, Note_on_c, 0, 54, 111
1, 485587, Note_on_c, 0, 42, 79
1, 485588, Control_c, 0, 64, 40
1, 485603, Control_c, 0, 64, 68
1, 485607, Note_off_c, 0, 42, 68
1, 485617, Control_c, 0, 64, 127
1, 485644, Note_off_c, 0, 54, 61
1, 485650, Poly_aftertouch_c, 0, 48, 0
1, 485808, Note_on_c, 0, 47, 39
1, 485811, Note_on_c, 0, 95, 83
1, 485811, Note_on_c, 0, 83, 84
1, 485828, Note_off_c, 0, 83, 73
1, 485829, Note_off_c, 0, 95, 72
1, 485838, Note_on_c, 0, 54, 72
1, 485842, Note_off_c, 0, 47, 50
1, 485888, Note_on_c, 0, 62, 97
1, 485891, Note_on_c, 0, 85, 103
1, 485894, Note_on_c, 0, 97, 101
1, 485911, Note_on_c, 0, 56, 60
1, 485914, Note_off_c, 0, 54, 62
1, 485921, Note_off_c, 0, 62, 66
1, 485933, Note_off_c, 0, 56, 61
1, 485952, Note_off_c, 0, 85, 62
1, 485985, Note_off_c, 0, 97, 66
1, 486196, Note_on_c, 0, 86, 107
1, 486200, Note_on_c, 0, 98, 105
1, 486224, Note_on_c, 0, 92, 56
1, 486227, Note_on_c, 0, 96, 51
1, 486228, Note_on_c, 0, 94, 45
1, 486228, Note_off_c, 0, 94, 127
1, 486240, Note_off_c, 0, 98, 67
1, 486249, Note_off_c, 0, 92, 39
1, 486250, Note_off_c, 0, 96, 60
1, 486263, Note_off_c, 0, 86, 56
1, 486454, Note_on_c, 0, 83, 95
1, 486460, Note_on_c, 0, 95, 70
1, 486468, Note_off_c, 0, 83, 76
1, 486479, Note_off_c, 0, 95, 65
1, 486485, Note_on_c, 0, 90, 28
1, 486495, Note_on_c, 0, 92, 17
1, 486512, Note_off_c, 0, 90, 0
1, 486516, Note_off_c, 0, 92, 38
1, 486523, Note_on_c, 0, 90, 64
1, 486524, Note_on_c, 0, 81, 111
1, 486528, Note_on_c, 0, 50, 99
1, 486528, Note_on_c, 0, 93, 102
1, 486532, Note_on_c, 0, 47, 89
1, 486548, Note_on_c, 0, 38, 55
1, 486550, Note_on_c, 0, 40, 50
1, 486566, Note_off_c, 0, 50, 59
1, 486571, Note_off_c, 0, 93, 63
1, 486581, Note_off_c, 0, 38, 54
1, 486582, Note_off_c, 0, 40, 53
1, 486593, Note_off_c, 0, 81, 56
1, 486603, Note_off_c, 0, 47, 53
1, 486615, Poly_aftertouch_c, 0, 43, 127
1, 486638, Note_off_c, 0, 90, 57
1, 486699, Control_c, 0, 64, 82
1, 486713, Poly_aftertouch_c, 0, 43, 0
1, 486714, Control_c, 0, 64, 49
1, 486724, Note_on_c, 0, 81, 107
1, 486726, Note_on_c, 0, 52, 107
1, 486726, Note_on_c, 0, 86, 100
1, 486729, Note_on_c, 0, 40, 81
1, 486729, Control_c, 0, 64, 0
1, 486731, Note_on_c, 0, 93, 102
1, 486734, Note_on_c, 0, 47, 82
1, 486734, Note_on_c, 0, 48, 72
1, 486738, Note_on_c, 0, 90, 76
1, 486744, Control_c, 0, 64, 66
1, 486747, Note_on_c, 0, 50, 64
1, 486747, Note_off_c, 0, 50, 127
1, 486753, Note_on_c, 0, 42, 40
1, 486759, Control_c, 0, 64, 127
1, 486777, Note_off_c, 0, 90, 42
1, 486786, Note_off_c, 0, 93, 63
1, 486789, Note_off_c, 0, 81, 62
1, 486793, Note_off_c, 0, 42, 33
1, 486794, Note_off_c, 0, 40, 58
1, 486796, Note_off_c, 0, 52, 61
1, 486815, Note_off_c, 0, 48, 60
1, 486827, Note_off_c, 0, 47, 58
1, 486845, Note_off_c, 0, 86, 50
1, 486918, Note_on_c, 0, 52, 81
1, 486920, Note_on_c, 0, 80, 88
1, 486926, Note_on_c, 0, 40, 54
1, 486926, Note_on_c, 0, 92, 77
1, 486931, Note_on_c, 0, 86, 66
1, 486935, Note_off_c, 0, 52, 73
1, 486936, Note_off_c, 0, 80, 73
1, 486940, Note_on_c, 0, 47, 60
1, 486941, Note_off_c, 0, 92, 70
1, 486958, Note_off_c, 0, 86, 68
1, 486961, Note_off_c, 0, 47, 64
1, 486970, Note_off_c, 0, 40, 49
1, 486989, Note_on_c, 0, 78, 98
1, 486996, Note_on_c, 0, 86, 79
1, 486999, Note_on_c, 0, 90, 77
1, 487013, Note_on_c, 0, 47, 77
1, 487018, Note_off_c, 0, 86, 68
1, 487021, Note_on_c, 0, 80, 51
1, 487021, Note_off_c, 0, 80, 127
1, 487028, Note_on_c, 0, 53, 54
1, 487036, Note_off_c, 0, 47, 68
1, 487045, Note_off_c, 0, 90, 63
1, 487051, Note_off_c, 0, 53, 61
1, 487060, Note_off_c, 0, 78, 65
1, 487085, Poly_aftertouch_c, 0, 52, 127
1, 487121, Poly_aftertouch_c, 0, 52, 0
1, 487129, Control_c, 0, 64, 71
1, 487144, Control_c, 0, 64, 0
1, 487191, Note_on_c, 0, 56, 102
1, 487197, Note_on_c, 0, 76, 109
1, 487200, Note_on_c, 0, 88, 98
1, 487202, Note_on_c, 0, 86, 89
1, 487205, Note_on_c, 0, 48, 72
1, 487211, Control_c, 0, 64, 52
1, 487218, Note_on_c, 0, 85, 61
1, 487224, Note_off_c, 0, 56, 57
1, 487226, Control_c, 0, 64, 82
1, 487232, Note_off_c, 0, 85, 42
1, 487233, Note_off_c, 0, 76, 64
1, 487236, Note_off_c, 0, 48, 68
1, 487240, Control_c, 0, 64, 127
1, 487249, Note_off_c, 0, 88, 64
1, 487254, Note_off_c, 0, 86, 63
1, 487272, Poly_aftertouch_c, 0, 82, 127
1, 487274, Poly_aftertouch_c, 0, 46, 127
1, 487305, Poly_aftertouch_c, 0, 47, 0
1, 487305, Poly_aftertouch_c, 0, 82, 0
1, 487312, Poly_aftertouch_c, 0, 46, 0
1, 487376, Note_on_c, 0, 78, 97
1, 487380, Note_on_c, 0, 90, 86
1, 487382, Note_on_c, 0, 51, 79
1, 487388, Note_off_c, 0, 78, 76
1, 487394, Note_on_c, 0, 87, 59
1, 487397, Note_off_c, 0, 90, 73
1, 487401, Note_on_c, 0, 47, 47
1, 487402, Note_off_c, 0, 51, 65
1, 487418, Note_off_c, 0, 87, 41
1, 487430, Note_off_c, 0, 47, 57
1, 487445, Note_on_c, 0, 80, 102
1, 487448, Note_on_c, 0, 92, 99
1, 487449, Note_on_c, 0, 52, 89
1, 487468, Note_on_c, 0, 40, 54
1, 487477, Control_c, 0, 64, 85
1, 487489, Note_off_c, 0, 80, 62
1, 487492, Control_c, 0, 64, 63
1, 487498, Note_on_c, 0, 90, 13
1, 487500, Note_off_c, 0, 40, 50
1, 487501, Note_off_c, 0, 52, 60
1, 487506, Note_off_c, 0, 92, 65
1, 487507, Control_c, 0, 64, 0
1, 487544, Note_off_c, 0, 90, 54
1, 487576, Poly_aftertouch_c, 0, 88, 0
1, 487616, Note_on_c, 0, 49, 96
1, 487621, Note_on_c, 0, 45, 72
1, 487622, Note_on_c, 0, 40, 67
1, 487624, Note_on_c, 0, 81, 106
1, 487628, Note_on_c, 0, 37, 57
1, 487628, Note_on_c, 0, 93, 99
1, 487630, Note_on_c, 0, 85, 81
1, 487637, Note_on_c, 0, 88, 72
1, 487640, Control_c, 0, 64, 75
1, 487645, Note_off_c, 0, 45, 66
1, 487649, Note_off_c, 0, 81, 56
1, 487650, Note_off_c, 0, 85, 73
1, 487652, Note_off_c, 0, 40, 63
1, 487655, Control_c, 0, 64, 127
1, 487656, Note_on_c, 0, 89, 45
1, 487661, Note_off_c, 0, 88, 70
1, 487662, Note_off_c, 0, 49, 66
1, 487665, Note_off_c, 0, 37, 36
1, 487677, Note_off_c, 0, 93, 66
1, 487686, Note_off_c, 0, 89, 54
1, 487796, Note_on_c, 0, 85, 106
1, 487797, Note_on_c, 0, 61, 95
1, 487797, Note_on_c, 0, 97, 102
1, 487814, Note_on_c, 0, 94, 65
1, 487814, Note_off_c, 0, 94, 127
1, 487814, Note_off_c, 0, 61, 69
1, 487815, Note_on_c, 0, 52, 58
1, 487818, Note_off_c, 0, 85, 62
1, 487836, Note_off_c, 0, 97, 64
1, 487838, Note_off_c, 0, 52, 61
1, 487849, Control_c, 0, 64, 81
1, 487863, Control_c, 0, 64, 59
1, 487878, Control_c, 0, 64, 0
1, 487926, Note_on_c, 0, 94, 37
1, 487954, Note_off_c, 0, 94, 59
1, 487996, Note_on_c, 0, 64, 103
1, 488003, Note_on_c, 0, 88, 107
1, 488003, Note_on_c, 0, 93, 104
1, 488007, Poly_aftertouch_c, 0, 92, 0
1, 488008, Note_on_c, 0, 100, 101
1, 488008, Note_on_c, 0, 97, 95
1, 488010, Note_on_c, 0, 61, 83
1, 488010, Note_on_c, 0, 57, 76
1, 488019, Control_c, 0, 64, 66
1, 488021, Note_on_c, 0, 94, 71
1, 488027, Note_off_c, 0, 64, 62
1, 488034, Control_c, 0, 64, 127
1, 488036, Note_on_c, 0, 98, 52
1, 488036, Note_off_c, 0, 98, 127
1, 488037, Note_off_c, 0, 94, 67
1, 488038, Note_off_c, 0, 57, 68
1, 488047, Note_off_c, 0, 61, 59
1, 488064, Note_off_c, 0, 100, 67
1, 488066, Note_off_c, 0, 88, 63
1, 488093, Note_off_c, 0, 93, 61
1, 488197, Note_off_c, 0, 97, 54
1, 488237, Note_on_c, 0, 44, 61
1, 488276, Note_off_c, 0, 44, 65
1, 488293, Note_on_c, 0, 52, 53
1, 488325, Note_on_c, 0, 59, 76
1, 488325, Note_on_c, 0, 88, 96
1, 488328, Note_on_c, 0, 95, 91
1, 488329, Note_on_c, 0, 100, 90
1, 488342, Note_on_c, 0, 94, 49
1, 488345, Control_c, 0, 64, 94
1, 488347, Note_off_c, 0, 59, 69
1, 488351, Note_on_c, 0, 89, 53
1, 488351, Note_off_c, 0, 89, 127
1, 488360, Control_c, 0, 64, 68
1, 488366, Note_off_c, 0, 88, 63
1, 488372, Note_off_c, 0, 94, 43
1, 488375, Control_c, 0, 64, 0
1, 488381, Note_off_c, 0, 100, 65
1, 488389, Note_off_c, 0, 95, 53
1, 488391, Note_off_c, 0, 52, 44
1, 488424, Note_on_c, 0, 45, 69
1, 488449, Note_off_c, 0, 45, 66
1, 488473, Note_on_c, 0, 52, 47
1, 488492, Note_on_c, 0, 88, 102
1, 488497, Note_on_c, 0, 96, 94
1, 488498, Note_on_c, 0, 100, 95
1, 488506, Note_on_c, 0, 60, 82
1, 488527, Note_off_c, 0, 60, 70
1, 488542, Note_off_c, 0, 88, 58
1, 488561, Note_off_c, 0, 96, 48
1, 488562, Note_off_c, 0, 100, 57
1, 488583, Note_off_c, 0, 52, 61
1, 488601, Note_on_c, 0, 45, 72
1, 488626, Note_off_c, 0, 45, 66
1, 488634, Note_on_c, 0, 52, 55
1, 488679, Note_off_c, 0, 52, 65
1, 488680, Note_on_c, 0, 88, 102
1, 488680, Control_c, 0, 64, 79
1, 488683, Note_on_c, 0, 98, 96
1, 488683, Note_on_c, 0, 100, 98
1, 488687, Note_on_c, 0, 62, 86
1, 488694, Control_c, 0, 64, 127
1, 488719, Note_off_c, 0, 62, 59
1, 488735, Note_off_c, 0, 88, 58
1, 488735, Note_off_c, 0, 100, 67
1, 488739, Note_off_c, 0, 98, 60
1, 488857, Note_on_c, 0, 61, 83
1, 488858, Note_on_c, 0, 88, 98
1, 488862, Note_on_c, 0, 97, 84
1, 488865, Note_on_c, 0, 100, 78
1, 488873, Note_off_c, 0, 88, 76
1, 488877, Note_off_c, 0, 97, 70
1, 488878, Note_off_c, 0, 61, 70
1, 488881, Note_off_c, 0, 100, 70
1, 488890, Note_on_c, 0, 52, 32
1, 488923, Note_on_c, 0, 88, 106
1, 488923, Note_on_c, 0, 100, 103
1, 488928, Note_on_c, 0, 60, 95
1, 488932, Note_off_c, 0, 52, 0
1, 488932, Note_on_c, 0, 52, 53
1, 488935, Note_on_c, 0, 97, 81
1, 488957, Note_off_c, 0, 97, 59
1, 488972, Note_off_c, 0, 52, 63
1, 488982, Note_off_c, 0, 60, 54
1, 488987, Note_off_c, 0, 100, 65
1, 488998, Note_off_c, 0, 88, 61
1, 489096, Note_on_c, 0, 88, 104
1, 489096, Note_on_c, 0, 95, 99
1, 489099, Note_on_c, 0, 59, 80
1, 489101, Note_on_c, 0, 100, 99
1, 489102, Note_on_c, 0, 52, 73
1, 489131, Note_off_c, 0, 88, 66
1, 489134, Note_off_c, 0, 59, 63
1, 489145, Note_off_c, 0, 100, 64
1, 489173, Note_off_c, 0, 52, 59
1, 489181, Note_off_c, 0, 95, 62
1, 489239, Note_on_c, 0, 58, 90
1, 489244, Note_on_c, 0, 52, 73
1, 489245, Note_on_c, 0, 88, 107
1, 489246, Note_on_c, 0, 94, 103
1, 489247, Note_on_c, 0, 100, 106
1, 489268, Note_on_c, 0, 98, 63
1, 489269, Note_off_c, 0, 58, 63
1, 489284, Note_off_c, 0, 98, 41
1, 489285, Note_off_c, 0, 88, 57
1, 489307, Note_off_c, 0, 52, 59
1, 489308, Note_off_c, 0, 100, 67
1, 489329, Note_off_c, 0, 94, 63
1, 489345, Note_on_c, 0, 45, 63
1, 489373, Note_off_c, 0, 45, 64
1, 489385, Note_on_c, 0, 52, 79
1, 489394, Note_on_c, 0, 88, 104
1, 489394, Note_on_c, 0, 93, 101
1, 489397, Note_on_c, 0, 100, 111
1, 489421, Note_on_c, 0, 59, 64
1, 489427, Note_off_c, 0, 52, 64
1, 489436, Note_off_c, 0, 59, 67
1, 489483, Note_off_c, 0, 88, 63
1, 489486, Note_off_c, 0, 100, 66
1, 489499, Note_off_c, 0, 93, 54
1, 489526, Note_on_c, 0, 40, 51
1, 489532, Control_c, 0, 64, 100
1, 489547, Control_c, 0, 64, 60
1, 489561, Note_off_c, 0, 40, 49
1, 489562, Control_c, 0, 64, 0
1, 489571, Note_on_c, 0, 88, 99
1, 489572, Note_on_c, 0, 41, 15
1, 489572, Note_on_c, 0, 100, 110
1, 489573, Note_on_c, 0, 49, 61
1, 489576, Note_on_c, 0, 93, 89
1, 489577, Control_c, 0, 64, 53
1, 489591, Control_c, 0, 64, 74
1, 489596, Note_on_c, 0, 57, 86
1, 489597, Note_on_c, 0, 89, 53
1, 489606, Note_off_c, 0, 93, 57
1, 489606, Control_c, 0, 64, 127
1, 489618, Note_off_c, 0, 57, 71
1, 489620, Note_off_c, 0, 41, 31
1, 489621, Note_off_c, 0, 89, 61
1, 489650, Note_off_c, 0, 88, 64
1, 489653, Note_off_c, 0, 100, 67
1, 489659, Note_off_c, 0, 49, 62
1, 489683, Note_on_c, 0, 48, 15
1, 489695, Note_on_c, 0, 40, 65
1, 489711, Note_off_c, 0, 48, 0
1, 489719, Note_off_c, 0, 40, 58
1, 489725, Control_c, 0, 64, 72
1, 489730, Note_on_c, 0, 48, 35
1, 489739, Note_on_c, 0, 88, 104
1, 489739, Note_on_c, 0, 92, 109
1, 489740, Control_c, 0, 64, 50
1, 489740, Note_on_c, 0, 100, 113
1, 489750, Note_on_c, 0, 42, 3
1, 489755, Control_c, 0, 64, 62
1, 489761, Note_on_c, 0, 56, 90
1, 489770, Control_c, 0, 64, 82
1, 489783, Note_off_c, 0, 56, 66
1, 489784, Control_c, 0, 64, 127
1, 489791, Note_off_c, 0, 42, 36
1, 489810, Note_off_c, 0, 92, 66
1, 489811, Poly_aftertouch_c, 0, 45, 0
1, 489820, Note_off_c, 0, 88, 62
1, 489827, Note_off_c, 0, 100, 65
1, 489830, Note_off_c, 0, 48, 63
1, 489837, Note_on_c, 0, 41, 54
1, 489889, Note_off_c, 0, 41, 61
1, 489902, Control_c, 0, 64, 77
1, 489906, Note_on_c, 0, 49, 82
1, 489917, Control_c, 0, 64, 48
1, 489925, Note_on_c, 0, 93, 105
1, 489926, Note_on_c, 0, 88, 98
1, 489928, Note_on_c, 0, 100, 112
1, 489932, Control_c, 0, 64, 45
1, 489947, Control_c, 0, 64, 71
1, 489950, Note_on_c, 0, 57, 82
1, 489962, Control_c, 0, 64, 127
1, 489967, Note_off_c, 0, 49, 64
1, 489982, Note_off_c, 0, 57, 64
1, 490006, Note_off_c, 0, 100, 66
1, 490020, Note_off_c, 0, 88, 59
1, 490127, Note_off_c, 0, 93, 61
1, 490175, Note_on_c, 0, 61, 105
1, 490177, Note_on_c, 0, 88, 106
1, 490179, Note_on_c, 0, 56, 92
1, 490181, Note_on_c, 0, 52, 83
1, 490181, Note_on_c, 0, 97, 103
1, 490182, Note_on_c, 0, 100, 109
1, 490199, Note_on_c, 0, 94, 64
1, 490206, Note_on_c, 0, 93, 42
1, 490243, Note_on_c, 0, 95, 19
1, 490247, Note_off_c, 0, 93, 46
1, 490252, Control_c, 0, 64, 78
1, 490266, Note_on_c, 0, 54, 3
1, 490266, Control_c, 0, 64, 33
1, 490281, Control_c, 0, 64, 0
1, 490311, Control_c, 0, 64, 43
1, 490314, Note_off_c, 0, 94, 23
1, 490321, Note_off_c, 0, 54, 40
1, 490326, Control_c, 0, 64, 72
1, 490327, Poly_aftertouch_c, 0, 96, 0
1, 490332, Note_off_c, 0, 95, 37
1, 490340, Control_c, 0, 64, 127
1, 490360, Note_off_c, 0, 52, 39
1, 490394, Note_off_c, 0, 100, 60
1, 490434, Note_off_c, 0, 88, 53
1, 490491, Note_off_c, 0, 61, 54
1, 490521, Note_off_c, 0, 56, 51
1, 490551, Note_off_c, 0, 97, 40
1, 490747, Note_on_c, 0, 59, 102
1, 490751, Note_on_c, 0, 95, 108
1, 490752, Note_on_c, 0, 88, 114
1, 490753, Note_on_c, 0, 56, 95
1, 490759, Note_on_c, 0, 100, 106
1, 490765, Note_on_c, 0, 52, 72
1, 490766, Note_on_c, 0, 50, 71
1, 490780, Note_on_c, 0, 94, 49
1, 490785, Note_off_c, 0, 100, 64
1, 490794, Note_on_c, 0, 54, 39
1, 490804, Note_off_c, 0, 88, 69
1, 490808, Note_off_c, 0, 94, 35
1, 490813, Note_off_c, 0, 95, 67
1, 490816, Note_off_c, 0, 59, 58
1, 490826, Note_off_c, 0, 54, 55
1, 490830, Note_off_c, 0, 50, 61
1, 490831, Note_off_c, 0, 56, 61
1, 490834, Note_off_c, 0, 52, 62
1, 491117, Note_on_c, 0, 57, 109
1, 491119, Note_on_c, 0, 52, 95
1, 491120, Note_on_c, 0, 49, 92
1, 491130, Note_on_c, 0, 45, 78
1, 491150, Note_on_c, 0, 46, 53
1, 491162, Control_c, 0, 64, 93
1, 491177, Control_c, 0, 64, 62
1, 491178, Note_off_c, 0, 46, 60
1, 491192, Control_c, 0, 64, 0
1, 491251, Control_c, 0, 64, 45
1, 491266, Control_c, 0, 64, 70
1, 491281, Control_c, 0, 64, 104
1, 491296, Control_c, 0, 64, 127
1, 491355, Note_off_c, 0, 45, 60
1, 491370, Note_off_c, 0, 57, 57
1, 491388, Note_off_c, 0, 52, 59
1, 491394, Note_off_c, 0, 49, 62
1, 491409, Note_on_c, 0, 81, 96
1, 491413, Note_on_c, 0, 93, 87
1, 491425, Note_off_c, 0, 81, 73
1, 491432, Note_off_c, 0, 93, 72
1, 491474, Note_on_c, 0, 81, 98
1, 491475, Note_on_c, 0, 93, 91
1, 491522, Note_off_c, 0, 93, 63
1, 491525, Note_off_c, 0, 81, 56
1, 491639, Note_on_c, 0, 81, 105
1, 491644, Note_on_c, 0, 93, 96
1, 491665, Note_off_c, 0, 93, 75
1, 491673, Note_off_c, 0, 81, 64
1, 491689, Note_on_c, 0, 91, 32
1, 491689, Note_off_c, 0, 91, 127
1, 491866, Note_on_c, 0, 69, 71
1, 491877, Note_on_c, 0, 57, 58
1, 491888, Note_off_c, 0, 69, 66
1, 491928, Note_on_c, 0, 69, 94
1, 491931, Note_off_c, 0, 57, 0
1, 491931, Note_on_c, 0, 57, 43
1, 491975, Note_off_c, 0, 69, 59
1, 491985, Note_off_c, 0, 57, 54
1, 492050, Poly_aftertouch_c, 0, 64, 0
1, 492113, Note_on_c, 0, 69, 102
1, 492115, Note_on_c, 0, 57, 73
1, 492163, Note_off_c, 0, 57, 62
1, 492169, Note_off_c, 0, 69, 64
1, 492208, Poly_aftertouch_c, 0, 59, 0
1, 492345, Note_on_c, 0, 57, 62
1, 492348, Note_on_c, 0, 45, 70
1, 492364, Note_off_c, 0, 57, 63
1, 492369, Note_off_c, 0, 45, 62
1, 492417, Note_on_c, 0, 45, 88
1, 492420, Note_on_c, 0, 57, 82
1, 492431, Note_on_c, 0, 49, 57
1, 492453, Note_off_c, 0, 49, 63
1, 492459, Note_off_c, 0, 57, 48
1, 492466, Note_off_c, 0, 45, 61
1, 492527, Poly_aftertouch_c, 0, 54, 0
1, 492530, Poly_aftertouch_c, 0, 55, 0
1, 492570, Control_c, 0, 64, 82
1, 492586, Control_c, 0, 64, 48
1, 492601, Control_c, 0, 64, 0
1, 492601, Note_on_c, 0, 45, 106
1, 492606, Note_on_c, 0, 57, 96
1, 492622, Note_on_c, 0, 54, 61
1, 492625, Note_on_c, 0, 47, 61
1, 492625, Note_off_c, 0, 47, 127
1, 492631, Control_c, 0, 64, 44
1, 492646, Control_c, 0, 64, 65
1, 492651, Note_off_c, 0, 54, 38
1, 492655, Note_on_c, 0, 55, 33
1, 492660, Control_c, 0, 64, 77
1, 492675, Control_c, 0, 64, 103
1, 492682, Note_off_c, 0, 45, 59
1, 492690, Control_c, 0, 64, 127
1, 492738, Note_off_c, 0, 55, 30
1, 492741, Note_off_c, 0, 57, 52
1, 492816, Note_on_c, 0, 33, 94
1, 492827, Note_on_c, 0, 21, 77
1, 492840, Note_off_c, 0, 33, 69
1, 492843, Note_on_c, 0, 27, 45
1, 492852, Note_off_c, 0, 21, 62
1, 492861, Note_on_c, 0, 25, 15
1, 492880, Note_off_c, 0, 27, 55
1, 492885, Note_on_c, 0, 22, 3
1, 492885, Note_off_c, 0, 22, 0
1, 492889, Note_on_c, 0, 33, 95
1, 492906, Note_on_c, 0, 21, 68
1, 492919, Note_off_c, 0, 25, 47
1, 492938, Note_off_c, 0, 21, 53
1, 492948, Note_off_c, 0, 33, 60
1, 493081, Poly_aftertouch_c, 0, 22, 0
1, 493104, Control_c, 0, 64, 111
1, 493113, Note_on_c, 0, 33, 105
1, 493115, Note_on_c, 0, 27, 105
1, 493119, Control_c, 0, 64, 64
1, 493120, Note_on_c, 0, 57, 112
1, 493124, Note_on_c, 0, 22, 57
1, 493125, Note_on_c, 0, 21, 80
1, 493126, Note_on_c, 0, 69, 97
1, 493133, Control_c, 0, 64, 53
1, 493135, Note_on_c, 0, 31, 58
1, 493136, Note_on_c, 0, 63, 71
1, 493136, Note_off_c, 0, 63, 127
1, 493151, Note_on_c, 0, 25, 40
1, 493156, Control_c, 0, 64, 67
1, 493157, Note_off_c, 0, 27, 62
1, 493162, Note_off_c, 0, 21, 59
1, 493167, Note_off_c, 0, 22, 61
1, 493171, Control_c, 0, 64, 85
1, 493179, Note_off_c, 0, 31, 52
1, 493185, Control_c, 0, 64, 127
1, 493186, Note_off_c, 0, 33, 65
1, 493191, Note_off_c, 0, 25, 54
1, 493219, Note_off_c, 0, 69, 56
1, 493233, Note_off_c, 0, 57, 57
1, 493278, Poly_aftertouch_c, 0, 64, 0
1, 493382, Note_on_c, 0, 66, 82
1, 493386, Note_on_c, 0, 60, 75
1, 493389, Note_on_c, 0, 54, 81
1, 493396, Note_on_c, 0, 63, 58
1, 493403, Note_off_c, 0, 66, 67
1, 493405, Note_on_c, 0, 48, 55
1, 493408, Note_off_c, 0, 60, 72
1, 493412, Note_off_c, 0, 54, 64
1, 493418, Note_off_c, 0, 63, 63
1, 493451, Note_on_c, 0, 51, 75
1, 493453, Poly_aftertouch_c, 0, 54, 0
1, 493454, Note_on_c, 0, 66, 92
1, 493457, Note_on_c, 0, 60, 92
1, 493471, Note_on_c, 0, 63, 71
1, 493481, Note_off_c, 0, 51, 66
1, 493484, Note_off_c, 0, 48, 64
1, 493502, Note_off_c, 0, 60, 60
1, 493510, Note_off_c, 0, 63, 51
1, 493546, Note_off_c, 0, 66, 56
1, 493704, Control_c, 0, 64, 74
1, 493720, Control_c, 0, 64, 0
1, 493728, Note_on_c, 0, 33, 102
1, 493731, Note_on_c, 0, 57, 104
1, 493734, Note_on_c, 0, 69, 94
1, 493738, Note_on_c, 0, 21, 84
1, 493739, Note_on_c, 0, 27, 80
1, 493743, Note_on_c, 0, 25, 78
1, 493743, Note_off_c, 0, 25, 127
1, 493746, Note_on_c, 0, 22, 64
1, 493746, Note_off_c, 0, 22, 127
1, 493749, Control_c, 0, 64, 51
1, 493752, Note_on_c, 0, 31, 61
1, 493752, Note_off_c, 0, 31, 127
1, 493759, Note_on_c, 0, 63, 42
1, 493759, Note_off_c, 0, 63, 127
1, 493763, Note_off_c, 0, 27, 63
1, 493764, Control_c, 0, 64, 68
1, 493772, Note_off_c, 0, 21, 54
1, 493776, Note_on_c, 0, 67, 18
1, 493779, Control_c, 0, 64, 102
1, 493780, Note_off_c, 0, 33, 64
1, 493794, Control_c, 0, 64, 127
1, 493815, Note_off_c, 0, 67, 30
1, 493823, Note_off_c, 0, 57, 56
1, 493824, Note_off_c, 0, 69, 57
1, 493969, Note_on_c, 0, 54, 88
1, 493972, Note_on_c, 0, 66, 80
1, 493976, Note_on_c, 0, 60, 76
1, 493982, Note_on_c, 0, 63, 70
1, 493987, Note_on_c, 0, 48, 57
1, 493990, Note_off_c, 0, 54, 71
1, 493993, Note_off_c, 0, 66, 67
1, 493994, Note_on_c, 0, 51, 39
1, 493995, Note_off_c, 0, 60, 73
1, 494010, Note_off_c, 0, 63, 66
1, 494023, Note_off_c, 0, 48, 0
1, 494031, Note_on_c, 0, 54, 95
1, 494031, Note_off_c, 0, 51, 47
1, 494040, Note_on_c, 0, 66, 94
1, 494046, Note_on_c, 0, 60, 87
1, 494049, Note_off_c, 0, 54, 73
1, 494055, Note_on_c, 0, 63, 77
1, 494064, Poly_aftertouch_c, 0, 48, 0
1, 494088, Note_on_c, 0, 52, 19
1, 494090, Note_off_c, 0, 60, 61
1, 494107, Note_off_c, 0, 63, 49
1, 494127, Note_off_c, 0, 52, 44
1, 494136, Note_off_c, 0, 66, 54
1, 494280, Note_on_c, 0, 57, 92
1, 494283, Note_on_c, 0, 33, 92
1, 494288, Note_on_c, 0, 69, 75
1, 494298, Note_on_c, 0, 21, 65
1, 494299, Note_off_c, 0, 57, 70
1, 494300, Note_on_c, 0, 27, 57
1, 494301, Note_off_c, 0, 69, 71
1, 494304, Note_off_c, 0, 33, 72
1, 494305, Note_on_c, 0, 25, 55
1, 494312, Note_on_c, 0, 22, 34
1, 494321, Control_c, 0, 64, 74
1, 494331, Note_off_c, 0, 27, 60
1, 494334, Note_off_c, 0, 21, 0
1, 494336, Control_c, 0, 64, 0
1, 494338, Note_off_c, 0, 22, 0
1, 494341, Note_off_c, 0, 25, 0
1, 494342, Note_on_c, 0, 57, 106
1, 494343, Note_on_c, 0, 33, 100
1, 494346, Note_on_c, 0, 69, 101
1, 494348, Note_on_c, 0, 21, 58
1, 494348, Poly_aftertouch_c, 0, 25, 0
1, 494350, Poly_aftertouch_c, 0, 22, 0
1, 494366, Poly_aftertouch_c, 0, 63, 0
1, 494376, Note_on_c, 0, 22, 13
1, 494377, Note_on_c, 0, 67, 49
1, 494377, Note_off_c, 0, 21, 63
1, 494380, Control_c, 0, 64, 57
1, 494395, Control_c, 0, 64, 82
1, 494398, Note_off_c, 0, 33, 66
1, 494405, Note_off_c, 0, 67, 52
1, 494410, Control_c, 0, 64, 127
1, 494430, Note_off_c, 0, 22, 32
1, 494436, Note_off_c, 0, 57, 58
1, 494438, Note_off_c, 0, 69, 54
1, 494556, Note_on_c, 0, 54, 91
1, 494558, Note_on_c, 0, 60, 89
1, 494559, Note_on_c, 0, 66, 87
1, 494569, Note_on_c, 0, 63, 71
1, 494575, Note_off_c, 0, 54, 73
1, 494575, Note_on_c, 0, 48, 56
1, 494579, Note_off_c, 0, 60, 71
1, 494581, Note_off_c, 0, 66, 65
1, 494590, Note_on_c, 0, 51, 31
1, 494596, Note_off_c, 0, 63, 68
1, 494605, Note_off_c, 0, 48, 0
1, 494614, Note_on_c, 0, 54, 98
1, 494623, Note_on_c, 0, 66, 92
1, 494626, Note_on_c, 0, 60, 91
1, 494628, Note_off_c, 0, 54, 76
1, 494631, Note_on_c, 0, 48, 44
1, 494634, Note_on_c, 0, 63, 80
1, 494637, Note_off_c, 0, 51, 0
1, 494637, Note_on_c, 0, 51, 7
1, 494664, Note_off_c, 0, 48, 67
1, 494673, Note_off_c, 0, 51, 60
1, 494686, Note_off_c, 0, 60, 64
1, 494721, Note_off_c, 0, 66, 54
1, 494729, Note_off_c, 0, 63, 55
1, 494787, Control_c, 0, 64, 76
1, 494802, Control_c, 0, 64, 34
1, 494813, Note_on_c, 0, 57, 115
1, 494817, Note_on_c, 0, 69, 94
1, 494817, Control_c, 0, 64, 0
1, 494818, Note_on_c, 0, 33, 114
1, 494831, Control_c, 0, 64, 53
1, 494833, Note_on_c, 0, 27, 75
1, 494834, Note_on_c, 0, 21, 78
1, 494834, Note_off_c, 0, 21, 127
1, 494837, Note_on_c, 0, 25, 65
1, 494837, Note_off_c, 0, 25, 127
1, 494840, Note_on_c, 0, 22, 60
1, 494840, Note_off_c, 0, 22, 127
1, 494843, Note_on_c, 0, 63, 49
1, 494843, Note_off_c, 0, 63, 127
1, 494846, Control_c, 0, 64, 67
1, 494859, Note_off_c, 0, 27, 62
1, 494861, Control_c, 0, 64, 100
1, 494864, Note_off_c, 0, 33, 55
1, 494873, Poly_aftertouch_c, 0, 25, 0
1, 494876, Control_c, 0, 64, 127
1, 494907, Note_off_c, 0, 57, 59
1, 494916, Note_off_c, 0, 69, 53
1, 495034, Note_on_c, 0, 60, 87
1, 495034, Note_on_c, 0, 66, 83
1, 495037, Note_on_c, 0, 54, 88
1, 495042, Note_on_c, 0, 63, 68
1, 495055, Note_off_c, 0, 54, 73
1, 495056, Note_on_c, 0, 51, 50
1, 495058, Note_off_c, 0, 60, 70
1, 495058, Note_off_c, 0, 66, 67
1, 495067, Note_off_c, 0, 63, 68
1, 495070, Note_on_c, 0, 48, 36
1, 495083, Note_off_c, 0, 51, 58
1, 495098, Note_on_c, 0, 54, 96
1, 495103, Note_on_c, 0, 66, 89
1, 495105, Note_on_c, 0, 60, 88
1, 495114, Note_on_c, 0, 63, 73
1, 495117, Note_off_c, 0, 54, 73
1, 495118, Note_on_c, 0, 51, 58
1, 495124, Note_off_c, 0, 48, 0
1, 495124, Note_on_c, 0, 48, 3
1, 495141, Note_off_c, 0, 48, 60
1, 495143, Note_off_c, 0, 60, 61
1, 495146, Note_off_c, 0, 51, 58
1, 495164, Note_off_c, 0, 66, 60
1, 495173, Note_off_c, 0, 63, 58
1, 495454, Note_on_c, 0, 58, 104
1, 495458, Note_on_c, 0, 70, 96
1, 495464, Note_on_c, 0, 34, 113
1, 495474, Note_on_c, 0, 22, 90
1, 495482, Note_on_c, 0, 68, 63
1, 495496, Note_on_c, 0, 25, 50
1, 495503, Note_on_c, 0, 32, 40
1, 495514, Note_on_c, 0, 66, 4
1, 495516, Note_on_c, 0, 23, 38
1, 495536, Control_c, 0, 64, 72
1, 495544, Note_off_c, 0, 32, 48
1, 495551, Control_c, 0, 64, 0
1, 495597, Note_off_c, 0, 23, 53
1, 495600, Note_off_c, 0, 22, 62
1, 495608, Note_off_c, 0, 70, 54
1, 495610, Control_c, 0, 64, 50
1, 495624, Note_off_c, 0, 68, 57
1, 495625, Control_c, 0, 64, 77
1, 495640, Control_c, 0, 64, 127
1, 495642, Note_off_c, 0, 25, 50
1, 495643, Note_off_c, 0, 34, 61
1, 495667, Note_off_c, 0, 66, 20
1, 495752, Note_off_c, 0, 58, 53
1, 495829, Note_on_c, 0, 54, 87
1, 495832, Note_on_c, 0, 66, 78
1, 495838, Note_on_c, 0, 63, 68
1, 495850, Note_off_c, 0, 54, 72
1, 495851, Note_on_c, 0, 51, 53
1, 495853, Note_off_c, 0, 66, 71
1, 495863, Note_off_c, 0, 63, 68
1, 495877, Note_off_c, 0, 51, 58
1, 495900, Note_on_c, 0, 54, 84
1, 495904, Note_on_c, 0, 66, 81
1, 495907, Note_on_c, 0, 63, 81
1, 495913, Note_on_c, 0, 51, 64
1, 495920, Note_off_c, 0, 54, 66
1, 495946, Note_off_c, 0, 51, 62
1, 495957, Note_off_c, 0, 66, 58
1, 495970, Note_off_c, 0, 63, 58
1, 496078, Note_on_c, 0, 54, 96
1, 496083, Note_on_c, 0, 66, 100
1, 496086, Note_on_c, 0, 63, 90
1, 496087, Note_on_c, 0, 51, 79
1, 496108, Note_off_c, 0, 54, 60
1, 496119, Note_on_c, 0, 55, 33
1, 496120, Note_off_c, 0, 51, 61
1, 496147, Note_off_c, 0, 63, 59
1, 496160, Note_off_c, 0, 55, 52
1, 496160, Note_off_c, 0, 66, 58
1, 496300, Note_on_c, 0, 52, 88
1, 496304, Note_on_c, 0, 61, 84
1, 496307, Note_on_c, 0, 49, 74
1, 496307, Note_on_c, 0, 64, 66
1, 496322, Note_off_c, 0, 52, 69
1, 496325, Note_off_c, 0, 61, 69
1, 496327, Note_on_c, 0, 65, 43
1, 496332, Note_off_c, 0, 49, 68
1, 496333, Note_off_c, 0, 64, 66
1, 496358, Note_off_c, 0, 65, 55
1, 496366, Note_on_c, 0, 61, 91
1, 496377, Note_on_c, 0, 49, 86
1, 496380, Note_on_c, 0, 52, 66
1, 496382, Note_on_c, 0, 64, 73
1, 496402, Note_off_c, 0, 52, 67
1, 496417, Note_off_c, 0, 61, 57
1, 496419, Note_off_c, 0, 49, 59
1, 496420, Note_off_c, 0, 64, 46
1, 496537, Control_c, 0, 64, 98
1, 496552, Control_c, 0, 64, 64
1, 496567, Note_on_c, 0, 64, 86
1, 496568, Note_on_c, 0, 46, 90
1, 496568, Note_on_c, 0, 58, 93
1, 496568, Control_c, 0, 64, 0
1, 496572, Note_on_c, 0, 49, 76
1, 496572, Note_on_c, 0, 52, 75
1, 496574, Note_on_c, 0, 61, 70
1, 496599, Note_off_c, 0, 52, 63
1, 496613, Control_c, 0, 64, 62
1, 496622, Note_off_c, 0, 49, 46
1, 496627, Control_c, 0, 64, 80
1, 496641, Note_off_c, 0, 58, 61
1, 496642, Control_c, 0, 64, 127
1, 496673, Note_off_c, 0, 64, 58
1, 496674, Note_off_c, 0, 61, 47
1, 496778, Note_on_c, 0, 50, 66
1, 496778, Note_on_c, 0, 53, 57
1, 496778, Note_on_c, 0, 65, 86
1, 496786, Note_on_c, 0, 62, 70
1, 496802, Note_off_c, 0, 53, 59
1, 496807, Note_off_c, 0, 50, 64
1, 496811, Note_off_c, 0, 62, 64
1, 496811, Note_off_c, 0, 65, 61
1, 496860, Note_on_c, 0, 65, 59
1, 496862, Note_on_c, 0, 62, 70
1, 496868, Note_on_c, 0, 50, 76
1, 496876, Note_on_c, 0, 53, 59
1, 496879, Control_c, 0, 64, 90
1, 496883, Note_off_c, 0, 62, 62
1, 496901, Control_c, 0, 64, 68
1, 496909, Note_off_c, 0, 65, 55
1, 496910, Note_off_c, 0, 53, 53
1, 496916, Control_c, 0, 64, 0
1, 496935, Note_off_c, 0, 50, 53
1, 497048, Note_on_c, 0, 53, 67
1, 497050, Note_on_c, 0, 50, 70
1, 497054, Note_on_c, 0, 65, 83
1, 497056, Note_on_c, 0, 62, 72
1, 497064, Control_c, 0, 64, 58
1, 497074, Note_off_c, 0, 53, 66
1, 497079, Control_c, 0, 64, 82
1, 497082, Note_off_c, 0, 62, 66
1, 497084, Note_off_c, 0, 50, 62
1, 497094, Control_c, 0, 64, 127
1, 497098, Note_off_c, 0, 46, 39
1, 497103, Note_off_c, 0, 65, 64
1, 497232, Note_on_c, 0, 46, 71
1, 497233, Note_on_c, 0, 54, 76
1, 497257, Note_on_c, 0, 63, 20
1, 497260, Note_off_c, 0, 54, 68
1, 497268, Note_off_c, 0, 46, 59
1, 497286, Control_c, 0, 64, 106
1, 497296, Note_off_c, 0, 63, 51
1, 497299, Note_on_c, 0, 67, 70
1, 497301, Control_c, 0, 64, 68
1, 497306, Note_on_c, 0, 58, 72
1, 497311, Note_on_c, 0, 55, 76
1, 497316, Control_c, 0, 64, 0
1, 497344, Note_on_c, 0, 64, 13
1, 497347, Note_off_c, 0, 67, 59
1, 497349, Note_on_c, 0, 65, 13
1, 497350, Note_off_c, 0, 55, 60
1, 497364, Note_off_c, 0, 58, 51
1, 497399, Note_off_c, 0, 65, 51
1, 497403, Note_off_c, 0, 64, 32
1, 497493, Note_on_c, 0, 56, 96
1, 497498, Note_on_c, 0, 59, 78
1, 497499, Note_on_c, 0, 65, 79
1, 497500, Note_on_c, 0, 53, 73
1, 497500, Note_on_c, 0, 68, 84
1, 497511, Note_on_c, 0, 47, 41
1, 497517, Note_off_c, 0, 59, 72
1, 497518, Note_off_c, 0, 56, 61
1, 497521, Note_off_c, 0, 65, 71
1, 497523, Note_off_c, 0, 53, 66
1, 497523, Control_c, 0, 64, 50
1, 497538, Control_c, 0, 64, 97
1, 497545, Note_off_c, 0, 47, 33
1, 497547, Note_off_c, 0, 68, 65
1, 497553, Control_c, 0, 64, 127
1, 497711, Note_on_c, 0, 83, 92
1, 497720, Note_on_c, 0, 95, 72
1, 497728, Note_off_c, 0, 83, 74
1, 497736, Note_off_c, 0, 95, 67
1, 497743, Note_on_c, 0, 84, 46
1, 497743, Note_off_c, 0, 84, 127
1, 497776, Note_on_c, 0, 83, 88
1, 497779, Note_on_c, 0, 95, 85
1, 497806, Note_off_c, 0, 95, 56
1, 497814, Note_off_c, 0, 83, 53
1, 497944, Note_on_c, 0, 83, 102
1, 497946, Note_on_c, 0, 95, 103
1, 497964, Note_off_c, 0, 95, 67
1, 497969, Note_off_c, 0, 83, 62
1, 498155, Note_on_c, 0, 71, 80
1, 498170, Note_off_c, 0, 71, 69
1, 498172, Note_on_c, 0, 59, 49
1, 498210, Note_off_c, 0, 59, 0
1, 498210, Note_on_c, 0, 59, 53
1, 498211, Note_on_c, 0, 71, 95
1, 498232, Note_off_c, 0, 71, 63
1, 498237, Note_off_c, 0, 59, 62
1, 498399, Note_on_c, 0, 71, 107
1, 498407, Note_on_c, 0, 59, 78
1, 498411, Note_off_c, 0, 71, 78
1, 498428, Note_off_c, 0, 59, 72
1, 498510, Poly_aftertouch_c, 0, 61, 0
1, 498641, Note_on_c, 0, 59, 89
1, 498647, Note_on_c, 0, 71, 86
1, 498650, Note_on_c, 0, 35, 98
1, 498658, Note_off_c, 0, 59, 74
1, 498661, Note_off_c, 0, 71, 72
1, 498663, Note_on_c, 0, 23, 73
1, 498672, Note_on_c, 0, 27, 53
1, 498672, Note_off_c, 0, 27, 127
1, 498673, Note_off_c, 0, 35, 67
1, 498701, Note_off_c, 0, 23, 0
1, 498711, Note_on_c, 0, 71, 89
1, 498712, Note_on_c, 0, 35, 102
1, 498712, Note_on_c, 0, 59, 97
1, 498717, Note_on_c, 0, 23, 62
1, 498722, Poly_aftertouch_c, 0, 27, 0
1, 498754, Note_off_c, 0, 23, 60
1, 498760, Note_off_c, 0, 35, 57
1, 498774, Note_off_c, 0, 71, 60
1, 498783, Note_off_c, 0, 59, 55
1, 498888, Control_c, 0, 64, 66
1, 498900, Note_on_c, 0, 35, 117
1, 498903, Control_c, 0, 64, 0
1, 498905, Note_on_c, 0, 59, 109
1, 498912, Note_on_c, 0, 71, 97
1, 498914, Note_on_c, 0, 23, 67
1, 498915, Note_on_c, 0, 30, 71
1, 498915, Note_off_c, 0, 30, 127
1, 498918, Control_c, 0, 64, 46
1, 498920, Note_on_c, 0, 68, 72
1, 498923, Note_on_c, 0, 25, 52
1, 498931, Note_on_c, 0, 27, 45
1, 498933, Control_c, 0, 64, 70
1, 498944, Note_off_c, 0, 23, 35
1, 498947, Note_off_c, 0, 35, 67
1, 498948, Control_c, 0, 64, 127
1, 498969, Note_off_c, 0, 25, 32
1, 498972, Note_off_c, 0, 71, 59
1, 498972, Note_off_c, 0, 27, 57
1, 498989, Note_off_c, 0, 59, 60
1, 499009, Note_off_c, 0, 68, 52
1, 499010, Poly_aftertouch_c, 0, 24, 0
1, 499016, Poly_aftertouch_c, 0, 29, 0
1, 499119, Note_on_c, 0, 68, 87
1, 499125, Note_on_c, 0, 50, 62
1, 499148, Note_on_c, 0, 65, 55
1, 499149, Note_on_c, 0, 53, 52
1, 499152, Note_on_c, 0, 62, 33
1, 499165, Note_off_c, 0, 68, 59
1, 499170, Note_off_c, 0, 65, 63
1, 499174, Note_off_c, 0, 50, 60
1, 499184, Note_off_c, 0, 53, 0
1, 499186, Note_off_c, 0, 62, 53
1, 499188, Note_on_c, 0, 56, 94
1, 499198, Note_on_c, 0, 68, 79
1, 499207, Note_on_c, 0, 61, 88
1, 499208, Note_on_c, 0, 49, 74
1, 499225, Note_off_c, 0, 56, 64
1, 499225, Poly_aftertouch_c, 0, 53, 0
1, 499231, Note_on_c, 0, 63, 52
1, 499238, Note_off_c, 0, 49, 67
1, 499255, Note_off_c, 0, 61, 60
1, 499256, Note_off_c, 0, 63, 62
1, 499297, Note_off_c, 0, 68, 57
1, 499431, Note_on_c, 0, 59, 82
1, 499431, Note_on_c, 0, 71, 85
1, 499437, Note_on_c, 0, 35, 91
1, 499449, Note_off_c, 0, 71, 74
1, 499455, Note_off_c, 0, 59, 66
1, 499459, Note_off_c, 0, 35, 67
1, 499501, Note_on_c, 0, 60, 110
1, 499501, Poly_aftertouch_c, 0, 27, 0
1, 499505, Note_on_c, 0, 30, 2
1, 499505, Note_on_c, 0, 72, 107
1, 499508, Note_on_c, 0, 36, 101
1, 499513, Note_on_c, 0, 38, 103
1, 499515, Poly_aftertouch_c, 0, 23, 0
1, 499517, Note_on_c, 0, 26, 83
1, 499521, Note_on_c, 0, 24, 71
1, 499528, Note_on_c, 0, 68, 47
1, 499538, Note_off_c, 0, 30, 56
1, 499538, Poly_aftertouch_c, 0, 27, 127
1, 499539, Note_on_c, 0, 71, 44
1, 499545, Note_on_c, 0, 32, 36
1, 499548, Control_c, 0, 64, 112
1, 499551, Poly_aftertouch_c, 0, 23, 0
1, 499559, Note_off_c, 0, 68, 53
1, 499563, Note_off_c, 0, 71, 55
1, 499563, Control_c, 0, 64, 70
1, 499567, Note_off_c, 0, 38, 59
1, 499578, Control_c, 0, 64, 0
1, 499587, Note_off_c, 0, 32, 46
1, 499630, Poly_aftertouch_c, 0, 27, 0
1, 499640, Note_off_c, 0, 24, 61
1, 499651, Note_off_c, 0, 26, 62
1, 499666, Control_c, 0, 64, 70
1, 499681, Control_c, 0, 64, 104
1, 499686, Note_off_c, 0, 36, 63
1, 499696, Control_c, 0, 64, 127
1, 499720, Note_off_c, 0, 60, 55
1, 499758, Poly_aftertouch_c, 0, 70, 0
1, 499782, Note_off_c, 0, 72, 58
1, 499827, Note_on_c, 0, 65, 79
1, 499827, Note_on_c, 0, 68, 77
1, 499849, Note_off_c, 0, 68, 70
1, 499851, Note_off_c, 0, 65, 69
1, 499862, Note_on_c, 0, 53, 51
1, 499872, Note_on_c, 0, 56, 36
1, 499897, Note_off_c, 0, 53, 0
1, 499897, Note_on_c, 0, 53, 43
1, 499904, Note_on_c, 0, 65, 88
1, 499904, Note_on_c, 0, 68, 94
1, 499957, Note_off_c, 0, 65, 55
1, 499968, Note_off_c, 0, 56, 59
1, 500000, Note_off_c, 0, 53, 59
1, 500029, Note_off_c, 0, 68, 59
1, 500070, Note_on_c, 0, 56, 99
1, 500075, Note_on_c, 0, 53, 78
1, 500077, Note_on_c, 0, 68, 73
1, 500082, Note_on_c, 0, 65, 90
1, 500109, Note_off_c, 0, 65, 64
1, 500117, Note_off_c, 0, 68, 67
1, 500118, Note_off_c, 0, 56, 60
1, 500128, Note_off_c, 0, 53, 62
1, 500286, Note_on_c, 0, 66, 78
1, 500287, Note_on_c, 0, 63, 77
1, 500293, Note_on_c, 0, 54, 76
1, 500300, Note_on_c, 0, 51, 67
1, 500308, Note_off_c, 0, 63, 70
1, 500310, Note_off_c, 0, 66, 65
1, 500319, Note_off_c, 0, 54, 67
1, 500328, Note_off_c, 0, 51, 64
1, 500362, Note_on_c, 0, 66, 85
1, 500364, Note_on_c, 0, 54, 86
1, 500367, Note_on_c, 0, 51, 83
1, 500374, Note_on_c, 0, 63, 55
1, 500393, Note_on_c, 0, 62, 53
1, 500404, Note_off_c, 0, 63, 56
1, 500410, Note_off_c, 0, 54, 57
1, 500416, Note_off_c, 0, 51, 59
1, 500420, Note_off_c, 0, 62, 58
1, 500443, Poly_aftertouch_c, 0, 60, 127
1, 500444, Note_off_c, 0, 66, 58
1, 500477, Poly_aftertouch_c, 0, 60, 0
1, 500564, Note_on_c, 0, 54, 70
1, 500564, Note_on_c, 0, 60, 76
1, 500565, Control_c, 0, 64, 108
1, 500569, Note_on_c, 0, 66, 73
1, 500569, Note_on_c, 0, 48, 62
1, 500572, Note_on_c, 0, 63, 70
1, 500574, Note_on_c, 0, 51, 55
1, 500580, Control_c, 0, 64, 70
1, 500594, Control_c, 0, 64, 0
1, 500601, Note_off_c, 0, 51, 57
1, 500604, Note_off_c, 0, 54, 57
1, 500647, Control_c, 0, 64, 38
1, 500649, Note_off_c, 0, 63, 59
1, 500659, Note_off_c, 0, 66, 58
1, 500662, Control_c, 0, 64, 64
1, 500676, Control_c, 0, 64, 81
1, 500691, Control_c, 0, 64, 127
1, 500751, Note_off_c, 0, 60, 0
1, 500766, Note_on_c, 0, 52, 69
1, 500768, Note_on_c, 0, 55, 67
1, 500772, Note_on_c, 0, 67, 78
1, 500778, Note_on_c, 0, 64, 63
1, 500780, Note_on_c, 0, 60, 29
1, 500794, Control_c, 0, 64, 120
1, 500795, Note_off_c, 0, 67, 68
1, 500796, Note_off_c, 0, 55, 66
1, 500797, Note_off_c, 0, 52, 65
1, 500798, Note_off_c, 0, 64, 66
1, 500809, Control_c, 0, 64, 70
1, 500824, Control_c, 0, 64, 0
1, 500833, Note_off_c, 0, 60, 0
1, 500833, Note_on_c, 0, 60, 44
1, 500855, Note_on_c, 0, 55, 69
1, 500856, Note_on_c, 0, 52, 61
1, 500856, Note_on_c, 0, 64, 61
1, 500856, Note_on_c, 0, 67, 51
1, 500876, Note_off_c, 0, 64, 65
1, 500877, Note_off_c, 0, 67, 62
1, 500884, Note_off_c, 0, 55, 65
1, 500914, Note_off_c, 0, 52, 56
1, 501004, Note_off_c, 0, 60, 0
1, 501031, Note_on_c, 0, 60, 8
1, 501031, Note_on_c, 0, 52, 73
1, 501034, Note_on_c, 0, 64, 62
1, 501035, Note_on_c, 0, 67, 69
1, 501040, Note_on_c, 0, 55, 66
1, 501058, Note_off_c, 0, 64, 65
1, 501061, Control_c, 0, 64, 52
1, 501065, Note_off_c, 0, 67, 60
1, 501070, Note_off_c, 0, 55, 66
1, 501074, Note_off_c, 0, 48, 58
1, 501076, Control_c, 0, 64, 86
1, 501081, Note_off_c, 0, 52, 50
1, 501083, Note_off_c, 0, 60, 49
1, 501091, Control_c, 0, 64, 127
1, 501210, Note_on_c, 0, 68, 65
1, 501222, Note_on_c, 0, 53, 58
1, 501225, Note_on_c, 0, 56, 59
1, 501235, Note_off_c, 0, 68, 66
1, 501246, Note_off_c, 0, 53, 61
1, 501246, Note_off_c, 0, 56, 61
1, 501268, Control_c, 0, 64, 89
1, 501273, Note_on_c, 0, 60, 73
1, 501281, Note_on_c, 0, 48, 33
1, 501283, Control_c, 0, 64, 60
1, 501285, Note_on_c, 0, 57, 87
1, 501286, Note_on_c, 0, 66, 72
1, 501289, Note_on_c, 0, 69, 63
1, 501298, Control_c, 0, 64, 0
1, 501307, Note_off_c, 0, 60, 66
1, 501307, Note_off_c, 0, 69, 65
1, 501317, Note_off_c, 0, 48, 65
1, 501321, Note_on_c, 0, 68, 28
1, 501321, Note_off_c, 0, 66, 63
1, 501324, Note_on_c, 0, 54, 34
1, 501333, Note_off_c, 0, 57, 60
1, 501358, Note_off_c, 0, 54, 45
1, 501358, Note_off_c, 0, 68, 41
1, 501473, Note_on_c, 0, 58, 94
1, 501477, Note_on_c, 0, 61, 84
1, 501480, Note_on_c, 0, 55, 75
1, 501485, Note_on_c, 0, 67, 67
1, 501487, Note_on_c, 0, 70, 68
1, 501490, Note_on_c, 0, 49, 51
1, 501497, Note_off_c, 0, 61, 70
1, 501499, Control_c, 0, 64, 45
1, 501499, Note_off_c, 0, 58, 65
1, 501505, Note_off_c, 0, 55, 68
1, 501511, Note_off_c, 0, 67, 69
1, 501511, Note_off_c, 0, 70, 56
1, 501514, Control_c, 0, 64, 84
1, 501516, Note_off_c, 0, 49, 62
1, 501523, Note_on_c, 0, 71, 50
1, 501529, Control_c, 0, 64, 127
1, 501547, Note_off_c, 0, 71, 57
1, 501690, Note_on_c, 0, 85, 91
1, 501691, Note_on_c, 0, 97, 90
1, 501705, Note_off_c, 0, 85, 76
1, 501709, Note_off_c, 0, 97, 73
1, 501757, Note_on_c, 0, 97, 89
1, 501762, Note_on_c, 0, 85, 88
1, 501786, Note_off_c, 0, 85, 62
1, 501809, Note_off_c, 0, 97, 66
1, 501932, Note_on_c, 0, 97, 100
1, 501933, Note_on_c, 0, 85, 101
1, 501964, Note_off_c, 0, 97, 68
1, 501965, Note_off_c, 0, 85, 64
1, 502142, Note_on_c, 0, 73, 94
1, 502150, Note_on_c, 0, 61, 75
1, 502156, Note_off_c, 0, 73, 76
1, 502178, Note_off_c, 0, 61, 64
1, 502209, Note_on_c, 0, 73, 90
1, 502233, Note_on_c, 0, 61, 59
1, 502245, Note_off_c, 0, 73, 59
1, 502248, Note_off_c, 0, 61, 68
1, 502370, Note_on_c, 0, 73, 105
1, 502382, Note_on_c, 0, 61, 63
1, 502386, Note_off_c, 0, 73, 72
1, 502405, Note_on_c, 0, 63, 51
1, 502413, Note_off_c, 0, 61, 63
1, 502429, Note_off_c, 0, 63, 58
1, 502603, Note_on_c, 0, 37, 89
1, 502605, Note_on_c, 0, 61, 93
1, 502612, Note_on_c, 0, 73, 74
1, 502615, Note_on_c, 0, 67, 66
1, 502617, Note_on_c, 0, 31, 63
1, 502621, Note_on_c, 0, 70, 58
1, 502623, Note_off_c, 0, 61, 72
1, 502630, Note_off_c, 0, 37, 64
1, 502632, Note_on_c, 0, 33, 41
1, 502632, Note_off_c, 0, 73, 71
1, 502641, Note_off_c, 0, 70, 64
1, 502642, Note_off_c, 0, 67, 67
1, 502649, Note_on_c, 0, 25, 10
1, 502650, Note_off_c, 0, 31, 60
1, 502673, Note_off_c, 0, 33, 45
1, 502677, Note_on_c, 0, 61, 97
1, 502678, Note_on_c, 0, 73, 86
1, 502679, Poly_aftertouch_c, 0, 27, 127
1, 502680, Note_on_c, 0, 37, 82
1, 502683, Note_on_c, 0, 31, 67
1, 502688, Note_on_c, 0, 70, 80
1, 502697, Note_on_c, 0, 34, 64
1, 502704, Note_on_c, 0, 67, 60
1, 502714, Poly_aftertouch_c, 0, 27, 0
1, 502720, Note_off_c, 0, 37, 62
1, 502731, Note_off_c, 0, 25, 37
1, 502746, Note_off_c, 0, 73, 62
1, 502765, Note_off_c, 0, 61, 53
1, 502770, Note_off_c, 0, 34, 59
1, 502775, Note_off_c, 0, 70, 62
1, 502790, Note_off_c, 0, 67, 37
1, 502810, Control_c, 0, 64, 122
1, 502825, Control_c, 0, 64, 69
1, 502833, Note_off_c, 0, 31, 0
1, 502840, Control_c, 0, 64, 0
1, 502845, Note_on_c, 0, 31, 64
1, 502846, Note_on_c, 0, 37, 98
1, 502847, Note_on_c, 0, 34, 76
1, 502850, Note_on_c, 0, 61, 110
1, 502852, Note_on_c, 0, 73, 101
1, 502853, Note_on_c, 0, 70, 96
1, 502855, Note_on_c, 0, 25, 70
1, 502857, Note_on_c, 0, 67, 76
1, 502870, Control_c, 0, 64, 49
1, 502892, Control_c, 0, 64, 76
1, 502893, Note_off_c, 0, 25, 61
1, 502906, Control_c, 0, 64, 127
1, 502908, Note_off_c, 0, 61, 64
1, 502926, Note_off_c, 0, 37, 61
1, 502933, Note_off_c, 0, 73, 61
1, 502946, Note_off_c, 0, 70, 53
1, 502955, Note_off_c, 0, 34, 53
1, 502960, Note_off_c, 0, 31, 52
1, 502960, Note_off_c, 0, 67, 57
1, 503047, Note_on_c, 0, 38, 94
1, 503057, Note_on_c, 0, 70, 82
1, 503059, Note_on_c, 0, 62, 87
1, 503060, Note_on_c, 0, 34, 67
1, 503060, Note_on_c, 0, 67, 76
1, 503066, Note_on_c, 0, 74, 71
1, 503067, Note_on_c, 0, 31, 60
1, 503073, Note_off_c, 0, 38, 68
1, 503076, Note_off_c, 0, 70, 72
1, 503079, Note_off_c, 0, 62, 71
1, 503081, Note_off_c, 0, 67, 70
1, 503084, Note_on_c, 0, 26, 25
1, 503084, Note_off_c, 0, 74, 41
1, 503088, Note_off_c, 0, 34, 65
1, 503100, Control_c, 0, 64, 110
1, 503103, Note_off_c, 0, 31, 58
1, 503115, Control_c, 0, 64, 70
1, 503125, Note_on_c, 0, 62, 90
1, 503130, Note_on_c, 0, 38, 85
1, 503130, Control_c, 0, 64, 0
1, 503131, Note_off_c, 0, 26, 42
1, 503133, Note_on_c, 0, 74, 86
1, 503134, Note_on_c, 0, 70, 78
1, 503154, Note_on_c, 0, 34, 38
1, 503154, Note_off_c, 0, 34, 127
1, 503164, Note_off_c, 0, 38, 62
1, 503178, Note_off_c, 0, 62, 61
1, 503181, Note_off_c, 0, 74, 59
1, 503196, Note_off_c, 0, 70, 55
1, 503204, Poly_aftertouch_c, 0, 31, 0
1, 503290, Note_on_c, 0, 37, 98
1, 503296, Note_on_c, 0, 39, 90
1, 503296, Note_on_c, 0, 63, 104
1, 503299, Note_on_c, 0, 34, 74
1, 503300, Note_on_c, 0, 75, 91
1, 503303, Note_on_c, 0, 73, 83
1, 503304, Note_on_c, 0, 70, 81
1, 503308, Note_on_c, 0, 31, 67
1, 503309, Note_on_c, 0, 27, 63
1, 503322, Control_c, 0, 64, 52
1, 503330, Note_off_c, 0, 70, 62
1, 503337, Note_off_c, 0, 63, 59
1, 503337, Control_c, 0, 64, 99
1, 503340, Note_off_c, 0, 37, 60
1, 503340, Note_off_c, 0, 27, 57
1, 503342, Note_off_c, 0, 34, 61
1, 503343, Note_off_c, 0, 31, 59
1, 503352, Control_c, 0, 64, 127
1, 503357, Note_off_c, 0, 39, 62
1, 503367, Note_off_c, 0, 73, 62
1, 503376, Note_off_c, 0, 75, 61
1, 503439, Poly_aftertouch_c, 0, 76, 0
1, 503528, Note_on_c, 0, 87, 100
1, 503535, Note_on_c, 0, 99, 82
1, 503542, Note_off_c, 0, 87, 75
1, 503556, Note_off_c, 0, 99, 71
1, 503609, Note_on_c, 0, 87, 73
1, 503643, Note_off_c, 0, 87, 61
1, 503655, Note_on_c, 0, 99, 3
1, 503655, Note_off_c, 0, 99, 127
1, 503766, Note_on_c, 0, 99, 100
1, 503767, Note_on_c, 0, 87, 109
1, 503787, Note_on_c, 0, 97, 61
1, 503798, Note_off_c, 0, 87, 67
1, 503801, Note_off_c, 0, 99, 66
1, 503810, Note_off_c, 0, 97, 43
1, 503967, Note_on_c, 0, 75, 80
1, 503975, Note_on_c, 0, 63, 68
1, 503990, Note_off_c, 0, 75, 67
1, 504000, Note_off_c, 0, 63, 66
1, 504032, Note_on_c, 0, 75, 97
1, 504037, Note_on_c, 0, 63, 69
1, 504063, Note_off_c, 0, 63, 66
1, 504064, Note_on_c, 0, 66, 49
1, 504073, Note_off_c, 0, 75, 61
1, 504088, Note_off_c, 0, 66, 58
1, 504136, Poly_aftertouch_c, 0, 73, 0
1, 504200, Note_on_c, 0, 75, 96
1, 504208, Note_on_c, 0, 63, 79
1, 504215, Note_off_c, 0, 75, 74
1, 504255, Note_off_c, 0, 63, 61
1, 504323, Poly_aftertouch_c, 0, 65, 0
1, 504444, Note_on_c, 0, 63, 95
1, 504446, Note_on_c, 0, 37, 99
1, 504449, Note_on_c, 0, 75, 78
1, 504453, Note_on_c, 0, 39, 80
1, 504456, Note_on_c, 0, 34, 69
1, 504457, Note_on_c, 0, 70, 62
1, 504462, Note_off_c, 0, 63, 67
1, 504465, Note_on_c, 0, 73, 56
1, 504469, Note_off_c, 0, 75, 69
1, 504469, Note_off_c, 0, 37, 63
1, 504474, Note_on_c, 0, 27, 43
1, 504476, Note_off_c, 0, 70, 66
1, 504477, Note_off_c, 0, 39, 67
1, 504478, Note_on_c, 0, 31, 36
1, 504488, Note_off_c, 0, 34, 63
1, 504488, Note_off_c, 0, 73, 60
1, 504504, Note_off_c, 0, 31, 0
1, 504521, Note_on_c, 0, 63, 97
1, 504523, Note_on_c, 0, 75, 93
1, 504528, Note_on_c, 0, 37, 61
1, 504530, Note_on_c, 0, 39, 85
1, 504532, Note_on_c, 0, 31, 32
1, 504532, Poly_aftertouch_c, 0, 30, 127
1, 504538, Note_on_c, 0, 34, 61
1, 504538, Note_on_c, 0, 70, 80
1, 504540, Note_on_c, 0, 73, 85
1, 504541, Poly_aftertouch_c, 0, 32, 0
1, 504551, Note_off_c, 0, 37, 56
1, 504561, Poly_aftertouch_c, 0, 32, 0
1, 504571, Poly_aftertouch_c, 0, 30, 0
1, 504585, Note_off_c, 0, 39, 56
1, 504599, Note_off_c, 0, 27, 43
1, 504607, Note_off_c, 0, 75, 58
1, 504608, Note_off_c, 0, 34, 45
1, 504627, Note_off_c, 0, 63, 55
1, 504656, Note_off_c, 0, 73, 54
1, 504668, Note_off_c, 0, 70, 32
1, 504701, Control_c, 0, 64, 73
1, 504702, Note_off_c, 0, 31, 0
1, 504714, Note_on_c, 0, 37, 95
1, 504716, Note_on_c, 0, 39, 85
1, 504716, Control_c, 0, 64, 0
1, 504716, Note_on_c, 0, 63, 109
1, 504718, Note_on_c, 0, 31, 48
1, 504720, Note_on_c, 0, 75, 98
1, 504722, Note_on_c, 0, 70, 82
1, 504723, Note_on_c, 0, 34, 69
1, 504728, Note_on_c, 0, 27, 62
1, 504728, Note_on_c, 0, 73, 83
1, 504746, Control_c, 0, 64, 56
1, 504760, Control_c, 0, 64, 82
1, 504769, Note_off_c, 0, 27, 64
1, 504772, Note_off_c, 0, 37, 59
1, 504775, Control_c, 0, 64, 127
1, 504782, Note_on_c, 0, 72, 5
1, 504782, Note_off_c, 0, 63, 67
1, 504796, Note_off_c, 0, 75, 55
1, 504806, Note_off_c, 0, 39, 60
1, 504817, Note_off_c, 0, 34, 55
1, 504819, Note_off_c, 0, 31, 57
1, 504844, Note_off_c, 0, 70, 55
1, 504844, Note_off_c, 0, 72, 49
1, 504855, Note_off_c, 0, 73, 55
1, 504930, Note_on_c, 0, 40, 91
1, 504938, Note_on_c, 0, 64, 91
1, 504940, Note_on_c, 0, 31, 70
1, 504941, Note_on_c, 0, 34, 71
1, 504941, Note_on_c, 0, 70, 85
1, 504945, Note_on_c, 0, 73, 79
1, 504952, Note_on_c, 0, 28, 47
1, 504954, Note_off_c, 0, 64, 73
1, 504960, Note_off_c, 0, 70, 69
1, 504963, Note_off_c, 0, 73, 72
1, 504967, Note_off_c, 0, 40, 61
1, 504969, Note_on_c, 0, 76, 38
1, 504972, Note_off_c, 0, 34, 63
1, 505006, Note_on_c, 0, 64, 101
1, 505006, Note_off_c, 0, 76, 0
1, 505006, Note_on_c, 0, 76, 51
1, 505010, Note_on_c, 0, 73, 85
1, 505015, Note_on_c, 0, 70, 81
1, 505020, Note_on_c, 0, 40, 80
1, 505034, Note_on_c, 0, 34, 69
1, 505045, Note_off_c, 0, 28, 0
1, 505045, Note_on_c, 0, 28, 4
1, 505069, Note_off_c, 0, 31, 58
1, 505075, Note_off_c, 0, 28, 24
1, 505119, Note_off_c, 0, 40, 55
1, 505148, Note_off_c, 0, 34, 54
1, 505167, Control_c, 0, 64, 106
1, 505169, Note_off_c, 0, 64, 54
1, 505182, Control_c, 0, 64, 65
1, 505196, Note_off_c, 0, 76, 53
1, 505197, Control_c, 0, 64, 0
1, 505205, Note_on_c, 0, 29, 48
1, 505219, Note_off_c, 0, 70, 53
1, 505244, Note_off_c, 0, 73, 53
1, 505271, Control_c, 0, 64, 51
1, 505285, Control_c, 0, 64, 68
1, 505300, Control_c, 0, 64, 81
1, 505313, Note_off_c, 0, 29, 57
1, 505315, Control_c, 0, 64, 109
1, 505330, Control_c, 0, 64, 127
1, 505333, Note_on_c, 0, 41, 57
1, 505345, Control_c, 0, 67, 22
1, 505361, Control_c, 0, 67, 29
1, 505362, Note_off_c, 0, 41, 62
1, 505376, Control_c, 0, 67, 39
1, 505390, Control_c, 0, 67, 59
1, 505405, Control_c, 0, 67, 82
1, 505420, Control_c, 0, 67, 109
1, 505434, Control_c, 0, 67, 127
1, 505449, Control_c, 0, 64, 80
1, 505464, Control_c, 0, 64, 57
1, 505479, Control_c, 0, 64, 0
1, 505518, Note_on_c, 0, 58, 52
1, 505524, Control_c, 0, 64, 45
1, 505539, Control_c, 0, 64, 65
1, 505545, Note_on_c, 0, 61, 40
1, 505545, Note_on_c, 0, 77, 52
1, 505553, Control_c, 0, 64, 75
1, 505566, Note_off_c, 0, 77, 66
1, 505568, Control_c, 0, 64, 89
1, 505583, Control_c, 0, 64, 112
1, 505590, Note_off_c, 0, 61, 59
1, 505598, Control_c, 0, 64, 127
1, 505626, Poly_aftertouch_c, 0, 73, 0
1, 505768, Note_on_c, 0, 89, 81
1, 505774, Note_on_c, 0, 101, 65
1, 505787, Note_off_c, 0, 89, 72
1, 505792, Note_off_c, 0, 101, 63
1, 505827, Note_off_c, 0, 58, 42
1, 505837, Note_on_c, 0, 60, 48
1, 505842, Note_on_c, 0, 89, 66
1, 505844, Note_on_c, 0, 101, 70
1, 505846, Note_on_c, 0, 57, 48
1, 505862, Note_off_c, 0, 89, 59
1, 505869, Note_off_c, 0, 101, 52
1, 505975, Control_c, 0, 64, 74
1, 505990, Control_c, 0, 64, 55
1, 505993, Note_off_c, 0, 57, 57
1, 505999, Note_off_c, 0, 60, 51
1, 506005, Control_c, 0, 64, 42
1, 506020, Control_c, 0, 64, 56
1, 506033, Note_on_c, 0, 58, 49
1, 506033, Note_on_c, 0, 89, 79
1, 506034, Control_c, 0, 64, 65
1, 506037, Note_on_c, 0, 61, 49
1, 506039, Note_on_c, 0, 101, 52
1, 506039, Note_off_c, 0, 101, 127
1, 506049, Control_c, 0, 64, 75
1, 506054, Note_off_c, 0, 89, 72
1, 506064, Control_c, 0, 64, 98
1, 506079, Control_c, 0, 64, 127
1, 506092, Note_off_c, 0, 61, 47
1, 506251, Note_on_c, 0, 89, 73
1, 506252, Note_on_c, 0, 77, 67
1, 506266, Note_off_c, 0, 89, 66
1, 506272, Note_off_c, 0, 77, 67
1, 506299, Note_off_c, 0, 58, 41
1, 506309, Note_on_c, 0, 63, 49
1, 506313, Note_on_c, 0, 60, 45
1, 506337, Note_on_c, 0, 89, 61
1, 506342, Note_off_c, 0, 63, 57
1, 506343, Note_on_c, 0, 77, 45
1, 506346, Note_off_c, 0, 60, 61
1, 506370, Note_off_c, 0, 77, 55
1, 506376, Note_off_c, 0, 89, 42
1, 506451, Control_c, 0, 64, 80
1, 506466, Control_c, 0, 64, 62
1, 506481, Control_c, 0, 64, 46
1, 506495, Control_c, 0, 64, 58
1, 506496, Note_on_c, 0, 60, 44
1, 506498, Note_on_c, 0, 77, 56
1, 506504, Note_on_c, 0, 57, 56
1, 506510, Control_c, 0, 64, 68
1, 506519, Note_off_c, 0, 77, 67
1, 506520, Note_off_c, 0, 60, 62
1, 506525, Control_c, 0, 64, 82
1, 506534, Note_off_c, 0, 57, 65
1, 506540, Control_c, 0, 64, 127
1, 506733, Note_on_c, 0, 65, 65
1, 506755, Control_c, 0, 67, 114
1, 506764, Note_off_c, 0, 65, 65
1, 506769, Note_on_c, 0, 41, 51
1, 506770, Control_c, 0, 67, 74
1, 506782, Note_on_c, 0, 53, 47
1, 506784, Control_c, 0, 67, 29
1, 506799, Control_c, 0, 67, 0
1, 506851, Note_off_c, 0, 41, 58
1, 506859, Note_on_c, 0, 40, 67
1, 506884, Note_on_c, 0, 52, 76
1, 506919, Note_on_c, 0, 39, 78
1, 506921, Note_off_c, 0, 40, 62
1, 506932, Note_on_c, 0, 51, 77
1, 506952, Note_off_c, 0, 53, 21
1, 506960, Note_off_c, 0, 52, 61
1, 506962, Note_off_c, 0, 39, 60
1, 506980, Note_on_c, 0, 38, 86
1, 506980, Note_on_c, 0, 50, 82
1, 506987, Note_off_c, 0, 51, 63
1, 507041, Note_on_c, 0, 49, 81
1, 507044, Note_off_c, 0, 50, 61
1, 507048, Note_on_c, 0, 37, 81
1, 507048, Note_off_c, 0, 38, 63
1, 507088, Note_on_c, 0, 48, 78
1, 507089, Note_off_c, 0, 37, 63
1, 507107, Note_on_c, 0, 36, 87
1, 507132, Note_off_c, 0, 49, 60
1, 507144, Note_on_c, 0, 47, 81
1, 507147, Note_off_c, 0, 48, 64
1, 507172, Note_on_c, 0, 35, 81
1, 507181, Note_off_c, 0, 36, 60
1, 507200, Control_c, 0, 64, 109
1, 507201, Note_on_c, 0, 46, 86
1, 507201, Note_off_c, 0, 47, 53
1, 507214, Control_c, 0, 64, 73
1, 507229, Control_c, 0, 64, 43
1, 507236, Note_on_c, 0, 34, 66
1, 507244, Control_c, 0, 64, 0
1, 507259, Note_off_c, 0, 46, 64
1, 507270, Note_on_c, 0, 45, 92
1, 507279, Note_off_c, 0, 35, 62
1, 507281, Note_on_c, 0, 33, 83
1, 507292, Note_off_c, 0, 34, 64
1, 507303, Control_c, 0, 64, 45
1, 507312, Note_off_c, 0, 33, 68
1, 507318, Control_c, 0, 64, 65
1, 507322, Note_off_c, 0, 45, 65
1, 507333, Control_c, 0, 64, 73
1, 507348, Control_c, 0, 64, 86
1, 507348, Control_c, 0, 67, 23
1, 507363, Control_c, 0, 64, 105
1, 507363, Control_c, 0, 67, 31
1, 507385, Control_c, 0, 64, 127
1, 507385, Control_c, 0, 67, 43
1, 507400, Control_c, 0, 67, 61
1, 507414, Control_c, 0, 67, 81
1, 507429, Control_c, 0, 67, 105
1, 507444, Control_c, 0, 67, 124
1, 507459, Control_c, 0, 67, 127
1, 507503, Control_c, 0, 64, 108
1, 507518, Control_c, 0, 64, 80
1, 507533, Control_c, 0, 64, 60
1, 507548, Control_c, 0, 64, 0
1, 507589, Note_on_c, 0, 53, 50
1, 507596, Note_on_c, 0, 62, 51
1, 507602, Note_on_c, 0, 65, 52
1, 507637, Control_c, 0, 64, 56
1, 507652, Control_c, 0, 64, 69
1, 507667, Control_c, 0, 64, 81
1, 507681, Control_c, 0, 64, 98
1, 507682, Note_off_c, 0, 53, 59
1, 507682, Note_off_c, 0, 62, 62
1, 507694, Note_off_c, 0, 65, 56
1, 507696, Control_c, 0, 64, 114
1, 507711, Control_c, 0, 64, 127
1, 507855, Note_on_c, 0, 81, 72
1, 507857, Note_on_c, 0, 93, 70
1, 507870, Note_off_c, 0, 81, 68
1, 507872, Note_off_c, 0, 93, 67
1, 507895, Note_on_c, 0, 64, 56
1, 507897, Note_on_c, 0, 61, 52
1, 507923, Note_on_c, 0, 81, 79
1, 507923, Note_off_c, 0, 61, 58
1, 507927, Note_on_c, 0, 93, 77
1, 507940, Poly_aftertouch_c, 0, 52, 127
1, 507944, Note_off_c, 0, 81, 56
1, 507947, Note_off_c, 0, 93, 58
1, 507948, Note_off_c, 0, 64, 57
1, 507972, Poly_aftertouch_c, 0, 52, 0
1, 508037, Control_c, 0, 64, 89
1, 508051, Control_c, 0, 64, 66
1, 508066, Control_c, 0, 64, 0
1, 508081, Control_c, 0, 64, 35
1, 508096, Control_c, 0, 64, 61
1, 508101, Note_on_c, 0, 53, 45
1, 508102, Note_on_c, 0, 81, 89
1, 508103, Note_on_c, 0, 93, 77
1, 508105, Note_on_c, 0, 62, 59
1, 508108, Note_on_c, 0, 65, 71
1, 508111, Control_c, 0, 64, 77
1, 508117, Note_off_c, 0, 93, 70
1, 508133, Control_c, 0, 64, 113
1, 508137, Note_off_c, 0, 53, 51
1, 508141, Note_off_c, 0, 81, 61
1, 508144, Note_off_c, 0, 62, 65
1, 508148, Control_c, 0, 64, 127
1, 508171, Note_off_c, 0, 65, 58
1, 508326, Note_on_c, 0, 69, 77
1, 508326, Note_on_c, 0, 81, 78
1, 508347, Note_off_c, 0, 69, 67
1, 508348, Note_off_c, 0, 81, 69
1, 508366, Note_on_c, 0, 55, 44
1, 508366, Note_on_c, 0, 67, 61
1, 508367, Note_on_c, 0, 64, 60
1, 508385, Note_off_c, 0, 67, 66
1, 508394, Note_off_c, 0, 64, 63
1, 508396, Note_on_c, 0, 69, 58
1, 508399, Note_on_c, 0, 81, 77
1, 508415, Note_off_c, 0, 55, 61
1, 508427, Note_off_c, 0, 81, 49
1, 508465, Note_off_c, 0, 69, 48
1, 508518, Control_c, 0, 64, 91
1, 508533, Control_c, 0, 64, 66
1, 508549, Control_c, 0, 64, 39
1, 508564, Control_c, 0, 64, 47
1, 508578, Note_on_c, 0, 52, 52
1, 508578, Control_c, 0, 64, 66
1, 508580, Note_on_c, 0, 69, 75
1, 508585, Note_on_c, 0, 61, 49
1, 508593, Control_c, 0, 64, 84
1, 508594, Note_on_c, 0, 64, 10
1, 508601, Note_off_c, 0, 69, 70
1, 508608, Control_c, 0, 64, 127
1, 508608, Control_c, 0, 67, 115
1, 508611, Note_off_c, 0, 52, 64
1, 508612, Note_off_c, 0, 61, 56
1, 508623, Control_c, 0, 67, 76
1, 508636, Note_off_c, 0, 64, 53
1, 508638, Control_c, 0, 67, 28
1, 508652, Control_c, 0, 67, 0
1, 508788, Note_on_c, 0, 67, 58
1, 508812, Note_off_c, 0, 67, 65
1, 508816, Note_on_c, 0, 45, 58
1, 508831, Note_on_c, 0, 55, 44
1, 508844, Note_on_c, 0, 57, 39
1, 508897, Note_off_c, 0, 57, 48
1, 508913, Note_off_c, 0, 55, 38
1, 508918, Note_off_c, 0, 45, 61
1, 508922, Note_on_c, 0, 44, 71
1, 508939, Note_on_c, 0, 56, 69
1, 508977, Note_on_c, 0, 43, 71
1, 508996, Note_on_c, 0, 55, 74
1, 509004, Note_off_c, 0, 44, 49
1, 509024, Note_on_c, 0, 42, 72
1, 509041, Note_on_c, 0, 54, 80
1, 509043, Note_off_c, 0, 43, 62
1, 509055, Note_off_c, 0, 42, 67
1, 509059, Note_off_c, 0, 55, 61
1, 509062, Note_off_c, 0, 56, 32
1, 509080, Note_on_c, 0, 41, 72
1, 509082, Note_on_c, 0, 53, 76
1, 509085, Note_off_c, 0, 54, 63
1, 509142, Note_off_c, 0, 41, 0
1, 509142, Note_on_c, 0, 40, 70
1, 509149, Note_on_c, 0, 52, 81
1, 509160, Note_on_c, 0, 41, 42
1, 509177, Note_off_c, 0, 40, 65
1, 509179, Note_on_c, 0, 39, 76
1, 509188, Note_off_c, 0, 53, 51
1, 509192, Note_off_c, 0, 41, 43
1, 509193, Note_on_c, 0, 51, 74
1, 509223, Note_off_c, 0, 52, 62
1, 509238, Note_off_c, 0, 39, 59
1, 509238, Control_c, 0, 64, 80
1, 509247, Note_off_c, 0, 51, 63
1, 509250, Note_on_c, 0, 38, 69
1, 509253, Control_c, 0, 64, 52
1, 509256, Note_on_c, 0, 50, 72
1, 509268, Control_c, 0, 64, 0
1, 509284, Note_off_c, 0, 38, 61
1, 509304, Note_on_c, 0, 37, 67
1, 509309, Note_off_c, 0, 50, 54
1, 509319, Note_on_c, 0, 49, 69
1, 509334, Note_off_c, 0, 37, 63
1, 509342, Control_c, 0, 64, 39
1, 509344, Note_off_c, 0, 49, 66
1, 509357, Control_c, 0, 64, 60
1, 509372, Control_c, 0, 64, 69
1, 509372, Control_c, 0, 67, 22
1, 509387, Control_c, 0, 64, 77
1, 509387, Control_c, 0, 67, 27
1, 509402, Control_c, 0, 64, 85
1, 509402, Control_c, 0, 67, 35
1, 509417, Control_c, 0, 64, 89
1, 509417, Control_c, 0, 67, 48
1, 509432, Control_c, 0, 64, 90
1, 509432, Control_c, 0, 67, 65
1, 509447, Control_c, 0, 67, 82
1, 509461, Control_c, 0, 67, 101
1, 509476, Control_c, 0, 67, 116
1, 509491, Control_c, 0, 67, 127
1, 509521, Control_c, 0, 64, 86
1, 509536, Control_c, 0, 64, 76
1, 509550, Control_c, 0, 64, 64
1, 509565, Control_c, 0, 64, 0
1, 509627, Note_on_c, 0, 57, 48
1, 509637, Note_on_c, 0, 69, 53
1, 509641, Note_on_c, 0, 66, 52
1, 509661, Control_c, 0, 64, 55
1, 509676, Control_c, 0, 64, 70
1, 509691, Control_c, 0, 64, 83
1, 509706, Control_c, 0, 64, 113
1, 509721, Control_c, 0, 64, 127
1, 509740, Note_off_c, 0, 57, 56
1, 509786, Note_off_c, 0, 69, 55
1, 509819, Note_off_c, 0, 66, 59
1, 509875, Note_on_c, 0, 97, 79
1, 509878, Note_on_c, 0, 85, 73
1, 509895, Note_off_c, 0, 97, 71
1, 509899, Note_off_c, 0, 85, 71
1, 509923, Note_on_c, 0, 56, 54
1, 509932, Note_on_c, 0, 65, 61
1, 509935, Note_on_c, 0, 68, 71
1, 509941, Note_on_c, 0, 97, 83
1, 509946, Note_on_c, 0, 85, 76
1, 509949, Note_off_c, 0, 56, 60
1, 509959, Note_off_c, 0, 65, 65
1, 509959, Note_off_c, 0, 68, 68
1, 509985, Note_off_c, 0, 85, 57
1, 509997, Note_off_c, 0, 97, 56
1, 510075, Control_c, 0, 64, 98
1, 510090, Control_c, 0, 64, 70
1, 510105, Control_c, 0, 64, 50
1, 510120, Control_c, 0, 64, 42
1, 510122, Note_on_c, 0, 97, 81
1, 510127, Note_on_c, 0, 85, 80
1, 510132, Note_on_c, 0, 69, 65
1, 510132, Note_on_c, 0, 66, 65
1, 510135, Control_c, 0, 64, 60
1, 510142, Note_off_c, 0, 97, 71
1, 510150, Control_c, 0, 64, 71
1, 510157, Note_off_c, 0, 85, 57
1, 510165, Control_c, 0, 64, 86
1, 510171, Note_off_c, 0, 66, 58
1, 510177, Poly_aftertouch_c, 0, 57, 127
1, 510180, Control_c, 0, 64, 115
1, 510195, Control_c, 0, 64, 127
1, 510202, Note_off_c, 0, 69, 60
1, 510222, Poly_aftertouch_c, 0, 57, 0
1, 510349, Note_on_c, 0, 85, 58
1, 510356, Note_on_c, 0, 73, 53
1, 510368, Note_off_c, 0, 85, 64
1, 510398, Note_off_c, 0, 73, 0
1, 510400, Note_on_c, 0, 68, 79
1, 510400, Note_on_c, 0, 71, 71
1, 510411, Note_on_c, 0, 73, 51
1, 510415, Note_on_c, 0, 85, 74
1, 510417, Note_on_c, 0, 59, 45
1, 510423, Note_off_c, 0, 68, 69
1, 510424, Note_off_c, 0, 71, 68
1, 510442, Note_off_c, 0, 59, 57
1, 510450, Note_off_c, 0, 73, 56
1, 510460, Note_off_c, 0, 85, 48
1, 510543, Control_c, 0, 64, 91
1, 510558, Control_c, 0, 64, 64
1, 510573, Control_c, 0, 64, 38
1, 510588, Control_c, 0, 64, 45
1, 510591, Note_on_c, 0, 65, 59
1, 510602, Note_on_c, 0, 68, 60
1, 510603, Control_c, 0, 64, 62
1, 510604, Note_on_c, 0, 73, 79
1, 510605, Note_on_c, 0, 56, 62
1, 510616, Note_off_c, 0, 65, 66
1, 510618, Control_c, 0, 64, 73
1, 510623, Note_off_c, 0, 68, 61
1, 510627, Note_off_c, 0, 73, 66
1, 510632, Control_c, 0, 64, 93
1, 510636, Note_off_c, 0, 56, 65
1, 510647, Control_c, 0, 64, 127
1, 510812, Note_on_c, 0, 49, 58
1, 510816, Note_on_c, 0, 73, 70
1, 510839, Control_c, 0, 67, 125
1, 510854, Control_c, 0, 67, 97
1, 510857, Note_on_c, 0, 61, 12
1, 510869, Control_c, 0, 67, 63
1, 510878, Note_off_c, 0, 73, 62
1, 510879, Note_off_c, 0, 49, 61
1, 510884, Control_c, 0, 67, 24
1, 510898, Control_c, 0, 67, 0
1, 510900, Note_off_c, 0, 61, 59
1, 510909, Note_on_c, 0, 60, 66
1, 510919, Note_on_c, 0, 48, 65
1, 510964, Note_off_c, 0, 60, 0
1, 510986, Poly_aftertouch_c, 0, 60, 0
1, 510990, Note_on_c, 0, 59, 67
1, 510991, Note_off_c, 0, 48, 61
1, 510994, Note_on_c, 0, 47, 67
1, 511032, Note_on_c, 0, 46, 74
1, 511032, Note_on_c, 0, 58, 67
1, 511035, Note_off_c, 0, 47, 63
1, 511062, Note_off_c, 0, 58, 66
1, 511063, Note_off_c, 0, 59, 59
1, 511068, Note_off_c, 0, 46, 63
1, 511075, Note_on_c, 0, 57, 70
1, 511098, Note_on_c, 0, 45, 75
1, 511133, Note_off_c, 0, 57, 54
1, 511141, Note_on_c, 0, 56, 68
1, 511163, Note_off_c, 0, 45, 59
1, 511171, Note_on_c, 0, 44, 72
1, 511204, Note_on_c, 0, 53, 65
1, 511211, Note_on_c, 0, 41, 57
1, 511218, Control_c, 0, 64, 97
1, 511229, Note_off_c, 0, 56, 60
1, 511233, Control_c, 0, 64, 72
1, 511235, Note_off_c, 0, 44, 59
1, 511245, Note_off_c, 0, 53, 60
1, 511247, Control_c, 0, 64, 49
1, 511262, Control_c, 0, 64, 0
1, 511268, Note_on_c, 0, 50, 61
1, 511277, Note_off_c, 0, 41, 58
1, 511321, Note_off_c, 0, 50, 50
1, 511325, Note_on_c, 0, 38, 7
1, 511345, Note_on_c, 0, 49, 62
1, 511351, Control_c, 0, 64, 58
1, 511362, Note_on_c, 0, 37, 59
1, 511366, Control_c, 0, 64, 70
1, 511381, Control_c, 0, 64, 81
1, 511384, Note_off_c, 0, 38, 35
1, 511387, Note_off_c, 0, 49, 61
1, 511393, Note_off_c, 0, 37, 62
1, 511396, Control_c, 0, 64, 94
1, 511396, Control_c, 0, 67, 23
1, 511411, Control_c, 0, 64, 103
1, 511411, Control_c, 0, 67, 31
1, 511426, Control_c, 0, 64, 111
1, 511426, Control_c, 0, 67, 42
1, 511441, Control_c, 0, 64, 122
1, 511441, Control_c, 0, 67, 58
1, 511455, Control_c, 0, 64, 127
1, 511455, Control_c, 0, 67, 75
1, 511470, Control_c, 0, 67, 93
1, 511485, Control_c, 0, 67, 113
1, 511499, Control_c, 0, 67, 127
1, 511573, Control_c, 0, 64, 98
1, 511588, Control_c, 0, 64, 77
1, 511603, Control_c, 0, 64, 60
1, 511618, Control_c, 0, 64, 0
1, 511655, Note_on_c, 0, 54, 37
1, 511682, Note_on_c, 0, 57, 37
1, 511912, Note_on_c, 0, 73, 50
1, 511912, Note_on_c, 0, 85, 45
1, 511924, Note_off_c, 0, 57, 43
1, 511947, Note_off_c, 0, 54, 42
1, 511959, Note_off_c, 0, 85, 0
1, 511959, Note_on_c, 0, 53, 38
1, 511961, Note_off_c, 0, 73, 0
1, 511962, Note_on_c, 0, 56, 43
1, 511970, Note_on_c, 0, 85, 58
1, 511971, Note_on_c, 0, 73, 52
1, 511998, Note_off_c, 0, 73, 60
1, 511998, Note_off_c, 0, 85, 65
1, 512124, Note_off_c, 0, 56, 56
1, 512152, Note_off_c, 0, 53, 36
1, 512178, Note_on_c, 0, 85, 49
1, 512180, Note_on_c, 0, 73, 55
1, 512185, Note_on_c, 0, 57, 42
1, 512189, Control_c, 0, 64, 52
1, 512191, Note_on_c, 0, 54, 29
1, 512200, Note_off_c, 0, 85, 60
1, 512202, Note_off_c, 0, 73, 61
1, 512204, Control_c, 0, 64, 73
1, 512219, Control_c, 0, 64, 87
1, 512234, Control_c, 0, 64, 127
1, 512246, Note_off_c, 0, 57, 58
1, 512395, Note_on_c, 0, 73, 64
1, 512415, Note_off_c, 0, 73, 66
1, 512438, Note_on_c, 0, 61, 28
1, 512464, Note_on_c, 0, 59, 34
1, 512465, Note_on_c, 0, 73, 59
1, 512470, Note_on_c, 0, 56, 44
1, 512487, Note_off_c, 0, 73, 65
1, 512494, Note_off_c, 0, 61, 58
1, 512496, Note_off_c, 0, 54, 51
1, 512497, Note_off_c, 0, 59, 49
1, 512499, Note_off_c, 0, 56, 56
1, 512672, Control_c, 0, 64, 99
1, 512687, Control_c, 0, 64, 71
1, 512701, Control_c, 0, 64, 52
1, 512702, Note_on_c, 0, 56, 65
1, 512716, Control_c, 0, 64, 49
1, 512731, Control_c, 0, 64, 61
1, 512745, Control_c, 0, 64, 72
1, 512760, Control_c, 0, 64, 93
1, 512775, Control_c, 0, 64, 127
1, 512778, Poly_aftertouch_c, 0, 53, 0
1, 512788, Note_off_c, 0, 56, 48
1, 512790, Note_on_c, 0, 49, 28
1, 512796, Poly_aftertouch_c, 0, 53, 0
1, 512825, Note_off_c, 0, 49, 53
1, 512878, Note_on_c, 0, 48, 43
1, 512928, Note_off_c, 0, 48, 57
1, 512933, Note_on_c, 0, 61, 64
1, 512937, Note_on_c, 0, 49, 59
1, 512952, Control_c, 0, 64, 80
1, 512955, Note_off_c, 0, 61, 64
1, 512958, Note_on_c, 0, 47, 51
1, 512960, Note_off_c, 0, 49, 61
1, 512967, Control_c, 0, 64, 54
1, 512982, Control_c, 0, 64, 0
1, 512994, Note_off_c, 0, 47, 57
1, 513012, Note_on_c, 0, 49, 56
1, 513020, Note_on_c, 0, 61, 48
1, 513036, Note_off_c, 0, 49, 61
1, 513036, Note_on_c, 0, 46, 54
1, 513043, Note_off_c, 0, 61, 58
1, 513083, Note_off_c, 0, 46, 60
1, 513148, Note_on_c, 0, 45, 48
1, 513206, Note_off_c, 0, 45, 59
1, 513236, Note_on_c, 0, 49, 48
1, 513241, Note_on_c, 0, 44, 43
1, 513243, Note_on_c, 0, 61, 38
1, 513249, Control_c, 0, 64, 49
1, 513263, Control_c, 0, 64, 79
1, 513265, Note_off_c, 0, 49, 57
1, 513272, Note_off_c, 0, 61, 49
1, 513278, Control_c, 0, 64, 127
1, 513293, Note_off_c, 0, 44, 59
1, 513336, Note_on_c, 0, 43, 37
1, 513383, Note_off_c, 0, 43, 49
1, 513407, Note_on_c, 0, 42, 49
1, 513431, Note_on_c, 0, 61, 39
1, 513432, Note_on_c, 0, 49, 39
1, 513448, Note_off_c, 0, 42, 62
1, 513460, Note_off_c, 0, 61, 55
1, 513480, Control_c, 0, 67, 106
1, 513485, Note_off_c, 0, 49, 56
1, 513494, Control_c, 0, 67, 45
1, 513506, Note_on_c, 0, 41, 50
1, 513509, Control_c, 0, 67, 0
1, 513514, Note_on_c, 0, 61, 62
1, 513544, Note_off_c, 0, 61, 63
1, 513561, Note_off_c, 0, 41, 54
1, 513613, Note_on_c, 0, 40, 32
1, 513663, Note_off_c, 0, 40, 52
1, 513713, Note_on_c, 0, 39, 34
1, 513723, Note_on_c, 0, 78, 45
1, 513757, Note_off_c, 0, 39, 57
1, 513782, Note_on_c, 0, 84, 66
1, 513785, Note_off_c, 0, 78, 57
1, 513819, Note_on_c, 0, 38, 38
1, 513828, Note_off_c, 0, 84, 60
1, 513835, Control_c, 0, 64, 71
1, 513848, Note_off_c, 0, 38, 55
1, 513849, Control_c, 0, 64, 0
1, 513863, Note_on_c, 0, 90, 60
1, 513898, Note_off_c, 0, 90, 58
1, 513927, Note_on_c, 0, 89, 63
1, 513951, Note_on_c, 0, 39, 46
1, 513966, Note_off_c, 0, 89, 61
1, 513975, Note_on_c, 0, 88, 55
1, 513992, Note_off_c, 0, 39, 62
1, 514016, Note_off_c, 0, 88, 65
1, 514028, Note_on_c, 0, 87, 60
1, 514057, Note_off_c, 0, 87, 66
1, 514074, Note_on_c, 0, 40, 46
1, 514075, Note_on_c, 0, 86, 60
1, 514101, Note_off_c, 0, 86, 60
1, 514105, Note_off_c, 0, 40, 57
1, 514148, Note_on_c, 0, 85, 66
1, 514201, Note_on_c, 0, 84, 70
1, 514202, Note_on_c, 0, 41, 46
1, 514206, Note_off_c, 0, 85, 58
1, 514231, Note_off_c, 0, 84, 64
1, 514243, Note_off_c, 0, 41, 62
1, 514264, Note_on_c, 0, 83, 69
1, 514288, Note_off_c, 0, 83, 66
1, 514326, Note_on_c, 0, 82, 65
1, 514327, Note_on_c, 0, 42, 44
1, 514362, Note_off_c, 0, 42, 61
1, 514377, Note_off_c, 0, 82, 51
1, 514378, Note_on_c, 0, 81, 61
1, 514417, Note_off_c, 0, 81, 65
1, 514428, Note_on_c, 0, 80, 68
1, 514448, Note_on_c, 0, 43, 43
1, 514454, Note_off_c, 0, 80, 68
1, 514478, Note_on_c, 0, 79, 61
1, 514486, Note_off_c, 0, 43, 57
1, 514510, Note_off_c, 0, 79, 50
1, 514541, Note_on_c, 0, 78, 56
1, 514567, Note_on_c, 0, 44, 45
1, 514598, Note_on_c, 0, 77, 58
1, 514601, Note_off_c, 0, 44, 62
1, 514613, Note_off_c, 0, 78, 53
1, 514623, Note_off_c, 0, 77, 63
1, 514660, Note_on_c, 0, 76, 69
1, 514677, Note_on_c, 0, 45, 39
1, 514690, Note_off_c, 0, 76, 54
1, 514710, Note_off_c, 0, 45, 50
1, 514715, Note_on_c, 0, 75, 60
1, 514772, Note_on_c, 0, 74, 68
1, 514777, Note_on_c, 0, 46, 45
1, 514809, Note_off_c, 0, 46, 62
1, 514812, Note_off_c, 0, 75, 61
1, 514820, Note_on_c, 0, 73, 71
1, 514823, Note_off_c, 0, 74, 63
1, 514853, Note_off_c, 0, 73, 63
1, 514871, Note_on_c, 0, 72, 72
1, 514872, Note_on_c, 0, 47, 67
1, 514900, Note_off_c, 0, 47, 66
1, 514900, Note_off_c, 0, 72, 57
1, 514937, Note_on_c, 0, 71, 69
1, 514979, Note_on_c, 0, 70, 74
1, 515004, Note_off_c, 0, 71, 63
1, 515016, Note_on_c, 0, 48, 110
1, 515019, Note_off_c, 0, 70, 63
1, 515023, Note_on_c, 0, 69, 80
1, 515033, Note_on_c, 0, 38, 74
1, 515039, Note_on_c, 0, 36, 64
1, 515052, Control_c, 0, 64, 44
1, 515060, Note_on_c, 0, 42, 30
1, 515060, Note_off_c, 0, 42, 127
1, 515063, Note_off_c, 0, 38, 65
1, 515065, Note_off_c, 0, 48, 51
1, 515066, Note_off_c, 0, 36, 59
1, 515067, Control_c, 0, 64, 74
1, 515072, Note_off_c, 0, 69, 57
1, 515081, Note_on_c, 0, 39, 22
1, 515081, Note_on_c, 0, 68, 81
1, 515082, Control_c, 0, 64, 98
1, 515096, Control_c, 0, 64, 127
1, 515110, Poly_aftertouch_c, 0, 42, 0
1, 515128, Note_off_c, 0, 39, 52
1, 515147, Note_on_c, 0, 67, 59
1, 515161, Poly_aftertouch_c, 0, 43, 127
1, 515169, Note_off_c, 0, 67, 66
1, 515169, Note_off_c, 0, 68, 62
1, 515185, Control_c, 0, 64, 92
1, 515200, Control_c, 0, 64, 56
1, 515212, Note_on_c, 0, 49, 111
1, 515215, Control_c, 0, 64, 0
1, 515229, Note_on_c, 0, 61, 90
1, 515229, Note_on_c, 0, 73, 90
1, 515233, Poly_aftertouch_c, 0, 43, 0
1, 515235, Note_on_c, 0, 65, 73
1, 515235, Note_on_c, 0, 37, 50
1, 515235, Note_off_c, 0, 37, 127
1, 515243, Note_on_c, 0, 48, 50
1, 515243, Note_off_c, 0, 48, 127
1, 515248, Note_off_c, 0, 61, 72
1, 515256, Note_off_c, 0, 49, 72
1, 515259, Control_c, 0, 64, 66
1, 515262, Note_off_c, 0, 65, 68
1, 515274, Control_c, 0, 64, 97
1, 515289, Control_c, 0, 64, 127
1, 515298, Note_off_c, 0, 73, 65
1, 515345, Poly_aftertouch_c, 0, 64, 0
1, 515381, Note_on_c, 0, 61, 81
1, 515418, Note_off_c, 0, 61, 62
1, 515422, Note_on_c, 0, 85, 94
1, 515423, Note_on_c, 0, 97, 92
1, 515425, Note_on_c, 0, 89, 86
1, 515438, Note_off_c, 0, 85, 75
1, 515441, Note_off_c, 0, 97, 73
1, 515443, Note_off_c, 0, 89, 73
1, 515447, Note_on_c, 0, 60, 84
1, 515481, Control_c, 0, 64, 82
1, 515483, Note_on_c, 0, 97, 89
1, 515490, Note_on_c, 0, 89, 78
1, 515495, Note_on_c, 0, 85, 71
1, 515496, Control_c, 0, 64, 54
1, 515511, Control_c, 0, 64, 0
1, 515516, Note_off_c, 0, 85, 63
1, 515516, Note_off_c, 0, 89, 63
1, 515518, Note_off_c, 0, 60, 65
1, 515519, Note_on_c, 0, 59, 79
1, 515543, Note_off_c, 0, 97, 65
1, 515576, Note_on_c, 0, 58, 77
1, 515577, Note_off_c, 0, 59, 65
1, 515585, Control_c, 0, 64, 42
1, 515600, Control_c, 0, 64, 89
1, 515621, Note_off_c, 0, 58, 63
1, 515622, Control_c, 0, 64, 127
1, 515629, Note_on_c, 0, 85, 100
1, 515631, Note_on_c, 0, 97, 113
1, 515634, Note_on_c, 0, 89, 88
1, 515647, Note_on_c, 0, 57, 88
1, 515649, Note_off_c, 0, 97, 68
1, 515650, Note_off_c, 0, 89, 74
1, 515654, Note_on_c, 0, 94, 57
1, 515654, Note_off_c, 0, 94, 127
1, 515685, Note_off_c, 0, 85, 67
1, 515718, Note_on_c, 0, 56, 84
1, 515719, Note_off_c, 0, 57, 63
1, 515766, Note_on_c, 0, 55, 70
1, 515790, Note_off_c, 0, 56, 54
1, 515812, Note_on_c, 0, 73, 93
1, 515817, Note_on_c, 0, 77, 73
1, 515818, Note_on_c, 0, 54, 80
1, 515820, Note_on_c, 0, 85, 73
1, 515829, Note_off_c, 0, 73, 74
1, 515835, Note_off_c, 0, 55, 63
1, 515836, Note_off_c, 0, 85, 69
1, 515838, Note_off_c, 0, 77, 68
1, 515844, Note_off_c, 0, 54, 68
1, 515879, Note_on_c, 0, 73, 81
1, 515881, Note_on_c, 0, 53, 85
1, 515888, Note_on_c, 0, 85, 82
1, 515888, Note_on_c, 0, 77, 63
1, 515905, Note_off_c, 0, 77, 69
1, 515934, Note_off_c, 0, 73, 60
1, 515934, Control_c, 0, 64, 67
1, 515940, Note_off_c, 0, 85, 64
1, 515949, Control_c, 0, 64, 0
1, 515954, Note_off_c, 0, 53, 63
1, 515955, Note_on_c, 0, 52, 82
1, 515993, Control_c, 0, 64, 35
1, 516001, Note_on_c, 0, 51, 81
1, 516008, Control_c, 0, 64, 69
1, 516013, Note_off_c, 0, 52, 63
1, 516017, Note_on_c, 0, 73, 103
1, 516020, Note_on_c, 0, 77, 73
1, 516020, Note_on_c, 0, 85, 102
1, 516023, Control_c, 0, 64, 127
1, 516041, Note_off_c, 0, 77, 71
1, 516041, Note_off_c, 0, 85, 68
1, 516049, Note_off_c, 0, 51, 58
1, 516062, Note_on_c, 0, 50, 87
1, 516073, Note_off_c, 0, 73, 63
1, 516133, Note_off_c, 0, 50, 64
1, 516135, Note_on_c, 0, 49, 84
1, 516188, Note_off_c, 0, 49, 60
1, 516201, Note_on_c, 0, 65, 76
1, 516202, Note_on_c, 0, 48, 84
1, 516202, Note_on_c, 0, 73, 76
1, 516203, Note_on_c, 0, 61, 73
1, 516219, Note_off_c, 0, 73, 67
1, 516222, Note_off_c, 0, 61, 66
1, 516224, Note_off_c, 0, 65, 71
1, 516264, Note_on_c, 0, 47, 86
1, 516270, Note_on_c, 0, 61, 82
1, 516270, Note_on_c, 0, 73, 85
1, 516275, Control_c, 0, 64, 95
1, 516280, Note_off_c, 0, 48, 63
1, 516285, Note_on_c, 0, 65, 63
1, 516289, Control_c, 0, 64, 62
1, 516304, Control_c, 0, 64, 0
1, 516312, Note_off_c, 0, 65, 57
1, 516318, Note_on_c, 0, 64, 6
1, 516320, Note_off_c, 0, 61, 61
1, 516321, Note_off_c, 0, 73, 64
1, 516329, Note_on_c, 0, 46, 86
1, 516348, Note_off_c, 0, 47, 63
1, 516371, Control_c, 0, 64, 59
1, 516377, Note_off_c, 0, 64, 27
1, 516386, Control_c, 0, 64, 109
1, 516396, Note_off_c, 0, 46, 60
1, 516400, Note_on_c, 0, 61, 97
1, 516401, Control_c, 0, 64, 127
1, 516401, Note_on_c, 0, 73, 92
1, 516408, Note_on_c, 0, 65, 75
1, 516411, Note_on_c, 0, 45, 97
1, 516419, Note_off_c, 0, 73, 72
1, 516433, Note_off_c, 0, 65, 66
1, 516451, Note_off_c, 0, 61, 64
1, 516485, Note_on_c, 0, 44, 86
1, 516505, Note_off_c, 0, 45, 64
1, 516545, Note_on_c, 0, 43, 70
1, 516584, Note_on_c, 0, 49, 75
1, 516589, Note_off_c, 0, 44, 61
1, 516594, Note_on_c, 0, 52, 54
1, 516601, Note_on_c, 0, 42, 71
1, 516610, Note_off_c, 0, 49, 65
1, 516626, Note_off_c, 0, 43, 63
1, 516645, Note_off_c, 0, 42, 62
1, 516662, Note_off_c, 0, 52, 61
1, 516675, Note_on_c, 0, 60, 64
1, 516682, Note_on_c, 0, 41, 65
1, 516698, Note_off_c, 0, 60, 67
1, 516734, Note_off_c, 0, 41, 51
1, 516757, Control_c, 0, 64, 97
1, 516770, Note_on_c, 0, 40, 61
1, 516772, Control_c, 0, 64, 80
1, 516786, Control_c, 0, 64, 68
1, 516801, Control_c, 0, 64, 59
1, 516816, Control_c, 0, 64, 44
1, 516824, Note_off_c, 0, 40, 56
1, 516831, Control_c, 0, 64, 0
1, 516845, Note_on_c, 0, 78, 53
1, 516867, Note_on_c, 0, 39, 33
1, 516888, Note_off_c, 0, 78, 58
1, 516905, Note_off_c, 0, 39, 55
1, 516908, Note_on_c, 0, 84, 65
1, 516949, Note_off_c, 0, 84, 60
1, 516958, Note_on_c, 0, 38, 38
1, 516978, Note_on_c, 0, 90, 60
1, 516987, Note_off_c, 0, 38, 53
1, 517037, Note_off_c, 0, 90, 60
1, 517042, Note_on_c, 0, 89, 58
1, 517075, Note_off_c, 0, 89, 63
1, 517087, Note_on_c, 0, 88, 55
1, 517094, Note_on_c, 0, 39, 44
1, 517130, Note_off_c, 0, 88, 67
1, 517134, Note_on_c, 0, 87, 64
1, 517143, Note_off_c, 0, 39, 61
1, 517163, Note_off_c, 0, 87, 67
1, 517186, Note_on_c, 0, 86, 60
1, 517203, Note_on_c, 0, 40, 51
1, 517211, Note_off_c, 0, 86, 61
1, 517239, Note_off_c, 0, 40, 63
1, 517254, Note_on_c, 0, 85, 58
1, 517303, Note_on_c, 0, 84, 60
1, 517324, Note_off_c, 0, 85, 56
1, 517329, Note_on_c, 0, 41, 51
1, 517340, Note_off_c, 0, 84, 64
1, 517363, Note_on_c, 0, 83, 71
1, 517368, Note_off_c, 0, 41, 62
1, 517388, Note_off_c, 0, 83, 62
1, 517426, Note_on_c, 0, 82, 65
1, 517455, Note_on_c, 0, 42, 44
1, 517469, Note_off_c, 0, 82, 53
1, 517471, Note_on_c, 0, 81, 62
1, 517489, Note_off_c, 0, 42, 62
1, 517510, Note_off_c, 0, 81, 65
1, 517517, Note_on_c, 0, 80, 68
1, 517543, Note_off_c, 0, 80, 67
1, 517564, Note_on_c, 0, 79, 65
1, 517569, Note_on_c, 0, 43, 45
1, 517585, Note_off_c, 0, 79, 65
1, 517605, Note_off_c, 0, 43, 56
1, 517630, Note_on_c, 0, 78, 56
1, 517674, Note_on_c, 0, 77, 61
1, 517678, Note_on_c, 0, 44, 53
1, 517680, Note_off_c, 0, 78, 51
1, 517703, Note_off_c, 0, 77, 68
1, 517710, Note_off_c, 0, 44, 64
1, 517729, Note_on_c, 0, 76, 71
1, 517751, Note_off_c, 0, 76, 67
1, 517790, Note_on_c, 0, 75, 66
1, 517790, Note_on_c, 0, 45, 52
1, 517826, Note_on_c, 0, 74, 66
1, 517826, Note_off_c, 0, 45, 64
1, 517869, Note_off_c, 0, 74, 64
1, 517869, Note_off_c, 0, 75, 55
1, 517871, Note_on_c, 0, 73, 75
1, 517883, Note_on_c, 0, 46, 61
1, 517900, Note_off_c, 0, 73, 63
1, 517906, Note_on_c, 0, 72, 73
1, 517913, Note_off_c, 0, 46, 65
1, 517926, Note_off_c, 0, 72, 71
1, 517957, Control_c, 0, 64, 54
1, 517972, Control_c, 0, 64, 127
1, 517978, Note_on_c, 0, 71, 98
1, 517978, Note_on_c, 0, 47, 121
1, 517984, Note_on_c, 0, 39, 98
1, 517985, Note_on_c, 0, 69, 90
1, 517996, Note_on_c, 0, 66, 81
1, 518003, Note_off_c, 0, 47, 66
1, 518005, Note_off_c, 0, 39, 65
1, 518041, Note_off_c, 0, 69, 53
1, 518058, Note_on_c, 0, 65, 85
1, 518059, Note_off_c, 0, 71, 62
1, 518061, Note_off_c, 0, 66, 59
1, 518087, Note_off_c, 0, 65, 63
1, 518144, Note_on_c, 0, 64, 75
1, 518150, Poly_aftertouch_c, 0, 39, 0
1, 518199, Note_on_c, 0, 62, 67
1, 518211, Note_off_c, 0, 64, 61
1, 518231, Note_off_c, 0, 62, 65
1, 518232, Note_on_c, 0, 60, 58
1, 518240, Note_on_c, 0, 59, 44
1, 518266, Note_off_c, 0, 60, 66
1, 518299, Note_off_c, 0, 59, 58
1, 518401, Note_on_c, 0, 40, 72
1, 518420, Note_on_c, 0, 87, 74
1, 518424, Note_on_c, 0, 92, 77
1, 518431, Control_c, 0, 64, 67
1, 518433, Note_off_c, 0, 40, 63
1, 518435, Note_off_c, 0, 87, 43
1, 518445, Note_off_c, 0, 92, 0
1, 518446, Control_c, 0, 64, 0
1, 518482, Poly_aftertouch_c, 0, 92, 127
1, 518515, Poly_aftertouch_c, 0, 92, 0
1, 518532, Note_on_c, 0, 41, 58
1, 518533, Note_on_c, 0, 90, 73
1, 518567, Note_off_c, 0, 41, 62
1, 518585, Note_on_c, 0, 89, 75
1, 518594, Note_off_c, 0, 90, 62
1, 518625, Note_off_c, 0, 89, 62
1, 518647, Note_on_c, 0, 88, 66
1, 518654, Note_on_c, 0, 42, 54
1, 518673, Note_off_c, 0, 88, 67
1, 518692, Note_off_c, 0, 42, 62
1, 518712, Note_on_c, 0, 87, 71
1, 518762, Note_on_c, 0, 86, 64
1, 518771, Note_on_c, 0, 43, 47
1, 518783, Note_off_c, 0, 87, 52
1, 518800, Note_on_c, 0, 85, 77
1, 518805, Note_off_c, 0, 86, 62
1, 518810, Note_off_c, 0, 43, 63
1, 518833, Note_off_c, 0, 85, 65
1, 518845, Note_on_c, 0, 84, 70
1, 518872, Note_off_c, 0, 84, 61
1, 518877, Note_on_c, 0, 44, 61
1, 518905, Note_on_c, 0, 83, 71
1, 518914, Note_off_c, 0, 44, 65
1, 518953, Note_on_c, 0, 82, 71
1, 518964, Note_off_c, 0, 83, 62
1, 518993, Note_on_c, 0, 45, 72
1, 518994, Note_off_c, 0, 82, 58
1, 518997, Note_on_c, 0, 81, 81
1, 519027, Note_off_c, 0, 81, 61
1, 519029, Note_off_c, 0, 45, 66
1, 519062, Note_on_c, 0, 80, 76
1, 519105, Note_on_c, 0, 46, 76
1, 519106, Note_on_c, 0, 79, 80
1, 519134, Note_off_c, 0, 46, 66
1, 519144, Note_on_c, 0, 78, 76
1, 519149, Note_off_c, 0, 80, 59
1, 519160, Note_off_c, 0, 79, 63
1, 519182, Note_on_c, 0, 77, 78
1, 519186, Note_off_c, 0, 78, 63
1, 519195, Control_c, 0, 64, 69
1, 519205, Note_on_c, 0, 47, 81
1, 519210, Control_c, 0, 64, 127
1, 519233, Note_off_c, 0, 77, 43
1, 519247, Note_off_c, 0, 47, 59
1, 519251, Note_on_c, 0, 76, 77
1, 519283, Note_on_c, 0, 75, 75
1, 519310, Note_off_c, 0, 76, 63
1, 519317, Note_on_c, 0, 48, 76
1, 519319, Note_on_c, 0, 74, 87
1, 519337, Note_off_c, 0, 75, 61
1, 519350, Note_off_c, 0, 48, 66
1, 519362, Note_off_c, 0, 74, 60
1, 519413, Note_on_c, 0, 73, 93
1, 519415, Note_on_c, 0, 49, 106
1, 519424, Note_on_c, 0, 69, 82
1, 519424, Note_on_c, 0, 72, 73
1, 519427, Note_on_c, 0, 71, 74
1, 519429, Note_on_c, 0, 41, 70
1, 519453, Note_off_c, 0, 71, 61
1, 519456, Note_off_c, 0, 41, 64
1, 519462, Note_off_c, 0, 72, 59
1, 519465, Note_off_c, 0, 69, 52
1, 519482, Note_off_c, 0, 73, 60
1, 519483, Note_off_c, 0, 49, 60
1, 519488, Note_on_c, 0, 67, 81
1, 519502, Poly_aftertouch_c, 0, 48, 127
1, 519513, Note_off_c, 0, 67, 65
1, 519530, Poly_aftertouch_c, 0, 42, 0
1, 519546, Poly_aftertouch_c, 0, 48, 0
1, 519562, Note_on_c, 0, 66, 78
1, 519600, Note_on_c, 0, 65, 66
1, 519616, Note_off_c, 0, 66, 62
1, 519630, Note_off_c, 0, 65, 66
1, 519638, Note_on_c, 0, 62, 77
1, 519657, Note_on_c, 0, 42, 61
1, 519693, Note_on_c, 0, 61, 77
1, 519693, Note_off_c, 0, 62, 61
1, 519716, Note_off_c, 0, 61, 69
1, 519717, Note_on_c, 0, 48, 75
1, 519751, Note_on_c, 0, 51, 80
1, 519759, Note_off_c, 0, 42, 62
1, 519811, Control_c, 0, 64, 100
1, 519826, Control_c, 0, 64, 60
1, 519841, Control_c, 0, 64, 0
1, 519847, Note_on_c, 0, 57, 101
1, 519865, Note_off_c, 0, 48, 62
1, 519895, Note_on_c, 0, 69, 106
1, 519895, Note_on_c, 0, 75, 102
1, 519898, Note_on_c, 0, 81, 102
1, 519911, Note_off_c, 0, 57, 68
1, 519915, Control_c, 0, 64, 66
1, 519917, Note_off_c, 0, 51, 63
1, 519929, Control_c, 0, 64, 127
1, 519933, Note_on_c, 0, 79, 50
1, 519933, Note_off_c, 0, 69, 66
1, 519951, Note_on_c, 0, 76, 53
1, 519951, Note_off_c, 0, 75, 66
1, 519972, Note_off_c, 0, 79, 65
1, 519975, Note_off_c, 0, 76, 60
1, 519978, Note_off_c, 0, 81, 65
1, 520190, Note_on_c, 0, 81, 109
1, 520191, Note_on_c, 0, 93, 108
1, 520215, Note_on_c, 0, 91, 63
1, 520238, Note_off_c, 0, 91, 39
1, 520267, Note_off_c, 0, 93, 64
1, 520271, Note_off_c, 0, 81, 64
1, 520315, Note_on_c, 0, 80, 100
1, 520358, Note_off_c, 0, 80, 65
1, 520378, Note_on_c, 0, 79, 96
1, 520381, Note_on_c, 0, 91, 91
1, 520381, Control_c, 0, 64, 110
1, 520392, Note_off_c, 0, 79, 75
1, 520395, Control_c, 0, 64, 67
1, 520398, Note_off_c, 0, 91, 73
1, 520407, Note_on_c, 0, 90, 36
1, 520407, Note_off_c, 0, 90, 127
1, 520410, Control_c, 0, 64, 0
1, 520436, Note_on_c, 0, 78, 92
1, 520441, Note_on_c, 0, 87, 4
1, 520441, Note_off_c, 0, 87, 127
1, 520455, Note_off_c, 0, 78, 69
1, 520455, Control_c, 0, 64, 57
1, 520470, Control_c, 0, 64, 81
1, 520482, Note_on_c, 0, 77, 92
1, 520483, Note_on_c, 0, 89, 93
1, 520485, Control_c, 0, 64, 127
1, 520498, Note_off_c, 0, 77, 74
1, 520500, Note_off_c, 0, 89, 68
1, 520544, Note_on_c, 0, 76, 98
1, 520574, Note_off_c, 0, 76, 66
1, 520595, Note_on_c, 0, 75, 92
1, 520595, Note_on_c, 0, 87, 95
1, 520613, Note_off_c, 0, 75, 69
1, 520614, Note_off_c, 0, 87, 67
1, 520648, Poly_aftertouch_c, 0, 70, 0
1, 520655, Note_on_c, 0, 74, 95
1, 520679, Note_off_c, 0, 74, 63
1, 520690, Note_on_c, 0, 73, 93
1, 520691, Note_on_c, 0, 85, 99
1, 520693, Control_c, 0, 64, 72
1, 520708, Note_off_c, 0, 85, 74
1, 520708, Control_c, 0, 64, 0
1, 520714, Note_off_c, 0, 73, 66
1, 520738, Control_c, 0, 64, 49
1, 520750, Note_on_c, 0, 72, 100
1, 520751, Note_on_c, 0, 84, 21
1, 520751, Note_off_c, 0, 84, 127
1, 520752, Control_c, 0, 64, 68
1, 520767, Control_c, 0, 64, 97
1, 520778, Note_off_c, 0, 72, 66
1, 520782, Control_c, 0, 64, 127
1, 520803, Note_on_c, 0, 71, 98
1, 520804, Note_on_c, 0, 83, 94
1, 520821, Note_off_c, 0, 71, 69
1, 520822, Note_off_c, 0, 83, 64
1, 520878, Note_on_c, 0, 70, 100
1, 520904, Note_off_c, 0, 70, 68
1, 520920, Note_on_c, 0, 69, 92
1, 520929, Note_on_c, 0, 81, 79
1, 520943, Note_off_c, 0, 81, 71
1, 520947, Note_off_c, 0, 69, 61
1, 520949, Note_on_c, 0, 78, 47
1, 520953, Note_on_c, 0, 79, 53
1, 520953, Note_off_c, 0, 79, 127
1, 520973, Note_off_c, 0, 78, 61
1, 520989, Note_on_c, 0, 68, 98
1, 521026, Note_off_c, 0, 68, 63
1, 521030, Note_on_c, 0, 67, 100
1, 521037, Note_on_c, 0, 79, 96
1, 521049, Note_off_c, 0, 67, 67
1, 521053, Note_on_c, 0, 78, 57
1, 521054, Note_off_c, 0, 79, 75
1, 521073, Note_off_c, 0, 78, 64
1, 521088, Note_on_c, 0, 66, 99
1, 521126, Note_off_c, 0, 66, 64
1, 521141, Note_on_c, 0, 65, 97
1, 521144, Note_on_c, 0, 77, 85
1, 521159, Note_off_c, 0, 65, 70
1, 521159, Note_off_c, 0, 77, 74
1, 521185, Note_on_c, 0, 67, 13
1, 521185, Note_off_c, 0, 67, 127
1, 521203, Note_on_c, 0, 64, 95
1, 521247, Note_off_c, 0, 64, 65
1, 521249, Note_on_c, 0, 63, 79
1, 521254, Note_on_c, 0, 75, 80
1, 521272, Note_off_c, 0, 63, 69
1, 521275, Note_off_c, 0, 75, 70
1, 521295, Poly_aftertouch_c, 0, 59, 127
1, 521312, Note_on_c, 0, 62, 86
1, 521320, Poly_aftertouch_c, 0, 59, 0
1, 521340, Note_off_c, 0, 62, 64
1, 521340, Note_on_c, 0, 61, 87
1, 521341, Note_on_c, 0, 73, 91
1, 521364, Note_off_c, 0, 61, 66
1, 521366, Note_off_c, 0, 73, 65
1, 521429, Note_on_c, 0, 57, 105
1, 521432, Note_on_c, 0, 54, 94
1, 521434, Note_on_c, 0, 60, 108
1, 521442, Note_on_c, 0, 72, 90
1, 521448, Note_off_c, 0, 57, 71
1, 521454, Note_on_c, 0, 70, 59
1, 521457, Note_on_c, 0, 68, 56
1, 521461, Note_off_c, 0, 54, 60
1, 521473, Note_off_c, 0, 70, 64
1, 521475, Note_off_c, 0, 68, 62
1, 521481, Note_off_c, 0, 60, 63
1, 521487, Control_c, 0, 64, 80
1, 521489, Note_off_c, 0, 72, 59
1, 521501, Control_c, 0, 64, 51
1, 521516, Control_c, 0, 64, 0
1, 521570, Note_on_c, 0, 44, 84
1, 521571, Note_on_c, 0, 49, 74
1, 521571, Note_off_c, 0, 49, 127
1, 521571, Note_on_c, 0, 61, 98
1, 521573, Note_on_c, 0, 48, 83
1, 521574, Note_on_c, 0, 73, 93
1, 521576, Control_c, 0, 64, 34
1, 521580, Note_on_c, 0, 65, 75
1, 521587, Note_off_c, 0, 61, 74
1, 521590, Note_on_c, 0, 40, 51
1, 521590, Note_off_c, 0, 44, 67
1, 521591, Control_c, 0, 64, 69
1, 521591, Note_off_c, 0, 48, 68
1, 521593, Note_on_c, 0, 41, 41
1, 521612, Note_off_c, 0, 65, 69
1, 521613, Control_c, 0, 64, 105
1, 521628, Control_c, 0, 64, 127
1, 521629, Note_off_c, 0, 40, 48
1, 521632, Note_off_c, 0, 41, 44
1, 521645, Note_off_c, 0, 73, 66
1, 521733, Note_on_c, 0, 29, 63
1, 521735, Note_on_c, 0, 37, 55
1, 521752, Note_on_c, 0, 85, 92
1, 521752, Note_on_c, 0, 97, 96
1, 521757, Note_on_c, 0, 89, 81
1, 521764, Note_off_c, 0, 37, 57
1, 521764, Note_off_c, 0, 29, 60
1, 521767, Note_off_c, 0, 85, 76
1, 521770, Note_off_c, 0, 97, 73
1, 521773, Note_on_c, 0, 94, 53
1, 521773, Note_off_c, 0, 94, 127
1, 521776, Note_off_c, 0, 89, 72
1, 521801, Note_on_c, 0, 38, 98
1, 521808, Note_on_c, 0, 30, 90
1, 521808, Note_on_c, 0, 90, 18
1, 521818, Note_on_c, 0, 97, 93
1, 521819, Note_on_c, 0, 85, 100
1, 521828, Note_off_c, 0, 38, 66
1, 521835, Note_off_c, 0, 30, 65
1, 521835, Control_c, 0, 64, 105
1, 521838, Note_on_c, 0, 89, 68
1, 521850, Control_c, 0, 64, 65
1, 521861, Note_off_c, 0, 85, 66
1, 521862, Note_off_c, 0, 89, 58
1, 521865, Control_c, 0, 64, 0
1, 521869, Note_off_c, 0, 90, 64
1, 521872, Note_off_c, 0, 97, 65
1, 521909, Control_c, 0, 64, 45
1, 521924, Control_c, 0, 64, 89
1, 521937, Note_on_c, 0, 39, 108
1, 521939, Control_c, 0, 64, 127
1, 521941, Note_on_c, 0, 97, 104
1, 521942, Note_on_c, 0, 85, 105
1, 521950, Note_on_c, 0, 31, 77
1, 521951, Note_on_c, 0, 94, 79
1, 521952, Note_on_c, 0, 90, 61
1, 521959, Note_on_c, 0, 89, 60
1, 521966, Note_off_c, 0, 94, 69
1, 521969, Note_off_c, 0, 90, 65
1, 521969, Note_off_c, 0, 97, 70
1, 521972, Note_off_c, 0, 39, 62
1, 521978, Note_off_c, 0, 31, 64
1, 521980, Note_off_c, 0, 89, 60
1, 521990, Note_off_c, 0, 85, 68
1, 522034, Poly_aftertouch_c, 0, 30, 0
1, 522053, Note_on_c, 0, 40, 91
1, 522060, Note_on_c, 0, 32, 84
1, 522087, Note_off_c, 0, 40, 62
1, 522090, Note_off_c, 0, 32, 63
1, 522101, Note_on_c, 0, 73, 82
1, 522105, Note_on_c, 0, 85, 79
1, 522110, Note_on_c, 0, 78, 50
1, 522110, Note_off_c, 0, 78, 127
1, 522114, Note_on_c, 0, 77, 63
1, 522119, Note_off_c, 0, 85, 72
1, 522121, Note_off_c, 0, 73, 72
1, 522132, Note_off_c, 0, 77, 66
1, 522161, Note_on_c, 0, 73, 100
1, 522162, Control_c, 0, 64, 88
1, 522165, Note_on_c, 0, 41, 96
1, 522165, Note_on_c, 0, 85, 104
1, 522169, Note_on_c, 0, 77, 85
1, 522175, Control_c, 0, 64, 51
1, 522180, Note_on_c, 0, 33, 77
1, 522190, Note_on_c, 0, 38, 60
1, 522190, Control_c, 0, 64, 0
1, 522202, Note_off_c, 0, 41, 64
1, 522204, Note_off_c, 0, 33, 64
1, 522231, Note_off_c, 0, 73, 62
1, 522232, Note_off_c, 0, 77, 59
1, 522234, Note_off_c, 0, 38, 62
1, 522234, Note_off_c, 0, 85, 64
1, 522235, Control_c, 0, 64, 39
1, 522249, Control_c, 0, 64, 71
1, 522264, Control_c, 0, 64, 127
1, 522284, Note_on_c, 0, 42, 104
1, 522295, Note_on_c, 0, 34, 66
1, 522297, Note_on_c, 0, 73, 98
1, 522300, Note_on_c, 0, 77, 88
1, 522300, Note_on_c, 0, 85, 100
1, 522317, Note_off_c, 0, 85, 72
1, 522325, Note_off_c, 0, 42, 64
1, 522332, Note_off_c, 0, 34, 63
1, 522335, Note_off_c, 0, 77, 57
1, 522356, Note_off_c, 0, 73, 63
1, 522397, Note_on_c, 0, 43, 83
1, 522406, Note_on_c, 0, 35, 69
1, 522413, Note_on_c, 0, 36, 59
1, 522440, Note_off_c, 0, 35, 62
1, 522443, Note_off_c, 0, 43, 61
1, 522444, Note_off_c, 0, 36, 62
1, 522464, Note_on_c, 0, 65, 84
1, 522467, Note_on_c, 0, 73, 77
1, 522481, Note_off_c, 0, 73, 72
1, 522484, Note_off_c, 0, 65, 72
1, 522485, Note_on_c, 0, 61, 33
1, 522485, Note_off_c, 0, 61, 127
1, 522495, Note_on_c, 0, 62, 34
1, 522504, Note_on_c, 0, 44, 94
1, 522518, Note_on_c, 0, 36, 76
1, 522524, Control_c, 0, 64, 92
1, 522527, Note_on_c, 0, 61, 71
1, 522527, Note_on_c, 0, 73, 94
1, 522527, Note_off_c, 0, 62, 55
1, 522533, Note_on_c, 0, 65, 88
1, 522536, Note_off_c, 0, 44, 63
1, 522539, Control_c, 0, 64, 61
1, 522547, Note_off_c, 0, 36, 64
1, 522554, Control_c, 0, 64, 0
1, 522589, Note_off_c, 0, 65, 61
1, 522591, Note_on_c, 0, 45, 89
1, 522600, Note_on_c, 0, 37, 86
1, 522607, Note_off_c, 0, 73, 59
1, 522610, Note_off_c, 0, 61, 61
1, 522613, Control_c, 0, 64, 65
1, 522628, Control_c, 0, 64, 105
1, 522631, Note_off_c, 0, 45, 64
1, 522637, Note_on_c, 0, 36, 19
1, 522643, Note_off_c, 0, 37, 58
1, 522643, Control_c, 0, 64, 127
1, 522682, Note_off_c, 0, 36, 48
1, 522691, Note_on_c, 0, 61, 102
1, 522694, Note_on_c, 0, 46, 103
1, 522699, Note_on_c, 0, 73, 94
1, 522700, Note_on_c, 0, 38, 91
1, 522713, Note_off_c, 0, 73, 76
1, 522731, Note_on_c, 0, 70, 29
1, 522731, Note_off_c, 0, 70, 127
1, 522731, Note_off_c, 0, 38, 62
1, 522737, Note_off_c, 0, 46, 64
1, 522745, Note_off_c, 0, 61, 61
1, 522795, Note_on_c, 0, 47, 43
1, 522801, Poly_aftertouch_c, 0, 66, 0
1, 522811, Note_on_c, 0, 39, 83
1, 522833, Note_on_c, 0, 53, 91
1, 522834, Note_on_c, 0, 61, 91
1, 522840, Note_off_c, 0, 39, 64
1, 522843, Note_off_c, 0, 47, 64
1, 522851, Note_off_c, 0, 61, 73
1, 522852, Note_off_c, 0, 53, 72
1, 522899, Note_on_c, 0, 61, 98
1, 522900, Note_on_c, 0, 40, 83
1, 522903, Note_on_c, 0, 48, 90
1, 522903, Note_on_c, 0, 53, 86
1, 522923, Note_off_c, 0, 53, 71
1, 522926, Note_off_c, 0, 40, 68
1, 522935, Note_off_c, 0, 48, 63
1, 522945, Note_off_c, 0, 61, 66
1, 522982, Note_on_c, 0, 42, 72
1, 523022, Note_on_c, 0, 49, 75
1, 523034, Note_off_c, 0, 42, 63
1, 523078, Note_off_c, 0, 49, 63
1, 523110, Note_on_c, 0, 42, 71
1, 523140, Control_c, 0, 64, 80
1, 523154, Control_c, 0, 64, 46
1, 523162, Note_on_c, 0, 48, 62
1, 523164, Note_off_c, 0, 42, 64
1, 523169, Control_c, 0, 64, 0
1, 523186, Note_on_c, 0, 51, 80
1, 523190, Note_on_c, 0, 69, 112
1, 523191, Note_on_c, 0, 75, 99
1, 523194, Note_on_c, 0, 81, 101
1, 523197, Note_off_c, 0, 48, 65
1, 523202, Note_on_c, 0, 57, 101
1, 523212, Note_on_c, 0, 80, 57
1, 523212, Note_off_c, 0, 80, 127
1, 523212, Note_off_c, 0, 51, 68
1, 523224, Note_off_c, 0, 57, 68
1, 523227, Note_on_c, 0, 71, 38
1, 523227, Note_off_c, 0, 71, 127
1, 523228, Control_c, 0, 64, 66
1, 523233, Note_off_c, 0, 69, 64
1, 523243, Note_on_c, 0, 79, 48
1, 523243, Control_c, 0, 64, 127
1, 523254, Note_off_c, 0, 75, 66
1, 523269, Note_off_c, 0, 79, 62
1, 523269, Note_off_c, 0, 81, 67
1, 523282, Poly_aftertouch_c, 0, 49, 0
1, 523452, Note_on_c, 0, 81, 111
1, 523454, Note_on_c, 0, 93, 106
1, 523519, Note_off_c, 0, 93, 64
1, 523525, Note_off_c, 0, 81, 64
1, 523561, Note_on_c, 0, 80, 100
1, 523599, Note_off_c, 0, 80, 61
1, 523627, Note_on_c, 0, 79, 89
1, 523631, Note_on_c, 0, 91, 89
1, 523643, Note_off_c, 0, 91, 73
1, 523643, Control_c, 0, 64, 87
1, 523646, Note_off_c, 0, 79, 70
1, 523658, Control_c, 0, 64, 58
1, 523661, Note_on_c, 0, 87, 31
1, 523661, Note_off_c, 0, 87, 127
1, 523661, Poly_aftertouch_c, 0, 73, 0
1, 523665, Poly_aftertouch_c, 0, 78, 0
1, 523668, Note_on_c, 0, 90, 25
1, 523668, Note_off_c, 0, 90, 127
1, 523672, Control_c, 0, 64, 0
1, 523674, Note_on_c, 0, 78, 77
1, 523695, Note_off_c, 0, 78, 70
1, 523702, Control_c, 0, 64, 61
1, 523717, Control_c, 0, 64, 83
1, 523725, Note_on_c, 0, 77, 77
1, 523731, Note_on_c, 0, 89, 100
1, 523733, Control_c, 0, 64, 127
1, 523747, Note_off_c, 0, 89, 74
1, 523752, Note_off_c, 0, 77, 66
1, 523788, Note_on_c, 0, 76, 102
1, 523820, Note_on_c, 0, 71, 45
1, 523820, Note_off_c, 0, 71, 127
1, 523822, Note_off_c, 0, 76, 64
1, 523823, Note_on_c, 0, 70, 38
1, 523823, Note_off_c, 0, 70, 127
1, 523839, Note_on_c, 0, 75, 93
1, 523841, Note_on_c, 0, 87, 92
1, 523865, Note_off_c, 0, 75, 69
1, 523874, Note_off_c, 0, 87, 61
1, 523906, Note_on_c, 0, 74, 95
1, 523938, Note_off_c, 0, 74, 62
1, 523943, Note_on_c, 0, 73, 83
1, 523943, Note_on_c, 0, 85, 30
1, 523961, Note_off_c, 0, 73, 72
1, 523968, Note_off_c, 0, 85, 65
1, 523979, Note_on_c, 0, 86, 49
1, 523979, Note_off_c, 0, 86, 127
1, 523992, Note_on_c, 0, 82, 5
1, 523992, Note_off_c, 0, 82, 127
1, 523999, Note_on_c, 0, 72, 101
1, 524027, Note_off_c, 0, 72, 65
1, 524038, Poly_aftertouch_c, 0, 82, 0
1, 524055, Note_on_c, 0, 83, 94
1, 524056, Note_on_c, 0, 71, 94
1, 524066, Control_c, 0, 64, 69
1, 524074, Note_off_c, 0, 71, 70
1, 524080, Note_off_c, 0, 83, 64
1, 524081, Control_c, 0, 64, 0
1, 524110, Control_c, 0, 64, 65
1, 524123, Note_on_c, 0, 70, 95
1, 524125, Control_c, 0, 64, 95
1, 524140, Control_c, 0, 64, 127
1, 524144, Note_off_c, 0, 70, 68
1, 524149, Note_on_c, 0, 68, 51
1, 524149, Note_off_c, 0, 68, 127
1, 524165, Note_on_c, 0, 69, 102
1, 524172, Note_on_c, 0, 81, 68
1, 524184, Note_on_c, 0, 79, 57
1, 524185, Note_on_c, 0, 78, 56
1, 524185, Note_off_c, 0, 69, 65
1, 524192, Note_off_c, 0, 81, 67
1, 524205, Note_off_c, 0, 78, 64
1, 524205, Note_off_c, 0, 79, 63
1, 524230, Note_on_c, 0, 68, 98
1, 524269, Note_off_c, 0, 68, 60
1, 524271, Note_on_c, 0, 67, 99
1, 524271, Note_on_c, 0, 79, 92
1, 524297, Note_off_c, 0, 79, 58
1, 524299, Note_off_c, 0, 67, 57
1, 524324, Note_on_c, 0, 66, 100
1, 524363, Note_off_c, 0, 66, 63
1, 524374, Note_on_c, 0, 77, 36
1, 524380, Note_on_c, 0, 65, 97
1, 524402, Note_off_c, 0, 65, 68
1, 524417, Note_off_c, 0, 77, 65
1, 524420, Note_on_c, 0, 67, 23
1, 524420, Note_off_c, 0, 67, 127
1, 524438, Note_on_c, 0, 64, 87
1, 524485, Note_off_c, 0, 64, 60
1, 524493, Note_on_c, 0, 75, 77
1, 524494, Note_on_c, 0, 63, 86
1, 524513, Note_off_c, 0, 63, 71
1, 524516, Note_off_c, 0, 75, 69
1, 524535, Note_on_c, 0, 62, 81
1, 524556, Note_off_c, 0, 62, 70
1, 524584, Note_on_c, 0, 61, 90
1, 524584, Note_on_c, 0, 73, 92
1, 524620, Note_off_c, 0, 61, 63
1, 524622, Note_off_c, 0, 73, 60
1, 524658, Note_on_c, 0, 57, 97
1, 524659, Note_on_c, 0, 54, 91
1, 524674, Note_off_c, 0, 57, 74
1, 524679, Note_off_c, 0, 54, 72
1, 524685, Note_on_c, 0, 60, 95
1, 524691, Note_on_c, 0, 72, 85
1, 524695, Note_on_c, 0, 55, 40
1, 524695, Note_off_c, 0, 55, 127
1, 524697, Control_c, 0, 64, 106
1, 524710, Note_on_c, 0, 70, 59
1, 524712, Note_on_c, 0, 68, 46
1, 524712, Control_c, 0, 64, 64
1, 524721, Note_off_c, 0, 72, 56
1, 524727, Control_c, 0, 64, 0
1, 524727, Note_off_c, 0, 60, 64
1, 524728, Note_off_c, 0, 70, 61
1, 524740, Note_off_c, 0, 68, 52
1, 524793, Note_on_c, 0, 49, 109
1, 524801, Control_c, 0, 64, 63
1, 524803, Note_on_c, 0, 44, 83
1, 524808, Note_on_c, 0, 61, 93
1, 524808, Note_off_c, 0, 49, 77
1, 524811, Note_on_c, 0, 65, 87
1, 524813, Note_on_c, 0, 41, 59
1, 524813, Note_on_c, 0, 73, 90
1, 524816, Control_c, 0, 64, 94
1, 524825, Note_off_c, 0, 44, 68
1, 524826, Note_off_c, 0, 61, 71
1, 524831, Control_c, 0, 64, 127
1, 524839, Note_off_c, 0, 41, 64
1, 524849, Note_off_c, 0, 65, 61
1, 524879, Note_off_c, 0, 73, 61
1, 524945, Note_on_c, 0, 37, 84
1, 524956, Note_on_c, 0, 29, 69
1, 524975, Note_off_c, 0, 37, 64
1, 524983, Note_on_c, 0, 85, 88
1, 524991, Note_off_c, 0, 29, 62
1, 524995, Note_on_c, 0, 94, 73
1, 524995, Note_off_c, 0, 94, 127
1, 524998, Note_on_c, 0, 88, 60
1, 525001, Note_off_c, 0, 85, 74
1, 525020, Note_off_c, 0, 88, 62
1, 525036, Note_on_c, 0, 38, 83
1, 525052, Control_c, 0, 64, 103
1, 525053, Note_on_c, 0, 85, 94
1, 525059, Note_on_c, 0, 97, 69
1, 525059, Note_off_c, 0, 97, 127
1, 525064, Note_off_c, 0, 38, 68
1, 525066, Note_on_c, 0, 94, 67
1, 525066, Note_off_c, 0, 94, 127
1, 525067, Control_c, 0, 64, 66
1, 525070, Note_on_c, 0, 88, 67
1, 525070, Note_on_c, 0, 89, 60
1, 525072, Note_on_c, 0, 96, 65
1, 525079, Note_on_c, 0, 29, 35
1, 525082, Control_c, 0, 64, 0
1, 525093, Note_off_c, 0, 88, 57
1, 525096, Note_off_c, 0, 96, 67
1, 525102, Note_off_c, 0, 85, 58
1, 525105, Note_off_c, 0, 89, 49
1, 525111, Control_c, 0, 64, 33
1, 525122, Note_off_c, 0, 29, 32
1, 525126, Control_c, 0, 64, 68
1, 525141, Control_c, 0, 64, 127
1, 525159, Note_on_c, 0, 39, 103
1, 525165, Note_on_c, 0, 90, 100
1, 525167, Note_on_c, 0, 97, 97
1, 525172, Note_on_c, 0, 85, 97
1, 525176, Note_on_c, 0, 31, 76
1, 525183, Note_on_c, 0, 94, 59
1, 525189, Note_off_c, 0, 97, 64
1, 525198, Note_on_c, 0, 86, 66
1, 525198, Note_off_c, 0, 90, 66
1, 525200, Note_off_c, 0, 39, 62
1, 525201, Note_off_c, 0, 85, 0
1, 525208, Note_off_c, 0, 94, 58
1, 525210, Note_off_c, 0, 31, 63
1, 525217, Note_off_c, 0, 86, 67
1, 525229, Poly_aftertouch_c, 0, 85, 0
1, 525263, Note_on_c, 0, 40, 87
1, 525269, Note_on_c, 0, 32, 82
1, 525302, Note_off_c, 0, 32, 64
1, 525310, Note_off_c, 0, 40, 61
1, 525329, Note_on_c, 0, 73, 89
1, 525330, Note_on_c, 0, 77, 81
1, 525339, Note_on_c, 0, 85, 70
1, 525353, Note_off_c, 0, 73, 73
1, 525356, Note_off_c, 0, 77, 72
1, 525362, Note_off_c, 0, 85, 68
1, 525376, Note_on_c, 0, 41, 98
1, 525391, Note_on_c, 0, 33, 78
1, 525394, Note_on_c, 0, 73, 98
1, 525399, Note_on_c, 0, 85, 102
1, 525401, Control_c, 0, 64, 62
1, 525402, Note_on_c, 0, 77, 81
1, 525405, Note_off_c, 0, 41, 65
1, 525411, Note_on_c, 0, 38, 58
1, 525416, Control_c, 0, 64, 0
1, 525420, Note_off_c, 0, 33, 64
1, 525451, Note_off_c, 0, 38, 56
1, 525461, Control_c, 0, 64, 67
1, 525465, Note_off_c, 0, 73, 61
1, 525469, Note_on_c, 0, 42, 96
1, 525470, Note_off_c, 0, 77, 57
1, 525474, Note_off_c, 0, 85, 65
1, 525475, Control_c, 0, 64, 127
1, 525483, Note_on_c, 0, 34, 51
1, 525509, Note_off_c, 0, 42, 65
1, 525517, Note_off_c, 0, 34, 62
1, 525558, Note_on_c, 0, 73, 104
1, 525563, Note_on_c, 0, 85, 107
1, 525567, Note_on_c, 0, 43, 92
1, 525570, Note_on_c, 0, 35, 81
1, 525570, Note_on_c, 0, 77, 69
1, 525576, Note_off_c, 0, 85, 77
1, 525591, Note_on_c, 0, 82, 38
1, 525594, Note_off_c, 0, 77, 68
1, 525603, Note_off_c, 0, 73, 64
1, 525603, Note_off_c, 0, 35, 62
1, 525611, Note_off_c, 0, 43, 62
1, 525621, Note_off_c, 0, 82, 35
1, 525654, Poly_aftertouch_c, 0, 36, 127
1, 525669, Note_on_c, 0, 44, 93
1, 525702, Poly_aftertouch_c, 0, 36, 0
1, 525713, Note_off_c, 0, 44, 64
1, 525719, Note_on_c, 0, 61, 77
1, 525719, Note_on_c, 0, 65, 77
1, 525719, Note_on_c, 0, 73, 78
1, 525737, Note_off_c, 0, 73, 67
1, 525741, Note_off_c, 0, 65, 71
1, 525742, Control_c, 0, 64, 93
1, 525746, Note_off_c, 0, 61, 67
1, 525757, Control_c, 0, 64, 56
1, 525772, Note_on_c, 0, 45, 94
1, 525772, Control_c, 0, 64, 0
1, 525774, Note_on_c, 0, 61, 95
1, 525779, Note_on_c, 0, 37, 92
1, 525782, Note_on_c, 0, 73, 94
1, 525801, Control_c, 0, 64, 42
1, 525809, Note_off_c, 0, 37, 66
1, 525811, Note_off_c, 0, 45, 64
1, 525816, Control_c, 0, 64, 71
1, 525831, Control_c, 0, 64, 127
1, 525869, Note_off_c, 0, 61, 57
1, 525871, Note_on_c, 0, 46, 94
1, 525874, Note_off_c, 0, 73, 52
1, 525885, Note_on_c, 0, 39, 56
1, 525888, Note_on_c, 0, 38, 67
1, 525915, Note_off_c, 0, 39, 53
1, 525919, Note_off_c, 0, 38, 64
1, 525919, Note_off_c, 0, 46, 64
1, 525946, Note_on_c, 0, 47, 4
1, 525960, Note_on_c, 0, 61, 104
1, 525970, Note_on_c, 0, 73, 83
1, 525971, Note_off_c, 0, 47, 0
1, 525971, Note_on_c, 0, 47, 25
1, 525979, Note_on_c, 0, 39, 97
1, 525986, Note_off_c, 0, 73, 74
1, 526007, Note_off_c, 0, 39, 63
1, 526007, Note_off_c, 0, 61, 62
1, 526015, Note_off_c, 0, 47, 65
1, 526072, Note_on_c, 0, 38, 83
1, 526072, Note_on_c, 0, 48, 104
1, 526110, Note_on_c, 0, 53, 90
1, 526112, Note_off_c, 0, 38, 66
1, 526114, Note_off_c, 0, 48, 65
1, 526115, Note_on_c, 0, 61, 84
1, 526131, Note_off_c, 0, 53, 71
1, 526136, Note_off_c, 0, 61, 71
1, 526186, Note_on_c, 0, 49, 95
1, 526186, Note_on_c, 0, 61, 103
1, 526188, Note_on_c, 0, 53, 99
1, 526193, Note_on_c, 0, 41, 78
1, 526199, Note_on_c, 0, 43, 31
1, 526203, Note_on_c, 0, 37, 59
1, 526206, Note_off_c, 0, 53, 66
1, 526226, Note_off_c, 0, 49, 64
1, 526229, Note_off_c, 0, 41, 63
1, 526232, Note_off_c, 0, 61, 59
1, 526235, Note_off_c, 0, 37, 60
1, 526235, Note_off_c, 0, 43, 55
1, 526249, Poly_aftertouch_c, 0, 60, 0
1, 526268, Poly_aftertouch_c, 0, 58, 0
1, 526318, Note_on_c, 0, 47, 79
1, 526322, Note_on_c, 0, 45, 77
1, 526345, Note_off_c, 0, 47, 67
1, 526351, Note_on_c, 0, 35, 36
1, 526351, Note_off_c, 0, 45, 61
1, 526357, Note_on_c, 0, 33, 24
1, 526390, Note_off_c, 0, 35, 48
1, 526405, Note_off_c, 0, 33, 42
1, 526467, Note_on_c, 0, 33, 56
1, 526491, Control_c, 0, 64, 98
1, 526506, Control_c, 0, 64, 67
1, 526521, Control_c, 0, 64, 34
1, 526536, Control_c, 0, 64, 0
1, 526553, Note_on_c, 0, 37, 61
1, 526613, Note_off_c, 0, 33, 60
1, 526652, Note_on_c, 0, 45, 56
1, 526654, Control_c, 0, 64, 44
1, 526669, Control_c, 0, 64, 75
1, 526671, Note_off_c, 0, 37, 59
1, 526684, Control_c, 0, 64, 127
1, 526687, Note_on_c, 0, 54, 64
1, 526691, Note_on_c, 0, 66, 63
1, 526691, Note_off_c, 0, 45, 64
1, 526719, Note_on_c, 0, 61, 40
1, 526742, Note_off_c, 0, 54, 56
1, 526753, Note_off_c, 0, 61, 55
1, 526772, Note_off_c, 0, 66, 55
1, 526865, Note_on_c, 0, 55, 71
1, 526893, Note_off_c, 0, 55, 66
1, 526923, Note_on_c, 0, 56, 71
1, 526923, Note_on_c, 0, 68, 69
1, 526950, Note_off_c, 0, 56, 64
1, 526950, Note_off_c, 0, 68, 67
1, 527001, Note_on_c, 0, 57, 75
1, 527026, Note_off_c, 0, 57, 68
1, 527042, Note_on_c, 0, 70, 78
1, 527044, Note_on_c, 0, 58, 71
1, 527061, Note_off_c, 0, 70, 72
1, 527062, Note_off_c, 0, 58, 67
1, 527110, Note_on_c, 0, 59, 80
1, 527145, Note_off_c, 0, 59, 61
1, 527152, Note_on_c, 0, 72, 84
1, 527153, Note_on_c, 0, 60, 84
1, 527171, Note_off_c, 0, 60, 73
1, 527174, Note_off_c, 0, 72, 65
1, 527216, Note_on_c, 0, 61, 81
1, 527252, Note_on_c, 0, 62, 96
1, 527257, Note_on_c, 0, 74, 89
1, 527263, Note_off_c, 0, 61, 55
1, 527281, Note_off_c, 0, 62, 58
1, 527290, Note_on_c, 0, 73, 35
1, 527303, Note_off_c, 0, 74, 60
1, 527320, Note_on_c, 0, 63, 85
1, 527322, Note_off_c, 0, 73, 52
1, 527370, Note_on_c, 0, 76, 91
1, 527374, Note_off_c, 0, 63, 62
1, 527406, Note_on_c, 0, 65, 88
1, 527418, Note_off_c, 0, 76, 65
1, 527442, Note_off_c, 0, 65, 67
1, 527491, Control_c, 0, 64, 92
1, 527506, Control_c, 0, 64, 55
1, 527511, Note_on_c, 0, 66, 102
1, 527513, Note_on_c, 0, 78, 99
1, 527516, Note_on_c, 0, 54, 100
1, 527519, Note_on_c, 0, 73, 86
1, 527520, Note_on_c, 0, 70, 82
1, 527521, Control_c, 0, 64, 0
1, 527531, Note_on_c, 0, 46, 68
1, 527537, Note_on_c, 0, 49, 60
1, 527540, Note_on_c, 0, 75, 49
1, 527540, Note_off_c, 0, 54, 66
1, 527551, Control_c, 0, 64, 50
1, 527555, Note_off_c, 0, 46, 65
1, 527564, Note_off_c, 0, 75, 57
1, 527565, Control_c, 0, 64, 71
1, 527566, Note_off_c, 0, 49, 65
1, 527580, Control_c, 0, 64, 127
1, 527581, Note_off_c, 0, 78, 63
1, 527594, Note_off_c, 0, 66, 58
1, 527598, Note_off_c, 0, 70, 58
1, 527624, Note_off_c, 0, 73, 60
1, 527663, Note_on_c, 0, 65, 83
1, 527684, Note_off_c, 0, 65, 71
1, 527743, Note_on_c, 0, 64, 75
1, 527743, Note_on_c, 0, 76, 84
1, 527764, Note_off_c, 0, 64, 70
1, 527764, Note_off_c, 0, 76, 68
1, 527806, Note_on_c, 0, 63, 92
1, 527838, Note_off_c, 0, 63, 59
1, 527853, Note_on_c, 0, 62, 86
1, 527857, Note_on_c, 0, 74, 79
1, 527872, Note_off_c, 0, 62, 71
1, 527877, Note_off_c, 0, 74, 67
1, 527915, Note_on_c, 0, 61, 97
1, 527940, Note_off_c, 0, 61, 60
1, 527957, Note_on_c, 0, 60, 93
1, 527959, Note_on_c, 0, 72, 83
1, 527976, Note_off_c, 0, 60, 73
1, 527979, Note_off_c, 0, 72, 70
1, 528020, Note_on_c, 0, 59, 92
1, 528045, Note_on_c, 0, 53, 48
1, 528045, Note_off_c, 0, 53, 127
1, 528062, Note_off_c, 0, 59, 63
1, 528068, Note_on_c, 0, 58, 84
1, 528071, Note_on_c, 0, 70, 82
1, 528091, Note_off_c, 0, 70, 67
1, 528094, Note_off_c, 0, 58, 66
1, 528127, Note_on_c, 0, 57, 84
1, 528170, Note_on_c, 0, 55, 37
1, 528176, Note_on_c, 0, 56, 80
1, 528177, Note_on_c, 0, 68, 84
1, 528190, Note_off_c, 0, 57, 62
1, 528195, Note_on_c, 0, 58, 60
1, 528203, Note_off_c, 0, 55, 64
1, 528203, Note_off_c, 0, 56, 65
1, 528211, Note_off_c, 0, 68, 54
1, 528214, Note_off_c, 0, 58, 66
1, 528277, Note_on_c, 0, 54, 89
1, 528280, Note_on_c, 0, 66, 80
1, 528297, Note_off_c, 0, 54, 72
1, 528300, Note_off_c, 0, 66, 69
1, 528300, Control_c, 0, 64, 77
1, 528306, Note_on_c, 0, 63, 50
1, 528314, Control_c, 0, 64, 0
1, 528323, Note_on_c, 0, 35, 60
1, 528331, Note_off_c, 0, 63, 56
1, 528362, Note_off_c, 0, 35, 62
1, 528364, Note_on_c, 0, 38, 52
1, 528372, Note_on_c, 0, 47, 86
1, 528380, Note_on_c, 0, 55, 85
1, 528380, Note_on_c, 0, 62, 79
1, 528381, Note_on_c, 0, 59, 69
1, 528381, Control_c, 0, 64, 68
1, 528382, Note_on_c, 0, 43, 56
1, 528383, Note_on_c, 0, 67, 78
1, 528396, Note_off_c, 0, 38, 64
1, 528396, Control_c, 0, 64, 127
1, 528399, Note_off_c, 0, 47, 69
1, 528408, Note_off_c, 0, 43, 57
1, 528412, Note_on_c, 0, 65, 53
1, 528421, Note_off_c, 0, 55, 59
1, 528439, Note_off_c, 0, 65, 37
1, 528442, Note_off_c, 0, 59, 62
1, 528447, Note_off_c, 0, 67, 58
1, 528453, Note_off_c, 0, 62, 60
1, 528504, Note_on_c, 0, 56, 85
1, 528533, Note_off_c, 0, 56, 58
1, 528582, Note_on_c, 0, 57, 81
1, 528590, Note_on_c, 0, 69, 74
1, 528603, Note_off_c, 0, 57, 70
1, 528614, Note_off_c, 0, 69, 69
1, 528623, Note_on_c, 0, 58, 91
1, 528658, Note_off_c, 0, 58, 62
1, 528680, Poly_aftertouch_c, 0, 59, 0
1, 528694, Note_on_c, 0, 59, 57
1, 528700, Note_on_c, 0, 71, 79
1, 528720, Note_off_c, 0, 71, 72
1, 528724, Note_off_c, 0, 59, 63
1, 528750, Note_on_c, 0, 60, 90
1, 528771, Note_off_c, 0, 60, 71
1, 528807, Note_on_c, 0, 73, 92
1, 528809, Note_on_c, 0, 61, 91
1, 528828, Note_off_c, 0, 61, 70
1, 528853, Note_off_c, 0, 73, 58
1, 528858, Note_on_c, 0, 62, 86
1, 528884, Note_off_c, 0, 62, 64
1, 528901, Poly_aftertouch_c, 0, 70, 0
1, 528909, Note_on_c, 0, 63, 92
1, 528912, Note_on_c, 0, 75, 94
1, 528927, Note_off_c, 0, 63, 73
1, 528950, Note_off_c, 0, 75, 61
1, 528971, Note_on_c, 0, 64, 92
1, 529007, Note_off_c, 0, 64, 64
1, 529016, Note_on_c, 0, 65, 100
1, 529023, Note_on_c, 0, 77, 82
1, 529046, Note_off_c, 0, 77, 64
1, 529049, Note_off_c, 0, 65, 60
1, 529057, Note_on_c, 0, 75, 32
1, 529076, Note_on_c, 0, 65, 73
1, 529083, Note_off_c, 0, 75, 60
1, 529103, Note_on_c, 0, 66, 35
1, 529103, Note_off_c, 0, 66, 127
1, 529110, Note_off_c, 0, 65, 67
1, 529130, Note_on_c, 0, 67, 99
1, 529141, Note_on_c, 0, 79, 79
1, 529144, Note_off_c, 0, 67, 75
1, 529155, Note_off_c, 0, 79, 70
1, 529160, Control_c, 0, 64, 103
1, 529175, Control_c, 0, 64, 57
1, 529190, Control_c, 0, 64, 0
1, 529208, Note_on_c, 0, 56, 109
1, 529209, Note_on_c, 0, 72, 89
1, 529210, Note_on_c, 0, 68, 95
1, 529210, Note_on_c, 0, 75, 91
1, 529213, Note_on_c, 0, 80, 87
1, 529217, Note_on_c, 0, 51, 81
1, 529219, Control_c, 0, 64, 38
1, 529226, Note_off_c, 0, 80, 71
1, 529227, Note_on_c, 0, 54, 60
1, 529227, Note_off_c, 0, 54, 127
1, 529228, Note_off_c, 0, 56, 63
1, 529229, Note_on_c, 0, 57, 71
1, 529230, Note_on_c, 0, 48, 58
1, 529234, Control_c, 0, 64, 80
1, 529235, Note_on_c, 0, 78, 64
1, 529237, Note_on_c, 0, 55, 50
1, 529237, Note_off_c, 0, 55, 127
1, 529240, Note_on_c, 0, 79, 62
1, 529243, Note_on_c, 0, 67, 47
1, 529246, Note_on_c, 0, 49, 29
1, 529246, Note_off_c, 0, 51, 66
1, 529249, Control_c, 0, 64, 127
1, 529250, Note_off_c, 0, 57, 64
1, 529255, Note_off_c, 0, 48, 59
1, 529261, Note_off_c, 0, 79, 64
1, 529265, Note_off_c, 0, 67, 62
1, 529273, Note_off_c, 0, 78, 45
1, 529281, Note_off_c, 0, 72, 60
1, 529283, Note_off_c, 0, 68, 63
1, 529284, Note_off_c, 0, 49, 47
1, 529291, Note_off_c, 0, 75, 60
1, 529350, Note_on_c, 0, 67, 87
1, 529361, Poly_aftertouch_c, 0, 80, 0
1, 529396, Note_off_c, 0, 67, 61
1, 529416, Note_on_c, 0, 66, 87
1, 529434, Note_off_c, 0, 66, 72
1, 529441, Note_on_c, 0, 77, 42
1, 529468, Note_off_c, 0, 77, 57
1, 529473, Note_on_c, 0, 65, 88
1, 529500, Note_off_c, 0, 65, 64
1, 529514, Poly_aftertouch_c, 0, 75, 0
1, 529529, Note_on_c, 0, 64, 86
1, 529535, Note_on_c, 0, 76, 75
1, 529548, Note_off_c, 0, 64, 72
1, 529550, Note_off_c, 0, 76, 68
1, 529581, Note_on_c, 0, 74, 6
1, 529591, Note_on_c, 0, 63, 88
1, 529612, Note_off_c, 0, 63, 68
1, 529620, Note_off_c, 0, 74, 0
1, 529636, Note_on_c, 0, 62, 94
1, 529636, Note_on_c, 0, 74, 57
1, 529656, Note_off_c, 0, 62, 68
1, 529663, Note_off_c, 0, 74, 65
1, 529672, Note_on_c, 0, 70, 27
1, 529672, Note_off_c, 0, 70, 127
1, 529691, Note_on_c, 0, 61, 88
1, 529713, Note_off_c, 0, 61, 68
1, 529749, Note_on_c, 0, 72, 77
1, 529752, Note_on_c, 0, 60, 88
1, 529769, Note_off_c, 0, 60, 74
1, 529769, Note_off_c, 0, 72, 69
1, 529799, Note_on_c, 0, 59, 90
1, 529829, Note_on_c, 0, 53, 46
1, 529829, Note_off_c, 0, 53, 127
1, 529834, Note_off_c, 0, 59, 65
1, 529867, Note_on_c, 0, 70, 84
1, 529869, Poly_aftertouch_c, 0, 53, 0
1, 529872, Note_on_c, 0, 58, 84
1, 529893, Note_off_c, 0, 58, 71
1, 529894, Note_on_c, 0, 57, 77
1, 529901, Note_off_c, 0, 70, 56
1, 529912, Note_off_c, 0, 57, 65
1, 529953, Note_on_c, 0, 68, 36
1, 529958, Note_on_c, 0, 56, 98
1, 529974, Note_off_c, 0, 56, 73
1, 529983, Control_c, 0, 64, 77
1, 529993, Note_off_c, 0, 68, 65
1, 529998, Control_c, 0, 64, 0
1, 530036, Note_on_c, 0, 49, 97
1, 530039, Note_on_c, 0, 42, 83
1, 530039, Note_on_c, 0, 45, 82
1, 530044, Note_on_c, 0, 57, 99
1, 530046, Note_on_c, 0, 61, 92
1, 530047, Note_on_c, 0, 69, 92
1, 530048, Note_on_c, 0, 66, 67
1, 530057, Control_c, 0, 64, 67
1, 530064, Note_off_c, 0, 42, 65
1, 530065, Note_off_c, 0, 45, 66
1, 530069, Note_on_c, 0, 46, 37
1, 530069, Note_off_c, 0, 46, 127
1, 530072, Control_c, 0, 64, 127
1, 530088, Note_off_c, 0, 49, 61
1, 530099, Note_off_c, 0, 57, 62
1, 530106, Note_off_c, 0, 69, 61
1, 530121, Note_off_c, 0, 66, 61
1, 530125, Note_off_c, 0, 61, 59
1, 530179, Note_on_c, 0, 58, 86
1, 530195, Note_on_c, 0, 59, 69
1, 530206, Note_off_c, 0, 58, 63
1, 530220, Note_off_c, 0, 59, 68
1, 530251, Note_on_c, 0, 71, 72
1, 530272, Note_off_c, 0, 71, 70
1, 530312, Note_on_c, 0, 60, 98
1, 530346, Note_off_c, 0, 60, 69
1, 530352, Poly_aftertouch_c, 0, 59, 0
1, 530356, Note_on_c, 0, 73, 92
1, 530359, Note_on_c, 0, 61, 90
1, 530380, Note_off_c, 0, 61, 69
1, 530400, Note_off_c, 0, 73, 61
1, 530402, Note_on_c, 0, 70, 5
1, 530427, Note_on_c, 0, 62, 95
1, 530464, Note_off_c, 0, 62, 60
1, 530465, Note_on_c, 0, 63, 96
1, 530467, Note_off_c, 0, 70, 36
1, 530468, Note_on_c, 0, 75, 90
1, 530482, Note_off_c, 0, 63, 74
1, 530487, Note_off_c, 0, 75, 70
1, 530539, Note_on_c, 0, 64, 77
1, 530572, Note_on_c, 0, 65, 106
1, 530576, Note_on_c, 0, 77, 88
1, 530579, Note_off_c, 0, 64, 62
1, 530593, Note_on_c, 0, 75, 65
1, 530601, Note_off_c, 0, 65, 64
1, 530607, Note_off_c, 0, 77, 62
1, 530614, Note_off_c, 0, 75, 63
1, 530659, Note_on_c, 0, 66, 75
1, 530664, Note_on_c, 0, 67, 85
1, 530675, Note_off_c, 0, 66, 65
1, 530686, Note_off_c, 0, 67, 0
1, 530695, Note_on_c, 0, 67, 88
1, 530703, Note_on_c, 0, 79, 91
1, 530718, Note_on_c, 0, 77, 63
1, 530725, Note_off_c, 0, 79, 69
1, 530727, Note_off_c, 0, 67, 60
1, 530732, Note_off_c, 0, 77, 68
1, 530741, Note_on_c, 0, 68, 103
1, 530781, Note_on_c, 0, 69, 43
1, 530782, Note_off_c, 0, 68, 60
1, 530791, Poly_aftertouch_c, 0, 75, 0
1, 530802, Note_off_c, 0, 69, 0
1, 530802, Note_on_c, 0, 69, 75
1, 530813, Note_on_c, 0, 78, 87
1, 530814, Poly_aftertouch_c, 0, 75, 0
1, 530820, Note_on_c, 0, 81, 78
1, 530821, Note_on_c, 0, 75, 45
1, 530831, Note_off_c, 0, 78, 73
1, 530833, Note_on_c, 0, 76, 55
1, 530833, Note_off_c, 0, 76, 127
1, 530833, Note_off_c, 0, 81, 70
1, 530837, Note_off_c, 0, 69, 60
1, 530849, Control_c, 0, 64, 97
1, 530850, Note_off_c, 0, 75, 64
1, 530864, Control_c, 0, 64, 56
1, 530879, Control_c, 0, 64, 0
1, 530887, Note_on_c, 0, 58, 105
1, 530894, Note_on_c, 0, 70, 104
1, 530894, Note_on_c, 0, 79, 77
1, 530895, Note_on_c, 0, 82, 96
1, 530897, Note_on_c, 0, 55, 79
1, 530898, Note_on_c, 0, 76, 82
1, 530900, Note_on_c, 0, 52, 72
1, 530909, Control_c, 0, 64, 64
1, 530910, Note_on_c, 0, 56, 65
1, 530910, Note_off_c, 0, 56, 127
1, 530914, Note_on_c, 0, 49, 50
1, 530920, Note_off_c, 0, 55, 70
1, 530925, Control_c, 0, 64, 127
1, 530926, Note_off_c, 0, 52, 68
1, 530935, Note_on_c, 0, 78, 43
1, 530935, Note_off_c, 0, 58, 52
1, 530940, Note_off_c, 0, 49, 58
1, 530954, Note_off_c, 0, 82, 65
1, 530963, Note_off_c, 0, 78, 55
1, 530968, Note_off_c, 0, 70, 60
1, 530969, Note_off_c, 0, 79, 64
1, 530981, Note_off_c, 0, 76, 60
1, 530999, Poly_aftertouch_c, 0, 51, 0
1, 531049, Note_on_c, 0, 69, 73
1, 531057, Note_on_c, 0, 71, 69
1, 531077, Note_off_c, 0, 71, 67
1, 531085, Note_off_c, 0, 69, 58
1, 531099, Note_on_c, 0, 68, 83
1, 531117, Note_on_c, 0, 78, 64
1, 531124, Note_off_c, 0, 68, 63
1, 531134, Note_off_c, 0, 78, 65
1, 531156, Note_on_c, 0, 67, 79
1, 531208, Note_off_c, 0, 67, 64
1, 531212, Note_on_c, 0, 78, 70
1, 531213, Note_on_c, 0, 66, 87
1, 531229, Note_off_c, 0, 78, 39
1, 531232, Note_off_c, 0, 66, 71
1, 531237, Note_on_c, 0, 77, 59
1, 531249, Note_on_c, 0, 65, 87
1, 531256, Note_off_c, 0, 77, 64
1, 531273, Note_off_c, 0, 65, 69
1, 531323, Note_on_c, 0, 64, 90
1, 531325, Note_on_c, 0, 76, 89
1, 531351, Note_on_c, 0, 74, 70
1, 531359, Note_off_c, 0, 64, 61
1, 531365, Note_off_c, 0, 76, 61
1, 531371, Note_off_c, 0, 74, 40
1, 531380, Note_on_c, 0, 73, 11
1, 531398, Note_on_c, 0, 63, 102
1, 531427, Note_off_c, 0, 73, 40
1, 531436, Note_off_c, 0, 63, 61
1, 531445, Note_on_c, 0, 62, 96
1, 531446, Note_on_c, 0, 74, 86
1, 531466, Note_off_c, 0, 74, 67
1, 531468, Note_off_c, 0, 62, 63
1, 531489, Note_on_c, 0, 72, 24
1, 531489, Note_off_c, 0, 72, 127
1, 531496, Poly_aftertouch_c, 0, 61, 0
1, 531505, Note_on_c, 0, 61, 70
1, 531553, Note_off_c, 0, 61, 63
1, 531559, Note_on_c, 0, 60, 73
1, 531562, Note_on_c, 0, 72, 78
1, 531574, Note_on_c, 0, 62, 62
1, 531584, Note_off_c, 0, 72, 69
1, 531587, Note_off_c, 0, 60, 69
1, 531590, Note_off_c, 0, 62, 71
1, 531604, Note_on_c, 0, 59, 100
1, 531619, Note_off_c, 0, 59, 73
1, 531678, Note_on_c, 0, 58, 73
1, 531684, Note_on_c, 0, 66, 72
1, 531687, Note_on_c, 0, 70, 44
1, 531689, Note_on_c, 0, 68, 71
1, 531702, Note_on_c, 0, 57, 49
1, 531705, Note_off_c, 0, 68, 69
1, 531708, Note_off_c, 0, 58, 65
1, 531711, Note_off_c, 0, 66, 67
1, 531711, Note_off_c, 0, 70, 36
1, 531718, Control_c, 0, 64, 99
1, 531730, Note_off_c, 0, 57, 56
1, 531733, Control_c, 0, 64, 58
1, 531748, Control_c, 0, 64, 0
1, 531760, Note_on_c, 0, 47, 99
1, 531764, Note_on_c, 0, 43, 94
1, 531765, Note_on_c, 0, 59, 92
1, 531766, Note_on_c, 0, 38, 96
1, 531773, Note_on_c, 0, 71, 75
1, 531777, Control_c, 0, 64, 59
1, 531779, Note_on_c, 0, 67, 66
1, 531782, Note_off_c, 0, 43, 75
1, 531789, Note_off_c, 0, 38, 71
1, 531791, Note_on_c, 0, 69, 65
1, 531792, Control_c, 0, 64, 98
1, 531797, Note_off_c, 0, 67, 68
1, 531800, Note_off_c, 0, 47, 61
1, 531804, Note_on_c, 0, 41, 26
1, 531804, Note_off_c, 0, 41, 127
1, 531807, Control_c, 0, 64, 127
1, 531812, Note_off_c, 0, 69, 58
1, 531818, Note_off_c, 0, 71, 57
1, 531839, Poly_aftertouch_c, 0, 41, 0
1, 531877, Note_on_c, 0, 60, 83
1, 531884, Note_off_c, 0, 59, 61
1, 531941, Note_off_c, 0, 60, 64
1, 531946, Note_on_c, 0, 61, 73
1, 531970, Note_off_c, 0, 61, 66
1, 531993, Note_on_c, 0, 59, 97
1, 531994, Note_on_c, 0, 62, 83
1, 531998, Note_on_c, 0, 50, 86
1, 532000, Note_on_c, 0, 55, 81
1, 532014, Note_off_c, 0, 59, 68
1, 532020, Note_off_c, 0, 55, 72
1, 532026, Note_off_c, 0, 50, 63
1, 532030, Control_c, 0, 64, 96
1, 532045, Control_c, 0, 64, 62
1, 532046, Note_off_c, 0, 62, 62
1, 532058, Note_on_c, 0, 63, 80
1, 532060, Control_c, 0, 64, 0
1, 532078, Note_off_c, 0, 63, 71
1, 532094, Note_on_c, 0, 55, 76
1, 532104, Note_on_c, 0, 59, 67
1, 532122, Note_on_c, 0, 64, 77
1, 532130, Note_off_c, 0, 59, 58
1, 532138, Note_off_c, 0, 55, 53
1, 532186, Note_on_c, 0, 65, 83
1, 532193, Note_off_c, 0, 64, 58
1, 532234, Note_on_c, 0, 66, 70
1, 532259, Note_off_c, 0, 66, 50
1, 532260, Note_on_c, 0, 59, 98
1, 532264, Note_on_c, 0, 55, 97
1, 532264, Note_off_c, 0, 65, 60
1, 532272, Note_on_c, 0, 50, 77
1, 532274, Control_c, 0, 64, 54
1, 532288, Note_on_c, 0, 67, 76
1, 532289, Control_c, 0, 64, 127
1, 532291, Note_off_c, 0, 59, 67
1, 532294, Note_off_c, 0, 55, 62
1, 532306, Note_off_c, 0, 50, 64
1, 532350, Note_on_c, 0, 68, 81
1, 532373, Note_off_c, 0, 67, 62
1, 532391, Note_on_c, 0, 69, 72
1, 532408, Note_off_c, 0, 68, 63
1, 532433, Note_on_c, 0, 70, 75
1, 532440, Note_off_c, 0, 69, 64
1, 532460, Note_off_c, 0, 70, 68
1, 532489, Note_on_c, 0, 47, 83
1, 532493, Note_on_c, 0, 38, 82
1, 532494, Note_on_c, 0, 71, 82
1, 532495, Note_on_c, 0, 43, 74
1, 532513, Note_off_c, 0, 47, 67
1, 532519, Note_off_c, 0, 38, 65
1, 532528, Note_off_c, 0, 43, 64
1, 532549, Note_on_c, 0, 72, 84
1, 532565, Note_on_c, 0, 47, 80
1, 532584, Note_on_c, 0, 45, 68
1, 532587, Note_off_c, 0, 71, 41
1, 532590, Note_on_c, 0, 43, 63
1, 532601, Control_c, 0, 64, 120
1, 532607, Note_off_c, 0, 45, 38
1, 532616, Control_c, 0, 64, 82
1, 532619, Note_off_c, 0, 47, 59
1, 532623, Note_off_c, 0, 72, 63
1, 532629, Note_off_c, 0, 43, 62
1, 532631, Control_c, 0, 64, 63
1, 532646, Control_c, 0, 64, 0
1, 532653, Note_on_c, 0, 74, 74
1, 532668, Poly_aftertouch_c, 0, 38, 0
1, 532674, Note_on_c, 0, 72, 49
1, 532703, Note_off_c, 0, 72, 45
1, 532703, Note_off_c, 0, 74, 62
1, 532705, Note_on_c, 0, 75, 84
1, 532724, Note_off_c, 0, 75, 71
1, 532733, Note_on_c, 0, 47, 102
1, 532739, Note_on_c, 0, 43, 88
1, 532754, Note_on_c, 0, 38, 63
1, 532763, Control_c, 0, 64, 86
1, 532766, Note_on_c, 0, 76, 87
1, 532773, Note_on_c, 0, 45, 34
1, 532773, Note_off_c, 0, 45, 127
1, 532778, Control_c, 0, 64, 127
1, 532780, Note_off_c, 0, 38, 61
1, 532790, Note_off_c, 0, 47, 64
1, 532793, Note_off_c, 0, 43, 62
1, 532814, Note_on_c, 0, 77, 83
1, 532841, Note_off_c, 0, 76, 62
1, 532866, Note_on_c, 0, 78, 83
1, 532886, Note_off_c, 0, 77, 63
1, 532913, Note_off_c, 0, 78, 62
1, 532938, Note_on_c, 0, 79, 83
1, 532972, Note_on_c, 0, 71, 81
1, 532975, Note_on_c, 0, 62, 81
1, 532979, Note_on_c, 0, 67, 65
1, 532981, Note_on_c, 0, 80, 81
1, 532990, Note_off_c, 0, 71, 72
1, 532995, Note_off_c, 0, 79, 59
1, 532997, Note_off_c, 0, 67, 68
1, 533001, Note_off_c, 0, 62, 59
1, 533014, Note_on_c, 0, 81, 84
1, 533037, Note_off_c, 0, 80, 63
1, 533043, Note_on_c, 0, 62, 72
1, 533043, Note_on_c, 0, 71, 94
1, 533049, Note_on_c, 0, 82, 80
1, 533050, Note_on_c, 0, 67, 87
1, 533065, Note_off_c, 0, 81, 63
1, 533091, Note_off_c, 0, 82, 66
1, 533094, Note_off_c, 0, 71, 60
1, 533106, Note_off_c, 0, 62, 47
1, 533121, Note_on_c, 0, 83, 85
1, 533159, Note_off_c, 0, 67, 42
1, 533172, Note_on_c, 0, 84, 86
1, 533185, Note_off_c, 0, 83, 63
1, 533199, Control_c, 0, 64, 113
1, 533211, Note_on_c, 0, 85, 84
1, 533214, Control_c, 0, 64, 66
1, 533216, Note_off_c, 0, 84, 65
1, 533229, Control_c, 0, 64, 0
1, 533240, Note_off_c, 0, 85, 66
1, 533257, Note_on_c, 0, 71, 107
1, 533261, Note_on_c, 0, 62, 78
1, 533261, Note_on_c, 0, 67, 92
1, 533273, Note_on_c, 0, 86, 88
1, 533273, Control_c, 0, 64, 54
1, 533288, Control_c, 0, 64, 77
1, 533303, Control_c, 0, 64, 127
1, 533323, Note_on_c, 0, 87, 86
1, 533324, Note_off_c, 0, 71, 61
1, 533324, Note_off_c, 0, 62, 62
1, 533324, Note_off_c, 0, 86, 64
1, 533339, Note_off_c, 0, 67, 61
1, 533357, Note_off_c, 0, 87, 67
1, 533392, Note_on_c, 0, 88, 91
1, 533443, Note_on_c, 0, 89, 88
1, 533452, Note_off_c, 0, 88, 65
1, 533478, Note_on_c, 0, 90, 86
1, 533498, Note_off_c, 0, 89, 63
1, 533518, Note_off_c, 0, 90, 64
1, 533538, Note_on_c, 0, 91, 88
1, 533600, Note_on_c, 0, 92, 87
1, 533610, Note_off_c, 0, 91, 62
1, 533613, Note_on_c, 0, 93, 85
1, 533649, Note_on_c, 0, 94, 67
1, 533661, Note_on_c, 0, 95, 69
1, 533666, Note_off_c, 0, 93, 67
1, 533675, Note_off_c, 0, 94, 69
1, 533677, Note_off_c, 0, 92, 63
1, 533684, Note_off_c, 0, 95, 66
1, 533718, Note_on_c, 0, 96, 102
1, 533720, Note_on_c, 0, 93, 103
1, 533741, Control_c, 0, 64, 66
1, 533756, Control_c, 0, 64, 0
1, 533779, Note_on_c, 0, 95, 70
1, 533786, Control_c, 0, 64, 59
1, 533789, Note_off_c, 0, 93, 67
1, 533793, Note_on_c, 0, 92, 87
1, 533800, Control_c, 0, 64, 85
1, 533815, Control_c, 0, 64, 127
1, 533819, Note_on_c, 0, 94, 74
1, 533825, Note_off_c, 0, 96, 62
1, 533840, Note_off_c, 0, 95, 64
1, 533848, Note_off_c, 0, 94, 66
1, 533862, Note_off_c, 0, 92, 66
1, 533892, Note_on_c, 0, 93, 74
1, 533938, Note_on_c, 0, 92, 85
1, 533944, Note_on_c, 0, 90, 80
1, 533945, Note_off_c, 0, 93, 66
1, 533946, Note_on_c, 0, 57, 80
1, 533950, Note_on_c, 0, 54, 68
1, 533952, Note_on_c, 0, 60, 70
1, 533962, Note_on_c, 0, 50, 53
1, 533968, Note_off_c, 0, 57, 70
1, 533970, Note_off_c, 0, 60, 69
1, 533971, Note_off_c, 0, 92, 64
1, 533973, Note_off_c, 0, 90, 62
1, 533978, Note_off_c, 0, 54, 66
1, 533986, Note_off_c, 0, 50, 59
1, 534006, Note_on_c, 0, 91, 89
1, 534012, Note_on_c, 0, 88, 88
1, 534017, Note_on_c, 0, 60, 98
1, 534018, Note_on_c, 0, 57, 100
1, 534026, Note_on_c, 0, 54, 86
1, 534034, Note_on_c, 0, 50, 64
1, 534060, Note_on_c, 0, 90, 76
1, 534060, Note_off_c, 0, 50, 65
1, 534069, Note_off_c, 0, 60, 61
1, 534072, Note_on_c, 0, 87, 87
1, 534072, Note_off_c, 0, 88, 65
1, 534077, Note_off_c, 0, 91, 64
1, 534102, Note_off_c, 0, 54, 51
1, 534102, Note_off_c, 0, 57, 48
1, 534113, Note_off_c, 0, 90, 60
1, 534138, Note_on_c, 0, 86, 79
1, 534142, Note_off_c, 0, 87, 62
1, 534151, Note_on_c, 0, 89, 71
1, 534191, Note_on_c, 0, 88, 74
1, 534201, Note_off_c, 0, 86, 61
1, 534207, Note_on_c, 0, 85, 87
1, 534217, Note_on_c, 0, 57, 89
1, 534217, Note_on_c, 0, 60, 100
1, 534221, Note_on_c, 0, 54, 77
1, 534233, Note_on_c, 0, 50, 63
1, 534241, Note_off_c, 0, 89, 64
1, 534242, Note_on_c, 0, 87, 78
1, 534244, Note_off_c, 0, 60, 62
1, 534246, Note_off_c, 0, 88, 63
1, 534253, Note_off_c, 0, 57, 63
1, 534263, Note_off_c, 0, 50, 67
1, 534265, Note_off_c, 0, 54, 66
1, 534266, Note_on_c, 0, 52, 17
1, 534270, Note_off_c, 0, 85, 58
1, 534271, Note_off_c, 0, 87, 66
1, 534304, Note_off_c, 0, 52, 50
1, 534307, Note_on_c, 0, 83, 77
1, 534310, Note_on_c, 0, 86, 69
1, 534380, Note_on_c, 0, 85, 76
1, 534382, Note_off_c, 0, 83, 65
1, 534391, Note_off_c, 0, 86, 59
1, 534404, Note_on_c, 0, 82, 36
1, 534411, Note_off_c, 0, 85, 63
1, 534436, Note_off_c, 0, 82, 33
1, 534444, Note_on_c, 0, 81, 53
1, 534451, Note_on_c, 0, 48, 91
1, 534453, Note_on_c, 0, 84, 80
1, 534453, Note_on_c, 0, 45, 86
1, 534471, Note_on_c, 0, 38, 62
1, 534474, Note_off_c, 0, 48, 72
1, 534480, Note_off_c, 0, 45, 70
1, 534496, Note_on_c, 0, 40, 10
1, 534496, Note_off_c, 0, 40, 127
1, 534496, Note_off_c, 0, 38, 61
1, 534505, Note_on_c, 0, 83, 76
1, 534506, Note_off_c, 0, 81, 63
1, 534518, Note_on_c, 0, 80, 84
1, 534525, Note_on_c, 0, 48, 85
1, 534528, Note_on_c, 0, 45, 80
1, 534545, Note_on_c, 0, 38, 44
1, 534545, Note_off_c, 0, 84, 62
1, 534549, Note_on_c, 0, 42, 56
1, 534549, Note_on_c, 0, 82, 72
1, 534549, Poly_aftertouch_c, 0, 40, 0
1, 534565, Note_off_c, 0, 83, 62
1, 534579, Note_off_c, 0, 80, 64
1, 534580, Note_off_c, 0, 38, 55
1, 534582, Note_off_c, 0, 48, 61
1, 534587, Note_off_c, 0, 82, 64
1, 534610, Note_off_c, 0, 45, 59
1, 534621, Note_off_c, 0, 42, 60
1, 534632, Note_on_c, 0, 81, 85
1, 534680, Note_on_c, 0, 80, 84
1, 534692, Note_on_c, 0, 78, 72
1, 534695, Note_off_c, 0, 81, 62
1, 534698, Control_c, 0, 64, 87
1, 534709, Note_off_c, 0, 80, 64
1, 534713, Control_c, 0, 64, 53
1, 534717, Note_on_c, 0, 48, 98
1, 534719, Note_on_c, 0, 42, 88
1, 534722, Note_on_c, 0, 45, 82
1, 534725, Note_on_c, 0, 38, 67
1, 534728, Control_c, 0, 64, 0
1, 534742, Control_c, 0, 64, 39
1, 534745, Note_off_c, 0, 38, 64
1, 534749, Note_on_c, 0, 79, 77
1, 534757, Note_off_c, 0, 45, 65
1, 534757, Control_c, 0, 64, 68
1, 534758, Note_on_c, 0, 76, 79
1, 534759, Note_off_c, 0, 42, 62
1, 534760, Note_off_c, 0, 78, 56
1, 534766, Note_off_c, 0, 48, 66
1, 534772, Control_c, 0, 64, 109
1, 534787, Control_c, 0, 64, 127
1, 534812, Note_on_c, 0, 78, 66
1, 534817, Note_off_c, 0, 76, 65
1, 534820, Note_on_c, 0, 75, 75
1, 534824, Note_off_c, 0, 79, 64
1, 534867, Note_off_c, 0, 78, 63
1, 534885, Note_off_c, 0, 75, 61
1, 534903, Note_on_c, 0, 74, 70
1, 534903, Note_on_c, 0, 77, 71
1, 534939, Note_on_c, 0, 72, 93
1, 534946, Note_on_c, 0, 69, 70
1, 534947, Note_on_c, 0, 76, 78
1, 534948, Note_off_c, 0, 74, 60
1, 534952, Note_on_c, 0, 62, 66
1, 534955, Note_off_c, 0, 72, 74
1, 534963, Note_on_c, 0, 66, 42
1, 534963, Note_on_c, 0, 73, 76
1, 534968, Note_off_c, 0, 69, 70
1, 534999, Note_on_c, 0, 72, 90
1, 535000, Note_off_c, 0, 77, 62
1, 535003, Note_off_c, 0, 66, 0
1, 535006, Note_off_c, 0, 62, 36
1, 535007, Note_on_c, 0, 75, 75
1, 535008, Note_on_c, 0, 69, 68
1, 535008, Note_off_c, 0, 76, 64
1, 535014, Note_on_c, 0, 66, 51
1, 535020, Note_off_c, 0, 72, 70
1, 535020, Note_off_c, 0, 73, 61
1, 535026, Note_off_c, 0, 69, 71
1, 535032, Note_off_c, 0, 75, 67
1, 535055, Note_off_c, 0, 66, 59
1, 535086, Note_on_c, 0, 74, 86
1, 535093, Note_on_c, 0, 71, 76
1, 535142, Note_on_c, 0, 73, 79
1, 535147, Note_off_c, 0, 71, 66
1, 535152, Note_off_c, 0, 74, 61
1, 535157, Note_on_c, 0, 70, 74
1, 535174, Note_off_c, 0, 70, 66
1, 535224, Note_off_c, 0, 73, 61
1, 535230, Note_on_c, 0, 74, 74
1, 535231, Note_on_c, 0, 71, 33
1, 535277, Note_off_c, 0, 71, 56
1, 535279, Note_on_c, 0, 72, 76
1, 535307, Note_on_c, 0, 69, 49
1, 535312, Note_off_c, 0, 74, 61
1, 535338, Note_off_c, 0, 72, 62
1, 535342, Note_off_c, 0, 69, 66
1, 535413, Note_on_c, 0, 71, 73
1, 535462, Note_on_c, 0, 68, 70
1, 535466, Note_on_c, 0, 66, 73
1, 535475, Note_off_c, 0, 71, 62
1, 535486, Note_off_c, 0, 68, 53
1, 535492, Note_off_c, 0, 66, 63
1, 535552, Note_on_c, 0, 69, 55
1, 535564, Note_on_c, 0, 65, 40
1, 535607, Note_off_c, 0, 65, 52
1, 535611, Note_on_c, 0, 66, 62
1, 535613, Note_off_c, 0, 69, 63
1, 535625, Note_on_c, 0, 64, 39
1, 535641, Note_off_c, 0, 66, 62
1, 535652, Note_off_c, 0, 64, 55
1, 535681, Note_on_c, 0, 67, 58
1, 535687, Note_on_c, 0, 62, 70
1, 535741, Note_on_c, 0, 65, 63
1, 535741, Note_off_c, 0, 62, 57
1, 535758, Note_on_c, 0, 63, 62
1, 535771, Note_off_c, 0, 67, 62
1, 535777, Note_off_c, 0, 65, 65
1, 535781, Note_off_c, 0, 63, 55
1, 535789, Control_c, 0, 64, 91
1, 535802, Note_on_c, 0, 60, 92
1, 535803, Control_c, 0, 64, 57
1, 535813, Note_on_c, 0, 63, 67
1, 535818, Control_c, 0, 64, 0
1, 535851, Note_on_c, 0, 64, 48
1, 535869, Control_c, 0, 64, 65
1, 535883, Note_on_c, 0, 61, 76
1, 535884, Control_c, 0, 64, 92
1, 535899, Control_c, 0, 64, 127
1, 535905, Note_off_c, 0, 60, 59
1, 535908, Poly_aftertouch_c, 0, 65, 127
1, 535913, Note_off_c, 0, 64, 0
1, 535927, Note_on_c, 0, 64, 33
1, 535932, Poly_aftertouch_c, 0, 65, 0
1, 535941, Note_off_c, 0, 63, 57
1, 535953, Note_off_c, 0, 61, 60
1, 535975, Note_on_c, 0, 65, 60
1, 535988, Note_on_c, 0, 62, 71
1, 535992, Note_off_c, 0, 64, 41
1, 536013, Note_on_c, 0, 60, 87
1, 536018, Note_off_c, 0, 65, 61
1, 536024, Note_on_c, 0, 51, 65
1, 536024, Note_on_c, 0, 56, 67
1, 536034, Note_off_c, 0, 60, 72
1, 536036, Note_on_c, 0, 63, 69
1, 536040, Note_on_c, 0, 66, 63
1, 536046, Note_off_c, 0, 62, 61
1, 536051, Note_off_c, 0, 56, 64
1, 536057, Note_off_c, 0, 51, 63
1, 536079, Note_off_c, 0, 63, 63
1, 536088, Note_on_c, 0, 60, 97
1, 536090, Note_on_c, 0, 67, 78
1, 536094, Note_on_c, 0, 56, 85
1, 536095, Note_on_c, 0, 51, 62
1, 536107, Note_off_c, 0, 66, 63
1, 536126, Note_off_c, 0, 60, 64
1, 536136, Control_c, 0, 64, 84
1, 536138, Note_off_c, 0, 51, 59
1, 536151, Control_c, 0, 64, 55
1, 536152, Note_off_c, 0, 67, 64
1, 536153, Note_off_c, 0, 56, 54
1, 536154, Note_on_c, 0, 68, 80
1, 536161, Note_on_c, 0, 65, 69
1, 536166, Control_c, 0, 64, 0
1, 536203, Note_off_c, 0, 65, 59
1, 536209, Note_on_c, 0, 66, 77
1, 536233, Note_on_c, 0, 69, 70
1, 536236, Note_off_c, 0, 68, 66
1, 536251, Note_off_c, 0, 66, 59
1, 536293, Note_off_c, 0, 69, 58
1, 536298, Note_on_c, 0, 60, 108
1, 536301, Note_on_c, 0, 70, 82
1, 536302, Note_on_c, 0, 56, 93
1, 536304, Note_on_c, 0, 67, 76
1, 536310, Note_on_c, 0, 51, 71
1, 536313, Note_off_c, 0, 60, 75
1, 536314, Control_c, 0, 64, 71
1, 536328, Control_c, 0, 64, 127
1, 536333, Note_on_c, 0, 54, 42
1, 536339, Note_off_c, 0, 51, 67
1, 536349, Note_off_c, 0, 56, 59
1, 536355, Note_on_c, 0, 68, 75
1, 536361, Note_off_c, 0, 67, 63
1, 536367, Note_off_c, 0, 54, 52
1, 536370, Note_on_c, 0, 71, 72
1, 536400, Note_off_c, 0, 70, 61
1, 536417, Note_off_c, 0, 68, 64
1, 536439, Note_on_c, 0, 72, 70
1, 536451, Note_off_c, 0, 71, 62
1, 536458, Note_on_c, 0, 69, 67
1, 536484, Note_off_c, 0, 72, 58
1, 536504, Note_on_c, 0, 73, 70
1, 536507, Note_on_c, 0, 70, 74
1, 536512, Note_off_c, 0, 69, 63
1, 536527, Note_on_c, 0, 48, 81
1, 536531, Note_on_c, 0, 44, 76
1, 536531, Note_off_c, 0, 44, 127
1, 536536, Note_on_c, 0, 42, 68
1, 536536, Note_off_c, 0, 42, 127
1, 536542, Note_on_c, 0, 39, 64
1, 536548, Note_off_c, 0, 48, 77
1, 536555, Note_off_c, 0, 70, 62
1, 536561, Note_on_c, 0, 74, 77
1, 536567, Note_off_c, 0, 39, 61
1, 536570, Note_off_c, 0, 73, 62
1, 536606, Note_on_c, 0, 48, 98
1, 536611, Note_on_c, 0, 44, 92
1, 536623, Note_on_c, 0, 39, 62
1, 536626, Note_on_c, 0, 75, 84
1, 536629, Note_off_c, 0, 74, 64
1, 536630, Note_on_c, 0, 72, 71
1, 536644, Note_on_c, 0, 42, 31
1, 536644, Note_off_c, 0, 42, 127
1, 536652, Note_off_c, 0, 48, 59
1, 536659, Note_off_c, 0, 39, 61
1, 536669, Poly_aftertouch_c, 0, 42, 0
1, 536679, Note_on_c, 0, 73, 81
1, 536681, Note_off_c, 0, 72, 57
1, 536689, Note_off_c, 0, 44, 57
1, 536701, Note_on_c, 0, 76, 80
1, 536734, Note_off_c, 0, 75, 63
1, 536736, Note_off_c, 0, 73, 64
1, 536755, Note_on_c, 0, 77, 77
1, 536766, Control_c, 0, 64, 71
1, 536778, Note_off_c, 0, 76, 63
1, 536781, Note_on_c, 0, 74, 58
1, 536781, Control_c, 0, 64, 0
1, 536819, Note_on_c, 0, 48, 113
1, 536823, Note_off_c, 0, 77, 64
1, 536823, Note_on_c, 0, 44, 94
1, 536829, Note_on_c, 0, 78, 72
1, 536831, Note_on_c, 0, 75, 77
1, 536833, Note_on_c, 0, 39, 69
1, 536841, Control_c, 0, 64, 48
1, 536850, Note_off_c, 0, 74, 62
1, 536856, Control_c, 0, 64, 86
1, 536860, Note_off_c, 0, 39, 58
1, 536862, Note_off_c, 0, 48, 69
1, 536866, Note_off_c, 0, 44, 61
1, 536871, Control_c, 0, 64, 127
1, 536886, Note_on_c, 0, 79, 80
1, 536886, Note_off_c, 0, 75, 63
1, 536908, Note_off_c, 0, 78, 65
1, 536937, Poly_aftertouch_c, 0, 42, 0
1, 536954, Note_off_c, 0, 79, 64
1, 536956, Note_on_c, 0, 80, 81
1, 536978, Note_on_c, 0, 77, 56
1, 537007, Note_off_c, 0, 77, 60
1, 537011, Note_on_c, 0, 78, 75
1, 537026, Note_on_c, 0, 81, 81
1, 537038, Note_off_c, 0, 78, 61
1, 537040, Note_off_c, 0, 80, 62
1, 537056, Note_on_c, 0, 72, 94
1, 537060, Note_on_c, 0, 68, 83
1, 537068, Note_on_c, 0, 63, 69
1, 537074, Note_off_c, 0, 72, 70
1, 537077, Note_off_c, 0, 68, 70
1, 537086, Note_on_c, 0, 66, 36
1, 537086, Note_off_c, 0, 66, 127
1, 537094, Note_off_c, 0, 63, 68
1, 537096, Note_off_c, 0, 81, 62
1, 537097, Note_on_c, 0, 82, 83
1, 537103, Note_on_c, 0, 79, 73
1, 537124, Note_on_c, 0, 72, 92
1, 537130, Note_on_c, 0, 68, 91
1, 537136, Note_on_c, 0, 63, 65
1, 537142, Note_on_c, 0, 80, 78
1, 537154, Note_off_c, 0, 79, 65
1, 537157, Note_on_c, 0, 83, 80
1, 537162, Note_off_c, 0, 72, 61
1, 537171, Note_off_c, 0, 82, 47
1, 537172, Note_off_c, 0, 63, 63
1, 537201, Note_off_c, 0, 80, 64
1, 537207, Note_off_c, 0, 68, 59
1, 537220, Note_on_c, 0, 84, 82
1, 537229, Note_on_c, 0, 81, 75
1, 537235, Note_off_c, 0, 83, 66
1, 537276, Note_off_c, 0, 84, 65
1, 537287, Note_on_c, 0, 82, 81
1, 537287, Note_on_c, 0, 85, 79
1, 537307, Note_off_c, 0, 81, 63
1, 537315, Control_c, 0, 64, 105
1, 537338, Control_c, 0, 64, 65
1, 537350, Note_on_c, 0, 86, 78
1, 537351, Note_off_c, 0, 82, 63
1, 537353, Control_c, 0, 64, 0
1, 537375, Note_off_c, 0, 85, 65
1, 537382, Control_c, 0, 64, 50
1, 537397, Control_c, 0, 64, 72
1, 537402, Note_on_c, 0, 72, 107
1, 537408, Note_on_c, 0, 68, 91
1, 537412, Control_c, 0, 64, 127
1, 537416, Note_on_c, 0, 63, 63
1, 537416, Note_on_c, 0, 87, 90
1, 537418, Note_on_c, 0, 84, 78
1, 537422, Note_off_c, 0, 86, 65
1, 537437, Note_off_c, 0, 72, 69
1, 537446, Note_off_c, 0, 63, 63
1, 537456, Note_off_c, 0, 68, 65
1, 537467, Note_off_c, 0, 84, 60
1, 537473, Note_on_c, 0, 85, 84
1, 537491, Note_on_c, 0, 88, 77
1, 537518, Note_off_c, 0, 85, 66
1, 537520, Note_off_c, 0, 87, 64
1, 537540, Note_on_c, 0, 89, 78
1, 537557, Note_on_c, 0, 86, 73
1, 537589, Note_off_c, 0, 89, 63
1, 537605, Note_on_c, 0, 87, 76
1, 537605, Note_on_c, 0, 90, 72
1, 537608, Note_off_c, 0, 88, 30
1, 537617, Note_off_c, 0, 86, 61
1, 537652, Note_on_c, 0, 91, 82
1, 537656, Note_off_c, 0, 87, 64
1, 537673, Note_off_c, 0, 90, 65
1, 537718, Note_on_c, 0, 89, 77
1, 537723, Note_off_c, 0, 91, 65
1, 537729, Note_on_c, 0, 92, 77
1, 537753, Note_off_c, 0, 89, 62
1, 537760, Note_on_c, 0, 90, 75
1, 537789, Note_on_c, 0, 93, 77
1, 537800, Note_off_c, 0, 90, 61
1, 537803, Note_off_c, 0, 92, 65
1, 537841, Note_on_c, 0, 91, 74
1, 537856, Note_on_c, 0, 95, 37
1, 537866, Note_off_c, 0, 93, 63
1, 537869, Note_on_c, 0, 94, 81
1, 537881, Note_off_c, 0, 91, 66
1, 537881, Note_off_c, 0, 95, 54
1, 537886, Note_on_c, 0, 92, 68
1, 537915, Control_c, 0, 64, 83
1, 537916, Note_off_c, 0, 92, 65
1, 537930, Control_c, 0, 64, 57
1, 537943, Note_off_c, 0, 94, 66
1, 537944, Note_on_c, 0, 96, 72
1, 537944, Control_c, 0, 64, 0
1, 537959, Control_c, 0, 64, 50
1, 537968, Note_on_c, 0, 93, 69
1, 537974, Control_c, 0, 64, 68
1, 537989, Control_c, 0, 64, 93
1, 537999, Note_on_c, 0, 97, 86
1, 538004, Control_c, 0, 64, 127
1, 538007, Note_off_c, 0, 96, 65
1, 538009, Note_on_c, 0, 94, 76
1, 538010, Note_off_c, 0, 93, 66
1, 538043, Note_off_c, 0, 97, 66
1, 538083, Note_on_c, 0, 96, 76
1, 538086, Note_off_c, 0, 94, 65
1, 538094, Note_on_c, 0, 93, 64
1, 538130, Note_off_c, 0, 93, 53
1, 538142, Note_on_c, 0, 95, 75
1, 538153, Note_on_c, 0, 92, 83
1, 538173, Note_on_c, 0, 61, 89
1, 538179, Note_off_c, 0, 96, 64
1, 538182, Note_on_c, 0, 94, 74
1, 538183, Note_on_c, 0, 58, 69
1, 538187, Note_on_c, 0, 55, 64
1, 538191, Note_off_c, 0, 61, 71
1, 538195, Note_off_c, 0, 95, 64
1, 538203, Note_off_c, 0, 94, 70
1, 538205, Note_on_c, 0, 51, 31
1, 538205, Note_off_c, 0, 92, 66
1, 538209, Note_off_c, 0, 58, 68
1, 538215, Note_off_c, 0, 55, 65
1, 538242, Note_on_c, 0, 93, 86
1, 538246, Note_on_c, 0, 61, 93
1, 538254, Note_on_c, 0, 89, 56
1, 538254, Note_on_c, 0, 58, 78
1, 538257, Note_off_c, 0, 51, 0
1, 538257, Note_on_c, 0, 51, 9
1, 538263, Note_on_c, 0, 55, 71
1, 538280, Note_off_c, 0, 89, 54
1, 538282, Note_on_c, 0, 95, 46
1, 538282, Note_off_c, 0, 61, 46
1, 538296, Note_off_c, 0, 51, 52
1, 538299, Note_on_c, 0, 92, 82
1, 538307, Note_on_c, 0, 90, 74
1, 538309, Note_off_c, 0, 55, 55
1, 538310, Note_off_c, 0, 95, 55
1, 538315, Note_off_c, 0, 58, 58
1, 538317, Note_off_c, 0, 93, 65
1, 538348, Note_off_c, 0, 92, 65
1, 538352, Note_off_c, 0, 90, 58
1, 538378, Note_on_c, 0, 91, 85
1, 538384, Note_on_c, 0, 88, 76
1, 538434, Note_off_c, 0, 88, 67
1, 538437, Note_on_c, 0, 87, 80
1, 538438, Note_on_c, 0, 90, 77
1, 538443, Note_off_c, 0, 91, 64
1, 538457, Note_off_c, 0, 90, 71
1, 538467, Note_on_c, 0, 58, 81
1, 538467, Note_on_c, 0, 61, 85
1, 538471, Note_on_c, 0, 55, 74
1, 538485, Note_off_c, 0, 61, 72
1, 538486, Note_on_c, 0, 51, 63
1, 538492, Note_off_c, 0, 58, 68
1, 538495, Note_off_c, 0, 55, 66
1, 538504, Note_on_c, 0, 86, 85
1, 538507, Note_on_c, 0, 89, 84
1, 538515, Note_off_c, 0, 51, 64
1, 538517, Note_off_c, 0, 87, 60
1, 538564, Note_on_c, 0, 88, 75
1, 538569, Note_off_c, 0, 86, 64
1, 538579, Note_on_c, 0, 85, 80
1, 538625, Note_on_c, 0, 87, 77
1, 538641, Note_off_c, 0, 89, 54
1, 538645, Note_off_c, 0, 88, 63
1, 538655, Note_on_c, 0, 84, 77
1, 538656, Note_off_c, 0, 85, 65
1, 538661, Note_on_c, 0, 49, 92
1, 538667, Note_on_c, 0, 46, 80
1, 538672, Note_off_c, 0, 87, 63
1, 538676, Note_off_c, 0, 84, 71
1, 538681, Note_off_c, 0, 49, 72
1, 538683, Note_on_c, 0, 39, 56
1, 538690, Note_on_c, 0, 44, 35
1, 538690, Note_off_c, 0, 44, 127
1, 538690, Note_off_c, 0, 46, 66
1, 538720, Note_on_c, 0, 86, 84
1, 538722, Note_off_c, 0, 39, 0
1, 538733, Note_on_c, 0, 49, 99
1, 538736, Note_on_c, 0, 46, 95
1, 538740, Poly_aftertouch_c, 0, 44, 0
1, 538743, Note_on_c, 0, 39, 46
1, 538744, Note_on_c, 0, 82, 80
1, 538761, Note_on_c, 0, 85, 68
1, 538767, Poly_aftertouch_c, 0, 42, 0
1, 538781, Note_off_c, 0, 39, 48
1, 538786, Note_off_c, 0, 49, 63
1, 538791, Note_off_c, 0, 46, 61
1, 538807, Note_on_c, 0, 81, 83
1, 538811, Note_off_c, 0, 86, 64
1, 538815, Note_on_c, 0, 84, 75
1, 538830, Note_off_c, 0, 82, 62
1, 538843, Note_off_c, 0, 85, 64
1, 538849, Note_off_c, 0, 84, 66
1, 538863, Note_off_c, 0, 81, 65
1, 538864, Control_c, 0, 64, 70
1, 538879, Control_c, 0, 64, 0
1, 538900, Note_on_c, 0, 85, 89
1, 538907, Note_on_c, 0, 82, 89
1, 538925, Control_c, 0, 64, 33
1, 538940, Control_c, 0, 64, 67
1, 538954, Control_c, 0, 64, 127
1, 538974, Note_on_c, 0, 84, 65
1, 538991, Note_on_c, 0, 81, 82
1, 538993, Note_on_c, 0, 86, 2
1, 538999, Note_off_c, 0, 82, 61
1, 539002, Note_off_c, 0, 84, 66
1, 539003, Note_off_c, 0, 85, 65
1, 539033, Note_off_c, 0, 81, 61
1, 539038, Note_off_c, 0, 86, 32
1, 539068, Note_on_c, 0, 83, 80
1, 539077, Note_on_c, 0, 80, 76
1, 539110, Note_on_c, 0, 61, 90
1, 539118, Note_on_c, 0, 82, 64
1, 539121, Note_on_c, 0, 55, 68
1, 539128, Note_off_c, 0, 83, 64
1, 539129, Note_off_c, 0, 61, 72
1, 539131, Note_on_c, 0, 58, 56
1, 539139, Note_off_c, 0, 80, 64
1, 539140, Note_off_c, 0, 82, 66
1, 539142, Note_on_c, 0, 79, 69
1, 539149, Note_off_c, 0, 55, 67
1, 539154, Note_off_c, 0, 58, 62
1, 539160, Note_off_c, 0, 79, 67
1, 539179, Poly_aftertouch_c, 0, 84, 0
1, 539185, Poly_aftertouch_c, 0, 52, 127
1, 539187, Poly_aftertouch_c, 0, 53, 127
1, 539189, Note_on_c, 0, 61, 99
1, 539191, Note_on_c, 0, 81, 91
1, 539197, Note_on_c, 0, 58, 76
1, 539198, Note_on_c, 0, 55, 64
1, 539226, Note_on_c, 0, 77, 31
1, 539226, Note_off_c, 0, 61, 55
1, 539228, Poly_aftertouch_c, 0, 53, 0
1, 539232, Note_on_c, 0, 83, 43
1, 539240, Poly_aftertouch_c, 0, 52, 0
1, 539251, Note_on_c, 0, 78, 39
1, 539253, Note_off_c, 0, 58, 62
1, 539255, Note_on_c, 0, 79, 58
1, 539256, Note_off_c, 0, 81, 64
1, 539256, Note_off_c, 0, 83, 59
1, 539270, Note_off_c, 0, 55, 56
1, 539276, Note_off_c, 0, 79, 63
1, 539280, Note_off_c, 0, 78, 37
1, 539297, Note_off_c, 0, 77, 40
1, 539315, Note_on_c, 0, 76, 74
1, 539318, Note_on_c, 0, 79, 73
1, 539369, Note_on_c, 0, 75, 79
1, 539373, Note_off_c, 0, 76, 65
1, 539384, Note_on_c, 0, 78, 62
1, 539387, Note_off_c, 0, 79, 64
1, 539391, Note_on_c, 0, 52, 68
1, 539392, Note_on_c, 0, 61, 93
1, 539396, Note_on_c, 0, 55, 75
1, 539396, Note_on_c, 0, 58, 80
1, 539405, Note_off_c, 0, 78, 62
1, 539408, Note_off_c, 0, 61, 73
1, 539417, Note_off_c, 0, 55, 70
1, 539419, Note_off_c, 0, 58, 69
1, 539423, Note_off_c, 0, 52, 66
1, 539437, Note_off_c, 0, 75, 44
1, 539451, Note_on_c, 0, 74, 82
1, 539451, Note_on_c, 0, 77, 80
1, 539498, Note_off_c, 0, 74, 62
1, 539511, Note_on_c, 0, 76, 67
1, 539515, Note_on_c, 0, 73, 79
1, 539566, Note_on_c, 0, 75, 66
1, 539581, Note_off_c, 0, 77, 55
1, 539588, Note_off_c, 0, 76, 62
1, 539596, Note_on_c, 0, 49, 95
1, 539599, Note_on_c, 0, 72, 74
1, 539601, Note_off_c, 0, 75, 64
1, 539602, Note_off_c, 0, 73, 63
1, 539613, Note_on_c, 0, 40, 63
1, 539614, Note_off_c, 0, 49, 73
1, 539616, Note_on_c, 0, 46, 62
1, 539620, Note_off_c, 0, 72, 70
1, 539644, Note_off_c, 0, 46, 64
1, 539661, Note_on_c, 0, 74, 83
1, 539667, Note_on_c, 0, 49, 98
1, 539673, Note_on_c, 0, 46, 72
1, 539678, Note_off_c, 0, 40, 64
1, 539685, Note_on_c, 0, 70, 79
1, 539695, Note_off_c, 0, 49, 58
1, 539715, Note_on_c, 0, 73, 65
1, 539718, Note_off_c, 0, 46, 61
1, 539746, Note_off_c, 0, 74, 62
1, 539747, Note_on_c, 0, 72, 76
1, 539752, Note_on_c, 0, 69, 77
1, 539765, Note_off_c, 0, 70, 62
1, 539777, Note_off_c, 0, 73, 61
1, 539777, Control_c, 0, 64, 84
1, 539789, Note_off_c, 0, 72, 62
1, 539792, Control_c, 0, 64, 49
1, 539801, Note_off_c, 0, 69, 63
1, 539807, Control_c, 0, 64, 0
1, 539834, Note_on_c, 0, 73, 87
1, 539839, Note_on_c, 0, 70, 82
1, 539867, Control_c, 0, 64, 65
1, 539876, Note_on_c, 0, 74, 42
1, 539882, Control_c, 0, 64, 113
1, 539896, Control_c, 0, 64, 127
1, 539903, Note_off_c, 0, 74, 53
1, 539914, Note_on_c, 0, 72, 56
1, 539925, Note_on_c, 0, 69, 74
1, 539935, Note_off_c, 0, 70, 60
1, 539940, Note_off_c, 0, 73, 60
1, 539944, Note_off_c, 0, 72, 65
1, 539969, Note_off_c, 0, 69, 62
1, 540005, Poly_aftertouch_c, 0, 61, 0
1, 540009, Note_on_c, 0, 71, 72
1, 540016, Note_on_c, 0, 68, 75
1, 540027, Note_on_c, 0, 61, 81
1, 540040, Note_on_c, 0, 53, 62
1, 540040, Note_on_c, 0, 58, 67
1, 540051, Note_off_c, 0, 61, 68
1, 540055, Note_on_c, 0, 70, 73
1, 540069, Note_off_c, 0, 71, 63
1, 540069, Note_off_c, 0, 58, 67
1, 540076, Note_off_c, 0, 53, 63
1, 540079, Note_off_c, 0, 68, 63
1, 540082, Note_off_c, 0, 70, 61
1, 540090, Note_on_c, 0, 67, 58
1, 540105, Note_on_c, 0, 61, 100
1, 540111, Note_off_c, 0, 67, 63
1, 540115, Note_on_c, 0, 53, 50
1, 540119, Note_on_c, 0, 58, 82
1, 540137, Note_on_c, 0, 54, 57
1, 540140, Note_on_c, 0, 69, 81
1, 540145, Note_off_c, 0, 53, 65
1, 540150, Note_off_c, 0, 61, 61
1, 540166, Note_on_c, 0, 65, 31
1, 540168, Note_off_c, 0, 54, 63
1, 540177, Note_on_c, 0, 66, 71
1, 540193, Note_on_c, 0, 68, 69
1, 540195, Note_off_c, 0, 58, 57
1, 540204, Note_off_c, 0, 69, 61
1, 540207, Note_off_c, 0, 65, 44
1, 540224, Note_off_c, 0, 68, 67
1, 540254, Poly_aftertouch_c, 0, 71, 0
1, 540265, Note_off_c, 0, 66, 40
1, 540269, Note_on_c, 0, 67, 77
1, 540276, Note_on_c, 0, 64, 68
1, 540314, Note_on_c, 0, 61, 97
1, 540317, Note_on_c, 0, 66, 66
1, 540329, Note_on_c, 0, 58, 76
1, 540332, Note_on_c, 0, 53, 68
1, 540338, Note_on_c, 0, 63, 72
1, 540340, Note_off_c, 0, 64, 62
1, 540341, Note_off_c, 0, 61, 68
1, 540344, Note_off_c, 0, 67, 63
1, 540358, Note_off_c, 0, 53, 65
1, 540366, Note_off_c, 0, 58, 64
1, 540371, Note_off_c, 0, 66, 62
1, 540411, Note_off_c, 0, 63, 36
1, 540413, Note_on_c, 0, 62, 78
1, 540415, Note_on_c, 0, 65, 80
1, 540472, Note_on_c, 0, 64, 71
1, 540472, Note_off_c, 0, 62, 63
1, 540484, Note_on_c, 0, 61, 69
1, 540537, Note_on_c, 0, 63, 75
1, 540544, Note_on_c, 0, 49, 87
1, 540548, Note_off_c, 0, 65, 48
1, 540558, Note_on_c, 0, 41, 60
1, 540558, Note_off_c, 0, 64, 60
1, 540562, Note_off_c, 0, 61, 59
1, 540563, Note_on_c, 0, 46, 52
1, 540564, Note_off_c, 0, 49, 71
1, 540567, Note_on_c, 0, 60, 72
1, 540582, Note_off_c, 0, 63, 56
1, 540594, Note_off_c, 0, 46, 54
1, 540596, Note_off_c, 0, 60, 66
1, 540603, Note_off_c, 0, 41, 0
1, 540618, Note_on_c, 0, 49, 91
1, 540628, Poly_aftertouch_c, 0, 41, 0
1, 540636, Note_on_c, 0, 46, 63
1, 540642, Note_off_c, 0, 49, 63
1, 540645, Note_on_c, 0, 62, 64
1, 540650, Poly_aftertouch_c, 0, 44, 0
1, 540661, Note_on_c, 0, 58, 73
1, 540665, Note_off_c, 0, 46, 63
1, 540699, Note_on_c, 0, 61, 60
1, 540731, Note_off_c, 0, 62, 61
1, 540732, Note_on_c, 0, 57, 72
1, 540740, Note_on_c, 0, 60, 61
1, 540740, Note_off_c, 0, 58, 62
1, 540761, Note_off_c, 0, 61, 58
1, 540764, Control_c, 0, 64, 94
1, 540772, Note_off_c, 0, 60, 66
1, 540778, Control_c, 0, 64, 59
1, 540787, Note_off_c, 0, 57, 59
1, 540793, Control_c, 0, 64, 0
1, 540807, Note_on_c, 0, 61, 76
1, 540812, Note_on_c, 0, 54, 105
1, 540815, Note_on_c, 0, 58, 82
1, 540820, Note_on_c, 0, 42, 90
1, 540835, Note_on_c, 0, 51, 62
1, 540835, Note_off_c, 0, 51, 127
1, 540841, Note_on_c, 0, 49, 55
1, 540841, Note_off_c, 0, 49, 127
1, 540847, Note_on_c, 0, 57, 12
1, 540849, Note_off_c, 0, 42, 65
1, 540852, Control_c, 0, 64, 69
1, 540853, Note_on_c, 0, 53, 37
1, 540853, Note_off_c, 0, 53, 127
1, 540867, Control_c, 0, 64, 127
1, 540870, Note_off_c, 0, 54, 67
1, 540871, Note_off_c, 0, 57, 0
1, 540876, Note_on_c, 0, 63, 11
1, 540893, Poly_aftertouch_c, 0, 57, 0
1, 540902, Poly_aftertouch_c, 0, 53, 0
1, 540917, Note_off_c, 0, 63, 53
1, 540922, Note_off_c, 0, 58, 57
1, 540952, Note_off_c, 0, 61, 52
1, 540981, Note_on_c, 0, 57, 51
1, 541032, Note_on_c, 0, 53, 68
1, 541045, Note_off_c, 0, 57, 43
1, 541078, Note_on_c, 0, 61, 57
1, 541080, Note_on_c, 0, 58, 49
1, 541101, Note_off_c, 0, 53, 54
1, 541111, Note_off_c, 0, 58, 64
1, 541116, Note_off_c, 0, 61, 61
1, 541118, Note_on_c, 0, 52, 63
1, 541163, Note_on_c, 0, 57, 58
1, 541167, Note_off_c, 0, 52, 61
1, 541167, Poly_aftertouch_c, 0, 53, 127
1, 541170, Note_on_c, 0, 53, 2
1, 541172, Note_on_c, 0, 51, 69
1, 541205, Note_off_c, 0, 51, 63
1, 541207, Note_off_c, 0, 57, 59
1, 541214, Note_off_c, 0, 53, 48
1, 541218, Note_on_c, 0, 58, 58
1, 541219, Note_on_c, 0, 61, 60
1, 541246, Note_on_c, 0, 50, 76
1, 541258, Note_off_c, 0, 61, 59
1, 541259, Note_off_c, 0, 58, 63
1, 541309, Note_on_c, 0, 57, 67
1, 541309, Note_off_c, 0, 50, 61
1, 541311, Note_on_c, 0, 49, 80
1, 541348, Note_off_c, 0, 49, 61
1, 541352, Note_off_c, 0, 57, 61
1, 541358, Note_on_c, 0, 61, 66
1, 541360, Note_on_c, 0, 58, 63
1, 541390, Note_on_c, 0, 48, 79
1, 541395, Note_off_c, 0, 61, 59
1, 541395, Note_off_c, 0, 58, 60
1, 541441, Note_on_c, 0, 57, 73
1, 541451, Note_off_c, 0, 48, 64
1, 541452, Note_on_c, 0, 47, 78
1, 541494, Note_on_c, 0, 61, 76
1, 541503, Note_off_c, 0, 57, 58
1, 541506, Note_on_c, 0, 58, 64
1, 541512, Note_on_c, 0, 46, 85
1, 541522, Note_off_c, 0, 47, 63
1, 541546, Note_off_c, 0, 58, 49
1, 541561, Note_off_c, 0, 61, 59
1, 541569, Note_on_c, 0, 57, 75
1, 541572, Note_off_c, 0, 46, 59
1, 541589, Note_on_c, 0, 45, 90
1, 541643, Note_on_c, 0, 61, 76
1, 541651, Note_off_c, 0, 57, 61
1, 541654, Note_on_c, 0, 58, 72
1, 541658, Note_on_c, 0, 44, 88
1, 541678, Note_off_c, 0, 45, 61
1, 541690, Control_c, 0, 64, 83
1, 541705, Control_c, 0, 64, 56
1, 541712, Note_on_c, 0, 43, 70
1, 541712, Note_off_c, 0, 61, 57
1, 541715, Note_off_c, 0, 58, 61
1, 541717, Note_on_c, 0, 57, 75
1, 541719, Control_c, 0, 64, 0
1, 541749, Note_off_c, 0, 44, 65
1, 541764, Control_c, 0, 64, 62
1, 541771, Note_on_c, 0, 42, 79
1, 541779, Control_c, 0, 64, 78
1, 541782, Note_on_c, 0, 61, 75
1, 541790, Note_off_c, 0, 43, 63
1, 541791, Note_off_c, 0, 57, 63
1, 541793, Control_c, 0, 64, 127
1, 541795, Note_on_c, 0, 58, 68
1, 541809, Note_off_c, 0, 42, 65
1, 541849, Note_on_c, 0, 41, 89
1, 541867, Note_on_c, 0, 57, 71
1, 541867, Note_off_c, 0, 61, 60
1, 541869, Note_off_c, 0, 58, 62
1, 541924, Note_on_c, 0, 40, 86
1, 541931, Note_on_c, 0, 61, 71
1, 541934, Note_off_c, 0, 41, 60
1, 541937, Note_off_c, 0, 57, 62
1, 541941, Note_on_c, 0, 58, 63
1, 541971, Note_on_c, 0, 39, 80
1, 541994, Note_off_c, 0, 61, 59
1, 541998, Note_off_c, 0, 40, 60
1, 541999, Note_on_c, 0, 57, 68
1, 542006, Note_off_c, 0, 58, 62
1, 542028, Note_off_c, 0, 39, 61
1, 542049, Note_on_c, 0, 38, 91
1, 542055, Note_off_c, 0, 57, 59
1, 542061, Note_on_c, 0, 61, 69
1, 542073, Note_on_c, 0, 58, 48
1, 542114, Note_on_c, 0, 57, 71
1, 542131, Note_off_c, 0, 61, 61
1, 542135, Note_on_c, 0, 37, 51
1, 542137, Note_off_c, 0, 58, 62
1, 542162, Note_off_c, 0, 38, 64
1, 542166, Note_off_c, 0, 57, 63
1, 542170, Note_off_c, 0, 37, 33
1, 542172, Control_c, 0, 64, 104
1, 542187, Control_c, 0, 64, 69
1, 542202, Note_on_c, 0, 36, 92
1, 542202, Note_on_c, 0, 63, 93
1, 542202, Control_c, 0, 64, 0
1, 542210, Note_on_c, 0, 58, 79
1, 542231, Control_c, 0, 64, 57
1, 542246, Control_c, 0, 64, 76
1, 542261, Control_c, 0, 64, 127
1, 542277, Note_on_c, 0, 57, 65
1, 542280, Note_on_c, 0, 35, 87
1, 542296, Note_off_c, 0, 63, 61
1, 542299, Note_off_c, 0, 58, 60
1, 542303, Note_off_c, 0, 36, 60
1, 542338, Note_off_c, 0, 57, 63
1, 542353, Note_on_c, 0, 34, 77
1, 542374, Note_off_c, 0, 35, 58
1, 542385, Note_on_c, 0, 63, 75
1, 542391, Note_on_c, 0, 58, 73
1, 542411, Note_off_c, 0, 34, 62
1, 542437, Note_on_c, 0, 33, 93
1, 542445, Note_off_c, 0, 58, 62
1, 542448, Note_off_c, 0, 63, 61
1, 542450, Note_on_c, 0, 57, 68
1, 542481, Note_off_c, 0, 57, 61
1, 542508, Note_on_c, 0, 32, 87
1, 542518, Note_on_c, 0, 58, 76
1, 542518, Note_on_c, 0, 63, 78
1, 542535, Note_off_c, 0, 33, 61
1, 542548, Note_on_c, 0, 31, 64
1, 542570, Note_off_c, 0, 58, 59
1, 542582, Poly_aftertouch_c, 0, 57, 127
1, 542603, Note_off_c, 0, 32, 61
1, 542604, Note_on_c, 0, 57, 8
1, 542606, Note_on_c, 0, 30, 76
1, 542609, Note_off_c, 0, 63, 54
1, 542648, Note_off_c, 0, 31, 57
1, 542651, Note_off_c, 0, 57, 58
1, 542675, Note_off_c, 0, 30, 61
1, 542713, Control_c, 0, 64, 110
1, 542716, Note_on_c, 0, 41, 103
1, 542719, Note_on_c, 0, 57, 104
1, 542721, Note_on_c, 0, 65, 103
1, 542722, Note_on_c, 0, 60, 99
1, 542727, Note_on_c, 0, 29, 76
1, 542728, Control_c, 0, 64, 64
1, 542737, Note_on_c, 0, 37, 64
1, 542743, Control_c, 0, 64, 0
1, 542764, Note_on_c, 0, 31, 51
1, 542764, Note_on_c, 0, 32, 17
1, 542764, Note_on_c, 0, 34, 20
1, 542771, Note_off_c, 0, 37, 36
1, 542772, Control_c, 0, 64, 53
1, 542787, Control_c, 0, 64, 83
1, 542788, Note_off_c, 0, 34, 50
1, 542802, Control_c, 0, 64, 127
1, 542806, Note_off_c, 0, 32, 38
1, 542811, Note_off_c, 0, 57, 61
1, 542816, Note_off_c, 0, 65, 59
1, 542835, Note_off_c, 0, 41, 52
1, 542865, Note_off_c, 0, 60, 35
1, 542866, Note_off_c, 0, 29, 61
1, 542939, Note_off_c, 0, 31, 19
1, 542980, Control_c, 0, 64, 86
1, 542991, Note_on_c, 0, 52, 102
1, 542991, Note_on_c, 0, 64, 86
1, 542992, Note_on_c, 0, 40, 107
1, 542995, Control_c, 0, 64, 59
1, 543001, Note_on_c, 0, 28, 89
1, 543007, Note_on_c, 0, 58, 60
1, 543010, Control_c, 0, 64, 0
1, 543014, Note_on_c, 0, 32, 60
1, 543014, Note_on_c, 0, 34, 52
1, 543014, Note_off_c, 0, 34, 127
1, 543029, Note_on_c, 0, 30, 38
1, 543030, Note_on_c, 0, 59, 47
1, 543032, Note_off_c, 0, 58, 52
1, 543037, Note_on_c, 0, 38, 22
1, 543037, Note_off_c, 0, 38, 127
1, 543045, Note_off_c, 0, 32, 49
1, 543054, Control_c, 0, 64, 67
1, 543061, Note_off_c, 0, 59, 51
1, 543069, Control_c, 0, 64, 127
1, 543076, Note_off_c, 0, 28, 61
1, 543076, Note_off_c, 0, 30, 31
1, 543098, Note_off_c, 0, 52, 56
1, 543099, Note_off_c, 0, 64, 61
1, 543108, Note_off_c, 0, 40, 57
1, 543117, Poly_aftertouch_c, 0, 35, 127
1, 543166, Poly_aftertouch_c, 0, 35, 0
1, 543208, Note_on_c, 0, 41, 111
1, 543215, Note_on_c, 0, 53, 105
1, 543219, Note_on_c, 0, 65, 102
1, 543224, Note_on_c, 0, 29, 59
1, 543235, Note_on_c, 0, 63, 72
1, 543235, Note_on_c, 0, 30, 41
1, 543235, Note_off_c, 0, 30, 127
1, 543247, Note_off_c, 0, 53, 60
1, 543255, Note_off_c, 0, 41, 66
1, 543259, Note_off_c, 0, 29, 56
1, 543270, Note_off_c, 0, 63, 62
1, 543282, Note_off_c, 0, 65, 65
1, 543414, Note_on_c, 0, 64, 107
1, 543417, Note_on_c, 0, 76, 95
1, 543420, Note_on_c, 0, 52, 98
1, 543427, Note_on_c, 0, 40, 84
1, 543439, Note_off_c, 0, 52, 68
1, 543444, Note_off_c, 0, 64, 66
1, 543447, Note_off_c, 0, 40, 72
1, 543456, Note_on_c, 0, 46, 31
1, 543461, Note_off_c, 0, 76, 59
1, 543498, Note_off_c, 0, 46, 50
1, 543518, Poly_aftertouch_c, 0, 70, 0
1, 543536, Poly_aftertouch_c, 0, 50, 0
1, 543559, Note_on_c, 0, 65, 104
1, 543562, Note_on_c, 0, 53, 98
1, 543562, Note_on_c, 0, 77, 95
1, 543577, Note_off_c, 0, 65, 71
1, 543581, Note_on_c, 0, 75, 58
1, 543584, Note_off_c, 0, 53, 66
1, 543587, Note_on_c, 0, 43, 49
1, 543600, Note_on_c, 0, 73, 18
1, 543600, Note_off_c, 0, 73, 127
1, 543602, Note_off_c, 0, 75, 63
1, 543606, Note_off_c, 0, 77, 67
1, 543617, Note_off_c, 0, 43, 58
1, 543643, Poly_aftertouch_c, 0, 73, 0
1, 543669, Control_c, 0, 64, 102
1, 543684, Control_c, 0, 64, 66
1, 543700, Control_c, 0, 64, 0
1, 543712, Note_on_c, 0, 76, 105
1, 543712, Note_on_c, 0, 64, 91
1, 543713, Note_on_c, 0, 88, 99
1, 543722, Note_on_c, 0, 52, 70
1, 543727, Note_on_c, 0, 85, 67
1, 543727, Note_off_c, 0, 64, 73
1, 543729, Control_c, 0, 64, 60
1, 543731, Note_off_c, 0, 76, 69
1, 543736, Note_on_c, 0, 86, 60
1, 543736, Note_off_c, 0, 86, 127
1, 543744, Control_c, 0, 64, 76
1, 543745, Note_off_c, 0, 52, 43
1, 543745, Note_off_c, 0, 88, 65
1, 543747, Note_off_c, 0, 85, 42
1, 543759, Control_c, 0, 64, 127
1, 543822, Note_on_c, 0, 65, 92
1, 543826, Note_on_c, 0, 89, 97
1, 543828, Note_on_c, 0, 77, 104
1, 543840, Note_off_c, 0, 65, 74
1, 543840, Note_off_c, 0, 89, 77
1, 543844, Note_on_c, 0, 53, 57
1, 543855, Note_on_c, 0, 79, 43
1, 543855, Note_off_c, 0, 77, 60
1, 543862, Note_off_c, 0, 53, 65
1, 543886, Note_off_c, 0, 79, 59
1, 543951, Control_c, 0, 64, 82
1, 543962, Note_on_c, 0, 52, 92
1, 543963, Note_on_c, 0, 64, 100
1, 543966, Control_c, 0, 64, 54
1, 543971, Note_on_c, 0, 76, 75
1, 543979, Note_on_c, 0, 74, 74
1, 543981, Control_c, 0, 64, 34
1, 543983, Note_off_c, 0, 64, 71
1, 543985, Note_off_c, 0, 52, 66
1, 543986, Note_on_c, 0, 40, 56
1, 543989, Note_on_c, 0, 53, 29
1, 543989, Note_off_c, 0, 53, 127
1, 543990, Note_on_c, 0, 73, 44
1, 543995, Control_c, 0, 64, 60
1, 543996, Note_off_c, 0, 76, 64
1, 544007, Note_off_c, 0, 74, 66
1, 544010, Control_c, 0, 64, 81
1, 544015, Note_off_c, 0, 40, 40
1, 544016, Note_off_c, 0, 73, 57
1, 544025, Control_c, 0, 64, 127
1, 544082, Poly_aftertouch_c, 0, 42, 0
1, 544095, Note_on_c, 0, 53, 104
1, 544102, Note_on_c, 0, 41, 80
1, 544102, Note_on_c, 0, 65, 114
1, 544107, Note_on_c, 0, 77, 81
1, 544112, Note_off_c, 0, 53, 72
1, 544119, Note_off_c, 0, 77, 72
1, 544123, Note_off_c, 0, 65, 67
1, 544125, Note_off_c, 0, 41, 65
1, 544126, Note_on_c, 0, 75, 52
1, 544126, Note_off_c, 0, 75, 127
1, 544132, Note_on_c, 0, 76, 48
1, 544142, Note_on_c, 0, 73, 10
1, 544142, Note_off_c, 0, 73, 127
1, 544160, Note_off_c, 0, 76, 54
1, 544240, Control_c, 0, 64, 92
1, 544255, Control_c, 0, 64, 59
1, 544269, Control_c, 0, 64, 0
1, 544271, Note_on_c, 0, 40, 98
1, 544281, Note_on_c, 0, 28, 83
1, 544283, Note_on_c, 0, 52, 109
1, 544284, Control_c, 0, 64, 49
1, 544287, Note_on_c, 0, 64, 97
1, 544290, Note_on_c, 0, 34, 61
1, 544299, Note_on_c, 0, 32, 53
1, 544299, Note_off_c, 0, 32, 127
1, 544299, Control_c, 0, 64, 66
1, 544301, Note_on_c, 0, 61, 64
1, 544308, Note_off_c, 0, 28, 66
1, 544314, Control_c, 0, 64, 93
1, 544318, Note_off_c, 0, 34, 58
1, 544319, Note_off_c, 0, 52, 59
1, 544324, Note_off_c, 0, 61, 40
1, 544326, Note_off_c, 0, 64, 57
1, 544329, Control_c, 0, 64, 127
1, 544338, Poly_aftertouch_c, 0, 32, 0
1, 544377, Note_off_c, 0, 40, 52
1, 544389, Poly_aftertouch_c, 0, 30, 0
1, 544395, Poly_aftertouch_c, 0, 58, 0
1, 544477, Note_on_c, 0, 41, 102
1, 544487, Note_on_c, 0, 53, 109
1, 544493, Note_on_c, 0, 65, 98
1, 544494, Note_on_c, 0, 29, 61
1, 544497, Note_on_c, 0, 30, 51
1, 544508, Note_off_c, 0, 65, 74
1, 544511, Note_on_c, 0, 63, 62
1, 544514, Note_on_c, 0, 61, 55
1, 544514, Note_off_c, 0, 61, 127
1, 544522, Note_off_c, 0, 53, 61
1, 544523, Note_off_c, 0, 29, 62
1, 544533, Note_off_c, 0, 30, 54
1, 544535, Note_off_c, 0, 63, 38
1, 544538, Note_off_c, 0, 41, 55
1, 544643, Note_on_c, 0, 41, 88
1, 544656, Note_on_c, 0, 53, 111
1, 544687, Note_off_c, 0, 41, 62
1, 544693, Note_off_c, 0, 53, 67
1, 544767, Note_on_c, 0, 34, 70
1, 544840, Note_on_c, 0, 41, 62
1, 544866, Note_off_c, 0, 34, 63
1, 544892, Note_off_c, 0, 41, 57
1, 544895, Note_on_c, 0, 49, 91
1, 544913, Note_on_c, 0, 97, 100
1, 544915, Note_on_c, 0, 94, 89
1, 544931, Note_off_c, 0, 94, 72
1, 544934, Note_on_c, 0, 99, 53
1, 544935, Note_on_c, 0, 95, 68
1, 544940, Note_off_c, 0, 49, 65
1, 544950, Note_off_c, 0, 95, 66
1, 544955, Note_off_c, 0, 97, 63
1, 544959, Note_on_c, 0, 98, 21
1, 544959, Note_off_c, 0, 98, 127
1, 544959, Note_off_c, 0, 99, 40
1, 545014, Note_on_c, 0, 96, 84
1, 545023, Note_on_c, 0, 91, 61
1, 545030, Note_on_c, 0, 93, 58
1, 545051, Note_off_c, 0, 93, 59
1, 545054, Note_on_c, 0, 47, 66
1, 545056, Note_off_c, 0, 91, 57
1, 545060, Note_on_c, 0, 50, 68
1, 545065, Note_on_c, 0, 95, 67
1, 545073, Note_on_c, 0, 92, 84
1, 545100, Note_off_c, 0, 96, 65
1, 545111, Note_off_c, 0, 95, 65
1, 545121, Note_off_c, 0, 47, 61
1, 545127, Note_off_c, 0, 92, 66
1, 545137, Note_off_c, 0, 50, 60
1, 545170, Note_on_c, 0, 93, 74
1, 545172, Note_on_c, 0, 89, 67
1, 545179, Note_on_c, 0, 51, 79
1, 545190, Note_on_c, 0, 48, 66
1, 545215, Note_off_c, 0, 89, 48
1, 545220, Note_on_c, 0, 92, 96
1, 545220, Note_off_c, 0, 48, 65
1, 545226, Note_off_c, 0, 51, 53
1, 545229, Note_on_c, 0, 95, 31
1, 545238, Note_off_c, 0, 93, 65
1, 545241, Note_on_c, 0, 90, 74
1, 545256, Note_off_c, 0, 92, 67
1, 545262, Note_off_c, 0, 90, 71
1, 545264, Note_off_c, 0, 95, 48
1, 545304, Note_on_c, 0, 91, 85
1, 545307, Note_on_c, 0, 52, 81
1, 545307, Note_on_c, 0, 88, 83
1, 545312, Note_on_c, 0, 49, 74
1, 545334, Note_off_c, 0, 52, 62
1, 545347, Note_off_c, 0, 49, 62
1, 545353, Note_on_c, 0, 90, 79
1, 545357, Note_off_c, 0, 88, 66
1, 545362, Note_on_c, 0, 87, 84
1, 545373, Note_off_c, 0, 91, 62
1, 545375, Control_c, 0, 64, 95
1, 545390, Control_c, 0, 64, 63
1, 545399, Note_off_c, 0, 90, 63
1, 545405, Control_c, 0, 64, 0
1, 545406, Note_off_c, 0, 87, 60
1, 545427, Note_on_c, 0, 53, 93
1, 545433, Note_on_c, 0, 89, 82
1, 545434, Note_on_c, 0, 86, 82
1, 545447, Note_on_c, 0, 50, 59
1, 545482, Note_on_c, 0, 88, 70
1, 545482, Note_off_c, 0, 50, 61
1, 545487, Note_off_c, 0, 86, 63
1, 545490, Note_on_c, 0, 85, 87
1, 545494, Note_off_c, 0, 53, 50
1, 545518, Note_on_c, 0, 87, 82
1, 545521, Note_off_c, 0, 89, 62
1, 545536, Note_off_c, 0, 88, 64
1, 545545, Note_off_c, 0, 85, 66
1, 545571, Note_on_c, 0, 54, 76
1, 545574, Note_off_c, 0, 87, 66
1, 545575, Note_on_c, 0, 51, 69
1, 545606, Note_on_c, 0, 83, 73
1, 545608, Note_off_c, 0, 51, 65
1, 545613, Note_off_c, 0, 54, 58
1, 545620, Note_on_c, 0, 86, 68
1, 545657, Note_on_c, 0, 85, 76
1, 545657, Note_off_c, 0, 83, 67
1, 545661, Note_on_c, 0, 82, 84
1, 545675, Note_off_c, 0, 86, 63
1, 545692, Note_on_c, 0, 55, 91
1, 545697, Note_off_c, 0, 85, 62
1, 545714, Note_off_c, 0, 82, 64
1, 545720, Note_on_c, 0, 52, 42
1, 545726, Note_off_c, 0, 55, 60
1, 545738, Note_on_c, 0, 81, 76
1, 545748, Note_off_c, 0, 52, 56
1, 545749, Note_on_c, 0, 84, 62
1, 545782, Control_c, 0, 64, 47
1, 545786, Note_off_c, 0, 81, 61
1, 545793, Note_on_c, 0, 83, 71
1, 545797, Control_c, 0, 64, 70
1, 545799, Note_on_c, 0, 80, 79
1, 545812, Control_c, 0, 64, 93
1, 545813, Note_on_c, 0, 56, 85
1, 545819, Note_on_c, 0, 53, 72
1, 545827, Control_c, 0, 64, 127
1, 545831, Note_on_c, 0, 82, 77
1, 545840, Note_off_c, 0, 84, 59
1, 545859, Note_off_c, 0, 83, 63
1, 545866, Note_on_c, 0, 79, 83
1, 545870, Note_off_c, 0, 80, 62
1, 545883, Note_off_c, 0, 82, 63
1, 545891, Note_off_c, 0, 56, 59
1, 545891, Note_off_c, 0, 79, 67
1, 545895, Note_off_c, 0, 53, 59
1, 545919, Poly_aftertouch_c, 0, 57, 0
1, 545935, Note_on_c, 0, 81, 90
1, 545953, Note_on_c, 0, 78, 77
1, 545957, Note_on_c, 0, 57, 92
1, 545962, Note_on_c, 0, 54, 84
1, 545976, Note_on_c, 0, 80, 73
1, 546004, Note_off_c, 0, 57, 62
1, 546008, Note_on_c, 0, 77, 90
1, 546021, Note_off_c, 0, 81, 59
1, 546035, Note_off_c, 0, 78, 64
1, 546036, Note_off_c, 0, 80, 59
1, 546043, Note_off_c, 0, 77, 68
1, 546049, Note_off_c, 0, 54, 57
1, 546064, Control_c, 0, 64, 76
1, 546079, Control_c, 0, 64, 0
1, 546094, Note_on_c, 0, 58, 96
1, 546101, Note_on_c, 0, 55, 87
1, 546106, Note_on_c, 0, 79, 94
1, 546106, Note_on_c, 0, 73, 93
1, 546109, Note_on_c, 0, 76, 93
1, 546124, Control_c, 0, 64, 52
1, 546138, Note_off_c, 0, 58, 65
1, 546138, Control_c, 0, 64, 74
1, 546150, Note_on_c, 0, 75, 61
1, 546153, Control_c, 0, 64, 127
1, 546187, Note_off_c, 0, 55, 64
1, 546188, Note_off_c, 0, 79, 65
1, 546191, Note_on_c, 0, 72, 81
1, 546197, Note_off_c, 0, 76, 60
1, 546201, Note_off_c, 0, 73, 61
1, 546207, Note_off_c, 0, 75, 62
1, 546213, Note_on_c, 0, 46, 66
1, 546221, Note_off_c, 0, 72, 63
1, 546231, Note_on_c, 0, 52, 70
1, 546237, Note_off_c, 0, 46, 65
1, 546241, Note_on_c, 0, 49, 51
1, 546258, Note_on_c, 0, 55, 56
1, 546269, Note_off_c, 0, 49, 62
1, 546271, Note_on_c, 0, 74, 71
1, 546278, Note_on_c, 0, 72, 76
1, 546282, Note_on_c, 0, 61, 102
1, 546287, Note_on_c, 0, 70, 72
1, 546320, Note_off_c, 0, 52, 56
1, 546332, Note_off_c, 0, 74, 62
1, 546340, Note_off_c, 0, 55, 63
1, 546344, Note_off_c, 0, 61, 60
1, 546347, Note_off_c, 0, 70, 65
1, 546356, Note_on_c, 0, 69, 63
1, 546356, Note_off_c, 0, 72, 60
1, 546375, Note_off_c, 0, 69, 65
1, 546445, Note_on_c, 0, 68, 30
1, 546455, Note_on_c, 0, 41, 68
1, 546475, Note_on_c, 0, 67, 64
1, 546478, Note_on_c, 0, 65, 72
1, 546479, Note_on_c, 0, 69, 14
1, 546481, Note_off_c, 0, 68, 49
1, 546505, Note_off_c, 0, 67, 68
1, 546508, Note_off_c, 0, 65, 68
1, 546511, Note_on_c, 0, 48, 65
1, 546518, Note_off_c, 0, 69, 43
1, 546523, Poly_aftertouch_c, 0, 71, 0
1, 546526, Note_off_c, 0, 41, 61
1, 546531, Control_c, 0, 64, 64
1, 546537, Note_on_c, 0, 71, 45
1, 546546, Control_c, 0, 64, 0
1, 546562, Note_on_c, 0, 57, 104
1, 546562, Note_off_c, 0, 71, 56
1, 546563, Note_on_c, 0, 81, 95
1, 546570, Note_off_c, 0, 48, 66
1, 546576, Control_c, 0, 64, 47
1, 546577, Note_on_c, 0, 72, 65
1, 546577, Note_off_c, 0, 72, 127
1, 546581, Note_on_c, 0, 50, 33
1, 546581, Note_off_c, 0, 50, 127
1, 546583, Note_off_c, 0, 57, 70
1, 546590, Control_c, 0, 64, 68
1, 546600, Note_off_c, 0, 81, 66
1, 546605, Control_c, 0, 64, 90
1, 546620, Control_c, 0, 64, 127
1, 546669, Poly_aftertouch_c, 0, 51, 0
1, 546751, Poly_aftertouch_c, 0, 71, 127
1, 546753, Control_c, 0, 64, 79
1, 546768, Control_c, 0, 64, 49
1, 546773, Poly_aftertouch_c, 0, 71, 0
1, 546777, Note_on_c, 0, 52, 103
1, 546779, Note_on_c, 0, 64, 97
1, 546780, Note_on_c, 0, 76, 99
1, 546783, Control_c, 0, 64, 0
1, 546789, Note_on_c, 0, 40, 77
1, 546797, Control_c, 0, 64, 53
1, 546802, Note_on_c, 0, 46, 50
1, 546811, Note_on_c, 0, 70, 40
1, 546811, Note_off_c, 0, 70, 127
1, 546812, Control_c, 0, 64, 68
1, 546827, Control_c, 0, 64, 92
1, 546832, Note_off_c, 0, 40, 48
1, 546832, Poly_aftertouch_c, 0, 73, 127
1, 546836, Note_off_c, 0, 46, 37
1, 546842, Control_c, 0, 64, 127
1, 546852, Note_off_c, 0, 64, 61
1, 546859, Note_off_c, 0, 76, 64
1, 546863, Note_off_c, 0, 52, 59
1, 546874, Poly_aftertouch_c, 0, 73, 0
1, 546887, Poly_aftertouch_c, 0, 42, 0
1, 546903, Poly_aftertouch_c, 0, 41, 0
1, 546940, Note_on_c, 0, 53, 95
1, 546944, Note_on_c, 0, 77, 94
1, 546946, Note_on_c, 0, 65, 91
1, 546949, Note_on_c, 0, 41, 31
1, 546961, Note_on_c, 0, 75, 64
1, 546964, Note_off_c, 0, 65, 74
1, 546965, Note_off_c, 0, 53, 66
1, 546970, Note_off_c, 0, 41, 0
1, 546983, Note_off_c, 0, 75, 66
1, 546987, Poly_aftertouch_c, 0, 41, 0
1, 546991, Note_off_c, 0, 77, 65
1, 547051, Control_c, 0, 64, 83
1, 547072, Control_c, 0, 64, 58
1, 547087, Control_c, 0, 64, 35
1, 547095, Note_on_c, 0, 76, 106
1, 547095, Note_on_c, 0, 88, 99
1, 547102, Note_on_c, 0, 64, 84
1, 547102, Control_c, 0, 64, 58
1, 547107, Note_on_c, 0, 52, 75
1, 547115, Note_off_c, 0, 76, 66
1, 547117, Control_c, 0, 64, 79
1, 547120, Note_off_c, 0, 64, 73
1, 547126, Note_on_c, 0, 85, 33
1, 547126, Note_off_c, 0, 85, 127
1, 547130, Note_off_c, 0, 52, 69
1, 547132, Control_c, 0, 64, 127
1, 547135, Note_on_c, 0, 62, 39
1, 547138, Note_off_c, 0, 88, 61
1, 547168, Note_off_c, 0, 62, 57
1, 547209, Note_on_c, 0, 77, 90
1, 547212, Note_on_c, 0, 89, 96
1, 547220, Note_on_c, 0, 65, 94
1, 547225, Note_off_c, 0, 77, 74
1, 547232, Note_on_c, 0, 87, 61
1, 547241, Note_off_c, 0, 65, 66
1, 547242, Note_on_c, 0, 85, 38
1, 547242, Note_off_c, 0, 85, 127
1, 547253, Note_off_c, 0, 87, 64
1, 547258, Note_off_c, 0, 89, 63
1, 547346, Note_on_c, 0, 76, 92
1, 547352, Note_on_c, 0, 100, 101
1, 547355, Note_on_c, 0, 88, 98
1, 547360, Note_on_c, 0, 64, 62
1, 547360, Note_off_c, 0, 64, 127
1, 547364, Note_on_c, 0, 99, 73
1, 547364, Note_off_c, 0, 76, 67
1, 547370, Note_off_c, 0, 88, 73
1, 547380, Note_off_c, 0, 99, 67
1, 547381, Note_on_c, 0, 89, 51
1, 547381, Note_off_c, 0, 89, 127
1, 547393, Note_off_c, 0, 100, 64
1, 547455, Note_on_c, 0, 77, 96
1, 547459, Note_on_c, 0, 89, 111
1, 547459, Note_on_c, 0, 101, 104
1, 547465, Note_on_c, 0, 65, 78
1, 547468, Note_off_c, 0, 77, 75
1, 547475, Note_off_c, 0, 101, 71
1, 547481, Note_off_c, 0, 65, 69
1, 547492, Note_off_c, 0, 89, 64
1, 547501, Note_on_c, 0, 99, 13
1, 547501, Note_off_c, 0, 99, 127
1, 547561, Control_c, 0, 64, 102
1, 547563, Poly_aftertouch_c, 0, 68, 0
1, 547576, Control_c, 0, 64, 67
1, 547591, Control_c, 0, 64, 42
1, 547600, Note_on_c, 0, 64, 85
1, 547600, Note_on_c, 0, 76, 95
1, 547600, Note_on_c, 0, 88, 86
1, 547606, Control_c, 0, 64, 52
1, 547619, Note_on_c, 0, 52, 52
1, 547619, Note_off_c, 0, 52, 127
1, 547620, Note_off_c, 0, 64, 68
1, 547620, Note_off_c, 0, 76, 66
1, 547620, Control_c, 0, 64, 71
1, 547621, Note_on_c, 0, 86, 62
1, 547633, Note_on_c, 0, 85, 37
1, 547635, Control_c, 0, 64, 98
1, 547640, Note_off_c, 0, 88, 63
1, 547641, Note_off_c, 0, 86, 39
1, 547650, Control_c, 0, 64, 127
1, 547665, Note_off_c, 0, 85, 56
1, 547724, Note_on_c, 0, 65, 99
1, 547730, Note_on_c, 0, 77, 104
1, 547730, Note_on_c, 0, 89, 102
1, 547734, Note_on_c, 0, 53, 83
1, 547741, Note_off_c, 0, 65, 74
1, 547745, Note_off_c, 0, 89, 75
1, 547751, Note_on_c, 0, 87, 60
1, 547755, Note_off_c, 0, 77, 64
1, 547757, Note_off_c, 0, 53, 69
1, 547766, Note_on_c, 0, 85, 26
1, 547766, Note_off_c, 0, 85, 127
1, 547772, Note_on_c, 0, 88, 39
1, 547774, Note_off_c, 0, 87, 40
1, 547807, Note_off_c, 0, 88, 48
1, 547918, Note_on_c, 0, 64, 101
1, 547918, Note_on_c, 0, 52, 83
1, 547919, Note_on_c, 0, 53, 82
1, 547921, Note_on_c, 0, 76, 98
1, 547939, Note_on_c, 0, 41, 46
1, 547943, Note_off_c, 0, 52, 68
1, 547945, Note_off_c, 0, 53, 64
1, 547951, Note_off_c, 0, 64, 61
1, 547954, Note_on_c, 0, 40, 26
1, 547957, Note_on_c, 0, 73, 32
1, 547965, Note_off_c, 0, 76, 60
1, 547966, Note_off_c, 0, 41, 54
1, 547993, Note_off_c, 0, 73, 36
1, 547994, Poly_aftertouch_c, 0, 42, 127
1, 547996, Note_off_c, 0, 40, 46
1, 548022, Poly_aftertouch_c, 0, 42, 0
1, 548071, Note_on_c, 0, 53, 93
1, 548081, Note_on_c, 0, 41, 66
1, 548081, Note_on_c, 0, 65, 111
1, 548085, Note_on_c, 0, 77, 94
1, 548090, Note_off_c, 0, 53, 72
1, 548100, Note_off_c, 0, 77, 75
1, 548105, Note_off_c, 0, 41, 64
1, 548109, Note_off_c, 0, 65, 66
1, 548122, Note_on_c, 0, 44, 15
1, 548174, Note_off_c, 0, 44, 52
1, 548240, Note_on_c, 0, 41, 84
1, 548244, Note_on_c, 0, 40, 72
1, 548247, Note_on_c, 0, 53, 103
1, 548266, Note_on_c, 0, 29, 44
1, 548266, Note_off_c, 0, 29, 127
1, 548270, Note_off_c, 0, 41, 63
1, 548272, Note_off_c, 0, 40, 61
1, 548279, Note_off_c, 0, 53, 61
1, 548306, Poly_aftertouch_c, 0, 29, 0
1, 548359, Note_on_c, 0, 34, 71
1, 548410, Note_on_c, 0, 41, 62
1, 548429, Note_off_c, 0, 34, 62
1, 548445, Note_off_c, 0, 41, 63
1, 548449, Note_on_c, 0, 49, 94
1, 548467, Note_on_c, 0, 96, 96
1, 548470, Note_on_c, 0, 93, 86
1, 548488, Note_off_c, 0, 93, 72
1, 548489, Note_off_c, 0, 49, 60
1, 548493, Note_off_c, 0, 96, 64
1, 548502, Note_on_c, 0, 97, 30
1, 548502, Note_off_c, 0, 97, 127
1, 548553, Note_on_c, 0, 96, 84
1, 548571, Note_on_c, 0, 93, 68
1, 548612, Note_on_c, 0, 47, 70
1, 548616, Note_on_c, 0, 50, 73
1, 548622, Note_on_c, 0, 95, 76
1, 548626, Note_off_c, 0, 93, 44
1, 548630, Note_on_c, 0, 92, 81
1, 548653, Note_off_c, 0, 96, 64
1, 548671, Note_off_c, 0, 47, 60
1, 548672, Note_off_c, 0, 95, 64
1, 548676, Note_on_c, 0, 94, 58
1, 548686, Note_off_c, 0, 50, 58
1, 548687, Note_off_c, 0, 92, 65
1, 548696, Note_off_c, 0, 94, 63
1, 548728, Note_on_c, 0, 51, 79
1, 548734, Note_on_c, 0, 93, 83
1, 548741, Note_on_c, 0, 48, 64
1, 548745, Note_on_c, 0, 89, 43
1, 548752, Note_off_c, 0, 51, 67
1, 548770, Note_off_c, 0, 48, 66
1, 548776, Note_off_c, 0, 89, 50
1, 548782, Note_on_c, 0, 92, 92
1, 548786, Note_on_c, 0, 95, 38
1, 548800, Note_off_c, 0, 93, 66
1, 548805, Note_on_c, 0, 90, 66
1, 548817, Note_off_c, 0, 95, 53
1, 548820, Note_off_c, 0, 92, 67
1, 548828, Note_off_c, 0, 90, 68
1, 548856, Note_on_c, 0, 52, 77
1, 548858, Note_on_c, 0, 49, 71
1, 548863, Note_on_c, 0, 91, 81
1, 548869, Note_on_c, 0, 88, 80
1, 548884, Note_off_c, 0, 52, 66
1, 548888, Note_off_c, 0, 49, 63
1, 548917, Note_on_c, 0, 90, 73
1, 548920, Note_off_c, 0, 88, 66
1, 548923, Note_on_c, 0, 87, 82
1, 548925, Control_c, 0, 64, 83
1, 548929, Note_off_c, 0, 91, 64
1, 548940, Control_c, 0, 64, 61
1, 548952, Note_off_c, 0, 90, 59
1, 548955, Control_c, 0, 64, 0
1, 548970, Note_off_c, 0, 87, 61
1, 548977, Note_on_c, 0, 53, 85
1, 548996, Note_on_c, 0, 89, 77
1, 549000, Note_on_c, 0, 86, 74
1, 549006, Note_on_c, 0, 50, 45
1, 549011, Note_off_c, 0, 53, 60
1, 549036, Note_off_c, 0, 50, 52
1, 549041, Note_on_c, 0, 88, 72
1, 549045, Note_off_c, 0, 86, 63
1, 549050, Note_on_c, 0, 85, 86
1, 549077, Note_on_c, 0, 87, 75
1, 549081, Note_off_c, 0, 89, 63
1, 549093, Note_off_c, 0, 88, 65
1, 549104, Note_off_c, 0, 85, 66
1, 549106, Note_on_c, 0, 54, 74
1, 549107, Note_off_c, 0, 87, 66
1, 549110, Note_on_c, 0, 51, 68
1, 549139, Note_off_c, 0, 54, 62
1, 549143, Note_off_c, 0, 51, 64
1, 549149, Note_on_c, 0, 83, 75
1, 549167, Note_on_c, 0, 88, 62
1, 549176, Note_on_c, 0, 86, 52
1, 549207, Note_on_c, 0, 85, 82
1, 549210, Note_off_c, 0, 83, 66
1, 549212, Note_off_c, 0, 88, 65
1, 549215, Note_on_c, 0, 82, 80
1, 549216, Note_off_c, 0, 86, 58
1, 549231, Note_on_c, 0, 55, 92
1, 549248, Note_off_c, 0, 85, 56
1, 549251, Note_off_c, 0, 82, 61
1, 549263, Note_off_c, 0, 55, 62
1, 549286, Note_on_c, 0, 81, 80
1, 549296, Note_on_c, 0, 52, 24
1, 549296, Note_off_c, 0, 52, 127
1, 549303, Note_on_c, 0, 84, 63
1, 549315, Note_on_c, 0, 86, 57
1, 549319, Control_c, 0, 64, 66
1, 549334, Control_c, 0, 64, 93
1, 549342, Note_on_c, 0, 83, 75
1, 549347, Note_off_c, 0, 81, 60
1, 549348, Control_c, 0, 64, 127
1, 549349, Note_off_c, 0, 86, 49
1, 549357, Note_on_c, 0, 80, 83
1, 549361, Note_on_c, 0, 56, 78
1, 549367, Note_on_c, 0, 53, 71
1, 549387, Note_on_c, 0, 82, 73
1, 549400, Note_off_c, 0, 84, 56
1, 549411, Note_off_c, 0, 83, 63
1, 549424, Note_off_c, 0, 80, 62
1, 549425, Note_on_c, 0, 79, 81
1, 549426, Note_off_c, 0, 56, 59
1, 549429, Note_off_c, 0, 53, 56
1, 549432, Note_off_c, 0, 82, 59
1, 549447, Note_off_c, 0, 79, 70
1, 549483, Note_on_c, 0, 81, 88
1, 549485, Note_on_c, 0, 57, 89
1, 549488, Note_on_c, 0, 54, 75
1, 549508, Note_on_c, 0, 78, 74
1, 549518, Note_on_c, 0, 80, 74
1, 549523, Note_off_c, 0, 57, 63
1, 549533, Note_on_c, 0, 55, 19
1, 549557, Note_on_c, 0, 77, 81
1, 549558, Note_off_c, 0, 81, 59
1, 549570, Note_off_c, 0, 54, 60
1, 549575, Note_off_c, 0, 55, 41
1, 549581, Note_off_c, 0, 80, 61
1, 549582, Note_off_c, 0, 78, 62
1, 549584, Note_off_c, 0, 77, 66
1, 549600, Control_c, 0, 64, 80
1, 549614, Control_c, 0, 64, 46
1, 549617, Note_on_c, 0, 58, 102
1, 549628, Note_on_c, 0, 55, 83
1, 549629, Control_c, 0, 64, 0
1, 549644, Control_c, 0, 64, 58
1, 549647, Note_on_c, 0, 73, 89
1, 549647, Note_on_c, 0, 79, 78
1, 549649, Note_on_c, 0, 76, 85
1, 549659, Control_c, 0, 64, 79
1, 549662, Note_off_c, 0, 58, 60
1, 549671, Note_on_c, 0, 77, 58
1, 549674, Control_c, 0, 64, 127
1, 549686, Note_off_c, 0, 55, 62
1, 549695, Note_off_c, 0, 77, 37
1, 549718, Note_off_c, 0, 79, 64
1, 549721, Note_on_c, 0, 74, 49
1, 549729, Note_on_c, 0, 72, 78
1, 549730, Note_on_c, 0, 46, 72
1, 549731, Note_off_c, 0, 76, 60
1, 549736, Note_off_c, 0, 73, 62
1, 549745, Note_off_c, 0, 74, 57
1, 549753, Note_off_c, 0, 72, 68
1, 549755, Note_on_c, 0, 52, 67
1, 549760, Note_off_c, 0, 46, 66
1, 549766, Note_on_c, 0, 49, 45
1, 549794, Note_on_c, 0, 55, 70
1, 549795, Note_off_c, 0, 49, 57
1, 549806, Note_on_c, 0, 74, 84
1, 549808, Note_on_c, 0, 61, 96
1, 549813, Note_on_c, 0, 70, 77
1, 549816, Note_off_c, 0, 52, 60
1, 549835, Note_on_c, 0, 72, 64
1, 549842, Note_off_c, 0, 55, 58
1, 549855, Note_off_c, 0, 61, 56
1, 549859, Note_off_c, 0, 74, 59
1, 549876, Note_on_c, 0, 69, 67
1, 549877, Note_off_c, 0, 70, 63
1, 549880, Note_off_c, 0, 72, 60
1, 549901, Note_off_c, 0, 69, 65
1, 549959, Note_on_c, 0, 70, 66
1, 549961, Note_on_c, 0, 71, 46
1, 549978, Note_on_c, 0, 41, 66
1, 549987, Note_off_c, 0, 71, 54
1, 550009, Note_on_c, 0, 65, 77
1, 550014, Note_off_c, 0, 70, 63
1, 550036, Note_on_c, 0, 48, 69
1, 550036, Note_off_c, 0, 65, 69
1, 550042, Note_off_c, 0, 41, 61
1, 550045, Control_c, 0, 64, 82
1, 550067, Control_c, 0, 64, 48
1, 550076, Note_on_c, 0, 72, 84
1, 550082, Control_c, 0, 64, 0
1, 550085, Note_on_c, 0, 57, 98
1, 550093, Note_off_c, 0, 48, 65
1, 550096, Note_on_c, 0, 81, 97
1, 550100, Note_on_c, 0, 50, 35
1, 550100, Note_off_c, 0, 50, 127
1, 550103, Note_off_c, 0, 57, 71
1, 550110, Note_off_c, 0, 72, 68
1, 550112, Control_c, 0, 64, 57
1, 550127, Control_c, 0, 64, 77
1, 550133, Poly_aftertouch_c, 0, 44, 0
1, 550136, Note_off_c, 0, 81, 63
1, 550142, Control_c, 0, 64, 127
1, 550195, Poly_aftertouch_c, 0, 78, 0
1, 550276, Control_c, 0, 64, 108
1, 550290, Control_c, 0, 64, 67
1, 550305, Control_c, 0, 64, 0
1, 550307, Note_on_c, 0, 64, 99
1, 550309, Note_on_c, 0, 76, 94
1, 550311, Note_on_c, 0, 52, 101
1, 550320, Control_c, 0, 64, 44
1, 550325, Note_on_c, 0, 40, 78
1, 550334, Note_on_c, 0, 46, 57
1, 550335, Control_c, 0, 64, 63
1, 550346, Note_on_c, 0, 74, 40
1, 550350, Control_c, 0, 64, 78
1, 550356, Note_off_c, 0, 40, 63
1, 550364, Control_c, 0, 64, 127
1, 550365, Note_off_c, 0, 74, 41
1, 550376, Note_on_c, 0, 42, 3
1, 550377, Note_off_c, 0, 46, 45
1, 550380, Note_off_c, 0, 64, 59
1, 550389, Note_off_c, 0, 76, 64
1, 550400, Note_off_c, 0, 52, 60
1, 550416, Note_off_c, 0, 42, 53
1, 550470, Note_on_c, 0, 53, 93
1, 550475, Note_on_c, 0, 41, 39
1, 550478, Note_on_c, 0, 77, 87
1, 550479, Note_on_c, 0, 65, 93
1, 550494, Note_on_c, 0, 75, 63
1, 550496, Note_off_c, 0, 53, 65
1, 550498, Note_off_c, 0, 65, 72
1, 550508, Note_off_c, 0, 41, 44
1, 550520, Note_off_c, 0, 75, 66
1, 550522, Note_off_c, 0, 77, 65
1, 550616, Control_c, 0, 64, 82
1, 550631, Control_c, 0, 64, 56
1, 550643, Note_on_c, 0, 76, 111
1, 550645, Note_on_c, 0, 64, 93
1, 550645, Note_on_c, 0, 88, 105
1, 550646, Control_c, 0, 64, 0
1, 550652, Note_on_c, 0, 52, 65
1, 550660, Control_c, 0, 64, 57
1, 550674, Note_off_c, 0, 76, 64
1, 550675, Control_c, 0, 64, 80
1, 550687, Note_on_c, 0, 85, 13
1, 550687, Note_off_c, 0, 85, 127
1, 550687, Note_off_c, 0, 52, 56
1, 550690, Control_c, 0, 64, 127
1, 550700, Note_off_c, 0, 88, 57
1, 550711, Note_on_c, 0, 82, 2
1, 550717, Note_off_c, 0, 64, 60
1, 550753, Note_off_c, 0, 82, 37
1, 550774, Poly_aftertouch_c, 0, 58, 0
1, 550801, Note_on_c, 0, 65, 103
1, 550815, Note_on_c, 0, 77, 98
1, 550815, Note_on_c, 0, 89, 106
1, 550818, Note_on_c, 0, 53, 73
1, 550834, Note_off_c, 0, 77, 66
1, 550836, Note_off_c, 0, 53, 66
1, 550849, Note_on_c, 0, 85, 35
1, 550849, Note_off_c, 0, 85, 127
1, 550851, Note_off_c, 0, 65, 65
1, 550862, Note_off_c, 0, 89, 67
1, 551057, Note_on_c, 0, 88, 111
1, 551057, Note_on_c, 0, 76, 106
1, 551058, Note_on_c, 0, 100, 110
1, 551061, Note_on_c, 0, 64, 85
1, 551069, Control_c, 0, 64, 89
1, 551075, Note_on_c, 0, 74, 64
1, 551084, Control_c, 0, 64, 60
1, 551087, Note_on_c, 0, 94, 50
1, 551097, Note_off_c, 0, 74, 40
1, 551099, Control_c, 0, 64, 0
1, 551099, Note_on_c, 0, 98, 39
1, 551112, Note_off_c, 0, 94, 60
1, 551128, Control_c, 0, 64, 35
1, 551143, Control_c, 0, 64, 62
1, 551157, Note_off_c, 0, 98, 42
1, 551158, Control_c, 0, 64, 82
1, 551172, Note_off_c, 0, 64, 58
1, 551173, Control_c, 0, 64, 127
1, 551254, Note_off_c, 0, 88, 56
1, 551255, Note_off_c, 0, 100, 63
1, 551309, Note_off_c, 0, 76, 58
1, 551379, Note_on_c, 0, 89, 114
1, 551381, Note_on_c, 0, 101, 105
1, 551382, Note_on_c, 0, 77, 104
1, 551382, Note_on_c, 0, 65, 89
1, 551404, Note_on_c, 0, 76, 63
1, 551404, Note_off_c, 0, 76, 127
1, 551404, Note_on_c, 0, 97, 60
1, 551409, Control_c, 0, 64, 109
1, 551419, Note_on_c, 0, 95, 31
1, 551424, Control_c, 0, 64, 71
1, 551427, Note_off_c, 0, 97, 58
1, 551429, Note_on_c, 0, 100, 27
1, 551430, Note_on_c, 0, 68, 19
1, 551430, Note_off_c, 0, 68, 127
1, 551438, Control_c, 0, 64, 37
1, 551453, Control_c, 0, 64, 0
1, 551456, Note_off_c, 0, 95, 51
1, 551512, Control_c, 0, 64, 50
1, 551527, Control_c, 0, 64, 69
1, 551542, Control_c, 0, 64, 99
1, 551564, Control_c, 0, 64, 127
1, 551617, Note_off_c, 0, 77, 54
1, 551640, Note_off_c, 0, 65, 54
1, 551668, Note_off_c, 0, 101, 57
1, 551674, Note_off_c, 0, 100, 45
1, 551715, Note_off_c, 0, 89, 53
1, 552685, Control_c, 0, 64, 85
1, 552699, Control_c, 0, 64, 59
1, 552714, Control_c, 0, 64, 0
1, 552738, Note_on_c, 0, 41, 95
1, 552744, Control_c, 0, 64, 43
1, 552750, Note_on_c, 0, 53, 96
1, 552759, Control_c, 0, 64, 64
1, 552774, Control_c, 0, 64, 80
1, 552789, Control_c, 0, 64, 127
1, 552900, Note_off_c, 0, 53, 57
1, 552904, Note_off_c, 0, 41, 51
1, 552916, Note_on_c, 0, 54, 59
1, 552953, Note_on_c, 0, 42, 55
1, 552956, Note_off_c, 0, 54, 63
1, 553006, Note_on_c, 0, 55, 61
1, 553018, Note_on_c, 0, 43, 63
1, 553043, Note_off_c, 0, 42, 39
1, 553043, Note_off_c, 0, 55, 61
1, 553069, Note_on_c, 0, 56, 71
1, 553074, Note_off_c, 0, 43, 62
1, 553081, Note_on_c, 0, 44, 68
1, 553097, Note_off_c, 0, 56, 65
1, 553123, Note_off_c, 0, 44, 64
1, 553138, Note_on_c, 0, 45, 71
1, 553141, Note_on_c, 0, 57, 71
1, 553182, Note_off_c, 0, 57, 59
1, 553191, Note_on_c, 0, 58, 76
1, 553192, Note_on_c, 0, 46, 79
1, 553196, Note_off_c, 0, 45, 61
1, 553224, Note_off_c, 0, 58, 64
1, 553248, Note_on_c, 0, 47, 76
1, 553261, Note_on_c, 0, 59, 72
1, 553263, Note_off_c, 0, 46, 62
1, 553302, Note_off_c, 0, 47, 64
1, 553312, Note_off_c, 0, 59, 63
1, 553313, Note_on_c, 0, 48, 78
1, 553319, Note_on_c, 0, 60, 72
1, 553340, Note_on_c, 0, 61, 74
1, 553345, Note_off_c, 0, 60, 69
1, 553371, Note_on_c, 0, 49, 84
1, 553372, Note_off_c, 0, 61, 63
1, 553376, Note_off_c, 0, 48, 61
1, 553404, Note_on_c, 0, 62, 83
1, 553427, Note_off_c, 0, 49, 62
1, 553435, Note_on_c, 0, 50, 82
1, 553451, Note_off_c, 0, 62, 61
1, 553456, Note_on_c, 0, 63, 79
1, 553482, Note_on_c, 0, 51, 75
1, 553484, Note_off_c, 0, 50, 63
1, 553510, Note_off_c, 0, 63, 65
1, 553519, Note_on_c, 0, 52, 71
1, 553521, Note_on_c, 0, 64, 76
1, 553564, Note_on_c, 0, 53, 67
1, 553568, Note_on_c, 0, 65, 84
1, 553585, Note_off_c, 0, 51, 53
1, 553586, Note_off_c, 0, 53, 59
1, 553598, Note_off_c, 0, 52, 63
1, 553649, Note_off_c, 0, 65, 62
1, 553699, Note_off_c, 0, 64, 18
1, 553713, Note_on_c, 0, 66, 99
1, 553715, Note_on_c, 0, 54, 104
1, 553716, Note_on_c, 0, 61, 90
1, 553717, Note_on_c, 0, 42, 96
1, 553718, Note_on_c, 0, 37, 98
1, 553728, Note_on_c, 0, 30, 82
1, 553730, Note_on_c, 0, 56, 68
1, 553734, Note_on_c, 0, 63, 62
1, 553749, Note_off_c, 0, 56, 40
1, 553749, Note_on_c, 0, 32, 47
1, 553773, Note_off_c, 0, 63, 56
1, 553787, Note_off_c, 0, 32, 50
1, 553886, Control_c, 0, 64, 87
1, 553901, Control_c, 0, 64, 62
1, 553915, Control_c, 0, 64, 0
1, 554019, Control_c, 0, 64, 54
1, 554033, Control_c, 0, 64, 67
1, 554048, Control_c, 0, 64, 80
1, 554063, Control_c, 0, 64, 108
1, 554079, Control_c, 0, 64, 127
1, 554318, Note_off_c, 0, 42, 53
1, 554334, Note_off_c, 0, 66, 56
1, 554359, Note_off_c, 0, 61, 57
1, 554414, Note_off_c, 0, 30, 33
1, 554439, Note_off_c, 0, 54, 52
1, 554525, Note_off_c, 0, 37, 53
1, 555160, Note_on_c, 0, 45, 105
1, 555161, Note_on_c, 0, 57, 98
1, 555166, Note_on_c, 0, 31, 102
1, 555177, Note_on_c, 0, 21, 91
1, 555183, Note_on_c, 0, 27, 78
1, 555186, Note_on_c, 0, 22, 70
1, 555186, Note_on_c, 0, 25, 71
1, 555188, Note_on_c, 0, 54, 50
1, 555189, Note_on_c, 0, 47, 46
1, 555189, Note_off_c, 0, 47, 127
1, 555191, Note_on_c, 0, 50, 53
1, 555200, Note_on_c, 0, 55, 58
1, 555211, Note_off_c, 0, 27, 59
1, 555220, Note_off_c, 0, 25, 57
1, 555272, Poly_aftertouch_c, 0, 52, 127
1, 555401, Poly_aftertouch_c, 0, 52, 0
1, 555408, Note_off_c, 0, 31, 59
1, 555413, Control_c, 0, 64, 100
1, 555428, Control_c, 0, 64, 85
1, 555443, Control_c, 0, 64, 74
1, 555458, Control_c, 0, 64, 65
1, 555472, Note_off_c, 0, 22, 54
1, 555473, Control_c, 0, 64, 55
1, 555487, Control_c, 0, 64, 45
1, 555502, Control_c, 0, 64, 43
1, 555531, Control_c, 0, 64, 42
1, 555546, Control_c, 0, 64, 38
1, 555561, Control_c, 0, 64, 0
1, 555606, Control_c, 0, 64, 36
1, 555621, Control_c, 0, 64, 50
1, 555636, Control_c, 0, 64, 58
1, 555651, Control_c, 0, 64, 64
1, 555665, Control_c, 0, 64, 73
1, 555671, Poly_aftertouch_c, 0, 33, 127
1, 555681, Control_c, 0, 64, 92
1, 555695, Control_c, 0, 64, 127
1, 555876, Note_off_c, 0, 50, 36
1, 555882, Note_off_c, 0, 54, 38
1, 555883, Note_off_c, 0, 45, 55
1, 555922, Poly_aftertouch_c, 0, 33, 0
1, 555943, Note_off_c, 0, 57, 56
1, 555944, Note_off_c, 0, 21, 61
1, 555949, Note_off_c, 0, 55, 37
1, 556020, Poly_aftertouch_c, 0, 28, 127
1, 556054, Poly_aftertouch_c, 0, 28, 0
1, 556558, Note_on_c, 0, 37, 105
1, 556561, Note_on_c, 0, 49, 108
1, 556566, Note_on_c, 0, 61, 104
1, 556567, Note_on_c, 0, 25, 92
1, 556582, Note_on_c, 0, 31, 66
1, 556589, Note_on_c, 0, 57, 42
1, 556613, Note_on_c, 0, 28, 12
1, 556616, Note_on_c, 0, 27, 24
1, 556625, Note_on_c, 0, 55, 13
1, 556664, Note_off_c, 0, 57, 0
1, 556664, Note_on_c, 0, 57, 14
1, 556680, Note_off_c, 0, 28, 38
1, 556685, Note_off_c, 0, 27, 42
1, 556707, Poly_aftertouch_c, 0, 59, 127
1, 556707, Poly_aftertouch_c, 0, 60, 127
1, 556746, Poly_aftertouch_c, 0, 60, 0
1, 556753, Note_off_c, 0, 55, 25
1, 556755, Control_c, 0, 64, 102
1, 556767, Poly_aftertouch_c, 0, 59, 0
1, 556769, Control_c, 0, 64, 75
1, 556784, Control_c, 0, 64, 53
1, 556807, Control_c, 0, 64, 0
1, 556823, Note_off_c, 0, 31, 21
1, 556857, Note_off_c, 0, 57, 27
1, 556866, Control_c, 0, 64, 37
1, 556881, Control_c, 0, 64, 58
1, 556896, Control_c, 0, 64, 74
1, 556911, Control_c, 0, 64, 102
1, 556925, Control_c, 0, 64, 127
1, 557213, Note_off_c, 0, 25, 54
1, 557244, Note_off_c, 0, 61, 57
1, 557517, Note_off_c, 0, 37, 54
1, 558052, Note_off_c, 0, 49, 32
1, 558372, Note_on_c, 0, 52, 112
1, 558377, Note_on_c, 0, 40, 102
1, 558384, Note_on_c, 0, 28, 91
1, 558411, Note_on_c, 0, 38, 46
1, 558411, Note_off_c, 0, 38, 127
1, 558491, Poly_aftertouch_c, 0, 32, 0
1, 558492, Poly_aftertouch_c, 0, 34, 0
1, 558572, Control_c, 0, 64, 102
1, 558587, Control_c, 0, 64, 82
1, 558602, Control_c, 0, 64, 69
1, 558616, Control_c, 0, 64, 58
1, 558631, Control_c, 0, 64, 41
1, 558646, Control_c, 0, 64, 0
1, 558884, Control_c, 0, 64, 46
1, 558899, Control_c, 0, 64, 57
1, 558914, Control_c, 0, 64, 64
1, 558928, Control_c, 0, 64, 69
1, 558943, Control_c, 0, 64, 76
1, 558958, Control_c, 0, 64, 87
1, 558972, Control_c, 0, 64, 115
1, 558987, Control_c, 0, 64, 127
1, 559284, Note_off_c, 0, 28, 45
1, 559681, Note_off_c, 0, 40, 38
1, 559970, Note_off_c, 0, 52, 47
1, 560655, Note_on_c, 0, 29, 63
1, 560672, Note_on_c, 0, 41, 109
1, 560678, Note_on_c, 0, 53, 110
1, 560688, Note_on_c, 0, 36, 68
1, 560691, Note_off_c, 0, 29, 64
1, 560708, Note_off_c, 0, 41, 62
1, 560713, Note_off_c, 0, 36, 59
1, 560759, Control_c, 0, 64, 90
1, 560774, Control_c, 0, 64, 69
1, 560787, Note_off_c, 0, 53, 59
1, 560787, Note_on_c, 0, 54, 68
1, 560789, Control_c, 0, 64, 54
1, 560804, Control_c, 0, 64, 0
1, 560883, Note_off_c, 0, 54, 58
1, 560933, Note_on_c, 0, 53, 42
1, 561007, Note_off_c, 0, 53, 45
1, 561034, Note_on_c, 0, 54, 43
1, 561164, Note_off_c, 0, 54, 54
1, 561201, Note_on_c, 0, 65, 48
1, 561204, Note_on_c, 0, 57, 46
1, 561210, Note_on_c, 0, 60, 46
1, 561224, Note_on_c, 0, 53, 38
1, 561227, Note_off_c, 0, 65, 56
1, 561232, Control_c, 0, 64, 63
1, 561234, Note_off_c, 0, 57, 55
1, 561241, Note_off_c, 0, 60, 61
1, 561247, Control_c, 0, 64, 81
1, 561263, Control_c, 0, 64, 127
1, 561320, Note_off_c, 0, 53, 39
1, 561326, Note_on_c, 0, 58, 48
1, 561372, Note_off_c, 0, 58, 60
1, 561427, Note_on_c, 0, 57, 71
1, 561441, Note_on_c, 0, 65, 56
1, 561445, Note_on_c, 0, 60, 45
1, 561463, Note_off_c, 0, 65, 62
1, 561468, Note_off_c, 0, 57, 52
1, 561487, Note_off_c, 0, 60, 60
1, 561537, Note_on_c, 0, 65, 53
1, 561547, Note_on_c, 0, 54, 51
1, 561563, Note_off_c, 0, 65, 58
1, 561599, Note_off_c, 0, 54, 56
1, 561626, Control_c, 0, 64, 102
1, 561640, Control_c, 0, 64, 72
1, 561642, Note_on_c, 0, 65, 71
1, 561655, Control_c, 0, 64, 44
1, 561659, Note_on_c, 0, 70, 52
1, 561660, Note_on_c, 0, 53, 54
1, 561666, Note_on_c, 0, 61, 33
1, 561670, Control_c, 0, 64, 0
1, 561675, Note_off_c, 0, 65, 62
1, 561683, Note_off_c, 0, 70, 37
1, 561696, Note_off_c, 0, 53, 60
1, 561699, Note_off_c, 0, 61, 52
1, 561749, Note_on_c, 0, 54, 53
1, 561807, Note_off_c, 0, 54, 55
1, 561875, Note_on_c, 0, 70, 54
1, 561879, Note_on_c, 0, 65, 55
1, 561887, Note_on_c, 0, 61, 38
1, 561891, Note_on_c, 0, 53, 45
1, 561896, Note_off_c, 0, 70, 60
1, 561906, Note_off_c, 0, 65, 60
1, 561921, Note_off_c, 0, 61, 54
1, 561951, Note_off_c, 0, 53, 53
1, 561986, Note_on_c, 0, 54, 43
1, 562051, Note_off_c, 0, 54, 55
1, 562098, Note_on_c, 0, 70, 72
1, 562107, Note_on_c, 0, 65, 48
1, 562107, Control_c, 0, 64, 68
1, 562122, Control_c, 0, 64, 100
1, 562122, Note_off_c, 0, 70, 70
1, 562131, Note_on_c, 0, 53, 49
1, 562137, Control_c, 0, 64, 127
1, 562144, Note_on_c, 0, 61, 10
1, 562149, Note_off_c, 0, 65, 57
1, 562182, Note_off_c, 0, 61, 39
1, 562201, Note_off_c, 0, 53, 44
1, 562229, Note_on_c, 0, 58, 43
1, 562261, Note_off_c, 0, 58, 55
1, 562307, Note_on_c, 0, 73, 67
1, 562314, Control_c, 0, 64, 83
1, 562316, Note_on_c, 0, 57, 59
1, 562329, Note_off_c, 0, 73, 65
1, 562329, Control_c, 0, 64, 62
1, 562330, Note_on_c, 0, 61, 40
1, 562340, Note_off_c, 0, 57, 62
1, 562344, Note_on_c, 0, 65, 30
1, 562344, Control_c, 0, 64, 0
1, 562370, Note_off_c, 0, 65, 52
1, 562376, Note_off_c, 0, 61, 48
1, 562402, Note_on_c, 0, 54, 61
1, 562423, Note_on_c, 0, 70, 59
1, 562440, Note_on_c, 0, 65, 50
1, 562446, Note_off_c, 0, 70, 60
1, 562457, Note_off_c, 0, 54, 56
1, 562472, Note_off_c, 0, 65, 64
1, 562514, Note_on_c, 0, 69, 66
1, 562521, Note_on_c, 0, 60, 60
1, 562521, Note_on_c, 0, 53, 54
1, 562533, Note_off_c, 0, 69, 66
1, 562545, Note_off_c, 0, 60, 66
1, 562570, Note_off_c, 0, 53, 56
1, 562620, Note_on_c, 0, 54, 50
1, 562688, Note_off_c, 0, 54, 52
1, 562726, Note_on_c, 0, 65, 73
1, 562732, Note_on_c, 0, 60, 55
1, 562751, Note_off_c, 0, 65, 69
1, 562754, Note_off_c, 0, 60, 62
1, 562759, Note_on_c, 0, 53, 52
1, 562819, Note_off_c, 0, 53, 54
1, 562847, Note_on_c, 0, 54, 46
1, 562917, Note_off_c, 0, 54, 55
1, 562931, Control_c, 0, 64, 49
1, 562945, Control_c, 0, 64, 77
1, 562955, Note_on_c, 0, 77, 71
1, 562960, Control_c, 0, 64, 127
1, 562968, Note_on_c, 0, 53, 56
1, 562969, Note_on_c, 0, 72, 62
1, 562972, Note_on_c, 0, 69, 46
1, 562981, Note_off_c, 0, 77, 65
1, 563001, Note_off_c, 0, 72, 62
1, 563003, Note_off_c, 0, 69, 51
1, 563022, Note_off_c, 0, 53, 52
1, 563070, Note_on_c, 0, 58, 45
1, 563111, Note_off_c, 0, 58, 62
1, 563168, Note_on_c, 0, 77, 59
1, 563172, Note_on_c, 0, 57, 62
1, 563176, Note_on_c, 0, 72, 58
1, 563188, Note_off_c, 0, 77, 64
1, 563189, Note_on_c, 0, 69, 33
1, 563204, Note_off_c, 0, 57, 65
1, 563211, Note_off_c, 0, 72, 59
1, 563231, Note_off_c, 0, 69, 44
1, 563255, Note_on_c, 0, 77, 70
1, 563271, Note_off_c, 0, 77, 70
1, 563280, Note_on_c, 0, 54, 55
1, 563286, Control_c, 0, 64, 107
1, 563301, Control_c, 0, 64, 76
1, 563315, Note_off_c, 0, 54, 64
1, 563316, Control_c, 0, 64, 57
1, 563331, Control_c, 0, 64, 0
1, 563357, Note_on_c, 0, 77, 63
1, 563368, Note_on_c, 0, 73, 55
1, 563373, Note_on_c, 0, 53, 57
1, 563374, Note_on_c, 0, 82, 59
1, 563391, Note_off_c, 0, 73, 60
1, 563395, Note_off_c, 0, 82, 61
1, 563397, Note_off_c, 0, 77, 55
1, 563407, Note_off_c, 0, 53, 63
1, 563480, Note_on_c, 0, 54, 40
1, 563522, Note_off_c, 0, 54, 55
1, 563586, Note_on_c, 0, 82, 68
1, 563592, Note_on_c, 0, 77, 48
1, 563601, Note_on_c, 0, 73, 47
1, 563603, Note_off_c, 0, 82, 66
1, 563607, Note_on_c, 0, 53, 43
1, 563619, Note_off_c, 0, 77, 60
1, 563630, Note_off_c, 0, 73, 56
1, 563648, Note_off_c, 0, 53, 48
1, 563681, Note_on_c, 0, 54, 42
1, 563743, Note_off_c, 0, 54, 55
1, 563768, Control_c, 0, 64, 53
1, 563783, Control_c, 0, 64, 65
1, 563798, Note_on_c, 0, 82, 62
1, 563798, Control_c, 0, 64, 72
1, 563808, Note_on_c, 0, 77, 37
1, 563813, Control_c, 0, 64, 81
1, 563816, Note_off_c, 0, 82, 64
1, 563817, Note_on_c, 0, 53, 39
1, 563821, Note_on_c, 0, 73, 31
1, 563828, Control_c, 0, 64, 91
1, 563842, Control_c, 0, 64, 104
1, 563851, Note_off_c, 0, 77, 48
1, 563857, Note_off_c, 0, 73, 49
1, 563857, Control_c, 0, 64, 127
1, 563862, Note_off_c, 0, 53, 46
1, 563901, Note_on_c, 0, 58, 48
1, 563938, Note_off_c, 0, 58, 61
1, 563993, Note_on_c, 0, 85, 48
1, 564000, Note_on_c, 0, 57, 49
1, 564018, Note_on_c, 0, 77, 33
1, 564018, Note_off_c, 0, 85, 58
1, 564027, Note_off_c, 0, 57, 57
1, 564035, Note_on_c, 0, 73, 34
1, 564074, Note_on_c, 0, 54, 65
1, 564090, Note_off_c, 0, 77, 0
1, 564108, Note_on_c, 0, 77, 30
1, 564109, Control_c, 0, 64, 115
1, 564119, Note_on_c, 0, 82, 41
1, 564124, Control_c, 0, 64, 77
1, 564132, Note_off_c, 0, 54, 56
1, 564139, Control_c, 0, 64, 58
1, 564145, Note_off_c, 0, 82, 51
1, 564153, Control_c, 0, 64, 0
1, 564158, Note_off_c, 0, 77, 46
1, 564168, Control_c, 0, 64, 45
1, 564176, Note_off_c, 0, 73, 52
1, 564183, Control_c, 0, 64, 62
1, 564198, Control_c, 0, 64, 72
1, 564200, Note_on_c, 0, 53, 52
1, 564200, Note_on_c, 0, 72, 60
1, 564206, Note_on_c, 0, 81, 69
1, 564212, Control_c, 0, 64, 88
1, 564227, Control_c, 0, 64, 127
1, 564230, Note_off_c, 0, 72, 67
1, 564235, Note_off_c, 0, 81, 64
1, 564250, Note_off_c, 0, 53, 54
1, 564293, Poly_aftertouch_c, 0, 77, 127
1, 564328, Note_on_c, 0, 54, 25
1, 564337, Poly_aftertouch_c, 0, 77, 0
1, 564378, Note_off_c, 0, 54, 44
1, 564426, Note_on_c, 0, 84, 73
1, 564429, Poly_aftertouch_c, 0, 69, 0
1, 564439, Poly_aftertouch_c, 0, 77, 127
1, 564441, Note_off_c, 0, 84, 68
1, 564446, Note_on_c, 0, 53, 43
1, 564489, Poly_aftertouch_c, 0, 77, 0
1, 564495, Note_off_c, 0, 53, 48
1, 564539, Note_on_c, 0, 70, 51
1, 564541, Note_on_c, 0, 54, 30
1, 564562, Control_c, 0, 64, 117
1, 564571, Note_off_c, 0, 70, 59
1, 564577, Control_c, 0, 64, 81
1, 564581, Note_on_c, 0, 77, 55
1, 564591, Control_c, 0, 64, 63
1, 564606, Control_c, 0, 64, 48
1, 564621, Control_c, 0, 64, 51
1, 564623, Note_off_c, 0, 54, 36
1, 564635, Control_c, 0, 64, 58
1, 564640, Note_on_c, 0, 85, 80
1, 564650, Control_c, 0, 64, 64
1, 564665, Control_c, 0, 64, 71
1, 564680, Control_c, 0, 64, 85
1, 564691, Note_on_c, 0, 53, 3
1, 564695, Control_c, 0, 64, 127
1, 564697, Note_off_c, 0, 77, 38
1, 564735, Note_off_c, 0, 85, 62
1, 564748, Note_off_c, 0, 53, 40
1, 564766, Note_on_c, 0, 61, 43
1, 564838, Note_off_c, 0, 61, 46
1, 564841, Note_on_c, 0, 82, 76
1, 564866, Note_on_c, 0, 73, 54
1, 564867, Note_on_c, 0, 58, 58
1, 564870, Note_on_c, 0, 77, 46
1, 564898, Note_off_c, 0, 82, 62
1, 564904, Note_off_c, 0, 77, 60
1, 564953, Note_on_c, 0, 54, 54
1, 564977, Note_off_c, 0, 73, 53
1, 564978, Note_off_c, 0, 58, 38
1, 565007, Control_c, 0, 64, 85
1, 565022, Control_c, 0, 64, 64
1, 565022, Note_off_c, 0, 54, 47
1, 565037, Note_on_c, 0, 72, 59
1, 565043, Control_c, 0, 64, 51
1, 565051, Note_on_c, 0, 81, 74
1, 565058, Control_c, 0, 64, 58
1, 565064, Note_on_c, 0, 77, 60
1, 565065, Note_off_c, 0, 72, 67
1, 565073, Control_c, 0, 64, 68
1, 565081, Note_on_c, 0, 53, 51
1, 565083, Note_off_c, 0, 81, 63
1, 565088, Control_c, 0, 64, 83
1, 565103, Control_c, 0, 64, 127
1, 565128, Note_off_c, 0, 77, 61
1, 565152, Note_off_c, 0, 53, 47
1, 565176, Note_on_c, 0, 54, 47
1, 565193, Note_on_c, 0, 69, 32
1, 565220, Note_on_c, 0, 77, 59
1, 565226, Note_off_c, 0, 69, 46
1, 565248, Note_off_c, 0, 54, 51
1, 565264, Note_on_c, 0, 84, 86
1, 565278, Note_on_c, 0, 53, 62
1, 565296, Note_off_c, 0, 84, 53
1, 565340, Note_off_c, 0, 77, 64
1, 565370, Note_off_c, 0, 53, 49
1, 565377, Note_on_c, 0, 54, 52
1, 565400, Note_on_c, 0, 70, 50
1, 565416, Note_on_c, 0, 77, 50
1, 565423, Note_off_c, 0, 70, 63
1, 565445, Control_c, 0, 64, 99
1, 565459, Control_c, 0, 64, 71
1, 565474, Control_c, 0, 64, 53
1, 565489, Control_c, 0, 64, 34
1, 565498, Note_on_c, 0, 85, 71
1, 565503, Note_on_c, 0, 53, 44
1, 565504, Control_c, 0, 64, 43
1, 565519, Control_c, 0, 64, 52
1, 565533, Control_c, 0, 64, 57
1, 565548, Control_c, 0, 64, 67
1, 565550, Note_off_c, 0, 54, 27
1, 565563, Control_c, 0, 64, 81
1, 565576, Note_off_c, 0, 77, 34
1, 565578, Control_c, 0, 64, 127
1, 565589, Note_off_c, 0, 85, 61
1, 565616, Note_on_c, 0, 61, 51
1, 565650, Note_off_c, 0, 53, 36
1, 565682, Note_off_c, 0, 61, 46
1, 565722, Note_on_c, 0, 82, 55
1, 565726, Note_on_c, 0, 58, 49
1, 565726, Note_on_c, 0, 73, 50
1, 565744, Note_on_c, 0, 77, 37
1, 565792, Note_off_c, 0, 58, 52
1, 565802, Note_off_c, 0, 82, 60
1, 565819, Note_on_c, 0, 54, 50
1, 565914, Note_off_c, 0, 54, 43
1, 565927, Note_off_c, 0, 73, 37
1, 565935, Note_off_c, 0, 77, 0
1, 565941, Control_c, 0, 64, 94
1, 565955, Note_on_c, 0, 72, 44
1, 565955, Control_c, 0, 64, 70
1, 565967, Note_on_c, 0, 81, 50
1, 565970, Control_c, 0, 64, 53
1, 565973, Poly_aftertouch_c, 0, 77, 127
1, 565980, Note_on_c, 0, 53, 40
1, 565985, Control_c, 0, 64, 0
1, 566052, Note_off_c, 0, 81, 37
1, 566060, Control_c, 0, 64, 52
1, 566075, Control_c, 0, 64, 66
1, 566081, Note_off_c, 0, 53, 51
1, 566090, Control_c, 0, 64, 78
1, 566096, Note_on_c, 0, 54, 36
1, 566105, Control_c, 0, 64, 98
1, 566108, Note_off_c, 0, 72, 52
1, 566119, Control_c, 0, 64, 127
1, 566168, Poly_aftertouch_c, 0, 77, 0
1, 566224, Note_on_c, 0, 57, 43
1, 566240, Note_off_c, 0, 54, 34
1, 566322, Note_on_c, 0, 58, 59
1, 566342, Note_off_c, 0, 57, 56
1, 566361, Note_off_c, 0, 58, 62
1, 566429, Note_on_c, 0, 60, 61
1, 566538, Note_on_c, 0, 61, 69
1, 566568, Note_off_c, 0, 60, 48
1, 566644, Note_on_c, 0, 64, 66
1, 566660, Note_off_c, 0, 61, 56
1, 566745, Note_on_c, 0, 65, 67
1, 566778, Note_off_c, 0, 64, 51
1, 566815, Note_off_c, 0, 65, 52
1, 566883, Control_c, 0, 64, 103
1, 566897, Note_on_c, 0, 65, 42
1, 566897, Control_c, 0, 64, 76
1, 566912, Control_c, 0, 64, 59
1, 566927, Control_c, 0, 64, 0
1, 566986, Control_c, 0, 64, 53
1, 567001, Control_c, 0, 64, 65
1, 567016, Control_c, 0, 64, 74
1, 567030, Control_c, 0, 64, 86
1, 567045, Control_c, 0, 64, 108
1, 567048, Note_on_c, 0, 64, 46
1, 567060, Control_c, 0, 64, 127
1, 567073, Note_off_c, 0, 65, 31
1, 567131, Note_off_c, 0, 64, 50
1, 567154, Note_on_c, 0, 61, 53
1, 567221, Note_off_c, 0, 61, 48
1, 567260, Note_on_c, 0, 60, 56
1, 567311, Note_off_c, 0, 60, 54
1, 567362, Note_on_c, 0, 58, 56
1, 567401, Note_off_c, 0, 58, 62
1, 567455, Note_on_c, 0, 57, 64
1, 567486, Note_off_c, 0, 57, 67
1, 567498, Control_c, 0, 64, 114
1, 567512, Control_c, 0, 64, 81
1, 567527, Control_c, 0, 64, 64
1, 567542, Control_c, 0, 64, 37
1, 567556, Control_c, 0, 64, 37
1, 567571, Control_c, 0, 64, 49
1, 567577, Note_on_c, 0, 42, 11
1, 567586, Control_c, 0, 64, 61
1, 567601, Control_c, 0, 64, 69
1, 567607, Note_off_c, 0, 42, 52
1, 567607, Poly_aftertouch_c, 0, 36, 127
1, 567616, Control_c, 0, 64, 79
1, 567619, Note_on_c, 0, 54, 56
1, 567619, Note_on_c, 0, 65, 39
1, 567622, Poly_aftertouch_c, 0, 33, 127
1, 567631, Control_c, 0, 64, 90
1, 567634, Note_on_c, 0, 63, 39
1, 567646, Control_c, 0, 64, 97
1, 567655, Note_off_c, 0, 54, 53
1, 567657, Poly_aftertouch_c, 0, 36, 0
1, 567661, Control_c, 0, 64, 100
1, 567664, Poly_aftertouch_c, 0, 33, 0
1, 567694, Note_on_c, 0, 41, 39
1, 567710, Note_off_c, 0, 63, 46
1, 567731, Note_off_c, 0, 41, 49
1, 567734, Note_off_c, 0, 65, 40
1, 567735, Note_on_c, 0, 53, 49
1, 567735, Control_c, 0, 64, 102
1, 567787, Note_off_c, 0, 53, 56
1, 567825, Control_c, 0, 64, 95
1, 567839, Control_c, 0, 64, 79
1, 567854, Control_c, 0, 64, 65
1, 567869, Control_c, 0, 64, 47
1, 567874, Note_on_c, 0, 34, 39
1, 567884, Control_c, 0, 64, 0
1, 567898, Note_on_c, 0, 65, 52
1, 567899, Control_c, 0, 64, 39
1, 567914, Control_c, 0, 64, 53
1, 567918, Note_on_c, 0, 53, 29
1, 567923, Note_on_c, 0, 61, 32
1, 567923, Poly_aftertouch_c, 0, 41, 127
1, 567928, Control_c, 0, 64, 64
1, 567937, Note_off_c, 0, 34, 58
1, 567937, Note_off_c, 0, 65, 48
1, 567943, Control_c, 0, 64, 75
1, 567958, Control_c, 0, 64, 91
1, 567962, Note_off_c, 0, 61, 50
1, 567973, Control_c, 0, 64, 115
1, 567988, Control_c, 0, 64, 127
1, 568051, Poly_aftertouch_c, 0, 41, 0
1, 568106, Note_on_c, 0, 54, 38
1, 568110, Note_off_c, 0, 53, 37
1, 568114, Note_on_c, 0, 42, 41
1, 568171, Note_off_c, 0, 42, 57
1, 568183, Note_off_c, 0, 54, 37
1, 568212, Note_on_c, 0, 57, 46
1, 568218, Note_on_c, 0, 45, 47
1, 568279, Note_off_c, 0, 45, 59
1, 568309, Note_on_c, 0, 46, 58
1, 568315, Note_on_c, 0, 58, 54
1, 568330, Note_off_c, 0, 57, 59
1, 568355, Note_off_c, 0, 58, 64
1, 568373, Note_off_c, 0, 46, 61
1, 568415, Note_on_c, 0, 60, 67
1, 568425, Note_on_c, 0, 48, 59
1, 568508, Note_off_c, 0, 48, 56
1, 568512, Note_on_c, 0, 61, 77
1, 568518, Note_on_c, 0, 49, 57
1, 568540, Note_off_c, 0, 60, 58
1, 568608, Note_on_c, 0, 64, 74
1, 568612, Note_off_c, 0, 49, 59
1, 568620, Note_on_c, 0, 52, 62
1, 568627, Note_off_c, 0, 61, 56
1, 568693, Note_off_c, 0, 52, 60
1, 568706, Note_on_c, 0, 65, 75
1, 568715, Note_on_c, 0, 53, 57
1, 568737, Note_off_c, 0, 64, 58
1, 568758, Note_off_c, 0, 53, 58
1, 568770, Note_off_c, 0, 65, 62
1, 568803, Control_c, 0, 64, 90
1, 568817, Control_c, 0, 64, 68
1, 568832, Control_c, 0, 64, 47
1, 568844, Note_on_c, 0, 65, 71
1, 568847, Control_c, 0, 64, 0
1, 568862, Control_c, 0, 64, 43
1, 568865, Note_on_c, 0, 53, 51
1, 568877, Control_c, 0, 64, 61
1, 568892, Control_c, 0, 64, 72
1, 568907, Control_c, 0, 64, 90
1, 568921, Control_c, 0, 64, 127
1, 568948, Note_off_c, 0, 53, 45
1, 568950, Note_on_c, 0, 64, 70
1, 568972, Note_on_c, 0, 52, 62
1, 569031, Note_off_c, 0, 52, 54
1, 569050, Note_off_c, 0, 64, 58
1, 569062, Note_on_c, 0, 61, 72
1, 569062, Note_on_c, 0, 49, 59
1, 569076, Note_off_c, 0, 65, 25
1, 569093, Note_off_c, 0, 49, 65
1, 569127, Note_off_c, 0, 61, 57
1, 569147, Note_on_c, 0, 60, 65
1, 569148, Note_on_c, 0, 48, 51
1, 569185, Note_off_c, 0, 48, 64
1, 569214, Note_off_c, 0, 60, 60
1, 569232, Control_c, 0, 64, 91
1, 569247, Control_c, 0, 64, 66
1, 569263, Control_c, 0, 64, 39
1, 569275, Note_on_c, 0, 65, 80
1, 569278, Control_c, 0, 64, 0
1, 569279, Note_on_c, 0, 36, 48
1, 569282, Note_on_c, 0, 58, 77
1, 569285, Note_on_c, 0, 46, 75
1, 569285, Note_on_c, 0, 63, 74
1, 569288, Note_on_c, 0, 39, 54
1, 569293, Control_c, 0, 64, 57
1, 569307, Control_c, 0, 64, 72
1, 569322, Control_c, 0, 64, 99
1, 569337, Control_c, 0, 64, 127
1, 569342, Note_off_c, 0, 46, 56
1, 569368, Note_off_c, 0, 36, 49
1, 569372, Note_off_c, 0, 65, 60
1, 569377, Note_off_c, 0, 58, 58
1, 569380, Note_off_c, 0, 63, 60
1, 569380, Note_off_c, 0, 39, 53
1, 569402, Note_on_c, 0, 57, 65
1, 569411, Note_on_c, 0, 45, 59
1, 569458, Note_off_c, 0, 45, 58
1, 569508, Note_off_c, 0, 57, 36
1, 569510, Note_on_c, 0, 42, 59
1, 569513, Note_on_c, 0, 54, 60
1, 569556, Note_off_c, 0, 54, 63
1, 569578, Note_off_c, 0, 42, 59
1, 569613, Note_on_c, 0, 53, 52
1, 569626, Note_on_c, 0, 41, 33
1, 569661, Note_off_c, 0, 53, 55
1, 569675, Note_off_c, 0, 41, 44
1, 569729, Control_c, 0, 64, 85
1, 569744, Control_c, 0, 64, 61
1, 569759, Control_c, 0, 64, 0
1, 569765, Note_on_c, 0, 65, 70
1, 569774, Note_on_c, 0, 61, 58
1, 569780, Note_on_c, 0, 53, 49
1, 569783, Note_on_c, 0, 37, 37
1, 569789, Control_c, 0, 64, 39
1, 569803, Note_on_c, 0, 41, 40
1, 569804, Control_c, 0, 64, 59
1, 569819, Control_c, 0, 64, 71
1, 569828, Note_off_c, 0, 65, 61
1, 569829, Note_off_c, 0, 61, 53
1, 569833, Control_c, 0, 64, 102
1, 569848, Control_c, 0, 64, 127
1, 569912, Note_off_c, 0, 41, 54
1, 569926, Note_on_c, 0, 42, 59
1, 569930, Note_off_c, 0, 53, 58
1, 569934, Note_off_c, 0, 37, 35
1, 569939, Note_on_c, 0, 54, 59
1, 569986, Note_off_c, 0, 42, 62
1, 570017, Note_off_c, 0, 54, 59
1, 570033, Note_on_c, 0, 57, 67
1, 570042, Note_on_c, 0, 45, 53
1, 570110, Note_off_c, 0, 45, 49
1, 570125, Note_on_c, 0, 58, 74
1, 570130, Note_on_c, 0, 46, 66
1, 570162, Note_off_c, 0, 57, 62
1, 570192, Note_off_c, 0, 58, 63
1, 570218, Note_off_c, 0, 46, 61
1, 570224, Note_on_c, 0, 60, 83
1, 570250, Note_on_c, 0, 48, 62
1, 570338, Note_on_c, 0, 49, 68
1, 570342, Note_on_c, 0, 62, 76
1, 570370, Note_off_c, 0, 60, 61
1, 570416, Note_off_c, 0, 48, 25
1, 570424, Note_on_c, 0, 64, 75
1, 570430, Note_on_c, 0, 52, 74
1, 570435, Note_off_c, 0, 62, 61
1, 570437, Note_off_c, 0, 49, 61
1, 570523, Note_off_c, 0, 52, 56
1, 570527, Note_on_c, 0, 53, 66
1, 570531, Note_on_c, 0, 65, 83
1, 570540, Note_off_c, 0, 64, 61
1, 570572, Note_off_c, 0, 53, 57
1, 570587, Note_off_c, 0, 65, 63
1, 570627, Control_c, 0, 64, 110
1, 570641, Control_c, 0, 64, 74
1, 570646, Note_on_c, 0, 65, 87
1, 570656, Control_c, 0, 64, 53
1, 570671, Control_c, 0, 64, 0
1, 570674, Note_on_c, 0, 53, 57
1, 570686, Control_c, 0, 64, 33
1, 570701, Control_c, 0, 64, 55
1, 570716, Control_c, 0, 64, 68
1, 570730, Control_c, 0, 64, 91
1, 570739, Note_off_c, 0, 53, 44
1, 570741, Note_on_c, 0, 64, 79
1, 570745, Control_c, 0, 64, 127
1, 570754, Note_on_c, 0, 52, 67
1, 570830, Note_off_c, 0, 52, 60
1, 570841, Note_on_c, 0, 49, 67
1, 570847, Note_on_c, 0, 61, 86
1, 570861, Note_off_c, 0, 64, 60
1, 570875, Note_off_c, 0, 65, 56
1, 570883, Note_off_c, 0, 49, 61
1, 570923, Note_off_c, 0, 61, 60
1, 570929, Note_on_c, 0, 60, 71
1, 570941, Note_on_c, 0, 48, 61
1, 570979, Note_off_c, 0, 60, 61
1, 570986, Note_off_c, 0, 48, 58
1, 571065, Control_c, 0, 64, 91
1, 571079, Control_c, 0, 64, 64
1, 571080, Note_on_c, 0, 59, 89
1, 571086, Note_on_c, 0, 47, 91
1, 571089, Note_on_c, 0, 65, 77
1, 571092, Note_on_c, 0, 44, 79
1, 571093, Note_on_c, 0, 53, 92
1, 571094, Control_c, 0, 64, 0
1, 571098, Note_on_c, 0, 38, 72
1, 571124, Control_c, 0, 64, 55
1, 571138, Note_off_c, 0, 65, 58
1, 571139, Control_c, 0, 64, 69
1, 571153, Control_c, 0, 64, 91
1, 571162, Note_off_c, 0, 47, 60
1, 571168, Control_c, 0, 64, 127
1, 571172, Note_off_c, 0, 38, 61
1, 571174, Note_off_c, 0, 53, 51
1, 571192, Poly_aftertouch_c, 0, 62, 127
1, 571195, Note_off_c, 0, 44, 62
1, 571223, Note_on_c, 0, 56, 73
1, 571226, Poly_aftertouch_c, 0, 62, 0
1, 571236, Note_on_c, 0, 41, 53
1, 571307, Note_off_c, 0, 56, 59
1, 571321, Note_off_c, 0, 41, 59
1, 571332, Note_on_c, 0, 42, 60
1, 571332, Note_on_c, 0, 55, 63
1, 571345, Note_off_c, 0, 59, 53
1, 571389, Note_off_c, 0, 42, 60
1, 571424, Note_on_c, 0, 54, 63
1, 571433, Note_on_c, 0, 43, 56
1, 571437, Note_off_c, 0, 55, 60
1, 571455, Note_off_c, 0, 54, 65
1, 571462, Note_off_c, 0, 43, 61
1, 571583, Control_c, 0, 64, 86
1, 571592, Note_on_c, 0, 59, 74
1, 571596, Note_on_c, 0, 65, 75
1, 571597, Control_c, 0, 64, 64
1, 571607, Note_on_c, 0, 53, 69
1, 571610, Note_on_c, 0, 44, 67
1, 571612, Control_c, 0, 64, 0
1, 571614, Note_on_c, 0, 47, 54
1, 571618, Note_on_c, 0, 38, 57
1, 571629, Note_on_c, 0, 48, 48
1, 571629, Note_off_c, 0, 53, 62
1, 571643, Control_c, 0, 64, 43
1, 571645, Note_off_c, 0, 47, 55
1, 571658, Note_off_c, 0, 48, 57
1, 571658, Control_c, 0, 64, 63
1, 571661, Note_off_c, 0, 65, 61
1, 571673, Control_c, 0, 64, 79
1, 571680, Note_off_c, 0, 38, 55
1, 571688, Control_c, 0, 64, 127
1, 571700, Note_off_c, 0, 44, 61
1, 571715, Note_on_c, 0, 56, 72
1, 571724, Note_on_c, 0, 41, 59
1, 571798, Note_off_c, 0, 56, 60
1, 571816, Note_off_c, 0, 41, 60
1, 571824, Note_on_c, 0, 42, 63
1, 571828, Note_on_c, 0, 55, 69
1, 571850, Note_off_c, 0, 59, 37
1, 571873, Note_off_c, 0, 42, 60
1, 571898, Note_on_c, 0, 43, 73
1, 571902, Note_on_c, 0, 54, 72
1, 571911, Note_off_c, 0, 55, 62
1, 571930, Note_off_c, 0, 43, 63
1, 571930, Note_off_c, 0, 54, 66
1, 571991, Control_c, 0, 64, 89
1, 571998, Note_on_c, 0, 60, 95
1, 572002, Note_on_c, 0, 53, 100
1, 572005, Note_on_c, 0, 48, 100
1, 572006, Control_c, 0, 64, 60
1, 572010, Note_on_c, 0, 44, 86
1, 572012, Note_on_c, 0, 65, 76
1, 572021, Control_c, 0, 64, 0
1, 572025, Note_on_c, 0, 38, 63
1, 572035, Control_c, 0, 64, 57
1, 572050, Control_c, 0, 64, 76
1, 572051, Note_on_c, 0, 62, 42
1, 572054, Note_on_c, 0, 45, 36
1, 572060, Note_off_c, 0, 65, 50
1, 572065, Control_c, 0, 64, 127
1, 572066, Note_off_c, 0, 38, 60
1, 572068, Note_off_c, 0, 53, 56
1, 572080, Note_off_c, 0, 48, 58
1, 572090, Note_off_c, 0, 45, 60
1, 572092, Note_off_c, 0, 44, 62
1, 572107, Note_off_c, 0, 62, 40
1, 572120, Note_on_c, 0, 56, 79
1, 572123, Poly_aftertouch_c, 0, 40, 0
1, 572133, Note_on_c, 0, 41, 57
1, 572199, Note_on_c, 0, 42, 69
1, 572205, Note_off_c, 0, 56, 60
1, 572215, Note_off_c, 0, 41, 60
1, 572227, Note_on_c, 0, 55, 80
1, 572239, Note_off_c, 0, 60, 58
1, 572266, Note_off_c, 0, 42, 60
1, 572287, Note_on_c, 0, 43, 60
1, 572312, Note_off_c, 0, 43, 60
1, 572325, Note_off_c, 0, 55, 59
1, 572326, Note_on_c, 0, 54, 69
1, 572339, Note_on_c, 0, 35, 62
1, 572355, Note_off_c, 0, 54, 66
1, 572374, Note_off_c, 0, 35, 62
1, 572421, Control_c, 0, 64, 84
1, 572427, Note_on_c, 0, 62, 96
1, 572429, Note_on_c, 0, 53, 102
1, 572430, Note_on_c, 0, 44, 89
1, 572431, Note_on_c, 0, 50, 100
1, 572436, Note_on_c, 0, 65, 92
1, 572436, Control_c, 0, 64, 49
1, 572451, Control_c, 0, 64, 0
1, 572481, Note_off_c, 0, 50, 58
1, 572481, Control_c, 0, 64, 56
1, 572490, Note_off_c, 0, 65, 61
1, 572496, Control_c, 0, 64, 89
1, 572497, Note_off_c, 0, 53, 57
1, 572504, Poly_aftertouch_c, 0, 41, 0
1, 572508, Poly_aftertouch_c, 0, 60, 127
1, 572511, Control_c, 0, 64, 127
1, 572525, Poly_aftertouch_c, 0, 41, 0
1, 572531, Poly_aftertouch_c, 0, 43, 127
1, 572532, Note_off_c, 0, 44, 60
1, 572543, Note_on_c, 0, 41, 34
1, 572549, Poly_aftertouch_c, 0, 60, 0
1, 572558, Note_on_c, 0, 56, 75
1, 572563, Poly_aftertouch_c, 0, 43, 0
1, 572631, Note_off_c, 0, 62, 52
1, 572636, Note_off_c, 0, 56, 59
1, 572651, Note_off_c, 0, 41, 56
1, 572655, Note_on_c, 0, 42, 70
1, 572659, Note_on_c, 0, 55, 70
1, 572713, Note_off_c, 0, 42, 62
1, 572744, Note_on_c, 0, 43, 73
1, 572746, Note_on_c, 0, 54, 75
1, 572760, Note_off_c, 0, 55, 60
1, 572794, Note_off_c, 0, 43, 52
1, 572802, Note_off_c, 0, 54, 60
1, 572863, Note_on_c, 0, 53, 85
1, 572877, Note_on_c, 0, 50, 81
1, 572889, Note_on_c, 0, 44, 63
1, 572917, Note_off_c, 0, 53, 56
1, 572930, Note_off_c, 0, 44, 52
1, 572948, Control_c, 0, 64, 85
1, 572960, Note_off_c, 0, 50, 57
1, 572963, Note_on_c, 0, 56, 78
1, 572963, Control_c, 0, 64, 58
1, 572964, Note_on_c, 0, 41, 75
1, 572977, Control_c, 0, 64, 0
1, 573030, Note_off_c, 0, 56, 61
1, 573056, Note_off_c, 0, 41, 48
1, 573061, Note_on_c, 0, 50, 76
1, 573062, Note_on_c, 0, 44, 75
1, 573068, Note_on_c, 0, 52, 79
1, 573072, Note_on_c, 0, 64, 68
1, 573082, Note_on_c, 0, 62, 59
1, 573084, Note_off_c, 0, 50, 65
1, 573122, Note_off_c, 0, 52, 58
1, 573130, Note_off_c, 0, 44, 63
1, 573168, Note_on_c, 0, 56, 74
1, 573170, Note_off_c, 0, 62, 31
1, 573178, Note_off_c, 0, 64, 54
1, 573223, Note_on_c, 0, 35, 48
1, 573240, Note_off_c, 0, 56, 60
1, 573256, Note_off_c, 0, 35, 61
1, 573256, Note_on_c, 0, 40, 80
1, 573283, Note_on_c, 0, 49, 107
1, 573286, Note_off_c, 0, 40, 66
1, 573288, Note_on_c, 0, 57, 105
1, 573297, Control_c, 0, 64, 88
1, 573300, Note_off_c, 0, 49, 73
1, 573312, Control_c, 0, 64, 127
1, 573388, Note_off_c, 0, 57, 61
1, 573395, Note_on_c, 0, 58, 61
1, 573408, Poly_aftertouch_c, 0, 64, 0
1, 573431, Note_off_c, 0, 58, 46
1, 573440, Poly_aftertouch_c, 0, 64, 0
1, 573527, Note_on_c, 0, 57, 50
1, 573564, Note_off_c, 0, 57, 56
1, 573613, Note_on_c, 0, 58, 57
1, 573622, Control_c, 0, 64, 92
1, 573637, Control_c, 0, 64, 75
1, 573652, Control_c, 0, 64, 61
1, 573667, Control_c, 0, 64, 0
1, 573689, Note_off_c, 0, 58, 48
1, 573742, Note_on_c, 0, 69, 60
1, 573753, Note_on_c, 0, 64, 34
1, 573760, Note_on_c, 0, 61, 42
1, 573765, Note_off_c, 0, 69, 63
1, 573773, Note_on_c, 0, 57, 43
1, 573785, Note_off_c, 0, 64, 57
1, 573786, Control_c, 0, 64, 43
1, 573789, Note_off_c, 0, 61, 56
1, 573800, Control_c, 0, 64, 66
1, 573815, Control_c, 0, 64, 82
1, 573819, Note_off_c, 0, 57, 56
1, 573830, Control_c, 0, 64, 114
1, 573845, Control_c, 0, 64, 127
1, 573871, Note_on_c, 0, 62, 41
1, 573908, Note_off_c, 0, 62, 56
1, 573952, Note_on_c, 0, 61, 64
1, 573959, Note_on_c, 0, 64, 32
1, 573962, Note_on_c, 0, 69, 43
1, 573991, Note_off_c, 0, 69, 52
1, 574001, Note_off_c, 0, 64, 47
1, 574067, Note_on_c, 0, 58, 58
1, 574075, Note_on_c, 0, 69, 46
1, 574105, Note_off_c, 0, 69, 52
1, 574109, Note_off_c, 0, 58, 58
1, 574120, Control_c, 0, 64, 72
1, 574133, Note_off_c, 0, 61, 19
1, 574135, Control_c, 0, 64, 38
1, 574149, Control_c, 0, 64, 0
1, 574166, Note_on_c, 0, 74, 65
1, 574183, Note_on_c, 0, 57, 53
1, 574189, Note_off_c, 0, 74, 61
1, 574212, Note_off_c, 0, 57, 59
1, 574273, Note_on_c, 0, 58, 43
1, 574325, Note_off_c, 0, 58, 59
1, 574385, Note_on_c, 0, 74, 56
1, 574391, Note_on_c, 0, 65, 55
1, 574405, Note_on_c, 0, 69, 24
1, 574406, Note_off_c, 0, 74, 60
1, 574410, Note_on_c, 0, 57, 45
1, 574419, Note_off_c, 0, 65, 58
1, 574439, Note_off_c, 0, 69, 45
1, 574454, Note_off_c, 0, 57, 47
1, 574483, Note_on_c, 0, 58, 43
1, 574542, Note_off_c, 0, 58, 55
1, 574582, Note_on_c, 0, 74, 62
1, 574587, Note_on_c, 0, 65, 51
1, 574593, Control_c, 0, 64, 67
1, 574594, Note_on_c, 0, 69, 41
1, 574599, Note_on_c, 0, 57, 51
1, 574601, Note_off_c, 0, 74, 62
1, 574608, Control_c, 0, 64, 91
1, 574612, Note_off_c, 0, 65, 62
1, 574622, Note_off_c, 0, 69, 51
1, 574622, Control_c, 0, 64, 127
1, 574665, Note_off_c, 0, 57, 45
1, 574690, Note_on_c, 0, 62, 47
1, 574728, Note_off_c, 0, 62, 62
1, 574788, Note_on_c, 0, 77, 54
1, 574798, Note_on_c, 0, 69, 49
1, 574808, Control_c, 0, 64, 94
1, 574809, Note_off_c, 0, 77, 63
1, 574814, Note_on_c, 0, 61, 40
1, 574822, Control_c, 0, 64, 62
1, 574837, Control_c, 0, 64, 0
1, 574845, Note_off_c, 0, 61, 50
1, 574877, Note_on_c, 0, 58, 60
1, 574898, Note_on_c, 0, 65, 40
1, 574901, Note_on_c, 0, 74, 56
1, 574920, Note_off_c, 0, 58, 58
1, 574921, Note_off_c, 0, 74, 61
1, 574927, Note_off_c, 0, 65, 57
1, 574972, Note_on_c, 0, 73, 82
1, 574978, Note_on_c, 0, 64, 57
1, 574993, Note_off_c, 0, 73, 70
1, 575000, Note_on_c, 0, 57, 50
1, 575005, Note_off_c, 0, 69, 50
1, 575006, Note_off_c, 0, 64, 65
1, 575027, Note_off_c, 0, 57, 62
1, 575084, Note_on_c, 0, 58, 49
1, 575136, Note_off_c, 0, 58, 56
1, 575182, Note_on_c, 0, 69, 73
1, 575193, Note_on_c, 0, 61, 52
1, 575196, Note_on_c, 0, 64, 20
1, 575206, Note_off_c, 0, 69, 68
1, 575219, Note_off_c, 0, 61, 54
1, 575232, Note_on_c, 0, 57, 43
1, 575243, Note_off_c, 0, 64, 48
1, 575268, Note_off_c, 0, 57, 49
1, 575298, Note_on_c, 0, 58, 56
1, 575351, Note_off_c, 0, 58, 56
1, 575391, Note_on_c, 0, 81, 84
1, 575401, Control_c, 0, 64, 51
1, 575404, Note_on_c, 0, 73, 66
1, 575411, Note_off_c, 0, 81, 69
1, 575416, Control_c, 0, 64, 79
1, 575420, Note_on_c, 0, 76, 42
1, 575428, Note_on_c, 0, 57, 53
1, 575430, Note_off_c, 0, 73, 68
1, 575431, Control_c, 0, 64, 119
1, 575445, Control_c, 0, 64, 127
1, 575448, Note_off_c, 0, 76, 48
1, 575464, Note_off_c, 0, 57, 55
1, 575520, Note_on_c, 0, 62, 51
1, 575551, Note_off_c, 0, 62, 62
1, 575601, Note_on_c, 0, 81, 73
1, 575604, Note_on_c, 0, 73, 67
1, 575611, Note_on_c, 0, 76, 55
1, 575616, Note_on_c, 0, 61, 57
1, 575617, Note_off_c, 0, 81, 68
1, 575629, Note_off_c, 0, 73, 66
1, 575637, Note_off_c, 0, 76, 65
1, 575651, Note_off_c, 0, 61, 61
1, 575688, Note_on_c, 0, 81, 81
1, 575704, Note_on_c, 0, 58, 64
1, 575712, Note_off_c, 0, 81, 69
1, 575739, Note_off_c, 0, 58, 61
1, 575750, Control_c, 0, 64, 83
1, 575765, Control_c, 0, 64, 60
1, 575777, Poly_aftertouch_c, 0, 73, 0
1, 575780, Control_c, 0, 64, 0
1, 575792, Note_on_c, 0, 86, 74
1, 575793, Note_on_c, 0, 77, 62
1, 575795, Note_on_c, 0, 57, 71
1, 575821, Note_off_c, 0, 86, 61
1, 575825, Note_off_c, 0, 77, 53
1, 575827, Note_off_c, 0, 57, 63
1, 575849, Note_on_c, 0, 81, 5
1, 575867, Note_off_c, 0, 81, 43
1, 575892, Note_on_c, 0, 58, 51
1, 575933, Note_off_c, 0, 58, 63
1, 575992, Note_on_c, 0, 86, 77
1, 575999, Note_on_c, 0, 77, 70
1, 576001, Note_on_c, 0, 81, 64
1, 576019, Note_off_c, 0, 86, 61
1, 576021, Note_on_c, 0, 57, 52
1, 576025, Note_off_c, 0, 77, 65
1, 576028, Note_off_c, 0, 81, 61
1, 576052, Note_off_c, 0, 57, 55
1, 576095, Note_on_c, 0, 58, 49
1, 576143, Note_off_c, 0, 58, 60
1, 576165, Control_c, 0, 64, 36
1, 576180, Control_c, 0, 64, 63
1, 576192, Note_on_c, 0, 77, 65
1, 576194, Note_on_c, 0, 86, 72
1, 576194, Control_c, 0, 64, 80
1, 576203, Note_on_c, 0, 81, 56
1, 576209, Control_c, 0, 64, 109
1, 576216, Note_off_c, 0, 86, 69
1, 576224, Note_on_c, 0, 57, 43
1, 576224, Control_c, 0, 64, 127
1, 576234, Note_off_c, 0, 77, 55
1, 576250, Note_off_c, 0, 81, 45
1, 576275, Note_off_c, 0, 57, 46
1, 576321, Note_on_c, 0, 62, 28
1, 576362, Note_off_c, 0, 62, 42
1, 576377, Note_on_c, 0, 89, 84
1, 576399, Note_on_c, 0, 82, 36
1, 576400, Note_on_c, 0, 61, 56
1, 576401, Note_off_c, 0, 89, 60
1, 576433, Note_off_c, 0, 61, 62
1, 576435, Note_off_c, 0, 82, 31
1, 576454, Control_c, 0, 64, 84
1, 576469, Control_c, 0, 64, 64
1, 576481, Note_on_c, 0, 58, 61
1, 576484, Control_c, 0, 64, 0
1, 576490, Note_on_c, 0, 86, 72
1, 576514, Note_off_c, 0, 58, 64
1, 576514, Note_on_c, 0, 77, 37
1, 576517, Note_off_c, 0, 86, 65
1, 576518, Note_on_c, 0, 81, 23
1, 576542, Note_off_c, 0, 77, 59
1, 576543, Control_c, 0, 64, 44
1, 576553, Note_off_c, 0, 81, 57
1, 576558, Control_c, 0, 64, 64
1, 576573, Control_c, 0, 64, 76
1, 576588, Control_c, 0, 64, 95
1, 576591, Note_on_c, 0, 57, 59
1, 576592, Note_on_c, 0, 76, 64
1, 576593, Note_on_c, 0, 85, 77
1, 576603, Control_c, 0, 64, 127
1, 576618, Note_off_c, 0, 57, 59
1, 576621, Note_off_c, 0, 85, 61
1, 576622, Note_off_c, 0, 76, 63
1, 576693, Note_on_c, 0, 58, 40
1, 576728, Note_off_c, 0, 58, 55
1, 576737, Note_on_c, 0, 73, 61
1, 576766, Note_off_c, 0, 73, 67
1, 576792, Note_on_c, 0, 81, 54
1, 576813, Note_on_c, 0, 88, 81
1, 576816, Note_off_c, 0, 81, 55
1, 576817, Note_on_c, 0, 57, 41
1, 576841, Note_off_c, 0, 88, 59
1, 576857, Note_off_c, 0, 57, 48
1, 576886, Note_on_c, 0, 58, 42
1, 576928, Note_on_c, 0, 74, 55
1, 576942, Control_c, 0, 64, 103
1, 576952, Note_off_c, 0, 74, 61
1, 576957, Control_c, 0, 64, 76
1, 576972, Control_c, 0, 64, 61
1, 576979, Note_off_c, 0, 58, 33
1, 576987, Note_on_c, 0, 81, 52
1, 576987, Control_c, 0, 64, 42
1, 577002, Control_c, 0, 64, 49
1, 577024, Control_c, 0, 64, 59
1, 577038, Control_c, 0, 64, 66
1, 577041, Note_on_c, 0, 57, 41
1, 577053, Control_c, 0, 64, 74
1, 577068, Control_c, 0, 64, 88
1, 577081, Note_on_c, 0, 89, 72
1, 577083, Control_c, 0, 64, 109
1, 577098, Control_c, 0, 64, 127
1, 577125, Note_off_c, 0, 89, 46
1, 577126, Note_off_c, 0, 57, 48
1, 577162, Note_on_c, 0, 65, 47
1, 577214, Note_off_c, 0, 81, 36
1, 577223, Note_off_c, 0, 65, 50
1, 577274, Note_on_c, 0, 62, 48
1, 577280, Note_on_c, 0, 86, 72
1, 577286, Note_on_c, 0, 81, 54
1, 577290, Note_on_c, 0, 77, 56
1, 577305, Note_off_c, 0, 86, 63
1, 577324, Note_off_c, 0, 62, 55
1, 577341, Note_off_c, 0, 77, 50
1, 577342, Note_off_c, 0, 81, 56
1, 577367, Note_on_c, 0, 58, 48
1, 577420, Note_off_c, 0, 58, 56
1, 577439, Control_c, 0, 64, 90
1, 577454, Control_c, 0, 64, 66
1, 577463, Note_on_c, 0, 76, 55
1, 577464, Note_on_c, 0, 85, 76
1, 577469, Control_c, 0, 64, 51
1, 577474, Note_on_c, 0, 81, 66
1, 577484, Control_c, 0, 64, 54
1, 577487, Note_off_c, 0, 85, 69
1, 577489, Note_off_c, 0, 76, 65
1, 577492, Note_on_c, 0, 57, 49
1, 577498, Control_c, 0, 64, 65
1, 577513, Control_c, 0, 64, 75
1, 577522, Note_off_c, 0, 81, 56
1, 577528, Control_c, 0, 64, 95
1, 577534, Note_off_c, 0, 57, 51
1, 577543, Control_c, 0, 64, 127
1, 577593, Note_on_c, 0, 58, 40
1, 577598, Note_on_c, 0, 73, 58
1, 577627, Note_off_c, 0, 73, 66
1, 577634, Note_on_c, 0, 81, 66
1, 577637, Note_off_c, 0, 58, 55
1, 577668, Note_on_c, 0, 88, 83
1, 577685, Note_on_c, 0, 57, 51
1, 577690, Note_off_c, 0, 88, 65
1, 577727, Note_off_c, 0, 57, 58
1, 577783, Note_on_c, 0, 58, 42
1, 577792, Note_on_c, 0, 74, 59
1, 577808, Note_off_c, 0, 81, 0
1, 577814, Note_off_c, 0, 74, 61
1, 577824, Note_on_c, 0, 81, 43
1, 577833, Control_c, 0, 64, 92
1, 577847, Control_c, 0, 64, 71
1, 577862, Control_c, 0, 64, 55
1, 577877, Control_c, 0, 64, 36
1, 577891, Control_c, 0, 64, 41
1, 577906, Control_c, 0, 64, 54
1, 577918, Note_off_c, 0, 58, 34
1, 577921, Control_c, 0, 64, 63
1, 577927, Note_on_c, 0, 57, 45
1, 577933, Note_on_c, 0, 89, 68
1, 577936, Control_c, 0, 64, 72
1, 577951, Note_off_c, 0, 81, 38
1, 577951, Control_c, 0, 64, 88
1, 577966, Control_c, 0, 64, 127
1, 578003, Note_off_c, 0, 89, 60
1, 578007, Note_off_c, 0, 57, 51
1, 578041, Note_on_c, 0, 65, 50
1, 578121, Note_off_c, 0, 65, 52
1, 578166, Note_on_c, 0, 62, 43
1, 578168, Note_on_c, 0, 86, 55
1, 578180, Note_on_c, 0, 77, 47
1, 578186, Note_on_c, 0, 81, 34
1, 578211, Note_off_c, 0, 86, 59
1, 578228, Note_off_c, 0, 77, 59
1, 578231, Note_off_c, 0, 62, 53
1, 578259, Note_off_c, 0, 81, 41
1, 578272, Note_on_c, 0, 58, 37
1, 578337, Control_c, 0, 64, 101
1, 578352, Control_c, 0, 64, 77
1, 578364, Note_off_c, 0, 58, 38
1, 578367, Control_c, 0, 64, 62
1, 578382, Control_c, 0, 64, 43
1, 578396, Note_on_c, 0, 81, 38
1, 578396, Control_c, 0, 64, 43
1, 578401, Note_on_c, 0, 57, 40
1, 578404, Note_on_c, 0, 76, 37
1, 578404, Note_on_c, 0, 85, 50
1, 578411, Control_c, 0, 64, 53
1, 578426, Control_c, 0, 64, 62
1, 578441, Control_c, 0, 64, 68
1, 578456, Control_c, 0, 64, 76
1, 578470, Control_c, 0, 64, 91
1, 578482, Note_off_c, 0, 76, 55
1, 578482, Note_off_c, 0, 85, 54
1, 578484, Note_off_c, 0, 57, 40
1, 578485, Control_c, 0, 64, 127
1, 578505, Note_on_c, 0, 58, 40
1, 578535, Note_off_c, 0, 81, 42
1, 578593, Note_off_c, 0, 58, 52
1, 578624, Note_on_c, 0, 61, 37
1, 578663, Note_off_c, 0, 61, 54
1, 578726, Note_on_c, 0, 62, 46
1, 578838, Note_on_c, 0, 64, 51
1, 578849, Note_off_c, 0, 62, 37
1, 578958, Note_on_c, 0, 65, 60
1, 579042, Note_off_c, 0, 64, 39
1, 579061, Note_on_c, 0, 68, 66
1, 579107, Note_off_c, 0, 65, 53
1, 579147, Note_on_c, 0, 69, 57
1, 579185, Note_off_c, 0, 68, 48
1, 579220, Note_off_c, 0, 69, 49
1, 579295, Note_on_c, 0, 69, 27
1, 579301, Control_c, 0, 64, 90
1, 579316, Control_c, 0, 64, 72
1, 579331, Control_c, 0, 64, 62
1, 579345, Control_c, 0, 64, 57
1, 579360, Control_c, 0, 64, 60
1, 579375, Control_c, 0, 64, 65
1, 579390, Control_c, 0, 64, 73
1, 579405, Control_c, 0, 64, 89
1, 579419, Control_c, 0, 64, 127
1, 579451, Note_on_c, 0, 68, 46
1, 579584, Note_on_c, 0, 65, 50
1, 579584, Note_off_c, 0, 69, 40
1, 579623, Note_off_c, 0, 68, 35
1, 579677, Note_on_c, 0, 64, 48
1, 579730, Note_off_c, 0, 64, 57
1, 579745, Note_off_c, 0, 65, 35
1, 579776, Note_on_c, 0, 62, 56
1, 579855, Note_off_c, 0, 62, 54
1, 579873, Note_on_c, 0, 61, 60
1, 579909, Note_off_c, 0, 61, 64
1, 579950, Note_on_c, 0, 37, 49
1, 579962, Note_on_c, 0, 40, 44
1, 579985, Note_on_c, 0, 58, 51
1, 579990, Note_on_c, 0, 46, 32
1, 579996, Note_on_c, 0, 69, 41
1, 580018, Note_off_c, 0, 58, 59
1, 580019, Note_off_c, 0, 40, 54
1, 580034, Note_off_c, 0, 37, 51
1, 580040, Note_off_c, 0, 46, 51
1, 580052, Poly_aftertouch_c, 0, 67, 127
1, 580053, Note_off_c, 0, 69, 50
1, 580087, Poly_aftertouch_c, 0, 67, 0
1, 580088, Note_on_c, 0, 57, 58
1, 580097, Note_on_c, 0, 45, 49
1, 580133, Note_off_c, 0, 45, 55
1, 580147, Note_off_c, 0, 57, 49
1, 580168, Control_c, 0, 64, 81
1, 580183, Control_c, 0, 64, 62
1, 580198, Control_c, 0, 64, 0
1, 580226, Note_on_c, 0, 38, 37
1, 580237, Note_on_c, 0, 41, 35
1, 580242, Control_c, 0, 64, 58
1, 580246, Note_on_c, 0, 69, 46
1, 580257, Control_c, 0, 64, 70
1, 580258, Note_on_c, 0, 57, 48
1, 580266, Note_on_c, 0, 65, 33
1, 580272, Note_off_c, 0, 41, 60
1, 580272, Control_c, 0, 64, 85
1, 580276, Note_off_c, 0, 69, 53
1, 580280, Note_on_c, 0, 45, 35
1, 580283, Note_off_c, 0, 38, 57
1, 580286, Control_c, 0, 64, 117
1, 580299, Note_off_c, 0, 65, 47
1, 580301, Control_c, 0, 64, 127
1, 580377, Note_off_c, 0, 57, 50
1, 580390, Note_off_c, 0, 45, 37
1, 580413, Note_on_c, 0, 58, 52
1, 580435, Note_on_c, 0, 46, 42
1, 580497, Note_off_c, 0, 46, 58
1, 580519, Note_off_c, 0, 58, 56
1, 580531, Note_on_c, 0, 61, 52
1, 580544, Note_on_c, 0, 49, 45
1, 580577, Note_off_c, 0, 61, 59
1, 580595, Note_off_c, 0, 49, 61
1, 580626, Note_on_c, 0, 62, 56
1, 580642, Note_on_c, 0, 50, 49
1, 580695, Note_off_c, 0, 50, 52
1, 580723, Note_on_c, 0, 64, 64
1, 580741, Note_on_c, 0, 52, 58
1, 580749, Note_off_c, 0, 62, 51
1, 580845, Note_on_c, 0, 65, 72
1, 580869, Note_on_c, 0, 53, 59
1, 580879, Note_off_c, 0, 52, 54
1, 580912, Note_off_c, 0, 64, 59
1, 580938, Note_off_c, 0, 53, 61
1, 580945, Note_on_c, 0, 68, 70
1, 580949, Note_on_c, 0, 56, 66
1, 581017, Note_off_c, 0, 56, 56
1, 581026, Note_off_c, 0, 65, 49
1, 581039, Note_on_c, 0, 69, 64
1, 581042, Note_on_c, 0, 57, 65
1, 581079, Note_off_c, 0, 68, 58
1, 581090, Note_off_c, 0, 57, 51
1, 581102, Note_off_c, 0, 69, 59
1, 581109, Control_c, 0, 64, 88
1, 581124, Control_c, 0, 64, 67
1, 581139, Control_c, 0, 64, 44
1, 581154, Control_c, 0, 64, 0
1, 581158, Note_on_c, 0, 69, 48
1, 581171, Note_on_c, 0, 57, 50
1, 581183, Control_c, 0, 64, 52
1, 581198, Control_c, 0, 64, 66
1, 581213, Control_c, 0, 64, 76
1, 581229, Control_c, 0, 64, 95
1, 581244, Control_c, 0, 64, 127
1, 581265, Note_on_c, 0, 68, 73
1, 581271, Note_on_c, 0, 56, 70
1, 581304, Note_off_c, 0, 57, 35
1, 581367, Note_on_c, 0, 65, 76
1, 581374, Note_off_c, 0, 69, 54
1, 581376, Note_off_c, 0, 56, 59
1, 581381, Note_on_c, 0, 53, 65
1, 581413, Note_off_c, 0, 68, 62
1, 581455, Note_on_c, 0, 52, 73
1, 581456, Note_off_c, 0, 53, 60
1, 581465, Note_on_c, 0, 64, 68
1, 581481, Note_off_c, 0, 52, 66
1, 581530, Note_off_c, 0, 65, 47
1, 581550, Note_off_c, 0, 64, 59
1, 581577, Control_c, 0, 64, 80
1, 581589, Note_on_c, 0, 50, 65
1, 581590, Note_on_c, 0, 40, 61
1, 581592, Control_c, 0, 64, 53
1, 581593, Note_on_c, 0, 69, 80
1, 581596, Note_on_c, 0, 62, 79
1, 581599, Note_on_c, 0, 43, 50
1, 581607, Control_c, 0, 64, 0
1, 581608, Note_on_c, 0, 67, 66
1, 581621, Control_c, 0, 64, 40
1, 581634, Note_off_c, 0, 62, 59
1, 581636, Control_c, 0, 64, 62
1, 581646, Note_off_c, 0, 40, 60
1, 581651, Control_c, 0, 64, 74
1, 581665, Control_c, 0, 64, 96
1, 581680, Control_c, 0, 64, 127
1, 581686, Note_off_c, 0, 43, 61
1, 581696, Note_off_c, 0, 69, 56
1, 581709, Note_on_c, 0, 61, 74
1, 581712, Note_on_c, 0, 49, 66
1, 581726, Note_off_c, 0, 50, 28
1, 581734, Note_off_c, 0, 67, 60
1, 581776, Note_off_c, 0, 61, 58
1, 581805, Note_off_c, 0, 49, 59
1, 581811, Note_on_c, 0, 58, 66
1, 581828, Note_on_c, 0, 46, 61
1, 581841, Note_off_c, 0, 58, 64
1, 581912, Note_on_c, 0, 57, 60
1, 581922, Note_on_c, 0, 45, 61
1, 581928, Note_off_c, 0, 46, 58
1, 581958, Note_off_c, 0, 45, 61
1, 581981, Note_off_c, 0, 57, 51
1, 581991, Control_c, 0, 64, 78
1, 582006, Control_c, 0, 64, 57
1, 582021, Control_c, 0, 64, 0
1, 582052, Control_c, 0, 64, 36
1, 582061, Note_on_c, 0, 69, 65
1, 582064, Note_on_c, 0, 57, 57
1, 582067, Control_c, 0, 64, 61
1, 582079, Note_on_c, 0, 65, 54
1, 582081, Control_c, 0, 64, 75
1, 582084, Note_on_c, 0, 41, 35
1, 582089, Note_on_c, 0, 45, 28
1, 582096, Control_c, 0, 64, 97
1, 582111, Control_c, 0, 64, 127
1, 582118, Note_off_c, 0, 65, 63
1, 582119, Note_off_c, 0, 69, 56
1, 582188, Note_off_c, 0, 41, 51
1, 582210, Note_off_c, 0, 57, 57
1, 582214, Note_on_c, 0, 46, 54
1, 582225, Note_off_c, 0, 45, 36
1, 582231, Note_on_c, 0, 58, 57
1, 582297, Note_off_c, 0, 46, 57
1, 582326, Note_on_c, 0, 49, 56
1, 582336, Note_off_c, 0, 58, 59
1, 582350, Note_on_c, 0, 61, 56
1, 582378, Note_off_c, 0, 49, 60
1, 582386, Note_off_c, 0, 61, 62
1, 582433, Note_on_c, 0, 50, 60
1, 582439, Note_on_c, 0, 62, 61
1, 582480, Note_off_c, 0, 50, 54
1, 582532, Note_on_c, 0, 64, 67
1, 582541, Note_on_c, 0, 52, 58
1, 582556, Note_off_c, 0, 62, 54
1, 582640, Note_on_c, 0, 65, 73
1, 582652, Note_off_c, 0, 52, 58
1, 582658, Note_on_c, 0, 53, 64
1, 582700, Note_off_c, 0, 64, 59
1, 582732, Note_on_c, 0, 68, 76
1, 582744, Note_off_c, 0, 53, 55
1, 582752, Note_on_c, 0, 56, 65
1, 582806, Note_off_c, 0, 65, 59
1, 582811, Note_off_c, 0, 56, 57
1, 582839, Note_on_c, 0, 69, 64
1, 582859, Note_on_c, 0, 57, 64
1, 582873, Note_off_c, 0, 68, 60
1, 582894, Note_off_c, 0, 69, 57
1, 582903, Note_off_c, 0, 57, 54
1, 582905, Control_c, 0, 64, 124
1, 582920, Control_c, 0, 64, 83
1, 582935, Control_c, 0, 64, 64
1, 582950, Control_c, 0, 64, 33
1, 582959, Note_on_c, 0, 69, 58
1, 582965, Control_c, 0, 64, 0
1, 582992, Note_on_c, 0, 57, 42
1, 582994, Control_c, 0, 64, 44
1, 583016, Control_c, 0, 64, 62
1, 583030, Control_c, 0, 64, 74
1, 583045, Control_c, 0, 64, 96
1, 583056, Note_on_c, 0, 68, 73
1, 583060, Control_c, 0, 64, 127
1, 583081, Note_off_c, 0, 57, 54
1, 583083, Note_on_c, 0, 56, 70
1, 583155, Note_on_c, 0, 65, 82
1, 583174, Note_off_c, 0, 69, 51
1, 583179, Note_off_c, 0, 56, 60
1, 583181, Note_on_c, 0, 53, 64
1, 583201, Note_off_c, 0, 68, 56
1, 583231, Note_off_c, 0, 65, 59
1, 583249, Note_off_c, 0, 53, 63
1, 583253, Note_on_c, 0, 64, 73
1, 583268, Note_on_c, 0, 52, 44
1, 583297, Note_off_c, 0, 52, 54
1, 583304, Note_off_c, 0, 64, 59
1, 583342, Control_c, 0, 64, 102
1, 583357, Control_c, 0, 64, 68
1, 583367, Note_on_c, 0, 51, 93
1, 583372, Control_c, 0, 64, 37
1, 583379, Note_on_c, 0, 42, 73
1, 583380, Note_on_c, 0, 48, 72
1, 583385, Note_on_c, 0, 63, 92
1, 583386, Note_on_c, 0, 69, 77
1, 583386, Control_c, 0, 64, 48
1, 583390, Note_on_c, 0, 57, 92
1, 583401, Control_c, 0, 64, 67
1, 583411, Note_on_c, 0, 44, 12
1, 583416, Control_c, 0, 64, 93
1, 583418, Note_on_c, 0, 66, 50
1, 583424, Note_off_c, 0, 51, 52
1, 583427, Note_off_c, 0, 57, 47
1, 583430, Control_c, 0, 64, 127
1, 583455, Note_off_c, 0, 48, 62
1, 583456, Note_off_c, 0, 66, 50
1, 583461, Note_off_c, 0, 69, 52
1, 583462, Note_off_c, 0, 42, 61
1, 583463, Note_off_c, 0, 44, 49
1, 583496, Note_on_c, 0, 64, 18
1, 583498, Note_on_c, 0, 45, 62
1, 583503, Note_on_c, 0, 60, 74
1, 583540, Note_off_c, 0, 64, 38
1, 583563, Note_off_c, 0, 63, 42
1, 583569, Note_off_c, 0, 45, 59
1, 583582, Note_off_c, 0, 60, 61
1, 583588, Note_on_c, 0, 46, 61
1, 583613, Note_on_c, 0, 59, 61
1, 583632, Note_off_c, 0, 46, 62
1, 583688, Note_on_c, 0, 47, 55
1, 583710, Note_on_c, 0, 58, 64
1, 583716, Note_off_c, 0, 59, 56
1, 583719, Note_off_c, 0, 47, 65
1, 583738, Note_off_c, 0, 58, 67
1, 583809, Control_c, 0, 64, 98
1, 583824, Control_c, 0, 64, 68
1, 583839, Control_c, 0, 64, 35
1, 583853, Note_on_c, 0, 42, 40
1, 583853, Note_on_c, 0, 63, 72
1, 583853, Control_c, 0, 64, 0
1, 583855, Note_on_c, 0, 51, 55
1, 583863, Note_on_c, 0, 48, 54
1, 583863, Note_on_c, 0, 69, 60
1, 583868, Control_c, 0, 64, 36
1, 583869, Note_on_c, 0, 57, 46
1, 583883, Note_off_c, 0, 51, 61
1, 583883, Control_c, 0, 64, 63
1, 583892, Note_off_c, 0, 69, 52
1, 583898, Control_c, 0, 64, 77
1, 583899, Note_off_c, 0, 57, 55
1, 583903, Note_off_c, 0, 48, 64
1, 583903, Note_off_c, 0, 63, 54
1, 583910, Note_off_c, 0, 42, 58
1, 583913, Control_c, 0, 64, 115
1, 583927, Control_c, 0, 64, 127
1, 583959, Note_on_c, 0, 60, 69
1, 583979, Note_on_c, 0, 45, 44
1, 584025, Note_off_c, 0, 45, 57
1, 584026, Note_off_c, 0, 60, 61
1, 584041, Note_on_c, 0, 46, 67
1, 584065, Note_on_c, 0, 59, 57
1, 584088, Note_off_c, 0, 46, 60
1, 584154, Note_off_c, 0, 59, 61
1, 584154, Note_on_c, 0, 58, 68
1, 584166, Note_on_c, 0, 47, 50
1, 584182, Note_off_c, 0, 58, 67
1, 584192, Note_off_c, 0, 47, 62
1, 584268, Control_c, 0, 64, 79
1, 584274, Note_on_c, 0, 64, 96
1, 584278, Note_on_c, 0, 57, 92
1, 584279, Note_on_c, 0, 48, 81
1, 584279, Note_on_c, 0, 52, 85
1, 584279, Note_on_c, 0, 69, 88
1, 584283, Control_c, 0, 64, 44
1, 584298, Control_c, 0, 64, 0
1, 584306, Note_on_c, 0, 41, 43
1, 584308, Note_on_c, 0, 40, 33
1, 584312, Note_off_c, 0, 57, 55
1, 584313, Control_c, 0, 64, 46
1, 584315, Note_off_c, 0, 52, 53
1, 584327, Control_c, 0, 64, 65
1, 584337, Note_off_c, 0, 40, 49
1, 584338, Note_off_c, 0, 41, 47
1, 584342, Control_c, 0, 64, 82
1, 584351, Note_off_c, 0, 69, 57
1, 584351, Note_off_c, 0, 48, 62
1, 584357, Control_c, 0, 64, 127
1, 584384, Note_off_c, 0, 64, 55
1, 584395, Note_on_c, 0, 45, 67
1, 584395, Note_on_c, 0, 60, 64
1, 584398, Note_on_c, 0, 62, 60
1, 584422, Note_off_c, 0, 62, 63
1, 584434, Note_off_c, 0, 60, 61
1, 584472, Note_on_c, 0, 46, 77
1, 584473, Note_off_c, 0, 45, 61
1, 584490, Note_on_c, 0, 59, 71
1, 584538, Note_off_c, 0, 46, 62
1, 584574, Note_on_c, 0, 47, 60
1, 584585, Note_off_c, 0, 59, 61
1, 584588, Note_on_c, 0, 58, 68
1, 584601, Note_off_c, 0, 47, 63
1, 584604, Note_on_c, 0, 39, 53
1, 584617, Note_off_c, 0, 58, 67
1, 584656, Note_off_c, 0, 39, 62
1, 584677, Control_c, 0, 64, 89
1, 584691, Control_c, 0, 64, 60
1, 584698, Note_on_c, 0, 57, 107
1, 584700, Note_on_c, 0, 48, 78
1, 584700, Note_on_c, 0, 54, 93
1, 584703, Note_on_c, 0, 69, 87
1, 584706, Note_on_c, 0, 66, 82
1, 584706, Control_c, 0, 64, 0
1, 584721, Control_c, 0, 64, 35
1, 584726, Note_on_c, 0, 63, 44
1, 584726, Note_off_c, 0, 63, 127
1, 584736, Control_c, 0, 64, 60
1, 584747, Note_off_c, 0, 57, 60
1, 584750, Control_c, 0, 64, 79
1, 584751, Note_on_c, 0, 67, 19
1, 584751, Note_off_c, 0, 67, 127
1, 584755, Note_off_c, 0, 69, 59
1, 584765, Note_off_c, 0, 54, 61
1, 584765, Control_c, 0, 64, 127
1, 584774, Note_off_c, 0, 66, 61
1, 584780, Note_off_c, 0, 48, 62
1, 584791, Poly_aftertouch_c, 0, 67, 0
1, 584802, Note_on_c, 0, 45, 65
1, 584811, Note_on_c, 0, 60, 77
1, 584869, Note_off_c, 0, 60, 64
1, 584878, Note_off_c, 0, 45, 62
1, 584903, Note_on_c, 0, 46, 66
1, 584932, Note_on_c, 0, 59, 59
1, 584944, Note_off_c, 0, 46, 61
1, 584966, Note_off_c, 0, 59, 61
1, 584986, Note_on_c, 0, 47, 66
1, 585014, Note_on_c, 0, 58, 67
1, 585021, Note_off_c, 0, 47, 59
1, 585066, Note_off_c, 0, 58, 59
1, 585120, Note_on_c, 0, 58, 74
1, 585121, Note_on_c, 0, 54, 78
1, 585121, Control_c, 0, 64, 76
1, 585135, Note_on_c, 0, 48, 56
1, 585135, Control_c, 0, 64, 0
1, 585157, Note_off_c, 0, 54, 56
1, 585170, Note_off_c, 0, 48, 61
1, 585208, Note_on_c, 0, 60, 69
1, 585213, Note_off_c, 0, 58, 34
1, 585222, Note_on_c, 0, 45, 64
1, 585239, Note_off_c, 0, 60, 64
1, 585273, Note_off_c, 0, 45, 62
1, 585323, Note_on_c, 0, 48, 60
1, 585327, Note_on_c, 0, 54, 57
1, 585334, Note_on_c, 0, 56, 82
1, 585338, Note_on_c, 0, 68, 73
1, 585349, Note_off_c, 0, 54, 60
1, 585363, Note_off_c, 0, 48, 64
1, 585363, Note_off_c, 0, 56, 59
1, 585374, Note_on_c, 0, 66, 14
1, 585393, Note_off_c, 0, 68, 60
1, 585404, Note_on_c, 0, 44, 67
1, 585417, Note_off_c, 0, 66, 50
1, 585420, Note_on_c, 0, 60, 68
1, 585428, Note_off_c, 0, 44, 66
1, 585451, Note_off_c, 0, 60, 66
1, 585521, Note_on_c, 0, 61, 97
1, 585524, Note_on_c, 0, 37, 77
1, 585524, Note_on_c, 0, 49, 77
1, 585525, Note_on_c, 0, 53, 81
1, 585528, Note_on_c, 0, 44, 60
1, 585529, Control_c, 0, 64, 48
1, 585537, Note_off_c, 0, 61, 73
1, 585542, Note_off_c, 0, 53, 67
1, 585544, Control_c, 0, 64, 127
1, 585546, Note_off_c, 0, 49, 67
1, 585549, Note_on_c, 0, 56, 40
1, 585554, Note_off_c, 0, 37, 64
1, 585555, Note_off_c, 0, 44, 59
1, 585579, Note_off_c, 0, 56, 52
1, 585629, Poly_aftertouch_c, 0, 58, 0
1, 585637, Note_on_c, 0, 50, 82
1, 585659, Note_off_c, 0, 50, 69
1, 585659, Note_on_c, 0, 38, 51
1, 585692, Note_off_c, 0, 38, 54
1, 585692, Control_c, 0, 64, 88
1, 585707, Control_c, 0, 64, 60
1, 585722, Control_c, 0, 64, 0
1, 585743, Note_on_c, 0, 37, 66
1, 585745, Note_on_c, 0, 49, 68
1, 585773, Note_off_c, 0, 37, 63
1, 585773, Note_off_c, 0, 49, 65
1, 585838, Note_on_c, 0, 50, 76
1, 585847, Note_on_c, 0, 38, 52
1, 585865, Note_off_c, 0, 50, 68
1, 585876, Note_off_c, 0, 38, 58
1, 585914, Control_c, 0, 64, 61
1, 585929, Control_c, 0, 64, 127
1, 585931, Note_on_c, 0, 49, 88
1, 585944, Note_on_c, 0, 61, 86
1, 585947, Note_on_c, 0, 73, 82
1, 585948, Note_on_c, 0, 37, 52
1, 585950, Note_off_c, 0, 49, 71
1, 585959, Note_on_c, 0, 65, 57
1, 585967, Note_off_c, 0, 61, 62
1, 585980, Note_off_c, 0, 65, 63
1, 585981, Note_off_c, 0, 37, 54
1, 586011, Note_off_c, 0, 73, 58
1, 586041, Control_c, 0, 64, 89
1, 586046, Note_on_c, 0, 54, 86
1, 586056, Control_c, 0, 64, 60
1, 586059, Note_on_c, 0, 44, 56
1, 586066, Note_off_c, 0, 54, 71
1, 586068, Note_on_c, 0, 49, 28
1, 586068, Note_off_c, 0, 49, 127
1, 586071, Control_c, 0, 64, 0
1, 586087, Note_off_c, 0, 44, 59
1, 586149, Note_on_c, 0, 73, 63
1, 586154, Note_on_c, 0, 61, 64
1, 586170, Note_on_c, 0, 52, 47
1, 586172, Note_on_c, 0, 53, 40
1, 586176, Note_off_c, 0, 73, 64
1, 586179, Note_off_c, 0, 61, 64
1, 586184, Note_on_c, 0, 44, 20
1, 586184, Note_off_c, 0, 44, 127
1, 586198, Note_off_c, 0, 52, 55
1, 586205, Note_off_c, 0, 53, 47
1, 586245, Note_on_c, 0, 50, 77
1, 586248, Note_on_c, 0, 73, 78
1, 586249, Note_on_c, 0, 61, 68
1, 586253, Note_on_c, 0, 38, 68
1, 586267, Note_off_c, 0, 61, 64
1, 586268, Note_off_c, 0, 50, 68
1, 586269, Note_off_c, 0, 73, 70
1, 586284, Note_off_c, 0, 38, 64
1, 586352, Note_on_c, 0, 49, 73
1, 586357, Note_on_c, 0, 37, 63
1, 586362, Note_on_c, 0, 78, 70
1, 586366, Note_on_c, 0, 66, 64
1, 586380, Note_off_c, 0, 49, 66
1, 586384, Note_off_c, 0, 37, 56
1, 586385, Note_off_c, 0, 66, 65
1, 586388, Note_off_c, 0, 78, 61
1, 586445, Note_on_c, 0, 50, 79
1, 586464, Note_on_c, 0, 38, 46
1, 586468, Note_off_c, 0, 50, 68
1, 586500, Note_off_c, 0, 38, 50
1, 586545, Note_on_c, 0, 49, 85
1, 586554, Note_on_c, 0, 37, 65
1, 586562, Note_on_c, 0, 78, 77
1, 586564, Note_on_c, 0, 66, 77
1, 586567, Note_off_c, 0, 49, 71
1, 586574, Note_on_c, 0, 69, 58
1, 586589, Note_off_c, 0, 37, 62
1, 586592, Note_off_c, 0, 66, 59
1, 586599, Note_off_c, 0, 69, 56
1, 586618, Note_off_c, 0, 78, 63
1, 586652, Note_on_c, 0, 50, 71
1, 586656, Note_on_c, 0, 38, 62
1, 586670, Note_on_c, 0, 48, 46
1, 586680, Note_off_c, 0, 50, 64
1, 586686, Note_off_c, 0, 38, 64
1, 586700, Note_off_c, 0, 48, 55
1, 586737, Control_c, 0, 64, 59
1, 586742, Note_on_c, 0, 49, 95
1, 586754, Note_on_c, 0, 66, 97
1, 586757, Note_on_c, 0, 78, 90
1, 586759, Control_c, 0, 64, 127
1, 586762, Note_on_c, 0, 37, 75
1, 586763, Note_on_c, 0, 69, 77
1, 586773, Note_off_c, 0, 66, 68
1, 586777, Note_off_c, 0, 69, 70
1, 586780, Note_off_c, 0, 49, 61
1, 586787, Note_off_c, 0, 37, 65
1, 586803, Note_off_c, 0, 78, 62
1, 586813, Note_on_c, 0, 48, 3
1, 586844, Note_off_c, 0, 48, 51
1, 586864, Note_on_c, 0, 54, 87
1, 586885, Note_off_c, 0, 54, 71
1, 586896, Note_on_c, 0, 42, 41
1, 586934, Note_off_c, 0, 42, 53
1, 586938, Control_c, 0, 64, 76
1, 586953, Control_c, 0, 64, 36
1, 586958, Note_on_c, 0, 69, 78
1, 586959, Note_on_c, 0, 81, 80
1, 586968, Control_c, 0, 64, 0
1, 586973, Note_off_c, 0, 81, 71
1, 586977, Note_off_c, 0, 69, 71
1, 586981, Note_on_c, 0, 52, 57
1, 586991, Note_on_c, 0, 80, 24
1, 586992, Note_off_c, 0, 80, 48
1, 586996, Note_on_c, 0, 53, 38
1, 586996, Note_off_c, 0, 53, 127
1, 587004, Note_off_c, 0, 52, 63
1, 587051, Note_on_c, 0, 78, 83
1, 587052, Note_on_c, 0, 66, 91
1, 587061, Note_on_c, 0, 50, 84
1, 587069, Note_on_c, 0, 38, 70
1, 587074, Note_off_c, 0, 66, 66
1, 587076, Note_off_c, 0, 78, 64
1, 587082, Note_off_c, 0, 50, 68
1, 587095, Note_off_c, 0, 38, 63
1, 587144, Note_on_c, 0, 65, 97
1, 587150, Note_on_c, 0, 77, 75
1, 587155, Note_on_c, 0, 49, 87
1, 587157, Poly_aftertouch_c, 0, 75, 0
1, 587165, Note_off_c, 0, 77, 70
1, 587168, Note_on_c, 0, 37, 65
1, 587174, Note_off_c, 0, 65, 65
1, 587177, Note_off_c, 0, 49, 75
1, 587199, Note_off_c, 0, 37, 62
1, 587253, Note_on_c, 0, 50, 73
1, 587270, Note_on_c, 0, 38, 45
1, 587276, Note_off_c, 0, 50, 68
1, 587303, Note_off_c, 0, 38, 46
1, 587339, Note_on_c, 0, 61, 81
1, 587346, Note_on_c, 0, 73, 79
1, 587349, Note_on_c, 0, 65, 65
1, 587349, Note_on_c, 0, 49, 85
1, 587359, Note_off_c, 0, 61, 70
1, 587366, Note_on_c, 0, 37, 58
1, 587369, Note_off_c, 0, 65, 63
1, 587373, Note_off_c, 0, 49, 70
1, 587382, Note_off_c, 0, 73, 65
1, 587397, Note_off_c, 0, 37, 57
1, 587448, Note_on_c, 0, 38, 63
1, 587448, Note_on_c, 0, 50, 76
1, 587474, Note_off_c, 0, 50, 65
1, 587482, Note_off_c, 0, 38, 66
1, 587504, Note_on_c, 0, 48, 10
1, 587504, Note_off_c, 0, 48, 127
1, 587552, Control_c, 0, 64, 71
1, 587556, Note_on_c, 0, 49, 91
1, 587557, Note_on_c, 0, 73, 97
1, 587558, Note_on_c, 0, 77, 90
1, 587559, Note_on_c, 0, 85, 102
1, 587567, Control_c, 0, 64, 127
1, 587573, Note_on_c, 0, 37, 60
1, 587578, Note_off_c, 0, 49, 70
1, 587591, Note_off_c, 0, 77, 59
1, 587594, Note_off_c, 0, 73, 58
1, 587603, Note_off_c, 0, 37, 57
1, 587610, Note_off_c, 0, 85, 63
1, 587662, Note_on_c, 0, 56, 88
1, 587686, Note_off_c, 0, 56, 68
1, 587693, Note_on_c, 0, 44, 44
1, 587725, Note_off_c, 0, 44, 54
1, 587765, Note_on_c, 0, 73, 89
1, 587768, Note_on_c, 0, 85, 80
1, 587770, Note_on_c, 0, 53, 83
1, 587782, Note_off_c, 0, 73, 73
1, 587785, Note_on_c, 0, 41, 62
1, 587788, Note_off_c, 0, 85, 72
1, 587794, Note_off_c, 0, 53, 69
1, 587813, Note_off_c, 0, 41, 62
1, 587826, Poly_aftertouch_c, 0, 82, 127
1, 587853, Note_on_c, 0, 85, 94
1, 587854, Note_on_c, 0, 73, 86
1, 587865, Note_on_c, 0, 50, 75
1, 587866, Poly_aftertouch_c, 0, 82, 0
1, 587870, Note_off_c, 0, 85, 74
1, 587870, Note_off_c, 0, 73, 74
1, 587878, Note_on_c, 0, 38, 60
1, 587889, Note_off_c, 0, 50, 65
1, 587905, Note_off_c, 0, 38, 59
1, 587924, Control_c, 0, 64, 82
1, 587939, Control_c, 0, 64, 64
1, 587952, Note_on_c, 0, 78, 98
1, 587952, Note_on_c, 0, 90, 100
1, 587953, Control_c, 0, 64, 0
1, 587960, Note_on_c, 0, 37, 72
1, 587972, Note_on_c, 0, 48, 55
1, 587993, Note_off_c, 0, 37, 62
1, 587995, Note_off_c, 0, 78, 62
1, 587998, Note_off_c, 0, 90, 63
1, 588001, Note_off_c, 0, 48, 58
1, 588053, Note_on_c, 0, 50, 85
1, 588071, Note_on_c, 0, 38, 53
1, 588083, Note_off_c, 0, 50, 64
1, 588101, Note_off_c, 0, 38, 49
1, 588153, Note_on_c, 0, 81, 84
1, 588154, Note_on_c, 0, 49, 85
1, 588157, Note_on_c, 0, 78, 87
1, 588161, Note_on_c, 0, 90, 80
1, 588168, Note_on_c, 0, 37, 62
1, 588173, Note_off_c, 0, 78, 73
1, 588176, Note_off_c, 0, 49, 70
1, 588181, Note_off_c, 0, 90, 72
1, 588187, Note_off_c, 0, 81, 64
1, 588196, Note_off_c, 0, 37, 59
1, 588251, Note_on_c, 0, 50, 89
1, 588252, Note_on_c, 0, 78, 88
1, 588253, Note_on_c, 0, 81, 76
1, 588253, Note_on_c, 0, 90, 88
1, 588262, Note_on_c, 0, 38, 71
1, 588273, Note_off_c, 0, 50, 68
1, 588273, Note_off_c, 0, 78, 64
1, 588280, Note_off_c, 0, 90, 60
1, 588288, Note_off_c, 0, 81, 64
1, 588291, Note_off_c, 0, 38, 64
1, 588302, Control_c, 0, 64, 59
1, 588317, Control_c, 0, 64, 97
1, 588330, Note_on_c, 0, 48, 5
1, 588332, Control_c, 0, 64, 127
1, 588348, Note_on_c, 0, 49, 95
1, 588357, Note_on_c, 0, 37, 76
1, 588357, Note_on_c, 0, 78, 93
1, 588361, Note_on_c, 0, 90, 87
1, 588363, Note_on_c, 0, 81, 82
1, 588363, Note_off_c, 0, 48, 54
1, 588375, Note_off_c, 0, 49, 65
1, 588387, Note_off_c, 0, 37, 63
1, 588390, Note_off_c, 0, 81, 64
1, 588393, Note_off_c, 0, 78, 54
1, 588395, Note_on_c, 0, 39, 27
1, 588403, Note_off_c, 0, 90, 62
1, 588445, Note_on_c, 0, 50, 91
1, 588449, Note_off_c, 0, 39, 37
1, 588458, Note_on_c, 0, 38, 77
1, 588483, Note_off_c, 0, 38, 65
1, 588483, Note_off_c, 0, 50, 61
1, 588552, Note_on_c, 0, 51, 84
1, 588557, Note_on_c, 0, 81, 97
1, 588563, Note_on_c, 0, 39, 65
1, 588564, Note_on_c, 0, 93, 79
1, 588571, Note_off_c, 0, 81, 77
1, 588577, Note_off_c, 0, 93, 70
1, 588581, Note_off_c, 0, 51, 66
1, 588592, Note_off_c, 0, 39, 63
1, 588623, Poly_aftertouch_c, 0, 49, 127
1, 588631, Poly_aftertouch_c, 0, 42, 127
1, 588642, Note_on_c, 0, 52, 81
1, 588644, Note_on_c, 0, 90, 88
1, 588649, Note_on_c, 0, 40, 74
1, 588650, Note_on_c, 0, 78, 88
1, 588657, Poly_aftertouch_c, 0, 49, 0
1, 588657, Poly_aftertouch_c, 0, 42, 0
1, 588664, Note_off_c, 0, 90, 66
1, 588668, Note_on_c, 0, 50, 53
1, 588668, Note_off_c, 0, 78, 73
1, 588670, Note_on_c, 0, 80, 47
1, 588672, Note_off_c, 0, 52, 64
1, 588674, Note_off_c, 0, 40, 65
1, 588691, Note_off_c, 0, 50, 41
1, 588699, Note_off_c, 0, 80, 36
1, 588733, Control_c, 0, 64, 87
1, 588736, Note_on_c, 0, 77, 100
1, 588742, Note_on_c, 0, 53, 97
1, 588743, Note_on_c, 0, 89, 97
1, 588747, Control_c, 0, 64, 58
1, 588749, Note_on_c, 0, 41, 77
1, 588749, Note_on_c, 0, 81, 82
1, 588761, Note_on_c, 0, 88, 68
1, 588761, Note_off_c, 0, 89, 70
1, 588762, Control_c, 0, 64, 0
1, 588770, Note_on_c, 0, 42, 43
1, 588770, Note_off_c, 0, 53, 62
1, 588771, Note_on_c, 0, 52, 40
1, 588771, Note_off_c, 0, 52, 127
1, 588774, Note_off_c, 0, 41, 65
1, 588776, Note_off_c, 0, 77, 64
1, 588777, Control_c, 0, 64, 64
1, 588780, Note_off_c, 0, 88, 39
1, 588784, Note_on_c, 0, 47, 47
1, 588792, Control_c, 0, 64, 127
1, 588795, Note_off_c, 0, 81, 67
1, 588805, Note_off_c, 0, 42, 56
1, 588828, Note_off_c, 0, 47, 58
1, 588843, Note_on_c, 0, 54, 95
1, 588844, Poly_aftertouch_c, 0, 40, 0
1, 588846, Note_on_c, 0, 42, 72
1, 588878, Note_off_c, 0, 54, 59
1, 588896, Note_off_c, 0, 42, 54
1, 588947, Note_on_c, 0, 53, 84
1, 588954, Note_on_c, 0, 41, 61
1, 588968, Note_off_c, 0, 53, 66
1, 588990, Note_off_c, 0, 41, 53
1, 589006, Control_c, 0, 64, 93
1, 589021, Control_c, 0, 64, 71
1, 589036, Control_c, 0, 64, 49
1, 589050, Control_c, 0, 64, 0
1, 589052, Note_on_c, 0, 42, 66
1, 589059, Note_on_c, 0, 51, 67
1, 589083, Note_off_c, 0, 51, 39
1, 589090, Note_on_c, 0, 53, 33
1, 589101, Note_off_c, 0, 42, 53
1, 589128, Note_off_c, 0, 53, 43
1, 589131, Poly_aftertouch_c, 0, 46, 127
1, 589165, Note_on_c, 0, 41, 40
1, 589169, Control_c, 0, 64, 37
1, 589171, Poly_aftertouch_c, 0, 46, 0
1, 589178, Note_on_c, 0, 52, 45
1, 589183, Control_c, 0, 64, 72
1, 589185, Note_on_c, 0, 77, 75
1, 589192, Note_on_c, 0, 69, 61
1, 589194, Note_off_c, 0, 41, 50
1, 589195, Note_on_c, 0, 65, 68
1, 589198, Control_c, 0, 64, 101
1, 589200, Note_on_c, 0, 53, 36
1, 589209, Note_off_c, 0, 52, 57
1, 589210, Note_off_c, 0, 77, 64
1, 589213, Control_c, 0, 64, 127
1, 589218, Note_off_c, 0, 65, 57
1, 589223, Note_off_c, 0, 69, 66
1, 589238, Note_off_c, 0, 53, 52
1, 589287, Note_on_c, 0, 58, 59
1, 589297, Note_on_c, 0, 46, 46
1, 589311, Note_off_c, 0, 58, 64
1, 589318, Control_c, 0, 64, 107
1, 589331, Note_off_c, 0, 46, 55
1, 589333, Control_c, 0, 64, 74
1, 589347, Control_c, 0, 64, 42
1, 589362, Control_c, 0, 64, 0
1, 589379, Note_on_c, 0, 65, 72
1, 589381, Note_on_c, 0, 77, 55
1, 589387, Note_on_c, 0, 57, 53
1, 589390, Note_on_c, 0, 45, 53
1, 589400, Note_off_c, 0, 77, 63
1, 589403, Note_off_c, 0, 65, 69
1, 589409, Note_on_c, 0, 55, 30
1, 589412, Note_off_c, 0, 57, 58
1, 589417, Note_off_c, 0, 45, 54
1, 589448, Note_off_c, 0, 55, 32
1, 589472, Note_on_c, 0, 77, 65
1, 589475, Note_on_c, 0, 54, 68
1, 589475, Note_on_c, 0, 65, 71
1, 589490, Note_off_c, 0, 77, 68
1, 589494, Note_off_c, 0, 65, 66
1, 589500, Note_on_c, 0, 42, 33
1, 589504, Note_off_c, 0, 54, 66
1, 589539, Note_off_c, 0, 42, 53
1, 589570, Note_on_c, 0, 82, 88
1, 589575, Note_on_c, 0, 53, 79
1, 589575, Note_on_c, 0, 70, 79
1, 589581, Note_on_c, 0, 41, 65
1, 589591, Note_off_c, 0, 82, 64
1, 589600, Note_off_c, 0, 53, 68
1, 589600, Note_off_c, 0, 70, 66
1, 589606, Note_off_c, 0, 41, 62
1, 589674, Note_on_c, 0, 54, 68
1, 589689, Note_on_c, 0, 42, 47
1, 589701, Note_off_c, 0, 54, 66
1, 589719, Note_off_c, 0, 42, 60
1, 589779, Note_on_c, 0, 82, 86
1, 589788, Note_on_c, 0, 53, 75
1, 589791, Note_on_c, 0, 73, 71
1, 589792, Note_on_c, 0, 70, 68
1, 589794, Note_on_c, 0, 41, 53
1, 589804, Note_off_c, 0, 82, 60
1, 589811, Note_off_c, 0, 70, 66
1, 589812, Note_off_c, 0, 53, 66
1, 589815, Note_off_c, 0, 73, 68
1, 589822, Note_off_c, 0, 41, 55
1, 589873, Note_on_c, 0, 42, 38
1, 589879, Note_on_c, 0, 70, 70
1, 589881, Note_on_c, 0, 54, 75
1, 589881, Note_on_c, 0, 82, 74
1, 589884, Note_on_c, 0, 73, 67
1, 589905, Note_off_c, 0, 82, 67
1, 589907, Note_off_c, 0, 70, 69
1, 589907, Note_off_c, 0, 54, 66
1, 589911, Note_off_c, 0, 73, 68
1, 589927, Note_off_c, 0, 42, 61
1, 589975, Note_on_c, 0, 82, 91
1, 589976, Control_c, 0, 64, 78
1, 589978, Note_on_c, 0, 53, 77
1, 589980, Note_on_c, 0, 70, 76
1, 589985, Note_on_c, 0, 73, 71
1, 589987, Note_on_c, 0, 41, 41
1, 589991, Control_c, 0, 64, 127
1, 590000, Note_off_c, 0, 53, 69
1, 590002, Note_off_c, 0, 73, 67
1, 590004, Note_off_c, 0, 70, 69
1, 590018, Note_off_c, 0, 41, 55
1, 590018, Note_off_c, 0, 82, 56
1, 590080, Note_on_c, 0, 58, 79
1, 590099, Note_on_c, 0, 46, 51
1, 590100, Note_off_c, 0, 58, 70
1, 590130, Note_off_c, 0, 46, 55
1, 590154, Control_c, 0, 64, 72
1, 590169, Control_c, 0, 64, 0
1, 590177, Note_on_c, 0, 73, 84
1, 590181, Note_on_c, 0, 82, 71
1, 590192, Note_off_c, 0, 73, 71
1, 590194, Note_on_c, 0, 55, 51
1, 590196, Note_on_c, 0, 57, 50
1, 590199, Note_off_c, 0, 82, 66
1, 590220, Note_off_c, 0, 55, 54
1, 590224, Note_off_c, 0, 57, 56
1, 590260, Note_on_c, 0, 82, 87
1, 590268, Note_on_c, 0, 70, 85
1, 590270, Note_on_c, 0, 54, 79
1, 590280, Note_off_c, 0, 82, 66
1, 590286, Note_on_c, 0, 42, 51
1, 590289, Note_off_c, 0, 70, 69
1, 590292, Note_off_c, 0, 54, 67
1, 590316, Note_off_c, 0, 42, 64
1, 590366, Note_on_c, 0, 53, 86
1, 590367, Note_on_c, 0, 69, 86
1, 590377, Note_on_c, 0, 41, 62
1, 590383, Note_on_c, 0, 79, 63
1, 590387, Note_off_c, 0, 69, 69
1, 590388, Note_on_c, 0, 81, 41
1, 590388, Note_off_c, 0, 53, 70
1, 590402, Note_off_c, 0, 41, 59
1, 590403, Note_off_c, 0, 79, 65
1, 590405, Note_off_c, 0, 81, 41
1, 590465, Note_on_c, 0, 54, 74
1, 590470, Note_on_c, 0, 42, 48
1, 590499, Note_off_c, 0, 54, 68
1, 590517, Note_off_c, 0, 42, 62
1, 590566, Note_on_c, 0, 77, 83
1, 590571, Note_on_c, 0, 65, 67
1, 590574, Note_on_c, 0, 53, 81
1, 590578, Note_on_c, 0, 41, 52
1, 590592, Note_off_c, 0, 65, 63
1, 590594, Note_on_c, 0, 69, 19
1, 590594, Note_off_c, 0, 77, 65
1, 590599, Note_off_c, 0, 53, 68
1, 590611, Note_off_c, 0, 41, 60
1, 590633, Note_off_c, 0, 69, 31
1, 590669, Note_on_c, 0, 42, 59
1, 590671, Note_on_c, 0, 54, 75
1, 590707, Note_off_c, 0, 54, 64
1, 590755, Control_c, 0, 64, 76
1, 590757, Note_on_c, 0, 89, 99
1, 590760, Note_on_c, 0, 41, 57
1, 590762, Note_on_c, 0, 53, 76
1, 590762, Note_on_c, 0, 77, 90
1, 590764, Note_on_c, 0, 82, 77
1, 590766, Note_on_c, 0, 81, 82
1, 590769, Note_off_c, 0, 42, 33
1, 590770, Control_c, 0, 64, 127
1, 590784, Note_off_c, 0, 41, 55
1, 590788, Note_off_c, 0, 53, 68
1, 590789, Note_off_c, 0, 82, 67
1, 590793, Note_off_c, 0, 77, 59
1, 590803, Note_off_c, 0, 81, 61
1, 590807, Note_off_c, 0, 89, 61
1, 590863, Note_on_c, 0, 60, 82
1, 590885, Note_off_c, 0, 60, 72
1, 590961, Note_on_c, 0, 89, 83
1, 590962, Note_on_c, 0, 77, 79
1, 590971, Note_on_c, 0, 57, 73
1, 590978, Note_off_c, 0, 89, 73
1, 590982, Note_off_c, 0, 77, 71
1, 590986, Note_on_c, 0, 45, 55
1, 590986, Note_on_c, 0, 59, 47
1, 590998, Note_off_c, 0, 57, 65
1, 591014, Note_off_c, 0, 59, 60
1, 591015, Note_off_c, 0, 45, 56
1, 591042, Note_on_c, 0, 77, 90
1, 591049, Note_on_c, 0, 89, 87
1, 591055, Note_on_c, 0, 54, 84
1, 591058, Note_off_c, 0, 77, 75
1, 591066, Note_off_c, 0, 89, 73
1, 591075, Note_off_c, 0, 54, 72
1, 591076, Note_on_c, 0, 42, 58
1, 591103, Note_off_c, 0, 42, 63
1, 591140, Note_on_c, 0, 53, 94
1, 591140, Note_on_c, 0, 94, 99
1, 591144, Note_on_c, 0, 82, 98
1, 591156, Control_c, 0, 64, 81
1, 591156, Note_on_c, 0, 41, 64
1, 591166, Note_off_c, 0, 82, 59
1, 591168, Note_off_c, 0, 53, 64
1, 591170, Control_c, 0, 64, 54
1, 591174, Note_on_c, 0, 95, 46
1, 591174, Note_off_c, 0, 95, 127
1, 591176, Note_off_c, 0, 41, 61
1, 591177, Note_on_c, 0, 47, 45
1, 591185, Control_c, 0, 64, 0
1, 591197, Note_off_c, 0, 94, 57
1, 591216, Note_off_c, 0, 47, 65
1, 591248, Note_on_c, 0, 54, 82
1, 591259, Note_on_c, 0, 42, 54
1, 591275, Note_off_c, 0, 54, 67
1, 591292, Note_off_c, 0, 42, 62
1, 591353, Note_on_c, 0, 53, 83
1, 591355, Note_on_c, 0, 94, 89
1, 591356, Note_on_c, 0, 82, 87
1, 591360, Note_on_c, 0, 85, 80
1, 591367, Note_on_c, 0, 41, 51
1, 591376, Note_off_c, 0, 53, 69
1, 591377, Note_off_c, 0, 94, 63
1, 591377, Note_off_c, 0, 82, 64
1, 591380, Note_off_c, 0, 85, 72
1, 591397, Note_off_c, 0, 41, 48
1, 591436, Poly_aftertouch_c, 0, 47, 0
1, 591444, Note_on_c, 0, 82, 89
1, 591444, Note_on_c, 0, 94, 89
1, 591450, Note_on_c, 0, 54, 72
1, 591451, Note_on_c, 0, 85, 77
1, 591462, Note_off_c, 0, 94, 70
1, 591464, Note_off_c, 0, 82, 64
1, 591468, Note_on_c, 0, 42, 33
1, 591471, Note_off_c, 0, 85, 72
1, 591476, Note_off_c, 0, 54, 68
1, 591480, Poly_aftertouch_c, 0, 47, 0
1, 591499, Note_off_c, 0, 42, 55
1, 591518, Control_c, 0, 64, 35
1, 591532, Note_on_c, 0, 82, 97
1, 591532, Note_on_c, 0, 94, 98
1, 591533, Control_c, 0, 64, 65
1, 591547, Note_on_c, 0, 53, 78
1, 591548, Control_c, 0, 64, 89
1, 591555, Note_on_c, 0, 85, 49
1, 591555, Note_on_c, 0, 41, 40
1, 591562, Control_c, 0, 64, 127
1, 591570, Note_off_c, 0, 82, 62
1, 591571, Note_off_c, 0, 53, 68
1, 591579, Note_off_c, 0, 85, 40
1, 591585, Note_off_c, 0, 94, 63
1, 591588, Note_off_c, 0, 41, 49
1, 591658, Note_on_c, 0, 61, 77
1, 591678, Note_on_c, 0, 49, 57
1, 591680, Note_off_c, 0, 61, 69
1, 591698, Note_on_c, 0, 85, 7
1, 591702, Note_off_c, 0, 49, 61
1, 591743, Note_off_c, 0, 85, 0
1, 591758, Note_on_c, 0, 85, 51
1, 591765, Note_on_c, 0, 97, 76
1, 591768, Note_on_c, 0, 58, 76
1, 591783, Note_on_c, 0, 46, 58
1, 591788, Note_off_c, 0, 97, 70
1, 591789, Note_off_c, 0, 85, 67
1, 591790, Note_off_c, 0, 58, 70
1, 591808, Note_off_c, 0, 46, 61
1, 591832, Poly_aftertouch_c, 0, 49, 127
1, 591863, Note_on_c, 0, 94, 83
1, 591866, Note_on_c, 0, 82, 83
1, 591874, Poly_aftertouch_c, 0, 49, 0
1, 591880, Note_on_c, 0, 54, 75
1, 591890, Note_on_c, 0, 42, 63
1, 591900, Note_off_c, 0, 82, 60
1, 591906, Note_off_c, 0, 54, 69
1, 591906, Note_off_c, 0, 94, 62
1, 591918, Note_off_c, 0, 42, 65
1, 591949, Control_c, 0, 64, 69
1, 591964, Control_c, 0, 64, 0
1, 591979, Poly_aftertouch_c, 0, 46, 0
1, 591996, Note_on_c, 0, 53, 70
1, 592000, Note_on_c, 0, 41, 58
1, 592006, Note_on_c, 0, 81, 79
1, 592008, Note_on_c, 0, 93, 79
1, 592015, Control_c, 0, 64, 56
1, 592026, Note_off_c, 0, 53, 66
1, 592028, Note_off_c, 0, 81, 66
1, 592030, Control_c, 0, 64, 72
1, 592032, Note_off_c, 0, 41, 62
1, 592045, Control_c, 0, 64, 96
1, 592056, Note_off_c, 0, 93, 65
1, 592060, Control_c, 0, 64, 127
1, 592098, Note_on_c, 0, 54, 77
1, 592113, Note_on_c, 0, 42, 55
1, 592122, Note_off_c, 0, 54, 68
1, 592142, Note_off_c, 0, 42, 60
1, 592208, Note_on_c, 0, 57, 81
1, 592216, Note_on_c, 0, 96, 83
1, 592219, Note_on_c, 0, 93, 72
1, 592220, Note_on_c, 0, 84, 68
1, 592229, Note_off_c, 0, 57, 71
1, 592232, Note_on_c, 0, 45, 46
1, 592237, Note_off_c, 0, 84, 66
1, 592237, Note_off_c, 0, 93, 68
1, 592238, Note_off_c, 0, 96, 69
1, 592263, Note_off_c, 0, 45, 53
1, 592296, Poly_aftertouch_c, 0, 89, 0
1, 592303, Note_on_c, 0, 58, 80
1, 592310, Note_on_c, 0, 46, 69
1, 592324, Note_off_c, 0, 58, 72
1, 592336, Note_off_c, 0, 46, 65
1, 592357, Poly_aftertouch_c, 0, 89, 0
1, 592357, Control_c, 0, 64, 70
1, 592372, Control_c, 0, 64, 38
1, 592386, Control_c, 0, 64, 0
1, 592401, Control_c, 0, 64, 51
1, 592403, Note_on_c, 0, 97, 84
1, 592404, Note_on_c, 0, 85, 83
1, 592405, Note_on_c, 0, 60, 84
1, 592417, Control_c, 0, 64, 70
1, 592420, Note_on_c, 0, 90, 47
1, 592423, Note_on_c, 0, 48, 53
1, 592423, Note_off_c, 0, 97, 73
1, 592428, Note_off_c, 0, 60, 71
1, 592432, Control_c, 0, 64, 92
1, 592438, Note_off_c, 0, 85, 60
1, 592447, Note_off_c, 0, 90, 35
1, 592447, Control_c, 0, 64, 127
1, 592451, Note_off_c, 0, 48, 57
1, 592496, Note_on_c, 0, 61, 95
1, 592514, Note_on_c, 0, 49, 58
1, 592520, Note_off_c, 0, 61, 65
1, 592540, Note_off_c, 0, 49, 59
1, 592563, Note_on_c, 0, 51, 2
1, 592589, Note_on_c, 0, 94, 73
1, 592599, Note_on_c, 0, 64, 85
1, 592599, Note_on_c, 0, 82, 67
1, 592602, Note_on_c, 0, 85, 54
1, 592605, Note_off_c, 0, 51, 52
1, 592605, Note_on_c, 0, 89, 52
1, 592611, Note_on_c, 0, 52, 63
1, 592617, Note_off_c, 0, 64, 69
1, 592623, Note_off_c, 0, 85, 63
1, 592628, Note_off_c, 0, 89, 61
1, 592629, Note_off_c, 0, 82, 65
1, 592631, Note_off_c, 0, 52, 63
1, 592635, Note_off_c, 0, 94, 64
1, 592694, Note_on_c, 0, 65, 92
1, 592709, Note_on_c, 0, 53, 65
1, 592713, Control_c, 0, 64, 84
1, 592714, Note_off_c, 0, 65, 70
1, 592728, Control_c, 0, 64, 58
1, 592730, Note_off_c, 0, 53, 59
1, 592750, Control_c, 0, 64, 0
1, 592765, Control_c, 0, 64, 41
1, 592776, Note_on_c, 0, 93, 88
1, 592778, Note_on_c, 0, 81, 82
1, 592778, Note_on_c, 0, 84, 82
1, 592780, Control_c, 0, 64, 66
1, 592793, Note_on_c, 0, 89, 62
1, 592795, Note_on_c, 0, 65, 91
1, 592795, Control_c, 0, 64, 90
1, 592799, Note_off_c, 0, 81, 71
1, 592799, Note_on_c, 0, 53, 75
1, 592799, Note_off_c, 0, 84, 71
1, 592810, Control_c, 0, 64, 127
1, 592813, Note_off_c, 0, 65, 73
1, 592815, Note_off_c, 0, 89, 61
1, 592822, Note_off_c, 0, 93, 66
1, 592825, Note_off_c, 0, 53, 68
1, 592892, Note_on_c, 0, 64, 83
1, 592911, Note_on_c, 0, 52, 52
1, 592915, Note_off_c, 0, 64, 70
1, 592932, Note_on_c, 0, 62, 31
1, 592938, Note_on_c, 0, 50, 27
1, 592938, Note_off_c, 0, 52, 56
1, 592965, Note_off_c, 0, 62, 54
1, 592965, Poly_aftertouch_c, 0, 89, 0
1, 592977, Note_off_c, 0, 50, 49
1, 592981, Note_on_c, 0, 61, 88
1, 592981, Note_on_c, 0, 89, 42
1, 592983, Note_on_c, 0, 84, 91
1, 592985, Note_on_c, 0, 93, 86
1, 592986, Note_on_c, 0, 96, 90
1, 592994, Note_on_c, 0, 51, 71
1, 593001, Note_off_c, 0, 61, 68
1, 593004, Note_off_c, 0, 84, 65
1, 593007, Note_off_c, 0, 93, 66
1, 593010, Note_off_c, 0, 89, 64
1, 593022, Note_off_c, 0, 51, 65
1, 593025, Note_off_c, 0, 96, 50
1, 593073, Note_on_c, 0, 60, 94
1, 593087, Note_on_c, 0, 48, 71
1, 593100, Note_off_c, 0, 60, 65
1, 593115, Note_off_c, 0, 48, 66
1, 593120, Control_c, 0, 64, 107
1, 593135, Control_c, 0, 64, 67
1, 593150, Control_c, 0, 64, 0
1, 593168, Note_on_c, 0, 85, 93
1, 593170, Note_on_c, 0, 58, 84
1, 593171, Note_on_c, 0, 97, 95
1, 593177, Note_on_c, 0, 89, 65
1, 593180, Note_on_c, 0, 94, 75
1, 593180, Control_c, 0, 64, 64
1, 593187, Note_on_c, 0, 49, 60
1, 593189, Note_off_c, 0, 58, 73
1, 593192, Note_off_c, 0, 97, 69
1, 593195, Control_c, 0, 64, 90
1, 593198, Note_off_c, 0, 89, 63
1, 593200, Note_off_c, 0, 94, 71
1, 593210, Control_c, 0, 64, 127
1, 593212, Note_off_c, 0, 49, 63
1, 593219, Note_off_c, 0, 85, 64
1, 593261, Poly_aftertouch_c, 0, 47, 0
1, 593272, Note_on_c, 0, 57, 84
1, 593281, Note_on_c, 0, 45, 71
1, 593287, Note_on_c, 0, 55, 66
1, 593290, Poly_aftertouch_c, 0, 47, 0
1, 593296, Note_off_c, 0, 57, 67
1, 593307, Note_off_c, 0, 55, 62
1, 593309, Note_off_c, 0, 45, 65
1, 593350, Poly_aftertouch_c, 0, 49, 127
1, 593361, Note_on_c, 0, 54, 84
1, 593371, Note_on_c, 0, 82, 86
1, 593371, Note_on_c, 0, 94, 86
1, 593372, Note_on_c, 0, 89, 61
1, 593373, Note_on_c, 0, 85, 65
1, 593385, Poly_aftertouch_c, 0, 49, 0
1, 593387, Note_on_c, 0, 44, 57
1, 593392, Note_off_c, 0, 54, 62
1, 593397, Note_on_c, 0, 42, 39
1, 593400, Note_off_c, 0, 85, 67
1, 593405, Note_off_c, 0, 89, 64
1, 593413, Note_off_c, 0, 82, 63
1, 593414, Note_off_c, 0, 44, 60
1, 593415, Note_off_c, 0, 94, 67
1, 593433, Note_off_c, 0, 42, 56
1, 593456, Note_on_c, 0, 53, 89
1, 593472, Note_on_c, 0, 41, 64
1, 593499, Control_c, 0, 64, 79
1, 593502, Note_off_c, 0, 53, 59
1, 593503, Note_off_c, 0, 41, 61
1, 593514, Control_c, 0, 64, 44
1, 593529, Control_c, 0, 64, 0
1, 593544, Control_c, 0, 64, 41
1, 593557, Note_on_c, 0, 53, 89
1, 593557, Note_on_c, 0, 93, 92
1, 593559, Note_on_c, 0, 84, 87
1, 593559, Control_c, 0, 64, 65
1, 593565, Note_on_c, 0, 81, 74
1, 593568, Note_on_c, 0, 89, 72
1, 593572, Note_on_c, 0, 41, 61
1, 593574, Control_c, 0, 64, 101
1, 593577, Note_off_c, 0, 84, 73
1, 593580, Note_off_c, 0, 81, 68
1, 593585, Note_off_c, 0, 89, 66
1, 593586, Note_off_c, 0, 53, 63
1, 593588, Control_c, 0, 64, 127
1, 593597, Note_off_c, 0, 41, 57
1, 593599, Note_off_c, 0, 93, 68
1, 593657, Note_on_c, 0, 54, 91
1, 593680, Note_on_c, 0, 42, 44
1, 593683, Note_off_c, 0, 54, 62
1, 593711, Note_off_c, 0, 42, 55
1, 593750, Note_on_c, 0, 101, 95
1, 593755, Note_on_c, 0, 57, 100
1, 593756, Note_on_c, 0, 96, 83
1, 593761, Note_on_c, 0, 93, 69
1, 593763, Note_on_c, 0, 89, 76
1, 593776, Note_on_c, 0, 51, 58
1, 593776, Note_on_c, 0, 94, 40
1, 593779, Note_on_c, 0, 91, 51
1, 593780, Note_on_c, 0, 45, 54
1, 593782, Note_off_c, 0, 57, 63
1, 593782, Note_off_c, 0, 96, 61
1, 593783, Note_off_c, 0, 89, 57
1, 593791, Note_off_c, 0, 93, 66
1, 593800, Note_off_c, 0, 51, 60
1, 593802, Note_off_c, 0, 91, 60
1, 593808, Note_off_c, 0, 94, 56
1, 593809, Note_off_c, 0, 45, 55
1, 593821, Note_off_c, 0, 101, 61
1, 593845, Poly_aftertouch_c, 0, 49, 0
1, 593852, Note_on_c, 0, 46, 51
1, 593853, Note_on_c, 0, 58, 88
1, 593863, Poly_aftertouch_c, 0, 49, 0
1, 593873, Note_off_c, 0, 58, 72
1, 593881, Note_off_c, 0, 46, 64
1, 593899, Control_c, 0, 64, 105
1, 593901, Poly_aftertouch_c, 0, 50, 0
1, 593914, Control_c, 0, 64, 66
1, 593927, Note_on_c, 0, 101, 95
1, 593928, Note_on_c, 0, 89, 97
1, 593929, Control_c, 0, 64, 35
1, 593934, Note_on_c, 0, 97, 83
1, 593937, Note_on_c, 0, 94, 76
1, 593943, Note_on_c, 0, 60, 92
1, 593944, Note_off_c, 0, 101, 67
1, 593944, Control_c, 0, 64, 56
1, 593945, Note_off_c, 0, 89, 71
1, 593954, Note_on_c, 0, 99, 34
1, 593955, Note_on_c, 0, 48, 71
1, 593959, Control_c, 0, 64, 77
1, 593964, Note_off_c, 0, 94, 60
1, 593967, Note_off_c, 0, 97, 55
1, 593970, Note_off_c, 0, 60, 66
1, 593973, Control_c, 0, 64, 127
1, 593982, Note_off_c, 0, 48, 64
1, 593985, Note_off_c, 0, 99, 51
1, 593993, Note_on_c, 0, 54, 20
1, 594003, Poly_aftertouch_c, 0, 100, 0
1, 594027, Note_off_c, 0, 54, 0
1, 594039, Note_on_c, 0, 61, 93
1, 594048, Note_on_c, 0, 85, 92
1, 594050, Poly_aftertouch_c, 0, 54, 0
1, 594056, Note_on_c, 0, 49, 52
1, 594064, Note_off_c, 0, 61, 62
1, 594071, Note_off_c, 0, 85, 67
1, 594083, Note_on_c, 0, 51, 25
1, 594084, Note_off_c, 0, 49, 56
1, 594089, Note_on_c, 0, 94, 77
1, 594116, Note_off_c, 0, 51, 53
1, 594125, Note_on_c, 0, 101, 102
1, 594137, Note_on_c, 0, 64, 97
1, 594154, Note_off_c, 0, 94, 66
1, 594155, Note_on_c, 0, 52, 63
1, 594170, Note_off_c, 0, 101, 67
1, 594170, Note_off_c, 0, 64, 57
1, 594176, Note_off_c, 0, 52, 61
1, 594213, Note_on_c, 0, 100, 47
1, 594245, Note_on_c, 0, 65, 102
1, 594249, Poly_aftertouch_c, 0, 54, 0
1, 594250, Note_off_c, 0, 100, 35
1, 594263, Note_on_c, 0, 53, 57
1, 594265, Note_on_c, 0, 84, 74
1, 594270, Note_off_c, 0, 65, 61
1, 594283, Note_on_c, 0, 86, 68
1, 594284, Note_off_c, 0, 53, 59
1, 594285, Note_on_c, 0, 61, 29
1, 594292, Note_off_c, 0, 84, 68
1, 594308, Note_off_c, 0, 86, 67
1, 594308, Control_c, 0, 64, 71
1, 594311, Note_off_c, 0, 61, 57
1, 594322, Note_on_c, 0, 93, 57
1, 594322, Control_c, 0, 64, 36
1, 594335, Note_on_c, 0, 101, 104
1, 594337, Control_c, 0, 64, 34
1, 594346, Note_on_c, 0, 65, 95
1, 594349, Note_on_c, 0, 53, 78
1, 594352, Control_c, 0, 64, 70
1, 594355, Note_on_c, 0, 99, 74
1, 594358, Note_off_c, 0, 93, 63
1, 594367, Control_c, 0, 64, 127
1, 594368, Note_off_c, 0, 65, 62
1, 594372, Note_off_c, 0, 99, 67
1, 594374, Note_off_c, 0, 53, 66
1, 594438, Note_off_c, 0, 101, 58
1, 594452, Note_on_c, 0, 64, 89
1, 594462, Note_on_c, 0, 52, 78
1, 594471, Note_off_c, 0, 64, 70
1, 594487, Note_off_c, 0, 52, 66
1, 594533, Note_on_c, 0, 101, 100
1, 594537, Note_on_c, 0, 96, 91
1, 594538, Note_on_c, 0, 93, 83
1, 594539, Note_on_c, 0, 61, 93
1, 594540, Note_on_c, 0, 89, 98
1, 594557, Note_off_c, 0, 61, 71
1, 594560, Note_on_c, 0, 51, 57
1, 594562, Note_off_c, 0, 89, 62
1, 594568, Note_on_c, 0, 49, 51
1, 594579, Note_off_c, 0, 96, 65
1, 594581, Note_off_c, 0, 93, 66
1, 594590, Note_off_c, 0, 51, 64
1, 594595, Note_off_c, 0, 49, 58
1, 594636, Note_on_c, 0, 60, 89
1, 594641, Note_off_c, 0, 101, 60
1, 594665, Note_off_c, 0, 60, 66
1, 594665, Note_on_c, 0, 50, 36
1, 594697, Note_off_c, 0, 50, 52
1, 594728, Note_on_c, 0, 101, 103
1, 594729, Note_on_c, 0, 89, 95
1, 594729, Poly_aftertouch_c, 0, 48, 127
1, 594731, Note_on_c, 0, 97, 92
1, 594735, Note_on_c, 0, 58, 93
1, 594739, Note_on_c, 0, 94, 78
1, 594751, Note_on_c, 0, 49, 65
1, 594751, Note_off_c, 0, 89, 61
1, 594755, Note_on_c, 0, 99, 46
1, 594757, Note_off_c, 0, 58, 70
1, 594762, Note_on_c, 0, 91, 45
1, 594762, Note_off_c, 0, 91, 127
1, 594763, Note_off_c, 0, 101, 60
1, 594765, Poly_aftertouch_c, 0, 48, 0
1, 594772, Note_on_c, 0, 47, 41
1, 594772, Note_off_c, 0, 49, 66
1, 594783, Note_off_c, 0, 99, 56
1, 594795, Note_off_c, 0, 97, 62
1, 594801, Note_off_c, 0, 94, 60
1, 594802, Note_off_c, 0, 47, 53
1, 594844, Note_on_c, 0, 55, 94
1, 594856, Note_on_c, 0, 85, 96
1, 594869, Note_on_c, 0, 43, 62
1, 594874, Note_off_c, 0, 55, 65
1, 594891, Note_off_c, 0, 85, 69
1, 594893, Note_off_c, 0, 43, 59
1, 594907, Note_on_c, 0, 94, 80
1, 594945, Note_on_c, 0, 54, 92
1, 594948, Poly_aftertouch_c, 0, 49, 0
1, 594952, Note_on_c, 0, 101, 99
1, 594957, Note_on_c, 0, 42, 77
1, 594958, Note_on_c, 0, 102, 67
1, 594960, Note_off_c, 0, 94, 63
1, 594978, Note_off_c, 0, 102, 62
1, 594998, Note_off_c, 0, 54, 62
1, 595004, Note_off_c, 0, 42, 59
1, 595010, Note_off_c, 0, 101, 65
1, 595046, Note_on_c, 0, 53, 78
1, 595059, Note_on_c, 0, 41, 61
1, 595097, Note_off_c, 0, 41, 60
1, 595097, Note_on_c, 0, 84, 84
1, 595106, Note_off_c, 0, 53, 61
1, 595114, Note_on_c, 0, 92, 72
1, 595116, Control_c, 0, 64, 80
1, 595125, Note_off_c, 0, 84, 58
1, 595131, Control_c, 0, 64, 46
1, 595137, Note_off_c, 0, 92, 67
1, 595138, Poly_aftertouch_c, 0, 43, 0
1, 595145, Control_c, 0, 64, 0
1, 595147, Note_on_c, 0, 86, 24
1, 595150, Note_on_c, 0, 93, 64
1, 595154, Note_off_c, 0, 86, 39
1, 595160, Control_c, 0, 64, 50
1, 595162, Note_on_c, 0, 53, 94
1, 595163, Note_on_c, 0, 101, 104
1, 595170, Note_on_c, 0, 41, 79
1, 595175, Control_c, 0, 64, 78
1, 595178, Note_off_c, 0, 93, 68
1, 595190, Control_c, 0, 64, 127
1, 595199, Note_off_c, 0, 101, 69
1, 595210, Note_off_c, 0, 53, 58
1, 595213, Note_on_c, 0, 42, 20
1, 595258, Note_off_c, 0, 42, 55
1, 595333, Note_off_c, 0, 41, 45
1, 595386, Note_on_c, 0, 45, 21
1, 595469, Note_off_c, 0, 45, 56
1, 595493, Note_on_c, 0, 46, 48
1, 595528, Note_on_c, 0, 57, 69
1, 595544, Note_off_c, 0, 46, 62
1, 595588, Note_on_c, 0, 48, 59
1, 595633, Note_off_c, 0, 57, 61
1, 595634, Note_on_c, 0, 58, 75
1, 595672, Note_off_c, 0, 48, 56
1, 595676, Note_on_c, 0, 49, 64
1, 595690, Note_off_c, 0, 58, 63
1, 595746, Note_on_c, 0, 60, 80
1, 595779, Note_on_c, 0, 51, 76
1, 595782, Note_off_c, 0, 49, 61
1, 595839, Note_on_c, 0, 61, 82
1, 595858, Note_off_c, 0, 51, 61
1, 595864, Note_off_c, 0, 60, 62
1, 595893, Note_on_c, 0, 53, 57
1, 595931, Note_on_c, 0, 63, 81
1, 595961, Note_off_c, 0, 61, 59
1, 595986, Note_off_c, 0, 53, 58
1, 595993, Note_on_c, 0, 54, 59
1, 596017, Note_off_c, 0, 63, 58
1, 596034, Note_on_c, 0, 65, 80
1, 596101, Control_c, 0, 64, 85
1, 596116, Control_c, 0, 64, 64
1, 596117, Note_off_c, 0, 54, 48
1, 596118, Note_on_c, 0, 57, 56
1, 596131, Control_c, 0, 64, 0
1, 596170, Note_off_c, 0, 65, 56
1, 596176, Note_on_c, 0, 66, 68
1, 596176, Control_c, 0, 64, 57
1, 596191, Control_c, 0, 64, 71
1, 596205, Control_c, 0, 64, 87
1, 596206, Note_off_c, 0, 57, 61
1, 596220, Control_c, 0, 64, 127
1, 596224, Note_on_c, 0, 58, 65
1, 596271, Note_off_c, 0, 66, 60
1, 596291, Note_on_c, 0, 65, 77
1, 596297, Note_off_c, 0, 58, 62
1, 596317, Note_on_c, 0, 57, 66
1, 596376, Note_on_c, 0, 54, 82
1, 596384, Note_on_c, 0, 63, 76
1, 596384, Note_off_c, 0, 57, 59
1, 596399, Note_off_c, 0, 65, 54
1, 596432, Note_off_c, 0, 54, 61
1, 596468, Note_on_c, 0, 53, 84
1, 596471, Note_on_c, 0, 61, 81
1, 596540, Control_c, 0, 64, 96
1, 596554, Control_c, 0, 64, 69
1, 596556, Note_off_c, 0, 63, 57
1, 596566, Note_off_c, 0, 53, 56
1, 596569, Control_c, 0, 64, 39
1, 596570, Note_on_c, 0, 51, 82
1, 596572, Note_off_c, 0, 61, 57
1, 596575, Note_on_c, 0, 60, 74
1, 596584, Control_c, 0, 64, 0
1, 596629, Control_c, 0, 64, 47
1, 596643, Control_c, 0, 64, 67
1, 596658, Control_c, 0, 64, 79
1, 596667, Note_on_c, 0, 49, 78
1, 596668, Note_on_c, 0, 58, 73
1, 596671, Note_off_c, 0, 60, 57
1, 596673, Control_c, 0, 64, 98
1, 596679, Note_off_c, 0, 51, 59
1, 596688, Control_c, 0, 64, 127
1, 596728, Note_off_c, 0, 49, 63
1, 596761, Note_on_c, 0, 57, 77
1, 596766, Note_on_c, 0, 48, 62
1, 596828, Note_off_c, 0, 48, 60
1, 596831, Note_on_c, 0, 46, 77
1, 596835, Control_c, 0, 64, 109
1, 596847, Note_on_c, 0, 54, 79
1, 596850, Control_c, 0, 64, 93
1, 596865, Control_c, 0, 64, 78
1, 596880, Control_c, 0, 64, 64
1, 596892, Note_off_c, 0, 46, 62
1, 596895, Control_c, 0, 64, 0
1, 596914, Note_off_c, 0, 57, 60
1, 596917, Note_off_c, 0, 58, 34
1, 596954, Note_off_c, 0, 54, 59
1, 596969, Note_on_c, 0, 55, 73
1, 596970, Note_on_c, 0, 41, 42
1, 596977, Note_on_c, 0, 47, 58
1, 597058, Note_off_c, 0, 47, 64
1, 597065, Note_off_c, 0, 41, 57
1, 597073, Control_c, 0, 64, 58
1, 597077, Note_off_c, 0, 55, 61
1, 597078, Note_on_c, 0, 56, 73
1, 597085, Note_on_c, 0, 48, 67
1, 597088, Control_c, 0, 64, 69
1, 597102, Control_c, 0, 64, 76
1, 597108, Note_off_c, 0, 56, 66
1, 597117, Control_c, 0, 64, 85
1, 597132, Control_c, 0, 64, 94
1, 597147, Control_c, 0, 64, 100
1, 597148, Note_off_c, 0, 48, 62
1, 597162, Control_c, 0, 64, 104
1, 597171, Note_on_c, 0, 59, 77
1, 597177, Control_c, 0, 64, 110
1, 597181, Note_on_c, 0, 50, 76
1, 597191, Control_c, 0, 64, 115
1, 597207, Control_c, 0, 64, 124
1, 597222, Control_c, 0, 64, 127
1, 597262, Note_on_c, 0, 60, 82
1, 597273, Note_on_c, 0, 51, 81
1, 597281, Note_off_c, 0, 59, 60
1, 597288, Note_off_c, 0, 50, 57
1, 597333, Control_c, 0, 64, 114
1, 597347, Control_c, 0, 64, 80
1, 597353, Note_on_c, 0, 53, 86
1, 597355, Note_on_c, 0, 62, 82
1, 597362, Control_c, 0, 64, 60
1, 597377, Control_c, 0, 64, 0
1, 597383, Note_off_c, 0, 51, 62
1, 597392, Note_off_c, 0, 60, 60
1, 597422, Control_c, 0, 64, 56
1, 597437, Control_c, 0, 64, 70
1, 597440, Note_off_c, 0, 53, 56
1, 597449, Note_on_c, 0, 63, 81
1, 597452, Note_on_c, 0, 55, 90
1, 597452, Control_c, 0, 64, 83
1, 597466, Control_c, 0, 64, 103
1, 597481, Control_c, 0, 64, 127
1, 597485, Note_off_c, 0, 62, 62
1, 597508, Note_off_c, 0, 55, 59
1, 597518, Note_off_c, 0, 63, 63
1, 597539, Note_on_c, 0, 56, 84
1, 597545, Note_on_c, 0, 65, 88
1, 597640, Note_on_c, 0, 59, 71
1, 597644, Note_on_c, 0, 67, 79
1, 597658, Control_c, 0, 64, 100
1, 597663, Note_off_c, 0, 56, 61
1, 597672, Note_off_c, 0, 65, 63
1, 597673, Control_c, 0, 64, 78
1, 597688, Control_c, 0, 64, 61
1, 597703, Control_c, 0, 64, 0
1, 597729, Note_off_c, 0, 59, 62
1, 597753, Note_on_c, 0, 60, 71
1, 597762, Note_on_c, 0, 68, 81
1, 597771, Note_off_c, 0, 67, 61
1, 597837, Control_c, 0, 64, 34
1, 597852, Control_c, 0, 64, 53
1, 597853, Note_on_c, 0, 59, 78
1, 597858, Note_off_c, 0, 60, 64
1, 597860, Note_on_c, 0, 67, 81
1, 597866, Control_c, 0, 64, 66
1, 597881, Control_c, 0, 64, 74
1, 597896, Control_c, 0, 64, 86
1, 597911, Control_c, 0, 64, 106
1, 597926, Control_c, 0, 64, 127
1, 597929, Note_off_c, 0, 68, 55
1, 597939, Note_off_c, 0, 59, 57
1, 597942, Note_off_c, 0, 67, 61
1, 597944, Note_on_c, 0, 56, 87
1, 597958, Note_on_c, 0, 65, 93
1, 598017, Note_off_c, 0, 56, 61
1, 598036, Note_off_c, 0, 65, 0
1, 598042, Note_on_c, 0, 55, 91
1, 598056, Note_on_c, 0, 63, 90
1, 598082, Control_c, 0, 64, 103
1, 598097, Control_c, 0, 64, 72
1, 598112, Poly_aftertouch_c, 0, 65, 0
1, 598112, Control_c, 0, 64, 44
1, 598127, Control_c, 0, 64, 0
1, 598135, Note_on_c, 0, 53, 83
1, 598149, Note_on_c, 0, 62, 85
1, 598149, Note_off_c, 0, 55, 57
1, 598157, Control_c, 0, 64, 37
1, 598171, Control_c, 0, 64, 61
1, 598186, Control_c, 0, 64, 74
1, 598201, Control_c, 0, 64, 88
1, 598215, Control_c, 0, 64, 102
1, 598220, Note_off_c, 0, 63, 57
1, 598230, Control_c, 0, 64, 108
1, 598233, Note_on_c, 0, 51, 84
1, 598235, Note_off_c, 0, 53, 62
1, 598239, Note_on_c, 0, 60, 91
1, 598245, Control_c, 0, 64, 111
1, 598247, Note_off_c, 0, 62, 60
1, 598286, Note_off_c, 0, 60, 66
1, 598291, Note_off_c, 0, 51, 63
1, 598319, Control_c, 0, 64, 115
1, 598332, Note_on_c, 0, 59, 72
1, 598337, Note_on_c, 0, 50, 74
1, 598401, Note_off_c, 0, 50, 54
1, 598412, Note_on_c, 0, 56, 64
1, 598412, Note_on_c, 0, 48, 72
1, 598423, Control_c, 0, 64, 89
1, 598426, Note_off_c, 0, 59, 60
1, 598438, Note_off_c, 0, 56, 55
1, 598438, Control_c, 0, 64, 69
1, 598441, Note_on_c, 0, 57, 51
1, 598443, Note_off_c, 0, 48, 67
1, 598453, Control_c, 0, 64, 0
1, 598468, Note_off_c, 0, 57, 56
1, 598521, Note_on_c, 0, 48, 81
1, 598525, Note_on_c, 0, 41, 61
1, 598526, Note_on_c, 0, 51, 66
1, 598527, Control_c, 0, 64, 43
1, 598531, Note_on_c, 0, 57, 56
1, 598542, Control_c, 0, 64, 66
1, 598552, Note_off_c, 0, 51, 65
1, 598556, Note_off_c, 0, 57, 60
1, 598556, Control_c, 0, 64, 82
1, 598563, Note_off_c, 0, 41, 56
1, 598571, Control_c, 0, 64, 115
1, 598572, Note_off_c, 0, 48, 62
1, 598586, Control_c, 0, 64, 127
1, 598617, Note_on_c, 0, 58, 76
1, 598625, Note_on_c, 0, 50, 78
1, 598626, Note_on_c, 0, 53, 67
1, 598647, Note_off_c, 0, 58, 62
1, 598649, Note_off_c, 0, 53, 64
1, 598668, Note_off_c, 0, 50, 59
1, 598713, Note_on_c, 0, 55, 76
1, 598715, Note_on_c, 0, 60, 67
1, 598733, Note_on_c, 0, 51, 74
1, 598746, Note_off_c, 0, 55, 68
1, 598754, Note_off_c, 0, 60, 67
1, 598775, Note_off_c, 0, 51, 57
1, 598814, Note_on_c, 0, 57, 80
1, 598819, Note_on_c, 0, 53, 84
1, 598821, Note_on_c, 0, 62, 61
1, 598837, Note_off_c, 0, 57, 70
1, 598852, Note_off_c, 0, 62, 64
1, 598865, Note_off_c, 0, 53, 60
1, 598876, Control_c, 0, 64, 82
1, 598891, Control_c, 0, 64, 62
1, 598903, Note_on_c, 0, 63, 79
1, 598906, Control_c, 0, 64, 43
1, 598910, Note_on_c, 0, 58, 61
1, 598910, Note_off_c, 0, 58, 127
1, 598912, Note_on_c, 0, 55, 87
1, 598920, Control_c, 0, 64, 55
1, 598935, Control_c, 0, 64, 67
1, 598942, Note_off_c, 0, 63, 60
1, 598950, Control_c, 0, 64, 82
1, 598954, Note_off_c, 0, 55, 65
1, 598965, Control_c, 0, 64, 127
1, 598995, Note_on_c, 0, 60, 88
1, 598996, Note_on_c, 0, 65, 85
1, 599000, Note_on_c, 0, 57, 87
1, 599018, Poly_aftertouch_c, 0, 59, 0
1, 599018, Note_off_c, 0, 60, 69
1, 599022, Note_off_c, 0, 65, 65
1, 599067, Note_off_c, 0, 57, 59
1, 599086, Note_on_c, 0, 67, 83
1, 599091, Note_on_c, 0, 62, 78
1, 599101, Note_on_c, 0, 58, 73
1, 599112, Note_off_c, 0, 62, 70
1, 599130, Note_off_c, 0, 67, 62
1, 599166, Note_on_c, 0, 60, 81
1, 599167, Note_off_c, 0, 58, 57
1, 599175, Note_on_c, 0, 69, 82
1, 599180, Note_on_c, 0, 63, 84
1, 599225, Note_off_c, 0, 63, 59
1, 599225, Note_off_c, 0, 69, 64
1, 599246, Control_c, 0, 64, 115
1, 599249, Note_off_c, 0, 60, 62
1, 599261, Control_c, 0, 64, 71
1, 599276, Control_c, 0, 64, 0
1, 599283, Note_on_c, 0, 63, 92
1, 599288, Note_on_c, 0, 53, 76
1, 599288, Note_on_c, 0, 72, 93
1, 599292, Note_on_c, 0, 67, 91
1, 599334, Control_c, 0, 64, 63
1, 599343, Note_off_c, 0, 53, 62
1, 599347, Note_off_c, 0, 67, 63
1, 599349, Control_c, 0, 64, 81
1, 599353, Note_off_c, 0, 63, 63
1, 599363, Control_c, 0, 64, 127
1, 599393, Note_on_c, 0, 65, 80
1, 599398, Note_on_c, 0, 70, 76
1, 599404, Note_on_c, 0, 62, 78
1, 599404, Note_off_c, 0, 72, 59
1, 599427, Note_off_c, 0, 70, 65
1, 599440, Note_off_c, 0, 65, 63
1, 599464, Note_off_c, 0, 62, 62
1, 599500, Note_on_c, 0, 69, 80
1, 599501, Note_on_c, 0, 60, 89
1, 599506, Note_on_c, 0, 63, 80
1, 599541, Note_off_c, 0, 63, 54
1, 599544, Note_off_c, 0, 69, 59
1, 599559, Note_off_c, 0, 60, 60
1, 599589, Note_on_c, 0, 58, 88
1, 599595, Note_on_c, 0, 67, 84
1, 599601, Note_on_c, 0, 62, 77
1, 599624, Note_off_c, 0, 62, 71
1, 599624, Control_c, 0, 64, 80
1, 599635, Note_off_c, 0, 58, 66
1, 599638, Note_off_c, 0, 67, 60
1, 599639, Control_c, 0, 64, 55
1, 599653, Control_c, 0, 64, 0
1, 599683, Note_on_c, 0, 65, 87
1, 599690, Note_on_c, 0, 57, 87
1, 599702, Note_on_c, 0, 60, 65
1, 599731, Note_off_c, 0, 60, 68
1, 599737, Note_off_c, 0, 57, 64
1, 599742, Note_off_c, 0, 65, 58
1, 599757, Control_c, 0, 64, 60
1, 599772, Control_c, 0, 64, 72
1, 599773, Note_on_c, 0, 63, 87
1, 599774, Note_on_c, 0, 55, 87
1, 599787, Control_c, 0, 64, 87
1, 599801, Control_c, 0, 64, 111
1, 599811, Poly_aftertouch_c, 0, 65, 127
1, 599816, Control_c, 0, 64, 127
1, 599828, Note_off_c, 0, 63, 62
1, 599854, Poly_aftertouch_c, 0, 65, 0
1, 599862, Note_off_c, 0, 55, 61
1, 599863, Note_on_c, 0, 53, 83
1, 599867, Note_on_c, 0, 62, 83
1, 599928, Note_off_c, 0, 62, 59
1, 599934, Note_on_c, 0, 51, 82
1, 599943, Note_off_c, 0, 53, 57
1, 599955, Note_on_c, 0, 60, 82
1, 599963, Note_on_c, 0, 55, 75
1, 599977, Note_off_c, 0, 51, 61
1, 599979, Control_c, 0, 64, 94
1, 599985, Note_off_c, 0, 55, 71
1, 599988, Note_off_c, 0, 60, 63
1, 599994, Control_c, 0, 64, 64
1, 600009, Control_c, 0, 64, 0
1, 600039, Control_c, 0, 64, 36
1, 600040, Note_on_c, 0, 41, 94
1, 600047, Note_on_c, 0, 63, 88
1, 600053, Control_c, 0, 64, 68
1, 600054, Note_on_c, 0, 55, 81
1, 600059, Note_on_c, 0, 58, 67
1, 600068, Control_c, 0, 64, 100
1, 600069, Note_off_c, 0, 41, 65
1, 600072, Note_on_c, 0, 43, 37
1, 600072, Note_off_c, 0, 43, 127
1, 600080, Note_off_c, 0, 55, 69
1, 600083, Control_c, 0, 64, 127
1, 600088, Note_off_c, 0, 58, 66
1, 600093, Note_off_c, 0, 63, 65
1, 600150, Note_on_c, 0, 60, 86
1, 600152, Note_on_c, 0, 65, 85
1, 600165, Note_on_c, 0, 57, 84
1, 600170, Note_off_c, 0, 60, 73
1, 600172, Note_off_c, 0, 65, 72
1, 600214, Note_off_c, 0, 57, 62
1, 600248, Note_on_c, 0, 62, 84
1, 600248, Note_on_c, 0, 67, 83
1, 600267, Note_off_c, 0, 62, 71
1, 600269, Note_on_c, 0, 58, 72
1, 600276, Note_off_c, 0, 67, 62
1, 600317, Note_off_c, 0, 58, 64
1, 600333, Note_on_c, 0, 69, 82
1, 600336, Note_on_c, 0, 63, 89
1, 600339, Note_on_c, 0, 60, 86
1, 600357, Note_off_c, 0, 63, 65
1, 600380, Note_off_c, 0, 69, 61
1, 600386, Note_off_c, 0, 60, 65
1, 600432, Control_c, 0, 64, 93
1, 600433, Note_on_c, 0, 65, 84
1, 600433, Note_on_c, 0, 70, 81
1, 600438, Note_on_c, 0, 62, 92
1, 600447, Control_c, 0, 64, 62
1, 600451, Note_off_c, 0, 65, 72
1, 600455, Note_off_c, 0, 70, 70
1, 600462, Control_c, 0, 64, 0
1, 600482, Note_off_c, 0, 62, 62
1, 600506, Control_c, 0, 64, 60
1, 600515, Note_on_c, 0, 67, 87
1, 600515, Note_on_c, 0, 72, 64
1, 600521, Control_c, 0, 64, 80
1, 600536, Note_on_c, 0, 62, 60
1, 600536, Control_c, 0, 64, 127
1, 600542, Note_off_c, 0, 67, 62
1, 600555, Note_off_c, 0, 72, 63
1, 600591, Note_off_c, 0, 62, 58
1, 600606, Note_on_c, 0, 69, 84
1, 600606, Note_on_c, 0, 65, 83
1, 600606, Note_on_c, 0, 74, 87
1, 600610, Poly_aftertouch_c, 0, 71, 0
1, 600622, Note_off_c, 0, 69, 73
1, 600638, Note_off_c, 0, 74, 62
1, 600650, Note_off_c, 0, 65, 65
1, 600688, Note_on_c, 0, 75, 87
1, 600698, Note_on_c, 0, 70, 62
1, 600698, Note_off_c, 0, 70, 127
1, 600699, Note_on_c, 0, 67, 73
1, 600721, Note_on_c, 0, 71, 52
1, 600728, Note_off_c, 0, 67, 66
1, 600731, Note_off_c, 0, 75, 66
1, 600745, Note_off_c, 0, 71, 60
1, 600783, Note_on_c, 0, 79, 97
1, 600787, Note_on_c, 0, 70, 83
1, 600796, Note_on_c, 0, 74, 70
1, 600802, Control_c, 0, 64, 78
1, 600803, Note_on_c, 0, 72, 68
1, 600812, Note_off_c, 0, 74, 68
1, 600817, Control_c, 0, 64, 38
1, 600820, Note_off_c, 0, 72, 65
1, 600822, Note_off_c, 0, 79, 68
1, 600832, Control_c, 0, 64, 0
1, 600834, Note_off_c, 0, 70, 65
1, 600874, Note_on_c, 0, 77, 83
1, 600875, Note_on_c, 0, 72, 83
1, 600882, Note_on_c, 0, 79, 58
1, 600886, Note_on_c, 0, 69, 81
1, 600892, Note_off_c, 0, 72, 71
1, 600907, Note_off_c, 0, 79, 58
1, 600914, Note_off_c, 0, 77, 64
1, 600960, Note_on_c, 0, 75, 89
1, 600973, Note_off_c, 0, 69, 56
1, 600982, Note_on_c, 0, 67, 77
1, 600982, Note_on_c, 0, 70, 70
1, 601003, Note_off_c, 0, 70, 66
1, 601016, Note_off_c, 0, 75, 63
1, 601048, Note_on_c, 0, 65, 76
1, 601048, Note_off_c, 0, 67, 63
1, 601053, Note_on_c, 0, 74, 87
1, 601066, Note_on_c, 0, 69, 55
1, 601074, Note_off_c, 0, 65, 68
1, 601083, Note_off_c, 0, 74, 64
1, 601085, Note_off_c, 0, 69, 61
1, 601091, Control_c, 0, 64, 55
1, 601106, Control_c, 0, 64, 81
1, 601121, Control_c, 0, 64, 127
1, 601148, Note_on_c, 0, 67, 83
1, 601154, Note_on_c, 0, 72, 95
1, 601154, Note_on_c, 0, 63, 78
1, 601159, Note_on_c, 0, 84, 87
1, 601166, Control_c, 0, 64, 104
1, 601168, Note_off_c, 0, 67, 69
1, 601168, Note_off_c, 0, 72, 76
1, 601172, Note_off_c, 0, 84, 71
1, 601176, Note_off_c, 0, 63, 71
1, 601181, Control_c, 0, 64, 71
1, 601196, Control_c, 0, 64, 0
1, 601239, Note_on_c, 0, 82, 95
1, 601241, Note_on_c, 0, 70, 88
1, 601244, Note_on_c, 0, 65, 80
1, 601249, Note_on_c, 0, 62, 76
1, 601256, Note_off_c, 0, 82, 70
1, 601264, Note_off_c, 0, 70, 66
1, 601269, Note_off_c, 0, 65, 67
1, 601285, Note_off_c, 0, 62, 56
1, 601328, Note_on_c, 0, 69, 81
1, 601328, Note_on_c, 0, 81, 77
1, 601338, Note_on_c, 0, 63, 81
1, 601343, Note_on_c, 0, 60, 56
1, 601345, Control_c, 0, 64, 63
1, 601346, Note_off_c, 0, 69, 72
1, 601350, Note_off_c, 0, 81, 70
1, 601360, Control_c, 0, 64, 77
1, 601375, Control_c, 0, 64, 106
1, 601380, Note_off_c, 0, 60, 66
1, 601389, Control_c, 0, 64, 127
1, 601395, Note_off_c, 0, 63, 38
1, 601406, Note_on_c, 0, 67, 91
1, 601410, Note_on_c, 0, 62, 72
1, 601411, Note_on_c, 0, 58, 63
1, 601413, Note_on_c, 0, 79, 83
1, 601422, Note_off_c, 0, 67, 75
1, 601431, Note_off_c, 0, 79, 73
1, 601435, Note_off_c, 0, 62, 68
1, 601438, Note_off_c, 0, 58, 65
1, 601503, Note_on_c, 0, 70, 106
1, 601507, Note_on_c, 0, 87, 103
1, 601508, Note_on_c, 0, 75, 97
1, 601515, Note_on_c, 0, 67, 74
1, 601522, Note_off_c, 0, 75, 76
1, 601523, Note_off_c, 0, 87, 72
1, 601533, Note_off_c, 0, 70, 57
1, 601552, Control_c, 0, 64, 79
1, 601556, Note_off_c, 0, 67, 55
1, 601567, Control_c, 0, 64, 51
1, 601581, Control_c, 0, 64, 0
1, 601595, Note_on_c, 0, 74, 93
1, 601600, Note_on_c, 0, 86, 79
1, 601603, Note_on_c, 0, 69, 80
1, 601610, Note_on_c, 0, 65, 77
1, 601620, Note_off_c, 0, 86, 70
1, 601622, Note_off_c, 0, 74, 66
1, 601633, Note_on_c, 0, 84, 36
1, 601633, Note_off_c, 0, 84, 127
1, 601649, Note_off_c, 0, 69, 60
1, 601670, Control_c, 0, 64, 54
1, 601671, Note_off_c, 0, 65, 56
1, 601685, Control_c, 0, 64, 71
1, 601688, Note_on_c, 0, 72, 91
1, 601691, Note_on_c, 0, 84, 78
1, 601691, Note_on_c, 0, 67, 79
1, 601700, Control_c, 0, 64, 92
1, 601700, Note_on_c, 0, 63, 61
1, 601704, Note_off_c, 0, 72, 73
1, 601713, Note_off_c, 0, 84, 69
1, 601714, Control_c, 0, 64, 127
1, 601770, Note_off_c, 0, 63, 0
1, 601770, Note_off_c, 0, 67, 42
1, 601780, Note_on_c, 0, 70, 92
1, 601781, Note_on_c, 0, 62, 68
1, 601783, Note_on_c, 0, 82, 92
1, 601789, Note_on_c, 0, 65, 67
1, 601798, Note_off_c, 0, 70, 74
1, 601804, Note_off_c, 0, 82, 67
1, 601807, Note_off_c, 0, 65, 66
1, 601809, Note_off_c, 0, 62, 64
1, 601828, Poly_aftertouch_c, 0, 63, 0
1, 601869, Poly_aftertouch_c, 0, 63, 0
1, 601870, Control_c, 0, 64, 73
1, 601873, Note_on_c, 0, 74, 96
1, 601875, Note_on_c, 0, 79, 108
1, 601878, Note_on_c, 0, 91, 95
1, 601885, Control_c, 0, 64, 0
1, 601889, Note_on_c, 0, 90, 72
1, 601890, Note_on_c, 0, 70, 65
1, 601892, Note_off_c, 0, 91, 75
1, 601896, Note_off_c, 0, 74, 64
1, 601896, Note_off_c, 0, 79, 65
1, 601900, Note_on_c, 0, 81, 55
1, 601900, Note_off_c, 0, 81, 127
1, 601906, Note_off_c, 0, 90, 41
1, 601917, Note_off_c, 0, 70, 67
1, 601944, Control_c, 0, 64, 62
1, 601959, Control_c, 0, 64, 85
1, 601967, Note_on_c, 0, 77, 93
1, 601970, Poly_aftertouch_c, 0, 68, 0
1, 601974, Control_c, 0, 64, 127
1, 601974, Note_on_c, 0, 89, 81
1, 601976, Note_on_c, 0, 69, 76
1, 601980, Note_on_c, 0, 72, 70
1, 601986, Note_off_c, 0, 77, 68
1, 601989, Note_off_c, 0, 89, 71
1, 602007, Note_off_c, 0, 72, 63
1, 602016, Note_on_c, 0, 88, 21
1, 602048, Note_off_c, 0, 69, 54
1, 602059, Note_on_c, 0, 87, 91
1, 602060, Note_off_c, 0, 88, 34
1, 602062, Note_on_c, 0, 75, 95
1, 602072, Note_on_c, 0, 67, 68
1, 602072, Note_on_c, 0, 70, 79
1, 602096, Note_off_c, 0, 87, 68
1, 602096, Note_off_c, 0, 75, 60
1, 602132, Note_off_c, 0, 70, 60
1, 602147, Note_on_c, 0, 69, 78
1, 602147, Note_on_c, 0, 74, 94
1, 602149, Note_on_c, 0, 86, 94
1, 602153, Note_on_c, 0, 65, 58
1, 602163, Note_off_c, 0, 67, 52
1, 602164, Note_off_c, 0, 74, 75
1, 602171, Note_off_c, 0, 69, 64
1, 602175, Note_off_c, 0, 65, 62
1, 602183, Note_off_c, 0, 86, 67
1, 602197, Control_c, 0, 64, 69
1, 602212, Control_c, 0, 64, 0
1, 602242, Control_c, 0, 64, 37
1, 602250, Note_on_c, 0, 79, 91
1, 602256, Control_c, 0, 64, 65
1, 602257, Note_on_c, 0, 84, 108
1, 602257, Note_on_c, 0, 96, 103
1, 602259, Note_on_c, 0, 75, 70
1, 602267, Note_off_c, 0, 79, 75
1, 602268, Note_on_c, 0, 86, 72
1, 602271, Control_c, 0, 64, 107
1, 602273, Note_off_c, 0, 84, 70
1, 602273, Note_off_c, 0, 96, 72
1, 602276, Note_on_c, 0, 77, 42
1, 602276, Note_on_c, 0, 94, 59
1, 602277, Note_off_c, 0, 75, 65
1, 602284, Note_off_c, 0, 86, 66
1, 602286, Control_c, 0, 64, 127
1, 602299, Note_off_c, 0, 94, 63
1, 602299, Note_on_c, 0, 92, 16
1, 602299, Note_off_c, 0, 92, 127
1, 602307, Note_off_c, 0, 77, 39
1, 602352, Note_on_c, 0, 82, 100
1, 602355, Note_on_c, 0, 94, 100
1, 602360, Note_on_c, 0, 77, 78
1, 602363, Note_on_c, 0, 74, 78
1, 602379, Note_off_c, 0, 94, 65
1, 602383, Note_off_c, 0, 82, 66
1, 602390, Note_off_c, 0, 77, 59
1, 602420, Note_off_c, 0, 74, 60
1, 602451, Note_on_c, 0, 81, 101
1, 602452, Note_on_c, 0, 93, 93
1, 602464, Note_on_c, 0, 72, 69
1, 602465, Note_on_c, 0, 75, 78
1, 602482, Note_off_c, 0, 93, 61
1, 602495, Note_off_c, 0, 81, 59
1, 602495, Note_on_c, 0, 92, 32
1, 602495, Note_off_c, 0, 92, 127
1, 602531, Note_off_c, 0, 72, 60
1, 602543, Note_off_c, 0, 75, 62
1, 602546, Note_on_c, 0, 74, 79
1, 602554, Note_on_c, 0, 70, 53
1, 602558, Note_on_c, 0, 79, 93
1, 602558, Note_on_c, 0, 91, 96
1, 602573, Note_off_c, 0, 74, 64
1, 602575, Note_off_c, 0, 79, 75
1, 602576, Note_off_c, 0, 70, 59
1, 602594, Note_off_c, 0, 91, 68
1, 602634, Control_c, 0, 64, 104
1, 602648, Control_c, 0, 64, 64
1, 602663, Control_c, 0, 64, 0
1, 602683, Note_on_c, 0, 82, 98
1, 602683, Note_on_c, 0, 87, 106
1, 602686, Note_on_c, 0, 99, 104
1, 602688, Note_on_c, 0, 79, 86
1, 602693, Control_c, 0, 64, 58
1, 602704, Note_on_c, 0, 97, 64
1, 602708, Control_c, 0, 64, 77
1, 602713, Note_off_c, 0, 87, 69
1, 602722, Note_off_c, 0, 82, 66
1, 602723, Note_off_c, 0, 79, 63
1, 602723, Control_c, 0, 64, 127
1, 602723, Note_off_c, 0, 97, 65
1, 602729, Note_off_c, 0, 99, 61
1, 602839, Note_on_c, 0, 86, 87
1, 602843, Note_on_c, 0, 98, 82
1, 602853, Note_on_c, 0, 81, 56
1, 602856, Note_on_c, 0, 77, 50
1, 602857, Note_off_c, 0, 86, 71
1, 602857, Note_off_c, 0, 98, 71
1, 602864, Note_on_c, 0, 83, 45
1, 602874, Note_off_c, 0, 81, 61
1, 602878, Note_off_c, 0, 77, 61
1, 602889, Note_off_c, 0, 83, 59
1, 602934, Note_on_c, 0, 75, 73
1, 602935, Note_on_c, 0, 84, 87
1, 602938, Note_on_c, 0, 79, 80
1, 602941, Note_on_c, 0, 96, 69
1, 602951, Note_off_c, 0, 84, 74
1, 602960, Note_off_c, 0, 96, 64
1, 602960, Note_off_c, 0, 79, 68
1, 602966, Note_off_c, 0, 75, 57
1, 603015, Note_on_c, 0, 94, 96
1, 603017, Note_on_c, 0, 82, 91
1, 603028, Note_on_c, 0, 77, 73
1, 603032, Note_off_c, 0, 82, 74
1, 603036, Note_off_c, 0, 94, 67
1, 603041, Note_on_c, 0, 74, 60
1, 603072, Note_off_c, 0, 77, 61
1, 603101, Note_on_c, 0, 81, 97
1, 603103, Note_on_c, 0, 93, 82
1, 603111, Note_on_c, 0, 75, 69
1, 603115, Note_off_c, 0, 74, 56
1, 603115, Note_on_c, 0, 72, 61
1, 603121, Note_off_c, 0, 81, 67
1, 603122, Note_off_c, 0, 93, 73
1, 603124, Control_c, 0, 64, 74
1, 603135, Note_off_c, 0, 72, 64
1, 603135, Note_off_c, 0, 75, 66
1, 603139, Control_c, 0, 64, 37
1, 603154, Control_c, 0, 64, 0
1, 603169, Control_c, 0, 64, 41
1, 603183, Note_on_c, 0, 91, 84
1, 603184, Control_c, 0, 64, 64
1, 603187, Note_on_c, 0, 79, 93
1, 603198, Control_c, 0, 64, 83
1, 603199, Note_on_c, 0, 74, 70
1, 603201, Note_on_c, 0, 70, 69
1, 603204, Note_off_c, 0, 91, 65
1, 603208, Note_off_c, 0, 79, 67
1, 603213, Control_c, 0, 64, 127
1, 603215, Note_on_c, 0, 90, 21
1, 603231, Note_off_c, 0, 74, 68
1, 603236, Note_off_c, 0, 70, 67
1, 603267, Note_off_c, 0, 90, 28
1, 603283, Note_on_c, 0, 77, 90
1, 603288, Note_on_c, 0, 89, 77
1, 603294, Note_on_c, 0, 72, 79
1, 603295, Poly_aftertouch_c, 0, 81, 0
1, 603303, Note_on_c, 0, 69, 63
1, 603303, Note_off_c, 0, 77, 67
1, 603306, Note_off_c, 0, 89, 63
1, 603342, Note_off_c, 0, 72, 63
1, 603375, Note_on_c, 0, 87, 80
1, 603382, Note_on_c, 0, 70, 79
1, 603382, Note_on_c, 0, 75, 86
1, 603392, Note_on_c, 0, 67, 62
1, 603396, Note_off_c, 0, 69, 54
1, 603402, Note_off_c, 0, 75, 69
1, 603407, Note_off_c, 0, 70, 69
1, 603414, Note_off_c, 0, 87, 66
1, 603417, Note_off_c, 0, 67, 66
1, 603465, Note_on_c, 0, 74, 90
1, 603465, Note_on_c, 0, 86, 87
1, 603473, Note_on_c, 0, 69, 72
1, 603482, Note_off_c, 0, 86, 71
1, 603491, Note_off_c, 0, 74, 63
1, 603498, Note_off_c, 0, 69, 65
1, 603509, Note_on_c, 0, 65, 39
1, 603539, Note_off_c, 0, 65, 54
1, 603552, Note_on_c, 0, 72, 90
1, 603569, Note_on_c, 0, 67, 73
1, 603571, Note_on_c, 0, 63, 71
1, 603575, Note_on_c, 0, 84, 48
1, 603575, Note_off_c, 0, 72, 64
1, 603599, Note_on_c, 0, 83, 14
1, 603601, Note_off_c, 0, 84, 57
1, 603616, Note_off_c, 0, 63, 55
1, 603623, Note_off_c, 0, 67, 57
1, 603647, Note_on_c, 0, 82, 78
1, 603655, Note_on_c, 0, 65, 72
1, 603661, Note_off_c, 0, 83, 0
1, 603666, Note_on_c, 0, 62, 55
1, 603669, Note_off_c, 0, 82, 69
1, 603682, Note_on_c, 0, 83, 12
1, 603686, Note_on_c, 0, 71, 36
1, 603709, Note_off_c, 0, 65, 64
1, 603718, Note_off_c, 0, 71, 53
1, 603722, Note_off_c, 0, 83, 53
1, 603736, Note_on_c, 0, 60, 70
1, 603738, Note_on_c, 0, 81, 89
1, 603740, Note_on_c, 0, 69, 91
1, 603758, Note_off_c, 0, 69, 66
1, 603759, Note_off_c, 0, 81, 64
1, 603763, Note_off_c, 0, 60, 69
1, 603768, Note_on_c, 0, 80, 47
1, 603774, Note_off_c, 0, 62, 55
1, 603784, Control_c, 0, 64, 81
1, 603794, Note_off_c, 0, 80, 58
1, 603798, Control_c, 0, 64, 57
1, 603813, Control_c, 0, 64, 34
1, 603827, Control_c, 0, 64, 59
1, 603828, Note_on_c, 0, 67, 93
1, 603830, Note_on_c, 0, 79, 95
1, 603834, Note_on_c, 0, 62, 70
1, 603842, Control_c, 0, 64, 74
1, 603847, Note_off_c, 0, 79, 72
1, 603849, Note_off_c, 0, 67, 64
1, 603857, Note_on_c, 0, 59, 55
1, 603857, Control_c, 0, 64, 101
1, 603866, Note_off_c, 0, 62, 63
1, 603872, Control_c, 0, 64, 127
1, 603879, Note_off_c, 0, 59, 61
1, 603911, Note_on_c, 0, 77, 61
1, 603918, Note_on_c, 0, 65, 94
1, 603919, Note_on_c, 0, 60, 82
1, 603938, Note_on_c, 0, 57, 62
1, 603944, Note_off_c, 0, 65, 63
1, 603948, Note_on_c, 0, 67, 42
1, 603948, Note_off_c, 0, 67, 127
1, 603950, Note_off_c, 0, 77, 62
1, 603980, Note_off_c, 0, 57, 61
1, 603984, Note_off_c, 0, 60, 64
1, 604022, Note_on_c, 0, 64, 92
1, 604023, Note_on_c, 0, 59, 69
1, 604026, Note_on_c, 0, 76, 77
1, 604031, Note_on_c, 0, 56, 75
1, 604041, Note_off_c, 0, 64, 67
1, 604047, Note_on_c, 0, 74, 55
1, 604048, Note_off_c, 0, 76, 64
1, 604068, Note_off_c, 0, 56, 58
1, 604070, Note_off_c, 0, 74, 60
1, 604072, Note_off_c, 0, 59, 63
1, 604072, Control_c, 0, 64, 110
1, 604087, Control_c, 0, 64, 69
1, 604101, Control_c, 0, 64, 0
1, 604102, Poly_aftertouch_c, 0, 73, 0
1, 604108, Note_on_c, 0, 65, 88
1, 604111, Note_on_c, 0, 77, 87
1, 604111, Note_on_c, 0, 60, 84
1, 604127, Note_on_c, 0, 57, 60
1, 604128, Note_off_c, 0, 77, 74
1, 604136, Note_off_c, 0, 65, 66
1, 604144, Note_off_c, 0, 60, 66
1, 604160, Control_c, 0, 64, 45
1, 604162, Note_off_c, 0, 57, 61
1, 604175, Control_c, 0, 64, 69
1, 604190, Control_c, 0, 64, 98
1, 604193, Note_on_c, 0, 59, 74
1, 604202, Note_on_c, 0, 64, 87
1, 604205, Control_c, 0, 64, 127
1, 604207, Note_on_c, 0, 56, 77
1, 604207, Note_on_c, 0, 76, 79
1, 604221, Note_off_c, 0, 64, 67
1, 604227, Note_off_c, 0, 76, 71
1, 604243, Note_off_c, 0, 56, 55
1, 604257, Note_off_c, 0, 59, 60
1, 604291, Note_on_c, 0, 65, 92
1, 604296, Note_on_c, 0, 60, 73
1, 604298, Note_on_c, 0, 77, 73
1, 604308, Note_off_c, 0, 65, 71
1, 604317, Note_off_c, 0, 77, 68
1, 604322, Note_off_c, 0, 60, 68
1, 604355, Note_on_c, 0, 57, 2
1, 604376, Note_on_c, 0, 58, 75
1, 604382, Note_on_c, 0, 78, 94
1, 604383, Note_on_c, 0, 61, 73
1, 604385, Note_on_c, 0, 66, 76
1, 604400, Note_off_c, 0, 78, 73
1, 604401, Note_off_c, 0, 66, 68
1, 604402, Note_off_c, 0, 57, 47
1, 604403, Note_off_c, 0, 58, 67
1, 604412, Note_off_c, 0, 61, 65
1, 604463, Note_on_c, 0, 67, 87
1, 604468, Note_on_c, 0, 62, 84
1, 604472, Note_on_c, 0, 79, 75
1, 604478, Note_on_c, 0, 59, 63
1, 604484, Note_off_c, 0, 67, 69
1, 604493, Note_off_c, 0, 62, 65
1, 604494, Note_off_c, 0, 79, 70
1, 604502, Note_off_c, 0, 59, 60
1, 604554, Note_on_c, 0, 68, 92
1, 604555, Note_on_c, 0, 80, 90
1, 604558, Note_on_c, 0, 63, 82
1, 604570, Note_on_c, 0, 60, 64
1, 604570, Note_off_c, 0, 68, 73
1, 604572, Note_off_c, 0, 80, 71
1, 604596, Note_off_c, 0, 63, 59
1, 604600, Note_off_c, 0, 60, 66
1, 604621, Control_c, 0, 64, 92
1, 604636, Control_c, 0, 64, 63
1, 604637, Note_on_c, 0, 69, 91
1, 604642, Note_on_c, 0, 64, 84
1, 604643, Note_on_c, 0, 81, 80
1, 604647, Note_on_c, 0, 61, 71
1, 604650, Control_c, 0, 64, 0
1, 604657, Note_off_c, 0, 69, 67
1, 604663, Note_off_c, 0, 81, 71
1, 604671, Note_off_c, 0, 61, 63
1, 604677, Note_off_c, 0, 64, 62
1, 604733, Note_on_c, 0, 70, 94
1, 604735, Note_on_c, 0, 82, 89
1, 604743, Note_on_c, 0, 65, 89
1, 604750, Note_on_c, 0, 62, 75
1, 604752, Note_off_c, 0, 70, 69
1, 604755, Note_off_c, 0, 82, 70
1, 604767, Note_off_c, 0, 65, 66
1, 604770, Note_off_c, 0, 62, 66
1, 604814, Note_on_c, 0, 71, 89
1, 604820, Note_on_c, 0, 83, 86
1, 604826, Note_on_c, 0, 66, 84
1, 604832, Note_off_c, 0, 71, 70
1, 604838, Note_off_c, 0, 83, 70
1, 604850, Note_off_c, 0, 66, 65
1, 604908, Note_on_c, 0, 72, 86
1, 604909, Control_c, 0, 64, 39
1, 604913, Note_on_c, 0, 67, 80
1, 604913, Note_on_c, 0, 84, 88
1, 604924, Control_c, 0, 64, 63
1, 604928, Note_off_c, 0, 72, 68
1, 604931, Note_off_c, 0, 84, 71
1, 604939, Control_c, 0, 64, 77
1, 604940, Note_off_c, 0, 67, 67
1, 604943, Poly_aftertouch_c, 0, 64, 0
1, 604954, Control_c, 0, 64, 95
1, 604969, Control_c, 0, 64, 127
1, 604997, Note_on_c, 0, 68, 83
1, 604998, Note_on_c, 0, 73, 85
1, 604999, Note_on_c, 0, 85, 87
1, 605004, Note_on_c, 0, 65, 73
1, 605016, Note_off_c, 0, 73, 73
1, 605017, Note_off_c, 0, 85, 73
1, 605032, Note_off_c, 0, 65, 67
1, 605039, Note_on_c, 0, 72, 39
1, 605046, Note_off_c, 0, 68, 61
1, 605058, Note_off_c, 0, 72, 63
1, 605086, Note_on_c, 0, 69, 81
1, 605089, Note_on_c, 0, 74, 94
1, 605090, Note_on_c, 0, 86, 78
1, 605092, Note_on_c, 0, 66, 67
1, 605107, Note_off_c, 0, 74, 68
1, 605112, Poly_aftertouch_c, 0, 84, 0
1, 605112, Note_off_c, 0, 86, 68
1, 605118, Note_on_c, 0, 76, 52
1, 605118, Note_off_c, 0, 76, 127
1, 605118, Note_off_c, 0, 66, 67
1, 605122, Note_off_c, 0, 69, 59
1, 605179, Note_on_c, 0, 70, 80
1, 605179, Note_on_c, 0, 75, 89
1, 605179, Note_on_c, 0, 87, 92
1, 605180, Poly_aftertouch_c, 0, 85, 127
1, 605181, Note_on_c, 0, 67, 71
1, 605196, Poly_aftertouch_c, 0, 85, 0
1, 605199, Note_off_c, 0, 75, 70
1, 605213, Note_off_c, 0, 67, 62
1, 605220, Note_off_c, 0, 87, 63
1, 605220, Note_off_c, 0, 70, 60
1, 605266, Note_on_c, 0, 76, 83
1, 605266, Note_on_c, 0, 88, 85
1, 605273, Note_on_c, 0, 71, 76
1, 605276, Note_on_c, 0, 77, 65
1, 605281, Note_on_c, 0, 68, 64
1, 605289, Note_off_c, 0, 76, 68
1, 605289, Note_off_c, 0, 88, 65
1, 605294, Note_off_c, 0, 77, 64
1, 605295, Control_c, 0, 64, 79
1, 605297, Note_off_c, 0, 71, 67
1, 605298, Note_off_c, 0, 68, 67
1, 605310, Control_c, 0, 64, 47
1, 605325, Control_c, 0, 64, 0
1, 605339, Control_c, 0, 64, 38
1, 605354, Note_on_c, 0, 77, 92
1, 605354, Control_c, 0, 64, 63
1, 605355, Note_on_c, 0, 72, 86
1, 605360, Note_on_c, 0, 89, 90
1, 605369, Control_c, 0, 64, 82
1, 605371, Note_on_c, 0, 69, 65
1, 605376, Note_off_c, 0, 77, 65
1, 605378, Note_off_c, 0, 89, 73
1, 605384, Control_c, 0, 64, 127
1, 605391, Note_off_c, 0, 69, 65
1, 605394, Note_off_c, 0, 72, 61
1, 605446, Note_on_c, 0, 78, 96
1, 605446, Note_on_c, 0, 90, 102
1, 605451, Note_on_c, 0, 70, 77
1, 605454, Note_on_c, 0, 73, 81
1, 605476, Note_off_c, 0, 78, 62
1, 605485, Note_off_c, 0, 70, 64
1, 605485, Note_off_c, 0, 90, 69
1, 605491, Note_off_c, 0, 73, 59
1, 605509, Note_on_c, 0, 87, 7
1, 605509, Note_off_c, 0, 87, 127
1, 605544, Note_on_c, 0, 79, 97
1, 605549, Note_on_c, 0, 74, 85
1, 605549, Note_on_c, 0, 91, 92
1, 605556, Note_on_c, 0, 71, 75
1, 605569, Poly_aftertouch_c, 0, 87, 0
1, 605569, Note_off_c, 0, 91, 70
1, 605577, Note_off_c, 0, 79, 61
1, 605579, Note_off_c, 0, 71, 69
1, 605581, Note_off_c, 0, 74, 61
1, 605638, Note_on_c, 0, 80, 100
1, 605640, Note_on_c, 0, 92, 96
1, 605642, Note_on_c, 0, 75, 82
1, 605643, Control_c, 0, 64, 124
1, 605649, Note_on_c, 0, 72, 71
1, 605658, Control_c, 0, 64, 70
1, 605671, Note_off_c, 0, 92, 68
1, 605672, Note_off_c, 0, 80, 64
1, 605673, Control_c, 0, 64, 35
1, 605675, Note_off_c, 0, 72, 69
1, 605688, Control_c, 0, 64, 0
1, 605694, Note_off_c, 0, 75, 61
1, 605703, Control_c, 0, 64, 61
1, 605718, Control_c, 0, 64, 80
1, 605730, Note_on_c, 0, 81, 99
1, 605732, Control_c, 0, 64, 127
1, 605733, Note_on_c, 0, 73, 71
1, 605734, Note_on_c, 0, 93, 90
1, 605739, Note_on_c, 0, 76, 79
1, 605754, Note_off_c, 0, 93, 68
1, 605757, Note_off_c, 0, 81, 62
1, 605759, Note_off_c, 0, 73, 66
1, 605761, Note_off_c, 0, 76, 71
1, 605823, Note_on_c, 0, 82, 100
1, 605827, Note_on_c, 0, 94, 94
1, 605834, Note_on_c, 0, 77, 84
1, 605846, Note_on_c, 0, 74, 72
1, 605856, Note_on_c, 0, 92, 48
1, 605858, Note_off_c, 0, 82, 61
1, 605862, Note_off_c, 0, 94, 68
1, 605866, Note_off_c, 0, 77, 55
1, 605868, Note_off_c, 0, 74, 66
1, 605881, Note_off_c, 0, 92, 60
1, 605923, Note_on_c, 0, 83, 95
1, 605923, Note_on_c, 0, 95, 94
1, 605926, Note_on_c, 0, 75, 80
1, 605928, Note_on_c, 0, 78, 83
1, 605940, Note_off_c, 0, 83, 70
1, 605945, Note_off_c, 0, 95, 65
1, 605960, Note_off_c, 0, 75, 58
1, 605962, Note_on_c, 0, 84, 38
1, 605962, Note_off_c, 0, 84, 127
1, 605974, Note_off_c, 0, 78, 63
1, 606017, Note_on_c, 0, 84, 96
1, 606022, Note_on_c, 0, 96, 90
1, 606026, Note_on_c, 0, 79, 88
1, 606040, Note_off_c, 0, 84, 65
1, 606040, Note_off_c, 0, 96, 72
1, 606043, Note_on_c, 0, 95, 62
1, 606047, Note_on_c, 0, 76, 57
1, 606060, Note_off_c, 0, 79, 61
1, 606064, Note_off_c, 0, 95, 42
1, 606067, Note_on_c, 0, 94, 4
1, 606067, Note_off_c, 0, 76, 61
1, 606104, Note_off_c, 0, 94, 31
1, 606109, Note_on_c, 0, 85, 94
1, 606112, Note_on_c, 0, 97, 96
1, 606118, Note_on_c, 0, 77, 80
1, 606120, Note_on_c, 0, 80, 82
1, 606152, Note_off_c, 0, 85, 65
1, 606160, Note_off_c, 0, 97, 66
1, 606161, Note_off_c, 0, 77, 59
1, 606171, Note_off_c, 0, 80, 62
1, 606222, Note_on_c, 0, 86, 96
1, 606225, Note_on_c, 0, 98, 85
1, 606226, Note_on_c, 0, 78, 73
1, 606228, Note_on_c, 0, 81, 79
1, 606242, Note_on_c, 0, 90, 62
1, 606248, Note_off_c, 0, 78, 69
1, 606253, Note_on_c, 0, 96, 53
1, 606253, Note_off_c, 0, 96, 127
1, 606254, Note_off_c, 0, 81, 63
1, 606260, Note_off_c, 0, 86, 63
1, 606262, Note_off_c, 0, 98, 61
1, 606302, Note_off_c, 0, 90, 62
1, 606317, Note_on_c, 0, 91, 94
1, 606317, Note_on_c, 0, 87, 107
1, 606321, Note_on_c, 0, 82, 103
1, 606321, Note_on_c, 0, 99, 103
1, 606332, Note_on_c, 0, 79, 86
1, 606367, Note_on_c, 0, 97, 53
1, 606380, Note_on_c, 0, 80, 9
1, 606392, Control_c, 0, 64, 107
1, 606407, Control_c, 0, 64, 66
1, 606419, Note_off_c, 0, 97, 52
1, 606421, Note_off_c, 0, 80, 47
1, 606421, Control_c, 0, 64, 0
1, 606526, Control_c, 0, 64, 45
1, 606540, Control_c, 0, 64, 63
1, 606555, Control_c, 0, 64, 74
1, 606570, Control_c, 0, 64, 88
1, 606585, Control_c, 0, 64, 112
1, 606600, Control_c, 0, 64, 127
1, 606627, Note_off_c, 0, 82, 56
1, 606639, Note_off_c, 0, 79, 60
1, 606693, Note_off_c, 0, 99, 52
1, 606770, Note_off_c, 0, 91, 47
1, 606888, Note_off_c, 0, 87, 63
1, 607626, Note_on_c, 0, 75, 100
1, 607626, Note_on_c, 0, 87, 101
1, 607664, Note_on_c, 0, 85, 50
1, 607708, Note_off_c, 0, 85, 44
1, 607708, Poly_aftertouch_c, 0, 81, 127
1, 607742, Control_c, 0, 64, 103
1, 607757, Control_c, 0, 64, 82
1, 607772, Control_c, 0, 64, 66
1, 607787, Control_c, 0, 64, 49
1, 607801, Control_c, 0, 64, 0
1, 607802, Poly_aftertouch_c, 0, 81, 0
1, 607905, Control_c, 0, 64, 35
1, 607919, Control_c, 0, 64, 50
1, 607934, Control_c, 0, 64, 60
1, 607949, Control_c, 0, 64, 67
1, 607964, Control_c, 0, 64, 74
1, 607979, Control_c, 0, 64, 85
1, 607993, Control_c, 0, 64, 109
1, 608008, Control_c, 0, 64, 127
1, 608428, Note_off_c, 0, 75, 53
1, 608800, Note_on_c, 0, 79, 98
1, 608806, Note_on_c, 0, 67, 75
1, 608837, Note_off_c, 0, 87, 62
1, 609041, Note_off_c, 0, 79, 55
1, 609170, Note_off_c, 0, 67, 40
1, 609924, Note_on_c, 0, 65, 55
1, 609988, Control_c, 0, 64, 124
1, 610000, Note_on_c, 0, 72, 62
1, 610003, Control_c, 0, 64, 82
1, 610018, Control_c, 0, 64, 63
1, 610033, Control_c, 0, 64, 35
1, 610048, Note_on_c, 0, 75, 69
1, 610048, Control_c, 0, 64, 0
1, 610055, Note_off_c, 0, 72, 63
1, 610062, Control_c, 0, 64, 48
1, 610072, Note_off_c, 0, 75, 67
1, 610077, Control_c, 0, 64, 63
1, 610092, Control_c, 0, 64, 75
1, 610107, Control_c, 0, 64, 94
1, 610109, Note_off_c, 0, 65, 65
1, 610109, Note_on_c, 0, 81, 101
1, 610121, Control_c, 0, 64, 127
1, 610577, Note_on_c, 0, 82, 54
1, 610585, Note_on_c, 0, 77, 44
1, 610592, Note_on_c, 0, 74, 38
1, 610650, Note_off_c, 0, 81, 51
1, 610756, Note_off_c, 0, 74, 37
1, 610765, Note_off_c, 0, 77, 55
1, 610768, Note_off_c, 0, 82, 54
1, 610833, Note_on_c, 0, 81, 55
1, 610841, Note_on_c, 0, 72, 47
1, 610854, Note_on_c, 0, 75, 34
1, 610888, Note_off_c, 0, 81, 52
1, 610894, Note_off_c, 0, 72, 54
1, 610902, Note_off_c, 0, 75, 45
1, 610963, Note_on_c, 0, 74, 35
1, 610969, Note_on_c, 0, 82, 43
1, 610982, Note_on_c, 0, 77, 38
1, 611012, Note_off_c, 0, 82, 46
1, 611020, Note_off_c, 0, 74, 45
1, 611025, Note_off_c, 0, 77, 56
1, 611051, Note_on_c, 0, 81, 53
1, 611059, Note_on_c, 0, 72, 41
1, 611074, Note_on_c, 0, 75, 10
1, 611085, Note_off_c, 0, 81, 49
1, 611098, Note_off_c, 0, 72, 52
1, 611125, Note_on_c, 0, 82, 56
1, 611128, Note_off_c, 0, 75, 41
1, 611141, Note_on_c, 0, 74, 44
1, 611149, Note_on_c, 0, 77, 45
1, 611167, Note_off_c, 0, 82, 57
1, 611169, Note_off_c, 0, 74, 56
1, 611181, Note_on_c, 0, 81, 60
1, 611191, Note_off_c, 0, 77, 59
1, 611210, Note_on_c, 0, 72, 39
1, 611211, Note_off_c, 0, 81, 56
1, 611238, Note_off_c, 0, 72, 53
1, 611255, Note_on_c, 0, 82, 65
1, 611258, Note_on_c, 0, 74, 52
1, 611272, Poly_aftertouch_c, 0, 75, 0
1, 611283, Note_on_c, 0, 77, 44
1, 611283, Note_off_c, 0, 74, 57
1, 611286, Note_off_c, 0, 82, 62
1, 611301, Note_on_c, 0, 81, 70
1, 611310, Poly_aftertouch_c, 0, 75, 127
1, 611311, Note_on_c, 0, 72, 72
1, 611313, Note_off_c, 0, 77, 57
1, 611337, Note_off_c, 0, 81, 55
1, 611341, Note_off_c, 0, 72, 60
1, 611354, Poly_aftertouch_c, 0, 75, 0
1, 611361, Note_on_c, 0, 82, 88
1, 611367, Note_on_c, 0, 74, 68
1, 611387, Note_on_c, 0, 77, 59
1, 611388, Note_off_c, 0, 74, 64
1, 611411, Note_off_c, 0, 82, 62
1, 611418, Note_on_c, 0, 72, 79
1, 611421, Note_on_c, 0, 81, 72
1, 611426, Note_off_c, 0, 77, 63
1, 611447, Note_on_c, 0, 75, 40
1, 611447, Note_off_c, 0, 81, 65
1, 611452, Note_off_c, 0, 72, 56
1, 611474, Note_on_c, 0, 82, 95
1, 611483, Note_on_c, 0, 74, 64
1, 611489, Note_off_c, 0, 75, 48
1, 611495, Note_on_c, 0, 77, 53
1, 611499, Note_off_c, 0, 74, 67
1, 611519, Note_off_c, 0, 82, 63
1, 611525, Note_on_c, 0, 72, 84
1, 611531, Note_on_c, 0, 81, 86
1, 611541, Note_on_c, 0, 75, 57
1, 611547, Note_off_c, 0, 77, 60
1, 611569, Note_off_c, 0, 81, 52
1, 611573, Note_off_c, 0, 75, 65
1, 611574, Note_off_c, 0, 72, 64
1, 611581, Note_on_c, 0, 82, 89
1, 611590, Note_on_c, 0, 77, 45
1, 611593, Note_on_c, 0, 74, 60
1, 611612, Note_off_c, 0, 74, 63
1, 611630, Note_on_c, 0, 72, 82
1, 611632, Note_off_c, 0, 82, 63
1, 611632, Poly_aftertouch_c, 0, 76, 127
1, 611636, Note_on_c, 0, 81, 83
1, 611638, Note_on_c, 0, 75, 76
1, 611662, Note_off_c, 0, 77, 58
1, 611682, Note_off_c, 0, 72, 64
1, 611687, Note_off_c, 0, 81, 62
1, 611688, Note_on_c, 0, 82, 91
1, 611688, Note_off_c, 0, 75, 57
1, 611697, Note_on_c, 0, 74, 72
1, 611701, Note_on_c, 0, 77, 38
1, 611712, Note_off_c, 0, 74, 68
1, 611736, Note_off_c, 0, 82, 63
1, 611739, Note_on_c, 0, 72, 76
1, 611741, Note_on_c, 0, 81, 75
1, 611742, Note_on_c, 0, 75, 62
1, 611760, Note_off_c, 0, 77, 60
1, 611767, Poly_aftertouch_c, 0, 76, 0
1, 611795, Note_off_c, 0, 72, 63
1, 611796, Note_off_c, 0, 75, 61
1, 611798, Note_on_c, 0, 82, 95
1, 611799, Note_off_c, 0, 81, 62
1, 611807, Note_on_c, 0, 74, 69
1, 611815, Note_on_c, 0, 77, 52
1, 611826, Note_off_c, 0, 74, 67
1, 611847, Note_off_c, 0, 82, 62
1, 611849, Note_on_c, 0, 81, 77
1, 611850, Note_on_c, 0, 72, 73
1, 611855, Note_on_c, 0, 75, 58
1, 611868, Note_off_c, 0, 77, 59
1, 611894, Note_off_c, 0, 75, 58
1, 611902, Note_on_c, 0, 82, 88
1, 611903, Note_off_c, 0, 72, 63
1, 611906, Note_off_c, 0, 81, 62
1, 611915, Note_on_c, 0, 77, 46
1, 611918, Note_on_c, 0, 74, 61
1, 611938, Note_off_c, 0, 74, 61
1, 611951, Note_off_c, 0, 82, 62
1, 611957, Note_on_c, 0, 81, 82
1, 611960, Note_on_c, 0, 72, 73
1, 611975, Note_on_c, 0, 75, 62
1, 611980, Note_off_c, 0, 77, 58
1, 612005, Note_off_c, 0, 75, 64
1, 612006, Note_on_c, 0, 82, 86
1, 612009, Note_off_c, 0, 72, 61
1, 612019, Note_off_c, 0, 81, 61
1, 612020, Note_on_c, 0, 74, 63
1, 612025, Note_on_c, 0, 77, 41
1, 612037, Note_off_c, 0, 74, 66
1, 612061, Note_off_c, 0, 82, 60
1, 612076, Note_on_c, 0, 81, 69
1, 612080, Note_off_c, 0, 77, 54
1, 612083, Note_on_c, 0, 75, 62
1, 612087, Note_on_c, 0, 72, 64
1, 612118, Note_on_c, 0, 82, 83
1, 612121, Note_off_c, 0, 75, 55
1, 612123, Note_off_c, 0, 72, 62
1, 612132, Note_off_c, 0, 81, 62
1, 612137, Note_on_c, 0, 74, 55
1, 612145, Note_on_c, 0, 77, 47
1, 612162, Note_off_c, 0, 74, 55
1, 612167, Note_off_c, 0, 82, 60
1, 612183, Note_off_c, 0, 77, 58
1, 612195, Note_on_c, 0, 81, 62
1, 612196, Note_on_c, 0, 72, 59
1, 612197, Note_on_c, 0, 75, 49
1, 612245, Note_off_c, 0, 72, 62
1, 612247, Note_off_c, 0, 75, 59
1, 612248, Note_on_c, 0, 82, 72
1, 612255, Note_off_c, 0, 81, 60
1, 612260, Note_on_c, 0, 74, 48
1, 612284, Note_on_c, 0, 77, 44
1, 612288, Note_off_c, 0, 74, 51
1, 612293, Note_off_c, 0, 82, 60
1, 612320, Note_on_c, 0, 81, 64
1, 612320, Note_off_c, 0, 77, 49
1, 612323, Note_on_c, 0, 72, 53
1, 612344, Note_on_c, 0, 75, 46
1, 612367, Note_off_c, 0, 72, 58
1, 612376, Note_off_c, 0, 75, 59
1, 612379, Note_on_c, 0, 74, 54
1, 612380, Note_off_c, 0, 81, 58
1, 612385, Note_on_c, 0, 82, 57
1, 612411, Note_off_c, 0, 74, 52
1, 612416, Note_off_c, 0, 82, 53
1, 612431, Note_on_c, 0, 77, 32
1, 612454, Note_on_c, 0, 81, 55
1, 612464, Note_on_c, 0, 72, 44
1, 612467, Note_off_c, 0, 77, 50
1, 612481, Note_on_c, 0, 75, 43
1, 612505, Note_off_c, 0, 72, 60
1, 612506, Note_off_c, 0, 81, 53
1, 612514, Note_off_c, 0, 75, 53
1, 612524, Note_on_c, 0, 82, 59
1, 612537, Note_on_c, 0, 74, 43
1, 612569, Note_off_c, 0, 82, 58
1, 612571, Note_off_c, 0, 74, 58
1, 612580, Note_on_c, 0, 77, 31
1, 612615, Note_off_c, 0, 77, 50
1, 612616, Note_on_c, 0, 81, 54
1, 612620, Note_on_c, 0, 72, 44
1, 612631, Note_on_c, 0, 75, 34
1, 612656, Note_off_c, 0, 81, 47
1, 612658, Note_off_c, 0, 72, 57
1, 612667, Note_off_c, 0, 75, 53
1, 612684, Note_on_c, 0, 74, 51
1, 612693, Note_on_c, 0, 82, 49
1, 612725, Note_on_c, 0, 77, 39
1, 612729, Note_off_c, 0, 74, 56
1, 612741, Note_off_c, 0, 82, 48
1, 612766, Note_off_c, 0, 77, 47
1, 612768, Note_on_c, 0, 81, 52
1, 612770, Note_on_c, 0, 75, 48
1, 612773, Note_on_c, 0, 72, 45
1, 612809, Note_off_c, 0, 72, 56
1, 612814, Note_off_c, 0, 75, 58
1, 612815, Note_off_c, 0, 81, 45
1, 612873, Note_on_c, 0, 74, 35
1, 612875, Note_on_c, 0, 82, 35
1, 612882, Note_on_c, 0, 77, 44
1, 612914, Note_off_c, 0, 74, 48
1, 612926, Note_off_c, 0, 82, 45
1, 612929, Note_off_c, 0, 77, 55
1, 612947, Note_on_c, 0, 72, 44
1, 612947, Note_on_c, 0, 81, 38
1, 612981, Note_on_c, 0, 75, 13
1, 613000, Note_off_c, 0, 72, 53
1, 613009, Note_off_c, 0, 81, 42
1, 613030, Note_off_c, 0, 75, 50
1, 613069, Note_on_c, 0, 82, 44
1, 613090, Note_on_c, 0, 77, 36
1, 613098, Note_on_c, 0, 74, 9
1, 613143, Note_off_c, 0, 82, 39
1, 613144, Note_off_c, 0, 77, 51
1, 613150, Note_off_c, 0, 74, 50
1, 613171, Note_on_c, 0, 81, 35
1, 613178, Note_on_c, 0, 72, 28
1, 613185, Note_on_c, 0, 75, 23
1, 613243, Note_off_c, 0, 75, 43
1, 613244, Note_off_c, 0, 72, 40
1, 613276, Note_off_c, 0, 81, 37
1, 613296, Note_on_c, 0, 82, 43
1, 613302, Note_on_c, 0, 74, 30
1, 613333, Note_on_c, 0, 77, 28
1, 613391, Note_off_c, 0, 74, 37
1, 613393, Note_off_c, 0, 77, 43
1, 613405, Note_off_c, 0, 82, 44
1, 613447, Note_on_c, 0, 81, 39
1, 613462, Note_on_c, 0, 72, 28
1, 613463, Note_on_c, 0, 75, 27
1, 613514, Note_off_c, 0, 81, 40
1, 613523, Note_off_c, 0, 72, 42
1, 613526, Note_off_c, 0, 75, 41
1, 613579, Note_on_c, 0, 82, 39
1, 613607, Note_on_c, 0, 74, 16
1, 613635, Note_on_c, 0, 77, 5
1, 613645, Note_off_c, 0, 82, 41
1, 613658, Note_off_c, 0, 74, 47
1, 613695, Note_off_c, 0, 77, 51
1, 613769, Note_on_c, 0, 81, 44
1, 613778, Note_on_c, 0, 72, 30
1, 613784, Note_on_c, 0, 75, 28
1, 613841, Note_off_c, 0, 75, 44
1, 613855, Note_off_c, 0, 72, 36
1, 613941, Note_off_c, 0, 81, 31
1, 613963, Note_on_c, 0, 82, 40
1, 613966, Note_on_c, 0, 74, 34
1, 613984, Note_on_c, 0, 77, 25
1, 613990, Note_off_c, 0, 82, 58
1, 614001, Note_off_c, 0, 74, 49
1, 614023, Note_off_c, 0, 77, 52
1, 614188, Note_on_c, 0, 81, 48
1, 614198, Note_on_c, 0, 72, 30
1, 614205, Note_on_c, 0, 75, 20
1, 614246, Note_off_c, 0, 72, 46
1, 614249, Note_off_c, 0, 75, 44
1, 614440, Note_on_c, 0, 80, 60
1, 614462, Note_on_c, 0, 71, 38
1, 614476, Note_off_c, 0, 81, 25
1, 614510, Note_off_c, 0, 71, 60
1, 614792, Note_on_c, 0, 81, 64
1, 614801, Note_on_c, 0, 75, 49
1, 614806, Note_on_c, 0, 72, 42
1, 614817, Note_off_c, 0, 80, 32
1, 614837, Note_off_c, 0, 72, 60
1, 614863, Note_off_c, 0, 75, 54
1, 614890, Note_off_c, 0, 81, 62
1, 615489, Note_on_c, 0, 86, 45
1, 615492, Note_on_c, 0, 77, 36
1, 615496, Note_on_c, 0, 81, 37
1, 615555, Control_c, 0, 64, 99
1, 615570, Control_c, 0, 64, 78
1, 615587, Control_c, 0, 64, 66
1, 615601, Control_c, 0, 64, 55
1, 615616, Control_c, 0, 64, 43
1, 615631, Control_c, 0, 64, 43
1, 615646, Control_c, 0, 64, 47
1, 615660, Control_c, 0, 64, 53
1, 615675, Control_c, 0, 64, 56
1, 615690, Control_c, 0, 64, 59
1, 615705, Control_c, 0, 64, 63
1, 615720, Control_c, 0, 64, 68
1, 615734, Control_c, 0, 64, 74
1, 615749, Control_c, 0, 64, 80
1, 615764, Control_c, 0, 64, 85
1, 615779, Control_c, 0, 64, 87
1, 615794, Control_c, 0, 64, 91
1, 615809, Control_c, 0, 64, 97
1, 615820, Note_off_c, 0, 77, 45
1, 615824, Control_c, 0, 64, 109
1, 615839, Control_c, 0, 64, 127
1, 615850, Note_off_c, 0, 81, 39
1, 615979, Control_c, 0, 67, 19
1, 615994, Control_c, 0, 67, 22
1, 616009, Control_c, 0, 67, 25
1, 616024, Control_c, 0, 67, 30
1, 616039, Control_c, 0, 67, 38
1, 616054, Control_c, 0, 67, 48
1, 616068, Control_c, 0, 67, 56
1, 616083, Control_c, 0, 67, 60
1, 616098, Control_c, 0, 67, 62
1, 616113, Control_c, 0, 67, 64
1, 616128, Control_c, 0, 67, 67
1, 616142, Control_c, 0, 67, 70
1, 616157, Control_c, 0, 67, 72
1, 616172, Control_c, 0, 67, 75
1, 616187, Control_c, 0, 67, 79
1, 616202, Control_c, 0, 67, 85
1, 616217, Control_c, 0, 67, 91
1, 616218, Note_on_c, 0, 85, 39
1, 616221, Note_off_c, 0, 86, 35
1, 616222, Note_on_c, 0, 76, 29
1, 616231, Control_c, 0, 67, 99
1, 616243, Note_on_c, 0, 81, 22
1, 616246, Control_c, 0, 67, 105
1, 616261, Control_c, 0, 67, 113
1, 616276, Control_c, 0, 67, 121
1, 616291, Control_c, 0, 67, 127
1, 616380, Control_c, 0, 64, 101
1, 616395, Control_c, 0, 64, 87
1, 616410, Control_c, 0, 64, 75
1, 616425, Control_c, 0, 64, 65
1, 616440, Control_c, 0, 64, 53
1, 616455, Control_c, 0, 64, 40
1, 616470, Control_c, 0, 64, 34
1, 616484, Control_c, 0, 64, 34
1, 616499, Control_c, 0, 64, 0
1, 616558, Control_c, 0, 64, 36
1, 616573, Control_c, 0, 64, 42
1, 616588, Control_c, 0, 64, 49
1, 616602, Control_c, 0, 64, 56
1, 616617, Control_c, 0, 64, 61
1, 616632, Control_c, 0, 64, 64
1, 616647, Control_c, 0, 64, 68
1, 616662, Control_c, 0, 64, 73
1, 616676, Control_c, 0, 64, 78
1, 616691, Control_c, 0, 64, 82
1, 616714, Control_c, 0, 64, 88
1, 616729, Control_c, 0, 64, 95
1, 616744, Control_c, 0, 64, 104
1, 616758, Control_c, 0, 64, 124
1, 616773, Control_c, 0, 64, 127
1, 616810, Note_off_c, 0, 76, 35
1, 616890, Note_off_c, 0, 85, 42
1, 616925, Note_off_c, 0, 81, 32
1, 617895, Note_on_c, 0, 84, 40
1, 617913, Note_on_c, 0, 75, 21
1, 617934, Note_on_c, 0, 81, 23
1, 617996, Control_c, 0, 64, 92
1, 618011, Control_c, 0, 64, 76
1, 618025, Control_c, 0, 64, 65
1, 618040, Control_c, 0, 64, 60
1, 618054, Control_c, 0, 64, 61
1, 618069, Control_c, 0, 64, 62
1, 618084, Control_c, 0, 64, 63
1, 618099, Control_c, 0, 64, 64
1, 618114, Control_c, 0, 64, 67
1, 618128, Control_c, 0, 64, 70
1, 618143, Control_c, 0, 64, 77
1, 618158, Control_c, 0, 64, 86
1, 618172, Control_c, 0, 64, 94
1, 618187, Control_c, 0, 64, 102
1, 618191, Note_off_c, 0, 84, 53
1, 618210, Control_c, 0, 64, 112
1, 618225, Control_c, 0, 64, 127
1, 618226, Note_off_c, 0, 81, 43
1, 618252, Note_off_c, 0, 75, 42
1, 619152, Control_c, 0, 64, 91
1, 619153, Note_on_c, 0, 46, 67
1, 619167, Control_c, 0, 64, 60
1, 619167, Control_c, 0, 67, 99
1, 619172, Note_on_c, 0, 82, 72
1, 619177, Note_on_c, 0, 70, 67
1, 619182, Control_c, 0, 64, 0
1, 619182, Control_c, 0, 67, 0
1, 619183, Note_off_c, 0, 46, 66
1, 619208, Note_off_c, 0, 70, 61
1, 619220, Note_off_c, 0, 82, 53
1, 619266, Note_on_c, 0, 62, 54
1, 619269, Note_on_c, 0, 65, 45
1, 619272, Note_on_c, 0, 77, 44
1, 619275, Note_on_c, 0, 74, 46
1, 619294, Note_off_c, 0, 62, 63
1, 619297, Note_off_c, 0, 65, 52
1, 619299, Note_off_c, 0, 74, 60
1, 619304, Note_off_c, 0, 77, 62
1, 619361, Note_on_c, 0, 70, 67
1, 619361, Note_on_c, 0, 82, 65
1, 619364, Note_on_c, 0, 62, 63
1, 619379, Note_off_c, 0, 70, 66
1, 619379, Note_off_c, 0, 82, 66
1, 619383, Note_on_c, 0, 58, 43
1, 619394, Note_off_c, 0, 62, 66
1, 619409, Note_off_c, 0, 58, 55
1, 619444, Note_on_c, 0, 53, 53
1, 619445, Note_on_c, 0, 82, 81
1, 619451, Note_on_c, 0, 77, 59
1, 619460, Note_on_c, 0, 58, 42
1, 619468, Note_off_c, 0, 82, 66
1, 619469, Note_off_c, 0, 53, 58
1, 619470, Note_off_c, 0, 77, 67
1, 619487, Note_off_c, 0, 58, 55
1, 619534, Note_on_c, 0, 46, 72
1, 619534, Note_on_c, 0, 86, 82
1, 619540, Note_on_c, 0, 74, 82
1, 619553, Note_off_c, 0, 86, 72
1, 619558, Note_off_c, 0, 46, 67
1, 619561, Note_off_c, 0, 74, 71
1, 619624, Note_on_c, 0, 82, 69
1, 619626, Note_on_c, 0, 77, 69
1, 619633, Note_on_c, 0, 62, 64
1, 619634, Note_on_c, 0, 65, 55
1, 619651, Note_off_c, 0, 82, 66
1, 619653, Note_off_c, 0, 77, 65
1, 619656, Note_off_c, 0, 65, 61
1, 619662, Note_off_c, 0, 62, 66
1, 619735, Note_on_c, 0, 70, 77
1, 619738, Note_on_c, 0, 62, 64
1, 619740, Note_on_c, 0, 82, 71
1, 619746, Note_on_c, 0, 58, 50
1, 619758, Note_off_c, 0, 70, 69
1, 619768, Note_off_c, 0, 62, 65
1, 619770, Note_off_c, 0, 58, 59
1, 619770, Note_off_c, 0, 82, 62
1, 619816, Note_on_c, 0, 77, 64
1, 619823, Note_on_c, 0, 74, 53
1, 619826, Note_on_c, 0, 53, 48
1, 619841, Note_off_c, 0, 77, 66
1, 619844, Note_on_c, 0, 58, 38
1, 619848, Note_off_c, 0, 74, 62
1, 619850, Note_off_c, 0, 53, 58
1, 619874, Note_off_c, 0, 58, 55
1, 619901, Control_c, 0, 64, 64
1, 619916, Note_on_c, 0, 46, 78
1, 619916, Note_on_c, 0, 77, 73
1, 619916, Control_c, 0, 64, 80
1, 619919, Note_on_c, 0, 65, 90
1, 619940, Note_off_c, 0, 46, 67
1, 619946, Control_c, 0, 64, 67
1, 619949, Note_off_c, 0, 65, 61
1, 619955, Note_off_c, 0, 77, 54
1, 619961, Control_c, 0, 64, 35
1, 619975, Control_c, 0, 64, 0
1, 620017, Note_on_c, 0, 65, 48
1, 620017, Note_on_c, 0, 70, 52
1, 620018, Note_on_c, 0, 62, 60
1, 620029, Note_on_c, 0, 74, 15
1, 620036, Note_off_c, 0, 65, 63
1, 620038, Note_off_c, 0, 70, 60
1, 620039, Note_off_c, 0, 62, 63
1, 620066, Note_off_c, 0, 74, 38
1, 620110, Note_on_c, 0, 65, 65
1, 620113, Note_on_c, 0, 62, 62
1, 620113, Note_on_c, 0, 77, 63
1, 620119, Note_on_c, 0, 58, 53
1, 620130, Note_off_c, 0, 65, 64
1, 620134, Note_off_c, 0, 77, 66
1, 620142, Note_off_c, 0, 62, 64
1, 620144, Note_off_c, 0, 58, 60
1, 620193, Note_on_c, 0, 53, 62
1, 620197, Note_on_c, 0, 77, 73
1, 620215, Note_on_c, 0, 58, 45
1, 620223, Note_off_c, 0, 53, 64
1, 620242, Note_off_c, 0, 58, 53
1, 620250, Note_off_c, 0, 77, 64
1, 620288, Note_on_c, 0, 70, 85
1, 620290, Note_on_c, 0, 82, 82
1, 620293, Note_on_c, 0, 46, 68
1, 620306, Note_off_c, 0, 70, 73
1, 620309, Note_off_c, 0, 82, 71
1, 620321, Note_off_c, 0, 46, 65
1, 620377, Note_on_c, 0, 77, 69
1, 620387, Note_on_c, 0, 65, 64
1, 620390, Note_on_c, 0, 74, 44
1, 620396, Note_on_c, 0, 62, 58
1, 620402, Note_off_c, 0, 77, 66
1, 620411, Note_off_c, 0, 65, 66
1, 620415, Note_off_c, 0, 74, 58
1, 620417, Note_off_c, 0, 62, 63
1, 620485, Note_on_c, 0, 77, 81
1, 620486, Note_on_c, 0, 65, 81
1, 620491, Note_on_c, 0, 62, 66
1, 620510, Note_on_c, 0, 58, 43
1, 620518, Note_off_c, 0, 62, 66
1, 620536, Note_off_c, 0, 65, 54
1, 620537, Note_off_c, 0, 77, 53
1, 620539, Note_off_c, 0, 58, 54
1, 620565, Note_on_c, 0, 74, 55
1, 620577, Note_on_c, 0, 70, 59
1, 620586, Note_on_c, 0, 53, 48
1, 620587, Note_on_c, 0, 58, 53
1, 620587, Note_off_c, 0, 74, 64
1, 620598, Note_off_c, 0, 70, 64
1, 620612, Note_off_c, 0, 58, 58
1, 620613, Note_off_c, 0, 53, 54
1, 620650, Control_c, 0, 64, 55
1, 620665, Control_c, 0, 64, 68
1, 620669, Note_on_c, 0, 46, 83
1, 620669, Note_on_c, 0, 62, 85
1, 620669, Note_on_c, 0, 74, 75
1, 620680, Control_c, 0, 64, 64
1, 620691, Note_off_c, 0, 74, 70
1, 620691, Note_off_c, 0, 62, 66
1, 620695, Note_off_c, 0, 46, 67
1, 620695, Control_c, 0, 64, 0
1, 620771, Note_on_c, 0, 65, 52
1, 620780, Note_on_c, 0, 62, 54
1, 620792, Note_off_c, 0, 65, 63
1, 620793, Note_on_c, 0, 58, 32
1, 620805, Note_off_c, 0, 62, 58
1, 620838, Note_off_c, 0, 58, 43
1, 620857, Note_on_c, 0, 62, 74
1, 620857, Note_on_c, 0, 74, 74
1, 620865, Note_on_c, 0, 53, 63
1, 620880, Note_off_c, 0, 74, 68
1, 620882, Note_off_c, 0, 62, 67
1, 620899, Note_off_c, 0, 53, 63
1, 620953, Note_on_c, 0, 62, 57
1, 620953, Note_on_c, 0, 63, 74
1, 620953, Note_on_c, 0, 75, 73
1, 620965, Note_on_c, 0, 58, 43
1, 620974, Note_off_c, 0, 75, 69
1, 620975, Note_off_c, 0, 63, 70
1, 620976, Note_off_c, 0, 62, 63
1, 620996, Note_off_c, 0, 58, 53
1, 621037, Control_c, 0, 64, 36
1, 621047, Note_on_c, 0, 67, 93
1, 621049, Note_on_c, 0, 79, 90
1, 621051, Control_c, 0, 64, 60
1, 621052, Note_on_c, 0, 46, 70
1, 621059, Note_on_c, 0, 75, 41
1, 621066, Control_c, 0, 64, 35
1, 621076, Note_off_c, 0, 46, 66
1, 621081, Control_c, 0, 64, 0
1, 621082, Note_off_c, 0, 79, 49
1, 621084, Note_off_c, 0, 67, 57
1, 621087, Note_off_c, 0, 75, 34
1, 621135, Note_on_c, 0, 74, 62
1, 621141, Note_on_c, 0, 62, 61
1, 621150, Note_on_c, 0, 70, 53
1, 621158, Note_on_c, 0, 58, 39
1, 621168, Note_off_c, 0, 74, 64
1, 621171, Note_off_c, 0, 62, 66
1, 621173, Note_off_c, 0, 70, 63
1, 621184, Note_off_c, 0, 58, 58
1, 621243, Note_on_c, 0, 65, 89
1, 621248, Note_on_c, 0, 77, 76
1, 621254, Note_on_c, 0, 53, 68
1, 621266, Note_on_c, 0, 58, 53
1, 621275, Note_off_c, 0, 77, 63
1, 621284, Note_off_c, 0, 53, 65
1, 621287, Note_off_c, 0, 65, 60
1, 621289, Note_off_c, 0, 58, 60
1, 621335, Note_on_c, 0, 74, 58
1, 621339, Note_on_c, 0, 70, 53
1, 621343, Note_on_c, 0, 62, 58
1, 621347, Note_on_c, 0, 58, 59
1, 621357, Note_off_c, 0, 74, 64
1, 621362, Note_off_c, 0, 70, 55
1, 621364, Note_off_c, 0, 62, 62
1, 621368, Note_off_c, 0, 58, 63
1, 621427, Note_on_c, 0, 65, 94
1, 621428, Note_on_c, 0, 77, 86
1, 621430, Control_c, 0, 64, 68
1, 621443, Note_on_c, 0, 41, 67
1, 621445, Control_c, 0, 64, 74
1, 621459, Note_off_c, 0, 65, 63
1, 621460, Control_c, 0, 64, 70
1, 621464, Note_off_c, 0, 77, 61
1, 621466, Note_off_c, 0, 41, 59
1, 621474, Control_c, 0, 64, 48
1, 621489, Control_c, 0, 64, 0
1, 621525, Note_on_c, 0, 69, 67
1, 621529, Note_on_c, 0, 72, 68
1, 621535, Note_on_c, 0, 63, 70
1, 621549, Note_off_c, 0, 69, 69
1, 621555, Note_off_c, 0, 63, 67
1, 621556, Note_off_c, 0, 72, 68
1, 621625, Note_on_c, 0, 67, 71
1, 621627, Note_on_c, 0, 79, 77
1, 621642, Note_on_c, 0, 53, 57
1, 621642, Note_off_c, 0, 67, 69
1, 621648, Note_off_c, 0, 79, 70
1, 621665, Note_off_c, 0, 53, 61
1, 621666, Note_on_c, 0, 60, 7
1, 621704, Note_off_c, 0, 60, 0
1, 621716, Note_on_c, 0, 69, 76
1, 621721, Note_on_c, 0, 63, 66
1, 621722, Note_on_c, 0, 81, 68
1, 621731, Note_on_c, 0, 60, 11
1, 621736, Note_off_c, 0, 69, 70
1, 621739, Note_off_c, 0, 81, 66
1, 621749, Note_off_c, 0, 63, 67
1, 621755, Note_off_c, 0, 60, 58
1, 621800, Control_c, 0, 64, 53
1, 621806, Note_on_c, 0, 82, 92
1, 621807, Note_on_c, 0, 70, 85
1, 621815, Control_c, 0, 64, 64
1, 621821, Note_on_c, 0, 46, 72
1, 621830, Control_c, 0, 64, 61
1, 621844, Control_c, 0, 64, 46
1, 621849, Note_off_c, 0, 46, 65
1, 621859, Control_c, 0, 64, 0
1, 621885, Note_off_c, 0, 70, 62
1, 621898, Note_on_c, 0, 74, 63
1, 621908, Note_on_c, 0, 77, 53
1, 621911, Note_on_c, 0, 65, 72
1, 621916, Note_on_c, 0, 62, 69
1, 621944, Note_off_c, 0, 65, 67
1, 621946, Note_off_c, 0, 74, 60
1, 621952, Note_off_c, 0, 62, 67
1, 621952, Note_off_c, 0, 77, 62
1, 621999, Note_off_c, 0, 82, 0
1, 621999, Note_on_c, 0, 82, 6
1, 622010, Note_on_c, 0, 70, 73
1, 622035, Note_on_c, 0, 62, 52
1, 622041, Note_off_c, 0, 70, 59
1, 622045, Note_on_c, 0, 58, 45
1, 622059, Note_off_c, 0, 62, 59
1, 622068, Note_off_c, 0, 82, 58
1, 622072, Note_off_c, 0, 58, 55
1, 622113, Note_on_c, 0, 53, 49
1, 622119, Note_on_c, 0, 74, 35
1, 622125, Note_on_c, 0, 58, 47
1, 622139, Note_off_c, 0, 53, 55
1, 622140, Note_on_c, 0, 77, 24
1, 622144, Note_off_c, 0, 74, 50
1, 622152, Note_off_c, 0, 58, 51
1, 622175, Note_off_c, 0, 77, 45
1, 622193, Control_c, 0, 64, 61
1, 622208, Note_on_c, 0, 70, 71
1, 622208, Control_c, 0, 64, 57
1, 622212, Note_on_c, 0, 82, 59
1, 622214, Note_on_c, 0, 46, 61
1, 622223, Control_c, 0, 64, 0
1, 622234, Note_off_c, 0, 70, 66
1, 622239, Note_off_c, 0, 46, 60
1, 622241, Note_off_c, 0, 82, 55
1, 622286, Note_on_c, 0, 74, 56
1, 622291, Note_on_c, 0, 77, 53
1, 622307, Note_on_c, 0, 65, 51
1, 622308, Note_on_c, 0, 62, 58
1, 622316, Note_off_c, 0, 74, 65
1, 622325, Note_off_c, 0, 77, 63
1, 622330, Note_off_c, 0, 62, 63
1, 622330, Note_off_c, 0, 65, 60
1, 622393, Note_on_c, 0, 70, 70
1, 622405, Note_on_c, 0, 62, 60
1, 622405, Note_on_c, 0, 82, 62
1, 622410, Note_off_c, 0, 70, 67
1, 622423, Note_off_c, 0, 82, 62
1, 622427, Note_on_c, 0, 58, 33
1, 622433, Note_off_c, 0, 62, 63
1, 622479, Note_on_c, 0, 53, 62
1, 622484, Note_off_c, 0, 58, 0
1, 622487, Note_on_c, 0, 82, 77
1, 622494, Note_on_c, 0, 77, 51
1, 622502, Note_on_c, 0, 58, 28
1, 622509, Note_off_c, 0, 82, 68
1, 622509, Note_off_c, 0, 53, 64
1, 622516, Note_off_c, 0, 77, 60
1, 622536, Note_off_c, 0, 58, 43
1, 622572, Note_on_c, 0, 86, 76
1, 622578, Note_on_c, 0, 74, 75
1, 622581, Note_on_c, 0, 46, 68
1, 622593, Note_off_c, 0, 74, 69
1, 622593, Note_off_c, 0, 86, 70
1, 622604, Note_off_c, 0, 46, 61
1, 622660, Note_on_c, 0, 77, 70
1, 622660, Note_on_c, 0, 82, 71
1, 622681, Note_on_c, 0, 65, 48
1, 622683, Note_off_c, 0, 82, 69
1, 622685, Note_off_c, 0, 77, 68
1, 622685, Note_on_c, 0, 62, 58
1, 622712, Note_off_c, 0, 65, 57
1, 622716, Note_off_c, 0, 62, 61
1, 622768, Note_on_c, 0, 82, 81
1, 622770, Note_on_c, 0, 70, 81
1, 622789, Note_on_c, 0, 62, 57
1, 622796, Note_off_c, 0, 70, 64
1, 622812, Note_off_c, 0, 62, 61
1, 622820, Note_off_c, 0, 82, 61
1, 622825, Note_on_c, 0, 58, 8
1, 622858, Note_on_c, 0, 74, 58
1, 622858, Note_on_c, 0, 77, 58
1, 622867, Note_on_c, 0, 53, 59
1, 622880, Note_off_c, 0, 77, 66
1, 622887, Note_off_c, 0, 74, 64
1, 622894, Note_off_c, 0, 53, 63
1, 622898, Note_off_c, 0, 58, 62
1, 622927, Control_c, 0, 64, 60
1, 622942, Control_c, 0, 64, 67
1, 622957, Control_c, 0, 64, 63
1, 622959, Note_on_c, 0, 77, 75
1, 622964, Note_on_c, 0, 65, 78
1, 622967, Note_on_c, 0, 46, 59
1, 622971, Control_c, 0, 64, 0
1, 622986, Note_off_c, 0, 65, 71
1, 622988, Note_off_c, 0, 77, 59
1, 622995, Note_off_c, 0, 46, 38
1, 623061, Note_on_c, 0, 65, 63
1, 623066, Note_on_c, 0, 62, 62
1, 623081, Note_off_c, 0, 65, 65
1, 623087, Note_off_c, 0, 62, 63
1, 623148, Note_on_c, 0, 65, 66
1, 623149, Note_on_c, 0, 77, 62
1, 623161, Note_on_c, 0, 62, 58
1, 623166, Note_off_c, 0, 77, 67
1, 623167, Note_off_c, 0, 65, 65
1, 623168, Note_on_c, 0, 58, 50
1, 623183, Note_off_c, 0, 62, 63
1, 623194, Note_off_c, 0, 58, 59
1, 623232, Note_on_c, 0, 77, 72
1, 623233, Note_on_c, 0, 53, 60
1, 623241, Note_on_c, 0, 74, 50
1, 623248, Note_on_c, 0, 58, 46
1, 623256, Note_off_c, 0, 53, 62
1, 623263, Note_off_c, 0, 74, 60
1, 623278, Note_off_c, 0, 58, 48
1, 623281, Note_off_c, 0, 77, 62
1, 623324, Note_on_c, 0, 70, 81
1, 623326, Note_on_c, 0, 82, 80
1, 623341, Note_on_c, 0, 46, 58
1, 623345, Note_off_c, 0, 82, 68
1, 623346, Note_off_c, 0, 70, 67
1, 623368, Note_off_c, 0, 46, 59
1, 623416, Note_on_c, 0, 77, 65
1, 623433, Note_on_c, 0, 65, 54
1, 623434, Note_on_c, 0, 62, 63
1, 623434, Note_on_c, 0, 74, 25
1, 623434, Note_off_c, 0, 77, 68
1, 623463, Note_off_c, 0, 65, 62
1, 623464, Note_off_c, 0, 74, 48
1, 623469, Note_off_c, 0, 62, 64
1, 623527, Note_on_c, 0, 77, 71
1, 623531, Note_on_c, 0, 65, 82
1, 623532, Note_on_c, 0, 62, 66
1, 623550, Note_on_c, 0, 58, 47
1, 623561, Note_off_c, 0, 62, 66
1, 623564, Note_off_c, 0, 65, 62
1, 623569, Note_off_c, 0, 77, 59
1, 623576, Note_off_c, 0, 58, 57
1, 623610, Note_on_c, 0, 74, 53
1, 623619, Note_on_c, 0, 53, 52
1, 623627, Note_on_c, 0, 58, 49
1, 623633, Note_off_c, 0, 74, 61
1, 623645, Note_off_c, 0, 53, 57
1, 623647, Note_on_c, 0, 70, 18
1, 623650, Note_off_c, 0, 58, 60
1, 623683, Note_off_c, 0, 70, 30
1, 623691, Control_c, 0, 64, 37
1, 623706, Control_c, 0, 64, 55
1, 623706, Control_c, 0, 67, 20
1, 623720, Control_c, 0, 64, 39
1, 623722, Note_on_c, 0, 62, 84
1, 623723, Note_on_c, 0, 74, 68
1, 623728, Note_on_c, 0, 46, 67
1, 623735, Control_c, 0, 64, 0
1, 623743, Note_off_c, 0, 74, 64
1, 623752, Note_off_c, 0, 62, 61
1, 623753, Note_off_c, 0, 46, 65
1, 623814, Note_on_c, 0, 65, 65
1, 623827, Note_on_c, 0, 58, 51
1, 623828, Note_on_c, 0, 62, 47
1, 623836, Note_off_c, 0, 65, 66
1, 623852, Note_off_c, 0, 58, 59
1, 623856, Note_off_c, 0, 62, 54
1, 623919, Note_on_c, 0, 62, 62
1, 623931, Note_on_c, 0, 74, 46
1, 623931, Note_on_c, 0, 53, 43
1, 623935, Note_on_c, 0, 58, 40
1, 623938, Note_off_c, 0, 62, 63
1, 623959, Note_off_c, 0, 74, 36
1, 623961, Note_off_c, 0, 53, 51
1, 623964, Note_off_c, 0, 58, 54
1, 623999, Note_on_c, 0, 62, 68
1, 624003, Note_on_c, 0, 75, 74
1, 624006, Note_on_c, 0, 63, 71
1, 624019, Note_off_c, 0, 62, 66
1, 624024, Note_off_c, 0, 63, 67
1, 624024, Note_off_c, 0, 75, 68
1, 624092, Control_c, 0, 64, 56
1, 624103, Note_on_c, 0, 67, 73
1, 624104, Note_on_c, 0, 79, 78
1, 624106, Note_on_c, 0, 46, 68
1, 624107, Control_c, 0, 64, 57
1, 624121, Control_c, 0, 64, 0
1, 624121, Control_c, 0, 67, 0
1, 624127, Note_off_c, 0, 79, 63
1, 624131, Note_off_c, 0, 46, 65
1, 624140, Note_off_c, 0, 67, 49
1, 624183, Note_on_c, 0, 74, 63
1, 624202, Note_on_c, 0, 58, 61
1, 624204, Note_on_c, 0, 62, 63
1, 624220, Note_off_c, 0, 74, 64
1, 624225, Note_off_c, 0, 62, 63
1, 624231, Note_off_c, 0, 58, 65
1, 624234, Note_on_c, 0, 70, 17
1, 624262, Note_off_c, 0, 70, 41
1, 624298, Note_on_c, 0, 65, 86
1, 624306, Note_on_c, 0, 77, 68
1, 624312, Note_on_c, 0, 58, 60
1, 624316, Note_on_c, 0, 53, 53
1, 624325, Note_off_c, 0, 77, 60
1, 624329, Note_off_c, 0, 65, 61
1, 624333, Note_off_c, 0, 58, 61
1, 624339, Note_off_c, 0, 53, 59
1, 624395, Note_on_c, 0, 62, 55
1, 624400, Note_on_c, 0, 70, 47
1, 624406, Note_on_c, 0, 74, 38
1, 624413, Note_on_c, 0, 58, 51
1, 624417, Note_off_c, 0, 62, 61
1, 624423, Note_off_c, 0, 70, 61
1, 624433, Note_off_c, 0, 74, 47
1, 624438, Note_off_c, 0, 58, 59
1, 624456, Control_c, 0, 64, 63
1, 624471, Control_c, 0, 64, 71
1, 624486, Control_c, 0, 64, 69
1, 624486, Note_on_c, 0, 65, 92
1, 624495, Note_on_c, 0, 77, 63
1, 624500, Control_c, 0, 64, 56
1, 624510, Note_off_c, 0, 65, 68
1, 624512, Note_off_c, 0, 77, 65
1, 624515, Control_c, 0, 64, 0
1, 624525, Note_on_c, 0, 41, 14
1, 624551, Note_on_c, 0, 43, 17
1, 624551, Note_off_c, 0, 43, 127
1, 624571, Note_off_c, 0, 41, 30
1, 624585, Note_on_c, 0, 63, 77
1, 624586, Note_on_c, 0, 72, 68
1, 624588, Note_on_c, 0, 69, 63
1, 624607, Note_off_c, 0, 63, 70
1, 624608, Note_off_c, 0, 69, 65
1, 624612, Note_off_c, 0, 72, 68
1, 624684, Note_on_c, 0, 67, 78
1, 624686, Note_on_c, 0, 79, 74
1, 624690, Note_on_c, 0, 53, 63
1, 624692, Note_on_c, 0, 60, 19
1, 624704, Note_off_c, 0, 67, 72
1, 624709, Note_off_c, 0, 79, 68
1, 624714, Note_off_c, 0, 53, 60
1, 624748, Note_off_c, 0, 60, 0
1, 624762, Note_on_c, 0, 60, 48
1, 624771, Note_on_c, 0, 63, 65
1, 624781, Note_on_c, 0, 69, 70
1, 624790, Note_on_c, 0, 81, 54
1, 624791, Note_off_c, 0, 60, 66
1, 624799, Note_off_c, 0, 69, 68
1, 624800, Note_off_c, 0, 63, 67
1, 624813, Note_off_c, 0, 81, 59
1, 624840, Control_c, 0, 67, 19
1, 624867, Note_on_c, 0, 82, 87
1, 624869, Control_c, 0, 67, 22
1, 624870, Note_on_c, 0, 70, 74
1, 624879, Note_on_c, 0, 46, 64
1, 624899, Control_c, 0, 67, 28
1, 624903, Note_off_c, 0, 46, 60
1, 624914, Control_c, 0, 67, 35
1, 624929, Control_c, 0, 67, 50
1, 624944, Note_off_c, 0, 70, 56
1, 624951, Control_c, 0, 67, 71
1, 624965, Control_c, 0, 67, 87
1, 624974, Note_on_c, 0, 77, 53
1, 624976, Note_on_c, 0, 62, 57
1, 624976, Note_on_c, 0, 74, 53
1, 624980, Control_c, 0, 67, 101
1, 624991, Note_on_c, 0, 58, 46
1, 624995, Control_c, 0, 67, 111
1, 624997, Note_off_c, 0, 62, 62
1, 625010, Control_c, 0, 67, 119
1, 625016, Note_off_c, 0, 58, 57
1, 625016, Note_off_c, 0, 74, 61
1, 625019, Note_off_c, 0, 77, 59
1, 625025, Control_c, 0, 67, 126
1, 625073, Note_on_c, 0, 70, 70
1, 625076, Note_on_c, 0, 53, 43
1, 625088, Note_on_c, 0, 58, 52
1, 625105, Note_off_c, 0, 53, 57
1, 625112, Note_off_c, 0, 58, 61
1, 625149, Note_off_c, 0, 70, 59
1, 625155, Note_off_c, 0, 82, 57
1, 625161, Note_on_c, 0, 74, 59
1, 625169, Note_on_c, 0, 77, 52
1, 625207, Note_off_c, 0, 74, 54
1, 625217, Note_off_c, 0, 77, 53
1, 625278, Control_c, 0, 64, 46
1, 625279, Note_on_c, 0, 70, 66
1, 625285, Note_on_c, 0, 82, 47
1, 625292, Control_c, 0, 64, 62
1, 625307, Control_c, 0, 64, 67
1, 625312, Note_on_c, 0, 62, 11
1, 625322, Control_c, 0, 64, 70
1, 625327, Note_off_c, 0, 70, 59
1, 625337, Control_c, 0, 64, 73
1, 625352, Control_c, 0, 64, 73
1, 625366, Control_c, 0, 64, 74
1, 625373, Note_off_c, 0, 82, 47
1, 625395, Note_on_c, 0, 65, 38
1, 625395, Note_on_c, 0, 77, 24
1, 625411, Control_c, 0, 64, 72
1, 625426, Control_c, 0, 64, 67
1, 625435, Note_off_c, 0, 77, 44
1, 625435, Note_off_c, 0, 62, 39
1, 625439, Note_off_c, 0, 65, 47
1, 625440, Control_c, 0, 64, 59
1, 625455, Control_c, 0, 64, 0
1, 625466, Note_on_c, 0, 58, 48
1, 625481, Note_on_c, 0, 84, 68
1, 625487, Note_on_c, 0, 72, 53
1, 625498, Note_off_c, 0, 84, 64
1, 625509, Note_off_c, 0, 72, 59
1, 625518, Note_off_c, 0, 58, 61
1, 625565, Note_on_c, 0, 65, 56
1, 625569, Note_on_c, 0, 86, 72
1, 625581, Note_on_c, 0, 74, 56
1, 625582, Note_on_c, 0, 62, 35
1, 625591, Note_off_c, 0, 86, 66
1, 625602, Note_off_c, 0, 74, 60
1, 625608, Note_off_c, 0, 65, 60
1, 625615, Note_off_c, 0, 62, 56
1, 625664, Note_on_c, 0, 57, 51
1, 625678, Control_c, 0, 64, 36
1, 625680, Note_on_c, 0, 84, 68
1, 625697, Note_on_c, 0, 72, 52
1, 625699, Control_c, 0, 64, 56
1, 625714, Control_c, 0, 64, 64
1, 625719, Note_off_c, 0, 84, 60
1, 625721, Note_off_c, 0, 57, 59
1, 625725, Note_off_c, 0, 72, 55
1, 625729, Control_c, 0, 64, 69
1, 625744, Control_c, 0, 64, 72
1, 625759, Control_c, 0, 64, 74
1, 625764, Note_on_c, 0, 60, 49
1, 625764, Note_on_c, 0, 81, 53
1, 625767, Note_on_c, 0, 65, 36
1, 625773, Control_c, 0, 64, 76
1, 625787, Note_off_c, 0, 81, 60
1, 625788, Note_off_c, 0, 60, 60
1, 625788, Control_c, 0, 64, 78
1, 625789, Note_on_c, 0, 77, 27
1, 625801, Note_off_c, 0, 65, 46
1, 625803, Control_c, 0, 64, 79
1, 625818, Control_c, 0, 64, 78
1, 625825, Note_off_c, 0, 77, 46
1, 625833, Control_c, 0, 64, 72
1, 625848, Control_c, 0, 64, 63
1, 625863, Control_c, 0, 64, 35
1, 625868, Note_on_c, 0, 81, 75
1, 625878, Note_on_c, 0, 69, 67
1, 625878, Control_c, 0, 64, 0
1, 625879, Note_on_c, 0, 53, 49
1, 625907, Control_c, 0, 64, 40
1, 625912, Note_off_c, 0, 81, 50
1, 625915, Note_off_c, 0, 69, 56
1, 625922, Control_c, 0, 64, 61
1, 625934, Note_off_c, 0, 53, 58
1, 625937, Control_c, 0, 64, 71
1, 625952, Control_c, 0, 64, 79
1, 625965, Note_on_c, 0, 77, 45
1, 625967, Control_c, 0, 64, 83
1, 625971, Note_on_c, 0, 72, 58
1, 625977, Note_on_c, 0, 57, 50
1, 625982, Control_c, 0, 64, 84
1, 625990, Note_off_c, 0, 77, 60
1, 625992, Note_on_c, 0, 60, 40
1, 625994, Note_off_c, 0, 72, 65
1, 625997, Control_c, 0, 64, 85
1, 626002, Note_off_c, 0, 57, 58
1, 626012, Control_c, 0, 64, 84
1, 626026, Note_off_c, 0, 60, 53
1, 626027, Control_c, 0, 64, 76
1, 626042, Control_c, 0, 64, 65
1, 626056, Control_c, 0, 64, 42
1, 626068, Note_on_c, 0, 67, 73
1, 626071, Note_on_c, 0, 79, 71
1, 626071, Control_c, 0, 64, 0
1, 626072, Note_on_c, 0, 52, 55
1, 626097, Note_off_c, 0, 67, 62
1, 626101, Control_c, 0, 64, 43
1, 626103, Note_off_c, 0, 79, 52
1, 626115, Control_c, 0, 64, 63
1, 626116, Note_off_c, 0, 52, 60
1, 626130, Control_c, 0, 64, 74
1, 626145, Control_c, 0, 64, 82
1, 626160, Control_c, 0, 64, 85
1, 626167, Note_on_c, 0, 55, 54
1, 626173, Note_on_c, 0, 60, 37
1, 626189, Note_off_c, 0, 55, 60
1, 626189, Control_c, 0, 64, 82
1, 626204, Control_c, 0, 64, 72
1, 626207, Note_off_c, 0, 60, 52
1, 626219, Control_c, 0, 64, 58
1, 626234, Control_c, 0, 64, 0
1, 626246, Note_on_c, 0, 69, 77
1, 626255, Note_on_c, 0, 81, 68
1, 626264, Note_on_c, 0, 48, 57
1, 626266, Note_off_c, 0, 69, 71
1, 626271, Note_off_c, 0, 81, 67
1, 626289, Note_off_c, 0, 48, 58
1, 626346, Note_on_c, 0, 82, 80
1, 626349, Note_on_c, 0, 70, 71
1, 626356, Note_on_c, 0, 64, 54
1, 626366, Note_off_c, 0, 82, 72
1, 626372, Note_off_c, 0, 70, 71
1, 626378, Note_off_c, 0, 64, 62
1, 626389, Note_on_c, 0, 60, 9
1, 626443, Note_off_c, 0, 60, 39
1, 626459, Note_on_c, 0, 53, 51
1, 626468, Note_on_c, 0, 69, 68
1, 626476, Note_on_c, 0, 81, 52
1, 626504, Note_off_c, 0, 81, 52
1, 626523, Control_c, 0, 64, 49
1, 626525, Note_off_c, 0, 69, 47
1, 626528, Note_off_c, 0, 53, 49
1, 626538, Control_c, 0, 64, 64
1, 626551, Note_on_c, 0, 77, 57
1, 626552, Note_on_c, 0, 60, 46
1, 626553, Control_c, 0, 64, 69
1, 626563, Note_on_c, 0, 65, 50
1, 626568, Control_c, 0, 64, 74
1, 626578, Note_off_c, 0, 77, 66
1, 626583, Control_c, 0, 64, 76
1, 626587, Note_off_c, 0, 65, 59
1, 626593, Note_on_c, 0, 72, 21
1, 626597, Control_c, 0, 64, 78
1, 626599, Note_off_c, 0, 60, 62
1, 626627, Control_c, 0, 64, 77
1, 626635, Note_off_c, 0, 72, 29
1, 626641, Control_c, 0, 64, 70
1, 626656, Control_c, 0, 64, 59
1, 626659, Note_on_c, 0, 65, 76
1, 626659, Note_on_c, 0, 77, 66
1, 626670, Note_on_c, 0, 57, 51
1, 626671, Control_c, 0, 64, 0
1, 626698, Note_off_c, 0, 77, 49
1, 626705, Note_off_c, 0, 65, 59
1, 626715, Control_c, 0, 64, 50
1, 626728, Note_off_c, 0, 57, 61
1, 626730, Control_c, 0, 64, 67
1, 626745, Control_c, 0, 64, 75
1, 626748, Note_on_c, 0, 72, 58
1, 626761, Control_c, 0, 64, 82
1, 626762, Note_on_c, 0, 69, 40
1, 626769, Note_off_c, 0, 72, 64
1, 626776, Control_c, 0, 64, 84
1, 626790, Note_off_c, 0, 69, 51
1, 626791, Control_c, 0, 64, 85
1, 626794, Poly_aftertouch_c, 0, 60, 127
1, 626796, Note_on_c, 0, 65, 5
1, 626820, Control_c, 0, 64, 82
1, 626831, Poly_aftertouch_c, 0, 60, 0
1, 626835, Control_c, 0, 64, 73
1, 626846, Note_off_c, 0, 65, 50
1, 626850, Control_c, 0, 64, 61
1, 626862, Note_on_c, 0, 57, 54
1, 626864, Control_c, 0, 64, 0
1, 626867, Note_on_c, 0, 72, 73
1, 626875, Note_on_c, 0, 84, 69
1, 626891, Note_off_c, 0, 72, 66
1, 626893, Note_off_c, 0, 84, 64
1, 626931, Note_off_c, 0, 57, 59
1, 626946, Note_on_c, 0, 60, 53
1, 626969, Note_on_c, 0, 77, 45
1, 626974, Note_on_c, 0, 69, 51
1, 626978, Note_on_c, 0, 65, 45
1, 626985, Note_on_c, 0, 81, 18
1, 626992, Note_off_c, 0, 77, 61
1, 626996, Note_off_c, 0, 69, 60
1, 627019, Note_off_c, 0, 81, 42
1, 627042, Note_off_c, 0, 60, 49
1, 627050, Note_off_c, 0, 65, 56
1, 627057, Note_on_c, 0, 84, 71
1, 627059, Note_on_c, 0, 57, 56
1, 627065, Note_on_c, 0, 72, 52
1, 627073, Note_off_c, 0, 84, 65
1, 627087, Note_off_c, 0, 72, 56
1, 627091, Note_off_c, 0, 57, 58
1, 627139, Note_on_c, 0, 84, 79
1, 627147, Note_on_c, 0, 72, 76
1, 627153, Note_on_c, 0, 69, 39
1, 627154, Note_on_c, 0, 60, 41
1, 627160, Note_off_c, 0, 84, 70
1, 627169, Note_off_c, 0, 72, 70
1, 627177, Note_on_c, 0, 65, 33
1, 627182, Note_off_c, 0, 69, 52
1, 627193, Note_off_c, 0, 60, 59
1, 627198, Control_c, 0, 67, 75
1, 627213, Control_c, 0, 67, 0
1, 627227, Note_off_c, 0, 65, 46
1, 627244, Note_on_c, 0, 56, 64
1, 627250, Note_on_c, 0, 83, 73
1, 627263, Note_on_c, 0, 71, 50
1, 627281, Note_off_c, 0, 83, 54
1, 627288, Note_off_c, 0, 71, 57
1, 627302, Note_off_c, 0, 56, 55
1, 627342, Note_on_c, 0, 65, 49
1, 627343, Note_on_c, 0, 68, 51
1, 627352, Note_on_c, 0, 74, 38
1, 627354, Note_on_c, 0, 77, 31
1, 627368, Note_off_c, 0, 68, 58
1, 627377, Note_off_c, 0, 65, 51
1, 627383, Note_off_c, 0, 74, 49
1, 627389, Note_off_c, 0, 77, 48
1, 627443, Note_on_c, 0, 70, 73
1, 627446, Note_on_c, 0, 82, 69
1, 627452, Note_on_c, 0, 55, 57
1, 627466, Note_off_c, 0, 70, 70
1, 627475, Note_off_c, 0, 82, 60
1, 627491, Note_off_c, 0, 55, 45
1, 627542, Note_on_c, 0, 73, 43
1, 627545, Note_on_c, 0, 67, 54
1, 627552, Note_on_c, 0, 58, 35
1, 627568, Note_off_c, 0, 67, 63
1, 627570, Note_off_c, 0, 73, 57
1, 627586, Note_off_c, 0, 58, 57
1, 627643, Note_on_c, 0, 53, 61
1, 627643, Note_on_c, 0, 81, 72
1, 627646, Note_on_c, 0, 69, 64
1, 627663, Note_off_c, 0, 81, 60
1, 627667, Note_off_c, 0, 69, 65
1, 627685, Note_off_c, 0, 53, 56
1, 627741, Note_on_c, 0, 65, 51
1, 627744, Note_on_c, 0, 60, 48
1, 627750, Note_on_c, 0, 57, 40
1, 627765, Note_off_c, 0, 65, 60
1, 627780, Note_off_c, 0, 57, 57
1, 627791, Note_off_c, 0, 60, 60
1, 627800, Poly_aftertouch_c, 0, 77, 0
1, 627836, Note_on_c, 0, 53, 49
1, 627842, Note_on_c, 0, 68, 70
1, 627844, Note_on_c, 0, 80, 65
1, 627867, Note_off_c, 0, 68, 69
1, 627874, Note_off_c, 0, 53, 46
1, 627893, Note_off_c, 0, 80, 48
1, 627940, Note_on_c, 0, 72, 46
1, 627952, Note_on_c, 0, 56, 44
1, 627952, Note_on_c, 0, 65, 29
1, 627953, Note_on_c, 0, 77, 46
1, 627955, Note_on_c, 0, 60, 33
1, 627965, Note_off_c, 0, 72, 60
1, 627981, Note_off_c, 0, 77, 58
1, 627982, Note_off_c, 0, 56, 60
1, 627984, Note_off_c, 0, 60, 58
1, 627986, Note_off_c, 0, 65, 45
1, 628078, Note_on_c, 0, 48, 76
1, 628080, Note_on_c, 0, 79, 90
1, 628081, Control_c, 0, 64, 38
1, 628083, Note_on_c, 0, 67, 77
1, 628095, Control_c, 0, 64, 74
1, 628101, Note_off_c, 0, 48, 70
1, 628108, Note_off_c, 0, 67, 65
1, 628110, Control_c, 0, 64, 82
1, 628125, Control_c, 0, 64, 74
1, 628140, Control_c, 0, 64, 48
1, 628155, Control_c, 0, 64, 0
1, 628182, Note_on_c, 0, 64, 51
1, 628194, Note_on_c, 0, 76, 40
1, 628206, Note_off_c, 0, 64, 56
1, 628224, Note_off_c, 0, 76, 54
1, 628268, Poly_aftertouch_c, 0, 60, 0
1, 628295, Note_on_c, 0, 55, 48
1, 628302, Note_on_c, 0, 67, 45
1, 628323, Note_off_c, 0, 79, 58
1, 628328, Note_off_c, 0, 67, 54
1, 628330, Note_off_c, 0, 55, 62
1, 628361, Note_on_c, 0, 60, 62
1, 628370, Note_on_c, 0, 64, 34
1, 628384, Note_on_c, 0, 72, 46
1, 628390, Note_off_c, 0, 60, 67
1, 628399, Note_off_c, 0, 64, 45
1, 628402, Note_on_c, 0, 76, 15
1, 628408, Note_off_c, 0, 72, 60
1, 628428, Note_off_c, 0, 76, 44
1, 628466, Control_c, 0, 64, 59
1, 628472, Note_on_c, 0, 48, 79
1, 628481, Note_on_c, 0, 67, 85
1, 628481, Control_c, 0, 64, 72
1, 628484, Note_on_c, 0, 79, 86
1, 628494, Note_off_c, 0, 48, 72
1, 628496, Control_c, 0, 64, 68
1, 628507, Note_off_c, 0, 79, 65
1, 628509, Note_off_c, 0, 67, 64
1, 628510, Control_c, 0, 64, 47
1, 628525, Control_c, 0, 64, 0
1, 628580, Note_on_c, 0, 64, 53
1, 628582, Note_on_c, 0, 60, 60
1, 628596, Note_on_c, 0, 76, 19
1, 628602, Note_off_c, 0, 64, 63
1, 628615, Note_off_c, 0, 60, 64
1, 628627, Note_off_c, 0, 76, 41
1, 628674, Note_on_c, 0, 67, 75
1, 628677, Note_on_c, 0, 79, 77
1, 628678, Note_on_c, 0, 55, 62
1, 628703, Note_off_c, 0, 67, 67
1, 628704, Note_off_c, 0, 79, 67
1, 628723, Note_off_c, 0, 55, 63
1, 628762, Note_on_c, 0, 64, 63
1, 628763, Note_on_c, 0, 79, 80
1, 628769, Note_on_c, 0, 60, 49
1, 628775, Note_on_c, 0, 72, 67
1, 628782, Note_off_c, 0, 64, 63
1, 628791, Note_off_c, 0, 60, 60
1, 628795, Note_off_c, 0, 72, 66
1, 628796, Note_off_c, 0, 79, 60
1, 628860, Note_on_c, 0, 47, 76
1, 628863, Note_on_c, 0, 79, 90
1, 628864, Note_on_c, 0, 67, 91
1, 628883, Note_off_c, 0, 47, 67
1, 628903, Note_off_c, 0, 67, 61
1, 628936, Note_off_c, 0, 79, 61
1, 628957, Note_on_c, 0, 77, 58
1, 628967, Note_on_c, 0, 74, 54
1, 628972, Note_on_c, 0, 65, 65
1, 628987, Note_off_c, 0, 77, 65
1, 628990, Note_off_c, 0, 74, 63
1, 628997, Note_off_c, 0, 65, 65
1, 628999, Note_on_c, 0, 59, 32
1, 629032, Note_off_c, 0, 59, 50
1, 629050, Note_on_c, 0, 67, 89
1, 629051, Control_c, 0, 64, 75
1, 629053, Note_on_c, 0, 79, 91
1, 629066, Control_c, 0, 64, 127
1, 629068, Note_on_c, 0, 55, 64
1, 629097, Note_off_c, 0, 67, 64
1, 629100, Note_off_c, 0, 55, 65
1, 629123, Note_on_c, 0, 65, 66
1, 629128, Note_on_c, 0, 59, 54
1, 629131, Note_on_c, 0, 74, 76
1, 629145, Note_off_c, 0, 65, 66
1, 629160, Note_off_c, 0, 74, 64
1, 629163, Note_off_c, 0, 59, 65
1, 629169, Note_off_c, 0, 79, 63
1, 629240, Note_on_c, 0, 79, 94
1, 629245, Control_c, 0, 64, 89
1, 629249, Note_on_c, 0, 43, 72
1, 629259, Control_c, 0, 64, 57
1, 629262, Note_on_c, 0, 81, 76
1, 629270, Note_off_c, 0, 43, 62
1, 629274, Control_c, 0, 64, 0
1, 629279, Note_off_c, 0, 79, 65
1, 629323, Note_on_c, 0, 79, 82
1, 629332, Note_off_c, 0, 81, 65
1, 629353, Note_on_c, 0, 65, 73
1, 629362, Note_on_c, 0, 59, 64
1, 629373, Note_on_c, 0, 78, 79
1, 629390, Note_off_c, 0, 65, 57
1, 629393, Note_off_c, 0, 79, 64
1, 629403, Note_off_c, 0, 78, 66
1, 629404, Note_off_c, 0, 59, 60
1, 629456, Note_on_c, 0, 81, 84
1, 629461, Note_on_c, 0, 69, 75
1, 629469, Note_on_c, 0, 55, 54
1, 629478, Note_off_c, 0, 81, 68
1, 629482, Note_off_c, 0, 69, 70
1, 629496, Note_off_c, 0, 55, 58
1, 629534, Note_on_c, 0, 65, 65
1, 629538, Note_on_c, 0, 59, 58
1, 629544, Note_on_c, 0, 71, 86
1, 629545, Note_on_c, 0, 83, 84
1, 629553, Note_off_c, 0, 65, 65
1, 629562, Note_off_c, 0, 71, 72
1, 629562, Note_off_c, 0, 83, 72
1, 629567, Note_off_c, 0, 59, 67
1, 629631, Note_on_c, 0, 84, 101
1, 629631, Note_on_c, 0, 72, 94
1, 629642, Note_on_c, 0, 48, 64
1, 629659, Note_off_c, 0, 72, 65
1, 629663, Note_off_c, 0, 48, 63
1, 629681, Note_off_c, 0, 84, 55
1, 629717, Note_on_c, 0, 79, 79
1, 629730, Note_on_c, 0, 64, 68
1, 629733, Note_on_c, 0, 76, 66
1, 629738, Note_on_c, 0, 60, 63
1, 629743, Note_off_c, 0, 79, 62
1, 629759, Note_off_c, 0, 64, 64
1, 629761, Note_off_c, 0, 76, 66
1, 629774, Note_off_c, 0, 60, 61
1, 629800, Control_c, 0, 64, 68
1, 629815, Control_c, 0, 64, 127
1, 629820, Note_on_c, 0, 67, 97
1, 629824, Note_on_c, 0, 79, 95
1, 629830, Note_on_c, 0, 55, 65
1, 629869, Note_off_c, 0, 55, 62
1, 629888, Note_off_c, 0, 67, 59
1, 629896, Note_on_c, 0, 60, 66
1, 629897, Note_on_c, 0, 72, 81
1, 629899, Note_on_c, 0, 64, 48
1, 629921, Note_off_c, 0, 60, 69
1, 629923, Note_off_c, 0, 64, 58
1, 629926, Note_off_c, 0, 72, 63
1, 629940, Note_off_c, 0, 79, 63
1, 630008, Note_on_c, 0, 43, 84
1, 630009, Note_on_c, 0, 79, 103
1, 630024, Control_c, 0, 64, 100
1, 630033, Note_off_c, 0, 43, 68
1, 630038, Control_c, 0, 64, 64
1, 630039, Note_on_c, 0, 81, 75
1, 630045, Note_off_c, 0, 79, 69
1, 630053, Control_c, 0, 64, 0
1, 630099, Note_on_c, 0, 79, 88
1, 630107, Note_off_c, 0, 81, 64
1, 630125, Note_on_c, 0, 65, 72
1, 630128, Note_on_c, 0, 59, 63
1, 630149, Note_on_c, 0, 78, 78
1, 630152, Note_off_c, 0, 65, 68
1, 630163, Note_off_c, 0, 59, 62
1, 630163, Note_off_c, 0, 79, 63
1, 630173, Note_off_c, 0, 78, 66
1, 630230, Note_on_c, 0, 81, 85
1, 630232, Note_on_c, 0, 55, 61
1, 630234, Note_on_c, 0, 69, 71
1, 630251, Note_off_c, 0, 81, 67
1, 630257, Note_off_c, 0, 69, 69
1, 630267, Note_off_c, 0, 55, 60
1, 630302, Note_on_c, 0, 65, 75
1, 630312, Note_on_c, 0, 71, 60
1, 630314, Note_on_c, 0, 59, 62
1, 630319, Note_on_c, 0, 83, 88
1, 630327, Note_off_c, 0, 65, 70
1, 630337, Note_off_c, 0, 83, 71
1, 630343, Note_off_c, 0, 71, 66
1, 630344, Note_off_c, 0, 59, 65
1, 630402, Note_on_c, 0, 72, 94
1, 630408, Note_on_c, 0, 50, 82
1, 630423, Note_on_c, 0, 84, 44
1, 630423, Note_off_c, 0, 84, 127
1, 630434, Note_off_c, 0, 50, 68
1, 630478, Note_off_c, 0, 72, 58
1, 630488, Note_on_c, 0, 79, 78
1, 630500, Note_on_c, 0, 76, 69
1, 630502, Note_on_c, 0, 64, 70
1, 630509, Note_on_c, 0, 60, 72
1, 630518, Note_off_c, 0, 79, 57
1, 630526, Note_off_c, 0, 76, 68
1, 630532, Note_off_c, 0, 64, 63
1, 630549, Note_off_c, 0, 60, 59
1, 630579, Control_c, 0, 64, 68
1, 630589, Note_on_c, 0, 67, 99
1, 630593, Note_on_c, 0, 79, 97
1, 630593, Control_c, 0, 64, 127
1, 630599, Note_on_c, 0, 55, 71
1, 630647, Note_off_c, 0, 55, 58
1, 630659, Note_off_c, 0, 67, 61
1, 630665, Note_on_c, 0, 64, 62
1, 630666, Note_on_c, 0, 60, 74
1, 630669, Note_on_c, 0, 72, 83
1, 630683, Note_off_c, 0, 64, 66
1, 630688, Note_off_c, 0, 60, 70
1, 630692, Note_off_c, 0, 72, 67
1, 630704, Note_on_c, 0, 76, 33
1, 630704, Note_off_c, 0, 79, 63
1, 630740, Note_off_c, 0, 76, 46
1, 630769, Note_on_c, 0, 43, 94
1, 630771, Note_on_c, 0, 79, 103
1, 630796, Note_on_c, 0, 81, 75
1, 630797, Note_off_c, 0, 43, 66
1, 630809, Note_off_c, 0, 79, 68
1, 630817, Control_c, 0, 64, 90
1, 630831, Control_c, 0, 64, 64
1, 630846, Control_c, 0, 64, 0
1, 630855, Note_on_c, 0, 79, 87
1, 630865, Note_off_c, 0, 81, 64
1, 630892, Note_on_c, 0, 65, 74
1, 630892, Note_on_c, 0, 59, 67
1, 630906, Note_on_c, 0, 78, 78
1, 630918, Note_off_c, 0, 65, 67
1, 630939, Note_off_c, 0, 79, 64
1, 630940, Note_off_c, 0, 59, 60
1, 630950, Note_off_c, 0, 78, 61
1, 630997, Note_on_c, 0, 81, 81
1, 631001, Note_on_c, 0, 55, 64
1, 631001, Note_on_c, 0, 69, 82
1, 631021, Note_off_c, 0, 69, 70
1, 631029, Note_off_c, 0, 81, 62
1, 631032, Note_off_c, 0, 55, 63
1, 631082, Note_on_c, 0, 65, 73
1, 631091, Note_on_c, 0, 71, 91
1, 631094, Note_on_c, 0, 83, 78
1, 631099, Note_on_c, 0, 59, 56
1, 631109, Note_off_c, 0, 71, 69
1, 631113, Note_off_c, 0, 65, 64
1, 631115, Note_off_c, 0, 83, 67
1, 631133, Note_off_c, 0, 59, 65
1, 631165, Control_c, 0, 64, 54
1, 631180, Control_c, 0, 64, 85
1, 631190, Note_on_c, 0, 60, 79
1, 631191, Note_on_c, 0, 64, 71
1, 631191, Note_on_c, 0, 72, 100
1, 631191, Note_on_c, 0, 84, 100
1, 631194, Control_c, 0, 64, 127
1, 631212, Note_off_c, 0, 60, 72
1, 631214, Note_off_c, 0, 64, 70
1, 631230, Note_off_c, 0, 72, 62
1, 631258, Note_on_c, 0, 83, 3
1, 631258, Note_off_c, 0, 83, 127
1, 631283, Control_c, 0, 64, 102
1, 631298, Note_on_c, 0, 79, 78
1, 631298, Control_c, 0, 64, 69
1, 631302, Note_on_c, 0, 60, 80
1, 631312, Note_on_c, 0, 76, 63
1, 631312, Control_c, 0, 64, 0
1, 631313, Note_on_c, 0, 48, 70
1, 631321, Note_off_c, 0, 60, 74
1, 631326, Note_off_c, 0, 79, 64
1, 631330, Note_off_c, 0, 76, 66
1, 631341, Note_off_c, 0, 48, 65
1, 631404, Note_on_c, 0, 57, 84
1, 631410, Note_on_c, 0, 76, 65
1, 631419, Note_on_c, 0, 79, 63
1, 631420, Note_on_c, 0, 45, 58
1, 631423, Note_off_c, 0, 57, 68
1, 631430, Note_off_c, 0, 76, 65
1, 631439, Note_off_c, 0, 79, 65
1, 631451, Note_off_c, 0, 45, 57
1, 631497, Note_on_c, 0, 76, 82
1, 631502, Note_off_c, 0, 84, 57
1, 631503, Note_on_c, 0, 79, 82
1, 631514, Note_on_c, 0, 53, 69
1, 631518, Note_on_c, 0, 41, 57
1, 631523, Note_on_c, 0, 55, 55
1, 631523, Note_off_c, 0, 55, 127
1, 631529, Note_off_c, 0, 76, 65
1, 631534, Note_off_c, 0, 79, 63
1, 631541, Note_off_c, 0, 53, 63
1, 631545, Note_off_c, 0, 41, 58
1, 631581, Control_c, 0, 64, 59
1, 631595, Note_on_c, 0, 72, 103
1, 631595, Note_on_c, 0, 52, 95
1, 631596, Note_on_c, 0, 84, 109
1, 631596, Control_c, 0, 64, 127
1, 631597, Note_on_c, 0, 40, 82
1, 631619, Note_off_c, 0, 40, 66
1, 631624, Note_off_c, 0, 52, 64
1, 631631, Note_on_c, 0, 41, 47
1, 631640, Note_on_c, 0, 82, 31
1, 631661, Note_off_c, 0, 41, 58
1, 631686, Note_off_c, 0, 82, 44
1, 631692, Note_off_c, 0, 84, 62
1, 631693, Note_off_c, 0, 72, 61
1, 631702, Note_on_c, 0, 79, 69
1, 631703, Note_on_c, 0, 60, 73
1, 631704, Note_on_c, 0, 55, 73
1, 631723, Note_off_c, 0, 60, 68
1, 631724, Note_on_c, 0, 76, 48
1, 631728, Note_off_c, 0, 55, 67
1, 631728, Note_off_c, 0, 79, 68
1, 631749, Note_off_c, 0, 76, 52
1, 631766, Control_c, 0, 64, 112
1, 631780, Control_c, 0, 64, 70
1, 631795, Control_c, 0, 64, 0
1, 631804, Note_on_c, 0, 72, 93
1, 631807, Note_on_c, 0, 84, 86
1, 631812, Note_on_c, 0, 36, 65
1, 631814, Note_on_c, 0, 47, 59
1, 631814, Note_on_c, 0, 76, 74
1, 631819, Note_off_c, 0, 72, 72
1, 631825, Note_off_c, 0, 84, 72
1, 631833, Note_on_c, 0, 48, 50
1, 631837, Note_off_c, 0, 36, 59
1, 631837, Note_off_c, 0, 76, 70
1, 631840, Note_off_c, 0, 47, 41
1, 631868, Note_off_c, 0, 48, 35
1, 631896, Note_on_c, 0, 53, 71
1, 631898, Note_on_c, 0, 72, 89
1, 631898, Note_on_c, 0, 84, 91
1, 631915, Note_off_c, 0, 84, 73
1, 631916, Note_off_c, 0, 72, 69
1, 631917, Note_on_c, 0, 76, 58
1, 631920, Note_off_c, 0, 53, 68
1, 631938, Note_off_c, 0, 76, 60
1, 631988, Control_c, 0, 64, 56
1, 632002, Note_on_c, 0, 72, 94
1, 632002, Note_on_c, 0, 81, 101
1, 632003, Note_on_c, 0, 69, 98
1, 632003, Control_c, 0, 64, 127
1, 632008, Note_on_c, 0, 53, 99
1, 632028, Note_on_c, 0, 41, 58
1, 632032, Note_on_c, 0, 79, 51
1, 632032, Note_off_c, 0, 79, 127
1, 632039, Note_off_c, 0, 53, 61
1, 632051, Note_off_c, 0, 69, 57
1, 632054, Note_off_c, 0, 41, 59
1, 632057, Note_off_c, 0, 81, 60
1, 632057, Note_off_c, 0, 72, 59
1, 632112, Poly_aftertouch_c, 0, 52, 0
1, 632126, Note_on_c, 0, 57, 90
1, 632134, Note_on_c, 0, 53, 79
1, 632151, Note_on_c, 0, 70, 87
1, 632152, Note_on_c, 0, 67, 84
1, 632152, Note_off_c, 0, 53, 71
1, 632156, Note_on_c, 0, 79, 66
1, 632164, Note_off_c, 0, 57, 59
1, 632166, Control_c, 0, 64, 80
1, 632169, Note_off_c, 0, 70, 73
1, 632171, Note_off_c, 0, 67, 70
1, 632174, Note_off_c, 0, 79, 65
1, 632180, Control_c, 0, 64, 46
1, 632195, Control_c, 0, 64, 0
1, 632215, Note_on_c, 0, 77, 6
1, 632221, Note_on_c, 0, 65, 91
1, 632221, Note_on_c, 0, 69, 89
1, 632222, Note_on_c, 0, 60, 86
1, 632235, Note_on_c, 0, 76, 61
1, 632236, Note_off_c, 0, 69, 73
1, 632239, Note_off_c, 0, 65, 68
1, 632254, Note_off_c, 0, 76, 39
1, 632258, Note_off_c, 0, 60, 67
1, 632269, Note_off_c, 0, 77, 63
1, 632295, Note_on_c, 0, 57, 87
1, 632321, Note_off_c, 0, 57, 69
1, 632325, Note_on_c, 0, 53, 30
1, 632358, Note_off_c, 0, 53, 46
1, 632402, Control_c, 0, 64, 59
1, 632410, Note_on_c, 0, 52, 92
1, 632412, Note_on_c, 0, 72, 102
1, 632412, Note_on_c, 0, 84, 101
1, 632417, Control_c, 0, 64, 117
1, 632419, Note_on_c, 0, 40, 61
1, 632439, Note_off_c, 0, 52, 70
1, 632439, Control_c, 0, 64, 127
1, 632447, Note_on_c, 0, 82, 50
1, 632448, Note_on_c, 0, 74, 49
1, 632448, Note_off_c, 0, 74, 127
1, 632452, Note_off_c, 0, 40, 58
1, 632469, Note_off_c, 0, 82, 58
1, 632503, Note_off_c, 0, 84, 62
1, 632504, Note_off_c, 0, 72, 61
1, 632513, Note_on_c, 0, 55, 77
1, 632516, Note_on_c, 0, 79, 63
1, 632534, Note_on_c, 0, 60, 40
1, 632535, Note_off_c, 0, 55, 69
1, 632536, Note_off_c, 0, 79, 67
1, 632541, Note_on_c, 0, 76, 33
1, 632564, Note_off_c, 0, 60, 56
1, 632576, Note_off_c, 0, 76, 43
1, 632588, Control_c, 0, 64, 91
1, 632602, Control_c, 0, 64, 58
1, 632608, Note_on_c, 0, 72, 91
1, 632609, Note_on_c, 0, 84, 89
1, 632615, Note_on_c, 0, 48, 81
1, 632617, Control_c, 0, 64, 0
1, 632622, Note_on_c, 0, 76, 47
1, 632626, Note_off_c, 0, 72, 72
1, 632626, Note_off_c, 0, 84, 73
1, 632634, Note_on_c, 0, 36, 47
1, 632634, Note_off_c, 0, 36, 127
1, 632638, Note_off_c, 0, 48, 72
1, 632645, Note_off_c, 0, 76, 54
1, 632696, Note_on_c, 0, 72, 85
1, 632701, Note_on_c, 0, 84, 80
1, 632711, Note_on_c, 0, 76, 69
1, 632712, Note_on_c, 0, 55, 79
1, 632720, Note_off_c, 0, 72, 63
1, 632722, Note_off_c, 0, 84, 71
1, 632729, Note_off_c, 0, 76, 68
1, 632733, Note_off_c, 0, 55, 71
1, 632803, Note_on_c, 0, 69, 89
1, 632805, Note_on_c, 0, 72, 88
1, 632808, Note_on_c, 0, 53, 103
1, 632811, Note_on_c, 0, 81, 71
1, 632819, Note_off_c, 0, 69, 73
1, 632823, Note_off_c, 0, 72, 72
1, 632824, Note_on_c, 0, 41, 64
1, 632828, Note_off_c, 0, 81, 66
1, 632838, Note_off_c, 0, 53, 64
1, 632845, Note_on_c, 0, 79, 23
1, 632845, Note_off_c, 0, 79, 127
1, 632847, Note_off_c, 0, 41, 59
1, 632886, Note_on_c, 0, 65, 97
1, 632896, Note_on_c, 0, 77, 66
1, 632908, Note_off_c, 0, 65, 67
1, 632919, Note_on_c, 0, 70, 35
1, 632933, Note_on_c, 0, 76, 29
1, 632933, Note_off_c, 0, 76, 127
1, 632936, Note_off_c, 0, 77, 66
1, 632951, Note_off_c, 0, 70, 34
1, 632995, Note_on_c, 0, 64, 78
1, 633002, Note_on_c, 0, 65, 106
1, 633009, Note_on_c, 0, 77, 109
1, 633013, Note_on_c, 0, 89, 103
1, 633024, Note_off_c, 0, 64, 69
1, 633026, Note_off_c, 0, 65, 67
1, 633026, Note_off_c, 0, 89, 76
1, 633027, Note_off_c, 0, 77, 67
1, 633029, Note_on_c, 0, 79, 63
1, 633029, Note_off_c, 0, 79, 127
1, 633045, Note_on_c, 0, 85, 37
1, 633045, Note_off_c, 0, 85, 127
1, 633224, Note_on_c, 0, 72, 105
1, 633226, Note_on_c, 0, 81, 96
1, 633226, Note_on_c, 0, 60, 109
1, 633228, Note_on_c, 0, 84, 99
1, 633232, Control_c, 0, 64, 56
1, 633235, Note_on_c, 0, 57, 87
1, 633243, Note_off_c, 0, 84, 69
1, 633247, Control_c, 0, 64, 127
1, 633252, Note_off_c, 0, 81, 64
1, 633299, Note_off_c, 0, 72, 58
1, 633312, Note_off_c, 0, 57, 52
1, 633390, Note_off_c, 0, 60, 55
1, 633431, Note_on_c, 0, 81, 77
1, 633431, Note_on_c, 0, 69, 73
1, 633447, Note_off_c, 0, 69, 68
1, 633452, Note_on_c, 0, 53, 38
1, 633455, Note_off_c, 0, 81, 68
1, 633465, Note_on_c, 0, 57, 29
1, 633470, Control_c, 0, 64, 78
1, 633482, Note_off_c, 0, 53, 52
1, 633485, Control_c, 0, 64, 50
1, 633493, Note_off_c, 0, 57, 51
1, 633499, Control_c, 0, 64, 0
1, 633525, Note_on_c, 0, 62, 76
1, 633525, Note_on_c, 0, 74, 93
1, 633532, Note_on_c, 0, 82, 76
1, 633533, Note_on_c, 0, 58, 57
1, 633539, Note_on_c, 0, 86, 60
1, 633542, Note_off_c, 0, 74, 71
1, 633547, Note_off_c, 0, 82, 69
1, 633550, Note_off_c, 0, 62, 69
1, 633557, Note_off_c, 0, 86, 62
1, 633563, Note_off_c, 0, 58, 66
1, 633624, Note_on_c, 0, 72, 87
1, 633625, Note_on_c, 0, 57, 65
1, 633625, Note_on_c, 0, 60, 72
1, 633626, Note_on_c, 0, 81, 76
1, 633640, Note_off_c, 0, 81, 69
1, 633641, Note_off_c, 0, 72, 71
1, 633650, Note_off_c, 0, 60, 68
1, 633652, Note_off_c, 0, 57, 65
1, 633714, Note_on_c, 0, 81, 75
1, 633718, Note_on_c, 0, 57, 69
1, 633718, Note_on_c, 0, 69, 74
1, 633724, Note_on_c, 0, 77, 59
1, 633729, Note_on_c, 0, 53, 53
1, 633733, Note_off_c, 0, 69, 67
1, 633738, Note_off_c, 0, 57, 64
1, 633743, Note_off_c, 0, 77, 65
1, 633752, Note_off_c, 0, 81, 66
1, 633756, Note_off_c, 0, 53, 60
1, 633819, Note_on_c, 0, 77, 101
1, 633821, Note_on_c, 0, 53, 90
1, 633823, Note_on_c, 0, 89, 97
1, 633838, Note_off_c, 0, 89, 75
1, 633840, Note_on_c, 0, 79, 63
1, 633840, Note_off_c, 0, 79, 127
1, 633840, Note_on_c, 0, 41, 50
1, 633840, Note_off_c, 0, 41, 127
1, 633840, Note_off_c, 0, 53, 72
1, 633846, Note_off_c, 0, 77, 61
1, 634040, Note_on_c, 0, 72, 108
1, 634044, Note_on_c, 0, 81, 93
1, 634044, Note_on_c, 0, 84, 98
1, 634045, Note_on_c, 0, 60, 113
1, 634054, Note_on_c, 0, 57, 81
1, 634056, Control_c, 0, 64, 62
1, 634060, Note_off_c, 0, 84, 69
1, 634064, Note_off_c, 0, 81, 66
1, 634071, Control_c, 0, 64, 127
1, 634106, Note_off_c, 0, 72, 55
1, 634123, Note_off_c, 0, 57, 60
1, 634182, Note_off_c, 0, 60, 51
1, 634244, Note_on_c, 0, 81, 78
1, 634246, Note_on_c, 0, 69, 63
1, 634254, Note_on_c, 0, 77, 51
1, 634263, Note_on_c, 0, 57, 47
1, 634263, Note_off_c, 0, 69, 65
1, 634263, Control_c, 0, 64, 80
1, 634264, Note_off_c, 0, 81, 69
1, 634266, Note_on_c, 0, 53, 40
1, 634278, Note_off_c, 0, 77, 59
1, 634278, Control_c, 0, 64, 53
1, 634288, Note_off_c, 0, 57, 58
1, 634293, Control_c, 0, 64, 0
1, 634296, Note_off_c, 0, 53, 51
1, 634334, Note_on_c, 0, 74, 95
1, 634340, Note_on_c, 0, 86, 72
1, 634342, Note_on_c, 0, 62, 60
1, 634344, Note_on_c, 0, 82, 70
1, 634349, Note_on_c, 0, 58, 60
1, 634350, Note_off_c, 0, 74, 73
1, 634355, Note_off_c, 0, 86, 68
1, 634360, Note_off_c, 0, 82, 66
1, 634362, Note_off_c, 0, 62, 65
1, 634372, Note_off_c, 0, 58, 63
1, 634427, Note_on_c, 0, 72, 83
1, 634430, Note_on_c, 0, 81, 74
1, 634436, Note_on_c, 0, 84, 62
1, 634438, Note_on_c, 0, 60, 75
1, 634442, Note_on_c, 0, 57, 63
1, 634445, Note_off_c, 0, 72, 74
1, 634445, Note_off_c, 0, 81, 69
1, 634456, Note_off_c, 0, 84, 63
1, 634463, Note_off_c, 0, 60, 68
1, 634471, Note_off_c, 0, 57, 66
1, 634512, Note_on_c, 0, 81, 74
1, 634514, Note_on_c, 0, 71, 56
1, 634527, Note_on_c, 0, 78, 30
1, 634534, Note_off_c, 0, 71, 60
1, 634537, Note_off_c, 0, 81, 68
1, 634543, Note_on_c, 0, 57, 39
1, 634543, Note_off_c, 0, 57, 127
1, 634544, Note_on_c, 0, 53, 36
1, 634564, Note_off_c, 0, 78, 32
1, 634580, Note_off_c, 0, 53, 51
1, 634604, Control_c, 0, 64, 49
1, 634619, Control_c, 0, 64, 93
1, 634625, Note_on_c, 0, 53, 97
1, 634627, Note_on_c, 0, 91, 99
1, 634630, Note_on_c, 0, 89, 105
1, 634633, Note_on_c, 0, 102, 80
1, 634634, Control_c, 0, 64, 127
1, 634638, Note_on_c, 0, 99, 68
1, 634638, Note_off_c, 0, 99, 127
1, 634641, Note_off_c, 0, 91, 75
1, 634642, Note_off_c, 0, 89, 76
1, 634644, Note_off_c, 0, 53, 69
1, 634645, Note_on_c, 0, 41, 49
1, 634645, Note_off_c, 0, 41, 127
1, 634646, Note_off_c, 0, 102, 69
1, 634658, Note_on_c, 0, 101, 38
1, 634658, Note_off_c, 0, 101, 127
1, 634681, Note_on_c, 0, 97, 4
1, 634685, Poly_aftertouch_c, 0, 41, 0
1, 634718, Note_off_c, 0, 97, 47
1, 634850, Control_c, 0, 64, 67
1, 634853, Note_on_c, 0, 72, 104
1, 634855, Note_on_c, 0, 60, 107
1, 634857, Note_on_c, 0, 81, 96
1, 634859, Note_on_c, 0, 84, 86
1, 634864, Note_on_c, 0, 57, 87
1, 634865, Control_c, 0, 64, 0
1, 634880, Note_on_c, 0, 83, 61
1, 634883, Note_off_c, 0, 84, 57
1, 634894, Control_c, 0, 64, 49
1, 634900, Note_off_c, 0, 83, 65
1, 634904, Note_off_c, 0, 81, 61
1, 634909, Control_c, 0, 64, 77
1, 634924, Control_c, 0, 64, 127
1, 634928, Note_off_c, 0, 72, 60
1, 634950, Note_off_c, 0, 57, 57
1, 635002, Note_off_c, 0, 60, 58
1, 635057, Note_on_c, 0, 81, 85
1, 635060, Note_on_c, 0, 69, 73
1, 635062, Note_on_c, 0, 77, 69
1, 635069, Note_on_c, 0, 53, 52
1, 635074, Note_on_c, 0, 71, 53
1, 635075, Note_off_c, 0, 69, 67
1, 635077, Note_off_c, 0, 77, 69
1, 635077, Note_off_c, 0, 81, 69
1, 635081, Note_on_c, 0, 57, 44
1, 635096, Note_off_c, 0, 71, 61
1, 635107, Note_off_c, 0, 53, 62
1, 635112, Note_off_c, 0, 57, 53
1, 635145, Control_c, 0, 64, 104
1, 635148, Note_on_c, 0, 62, 77
1, 635154, Poly_aftertouch_c, 0, 78, 0
1, 635155, Note_on_c, 0, 58, 70
1, 635155, Note_on_c, 0, 74, 94
1, 635157, Note_on_c, 0, 82, 83
1, 635160, Note_on_c, 0, 86, 74
1, 635160, Control_c, 0, 64, 70
1, 635170, Note_off_c, 0, 82, 71
1, 635170, Note_off_c, 0, 62, 70
1, 635172, Note_off_c, 0, 74, 74
1, 635175, Control_c, 0, 64, 0
1, 635177, Note_off_c, 0, 86, 64
1, 635183, Note_off_c, 0, 58, 69
1, 635244, Note_on_c, 0, 72, 86
1, 635251, Note_on_c, 0, 60, 72
1, 635251, Note_on_c, 0, 81, 68
1, 635253, Note_on_c, 0, 57, 75
1, 635256, Note_on_c, 0, 84, 57
1, 635262, Note_off_c, 0, 72, 72
1, 635268, Note_off_c, 0, 81, 66
1, 635275, Note_off_c, 0, 60, 70
1, 635278, Note_off_c, 0, 57, 67
1, 635279, Note_off_c, 0, 84, 39
1, 635328, Note_on_c, 0, 81, 84
1, 635333, Note_on_c, 0, 57, 72
1, 635336, Note_on_c, 0, 53, 59
1, 635340, Note_on_c, 0, 77, 58
1, 635342, Note_on_c, 0, 69, 50
1, 635342, Note_off_c, 0, 69, 127
1, 635351, Note_off_c, 0, 57, 65
1, 635359, Note_off_c, 0, 77, 65
1, 635363, Note_off_c, 0, 81, 66
1, 635368, Note_off_c, 0, 53, 64
1, 635396, Control_c, 0, 64, 66
1, 635411, Control_c, 0, 64, 106
1, 635434, Control_c, 0, 64, 127
1, 635444, Note_on_c, 0, 53, 98
1, 635452, Note_on_c, 0, 89, 107
1, 635454, Note_on_c, 0, 101, 98
1, 635469, Note_off_c, 0, 101, 73
1, 635470, Note_on_c, 0, 43, 52
1, 635470, Note_on_c, 0, 91, 67
1, 635470, Note_off_c, 0, 91, 127
1, 635470, Note_off_c, 0, 89, 65
1, 635473, Note_off_c, 0, 53, 66
1, 635499, Note_off_c, 0, 43, 55
1, 635657, Control_c, 0, 64, 77
1, 635669, Note_on_c, 0, 60, 105
1, 635672, Control_c, 0, 64, 46
1, 635674, Note_on_c, 0, 57, 79
1, 635676, Note_on_c, 0, 72, 104
1, 635679, Note_on_c, 0, 84, 100
1, 635680, Note_on_c, 0, 81, 100
1, 635687, Control_c, 0, 64, 0
1, 635701, Note_off_c, 0, 81, 64
1, 635701, Control_c, 0, 64, 65
1, 635703, Note_off_c, 0, 84, 61
1, 635706, Note_on_c, 0, 74, 43
1, 635706, Note_off_c, 0, 74, 127
1, 635716, Control_c, 0, 64, 104
1, 635731, Control_c, 0, 64, 127
1, 635742, Note_off_c, 0, 72, 54
1, 635812, Note_off_c, 0, 57, 38
1, 635834, Note_off_c, 0, 60, 58
1, 635882, Note_on_c, 0, 69, 73
1, 635896, Note_on_c, 0, 81, 58
1, 635898, Note_off_c, 0, 69, 67
1, 635899, Note_on_c, 0, 57, 44
1, 635902, Note_on_c, 0, 53, 43
1, 635903, Note_on_c, 0, 77, 38
1, 635917, Note_off_c, 0, 81, 62
1, 635932, Note_off_c, 0, 57, 57
1, 635932, Note_off_c, 0, 77, 55
1, 635936, Note_off_c, 0, 53, 55
1, 635939, Control_c, 0, 64, 109
1, 635953, Control_c, 0, 64, 85
1, 635968, Control_c, 0, 64, 70
1, 635983, Control_c, 0, 64, 50
1, 635988, Note_on_c, 0, 74, 82
1, 635990, Note_on_c, 0, 62, 61
1, 635992, Note_on_c, 0, 86, 68
1, 635998, Note_on_c, 0, 58, 56
1, 635998, Control_c, 0, 64, 0
1, 635999, Note_on_c, 0, 82, 62
1, 636008, Note_off_c, 0, 74, 71
1, 636009, Note_off_c, 0, 86, 66
1, 636013, Note_off_c, 0, 62, 64
1, 636017, Note_off_c, 0, 82, 63
1, 636034, Note_off_c, 0, 58, 65
1, 636087, Note_on_c, 0, 72, 75
1, 636088, Note_on_c, 0, 84, 67
1, 636102, Control_c, 0, 64, 38
1, 636103, Note_on_c, 0, 60, 47
1, 636113, Note_on_c, 0, 81, 32
1, 636117, Note_on_c, 0, 57, 25
1, 636117, Note_off_c, 0, 84, 49
1, 636117, Control_c, 0, 64, 63
1, 636123, Note_off_c, 0, 72, 53
1, 636130, Note_off_c, 0, 60, 60
1, 636132, Control_c, 0, 64, 73
1, 636146, Control_c, 0, 64, 83
1, 636151, Note_off_c, 0, 81, 47
1, 636159, Note_off_c, 0, 57, 54
1, 636161, Control_c, 0, 64, 90
1, 636183, Control_c, 0, 64, 93
1, 636198, Control_c, 0, 64, 95
1, 636257, Control_c, 0, 64, 94
1, 636272, Control_c, 0, 64, 87
1, 636287, Control_c, 0, 64, 70
1, 636296, Note_on_c, 0, 57, 49
1, 636302, Control_c, 0, 64, 51
1, 636317, Control_c, 0, 64, 0
1, 636331, Note_on_c, 0, 84, 58
1, 636338, Note_on_c, 0, 72, 51
1, 636382, Note_off_c, 0, 72, 49
1, 636391, Control_c, 0, 64, 57
1, 636406, Note_off_c, 0, 57, 39
1, 636406, Control_c, 0, 64, 68
1, 636421, Control_c, 0, 64, 77
1, 636428, Note_on_c, 0, 65, 46
1, 636429, Note_on_c, 0, 60, 36
1, 636436, Note_on_c, 0, 69, 18
1, 636436, Control_c, 0, 64, 90
1, 636451, Note_on_c, 0, 77, 38
1, 636451, Control_c, 0, 64, 98
1, 636453, Note_on_c, 0, 81, 36
1, 636466, Control_c, 0, 64, 101
1, 636473, Note_off_c, 0, 65, 46
1, 636481, Note_off_c, 0, 69, 52
1, 636482, Note_off_c, 0, 60, 50
1, 636484, Note_off_c, 0, 77, 53
1, 636488, Note_off_c, 0, 81, 53
1, 636509, Note_off_c, 0, 84, 0
1, 636525, Control_c, 0, 64, 103
1, 636533, Note_on_c, 0, 57, 46
1, 636535, Note_on_c, 0, 72, 54
1, 636546, Poly_aftertouch_c, 0, 84, 127
1, 636569, Note_off_c, 0, 57, 52
1, 636570, Note_off_c, 0, 72, 48
1, 636599, Control_c, 0, 64, 105
1, 636600, Poly_aftertouch_c, 0, 84, 0
1, 636609, Note_on_c, 0, 65, 57
1, 636614, Control_c, 0, 64, 108
1, 636619, Note_on_c, 0, 77, 51
1, 636629, Note_off_c, 0, 65, 64
1, 636630, Note_on_c, 0, 60, 32
1, 636636, Note_on_c, 0, 81, 39
1, 636658, Note_off_c, 0, 77, 62
1, 636663, Note_off_c, 0, 60, 56
1, 636668, Note_off_c, 0, 81, 49
1, 636673, Control_c, 0, 64, 90
1, 636688, Control_c, 0, 64, 67
1, 636703, Control_c, 0, 64, 39
1, 636718, Control_c, 0, 64, 0
1, 636722, Note_on_c, 0, 83, 58
1, 636724, Note_on_c, 0, 55, 51
1, 636725, Note_on_c, 0, 71, 54
1, 636748, Control_c, 0, 64, 36
1, 636749, Note_off_c, 0, 71, 58
1, 636752, Note_off_c, 0, 83, 53
1, 636763, Control_c, 0, 64, 58
1, 636775, Note_off_c, 0, 55, 60
1, 636777, Control_c, 0, 64, 69
1, 636792, Control_c, 0, 64, 80
1, 636806, Note_on_c, 0, 59, 49
1, 636807, Control_c, 0, 64, 94
1, 636808, Note_on_c, 0, 74, 46
1, 636820, Note_on_c, 0, 62, 39
1, 636822, Control_c, 0, 64, 112
1, 636828, Note_on_c, 0, 77, 22
1, 636833, Note_off_c, 0, 59, 62
1, 636836, Note_off_c, 0, 74, 54
1, 636837, Control_c, 0, 64, 127
1, 636852, Note_off_c, 0, 62, 48
1, 636870, Note_off_c, 0, 77, 54
1, 636881, Control_c, 0, 64, 95
1, 636881, Control_c, 0, 67, 27
1, 636895, Control_c, 0, 64, 72
1, 636895, Control_c, 0, 67, 40
1, 636910, Note_on_c, 0, 70, 70
1, 636910, Control_c, 0, 64, 54
1, 636910, Control_c, 0, 67, 62
1, 636925, Note_on_c, 0, 82, 65
1, 636928, Note_on_c, 0, 52, 50
1, 636933, Control_c, 0, 64, 40
1, 636933, Control_c, 0, 67, 85
1, 636945, Note_off_c, 0, 70, 69
1, 636948, Control_c, 0, 64, 56
1, 636948, Control_c, 0, 67, 105
1, 636961, Note_off_c, 0, 82, 61
1, 636963, Control_c, 0, 64, 66
1, 636963, Control_c, 0, 67, 127
1, 636967, Note_off_c, 0, 52, 46
1, 636977, Control_c, 0, 64, 77
1, 636992, Control_c, 0, 64, 100
1, 637007, Control_c, 0, 64, 127
1, 637033, Note_on_c, 0, 58, 43
1, 637044, Note_on_c, 0, 60, 38
1, 637066, Control_c, 0, 64, 97
1, 637071, Note_off_c, 0, 58, 54
1, 637076, Note_off_c, 0, 60, 57
1, 637081, Control_c, 0, 64, 74
1, 637096, Control_c, 0, 64, 51
1, 637110, Control_c, 0, 64, 0
1, 637119, Note_on_c, 0, 81, 77
1, 637124, Note_on_c, 0, 53, 54
1, 637125, Control_c, 0, 64, 43
1, 637140, Control_c, 0, 64, 60
1, 637143, Note_on_c, 0, 69, 40
1, 637143, Note_on_c, 0, 71, 40
1, 637145, Note_off_c, 0, 81, 62
1, 637156, Control_c, 0, 64, 70
1, 637171, Control_c, 0, 64, 83
1, 637173, Note_off_c, 0, 69, 52
1, 637175, Note_off_c, 0, 71, 52
1, 637175, Note_off_c, 0, 53, 56
1, 637186, Control_c, 0, 64, 100
1, 637200, Control_c, 0, 64, 103
1, 637211, Note_on_c, 0, 60, 51
1, 637216, Note_on_c, 0, 57, 55
1, 637230, Control_c, 0, 64, 98
1, 637232, Note_on_c, 0, 77, 28
1, 637237, Note_off_c, 0, 60, 58
1, 637239, Note_off_c, 0, 57, 61
1, 637245, Control_c, 0, 64, 79
1, 637260, Control_c, 0, 64, 60
1, 637266, Note_off_c, 0, 77, 49
1, 637274, Control_c, 0, 64, 0
1, 637289, Control_c, 0, 67, 86
1, 637304, Control_c, 0, 67, 30
1, 637318, Note_on_c, 0, 67, 73
1, 637318, Control_c, 0, 67, 0
1, 637324, Note_on_c, 0, 79, 65
1, 637329, Note_on_c, 0, 50, 47
1, 637337, Note_off_c, 0, 67, 68
1, 637342, Note_off_c, 0, 79, 66
1, 637357, Note_off_c, 0, 50, 53
1, 637409, Note_on_c, 0, 65, 69
1, 637412, Note_on_c, 0, 69, 68
1, 637414, Note_on_c, 0, 81, 71
1, 637426, Note_on_c, 0, 60, 46
1, 637430, Note_off_c, 0, 69, 67
1, 637434, Note_off_c, 0, 81, 68
1, 637438, Note_off_c, 0, 65, 67
1, 637455, Note_off_c, 0, 60, 58
1, 637500, Note_on_c, 0, 70, 76
1, 637501, Note_on_c, 0, 82, 78
1, 637515, Note_on_c, 0, 55, 55
1, 637521, Note_off_c, 0, 70, 71
1, 637521, Note_off_c, 0, 82, 70
1, 637551, Note_off_c, 0, 55, 64
1, 637591, Note_on_c, 0, 72, 70
1, 637591, Note_on_c, 0, 84, 72
1, 637602, Note_on_c, 0, 64, 56
1, 637607, Note_off_c, 0, 84, 68
1, 637610, Note_off_c, 0, 72, 67
1, 637612, Note_on_c, 0, 60, 39
1, 637634, Note_off_c, 0, 64, 64
1, 637656, Note_off_c, 0, 60, 62
1, 637701, Note_on_c, 0, 81, 81
1, 637704, Note_on_c, 0, 69, 74
1, 637705, Note_on_c, 0, 53, 51
1, 637726, Control_c, 0, 67, 22
1, 637741, Control_c, 0, 64, 58
1, 637741, Control_c, 0, 67, 26
1, 637756, Control_c, 0, 64, 69
1, 637756, Control_c, 0, 67, 33
1, 637760, Note_off_c, 0, 53, 61
1, 637762, Note_off_c, 0, 69, 61
1, 637771, Control_c, 0, 64, 76
1, 637771, Control_c, 0, 67, 42
1, 637786, Control_c, 0, 64, 89
1, 637786, Control_c, 0, 67, 54
1, 637798, Note_on_c, 0, 60, 27
1, 637800, Note_off_c, 0, 81, 60
1, 637800, Control_c, 0, 64, 104
1, 637800, Control_c, 0, 67, 64
1, 637812, Note_on_c, 0, 77, 34
1, 637815, Control_c, 0, 64, 127
1, 637815, Control_c, 0, 67, 69
1, 637819, Note_on_c, 0, 65, 41
1, 637830, Poly_aftertouch_c, 0, 57, 127
1, 637830, Control_c, 0, 67, 71
1, 637834, Note_off_c, 0, 60, 56
1, 637845, Note_off_c, 0, 77, 53
1, 637852, Note_off_c, 0, 65, 51
1, 637860, Control_c, 0, 67, 72
1, 637869, Poly_aftertouch_c, 0, 57, 0
1, 637880, Poly_aftertouch_c, 0, 72, 0
1, 637889, Note_on_c, 0, 72, 66
1, 637891, Note_on_c, 0, 84, 104
1, 637892, Note_on_c, 0, 57, 47
1, 637904, Control_c, 0, 64, 114
1, 637919, Control_c, 0, 64, 77
1, 637933, Control_c, 0, 64, 57
1, 637949, Control_c, 0, 64, 0
1, 637952, Note_off_c, 0, 72, 0
1, 637954, Note_off_c, 0, 57, 61
1, 637964, Control_c, 0, 67, 71
1, 637979, Control_c, 0, 67, 70
1, 637989, Poly_aftertouch_c, 0, 72, 127
1, 637994, Note_on_c, 0, 69, 47
1, 637994, Control_c, 0, 67, 70
1, 637997, Note_on_c, 0, 60, 40
1, 637998, Note_on_c, 0, 81, 71
1, 638003, Poly_aftertouch_c, 0, 72, 0
1, 638009, Note_on_c, 0, 65, 50
1, 638009, Control_c, 0, 67, 69
1, 638013, Note_on_c, 0, 77, 59
1, 638019, Note_off_c, 0, 69, 54
1, 638038, Control_c, 0, 67, 68
1, 638052, Note_off_c, 0, 77, 59
1, 638053, Control_c, 0, 64, 56
1, 638053, Control_c, 0, 67, 67
1, 638055, Note_off_c, 0, 65, 62
1, 638061, Note_off_c, 0, 60, 42
1, 638068, Control_c, 0, 64, 68
1, 638083, Control_c, 0, 64, 74
1, 638083, Control_c, 0, 67, 66
1, 638091, Note_on_c, 0, 56, 58
1, 638097, Control_c, 0, 64, 78
1, 638097, Control_c, 0, 67, 65
1, 638112, Control_c, 0, 64, 79
1, 638112, Control_c, 0, 67, 63
1, 638120, Note_on_c, 0, 72, 51
1, 638127, Note_off_c, 0, 81, 54
1, 638127, Control_c, 0, 67, 61
1, 638141, Control_c, 0, 64, 80
1, 638141, Control_c, 0, 67, 60
1, 638142, Note_off_c, 0, 56, 52
1, 638146, Note_off_c, 0, 72, 51
1, 638156, Control_c, 0, 64, 81
1, 638156, Control_c, 0, 67, 59
1, 638171, Control_c, 0, 64, 83
1, 638171, Control_c, 0, 67, 58
1, 638184, Note_off_c, 0, 84, 52
1, 638186, Control_c, 0, 64, 85
1, 638186, Control_c, 0, 67, 57
1, 638194, Note_on_c, 0, 60, 40
1, 638198, Note_on_c, 0, 80, 62
1, 638201, Control_c, 0, 64, 86
1, 638201, Control_c, 0, 67, 55
1, 638211, Note_on_c, 0, 65, 31
1, 638215, Note_on_c, 0, 68, 28
1, 638216, Control_c, 0, 64, 87
1, 638216, Control_c, 0, 67, 51
1, 638225, Note_off_c, 0, 60, 55
1, 638230, Control_c, 0, 67, 49
1, 638237, Note_off_c, 0, 80, 56
1, 638242, Note_off_c, 0, 65, 46
1, 638245, Control_c, 0, 64, 86
1, 638245, Control_c, 0, 67, 49
1, 638251, Note_off_c, 0, 68, 43
1, 638257, Poly_aftertouch_c, 0, 77, 127
1, 638260, Control_c, 0, 64, 77
1, 638275, Control_c, 0, 64, 62
1, 638290, Control_c, 0, 64, 0
1, 638299, Poly_aftertouch_c, 0, 77, 0
1, 638305, Note_on_c, 0, 83, 70
1, 638308, Note_on_c, 0, 56, 47
1, 638335, Control_c, 0, 64, 38
1, 638349, Control_c, 0, 64, 60
1, 638354, Note_off_c, 0, 56, 59
1, 638357, Note_off_c, 0, 83, 59
1, 638364, Control_c, 0, 64, 71
1, 638364, Control_c, 0, 67, 49
1, 638379, Control_c, 0, 64, 82
1, 638394, Control_c, 0, 64, 91
1, 638394, Control_c, 0, 67, 50
1, 638409, Control_c, 0, 64, 94
1, 638409, Control_c, 0, 67, 51
1, 638411, Note_on_c, 0, 74, 44
1, 638415, Note_on_c, 0, 65, 41
1, 638430, Control_c, 0, 64, 95
1, 638430, Control_c, 0, 67, 53
1, 638442, Note_on_c, 0, 59, 19
1, 638445, Control_c, 0, 67, 56
1, 638446, Note_off_c, 0, 74, 52
1, 638451, Note_on_c, 0, 62, 26
1, 638454, Note_off_c, 0, 65, 55
1, 638456, Poly_aftertouch_c, 0, 77, 127
1, 638460, Control_c, 0, 64, 89
1, 638460, Control_c, 0, 67, 58
1, 638475, Control_c, 0, 64, 76
1, 638475, Control_c, 0, 67, 61
1, 638486, Note_off_c, 0, 59, 41
1, 638486, Poly_aftertouch_c, 0, 77, 0
1, 638487, Note_off_c, 0, 62, 51
1, 638490, Control_c, 0, 64, 60
1, 638490, Control_c, 0, 67, 67
1, 638505, Control_c, 0, 64, 0
1, 638505, Control_c, 0, 67, 79
1, 638517, Note_on_c, 0, 55, 45
1, 638520, Control_c, 0, 67, 96
1, 638520, Note_on_c, 0, 82, 60
1, 638523, Note_on_c, 0, 70, 52
1, 638535, Control_c, 0, 64, 51
1, 638535, Control_c, 0, 67, 111
1, 638543, Note_off_c, 0, 70, 62
1, 638549, Control_c, 0, 64, 64
1, 638549, Control_c, 0, 67, 123
1, 638558, Note_off_c, 0, 82, 48
1, 638564, Control_c, 0, 64, 73
1, 638564, Control_c, 0, 67, 127
1, 638579, Control_c, 0, 64, 85
1, 638583, Note_off_c, 0, 55, 58
1, 638594, Control_c, 0, 64, 93
1, 638609, Control_c, 0, 64, 98
1, 638615, Note_on_c, 0, 76, 43
1, 638623, Control_c, 0, 64, 102
1, 638624, Note_on_c, 0, 73, 36
1, 638631, Note_on_c, 0, 58, 39
1, 638639, Note_on_c, 0, 64, 35
1, 638642, Note_off_c, 0, 76, 56
1, 638646, Note_on_c, 0, 61, 32
1, 638653, Control_c, 0, 64, 100
1, 638657, Note_off_c, 0, 73, 50
1, 638665, Note_off_c, 0, 58, 51
1, 638668, Control_c, 0, 64, 87
1, 638669, Note_off_c, 0, 64, 51
1, 638682, Control_c, 0, 64, 69
1, 638684, Note_off_c, 0, 61, 45
1, 638697, Control_c, 0, 64, 56
1, 638712, Control_c, 0, 64, 48
1, 638720, Note_on_c, 0, 69, 67
1, 638720, Note_on_c, 0, 81, 66
1, 638727, Control_c, 0, 64, 55
1, 638731, Note_on_c, 0, 53, 36
1, 638740, Note_off_c, 0, 81, 58
1, 638742, Control_c, 0, 64, 62
1, 638743, Note_off_c, 0, 69, 61
1, 638758, Control_c, 0, 64, 69
1, 638772, Note_off_c, 0, 53, 48
1, 638772, Control_c, 0, 64, 77
1, 638787, Control_c, 0, 64, 86
1, 638802, Control_c, 0, 64, 89
1, 638817, Control_c, 0, 64, 89
1, 638825, Note_on_c, 0, 60, 43
1, 638827, Note_on_c, 0, 65, 32
1, 638835, Note_on_c, 0, 57, 37
1, 638846, Control_c, 0, 64, 82
1, 638854, Note_off_c, 0, 60, 55
1, 638860, Note_off_c, 0, 65, 47
1, 638861, Control_c, 0, 64, 68
1, 638861, Control_c, 0, 67, 105
1, 638867, Note_off_c, 0, 57, 48
1, 638876, Control_c, 0, 64, 0
1, 638876, Control_c, 0, 67, 53
1, 638880, Poly_aftertouch_c, 0, 72, 0
1, 638890, Control_c, 0, 67, 0
1, 638926, Note_on_c, 0, 67, 68
1, 638931, Note_on_c, 0, 48, 58
1, 638934, Note_on_c, 0, 79, 58
1, 638945, Note_off_c, 0, 67, 65
1, 638958, Note_off_c, 0, 48, 58
1, 638958, Note_off_c, 0, 79, 59
1, 639013, Note_on_c, 0, 69, 71
1, 639023, Note_on_c, 0, 81, 61
1, 639024, Note_on_c, 0, 65, 60
1, 639034, Note_on_c, 0, 60, 55
1, 639036, Note_off_c, 0, 69, 69
1, 639042, Note_off_c, 0, 81, 62
1, 639044, Note_off_c, 0, 65, 65
1, 639063, Note_off_c, 0, 60, 61
1, 639105, Note_on_c, 0, 70, 79
1, 639110, Note_on_c, 0, 82, 76
1, 639120, Note_on_c, 0, 55, 60
1, 639126, Note_off_c, 0, 70, 72
1, 639130, Note_off_c, 0, 82, 71
1, 639155, Note_off_c, 0, 55, 64
1, 639194, Control_c, 0, 67, 22
1, 639203, Note_on_c, 0, 72, 75
1, 639209, Control_c, 0, 67, 30
1, 639216, Note_on_c, 0, 64, 56
1, 639216, Note_on_c, 0, 84, 52
1, 639224, Control_c, 0, 67, 37
1, 639226, Note_off_c, 0, 72, 70
1, 639232, Note_on_c, 0, 60, 40
1, 639239, Control_c, 0, 67, 47
1, 639241, Note_off_c, 0, 84, 38
1, 639246, Note_off_c, 0, 64, 64
1, 639254, Control_c, 0, 67, 61
1, 639268, Note_off_c, 0, 60, 53
1, 639269, Control_c, 0, 67, 77
1, 639284, Control_c, 0, 67, 93
1, 639298, Control_c, 0, 67, 106
1, 639306, Note_on_c, 0, 69, 83
1, 639307, Note_on_c, 0, 81, 72
1, 639313, Control_c, 0, 64, 36
1, 639313, Control_c, 0, 67, 117
1, 639319, Note_on_c, 0, 53, 48
1, 639328, Control_c, 0, 64, 58
1, 639328, Control_c, 0, 67, 125
1, 639343, Control_c, 0, 64, 68
1, 639343, Control_c, 0, 67, 127
1, 639355, Note_off_c, 0, 53, 63
1, 639358, Control_c, 0, 64, 75
1, 639371, Note_off_c, 0, 69, 60
1, 639372, Control_c, 0, 64, 85
1, 639387, Control_c, 0, 64, 96
1, 639391, Note_on_c, 0, 60, 44
1, 639400, Note_off_c, 0, 81, 35
1, 639402, Control_c, 0, 64, 108
1, 639406, Note_on_c, 0, 77, 52
1, 639408, Note_on_c, 0, 72, 51
1, 639417, Control_c, 0, 64, 127
1, 639420, Note_off_c, 0, 60, 55
1, 639427, Note_off_c, 0, 77, 62
1, 639432, Note_off_c, 0, 72, 59
1, 639467, Poly_aftertouch_c, 0, 57, 0
1, 639477, Control_c, 0, 64, 87
1, 639491, Control_c, 0, 64, 67
1, 639493, Note_on_c, 0, 84, 99
1, 639493, Note_on_c, 0, 72, 96
1, 639495, Poly_aftertouch_c, 0, 65, 0
1, 639506, Control_c, 0, 64, 0
1, 639518, Note_on_c, 0, 57, 30
1, 639537, Note_on_c, 0, 83, 28
1, 639537, Note_off_c, 0, 83, 127
1, 639551, Note_on_c, 0, 59, 3
1, 639558, Note_off_c, 0, 57, 61
1, 639566, Control_c, 0, 64, 46
1, 639571, Note_off_c, 0, 59, 46
1, 639581, Control_c, 0, 64, 68
1, 639593, Note_off_c, 0, 72, 60
1, 639596, Control_c, 0, 64, 78
1, 639596, Note_on_c, 0, 81, 61
1, 639610, Note_on_c, 0, 69, 6
1, 639611, Control_c, 0, 64, 95
1, 639619, Note_off_c, 0, 84, 54
1, 639626, Control_c, 0, 64, 109
1, 639632, Note_on_c, 0, 77, 44
1, 639640, Control_c, 0, 64, 119
1, 639642, Poly_aftertouch_c, 0, 60, 127
1, 639658, Note_off_c, 0, 69, 48
1, 639662, Poly_aftertouch_c, 0, 65, 0
1, 639670, Control_c, 0, 64, 112
1, 639676, Poly_aftertouch_c, 0, 60, 0
1, 639685, Control_c, 0, 64, 88
1, 639686, Poly_aftertouch_c, 0, 65, 0
1, 639695, Note_on_c, 0, 56, 51
1, 639700, Control_c, 0, 64, 72
1, 639700, Note_off_c, 0, 77, 44
1, 639715, Control_c, 0, 64, 63
1, 639727, Note_on_c, 0, 84, 60
1, 639729, Control_c, 0, 64, 60
1, 639732, Note_off_c, 0, 81, 31
1, 639733, Note_on_c, 0, 72, 51
1, 639744, Control_c, 0, 64, 64
1, 639750, Note_off_c, 0, 56, 47
1, 639757, Note_off_c, 0, 84, 51
1, 639759, Control_c, 0, 64, 68
1, 639774, Control_c, 0, 64, 76
1, 639783, Note_off_c, 0, 72, 57
1, 639789, Control_c, 0, 64, 86
1, 639803, Control_c, 0, 64, 97
1, 639813, Note_on_c, 0, 60, 26
1, 639818, Control_c, 0, 64, 106
1, 639823, Note_on_c, 0, 66, 36
1, 639833, Control_c, 0, 64, 115
1, 639848, Control_c, 0, 64, 122
1, 639852, Note_off_c, 0, 66, 50
1, 639853, Note_off_c, 0, 60, 54
1, 639862, Control_c, 0, 64, 124
1, 639865, Note_on_c, 0, 78, 47
1, 639877, Control_c, 0, 64, 119
1, 639879, Poly_aftertouch_c, 0, 62, 127
1, 639892, Control_c, 0, 64, 100
1, 639907, Control_c, 0, 64, 81
1, 639928, Poly_aftertouch_c, 0, 62, 0
1, 639929, Control_c, 0, 64, 66
1, 639930, Note_on_c, 0, 55, 49
1, 639933, Note_off_c, 0, 78, 50
1, 639944, Control_c, 0, 64, 49
1, 639959, Control_c, 0, 64, 0
1, 639962, Note_on_c, 0, 83, 65
1, 639974, Control_c, 0, 64, 38
1, 639978, Note_on_c, 0, 71, 33
1, 639986, Note_off_c, 0, 55, 50
1, 639989, Control_c, 0, 64, 56
1, 640003, Control_c, 0, 64, 66
1, 640010, Note_off_c, 0, 71, 51
1, 640018, Control_c, 0, 64, 72
1, 640033, Control_c, 0, 64, 77
1, 640038, Note_off_c, 0, 83, 62
1, 640047, Control_c, 0, 64, 81
1, 640049, Note_on_c, 0, 67, 29
1, 640058, Note_on_c, 0, 62, 38
1, 640060, Note_on_c, 0, 59, 34
1, 640062, Control_c, 0, 64, 82
1, 640070, Note_on_c, 0, 74, 30
1, 640077, Control_c, 0, 64, 85
1, 640084, Note_off_c, 0, 67, 41
1, 640092, Control_c, 0, 64, 87
1, 640094, Note_off_c, 0, 59, 56
1, 640105, Note_off_c, 0, 74, 45
1, 640107, Control_c, 0, 64, 88
1, 640111, Note_off_c, 0, 62, 57
1, 640136, Control_c, 0, 64, 88
1, 640151, Control_c, 0, 64, 83
1, 640166, Control_c, 0, 64, 73
1, 640181, Control_c, 0, 64, 60
1, 640186, Note_on_c, 0, 54, 42
1, 640195, Control_c, 0, 64, 36
1, 640203, Note_on_c, 0, 82, 47
1, 640210, Control_c, 0, 64, 0
1, 640211, Note_on_c, 0, 70, 41
1, 640225, Control_c, 0, 64, 36
1, 640240, Control_c, 0, 64, 49
1, 640247, Note_off_c, 0, 70, 51
1, 640255, Control_c, 0, 64, 60
1, 640269, Control_c, 0, 64, 67
1, 640284, Control_c, 0, 64, 75
1, 640290, Note_off_c, 0, 82, 49
1, 640293, Note_off_c, 0, 54, 59
1, 640299, Control_c, 0, 64, 82
1, 640314, Control_c, 0, 64, 86
1, 640329, Note_on_c, 0, 64, 27
1, 640329, Control_c, 0, 64, 90
1, 640344, Control_c, 0, 64, 94
1, 640359, Control_c, 0, 64, 98
1, 640366, Note_off_c, 0, 64, 52
1, 640374, Control_c, 0, 64, 102
1, 640379, Poly_aftertouch_c, 0, 58, 127
1, 640399, Poly_aftertouch_c, 0, 61, 127
1, 640421, Poly_aftertouch_c, 0, 58, 0
1, 640433, Control_c, 0, 64, 99
1, 640439, Poly_aftertouch_c, 0, 61, 0
1, 640448, Control_c, 0, 64, 86
1, 640463, Control_c, 0, 64, 73
1, 640478, Control_c, 0, 64, 59
1, 640479, Note_on_c, 0, 53, 30
1, 640485, Note_on_c, 0, 81, 58
1, 640493, Control_c, 0, 64, 45
1, 640505, Note_on_c, 0, 69, 36
1, 640508, Control_c, 0, 64, 50
1, 640523, Control_c, 0, 64, 58
1, 640538, Control_c, 0, 64, 65
1, 640552, Control_c, 0, 64, 71
1, 640561, Note_off_c, 0, 69, 45
1, 640567, Control_c, 0, 64, 78
1, 640571, Note_off_c, 0, 53, 32
1, 640582, Control_c, 0, 64, 82
1, 640597, Control_c, 0, 64, 84
1, 640612, Control_c, 0, 64, 85
1, 640615, Note_on_c, 0, 65, 34
1, 640624, Note_on_c, 0, 60, 24
1, 640626, Control_c, 0, 64, 86
1, 640628, Note_on_c, 0, 57, 39
1, 640641, Control_c, 0, 64, 87
1, 640645, Note_off_c, 0, 81, 30
1, 640649, Note_off_c, 0, 65, 45
1, 640656, Control_c, 0, 64, 88
1, 640672, Note_off_c, 0, 60, 51
1, 640675, Note_off_c, 0, 57, 63
1, 640678, Control_c, 0, 64, 89
1, 640693, Control_c, 0, 64, 90
1, 640720, Poly_aftertouch_c, 0, 77, 127
1, 640777, Poly_aftertouch_c, 0, 77, 0
1, 640797, Control_c, 0, 64, 88
1, 640812, Control_c, 0, 64, 83
1, 640826, Control_c, 0, 64, 75
1, 640841, Control_c, 0, 64, 65
1, 640856, Control_c, 0, 64, 51
1, 640860, Note_on_c, 0, 49, 40
1, 640870, Control_c, 0, 64, 0
1, 640880, Note_on_c, 0, 67, 38
1, 640884, Note_on_c, 0, 79, 40
1, 640906, Note_off_c, 0, 49, 57
1, 640907, Note_off_c, 0, 67, 55
1, 640919, Note_off_c, 0, 79, 55
1, 641095, Note_on_c, 0, 55, 41
1, 641098, Note_on_c, 0, 65, 36
1, 641108, Note_on_c, 0, 58, 40
1, 641110, Note_on_c, 0, 69, 46
1, 641122, Note_on_c, 0, 81, 41
1, 641129, Note_off_c, 0, 65, 45
1, 641130, Note_off_c, 0, 55, 63
1, 641135, Note_off_c, 0, 69, 54
1, 641137, Note_off_c, 0, 58, 59
1, 641151, Note_off_c, 0, 81, 52
1, 641388, Note_on_c, 0, 82, 46
1, 641390, Note_on_c, 0, 70, 30
1, 641392, Note_on_c, 0, 48, 18
1, 641426, Note_off_c, 0, 48, 47
1, 641429, Note_off_c, 0, 70, 52
1, 641435, Note_off_c, 0, 82, 53
1, 641811, Note_on_c, 0, 58, 31
1, 641813, Note_on_c, 0, 55, 29
1, 641818, Note_on_c, 0, 84, 47
1, 641824, Note_on_c, 0, 72, 35
1, 641832, Note_on_c, 0, 64, 16
1, 641846, Note_off_c, 0, 55, 55
1, 641851, Note_off_c, 0, 58, 58
1, 641861, Note_off_c, 0, 84, 45
1, 641862, Note_off_c, 0, 72, 51
1, 641864, Note_off_c, 0, 64, 48
1, 642487, Control_c, 0, 67, 92
1, 642502, Control_c, 0, 67, 0
1, 642819, Note_on_c, 0, 65, 73
1, 642825, Note_on_c, 0, 77, 60
1, 642836, Note_on_c, 0, 53, 47
1, 642836, Note_off_c, 0, 65, 67
1, 642844, Control_c, 0, 64, 78
1, 642845, Note_off_c, 0, 77, 63
1, 642858, Control_c, 0, 64, 127
1, 642878, Note_off_c, 0, 53, 60
1, 642950, Note_on_c, 0, 60, 44
1, 642978, Note_off_c, 0, 60, 59
1, 643003, Poly_aftertouch_c, 0, 57, 127
1, 643034, Note_on_c, 0, 65, 51
1, 643040, Poly_aftertouch_c, 0, 57, 0
1, 643058, Note_off_c, 0, 65, 56
1, 643104, Note_on_c, 0, 60, 45
1, 643112, Note_on_c, 0, 57, 61
1, 643133, Control_c, 0, 64, 76
1, 643136, Note_off_c, 0, 60, 54
1, 643140, Note_off_c, 0, 57, 65
1, 643147, Control_c, 0, 64, 48
1, 643162, Control_c, 0, 64, 0
1, 643177, Control_c, 0, 64, 51
1, 643192, Control_c, 0, 64, 68
1, 643207, Control_c, 0, 64, 93
1, 643214, Note_on_c, 0, 65, 77
1, 643215, Note_on_c, 0, 53, 75
1, 643221, Control_c, 0, 64, 127
1, 643240, Note_off_c, 0, 65, 65
1, 643241, Note_off_c, 0, 53, 68
1, 643303, Note_on_c, 0, 60, 63
1, 643317, Note_on_c, 0, 57, 43
1, 643332, Note_off_c, 0, 60, 67
1, 643333, Note_on_c, 0, 41, 49
1, 643346, Note_off_c, 0, 57, 55
1, 643362, Note_off_c, 0, 41, 62
1, 643385, Note_on_c, 0, 45, 26
1, 643394, Note_on_c, 0, 48, 42
1, 643399, Control_c, 0, 64, 111
1, 643414, Control_c, 0, 64, 71
1, 643420, Note_on_c, 0, 53, 41
1, 643421, Note_on_c, 0, 64, 41
1, 643424, Note_off_c, 0, 45, 43
1, 643425, Note_off_c, 0, 48, 51
1, 643428, Note_on_c, 0, 65, 44
1, 643429, Control_c, 0, 64, 0
1, 643443, Note_off_c, 0, 53, 38
1, 643450, Note_off_c, 0, 65, 37
1, 643450, Note_off_c, 0, 64, 46
1, 643489, Note_on_c, 0, 57, 60
1, 643497, Note_on_c, 0, 65, 74
1, 643515, Note_off_c, 0, 65, 67
1, 643519, Note_off_c, 0, 57, 65
1, 643594, Note_on_c, 0, 58, 74
1, 643596, Note_on_c, 0, 70, 77
1, 643619, Note_off_c, 0, 58, 69
1, 643676, Note_off_c, 0, 70, 61
1, 643686, Note_on_c, 0, 37, 49
1, 643706, Note_on_c, 0, 65, 35
1, 643709, Note_on_c, 0, 61, 41
1, 643733, Note_on_c, 0, 41, 51
1, 643736, Note_off_c, 0, 61, 54
1, 643737, Note_off_c, 0, 37, 55
1, 643758, Note_off_c, 0, 65, 45
1, 643771, Note_off_c, 0, 41, 61
1, 643778, Note_on_c, 0, 46, 66
1, 643807, Note_off_c, 0, 46, 65
1, 643808, Note_on_c, 0, 49, 72
1, 643819, Note_on_c, 0, 58, 74
1, 643822, Note_on_c, 0, 70, 66
1, 643835, Note_off_c, 0, 49, 65
1, 643849, Note_off_c, 0, 58, 60
1, 643867, Note_off_c, 0, 70, 58
1, 643900, Note_on_c, 0, 65, 62
1, 643914, Note_on_c, 0, 61, 42
1, 643941, Note_off_c, 0, 61, 56
1, 643959, Note_off_c, 0, 65, 55
1, 644012, Note_on_c, 0, 58, 83
1, 644012, Note_on_c, 0, 70, 72
1, 644013, Control_c, 0, 64, 64
1, 644028, Control_c, 0, 64, 127
1, 644064, Note_off_c, 0, 58, 57
1, 644083, Note_off_c, 0, 70, 61
1, 644094, Note_on_c, 0, 34, 56
1, 644103, Note_on_c, 0, 65, 61
1, 644125, Note_off_c, 0, 65, 65
1, 644133, Note_on_c, 0, 37, 60
1, 644159, Note_off_c, 0, 34, 60
1, 644167, Note_on_c, 0, 41, 59
1, 644172, Note_off_c, 0, 37, 61
1, 644187, Poly_aftertouch_c, 0, 61, 0
1, 644196, Note_off_c, 0, 41, 62
1, 644198, Note_on_c, 0, 46, 67
1, 644208, Note_on_c, 0, 61, 63
1, 644213, Note_on_c, 0, 73, 75
1, 644221, Note_off_c, 0, 46, 61
1, 644234, Note_off_c, 0, 73, 65
1, 644237, Control_c, 0, 64, 69
1, 644238, Note_off_c, 0, 61, 62
1, 644252, Control_c, 0, 64, 0
1, 644287, Note_on_c, 0, 70, 82
1, 644296, Note_on_c, 0, 58, 69
1, 644309, Note_off_c, 0, 70, 71
1, 644321, Note_off_c, 0, 58, 68
1, 644398, Note_on_c, 0, 57, 81
1, 644398, Note_on_c, 0, 69, 79
1, 644434, Note_off_c, 0, 69, 57
1, 644438, Note_off_c, 0, 57, 60
1, 644496, Note_on_c, 0, 65, 64
1, 644524, Note_on_c, 0, 29, 54
1, 644526, Note_off_c, 0, 65, 66
1, 644565, Note_off_c, 0, 29, 64
1, 644576, Note_on_c, 0, 33, 48
1, 644595, Poly_aftertouch_c, 0, 60, 0
1, 644603, Note_on_c, 0, 41, 65
1, 644604, Note_on_c, 0, 36, 36
1, 644606, Note_on_c, 0, 53, 89
1, 644606, Note_off_c, 0, 33, 51
1, 644609, Note_on_c, 0, 65, 71
1, 644625, Note_off_c, 0, 41, 59
1, 644629, Note_off_c, 0, 65, 63
1, 644635, Note_off_c, 0, 53, 63
1, 644644, Note_off_c, 0, 36, 45
1, 644699, Note_on_c, 0, 60, 62
1, 644727, Note_off_c, 0, 60, 68
1, 644735, Note_on_c, 0, 57, 17
1, 644779, Note_off_c, 0, 57, 28
1, 644803, Note_on_c, 0, 53, 99
1, 644805, Note_on_c, 0, 65, 96
1, 644808, Control_c, 0, 64, 64
1, 644823, Control_c, 0, 64, 127
1, 644843, Note_off_c, 0, 53, 60
1, 644893, Note_off_c, 0, 65, 59
1, 644911, Note_on_c, 0, 60, 62
1, 644913, Note_on_c, 0, 41, 51
1, 644922, Note_on_c, 0, 57, 37
1, 644932, Note_off_c, 0, 60, 66
1, 644943, Note_off_c, 0, 41, 62
1, 644957, Note_off_c, 0, 57, 53
1, 644958, Note_on_c, 0, 45, 41
1, 644967, Note_on_c, 0, 48, 49
1, 644985, Control_c, 0, 64, 90
1, 644991, Note_off_c, 0, 45, 53
1, 644991, Note_on_c, 0, 53, 63
1, 644998, Note_off_c, 0, 48, 68
1, 645000, Control_c, 0, 64, 63
1, 645006, Note_off_c, 0, 53, 71
1, 645008, Note_on_c, 0, 65, 73
1, 645015, Control_c, 0, 64, 0
1, 645027, Note_off_c, 0, 65, 67
1, 645093, Note_on_c, 0, 65, 80
1, 645099, Note_on_c, 0, 57, 47
1, 645113, Note_off_c, 0, 65, 67
1, 645125, Note_off_c, 0, 57, 57
1, 645197, Note_on_c, 0, 70, 75
1, 645198, Note_on_c, 0, 58, 73
1, 645216, Note_off_c, 0, 58, 67
1, 645267, Note_on_c, 0, 37, 40
1, 645267, Note_off_c, 0, 70, 60
1, 645292, Note_on_c, 0, 65, 53
1, 645313, Note_on_c, 0, 61, 23
1, 645313, Note_off_c, 0, 37, 50
1, 645328, Note_on_c, 0, 41, 34
1, 645341, Note_off_c, 0, 65, 59
1, 645355, Note_off_c, 0, 61, 38
1, 645360, Note_off_c, 0, 41, 49
1, 645365, Note_on_c, 0, 46, 59
1, 645396, Note_off_c, 0, 46, 64
1, 645397, Note_on_c, 0, 49, 71
1, 645407, Note_on_c, 0, 58, 71
1, 645408, Note_on_c, 0, 70, 61
1, 645423, Note_off_c, 0, 49, 66
1, 645436, Note_off_c, 0, 58, 64
1, 645447, Note_off_c, 0, 70, 48
1, 645492, Note_on_c, 0, 65, 49
1, 645497, Note_on_c, 0, 61, 36
1, 645527, Note_off_c, 0, 61, 51
1, 645540, Note_off_c, 0, 65, 50
1, 645587, Control_c, 0, 64, 56
1, 645602, Control_c, 0, 64, 89
1, 645603, Note_on_c, 0, 58, 69
1, 645607, Note_on_c, 0, 70, 63
1, 645617, Control_c, 0, 64, 127
1, 645636, Note_off_c, 0, 58, 59
1, 645662, Note_on_c, 0, 34, 53
1, 645676, Note_off_c, 0, 70, 59
1, 645702, Note_on_c, 0, 65, 47
1, 645708, Note_on_c, 0, 37, 52
1, 645720, Note_off_c, 0, 34, 58
1, 645729, Note_off_c, 0, 65, 56
1, 645735, Note_on_c, 0, 41, 53
1, 645745, Note_off_c, 0, 37, 61
1, 645763, Note_off_c, 0, 41, 61
1, 645771, Poly_aftertouch_c, 0, 61, 0
1, 645772, Note_on_c, 0, 46, 61
1, 645779, Control_c, 0, 64, 78
1, 645787, Poly_aftertouch_c, 0, 61, 0
1, 645794, Control_c, 0, 64, 45
1, 645796, Note_on_c, 0, 61, 55
1, 645799, Note_off_c, 0, 46, 60
1, 645804, Note_on_c, 0, 73, 59
1, 645809, Control_c, 0, 64, 0
1, 645823, Note_off_c, 0, 61, 62
1, 645825, Note_off_c, 0, 73, 63
1, 645880, Note_on_c, 0, 70, 74
1, 645886, Note_on_c, 0, 58, 62
1, 645905, Note_off_c, 0, 70, 70
1, 645913, Note_off_c, 0, 58, 63
1, 645982, Note_on_c, 0, 69, 81
1, 645987, Note_on_c, 0, 57, 79
1, 646029, Note_off_c, 0, 57, 56
1, 646053, Note_on_c, 0, 33, 54
1, 646070, Control_c, 0, 64, 64
1, 646080, Note_on_c, 0, 64, 59
1, 646085, Control_c, 0, 64, 99
1, 646093, Note_on_c, 0, 37, 63
1, 646099, Control_c, 0, 64, 127
1, 646102, Note_on_c, 0, 61, 48
1, 646117, Note_off_c, 0, 33, 56
1, 646131, Note_off_c, 0, 64, 55
1, 646133, Note_off_c, 0, 61, 60
1, 646149, Note_on_c, 0, 40, 75
1, 646163, Note_off_c, 0, 37, 61
1, 646172, Note_on_c, 0, 45, 103
1, 646186, Note_on_c, 0, 57, 98
1, 646200, Note_off_c, 0, 45, 66
1, 646201, Note_off_c, 0, 40, 63
1, 646273, Note_off_c, 0, 69, 61
1, 646274, Note_on_c, 0, 64, 74
1, 646280, Note_off_c, 0, 57, 61
1, 646288, Note_on_c, 0, 61, 56
1, 646321, Note_off_c, 0, 61, 62
1, 646322, Note_off_c, 0, 64, 59
1, 646372, Note_on_c, 0, 57, 99
1, 646374, Note_on_c, 0, 69, 99
1, 646415, Note_off_c, 0, 57, 53
1, 646462, Note_off_c, 0, 69, 57
1, 646468, Note_on_c, 0, 64, 62
1, 646476, Note_on_c, 0, 45, 60
1, 646494, Note_off_c, 0, 64, 66
1, 646511, Note_on_c, 0, 49, 59
1, 646513, Note_off_c, 0, 45, 62
1, 646531, Note_on_c, 0, 52, 64
1, 646543, Control_c, 0, 64, 92
1, 646545, Note_off_c, 0, 49, 65
1, 646557, Control_c, 0, 64, 57
1, 646568, Poly_aftertouch_c, 0, 61, 0
1, 646569, Note_on_c, 0, 57, 63
1, 646571, Note_off_c, 0, 52, 62
1, 646572, Note_on_c, 0, 69, 71
1, 646572, Control_c, 0, 64, 0
1, 646592, Note_off_c, 0, 69, 69
1, 646592, Note_off_c, 0, 57, 63
1, 646672, Note_on_c, 0, 61, 72
1, 646675, Note_on_c, 0, 70, 56
1, 646696, Note_off_c, 0, 61, 67
1, 646696, Note_off_c, 0, 70, 38
1, 646707, Note_on_c, 0, 71, 22
1, 646707, Note_off_c, 0, 71, 127
1, 646776, Note_on_c, 0, 74, 75
1, 646779, Note_on_c, 0, 62, 67
1, 646800, Note_off_c, 0, 74, 66
1, 646807, Note_off_c, 0, 62, 67
1, 646846, Note_on_c, 0, 41, 39
1, 646880, Note_on_c, 0, 69, 56
1, 646890, Note_off_c, 0, 41, 56
1, 646901, Note_on_c, 0, 45, 48
1, 646906, Note_on_c, 0, 65, 15
1, 646911, Note_off_c, 0, 69, 65
1, 646932, Note_off_c, 0, 45, 62
1, 646944, Note_on_c, 0, 50, 47
1, 646954, Note_off_c, 0, 65, 28
1, 646968, Note_on_c, 0, 53, 71
1, 646971, Note_off_c, 0, 50, 57
1, 646973, Note_on_c, 0, 62, 85
1, 646979, Note_on_c, 0, 74, 78
1, 646994, Note_off_c, 0, 53, 66
1, 646999, Note_off_c, 0, 62, 64
1, 647000, Note_off_c, 0, 74, 68
1, 647070, Note_on_c, 0, 69, 59
1, 647084, Note_on_c, 0, 65, 43
1, 647101, Note_off_c, 0, 69, 59
1, 647111, Note_off_c, 0, 65, 53
1, 647158, Control_c, 0, 64, 64
1, 647170, Note_on_c, 0, 62, 86
1, 647172, Note_on_c, 0, 74, 86
1, 647173, Control_c, 0, 64, 93
1, 647188, Control_c, 0, 64, 127
1, 647215, Note_off_c, 0, 62, 59
1, 647235, Note_on_c, 0, 38, 50
1, 647237, Note_off_c, 0, 74, 49
1, 647268, Note_on_c, 0, 69, 64
1, 647272, Note_on_c, 0, 65, 55
1, 647284, Note_on_c, 0, 41, 56
1, 647289, Note_off_c, 0, 69, 66
1, 647295, Note_off_c, 0, 65, 60
1, 647298, Note_off_c, 0, 38, 59
1, 647319, Note_on_c, 0, 45, 63
1, 647319, Note_off_c, 0, 41, 61
1, 647346, Note_off_c, 0, 45, 65
1, 647352, Note_on_c, 0, 50, 75
1, 647364, Note_on_c, 0, 65, 91
1, 647365, Control_c, 0, 64, 79
1, 647368, Note_on_c, 0, 77, 72
1, 647373, Note_off_c, 0, 50, 64
1, 647380, Control_c, 0, 64, 49
1, 647382, Note_off_c, 0, 65, 74
1, 647384, Note_off_c, 0, 77, 67
1, 647395, Control_c, 0, 64, 0
1, 647459, Note_on_c, 0, 62, 87
1, 647462, Note_on_c, 0, 74, 81
1, 647480, Note_off_c, 0, 62, 71
1, 647483, Note_off_c, 0, 74, 71
1, 647556, Note_on_c, 0, 73, 90
1, 647564, Note_on_c, 0, 61, 77
1, 647603, Note_off_c, 0, 61, 57
1, 647632, Note_on_c, 0, 37, 51
1, 647658, Note_on_c, 0, 68, 67
1, 647679, Note_on_c, 0, 41, 56
1, 647680, Note_on_c, 0, 65, 54
1, 647686, Note_off_c, 0, 37, 59
1, 647709, Note_off_c, 0, 65, 61
1, 647710, Note_on_c, 0, 44, 65
1, 647729, Control_c, 0, 64, 69
1, 647737, Note_on_c, 0, 49, 104
1, 647744, Control_c, 0, 64, 127
1, 647746, Note_off_c, 0, 41, 59
1, 647754, Note_on_c, 0, 61, 97
1, 647771, Note_off_c, 0, 44, 63
1, 647772, Note_off_c, 0, 49, 69
1, 647775, Note_off_c, 0, 68, 61
1, 647835, Poly_aftertouch_c, 0, 68, 0
1, 647845, Note_on_c, 0, 68, 53
1, 647846, Note_off_c, 0, 73, 62
1, 647847, Note_off_c, 0, 61, 60
1, 647851, Note_on_c, 0, 65, 68
1, 647893, Note_off_c, 0, 65, 61
1, 647912, Note_off_c, 0, 68, 63
1, 647945, Note_on_c, 0, 61, 93
1, 647948, Note_on_c, 0, 73, 90
1, 647993, Note_off_c, 0, 61, 62
1, 648012, Note_on_c, 0, 49, 60
1, 648049, Note_off_c, 0, 73, 59
1, 648050, Note_on_c, 0, 68, 54
1, 648059, Note_on_c, 0, 53, 60
1, 648072, Note_off_c, 0, 68, 60
1, 648076, Note_off_c, 0, 49, 59
1, 648089, Note_on_c, 0, 56, 74
1, 648095, Note_off_c, 0, 53, 64
1, 648118, Note_on_c, 0, 61, 84
1, 648133, Note_off_c, 0, 56, 58
1, 648134, Note_off_c, 0, 61, 72
1, 648139, Note_on_c, 0, 73, 79
1, 648144, Control_c, 0, 64, 119
1, 648166, Control_c, 0, 64, 71
1, 648171, Note_off_c, 0, 73, 69
1, 648181, Control_c, 0, 64, 0
1, 648236, Note_on_c, 0, 73, 75
1, 648254, Note_off_c, 0, 73, 64
1, 648261, Note_on_c, 0, 65, 36
1, 648285, Note_off_c, 0, 65, 43
1, 648333, Note_on_c, 0, 78, 79
1, 648336, Note_on_c, 0, 66, 76
1, 648356, Note_off_c, 0, 66, 70
1, 648356, Note_off_c, 0, 78, 61
1, 648425, Note_on_c, 0, 45, 17
1, 648452, Note_on_c, 0, 73, 39
1, 648455, Note_on_c, 0, 49, 54
1, 648468, Note_off_c, 0, 45, 39
1, 648481, Note_off_c, 0, 73, 52
1, 648482, Note_on_c, 0, 69, 2
1, 648505, Note_off_c, 0, 49, 64
1, 648506, Note_on_c, 0, 54, 56
1, 648513, Note_off_c, 0, 69, 27
1, 648538, Note_off_c, 0, 54, 64
1, 648538, Note_on_c, 0, 66, 82
1, 648542, Note_on_c, 0, 57, 70
1, 648545, Note_on_c, 0, 78, 74
1, 648562, Note_off_c, 0, 57, 65
1, 648562, Note_off_c, 0, 66, 64
1, 648567, Note_off_c, 0, 78, 70
1, 648631, Note_on_c, 0, 73, 50
1, 648636, Note_on_c, 0, 69, 53
1, 648658, Note_off_c, 0, 69, 61
1, 648672, Note_off_c, 0, 73, 64
1, 648715, Control_c, 0, 64, 61
1, 648730, Control_c, 0, 64, 73
1, 648736, Note_on_c, 0, 66, 85
1, 648744, Note_on_c, 0, 78, 76
1, 648745, Control_c, 0, 64, 101
1, 648759, Control_c, 0, 64, 127
1, 648764, Note_off_c, 0, 78, 71
1, 648766, Note_off_c, 0, 66, 59
1, 648827, Note_on_c, 0, 73, 66
1, 648832, Note_on_c, 0, 42, 50
1, 648853, Note_off_c, 0, 73, 68
1, 648875, Note_off_c, 0, 42, 60
1, 648878, Note_on_c, 0, 45, 54
1, 648894, Poly_aftertouch_c, 0, 69, 0
1, 648914, Note_off_c, 0, 45, 61
1, 648916, Note_on_c, 0, 49, 62
1, 648923, Poly_aftertouch_c, 0, 69, 0
1, 648934, Note_on_c, 0, 69, 62
1, 648944, Note_on_c, 0, 54, 55
1, 648944, Note_off_c, 0, 49, 65
1, 648944, Control_c, 0, 64, 70
1, 648955, Note_on_c, 0, 81, 52
1, 648959, Note_off_c, 0, 69, 66
1, 648959, Control_c, 0, 64, 0
1, 648965, Note_off_c, 0, 54, 60
1, 648976, Note_off_c, 0, 81, 39
1, 649027, Note_on_c, 0, 78, 78
1, 649042, Note_off_c, 0, 78, 70
1, 649060, Note_on_c, 0, 68, 30
1, 649060, Note_off_c, 0, 68, 127
1, 649130, Note_on_c, 0, 77, 73
1, 649137, Note_on_c, 0, 65, 74
1, 649182, Note_off_c, 0, 65, 58
1, 649189, Note_off_c, 0, 77, 58
1, 649254, Note_on_c, 0, 69, 28
1, 649267, Note_on_c, 0, 72, 18
1, 649290, Note_off_c, 0, 69, 42
1, 649307, Note_off_c, 0, 72, 41
1, 649316, Control_c, 0, 64, 60
1, 649331, Control_c, 0, 64, 68
1, 649337, Note_on_c, 0, 65, 72
1, 649340, Note_on_c, 0, 77, 63
1, 649344, Note_on_c, 0, 53, 37
1, 649345, Note_on_c, 0, 48, 46
1, 649346, Control_c, 0, 64, 79
1, 649360, Note_on_c, 0, 45, 22
1, 649360, Control_c, 0, 64, 96
1, 649364, Note_off_c, 0, 65, 65
1, 649375, Control_c, 0, 64, 127
1, 649376, Note_off_c, 0, 48, 50
1, 649379, Note_off_c, 0, 53, 53
1, 649400, Note_off_c, 0, 45, 53
1, 649411, Note_off_c, 0, 77, 60
1, 649414, Note_on_c, 0, 72, 66
1, 649440, Note_off_c, 0, 72, 67
1, 649455, Note_on_c, 0, 69, 3
1, 649476, Note_off_c, 0, 69, 0
1, 649494, Control_c, 0, 64, 85
1, 649498, Poly_aftertouch_c, 0, 69, 0
1, 649508, Control_c, 0, 64, 64
1, 649513, Note_on_c, 0, 41, 58
1, 649523, Control_c, 0, 64, 46
1, 649536, Note_on_c, 0, 46, 46
1, 649536, Note_on_c, 0, 49, 48
1, 649538, Control_c, 0, 64, 58
1, 649541, Note_on_c, 0, 70, 77
1, 649551, Note_on_c, 0, 82, 58
1, 649552, Control_c, 0, 64, 68
1, 649555, Note_off_c, 0, 41, 61
1, 649563, Note_off_c, 0, 70, 70
1, 649566, Note_off_c, 0, 49, 55
1, 649567, Note_off_c, 0, 46, 53
1, 649567, Control_c, 0, 64, 86
1, 649582, Note_off_c, 0, 82, 48
1, 649582, Control_c, 0, 64, 127
1, 649636, Poly_aftertouch_c, 0, 37, 0
1, 649706, Poly_aftertouch_c, 0, 73, 0
1, 649719, Note_on_c, 0, 73, 66
1, 649722, Note_on_c, 0, 41, 42
1, 649722, Note_on_c, 0, 85, 80
1, 649725, Note_on_c, 0, 46, 56
1, 649738, Control_c, 0, 64, 100
1, 649741, Note_on_c, 0, 37, 23
1, 649743, Note_off_c, 0, 85, 68
1, 649746, Note_off_c, 0, 73, 66
1, 649746, Note_off_c, 0, 41, 54
1, 649752, Note_off_c, 0, 46, 59
1, 649753, Control_c, 0, 64, 69
1, 649767, Control_c, 0, 64, 0
1, 649784, Note_off_c, 0, 37, 39
1, 649812, Note_on_c, 0, 82, 80
1, 649814, Note_on_c, 0, 70, 77
1, 649830, Note_off_c, 0, 82, 72
1, 649835, Note_off_c, 0, 70, 71
1, 649904, Note_on_c, 0, 81, 76
1, 649908, Note_on_c, 0, 69, 66
1, 649978, Note_off_c, 0, 81, 50
1, 649992, Note_off_c, 0, 69, 38
1, 649997, Note_on_c, 0, 76, 69
1, 650038, Note_off_c, 0, 76, 59
1, 650041, Note_on_c, 0, 73, 14
1, 650073, Note_off_c, 0, 73, 43
1, 650080, Control_c, 0, 64, 53
1, 650094, Control_c, 0, 64, 73
1, 650097, Note_on_c, 0, 57, 63
1, 650105, Note_on_c, 0, 49, 54
1, 650106, Note_on_c, 0, 81, 80
1, 650107, Note_on_c, 0, 52, 46
1, 650107, Note_on_c, 0, 69, 76
1, 650109, Control_c, 0, 64, 96
1, 650112, Note_on_c, 0, 45, 39
1, 650124, Control_c, 0, 64, 127
1, 650124, Note_off_c, 0, 57, 64
1, 650135, Note_off_c, 0, 49, 63
1, 650135, Note_off_c, 0, 52, 54
1, 650145, Note_off_c, 0, 45, 50
1, 650154, Note_off_c, 0, 69, 59
1, 650179, Note_off_c, 0, 81, 58
1, 650186, Note_on_c, 0, 76, 71
1, 650205, Note_on_c, 0, 73, 33
1, 650208, Note_off_c, 0, 76, 69
1, 650238, Note_off_c, 0, 73, 53
1, 650279, Note_on_c, 0, 53, 75
1, 650282, Note_on_c, 0, 45, 66
1, 650290, Note_on_c, 0, 74, 97
1, 650291, Note_on_c, 0, 86, 95
1, 650294, Note_on_c, 0, 50, 54
1, 650297, Note_on_c, 0, 41, 49
1, 650305, Note_off_c, 0, 53, 69
1, 650309, Note_off_c, 0, 45, 64
1, 650313, Note_off_c, 0, 74, 62
1, 650319, Note_off_c, 0, 50, 58
1, 650324, Note_off_c, 0, 41, 56
1, 650333, Note_off_c, 0, 86, 61
1, 650373, Note_on_c, 0, 81, 81
1, 650384, Note_on_c, 0, 77, 61
1, 650404, Note_off_c, 0, 81, 68
1, 650410, Note_off_c, 0, 77, 65
1, 650465, Note_on_c, 0, 41, 53
1, 650471, Note_on_c, 0, 50, 73
1, 650476, Note_on_c, 0, 45, 68
1, 650476, Note_on_c, 0, 77, 87
1, 650480, Note_on_c, 0, 89, 82
1, 650494, Note_off_c, 0, 77, 73
1, 650494, Note_off_c, 0, 89, 70
1, 650496, Note_off_c, 0, 41, 57
1, 650496, Note_off_c, 0, 50, 68
1, 650501, Control_c, 0, 64, 91
1, 650504, Note_off_c, 0, 45, 65
1, 650516, Control_c, 0, 64, 63
1, 650531, Control_c, 0, 64, 0
1, 650568, Note_on_c, 0, 74, 91
1, 650571, Note_on_c, 0, 86, 78
1, 650586, Note_off_c, 0, 74, 69
1, 650592, Note_off_c, 0, 86, 70
1, 650633, Note_on_c, 0, 84, 3
1, 650633, Note_off_c, 0, 84, 127
1, 650664, Note_on_c, 0, 85, 91
1, 650666, Note_on_c, 0, 73, 85
1, 650736, Note_off_c, 0, 73, 58
1, 650748, Note_on_c, 0, 80, 70
1, 650748, Note_off_c, 0, 85, 65
1, 650772, Note_on_c, 0, 77, 52
1, 650784, Control_c, 0, 64, 37
1, 650788, Note_off_c, 0, 80, 54
1, 650794, Note_off_c, 0, 77, 64
1, 650799, Control_c, 0, 64, 65
1, 650813, Control_c, 0, 64, 83
1, 650828, Control_c, 0, 64, 127
1, 650838, Note_on_c, 0, 61, 79
1, 650843, Note_on_c, 0, 56, 71
1, 650848, Note_on_c, 0, 73, 91
1, 650852, Note_on_c, 0, 49, 59
1, 650852, Note_on_c, 0, 85, 92
1, 650855, Note_on_c, 0, 53, 45
1, 650861, Note_off_c, 0, 61, 69
1, 650870, Note_off_c, 0, 56, 64
1, 650879, Note_off_c, 0, 49, 64
1, 650883, Note_off_c, 0, 53, 54
1, 650892, Note_off_c, 0, 73, 62
1, 650932, Note_on_c, 0, 80, 75
1, 650938, Note_off_c, 0, 85, 64
1, 650953, Note_off_c, 0, 80, 69
1, 651011, Note_on_c, 0, 49, 63
1, 651018, Note_on_c, 0, 57, 76
1, 651028, Note_on_c, 0, 54, 64
1, 651037, Note_on_c, 0, 90, 98
1, 651042, Note_off_c, 0, 57, 69
1, 651043, Note_on_c, 0, 78, 75
1, 651043, Note_off_c, 0, 78, 127
1, 651048, Note_off_c, 0, 54, 60
1, 651050, Note_off_c, 0, 49, 65
1, 651059, Note_on_c, 0, 79, 67
1, 651077, Note_off_c, 0, 79, 67
1, 651089, Note_off_c, 0, 90, 63
1, 651116, Note_on_c, 0, 82, 84
1, 651135, Note_off_c, 0, 82, 69
1, 651142, Note_on_c, 0, 86, 50
1, 651174, Note_off_c, 0, 86, 57
1, 651205, Note_on_c, 0, 54, 70
1, 651216, Note_on_c, 0, 49, 60
1, 651218, Note_on_c, 0, 81, 107
1, 651225, Note_on_c, 0, 93, 84
1, 651229, Note_off_c, 0, 54, 68
1, 651230, Note_on_c, 0, 42, 48
1, 651233, Note_off_c, 0, 81, 74
1, 651244, Note_off_c, 0, 93, 72
1, 651246, Note_off_c, 0, 49, 57
1, 651250, Note_on_c, 0, 92, 41
1, 651250, Note_off_c, 0, 92, 127
1, 651260, Note_off_c, 0, 42, 56
1, 651264, Note_on_c, 0, 45, 3
1, 651275, Note_off_c, 0, 45, 0
1, 651312, Note_on_c, 0, 78, 98
1, 651312, Poly_aftertouch_c, 0, 45, 0
1, 651313, Note_on_c, 0, 90, 98
1, 651338, Note_off_c, 0, 78, 62
1, 651343, Note_on_c, 0, 42, 50
1, 651349, Note_off_c, 0, 90, 63
1, 651354, Control_c, 0, 64, 70
1, 651369, Control_c, 0, 64, 0
1, 651373, Note_off_c, 0, 42, 60
1, 651396, Note_on_c, 0, 49, 97
1, 651407, Note_on_c, 0, 40, 72
1, 651411, Note_on_c, 0, 77, 100
1, 651413, Control_c, 0, 64, 46
1, 651414, Note_on_c, 0, 89, 91
1, 651426, Note_on_c, 0, 43, 45
1, 651428, Control_c, 0, 64, 70
1, 651439, Note_off_c, 0, 40, 66
1, 651442, Note_on_c, 0, 88, 52
1, 651442, Note_off_c, 0, 88, 127
1, 651443, Control_c, 0, 64, 127
1, 651444, Note_off_c, 0, 89, 53
1, 651445, Note_off_c, 0, 49, 66
1, 651460, Note_off_c, 0, 43, 57
1, 651487, Note_off_c, 0, 77, 37
1, 651496, Note_on_c, 0, 85, 63
1, 651497, Note_on_c, 0, 80, 78
1, 651526, Note_off_c, 0, 80, 60
1, 651526, Note_off_c, 0, 85, 67
1, 651596, Note_on_c, 0, 61, 94
1, 651599, Note_on_c, 0, 73, 95
1, 651600, Note_on_c, 0, 53, 69
1, 651603, Note_on_c, 0, 85, 90
1, 651606, Note_on_c, 0, 56, 69
1, 651613, Note_off_c, 0, 61, 72
1, 651621, Note_off_c, 0, 85, 71
1, 651625, Note_on_c, 0, 49, 52
1, 651627, Note_off_c, 0, 53, 65
1, 651632, Note_off_c, 0, 56, 64
1, 651643, Note_off_c, 0, 49, 65
1, 651646, Note_off_c, 0, 73, 60
1, 651673, Note_on_c, 0, 80, 73
1, 651681, Note_on_c, 0, 82, 8
1, 651692, Note_off_c, 0, 80, 71
1, 651701, Note_on_c, 0, 84, 3
1, 651739, Note_off_c, 0, 82, 51
1, 651740, Note_off_c, 0, 84, 51
1, 651767, Poly_aftertouch_c, 0, 76, 0
1, 651776, Note_on_c, 0, 57, 102
1, 651780, Note_on_c, 0, 54, 86
1, 651788, Note_on_c, 0, 47, 70
1, 651788, Note_on_c, 0, 90, 103
1, 651791, Note_off_c, 0, 57, 74
1, 651795, Note_on_c, 0, 79, 91
1, 651803, Note_on_c, 0, 80, 57
1, 651803, Note_off_c, 0, 54, 71
1, 651804, Note_on_c, 0, 49, 16
1, 651804, Note_off_c, 0, 49, 127
1, 651804, Note_on_c, 0, 50, 50
1, 651808, Note_off_c, 0, 47, 66
1, 651813, Note_off_c, 0, 79, 74
1, 651817, Note_on_c, 0, 51, 20
1, 651817, Note_off_c, 0, 51, 127
1, 651823, Note_off_c, 0, 80, 61
1, 651829, Note_off_c, 0, 50, 56
1, 651838, Poly_aftertouch_c, 0, 49, 0
1, 651844, Note_off_c, 0, 90, 61
1, 651862, Poly_aftertouch_c, 0, 51, 0
1, 651869, Note_on_c, 0, 82, 59
1, 651881, Note_on_c, 0, 85, 51
1, 651889, Note_off_c, 0, 82, 61
1, 651913, Note_off_c, 0, 85, 55
1, 651957, Note_on_c, 0, 49, 65
1, 651962, Note_on_c, 0, 54, 70
1, 651975, Note_on_c, 0, 81, 97
1, 651984, Note_on_c, 0, 93, 84
1, 651985, Note_off_c, 0, 49, 65
1, 651987, Note_off_c, 0, 54, 67
1, 651989, Poly_aftertouch_c, 0, 86, 0
1, 651996, Note_off_c, 0, 81, 68
1, 651996, Note_off_c, 0, 93, 72
1, 651999, Note_on_c, 0, 90, 55
1, 652003, Note_on_c, 0, 42, 4
1, 652024, Note_off_c, 0, 90, 41
1, 652073, Note_off_c, 0, 42, 0
1, 652076, Note_on_c, 0, 90, 100
1, 652077, Note_on_c, 0, 78, 93
1, 652096, Note_on_c, 0, 42, 23
1, 652101, Note_on_c, 0, 37, 58
1, 652117, Note_off_c, 0, 78, 65
1, 652132, Note_off_c, 0, 90, 64
1, 652148, Control_c, 0, 64, 91
1, 652163, Control_c, 0, 64, 62
1, 652178, Control_c, 0, 64, 0
1, 652185, Note_on_c, 0, 44, 68
1, 652193, Note_off_c, 0, 37, 63
1, 652196, Poly_aftertouch_c, 0, 39, 0
1, 652209, Note_on_c, 0, 49, 88
1, 652222, Control_c, 0, 64, 38
1, 652223, Note_on_c, 0, 77, 98
1, 652226, Note_on_c, 0, 41, 36
1, 652226, Note_on_c, 0, 89, 94
1, 652237, Control_c, 0, 64, 71
1, 652239, Note_off_c, 0, 49, 66
1, 652241, Note_off_c, 0, 44, 64
1, 652245, Note_off_c, 0, 42, 55
1, 652252, Control_c, 0, 64, 119
1, 652265, Note_off_c, 0, 41, 31
1, 652267, Control_c, 0, 64, 127
1, 652268, Note_off_c, 0, 89, 60
1, 652299, Poly_aftertouch_c, 0, 85, 0
1, 652308, Note_on_c, 0, 85, 56
1, 652309, Note_off_c, 0, 77, 64
1, 652316, Note_on_c, 0, 80, 69
1, 652340, Note_off_c, 0, 80, 66
1, 652346, Note_off_c, 0, 85, 64
1, 652417, Note_on_c, 0, 68, 91
1, 652427, Note_on_c, 0, 65, 72
1, 652429, Note_on_c, 0, 80, 79
1, 652444, Note_on_c, 0, 90, 60
1, 652448, Note_on_c, 0, 61, 36
1, 652451, Note_off_c, 0, 80, 65
1, 652458, Note_on_c, 0, 91, 62
1, 652462, Note_off_c, 0, 90, 63
1, 652492, Note_off_c, 0, 61, 45
1, 652494, Note_off_c, 0, 91, 49
1, 652504, Note_off_c, 0, 68, 56
1, 652523, Note_on_c, 0, 85, 60
1, 652542, Poly_aftertouch_c, 0, 79, 0
1, 652543, Note_off_c, 0, 65, 56
1, 652548, Note_off_c, 0, 85, 65
1, 652578, Control_c, 0, 64, 86
1, 652592, Note_on_c, 0, 69, 72
1, 652593, Control_c, 0, 64, 57
1, 652596, Note_on_c, 0, 66, 75
1, 652599, Note_on_c, 0, 81, 95
1, 652602, Note_on_c, 0, 93, 86
1, 652608, Note_on_c, 0, 60, 59
1, 652608, Note_off_c, 0, 69, 65
1, 652608, Control_c, 0, 64, 0
1, 652619, Note_off_c, 0, 66, 69
1, 652624, Note_off_c, 0, 93, 63
1, 652630, Note_off_c, 0, 60, 62
1, 652638, Control_c, 0, 64, 58
1, 652640, Note_off_c, 0, 81, 60
1, 652660, Control_c, 0, 64, 76
1, 652675, Control_c, 0, 64, 127
1, 652693, Note_on_c, 0, 87, 75
1, 652694, Note_on_c, 0, 84, 73
1, 652718, Note_off_c, 0, 84, 67
1, 652729, Note_off_c, 0, 87, 62
1, 652740, Poly_aftertouch_c, 0, 83, 0
1, 652777, Note_on_c, 0, 45, 75
1, 652777, Note_on_c, 0, 48, 81
1, 652784, Note_on_c, 0, 37, 76
1, 652785, Note_on_c, 0, 78, 94
1, 652789, Note_on_c, 0, 90, 86
1, 652820, Note_off_c, 0, 78, 61
1, 652829, Note_off_c, 0, 90, 64
1, 652834, Note_off_c, 0, 48, 61
1, 652849, Note_off_c, 0, 45, 62
1, 652864, Note_on_c, 0, 84, 75
1, 652887, Note_on_c, 0, 81, 49
1, 652888, Note_on_c, 0, 39, 42
1, 652911, Note_off_c, 0, 81, 58
1, 652914, Note_off_c, 0, 84, 61
1, 652926, Control_c, 0, 64, 85
1, 652941, Note_off_c, 0, 39, 54
1, 652941, Control_c, 0, 64, 52
1, 652950, Note_on_c, 0, 44, 88
1, 652950, Note_off_c, 0, 37, 62
1, 652954, Note_on_c, 0, 49, 98
1, 652956, Control_c, 0, 64, 0
1, 652959, Note_on_c, 0, 77, 92
1, 652968, Note_on_c, 0, 89, 76
1, 652974, Note_off_c, 0, 44, 72
1, 652980, Note_on_c, 0, 88, 65
1, 652985, Note_off_c, 0, 49, 65
1, 652985, Note_off_c, 0, 89, 67
1, 652986, Control_c, 0, 64, 48
1, 653001, Control_c, 0, 64, 71
1, 653007, Note_off_c, 0, 77, 53
1, 653016, Control_c, 0, 64, 127
1, 653028, Note_off_c, 0, 88, 43
1, 653043, Note_on_c, 0, 80, 68
1, 653060, Note_off_c, 0, 80, 67
1, 653129, Note_on_c, 0, 68, 111
1, 653144, Note_on_c, 0, 80, 87
1, 653151, Note_on_c, 0, 65, 71
1, 653156, Note_on_c, 0, 90, 76
1, 653171, Note_off_c, 0, 90, 69
1, 653172, Note_off_c, 0, 68, 54
1, 653175, Note_on_c, 0, 91, 62
1, 653178, Note_off_c, 0, 80, 61
1, 653216, Note_off_c, 0, 91, 59
1, 653222, Note_on_c, 0, 85, 75
1, 653237, Note_off_c, 0, 65, 57
1, 653246, Note_off_c, 0, 85, 68
1, 653258, Note_on_c, 0, 89, 10
1, 653283, Control_c, 0, 64, 76
1, 653298, Control_c, 0, 64, 39
1, 653301, Note_on_c, 0, 71, 96
1, 653302, Note_on_c, 0, 68, 90
1, 653310, Note_on_c, 0, 83, 98
1, 653310, Note_off_c, 0, 89, 38
1, 653311, Note_on_c, 0, 95, 95
1, 653312, Note_on_c, 0, 62, 77
1, 653313, Control_c, 0, 64, 0
1, 653316, Note_off_c, 0, 68, 67
1, 653319, Note_off_c, 0, 71, 72
1, 653327, Note_on_c, 0, 84, 68
1, 653327, Control_c, 0, 64, 46
1, 653333, Note_off_c, 0, 95, 55
1, 653338, Note_off_c, 0, 62, 68
1, 653342, Note_off_c, 0, 83, 60
1, 653342, Control_c, 0, 64, 68
1, 653347, Note_off_c, 0, 84, 40
1, 653355, Note_on_c, 0, 69, 14
1, 653357, Control_c, 0, 64, 91
1, 653372, Control_c, 0, 64, 127
1, 653385, Note_on_c, 0, 89, 81
1, 653391, Note_on_c, 0, 86, 76
1, 653404, Note_off_c, 0, 69, 53
1, 653418, Note_off_c, 0, 89, 63
1, 653422, Note_off_c, 0, 86, 69
1, 653436, Poly_aftertouch_c, 0, 90, 0
1, 653486, Note_on_c, 0, 50, 94
1, 653487, Note_on_c, 0, 47, 95
1, 653490, Note_on_c, 0, 80, 98
1, 653492, Note_on_c, 0, 92, 86
1, 653511, Note_off_c, 0, 80, 59
1, 653513, Note_on_c, 0, 40, 47
1, 653513, Note_off_c, 0, 92, 70
1, 653514, Note_on_c, 0, 42, 38
1, 653514, Note_off_c, 0, 42, 127
1, 653517, Note_on_c, 0, 38, 48
1, 653528, Note_on_c, 0, 90, 41
1, 653528, Note_off_c, 0, 90, 127
1, 653534, Note_on_c, 0, 79, 33
1, 653543, Note_off_c, 0, 40, 55
1, 653547, Note_off_c, 0, 50, 35
1, 653549, Note_off_c, 0, 38, 56
1, 653549, Poly_aftertouch_c, 0, 42, 0
1, 653563, Note_on_c, 0, 83, 77
1, 653564, Note_on_c, 0, 89, 66
1, 653571, Note_off_c, 0, 47, 56
1, 653574, Note_off_c, 0, 79, 51
1, 653599, Note_on_c, 0, 87, 42
1, 653604, Note_off_c, 0, 89, 61
1, 653606, Note_off_c, 0, 83, 60
1, 653630, Note_off_c, 0, 87, 52
1, 653631, Control_c, 0, 64, 84
1, 653646, Control_c, 0, 64, 46
1, 653653, Note_on_c, 0, 51, 105
1, 653654, Note_on_c, 0, 46, 91
1, 653661, Control_c, 0, 64, 0
1, 653662, Note_on_c, 0, 79, 104
1, 653672, Note_off_c, 0, 46, 69
1, 653675, Note_on_c, 0, 91, 60
1, 653679, Note_on_c, 0, 89, 66
1, 653690, Control_c, 0, 64, 37
1, 653695, Note_off_c, 0, 51, 66
1, 653702, Note_off_c, 0, 91, 65
1, 653704, Note_off_c, 0, 89, 56
1, 653705, Control_c, 0, 64, 68
1, 653720, Control_c, 0, 64, 100
1, 653730, Note_off_c, 0, 79, 66
1, 653734, Control_c, 0, 64, 127
1, 653737, Note_on_c, 0, 82, 74
1, 653743, Note_on_c, 0, 87, 69
1, 653758, Note_off_c, 0, 82, 69
1, 653768, Note_off_c, 0, 87, 67
1, 653780, Poly_aftertouch_c, 0, 46, 127
1, 653818, Poly_aftertouch_c, 0, 46, 0
1, 653824, Note_on_c, 0, 82, 96
1, 653826, Note_on_c, 0, 70, 112
1, 653832, Note_on_c, 0, 94, 94
1, 653848, Note_on_c, 0, 67, 59
1, 653860, Note_off_c, 0, 82, 67
1, 653861, Note_on_c, 0, 63, 40
1, 653862, Note_off_c, 0, 70, 60
1, 653877, Note_off_c, 0, 94, 66
1, 653887, Note_off_c, 0, 63, 56
1, 653904, Note_on_c, 0, 91, 72
1, 653914, Note_off_c, 0, 67, 55
1, 653928, Note_off_c, 0, 91, 66
1, 653973, Control_c, 0, 64, 88
1, 653988, Control_c, 0, 64, 58
1, 653988, Note_on_c, 0, 71, 93
1, 653991, Note_on_c, 0, 68, 87
1, 653992, Note_on_c, 0, 83, 101
1, 653992, Note_on_c, 0, 95, 97
1, 653999, Note_on_c, 0, 62, 79
1, 654002, Control_c, 0, 64, 0
1, 654005, Note_off_c, 0, 71, 74
1, 654017, Note_off_c, 0, 68, 67
1, 654017, Control_c, 0, 64, 44
1, 654018, Note_on_c, 0, 92, 42
1, 654020, Note_on_c, 0, 84, 49
1, 654020, Note_off_c, 0, 84, 127
1, 654021, Note_off_c, 0, 62, 69
1, 654028, Note_off_c, 0, 95, 61
1, 654032, Control_c, 0, 64, 67
1, 654038, Note_off_c, 0, 83, 56
1, 654047, Note_off_c, 0, 92, 57
1, 654047, Control_c, 0, 64, 89
1, 654062, Control_c, 0, 64, 127
1, 654074, Note_on_c, 0, 89, 79
1, 654080, Note_on_c, 0, 86, 69
1, 654104, Note_off_c, 0, 86, 68
1, 654104, Note_off_c, 0, 89, 62
1, 654176, Note_on_c, 0, 50, 97
1, 654177, Note_on_c, 0, 80, 95
1, 654180, Note_on_c, 0, 92, 90
1, 654182, Note_on_c, 0, 47, 85
1, 654189, Note_on_c, 0, 48, 69
1, 654195, Note_off_c, 0, 80, 69
1, 654197, Note_on_c, 0, 40, 57
1, 654199, Note_off_c, 0, 92, 72
1, 654205, Note_on_c, 0, 42, 39
1, 654205, Note_off_c, 0, 42, 127
1, 654209, Note_off_c, 0, 48, 65
1, 654224, Note_off_c, 0, 40, 59
1, 654227, Note_off_c, 0, 50, 38
1, 654240, Poly_aftertouch_c, 0, 42, 0
1, 654254, Note_on_c, 0, 83, 72
1, 654254, Note_off_c, 0, 47, 57
1, 654257, Poly_aftertouch_c, 0, 38, 127
1, 654274, Note_on_c, 0, 89, 50
1, 654289, Note_off_c, 0, 83, 56
1, 654297, Note_on_c, 0, 88, 15
1, 654298, Poly_aftertouch_c, 0, 79, 0
1, 654299, Poly_aftertouch_c, 0, 38, 0
1, 654299, Note_off_c, 0, 89, 57
1, 654321, Control_c, 0, 64, 69
1, 654322, Poly_aftertouch_c, 0, 91, 0
1, 654335, Note_off_c, 0, 88, 41
1, 654336, Control_c, 0, 64, 0
1, 654337, Note_on_c, 0, 46, 92
1, 654341, Note_on_c, 0, 51, 99
1, 654349, Note_on_c, 0, 79, 97
1, 654351, Note_on_c, 0, 91, 66
1, 654360, Poly_aftertouch_c, 0, 87, 0
1, 654361, Note_off_c, 0, 46, 71
1, 654365, Control_c, 0, 64, 47
1, 654372, Note_on_c, 0, 89, 60
1, 654380, Control_c, 0, 64, 70
1, 654381, Note_off_c, 0, 91, 56
1, 654384, Note_off_c, 0, 51, 65
1, 654395, Control_c, 0, 64, 111
1, 654408, Note_off_c, 0, 89, 45
1, 654410, Control_c, 0, 64, 127
1, 654420, Note_on_c, 0, 82, 79
1, 654421, Note_off_c, 0, 79, 63
1, 654436, Note_on_c, 0, 87, 72
1, 654441, Note_off_c, 0, 82, 69
1, 654453, Note_off_c, 0, 87, 68
1, 654508, Note_on_c, 0, 70, 113
1, 654520, Note_on_c, 0, 82, 101
1, 654524, Note_on_c, 0, 94, 86
1, 654527, Note_on_c, 0, 67, 65
1, 654554, Note_on_c, 0, 63, 23
1, 654565, Note_off_c, 0, 70, 47
1, 654584, Poly_aftertouch_c, 0, 87, 0
1, 654590, Note_off_c, 0, 63, 52
1, 654593, Note_on_c, 0, 87, 63
1, 654593, Note_off_c, 0, 82, 61
1, 654604, Note_off_c, 0, 94, 65
1, 654607, Note_on_c, 0, 91, 51
1, 654628, Note_off_c, 0, 91, 60
1, 654643, Note_off_c, 0, 87, 64
1, 654649, Note_off_c, 0, 67, 61
1, 654666, Note_on_c, 0, 73, 106
1, 654673, Note_on_c, 0, 70, 80
1, 654682, Note_off_c, 0, 73, 73
1, 654688, Note_on_c, 0, 64, 49
1, 654688, Note_on_c, 0, 85, 96
1, 654691, Note_on_c, 0, 97, 98
1, 654697, Note_off_c, 0, 70, 71
1, 654698, Note_on_c, 0, 92, 66
1, 654710, Note_off_c, 0, 64, 61
1, 654719, Note_off_c, 0, 92, 67
1, 654760, Note_on_c, 0, 92, 80
1, 654767, Note_off_c, 0, 97, 65
1, 654777, Note_off_c, 0, 85, 57
1, 654781, Note_off_c, 0, 92, 71
1, 654786, Note_on_c, 0, 88, 64
1, 654804, Note_on_c, 0, 45, 82
1, 654821, Note_off_c, 0, 88, 62
1, 654828, Note_off_c, 0, 45, 66
1, 654840, Note_on_c, 0, 49, 67
1, 654852, Note_on_c, 0, 46, 20
1, 654858, Note_on_c, 0, 82, 96
1, 654858, Note_on_c, 0, 94, 88
1, 654872, Note_on_c, 0, 51, 68
1, 654874, Note_on_c, 0, 58, 93
1, 654900, Note_off_c, 0, 58, 72
1, 654900, Note_off_c, 0, 46, 54
1, 654902, Note_off_c, 0, 82, 60
1, 654909, Note_off_c, 0, 51, 57
1, 654917, Note_off_c, 0, 49, 55
1, 654917, Note_off_c, 0, 94, 66
1, 654935, Note_on_c, 0, 50, 53
1, 654944, Note_on_c, 0, 92, 41
1, 654963, Note_off_c, 0, 50, 62
1, 654965, Note_on_c, 0, 91, 66
1, 654966, Control_c, 0, 64, 91
1, 654971, Note_on_c, 0, 41, 80
1, 654974, Note_off_c, 0, 92, 32
1, 654980, Control_c, 0, 64, 57
1, 654983, Note_off_c, 0, 91, 66
1, 654995, Control_c, 0, 64, 0
1, 655011, Note_off_c, 0, 41, 63
1, 655017, Note_on_c, 0, 48, 64
1, 655026, Note_on_c, 0, 47, 52
1, 655027, Note_on_c, 0, 81, 102
1, 655028, Note_on_c, 0, 93, 97
1, 655040, Control_c, 0, 64, 64
1, 655041, Note_on_c, 0, 57, 93
1, 655046, Note_off_c, 0, 48, 68
1, 655054, Note_off_c, 0, 47, 52
1, 655055, Note_on_c, 0, 91, 57
1, 655055, Note_off_c, 0, 91, 127
1, 655055, Control_c, 0, 64, 88
1, 655070, Note_off_c, 0, 57, 65
1, 655070, Control_c, 0, 64, 127
1, 655092, Note_off_c, 0, 81, 62
1, 655116, Note_on_c, 0, 84, 80
1, 655123, Note_on_c, 0, 89, 74
1, 655133, Note_off_c, 0, 93, 64
1, 655137, Note_off_c, 0, 84, 71
1, 655148, Note_off_c, 0, 89, 68
1, 655199, Note_on_c, 0, 60, 104
1, 655206, Note_on_c, 0, 84, 105
1, 655208, Note_on_c, 0, 57, 84
1, 655209, Note_on_c, 0, 96, 99
1, 655213, Note_on_c, 0, 53, 64
1, 655240, Note_off_c, 0, 60, 65
1, 655262, Note_off_c, 0, 53, 58
1, 655280, Note_on_c, 0, 89, 67
1, 655284, Note_on_c, 0, 93, 58
1, 655284, Note_off_c, 0, 96, 64
1, 655286, Note_off_c, 0, 84, 63
1, 655326, Note_off_c, 0, 93, 66
1, 655326, Note_off_c, 0, 57, 59
1, 655338, Note_off_c, 0, 89, 62
1, 655361, Note_on_c, 0, 61, 92
1, 655364, Note_on_c, 0, 58, 78
1, 655372, Note_on_c, 0, 85, 100
1, 655374, Note_on_c, 0, 97, 98
1, 655389, Note_off_c, 0, 58, 69
1, 655408, Note_off_c, 0, 97, 67
1, 655412, Note_on_c, 0, 94, 35
1, 655412, Note_off_c, 0, 61, 56
1, 655427, Note_on_c, 0, 96, 49
1, 655441, Note_off_c, 0, 85, 61
1, 655442, Note_on_c, 0, 91, 56
1, 655447, Note_on_c, 0, 84, 46
1, 655447, Note_off_c, 0, 94, 49
1, 655455, Note_off_c, 0, 96, 55
1, 655466, Note_on_c, 0, 88, 69
1, 655471, Note_off_c, 0, 84, 57
1, 655484, Note_on_c, 0, 43, 66
1, 655499, Note_off_c, 0, 91, 63
1, 655500, Note_off_c, 0, 88, 59
1, 655508, Note_off_c, 0, 43, 60
1, 655518, Note_on_c, 0, 48, 56
1, 655547, Note_on_c, 0, 58, 95
1, 655549, Note_off_c, 0, 48, 64
1, 655556, Note_on_c, 0, 82, 95
1, 655558, Note_on_c, 0, 49, 7
1, 655559, Note_on_c, 0, 94, 85
1, 655570, Note_on_c, 0, 51, 46
1, 655573, Note_off_c, 0, 58, 64
1, 655591, Note_off_c, 0, 82, 68
1, 655597, Note_off_c, 0, 94, 67
1, 655602, Note_off_c, 0, 51, 54
1, 655609, Note_off_c, 0, 49, 51
1, 655611, Note_on_c, 0, 50, 47
1, 655635, Note_on_c, 0, 41, 81
1, 655646, Note_on_c, 0, 85, 77
1, 655646, Note_off_c, 0, 50, 58
1, 655656, Control_c, 0, 64, 86
1, 655660, Note_on_c, 0, 91, 65
1, 655670, Control_c, 0, 64, 53
1, 655679, Note_off_c, 0, 91, 65
1, 655685, Note_on_c, 0, 48, 64
1, 655685, Control_c, 0, 64, 0
1, 655689, Note_off_c, 0, 85, 59
1, 655701, Note_off_c, 0, 41, 62
1, 655729, Control_c, 0, 64, 61
1, 655730, Note_on_c, 0, 57, 96
1, 655734, Note_on_c, 0, 81, 96
1, 655734, Poly_aftertouch_c, 0, 90, 0
1, 655734, Note_on_c, 0, 93, 88
1, 655741, Note_off_c, 0, 48, 62
1, 655744, Control_c, 0, 64, 84
1, 655750, Note_on_c, 0, 90, 41
1, 655757, Note_on_c, 0, 83, 57
1, 655757, Note_off_c, 0, 83, 127
1, 655759, Control_c, 0, 64, 127
1, 655764, Note_on_c, 0, 91, 55
1, 655773, Note_off_c, 0, 57, 65
1, 655783, Note_off_c, 0, 90, 55
1, 655801, Note_off_c, 0, 81, 64
1, 655815, Note_on_c, 0, 84, 83
1, 655830, Note_off_c, 0, 91, 28
1, 655833, Note_on_c, 0, 89, 63
1, 655836, Note_off_c, 0, 84, 69
1, 655840, Note_off_c, 0, 93, 64
1, 655855, Note_off_c, 0, 89, 65
1, 655900, Note_on_c, 0, 60, 103
1, 655907, Note_on_c, 0, 57, 80
1, 655916, Note_on_c, 0, 53, 69
1, 655916, Note_on_c, 0, 84, 107
1, 655919, Note_on_c, 0, 96, 95
1, 655934, Note_on_c, 0, 86, 66
1, 655934, Note_off_c, 0, 86, 127
1, 655940, Note_off_c, 0, 60, 67
1, 655955, Note_off_c, 0, 84, 62
1, 655970, Note_off_c, 0, 53, 60
1, 655990, Note_on_c, 0, 89, 42
1, 655994, Note_off_c, 0, 96, 61
1, 656012, Note_on_c, 0, 93, 59
1, 656032, Note_off_c, 0, 57, 58
1, 656039, Note_off_c, 0, 93, 63
1, 656050, Note_off_c, 0, 89, 62
1, 656065, Note_on_c, 0, 58, 88
1, 656067, Note_on_c, 0, 61, 92
1, 656087, Note_on_c, 0, 85, 101
1, 656087, Note_on_c, 0, 91, 73
1, 656089, Note_on_c, 0, 97, 90
1, 656102, Note_off_c, 0, 58, 62
1, 656112, Note_off_c, 0, 91, 68
1, 656113, Note_off_c, 0, 61, 58
1, 656115, Note_off_c, 0, 97, 65
1, 656132, Note_on_c, 0, 96, 53
1, 656132, Note_off_c, 0, 85, 63
1, 656153, Note_on_c, 0, 84, 52
1, 656164, Note_off_c, 0, 96, 53
1, 656165, Note_on_c, 0, 95, 38
1, 656167, Note_on_c, 0, 91, 66
1, 656176, Note_on_c, 0, 88, 71
1, 656177, Note_off_c, 0, 84, 57
1, 656197, Note_on_c, 0, 43, 57
1, 656197, Note_off_c, 0, 95, 53
1, 656213, Note_off_c, 0, 91, 60
1, 656226, Note_off_c, 0, 43, 55
1, 656229, Note_off_c, 0, 88, 64
1, 656234, Note_on_c, 0, 49, 63
1, 656236, Note_on_c, 0, 45, 37
1, 656262, Control_c, 0, 64, 71
1, 656268, Note_on_c, 0, 82, 96
1, 656269, Note_on_c, 0, 94, 89
1, 656270, Note_off_c, 0, 45, 55
1, 656271, Note_on_c, 0, 58, 92
1, 656277, Control_c, 0, 64, 44
1, 656285, Note_on_c, 0, 50, 24
1, 656292, Note_on_c, 0, 51, 41
1, 656292, Control_c, 0, 64, 0
1, 656297, Note_off_c, 0, 58, 67
1, 656305, Note_off_c, 0, 49, 61
1, 656307, Note_off_c, 0, 82, 66
1, 656307, Control_c, 0, 64, 60
1, 656321, Note_off_c, 0, 94, 66
1, 656323, Control_c, 0, 64, 76
1, 656329, Note_off_c, 0, 51, 33
1, 656338, Control_c, 0, 64, 127
1, 656355, Note_off_c, 0, 50, 60
1, 656362, Note_on_c, 0, 85, 68
1, 656363, Note_on_c, 0, 41, 75
1, 656372, Note_on_c, 0, 91, 66
1, 656407, Note_off_c, 0, 91, 67
1, 656409, Note_on_c, 0, 43, 34
1, 656420, Control_c, 0, 64, 77
1, 656422, Note_off_c, 0, 85, 62
1, 656427, Note_on_c, 0, 48, 75
1, 656434, Control_c, 0, 64, 42
1, 656435, Note_off_c, 0, 41, 61
1, 656448, Note_off_c, 0, 43, 55
1, 656449, Control_c, 0, 64, 0
1, 656471, Note_on_c, 0, 81, 98
1, 656471, Note_on_c, 0, 93, 90
1, 656473, Note_on_c, 0, 57, 96
1, 656478, Control_c, 0, 64, 58
1, 656481, Note_off_c, 0, 48, 65
1, 656492, Note_on_c, 0, 91, 71
1, 656493, Control_c, 0, 64, 78
1, 656503, Note_on_c, 0, 83, 40
1, 656508, Control_c, 0, 64, 127
1, 656512, Note_off_c, 0, 57, 64
1, 656532, Note_off_c, 0, 83, 40
1, 656544, Note_off_c, 0, 81, 66
1, 656547, Note_off_c, 0, 91, 0
1, 656562, Note_on_c, 0, 84, 86
1, 656568, Note_on_c, 0, 91, 13
1, 656578, Note_on_c, 0, 89, 67
1, 656593, Note_off_c, 0, 93, 64
1, 656600, Note_off_c, 0, 84, 60
1, 656604, Note_off_c, 0, 89, 68
1, 656612, Note_off_c, 0, 91, 38
1, 656667, Note_on_c, 0, 60, 93
1, 656675, Note_on_c, 0, 84, 106
1, 656679, Note_on_c, 0, 96, 88
1, 656687, Note_on_c, 0, 95, 85
1, 656709, Note_off_c, 0, 95, 58
1, 656712, Note_off_c, 0, 84, 63
1, 656713, Note_on_c, 0, 94, 30
1, 656718, Note_off_c, 0, 96, 64
1, 656739, Note_off_c, 0, 60, 57
1, 656748, Note_off_c, 0, 94, 55
1, 656772, Note_on_c, 0, 93, 73
1, 656775, Note_on_c, 0, 89, 75
1, 656796, Note_off_c, 0, 89, 70
1, 656798, Note_off_c, 0, 93, 68
1, 656937, Control_c, 0, 64, 94
1, 656952, Control_c, 0, 64, 59
1, 656967, Note_on_c, 0, 63, 113
1, 656968, Control_c, 0, 64, 0
1, 656973, Note_on_c, 0, 87, 103
1, 656976, Note_on_c, 0, 99, 100
1, 656998, Control_c, 0, 64, 65
1, 657001, Note_on_c, 0, 97, 62
1, 657012, Control_c, 0, 64, 127
1, 657055, Note_off_c, 0, 99, 65
1, 657073, Note_off_c, 0, 87, 65
1, 657078, Note_off_c, 0, 97, 64
1, 657206, Note_off_c, 0, 63, 49
1, 657505, Note_on_c, 0, 55, 113
1, 657510, Note_on_c, 0, 67, 102
1, 657511, Note_on_c, 0, 79, 99
1, 657531, Note_on_c, 0, 62, 62
1, 657539, Control_c, 0, 64, 68
1, 657545, Note_on_c, 0, 77, 50
1, 657551, Note_off_c, 0, 62, 63
1, 657554, Control_c, 0, 64, 0
1, 657598, Control_c, 0, 64, 61
1, 657613, Control_c, 0, 64, 83
1, 657628, Control_c, 0, 64, 127
1, 657749, Note_off_c, 0, 79, 56
1, 657765, Note_off_c, 0, 67, 55
1, 657799, Note_off_c, 0, 55, 52
1, 657810, Note_off_c, 0, 77, 11
1, 658036, Control_c, 0, 64, 102
1, 658051, Control_c, 0, 64, 63
1, 658056, Note_on_c, 0, 69, 110
1, 658065, Control_c, 0, 64, 0
1, 658067, Note_on_c, 0, 57, 87
1, 658080, Note_on_c, 0, 63, 62
1, 658090, Note_on_c, 0, 58, 55
1, 658100, Note_off_c, 0, 63, 64
1, 658110, Control_c, 0, 64, 59
1, 658124, Control_c, 0, 64, 81
1, 658137, Note_off_c, 0, 57, 61
1, 658139, Control_c, 0, 64, 127
1, 658141, Note_off_c, 0, 58, 63
1, 658152, Note_off_c, 0, 69, 55
1, 658266, Note_on_c, 0, 70, 82
1, 658268, Note_on_c, 0, 82, 80
1, 658288, Note_off_c, 0, 70, 68
1, 658289, Note_off_c, 0, 82, 67
1, 658298, Note_on_c, 0, 69, 91
1, 658305, Note_on_c, 0, 57, 76
1, 658326, Note_off_c, 0, 57, 69
1, 658337, Note_off_c, 0, 69, 59
1, 658372, Note_on_c, 0, 70, 96
1, 658372, Note_on_c, 0, 82, 94
1, 658411, Note_off_c, 0, 70, 61
1, 658413, Note_off_c, 0, 82, 62
1, 658419, Note_on_c, 0, 69, 105
1, 658423, Note_on_c, 0, 59, 79
1, 658462, Note_off_c, 0, 69, 63
1, 658465, Note_off_c, 0, 59, 61
1, 658477, Note_on_c, 0, 70, 96
1, 658477, Note_on_c, 0, 82, 97
1, 658486, Poly_aftertouch_c, 0, 80, 0
1, 658513, Note_off_c, 0, 70, 66
1, 658518, Note_off_c, 0, 82, 62
1, 658534, Note_on_c, 0, 69, 96
1, 658539, Poly_aftertouch_c, 0, 64, 0
1, 658543, Note_on_c, 0, 57, 83
1, 658567, Note_off_c, 0, 57, 63
1, 658583, Note_on_c, 0, 63, 10
1, 658583, Note_on_c, 0, 67, 16
1, 658587, Note_on_c, 0, 70, 101
1, 658589, Note_off_c, 0, 69, 62
1, 658590, Note_on_c, 0, 82, 91
1, 658619, Note_on_c, 0, 80, 41
1, 658623, Note_off_c, 0, 67, 53
1, 658628, Note_off_c, 0, 70, 65
1, 658629, Note_off_c, 0, 63, 51
1, 658641, Note_off_c, 0, 82, 61
1, 658644, Poly_aftertouch_c, 0, 64, 0
1, 658653, Note_on_c, 0, 69, 101
1, 658657, Note_off_c, 0, 80, 53
1, 658662, Note_on_c, 0, 57, 87
1, 658682, Poly_aftertouch_c, 0, 64, 127
1, 658700, Note_off_c, 0, 57, 63
1, 658709, Note_on_c, 0, 70, 102
1, 658715, Note_on_c, 0, 82, 83
1, 658715, Note_off_c, 0, 69, 54
1, 658738, Note_on_c, 0, 78, 41
1, 658738, Note_off_c, 0, 78, 127
1, 658743, Note_off_c, 0, 82, 62
1, 658744, Note_on_c, 0, 80, 36
1, 658751, Note_on_c, 0, 75, 22
1, 658751, Note_off_c, 0, 75, 127
1, 658754, Note_off_c, 0, 70, 62
1, 658770, Note_on_c, 0, 69, 92
1, 658777, Poly_aftertouch_c, 0, 64, 0
1, 658778, Note_off_c, 0, 80, 55
1, 658781, Note_on_c, 0, 57, 84
1, 658789, Note_on_c, 0, 64, 38
1, 658820, Note_on_c, 0, 70, 100
1, 658822, Note_off_c, 0, 69, 63
1, 658823, Note_off_c, 0, 57, 58
1, 658824, Note_on_c, 0, 82, 94
1, 658843, Note_off_c, 0, 64, 45
1, 658857, Note_on_c, 0, 78, 36
1, 658857, Note_off_c, 0, 78, 127
1, 658867, Note_off_c, 0, 70, 63
1, 658867, Note_off_c, 0, 82, 60
1, 658879, Note_on_c, 0, 69, 96
1, 658888, Note_on_c, 0, 57, 79
1, 658928, Note_off_c, 0, 69, 63
1, 658933, Note_on_c, 0, 70, 97
1, 658935, Note_on_c, 0, 82, 94
1, 658936, Note_off_c, 0, 57, 58
1, 658966, Note_on_c, 0, 80, 39
1, 658979, Note_off_c, 0, 82, 64
1, 658980, Note_off_c, 0, 70, 64
1, 658993, Note_on_c, 0, 69, 99
1, 658998, Note_off_c, 0, 80, 54
1, 659004, Note_on_c, 0, 57, 74
1, 659028, Note_off_c, 0, 57, 59
1, 659030, Note_on_c, 0, 63, 40
1, 659038, Note_on_c, 0, 58, 26
1, 659044, Note_off_c, 0, 69, 63
1, 659046, Note_on_c, 0, 70, 95
1, 659049, Note_on_c, 0, 82, 91
1, 659061, Note_off_c, 0, 63, 52
1, 659070, Note_off_c, 0, 58, 51
1, 659075, Note_on_c, 0, 80, 44
1, 659091, Note_off_c, 0, 70, 64
1, 659094, Note_off_c, 0, 82, 64
1, 659103, Note_on_c, 0, 69, 93
1, 659103, Note_off_c, 0, 80, 56
1, 659115, Note_on_c, 0, 57, 84
1, 659156, Note_on_c, 0, 70, 94
1, 659158, Note_on_c, 0, 82, 95
1, 659160, Note_on_c, 0, 58, 21
1, 659160, Note_off_c, 0, 69, 60
1, 659162, Note_off_c, 0, 57, 59
1, 659166, Note_on_c, 0, 80, 79
1, 659182, Note_off_c, 0, 80, 69
1, 659197, Note_off_c, 0, 70, 64
1, 659202, Note_off_c, 0, 58, 55
1, 659204, Note_off_c, 0, 82, 61
1, 659229, Note_on_c, 0, 69, 100
1, 659238, Note_on_c, 0, 57, 84
1, 659267, Note_on_c, 0, 70, 104
1, 659267, Note_on_c, 0, 82, 99
1, 659282, Note_on_c, 0, 62, 19
1, 659288, Note_off_c, 0, 57, 59
1, 659291, Note_off_c, 0, 69, 58
1, 659294, Note_on_c, 0, 80, 28
1, 659314, Poly_aftertouch_c, 0, 58, 127
1, 659320, Note_on_c, 0, 58, 2
1, 659324, Note_off_c, 0, 70, 65
1, 659335, Note_off_c, 0, 80, 45
1, 659344, Note_off_c, 0, 82, 63
1, 659347, Note_on_c, 0, 69, 99
1, 659347, Note_off_c, 0, 62, 0
1, 659353, Poly_aftertouch_c, 0, 78, 0
1, 659356, Note_on_c, 0, 57, 71
1, 659365, Note_on_c, 0, 62, 32
1, 659389, Note_off_c, 0, 69, 66
1, 659392, Note_off_c, 0, 57, 66
1, 659404, Poly_aftertouch_c, 0, 78, 0
1, 659425, Note_off_c, 0, 62, 61
1, 659433, Note_off_c, 0, 58, 45
1, 659444, Control_c, 0, 64, 104
1, 659459, Control_c, 0, 64, 63
1, 659463, Note_on_c, 0, 79, 105
1, 659463, Note_on_c, 0, 67, 102
1, 659473, Control_c, 0, 64, 0
1, 659474, Note_on_c, 0, 55, 88
1, 659494, Note_on_c, 0, 74, 59
1, 659495, Note_on_c, 0, 81, 55
1, 659519, Note_off_c, 0, 74, 41
1, 659519, Control_c, 0, 64, 56
1, 659520, Note_off_c, 0, 81, 58
1, 659534, Control_c, 0, 64, 78
1, 659543, Note_off_c, 0, 55, 63
1, 659544, Note_on_c, 0, 65, 10
1, 659544, Note_off_c, 0, 65, 127
1, 659548, Note_off_c, 0, 79, 63
1, 659549, Control_c, 0, 64, 127
1, 659568, Poly_aftertouch_c, 0, 62, 127
1, 659583, Note_off_c, 0, 67, 55
1, 659627, Poly_aftertouch_c, 0, 62, 0
1, 659790, Note_on_c, 0, 69, 100
1, 659794, Note_on_c, 0, 81, 122
1, 659806, Note_on_c, 0, 57, 87
1, 659811, Note_off_c, 0, 69, 62
1, 659837, Note_off_c, 0, 57, 64
1, 659854, Note_off_c, 0, 81, 62
1, 659872, Poly_aftertouch_c, 0, 61, 127
1, 659902, Poly_aftertouch_c, 0, 76, 0
1, 659904, Poly_aftertouch_c, 0, 67, 0
1, 659908, Poly_aftertouch_c, 0, 61, 0
1, 660048, Note_on_c, 0, 46, 106
1, 660066, Note_on_c, 0, 70, 93
1, 660068, Note_off_c, 0, 46, 71
1, 660070, Note_on_c, 0, 82, 86
1, 660075, Note_on_c, 0, 34, 34
1, 660075, Note_off_c, 0, 34, 127
1, 660083, Note_on_c, 0, 47, 52
1, 660107, Note_on_c, 0, 69, 36
1, 660110, Note_off_c, 0, 47, 61
1, 660113, Note_on_c, 0, 71, 32
1, 660146, Note_off_c, 0, 69, 51
1, 660149, Note_off_c, 0, 82, 55
1, 660152, Note_off_c, 0, 70, 58
1, 660159, Note_off_c, 0, 71, 53
1, 660160, Note_on_c, 0, 77, 65
1, 660173, Note_on_c, 0, 74, 56
1, 660188, Poly_aftertouch_c, 0, 48, 0
1, 660204, Note_off_c, 0, 74, 66
1, 660206, Note_on_c, 0, 62, 62
1, 660212, Note_on_c, 0, 65, 60
1, 660213, Note_off_c, 0, 77, 61
1, 660222, Control_c, 0, 64, 94
1, 660232, Note_off_c, 0, 62, 63
1, 660233, Note_off_c, 0, 65, 62
1, 660237, Control_c, 0, 64, 63
1, 660252, Control_c, 0, 64, 0
1, 660267, Note_on_c, 0, 70, 79
1, 660284, Note_on_c, 0, 82, 42
1, 660284, Note_off_c, 0, 82, 127
1, 660285, Note_off_c, 0, 70, 72
1, 660301, Note_on_c, 0, 58, 73
1, 660309, Note_on_c, 0, 62, 51
1, 660331, Note_off_c, 0, 62, 61
1, 660334, Note_off_c, 0, 58, 61
1, 660354, Note_on_c, 0, 77, 72
1, 660359, Note_on_c, 0, 82, 68
1, 660369, Note_on_c, 0, 53, 57
1, 660375, Note_off_c, 0, 77, 71
1, 660383, Note_off_c, 0, 82, 67
1, 660385, Note_on_c, 0, 58, 32
1, 660391, Note_off_c, 0, 53, 58
1, 660414, Note_off_c, 0, 58, 55
1, 660445, Control_c, 0, 64, 41
1, 660448, Note_on_c, 0, 46, 89
1, 660448, Note_on_c, 0, 86, 93
1, 660453, Note_on_c, 0, 74, 89
1, 660460, Control_c, 0, 64, 84
1, 660462, Note_on_c, 0, 76, 74
1, 660468, Note_off_c, 0, 46, 69
1, 660470, Note_off_c, 0, 74, 73
1, 660475, Control_c, 0, 64, 127
1, 660480, Note_off_c, 0, 76, 65
1, 660484, Note_on_c, 0, 84, 41
1, 660492, Note_off_c, 0, 86, 58
1, 660512, Note_off_c, 0, 84, 60
1, 660540, Note_on_c, 0, 77, 74
1, 660548, Note_on_c, 0, 82, 46
1, 660561, Note_on_c, 0, 62, 70
1, 660563, Note_off_c, 0, 77, 68
1, 660575, Note_on_c, 0, 65, 42
1, 660575, Note_off_c, 0, 82, 54
1, 660579, Control_c, 0, 64, 101
1, 660590, Note_off_c, 0, 62, 65
1, 660593, Control_c, 0, 64, 65
1, 660603, Note_off_c, 0, 65, 53
1, 660608, Control_c, 0, 64, 0
1, 660636, Note_on_c, 0, 70, 88
1, 660638, Note_on_c, 0, 82, 82
1, 660647, Note_on_c, 0, 62, 83
1, 660656, Note_off_c, 0, 70, 69
1, 660658, Note_on_c, 0, 58, 67
1, 660663, Note_off_c, 0, 82, 62
1, 660670, Note_off_c, 0, 62, 68
1, 660677, Note_off_c, 0, 58, 66
1, 660712, Note_on_c, 0, 77, 70
1, 660720, Note_on_c, 0, 74, 63
1, 660739, Note_on_c, 0, 53, 53
1, 660740, Note_off_c, 0, 77, 62
1, 660743, Note_on_c, 0, 58, 62
1, 660751, Note_off_c, 0, 74, 65
1, 660763, Note_off_c, 0, 58, 65
1, 660764, Note_off_c, 0, 53, 58
1, 660825, Note_on_c, 0, 65, 97
1, 660829, Control_c, 0, 64, 66
1, 660829, Note_on_c, 0, 46, 78
1, 660829, Note_on_c, 0, 77, 83
1, 660844, Control_c, 0, 64, 127
1, 660850, Note_off_c, 0, 46, 68
1, 660857, Note_off_c, 0, 77, 59
1, 660866, Note_off_c, 0, 65, 61
1, 660925, Control_c, 0, 64, 87
1, 660927, Note_on_c, 0, 70, 68
1, 660930, Note_on_c, 0, 74, 53
1, 660935, Note_on_c, 0, 62, 72
1, 660940, Control_c, 0, 64, 59
1, 660948, Note_on_c, 0, 65, 33
1, 660954, Note_off_c, 0, 74, 56
1, 660955, Control_c, 0, 64, 0
1, 660957, Note_off_c, 0, 70, 67
1, 660962, Note_off_c, 0, 62, 68
1, 660982, Note_off_c, 0, 65, 45
1, 661025, Note_on_c, 0, 77, 74
1, 661034, Note_on_c, 0, 65, 57
1, 661038, Note_on_c, 0, 62, 66
1, 661043, Note_on_c, 0, 58, 59
1, 661044, Note_off_c, 0, 77, 72
1, 661054, Note_off_c, 0, 65, 61
1, 661058, Note_off_c, 0, 62, 65
1, 661064, Note_off_c, 0, 58, 62
1, 661106, Note_on_c, 0, 77, 85
1, 661111, Note_on_c, 0, 53, 71
1, 661124, Note_on_c, 0, 74, 61
1, 661135, Note_off_c, 0, 53, 66
1, 661140, Note_on_c, 0, 58, 45
1, 661142, Note_off_c, 0, 74, 63
1, 661162, Note_off_c, 0, 77, 64
1, 661167, Note_off_c, 0, 58, 58
1, 661208, Control_c, 0, 64, 58
1, 661210, Note_on_c, 0, 70, 93
1, 661212, Note_on_c, 0, 82, 95
1, 661213, Note_on_c, 0, 46, 65
1, 661222, Control_c, 0, 64, 127
1, 661236, Note_off_c, 0, 70, 62
1, 661239, Note_off_c, 0, 46, 66
1, 661251, Note_off_c, 0, 82, 64
1, 661282, Control_c, 0, 64, 108
1, 661297, Control_c, 0, 64, 58
1, 661300, Note_on_c, 0, 77, 69
1, 661308, Note_on_c, 0, 65, 66
1, 661309, Note_on_c, 0, 62, 73
1, 661312, Control_c, 0, 64, 0
1, 661319, Note_on_c, 0, 74, 40
1, 661324, Note_off_c, 0, 77, 67
1, 661330, Note_off_c, 0, 65, 67
1, 661333, Note_off_c, 0, 62, 67
1, 661344, Note_off_c, 0, 74, 54
1, 661404, Note_on_c, 0, 65, 89
1, 661404, Note_on_c, 0, 77, 81
1, 661404, Note_on_c, 0, 62, 69
1, 661414, Note_on_c, 0, 58, 70
1, 661430, Note_off_c, 0, 62, 68
1, 661430, Note_off_c, 0, 77, 59
1, 661440, Note_off_c, 0, 58, 63
1, 661455, Note_off_c, 0, 65, 55
1, 661482, Note_on_c, 0, 74, 59
1, 661488, Note_on_c, 0, 53, 66
1, 661503, Note_on_c, 0, 70, 55
1, 661504, Note_on_c, 0, 58, 64
1, 661505, Note_off_c, 0, 74, 64
1, 661519, Note_off_c, 0, 53, 65
1, 661524, Note_off_c, 0, 58, 66
1, 661525, Note_off_c, 0, 70, 61
1, 661577, Control_c, 0, 64, 49
1, 661591, Note_on_c, 0, 46, 81
1, 661592, Note_on_c, 0, 62, 94
1, 661592, Control_c, 0, 64, 127
1, 661596, Note_on_c, 0, 74, 80
1, 661619, Note_off_c, 0, 46, 68
1, 661619, Note_off_c, 0, 74, 67
1, 661622, Note_off_c, 0, 62, 60
1, 661628, Note_on_c, 0, 72, 39
1, 661628, Note_off_c, 0, 72, 127
1, 661659, Control_c, 0, 64, 73
1, 661663, Poly_aftertouch_c, 0, 72, 0
1, 661674, Control_c, 0, 64, 0
1, 661696, Note_on_c, 0, 70, 44
1, 661700, Note_on_c, 0, 65, 68
1, 661701, Note_on_c, 0, 62, 66
1, 661704, Note_on_c, 0, 58, 62
1, 661718, Note_off_c, 0, 62, 68
1, 661721, Note_off_c, 0, 65, 67
1, 661721, Note_off_c, 0, 70, 58
1, 661734, Note_off_c, 0, 58, 65
1, 661779, Note_on_c, 0, 62, 88
1, 661793, Note_on_c, 0, 53, 70
1, 661794, Note_on_c, 0, 74, 69
1, 661802, Note_off_c, 0, 62, 67
1, 661809, Note_on_c, 0, 58, 57
1, 661812, Note_off_c, 0, 74, 67
1, 661824, Note_off_c, 0, 53, 63
1, 661831, Note_off_c, 0, 58, 62
1, 661877, Note_on_c, 0, 63, 87
1, 661881, Note_on_c, 0, 75, 79
1, 661887, Note_on_c, 0, 62, 65
1, 661896, Note_off_c, 0, 63, 72
1, 661900, Note_on_c, 0, 58, 53
1, 661903, Note_off_c, 0, 75, 68
1, 661908, Note_off_c, 0, 62, 64
1, 661925, Note_off_c, 0, 58, 59
1, 661942, Control_c, 0, 64, 34
1, 661957, Control_c, 0, 64, 99
1, 661971, Control_c, 0, 64, 127
1, 661973, Note_on_c, 0, 67, 97
1, 661976, Note_on_c, 0, 79, 90
1, 661982, Note_on_c, 0, 46, 80
1, 662006, Note_off_c, 0, 46, 66
1, 662027, Note_off_c, 0, 79, 60
1, 662030, Control_c, 0, 64, 83
1, 662045, Control_c, 0, 64, 43
1, 662054, Note_on_c, 0, 74, 51
1, 662055, Note_off_c, 0, 67, 57
1, 662057, Poly_aftertouch_c, 0, 49, 0
1, 662060, Control_c, 0, 64, 0
1, 662069, Note_on_c, 0, 58, 67
1, 662070, Note_on_c, 0, 62, 74
1, 662084, Note_on_c, 0, 70, 48
1, 662090, Note_off_c, 0, 74, 63
1, 662095, Note_off_c, 0, 62, 68
1, 662099, Note_off_c, 0, 58, 65
1, 662109, Note_off_c, 0, 70, 62
1, 662166, Note_on_c, 0, 65, 87
1, 662170, Note_on_c, 0, 77, 73
1, 662179, Note_on_c, 0, 53, 62
1, 662179, Note_on_c, 0, 58, 69
1, 662208, Note_off_c, 0, 77, 57
1, 662210, Note_off_c, 0, 58, 67
1, 662217, Note_off_c, 0, 65, 60
1, 662218, Note_off_c, 0, 53, 61
1, 662249, Note_on_c, 0, 62, 71
1, 662263, Note_on_c, 0, 74, 57
1, 662266, Note_on_c, 0, 58, 60
1, 662268, Note_on_c, 0, 70, 59
1, 662275, Note_off_c, 0, 62, 67
1, 662283, Note_off_c, 0, 74, 65
1, 662288, Note_off_c, 0, 70, 62
1, 662295, Note_off_c, 0, 58, 65
1, 662328, Control_c, 0, 64, 69
1, 662343, Control_c, 0, 64, 127
1, 662352, Note_on_c, 0, 65, 98
1, 662357, Note_on_c, 0, 77, 86
1, 662358, Note_on_c, 0, 41, 81
1, 662392, Note_off_c, 0, 41, 63
1, 662400, Note_off_c, 0, 65, 61
1, 662406, Note_off_c, 0, 77, 60
1, 662438, Control_c, 0, 64, 97
1, 662453, Control_c, 0, 64, 64
1, 662462, Note_on_c, 0, 63, 78
1, 662463, Note_on_c, 0, 72, 69
1, 662468, Control_c, 0, 64, 0
1, 662469, Note_on_c, 0, 69, 61
1, 662477, Note_on_c, 0, 60, 58
1, 662483, Note_off_c, 0, 63, 70
1, 662484, Note_off_c, 0, 72, 69
1, 662495, Note_off_c, 0, 69, 65
1, 662499, Note_off_c, 0, 60, 64
1, 662558, Note_on_c, 0, 53, 72
1, 662567, Note_on_c, 0, 67, 73
1, 662570, Note_on_c, 0, 79, 75
1, 662585, Note_off_c, 0, 67, 69
1, 662585, Note_off_c, 0, 53, 65
1, 662586, Note_on_c, 0, 60, 38
1, 662586, Note_off_c, 0, 79, 66
1, 662629, Note_off_c, 0, 60, 0
1, 662645, Note_on_c, 0, 60, 46
1, 662645, Note_on_c, 0, 63, 76
1, 662645, Note_on_c, 0, 69, 34
1, 662661, Note_on_c, 0, 81, 70
1, 662667, Note_off_c, 0, 63, 70
1, 662674, Note_off_c, 0, 60, 66
1, 662676, Control_c, 0, 64, 46
1, 662679, Note_off_c, 0, 81, 68
1, 662686, Note_off_c, 0, 69, 62
1, 662690, Control_c, 0, 64, 81
1, 662706, Control_c, 0, 64, 127
1, 662736, Control_c, 0, 67, 20
1, 662742, Note_on_c, 0, 82, 94
1, 662743, Note_on_c, 0, 70, 95
1, 662751, Control_c, 0, 64, 91
1, 662751, Control_c, 0, 67, 35
1, 662752, Note_on_c, 0, 46, 77
1, 662766, Control_c, 0, 64, 65
1, 662766, Control_c, 0, 67, 60
1, 662776, Note_off_c, 0, 46, 67
1, 662781, Control_c, 0, 64, 0
1, 662781, Control_c, 0, 67, 96
1, 662795, Control_c, 0, 67, 127
1, 662832, Note_off_c, 0, 70, 63
1, 662842, Note_on_c, 0, 77, 59
1, 662850, Note_on_c, 0, 62, 61
1, 662851, Note_on_c, 0, 74, 55
1, 662866, Note_off_c, 0, 82, 54
1, 662878, Note_off_c, 0, 62, 65
1, 662889, Note_on_c, 0, 65, 5
1, 662889, Note_off_c, 0, 74, 61
1, 662897, Note_off_c, 0, 77, 54
1, 662924, Note_off_c, 0, 65, 29
1, 662945, Note_on_c, 0, 70, 72
1, 662969, Note_off_c, 0, 70, 70
1, 662971, Note_on_c, 0, 62, 40
1, 662977, Note_on_c, 0, 58, 50
1, 662998, Note_off_c, 0, 62, 52
1, 663002, Note_off_c, 0, 58, 58
1, 663029, Note_on_c, 0, 77, 46
1, 663049, Note_on_c, 0, 53, 37
1, 663054, Note_off_c, 0, 77, 59
1, 663059, Note_on_c, 0, 58, 34
1, 663081, Note_off_c, 0, 53, 49
1, 663090, Note_off_c, 0, 58, 32
1, 663154, Note_on_c, 0, 82, 78
1, 663157, Note_on_c, 0, 46, 50
1, 663160, Note_on_c, 0, 94, 67
1, 663173, Note_off_c, 0, 82, 71
1, 663178, Note_off_c, 0, 94, 64
1, 663190, Note_off_c, 0, 46, 35
1, 663246, Control_c, 0, 67, 118
1, 663249, Note_on_c, 0, 89, 45
1, 663249, Note_on_c, 0, 65, 51
1, 663259, Note_on_c, 0, 62, 39
1, 663261, Control_c, 0, 67, 39
1, 663273, Note_off_c, 0, 89, 58
1, 663274, Note_off_c, 0, 65, 57
1, 663276, Control_c, 0, 67, 0
1, 663292, Note_off_c, 0, 62, 48
1, 663327, Note_on_c, 0, 82, 73
1, 663336, Note_on_c, 0, 94, 67
1, 663351, Note_off_c, 0, 82, 68
1, 663352, Note_off_c, 0, 94, 66
1, 663357, Note_on_c, 0, 58, 49
1, 663384, Note_off_c, 0, 58, 55
1, 663425, Note_on_c, 0, 93, 62
1, 663438, Note_on_c, 0, 53, 37
1, 663443, Note_off_c, 0, 93, 64
1, 663472, Note_off_c, 0, 53, 48
1, 663499, Control_c, 0, 67, 29
1, 663506, Note_on_c, 0, 98, 83
1, 663512, Note_on_c, 0, 86, 74
1, 663515, Control_c, 0, 67, 47
1, 663527, Note_off_c, 0, 98, 71
1, 663529, Control_c, 0, 67, 75
1, 663530, Note_on_c, 0, 46, 46
1, 663530, Note_off_c, 0, 46, 127
1, 663530, Note_off_c, 0, 86, 67
1, 663544, Control_c, 0, 67, 114
1, 663559, Control_c, 0, 67, 127
1, 663619, Note_on_c, 0, 62, 54
1, 663621, Note_on_c, 0, 65, 46
1, 663624, Note_on_c, 0, 93, 32
1, 663643, Note_off_c, 0, 62, 61
1, 663649, Note_off_c, 0, 65, 53
1, 663657, Note_off_c, 0, 93, 54
1, 663692, Control_c, 0, 67, 73
1, 663696, Note_on_c, 0, 94, 81
1, 663699, Note_on_c, 0, 82, 83
1, 663707, Control_c, 0, 67, 0
1, 663720, Note_off_c, 0, 82, 69
1, 663728, Note_on_c, 0, 58, 39
1, 663734, Note_off_c, 0, 94, 61
1, 663742, Note_on_c, 0, 62, 12
1, 663758, Note_off_c, 0, 58, 54
1, 663791, Note_off_c, 0, 62, 28
1, 663795, Note_on_c, 0, 86, 49
1, 663801, Note_on_c, 0, 53, 51
1, 663802, Note_on_c, 0, 58, 48
1, 663811, Note_on_c, 0, 88, 22
1, 663818, Note_off_c, 0, 86, 59
1, 663826, Note_off_c, 0, 53, 59
1, 663826, Note_off_c, 0, 58, 61
1, 663835, Note_off_c, 0, 88, 48
1, 663901, Note_on_c, 0, 77, 71
1, 663907, Control_c, 0, 64, 60
1, 663908, Note_on_c, 0, 89, 65
1, 663910, Note_on_c, 0, 46, 64
1, 663922, Control_c, 0, 64, 52
1, 663931, Note_off_c, 0, 77, 59
1, 663934, Note_off_c, 0, 46, 62
1, 663936, Note_off_c, 0, 89, 50
1, 663936, Control_c, 0, 64, 0
1, 663980, Note_on_c, 0, 82, 67
1, 663997, Note_on_c, 0, 62, 61
1, 664001, Note_on_c, 0, 65, 53
1, 664006, Note_off_c, 0, 82, 67
1, 664011, Note_on_c, 0, 86, 9
1, 664019, Note_off_c, 0, 62, 64
1, 664024, Note_off_c, 0, 65, 60
1, 664027, Note_off_c, 0, 86, 33
1, 664077, Note_on_c, 0, 89, 76
1, 664080, Note_on_c, 0, 77, 62
1, 664096, Note_on_c, 0, 62, 62
1, 664097, Note_off_c, 0, 89, 71
1, 664099, Note_off_c, 0, 77, 65
1, 664103, Note_on_c, 0, 58, 58
1, 664127, Note_off_c, 0, 62, 65
1, 664128, Note_off_c, 0, 58, 64
1, 664164, Note_on_c, 0, 89, 85
1, 664171, Note_on_c, 0, 86, 56
1, 664172, Note_on_c, 0, 53, 62
1, 664190, Note_off_c, 0, 86, 64
1, 664200, Note_off_c, 0, 53, 63
1, 664219, Note_off_c, 0, 89, 63
1, 664258, Note_on_c, 0, 82, 83
1, 664258, Note_on_c, 0, 94, 88
1, 664277, Note_off_c, 0, 82, 72
1, 664278, Note_on_c, 0, 46, 60
1, 664278, Note_off_c, 0, 94, 69
1, 664304, Note_off_c, 0, 46, 59
1, 664334, Note_on_c, 0, 90, 79
1, 664351, Note_off_c, 0, 90, 72
1, 664368, Note_on_c, 0, 62, 63
1, 664373, Note_on_c, 0, 65, 48
1, 664397, Note_off_c, 0, 65, 60
1, 664398, Note_off_c, 0, 62, 66
1, 664442, Note_on_c, 0, 89, 26
1, 664451, Note_on_c, 0, 77, 76
1, 664462, Note_on_c, 0, 62, 68
1, 664476, Note_off_c, 0, 77, 64
1, 664486, Note_off_c, 0, 89, 62
1, 664488, Note_off_c, 0, 62, 67
1, 664528, Note_on_c, 0, 58, 41
1, 664531, Note_on_c, 0, 86, 57
1, 664546, Note_on_c, 0, 53, 52
1, 664552, Note_off_c, 0, 86, 64
1, 664559, Note_on_c, 0, 82, 34
1, 664561, Note_off_c, 0, 58, 64
1, 664571, Note_off_c, 0, 53, 57
1, 664594, Note_off_c, 0, 82, 48
1, 664603, Control_c, 0, 64, 47
1, 664618, Control_c, 0, 64, 60
1, 664638, Note_on_c, 0, 86, 80
1, 664638, Note_on_c, 0, 74, 87
1, 664641, Control_c, 0, 64, 41
1, 664650, Note_on_c, 0, 46, 61
1, 664656, Control_c, 0, 64, 0
1, 664663, Note_off_c, 0, 74, 62
1, 664663, Note_off_c, 0, 86, 62
1, 664674, Note_on_c, 0, 84, 39
1, 664674, Note_off_c, 0, 84, 127
1, 664680, Note_off_c, 0, 46, 36
1, 664732, Note_on_c, 0, 62, 70
1, 664732, Note_on_c, 0, 77, 63
1, 664734, Note_on_c, 0, 65, 68
1, 664742, Note_on_c, 0, 82, 41
1, 664751, Note_off_c, 0, 77, 68
1, 664757, Note_off_c, 0, 62, 68
1, 664759, Note_off_c, 0, 65, 65
1, 664769, Note_off_c, 0, 82, 53
1, 664817, Note_on_c, 0, 74, 86
1, 664826, Note_on_c, 0, 86, 68
1, 664829, Note_on_c, 0, 62, 70
1, 664835, Note_off_c, 0, 74, 72
1, 664844, Note_off_c, 0, 86, 64
1, 664857, Note_off_c, 0, 62, 67
1, 664860, Note_on_c, 0, 58, 37
1, 664902, Note_off_c, 0, 58, 0
1, 664910, Note_on_c, 0, 75, 82
1, 664912, Note_on_c, 0, 87, 88
1, 664916, Note_on_c, 0, 58, 46
1, 664919, Note_on_c, 0, 53, 65
1, 664928, Note_off_c, 0, 75, 72
1, 664939, Note_off_c, 0, 87, 64
1, 664948, Note_off_c, 0, 53, 65
1, 664948, Note_off_c, 0, 58, 64
1, 664996, Control_c, 0, 64, 45
1, 665011, Control_c, 0, 64, 70
1, 665011, Note_on_c, 0, 79, 90
1, 665013, Note_on_c, 0, 91, 85
1, 665019, Note_on_c, 0, 46, 63
1, 665026, Control_c, 0, 64, 72
1, 665026, Control_c, 0, 67, 22
1, 665041, Control_c, 0, 64, 69
1, 665041, Note_on_c, 0, 81, 48
1, 665041, Note_off_c, 0, 81, 127
1, 665044, Note_off_c, 0, 79, 54
1, 665046, Note_off_c, 0, 46, 60
1, 665053, Note_off_c, 0, 91, 42
1, 665056, Control_c, 0, 64, 54
1, 665071, Control_c, 0, 64, 0
1, 665071, Control_c, 0, 67, 0
1, 665094, Note_on_c, 0, 86, 47
1, 665115, Note_on_c, 0, 62, 67
1, 665118, Note_on_c, 0, 65, 55
1, 665130, Note_off_c, 0, 86, 63
1, 665139, Note_on_c, 0, 82, 18
1, 665141, Note_off_c, 0, 65, 62
1, 665143, Note_off_c, 0, 62, 66
1, 665177, Note_off_c, 0, 82, 41
1, 665200, Note_on_c, 0, 89, 86
1, 665202, Note_on_c, 0, 77, 80
1, 665219, Note_on_c, 0, 62, 59
1, 665220, Note_on_c, 0, 58, 61
1, 665240, Note_off_c, 0, 77, 65
1, 665240, Note_off_c, 0, 62, 62
1, 665242, Note_off_c, 0, 58, 63
1, 665277, Note_off_c, 0, 89, 39
1, 665281, Note_on_c, 0, 58, 71
1, 665285, Note_on_c, 0, 53, 61
1, 665290, Note_on_c, 0, 86, 66
1, 665294, Note_on_c, 0, 82, 60
1, 665306, Note_off_c, 0, 58, 66
1, 665315, Note_off_c, 0, 53, 64
1, 665315, Note_off_c, 0, 86, 68
1, 665324, Note_off_c, 0, 82, 65
1, 665387, Note_on_c, 0, 41, 82
1, 665390, Note_on_c, 0, 89, 95
1, 665390, Control_c, 0, 64, 76
1, 665390, Note_on_c, 0, 77, 93
1, 665404, Control_c, 0, 64, 127
1, 665414, Note_off_c, 0, 41, 65
1, 665425, Note_off_c, 0, 77, 64
1, 665432, Note_off_c, 0, 89, 64
1, 665491, Note_on_c, 0, 81, 73
1, 665491, Note_on_c, 0, 84, 77
1, 665494, Control_c, 0, 64, 104
1, 665501, Note_on_c, 0, 63, 76
1, 665503, Note_on_c, 0, 65, 63
1, 665508, Note_off_c, 0, 81, 69
1, 665508, Control_c, 0, 64, 69
1, 665512, Note_off_c, 0, 84, 70
1, 665522, Note_off_c, 0, 65, 63
1, 665523, Control_c, 0, 64, 0
1, 665524, Note_off_c, 0, 63, 70
1, 665592, Note_on_c, 0, 79, 91
1, 665595, Note_on_c, 0, 91, 82
1, 665603, Note_on_c, 0, 63, 69
1, 665609, Note_off_c, 0, 79, 75
1, 665613, Note_off_c, 0, 91, 72
1, 665617, Note_on_c, 0, 60, 57
1, 665631, Note_off_c, 0, 63, 67
1, 665640, Note_off_c, 0, 60, 61
1, 665682, Note_on_c, 0, 81, 97
1, 665687, Note_on_c, 0, 60, 65
1, 665687, Note_on_c, 0, 93, 80
1, 665688, Note_on_c, 0, 53, 62
1, 665701, Note_off_c, 0, 81, 68
1, 665708, Note_off_c, 0, 93, 71
1, 665712, Note_off_c, 0, 60, 68
1, 665717, Note_off_c, 0, 53, 65
1, 665782, Note_on_c, 0, 94, 98
1, 665783, Note_on_c, 0, 82, 96
1, 665789, Control_c, 0, 64, 127
1, 665793, Note_on_c, 0, 46, 82
1, 665804, Note_off_c, 0, 94, 67
1, 665818, Note_off_c, 0, 46, 67
1, 665819, Note_off_c, 0, 82, 65
1, 665922, Note_on_c, 0, 65, 73
1, 665926, Note_on_c, 0, 70, 74
1, 665928, Note_on_c, 0, 62, 60
1, 665941, Note_on_c, 0, 74, 57
1, 665945, Note_off_c, 0, 70, 68
1, 665950, Note_off_c, 0, 65, 67
1, 665957, Note_off_c, 0, 62, 65
1, 665961, Note_off_c, 0, 74, 63
1, 666027, Note_on_c, 0, 58, 70
1, 666027, Note_on_c, 0, 77, 62
1, 666030, Note_on_c, 0, 62, 55
1, 666035, Note_on_c, 0, 76, 60
1, 666045, Note_off_c, 0, 77, 66
1, 666055, Note_off_c, 0, 76, 60
1, 666066, Note_off_c, 0, 58, 60
1, 666087, Note_off_c, 0, 62, 51
1, 666099, Note_on_c, 0, 54, 72
1, 666107, Note_on_c, 0, 82, 92
1, 666109, Note_on_c, 0, 74, 45
1, 666115, Note_on_c, 0, 77, 67
1, 666117, Note_on_c, 0, 58, 42
1, 666138, Note_off_c, 0, 77, 69
1, 666141, Note_off_c, 0, 54, 63
1, 666144, Note_off_c, 0, 82, 58
1, 666147, Note_off_c, 0, 74, 52
1, 666153, Control_c, 0, 64, 111
1, 666156, Note_off_c, 0, 58, 55
1, 666168, Control_c, 0, 64, 65
1, 666182, Control_c, 0, 64, 0
1, 666185, Poly_aftertouch_c, 0, 76, 0
1, 666197, Control_c, 0, 64, 36
1, 666203, Note_on_c, 0, 86, 97
1, 666210, Note_on_c, 0, 76, 44
1, 666210, Note_on_c, 0, 77, 67
1, 666212, Control_c, 0, 64, 64
1, 666213, Note_on_c, 0, 46, 73
1, 666213, Note_on_c, 0, 79, 80
1, 666219, Note_on_c, 0, 74, 65
1, 666219, Note_off_c, 0, 74, 127
1, 666227, Control_c, 0, 64, 103
1, 666234, Note_off_c, 0, 79, 72
1, 666236, Note_off_c, 0, 76, 65
1, 666241, Note_off_c, 0, 77, 64
1, 666242, Note_off_c, 0, 46, 65
1, 666242, Control_c, 0, 64, 127
1, 666244, Note_off_c, 0, 86, 64
1, 666288, Note_on_c, 0, 62, 74
1, 666293, Note_on_c, 0, 53, 65
1, 666306, Note_off_c, 0, 62, 66
1, 666307, Poly_aftertouch_c, 0, 84, 0
1, 666320, Note_on_c, 0, 54, 14
1, 666327, Note_off_c, 0, 53, 66
1, 666367, Note_off_c, 0, 54, 51
1, 666379, Note_on_c, 0, 70, 97
1, 666380, Note_on_c, 0, 82, 97
1, 666394, Note_off_c, 0, 82, 75
1, 666396, Note_off_c, 0, 70, 75
1, 666400, Note_on_c, 0, 41, 72
1, 666406, Note_on_c, 0, 75, 46
1, 666406, Note_off_c, 0, 75, 127
1, 666420, Note_on_c, 0, 78, 19
1, 666420, Note_off_c, 0, 78, 127
1, 666421, Note_off_c, 0, 41, 62
1, 666461, Poly_aftertouch_c, 0, 78, 0
1, 666464, Control_c, 0, 64, 92
1, 666466, Note_on_c, 0, 65, 102
1, 666472, Note_on_c, 0, 58, 86
1, 666474, Note_on_c, 0, 77, 77
1, 666479, Control_c, 0, 64, 56
1, 666482, Note_off_c, 0, 65, 73
1, 666494, Control_c, 0, 64, 0
1, 666495, Note_off_c, 0, 77, 72
1, 666501, Note_off_c, 0, 58, 65
1, 666553, Control_c, 0, 64, 68
1, 666567, Note_on_c, 0, 75, 84
1, 666568, Control_c, 0, 64, 127
1, 666570, Note_on_c, 0, 48, 69
1, 666571, Note_on_c, 0, 81, 99
1, 666573, Note_on_c, 0, 87, 101
1, 666588, Note_off_c, 0, 87, 75
1, 666588, Note_off_c, 0, 81, 69
1, 666596, Note_off_c, 0, 75, 61
1, 666599, Note_off_c, 0, 48, 66
1, 666643, Note_on_c, 0, 53, 70
1, 666647, Note_on_c, 0, 63, 84
1, 666665, Note_off_c, 0, 63, 72
1, 666700, Note_off_c, 0, 53, 61
1, 666763, Note_on_c, 0, 81, 99
1, 666765, Note_on_c, 0, 69, 87
1, 666773, Note_on_c, 0, 41, 62
1, 666785, Note_off_c, 0, 69, 72
1, 666799, Note_off_c, 0, 41, 62
1, 666808, Note_off_c, 0, 81, 63
1, 666847, Note_on_c, 0, 57, 72
1, 666854, Note_on_c, 0, 53, 64
1, 666859, Note_on_c, 0, 51, 62
1, 666880, Note_off_c, 0, 57, 69
1, 666888, Control_c, 0, 64, 111
1, 666901, Note_off_c, 0, 51, 65
1, 666903, Control_c, 0, 64, 68
1, 666904, Note_off_c, 0, 53, 63
1, 666918, Control_c, 0, 64, 0
1, 666947, Control_c, 0, 64, 63
1, 666951, Note_on_c, 0, 77, 88
1, 666951, Note_on_c, 0, 86, 98
1, 666954, Note_on_c, 0, 46, 80
1, 666954, Note_on_c, 0, 74, 96
1, 666962, Control_c, 0, 64, 86
1, 666977, Note_on_c, 0, 84, 56
1, 666977, Note_off_c, 0, 84, 127
1, 666977, Control_c, 0, 64, 127
1, 666982, Note_off_c, 0, 46, 70
1, 666997, Note_off_c, 0, 86, 64
1, 667001, Note_off_c, 0, 74, 58
1, 667007, Note_off_c, 0, 77, 65
1, 667044, Note_on_c, 0, 53, 58
1, 667045, Note_on_c, 0, 62, 60
1, 667070, Note_off_c, 0, 62, 64
1, 667079, Note_off_c, 0, 53, 64
1, 667138, Note_on_c, 0, 82, 78
1, 667147, Note_on_c, 0, 41, 71
1, 667153, Note_off_c, 0, 82, 70
1, 667160, Note_on_c, 0, 75, 46
1, 667160, Note_off_c, 0, 75, 127
1, 667169, Note_off_c, 0, 41, 59
1, 667173, Note_on_c, 0, 83, 39
1, 667203, Note_off_c, 0, 83, 56
1, 667219, Note_on_c, 0, 58, 91
1, 667225, Note_on_c, 0, 65, 91
1, 667227, Note_on_c, 0, 77, 82
1, 667229, Control_c, 0, 64, 103
1, 667232, Poly_aftertouch_c, 0, 78, 0
1, 667244, Note_off_c, 0, 65, 74
1, 667244, Control_c, 0, 64, 67
1, 667246, Note_off_c, 0, 77, 73
1, 667252, Note_off_c, 0, 58, 59
1, 667259, Control_c, 0, 64, 0
1, 667303, Control_c, 0, 64, 60
1, 667317, Note_on_c, 0, 75, 102
1, 667318, Control_c, 0, 64, 96
1, 667319, Note_on_c, 0, 48, 73
1, 667319, Note_on_c, 0, 81, 96
1, 667324, Note_on_c, 0, 85, 77
1, 667332, Control_c, 0, 64, 127
1, 667335, Note_on_c, 0, 86, 67
1, 667335, Note_off_c, 0, 75, 63
1, 667338, Note_off_c, 0, 81, 66
1, 667340, Note_off_c, 0, 85, 46
1, 667345, Note_off_c, 0, 48, 63
1, 667353, Note_off_c, 0, 86, 65
1, 667381, Note_on_c, 0, 55, 9
1, 667393, Note_on_c, 0, 53, 59
1, 667399, Note_on_c, 0, 63, 88
1, 667417, Note_off_c, 0, 63, 72
1, 667433, Note_off_c, 0, 55, 46
1, 667453, Note_off_c, 0, 53, 61
1, 667515, Note_on_c, 0, 41, 76
1, 667516, Note_on_c, 0, 81, 94
1, 667518, Note_on_c, 0, 69, 86
1, 667538, Note_off_c, 0, 69, 71
1, 667543, Note_off_c, 0, 41, 63
1, 667569, Note_off_c, 0, 81, 59
1, 667595, Note_on_c, 0, 57, 83
1, 667597, Note_on_c, 0, 53, 72
1, 667609, Note_on_c, 0, 51, 67
1, 667629, Note_off_c, 0, 57, 62
1, 667652, Control_c, 0, 64, 80
1, 667655, Note_off_c, 0, 53, 62
1, 667656, Note_off_c, 0, 51, 62
1, 667667, Control_c, 0, 64, 50
1, 667682, Control_c, 0, 64, 0
1, 667697, Control_c, 0, 64, 53
1, 667699, Note_on_c, 0, 77, 96
1, 667700, Note_on_c, 0, 86, 98
1, 667700, Note_on_c, 0, 46, 83
1, 667706, Note_on_c, 0, 74, 99
1, 667711, Control_c, 0, 64, 75
1, 667726, Control_c, 0, 64, 127
1, 667728, Note_off_c, 0, 74, 58
1, 667730, Note_off_c, 0, 46, 68
1, 667734, Note_on_c, 0, 84, 44
1, 667734, Note_off_c, 0, 84, 127
1, 667742, Note_off_c, 0, 86, 64
1, 667745, Note_off_c, 0, 77, 62
1, 667792, Note_on_c, 0, 62, 67
1, 667796, Note_on_c, 0, 53, 52
1, 667818, Note_off_c, 0, 62, 68
1, 667834, Note_off_c, 0, 53, 65
1, 667851, Note_on_c, 0, 56, 2
1, 667887, Note_on_c, 0, 82, 89
1, 667897, Note_off_c, 0, 56, 48
1, 667902, Note_off_c, 0, 82, 74
1, 667908, Note_on_c, 0, 73, 47
1, 667908, Note_off_c, 0, 73, 127
1, 667910, Note_on_c, 0, 41, 47
1, 667937, Note_off_c, 0, 41, 56
1, 667947, Note_on_c, 0, 43, 10
1, 667970, Note_off_c, 0, 43, 0
1, 667972, Note_on_c, 0, 58, 83
1, 667980, Note_on_c, 0, 77, 84
1, 667984, Note_on_c, 0, 65, 75
1, 667993, Poly_aftertouch_c, 0, 43, 0
1, 667998, Note_off_c, 0, 58, 64
1, 667998, Note_on_c, 0, 67, 51
1, 668000, Note_off_c, 0, 77, 71
1, 668001, Note_off_c, 0, 65, 69
1, 668007, Control_c, 0, 64, 88
1, 668020, Note_off_c, 0, 67, 62
1, 668022, Control_c, 0, 64, 57
1, 668037, Control_c, 0, 64, 0
1, 668066, Control_c, 0, 64, 58
1, 668071, Note_on_c, 0, 48, 71
1, 668074, Note_on_c, 0, 75, 97
1, 668077, Note_on_c, 0, 81, 93
1, 668081, Control_c, 0, 64, 94
1, 668084, Note_on_c, 0, 85, 78
1, 668084, Note_off_c, 0, 85, 127
1, 668091, Note_off_c, 0, 75, 67
1, 668096, Note_off_c, 0, 48, 67
1, 668096, Control_c, 0, 64, 127
1, 668097, Note_off_c, 0, 81, 63
1, 668099, Note_on_c, 0, 86, 55
1, 668101, Note_on_c, 0, 55, 36
1, 668121, Note_off_c, 0, 86, 61
1, 668132, Note_off_c, 0, 55, 50
1, 668153, Note_on_c, 0, 53, 61
1, 668157, Note_on_c, 0, 63, 91
1, 668176, Note_off_c, 0, 63, 73
1, 668212, Note_off_c, 0, 53, 62
1, 668278, Note_on_c, 0, 81, 93
1, 668278, Note_on_c, 0, 69, 89
1, 668280, Note_on_c, 0, 41, 71
1, 668302, Note_off_c, 0, 41, 62
1, 668309, Note_off_c, 0, 69, 60
1, 668329, Note_off_c, 0, 81, 63
1, 668361, Note_on_c, 0, 57, 80
1, 668364, Note_on_c, 0, 53, 72
1, 668382, Note_on_c, 0, 51, 69
1, 668403, Note_off_c, 0, 57, 59
1, 668425, Note_off_c, 0, 53, 61
1, 668430, Control_c, 0, 64, 77
1, 668432, Note_off_c, 0, 51, 60
1, 668445, Control_c, 0, 64, 43
1, 668459, Control_c, 0, 64, 0
1, 668472, Note_on_c, 0, 46, 85
1, 668472, Note_on_c, 0, 77, 91
1, 668472, Note_on_c, 0, 86, 104
1, 668474, Control_c, 0, 64, 59
1, 668479, Note_on_c, 0, 74, 92
1, 668489, Control_c, 0, 64, 84
1, 668501, Note_off_c, 0, 46, 68
1, 668504, Control_c, 0, 64, 127
1, 668521, Note_off_c, 0, 86, 64
1, 668529, Note_off_c, 0, 74, 60
1, 668529, Note_off_c, 0, 77, 64
1, 668570, Note_on_c, 0, 62, 75
1, 668573, Note_on_c, 0, 53, 44
1, 668578, Poly_aftertouch_c, 0, 82, 0
1, 668581, Poly_aftertouch_c, 0, 76, 0
1, 668595, Note_off_c, 0, 62, 67
1, 668618, Note_off_c, 0, 53, 63
1, 668633, Poly_aftertouch_c, 0, 56, 127
1, 668672, Poly_aftertouch_c, 0, 56, 0
1, 668686, Note_on_c, 0, 82, 95
1, 668688, Note_on_c, 0, 70, 98
1, 668700, Note_off_c, 0, 82, 75
1, 668703, Note_off_c, 0, 70, 75
1, 668705, Note_on_c, 0, 75, 60
1, 668705, Note_off_c, 0, 75, 127
1, 668711, Note_on_c, 0, 43, 50
1, 668713, Note_on_c, 0, 41, 35
1, 668740, Note_off_c, 0, 43, 55
1, 668750, Note_off_c, 0, 41, 48
1, 668773, Note_on_c, 0, 56, 80
1, 668781, Note_on_c, 0, 65, 94
1, 668782, Note_on_c, 0, 77, 86
1, 668785, Poly_aftertouch_c, 0, 78, 0
1, 668800, Note_off_c, 0, 65, 71
1, 668801, Note_on_c, 0, 75, 56
1, 668814, Note_off_c, 0, 56, 59
1, 668824, Note_off_c, 0, 77, 61
1, 668825, Note_off_c, 0, 75, 59
1, 668882, Note_on_c, 0, 48, 67
1, 668917, Note_off_c, 0, 48, 61
1, 668919, Note_on_c, 0, 53, 70
1, 668933, Control_c, 0, 64, 88
1, 668948, Control_c, 0, 64, 62
1, 668961, Note_on_c, 0, 57, 68
1, 668963, Control_c, 0, 64, 0
1, 668987, Note_off_c, 0, 53, 62
1, 668993, Note_on_c, 0, 87, 101
1, 668993, Note_on_c, 0, 75, 104
1, 668993, Note_on_c, 0, 81, 94
1, 668996, Note_on_c, 0, 63, 104
1, 669013, Note_on_c, 0, 58, 63
1, 669019, Note_off_c, 0, 57, 64
1, 669022, Control_c, 0, 64, 69
1, 669024, Note_on_c, 0, 85, 50
1, 669029, Note_off_c, 0, 63, 69
1, 669033, Note_off_c, 0, 58, 40
1, 669037, Control_c, 0, 64, 127
1, 669053, Note_off_c, 0, 85, 35
1, 669054, Note_off_c, 0, 87, 67
1, 669068, Note_off_c, 0, 75, 63
1, 669083, Note_off_c, 0, 81, 63
1, 669637, Control_c, 0, 64, 106
1, 669652, Control_c, 0, 64, 75
1, 669667, Control_c, 0, 64, 50
1, 669682, Control_c, 0, 64, 0
1, 669724, Note_on_c, 0, 41, 48
1, 669727, Control_c, 0, 64, 37
1, 669730, Note_on_c, 0, 29, 43
1, 669742, Control_c, 0, 64, 60
1, 669757, Control_c, 0, 64, 73
1, 669762, Note_on_c, 0, 51, 26
1, 669765, Note_on_c, 0, 63, 28
1, 669768, Note_on_c, 0, 57, 41
1, 669771, Control_c, 0, 64, 94
1, 669786, Control_c, 0, 64, 127
1, 669791, Note_off_c, 0, 41, 0
1, 669804, Note_off_c, 0, 63, 52
1, 669804, Note_off_c, 0, 51, 50
1, 669818, Note_off_c, 0, 57, 46
1, 669828, Poly_aftertouch_c, 0, 41, 127
1, 669876, Poly_aftertouch_c, 0, 41, 0
1, 669911, Note_on_c, 0, 63, 50
1, 669916, Note_on_c, 0, 51, 42
1, 669929, Note_on_c, 0, 57, 32
1, 669944, Note_off_c, 0, 29, 40
1, 669959, Note_off_c, 0, 51, 51
1, 669962, Note_off_c, 0, 63, 56
1, 669969, Note_off_c, 0, 57, 51
1, 670007, Note_on_c, 0, 42, 86
1, 670017, Note_on_c, 0, 30, 67
1, 670017, Control_c, 0, 64, 117
1, 670031, Control_c, 0, 64, 81
1, 670046, Control_c, 0, 64, 64
1, 670061, Control_c, 0, 64, 49
1, 670076, Control_c, 0, 64, 59
1, 670087, Note_on_c, 0, 51, 88
1, 670090, Note_on_c, 0, 58, 80
1, 670091, Control_c, 0, 64, 69
1, 670096, Note_on_c, 0, 63, 76
1, 670099, Note_off_c, 0, 42, 62
1, 670102, Note_off_c, 0, 30, 61
1, 670105, Control_c, 0, 64, 90
1, 670120, Control_c, 0, 64, 127
1, 670144, Note_off_c, 0, 63, 50
1, 670168, Note_off_c, 0, 51, 57
1, 670181, Note_on_c, 0, 43, 100
1, 670185, Note_off_c, 0, 58, 61
1, 670198, Note_on_c, 0, 31, 59
1, 670228, Note_off_c, 0, 31, 55
1, 670232, Note_on_c, 0, 36, 54
1, 670237, Note_on_c, 0, 33, 22
1, 670249, Note_off_c, 0, 43, 60
1, 670257, Note_on_c, 0, 34, 30
1, 670257, Note_on_c, 0, 51, 101
1, 670259, Note_on_c, 0, 59, 90
1, 670270, Note_on_c, 0, 63, 78
1, 670279, Poly_aftertouch_c, 0, 32, 127
1, 670286, Note_off_c, 0, 33, 39
1, 670291, Note_off_c, 0, 36, 61
1, 670298, Note_off_c, 0, 34, 47
1, 670321, Poly_aftertouch_c, 0, 32, 0
1, 670327, Note_off_c, 0, 63, 60
1, 670332, Note_off_c, 0, 51, 59
1, 670349, Note_on_c, 0, 44, 103
1, 670357, Poly_aftertouch_c, 0, 60, 127
1, 670358, Note_on_c, 0, 32, 77
1, 670377, Note_on_c, 0, 42, 49
1, 670377, Note_off_c, 0, 42, 127
1, 670380, Note_off_c, 0, 59, 56
1, 670394, Poly_aftertouch_c, 0, 60, 0
1, 670418, Note_off_c, 0, 32, 62
1, 670418, Note_on_c, 0, 51, 101
1, 670422, Note_on_c, 0, 60, 66
1, 670428, Note_on_c, 0, 63, 83
1, 670430, Note_off_c, 0, 44, 60
1, 670439, Note_on_c, 0, 34, 3
1, 670472, Note_off_c, 0, 51, 62
1, 670477, Note_off_c, 0, 34, 51
1, 670498, Note_off_c, 0, 60, 63
1, 670519, Note_off_c, 0, 63, 60
1, 670558, Note_on_c, 0, 44, 69
1, 670564, Control_c, 0, 64, 92
1, 670569, Note_on_c, 0, 32, 56
1, 670579, Control_c, 0, 64, 65
1, 670594, Control_c, 0, 64, 0
1, 670647, Note_on_c, 0, 54, 59
1, 670648, Note_on_c, 0, 66, 57
1, 670664, Note_on_c, 0, 60, 35
1, 670667, Note_off_c, 0, 32, 54
1, 670673, Note_on_c, 0, 59, 34
1, 670675, Control_c, 0, 64, 46
1, 670687, Note_off_c, 0, 44, 61
1, 670690, Control_c, 0, 64, 65
1, 670704, Note_off_c, 0, 54, 51
1, 670707, Control_c, 0, 64, 81
1, 670707, Note_off_c, 0, 66, 52
1, 670713, Note_off_c, 0, 59, 52
1, 670719, Note_off_c, 0, 60, 60
1, 670721, Control_c, 0, 64, 127
1, 670782, Note_on_c, 0, 45, 58
1, 670787, Note_on_c, 0, 33, 47
1, 670810, Control_c, 0, 64, 84
1, 670825, Control_c, 0, 64, 64
1, 670837, Note_off_c, 0, 45, 63
1, 670840, Control_c, 0, 64, 0
1, 670844, Note_on_c, 0, 61, 62
1, 670845, Note_on_c, 0, 54, 58
1, 670847, Note_on_c, 0, 66, 49
1, 670855, Note_off_c, 0, 33, 46
1, 670869, Control_c, 0, 64, 49
1, 670884, Control_c, 0, 64, 66
1, 670891, Note_off_c, 0, 66, 54
1, 670892, Note_off_c, 0, 54, 56
1, 670898, Control_c, 0, 64, 82
1, 670913, Note_off_c, 0, 61, 52
1, 670913, Control_c, 0, 64, 127
1, 670942, Note_on_c, 0, 46, 66
1, 670949, Note_on_c, 0, 34, 49
1, 671011, Note_off_c, 0, 46, 61
1, 671023, Note_on_c, 0, 54, 63
1, 671026, Note_on_c, 0, 62, 63
1, 671029, Note_off_c, 0, 34, 59
1, 671046, Note_on_c, 0, 66, 31
1, 671057, Note_off_c, 0, 54, 61
1, 671073, Note_off_c, 0, 66, 50
1, 671100, Note_on_c, 0, 47, 75
1, 671105, Note_on_c, 0, 35, 67
1, 671108, Note_off_c, 0, 62, 54
1, 671166, Note_off_c, 0, 35, 52
1, 671167, Note_on_c, 0, 54, 76
1, 671171, Note_on_c, 0, 66, 63
1, 671172, Note_on_c, 0, 63, 75
1, 671183, Note_off_c, 0, 47, 60
1, 671190, Note_off_c, 0, 54, 69
1, 671241, Note_off_c, 0, 66, 61
1, 671244, Note_off_c, 0, 63, 60
1, 671254, Control_c, 0, 64, 76
1, 671268, Note_on_c, 0, 47, 76
1, 671269, Control_c, 0, 64, 57
1, 671277, Note_on_c, 0, 35, 66
1, 671284, Control_c, 0, 64, 0
1, 671298, Control_c, 0, 64, 35
1, 671310, Note_off_c, 0, 35, 63
1, 671313, Control_c, 0, 64, 54
1, 671328, Control_c, 0, 64, 66
1, 671330, Note_off_c, 0, 47, 59
1, 671343, Control_c, 0, 64, 78
1, 671345, Note_on_c, 0, 57, 71
1, 671346, Note_on_c, 0, 63, 72
1, 671354, Note_on_c, 0, 69, 58
1, 671358, Control_c, 0, 64, 104
1, 671377, Note_off_c, 0, 57, 57
1, 671380, Control_c, 0, 64, 127
1, 671387, Note_off_c, 0, 69, 52
1, 671404, Note_off_c, 0, 63, 46
1, 671425, Note_on_c, 0, 48, 81
1, 671435, Note_on_c, 0, 36, 62
1, 671462, Note_off_c, 0, 36, 58
1, 671480, Note_on_c, 0, 41, 40
1, 671485, Note_off_c, 0, 48, 61
1, 671506, Note_on_c, 0, 57, 89
1, 671508, Note_on_c, 0, 64, 81
1, 671517, Note_on_c, 0, 69, 62
1, 671529, Control_c, 0, 64, 86
1, 671530, Note_off_c, 0, 41, 51
1, 671544, Control_c, 0, 64, 65
1, 671549, Note_off_c, 0, 69, 53
1, 671559, Control_c, 0, 64, 0
1, 671560, Note_off_c, 0, 57, 60
1, 671572, Note_on_c, 0, 49, 99
1, 671584, Note_off_c, 0, 64, 60
1, 671586, Note_on_c, 0, 37, 69
1, 671589, Control_c, 0, 64, 50
1, 671603, Control_c, 0, 64, 65
1, 671618, Control_c, 0, 64, 78
1, 671620, Note_off_c, 0, 37, 65
1, 671626, Note_off_c, 0, 49, 65
1, 671633, Control_c, 0, 64, 104
1, 671648, Control_c, 0, 64, 127
1, 671652, Note_on_c, 0, 65, 92
1, 671654, Note_on_c, 0, 57, 97
1, 671660, Note_on_c, 0, 69, 73
1, 671710, Note_off_c, 0, 57, 62
1, 671714, Note_off_c, 0, 69, 60
1, 671720, Note_on_c, 0, 50, 99
1, 671732, Note_on_c, 0, 38, 87
1, 671743, Note_off_c, 0, 65, 63
1, 671771, Note_on_c, 0, 44, 15
1, 671772, Note_off_c, 0, 38, 57
1, 671786, Note_off_c, 0, 50, 61
1, 671798, Note_on_c, 0, 57, 106
1, 671800, Note_on_c, 0, 66, 88
1, 671807, Note_on_c, 0, 69, 80
1, 671825, Note_off_c, 0, 44, 50
1, 671828, Poly_aftertouch_c, 0, 39, 0
1, 671843, Note_off_c, 0, 57, 61
1, 671860, Note_off_c, 0, 69, 60
1, 671868, Note_off_c, 0, 66, 62
1, 671870, Control_c, 0, 64, 91
1, 671874, Note_on_c, 0, 50, 109
1, 671885, Control_c, 0, 64, 64
1, 671885, Note_on_c, 0, 38, 81
1, 671900, Control_c, 0, 64, 0
1, 671912, Note_off_c, 0, 38, 64
1, 671920, Note_on_c, 0, 43, 34
1, 671934, Note_off_c, 0, 50, 57
1, 671945, Control_c, 0, 64, 57
1, 671946, Note_on_c, 0, 60, 96
1, 671947, Note_on_c, 0, 66, 89
1, 671950, Note_on_c, 0, 72, 91
1, 671959, Control_c, 0, 64, 80
1, 671971, Note_off_c, 0, 43, 61
1, 671974, Control_c, 0, 64, 127
1, 671998, Note_off_c, 0, 60, 62
1, 672008, Note_off_c, 0, 72, 60
1, 672016, Note_on_c, 0, 68, 12
1, 672020, Note_on_c, 0, 51, 106
1, 672030, Note_on_c, 0, 39, 80
1, 672032, Note_off_c, 0, 66, 58
1, 672034, Control_c, 0, 64, 103
1, 672048, Control_c, 0, 64, 68
1, 672051, Note_off_c, 0, 68, 38
1, 672063, Control_c, 0, 64, 0
1, 672067, Note_off_c, 0, 51, 66
1, 672084, Note_off_c, 0, 39, 64
1, 672093, Control_c, 0, 64, 43
1, 672100, Note_on_c, 0, 67, 89
1, 672103, Note_on_c, 0, 60, 95
1, 672107, Note_on_c, 0, 72, 90
1, 672108, Control_c, 0, 64, 65
1, 672129, Control_c, 0, 64, 86
1, 672144, Control_c, 0, 64, 127
1, 672164, Note_off_c, 0, 60, 62
1, 672172, Note_on_c, 0, 52, 102
1, 672174, Note_off_c, 0, 72, 63
1, 672182, Note_on_c, 0, 40, 90
1, 672186, Note_off_c, 0, 67, 61
1, 672199, Note_on_c, 0, 46, 55
1, 672201, Note_on_c, 0, 42, 49
1, 672208, Note_off_c, 0, 40, 62
1, 672219, Note_on_c, 0, 44, 28
1, 672235, Note_off_c, 0, 42, 52
1, 672235, Note_off_c, 0, 52, 63
1, 672237, Note_off_c, 0, 46, 50
1, 672254, Note_on_c, 0, 68, 96
1, 672255, Note_on_c, 0, 60, 101
1, 672259, Note_on_c, 0, 72, 85
1, 672259, Note_off_c, 0, 44, 50
1, 672301, Note_off_c, 0, 60, 60
1, 672307, Note_off_c, 0, 72, 56
1, 672311, Note_off_c, 0, 68, 60
1, 672378, Note_on_c, 0, 53, 70
1, 672383, Control_c, 0, 64, 111
1, 672387, Note_on_c, 0, 41, 53
1, 672398, Control_c, 0, 64, 73
1, 672403, Note_on_c, 0, 69, 59
1, 672404, Note_on_c, 0, 60, 71
1, 672411, Note_on_c, 0, 72, 66
1, 672413, Control_c, 0, 64, 50
1, 672421, Note_off_c, 0, 60, 69
1, 672427, Control_c, 0, 64, 0
1, 672428, Note_off_c, 0, 41, 49
1, 672436, Note_off_c, 0, 72, 61
1, 672442, Note_off_c, 0, 53, 57
1, 672452, Note_off_c, 0, 69, 61
1, 672560, Note_on_c, 0, 41, 38
1, 672570, Note_on_c, 0, 63, 57
1, 672571, Note_on_c, 0, 53, 48
1, 672571, Note_on_c, 0, 75, 55
1, 672575, Note_on_c, 0, 69, 56
1, 672593, Note_off_c, 0, 63, 62
1, 672593, Note_off_c, 0, 41, 46
1, 672596, Note_off_c, 0, 75, 61
1, 672599, Note_off_c, 0, 53, 56
1, 672607, Note_off_c, 0, 69, 62
1, 672705, Note_on_c, 0, 54, 60
1, 672711, Note_on_c, 0, 70, 63
1, 672711, Note_on_c, 0, 75, 46
1, 672712, Note_on_c, 0, 63, 54
1, 672730, Note_on_c, 0, 42, 22
1, 672736, Note_off_c, 0, 54, 65
1, 672737, Note_off_c, 0, 63, 60
1, 672742, Note_off_c, 0, 75, 56
1, 672743, Note_off_c, 0, 70, 61
1, 672770, Note_off_c, 0, 42, 41
1, 672826, Note_on_c, 0, 63, 61
1, 672839, Note_on_c, 0, 55, 48
1, 672839, Note_on_c, 0, 75, 44
1, 672848, Note_on_c, 0, 71, 43
1, 672857, Note_off_c, 0, 63, 65
1, 672870, Note_off_c, 0, 55, 58
1, 672872, Note_off_c, 0, 75, 61
1, 672882, Note_off_c, 0, 71, 51
1, 672949, Note_on_c, 0, 56, 63
1, 672961, Note_on_c, 0, 72, 60
1, 672963, Note_on_c, 0, 78, 60
1, 672964, Note_on_c, 0, 66, 54
1, 672969, Note_off_c, 0, 56, 63
1, 672973, Note_on_c, 0, 44, 28
1, 672982, Note_off_c, 0, 78, 63
1, 672985, Note_off_c, 0, 66, 61
1, 672985, Note_off_c, 0, 72, 65
1, 673018, Note_off_c, 0, 44, 29
1, 673059, Note_on_c, 0, 66, 66
1, 673065, Note_on_c, 0, 73, 71
1, 673068, Note_on_c, 0, 57, 63
1, 673069, Note_on_c, 0, 78, 52
1, 673087, Note_off_c, 0, 66, 65
1, 673092, Note_off_c, 0, 57, 64
1, 673095, Note_off_c, 0, 78, 60
1, 673095, Note_off_c, 0, 73, 64
1, 673170, Note_on_c, 0, 58, 67
1, 673172, Note_on_c, 0, 66, 62
1, 673173, Note_on_c, 0, 78, 62
1, 673173, Note_on_c, 0, 74, 64
1, 673188, Note_on_c, 0, 46, 40
1, 673190, Note_off_c, 0, 66, 63
1, 673193, Note_off_c, 0, 74, 66
1, 673193, Note_off_c, 0, 78, 66
1, 673198, Note_off_c, 0, 58, 66
1, 673220, Note_off_c, 0, 46, 53
1, 673274, Note_on_c, 0, 59, 64
1, 673276, Note_on_c, 0, 75, 69
1, 673283, Note_on_c, 0, 69, 66
1, 673283, Note_on_c, 0, 47, 50
1, 673289, Note_on_c, 0, 81, 58
1, 673300, Note_off_c, 0, 59, 64
1, 673301, Note_off_c, 0, 69, 65
1, 673301, Note_off_c, 0, 75, 67
1, 673309, Note_off_c, 0, 81, 62
1, 673311, Note_off_c, 0, 47, 54
1, 673379, Note_on_c, 0, 69, 69
1, 673381, Note_on_c, 0, 60, 73
1, 673381, Note_on_c, 0, 76, 70
1, 673386, Note_on_c, 0, 81, 56
1, 673398, Note_on_c, 0, 48, 47
1, 673403, Note_off_c, 0, 69, 69
1, 673407, Note_off_c, 0, 60, 69
1, 673407, Note_off_c, 0, 76, 66
1, 673408, Note_off_c, 0, 81, 60
1, 673427, Note_off_c, 0, 48, 55
1, 673482, Note_on_c, 0, 81, 71
1, 673483, Note_on_c, 0, 61, 73
1, 673483, Note_on_c, 0, 77, 68
1, 673486, Note_on_c, 0, 69, 65
1, 673497, Note_on_c, 0, 49, 52
1, 673504, Note_off_c, 0, 69, 66
1, 673504, Note_off_c, 0, 81, 59
1, 673505, Note_off_c, 0, 77, 70
1, 673507, Note_off_c, 0, 61, 67
1, 673524, Note_off_c, 0, 49, 59
1, 673587, Note_on_c, 0, 62, 74
1, 673593, Note_on_c, 0, 72, 78
1, 673594, Note_on_c, 0, 78, 73
1, 673599, Note_on_c, 0, 84, 67
1, 673600, Note_on_c, 0, 50, 46
1, 673620, Note_off_c, 0, 62, 67
1, 673623, Note_off_c, 0, 72, 69
1, 673623, Note_off_c, 0, 84, 64
1, 673624, Note_off_c, 0, 78, 67
1, 673636, Note_off_c, 0, 50, 52
1, 673694, Note_on_c, 0, 63, 77
1, 673694, Note_on_c, 0, 84, 81
1, 673702, Note_on_c, 0, 79, 80
1, 673705, Note_on_c, 0, 72, 74
1, 673706, Note_on_c, 0, 51, 58
1, 673718, Note_off_c, 0, 63, 69
1, 673724, Note_off_c, 0, 72, 63
1, 673736, Note_off_c, 0, 79, 64
1, 673746, Note_off_c, 0, 51, 63
1, 673754, Note_off_c, 0, 84, 62
1, 673824, Note_on_c, 0, 64, 62
1, 673832, Note_on_c, 0, 52, 45
1, 673840, Note_on_c, 0, 80, 69
1, 673845, Note_on_c, 0, 72, 57
1, 673846, Note_off_c, 0, 64, 61
1, 673849, Control_c, 0, 64, 35
1, 673861, Note_off_c, 0, 52, 52
1, 673863, Note_on_c, 0, 84, 41
1, 673864, Control_c, 0, 64, 64
1, 673864, Note_off_c, 0, 80, 68
1, 673866, Note_off_c, 0, 72, 60
1, 673879, Control_c, 0, 64, 72
1, 673893, Note_off_c, 0, 84, 48
1, 673894, Control_c, 0, 64, 77
1, 673909, Control_c, 0, 64, 79
1, 673924, Control_c, 0, 64, 80
1, 673941, Note_on_c, 0, 65, 73
1, 673949, Note_on_c, 0, 87, 77
1, 673953, Note_on_c, 0, 75, 66
1, 673954, Note_on_c, 0, 53, 51
1, 673957, Note_on_c, 0, 82, 52
1, 673968, Note_off_c, 0, 65, 69
1, 673971, Note_off_c, 0, 75, 66
1, 673971, Note_off_c, 0, 87, 66
1, 673983, Note_off_c, 0, 53, 53
1, 673983, Note_off_c, 0, 82, 40
1, 673983, Control_c, 0, 64, 74
1, 673998, Control_c, 0, 64, 63
1, 674013, Control_c, 0, 64, 0
1, 674031, Note_on_c, 0, 66, 68
1, 674033, Note_on_c, 0, 75, 75
1, 674033, Note_on_c, 0, 87, 73
1, 674037, Note_on_c, 0, 82, 79
1, 674039, Note_on_c, 0, 54, 48
1, 674056, Note_off_c, 0, 66, 68
1, 674057, Note_off_c, 0, 75, 68
1, 674058, Note_off_c, 0, 82, 69
1, 674064, Note_off_c, 0, 54, 58
1, 674064, Note_off_c, 0, 87, 61
1, 674087, Control_c, 0, 64, 61
1, 674102, Control_c, 0, 64, 80
1, 674115, Note_on_c, 0, 75, 73
1, 674116, Control_c, 0, 64, 127
1, 674117, Note_on_c, 0, 67, 77
1, 674128, Note_on_c, 0, 55, 57
1, 674134, Note_on_c, 0, 83, 50
1, 674137, Note_off_c, 0, 67, 71
1, 674139, Note_off_c, 0, 75, 68
1, 674143, Note_on_c, 0, 84, 44
1, 674143, Note_on_c, 0, 85, 29
1, 674143, Note_on_c, 0, 87, 29
1, 674150, Note_off_c, 0, 55, 60
1, 674158, Note_off_c, 0, 83, 59
1, 674171, Note_off_c, 0, 84, 51
1, 674180, Note_off_c, 0, 85, 49
1, 674184, Note_off_c, 0, 87, 0
1, 674196, Note_on_c, 0, 75, 80
1, 674198, Note_on_c, 0, 87, 53
1, 674208, Note_on_c, 0, 68, 84
1, 674212, Note_on_c, 0, 56, 69
1, 674217, Note_off_c, 0, 75, 71
1, 674228, Note_on_c, 0, 84, 31
1, 674228, Note_off_c, 0, 68, 71
1, 674239, Note_off_c, 0, 87, 65
1, 674242, Note_off_c, 0, 56, 58
1, 674264, Note_off_c, 0, 84, 52
1, 674299, Note_on_c, 0, 78, 78
1, 674299, Note_on_c, 0, 90, 81
1, 674302, Note_on_c, 0, 68, 84
1, 674305, Note_on_c, 0, 84, 62
1, 674306, Note_on_c, 0, 56, 77
1, 674317, Note_off_c, 0, 90, 71
1, 674318, Note_off_c, 0, 78, 71
1, 674326, Note_off_c, 0, 68, 67
1, 674329, Note_off_c, 0, 56, 68
1, 674330, Note_off_c, 0, 84, 66
1, 674338, Control_c, 0, 64, 90
1, 674353, Control_c, 0, 64, 55
1, 674375, Control_c, 0, 64, 0
1, 674392, Note_on_c, 0, 69, 76
1, 674395, Note_on_c, 0, 85, 80
1, 674396, Note_on_c, 0, 78, 70
1, 674398, Note_on_c, 0, 90, 70
1, 674404, Note_on_c, 0, 57, 48
1, 674404, Control_c, 0, 64, 57
1, 674413, Note_off_c, 0, 78, 68
1, 674415, Note_off_c, 0, 69, 67
1, 674416, Note_off_c, 0, 85, 71
1, 674416, Note_off_c, 0, 90, 68
1, 674419, Control_c, 0, 64, 75
1, 674431, Note_off_c, 0, 57, 56
1, 674434, Control_c, 0, 64, 127
1, 674472, Note_on_c, 0, 78, 87
1, 674475, Note_on_c, 0, 86, 83
1, 674476, Note_on_c, 0, 90, 77
1, 674479, Note_on_c, 0, 70, 77
1, 674491, Note_on_c, 0, 58, 57
1, 674492, Note_off_c, 0, 78, 70
1, 674501, Note_off_c, 0, 90, 65
1, 674502, Note_off_c, 0, 70, 70
1, 674507, Note_off_c, 0, 86, 60
1, 674513, Note_off_c, 0, 58, 61
1, 674562, Note_on_c, 0, 78, 88
1, 674565, Note_on_c, 0, 90, 78
1, 674566, Note_on_c, 0, 71, 78
1, 674569, Note_on_c, 0, 59, 68
1, 674573, Note_on_c, 0, 87, 69
1, 674580, Note_off_c, 0, 78, 74
1, 674589, Note_off_c, 0, 71, 66
1, 674592, Note_off_c, 0, 90, 61
1, 674595, Note_off_c, 0, 59, 68
1, 674598, Note_off_c, 0, 87, 67
1, 674651, Note_on_c, 0, 87, 93
1, 674654, Note_on_c, 0, 81, 96
1, 674670, Note_on_c, 0, 60, 73
1, 674670, Note_on_c, 0, 93, 59
1, 674672, Note_off_c, 0, 81, 68
1, 674684, Note_on_c, 0, 72, 49
1, 674690, Note_off_c, 0, 60, 67
1, 674691, Note_on_c, 0, 71, 48
1, 674691, Note_off_c, 0, 93, 62
1, 674696, Note_off_c, 0, 87, 61
1, 674709, Note_off_c, 0, 72, 58
1, 674711, Note_off_c, 0, 71, 63
1, 674717, Control_c, 0, 64, 85
1, 674732, Control_c, 0, 64, 63
1, 674744, Note_on_c, 0, 81, 90
1, 674746, Control_c, 0, 64, 34
1, 674749, Note_on_c, 0, 93, 82
1, 674750, Note_on_c, 0, 88, 72
1, 674753, Note_on_c, 0, 89, 77
1, 674761, Control_c, 0, 64, 56
1, 674761, Note_off_c, 0, 81, 72
1, 674763, Note_off_c, 0, 93, 70
1, 674764, Note_on_c, 0, 60, 55
1, 674766, Note_on_c, 0, 72, 69
1, 674775, Note_off_c, 0, 88, 69
1, 674775, Note_off_c, 0, 89, 71
1, 674776, Control_c, 0, 64, 70
1, 674785, Note_off_c, 0, 72, 67
1, 674791, Control_c, 0, 64, 90
1, 674797, Note_off_c, 0, 60, 50
1, 674806, Control_c, 0, 64, 127
1, 674830, Note_on_c, 0, 81, 101
1, 674831, Note_on_c, 0, 93, 78
1, 674832, Note_on_c, 0, 89, 94
1, 674834, Note_on_c, 0, 73, 85
1, 674835, Poly_aftertouch_c, 0, 62, 127
1, 674839, Note_on_c, 0, 61, 65
1, 674854, Note_off_c, 0, 73, 71
1, 674856, Note_off_c, 0, 93, 68
1, 674857, Note_off_c, 0, 81, 57
1, 674868, Note_off_c, 0, 61, 64
1, 674868, Poly_aftertouch_c, 0, 66, 0
1, 674873, Poly_aftertouch_c, 0, 62, 0
1, 674876, Note_off_c, 0, 89, 64
1, 674919, Note_on_c, 0, 81, 100
1, 674925, Note_on_c, 0, 90, 86
1, 674925, Note_on_c, 0, 93, 86
1, 674926, Note_on_c, 0, 74, 87
1, 674937, Note_on_c, 0, 62, 71
1, 674938, Control_c, 0, 64, 89
1, 674952, Note_off_c, 0, 74, 59
1, 674953, Note_off_c, 0, 81, 54
1, 674953, Control_c, 0, 64, 63
1, 674955, Note_off_c, 0, 62, 66
1, 674955, Note_off_c, 0, 93, 60
1, 674961, Note_on_c, 0, 72, 43
1, 674961, Note_off_c, 0, 72, 127
1, 674963, Note_off_c, 0, 90, 61
1, 674968, Control_c, 0, 64, 60
1, 674983, Control_c, 0, 64, 71
1, 674998, Control_c, 0, 64, 93
1, 675012, Control_c, 0, 64, 127
1, 675019, Note_on_c, 0, 84, 104
1, 675021, Note_on_c, 0, 90, 95
1, 675023, Note_on_c, 0, 96, 92
1, 675025, Note_on_c, 0, 74, 96
1, 675032, Note_on_c, 0, 62, 52
1, 675042, Note_on_c, 0, 64, 55
1, 675042, Note_off_c, 0, 84, 58
1, 675045, Note_on_c, 0, 68, 59
1, 675046, Note_off_c, 0, 96, 61
1, 675048, Note_on_c, 0, 94, 43
1, 675051, Note_off_c, 0, 62, 65
1, 675053, Note_on_c, 0, 92, 37
1, 675053, Note_off_c, 0, 92, 127
1, 675056, Note_off_c, 0, 74, 60
1, 675063, Note_off_c, 0, 64, 62
1, 675063, Note_off_c, 0, 90, 63
1, 675067, Note_off_c, 0, 68, 58
1, 675076, Note_off_c, 0, 94, 56
1, 675122, Note_on_c, 0, 91, 101
1, 675124, Note_on_c, 0, 75, 94
1, 675124, Note_on_c, 0, 84, 109
1, 675124, Note_on_c, 0, 96, 98
1, 675135, Note_on_c, 0, 63, 71
1, 675157, Note_off_c, 0, 84, 57
1, 675162, Note_off_c, 0, 63, 68
1, 675164, Note_off_c, 0, 91, 64
1, 675164, Note_off_c, 0, 96, 65
1, 675165, Poly_aftertouch_c, 0, 67, 0
1, 675167, Note_off_c, 0, 75, 60
1, 675218, Note_on_c, 0, 76, 98
1, 675221, Note_on_c, 0, 84, 104
1, 675222, Note_on_c, 0, 92, 93
1, 675223, Note_on_c, 0, 96, 95
1, 675224, Note_on_c, 0, 64, 70
1, 675244, Note_on_c, 0, 94, 40
1, 675249, Note_off_c, 0, 64, 65
1, 675265, Note_off_c, 0, 76, 61
1, 675265, Note_off_c, 0, 84, 60
1, 675270, Note_off_c, 0, 92, 62
1, 675270, Note_off_c, 0, 94, 51
1, 675270, Note_off_c, 0, 96, 64
1, 675331, Control_c, 0, 64, 85
1, 675333, Note_on_c, 0, 65, 70
1, 675333, Note_on_c, 0, 93, 80
1, 675335, Note_on_c, 0, 77, 92
1, 675336, Note_on_c, 0, 84, 102
1, 675337, Note_on_c, 0, 96, 92
1, 675346, Control_c, 0, 64, 57
1, 675361, Control_c, 0, 64, 42
1, 675364, Note_on_c, 0, 86, 53
1, 675364, Note_off_c, 0, 86, 127
1, 675370, Note_off_c, 0, 84, 58
1, 675373, Note_off_c, 0, 65, 61
1, 675376, Control_c, 0, 64, 61
1, 675381, Note_off_c, 0, 77, 63
1, 675382, Note_off_c, 0, 96, 65
1, 675384, Note_off_c, 0, 93, 66
1, 675389, Note_on_c, 0, 71, 27
1, 675390, Control_c, 0, 64, 73
1, 675405, Control_c, 0, 64, 101
1, 675420, Control_c, 0, 64, 127
1, 675429, Note_off_c, 0, 71, 40
1, 675443, Note_on_c, 0, 69, 76
1, 675443, Note_on_c, 0, 77, 86
1, 675455, Note_on_c, 0, 92, 68
1, 675455, Note_off_c, 0, 92, 127
1, 675462, Note_on_c, 0, 99, 79
1, 675465, Note_on_c, 0, 87, 76
1, 675468, Note_on_c, 0, 93, 72
1, 675472, Note_off_c, 0, 77, 61
1, 675481, Note_off_c, 0, 87, 68
1, 675484, Note_off_c, 0, 99, 67
1, 675486, Note_off_c, 0, 69, 59
1, 675486, Note_off_c, 0, 93, 68
1, 675539, Note_on_c, 0, 77, 79
1, 675542, Note_on_c, 0, 66, 72
1, 675545, Note_on_c, 0, 87, 91
1, 675548, Note_on_c, 0, 94, 87
1, 675549, Note_on_c, 0, 99, 80
1, 675553, Note_on_c, 0, 70, 62
1, 675557, Note_off_c, 0, 77, 70
1, 675561, Note_off_c, 0, 87, 72
1, 675566, Note_off_c, 0, 94, 71
1, 675571, Note_off_c, 0, 66, 63
1, 675572, Note_off_c, 0, 99, 68
1, 675581, Note_off_c, 0, 70, 66
1, 675626, Note_on_c, 0, 87, 95
1, 675628, Note_on_c, 0, 77, 81
1, 675631, Note_on_c, 0, 95, 87
1, 675632, Note_on_c, 0, 99, 76
1, 675635, Note_on_c, 0, 67, 59
1, 675636, Note_on_c, 0, 71, 72
1, 675647, Note_on_c, 0, 94, 30
1, 675647, Note_off_c, 0, 94, 127
1, 675647, Note_off_c, 0, 87, 63
1, 675648, Note_off_c, 0, 77, 65
1, 675656, Note_off_c, 0, 67, 62
1, 675656, Note_off_c, 0, 99, 69
1, 675660, Note_off_c, 0, 95, 62
1, 675663, Note_off_c, 0, 71, 68
1, 675709, Note_on_c, 0, 99, 88
1, 675712, Note_on_c, 0, 87, 101
1, 675715, Note_on_c, 0, 96, 89
1, 675715, Note_on_c, 0, 77, 84
1, 675718, Note_on_c, 0, 72, 78
1, 675724, Note_on_c, 0, 68, 71
1, 675738, Note_off_c, 0, 77, 62
1, 675743, Note_off_c, 0, 87, 58
1, 675745, Note_off_c, 0, 96, 61
1, 675750, Note_off_c, 0, 68, 68
1, 675754, Note_off_c, 0, 99, 62
1, 675758, Note_off_c, 0, 72, 59
1, 675796, Note_on_c, 0, 99, 80
1, 675798, Note_on_c, 0, 87, 97
1, 675800, Note_on_c, 0, 72, 61
1, 675801, Note_on_c, 0, 96, 85
1, 675802, Note_on_c, 0, 68, 74
1, 675802, Note_on_c, 0, 77, 78
1, 675826, Note_off_c, 0, 87, 60
1, 675834, Note_off_c, 0, 96, 60
1, 675838, Note_off_c, 0, 77, 60
1, 675841, Note_off_c, 0, 68, 50
1, 675844, Note_off_c, 0, 72, 62
1, 675844, Note_off_c, 0, 99, 63
1, 675891, Note_on_c, 0, 99, 71
1, 675894, Note_on_c, 0, 71, 79
1, 675894, Note_on_c, 0, 87, 94
1, 675896, Note_on_c, 0, 95, 88
1, 675905, Note_on_c, 0, 77, 60
1, 675913, Note_off_c, 0, 87, 64
1, 675920, Note_off_c, 0, 77, 70
1, 675921, Note_on_c, 0, 97, 37
1, 675926, Note_off_c, 0, 95, 61
1, 675936, Note_off_c, 0, 71, 62
1, 675939, Note_off_c, 0, 99, 61
1, 675948, Note_on_c, 0, 67, 6
1, 675953, Note_off_c, 0, 97, 55
1, 675978, Note_on_c, 0, 99, 84
1, 675981, Note_on_c, 0, 87, 98
1, 675984, Note_on_c, 0, 77, 76
1, 675987, Note_on_c, 0, 94, 84
1, 675993, Note_on_c, 0, 70, 76
1, 676000, Note_off_c, 0, 87, 65
1, 676002, Note_on_c, 0, 66, 59
1, 676004, Note_off_c, 0, 67, 36
1, 676004, Note_off_c, 0, 77, 70
1, 676006, Control_c, 0, 64, 75
1, 676007, Note_off_c, 0, 94, 68
1, 676020, Control_c, 0, 64, 50
1, 676022, Note_off_c, 0, 66, 60
1, 676024, Note_off_c, 0, 99, 64
1, 676027, Note_off_c, 0, 70, 56
1, 676035, Control_c, 0, 64, 49
1, 676050, Control_c, 0, 64, 68
1, 676065, Control_c, 0, 64, 84
1, 676067, Note_on_c, 0, 99, 78
1, 676070, Note_on_c, 0, 77, 85
1, 676072, Note_on_c, 0, 87, 89
1, 676073, Note_on_c, 0, 93, 88
1, 676079, Note_on_c, 0, 69, 70
1, 676080, Control_c, 0, 64, 127
1, 676082, Note_on_c, 0, 65, 58
1, 676089, Note_off_c, 0, 87, 69
1, 676093, Note_off_c, 0, 77, 64
1, 676102, Note_off_c, 0, 65, 64
1, 676106, Note_off_c, 0, 69, 65
1, 676108, Note_off_c, 0, 93, 61
1, 676113, Note_off_c, 0, 99, 59
1, 676156, Note_on_c, 0, 99, 80
1, 676157, Note_on_c, 0, 87, 96
1, 676157, Note_on_c, 0, 93, 80
1, 676158, Note_on_c, 0, 69, 76
1, 676158, Note_on_c, 0, 77, 89
1, 676177, Note_on_c, 0, 65, 55
1, 676177, Note_off_c, 0, 87, 67
1, 676179, Note_off_c, 0, 77, 66
1, 676185, Note_off_c, 0, 93, 65
1, 676187, Note_off_c, 0, 69, 66
1, 676194, Note_off_c, 0, 65, 67
1, 676194, Note_off_c, 0, 99, 60
1, 676246, Note_on_c, 0, 77, 89
1, 676247, Note_on_c, 0, 94, 92
1, 676247, Note_on_c, 0, 99, 82
1, 676249, Note_on_c, 0, 87, 94
1, 676250, Note_on_c, 0, 70, 79
1, 676255, Note_on_c, 0, 66, 65
1, 676262, Note_off_c, 0, 77, 72
1, 676268, Note_off_c, 0, 87, 69
1, 676272, Note_off_c, 0, 66, 67
1, 676273, Note_off_c, 0, 70, 67
1, 676284, Note_off_c, 0, 99, 53
1, 676288, Note_off_c, 0, 94, 62
1, 676332, Note_on_c, 0, 77, 86
1, 676335, Note_on_c, 0, 87, 93
1, 676335, Note_on_c, 0, 67, 70
1, 676335, Note_on_c, 0, 99, 80
1, 676336, Note_on_c, 0, 71, 78
1, 676336, Note_on_c, 0, 95, 85
1, 676355, Note_off_c, 0, 77, 68
1, 676356, Note_off_c, 0, 67, 67
1, 676356, Note_off_c, 0, 87, 60
1, 676360, Note_off_c, 0, 99, 63
1, 676369, Note_off_c, 0, 95, 62
1, 676377, Note_off_c, 0, 71, 62
1, 676423, Note_on_c, 0, 87, 98
1, 676423, Note_on_c, 0, 99, 83
1, 676424, Note_on_c, 0, 72, 83
1, 676428, Note_on_c, 0, 77, 76
1, 676429, Note_on_c, 0, 96, 82
1, 676436, Note_on_c, 0, 68, 61
1, 676446, Note_off_c, 0, 77, 68
1, 676447, Note_off_c, 0, 87, 55
1, 676453, Note_off_c, 0, 96, 66
1, 676455, Note_off_c, 0, 99, 59
1, 676467, Note_off_c, 0, 68, 65
1, 676470, Note_off_c, 0, 72, 62
1, 676511, Note_on_c, 0, 87, 95
1, 676511, Note_on_c, 0, 99, 84
1, 676516, Note_on_c, 0, 68, 79
1, 676517, Note_on_c, 0, 96, 83
1, 676517, Note_on_c, 0, 72, 63
1, 676517, Note_on_c, 0, 77, 82
1, 676538, Note_off_c, 0, 87, 57
1, 676541, Note_off_c, 0, 96, 66
1, 676547, Note_off_c, 0, 99, 60
1, 676554, Note_off_c, 0, 77, 59
1, 676564, Note_off_c, 0, 68, 57
1, 676573, Note_off_c, 0, 72, 60
1, 676605, Note_on_c, 0, 95, 80
1, 676613, Note_on_c, 0, 87, 88
1, 676613, Note_on_c, 0, 99, 73
1, 676616, Note_on_c, 0, 71, 75
1, 676623, Note_on_c, 0, 77, 65
1, 676638, Note_off_c, 0, 87, 60
1, 676642, Note_off_c, 0, 77, 65
1, 676647, Note_off_c, 0, 99, 60
1, 676655, Note_off_c, 0, 95, 64
1, 676658, Note_off_c, 0, 71, 62
1, 676693, Note_on_c, 0, 99, 80
1, 676696, Note_on_c, 0, 87, 81
1, 676700, Note_on_c, 0, 77, 90
1, 676705, Note_on_c, 0, 94, 78
1, 676712, Note_on_c, 0, 66, 75
1, 676716, Note_off_c, 0, 87, 71
1, 676720, Note_on_c, 0, 70, 72
1, 676737, Note_off_c, 0, 66, 68
1, 676740, Note_off_c, 0, 94, 62
1, 676744, Note_off_c, 0, 77, 62
1, 676755, Control_c, 0, 64, 110
1, 676762, Note_off_c, 0, 70, 53
1, 676766, Note_off_c, 0, 99, 64
1, 676770, Control_c, 0, 64, 68
1, 676784, Control_c, 0, 64, 37
1, 676799, Control_c, 0, 64, 44
1, 676806, Note_on_c, 0, 77, 95
1, 676811, Note_on_c, 0, 93, 105
1, 676814, Control_c, 0, 64, 66
1, 676815, Note_on_c, 0, 99, 97
1, 676829, Control_c, 0, 64, 90
1, 676836, Note_on_c, 0, 69, 56
1, 676843, Control_c, 0, 64, 127
1, 676850, Note_off_c, 0, 93, 68
1, 676856, Poly_aftertouch_c, 0, 70, 127
1, 676857, Note_off_c, 0, 77, 56
1, 676873, Note_on_c, 0, 101, 72
1, 676887, Note_off_c, 0, 99, 64
1, 676897, Poly_aftertouch_c, 0, 70, 0
1, 676903, Note_off_c, 0, 69, 36
1, 676950, Note_off_c, 0, 101, 57
1, 676951, Note_on_c, 0, 98, 79
1, 676976, Note_off_c, 0, 98, 65
1, 676987, Note_on_c, 0, 65, 56
1, 676987, Note_on_c, 0, 101, 55
1, 676996, Note_on_c, 0, 69, 57
1, 677005, Note_on_c, 0, 77, 93
1, 677012, Note_off_c, 0, 65, 59
1, 677031, Note_on_c, 0, 99, 87
1, 677041, Note_off_c, 0, 69, 61
1, 677041, Note_off_c, 0, 101, 63
1, 677043, Note_on_c, 0, 93, 77
1, 677048, Note_off_c, 0, 77, 61
1, 677069, Note_off_c, 0, 93, 67
1, 677098, Note_on_c, 0, 101, 75
1, 677104, Note_off_c, 0, 99, 64
1, 677123, Note_on_c, 0, 66, 76
1, 677143, Note_on_c, 0, 70, 69
1, 677143, Note_on_c, 0, 99, 72
1, 677158, Note_on_c, 0, 93, 72
1, 677158, Note_off_c, 0, 101, 65
1, 677173, Note_off_c, 0, 93, 67
1, 677191, Note_off_c, 0, 66, 62
1, 677200, Note_on_c, 0, 101, 76
1, 677203, Note_on_c, 0, 78, 107
1, 677215, Note_off_c, 0, 99, 61
1, 677224, Note_off_c, 0, 70, 66
1, 677250, Note_on_c, 0, 72, 13
1, 677255, Note_on_c, 0, 94, 82
1, 677257, Note_on_c, 0, 99, 72
1, 677262, Note_off_c, 0, 78, 63
1, 677265, Note_off_c, 0, 101, 64
1, 677276, Note_off_c, 0, 94, 70
1, 677305, Note_on_c, 0, 95, 23
1, 677313, Note_on_c, 0, 101, 71
1, 677318, Note_off_c, 0, 99, 63
1, 677337, Note_on_c, 0, 67, 71
1, 677347, Note_off_c, 0, 95, 53
1, 677370, Note_off_c, 0, 72, 38
1, 677371, Note_on_c, 0, 71, 79
1, 677371, Note_off_c, 0, 67, 66
1, 677379, Note_on_c, 0, 95, 87
1, 677379, Note_on_c, 0, 99, 91
1, 677388, Note_on_c, 0, 79, 106
1, 677394, Note_off_c, 0, 101, 64
1, 677424, Note_off_c, 0, 71, 62
1, 677424, Note_off_c, 0, 95, 64
1, 677435, Note_off_c, 0, 79, 61
1, 677436, Note_on_c, 0, 101, 79
1, 677439, Note_off_c, 0, 99, 61
1, 677504, Control_c, 0, 64, 103
1, 677507, Note_on_c, 0, 99, 90
1, 677507, Note_off_c, 0, 101, 64
1, 677519, Control_c, 0, 64, 63
1, 677525, Note_on_c, 0, 68, 60
1, 677534, Control_c, 0, 64, 0
1, 677537, Note_on_c, 0, 72, 61
1, 677540, Note_on_c, 0, 101, 64
1, 677543, Note_off_c, 0, 68, 64
1, 677544, Note_off_c, 0, 99, 61
1, 677549, Control_c, 0, 64, 39
1, 677562, Note_on_c, 0, 80, 105
1, 677564, Control_c, 0, 64, 63
1, 677572, Note_on_c, 0, 103, 79
1, 677577, Note_off_c, 0, 72, 65
1, 677578, Control_c, 0, 64, 92
1, 677584, Note_on_c, 0, 96, 102
1, 677586, Note_on_c, 0, 99, 81
1, 677593, Control_c, 0, 64, 127
1, 677596, Note_off_c, 0, 103, 67
1, 677600, Note_off_c, 0, 80, 62
1, 677613, Note_off_c, 0, 101, 64
1, 677645, Note_off_c, 0, 96, 61
1, 677649, Note_off_c, 0, 99, 60
1, 677656, Note_on_c, 0, 101, 65
1, 677710, Note_on_c, 0, 99, 84
1, 677718, Note_off_c, 0, 101, 64
1, 677757, Note_on_c, 0, 101, 70
1, 677757, Note_off_c, 0, 99, 64
1, 677813, Note_on_c, 0, 99, 79
1, 677823, Note_on_c, 0, 69, 60
1, 677838, Note_off_c, 0, 101, 0
1, 677838, Note_on_c, 0, 101, 59
1, 677838, Note_on_c, 0, 72, 72
1, 677859, Note_off_c, 0, 99, 64
1, 677890, Control_c, 0, 64, 74
1, 677891, Note_off_c, 0, 69, 61
1, 677893, Note_on_c, 0, 77, 70
1, 677905, Control_c, 0, 64, 36
1, 677910, Note_on_c, 0, 96, 108
1, 677912, Note_on_c, 0, 99, 96
1, 677913, Note_on_c, 0, 81, 101
1, 677915, Note_off_c, 0, 72, 61
1, 677919, Note_on_c, 0, 98, 85
1, 677920, Control_c, 0, 64, 0
1, 677927, Note_on_c, 0, 103, 59
1, 677933, Note_off_c, 0, 77, 66
1, 677935, Control_c, 0, 64, 49
1, 677936, Note_off_c, 0, 98, 63
1, 677936, Note_off_c, 0, 81, 69
1, 677947, Note_off_c, 0, 103, 62
1, 677950, Control_c, 0, 64, 63
1, 677951, Note_off_c, 0, 101, 64
1, 677964, Control_c, 0, 64, 80
1, 677969, Note_off_c, 0, 96, 66
1, 677979, Control_c, 0, 64, 127
1, 677987, Note_off_c, 0, 99, 65
1, 678063, Note_on_c, 0, 99, 98
1, 678096, Note_off_c, 0, 99, 58
1, 678139, Note_on_c, 0, 101, 92
1, 678145, Note_on_c, 0, 100, 81
1, 678159, Note_off_c, 0, 101, 68
1, 678162, Note_off_c, 0, 100, 73
1, 678198, Note_on_c, 0, 99, 105
1, 678240, Note_off_c, 0, 99, 64
1, 678243, Note_on_c, 0, 101, 110
1, 678274, Note_off_c, 0, 101, 60
1, 678299, Note_on_c, 0, 99, 109
1, 678336, Note_off_c, 0, 99, 65
1, 678348, Note_on_c, 0, 101, 96
1, 678350, Note_on_c, 0, 100, 89
1, 678363, Note_off_c, 0, 101, 73
1, 678371, Note_off_c, 0, 100, 70
1, 678397, Note_on_c, 0, 99, 102
1, 678433, Note_off_c, 0, 99, 65
1, 678441, Note_on_c, 0, 101, 112
1, 678472, Note_off_c, 0, 101, 67
1, 678487, Note_on_c, 0, 99, 101
1, 678526, Note_off_c, 0, 99, 66
1, 678542, Note_on_c, 0, 101, 110
1, 678552, Poly_aftertouch_c, 0, 100, 0
1, 678571, Note_off_c, 0, 101, 67
1, 678584, Note_on_c, 0, 99, 111
1, 678619, Note_off_c, 0, 99, 65
1, 678641, Note_on_c, 0, 101, 112
1, 678671, Note_off_c, 0, 101, 67
1, 678679, Note_on_c, 0, 99, 102
1, 678714, Note_off_c, 0, 99, 65
1, 678740, Note_on_c, 0, 101, 108
1, 678771, Note_off_c, 0, 101, 68
1, 678773, Note_on_c, 0, 99, 99
1, 678777, Note_on_c, 0, 105, 38
1, 678777, Note_off_c, 0, 105, 127
1, 678810, Note_off_c, 0, 99, 64
1, 678842, Note_on_c, 0, 101, 105
1, 678875, Note_on_c, 0, 99, 103
1, 678881, Note_off_c, 0, 101, 66
1, 678916, Note_off_c, 0, 99, 65
1, 678950, Note_on_c, 0, 101, 105
1, 678977, Note_on_c, 0, 99, 102
1, 678982, Note_off_c, 0, 101, 67
1, 678998, Note_on_c, 0, 103, 15
1, 678998, Note_off_c, 0, 103, 127
1, 679020, Note_off_c, 0, 99, 64
1, 679051, Note_on_c, 0, 101, 115
1, 679084, Note_off_c, 0, 101, 67
1, 679086, Note_on_c, 0, 99, 99
1, 679088, Note_on_c, 0, 100, 36
1, 679088, Note_off_c, 0, 100, 127
1, 679127, Note_off_c, 0, 99, 65
1, 679160, Note_on_c, 0, 101, 111
1, 679199, Note_on_c, 0, 99, 109
1, 679227, Note_off_c, 0, 99, 69
1, 679234, Note_off_c, 0, 101, 56
1, 679245, Note_on_c, 0, 98, 89
1, 679304, Note_on_c, 0, 99, 95
1, 679313, Note_off_c, 0, 98, 64
1, 679348, Note_off_c, 0, 99, 65
1, 679360, Note_on_c, 0, 103, 113
1, 679376, Note_on_c, 0, 100, 57
1, 679400, Note_off_c, 0, 100, 63
1, 679440, Note_on_c, 0, 101, 83
1, 679462, Note_on_c, 0, 99, 80
1, 679495, Note_off_c, 0, 103, 58
1, 679511, Note_on_c, 0, 96, 80
1, 679522, Note_off_c, 0, 101, 61
1, 679553, Note_off_c, 0, 99, 62
1, 679562, Note_off_c, 0, 96, 65
1, 679563, Note_on_c, 0, 93, 74
1, 679588, Note_off_c, 0, 93, 67
1, 679637, Note_on_c, 0, 89, 83
1, 679680, Note_on_c, 0, 87, 81
1, 679723, Note_on_c, 0, 84, 85
1, 679738, Note_off_c, 0, 89, 56
1, 679766, Note_off_c, 0, 87, 61
1, 679776, Note_on_c, 0, 81, 84
1, 679777, Note_off_c, 0, 84, 63
1, 679806, Note_off_c, 0, 81, 60
1, 679844, Note_on_c, 0, 77, 79
1, 679870, Note_on_c, 0, 79, 42
1, 679893, Note_on_c, 0, 75, 80
1, 679905, Note_off_c, 0, 79, 47
1, 679938, Note_on_c, 0, 72, 78
1, 679951, Note_off_c, 0, 77, 61
1, 679975, Note_off_c, 0, 75, 62
1, 679989, Note_on_c, 0, 69, 84
1, 679993, Note_off_c, 0, 72, 64
1, 680016, Note_off_c, 0, 69, 64
1, 680064, Note_on_c, 0, 65, 84
1, 680107, Note_on_c, 0, 63, 78
1, 680150, Poly_aftertouch_c, 0, 67, 0
1, 680152, Note_on_c, 0, 60, 78
1, 680172, Poly_aftertouch_c, 0, 67, 0
1, 680177, Note_off_c, 0, 65, 61
1, 680196, Note_off_c, 0, 63, 59
1, 680205, Note_off_c, 0, 60, 64
1, 680205, Note_on_c, 0, 57, 80
1, 680227, Note_off_c, 0, 57, 70
1, 680280, Note_on_c, 0, 53, 73
1, 680316, Note_on_c, 0, 51, 76
1, 680343, Note_on_c, 0, 48, 76
1, 680366, Control_c, 0, 64, 83
1, 680381, Control_c, 0, 64, 44
1, 680396, Control_c, 0, 64, 0
1, 680398, Note_off_c, 0, 51, 63
1, 680408, Note_on_c, 0, 45, 89
1, 680425, Control_c, 0, 64, 43
1, 680431, Note_on_c, 0, 44, 123
1, 680440, Control_c, 0, 64, 83
1, 680443, Note_off_c, 0, 48, 54
1, 680455, Note_off_c, 0, 45, 62
1, 680455, Note_off_c, 0, 53, 0
1, 680455, Control_c, 0, 64, 127
1, 680458, Note_off_c, 0, 44, 69
1, 680477, Note_on_c, 0, 50, 17
1, 680479, Note_on_c, 0, 53, 8
1, 680521, Note_off_c, 0, 50, 41
1, 680534, Note_on_c, 0, 45, 78
1, 680580, Note_on_c, 0, 48, 74
1, 680586, Note_off_c, 0, 45, 65
1, 680595, Note_off_c, 0, 53, 46
1, 680622, Note_on_c, 0, 51, 68
1, 680649, Note_on_c, 0, 53, 50
1, 680653, Note_off_c, 0, 48, 64
1, 680676, Note_off_c, 0, 51, 63
1, 680691, Note_off_c, 0, 53, 64
1, 680735, Note_on_c, 0, 57, 79
1, 680795, Note_on_c, 0, 60, 82
1, 680807, Note_off_c, 0, 57, 63
1, 680829, Note_on_c, 0, 63, 73
1, 680871, Note_on_c, 0, 65, 71
1, 680873, Note_off_c, 0, 60, 66
1, 680900, Note_off_c, 0, 63, 65
1, 680910, Note_off_c, 0, 65, 63
1, 680953, Note_on_c, 0, 69, 81
1, 681013, Note_on_c, 0, 72, 85
1, 681037, Note_off_c, 0, 69, 60
1, 681053, Note_on_c, 0, 75, 74
1, 681090, Note_on_c, 0, 77, 75
1, 681105, Note_off_c, 0, 72, 64
1, 681126, Note_off_c, 0, 75, 66
1, 681144, Note_off_c, 0, 77, 63
1, 681181, Note_on_c, 0, 81, 83
1, 681239, Note_on_c, 0, 84, 87
1, 681260, Note_off_c, 0, 81, 62
1, 681272, Note_on_c, 0, 87, 78
1, 681302, Note_on_c, 0, 89, 81
1, 681302, Note_off_c, 0, 84, 64
1, 681325, Note_off_c, 0, 87, 66
1, 681340, Note_off_c, 0, 89, 60
1, 681388, Note_on_c, 0, 93, 70
1, 681406, Note_on_c, 0, 91, 56
1, 681430, Note_on_c, 0, 96, 79
1, 681430, Note_off_c, 0, 91, 55
1, 681447, Note_off_c, 0, 93, 63
1, 681449, Note_on_c, 0, 99, 83
1, 681454, Note_off_c, 0, 96, 68
1, 681472, Note_off_c, 0, 99, 69
1, 681498, Note_on_c, 0, 103, 121
1, 681519, Note_on_c, 0, 100, 56
1, 681519, Note_off_c, 0, 100, 127
1, 681552, Note_off_c, 0, 103, 66
1, 681767, Control_c, 0, 64, 104
1, 681781, Control_c, 0, 64, 64
1, 681792, Note_on_c, 0, 87, 102
1, 681792, Note_on_c, 0, 99, 101
1, 681796, Control_c, 0, 64, 0
1, 681811, Control_c, 0, 64, 43
1, 681818, Note_on_c, 0, 97, 56
1, 681826, Control_c, 0, 64, 67
1, 681832, Note_off_c, 0, 99, 66
1, 681835, Note_off_c, 0, 87, 63
1, 681841, Control_c, 0, 64, 94
1, 681841, Note_off_c, 0, 97, 60
1, 681863, Control_c, 0, 64, 127
1, 681886, Note_on_c, 0, 84, 87
1, 681913, Note_off_c, 0, 84, 66
1, 681957, Note_on_c, 0, 81, 89
1, 681957, Note_on_c, 0, 93, 84
1, 681970, Note_off_c, 0, 93, 71
1, 681974, Note_off_c, 0, 81, 74
1, 682024, Note_on_c, 0, 78, 86
1, 682054, Note_off_c, 0, 78, 59
1, 682061, Note_on_c, 0, 89, 94
1, 682065, Note_on_c, 0, 77, 82
1, 682077, Note_off_c, 0, 89, 71
1, 682083, Note_off_c, 0, 77, 74
1, 682118, Note_on_c, 0, 76, 98
1, 682146, Note_off_c, 0, 76, 61
1, 682164, Note_on_c, 0, 87, 105
1, 682166, Note_on_c, 0, 75, 93
1, 682178, Note_off_c, 0, 87, 76
1, 682184, Note_off_c, 0, 75, 69
1, 682232, Note_on_c, 0, 72, 84
1, 682248, Note_off_c, 0, 72, 74
1, 682267, Note_on_c, 0, 65, 34
1, 682267, Note_off_c, 0, 65, 127
1, 682285, Note_on_c, 0, 81, 92
1, 682285, Note_on_c, 0, 69, 89
1, 682300, Poly_aftertouch_c, 0, 65, 0
1, 682301, Note_off_c, 0, 81, 75
1, 682303, Note_off_c, 0, 69, 74
1, 682304, Note_on_c, 0, 80, 57
1, 682327, Note_off_c, 0, 80, 61
1, 682348, Note_on_c, 0, 66, 90
1, 682384, Poly_aftertouch_c, 0, 71, 0
1, 682391, Note_off_c, 0, 66, 60
1, 682398, Note_on_c, 0, 65, 92
1, 682399, Note_on_c, 0, 77, 88
1, 682416, Note_off_c, 0, 65, 74
1, 682416, Note_off_c, 0, 77, 75
1, 682416, Note_on_c, 0, 67, 56
1, 682440, Note_off_c, 0, 67, 37
1, 682454, Note_on_c, 0, 64, 95
1, 682488, Note_off_c, 0, 64, 63
1, 682505, Note_on_c, 0, 75, 74
1, 682510, Note_on_c, 0, 63, 92
1, 682526, Note_off_c, 0, 75, 70
1, 682531, Note_on_c, 0, 76, 66
1, 682543, Note_off_c, 0, 63, 59
1, 682550, Note_off_c, 0, 76, 65
1, 682577, Note_on_c, 0, 60, 92
1, 682620, Note_off_c, 0, 60, 66
1, 682627, Note_on_c, 0, 53, 28
1, 682639, Note_on_c, 0, 57, 102
1, 682642, Note_on_c, 0, 69, 90
1, 682655, Note_off_c, 0, 57, 72
1, 682658, Note_off_c, 0, 69, 71
1, 682666, Note_off_c, 0, 53, 50
1, 682686, Note_on_c, 0, 66, 15
1, 682686, Note_off_c, 0, 66, 127
1, 682705, Note_on_c, 0, 54, 92
1, 682735, Note_off_c, 0, 54, 62
1, 682762, Note_on_c, 0, 55, 83
1, 682764, Note_on_c, 0, 65, 83
1, 682771, Note_on_c, 0, 53, 76
1, 682782, Note_off_c, 0, 65, 73
1, 682783, Note_off_c, 0, 55, 71
1, 682789, Note_off_c, 0, 53, 66
1, 682801, Poly_aftertouch_c, 0, 48, 127
1, 682808, Note_on_c, 0, 52, 94
1, 682830, Poly_aftertouch_c, 0, 48, 0
1, 682846, Note_off_c, 0, 52, 64
1, 682874, Note_on_c, 0, 51, 93
1, 682876, Note_on_c, 0, 63, 93
1, 682894, Note_off_c, 0, 63, 71
1, 682899, Note_off_c, 0, 51, 65
1, 682929, Note_on_c, 0, 48, 82
1, 682992, Note_on_c, 0, 57, 78
1, 682997, Note_off_c, 0, 48, 61
1, 682998, Note_on_c, 0, 42, 85
1, 683008, Note_on_c, 0, 59, 45
1, 683025, Note_off_c, 0, 42, 68
1, 683035, Note_off_c, 0, 59, 61
1, 683039, Note_off_c, 0, 57, 66
1, 683043, Control_c, 0, 64, 92
1, 683058, Control_c, 0, 64, 56
1, 683072, Control_c, 0, 64, 0
1, 683086, Note_on_c, 0, 53, 109
1, 683098, Note_on_c, 0, 41, 81
1, 683102, Note_on_c, 0, 43, 101
1, 683114, Note_on_c, 0, 31, 67
1, 683117, Control_c, 0, 64, 50
1, 683120, Note_off_c, 0, 53, 69
1, 683123, Note_off_c, 0, 43, 71
1, 683129, Note_on_c, 0, 55, 32
1, 683129, Note_off_c, 0, 41, 65
1, 683132, Control_c, 0, 64, 71
1, 683141, Note_off_c, 0, 31, 57
1, 683147, Control_c, 0, 64, 103
1, 683162, Control_c, 0, 64, 127
1, 683175, Note_off_c, 0, 55, 29
1, 683243, Note_on_c, 0, 41, 60
1, 683278, Note_on_c, 0, 45, 67
1, 683287, Note_off_c, 0, 41, 60
1, 683321, Note_on_c, 0, 51, 74
1, 683323, Note_off_c, 0, 45, 62
1, 683330, Note_on_c, 0, 69, 76
1, 683355, Note_on_c, 0, 75, 87
1, 683360, Note_on_c, 0, 57, 93
1, 683379, Note_off_c, 0, 69, 62
1, 683384, Note_on_c, 0, 81, 78
1, 683385, Note_off_c, 0, 57, 65
1, 683392, Note_off_c, 0, 75, 66
1, 683403, Note_on_c, 0, 78, 42
1, 683405, Note_off_c, 0, 81, 69
1, 683431, Note_off_c, 0, 51, 59
1, 683432, Note_off_c, 0, 78, 56
1, 683463, Poly_aftertouch_c, 0, 48, 127
1, 683463, Note_on_c, 0, 87, 117
1, 683502, Note_off_c, 0, 87, 68
1, 683519, Poly_aftertouch_c, 0, 48, 0
1, 683526, Note_on_c, 0, 42, 67
1, 683562, Note_on_c, 0, 46, 74
1, 683567, Note_off_c, 0, 42, 66
1, 683605, Note_on_c, 0, 51, 79
1, 683620, Note_on_c, 0, 48, 41
1, 683624, Note_off_c, 0, 46, 64
1, 683644, Note_on_c, 0, 58, 96
1, 683653, Note_off_c, 0, 48, 53
1, 683687, Note_on_c, 0, 70, 82
1, 683706, Note_on_c, 0, 75, 75
1, 683706, Note_off_c, 0, 58, 65
1, 683707, Note_off_c, 0, 70, 72
1, 683731, Note_off_c, 0, 75, 69
1, 683736, Note_on_c, 0, 82, 84
1, 683752, Poly_aftertouch_c, 0, 49, 127
1, 683754, Note_off_c, 0, 82, 71
1, 683798, Poly_aftertouch_c, 0, 49, 0
1, 683821, Note_on_c, 0, 87, 82
1, 683821, Note_off_c, 0, 87, 127
1, 683821, Control_c, 0, 64, 67
1, 683824, Note_on_c, 0, 88, 107
1, 683826, Note_on_c, 0, 89, 96
1, 683835, Control_c, 0, 64, 0
1, 683858, Note_off_c, 0, 89, 56
1, 683865, Control_c, 0, 64, 39
1, 683880, Control_c, 0, 64, 65
1, 683883, Note_off_c, 0, 88, 65
1, 683884, Note_on_c, 0, 43, 65
1, 683894, Note_off_c, 0, 51, 18
1, 683895, Control_c, 0, 64, 90
1, 683910, Control_c, 0, 64, 127
1, 683919, Note_on_c, 0, 47, 67
1, 683946, Note_off_c, 0, 43, 60
1, 683965, Note_on_c, 0, 51, 73
1, 683985, Note_off_c, 0, 47, 62
1, 683999, Note_on_c, 0, 59, 96
1, 684047, Note_off_c, 0, 59, 55
1, 684050, Note_on_c, 0, 71, 89
1, 684077, Note_on_c, 0, 75, 77
1, 684092, Note_on_c, 0, 72, 35
1, 684093, Note_off_c, 0, 71, 61
1, 684108, Note_off_c, 0, 75, 68
1, 684117, Note_on_c, 0, 83, 89
1, 684132, Note_off_c, 0, 72, 50
1, 684136, Note_off_c, 0, 83, 72
1, 684203, Note_on_c, 0, 87, 118
1, 684214, Control_c, 0, 64, 89
1, 684228, Control_c, 0, 64, 59
1, 684232, Note_off_c, 0, 51, 23
1, 684243, Control_c, 0, 64, 0
1, 684244, Note_on_c, 0, 44, 67
1, 684258, Control_c, 0, 64, 38
1, 684274, Control_c, 0, 64, 66
1, 684284, Note_on_c, 0, 86, 37
1, 684288, Control_c, 0, 64, 99
1, 684295, Note_on_c, 0, 48, 62
1, 684297, Note_off_c, 0, 87, 63
1, 684303, Control_c, 0, 64, 127
1, 684315, Note_off_c, 0, 86, 49
1, 684335, Note_on_c, 0, 51, 74
1, 684338, Note_off_c, 0, 44, 62
1, 684363, Note_off_c, 0, 48, 62
1, 684391, Note_on_c, 0, 60, 102
1, 684402, Note_off_c, 0, 51, 61
1, 684423, Note_off_c, 0, 60, 70
1, 684491, Note_on_c, 0, 72, 85
1, 684527, Note_on_c, 0, 75, 73
1, 684554, Note_off_c, 0, 72, 62
1, 684578, Note_on_c, 0, 84, 83
1, 684579, Note_off_c, 0, 75, 66
1, 684601, Note_off_c, 0, 84, 67
1, 684688, Note_on_c, 0, 87, 122
1, 684753, Note_off_c, 0, 87, 57
1, 685468, Control_c, 0, 64, 113
1, 685482, Control_c, 0, 64, 68
1, 685497, Control_c, 0, 64, 0
1, 685539, Note_on_c, 0, 74, 106
1, 685542, Note_on_c, 0, 86, 99
1, 685556, Control_c, 0, 64, 44
1, 685571, Control_c, 0, 64, 68
1, 685586, Control_c, 0, 64, 94
1, 685603, Note_on_c, 0, 84, 9
1, 685608, Control_c, 0, 64, 127
1, 685624, Note_off_c, 0, 74, 63
1, 685634, Note_off_c, 0, 86, 64
1, 685651, Note_off_c, 0, 84, 43
1, 685734, Note_on_c, 0, 75, 94
1, 685737, Note_on_c, 0, 87, 99
1, 685756, Note_off_c, 0, 75, 63
1, 685774, Note_on_c, 0, 85, 35
1, 685775, Note_off_c, 0, 87, 62
1, 685805, Note_off_c, 0, 85, 56
1, 685850, Note_on_c, 0, 76, 104
1, 685852, Note_on_c, 0, 88, 96
1, 685867, Note_off_c, 0, 76, 71
1, 685871, Note_off_c, 0, 88, 65
1, 685886, Note_on_c, 0, 86, 46
1, 685886, Note_off_c, 0, 86, 127
1, 685960, Note_on_c, 0, 77, 104
1, 685964, Note_on_c, 0, 89, 90
1, 685976, Note_off_c, 0, 77, 72
1, 685980, Note_off_c, 0, 89, 74
1, 686000, Note_on_c, 0, 87, 30
1, 686040, Note_off_c, 0, 87, 33
1, 686059, Note_on_c, 0, 78, 105
1, 686062, Note_on_c, 0, 90, 100
1, 686088, Note_off_c, 0, 78, 68
1, 686109, Note_off_c, 0, 90, 66
1, 686187, Control_c, 0, 64, 81
1, 686194, Note_on_c, 0, 81, 111
1, 686198, Note_on_c, 0, 93, 107
1, 686202, Control_c, 0, 64, 46
1, 686215, Note_on_c, 0, 87, 61
1, 686217, Control_c, 0, 64, 37
1, 686218, Note_on_c, 0, 90, 55
1, 686218, Note_off_c, 0, 90, 127
1, 686231, Control_c, 0, 64, 62
1, 686234, Note_off_c, 0, 87, 64
1, 686244, Note_on_c, 0, 83, 22
1, 686244, Note_off_c, 0, 83, 127
1, 686246, Control_c, 0, 64, 80
1, 686261, Control_c, 0, 64, 127
1, 686271, Note_off_c, 0, 93, 65
1, 686286, Note_off_c, 0, 81, 61
1, 686399, Note_on_c, 0, 79, 109
1, 686403, Note_on_c, 0, 33, 95
1, 686406, Note_on_c, 0, 91, 103
1, 686414, Note_on_c, 0, 90, 76
1, 686419, Note_on_c, 0, 85, 66
1, 686420, Note_on_c, 0, 87, 66
1, 686433, Note_off_c, 0, 90, 71
1, 686435, Note_off_c, 0, 85, 67
1, 686439, Note_off_c, 0, 87, 65
1, 686442, Note_off_c, 0, 91, 59
1, 686474, Note_off_c, 0, 79, 57
1, 686495, Poly_aftertouch_c, 0, 40, 127
1, 686533, Poly_aftertouch_c, 0, 40, 0
1, 686593, Note_off_c, 0, 33, 59
1, 686599, Note_on_c, 0, 45, 105
1, 686610, Note_on_c, 0, 74, 117
1, 686614, Note_on_c, 0, 86, 97
1, 686617, Note_on_c, 0, 40, 57
1, 686630, Note_on_c, 0, 80, 60
1, 686631, Note_off_c, 0, 45, 67
1, 686640, Note_on_c, 0, 82, 46
1, 686642, Note_off_c, 0, 40, 58
1, 686643, Note_off_c, 0, 74, 62
1, 686651, Note_off_c, 0, 80, 61
1, 686664, Note_off_c, 0, 82, 57
1, 686685, Note_off_c, 0, 86, 61
1, 686718, Poly_aftertouch_c, 0, 76, 0
1, 686786, Note_on_c, 0, 51, 55
1, 686844, Note_on_c, 0, 60, 72
1, 686865, Note_off_c, 0, 51, 62
1, 686885, Note_on_c, 0, 77, 102
1, 686891, Note_on_c, 0, 65, 108
1, 686891, Note_on_c, 0, 89, 106
1, 686917, Note_off_c, 0, 65, 64
1, 686918, Note_on_c, 0, 88, 50
1, 686919, Note_on_c, 0, 61, 50
1, 686922, Note_on_c, 0, 87, 37
1, 686924, Note_off_c, 0, 60, 64
1, 686946, Note_off_c, 0, 89, 63
1, 686947, Note_off_c, 0, 61, 36
1, 686950, Note_off_c, 0, 88, 51
1, 686956, Note_off_c, 0, 87, 33
1, 686976, Note_off_c, 0, 77, 62
1, 687237, Note_on_c, 0, 75, 109
1, 687240, Note_on_c, 0, 87, 102
1, 687266, Note_on_c, 0, 85, 57
1, 687285, Note_off_c, 0, 87, 67
1, 687301, Note_off_c, 0, 85, 48
1, 687316, Note_off_c, 0, 75, 63
1, 687660, Note_on_c, 0, 69, 99
1, 687663, Note_on_c, 0, 81, 105
1, 687730, Note_off_c, 0, 81, 60
1, 687732, Note_off_c, 0, 69, 59
1, 687936, Poly_aftertouch_c, 0, 78, 127
1, 687978, Poly_aftertouch_c, 0, 78, 0
1, 687989, Note_on_c, 0, 46, 112
1, 688005, Note_on_c, 0, 70, 106
1, 688006, Note_on_c, 0, 34, 61
1, 688010, Note_on_c, 0, 82, 95
1, 688032, Note_off_c, 0, 46, 68
1, 688035, Note_off_c, 0, 34, 35
1, 688096, Note_off_c, 0, 82, 61
1, 688102, Note_off_c, 0, 70, 61
1, 688110, Note_on_c, 0, 74, 65
1, 688115, Note_on_c, 0, 77, 62
1, 688138, Note_on_c, 0, 62, 68
1, 688144, Note_off_c, 0, 74, 63
1, 688156, Note_off_c, 0, 77, 53
1, 688158, Note_on_c, 0, 58, 40
1, 688170, Note_off_c, 0, 62, 64
1, 688187, Note_off_c, 0, 58, 55
1, 688195, Control_c, 0, 64, 73
1, 688204, Note_on_c, 0, 70, 83
1, 688208, Note_on_c, 0, 53, 65
1, 688210, Control_c, 0, 64, 34
1, 688211, Note_on_c, 0, 82, 76
1, 688225, Control_c, 0, 64, 0
1, 688226, Note_off_c, 0, 70, 71
1, 688232, Note_off_c, 0, 82, 68
1, 688248, Note_off_c, 0, 53, 58
1, 688286, Note_on_c, 0, 82, 85
1, 688291, Note_on_c, 0, 62, 64
1, 688292, Note_on_c, 0, 65, 68
1, 688293, Note_on_c, 0, 77, 73
1, 688301, Note_on_c, 0, 58, 40
1, 688311, Note_off_c, 0, 65, 63
1, 688313, Note_off_c, 0, 62, 63
1, 688316, Note_off_c, 0, 77, 71
1, 688324, Note_off_c, 0, 82, 61
1, 688329, Note_off_c, 0, 58, 62
1, 688374, Control_c, 0, 64, 36
1, 688387, Note_on_c, 0, 86, 90
1, 688387, Note_on_c, 0, 74, 97
1, 688389, Control_c, 0, 64, 101
1, 688391, Note_on_c, 0, 46, 83
1, 688404, Control_c, 0, 64, 127
1, 688410, Note_off_c, 0, 74, 59
1, 688411, Note_off_c, 0, 46, 67
1, 688414, Note_on_c, 0, 84, 55
1, 688414, Note_off_c, 0, 84, 127
1, 688427, Note_off_c, 0, 86, 61
1, 688477, Note_on_c, 0, 77, 71
1, 688485, Note_on_c, 0, 82, 59
1, 688492, Note_on_c, 0, 65, 72
1, 688501, Note_off_c, 0, 77, 68
1, 688503, Note_off_c, 0, 82, 62
1, 688513, Note_off_c, 0, 65, 67
1, 688534, Note_on_c, 0, 62, 16
1, 688566, Control_c, 0, 64, 90
1, 688573, Note_on_c, 0, 82, 88
1, 688575, Note_on_c, 0, 53, 78
1, 688576, Note_on_c, 0, 70, 89
1, 688576, Note_off_c, 0, 62, 48
1, 688581, Control_c, 0, 64, 59
1, 688603, Control_c, 0, 64, 0
1, 688605, Note_off_c, 0, 70, 65
1, 688632, Note_off_c, 0, 82, 60
1, 688632, Note_off_c, 0, 53, 57
1, 688666, Note_on_c, 0, 74, 68
1, 688673, Note_on_c, 0, 58, 56
1, 688674, Note_on_c, 0, 77, 58
1, 688675, Note_on_c, 0, 65, 58
1, 688685, Note_on_c, 0, 62, 31
1, 688692, Note_off_c, 0, 74, 65
1, 688694, Note_off_c, 0, 77, 64
1, 688700, Note_off_c, 0, 65, 57
1, 688709, Note_off_c, 0, 58, 65
1, 688721, Note_off_c, 0, 62, 34
1, 688766, Control_c, 0, 64, 77
1, 688769, Note_on_c, 0, 65, 98
1, 688769, Note_on_c, 0, 77, 85
1, 688771, Note_on_c, 0, 46, 84
1, 688781, Control_c, 0, 64, 127
1, 688794, Note_off_c, 0, 46, 66
1, 688819, Note_off_c, 0, 65, 57
1, 688833, Note_off_c, 0, 77, 45
1, 688858, Note_on_c, 0, 70, 68
1, 688864, Note_on_c, 0, 65, 63
1, 688878, Note_on_c, 0, 74, 33
1, 688884, Note_off_c, 0, 65, 73
1, 688885, Note_off_c, 0, 70, 69
1, 688899, Control_c, 0, 64, 85
1, 688900, Note_on_c, 0, 62, 40
1, 688914, Note_off_c, 0, 74, 46
1, 688914, Control_c, 0, 64, 49
1, 688928, Note_off_c, 0, 62, 53
1, 688929, Control_c, 0, 64, 0
1, 688955, Note_on_c, 0, 53, 70
1, 688956, Note_on_c, 0, 77, 75
1, 688965, Note_on_c, 0, 65, 68
1, 688979, Note_off_c, 0, 77, 69
1, 688982, Note_off_c, 0, 65, 67
1, 689001, Note_off_c, 0, 53, 58
1, 689032, Note_on_c, 0, 62, 64
1, 689038, Note_on_c, 0, 77, 86
1, 689043, Note_on_c, 0, 58, 56
1, 689044, Note_on_c, 0, 65, 64
1, 689052, Note_on_c, 0, 74, 58
1, 689061, Note_off_c, 0, 62, 66
1, 689066, Note_off_c, 0, 65, 63
1, 689073, Note_off_c, 0, 74, 62
1, 689079, Note_off_c, 0, 58, 65
1, 689094, Note_off_c, 0, 77, 63
1, 689122, Control_c, 0, 64, 41
1, 689132, Note_on_c, 0, 70, 97
1, 689134, Note_on_c, 0, 82, 90
1, 689137, Note_on_c, 0, 46, 88
1, 689137, Control_c, 0, 64, 119
1, 689152, Control_c, 0, 64, 127
1, 689159, Note_off_c, 0, 46, 67
1, 689167, Note_off_c, 0, 82, 68
1, 689174, Note_off_c, 0, 70, 63
1, 689225, Note_on_c, 0, 77, 69
1, 689230, Note_on_c, 0, 65, 79
1, 689234, Note_on_c, 0, 74, 50
1, 689247, Note_off_c, 0, 65, 69
1, 689250, Note_on_c, 0, 62, 63
1, 689250, Note_off_c, 0, 77, 64
1, 689264, Note_off_c, 0, 74, 65
1, 689283, Note_off_c, 0, 62, 64
1, 689284, Control_c, 0, 64, 85
1, 689299, Control_c, 0, 64, 0
1, 689315, Poly_aftertouch_c, 0, 58, 0
1, 689326, Note_on_c, 0, 65, 85
1, 689329, Note_on_c, 0, 53, 69
1, 689340, Note_on_c, 0, 77, 81
1, 689382, Note_off_c, 0, 53, 53
1, 689383, Note_off_c, 0, 65, 64
1, 689395, Note_off_c, 0, 77, 59
1, 689401, Note_on_c, 0, 62, 62
1, 689418, Note_on_c, 0, 74, 62
1, 689422, Note_on_c, 0, 58, 65
1, 689430, Note_off_c, 0, 62, 66
1, 689444, Note_off_c, 0, 74, 66
1, 689449, Note_off_c, 0, 58, 66
1, 689514, Control_c, 0, 64, 77
1, 689523, Note_on_c, 0, 62, 95
1, 689523, Note_on_c, 0, 46, 85
1, 689526, Note_on_c, 0, 74, 87
1, 689529, Control_c, 0, 64, 127
1, 689549, Note_off_c, 0, 46, 69
1, 689561, Note_on_c, 0, 72, 35
1, 689568, Note_off_c, 0, 62, 59
1, 689569, Note_off_c, 0, 74, 47
1, 689591, Note_off_c, 0, 72, 56
1, 689614, Note_on_c, 0, 65, 69
1, 689620, Note_on_c, 0, 62, 67
1, 689623, Note_on_c, 0, 70, 43
1, 689632, Note_on_c, 0, 58, 68
1, 689638, Note_off_c, 0, 65, 66
1, 689649, Note_off_c, 0, 62, 64
1, 689653, Note_off_c, 0, 70, 50
1, 689660, Note_off_c, 0, 58, 68
1, 689677, Control_c, 0, 64, 68
1, 689691, Control_c, 0, 64, 0
1, 689708, Note_on_c, 0, 62, 88
1, 689715, Note_on_c, 0, 74, 68
1, 689719, Note_on_c, 0, 53, 60
1, 689723, Note_off_c, 0, 62, 74
1, 689732, Note_off_c, 0, 74, 66
1, 689756, Note_off_c, 0, 53, 57
1, 689790, Note_on_c, 0, 62, 81
1, 689794, Note_on_c, 0, 63, 82
1, 689797, Note_on_c, 0, 58, 69
1, 689803, Note_on_c, 0, 75, 66
1, 689809, Note_off_c, 0, 62, 71
1, 689814, Note_off_c, 0, 63, 71
1, 689826, Note_off_c, 0, 58, 67
1, 689830, Note_off_c, 0, 75, 68
1, 689885, Control_c, 0, 64, 87
1, 689893, Note_on_c, 0, 67, 99
1, 689896, Note_on_c, 0, 46, 82
1, 689898, Note_on_c, 0, 79, 83
1, 689900, Control_c, 0, 64, 127
1, 689913, Note_off_c, 0, 79, 69
1, 689919, Note_off_c, 0, 46, 67
1, 689928, Note_off_c, 0, 67, 61
1, 689987, Note_on_c, 0, 65, 90
1, 689987, Note_on_c, 0, 77, 64
1, 689989, Note_on_c, 0, 62, 78
1, 689994, Note_on_c, 0, 58, 72
1, 690008, Note_off_c, 0, 65, 69
1, 690010, Note_off_c, 0, 77, 69
1, 690012, Note_off_c, 0, 62, 69
1, 690023, Note_off_c, 0, 58, 66
1, 690034, Control_c, 0, 64, 111
1, 690049, Control_c, 0, 64, 64
1, 690063, Control_c, 0, 64, 0
1, 690077, Note_on_c, 0, 77, 85
1, 690080, Note_on_c, 0, 65, 95
1, 690090, Note_on_c, 0, 53, 75
1, 690107, Note_off_c, 0, 77, 65
1, 690109, Note_off_c, 0, 65, 69
1, 690121, Note_on_c, 0, 67, 41
1, 690121, Note_off_c, 0, 67, 127
1, 690141, Note_off_c, 0, 53, 62
1, 690159, Note_on_c, 0, 62, 74
1, 690163, Note_on_c, 0, 58, 74
1, 690174, Note_on_c, 0, 65, 94
1, 690178, Note_on_c, 0, 77, 75
1, 690185, Note_off_c, 0, 62, 69
1, 690190, Note_off_c, 0, 58, 68
1, 690192, Note_off_c, 0, 65, 71
1, 690197, Note_off_c, 0, 77, 71
1, 690263, Control_c, 0, 64, 69
1, 690265, Note_on_c, 0, 65, 100
1, 690265, Note_on_c, 0, 77, 90
1, 690276, Note_on_c, 0, 41, 75
1, 690278, Control_c, 0, 64, 127
1, 690291, Note_on_c, 0, 67, 46
1, 690291, Note_off_c, 0, 67, 127
1, 690297, Note_off_c, 0, 41, 66
1, 690304, Note_off_c, 0, 65, 66
1, 690316, Note_off_c, 0, 77, 57
1, 690373, Note_on_c, 0, 72, 74
1, 690374, Note_on_c, 0, 63, 81
1, 690380, Note_on_c, 0, 69, 62
1, 690384, Note_on_c, 0, 60, 66
1, 690394, Note_off_c, 0, 72, 70
1, 690395, Note_off_c, 0, 63, 70
1, 690399, Note_off_c, 0, 69, 65
1, 690414, Note_off_c, 0, 60, 65
1, 690426, Control_c, 0, 64, 90
1, 690441, Control_c, 0, 64, 58
1, 690456, Control_c, 0, 64, 0
1, 690458, Note_on_c, 0, 53, 75
1, 690470, Note_on_c, 0, 67, 78
1, 690478, Note_on_c, 0, 79, 67
1, 690489, Note_off_c, 0, 67, 72
1, 690496, Note_off_c, 0, 79, 67
1, 690499, Note_off_c, 0, 53, 60
1, 690538, Note_on_c, 0, 60, 76
1, 690546, Note_on_c, 0, 63, 74
1, 690554, Note_on_c, 0, 69, 79
1, 690569, Note_on_c, 0, 81, 61
1, 690570, Note_off_c, 0, 63, 70
1, 690572, Note_off_c, 0, 60, 67
1, 690573, Note_off_c, 0, 69, 72
1, 690587, Note_off_c, 0, 81, 62
1, 690633, Control_c, 0, 64, 76
1, 690641, Note_on_c, 0, 70, 97
1, 690645, Note_on_c, 0, 82, 91
1, 690647, Note_on_c, 0, 46, 85
1, 690648, Control_c, 0, 64, 127
1, 690665, Note_on_c, 0, 80, 68
1, 690674, Note_off_c, 0, 46, 66
1, 690712, Note_off_c, 0, 80, 37
1, 690733, Note_off_c, 0, 70, 61
1, 690742, Note_on_c, 0, 77, 63
1, 690745, Note_off_c, 0, 82, 59
1, 690750, Note_on_c, 0, 73, 22
1, 690762, Note_on_c, 0, 74, 56
1, 690789, Note_off_c, 0, 73, 52
1, 690793, Note_off_c, 0, 74, 64
1, 690812, Note_on_c, 0, 58, 75
1, 690812, Note_on_c, 0, 62, 69
1, 690820, Note_on_c, 0, 53, 71
1, 690829, Note_off_c, 0, 58, 66
1, 690832, Note_off_c, 0, 62, 66
1, 690843, Note_on_c, 0, 70, 88
1, 690854, Note_off_c, 0, 53, 65
1, 690863, Note_off_c, 0, 77, 50
1, 690883, Note_off_c, 0, 70, 66
1, 690907, Note_on_c, 0, 74, 68
1, 690920, Note_on_c, 0, 77, 57
1, 690932, Note_off_c, 0, 74, 66
1, 690943, Note_off_c, 0, 77, 67
1, 690946, Poly_aftertouch_c, 0, 80, 0
1, 690984, Note_on_c, 0, 27, 20
1, 691026, Note_on_c, 0, 34, 105
1, 691033, Note_off_c, 0, 27, 0
1, 691033, Note_on_c, 0, 27, 37
1, 691041, Note_on_c, 0, 82, 101
1, 691043, Note_on_c, 0, 94, 103
1, 691054, Note_off_c, 0, 82, 74
1, 691057, Note_on_c, 0, 22, 40
1, 691057, Note_off_c, 0, 22, 127
1, 691065, Note_on_c, 0, 35, 46
1, 691065, Note_off_c, 0, 27, 56
1, 691069, Note_on_c, 0, 92, 46
1, 691071, Note_off_c, 0, 34, 60
1, 691085, Note_off_c, 0, 94, 64
1, 691097, Note_off_c, 0, 92, 38
1, 691098, Note_off_c, 0, 35, 53
1, 691121, Note_on_c, 0, 89, 74
1, 691127, Note_on_c, 0, 86, 52
1, 691148, Poly_aftertouch_c, 0, 83, 0
1, 691150, Note_off_c, 0, 89, 59
1, 691154, Note_off_c, 0, 86, 65
1, 691213, Note_on_c, 0, 82, 94
1, 691222, Note_on_c, 0, 94, 77
1, 691230, Note_off_c, 0, 82, 69
1, 691236, Note_on_c, 0, 55, 82
1, 691240, Note_on_c, 0, 64, 68
1, 691243, Note_off_c, 0, 94, 71
1, 691249, Control_c, 0, 64, 76
1, 691257, Note_off_c, 0, 55, 71
1, 691257, Note_off_c, 0, 64, 65
1, 691260, Note_on_c, 0, 62, 39
1, 691264, Control_c, 0, 64, 42
1, 691266, Note_on_c, 0, 59, 32
1, 691269, Note_on_c, 0, 60, 14
1, 691279, Control_c, 0, 64, 0
1, 691284, Note_off_c, 0, 59, 40
1, 691291, Note_off_c, 0, 62, 35
1, 691303, Note_on_c, 0, 94, 87
1, 691305, Note_on_c, 0, 89, 83
1, 691308, Note_off_c, 0, 60, 53
1, 691323, Note_off_c, 0, 89, 72
1, 691346, Note_off_c, 0, 94, 65
1, 691397, Control_c, 0, 64, 67
1, 691405, Note_on_c, 0, 98, 99
1, 691406, Note_on_c, 0, 86, 106
1, 691412, Control_c, 0, 64, 127
1, 691417, Note_on_c, 0, 34, 96
1, 691419, Note_on_c, 0, 32, 97
1, 691428, Note_on_c, 0, 96, 66
1, 691437, Note_on_c, 0, 22, 67
1, 691437, Note_off_c, 0, 22, 127
1, 691437, Note_off_c, 0, 34, 71
1, 691443, Note_off_c, 0, 86, 63
1, 691445, Note_off_c, 0, 32, 66
1, 691446, Note_off_c, 0, 98, 65
1, 691448, Note_off_c, 0, 96, 63
1, 691450, Note_on_c, 0, 25, 41
1, 691450, Note_off_c, 0, 25, 127
1, 691478, Poly_aftertouch_c, 0, 22, 0
1, 691490, Note_on_c, 0, 89, 80
1, 691490, Note_on_c, 0, 94, 81
1, 691499, Poly_aftertouch_c, 0, 25, 0
1, 691523, Note_off_c, 0, 94, 58
1, 691527, Note_off_c, 0, 89, 51
1, 691604, Note_on_c, 0, 62, 101
1, 691606, Note_on_c, 0, 82, 97
1, 691612, Note_on_c, 0, 94, 82
1, 691618, Note_on_c, 0, 53, 70
1, 691620, Note_off_c, 0, 62, 73
1, 691622, Note_on_c, 0, 59, 68
1, 691627, Note_off_c, 0, 94, 71
1, 691627, Control_c, 0, 64, 96
1, 691628, Note_on_c, 0, 58, 43
1, 691628, Note_off_c, 0, 58, 127
1, 691638, Note_on_c, 0, 55, 37
1, 691639, Note_off_c, 0, 82, 61
1, 691642, Note_off_c, 0, 59, 64
1, 691642, Control_c, 0, 64, 62
1, 691645, Note_off_c, 0, 53, 67
1, 691657, Control_c, 0, 64, 0
1, 691660, Note_on_c, 0, 93, 39
1, 691672, Note_off_c, 0, 55, 36
1, 691680, Note_on_c, 0, 89, 74
1, 691691, Note_on_c, 0, 86, 66
1, 691696, Note_off_c, 0, 93, 43
1, 691699, Poly_aftertouch_c, 0, 56, 0
1, 691713, Note_off_c, 0, 89, 62
1, 691722, Note_off_c, 0, 86, 65
1, 691791, Note_on_c, 0, 77, 101
1, 691791, Control_c, 0, 64, 85
1, 691791, Note_on_c, 0, 32, 106
1, 691797, Note_on_c, 0, 89, 88
1, 691806, Control_c, 0, 64, 127
1, 691806, Note_on_c, 0, 22, 78
1, 691806, Note_off_c, 0, 22, 127
1, 691809, Note_on_c, 0, 34, 51
1, 691814, Note_on_c, 0, 88, 69
1, 691817, Note_on_c, 0, 87, 56
1, 691821, Note_on_c, 0, 33, 55
1, 691824, Note_off_c, 0, 32, 60
1, 691826, Note_on_c, 0, 25, 45
1, 691826, Note_off_c, 0, 25, 127
1, 691830, Note_off_c, 0, 77, 64
1, 691833, Note_off_c, 0, 88, 40
1, 691838, Poly_aftertouch_c, 0, 22, 0
1, 691838, Note_off_c, 0, 34, 58
1, 691839, Note_off_c, 0, 87, 61
1, 691839, Note_off_c, 0, 89, 59
1, 691851, Note_off_c, 0, 33, 57
1, 691872, Poly_aftertouch_c, 0, 25, 0
1, 691960, Poly_aftertouch_c, 0, 86, 0
1, 691968, Control_c, 0, 64, 94
1, 691971, Note_on_c, 0, 62, 93
1, 691974, Note_on_c, 0, 77, 81
1, 691975, Note_on_c, 0, 58, 72
1, 691975, Note_off_c, 0, 58, 127
1, 691976, Note_on_c, 0, 89, 81
1, 691977, Note_on_c, 0, 53, 81
1, 691983, Control_c, 0, 64, 54
1, 691987, Note_off_c, 0, 77, 74
1, 691990, Note_off_c, 0, 62, 72
1, 691996, Note_on_c, 0, 59, 53
1, 691997, Note_off_c, 0, 89, 67
1, 691998, Control_c, 0, 64, 0
1, 692000, Note_off_c, 0, 53, 71
1, 692019, Note_off_c, 0, 59, 37
1, 692054, Note_on_c, 0, 90, 91
1, 692064, Note_on_c, 0, 86, 70
1, 692089, Note_off_c, 0, 86, 65
1, 692103, Note_off_c, 0, 90, 66
1, 692146, Control_c, 0, 64, 66
1, 692158, Note_on_c, 0, 34, 111
1, 692158, Note_on_c, 0, 82, 104
1, 692161, Note_on_c, 0, 94, 101
1, 692161, Control_c, 0, 64, 127
1, 692172, Note_on_c, 0, 22, 76
1, 692192, Note_off_c, 0, 34, 58
1, 692194, Note_on_c, 0, 87, 29
1, 692199, Note_off_c, 0, 94, 67
1, 692200, Note_off_c, 0, 82, 61
1, 692207, Note_off_c, 0, 22, 53
1, 692232, Note_off_c, 0, 87, 53
1, 692249, Note_on_c, 0, 89, 73
1, 692273, Note_off_c, 0, 89, 68
1, 692285, Note_on_c, 0, 86, 28
1, 692325, Control_c, 0, 64, 92
1, 692326, Note_off_c, 0, 86, 39
1, 692347, Note_on_c, 0, 62, 83
1, 692347, Control_c, 0, 64, 60
1, 692350, Note_on_c, 0, 53, 80
1, 692352, Note_on_c, 0, 89, 93
1, 692353, Note_on_c, 0, 58, 69
1, 692353, Note_off_c, 0, 58, 127
1, 692357, Note_on_c, 0, 77, 81
1, 692362, Note_on_c, 0, 79, 72
1, 692362, Control_c, 0, 64, 0
1, 692368, Note_off_c, 0, 62, 71
1, 692374, Note_off_c, 0, 53, 68
1, 692382, Note_on_c, 0, 59, 42
1, 692396, Note_off_c, 0, 79, 52
1, 692397, Note_off_c, 0, 77, 53
1, 692414, Note_off_c, 0, 59, 35
1, 692419, Note_off_c, 0, 89, 62
1, 692422, Note_on_c, 0, 86, 70
1, 692451, Note_off_c, 0, 86, 62
1, 692525, Control_c, 0, 64, 82
1, 692534, Note_on_c, 0, 34, 103
1, 692537, Note_on_c, 0, 74, 100
1, 692538, Note_on_c, 0, 32, 88
1, 692540, Control_c, 0, 64, 127
1, 692542, Note_on_c, 0, 86, 90
1, 692549, Note_on_c, 0, 22, 74
1, 692549, Note_off_c, 0, 22, 127
1, 692560, Note_off_c, 0, 86, 69
1, 692560, Note_off_c, 0, 32, 64
1, 692564, Note_on_c, 0, 25, 40
1, 692576, Note_off_c, 0, 74, 61
1, 692577, Note_off_c, 0, 34, 63
1, 692613, Note_off_c, 0, 25, 48
1, 692617, Note_on_c, 0, 82, 53
1, 692620, Note_on_c, 0, 77, 74
1, 692641, Note_off_c, 0, 77, 70
1, 692653, Note_off_c, 0, 82, 64
1, 692713, Note_on_c, 0, 74, 93
1, 692716, Note_on_c, 0, 62, 93
1, 692717, Control_c, 0, 64, 76
1, 692718, Note_on_c, 0, 58, 82
1, 692721, Note_on_c, 0, 86, 80
1, 692724, Note_on_c, 0, 53, 75
1, 692730, Note_off_c, 0, 74, 70
1, 692732, Control_c, 0, 64, 45
1, 692736, Note_off_c, 0, 62, 72
1, 692736, Note_off_c, 0, 86, 69
1, 692740, Note_off_c, 0, 58, 72
1, 692747, Control_c, 0, 64, 0
1, 692751, Note_off_c, 0, 53, 67
1, 692805, Note_on_c, 0, 75, 80
1, 692814, Note_on_c, 0, 87, 79
1, 692825, Note_off_c, 0, 75, 71
1, 692836, Note_off_c, 0, 87, 70
1, 692865, Control_c, 0, 64, 54
1, 692880, Control_c, 0, 64, 94
1, 692895, Control_c, 0, 64, 127
1, 692906, Note_on_c, 0, 79, 95
1, 692906, Poly_aftertouch_c, 0, 34, 0
1, 692908, Note_on_c, 0, 34, 96
1, 692912, Note_on_c, 0, 91, 86
1, 692921, Note_on_c, 0, 25, 74
1, 692925, Note_off_c, 0, 79, 70
1, 692927, Note_on_c, 0, 36, 72
1, 692928, Note_on_c, 0, 35, 71
1, 692928, Note_off_c, 0, 35, 127
1, 692930, Note_off_c, 0, 91, 73
1, 692931, Note_off_c, 0, 34, 67
1, 692933, Note_on_c, 0, 90, 46
1, 692933, Note_off_c, 0, 90, 127
1, 692951, Note_off_c, 0, 36, 62
1, 692953, Note_off_c, 0, 25, 58
1, 692954, Poly_aftertouch_c, 0, 35, 0
1, 693005, Note_on_c, 0, 77, 88
1, 693005, Note_on_c, 0, 89, 88
1, 693015, Note_on_c, 0, 79, 67
1, 693021, Poly_aftertouch_c, 0, 27, 0
1, 693022, Note_off_c, 0, 89, 71
1, 693023, Note_off_c, 0, 77, 71
1, 693037, Note_off_c, 0, 79, 61
1, 693086, Poly_aftertouch_c, 0, 34, 0
1, 693099, Note_on_c, 0, 77, 102
1, 693103, Note_on_c, 0, 89, 96
1, 693105, Note_on_c, 0, 64, 77
1, 693115, Note_on_c, 0, 59, 64
1, 693116, Note_on_c, 0, 87, 71
1, 693121, Note_off_c, 0, 64, 71
1, 693127, Note_off_c, 0, 89, 62
1, 693127, Control_c, 0, 64, 95
1, 693130, Note_on_c, 0, 56, 36
1, 693133, Note_off_c, 0, 87, 67
1, 693134, Note_off_c, 0, 77, 62
1, 693135, Note_off_c, 0, 59, 63
1, 693139, Note_on_c, 0, 54, 19
1, 693141, Control_c, 0, 64, 64
1, 693150, Note_on_c, 0, 53, 24
1, 693156, Control_c, 0, 64, 0
1, 693162, Note_off_c, 0, 56, 55
1, 693180, Note_off_c, 0, 54, 42
1, 693192, Note_off_c, 0, 53, 44
1, 693198, Note_on_c, 0, 77, 84
1, 693203, Note_on_c, 0, 89, 87
1, 693226, Note_off_c, 0, 89, 64
1, 693230, Note_off_c, 0, 77, 65
1, 693274, Control_c, 0, 64, 53
1, 693288, Note_on_c, 0, 41, 98
1, 693289, Control_c, 0, 64, 127
1, 693300, Note_on_c, 0, 29, 70
1, 693300, Note_on_c, 0, 77, 101
1, 693305, Note_on_c, 0, 89, 96
1, 693316, Note_on_c, 0, 32, 35
1, 693320, Note_on_c, 0, 88, 77
1, 693329, Note_off_c, 0, 41, 62
1, 693330, Note_off_c, 0, 29, 57
1, 693336, Note_off_c, 0, 88, 41
1, 693338, Note_off_c, 0, 77, 61
1, 693347, Note_off_c, 0, 89, 62
1, 693356, Note_off_c, 0, 32, 52
1, 693410, Note_on_c, 0, 81, 49
1, 693412, Note_on_c, 0, 84, 47
1, 693438, Note_off_c, 0, 81, 56
1, 693440, Note_off_c, 0, 84, 53
1, 693489, Note_on_c, 0, 60, 78
1, 693489, Note_on_c, 0, 79, 89
1, 693491, Note_on_c, 0, 53, 75
1, 693500, Note_on_c, 0, 91, 71
1, 693508, Note_off_c, 0, 79, 72
1, 693511, Note_off_c, 0, 60, 68
1, 693511, Control_c, 0, 64, 87
1, 693515, Note_off_c, 0, 53, 69
1, 693517, Note_off_c, 0, 91, 66
1, 693526, Control_c, 0, 64, 62
1, 693541, Control_c, 0, 64, 0
1, 693568, Note_on_c, 0, 81, 81
1, 693574, Note_on_c, 0, 93, 82
1, 693589, Note_off_c, 0, 81, 70
1, 693589, Note_on_c, 0, 83, 62
1, 693594, Note_off_c, 0, 93, 72
1, 693610, Note_off_c, 0, 83, 40
1, 693645, Control_c, 0, 64, 46
1, 693658, Control_c, 0, 64, 92
1, 693664, Note_on_c, 0, 44, 103
1, 693669, Note_on_c, 0, 94, 98
1, 693669, Note_on_c, 0, 83, 91
1, 693671, Note_on_c, 0, 34, 83
1, 693673, Control_c, 0, 64, 127
1, 693675, Note_on_c, 0, 46, 75
1, 693683, Note_on_c, 0, 37, 61
1, 693683, Note_off_c, 0, 37, 127
1, 693684, Note_off_c, 0, 44, 74
1, 693689, Note_on_c, 0, 84, 66
1, 693694, Note_off_c, 0, 94, 65
1, 693697, Note_off_c, 0, 34, 65
1, 693698, Note_off_c, 0, 46, 63
1, 693709, Note_off_c, 0, 84, 65
1, 693713, Poly_aftertouch_c, 0, 37, 0
1, 693716, Note_off_c, 0, 83, 60
1, 693821, Control_c, 0, 64, 71
1, 693844, Control_c, 0, 64, 0
1, 693876, Note_on_c, 0, 46, 89
1, 693879, Note_on_c, 0, 86, 95
1, 693880, Note_on_c, 0, 77, 83
1, 693882, Note_on_c, 0, 34, 65
1, 693882, Note_on_c, 0, 74, 96
1, 693889, Control_c, 0, 64, 69
1, 693896, Note_on_c, 0, 84, 71
1, 693896, Note_off_c, 0, 84, 127
1, 693899, Note_off_c, 0, 74, 72
1, 693900, Note_off_c, 0, 46, 67
1, 693904, Control_c, 0, 64, 127
1, 693907, Note_on_c, 0, 78, 50
1, 693907, Note_off_c, 0, 78, 127
1, 693908, Note_off_c, 0, 86, 64
1, 693911, Note_off_c, 0, 34, 64
1, 693918, Note_off_c, 0, 77, 62
1, 693972, Note_on_c, 0, 41, 93
1, 693992, Note_on_c, 0, 29, 58
1, 693995, Note_off_c, 0, 41, 65
1, 694007, Note_on_c, 0, 34, 31
1, 694025, Note_off_c, 0, 29, 55
1, 694025, Note_off_c, 0, 34, 64
1, 694076, Note_on_c, 0, 46, 82
1, 694078, Poly_aftertouch_c, 0, 30, 0
1, 694093, Note_off_c, 0, 46, 68
1, 694099, Note_on_c, 0, 37, 46
1, 694135, Note_off_c, 0, 37, 50
1, 694165, Note_on_c, 0, 53, 97
1, 694188, Note_on_c, 0, 46, 34
1, 694189, Note_off_c, 0, 53, 68
1, 694191, Note_on_c, 0, 43, 50
1, 694218, Note_off_c, 0, 46, 32
1, 694221, Note_off_c, 0, 43, 58
1, 694266, Note_on_c, 0, 58, 82
1, 694267, Note_on_c, 0, 70, 93
1, 694271, Note_on_c, 0, 82, 83
1, 694280, Note_on_c, 0, 49, 50
1, 694280, Note_off_c, 0, 58, 70
1, 694283, Note_off_c, 0, 70, 74
1, 694289, Note_off_c, 0, 82, 68
1, 694290, Note_on_c, 0, 51, 42
1, 694310, Note_off_c, 0, 49, 57
1, 694321, Note_off_c, 0, 51, 57
1, 694352, Note_on_c, 0, 65, 98
1, 694369, Note_off_c, 0, 65, 72
1, 694373, Note_on_c, 0, 76, 51
1, 694373, Note_on_c, 0, 77, 61
1, 694373, Note_on_c, 0, 55, 76
1, 694375, Note_on_c, 0, 53, 72
1, 694380, Poly_aftertouch_c, 0, 59, 0
1, 694390, Note_off_c, 0, 77, 67
1, 694393, Note_off_c, 0, 53, 67
1, 694394, Note_off_c, 0, 55, 66
1, 694397, Note_on_c, 0, 43, 35
1, 694397, Note_off_c, 0, 76, 58
1, 694430, Note_off_c, 0, 43, 54
1, 694441, Note_on_c, 0, 49, 76
1, 694453, Note_on_c, 0, 57, 101
1, 694467, Note_on_c, 0, 84, 84
1, 694467, Note_on_c, 0, 87, 94
1, 694467, Control_c, 0, 64, 67
1, 694468, Note_on_c, 0, 52, 75
1, 694468, Note_on_c, 0, 76, 87
1, 694473, Note_off_c, 0, 57, 70
1, 694479, Note_on_c, 0, 78, 59
1, 694479, Note_off_c, 0, 78, 127
1, 694481, Note_off_c, 0, 87, 66
1, 694481, Control_c, 0, 64, 0
1, 694482, Note_on_c, 0, 51, 18
1, 694482, Note_off_c, 0, 51, 127
1, 694486, Note_off_c, 0, 52, 66
1, 694488, Note_off_c, 0, 76, 72
1, 694489, Note_off_c, 0, 84, 69
1, 694495, Note_off_c, 0, 49, 64
1, 694506, Note_on_c, 0, 85, 24
1, 694506, Note_off_c, 0, 85, 127
1, 694531, Poly_aftertouch_c, 0, 51, 0
1, 694549, Note_on_c, 0, 87, 76
1, 694555, Note_on_c, 0, 75, 78
1, 694573, Note_on_c, 0, 84, 69
1, 694592, Note_off_c, 0, 75, 61
1, 694607, Note_off_c, 0, 84, 66
1, 694611, Note_on_c, 0, 76, 41
1, 694616, Note_off_c, 0, 87, 64
1, 694638, Note_off_c, 0, 76, 48
1, 694644, Note_on_c, 0, 58, 81
1, 694656, Note_on_c, 0, 53, 65
1, 694657, Note_on_c, 0, 50, 66
1, 694665, Note_off_c, 0, 58, 69
1, 694685, Note_off_c, 0, 50, 64
1, 694688, Note_off_c, 0, 53, 64
1, 694736, Note_on_c, 0, 77, 84
1, 694742, Note_on_c, 0, 86, 79
1, 694749, Note_on_c, 0, 74, 69
1, 694761, Note_off_c, 0, 77, 65
1, 694763, Note_off_c, 0, 86, 68
1, 694766, Note_off_c, 0, 74, 64
1, 694831, Note_on_c, 0, 51, 79
1, 694835, Note_on_c, 0, 86, 88
1, 694837, Note_on_c, 0, 48, 60
1, 694845, Control_c, 0, 64, 41
1, 694847, Note_on_c, 0, 77, 72
1, 694855, Poly_aftertouch_c, 0, 49, 0
1, 694860, Control_c, 0, 64, 73
1, 694864, Note_off_c, 0, 48, 64
1, 694865, Note_off_c, 0, 77, 68
1, 694875, Control_c, 0, 64, 101
1, 694888, Note_off_c, 0, 51, 61
1, 694890, Control_c, 0, 64, 127
1, 694893, Note_off_c, 0, 86, 62
1, 694925, Note_on_c, 0, 84, 75
1, 694949, Control_c, 0, 64, 83
1, 694954, Note_on_c, 0, 75, 36
1, 694964, Control_c, 0, 64, 60
1, 694975, Note_off_c, 0, 84, 64
1, 694978, Control_c, 0, 64, 0
1, 694985, Note_off_c, 0, 75, 33
1, 695004, Note_on_c, 0, 48, 57
1, 695014, Note_on_c, 0, 53, 69
1, 695022, Note_on_c, 0, 74, 79
1, 695022, Note_on_c, 0, 82, 84
1, 695037, Note_off_c, 0, 48, 63
1, 695041, Note_off_c, 0, 82, 71
1, 695043, Note_off_c, 0, 53, 62
1, 695047, Note_off_c, 0, 74, 65
1, 695110, Note_on_c, 0, 81, 80
1, 695115, Note_on_c, 0, 72, 67
1, 695132, Note_off_c, 0, 81, 70
1, 695133, Note_off_c, 0, 72, 67
1, 695199, Note_on_c, 0, 58, 91
1, 695205, Note_on_c, 0, 50, 76
1, 695213, Note_on_c, 0, 70, 88
1, 695215, Note_on_c, 0, 46, 58
1, 695220, Note_off_c, 0, 58, 71
1, 695221, Note_on_c, 0, 80, 79
1, 695225, Note_on_c, 0, 74, 64
1, 695228, Note_off_c, 0, 50, 66
1, 695231, Note_off_c, 0, 70, 73
1, 695231, Control_c, 0, 64, 73
1, 695234, Note_on_c, 0, 81, 79
1, 695240, Note_off_c, 0, 80, 69
1, 695243, Note_off_c, 0, 74, 65
1, 695245, Note_off_c, 0, 46, 59
1, 695246, Control_c, 0, 64, 127
1, 695288, Note_off_c, 0, 81, 60
1, 695371, Control_c, 0, 64, 65
1, 695386, Control_c, 0, 64, 0
1, 695406, Note_on_c, 0, 77, 93
1, 695409, Note_on_c, 0, 86, 98
1, 695412, Note_on_c, 0, 46, 94
1, 695416, Control_c, 0, 64, 41
1, 695422, Note_on_c, 0, 37, 77
1, 695430, Note_off_c, 0, 46, 74
1, 695431, Control_c, 0, 64, 85
1, 695434, Note_on_c, 0, 35, 62
1, 695446, Note_off_c, 0, 37, 61
1, 695446, Control_c, 0, 64, 127
1, 695452, Note_on_c, 0, 47, 42
1, 695456, Note_off_c, 0, 86, 62
1, 695461, Note_off_c, 0, 77, 56
1, 695463, Note_off_c, 0, 35, 56
1, 695484, Note_off_c, 0, 47, 55
1, 695492, Note_on_c, 0, 39, 2
1, 695500, Note_off_c, 0, 39, 0
1, 695515, Note_on_c, 0, 41, 83
1, 695532, Poly_aftertouch_c, 0, 39, 0
1, 695538, Note_on_c, 0, 29, 59
1, 695541, Note_off_c, 0, 41, 67
1, 695565, Note_on_c, 0, 30, 16
1, 695574, Note_off_c, 0, 29, 55
1, 695601, Note_off_c, 0, 30, 0
1, 695611, Note_on_c, 0, 46, 103
1, 695617, Poly_aftertouch_c, 0, 30, 0
1, 695622, Poly_aftertouch_c, 0, 34, 0
1, 695634, Note_off_c, 0, 46, 67
1, 695637, Note_on_c, 0, 37, 47
1, 695670, Note_off_c, 0, 37, 55
1, 695691, Poly_aftertouch_c, 0, 39, 127
1, 695708, Note_on_c, 0, 52, 100
1, 695726, Poly_aftertouch_c, 0, 39, 0
1, 695732, Note_off_c, 0, 52, 66
1, 695746, Note_on_c, 0, 41, 25
1, 695771, Note_off_c, 0, 41, 58
1, 695800, Note_on_c, 0, 70, 96
1, 695804, Note_on_c, 0, 82, 91
1, 695808, Note_on_c, 0, 58, 97
1, 695817, Note_off_c, 0, 70, 72
1, 695819, Note_off_c, 0, 82, 74
1, 695822, Note_on_c, 0, 49, 60
1, 695826, Note_off_c, 0, 58, 73
1, 695845, Note_off_c, 0, 49, 65
1, 695863, Note_on_c, 0, 78, 3
1, 695890, Note_on_c, 0, 65, 96
1, 695899, Note_off_c, 0, 78, 35
1, 695900, Note_on_c, 0, 77, 72
1, 695907, Note_off_c, 0, 65, 74
1, 695908, Note_on_c, 0, 53, 88
1, 695918, Note_on_c, 0, 75, 47
1, 695923, Note_off_c, 0, 77, 69
1, 695928, Note_off_c, 0, 53, 71
1, 695944, Note_off_c, 0, 75, 57
1, 695980, Control_c, 0, 64, 96
1, 695994, Control_c, 0, 64, 64
1, 695997, Note_on_c, 0, 48, 84
1, 696000, Note_on_c, 0, 57, 89
1, 696001, Poly_aftertouch_c, 0, 41, 0
1, 696002, Note_on_c, 0, 75, 98
1, 696006, Note_on_c, 0, 55, 73
1, 696007, Note_on_c, 0, 86, 86
1, 696008, Note_on_c, 0, 84, 80
1, 696009, Control_c, 0, 64, 0
1, 696011, Note_on_c, 0, 50, 68
1, 696020, Note_off_c, 0, 75, 68
1, 696023, Note_on_c, 0, 80, 56
1, 696023, Note_off_c, 0, 80, 127
1, 696023, Note_off_c, 0, 57, 70
1, 696024, Note_off_c, 0, 55, 66
1, 696024, Note_off_c, 0, 48, 68
1, 696024, Note_off_c, 0, 86, 73
1, 696027, Note_off_c, 0, 84, 72
1, 696030, Note_on_c, 0, 83, 49
1, 696041, Note_off_c, 0, 50, 63
1, 696053, Note_off_c, 0, 83, 37
1, 696099, Note_on_c, 0, 75, 91
1, 696103, Note_on_c, 0, 87, 89
1, 696108, Note_on_c, 0, 84, 83
1, 696139, Note_off_c, 0, 84, 56
1, 696144, Note_off_c, 0, 75, 65
1, 696157, Note_off_c, 0, 87, 66
1, 696189, Note_on_c, 0, 58, 63
1, 696193, Note_on_c, 0, 53, 54
1, 696196, Note_on_c, 0, 50, 39
1, 696215, Note_off_c, 0, 58, 65
1, 696217, Note_off_c, 0, 53, 60
1, 696227, Note_off_c, 0, 50, 51
1, 696272, Note_on_c, 0, 77, 82
1, 696278, Note_on_c, 0, 86, 77
1, 696283, Poly_aftertouch_c, 0, 46, 0
1, 696287, Note_on_c, 0, 74, 60
1, 696295, Note_off_c, 0, 77, 68
1, 696304, Note_off_c, 0, 86, 59
1, 696307, Note_off_c, 0, 74, 61
1, 696376, Note_on_c, 0, 86, 88
1, 696377, Note_on_c, 0, 48, 58
1, 696381, Note_on_c, 0, 51, 60
1, 696383, Note_on_c, 0, 39, 35
1, 696388, Note_on_c, 0, 77, 63
1, 696403, Note_off_c, 0, 48, 61
1, 696403, Control_c, 0, 64, 49
1, 696406, Note_off_c, 0, 77, 67
1, 696418, Note_off_c, 0, 39, 44
1, 696418, Control_c, 0, 64, 67
1, 696419, Note_off_c, 0, 51, 64
1, 696427, Note_off_c, 0, 86, 60
1, 696433, Control_c, 0, 64, 72
1, 696448, Control_c, 0, 64, 72
1, 696462, Control_c, 0, 64, 71
1, 696472, Note_on_c, 0, 84, 89
1, 696477, Control_c, 0, 64, 64
1, 696485, Note_on_c, 0, 75, 63
1, 696492, Control_c, 0, 64, 43
1, 696504, Note_off_c, 0, 75, 66
1, 696507, Control_c, 0, 64, 0
1, 696528, Note_off_c, 0, 84, 57
1, 696555, Note_on_c, 0, 48, 40
1, 696568, Note_on_c, 0, 82, 73
1, 696574, Note_on_c, 0, 74, 67
1, 696576, Note_on_c, 0, 51, 52
1, 696577, Note_on_c, 0, 53, 51
1, 696590, Note_off_c, 0, 48, 65
1, 696591, Note_off_c, 0, 82, 69
1, 696600, Note_off_c, 0, 74, 66
1, 696604, Note_off_c, 0, 53, 56
1, 696607, Note_off_c, 0, 51, 63
1, 696657, Note_on_c, 0, 72, 72
1, 696659, Note_on_c, 0, 81, 71
1, 696678, Note_off_c, 0, 81, 67
1, 696679, Note_off_c, 0, 72, 70
1, 696756, Note_on_c, 0, 46, 54
1, 696758, Note_on_c, 0, 82, 82
1, 696758, Control_c, 0, 64, 56
1, 696764, Note_on_c, 0, 70, 72
1, 696766, Note_on_c, 0, 74, 60
1, 696773, Control_c, 0, 64, 76
1, 696784, Note_off_c, 0, 46, 61
1, 696787, Note_off_c, 0, 74, 62
1, 696788, Control_c, 0, 64, 113
1, 696790, Note_off_c, 0, 70, 64
1, 696802, Control_c, 0, 64, 127
1, 696841, Note_off_c, 0, 82, 53
1, 696857, Note_on_c, 0, 77, 65
1, 696861, Note_on_c, 0, 74, 69
1, 696864, Note_on_c, 0, 65, 74
1, 696878, Note_on_c, 0, 62, 54
1, 696888, Note_off_c, 0, 65, 69
1, 696890, Note_off_c, 0, 74, 64
1, 696908, Note_off_c, 0, 77, 59
1, 696913, Note_off_c, 0, 62, 63
1, 696939, Note_on_c, 0, 70, 86
1, 696942, Note_on_c, 0, 82, 90
1, 696954, Note_on_c, 0, 53, 67
1, 696960, Note_off_c, 0, 70, 71
1, 696984, Note_off_c, 0, 82, 65
1, 696999, Note_off_c, 0, 53, 59
1, 697022, Note_on_c, 0, 58, 67
1, 697023, Note_on_c, 0, 65, 79
1, 697026, Note_on_c, 0, 62, 63
1, 697041, Note_off_c, 0, 65, 69
1, 697048, Note_on_c, 0, 86, 85
1, 697049, Note_on_c, 0, 77, 81
1, 697051, Note_off_c, 0, 62, 64
1, 697056, Note_off_c, 0, 58, 65
1, 697068, Note_off_c, 0, 77, 73
1, 697069, Note_off_c, 0, 86, 68
1, 697131, Note_on_c, 0, 86, 84
1, 697138, Note_on_c, 0, 77, 81
1, 697139, Note_on_c, 0, 53, 65
1, 697142, Note_on_c, 0, 55, 72
1, 697155, Note_off_c, 0, 77, 72
1, 697157, Note_on_c, 0, 43, 40
1, 697158, Note_off_c, 0, 53, 65
1, 697166, Control_c, 0, 64, 87
1, 697168, Note_off_c, 0, 55, 67
1, 697178, Note_off_c, 0, 86, 61
1, 697181, Control_c, 0, 64, 59
1, 697189, Note_off_c, 0, 43, 52
1, 697196, Control_c, 0, 64, 0
1, 697221, Note_on_c, 0, 84, 87
1, 697229, Note_on_c, 0, 75, 80
1, 697235, Note_on_c, 0, 65, 78
1, 697243, Note_on_c, 0, 60, 66
1, 697246, Note_on_c, 0, 61, 41
1, 697248, Note_off_c, 0, 75, 71
1, 697256, Note_on_c, 0, 63, 33
1, 697256, Note_off_c, 0, 63, 127
1, 697257, Note_off_c, 0, 65, 71
1, 697264, Note_off_c, 0, 84, 64
1, 697285, Note_off_c, 0, 61, 59
1, 697287, Note_off_c, 0, 60, 60
1, 697314, Note_on_c, 0, 82, 82
1, 697316, Note_on_c, 0, 74, 79
1, 697329, Note_on_c, 0, 53, 65
1, 697338, Note_off_c, 0, 82, 66
1, 697341, Note_off_c, 0, 74, 67
1, 697360, Note_off_c, 0, 53, 63
1, 697400, Note_on_c, 0, 60, 57
1, 697407, Note_on_c, 0, 65, 74
1, 697408, Note_on_c, 0, 72, 89
1, 697411, Note_on_c, 0, 81, 83
1, 697416, Note_on_c, 0, 63, 52
1, 697425, Note_off_c, 0, 65, 67
1, 697429, Note_off_c, 0, 81, 72
1, 697430, Note_off_c, 0, 72, 66
1, 697432, Note_off_c, 0, 60, 65
1, 697440, Note_off_c, 0, 63, 61
1, 697478, Control_c, 0, 64, 66
1, 697493, Control_c, 0, 64, 127
1, 697500, Note_on_c, 0, 82, 102
1, 697504, Note_on_c, 0, 74, 78
1, 697507, Note_on_c, 0, 46, 80
1, 697512, Note_on_c, 0, 70, 76
1, 697532, Note_off_c, 0, 46, 67
1, 697536, Note_off_c, 0, 70, 67
1, 697537, Note_off_c, 0, 74, 61
1, 697565, Note_off_c, 0, 82, 50
1, 697592, Note_on_c, 0, 78, 83
1, 697601, Note_on_c, 0, 74, 66
1, 697603, Poly_aftertouch_c, 0, 80, 0
1, 697609, Note_on_c, 0, 65, 82
1, 697610, Note_off_c, 0, 78, 71
1, 697623, Note_on_c, 0, 62, 62
1, 697630, Note_on_c, 0, 77, 57
1, 697633, Note_off_c, 0, 65, 66
1, 697655, Note_off_c, 0, 74, 62
1, 697660, Note_off_c, 0, 77, 56
1, 697663, Note_off_c, 0, 62, 62
1, 697681, Note_on_c, 0, 70, 93
1, 697684, Note_on_c, 0, 82, 85
1, 697695, Note_off_c, 0, 70, 77
1, 697697, Note_on_c, 0, 53, 75
1, 697726, Note_off_c, 0, 82, 66
1, 697743, Note_off_c, 0, 53, 59
1, 697767, Note_on_c, 0, 65, 75
1, 697768, Note_on_c, 0, 62, 68
1, 697774, Note_on_c, 0, 58, 70
1, 697786, Note_on_c, 0, 77, 87
1, 697787, Note_on_c, 0, 86, 86
1, 697796, Note_off_c, 0, 65, 66
1, 697797, Note_off_c, 0, 62, 65
1, 697804, Note_off_c, 0, 58, 59
1, 697804, Note_off_c, 0, 77, 72
1, 697804, Note_off_c, 0, 86, 70
1, 697816, Note_on_c, 0, 84, 39
1, 697842, Note_off_c, 0, 84, 57
1, 697873, Note_on_c, 0, 79, 75
1, 697873, Note_on_c, 0, 86, 97
1, 697876, Note_on_c, 0, 55, 84
1, 697888, Note_on_c, 0, 85, 63
1, 697889, Note_on_c, 0, 53, 52
1, 697893, Note_on_c, 0, 43, 47
1, 697896, Note_off_c, 0, 55, 72
1, 697899, Note_off_c, 0, 79, 69
1, 697905, Note_on_c, 0, 77, 40
1, 697905, Note_off_c, 0, 77, 127
1, 697911, Note_off_c, 0, 85, 66
1, 697912, Note_off_c, 0, 53, 60
1, 697920, Note_off_c, 0, 86, 63
1, 697923, Note_off_c, 0, 43, 58
1, 697963, Note_on_c, 0, 85, 93
1, 697975, Note_on_c, 0, 65, 83
1, 697987, Note_on_c, 0, 60, 58
1, 698004, Note_off_c, 0, 65, 65
1, 698027, Note_on_c, 0, 61, 5
1, 698033, Note_off_c, 0, 85, 56
1, 698048, Poly_aftertouch_c, 0, 76, 0
1, 698065, Note_on_c, 0, 82, 80
1, 698069, Note_on_c, 0, 53, 69
1, 698071, Note_on_c, 0, 76, 22
1, 698072, Poly_aftertouch_c, 0, 63, 0
1, 698078, Note_off_c, 0, 60, 63
1, 698081, Poly_aftertouch_c, 0, 77, 0
1, 698081, Note_off_c, 0, 61, 26
1, 698104, Note_off_c, 0, 76, 55
1, 698112, Note_off_c, 0, 82, 58
1, 698114, Note_off_c, 0, 53, 55
1, 698139, Note_on_c, 0, 60, 73
1, 698144, Note_on_c, 0, 81, 89
1, 698147, Note_on_c, 0, 65, 80
1, 698157, Note_on_c, 0, 72, 79
1, 698166, Note_off_c, 0, 65, 69
1, 698176, Note_off_c, 0, 72, 71
1, 698179, Note_on_c, 0, 62, 36
1, 698179, Note_off_c, 0, 60, 62
1, 698182, Control_c, 0, 64, 92
1, 698184, Note_off_c, 0, 81, 66
1, 698197, Control_c, 0, 64, 55
1, 698206, Note_off_c, 0, 62, 53
1, 698212, Control_c, 0, 64, 0
1, 698256, Control_c, 0, 64, 62
1, 698258, Note_on_c, 0, 86, 99
1, 698259, Note_on_c, 0, 77, 84
1, 698260, Note_on_c, 0, 53, 95
1, 698263, Note_on_c, 0, 74, 87
1, 698271, Control_c, 0, 64, 127
1, 698276, Note_on_c, 0, 43, 64
1, 698281, Note_off_c, 0, 53, 66
1, 698281, Note_off_c, 0, 74, 73
1, 698296, Note_off_c, 0, 77, 61
1, 698301, Note_off_c, 0, 43, 63
1, 698303, Note_off_c, 0, 86, 62
1, 698352, Poly_aftertouch_c, 0, 49, 0
1, 698379, Note_on_c, 0, 58, 89
1, 698380, Note_on_c, 0, 62, 93
1, 698398, Note_off_c, 0, 62, 72
1, 698402, Note_off_c, 0, 58, 65
1, 698419, Note_on_c, 0, 53, 23
1, 698446, Note_off_c, 0, 53, 0
1, 698459, Note_on_c, 0, 53, 51
1, 698467, Note_on_c, 0, 62, 76
1, 698481, Note_off_c, 0, 62, 72
1, 698495, Note_off_c, 0, 53, 63
1, 698518, Note_on_c, 0, 58, 3
1, 698550, Note_off_c, 0, 58, 54
1, 698558, Note_on_c, 0, 70, 92
1, 698564, Note_on_c, 0, 82, 87
1, 698581, Note_off_c, 0, 70, 64
1, 698606, Note_off_c, 0, 82, 60
1, 698619, Control_c, 0, 64, 104
1, 698634, Control_c, 0, 64, 61
1, 698650, Control_c, 0, 64, 0
1, 698661, Note_on_c, 0, 41, 97
1, 698665, Control_c, 0, 64, 40
1, 698679, Note_on_c, 0, 75, 98
1, 698679, Control_c, 0, 64, 65
1, 698680, Note_on_c, 0, 81, 97
1, 698682, Note_on_c, 0, 87, 108
1, 698691, Note_off_c, 0, 41, 65
1, 698694, Control_c, 0, 64, 127
1, 698704, Note_on_c, 0, 29, 10
1, 698758, Note_off_c, 0, 29, 43
1, 698758, Note_off_c, 0, 81, 63
1, 698761, Note_off_c, 0, 87, 63
1, 698793, Note_off_c, 0, 75, 55
1, 698802, Note_on_c, 0, 63, 82
1, 698808, Note_on_c, 0, 53, 58
1, 698809, Note_on_c, 0, 57, 70
1, 698823, Note_off_c, 0, 63, 68
1, 698838, Note_off_c, 0, 53, 54
1, 698861, Note_off_c, 0, 57, 60
1, 698892, Note_on_c, 0, 63, 84
1, 698894, Note_on_c, 0, 57, 63
1, 698904, Note_on_c, 0, 53, 67
1, 698915, Note_off_c, 0, 63, 70
1, 698928, Note_off_c, 0, 57, 64
1, 698934, Note_off_c, 0, 53, 66
1, 698996, Note_on_c, 0, 75, 87
1, 698999, Note_on_c, 0, 72, 87
1, 698999, Note_on_c, 0, 84, 94
1, 699018, Note_off_c, 0, 84, 66
1, 699026, Note_on_c, 0, 74, 50
1, 699026, Note_off_c, 0, 74, 127
1, 699035, Note_on_c, 0, 82, 28
1, 699044, Note_off_c, 0, 72, 58
1, 699057, Note_off_c, 0, 75, 51
1, 699065, Control_c, 0, 64, 108
1, 699077, Note_off_c, 0, 82, 45
1, 699086, Control_c, 0, 64, 64
1, 699101, Control_c, 0, 64, 0
1, 699124, Note_on_c, 0, 41, 97
1, 699130, Control_c, 0, 64, 58
1, 699137, Note_on_c, 0, 74, 91
1, 699139, Note_on_c, 0, 70, 95
1, 699141, Note_on_c, 0, 82, 98
1, 699145, Control_c, 0, 64, 81
1, 699155, Note_off_c, 0, 70, 73
1, 699160, Control_c, 0, 64, 127
1, 699161, Note_off_c, 0, 41, 66
1, 699178, Note_off_c, 0, 74, 63
1, 699196, Note_off_c, 0, 82, 67
1, 699210, Poly_aftertouch_c, 0, 29, 0
1, 699247, Poly_aftertouch_c, 0, 29, 0
1, 699288, Note_on_c, 0, 58, 77
1, 699288, Note_on_c, 0, 60, 75
1, 699289, Note_on_c, 0, 77, 106
1, 699290, Note_on_c, 0, 86, 100
1, 699291, Note_on_c, 0, 89, 99
1, 699293, Note_on_c, 0, 53, 66
1, 699295, Note_on_c, 0, 62, 71
1, 699306, Note_off_c, 0, 77, 69
1, 699307, Note_on_c, 0, 79, 71
1, 699307, Note_off_c, 0, 79, 127
1, 699313, Note_off_c, 0, 60, 69
1, 699316, Note_off_c, 0, 58, 60
1, 699324, Note_off_c, 0, 62, 64
1, 699329, Note_off_c, 0, 53, 61
1, 699336, Note_off_c, 0, 89, 58
1, 699339, Note_off_c, 0, 86, 60
1, 699423, Note_on_c, 0, 62, 85
1, 699429, Note_on_c, 0, 58, 84
1, 699433, Note_on_c, 0, 86, 94
1, 699435, Note_on_c, 0, 53, 70
1, 699437, Note_on_c, 0, 82, 87
1, 699437, Note_on_c, 0, 92, 91
1, 699449, Note_on_c, 0, 93, 83
1, 699450, Note_off_c, 0, 82, 72
1, 699451, Note_off_c, 0, 92, 71
1, 699470, Note_off_c, 0, 93, 68
1, 699475, Note_off_c, 0, 86, 60
1, 699476, Note_off_c, 0, 62, 61
1, 699498, Note_off_c, 0, 58, 57
1, 699507, Note_off_c, 0, 53, 55
1, 699566, Note_on_c, 0, 58, 71
1, 699571, Note_on_c, 0, 62, 77
1, 699576, Note_on_c, 0, 89, 106
1, 699577, Note_on_c, 0, 53, 38
1, 699577, Note_on_c, 0, 98, 106
1, 699583, Note_on_c, 0, 86, 90
1, 699592, Note_off_c, 0, 62, 69
1, 699601, Note_off_c, 0, 86, 70
1, 699604, Note_on_c, 0, 90, 51
1, 699604, Note_off_c, 0, 90, 127
1, 699615, Note_on_c, 0, 88, 41
1, 699615, Note_off_c, 0, 88, 127
1, 699626, Note_off_c, 0, 58, 62
1, 699659, Note_off_c, 0, 98, 63
1, 699663, Note_off_c, 0, 53, 54
1, 699678, Note_off_c, 0, 89, 62
1, 699709, Control_c, 0, 64, 69
1, 699724, Control_c, 0, 64, 0
1, 699732, Note_on_c, 0, 63, 99
1, 699736, Note_on_c, 0, 57, 82
1, 699739, Control_c, 0, 64, 40
1, 699753, Note_on_c, 0, 98, 103
1, 699753, Control_c, 0, 64, 77
1, 699754, Note_off_c, 0, 63, 68
1, 699755, Note_on_c, 0, 89, 90
1, 699757, Note_on_c, 0, 53, 64
1, 699757, Note_on_c, 0, 86, 98
1, 699759, Note_on_c, 0, 90, 94
1, 699765, Note_off_c, 0, 57, 67
1, 699768, Control_c, 0, 64, 127
1, 699783, Note_on_c, 0, 96, 50
1, 699783, Note_off_c, 0, 96, 127
1, 699784, Note_off_c, 0, 53, 65
1, 699834, Note_off_c, 0, 90, 47
1, 699836, Note_off_c, 0, 98, 63
1, 699838, Note_off_c, 0, 86, 58
1, 699856, Note_off_c, 0, 89, 62
1, 699947, Note_on_c, 0, 53, 107
1, 699955, Note_on_c, 0, 45, 87
1, 699962, Note_on_c, 0, 87, 97
1, 699964, Note_on_c, 0, 84, 98
1, 699964, Note_on_c, 0, 96, 101
1, 699970, Note_on_c, 0, 41, 55
1, 699977, Note_on_c, 0, 86, 74
1, 699982, Note_on_c, 0, 94, 65
1, 699995, Note_off_c, 0, 41, 57
1, 699996, Note_off_c, 0, 86, 40
1, 700000, Note_off_c, 0, 84, 50
1, 700000, Note_off_c, 0, 94, 64
1, 700012, Note_off_c, 0, 53, 61
1, 700016, Note_off_c, 0, 96, 59
1, 700031, Note_off_c, 0, 87, 56
1, 700040, Note_off_c, 0, 45, 61
1, 700202, Note_on_c, 0, 53, 122
1, 700204, Note_on_c, 0, 45, 89
1, 700205, Note_on_c, 0, 86, 104
1, 700210, Note_on_c, 0, 82, 106
1, 700212, Note_on_c, 0, 94, 99
1, 700215, Note_on_c, 0, 41, 81
1, 700238, Note_on_c, 0, 92, 52
1, 700242, Note_on_c, 0, 44, 33
1, 700242, Note_off_c, 0, 44, 127
1, 700253, Note_off_c, 0, 53, 62
1, 700264, Note_on_c, 0, 43, 27
1, 700267, Note_off_c, 0, 94, 68
1, 700273, Note_off_c, 0, 92, 50
1, 700275, Note_off_c, 0, 82, 68
1, 700276, Note_off_c, 0, 41, 60
1, 700285, Note_off_c, 0, 45, 63
1, 700292, Note_off_c, 0, 86, 59
1, 700293, Poly_aftertouch_c, 0, 44, 0
1, 700303, Note_off_c, 0, 43, 48
1, 700475, Poly_aftertouch_c, 0, 32, 127
1, 700499, Poly_aftertouch_c, 0, 32, 0
1, 700512, Note_on_c, 0, 32, 62
1, 700514, Note_on_c, 0, 41, 102
1, 700519, Note_on_c, 0, 84, 101
1, 700521, Note_on_c, 0, 81, 108
1, 700521, Note_on_c, 0, 93, 105
1, 700545, Note_on_c, 0, 30, 58
1, 700553, Note_on_c, 0, 29, 40
1, 700583, Note_off_c, 0, 32, 62
1, 700585, Note_off_c, 0, 30, 53
1, 700592, Note_off_c, 0, 41, 66
1, 700595, Note_off_c, 0, 81, 68
1, 700600, Note_off_c, 0, 29, 53
1, 700607, Note_off_c, 0, 93, 65
1, 700631, Note_off_c, 0, 84, 64
1, 700633, Poly_aftertouch_c, 0, 35, 0
1, 700654, Poly_aftertouch_c, 0, 35, 0
1, 700829, Note_on_c, 0, 46, 69
1, 700856, Note_on_c, 0, 50, 76
1, 700866, Control_c, 0, 64, 96
1, 700881, Control_c, 0, 64, 57
1, 700891, Note_off_c, 0, 46, 64
1, 700895, Control_c, 0, 64, 0
1, 700907, Note_on_c, 0, 58, 105
1, 700916, Note_on_c, 0, 86, 96
1, 700917, Note_on_c, 0, 82, 110
1, 700919, Note_on_c, 0, 94, 104
1, 700925, Control_c, 0, 64, 55
1, 700939, Note_off_c, 0, 58, 68
1, 700940, Control_c, 0, 64, 116
1, 700944, Note_on_c, 0, 52, 36
1, 700949, Note_on_c, 0, 92, 54
1, 700954, Note_off_c, 0, 94, 69
1, 700955, Control_c, 0, 64, 127
1, 700963, Note_off_c, 0, 50, 63
1, 700978, Note_off_c, 0, 92, 54
1, 700982, Note_off_c, 0, 52, 54
1, 700986, Note_off_c, 0, 82, 67
1, 701005, Note_off_c, 0, 86, 61
1, 701161, Note_on_c, 0, 47, 105
1, 701172, Note_on_c, 0, 35, 89
1, 701193, Note_on_c, 0, 36, 57
1, 701201, Note_on_c, 0, 39, 36
1, 701205, Note_on_c, 0, 37, 31
1, 701229, Note_off_c, 0, 35, 60
1, 701235, Note_off_c, 0, 47, 64
1, 701241, Note_off_c, 0, 36, 47
1, 701242, Note_off_c, 0, 39, 49
1, 701251, Poly_aftertouch_c, 0, 42, 127
1, 701280, Poly_aftertouch_c, 0, 42, 0
1, 701309, Note_off_c, 0, 37, 32
1, 701356, Note_on_c, 0, 46, 119
1, 701366, Note_on_c, 0, 34, 90
1, 701375, Note_on_c, 0, 37, 59
1, 701387, Note_on_c, 0, 39, 39
1, 701394, Note_off_c, 0, 34, 68
1, 701405, Note_off_c, 0, 37, 57
1, 701416, Note_off_c, 0, 46, 64
1, 701417, Note_off_c, 0, 39, 58
1, 701503, Note_on_c, 0, 47, 103
1, 701517, Note_on_c, 0, 35, 80
1, 701520, Note_on_c, 0, 39, 70
1, 701537, Note_on_c, 0, 37, 32
1, 701560, Note_off_c, 0, 35, 58
1, 701572, Note_off_c, 0, 47, 59
1, 701593, Note_off_c, 0, 37, 43
1, 701607, Note_off_c, 0, 39, 56
1, 701630, Control_c, 0, 64, 90
1, 701644, Control_c, 0, 64, 38
1, 701649, Note_on_c, 0, 46, 108
1, 701657, Note_on_c, 0, 58, 104
1, 701658, Note_on_c, 0, 62, 94
1, 701658, Note_on_c, 0, 70, 93
1, 701659, Control_c, 0, 64, 0
1, 701661, Note_on_c, 0, 65, 89
1, 701663, Note_on_c, 0, 34, 77
1, 701674, Control_c, 0, 64, 45
1, 701687, Note_off_c, 0, 34, 66
1, 701689, Control_c, 0, 64, 73
1, 701704, Control_c, 0, 64, 127
1, 701706, Note_off_c, 0, 70, 67
1, 701714, Note_off_c, 0, 46, 68
1, 701727, Note_off_c, 0, 58, 64
1, 701760, Note_off_c, 0, 62, 56
1, 701765, Poly_aftertouch_c, 0, 44, 0
1, 701808, Note_off_c, 0, 65, 48
1, 701810, Note_on_c, 0, 51, 90
1, 701841, Note_on_c, 0, 40, 44
1, 701852, Note_on_c, 0, 42, 23
1, 701876, Note_off_c, 0, 40, 50
1, 701879, Note_off_c, 0, 51, 60
1, 701894, Note_on_c, 0, 52, 2
1, 701896, Note_off_c, 0, 42, 52
1, 701936, Note_off_c, 0, 52, 48
1, 701941, Control_c, 0, 64, 82
1, 701956, Control_c, 0, 64, 55
1, 701971, Control_c, 0, 64, 0
1, 701971, Note_on_c, 0, 50, 75
1, 701982, Note_on_c, 0, 65, 53
1, 701982, Note_on_c, 0, 70, 56
1, 701988, Note_on_c, 0, 38, 58
1, 701988, Note_on_c, 0, 62, 51
1, 702001, Note_on_c, 0, 58, 40
1, 702001, Note_off_c, 0, 50, 65
1, 702011, Note_off_c, 0, 70, 55
1, 702016, Note_off_c, 0, 38, 61
1, 702022, Note_off_c, 0, 58, 59
1, 702028, Note_off_c, 0, 65, 61
1, 702031, Note_off_c, 0, 62, 61
1, 702103, Note_on_c, 0, 58, 57
1, 702110, Note_on_c, 0, 70, 61
1, 702124, Note_on_c, 0, 47, 56
1, 702129, Note_off_c, 0, 58, 64
1, 702141, Note_on_c, 0, 65, 20
1, 702148, Note_off_c, 0, 47, 60
1, 702152, Note_off_c, 0, 70, 64
1, 702177, Note_off_c, 0, 65, 39
1, 702251, Note_on_c, 0, 63, 69
1, 702255, Note_on_c, 0, 46, 60
1, 702261, Note_on_c, 0, 66, 53
1, 702267, Note_on_c, 0, 34, 42
1, 702270, Note_on_c, 0, 70, 47
1, 702274, Note_off_c, 0, 63, 63
1, 702278, Note_on_c, 0, 75, 23
1, 702280, Note_off_c, 0, 46, 60
1, 702291, Note_off_c, 0, 66, 55
1, 702292, Note_off_c, 0, 75, 39
1, 702296, Note_off_c, 0, 70, 50
1, 702298, Note_off_c, 0, 34, 52
1, 702375, Note_on_c, 0, 47, 59
1, 702400, Note_off_c, 0, 47, 60
1, 702408, Note_on_c, 0, 35, 19
1, 702454, Note_off_c, 0, 35, 35
1, 702511, Note_on_c, 0, 75, 67
1, 702513, Note_on_c, 0, 46, 59
1, 702516, Note_on_c, 0, 70, 62
1, 702520, Note_on_c, 0, 63, 54
1, 702523, Note_on_c, 0, 66, 52
1, 702524, Note_on_c, 0, 34, 43
1, 702539, Note_off_c, 0, 46, 61
1, 702543, Note_off_c, 0, 70, 63
1, 702547, Note_off_c, 0, 66, 56
1, 702550, Note_off_c, 0, 63, 55
1, 702555, Note_off_c, 0, 75, 48
1, 702556, Note_off_c, 0, 34, 49
1, 702613, Note_on_c, 0, 47, 62
1, 702651, Note_off_c, 0, 47, 63
1, 702714, Poly_aftertouch_c, 0, 35, 0
1, 702741, Note_on_c, 0, 46, 77
1, 702749, Control_c, 0, 64, 60
1, 702754, Note_on_c, 0, 75, 63
1, 702764, Control_c, 0, 64, 127
1, 702770, Note_off_c, 0, 46, 65
1, 702780, Note_on_c, 0, 34, 7
1, 702788, Note_off_c, 0, 75, 61
1, 702836, Note_off_c, 0, 34, 48
1, 702875, Note_on_c, 0, 51, 59
1, 702892, Note_on_c, 0, 39, 41
1, 702899, Note_off_c, 0, 51, 61
1, 702930, Note_off_c, 0, 39, 46
1, 702949, Control_c, 0, 64, 76
1, 702964, Control_c, 0, 64, 35
1, 702978, Note_on_c, 0, 70, 63
1, 702979, Note_on_c, 0, 66, 66
1, 702979, Control_c, 0, 64, 0
1, 702979, Note_on_c, 0, 78, 64
1, 702985, Note_on_c, 0, 50, 45
1, 702992, Note_on_c, 0, 38, 51
1, 702997, Note_off_c, 0, 78, 66
1, 702998, Note_off_c, 0, 66, 64
1, 702998, Note_off_c, 0, 70, 65
1, 703012, Note_off_c, 0, 50, 56
1, 703025, Note_off_c, 0, 38, 49
1, 703073, Note_on_c, 0, 66, 62
1, 703075, Note_on_c, 0, 63, 69
1, 703078, Note_on_c, 0, 75, 63
1, 703089, Note_on_c, 0, 47, 65
1, 703095, Note_off_c, 0, 63, 64
1, 703096, Note_off_c, 0, 75, 66
1, 703103, Note_off_c, 0, 66, 65
1, 703104, Note_on_c, 0, 35, 47
1, 703112, Note_off_c, 0, 47, 65
1, 703138, Note_off_c, 0, 35, 47
1, 703175, Note_on_c, 0, 65, 76
1, 703177, Note_on_c, 0, 74, 82
1, 703187, Note_on_c, 0, 46, 72
1, 703199, Note_on_c, 0, 34, 51
1, 703200, Note_off_c, 0, 65, 70
1, 703200, Note_off_c, 0, 74, 68
1, 703215, Note_off_c, 0, 46, 65
1, 703229, Note_off_c, 0, 34, 57
1, 703288, Note_on_c, 0, 47, 70
1, 703314, Note_off_c, 0, 47, 66
1, 703388, Note_on_c, 0, 82, 78
1, 703392, Note_on_c, 0, 74, 63
1, 703393, Note_on_c, 0, 46, 75
1, 703393, Note_on_c, 0, 70, 59
1, 703405, Note_on_c, 0, 77, 37
1, 703410, Note_on_c, 0, 34, 41
1, 703411, Note_off_c, 0, 74, 64
1, 703411, Note_off_c, 0, 82, 66
1, 703412, Note_off_c, 0, 70, 62
1, 703418, Note_off_c, 0, 46, 65
1, 703437, Note_off_c, 0, 77, 55
1, 703447, Note_off_c, 0, 34, 47
1, 703494, Note_on_c, 0, 47, 69
1, 703510, Note_on_c, 0, 35, 49
1, 703522, Note_off_c, 0, 47, 66
1, 703542, Note_off_c, 0, 35, 50
1, 703590, Note_on_c, 0, 46, 90
1, 703594, Control_c, 0, 64, 69
1, 703599, Note_on_c, 0, 70, 91
1, 703601, Note_on_c, 0, 77, 74
1, 703602, Note_on_c, 0, 74, 84
1, 703602, Note_on_c, 0, 82, 89
1, 703609, Control_c, 0, 64, 127
1, 703614, Note_on_c, 0, 34, 38
1, 703615, Note_off_c, 0, 46, 67
1, 703653, Note_off_c, 0, 34, 52
1, 703667, Note_off_c, 0, 70, 49
1, 703676, Note_off_c, 0, 74, 51
1, 703682, Note_off_c, 0, 82, 59
1, 703703, Note_on_c, 0, 51, 76
1, 703707, Note_off_c, 0, 77, 52
1, 703727, Note_off_c, 0, 51, 66
1, 703729, Note_on_c, 0, 39, 53
1, 703757, Control_c, 0, 64, 110
1, 703760, Note_off_c, 0, 39, 54
1, 703772, Control_c, 0, 64, 69
1, 703787, Control_c, 0, 64, 0
1, 703797, Note_on_c, 0, 70, 70
1, 703797, Note_on_c, 0, 74, 67
1, 703807, Note_on_c, 0, 82, 61
1, 703810, Note_on_c, 0, 77, 56
1, 703818, Note_off_c, 0, 70, 67
1, 703825, Note_on_c, 0, 50, 42
1, 703827, Note_off_c, 0, 74, 64
1, 703827, Note_off_c, 0, 82, 61
1, 703830, Note_off_c, 0, 77, 63
1, 703841, Note_on_c, 0, 48, 31
1, 703844, Note_on_c, 0, 38, 15
1, 703844, Note_off_c, 0, 38, 127
1, 703859, Note_off_c, 0, 50, 51
1, 703885, Note_off_c, 0, 48, 31
1, 703889, Note_on_c, 0, 78, 71
1, 703891, Note_on_c, 0, 70, 40
1, 703895, Note_on_c, 0, 82, 69
1, 703906, Note_on_c, 0, 47, 68
1, 703912, Note_off_c, 0, 78, 70
1, 703915, Note_off_c, 0, 70, 36
1, 703920, Note_off_c, 0, 82, 68
1, 703927, Note_off_c, 0, 47, 62
1, 703930, Note_on_c, 0, 35, 39
1, 703968, Note_off_c, 0, 35, 45
1, 703989, Note_on_c, 0, 46, 88
1, 703998, Note_on_c, 0, 87, 92
1, 704000, Note_on_c, 0, 75, 79
1, 704001, Note_on_c, 0, 34, 66
1, 704003, Note_on_c, 0, 82, 76
1, 704013, Note_off_c, 0, 46, 70
1, 704021, Note_off_c, 0, 75, 71
1, 704025, Note_on_c, 0, 37, 17
1, 704028, Note_off_c, 0, 82, 63
1, 704028, Note_off_c, 0, 34, 65
1, 704059, Note_off_c, 0, 87, 46
1, 704076, Note_off_c, 0, 37, 28
1, 704093, Note_on_c, 0, 47, 79
1, 704115, Note_on_c, 0, 35, 46
1, 704117, Note_off_c, 0, 47, 68
1, 704151, Note_off_c, 0, 35, 44
1, 704189, Note_on_c, 0, 87, 81
1, 704189, Note_on_c, 0, 75, 80
1, 704192, Note_on_c, 0, 78, 76
1, 704192, Note_on_c, 0, 82, 74
1, 704194, Note_on_c, 0, 46, 82
1, 704204, Note_on_c, 0, 34, 59
1, 704206, Note_on_c, 0, 37, 57
1, 704216, Note_off_c, 0, 46, 68
1, 704221, Note_off_c, 0, 75, 57
1, 704222, Note_off_c, 0, 78, 58
1, 704234, Note_off_c, 0, 82, 55
1, 704234, Note_off_c, 0, 34, 60
1, 704243, Note_off_c, 0, 37, 53
1, 704248, Note_off_c, 0, 87, 57
1, 704296, Note_on_c, 0, 47, 73
1, 704328, Note_on_c, 0, 35, 39
1, 704328, Note_off_c, 0, 47, 65
1, 704366, Note_off_c, 0, 35, 41
1, 704387, Control_c, 0, 64, 51
1, 704395, Note_on_c, 0, 46, 89
1, 704396, Note_on_c, 0, 82, 81
1, 704396, Note_on_c, 0, 87, 84
1, 704398, Note_on_c, 0, 78, 74
1, 704402, Control_c, 0, 64, 127
1, 704410, Note_on_c, 0, 75, 59
1, 704415, Note_on_c, 0, 34, 47
1, 704418, Note_off_c, 0, 82, 64
1, 704420, Note_off_c, 0, 78, 70
1, 704423, Note_off_c, 0, 46, 62
1, 704428, Note_off_c, 0, 75, 64
1, 704446, Note_off_c, 0, 34, 52
1, 704446, Note_off_c, 0, 87, 62
1, 704502, Note_on_c, 0, 51, 79
1, 704508, Poly_aftertouch_c, 0, 37, 0
1, 704528, Note_off_c, 0, 51, 68
1, 704538, Note_on_c, 0, 39, 39
1, 704577, Note_off_c, 0, 39, 51
1, 704582, Poly_aftertouch_c, 0, 42, 0
1, 704591, Note_on_c, 0, 90, 78
1, 704595, Note_on_c, 0, 78, 75
1, 704600, Note_on_c, 0, 82, 63
1, 704609, Note_off_c, 0, 90, 72
1, 704611, Note_on_c, 0, 48, 74
1, 704611, Poly_aftertouch_c, 0, 42, 0
1, 704615, Note_off_c, 0, 78, 67
1, 704618, Note_off_c, 0, 82, 63
1, 704627, Note_on_c, 0, 36, 54
1, 704639, Note_off_c, 0, 48, 67
1, 704658, Note_off_c, 0, 36, 54
1, 704675, Note_on_c, 0, 87, 82
1, 704677, Note_on_c, 0, 75, 71
1, 704695, Note_off_c, 0, 75, 68
1, 704698, Control_c, 0, 64, 78
1, 704699, Note_off_c, 0, 87, 66
1, 704699, Note_on_c, 0, 47, 69
1, 704713, Note_on_c, 0, 35, 57
1, 704713, Control_c, 0, 64, 43
1, 704719, Note_off_c, 0, 47, 63
1, 704728, Control_c, 0, 64, 0
1, 704741, Note_off_c, 0, 35, 57
1, 704772, Control_c, 0, 64, 65
1, 704774, Note_on_c, 0, 86, 85
1, 704787, Control_c, 0, 64, 103
1, 704790, Note_on_c, 0, 76, 58
1, 704791, Note_on_c, 0, 46, 71
1, 704799, Note_on_c, 0, 34, 57
1, 704799, Note_off_c, 0, 86, 63
1, 704802, Control_c, 0, 64, 127
1, 704807, Note_on_c, 0, 37, 39
1, 704810, Note_off_c, 0, 76, 61
1, 704816, Note_off_c, 0, 46, 66
1, 704830, Note_off_c, 0, 34, 61
1, 704843, Note_off_c, 0, 37, 53
1, 704863, Poly_aftertouch_c, 0, 44, 127
1, 704878, Note_on_c, 0, 47, 84
1, 704891, Poly_aftertouch_c, 0, 44, 0
1, 704903, Note_on_c, 0, 35, 42
1, 704903, Note_off_c, 0, 47, 68
1, 704946, Note_off_c, 0, 35, 43
1, 704962, Note_on_c, 0, 77, 96
1, 704963, Note_on_c, 0, 86, 90
1, 704964, Note_on_c, 0, 89, 93
1, 704973, Note_on_c, 0, 46, 80
1, 704988, Note_on_c, 0, 34, 48
1, 704996, Note_off_c, 0, 46, 68
1, 704997, Note_off_c, 0, 86, 55
1, 705000, Note_off_c, 0, 77, 57
1, 705011, Note_on_c, 0, 37, 21
1, 705017, Note_off_c, 0, 89, 59
1, 705024, Note_off_c, 0, 34, 52
1, 705074, Note_on_c, 0, 47, 80
1, 705077, Note_off_c, 0, 37, 44
1, 705094, Note_on_c, 0, 35, 49
1, 705098, Note_off_c, 0, 47, 70
1, 705106, Control_c, 0, 64, 94
1, 705121, Control_c, 0, 64, 62
1, 705124, Note_off_c, 0, 35, 54
1, 705136, Control_c, 0, 64, 0
1, 705151, Control_c, 0, 64, 57
1, 705161, Note_on_c, 0, 46, 88
1, 705166, Control_c, 0, 64, 78
1, 705168, Note_on_c, 0, 78, 94
1, 705168, Note_on_c, 0, 90, 94
1, 705179, Note_on_c, 0, 87, 72
1, 705180, Note_on_c, 0, 82, 70
1, 705180, Control_c, 0, 64, 127
1, 705185, Note_on_c, 0, 34, 42
1, 705186, Note_off_c, 0, 46, 69
1, 705195, Note_off_c, 0, 78, 56
1, 705196, Note_off_c, 0, 87, 67
1, 705197, Note_off_c, 0, 82, 66
1, 705199, Note_off_c, 0, 90, 60
1, 705218, Note_off_c, 0, 34, 58
1, 705257, Note_on_c, 0, 54, 89
1, 705280, Note_off_c, 0, 54, 66
1, 705281, Note_on_c, 0, 42, 59
1, 705296, Note_on_c, 0, 82, 41
1, 705308, Note_off_c, 0, 42, 57
1, 705330, Note_off_c, 0, 82, 48
1, 705333, Poly_aftertouch_c, 0, 44, 127
1, 705345, Poly_aftertouch_c, 0, 46, 127
1, 705372, Note_on_c, 0, 87, 85
1, 705377, Note_on_c, 0, 78, 72
1, 705379, Poly_aftertouch_c, 0, 46, 0
1, 705382, Note_on_c, 0, 39, 58
1, 705388, Note_on_c, 0, 49, 42
1, 705397, Note_on_c, 0, 42, 34
1, 705397, Note_off_c, 0, 42, 127
1, 705399, Poly_aftertouch_c, 0, 44, 0
1, 705401, Note_off_c, 0, 78, 69
1, 705404, Note_on_c, 0, 81, 41
1, 705409, Note_off_c, 0, 87, 61
1, 705414, Note_off_c, 0, 39, 62
1, 705420, Note_on_c, 0, 76, 23
1, 705422, Note_off_c, 0, 49, 55
1, 705436, Note_off_c, 0, 81, 51
1, 705447, Poly_aftertouch_c, 0, 50, 127
1, 705460, Note_on_c, 0, 47, 85
1, 705466, Note_off_c, 0, 76, 49
1, 705479, Note_on_c, 0, 35, 63
1, 705485, Poly_aftertouch_c, 0, 50, 0
1, 705486, Note_off_c, 0, 47, 67
1, 705504, Note_off_c, 0, 35, 60
1, 705506, Control_c, 0, 64, 76
1, 705521, Control_c, 0, 64, 36
1, 705536, Control_c, 0, 64, 0
1, 705543, Note_on_c, 0, 46, 102
1, 705545, Note_on_c, 0, 77, 89
1, 705551, Control_c, 0, 64, 52
1, 705552, Note_on_c, 0, 86, 85
1, 705554, Note_on_c, 0, 37, 73
1, 705554, Note_on_c, 0, 82, 81
1, 705557, Note_on_c, 0, 34, 69
1, 705565, Note_off_c, 0, 46, 70
1, 705565, Control_c, 0, 64, 71
1, 705580, Note_off_c, 0, 37, 60
1, 705580, Note_off_c, 0, 77, 63
1, 705580, Control_c, 0, 64, 127
1, 705581, Note_off_c, 0, 34, 59
1, 705587, Note_off_c, 0, 82, 59
1, 705621, Poly_aftertouch_c, 0, 39, 127
1, 705644, Note_on_c, 0, 47, 91
1, 705657, Note_on_c, 0, 35, 49
1, 705659, Note_off_c, 0, 86, 46
1, 705679, Note_off_c, 0, 47, 63
1, 705684, Poly_aftertouch_c, 0, 39, 0
1, 705690, Note_off_c, 0, 35, 61
1, 705741, Note_on_c, 0, 46, 96
1, 705742, Note_on_c, 0, 77, 108
1, 705745, Note_on_c, 0, 86, 101
1, 705746, Note_on_c, 0, 37, 38
1, 705749, Note_on_c, 0, 34, 70
1, 705751, Note_on_c, 0, 89, 89
1, 705753, Note_on_c, 0, 82, 84
1, 705754, Poly_aftertouch_c, 0, 36, 0
1, 705763, Note_on_c, 0, 85, 39
1, 705770, Note_on_c, 0, 88, 63
1, 705772, Note_off_c, 0, 46, 66
1, 705779, Note_off_c, 0, 34, 64
1, 705784, Note_off_c, 0, 37, 54
1, 705791, Note_off_c, 0, 88, 39
1, 705797, Note_off_c, 0, 86, 60
1, 705799, Note_off_c, 0, 85, 30
1, 705801, Note_off_c, 0, 89, 60
1, 705808, Note_off_c, 0, 77, 55
1, 705822, Note_off_c, 0, 82, 32
1, 705848, Note_on_c, 0, 47, 89
1, 705863, Note_on_c, 0, 35, 57
1, 705877, Note_off_c, 0, 47, 62
1, 705893, Note_off_c, 0, 35, 55
1, 705900, Control_c, 0, 64, 82
1, 705915, Control_c, 0, 64, 54
1, 705930, Control_c, 0, 64, 43
1, 705937, Note_on_c, 0, 46, 99
1, 705940, Note_on_c, 0, 78, 103
1, 705943, Note_on_c, 0, 90, 100
1, 705945, Note_on_c, 0, 82, 88
1, 705945, Control_c, 0, 64, 71
1, 705947, Note_on_c, 0, 87, 88
1, 705949, Note_on_c, 0, 34, 64
1, 705960, Control_c, 0, 64, 127
1, 705969, Note_off_c, 0, 82, 63
1, 705972, Note_off_c, 0, 34, 61
1, 705976, Note_off_c, 0, 90, 64
1, 705979, Note_off_c, 0, 46, 58
1, 705990, Note_off_c, 0, 87, 50
1, 705997, Note_off_c, 0, 78, 57
1, 706040, Note_on_c, 0, 54, 95
1, 706062, Note_off_c, 0, 54, 67
1, 706068, Note_on_c, 0, 44, 44
1, 706102, Note_off_c, 0, 44, 54
1, 706121, Poly_aftertouch_c, 0, 49, 127
1, 706138, Note_on_c, 0, 82, 69
1, 706143, Poly_aftertouch_c, 0, 42, 0
1, 706144, Note_on_c, 0, 87, 86
1, 706147, Note_on_c, 0, 49, 46
1, 706147, Note_on_c, 0, 75, 76
1, 706147, Note_on_c, 0, 78, 73
1, 706165, Note_off_c, 0, 75, 68
1, 706170, Note_on_c, 0, 37, 61
1, 706171, Note_off_c, 0, 49, 65
1, 706175, Note_off_c, 0, 78, 59
1, 706179, Note_on_c, 0, 44, 51
1, 706179, Note_off_c, 0, 44, 127
1, 706185, Poly_aftertouch_c, 0, 42, 0
1, 706189, Note_off_c, 0, 87, 65
1, 706189, Note_off_c, 0, 82, 62
1, 706193, Note_off_c, 0, 37, 60
1, 706241, Note_on_c, 0, 47, 80
1, 706266, Poly_aftertouch_c, 0, 39, 0
1, 706269, Note_off_c, 0, 47, 67
1, 706270, Control_c, 0, 64, 91
1, 706285, Control_c, 0, 64, 57
1, 706295, Poly_aftertouch_c, 0, 86, 0
1, 706300, Control_c, 0, 64, 0
1, 706322, Note_on_c, 0, 77, 86
1, 706324, Note_on_c, 0, 86, 86
1, 706327, Note_on_c, 0, 82, 87
1, 706329, Control_c, 0, 64, 55
1, 706332, Note_on_c, 0, 46, 93
1, 706336, Poly_aftertouch_c, 0, 36, 0
1, 706338, Note_on_c, 0, 34, 74
1, 706341, Note_off_c, 0, 77, 70
1, 706344, Control_c, 0, 64, 85
1, 706347, Note_on_c, 0, 37, 49
1, 706351, Note_off_c, 0, 82, 63
1, 706354, Note_off_c, 0, 46, 71
1, 706359, Control_c, 0, 64, 127
1, 706364, Note_off_c, 0, 86, 65
1, 706371, Note_off_c, 0, 34, 62
1, 706383, Note_off_c, 0, 37, 52
1, 706425, Note_on_c, 0, 47, 91
1, 706445, Note_on_c, 0, 35, 64
1, 706460, Note_off_c, 0, 47, 64
1, 706472, Note_off_c, 0, 35, 58
1, 706520, Note_on_c, 0, 82, 110
1, 706520, Note_on_c, 0, 86, 77
1, 706520, Note_on_c, 0, 46, 97
1, 706522, Note_on_c, 0, 94, 101
1, 706527, Note_on_c, 0, 89, 80
1, 706533, Note_on_c, 0, 34, 69
1, 706535, Note_on_c, 0, 37, 65
1, 706544, Note_on_c, 0, 90, 47
1, 706549, Note_off_c, 0, 46, 59
1, 706553, Note_off_c, 0, 86, 58
1, 706569, Note_off_c, 0, 34, 64
1, 706571, Note_on_c, 0, 92, 22
1, 706571, Note_off_c, 0, 37, 62
1, 706576, Note_off_c, 0, 90, 58
1, 706581, Note_off_c, 0, 94, 65
1, 706588, Note_off_c, 0, 89, 58
1, 706612, Note_off_c, 0, 92, 30
1, 706615, Note_off_c, 0, 82, 57
1, 706631, Note_on_c, 0, 47, 88
1, 706646, Note_on_c, 0, 35, 56
1, 706666, Note_off_c, 0, 47, 63
1, 706678, Control_c, 0, 64, 71
1, 706687, Note_off_c, 0, 35, 48
1, 706687, Poly_aftertouch_c, 0, 39, 0
1, 706693, Control_c, 0, 64, 57
1, 706708, Control_c, 0, 64, 67
1, 706714, Note_on_c, 0, 82, 95
1, 706714, Note_on_c, 0, 94, 100
1, 706719, Note_on_c, 0, 46, 95
1, 706720, Note_on_c, 0, 34, 57
1, 706723, Note_on_c, 0, 90, 76
1, 706723, Control_c, 0, 64, 119
1, 706729, Note_on_c, 0, 87, 72
1, 706732, Note_off_c, 0, 82, 66
1, 706738, Control_c, 0, 64, 127
1, 706741, Poly_aftertouch_c, 0, 37, 0
1, 706747, Note_off_c, 0, 94, 68
1, 706753, Note_off_c, 0, 87, 68
1, 706753, Note_off_c, 0, 34, 61
1, 706757, Note_off_c, 0, 46, 61
1, 706767, Note_on_c, 0, 92, 12
1, 706776, Note_off_c, 0, 90, 58
1, 706791, Note_off_c, 0, 92, 50
1, 706799, Poly_aftertouch_c, 0, 37, 0
1, 706827, Note_on_c, 0, 78, 84
1, 706833, Note_on_c, 0, 58, 94
1, 706851, Note_on_c, 0, 46, 68
1, 706852, Note_off_c, 0, 58, 69
1, 706858, Note_on_c, 0, 49, 41
1, 706863, Note_off_c, 0, 78, 65
1, 706867, Note_on_c, 0, 87, 80
1, 706875, Note_on_c, 0, 86, 42
1, 706884, Note_off_c, 0, 46, 57
1, 706890, Note_off_c, 0, 49, 56
1, 706903, Note_off_c, 0, 86, 53
1, 706922, Note_on_c, 0, 94, 97
1, 706925, Note_off_c, 0, 87, 65
1, 706937, Note_on_c, 0, 54, 87
1, 706945, Note_on_c, 0, 42, 78
1, 706957, Note_off_c, 0, 54, 72
1, 706968, Note_off_c, 0, 94, 68
1, 706972, Note_off_c, 0, 42, 65
1, 707035, Note_on_c, 0, 51, 82
1, 707036, Note_on_c, 0, 42, 71
1, 707037, Note_on_c, 0, 77, 75
1, 707057, Poly_aftertouch_c, 0, 44, 127
1, 707058, Note_off_c, 0, 77, 67
1, 707059, Note_off_c, 0, 51, 63
1, 707063, Note_off_c, 0, 42, 65
1, 707071, Note_on_c, 0, 86, 76
1, 707078, Control_c, 0, 64, 73
1, 707081, Note_on_c, 0, 79, 12
1, 707093, Note_off_c, 0, 86, 69
1, 707093, Control_c, 0, 64, 0
1, 707096, Poly_aftertouch_c, 0, 44, 0
1, 707101, Note_off_c, 0, 79, 53
1, 707109, Poly_aftertouch_c, 0, 85, 0
1, 707122, Poly_aftertouch_c, 0, 46, 0
1, 707123, Control_c, 0, 64, 59
1, 707127, Note_on_c, 0, 94, 109
1, 707132, Note_on_c, 0, 46, 66
1, 707137, Control_c, 0, 64, 94
1, 707143, Poly_aftertouch_c, 0, 40, 0
1, 707148, Note_on_c, 0, 37, 68
1, 707151, Note_on_c, 0, 87, 43
1, 707152, Control_c, 0, 64, 127
1, 707167, Note_on_c, 0, 35, 49
1, 707167, Note_on_c, 0, 39, 38
1, 707167, Note_off_c, 0, 39, 127
1, 707169, Note_off_c, 0, 46, 64
1, 707176, Note_off_c, 0, 37, 62
1, 707179, Note_off_c, 0, 87, 55
1, 707200, Note_off_c, 0, 35, 53
1, 707203, Poly_aftertouch_c, 0, 39, 0
1, 707230, Note_on_c, 0, 47, 88
1, 707236, Note_off_c, 0, 94, 59
1, 707252, Note_on_c, 0, 35, 57
1, 707274, Note_off_c, 0, 47, 63
1, 707283, Note_off_c, 0, 35, 54
1, 707339, Note_on_c, 0, 46, 104
1, 707341, Note_on_c, 0, 82, 103
1, 707341, Note_on_c, 0, 94, 101
1, 707343, Note_on_c, 0, 89, 89
1, 707343, Note_on_c, 0, 86, 83
1, 707346, Note_on_c, 0, 37, 52
1, 707351, Note_on_c, 0, 34, 75
1, 707364, Note_on_c, 0, 92, 55
1, 707370, Note_on_c, 0, 39, 47
1, 707372, Note_off_c, 0, 37, 58
1, 707379, Note_off_c, 0, 34, 63
1, 707384, Note_off_c, 0, 46, 65
1, 707385, Note_off_c, 0, 92, 61
1, 707390, Note_off_c, 0, 86, 60
1, 707404, Note_off_c, 0, 39, 52
1, 707408, Note_off_c, 0, 89, 62
1, 707423, Note_off_c, 0, 94, 64
1, 707429, Note_off_c, 0, 82, 58
1, 707441, Poly_aftertouch_c, 0, 35, 127
1, 707446, Note_on_c, 0, 47, 88
1, 707486, Note_off_c, 0, 47, 65
1, 707501, Control_c, 0, 64, 76
1, 707514, Poly_aftertouch_c, 0, 35, 0
1, 707516, Control_c, 0, 64, 46
1, 707531, Control_c, 0, 64, 50
1, 707539, Note_on_c, 0, 34, 67
1, 707542, Note_on_c, 0, 94, 98
1, 707544, Note_on_c, 0, 44, 89
1, 707545, Note_on_c, 0, 82, 96
1, 707546, Control_c, 0, 64, 75
1, 707548, Note_on_c, 0, 87, 79
1, 707549, Note_on_c, 0, 90, 84
1, 707560, Control_c, 0, 64, 127
1, 707566, Note_off_c, 0, 44, 67
1, 707568, Note_off_c, 0, 34, 66
1, 707574, Note_on_c, 0, 45, 55
1, 707577, Note_on_c, 0, 92, 44
1, 707591, Note_off_c, 0, 94, 65
1, 707599, Note_off_c, 0, 82, 55
1, 707600, Note_off_c, 0, 45, 60
1, 707618, Note_off_c, 0, 92, 46
1, 707624, Note_off_c, 0, 87, 65
1, 707642, Note_off_c, 0, 90, 57
1, 707683, Note_on_c, 0, 58, 91
1, 707691, Note_on_c, 0, 46, 79
1, 707691, Note_on_c, 0, 49, 71
1, 707694, Note_on_c, 0, 78, 87
1, 707711, Note_off_c, 0, 58, 62
1, 707712, Note_off_c, 0, 49, 66
1, 707718, Note_off_c, 0, 46, 67
1, 707732, Note_off_c, 0, 78, 67
1, 707747, Note_on_c, 0, 87, 78
1, 707789, Note_off_c, 0, 87, 64
1, 707807, Note_on_c, 0, 54, 95
1, 707816, Note_on_c, 0, 94, 100
1, 707818, Note_on_c, 0, 42, 77
1, 707831, Note_on_c, 0, 44, 50
1, 707839, Note_off_c, 0, 54, 59
1, 707841, Note_off_c, 0, 42, 66
1, 707845, Note_on_c, 0, 49, 25
1, 707845, Note_off_c, 0, 49, 127
1, 707861, Note_off_c, 0, 44, 56
1, 707866, Note_off_c, 0, 94, 68
1, 707880, Note_on_c, 0, 46, 3
1, 707881, Poly_aftertouch_c, 0, 49, 0
1, 707910, Note_on_c, 0, 42, 73
1, 707912, Note_on_c, 0, 51, 72
1, 707923, Note_off_c, 0, 46, 46
1, 707933, Note_off_c, 0, 42, 66
1, 707936, Note_off_c, 0, 51, 60
1, 707955, Note_on_c, 0, 77, 84
1, 707991, Poly_aftertouch_c, 0, 52, 0
1, 708004, Note_off_c, 0, 77, 59
1, 708007, Poly_aftertouch_c, 0, 40, 127
1, 708011, Note_on_c, 0, 85, 69
1, 708023, Poly_aftertouch_c, 0, 52, 0
1, 708026, Note_on_c, 0, 86, 79
1, 708028, Note_off_c, 0, 85, 67
1, 708031, Poly_aftertouch_c, 0, 40, 0
1, 708064, Note_off_c, 0, 86, 62
1, 708087, Control_c, 0, 64, 76
1, 708101, Control_c, 0, 64, 42
1, 708116, Control_c, 0, 64, 46
1, 708128, Note_on_c, 0, 34, 101
1, 708131, Control_c, 0, 64, 96
1, 708136, Note_on_c, 0, 94, 110
1, 708144, Note_on_c, 0, 22, 67
1, 708146, Control_c, 0, 64, 127
1, 708152, Note_on_c, 0, 27, 39
1, 708163, Note_on_c, 0, 92, 62
1, 708168, Note_on_c, 0, 35, 57
1, 708169, Note_off_c, 0, 34, 65
1, 708174, Note_off_c, 0, 94, 69
1, 708177, Note_off_c, 0, 22, 54
1, 708182, Note_off_c, 0, 92, 63
1, 708191, Note_off_c, 0, 27, 56
1, 708201, Note_off_c, 0, 35, 54
1, 708309, Note_on_c, 0, 48, 66
1, 708354, Poly_aftertouch_c, 0, 46, 127
1, 708367, Note_on_c, 0, 50, 84
1, 708386, Note_off_c, 0, 48, 62
1, 708390, Poly_aftertouch_c, 0, 46, 0
1, 708427, Note_off_c, 0, 50, 64
1, 708432, Note_on_c, 0, 51, 68
1, 708452, Note_off_c, 0, 51, 64
1, 708471, Note_on_c, 0, 52, 69
1, 708477, Note_on_c, 0, 53, 66
1, 708535, Note_on_c, 0, 55, 79
1, 708551, Note_off_c, 0, 53, 58
1, 708559, Note_off_c, 0, 52, 59
1, 708580, Note_on_c, 0, 33, 66
1, 708598, Note_on_c, 0, 57, 73
1, 708617, Note_on_c, 0, 58, 80
1, 708623, Note_off_c, 0, 55, 63
1, 708630, Note_off_c, 0, 57, 64
1, 708634, Note_on_c, 0, 39, 72
1, 708650, Note_off_c, 0, 58, 64
1, 708678, Note_on_c, 0, 42, 68
1, 708719, Note_on_c, 0, 45, 99
1, 708724, Control_c, 0, 64, 66
1, 708727, Note_on_c, 0, 59, 106
1, 708730, Note_on_c, 0, 71, 100
1, 708739, Note_on_c, 0, 68, 79
1, 708739, Control_c, 0, 64, 0
1, 708747, Note_on_c, 0, 66, 62
1, 708767, Note_off_c, 0, 66, 44
1, 708769, Note_off_c, 0, 71, 60
1, 708769, Control_c, 0, 64, 37
1, 708770, Note_off_c, 0, 68, 47
1, 708783, Control_c, 0, 64, 73
1, 708798, Control_c, 0, 64, 127
1, 708803, Poly_aftertouch_c, 0, 36, 127
1, 708825, Poly_aftertouch_c, 0, 69, 0
1, 708834, Note_off_c, 0, 45, 58
1, 708899, Note_off_c, 0, 59, 54
1, 708899, Note_on_c, 0, 58, 70
1, 708900, Note_off_c, 0, 33, 40
1, 708922, Note_off_c, 0, 42, 59
1, 708944, Poly_aftertouch_c, 0, 36, 0
1, 708955, Note_on_c, 0, 56, 72
1, 708957, Note_off_c, 0, 39, 58
1, 708993, Note_off_c, 0, 58, 59
1, 709003, Note_on_c, 0, 54, 74
1, 709029, Note_off_c, 0, 56, 60
1, 709044, Note_off_c, 0, 54, 60
1, 709045, Note_on_c, 0, 52, 79
1, 709098, Note_off_c, 0, 52, 57
1, 709114, Note_on_c, 0, 51, 77
1, 709140, Note_on_c, 0, 32, 55
1, 709145, Note_on_c, 0, 49, 77
1, 709168, Note_on_c, 0, 36, 60
1, 709200, Note_on_c, 0, 47, 86
1, 709202, Note_on_c, 0, 39, 68
1, 709206, Note_off_c, 0, 32, 57
1, 709224, Note_off_c, 0, 47, 69
1, 709262, Note_off_c, 0, 49, 54
1, 709265, Control_c, 0, 64, 71
1, 709266, Note_on_c, 0, 44, 112
1, 709269, Note_on_c, 0, 48, 104
1, 709280, Control_c, 0, 64, 0
1, 709295, Note_off_c, 0, 51, 0
1, 709325, Control_c, 0, 64, 54
1, 709332, Poly_aftertouch_c, 0, 51, 127
1, 709340, Control_c, 0, 64, 76
1, 709355, Control_c, 0, 64, 127
1, 709359, Note_off_c, 0, 44, 63
1, 709362, Poly_aftertouch_c, 0, 53, 127
1, 709369, Poly_aftertouch_c, 0, 51, 0
1, 709382, Note_on_c, 0, 49, 81
1, 709402, Poly_aftertouch_c, 0, 53, 0
1, 709405, Note_off_c, 0, 48, 63
1, 709408, Note_off_c, 0, 39, 49
1, 709414, Note_on_c, 0, 51, 62
1, 709432, Note_off_c, 0, 36, 37
1, 709435, Note_off_c, 0, 49, 65
1, 709447, Note_off_c, 0, 51, 66
1, 709491, Note_on_c, 0, 53, 83
1, 709545, Note_on_c, 0, 54, 85
1, 709569, Note_off_c, 0, 53, 59
1, 709569, Note_on_c, 0, 31, 61
1, 709581, Note_on_c, 0, 56, 74
1, 709596, Note_off_c, 0, 54, 64
1, 709602, Note_on_c, 0, 34, 60
1, 709604, Note_on_c, 0, 58, 66
1, 709607, Note_off_c, 0, 56, 67
1, 709630, Note_off_c, 0, 58, 66
1, 709635, Note_on_c, 0, 37, 73
1, 709661, Note_on_c, 0, 60, 82
1, 709670, Note_on_c, 0, 40, 68
1, 709692, Note_off_c, 0, 31, 58
1, 709692, Note_off_c, 0, 60, 63
1, 709728, Note_off_c, 0, 40, 0
1, 709733, Control_c, 0, 64, 110
1, 709747, Control_c, 0, 64, 64
1, 709753, Note_on_c, 0, 43, 97
1, 709762, Control_c, 0, 64, 0
1, 709765, Poly_aftertouch_c, 0, 40, 127
1, 709771, Note_on_c, 0, 73, 106
1, 709775, Note_on_c, 0, 61, 85
1, 709789, Note_on_c, 0, 70, 60
1, 709789, Note_off_c, 0, 70, 127
1, 709790, Note_on_c, 0, 63, 54
1, 709790, Note_off_c, 0, 63, 127
1, 709791, Control_c, 0, 64, 64
1, 709793, Note_off_c, 0, 61, 70
1, 709802, Note_on_c, 0, 72, 57
1, 709806, Control_c, 0, 64, 103
1, 709807, Note_off_c, 0, 73, 61
1, 709814, Note_on_c, 0, 74, 52
1, 709814, Note_off_c, 0, 74, 127
1, 709821, Control_c, 0, 64, 127
1, 709831, Note_off_c, 0, 72, 66
1, 709873, Note_on_c, 0, 59, 74
1, 709885, Note_off_c, 0, 43, 56
1, 709912, Poly_aftertouch_c, 0, 40, 0
1, 709922, Note_off_c, 0, 59, 0
1, 709939, Note_off_c, 0, 34, 61
1, 709939, Note_off_c, 0, 37, 60
1, 709948, Note_on_c, 0, 57, 76
1, 709960, Poly_aftertouch_c, 0, 59, 127
1, 709987, Note_on_c, 0, 59, 3
1, 709996, Note_on_c, 0, 55, 78
1, 710000, Note_off_c, 0, 59, 51
1, 710034, Note_off_c, 0, 57, 54
1, 710038, Note_on_c, 0, 54, 85
1, 710056, Note_off_c, 0, 55, 62
1, 710088, Note_off_c, 0, 54, 63
1, 710092, Note_on_c, 0, 52, 74
1, 710156, Note_on_c, 0, 50, 76
1, 710158, Note_off_c, 0, 52, 0
1, 710191, Note_on_c, 0, 52, 3
1, 710198, Note_on_c, 0, 49, 81
1, 710204, Note_off_c, 0, 50, 63
1, 710222, Note_off_c, 0, 49, 70
1, 710222, Note_off_c, 0, 52, 52
1, 710237, Control_c, 0, 64, 117
1, 710252, Control_c, 0, 64, 67
1, 710258, Note_on_c, 0, 42, 105
1, 710264, Note_on_c, 0, 38, 83
1, 710266, Note_on_c, 0, 50, 99
1, 710267, Control_c, 0, 64, 0
1, 710270, Note_on_c, 0, 33, 76
1, 710275, Note_on_c, 0, 30, 64
1, 710297, Note_on_c, 0, 35, 44
1, 710319, Control_c, 0, 64, 59
1, 710331, Note_off_c, 0, 30, 59
1, 710334, Control_c, 0, 64, 78
1, 710338, Note_off_c, 0, 42, 67
1, 710349, Control_c, 0, 64, 127
1, 710362, Note_on_c, 0, 52, 77
1, 710365, Note_off_c, 0, 35, 54
1, 710365, Note_off_c, 0, 38, 61
1, 710380, Note_off_c, 0, 33, 59
1, 710381, Note_off_c, 0, 50, 59
1, 710404, Note_on_c, 0, 54, 68
1, 710421, Note_off_c, 0, 52, 62
1, 710435, Note_off_c, 0, 54, 65
1, 710472, Note_on_c, 0, 55, 85
1, 710530, Note_on_c, 0, 57, 81
1, 710543, Note_off_c, 0, 55, 62
1, 710558, Note_on_c, 0, 59, 72
1, 710562, Note_on_c, 0, 27, 69
1, 710579, Note_off_c, 0, 57, 65
1, 710581, Note_on_c, 0, 61, 75
1, 710584, Note_off_c, 0, 59, 68
1, 710603, Note_on_c, 0, 31, 59
1, 710604, Note_off_c, 0, 61, 66
1, 710640, Note_on_c, 0, 36, 69
1, 710642, Note_on_c, 0, 62, 82
1, 710646, Note_off_c, 0, 27, 62
1, 710679, Note_off_c, 0, 62, 60
1, 710688, Note_off_c, 0, 31, 55
1, 710690, Note_off_c, 0, 36, 57
1, 710705, Control_c, 0, 64, 65
1, 710720, Control_c, 0, 64, 0
1, 710725, Note_on_c, 0, 39, 110
1, 710726, Note_on_c, 0, 36, 69
1, 710738, Note_on_c, 0, 31, 47
1, 710747, Note_on_c, 0, 63, 97
1, 710747, Note_on_c, 0, 75, 95
1, 710750, Control_c, 0, 64, 52
1, 710762, Note_on_c, 0, 73, 72
1, 710765, Control_c, 0, 64, 82
1, 710769, Note_off_c, 0, 63, 66
1, 710780, Control_c, 0, 64, 127
1, 710780, Note_off_c, 0, 75, 69
1, 710807, Note_on_c, 0, 74, 46
1, 710807, Poly_aftertouch_c, 0, 33, 127
1, 710811, Note_off_c, 0, 73, 62
1, 710828, Note_on_c, 0, 62, 75
1, 710833, Note_off_c, 0, 74, 61
1, 710860, Note_off_c, 0, 39, 57
1, 710902, Note_off_c, 0, 31, 36
1, 710902, Poly_aftertouch_c, 0, 33, 0
1, 710912, Note_on_c, 0, 60, 77
1, 710926, Note_off_c, 0, 36, 36
1, 710962, Note_off_c, 0, 62, 57
1, 710972, Note_on_c, 0, 58, 76
1, 711003, Note_off_c, 0, 60, 58
1, 711006, Note_on_c, 0, 57, 71
1, 711036, Note_off_c, 0, 58, 62
1, 711047, Note_off_c, 0, 57, 61
1, 711049, Note_on_c, 0, 55, 78
1, 711081, Note_off_c, 0, 55, 66
1, 711121, Note_on_c, 0, 53, 72
1, 711161, Note_on_c, 0, 51, 79
1, 711176, Note_off_c, 0, 53, 62
1, 711195, Note_off_c, 0, 51, 66
1, 711216, Control_c, 0, 64, 91
1, 711228, Note_on_c, 0, 50, 104
1, 711230, Control_c, 0, 64, 53
1, 711245, Control_c, 0, 64, 0
1, 711304, Control_c, 0, 64, 64
1, 711313, Note_on_c, 0, 51, 77
1, 711319, Control_c, 0, 64, 101
1, 711321, Note_off_c, 0, 50, 62
1, 711334, Control_c, 0, 64, 127
1, 711358, Note_off_c, 0, 51, 64
1, 711405, Note_on_c, 0, 53, 82
1, 711459, Note_on_c, 0, 55, 80
1, 711470, Note_off_c, 0, 53, 59
1, 711476, Note_on_c, 0, 36, 106
1, 711477, Note_on_c, 0, 27, 92
1, 711483, Note_on_c, 0, 31, 83
1, 711490, Note_on_c, 0, 57, 80
1, 711501, Note_off_c, 0, 27, 59
1, 711506, Note_on_c, 0, 28, 58
1, 711515, Note_off_c, 0, 31, 59
1, 711521, Note_off_c, 0, 55, 65
1, 711523, Note_on_c, 0, 58, 73
1, 711536, Note_off_c, 0, 28, 56
1, 711543, Note_off_c, 0, 57, 64
1, 711549, Note_off_c, 0, 58, 70
1, 711554, Note_off_c, 0, 36, 63
1, 711570, Poly_aftertouch_c, 0, 25, 127
1, 711595, Note_on_c, 0, 60, 80
1, 711603, Poly_aftertouch_c, 0, 25, 0
1, 711656, Note_on_c, 0, 62, 79
1, 711671, Note_off_c, 0, 60, 64
1, 711691, Control_c, 0, 64, 67
1, 711696, Note_on_c, 0, 63, 73
1, 711701, Note_off_c, 0, 62, 65
1, 711706, Control_c, 0, 64, 0
1, 711720, Note_off_c, 0, 63, 70
1, 711727, Note_on_c, 0, 41, 105
1, 711731, Note_on_c, 0, 33, 85
1, 711731, Note_on_c, 0, 36, 81
1, 711735, Control_c, 0, 64, 45
1, 711745, Note_on_c, 0, 29, 53
1, 711750, Control_c, 0, 64, 74
1, 711759, Note_on_c, 0, 65, 92
1, 711761, Note_off_c, 0, 33, 68
1, 711765, Control_c, 0, 64, 127
1, 711777, Note_off_c, 0, 36, 59
1, 711781, Note_off_c, 0, 29, 55
1, 711794, Note_off_c, 0, 41, 65
1, 711829, Note_on_c, 0, 67, 80
1, 711859, Note_off_c, 0, 65, 62
1, 711866, Note_on_c, 0, 69, 75
1, 711895, Note_on_c, 0, 70, 77
1, 711900, Note_off_c, 0, 67, 65
1, 711916, Note_off_c, 0, 69, 64
1, 711933, Note_off_c, 0, 70, 63
1, 711969, Note_on_c, 0, 53, 95
1, 711969, Note_on_c, 0, 72, 92
1, 711973, Note_on_c, 0, 48, 78
1, 711977, Note_on_c, 0, 45, 77
1, 711987, Note_on_c, 0, 41, 49
1, 711991, Note_off_c, 0, 53, 66
1, 712005, Note_off_c, 0, 41, 66
1, 712011, Note_off_c, 0, 48, 64
1, 712014, Note_on_c, 0, 74, 76
1, 712025, Note_off_c, 0, 45, 62
1, 712037, Note_off_c, 0, 72, 62
1, 712050, Note_on_c, 0, 75, 79
1, 712059, Note_off_c, 0, 74, 64
1, 712077, Note_off_c, 0, 75, 64
1, 712128, Note_on_c, 0, 77, 73
1, 712157, Note_on_c, 0, 79, 91
1, 712173, Note_off_c, 0, 77, 63
1, 712202, Control_c, 0, 64, 69
1, 712217, Control_c, 0, 64, 0
1, 712217, Note_on_c, 0, 81, 59
1, 712218, Note_off_c, 0, 79, 63
1, 712227, Note_on_c, 0, 41, 70
1, 712227, Note_on_c, 0, 46, 105
1, 712235, Note_on_c, 0, 38, 81
1, 712246, Note_on_c, 0, 34, 56
1, 712247, Control_c, 0, 64, 55
1, 712260, Note_on_c, 0, 70, 98
1, 712262, Control_c, 0, 64, 85
1, 712268, Note_on_c, 0, 82, 84
1, 712276, Note_off_c, 0, 34, 58
1, 712276, Control_c, 0, 64, 127
1, 712291, Note_off_c, 0, 38, 61
1, 712296, Note_off_c, 0, 81, 60
1, 712297, Note_on_c, 0, 80, 35
1, 712297, Note_off_c, 0, 80, 127
1, 712300, Note_off_c, 0, 70, 67
1, 712302, Note_off_c, 0, 41, 59
1, 712313, Poly_aftertouch_c, 0, 47, 127
1, 712315, Note_off_c, 0, 82, 67
1, 712320, Note_off_c, 0, 46, 63
1, 712351, Poly_aftertouch_c, 0, 47, 0
1, 712366, Note_on_c, 0, 72, 81
1, 712434, Note_on_c, 0, 74, 77
1, 712440, Note_off_c, 0, 72, 65
1, 712458, Note_on_c, 0, 75, 75
1, 712458, Note_off_c, 0, 74, 68
1, 712480, Note_off_c, 0, 75, 69
1, 712521, Note_on_c, 0, 77, 80
1, 712578, Note_on_c, 0, 79, 86
1, 712609, Note_off_c, 0, 77, 64
1, 712621, Note_on_c, 0, 81, 76
1, 712635, Note_on_c, 0, 82, 80
1, 712636, Note_off_c, 0, 79, 67
1, 712637, Note_off_c, 0, 81, 69
1, 712655, Note_off_c, 0, 82, 71
1, 712683, Control_c, 0, 64, 75
1, 712697, Note_on_c, 0, 51, 73
1, 712698, Control_c, 0, 64, 0
1, 712705, Note_on_c, 0, 45, 62
1, 712709, Note_on_c, 0, 54, 75
1, 712717, Note_on_c, 0, 83, 106
1, 712722, Note_on_c, 0, 95, 98
1, 712728, Control_c, 0, 64, 62
1, 712732, Note_on_c, 0, 92, 75
1, 712736, Note_off_c, 0, 45, 64
1, 712736, Note_off_c, 0, 95, 71
1, 712742, Control_c, 0, 64, 102
1, 712747, Note_on_c, 0, 90, 42
1, 712748, Note_off_c, 0, 92, 68
1, 712757, Control_c, 0, 64, 127
1, 712761, Note_on_c, 0, 57, 84
1, 712763, Note_off_c, 0, 51, 52
1, 712765, Note_off_c, 0, 54, 63
1, 712772, Note_on_c, 0, 93, 34
1, 712772, Note_off_c, 0, 90, 60
1, 712797, Note_on_c, 0, 81, 57
1, 712809, Note_off_c, 0, 93, 31
1, 712817, Note_off_c, 0, 81, 62
1, 712822, Note_on_c, 0, 54, 61
1, 712826, Note_on_c, 0, 51, 63
1, 712827, Note_off_c, 0, 57, 61
1, 712842, Note_on_c, 0, 82, 80
1, 712843, Note_off_c, 0, 83, 36
1, 712852, Note_on_c, 0, 45, 30
1, 712884, Note_off_c, 0, 51, 60
1, 712885, Note_on_c, 0, 57, 73
1, 712885, Note_on_c, 0, 85, 25
1, 712893, Note_off_c, 0, 45, 41
1, 712896, Note_on_c, 0, 80, 78
1, 712920, Note_off_c, 0, 54, 0
1, 712927, Note_off_c, 0, 85, 40
1, 712932, Note_on_c, 0, 54, 44
1, 712933, Note_on_c, 0, 78, 81
1, 712937, Note_off_c, 0, 57, 61
1, 712952, Note_on_c, 0, 51, 60
1, 712960, Note_off_c, 0, 82, 61
1, 712971, Note_off_c, 0, 80, 61
1, 712979, Note_off_c, 0, 51, 65
1, 712982, Note_on_c, 0, 76, 75
1, 712984, Note_off_c, 0, 78, 60
1, 712988, Note_on_c, 0, 45, 7
1, 712998, Note_off_c, 0, 54, 63
1, 713000, Note_on_c, 0, 57, 68
1, 713015, Note_off_c, 0, 76, 59
1, 713024, Note_off_c, 0, 45, 56
1, 713041, Note_on_c, 0, 75, 79
1, 713049, Poly_aftertouch_c, 0, 77, 127
1, 713054, Note_off_c, 0, 57, 60
1, 713055, Note_on_c, 0, 54, 49
1, 713062, Note_on_c, 0, 51, 72
1, 713077, Note_on_c, 0, 73, 79
1, 713081, Poly_aftertouch_c, 0, 77, 0
1, 713122, Note_on_c, 0, 57, 75
1, 713122, Note_off_c, 0, 54, 61
1, 713123, Note_off_c, 0, 51, 61
1, 713125, Note_on_c, 0, 71, 87
1, 713148, Note_off_c, 0, 57, 69
1, 713152, Note_off_c, 0, 75, 44
1, 713155, Note_off_c, 0, 71, 64
1, 713155, Note_off_c, 0, 73, 59
1, 713188, Control_c, 0, 64, 79
1, 713202, Note_on_c, 0, 72, 112
1, 713203, Control_c, 0, 64, 0
1, 713204, Note_on_c, 0, 56, 108
1, 713210, Note_on_c, 0, 48, 84
1, 713215, Note_on_c, 0, 51, 85
1, 713219, Note_on_c, 0, 44, 69
1, 713229, Note_on_c, 0, 77, 59
1, 713248, Control_c, 0, 64, 58
1, 713255, Note_on_c, 0, 57, 36
1, 713263, Control_c, 0, 64, 83
1, 713267, Note_off_c, 0, 44, 60
1, 713272, Note_off_c, 0, 77, 59
1, 713278, Control_c, 0, 64, 127
1, 713293, Note_off_c, 0, 57, 56
1, 713294, Note_on_c, 0, 73, 83
1, 713317, Note_off_c, 0, 72, 63
1, 713322, Note_off_c, 0, 56, 58
1, 713324, Note_on_c, 0, 75, 75
1, 713342, Note_off_c, 0, 73, 66
1, 713349, Note_off_c, 0, 75, 68
1, 713403, Note_on_c, 0, 77, 84
1, 713421, Note_off_c, 0, 51, 46
1, 713430, Note_off_c, 0, 48, 59
1, 713454, Note_on_c, 0, 78, 85
1, 713467, Note_off_c, 0, 77, 62
1, 713477, Note_on_c, 0, 80, 81
1, 713488, Note_off_c, 0, 78, 67
1, 713497, Note_on_c, 0, 82, 73
1, 713498, Note_off_c, 0, 80, 67
1, 713518, Note_off_c, 0, 82, 68
1, 713564, Note_on_c, 0, 83, 64
1, 713582, Note_on_c, 0, 84, 44
1, 713590, Note_off_c, 0, 83, 68
1, 713609, Note_off_c, 0, 84, 55
1, 713611, Control_c, 0, 64, 71
1, 713626, Control_c, 0, 64, 43
1, 713640, Control_c, 0, 64, 50
1, 713644, Note_on_c, 0, 49, 78
1, 713651, Note_on_c, 0, 52, 66
1, 713652, Note_on_c, 0, 43, 63
1, 713654, Note_on_c, 0, 85, 96
1, 713655, Note_on_c, 0, 46, 68
1, 713655, Control_c, 0, 64, 73
1, 713661, Note_on_c, 0, 94, 87
1, 713667, Note_on_c, 0, 96, 79
1, 713670, Control_c, 0, 64, 127
1, 713671, Note_off_c, 0, 85, 75
1, 713678, Note_on_c, 0, 84, 68
1, 713680, Note_on_c, 0, 95, 74
1, 713682, Note_off_c, 0, 96, 69
1, 713683, Note_on_c, 0, 45, 40
1, 713686, Note_on_c, 0, 92, 53
1, 713689, Note_on_c, 0, 53, 12
1, 713695, Note_off_c, 0, 43, 64
1, 713696, Note_off_c, 0, 84, 67
1, 713700, Note_off_c, 0, 46, 60
1, 713701, Note_off_c, 0, 95, 71
1, 713706, Note_off_c, 0, 94, 67
1, 713713, Note_on_c, 0, 55, 87
1, 713713, Note_off_c, 0, 49, 60
1, 713718, Note_off_c, 0, 45, 53
1, 713719, Note_off_c, 0, 52, 62
1, 713728, Note_off_c, 0, 92, 50
1, 713737, Note_off_c, 0, 53, 50
1, 713749, Note_on_c, 0, 83, 80
1, 713778, Note_on_c, 0, 52, 51
1, 713779, Note_off_c, 0, 55, 64
1, 713786, Note_on_c, 0, 49, 61
1, 713788, Note_off_c, 0, 83, 66
1, 713815, Note_on_c, 0, 46, 43
1, 713816, Note_on_c, 0, 81, 81
1, 713816, Note_off_c, 0, 49, 61
1, 713847, Note_on_c, 0, 55, 76
1, 713847, Note_off_c, 0, 46, 55
1, 713850, Note_off_c, 0, 52, 59
1, 713864, Poly_aftertouch_c, 0, 83, 127
1, 713873, Note_on_c, 0, 79, 83
1, 713890, Note_on_c, 0, 52, 39
1, 713897, Note_off_c, 0, 55, 59
1, 713909, Note_on_c, 0, 78, 85
1, 713911, Note_off_c, 0, 81, 58
1, 713913, Poly_aftertouch_c, 0, 83, 0
1, 713920, Note_on_c, 0, 49, 54
1, 713934, Note_on_c, 0, 46, 46
1, 713934, Note_off_c, 0, 79, 65
1, 713942, Note_off_c, 0, 49, 62
1, 713957, Note_off_c, 0, 46, 61
1, 713965, Note_on_c, 0, 76, 81
1, 713969, Note_on_c, 0, 55, 73
1, 713970, Note_off_c, 0, 78, 61
1, 713971, Note_off_c, 0, 52, 56
1, 713991, Note_off_c, 0, 76, 63
1, 714028, Note_on_c, 0, 74, 71
1, 714030, Note_on_c, 0, 46, 68
1, 714035, Note_on_c, 0, 76, 67
1, 714063, Note_off_c, 0, 55, 62
1, 714066, Note_on_c, 0, 49, 47
1, 714089, Note_off_c, 0, 76, 65
1, 714100, Note_off_c, 0, 49, 62
1, 714107, Note_off_c, 0, 46, 63
1, 714107, Note_off_c, 0, 74, 66
1, 714137, Control_c, 0, 64, 72
1, 714152, Control_c, 0, 64, 0
1, 714154, Note_on_c, 0, 54, 103
1, 714157, Note_on_c, 0, 74, 99
1, 714163, Note_on_c, 0, 50, 74
1, 714169, Note_on_c, 0, 45, 71
1, 714175, Note_on_c, 0, 42, 71
1, 714181, Control_c, 0, 64, 38
1, 714196, Control_c, 0, 64, 64
1, 714201, Note_on_c, 0, 47, 23
1, 714211, Control_c, 0, 64, 112
1, 714226, Control_c, 0, 64, 127
1, 714230, Note_on_c, 0, 76, 83
1, 714238, Note_off_c, 0, 54, 63
1, 714249, Note_off_c, 0, 74, 65
1, 714252, Note_off_c, 0, 42, 57
1, 714267, Note_on_c, 0, 78, 66
1, 714273, Note_off_c, 0, 76, 67
1, 714277, Note_off_c, 0, 50, 60
1, 714293, Note_off_c, 0, 78, 66
1, 714296, Note_off_c, 0, 47, 30
1, 714300, Note_off_c, 0, 45, 61
1, 714336, Note_on_c, 0, 79, 87
1, 714388, Note_on_c, 0, 81, 77
1, 714410, Note_off_c, 0, 79, 62
1, 714419, Note_on_c, 0, 83, 77
1, 714437, Note_on_c, 0, 85, 81
1, 714439, Note_off_c, 0, 81, 65
1, 714440, Note_off_c, 0, 83, 69
1, 714458, Note_off_c, 0, 85, 72
1, 714495, Note_on_c, 0, 86, 85
1, 714535, Note_off_c, 0, 86, 63
1, 714537, Control_c, 0, 64, 92
1, 714552, Control_c, 0, 64, 60
1, 714567, Control_c, 0, 64, 34
1, 714570, Note_on_c, 0, 39, 44
1, 714571, Note_on_c, 0, 48, 60
1, 714581, Control_c, 0, 64, 66
1, 714596, Control_c, 0, 64, 127
1, 714597, Note_on_c, 0, 99, 102
1, 714599, Note_on_c, 0, 87, 103
1, 714608, Note_off_c, 0, 39, 56
1, 714614, Note_on_c, 0, 51, 84
1, 714623, Note_on_c, 0, 97, 54
1, 714630, Note_off_c, 0, 87, 63
1, 714634, Note_off_c, 0, 99, 66
1, 714637, Note_off_c, 0, 48, 63
1, 714645, Note_on_c, 0, 98, 67
1, 714661, Note_off_c, 0, 97, 52
1, 714664, Note_off_c, 0, 98, 64
1, 714674, Note_off_c, 0, 51, 61
1, 714688, Note_on_c, 0, 86, 71
1, 714688, Poly_aftertouch_c, 0, 43, 0
1, 714698, Note_on_c, 0, 48, 57
1, 714703, Note_on_c, 0, 43, 43
1, 714739, Note_off_c, 0, 43, 61
1, 714761, Note_off_c, 0, 48, 62
1, 714762, Note_on_c, 0, 51, 74
1, 714766, Note_on_c, 0, 84, 79
1, 714768, Poly_aftertouch_c, 0, 39, 127
1, 714791, Note_off_c, 0, 51, 57
1, 714805, Note_off_c, 0, 86, 62
1, 714809, Poly_aftertouch_c, 0, 39, 0
1, 714820, Note_on_c, 0, 48, 46
1, 714834, Note_on_c, 0, 39, 16
1, 714834, Note_on_c, 0, 82, 82
1, 714839, Note_on_c, 0, 43, 54
1, 714864, Note_off_c, 0, 43, 60
1, 714872, Note_off_c, 0, 84, 60
1, 714876, Note_on_c, 0, 81, 70
1, 714876, Note_off_c, 0, 39, 48
1, 714881, Note_on_c, 0, 51, 73
1, 714884, Note_off_c, 0, 48, 63
1, 714902, Note_off_c, 0, 82, 60
1, 714923, Note_on_c, 0, 79, 74
1, 714932, Note_off_c, 0, 51, 58
1, 714935, Note_on_c, 0, 48, 51
1, 714941, Note_off_c, 0, 81, 41
1, 714941, Note_on_c, 0, 43, 66
1, 714943, Note_off_c, 0, 79, 62
1, 714955, Note_on_c, 0, 39, 47
1, 714983, Note_on_c, 0, 77, 56
1, 714983, Note_on_c, 0, 79, 73
1, 714992, Note_off_c, 0, 39, 60
1, 715001, Note_on_c, 0, 51, 83
1, 715004, Note_off_c, 0, 43, 56
1, 715008, Note_off_c, 0, 79, 70
1, 715010, Note_on_c, 0, 75, 79
1, 715016, Note_off_c, 0, 48, 63
1, 715034, Note_off_c, 0, 77, 62
1, 715052, Note_off_c, 0, 51, 61
1, 715068, Note_on_c, 0, 74, 100
1, 715093, Control_c, 0, 64, 79
1, 715095, Note_off_c, 0, 75, 62
1, 715108, Control_c, 0, 64, 43
1, 715123, Control_c, 0, 64, 0
1, 715145, Note_on_c, 0, 75, 76
1, 715159, Note_off_c, 0, 74, 64
1, 715189, Note_off_c, 0, 75, 66
1, 715236, Note_on_c, 0, 77, 85
1, 715283, Note_on_c, 0, 79, 85
1, 715286, Control_c, 0, 64, 54
1, 715290, Note_on_c, 0, 48, 94
1, 715293, Note_on_c, 0, 39, 77
1, 715301, Control_c, 0, 64, 96
1, 715302, Note_on_c, 0, 43, 67
1, 715316, Note_off_c, 0, 77, 64
1, 715316, Control_c, 0, 64, 127
1, 715320, Note_on_c, 0, 81, 83
1, 715323, Note_off_c, 0, 39, 64
1, 715332, Note_off_c, 0, 43, 63
1, 715346, Note_off_c, 0, 48, 65
1, 715353, Note_off_c, 0, 79, 66
1, 715356, Note_on_c, 0, 82, 82
1, 715374, Note_off_c, 0, 81, 65
1, 715395, Note_off_c, 0, 82, 64
1, 715428, Note_on_c, 0, 84, 78
1, 715487, Note_on_c, 0, 86, 88
1, 715510, Control_c, 0, 64, 72
1, 715525, Control_c, 0, 64, 57
1, 715525, Note_on_c, 0, 53, 100
1, 715526, Note_on_c, 0, 87, 83
1, 715528, Note_on_c, 0, 48, 83
1, 715528, Note_off_c, 0, 84, 62
1, 715532, Note_on_c, 0, 45, 76
1, 715540, Control_c, 0, 64, 66
1, 715555, Note_off_c, 0, 86, 65
1, 715559, Note_off_c, 0, 48, 68
1, 715561, Control_c, 0, 64, 90
1, 715567, Note_off_c, 0, 45, 65
1, 715576, Control_c, 0, 64, 127
1, 715578, Note_off_c, 0, 87, 66
1, 715582, Note_off_c, 0, 53, 67
1, 715615, Note_on_c, 0, 89, 90
1, 715668, Note_on_c, 0, 91, 87
1, 715704, Note_off_c, 0, 89, 63
1, 715709, Note_on_c, 0, 93, 82
1, 715737, Note_on_c, 0, 94, 86
1, 715740, Note_off_c, 0, 91, 66
1, 715743, Note_on_c, 0, 60, 81
1, 715743, Note_on_c, 0, 65, 92
1, 715752, Note_on_c, 0, 58, 29
1, 715755, Note_off_c, 0, 93, 68
1, 715759, Note_off_c, 0, 65, 72
1, 715766, Note_on_c, 0, 57, 66
1, 715770, Note_off_c, 0, 94, 68
1, 715772, Note_off_c, 0, 60, 65
1, 715789, Note_off_c, 0, 58, 50
1, 715793, Note_off_c, 0, 57, 65
1, 715813, Poly_aftertouch_c, 0, 53, 127
1, 715820, Note_on_c, 0, 96, 76
1, 715847, Poly_aftertouch_c, 0, 53, 0
1, 715863, Note_on_c, 0, 98, 81
1, 715884, Note_off_c, 0, 96, 59
1, 715892, Note_on_c, 0, 99, 79
1, 715926, Note_off_c, 0, 98, 65
1, 715945, Note_on_c, 0, 100, 31
1, 715945, Note_off_c, 0, 99, 63
1, 715946, Control_c, 0, 64, 83
1, 715961, Control_c, 0, 64, 46
1, 715969, Note_on_c, 0, 58, 99
1, 715975, Note_on_c, 0, 98, 89
1, 715976, Control_c, 0, 64, 0
1, 715979, Note_on_c, 0, 50, 66
1, 715981, Note_on_c, 0, 89, 106
1, 715984, Note_on_c, 0, 101, 97
1, 715984, Note_on_c, 0, 53, 61
1, 715986, Note_off_c, 0, 100, 57
1, 715989, Note_on_c, 0, 46, 53
1, 715991, Control_c, 0, 64, 65
1, 715999, Note_on_c, 0, 91, 65
1, 716005, Note_off_c, 0, 91, 55
1, 716006, Control_c, 0, 64, 127
1, 716007, Note_off_c, 0, 50, 64
1, 716008, Note_off_c, 0, 53, 69
1, 716021, Note_off_c, 0, 46, 55
1, 716039, Note_off_c, 0, 58, 62
1, 716059, Note_off_c, 0, 89, 61
1, 716103, Note_on_c, 0, 94, 78
1, 716135, Note_off_c, 0, 101, 62
1, 716141, Note_off_c, 0, 98, 63
1, 716172, Note_on_c, 0, 89, 68
1, 716172, Note_off_c, 0, 94, 65
1, 716175, Note_on_c, 0, 91, 51
1, 716196, Note_off_c, 0, 89, 69
1, 716200, Note_off_c, 0, 91, 57
1, 716216, Note_on_c, 0, 58, 85
1, 716229, Note_on_c, 0, 50, 58
1, 716249, Note_on_c, 0, 86, 90
1, 716256, Note_on_c, 0, 89, 89
1, 716262, Note_off_c, 0, 50, 53
1, 716262, Note_off_c, 0, 58, 61
1, 716315, Note_on_c, 0, 82, 87
1, 716322, Note_on_c, 0, 58, 85
1, 716346, Note_on_c, 0, 85, 35
1, 716349, Note_off_c, 0, 89, 63
1, 716360, Note_on_c, 0, 50, 25
1, 716363, Note_on_c, 0, 77, 86
1, 716368, Note_off_c, 0, 58, 64
1, 716381, Note_off_c, 0, 86, 62
1, 716381, Note_off_c, 0, 85, 54
1, 716390, Note_off_c, 0, 82, 64
1, 716390, Note_off_c, 0, 50, 49
1, 716408, Note_off_c, 0, 77, 65
1, 716429, Note_on_c, 0, 62, 92
1, 716437, Note_on_c, 0, 58, 79
1, 716447, Note_on_c, 0, 89, 99
1, 716449, Note_on_c, 0, 86, 81
1, 716449, Note_off_c, 0, 62, 65
1, 716465, Note_off_c, 0, 58, 60
1, 716467, Note_on_c, 0, 50, 33
1, 716502, Note_on_c, 0, 82, 86
1, 716524, Note_off_c, 0, 50, 0
1, 716525, Note_off_c, 0, 89, 62
1, 716527, Note_on_c, 0, 85, 25
1, 716536, Note_on_c, 0, 50, 49
1, 716539, Note_on_c, 0, 58, 84
1, 716540, Poly_aftertouch_c, 0, 60, 0
1, 716544, Note_on_c, 0, 77, 88
1, 716557, Note_off_c, 0, 86, 60
1, 716567, Note_off_c, 0, 82, 63
1, 716571, Note_off_c, 0, 50, 61
1, 716572, Note_off_c, 0, 85, 53
1, 716582, Note_off_c, 0, 77, 63
1, 716587, Note_off_c, 0, 58, 59
1, 716648, Note_on_c, 0, 58, 79
1, 716652, Note_on_c, 0, 50, 61
1, 716655, Note_on_c, 0, 77, 75
1, 716678, Note_off_c, 0, 50, 62
1, 716681, Note_on_c, 0, 72, 53
1, 716683, Note_on_c, 0, 74, 54
1, 716685, Note_on_c, 0, 70, 82
1, 716705, Note_off_c, 0, 74, 62
1, 716713, Note_off_c, 0, 58, 60
1, 716716, Note_off_c, 0, 77, 62
1, 716723, Note_on_c, 0, 69, 64
1, 716734, Note_off_c, 0, 72, 44
1, 716737, Note_on_c, 0, 65, 78
1, 716746, Note_off_c, 0, 70, 60
1, 716756, Note_off_c, 0, 69, 64
1, 716760, Note_off_c, 0, 65, 71
1, 716783, Control_c, 0, 64, 77
1, 716798, Control_c, 0, 64, 0
1, 716804, Note_on_c, 0, 63, 104
1, 716810, Note_on_c, 0, 60, 81
1, 716812, Note_on_c, 0, 65, 113
1, 716816, Note_on_c, 0, 69, 95
1, 716821, Note_on_c, 0, 77, 83
1, 716825, Note_on_c, 0, 75, 78
1, 716828, Control_c, 0, 64, 36
1, 716833, Note_on_c, 0, 53, 52
1, 716834, Note_off_c, 0, 77, 73
1, 716836, Note_off_c, 0, 63, 69
1, 716843, Control_c, 0, 64, 72
1, 716847, Note_on_c, 0, 54, 53
1, 716848, Note_off_c, 0, 60, 66
1, 716858, Control_c, 0, 64, 127
1, 716862, Note_off_c, 0, 75, 66
1, 716866, Note_off_c, 0, 53, 66
1, 716869, Note_on_c, 0, 76, 21
1, 716873, Note_off_c, 0, 69, 61
1, 716875, Note_off_c, 0, 54, 35
1, 716875, Note_off_c, 0, 65, 65
1, 716911, Note_off_c, 0, 76, 53
1, 717087, Control_c, 0, 64, 71
1, 717102, Control_c, 0, 64, 0
1, 717105, Note_on_c, 0, 56, 90
1, 717105, Note_on_c, 0, 41, 107
1, 717114, Note_on_c, 0, 53, 104
1, 717117, Control_c, 0, 64, 36
1, 717118, Note_on_c, 0, 29, 82
1, 717123, Note_on_c, 0, 64, 68
1, 717127, Note_on_c, 0, 65, 78
1, 717130, Note_on_c, 0, 30, 61
1, 717132, Control_c, 0, 64, 64
1, 717140, Note_on_c, 0, 57, 79
1, 717147, Control_c, 0, 64, 97
1, 717150, Note_off_c, 0, 29, 62
1, 717162, Note_on_c, 0, 62, 49
1, 717162, Control_c, 0, 64, 127
1, 717168, Note_on_c, 0, 35, 39
1, 717175, Note_off_c, 0, 65, 58
1, 717178, Note_on_c, 0, 32, 20
1, 717194, Note_off_c, 0, 30, 57
1, 717197, Note_off_c, 0, 53, 58
1, 717197, Note_off_c, 0, 56, 57
1, 717198, Note_off_c, 0, 64, 61
1, 717204, Note_off_c, 0, 62, 58
1, 717210, Note_off_c, 0, 41, 59
1, 717215, Poly_aftertouch_c, 0, 34, 0
1, 717218, Poly_aftertouch_c, 0, 61, 0
1, 717218, Poly_aftertouch_c, 0, 36, 127
1, 717223, Note_off_c, 0, 57, 60
1, 717227, Note_off_c, 0, 32, 43
1, 717321, Note_off_c, 0, 35, 42
1, 717336, Poly_aftertouch_c, 0, 36, 0
1, 717365, Note_on_c, 0, 42, 108
1, 717370, Note_on_c, 0, 57, 103
1, 717374, Note_on_c, 0, 53, 108
1, 717381, Note_on_c, 0, 65, 88
1, 717390, Note_on_c, 0, 32, 62
1, 717394, Note_on_c, 0, 63, 61
1, 717398, Note_on_c, 0, 30, 48
1, 717398, Note_off_c, 0, 30, 127
1, 717399, Note_on_c, 0, 43, 51
1, 717414, Note_off_c, 0, 65, 44
1, 717429, Note_off_c, 0, 43, 54
1, 717437, Note_off_c, 0, 53, 63
1, 717451, Note_off_c, 0, 42, 61
1, 717453, Poly_aftertouch_c, 0, 61, 127
1, 717455, Note_off_c, 0, 57, 61
1, 717460, Note_off_c, 0, 32, 55
1, 717469, Note_off_c, 0, 63, 60
1, 717484, Poly_aftertouch_c, 0, 64, 0
1, 717496, Poly_aftertouch_c, 0, 61, 0
1, 717558, Note_on_c, 0, 43, 100
1, 717569, Note_on_c, 0, 58, 102
1, 717571, Note_on_c, 0, 53, 100
1, 717573, Note_on_c, 0, 31, 71
1, 717582, Note_on_c, 0, 65, 78
1, 717591, Note_on_c, 0, 61, 52
1, 717594, Note_on_c, 0, 63, 50
1, 717596, Note_on_c, 0, 32, 41
1, 717597, Note_on_c, 0, 57, 67
1, 717603, Note_off_c, 0, 31, 61
1, 717603, Note_off_c, 0, 53, 56
1, 717606, Note_on_c, 0, 36, 46
1, 717615, Note_off_c, 0, 43, 60
1, 717615, Note_off_c, 0, 61, 60
1, 717615, Note_off_c, 0, 65, 47
1, 717618, Note_off_c, 0, 58, 58
1, 717624, Note_off_c, 0, 63, 56
1, 717626, Note_off_c, 0, 57, 62
1, 717631, Note_off_c, 0, 32, 49
1, 717661, Poly_aftertouch_c, 0, 37, 0
1, 717673, Note_off_c, 0, 36, 58
1, 717699, Note_on_c, 0, 44, 94
1, 717706, Note_on_c, 0, 59, 88
1, 717709, Note_on_c, 0, 53, 92
1, 717710, Note_on_c, 0, 32, 71
1, 717714, Note_on_c, 0, 65, 72
1, 717726, Note_on_c, 0, 61, 42
1, 717727, Note_off_c, 0, 65, 72
1, 717731, Note_off_c, 0, 53, 65
1, 717737, Note_on_c, 0, 63, 28
1, 717752, Note_off_c, 0, 44, 64
1, 717755, Note_off_c, 0, 59, 61
1, 717756, Note_off_c, 0, 32, 60
1, 717760, Note_off_c, 0, 61, 56
1, 717769, Note_off_c, 0, 63, 55
1, 717818, Note_on_c, 0, 65, 66
1, 717828, Note_on_c, 0, 60, 77
1, 717830, Note_on_c, 0, 45, 79
1, 717830, Note_on_c, 0, 47, 79
1, 717838, Note_on_c, 0, 63, 79
1, 717852, Note_off_c, 0, 60, 69
1, 717854, Note_off_c, 0, 47, 69
1, 717859, Note_on_c, 0, 35, 30
1, 717864, Note_off_c, 0, 63, 69
1, 717880, Note_off_c, 0, 65, 64
1, 717880, Note_off_c, 0, 45, 60
1, 717893, Note_on_c, 0, 41, 21
1, 717902, Note_off_c, 0, 35, 44
1, 717922, Note_on_c, 0, 34, 75
1, 717942, Note_on_c, 0, 38, 57
1, 717963, Note_off_c, 0, 41, 0
1, 717970, Control_c, 0, 64, 67
1, 717976, Note_on_c, 0, 41, 32
1, 717985, Control_c, 0, 64, 0
1, 718005, Note_off_c, 0, 34, 62
1, 718014, Control_c, 0, 64, 51
1, 718014, Note_on_c, 0, 46, 94
1, 718025, Note_off_c, 0, 38, 64
1, 718029, Control_c, 0, 64, 80
1, 718030, Note_off_c, 0, 41, 63
1, 718033, Note_on_c, 0, 89, 115
1, 718036, Note_on_c, 0, 98, 104
1, 718037, Note_off_c, 0, 46, 72
1, 718038, Note_on_c, 0, 101, 100
1, 718044, Control_c, 0, 64, 127
1, 718047, Note_on_c, 0, 91, 77
1, 718053, Note_on_c, 0, 99, 65
1, 718060, Note_off_c, 0, 99, 45
1, 718061, Note_on_c, 0, 47, 34
1, 718062, Note_off_c, 0, 91, 46
1, 718062, Note_off_c, 0, 89, 68
1, 718072, Note_on_c, 0, 97, 33
1, 718072, Note_off_c, 0, 97, 127
1, 718077, Note_off_c, 0, 101, 0
1, 718091, Note_off_c, 0, 47, 56
1, 718094, Note_on_c, 0, 101, 65
1, 718122, Note_on_c, 0, 94, 83
1, 718166, Note_off_c, 0, 98, 63
1, 718168, Note_off_c, 0, 101, 57
1, 718193, Note_on_c, 0, 89, 89
1, 718206, Note_off_c, 0, 94, 65
1, 718219, Note_off_c, 0, 89, 61
1, 718258, Note_on_c, 0, 58, 94
1, 718266, Note_on_c, 0, 50, 69
1, 718293, Note_on_c, 0, 89, 93
1, 718295, Note_on_c, 0, 86, 84
1, 718298, Note_off_c, 0, 50, 64
1, 718301, Note_off_c, 0, 58, 59
1, 718345, Note_on_c, 0, 82, 87
1, 718362, Note_on_c, 0, 58, 88
1, 718365, Note_off_c, 0, 89, 62
1, 718369, Note_on_c, 0, 85, 47
1, 718389, Note_on_c, 0, 77, 85
1, 718403, Note_off_c, 0, 86, 60
1, 718410, Note_off_c, 0, 85, 50
1, 718414, Note_off_c, 0, 82, 62
1, 718416, Note_off_c, 0, 58, 61
1, 718435, Note_off_c, 0, 77, 64
1, 718461, Note_on_c, 0, 58, 88
1, 718462, Note_on_c, 0, 62, 92
1, 718469, Note_on_c, 0, 89, 94
1, 718473, Note_on_c, 0, 86, 88
1, 718482, Note_on_c, 0, 52, 59
1, 718494, Note_off_c, 0, 62, 56
1, 718507, Note_off_c, 0, 52, 57
1, 718509, Note_on_c, 0, 56, 10
1, 718516, Poly_aftertouch_c, 0, 50, 0
1, 718517, Note_off_c, 0, 58, 62
1, 718519, Note_on_c, 0, 82, 87
1, 718525, Note_on_c, 0, 85, 51
1, 718558, Note_off_c, 0, 89, 62
1, 718563, Note_off_c, 0, 56, 51
1, 718573, Note_on_c, 0, 77, 89
1, 718582, Note_on_c, 0, 58, 77
1, 718583, Note_off_c, 0, 86, 59
1, 718596, Note_on_c, 0, 50, 49
1, 718598, Note_off_c, 0, 82, 63
1, 718599, Note_off_c, 0, 85, 60
1, 718614, Note_off_c, 0, 77, 66
1, 718622, Note_off_c, 0, 50, 59
1, 718622, Note_off_c, 0, 58, 57
1, 718686, Note_on_c, 0, 77, 74
1, 718694, Note_on_c, 0, 74, 73
1, 718695, Note_on_c, 0, 58, 79
1, 718709, Note_on_c, 0, 50, 39
1, 718722, Note_on_c, 0, 70, 85
1, 718741, Note_off_c, 0, 50, 51
1, 718748, Note_off_c, 0, 58, 61
1, 718751, Note_off_c, 0, 77, 63
1, 718780, Note_on_c, 0, 65, 64
1, 718781, Note_off_c, 0, 74, 56
1, 718788, Note_off_c, 0, 70, 65
1, 718800, Note_off_c, 0, 65, 64
1, 718807, Control_c, 0, 64, 67
1, 718822, Control_c, 0, 64, 0
1, 718833, Note_on_c, 0, 63, 105
1, 718836, Note_on_c, 0, 60, 95
1, 718837, Note_on_c, 0, 65, 106
1, 718837, Note_on_c, 0, 69, 96
1, 718844, Note_on_c, 0, 77, 86
1, 718846, Note_on_c, 0, 53, 69
1, 718849, Note_on_c, 0, 75, 73
1, 718856, Note_off_c, 0, 77, 73
1, 718861, Note_off_c, 0, 63, 65
1, 718867, Control_c, 0, 64, 74
1, 718870, Note_off_c, 0, 60, 68
1, 718882, Control_c, 0, 64, 127
1, 718891, Note_off_c, 0, 75, 67
1, 718891, Note_off_c, 0, 53, 63
1, 718894, Note_off_c, 0, 65, 66
1, 718896, Note_off_c, 0, 69, 61
1, 718920, Poly_aftertouch_c, 0, 73, 0
1, 718948, Poly_aftertouch_c, 0, 73, 0
1, 719103, Control_c, 0, 64, 103
1, 719118, Control_c, 0, 64, 67
1, 719133, Control_c, 0, 64, 0
1, 719156, Note_on_c, 0, 41, 54
1, 719159, Note_on_c, 0, 29, 51
1, 719170, Note_on_c, 0, 53, 67
1, 719177, Control_c, 0, 64, 55
1, 719180, Note_on_c, 0, 57, 52
1, 719192, Note_off_c, 0, 29, 55
1, 719192, Control_c, 0, 64, 73
1, 719198, Note_on_c, 0, 65, 28
1, 719201, Note_off_c, 0, 53, 66
1, 719207, Control_c, 0, 64, 104
1, 719222, Note_off_c, 0, 41, 53
1, 719222, Control_c, 0, 64, 127
1, 719223, Note_off_c, 0, 57, 62
1, 719237, Note_off_c, 0, 65, 46
1, 719404, Note_on_c, 0, 53, 69
1, 719405, Note_on_c, 0, 57, 68
1, 719408, Note_on_c, 0, 42, 53
1, 719412, Note_on_c, 0, 30, 44
1, 719433, Note_off_c, 0, 53, 63
1, 719434, Note_off_c, 0, 57, 67
1, 719439, Note_off_c, 0, 42, 63
1, 719453, Control_c, 0, 64, 92
1, 719454, Note_off_c, 0, 30, 45
1, 719467, Control_c, 0, 64, 65
1, 719482, Control_c, 0, 64, 0
1, 719562, Note_on_c, 0, 43, 49
1, 719563, Note_on_c, 0, 31, 41
1, 719564, Note_on_c, 0, 58, 70
1, 719575, Note_on_c, 0, 53, 56
1, 719591, Note_off_c, 0, 43, 55
1, 719598, Note_off_c, 0, 58, 65
1, 719601, Note_off_c, 0, 53, 57
1, 719601, Note_off_c, 0, 31, 41
1, 719696, Note_on_c, 0, 53, 63
1, 719697, Note_on_c, 0, 44, 54
1, 719699, Note_on_c, 0, 59, 62
1, 719705, Note_on_c, 0, 32, 42
1, 719725, Note_off_c, 0, 44, 60
1, 719726, Note_off_c, 0, 53, 63
1, 719728, Note_off_c, 0, 59, 67
1, 719744, Note_off_c, 0, 32, 54
1, 719804, Note_on_c, 0, 53, 62
1, 719809, Note_on_c, 0, 45, 49
1, 719809, Note_on_c, 0, 60, 62
1, 719828, Note_off_c, 0, 53, 63
1, 719836, Note_off_c, 0, 45, 56
1, 719842, Note_off_c, 0, 60, 66
1, 719900, Note_on_c, 0, 53, 75
1, 719911, Control_c, 0, 64, 82
1, 719918, Note_on_c, 0, 41, 57
1, 719926, Note_on_c, 0, 57, 56
1, 719926, Note_off_c, 0, 53, 68
1, 719926, Control_c, 0, 64, 127
1, 719928, Note_on_c, 0, 65, 53
1, 719944, Note_off_c, 0, 41, 59
1, 719952, Note_off_c, 0, 57, 57
1, 719954, Note_off_c, 0, 65, 59
1, 720026, Note_on_c, 0, 41, 73
1, 720039, Note_on_c, 0, 65, 80
1, 720047, Note_on_c, 0, 69, 64
1, 720056, Note_on_c, 0, 29, 57
1, 720061, Note_off_c, 0, 65, 71
1, 720063, Note_off_c, 0, 41, 63
1, 720067, Note_off_c, 0, 69, 66
1, 720093, Note_off_c, 0, 29, 52
1, 720137, Note_on_c, 0, 42, 75
1, 720139, Note_on_c, 0, 77, 60
1, 720141, Note_on_c, 0, 69, 69
1, 720155, Note_on_c, 0, 30, 47
1, 720155, Note_on_c, 0, 65, 51
1, 720159, Note_off_c, 0, 77, 63
1, 720161, Note_on_c, 0, 70, 44
1, 720161, Note_off_c, 0, 42, 66
1, 720161, Note_off_c, 0, 69, 70
1, 720173, Note_off_c, 0, 65, 66
1, 720187, Note_off_c, 0, 70, 59
1, 720194, Note_off_c, 0, 30, 44
1, 720231, Control_c, 0, 64, 82
1, 720232, Note_on_c, 0, 43, 82
1, 720238, Note_on_c, 0, 65, 86
1, 720242, Note_on_c, 0, 70, 80
1, 720243, Note_on_c, 0, 77, 57
1, 720246, Note_on_c, 0, 31, 53
1, 720246, Control_c, 0, 64, 61
1, 720256, Note_off_c, 0, 65, 74
1, 720259, Note_off_c, 0, 43, 67
1, 720261, Control_c, 0, 64, 0
1, 720265, Note_off_c, 0, 70, 70
1, 720265, Note_off_c, 0, 77, 61
1, 720274, Note_on_c, 0, 36, 37
1, 720280, Note_off_c, 0, 31, 46
1, 720309, Note_off_c, 0, 36, 55
1, 720332, Note_on_c, 0, 65, 88
1, 720334, Note_on_c, 0, 77, 78
1, 720336, Note_on_c, 0, 44, 76
1, 720338, Note_on_c, 0, 71, 73
1, 720340, Note_on_c, 0, 32, 62
1, 720347, Note_on_c, 0, 75, 48
1, 720351, Note_off_c, 0, 65, 71
1, 720355, Note_off_c, 0, 77, 67
1, 720362, Note_off_c, 0, 71, 70
1, 720363, Note_off_c, 0, 44, 65
1, 720370, Note_off_c, 0, 75, 60
1, 720375, Note_off_c, 0, 32, 63
1, 720423, Control_c, 0, 64, 41
1, 720424, Note_on_c, 0, 45, 84
1, 720424, Note_on_c, 0, 65, 97
1, 720430, Note_on_c, 0, 72, 71
1, 720434, Note_on_c, 0, 77, 71
1, 720435, Note_on_c, 0, 75, 68
1, 720438, Control_c, 0, 64, 88
1, 720445, Note_off_c, 0, 65, 68
1, 720453, Note_off_c, 0, 45, 68
1, 720453, Control_c, 0, 64, 127
1, 720455, Note_off_c, 0, 77, 58
1, 720459, Note_off_c, 0, 72, 65
1, 720460, Note_off_c, 0, 75, 67
1, 720517, Note_on_c, 0, 77, 80
1, 720518, Note_on_c, 0, 75, 73
1, 720520, Note_on_c, 0, 67, 77
1, 720526, Note_on_c, 0, 53, 74
1, 720533, Note_on_c, 0, 41, 68
1, 720534, Note_off_c, 0, 67, 71
1, 720534, Note_off_c, 0, 75, 67
1, 720538, Note_on_c, 0, 52, 49
1, 720544, Note_off_c, 0, 53, 66
1, 720558, Note_off_c, 0, 77, 61
1, 720560, Note_off_c, 0, 41, 62
1, 720562, Note_off_c, 0, 52, 59
1, 720629, Note_on_c, 0, 41, 85
1, 720633, Note_on_c, 0, 89, 88
1, 720634, Note_on_c, 0, 81, 90
1, 720636, Note_on_c, 0, 77, 81
1, 720638, Note_on_c, 0, 82, 75
1, 720642, Note_on_c, 0, 87, 63
1, 720646, Note_off_c, 0, 89, 73
1, 720649, Note_on_c, 0, 29, 59
1, 720653, Note_off_c, 0, 82, 68
1, 720654, Note_off_c, 0, 41, 65
1, 720654, Note_off_c, 0, 81, 71
1, 720656, Note_off_c, 0, 77, 72
1, 720660, Note_off_c, 0, 87, 65
1, 720663, Note_on_c, 0, 85, 32
1, 720663, Note_off_c, 0, 85, 127
1, 720685, Note_off_c, 0, 29, 52
1, 720712, Note_on_c, 0, 42, 90
1, 720720, Note_on_c, 0, 89, 75
1, 720723, Note_on_c, 0, 77, 86
1, 720726, Note_on_c, 0, 30, 54
1, 720729, Note_on_c, 0, 81, 77
1, 720730, Note_on_c, 0, 87, 72
1, 720733, Note_on_c, 0, 82, 61
1, 720738, Note_off_c, 0, 42, 70
1, 720738, Note_off_c, 0, 77, 75
1, 720745, Note_off_c, 0, 89, 67
1, 720747, Note_off_c, 0, 87, 66
1, 720750, Note_off_c, 0, 81, 69
1, 720751, Note_off_c, 0, 82, 64
1, 720760, Note_on_c, 0, 88, 31
1, 720760, Note_off_c, 0, 88, 127
1, 720760, Note_off_c, 0, 30, 57
1, 720813, Poly_aftertouch_c, 0, 32, 127
1, 720815, Note_on_c, 0, 43, 89
1, 720825, Note_on_c, 0, 89, 89
1, 720826, Note_on_c, 0, 79, 92
1, 720828, Note_on_c, 0, 83, 88
1, 720840, Note_on_c, 0, 77, 62
1, 720841, Note_off_c, 0, 43, 70
1, 720844, Note_off_c, 0, 79, 71
1, 720844, Note_off_c, 0, 89, 70
1, 720845, Note_on_c, 0, 31, 40
1, 720846, Note_off_c, 0, 83, 71
1, 720852, Note_on_c, 0, 36, 56
1, 720856, Poly_aftertouch_c, 0, 32, 0
1, 720856, Note_off_c, 0, 77, 68
1, 720884, Note_off_c, 0, 31, 45
1, 720890, Note_off_c, 0, 36, 59
1, 720909, Note_on_c, 0, 32, 59
1, 720910, Note_on_c, 0, 44, 84
1, 720915, Note_on_c, 0, 77, 91
1, 720919, Note_on_c, 0, 87, 83
1, 720921, Note_on_c, 0, 89, 90
1, 720922, Note_on_c, 0, 83, 85
1, 720932, Note_off_c, 0, 77, 75
1, 720935, Note_off_c, 0, 89, 70
1, 720937, Note_off_c, 0, 44, 70
1, 720939, Note_off_c, 0, 83, 72
1, 720948, Note_off_c, 0, 87, 62
1, 720955, Poly_aftertouch_c, 0, 79, 127
1, 720965, Control_c, 0, 64, 67
1, 720968, Note_off_c, 0, 32, 60
1, 720980, Control_c, 0, 64, 0
1, 720983, Poly_aftertouch_c, 0, 79, 0
1, 720997, Note_on_c, 0, 45, 87
1, 721002, Note_on_c, 0, 77, 96
1, 721002, Note_on_c, 0, 89, 80
1, 721008, Note_on_c, 0, 84, 70
1, 721019, Note_on_c, 0, 87, 61
1, 721023, Note_on_c, 0, 33, 39
1, 721025, Control_c, 0, 64, 67
1, 721027, Note_off_c, 0, 77, 64
1, 721028, Note_off_c, 0, 45, 69
1, 721034, Note_on_c, 0, 88, 48
1, 721040, Note_off_c, 0, 87, 61
1, 721040, Control_c, 0, 64, 110
1, 721044, Note_off_c, 0, 84, 62
1, 721053, Note_off_c, 0, 89, 61
1, 721055, Control_c, 0, 64, 127
1, 721057, Note_off_c, 0, 88, 59
1, 721066, Note_off_c, 0, 33, 54
1, 721096, Note_on_c, 0, 53, 91
1, 721098, Note_on_c, 0, 89, 81
1, 721100, Note_on_c, 0, 87, 88
1, 721100, Poly_aftertouch_c, 0, 85, 0
1, 721104, Note_on_c, 0, 81, 82
1, 721117, Note_off_c, 0, 53, 71
1, 721120, Note_off_c, 0, 81, 70
1, 721122, Note_on_c, 0, 43, 38
1, 721122, Note_off_c, 0, 43, 127
1, 721122, Note_off_c, 0, 87, 64
1, 721138, Note_on_c, 0, 41, 34
1, 721140, Note_off_c, 0, 89, 64
1, 721152, Poly_aftertouch_c, 0, 43, 0
1, 721177, Note_off_c, 0, 41, 46
1, 721210, Note_on_c, 0, 43, 89
1, 721211, Note_on_c, 0, 93, 95
1, 721213, Note_on_c, 0, 89, 94
1, 721216, Note_on_c, 0, 101, 93
1, 721225, Note_on_c, 0, 31, 65
1, 721230, Note_on_c, 0, 99, 62
1, 721230, Note_off_c, 0, 89, 72
1, 721231, Note_on_c, 0, 94, 66
1, 721232, Note_off_c, 0, 43, 70
1, 721233, Note_on_c, 0, 37, 58
1, 721233, Note_off_c, 0, 101, 72
1, 721239, Note_on_c, 0, 97, 35
1, 721239, Note_off_c, 0, 97, 127
1, 721243, Note_off_c, 0, 93, 63
1, 721251, Note_off_c, 0, 99, 61
1, 721252, Note_off_c, 0, 94, 42
1, 721255, Note_off_c, 0, 31, 59
1, 721265, Note_off_c, 0, 37, 62
1, 721300, Note_on_c, 0, 93, 86
1, 721302, Note_on_c, 0, 44, 89
1, 721302, Note_on_c, 0, 89, 99
1, 721305, Note_on_c, 0, 32, 42
1, 721305, Note_on_c, 0, 101, 88
1, 721312, Note_on_c, 0, 99, 76
1, 721312, Note_on_c, 0, 100, 83
1, 721326, Note_off_c, 0, 89, 59
1, 721334, Note_off_c, 0, 100, 74
1, 721335, Note_on_c, 0, 42, 34
1, 721335, Note_off_c, 0, 99, 69
1, 721337, Note_off_c, 0, 32, 61
1, 721338, Note_off_c, 0, 101, 59
1, 721342, Note_off_c, 0, 44, 61
1, 721342, Note_off_c, 0, 93, 65
1, 721372, Note_off_c, 0, 42, 52
1, 721377, Poly_aftertouch_c, 0, 34, 0
1, 721402, Note_on_c, 0, 94, 99
1, 721403, Note_on_c, 0, 89, 102
1, 721406, Note_on_c, 0, 101, 91
1, 721408, Note_on_c, 0, 37, 43
1, 721408, Note_on_c, 0, 43, 75
1, 721410, Note_on_c, 0, 45, 68
1, 721411, Note_on_c, 0, 99, 83
1, 721415, Poly_aftertouch_c, 0, 34, 127
1, 721419, Note_off_c, 0, 89, 71
1, 721420, Note_on_c, 0, 97, 60
1, 721426, Note_on_c, 0, 100, 62
1, 721429, Note_on_c, 0, 33, 38
1, 721431, Note_off_c, 0, 99, 70
1, 721432, Note_off_c, 0, 101, 57
1, 721436, Note_off_c, 0, 43, 65
1, 721438, Note_off_c, 0, 97, 65
1, 721439, Note_off_c, 0, 45, 64
1, 721442, Note_off_c, 0, 94, 66
1, 721448, Note_off_c, 0, 100, 40
1, 721471, Poly_aftertouch_c, 0, 34, 0
1, 721472, Note_off_c, 0, 37, 62
1, 721476, Note_off_c, 0, 33, 43
1, 721499, Note_on_c, 0, 44, 93
1, 721499, Note_on_c, 0, 89, 102
1, 721500, Note_on_c, 0, 101, 100
1, 721502, Note_on_c, 0, 95, 90
1, 721508, Note_on_c, 0, 99, 78
1, 721512, Note_on_c, 0, 32, 73
1, 721524, Note_on_c, 0, 97, 47
1, 721524, Note_off_c, 0, 97, 127
1, 721529, Note_off_c, 0, 89, 59
1, 721531, Note_off_c, 0, 99, 69
1, 721544, Note_off_c, 0, 44, 60
1, 721544, Note_on_c, 0, 100, 32
1, 721544, Note_off_c, 0, 100, 127
1, 721550, Note_off_c, 0, 101, 60
1, 721556, Note_off_c, 0, 95, 62
1, 721562, Note_off_c, 0, 32, 59
1, 721562, Poly_aftertouch_c, 0, 37, 127
1, 721600, Note_on_c, 0, 45, 84
1, 721605, Note_on_c, 0, 89, 109
1, 721605, Note_on_c, 0, 101, 89
1, 721608, Note_on_c, 0, 95, 76
1, 721610, Note_on_c, 0, 99, 90
1, 721612, Note_on_c, 0, 33, 56
1, 721624, Poly_aftertouch_c, 0, 34, 127
1, 721629, Note_on_c, 0, 97, 56
1, 721630, Poly_aftertouch_c, 0, 37, 0
1, 721650, Note_on_c, 0, 100, 18
1, 721650, Note_off_c, 0, 100, 127
1, 721650, Note_off_c, 0, 89, 62
1, 721651, Note_off_c, 0, 33, 49
1, 721651, Note_off_c, 0, 97, 62
1, 721656, Note_off_c, 0, 45, 63
1, 721666, Note_off_c, 0, 101, 64
1, 721666, Note_off_c, 0, 95, 64
1, 721673, Note_off_c, 0, 99, 63
1, 721676, Poly_aftertouch_c, 0, 34, 0
1, 721684, Control_c, 0, 64, 77
1, 721699, Control_c, 0, 64, 45
1, 721714, Control_c, 0, 64, 44
1, 721718, Note_on_c, 0, 93, 110
1, 721719, Note_on_c, 0, 99, 95
1, 721720, Note_on_c, 0, 101, 96
1, 721723, Note_on_c, 0, 53, 103
1, 721729, Control_c, 0, 64, 76
1, 721741, Note_off_c, 0, 101, 67
1, 721743, Control_c, 0, 64, 127
1, 721749, Note_on_c, 0, 41, 56
1, 721752, Note_on_c, 0, 44, 45
1, 721756, Note_on_c, 0, 43, 41
1, 721756, Note_off_c, 0, 93, 68
1, 721760, Note_on_c, 0, 46, 36
1, 721760, Note_off_c, 0, 46, 127
1, 721761, Note_off_c, 0, 99, 65
1, 721765, Note_off_c, 0, 53, 62
1, 721768, Note_on_c, 0, 49, 22
1, 721774, Note_off_c, 0, 41, 57
1, 721781, Note_off_c, 0, 44, 62
1, 721788, Note_off_c, 0, 43, 56
1, 721796, Poly_aftertouch_c, 0, 46, 0
1, 721812, Note_off_c, 0, 49, 50
1, 721934, Note_on_c, 0, 52, 86
1, 721946, Note_on_c, 0, 65, 94
1, 721947, Note_on_c, 0, 40, 59
1, 721947, Note_on_c, 0, 77, 82
1, 721955, Poly_aftertouch_c, 0, 44, 0
1, 721964, Note_off_c, 0, 52, 64
1, 721964, Note_off_c, 0, 65, 71
1, 721967, Note_off_c, 0, 77, 71
1, 721975, Note_off_c, 0, 40, 55
1, 721977, Note_on_c, 0, 75, 30
1, 722013, Note_off_c, 0, 75, 52
1, 722051, Note_on_c, 0, 51, 96
1, 722063, Note_on_c, 0, 66, 76
1, 722066, Note_on_c, 0, 39, 74
1, 722074, Note_off_c, 0, 51, 69
1, 722081, Note_off_c, 0, 66, 66
1, 722083, Note_on_c, 0, 42, 40
1, 722083, Note_off_c, 0, 42, 127
1, 722087, Note_on_c, 0, 77, 46
1, 722095, Note_on_c, 0, 75, 39
1, 722096, Note_off_c, 0, 39, 64
1, 722109, Note_off_c, 0, 77, 61
1, 722116, Poly_aftertouch_c, 0, 42, 0
1, 722124, Note_off_c, 0, 75, 57
1, 722152, Note_on_c, 0, 67, 92
1, 722153, Note_on_c, 0, 50, 94
1, 722161, Note_on_c, 0, 79, 83
1, 722170, Note_on_c, 0, 38, 63
1, 722178, Note_off_c, 0, 50, 66
1, 722178, Note_off_c, 0, 67, 64
1, 722182, Note_on_c, 0, 78, 47
1, 722182, Note_off_c, 0, 79, 72
1, 722199, Note_off_c, 0, 38, 62
1, 722205, Note_off_c, 0, 78, 58
1, 722230, Poly_aftertouch_c, 0, 39, 127
1, 722246, Note_on_c, 0, 68, 99
1, 722247, Note_on_c, 0, 49, 90
1, 722250, Note_on_c, 0, 80, 91
1, 722260, Note_on_c, 0, 37, 72
1, 722261, Poly_aftertouch_c, 0, 39, 0
1, 722262, Note_on_c, 0, 78, 71
1, 722273, Note_off_c, 0, 49, 68
1, 722280, Note_off_c, 0, 78, 68
1, 722290, Note_off_c, 0, 68, 65
1, 722295, Note_off_c, 0, 80, 67
1, 722299, Note_off_c, 0, 37, 62
1, 722350, Poly_aftertouch_c, 0, 39, 0
1, 722355, Note_on_c, 0, 48, 95
1, 722357, Note_on_c, 0, 69, 94
1, 722365, Note_on_c, 0, 81, 87
1, 722366, Note_on_c, 0, 39, 40
1, 722367, Note_on_c, 0, 74, 35
1, 722367, Note_on_c, 0, 78, 51
1, 722367, Note_off_c, 0, 78, 127
1, 722371, Note_on_c, 0, 41, 64
1, 722376, Note_off_c, 0, 48, 68
1, 722377, Note_on_c, 0, 36, 51
1, 722390, Note_on_c, 0, 71, 49
1, 722390, Note_off_c, 0, 71, 127
1, 722392, Note_off_c, 0, 81, 62
1, 722396, Note_on_c, 0, 37, 27
1, 722396, Note_off_c, 0, 69, 64
1, 722397, Note_on_c, 0, 77, 45
1, 722398, Note_off_c, 0, 39, 62
1, 722403, Note_off_c, 0, 41, 62
1, 722408, Note_off_c, 0, 36, 55
1, 722419, Note_on_c, 0, 80, 4
1, 722420, Note_off_c, 0, 77, 61
1, 722427, Note_off_c, 0, 74, 64
1, 722433, Control_c, 0, 64, 65
1, 722435, Note_off_c, 0, 37, 44
1, 722447, Control_c, 0, 64, 0
1, 722449, Note_on_c, 0, 46, 98
1, 722453, Note_on_c, 0, 41, 86
1, 722453, Note_on_c, 0, 70, 102
1, 722454, Note_on_c, 0, 38, 78
1, 722456, Note_on_c, 0, 74, 58
1, 722456, Note_on_c, 0, 82, 99
1, 722457, Note_off_c, 0, 80, 0
1, 722459, Note_on_c, 0, 77, 86
1, 722470, Note_on_c, 0, 34, 60
1, 722492, Control_c, 0, 64, 65
1, 722495, Poly_aftertouch_c, 0, 80, 127
1, 722501, Note_off_c, 0, 34, 61
1, 722507, Control_c, 0, 64, 127
1, 722511, Note_off_c, 0, 38, 64
1, 722518, Note_off_c, 0, 41, 62
1, 722531, Note_off_c, 0, 46, 63
1, 722539, Note_off_c, 0, 82, 61
1, 722540, Note_off_c, 0, 70, 60
1, 722547, Note_off_c, 0, 74, 63
1, 722548, Note_off_c, 0, 77, 60
1, 722556, Poly_aftertouch_c, 0, 80, 0
1, 722652, Note_on_c, 0, 70, 79
1, 722656, Note_on_c, 0, 58, 81
1, 722658, Note_on_c, 0, 82, 65
1, 722673, Note_off_c, 0, 70, 67
1, 722674, Note_off_c, 0, 82, 67
1, 722684, Note_off_c, 0, 58, 65
1, 722745, Note_on_c, 0, 82, 82
1, 722749, Note_on_c, 0, 70, 74
1, 722751, Note_on_c, 0, 58, 79
1, 722770, Note_off_c, 0, 70, 71
1, 722776, Note_off_c, 0, 82, 61
1, 722800, Note_off_c, 0, 58, 59
1, 722840, Note_on_c, 0, 62, 81
1, 722849, Note_on_c, 0, 74, 93
1, 722852, Note_on_c, 0, 86, 79
1, 722864, Note_off_c, 0, 74, 75
1, 722865, Note_off_c, 0, 86, 70
1, 722873, Note_off_c, 0, 62, 60
1, 722939, Note_on_c, 0, 58, 84
1, 722951, Note_on_c, 0, 70, 94
1, 722951, Note_on_c, 0, 82, 88
1, 722972, Note_off_c, 0, 70, 65
1, 722982, Note_off_c, 0, 82, 50
1, 722992, Note_off_c, 0, 58, 62
1, 723040, Note_on_c, 0, 58, 80
1, 723048, Note_on_c, 0, 70, 91
1, 723049, Note_on_c, 0, 82, 85
1, 723079, Note_off_c, 0, 82, 62
1, 723080, Note_off_c, 0, 58, 65
1, 723095, Note_off_c, 0, 70, 63
1, 723237, Note_on_c, 0, 53, 84
1, 723237, Note_on_c, 0, 65, 90
1, 723239, Note_on_c, 0, 77, 80
1, 723255, Note_off_c, 0, 77, 70
1, 723257, Note_off_c, 0, 65, 72
1, 723261, Note_off_c, 0, 53, 67
1, 723326, Note_on_c, 0, 50, 90
1, 723327, Note_on_c, 0, 62, 89
1, 723333, Note_on_c, 0, 74, 76
1, 723345, Note_off_c, 0, 62, 71
1, 723348, Note_off_c, 0, 74, 68
1, 723353, Note_on_c, 0, 73, 42
1, 723374, Note_off_c, 0, 50, 62
1, 723382, Note_off_c, 0, 73, 57
1, 723406, Note_on_c, 0, 50, 73
1, 723412, Note_on_c, 0, 62, 95
1, 723415, Note_on_c, 0, 74, 84
1, 723434, Note_off_c, 0, 50, 66
1, 723437, Note_off_c, 0, 74, 66
1, 723444, Note_on_c, 0, 73, 44
1, 723456, Note_off_c, 0, 62, 62
1, 723470, Note_off_c, 0, 73, 58
1, 723584, Note_on_c, 0, 46, 89
1, 723585, Note_on_c, 0, 70, 89
1, 723597, Note_on_c, 0, 58, 69
1, 723600, Note_off_c, 0, 70, 76
1, 723614, Note_off_c, 0, 46, 64
1, 723621, Note_on_c, 0, 63, 31
1, 723621, Note_off_c, 0, 63, 127
1, 723625, Note_off_c, 0, 58, 64
1, 723658, Poly_aftertouch_c, 0, 63, 0
1, 723679, Note_on_c, 0, 53, 89
1, 723683, Note_on_c, 0, 41, 75
1, 723694, Note_on_c, 0, 65, 60
1, 723699, Note_off_c, 0, 53, 70
1, 723712, Note_off_c, 0, 65, 66
1, 723725, Note_off_c, 0, 41, 58
1, 723759, Note_on_c, 0, 41, 61
1, 723770, Note_on_c, 0, 65, 78
1, 723795, Note_on_c, 0, 64, 45
1, 723802, Note_off_c, 0, 41, 59
1, 723807, Note_off_c, 0, 65, 67
1, 723820, Note_off_c, 0, 64, 57
1, 723852, Poly_aftertouch_c, 0, 53, 0
1, 723872, Control_c, 0, 64, 114
1, 723882, Note_on_c, 0, 34, 67
1, 723887, Control_c, 0, 64, 65
1, 723901, Control_c, 0, 64, 0
1, 723930, Note_off_c, 0, 34, 60
1, 723931, Control_c, 0, 64, 51
1, 723932, Note_on_c, 0, 41, 60
1, 723932, Note_on_c, 0, 46, 91
1, 723936, Note_on_c, 0, 38, 69
1, 723946, Control_c, 0, 64, 88
1, 723949, Note_on_c, 0, 86, 117
1, 723950, Note_on_c, 0, 94, 113
1, 723955, Note_on_c, 0, 98, 100
1, 723956, Note_on_c, 0, 97, 95
1, 723958, Note_off_c, 0, 41, 63
1, 723961, Control_c, 0, 64, 127
1, 723962, Note_off_c, 0, 38, 66
1, 723963, Note_on_c, 0, 92, 75
1, 723963, Note_off_c, 0, 92, 127
1, 723968, Note_on_c, 0, 95, 73
1, 723970, Note_off_c, 0, 86, 64
1, 723970, Note_off_c, 0, 97, 76
1, 723970, Note_off_c, 0, 98, 73
1, 723972, Note_off_c, 0, 46, 61
1, 723985, Note_off_c, 0, 95, 68
1, 723991, Note_off_c, 0, 94, 61
1, 724134, Note_on_c, 0, 70, 75
1, 724156, Note_on_c, 0, 58, 46
1, 724156, Note_off_c, 0, 70, 70
1, 724161, Note_on_c, 0, 74, 79
1, 724170, Note_on_c, 0, 86, 62
1, 724193, Note_off_c, 0, 58, 47
1, 724193, Note_off_c, 0, 86, 56
1, 724206, Note_off_c, 0, 74, 0
1, 724221, Note_on_c, 0, 74, 61
1, 724229, Note_on_c, 0, 86, 64
1, 724233, Note_on_c, 0, 70, 68
1, 724243, Note_off_c, 0, 74, 70
1, 724250, Note_off_c, 0, 70, 68
1, 724253, Note_off_c, 0, 86, 67
1, 724303, Poly_aftertouch_c, 0, 58, 0
1, 724322, Note_on_c, 0, 74, 79
1, 724327, Note_on_c, 0, 77, 89
1, 724329, Note_on_c, 0, 62, 65
1, 724329, Note_on_c, 0, 89, 83
1, 724337, Note_off_c, 0, 74, 68
1, 724343, Note_off_c, 0, 89, 69
1, 724345, Note_off_c, 0, 77, 71
1, 724349, Note_off_c, 0, 62, 64
1, 724413, Note_on_c, 0, 74, 91
1, 724414, Note_on_c, 0, 70, 87
1, 724419, Note_on_c, 0, 86, 84
1, 724431, Note_off_c, 0, 70, 73
1, 724434, Note_on_c, 0, 58, 52
1, 724438, Note_on_c, 0, 84, 69
1, 724439, Note_off_c, 0, 86, 66
1, 724447, Note_off_c, 0, 74, 61
1, 724458, Note_off_c, 0, 84, 40
1, 724488, Note_off_c, 0, 58, 0
1, 724501, Note_on_c, 0, 58, 53
1, 724501, Note_on_c, 0, 70, 76
1, 724507, Note_on_c, 0, 74, 93
1, 724509, Poly_aftertouch_c, 0, 62, 0
1, 724514, Note_on_c, 0, 86, 89
1, 724522, Note_off_c, 0, 70, 70
1, 724539, Note_off_c, 0, 86, 72
1, 724549, Note_off_c, 0, 58, 57
1, 724555, Note_off_c, 0, 74, 64
1, 724625, Poly_aftertouch_c, 0, 84, 0
1, 724643, Note_on_c, 0, 56, 44
1, 724673, Note_off_c, 0, 56, 52
1, 724702, Note_on_c, 0, 65, 77
1, 724708, Note_on_c, 0, 53, 66
1, 724709, Note_on_c, 0, 70, 86
1, 724709, Note_on_c, 0, 82, 81
1, 724718, Note_off_c, 0, 65, 68
1, 724725, Note_off_c, 0, 70, 73
1, 724727, Note_off_c, 0, 82, 71
1, 724738, Note_off_c, 0, 53, 63
1, 724801, Note_on_c, 0, 65, 90
1, 724801, Note_on_c, 0, 77, 85
1, 724808, Note_on_c, 0, 64, 59
1, 724820, Note_on_c, 0, 67, 53
1, 724821, Note_off_c, 0, 77, 68
1, 724823, Note_off_c, 0, 65, 70
1, 724823, Note_on_c, 0, 52, 36
1, 724824, Note_on_c, 0, 62, 38
1, 724827, Note_off_c, 0, 64, 63
1, 724828, Note_on_c, 0, 50, 39
1, 724843, Note_off_c, 0, 67, 61
1, 724855, Note_off_c, 0, 62, 54
1, 724856, Note_off_c, 0, 52, 50
1, 724858, Note_off_c, 0, 50, 54
1, 724885, Note_on_c, 0, 62, 84
1, 724886, Note_on_c, 0, 65, 103
1, 724894, Note_on_c, 0, 77, 79
1, 724903, Note_on_c, 0, 50, 46
1, 724906, Note_off_c, 0, 62, 71
1, 724912, Note_off_c, 0, 77, 71
1, 724912, Note_on_c, 0, 51, 46
1, 724933, Note_off_c, 0, 50, 54
1, 724943, Note_off_c, 0, 51, 54
1, 724944, Note_off_c, 0, 65, 63
1, 725062, Note_on_c, 0, 58, 73
1, 725071, Note_on_c, 0, 62, 87
1, 725075, Note_on_c, 0, 46, 58
1, 725085, Note_on_c, 0, 74, 59
1, 725088, Note_off_c, 0, 58, 68
1, 725089, Note_off_c, 0, 62, 73
1, 725095, Note_off_c, 0, 46, 64
1, 725109, Note_off_c, 0, 74, 40
1, 725157, Note_on_c, 0, 58, 94
1, 725163, Note_on_c, 0, 55, 74
1, 725173, Note_on_c, 0, 70, 51
1, 725175, Note_on_c, 0, 43, 60
1, 725177, Note_off_c, 0, 58, 64
1, 725180, Note_off_c, 0, 55, 67
1, 725195, Note_off_c, 0, 70, 61
1, 725201, Note_off_c, 0, 43, 57
1, 725202, Note_on_c, 0, 68, 19
1, 725237, Note_on_c, 0, 53, 20
1, 725246, Note_on_c, 0, 70, 86
1, 725249, Note_on_c, 0, 58, 60
1, 725249, Note_off_c, 0, 58, 127
1, 725267, Poly_aftertouch_c, 0, 63, 0
1, 725267, Poly_aftertouch_c, 0, 66, 127
1, 725275, Note_off_c, 0, 53, 64
1, 725308, Note_off_c, 0, 70, 65
1, 725314, Poly_aftertouch_c, 0, 66, 0
1, 725327, Note_off_c, 0, 68, 22
1, 725354, Control_c, 0, 64, 72
1, 725369, Control_c, 0, 64, 0
1, 725398, Control_c, 0, 64, 60
1, 725399, Note_on_c, 0, 34, 50
1, 725403, Note_on_c, 0, 42, 56
1, 725404, Poly_aftertouch_c, 0, 58, 0
1, 725406, Note_on_c, 0, 39, 46
1, 725413, Control_c, 0, 64, 96
1, 725419, Note_on_c, 0, 46, 94
1, 725428, Note_off_c, 0, 34, 59
1, 725428, Control_c, 0, 64, 127
1, 725437, Note_on_c, 0, 89, 120
1, 725440, Note_on_c, 0, 94, 100
1, 725440, Note_on_c, 0, 98, 103
1, 725442, Note_off_c, 0, 46, 71
1, 725444, Note_on_c, 0, 100, 103
1, 725444, Note_off_c, 0, 39, 62
1, 725448, Note_off_c, 0, 42, 65
1, 725453, Note_off_c, 0, 94, 77
1, 725457, Note_on_c, 0, 97, 68
1, 725457, Note_off_c, 0, 97, 127
1, 725457, Note_on_c, 0, 101, 63
1, 725457, Note_off_c, 0, 101, 127
1, 725457, Note_off_c, 0, 98, 67
1, 725459, Note_off_c, 0, 100, 78
1, 725461, Note_off_c, 0, 89, 66
1, 725480, Note_on_c, 0, 48, 31
1, 725485, Note_on_c, 0, 47, 7
1, 725523, Note_off_c, 0, 48, 43
1, 725535, Note_off_c, 0, 47, 52
1, 725631, Note_on_c, 0, 53, 66
1, 725634, Note_on_c, 0, 65, 66
1, 725645, Note_on_c, 0, 77, 76
1, 725654, Note_off_c, 0, 65, 64
1, 725658, Note_on_c, 0, 89, 55
1, 725660, Note_off_c, 0, 53, 65
1, 725665, Note_off_c, 0, 77, 72
1, 725669, Note_on_c, 0, 79, 40
1, 725678, Note_off_c, 0, 89, 62
1, 725707, Note_off_c, 0, 79, 52
1, 725720, Note_on_c, 0, 65, 80
1, 725722, Note_on_c, 0, 77, 89
1, 725731, Note_on_c, 0, 89, 81
1, 725737, Note_off_c, 0, 77, 76
1, 725741, Note_off_c, 0, 65, 71
1, 725750, Note_off_c, 0, 89, 71
1, 725818, Note_on_c, 0, 70, 79
1, 725825, Note_on_c, 0, 82, 94
1, 725830, Note_on_c, 0, 94, 89
1, 725831, Note_on_c, 0, 58, 61
1, 725839, Note_off_c, 0, 70, 71
1, 725840, Note_off_c, 0, 82, 74
1, 725848, Note_off_c, 0, 94, 73
1, 725854, Note_off_c, 0, 58, 62
1, 725911, Note_on_c, 0, 65, 95
1, 725917, Note_on_c, 0, 77, 94
1, 725917, Note_on_c, 0, 89, 89
1, 725919, Note_on_c, 0, 53, 74
1, 725931, Note_off_c, 0, 65, 70
1, 725935, Note_on_c, 0, 58, 43
1, 725935, Note_off_c, 0, 58, 127
1, 725938, Note_on_c, 0, 87, 51
1, 725949, Note_off_c, 0, 53, 65
1, 725950, Note_off_c, 0, 89, 57
1, 725951, Note_off_c, 0, 77, 56
1, 725958, Note_off_c, 0, 87, 61
1, 725958, Poly_aftertouch_c, 0, 58, 0
1, 726003, Note_on_c, 0, 77, 88
1, 726004, Note_on_c, 0, 65, 94
1, 726007, Note_on_c, 0, 89, 82
1, 726015, Note_on_c, 0, 53, 74
1, 726037, Note_off_c, 0, 65, 61
1, 726042, Note_on_c, 0, 87, 53
1, 726048, Note_off_c, 0, 89, 51
1, 726054, Note_off_c, 0, 53, 64
1, 726067, Note_off_c, 0, 87, 59
1, 726072, Note_off_c, 0, 77, 62
1, 726157, Note_on_c, 0, 54, 31
1, 726189, Note_off_c, 0, 54, 50
1, 726211, Note_on_c, 0, 62, 74
1, 726211, Note_on_c, 0, 74, 88
1, 726218, Note_on_c, 0, 86, 64
1, 726225, Note_on_c, 0, 50, 49
1, 726228, Note_off_c, 0, 62, 66
1, 726235, Note_off_c, 0, 74, 65
1, 726237, Note_off_c, 0, 86, 63
1, 726249, Note_on_c, 0, 84, 34
1, 726254, Note_off_c, 0, 50, 55
1, 726284, Note_off_c, 0, 84, 44
1, 726302, Note_on_c, 0, 58, 89
1, 726311, Note_on_c, 0, 82, 88
1, 726313, Note_on_c, 0, 70, 91
1, 726323, Note_off_c, 0, 58, 70
1, 726331, Note_off_c, 0, 70, 71
1, 726334, Note_off_c, 0, 82, 61
1, 726340, Note_on_c, 0, 46, 32
1, 726340, Note_on_c, 0, 80, 40
1, 726341, Note_on_c, 0, 75, 37
1, 726341, Note_off_c, 0, 75, 127
1, 726371, Note_off_c, 0, 80, 39
1, 726385, Note_off_c, 0, 46, 0
1, 726391, Note_on_c, 0, 58, 95
1, 726397, Note_on_c, 0, 46, 65
1, 726406, Note_on_c, 0, 70, 97
1, 726415, Poly_aftertouch_c, 0, 78, 0
1, 726421, Note_on_c, 0, 82, 60
1, 726421, Note_off_c, 0, 82, 127
1, 726429, Note_on_c, 0, 80, 66
1, 726431, Note_off_c, 0, 46, 66
1, 726432, Note_off_c, 0, 58, 59
1, 726458, Note_off_c, 0, 80, 51
1, 726462, Note_off_c, 0, 70, 62
1, 726467, Note_on_c, 0, 69, 19
1, 726508, Note_off_c, 0, 69, 52
1, 726563, Control_c, 0, 64, 65
1, 726578, Control_c, 0, 64, 37
1, 726592, Poly_aftertouch_c, 0, 44, 0
1, 726593, Control_c, 0, 64, 58
1, 726594, Note_on_c, 0, 53, 90
1, 726599, Note_on_c, 0, 65, 95
1, 726602, Note_on_c, 0, 41, 73
1, 726607, Note_on_c, 0, 77, 71
1, 726608, Poly_aftertouch_c, 0, 44, 0
1, 726608, Control_c, 0, 64, 81
1, 726617, Note_off_c, 0, 53, 70
1, 726622, Note_off_c, 0, 65, 69
1, 726622, Note_off_c, 0, 77, 69
1, 726623, Control_c, 0, 64, 127
1, 726627, Note_off_c, 0, 41, 63
1, 726641, Note_on_c, 0, 75, 24
1, 726641, Note_off_c, 0, 75, 127
1, 726699, Note_on_c, 0, 50, 86
1, 726704, Note_on_c, 0, 62, 94
1, 726706, Note_on_c, 0, 74, 85
1, 726716, Note_on_c, 0, 38, 60
1, 726719, Note_off_c, 0, 50, 71
1, 726722, Note_off_c, 0, 62, 71
1, 726722, Note_off_c, 0, 74, 68
1, 726739, Note_on_c, 0, 64, 35
1, 726739, Note_off_c, 0, 64, 127
1, 726744, Note_off_c, 0, 38, 58
1, 726781, Poly_aftertouch_c, 0, 64, 0
1, 726797, Note_on_c, 0, 50, 83
1, 726802, Note_on_c, 0, 62, 99
1, 726802, Poly_aftertouch_c, 0, 73, 0
1, 726805, Note_on_c, 0, 74, 63
1, 726817, Note_on_c, 0, 38, 58
1, 726823, Note_on_c, 0, 72, 56
1, 726825, Note_off_c, 0, 50, 64
1, 726832, Note_off_c, 0, 74, 65
1, 726842, Note_off_c, 0, 72, 65
1, 726845, Note_off_c, 0, 38, 56
1, 726847, Note_off_c, 0, 62, 63
1, 726970, Control_c, 0, 64, 68
1, 726985, Control_c, 0, 64, 0
1, 726992, Note_on_c, 0, 46, 102
1, 727000, Poly_aftertouch_c, 0, 38, 0
1, 727000, Control_c, 0, 64, 34
1, 727001, Note_on_c, 0, 34, 80
1, 727003, Note_on_c, 0, 58, 94
1, 727003, Note_on_c, 0, 70, 91
1, 727015, Control_c, 0, 64, 66
1, 727029, Control_c, 0, 64, 127
1, 727032, Note_on_c, 0, 68, 46
1, 727035, Note_on_c, 0, 63, 39
1, 727035, Note_off_c, 0, 63, 127
1, 727036, Note_off_c, 0, 46, 67
1, 727043, Note_off_c, 0, 70, 68
1, 727061, Note_off_c, 0, 68, 59
1, 727064, Note_off_c, 0, 58, 62
1, 727073, Note_off_c, 0, 34, 60
1, 727166, Note_on_c, 0, 53, 82
1, 727169, Note_on_c, 0, 41, 91
1, 727183, Note_on_c, 0, 65, 70
1, 727188, Note_off_c, 0, 53, 70
1, 727189, Note_on_c, 0, 63, 52
1, 727190, Note_on_c, 0, 64, 50
1, 727194, Note_off_c, 0, 41, 68
1, 727204, Note_on_c, 0, 29, 28
1, 727204, Note_off_c, 0, 29, 127
1, 727213, Note_off_c, 0, 64, 60
1, 727214, Note_off_c, 0, 63, 63
1, 727214, Note_off_c, 0, 65, 66
1, 727246, Poly_aftertouch_c, 0, 29, 0
1, 727315, Note_on_c, 0, 58, 86
1, 727321, Note_on_c, 0, 46, 75
1, 727328, Note_on_c, 0, 82, 97
1, 727330, Note_off_c, 0, 58, 76
1, 727342, Note_off_c, 0, 82, 75
1, 727344, Note_on_c, 0, 75, 61
1, 727344, Note_off_c, 0, 75, 127
1, 727346, Note_off_c, 0, 46, 65
1, 727347, Note_on_c, 0, 71, 65
1, 727355, Note_on_c, 0, 72, 43
1, 727355, Note_off_c, 0, 72, 127
1, 727357, Note_on_c, 0, 70, 29
1, 727357, Note_off_c, 0, 70, 127
1, 727365, Note_off_c, 0, 71, 65
1, 727390, Poly_aftertouch_c, 0, 49, 127
1, 727395, Note_on_c, 0, 80, 3
1, 727425, Poly_aftertouch_c, 0, 49, 0
1, 727433, Note_on_c, 0, 65, 93
1, 727437, Note_off_c, 0, 80, 51
1, 727437, Note_on_c, 0, 53, 95
1, 727437, Note_on_c, 0, 77, 71
1, 727446, Note_on_c, 0, 75, 58
1, 727452, Note_off_c, 0, 65, 73
1, 727455, Note_off_c, 0, 53, 70
1, 727461, Note_on_c, 0, 41, 33
1, 727461, Note_off_c, 0, 41, 127
1, 727471, Note_off_c, 0, 75, 66
1, 727474, Note_off_c, 0, 77, 62
1, 727571, Note_on_c, 0, 70, 88
1, 727577, Note_on_c, 0, 58, 76
1, 727580, Note_on_c, 0, 82, 100
1, 727580, Note_on_c, 0, 94, 100
1, 727587, Note_off_c, 0, 70, 74
1, 727593, Note_on_c, 0, 87, 76
1, 727593, Note_off_c, 0, 87, 127
1, 727598, Note_on_c, 0, 92, 59
1, 727598, Note_off_c, 0, 58, 71
1, 727598, Note_off_c, 0, 82, 64
1, 727599, Note_on_c, 0, 61, 38
1, 727599, Note_off_c, 0, 94, 68
1, 727618, Note_off_c, 0, 92, 63
1, 727635, Note_off_c, 0, 61, 49
1, 727685, Note_on_c, 0, 77, 99
1, 727689, Note_on_c, 0, 65, 85
1, 727689, Note_on_c, 0, 89, 92
1, 727695, Note_on_c, 0, 53, 72
1, 727705, Note_off_c, 0, 89, 72
1, 727707, Note_off_c, 0, 65, 72
1, 727714, Note_off_c, 0, 53, 71
1, 727717, Note_off_c, 0, 77, 64
1, 727802, Note_on_c, 0, 58, 81
1, 727815, Note_on_c, 0, 82, 96
1, 727816, Note_on_c, 0, 70, 92
1, 727817, Note_on_c, 0, 46, 63
1, 727825, Note_off_c, 0, 58, 67
1, 727830, Note_off_c, 0, 82, 75
1, 727835, Note_off_c, 0, 70, 71
1, 727842, Note_off_c, 0, 46, 66
1, 727882, Poly_aftertouch_c, 0, 49, 0
1, 727904, Poly_aftertouch_c, 0, 49, 0
1, 727919, Note_on_c, 0, 53, 83
1, 727920, Note_on_c, 0, 65, 97
1, 727924, Note_on_c, 0, 77, 79
1, 727931, Note_on_c, 0, 41, 63
1, 727935, Note_off_c, 0, 77, 73
1, 727937, Note_off_c, 0, 53, 72
1, 727942, Note_off_c, 0, 65, 67
1, 727950, Note_off_c, 0, 41, 66
1, 727970, Note_on_c, 0, 52, 15
1, 727970, Note_off_c, 0, 52, 127
1, 728014, Poly_aftertouch_c, 0, 52, 0
1, 728041, Note_on_c, 0, 46, 88
1, 728045, Control_c, 0, 64, 79
1, 728050, Note_on_c, 0, 70, 90
1, 728053, Note_on_c, 0, 58, 85
1, 728058, Note_on_c, 0, 34, 68
1, 728060, Control_c, 0, 64, 46
1, 728063, Note_off_c, 0, 46, 70
1, 728070, Note_off_c, 0, 70, 71
1, 728075, Control_c, 0, 64, 0
1, 728078, Note_off_c, 0, 58, 69
1, 728084, Note_off_c, 0, 34, 59
1, 728090, Control_c, 0, 64, 47
1, 728105, Control_c, 0, 64, 65
1, 728120, Control_c, 0, 64, 87
1, 728135, Control_c, 0, 64, 127
1, 728145, Poly_aftertouch_c, 0, 37, 0
1, 728162, Note_on_c, 0, 41, 93
1, 728164, Note_on_c, 0, 65, 88
1, 728171, Note_on_c, 0, 53, 67
1, 728182, Note_on_c, 0, 55, 49
1, 728187, Note_on_c, 0, 63, 50
1, 728189, Note_off_c, 0, 41, 65
1, 728191, Note_off_c, 0, 53, 64
1, 728205, Note_off_c, 0, 65, 60
1, 728206, Note_off_c, 0, 55, 59
1, 728214, Note_off_c, 0, 63, 58
1, 728237, Note_on_c, 0, 31, 2
1, 728252, Note_off_c, 0, 31, 0
1, 728284, Poly_aftertouch_c, 0, 31, 0
1, 728304, Note_on_c, 0, 58, 94
1, 728315, Note_on_c, 0, 46, 71
1, 728316, Note_on_c, 0, 82, 96
1, 728320, Note_on_c, 0, 70, 90
1, 728320, Note_off_c, 0, 58, 76
1, 728339, Note_off_c, 0, 46, 66
1, 728339, Note_off_c, 0, 70, 71
1, 728340, Note_off_c, 0, 82, 63
1, 728355, Note_on_c, 0, 80, 28
1, 728355, Note_off_c, 0, 80, 127
1, 728355, Note_on_c, 0, 49, 3
1, 728395, Note_off_c, 0, 49, 46
1, 728436, Note_on_c, 0, 65, 103
1, 728436, Note_on_c, 0, 53, 98
1, 728445, Note_on_c, 0, 77, 72
1, 728450, Note_off_c, 0, 65, 78
1, 728456, Note_on_c, 0, 75, 60
1, 728459, Note_off_c, 0, 53, 67
1, 728460, Note_on_c, 0, 41, 47
1, 728460, Note_off_c, 0, 41, 127
1, 728463, Note_on_c, 0, 76, 51
1, 728471, Note_off_c, 0, 77, 60
1, 728481, Note_off_c, 0, 75, 66
1, 728486, Note_off_c, 0, 76, 60
1, 728601, Note_on_c, 0, 82, 107
1, 728602, Note_on_c, 0, 70, 90
1, 728603, Note_on_c, 0, 94, 106
1, 728611, Note_on_c, 0, 61, 69
1, 728615, Note_on_c, 0, 92, 73
1, 728619, Note_off_c, 0, 70, 72
1, 728629, Note_off_c, 0, 82, 66
1, 728630, Note_off_c, 0, 92, 70
1, 728632, Note_off_c, 0, 61, 66
1, 728636, Note_on_c, 0, 71, 41
1, 728636, Note_off_c, 0, 71, 127
1, 728638, Note_off_c, 0, 94, 66
1, 728643, Note_on_c, 0, 59, 19
1, 728687, Note_off_c, 0, 59, 41
1, 728710, Poly_aftertouch_c, 0, 87, 0
1, 728761, Note_on_c, 0, 65, 100
1, 728763, Note_on_c, 0, 77, 96
1, 728764, Note_on_c, 0, 89, 93
1, 728777, Note_off_c, 0, 77, 76
1, 728781, Note_on_c, 0, 79, 66
1, 728781, Note_off_c, 0, 79, 127
1, 728783, Note_on_c, 0, 87, 64
1, 728793, Note_off_c, 0, 65, 64
1, 728800, Note_on_c, 0, 85, 31
1, 728800, Note_off_c, 0, 85, 127
1, 728802, Note_off_c, 0, 89, 67
1, 728804, Note_off_c, 0, 87, 41
1, 728840, Poly_aftertouch_c, 0, 85, 0
1, 728865, Poly_aftertouch_c, 0, 53, 0
1, 728930, Note_on_c, 0, 104, 46
1, 728957, Note_off_c, 0, 104, 56
1, 728987, Note_on_c, 0, 82, 101
1, 728990, Note_on_c, 0, 73, 8
1, 728990, Note_on_c, 0, 94, 118
1, 728993, Note_on_c, 0, 106, 102
1, 728999, Note_on_c, 0, 70, 72
1, 729014, Note_on_c, 0, 104, 71
1, 729020, Note_off_c, 0, 82, 60
1, 729032, Note_off_c, 0, 73, 53
1, 729037, Note_off_c, 0, 70, 65
1, 729041, Note_off_c, 0, 104, 60
1, 729047, Note_off_c, 0, 106, 69
1, 729079, Note_off_c, 0, 94, 64
1, 729105, Poly_aftertouch_c, 0, 83, 0
1, 729212, Note_on_c, 0, 77, 93
1, 729214, Note_on_c, 0, 65, 81
1, 729217, Note_on_c, 0, 89, 106
1, 729220, Note_on_c, 0, 101, 94
1, 729228, Note_off_c, 0, 77, 72
1, 729237, Note_off_c, 0, 101, 72
1, 729243, Note_on_c, 0, 100, 60
1, 729243, Note_off_c, 0, 100, 127
1, 729248, Note_off_c, 0, 65, 64
1, 729253, Note_off_c, 0, 89, 67
1, 729259, Note_on_c, 0, 99, 32
1, 729259, Note_off_c, 0, 99, 127
1, 729384, Note_on_c, 0, 70, 95
1, 729389, Note_on_c, 0, 82, 93
1, 729391, Note_on_c, 0, 92, 93
1, 729397, Note_on_c, 0, 58, 66
1, 729407, Note_on_c, 0, 81, 72
1, 729416, Note_on_c, 0, 93, 61
1, 729421, Note_off_c, 0, 70, 64
1, 729421, Note_off_c, 0, 82, 56
1, 729424, Note_off_c, 0, 81, 68
1, 729435, Note_off_c, 0, 93, 64
1, 729437, Note_off_c, 0, 92, 63
1, 729454, Note_off_c, 0, 58, 60
1, 729526, Note_on_c, 0, 65, 92
1, 729532, Note_on_c, 0, 77, 96
1, 729536, Note_on_c, 0, 53, 76
1, 729536, Note_on_c, 0, 89, 81
1, 729543, Note_off_c, 0, 65, 74
1, 729550, Note_off_c, 0, 89, 70
1, 729559, Note_off_c, 0, 53, 68
1, 729562, Note_off_c, 0, 77, 62
1, 729571, Note_on_c, 0, 87, 26
1, 729571, Note_off_c, 0, 87, 127
1, 729662, Note_on_c, 0, 58, 89
1, 729672, Note_on_c, 0, 82, 91
1, 729673, Note_on_c, 0, 70, 94
1, 729676, Note_on_c, 0, 49, 62
1, 729681, Note_off_c, 0, 58, 72
1, 729693, Note_on_c, 0, 75, 52
1, 729693, Note_off_c, 0, 75, 127
1, 729697, Note_off_c, 0, 70, 62
1, 729698, Note_on_c, 0, 47, 35
1, 729700, Note_off_c, 0, 49, 64
1, 729709, Note_off_c, 0, 82, 62
1, 729733, Note_off_c, 0, 47, 50
1, 729806, Note_on_c, 0, 53, 83
1, 729811, Note_on_c, 0, 65, 100
1, 729814, Note_on_c, 0, 77, 84
1, 729822, Note_on_c, 0, 55, 55
1, 729822, Note_off_c, 0, 55, 127
1, 729824, Note_on_c, 0, 43, 48
1, 729825, Note_off_c, 0, 53, 73
1, 729826, Note_on_c, 0, 41, 61
1, 729826, Note_off_c, 0, 77, 73
1, 729835, Note_off_c, 0, 65, 66
1, 729847, Note_off_c, 0, 41, 62
1, 729854, Note_off_c, 0, 43, 55
1, 729917, Poly_aftertouch_c, 0, 46, 0
1, 729952, Note_on_c, 0, 46, 97
1, 729962, Note_on_c, 0, 58, 100
1, 729965, Note_on_c, 0, 70, 96
1, 729966, Note_on_c, 0, 34, 78
1, 729972, Note_off_c, 0, 46, 72
1, 729986, Note_on_c, 0, 37, 37
1, 729986, Note_off_c, 0, 37, 127
1, 729994, Note_off_c, 0, 70, 65
1, 729995, Note_off_c, 0, 34, 64
1, 729996, Note_on_c, 0, 68, 42
1, 730001, Note_off_c, 0, 58, 64
1, 730023, Poly_aftertouch_c, 0, 37, 0
1, 730026, Note_off_c, 0, 68, 56
1, 730072, Poly_aftertouch_c, 0, 39, 0
1, 730105, Note_on_c, 0, 41, 90
1, 730110, Note_on_c, 0, 53, 105
1, 730113, Note_on_c, 0, 65, 94
1, 730119, Note_on_c, 0, 29, 74
1, 730124, Note_on_c, 0, 55, 63
1, 730130, Note_off_c, 0, 41, 67
1, 730130, Note_off_c, 0, 53, 64
1, 730132, Note_off_c, 0, 65, 73
1, 730140, Note_on_c, 0, 63, 35
1, 730140, Note_off_c, 0, 63, 127
1, 730144, Note_off_c, 0, 29, 65
1, 730146, Note_off_c, 0, 55, 61
1, 730209, Poly_aftertouch_c, 0, 34, 0
1, 730299, Note_on_c, 0, 34, 102
1, 730305, Note_on_c, 0, 46, 102
1, 730307, Note_on_c, 0, 58, 87
1, 730311, Note_on_c, 0, 22, 80
1, 730346, Note_on_c, 0, 56, 26
1, 730355, Note_off_c, 0, 22, 60
1, 730357, Note_off_c, 0, 34, 67
1, 730358, Note_off_c, 0, 58, 65
1, 730362, Note_off_c, 0, 46, 62
1, 730370, Poly_aftertouch_c, 0, 27, 127
1, 730380, Note_off_c, 0, 56, 52
1, 730383, Poly_aftertouch_c, 0, 51, 0
1, 730424, Poly_aftertouch_c, 0, 32, 0
1, 730445, Poly_aftertouch_c, 0, 51, 0
1, 730446, Poly_aftertouch_c, 0, 27, 0
1, 730478, Note_on_c, 0, 29, 93
1, 730492, Note_on_c, 0, 41, 99
1, 730501, Note_on_c, 0, 51, 60
1, 730515, Note_on_c, 0, 53, 50
1, 730515, Note_off_c, 0, 41, 68
1, 730533, Note_on_c, 0, 52, 44
1, 730535, Note_off_c, 0, 29, 64
1, 730561, Note_off_c, 0, 52, 55
1, 730568, Note_off_c, 0, 53, 62
1, 730571, Note_off_c, 0, 51, 61
1, 730638, Note_on_c, 0, 22, 70
1, 730760, Control_c, 0, 64, 95
1, 730761, Note_on_c, 0, 34, 109
1, 730765, Note_on_c, 0, 58, 112
1, 730772, Note_on_c, 0, 70, 98
1, 730775, Control_c, 0, 64, 56
1, 730776, Poly_aftertouch_c, 0, 68, 0
1, 730790, Control_c, 0, 64, 0
1, 730793, Note_on_c, 0, 26, 39
1, 730804, Control_c, 0, 64, 35
1, 730805, Note_on_c, 0, 67, 32
1, 730811, Note_off_c, 0, 22, 64
1, 730811, Note_on_c, 0, 59, 20
1, 730814, Note_on_c, 0, 27, 17
1, 730819, Control_c, 0, 64, 66
1, 730820, Note_off_c, 0, 70, 64
1, 730826, Note_off_c, 0, 26, 56
1, 730834, Control_c, 0, 64, 127
1, 730840, Poly_aftertouch_c, 0, 25, 127
1, 730841, Note_on_c, 0, 25, 2
1, 730844, Note_off_c, 0, 67, 33
1, 730851, Note_off_c, 0, 59, 35
1, 730856, Note_off_c, 0, 34, 59
1, 730859, Note_off_c, 0, 27, 53
1, 730880, Poly_aftertouch_c, 0, 32, 0
1, 730883, Note_off_c, 0, 25, 49
1, 730972, Note_off_c, 0, 58, 54
1, 731124, Note_on_c, 0, 46, 93
1, 731133, Note_on_c, 0, 58, 92
1, 731190, Note_off_c, 0, 46, 53
1, 731200, Note_off_c, 0, 58, 59
1, 731345, Note_on_c, 0, 46, 94
1, 731351, Note_on_c, 0, 58, 95
1, 731387, Note_off_c, 0, 46, 55
1, 731417, Note_off_c, 0, 58, 59
1, 731451, Poly_aftertouch_c, 0, 45, 127
1, 731519, Note_on_c, 0, 46, 96
1, 731519, Note_on_c, 0, 58, 97
1, 731547, Poly_aftertouch_c, 0, 45, 0
1, 731566, Note_off_c, 0, 58, 61
1, 731572, Note_off_c, 0, 46, 55
1, 731583, Poly_aftertouch_c, 0, 45, 127
1, 731622, Poly_aftertouch_c, 0, 45, 0
1, 731670, Note_on_c, 0, 46, 99
1, 731679, Note_on_c, 0, 58, 94
1, 731701, Note_off_c, 0, 46, 63
1, 731726, Note_off_c, 0, 58, 64
1, 731809, Note_on_c, 0, 46, 112
1, 731812, Note_on_c, 0, 58, 107
1, 731835, Note_off_c, 0, 46, 68
1, 731858, Note_off_c, 0, 58, 63
1, 731932, Note_on_c, 0, 46, 109
1, 731934, Note_on_c, 0, 58, 105
1, 731959, Note_off_c, 0, 46, 66
1, 731977, Note_off_c, 0, 58, 64
1, 732062, Note_on_c, 0, 46, 96
1, 732062, Note_on_c, 0, 58, 106
1, 732078, Note_on_c, 0, 44, 66
1, 732103, Note_off_c, 0, 44, 63
1, 732104, Note_off_c, 0, 46, 55
1, 732106, Note_off_c, 0, 58, 60
1, 732175, Note_on_c, 0, 46, 69
1, 732198, Note_on_c, 0, 58, 83
1, 732236, Note_off_c, 0, 46, 61
1, 732272, Note_off_c, 0, 58, 56
1, 732295, Note_on_c, 0, 38, 63
1, 732336, Note_off_c, 0, 38, 63
1, 732353, Note_on_c, 0, 44, 62
1, 732355, Note_on_c, 0, 46, 74
1, 732361, Control_c, 0, 64, 77
1, 732361, Note_on_c, 0, 58, 106
1, 732367, Note_on_c, 0, 65, 89
1, 732368, Note_on_c, 0, 70, 90
1, 732371, Note_on_c, 0, 68, 85
1, 732375, Control_c, 0, 64, 34
1, 732377, Note_on_c, 0, 53, 93
1, 732390, Control_c, 0, 64, 0
1, 732405, Control_c, 0, 64, 51
1, 732420, Control_c, 0, 64, 80
1, 732435, Control_c, 0, 64, 127
1, 732437, Note_off_c, 0, 70, 63
1, 732442, Note_off_c, 0, 53, 54
1, 732446, Note_off_c, 0, 58, 61
1, 732480, Note_off_c, 0, 46, 60
1, 732543, Note_off_c, 0, 65, 57
1, 732549, Note_on_c, 0, 46, 79
1, 732578, Note_on_c, 0, 58, 78
1, 732613, Note_off_c, 0, 46, 61
1, 732618, Note_off_c, 0, 58, 58
1, 732669, Note_off_c, 0, 44, 40
1, 732671, Note_off_c, 0, 68, 43
1, 732678, Note_on_c, 0, 46, 75
1, 732698, Note_on_c, 0, 58, 83
1, 732746, Note_off_c, 0, 46, 62
1, 732785, Note_off_c, 0, 58, 61
1, 732788, Note_on_c, 0, 39, 57
1, 732791, Note_on_c, 0, 42, 66
1, 732815, Note_off_c, 0, 39, 63
1, 732827, Control_c, 0, 64, 95
1, 732842, Note_on_c, 0, 58, 98
1, 732842, Control_c, 0, 64, 46
1, 732844, Note_on_c, 0, 66, 92
1, 732845, Note_on_c, 0, 63, 92
1, 732847, Note_on_c, 0, 54, 111
1, 732848, Note_on_c, 0, 46, 72
1, 732849, Note_on_c, 0, 70, 89
1, 732856, Control_c, 0, 64, 0
1, 732865, Note_on_c, 0, 44, 62
1, 732877, Note_off_c, 0, 42, 40
1, 732880, Note_on_c, 0, 68, 44
1, 732883, Note_on_c, 0, 55, 42
1, 732886, Control_c, 0, 64, 58
1, 732901, Control_c, 0, 64, 92
1, 732908, Note_on_c, 0, 49, 3
1, 732909, Note_off_c, 0, 70, 64
1, 732913, Note_off_c, 0, 55, 55
1, 732916, Control_c, 0, 64, 127
1, 732920, Note_off_c, 0, 54, 61
1, 732928, Note_off_c, 0, 44, 61
1, 732931, Note_off_c, 0, 58, 60
1, 732936, Note_off_c, 0, 46, 60
1, 732949, Note_off_c, 0, 49, 55
1, 732994, Note_off_c, 0, 63, 54
1, 733041, Note_on_c, 0, 46, 78
1, 733052, Note_on_c, 0, 58, 78
1, 733094, Note_off_c, 0, 46, 58
1, 733102, Note_off_c, 0, 58, 63
1, 733128, Note_off_c, 0, 68, 35
1, 733139, Note_off_c, 0, 66, 21
1, 733196, Note_on_c, 0, 46, 76
1, 733199, Note_on_c, 0, 58, 78
1, 733232, Note_off_c, 0, 46, 60
1, 733256, Note_off_c, 0, 58, 61
1, 733327, Note_on_c, 0, 46, 90
1, 733337, Note_on_c, 0, 58, 83
1, 733380, Note_on_c, 0, 59, 29
1, 733390, Note_off_c, 0, 46, 61
1, 733395, Note_off_c, 0, 58, 58
1, 733417, Note_off_c, 0, 59, 51
1, 733485, Note_on_c, 0, 46, 77
1, 733500, Note_on_c, 0, 58, 78
1, 733533, Note_off_c, 0, 46, 59
1, 733560, Note_off_c, 0, 58, 61
1, 733572, Note_on_c, 0, 70, 93
1, 733609, Note_on_c, 0, 46, 85
1, 733617, Note_on_c, 0, 68, 26
1, 733658, Note_off_c, 0, 68, 30
1, 733661, Note_on_c, 0, 58, 69
1, 733670, Note_off_c, 0, 46, 59
1, 733673, Note_off_c, 0, 70, 58
1, 733720, Note_off_c, 0, 58, 61
1, 733792, Note_on_c, 0, 46, 92
1, 733801, Note_on_c, 0, 70, 100
1, 733807, Note_on_c, 0, 58, 97
1, 733833, Note_on_c, 0, 68, 48
1, 733841, Note_on_c, 0, 71, 43
1, 733862, Note_off_c, 0, 58, 59
1, 733864, Note_off_c, 0, 68, 52
1, 733869, Note_off_c, 0, 71, 57
1, 733878, Note_off_c, 0, 46, 61
1, 733928, Note_off_c, 0, 70, 61
1, 733946, Note_on_c, 0, 46, 77
1, 733955, Note_on_c, 0, 58, 84
1, 733996, Note_off_c, 0, 58, 60
1, 734003, Note_off_c, 0, 46, 60
1, 734080, Note_on_c, 0, 46, 81
1, 734082, Note_on_c, 0, 58, 80
1, 734136, Note_off_c, 0, 46, 62
1, 734141, Note_off_c, 0, 58, 61
1, 734207, Note_on_c, 0, 53, 104
1, 734212, Note_on_c, 0, 62, 91
1, 734213, Note_on_c, 0, 46, 97
1, 734213, Note_on_c, 0, 58, 93
1, 734214, Control_c, 0, 64, 66
1, 734215, Note_on_c, 0, 65, 88
1, 734215, Note_on_c, 0, 70, 91
1, 734216, Note_on_c, 0, 44, 79
1, 734220, Note_on_c, 0, 41, 68
1, 734228, Control_c, 0, 64, 0
1, 734275, Note_on_c, 0, 68, 26
1, 734280, Control_c, 0, 64, 60
1, 734287, Note_off_c, 0, 53, 60
1, 734287, Note_off_c, 0, 70, 65
1, 734295, Control_c, 0, 64, 94
1, 734297, Note_off_c, 0, 58, 62
1, 734310, Control_c, 0, 64, 127
1, 734317, Note_off_c, 0, 46, 61
1, 734320, Note_off_c, 0, 68, 28
1, 734346, Note_off_c, 0, 62, 57
1, 734406, Note_off_c, 0, 65, 0
1, 734408, Note_on_c, 0, 58, 78
1, 734411, Note_on_c, 0, 46, 69
1, 734414, Note_off_c, 0, 41, 39
1, 734439, Note_off_c, 0, 46, 65
1, 734445, Note_off_c, 0, 58, 64
1, 734472, Note_off_c, 0, 44, 60
1, 734496, Poly_aftertouch_c, 0, 65, 0
1, 734520, Note_on_c, 0, 46, 92
1, 734535, Note_on_c, 0, 58, 83
1, 734565, Note_off_c, 0, 46, 63
1, 734605, Note_off_c, 0, 58, 50
1, 734716, Note_on_c, 0, 51, 104
1, 734721, Note_on_c, 0, 63, 96
1, 734722, Note_on_c, 0, 58, 101
1, 734722, Note_on_c, 0, 42, 77
1, 734728, Note_on_c, 0, 70, 95
1, 734728, Note_on_c, 0, 46, 85
1, 734754, Note_on_c, 0, 66, 49
1, 734755, Control_c, 0, 64, 96
1, 734764, Note_on_c, 0, 68, 48
1, 734770, Control_c, 0, 64, 64
1, 734776, Note_on_c, 0, 44, 29
1, 734785, Control_c, 0, 64, 0
1, 734815, Control_c, 0, 64, 53
1, 734825, Note_off_c, 0, 44, 46
1, 734830, Control_c, 0, 64, 82
1, 734839, Note_off_c, 0, 58, 62
1, 734840, Note_off_c, 0, 46, 62
1, 734844, Control_c, 0, 64, 127
1, 734871, Note_off_c, 0, 70, 61
1, 734934, Note_on_c, 0, 46, 77
1, 734952, Note_on_c, 0, 58, 79
1, 734969, Note_off_c, 0, 51, 54
1, 734969, Note_off_c, 0, 63, 46
1, 734997, Note_off_c, 0, 58, 60
1, 735001, Note_off_c, 0, 46, 60
1, 735080, Note_off_c, 0, 68, 38
1, 735081, Note_on_c, 0, 46, 80
1, 735088, Note_off_c, 0, 66, 0
1, 735093, Note_on_c, 0, 58, 91
1, 735125, Poly_aftertouch_c, 0, 66, 127
1, 735143, Note_off_c, 0, 46, 61
1, 735146, Note_off_c, 0, 58, 59
1, 735158, Poly_aftertouch_c, 0, 66, 0
1, 735166, Note_off_c, 0, 42, 58
1, 735216, Note_on_c, 0, 46, 86
1, 735219, Note_on_c, 0, 58, 85
1, 735281, Note_off_c, 0, 46, 63
1, 735282, Note_off_c, 0, 58, 60
1, 735379, Note_on_c, 0, 46, 69
1, 735392, Note_on_c, 0, 58, 70
1, 735417, Note_off_c, 0, 46, 59
1, 735453, Note_on_c, 0, 70, 91
1, 735474, Note_off_c, 0, 58, 38
1, 735499, Note_on_c, 0, 68, 31
1, 735506, Note_on_c, 0, 46, 77
1, 735536, Note_off_c, 0, 68, 55
1, 735544, Note_on_c, 0, 58, 58
1, 735553, Note_off_c, 0, 70, 61
1, 735569, Note_off_c, 0, 46, 61
1, 735609, Note_off_c, 0, 58, 56
1, 735680, Note_on_c, 0, 46, 80
1, 735691, Note_on_c, 0, 70, 92
1, 735693, Note_on_c, 0, 58, 87
1, 735737, Note_on_c, 0, 68, 21
1, 735746, Note_off_c, 0, 46, 61
1, 735753, Note_off_c, 0, 58, 59
1, 735786, Note_off_c, 0, 68, 50
1, 735836, Note_off_c, 0, 70, 51
1, 735847, Note_on_c, 0, 46, 63
1, 735859, Note_on_c, 0, 58, 60
1, 735880, Note_off_c, 0, 46, 63
1, 735894, Note_off_c, 0, 58, 58
1, 735986, Note_on_c, 0, 46, 58
1, 735997, Note_on_c, 0, 58, 53
1, 736018, Note_off_c, 0, 46, 62
1, 736038, Note_off_c, 0, 58, 55
1, 736210, Note_on_c, 0, 46, 60
1, 736216, Note_on_c, 0, 70, 76
1, 736221, Note_on_c, 0, 58, 69
1, 736222, Note_on_c, 0, 44, 53
1, 736223, Control_c, 0, 64, 86
1, 736228, Note_on_c, 0, 62, 65
1, 736231, Note_on_c, 0, 50, 42
1, 736238, Control_c, 0, 64, 64
1, 736253, Control_c, 0, 64, 0
1, 736278, Note_off_c, 0, 58, 58
1, 736282, Control_c, 0, 64, 52
1, 736297, Control_c, 0, 64, 68
1, 736299, Note_off_c, 0, 46, 62
1, 736312, Control_c, 0, 64, 95
1, 736328, Control_c, 0, 64, 127
1, 736350, Note_off_c, 0, 62, 46
1, 736377, Note_off_c, 0, 70, 57
1, 736398, Note_on_c, 0, 58, 67
1, 736401, Note_off_c, 0, 50, 36
1, 736403, Note_on_c, 0, 46, 52
1, 736430, Note_off_c, 0, 58, 61
1, 736439, Note_off_c, 0, 46, 60
1, 736523, Note_off_c, 0, 44, 37
1, 736526, Note_on_c, 0, 46, 72
1, 736533, Note_on_c, 0, 58, 74
1, 736571, Note_off_c, 0, 46, 61
1, 736608, Note_off_c, 0, 58, 60
1, 736675, Control_c, 0, 64, 87
1, 736683, Note_on_c, 0, 51, 86
1, 736690, Control_c, 0, 64, 62
1, 736693, Note_on_c, 0, 42, 61
1, 736699, Note_on_c, 0, 46, 66
1, 736699, Note_on_c, 0, 70, 83
1, 736702, Note_on_c, 0, 58, 78
1, 736703, Note_on_c, 0, 63, 72
1, 736705, Control_c, 0, 64, 0
1, 736720, Control_c, 0, 64, 46
1, 736735, Control_c, 0, 64, 65
1, 736749, Control_c, 0, 64, 87
1, 736758, Note_off_c, 0, 58, 62
1, 736764, Note_off_c, 0, 46, 62
1, 736764, Control_c, 0, 64, 127
1, 736809, Note_off_c, 0, 63, 59
1, 736827, Note_off_c, 0, 70, 61
1, 736853, Note_on_c, 0, 46, 69
1, 736853, Note_on_c, 0, 58, 75
1, 736886, Note_off_c, 0, 58, 55
1, 736891, Note_off_c, 0, 46, 55
1, 736909, Note_off_c, 0, 51, 48
1, 736978, Note_on_c, 0, 58, 79
1, 736980, Note_on_c, 0, 46, 73
1, 736981, Note_off_c, 0, 42, 34
1, 737026, Note_off_c, 0, 46, 57
1, 737030, Note_off_c, 0, 58, 61
1, 737089, Note_on_c, 0, 51, 102
1, 737095, Note_on_c, 0, 58, 102
1, 737096, Note_on_c, 0, 63, 92
1, 737099, Note_on_c, 0, 42, 81
1, 737100, Note_on_c, 0, 46, 89
1, 737101, Note_on_c, 0, 70, 90
1, 737132, Note_on_c, 0, 68, 45
1, 737159, Note_off_c, 0, 58, 62
1, 737170, Note_off_c, 0, 46, 62
1, 737173, Poly_aftertouch_c, 0, 44, 127
1, 737174, Note_off_c, 0, 70, 61
1, 737181, Note_off_c, 0, 68, 42
1, 737185, Note_off_c, 0, 51, 53
1, 737204, Note_off_c, 0, 63, 59
1, 737211, Poly_aftertouch_c, 0, 44, 0
1, 737242, Note_on_c, 0, 46, 74
1, 737246, Note_on_c, 0, 58, 80
1, 737270, Note_on_c, 0, 51, 40
1, 737286, Note_off_c, 0, 51, 66
1, 737298, Note_off_c, 0, 58, 61
1, 737307, Note_off_c, 0, 46, 59
1, 737334, Note_off_c, 0, 42, 40
1, 737383, Note_on_c, 0, 46, 77
1, 737399, Note_on_c, 0, 58, 66
1, 737428, Note_off_c, 0, 58, 63
1, 737440, Note_off_c, 0, 46, 62
1, 737483, Control_c, 0, 64, 74
1, 737488, Poly_aftertouch_c, 0, 46, 0
1, 737489, Note_on_c, 0, 53, 103
1, 737493, Note_on_c, 0, 62, 91
1, 737495, Note_on_c, 0, 46, 90
1, 737495, Note_on_c, 0, 58, 107
1, 737497, Note_on_c, 0, 70, 85
1, 737498, Note_on_c, 0, 65, 90
1, 737498, Control_c, 0, 64, 0
1, 737499, Note_on_c, 0, 44, 80
1, 737507, Note_on_c, 0, 41, 63
1, 737527, Control_c, 0, 64, 36
1, 737541, Note_off_c, 0, 41, 61
1, 737542, Control_c, 0, 64, 66
1, 737547, Note_off_c, 0, 70, 64
1, 737553, Note_off_c, 0, 53, 60
1, 737557, Control_c, 0, 64, 104
1, 737564, Note_off_c, 0, 58, 64
1, 737572, Control_c, 0, 64, 127
1, 737585, Note_off_c, 0, 46, 62
1, 737591, Note_off_c, 0, 62, 57
1, 737629, Note_off_c, 0, 65, 60
1, 737662, Note_on_c, 0, 58, 81
1, 737663, Note_on_c, 0, 46, 80
1, 737672, Note_off_c, 0, 44, 0
1, 737672, Note_on_c, 0, 44, 13
1, 737688, Note_off_c, 0, 58, 55
1, 737701, Note_off_c, 0, 46, 57
1, 737704, Note_off_c, 0, 44, 61
1, 737779, Note_on_c, 0, 46, 76
1, 737780, Note_on_c, 0, 58, 79
1, 737833, Note_off_c, 0, 58, 60
1, 737836, Note_off_c, 0, 46, 60
1, 737858, Note_on_c, 0, 39, 63
1, 737864, Note_on_c, 0, 42, 71
1, 737884, Note_off_c, 0, 39, 62
1, 737899, Control_c, 0, 64, 109
1, 737906, Note_on_c, 0, 58, 105
1, 737908, Note_on_c, 0, 63, 92
1, 737908, Note_on_c, 0, 66, 93
1, 737909, Note_on_c, 0, 70, 92
1, 737909, Note_on_c, 0, 46, 70
1, 737913, Control_c, 0, 64, 63
1, 737919, Note_on_c, 0, 54, 100
1, 737928, Control_c, 0, 64, 0
1, 737942, Note_on_c, 0, 68, 52
1, 737943, Control_c, 0, 64, 55
1, 737948, Note_on_c, 0, 44, 39
1, 737958, Control_c, 0, 64, 81
1, 737960, Note_off_c, 0, 54, 67
1, 737973, Note_off_c, 0, 70, 63
1, 737973, Control_c, 0, 64, 127
1, 737986, Note_off_c, 0, 58, 62
1, 738013, Note_off_c, 0, 44, 44
1, 738026, Note_off_c, 0, 46, 58
1, 738031, Note_off_c, 0, 63, 56
1, 738041, Note_off_c, 0, 66, 58
1, 738041, Note_off_c, 0, 68, 36
1, 738043, Note_off_c, 0, 42, 58
1, 738074, Note_on_c, 0, 46, 89
1, 738085, Note_on_c, 0, 58, 83
1, 738106, Note_on_c, 0, 56, 66
1, 738122, Note_off_c, 0, 46, 64
1, 738127, Note_off_c, 0, 56, 62
1, 738128, Note_off_c, 0, 58, 62
1, 738162, Note_on_c, 0, 47, 4
1, 738193, Note_off_c, 0, 47, 46
1, 738201, Note_on_c, 0, 46, 74
1, 738209, Note_on_c, 0, 58, 89
1, 738260, Note_off_c, 0, 46, 60
1, 738265, Note_off_c, 0, 58, 60
1, 738324, Note_on_c, 0, 46, 104
1, 738328, Note_on_c, 0, 62, 94
1, 738329, Note_on_c, 0, 58, 108
1, 738330, Note_on_c, 0, 65, 91
1, 738331, Note_on_c, 0, 41, 88
1, 738331, Note_on_c, 0, 70, 93
1, 738332, Note_on_c, 0, 38, 87
1, 738333, Note_on_c, 0, 34, 82
1, 738335, Control_c, 0, 64, 65
1, 738350, Control_c, 0, 64, 0
1, 738364, Note_on_c, 0, 68, 42
1, 738364, Note_off_c, 0, 68, 127
1, 738365, Note_on_c, 0, 44, 35
1, 738365, Note_off_c, 0, 44, 127
1, 738367, Note_off_c, 0, 70, 65
1, 738395, Control_c, 0, 64, 69
1, 738404, Note_off_c, 0, 34, 61
1, 738410, Control_c, 0, 64, 127
1, 738420, Note_off_c, 0, 46, 64
1, 738431, Note_off_c, 0, 58, 62
1, 738452, Note_off_c, 0, 38, 60
1, 738455, Note_off_c, 0, 41, 57
1, 738460, Note_off_c, 0, 62, 53
1, 738463, Note_off_c, 0, 65, 57
1, 738493, Poly_aftertouch_c, 0, 67, 0
1, 738596, Note_on_c, 0, 46, 69
1, 738600, Note_on_c, 0, 38, 57
1, 738606, Note_on_c, 0, 58, 71
1, 738615, Note_on_c, 0, 62, 53
1, 738615, Note_on_c, 0, 41, 47
1, 738618, Note_on_c, 0, 65, 53
1, 738619, Note_on_c, 0, 70, 57
1, 738624, Note_on_c, 0, 34, 40
1, 738654, Note_off_c, 0, 34, 61
1, 738654, Note_off_c, 0, 70, 62
1, 738663, Note_off_c, 0, 46, 61
1, 738669, Note_off_c, 0, 41, 52
1, 738670, Note_off_c, 0, 58, 59
1, 738684, Note_off_c, 0, 38, 60
1, 738686, Note_off_c, 0, 62, 59
1, 738723, Note_off_c, 0, 65, 33
1, 738770, Note_on_c, 0, 34, 44
1, 738770, Note_on_c, 0, 70, 66
1, 738770, Note_on_c, 0, 65, 47
1, 738772, Note_on_c, 0, 41, 58
1, 738773, Note_on_c, 0, 58, 67
1, 738773, Note_on_c, 0, 46, 63
1, 738776, Note_on_c, 0, 62, 52
1, 738785, Note_on_c, 0, 38, 48
1, 738794, Note_off_c, 0, 58, 66
1, 738803, Note_off_c, 0, 46, 64
1, 738805, Note_off_c, 0, 34, 59
1, 738806, Note_off_c, 0, 70, 56
1, 738809, Note_off_c, 0, 62, 62
1, 738814, Note_off_c, 0, 41, 58
1, 738817, Note_off_c, 0, 65, 62
1, 738830, Note_off_c, 0, 38, 60
1, 738904, Note_on_c, 0, 58, 62
1, 738905, Note_on_c, 0, 46, 69
1, 738907, Note_on_c, 0, 41, 61
1, 738909, Note_on_c, 0, 65, 64
1, 738911, Note_on_c, 0, 62, 59
1, 738921, Note_on_c, 0, 70, 51
1, 738929, Note_off_c, 0, 58, 68
1, 738934, Note_off_c, 0, 46, 64
1, 738935, Note_on_c, 0, 34, 15
1, 738936, Note_on_c, 0, 38, 45
1, 738941, Note_off_c, 0, 70, 63
1, 738943, Note_off_c, 0, 62, 64
1, 738943, Note_off_c, 0, 65, 66
1, 738950, Note_off_c, 0, 41, 58
1, 738964, Note_off_c, 0, 34, 52
1, 738975, Note_off_c, 0, 38, 49
1, 739023, Note_on_c, 0, 70, 66
1, 739024, Note_on_c, 0, 62, 71
1, 739025, Note_on_c, 0, 46, 67
1, 739026, Note_on_c, 0, 58, 66
1, 739031, Note_on_c, 0, 65, 71
1, 739032, Note_on_c, 0, 41, 65
1, 739052, Note_off_c, 0, 70, 66
1, 739053, Note_on_c, 0, 38, 48
1, 739056, Note_on_c, 0, 34, 27
1, 739057, Note_off_c, 0, 41, 65
1, 739057, Note_off_c, 0, 46, 63
1, 739059, Note_off_c, 0, 58, 60
1, 739059, Note_off_c, 0, 65, 65
1, 739069, Note_off_c, 0, 62, 58
1, 739080, Note_off_c, 0, 38, 59
1, 739091, Note_off_c, 0, 34, 49
1, 739135, Note_on_c, 0, 46, 87
1, 739141, Note_on_c, 0, 41, 70
1, 739141, Note_on_c, 0, 58, 80
1, 739145, Note_on_c, 0, 62, 73
1, 739146, Note_on_c, 0, 65, 77
1, 739152, Note_on_c, 0, 70, 63
1, 739156, Note_on_c, 0, 38, 61
1, 739170, Note_off_c, 0, 58, 63
1, 739178, Note_off_c, 0, 46, 60
1, 739183, Note_off_c, 0, 70, 67
1, 739184, Note_off_c, 0, 62, 61
1, 739186, Note_off_c, 0, 65, 61
1, 739187, Note_off_c, 0, 38, 64
1, 739188, Note_off_c, 0, 41, 62
1, 739250, Note_on_c, 0, 46, 96
1, 739252, Note_on_c, 0, 62, 82
1, 739252, Note_on_c, 0, 65, 79
1, 739254, Note_on_c, 0, 34, 41
1, 739254, Note_on_c, 0, 58, 87
1, 739256, Note_on_c, 0, 38, 72
1, 739258, Note_on_c, 0, 41, 72
1, 739258, Note_on_c, 0, 70, 77
1, 739280, Note_off_c, 0, 58, 56
1, 739281, Note_off_c, 0, 70, 68
1, 739289, Note_off_c, 0, 46, 58
1, 739291, Note_off_c, 0, 41, 60
1, 739293, Note_off_c, 0, 34, 59
1, 739295, Note_off_c, 0, 38, 62
1, 739302, Note_off_c, 0, 65, 63
1, 739304, Note_off_c, 0, 62, 61
1, 739355, Note_on_c, 0, 46, 102
1, 739356, Note_on_c, 0, 58, 96
1, 739356, Note_on_c, 0, 65, 81
1, 739357, Note_on_c, 0, 62, 74
1, 739360, Note_on_c, 0, 70, 82
1, 739364, Note_on_c, 0, 41, 73
1, 739369, Note_on_c, 0, 38, 65
1, 739385, Note_off_c, 0, 70, 62
1, 739388, Note_on_c, 0, 34, 49
1, 739400, Note_off_c, 0, 46, 59
1, 739400, Note_off_c, 0, 58, 53
1, 739402, Note_off_c, 0, 65, 66
1, 739406, Note_off_c, 0, 41, 59
1, 739407, Note_off_c, 0, 38, 64
1, 739409, Note_off_c, 0, 62, 62
1, 739424, Note_off_c, 0, 34, 52
1, 739461, Note_on_c, 0, 58, 98
1, 739464, Note_on_c, 0, 65, 87
1, 739465, Note_on_c, 0, 62, 78
1, 739465, Note_on_c, 0, 46, 100
1, 739465, Note_on_c, 0, 70, 82
1, 739471, Note_on_c, 0, 41, 73
1, 739479, Note_on_c, 0, 38, 76
1, 739500, Note_off_c, 0, 70, 55
1, 739501, Note_off_c, 0, 58, 61
1, 739504, Note_on_c, 0, 34, 29
1, 739516, Note_off_c, 0, 46, 58
1, 739519, Note_off_c, 0, 65, 65
1, 739522, Note_off_c, 0, 41, 62
1, 739522, Note_off_c, 0, 62, 63
1, 739523, Note_off_c, 0, 38, 63
1, 739549, Note_off_c, 0, 34, 48
1, 739576, Poly_aftertouch_c, 0, 68, 0
1, 739577, Note_on_c, 0, 58, 96
1, 739579, Note_on_c, 0, 46, 97
1, 739580, Note_on_c, 0, 62, 79
1, 739581, Note_on_c, 0, 41, 78
1, 739582, Note_on_c, 0, 65, 81
1, 739583, Note_on_c, 0, 70, 88
1, 739588, Note_on_c, 0, 38, 76
1, 739600, Note_on_c, 0, 34, 49
1, 739619, Note_off_c, 0, 58, 65
1, 739623, Note_off_c, 0, 46, 63
1, 739626, Note_off_c, 0, 70, 43
1, 739630, Note_off_c, 0, 38, 61
1, 739634, Note_off_c, 0, 41, 61
1, 739637, Note_off_c, 0, 62, 62
1, 739637, Note_off_c, 0, 65, 63
1, 739640, Note_off_c, 0, 34, 49
1, 739692, Note_on_c, 0, 46, 97
1, 739693, Note_on_c, 0, 58, 103
1, 739695, Note_on_c, 0, 62, 81
1, 739696, Note_on_c, 0, 65, 85
1, 739698, Note_on_c, 0, 41, 71
1, 739700, Note_on_c, 0, 70, 78
1, 739705, Note_on_c, 0, 38, 71
1, 739720, Note_on_c, 0, 34, 55
1, 739736, Note_off_c, 0, 46, 61
1, 739736, Note_off_c, 0, 58, 64
1, 739739, Note_off_c, 0, 70, 56
1, 739751, Note_off_c, 0, 34, 56
1, 739757, Note_off_c, 0, 38, 61
1, 739760, Note_off_c, 0, 41, 61
1, 739760, Note_off_c, 0, 62, 62
1, 739760, Note_off_c, 0, 65, 63
1, 739816, Note_on_c, 0, 46, 104
1, 739817, Note_on_c, 0, 58, 100
1, 739820, Note_on_c, 0, 62, 79
1, 739820, Note_on_c, 0, 65, 85
1, 739826, Note_on_c, 0, 70, 86
1, 739829, Note_on_c, 0, 34, 68
1, 739829, Note_on_c, 0, 38, 71
1, 739829, Note_on_c, 0, 41, 67
1, 739858, Note_on_c, 0, 40, 24
1, 739861, Note_off_c, 0, 34, 61
1, 739876, Note_off_c, 0, 46, 63
1, 739876, Note_off_c, 0, 58, 57
1, 739879, Note_off_c, 0, 70, 60
1, 739891, Note_off_c, 0, 62, 58
1, 739892, Note_off_c, 0, 38, 61
1, 739899, Note_off_c, 0, 40, 41
1, 739900, Note_off_c, 0, 41, 61
1, 739903, Note_off_c, 0, 65, 62
1, 739938, Control_c, 0, 64, 77
1, 739953, Control_c, 0, 64, 0
1, 739964, Note_on_c, 0, 46, 109
1, 739968, Note_on_c, 0, 58, 101
1, 739972, Note_on_c, 0, 41, 71
1, 739974, Note_on_c, 0, 34, 66
1, 739975, Note_on_c, 0, 38, 80
1, 739975, Note_on_c, 0, 62, 77
1, 739975, Note_on_c, 0, 70, 90
1, 739983, Note_on_c, 0, 65, 65
1, 739987, Note_on_c, 0, 44, 59
1, 739987, Note_off_c, 0, 44, 127
1, 739996, Note_off_c, 0, 62, 70
1, 739997, Control_c, 0, 64, 58
1, 740004, Note_off_c, 0, 65, 71
1, 740005, Note_off_c, 0, 34, 61
1, 740005, Note_off_c, 0, 38, 67
1, 740009, Note_off_c, 0, 58, 56
1, 740011, Control_c, 0, 64, 102
1, 740013, Note_off_c, 0, 41, 62
1, 740026, Control_c, 0, 64, 127
1, 740037, Note_off_c, 0, 70, 65
1, 740059, Note_off_c, 0, 46, 59
1, 740159, Note_on_c, 0, 50, 87
1, 740159, Note_on_c, 0, 62, 88
1, 740164, Note_on_c, 0, 74, 82
1, 740168, Note_on_c, 0, 38, 61
1, 740181, Note_off_c, 0, 62, 68
1, 740183, Note_off_c, 0, 50, 67
1, 740189, Note_on_c, 0, 64, 44
1, 740196, Note_off_c, 0, 38, 62
1, 740199, Note_off_c, 0, 74, 59
1, 740216, Note_off_c, 0, 64, 60
1, 740252, Poly_aftertouch_c, 0, 68, 0
1, 740293, Note_on_c, 0, 53, 90
1, 740294, Note_on_c, 0, 65, 86
1, 740299, Note_on_c, 0, 77, 76
1, 740309, Note_off_c, 0, 65, 69
1, 740312, Note_off_c, 0, 53, 72
1, 740318, Note_off_c, 0, 77, 71
1, 740322, Note_on_c, 0, 41, 30
1, 740346, Note_off_c, 0, 41, 59
1, 740395, Note_on_c, 0, 70, 96
1, 740396, Note_on_c, 0, 58, 90
1, 740396, Note_on_c, 0, 82, 96
1, 740405, Note_on_c, 0, 46, 66
1, 740410, Note_off_c, 0, 70, 77
1, 740413, Note_off_c, 0, 58, 75
1, 740415, Note_off_c, 0, 82, 69
1, 740431, Note_off_c, 0, 46, 60
1, 740495, Note_on_c, 0, 74, 96
1, 740498, Note_on_c, 0, 86, 87
1, 740502, Note_on_c, 0, 62, 84
1, 740511, Note_off_c, 0, 74, 74
1, 740514, Note_on_c, 0, 50, 58
1, 740517, Note_off_c, 0, 86, 69
1, 740524, Note_off_c, 0, 62, 70
1, 740538, Note_off_c, 0, 50, 62
1, 740591, Note_on_c, 0, 77, 80
1, 740595, Note_on_c, 0, 89, 87
1, 740595, Poly_aftertouch_c, 0, 82, 0
1, 740596, Note_on_c, 0, 65, 96
1, 740604, Note_off_c, 0, 77, 73
1, 740612, Note_off_c, 0, 65, 76
1, 740616, Note_off_c, 0, 89, 67
1, 740642, Control_c, 0, 64, 91
1, 740657, Control_c, 0, 64, 61
1, 740672, Control_c, 0, 64, 41
1, 740687, Control_c, 0, 64, 65
1, 740689, Note_on_c, 0, 70, 97
1, 740692, Note_on_c, 0, 82, 102
1, 740696, Note_on_c, 0, 94, 97
1, 740698, Note_on_c, 0, 58, 62
1, 740702, Control_c, 0, 64, 127
1, 740704, Note_off_c, 0, 70, 74
1, 740706, Note_off_c, 0, 82, 73
1, 740708, Note_off_c, 0, 94, 77
1, 740711, Note_on_c, 0, 63, 47
1, 740720, Note_on_c, 0, 92, 58
1, 740733, Note_off_c, 0, 58, 65
1, 740739, Note_off_c, 0, 63, 58
1, 740742, Note_off_c, 0, 92, 61
1, 740748, Note_on_c, 0, 81, 15
1, 740796, Note_off_c, 0, 81, 40
1, 740811, Note_on_c, 0, 77, 91
1, 740812, Note_on_c, 0, 65, 88
1, 740820, Note_on_c, 0, 89, 73
1, 740824, Note_on_c, 0, 53, 65
1, 740831, Note_off_c, 0, 65, 72
1, 740833, Note_off_c, 0, 77, 68
1, 740834, Note_off_c, 0, 89, 67
1, 740844, Note_off_c, 0, 53, 63
1, 740845, Note_on_c, 0, 58, 22
1, 740845, Note_off_c, 0, 58, 127
1, 740875, Poly_aftertouch_c, 0, 58, 0
1, 740913, Note_on_c, 0, 74, 97
1, 740917, Note_on_c, 0, 62, 80
1, 740917, Note_on_c, 0, 86, 83
1, 740931, Note_on_c, 0, 50, 65
1, 740931, Note_off_c, 0, 74, 69
1, 740931, Note_off_c, 0, 86, 72
1, 740941, Note_off_c, 0, 62, 69
1, 740952, Note_off_c, 0, 50, 62
1, 741018, Note_on_c, 0, 70, 96
1, 741023, Note_on_c, 0, 58, 76
1, 741025, Note_on_c, 0, 80, 80
1, 741032, Note_on_c, 0, 46, 75
1, 741032, Note_off_c, 0, 70, 74
1, 741039, Note_off_c, 0, 80, 71
1, 741044, Note_off_c, 0, 58, 71
1, 741048, Note_on_c, 0, 56, 28
1, 741056, Note_off_c, 0, 46, 63
1, 741068, Note_on_c, 0, 49, 5
1, 741068, Note_off_c, 0, 49, 127
1, 741084, Note_off_c, 0, 56, 54
1, 741114, Poly_aftertouch_c, 0, 49, 0
1, 741115, Note_on_c, 0, 65, 93
1, 741118, Note_on_c, 0, 77, 76
1, 741120, Note_on_c, 0, 53, 86
1, 741131, Note_on_c, 0, 67, 57
1, 741134, Note_off_c, 0, 65, 73
1, 741137, Note_off_c, 0, 77, 72
1, 741138, Note_on_c, 0, 41, 57
1, 741140, Note_off_c, 0, 53, 72
1, 741153, Note_off_c, 0, 67, 62
1, 741155, Note_on_c, 0, 46, 25
1, 741155, Note_off_c, 0, 46, 127
1, 741164, Note_off_c, 0, 41, 56
1, 741180, Poly_aftertouch_c, 0, 46, 0
1, 741202, Note_on_c, 0, 62, 94
1, 741208, Note_on_c, 0, 74, 78
1, 741215, Note_on_c, 0, 50, 82
1, 741224, Note_off_c, 0, 62, 66
1, 741224, Note_off_c, 0, 74, 69
1, 741237, Note_off_c, 0, 50, 68
1, 741248, Note_on_c, 0, 38, 36
1, 741287, Note_off_c, 0, 38, 46
1, 741298, Note_on_c, 0, 46, 93
1, 741307, Note_on_c, 0, 58, 98
1, 741308, Note_on_c, 0, 70, 99
1, 741338, Note_off_c, 0, 58, 60
1, 741341, Note_on_c, 0, 66, 37
1, 741341, Note_off_c, 0, 66, 127
1, 741342, Note_on_c, 0, 34, 21
1, 741345, Note_off_c, 0, 46, 65
1, 741347, Note_off_c, 0, 70, 61
1, 741347, Control_c, 0, 64, 73
1, 741362, Control_c, 0, 64, 41
1, 741376, Note_off_c, 0, 34, 56
1, 741376, Poly_aftertouch_c, 0, 66, 0
1, 741377, Control_c, 0, 64, 0
1, 741484, Note_on_c, 0, 53, 87
1, 741492, Note_on_c, 0, 60, 92
1, 741493, Note_on_c, 0, 72, 84
1, 741495, Note_on_c, 0, 48, 63
1, 741497, Note_on_c, 0, 45, 56
1, 741497, Note_on_c, 0, 69, 80
1, 741510, Control_c, 0, 64, 44
1, 741519, Note_off_c, 0, 53, 62
1, 741519, Note_off_c, 0, 60, 67
1, 741522, Note_off_c, 0, 45, 58
1, 741525, Note_off_c, 0, 48, 66
1, 741525, Control_c, 0, 64, 69
1, 741529, Note_on_c, 0, 68, 13
1, 741529, Note_off_c, 0, 68, 127
1, 741531, Note_off_c, 0, 69, 59
1, 741540, Control_c, 0, 64, 91
1, 741546, Note_off_c, 0, 72, 60
1, 741555, Control_c, 0, 64, 127
1, 741655, Note_on_c, 0, 58, 83
1, 741658, Note_on_c, 0, 62, 96
1, 741659, Note_on_c, 0, 70, 94
1, 741662, Note_on_c, 0, 50, 63
1, 741662, Note_on_c, 0, 53, 62
1, 741665, Note_on_c, 0, 74, 88
1, 741670, Note_on_c, 0, 64, 73
1, 741676, Note_off_c, 0, 58, 65
1, 741677, Note_off_c, 0, 62, 69
1, 741685, Note_off_c, 0, 53, 64
1, 741688, Note_off_c, 0, 64, 42
1, 741690, Note_on_c, 0, 73, 40
1, 741692, Note_off_c, 0, 50, 64
1, 741704, Note_off_c, 0, 70, 62
1, 741714, Note_off_c, 0, 74, 59
1, 741722, Note_off_c, 0, 73, 54
1, 741828, Note_on_c, 0, 72, 88
1, 741828, Note_on_c, 0, 73, 72
1, 741833, Note_on_c, 0, 65, 80
1, 741834, Note_on_c, 0, 52, 73
1, 741834, Note_on_c, 0, 53, 74
1, 741836, Note_on_c, 0, 77, 73
1, 741842, Note_on_c, 0, 67, 60
1, 741846, Note_off_c, 0, 73, 67
1, 741848, Note_off_c, 0, 65, 70
1, 741851, Note_off_c, 0, 53, 68
1, 741853, Note_off_c, 0, 72, 66
1, 741856, Note_on_c, 0, 40, 53
1, 741860, Note_off_c, 0, 52, 69
1, 741860, Note_off_c, 0, 77, 68
1, 741865, Note_off_c, 0, 67, 41
1, 741886, Note_off_c, 0, 40, 53
1, 741930, Poly_aftertouch_c, 0, 41, 0
1, 741933, Control_c, 0, 64, 84
1, 741948, Control_c, 0, 64, 53
1, 741962, Control_c, 0, 64, 0
1, 741979, Note_on_c, 0, 46, 100
1, 741983, Note_on_c, 0, 70, 104
1, 741989, Note_on_c, 0, 77, 83
1, 741992, Control_c, 0, 64, 58
1, 741995, Note_on_c, 0, 82, 83
1, 742006, Control_c, 0, 64, 92
1, 742018, Note_on_c, 0, 34, 27
1, 742021, Control_c, 0, 64, 127
1, 742028, Note_off_c, 0, 70, 57
1, 742032, Note_off_c, 0, 46, 63
1, 742034, Note_on_c, 0, 80, 16
1, 742048, Note_off_c, 0, 77, 61
1, 742059, Note_off_c, 0, 82, 62
1, 742061, Note_off_c, 0, 34, 50
1, 742087, Note_off_c, 0, 80, 52
1, 742125, Control_c, 0, 64, 82
1, 742140, Control_c, 0, 64, 47
1, 742154, Note_on_c, 0, 72, 105
1, 742154, Control_c, 0, 64, 0
1, 742157, Note_on_c, 0, 53, 78
1, 742157, Note_on_c, 0, 81, 106
1, 742157, Note_on_c, 0, 48, 70
1, 742160, Note_on_c, 0, 84, 100
1, 742172, Note_on_c, 0, 45, 48
1, 742178, Note_on_c, 0, 41, 14
1, 742184, Note_off_c, 0, 48, 65
1, 742184, Control_c, 0, 64, 59
1, 742185, Note_off_c, 0, 72, 65
1, 742187, Note_on_c, 0, 80, 41
1, 742187, Note_off_c, 0, 80, 127
1, 742196, Note_on_c, 0, 52, 31
1, 742196, Note_off_c, 0, 52, 127
1, 742199, Control_c, 0, 64, 97
1, 742201, Note_off_c, 0, 45, 51
1, 742201, Note_off_c, 0, 53, 63
1, 742209, Note_off_c, 0, 81, 56
1, 742213, Control_c, 0, 64, 127
1, 742222, Note_off_c, 0, 84, 62
1, 742225, Note_off_c, 0, 41, 28
1, 742333, Note_on_c, 0, 58, 89
1, 742333, Note_on_c, 0, 74, 110
1, 742335, Note_on_c, 0, 53, 77
1, 742337, Note_on_c, 0, 86, 98
1, 742338, Note_on_c, 0, 50, 70
1, 742338, Note_on_c, 0, 82, 99
1, 742350, Note_on_c, 0, 80, 68
1, 742356, Note_on_c, 0, 84, 70
1, 742356, Note_off_c, 0, 53, 70
1, 742358, Note_off_c, 0, 74, 66
1, 742359, Note_off_c, 0, 58, 62
1, 742364, Note_off_c, 0, 84, 48
1, 742365, Note_on_c, 0, 46, 29
1, 742365, Note_off_c, 0, 50, 64
1, 742368, Note_off_c, 0, 80, 67
1, 742377, Note_off_c, 0, 82, 41
1, 742393, Note_off_c, 0, 86, 59
1, 742407, Note_off_c, 0, 46, 55
1, 742526, Note_on_c, 0, 53, 98
1, 742530, Note_on_c, 0, 48, 88
1, 742530, Note_on_c, 0, 84, 109
1, 742531, Note_on_c, 0, 77, 104
1, 742534, Note_on_c, 0, 45, 81
1, 742534, Note_on_c, 0, 89, 105
1, 742549, Note_off_c, 0, 53, 66
1, 742556, Note_on_c, 0, 41, 45
1, 742559, Note_off_c, 0, 48, 64
1, 742565, Note_on_c, 0, 85, 35
1, 742571, Note_off_c, 0, 45, 62
1, 742583, Note_off_c, 0, 41, 56
1, 742594, Note_off_c, 0, 84, 64
1, 742594, Note_off_c, 0, 89, 54
1, 742598, Note_off_c, 0, 85, 58
1, 742619, Note_off_c, 0, 77, 60
1, 742713, Note_on_c, 0, 42, 27
1, 742770, Control_c, 0, 64, 91
1, 742771, Note_on_c, 0, 46, 101
1, 742777, Note_on_c, 0, 82, 107
1, 742779, Note_on_c, 0, 74, 112
1, 742782, Note_on_c, 0, 41, 80
1, 742783, Note_on_c, 0, 86, 96
1, 742785, Control_c, 0, 64, 53
1, 742786, Note_on_c, 0, 38, 71
1, 742800, Control_c, 0, 64, 0
1, 742801, Note_on_c, 0, 34, 53
1, 742809, Note_on_c, 0, 47, 42
1, 742813, Note_on_c, 0, 76, 43
1, 742813, Note_off_c, 0, 76, 127
1, 742815, Note_on_c, 0, 84, 47
1, 742829, Control_c, 0, 64, 63
1, 742831, Note_on_c, 0, 80, 13
1, 742831, Note_off_c, 0, 80, 127
1, 742836, Note_off_c, 0, 34, 58
1, 742838, Note_off_c, 0, 47, 57
1, 742844, Control_c, 0, 64, 127
1, 742854, Note_off_c, 0, 74, 67
1, 742857, Note_off_c, 0, 86, 64
1, 742859, Note_off_c, 0, 42, 0
1, 742872, Note_off_c, 0, 38, 62
1, 742885, Note_off_c, 0, 41, 62
1, 742892, Note_off_c, 0, 46, 63
1, 742896, Note_off_c, 0, 82, 61
1, 742912, Note_off_c, 0, 84, 42
1, 742914, Poly_aftertouch_c, 0, 42, 0
1, 743170, Note_on_c, 0, 58, 54
1, 743219, Note_on_c, 0, 62, 64
1, 743227, Note_off_c, 0, 58, 58
1, 743262, Note_on_c, 0, 65, 65
1, 743318, Note_on_c, 0, 70, 107
1, 743328, Note_on_c, 0, 82, 118
1, 743331, Note_on_c, 0, 89, 98
1, 743332, Note_on_c, 0, 94, 109
1, 743359, Note_off_c, 0, 70, 71
1, 743368, Note_off_c, 0, 65, 64
1, 743371, Note_on_c, 0, 66, 21
1, 743375, Note_off_c, 0, 94, 68
1, 743376, Note_on_c, 0, 92, 32
1, 743376, Note_off_c, 0, 92, 127
1, 743392, Note_off_c, 0, 82, 68
1, 743397, Note_off_c, 0, 62, 28
1, 743400, Note_off_c, 0, 89, 64
1, 743415, Note_off_c, 0, 66, 39
1, 744124, Note_on_c, 0, 34, 61
1, 744164, Note_on_c, 0, 38, 66
1, 744190, Note_off_c, 0, 34, 60
1, 744206, Note_on_c, 0, 41, 53
1, 744226, Note_on_c, 0, 46, 108
1, 744233, Note_on_c, 0, 50, 105
1, 744237, Note_on_c, 0, 53, 100
1, 744237, Note_on_c, 0, 58, 100
1, 744239, Control_c, 0, 64, 74
1, 744254, Control_c, 0, 64, 0
1, 744258, Note_on_c, 0, 56, 64
1, 744261, Note_on_c, 0, 54, 53
1, 744261, Note_off_c, 0, 54, 127
1, 744313, Control_c, 0, 64, 69
1, 744328, Control_c, 0, 64, 127
1, 744668, Note_off_c, 0, 56, 6
1, 745045, Note_on_c, 0, 34, 3
1, 745622, Poly_aftertouch_c, 0, 37, 127
1, 745795, Note_off_c, 0, 50, 66
1, 745798, Note_off_c, 0, 46, 65
1, 745805, Note_off_c, 0, 58, 60
1, 745812, Note_off_c, 0, 38, 68
1, 745812, Note_off_c, 0, 53, 64
1, 745814, Note_off_c, 0, 34, 53
1, 745814, Note_off_c, 0, 41, 63
1, 745847, Poly_aftertouch_c, 0, 37, 0
1, 745853, Control_c, 0, 64, 108
1, 745868, Control_c, 0, 64, 78
1, 745883, Control_c, 0, 64, 56
1, 745898, Control_c, 0, 64, 0
1, 745898, End_track
0, 0, End_of_file
